<?xml version="1.0" standalone="no"?>
<!DOCTYPE svg PUBLIC "-//W3C//DTD SVG 1.1//EN" "http://www.w3.org/Graphics/SVG/1.1/DTD/svg11.dtd">
<svg xmlns="http://www.w3.org/2000/svg">
<defs >
<font id="Karma" horiz-adv-x="528" ><font-face
    font-family="Karma"
    units-per-em="1000"
    panose-1="2 0 0 0 0 0 0 0 0 0"
    ascent="945"
    descent="-508"
    alphabetic="0" />
<glyph unicode=" " glyph-name="space" horiz-adv-x="268" />
<glyph unicode="!" glyph-name="exclam" horiz-adv-x="249" d="M177 16T162 1T125 -15T87 0T72 39T87 77T124 92T162 77T177 39ZM100 193L89 692Q122 704 167 697L147 193Q124 185 100 193Z" />
<glyph unicode="&quot;" glyph-name="quotedbl" horiz-adv-x="290" d="M65 500L51 681Q92 693 132 685L113 500Q90 495 65 500ZM173 500L159 681Q200 693 240 685L221 500Q198 495 173 500Z" />
<glyph unicode="#" glyph-name="numbersign" horiz-adv-x="704" d="M455 243H599Q614 220 616 190H441L394 17H337L384 190H218L171 17H114L161 190H74Q58 210 56 243H175L226 426H105Q90 448 87 477H239L287 650H343L296 477L463 478L510 650H566L519 478H630Q645
459 648 426H505L455 243ZM398 243L449 426H282L232 243H398Z" />
<glyph unicode="$" glyph-name="dollar" horiz-adv-x="467" d="M400 508Q400 479 384 466T344 454Q344 552 236 552Q184 552 152 529T119 466Q119 415 168 385Q205 361 276 333T387 271T426 171T379 50T253 -15L259 -102Q226 -115 194 -102L200 -16Q138 -12 90
16T41 87Q41 108 54 123T92 138Q113 33 229 33Q287 33 326 62T365 146T335 225T227 282T102 350T55 446T96 546T201 599L194 688Q228 700 259 688L253 603Q309 602 354 579T400 508Z" />
<glyph unicode="%" glyph-name="percent" horiz-adv-x="752" d="M443 239T477 283T575 327T673 284T707 157T673 29T575 -15T478 27T443 154ZM575 285Q496 285 496 157T574 28T653 158Q653 219 633 252T575 285ZM178 622Q309 622 309 453Q309 368 275 324T177
280T80 322T45 450Q45 622 178 622ZM255 580T177 580T99 452T176 323Q255 323 255 451ZM585 622L231 0H168L522 622H585Z" />
<glyph unicode="&amp;" glyph-name="ampersand" horiz-adv-x="726" d="M505 110Q592 44 635 44T697 72Q711 60 711 39T693 0T640 -17Q570 -17 462 63Q374 -18 248 -18Q146 -18 93 30T39 155Q39 209 71 261T174 351Q100 450 100 521T143 633T263 675Q318 675 363
639T408 536T365 419T262 344Q266 339 275 329T290 312Q379 213 465 142Q508 199 529 286L470 292Q466 333 497 333H645Q644 330 645 325T645 315T641 304Q637 293 615 291L582 289Q559 185 505 110ZM262 627Q213 627 188 600T163 531Q163 474 236 378Q291 400
317 444T344 535T318 605T262 627ZM111 112T148 73T269 34T422 95Q338 165 248 263Q228 284 203 315Q159 288 135 250T111 162Z" />
<glyph unicode="&apos;" glyph-name="quotesingle" horiz-adv-x="181" d="M64 500L50 681Q91 693 131 685L112 500Q89 495 64 500Z" />
<glyph unicode="(" glyph-name="parenleft" horiz-adv-x="279" d="M132 256Q132 1 260 -162L225 -192Q58 -10 58 256T231 710L264 683Q170 538 145 404Q132 334 132 256Z" />
<glyph unicode=")" glyph-name="parenright" horiz-adv-x="279" d="M48 710Q221 523 221 257T54 -192L19 -162Q147 1 147 256Q147 455 56 615Q39 646 15 683L48 710Z" />
<glyph unicode="*" glyph-name="asterisk" horiz-adv-x="573" d="M268 552L406 624Q432 588 432 541L278 518L389 408Q363 370 318 357L250 495L182 356Q136 370 111 408L221 517L68 540Q72 593 95 624L232 551L206 704Q251 717 293 704L268 552Z" />
<glyph unicode="+" glyph-name="plus" horiz-adv-x="478" d="M428 314V258H269V97H210V258H50V314H210V475H269V314H428Z" />
<glyph unicode="," glyph-name="comma" horiz-adv-x="190" d="M42 61T56 75T94 90T133 75T148 26T122 -49T65 -104Q60 -106 53 -99T45 -87Q76 -65 87 -16Q67 -14 55 1T42 39Z" />
<glyph unicode="-" glyph-name="hyphen" horiz-adv-x="388" d="M48 279H340V220H48V279Z" />
<glyph unicode="." glyph-name="period" horiz-adv-x="190" d="M118 -15T95 -15T57 0T42 39T57 77T95 92T133 77T148 39T133 1Z" />
<glyph unicode="/" glyph-name="slash" horiz-adv-x="402" d="M87 -131H20L314 696H382L87 -131Z" />
<glyph unicode="0" glyph-name="zero" horiz-adv-x="504" d="M397 437T362 503T253 570T143 502T107 297T142 99T253 37T362 99T397 299ZM364 623T416 544T469 302T416 62T252 -15T89 62T35 300T88 541T253 622Z" />
<glyph unicode="1" glyph-name="one" horiz-adv-x="356" d="M285 0H57V8Q57 33 71 39Q78 42 88 43L152 46V540L80 514Q64 509 53 522T42 548L156 612Q172 622 194 622Q223 622 223 588V48L313 42Q317 0 285 0Z" />
<glyph unicode="2" glyph-name="two" horiz-adv-x="456" d="M51 547T101 584T231 622T358 579T406 462Q406 352 294 222Q255 177 235 156T172 95T124 50L365 53L374 114Q377 135 394 143T421 145V0H42Q34 24 36 36Q80 75 145 143T227 232T267 286T302 344Q332
408 332 457T303 538T220 570T138 535T109 437Q85 436 68 449T51 492Q51 547 101 584Z" />
<glyph unicode="3" glyph-name="three" horiz-adv-x="435" d="M265 384T284 411T304 479T279 545T209 571T141 545T116 473Q87 475 72 489T60 527Q63 566 106 594T218 622T333 584T379 483Q379 436 349 396T258 331Q327 320 367 278T408 171Q408 91 347 38T188
-15Q121 -15 78 10T34 77T78 127Q86 85 115 60T201 35T295 72T333 163T298 247T223 285T131 289L130 344Q181 344 236 370Q265 384 284 411Z" />
<glyph unicode="4" glyph-name="four" horiz-adv-x="464" d="M449 197V145H361V0L292 -10V145H40Q21 176 19 193L296 612Q328 621 359 614L360 197H449ZM292 197V524L81 197H292Z" />
<glyph unicode="5" glyph-name="five" horiz-adv-x="425" d="M216 377Q298 377 350 333T402 197T342 45T186 -15Q115 -15 75 8T34 70Q34 92 48 102T80 113Q91 35 190 35Q252 35 290 78T328 190T289 289T194 319T90 294L77 301L91 613L357 612L353 553H140L133
366Q174 377 216 377Z" />
<glyph unicode="6" glyph-name="six" horiz-adv-x="472" d="M127 309Q193 352 272 352T395 308T438 182T387 43T248 -15Q51 -15 51 247Q51 430 116 526T299 622Q354 622 383 604T412 558Q412 513 364 509Q364 535 346 554T291 573Q222 573 179 505T127 309ZM125
246Q125 35 250 35Q305 35 335 71T365 172T336 268T243 301T125 257V246Z" />
<glyph unicode="7" glyph-name="seven" horiz-adv-x="387" d="M18 613H370Q379 599 379 580L130 -7L58 17L309 560L74 557L65 493Q62 476 43 470T18 470V613Z" />
<glyph unicode="8" glyph-name="eight" horiz-adv-x="454" d="M424 168Q424 95 369 40T225 -15T91 28T43 132T79 242T175 323Q81 386 81 471Q81 537 125 579T238 622T350 586T395 487Q395 396 298 334Q358 298 391 262T424 168ZM199 576T172 550T144 485T172 418T263
355Q332 408 332 481Q332 524 308 550T242 576ZM111 190T111 144T141 66T231 34T325 66T361 143T330 221T242 284L214 299Q169 273 140 232Z" />
<glyph unicode="9" glyph-name="nine" horiz-adv-x="441" d="M211 622Q408 622 408 359Q408 177 343 81T159 -15Q105 -15 76 3T47 50Q47 94 94 98Q94 72 112 53T167 34Q236 34 279 102T332 298Q266 255 187 255T65 299T21 426T72 565T211 622ZM334 361Q334 573
209 573Q154 573 124 537T94 435Q94 306 207 306Q280 306 334 350V361Z" />
<glyph unicode=":" glyph-name="colon" horiz-adv-x="192" d="M119 296T96 296T58 312T42 351T57 390T96 406T134 390T150 351T135 312ZM119 -15T96 -15T58 0T42 39T57 78T96 94T134 78T150 39T135 1Z" />
<glyph unicode=";" glyph-name="semicolon" horiz-adv-x="204" d="M56 57T70 71T108 86T147 71T162 22T136 -53T79 -108Q74 -110 67 -103T59 -91Q90 -69 101 -20Q81 -18 69 -3T56 35ZM118 303T95 303T57 318T42 356T57 394T95 410T133 395T148 356T133 318Z" />
<glyph unicode="&lt;" glyph-name="less" horiz-adv-x="455" d="M404 433L125 288L403 144L375 91L38 267V309L376 486L404 433Z" />
<glyph unicode="=" glyph-name="equal" horiz-adv-x="478" d="M50 249H428V192H50V249ZM50 384H428V328H50V384Z" />
<glyph unicode="&gt;" glyph-name="greater" horiz-adv-x="439" d="M64 407L401 305V281L63 178L35 209L313 293L36 376L64 407Z" />
<glyph unicode="?" glyph-name="question" horiz-adv-x="486" d="M157 62T172 77T210 92T248 77T263 39T248 1T210 -15T172 0T157 39ZM48 625T101 667T244 710T387 666T439 542T379 405T241 329L235 187Q213 184 186 187L181 366Q261 386 312 433T364 544Q364
593 332 627T238 662T143 621T109 525Q48 525 48 573Q48 625 101 667Z" />
<glyph unicode="@" glyph-name="at" horiz-adv-x="969" d="M503 -164Q302 -164 180 -51T57 253T181 564T510 684Q691 684 801 596T912 366T830 138T612 53Q583 53 570 63T559 104Q491 44 418 44T306 95T277 251T351 419T510 484Q562 484 608 461L610 473L674 480L621
100Q728 97 793 167T858 360T762 560T509 638Q330 638 222 533T113 257T223 -15T512 -117Q647 -117 738 -59L750 -104Q638 -164 503 -164ZM599 392Q560 433 495 433T393 383T345 263T357 146T445 99Q477 99 503 112T566 153L599 392Z" />
<glyph unicode="A" glyph-name="A" horiz-adv-x="610" d="M571 0H379V8Q379 34 393 42Q400 45 410 46L456 48L403 231H191L138 50L213 44Q217 0 186 0H11V8Q11 34 25 42Q32 45 42 46L82 48L275 678Q307 682 340 678L533 50L598 44Q602 0 571 0ZM206 281H388L298
594L206 281Z" />
<glyph unicode="B" glyph-name="B" horiz-adv-x="544" d="M42 6Q42 45 73 45L119 49V628L46 634Q42 679 72 679H281Q381 679 431 632T482 514Q482 406 371 360Q431 349 473 307T515 199Q516 106 454 53T286 0H42V6ZM191 631V374H234Q325 374 365 408T406 510T363
608T240 634L192 631H191ZM440 189Q440 268 394 300T246 330L191 329V49L261 48Q440 45 440 189Z" />
<glyph unicode="C" glyph-name="C" horiz-adv-x="559" d="M335 692Q416 692 470 656T525 563T462 506Q462 569 426 603T327 638Q224 638 170 555T116 335Q116 46 339 46Q443 46 519 107Q532 100 532 85Q532 54 471 20T322 -15Q187 -15 115 73T39 321T114 586T335 692Z" />
<glyph unicode="D" glyph-name="D" horiz-adv-x="665" d="M42 0V16Q42 27 47 33T56 41T62 43T71 45L118 49V628L46 634Q43 679 75 679H284Q463 679 544 597T626 346T539 88T285 0H42ZM403 46T476 117T549 343T473 567T242 632L191 630H190V49L263 48Q403 46 476 117Z" />
<glyph unicode="E" glyph-name="E" horiz-adv-x="552" d="M42 0V16Q42 38 62 44Q67 46 73 46L119 48V627L46 633Q42 677 74 677H496V536Q496 505 452 509L442 622L191 627V360L383 373Q390 336 383 301L191 312V50L456 57L466 163Q510 167 510 136V0H42Z" />
<glyph unicode="F" glyph-name="F" horiz-adv-x="514" d="M495 677V543Q495 513 451 517L440 626L192 627V371L384 384Q390 350 384 312L192 323V50L279 44Q283 0 252 0H42Q42 0 42 8Q42 34 56 42Q63 45 73 46L119 48V627L46 633Q42 677 74 677H495Z" />
<glyph unicode="G" glyph-name="G" horiz-adv-x="627" d="M401 306H611V298Q611 263 580 260L555 257H553V71Q520 32 454 9T318 -15Q188 -15 116 71T39 321T117 589T351 694Q452 694 502 656T553 566Q553 541 539 524T491 506Q491 642 337 642Q228 642 172 559T115
337T167 120T335 41Q432 41 486 87V255L374 261Q370 306 401 306Z" />
<glyph unicode="H" glyph-name="H" horiz-adv-x="713" d="M640 0H446V8Q446 34 460 42Q467 45 477 46L522 48V314H191V50L264 44Q268 0 237 0H42V8Q42 34 56 42Q63 45 73 46L119 48V627L46 633Q42 677 73 677H268V669Q268 642 254 636Q247 632 237 631L191 629V363H522V627L450
633Q446 677 477 677H671V669Q671 642 657 636Q650 632 640 631L595 629V50L667 44Q671 0 640 0Z" />
<glyph unicode="I" glyph-name="I" horiz-adv-x="310" d="M237 0H42V8Q42 34 56 42Q63 45 73 46L119 48V627L46 633Q42 677 73 677H268V669Q268 642 254 636Q247 632 237 631L191 629V50L264 44Q268 0 237 0Z" />
<glyph unicode="J" glyph-name="J" horiz-adv-x="328" d="M92 677H291Q291 677 291 669Q291 642 277 636Q270 632 260 631L218 629V130Q218 46 178 -8T70 -62Q36 -62 13 -45T-11 -4Q-11 44 38 42Q40 -7 87 -7Q117 -7 131 21T146 120V627L64 633Q60 677 92 677Z" />
<glyph unicode="K" glyph-name="K" horiz-adv-x="601" d="M401 677H573Q573 677 573 669Q573 642 559 636Q551 631 503 629L285 365L513 47L574 41Q578 29 573 15T547 0H456L239 309L191 251V50L266 44Q270 0 239 0H42V8Q42 34 56 42Q63 45 73 46L119 48V627L46
633Q42 677 73 677H268V669Q268 642 254 636Q247 632 237 631L191 629V324L437 627L373 633Q369 677 401 677Z" />
<glyph unicode="L" glyph-name="L" horiz-adv-x="527" d="M506 139V0H42V8Q42 34 56 42Q63 45 73 46L119 48V628L45 634Q40 679 73 679H272V671Q272 644 258 638Q251 634 241 633L191 630V50L451 55L462 165Q506 169 506 139Z" />
<glyph unicode="M" glyph-name="M" horiz-adv-x="808" d="M765 0H579V8Q579 34 594 42Q601 45 611 46L653 48L615 571L428 123Q403 117 383 120L188 554L150 50L223 44Q227 0 195 0H14V8Q14 34 28 42Q35 45 45 46L90 48L136 628L65 634Q60 679 93 679H212L414
225L600 679H724Q756 679 752 634L682 628L727 52L793 44Q797 0 765 0Z" />
<glyph unicode="N" glyph-name="N" horiz-adv-x="685" d="M483 677H661Q661 677 661 669Q661 642 647 636Q640 632 630 631L583 629V11Q558 0 531 0L174 550V50L247 44Q251 0 220 0H42Q42 0 42 8Q42 34 56 42Q63 45 73 46L119 48V627L46 633Q42 677 73 677H179L529
137V627L456 633Q452 677 483 677Z" />
<glyph unicode="O" glyph-name="O" horiz-adv-x="642" d="M217 638T165 557T113 339T163 120T319 38T477 119T530 337T479 557T322 639ZM333 692Q414 692 476 652Q600 572 603 356Q605 187 528 86T304 -15Q182 -15 112 73T39 323T114 588T333 692Z" />
<glyph unicode="P" glyph-name="P" horiz-adv-x="551" d="M72 679H282Q405 679 468 627T531 490Q531 376 457 324T257 272Q224 272 191 275V50L267 44Q271 0 239 0H42Q42 0 42 8Q42 34 56 42Q63 45 73 46L119 48V629L46 635Q43 679 72 679ZM248 319Q454 319 454
478Q454 647 245 634L191 631V321Q211 319 248 319Z" />
<glyph unicode="Q" glyph-name="Q" horiz-adv-x="655" d="M607 -60Q615 -70 615 -90T597 -126T552 -141T497 -134T436 -110T383 -81T325 -45T276 -14Q167 -4 105 83T39 315Q36 485 114 588T333 692Q414 692 476 652Q600 572 603 356Q605 206 543 109T364 -10Q498
-76 557 -76Q582 -76 607 -60ZM217 638T165 557T113 339T163 120T319 38T477 119T530 337T479 557T322 639Z" />
<glyph unicode="R" glyph-name="R" horiz-adv-x="577" d="M42 0V16Q42 38 62 44Q67 46 73 46L119 48V629L46 635Q43 679 72 679H291Q510 679 510 513Q510 431 459 382T323 318Q384 189 450 117T566 45Q565 18 551 2T514 -15Q473 -15 422 38Q325 140 262 313H259Q226
313 191 316V50L267 44Q271 0 240 0H42ZM191 631V362Q233 360 250 360Q340 360 387 397T434 500Q434 588 378 615Q330 638 253 634L193 631H191Z" />
<glyph unicode="S" glyph-name="S" horiz-adv-x="496" d="M406 650Q438 623 438 587T420 536T375 521Q375 637 253 637Q196 637 159 610T121 535Q121 478 176 443Q206 424 225 415T285 389T348 360T398 332T438 298Q470 257 470 203Q470 113 403 49T225 -15Q146
-15 86 17T25 102Q25 128 40 145T83 162Q95 102 136 71T245 40T357 77T401 177Q401 235 360 265Q328 289 292 304T228 332T174 358T114 396Q52 441 52 518T111 642T259 692Q352 694 406 650Z" />
<glyph unicode="T" glyph-name="T" horiz-adv-x="603" d="M20 677H583V557Q583 525 539 529L532 626H339V50L415 44Q419 0 387 0H188Q188 0 188 8Q188 34 202 42Q209 45 219 46L267 48V626H71L64 529Q20 525 20 557V677Z" />
<glyph unicode="U" glyph-name="U" horiz-adv-x="646" d="M450 677H624Q624 677 624 669Q624 642 610 636Q603 632 593 631L549 629V254Q549 126 492 56T312 -15Q96 -15 96 241V627L23 633Q19 677 50 677H245Q245 677 245 669Q245 643 230 636Q223 632 213 631L168
629L167 245Q167 37 321 37Q404 37 449 87T495 242V627L422 633Q418 677 450 677Z" />
<glyph unicode="V" glyph-name="V" horiz-adv-x="614" d="M454 677H609Q609 677 609 669Q609 634 578 631L558 629L329 0H274L61 627L5 633Q1 677 33 677H218V669Q218 642 204 636Q197 632 187 631L141 629H140L313 96L499 627L427 633Q423 677 454 677Z" />
<glyph unicode="W" glyph-name="W" horiz-adv-x="945" d="M784 677H941Q940 674 941 669T941 658T936 646Q930 633 910 631L892 629L688 0H628L473 487L304 0H247L59 627L5 633Q1 677 32 677H214Q214 677 214 669Q214 642 200 636Q193 632 183 631L140 629L285
104L456 616H515L667 101L830 627L756 633Q752 677 784 677Z" />
<glyph unicode="X" glyph-name="X" horiz-adv-x="623" d="M584 0H403V8Q403 16 404 20T408 31Q413 44 435 46L465 48H466L303 289L147 50H148L211 44Q215 0 183 0H12V8Q12 34 26 42Q34 45 77 48L273 333L73 628L15 634Q10 679 43 679H225V671Q225 644 211 638Q204
634 160 630L322 391L467 628L405 634Q400 679 432 679H596V671Q596 645 581 638Q574 634 542 631H536L352 347L554 50L612 44Q616 0 584 0Z" />
<glyph unicode="Y" glyph-name="Y" horiz-adv-x="592" d="M431 679H587Q587 679 587 671Q587 636 556 633L535 630L336 276V50L409 44Q413 0 382 0H185V8Q185 34 200 42Q207 45 217 46L262 48V274L62 628H61L5 634Q0 679 33 679H220V671Q220 644 206 638Q199 634
189 633L144 630L312 329L474 628L403 634Q398 679 431 679Z" />
<glyph unicode="Z" glyph-name="Z" horiz-adv-x="533" d="M504 0H33Q26 10 21 28L407 633L126 624L114 534Q111 511 97 503T67 498V685H491Q500 674 505 658L119 50L444 61L457 157Q462 200 504 192V0Z" />
<glyph unicode="[" glyph-name="bracketleft" horiz-adv-x="224" d="M127 650V-130H210V-175H64V695H210V650H127Z" />
<glyph unicode="\" glyph-name="backslash" horiz-adv-x="402" d="M381 -131H314L19 696H87L381 -131Z" />
<glyph unicode="]" glyph-name="bracketright" horiz-adv-x="216" d="M97 -130V650H14V695H160V-175H14V-130H97Z" />
<glyph unicode="^" glyph-name="asciicircum" horiz-adv-x="486" d="M434 204H369L247 541L119 204H52L227 653H269L434 204Z" />
<glyph unicode="_" glyph-name="underscore" horiz-adv-x="384" d="M-38 -85H422V-140H-38V-85Z" />
<glyph unicode="`" glyph-name="grave" horiz-adv-x="552" d="M269 534L70 641Q79 658 97 673T133 690L298 563Q287 543 269 534Z" />
<glyph unicode="a" glyph-name="a" horiz-adv-x="502" d="M484 31Q484 -16 422 -16T350 47Q286 -15 196 -15Q127 -15 87 20T46 117T91 220T240 262Q301 262 348 248V327Q348 384 320 418T236 453T158 424T131 355Q107 353 91 365T75 404Q75 447 119 475T233 504Q294
504 349 474Q380 458 399 421T418 331V39L484 31ZM348 188Q302 213 241 213T152 190T123 127T148 64T217 40Q287 40 348 94V188Z" />
<glyph unicode="b" glyph-name="b" horiz-adv-x="552" d="M160 433Q233 504 316 504T455 443T513 259T453 61T276 -15Q219 -15 160 11L91 37V631L39 637Q15 639 15 680L160 698V433ZM160 88Q214 39 290 39T403 98T439 245T404 389T294 445Q257 445 228 430T160 383V88Z" />
<glyph unicode="c" glyph-name="c" horiz-adv-x="452" d="M275 504Q339 504 376 478T414 409Q414 354 358 356Q357 393 333 421T259 450Q188 450 151 391T113 242Q113 163 144 106Q180 43 268 43Q340 43 405 96Q418 87 418 72Q418 42 361 14T239 -15Q144 -15 93
51T39 231T100 425T275 504Z" />
<glyph unicode="d" glyph-name="d" horiz-adv-x="544" d="M465 -15Q399 -15 394 58Q321 -15 237 -15T98 46T39 230T99 428T277 504Q338 504 393 478V631L341 637Q317 639 317 680L462 698V40L526 32Q524 -15 465 -15ZM393 401Q339 450 263 450T150 392T113 245T149
101T259 44Q296 44 325 59T393 107V401Z" />
<glyph unicode="e" glyph-name="e" horiz-adv-x="461" d="M430 263H116Q115 253 115 232Q115 147 151 95T263 42T408 96Q420 86 420 71Q420 43 366 14T243 -15Q150 -15 95 46T39 232T105 430T261 504T391 447T430 311V263ZM357 308Q357 375 331 414T256 454T171
415T122 308H357Z" />
<glyph unicode="f" glyph-name="f" horiz-adv-x="321" d="M47 443V461Q47 472 52 478T60 486Q69 489 75 489H118V526Q118 615 156 664T265 713Q300 714 324 701T348 663T335 626T301 614Q300 639 286 653T244 667Q187 667 187 549V489H310Q314 443 281 443H187V47L285
41V24Q285 12 280 9Q270 0 258 0H45V8Q45 32 59 38Q66 42 76 43L118 45V443H47Z" />
<glyph unicode="g" glyph-name="g" horiz-adv-x="463" d="M198 95L228 94Q350 92 400 66T451 -32Q451 -119 387 -172T223 -226T70 -189T18 -92Q18 -16 97 43Q72 56 72 88T122 173Q46 212 41 307Q36 387 86 445T222 504Q279 504 323 476L444 508Q453 496 454 478T444
450Q428 442 358 444Q390 402 389 329T341 204T210 153Q187 153 164 158Q124 111 144 102Q162 95 198 95ZM109 382T109 328T136 236T213 199T291 238T320 329T293 420T216 457T138 419ZM77 -117T119 -141T235 -166T354 -132T399 -50Q399 -3 346 12Q300 24 229 26T133
32Q77 -17 77 -67Z" />
<glyph unicode="h" glyph-name="h" horiz-adv-x="619" d="M567 0H377V8Q377 40 409 43L450 45V296Q450 369 419 405T339 442T258 426T190 378V47L266 41Q270 0 238 0H48V8Q48 32 62 38Q69 42 79 43L121 45V631L69 636Q45 639 45 679L190 698V433Q259 504 347 504Q417
504 467 456T518 302L519 47L594 41Q598 0 567 0Z" />
<glyph unicode="i" glyph-name="i" horiz-adv-x="291" d="M238 0H48V8Q48 32 62 38Q69 42 79 43L121 45V441L69 445Q45 448 45 488L190 504V47L266 41Q270 0 238 0ZM169 582T147 582T112 595T98 631T111 667T147 681T183 667T197 631T183 596Z" />
<glyph unicode="j" glyph-name="j" horiz-adv-x="249" d="M103 681T125 681T161 667T175 631T161 596T125 582T90 595T76 631T89 667ZM167 9Q167 -97 129 -161T12 -226Q-17 -226 -41 -212T-65 -174T-52 -138T-18 -127Q-16 -172 29 -172Q63 -172 80 -143T98 -40V441L45
446Q22 449 22 488L167 504V9Z" />
<glyph unicode="k" glyph-name="k" horiz-adv-x="537" d="M344 489H501V482Q501 458 487 452Q480 448 441 444L298 287L473 47L540 41Q544 0 511 0H429L254 239L190 169V47L266 41Q270 0 239 0H48V8Q48 32 62 38Q69 42 79 43L121 45V631L69 637Q45 639 45 680L190
698V234L376 442L316 448Q312 489 344 489Z" />
<glyph unicode="l" glyph-name="l" horiz-adv-x="286" d="M234 0H46V8Q46 40 78 43L121 45V632L69 637Q45 640 45 679L190 698V47L261 41Q265 0 234 0Z" />
<glyph unicode="m" glyph-name="m" horiz-adv-x="930" d="M878 0H689V8Q689 32 703 38Q710 42 720 43L761 45V295Q761 441 643 441Q602 441 571 424T503 372Q512 344 512 301V47L587 41Q591 0 560 0H370V8Q370 32 384 38Q391 42 401 43L442 45V295Q442 367 411
404T323 441Q284 441 254 425T190 378V47L266 41Q270 0 238 0H48V8Q48 32 62 38Q69 42 79 43L121 45V442L77 443Q45 443 45 486L174 503L186 433H189Q256 504 339 504Q384 504 425 482T488 413Q523 454 562 479T665 504T779 455T830 301V47L906 41Q910 0 878 0Z"
/>
<glyph unicode="n" glyph-name="n" horiz-adv-x="613" d="M561 0H375V8Q375 32 389 38Q396 42 406 43L450 45V304Q450 444 339 444Q298 444 265 428T190 377V47L261 41Q265 0 234 0H46V8Q46 40 78 43L121 45V439L69 445Q45 447 45 486L174 503L187 427H190Q271
504 357 504Q424 504 471 457T519 312V47L589 41Q593 0 561 0Z" />
<glyph unicode="o" glyph-name="o" horiz-adv-x="508" d="M187 452T150 393T113 243T149 94T253 36T358 94T395 241T360 392T256 453ZM261 504Q337 504 398 456Q430 430 449 380T469 260Q471 136 411 61T249 -15T94 49T40 234T98 429T261 504Z" />
<glyph unicode="p" glyph-name="p" horiz-adv-x="548" d="M154 430Q232 504 314 504T451 443T509 259T449 61T272 -15Q215 -15 156 11V-167L232 -173Q236 -214 204 -214H14V-206Q14 -182 28 -176Q36 -173 87 -169V437L34 443Q11 445 11 482L140 499L154 430ZM156
88Q208 39 286 39T399 98T435 245T400 389T290 445Q253 445 224 430T156 383V88Z" />
<glyph unicode="q" glyph-name="q" horiz-adv-x="523" d="M507 -214H318V-206Q318 -182 332 -176Q340 -173 391 -169V46Q322 -15 238 -15T98 47T39 230T99 428T274 504Q336 504 391 479V484L461 489V-167L535 -173Q539 -214 507 -214ZM391 403Q336 450 261 450T149
392T113 245T149 102T261 46Q299 46 327 59T391 100V403Z" />
<glyph unicode="r" glyph-name="r" horiz-adv-x="406" d="M220 455T264 479T337 504T384 491T402 448Q402 396 385 377Q372 366 344 368Q344 440 306 440Q258 440 190 372V47L276 41Q280 0 248 0H48V8Q48 32 62 38Q69 42 79 43L121 45V436L67 442Q45 444 45 483L180
500L187 423H190Q220 455 264 479Z" />
<glyph unicode="s" glyph-name="s" horiz-adv-x="395" d="M42 429T94 467T207 504T309 483T348 422Q347 395 329 383T290 373Q291 408 269 430T203 453T132 434T102 381T130 330T214 289T287 259T330 233Q373 203 372 142T318 33T179 -15Q117 -13 70 11T23 79Q24
102 38 115T74 128Q82 87 114 62T195 37T275 58T308 118T286 174T218 209T157 233T114 254T74 282Q41 317 41 364Q42 429 94 467Z" />
<glyph unicode="t" glyph-name="t" horiz-adv-x="374" d="M163 443V149Q163 93 175 68T223 43T283 51T342 87Q360 82 360 57T312 8T218 -16Q148 -16 121 24T94 140V443H21Q18 489 50 489H94V608L163 625V489H350Q353 456 335 443H163Z" />
<glyph unicode="u" glyph-name="u" horiz-adv-x="572" d="M16 460Q16 489 44 489H161V194Q161 120 192 83T284 45T409 100V442L332 447Q328 489 359 489H478V57L527 52Q550 50 550 9L429 -1L416 52Q349 -15 263 -15Q194 -15 143 34T92 188V442L16 447V460Z" />
<glyph unicode="v" glyph-name="v" horiz-adv-x="478" d="M345 489H474Q476 449 444 447L438 446L258 0H211L43 442L4 448Q1 489 30 489H190V482Q190 474 189 471T184 461Q180 449 158 447L120 444L244 95L374 442L317 448Q313 489 345 489Z" />
<glyph unicode="w" glyph-name="w" horiz-adv-x="704" d="M571 489H700Q704 449 671 447L665 446L499 0H457L349 310L233 0H192L44 442L4 448Q1 489 30 489H190V482Q190 474 189 471T184 461Q180 449 158 447L121 444L224 96L347 447H381L489 104L601 442L544
448Q540 489 571 489Z" />
<glyph unicode="x" glyph-name="x" horiz-adv-x="486" d="M452 0H291V8Q291 40 322 43L352 45L236 205L134 47L193 41Q197 0 166 0H9V8Q9 40 41 43L75 45L211 241L65 442L15 448Q11 489 43 489H205V482Q205 460 195 454T174 447L145 444L259 287L358 442L306 448Q302
489 333 489H473Q472 486 473 481T473 470T468 459Q462 447 442 447L418 445H417L285 251L433 47L480 41Q484 0 452 0Z" />
<glyph unicode="y" glyph-name="y" horiz-adv-x="495" d="M360 489H492Q491 486 492 482T492 472T488 461Q482 449 450 446L279 25H280Q253 -47 226 -99T182 -170Q143 -219 105 -219T49 -204T31 -167T42 -132T68 -118T88 -120Q79 -160 111 -160Q137 -160 170 -101T229
24L55 442H54L5 448Q1 489 33 489H201V482Q201 458 187 452Q179 448 132 444L262 109L390 442L332 448Q328 489 360 489Z" />
<glyph unicode="z" glyph-name="z" horiz-adv-x="400" d="M51 489H371Q379 478 384 459L102 45L333 49L339 106Q341 126 358 134T385 136V0H26Q18 11 15 29L300 448L102 443L98 387Q96 366 79 358T51 356V489Z" />
<glyph unicode="{" glyph-name="braceleft" horiz-adv-x="319" d="M101 636T137 672T230 708T307 695L301 660Q281 662 271 662Q166 662 166 571Q166 548 174 485T183 386Q183 277 132 261V254Q183 238 183 130Q183 98 175 33T166 -56Q166 -148 271 -148Q281 -148
301 -146L307 -180Q282 -193 227 -193T137 -157T101 -61Q101 -26 109 38T117 146T94 216Q84 229 50 244V271Q82 283 94 299Q117 325 117 368T109 475T101 576Q101 636 137 672Z" />
<glyph unicode="|" glyph-name="bar" horiz-adv-x="263" d="M100 -195V708H163V-195H100Z" />
<glyph unicode="}" glyph-name="braceright" horiz-adv-x="319" d="M-3 695Q17 708 73 708T166 672T203 576Q203 539 195 476T187 369T210 299Q222 283 254 271V244Q220 229 210 216Q187 190 187 147T195 39T203 -61Q203 -121 168 -157T77 -193T-3 -180L3 -146Q23
-148 33 -148Q138 -148 138 -56Q138 -32 130 33T121 130Q121 238 172 254V261Q121 277 121 386Q121 422 129 485T138 571Q138 662 33 662Q23 662 3 660L-3 695Z" />
<glyph unicode="~" glyph-name="asciitilde" horiz-adv-x="548" d="M131 241L100 255Q113 301 144 325T209 348T283 317T349 287T392 299T417 335L448 325Q438 279 409 253T339 228T256 257T193 286T155 274T131 241Z" />
<glyph unicode="&#xa0;" glyph-name="uni00A0" horiz-adv-x="268" />
<glyph unicode="&#xa1;" glyph-name="exclamdown" horiz-adv-x="249" d="M89 -18L100 481Q124 489 147 481L167 -23Q122 -30 89 -18ZM72 658T87 673T124 689T162 674T177 635T162 597T125 582T87 597T72 635Z" />
<glyph unicode="&#xa2;" glyph-name="cent" horiz-adv-x="479" d="M425 409Q425 354 369 356Q368 396 344 425T270 454Q199 454 162 395T124 246T159 100T273 42T417 94Q429 85 429 70Q429 45 390 21T296 -12L302 -105Q267 -118 235 -105L242 -16Q151 -13 102
52T50 225T99 410T243 501L235 596Q269 608 302 596L296 504Q356 502 390 476T425 409Z" />
<glyph unicode="&#xa3;" glyph-name="sterling" horiz-adv-x="508" d="M152 320Q158 377 158 389Q173 618 344 618Q389 618 422 599T455 546Q455 486 397 489Q397 569 329 569Q285 569 255 525T218 389Q214 339 212 320H385V271H207Q198 169 189 119T155 48H459Q463
0 422 0H55Q49 12 49 34Q82 43 99 60T126 110T147 271H58V320H152Z" />
<glyph unicode="&#xa4;" glyph-name="currency" horiz-adv-x="583" d="M238 145T296 145T389 182T425 280T390 377T296 415T202 378T166 280T202 183ZM447 404Q487 353 487 280T450 158L534 85Q511 53 488 40L413 124Q366 88 295 88T173 126L95 40Q72 53 49 85L138
162Q103 209 103 280T140 400L49 479Q73 511 95 523L174 435Q225 472 294 472T411 438L488 523Q510 511 534 479L447 404Z" />
<glyph unicode="&#xa5;" glyph-name="yen" horiz-adv-x="573" d="M400 613H563Q563 613 563 605Q563 570 531 567L508 564H506L355 320H454V270H332V219H454V169H332V50L406 44Q410 0 378 0H186V8Q186 34 200 42Q207 45 217 46L263 48V169H127V219H263V270H127V320H236L70
562L12 568Q8 613 40 613H225V605Q225 578 211 572Q203 567 157 565L305 331L442 562L372 568Q368 613 400 613Z" />
<glyph unicode="&#xa6;" glyph-name="brokenbar" horiz-adv-x="263" d="M100 340V708H163V340H100ZM163 173V-195H100V173H163Z" />
<glyph unicode="&#xa7;" glyph-name="section" horiz-adv-x="529" d="M487 -47Q487 -137 420 -201T242 -265Q163 -265 103 -233T42 -148Q42 -122 57 -105T100 -88Q112 -147 153 -177T260 -208T372 -173T418 -74Q418 -33 392 2Q376 24 319 50Q306 56 263 74T191
108T130 146Q69 192 69 268T133 395Q69 444 69 520T131 643T277 693Q367 695 423 650Q455 624 455 588T437 537T392 522Q392 576 362 606T273 636T176 610T138 536Q138 480 194 444Q224 425 241 417T303 389Q400 349 443 312T487 200T436 67Q487 22 487 -47ZM193
194Q237 166 300 140T392 97Q418 131 418 177Q418 219 392 252Q383 264 358 279Q326 298 277 318T181 363Q138 337 138 284T193 194Z" />
<glyph unicode="&#xa8;" glyph-name="dieresis" horiz-adv-x="600" d="M389 593T374 578T338 563T301 578T286 614T301 651T337 667T374 652T389 615ZM195 563T173 563T136 578T121 614T136 651T172 667T209 652T224 615T210 578Z" />
<glyph unicode="&#xa9;" glyph-name="copyright" horiz-adv-x="654" d="M384 463T405 448T427 413T416 385T391 377Q391 397 378 410T334 424T283 393T263 313Q263 207 348 207Q393 207 423 230Q430 226 430 211T402 179T335 163Q275 163 242 201T209 305T244
417T347 463Q384 463 405 448ZM546 414T485 476T326 538T168 475T108 310T168 146T327 84T486 146T546 311ZM50 435T126 511T327 588T528 512T604 311T529 110T328 34T126 110T50 310Z" />
<glyph unicode="&#xaa;" glyph-name="ordfeminine" horiz-adv-x="326" d="M262 334Q221 334 209 365Q175 334 130 334T60 354T35 410T63 468T154 491Q185 491 206 487V516Q206 582 152 582Q124 582 111 568T96 533Q78 531 66 539T54 569T80 607T154 624T233 599T266
519V373L304 369Q304 355 294 345T262 334ZM181 455T156 455T116 445T101 417T113 389T151 377T206 397V445Q181 455 156 455Z" />
<glyph unicode="&#xab;" glyph-name="guillemotleft" horiz-adv-x="556" d="M333 437L141 246V240L335 49L303 19L59 221Q54 242 59 265L303 467L333 437ZM524 437L332 246V240L526 49L494 19L250 221Q245 242 250 265L494 467L524 437Z" />
<glyph unicode="&#xac;" glyph-name="logicalnot" horiz-adv-x="480" d="M430 317V260L429 151H371L372 260H50V317H430Z" />
<glyph unicode="&#xad;" glyph-name="uni00AD" horiz-adv-x="388" d="M48 279H340V220H48V279Z" />
<glyph unicode="&#xae;" glyph-name="registered" horiz-adv-x="595" d="M194 702T298 702T465 638T529 468T465 299T298 235T131 299T66 467T130 637ZM117 383T167 332T298 280T428 330T478 466T430 603T300 656T168 605T117 468ZM209 602H300Q390 602 390 540Q390
483 323 469Q369 377 416 377Q414 349 384 349T325 385T281 466H270V383L301 381Q301 353 286 353H196Q196 381 210 382L225 383V573L196 574Q196 602 209 602ZM270 574V493Q274 492 293 492T328 504T344 536Q344 574 290 574H270Z" />
<glyph unicode="&#xaf;" glyph-name="overscore" horiz-adv-x="600" d="M126 635H389V578H126V635Z" />
<glyph unicode="&#xb0;" glyph-name="degree" horiz-adv-x="324" d="M104 607T104 580T120 536T163 518T204 535T220 579T204 623T162 640T120 624ZM52 532T52 579T83 655T163 685T241 656T272 580T242 503T163 473T83 502Z" />
<glyph unicode="&#xb1;" glyph-name="plusminus" horiz-adv-x="478" d="M268 314H428V258H268V139H210V258H50V314H210V475H268V314ZM50 52V108H428V52H50Z" />
<glyph unicode="&#xb2;" glyph-name="twosuperior" horiz-adv-x="321" d="M287 277H42Q33 299 36 308Q51 318 68 333T102 364T126 386T148 407T169 431T186 455T200 480Q212 508 212 531T197 569T155 585Q92 585 92 507Q45 505 45 546Q45 579 77 601T161 623T243
598T274 530Q274 438 109 318H248L252 351Q254 365 265 370T287 371V277Z" />
<glyph unicode="&#xb3;" glyph-name="threesuperior" horiz-adv-x="302" d="M95 472Q127 472 160 489T194 543Q194 563 182 574T145 586T107 571T92 532Q70 533 60 542T51 570T79 605T152 622T227 602T257 545Q257 486 178 461Q222 456 248 433T274 370T236 300T143
269T62 285T34 325Q34 356 70 359Q72 336 90 322T139 307T190 324T211 370Q209 437 95 431V472Z" />
<glyph unicode="&#xb4;" glyph-name="acute" horiz-adv-x="600" d="M408 641L209 534Q191 543 180 563L345 690Q363 688 381 673T408 641Z" />
<glyph unicode="&#xb5;" glyph-name="uni00B5" horiz-adv-x="563" d="M545 -16T484 -16T413 44Q350 -15 276 -15T158 25L164 -195Q152 -200 128 -200T92 -195L98 162Q97 170 97 188V489H166V194Q166 120 197 83T289 45T410 96V489H479V39L545 31Q545 -16 484 -16Z" />
<glyph unicode="&#xb6;" glyph-name="paragraph" horiz-adv-x="602" d="M273 679H526Q556 679 553 635L480 629V-90H407V629H335V-90H261V295Q188 295 124 334Q90 355 70 395T49 489Q49 572 106 625T273 679Z" />
<glyph unicode="&#xb7;" glyph-name="middot" horiz-adv-x="188" d="M117 203T94 203T56 218T40 257T55 296T94 312T132 296T148 257T133 219Z" />
<glyph unicode="&#xb8;" glyph-name="cedilla" horiz-adv-x="600" d="M340 -42T360 -61T380 -114T354 -170T284 -192T214 -164Q211 -143 226 -133Q249 -151 276 -151Q322 -151 322 -114Q322 -97 307 -88T249 -79L274 18H313L299 -42Q340 -42 360 -61Z" />
<glyph unicode="&#xb9;" glyph-name="onesuperior" horiz-adv-x="273" d="M53 290Q53 318 76 318L113 319V557L73 545Q61 541 52 552T42 570L123 613Q135 619 154 619T173 595V320L231 317Q231 285 209 285H53V290Z" />
<glyph unicode="&#xba;" glyph-name="ordmasculine" horiz-adv-x="365" d="M241 522T224 552T176 582T126 553T108 476T125 400T174 372T223 400T241 475ZM44 541T80 582T175 624T269 588T304 482T269 372T171 331T78 367T45 472Z" />
<glyph unicode="&#xbb;" glyph-name="guillemotright" horiz-adv-x="556" d="M225 246L32 437L62 467L306 265Q312 242 306 221L62 19L30 49L225 240V246ZM415 246L223 437L253 467L497 265Q502 242 497 221L253 19L221 49L415 240V246Z" />
<glyph unicode="&#xbc;" glyph-name="onequarter" horiz-adv-x="629" d="M600 106V68H548V-4L489 -10V68H343Q329 88 328 101L498 339Q525 346 548 341V106H600ZM489 106V263L377 106H489ZM469 622H533L178 0H115L469 622ZM39 282Q39 310 62 310L99 312V557L59
544Q46 541 37 552T28 571L109 615Q121 621 140 621T159 596V313L216 309Q216 306 216 299T211 284T194 276H39V282Z" />
<glyph unicode="&#xbd;" glyph-name="onehalf" horiz-adv-x="629" d="M612 0H367Q359 19 361 31Q376 41 393 56T427 86T451 108T473 130T494 154T511 178T526 202Q537 229 537 253T523 292T480 308Q417 308 417 230Q370 228 370 268Q370 301 402 323T486 346T568
321T599 253Q599 161 434 41H573L577 74Q579 88 590 93T612 94V0ZM456 622H519L165 0H101L456 622ZM30 282Q30 310 53 310L90 312V557L49 544Q36 540 27 551T18 571L99 615Q111 621 130 621T150 596V313L207 309Q207 306 207 299T202 284T185 276H30V282Z" />
<glyph unicode="&#xbe;" glyph-name="threequarters" horiz-adv-x="629" d="M609 106V68H558V-4L498 -10V68H352Q339 86 337 101L507 339Q534 346 557 341L558 106H609ZM498 106V263L386 106H498ZM489 622H552L197 0H134L489 622ZM184 543Q184 586 135 586Q109
586 96 571T82 532Q60 533 50 542T41 570T69 605T142 622T217 602T247 545Q247 486 168 461Q212 456 238 433T264 370T226 300T133 269T52 285T24 325Q24 356 60 359Q62 336 80 322T129 307T180 324T200 370Q199 437 85 431L84 472Q117 472 150 489T184 543Z" />
<glyph unicode="&#xbf;" glyph-name="questiondown" horiz-adv-x="486" d="M329 612T314 597T276 582T238 597T223 635T238 673T276 689T314 674T329 635ZM438 49T385 7T242 -36T99 8T47 132T107 269T245 345L251 487Q273 490 300 487L305 308Q225 288 174 241T122
130Q122 81 154 47T248 12T343 53T377 149Q438 149 438 101Q438 49 385 7Z" />
<glyph unicode="&#xc0;" glyph-name="Agrave" horiz-adv-x="610" d="M571 0H379V8Q379 34 393 42Q400 45 410 46L456 48L403 231H191L138 50L213 44Q217 0 186 0H11V8Q11 34 25 42Q32 45 42 46L82 48L275 678Q307 682 340 678L533 50L598 44Q602 0 571 0ZM206
281H388L298 594L206 281ZM238 878L403 751Q392 731 374 722L175 829Q184 846 202 861T238 878Z" />
<glyph unicode="&#xc1;" glyph-name="Aacute" horiz-adv-x="610" d="M571 0H379V8Q379 34 393 42Q400 45 410 46L456 48L403 231H191L138 50L213 44Q217 0 186 0H11V8Q11 34 25 42Q32 45 42 46L82 48L275 678Q307 682 340 678L533 50L598 44Q602 0 571 0ZM206
281H388L298 594L206 281ZM455 836L257 730Q238 739 227 759L392 886Q410 884 428 869T455 836Z" />
<glyph unicode="&#xc2;" glyph-name="Acircumflex" horiz-adv-x="610" d="M571 0H379V8Q379 34 393 42Q400 45 410 46L456 48L403 231H191L138 50L213 44Q217 0 186 0H11V8Q11 34 25 42Q32 45 42 46L82 48L275 678Q307 682 340 678L533 50L598 44Q602 0 571 0ZM206
281H388L298 594L206 281ZM307 808L172 720Q155 729 144 748L276 869Q310 877 338 869L469 748Q456 727 441 720L307 808Z" />
<glyph unicode="&#xc3;" glyph-name="Atilde" horiz-adv-x="610" d="M571 0H379V8Q379 34 393 42Q400 45 410 46L456 48L403 231H191L138 50L213 44Q217 0 186 0H11V8Q11 34 25 42Q32 45 42 46L82 48L275 678Q307 682 340 678L533 50L598 44Q602 0 571 0ZM206
281H388L298 594L206 281ZM465 809T439 781T373 753T291 778T228 803T193 789T172 756L141 767Q151 814 179 840T241 866T314 840T379 813T421 827T443 865L473 856Q465 809 439 781Z" />
<glyph unicode="&#xc4;" glyph-name="Adieresis" horiz-adv-x="610" d="M571 0H379V8Q379 34 393 42Q400 45 410 46L456 48L403 231H191L138 50L213 44Q217 0 186 0H11V8Q11 34 25 42Q32 45 42 46L82 48L275 678Q307 682 340 678L533 50L598 44Q602 0 571 0ZM206
281H388L298 594L206 281ZM246 751T224 751T187 766T171 802T186 839T223 855T260 840T275 803T261 766ZM440 781T425 766T388 751T351 766T336 802T351 839T388 855T425 840T440 803Z" />
<glyph unicode="&#xc5;" glyph-name="Aring" horiz-adv-x="610" d="M571 0H379V8Q379 34 393 42Q400 45 410 46L456 48L403 231H191L138 50L213 44Q217 0 186 0H11V8Q11 34 25 42Q32 45 42 46L82 48L275 678Q307 682 340 678L533 50L598 44Q602 0 571 0ZM206 281H388L298
594L206 281ZM399 780T374 756T308 731T243 754T218 817T243 880T310 905T376 882T400 820ZM330 863T309 863T276 851T264 818T276 785T309 773T342 785T354 818T342 851Z" />
<glyph unicode="&#xc6;" glyph-name="AE" horiz-adv-x="865" d="M822 136V0H347V8Q347 34 361 42Q368 45 378 46L424 48V312H264L138 50L213 44Q217 0 186 0H11V8Q11 34 25 42Q33 46 81 48L389 678L802 679V537Q802 506 757 511L748 624L496 629V362L688 375Q696
343 689 303L496 313V50L768 57L777 163Q822 168 822 136ZM424 361V628H416L288 361H424Z" />
<glyph unicode="&#xc7;" glyph-name="Ccedilla" horiz-adv-x="559" d="M335 692Q416 692 470 656T525 563T462 506Q462 569 426 603T327 638Q224 638 170 555T116 335Q116 46 339 46Q443 46 519 107Q532 100 532 85Q532 56 478 23T344 -14L337 -42Q378 -42 398
-61T418 -114T392 -170T322 -192T252 -164Q249 -143 264 -133Q287 -151 314 -151Q360 -151 360 -114Q360 -97 345 -88T287 -79L304 -15Q178 -8 110 79T39 324T114 586T335 692Z" />
<glyph unicode="&#xc8;" glyph-name="Egrave" horiz-adv-x="552" d="M373 722L174 829Q183 846 201 861T237 878L402 751Q391 731 373 722ZM42 0V16Q42 38 62 44Q67 46 73 46L119 48V627L46 633Q42 677 74 677H496V536Q496 505 452 509L442 622L191 627V360L383
373Q390 336 383 301L191 312V50L456 57L466 163Q510 167 510 136V0H42Z" />
<glyph unicode="&#xc9;" glyph-name="Eacute" horiz-adv-x="552" d="M453 836L255 730Q237 738 226 759L390 886Q408 884 426 869T453 836ZM42 0V16Q42 38 62 44Q67 46 73 46L119 48V627L46 633Q42 677 74 677H496V536Q496 505 452 509L442 622L191 627V360L383
373Q390 336 383 301L191 312V50L456 57L466 163Q510 167 510 136V0H42Z" />
<glyph unicode="&#xca;" glyph-name="Ecircumflex" horiz-adv-x="552" d="M42 0V16Q42 38 62 44Q67 46 73 46L119 48V627L46 633Q42 677 74 677H496V536Q496 505 452 509L442 622L191 627V360L383 373Q390 336 383 301L191 312V50L456 57L466 163Q510 167 510
136V0H42ZM305 808L171 720Q154 729 143 748L275 869Q308 877 337 869L468 748Q453 726 439 720L305 808Z" />
<glyph unicode="&#xcb;" glyph-name="Edieresis" horiz-adv-x="552" d="M439 781T424 766T387 751T350 766T335 802T350 839T386 855T423 840T439 803ZM274 781T259 766T223 751T186 766T170 802T185 839T222 855T259 840T274 803ZM42 0V16Q42 38 62 44Q67 46
73 46L119 48V627L46 633Q42 677 74 677H496V536Q496 505 452 509L442 622L191 627V360L383 373Q390 336 383 301L191 312V50L456 57L466 163Q510 167 510 136V0H42Z" />
<glyph unicode="&#xcc;" glyph-name="Igrave" horiz-adv-x="310" d="M237 0H42V8Q42 34 56 42Q63 45 73 46L119 48V627L46 633Q42 677 73 677H268V669Q268 642 254 636Q247 632 237 631L191 629V50L264 44Q268 0 237 0ZM90 878L255 751Q244 731 226 722L27 829Q36
846 54 861T90 878Z" />
<glyph unicode="&#xcd;" glyph-name="Iacute" horiz-adv-x="310" d="M237 0H42V8Q42 34 56 42Q63 45 73 46L119 48V627L46 633Q42 677 73 677H268V669Q268 642 254 636Q247 632 237 631L191 629V50L264 44Q268 0 237 0ZM306 836L108 730Q90 739 79 759L243 886Q262
884 280 869T306 836Z" />
<glyph unicode="&#xce;" glyph-name="Icircumflex" horiz-adv-x="310" d="M190 869L321 748Q306 726 292 720L158 807L24 720Q7 729 -4 748L128 869Q161 877 190 869ZM237 0H42V8Q42 34 56 42Q63 45 73 46L119 48V627L46 633Q42 677 73 677H268V669Q268 642 254
636Q247 632 237 631L191 629V50L264 44Q268 0 237 0Z" />
<glyph unicode="&#xcf;" glyph-name="Idieresis" horiz-adv-x="310" d="M188 824T203 839T239 855T276 840T292 803T277 766T240 751T203 766T188 802ZM237 0H42V8Q42 34 56 42Q63 45 73 46L119 48V627L46 633Q42 677 73 677H268V669Q268 642 254 636Q247 632
237 631L191 629V50L264 44Q268 0 237 0ZM97 855T112 840T127 803T113 766T76 751T39 766T23 802T38 839T75 855Z" />
<glyph unicode="&#xd0;" glyph-name="Eth" horiz-adv-x="692" d="M42 0V16Q42 27 47 33T56 41T62 43T71 45L118 49V312H66V363H118V628L46 634Q43 679 75 679H284Q463 679 544 597T626 346T539 88T285 0H42ZM403 46T476 117T549 343T473 567T242 632L191 630H190V363H370V312H190V49L263
48Q403 46 476 117Z" />
<glyph unicode="&#xd1;" glyph-name="Ntilde" horiz-adv-x="685" d="M483 677H661Q661 677 661 669Q661 642 647 636Q640 632 630 631L583 629V11Q558 0 531 0L174 550V50L247 44Q251 0 220 0H42Q42 0 42 8Q42 34 56 42Q63 45 73 46L119 48V627L46 633Q42 677
73 677H179L529 137V627L456 633Q452 677 483 677ZM498 810T471 782T405 753T324 778T261 803T226 789T204 756L174 767Q183 814 212 840T274 866T347 840T412 813T453 827T475 865L506 856Q498 810 471 782Z" />
<glyph unicode="&#xd2;" glyph-name="Ograve" horiz-adv-x="642" d="M402 722L203 829Q212 846 230 861T266 878L431 751Q420 731 402 722ZM333 692Q414 692 476 652Q600 572 603 356Q605 187 528 86T304 -15Q182 -15 112 73T39 323T114 588T333 692ZM217 638T165
557T113 339T163 120T319 38T477 119T530 337T479 557T322 639Z" />
<glyph unicode="&#xd3;" glyph-name="Oacute" horiz-adv-x="642" d="M483 836L284 730Q266 739 255 759L420 886Q438 884 456 869T483 836ZM217 638T165 557T113 339T163 120T319 38T477 119T530 337T479 557T322 639ZM333 692Q414 692 476 652Q600 572 603 356Q605
187 528 86T304 -15Q182 -15 112 73T39 323T114 588T333 692Z" />
<glyph unicode="&#xd4;" glyph-name="Ocircumflex" horiz-adv-x="642" d="M304 -15Q182 -15 112 73T39 323T114 588T333 692Q414 692 476 652Q600 572 603 356Q605 187 528 86T304 -15ZM424 39T477 119T530 337T479 557T322 639T165 557T113 339T163 120T319 38ZM335
807L200 720Q183 729 172 748L304 869Q337 877 366 869L497 748Q481 726 469 720L335 807Z" />
<glyph unicode="&#xd5;" glyph-name="Otilde" horiz-adv-x="642" d="M179 814T207 840T269 866T342 840T407 813T449 827T471 865L501 856Q493 809 467 781T401 753T319 778T256 803T221 789T199 756L169 767Q179 814 207 840ZM217 638T165 557T113 339T163 120T319
38T477 119T530 337T479 557T322 639ZM333 692Q414 692 476 652Q600 572 603 356Q605 187 528 86T304 -15Q182 -15 112 73T39 323T114 588T333 692Z" />
<glyph unicode="&#xd6;" glyph-name="Odieresis" horiz-adv-x="642" d="M468 781T453 766T416 751T379 766T364 802T379 839T416 855T453 840T468 803ZM274 751T252 751T215 766T199 802T214 839T251 855T288 840T303 803T289 766ZM217 638T165 557T113 339T163
120T319 38T477 119T530 337T479 557T322 639ZM333 692Q414 692 476 652Q600 572 603 356Q605 187 528 86T304 -15Q182 -15 112 73T39 323T114 588T333 692Z" />
<glyph unicode="&#xd7;" glyph-name="multiply" horiz-adv-x="420" d="M370 405L251 286L369 167L329 126L210 245L91 126L50 167L169 286L50 405L90 446L210 327L329 446L370 405Z" />
<glyph unicode="&#xd8;" glyph-name="Oslash" horiz-adv-x="684" d="M304 -15Q244 -15 193 8L179 -16L126 13L143 41Q42 128 39 306T114 588T333 692Q426 692 492 641L522 692L575 665L535 597Q600 512 602 350T528 86T304 -15ZM217 638T165 557T113 328T177 101L458
583Q407 639 321 639Q217 638 165 557ZM424 39T477 119T530 326T495 527L224 61Q264 38 319 38Q424 39 477 119Z" />
<glyph unicode="&#xd9;" glyph-name="Ugrave" horiz-adv-x="646" d="M393 722L194 829Q203 846 221 861T257 878L422 751Q411 731 393 722ZM450 677H624Q624 677 624 669Q624 642 610 636Q603 632 593 631L549 629V254Q549 126 492 56T312 -15Q96 -15 96 241V627L23
633Q19 677 50 677H245Q245 677 245 669Q245 643 230 636Q223 632 213 631L168 629L167 245Q167 37 321 37Q404 37 449 87T495 242V627L422 633Q418 677 450 677Z" />
<glyph unicode="&#xda;" glyph-name="Uacute" horiz-adv-x="646" d="M474 836L276 730Q257 739 246 759L411 886Q429 884 447 869T474 836ZM450 677H624Q624 677 624 669Q624 642 610 636Q603 632 593 631L549 629V254Q549 126 492 56T312 -15Q96 -15 96 241V627L23
633Q19 677 50 677H245Q245 677 245 669Q245 643 230 636Q223 632 213 631L168 629L167 245Q167 37 321 37Q404 37 449 87T495 242V627L422 633Q418 677 450 677Z" />
<glyph unicode="&#xdb;" glyph-name="Ucircumflex" horiz-adv-x="646" d="M450 677H624Q624 677 624 669Q624 642 610 636Q603 632 593 631L549 629V254Q549 126 492 56T312 -15Q96 -15 96 241V627L23 633Q19 677 50 677H245Q245 677 245 669Q245 643 230 636Q223
632 213 631L168 629L167 245Q167 37 321 37Q404 37 449 87T495 242V627L422 633Q418 677 450 677ZM326 808L191 720Q174 729 163 748L295 869Q329 877 357 869L488 748Q475 727 460 720L326 808Z" />
<glyph unicode="&#xdc;" glyph-name="Udieresis" horiz-adv-x="646" d="M459 781T444 766T408 751T371 766T355 802T370 839T407 855T444 840T459 803ZM265 751T243 751T206 766T190 802T206 839T243 855T279 840T294 803T280 766ZM450 677H624V669Q624 642 610
636Q603 632 593 631L549 629V254Q549 126 492 56T312 -15Q96 -15 96 241V627L23 633Q19 677 50 677H245V669Q245 643 230 636Q223 632 213 631L168 629L167 245Q167 37 321 37Q404 37 449 87T495 242V627L422 633Q418 677 450 677Z" />
<glyph unicode="&#xdd;" glyph-name="Yacute" horiz-adv-x="592" d="M431 679H587Q587 679 587 671Q587 636 556 633L535 630L336 276V50L409 44Q413 0 382 0H185V8Q185 34 200 42Q207 45 217 46L262 48V274L62 628H61L5 634Q0 679 33 679H220V671Q220 644 206
638Q199 634 189 633L144 630L312 329L474 628L403 634Q398 679 431 679ZM454 836L256 730Q238 739 227 759L391 886Q410 884 428 869T454 836Z" />
<glyph unicode="&#xde;" glyph-name="Thorn" horiz-adv-x="600" d="M191 549H278Q405 549 468 497T532 359Q532 247 458 197T255 146Q212 146 191 147V50L264 44Q268 0 237 0H42Q42 0 42 8Q42 34 56 42Q63 45 73 46L119 48V628L46 634Q42 679 73 679H268Q268 679
268 671Q268 644 254 638Q247 634 237 633L191 630V549ZM191 193L244 192Q350 192 401 230T452 349T401 467T241 504H191V193Z" />
<glyph unicode="&#xdf;" glyph-name="germandbls" horiz-adv-x="602" d="M120 453Q120 590 182 651T344 710Q413 709 459 681T505 591Q505 531 452 485Q430 466 408 449T370 413T354 372T372 332T409 302T472 271T548 221T579 137T532 34T407 -15Q351 -15 310
10T268 78Q268 102 281 114T316 126Q324 85 351 61T420 37T489 62T516 123Q516 142 511 151T502 166T492 177T481 186T467 195T452 204Q438 211 412 224T370 247T332 275Q290 308 290 359Q290 416 342 462Q364 481 386 500Q439 544 439 587Q439 661 344 661Q266
661 228 608T189 464V0H45V8Q45 33 60 39Q67 42 77 43L120 44V453Z" />
<glyph unicode="&#xe0;" glyph-name="agrave" horiz-adv-x="502" d="M484 31Q484 -16 422 -16T350 47Q286 -15 196 -15Q127 -15 87 20T46 117T91 220T240 262Q301 262 348 248V327Q348 384 320 418T236 453T158 424T131 355Q107 353 91 365T75 404Q75 447 119
475T233 504Q294 504 349 474Q380 458 399 421T418 331V39L484 31ZM348 188Q302 213 241 213T152 190T123 127T148 64T217 40Q287 40 348 94V188ZM164 690L329 563Q318 543 300 534L101 641Q110 658 128 673T164 690Z" />
<glyph unicode="&#xe1;" glyph-name="aacute" horiz-adv-x="502" d="M484 31Q484 -16 422 -16T350 47Q286 -15 196 -15Q127 -15 87 20T46 117T91 220T240 262Q301 262 348 248V327Q348 384 320 418T236 453T158 424T131 355Q107 353 91 365T75 404Q75 447 119
475T233 504Q294 504 349 474Q380 458 399 421T418 331V39L484 31ZM348 188Q302 213 241 213T152 190T123 127T148 64T217 40Q287 40 348 94V188ZM381 641L182 534Q164 543 153 563L318 690Q336 688 354 673T381 641Z" />
<glyph unicode="&#xe2;" glyph-name="acircumflex" horiz-adv-x="502" d="M484 31Q484 -16 422 -16T350 47Q286 -15 196 -15Q127 -15 87 20T46 117T91 220T240 262Q301 262 348 248V327Q348 384 320 418T236 453T158 424T131 355Q107 353 91 365T75 404Q75 447
119 475T233 504Q294 504 349 474Q380 458 399 421T418 331V39L484 31ZM348 188Q302 213 241 213T152 190T123 127T148 64T217 40Q287 40 348 94V188ZM233 620L99 532Q82 541 71 560L203 681Q236 689 264 681L395 560Q384 541 367 532L233 620Z" />
<glyph unicode="&#xe3;" glyph-name="atilde" horiz-adv-x="502" d="M484 31Q484 -16 422 -16T350 47Q286 -15 196 -15Q127 -15 87 20T46 117T91 220T240 262Q301 262 348 248V327Q348 384 320 418T236 453T158 424T131 355Q107 353 91 365T75 404Q75 447 119
475T233 504Q294 504 349 474Q380 458 399 421T418 331V39L484 31ZM348 188Q302 213 241 213T152 190T123 127T148 64T217 40Q287 40 348 94V188ZM371 664L402 654Q377 553 290 557Q256 559 216 586T154 615T118 604T95 571L65 584Q77 630 107 654T171 677T242
646T306 616Q357 615 371 664Z" />
<glyph unicode="&#xe4;" glyph-name="adieresis" horiz-adv-x="502" d="M484 31Q484 -16 422 -16T350 47Q286 -15 196 -15Q127 -15 87 20T46 117T91 220T240 262Q301 262 348 248V327Q348 384 320 418T236 453T158 424T131 355Q107 353 91 365T75 404Q75 447 119
475T233 504Q294 504 349 474Q380 458 399 421T418 331V39L484 31ZM348 188Q302 213 241 213T152 190T123 127T148 64T217 40Q287 40 348 94V188ZM172 563T150 563T113 578T98 614T113 651T149 667T186 652T201 615T187 578ZM366 593T351 578T315 563T278 578T263
614T278 651T314 667T351 652T366 615Z" />
<glyph unicode="&#xe5;" glyph-name="aring" horiz-adv-x="502" d="M484 31Q484 -16 422 -16T350 47Q286 -15 196 -15Q127 -15 87 20T46 117T91 220T240 262Q301 262 348 248V327Q348 384 320 418T236 453T158 424T131 355Q107 353 91 365T75 404Q75 447 119 475T233
504Q294 504 349 474Q380 458 399 421T418 331V39L484 31ZM348 188Q302 213 241 213T152 190T123 127T148 64T217 40Q287 40 348 94V188ZM325 592T300 568T234 543T169 566T144 629T169 692T236 717T302 694T326 632ZM281 651T269 663T236 675T203 663T190 631T202
598T235 585T268 597T281 630Z" />
<glyph unicode="&#xe6;" glyph-name="ae" horiz-adv-x="771" d="M667 374T641 414T565 454T480 415T432 308H666Q667 374 641 414ZM348 187Q303 213 242 213T152 191T123 127T148 63T219 40Q291 40 348 94V187ZM576 504Q661 504 700 447T740 311V263H426Q424 243
424 230Q424 147 460 95T573 42T717 96Q729 87 729 71Q729 43 675 14T553 -15Q438 -15 386 71Q356 36 308 11T193 -15T87 20T46 117T91 220T241 262Q297 262 348 248V327Q348 383 320 418T236 453T157 422T131 355Q108 352 92 364T75 403Q75 446 119 475T233 504Q267
504 305 492Q381 469 401 410Q432 456 478 480T576 504Z" />
<glyph unicode="&#xe7;" glyph-name="ccedilla" horiz-adv-x="452" d="M275 504Q339 504 376 478T414 409Q414 354 358 356Q357 393 333 421T259 450Q188 450 151 391T113 242Q113 163 144 106Q180 43 268 43Q340 43 405 96Q418 87 418 72Q418 43 365 16T249 -15L243
-42Q284 -42 304 -61T324 -114T298 -170T228 -192T158 -164Q155 -143 170 -133Q193 -151 220 -151Q266 -151 266 -114Q266 -97 251 -88T193 -79L210 -13Q129 -3 85 61T39 224Q37 346 100 425T275 504Z" />
<glyph unicode="&#xe8;" glyph-name="egrave" horiz-adv-x="461" d="M430 263H116Q115 253 115 232Q115 147 151 95T263 42T408 96Q420 86 420 71Q420 43 366 14T243 -15Q150 -15 95 46T39 232T105 430T261 504T391 447T430 311V263ZM357 308Q357 375 331 414T256
454T171 415T122 308H357ZM193 690L358 563Q347 543 329 534L130 641Q139 658 157 673T193 690Z" />
<glyph unicode="&#xe9;" glyph-name="eacute" horiz-adv-x="461" d="M430 263H116Q115 253 115 232Q115 147 151 95T263 42T408 96Q420 86 420 71Q420 43 366 14T243 -15Q150 -15 95 46T39 232T105 430T261 504T391 447T430 311V263ZM357 308Q357 375 331 414T256
454T171 415T122 308H357ZM409 641L210 534Q192 543 181 563L346 690Q364 688 382 673T409 641Z" />
<glyph unicode="&#xea;" glyph-name="ecircumflex" horiz-adv-x="461" d="M430 263H116Q115 253 115 232Q115 147 151 95T263 42T408 96Q420 86 420 71Q420 43 366 14T243 -15Q150 -15 95 46T39 232T105 430T261 504T391 447T430 311V263ZM357 308Q357 375 331
414T256 454T171 415T122 308H357ZM261 620L127 532Q112 540 99 560L231 681Q264 689 293 681L424 560Q410 540 395 532L261 620Z" />
<glyph unicode="&#xeb;" glyph-name="edieresis" horiz-adv-x="461" d="M430 263H116Q115 253 115 232Q115 147 151 95T263 42T408 96Q420 86 420 71Q420 43 366 14T243 -15Q150 -15 95 46T39 232T105 430T261 504T391 447T430 311V263ZM357 308Q357 375 331 414T256
454T171 415T122 308H357ZM200 563T178 563T141 578T126 614T141 651T177 667T214 652T229 615T215 578ZM394 593T379 578T343 563T306 578T291 614T306 651T342 667T379 652T394 615Z" />
<glyph unicode="&#xec;" glyph-name="igrave" horiz-adv-x="291" d="M238 0H48V8Q48 32 62 38Q69 42 79 43L121 45V441L69 445Q45 448 45 488L190 504V47L266 41Q270 0 238 0ZM74 690L239 563Q228 543 210 534L11 641Q20 658 38 673T74 690Z" />
<glyph unicode="&#xed;" glyph-name="iacute" horiz-adv-x="291" d="M238 0H48V8Q48 32 62 38Q69 42 79 43L121 45V441L69 445Q45 448 45 488L190 504V47L266 41Q270 0 238 0ZM291 641L92 534Q74 543 63 563L228 690Q246 688 264 673T291 641Z" />
<glyph unicode="&#xee;" glyph-name="icircumflex" horiz-adv-x="291" d="M174 681L305 560Q294 541 277 532L143 620L8 532Q-7 540 -20 560L112 681Q146 689 174 681ZM238 0H48V8Q48 32 62 38Q69 42 79 43L121 45V441L69 445Q45 448 45 488L190 504V47L266 41Q270
0 238 0Z" />
<glyph unicode="&#xef;" glyph-name="idieresis" horiz-adv-x="291" d="M238 0H48V8Q48 32 62 38Q69 42 79 43L121 45V441L69 445Q45 448 45 488L190 504V47L266 41Q270 0 238 0ZM81 667T96 652T111 615T97 578T60 563T23 578T8 614T23 651T59 667ZM276 593T261
578T225 563T188 578T173 614T188 651T224 667T261 652T276 615Z" />
<glyph unicode="&#xf0;" glyph-name="eth" horiz-adv-x="514" d="M475 287Q475 149 411 67T236 -15Q142 -15 92 45T39 207Q36 330 99 405T274 480Q326 480 364 460Q331 529 272 576L180 517L154 560L228 607Q166 643 113 650L140 697Q215 683 283 643L367 696L394
654L328 612Q475 494 475 287ZM113 139T145 92T247 44T359 108T401 282Q401 331 391 381Q344 426 265 426T150 368T113 225Z" />
<glyph unicode="&#xf1;" glyph-name="ntilde" horiz-adv-x="613" d="M180 571L150 584Q162 630 192 654T255 677T326 646T390 616Q441 615 455 664L486 654Q461 553 374 557Q340 559 300 586T239 615T202 604T180 571ZM561 0H375V8Q375 32 389 38Q396 42 406 43L450
45V304Q450 444 339 444Q298 444 265 428T190 377V47L261 41Q265 0 234 0H46V8Q46 40 78 43L121 45V439L69 445Q45 447 45 486L174 503L187 427H190Q271 504 357 504Q424 504 471 457T519 312V47L589 41Q593 0 561 0Z" />
<glyph unicode="&#xf2;" glyph-name="ograve" horiz-adv-x="508" d="M324 534L125 641Q134 658 152 673T188 690L353 563Q342 543 324 534ZM261 504Q337 504 398 456Q430 430 449 380T469 260Q471 136 411 61T249 -15T94 49T40 234T98 429T261 504ZM187 452T150
393T113 243T149 94T253 36T358 94T395 241T360 392T256 453Z" />
<glyph unicode="&#xf3;" glyph-name="oacute" horiz-adv-x="508" d="M187 452T150 393T113 243T149 94T253 36T358 94T395 241T360 392T256 453ZM261 504Q337 504 398 456Q430 430 449 380T469 260Q471 136 411 61T249 -15T94 49T40 234T98 429T261 504ZM405 641L206
534Q188 543 177 563L342 690Q360 688 378 673T405 641Z" />
<glyph unicode="&#xf4;" glyph-name="ocircumflex" horiz-adv-x="508" d="M471 136T411 61T249 -15T94 49T40 234T98 429T261 504Q337 504 398 456Q430 430 449 380T469 260Q471 136 411 61ZM321 37T358 94T395 241T360 392T256 453T150 393T113 243T149 94T253
36ZM257 620L122 532Q107 540 94 560L226 681Q260 689 288 681L419 560Q408 541 391 532L257 620Z" />
<glyph unicode="&#xf5;" glyph-name="otilde" horiz-adv-x="508" d="M119 571L89 584Q101 630 131 654T194 677T265 646T330 616Q381 615 395 664L426 654Q401 553 314 557Q280 559 240 586T178 615T142 604T119 571ZM187 452T150 393T113 243T149 94T253 36T358
94T395 241T360 392T256 453ZM261 504Q337 504 398 456Q430 430 449 380T469 260Q471 136 411 61T249 -15T94 49T40 234T98 429T261 504Z" />
<glyph unicode="&#xf6;" glyph-name="odieresis" horiz-adv-x="508" d="M187 452T150 393T113 243T149 94T253 36T358 94T395 241T360 392T256 453ZM261 504Q337 504 398 456Q430 430 449 380T469 260Q471 136 411 61T249 -15T94 49T40 234T98 429T261 504ZM390
593T375 578T339 563T302 578T287 614T302 651T338 667T375 652T390 615ZM196 563T174 563T137 578T122 614T137 651T173 667T210 652T225 615T211 578Z" />
<glyph unicode="&#xf7;" glyph-name="divide" horiz-adv-x="478" d="M289 412T274 397T237 382T199 397T183 435T198 473T236 489T274 474T289 435ZM259 83T236 83T198 98T183 137T198 175T236 191T274 176T289 137T274 99ZM50 314H428V258H50V314Z" />
<glyph unicode="&#xf8;" glyph-name="oslash" horiz-adv-x="515" d="M245 -15Q194 -15 151 4L139 -17L89 11L104 37Q40 102 39 228T98 429T261 504Q319 504 363 480L378 507L429 481L408 446Q469 382 470 259T411 61T245 -15ZM254 452Q187 452 150 393T113 246T143
104L331 426Q300 452 254 452ZM254 37Q321 37 358 94T395 237T368 377L183 58Q212 37 254 37Z" />
<glyph unicode="&#xf9;" glyph-name="ugrave" horiz-adv-x="572" d="M352 534L153 641Q162 658 180 673T216 690L381 563Q370 543 352 534ZM16 460Q16 489 44 489H161V194Q161 120 192 83T284 45T409 100V442L332 447Q328 489 359 489H478V57L527 52Q550 50 550
9L429 -1L416 52Q349 -15 263 -15Q194 -15 143 34T92 188V442L16 447V460Z" />
<glyph unicode="&#xfa;" glyph-name="uacute" horiz-adv-x="572" d="M16 460Q16 489 44 489H161V194Q161 120 192 83T284 45T409 100V442L332 447Q328 489 359 489H478V57L527 52Q550 50 550 9L429 -1L416 52Q349 -15 263 -15Q194 -15 143 34T92 188V442L16 447V460ZM433
641L234 534Q216 543 205 563L370 690Q388 688 406 673T433 641Z" />
<glyph unicode="&#xfb;" glyph-name="ucircumflex" horiz-adv-x="572" d="M16 460Q16 489 44 489H161V194Q161 120 192 83T284 45T409 100V442L332 447Q328 489 359 489H478V57L527 52Q550 50 550 9L429 -1L416 52Q349 -15 263 -15Q194 -15 143 34T92 188V442L16
447V460ZM285 619L150 532Q135 540 122 560L254 681Q287 689 316 681L447 560Q432 539 419 532L285 619Z" />
<glyph unicode="&#xfc;" glyph-name="udieresis" horiz-adv-x="572" d="M16 460Q16 489 44 489H161V194Q161 120 192 83T284 45T409 100V442L332 447Q328 489 359 489H478V57L527 52Q550 50 550 9L429 -1L416 52Q349 -15 263 -15Q194 -15 143 34T92 188V442L16
447V460ZM418 593T403 578T367 563T330 578T315 614T330 651T366 667T403 652T418 615ZM224 563T202 563T165 578T150 614T165 651T201 667T238 652T253 615T239 578Z" />
<glyph unicode="&#xfd;" glyph-name="yacute" horiz-adv-x="495" d="M360 489H492Q491 486 492 482T492 472T488 461Q482 449 450 446L279 25H280Q253 -47 226 -99T182 -170Q143 -219 105 -219T49 -204T31 -167T42 -132T68 -118T88 -120Q79 -160 111 -160Q137
-160 170 -101T229 24L55 442H54L5 448Q1 489 33 489H201V482Q201 458 187 452Q179 448 132 444L262 109L390 442L332 448Q328 489 360 489ZM403 641L204 534Q186 543 175 563L340 690Q358 688 376 673T403 641Z" />
<glyph unicode="&#xfe;" glyph-name="thorn" horiz-adv-x="548" d="M234 504T315 504T451 443T509 259T449 61T272 -15Q215 -15 156 11V-167L232 -173Q236 -214 204 -214H14V-206Q14 -182 28 -176Q36 -173 87 -169V636L34 642Q11 644 11 681L156 698V432Q234 504
315 504ZM156 88Q208 39 286 39T399 98T435 245T400 389T290 445Q253 445 224 430T156 383V88Z" />
<glyph unicode="&#xff;" glyph-name="ydieresis" horiz-adv-x="495" d="M360 489H492Q491 486 492 482T492 472T488 461Q482 449 450 446L279 25H280Q253 -47 226 -99T182 -170Q143 -219 105 -219T49 -204T31 -167T42 -132T68 -118T88 -120Q79 -160 111 -160Q137
-160 170 -101T229 24L55 442H54L5 448Q1 489 33 489H201V482Q201 458 187 452Q179 448 132 444L262 109L390 442L332 448Q328 489 360 489ZM193 563T171 563T134 578T119 614T134 651T170 667T207 652T222 615T208 578ZM387 593T372 578T336 563T299 578T284 614T299
651T335 667T372 652T387 615Z" />
<glyph unicode="&#x2013;" glyph-name="endash" horiz-adv-x="493" d="M48 279H445V223H48V279Z" />
<glyph unicode="&#x2014;" glyph-name="emdash" horiz-adv-x="806" d="M48 279H758V223H48V279Z" />
<glyph unicode="&#x2018;" glyph-name="quoteleft" horiz-adv-x="186" d="M120 603T132 588T144 552T131 516T94 502T56 516T42 561T67 630T122 682Q126 684 134 677T142 665Q113 645 101 605Q120 603 132 588Z" />
<glyph unicode="&#x2019;" glyph-name="quoteright" horiz-adv-x="186" d="M70 682T93 682T130 668T144 623T119 553T64 502Q60 500 53 506T45 518Q74 537 86 579Q66 581 54 595T42 632T56 668Z" />
<glyph unicode="&#x201a;" glyph-name="quotesinglbase" horiz-adv-x="190" d="M42 61T56 75T94 90T133 75T148 26T122 -49T65 -104Q60 -106 53 -99T45 -87Q76 -65 87 -16Q67 -14 55 1T42 39Z" />
<glyph unicode="&#x201c;" glyph-name="quotedblleft" horiz-adv-x="303" d="M237 603T249 588T261 552T247 516T210 502T172 516T158 561T184 630T238 682Q242 684 250 677T258 665Q229 645 217 605Q237 603 249 588ZM120 603T132 588T144 552T131 516T94 502T56
516T42 561T67 630T122 682Q126 684 134 677T142 665Q113 645 101 605Q120 603 132 588Z" />
<glyph unicode="&#x201d;" glyph-name="quotedblright" horiz-adv-x="303" d="M186 682T209 682T246 668T261 623T235 553T180 502Q176 500 169 506T161 518Q190 537 202 579Q182 581 170 595T158 632T172 668ZM70 682T93 682T130 668T144 623T119 553T64 502Q60
500 53 506T45 518Q74 537 86 579Q66 581 54 595T42 632T56 668Z" />
<glyph unicode="&#x201e;" glyph-name="quotedblbase" horiz-adv-x="303" d="M186 87T209 87T246 73T261 28T235 -42T180 -93Q176 -96 169 -89T161 -77Q190 -58 202 -16Q182 -14 170 0T158 37T172 73ZM70 87T93 87T130 73T144 28T119 -42T64 -93Q60 -96 53 -89T45
-77Q74 -58 86 -16Q66 -14 54 0T42 37T56 73Z" />
<glyph unicode="&#x2022;" glyph-name="bullet" horiz-adv-x="445" d="M258 234T222 234T161 259T136 320T161 381T222 407T283 382T309 320T284 259Z" />
<glyph unicode="&#x2039;" glyph-name="guilsinglleft" horiz-adv-x="365" d="M333 437L141 246V240L335 49L303 19L59 221Q54 242 59 265L303 467L333 437Z" />
<glyph unicode="&#x203a;" glyph-name="guilsinglright" horiz-adv-x="365" d="M224 246L32 437L62 467L306 265Q311 242 306 221L62 19L30 49L224 240V246Z" />
</font>
</defs>
</svg>
