<?xml version="1.0" standalone="no"?>
<!DOCTYPE svg PUBLIC "-//W3C//DTD SVG 1.1//EN" "http://www.w3.org/Graphics/SVG/1.1/DTD/svg11.dtd">
<svg xmlns="http://www.w3.org/2000/svg">
<defs >
<font id="Mukta" horiz-adv-x="677" ><font-face
    font-family="Mukta SemiBold"
    units-per-em="1000"
    panose-1="2 11 0 0 0 0 0 0 0 0"
    ascent="1130"
    descent="-532"
    alphabetic="0" />
<glyph unicode=" " glyph-name="space" horiz-adv-x="228" />
<glyph unicode="!" glyph-name="exclam" horiz-adv-x="257" d="M67 710H191L175 219H81L67 710ZM58 62Q58 93 79 113T129 134Q158 134 178 114T199 62Q199 30 179 10T129 -10Q100 -10 79 10T58 62Z" />
<glyph unicode="&quot;" glyph-name="quotedbl" horiz-adv-x="351" d="M202 646H305L289 419H217L202 646ZM46 646H149L134 419H62L46 646Z" />
<glyph unicode="#" glyph-name="numbersign" horiz-adv-x="618" d="M259 459L232 292H367L394 459H259ZM440 740H517L484 537H586V459H472L444 292H552V214H434L399 0H321L355 214H220L185 0H108L141 214H35V292H155L182 459H70V537H195L227 740H304L271 536H408L440
740Z" />
<glyph unicode="$" glyph-name="dollar" horiz-adv-x="545" d="M237 725H317V618Q347 615 379 606T443 579L411 492Q379 509 345 518T276 528Q236 528 210 511T184 458Q184 426 206 410T277 377L323 362Q399 337 438 294T478 185Q478 115 431 69T302 11V-99H222V10Q177
14 140 25T65 60L106 145Q144 121 182 111T253 101Q304 101 330 121T357 176Q357 208 335 226T261 262L213 278Q181 288 154 303T106 338T75 384T63 446Q63 483 75 514T111 567T166 603T237 618V725Z" />
<glyph unicode="%" glyph-name="percent" horiz-adv-x="809" d="M153 0L590 750H665L228 0H153ZM780 179Q780 141 769 107T737 46T684 5T610 -10Q569 -10 538 5T486 46T454 106T443 179Q443 217 454 251T488 311T541 352T613 368Q653 368 684 353T736 311T769
251T780 179ZM688 179Q688 202 684 224T672 263T649 290T613 301Q592 301 578 291T554 265T540 226T535 179Q535 155 539 133T552 94T575 67T610 57Q650 57 669 91T688 179ZM365 561Q365 523 354 489T322 428T269 387T195 372Q154 372 123 387T71 428T39 488T28
561Q28 599 39 633T73 693T126 734T198 750Q238 750 269 735T321 693T354 633T365 561ZM273 561Q273 583 270 604T257 641T234 668T198 678Q178 678 163 669T139 643T125 606T120 561Q120 537 124 515T137 476T160 449T195 439Q236 439 254 473T273 561Z" />
<glyph unicode="&amp;" glyph-name="ampersand" horiz-adv-x="675" d="M142 190Q142 134 179 106T277 78Q321 78 355 94T408 134L232 314Q196 297 169 267T142 190ZM28 187Q28 314 177 379Q153 404 135 440T116 517Q116 552 129 580T166 629T223 659T296 670Q333
670 365 659T420 628T456 581T470 521Q470 470 442 435T372 380L316 439Q337 451 351 472T365 519Q365 549 345 569T294 589Q259 589 242 570T225 520Q225 483 245 451T308 377L469 212Q483 235 497 267T522 330L611 294Q596 251 575 210T537 143L677 0H539L471
69Q443 39 391 15T263 -10Q209 -10 166 4T92 44T45 106T28 187Z" />
<glyph unicode="&apos;" glyph-name="quotesingle" horiz-adv-x="195" d="M46 646H149L133 419H61L46 646Z" />
<glyph unicode="(" glyph-name="parenleft" horiz-adv-x="306" d="M206 -153Q175 -113 146 -67T95 33T59 147T45 279Q45 349 58 411T95 528T147 628T208 710L271 671Q220 590 186 492T152 279Q152 222 160 171T183 72T221 -21T271 -114L206 -153Z" />
<glyph unicode=")" glyph-name="parenright" horiz-adv-x="306" d="M99 710Q130 671 159 626T211 526T247 410T261 278Q261 208 247 146T211 30T159 -69T99 -153L35 -112Q62 -68 83 -23T121 69T145 169T154 278Q154 394 122 489T35 673L99 710Z" />
<glyph unicode="*" glyph-name="asterisk" horiz-adv-x="362" d="M56 410L99 466L157 515L81 520L14 541L37 610L102 590L171 550L149 624V691H224V624L202 550L270 590L335 610L358 541L292 520L215 515L273 466L315 410L255 366L215 422L186 494L157 422L115
366L56 410Z" />
<glyph unicode="+" glyph-name="plus" horiz-adv-x="557" d="M522 343V264H318V60H239V264H35V343H239V547H318V343H522Z" />
<glyph unicode="," glyph-name="comma" horiz-adv-x="230" d="M105 -10Q75 -5 59 16T42 67Q42 96 61 118T117 140Q131 140 145 135T172 117T192 83T200 29Q200 -3 190 -32T162 -87T122 -132T74 -165L39 -117Q68 -101 91 -75T121 -13L105 -10Z" />
<glyph unicode="-" glyph-name="hyphen" horiz-adv-x="280" d="M250 338V244H30V338H250Z" />
<glyph unicode="." glyph-name="period" horiz-adv-x="226" d="M49 65Q49 97 71 118T123 140Q153 140 174 119T195 65Q195 30 174 10T123 -10Q93 -10 71 10T49 65Z" />
<glyph unicode="/" glyph-name="slash" horiz-adv-x="370" d="M-1 -109L283 750H373L89 -109H-1Z" />
<glyph unicode="0" glyph-name="zero" horiz-adv-x="585" d="M293 640Q348 640 394 622T475 564T528 464T548 316Q548 230 527 169T471 68T390 9T293 -10Q238 -10 192 8T111 66T58 168T38 316Q38 398 59 459T115 560T196 620T293 640ZM160 316Q160 245 171 199T200
127T243 90T294 79Q320 79 344 90T386 128T415 201T426 316Q426 386 415 432T386 504T343 540T293 551Q267 551 243 540T201 503T171 431T160 316Z" />
<glyph unicode="1" glyph-name="one" horiz-adv-x="394" d="M215 630H309V0H193V518L77 463L50 554L215 630Z" />
<glyph unicode="2" glyph-name="two" horiz-adv-x="488" d="M222 548Q190 548 162 537T100 499L51 575Q92 609 135 624T233 640Q282 640 320 626T383 587T422 528T435 454Q435 386 385 313T243 151L181 93H445V0H61L40 80L127 167Q179 219 215 259T273 331T305
391T315 446Q315 494 290 521T222 548Z" />
<glyph unicode="3" glyph-name="three" horiz-adv-x="496" d="M50 594Q87 618 128 629T218 640Q263 640 299 628T362 593T402 541T416 476Q416 417 386 380T311 325Q368 313 403 273T438 175Q438 126 420 91T369 34T295 1T206 -10Q158 -10 114 -1T37 25L62 111Q94
97 123 89T193 81Q218 81 240 86T280 104T306 134T316 177Q316 224 283 248T191 273H118V361H172Q229 361 262 386T296 462Q296 502 269 526T200 550Q171 550 145 542T87 515L50 594Z" />
<glyph unicode="4" glyph-name="four" horiz-adv-x="551" d="M298 630H427V243H521V150H427V0H315V150H20V225L298 630ZM263 416L144 243H315V407L320 518H318L263 416Z" />
<glyph unicode="5" glyph-name="five" horiz-adv-x="525" d="M438 632V539L213 537L197 397Q211 399 222 400T247 401Q288 401 327 390T396 356T444 296T463 207Q463 162 448 123T400 54T320 7T208 -10Q164 -10 126 -1T58 22L83 111Q108 99 136 91T199 83Q268
83 304 114T341 201Q341 259 301 288T199 317Q172 317 145 313T92 304L123 630L438 632Z" />
<glyph unicode="6" glyph-name="six" horiz-adv-x="539" d="M323 640Q358 640 389 635T449 617L422 527Q401 538 378 543T326 549Q287 549 258 535T208 497T176 438T162 364Q188 392 224 405T301 419Q344 419 381 405T446 365T488 300T504 212Q504 162 488 122T442
52T371 6T279 -10Q235 -10 193 6T116 57T61 150T40 291Q40 385 64 451T128 560T218 621T323 640ZM161 227Q161 196 169 169T193 122T230 90T279 78Q303 78 323 88T357 116T378 158T386 209Q386 270 356 299T276 329Q240 329 215 313T175 277Q161 257 161 227Z"
/>
<glyph unicode="7" glyph-name="seven" horiz-adv-x="495" d="M454 630V553L186 -22L84 22L339 542H52V630H454Z" />
<glyph unicode="8" glyph-name="eight" horiz-adv-x="515" d="M261 640Q312 640 350 627T414 591T453 539T466 479Q466 431 436 394T351 333Q410 311 446 274T482 177Q482 133 466 99T419 40T348 3T256 -10Q207 -10 166 2T96 38T50 93T33 166Q33 228 66 264T158
324Q111 345 83 382T54 467Q54 500 67 531T106 586T170 625T261 640ZM167 475Q167 434 195 410T264 373Q300 387 326 412T352 472Q352 511 326 532T259 554Q214 554 191 530T167 475ZM251 279Q207 265 180 239T152 170Q152 131 179 105T259 78Q307 78 335 105T364
170Q364 213 332 240T251 279Z" />
<glyph unicode="9" glyph-name="nine" horiz-adv-x="532" d="M219 -10Q170 -10 135 -3T74 18L100 106Q121 96 147 89T210 81Q288 81 326 129T370 266Q348 243 315 230T242 216Q197 216 160 229T95 269T53 334T38 421Q38 470 54 510T100 580T172 624T266 640Q310
640 350 624T422 571T473 479T492 342Q492 249 471 182T413 73T327 10T219 -10ZM370 402Q370 433 363 460T341 507T307 540T262 552Q213 552 185 520T156 428Q156 365 186 336T266 306Q298 306 321 319T358 353Q365 363 367 374T370 402Z" />
<glyph unicode=":" glyph-name="colon" horiz-adv-x="238" d="M46 66Q46 98 68 119T119 140Q149 140 170 119T192 66Q192 31 171 11T119 -10Q90 -10 68 10T46 66ZM46 369Q46 401 68 422T119 443Q149 443 170 422T192 369Q192 334 171 314T119 293Q90 293 68 313T46 369Z" />
<glyph unicode=";" glyph-name="semicolon" horiz-adv-x="235" d="M46 369Q46 401 68 422T120 443Q150 443 171 422T192 369Q192 334 171 314T120 293Q90 293 68 313T46 369ZM105 -10Q75 -5 59 16T42 67Q42 96 61 118T117 140Q131 140 145 135T172 117T192 83T200
29Q200 -3 190 -32T162 -87T122 -132T74 -165L39 -117Q68 -101 91 -75T121 -13L105 -10Z" />
<glyph unicode="&lt;" glyph-name="less" horiz-adv-x="486" d="M61 220V288L425 493V401L151 254L425 107V15L61 220Z" />
<glyph unicode="=" glyph-name="equal" horiz-adv-x="453" d="M35 238V160H418V238H35ZM418 427V349H35V427H418Z" />
<glyph unicode="&gt;" glyph-name="greater" horiz-adv-x="486" d="M61 15V107L335 254L61 401V493L425 288V220L61 15Z" />
<glyph unicode="?" glyph-name="question" horiz-adv-x="439" d="M204 715Q250 715 286 702T348 667T386 613T399 546Q399 493 371 451T302 369Q281 348 266 333T240 305T225 280T220 252Q220 232 227 212L129 197Q124 210 121 226T118 258Q118 301 139 332T198
404Q217 423 232 439T257 471T273 503T279 540Q279 572 258 595T191 619Q167 619 144 612T97 588L53 670Q82 691 122 703T204 715ZM116 62Q116 93 137 113T187 134Q216 134 236 114T257 62Q257 30 237 10T187 -10Q158 -10 137 10T116 62Z" />
<glyph unicode="@" glyph-name="at" horiz-adv-x="965" d="M557 57H555Q523 25 487 8T397 -10Q334 -10 298 24T262 113Q262 159 281 192T333 246T408 277T498 287H568L573 317Q574 322 574 327T575 337Q575 368 555 382T500 397Q473 397 438 387T362 356L334 433Q382
458 427 471T524 484Q561 484 591 477T643 453T677 410T689 347Q689 329 686 308L660 148Q658 137 657 129T655 112Q655 92 664 84T690 75Q709 75 732 89T777 133T812 210T827 326Q827 387 808 440T752 532T662 593T540 615Q456 615 383 587T255 504T170 366T139
176Q139 87 168 27T244 -70T349 -124T466 -140Q530 -140 575 -130T660 -102L681 -173Q639 -191 579 -205T450 -219Q375 -219 303 -198T173 -131T81 -11T46 168Q46 292 85 389T192 553T348 656T536 692Q629 692 701 665T822 589T896 475T922 332Q922 245 899 182T837
79T751 19T655 -1Q632 -1 612 2T580 10L557 57ZM558 217L504 215Q436 213 408 187T380 123Q380 95 399 83T444 70Q473 70 498 82T543 118L558 217Z" />
<glyph unicode="A" glyph-name="A" horiz-adv-x="618" d="M219 246H394L361 339Q347 381 335 418T309 499H307Q293 458 280 420T252 339L219 246ZM249 630H371L610 0H481L425 155H190L134 0H7L249 630Z" />
<glyph unicode="B" glyph-name="B" horiz-adv-x="559" d="M286 630Q383 630 439 588T496 467Q496 438 487 416T461 377T424 349T381 332Q408 327 432 315T475 284T504 238T515 177Q515 138 498 106T450 50T376 13T280 0H73V630H286ZM195 374H263Q309 374 340 393T371
458Q371 497 344 516T267 536H195V374ZM195 94H264Q290 94 313 99T353 115T379 144T389 189Q389 214 378 231T349 260T307 276T257 281H195V94Z" />
<glyph unicode="C" glyph-name="C" horiz-adv-x="566" d="M372 86Q419 86 451 94T509 116L535 24Q507 10 464 0T359 -10Q291 -10 233 12T132 75T65 177T41 315Q41 390 64 450T129 553T231 617T362 640Q426 640 467 629T537 603L509 511Q479 526 448 535T376 544Q334
544 297 532T232 492T188 421T171 315Q171 255 187 212T230 140T293 99T372 86Z" />
<glyph unicode="D" glyph-name="D" horiz-adv-x="650" d="M288 630Q359 630 418 611T519 554T585 460T609 328Q609 241 581 179T505 77T394 19T258 0H73V630H288ZM195 96H249Q293 96 334 106T408 143T459 214T479 328Q479 428 423 481T270 534H195V96Z" />
<glyph unicode="E" glyph-name="E" horiz-adv-x="512" d="M73 630H473V534H195V375H447V280H195V96H476V0H73V630Z" />
<glyph unicode="F" glyph-name="F" horiz-adv-x="493" d="M463 630V534H195V355H441V260H195V0H73V630H463Z" />
<glyph unicode="G" glyph-name="G" horiz-adv-x="627" d="M366 640Q423 640 468 631T551 604L525 518Q490 535 453 542T378 550Q336 550 299 537T233 496T188 423T171 314Q171 201 221 141T366 81Q425 81 458 94V250H349V342H574V28Q534 11 483 1T366 -10Q298
-10 239 11T135 73T66 174T41 314Q41 393 66 454T134 556T237 619T366 640Z" />
<glyph unicode="H" glyph-name="H" horiz-adv-x="648" d="M73 0V630H195V375H454V630H576V0H454V277H195V0H73Z" />
<glyph unicode="I" glyph-name="I" horiz-adv-x="267" d="M195 630V0H73V630H195Z" />
<glyph unicode="J" glyph-name="J" horiz-adv-x="283" d="M214 630V115Q214 39 205 -8T166 -93Q134 -133 85 -149T-18 -165V-70Q10 -70 29 -62T63 -39Q81 -22 86 5T92 64V630H214Z" />
<glyph unicode="K" glyph-name="K" horiz-adv-x="600" d="M73 0V630H195V358L427 630H579L335 354L599 0H448L247 275L195 219V0H73Z" />
<glyph unicode="L" glyph-name="L" horiz-adv-x="464" d="M73 630H195V98H454V0H73V630Z" />
<glyph unicode="M" glyph-name="M" horiz-adv-x="826" d="M112 630H267L367 316Q380 275 391 235T412 155H416Q420 172 425 192T437 234T448 277T460 316L557 630H712L762 0H645Q637 103 631 205T622 411L619 510H616Q601 451 584 389T550 276L462 0H363L273 276Q250
346 235 404T208 510H206Q204 432 200 347T190 190L179 0H64L112 630Z" />
<glyph unicode="N" glyph-name="N" horiz-adv-x="671" d="M73 630H183L423 276Q443 246 460 217T487 168H489Q483 237 483 306T483 445V630H598V0H488L259 335Q236 369 216 406T184 466H182Q187 392 187 323T188 181V0H73V630Z" />
<glyph unicode="O" glyph-name="O" horiz-adv-x="698" d="M351 640Q417 640 473 619T569 556T633 454T656 314Q656 237 633 177T568 76T470 12T347 -10Q281 -10 225 11T129 73T65 174T42 314Q42 391 65 451T130 554T228 618T351 640ZM172 314Q172 255 186 212T224
141T281 98T351 84Q388 84 420 98T475 140T512 212T526 314Q526 374 512 418T474 490T417 532T347 546Q310 546 278 532T223 489T186 416T172 314Z" />
<glyph unicode="P" glyph-name="P" horiz-adv-x="548" d="M73 630H286Q339 630 382 617T456 580T503 520T520 438Q520 385 501 347T449 284T371 246T274 234H195V0H73V630ZM195 329H251Q281 329 307 334T352 351T383 383T394 433Q394 460 384 479T357 511T316
530T268 536H195V329Z" />
<glyph unicode="Q" glyph-name="Q" horiz-adv-x="696" d="M350 640Q416 640 472 619T569 556T633 454T656 314Q656 206 609 129T472 1L348 -68Q373 -69 395 -76T441 -90T490 -104T547 -111Q570 -111 594 -104T634 -84L678 -168Q658 -183 625 -195T549 -207Q509
-207 473 -198T403 -177T337 -156T271 -146Q242 -146 218 -153T168 -176L124 -95L284 -3Q229 6 185 31T109 96T60 191T42 314Q42 391 65 451T130 554T227 618T350 640ZM172 315Q172 256 185 212T221 139T276 95T345 80Q382 80 415 95T473 140T512 214T526 315Q526
375 512 419T474 491T417 532T347 546Q310 546 278 532T223 489T186 417T172 315Z" />
<glyph unicode="R" glyph-name="R" horiz-adv-x="560" d="M73 630H300Q352 630 391 615T456 574T496 513T510 437Q510 399 499 370T469 319T429 283T386 259L545 0H406L275 237H192V0H73V630ZM192 332H253Q310 332 347 355T384 434Q384 484 355 510T268 536H192V332Z" />
<glyph unicode="S" glyph-name="S" horiz-adv-x="526" d="M268 640Q324 640 369 630T453 600L425 506Q384 526 347 536T274 546Q223 546 195 525T166 468Q166 433 189 415T265 379L326 359Q404 333 445 287T486 178Q486 137 470 103T424 44T351 4T252 -10Q198
-10 147 0T49 34L77 127Q120 106 161 95T247 84Q301 84 331 105T362 166Q362 180 357 193T340 217T306 239T250 261L194 280Q125 304 84 343T42 455Q42 538 100 589T268 640Z" />
<glyph unicode="T" glyph-name="T" horiz-adv-x="506" d="M497 630V532H312V0H190V532H10V630H497Z" />
<glyph unicode="U" glyph-name="U" horiz-adv-x="654" d="M69 630H191V253Q191 166 223 126T328 85Q399 85 431 128T463 241V630H585V249Q585 118 519 54T328 -10Q267 -10 219 5T138 53T87 136T69 254V630Z" />
<glyph unicode="V" glyph-name="V" horiz-adv-x="599" d="M132 630L245 296Q251 280 258 258T272 213T287 167T299 125H302Q307 143 313 165T327 210T341 254T354 294L471 630H597L365 0H236L3 630H132Z" />
<glyph unicode="W" glyph-name="W" horiz-adv-x="861" d="M131 630L212 312Q215 299 220 276T230 228T239 177T246 133H248Q251 152 255 177T265 227T276 275T284 312L370 630H493L579 313Q582 300 587 277T598 228T608 177T616 133H618Q621 151 626 176T636 226T646
275T654 313L732 630H855L686 0H556L469 331Q458 372 449 410T430 493H428Q419 448 411 411T392 332L308 0H179L6 630H131Z" />
<glyph unicode="X" glyph-name="X" horiz-adv-x="599" d="M161 630L300 401L440 630H579L374 320L589 0H445L295 238L148 0H10L217 320L19 630H161Z" />
<glyph unicode="Y" glyph-name="Y" horiz-adv-x="566" d="M145 630L287 373L430 630H562L344 261V0H222V261L9 630H145Z" />
<glyph unicode="Z" glyph-name="Z" horiz-adv-x="528" d="M493 630V560L174 94H500V0H25V80L338 536H38V630H493Z" />
<glyph unicode="[" glyph-name="bracketleft" horiz-adv-x="298" d="M70 -159V724H270V648H171V-82H270V-159H70Z" />
<glyph unicode="\" glyph-name="backslash" horiz-adv-x="318" d="M231 -88L0 720H87L318 -88H231Z" />
<glyph unicode="]" glyph-name="bracketright" horiz-adv-x="298" d="M27 -159V-82H126V648H27V724H227V-159H27Z" />
<glyph unicode="^" glyph-name="asciicircum" horiz-adv-x="510" d="M458 411H372L255 649L140 411H53L220 720H289L458 411Z" />
<glyph unicode="_" glyph-name="underscore" horiz-adv-x="371" d="M363 -180V-250H7V-180H363Z" />
<glyph unicode="`" glyph-name="grave" horiz-adv-x="213" d="M18 720H121L196 555H124L18 720Z" />
<glyph unicode="a" glyph-name="a" horiz-adv-x="500" d="M70 433Q114 457 159 470T258 484Q300 484 334 475T393 444T431 390T445 308V0H352L340 50H337Q286 -10 192 -10Q117 -10 75 29T33 132Q33 172 50 201T96 249T167 277T256 287H326V320Q326 359 303 375T241
392Q213 392 182 383T112 352L70 433ZM327 212L273 210Q207 208 181 188T155 138Q155 101 177 88T228 75Q257 75 283 89T327 130V212Z" />
<glyph unicode="b" glyph-name="b" horiz-adv-x="558" d="M523 236Q523 179 506 134T459 56T389 7T302 -10Q255 -10 222 3T161 44H158L149 0H64V712H181V429Q209 455 244 469T318 484Q413 484 468 419T523 236ZM401 234Q401 309 370 350T284 392Q253 392 227 377T182
341V119Q198 100 220 89T270 78Q295 78 319 87T361 115T390 164T401 234Z" />
<glyph unicode="c" glyph-name="c" horiz-adv-x="455" d="M304 78Q336 78 360 85T402 102L425 19Q403 8 367 -1T288 -10Q235 -10 189 5T109 52T56 129T36 236Q36 292 54 338T106 416T186 466T289 484Q320 484 353 478T424 454L399 370Q376 383 352 390T302 397Q236
397 196 357T156 239Q156 194 169 163T203 113T250 86T304 78Z" />
<glyph unicode="d" glyph-name="d" horiz-adv-x="554" d="M372 712H490V0H402L389 52H385Q362 25 329 8T244 -10Q202 -10 164 6T98 53T53 131T36 237Q36 293 50 338T93 416T161 466T253 484Q288 484 319 474T372 444V712ZM372 353Q355 373 332 385T281 397Q256
397 234 389T194 361T166 312T155 240Q155 198 164 167T190 117T227 88T273 78Q306 78 331 93T372 134V353Z" />
<glyph unicode="e" glyph-name="e" horiz-adv-x="514" d="M479 211H156V207Q156 142 196 110T303 78Q342 78 372 85T431 104L454 21Q425 8 385 -1T292 -10Q239 -10 193 4T111 48T56 124T35 234Q35 290 52 336T100 415T175 466T272 484Q367 484 423 426T479 265V211ZM358
293Q358 314 353 333T337 368T309 391T267 400Q222 400 193 370T158 291L358 293Z" />
<glyph unicode="f" glyph-name="f" horiz-adv-x="357" d="M251 715Q285 715 318 706T377 683L354 605Q336 613 319 618T281 623Q242 623 224 600T205 523V475H333V389H205V0H88V389H17V475H88V552Q88 631 132 673T251 715Z" />
<glyph unicode="g" glyph-name="g" horiz-adv-x="558" d="M57 314Q57 353 72 384T114 438T177 472T258 484Q274 484 292 482T326 475H529V397H491L423 407Q437 389 446 365T456 314Q456 276 442 245T402 192T339 159T257 147Q229 147 209 151Q179 138 179 113Q179
79 232 79H344Q422 79 468 45T514 -61Q514 -100 496 -132T445 -187T364 -222T259 -235Q152 -235 90 -198T28 -88Q28 -53 50 -29T111 9Q95 20 83 37T70 83Q70 115 89 138T141 176Q108 193 83 226T57 314ZM178 -11Q159 -19 148 -34T137 -71Q137 -106 166 -125T263
-145Q299 -145 324 -139T366 -121T390 -96T398 -67Q398 -35 376 -23T313 -11H178ZM339 314Q339 359 316 380T257 402Q220 402 197 380T174 316Q174 272 197 251T257 230Q294 230 316 251T339 314Z" />
<glyph unicode="h" glyph-name="h" horiz-adv-x="560" d="M182 0H64V712H182V426Q212 451 250 467T334 484Q376 484 406 472T457 437T486 385T496 319V0H378V296Q378 347 358 369T297 392Q268 392 238 378T182 339V0Z" />
<glyph unicode="i" glyph-name="i" horiz-adv-x="266" d="M74 0V475H192V0H74ZM133 584Q102 584 85 602T67 647Q67 673 85 691T133 710Q162 710 180 692T198 647Q198 620 180 602T133 584Z" />
<glyph unicode="j" glyph-name="j" horiz-adv-x="263" d="M71 475H189V68Q189 12 181 -36T153 -124T98 -195T9 -250L-42 -168Q-12 -153 9 -137T44 -95T64 -33T71 60V475ZM130 584Q100 584 83 602T65 647Q65 673 82 691T130 710Q159 710 177 692T196 647Q196 620
178 602T130 584Z" />
<glyph unicode="k" glyph-name="k" horiz-adv-x="507" d="M181 164V0H64V712H181V283L351 475H495L308 275L503 0H364L223 206L181 164Z" />
<glyph unicode="l" glyph-name="l" horiz-adv-x="249" d="M66 0V712H182V0H66Z" />
<glyph unicode="m" glyph-name="m" horiz-adv-x="844" d="M181 0H63V475H154L169 412Q202 445 240 464T328 484Q378 484 412 465T463 409Q497 444 538 464T628 484Q703 484 742 443T781 326V0H663V310Q663 348 645 370T590 392Q561 392 532 378T480 338Q481 331
481 326T481 313V0H363V310Q363 348 345 370T290 392Q261 392 233 377T181 334V0Z" />
<glyph unicode="n" glyph-name="n" horiz-adv-x="554" d="M181 0H63V475H155L170 412Q204 446 243 465T330 484Q407 484 449 442T491 321V0H373V307Q373 345 354 368T295 392Q266 392 236 377T181 335V0Z" />
<glyph unicode="o" glyph-name="o" horiz-adv-x="552" d="M516 241Q516 182 498 135T446 56T369 7T274 -10Q223 -10 180 6T104 52T54 128T36 231Q36 291 54 338T106 418T183 467T278 484Q329 484 372 469T448 422T498 346T516 241ZM394 236Q394 279 384 309T358
359T320 387T275 396Q252 396 231 389T194 363T168 313T158 236Q158 194 168 165T194 116T232 87T277 78Q299 78 320 86T358 112T384 160T394 236Z" />
<glyph unicode="p" glyph-name="p" horiz-adv-x="550" d="M278 -10Q249 -10 223 -3T178 16V-230H61V478H152L166 422Q194 449 230 466T312 484Q406 484 460 422T515 247Q515 183 496 135T444 55T368 6T278 -10ZM282 393Q246 393 219 376T178 341V105Q195 91 217
85T263 78Q287 78 310 87T351 115T381 166T393 244Q393 310 366 351T282 393Z" />
<glyph unicode="q" glyph-name="q" horiz-adv-x="554" d="M372 27Q349 8 319 -1T253 -10Q202 -10 162 8T93 58T51 135T36 237Q36 290 50 335T93 414T162 465T256 484Q290 484 327 471T388 431L397 475H490V-230H372V27ZM372 347Q358 367 334 382T277 397Q252 397
230 388T192 361T165 312T155 240Q155 159 189 119T276 78Q308 78 332 90T372 120V347Z" />
<glyph unicode="r" glyph-name="r" horiz-adv-x="384" d="M62 0V475H153L168 386Q185 427 222 455T314 484Q338 484 356 479T386 468L366 372Q355 378 339 382T300 387Q249 387 214 352T179 241V0H62Z" />
<glyph unicode="s" glyph-name="s" horiz-adv-x="425" d="M343 369Q284 397 228 397Q191 397 172 384T152 348Q152 329 168 316T232 288L262 279Q326 260 358 227T391 140Q391 71 339 31T197 -10Q100 -10 36 22L62 110Q91 96 123 87T191 78Q274 78 274 131Q274
155 255 167T188 193L157 203Q95 223 66 255T36 341Q36 372 49 398T85 444T142 473T217 484Q258 484 296 477T368 454L343 369Z" />
<glyph unicode="t" glyph-name="t" horiz-adv-x="376" d="M335 389H204V151Q204 117 220 105T263 92Q283 92 305 96T342 107L360 23Q341 15 309 8T239 0Q158 0 123 33T87 132V389H15V475H87V623H204V475H335V389Z" />
<glyph unicode="u" glyph-name="u" horiz-adv-x="554" d="M373 475H491V0H402L388 55H384Q361 31 323 11T228 -10Q153 -10 108 32T63 158V475H181V170Q181 121 203 101T261 80Q298 80 325 95T373 134V475Z" />
<glyph unicode="v" glyph-name="v" horiz-adv-x="492" d="M356 475H482L310 0H179L11 475H137L219 208L245 88H249L274 208L356 475Z" />
<glyph unicode="w" glyph-name="w" horiz-adv-x="743" d="M10 475H134L201 207L219 89H223L244 207L311 475H436L503 207L524 89H528L549 207L615 475H735L599 0H462L394 268L373 383L350 268L282 0H147L10 475Z" />
<glyph unicode="x" glyph-name="x" horiz-adv-x="491" d="M315 242L483 0H348L287 89L242 167L201 90L143 0H10L175 242L19 475H151L208 386L249 311L289 386L342 475H471L315 242Z" />
<glyph unicode="y" glyph-name="y" horiz-adv-x="500" d="M8 475H136L225 233L258 119H261L293 234L373 475H494L317 -25Q288 -108 239 -168T105 -257L55 -164Q108 -144 145 -108T200 -16L205 1L8 475Z" />
<glyph unicode="z" glyph-name="z" horiz-adv-x="416" d="M389 404L158 86H394V0H22V74L254 389H37V475H389V404Z" />
<glyph unicode="{" glyph-name="braceleft" horiz-adv-x="325" d="M302 629Q251 629 231 602T210 511V393Q210 347 193 320T142 279V276Q174 259 192 224T210 135V18Q210 -32 231 -52T302 -76V-155Q219 -153 168 -111T117 7V145Q117 190 96 214T29 241V312Q74
317 95 338T117 405V555Q117 587 129 614T164 662T222 693T302 705V629Z" />
<glyph unicode="|" glyph-name="bar" horiz-adv-x="234" d="M72 -230V750H162V-230H72Z" />
<glyph unicode="}" glyph-name="braceright" horiz-adv-x="325" d="M23 707Q66 707 100 695T159 662T195 612T208 549V405Q208 317 296 310V239Q251 235 230 213T208 145V1Q208 -68 159 -111T23 -155V-78Q74 -76 94 -53T115 28V146Q115 196 133 227T183 273V276Q115
307 115 404V521Q115 578 95 601T23 627V707Z" />
<glyph unicode="~" glyph-name="asciitilde" horiz-adv-x="580" d="M45 205Q45 244 56 273T86 322T131 352T188 362Q219 362 246 351T299 325T347 300T394 288Q456 288 456 361H535Q535 320 525 291T496 242T454 214T402 204Q371 204 343 216T288 242T236 268T187
280Q156 280 140 258T124 205H45Z" />
<glyph unicode="&#xa0;" glyph-name="uni00A0" horiz-adv-x="228" />
<glyph unicode="&#xa1;" glyph-name="exclamdown" horiz-adv-x="256" d="M81 253H175L190 -238H66L81 253ZM58 409Q58 442 78 462T128 482Q157 482 178 462T199 409Q199 379 178 359T128 338Q99 338 79 358T58 409Z" />
<glyph unicode="&#xa2;" glyph-name="cent" horiz-adv-x="494" d="M320 151Q352 151 376 158T418 175L441 93Q410 75 352 66V-22H257V66Q212 72 175 90T110 139T68 211T52 307Q52 357 66 398T108 471T172 522T257 549V640H352V549Q373 546 395 540T440 522L415
440Q395 451 369 458T315 465Q249 465 211 426T172 310Q172 265 185 235T219 186T266 159T320 151Z" />
<glyph unicode="&#xa3;" glyph-name="sterling" horiz-adv-x="519" d="M77 0L52 75Q110 104 135 151T147 265H58V348H136Q132 369 129 394T125 446Q125 490 140 526T184 587T250 626T336 640Q374 640 409 632T461 612L436 527Q417 536 394 542T341 549Q290 549
264 517T237 440Q237 411 240 391T248 348H403V265H258Q264 210 254 169T206 98L207 94H472V0H77Z" />
<glyph unicode="&#xa4;" glyph-name="currency" horiz-adv-x="519" d="M86 62L32 116L115 198Q86 242 86 306Q86 368 114 412L33 493L87 547L167 464Q187 477 211 483T261 490Q313 490 352 463L433 547L487 493L403 411Q417 389 424 362T432 306Q432 273 425 245T403
196L487 115L433 62L350 145Q311 120 258 120Q233 120 209 127T167 146L86 62ZM346 306Q346 360 324 390T260 421Q219 421 196 392T173 306Q173 250 195 220T259 189Q295 189 320 216T346 306Z" />
<glyph unicode="&#xa5;" glyph-name="yen" horiz-adv-x="558" d="M517 230V158H337V0H217V158H37V230H217V263L185 318H37V390H148L11 630H142L281 358L422 630H549L408 390H517V318H369L337 263V230H517Z" />
<glyph unicode="&#xa6;" glyph-name="brokenbar" horiz-adv-x="250" d="M80 380V750H170V380H80ZM80 -180V188H170V-180H80Z" />
<glyph unicode="&#xa7;" glyph-name="section" horiz-adv-x="517" d="M78 49Q145 14 221 14Q268 14 289 31T310 75Q310 101 290 114T221 144L173 161Q112 183 80 216T47 301Q47 342 66 373T111 424Q87 454 87 498Q87 529 100 556T137 602T197 633T278 644Q323
644 362 636T434 612L409 529Q377 546 348 553T289 560Q246 560 224 545T201 503Q201 490 205 481T221 464T250 448T295 431L343 414Q403 393 436 359T469 272Q469 230 450 200T405 151Q424 121 424 81Q424 48 411 20T373 -29T313 -60T235 -72Q178 -72 133 -63T52
-36L78 49ZM365 256Q365 285 347 300T284 332L228 353Q214 358 201 363T176 375Q165 365 158 352T151 321Q151 292 171 276T230 246L287 227Q301 222 314 217T340 205Q351 215 358 227T365 256Z" />
<glyph unicode="&#xa8;" glyph-name="dieresis" horiz-adv-x="371" d="M32 621Q32 644 49 662T92 681Q117 681 134 663T151 621Q151 596 134 578T92 560Q67 560 50 578T32 621ZM219 621Q219 644 237 662T279 681Q305 681 322 663T339 621Q339 596 322 578T279
560Q255 560 237 578T219 621Z" />
<glyph unicode="&#xa9;" glyph-name="copyright" horiz-adv-x="705" d="M378 190Q400 190 418 194T455 209L470 155Q427 135 373 135Q336 135 304 146T247 179T208 234T194 311Q194 351 207 384T243 439T300 474T372 487Q396 487 419 483T468 468L452 413Q415
432 379 432Q328 432 298 401T268 313Q268 278 277 255T302 217T338 196T378 190ZM354 636Q418 636 475 616T575 555T643 454T669 314Q669 236 643 176T574 74T473 12T351 -9Q288 -9 231 11T130 72T62 173T36 314Q36 392 62 452T131 553T233 615T354 636ZM354 595Q300
595 251 577T165 524T107 436T85 314Q85 243 106 190T163 102T248 50T351 32Q406 32 454 50T540 104T598 192T620 314Q620 384 599 437T542 525T458 577T354 595Z" />
<glyph unicode="&#xaa;" glyph-name="ordfeminine" horiz-adv-x="346" d="M55 557Q84 573 113 581T178 590Q233 590 266 564T300 476V274H240L232 306H230Q197 267 136 267Q86 267 59 293T31 360Q31 413 72 437T177 461H223V483Q223 509 208 519T167 530Q149 530
129 525T82 505L55 557ZM223 413L188 411Q145 410 128 397T110 364Q110 340 124 332T158 323Q177 323 194 332T223 358V413Z" />
<glyph unicode="&#xab;" glyph-name="guillemotleft" horiz-adv-x="501" d="M374 76L236 236L374 397H470L344 236L470 76H374ZM174 76L36 236L174 397H270L144 236L270 76H174Z" />
<glyph unicode="&#xac;" glyph-name="logicalnot" horiz-adv-x="729" />
<glyph unicode="&#xad;" glyph-name="uni00AD" horiz-adv-x="280" d="M250 338V244H30V338H250Z" />
<glyph unicode="&#xae;" glyph-name="registered" horiz-adv-x="530" d="M492 466Q492 409 476 366T429 294T358 249T266 234Q216 234 174 248T102 291T55 362T38 458Q38 514 54 557T101 629T172 672T264 687Q313 687 355 673T427 630T475 561T492 466ZM452 462Q452
511 437 547T396 607T336 642T264 654Q226 654 192 644T133 610T92 550T77 462Q77 412 91 375T130 314T189 278T266 266Q304 266 337 277T396 313T437 374T452 462ZM179 588H280Q322 588 343 566T365 511Q365 482 350 464T315 438L381 334H326L269 429H224V334H179V588ZM224
466H263Q286 466 302 476T318 510Q318 533 305 541T269 550H224V466Z" />
<glyph unicode="&#xaf;" glyph-name="overscore" horiz-adv-x="295" d="M270 661V591H25V661H270Z" />
<glyph unicode="&#xb0;" glyph-name="degree" horiz-adv-x="397" d="M366 467Q366 387 322 341T198 294Q123 294 78 340T33 467Q33 506 45 538T79 592T132 627T201 640Q238 640 268 628T320 593T354 538T366 467ZM289 467Q289 516 269 547T201 578Q155 578 133
549T110 467Q110 416 131 386T198 356Q238 356 263 382T289 467Z" />
<glyph unicode="&#xb1;" glyph-name="plusminus" horiz-adv-x="484" d="M409 76V0H60V76H409ZM446 378V302H281V141H202V302H37V378H202V540H281V378H446Z" />
<glyph unicode="&#xb2;" glyph-name="twosuperior" horiz-adv-x="325" d="M140 790Q120 790 99 784T52 761L19 820Q49 840 81 849T146 858Q218 858 256 822T295 730Q295 689 270 647T188 561L125 513H295V445H31L15 505L96 573Q155 624 180 658T205 727Q205 755
187 772T140 790Z" />
<glyph unicode="&#xb3;" glyph-name="threesuperior" horiz-adv-x="303" d="M20 835Q52 849 78 853T131 858Q159 858 183 850T227 828T257 793T268 748Q268 677 189 654V652Q231 644 256 620T282 558Q282 528 269 506T233 469T183 447T123 440Q94 440 62 444T9
458L27 522Q52 514 71 511T115 508Q147 508 168 523T189 566Q189 587 171 602T112 617H56V681H96Q136 681 156 697T177 740Q177 768 157 780T113 792Q96 792 78 789T40 776L20 835Z" />
<glyph unicode="&#xb4;" glyph-name="acute" horiz-adv-x="253" d="M113 550H31L106 710H221L113 550Z" />
<glyph unicode="&#xb5;" glyph-name="uni00B5" horiz-adv-x="553" d="M373 475H491V0H402L388 55H384Q362 31 327 11T236 -10Q218 -10 201 -7T169 4L181 -73V-162H63V475H181V170Q181 121 203 101T261 80Q298 80 325 95T373 134V475Z" />
<glyph unicode="&#xb6;" glyph-name="paragraph" horiz-adv-x="582" d="M431 -179V558H340V-179H258V244Q146 244 91 296T35 440Q35 490 52 527T99 590T172 627T266 640H512V-179H431Z" />
<glyph unicode="&#xb7;" glyph-name="middot" horiz-adv-x="212" d="M39 329Q39 360 60 382T112 404Q142 404 163 382T184 329Q184 296 163 275T112 254Q82 254 61 275T39 329Z" />
<glyph unicode="&#xb8;" glyph-name="cedilla" horiz-adv-x="286" d="M126 0H192L168 -47Q206 -50 228 -69T250 -117Q250 -138 241 -153T216 -179T180 -195T135 -200Q112 -200 91 -196T56 -187L71 -136Q96 -145 123 -145Q146 -145 159 -138T172 -114Q172 -97 154
-88T91 -78L126 0Z" />
<glyph unicode="&#xb9;" glyph-name="onesuperior" horiz-adv-x="288" d="M146 851H222V445H128V757L43 717L22 794L146 851Z" />
<glyph unicode="&#xba;" glyph-name="ordmasculine" horiz-adv-x="426" />
<glyph unicode="&#xbb;" glyph-name="guillemotright" horiz-adv-x="501" d="M34 76L160 236L34 397H130L268 236L130 76H34ZM234 76L360 236L234 397H330L468 236L330 76H234Z" />
<glyph unicode="&#xbc;" glyph-name="onequarter" horiz-adv-x="826" d="M163 -10L572 640H647L238 -10H163ZM155 630H231V224H137V536L52 496L31 573L155 630ZM635 406H736V165H799V102H736V0H649V102H453V156L635 406ZM618 270L541 165H649V269L652 325H650L618 270Z" />
<glyph unicode="&#xbd;" glyph-name="onehalf" horiz-adv-x="859" d="M158 -10L567 640H642L233 -10H158ZM669 345Q649 345 628 339T581 316L548 375Q578 395 610 404T675 413Q747 413 785 377T824 285Q824 244 799 202T717 116L654 68H824V0H560L544 60L625 128Q684
179 709 213T734 282Q734 310 716 327T669 345ZM155 630H231V224H137V536L52 496L31 573L155 630Z" />
<glyph unicode="&#xbe;" glyph-name="threequarters" horiz-adv-x="853" d="M191 -10L601 640H676L266 -10H191ZM656 406H757V165H820V102H757V0H670V102H474V156L656 406ZM639 270L562 165H670V269L673 325H671L639 270ZM40 613Q72 627 98 631T151 636Q179 636
203 628T247 606T277 571T288 526Q288 455 209 432V430Q251 422 276 398T302 336Q302 306 289 284T253 247T203 225T143 218Q114 218 82 222T29 236L47 300Q72 292 91 289T135 286Q167 286 188 301T209 344Q209 365 191 380T132 395H76V459H116Q156 459 176 475T197
518Q197 546 177 558T133 570Q116 570 98 567T60 554L40 613Z" />
<glyph unicode="&#xbf;" glyph-name="questiondown" horiz-adv-x="435" d="M245 -248Q199 -248 163 -235T101 -200T63 -146T50 -79Q50 -26 78 15T148 98Q169 118 184 133T210 161T225 186T230 214Q230 234 223 255L320 269Q325 257 328 241T331 208Q331 165 311
134T252 63Q233 43 218 27T193 -5T176 -37T170 -74Q170 -105 191 -128T259 -152Q283 -152 305 -145T352 -121L397 -203Q367 -225 327 -236T245 -248ZM333 404Q333 374 312 354T262 333Q233 333 213 353T192 404Q192 437 212 457T262 477Q291 477 312 457T333 404Z"
/>
<glyph unicode="&#xc0;" glyph-name="Agrave" horiz-adv-x="618" d="M150 824H280L360 700H263L150 824ZM219 246H394L361 339Q347 381 335 418T309 499H307Q293 458 280 420T252 339L219 246ZM249 630H371L610 0H481L425 155H190L134 0H7L249 630Z" />
<glyph unicode="&#xc1;" glyph-name="Aacute" horiz-adv-x="618" d="M355 700H258L338 824H469L355 700ZM219 246H394L361 339Q347 381 335 418T309 499H307Q293 458 280 420T252 339L219 246ZM249 630H371L610 0H481L425 155H190L134 0H7L249 630Z" />
<glyph unicode="&#xc2;" glyph-name="Acircumflex" horiz-adv-x="618" d="M263 829H352L472 700H377L307 774L237 700H146L263 829ZM219 246H394L361 339Q347 381 335 418T309 499H307Q293 458 280 420T252 339L219 246ZM249 630H371L610 0H481L425 155H190L134
0H7L249 630Z" />
<glyph unicode="&#xc3;" glyph-name="Atilde" horiz-adv-x="618" d="M154 700Q154 748 176 781T244 815Q263 815 278 809T308 796T335 783T363 777Q380 777 388 789T397 818H457Q457 770 435 737T372 704Q352 704 334 710T301 722T273 735T249 741Q230 741 223
729T214 700H154ZM219 246H394L361 339Q347 381 335 418T309 499H307Q293 458 280 420T252 339L219 246ZM249 630H371L610 0H481L425 155H190L134 0H7L249 630Z" />
<glyph unicode="&#xc4;" glyph-name="Adieresis" horiz-adv-x="618" d="M156 754Q156 777 173 794T215 812Q240 812 257 795T274 754Q274 729 257 712T215 694Q191 694 174 711T156 754ZM342 754Q342 777 359 794T401 812Q425 812 442 795T459 754Q459 729 442
712T401 694Q376 694 359 711T342 754ZM219 246H394L361 339Q347 381 335 418T309 499H307Q293 458 280 420T252 339L219 246ZM249 630H371L610 0H481L425 155H190L134 0H7L249 630Z" />
<glyph unicode="&#xc5;" glyph-name="Aring" horiz-adv-x="618" d="M206 761Q206 806 235 827T308 849Q353 849 381 828T410 761Q410 738 402 722T379 695T347 679T308 673Q266 673 236 695T206 761ZM265 761Q265 739 276 727T308 714Q328 714 339 726T351 761Q351
783 340 795T308 808Q288 808 277 796T265 761ZM219 246H394L361 339Q347 381 335 418T309 499H307Q293 458 280 420T252 339L219 246ZM249 630H371L610 0H481L425 155H190L134 0H7L249 630Z" />
<glyph unicode="&#xc6;" glyph-name="AE" horiz-adv-x="818" d="M328 630H776V534H523V375H750V280H523V96H779V0H403V157H224L148 0H9L328 630ZM403 541L264 250H403V541Z" />
<glyph unicode="&#xc7;" glyph-name="Ccedilla" horiz-adv-x="566" d="M372 86Q419 86 451 94T509 116L535 24Q508 10 468 1T369 -10L355 -47Q400 -50 421 -73T442 -125Q442 -169 408 -192T322 -215Q298 -215 277 -211T243 -201L258 -151Q283 -160 310 -160Q364
-160 364 -122Q364 -113 361 -105T348 -91T322 -82T278 -78L307 -7Q249 1 200 26T116 92T61 190T41 315Q41 390 64 450T129 553T231 617T362 640Q426 640 467 629T537 603L509 511Q479 526 448 535T376 544Q334 544 297 532T232 492T188 421T171 315Q171 255 187
212T230 140T293 99T372 86Z" />
<glyph unicode="&#xc8;" glyph-name="Egrave" horiz-adv-x="515" d="M73 630H473V534H195V375H447V280H195V96H476V0H73V630ZM165 824H295L375 700H278L165 824Z" />
<glyph unicode="&#xc9;" glyph-name="Eacute" horiz-adv-x="512" d="M73 630H473V534H195V375H447V280H195V96H476V0H73V630ZM278 700H181L261 824H391L278 700Z" />
<glyph unicode="&#xca;" glyph-name="Ecircumflex" horiz-adv-x="512" d="M73 630H473V534H195V375H447V280H195V96H476V0H73V630ZM221 829H310L430 700H335L265 774L195 700H104L221 829Z" />
<glyph unicode="&#xcb;" glyph-name="Edieresis" horiz-adv-x="512" d="M73 630H473V534H195V375H447V280H195V96H476V0H73V630ZM121 754Q121 777 138 794T180 812Q205 812 222 795T239 754Q239 729 222 712T180 694Q156 694 139 711T121 754ZM307 754Q307 777
324 794T366 812Q390 812 407 795T424 754Q424 729 407 712T366 694Q341 694 324 711T307 754Z" />
<glyph unicode="&#xcc;" glyph-name="Igrave" horiz-adv-x="268" d="M195 630V0H73V630H195ZM-31 824H100L180 700H83L-31 824Z" />
<glyph unicode="&#xcd;" glyph-name="Iacute" horiz-adv-x="268" d="M195 630V0H73V630H195ZM184 700H87L167 824H298L184 700Z" />
<glyph unicode="&#xce;" glyph-name="Icircumflex" horiz-adv-x="268" d="M195 630V0H73V630H195ZM90 829H179L299 700H204L134 774L64 700H-27L90 829Z" />
<glyph unicode="&#xcf;" glyph-name="Idieresis" horiz-adv-x="268" d="M195 630V0H73V630H195ZM-19 754Q-19 777 -2 794T40 812Q64 812 81 795T98 754Q98 729 81 712T40 694Q15 694 -2 711T-19 754ZM166 754Q166 777 183 794T225 812Q250 812 267 795T284 754Q284
729 267 712T225 694Q201 694 184 711T166 754Z" />
<glyph unicode="&#xd0;" glyph-name="Eth" horiz-adv-x="685" d="M323 630Q394 630 453 611T554 554T620 460T644 328Q644 241 616 179T540 77T429 19T293 0H108V283H25V365H108V630H323ZM350 365V283H230V96H284Q328 96 369 106T443 143T494 214T514 328Q514
428 458 481T305 534H230V365H350Z" />
<glyph unicode="&#xd1;" glyph-name="Ntilde" horiz-adv-x="676" d="M73 630H253L425 260L485 105H489L483 281V630H603V0H423L257 354L191 529H187L193 333V0H73V630ZM204 700Q204 748 226 781T293 815Q312 815 328 809T357 796T384 783T412 777Q429 777 437
789T447 818H507Q507 770 485 737T421 704Q401 704 384 710T351 722T323 735T298 741Q280 741 273 729T264 700H204Z" />
<glyph unicode="&#xd2;" glyph-name="Ograve" horiz-adv-x="698" d="M351 640Q417 640 473 619T569 556T633 454T656 314Q656 237 633 177T568 76T470 12T347 -10Q281 -10 225 11T129 73T65 174T42 314Q42 391 65 451T130 554T228 618T351 640ZM172 314Q172 255
186 212T224 141T281 98T351 84Q388 84 420 98T475 140T512 212T526 314Q526 374 512 418T474 490T417 532T347 546Q310 546 278 532T223 489T186 416T172 314ZM234 824H365L445 700H348L234 824Z" />
<glyph unicode="&#xd3;" glyph-name="Oacute" horiz-adv-x="698" d="M351 640Q417 640 473 619T569 556T633 454T656 314Q656 237 633 177T568 76T470 12T347 -10Q281 -10 225 11T129 73T65 174T42 314Q42 391 65 451T130 554T228 618T351 640ZM172 314Q172 255
186 212T224 141T281 98T351 84Q388 84 420 98T475 140T512 212T526 314Q526 374 512 418T474 490T417 532T347 546Q310 546 278 532T223 489T186 416T172 314ZM345 700H248L328 824H459L345 700Z" />
<glyph unicode="&#xd4;" glyph-name="Ocircumflex" horiz-adv-x="698" d="M351 640Q417 640 473 619T569 556T633 454T656 314Q656 237 633 177T568 76T470 12T347 -10Q281 -10 225 11T129 73T65 174T42 314Q42 391 65 451T130 554T228 618T351 640ZM172 314Q172
255 186 212T224 141T281 98T351 84Q388 84 420 98T475 140T512 212T526 314Q526 374 512 418T474 490T417 532T347 546Q310 546 278 532T223 489T186 416T172 314ZM306 829H395L515 700H420L350 774L280 700H189L306 829Z" />
<glyph unicode="&#xd5;" glyph-name="Otilde" horiz-adv-x="698" d="M351 640Q417 640 473 619T569 556T633 454T656 314Q656 237 633 177T568 76T470 12T347 -10Q281 -10 225 11T129 73T65 174T42 314Q42 391 65 451T130 554T228 618T351 640ZM172 314Q172 255
186 212T224 141T281 98T351 84Q388 84 420 98T475 140T512 212T526 314Q526 374 512 418T474 490T417 532T347 546Q310 546 278 532T223 489T186 416T172 314ZM194 700Q194 748 216 782T283 816Q302 816 318 810T347 797T374 783T402 777Q419 777 427 789T437
819H497Q497 771 475 738T411 704Q391 704 374 710T341 723T313 736T288 742Q270 742 263 730T254 700H194Z" />
<glyph unicode="&#xd6;" glyph-name="Odieresis" horiz-adv-x="698" d="M351 640Q417 640 473 619T569 556T633 454T656 314Q656 237 633 177T568 76T470 12T347 -10Q281 -10 225 11T129 73T65 174T42 314Q42 391 65 451T130 554T228 618T351 640ZM172 314Q172
255 186 212T224 141T281 98T351 84Q388 84 420 98T475 140T512 212T526 314Q526 374 512 418T474 490T417 532T347 546Q310 546 278 532T223 489T186 416T172 314ZM198 754Q198 777 215 794T257 812Q281 812 298 795T315 754Q315 729 298 712T257 694Q232 694
215 711T198 754ZM383 754Q383 777 400 794T442 812Q467 812 484 795T501 754Q501 729 484 712T442 694Q418 694 401 711T383 754Z" />
<glyph unicode="&#xd7;" glyph-name="multiply" horiz-adv-x="430" d="M39 177L162 300L39 424L92 477L215 354L338 476L391 423L268 300L391 178L338 125L215 247L92 124L39 177Z" />
<glyph unicode="&#xd8;" glyph-name="Oslash" horiz-adv-x="698" d="M511 752L566 729L511 600Q577 562 616 491T656 314Q656 237 633 177T568 76T470 12T347 -10Q322 -10 297 -7T251 2L183 -158L128 -134L195 24Q125 62 84 133T42 314Q42 391 65 451T130 554T228
618T351 640Q378 640 405 636T456 624L511 752ZM172 314Q172 242 190 195T240 121L413 535Q382 546 347 546Q310 546 278 532T223 489T186 416T172 314ZM351 84Q388 84 420 98T475 140T512 212T526 314Q526 383 510 428T464 501L294 92Q308 87 322 86T351 84Z"
/>
<glyph unicode="&#xd9;" glyph-name="Ugrave" horiz-adv-x="654" d="M69 630H191V253Q191 166 223 126T328 85Q399 85 431 128T463 241V630H585V249Q585 118 519 54T328 -10Q267 -10 219 5T138 53T87 136T69 254V630ZM205 824H336L416 700H319L205 824Z" />
<glyph unicode="&#xda;" glyph-name="Uacute" horiz-adv-x="654" d="M69 630H191V253Q191 166 223 126T328 85Q399 85 431 128T463 241V630H585V249Q585 118 519 54T328 -10Q267 -10 219 5T138 53T87 136T69 254V630ZM330 700H233L313 824H444L330 700Z" />
<glyph unicode="&#xdb;" glyph-name="Ucircumflex" horiz-adv-x="654" d="M69 630H191V253Q191 166 223 126T328 85Q399 85 431 128T463 241V630H585V249Q585 118 519 54T328 -10Q267 -10 219 5T138 53T87 136T69 254V630ZM284 829H373L493 700H398L328 774L258
700H167L284 829Z" />
<glyph unicode="&#xdc;" glyph-name="Udieresis" horiz-adv-x="654" d="M69 630H191V253Q191 166 223 126T328 85Q399 85 431 128T463 241V630H585V249Q585 118 519 54T328 -10Q267 -10 219 5T138 53T87 136T69 254V630ZM177 754Q177 777 194 794T236 812Q260
812 277 795T294 754Q294 729 277 712T236 694Q211 694 194 711T177 754ZM362 754Q362 777 379 794T421 812Q446 812 463 795T480 754Q480 729 463 712T421 694Q397 694 380 711T362 754Z" />
<glyph unicode="&#xdd;" glyph-name="Yacute" horiz-adv-x="558" d="M139 630L281 373L424 630H556L338 261V0H216V261L3 630H139ZM311 700H214L294 824H425L311 700Z" />
<glyph unicode="&#xde;" glyph-name="Thorn" horiz-adv-x="534" d="M69 630H185V503Q227 515 273 515Q321 515 362 501T432 462T479 400T496 318Q496 264 478 224T426 158T348 119T251 106Q237 106 218 107T185 111V0H69V630ZM185 203Q199 198 213 197T248 196Q306
196 341 226T376 312Q376 369 342 397T256 426Q236 426 217 423T185 415V203Z" />
<glyph unicode="&#xdf;" glyph-name="germandbls" horiz-adv-x="597" d="M70 0V475Q70 529 83 574T126 651T200 702T310 720Q350 720 386 709T451 676T497 622T514 550Q514 525 508 504T494 465Q443 454 422 435T401 384Q401 355 418 335T462 295Q504 263 530
229T557 143Q557 76 508 33T364 -10Q349 -10 332 -9T299 -4T268 3T243 13L268 96Q310 78 356 78Q397 78 418 97T439 146Q439 174 420 193T367 238Q329 267 307 298T284 380Q284 423 311 456T389 505Q392 513 393 522T395 547Q395 588 369 609T305 630Q278 630 256
622T219 593T195 541T186 461V0H70Z" />
<glyph unicode="&#xe0;" glyph-name="agrave" horiz-adv-x="500" d="M70 433Q114 457 159 470T258 484Q300 484 334 475T393 444T431 390T445 308V0H352L340 50H337Q286 -10 192 -10Q117 -10 75 29T33 132Q33 172 50 201T96 249T167 277T256 287H326V320Q326 359
303 375T241 392Q213 392 182 383T112 352L70 433ZM327 212L273 210Q207 208 181 188T155 138Q155 101 177 88T228 75Q257 75 283 89T327 130V212ZM137 695H260L330 551H243L137 695Z" />
<glyph unicode="&#xe1;" glyph-name="aacute" horiz-adv-x="500" d="M70 433Q114 457 159 470T258 484Q300 484 334 475T393 444T431 390T445 308V0H352L340 50H337Q286 -10 192 -10Q117 -10 75 29T33 132Q33 172 50 201T96 249T167 277T256 287H326V320Q326 359
303 375T241 392Q213 392 182 383T112 352L70 433ZM327 212L273 210Q207 208 181 188T155 138Q155 101 177 88T228 75Q257 75 283 89T327 130V212ZM284 551H197L267 695H390L284 551Z" />
<glyph unicode="&#xe2;" glyph-name="acircumflex" horiz-adv-x="500" d="M70 433Q114 457 159 470T258 484Q300 484 334 475T393 444T431 390T445 308V0H352L340 50H337Q286 -10 192 -10Q117 -10 75 29T33 132Q33 172 50 201T96 249T167 277T256 287H326V320Q326
359 303 375T241 392Q213 392 182 383T112 352L70 433ZM327 212L273 210Q207 208 181 188T155 138Q155 101 177 88T228 75Q257 75 283 89T327 130V212ZM414 551H323L258 630L193 551H98L220 690H294L414 551Z" />
<glyph unicode="&#xe3;" glyph-name="atilde" horiz-adv-x="500" d="M70 433Q114 457 159 470T258 484Q300 484 334 475T393 444T431 390T445 308V0H352L340 50H337Q286 -10 192 -10Q117 -10 75 29T33 132Q33 172 50 201T96 249T167 277T256 287H326V320Q326 359
303 375T241 392Q213 392 182 383T112 352L70 433ZM327 212L273 210Q207 208 181 188T155 138Q155 101 177 88T228 75Q257 75 283 89T327 130V212ZM91 551Q91 608 114 641T182 675Q202 675 219 668T252 652T281 636T308 629Q328 629 335 645T344 679H404Q404 623
382 590T315 556Q292 556 274 563T239 578T210 594T186 601Q167 601 160 587T151 551H91Z" />
<glyph unicode="&#xe4;" glyph-name="adieresis" horiz-adv-x="500" d="M70 433Q114 457 159 470T258 484Q300 484 334 475T393 444T431 390T445 308V0H352L340 50H337Q286 -10 192 -10Q117 -10 75 29T33 132Q33 172 50 201T96 249T167 277T256 287H326V320Q326
359 303 375T241 392Q213 392 182 383T112 352L70 433ZM327 212L273 210Q207 208 181 188T155 138Q155 101 177 88T228 75Q257 75 283 89T327 130V212ZM106 621Q106 644 123 662T166 681Q191 681 208 663T225 621Q225 596 208 578T166 560Q141 560 124 578T106
621ZM293 621Q293 644 311 662T353 681Q379 681 396 663T413 621Q413 596 396 578T353 560Q329 560 311 578T293 621Z" />
<glyph unicode="&#xe5;" glyph-name="aring" horiz-adv-x="500" d="M70 433Q114 457 159 470T258 484Q300 484 334 475T393 444T431 390T445 308V0H352L340 50H337Q286 -10 192 -10Q117 -10 75 29T33 132Q33 172 50 201T96 249T167 277T256 287H326V320Q326 359
303 375T241 392Q213 392 182 383T112 352L70 433ZM327 212L273 210Q207 208 181 188T155 138Q155 101 177 88T228 75Q257 75 283 89T327 130V212ZM161 623Q161 645 169 661T192 689T224 705T261 711Q281 711 299 706T331 689T353 662T361 623Q361 600 353 584T330
557T298 541T261 535Q242 535 224 541T192 558T170 585T161 623ZM216 623Q216 600 228 588T261 575Q281 575 293 587T306 623Q306 646 294 658T261 670Q242 670 229 658T216 623Z" />
<glyph unicode="&#xe6;" glyph-name="ae" horiz-adv-x="792" d="M757 213H439V209Q439 142 478 110T584 78Q623 78 653 85T712 104L734 21Q707 8 668 -1T578 -10Q515 -10 464 9T379 71H376Q346 33 304 12T196 -10Q120 -10 77 29T33 132Q33 172 50 201T96 249T167
277T256 287H332V320Q332 359 308 375T241 392Q213 392 182 383T112 352L70 433Q114 457 158 470T255 484Q305 484 341 469T400 419H402Q428 452 467 468T552 484Q648 484 702 426T757 263V213ZM155 138Q155 101 177 88T228 75Q261 75 292 91T342 138Q337 155 334
173T329 212L273 210Q207 208 181 188T155 138ZM636 289Q636 310 631 330T616 365T588 390T547 400Q502 400 474 370T441 287L636 289Z" />
<glyph unicode="&#xe7;" glyph-name="ccedilla" horiz-adv-x="458" d="M307 78Q339 78 363 85T405 102L428 19Q407 8 373 0T296 -10L278 -47Q316 -50 338 -69T360 -117Q360 -138 351 -153T326 -179T290 -195T245 -200Q221 -200 201 -196T166 -187L181 -136Q206
-145 233 -145Q256 -145 269 -138T282 -114Q282 -97 264 -88T201 -78L234 -5Q192 2 156 21T94 70T54 142T39 236Q39 292 57 338T109 416T189 466T292 484Q323 484 356 478T427 454L402 370Q379 383 355 390T305 397Q239 397 199 357T159 239Q159 194 172 163T206
113T253 86T307 78Z" />
<glyph unicode="&#xe8;" glyph-name="egrave" horiz-adv-x="514" d="M479 216H156V212Q156 145 196 112T303 78Q342 78 372 85T431 104L454 21Q425 8 385 -1T292 -10Q239 -10 193 4T111 48T56 124T35 234Q35 290 52 336T100 415T175 466T272 484Q367 484 423 426T479
265V216ZM358 293Q358 314 353 333T337 368T309 391T267 400Q222 400 193 370T158 291L358 293ZM161 695H284L354 551H267L161 695Z" />
<glyph unicode="&#xe9;" glyph-name="eacute" horiz-adv-x="514" d="M479 216H156V212Q156 145 196 112T303 78Q342 78 372 85T431 104L454 21Q425 8 385 -1T292 -10Q239 -10 193 4T111 48T56 124T35 234Q35 290 52 336T100 415T175 466T272 484Q367 484 423 426T479
265V216ZM358 293Q358 314 353 333T337 368T309 391T267 400Q222 400 193 370T158 291L358 293ZM280 551H193L263 695H386L280 551Z" />
<glyph unicode="&#xea;" glyph-name="ecircumflex" horiz-adv-x="514" d="M479 216H156V212Q156 145 196 112T303 78Q342 78 372 85T431 104L454 21Q425 8 385 -1T292 -10Q239 -10 193 4T111 48T56 124T35 234Q35 290 52 336T100 415T175 466T272 484Q367 484
423 426T479 265V216ZM358 293Q358 314 353 333T337 368T309 391T267 400Q222 400 193 370T158 291L358 293ZM425 551H334L269 630L204 551H109L231 690H305L425 551Z" />
<glyph unicode="&#xeb;" glyph-name="edieresis" horiz-adv-x="514" d="M479 216H156V212Q156 145 196 112T303 78Q342 78 372 85T431 104L454 21Q425 8 385 -1T292 -10Q239 -10 193 4T111 48T56 124T35 234Q35 290 52 336T100 415T175 466T272 484Q367 484 423
426T479 265V216ZM358 293Q358 314 353 333T337 368T309 391T267 400Q222 400 193 370T158 291L358 293ZM116 621Q116 644 133 662T176 681Q201 681 218 663T235 621Q235 596 218 578T176 560Q151 560 134 578T116 621ZM303 621Q303 644 321 662T363 681Q389 681
406 663T423 621Q423 596 406 578T363 560Q339 560 321 578T303 621Z" />
<glyph unicode="&#xec;" glyph-name="igrave" horiz-adv-x="267" d="M74 0V475H192V0H74ZM-6 695H117L187 551H100L-6 695Z" />
<glyph unicode="&#xed;" glyph-name="iacute" horiz-adv-x="267" d="M74 0V475H192V0H74ZM166 551H79L149 695H272L166 551Z" />
<glyph unicode="&#xee;" glyph-name="icircumflex" horiz-adv-x="267" d="M74 0V475H192V0H74ZM289 551H198L133 630L68 551H-27L96 690H170L289 551Z" />
<glyph unicode="&#xef;" glyph-name="idieresis" horiz-adv-x="267" d="M74 0V475H192V0H74ZM-23 621Q-23 644 -5 662T37 681Q63 681 80 663T97 621Q97 596 80 578T37 560Q13 560 -5 578T-23 621ZM165 621Q165 644 182 662T225 681Q250 681 267 663T284 621Q284
596 267 578T225 560Q200 560 183 578T165 621Z" />
<glyph unicode="&#xf0;" glyph-name="eth" horiz-adv-x="549" d="M251 457Q286 457 320 444T378 407L381 408Q374 432 363 455T336 500T304 540T271 571L157 515L131 561L224 607Q201 621 177 631T124 649L168 726Q208 715 249 696T324 651L417 698L444 651L367
612Q394 586 419 551T463 471T494 373T506 256Q506 199 491 151T447 66T373 10T271 -10Q230 -10 189 3T114 45T59 118T38 224Q38 279 54 322T100 396T167 441T251 457ZM273 370Q252 370 232 363T195 339T168 295T157 227Q157 185 167 157T195 111T233 86T276 78Q301
78 322 89T358 121T382 168T391 228Q391 262 382 288T356 333T318 360T273 370Z" />
<glyph unicode="&#xf1;" glyph-name="ntilde" horiz-adv-x="553" d="M180 0H62V475H154L169 412Q203 446 242 465T329 484Q406 484 448 442T490 321V0H372V307Q372 345 353 368T294 392Q265 392 235 377T180 335V0ZM118 551Q118 608 141 641T209 675Q229 675 246
668T279 652T308 636T335 629Q355 629 362 645T371 679H431Q431 623 409 590T342 556Q319 556 301 563T266 578T237 594T213 601Q194 601 187 587T178 551H118Z" />
<glyph unicode="&#xf2;" glyph-name="ograve" horiz-adv-x="558" d="M519 241Q519 182 501 135T449 56T372 7T277 -10Q226 -10 183 6T107 52T57 128T39 231Q39 291 57 338T109 418T186 467T281 484Q332 484 375 469T451 422T501 346T519 241ZM397 236Q397 279
387 309T361 359T323 387T278 396Q255 396 234 389T197 363T171 313T161 236Q161 194 171 165T197 116T235 87T280 78Q302 78 323 86T361 112T387 160T397 236ZM150 695H273L343 551H256L150 695Z" />
<glyph unicode="&#xf3;" glyph-name="oacute" horiz-adv-x="558" d="M519 241Q519 182 501 135T449 56T372 7T277 -10Q226 -10 183 6T107 52T57 128T39 231Q39 291 57 338T109 418T186 467T281 484Q332 484 375 469T451 422T501 346T519 241ZM397 236Q397 279
387 309T361 359T323 387T278 396Q255 396 234 389T197 363T171 313T161 236Q161 194 171 165T197 116T235 87T280 78Q302 78 323 86T361 112T387 160T397 236ZM305 551H218L288 695H411L305 551Z" />
<glyph unicode="&#xf4;" glyph-name="ocircumflex" horiz-adv-x="558" d="M519 241Q519 182 501 135T449 56T372 7T277 -10Q226 -10 183 6T107 52T57 128T39 231Q39 291 57 338T109 418T186 467T281 484Q332 484 375 469T451 422T501 346T519 241ZM397 236Q397
279 387 309T361 359T323 387T278 396Q255 396 234 389T197 363T171 313T161 236Q161 194 171 165T197 116T235 87T280 78Q302 78 323 86T361 112T387 160T397 236ZM435 551H344L279 630L214 551H119L242 690H316L435 551Z" />
<glyph unicode="&#xf5;" glyph-name="otilde" horiz-adv-x="558" d="M519 241Q519 182 501 135T449 56T372 7T277 -10Q226 -10 183 6T107 52T57 128T39 231Q39 291 57 338T109 418T186 467T281 484Q332 484 375 469T451 422T501 346T519 241ZM397 236Q397 279
387 309T361 359T323 387T278 396Q255 396 234 389T197 363T171 313T161 236Q161 194 171 165T197 116T235 87T280 78Q302 78 323 86T361 112T387 160T397 236ZM120 551Q120 608 143 641T211 675Q231 675 248 668T281 652T310 636T338 629Q358 629 365 645T373
679H433Q434 623 412 590T345 556Q322 556 304 563T269 578T240 594T215 601Q197 601 190 587T180 551H120Z" />
<glyph unicode="&#xf6;" glyph-name="odieresis" horiz-adv-x="558" d="M519 241Q519 182 501 135T449 56T372 7T277 -10Q226 -10 183 6T107 52T57 128T39 231Q39 291 57 338T109 418T186 467T281 484Q332 484 375 469T451 422T501 346T519 241ZM397 236Q397 279
387 309T361 359T323 387T278 396Q255 396 234 389T197 363T171 313T161 236Q161 194 171 165T197 116T235 87T280 78Q302 78 323 86T361 112T387 160T397 236ZM123 621Q123 644 140 662T183 681Q208 681 225 663T242 621Q242 596 225 578T183 560Q158 560 141
578T123 621ZM310 621Q310 644 328 662T370 681Q396 681 413 663T430 621Q430 596 413 578T370 560Q346 560 328 578T310 621Z" />
<glyph unicode="&#xf7;" glyph-name="divide" horiz-adv-x="543" d="M202 83Q202 109 222 129T270 150Q297 150 317 130T337 83Q337 54 317 35T270 15Q242 15 222 34T202 83ZM202 416Q202 442 222 462T270 483Q297 483 317 463T337 416Q337 387 317 368T270 348Q242
348 222 367T202 416ZM503 284V213H40V284H503Z" />
<glyph unicode="&#xf8;" glyph-name="oslash" horiz-adv-x="558" d="M372 567L425 551L393 461Q449 435 483 381T519 243Q519 184 501 137T451 58T374 8T279 -10Q246 -10 218 -4L190 -89L139 -72L168 11Q110 38 75 92T39 229Q38 289 56 336T107 416T184 466T279
484Q313 484 342 477L372 567ZM277 396Q254 396 234 388T197 362T171 312T161 235Q161 187 174 156T207 107L305 393Q298 394 291 395T277 396ZM397 237Q397 285 385 316T352 365L254 80Q261 78 267 78T281 78Q303 78 324 86T361 112T387 161T397 237Z" />
<glyph unicode="&#xf9;" glyph-name="ugrave" horiz-adv-x="554" d="M373 475H491V0H402L388 55H384Q361 31 323 11T228 -10Q153 -10 108 32T63 158V475H181V170Q181 121 203 101T261 80Q298 80 325 95T373 134V475ZM134 695H257L327 551H240L134 695Z" />
<glyph unicode="&#xfa;" glyph-name="uacute" horiz-adv-x="554" d="M373 475H491V0H402L388 55H384Q361 31 323 11T228 -10Q153 -10 108 32T63 158V475H181V170Q181 121 203 101T261 80Q298 80 325 95T373 134V475ZM312 551H225L295 695H418L312 551Z" />
<glyph unicode="&#xfb;" glyph-name="ucircumflex" horiz-adv-x="554" d="M373 475H491V0H402L388 55H384Q361 31 323 11T228 -10Q153 -10 108 32T63 158V475H181V170Q181 121 203 101T261 80Q298 80 325 95T373 134V475ZM435 551H344L279 630L214 551H119L241
690H315L435 551Z" />
<glyph unicode="&#xfc;" glyph-name="udieresis" horiz-adv-x="554" d="M373 475H491V0H402L388 55H384Q361 31 323 11T228 -10Q153 -10 108 32T63 158V475H181V170Q181 121 203 101T261 80Q298 80 325 95T373 134V475ZM121 621Q121 644 139 662T181 681Q207 681
224 663T241 621Q241 596 224 578T181 560Q157 560 139 578T121 621ZM309 621Q309 644 326 662T369 681Q394 681 411 663T428 621Q428 596 411 578T369 560Q344 560 327 578T309 621Z" />
<glyph unicode="&#xfd;" glyph-name="yacute" horiz-adv-x="500" d="M8 475H136L225 233L258 119H261L293 234L373 475H494L317 -25Q288 -108 239 -168T105 -257L55 -164Q108 -144 145 -108T200 -16L205 1L8 475ZM283 551H196L266 695H389L283 551Z" />
<glyph unicode="&#xfe;" glyph-name="thorn" horiz-adv-x="561" d="M523 236Q523 179 506 134T459 56T389 7T302 -10Q264 -10 235 -2T181 24V-167H64V712H181V430Q238 484 318 484Q413 484 468 419T523 236ZM401 234Q401 309 370 350T284 392Q253 392 227 378T182
342V117Q198 99 220 89T270 78Q295 78 319 87T361 115T390 164T401 234Z" />
<glyph unicode="&#xff;" glyph-name="ydieresis" horiz-adv-x="500" d="M8 475H136L225 233L258 119H261L293 234L373 475H494L317 -25Q288 -108 239 -168T105 -257L55 -164Q108 -144 145 -108T200 -16L205 1L8 475ZM101 621Q101 644 118 662T161 681Q186 681
203 663T220 621Q220 596 203 578T161 560Q136 560 119 578T101 621ZM288 621Q288 644 306 662T348 681Q374 681 391 663T408 621Q408 596 391 578T348 560Q324 560 306 578T288 621Z" />
<glyph unicode="&#x2013;" glyph-name="endash" horiz-adv-x="507" d="M465 264V188H42V264H465Z" />
<glyph unicode="&#x2014;" glyph-name="emdash" horiz-adv-x="920" d="M878 263V188H42V263H878Z" />
<glyph unicode="&#x2018;" glyph-name="quoteleft" horiz-adv-x="220" d="M119 600Q150 594 166 573T183 522Q183 493 164 471T109 449Q95 449 80 454T53 473T33 508T25 562Q25 594 35 623T62 677T102 721T150 755L185 707Q156 691 133 665T103 603L119 600Z" />
<glyph unicode="&#x2019;" glyph-name="quoteright" horiz-adv-x="220" d="M101 604Q70 610 54 631T37 682Q37 711 56 733T112 755Q126 755 141 750T168 731T187 697T195 644Q195 612 185 583T158 528T118 483T70 449L35 497Q64 513 87 539T117 601L101 604Z" />
<glyph unicode="&#x201a;" glyph-name="quotesinglbase" horiz-adv-x="218" d="M95 -8Q65 -3 48 17T30 67Q30 96 50 119T106 142Q120 142 135 137T163 118T184 83T193 30Q193 -2 183 -31T155 -85T115 -130T67 -164L32 -116Q61 -100 84 -74T114 -12L95 -8Z" />
<glyph unicode="&#x201c;" glyph-name="quotedblleft" horiz-adv-x="443" d="M119 600Q150 594 166 573T183 522Q183 493 165 471T110 449Q96 449 81 454T54 473T33 508T25 562Q25 594 35 623T62 677T102 721T150 755L185 707Q156 691 133 665T103 603L119 600ZM342
600Q372 594 388 573T405 522Q405 493 387 471T332 449Q318 449 303 454T276 473T255 508T247 562Q247 594 257 623T285 677T325 721T373 755L408 707Q379 691 356 665T326 603L342 600Z" />
<glyph unicode="&#x201d;" glyph-name="quotedblright" horiz-adv-x="443" d="M101 604Q70 609 54 631T37 682Q37 711 56 733T111 755Q125 755 140 750T167 731T187 697T195 644Q195 612 185 583T158 528T118 483T70 449L35 497Q64 513 87 539T117 601L101 604ZM323
604Q293 609 277 631T260 682Q260 711 279 733T334 755Q348 755 363 750T390 731T410 697T418 644Q418 612 408 583T380 528T340 483T292 449L257 497Q286 513 309 539T339 601L323 604Z" />
<glyph unicode="&#x201e;" glyph-name="quotedblbase" horiz-adv-x="445" d="M95 -8Q65 -3 48 17T30 67Q30 96 50 119T106 142Q120 142 135 137T163 118T184 83T193 30Q193 -2 183 -31T155 -85T115 -130T67 -164L32 -116Q61 -100 84 -74T114 -12L95 -8ZM322 -8Q292
-3 275 17T257 67Q257 96 277 119T333 142Q347 142 362 137T390 118T411 83T420 30Q420 -2 410 -31T383 -85T343 -130T295 -164L260 -116Q289 -100 312 -74T342 -12L322 -8Z" />
<glyph unicode="&#x2022;" glyph-name="bullet" horiz-adv-x="358" d="M49 271Q49 298 59 321T87 363T128 391T179 401Q206 401 229 391T271 363T299 322T309 271Q309 244 299 220T272 179T230 151T179 141Q152 141 129 151T87 178T59 220T49 271Z" />
<glyph unicode="&#x2039;" glyph-name="guilsinglleft" horiz-adv-x="303" d="M174 76L36 236L174 397H270L144 236L270 76H174Z" />
<glyph unicode="&#x203a;" glyph-name="guilsinglright" horiz-adv-x="301" d="M34 76L160 236L34 397H130L268 236L130 76H34Z" />
</font>
</defs>
</svg>
