<?xml version="1.0" standalone="no"?>
<!DOCTYPE svg PUBLIC "-//W3C//DTD SVG 1.1//EN" "http://www.w3.org/Graphics/SVG/1.1/DTD/svg11.dtd">
<svg xmlns="http://www.w3.org/2000/svg">
<defs >
<font id="FiraSansCondensed" horiz-adv-x="479" ><font-face
    font-family="Fira Sans Condensed Thin"
    units-per-em="1000"
    panose-1="2 11 3 3 5 0 0 2 0 4"
    ascent="935"
    descent="-265"
    alphabetic="0" />
<glyph unicode=" " glyph-name="space" horiz-adv-x="265" />
<glyph unicode="!" glyph-name="exclam" horiz-adv-x="226" d="M124 681L123 202H102V681H124ZM123 37T129 31T136 14Q136 5 130 -1T113 -8Q103 -8 97 -2T90 14Q90 24 96 30T113 37Q123 37 129 31Z" />
<glyph unicode="&quot;" glyph-name="quotedbl" horiz-adv-x="315" d="M80 441L77 681H100L97 441H80ZM218 441L215 681H238L235 441H218Z" />
<glyph unicode="#" glyph-name="numbersign" horiz-adv-x="439" d="M426 459H353L322 220H393V200H319L293 0H271L298 200H108L81 0H60L86 200H13V220H89L120 459H46V479H123L147 662H169L145 479H335L359 662H380L356 479H426V459ZM300 220L332 459H142L110 220H300Z" />
<glyph unicode="$" glyph-name="dollar" horiz-adv-x="471" d="M410 99T364 48T242 -9V-146H222V-10Q168 -9 126 11T48 69L62 83Q98 47 136 29T226 10Q298 10 343 56T388 175Q388 222 373 252T324 305T234 347Q172 369 137 392T86 445T70 518Q70 581 112 624T224
671V811H244V671Q291 669 324 652T391 603L377 588Q345 620 311 635T232 650Q169 650 131 613T93 518Q93 479 107 453T153 406T241 366Q332 334 371 293T410 176Q410 99 364 48Z" />
<glyph unicode="%" glyph-name="percent" horiz-adv-x="693" d="M549 695L567 685L152 -15L134 -5L549 695ZM237 673T270 632T304 519Q304 445 272 403T181 361Q126 361 93 402T59 516Q59 589 91 631T181 673Q237 673 270 632ZM132 654T107 617T82 516Q82 454
107 417T181 380Q231 380 256 417T281 519Q281 581 256 617T181 654Q132 654 107 617ZM568 302T601 261T634 148Q634 74 602 32T512 -10Q456 -10 423 31T389 145Q389 219 421 260T512 302Q568 302 601 261ZM462 283T437 246T411 145Q411 83 436 46T512 9Q561 9
586 46T611 148Q611 210 586 246T512 283Q462 283 437 246Z" />
<glyph unicode="&amp;" glyph-name="ampersand" horiz-adv-x="645" d="M335 692T372 652T409 548Q409 491 375 451T261 361L473 140Q496 190 511 240T537 353L558 348Q534 221 487 126L603 5L586 -7L476 107Q439 51 391 21T274 -10Q224 -10 183 12T119 73T96 165Q96
231 128 276T229 365Q176 422 156 457T135 544Q135 609 174 650T275 692Q335 692 372 652ZM222 672T190 636T158 545Q158 515 164 493T189 444T247 376Q321 420 354 458T387 548Q387 606 356 639T275 672Q222 672 190 636ZM180 313T150 269T119 165Q119 97 162
54T274 11Q337 11 381 38T461 121L243 352Q180 313 150 269Z" />
<glyph unicode="&apos;" glyph-name="quotesingle" horiz-adv-x="177" d="M80 441L77 681H100L97 441H80Z" />
<glyph unicode="(" glyph-name="parenleft" horiz-adv-x="293" d="M232 820Q181 737 151 677T102 536T83 350Q83 245 102 165T151 24T232 -120L217 -129Q164 -47 133 15T81 160T61 350Q61 457 81 539T132 684T217 829L232 820Z" />
<glyph unicode=")" glyph-name="parenright" horiz-adv-x="293" d="M128 748T159 685T211 540T231 350Q231 243 211 161T160 15T76 -129L61 -120Q112 -36 141 24T190 164T209 350Q209 455 190 535T142 676T61 820L76 829Q128 748 159 685Z" />
<glyph unicode="*" glyph-name="asterisk" horiz-adv-x="395" d="M348 603L211 557L297 430L279 418L198 546L115 418L98 430L185 556L47 603L54 623L188 571L187 732H208L207 572L341 623L348 603Z" />
<glyph unicode="+" glyph-name="plus" horiz-adv-x="437" d="M230 494V341H367V320H230V167H208V320H70V341H208V494H230Z" />
<glyph unicode="," glyph-name="comma" horiz-adv-x="159" d="M92 37T98 31T104 15Q104 4 95 -18L55 -130H38L73 -6Q66 -4 62 1T58 14Q58 24 64 30T81 37Q92 37 98 31Z" />
<glyph unicode="-" glyph-name="hyphen" horiz-adv-x="359" d="M70 302V323H290V302H70Z" />
<glyph unicode="." glyph-name="period" horiz-adv-x="156" d="M89 37T95 31T101 14Q101 5 95 -1T78 -8Q68 -8 62 -2T55 14Q55 24 61 30T78 37Q89 37 95 31Z" />
<glyph unicode="/" glyph-name="slash" horiz-adv-x="468" d="M328 798L348 792L139 -95L119 -90L328 798Z" />
<glyph unicode="0" glyph-name="zero" horiz-adv-x="493" d="M422 673T422 330Q422 -10 247 -10Q71 -10 71 332Q71 673 247 673Q422 673 422 330ZM171 652T133 574T94 332Q94 168 132 90T247 11Q323 11 361 88T399 330Q399 495 361 573T247 652Q171 652 133 574Z" />
<glyph unicode="1" glyph-name="one" horiz-adv-x="355" d="M233 661V0H211V634L56 525L45 542L216 661H233Z" />
<glyph unicode="2" glyph-name="two" horiz-adv-x="413" d="M264 673T305 628T346 510Q346 443 322 385T244 253T63 22H360L355 0H36V21Q163 177 219 255T299 389T323 509Q323 574 289 613T194 652Q148 652 113 632T49 572L32 583Q67 629 105 651T194 673Q264
673 305 628Z" />
<glyph unicode="3" glyph-name="three" horiz-adv-x="428" d="M265 673T306 629T348 511Q348 441 313 402T221 353Q285 349 324 306T364 183Q364 96 317 43T190 -10Q137 -10 99 10T25 73L41 84Q74 44 108 27T189 10Q259 10 300 57T342 182Q342 262 300 302T185
342H151L153 362H184Q220 362 252 378T305 428T326 511Q326 576 291 614T195 653Q155 653 122 638T55 588L42 600Q75 637 112 655T195 673Q265 673 306 629Z" />
<glyph unicode="4" glyph-name="four" horiz-adv-x="454" d="M418 207V187H335V0H313V187H46V205L231 673L250 666L69 207H313L316 418H335V207H418Z" />
<glyph unicode="5" glyph-name="five" horiz-adv-x="427" d="M351 641H100V376Q148 415 211 415Q287 415 330 362T374 214Q374 113 327 52T196 -10Q102 -10 38 65L55 78Q83 45 117 28T197 11Q269 11 310 66T351 214Q351 302 313 348T209 394Q175 394 150 385T96
354H79V661H356L351 641Z" />
<glyph unicode="6" glyph-name="six" horiz-adv-x="466" d="M326 427T368 375T410 222Q410 110 367 50T249 -10Q157 -10 114 71T71 288Q71 408 95 494T165 627T275 673Q305 673 328 664T375 636L362 620Q342 636 321 644T274 652Q190 652 143 560T93 312Q158 427
257 427Q326 427 368 375ZM316 11T352 67T388 221Q388 313 353 359T257 406Q205 406 164 372T93 278Q95 152 132 82T249 11Q316 11 352 67Z" />
<glyph unicode="7" glyph-name="seven" horiz-adv-x="390" d="M351 661V643L104 -6L83 2L328 641H34V661H351Z" />
<glyph unicode="8" glyph-name="eight" horiz-adv-x="476" d="M356 311T387 273T419 167Q419 85 370 38T238 -10Q155 -10 106 38T57 168Q57 305 198 362Q137 390 111 424T84 513Q84 563 105 599T161 654T239 673Q304 673 349 632T394 512Q394 457 367 419T279
346Q356 311 387 273ZM106 462T130 432T221 371L262 353Q320 387 345 423T371 511Q371 581 335 617T239 653Q182 653 144 616T106 512Q106 462 130 432ZM310 11T353 51T397 167Q397 212 382 241T337 292T254 337L218 352Q146 322 113 279T80 168Q80 92 123 52T238
11Q310 11 353 51Z" />
<glyph unicode="9" glyph-name="nine" horiz-adv-x="459" d="M312 673T353 604T394 397Q394 276 362 197T268 68T113 -15L106 3Q191 34 248 78T336 191T372 362Q309 255 214 255Q143 255 99 309T55 459Q55 560 102 616T225 673Q312 673 353 604ZM264 276T301 305T372
394Q371 524 337 588T226 652Q157 652 118 603T78 458Q78 372 115 324T215 276Q264 276 301 305Z" />
<glyph unicode=":" glyph-name="colon" horiz-adv-x="156" d="M89 37T95 31T101 14Q101 5 95 -1T78 -8Q68 -8 62 -2T55 14Q55 24 61 30T78 37Q89 37 95 31ZM89 452T95 446T101 429Q101 420 95 414T78 407Q68 407 62 413T55 429Q55 439 61 445T78 452Q89 452 95 446Z" />
<glyph unicode=";" glyph-name="semicolon" horiz-adv-x="159" d="M92 37T98 31T104 15Q104 4 95 -18L55 -130H38L73 -6Q66 -4 62 1T58 14Q58 24 64 30T81 37Q92 37 98 31ZM89 452T95 446T101 429Q101 420 95 414T78 407Q68 407 62 413T55 429Q55 439 61 445T78
452Q89 452 95 446Z" />
<glyph unicode="&lt;" glyph-name="less" horiz-adv-x="445" d="M365 503L375 485L92 333L375 177L365 159L70 325V341L365 503Z" />
<glyph unicode="=" glyph-name="equal" horiz-adv-x="437" d="M70 399V420H367V399H70ZM70 497V518H367V497H70Z" />
<glyph unicode="&gt;" glyph-name="greater" horiz-adv-x="445" d="M80 503L375 341V325L80 159L70 177L352 333L70 485L80 503Z" />
<glyph unicode="?" glyph-name="question" horiz-adv-x="404" d="M275 691T313 653T351 555Q351 521 340 497T314 457T271 418Q243 396 226 379T198 335T186 271V202H165V273Q165 313 177 341T206 388T252 428Q291 458 310 484T329 555Q329 607 297 639T211 671Q166
671 134 653T69 594L53 606Q87 650 125 670T211 691Q275 691 313 653ZM186 37T192 31T199 14Q199 5 193 -1T176 -8Q166 -8 160 -2T153 14Q153 24 159 30T176 37Q186 37 192 31Z" />
<glyph unicode="@" glyph-name="at" horiz-adv-x="923" d="M590 692T670 641T791 502T832 309Q832 152 789 84T683 15Q640 15 613 46T577 133Q533 17 442 17Q377 17 336 72T295 232Q295 314 319 369T383 450T474 477Q533 477 593 444V184Q593 110 616 72T683 34Q738
34 773 96T809 308Q809 411 771 493T657 623T477 671Q371 671 289 614T161 459T115 242Q115 110 160 16T287 -127T475 -176Q564 -176 641 -144L647 -164Q607 -180 566 -188T475 -197Q364 -197 277 -146T141 5T92 242Q92 367 140 469T276 632T477 692Q590 692 670
641ZM489 37T522 73T571 168V432Q521 456 475 456Q404 456 361 398T318 232Q318 137 352 87T443 37Q489 37 522 73Z" />
<glyph unicode="A" glyph-name="A" horiz-adv-x="509" d="M458 0L396 203H112L50 0H28L240 681H268L481 0H458ZM119 224H389L254 663L119 224Z" />
<glyph unicode="B" glyph-name="B" horiz-adv-x="529" d="M387 356T430 312T474 184Q474 93 419 47T264 0H110V681H233Q334 681 388 638T443 513Q443 449 410 411T317 361Q387 356 430 312ZM133 660V370H272Q340 370 379 409T419 512Q419 585 373 622T236 660H133ZM353
21T402 61T451 184Q451 265 405 307T277 350H133V21H265Q353 21 402 61Z" />
<glyph unicode="C" glyph-name="C" horiz-adv-x="485" d="M357 691T391 677T455 633L443 618Q411 645 382 657T311 670Q213 670 153 589T93 340Q93 232 121 159T197 49T309 12Q355 12 386 26T449 69L463 53Q396 -10 308 -10Q238 -10 184 29T100 147T70 340Q70
457 101 536T186 653T310 691Q357 691 391 677Z" />
<glyph unicode="D" glyph-name="D" horiz-adv-x="559" d="M339 681T414 610T489 348Q489 155 413 78T224 0H110V681H220Q339 681 414 610ZM133 660V21H225Q329 21 397 93T465 348Q465 530 397 595T219 660H133Z" />
<glyph unicode="E" glyph-name="E" horiz-adv-x="446" d="M400 681L397 660H133V370H361V349H133V21H407V0H110V681H400Z" />
<glyph unicode="F" glyph-name="F" horiz-adv-x="425" d="M110 0V681H396L393 660H133V356H357V335H133V0H110Z" />
<glyph unicode="G" glyph-name="G" horiz-adv-x="546" d="M360 691T395 677T466 632L452 616Q419 644 387 657T314 670Q256 670 206 637T125 531T93 345Q93 177 152 95T317 12Q360 12 393 22T458 53V333H328L325 354H480V41Q403 -10 318 -10Q203 -10 137 79T70
345Q70 462 104 540T194 654T314 691Q360 691 395 677Z" />
<glyph unicode="H" glyph-name="H" horiz-adv-x="594" d="M462 0V349H133V0H110V681H133V370H462V681H484V0H462Z" />
<glyph unicode="I" glyph-name="I" horiz-adv-x="243" d="M133 681V0H110V681H133Z" />
<glyph unicode="J" glyph-name="J" horiz-adv-x="251" d="M146 87Q146 35 137 3T102 -52T27 -100L20 -84Q63 -62 84 -40T114 11T123 89V681H146V87Z" />
<glyph unicode="K" glyph-name="K" horiz-adv-x="467" d="M133 681V0H110V681H133ZM444 681L163 367L458 0H432L136 367L418 681H444Z" />
<glyph unicode="L" glyph-name="L" horiz-adv-x="411" d="M133 681V22H392L388 0H110V681H133Z" />
<glyph unicode="M" glyph-name="M" horiz-adv-x="688" d="M617 0H596L561 345L531 660L355 84H332L153 660Q150 611 129 407Q128 387 124 354L92 0H70L136 681H169L344 112L517 681H550L617 0Z" />
<glyph unicode="N" glyph-name="N" horiz-adv-x="596" d="M486 0H457L129 655Q132 604 132 477V0H110V681H139L467 26Q464 146 464 205V681H486V0Z" />
<glyph unicode="O" glyph-name="O" horiz-adv-x="620" d="M422 691T486 602T551 340Q551 171 488 81T310 -10Q237 -10 183 30T100 148T70 339Q70 452 100 531T184 650T310 691Q422 691 486 602ZM210 670T152 586T93 339Q93 179 151 96T310 12Q414 12 470 95T527
340Q527 504 470 587T310 670Q210 670 152 586Z" />
<glyph unicode="P" glyph-name="P" horiz-adv-x="501" d="M337 681T394 634T452 484Q452 379 391 331T214 282H133V0H110V681H218Q337 681 394 634ZM321 303T375 345T429 483Q429 577 378 618T218 660H133V303H216Q321 303 375 345Z" />
<glyph unicode="Q" glyph-name="Q" horiz-adv-x="620" d="M435 4T483 -11T568 -63L552 -81Q507 -39 453 -24T310 -8Q199 -8 135 81T70 339Q70 452 100 531T184 650T310 691Q422 691 486 602T551 340Q551 188 504 107T373 6Q435 4 483 -11ZM93 179T151 96T310 12Q414
12 470 95T527 340Q527 504 470 587T310 670Q210 670 152 586T93 339Q93 179 151 96Z" />
<glyph unicode="R" glyph-name="R" horiz-adv-x="516" d="M451 0L281 325L262 324H133V0H110V681H236Q347 681 397 636T448 504Q448 429 410 385T305 329L477 0H451ZM332 345T378 384T425 504Q425 581 381 620T233 660H133V345H248Q332 345 378 384Z" />
<glyph unicode="S" glyph-name="S" horiz-adv-x="483" d="M292 691T329 674T402 622L387 607Q353 640 319 655T239 670Q174 670 134 632T94 534Q94 494 108 467T156 419T247 377Q340 345 380 303T421 182Q421 127 397 84T330 15T232 -10Q175 -10 131 11T48 72L63
86Q100 49 138 31T231 12Q306 12 352 59T398 181Q398 229 382 261T333 315T239 358Q146 391 109 430T71 534Q71 577 92 613T151 670T239 691Q292 691 329 674Z" />
<glyph unicode="T" glyph-name="T" horiz-adv-x="429" d="M418 681L414 660H226V0H203V660H15V681H418Z" />
<glyph unicode="U" glyph-name="U" horiz-adv-x="575" d="M475 188Q475 99 429 45T288 -10Q193 -10 147 44T100 188V681H123V190Q123 108 163 60T288 12Q372 12 412 60T452 190V681H475V188Z" />
<glyph unicode="V" glyph-name="V" horiz-adv-x="488" d="M460 681L258 0H230L28 681H51L245 22L437 681H460Z" />
<glyph unicode="W" glyph-name="W" horiz-adv-x="717" d="M681 681L538 0H511L358 659L206 0H179L36 681H59L193 24L344 681H372L525 24L658 681H681Z" />
<glyph unicode="X" glyph-name="X" horiz-adv-x="438" d="M231 370L424 0H400L217 355L38 0H14L203 369L36 681H61L217 384L372 681H396L231 370Z" />
<glyph unicode="Y" glyph-name="Y" horiz-adv-x="446" d="M427 681L236 271V0H213V270L19 681H43L225 292L403 681H427Z" />
<glyph unicode="Z" glyph-name="Z" horiz-adv-x="459" d="M414 681V662L62 22H402L399 0H37V21L389 660H71V681H414Z" />
<glyph unicode="[" glyph-name="bracketleft" horiz-adv-x="281" d="M208 796V778H112V-88H208V-106H91V796H208Z" />
<glyph unicode="\" glyph-name="backslash" horiz-adv-x="468" d="M139 798L348 -90L328 -95L119 793L139 798Z" />
<glyph unicode="]" glyph-name="bracketright" horiz-adv-x="281" d="M190 796V-106H74V-88H170V778H74V796H190Z" />
<glyph unicode="^" glyph-name="asciicircum" horiz-adv-x="473" d="M243 823L403 527H376L235 796L94 527H67L227 823H243Z" />
<glyph unicode="_" glyph-name="underscore" horiz-adv-x="471" d="M39 -100V-79H432V-100H39Z" />
<glyph unicode="`" glyph-name="grave" horiz-adv-x="229" d="M45 760L203 669L194 654L33 738L45 760Z" />
<glyph unicode="a" glyph-name="a" horiz-adv-x="476" d="M371 57T380 36T412 6L407 -10Q378 0 365 22T351 89Q325 39 289 15T201 -10Q135 -10 97 32T59 144Q59 223 109 265T248 308H349V374Q349 441 322 475T232 509Q171 509 101 477L93 495Q167 529 232 529Q371
529 371 376V102Q371 57 380 36ZM300 11T349 121V288H251Q169 288 126 252T83 144Q83 82 114 47T201 11Q300 11 349 121Z" />
<glyph unicode="b" glyph-name="b" horiz-adv-x="511" d="M359 529T401 462T444 264Q444 132 400 61T272 -10Q226 -10 189 15T127 80L125 0H105V733L127 736V435Q188 529 278 529Q359 529 401 462ZM345 11T383 75T421 264Q421 509 277 509Q229 509 195 484T127
409V107Q186 11 271 11Q345 11 383 75Z" />
<glyph unicode="c" glyph-name="c" horiz-adv-x="415" d="M293 529T321 517T377 479L364 464Q341 487 315 498T256 509Q179 509 134 445T88 257Q88 135 133 73T255 11Q319 11 369 58L382 44Q326 -10 256 -10Q169 -10 117 59T65 257Q65 387 116 458T256 529Q293
529 321 517Z" />
<glyph unicode="d" glyph-name="d" horiz-adv-x="515" d="M410 733V0H390L388 88Q338 -10 241 -10Q161 -10 114 60T67 258Q67 382 116 455T250 529Q338 529 388 446V736L410 733ZM294 11T328 39T388 124V415Q338 509 250 509Q177 509 134 443T90 258Q91 139 131
75T242 11Q294 11 328 39Z" />
<glyph unicode="e" glyph-name="e" horiz-adv-x="476" d="M416 268T414 246H88Q90 128 134 70T253 11Q292 11 321 24T383 66L396 51Q363 21 330 6T253 -10Q166 -10 116 59T65 255Q65 386 114 457T246 529Q330 529 373 464T416 284Q416 268 414 246ZM394 273T394
292Q394 393 357 451T247 509Q177 509 134 448T88 265H393Q394 273 394 292Z" />
<glyph unicode="f" glyph-name="f" horiz-adv-x="277" d="M179 716T155 693T130 620V519H262L259 499H130V0H108V499H28V519H108V623Q108 677 139 707T221 737Q275 737 326 706L316 689Q270 716 223 716Q179 716 155 693Z" />
<glyph unicode="g" glyph-name="g" horiz-adv-x="440" d="M425 526Q377 512 287 511Q332 495 356 456T381 356Q381 278 338 234T221 190Q189 190 154 204Q108 174 108 129Q108 63 202 63H269Q338 63 376 31T414 -57Q414 -122 367 -159T226 -197Q127 -197 83 -165T39
-58H60Q62 -123 99 -149T226 -176Q310 -176 350 -145T391 -58Q391 -10 359 16T268 43H200Q144 43 115 65T86 126Q86 176 137 212Q58 256 58 358Q58 437 102 483T220 529Q312 529 348 533T418 550L425 526ZM153 509T117 469T81 358Q81 287 120 249T221 210Q286 210
322 247T358 356Q358 428 322 468T220 509Q153 509 117 469Z" />
<glyph unicode="h" glyph-name="h" horiz-adv-x="524" d="M360 529T391 489T423 375V0H401V372Q401 439 375 474T296 509Q244 509 203 477T127 382V0H105V733L127 736V412Q197 529 298 529Q360 529 391 489Z" />
<glyph unicode="i" glyph-name="i" horiz-adv-x="233" d="M127 519V0H105V519H127ZM125 724T130 718T136 704Q136 696 131 691T116 685Q107 685 102 690T96 704Q96 712 101 718T116 724Q125 724 130 718Z" />
<glyph unicode="j" glyph-name="j" horiz-adv-x="233" d="M128 -11Q128 -65 117 -98T85 -152T25 -195L18 -179Q52 -159 70 -140T97 -90T106 -10V519H128V-11ZM125 724T130 718T136 704Q136 696 131 691T116 685Q107 685 102 690T96 704Q96 712 101 718T116 724Q125
724 130 718Z" />
<glyph unicode="k" glyph-name="k" horiz-adv-x="418" d="M127 736V0H105V733L127 736ZM380 519L160 284L403 0H376L133 284L354 519H380Z" />
<glyph unicode="l" glyph-name="l" horiz-adv-x="249" d="M136 -10T118 9T100 66V733L122 736V66Q122 39 134 25T168 10Q185 10 203 18L210 0Q186 -10 167 -10Q136 -10 118 9Z" />
<glyph unicode="m" glyph-name="m" horiz-adv-x="763" d="M602 529T632 488T663 375V0H641V372Q641 438 617 473T545 509Q458 509 395 384V0H373V374Q373 438 349 473T277 509Q192 509 127 384V0H105V519H125L127 416Q155 469 193 499T278 529Q326 529 356 499T393
413Q455 529 546 529Q602 529 632 488Z" />
<glyph unicode="n" glyph-name="n" horiz-adv-x="524" d="M360 529T391 489T423 375V0H401V372Q401 509 296 509Q244 509 203 476T127 382V0H105V519H125L127 413Q195 529 298 529Q360 529 391 489Z" />
<glyph unicode="o" glyph-name="o" horiz-adv-x="505" d="M341 529T390 461T440 262Q440 130 390 60T252 -10Q164 -10 115 60T65 259Q65 390 115 459T253 529Q341 529 390 461ZM176 509T132 446T88 259Q88 138 131 75T252 11Q330 11 373 74T417 262Q417 384 374
446T253 509Q176 509 132 446Z" />
<glyph unicode="p" glyph-name="p" horiz-adv-x="511" d="M358 529T401 462T444 264Q444 133 400 62T273 -10Q226 -10 189 14T127 79V-192L105 -196V519H125L127 436Q186 529 278 529Q358 529 401 462ZM344 11T382 75T421 264Q421 386 385 447T278 509Q230 509
195 484T127 409V108Q187 11 272 11Q344 11 382 75Z" />
<glyph unicode="q" glyph-name="q" horiz-adv-x="515" d="M410 519V-196L388 -192V85Q338 -10 242 -10Q161 -10 114 60T67 258Q67 382 115 455T249 529Q340 529 389 446L391 519H410ZM293 11T328 39T388 120V417Q336 509 250 509Q177 509 134 443T90 258Q91 140
131 76T242 11Q293 11 328 39Z" />
<glyph unicode="r" glyph-name="r" horiz-adv-x="327" d="M289 529T311 523L307 504Q289 510 266 510Q214 510 182 471T127 346V0H105V519H125L126 395Q146 464 180 496T267 529Q289 529 311 523Z" />
<glyph unicode="s" glyph-name="s" horiz-adv-x="414" d="M248 529T281 516T346 474L333 458Q303 485 275 497T207 509Q154 509 120 480T86 401Q86 358 114 333T213 284Q294 257 326 226T359 134Q359 70 316 30T205 -10Q154 -10 117 7T47 56L60 70Q93 40 125 25T205
10Q263 10 299 43T336 134Q336 170 324 193T284 232T202 267Q127 292 96 322T64 401Q64 457 105 493T206 529Q248 529 281 516Z" />
<glyph unicode="t" glyph-name="t" horiz-adv-x="293" d="M294 20Q250 -10 203 -10Q155 -10 128 20T100 105V499H23V519H100V650L122 652V519H251L248 499H122V107Q122 61 143 36T204 11Q243 11 284 36L294 20Z" />
<glyph unicode="u" glyph-name="u" horiz-adv-x="519" d="M414 0H394L393 104Q367 52 327 21T233 -10Q171 -10 136 29T101 141V519H123V143Q123 78 152 45T235 11Q286 11 324 43T392 133V519H414V0Z" />
<glyph unicode="v" glyph-name="v" horiz-adv-x="409" d="M386 519L223 0H195L23 519H47L208 19L363 519H386Z" />
<glyph unicode="w" glyph-name="w" horiz-adv-x="619" d="M587 519L465 0H435L310 497L186 0H156L32 519H55L171 22L297 519H325L450 21L565 519H587Z" />
<glyph unicode="x" glyph-name="x" horiz-adv-x="396" d="M210 279L378 0H352L197 265L43 0H18L184 278L41 519H65L197 291L331 519H355L210 279Z" />
<glyph unicode="y" glyph-name="y" horiz-adv-x="405" d="M220 -1Q201 -63 182 -98T134 -156T55 -195L52 -177Q98 -162 124 -141T165 -89T200 0H191L23 519H46L206 18L359 519H383L220 -1Z" />
<glyph unicode="z" glyph-name="z" horiz-adv-x="370" d="M337 519V501L54 21H331L329 0H28V18L312 499H52V519H337Z" />
<glyph unicode="{" glyph-name="braceleft" horiz-adv-x="295" d="M220 800Q182 800 165 780T148 714V436Q148 393 131 374T79 349Q115 344 131 325T148 262V-16Q148 -60 165 -81T220 -102V-120Q127 -120 127 -17V266Q127 304 109 321T57 338V360Q91 360 109 377T127
432V716Q127 818 220 818V800Z" />
<glyph unicode="|" glyph-name="bar" horiz-adv-x="371" d="M196 801V-98H175V801H196Z" />
<glyph unicode="}" glyph-name="braceright" horiz-adv-x="295" d="M167 818T167 716V432Q167 394 185 377T238 360V338Q203 338 185 321T167 266V-17Q167 -120 75 -120V-102Q113 -102 130 -81T147 -16V262Q147 305 163 324T216 349Q181 355 164 374T147 436V714Q147
759 130 779T75 800V818Q167 818 167 716Z" />
<glyph unicode="~" glyph-name="asciitilde" horiz-adv-x="412" d="M259 280T243 287T203 309Q180 323 167 329T140 335Q120 335 108 325T78 293L63 302Q79 328 97 342T140 356Q157 356 173 349T212 328Q235 314 248 308T276 302Q295 302 307 312T334 343L350
335Q334 308 318 294T276 280Q259 280 243 287Z" />
<glyph unicode="&#xa0;" glyph-name="uni00A0" horiz-adv-x="266" />
<glyph unicode="&#xa1;" glyph-name="exclamdown" horiz-adv-x="226" d="M123 453T129 446T136 430Q136 420 130 414T113 407Q103 407 97 413T90 430Q90 439 96 446T113 453Q123 453 129 446ZM123 252L124 -192H102L103 252H123Z" />
<glyph unicode="&#xa2;" glyph-name="cent" horiz-adv-x="415" d="M329 -7T263 -10V-146H243V-10Q161 -5 113 64T65 257Q65 383 113 453T245 529V676H264V529Q298 527 325 516T377 479L364 464Q341 487 315 498T256 509Q179 509 134 445T88 257Q88 135 133 73T255
11Q319 11 369 58L382 44Q329 -7 263 -10Z" />
<glyph unicode="&#xa3;" glyph-name="sterling" horiz-adv-x="450" d="M152 89T137 64T86 21H391L389 0H56V21Q97 42 113 66T130 135V343H74V364H130V509Q130 581 166 627T270 673Q311 673 342 657T400 606L385 593Q361 623 334 638T270 653Q213 653 183 614T152
509V364H346V343H152V137Q152 89 137 64Z" />
<glyph unicode="&#xa4;" glyph-name="currency" horiz-adv-x="504" d="M426 120L355 198Q312 161 252 161Q191 161 150 199L79 120L64 133L136 212Q95 262 95 340Q95 418 135 466L63 546L78 559L148 481Q190 520 252 520Q314 520 355 482L425 559L440 546L369
467Q409 418 409 340Q409 262 369 213L441 133L426 120ZM117 266T153 223T252 180Q316 180 351 223T387 340Q387 414 352 457T252 501Q188 501 153 458T117 340Q117 266 153 223Z" />
<glyph unicode="&#xa5;" glyph-name="yen" horiz-adv-x="438" d="M420 661L240 329H351V308H231V190H351V168H231V0H209V168H90V190H209V308H90V329H200L19 661H44L220 331L395 661H420Z" />
<glyph unicode="&#xa6;" glyph-name="brokenbar" horiz-adv-x="371" d="M196 801V443H175V801H196ZM196 262V-98H175V262H196Z" />
<glyph unicode="&#xa7;" glyph-name="section" d="M345 141T357 119T369 62Q369 5 330 -29T230 -64Q188 -64 155 -53T91 -20L104 -3Q157 -43 230 -43Q284 -43 315 -14T347 61Q347 90 338 109T303 144T230 178Q176 199 147 216T104 259T89 322Q89 359 107 390T165
451Q136 469 124 491T112 547Q112 603 150 637T247 672Q286 672 315 662T376 629L365 612Q336 633 309 642T247 652Q197 652 166 623T135 548Q135 519 145 500T181 465T258 430Q330 402 360 370T390 286Q390 247 372 216T317 159Q345 141 357 119ZM111 290T122
270T159 233T236 197Q280 180 301 169Q336 193 351 220T367 286Q367 330 343 357T251 411Q203 430 181 442Q144 415 128 386T111 322Q111 290 122 270Z" />
<glyph unicode="&#xa8;" glyph-name="dieresis" horiz-adv-x="250" d="M61 712T66 707T72 692Q72 684 67 679T52 673Q44 673 39 678T33 692Q33 700 38 706T52 712Q61 712 66 707ZM212 712T217 706T223 692Q223 684 218 679T203 673Q194 673 189 678T183 692Q183
700 188 706T203 712Q212 712 217 706Z" />
<glyph unicode="&#xa9;" glyph-name="copyright" horiz-adv-x="728" d="M437 722T494 687T583 587T616 435Q616 349 584 284T494 183T364 148Q292 148 235 183T146 283T113 435Q113 521 145 586T235 686T364 722Q437 722 494 687ZM298 701T246 669T164 576T134
435Q134 353 163 293T245 201T365 169Q431 169 483 201T564 294T594 435Q594 517 565 577T484 669T365 701Q298 701 246 669ZM389 606T407 599T443 577L432 562Q417 574 402 580T363 586Q325 586 296 551T266 437Q266 359 293 322T365 285Q390 285 407 292T441
313L451 297Q413 265 364 265Q310 265 277 309T244 437Q244 495 261 533T306 588T363 606Q389 606 407 599Z" />
<glyph unicode="&#xaa;" glyph-name="ordfeminine" horiz-adv-x="456" d="M313 517V567Q313 614 292 637T220 661Q176 661 117 637L111 656Q170 681 221 681Q280 681 307 653T335 570V358Q335 327 342 313T368 292L363 277Q338 285 327 300T316 347Q275 277 196
277Q143 277 113 308T82 393Q82 452 122 484T230 517H313ZM237 297T265 317T313 374V496H232Q171 496 139 471T106 393Q106 348 130 323T197 297Q237 297 265 317ZM82 21H379V0H82V21Z" />
<glyph unicode="&#xab;" glyph-name="guillemotleft" horiz-adv-x="496" d="M219 503L234 494L107 288L235 83L220 74L83 281V295L219 503ZM397 503L412 494L285 288L413 83L398 74L261 281V295L397 503Z" />
<glyph unicode="&#xac;" glyph-name="logicalnot" horiz-adv-x="446" d="M376 331V198H353V310H70V331H376Z" />
<glyph unicode="&#xad;" glyph-name="uni00AD" horiz-adv-x="359" d="M70 302V323H290V302H70Z" />
<glyph unicode="&#xae;" glyph-name="registered" horiz-adv-x="574" d="M344 721T390 694T462 617T488 502Q488 437 463 386T391 307T287 278Q230 278 184 305T112 382T85 498Q85 562 111 613T183 692T287 721Q344 721 390 694ZM340 297T381 323T445 395T469
502Q469 562 446 607T381 677T287 702Q234 702 193 676T129 604T105 498Q105 437 128 392T193 322T287 297Q340 297 381 323ZM367 502T310 489L377 369H352L289 487H241V369H220V638H275Q320 638 343 619T367 562Q367 502 310 489ZM241 506H288Q346 506 346 562Q346
618 278 618H241V506Z" />
<glyph unicode="&#xaf;" glyph-name="overscore" horiz-adv-x="249" d="M222 685H33V706H222V685Z" />
<glyph unicode="&#xb0;" glyph-name="degree" horiz-adv-x="459" d="M145 411T110 449T74 552Q74 615 110 653T197 691Q252 691 286 653T321 551Q321 487 287 449T197 411Q145 411 110 449ZM244 431T271 463T299 551Q299 607 272 639T197 671Q153 671 125 639T97
552Q97 497 125 464T197 431Q244 431 271 463Z" />
<glyph unicode="&#xb1;" glyph-name="plusminus" horiz-adv-x="437" d="M70 0V21H367V0H70ZM230 494V341H367V320H230V167H208V320H70V341H208V494H230Z" />
<glyph unicode="&#xb2;" glyph-name="uni00B2" horiz-adv-x="360" d="M225 738T252 709T279 634Q279 591 264 556T216 480T100 343H290L286 322H75V342Q157 436 192 481T241 560T256 633Q256 673 236 695T178 718Q125 718 87 670L71 682Q94 711 120 724T178 738Q225
738 252 709Z" />
<glyph unicode="&#xb3;" glyph-name="uni00B3" horiz-adv-x="360" d="M227 740T255 712T283 639Q283 597 260 572T201 541Q240 539 266 512T292 436Q292 383 260 349T174 315Q109 315 67 368L81 379Q102 355 124 345T174 335Q220 335 245 362T271 435Q271 483
246 506T177 530H154L156 549H175Q210 549 235 571T261 638Q261 676 239 698T180 720Q154 720 133 711T89 681L77 694Q100 717 124 728T181 740Q227 740 255 712Z" />
<glyph unicode="&#xb4;" glyph-name="acute" horiz-adv-x="229" d="M191 760L202 738L41 654L33 669L191 760Z" />
<glyph unicode="&#xb5;" glyph-name="uni00B5" horiz-adv-x="525" d="M417 -5Q406 32 401 58T393 122Q332 -10 232 -10Q148 -10 124 71Q127 20 127 -64V-192L105 -194V519H127V142Q127 74 156 43T232 11Q329 11 390 151V519H412V170Q412 118 418 78T437 -3L417 -5Z" />
<glyph unicode="&#xb6;" glyph-name="paragraph" horiz-adv-x="619" d="M468 681V-192L446 -196V661H319V-192L297 -196V306Q195 309 149 360T103 494Q103 583 155 632T300 681H468Z" />
<glyph unicode="&#xb7;" glyph-name="middot" horiz-adv-x="156" d="M89 349T95 343T101 326Q101 317 95 311T78 304Q68 304 62 310T55 326Q55 336 61 342T78 349Q89 349 95 343Z" />
<glyph unicode="&#xb8;" glyph-name="cedilla" horiz-adv-x="199" d="M90 -74Q172 -80 172 -141Q172 -175 150 -193T95 -212Q60 -212 33 -194L43 -178Q65 -193 95 -193Q119 -193 134 -180T150 -141Q150 -115 131 -103T69 -90L75 9H91L90 -74Z" />
<glyph unicode="&#xb9;" glyph-name="uni00B9" horiz-adv-x="360" d="M218 732V322H197V708L98 643L88 658L201 732H218Z" />
<glyph unicode="&#xba;" glyph-name="ordmasculine" horiz-adv-x="452" d="M298 681T337 631T377 481Q377 382 336 330T224 277Q153 277 113 329T73 479Q73 577 114 629T226 681Q298 681 337 631ZM165 661T131 616T96 479Q96 389 130 343T225 297Q287 297 321
343T355 481Q355 571 322 616T226 661Q165 661 131 616ZM77 0V21H374V0H77Z" />
<glyph unicode="&#xbb;" glyph-name="guillemotright" horiz-adv-x="492" d="M98 503L235 295V281L97 74L83 83L210 288L83 494L98 503ZM272 503L409 295V281L271 74L257 83L384 288L257 494L272 503Z" />
<glyph unicode="&#xbc;" glyph-name="onequarter" horiz-adv-x="804" d="M218 681V271H197V657L98 592L88 607L201 681H218ZM576 742L594 734L228 -66L210 -58L576 742ZM746 132V112H693V0H673V112H500V130L619 418L637 411L521 132H673L675 259H693V132H746Z" />
<glyph unicode="&#xbd;" glyph-name="onehalf" horiz-adv-x="804" d="M218 681V271H197V657L98 592L88 607L201 681H218ZM576 742L594 734L228 -66L210 -58L576 742ZM669 416T696 387T723 312Q723 269 708 234T660 158T544 21H734L730 0H519V20Q601 114 636 159T685
238T700 311Q700 351 680 373T622 396Q569 396 531 348L515 360Q538 389 564 402T622 416Q669 416 696 387Z" />
<glyph unicode="&#xbe;" glyph-name="threequarters" horiz-adv-x="804" d="M227 689T255 661T283 588Q283 546 260 521T201 490Q240 488 266 461T292 385Q292 332 260 298T174 264Q109 264 67 317L81 328Q102 304 124 294T174 284Q220 284 245 311T271 384Q271
432 246 455T177 479H154L156 498H175Q210 498 235 520T261 587Q261 625 239 647T180 669Q154 669 133 660T89 630L77 643Q100 666 124 677T181 689Q227 689 255 661ZM576 742L594 734L228 -66L210 -58L576 742ZM746 132V112H693V0H673V112H500V130L619 418L637
411L521 132H673L675 259H693V132H746Z" />
<glyph unicode="&#xbf;" glyph-name="questiondown" horiz-adv-x="404" d="M218 407T212 413T205 430Q205 439 211 446T228 453Q238 453 244 446T251 430Q251 420 245 414T228 407Q218 407 212 413ZM130 -197T92 -159T53 -65Q53 -17 73 11T134 72Q176 105 197
134T218 215V252H239V212Q239 173 227 146T198 101T153 61Q126 40 112 25T87 -12T76 -65Q76 -113 108 -144T193 -176Q238 -176 271 -158T335 -99L351 -112Q317 -155 280 -176T193 -197Q130 -197 92 -159Z" />
<glyph unicode="&#xc0;" glyph-name="Agrave" horiz-adv-x="509" d="M458 0L396 203H112L50 0H28L240 681H268L481 0H458ZM119 224H389L254 663L119 224ZM184 859L340 778L333 763L172 837L184 859Z" />
<glyph unicode="&#xc1;" glyph-name="Aacute" horiz-adv-x="509" d="M458 0L396 203H112L50 0H28L240 681H268L481 0H458ZM119 224H389L254 663L119 224ZM327 859L338 837L177 764L170 779L327 859Z" />
<glyph unicode="&#xc2;" glyph-name="Acircumflex" horiz-adv-x="509" d="M458 0L396 203H112L50 0H28L240 681H268L481 0H458ZM119 224H389L254 663L119 224ZM151 767L140 779L248 869H260L369 779L358 767L254 846L151 767Z" />
<glyph unicode="&#xc3;" glyph-name="Atilde" horiz-adv-x="509" d="M458 0L396 203H112L50 0H28L240 681H268L481 0H458ZM119 224H389L254 663L119 224ZM293 804T280 810T247 828Q232 838 222 843T202 848Q187 848 175 840T149 813L135 821Q151 844 167 855T202
867Q214 867 225 862T255 846Q272 835 283 830T308 824Q323 824 335 833T361 864L375 857Q360 829 344 817T308 804Q293 804 280 810Z" />
<glyph unicode="&#xc4;" glyph-name="Adieresis" horiz-adv-x="509" d="M458 0L396 203H112L50 0H28L240 681H268L481 0H458ZM119 224H389L254 663L119 224ZM191 838T196 833T202 818Q202 810 197 805T182 799Q174 799 169 804T163 818Q163 826 168 832T182 838Q191
838 196 833ZM342 838T347 832T353 818Q353 810 348 805T333 799Q324 799 319 804T313 818Q313 826 318 832T333 838Q342 838 347 832Z" />
<glyph unicode="&#xc5;" glyph-name="Aring" horiz-adv-x="509" d="M458 0L396 203H112L50 0H28L240 681H268L481 0H458ZM119 224H389L254 663L119 224ZM288 927T308 906T328 849Q328 812 308 791T255 770Q222 770 203 791T183 848Q183 885 202 906T255 927Q288
927 308 906ZM230 909T217 894T203 848Q203 818 216 803T255 788Q281 788 294 803T308 849Q308 909 255 909Q230 909 217 894Z" />
<glyph unicode="&#xc6;" glyph-name="AE" horiz-adv-x="682" d="M435 21H643V0H417L371 196H100L33 0H11L248 681H595L592 660H284L353 370H588V349H357L435 21ZM108 218H366L261 663L108 218Z" />
<glyph unicode="&#xc7;" glyph-name="Ccedilla" horiz-adv-x="485" d="M391 -80T391 -141Q391 -175 369 -193T314 -212Q279 -212 252 -194L262 -178Q285 -193 314 -193Q338 -193 353 -180T369 -141Q369 -115 350 -103T288 -90L293 -10Q227 -5 177 36T98 154T70
340Q70 457 101 536T186 653T310 691Q357 691 391 677T455 633L443 618Q411 645 382 657T311 670Q213 670 153 589T93 340Q93 232 121 159T197 49T309 12Q355 12 386 26T449 69L463 53Q432 24 395 7T310 -10L309 -74Q391 -80 391 -141Z" />
<glyph unicode="&#xc8;" glyph-name="Egrave" horiz-adv-x="446" d="M400 681L397 660H133V370H361V349H133V21H407V0H110V681H400ZM187 859L343 778L336 763L175 837L187 859Z" />
<glyph unicode="&#xc9;" glyph-name="Eacute" horiz-adv-x="446" d="M400 681L397 660H133V370H361V349H133V21H407V0H110V681H400ZM330 859L341 837L180 764L173 779L330 859Z" />
<glyph unicode="&#xca;" glyph-name="Ecircumflex" horiz-adv-x="446" d="M400 681L397 660H133V370H361V349H133V21H407V0H110V681H400ZM154 767L143 779L251 869H263L372 779L361 767L257 846L154 767Z" />
<glyph unicode="&#xcb;" glyph-name="Edieresis" horiz-adv-x="446" d="M400 681L397 660H133V370H361V349H133V21H407V0H110V681H400ZM194 838T199 833T205 818Q205 810 200 805T185 799Q177 799 172 804T166 818Q166 826 171 832T185 838Q194 838 199 833ZM345
838T350 832T356 818Q356 810 351 805T336 799Q327 799 322 804T316 818Q316 826 321 832T336 838Q345 838 350 832Z" />
<glyph unicode="&#xcc;" glyph-name="Igrave" horiz-adv-x="243" d="M133 681V0H110V681H133ZM50 859L206 778L199 763L38 837L50 859Z" />
<glyph unicode="&#xcd;" glyph-name="Iacute" horiz-adv-x="243" d="M133 681V0H110V681H133ZM193 859L204 837L43 764L36 779L193 859Z" />
<glyph unicode="&#xce;" glyph-name="Icircumflex" horiz-adv-x="243" d="M133 681V0H110V681H133ZM17 767L6 779L114 869H126L235 779L224 767L120 846L17 767Z" />
<glyph unicode="&#xcf;" glyph-name="Idieresis" horiz-adv-x="243" d="M133 681V0H110V681H133ZM57 838T62 833T68 818Q68 810 63 805T48 799Q40 799 35 804T29 818Q29 826 34 832T48 838Q57 838 62 833ZM208 838T213 832T219 818Q219 810 214 805T199 799Q190
799 185 804T179 818Q179 826 184 832T199 838Q208 838 213 832Z" />
<glyph unicode="&#xd0;" glyph-name="Eth" horiz-adv-x="557" d="M337 681T412 610T487 348Q487 155 411 78T222 0H108V341H24V363H108V681H218Q337 681 412 610ZM327 21T395 93T463 348Q463 530 395 595T217 660H131V363H302V341H131V21H223Q327 21 395 93Z" />
<glyph unicode="&#xd1;" glyph-name="Ntilde" horiz-adv-x="596" d="M486 0H457L129 655Q132 604 132 477V0H110V681H139L467 26Q464 146 464 205V681H486V0ZM342 804T329 810T296 828Q281 838 271 843T251 848Q236 848 224 840T198 813L184 821Q200 844 216 855T251
867Q263 867 274 862T304 846Q321 835 332 830T357 824Q372 824 384 833T410 864L424 857Q409 829 393 817T357 804Q342 804 329 810Z" />
<glyph unicode="&#xd2;" glyph-name="Ograve" horiz-adv-x="620" d="M422 691T486 602T551 340Q551 171 488 81T310 -10Q237 -10 183 30T100 148T70 339Q70 452 100 531T184 650T310 691Q422 691 486 602ZM210 670T152 586T93 339Q93 179 151 96T310 12Q414 12
470 95T527 340Q527 504 470 587T310 670Q210 670 152 586ZM239 859L395 778L388 763L227 837L239 859Z" />
<glyph unicode="&#xd3;" glyph-name="Oacute" horiz-adv-x="620" d="M422 691T486 602T551 340Q551 171 488 81T310 -10Q237 -10 183 30T100 148T70 339Q70 452 100 531T184 650T310 691Q422 691 486 602ZM210 670T152 586T93 339Q93 179 151 96T310 12Q414 12
470 95T527 340Q527 504 470 587T310 670Q210 670 152 586ZM382 859L393 837L232 764L225 779L382 859Z" />
<glyph unicode="&#xd4;" glyph-name="Ocircumflex" horiz-adv-x="620" d="M422 691T486 602T551 340Q551 171 488 81T310 -10Q237 -10 183 30T100 148T70 339Q70 452 100 531T184 650T310 691Q422 691 486 602ZM210 670T152 586T93 339Q93 179 151 96T310 12Q414
12 470 95T527 340Q527 504 470 587T310 670Q210 670 152 586ZM206 767L195 779L303 869H315L424 779L413 767L309 846L206 767Z" />
<glyph unicode="&#xd5;" glyph-name="Otilde" horiz-adv-x="620" d="M422 691T486 602T551 340Q551 171 488 81T310 -10Q237 -10 183 30T100 148T70 339Q70 452 100 531T184 650T310 691Q422 691 486 602ZM210 670T152 586T93 339Q93 179 151 96T310 12Q414 12
470 95T527 340Q527 504 470 587T310 670Q210 670 152 586ZM348 804T335 810T302 828Q287 838 277 843T257 848Q242 848 230 840T204 813L190 821Q206 844 222 855T257 867Q269 867 280 862T310 846Q327 835 338 830T363 824Q378 824 390 833T416 864L430 857Q415
829 399 817T363 804Q348 804 335 810Z" />
<glyph unicode="&#xd6;" glyph-name="Odieresis" horiz-adv-x="620" d="M422 691T486 602T551 340Q551 171 488 81T310 -10Q237 -10 183 30T100 148T70 339Q70 452 100 531T184 650T310 691Q422 691 486 602ZM210 670T152 586T93 339Q93 179 151 96T310 12Q414
12 470 95T527 340Q527 504 470 587T310 670Q210 670 152 586ZM246 838T251 833T257 818Q257 810 252 805T237 799Q229 799 224 804T218 818Q218 826 223 832T237 838Q246 838 251 833ZM397 838T402 832T408 818Q408 810 403 805T388 799Q379 799 374 804T368 818Q368
826 373 832T388 838Q397 838 402 832Z" />
<glyph unicode="&#xd7;" glyph-name="multiply" horiz-adv-x="437" d="M334 455L350 441L233 308L350 174L334 160L218 294L103 160L86 174L203 307L86 441L103 455L218 321L334 455Z" />
<glyph unicode="&#xd8;" glyph-name="Oslash" horiz-adv-x="620" d="M475 637T513 554T551 340Q551 171 488 81T310 -10Q269 -10 230 4L201 -111L179 -104L212 12Q145 46 108 129T70 339Q70 452 100 531T184 650T310 691Q354 691 389 678L420 798L442 792L407
670Q475 637 513 554ZM93 219T126 142T220 33L384 657Q352 670 310 670Q210 670 152 586T93 339Q93 219 126 142ZM414 12T470 95T527 340Q527 463 495 540T401 649L236 26Q268 12 310 12Q414 12 470 95Z" />
<glyph unicode="&#xd9;" glyph-name="Ugrave" horiz-adv-x="575" d="M475 188Q475 99 429 45T288 -10Q193 -10 147 44T100 188V681H123V190Q123 108 163 60T288 12Q372 12 412 60T452 190V681H475V188ZM217 859L373 778L366 763L205 837L217 859Z" />
<glyph unicode="&#xda;" glyph-name="Uacute" horiz-adv-x="575" d="M475 188Q475 99 429 45T288 -10Q193 -10 147 44T100 188V681H123V190Q123 108 163 60T288 12Q372 12 412 60T452 190V681H475V188ZM360 859L371 837L210 764L203 779L360 859Z" />
<glyph unicode="&#xdb;" glyph-name="Ucircumflex" horiz-adv-x="575" d="M475 188Q475 99 429 45T288 -10Q193 -10 147 44T100 188V681H123V190Q123 108 163 60T288 12Q372 12 412 60T452 190V681H475V188ZM184 767L173 779L281 869H293L402 779L391 767L287
846L184 767Z" />
<glyph unicode="&#xdc;" glyph-name="Udieresis" horiz-adv-x="575" d="M475 188Q475 99 429 45T288 -10Q193 -10 147 44T100 188V681H123V190Q123 108 163 60T288 12Q372 12 412 60T452 190V681H475V188ZM224 838T229 833T235 818Q235 810 230 805T215 799Q207
799 202 804T196 818Q196 826 201 832T215 838Q224 838 229 833ZM375 838T380 832T386 818Q386 810 381 805T366 799Q357 799 352 804T346 818Q346 826 351 832T366 838Q375 838 380 832Z" />
<glyph unicode="&#xdd;" glyph-name="Yacute" horiz-adv-x="446" d="M427 681L236 271V0H213V270L19 681H43L225 292L403 681H427ZM295 859L306 837L145 764L138 779L295 859Z" />
<glyph unicode="&#xde;" glyph-name="Thorn" horiz-adv-x="501" d="M338 554T395 506T452 355Q452 246 392 197T217 147H133V0H110V681H133V554H220Q338 554 395 506ZM322 168T375 211T429 355Q429 450 379 491T220 533H133V168H218Q322 168 375 211Z" />
<glyph unicode="&#xdf;" glyph-name="germandbls" horiz-adv-x="516" d="M322 737T359 702T397 611Q397 572 381 548T334 493Q310 471 299 456T288 420Q288 395 303 378T353 335Q388 309 410 288T448 232T464 148Q464 77 429 34T332 -10Q306 -10 287 -5T249 11L258
28Q290 11 331 11Q382 11 411 47T441 148Q441 193 427 225T391 277T337 322Q301 349 284 369T266 420Q266 444 278 461T314 501Q344 529 359 552T374 611Q374 660 344 688T262 716Q202 716 165 675T127 555V0H105V558Q105 641 149 689T262 737Q322 737 359 702Z"
/>
<glyph unicode="&#xe0;" glyph-name="agrave" horiz-adv-x="476" d="M371 57T380 36T412 6L407 -10Q378 0 365 22T351 89Q325 39 289 15T201 -10Q135 -10 97 32T59 144Q59 223 109 265T248 308H349V374Q349 441 322 475T232 509Q171 509 101 477L93 495Q167 529
232 529Q371 529 371 376V102Q371 57 380 36ZM300 11T349 121V288H251Q169 288 126 252T83 144Q83 82 114 47T201 11Q300 11 349 121ZM160 760L318 669L309 654L148 738L160 760Z" />
<glyph unicode="&#xe1;" glyph-name="aacute" horiz-adv-x="476" d="M371 57T380 36T412 6L407 -10Q378 0 365 22T351 89Q325 39 289 15T201 -10Q135 -10 97 32T59 144Q59 223 109 265T248 308H349V374Q349 441 322 475T232 509Q171 509 101 477L93 495Q167 529
232 529Q371 529 371 376V102Q371 57 380 36ZM300 11T349 121V288H251Q169 288 126 252T83 144Q83 82 114 47T201 11Q300 11 349 121ZM297 760L308 738L147 654L139 669L297 760Z" />
<glyph unicode="&#xe2;" glyph-name="acircumflex" horiz-adv-x="476" d="M371 57T380 36T412 6L407 -10Q378 0 365 22T351 89Q325 39 289 15T201 -10Q135 -10 97 32T59 144Q59 223 109 265T248 308H349V374Q349 441 322 475T232 509Q171 509 101 477L93 495Q167
529 232 529Q371 529 371 376V102Q371 57 380 36ZM300 11T349 121V288H251Q169 288 126 252T83 144Q83 82 114 47T201 11Q300 11 349 121ZM127 654L116 666L224 762H237L345 666L333 654L230 739L127 654Z" />
<glyph unicode="&#xe3;" glyph-name="atilde" horiz-adv-x="476" d="M371 57T380 36T412 6L407 -10Q378 0 365 22T351 89Q325 39 289 15T201 -10Q135 -10 97 32T59 144Q59 223 109 265T248 308H349V374Q349 441 322 475T232 509Q171 509 101 477L93 495Q167 529
232 529Q371 529 371 376V102Q371 57 380 36ZM300 11T349 121V288H251Q169 288 126 252T83 144Q83 82 114 47T201 11Q300 11 349 121ZM269 678T256 684T223 702Q208 712 198 717T178 722Q163 722 151 714T125 687L111 695Q127 718 143 729T178 741Q190 741 201
736T231 720Q248 709 259 704T284 698Q299 698 311 707T337 738L351 731Q336 703 320 691T284 678Q269 678 256 684Z" />
<glyph unicode="&#xe4;" glyph-name="adieresis" horiz-adv-x="476" d="M371 57T380 36T412 6L407 -10Q378 0 365 22T351 89Q325 39 289 15T201 -10Q135 -10 97 32T59 144Q59 223 109 265T248 308H349V374Q349 441 322 475T232 509Q171 509 101 477L93 495Q167
529 232 529Q371 529 371 376V102Q371 57 380 36ZM300 11T349 121V288H251Q169 288 126 252T83 144Q83 82 114 47T201 11Q300 11 349 121ZM164 712T169 707T175 692Q175 684 170 679T155 673Q147 673 142 678T136 692Q136 700 141 706T155 712Q164 712 169 707ZM315
712T320 706T326 692Q326 684 321 679T306 673Q297 673 292 678T286 692Q286 700 291 706T306 712Q315 712 320 706Z" />
<glyph unicode="&#xe5;" glyph-name="aring" horiz-adv-x="476" d="M371 57T380 36T412 6L407 -10Q378 0 365 22T351 89Q325 39 289 15T201 -10Q135 -10 97 32T59 144Q59 223 109 265T248 308H349V374Q349 441 322 475T232 509Q171 509 101 477L93 495Q167 529
232 529Q371 529 371 376V102Q371 57 380 36ZM300 11T349 121V288H251Q169 288 126 252T83 144Q83 82 114 47T201 11Q300 11 349 121ZM264 801T284 780T304 723Q304 686 284 665T231 644Q198 644 179 665T159 722Q159 759 178 780T231 801Q264 801 284 780ZM206
783T193 768T179 722Q179 692 192 677T231 662Q257 662 270 677T284 723Q284 783 231 783Q206 783 193 768Z" />
<glyph unicode="&#xe6;" glyph-name="ae" horiz-adv-x="759" d="M699 257T698 246H371Q374 129 418 70T536 11Q576 11 605 24T667 66L680 51Q646 20 613 5T536 -10Q479 -10 438 20T373 110Q333 45 293 18T200 -10Q134 -10 97 32T59 144Q59 222 109 265T247 308H349V370Q349
440 322 474T230 509Q175 509 101 477L94 495Q168 529 230 529Q299 529 332 494T369 389Q391 458 432 493T531 529Q614 529 656 465T699 284Q699 257 698 246ZM677 292Q677 394 641 451T532 509Q461 509 417 447T371 265H677V292ZM251 11T289 40T365 132Q349 188
349 255V288H248Q170 288 126 251T82 144Q82 82 114 47T201 11Q251 11 289 40Z" />
<glyph unicode="&#xe7;" glyph-name="ccedilla" horiz-adv-x="415" d="M340 -80T340 -141Q340 -175 318 -193T263 -212Q228 -212 201 -194L211 -178Q234 -193 263 -193Q287 -193 302 -180T318 -141Q318 -115 299 -103T237 -90L242 -10Q161 -4 113 64T65 257Q65
387 116 458T256 529Q293 529 321 517T377 479L364 464Q341 487 315 498T256 509Q179 509 134 445T88 257Q88 135 133 73T255 11Q319 11 369 58L382 44Q328 -9 259 -10L258 -74Q340 -80 340 -141Z" />
<glyph unicode="&#xe8;" glyph-name="egrave" horiz-adv-x="476" d="M416 268T414 246H88Q90 128 134 70T253 11Q292 11 321 24T383 66L396 51Q363 21 330 6T253 -10Q166 -10 116 59T65 255Q65 386 114 457T246 529Q330 529 373 464T416 284Q416 268 414 246ZM394
273T394 292Q394 393 357 451T247 509Q177 509 134 448T88 265H393Q394 273 394 292ZM176 760L334 669L325 654L164 738L176 760Z" />
<glyph unicode="&#xe9;" glyph-name="eacute" horiz-adv-x="476" d="M416 268T414 246H88Q90 128 134 70T253 11Q292 11 321 24T383 66L396 51Q363 21 330 6T253 -10Q166 -10 116 59T65 255Q65 386 114 457T246 529Q330 529 373 464T416 284Q416 268 414 246ZM394
273T394 292Q394 393 357 451T247 509Q177 509 134 448T88 265H393Q394 273 394 292ZM313 760L324 738L163 654L155 669L313 760Z" />
<glyph unicode="&#xea;" glyph-name="ecircumflex" horiz-adv-x="476" d="M416 268T414 246H88Q90 128 134 70T253 11Q292 11 321 24T383 66L396 51Q363 21 330 6T253 -10Q166 -10 116 59T65 255Q65 386 114 457T246 529Q330 529 373 464T416 284Q416 268 414
246ZM394 273T394 292Q394 393 357 451T247 509Q177 509 134 448T88 265H393Q394 273 394 292ZM143 654L132 666L240 762H253L361 666L349 654L246 739L143 654Z" />
<glyph unicode="&#xeb;" glyph-name="edieresis" horiz-adv-x="476" d="M416 268T414 246H88Q90 128 134 70T253 11Q292 11 321 24T383 66L396 51Q363 21 330 6T253 -10Q166 -10 116 59T65 255Q65 386 114 457T246 529Q330 529 373 464T416 284Q416 268 414 246ZM394
273T394 292Q394 393 357 451T247 509Q177 509 134 448T88 265H393Q394 273 394 292ZM180 712T185 707T191 692Q191 684 186 679T171 673Q163 673 158 678T152 692Q152 700 157 706T171 712Q180 712 185 707ZM331 712T336 706T342 692Q342 684 337 679T322 673Q313
673 308 678T302 692Q302 700 307 706T322 712Q331 712 336 706Z" />
<glyph unicode="&#xec;" glyph-name="igrave" horiz-adv-x="233" d="M127 519V0H105V519H127ZM45 760L203 669L194 654L33 738L45 760Z" />
<glyph unicode="&#xed;" glyph-name="iacute" horiz-adv-x="233" d="M127 519V0H105V519H127ZM182 760L193 738L32 654L24 669L182 760Z" />
<glyph unicode="&#xee;" glyph-name="icircumflex" horiz-adv-x="233" d="M127 519V0H105V519H127ZM12 654L1 666L109 762H122L230 666L218 654L115 739L12 654Z" />
<glyph unicode="&#xef;" glyph-name="idieresis" horiz-adv-x="233" d="M127 519V0H105V519H127ZM49 712T54 707T60 692Q60 684 55 679T40 673Q32 673 27 678T21 692Q21 700 26 706T40 712Q49 712 54 707ZM200 712T205 706T211 692Q211 684 206 679T191 673Q182
673 177 678T171 692Q171 700 176 706T191 712Q200 712 205 706Z" />
<glyph unicode="&#xf0;" glyph-name="eth" horiz-adv-x="490" d="M347 606T383 519T420 301Q420 144 373 67T241 -10Q158 -10 112 54T65 230Q65 293 85 346T143 430T235 461Q325 461 395 364Q388 458 357 528T263 651L188 566L171 573L249 662Q224 681 192 696T129
718L134 738Q204 720 262 676L322 746L337 735L276 665Q347 606 383 519ZM316 11T356 84T397 303Q397 328 396 336Q324 441 236 441Q167 441 128 381T88 229Q88 127 128 69T241 11Q316 11 356 84Z" />
<glyph unicode="&#xf1;" glyph-name="ntilde" horiz-adv-x="524" d="M360 529T391 489T423 375V0H401V372Q401 509 296 509Q244 509 203 476T127 382V0H105V519H125L127 413Q195 529 298 529Q360 529 391 489ZM305 678T292 684T259 702Q244 712 234 717T214 722Q199
722 187 714T161 687L147 695Q163 718 179 729T214 741Q226 741 237 736T267 720Q284 709 295 704T320 698Q335 698 347 707T373 738L387 731Q372 703 356 691T320 678Q305 678 292 684Z" />
<glyph unicode="&#xf2;" glyph-name="ograve" horiz-adv-x="505" d="M341 529T390 461T440 262Q440 130 390 60T252 -10Q164 -10 115 60T65 259Q65 390 115 459T253 529Q341 529 390 461ZM176 509T132 446T88 259Q88 138 131 75T252 11Q330 11 373 74T417 262Q417
384 374 446T253 509Q176 509 132 446ZM182 760L340 669L331 654L170 738L182 760Z" />
<glyph unicode="&#xf3;" glyph-name="oacute" horiz-adv-x="505" d="M341 529T390 461T440 262Q440 130 390 60T252 -10Q164 -10 115 60T65 259Q65 390 115 459T253 529Q341 529 390 461ZM176 509T132 446T88 259Q88 138 131 75T252 11Q330 11 373 74T417 262Q417
384 374 446T253 509Q176 509 132 446ZM319 760L330 738L169 654L161 669L319 760Z" />
<glyph unicode="&#xf4;" glyph-name="ocircumflex" horiz-adv-x="505" d="M341 529T390 461T440 262Q440 130 390 60T252 -10Q164 -10 115 60T65 259Q65 390 115 459T253 529Q341 529 390 461ZM176 509T132 446T88 259Q88 138 131 75T252 11Q330 11 373 74T417
262Q417 384 374 446T253 509Q176 509 132 446ZM149 654L138 666L246 762H259L367 666L355 654L252 739L149 654Z" />
<glyph unicode="&#xf5;" glyph-name="otilde" horiz-adv-x="505" d="M341 529T390 461T440 262Q440 130 390 60T252 -10Q164 -10 115 60T65 259Q65 390 115 459T253 529Q341 529 390 461ZM176 509T132 446T88 259Q88 138 131 75T252 11Q330 11 373 74T417 262Q417
384 374 446T253 509Q176 509 132 446ZM291 678T278 684T245 702Q230 712 220 717T200 722Q185 722 173 714T147 687L133 695Q149 718 165 729T200 741Q212 741 223 736T253 720Q270 709 281 704T306 698Q321 698 333 707T359 738L373 731Q358 703 342 691T306
678Q291 678 278 684Z" />
<glyph unicode="&#xf6;" glyph-name="odieresis" horiz-adv-x="505" d="M341 529T390 461T440 262Q440 130 390 60T252 -10Q164 -10 115 60T65 259Q65 390 115 459T253 529Q341 529 390 461ZM176 509T132 446T88 259Q88 138 131 75T252 11Q330 11 373 74T417 262Q417
384 374 446T253 509Q176 509 132 446ZM186 712T191 707T197 692Q197 684 192 679T177 673Q169 673 164 678T158 692Q158 700 163 706T177 712Q186 712 191 707ZM337 712T342 706T348 692Q348 684 343 679T328 673Q319 673 314 678T308 692Q308 700 313 706T328
712Q337 712 342 706Z" />
<glyph unicode="&#xf7;" glyph-name="divide" horiz-adv-x="437" d="M229 146T235 140T241 123Q241 114 235 108T218 101Q208 101 202 107T195 123Q195 133 201 139T218 146Q229 146 235 140ZM229 560T235 554T241 537Q241 528 235 522T218 515Q208 515 202 521T195
537Q195 547 201 553T218 560Q229 560 235 554ZM70 320V341H367V320H70Z" />
<glyph unicode="&#xf8;" glyph-name="oslash" horiz-adv-x="505" d="M387 482T413 420T440 262Q440 130 390 60T252 -10Q216 -10 186 2L149 -118L129 -113L168 11Q118 39 92 102T65 259Q65 390 115 459T253 529Q289 529 319 517L356 639L375 633L337 509Q387 482
413 420ZM88 171T110 114T175 31L314 498Q284 509 253 509Q176 509 132 446T88 259Q88 171 110 114ZM330 11T373 74T417 262Q417 350 395 407T330 489L193 22Q220 11 252 11Q330 11 373 74Z" />
<glyph unicode="&#xf9;" glyph-name="ugrave" horiz-adv-x="519" d="M414 0H394L393 104Q367 52 327 21T233 -10Q171 -10 136 29T101 141V519H123V143Q123 78 152 45T235 11Q286 11 324 43T392 133V519H414V0ZM187 760L345 669L336 654L175 738L187 760Z" />
<glyph unicode="&#xfa;" glyph-name="uacute" horiz-adv-x="519" d="M414 0H394L393 104Q367 52 327 21T233 -10Q171 -10 136 29T101 141V519H123V143Q123 78 152 45T235 11Q286 11 324 43T392 133V519H414V0ZM324 760L335 738L174 654L166 669L324 760Z" />
<glyph unicode="&#xfb;" glyph-name="ucircumflex" horiz-adv-x="519" d="M414 0H394L393 104Q367 52 327 21T233 -10Q171 -10 136 29T101 141V519H123V143Q123 78 152 45T235 11Q286 11 324 43T392 133V519H414V0ZM154 654L143 666L251 762H264L372 666L360 654L257
739L154 654Z" />
<glyph unicode="&#xfc;" glyph-name="udieresis" horiz-adv-x="519" d="M414 0H394L393 104Q367 52 327 21T233 -10Q171 -10 136 29T101 141V519H123V143Q123 78 152 45T235 11Q286 11 324 43T392 133V519H414V0ZM191 712T196 707T202 692Q202 684 197 679T182
673Q174 673 169 678T163 692Q163 700 168 706T182 712Q191 712 196 707ZM342 712T347 706T353 692Q353 684 348 679T333 673Q324 673 319 678T313 692Q313 700 318 706T333 712Q342 712 347 706Z" />
<glyph unicode="&#xfd;" glyph-name="yacute" horiz-adv-x="405" d="M220 -1Q201 -63 182 -98T134 -156T55 -195L52 -177Q98 -162 124 -141T165 -89T200 0H191L23 519H46L206 18L359 519H383L220 -1ZM270 760L281 738L120 654L112 669L270 760Z" />
<glyph unicode="&#xfe;" glyph-name="thorn" horiz-adv-x="511" d="M358 529T401 462T444 264Q444 133 400 62T273 -10Q226 -10 189 14T127 79V-192L105 -196V733L127 736V437Q188 529 278 529Q358 529 401 462ZM344 11T382 75T421 264Q421 386 385 447T278 509Q230
509 195 484T127 409V108Q187 11 272 11Q344 11 382 75Z" />
<glyph unicode="&#xff;" glyph-name="ydieresis" horiz-adv-x="405" d="M220 -1Q201 -63 182 -98T134 -156T55 -195L52 -177Q98 -162 124 -141T165 -89T200 0H191L23 519H46L206 18L359 519H383L220 -1ZM137 712T142 707T148 692Q148 684 143 679T128 673Q120
673 115 678T109 692Q109 700 114 706T128 712Q137 712 142 707ZM288 712T293 706T299 692Q299 684 294 679T279 673Q270 673 265 678T259 692Q259 700 264 706T279 712Q288 712 293 706Z" />
<glyph unicode="&#x2013;" glyph-name="endash" horiz-adv-x="468" d="M44 302V323H425V302H44Z" />
<glyph unicode="&#x2014;" glyph-name="emdash" horiz-adv-x="699" d="M44 303V323H655V303H44Z" />
<glyph unicode="&#x2018;" glyph-name="quoteleft" horiz-adv-x="199" d="M87 562T82 568T76 584Q76 593 85 615L127 724H143L107 604Q120 598 120 584Q120 575 114 569T98 562Q87 562 82 568Z" />
<glyph unicode="&#x2019;" glyph-name="quoteright" horiz-adv-x="199" d="M112 725T117 719T123 703Q123 694 114 672L72 563H56L92 683Q79 690 79 703Q79 712 85 718T101 725Q112 725 117 719Z" />
<glyph unicode="&#x201a;" glyph-name="quotesinglbase" horiz-adv-x="199" d="M112 38T117 32T123 16Q123 7 114 -15L72 -124H56L92 -4Q79 3 79 16Q79 25 85 31T101 38Q112 38 117 32Z" />
<glyph unicode="&#x201c;" glyph-name="quotedblleft" horiz-adv-x="311" d="M87 583T82 589T76 605Q76 614 85 636L127 745H143L107 625Q120 619 120 605Q120 596 114 590T98 583Q87 583 82 589ZM199 583T194 589T188 605Q188 614 197 636L239 745H255L219 625Q232
619 232 605Q232 596 226 590T210 583Q199 583 194 589Z" />
<glyph unicode="&#x201d;" glyph-name="quotedblright" horiz-adv-x="311" d="M112 725T117 719T123 703Q123 694 114 672L72 563H56L92 683Q79 690 79 703Q79 712 85 718T101 725Q112 725 117 719ZM224 725T229 719T235 703Q235 694 226 672L184 563H168L204
683Q191 690 191 703Q191 712 197 718T213 725Q224 725 229 719Z" />
<glyph unicode="&#x201e;" glyph-name="quotedblbase" horiz-adv-x="311" d="M112 38T117 32T123 16Q123 7 114 -15L72 -124H56L92 -4Q79 3 79 16Q79 25 85 31T101 38Q112 38 117 32ZM224 38T229 32T235 16Q235 7 226 -15L184 -124H168L204 -4Q191 3 191 16Q191
25 197 31T213 38Q224 38 229 32Z" />
<glyph unicode="&#x2022;" glyph-name="bullet" horiz-adv-x="228" d="M129 383T137 374T146 350Q146 336 138 327T114 318Q100 318 91 327T82 350Q82 364 91 373T114 383Q129 383 137 374Z" />
<glyph unicode="&#x2039;" glyph-name="guilsinglleft" horiz-adv-x="318" d="M219 503L234 494L107 288L235 83L220 74L83 281V295L219 503Z" />
<glyph unicode="&#x203a;" glyph-name="guilsinglright" horiz-adv-x="318" d="M98 503L235 295V281L97 74L83 83L210 288L83 494L98 503Z" />
</font>
</defs>
</svg>
