<?xml version="1.0" standalone="no"?>
<!DOCTYPE svg PUBLIC "-//W3C//DTD SVG 1.1//EN" "http://www.w3.org/Graphics/SVG/1.1/DTD/svg11.dtd">
<svg xmlns="http://www.w3.org/2000/svg">
<defs >
<font id="Sura" horiz-adv-x="1083" ><font-face
    font-family="Sura"
    units-per-em="2048"
    panose-1="0 0 5 0 0 0 0 0 0 0"
    ascent="2359"
    descent="-872"
    alphabetic="0" />
<glyph unicode=" " glyph-name="space" horiz-adv-x="438" />
<glyph unicode="!" glyph-name="exclam" horiz-adv-x="468" d="M289 451T178 451L180 586L162 1460L346 1475L385 1438Q381 1401 369 1267T345 954T334 631Q334 578 336 527T340 457L326 444Q289 451 178 451ZM322 -20T353 16T385 113Q385 172 354 208T264 244Q207
244 175 208T143 113Q143 50 175 15T264 -20Q322 -20 353 16Z" />
<glyph unicode="&quot;" glyph-name="quotedbl" horiz-adv-x="612" d="M78 1507T93 1391T111 1249L109 1057L227 1051L254 1548H72Q78 1507 93 1391ZM365 1507T380 1391T397 1249L395 1057L514 1051L541 1548H358Q365 1507 380 1391Z" />
<glyph unicode="#" glyph-name="numbersign" horiz-adv-x="1167" d="M809 451L1079 453V307H786L733 -31L610 -10L659 307H434L381 -31L258 -10L307 307H66V442L330 444L369 692L106 690V836H391L444 1171L567 1151L518 836H743L797 1171L920 1151L870 836H1120V700L848
698L809 451ZM496 694L457 446L684 449L723 696L496 694Z" />
<glyph unicode="$" glyph-name="dollar" horiz-adv-x="1067" d="M965 176T846 81T541 -20L535 -188L463 -182L469 -18Q369 -14 288 8T155 54T102 80L133 387L260 375L258 264Q258 248 279 145Q375 108 475 100L496 598L434 627Q289 697 200 783T111 1010Q111 1174
224 1264T522 1354H526L535 1554L604 1548L596 1350Q715 1340 897 1292L866 997L756 1010L758 1106Q758 1118 748 1153T731 1206Q651 1237 592 1243L573 776L631 745Q740 686 806 639T918 519T965 344Q965 176 846 81ZM301 971T353 919T504 813L522 1247H516Q422
1247 362 1194T301 1044Q301 971 353 919ZM649 106T706 164T764 324Q764 402 713 458T565 565L547 98Q649 106 706 164Z" />
<glyph unicode="%" glyph-name="percent" horiz-adv-x="1607" d="M1286 1411L399 -100L295 -35L1184 1477L1286 1411ZM698 854T618 754T391 653Q246 653 165 753T84 1010Q84 1164 165 1264T391 1364Q536 1364 617 1264T698 1010V1008Q698 854 618 754ZM238 905T273
834T391 762Q473 762 509 833T545 1010Q545 1112 509 1183T391 1255Q309 1255 274 1184T238 1008Q238 905 273 834ZM1481 178T1400 78T1174 -23Q1029 -23 948 77T866 334Q866 488 947 588T1174 688Q1319 688 1400 588T1481 334V332Q1481 178 1400 78ZM1020 229T1056
158T1174 86Q1256 86 1291 157T1327 334Q1327 436 1291 508T1174 580Q1092 580 1056 508T1020 332Q1020 229 1056 158Z" />
<glyph unicode="&amp;" glyph-name="ampersand" horiz-adv-x="1484" d="M692 1356T792 1335T946 1292L920 1006L807 1012L811 1106Q811 1114 803 1152T791 1204Q764 1224 721 1239T623 1255Q537 1255 484 1204T430 1069Q430 979 506 867T693 640T983 362Q1016
448 1016 571Q1016 606 997 688L858 700L870 819H1057L1307 829L1317 721L1159 688Q1149 616 1149 547Q1149 391 1083 270L1145 213Q1151 207 1264 125L1425 111L1411 -10Q1393 -8 1321 -4T1147 0H1104L1087 51L993 145Q913 65 804 23T565 -20Q438 -20 332 30T164
173T102 389Q102 518 167 617T358 791Q249 945 250 1069Q250 1216 351 1286T623 1356Q692 1356 792 1335ZM285 581T285 403Q285 274 363 188T567 102Q786 102 903 229L786 338Q659 457 579 536T432 694Q285 581 285 403Z" />
<glyph unicode="&apos;" glyph-name="quotesingle" horiz-adv-x="325" d="M78 1507T93 1391T111 1249L109 1057L227 1051L254 1548H72Q78 1507 93 1391Z" />
<glyph unicode="(" glyph-name="parenleft" horiz-adv-x="555" d="M270 461T303 309T391 6Q401 -21 457 -108T535 -223L469 -276Q283 -90 193 145T102 649Q102 917 192 1153T469 1575L535 1522Q515 1493 458 1406T391 1292Q336 1142 303 990T270 649Q270 461 303 309Z" />
<glyph unicode=")" glyph-name="parenright" horiz-adv-x="555" d="M285 461T252 309T164 6Q154 -21 98 -108T20 -223L86 -276Q272 -90 362 145T453 649Q453 917 363 1153T86 1575L20 1522Q40 1493 97 1406T164 1292Q219 1142 252 990T285 649Q285 461 252 309Z" />
<glyph unicode="*" glyph-name="asterisk" horiz-adv-x="837" d="M604 1128L645 1098L745 1040L711 958L485 1059Q483 1026 475 985Q469 948 469 934V821L381 811L356 1055L240 1008L141 950L88 1022L289 1165L188 1243L90 1298L125 1380L348 1280Q366 1391 367
1403V1518L455 1528L479 1284Q588 1327 594 1331L694 1389L748 1317L547 1174L604 1128Z" />
<glyph unicode="+" glyph-name="plus" horiz-adv-x="1146" d="M645 453L649 0H496V451L45 446V600H496V1047H639L643 600H1100V457L645 453Z" />
<glyph unicode="," glyph-name="comma" horiz-adv-x="450" d="M215 -84T176 -134T70 -213L90 -279Q217 -252 287 -147T358 82Q358 162 328 213T229 264Q170 264 136 224T102 123Q102 66 132 25T215 -20Q215 -84 176 -134Z" />
<glyph unicode="-" glyph-name="hyphen" horiz-adv-x="577" d="M506 442H66L61 596H516L506 442Z" />
<glyph unicode="." glyph-name="period" horiz-adv-x="436" d="M152 264T117 224T82 121Q82 58 117 19T213 -20Q274 -20 309 18T344 121Q344 189 309 226T213 264Q152 264 117 224Z" />
<glyph unicode="/" glyph-name="slash" horiz-adv-x="770" d="M780 1542L145 -137L14 -96L651 1583L780 1542Z" />
<glyph unicode="0" glyph-name="zero" horiz-adv-x="1187" d="M102 367T223 174T594 -20Q844 -20 964 173T1085 668Q1085 969 965 1162T594 1356Q344 1356 223 1163T102 668Q102 367 223 174ZM883 102T594 102Q305 102 305 668Q305 1233 594 1233Q883 1233 883
668Q883 102 594 102Z" />
<glyph unicode="1" glyph-name="one" horiz-adv-x="796" d="M655 -8T581 -4T403 0Q342 -2 253 -5T127 -10L117 92L319 125Q337 246 338 281V1073L104 952L49 1038L330 1260Q344 1272 379 1316T426 1376L522 1352Q520 1291 514 1114T508 872V342Q508 285 513 223T522
125L690 111L676 -10Q655 -8 581 -4Z" />
<glyph unicode="2" glyph-name="two" horiz-adv-x="1054" d="M688 1356T797 1269T907 1026Q907 901 852 791T665 538T264 150H649Q669 150 821 166Q821 166 850 238L860 334L973 326L954 35L915 -6Q882 -6 805 -3T668 0H102L74 150Q373 451 501 593T671 818T713
995Q713 1104 648 1172T477 1241Q420 1241 372 1228T272 1184Q264 1157 258 1126T252 1079L256 987L143 981L117 1282Q221 1323 305 1339T498 1356Q688 1356 797 1269Z" />
<glyph unicode="3" glyph-name="three" horiz-adv-x="962" d="M584 1356T688 1270T793 1022Q793 909 730 822T549 686Q694 645 772 557T850 344Q850 207 751 88T473 -110T63 -215L27 -106Q213 -75 355 -9T576 148T655 340Q655 453 579 522T375 592Q320 592 282
590T233 586L205 684Q406 709 503 785T600 993Q600 1114 543 1179T379 1245Q328 1245 292 1235T217 1200Q197 1118 197 1098L201 1006L88 999L61 1296Q153 1329 229 1342T385 1356Q584 1356 688 1270Z" />
<glyph unicode="4" glyph-name="four" d="M848 1366T736 1244T604 1094L221 520L631 526V817L791 872V537L979 549V412H791V342Q791 285 796 223T805 125L975 111L961 -10Q943 -8 870 -4T694 0Q633 -2 542 -5T412 -10L401 92L612 125Q630 254 631 281V412H100L10
520L748 1513L889 1409Q848 1366 736 1244Z" />
<glyph unicode="5" glyph-name="five" horiz-adv-x="946" d="M774 1210T609 1191T406 1171H274Q270 1128 262 985T250 727Q334 745 418 745Q631 745 752 646T874 360Q874 116 667 -32T123 -215L86 -106Q354 -67 517 43T680 340Q680 471 603 539T381 608Q297 608
184 582L109 625L143 1298L182 1335H322L819 1356L831 1219Q774 1210 609 1191Z" />
<glyph unicode="6" glyph-name="six" horiz-adv-x="1069" d="M549 825T497 812T428 793L440 694Q454 696 500 700T573 705Q694 705 758 622T823 410Q823 281 754 188T565 94Q428 94 357 217T285 504Q285 694 352 875T576 1204T987 1425L963 1530Q682 1477 486
1318T191 944T92 504Q92 266 216 122T565 -23Q688 -23 792 33T957 188T1018 410Q1018 607 905 716T592 825Q549 825 497 812Z" />
<glyph unicode="7" glyph-name="seven" horiz-adv-x="1036" d="M213 1352T306 1344T430 1335H977L1010 1255L424 -215L264 -164L702 864Q718 899 793 1186H449Q404 1186 274 1174Q249 1123 246 1104L236 1001L123 1010L141 1313L180 1354Q213 1352 306 1344Z" />
<glyph unicode="8" glyph-name="eight" horiz-adv-x="1064" d="M825 641T904 553T983 332Q983 164 854 72T532 -20Q339 -20 211 71T82 336Q82 453 166 547T371 711Q256 777 192 859T127 1067Q127 1167 182 1242T331 1357T532 1397Q638 1397 731 1357T881 1241T938
1063Q938 954 865 865T688 713Q825 641 904 553ZM473 1300T421 1269T337 1185T305 1071Q305 997 342 944T433 854T590 762L592 760Q660 815 710 892T760 1063Q760 1163 695 1231T532 1300Q473 1300 421 1269ZM643 76T720 146T797 328Q797 400 757 455T658 550T496
647L479 655Q393 594 331 514T268 336Q268 219 343 148T532 76Q643 76 720 146Z" />
<glyph unicode="9" glyph-name="nine" horiz-adv-x="1075" d="M577 508T649 539L635 635Q592 629 508 629Q434 629 375 669T283 775T250 920Q250 1055 315 1147T500 1239Q592 1239 656 1179T751 1022T782 821Q782 514 627 260T98 -113L127 -219Q414 -158 606 1T891
375T983 821Q983 1061 857 1208T504 1356Q379 1356 275 1300T111 1144T51 920Q51 797 107 703T264 558T489 508Q577 508 649 539Z" />
<glyph unicode=":" glyph-name="colon" horiz-adv-x="415" d="M145 967T114 930T82 834Q82 775 113 739T203 702Q260 702 292 738T324 834Q324 897 292 932T203 967Q145 967 114 930ZM145 244T114 207T82 111Q82 52 113 16T203 -20Q260 -20 292 15T324 111Q324
174 292 209T203 244Q145 244 114 207Z" />
<glyph unicode=";" glyph-name="semicolon" horiz-adv-x="450" d="M170 967T138 930T106 834Q106 775 138 739T227 702Q284 702 316 738T348 834Q348 897 317 932T227 967Q170 967 138 930ZM215 -84T176 -134T70 -213L90 -279Q217 -252 287 -147T358 82Q358 162
328 213T229 264Q170 264 136 224T102 123Q102 66 132 25T215 -20Q215 -84 176 -134Z" />
<glyph unicode="&lt;" glyph-name="less" horiz-adv-x="1146" d="M938 78L418 508L936 942L827 1051L209 506L829 -31L938 78Z" />
<glyph unicode="=" glyph-name="equal" horiz-adv-x="1146" d="M106 774V629L1038 639V774H106ZM1038 244V389L106 379V244H1038Z" />
<glyph unicode="&gt;" glyph-name="greater" horiz-adv-x="1146" d="M209 78L729 508L211 942L319 1051L938 506L317 -31L209 78Z" />
<glyph unicode="?" glyph-name="question" horiz-adv-x="825" d="M647 920T579 841T389 762Q346 762 285 770L231 721V457L240 451Q342 451 379 444L393 457L385 637Q514 637 617 686T780 827T840 1044Q840 1253 719 1371T389 1489Q303 1489 230 1470T68 1409L92
1126H211L207 1200Q207 1220 210 1260T219 1319Q260 1350 301 1361T391 1372Q516 1372 581 1280T647 1047Q647 920 579 841ZM375 -20T406 16T438 113Q438 172 407 208T317 244Q260 244 229 208T197 113Q197 50 228 15T317 -20Q375 -20 406 16Z" />
<glyph unicode="@" glyph-name="at" horiz-adv-x="1867" d="M1145 86T1047 33T840 -20Q713 -20 638 53T563 252Q563 356 623 416T799 506Q891 529 1020 548T1165 569V637Q1165 768 1122 844T973 920Q860 920 782 881Q780 871 772 833T764 784V711L645 705L623
981Q807 1030 993 1030Q1126 1030 1200 980T1302 837T1331 596V281Q1331 256 1341 187T1356 94Q1489 123 1554 270T1620 588Q1620 789 1539 942T1305 1181T944 1266Q676 1266 526 1133T322 821T268 475Q268 110 432 -100T954 -309Q999 -309 1144 -275T1341 -227L1374
-291Q1349 -301 1269 -336T1095 -403T954 -436Q630 -436 436 -304T162 33T82 475Q82 711 170 912T451 1240T944 1366Q1198 1366 1388 1274T1682 1006T1786 588Q1786 447 1723 315T1537 94T1249 -8L1212 20L1186 162Q1145 86 1047 33ZM995 111T1072 176T1165 342V465Q1151
463 1060 449T872 410Q743 377 743 262Q743 190 782 151T893 111Q995 111 1072 176Z" />
<glyph unicode="A" glyph-name="A" horiz-adv-x="1413" d="M1155 0Q1083 0 991 -4T862 -10L854 90L1004 131L948 352L905 475H455L389 260L369 131L512 111L502 0H326Q250 0 166 -4T49 -10L41 90L170 125L258 328L625 1444L743 1464L1165 305L1245 131L1372 111L1362
0H1155ZM672 1141L492 578L864 586L672 1141Z" />
<glyph unicode="B" glyph-name="B" horiz-adv-x="1224" d="M786 1464T875 1422T1017 1301T1069 1112Q1069 979 990 884T784 758V743Q942 718 1037 624T1133 375Q1133 260 1078 172T927 37T715 -10Q672 -10 541 -6L322 0L109 -10L98 92L248 125Q266 246 266 281V1163Q266
1200 248 1319L102 1343L113 1454L322 1444Q365 1444 417 1448T489 1454Q509 1456 569 1460T680 1464Q786 1464 875 1422ZM463 1305T458 1234T453 1102V342Q453 281 457 218T465 121Q567 109 651 109Q776 109 851 182T926 391Q926 538 828 614T582 690H559L573
807H588Q715 807 797 880T879 1087Q879 1208 812 1281T637 1354Q569 1354 467 1341Q463 1305 458 1234Z" />
<glyph unicode="C" glyph-name="C" horiz-adv-x="1249" d="M1047 6T947 -12T735 -31Q524 -31 379 62T160 326T86 721Q86 946 159 1116T378 1380T735 1475Q846 1475 929 1459T1159 1405L1139 1102L1018 1110V1206Q1018 1226 993 1309Q930 1329 861 1342T735 1356Q522
1356 410 1179T297 723Q297 444 409 266T733 88Q794 88 870 100T1012 133Q1041 227 1040 248Q1042 260 1043 296T1044 344L1165 348L1178 39Q1047 6 947 -12Z" />
<glyph unicode="D" glyph-name="D" horiz-adv-x="1476" d="M909 1464T1068 1374T1309 1117T1391 721Q1391 504 1306 338T1061 80T684 -12Q625 -12 545 -6Q514 -6 450 -3T338 0Q283 -2 205 -5T96 -10L86 92L248 125Q266 246 266 281V1163Q266 1200 248 1319L90
1343L100 1454L301 1444Q360 1446 465 1454Q492 1456 558 1460T684 1464Q909 1464 1068 1374ZM553 1341T467 1331Q453 1196 453 1102V342Q453 279 458 210T467 117Q573 109 686 109Q852 109 964 189T1132 408T1188 721Q1188 897 1133 1037T965 1259T686 1341Q553
1341 467 1331Z" />
<glyph unicode="E" glyph-name="E" horiz-adv-x="1204" d="M131 1452T207 1449T338 1444H797Q824 1444 911 1452T1030 1464L1069 1427L1083 1149L965 1139Q959 1188 942 1249Q940 1269 901 1319Q788 1329 735 1329H467Q453 1179 453 1102V811L541 807H690Q715
807 757 815T813 825L831 961L926 950L924 778Q924 700 926 638T930 555L831 543L813 680Q793 682 734 687T649 692H541Q506 692 453 686V342Q453 254 467 117H762Q840 117 940 135Q979 188 983 211Q987 231 995 258Q999 278 1005 302T1014 348L1126 338L1096 29L1057
-8Q1026 -6 952 -3T823 0H338Q283 -2 206 -5T96 -10L86 92L248 125Q266 246 266 281V1163Q266 1200 248 1319L90 1343L100 1454Q131 1452 207 1449Z" />
<glyph unicode="F" glyph-name="F" horiz-adv-x="1130" d="M999 1460T911 1452T797 1444H338Q283 1446 207 1449T100 1454L90 1343L248 1319Q266 1200 266 1163V281Q266 246 248 125L86 92L96 -10Q129 -8 206 -5T338 0Q440 0 535 -4T657 -10L672 111L467 125Q463
160 458 222T453 342V670Q506 676 541 676H649Q674 676 733 671T813 664L831 526L930 539Q928 559 926 621T924 762L926 934L831 944L813 809Q799 807 757 799T690 791H541L453 795V1102Q453 1180 467 1329H735Q788 1329 901 1319Q940 1270 942 1249Q958 1188 965
1139L1083 1149L1069 1427L1030 1464Q999 1460 911 1452Z" />
<glyph unicode="G" glyph-name="G" horiz-adv-x="1363" d="M887 1475T975 1459T1221 1405L1198 1102L1079 1114V1206Q1079 1224 1055 1307Q889 1356 764 1356Q610 1356 504 1273T345 1048T293 723Q293 541 345 398T503 171T764 88Q825 88 903 99T1051 129Q1076
235 1075 262V401Q1075 428 1067 479T1055 547L838 563L848 682H1075Q1116 682 1160 685T1221 688L1257 653Q1255 618 1247 511T1239 340V39Q1098 6 993 -12T770 -31Q549 -31 396 62T164 326T86 721Q86 946 164 1116T395 1380T770 1475Q887 1475 975 1459Z" />
<glyph unicode="H" glyph-name="H" horiz-adv-x="1583" d="M1327 1284T1322 1222T1317 1102V342Q1317 285 1322 223T1331 125L1516 111L1501 -10Q1476 -8 1391 -4T1202 0Q1147 -2 1070 -5T961 -10L950 92L1112 125Q1130 246 1130 281V670H453V342Q453 285 458
223T467 125L651 111L637 -10Q612 -8 526 -4T338 0Q283 -2 206 -5T96 -10L86 92L248 125Q266 246 266 281V1163Q266 1200 248 1319L90 1343L100 1454Q131 1452 207 1449T338 1444Q440 1444 519 1448T618 1454L627 1333L467 1319Q463 1284 458 1222T453 1102V774L1130
784V1163Q1130 1200 1112 1319L954 1343L965 1454Q996 1452 1071 1449T1202 1444Q1304 1444 1383 1448T1483 1454L1491 1333L1331 1319Q1327 1284 1322 1222Z" />
<glyph unicode="I" glyph-name="I" horiz-adv-x="743" d="M475 1284T470 1222T465 1102V342Q465 285 470 223T479 125L664 111L649 -10Q624 -8 539 -4T350 0Q295 -2 218 -5T109 -10L98 92L260 125Q278 246 279 281V1163Q279 1200 260 1319L102 1343L113 1454Q144
1452 219 1449T350 1444Q452 1444 531 1448T631 1454L639 1333L479 1319Q475 1284 470 1222Z" />
<glyph unicode="J" glyph-name="J" horiz-adv-x="679" d="M455 1284T450 1222T444 1102V-20Q444 -57 364 -162T164 -410L94 -365Q121 -310 189 -157T258 23V1163Q258 1200 240 1319L82 1343L92 1454Q123 1452 198 1449T330 1444Q432 1444 511 1448T610 1454L618
1333L459 1319Q455 1284 450 1222Z" />
<glyph unicode="K" glyph-name="K" horiz-adv-x="1429" d="M598 1452T519 1448T338 1444Q283 1446 207 1449T100 1454L90 1343L248 1319Q266 1200 266 1163V281Q266 246 248 125L86 92L96 -10Q129 -8 206 -5T338 0Q440 0 526 -4T637 -10L651 111L467 125Q463 160
458 222T453 342V1102Q453 1159 458 1221T467 1319L627 1333L618 1454Q598 1452 519 1448ZM1372 -8T1290 -4T1106 0Q1049 -2 964 -5T844 -10L834 92L954 121Q864 266 811 336L473 723L846 1182L926 1321L815 1343L825 1454Q854 1452 922 1449T1042 1444Q1144 1444
1214 1448T1303 1454L1311 1333L1155 1319Q1049 1221 946 1118L676 758L825 588L1108 264Q1141 227 1266 125L1409 111L1395 -10Q1372 -8 1290 -4Z" />
<glyph unicode="L" glyph-name="L" horiz-adv-x="1093" d="M463 1284T458 1222T453 1102V342Q453 287 458 221T467 117H709Q787 117 887 135Q928 192 930 211Q955 307 961 348L1073 338L1042 29L1004 -8Q973 -6 898 -3T770 0H338Q283 -2 206 -5T96 -10L86 92L248
125Q266 246 266 281V1163Q266 1200 248 1319L90 1343L100 1454Q131 1452 207 1449T338 1444Q440 1444 519 1448T618 1454L627 1333L467 1319Q463 1284 458 1222Z" />
<glyph unicode="M" glyph-name="M" horiz-adv-x="1900" d="M1536 1444T1630 1448T1751 1454L1759 1333L1595 1319Q1589 1282 1589 1165L1659 270Q1661 256 1692 125L1858 111L1845 -10Q1820 -8 1735 -4T1546 0Q1491 -2 1413 -5T1303 -10L1292 92L1452 125Q1462
279 1462 332L1407 1196L958 0H885L436 1196L387 332Q387 289 397 125L563 111L549 -10Q531 -8 458 -4T285 0Q234 -2 164 -5T66 -10L55 92L215 125L225 164Q231 187 237 215T250 270L303 1165Q303 1200 301 1244T295 1319L127 1343L137 1454Q176 1452 285 1448T420
1446H535L573 1403Q587 1360 621 1257T680 1083L952 358L1231 1100Q1243 1129 1284 1245T1339 1403L1380 1444H1434Q1536 1444 1630 1448Z" />
<glyph unicode="N" glyph-name="N" horiz-adv-x="1558" d="M1491 1452T1395 1448T1198 1444L1030 1448L1018 1325L1180 1313Q1186 1276 1192 1221T1198 1143V334L662 1085Q617 1153 553 1256T463 1403L422 1446L332 1444Q277 1446 201 1449T94 1454L84 1343L248
1319Q250 1309 258 1250T266 1163V281Q266 246 248 125L86 92L96 -10Q125 -8 195 -5T317 0Q419 0 486 -4T569 -10L584 111L418 125Q414 160 409 222T403 342V1139L1210 -14H1333L1335 608V1081Q1335 1167 1366 1313L1528 1346L1518 1454Q1491 1452 1395 1448Z"
/>
<glyph unicode="O" glyph-name="O" horiz-adv-x="1515" d="M1430 496T1354 327T1127 64T758 -31Q541 -31 390 63T162 327T86 721Q86 946 162 1116T389 1380T758 1475Q975 1475 1126 1381T1354 1116T1430 721Q1430 496 1354 327ZM305 539T355 394T508 163T758 78Q905
78 1007 163T1160 393T1210 721Q1210 905 1160 1050T1008 1281T758 1366Q611 1366 509 1281T356 1051T305 721Q305 539 355 394Z" />
<glyph unicode="P" glyph-name="P" horiz-adv-x="1200" d="M568 596T453 600V342Q453 285 458 223T467 125L659 111L645 -10Q620 -8 530 -4T338 0Q283 -2 206 -5T96 -10L86 92L248 125Q266 244 266 281V1163Q266 1198 248 1319L90 1343L100 1454L305 1444L467
1454Q504 1456 573 1460T682 1464Q897 1464 1018 1354T1139 1028Q1139 895 1072 797T889 647T635 596Q568 596 453 600ZM946 1190T853 1276T596 1362Q555 1362 469 1352Q463 1301 458 1226T453 1102V709Q539 699 594 698Q758 698 852 782T946 1028Q946 1190 853
1276Z" />
<glyph unicode="Q" glyph-name="Q" horiz-adv-x="1525" d="M785 -31T758 -31Q541 -31 390 63T162 327T86 721Q86 946 162 1116T389 1380T758 1475Q975 1475 1126 1381T1354 1116T1430 721Q1430 447 1317 258T989 2L1167 -123Q1187 -137 1316 -193T1491 -270L1370
-459L834 -27Q785 -31 758 -31ZM305 539T355 394T508 163T758 78Q905 78 1007 163T1160 393T1210 721Q1210 905 1160 1050T1008 1281T758 1366Q611 1366 509 1281T356 1051T305 721Q305 539 355 394Z" />
<glyph unicode="R" glyph-name="R" horiz-adv-x="1323" d="M1284 -10Q1257 -8 1160 -4T961 0Q947 31 906 119T848 238L647 616H633Q567 616 453 621V342Q453 285 458 223T467 125L651 111L637 -10Q612 -8 526 -4T338 0Q283 -2 206 -5T96 -10L86 92L248 125Q266
244 266 281V1163Q266 1190 248 1319L90 1343L100 1454L305 1444L467 1454Q504 1456 572 1460T680 1464Q895 1464 1014 1357T1133 1040Q1133 895 1052 794T836 647Q938 446 1051 268Q1069 237 1151 125L1298 111L1284 -10ZM539 719T592 719Q754 719 847 800T940
1038Q940 1196 848 1279T594 1362Q549 1362 469 1350Q453 1219 453 1102V729Q539 719 592 719Z" />
<glyph unicode="S" glyph-name="S" horiz-adv-x="1144" d="M268 283Q268 246 291 147Q430 92 557 92Q682 92 754 158T827 348Q827 422 785 476T682 570T514 664Q389 727 313 778T183 907T129 1096Q129 1276 253 1375T573 1475Q725 1475 987 1409L958 1100L838
1112V1202Q838 1216 827 1259T811 1317Q750 1344 696 1353T567 1362Q467 1362 401 1303T334 1135Q334 1067 374 1015T474 924T639 831Q768 768 849 714T986 576T1042 373Q1042 176 905 73T553 -31Q430 -31 331 -7T167 46T102 78L133 393L268 381V283Z" />
<glyph unicode="T" glyph-name="T" horiz-adv-x="1218" d="M1069 1202T1057 1249Q1055 1269 1016 1319Q903 1329 850 1329H717Q703 1186 702 1102V342Q702 285 707 223T717 125L901 111L887 -10Q862 -8 776 -4T588 0Q533 -2 456 -5T346 -10L336 92L498 125Q516
246 516 281V1163Q516 1192 504 1278L498 1329H369Q316 1329 203 1319Q164 1270 162 1249Q150 1202 139 1122L20 1133L35 1427L74 1464Q105 1460 193 1452T307 1444H911Q938 1444 1026 1452T1145 1464L1184 1427L1198 1133L1079 1122Q1069 1202 1057 1249Z" />
<glyph unicode="U" glyph-name="U" horiz-adv-x="1488" d="M1284 1282T1279 1216T1274 1092V545Q1274 277 1138 123T743 -31Q485 -31 350 122T215 545V1153Q215 1182 197 1319L35 1343L45 1454Q76 1452 151 1449T283 1444Q385 1444 470 1448T578 1454L586 1333L424
1319Q420 1282 415 1216T410 1092V545Q410 342 500 221T762 100Q940 100 1033 222T1126 545V1153Q1126 1176 1106 1319L946 1343L956 1454Q985 1452 1053 1449T1174 1444Q1276 1444 1349 1448T1442 1454L1450 1333L1288 1319Q1284 1282 1279 1216Z" />
<glyph unicode="V" glyph-name="V" horiz-adv-x="1419" d="M203 1186T173 1241T133 1313L-2 1333L8 1444H231Q301 1446 397 1449T532 1454L541 1354L379 1313Q379 1305 395 1235T440 1092L741 303L1047 1184Q1055 1211 1061 1254T1069 1313L913 1333L924 1444H1108Q1184
1444 1275 1448T1401 1454L1409 1354L1270 1319Q1260 1303 1230 1245T1176 1116L786 0H662L221 1139Q203 1186 173 1241Z" />
<glyph unicode="W" glyph-name="W" horiz-adv-x="2070" d="M1915 1298T1882 1232T1833 1116L1497 0H1372L1030 1036L719 0H594L219 1139Q201 1192 173 1245T137 1313L2 1333L12 1444H236Q306 1446 402 1449T537 1454L545 1354L383 1313Q387 1293 403 1225T438
1092L674 303L997 1403H1106L1452 303L1704 1184Q1712 1217 1718 1258T1726 1313L1571 1333L1581 1444H1765Q1841 1444 1932 1448T2058 1454L2066 1354L1927 1319Q1915 1298 1882 1232Z" />
<glyph unicode="X" glyph-name="X" horiz-adv-x="1470" d="M289 1202T205 1313L39 1333L53 1446L236 1444Q324 1446 445 1449T618 1454L629 1358L467 1313Q471 1305 498 1238T551 1137L745 864L944 1184Q962 1215 1012 1313L852 1333L866 1446L1030 1444Q1098
1444 1220 1448T1382 1454L1393 1358L1251 1325Q1124 1208 1090 1165L825 754L1171 270Q1216 213 1296 131L1458 111L1444 -2L1280 0Q1192 -2 1072 -5T903 -10L893 86L1028 123Q977 238 936 291L705 616L471 270Q448 235 399 131L563 111L549 -2L385 0L47 -10L37
86L162 121Q172 131 250 212T358 336L627 727L332 1143Q289 1202 205 1313Z" />
<glyph unicode="Y" glyph-name="Y" horiz-adv-x="1357" d="M1182 1319Q1170 1303 1129 1244T1053 1116L766 559V342Q766 285 771 223T780 125L965 111L950 -10Q925 -8 840 -4T651 0Q596 -2 519 -5T410 -10L399 92L561 125Q579 246 580 281V526L262 1139Q235 1192
198 1245T147 1313L12 1333L23 1444H246Q316 1446 412 1449T547 1454L555 1354L393 1313Q393 1305 416 1236T481 1092L688 705L924 1184Q944 1225 959 1262T981 1313L825 1333L836 1444H1020Q1096 1444 1187 1448T1313 1454L1321 1354L1182 1319Z" />
<glyph unicode="Z" glyph-name="Z" horiz-adv-x="1140" d="M379 1323T266 1313L233 1243Q225 1210 217 1160T207 1071L88 1081L102 1427L141 1464Q172 1460 260 1452T375 1444H1053L1067 1329L846 1012L455 391L305 121H721Q801 121 901 139Q938 188 942 211Q950
244 959 289T973 369L1085 358L1055 29L1016 -8Q985 -6 911 -3T782 0H70L55 117Q82 156 164 271T285 449L674 1065L817 1323H442Q379 1323 266 1313Z" />
<glyph unicode="[" glyph-name="bracketleft" horiz-adv-x="542" d="M172 106T165 -24T154 -209L193 -248Q281 -248 383 -251T516 -256L522 -168L350 -143Q346 -123 334 -53T322 82V1231Q322 1294 334 1365T350 1456L522 1481L516 1569Q485 1567 383 1564T193
1561L154 1522Q158 1467 165 1337T174 1128V184Q172 106 165 -24Z" />
<glyph unicode="\" glyph-name="backslash" horiz-adv-x="815" d="M14 1542L649 -137L780 -96L143 1583L14 1542Z" />
<glyph unicode="]" glyph-name="bracketright" horiz-adv-x="542" d="M371 1206T378 1336T389 1522L350 1561Q262 1561 160 1564T27 1569L20 1481L193 1456Q197 1436 209 1365T221 1231V82Q221 19 209 -52T193 -143L20 -168L27 -256Q58 -254 160 -251T350 -248L389
-209Q385 -154 378 -24T369 184V1128Q371 1206 378 1336Z" />
<glyph unicode="^" glyph-name="asciicircum" horiz-adv-x="1146" d="M573 1491L1126 731L997 641L573 1260L150 641L20 731L573 1491Z" />
<glyph unicode="_" glyph-name="underscore" horiz-adv-x="1032" d="M1022 -475H4L0 -322H1032L1022 -475Z" />
<glyph unicode="`" glyph-name="grave" horiz-adv-x="737" d="M365 1292T268 1347T135 1423L231 1546L600 1239L532 1155L383 1278Q365 1292 268 1347Z" />
<glyph unicode="a" glyph-name="a" horiz-adv-x="1034" d="M664 84T571 32T377 -20Q240 -20 160 50T80 242Q80 469 354 514L682 569V637Q682 920 489 920Q438 920 386 909T295 879L281 793V709L162 702L139 981Q323 1030 510 1030Q692 1030 770 931T848 596V342Q848
279 856 212T868 125L1010 111L995 -10Q977 -8 906 -4T731 0L702 162Q664 84 571 32ZM328 399T294 363T260 272Q260 194 299 153T410 111Q512 111 589 176T682 342V465L389 410Q328 399 294 363Z" />
<glyph unicode="b" glyph-name="b" horiz-adv-x="1134" d="M55 1554T113 1551T219 1548H338L377 1511Q375 1476 369 1369T362 1198V874Q407 942 478 986T647 1030Q844 1030 948 889T1053 524Q1053 377 996 252T831 54T582 -20Q379 -20 180 53Q182 84 189 170T197
281V1260Q197 1287 189 1342T176 1415L20 1448L31 1556Q55 1554 113 1551ZM496 905T429 803T362 561V342Q362 283 367 218T377 119Q471 94 569 94Q725 94 794 213T864 520Q864 905 616 905Q496 905 429 803Z" />
<glyph unicode="c" glyph-name="c" horiz-adv-x="954" d="M633 1030T690 1016T874 958L854 702L735 709V782Q735 802 721 852Q678 887 639 900T553 913Q410 913 342 795T274 504Q274 334 342 224T553 113Q625 113 688 129T790 162T840 186L897 90Q897 86 848 58T722
5T551 -20Q322 -20 202 121T82 504Q82 746 203 888T553 1030Q633 1030 690 1016Z" />
<glyph unicode="d" glyph-name="d" horiz-adv-x="1132" d="M1075 -8T1004 -4T829 0L801 164Q770 94 679 37T506 -20Q313 -20 204 120T94 506Q94 750 210 890T524 1030Q590 1030 645 1020T780 981V1260Q780 1287 772 1342T760 1415L580 1448L590 1556Q617 1554
684 1551T803 1548H922L961 1511Q959 1476 953 1369T946 1198V342Q946 279 954 212T967 125L1108 111L1094 -10Q1075 -8 1004 -4ZM721 870T665 887T545 905Q420 905 352 800T283 504Q283 322 346 217T520 111Q643 111 711 193T780 424V831Q721 870 665 887Z" />
<glyph unicode="e" glyph-name="e" horiz-adv-x="978" d="M631 113T698 131T812 172T858 197L915 102Q915 98 866 67T736 8T553 -20Q326 -20 204 122T82 502Q82 742 195 886T528 1030Q921 1030 922 553L887 485H274Q280 331 352 222T553 113Q631 113 698 131ZM403
924T346 830T276 590L731 623L733 664Q733 779 679 851T520 924Q403 924 346 830Z" />
<glyph unicode="f" glyph-name="f" horiz-adv-x="718" d="M664 1577T732 1569T821 1556L799 1280L690 1286V1360Q690 1380 666 1466L610 1468Q522 1468 480 1432T427 1333T416 1159V1012H702L692 901H416V342Q416 279 422 212T430 125L631 111L616 -10Q591 -8
503 -4T311 0Q258 -2 187 -5T84 -10L74 92L229 125Q233 143 241 199T250 281V901H92L86 987L141 1004Q217 1027 250 1047V1223Q250 1387 343 1482T610 1577Q664 1577 732 1569Z" />
<glyph unicode="g" glyph-name="g" horiz-adv-x="1034" d="M901 815T901 659Q901 491 793 390T506 289Q432 289 367 307Q312 244 311 221Q311 190 349 177T504 150L594 137Q684 127 771 115T899 88Q944 74 967 29T991 -90Q991 -196 922 -285T732 -428T471 -481Q272
-481 169 -406T66 -184Q66 -157 118 -100T252 23Q197 46 172 81T147 172Q147 213 295 336Q207 383 159 467T111 659Q111 827 219 928T506 1030Q623 1030 721 981L971 1020V901L807 913Q901 815 901 659ZM289 925T289 659Q289 393 506 393Q723 393 723 659Q723 925
506 926Q289 925 289 659ZM276 -68T259 -99T242 -162Q242 -266 311 -315T528 -365Q655 -365 736 -307T817 -154Q817 -107 800 -88T737 -61L471 -27Q389 -19 330 -2Q276 -68 259 -99Z" />
<glyph unicode="h" glyph-name="h" horiz-adv-x="1216" d="M76 1554T134 1551T240 1548H358L397 1511Q391 1450 387 1358T383 1198V874Q428 942 503 986T676 1030Q875 1030 948 915T1022 565V342Q1022 279 1028 212T1036 125L1196 111L1182 -10Q1164 -8 1092 -4T918
0Q869 -2 802 -5T709 -10L698 92L836 125Q856 215 856 281V565Q856 905 645 905Q526 905 456 810T383 561V342Q383 285 387 220T395 125L555 111L541 -10Q523 -8 451 -4T276 0Q223 -2 152 -5T49 -10L39 92L197 125Q203 152 210 203T217 281V1260Q217 1287 209 1342T197
1415L41 1448L51 1556Q76 1554 134 1551Z" />
<glyph unicode="i" glyph-name="i" horiz-adv-x="616" d="M381 1475T412 1440T444 1341Q444 1282 413 1246T324 1210Q267 1210 235 1246T203 1341Q203 1400 234 1437T324 1475Q381 1475 412 1440ZM557 -8T486 -4T311 0Q258 -2 187 -5T84 -10L74 92L229 125Q233
143 241 199T250 281V723Q250 748 242 804T229 879L74 911L84 1020Q109 1018 167 1015T272 1012H391L430 975Q428 940 422 833T416 662V342Q416 279 422 212T430 125L590 111L575 -10Q557 -8 486 -4Z" />
<glyph unicode="j" glyph-name="j" horiz-adv-x="571" d="M346 1475T378 1440T410 1341Q410 1282 378 1246T289 1210Q232 1210 200 1246T168 1341Q168 1400 199 1437T289 1475Q346 1475 378 1440ZM86 1018T144 1015T250 1012H369L408 975Q406 940 400 833T393
662V-20Q393 -57 338 -159T224 -357T145 -481L72 -438Q84 -407 121 -307T192 -101T227 43V240V723Q227 750 219 805T207 879L51 911L61 1020Q86 1018 144 1015Z" />
<glyph unicode="k" glyph-name="k" horiz-adv-x="1171" d="M76 1554T134 1551T240 1548H358L397 1511Q391 1450 387 1358T383 1198V342Q383 285 387 220T395 125L555 111L541 -10Q523 -8 451 -4T276 0Q223 -2 152 -5T49 -10L39 92L197 125Q203 152 210 203T217
281V1260Q217 1287 209 1342T197 1415L41 1448L51 1556Q76 1554 134 1551ZM688 1018T743 1015T844 1012Q946 1012 1015 1016T1104 1022L1110 903L956 887Q899 856 839 816T754 750L588 571L868 264Q882 250 985 172Q985 172 1053 123L1182 111L1167 -10Q1149 -8
1078 -4T903 0L694 -4L684 98L801 121L696 236L406 543L743 895L655 911L666 1018Q688 1018 743 1015Z" />
<glyph unicode="l" glyph-name="l" horiz-adv-x="600" d="M76 1554T134 1551T240 1548H358L397 1511Q391 1450 387 1358T383 1198V342Q383 285 387 220T395 125L555 111L541 -10Q523 -8 451 -4T276 0Q223 -2 152 -5T49 -10L39 92L197 125Q203 152 210 203T217
281V1260Q217 1287 209 1342T197 1415L41 1448L51 1556Q76 1554 134 1551Z" />
<glyph unicode="m" glyph-name="m" horiz-adv-x="1822" d="M1788 -10Q1770 -8 1698 -4T1524 0Q1475 -2 1408 -5T1315 -10L1305 92L1442 125Q1462 215 1462 281V565Q1462 717 1421 811T1276 905Q1161 905 1093 811T1022 565V342Q1022 279 1028 212T1036 125L1196
111L1182 -10Q1164 -8 1092 -4T918 0Q869 -2 802 -5T709 -10L698 92L836 125Q856 215 856 281V565Q856 717 815 811T670 905Q555 905 487 809T416 561V342Q416 279 422 212T430 125L590 111L575 -10Q557 -8 486 -4T311 0Q258 -2 187 -5T84 -10L74 92L229 125Q231
141 238 184T250 270V723Q250 748 242 804T229 879L74 911L84 1020Q109 1018 167 1015T272 1012H346L385 975L397 844Q438 924 518 977T705 1030Q824 1030 891 981T991 836Q1036 920 1119 975T1311 1030Q1493 1030 1560 915T1628 565V342Q1628 279 1634 212T1642
125L1802 111L1788 -10Z" />
<glyph unicode="n" glyph-name="n" horiz-adv-x="1226" d="M1188 -10Q1170 -8 1098 -4T924 0Q875 -2 808 -5T715 -10L705 92L842 125Q862 215 862 281V565Q862 905 651 905Q532 905 462 810T389 561V342Q389 279 395 212T403 125L563 111L549 -10Q531 -8 459 -4T285
0Q232 -2 160 -5T57 -10L47 92L203 125Q205 141 212 184T223 270V723Q223 750 215 805T203 879L47 911L57 1020Q82 1018 140 1015T246 1012H319L358 975L371 844Q412 922 492 976T682 1030Q881 1030 954 915T1028 565V342Q1028 279 1034 212T1042 125L1202 111L1188
-10Z" />
<glyph unicode="o" glyph-name="o" horiz-adv-x="1122" d="M1032 264T910 122T561 -20Q334 -20 212 122T90 504Q90 746 212 888T561 1030Q792 1030 912 889T1032 504Q1032 264 910 122ZM840 682T775 797T561 913Q414 913 349 798T283 504Q283 326 348 211T561
96Q708 96 774 211T840 504Q840 682 775 797Z" />
<glyph unicode="p" glyph-name="p" horiz-adv-x="1144" d="M844 1030T953 898T1063 524Q1063 368 1003 245T835 51T592 -20Q488 -20 373 31V-125Q373 -188 379 -255T387 -342L588 -356L573 -477Q548 -475 461 -471T270 -467Q231 -467 159 -471T61 -477L51 -375L186
-342Q190 -326 198 -276T207 -197V723Q207 750 199 805T186 879L31 911L41 1020Q66 1018 124 1015T229 1012H303L342 975L354 844Q387 920 473 975T643 1030Q844 1030 953 898ZM512 905T443 816T373 582V176Q482 102 580 102Q725 102 802 209T879 520Q879 710 816
807T627 905Q512 905 443 816Z" />
<glyph unicode="q" glyph-name="q" horiz-adv-x="1112" d="M1071 -477Q1046 -475 958 -471T768 -467Q729 -467 657 -471T559 -477L549 -375L748 -342Q752 -324 760 -268T768 -186V127Q725 68 644 24T494 -20Q301 -20 192 120T82 506Q82 662 135 780T286 964T512
1030Q614 1030 699 1016T950 956Q948 923 941 823T934 659V-125Q934 -188 940 -255T948 -342L1085 -356L1071 -477ZM631 111T699 193T768 424V721Q768 758 760 836L756 883Q656 906 532 905Q413 905 342 796T270 504Q270 322 333 217T508 111Q631 111 699 193Z"
/>
<glyph unicode="r" glyph-name="r" horiz-adv-x="864" d="M457 938T536 984T727 1030Q774 1030 815 1022T866 1010L846 672L727 678V786Q727 802 698 889H690Q553 887 488 809T416 582V342Q416 279 422 212T430 125L631 111L616 -10Q591 -8 503 -4T311 0Q258 -2
187 -5T84 -10L74 92L229 125Q233 143 241 199T250 281V723Q250 748 242 804T229 879L74 911L84 1020Q109 1018 167 1015T272 1012H346L385 975L397 840Q457 938 536 984Z" />
<glyph unicode="s" glyph-name="s" horiz-adv-x="845" d="M231 254Q231 240 243 204T272 133Q331 84 434 84Q516 84 563 123T610 240Q610 303 559 344T397 436Q301 481 244 517T145 612T104 758Q104 883 194 956T426 1030Q557 1030 721 995L717 702L598 709V782Q598
800 581 845T559 899Q504 924 428 924Q354 924 311 888T268 791Q268 730 321 689T481 598Q577 553 635 516T736 421T778 279Q778 -20 432 -20Q346 -20 275 -3T157 35T111 59L113 332L231 338V254Z" />
<glyph unicode="t" glyph-name="t" horiz-adv-x="704" d="M635 35T581 8T459 -20Q318 -20 262 61T205 319V901H47L41 987L96 1004Q172 1027 205 1047Q215 1059 251 1131T299 1231L371 1223V1012H657L647 901H371V270Q371 110 481 111Q514 111 550 124T611 151T643
170L700 86Q635 35 581 8Z" />
<glyph unicode="u" glyph-name="u" horiz-adv-x="1212" d="M696 1018T751 1015T852 1012H971L1010 975Q1008 940 1002 833T995 662V342Q995 279 1003 212T1016 125L1157 111L1143 -10Q1125 -8 1053 -4T879 0L852 160Q748 -20 535 -20Q400 -20 327 36T229 191T203
444V723Q203 750 195 805T182 879L47 911L57 1020Q77 1018 129 1015T225 1012H344L383 975Q381 940 375 833T369 662V375Q369 111 571 111Q692 111 760 205T829 430V723Q829 750 821 805T809 879L664 911L674 1020Q696 1018 751 1015Z" />
<glyph unicode="v" glyph-name="v" horiz-adv-x="1085" d="M891 749T852 653L616 0H479L211 705Q199 736 176 790T127 889L2 911L12 1018Q35 1018 92 1015T195 1012Q297 1012 369 1016T461 1022L467 903L344 889Q383 742 393 715L569 211L739 719Q747 742 780
889L627 911L637 1018Q657 1018 710 1015T809 1012Q911 1012 977 1016T1061 1022L1067 903L954 891Q891 749 852 653Z" />
<glyph unicode="w" glyph-name="w" horiz-adv-x="1638" d="M1475 749T1436 653L1200 0H1061L819 686L586 0H449L180 705Q168 736 145 790T96 889L12 911L23 1018Q39 1018 82 1015T164 1012Q266 1012 356 1016T471 1022L477 903L313 889Q352 742 362 715L539 211L799
1012H879L1153 211L1323 719Q1331 742 1364 889L1190 911L1200 1018Q1225 1018 1285 1015T1393 1012Q1495 1012 1553 1016T1624 1022L1630 903L1538 891Q1475 749 1436 653Z" />
<glyph unicode="x" glyph-name="x" horiz-adv-x="1112" d="M1098 -10Q1078 -8 1003 -4T825 0Q776 -2 714 -5T627 -10L616 92L743 123L678 236L539 416L412 236L348 125L477 111L463 -10Q451 -8 396 -4T238 0Q189 -2 126 -5T39 -10L29 92L156 125L322 305L465 510L301
723L152 891L47 911L57 1018Q80 1018 137 1015T242 1012Q344 1012 408 1016T489 1022L496 903L373 889L432 793L569 614L684 793L735 887L604 911L614 1018Q632 1018 681 1015T772 1012Q874 1012 942 1016T1026 1022L1032 903L907 887L768 723L639 524L807 305L987
121L1112 111L1098 -10Z" />
<glyph unicode="y" glyph-name="y" horiz-adv-x="1103" d="M764 727T778 780T805 887L655 911L666 1018Q689 1018 744 1015T844 1012Q940 1012 1002 1016T1079 1022L1085 903L977 887Q903 737 870 653L449 -481L119 -459L135 -340L217 -342Q248 -342 354 -322Q405
-250 432 -182L498 0L205 682Q174 758 100 887L0 911L10 1018Q30 1018 82 1015T178 1012Q280 1012 359 1016T459 1022L465 903L317 889Q344 772 369 715L571 213L750 688Q764 727 778 780Z" />
<glyph unicode="z" glyph-name="z" horiz-adv-x="942" d="M172 1018T233 1015T342 1012H838L852 893L676 670L426 291Q399 250 324 106H580Q603 106 700 119Q731 180 745 223Q747 235 750 258T758 305L877 293L858 33L821 -6Q792 -6 721 -3T596 0H98L84 119Q111
148 185 231T279 344L532 721Q569 778 635 905H385Q367 905 276 893Q264 866 247 824T227 766L219 686L100 694L111 979L147 1018Q172 1018 233 1015Z" />
<glyph unicode="{" glyph-name="braceleft" horiz-adv-x="557" d="M219 426T206 261T178 -37T158 -207L199 -248Q287 -248 392 -251T530 -256L537 -168L358 -143Q356 -114 349 -29T342 82Q342 174 352 332Q360 520 360 582Q333 605 296 624T246 647V666Q258 670
297 689T360 731Q360 792 352 981Q342 1139 342 1231Q342 1258 349 1342T358 1456L537 1481L530 1569Q497 1567 392 1564T199 1561L158 1520Q162 1483 177 1350T206 1052T219 778Q205 749 152 718T80 686L72 627Q97 627 151 595T219 535Q219 426 206 261Z" />
<glyph unicode="|" glyph-name="bar" horiz-adv-x="571" d="M352 1540V-250L219 -231V1556L352 1540Z" />
<glyph unicode="}" glyph-name="braceright" horiz-adv-x="557" d="M338 887T351 1052T380 1350T399 1520L358 1561Q270 1561 165 1564T27 1569L20 1481L199 1456Q201 1427 208 1342T215 1231Q215 1170 207 981Q197 823 197 731Q222 708 260 689T311 666V647Q299
643 261 624T197 582Q197 490 207 332Q215 144 215 82Q215 57 208 -29T199 -143L20 -168L27 -256Q60 -254 165 -251T358 -248L399 -207Q395 -170 380 -37T352 261T338 535Q352 564 405 595T477 627L485 686Q460 686 406 718T338 778Q338 887 351 1052Z" />
<glyph unicode="~" glyph-name="asciitilde" horiz-adv-x="1146" d="M963 631T938 603T881 551T821 526Q786 526 736 539T600 582Q502 615 437 632T319 649Q274 649 224 602T135 498T96 436L178 369Q184 377 208 404T266 456T326 481Q383 481 565 422Q671 389
728 374T827 358Q872 358 922 405T1012 510T1051 571L969 639Q963 631 938 603Z" />
<glyph unicode="&#xa0;" glyph-name="nbsp" horiz-adv-x="438" />
<glyph unicode="&#xa1;" glyph-name="exclamdown" horiz-adv-x="468" d="M147 1030T116 993T84 897Q84 838 115 802T205 766Q262 766 294 802T326 897Q326 960 294 995T205 1030Q147 1030 116 993ZM180 559T291 559L289 424L307 -451L123 -465L84 -428Q88 -391
100 -257T124 56T135 379Q135 432 133 483T129 553L143 565Q180 559 291 559Z" />
<glyph unicode="&#xa2;" glyph-name="cent" horiz-adv-x="989" d="M897 244T849 215T725 162T557 137L549 -86L477 -80L485 141Q288 161 185 299T82 662Q82 898 196 1039T528 1188L539 1411L608 1405L600 1186Q655 1182 703 1170T827 1133L874 1116L854 860L735
866V940Q735 960 721 1010Q660 1059 594 1069L563 270Q633 272 694 288T792 321T840 344L897 248Q897 244 849 215ZM274 512T327 407T492 276L524 1069Q397 1057 336 940T274 662Q274 512 327 407Z" />
<glyph unicode="&#xa3;" glyph-name="sterling" horiz-adv-x="1169" d="M1108 29L1069 -8Q1038 -6 964 -3T836 0H383Q328 -2 251 -5T141 -10L131 92L293 125Q311 244 311 281V496L106 485L102 557L311 565V713L96 702L92 774L311 784V1014Q311 1176 426 1266T723
1356Q862 1356 1108 1290L1079 989L958 1001V1083Q958 1099 934 1198Q881 1223 833 1233T721 1243Q615 1243 557 1191T498 1042V793L932 811L936 741L498 721V573L942 594L946 524L498 504V342Q498 279 504 208T512 117H774Q852 117 952 135Q993 190 995 211Q1020
307 1026 348L1139 338L1108 29Z" />
<glyph unicode="&#xa5;" glyph-name="yen" horiz-adv-x="1320" d="M745 342Q745 279 751 208T760 117L920 104L907 -8Q876 -6 774 -3T582 0Q531 0 469 -3T387 -8L377 98L535 117Q539 137 547 195T555 281V500L240 485L238 557L545 571L459 713L233 702L229 774L418
782L244 1071L121 1210L10 1227L25 1337H227L543 1348L553 1251L395 1206Q446 1081 479 1022L668 709L909 1116Q938 1179 948 1208L797 1227L811 1337H975L1292 1348L1303 1251L1163 1212L1016 1051L866 801L1073 811L1075 741L825 731L745 598V580L1079 594L1083
524L745 508V342Z" />
<glyph unicode="&#xa6;" glyph-name="brokenbar" horiz-adv-x="571" d="M352 1540V803L219 819V1556L352 1540ZM219 -231V434L352 420V-250L219 -231Z" />
<glyph unicode="&#xa7;" glyph-name="section" horiz-adv-x="1099" d="M768 479T779 504T791 557Q791 612 756 652T669 721T524 791Q409 840 338 883T215 994T164 1163Q164 1308 266 1391T528 1475Q655 1475 868 1421L844 1153L748 1163V1231Q748 1245 723 1323Q672
1343 627 1352T524 1362Q454 1362 408 1318T362 1196Q362 1118 428 1066T625 950Q727 899 789 860T895 764T938 631Q938 580 900 523T813 428L754 463Q768 479 779 504ZM342 788T334 762T326 719Q326 664 360 622T447 550T594 477Q711 422 782 379T905 266T956
94Q956 -66 844 -151T555 -236Q455 -236 373 -216T238 -171T184 -145L209 133L322 123V43Q322 16 340 -68Q444 -113 557 -113Q645 -113 697 -65T750 74Q750 137 713 183T622 262T475 338Q377 385 317 421T215 511T174 641Q174 692 213 750T301 842L358 807Q342
788 334 762Z" />
<glyph unicode="&#xa8;" glyph-name="dieresis" horiz-adv-x="737" d="M180 1460T209 1429T238 1337Q238 1280 209 1249T127 1217Q74 1217 45 1248T16 1337Q16 1394 45 1427T127 1460Q180 1460 209 1429ZM664 1460T692 1429T721 1337Q721 1280 693 1249T610 1217Q557
1217 529 1248T500 1337Q500 1394 528 1427T610 1460Q664 1460 692 1429Z" />
<glyph unicode="&#xa9;" glyph-name="copyright" horiz-adv-x="1730" d="M1614 311T1513 140T1239 -133T864 -236Q663 -236 491 -137T218 134T117 512Q117 715 218 887T491 1159T864 1260Q1069 1260 1241 1161T1513 889T1614 512Q1614 311 1513 140ZM1522 688T1433
839T1193 1080T864 1169Q686 1169 536 1082T296 844T207 512Q207 334 296 184T535 -56T864 -145Q1042 -145 1194 -56T1434 183T1522 512Q1522 688 1433 839ZM1069 80T1010 70T881 59Q676 59 569 181T461 510Q461 717 569 840T881 963Q942 963 994 955T1091 936T1151
922L1137 715L1053 721V786Q1053 800 1038 844Q948 867 883 866Q762 866 697 767T631 512Q631 356 696 256T883 156Q963 156 1049 176Q1057 194 1062 211T1067 242Q1069 260 1069 280T1069 309L1155 311L1161 100Q1069 80 1010 70Z" />
<glyph unicode="&#xaa;" glyph-name="ordfeminine" horiz-adv-x="677" d="M399 965T349 937T240 909Q154 909 104 955T53 1079Q53 1222 221 1249L412 1280V1319Q412 1391 386 1424T307 1458Q241 1458 197 1436L186 1384L188 1327L102 1323L84 1518Q205 1551 315
1550Q557 1550 557 1309V1149Q557 1110 562 1066T569 1010L651 1001L643 915Q631 917 579 919T438 922L426 1016Q399 965 349 937ZM207 1170T207 1104Q207 1018 287 1018Q332 1018 366 1046T412 1122V1206L281 1184Q207 1170 207 1104Z" />
<glyph unicode="&#xab;" glyph-name="guillemetleft" horiz-adv-x="851" d="M221 496L440 92L365 41L51 496L365 950L440 899L221 496ZM553 496L766 100L692 49L385 496L692 942L766 891L553 496Z" />
<glyph unicode="&#xac;" glyph-name="logicalnot" horiz-adv-x="1146" d="M903 492L899 141H1044V629H113V483L903 492Z" />
<glyph unicode="&#xae;" glyph-name="registered" horiz-adv-x="1730" d="M1614 311T1513 140T1239 -133T864 -236Q663 -236 491 -137T218 134T117 512Q117 715 218 887T491 1159T864 1260Q1069 1260 1241 1161T1513 889T1614 512Q1614 311 1513 140ZM1522 688T1433
839T1193 1080T864 1169Q686 1169 536 1082T296 844T207 512Q207 334 296 184T535 -56T864 -145Q1042 -145 1194 -56T1434 183T1522 512Q1522 688 1433 839ZM1147 635T1104 577T985 487Q1022 415 1059 354T1110 270Q1122 247 1171 182L1255 172L1247 96H1028L1004
164Q969 248 967 252L856 463H748V311Q748 270 754 184L844 172L836 96H745L512 90L500 158L602 184H604Q606 194 610 227T614 274V788Q614 800 610 833T604 879H602L506 887L514 956H614Q667 956 741 963Q768 965 802 967T870 969Q1001 969 1074 906T1147 717Q1147
635 1104 577ZM924 539T970 586T1016 715Q1016 805 964 852T819 899Q807 899 754 891Q748 799 748 754V537Q775 533 819 532H842Q924 539 970 586Z" />
<glyph unicode="&#xaf;" glyph-name="overscore" horiz-adv-x="737" d="M698 1329L688 1221H39V1329H698Z" />
<glyph unicode="&#xb0;" glyph-name="degree" horiz-adv-x="737" d="M678 918T595 836T369 754Q228 754 145 836T61 1059Q61 1200 144 1282T369 1364Q512 1364 595 1282T678 1059Q678 918 595 836ZM219 971T257 915T371 858Q447 858 483 915T520 1059Q520 1145
483 1202T371 1260Q295 1260 257 1204T219 1059Q219 971 257 915Z" />
<glyph unicode="&#xb1;" glyph-name="plusminus" horiz-adv-x="1146" d="M1038 627L639 623L643 223H500V621L106 616V760H500V1151H633L637 760H1038V627ZM1038 145V0H106V135L1038 145Z" />
<glyph unicode="&#xb4;" glyph-name="acute" horiz-adv-x="737" d="M565 1403T468 1348T352 1278L203 1155L135 1239L504 1546L600 1423Q565 1403 468 1348Z" />
<glyph unicode="&#xb5;" glyph-name="mu" horiz-adv-x="1187" d="M991 186T1015 143T1122 55L1083 -31L1038 -14Q954 15 905 46T836 141Q738 -21 541 -20Q416 -20 338 68L348 -158Q350 -183 366 -285T389 -422L371 -438H326Q293 -438 256 -441T207 -446L188 -430Q186
-401 193 -180Q195 -139 195 -96V731L180 1006L193 1018Q203 1018 226 1015T268 1012Q301 1012 327 1014T362 1018L375 1006Q373 967 367 850T360 670V375Q360 252 409 182T567 111Q688 111 756 205T825 430V731L811 1006L823 1018Q831 1018 855 1015T899 1012Q932
1012 958 1014T993 1018L1006 1006Q1004 967 998 850T991 670V281Q991 186 1015 143Z" />
<glyph unicode="&#xb6;" glyph-name="paragraph" horiz-adv-x="1138" d="M399 596T285 647T103 796T35 1028Q35 1243 155 1353T492 1464Q535 1464 594 1458V647L539 596Q399 596 285 647ZM887 1280T881 1233T874 1163V96Q874 69 882 -23T893 -147L854 -184H827L492
-195L481 -98L678 -53Q684 -24 690 37T696 158V1407L735 1444L1044 1454L1055 1346L893 1313Q887 1280 881 1233Z" />
<glyph unicode="&#xb7;" glyph-name="middot" horiz-adv-x="436" d="M152 756T117 716T82 612Q82 549 117 510T213 471Q274 471 309 510T344 612Q344 680 309 718T213 756Q152 756 117 716Z" />
<glyph unicode="&#xb8;" glyph-name="cedilla" horiz-adv-x="737" d="M489 -123T546 -170T604 -299Q604 -381 541 -431T385 -481Q293 -481 215 -444L242 -373Q314 -396 360 -395Q409 -395 440 -370T471 -299Q471 -254 445 -233T375 -211L332 -213L309 -193L328
20H426L397 -121Q489 -123 546 -170Z" />
<glyph unicode="&#xba;" glyph-name="ordmasculine" horiz-adv-x="706" d="M657 1075T579 990T352 905Q205 905 127 990T49 1227Q49 1381 127 1465T352 1550Q499 1550 578 1465T657 1227Q657 1075 579 990ZM492 1339T459 1398T352 1458Q280 1458 248 1399T215
1227Q215 1114 248 1056T352 997Q426 997 459 1055T492 1227Q492 1339 459 1398Z" />
<glyph unicode="&#xbb;" glyph-name="guillemetright" horiz-adv-x="849" d="M629 494L412 897L487 948L801 494L487 39L412 90L629 494ZM299 494L86 889L160 940L467 494L160 47L86 98L299 494Z" />
<glyph unicode="&#xbf;" glyph-name="questiondown" horiz-adv-x="825" d="M487 1030T456 993T424 897Q424 838 455 802T545 766Q602 766 634 802T666 897Q666 960 634 995T545 1030Q487 1030 456 993ZM215 90T283 169T473 248Q516 248 578 240L631 289V553L623
559Q521 559 483 565L469 553L477 373Q348 373 245 324T82 182T23 -35Q23 -244 143 -361T473 -479Q559 -479 633 -460T795 -399L770 -117H651L655 -190Q655 -210 652 -250T643 -309Q602 -340 561 -351T471 -362Q346 -362 281 -270T215 -37Q215 90 283 169Z" />
<glyph unicode="&#xc6;" glyph-name="AE" horiz-adv-x="1857" d="M1568 1188T1552 1249Q1550 1267 1511 1317Q1398 1327 1346 1327H975Q989 1167 997 1108L1047 791Q1162 783 1202 782H1300Q1327 782 1368 790T1423 801L1442 936L1536 926L1534 762Q1534 684 1536
622T1540 539L1442 526L1423 664Q1403 666 1344 671T1260 676H1202Q1171 676 1065 668L1114 356L1165 117H1415Q1493 117 1593 135Q1628 184 1636 211Q1661 307 1667 348L1780 338L1749 29L1710 -8Q1679 -6 1605 -3T1477 0H1030Q975 -2 898 -5T788 -10L778 92L946
125Q946 199 936 266L899 508H461L319 209L305 164Q303 156 295 125L463 111L449 -10Q431 -8 357 -4T180 0Q133 0 74 -4T-10 -10L-20 92L102 125Q208 272 227 313L707 1319L547 1343L557 1454Q588 1452 663 1449T795 1444H1407Q1432 1444 1521 1452T1640 1464L1679
1427L1694 1149L1575 1139Q1568 1188 1552 1249ZM788 1196L512 612L883 618L803 1139L788 1196Z" />
<glyph unicode="&#xc7;" glyph-name="Ccedilla" horiz-adv-x="1249" d="M877 -123T934 -170T991 -299Q991 -381 928 -431T772 -481Q680 -481 602 -444L629 -373Q701 -396 748 -395Q797 -395 827 -370T858 -299Q858 -254 832 -233T762 -211L719 -213L696 -193L711
-31Q408 -23 247 180T86 721Q86 946 159 1116T378 1380T735 1475Q846 1475 929 1459T1159 1405L1139 1102L1018 1110V1206Q1018 1226 993 1309Q930 1329 861 1342T735 1356Q522 1356 410 1179T297 723Q297 444 409 266T733 88Q794 88 870 100T1012 133Q1041 227
1040 248Q1042 260 1043 296T1044 344L1165 348L1178 39Q1072 10 985 -6T803 -29L784 -121Q877 -123 934 -170Z" />
<glyph unicode="&#xd0;" glyph-name="Eth" horiz-adv-x="1476" d="M301 1444Q360 1446 465 1454Q492 1456 558 1460T684 1464Q909 1464 1068 1374T1309 1117T1391 721Q1391 504 1306 338T1061 80T684 -12Q625 -12 545 -6Q514 -6 450 -3T338 0Q283 -2 205 -5T96
-10L86 92L248 125Q266 246 266 281V690H86V778H266V1163Q266 1200 248 1319L90 1343L100 1454L301 1444ZM453 279T458 210T467 117Q573 109 686 109Q852 109 964 189T1132 408T1188 721Q1188 897 1133 1037T965 1259T686 1341Q553 1341 467 1331Q453 1196 453
1102V778H745L735 690H453V342Q453 279 458 210Z" />
<glyph unicode="&#xd7;" glyph-name="multiply" horiz-adv-x="1101" d="M551 403L229 82L127 184L446 508L123 829L225 932L551 612L868 936L977 827L657 508L979 193L870 84L551 403Z" />
<glyph unicode="&#xd8;" glyph-name="Oslash" horiz-adv-x="1515" d="M1290 1268T1360 1103T1430 721Q1430 496 1354 327T1127 64T758 -31Q586 -31 451 31L287 -279L205 -231L367 78Q228 172 157 338T86 721Q86 946 162 1116T389 1380T758 1475Q932 1475 1069
1411L1229 1716L1315 1669L1153 1362Q1290 1268 1360 1103ZM305 569T341 441T444 225L1001 1286Q899 1366 758 1366Q611 1366 509 1281T356 1051T305 721Q305 569 341 441ZM905 78T1007 163T1160 393T1210 721Q1210 873 1176 999T1073 1212L516 156Q620 78 758
78Q905 78 1007 163Z" />
<glyph unicode="&#xde;" glyph-name="Thorn" horiz-adv-x="1198" d="M459 1270T455 1161Q611 1173 680 1174Q897 1174 1017 1063T1137 737Q1137 604 1069 506T887 357T633 305Q567 305 453 309Q457 192 467 125L651 111L637 -10Q612 -8 526 -4T338 0Q283 -2 206
-5T96 -10L86 92L248 125Q266 246 266 281V1163Q266 1200 248 1319L90 1343L100 1454Q131 1452 207 1449T338 1444Q440 1444 519 1448T618 1454L627 1333L467 1319Q459 1270 455 1161ZM539 408T592 408Q756 408 850 491T944 737Q944 899 851 985T594 1071Q559 1071
453 1059V418Q539 408 592 408Z" />
<glyph unicode="&#xdf;" glyph-name="germandbls" horiz-adv-x="1280" d="M250 246T250 281V901H92L86 987L141 1004Q217 1027 250 1047V1182Q250 1372 359 1474T664 1577Q842 1577 963 1491T1085 1247Q1085 1171 1060 1116T998 1026T903 948Q837 901 807 864T776
772Q776 719 823 681T969 592Q1059 543 1116 504T1213 407T1253 270Q1253 118 1167 49T920 -20Q838 -20 767 -3T648 35T600 59L623 338L741 332V254Q741 229 766 131Q819 84 918 84Q996 84 1037 124T1079 240Q1079 303 1030 346T879 442Q791 487 738 524T646 618T608
758Q608 854 653 909T784 1024Q864 1081 903 1126T942 1247Q942 1343 863 1399T664 1456Q560 1456 507 1417T435 1307T416 1118V342Q416 213 428 0H322Q267 -2 190 -5T80 -10L70 92L231 125Q250 246 250 281Z" />
<glyph unicode="&#xe0;" glyph-name="agrave" horiz-adv-x="1034" d="M664 84T571 32T377 -20Q240 -20 160 50T80 242Q80 469 354 514L682 569V637Q682 920 489 920Q438 920 386 909T295 879L281 793V709L162 702L139 981Q323 1030 510 1030Q692 1030 770 931T848
596V342Q848 279 856 212T868 125L1010 111L995 -10Q977 -8 906 -4T731 0L702 162Q664 84 571 32ZM328 399T294 363T260 272Q260 194 299 153T410 111Q512 111 589 176T682 342V465L389 410Q328 399 294 363ZM451 1292T354 1347T221 1423L317 1546L686 1239L618
1155L469 1278Q451 1292 354 1347Z" />
<glyph unicode="&#xe1;" glyph-name="aacute" horiz-adv-x="1034" d="M664 84T571 32T377 -20Q240 -20 160 50T80 242Q80 469 354 514L682 569V637Q682 920 489 920Q438 920 386 909T295 879L281 793V709L162 702L139 981Q323 1030 510 1030Q692 1030 770 931T848
596V342Q848 279 856 212T868 125L1010 111L995 -10Q977 -8 906 -4T731 0L702 162Q664 84 571 32ZM328 399T294 363T260 272Q260 194 299 153T410 111Q512 111 589 176T682 342V465L389 410Q328 399 294 363ZM733 1403T636 1348T520 1278L371 1155L303 1239L672
1546L768 1423Q733 1403 636 1348Z" />
<glyph unicode="&#xe2;" glyph-name="acircumflex" horiz-adv-x="1034" d="M664 84T571 32T377 -20Q240 -20 160 50T80 242Q80 469 354 514L682 569V637Q682 920 489 920Q438 920 386 909T295 879L281 793V709L162 702L139 981Q323 1030 510 1030Q692 1030 770
931T848 596V342Q848 279 856 212T868 125L1010 111L995 -10Q977 -8 906 -4T731 0L702 162Q664 84 571 32ZM328 399T294 363T260 272Q260 194 299 153T410 111Q512 111 589 176T682 342V465L389 410Q328 399 294 363ZM768 1155L616 1280Q604 1290 582 1306T535
1341Q523 1349 513 1356T496 1368Q490 1364 480 1357T457 1341Q432 1323 410 1307T375 1280L223 1155L156 1221L496 1567L836 1221L768 1155Z" />
<glyph unicode="&#xe3;" glyph-name="atilde" horiz-adv-x="1034" d="M664 84T571 32T377 -20Q240 -20 160 50T80 242Q80 469 354 514L682 569V637Q682 920 489 920Q438 920 386 909T295 879L281 793V709L162 702L139 981Q323 1030 510 1030Q692 1030 770 931T848
596V342Q848 279 856 212T868 125L1010 111L995 -10Q977 -8 906 -4T731 0L702 162Q664 84 571 32ZM328 399T294 363T260 272Q260 194 299 153T410 111Q512 111 589 176T682 342V465L389 410Q328 399 294 363ZM823 1423T798 1374T734 1280T659 1235Q614 1235 502
1278Q387 1319 344 1319Q319 1319 295 1295T255 1245T236 1210L162 1253Q168 1269 193 1319T256 1416T330 1462Q357 1462 400 1450T489 1421Q598 1378 647 1378Q672 1378 696 1400T736 1448T756 1481L829 1438Q823 1423 798 1374Z" />
<glyph unicode="&#xe4;" glyph-name="adieresis" horiz-adv-x="1034" d="M664 84T571 32T377 -20Q240 -20 160 50T80 242Q80 469 354 514L682 569V637Q682 920 489 920Q438 920 386 909T295 879L281 793V709L162 702L139 981Q323 1030 510 1030Q692 1030 770 931T848
596V342Q848 279 856 212T868 125L1010 111L995 -10Q977 -8 906 -4T731 0L702 162Q664 84 571 32ZM328 399T294 363T260 272Q260 194 299 153T410 111Q512 111 589 176T682 342V465L389 410Q328 399 294 363ZM307 1460T336 1429T365 1337Q365 1280 336 1249T254
1217Q201 1217 172 1248T143 1337Q143 1394 172 1427T254 1460Q307 1460 336 1429ZM791 1460T819 1429T848 1337Q848 1280 820 1249T737 1217Q684 1217 656 1248T627 1337Q627 1394 655 1427T737 1460Q791 1460 819 1429Z" />
<glyph unicode="&#xe6;" glyph-name="ae" horiz-adv-x="1548" d="M326 1030T512 1030Q723 1030 795 897Q916 1028 1102 1028Q1464 1028 1491 635L1460 557L848 487Q854 319 937 216T1147 113Q1219 113 1282 131T1389 172T1432 197L1489 102Q1489 98 1435 67T1301
8T1126 -20Q993 -20 896 41T748 217Q609 -21 379 -20Q242 -20 162 53T82 252Q82 356 142 421T317 506L684 567V637Q684 920 492 920Q379 920 301 881L283 784V711L164 705L141 981Q326 1030 512 1030ZM989 922T926 836T852 592L1307 655V659Q1307 784 1251 853T1094
922Q989 922 926 836ZM322 395T292 362T262 262Q262 190 301 151T412 111Q488 111 550 154T648 272T684 440V463L391 410Q322 395 292 362Z" />
<glyph unicode="&#xe7;" glyph-name="ccedilla" horiz-adv-x="954" d="M668 -123T725 -170T782 -299Q782 -381 719 -431T563 -481Q471 -481 393 -444L420 -373Q492 -396 539 -395Q588 -395 618 -370T649 -299Q649 -254 623 -233T553 -211L510 -213L487 -193L502
-18Q297 -4 190 135T82 504Q82 746 203 888T553 1030Q633 1030 690 1016T874 958L854 702L735 709V782Q735 800 721 852Q678 887 639 900T553 913Q410 913 342 795T274 504Q274 334 342 224T553 113Q625 113 688 129T790 162T840 186L897 90Q897 88 855 63T746
13T596 -18L575 -121Q668 -123 725 -170Z" />
<glyph unicode="&#xe8;" glyph-name="egrave" horiz-adv-x="978" d="M631 113T698 131T812 172T858 197L915 102Q915 98 866 67T736 8T553 -20Q326 -20 204 122T82 502Q82 742 195 886T528 1030Q921 1030 922 553L887 485H274Q280 331 352 222T553 113Q631 113
698 131ZM403 924T346 830T276 590L731 623L733 664Q733 779 679 851T520 924Q403 924 346 830ZM490 1292T393 1347T260 1423L356 1546L725 1239L657 1155L508 1278Q490 1292 393 1347Z" />
<glyph unicode="&#xe9;" glyph-name="eacute" horiz-adv-x="978" d="M631 113T698 131T812 172T858 197L915 102Q915 98 866 67T736 8T553 -20Q326 -20 204 122T82 502Q82 742 195 886T528 1030Q921 1030 922 553L887 485H274Q280 331 352 222T553 113Q631 113
698 131ZM403 924T346 830T276 590L731 623L733 664Q733 779 679 851T520 924Q403 924 346 830ZM772 1403T675 1348T559 1278L410 1155L342 1239L711 1546L807 1423Q772 1403 675 1348Z" />
<glyph unicode="&#xea;" glyph-name="ecircumflex" horiz-adv-x="978" d="M631 113T698 131T812 172T858 197L915 102Q915 98 866 67T736 8T553 -20Q326 -20 204 122T82 502Q82 742 195 886T528 1030Q921 1030 922 553L887 485H274Q280 331 352 222T553 113Q631
113 698 131ZM403 924T346 830T276 590L731 623L733 664Q733 779 679 851T520 924Q403 924 346 830ZM807 1155L655 1280Q643 1290 621 1306T574 1341Q562 1349 552 1356T535 1368Q529 1364 519 1357T496 1341Q471 1323 449 1307T414 1280L262 1155L195 1221L535
1567L875 1221L807 1155Z" />
<glyph unicode="&#xeb;" glyph-name="edieresis" horiz-adv-x="978" d="M631 113T698 131T812 172T858 197L915 102Q915 98 866 67T736 8T553 -20Q326 -20 204 122T82 502Q82 742 195 886T528 1030Q921 1030 922 553L887 485H274Q280 331 352 222T553 113Q631
113 698 131ZM403 924T346 830T276 590L731 623L733 664Q733 779 679 851T520 924Q403 924 346 830ZM346 1460T375 1429T404 1337Q404 1280 375 1249T293 1217Q240 1217 211 1248T182 1337Q182 1394 211 1427T293 1460Q346 1460 375 1429ZM830 1460T858 1429T887
1337Q887 1280 859 1249T776 1217Q723 1217 695 1248T666 1337Q666 1394 694 1427T776 1460Q830 1460 858 1429Z" />
<glyph unicode="&#xf0;" glyph-name="eth" horiz-adv-x="1112" d="M883 1161T954 952T1026 516Q1026 270 903 125T553 -20Q408 -20 303 43T141 221T84 483Q84 628 139 744T296 924T528 989Q567 989 600 981T672 956L655 864Q602 872 547 872Q414 872 347 761T279
483Q279 317 345 207T553 96Q700 96 767 214T834 514Q834 991 625 1257L371 1126L326 1198L567 1323Q473 1417 344 1483L383 1567Q551 1501 678 1380L913 1503L958 1427L741 1317Q883 1161 954 952Z" />
<glyph unicode="&#xf1;" glyph-name="ntilde" horiz-adv-x="1226" d="M1188 -10Q1170 -8 1098 -4T924 0Q875 -2 808 -5T715 -10L705 92L842 125Q862 215 862 281V565Q862 905 651 905Q532 905 462 810T389 561V342Q389 279 395 212T403 125L563 111L549 -10Q531
-8 459 -4T285 0Q232 -2 160 -5T57 -10L47 92L203 125Q205 141 212 184T223 270V723Q223 750 215 805T203 879L47 911L57 1020Q82 1018 140 1015T246 1012H319L358 975L371 844Q412 922 492 976T682 1030Q881 1030 954 915T1028 565V342Q1028 279 1034 212T1042
125L1202 111L1188 -10ZM946 1423T921 1374T857 1280T782 1235Q737 1235 625 1278Q510 1319 467 1319Q442 1319 418 1295T378 1245T359 1210L285 1253Q291 1269 316 1319T379 1416T453 1462Q480 1462 523 1450T612 1421Q721 1378 770 1378Q795 1378 819 1400T859
1448T879 1481L952 1438Q946 1423 921 1374Z" />
<glyph unicode="&#xf2;" glyph-name="ograve" horiz-adv-x="1122" d="M1032 264T910 122T561 -20Q334 -20 212 122T90 504Q90 746 212 888T561 1030Q792 1030 912 889T1032 504Q1032 264 910 122ZM840 682T775 797T561 913Q414 913 349 798T283 504Q283 326 348
211T561 96Q708 96 774 211T840 504Q840 682 775 797ZM519 1292T422 1347T289 1423L385 1546L754 1239L686 1155L537 1278Q519 1292 422 1347Z" />
<glyph unicode="&#xf3;" glyph-name="oacute" horiz-adv-x="1122" d="M1032 264T910 122T561 -20Q334 -20 212 122T90 504Q90 746 212 888T561 1030Q792 1030 912 889T1032 504Q1032 264 910 122ZM840 682T775 797T561 913Q414 913 349 798T283 504Q283 326 348
211T561 96Q708 96 774 211T840 504Q840 682 775 797ZM801 1403T704 1348T588 1278L439 1155L371 1239L740 1546L836 1423Q801 1403 704 1348Z" />
<glyph unicode="&#xf4;" glyph-name="ocircumflex" horiz-adv-x="1122" d="M1032 264T910 122T561 -20Q334 -20 212 122T90 504Q90 746 212 888T561 1030Q792 1030 912 889T1032 504Q1032 264 910 122ZM840 682T775 797T561 913Q414 913 349 798T283 504Q283 326
348 211T561 96Q708 96 774 211T840 504Q840 682 775 797ZM836 1155L684 1280Q672 1290 650 1306T603 1341Q591 1349 581 1356T564 1368Q558 1364 548 1357T525 1341Q500 1323 478 1307T443 1280L291 1155L224 1221L564 1567L904 1221L836 1155Z" />
<glyph unicode="&#xf5;" glyph-name="otilde" horiz-adv-x="1122" d="M1032 264T910 122T561 -20Q334 -20 212 122T90 504Q90 746 212 888T561 1030Q792 1030 912 889T1032 504Q1032 264 910 122ZM840 682T775 797T561 913Q414 913 349 798T283 504Q283 326 348
211T561 96Q708 96 774 211T840 504Q840 682 775 797ZM891 1423T866 1374T802 1280T727 1235Q682 1235 570 1278Q455 1319 412 1319Q387 1319 363 1295T323 1245T304 1210L230 1253Q236 1269 261 1319T324 1416T398 1462Q425 1462 468 1450T557 1421Q666 1378 715
1378Q740 1378 764 1400T804 1448T824 1481L897 1438Q891 1423 866 1374Z" />
<glyph unicode="&#xf6;" glyph-name="odieresis" horiz-adv-x="1122" d="M1032 264T910 122T561 -20Q334 -20 212 122T90 504Q90 746 212 888T561 1030Q792 1030 912 889T1032 504Q1032 264 910 122ZM840 682T775 797T561 913Q414 913 349 798T283 504Q283 326
348 211T561 96Q708 96 774 211T840 504Q840 682 775 797ZM375 1460T404 1429T433 1337Q433 1280 404 1249T322 1217Q269 1217 240 1248T211 1337Q211 1394 240 1427T322 1460Q375 1460 404 1429ZM859 1460T887 1429T916 1337Q916 1280 888 1249T805 1217Q752 1217
724 1248T695 1337Q695 1394 723 1427T805 1460Q859 1460 887 1429Z" />
<glyph unicode="&#xf7;" glyph-name="divide" horiz-adv-x="1146" d="M530 999T499 963T467 866Q467 807 498 771T588 735Q645 735 677 771T709 866Q709 929 677 964T588 999Q530 999 499 963ZM1038 436V582L106 571V436H1038ZM530 276T499 240T467 143Q467 84
498 48T588 12Q645 12 677 48T709 143Q709 206 677 241T588 276Q530 276 499 240Z" />
<glyph unicode="&#xf8;" glyph-name="oslash" horiz-adv-x="1105" d="M938 870T981 760T1024 504Q1024 264 902 122T553 -20Q442 -20 362 12L250 -203L170 -162L283 53Q185 116 134 233T82 504Q82 746 204 888T553 1030Q678 1030 774 985L901 1225L983 1184L854
938Q938 870 981 760ZM274 296T354 190L711 862Q648 913 553 913Q406 913 340 798T274 504Q274 296 354 190ZM700 96T765 211T831 504Q831 682 772 786L424 127Q481 96 553 96Q700 96 765 211Z" />
<glyph unicode="&#xf9;" glyph-name="ugrave" horiz-adv-x="1212" d="M696 1018T751 1015T852 1012H971L1010 975Q1008 940 1002 833T995 662V342Q995 279 1003 212T1016 125L1157 111L1143 -10Q1125 -8 1053 -4T879 0L852 160Q748 -20 535 -20Q400 -20 327 36T229
191T203 444V723Q203 750 195 805T182 879L47 911L57 1020Q77 1018 129 1015T225 1012H344L383 975Q381 940 375 833T369 662V375Q369 111 571 111Q692 111 760 205T829 430V723Q829 750 821 805T809 879L664 911L674 1020Q696 1018 751 1015ZM517 1292T420 1347T287
1423L383 1546L752 1239L684 1155L535 1278Q517 1292 420 1347Z" />
<glyph unicode="&#xfa;" glyph-name="uacute" horiz-adv-x="1212" d="M696 1018T751 1015T852 1012H971L1010 975Q1008 940 1002 833T995 662V342Q995 279 1003 212T1016 125L1157 111L1143 -10Q1125 -8 1053 -4T879 0L852 160Q748 -20 535 -20Q400 -20 327 36T229
191T203 444V723Q203 750 195 805T182 879L47 911L57 1020Q77 1018 129 1015T225 1012H344L383 975Q381 940 375 833T369 662V375Q369 111 571 111Q692 111 760 205T829 430V723Q829 750 821 805T809 879L664 911L674 1020Q696 1018 751 1015ZM798 1403T701 1348T585
1278L436 1155L368 1239L737 1546L833 1423Q798 1403 701 1348Z" />
<glyph unicode="&#xfb;" glyph-name="ucircumflex" horiz-adv-x="1212" d="M696 1018T751 1015T852 1012H971L1010 975Q1008 940 1002 833T995 662V342Q995 279 1003 212T1016 125L1157 111L1143 -10Q1125 -8 1053 -4T879 0L852 160Q748 -20 535 -20Q400 -20 327
36T229 191T203 444V723Q203 750 195 805T182 879L47 911L57 1020Q77 1018 129 1015T225 1012H344L383 975Q381 940 375 833T369 662V375Q369 111 571 111Q692 111 760 205T829 430V723Q829 750 821 805T809 879L664 911L674 1020Q696 1018 751 1015ZM834 1155L682
1280Q670 1290 648 1306T601 1341Q589 1349 579 1356T562 1368Q556 1364 546 1357T523 1341Q498 1323 476 1307T441 1280L289 1155L222 1221L562 1567L902 1221L834 1155Z" />
<glyph unicode="&#xfc;" glyph-name="udieresis" horiz-adv-x="1212" d="M696 1018T751 1015T852 1012H971L1010 975Q1008 940 1002 833T995 662V342Q995 279 1003 212T1016 125L1157 111L1143 -10Q1125 -8 1053 -4T879 0L852 160Q748 -20 535 -20Q400 -20 327
36T229 191T203 444V723Q203 750 195 805T182 879L47 911L57 1020Q77 1018 129 1015T225 1012H344L383 975Q381 940 375 833T369 662V375Q369 111 571 111Q692 111 760 205T829 430V723Q829 750 821 805T809 879L664 911L674 1020Q696 1018 751 1015ZM373 1460T402
1429T431 1337Q431 1280 402 1249T320 1217Q267 1217 238 1248T209 1337Q209 1394 238 1427T320 1460Q373 1460 402 1429ZM857 1460T885 1429T914 1337Q914 1280 886 1249T803 1217Q750 1217 722 1248T693 1337Q693 1394 721 1427T803 1460Q857 1460 885 1429Z"
/>
<glyph unicode="&#xfd;" glyph-name="yacute" horiz-adv-x="1103" d="M764 727T778 780T805 887L655 911L666 1018Q689 1018 744 1015T844 1012Q940 1012 1002 1016T1079 1022L1085 903L977 887Q903 737 870 653L449 -481L119 -459L135 -340L217 -342Q248 -342
354 -322Q405 -250 432 -182L498 0L205 682Q174 758 100 887L0 911L10 1018Q30 1018 82 1015T178 1012Q280 1012 359 1016T459 1022L465 903L317 889Q344 772 369 715L571 213L750 688Q764 727 778 780ZM790 1403T693 1348T577 1278L428 1155L360 1239L729 1546L825
1423Q790 1403 693 1348Z" />
<glyph unicode="&#xfe;" glyph-name="thorn" horiz-adv-x="1116" d="M37 1554T95 1551T201 1548H319L358 1511L344 1225V874Q373 929 454 979T614 1030Q815 1030 924 898T1034 524Q1034 368 974 245T806 51T563 -20Q459 -20 344 31V-125Q344 -188 350 -255T358
-342L559 -356L545 -477Q520 -475 432 -471T242 -467Q203 -467 130 -471T33 -477L23 -375L158 -342Q162 -326 170 -276T178 -197V1260Q178 1285 170 1341T158 1415L2 1448L12 1556Q37 1554 95 1551ZM485 905T415 807T344 561V176Q450 102 551 102Q696 102 773 209T850
520Q850 710 787 807T598 905Q485 905 415 807Z" />
<glyph unicode="&#xff;" glyph-name="ydieresis" horiz-adv-x="1103" d="M764 727T778 780T805 887L655 911L666 1018Q689 1018 744 1015T844 1012Q940 1012 1002 1016T1079 1022L1085 903L977 887Q903 737 870 653L449 -481L119 -459L135 -340L217 -342Q248 -342
354 -322Q405 -250 432 -182L498 0L205 682Q174 758 100 887L0 911L10 1018Q30 1018 82 1015T178 1012Q280 1012 359 1016T459 1022L465 903L317 889Q344 772 369 715L571 213L750 688Q764 727 778 780ZM364 1460T393 1429T422 1337Q422 1280 393 1249T311 1217Q258
1217 229 1248T200 1337Q200 1394 229 1427T311 1460Q364 1460 393 1429ZM848 1460T876 1429T905 1337Q905 1280 877 1249T794 1217Q741 1217 713 1248T684 1337Q684 1394 712 1427T794 1460Q848 1460 876 1429Z" />
<glyph unicode="&#x2013;" glyph-name="endash" horiz-adv-x="1032" d="M1022 442H4L0 596H1032L1022 442Z" />
<glyph unicode="&#x2014;" glyph-name="emdash" horiz-adv-x="2060" d="M2050 442H4L0 596H2060L2050 442Z" />
<glyph unicode="&#x2018;" glyph-name="quoteleft" horiz-adv-x="393" d="M199 1397T236 1448T340 1528L326 1577Q203 1550 131 1450T59 1235Q59 1163 94 1113T193 1063Q248 1063 286 1105T324 1204Q324 1259 289 1296T199 1333Q199 1397 236 1448Z" />
<glyph unicode="&#x2019;" glyph-name="quoteright" horiz-adv-x="393" d="M195 1243T157 1192T53 1112L68 1063Q191 1090 262 1190T334 1405Q334 1477 299 1527T201 1577Q146 1577 108 1535T70 1436Q70 1381 104 1344T195 1307Q195 1243 157 1192Z" />
<glyph unicode="&#x201a;" glyph-name="quotesinglbase" horiz-adv-x="442" d="M211 -84T173 -135T69 -215L84 -264Q207 -237 278 -137T350 78Q350 150 315 200T217 250Q162 250 124 208T86 109Q86 54 120 17T211 -20Q211 -84 173 -135Z" />
<glyph unicode="&#x201c;" glyph-name="quotedblleft" horiz-adv-x="737" d="M211 1397T248 1448T352 1528L338 1577Q215 1550 143 1450T71 1235Q71 1163 106 1113T205 1063Q260 1063 298 1105T336 1204Q336 1259 301 1296T211 1333Q211 1397 248 1448ZM539 1397T576
1448T680 1528L666 1577Q543 1550 471 1450T399 1235Q399 1163 434 1113T533 1063Q588 1063 626 1105T664 1204Q664 1259 629 1296T539 1333Q539 1397 576 1448Z" />
<glyph unicode="&#x201d;" glyph-name="quotedblright" horiz-adv-x="757" d="M215 1489T177 1438T73 1358L88 1309Q211 1336 282 1436T354 1651Q354 1723 319 1773T221 1823Q166 1823 128 1781T90 1682Q90 1627 124 1590T215 1553Q215 1489 177 1438ZM545 1233T507
1182T403 1102L418 1053Q541 1080 612 1180T684 1395Q684 1467 649 1517T551 1567Q496 1567 458 1525T420 1426Q420 1371 454 1334T545 1297Q545 1233 507 1182Z" />
<glyph unicode="&#x201e;" glyph-name="quotedblbase" horiz-adv-x="772" d="M211 -84T173 -135T69 -215L84 -264Q207 -237 278 -137T350 78Q350 150 315 200T217 250Q162 250 124 208T86 109Q86 54 120 17T211 -20Q211 -84 173 -135ZM541 -84T503 -135T399 -215L414
-264Q537 -237 608 -137T680 78Q680 150 645 200T547 250Q492 250 454 208T416 109Q416 54 450 17T541 -20Q541 -84 503 -135Z" />
<glyph unicode="&#x2022;" glyph-name="bullet" horiz-adv-x="471" d="M158 696T115 647T72 518Q72 438 115 390T236 342Q314 342 356 390T399 518Q399 602 356 649T236 696Q158 696 115 647Z" />
<glyph unicode="&#x2039;" glyph-name="guilsinglleft" horiz-adv-x="526" d="M440 92L365 41L51 496L365 950L440 899L223 496L440 92Z" />
<glyph unicode="&#x203a;" glyph-name="guilsinglright" horiz-adv-x="526" d="M162 39L86 90L303 494L86 897L162 948L475 494L162 39Z" />
</font>
</defs>
</svg>
