<?xml version="1.0" standalone="no"?>
<!DOCTYPE svg PUBLIC "-//W3C//DTD SVG 1.1//EN" "http://www.w3.org/Graphics/SVG/1.1/DTD/svg11.dtd">
<svg xmlns="http://www.w3.org/2000/svg">
<defs >
<font id="EncodeSansExpanded" horiz-adv-x="1231" ><font-face
    font-family="Encode Sans Expanded Light"
    units-per-em="2000"
    panose-1="0 0 4 5 0 0 0 0 0 0"
    ascent="2060"
    descent="-440"
    alphabetic="0" />
<glyph unicode=" " glyph-name="space" horiz-adv-x="553" />
<glyph unicode="!" glyph-name="exclam" horiz-adv-x="527" d="M223 347L198 905V1480H329V905L304 347H223ZM221 -11T195 12T169 75Q169 115 194 139T263 164Q306 164 331 140T357 75Q357 35 332 12T263 -11Q221 -11 195 12Z" />
<glyph unicode="&quot;" glyph-name="quotedbl" horiz-adv-x="793" d="M188 932L159 1616H290L262 932H188ZM532 932L503 1616H634L606 932H532Z" />
<glyph unicode="#" glyph-name="numbersign" horiz-adv-x="1234" d="M1124 905H896L854 575H1124V469H841L783 0H676L734 469H432L374 0H267L325 469H110V575H338L380 905H110V1011H393L451 1480H558L500 1011H802L860 1480H967L909 1011H1124V905ZM747 575L789
905H487L445 575H747Z" />
<glyph unicode="$" glyph-name="dollar" horiz-adv-x="1186" d="M1089 222T976 118T652 -11V-240H535V-18H525Q424 -18 319 -2T118 46V156Q220 122 326 106T526 90Q961 90 961 390Q961 473 925 527T812 617T605 678L523 694Q302 736 200 833T97 1092Q97 1261 208
1365T535 1492V1720H652V1498Q851 1498 1024 1446V1336Q842 1390 652 1390Q437 1390 331 1315T224 1098Q224 1015 256 960T359 869T552 809L635 793Q797 761 897 709T1043 580T1089 396Q1089 222 976 118Z" />
<glyph unicode="%" glyph-name="percent" horiz-adv-x="1946" d="M320 576T225 689T129 1037Q129 1272 223 1385T481 1498Q644 1498 738 1385T833 1037Q833 803 738 690T481 576Q320 576 225 689ZM537 0L1293 1480H1410L654 0H537ZM725 670T725 1035Q725 1229
660 1317T481 1405Q366 1405 302 1318T237 1039Q237 846 301 758T481 670Q725 670 725 1035ZM1304 -18T1209 95T1113 443Q1113 678 1207 791T1465 904Q1628 904 1722 791T1817 443Q1817 209 1722 96T1465 -18Q1304 -18 1209 95ZM1709 75T1709 441Q1709 635 1644
723T1465 811Q1351 811 1286 724T1221 445Q1221 252 1286 164T1465 75Q1709 75 1709 441Z" />
<glyph unicode="&amp;" glyph-name="ampersand" horiz-adv-x="1652" d="M1596 -20L1295 186Q1219 86 1085 34T763 -18Q561 -18 427 35T228 182T164 401Q164 539 237 643T448 808Q393 873 369 938T345 1081Q345 1281 483 1389T896 1498Q1057 1498 1182 1465V1354Q1058
1390 899 1390Q676 1390 575 1310T473 1078Q473 1004 497 946T587 825T776 673L1259 342Q1284 411 1284 504Q1284 570 1271 641T1233 781H1344Q1391 650 1391 503Q1391 379 1350 280L1652 73L1596 -20ZM927 82T1037 123T1208 246L720 580Q587 671 518 735Q403 683
348 603T292 413Q292 260 407 171T772 82Q927 82 1037 123Z" />
<glyph unicode="&apos;" glyph-name="quotesingle" horiz-adv-x="449" d="M188 932L159 1616H290L262 932H188Z" />
<glyph unicode="(" glyph-name="parenleft" horiz-adv-x="724" d="M339 -228T245 32T150 588Q150 883 244 1143T537 1616H683Q470 1388 374 1135T278 588Q278 295 374 42T683 -440H537Q339 -228 245 32Z" />
<glyph unicode=")" glyph-name="parenright" horiz-adv-x="724" d="M254 -212T350 41T446 588Q446 881 350 1134T41 1616H187Q385 1404 479 1144T574 588Q574 293 480 33T187 -440H41Q254 -212 350 41Z" />
<glyph unicode="*" glyph-name="asterisk" horiz-adv-x="937" d="M516 1188L648 1038L758 889L681 833L571 982L469 1158L367 982L256 833L179 889L289 1038L421 1188L228 1232L30 1295L60 1385L256 1321L441 1241L421 1441V1616H516V1441L497 1241L681 1321L878
1385L907 1295L709 1232L516 1188Z" />
<glyph unicode="+" glyph-name="plus" horiz-adv-x="1120" d="M506 363V708H179V812H506V1157H615V812H941V708H615V363H506Z" />
<glyph unicode="," glyph-name="comma" horiz-adv-x="487" d="M287 169T312 140T337 50Q337 -45 314 -137T249 -308H175Q206 -223 222 -152T242 -11Q201 -11 175 14T149 80Q149 120 174 144T241 169Q287 169 312 140Z" />
<glyph unicode="-" glyph-name="hyphen" horiz-adv-x="953" d="M179 508V615H773V508H179Z" />
<glyph unicode="." glyph-name="period" horiz-adv-x="487" d="M201 -11T175 13T149 78Q149 119 174 144T243 169Q286 169 311 144T337 78Q337 38 312 14T243 -11Q201 -11 175 13Z" />
<glyph unicode="/" glyph-name="slash" horiz-adv-x="679" d="M0 -240L554 1616H679L124 -240H0Z" />
<glyph unicode="0" glyph-name="zero" horiz-adv-x="1390" d="M431 -18T286 163T140 740Q140 1137 284 1317T695 1498Q962 1498 1106 1318T1250 740Q1250 344 1105 163T695 -18Q431 -18 286 163ZM831 92T925 152T1071 354T1123 737Q1123 980 1071 1123T925 1327T695
1388Q559 1388 465 1328T320 1126T268 743Q268 500 319 357T465 153T695 92Q831 92 925 152Z" />
<glyph unicode="1" glyph-name="one" horiz-adv-x="833" d="M535 1484H619V0H494V1321L29 993V1123L535 1484Z" />
<glyph unicode="2" glyph-name="two" horiz-adv-x="1098" d="M1022 107V0H77V69L559 624Q690 776 743 881T796 1089Q796 1244 707 1317T433 1390Q228 1390 59 1328V1438Q136 1466 233 1482T438 1498Q922 1498 922 1100Q922 1012 897 934T814 768T654 563L256 107H1022Z" />
<glyph unicode="3" glyph-name="three" horiz-adv-x="1110" d="M860 740T945 647T1031 407Q1031 204 890 93T458 -18Q358 -18 256 -2T63 44V149Q161 118 262 102T457 85Q909 85 909 413Q909 557 810 632T510 708H292V812H394Q855 812 855 1117Q855 1249 759 1322T482
1395Q290 1395 113 1338V1443Q287 1498 490 1498Q646 1498 755 1454T922 1325T979 1124Q979 995 904 904T698 772Q860 740 945 647Z" />
<glyph unicode="4" glyph-name="four" horiz-adv-x="1295" d="M1247 472V366H1013V0H894V366H55V436L723 1480H854L209 472H894L912 980H1013V472H1247Z" />
<glyph unicode="5" glyph-name="five" horiz-adv-x="1127" d="M642 831T786 781T994 642T1059 419Q1059 205 914 94T485 -18Q387 -18 284 -2T90 45V150Q186 119 287 103T485 86Q712 86 824 169T937 418Q937 522 884 588T707 692T369 742L157 754L209 1480H996V1378H323L285
852L403 845Q642 831 786 781Z" />
<glyph unicode="6" glyph-name="six" horiz-adv-x="1268" d="M925 841T1058 732T1192 410Q1192 273 1132 177T964 31T710 -18Q439 -18 293 154T147 692Q147 1093 317 1295T817 1498Q1000 1498 1121 1451V1345Q1058 1370 978 1382T823 1394Q548 1394 411 1229T272
729Q352 781 462 811T682 841Q925 841 1058 732ZM878 83T975 164T1072 407Q1072 574 968 657T665 740Q565 740 458 711T273 627Q282 340 392 212T710 83Q878 83 975 164Z" />
<glyph unicode="7" glyph-name="seven" horiz-adv-x="1032" d="M15 1480H970V1411L335 0H202L826 1373H15V1480Z" />
<glyph unicode="8" glyph-name="eight" horiz-adv-x="1390" d="M1108 691T1187 603T1266 384Q1266 261 1202 171T1012 31T704 -18Q418 -18 271 83T123 375Q123 515 201 614T423 767Q295 824 237 909T179 1114Q179 1232 239 1318T416 1451T695 1498Q857 1498 972
1454T1148 1326T1209 1125Q1209 993 1140 898T933 745Q1108 691 1187 603ZM303 1027T345 965T484 860T750 788L808 777Q957 835 1025 915T1093 1115Q1093 1253 989 1326T692 1399Q501 1399 402 1325T303 1118Q303 1027 345 965ZM920 81T1031 157T1143 376Q1143
462 1100 520T962 619T705 688Q604 705 532 728Q391 682 319 593T246 388Q246 237 363 159T706 81Q920 81 1031 157Z" />
<glyph unicode="9" glyph-name="nine" horiz-adv-x="1268" d="M829 1498T975 1326T1121 788Q1121 387 951 185T451 -18Q268 -18 147 29V135Q210 110 290 98T445 86Q720 86 857 251T996 751Q916 699 806 669T586 639Q343 639 210 748T76 1070Q76 1207 136 1303T304
1449T558 1498Q829 1498 975 1326ZM196 906T300 823T603 740Q703 740 810 769T995 853Q986 1140 876 1268T558 1397Q390 1397 293 1316T196 1073Q196 906 300 823Z" />
<glyph unicode=":" glyph-name="colon" horiz-adv-x="487" d="M201 -11T175 13T149 78Q149 119 174 144T243 169Q286 169 311 144T337 78Q337 38 312 14T243 -11Q201 -11 175 13ZM201 914T175 938T149 1003Q149 1044 174 1069T243 1094Q286 1094 311 1069T337
1003Q337 963 312 939T243 914Q201 914 175 938Z" />
<glyph unicode=";" glyph-name="semicolon" horiz-adv-x="487" d="M287 169T312 140T337 50Q337 -45 314 -137T249 -308H175Q206 -223 222 -152T242 -11Q201 -11 175 14T149 80Q149 120 174 144T241 169Q287 169 312 140ZM201 914T175 938T149 1003Q149 1044 174
1069T243 1094Q286 1094 311 1069T337 1003Q337 963 312 939T243 914Q201 914 175 938Z" />
<glyph unicode="&lt;" glyph-name="less" horiz-adv-x="1120" d="M941 1140V1030L302 760L941 490V380L179 707V813L941 1140Z" />
<glyph unicode="=" glyph-name="equal" horiz-adv-x="1120" d="M179 900V1003H941V900H179ZM179 517V620H941V517H179Z" />
<glyph unicode="&gt;" glyph-name="greater" horiz-adv-x="1120" d="M179 1140L941 813V707L179 380V490L819 760L179 1030V1140Z" />
<glyph unicode="?" glyph-name="question" horiz-adv-x="980" d="M391 746Q542 790 628 841T752 959T789 1117Q789 1248 693 1320T416 1392Q225 1392 47 1336V1443Q223 1498 425 1498Q580 1498 689 1454T856 1325T913 1123Q913 1011 874 930T746 787T506 673L493
333H413L391 746ZM411 -11T385 13T359 75Q359 115 384 139T453 164Q496 164 522 140T548 75Q548 36 523 13T453 -11Q411 -11 385 13Z" />
<glyph unicode="@" glyph-name="at" horiz-adv-x="2133" d="M1373 1498T1581 1390T1896 1075T2003 569Q2003 367 1955 236T1824 44T1630 -17Q1534 -17 1474 21T1388 130H1376Q1316 63 1216 23T1005 -17Q893 -17 813 18T691 118T649 274Q649 411 744 486T1045 584L1374
623V716Q1374 824 1338 884T1233 969T1054 993Q979 993 894 980T727 937V1041Q799 1068 888 1082T1065 1096Q1209 1096 1303 1060T1447 941T1497 715V260Q1497 160 1535 118T1651 76Q1723 76 1779 125T1869 283T1902 558Q1901 976 1693 1189T1073 1402Q660 1402
449 1181T238 523Q238 75 456 -144T1120 -364Q1230 -364 1335 -350T1556 -307V-404Q1455 -431 1343 -445T1120 -460Q632 -458 381 -211T130 520Q130 839 239 1057T560 1387T1073 1498Q1373 1498 1581 1390ZM1123 82T1214 119T1374 230V535L1050 496Q906 478 842
428T777 284Q777 187 839 135T1026 82Q1123 82 1214 119Z" />
<glyph unicode="A" glyph-name="A" horiz-adv-x="1487" d="M1313 0L1107 501H378L172 0H43L658 1480H829L1443 0H1313ZM422 607H1063L742 1386L422 607Z" />
<glyph unicode="B" glyph-name="B" horiz-adv-x="1367" d="M1124 736T1202 643T1281 404Q1281 266 1214 175T998 36T605 -11Q503 -11 410 -5T204 15V1451Q315 1474 419 1484T648 1495Q955 1495 1096 1397T1238 1101Q1238 971 1171 884T963 764Q1124 736 1202 643ZM469
1393T328 1366V812H711Q918 812 1017 880T1117 1098Q1117 1204 1071 1268T924 1363T657 1393Q469 1393 328 1366ZM829 91T945 126T1111 230T1160 410Q1160 565 1056 637T729 709H328V110Q397 100 466 96T625 91Q829 91 945 126Z" />
<glyph unicode="C" glyph-name="C" horiz-adv-x="1303" d="M514 -18T322 162T130 738Q130 1121 325 1309T873 1498Q975 1498 1064 1486T1246 1447V1336Q1062 1388 876 1388Q576 1388 420 1233T263 742Q263 394 417 243T862 92Q963 92 1053 106T1246 156V44Q1070
-18 856 -18Q514 -18 322 162Z" />
<glyph unicode="D" glyph-name="D" horiz-adv-x="1568" d="M504 -11T411 -5T204 16V1451Q304 1472 417 1483T634 1494Q1031 1494 1234 1305T1438 740Q1438 361 1230 175T606 -11Q504 -11 411 -5ZM970 98T1139 255T1308 741Q1308 1068 1139 1226T631 1385Q494 1385
330 1359V118Q453 98 626 98Q970 98 1139 255Z" />
<glyph unicode="E" glyph-name="E" horiz-adv-x="1314" d="M329 106H1209V0H204V1480H1199V1374H329V813H1099V707H329V106Z" />
<glyph unicode="F" glyph-name="F" horiz-adv-x="1271" d="M1191 1372H330V807H1089V699H330V0H204V1480H1191V1372Z" />
<glyph unicode="G" glyph-name="G" horiz-adv-x="1522" d="M1329 720V20Q1220 3 1134 -4T947 -11Q542 -11 336 178T130 739Q130 995 227 1164T499 1416T905 1498Q1000 1498 1091 1486T1286 1447V1336Q1180 1365 1091 1376T914 1388Q610 1388 436 1231T262 744Q262
98 943 98Q1094 98 1208 116V720H1329Z" />
<glyph unicode="H" glyph-name="H" horiz-adv-x="1607" d="M204 0V1480H330V817H1277V1480H1403V0H1277V703H330V0H204Z" />
<glyph unicode="I" glyph-name="I" horiz-adv-x="533" d="M204 0V1480H330V0H204Z" />
<glyph unicode="J" glyph-name="J" horiz-adv-x="533" d="M2 -284Q107 -157 155 -20T204 288V1480H330V260Q321 81 266 -59T84 -343L2 -284Z" />
<glyph unicode="K" glyph-name="K" horiz-adv-x="1357" d="M1200 0L617 703H330V0H204V1480H330V817H621L1162 1480H1306L719 762L1349 0H1200Z" />
<glyph unicode="L" glyph-name="L" horiz-adv-x="1192" d="M204 0V1480H330V109H1171V0H204Z" />
<glyph unicode="M" glyph-name="M" horiz-adv-x="1912" d="M1558 1480H1704V0H1584V1290L1016 203H895L327 1283V0H208V1480H353L958 320L1558 1480Z" />
<glyph unicode="N" glyph-name="N" horiz-adv-x="1634" d="M1310 1480H1430V0H1299L324 1303V0H204V1480H335L1310 177V1480Z" />
<glyph unicode="O" glyph-name="O" horiz-adv-x="1617" d="M602 -18T450 64T214 315T130 740Q130 995 215 1164T452 1416T809 1498Q1015 1498 1167 1416T1403 1165T1487 740Q1487 485 1402 316T1165 64T809 -18Q602 -18 450 64ZM1066 92T1211 248T1357 735Q1357
1072 1212 1230T809 1388Q552 1388 407 1232T261 745Q261 407 406 250T809 92Q1066 92 1211 248Z" />
<glyph unicode="P" glyph-name="P" horiz-adv-x="1344" d="M204 1453Q313 1475 410 1485T619 1495Q927 1495 1084 1375T1242 1001Q1242 754 1082 627T581 500Q451 500 330 512V0H204V1453ZM772 602T890 646T1062 777T1116 999Q1116 1202 995 1297T626 1392Q466
1392 330 1367V619Q454 602 581 602Q772 602 890 646Z" />
<glyph unicode="Q" glyph-name="Q" horiz-adv-x="1617" d="M1487 381T1324 189T850 -10Q977 -45 1135 -68T1458 -104L1442 -210Q935 -162 651 -51T248 248T130 737Q130 993 215 1163T452 1416T809 1498Q1014 1498 1165 1418T1402 1169T1487 740Q1487 381 1324
189ZM261 407T405 250T809 92Q1066 92 1211 248T1357 735Q1357 1072 1212 1230T809 1388Q552 1388 407 1232T261 745Q261 407 405 250Z" />
<glyph unicode="R" glyph-name="R" horiz-adv-x="1434" d="M1204 0L682 630Q628 628 598 628Q528 628 470 631T328 640V0H204V1451Q306 1472 408 1483T633 1495Q844 1495 978 1451T1179 1312T1245 1065Q1245 709 817 643L1352 0H1204ZM410 737T464 734T603 731Q787
731 902 767T1070 877T1124 1062Q1124 1185 1074 1257T918 1360T637 1392Q544 1392 476 1386T328 1365V744Q410 737 464 734Z" />
<glyph unicode="S" glyph-name="S" horiz-adv-x="1186" d="M424 -18T319 -2T118 47V157Q220 123 326 107T529 90Q961 90 961 390Q961 473 925 527T812 617T605 678L523 694Q302 736 200 833T97 1092Q97 1218 159 1309T344 1449T650 1498Q853 1498 1024 1445V1335Q844
1390 649 1390Q436 1390 330 1315T224 1098Q224 1015 256 960T359 869T552 809L635 793Q797 761 897 709T1043 580T1089 396Q1089 264 1023 171T831 30T527 -18Q424 -18 319 -2Z" />
<glyph unicode="T" glyph-name="T" horiz-adv-x="1285" d="M580 0V1371H20V1480H1264V1371H705V0H580Z" />
<glyph unicode="U" glyph-name="U" horiz-adv-x="1576" d="M586 -18T455 46T260 242T196 584V1480H322V570Q322 402 372 297T525 142T789 92Q950 92 1053 142T1206 297T1257 570V1480H1380V584Q1380 375 1317 243T1123 46T789 -18Q586 -18 455 46Z" />
<glyph unicode="V" glyph-name="V" horiz-adv-x="1443" d="M1293 1480H1421L810 0H632L21 1480H158L726 99L1293 1480Z" />
<glyph unicode="W" glyph-name="W" horiz-adv-x="2338" d="M2138 1480H2262L1782 0H1617L1169 1352L721 0H555L74 1480H205L644 113L1093 1480H1248L1697 110L2138 1480Z" />
<glyph unicode="X" glyph-name="X" horiz-adv-x="1400" d="M775 753L1375 0H1223L697 661L171 0H23L622 750L38 1480H190L700 842L1212 1480H1358L775 753Z" />
<glyph unicode="Y" glyph-name="Y" horiz-adv-x="1285" d="M1297 1480L706 667V0H580V667L-22 1480H124L645 774L1159 1480H1297Z" />
<glyph unicode="Z" glyph-name="Z" horiz-adv-x="1288" d="M243 107H1216V0H72V70L1031 1373H85V1480H1203V1410L243 107Z" />
<glyph unicode="[" glyph-name="bracketleft" horiz-adv-x="724" d="M224 -440V1616H762V1510H348V-334H759V-440H224Z" />
<glyph unicode="\" glyph-name="backslash" horiz-adv-x="685" d="M558 -240L0 1616H128L685 -240H558Z" />
<glyph unicode="]" glyph-name="bracketright" horiz-adv-x="724" d="M-35 -440V-334H376V1510H-37V1616H500V-440H-35Z" />
<glyph unicode="^" glyph-name="asciicircum" horiz-adv-x="1234" d="M1131 740H996L617 1381L238 740H103L543 1480H689L1131 740Z" />
<glyph unicode="_" glyph-name="underscore" horiz-adv-x="1254" d="M99 -106V0H1155V-106H99Z" />
<glyph unicode="`" glyph-name="grave" horiz-adv-x="1200" d="M538 1258L251 1616H395L662 1258H538Z" />
<glyph unicode="a" glyph-name="a" horiz-adv-x="1140" d="M681 1099T777 1063T922 943T972 715V0H866L856 128H847Q785 62 687 23T479 -17Q367 -17 287 18T165 119T123 274Q123 412 220 487T536 586L849 622V719Q849 827 813 887T706 972T524 996Q446 996 360
983T193 941V1045Q266 1071 356 1085T534 1099Q681 1099 777 1063ZM599 81T688 118T849 230V532L541 496Q385 478 319 427T252 283Q252 186 313 134T501 81Q599 81 688 118Z" />
<glyph unicode="b" glyph-name="b" horiz-adv-x="1265" d="M363 -19T185 33V1616H309V960H317Q382 1026 474 1062T677 1099Q814 1099 919 1044T1085 868T1146 563Q1146 273 998 127T556 -19Q363 -19 185 33ZM794 86T906 200T1019 551Q1019 783 920 887T650 991Q550
991 462 955T309 843V121Q426 86 568 86Q794 86 906 200Z" />
<glyph unicode="c" glyph-name="c" horiz-adv-x="985" d="M384 -19T252 120T119 541Q119 822 260 960T675 1099Q815 1099 932 1064V956Q805 992 681 992Q462 992 355 885T248 544Q248 308 348 198T646 88Q769 88 932 141V34Q790 -19 634 -19Q384 -19 252 120Z" />
<glyph unicode="d" glyph-name="d" horiz-adv-x="1265" d="M457 -18T349 39T180 217T119 519Q119 808 269 954T711 1100Q829 1100 956 1076V1616H1080V0H974L966 128H956Q892 59 800 21T600 -18Q457 -18 349 39ZM720 90T806 128T956 250V965Q904 979 840 987T712
995Q476 995 361 882T246 530Q246 90 622 90Q720 90 806 128Z" />
<glyph unicode="e" glyph-name="e" horiz-adv-x="1149" d="M1050 498H245Q252 283 362 184T685 84Q820 84 995 135V32Q822 -19 671 -19Q401 -19 260 119T119 541Q119 723 175 848T338 1036T592 1099Q813 1099 931 956T1050 539V498ZM255 1004T245 589H930Q925
800 840 902T591 1004Q255 1004 245 589Z" />
<glyph unicode="f" glyph-name="f" horiz-adv-x="801" d="M582 1529T515 1499T414 1402T381 1224V1083H800V977H381V0H257V977H26V1083H257V1215Q257 1425 363 1530T681 1636Q753 1636 846 1622V1515Q765 1529 689 1529Q582 1529 515 1499Z" />
<glyph unicode="g" glyph-name="g" horiz-adv-x="1265" d="M467 -460T370 -445T191 -403V-296Q380 -355 549 -355Q692 -355 781 -318T913 -196T956 29V125H948Q882 59 791 22T588 -15Q451 -15 346 41T180 216T119 519Q119 807 268 953T710 1099Q904 1099 1080
1048V47Q1080 -132 1022 -244T848 -408T552 -460Q467 -460 370 -445ZM714 94T803 130T956 241V963Q841 994 697 994Q471 994 359 881T246 531Q246 300 345 197T616 94Q714 94 803 130Z" />
<glyph unicode="h" glyph-name="h" horiz-adv-x="1275" d="M185 1616H309V958H317Q396 1027 498 1063T713 1099Q898 1099 1002 1001T1107 694V0H983V688Q983 847 907 916T689 986Q583 986 483 947T309 828V0H185V1616Z" />
<glyph unicode="i" glyph-name="i" horiz-adv-x="493" d="M185 0V1083H309V0H185ZM204 1338T180 1360T155 1421Q155 1461 179 1483T247 1506Q290 1506 314 1484T339 1421Q339 1382 315 1360T247 1338Q204 1338 180 1360Z" />
<glyph unicode="j" glyph-name="j" horiz-adv-x="493" d="M-18 -404Q88 -277 136 -140T185 168V1083H309V174Q309 -13 251 -164T64 -462L-18 -404ZM202 1348T178 1370T153 1431Q153 1471 177 1493T245 1516Q288 1516 312 1494T337 1431Q337 1392 313 1370T245
1348Q202 1348 178 1370Z" />
<glyph unicode="k" glyph-name="k" horiz-adv-x="1135" d="M1000 0L549 500H309V0H185V1616H309V608H548L969 1083H1113L651 556L1145 0H1000Z" />
<glyph unicode="l" glyph-name="l" horiz-adv-x="493" d="M185 0V1616H309V0H185Z" />
<glyph unicode="m" glyph-name="m" horiz-adv-x="1858" d="M1501 1099T1595 1001T1690 694V0H1566V688Q1566 847 1500 917T1312 988Q1225 988 1139 951T990 832Q1003 773 1003 695V0H881V688Q881 848 817 918T633 988Q543 988 458 948T309 825V0H185V1083H290L299
954H308Q376 1025 466 1062T658 1099Q874 1099 955 936Q1039 1021 1137 1060T1333 1099Q1501 1099 1595 1001Z" />
<glyph unicode="n" glyph-name="n" horiz-adv-x="1275" d="M185 1083H290L299 954H308Q389 1025 492 1062T709 1099Q897 1099 1002 1000T1107 687V0H983V685Q983 845 908 916T689 988Q588 988 486 950T309 830V0H185V1083Z" />
<glyph unicode="o" glyph-name="o" horiz-adv-x="1241" d="M386 -19T253 120T119 541Q119 728 180 852T354 1038T620 1099Q857 1099 989 962T1122 541Q1122 355 1060 230T885 43T620 -19Q386 -19 253 120ZM995 87T995 540Q995 777 898 885T620 993Q246 993 246
543Q246 87 620 87Q995 87 995 540Z" />
<glyph unicode="p" glyph-name="p" horiz-adv-x="1265" d="M185 1083H291L301 953H309Q373 1022 465 1060T665 1099Q806 1099 914 1044T1084 869T1146 562Q1146 273 997 127T554 -19Q447 -19 309 3V-440H185V1083ZM789 86T904 199T1019 551Q1019 991 643 991Q545
991 459 953T309 831V116Q361 102 425 94T553 86Q789 86 904 199Z" />
<glyph unicode="q" glyph-name="q" horiz-adv-x="1265" d="M956 121H948Q882 55 791 18T588 -19Q451 -19 346 37T180 213T119 518Q119 808 268 953T710 1099Q904 1099 1080 1048V-440H956V121ZM714 90T803 126T956 237V963Q841 994 697 994Q471 994 359 880T246
529Q246 297 345 194T616 90Q714 90 803 126Z" />
<glyph unicode="r" glyph-name="r" horiz-adv-x="805" d="M185 1083H289L300 938H309Q374 1009 474 1050T678 1092Q739 1092 790 1083V967Q741 975 674 975Q578 975 477 935T309 815V0H185V1083Z" />
<glyph unicode="s" glyph-name="s" horiz-adv-x="1019" d="M290 -19T138 27V129Q229 103 309 92T480 81Q652 81 729 132T806 283Q806 337 787 373T723 432T598 470L422 500Q264 528 193 600T122 791Q122 932 234 1015T577 1099Q729 1099 867 1060V959Q790 980
722 989T578 999Q400 999 323 945T246 795Q246 721 290 674T445 607L621 577Q783 549 856 482T929 292Q929 146 816 64T476 -19Q290 -19 138 27Z" />
<glyph unicode="t" glyph-name="t" horiz-adv-x="828" d="M690 90T727 94T813 110V3Q762 -9 720 -14T629 -19Q445 -19 347 73T249 354V977H18V1083H249L269 1480H373V1083H792V977H373V376Q373 225 443 158T652 90Q690 90 727 94Z" />
<glyph unicode="u" glyph-name="u" horiz-adv-x="1265" d="M377 -18T273 80T168 387V1083H292V393Q292 234 367 164T580 93Q682 93 782 133T956 253V1083H1080V0H975L966 123H957Q877 54 776 18T562 -18Q377 -18 273 80Z" />
<glyph unicode="v" glyph-name="v" horiz-adv-x="1173" d="M1019 1083H1143L665 0H508L31 1083H165L592 102L1019 1083Z" />
<glyph unicode="w" glyph-name="w" horiz-adv-x="1853" d="M1647 1083H1769L1408 0H1254L927 964L601 0H447L84 1083H210L529 119L852 1083H1005L1329 122L1647 1083Z" />
<glyph unicode="x" glyph-name="x" horiz-adv-x="1133" d="M643 548L1102 0H950L566 461L183 0H34L491 545L44 1083H195L569 633L944 1083H1089L643 548Z" />
<glyph unicode="y" glyph-name="y" horiz-adv-x="1173" d="M1019 1083H1143L472 -440H346L540 0H508L31 1083H165L589 97L1019 1083Z" />
<glyph unicode="z" glyph-name="z" horiz-adv-x="1028" d="M243 106H964V0H71V77L779 977H85V1083H950V1006L243 106Z" />
<glyph unicode="{" glyph-name="braceleft" horiz-adv-x="764" d="M388 768T353 708T240 624Q317 601 352 540T388 371V-83Q388 -226 459 -289T677 -352H802V-449Q747 -460 668 -460Q264 -460 264 -83V386Q264 483 220 526T81 570H48V676H81Q175 676 219 719T264
861V1259Q264 1636 668 1636Q747 1636 802 1625V1528H677Q530 1528 459 1465T388 1259V876Q388 768 353 708Z" />
<glyph unicode="|" glyph-name="bar" horiz-adv-x="525" d="M204 -440V1616H322V-440H204Z" />
<glyph unicode="}" glyph-name="braceright" horiz-adv-x="764" d="M716 676V570H684Q590 570 545 527T500 386V-83Q500 -460 96 -460Q16 -460 -37 -449V-352H87Q235 -352 305 -289T376 -83V371Q376 480 412 540T525 624Q448 647 412 707T376 876V1259Q376 1402
306 1465T87 1528H-37V1625Q16 1636 96 1636Q500 1636 500 1259V861Q500 763 545 720T684 676H716Z" />
<glyph unicode="~" glyph-name="asciitilde" horiz-adv-x="1120" d="M690 646T645 662T540 709Q487 736 452 749T383 762Q324 762 274 736T179 654V772Q215 817 267 840T382 864Q430 864 473 848T581 801Q635 774 669 761T737 748Q797 748 847 774T941 856V737Q905
692 853 669T738 646Q690 646 645 662Z" />
<glyph unicode="&#xa0;" glyph-name="uni00A0" horiz-adv-x="553" />
<glyph unicode="&#xa1;" glyph-name="exclamdown" horiz-adv-x="527" d="M306 1094T331 1070T357 1005Q357 964 332 939T263 914Q220 914 195 939T169 1005Q169 1046 195 1070T263 1094Q306 1094 331 1070ZM223 731H304L329 175V-380H198V175L223 731Z" />
<glyph unicode="&#xa2;" glyph-name="cent" horiz-adv-x="999" d="M458 992T353 885T248 544Q248 308 348 198T646 88Q769 88 932 141V34Q811 -10 682 -18V-240H570V-17Q349 1 234 139T119 541Q119 794 233 931T570 1093V1323H682V1099Q808 1098 932 1064V956Q866
974 806 983T680 992Q458 992 353 885Z" />
<glyph unicode="&#xa3;" glyph-name="sterling" horiz-adv-x="1423" d="M1318 104V0H81V104H333V700H81V800H333V1023Q333 1266 474 1382T898 1498Q1097 1498 1270 1446V1336Q1090 1390 898 1390Q748 1390 651 1355T505 1240T456 1027V800H1065V700H456V104H1318Z" />
<glyph unicode="&#xa4;" glyph-name="currency" horiz-adv-x="1234" d="M983 447L1088 345L1012 269L910 374L831 475Q745 401 617 401Q488 401 403 474L324 374L222 269L145 345L251 447L354 528Q292 615 292 740Q292 864 354 951L251 1033L144 1135L220 1211L322
1106L403 1004Q445 1039 499 1058T617 1077Q745 1077 830 1004L912 1106L1014 1211L1090 1135L983 1033L880 951Q942 862 942 740Q942 617 880 528L983 447ZM688 486T741 516T824 603T854 740Q854 815 827 872T746 962T619 994Q548 994 494 964T410 876T380 740Q380
661 409 604T492 517T617 486Q688 486 741 516Z" />
<glyph unicode="&#xa5;" glyph-name="yen" horiz-adv-x="1325" d="M1321 1480L781 742H1065V652H726V396H1065V306H726V0H600V306H262V396H600V652H262V742H546L2 1480H148L666 774L1183 1480H1321Z" />
<glyph unicode="&#xa6;" glyph-name="brokenbar" horiz-adv-x="525" d="M204 836V1616H322V836H204ZM204 -440V340H322V-440H204Z" />
<glyph unicode="&#xa7;" glyph-name="section" horiz-adv-x="1141" d="M961 411T961 292Q961 145 848 63T505 -19Q322 -19 173 26V125Q263 100 342 90T509 79Q685 79 763 130T841 281Q841 335 822 371T758 431T633 469L447 502Q295 529 224 600T152 790Q152 917
254 999Q177 1069 177 1189Q177 1330 288 1413T635 1496Q783 1496 919 1459V1360Q842 1381 778 1390T640 1399Q297 1399 297 1195Q297 1121 341 1073T497 1005L686 973Q844 945 916 878T989 692Q989 563 884 478Q961 411 961 292ZM658 568Q744 553 802 528Q877
584 877 679Q877 761 829 806T661 874L475 906Q391 922 337 947Q264 889 264 797Q264 721 311 671T472 601L658 568Z" />
<glyph unicode="&#xa8;" glyph-name="dieresis" horiz-adv-x="1200" d="M313 1339T290 1361T267 1421Q267 1460 290 1483T353 1506Q393 1506 416 1483T440 1421Q440 1383 417 1361T353 1339Q313 1339 290 1361ZM806 1339T783 1361T760 1421Q760 1460 783 1483T847
1506Q886 1506 909 1483T933 1421Q933 1383 910 1361T847 1339Q806 1339 783 1361Z" />
<glyph unicode="&#xa9;" glyph-name="copyright" horiz-adv-x="1750" d="M654 -22T485 73T223 340T130 740Q130 967 223 1139T485 1407T875 1502Q1096 1502 1265 1407T1527 1140T1620 740Q1620 513 1527 341T1265 73T875 -22Q654 -22 485 73ZM1072 66T1220 149T1449
385T1530 740Q1530 942 1449 1094T1220 1330T875 1414Q679 1414 531 1331T301 1095T220 740Q220 538 301 386T530 150T875 66Q1072 66 1220 149ZM795 324T707 370T571 509T522 734Q522 930 630 1037T938 1144Q1040 1144 1130 1117V1025Q1037 1051 944 1051Q788
1051 707 973T626 737Q626 577 704 497T923 417Q1025 417 1130 456V364Q1037 324 914 324Q795 324 707 370Z" />
<glyph unicode="&#xaa;" glyph-name="ordfeminine" horiz-adv-x="966" d="M576 1493T658 1463T783 1364T826 1175V610H727L718 711H710Q657 658 573 627T399 595Q255 595 176 658T97 833Q97 945 179 1005T443 1083L710 1111V1185Q710 1267 680 1314T590 1380T435
1399Q292 1399 157 1355V1450Q220 1472 296 1482T448 1493Q576 1493 658 1463ZM504 685T578 713T710 798V1035L455 1008Q326 994 271 954T215 842Q215 767 266 726T424 685Q504 685 578 713Z" />
<glyph unicode="&#xab;" glyph-name="guillemotleft" horiz-adv-x="1127" d="M456 139L136 561L456 984H592L272 561L592 139H456ZM895 139L575 561L895 984H1031L711 561L1031 139H895Z" />
<glyph unicode="&#xac;" glyph-name="logicalnot" horiz-adv-x="1427" d="M1151 195V708H179V812H1259V195H1151Z" />
<glyph unicode="&#xad;" glyph-name="uni00AD" horiz-adv-x="953" d="M179 508V615H773V508H179Z" />
<glyph unicode="&#xae;" glyph-name="registered" horiz-adv-x="1569" d="M964 1498T1102 1420T1318 1202T1395 882Q1395 702 1318 563T1103 346T785 268Q606 268 468 345T252 562T175 882Q175 1062 252 1202T467 1420T785 1498Q964 1498 1102 1420ZM943 347T1062
413T1247 600T1313 882Q1313 1043 1248 1164T1063 1352T785 1419Q627 1419 507 1353T322 1165T257 882Q257 721 322 600T507 413T785 347Q943 347 1062 413ZM1018 871T885 834L1043 600H953L801 821Q792 820 772 820H656L655 600H575V1192H772Q893 1192 955 1144T1018
1005Q1018 871 885 834ZM786 892Q864 892 901 919T939 1005Q939 1120 786 1120H656V892H786Z" />
<glyph unicode="&#xaf;" glyph-name="overscore" horiz-adv-x="1200" d="M270 1380V1467H930V1380H270Z" />
<glyph unicode="&#xb0;" glyph-name="degree" horiz-adv-x="1051" d="M425 796T345 841T220 967T175 1147Q175 1247 220 1327T345 1452T526 1497Q627 1497 707 1452T832 1327T877 1147Q877 1047 832 967T707 842T526 796Q425 796 345 841ZM601 886T659 918T750
1009T783 1147Q783 1225 750 1284T659 1375T526 1407Q451 1407 393 1375T302 1284T269 1147Q269 1068 301 1009T392 918T526 886Q601 886 659 918Z" />
<glyph unicode="&#xb1;" glyph-name="plusminus" horiz-adv-x="1120" d="M506 329V667H179V770H506V1107H615V770H941V667H615V329H506ZM179 0V103H941V0H179Z" />
<glyph unicode="&#xb2;" glyph-name="uni00B2" horiz-adv-x="841" d="M769 -44V-136H92V-78L429 294Q520 394 557 461T595 593Q595 691 533 738T344 785Q201 785 80 743V836Q134 855 204 865T353 876Q703 876 703 604Q703 519 661 441T513 247L245 -44H769Z" />
<glyph unicode="&#xb3;" glyph-name="uni00B3" horiz-adv-x="841" d="M641 365T700 302T759 140Q759 2 659 -73T350 -148Q278 -148 205 -138T69 -107V-17Q204 -62 349 -62Q657 -62 657 147Q657 238 590 286T386 334H225V420H309Q619 420 619 613Q619 697 553 744T362
791Q224 791 102 750V840Q160 857 230 866T370 876Q540 876 631 809T723 620Q723 534 672 474T531 386Q641 365 700 302Z" />
<glyph unicode="&#xb4;" glyph-name="acute" horiz-adv-x="1200" d="M538 1258L805 1616H949L662 1258H538Z" />
<glyph unicode="&#xb5;" glyph-name="uni00B5" horiz-adv-x="1265" d="M1080 1083V0H975L966 123H957Q879 54 781 18T574 -18Q381 -18 292 97V-440H168V1083H292V393Q292 234 367 164T580 93Q682 93 782 133T956 253V1083H1080Z" />
<glyph unicode="&#xb6;" glyph-name="paragraph" horiz-adv-x="1344" d="M801 512Q721 500 616 500Q351 500 227 627T102 1001Q102 1254 224 1374T586 1495Q747 1495 904 1480V0H801V512ZM1037 0V1480H1140V0H1037Z" />
<glyph unicode="&#xb7;" glyph-name="middot" horiz-adv-x="487" d="M201 469T175 493T149 558Q149 599 174 624T243 649Q286 649 311 624T337 558Q337 518 312 494T243 469Q201 469 175 493Z" />
<glyph unicode="&#xb8;" glyph-name="cedilla" horiz-adv-x="1200" d="M724 -111T768 -150T813 -257Q813 -330 760 -369T611 -408Q561 -408 511 -398T425 -370V-300Q513 -342 608 -342Q671 -342 702 -321T733 -254Q733 -209 702 -188T607 -167H565V20H642V-106Q724
-111 768 -150Z" />
<glyph unicode="&#xb9;" glyph-name="uni00B9" horiz-adv-x="841" d="M520 -44H774V-136H145V-44H413V738L145 550V656L447 868H520V-44Z" />
<glyph unicode="&#xba;" glyph-name="ordmasculine" horiz-adv-x="1069" d="M403 595T307 645T157 796T104 1047Q104 1196 157 1295T306 1444T534 1493Q665 1493 761 1444T911 1295T965 1047Q965 898 912 797T762 645T534 595Q403 595 307 645ZM682 695T764 780T846
1047Q846 1227 765 1310T534 1394Q386 1394 305 1311T223 1047Q223 866 305 781T534 695Q682 695 764 780Z" />
<glyph unicode="&#xbb;" glyph-name="guillemotright" horiz-adv-x="1127" d="M96 139L416 561L96 984H232L552 561L232 139H96ZM535 139L855 561L535 984H671L991 561L671 139H535Z" />
<glyph unicode="&#xbc;" glyph-name="onequarter" horiz-adv-x="1980" d="M520 708H774V616H145V708H413V1490L145 1302V1408L447 1620H520V708ZM504 -136L1365 1616H1476L615 -136H504ZM1956 193V103H1802V-136H1703V103H1169V164L1581 864H1686L1292 193H1703L1720
526H1802V193H1956Z" />
<glyph unicode="&#xbd;" glyph-name="onehalf" horiz-adv-x="1980" d="M520 708H774V616H145V708H413V1490L145 1302V1408L447 1620H520V708ZM504 -136L1365 1616H1476L615 -136H504ZM1908 -44V-136H1231V-78L1568 294Q1659 394 1696 461T1734 593Q1734 691 1672
738T1483 785Q1340 785 1219 743V836Q1273 855 1343 865T1492 876Q1842 876 1842 604Q1842 519 1800 441T1652 247L1384 -44H1908Z" />
<glyph unicode="&#xbe;" glyph-name="threequarters" horiz-adv-x="1980" d="M641 1117T700 1054T759 892Q759 754 659 679T350 604Q278 604 205 614T69 645V735Q204 690 349 690Q657 690 657 899Q657 990 590 1038T386 1086H225V1172H309Q619 1172 619 1365Q619
1449 553 1496T362 1543Q224 1543 102 1502V1592Q160 1609 230 1618T370 1628Q540 1628 631 1561T723 1372Q723 1286 672 1226T531 1138Q641 1117 700 1054ZM504 -136L1365 1616H1476L615 -136H504ZM1956 193V103H1802V-136H1703V103H1169V164L1581 864H1686L1292
193H1703L1720 526H1802V193H1956Z" />
<glyph unicode="&#xbf;" glyph-name="questiondown" horiz-adv-x="980" d="M570 1094T595 1070T621 1008Q621 968 596 944T527 919Q484 919 459 943T433 1008Q433 1047 458 1070T527 1094Q570 1094 595 1070ZM589 337Q439 293 352 242T228 126T191 -27Q191 -152
288 -223T564 -294Q756 -294 933 -237V-345Q757 -400 555 -400Q400 -400 291 -356T124 -229T67 -33Q67 76 106 155T235 296T474 409L487 750H567L589 337Z" />
<glyph unicode="&#xc0;" glyph-name="Agrave" horiz-adv-x="1487" d="M1313 0L1107 501H378L172 0H43L658 1480H829L1443 0H1313ZM422 607H1063L742 1386L422 607ZM683 1612L442 1890H585L805 1612H683Z" />
<glyph unicode="&#xc1;" glyph-name="Aacute" horiz-adv-x="1487" d="M1313 0L1107 501H378L172 0H43L658 1480H829L1443 0H1313ZM422 607H1063L742 1386L422 607ZM683 1612L902 1890H1045L804 1612H683Z" />
<glyph unicode="&#xc2;" glyph-name="Acircumflex" horiz-adv-x="1487" d="M1313 0L1107 501H378L172 0H43L658 1480H829L1443 0H1313ZM422 607H1063L742 1386L422 607ZM1095 1612H964L744 1827L524 1612H393L684 1890H804L1095 1612Z" />
<glyph unicode="&#xc3;" glyph-name="Atilde" horiz-adv-x="1487" d="M1313 0L1107 501H378L172 0H43L658 1480H829L1443 0H1313ZM422 607H1063L742 1386L422 607ZM865 1682T825 1692T728 1721Q678 1739 645 1747T577 1756Q519 1756 476 1740T393 1687V1778Q425
1810 470 1825T579 1840Q623 1840 663 1830T760 1801Q810 1783 843 1775T911 1766Q969 1766 1012 1782T1095 1835V1744Q1063 1712 1018 1697T909 1682Q865 1682 825 1692Z" />
<glyph unicode="&#xc4;" glyph-name="Adieresis" horiz-adv-x="1487" d="M1313 0L1107 501H378L172 0H43L658 1480H829L1443 0H1313ZM422 607H1063L742 1386L422 607ZM439 1673T416 1694T393 1752Q393 1788 416 1810T479 1832Q518 1832 541 1810T564 1752Q564
1715 542 1694T479 1673Q439 1673 416 1694ZM969 1673T947 1694T924 1752Q924 1788 947 1810T1009 1832Q1049 1832 1072 1810T1095 1752Q1095 1715 1072 1694T1009 1673Q969 1673 947 1694Z" />
<glyph unicode="&#xc5;" glyph-name="Aring" horiz-adv-x="1487" d="M1313 0L1107 501H378L172 0H43L658 1480H829L1443 0H1313ZM422 607H1063L742 1386L422 607ZM690 1606T647 1630T579 1698T554 1795Q554 1849 578 1892T646 1959T744 1984Q798 1984 841 1960T909
1892T934 1795Q934 1741 910 1698T842 1631T744 1606Q690 1606 647 1630ZM799 1670T833 1704T867 1795Q867 1853 833 1886T744 1920Q689 1920 655 1887T621 1795Q621 1738 655 1704T744 1670Q799 1670 833 1704Z" />
<glyph unicode="&#xc6;" glyph-name="AE" horiz-adv-x="2023" d="M1150 106H1918V0H1032L990 501H381L172 0H43L667 1480H1908V1374H1039L1088 813H1807V707H1097L1150 106ZM426 607H981L916 1374H746L426 607Z" />
<glyph unicode="&#xc7;" glyph-name="Ccedilla" horiz-adv-x="1303" d="M576 1388T420 1233T263 742Q263 394 417 243T862 92Q963 92 1053 106T1246 156V44Q1070 -18 856 -18H829V-106Q920 -110 970 -148T1020 -257Q1020 -331 962 -369T798 -408Q744 -408 690
-398T592 -370V-300Q698 -342 795 -342Q940 -342 940 -255Q940 -209 903 -188T793 -167H752V-14Q457 11 294 192T130 738Q130 1121 325 1309T873 1498Q975 1498 1064 1486T1246 1447V1336Q1062 1388 876 1388Q576 1388 420 1233Z" />
<glyph unicode="&#xc8;" glyph-name="Egrave" horiz-adv-x="1314" d="M329 106H1209V0H204V1480H1199V1374H329V813H1099V707H329V106ZM662 1612L421 1890H564L784 1612H662Z" />
<glyph unicode="&#xc9;" glyph-name="Eacute" horiz-adv-x="1314" d="M329 106H1209V0H204V1480H1199V1374H329V813H1099V707H329V106ZM662 1612L881 1890H1024L783 1612H662Z" />
<glyph unicode="&#xca;" glyph-name="Ecircumflex" horiz-adv-x="1314" d="M329 106H1209V0H204V1480H1199V1374H329V813H1099V707H329V106ZM1074 1612H943L723 1827L503 1612H372L663 1890H783L1074 1612Z" />
<glyph unicode="&#xcb;" glyph-name="Edieresis" horiz-adv-x="1314" d="M329 106H1209V0H204V1480H1199V1374H329V813H1099V707H329V106ZM418 1673T395 1694T372 1752Q372 1788 395 1810T458 1832Q497 1832 520 1810T543 1752Q543 1715 521 1694T458 1673Q418
1673 395 1694ZM948 1673T926 1694T903 1752Q903 1788 926 1810T988 1832Q1028 1832 1051 1810T1074 1752Q1074 1715 1051 1694T988 1673Q948 1673 926 1694Z" />
<glyph unicode="&#xcc;" glyph-name="Igrave" horiz-adv-x="533" d="M204 0V1480H330V0H204ZM206 1612L-35 1890H108L328 1612H206Z" />
<glyph unicode="&#xcd;" glyph-name="Iacute" horiz-adv-x="533" d="M204 0V1480H330V0H204ZM206 1612L425 1890H568L327 1612H206Z" />
<glyph unicode="&#xce;" glyph-name="Icircumflex" horiz-adv-x="533" d="M204 0V1480H330V0H204ZM618 1612H487L267 1827L47 1612H-84L207 1890H327L618 1612Z" />
<glyph unicode="&#xcf;" glyph-name="Idieresis" horiz-adv-x="533" d="M204 0V1480H330V0H204ZM-38 1673T-61 1694T-84 1752Q-84 1788 -61 1810T2 1832Q41 1832 64 1810T87 1752Q87 1715 65 1694T2 1673Q-38 1673 -61 1694ZM492 1673T470 1694T447 1752Q447 1788
470 1810T532 1832Q572 1832 595 1810T618 1752Q618 1715 595 1694T532 1673Q492 1673 470 1694Z" />
<glyph unicode="&#xd0;" glyph-name="Eth" horiz-adv-x="1568" d="M1031 1494T1234 1305T1438 740Q1438 361 1230 175T606 -11Q504 -11 411 -5T204 16V716H8V807H204V1451Q304 1472 417 1483T634 1494Q1031 1494 1234 1305ZM970 98T1139 255T1308 741Q1308 1068
1139 1226T631 1385Q494 1385 330 1359V807H736V716H330V118Q453 98 626 98Q970 98 1139 255Z" />
<glyph unicode="&#xd1;" glyph-name="Ntilde" horiz-adv-x="1634" d="M1310 1480H1430V0H1299L324 1303V0H204V1480H335L1310 177V1480ZM939 1682T899 1692T802 1721Q752 1739 719 1747T651 1756Q593 1756 550 1740T467 1687V1778Q499 1810 544 1825T653 1840Q697
1840 737 1830T834 1801Q884 1783 917 1775T985 1766Q1043 1766 1086 1782T1169 1835V1744Q1137 1712 1092 1697T983 1682Q939 1682 899 1692Z" />
<glyph unicode="&#xd2;" glyph-name="Ograve" horiz-adv-x="1617" d="M602 -18T450 64T214 315T130 740Q130 995 215 1164T452 1416T809 1498Q1015 1498 1167 1416T1403 1165T1487 740Q1487 485 1402 316T1165 64T809 -18Q602 -18 450 64ZM1066 92T1211 248T1357
735Q1357 1072 1212 1230T809 1388Q552 1388 407 1232T261 745Q261 407 406 250T809 92Q1066 92 1211 248ZM748 1612L507 1890H650L870 1612H748Z" />
<glyph unicode="&#xd3;" glyph-name="Oacute" horiz-adv-x="1617" d="M602 -18T450 64T214 315T130 740Q130 995 215 1164T452 1416T809 1498Q1015 1498 1167 1416T1403 1165T1487 740Q1487 485 1402 316T1165 64T809 -18Q602 -18 450 64ZM1066 92T1211 248T1357
735Q1357 1072 1212 1230T809 1388Q552 1388 407 1232T261 745Q261 407 406 250T809 92Q1066 92 1211 248ZM748 1612L967 1890H1110L869 1612H748Z" />
<glyph unicode="&#xd4;" glyph-name="Ocircumflex" horiz-adv-x="1617" d="M602 -18T450 64T214 315T130 740Q130 995 215 1164T452 1416T809 1498Q1015 1498 1167 1416T1403 1165T1487 740Q1487 485 1402 316T1165 64T809 -18Q602 -18 450 64ZM1066 92T1211 248T1357
735Q1357 1072 1212 1230T809 1388Q552 1388 407 1232T261 745Q261 407 406 250T809 92Q1066 92 1211 248ZM1160 1612H1029L809 1827L589 1612H458L749 1890H869L1160 1612Z" />
<glyph unicode="&#xd5;" glyph-name="Otilde" horiz-adv-x="1617" d="M602 -18T450 64T214 315T130 740Q130 995 215 1164T452 1416T809 1498Q1015 1498 1167 1416T1403 1165T1487 740Q1487 485 1402 316T1165 64T809 -18Q602 -18 450 64ZM1066 92T1211 248T1357
735Q1357 1072 1212 1230T809 1388Q552 1388 407 1232T261 745Q261 407 406 250T809 92Q1066 92 1211 248ZM930 1682T890 1692T793 1721Q743 1739 710 1747T642 1756Q584 1756 541 1740T458 1687V1778Q490 1810 535 1825T644 1840Q688 1840 728 1830T825 1801Q875
1783 908 1775T976 1766Q1034 1766 1077 1782T1160 1835V1744Q1128 1712 1083 1697T974 1682Q930 1682 890 1692Z" />
<glyph unicode="&#xd6;" glyph-name="Odieresis" horiz-adv-x="1617" d="M602 -18T450 64T214 315T130 740Q130 995 215 1164T452 1416T809 1498Q1015 1498 1167 1416T1403 1165T1487 740Q1487 485 1402 316T1165 64T809 -18Q602 -18 450 64ZM1066 92T1211 248T1357
735Q1357 1072 1212 1230T809 1388Q552 1388 407 1232T261 745Q261 407 406 250T809 92Q1066 92 1211 248ZM504 1673T481 1694T458 1752Q458 1788 481 1810T544 1832Q583 1832 606 1810T629 1752Q629 1715 607 1694T544 1673Q504 1673 481 1694ZM1034 1673T1012
1694T989 1752Q989 1788 1012 1810T1074 1832Q1114 1832 1137 1810T1160 1752Q1160 1715 1137 1694T1074 1673Q1034 1673 1012 1694Z" />
<glyph unicode="&#xd7;" glyph-name="multiply" horiz-adv-x="1022" d="M211 388L139 460L439 760L139 1060L211 1132L511 832L811 1132L882 1060L582 760L882 460L811 388L511 688L211 388Z" />
<glyph unicode="&#xd8;" glyph-name="Oslash" horiz-adv-x="1617" d="M1487 1089T1487 740Q1487 485 1402 316T1165 64T809 -18Q668 -18 552 20T349 135L213 -23L148 34L288 198Q130 392 130 740Q130 995 215 1164T452 1416T809 1498Q949 1498 1065 1460T1269
1344L1405 1503L1470 1446L1329 1281Q1487 1089 1487 740ZM261 458T371 295L1190 1252Q1053 1388 809 1388Q552 1388 407 1232T261 745Q261 458 371 295ZM1066 92T1211 248T1357 735Q1357 1021 1246 1185L427 227Q563 92 809 92Q1066 92 1211 248Z" />
<glyph unicode="&#xd9;" glyph-name="Ugrave" horiz-adv-x="1576" d="M586 -18T455 46T260 242T196 584V1480H322V570Q322 402 372 297T525 142T789 92Q950 92 1053 142T1206 297T1257 570V1480H1380V584Q1380 375 1317 243T1123 46T789 -18Q586 -18 455 46ZM728
1612L487 1890H630L850 1612H728Z" />
<glyph unicode="&#xda;" glyph-name="Uacute" horiz-adv-x="1576" d="M586 -18T455 46T260 242T196 584V1480H322V570Q322 402 372 297T525 142T789 92Q950 92 1053 142T1206 297T1257 570V1480H1380V584Q1380 375 1317 243T1123 46T789 -18Q586 -18 455 46ZM728
1612L947 1890H1090L849 1612H728Z" />
<glyph unicode="&#xdb;" glyph-name="Ucircumflex" horiz-adv-x="1576" d="M586 -18T455 46T260 242T196 584V1480H322V570Q322 402 372 297T525 142T789 92Q950 92 1053 142T1206 297T1257 570V1480H1380V584Q1380 375 1317 243T1123 46T789 -18Q586 -18 455
46ZM1140 1612H1009L789 1827L569 1612H438L729 1890H849L1140 1612Z" />
<glyph unicode="&#xdc;" glyph-name="Udieresis" horiz-adv-x="1576" d="M586 -18T455 46T260 242T196 584V1480H322V570Q322 402 372 297T525 142T789 92Q950 92 1053 142T1206 297T1257 570V1480H1380V584Q1380 375 1317 243T1123 46T789 -18Q586 -18 455 46ZM484
1673T461 1694T438 1752Q438 1788 461 1810T524 1832Q563 1832 586 1810T609 1752Q609 1715 587 1694T524 1673Q484 1673 461 1694ZM1014 1673T992 1694T969 1752Q969 1788 992 1810T1054 1832Q1094 1832 1117 1810T1140 1752Q1140 1715 1117 1694T1054 1673Q1014
1673 992 1694Z" />
<glyph unicode="&#xdd;" glyph-name="Yacute" horiz-adv-x="1285" d="M1297 1480L706 667V0H580V667L-22 1480H124L645 774L1159 1480H1297ZM581 1612L800 1890H943L702 1612H581Z" />
<glyph unicode="&#xde;" glyph-name="Thorn" horiz-adv-x="1354" d="M204 1482H330V1233Q469 1258 621 1258Q928 1258 1085 1138T1242 763Q1242 516 1082 389T581 262Q461 262 330 275V0H204V1482ZM772 365T890 409T1062 540T1116 762Q1116 964 995 1059T626 1155Q466
1155 330 1130V381Q458 365 581 365Q772 365 890 409Z" />
<glyph unicode="&#xdf;" glyph-name="germandbls" horiz-adv-x="1518" d="M1283 549T1355 482T1428 292Q1428 146 1314 64T969 -19Q785 -19 637 26V127Q725 102 806 92T973 81Q1149 81 1226 132T1304 283Q1304 337 1285 373T1221 432T1096 470L920 500Q762 528
692 599T621 788Q621 930 732 1013T1069 1096Q1119 1096 1162 1092Q1170 1150 1170 1193Q1170 1373 1069 1455T793 1537Q589 1537 485 1433T381 1104V0H257V974H26V1083H257V1107Q257 1369 394 1502T788 1636Q931 1636 1040 1588T1210 1438T1272 1182Q1272 1139
1265 1085T1245 987Q1156 999 1081 999Q900 999 822 945T744 795Q744 722 789 675T943 607L1119 577Q1283 549 1355 482Z" />
<glyph unicode="&#xe0;" glyph-name="agrave" horiz-adv-x="1140" d="M681 1099T777 1063T922 943T972 715V0H866L856 128H847Q785 62 687 23T479 -17Q367 -17 287 18T165 119T123 274Q123 412 220 487T536 586L849 622V719Q849 827 813 887T706 972T524 996Q446
996 360 983T193 941V1045Q266 1071 356 1085T534 1099Q681 1099 777 1063ZM599 81T688 118T849 230V532L541 496Q385 478 319 427T252 283Q252 186 313 134T501 81Q599 81 688 118ZM505 1258L218 1616H362L629 1258H505Z" />
<glyph unicode="&#xe1;" glyph-name="aacute" horiz-adv-x="1140" d="M681 1099T777 1063T922 943T972 715V0H866L856 128H847Q785 62 687 23T479 -17Q367 -17 287 18T165 119T123 274Q123 412 220 487T536 586L849 622V719Q849 827 813 887T706 972T524 996Q446
996 360 983T193 941V1045Q266 1071 356 1085T534 1099Q681 1099 777 1063ZM599 81T688 118T849 230V532L541 496Q385 478 319 427T252 283Q252 186 313 134T501 81Q599 81 688 118ZM505 1258L772 1616H916L629 1258H505Z" />
<glyph unicode="&#xe2;" glyph-name="acircumflex" horiz-adv-x="1140" d="M681 1099T777 1063T922 943T972 715V0H866L856 128H847Q785 62 687 23T479 -17Q367 -17 287 18T165 119T123 274Q123 412 220 487T536 586L849 622V719Q849 827 813 887T706 972T524
996Q446 996 360 983T193 941V1045Q266 1071 356 1085T534 1099Q681 1099 777 1063ZM599 81T688 118T849 230V532L541 496Q385 478 319 427T252 283Q252 186 313 134T501 81Q599 81 688 118ZM888 1258H774L567 1545L360 1258H246L509 1616H625L888 1258Z" />
<glyph unicode="&#xe3;" glyph-name="atilde" horiz-adv-x="1140" d="M681 1099T777 1063T922 943T972 715V0H866L856 128H847Q785 62 687 23T479 -17Q367 -17 287 18T165 119T123 274Q123 412 220 487T536 586L849 622V719Q849 827 813 887T706 972T524 996Q446
996 360 983T193 941V1045Q266 1071 356 1085T534 1099Q681 1099 777 1063ZM599 81T688 118T849 230V532L541 496Q385 478 319 427T252 283Q252 186 313 134T501 81Q599 81 688 118ZM680 1360T642 1370T551 1402Q501 1421 471 1429T411 1438Q360 1438 318 1421T237
1365V1460Q302 1524 413 1524Q455 1524 493 1514T583 1482Q633 1463 663 1455T723 1446Q774 1446 816 1463T897 1519V1424Q832 1360 721 1360Q680 1360 642 1370Z" />
<glyph unicode="&#xe4;" glyph-name="adieresis" horiz-adv-x="1140" d="M681 1099T777 1063T922 943T972 715V0H866L856 128H847Q785 62 687 23T479 -17Q367 -17 287 18T165 119T123 274Q123 412 220 487T536 586L849 622V719Q849 827 813 887T706 972T524 996Q446
996 360 983T193 941V1045Q266 1071 356 1085T534 1099Q681 1099 777 1063ZM599 81T688 118T849 230V532L541 496Q385 478 319 427T252 283Q252 186 313 134T501 81Q599 81 688 118ZM280 1339T257 1361T234 1421Q234 1460 257 1483T320 1506Q360 1506 383 1483T407
1421Q407 1383 384 1361T320 1339Q280 1339 257 1361ZM773 1339T750 1361T727 1421Q727 1460 750 1483T814 1506Q853 1506 876 1483T900 1421Q900 1383 877 1361T814 1339Q773 1339 750 1361Z" />
<glyph unicode="&#xe5;" glyph-name="aring" horiz-adv-x="1140" d="M681 1099T777 1063T922 943T972 715V0H866L856 128H847Q785 62 687 23T479 -17Q367 -17 287 18T165 119T123 274Q123 412 220 487T536 586L849 622V719Q849 827 813 887T706 972T524 996Q446
996 360 983T193 941V1045Q266 1071 356 1085T534 1099Q681 1099 777 1063ZM599 81T688 118T849 230V532L541 496Q385 478 319 427T252 283Q252 186 313 134T501 81Q599 81 688 118ZM513 1253T470 1277T402 1345T377 1443Q377 1497 401 1540T469 1607T567 1632Q621
1632 664 1608T732 1540T757 1443Q757 1389 733 1346T665 1278T567 1253Q513 1253 470 1277ZM622 1318T656 1351T690 1443Q690 1500 656 1534T567 1568Q512 1568 478 1534T444 1443Q444 1385 478 1352T567 1318Q622 1318 656 1351Z" />
<glyph unicode="&#xe6;" glyph-name="ae" horiz-adv-x="1867" d="M1769 498H972Q979 283 1088 184T1407 84Q1542 84 1713 135V32Q1547 -19 1393 -19Q1065 -19 935 186Q829 75 718 29T487 -17Q373 -17 291 18T166 120T123 276Q123 421 230 505T566 589H849V719Q849
827 813 887T706 972T524 996Q446 996 360 983T193 941V1045Q266 1071 355 1085T531 1099Q696 1099 795 1051T934 888Q989 992 1086 1045T1317 1099Q1533 1099 1651 956T1769 542V498ZM982 1004T972 589H1648Q1638 1004 1313 1004Q982 1004 972 589ZM608 81T708
127T891 274Q854 371 850 499H565Q252 499 252 284Q252 187 315 134T503 81Q608 81 708 127Z" />
<glyph unicode="&#xe7;" glyph-name="ccedilla" horiz-adv-x="985" d="M462 992T355 885T248 544Q248 308 348 198T646 88Q769 88 932 141V34Q790 -19 634 -19H625V-106Q707 -111 751 -150T796 -257Q796 -330 743 -369T594 -408Q544 -408 494 -398T408 -370V-300Q496
-342 591 -342Q654 -342 685 -321T716 -254Q716 -209 685 -188T590 -167H548V-15Q339 8 229 146T119 541Q119 822 260 960T675 1099Q815 1099 932 1064V956Q805 992 681 992Q462 992 355 885Z" />
<glyph unicode="&#xe8;" glyph-name="egrave" horiz-adv-x="1149" d="M1050 498H245Q252 283 362 184T685 84Q820 84 995 135V32Q822 -19 671 -19Q401 -19 260 119T119 541Q119 723 175 848T338 1036T592 1099Q813 1099 931 956T1050 539V498ZM255 1004T245 589H930Q925
800 840 902T591 1004Q255 1004 245 589ZM534 1258L247 1616H391L658 1258H534Z" />
<glyph unicode="&#xe9;" glyph-name="eacute" horiz-adv-x="1149" d="M1050 498H245Q252 283 362 184T685 84Q820 84 995 135V32Q822 -19 671 -19Q401 -19 260 119T119 541Q119 723 175 848T338 1036T592 1099Q813 1099 931 956T1050 539V498ZM255 1004T245 589H930Q925
800 840 902T591 1004Q255 1004 245 589ZM534 1258L801 1616H945L658 1258H534Z" />
<glyph unicode="&#xea;" glyph-name="ecircumflex" horiz-adv-x="1149" d="M1050 498H245Q252 283 362 184T685 84Q820 84 995 135V32Q822 -19 671 -19Q401 -19 260 119T119 541Q119 723 175 848T338 1036T592 1099Q813 1099 931 956T1050 539V498ZM255 1004T245
589H930Q925 800 840 902T591 1004Q255 1004 245 589ZM917 1258H803L596 1545L389 1258H275L538 1616H654L917 1258Z" />
<glyph unicode="&#xeb;" glyph-name="edieresis" horiz-adv-x="1149" d="M1050 498H245Q252 283 362 184T685 84Q820 84 995 135V32Q822 -19 671 -19Q401 -19 260 119T119 541Q119 723 175 848T338 1036T592 1099Q813 1099 931 956T1050 539V498ZM255 1004T245
589H930Q925 800 840 902T591 1004Q255 1004 245 589ZM309 1339T286 1361T263 1421Q263 1460 286 1483T349 1506Q389 1506 412 1483T436 1421Q436 1383 413 1361T349 1339Q309 1339 286 1361ZM802 1339T779 1361T756 1421Q756 1460 779 1483T843 1506Q882 1506
905 1483T929 1421Q929 1383 906 1361T843 1339Q802 1339 779 1361Z" />
<glyph unicode="&#xec;" glyph-name="igrave" horiz-adv-x="493" d="M185 0V1083H309V0H185ZM185 1258L-102 1616H42L309 1258H185Z" />
<glyph unicode="&#xed;" glyph-name="iacute" horiz-adv-x="493" d="M185 0V1083H309V0H185ZM185 1258L452 1616H596L309 1258H185Z" />
<glyph unicode="&#xee;" glyph-name="icircumflex" horiz-adv-x="493" d="M185 0V1083H309V0H185ZM568 1258H454L247 1545L40 1258H-74L189 1616H305L568 1258Z" />
<glyph unicode="&#xef;" glyph-name="idieresis" horiz-adv-x="493" d="M185 0V1083H309V0H185ZM-40 1339T-63 1361T-86 1421Q-86 1460 -63 1483T0 1506Q40 1506 63 1483T87 1421Q87 1383 64 1361T0 1339Q-40 1339 -63 1361ZM453 1339T430 1361T407 1421Q407 1460
430 1483T494 1506Q533 1506 556 1483T580 1421Q580 1383 557 1361T494 1339Q453 1339 430 1361Z" />
<glyph unicode="&#xf0;" glyph-name="eth" horiz-adv-x="1241" d="M980 1153T1050 961T1121 577Q1121 377 1059 244T886 46T622 -19Q386 -19 253 120T119 541Q119 727 180 851T353 1036T613 1097Q702 1097 775 1074T909 996Q843 1156 730 1299L237 1222L224 1307L664
1376Q543 1505 376 1616H546Q681 1526 794 1396L1083 1441L1096 1356L856 1319Q980 1153 1050 961ZM799 87T897 198T995 540Q995 777 898 885T620 994Q246 994 246 543Q246 87 622 87Q799 87 897 198Z" />
<glyph unicode="&#xf1;" glyph-name="ntilde" horiz-adv-x="1275" d="M185 1083H290L299 954H308Q389 1025 492 1062T709 1099Q897 1099 1002 1000T1107 687V0H983V685Q983 845 908 916T689 988Q588 988 486 950T309 830V0H185V1083ZM760 1360T722 1370T631 1402Q581
1421 551 1429T491 1438Q440 1438 398 1421T317 1365V1460Q382 1524 493 1524Q535 1524 573 1514T663 1482Q713 1463 743 1455T803 1446Q854 1446 896 1463T977 1519V1424Q912 1360 801 1360Q760 1360 722 1370Z" />
<glyph unicode="&#xf2;" glyph-name="ograve" horiz-adv-x="1241" d="M386 -19T253 120T119 541Q119 728 180 852T354 1038T620 1099Q857 1099 989 962T1122 541Q1122 355 1060 230T885 43T620 -19Q386 -19 253 120ZM995 87T995 540Q995 777 898 885T620 993Q246
993 246 543Q246 87 620 87Q995 87 995 540ZM558 1258L271 1616H415L682 1258H558Z" />
<glyph unicode="&#xf3;" glyph-name="oacute" horiz-adv-x="1241" d="M386 -19T253 120T119 541Q119 728 180 852T354 1038T620 1099Q857 1099 989 962T1122 541Q1122 355 1060 230T885 43T620 -19Q386 -19 253 120ZM995 87T995 540Q995 777 898 885T620 993Q246
993 246 543Q246 87 620 87Q995 87 995 540ZM558 1258L825 1616H969L682 1258H558Z" />
<glyph unicode="&#xf4;" glyph-name="ocircumflex" horiz-adv-x="1241" d="M386 -19T253 120T119 541Q119 728 180 852T354 1038T620 1099Q857 1099 989 962T1122 541Q1122 355 1060 230T885 43T620 -19Q386 -19 253 120ZM995 87T995 540Q995 777 898 885T620
993Q246 993 246 543Q246 87 620 87Q995 87 995 540ZM941 1258H827L620 1545L413 1258H299L562 1616H678L941 1258Z" />
<glyph unicode="&#xf5;" glyph-name="otilde" horiz-adv-x="1241" d="M386 -19T253 120T119 541Q119 728 180 852T354 1038T620 1099Q857 1099 989 962T1122 541Q1122 355 1060 230T885 43T620 -19Q386 -19 253 120ZM995 87T995 540Q995 777 898 885T620 993Q246
993 246 543Q246 87 620 87Q995 87 995 540ZM733 1360T695 1370T604 1402Q554 1421 524 1429T464 1438Q413 1438 371 1421T290 1365V1460Q355 1524 466 1524Q508 1524 546 1514T636 1482Q686 1463 716 1455T776 1446Q827 1446 869 1463T950 1519V1424Q885 1360
774 1360Q733 1360 695 1370Z" />
<glyph unicode="&#xf6;" glyph-name="odieresis" horiz-adv-x="1241" d="M386 -19T253 120T119 541Q119 728 180 852T354 1038T620 1099Q857 1099 989 962T1122 541Q1122 355 1060 230T885 43T620 -19Q386 -19 253 120ZM995 87T995 540Q995 777 898 885T620 993Q246
993 246 543Q246 87 620 87Q995 87 995 540ZM333 1339T310 1361T287 1421Q287 1460 310 1483T373 1506Q413 1506 436 1483T460 1421Q460 1383 437 1361T373 1339Q333 1339 310 1361ZM826 1339T803 1361T780 1421Q780 1460 803 1483T867 1506Q906 1506 929 1483T953
1421Q953 1383 930 1361T867 1339Q826 1339 803 1361Z" />
<glyph unicode="&#xf7;" glyph-name="divide" horiz-adv-x="1120" d="M519 1021T494 1044T469 1108Q469 1148 494 1172T560 1196Q601 1196 626 1172T651 1108Q651 1068 626 1045T560 1021Q519 1021 494 1044ZM179 708V812H941V708H179ZM519 324T494 347T469 410Q469
450 494 474T560 499Q601 499 626 475T651 410Q651 370 626 347T560 324Q519 324 494 347Z" />
<glyph unicode="&#xf8;" glyph-name="oslash" horiz-adv-x="1241" d="M1122 811T1122 541Q1122 355 1060 230T885 43T620 -19Q428 -19 305 73L227 -26L164 26L245 129Q119 272 119 541Q119 728 180 852T354 1038T620 1099Q812 1099 935 1010L1014 1109L1078 1057L996
953Q1122 811 1122 541ZM245 994T245 543Q245 336 321 224L866 918Q776 994 620 994Q245 994 245 543ZM996 87T996 540Q996 747 919 859L375 164Q467 87 620 87Q996 87 996 540Z" />
<glyph unicode="&#xf9;" glyph-name="ugrave" horiz-adv-x="1265" d="M377 -18T273 80T168 387V1083H292V393Q292 234 367 164T580 93Q682 93 782 133T956 253V1083H1080V0H975L966 123H957Q877 54 776 18T562 -18Q377 -18 273 80ZM562 1258L275 1616H419L686 1258H562Z" />
<glyph unicode="&#xfa;" glyph-name="uacute" horiz-adv-x="1265" d="M377 -18T273 80T168 387V1083H292V393Q292 234 367 164T580 93Q682 93 782 133T956 253V1083H1080V0H975L966 123H957Q877 54 776 18T562 -18Q377 -18 273 80ZM562 1258L829 1616H973L686 1258H562Z" />
<glyph unicode="&#xfb;" glyph-name="ucircumflex" horiz-adv-x="1265" d="M377 -18T273 80T168 387V1083H292V393Q292 234 367 164T580 93Q682 93 782 133T956 253V1083H1080V0H975L966 123H957Q877 54 776 18T562 -18Q377 -18 273 80ZM945 1258H831L624 1545L417
1258H303L566 1616H682L945 1258Z" />
<glyph unicode="&#xfc;" glyph-name="udieresis" horiz-adv-x="1265" d="M377 -18T273 80T168 387V1083H292V393Q292 234 367 164T580 93Q682 93 782 133T956 253V1083H1080V0H975L966 123H957Q877 54 776 18T562 -18Q377 -18 273 80ZM337 1339T314 1361T291 1421Q291
1460 314 1483T377 1506Q417 1506 440 1483T464 1421Q464 1383 441 1361T377 1339Q337 1339 314 1361ZM830 1339T807 1361T784 1421Q784 1460 807 1483T871 1506Q910 1506 933 1483T957 1421Q957 1383 934 1361T871 1339Q830 1339 807 1361Z" />
<glyph unicode="&#xfd;" glyph-name="yacute" horiz-adv-x="1173" d="M1019 1083H1143L472 -440H346L540 0H508L31 1083H165L589 97L1019 1083ZM526 1258L793 1616H937L650 1258H526Z" />
<glyph unicode="&#xfe;" glyph-name="thorn" horiz-adv-x="1265" d="M185 1616H309V956H317Q382 1025 473 1062T674 1099Q812 1099 917 1044T1084 868T1146 562Q1146 273 997 127T554 -19Q447 -19 309 3V-440H185V1616ZM789 86T904 199T1019 551Q1019 784 920
887T646 991Q549 991 461 953T309 833V116Q361 102 425 94T553 86Q789 86 904 199Z" />
<glyph unicode="&#xff;" glyph-name="ydieresis" horiz-adv-x="1173" d="M1019 1083H1143L472 -440H346L540 0H508L31 1083H165L589 97L1019 1083ZM301 1339T278 1361T255 1421Q255 1460 278 1483T341 1506Q381 1506 404 1483T428 1421Q428 1383 405 1361T341
1339Q301 1339 278 1361ZM794 1339T771 1361T748 1421Q748 1460 771 1483T835 1506Q874 1506 897 1483T921 1421Q921 1383 898 1361T835 1339Q794 1339 771 1361Z" />
<glyph unicode="&#x2013;" glyph-name="endash" horiz-adv-x="1000" d="M0 511V612H1000V511H0Z" />
<glyph unicode="&#x2014;" glyph-name="emdash" horiz-adv-x="2000" d="M0 511V612H2000V511H0Z" />
<glyph unicode="&#x2018;" glyph-name="quoteleft" horiz-adv-x="487" d="M286 1319T311 1294T337 1228Q337 1188 313 1163T246 1138Q200 1138 175 1167T150 1257Q150 1352 173 1443T237 1616H312Q281 1528 264 1458T244 1319Q286 1319 311 1294Z" />
<glyph unicode="&#x2019;" glyph-name="quoteright" horiz-adv-x="487" d="M287 1627T312 1598T337 1508Q337 1413 314 1322T249 1150H175Q206 1235 222 1306T242 1447Q201 1447 175 1472T149 1538Q149 1578 174 1602T241 1627Q287 1627 312 1598Z" />
<glyph unicode="&#x201a;" glyph-name="quotesinglbase" horiz-adv-x="487" d="M287 169T312 140T337 50Q337 -45 314 -137T249 -308H175Q206 -223 222 -152T242 -11Q201 -11 175 14T149 80Q149 120 174 144T241 169Q287 169 312 140Z" />
<glyph unicode="&#x201c;" glyph-name="quotedblleft" horiz-adv-x="843" d="M286 1319T311 1294T337 1228Q337 1188 313 1163T246 1138Q200 1138 175 1167T150 1257Q150 1352 173 1443T237 1616H312Q281 1528 264 1458T244 1319Q286 1319 311 1294ZM642 1319T667
1294T693 1228Q693 1188 669 1163T602 1138Q556 1138 531 1167T506 1257Q506 1352 529 1443T593 1616H668Q637 1528 620 1458T600 1319Q642 1319 667 1294Z" />
<glyph unicode="&#x201d;" glyph-name="quotedblright" horiz-adv-x="843" d="M287 1627T312 1598T337 1508Q337 1413 314 1322T249 1150H175Q206 1235 222 1306T242 1447Q201 1447 175 1472T149 1538Q149 1578 174 1602T241 1627Q287 1627 312 1598ZM643 1627T668
1598T693 1508Q693 1413 670 1322T605 1150H531Q562 1235 578 1306T598 1447Q557 1447 531 1472T505 1538Q505 1578 530 1602T597 1627Q643 1627 668 1598Z" />
<glyph unicode="&#x201e;" glyph-name="quotedblbase" horiz-adv-x="843" d="M287 169T312 140T337 50Q337 -45 314 -137T249 -308H175Q206 -223 222 -152T242 -11Q201 -11 175 14T149 80Q149 120 174 144T241 169Q287 169 312 140ZM643 169T668 140T693 50Q693
-45 670 -137T605 -308H531Q562 -223 578 -152T598 -11Q557 -11 531 14T505 80Q505 120 530 144T597 169Q643 169 668 140Z" />
<glyph unicode="&#x2022;" glyph-name="bullet" horiz-adv-x="743" d="M310 337T259 366T179 446T149 560Q149 623 178 674T259 754T372 783Q433 783 484 754T564 674T594 560Q594 497 565 446T484 366T372 337Q310 337 259 366Z" />
<glyph unicode="&#x2039;" glyph-name="guilsinglleft" horiz-adv-x="688" d="M456 139L136 561L456 984H592L272 561L592 139H456Z" />
<glyph unicode="&#x203a;" glyph-name="guilsinglright" horiz-adv-x="688" d="M96 139L416 561L96 984H232L552 561L232 139H96Z" />
</font>
</defs>
</svg>
