<?xml version="1.0" standalone="no"?>
<!DOCTYPE svg PUBLIC "-//W3C//DTD SVG 1.1//EN" "http://www.w3.org/Graphics/SVG/1.1/DTD/svg11.dtd">
<svg xmlns="http://www.w3.org/2000/svg">
<defs >
<font id="AlegreyaSansSC" horiz-adv-x="560" ><font-face
    font-family="Alegreya Sans SC Black"
    units-per-em="1000"
    panose-1="0 0 10 0 0 0 0 0 0 0"
    ascent="900"
    descent="-300"
    alphabetic="0" />
<glyph unicode=" " glyph-name="space" horiz-adv-x="118" />
<glyph unicode="!" glyph-name="exclam" horiz-adv-x="238" d="M246 499L176 213L67 199L51 216L70 491L88 512L227 520L246 499ZM140 169T161 147T183 84Q183 41 159 16T93 -9Q52 -9 30 13T8 76Q8 119 33 144T100 169Q140 169 161 147Z" />
<glyph unicode="&quot;" glyph-name="quotedbl" horiz-adv-x="437" d="M246 499L165 238L77 224L63 235L86 502L237 511L246 499ZM432 499L352 238L263 224L249 235L272 502L423 511L432 499Z" />
<glyph unicode="#" glyph-name="numbersign" horiz-adv-x="587" d="M467 346L453 256H525L536 244L528 148H436L417 31H306L298 43L315 148H223L204 31H94L85 43L102 148H31L20 159L28 256H119L133 346H61L50 358L58 455H150L169 572H277L289 559L272 455H363L382
572H489L501 559L484 455H555L566 443L558 346H467ZM346 346H255L240 256H332L346 346Z" />
<glyph unicode="$" glyph-name="dollar" horiz-adv-x="469" d="M235 359T248 351T292 332Q332 317 359 301T407 257T428 184Q428 123 389 71T272 -1L257 -140H161L150 -126L162 -12Q74 -8 0 16L44 176L62 189Q98 158 142 138T216 118Q242 118 242 137Q242 148
229 156T186 175Q145 190 117 206T69 251T48 325Q48 394 94 445T221 515L235 645H330L344 631L332 522Q396 516 452 496L409 343L383 336Q351 359 315 373T257 387Q235 387 235 371Q235 359 248 351Z" />
<glyph unicode="%" glyph-name="percent" horiz-adv-x="896" d="M746 647L753 623L202 -94L127 -44L123 -27L675 694L746 647ZM319 655T354 618T389 509Q389 403 335 342T184 281Q117 281 82 318T46 426Q46 533 100 594T253 655Q319 655 354 618ZM194 536T179
516T163 444Q163 417 173 404T207 391Q246 391 259 413T272 482Q272 510 261 523T225 536Q194 536 179 516ZM800 367T835 330T870 221Q870 115 816 54T665 -7Q598 -7 563 30T528 138Q528 245 582 306T734 367Q800 367 835 330ZM675 247T660 228T644 156Q644 128
654 116T688 103Q727 103 740 126T754 194Q754 222 743 234T706 247Q675 247 660 228Z" />
<glyph unicode="&amp;" glyph-name="ampersand" horiz-adv-x="737" d="M752 170T699 157Q668 157 600 171Q571 85 493 37T300 -12Q166 -12 93 54T20 246Q20 329 51 392T139 490T267 525Q331 525 366 499T407 430Q488 493 549 565T644 712H659Q717 658 738 587Q722
542 652 472T481 329Q516 326 587 312Q675 296 700 296Q718 296 731 302T755 326H774L796 213Q752 170 699 157ZM194 399T189 296Q220 311 257 331Q291 353 291 376Q291 399 260 399Q194 399 189 296ZM371 127T407 143T461 190Q442 185 413 159H395L376 258Q292
204 214 168Q246 127 321 127Q371 127 407 143Z" />
<glyph unicode="&apos;" glyph-name="quotesingle" horiz-adv-x="250" d="M246 499L165 238L77 224L63 235L86 502L237 511L246 499Z" />
<glyph unicode="(" glyph-name="parenleft" horiz-adv-x="307" d="M348 602L346 587Q271 516 240 387T208 140Q208 6 266 -65L264 -80L188 -137H171Q112 -89 83 -19T54 148Q54 300 102 439T269 659H286L348 602Z" />
<glyph unicode=")" glyph-name="parenright" horiz-adv-x="295" d="M-48 -80L-46 -65Q29 6 60 135T92 382Q92 516 34 587L36 602L112 659H129Q188 611 217 541T246 374Q246 222 198 83T31 -137H14L-48 -80Z" />
<glyph unicode="*" glyph-name="asterisk" horiz-adv-x="394" d="M301 741L265 614L214 608L205 616L199 734Q242 749 296 751L301 741ZM193 605L184 554L173 549L59 579Q58 623 72 676L84 679L193 605ZM418 609T436 561L429 553L297 549L274 595L279 606L391
648Q418 609 436 561ZM293 533L368 440Q344 407 299 370L289 374L244 499L281 534L293 533ZM225 509L227 498L163 398Q125 409 74 440L75 452L179 533L225 509Z" />
<glyph unicode="+" glyph-name="plus" horiz-adv-x="477" d="M332 469L314 320H461L472 307L448 190H298L279 38L161 29L149 41L168 190H19L9 203L32 320H184L202 472L320 481L332 469Z" />
<glyph unicode="," glyph-name="comma" horiz-adv-x="229" d="M171 159T182 133T194 76Q194 18 158 -35T43 -142L-18 -89L-20 -75Q9 -50 22 -24T36 34Q36 76 3 108L4 124Q76 164 147 182Q171 159 182 133Z" />
<glyph unicode="-" glyph-name="hyphen" horiz-adv-x="300" d="M284 326L271 206L31 168L19 182L33 302L272 340L284 326Z" />
<glyph unicode="." glyph-name="period" horiz-adv-x="230" d="M145 189T169 164T193 95Q193 47 166 19T93 -9Q47 -9 23 15T-1 86Q-1 133 26 161T101 189Q145 189 169 164Z" />
<glyph unicode="/" glyph-name="slash" horiz-adv-x="280" d="M353 667L90 -118H-45L-55 -103L208 683H339L353 667Z" />
<glyph unicode="0" glyph-name="zero" horiz-adv-x="517" d="M391 524T442 468T493 299Q493 208 461 138T368 28T226 -12Q130 -12 79 45T28 214Q28 303 60 373T153 484T296 524Q391 524 442 468ZM219 343T200 318T181 240Q181 196 195 177T250 158Q298 158 319
184T340 263Q340 308 325 325T269 343Q219 343 200 318Z" />
<glyph unicode="1" glyph-name="one" horiz-adv-x="379" d="M335 502L289 210L271 0H74L106 190L119 300L23 280L12 289L31 446L309 522L335 502Z" />
<glyph unicode="2" glyph-name="two" horiz-adv-x="490" d="M353 522T403 488T454 391Q454 351 425 308T323 199L273 152L276 147H354L452 157L460 145L420 -8L277 0H47L10 -3L2 4L17 121L157 232Q206 270 230 294T254 336Q254 358 221 358Q194 358 158 345T88
308H67L53 459Q173 522 274 522Q353 522 403 488Z" />
<glyph unicode="3" glyph-name="three" horiz-adv-x="453" d="M299 524T343 507T411 460T436 391Q436 349 407 304T328 235V229Q369 206 388 180T407 111Q407 51 371 5T269 -67T114 -93Q84 -93 49 -90T-12 -82L-5 61L10 73Q76 53 129 53Q220 53 220 104Q220 119
210 126T177 134H93L87 146L108 280L168 283Q190 284 210 300T231 337Q231 353 221 360T190 367Q148 367 75 334H55L43 469Q147 524 244 524Q299 524 343 507Z" />
<glyph unicode="4" glyph-name="four" horiz-adv-x="528" d="M473 28L404 30L398 -73L386 -86L233 -95L225 -83L244 32H114L1 28L-9 44L6 167L285 514H464L419 181H488L497 164L473 28ZM175 181H267L282 301H271L175 181Z" />
<glyph unicode="5" glyph-name="five" horiz-adv-x="448" d="M456 510L420 363L405 349L296 364H216L208 302L267 289Q338 273 372 238T407 144Q407 74 369 20T262 -64T106 -95Q46 -95 -21 -81L-14 58L-1 71Q63 52 126 52Q170 52 194 67T219 109Q219 127 206 137T163
152L56 170L46 184L85 498L106 518L169 514H330L447 522L456 510Z" />
<glyph unicode="6" glyph-name="six" horiz-adv-x="500" d="M361 376T398 352T454 287T474 202Q474 148 447 99T364 19T232 -12Q130 -12 73 44T15 198Q15 319 103 423T349 598H358L471 512L469 494Q389 471 335 441T247 372L252 365Q281 376 311 376Q361 376 398
352ZM267 112T282 132T297 185Q297 214 285 227T247 241Q222 241 191 231Q190 220 190 197Q190 151 201 132T239 112Q267 112 282 132Z" />
<glyph unicode="7" glyph-name="seven" horiz-adv-x="450" d="M193 514H403L461 516L443 375L276 88L183 -97L34 -54L25 -24L253 354H143L30 342L23 357L55 519L193 514Z" />
<glyph unicode="8" glyph-name="eight" horiz-adv-x="516" d="M387 598T438 559T489 453Q489 368 394 313L393 305Q432 281 453 251T474 173Q474 118 446 76T365 11T243 -12Q141 -12 83 28T24 135Q24 186 52 219T141 275L142 283Q68 329 68 415Q68 469 96 510T176
575T297 598Q387 598 438 559ZM256 467T242 455T227 423Q227 402 243 388T293 360Q335 393 335 425Q335 445 322 456T283 467Q256 467 242 455ZM213 214T200 200T186 165Q186 115 247 115Q280 115 297 129T315 162Q315 183 297 197T243 225Q213 214 200 200Z" />
<glyph unicode="9" glyph-name="nine" horiz-adv-x="500" d="M375 525T432 469T490 315Q490 194 402 90T156 -85H147L34 1L36 19Q116 42 170 72T258 141L253 148Q224 137 194 137Q144 137 107 161T51 226T31 311Q31 365 58 414T141 494T273 525Q375 525 432 469ZM283
272T314 282Q315 293 315 316Q315 362 304 381T266 401Q238 401 223 381T208 328Q208 299 220 286T258 272Q283 272 314 282Z" />
<glyph unicode=":" glyph-name="colon" horiz-adv-x="230" d="M146 189T170 164T194 95Q194 47 167 19T94 -9Q48 -9 24 15T0 86Q0 133 27 161T102 189Q146 189 170 164ZM178 444T202 419T226 350Q226 302 199 274T126 246Q80 246 56 270T32 341Q32 388 59 416T134
444Q178 444 202 419Z" />
<glyph unicode=";" glyph-name="semicolon" horiz-adv-x="229" d="M422 159T433 133T445 76Q445 18 409 -35T294 -142L233 -89L231 -75Q260 -50 273 -24T287 34Q287 76 254 108L255 124Q327 164 398 182Q422 159 433 133ZM171 444T195 419T219 350Q219 302 192
274T119 246Q73 246 49 270T25 341Q25 388 52 416T127 444Q171 444 195 419Z" />
<glyph unicode="&lt;" glyph-name="less" horiz-adv-x="492" d="M471 369L462 357L174 264L173 255L438 164L399 56L381 43L31 178L50 333L64 350L445 480L471 369Z" />
<glyph unicode="=" glyph-name="equal" horiz-adv-x="478" d="M481 413L472 296H42L30 309L39 426H469L481 413ZM711 456L702 339H272L260 352L269 469H699L711 456Z" />
<glyph unicode="&gt;" glyph-name="greater" horiz-adv-x="503" d="M461 350L471 333L452 178L69 43L54 56L42 164L330 255L331 264L64 357L59 369L112 480L461 350Z" />
<glyph unicode="?" glyph-name="question" horiz-adv-x="297" d="M205 522T269 489T334 395Q334 359 309 324T238 273L191 259L187 254L184 212L68 195L55 208V298L60 310L116 332Q159 347 161 373Q162 380 154 384T120 391T42 396L27 413L72 516L87 525Q205 522
269 489ZM149 167T171 145T193 84Q193 41 169 16T102 -9Q62 -9 41 12T19 75Q19 117 43 142T110 167Q149 167 171 145Z" />
<glyph unicode="@" glyph-name="at" horiz-adv-x="866" d="M855 170T747 86T436 2L450 106H435Q399 36 364 -5H343Q269 13 241 52T213 154Q213 214 237 273T313 382T440 456H446L537 441L640 462L651 454L608 132Q664 145 697 197T731 321Q731 422 665 481T485
540Q384 540 307 497T188 377T145 204Q145 103 192 30T324 -81T524 -119L530 -136L481 -225Q341 -225 237 -178T76 -39T19 183Q19 316 78 425T244 596T491 659Q600 659 682 620T810 505T855 327Q855 170 747 86ZM402 149T423 184T475 296L478 318L414 334Q368 334
368 223Q368 149 388 149Q402 149 423 184Z" />
<glyph unicode="A" glyph-name="A" horiz-adv-x="626" d="M602 -16H390L386 96V100L282 102L195 98L162 -16H-42L247 663H501L602 -16ZM372 253L353 476H341L254 253L314 252L372 253Z" />
<glyph unicode="B" glyph-name="B" horiz-adv-x="630" d="M565 309T590 277T615 190Q615 83 527 30T248 -23Q188 -23 18 -16L53 183L101 663L393 664Q502 664 565 624T629 506Q629 452 598 406T506 334Q565 309 590 277ZM379 393T396 414T413 467Q413 490 404
502T371 519T304 525H286L266 386L344 383Q379 393 396 414ZM347 115T375 136T403 194Q403 218 391 230T349 253L246 251L239 204L232 119Q282 115 298 115Q347 115 375 136Z" />
<glyph unicode="C" glyph-name="C" horiz-adv-x="516" d="M448 675T494 668T576 646L522 479L507 471Q481 487 447 496T382 505Q303 505 270 455T236 294Q236 218 264 182T351 146Q382 146 418 152T484 169L499 158L462 -8Q426 -19 394 -23T323 -28Q172 -28 92
46T12 260Q12 389 57 482T189 625T401 675Q448 675 494 668Z" />
<glyph unicode="D" glyph-name="D" horiz-adv-x="668" d="M522 651T593 585T665 397Q665 206 567 99T285 -9Q171 -9 32 0L65 190L111 647L394 651Q522 651 593 585ZM390 139T422 193T454 368Q454 437 434 466T367 496Q330 496 291 492L249 210L244 147Q304 139
331 139Q390 139 422 193Z" />
<glyph unicode="E" glyph-name="E" horiz-adv-x="540" d="M290 502L276 406H379L490 409L499 394L468 242L347 245L252 244L246 204L241 145H342L517 151L526 136L495 -16H17L52 183L101 663H587L597 648L564 496L398 502H290Z" />
<glyph unicode="F" glyph-name="F" horiz-adv-x="480" d="M291 502L273 380H344L466 383L476 368L444 216L311 219H249L247 204L228 -16H18L53 183L102 663H555L564 648L531 496L366 502H291Z" />
<glyph unicode="G" glyph-name="G" horiz-adv-x="599" d="M479 658T531 650T619 628L555 452H539Q492 477 457 488T379 499Q330 499 299 481T251 410T233 260Q233 191 258 165T343 138Q357 138 379 142L383 175L393 286L577 299L563 209L541 32Q422 -12 316 -12Q175
-12 100 59T24 258Q24 451 127 554T426 658Q479 658 531 650Z" />
<glyph unicode="H" glyph-name="H" horiz-adv-x="711" d="M717 663L648 204L630 -16H420L455 183L461 237L347 239L248 236L243 204L224 -16H14L50 183L98 663H311L273 406L380 404L478 406L504 663H717Z" />
<glyph unicode="I" glyph-name="I" horiz-adv-x="327" d="M249 210L231 0H31L65 190L111 647H314L249 210Z" />
<glyph unicode="J" glyph-name="J" horiz-adv-x="362" d="M288 210L279 117Q270 51 243 6T162 -71T16 -131L-26 -23L-24 -6Q32 20 56 48T86 123L95 189L129 519L42 516L33 529L58 666H357L288 210Z" />
<glyph unicode="K" glyph-name="K" horiz-adv-x="630" d="M448 330Q517 202 622 42L617 20Q508 -4 414 -12L393 0Q313 175 262 298L249 210L231 0H31L65 190L111 647H314L274 376L423 577L466 647H677L448 330Z" />
<glyph unicode="L" glyph-name="L" horiz-adv-x="452" d="M440 149L411 0H26L59 190L105 647H308L244 210L240 163H431L440 149Z" />
<glyph unicode="M" glyph-name="M" horiz-adv-x="806" d="M764 -16H579L600 190L610 362H597L447 48H289L237 362H224L191 210L153 -16H-21L127 663H369L378 567L408 319H421L516 559L554 663H792L764 -16Z" />
<glyph unicode="N" glyph-name="N" horiz-adv-x="710" d="M636 211L618 0H401L261 348H249L234 234L213 0H32L65 190L111 647H328L469 299H481L517 640L701 651L636 211Z" />
<glyph unicode="O" glyph-name="O" horiz-adv-x="658" d="M519 676T594 602T670 377Q670 259 627 167T499 23T297 -29Q159 -29 84 46T8 274Q8 391 51 482T179 624T382 676Q519 676 594 602ZM316 509T288 490T244 419T228 270Q228 214 235 184T261 140T319 126Q360
126 388 144T432 215T449 364Q449 420 442 450T415 495T358 509Q316 509 288 490Z" />
<glyph unicode="P" glyph-name="P" horiz-adv-x="593" d="M516 664T575 616T635 478Q635 390 594 322T478 215T305 176H244L227 -16H17L52 183L100 663L411 664Q516 664 575 616ZM380 342T396 371T412 444Q412 481 392 499T330 519L292 516L264 327L342 323Q380
342 396 371Z" />
<glyph unicode="Q" glyph-name="Q" horiz-adv-x="662" d="M704 -79Q654 -156 593 -205L579 -212Q420 -127 299 -12H296Q165 -12 95 59T24 276Q24 388 66 474T189 610T383 659Q514 659 584 589T654 374Q654 260 611 172T486 35Q586 -22 698 -61L704 -79ZM233 219T240
190T265 148T320 135Q359 135 386 153T428 220T444 362Q444 415 437 444T412 487T357 500Q317 500 291 482T249 415T233 273Q233 219 240 190Z" />
<glyph unicode="R" glyph-name="R" horiz-adv-x="630" d="M622 407T588 349T490 250Q551 135 606 47L601 25Q495 -6 396 -12L379 4L365 45Q344 106 316 193H248L231 0H31L65 190L111 647L407 648Q507 648 564 603T622 475Q622 407 588 349ZM408 476T390 492T330
510L293 507L268 339L341 335Q377 350 392 376T408 442Q408 476 390 492Z" />
<glyph unicode="S" glyph-name="S" horiz-adv-x="528" d="M453 676T548 639L496 469L466 456Q426 483 385 499T316 515Q290 515 275 504T260 477Q260 458 280 444T346 408Q399 383 432 362T491 305T516 217Q516 150 477 94T367 5T205 -29Q98 -29 -16 11L34 193L56
205Q101 168 154 147T244 126Q275 126 288 137T302 163Q302 185 281 200T214 236Q162 261 130 282T73 338T49 425Q49 495 88 552T198 643T354 676Q453 676 548 639Z" />
<glyph unicode="T" glyph-name="T" horiz-adv-x="518" d="M573 648L543 496L406 502H392L350 204L332 -16H123L158 183L192 502H178L37 496L27 511L57 663H564L573 648Z" />
<glyph unicode="U" glyph-name="U" horiz-adv-x="653" d="M610 319L597 216Q583 105 507 47T297 -12Q178 -12 112 36T45 173Q45 194 48 216L63 319L97 647H297L239 243Q237 223 237 216Q237 179 255 162T314 145Q361 145 385 168T414 243L454 647H657L610 319Z" />
<glyph unicode="V" glyph-name="V" horiz-adv-x="615" d="M396 -16H143L40 663H252L257 551L291 171H302L444 538L480 663H684L396 -16Z" />
<glyph unicode="W" glyph-name="W" horiz-adv-x="914" d="M694 0H482L450 234H439L353 0H140L68 647H262L260 547L281 201H292L403 497L387 647H590L589 526L617 201H628L748 535L780 647H964L694 0Z" />
<glyph unicode="X" glyph-name="X" horiz-adv-x="634" d="M466 332L623 -16H376L351 67L304 178L210 56L167 -16H-45L197 321L36 663H284L310 578L356 470L440 590L481 663H700L466 332Z" />
<glyph unicode="Y" glyph-name="Y" horiz-adv-x="594" d="M380 197L374 162L361 -16H152L184 162L187 201L27 663H246L255 606L307 401H319L434 599L465 663H680L380 197Z" />
<glyph unicode="Z" glyph-name="Z" horiz-adv-x="569" d="M570 505L251 147H412L536 156L541 147L506 -5L330 0H100L-2 -6L16 136L341 500H183L62 490L56 498L89 650L239 647H513L588 648L570 505Z" />
<glyph unicode="[" glyph-name="bracketleft" horiz-adv-x="302" d="M361 640L350 554L253 540L186 -14L279 -29L268 -114L260 -123L16 -113L73 263L109 639L355 649L361 640Z" />
<glyph unicode="\" glyph-name="backslash" horiz-adv-x="455" d="M58 667L73 683H203L411 -103L400 -118H266L58 667Z" />
<glyph unicode="]" glyph-name="bracketright" horiz-adv-x="303" d="M-52 -114L-41 -28L56 -14L123 540L30 555L41 640L49 649L293 639L236 263L200 -113L-46 -123L-52 -114Z" />
<glyph unicode="^" glyph-name="asciicircum" horiz-adv-x="460" d="M440 161L425 145L314 119L254 371H245L121 118L107 111L2 151L174 491L192 502H347L440 161Z" />
<glyph unicode="_" glyph-name="underscore" horiz-adv-x="438" d="M411 -104L389 -210H-58L-68 -197L-46 -91H401L411 -104Z" />
<glyph unicode="`" glyph-name="grave" horiz-adv-x="394" d="M289 667T388 594L344 522L327 521Q246 558 104 630L101 647L170 753L187 754Q289 667 388 594Z" />
<glyph unicode="a" glyph-name="a" horiz-adv-x="549" d="M321 0L319 74L240 76L175 73L155 0H-22L202 513H422L505 0H321ZM266 205L308 206L294 352H283L225 206L266 205Z" />
<glyph unicode="b" glyph-name="b" horiz-adv-x="558" d="M478 243T498 215T519 140Q519 69 449 32T243 -6Q166 -6 24 0L52 149L87 513H346Q433 513 483 482T533 392Q533 351 508 318T436 263Q478 243 498 215ZM321 315T329 326T338 357Q338 377 327 383T283 389H250L239
310L304 307Q321 315 329 326ZM294 116T311 128T329 161Q329 178 310 192L222 190L219 168L215 119Q245 116 265 116Q294 116 311 128Z" />
<glyph unicode="c" glyph-name="c" horiz-adv-x="448" d="M370 522T408 518T475 506L426 355L413 347Q394 359 367 366T312 373Q262 373 239 344T216 250Q216 194 234 168T301 142Q322 142 350 146T400 157L414 149L381 -2Q336 -10 287 -10Q148 -10 83 48T18 224Q18
314 54 381T162 485T335 522Q370 522 408 518Z" />
<glyph unicode="d" glyph-name="d" horiz-adv-x="576" d="M440 516T501 463T563 313Q563 161 481 77T243 -8Q160 -8 24 0L51 149L87 513L331 516Q440 516 501 463ZM324 128T346 162T368 285Q368 333 354 353T307 373Q284 373 253 370L221 168L219 136Q263 128
284 128Q324 128 346 162Z" />
<glyph unicode="e" glyph-name="e" horiz-adv-x="480" d="M253 372L246 327H326L414 330L422 317L395 182L298 185H225L222 168L220 141H299L439 146L448 134L420 0H24L52 149L87 513H490L499 500L471 366L338 372H253Z" />
<glyph unicode="f" glyph-name="f" horiz-adv-x="426" d="M249 372L239 305H292L390 308L399 295L371 160L261 163H218L205 0H20L48 149L83 513H458L467 500L438 366L304 372H249Z" />
<glyph unicode="g" glyph-name="g" horiz-adv-x="515" d="M446 522T523 502L463 340H449Q408 359 379 367T313 376Q278 376 257 365T223 320T210 220Q210 183 216 164T239 136T292 127Q304 127 306 127T310 128L313 141L321 232L491 243L480 173L462 26Q360 -11
270 -11Q147 -11 82 50T17 231Q17 369 104 445T359 522Q446 522 523 502Z" />
<glyph unicode="h" glyph-name="h" horiz-adv-x="615" d="M596 513L543 168L530 0H345L372 149L375 178L295 180L224 178L222 168L210 0H25L52 149L88 513H276L247 328L323 326L390 328L408 513H596Z" />
<glyph unicode="i" glyph-name="i" horiz-adv-x="304" d="M222 168L210 0H25L52 149L88 513H276L222 168Z" />
<glyph unicode="j" glyph-name="j" horiz-adv-x="345" d="M256 168L250 99Q243 48 221 13T153 -48T29 -99L-10 -4L-9 10Q36 27 55 47T78 100L85 150L108 378L29 376L21 387L47 513H307L256 168Z" />
<glyph unicode="k" glyph-name="k" horiz-adv-x="555" d="M401 266Q450 175 540 39L534 19Q436 -3 347 -10L327 1Q269 133 231 226L222 168L209 0H24L51 149L87 513H275L243 306L352 454L387 513H581L401 266Z" />
<glyph unicode="l" glyph-name="l" horiz-adv-x="403" d="M380 138L352 0H19L47 149L82 513H270L217 168L216 150H372L380 138Z" />
<glyph unicode="m" glyph-name="m" horiz-adv-x="692" d="M634 0H471L489 155L493 248H483L381 44H242L207 248H196L178 173L150 0H-5L110 513H325L330 441L346 284H357L416 433L445 513H655L634 0Z" />
<glyph unicode="n" glyph-name="n" horiz-adv-x="616" d="M544 171L530 0H332L223 241H214L206 189L189 0H24L52 150L87 513H285L395 271H406L428 506L597 516L544 171Z" />
<glyph unicode="o" glyph-name="o" horiz-adv-x="568" d="M431 523T492 466T554 292Q554 204 519 136T415 28T253 -11Q140 -11 79 47T17 222Q17 310 52 378T156 484T318 523Q431 523 492 466ZM266 377T249 367T221 323T210 224Q210 182 215 162T235 133T277 125Q305
125 322 135T350 179T360 279Q360 320 355 340T336 369T295 377Q266 377 249 367Z" />
<glyph unicode="p" glyph-name="p" horiz-adv-x="526" d="M427 513T481 470T535 350Q535 288 500 239T402 163T260 135H219L209 0H24L51 149L87 513H340Q427 513 481 470ZM320 281T329 298T338 340Q338 363 329 373T293 387L255 384L237 267L296 263Q320 281 329 298Z" />
<glyph unicode="q" glyph-name="q" horiz-adv-x="573" d="M593 -52Q570 -87 547 -114T493 -165L480 -172Q358 -101 260 -11H253Q140 -11 79 47T17 222Q17 310 52 378T156 484T318 523Q431 523 492 466T554 292Q554 206 520 138T421 31Q496 -6 588 -36L593 -52ZM210
182T215 162T235 133T277 125Q305 125 322 135T350 179T360 279Q360 320 355 340T336 369T295 377Q266 377 249 367T221 323T210 224Q210 182 215 162Z" />
<glyph unicode="r" glyph-name="r" horiz-adv-x="556" d="M536 315T509 272T432 197Q476 118 527 43L521 23Q424 -4 337 -10L315 9Q291 79 271 142H219L209 0H24L51 149L87 513H350Q435 513 485 474T536 365Q536 315 509 272ZM255 384L238 276L297 272Q320 283
329 299T338 337Q338 363 328 374T292 387L255 384Z" />
<glyph unicode="s" glyph-name="s" horiz-adv-x="468" d="M379 523T453 496L410 343L384 336Q352 359 316 373T258 387Q236 387 236 371Q236 359 249 351T293 332Q333 317 360 301T408 257T429 184Q429 134 403 90T321 17T179 -12Q88 -12 1 16L45 176L63 189Q99
158 143 138T217 118Q243 118 243 137Q243 148 230 156T187 175Q146 190 118 206T70 251T49 325Q49 380 79 425T165 496T299 523Q379 523 453 496Z" />
<glyph unicode="t" glyph-name="t" horiz-adv-x="457" d="M475 500L449 366L337 372H333L304 168L291 0H107L134 149L157 372H153L38 366L29 379L56 513H468L475 500Z" />
<glyph unicode="u" glyph-name="u" horiz-adv-x="566" d="M519 253L508 169Q497 81 432 35T250 -11Q148 -11 91 27T34 136Q34 153 37 169L49 252L76 513H260L213 194Q212 188 212 178Q212 154 225 144T269 134Q304 134 320 148T339 194L370 513H557L519 253Z" />
<glyph unicode="v" glyph-name="v" horiz-adv-x="539" d="M347 0H123L43 513H229L233 418L255 162H266L360 407L389 513H569L347 0Z" />
<glyph unicode="w" glyph-name="w" horiz-adv-x="780" d="M596 0H396L374 151H363L311 0H111L55 513H237L234 424L242 187H253L330 397L319 513H509L508 404L523 187H534L612 413L639 513H811L596 0Z" />
<glyph unicode="x" glyph-name="x" horiz-adv-x="554" d="M393 262L528 0H311L290 69L261 133L201 59L166 0H-23L173 252L33 513H251L272 442L303 377L356 453L389 513H583L393 262Z" />
<glyph unicode="y" glyph-name="y" horiz-adv-x="524" d="M330 150L326 131L318 0H134L159 131L161 152L31 513H224L232 466L269 332H279L355 459L382 513H570L330 150Z" />
<glyph unicode="z" glyph-name="z" horiz-adv-x="499" d="M484 382L236 135H354L462 143L466 136L435 -5L276 0H91L1 -5L17 125L269 377H154L46 368L41 375L71 515L205 513H499L484 382Z" />
<glyph unicode="{" glyph-name="braceleft" horiz-adv-x="303" d="M312 659T349 647L354 634L328 539Q310 544 295 544Q270 544 257 529T243 487Q243 474 249 442Q255 410 255 393Q255 359 234 329T172 281L171 274Q199 259 214 235T229 183Q229 166 224 150T207
112Q197 92 193 79T188 52Q188 11 230 11Q244 11 264 16L267 -79L258 -92Q218 -104 177 -104Q107 -104 70 -76T32 5Q32 30 38 53T56 105Q65 128 69 143T73 171Q73 213 26 234L37 321Q101 347 101 404Q101 417 100 428T98 449Q94 487 94 510Q94 582 140 620T271
659Q312 659 349 647Z" />
<glyph unicode="|" glyph-name="bar" horiz-adv-x="300" d="M295 797L228 294L163 -245L30 -256L17 -240L82 279L146 799L283 810L295 797Z" />
<glyph unicode="}" glyph-name="braceright" horiz-adv-x="302" d="M2 -104T-36 -92L-41 -79L-15 16Q3 11 18 11Q43 11 56 26T70 68Q70 81 64 113Q58 145 58 162Q58 196 79 226T141 274L142 281Q114 296 99 320T84 372Q84 389 89 405T106 443Q116 463 120 476T125
503Q125 544 83 544Q69 544 49 539L46 634L55 647Q96 659 136 659Q206 659 243 631T281 550Q281 525 275 502T257 450Q248 427 244 412T240 384Q240 342 287 321L276 234Q212 208 212 151Q212 138 213 127T215 106Q219 68 219 45Q219 -27 173 -65T42 -104Q2 -104
-36 -92Z" />
<glyph unicode="~" glyph-name="asciitilde" horiz-adv-x="480" d="M130 212T113 198T63 152H47L3 214L5 230L112 345L128 352Q157 347 232 323Q265 313 295 304T338 295Q353 295 369 307T401 334T423 356H439L481 293L479 277L374 162L357 157Q327 161 242 188Q236
190 199 201T148 212Q130 212 113 198Z" />
<glyph unicode="&#xa0;" glyph-name="uni00A0" horiz-adv-x="118" />
<glyph unicode="&#xa1;" glyph-name="exclamdown" horiz-adv-x="238" d="M98 342T77 364T55 427Q55 470 79 495T145 520Q186 520 208 498T230 435Q230 392 205 367T138 342Q98 342 77 364ZM-8 12L62 298L171 312L187 295L168 20L150 -1L11 -9L-8 12Z" />
<glyph unicode="&#xa2;" glyph-name="cent" horiz-adv-x="384" d="M311 231L365 166Q339 121 311 94T244 47L219 -127H122L111 -113L132 39Q69 58 41 103T13 224Q13 325 60 401T201 504L223 660H317L332 646L313 512L386 492L392 475L347 357L311 356Q293 376
281 384T251 393Q210 393 190 359T170 256Q170 210 181 189T217 168Q235 168 251 182T290 232L311 231Z" />
<glyph unicode="&#xa3;" glyph-name="sterling" horiz-adv-x="479" d="M441 597T500 584L475 450L461 442Q394 474 350 474Q292 474 285 423L275 353H401L405 344L386 249H261L256 216Q252 183 242 165T209 131V126H329L440 134L444 126L416 -5L262 0H-10L-15
9L5 116Q46 127 65 148T89 207L94 249H20L17 258L35 353H106L110 392Q121 491 192 544T381 597Q441 597 500 584Z" />
<glyph unicode="&#xa4;" glyph-name="currency" horiz-adv-x="434" d="M474 490L472 474L393 413Q402 388 402 356Q402 316 380 274L445 219L446 202L351 114H335L285 185Q248 166 207 166Q174 166 141 181L79 111L61 108L-17 191L-14 207L63 266Q54 290 54 322Q54
366 77 407L14 462V479L108 568L124 567L175 496Q212 512 249 512Q281 512 312 499L378 571L396 574L474 490ZM200 411T178 389T155 329Q155 300 171 284T219 267Q257 267 279 289T301 349Q301 378 284 394T237 411Q200 411 178 389Z" />
<glyph unicode="&#xa5;" glyph-name="yen" horiz-adv-x="585" d="M553 326L560 319L544 240H415L377 185H535L542 178L528 99H346L339 0H170L189 99H25L20 108L34 185H184L162 240H42L37 249L52 326H129L57 511H235L244 466L295 321H305L401 460L427 511H600L473
326H553Z" />
<glyph unicode="&#xa6;" glyph-name="brokenbar" horiz-adv-x="300" d="M295 797L240 382L105 365L94 376L146 799L283 810L295 797ZM210 145L163 -245L30 -256L17 -240L65 146L197 161L210 145Z" />
<glyph unicode="&#xa7;" glyph-name="section" horiz-adv-x="458" d="M239 506T254 497T302 473Q345 455 374 438T425 393T447 324Q447 276 416 234T330 166Q381 127 381 72Q381 26 351 -12T268 -73T152 -96Q115 -96 68 -88T-17 -68L20 67L37 78Q70 50 110 33T180
16Q201 16 212 23T223 41Q223 53 208 62T160 84Q117 102 88 119T37 164T15 234Q15 282 45 325T128 394Q80 432 80 487Q80 533 111 572T195 635T313 658Q347 658 386 651T453 633L418 504L397 497Q366 518 334 529T279 540Q261 540 250 533T239 517Q239 506 254
497ZM174 262T190 248T236 217Q287 243 287 277Q287 297 271 311T224 341Q200 329 187 314T174 281Q174 262 190 248Z" />
<glyph unicode="&#xa8;" glyph-name="dieresis" horiz-adv-x="390" d="M189 715T210 694T232 634Q232 592 209 568T144 543Q104 543 84 564T63 626Q63 668 86 691T151 715Q189 715 210 694ZM383 715T404 694T425 634Q425 592 402 568T338 543Q298 543 277 564T256
626Q256 668 280 691T345 715Q383 715 404 694Z" />
<glyph unicode="&#xa9;" glyph-name="copyright" horiz-adv-x="695" d="M445 598T514 560T621 453T659 293Q659 202 621 133T514 26T354 -12Q264 -12 195 26T88 133T50 293Q50 384 88 453T195 560T354 598Q445 598 514 560ZM283 537T228 507T143 421T112 293Q112
221 142 166T228 80T354 49Q426 49 481 79T566 165T597 293Q597 365 567 420T481 506T354 537Q283 537 228 507ZM421 464T468 455L446 355L439 350Q427 356 410 359T379 362Q353 362 343 351T332 307Q332 267 345 249T388 231Q418 231 446 236L456 230L446 131Q434
129 411 129H378Q199 129 199 292Q199 373 247 418T384 464Q421 464 468 455Z" />
<glyph unicode="&#xaa;" glyph-name="ordfeminine" horiz-adv-x="337" d="M350 646L317 399L314 324L204 317L216 412H206Q174 350 140 313H125Q75 326 56 354T36 427Q36 499 79 561T204 648H209L276 637L342 651L350 646ZM166 411T186 443T233 536L236 558L188
569Q164 569 151 543T138 471Q138 440 143 426T155 411Q166 411 186 443Z" />
<glyph unicode="&#xab;" glyph-name="guillemotleft" horiz-adv-x="466" d="M258 221L262 248L409 425L494 378L496 361L400 230L464 100L458 83L362 36L258 221ZM52 221L56 248L203 425L288 378L290 361L194 230L258 100L252 83L156 36L52 221Z" />
<glyph unicode="&#xac;" glyph-name="logicalnot" horiz-adv-x="481" d="M450 311L416 38L299 29L287 41L306 190H22L11 203L35 320H445L450 311Z" />
<glyph unicode="&#xad;" glyph-name="uni00AD" horiz-adv-x="300" d="M284 326L271 206L31 168L19 182L33 302L272 340L284 326Z" />
<glyph unicode="&#xae;" glyph-name="registered" horiz-adv-x="454" d="M313 703T366 650T419 511Q419 425 366 372T227 319Q141 319 88 372T35 511Q35 597 88 650T227 703Q313 703 366 650ZM295 361T336 402T377 511Q377 579 336 620T227 661Q160 661 119 620T77
511Q77 444 118 403T227 361Q295 361 336 402ZM320 536T311 521T284 495Q309 460 332 433L331 426Q312 419 269 415L261 420Q244 450 232 476H207L210 419H146L149 475L146 615L246 616Q281 616 300 600T320 553Q320 536 311 521ZM253 559T246 564T223 570L210
569L208 521L235 519Q245 525 249 531T253 548Q253 559 246 564Z" />
<glyph unicode="&#xaf;" glyph-name="overscore" horiz-adv-x="385" d="M390 678L381 571H105L93 584L102 690H378L390 678Z" />
<glyph unicode="&#xb0;" glyph-name="degree" horiz-adv-x="293" d="M250 659T284 624T318 538Q318 498 297 464T241 409T165 389Q114 389 80 424T46 510Q46 550 67 584T123 639T198 659Q250 659 284 624ZM161 580T143 563T125 517Q125 494 138 481T175 468Q202
468 220 485T238 531Q238 553 225 566T189 580Q161 580 143 563Z" />
<glyph unicode="&#xb1;" glyph-name="plusminus" horiz-adv-x="479" d="M333 469L315 320H462L473 307L449 190H299L280 38L162 29L150 41L169 190H20L10 203L33 320H185L203 472L321 481L333 469ZM427 -28L418 -145H-12L-24 -132L-15 -15H415L427 -28Z" />
<glyph unicode="&#xb2;" glyph-name="uni00B2" horiz-adv-x="375" d="M305 707T340 683T375 615Q375 583 353 548T278 459L238 418L240 415H297L369 422L375 413L346 301L238 307H68L42 305L36 310L46 394L147 483Q190 522 206 539T222 571Q222 589 198 589Q179
589 153 578T102 549H86L74 657Q172 707 250 707Q305 707 340 683Z" />
<glyph unicode="&#xb3;" glyph-name="uni00B3" horiz-adv-x="337" d="M280 708T317 683T354 616Q354 553 281 516V512Q339 493 339 435Q339 373 279 336T122 299Q77 299 37 307L40 409L51 417Q97 404 137 404Q169 404 183 410T198 430Q198 445 172 445H110L104
453L117 548L150 550Q173 551 187 558T201 580Q201 589 194 592T172 596Q146 596 92 577H77L65 672Q101 689 141 698T219 708Q280 708 317 683Z" />
<glyph unicode="&#xb4;" glyph-name="acute" horiz-adv-x="382" d="M313 753L382 647L379 630Q237 558 156 521L139 522L95 594Q194 667 296 754L313 753Z" />
<glyph unicode="&#xb5;" glyph-name="uni00B5" horiz-adv-x="692" d="M634 0H471L489 155L493 248H483L381 44H242L207 248H196L178 173L150 0H-5L110 513H325L330 441L346 284H357L416 433L445 513H655L634 0Z" />
<glyph unicode="&#xb6;" glyph-name="paragraph" horiz-adv-x="564" d="M605 634L576 500H517L474 213L468 144Q461 85 435 43T354 -33T208 -95L169 -6L171 10Q227 36 252 64T283 137L290 193L321 501H289Q266 491 253 463T240 396Q240 368 249 340T274 287L193
190Q115 212 73 264T31 391Q31 512 111 579T335 647H595L605 634Z" />
<glyph unicode="&#xb7;" glyph-name="middot" horiz-adv-x="231" d="M166 359T190 334T214 265Q214 217 187 189T114 161Q68 161 44 185T20 256Q20 303 47 331T122 359Q166 359 190 334Z" />
<glyph unicode="&#xb8;" glyph-name="cedilla" horiz-adv-x="381" d="M170 -43L204 -62Q228 -75 238 -90T248 -125Q248 -162 219 -185T138 -209Q89 -209 46 -185L57 -110L65 -107Q80 -120 97 -127T125 -135Q141 -135 141 -121Q141 -112 129 -106L79 -79L101 33H184L170
-43Z" />
<glyph unicode="&#xb9;" glyph-name="uni00B9" horiz-adv-x="295" d="M293 692L256 448L245 307H96L117 434L131 548L50 536L41 542L55 654L274 706L293 692Z" />
<glyph unicode="&#xba;" glyph-name="ordmasculine" horiz-adv-x="323" d="M238 650Q286 641 313 611T340 529Q340 431 290 374T150 312L140 314Q38 333 38 442Q38 534 89 590T227 651L238 650ZM171 570T158 540T144 441Q144 413 150 402T172 391Q207 391 220
421T233 521Q233 549 228 559T207 570Q171 570 158 540Z" />
<glyph unicode="&#xbb;" glyph-name="guillemotright" horiz-adv-x="466" d="M414 243L410 216L263 39L178 86L176 103L272 234L208 364L214 381L310 428L414 243ZM464 243L460 216L313 39L228 86L226 103L322 234L258 364L264 381L360 428L464 243Z" />
<glyph unicode="&#xbc;" glyph-name="onequarter" horiz-adv-x="797" d="M286 639L249 395L238 254H89L110 381L124 495L43 483L34 489L48 601L267 653L286 639ZM673 647L680 623L129 -94L54 -44L50 -27L602 694L673 647ZM753 69L707 70L704 9L695 0L580 -6L573
2L584 72H498L414 69L407 80L417 168L611 393H746L716 178H765L771 166L753 69ZM542 178H600L607 243H599L542 178Z" />
<glyph unicode="&#xbd;" glyph-name="onehalf" horiz-adv-x="836" d="M286 639L249 395L238 254H89L110 381L124 495L43 483L34 489L48 601L267 653L286 639ZM673 647L680 623L129 -94L54 -44L50 -27L602 694L673 647ZM728 400T763 376T798 308Q798 276 776 241T701
152L661 111L663 108H720L792 115L798 106L769 -6L661 0H491L465 -2L459 3L469 87L570 176Q613 215 629 232T645 264Q645 282 621 282Q602 282 576 271T525 242H509L497 350Q595 400 673 400Q728 400 763 376Z" />
<glyph unicode="&#xbe;" glyph-name="threequarters" horiz-adv-x="839" d="M273 655T310 630T347 563Q347 500 274 463V459Q332 440 332 382Q332 320 272 283T115 246Q70 246 30 254L33 356L44 364Q90 351 130 351Q162 351 176 357T191 377Q191 392 165 392H103L97
400L110 495L143 497Q166 498 180 505T194 527Q194 536 187 539T165 543Q139 543 85 524H70L58 619Q94 636 134 645T212 655Q273 655 310 630ZM715 647L722 623L171 -94L96 -44L92 -27L644 694L715 647ZM795 69L749 70L746 9L737 0L622 -6L615 2L626 72H540L456
69L449 80L459 168L653 393H788L758 178H807L813 166L795 69ZM584 178H642L649 243H641L584 178Z" />
<glyph unicode="&#xbf;" glyph-name="questiondown" horiz-adv-x="297" d="M148 349T126 371T104 432Q104 475 128 500T195 525Q235 525 256 504T278 441Q278 399 254 374T187 349Q148 349 126 371ZM92 -6T28 27T-37 121Q-37 157 -12 192T59 243L106 257L110 262L113
304L229 321L242 308V218L237 206L181 184Q138 169 136 143Q135 136 143 132T177 125T255 120L270 103L225 0L210 -9Q92 -6 28 27Z" />
<glyph unicode="&#xc0;" glyph-name="Agrave" horiz-adv-x="626" d="M602 -16H390L386 96V100L282 102L195 98L162 -16H-42L247 663H501L602 -16ZM372 253L353 476H341L254 253L314 252L372 253ZM391 867T505 811L475 732L458 728Q352 755 220 797L214 813L263
929L280 933Q391 867 505 811Z" />
<glyph unicode="&#xc1;" glyph-name="Aacute" horiz-adv-x="626" d="M602 -16H390L386 96V100L282 102L195 98L162 -16H-42L247 663H501L602 -16ZM372 253L353 476H341L254 253L314 252L372 253ZM486 929L535 813L529 797Q397 755 291 728L274 732L244 811Q358
867 469 933L486 929Z" />
<glyph unicode="&#xc2;" glyph-name="Acircumflex" horiz-adv-x="626" d="M602 -16H390L386 96V100L282 102L195 98L162 -16H-42L247 663H501L602 -16ZM372 253L353 476H341L254 253L314 252L372 253ZM220 803Q309 862 378 922H412Q470 867 560 803L517 728H499L391
788Q342 765 318 754L263 728H245L220 803Z" />
<glyph unicode="&#xc3;" glyph-name="Atilde" horiz-adv-x="626" d="M602 -16H390L386 96V100L282 102L195 98L162 -16H-42L247 663H501L602 -16ZM372 253L353 476H341L254 253L314 252L372 253ZM585 877V861L504 748L488 742Q461 745 402 762Q394 764 370 770T335
776Q318 776 305 763T266 718H250L193 773V789L274 901L290 907Q317 904 376 887Q384 885 408 879T443 873Q460 873 473 886T512 931H528L585 877Z" />
<glyph unicode="&#xc4;" glyph-name="Adieresis" horiz-adv-x="626" d="M602 -16H390L386 96V100L282 102L195 98L162 -16H-42L247 663H501L602 -16ZM372 253L353 476H341L254 253L314 252L372 253ZM333 906T354 885T376 825Q376 783 353 759T288 734Q248 734
228 755T207 817Q207 859 230 882T295 906Q333 906 354 885ZM527 906T548 885T569 825Q569 783 546 759T482 734Q442 734 421 755T400 817Q400 859 424 882T489 906Q527 906 548 885Z" />
<glyph unicode="&#xc5;" glyph-name="Aring" horiz-adv-x="626" d="M602 -16H390L386 96V100L282 102L195 98L162 -16H-42L247 663H501L602 -16ZM372 253L353 476H341L254 253L314 252L372 253ZM500 946T500 843Q500 788 471 759T386 729Q280 729 280 836Q280
890 309 918T394 946Q500 946 500 843ZM370 869T363 863T355 839Q355 820 363 813T391 805Q410 805 417 812T425 836Q425 854 417 861T389 869Q370 869 363 863Z" />
<glyph unicode="&#xc6;" glyph-name="AE" horiz-adv-x="838" d="M817 159L827 145L797 0H362L370 107L373 174L195 122L194 119L146 0H-49L306 647H824L833 633L803 488L654 494H579L573 380L748 433L761 422L762 284L565 229L561 153H652L817 159ZM379 322L385
469H373L283 294L379 322Z" />
<glyph unicode="&#xc7;" glyph-name="Ccedilla" horiz-adv-x="516" d="M448 675T494 668T576 646L522 479L507 471Q481 487 447 496T382 505Q303 505 270 455T236 294Q236 218 264 182T351 146Q382 146 418 152T484 169L499 158L462 -8Q416 -23 368 -26L362 -58L396
-77Q420 -90 430 -105T440 -140Q440 -177 411 -200T330 -224Q281 -224 238 -200L249 -125L257 -122Q272 -135 289 -142T317 -150Q333 -150 333 -136Q333 -127 321 -121L271 -94L284 -27Q151 -17 82 56T12 260Q12 389 57 482T189 625T401 675Q448 675 494 668Z"
/>
<glyph unicode="&#xc8;" glyph-name="Egrave" horiz-adv-x="540" d="M290 502L276 406H379L490 409L499 394L468 242L347 245L252 244L246 204L241 145H342L517 151L526 136L495 -16H17L52 183L101 663H587L597 648L564 496L398 502H290ZM360 867T474 811L444
732L427 728Q321 755 189 797L183 813L232 929L249 933Q360 867 474 811Z" />
<glyph unicode="&#xc9;" glyph-name="Eacute" horiz-adv-x="540" d="M290 502L276 406H379L490 409L499 394L468 242L347 245L252 244L246 204L241 145H342L517 151L526 136L495 -16H17L52 183L101 663H587L597 648L564 496L398 502H290ZM455 929L504 813L498
797Q366 755 260 728L243 732L213 811Q327 867 438 933L455 929Z" />
<glyph unicode="&#xca;" glyph-name="Ecircumflex" horiz-adv-x="540" d="M290 502L276 406H379L490 409L499 394L468 242L347 245L252 244L246 204L241 145H342L517 151L526 136L495 -16H17L52 183L101 663H587L597 648L564 496L398 502H290ZM189 803Q278 862
347 922H381Q439 867 529 803L486 728H468L360 788Q311 765 287 754L232 728H214L189 803Z" />
<glyph unicode="&#xcb;" glyph-name="Edieresis" horiz-adv-x="540" d="M290 502L276 406H379L490 409L499 394L468 242L347 245L252 244L246 204L241 145H342L517 151L526 136L495 -16H17L52 183L101 663H587L597 648L564 496L398 502H290ZM302 906T323 885T345
825Q345 783 322 759T257 734Q217 734 197 755T176 817Q176 859 199 882T264 906Q302 906 323 885ZM496 906T517 885T538 825Q538 783 515 759T451 734Q411 734 390 755T369 817Q369 859 393 882T458 906Q496 906 517 885Z" />
<glyph unicode="&#xcc;" glyph-name="Igrave" horiz-adv-x="327" d="M249 210L231 0H31L65 190L111 647H314L249 210ZM233 851T347 795L317 716L300 712Q194 739 62 781L56 797L105 913L122 917Q233 851 347 795Z" />
<glyph unicode="&#xcd;" glyph-name="Iacute" horiz-adv-x="327" d="M249 210L231 0H31L65 190L111 647H314L249 210ZM328 913L377 797L371 781Q239 739 133 712L116 716L86 795Q200 851 311 917L328 913Z" />
<glyph unicode="&#xce;" glyph-name="Icircumflex" horiz-adv-x="327" d="M249 210L231 0H31L65 190L111 647H314L249 210ZM62 787Q151 846 220 906H254Q312 851 402 787L359 712H341L233 772Q184 749 160 738L105 712H87L62 787Z" />
<glyph unicode="&#xcf;" glyph-name="Idieresis" horiz-adv-x="327" d="M249 210L231 0H31L65 190L111 647H314L249 210ZM185 885T205 865T225 808Q225 769 203 746T142 723Q105 723 86 743T66 800Q66 840 88 862T149 885Q185 885 205 865ZM355 885T375 865T395
808Q395 769 373 746T312 723Q274 723 255 743T235 800Q235 840 257 862T318 885Q355 885 375 865Z" />
<glyph unicode="&#xd0;" glyph-name="Eth" horiz-adv-x="698" d="M553 651T624 585T696 397Q696 206 598 99T316 -9Q202 -9 63 0L96 190L102 249H23L15 262L33 379H115L142 647L425 651Q553 651 624 585ZM421 139T453 193T485 368Q485 437 465 466T398 496Q361
496 322 492L305 379H377L385 366L368 249H286L280 210L275 147Q335 139 362 139Q421 139 453 193Z" />
<glyph unicode="&#xd1;" glyph-name="Ntilde" horiz-adv-x="710" d="M636 211L618 0H401L261 348H249L234 234L213 0H32L65 190L111 647H328L469 299H481L517 640L701 651L636 211ZM622 861V845L541 732L525 726Q498 729 439 746Q431 748 407 754T372 760Q355
760 342 747T303 702H287L230 757V773L311 885L327 891Q354 888 413 871Q421 869 445 863T480 857Q497 857 510 870T549 915H565L622 861Z" />
<glyph unicode="&#xd2;" glyph-name="Ograve" horiz-adv-x="658" d="M519 676T594 602T670 377Q670 259 627 167T499 23T297 -29Q159 -29 84 46T8 274Q8 391 51 482T179 624T382 676Q519 676 594 602ZM316 509T288 490T244 419T228 270Q228 214 235 184T261 140T319
126Q360 126 388 144T432 215T449 364Q449 420 442 450T415 495T358 509Q316 509 288 490ZM403 867T517 811L487 732L470 728Q364 755 232 797L226 813L275 929L292 933Q403 867 517 811Z" />
<glyph unicode="&#xd3;" glyph-name="Oacute" horiz-adv-x="658" d="M519 676T594 602T670 377Q670 259 627 167T499 23T297 -29Q159 -29 84 46T8 274Q8 391 51 482T179 624T382 676Q519 676 594 602ZM316 509T288 490T244 419T228 270Q228 214 235 184T261 140T319
126Q360 126 388 144T432 215T449 364Q449 420 442 450T415 495T358 509Q316 509 288 490ZM498 929L547 813L541 797Q409 755 303 728L286 732L256 811Q370 867 481 933L498 929Z" />
<glyph unicode="&#xd4;" glyph-name="Ocircumflex" horiz-adv-x="658" d="M519 676T594 602T670 377Q670 259 627 167T499 23T297 -29Q159 -29 84 46T8 274Q8 391 51 482T179 624T382 676Q519 676 594 602ZM316 509T288 490T244 419T228 270Q228 214 235 184T261
140T319 126Q360 126 388 144T432 215T449 364Q449 420 442 450T415 495T358 509Q316 509 288 490ZM232 803Q321 862 390 922H424Q482 867 572 803L529 728H511L403 788Q354 765 330 754L275 728H257L232 803Z" />
<glyph unicode="&#xd5;" glyph-name="Otilde" horiz-adv-x="658" d="M519 676T594 602T670 377Q670 259 627 167T499 23T297 -29Q159 -29 84 46T8 274Q8 391 51 482T179 624T382 676Q519 676 594 602ZM316 509T288 490T244 419T228 270Q228 214 235 184T261 140T319
126Q360 126 388 144T432 215T449 364Q449 420 442 450T415 495T358 509Q316 509 288 490ZM597 877V861L516 748L500 742Q473 745 414 762Q406 764 382 770T347 776Q330 776 317 763T278 718H262L205 773V789L286 901L302 907Q329 904 388 887Q396 885 420 879T455
873Q472 873 485 886T524 931H540L597 877Z" />
<glyph unicode="&#xd6;" glyph-name="Odieresis" horiz-adv-x="658" d="M519 676T594 602T670 377Q670 259 627 167T499 23T297 -29Q159 -29 84 46T8 274Q8 391 51 482T179 624T382 676Q519 676 594 602ZM316 509T288 490T244 419T228 270Q228 214 235 184T261
140T319 126Q360 126 388 144T432 215T449 364Q449 420 442 450T415 495T358 509Q316 509 288 490ZM345 906T366 885T388 825Q388 783 365 759T300 734Q260 734 240 755T219 817Q219 859 242 882T307 906Q345 906 366 885ZM539 906T560 885T581 825Q581 783 558
759T494 734Q454 734 433 755T412 817Q412 859 436 882T501 906Q539 906 560 885Z" />
<glyph unicode="&#xd7;" glyph-name="multiply" horiz-adv-x="481" d="M455 378L454 360L336 255L427 150L425 132L326 56L233 164L111 55L32 132L34 149L153 255L60 360L62 378L160 454L255 347L375 454L455 378Z" />
<glyph unicode="&#xd8;" glyph-name="Oslash" horiz-adv-x="658" d="M654 522T654 374Q654 262 613 175T491 38T299 -12Q257 -12 217 -4L138 -135L40 -88L34 -71L107 49Q24 123 24 276Q24 388 65 474T187 610T380 659Q428 659 468 650L530 752L624 706L633 687L577
594Q654 522 654 374ZM359 135T386 153T428 220T444 362Q444 415 437 444T412 487T357 500Q317 500 291 482T249 415T233 273Q233 219 240 190T265 148T320 135Q359 135 386 153Z" />
<glyph unicode="&#xd9;" glyph-name="Ugrave" horiz-adv-x="653" d="M610 319L597 216Q583 105 507 47T297 -12Q178 -12 112 36T45 173Q45 194 48 216L63 319L97 647H297L239 243Q237 223 237 216Q237 179 255 162T314 145Q361 145 385 168T414 243L454 647H657L610
319ZM399 851T513 795L483 716L466 712Q360 739 228 781L222 797L271 913L288 917Q399 851 513 795Z" />
<glyph unicode="&#xda;" glyph-name="Uacute" horiz-adv-x="653" d="M610 319L597 216Q583 105 507 47T297 -12Q178 -12 112 36T45 173Q45 194 48 216L63 319L97 647H297L239 243Q237 223 237 216Q237 179 255 162T314 145Q361 145 385 168T414 243L454 647H657L610
319ZM494 913L543 797L537 781Q405 739 299 712L282 716L252 795Q366 851 477 917L494 913Z" />
<glyph unicode="&#xdb;" glyph-name="Ucircumflex" horiz-adv-x="653" d="M610 319L597 216Q583 105 507 47T297 -12Q178 -12 112 36T45 173Q45 194 48 216L63 319L97 647H297L239 243Q237 223 237 216Q237 179 255 162T314 145Q361 145 385 168T414 243L454 647H657L610
319ZM228 787Q317 846 386 906H420Q478 851 568 787L525 712H507L399 772Q350 749 326 738L271 712H253L228 787Z" />
<glyph unicode="&#xdc;" glyph-name="Udieresis" horiz-adv-x="653" d="M610 319L597 216Q583 105 507 47T297 -12Q178 -12 112 36T45 173Q45 194 48 216L63 319L97 647H297L239 243Q237 223 237 216Q237 179 255 162T314 145Q361 145 385 168T414 243L454 647H657L610
319ZM342 890T363 869T385 809Q385 767 362 743T297 718Q257 718 237 739T216 801Q216 843 239 866T304 890Q342 890 363 869ZM536 890T557 869T578 809Q578 767 555 743T491 718Q451 718 430 739T409 801Q409 843 433 866T498 890Q536 890 557 869Z" />
<glyph unicode="&#xdd;" glyph-name="Yacute" horiz-adv-x="594" d="M380 197L374 162L361 -16H152L184 162L187 201L27 663H246L255 606L307 401H319L434 599L465 663H680L380 197ZM465 929L514 813L508 797Q376 755 270 728L253 732L223 811Q337 867 448 933L465 929Z" />
<glyph unicode="&#xde;" glyph-name="Thorn" horiz-adv-x="603" d="M505 556T560 511T616 383Q616 300 578 236T469 137T308 101H242L233 0H31L65 190L111 647H316L302 556H407Q505 556 560 511ZM378 255T393 282T408 351Q408 385 390 401T332 420L282 416L256
242L342 237Q378 255 393 282Z" />
<glyph unicode="&#xdf;" glyph-name="germandbls" horiz-adv-x="624" d="M416 523T470 509T594 463L599 443L485 309Q556 256 580 227T605 162Q605 74 539 32T375 -11Q293 -11 220 18L265 178L280 187Q308 162 334 148T380 134Q391 134 397 138T403 150Q403 160
390 169T335 204L270 244L269 261L364 373Q340 379 316 379Q274 379 256 365T234 315L211 168L198 0H13L41 150L57 315Q69 412 144 467T352 523Q416 523 470 509Z" />
<glyph unicode="&#xe0;" glyph-name="agrave" horiz-adv-x="549" d="M288 599T146 671L143 688L212 794L229 795Q331 708 430 635L386 563L369 562Q288 599 146 671ZM321 0L319 74L240 76L175 73L155 0H-22L202 513H422L505 0H321ZM266 205L308 206L294 352H283L225
206L266 205Z" />
<glyph unicode="&#xe1;" glyph-name="aacute" horiz-adv-x="549" d="M228 563L184 635Q283 708 385 795L402 794L471 688L468 671Q326 599 245 562L228 563ZM321 0L319 74L240 76L175 73L155 0H-22L202 513H422L505 0H321ZM266 205L308 206L294 352H283L225 206L266 205Z" />
<glyph unicode="&#xe2;" glyph-name="acircumflex" horiz-adv-x="549" d="M186 567L148 638Q188 668 240 713T308 772L326 788H360Q407 734 507 638L451 567H433Q370 611 330 645Q298 623 222 578L204 567H186ZM422 513L505 0H321L319 74L240 76L175 73L155 0H-22L202
513H422ZM266 205L308 206L294 352H283L225 206L266 205Z" />
<glyph unicode="&#xe3;" glyph-name="atilde" horiz-adv-x="549" d="M523 727V711L442 598L426 592Q399 595 340 612Q332 614 308 620T273 626Q256 626 243 613T204 568H188L131 623V639L212 751L228 757Q255 754 314 737Q322 735 346 729T381 723Q398 723 411
736T450 781H466L523 727ZM422 513L505 0H321L319 74L240 76L175 73L155 0H-22L202 513H422ZM266 205L308 206L294 352H283L225 206L266 205Z" />
<glyph unicode="&#xe4;" glyph-name="adieresis" horiz-adv-x="549" d="M186 584T166 605T145 667Q145 709 168 732T233 756Q271 756 292 735T314 675Q314 633 291 609T226 584Q186 584 166 605ZM380 584T359 605T338 667Q338 709 362 732T427 756Q465 756 486
735T507 675Q507 633 484 609T420 584Q380 584 359 605ZM422 513L505 0H321L319 74L240 76L175 73L155 0H-22L202 513H422ZM266 205L308 206L294 352H283L225 206L266 205Z" />
<glyph unicode="&#xe5;" glyph-name="aring" horiz-adv-x="549" d="M218 579T218 686Q218 740 247 768T332 796Q438 796 438 693Q438 638 409 609T324 579Q218 579 218 686ZM308 719T301 713T293 689Q293 670 301 663T329 655Q348 655 355 662T363 686Q363 704
355 711T327 719Q308 719 301 713ZM321 0L319 74L240 76L175 73L155 0H-22L202 513H422L505 0H321ZM266 205L308 206L294 352H283L225 206L266 205Z" />
<glyph unicode="&#xe6;" glyph-name="ae" horiz-adv-x="724" d="M705 133L712 121L687 0H316L324 88L325 133L160 86L125 0H-39L264 512H704L713 499L687 378L558 384H493L490 302L642 346L653 336V221L485 177L483 128H562L705 133ZM328 256L331 363H320L243
232L328 256Z" />
<glyph unicode="&#xe7;" glyph-name="ccedilla" horiz-adv-x="448" d="M262 373T239 344T216 250Q216 194 234 168T301 142Q322 142 350 146T400 157L414 149L381 -2Q351 -7 319 -9L313 -42L347 -61Q371 -74 381 -89T391 -124Q391 -161 362 -184T281 -208Q232
-208 189 -184L200 -109L208 -106Q223 -119 240 -126T268 -134Q284 -134 284 -120Q284 -111 272 -105L222 -78L236 -8Q123 2 71 60T18 224Q18 314 54 381T162 485T335 522Q370 522 408 518T475 506L426 355L413 347Q394 359 367 366T312 373Q262 373 239 344Z"
/>
<glyph unicode="&#xe8;" glyph-name="egrave" horiz-adv-x="480" d="M252 599T110 671L107 688L176 794L193 795Q295 708 394 635L350 563L333 562Q252 599 110 671ZM253 372L246 327H326L414 330L422 317L395 182L298 185H225L222 168L220 141H299L439 146L448
134L420 0H24L52 149L87 513H490L499 500L471 366L338 372H253Z" />
<glyph unicode="&#xe9;" glyph-name="eacute" horiz-adv-x="480" d="M192 563L148 635Q247 708 349 795L366 794L435 688L432 671Q290 599 209 562L192 563ZM253 372L246 327H326L414 330L422 317L395 182L298 185H225L222 168L220 141H299L439 146L448 134L420
0H24L52 149L87 513H490L499 500L471 366L338 372H253Z" />
<glyph unicode="&#xea;" glyph-name="ecircumflex" horiz-adv-x="480" d="M150 567L112 638Q152 668 204 713T272 772L290 788H324Q371 734 471 638L415 567H397Q334 611 294 645Q262 623 186 578L168 567H150ZM253 372L246 327H326L414 330L422 317L395 182L298
185H225L222 168L220 141H299L439 146L448 134L420 0H24L52 149L87 513H490L499 500L471 366L338 372H253Z" />
<glyph unicode="&#xeb;" glyph-name="edieresis" horiz-adv-x="480" d="M150 584T130 605T109 667Q109 709 132 732T197 756Q235 756 256 735T278 675Q278 633 255 609T190 584Q150 584 130 605ZM344 584T323 605T302 667Q302 709 326 732T391 756Q429 756 450
735T471 675Q471 633 448 609T384 584Q344 584 323 605ZM253 372L246 327H326L414 330L422 317L395 182L298 185H225L222 168L220 141H299L439 146L448 134L420 0H24L52 149L87 513H490L499 500L471 366L338 372H253Z" />
<glyph unicode="&#xec;" glyph-name="igrave" horiz-adv-x="304" d="M207 708T306 635L262 563L245 562Q164 599 22 671L19 688L88 794L105 795Q207 708 306 635ZM222 168L210 0H25L52 149L88 513H276L222 168Z" />
<glyph unicode="&#xed;" glyph-name="iacute" horiz-adv-x="304" d="M278 794L347 688L344 671Q202 599 121 562L104 563L60 635Q159 708 261 795L278 794ZM222 168L210 0H25L52 149L88 513H276L222 168Z" />
<glyph unicode="&#xee;" glyph-name="icircumflex" horiz-adv-x="304" d="M24 638Q64 668 116 713T184 772L202 788H236Q283 734 383 638L327 567H309Q246 611 206 645Q174 623 98 578L80 567H62L24 638ZM222 168L210 0H25L52 149L88 513H276L222 168Z" />
<glyph unicode="&#xef;" glyph-name="idieresis" horiz-adv-x="304" d="M157 751T177 731T197 674Q197 635 175 612T114 589Q77 589 58 609T38 666Q38 706 60 728T121 751Q157 751 177 731ZM327 751T347 731T367 674Q367 635 345 612T284 589Q247 589 227 609T207
666Q207 706 229 728T290 751Q327 751 347 731ZM222 168L210 0H25L52 149L88 513H276L222 168Z" />
<glyph unicode="&#xf0;" glyph-name="eth" horiz-adv-x="590" d="M454 516T515 463T577 313Q577 161 495 77T257 -8Q174 -8 38 0L65 149L70 195H11L3 208L23 308H81L101 513L345 516Q454 516 515 463ZM338 128T360 162T382 285Q382 333 368 353T321 373Q299 373
267 370L257 308H343L350 295L331 195H239L235 168L233 136Q277 128 298 128Q338 128 360 162Z" />
<glyph unicode="&#xf1;" glyph-name="ntilde" horiz-adv-x="616" d="M554 727V711L473 598L457 592Q430 595 371 612Q363 614 339 620T304 626Q287 626 274 613T235 568H219L162 623V639L243 751L259 757Q286 754 345 737Q353 735 377 729T412 723Q429 723 442
736T481 781H497L554 727ZM544 171L530 0H332L223 241H214L206 189L189 0H24L52 150L87 513H285L395 271H406L428 506L597 516L544 171Z" />
<glyph unicode="&#xf2;" glyph-name="ograve" horiz-adv-x="568" d="M336 708T435 635L391 563L374 562Q293 599 151 671L148 688L217 794L234 795Q336 708 435 635ZM431 523T492 466T554 292Q554 204 519 136T415 28T253 -11Q140 -11 79 47T17 222Q17 310 52
378T156 484T318 523Q431 523 492 466ZM266 377T249 367T221 323T210 224Q210 182 215 162T235 133T277 125Q305 125 322 135T350 179T360 279Q360 320 355 340T336 369T295 377Q266 377 249 367Z" />
<glyph unicode="&#xf3;" glyph-name="oacute" horiz-adv-x="568" d="M407 794L476 688L473 671Q331 599 250 562L233 563L189 635Q288 708 390 795L407 794ZM431 523T492 466T554 292Q554 204 519 136T415 28T253 -11Q140 -11 79 47T17 222Q17 310 52 378T156
484T318 523Q431 523 492 466ZM266 377T249 367T221 323T210 224Q210 182 215 162T235 133T277 125Q305 125 322 135T350 179T360 279Q360 320 355 340T336 369T295 377Q266 377 249 367Z" />
<glyph unicode="&#xf4;" glyph-name="ocircumflex" horiz-adv-x="568" d="M153 638Q193 668 245 713T313 772L331 788H365Q412 734 512 638L456 567H438Q375 611 335 645Q303 623 227 578L209 567H191L153 638ZM431 523T492 466T554 292Q554 204 519 136T415 28T253
-11Q140 -11 79 47T17 222Q17 310 52 378T156 484T318 523Q431 523 492 466ZM266 377T249 367T221 323T210 224Q210 182 215 162T235 133T277 125Q305 125 322 135T350 179T360 279Q360 320 355 340T336 369T295 377Q266 377 249 367Z" />
<glyph unicode="&#xf5;" glyph-name="otilde" horiz-adv-x="568" d="M528 727V711L447 598L431 592Q404 595 345 612Q337 614 313 620T278 626Q261 626 248 613T209 568H193L136 623V639L217 751L233 757Q260 754 319 737Q327 735 351 729T386 723Q403 723 416
736T455 781H471L528 727ZM431 523T492 466T554 292Q554 204 519 136T415 28T253 -11Q140 -11 79 47T17 222Q17 310 52 378T156 484T318 523Q431 523 492 466ZM266 377T249 367T221 323T210 224Q210 182 215 162T235 133T277 125Q305 125 322 135T350 179T360 279Q360
320 355 340T336 369T295 377Q266 377 249 367Z" />
<glyph unicode="&#xf6;" glyph-name="odieresis" horiz-adv-x="568" d="M276 756T297 735T319 675Q319 633 296 609T231 584Q191 584 171 605T150 667Q150 709 173 732T238 756Q276 756 297 735ZM470 756T491 735T512 675Q512 633 489 609T425 584Q385 584 364
605T343 667Q343 709 367 732T432 756Q470 756 491 735ZM431 523T492 466T554 292Q554 204 519 136T415 28T253 -11Q140 -11 79 47T17 222Q17 310 52 378T156 484T318 523Q431 523 492 466ZM266 377T249 367T221 323T210 224Q210 182 215 162T235 133T277 125Q305
125 322 135T350 179T360 279Q360 320 355 340T336 369T295 377Q266 377 249 367Z" />
<glyph unicode="&#xf7;" glyph-name="divide" horiz-adv-x="478" d="M301 498T320 478T340 421Q340 381 318 359T258 336Q221 336 201 356T181 413Q181 452 203 475T265 498Q301 498 320 478ZM468 307L459 190H29L17 203L26 320H456L468 307ZM261 172T280 152T300
95Q300 55 278 33T218 10Q181 10 161 30T141 87Q141 126 163 149T225 172Q261 172 280 152Z" />
<glyph unicode="&#xf8;" glyph-name="oslash" horiz-adv-x="568" d="M503 454Q554 397 554 292Q554 204 519 136T415 28T253 -11Q208 -11 170 -2L85 -118L0 -59L-2 -43L70 56Q17 115 17 222Q17 310 52 378T156 484T318 523Q367 523 404 513L478 614L558 556L565
539L503 454ZM305 125T322 135T350 179T360 279Q360 320 355 340T336 369T295 377Q266 377 249 367T221 323T210 224Q210 182 215 162T235 133T277 125Q305 125 322 135Z" />
<glyph unicode="&#xf9;" glyph-name="ugrave" horiz-adv-x="566" d="M338 708T437 635L393 563L376 562Q295 599 153 671L150 688L219 794L236 795Q338 708 437 635ZM519 253L508 169Q497 81 432 35T250 -11Q148 -11 91 27T34 136Q34 153 37 169L49 252L76 513H260L213
194Q212 188 212 178Q212 154 225 144T269 134Q304 134 320 148T339 194L370 513H557L519 253Z" />
<glyph unicode="&#xfa;" glyph-name="uacute" horiz-adv-x="566" d="M409 794L478 688L475 671Q333 599 252 562L235 563L191 635Q290 708 392 795L409 794ZM519 253L508 169Q497 81 432 35T250 -11Q148 -11 91 27T34 136Q34 153 37 169L49 252L76 513H260L213
194Q212 188 212 178Q212 154 225 144T269 134Q304 134 320 148T339 194L370 513H557L519 253Z" />
<glyph unicode="&#xfb;" glyph-name="ucircumflex" horiz-adv-x="566" d="M155 638Q195 668 247 713T315 772L333 788H367Q414 734 514 638L458 567H440Q377 611 337 645Q305 623 229 578L211 567H193L155 638ZM519 253L508 169Q497 81 432 35T250 -11Q148 -11
91 27T34 136Q34 153 37 169L49 252L76 513H260L213 194Q212 188 212 178Q212 154 225 144T269 134Q304 134 320 148T339 194L370 513H557L519 253Z" />
<glyph unicode="&#xfc;" glyph-name="udieresis" horiz-adv-x="566" d="M278 756T299 735T321 675Q321 633 298 609T233 584Q193 584 173 605T152 667Q152 709 175 732T240 756Q278 756 299 735ZM472 756T493 735T514 675Q514 633 491 609T427 584Q387 584 366
605T345 667Q345 709 369 732T434 756Q472 756 493 735ZM519 253L508 169Q497 81 432 35T250 -11Q148 -11 91 27T34 136Q34 153 37 169L49 252L76 513H260L213 194Q212 188 212 178Q212 154 225 144T269 134Q304 134 320 148T339 194L370 513H557L519 253Z" />
<glyph unicode="&#xfd;" glyph-name="yacute" horiz-adv-x="524" d="M214 563L170 635Q269 708 371 795L388 794L457 688L454 671Q312 599 231 562L214 563ZM330 150L326 131L318 0H134L159 131L161 152L31 513H224L232 466L269 332H279L355 459L382 513H570L330 150Z" />
<glyph unicode="&#xfe;" glyph-name="thorn" horiz-adv-x="533" d="M423 445T476 403T529 285Q529 225 495 177T398 102T259 75H217L211 0H24L51 149L87 513H277L267 445H337Q423 445 476 403ZM318 217T326 234T335 276Q335 299 327 308T291 321L247 318L230 204L294
200Q318 217 326 234Z" />
<glyph unicode="&#xff;" glyph-name="ydieresis" horiz-adv-x="524" d="M172 584T152 605T131 667Q131 709 154 732T219 756Q257 756 278 735T300 675Q300 633 277 609T212 584Q172 584 152 605ZM366 584T345 605T324 667Q324 709 348 732T413 756Q451 756 472
735T493 675Q493 633 470 609T406 584Q366 584 345 605ZM330 150L326 131L318 0H134L159 131L161 152L31 513H224L232 466L269 332H279L355 459L382 513H570L330 150Z" />
<glyph unicode="&#x2013;" glyph-name="endash" horiz-adv-x="443" d="M471 312L448 195H-12L-23 208L1 325H461L471 312Z" />
<glyph unicode="&#x2014;" glyph-name="emdash" horiz-adv-x="842" d="M870 312L847 195H-12L-23 208L1 325H860L870 312Z" />
<glyph unicode="&#x2018;" glyph-name="quoteleft" horiz-adv-x="259" d="M76 229T62 257T47 324Q47 373 74 421T160 523L225 481L228 469Q189 426 189 381Q189 352 198 332T231 294V279Q165 230 107 208Q76 229 62 257Z" />
<glyph unicode="&#x2019;" glyph-name="quoteright" horiz-adv-x="259" d="M216 503T230 475T245 408Q245 359 218 311T132 209L67 251L64 263Q103 307 103 351Q103 380 94 400T61 438V453Q127 502 185 524Q216 503 230 475Z" />
<glyph unicode="&#x201a;" glyph-name="quotesinglbase" horiz-adv-x="229" d="M171 159T182 133T194 76Q194 18 158 -35T43 -142L-18 -89L-20 -75Q9 -50 22 -24T36 34Q36 76 3 108L4 124Q76 164 147 182Q171 159 182 133Z" />
<glyph unicode="&#x201c;" glyph-name="quotedblleft" horiz-adv-x="463" d="M76 229T62 257T47 324Q47 373 74 421T160 523L225 481L228 469Q189 426 189 381Q189 352 198 332T231 294V279Q165 230 107 208Q76 229 62 257ZM280 229T266 257T251 324Q251 373 278
421T364 523L429 481L432 469Q393 426 393 381Q393 352 402 332T435 294V279Q369 230 311 208Q280 229 266 257Z" />
<glyph unicode="&#x201d;" glyph-name="quotedblright" horiz-adv-x="453" d="M216 503T230 475T245 408Q245 359 218 311T132 209L67 251L64 263Q103 307 103 351Q103 380 94 400T61 438V453Q127 502 185 524Q216 503 230 475ZM410 503T424 475T439 408Q439 359
412 311T326 209L261 251L258 263Q297 307 297 351Q297 380 288 400T255 438V453Q321 502 379 524Q410 503 424 475Z" />
<glyph unicode="&#x201e;" glyph-name="quotedblbase" horiz-adv-x="433" d="M375 159T386 133T398 76Q398 18 362 -35T247 -142L186 -89L184 -75Q213 -50 226 -24T240 34Q240 76 207 108L208 124Q280 164 351 182Q375 159 386 133ZM171 159T182 133T194 76Q194
18 158 -35T43 -142L-18 -89L-20 -75Q9 -50 22 -24T36 34Q36 76 3 108L4 124Q76 164 147 182Q171 159 182 133Z" />
<glyph unicode="&#x2022;" glyph-name="bullet" horiz-adv-x="303" d="M220 394T253 360T286 265Q286 199 250 161T149 122Q86 122 53 155T20 252Q20 317 57 355T160 394Q220 394 253 360Z" />
<glyph unicode="&#x2039;" glyph-name="guilsinglleft" horiz-adv-x="260" d="M52 221L56 248L203 425L288 378L290 361L194 230L258 100L252 83L156 36L52 221Z" />
<glyph unicode="&#x203a;" glyph-name="guilsinglright" horiz-adv-x="261" d="M220 243L216 216L69 39L-16 86L-18 103L78 234L14 364L20 381L116 428L220 243Z" />
</font>
</defs>
</svg>
