<?xml version="1.0" standalone="no"?>
<!DOCTYPE svg PUBLIC "-//W3C//DTD SVG 1.1//EN" "http://www.w3.org/Graphics/SVG/1.1/DTD/svg11.dtd">
<svg xmlns="http://www.w3.org/2000/svg">
<defs >
<font id="SairaExtraCondensed" horiz-adv-x="386" ><font-face
    font-family="Saira ExtraCondensed ExtraBold"
    units-per-em="1000"
    panose-1="0 0 9 8 0 0 0 0 0 0"
    ascent="1135"
    descent="-439"
    alphabetic="0" />
<glyph unicode=" " glyph-name="space" horiz-adv-x="145" />
<glyph unicode="!" glyph-name="exclam" horiz-adv-x="241" d="M64 356T53 478T41 632V688H200V632Q200 601 189 483T160 216H81Q64 356 53 478ZM50 0V132H190V0H50Z" />
<glyph unicode="&quot;" glyph-name="quotedbl" horiz-adv-x="363" d="M53 425L40 639V688H162V639L149 425H53ZM214 425L201 639V688H323V639L309 425H214Z" />
<glyph unicode="#" glyph-name="numbersign" horiz-adv-x="504" d="M258 0L274 180H190L174 0H82L99 180H40V274H107L121 414H56V508H129L146 688H237L220 508H304L321 688H412L395 508H463V414H387L373 274H448V180H366L349 0H258ZM296 414H212L198 274H282L296 414Z" />
<glyph unicode="$" glyph-name="dollar" horiz-adv-x="351" d="M133 73Q72 79 40 89V192Q101 185 132 185Q166 185 180 194T194 235Q194 258 192 268T184 281T164 288L116 299Q82 307 64 324T38 372T30 458Q30 528 56 565T133 615V696H229V617Q274 612 299 603V498Q239
506 212 506Q181 506 171 497T160 461Q160 439 162 430T169 417T187 410L236 400Q263 395 281 383T310 338T321 247Q321 169 299 129T229 77V-8H133V73Z" />
<glyph unicode="%" glyph-name="percent" horiz-adv-x="680" d="M108 312T83 329T49 384T41 503Q41 583 49 622T82 678T163 696Q218 696 243 679T277 622T285 503Q285 423 277 385T244 329T163 312Q108 312 83 329ZM137 0L467 688H543L214 0H137ZM177 384T182
390T190 419T192 503Q192 564 190 588T183 618T163 624Q149 624 143 618T135 587T133 503Q133 443 135 420T142 390T163 384Q177 384 182 390ZM464 -8T438 9T404 64T396 183Q396 263 404 302T438 358T519 376Q574 376 599 359T633 302T641 183Q641 103 633 65T600
9T519 -8Q464 -8 438 9ZM533 64T538 70T546 99T548 183Q548 244 546 268T539 298T519 304Q505 304 500 298T492 268T490 183Q490 123 492 100T499 70T519 64Q533 64 538 70Z" />
<glyph unicode="&amp;" glyph-name="ampersand" horiz-adv-x="467" d="M454 404V291H392V10Q357 2 309 -3T223 -8Q154 -8 113 10T52 69T32 181Q32 263 53 299T120 349V353Q78 365 58 404T38 519Q38 588 60 627T124 681T233 696Q267 696 311 692T392 679V578Q330
584 276 584Q224 584 204 579T176 555T169 493Q169 455 172 437T186 412T218 404H229V291H218Q195 291 183 285T166 258T161 197Q161 153 168 134T192 110T251 105H263V404H454Z" />
<glyph unicode="&apos;" glyph-name="quotesingle" horiz-adv-x="202" d="M53 425L40 639V688H162V639L149 425H53Z" />
<glyph unicode="(" glyph-name="parenleft" horiz-adv-x="269" d="M96 -67T78 -21T50 97T40 297Q40 425 49 499T78 621T140 743H248Q216 679 202 638T179 519T171 297Q171 153 179 75T202 -44T248 -150H140Q96 -67 78 -21Z" />
<glyph unicode=")" glyph-name="parenright" horiz-adv-x="269" d="M53 -85T67 -44T89 75T98 297Q98 441 90 519T68 638T20 743H129Q170 670 189 622T218 500T228 297Q228 169 219 97T191 -21T129 -150H20Q53 -85 67 -44Z" />
<glyph unicode="*" glyph-name="asterisk" horiz-adv-x="391" d="M224 483L235 380H157L166 483L79 421L40 490L136 533L40 577L79 646L166 585L157 688H235L224 585L312 646L350 577L254 533L350 490L312 421L224 483Z" />
<glyph unicode="+" glyph-name="plus" horiz-adv-x="443" d="M165 82V196H51V310H165V425H278V310H393V196H278V82H165Z" />
<glyph unicode="," glyph-name="comma" horiz-adv-x="231" d="M66 -94T76 -87T90 -64T93 -14V0H45V132H185V40Q185 -42 176 -81T138 -138T45 -156V-94Q66 -94 76 -87Z" />
<glyph unicode="-" glyph-name="hyphen" horiz-adv-x="266" d="M45 226V344H221V226H45Z" />
<glyph unicode="." glyph-name="period" horiz-adv-x="231" d="M45 0V132H185V0H45Z" />
<glyph unicode="/" glyph-name="slash" horiz-adv-x="301" d="M19 -55L166 743H281L135 -55H19Z" />
<glyph unicode="0" glyph-name="zero" horiz-adv-x="398" d="M116 -8T81 23T37 121T28 344Q28 500 36 567T80 665T199 696Q283 696 318 665T361 568T370 344Q370 188 362 121T318 23T199 -8Q116 -8 81 23ZM219 117T226 128T235 181T237 344Q237 464 235 506T226
560T199 571Q179 571 172 560T163 507T161 344Q161 224 163 182T172 128T199 117Q219 117 226 128Z" />
<glyph unicode="1" glyph-name="one" horiz-adv-x="277" d="M100 0V528L13 493V623L132 688H238V0H100Z" />
<glyph unicode="2" glyph-name="two" horiz-adv-x="383" d="M164 125H356V0H27V84Q27 188 30 231T45 302T87 348L175 404Q194 416 202 423T214 446T219 492Q219 530 214 546T194 566T146 571Q105 571 33 566V680Q60 687 103 691T183 696Q239 696 274 684T333 630T356
501Q356 438 346 401T321 345T283 313L193 255Q175 245 170 231Q166 221 165 196T164 134V125Z" />
<glyph unicode="3" glyph-name="three" horiz-adv-x="367" d="M132 -8T89 -3T13 9V123Q76 117 127 117Q162 117 177 122T199 143T205 197Q205 237 200 255T182 280T145 286H61V409H145Q169 409 179 414T194 437T199 493Q199 531 194 546T174 566T122 571Q70 571
14 565V679Q48 686 90 691T165 696Q224 696 261 681T318 627T337 519Q337 444 318 405T258 353V349Q302 337 322 300T343 181Q343 110 325 69T269 10T165 -8Q132 -8 89 -3Z" />
<glyph unicode="4" glyph-name="four" horiz-adv-x="393" d="M204 0V132H13V240L103 688H243L142 257H204L241 424H341V257H385V132H341V0H204Z" />
<glyph unicode="5" glyph-name="five" horiz-adv-x="383" d="M93 117T140 117Q181 117 197 123T219 148T225 215Q225 265 220 284T199 309T140 315Q84 315 39 309V688H343V563H167V434Q189 440 220 440Q302 440 332 388T363 230Q363 138 349 88T297 15T187 -8Q154
-8 112 -3T36 9V123Q93 117 140 117Z" />
<glyph unicode="6" glyph-name="six" horiz-adv-x="391" d="M152 -8T122 1T72 38T40 120Q28 176 28 344Q28 516 49 580Q71 645 111 670T224 696Q251 696 286 691T353 676V562Q292 571 249 571Q206 571 189 560T167 514T162 392H172Q178 411 199 425T254 440Q296
440 320 427T357 369T370 234Q370 139 356 88T306 14T202 -8Q152 -8 122 1ZM218 115T225 121T235 147T238 216Q238 265 235 285T225 310T200 315Q182 315 175 310T165 286T162 221Q162 170 165 149T175 121T200 115Q218 115 225 121Z" />
<glyph unicode="7" glyph-name="seven" horiz-adv-x="358" d="M43 0L208 563H16V688H350V579L186 0H43Z" />
<glyph unicode="8" glyph-name="eight" horiz-adv-x="404" d="M138 -8T100 10T43 69T24 181Q24 264 44 300T109 349V353Q69 366 50 405T30 519Q30 588 49 627T105 681T202 696Q261 696 298 681T354 627T373 519Q373 444 354 405T294 353V349Q339 337 359 300T380
181Q380 110 362 69T305 10T202 -8Q138 -8 100 10ZM221 405T228 410T237 431T240 491Q240 533 238 550T228 572T202 577Q183 577 176 572T167 550T164 491Q164 448 166 432T176 410T202 405Q221 405 228 410ZM220 111T227 116T237 139T240 200Q240 244 238 261T228
285T202 291Q183 291 176 285T166 261T163 200Q163 157 165 140T175 117T202 111Q220 111 227 116Z" />
<glyph unicode="9" glyph-name="nine" horiz-adv-x="391" d="M138 -8T103 -3T38 12V126Q96 117 142 117Q185 117 202 128T224 174T229 296H221Q212 275 190 262T137 248Q95 248 71 261T34 319T21 454Q21 549 35 600T85 674T189 696Q238 696 267 688T316 655T347
583Q363 516 363 344Q363 174 340 105Q320 43 280 18T167 -8Q138 -8 103 -3ZM209 373T216 378T226 402T229 467Q229 518 226 539T216 567T191 573Q173 573 166 567T156 541T153 472Q153 423 156 403T166 378T191 373Q209 373 216 378Z" />
<glyph unicode=":" glyph-name="colon" horiz-adv-x="231" d="M45 378V510H185V378H45ZM45 0V132H185V0H45Z" />
<glyph unicode=";" glyph-name="semicolon" horiz-adv-x="231" d="M45 378V510H185V378H45ZM66 -94T76 -87T90 -64T93 -14V0H45V132H185V40Q185 -42 176 -81T138 -138T45 -156V-94Q66 -94 76 -87Z" />
<glyph unicode="&lt;" glyph-name="less" horiz-adv-x="444" d="M394 75L51 196V310L394 432V317L192 253L394 189V75Z" />
<glyph unicode="=" glyph-name="equal" horiz-adv-x="443" d="M51 282V396H393V282H51ZM51 111V224H393V111H51Z" />
<glyph unicode="&gt;" glyph-name="greater" horiz-adv-x="444" d="M51 75V189L253 253L51 317V432L394 310V196L51 75Z" />
<glyph unicode="?" glyph-name="question" horiz-adv-x="344" d="M78 310Q78 355 86 375T118 413L130 423Q160 446 168 461T177 511Q177 538 170 550T148 567T104 571Q75 571 30 565V680Q59 687 95 691T161 696Q231 696 273 662T315 543Q315 491 310 462T293 413T253
370L241 359Q217 340 209 330T198 308T196 265V216H78V310ZM68 0V132H207V0H68Z" />
<glyph unicode="@" glyph-name="at" horiz-adv-x="609" d="M175 -108T124 -82T59 19T46 294Q46 493 59 568T123 670T308 696Q440 696 491 670T556 569T569 294Q569 188 559 142T528 86T463 75H336L332 126H325Q319 97 301 83T258 68Q211 68 193 100T175 202Q175
276 196 305T273 335Q286 335 331 332V354Q331 388 328 401T312 419T270 424Q246 424 193 419V507Q254 518 304 518Q358 518 386 502T426 448T437 342V134H467Q487 134 494 141T505 180T508 294Q508 446 504 507T479 597T411 633Q380 638 308 638Q244 638 216 635Q161
630 139 604T112 516T106 294Q106 131 112 68T144 -19T236 -48Q253 -49 308 -49Q410 -49 437 -46V-106Q415 -108 308 -108Q175 -108 124 -82ZM320 168T325 181T331 236V260H302Q287 260 282 251T277 211Q277 186 281 177T301 168Q320 168 325 181Z" />
<glyph unicode="A" glyph-name="A" horiz-adv-x="425" d="M280 0L263 137H160L143 0H6L109 688H316L419 0H280ZM215 553H208L173 258H250L215 553Z" />
<glyph unicode="B" glyph-name="B" horiz-adv-x="409" d="M39 688H234Q383 688 383 515Q383 442 364 404T303 353V349Q348 337 368 301T389 184Q389 92 353 46T235 0H39V688ZM225 408T234 413T247 435T251 486Q251 522 248 537T236 558T205 563H174V408H205Q225
408 234 413ZM227 124T236 129T248 151T251 206Q251 243 247 259T234 281T205 287H174V124H205Q227 124 236 129Z" />
<glyph unicode="C" glyph-name="C" horiz-adv-x="323" d="M285 2T259 -3T208 -8Q128 -8 90 24T40 127T28 344Q28 488 41 560T91 664T208 696Q235 696 261 692T300 681V566Q263 571 233 571Q198 571 186 558T170 503T166 344Q166 228 169 186T185 130T233 117Q272
117 302 122V10Q285 2 259 -3Z" />
<glyph unicode="D" glyph-name="D" horiz-adv-x="416" d="M39 688H206Q295 688 332 658T379 562T388 344Q388 191 379 126T333 31T206 0H39V688ZM206 125Q230 125 238 135T249 187T252 344Q252 459 250 501T239 553T206 563H175V125H206Z" />
<glyph unicode="E" glyph-name="E" horiz-adv-x="342" d="M39 0V688H315V563H176V410H298V285H176V125H315V0H39Z" />
<glyph unicode="F" glyph-name="F" horiz-adv-x="317" d="M39 0V688H302V563H176V396H287V271H176V0H39Z" />
<glyph unicode="G" glyph-name="G" horiz-adv-x="410" d="M212 282V403H377V13Q347 4 303 -2T219 -8Q139 -8 99 20T44 122T28 344Q28 493 44 566T104 667T234 696Q267 696 307 691T376 676V561Q308 571 270 571Q217 571 198 561T171 506T164 344Q164 233 167 188T183
127T223 112Q239 112 254 115V282H212Z" />
<glyph unicode="H" glyph-name="H" horiz-adv-x="435" d="M258 0V281H176V0H39V688H176V412H258V688H396V0H258Z" />
<glyph unicode="I" glyph-name="I" horiz-adv-x="216" d="M39 0V688H177V0H39Z" />
<glyph unicode="J" glyph-name="J" horiz-adv-x="258" d="M46 117T61 124T81 154T86 238V688H224V314Q224 153 212 94T159 17T5 0V117Q46 117 61 124Z" />
<glyph unicode="K" glyph-name="K" horiz-adv-x="414" d="M266 0L200 283H176V0H39V688H176V414H200L268 688H408L307 357L409 0H266Z" />
<glyph unicode="L" glyph-name="L" horiz-adv-x="312" d="M39 0V688H176V127H302V0H39Z" />
<glyph unicode="M" glyph-name="M" horiz-adv-x="623" d="M452 0V519H445L379 0H241L177 519H168V0H39V688H253L310 203H318L375 688H585V0H452Z" />
<glyph unicode="N" glyph-name="N" horiz-adv-x="439" d="M280 0L173 345H169V0H39V688H166L264 376H269V688H400V0H280Z" />
<glyph unicode="O" glyph-name="O" horiz-adv-x="420" d="M121 -8T84 23T37 120T28 344Q28 501 37 567T83 665T210 696Q299 696 336 665T383 567T392 344Q392 188 383 121T337 23T210 -8Q121 -8 84 23ZM233 117T241 127T251 180T254 344Q254 465 252 507T241 560T210
571Q187 571 179 561T169 508T166 344Q166 223 168 181T179 128T210 117Q233 117 241 127Z" />
<glyph unicode="P" glyph-name="P" horiz-adv-x="404" d="M39 688H230Q298 688 332 663T378 588T390 452Q390 370 380 321T334 243T230 215H176V0H39V688ZM206 339Q228 339 237 346T249 375T253 452Q253 505 250 527T238 556T206 563H176V339H206Z" />
<glyph unicode="Q" glyph-name="Q" horiz-adv-x="420" d="M234 -7Q226 -8 210 -8Q121 -8 84 23T37 120T28 344Q28 501 37 567T83 665T210 696Q299 696 336 665T383 567T392 344Q392 203 385 138T348 38L433 -110V-115H291L234 -7ZM233 117T241 127T251 180T254
344Q254 465 252 507T241 560T210 571Q187 571 179 561T169 508T166 344Q166 223 168 181T179 128T210 117Q233 117 241 127Z" />
<glyph unicode="R" glyph-name="R" horiz-adv-x="420" d="M268 0L216 235H176V0H39V688H233Q301 688 335 664T382 592T394 462Q394 385 383 338T340 265L410 0H268ZM232 356T241 362T253 389T256 460Q256 509 253 529T241 556T210 563H176V356H210Q232 356 241 362Z" />
<glyph unicode="S" glyph-name="S" horiz-adv-x="369" d="M144 -8T103 -3T30 10V123Q95 117 141 117Q169 117 182 119T202 131Q208 140 210 154T213 194Q213 234 210 250T197 273T159 287L86 304Q50 312 36 358T21 487Q21 573 42 618T102 680T199 696Q247 696
284 690T329 679V565Q325 567 299 569T239 571Q208 571 193 569T171 557Q163 549 161 535T158 492Q158 462 160 448T170 428T194 417L257 402Q286 395 306 380T339 328Q351 292 351 218Q351 121 331 72T274 8T178 -8Q144 -8 103 -3Z" />
<glyph unicode="T" glyph-name="T" horiz-adv-x="351" d="M107 0V561H6V688H345V561H244V0H107Z" />
<glyph unicode="U" glyph-name="U" horiz-adv-x="425" d="M390 688V304Q390 167 381 108T335 20T212 -8Q126 -8 89 20T43 107T34 304V688H172V255Q172 183 174 158T183 125T212 117Q233 117 240 124T250 157T252 255V688H390Z" />
<glyph unicode="V" glyph-name="V" horiz-adv-x="412" d="M102 0L9 688H147L204 142H214L267 688H403L310 0H102Z" />
<glyph unicode="W" glyph-name="W" horiz-adv-x="662" d="M383 0L334 480H328L279 0H84L14 688H153L186 142H194L249 688H418L475 142H483L513 688H648L578 0H383Z" />
<glyph unicode="X" glyph-name="X" horiz-adv-x="427" d="M274 0L216 252H207L148 0H8L112 346L10 688H154L211 448H219L277 688H417L314 350L419 0H274Z" />
<glyph unicode="Y" glyph-name="Y" horiz-adv-x="396" d="M129 0V239L-2 688H136L197 390H207L264 688H398L267 239V0H129Z" />
<glyph unicode="Z" glyph-name="Z" horiz-adv-x="367" d="M24 0V116L194 563H30V688H341V572L171 124H341V0H24Z" />
<glyph unicode="[" glyph-name="bracketleft" horiz-adv-x="276" d="M40 -150V743H246V661L168 657V-63L246 -67V-150H40Z" />
<glyph unicode="\" glyph-name="backslash" horiz-adv-x="301" d="M166 -55L19 743H135L281 -55H166Z" />
<glyph unicode="]" glyph-name="bracketright" horiz-adv-x="276" d="M30 -150V-67L107 -63V657L30 661V743H235V-150H30Z" />
<glyph unicode="^" glyph-name="asciicircum" horiz-adv-x="368" d="M247 489L184 648L120 489H6L127 750H240L362 489H247Z" />
<glyph unicode="_" glyph-name="underscore" horiz-adv-x="355" d="M0 -189V-77H355V-189H0Z" />
<glyph unicode="`" glyph-name="grave" horiz-adv-x="162" d="M56 596L0 738V743H126L162 601V596H56Z" />
<glyph unicode="a" glyph-name="a" horiz-adv-x="371" d="M61 -8T39 29T17 148Q17 207 28 240T65 289T138 305Q163 305 210 300V326Q210 366 206 382T187 403T135 408Q75 408 38 403V505Q113 518 175 518Q241 518 276 499T325 436T339 313V0H215L211 59H203Q195
26 172 9T120 -8Q61 -8 39 29ZM185 109T193 112T205 128Q210 148 210 188V217H174Q154 217 147 206T140 160Q140 130 145 120T172 109Q185 109 193 112Z" />
<glyph unicode="b" glyph-name="b" horiz-adv-x="390" d="M225 -8T202 7T170 59H162L158 0H34V743H163V456H172Q188 518 256 518Q300 518 323 494T356 414T365 255Q365 148 355 92T322 14T254 -8Q225 -8 202 7ZM218 109T225 116T234 152T236 255Q236 330 234 358T225
393T200 401Q186 401 179 396T168 375Q163 342 163 255Q163 168 167 139Q171 120 178 115T200 109Q218 109 225 116Z" />
<glyph unicode="c" glyph-name="c" horiz-adv-x="291" d="M225 -8T176 -8Q112 -8 80 19T36 102T25 255Q25 355 37 410T82 492T176 518Q232 518 271 506V404Q247 408 215 408Q187 408 175 399T159 360T154 255Q154 180 158 150T174 111T215 102Q248 102 273 106V6Q225
-8 176 -8Z" />
<glyph unicode="d" glyph-name="d" horiz-adv-x="390" d="M92 -8T69 14T35 92T25 255Q25 358 34 414T66 494T134 518Q203 518 218 456H227V743H356V0H232L228 59H220Q212 23 189 8T136 -8Q92 -8 69 14ZM206 109T213 115T223 144Q227 180 227 257Q227 331 224 361Q220
386 213 393T190 401Q172 401 165 394T156 358T154 255Q154 180 156 152T165 117T190 109Q206 109 213 115Z" />
<glyph unicode="e" glyph-name="e" horiz-adv-x="369" d="M344 216H154Q154 159 158 138T176 109T226 102Q269 102 335 106V6Q311 0 272 -4T195 -8Q116 -8 80 19T35 98T25 254Q25 357 35 410T80 490T190 518Q265 518 297 493T336 417T344 254V216ZM173 408T166
402T157 375T154 303H224V306Q224 356 222 376T213 402T190 408Q173 408 166 402Z" />
<glyph unicode="f" glyph-name="f" horiz-adv-x="272" d="M60 400H11V510H60V532Q60 633 74 675T126 730T256 743V647Q224 647 211 643T194 622T189 565V510H256V400H189V0H60V400Z" />
<glyph unicode="g" glyph-name="g" horiz-adv-x="390" d="M110 -205T53 -195V-95L153 -96Q190 -96 204 -89T223 -59T227 21V66H218Q203 4 134 4Q90 4 67 27T34 105T25 262Q25 366 35 420T68 496T136 518Q165 518 188 503T220 451H228L232 510H356V60Q356 -44 347
-96T301 -177T184 -205Q110 -205 53 -195ZM205 121T212 127T223 152Q227 177 227 262Q227 334 224 362Q220 387 213 394T190 401Q172 401 165 394T156 360T154 262Q154 190 156 163T165 128T190 121Q205 121 212 127Z" />
<glyph unicode="h" glyph-name="h" horiz-adv-x="393" d="M231 279Q231 342 229 365T221 395T198 401Q180 401 174 392T165 354T163 254V0H34V743H163V452H172Q192 518 265 518Q306 518 326 501T353 447T360 343V0H231V279Z" />
<glyph unicode="i" glyph-name="i" horiz-adv-x="198" d="M34 620V743H164V620H34ZM34 0V510H163V0H34Z" />
<glyph unicode="j" glyph-name="j" horiz-adv-x="198" d="M34 620V743H164V620H34ZM-14 -99Q9 -99 19 -94T31 -79T34 -48V510H163V17Q163 -82 149 -126T99 -184T-14 -197V-99Z" />
<glyph unicode="k" glyph-name="k" horiz-adv-x="377" d="M240 0L184 198H163V0H34V743H163V308H184L244 510H372L292 268L372 0H240Z" />
<glyph unicode="l" glyph-name="l" horiz-adv-x="198" d="M34 0V743H163V0H34Z" />
<glyph unicode="m" glyph-name="m" horiz-adv-x="586" d="M425 279Q425 342 423 365T415 395T392 401Q375 401 369 392T361 356T359 254V0H230V279Q230 342 228 365T220 395T197 401Q180 401 173 392T165 354T163 254V0H34V510H158L162 451H170Q183 488 206 503T266
518Q304 518 324 502T352 451H361Q374 488 397 503T457 518Q496 518 517 501T546 449T554 351V0H425V279Z" />
<glyph unicode="n" glyph-name="n" horiz-adv-x="393" d="M231 279Q231 342 229 365T221 395T198 401Q180 401 174 392T165 354T163 254V0H34V510H158L162 451H170Q190 518 265 518Q306 518 326 501T353 447T360 343V0H231V279Z" />
<glyph unicode="o" glyph-name="o" horiz-adv-x="381" d="M114 -8T80 14T36 88T25 255Q25 369 35 421T80 496T190 518Q267 518 301 496T345 422T355 255Q355 140 345 88T301 14T190 -8Q114 -8 80 14ZM209 102T215 110T224 147T226 255Q226 335 224 363T216 399T190
408Q172 408 165 400T156 362T154 255Q154 177 156 148T165 111T190 102Q209 102 215 110Z" />
<glyph unicode="p" glyph-name="p" horiz-adv-x="390" d="M34 510H158L162 451H170Q178 487 201 502T254 518Q298 518 321 496T355 418T365 255Q365 152 356 96T324 16T256 -8Q188 -8 172 54H163V-198H34V510ZM218 109T225 116T234 152T236 255Q236 330 234 358T225
393T200 401Q185 401 178 395T166 369Q163 341 163 255Q163 167 166 146Q170 123 177 116T200 109Q218 109 225 116Z" />
<glyph unicode="q" glyph-name="q" horiz-adv-x="390" d="M227 54H218Q203 -8 134 -8Q90 -8 67 16T34 96T25 255Q25 362 35 418T68 496T136 518Q165 518 188 503T220 451H228L232 510H356V-198H227V54ZM204 109T211 115T223 139Q227 171 227 255Q227 341 223 372Q219
390 212 395T190 401Q172 401 165 394T156 358T154 255Q154 180 156 152T165 117T190 109Q204 109 211 115Z" />
<glyph unicode="r" glyph-name="r" horiz-adv-x="278" d="M34 510H158L162 428H170Q184 478 207 498T269 518V379Q215 379 189 352T163 246V0H34V510Z" />
<glyph unicode="s" glyph-name="s" horiz-adv-x="315" d="M125 -8T88 -3T25 9V108Q77 102 116 102Q149 102 162 111T176 149Q176 171 174 180T165 194T143 201L76 215Q44 221 30 254T15 363Q15 444 53 481T165 518Q194 518 226 514T279 502V401Q232 408 194 408Q164
408 154 400T144 365Q144 344 145 335T152 323T170 317L225 305Q248 301 264 290T291 248T302 161Q302 66 267 29T156 -8Q125 -8 88 -3Z" />
<glyph unicode="t" glyph-name="t" horiz-adv-x="266" d="M60 0V400H11V510H60V658H189V510H256V400H189V0H60Z" />
<glyph unicode="u" glyph-name="u" horiz-adv-x="393" d="M231 59H222Q203 -8 128 -8Q87 -8 67 9T39 63T32 167V510H161V231Q161 168 163 145T171 115T194 109Q212 109 219 118T227 155T229 256V510H358V0H235L231 59Z" />
<glyph unicode="v" glyph-name="v" horiz-adv-x="364" d="M93 0L4 510H133L181 145H189L233 510H361L272 0H93Z" />
<glyph unicode="w" glyph-name="w" horiz-adv-x="567" d="M327 0L288 269H280L243 0H81L6 510H132L165 165H173L223 510H350L400 165H409L441 510H561L486 0H327Z" />
<glyph unicode="x" glyph-name="x" horiz-adv-x="371" d="M235 0L188 166H180L134 0H5L97 255L8 510H141L185 356H193L236 510H365L275 259L367 0H235Z" />
<glyph unicode="y" glyph-name="y" horiz-adv-x="393" d="M112 -205T57 -195V-94Q89 -95 156 -95Q193 -95 207 -88T225 -59T229 20V70H221Q201 4 127 4Q87 4 67 21T39 75T32 180V510H161V242Q161 179 163 156T171 127T194 121Q212 121 219 130T227 167T229 268V510H358V59Q358
-45 349 -97T303 -177T187 -205Q112 -205 57 -195Z" />
<glyph unicode="z" glyph-name="z" horiz-adv-x="342" d="M25 0V101L171 400H30V510H315V409L170 110H316V0H25Z" />
<glyph unicode="{" glyph-name="braceleft" horiz-adv-x="303" d="M151 -125T121 -76T91 24V154Q91 203 76 232T20 268V325Q61 332 76 361T91 439V569Q91 620 121 669T197 743H278Q241 697 230 661T219 553V445Q219 322 121 300V293Q219 271 219 148V40Q219 -32
230 -68T278 -150H197Q151 -125 121 -76Z" />
<glyph unicode="|" glyph-name="bar" horiz-adv-x="214" d="M46 -161V743H168V-161H46Z" />
<glyph unicode="}" glyph-name="braceright" horiz-adv-x="303" d="M61 -104T72 -68T84 40V148Q84 271 182 293V300Q84 322 84 445V553Q84 624 73 660T25 743H106Q152 718 182 669T212 569V439Q212 390 227 361T283 325V268Q242 261 227 232T212 154V24Q212 -27
182 -76T106 -150H25Q61 -104 72 -68Z" />
<glyph unicode="~" glyph-name="asciitilde" horiz-adv-x="446" d="M395 324T391 299T369 259T311 244Q288 244 265 248T208 259Q160 269 149 269Q136 269 133 262T129 233H51Q51 284 55 309T77 349T135 364Q171 364 237 349L259 345Q284 340 297 340Q310 340
313 346T316 374H395Q395 324 391 299Z" />
<glyph unicode="&#xa0;" glyph-name="uni00A0" horiz-adv-x="145" />
<glyph unicode="&#xa1;" glyph-name="exclamdown" horiz-adv-x="241" d="M50 378V510H190V378H50ZM40 -122Q40 -91 52 29T81 294H160Q177 145 188 27T200 -122V-178H40V-122Z" />
<glyph unicode="&#xa2;" glyph-name="cent" horiz-adv-x="306" d="M133 73Q90 83 68 115T37 201T29 342Q29 431 38 485T69 570T133 610V696H228V614Q264 608 278 604V498Q238 502 222 502Q193 502 181 493T165 451T160 342Q160 264 164 232T180 191T222 182Q239
182 281 187V83Q260 76 228 71V-8H133V73Z" />
<glyph unicode="&#xa3;" glyph-name="sterling" horiz-adv-x="367" d="M337 124V0H25V124H76V293H25V417H76V449Q76 542 87 593T132 670T235 696Q260 696 287 693T332 684V566Q304 571 269 571Q254 571 246 570T231 562Q220 553 217 529T214 450V417H302V293H214V124H337Z"
/>
<glyph unicode="&#xa4;" glyph-name="currency" horiz-adv-x="497" d="M26 90L97 162Q89 190 86 232T83 345Q83 415 86 457T97 529L25 600L106 681L180 607Q202 613 248 613Q290 613 318 606L392 681L472 600L398 527Q407 499 410 456T413 345Q413 215 399 163L472
90L392 9L318 83Q291 76 248 76Q206 76 179 82L106 9L26 90ZM266 185T273 194T282 233T284 345Q284 426 282 456T273 495T248 504Q229 504 223 495T214 457T212 345Q212 262 214 233T222 194T248 185Q266 185 273 194Z" />
<glyph unicode="&#xa5;" glyph-name="yen" horiz-adv-x="458" d="M160 0V206H43V277H150L124 359H43V430H104L29 688H167L228 390H238L294 688H428L353 430H414V359H333L307 277H414V206H298V0H160Z" />
<glyph unicode="&#xa6;" glyph-name="brokenbar" horiz-adv-x="214" d="M46 390V743H168V390H46ZM46 -161V192H168V-161H46Z" />
<glyph unicode="&#xa7;" glyph-name="section" horiz-adv-x="424" d="M160 -169T126 -164T70 -151V-39Q135 -46 169 -46Q201 -46 212 -37T223 2Q223 29 219 37T199 54L137 86Q132 89 99 105T45 160T24 251Q24 322 42 359T98 409Q82 429 74 455T66 522Q66 614 107
655T231 696Q268 696 302 691T354 677V565Q310 572 255 572Q223 572 212 563T201 525Q201 498 205 489T222 474L280 445Q285 443 320 426T377 369T400 275Q400 204 382 166T326 116Q342 98 350 72T358 5Q358 -87 317 -128T193 -169Q160 -169 126 -164ZM256 180T260
199T265 254Q265 273 262 288T251 307L191 341Q180 347 177 347Q168 347 164 328T159 273Q159 229 177 218L235 185Q244 180 247 180Q256 180 260 199Z" />
<glyph unicode="&#xa8;" glyph-name="dieresis" horiz-adv-x="281" d="M4 626V730H115V626H4ZM167 626V730H278V626H167Z" />
<glyph unicode="&#xa9;" glyph-name="copyright" horiz-adv-x="514" d="M150 -8T109 15T57 104T46 344Q46 518 56 584T108 673T257 696Q364 696 405 673T457 584T468 344Q468 170 458 104T406 15T257 -8Q150 -8 109 15ZM344 40T373 54T411 124T419 344Q419 508
411 563T374 633T257 648Q170 648 141 634T103 564T95 344Q95 180 103 125T140 55T257 40Q344 40 373 54ZM230 157T210 174T184 229T177 344Q177 420 183 458T210 514T271 531Q308 531 321 524V461Q291 464 285 464Q267 464 261 457T253 428T251 344Q251 283 252
261T260 231T285 224Q310 224 322 227V166Q303 157 271 157Q230 157 210 174Z" />
<glyph unicode="&#xaa;" glyph-name="ordfeminine" horiz-adv-x="293" d="M54 305T38 332T22 421Q22 486 41 512T112 538Q119 538 164 535V553Q164 582 161 594T147 609T109 613Q76 613 37 609V686Q92 696 139 696Q188 696 214 682T250 635T261 543V311H168L165
354H158Q152 330 136 318T98 305Q54 305 38 332ZM147 393T152 396T160 410Q164 419 164 451V471H138Q124 471 119 463T114 430Q114 409 118 401T137 393Q147 393 152 396Z" />
<glyph unicode="&#xab;" glyph-name="guillemotleft" horiz-adv-x="385" d="M102 131L35 320L102 510H196L146 320L196 131H102ZM255 131L188 320L255 510H349L299 320L349 131H255Z" />
<glyph unicode="&#xac;" glyph-name="logicalnot" horiz-adv-x="444" d="M279 72V186H51V301H394V72H279Z" />
<glyph unicode="&#xad;" glyph-name="uni00AD" horiz-adv-x="266" d="M45 226V344H221V226H45Z" />
<glyph unicode="&#xae;" glyph-name="registered" horiz-adv-x="514" d="M364 696T405 673T457 584T468 344Q468 170 458 104T406 15T257 -8Q150 -8 109 15T57 104T46 344Q46 518 56 584T108 673T257 696Q364 696 405 673ZM344 40T373 54T411 124T419 344Q419
508 411 563T374 633T257 648Q170 648 141 634T103 564T95 344Q95 180 103 125T140 55T257 40Q344 40 373 54ZM352 366T347 341T324 301L361 160H285L257 285H239V160H166V527H268Q304 527 322 514T346 476T352 406Q352 366 347 341ZM266 351T271 354T277 368T279
406Q279 432 278 442T271 456T255 459H239V351H255Q266 351 271 354Z" />
<glyph unicode="&#xaf;" glyph-name="overscore" horiz-adv-x="266" d="M45 625V743H221V625H45Z" />
<glyph unicode="&#xb0;" glyph-name="degree" horiz-adv-x="289" d="M89 397T65 411T35 454T29 547Q29 611 34 639T64 681T145 696Q202 696 226 682T256 639T262 547Q262 483 257 455T227 412T145 397Q89 397 65 411ZM162 466T168 471T176 491T178 547Q178 588
177 602T169 622T145 628Q129 628 123 623T115 603T113 547Q113 506 114 492T122 472T145 466Q162 466 168 471Z" />
<glyph unicode="&#xb1;" glyph-name="plusminus" horiz-adv-x="443" d="M165 200V314H51V428H165V543H278V428H393V314H278V200H165ZM51 42V157H393V42H51Z" />
<glyph unicode="&#xb2;" glyph-name="uni00B2" horiz-adv-x="269" d="M123 391H230V315H39V363Q39 416 41 441T49 482T71 506L125 540Q137 547 141 555T145 582Q145 607 139 613T108 619Q105 619 77 617Q71 617 41 615V686Q84 696 130 696Q163 696 183 690T217
659T230 587Q230 537 219 516T187 482L137 450Q127 444 125 437T123 396V391Z" />
<glyph unicode="&#xb3;" glyph-name="uni00B3" horiz-adv-x="269" d="M88 307T40 316V388Q84 384 106 384Q129 384 135 390T142 422Q142 450 137 457T116 465H66V541H116Q131 541 135 548T140 583Q140 601 138 608T129 617T103 619Q78 619 42 615V687Q87 696 127
696Q179 696 202 675T226 596Q226 559 216 538T183 507V503Q206 494 217 473T229 412Q229 353 206 330T127 307Q88 307 40 316Z" />
<glyph unicode="&#xb4;" glyph-name="acute" horiz-adv-x="162" d="M0 596V601L36 743H162V738L106 596H0Z" />
<glyph unicode="&#xb5;" glyph-name="uni00B5" horiz-adv-x="395" d="M360 510V0H237L233 59H225Q216 30 201 16T163 -1V-189H34V510H163V231Q163 169 165 146T173 116T197 109Q215 109 221 118T229 155T231 256V510H360Z" />
<glyph unicode="&#xb6;" glyph-name="paragraph" horiz-adv-x="428" d="M120 222Q75 222 55 238T28 301T21 454Q21 560 28 607T55 671T120 688H225V-144H120V222ZM272 -144V688H378V-144H272Z" />
<glyph unicode="&#xb7;" glyph-name="middot" horiz-adv-x="231" d="M45 232V365H185V232H45Z" />
<glyph unicode="&#xb8;" glyph-name="cedilla" horiz-adv-x="144" d="M0 -188V-183L62 8H144V3L109 -188H0Z" />
<glyph unicode="&#xb9;" glyph-name="uni00B9" horiz-adv-x="211" d="M86 315V588L39 568V650L108 688H172V315H86Z" />
<glyph unicode="&#xba;" glyph-name="ordmasculine" horiz-adv-x="299" d="M93 305T68 321T34 377T26 501Q26 585 34 624T67 679T150 696Q207 696 232 680T265 624T273 501Q273 416 265 377T232 322T150 305Q93 305 68 321ZM163 388T168 394T174 422T176 501Q176
557 175 579T168 607T150 613Q137 613 132 607T126 580T124 501Q124 443 125 422T132 394T150 388Q163 388 168 394Z" />
<glyph unicode="&#xbb;" glyph-name="guillemotright" horiz-adv-x="385" d="M35 131L85 320L35 510H129L196 320L129 131H35ZM189 131L239 320L189 510H282L349 320L282 131H189Z" />
<glyph unicode="&#xbc;" glyph-name="onequarter" horiz-adv-x="579" d="M85 315V588L37 568V650L106 688H170V315H85ZM78 0L381 688H459L157 0H78ZM433 0V72H326V135L379 374H465L404 149H436L462 240H518V149H542V72H518V0H433Z" />
<glyph unicode="&#xbd;" glyph-name="onehalf" horiz-adv-x="595" d="M85 315V588L37 568V650L106 688H170V315H85ZM381 688H459L157 0H78L381 688ZM449 77H556V0H365V49Q365 103 366 127T375 167T397 192L451 225Q462 232 466 241T471 267Q471 292 465 298T434
304Q414 304 367 300V372Q407 381 455 381Q488 381 508 375T542 345T556 272Q556 222 545 201T513 167L464 137Q453 130 451 121T449 100T449 82V77Z" />
<glyph unicode="&#xbe;" glyph-name="threequarters" horiz-adv-x="618" d="M84 384T106 384Q129 384 135 390T142 422Q142 450 137 457T116 465H66V541H116Q131 541 135 548T140 583Q140 601 138 608T129 617T103 619Q78 619 42 615V687Q87 696 127 696Q179 696
202 675T226 596Q226 559 216 538T183 507V503Q206 494 217 473T229 412Q229 353 206 330T127 307Q88 307 40 316V388Q84 384 106 384ZM118 0L421 688H499L197 0H118ZM471 0V72H364V135L417 374H503L442 149H473L500 240H556V149H580V72H556V0H471Z" />
<glyph unicode="&#xbf;" glyph-name="questiondown" horiz-adv-x="326" d="M139 378V510H278V378H139ZM116 -186T74 -152T31 -33Q31 19 36 48T53 97T91 139L121 164Q136 176 141 184T148 203T150 245V294H268V200Q268 155 260 135T229 97L218 88Q186 64 178 49T169
-1Q169 -28 176 -40T198 -57T242 -61Q274 -61 316 -55V-170Q288 -177 252 -181T185 -186Q116 -186 74 -152Z" />
<glyph unicode="&#xc0;" glyph-name="Agrave" horiz-adv-x="425" d="M280 0L263 137H160L143 0H6L109 688H316L419 0H280ZM215 553H208L173 258H250L215 553ZM164 749L108 891V896H234L270 754V749H164Z" />
<glyph unicode="&#xc1;" glyph-name="Aacute" horiz-adv-x="425" d="M280 0L263 137H160L143 0H6L109 688H316L419 0H280ZM215 553H208L173 258H250L215 553ZM153 750V755L189 897H315V892L259 750H153Z" />
<glyph unicode="&#xc2;" glyph-name="Acircumflex" horiz-adv-x="425" d="M280 0L263 137H160L143 0H6L109 688H316L419 0H280ZM215 553H208L173 258H250L215 553ZM80 750V758L147 875H275L343 758V750H254L211 813L169 750H80Z" />
<glyph unicode="&#xc3;" glyph-name="Atilde" horiz-adv-x="425" d="M280 0L263 137H160L143 0H6L109 688H316L419 0H280ZM215 553H208L173 258H250L215 553ZM353 840T350 815T332 776T284 761Q256 761 207 776Q200 778 187 782T164 787Q154 787 152 780T150 750H72Q72
800 76 825T95 865T143 879Q172 879 219 864Q251 855 262 855Q272 855 274 862T276 891H353Q353 840 350 815Z" />
<glyph unicode="&#xc4;" glyph-name="Adieresis" horiz-adv-x="425" d="M280 0L263 137H160L143 0H6L109 688H316L419 0H280ZM215 553H208L173 258H250L215 553ZM76 776V880H187V776H76ZM239 776V880H350V776H239Z" />
<glyph unicode="&#xc5;" glyph-name="Aring" horiz-adv-x="425" d="M419 0H280L263 137H160L143 0H6L109 684Q97 696 94 713T91 764Q91 807 97 828T130 860T213 872Q270 872 295 861T327 828T334 764Q334 733 331 715T317 685L419 0ZM231 724T238 727T248 738T250
764Q250 783 248 790T239 801T213 805Q195 805 188 802T178 791T176 764Q176 746 178 739T187 728T213 724Q231 724 238 727ZM173 258H250L215 553H208L173 258Z" />
<glyph unicode="&#xc6;" glyph-name="AE" horiz-adv-x="556" d="M265 0L253 137H147L124 0H-13L119 688H529V563H348L364 410H512V285H375L393 124H529V0H265ZM219 553H213L164 258H244L219 553Z" />
<glyph unicode="&#xc7;" glyph-name="Ccedilla" horiz-adv-x="323" d="M272 117T302 122V10Q285 2 259 -3T208 -8H203L170 -188H61V-183L122 5Q82 21 62 60T35 164T28 344Q28 488 41 560T91 664T208 696Q235 696 261 692T300 681V566Q263 571 233 571Q198 571
186 558T170 503T166 344Q166 228 169 186T185 130T233 117Q272 117 302 122Z" />
<glyph unicode="&#xc8;" glyph-name="Egrave" horiz-adv-x="342" d="M39 0V688H315V563H176V410H298V285H176V125H315V0H39ZM135 750L79 892V897H205L241 755V750H135Z" />
<glyph unicode="&#xc9;" glyph-name="Eacute" horiz-adv-x="342" d="M39 0V688H315V563H176V410H298V285H176V125H315V0H39ZM124 750V755L160 897H286V892L230 750H124Z" />
<glyph unicode="&#xca;" glyph-name="Ecircumflex" horiz-adv-x="342" d="M39 0V688H315V563H176V410H298V285H176V125H315V0H39ZM46 750V758L113 875H241L309 758V750H220L177 813L135 750H46Z" />
<glyph unicode="&#xcb;" glyph-name="Edieresis" horiz-adv-x="342" d="M39 0V688H315V563H176V410H298V285H176V125H315V0H39ZM42 776V880H153V776H42ZM205 776V880H316V776H205Z" />
<glyph unicode="&#xcc;" glyph-name="Igrave" horiz-adv-x="216" d="M39 0V688H177V0H39ZM71 750L15 892V897H141L177 755V750H71Z" />
<glyph unicode="&#xcd;" glyph-name="Iacute" horiz-adv-x="216" d="M39 0V688H177V0H39ZM42 750V755L78 897H204V892L148 750H42Z" />
<glyph unicode="&#xce;" glyph-name="Icircumflex" horiz-adv-x="216" d="M39 0V688H177V0H39ZM-24 750V758L43 875H171L239 758V750H150L107 813L65 750H-24Z" />
<glyph unicode="&#xcf;" glyph-name="Idieresis" horiz-adv-x="216" d="M39 0V688H177V0H39ZM-28 776V880H83V776H-28ZM135 776V880H246V776H135Z" />
<glyph unicode="&#xd0;" glyph-name="Eth" horiz-adv-x="418" d="M39 285H1V410H39V688H206Q295 688 332 658T379 562T388 344Q388 191 379 126T333 31T206 0H39V285ZM230 125T238 135T249 187T252 344Q252 459 250 501T239 553T206 563H175V410H220V285H175V125H206Q230
125 238 135Z" />
<glyph unicode="&#xd1;" glyph-name="Ntilde" horiz-adv-x="439" d="M280 0L173 345H169V0H39V688H166L264 376H269V688H400V0H280ZM360 840T357 815T339 776T291 761Q263 761 214 776Q207 778 194 782T171 787Q161 787 159 780T157 750H79Q79 800 83 825T102
865T150 879Q179 879 226 864Q258 855 269 855Q279 855 281 862T283 891H360Q360 840 357 815Z" />
<glyph unicode="&#xd2;" glyph-name="Ograve" horiz-adv-x="420" d="M121 -8T84 23T37 120T28 344Q28 501 37 567T83 665T210 696Q299 696 336 665T383 567T392 344Q392 188 383 121T337 23T210 -8Q121 -8 84 23ZM233 117T241 127T251 180T254 344Q254 465 252
507T241 560T210 571Q187 571 179 561T169 508T166 344Q166 223 168 181T179 128T210 117Q233 117 241 127ZM158 750L102 892V897H228L264 755V750H158Z" />
<glyph unicode="&#xd3;" glyph-name="Oacute" horiz-adv-x="420" d="M121 -8T84 23T37 120T28 344Q28 501 37 567T83 665T210 696Q299 696 336 665T383 567T392 344Q392 188 383 121T337 23T210 -8Q121 -8 84 23ZM233 117T241 127T251 180T254 344Q254 465 252
507T241 560T210 571Q187 571 179 561T169 508T166 344Q166 223 168 181T179 128T210 117Q233 117 241 127ZM152 750V755L188 897H314V892L258 750H152Z" />
<glyph unicode="&#xd4;" glyph-name="Ocircumflex" horiz-adv-x="420" d="M121 -8T84 23T37 120T28 344Q28 501 37 567T83 665T210 696Q299 696 336 665T383 567T392 344Q392 188 383 121T337 23T210 -8Q121 -8 84 23ZM233 117T241 127T251 180T254 344Q254 465
252 507T241 560T210 571Q187 571 179 561T169 508T166 344Q166 223 168 181T179 128T210 117Q233 117 241 127ZM78 750V758L145 875H273L341 758V750H252L209 813L167 750H78Z" />
<glyph unicode="&#xd5;" glyph-name="Otilde" horiz-adv-x="420" d="M121 -8T84 23T37 120T28 344Q28 501 37 567T83 665T210 696Q299 696 336 665T383 567T392 344Q392 188 383 121T337 23T210 -8Q121 -8 84 23ZM233 117T241 127T251 180T254 344Q254 465 252
507T241 560T210 571Q187 571 179 561T169 508T166 344Q166 223 168 181T179 128T210 117Q233 117 241 127ZM351 840T348 815T330 776T282 761Q254 761 205 776Q198 778 185 782T162 787Q152 787 150 780T148 750H70Q70 800 74 825T93 865T141 879Q170 879 217
864Q249 855 260 855Q270 855 272 862T274 891H351Q351 840 348 815Z" />
<glyph unicode="&#xd6;" glyph-name="Odieresis" horiz-adv-x="420" d="M121 -8T84 23T37 120T28 344Q28 501 37 567T83 665T210 696Q299 696 336 665T383 567T392 344Q392 188 383 121T337 23T210 -8Q121 -8 84 23ZM233 117T241 127T251 180T254 344Q254 465
252 507T241 560T210 571Q187 571 179 561T169 508T166 344Q166 223 168 181T179 128T210 117Q233 117 241 127ZM73 776V880H184V776H73ZM236 776V880H347V776H236Z" />
<glyph unicode="&#xd7;" glyph-name="multiply" horiz-adv-x="425" d="M213 173L131 91L51 172L132 254L51 335L131 416L213 334L295 416L374 335L293 254L374 172L294 91L213 173Z" />
<glyph unicode="&#xd8;" glyph-name="Oslash" horiz-adv-x="420" d="M359 639Q381 603 386 540T392 344Q392 188 383 121T337 23T210 -8Q182 -8 158 -5L143 -55H28L61 49Q39 85 34 148T28 344Q28 501 37 567T83 665T210 696Q238 696 261 693L277 743H392L359 639ZM233
117T241 127T251 180T254 344Q254 465 252 507T241 560T210 571Q187 571 179 561T169 508T166 344Q166 223 168 181T179 128T210 117Q233 117 241 127Z" />
<glyph unicode="&#xd9;" glyph-name="Ugrave" horiz-adv-x="425" d="M390 688V304Q390 167 381 108T335 20T212 -8Q126 -8 89 20T43 107T34 304V688H172V255Q172 183 174 158T183 125T212 117Q233 117 240 124T250 157T252 255V688H390ZM164 750L108 892V897H234L270
755V750H164Z" />
<glyph unicode="&#xda;" glyph-name="Uacute" horiz-adv-x="425" d="M390 688V304Q390 167 381 108T335 20T212 -8Q126 -8 89 20T43 107T34 304V688H172V255Q172 183 174 158T183 125T212 117Q233 117 240 124T250 157T252 255V688H390ZM156 750V755L192 897H318V892L262
750H156Z" />
<glyph unicode="&#xdb;" glyph-name="Ucircumflex" horiz-adv-x="425" d="M390 688V304Q390 167 381 108T335 20T212 -8Q126 -8 89 20T43 107T34 304V688H172V255Q172 183 174 158T183 125T212 117Q233 117 240 124T250 157T252 255V688H390ZM80 750V758L147 875H275L343
758V750H254L211 813L169 750H80Z" />
<glyph unicode="&#xdc;" glyph-name="Udieresis" horiz-adv-x="425" d="M390 688V304Q390 167 381 108T335 20T212 -8Q126 -8 89 20T43 107T34 304V688H172V255Q172 183 174 158T183 125T212 117Q233 117 240 124T250 157T252 255V688H390ZM76 776V880H187V776H76ZM239
776V880H350V776H239Z" />
<glyph unicode="&#xdd;" glyph-name="Yacute" horiz-adv-x="396" d="M129 0V239L-2 688H136L197 390H207L264 688H398L267 239V0H129ZM147 750V755L183 897H309V892L253 750H147Z" />
<glyph unicode="&#xde;" glyph-name="Thorn" horiz-adv-x="404" d="M39 688H176V589H230Q298 589 332 564T378 489T390 353Q390 271 380 222T334 144T230 115H176V0H39V688ZM206 240Q228 240 237 247T249 276T253 353Q253 407 250 429T238 457T206 464H176V240H206Z" />
<glyph unicode="&#xdf;" glyph-name="germandbls" horiz-adv-x="394" d="M199 0V110H204Q222 110 229 118T238 154T240 259Q240 322 238 348T228 383T204 391H199V501H204Q218 501 224 505T233 524T235 571Q235 601 232 615T221 635T200 640Q184 640 177 634T166
607T163 542V0H34V541Q34 616 49 661T100 728T200 750Q287 750 326 713T365 591Q365 530 345 497T282 453V449Q328 437 348 392T369 249Q369 158 358 106T312 27T212 0H199Z" />
<glyph unicode="&#xe0;" glyph-name="agrave" horiz-adv-x="371" d="M61 -8T39 29T17 148Q17 207 28 240T65 289T138 305Q163 305 210 300V326Q210 366 206 382T187 403T135 408Q75 408 38 403V505Q113 518 175 518Q241 518 276 499T325 436T339 313V0H215L211
59H203Q195 26 172 9T120 -8Q61 -8 39 29ZM185 109T193 112T205 128Q210 148 210 188V217H174Q154 217 147 206T140 160Q140 130 145 120T172 109Q185 109 193 112ZM141 596L85 738V743H211L247 601V596H141Z" />
<glyph unicode="&#xe1;" glyph-name="aacute" horiz-adv-x="371" d="M61 -8T39 29T17 148Q17 207 28 240T65 289T138 305Q163 305 210 300V326Q210 366 206 382T187 403T135 408Q75 408 38 403V505Q113 518 175 518Q241 518 276 499T325 436T339 313V0H215L211
59H203Q195 26 172 9T120 -8Q61 -8 39 29ZM185 109T193 112T205 128Q210 148 210 188V217H174Q154 217 147 206T140 160Q140 130 145 120T172 109Q185 109 193 112ZM132 596V601L168 743H294V738L238 596H132Z" />
<glyph unicode="&#xe2;" glyph-name="acircumflex" horiz-adv-x="371" d="M61 -8T39 29T17 148Q17 207 28 240T65 289T138 305Q163 305 210 300V326Q210 366 206 382T187 403T135 408Q75 408 38 403V505Q113 518 175 518Q241 518 276 499T325 436T339 313V0H215L211
59H203Q195 26 172 9T120 -8Q61 -8 39 29ZM185 109T193 112T205 128Q210 148 210 188V217H174Q154 217 147 206T140 160Q140 130 145 120T172 109Q185 109 193 112ZM56 618V626L123 743H251L319 626V618H230L187 681L145 618H56Z" />
<glyph unicode="&#xe3;" glyph-name="atilde" horiz-adv-x="371" d="M61 -8T39 29T17 148Q17 207 28 240T65 289T138 305Q163 305 210 300V326Q210 366 206 382T187 403T135 408Q75 408 38 403V505Q113 518 175 518Q241 518 276 499T325 436T339 313V0H215L211
59H203Q195 26 172 9T120 -8Q61 -8 39 29ZM185 109T193 112T205 128Q210 148 210 188V217H174Q154 217 147 206T140 160Q140 130 145 120T172 109Q185 109 193 112ZM326 692T323 667T305 628T257 613Q229 613 180 628Q173 630 160 634T137 639Q127 639 125 632T123
602H45Q45 652 49 677T68 717T116 731Q145 731 192 716Q224 707 235 707Q245 707 247 714T249 743H326Q326 692 323 667Z" />
<glyph unicode="&#xe4;" glyph-name="adieresis" horiz-adv-x="371" d="M61 -8T39 29T17 148Q17 207 28 240T65 289T138 305Q163 305 210 300V326Q210 366 206 382T187 403T135 408Q75 408 38 403V505Q113 518 175 518Q241 518 276 499T325 436T339 313V0H215L211
59H203Q195 26 172 9T120 -8Q61 -8 39 29ZM185 109T193 112T205 128Q210 148 210 188V217H174Q154 217 147 206T140 160Q140 130 145 120T172 109Q185 109 193 112ZM51 626V730H162V626H51ZM214 626V730H325V626H214Z" />
<glyph unicode="&#xe5;" glyph-name="aring" horiz-adv-x="371" d="M61 -8T39 29T17 148Q17 207 28 240T65 289T138 305Q163 305 210 300V326Q210 366 206 382T187 403T135 408Q75 408 38 403V505Q113 518 175 518Q241 518 276 499T325 436T339 313V0H215L211
59H203Q195 26 172 9T120 -8Q61 -8 39 29ZM185 109T193 112T205 128Q210 148 210 188V217H174Q154 217 147 206T140 160Q140 130 145 120T172 109Q185 109 193 112ZM129 845T103 856T71 889T64 952Q64 995 70 1016T103 1048T186 1060Q243 1060 268 1049T300 1016T307
952Q307 910 301 889T269 857T186 845Q129 845 103 856ZM204 912T211 915T221 926T223 952Q223 971 221 978T212 989T186 993Q167 993 160 990T151 979T149 952Q149 933 150 926T160 916T186 912Q204 912 211 915Z" />
<glyph unicode="&#xe6;" glyph-name="ae" horiz-adv-x="553" d="M528 217H339Q339 159 342 138T360 109T410 102Q461 102 519 106V6Q494 0 455 -4T380 -8Q302 -8 267 31Q246 11 214 2T146 -8Q73 -8 45 29T17 148Q17 206 28 240T65 289T138 304Q150 304 210 301V326Q210
366 206 382T187 403T135 408Q81 408 38 403V505Q116 518 175 518Q242 518 275 485Q308 518 374 518Q449 518 481 493T520 417T528 255V217ZM358 408T351 402T342 375T339 304H408V306Q408 356 406 376T397 402T374 408Q358 408 351 402ZM210 217H173Q154 217 147
206T140 160Q140 127 145 115T172 102Q187 102 194 107T206 128Q210 147 210 185V217Z" />
<glyph unicode="&#xe7;" glyph-name="ccedilla" horiz-adv-x="291" d="M273 6Q232 -6 187 -8L154 -188H45V-183L106 4Q57 24 41 82T25 255Q25 355 37 410T82 492T176 518Q232 518 271 506V404Q247 408 215 408Q187 408 175 399T159 360T154 255Q154 180 158 150T174
111T215 102Q248 102 273 106V6Z" />
<glyph unicode="&#xe8;" glyph-name="egrave" horiz-adv-x="369" d="M344 216H154Q154 159 158 138T176 109T226 102Q269 102 335 106V6Q311 0 272 -4T195 -8Q116 -8 80 19T35 98T25 254Q25 357 35 410T80 490T190 518Q265 518 297 493T336 417T344 254V216ZM173
408T166 402T157 375T154 303H224V306Q224 356 222 376T213 402T190 408Q173 408 166 402ZM144 596L88 738V743H214L250 601V596H144Z" />
<glyph unicode="&#xe9;" glyph-name="eacute" horiz-adv-x="369" d="M344 216H154Q154 159 158 138T176 109T226 102Q269 102 335 106V6Q311 0 272 -4T195 -8Q116 -8 80 19T35 98T25 254Q25 357 35 410T80 490T190 518Q265 518 297 493T336 417T344 254V216ZM173
408T166 402T157 375T154 303H224V306Q224 356 222 376T213 402T190 408Q173 408 166 402ZM139 596V601L175 743H301V738L245 596H139Z" />
<glyph unicode="&#xea;" glyph-name="ecircumflex" horiz-adv-x="369" d="M344 216H154Q154 159 158 138T176 109T226 102Q269 102 335 106V6Q311 0 272 -4T195 -8Q116 -8 80 19T35 98T25 254Q25 357 35 410T80 490T190 518Q265 518 297 493T336 417T344 254V216ZM173
408T166 402T157 375T154 303H224V306Q224 356 222 376T213 402T190 408Q173 408 166 402ZM62 618V626L129 743H257L325 626V618H236L193 681L151 618H62Z" />
<glyph unicode="&#xeb;" glyph-name="edieresis" horiz-adv-x="369" d="M344 216H154Q154 159 158 138T176 109T226 102Q269 102 335 106V6Q311 0 272 -4T195 -8Q116 -8 80 19T35 98T25 254Q25 357 35 410T80 490T190 518Q265 518 297 493T336 417T344 254V216ZM173
408T166 402T157 375T154 303H224V306Q224 356 222 376T213 402T190 408Q173 408 166 402ZM55 626V730H166V626H55ZM218 626V730H329V626H218Z" />
<glyph unicode="&#xec;" glyph-name="igrave" horiz-adv-x="198" d="M34 0V510H163V0H34ZM57 596L1 738V743H127L163 601V596H57Z" />
<glyph unicode="&#xed;" glyph-name="iacute" horiz-adv-x="198" d="M34 0V510H163V0H34ZM34 596V601L70 743H196V738L140 596H34Z" />
<glyph unicode="&#xee;" glyph-name="icircumflex" horiz-adv-x="198" d="M34 0V510H163V0H34ZM223 618V626L290 743H418L486 626V618H397L354 681L312 618H223Z" />
<glyph unicode="&#xef;" glyph-name="idieresis" horiz-adv-x="198" d="M34 0V510H163V0H34ZM218 626V730H329V626H218ZM381 626V730H492V626H381Z" />
<glyph unicode="&#xf0;" glyph-name="eth" horiz-adv-x="381" d="M114 -8T80 15T35 90T25 254Q25 351 33 406T68 489T148 518Q180 518 201 509L204 512Q196 554 179 602L100 590V665L148 672Q131 704 108 739V743H237Q255 719 271 690L348 702V627L302 620Q327
556 343 454Q355 377 355 255Q355 142 346 90T302 15T191 -8Q114 -8 80 15ZM209 102T216 110T224 146T226 255Q226 334 225 361T216 398T190 408Q171 408 165 400T156 363T154 255Q154 176 156 148T164 111T190 102Q209 102 216 110Z" />
<glyph unicode="&#xf1;" glyph-name="ntilde" horiz-adv-x="393" d="M231 279Q231 342 229 365T221 395T198 401Q180 401 174 392T165 354T163 254V0H34V510H158L162 451H170Q190 518 265 518Q306 518 326 501T353 447T360 343V0H231V279ZM339 692T336 667T318
628T270 613Q242 613 193 628Q186 630 173 634T150 639Q140 639 138 632T136 602H58Q58 652 62 677T81 717T129 731Q158 731 205 716Q237 707 248 707Q258 707 260 714T262 743H339Q339 692 336 667Z" />
<glyph unicode="&#xf2;" glyph-name="ograve" horiz-adv-x="381" d="M114 -8T80 14T36 88T25 255Q25 369 35 421T80 496T190 518Q267 518 301 496T345 422T355 255Q355 140 345 88T301 14T190 -8Q114 -8 80 14ZM209 102T215 110T224 147T226 255Q226 335 224 363T216
399T190 408Q172 408 165 400T156 362T154 255Q154 177 156 148T165 111T190 102Q209 102 215 110ZM140 596L84 738V743H210L246 601V596H140Z" />
<glyph unicode="&#xf3;" glyph-name="oacute" horiz-adv-x="381" d="M114 -8T80 14T36 88T25 255Q25 369 35 421T80 496T190 518Q267 518 301 496T345 422T355 255Q355 140 345 88T301 14T190 -8Q114 -8 80 14ZM209 102T215 110T224 147T226 255Q226 335 224 363T216
399T190 408Q172 408 165 400T156 362T154 255Q154 177 156 148T165 111T190 102Q209 102 215 110ZM130 596V601L166 743H292V738L236 596H130Z" />
<glyph unicode="&#xf4;" glyph-name="ocircumflex" horiz-adv-x="381" d="M114 -8T80 14T36 88T25 255Q25 369 35 421T80 496T190 518Q267 518 301 496T345 422T355 255Q355 140 345 88T301 14T190 -8Q114 -8 80 14ZM209 102T215 110T224 147T226 255Q226 335
224 363T216 399T190 408Q172 408 165 400T156 362T154 255Q154 177 156 148T165 111T190 102Q209 102 215 110ZM60 618V626L127 743H255L323 626V618H234L191 681L149 618H60Z" />
<glyph unicode="&#xf5;" glyph-name="otilde" horiz-adv-x="381" d="M114 -8T80 14T36 88T25 255Q25 369 35 421T80 496T190 518Q267 518 301 496T345 422T355 255Q355 140 345 88T301 14T190 -8Q114 -8 80 14ZM209 102T215 110T224 147T226 255Q226 335 224 363T216
399T190 408Q172 408 165 400T156 362T154 255Q154 177 156 148T165 111T190 102Q209 102 215 110ZM332 692T329 667T311 628T263 613Q235 613 186 628Q179 630 166 634T143 639Q133 639 131 632T129 602H51Q51 652 55 677T74 717T122 731Q151 731 198 716Q230
707 241 707Q251 707 253 714T255 743H332Q332 692 329 667Z" />
<glyph unicode="&#xf6;" glyph-name="odieresis" horiz-adv-x="381" d="M114 -8T80 14T36 88T25 255Q25 369 35 421T80 496T190 518Q267 518 301 496T345 422T355 255Q355 140 345 88T301 14T190 -8Q114 -8 80 14ZM209 102T215 110T224 147T226 255Q226 335 224
363T216 399T190 408Q172 408 165 400T156 362T154 255Q154 177 156 148T165 111T190 102Q209 102 215 110ZM55 626V730H166V626H55ZM218 626V730H329V626H218Z" />
<glyph unicode="&#xf7;" glyph-name="divide" horiz-adv-x="443" d="M165 363V457H279V363H165ZM51 196V310H393V196H51ZM165 50V144H279V50H165Z" />
<glyph unicode="&#xf8;" glyph-name="oslash" horiz-adv-x="381" d="M57 36Q37 63 31 112T25 255Q25 369 35 421T80 496T190 518Q208 518 223 515L240 565H355L324 474Q343 447 349 398T355 255Q355 140 345 88T301 14T190 -8Q172 -8 158 -5L141 -55H25L57 36ZM209
102T215 110T224 147T226 255Q226 335 224 363T216 399T190 408Q172 408 165 400T156 362T154 255Q154 177 156 148T165 111T190 102Q209 102 215 110Z" />
<glyph unicode="&#xf9;" glyph-name="ugrave" horiz-adv-x="393" d="M231 59H222Q203 -8 128 -8Q87 -8 67 9T39 63T32 167V510H161V231Q161 168 163 145T171 115T194 109Q212 109 219 118T227 155T229 256V510H358V0H235L231 59ZM148 596L92 738V743H218L254 601V596H148Z"
/>
<glyph unicode="&#xfa;" glyph-name="uacute" horiz-adv-x="393" d="M231 59H222Q203 -8 128 -8Q87 -8 67 9T39 63T32 167V510H161V231Q161 168 163 145T171 115T194 109Q212 109 219 118T227 155T229 256V510H358V0H235L231 59ZM138 596V601L174 743H300V738L244
596H138Z" />
<glyph unicode="&#xfb;" glyph-name="ucircumflex" horiz-adv-x="393" d="M231 59H222Q203 -8 128 -8Q87 -8 67 9T39 63T32 167V510H161V231Q161 168 163 145T171 115T194 109Q212 109 219 118T227 155T229 256V510H358V0H235L231 59ZM64 618V626L131 743H259L327
626V618H238L195 681L153 618H64Z" />
<glyph unicode="&#xfc;" glyph-name="udieresis" horiz-adv-x="393" d="M231 59H222Q203 -8 128 -8Q87 -8 67 9T39 63T32 167V510H161V231Q161 168 163 145T171 115T194 109Q212 109 219 118T227 155T229 256V510H358V0H235L231 59ZM59 626V730H170V626H59ZM222
626V730H333V626H222Z" />
<glyph unicode="&#xfd;" glyph-name="yacute" horiz-adv-x="393" d="M112 -205T57 -195V-94Q89 -95 156 -95Q193 -95 207 -88T225 -59T229 20V70H221Q201 4 127 4Q87 4 67 21T39 75T32 180V510H161V242Q161 179 163 156T171 127T194 121Q212 121 219 130T227 167T229
268V510H358V59Q358 -45 349 -97T303 -177T187 -205Q112 -205 57 -195ZM139 596V601L175 743H301V738L245 596H139Z" />
<glyph unicode="&#xfe;" glyph-name="thorn" horiz-adv-x="390" d="M34 743H163V453H172Q179 487 201 502T254 518Q298 518 321 496T355 418T365 255Q365 152 356 96T324 16T256 -8Q188 -8 172 54H163V-189H34V743ZM218 109T225 116T234 152T236 255Q236 330 234
358T225 393T200 401Q184 401 177 394T166 361Q163 330 163 255Q163 186 165 154Q169 125 176 117T200 109Q218 109 225 116Z" />
<glyph unicode="&#xff;" glyph-name="ydieresis" horiz-adv-x="393" d="M112 -205T57 -195V-94Q89 -95 156 -95Q193 -95 207 -88T225 -59T229 20V70H221Q201 4 127 4Q87 4 67 21T39 75T32 180V510H161V242Q161 179 163 156T171 127T194 121Q212 121 219 130T227
167T229 268V510H358V59Q358 -45 349 -97T303 -177T187 -205Q112 -205 57 -195ZM60 626V730H171V626H60ZM223 626V730H334V626H223Z" />
<glyph unicode="&#x2013;" glyph-name="endash" horiz-adv-x="436" d="M40 249V361H395V249H40Z" />
<glyph unicode="&#x2014;" glyph-name="emdash" horiz-adv-x="791" d="M40 249V361H751V249H40Z" />
<glyph unicode="&#x2018;" glyph-name="quoteleft" horiz-adv-x="223" d="M45 505Q45 582 54 619T90 672T178 688V630Q147 630 138 615T128 556V542H178V418H45V505Z" />
<glyph unicode="&#x2019;" glyph-name="quoteright" horiz-adv-x="223" d="M75 476T84 491T94 550V563H45V688H177V601Q177 524 168 487T132 434T45 418V476Q75 476 84 491Z" />
<glyph unicode="&#x201a;" glyph-name="quotesinglbase" horiz-adv-x="222" d="M76 -88T85 -73T95 -14V0H45V125H178V37Q178 -39 169 -76T133 -130T45 -146V-88Q76 -88 85 -73Z" />
<glyph unicode="&#x201c;" glyph-name="quotedblleft" horiz-adv-x="403" d="M45 505Q45 582 54 619T90 672T178 688V630Q147 630 138 615T128 556V542H178V418H45V505ZM226 505Q226 582 235 619T271 672T358 688V630Q328 630 319 615T309 556V542H358V418H226V505Z" />
<glyph unicode="&#x201d;" glyph-name="quotedblright" horiz-adv-x="403" d="M75 476T84 491T94 550V563H45V688H177V601Q177 524 168 487T132 434T45 418V476Q75 476 84 491ZM256 476T265 491T275 550V563H225V688H358V601Q358 524 349 487T313 434T225 418V476Q256
476 265 491Z" />
<glyph unicode="&#x201e;" glyph-name="quotedblbase" horiz-adv-x="403" d="M76 -88T85 -73T95 -14V0H45V125H178V37Q178 -39 169 -76T133 -130T45 -146V-88Q76 -88 85 -73ZM256 -88T265 -73T275 -14V0H226V125H358V37Q358 -39 349 -76T313 -130T226 -146V-88Q256
-88 265 -73Z" />
<glyph unicode="&#x2022;" glyph-name="bullet" horiz-adv-x="250" d="M220 298T215 281T191 257T123 250Q77 250 59 256T36 280T31 342Q31 388 36 406T59 431T123 438Q171 438 190 432T215 407T220 342Q220 298 215 281Z" />
<glyph unicode="&#x2039;" glyph-name="guilsinglleft" horiz-adv-x="232" d="M102 131L35 320L102 510H196L146 320L196 131H102Z" />
<glyph unicode="&#x203a;" glyph-name="guilsinglright" horiz-adv-x="232" d="M35 131L85 320L35 510H129L196 320L129 131H35Z" />
</font>
</defs>
</svg>
