<?xml version="1.0" standalone="no"?>
<!DOCTYPE svg PUBLIC "-//W3C//DTD SVG 1.1//EN" "http://www.w3.org/Graphics/SVG/1.1/DTD/svg11.dtd">
<svg xmlns="http://www.w3.org/2000/svg">
<defs >
<font id="Montserrat" horiz-adv-x="625" ><font-face
    font-family="Montserrat SemiBold"
    units-per-em="1000"
    panose-1="0 0 7 0 0 0 0 0 0 0"
    ascent="968"
    descent="-251"
    alphabetic="0" />
<glyph unicode=" " glyph-name="space" horiz-adv-x="234" />
<glyph unicode="!" glyph-name="exclam" horiz-adv-x="243" d="M286 695L251 518L169 236H74L105 518L140 695H286ZM131 150T150 131T169 79Q169 41 145 16T85 -9Q54 -9 35 11T15 63Q15 101 39 125T99 150Q131 150 150 131Z" />
<glyph unicode="&quot;" glyph-name="quotedbl" horiz-adv-x="414" d="M262 700L210 434H94L146 700H262ZM440 700L388 434H272L324 700H440Z" />
<glyph unicode="#" glyph-name="numbersign" horiz-adv-x="692" d="M703 422H564L532 271H668L646 160H509L475 0H364L398 160H245L211 0H101L135 160H-2L20 271H158L190 422H54L75 533H213L248 700H360L324 533H477L512 700H623L588 533H724L703 422ZM421 271L453
422H301L269 271H421Z" />
<glyph unicode="$" glyph-name="dollar" horiz-adv-x="627" d="M244 476T275 459T373 421Q439 400 480 381T552 325T582 229Q582 159 547 107T449 27T309 -5L281 -150H166L196 3Q136 15 82 41T-13 106L63 234Q111 187 177 158T300 129Q351 129 381 148T411 203Q411
237 379 255T279 292Q213 311 173 329T103 382T73 476Q73 541 106 591T198 672T336 706L362 845H478L450 699Q548 683 624 631L550 500Q499 532 441 551T340 571Q296 571 270 556T244 509Q244 476 275 459Z" />
<glyph unicode="%" glyph-name="percent" horiz-adv-x="1135" d="M175 277T129 328T83 467Q83 540 110 594T185 677T298 707Q379 707 424 657T470 518Q470 445 444 391T369 307T256 277Q175 277 129 328ZM313 364T342 404T371 512Q371 563 350 592T290 621Q241
621 212 581T183 473Q183 422 204 393T264 364Q313 364 342 404ZM385 0H276L781 700H889L385 0ZM789 -7T743 44T697 183Q697 256 724 310T799 393T912 423Q993 423 1038 373T1084 234Q1084 161 1058 107T983 23T870 -7Q789 -7 743 44ZM927 80T956 120T985 228Q985
279 964 308T904 337Q855 337 826 297T797 189Q797 138 818 109T878 80Q927 80 956 120Z" />
<glyph unicode="&amp;" glyph-name="ampersand" horiz-adv-x="686" d="M551 -24L466 73Q364 -7 254 -7Q193 -7 145 16T69 80T41 173Q41 247 86 297T212 390Q172 460 172 515Q172 572 198 615T272 683T383 707Q463 707 512 668T561 567Q561 515 535 476T468 411T367
355Q409 300 467 235Q507 287 539 357L629 276Q592 206 544 148L594 93L635 48L551 -24ZM290 486T312 440Q375 471 407 500T440 568Q440 591 426 604T385 617Q344 617 317 588T290 516Q290 486 312 440ZM325 105T391 157Q305 259 268 307Q220 281 194 252T167 184Q167
149 193 127T260 105Q325 105 391 157Z" />
<glyph unicode="&apos;" glyph-name="quotesingle" horiz-adv-x="237" d="M262 700L210 434H94L146 700H262Z" />
<glyph unicode="(" glyph-name="parenleft" horiz-adv-x="338" d="M351 646T297 533T217 296Q200 214 200 127Q200 -19 248 -124H118Q60 -2 60 152Q60 238 77 322Q101 441 154 550T286 742H426Q351 646 297 533Z" />
<glyph unicode=")" glyph-name="parenright" horiz-adv-x="355" d="M69 -29T123 84T203 321Q220 403 220 490Q220 636 172 741H302Q360 619 360 465Q360 379 343 295Q319 176 266 67T134 -125H-6Q69 -29 123 84Z" />
<glyph unicode="*" glyph-name="asterisk" horiz-adv-x="387" d="M373 437L288 487L290 390H212L214 488L129 438L90 507L176 555L90 602L129 673L213 622L212 720H290L289 622L373 672L411 602L325 555L411 507L373 437Z" />
<glyph unicode="+" glyph-name="plus" horiz-adv-x="506" d="M494 377L474 275H303L270 105H171L205 275H35L54 377H225L259 547H357L324 377H494Z" />
<glyph unicode="," glyph-name="comma" horiz-adv-x="223" d="M104 149T124 130T144 79Q144 60 137 45T117 9L36 -118H-39L19 8Q-8 26 -8 63Q-8 101 15 125T75 149Q104 149 124 130Z" />
<glyph unicode="-" glyph-name="hyphen" horiz-adv-x="373" d="M333 357L313 255H55L75 357H333Z" />
<glyph unicode="." glyph-name="period" horiz-adv-x="238" d="M118 150T137 131T156 79Q156 41 132 16T72 -9Q41 -9 22 11T2 63Q2 101 26 125T86 150Q118 150 137 131Z" />
<glyph unicode="/" glyph-name="slash" horiz-adv-x="357" d="M450 812L68 -112H-61L321 812H450Z" />
<glyph unicode="0" glyph-name="zero" horiz-adv-x="751" d="M583 706T646 638T709 441Q709 308 663 207T530 50T323 -6Q202 -6 138 63T74 260Q74 394 120 494T253 650T462 706Q583 706 646 638ZM340 585T288 503T235 260Q235 115 346 115Q444 115 496 198T548
441Q548 514 521 549T439 585Q340 585 288 503Z" />
<glyph unicode="1" glyph-name="one" horiz-adv-x="436" d="M117 700H416L280 0H122L232 566H92L117 700Z" />
<glyph unicode="2" glyph-name="two" horiz-adv-x="639" d="M607 482T561 423T432 294L239 132H559L534 0H8L28 109L340 376Q383 412 410 446T442 506Q443 510 443 518Q443 544 421 558T359 573Q315 573 259 550T148 486L108 604Q267 707 407 707Q502 707 558
667T614 558Q614 544 613 537Q607 482 561 423Z" />
<glyph unicode="3" glyph-name="three" horiz-adv-x="640" d="M618 606L379 416L414 411Q491 401 536 359T581 251Q581 178 539 119T422 27T252 -7Q179 -7 111 15T0 75L82 192Q119 156 165 137T263 118Q338 118 381 150T424 234Q424 273 393 293T302 314H190L206
404L414 573H134L157 701H636L618 606Z" />
<glyph unicode="4" glyph-name="four" horiz-adv-x="647" d="M613 285L589 158H493L462 0H316L347 158H21L42 269L340 700H491L210 285H372L402 440H548L518 285H613Z" />
<glyph unicode="5" glyph-name="five" horiz-adv-x="658" d="M312 568L288 445H365Q472 445 534 396T596 265Q596 188 554 126T436 29T265 -7Q197 -7 129 16T12 78L94 196Q131 160 177 140T272 120Q340 120 381 153T422 239Q422 276 393 296T306 317Q269 317 208
316T116 311L191 700H651L627 568H312Z" />
<glyph unicode="6" glyph-name="six" horiz-adv-x="673" d="M194 -7T132 63T70 256Q70 384 121 487T263 648T464 707Q521 707 577 692T672 651L591 539Q565 560 528 571T451 583Q363 583 308 528T236 374Q270 415 318 436T427 458Q514 458 563 409T612 277Q612
194 573 130T464 29T307 -7Q194 -7 132 63ZM387 122T426 158T466 255Q466 295 442 318T372 341Q312 341 273 307T227 223Q225 211 225 205Q225 169 250 146T324 122Q387 122 426 158Z" />
<glyph unicode="7" glyph-name="seven" horiz-adv-x="630" d="M131 700H680L659 587L268 0H101L478 568H247L227 470H87L131 700Z" />
<glyph unicode="8" glyph-name="eight" horiz-adv-x="668" d="M517 707T572 665T628 550Q628 494 595 448T505 374Q549 355 574 316T600 227Q600 158 560 105T447 23T280 -7Q167 -7 104 39T40 164Q40 234 87 290T212 374Q178 394 159 428T140 501Q140 561 175
608T273 681T418 707Q517 707 572 665ZM339 598T305 571T270 496Q270 463 294 445T364 427Q424 427 458 454T492 528Q492 562 468 580T398 598Q339 598 305 571ZM272 308T232 277T192 193Q192 154 220 133T303 112Q373 112 413 143T453 228Q453 266 425 287T342
308Q272 308 232 277Z" />
<glyph unicode="9" glyph-name="nine" horiz-adv-x="671" d="M140 140T176 129T253 117Q340 117 395 173T468 327Q434 286 386 264T278 242Q191 242 143 291T94 424Q94 507 133 571T242 671T398 707Q510 707 571 638T633 445Q633 317 582 214T441 52T239 -7Q184
-7 128 8T33 50L114 162Q140 140 176 129ZM317 579T278 542T239 445Q239 405 263 383T332 360Q392 360 431 394T477 478Q478 484 478 495Q478 531 454 555T380 579Q317 579 278 542Z" />
<glyph unicode=":" glyph-name="colon" horiz-adv-x="239" d="M178 447T197 428T216 376Q216 338 192 313T132 288Q101 288 82 308T62 360Q62 398 86 422T146 447Q178 447 197 428ZM119 150T138 131T157 79Q157 41 133 16T73 -9Q42 -9 23 11T3 63Q3 101 27 125T87
150Q119 150 138 131Z" />
<glyph unicode=";" glyph-name="semicolon" horiz-adv-x="226" d="M168 447T187 428T206 376Q206 338 182 313T122 288Q91 288 72 308T52 360Q52 398 76 422T136 447Q168 447 187 428ZM105 149T125 130T145 79Q145 60 138 45T118 9L37 -118H-38L20 8Q-7 26 -7
63Q-7 101 16 125T76 149Q105 149 125 130Z" />
<glyph unicode="&lt;" glyph-name="less" horiz-adv-x="508" d="M534 575L512 454L146 320L456 181L436 74L35 260L58 390L534 575Z" />
<glyph unicode="=" glyph-name="equal" horiz-adv-x="506" d="M516 484L496 382H57L76 484H516ZM473 270L453 168H14L34 270H473Z" />
<glyph unicode="&gt;" glyph-name="greater" horiz-adv-x="508" d="M-1 81L21 202L387 336L77 475L97 582L498 396L475 266L-1 81Z" />
<glyph unicode="?" glyph-name="question" horiz-adv-x="462" d="M61 585T125 643T292 701Q382 701 433 659T485 542Q485 502 471 470T436 414T381 358Q341 321 321 295T297 236H181Q188 293 212 329T276 404Q309 436 324 459T340 513Q340 574 268 574Q181 574
166 480L47 481Q61 585 125 643ZM267 150T286 131T305 79Q305 41 281 16T221 -9Q190 -9 171 11T151 63Q151 101 175 125T235 150Q267 150 286 131Z" />
<glyph unicode="@" glyph-name="at" horiz-adv-x="941" d="M649 700T735 653T869 520T917 328Q917 239 886 171T803 65T686 27Q639 27 612 46T580 105V120Q546 79 503 59T411 38Q358 38 314 63T244 135T218 240Q218 310 250 371T338 469T464 506Q502 506 531 493T577
464T598 439L606 495H723L675 155Q674 150 674 142Q674 105 708 105Q735 105 761 132T805 209T823 318Q823 403 788 470T686 575T525 613Q420 613 327 561T177 419T120 227Q120 144 158 79T263 -24T418 -61Q464 -61 518 -46T616 -1L650 -78Q602 -110 533 -130T405
-150Q294 -150 208 -103T74 28T26 217Q26 348 96 459T285 635T537 700Q649 700 735 653ZM438 397T410 378T365 325T348 254Q348 207 372 176T438 145Q476 145 505 165T551 220T568 293Q568 338 542 367T472 397Q438 397 410 378Z" />
<glyph unicode="A" glyph-name="A" horiz-adv-x="759" d="M539 0L507 136H183L106 0H-57L363 700H525L709 0H539ZM256 263H478L413 540L256 263Z" />
<glyph unicode="B" glyph-name="B" horiz-adv-x="714" d="M603 360T633 322T664 227Q664 159 626 108T517 28T356 0H23L163 700H485Q588 700 646 661T704 552Q704 487 661 438T548 371Q603 360 633 322ZM472 418T503 443T534 510Q534 539 513 555T452 571H295L264
418H420Q472 418 503 443ZM426 129T463 155T501 227Q501 259 474 277T397 295H240L207 129H362Q426 129 463 155Z" />
<glyph unicode="C" glyph-name="C" horiz-adv-x="720" d="M533 711T603 680T721 594L618 481Q586 524 540 548T445 573Q382 573 328 541T241 454T209 333Q209 277 233 232T301 160T400 133Q447 133 498 155T591 216L674 115Q612 57 533 23T378 -11Q282 -11 207
32T89 150T46 320Q46 428 101 518T251 659T457 711Q533 711 603 680Z" />
<glyph unicode="D" glyph-name="D" horiz-adv-x="771" d="M544 700T618 660T730 549T763 384Q757 273 699 186T545 49T332 0H24L163 700H444Q544 700 618 660ZM601 466T552 516T421 567H296L209 133H361Q426 133 481 165T568 255T601 384Q601 466 552 516Z" />
<glyph unicode="E" glyph-name="E" horiz-adv-x="668" d="M670 569H295L264 417H602L576 286H238L207 132H592L567 0H23L163 700H696L670 569Z" />
<glyph unicode="F" glyph-name="F" horiz-adv-x="594" d="M640 569H295L261 396H576L551 265H235L182 0H23L163 700H666L640 569Z" />
<glyph unicode="G" glyph-name="G" horiz-adv-x="756" d="M581 353H718L664 81Q603 39 529 14T384 -11Q287 -11 210 32T89 150T46 319Q46 427 102 517T255 659T466 711Q544 711 616 683T737 607L636 494Q602 531 553 552T452 573Q387 573 331 541T242 453T208
330Q208 273 234 227T305 154T408 127Q470 127 544 164L581 353Z" />
<glyph unicode="H" glyph-name="H" horiz-adv-x="851" d="M670 700H828L688 0H530L585 277H268L213 0H55L195 700H353L295 408H612L670 700Z" />
<glyph unicode="I" glyph-name="I" horiz-adv-x="313" d="M322 700L182 0H23L163 700H322Z" />
<glyph unicode="J" glyph-name="J" horiz-adv-x="524" d="M546 700L451 224Q429 115 355 54T171 -7Q102 -7 50 21T-37 102L57 214Q85 176 121 156T190 136Q229 136 256 159T293 228L361 566H121L147 700H546Z" />
<glyph unicode="K" glyph-name="K" horiz-adv-x="736" d="M800 700L476 400L671 0H486L346 280L213 157L182 0H23L163 700H322L258 379L607 700H800Z" />
<glyph unicode="L" glyph-name="L" horiz-adv-x="552" d="M209 139H507L481 0H23L163 700H322L209 139Z" />
<glyph unicode="M" glyph-name="M" horiz-adv-x="941" d="M774 700H946L810 0H671L765 480L482 71H383L262 483L167 0H27L163 700H336L470 263L774 700Z" />
<glyph unicode="N" glyph-name="N" horiz-adv-x="788" d="M647 700H797L657 0H513L265 453L174 0H23L163 700H307L556 247L647 700Z" />
<glyph unicode="O" glyph-name="O" horiz-adv-x="813" d="M558 711T636 669T758 551T802 382Q802 274 746 184T595 41T388 -11Q289 -11 211 32T90 150T46 320Q46 429 102 518T253 659T460 711Q558 711 636 669ZM386 573T331 541T242 453T208 331Q208 274 234 228T304
154T403 127Q465 127 519 159T606 248T639 371Q639 428 614 474T546 546T448 573Q386 573 331 541Z" />
<glyph unicode="P" glyph-name="P" horiz-adv-x="691" d="M575 700T636 649T698 505Q698 414 657 345T540 238T361 200H222L182 0H23L163 700H460Q575 700 636 649ZM457 332T500 370T544 477Q544 522 514 545T427 569H295L248 332H379Q457 332 500 370Z" />
<glyph unicode="Q" glyph-name="Q" horiz-adv-x="816" d="M810 -85Q767 -121 712 -141T606 -162Q536 -162 481 -122T394 -11H388Q289 -11 211 32T90 150T46 320Q46 429 102 518T253 659T460 711Q558 711 636 669T758 551T802 382Q802 299 769 226T677 99T541 16Q560
-9 583 -23T631 -37Q683 -37 761 18L810 -85ZM208 274T234 228T304 154T403 127Q465 127 519 159T606 248T639 371Q639 428 614 474T546 546T448 573Q386 573 331 541T242 453T208 331Q208 274 234 228Z" />
<glyph unicode="R" glyph-name="R" horiz-adv-x="724" d="M712 406T665 335T530 228L632 0H453L382 200H367H222L182 0H23L163 700H467Q585 700 648 649T712 504Q712 406 665 335ZM248 332H393Q471 332 514 370T558 477Q558 522 528 545T442 569H295L248 332Z" />
<glyph unicode="S" glyph-name="S" horiz-adv-x="627" d="M439 713T507 692T625 636L551 505Q500 538 442 557T341 577Q298 577 272 560T246 513Q246 479 277 461T376 421Q440 401 481 382T552 326T582 229Q582 154 543 100T436 18T285 -10Q200 -10 121 20T-13
103L63 232Q111 184 177 155T300 126Q352 126 381 146T411 202Q411 226 394 242T351 269T279 293Q212 313 170 332T99 392T75 496Q78 561 116 610T219 686T367 713Q439 713 507 692Z" />
<glyph unicode="T" glyph-name="T" horiz-adv-x="601" d="M680 700L654 566H440L325 0H167L281 566H68L94 700H680Z" />
<glyph unicode="U" glyph-name="U" horiz-adv-x="760" d="M701 293Q673 154 577 74T337 -7Q210 -7 137 55T63 225Q63 259 70 293L151 700H309L228 293Q223 268 223 251Q223 195 258 163T354 131Q425 131 476 174T543 293L625 700H783L701 293Z" />
<glyph unicode="V" glyph-name="V" horiz-adv-x="716" d="M639 700H802L409 0H245L86 700H256L358 167L639 700Z" />
<glyph unicode="W" glyph-name="W" horiz-adv-x="1066" d="M998 700H1160L813 0H650L592 505L364 0H201L86 700H256L315 166L550 699L704 700L763 168L998 700Z" />
<glyph unicode="X" glyph-name="X" horiz-adv-x="729" d="M758 700L470 365L663 0H473L349 234L147 0H-37L273 358L94 700H279L389 486L572 700H758Z" />
<glyph unicode="Y" glyph-name="Y" horiz-adv-x="666" d="M755 700L422 228L385 0H227L264 228L83 700H243L368 381L596 700H755Z" />
<glyph unicode="Z" glyph-name="Z" horiz-adv-x="684" d="M708 700L691 594L225 133H620L599 0H-11L6 107L474 568H97L117 700H708Z" />
<glyph unicode="[" glyph-name="bracketleft" horiz-adv-x="348" d="M426 742L403 623H281L154 -5H276L252 -124H-7L167 742H426Z" />
<glyph unicode="\" glyph-name="backslash" horiz-adv-x="680" d="M82 812H211L593 -112H464L82 812Z" />
<glyph unicode="]" glyph-name="bracketright" horiz-adv-x="395" d="M9 -124L32 -5H154L281 623H159L183 742H442L268 -124H9Z" />
<glyph unicode="^" glyph-name="asciicircum" horiz-adv-x="563" d="M503 137H397L320 435L120 137H8L271 525H396L503 137Z" />
<glyph unicode="_" glyph-name="underscore" horiz-adv-x="578" d="M501 -116L483 -204H-94L-77 -116H501Z" />
<glyph unicode="`" glyph-name="grave" horiz-adv-x="307" d="M261 765L364 612L252 602L125 712L261 765Z" />
<glyph unicode="a" glyph-name="a" horiz-adv-x="684" d="M179 -6T131 24T55 108T28 232Q28 319 65 390T169 503T315 544Q379 544 423 518T490 440L509 538H662L555 0H402L417 68Q343 -6 242 -6Q179 -6 131 24ZM342 115T378 138T435 200T456 287Q456 344 424 378T339
412Q297 412 261 389T204 327T183 241Q183 183 215 149T300 115Q342 115 378 138Z" />
<glyph unicode="b" glyph-name="b" horiz-adv-x="690" d="M510 543T558 513T634 429T661 304Q661 218 624 147T520 34T374 -7Q310 -7 266 19T199 96L180 0H26L174 742H327L272 468Q308 504 352 523T447 543Q510 543 558 513ZM347 421T311 398T254 336T233 250Q233
193 265 159T350 124Q392 124 428 147T485 209T506 295Q506 353 474 387T389 421Q347 421 311 398Z" />
<glyph unicode="c" glyph-name="c" horiz-adv-x="582" d="M203 -6T147 24T60 111T29 240Q29 328 68 397T176 504T334 543Q411 543 468 514T556 430L445 355Q426 383 396 398T328 413Q287 413 255 393T203 335T184 251Q184 193 215 158T298 122Q382 122 429 185L528
113Q489 56 425 25T278 -6Q203 -6 147 24Z" />
<glyph unicode="d" glyph-name="d" horiz-adv-x="689" d="M179 -6T131 24T55 108T28 232Q28 319 65 390T169 503T315 544Q379 544 423 518T490 440L550 742H703L555 0H402L417 68Q343 -6 242 -6Q179 -6 131 24ZM342 115T378 138T435 200T456 287Q456 344 424 378T339
412Q297 412 261 389T204 327T183 241Q183 183 215 149T300 115Q342 115 378 138Z" />
<glyph unicode="e" glyph-name="e" horiz-adv-x="611" d="M411 543T467 514T554 431T585 306Q585 265 575 222H180Q185 170 219 142T311 113Q346 113 380 125T443 159L518 71Q432 -6 306 -6Q222 -6 160 24T63 109T29 238Q29 324 68 394T177 503T334 543Q411 543
467 514ZM446 366T419 397T340 428Q290 428 250 397T192 313H442Q446 366 419 397Z" />
<glyph unicode="f" glyph-name="f" horiz-adv-x="370" d="M370 622T345 603T313 553L305 514H432L412 407H284L202 0H49L131 407H60L80 514H153L164 571Q181 658 243 703T388 749Q448 749 498 725L457 608Q445 614 429 618T401 622Q370 622 345 603Z" />
<glyph unicode="g" glyph-name="g" horiz-adv-x="649" d="M90 -200T-15 -126L51 -24Q84 -49 126 -62T213 -75Q282 -75 325 -46T381 38L394 93Q324 28 232 28Q173 28 127 56T56 134T31 249Q31 331 66 398T164 505T301 544Q360 544 401 520T464 450L482 538H635L531
24Q509 -84 427 -142T217 -200Q90 -200 -15 -126ZM329 150T361 170T413 224T432 300Q432 351 403 381T326 412Q288 412 256 392T205 336T186 258Q186 208 214 179T291 150Q329 150 361 170Z" />
<glyph unicode="h" glyph-name="h" horiz-adv-x="678" d="M532 545T583 498T634 370Q634 340 629 317L565 0H411L470 295Q473 310 473 324Q473 364 448 387T380 411Q329 411 290 375T238 279L181 0H28L174 742H328L274 464Q338 545 445 545Q532 545 583 498Z" />
<glyph unicode="i" glyph-name="i" horiz-adv-x="302" d="M281 538L174 0H21L128 538H281ZM282 777T301 758T320 707Q320 664 290 635T218 605Q187 605 168 625T149 676Q149 719 178 748T250 777Q282 777 301 758Z" />
<glyph unicode="j" glyph-name="j" horiz-adv-x="301" d="M-92 -73T-82 -74T-68 -75Q-35 -76 -12 -54T20 8L126 538H280L167 -28Q151 -111 97 -155T-37 -200Q-93 -200 -145 -179L-101 -70Q-92 -73 -82 -74ZM275 777T294 758T313 707Q313 664 283 635T211 605Q180
605 161 625T142 676Q142 719 171 748T243 777Q275 777 294 758Z" />
<glyph unicode="k" glyph-name="k" horiz-adv-x="638" d="M678 538L424 319L569 0H387L303 214L206 131L180 0H26L174 742H328L247 338L482 538H678Z" />
<glyph unicode="l" glyph-name="l" horiz-adv-x="313" d="M328 742L180 0H26L174 742H328Z" />
<glyph unicode="m" glyph-name="m" horiz-adv-x="1056" d="M910 545T961 498T1012 371Q1012 346 1006 317L943 0H789L848 295Q851 310 851 324Q851 364 826 387T758 411Q707 411 668 375T616 279L559 0H406L464 295Q467 310 467 324Q467 364 443 387T374 411Q323
411 284 375T232 279L176 0H22L128 538H283L268 464Q334 545 439 545Q510 545 557 514T621 426Q699 545 822 545Q910 545 961 498Z" />
<glyph unicode="n" glyph-name="n" horiz-adv-x="672" d="M527 545T578 498T629 370Q629 346 623 317L559 0H406L464 295Q467 310 467 324Q467 364 443 387T374 411Q323 411 284 375T232 279L176 0H22L128 538H283L268 464Q334 545 439 545Q527 545 578 498Z" />
<glyph unicode="o" glyph-name="o" horiz-adv-x="639" d="M427 543T486 512T578 426T610 296Q610 208 569 139T456 32T292 -6Q213 -6 153 25T61 112T29 242Q29 330 70 398T183 505T347 543Q427 543 486 512ZM292 415T258 394T205 336T185 250Q185 191 217 155T304
119Q347 119 381 140T434 198T454 284Q454 343 422 379T335 415Q292 415 258 394Z" />
<glyph unicode="p" glyph-name="p" horiz-adv-x="689" d="M510 544T558 514T634 430T661 306Q661 219 623 148T520 35T374 -6Q310 -6 266 20T199 97L140 -194H-13L133 538H286L272 469Q307 505 352 524T447 544Q510 544 558 514ZM346 422T311 399T254 337T233
251Q233 194 265 160T350 125Q392 125 428 148T485 210T506 297Q506 354 474 388T389 422Q346 422 311 399Z" />
<glyph unicode="q" glyph-name="q" horiz-adv-x="688" d="M179 -6T131 24T55 108T28 232Q28 319 65 390T169 503T315 544Q379 544 423 518T490 440L509 538H662L516 -194H363L417 68Q343 -6 242 -6Q179 -6 131 24ZM342 115T378 138T435 200T456 287Q456 344 424
378T339 412Q297 412 261 389T204 327T183 241Q183 183 215 149T300 115Q342 115 378 138Z" />
<glyph unicode="r" glyph-name="r" horiz-adv-x="421" d="M300 495T349 519T456 544L438 400Q431 401 418 401Q347 401 294 361T226 258L175 0H21L128 538H282L264 448Q300 495 349 519Z" />
<glyph unicode="s" glyph-name="s" horiz-adv-x="507" d="M168 -7T98 21T-17 96L48 191Q86 154 138 131T234 107Q266 107 285 120T304 155Q304 175 283 188T219 218Q172 237 142 253T89 299T67 373Q67 423 93 462T166 522T274 544Q337 544 401 522T511 460L441
364Q399 395 355 413T276 431Q250 431 232 418T214 386Q214 367 235 354T299 324Q347 304 378 287T432 240T455 165Q455 115 428 76T353 15T242 -7Q168 -7 98 21Z" />
<glyph unicode="t" glyph-name="t" horiz-adv-x="429" d="M232 179Q229 164 229 154Q229 137 237 130T261 123Q297 123 344 145L363 28Q330 11 293 2T221 -7Q154 -7 114 28T73 125Q73 147 77 166L126 407H52L72 514H147L177 662H329L299 514H446L426 407H278L232 179Z" />
<glyph unicode="u" glyph-name="u" horiz-adv-x="672" d="M145 -7T94 40T43 168Q43 193 49 221L113 538H266L208 243Q205 228 205 214Q205 174 229 151T298 127Q349 127 388 163T440 259L496 538H650L544 0H389L404 74Q338 -7 233 -7Q145 -7 94 40Z" />
<glyph unicode="v" glyph-name="v" horiz-adv-x="556" d="M616 538L306 0H148L51 538H208L254 146L460 538H616Z" />
<glyph unicode="w" glyph-name="w" horiz-adv-x="923" d="M983 538L680 0H525L484 355L294 0H140L51 538H205L246 153L441 538H592L631 153L828 538H983Z" />
<glyph unicode="x" glyph-name="x" horiz-adv-x="589" d="M250 538L314 375L453 538H625L400 276L526 0H353L283 176L127 0H-46L196 275L76 538H250Z" />
<glyph unicode="y" glyph-name="y" horiz-adv-x="563" d="M624 538L267 -65Q227 -136 174 -168T51 -201Q7 -201 -26 -187T-91 -145L-12 -42Q14 -67 48 -67Q97 -67 138 -17L159 11L43 538H199L264 163L467 538H624Z" />
<glyph unicode="z" glyph-name="z" horiz-adv-x="549" d="M562 537L545 440L202 121H488L464 -1L-14 0L3 97L346 416L80 417L102 538L562 537Z" />
<glyph unicode="{" glyph-name="braceleft" horiz-adv-x="357" d="M267 372T244 345T176 308Q208 299 222 282T236 235Q236 219 231 191L204 59Q202 51 202 38Q202 13 220 3T281 -7L258 -126H199Q120 -126 86 -105T52 -33Q52 -16 57 11L96 201Q98 208 98 220Q98
248 66 248H30L54 370H90Q111 370 122 380T139 416L177 606Q192 682 236 712T373 743H432L408 624Q358 624 335 610T305 558L278 426Q267 372 244 345Z" />
<glyph unicode="|" glyph-name="bar" horiz-adv-x="290" d="M310 805L126 -111H11L195 805H310Z" />
<glyph unicode="}" glyph-name="braceright" horiz-adv-x="447" d="M197 246T220 273T288 310Q256 319 242 336T228 383Q228 399 233 427L260 559Q262 567 262 580Q262 605 244 615T183 625L206 744H265Q344 744 378 723T412 651Q412 634 407 607L368 417Q366
410 366 398Q366 370 398 370H434L410 248H374Q353 248 342 238T325 202L287 12Q272 -64 228 -94T91 -125H32L56 -6Q106 -6 129 8T159 60L186 192Q197 246 220 273Z" />
<glyph unicode="~" glyph-name="asciitilde" horiz-adv-x="506" d="M216 410T234 402T277 378Q293 367 302 362T322 357Q340 357 353 369T370 404H474Q457 322 423 282T335 242Q309 242 291 250T247 274Q233 284 224 289T204 294Q169 294 160 247H55Q72 330 105
370T191 410Q216 410 234 402Z" />
<glyph unicode="&#xa0;" glyph-name="uni00A0" horiz-adv-x="234" />
<glyph unicode="&#xa1;" glyph-name="exclamdown" horiz-adv-x="243" d="M130 387T111 406T92 458Q92 496 116 521T176 546Q207 546 226 526T246 474Q246 436 222 412T162 387Q130 387 111 406ZM-25 -158L10 19L92 301H187L156 19L121 -158H-25Z" />
<glyph unicode="&#xa2;" glyph-name="cent" horiz-adv-x="582" d="M382 122T429 185L528 113Q492 61 436 31T307 -5L279 -150H164L194 5Q116 28 73 89T29 240Q29 322 63 388T159 494T300 541L330 695H446L415 534Q462 522 498 496T556 430L445 355Q426 383 396
398T328 413Q287 413 255 393T203 335T184 251Q184 193 215 158T298 122Q382 122 429 185Z" />
<glyph unicode="&#xa3;" glyph-name="sterling" horiz-adv-x="554" d="M486 707T535 685T617 620L534 500Q482 569 417 569Q374 569 347 545T309 473L290 378H460L447 314H277L239 125H503L479 0H-23L1 125H80L118 314H40L53 378H131L151 476Q173 586 245 646T427
707Q486 707 535 685Z" />
<glyph unicode="&#xa4;" glyph-name="currency" horiz-adv-x="800" d="M673 247T633 183L734 82L647 -8L542 97Q480 62 409 62Q338 62 276 97L171 -8L85 82L186 183Q146 247 146 321Q146 391 183 455L85 553L171 643L272 542Q334 581 409 581Q485 581 547 542L647
643L734 553L635 454Q673 392 673 321Q673 247 633 183ZM448 187T481 205T533 254T553 321Q553 357 534 388T481 437T409 456Q371 456 338 438T286 388T267 321Q267 285 286 254T338 205T409 187Q448 187 481 205Z" />
<glyph unicode="&#xa5;" glyph-name="yen" horiz-adv-x="653" d="M755 700L487 317H628L616 253H442L422 225L418 199H606L593 135H408L386 0H228L250 135H60L73 199H260L266 236L259 253H83L96 317H235L90 700H248L373 387L596 700H755Z" />
<glyph unicode="&#xa6;" glyph-name="brokenbar" horiz-adv-x="290" d="M310 805L242 462H126L195 805H310ZM196 232L126 -111H11L80 232H196Z" />
<glyph unicode="&#xa7;" glyph-name="section" horiz-adv-x="537" d="M155 -84T86 -57T-33 18L30 110Q76 69 125 46T221 23Q254 23 275 36T296 69Q296 90 274 105T201 143Q151 165 120 183T67 229T44 298Q44 353 80 390T182 442Q150 464 135 486T120 535Q120 578
146 613T219 668T325 688Q387 688 448 667T561 607L496 516Q451 548 407 565T327 583Q296 583 278 571T259 539Q259 517 283 502T356 465Q406 443 438 425T493 377T516 308Q516 257 480 217T385 162Q439 123 439 72Q439 28 412 -7T336 -63T227 -84Q155 -84 86 -57ZM334
247T353 260T372 296Q372 322 338 340T255 359Q221 359 203 347T184 312Q184 285 218 266T300 247Q334 247 353 260Z" />
<glyph unicode="&#xa8;" glyph-name="dieresis" horiz-adv-x="479" d="M270 758T285 742T301 699Q301 665 276 640T216 614Q190 614 174 631T158 674Q158 710 183 734T243 758Q270 758 285 742ZM456 758T471 742T487 699Q487 665 462 640T402 614Q376 614 360
631T344 674Q344 710 369 734T430 758Q456 758 471 742Z" />
<glyph unicode="&#xa9;" glyph-name="copyright" horiz-adv-x="745" d="M482 689T559 644T682 520T727 350Q727 259 682 181T559 56T387 9Q294 9 217 55T95 179T50 348Q50 439 95 517T217 642T389 689Q482 689 559 644ZM315 614T254 578T158 481T122 348Q122 276
157 216T252 120T387 84Q461 84 522 120T619 217T655 350Q655 422 620 482T524 578T389 614Q315 614 254 578ZM431 516T466 502T526 461L483 408Q465 428 442 439T396 451Q353 451 324 422T294 350Q294 307 323 278T396 248Q418 248 441 258T483 287L526 239Q499
212 464 196T392 180Q343 180 304 202T241 263T218 349Q218 396 241 434T304 494T395 516Q431 516 466 502Z" />
<glyph unicode="&#xaa;" glyph-name="ordfeminine" horiz-adv-x="391" d="M359 783T394 759T430 691Q430 675 428 667L387 458H282L290 500Q249 453 187 453Q140 453 111 477T81 538Q81 552 83 559Q92 603 128 624T230 647H320L321 654Q322 658 322 665Q322 704
255 704Q216 704 153 678L142 749Q226 783 291 783Q359 783 394 759ZM271 522T302 559L309 596H242Q214 596 199 585T183 552Q183 538 194 530T224 522Q271 522 302 559Z" />
<glyph unicode="&#xab;" glyph-name="guillemotleft" horiz-adv-x="488" d="M288 446L139 260L217 83H91L8 265L163 446H288ZM496 446L347 260L425 83H299L216 265L371 446H496Z" />
<glyph unicode="&#xac;" glyph-name="logicalnot" horiz-adv-x="580" d="M535 421L516 319H515L480 139H368L404 319H44L64 421H535Z" />
<glyph unicode="&#xad;" glyph-name="uni00AD" horiz-adv-x="373" d="M333 357L313 255H55L75 357H333Z" />
<glyph unicode="&#xae;" glyph-name="registered" horiz-adv-x="745" d="M482 689T559 644T682 520T727 350Q727 259 682 181T559 56T387 9Q294 9 217 55T95 179T50 348Q50 439 95 517T217 642T389 689Q482 689 559 644ZM461 84T522 120T619 217T655 350Q655 422
620 482T524 578T389 614Q315 614 254 578T158 481T122 348Q122 276 157 216T252 120T387 84Q461 84 522 120ZM532 372T516 345T469 305L540 197H458L405 291H397H332V197H260V522H397Q461 522 496 493T532 410Q532 372 516 345ZM332 349H397Q429 349 446 364T463
407Q463 435 446 449T397 464H332V349Z" />
<glyph unicode="&#xaf;" glyph-name="overscore" horiz-adv-x="464" d="M173 735H477L459 641H155L173 735Z" />
<glyph unicode="&#xb0;" glyph-name="degree" horiz-adv-x="371" d="M338 815T372 781T407 698Q407 650 373 616T289 581Q240 581 206 615T171 698Q171 746 205 780T289 815Q338 815 372 781ZM265 752T249 737T232 698Q232 675 248 660T289 644Q312 644 329 660T346
698Q346 720 329 736T289 752Q265 752 249 737Z" />
<glyph unicode="&#xb1;" glyph-name="plusminus" horiz-adv-x="575" d="M185 185L219 349H49L68 448H239L273 612H371L338 448H508L488 349H317L284 185H185ZM49 6L69 108H508L489 6H49Z" />
<glyph unicode="&#xb2;" glyph-name="uni00B2" horiz-adv-x="393" d="M206 444H398L383 360H63L71 431L258 587Q313 635 313 662Q313 696 267 696Q215 696 140 644L107 721Q202 783 288 783Q346 783 381 754T416 677Q416 609 314 529L206 444Z" />
<glyph unicode="&#xb3;" glyph-name="uni00B3" horiz-adv-x="381" d="M416 715L285 608L300 606Q343 600 367 573T391 508Q391 464 367 429T299 373T203 353Q159 354 118 368T49 405L99 478Q147 433 204 433Q242 433 266 452T290 503Q290 542 232 542H159L169
600L289 697H130L144 776H426L416 715Z" />
<glyph unicode="&#xb4;" glyph-name="acute" horiz-adv-x="343" d="M230 765L366 712L230 602L119 612L230 765Z" />
<glyph unicode="&#xb5;" glyph-name="uni00B5" horiz-adv-x="693" d="M671 538L565 0H411L425 73Q360 -7 254 -7Q218 -7 181 3L142 -194H-12L67 201L70 220L134 538H288L229 242Q226 227 226 213Q226 173 250 150T319 127Q370 127 409 163T461 258L517 538H671Z" />
<glyph unicode="&#xb6;" glyph-name="paragraph" horiz-adv-x="639" d="M486 -107H371L523 651H412L260 -107H146L235 333H207Q119 333 82 377T44 486Q44 508 49 533Q60 589 94 636T187 713T327 742H656L486 -107Z" />
<glyph unicode="&#xb7;" glyph-name="middot" horiz-adv-x="236" d="M202 375T221 356T240 305Q240 262 210 233T138 203Q107 203 88 223T69 274Q69 317 98 346T170 375Q202 375 221 356Z" />
<glyph unicode="&#xb8;" glyph-name="cedilla" horiz-adv-x="343" d="M175 0L146 -52Q181 -60 197 -78T214 -122Q214 -174 172 -201T69 -229Q14 -229 -34 -208L8 -128Q32 -139 60 -139Q79 -139 92 -132T105 -113Q105 -103 92 -97T57 -91H31L82 9L175 0Z" />
<glyph unicode="&#xb9;" glyph-name="uni00B9" horiz-adv-x="273" d="M114 776H304L221 360H112L177 689H97L114 776Z" />
<glyph unicode="&#xba;" glyph-name="ordmasculine" horiz-adv-x="415" d="M370 782T415 742T461 634Q461 581 436 541T365 478T261 455Q185 455 140 495T95 603Q95 656 120 696T190 759T293 782Q370 782 415 742ZM249 698T226 673T202 608Q202 576 220 557T269
537Q305 537 328 562T352 627Q352 660 334 679T285 698Q249 698 226 673Z" />
<glyph unicode="&#xbb;" glyph-name="guillemotright" horiz-adv-x="495" d="M13 83L162 269L84 446H210L293 264L138 83H13ZM221 83L370 269L292 446H418L501 264L346 83H221Z" />
<glyph unicode="&#xbc;" glyph-name="onequarter" horiz-adv-x="882" d="M99 700H289L206 284H97L162 613H82L99 700ZM194 0H85L590 700H698L194 0ZM845 169L831 90H770L752 0H655L673 90H467L480 164L667 416H769L589 169H690L708 261H805L787 169H845Z" />
<glyph unicode="&#xbd;" glyph-name="onehalf" horiz-adv-x="872" d="M99 700H289L206 284H97L162 613H82L99 700ZM194 0H85L590 700H698L194 0ZM614 84H806L791 0H471L479 71L666 227Q721 275 721 302Q721 336 675 336Q623 336 548 284L515 361Q610 423 696 423Q754
423 789 394T824 317Q824 249 722 169L614 84Z" />
<glyph unicode="&#xbe;" glyph-name="threequarters" horiz-adv-x="990" d="M401 639L270 532L285 530Q328 524 352 497T376 432Q376 388 352 353T284 297T188 277Q144 278 103 292T34 329L84 402Q132 357 189 357Q227 357 251 376T275 427Q275 466 217 466H144L154
524L274 621H115L129 700H411L401 639ZM302 0H193L698 700H806L302 0ZM953 169L939 90H878L860 0H763L781 90H575L588 164L775 416H877L697 169H798L816 261H913L895 169H953Z" />
<glyph unicode="&#xbf;" glyph-name="questiondown" horiz-adv-x="461" d="M194 387T175 406T156 458Q156 496 180 521T240 546Q271 546 290 526T310 474Q310 436 286 412T226 387Q194 387 175 406ZM400 -48T336 -106T169 -164Q79 -164 28 -122T-24 -5Q-24 35
-10 67T25 123T80 179Q120 216 140 242T164 301H280Q273 244 249 208T185 133Q152 101 137 78T121 24Q121 -37 193 -37Q280 -37 295 57L414 56Q400 -48 336 -106Z" />
<glyph unicode="&#xc0;" glyph-name="Agrave" horiz-adv-x="759" d="M539 0L507 136H183L106 0H-57L363 700H525L709 0H539ZM256 263H478L413 540L256 263ZM436 916L539 763L427 753L300 863L436 916Z" />
<glyph unicode="&#xc1;" glyph-name="Aacute" horiz-adv-x="759" d="M539 0L507 136H183L106 0H-57L363 700H525L709 0H539ZM256 263H478L413 540L256 263ZM484 916L620 863L484 753L373 763L484 916Z" />
<glyph unicode="&#xc2;" glyph-name="Acircumflex" horiz-adv-x="759" d="M539 0L507 136H183L106 0H-57L363 700H525L709 0H539ZM256 263H478L413 540L256 263ZM630 759H508L463 824L393 759H272L408 907H550L630 759Z" />
<glyph unicode="&#xc3;" glyph-name="Atilde" horiz-adv-x="759" d="M539 0L507 136H183L106 0H-57L363 700H525L709 0H539ZM256 263H478L413 540L256 263ZM639 832T611 794T533 755Q511 755 492 762T450 784Q439 791 428 796T409 801Q381 801 373 758H281Q309
908 402 908Q425 908 444 900T486 878Q514 861 526 861Q541 861 549 872T562 904H653Q639 832 611 794Z" />
<glyph unicode="&#xc4;" glyph-name="Adieresis" horiz-adv-x="759" d="M539 0L507 136H183L106 0H-57L363 700H525L709 0H539ZM256 263H478L413 540L256 263ZM411 900T426 884T442 841Q442 807 417 782T357 756Q331 756 315 773T299 816Q299 852 324 876T384
900Q411 900 426 884ZM597 900T612 884T628 841Q628 807 603 782T543 756Q517 756 501 773T485 816Q485 852 510 876T571 900Q597 900 612 884Z" />
<glyph unicode="&#xc5;" glyph-name="Aring" horiz-adv-x="759" d="M539 0L507 136H183L106 0H-57L363 700H525L709 0H539ZM256 263H478L413 540L256 263ZM525 970T554 941T583 868Q583 834 565 804T518 757T454 739Q409 739 381 768T352 840Q352 874 370 904T418
952T481 970Q525 970 554 941ZM452 899T437 884T421 848Q421 831 432 820T462 809Q482 809 498 824T514 860Q514 877 503 888T473 899Q452 899 437 884Z" />
<glyph unicode="&#xc6;" glyph-name="AE" horiz-adv-x="1086" d="M1089 569H714L682 417H1020L995 286H657L625 132H1010L985 0H442L473 154H225L110 0H-57L484 700H1114L1089 569ZM314 274H497L557 574H538L314 274Z" />
<glyph unicode="&#xc7;" glyph-name="Ccedilla" horiz-adv-x="720" d="M618 62T548 29T407 -10L383 -52Q418 -60 434 -78T451 -122Q451 -174 409 -201T306 -229Q251 -229 203 -208L245 -128Q269 -139 297 -139Q316 -139 329 -132T342 -113Q342 -103 329 -97T294
-91H268L312 -5Q233 9 173 54T80 168T46 320Q46 428 101 518T251 659T457 711Q533 711 603 680T721 594L618 481Q586 524 540 548T445 573Q382 573 328 541T241 454T209 333Q209 277 233 232T301 160T400 133Q447 133 498 155T591 216L674 115Q618 62 548 29Z"
/>
<glyph unicode="&#xc8;" glyph-name="Egrave" horiz-adv-x="668" d="M670 569H295L264 417H602L576 286H238L207 132H592L567 0H23L163 700H696L670 569ZM437 916L540 763L428 753L301 863L437 916Z" />
<glyph unicode="&#xc9;" glyph-name="Eacute" horiz-adv-x="668" d="M670 569H295L264 417H602L576 286H238L207 132H592L567 0H23L163 700H696L670 569ZM485 916L621 863L485 753L374 763L485 916Z" />
<glyph unicode="&#xca;" glyph-name="Ecircumflex" horiz-adv-x="668" d="M670 569H295L264 417H602L576 286H238L207 132H592L567 0H23L163 700H696L670 569ZM631 759H509L464 824L394 759H273L409 907H551L631 759Z" />
<glyph unicode="&#xcb;" glyph-name="Edieresis" horiz-adv-x="668" d="M670 569H295L264 417H602L576 286H238L207 132H592L567 0H23L163 700H696L670 569ZM412 900T427 884T443 841Q443 807 418 782T358 756Q332 756 316 773T300 816Q300 852 325 876T385 900Q412
900 427 884ZM598 900T613 884T629 841Q629 807 604 782T544 756Q518 756 502 773T486 816Q486 852 511 876T572 900Q598 900 613 884Z" />
<glyph unicode="&#xcc;" glyph-name="Igrave" horiz-adv-x="313" d="M322 700L182 0H23L163 700H322ZM238 916L341 763L229 753L102 863L238 916Z" />
<glyph unicode="&#xcd;" glyph-name="Iacute" horiz-adv-x="313" d="M322 700L182 0H23L163 700H322ZM286 916L422 863L286 753L175 763L286 916Z" />
<glyph unicode="&#xce;" glyph-name="Icircumflex" horiz-adv-x="313" d="M322 700L182 0H23L163 700H322ZM432 759H310L265 824L195 759H74L210 907H352L432 759Z" />
<glyph unicode="&#xcf;" glyph-name="Idieresis" horiz-adv-x="313" d="M322 700L182 0H23L163 700H322ZM213 900T228 884T244 841Q244 807 219 782T159 756Q133 756 117 773T101 816Q101 852 126 876T186 900Q213 900 228 884ZM399 900T414 884T430 841Q430 807
405 782T345 756Q319 756 303 773T287 816Q287 852 312 876T373 900Q399 900 414 884Z" />
<glyph unicode="&#xd0;" glyph-name="Eth" horiz-adv-x="771" d="M544 700T618 660T730 549T763 384Q757 273 699 186T545 49T332 0H24L86 311H15L30 390H101L163 700H444Q544 700 618 660ZM601 466T552 516T421 567H296L260 390H415L400 311H245L209 133H361Q426
133 481 165T568 255T601 384Q601 466 552 516Z" />
<glyph unicode="&#xd1;" glyph-name="Ntilde" horiz-adv-x="788" d="M647 700H797L657 0H513L265 453L174 0H23L163 700H307L556 247L647 700ZM681 832T653 794T575 755Q553 755 534 762T492 784Q481 791 470 796T451 801Q423 801 415 758H323Q351 908 444 908Q467
908 486 900T528 878Q556 861 568 861Q583 861 591 872T604 904H695Q681 832 653 794Z" />
<glyph unicode="&#xd2;" glyph-name="Ograve" horiz-adv-x="813" d="M558 711T636 669T758 551T802 382Q802 274 746 184T595 41T388 -11Q289 -11 211 32T90 150T46 320Q46 429 102 518T253 659T460 711Q558 711 636 669ZM386 573T331 541T242 453T208 331Q208
274 234 228T304 154T403 127Q465 127 519 159T606 248T639 371Q639 428 614 474T546 546T448 573Q386 573 331 541ZM455 916L558 763L446 753L319 863L455 916Z" />
<glyph unicode="&#xd3;" glyph-name="Oacute" horiz-adv-x="813" d="M558 711T636 669T758 551T802 382Q802 274 746 184T595 41T388 -11Q289 -11 211 32T90 150T46 320Q46 429 102 518T253 659T460 711Q558 711 636 669ZM386 573T331 541T242 453T208 331Q208
274 234 228T304 154T403 127Q465 127 519 159T606 248T639 371Q639 428 614 474T546 546T448 573Q386 573 331 541ZM503 916L639 863L503 753L392 763L503 916Z" />
<glyph unicode="&#xd4;" glyph-name="Ocircumflex" horiz-adv-x="813" d="M558 711T636 669T758 551T802 382Q802 274 746 184T595 41T388 -11Q289 -11 211 32T90 150T46 320Q46 429 102 518T253 659T460 711Q558 711 636 669ZM386 573T331 541T242 453T208 331Q208
274 234 228T304 154T403 127Q465 127 519 159T606 248T639 371Q639 428 614 474T546 546T448 573Q386 573 331 541ZM649 759H527L482 824L412 759H291L427 907H569L649 759Z" />
<glyph unicode="&#xd5;" glyph-name="Otilde" horiz-adv-x="813" d="M558 711T636 669T758 551T802 382Q802 274 746 184T595 41T388 -11Q289 -11 211 32T90 150T46 320Q46 429 102 518T253 659T460 711Q558 711 636 669ZM386 573T331 541T242 453T208 331Q208
274 234 228T304 154T403 127Q465 127 519 159T606 248T639 371Q639 428 614 474T546 546T448 573Q386 573 331 541ZM658 832T630 794T552 755Q530 755 511 762T469 784Q458 791 447 796T428 801Q400 801 392 758H300Q328 908 421 908Q444 908 463 900T505 878Q533
861 545 861Q560 861 568 872T581 904H672Q658 832 630 794Z" />
<glyph unicode="&#xd6;" glyph-name="Odieresis" horiz-adv-x="813" d="M558 711T636 669T758 551T802 382Q802 274 746 184T595 41T388 -11Q289 -11 211 32T90 150T46 320Q46 429 102 518T253 659T460 711Q558 711 636 669ZM386 573T331 541T242 453T208 331Q208
274 234 228T304 154T403 127Q465 127 519 159T606 248T639 371Q639 428 614 474T546 546T448 573Q386 573 331 541ZM430 900T445 884T461 841Q461 807 436 782T376 756Q350 756 334 773T318 816Q318 852 343 876T403 900Q430 900 445 884ZM616 900T631 884T647
841Q647 807 622 782T562 756Q536 756 520 773T504 816Q504 852 529 876T590 900Q616 900 631 884Z" />
<glyph unicode="&#xd7;" glyph-name="multiply" horiz-adv-x="554" d="M478 446L359 327L478 207L409 135L289 256L168 135L99 207L218 327L99 446L168 518L289 397L409 518L478 446Z" />
<glyph unicode="&#xd8;" glyph-name="Oslash" horiz-adv-x="813" d="M740 592T771 527T802 382Q802 274 746 184T595 41T388 -11Q296 -11 222 26L160 -55H51L150 76Q100 121 73 183T46 320Q46 429 102 518T253 659T460 711Q541 711 608 682L663 755H773L684 637Q740
592 771 527ZM208 260T248 206L516 561Q485 573 448 573Q386 573 331 541T242 453T208 331Q208 260 248 206ZM465 127T519 159T606 248T639 371Q639 412 626 448T588 511L314 149Q356 127 403 127Q465 127 519 159Z" />
<glyph unicode="&#xd9;" glyph-name="Ugrave" horiz-adv-x="760" d="M701 293Q673 154 577 74T337 -7Q210 -7 137 55T63 225Q63 259 70 293L151 700H309L228 293Q223 268 223 251Q223 195 258 163T354 131Q425 131 476 174T543 293L625 700H783L701 293ZM464 916L567
763L455 753L328 863L464 916Z" />
<glyph unicode="&#xda;" glyph-name="Uacute" horiz-adv-x="760" d="M701 293Q673 154 577 74T337 -7Q210 -7 137 55T63 225Q63 259 70 293L151 700H309L228 293Q223 268 223 251Q223 195 258 163T354 131Q425 131 476 174T543 293L625 700H783L701 293ZM512 916L648
863L512 753L401 763L512 916Z" />
<glyph unicode="&#xdb;" glyph-name="Ucircumflex" horiz-adv-x="760" d="M701 293Q673 154 577 74T337 -7Q210 -7 137 55T63 225Q63 259 70 293L151 700H309L228 293Q223 268 223 251Q223 195 258 163T354 131Q425 131 476 174T543 293L625 700H783L701 293ZM658
759H536L491 824L421 759H300L436 907H578L658 759Z" />
<glyph unicode="&#xdc;" glyph-name="Udieresis" horiz-adv-x="760" d="M701 293Q673 154 577 74T337 -7Q210 -7 137 55T63 225Q63 259 70 293L151 700H309L228 293Q223 268 223 251Q223 195 258 163T354 131Q425 131 476 174T543 293L625 700H783L701 293ZM439
900T454 884T470 841Q470 807 445 782T385 756Q359 756 343 773T327 816Q327 852 352 876T412 900Q439 900 454 884ZM625 900T640 884T656 841Q656 807 631 782T571 756Q545 756 529 773T513 816Q513 852 538 876T599 900Q625 900 640 884Z" />
<glyph unicode="&#xdd;" glyph-name="Yacute" horiz-adv-x="666" d="M755 700L422 228L385 0H227L264 228L83 700H243L368 381L596 700H755ZM465 916L601 863L465 753L354 763L465 916Z" />
<glyph unicode="&#xde;" glyph-name="Thorn" horiz-adv-x="699" d="M555 606T621 555T687 411Q687 323 644 256T522 152T335 115H205L182 0H23L163 700H322L303 606H433Q555 606 621 555ZM434 241T478 280T522 387Q522 432 492 456T402 480H278L230 241H353Q434
241 478 280Z" />
<glyph unicode="&#xdf;" glyph-name="germandbls" horiz-adv-x="663" d="M482 749T533 727T612 666T641 575Q641 516 603 464T500 383Q553 368 583 329T614 235Q614 167 573 114T460 30T295 0H245L268 114H315Q382 114 422 146T463 230Q463 268 431 289T339 310H322L344
423Q409 423 448 457T487 551Q487 588 465 608T403 629Q350 629 314 596T264 502L164 0H11L109 491Q133 612 214 680T416 749Q482 749 533 727Z" />
<glyph unicode="&#xe0;" glyph-name="agrave" horiz-adv-x="684" d="M179 -6T131 24T55 108T28 232Q28 319 65 390T169 503T315 544Q379 544 423 518T490 440L509 538H662L555 0H402L417 68Q343 -6 242 -6Q179 -6 131 24ZM342 115T378 138T435 200T456 287Q456
344 424 378T339 412Q297 412 261 389T204 327T183 241Q183 183 215 149T300 115Q342 115 378 138ZM378 765L481 612L369 602L242 712L378 765Z" />
<glyph unicode="&#xe1;" glyph-name="aacute" horiz-adv-x="684" d="M179 -6T131 24T55 108T28 232Q28 319 65 390T169 503T315 544Q379 544 423 518T490 440L509 538H662L555 0H402L417 68Q343 -6 242 -6Q179 -6 131 24ZM342 115T378 138T435 200T456 287Q456
344 424 378T339 412Q297 412 261 389T204 327T183 241Q183 183 215 149T300 115Q342 115 378 138ZM426 765L562 712L426 602L315 612L426 765Z" />
<glyph unicode="&#xe2;" glyph-name="acircumflex" horiz-adv-x="684" d="M179 -6T131 24T55 108T28 232Q28 319 65 390T169 503T315 544Q379 544 423 518T490 440L509 538H662L555 0H402L417 68Q343 -6 242 -6Q179 -6 131 24ZM342 115T378 138T435 200T456 287Q456
344 424 378T339 412Q297 412 261 389T204 327T183 241Q183 183 215 149T300 115Q342 115 378 138ZM572 612H450L405 677L335 612H214L350 760H492L572 612Z" />
<glyph unicode="&#xe3;" glyph-name="atilde" horiz-adv-x="684" d="M179 -6T131 24T55 108T28 232Q28 319 65 390T169 503T315 544Q379 544 423 518T490 440L509 538H662L555 0H402L417 68Q343 -6 242 -6Q179 -6 131 24ZM342 115T378 138T435 200T456 287Q456
344 424 378T339 412Q297 412 261 389T204 327T183 241Q183 183 215 149T300 115Q342 115 378 138ZM580 677T552 639T474 600Q452 600 433 607T391 629Q380 636 369 641T350 646Q322 646 314 603H222Q250 753 343 753Q366 753 385 745T427 723Q455 706 467 706Q482
706 490 717T503 749H594Q580 677 552 639Z" />
<glyph unicode="&#xe4;" glyph-name="adieresis" horiz-adv-x="684" d="M179 -6T131 24T55 108T28 232Q28 319 65 390T169 503T315 544Q379 544 423 518T490 440L509 538H662L555 0H402L417 68Q343 -6 242 -6Q179 -6 131 24ZM342 115T378 138T435 200T456 287Q456
344 424 378T339 412Q297 412 261 389T204 327T183 241Q183 183 215 149T300 115Q342 115 378 138ZM354 758T369 742T385 699Q385 665 360 640T300 614Q274 614 258 631T242 674Q242 710 267 734T327 758Q354 758 369 742ZM540 758T555 742T571 699Q571 665 546
640T486 614Q460 614 444 631T428 674Q428 710 453 734T514 758Q540 758 555 742Z" />
<glyph unicode="&#xe5;" glyph-name="aring" horiz-adv-x="684" d="M179 -6T131 24T55 108T28 232Q28 319 65 390T169 503T315 544Q379 544 423 518T490 440L509 538H662L555 0H402L417 68Q343 -6 242 -6Q179 -6 131 24ZM342 115T378 138T435 200T456 287Q456
344 424 378T339 412Q297 412 261 389T204 327T183 241Q183 183 215 149T300 115Q342 115 378 138ZM464 808T493 779T522 706Q522 672 504 642T457 595T393 577Q348 577 320 606T291 678Q291 712 309 742T357 790T420 808Q464 808 493 779ZM391 737T376 722T360
686Q360 669 371 658T401 647Q421 647 437 662T453 698Q453 715 442 726T412 737Q391 737 376 722Z" />
<glyph unicode="&#xe6;" glyph-name="ae" horiz-adv-x="960" d="M109 -7T60 34T11 147Q11 227 67 270T229 314H381L383 340Q386 381 360 402T281 423Q242 423 196 411T102 375L71 485Q204 544 318 544Q379 544 424 527T496 478Q568 543 677 543Q755 543 812 512T900
423T931 289Q931 260 927 235H530L529 220Q526 175 564 145T656 114Q695 114 732 129T799 173L877 87Q782 -6 641 -6Q564 -6 508 25T425 111Q352 -7 194 -7Q109 -7 60 34ZM781 314Q785 370 757 402T677 435Q626 435 587 401T535 314H781ZM274 97T309 116T368 174L374
235H257Q210 237 183 216T156 157Q156 129 176 113T231 97Q274 97 309 116Z" />
<glyph unicode="&#xe7;" glyph-name="ccedilla" horiz-adv-x="582" d="M382 122T429 185L528 113Q491 60 432 30T299 -5L273 -52Q308 -60 324 -78T341 -122Q341 -174 299 -201T196 -229Q141 -229 93 -208L135 -128Q159 -139 187 -139Q206 -139 219 -132T232 -113Q232
-103 219 -97T184 -91H158L206 2Q123 22 76 85T29 240Q29 328 68 397T176 504T334 543Q411 543 468 514T556 430L445 355Q426 383 396 398T328 413Q287 413 255 393T203 335T184 251Q184 193 215 158T298 122Q382 122 429 185Z" />
<glyph unicode="&#xe8;" glyph-name="egrave" horiz-adv-x="611" d="M411 543T467 514T554 431T585 306Q585 265 575 222H180Q185 170 219 142T311 113Q346 113 380 125T443 159L518 71Q432 -6 306 -6Q222 -6 160 24T63 109T29 238Q29 324 68 394T177 503T334
543Q411 543 467 514ZM446 366T419 397T340 428Q290 428 250 397T192 313H442Q446 366 419 397ZM329 767L432 614L320 604L193 714L329 767Z" />
<glyph unicode="&#xe9;" glyph-name="eacute" horiz-adv-x="611" d="M411 543T467 514T554 431T585 306Q585 265 575 222H180Q185 170 219 142T311 113Q346 113 380 125T443 159L518 71Q432 -6 306 -6Q222 -6 160 24T63 109T29 238Q29 324 68 394T177 503T334
543Q411 543 467 514ZM446 366T419 397T340 428Q290 428 250 397T192 313H442Q446 366 419 397ZM377 767L513 714L377 604L266 614L377 767Z" />
<glyph unicode="&#xea;" glyph-name="ecircumflex" horiz-adv-x="611" d="M411 543T467 514T554 431T585 306Q585 265 575 222H180Q185 170 219 142T311 113Q346 113 380 125T443 159L518 71Q432 -6 306 -6Q222 -6 160 24T63 109T29 238Q29 324 68 394T177 503T334
543Q411 543 467 514ZM446 366T419 397T340 428Q290 428 250 397T192 313H442Q446 366 419 397ZM523 614H401L356 679L286 614H165L301 762H443L523 614Z" />
<glyph unicode="&#xeb;" glyph-name="edieresis" horiz-adv-x="611" d="M411 543T467 514T554 431T585 306Q585 265 575 222H180Q185 170 219 142T311 113Q346 113 380 125T443 159L518 71Q432 -6 306 -6Q222 -6 160 24T63 109T29 238Q29 324 68 394T177 503T334
543Q411 543 467 514ZM446 366T419 397T340 428Q290 428 250 397T192 313H442Q446 366 419 397ZM305 760T320 744T336 701Q336 667 311 642T251 616Q225 616 209 633T193 676Q193 712 218 736T278 760Q305 760 320 744ZM491 760T506 744T522 701Q522 667 497 642T437
616Q411 616 395 633T379 676Q379 712 404 736T465 760Q491 760 506 744Z" />
<glyph unicode="&#xec;" glyph-name="igrave" horiz-adv-x="302" d="M281 538L174 0H21L128 538H281ZM205 765L308 612L196 602L69 712L205 765Z" />
<glyph unicode="&#xed;" glyph-name="iacute" horiz-adv-x="302" d="M281 538L174 0H21L128 538H281ZM253 765L389 712L253 602L142 612L253 765Z" />
<glyph unicode="&#xee;" glyph-name="icircumflex" horiz-adv-x="302" d="M281 538L174 0H21L128 538H281ZM399 612H277L232 677L162 612H41L177 760H319L399 612Z" />
<glyph unicode="&#xef;" glyph-name="idieresis" horiz-adv-x="302" d="M281 538L174 0H21L128 538H281ZM187 758T202 742T218 699Q218 665 193 640T133 614Q107 614 91 631T75 674Q75 710 100 734T161 758Q187 758 202 742ZM361 758T376 742T392 699Q392 665
367 640T307 614Q281 614 265 631T249 674Q249 710 274 734T334 758Q361 758 376 742Z" />
<glyph unicode="&#xf0;" glyph-name="eth" horiz-adv-x="602" d="M460 613Q517 550 547 475T577 319Q577 223 538 150T428 35T265 -6Q190 -6 135 20T49 93T19 204Q19 275 49 330T135 415T262 446Q318 446 365 427T434 376Q417 469 336 560L153 483L127 546L282
612Q231 655 167 689L274 750Q349 714 407 665L563 731L589 667L460 613ZM331 126T368 161T406 249Q406 289 378 313T299 338Q242 338 205 303T167 214Q167 173 195 150T271 126Q331 126 368 161Z" />
<glyph unicode="&#xf1;" glyph-name="ntilde" horiz-adv-x="672" d="M527 545T578 498T629 370Q629 346 623 317L559 0H406L464 295Q467 310 467 324Q467 364 443 387T374 411Q323 411 284 375T232 279L176 0H22L128 538H283L268 464Q334 545 439 545Q527 545
578 498ZM613 677T585 639T507 600Q485 600 466 607T424 629Q413 636 402 641T383 646Q355 646 347 603H255Q283 753 376 753Q399 753 418 745T460 723Q488 706 500 706Q515 706 523 717T536 749H627Q613 677 585 639Z" />
<glyph unicode="&#xf2;" glyph-name="ograve" horiz-adv-x="639" d="M427 543T486 512T578 426T610 296Q610 208 569 139T456 32T292 -6Q213 -6 153 25T61 112T29 242Q29 330 70 398T183 505T347 543Q427 543 486 512ZM292 415T258 394T205 336T185 250Q185 191
217 155T304 119Q347 119 381 140T434 198T454 284Q454 343 422 379T335 415Q292 415 258 394ZM347 765L450 612L338 602L211 712L347 765Z" />
<glyph unicode="&#xf3;" glyph-name="oacute" horiz-adv-x="639" d="M427 543T486 512T578 426T610 296Q610 208 569 139T456 32T292 -6Q213 -6 153 25T61 112T29 242Q29 330 70 398T183 505T347 543Q427 543 486 512ZM292 415T258 394T205 336T185 250Q185 191
217 155T304 119Q347 119 381 140T434 198T454 284Q454 343 422 379T335 415Q292 415 258 394ZM395 765L531 712L395 602L284 612L395 765Z" />
<glyph unicode="&#xf4;" glyph-name="ocircumflex" horiz-adv-x="639" d="M427 543T486 512T578 426T610 296Q610 208 569 139T456 32T292 -6Q213 -6 153 25T61 112T29 242Q29 330 70 398T183 505T347 543Q427 543 486 512ZM292 415T258 394T205 336T185 250Q185
191 217 155T304 119Q347 119 381 140T434 198T454 284Q454 343 422 379T335 415Q292 415 258 394ZM541 612H419L374 677L304 612H183L319 760H461L541 612Z" />
<glyph unicode="&#xf5;" glyph-name="otilde" horiz-adv-x="639" d="M427 543T486 512T578 426T610 296Q610 208 569 139T456 32T292 -6Q213 -6 153 25T61 112T29 242Q29 330 70 398T183 505T347 543Q427 543 486 512ZM292 415T258 394T205 336T185 250Q185 191
217 155T304 119Q347 119 381 140T434 198T454 284Q454 343 422 379T335 415Q292 415 258 394ZM549 677T521 639T443 600Q421 600 402 607T360 629Q349 636 338 641T319 646Q291 646 283 603H191Q219 753 312 753Q335 753 354 745T396 723Q424 706 436 706Q451
706 459 717T472 749H563Q549 677 521 639Z" />
<glyph unicode="&#xf6;" glyph-name="odieresis" horiz-adv-x="639" d="M427 543T486 512T578 426T610 296Q610 208 569 139T456 32T292 -6Q213 -6 153 25T61 112T29 242Q29 330 70 398T183 505T347 543Q427 543 486 512ZM292 415T258 394T205 336T185 250Q185
191 217 155T304 119Q347 119 381 140T434 198T454 284Q454 343 422 379T335 415Q292 415 258 394ZM323 758T338 742T354 699Q354 665 329 640T269 614Q243 614 227 631T211 674Q211 710 236 734T296 758Q323 758 338 742ZM509 758T524 742T540 699Q540 665 515
640T455 614Q429 614 413 631T397 674Q397 710 422 734T483 758Q509 758 524 742Z" />
<glyph unicode="&#xf7;" glyph-name="divide" horiz-adv-x="506" d="M335 585T351 568T368 524Q368 486 342 461T280 435Q253 435 237 452T220 497Q220 534 245 559T307 585Q335 585 351 568ZM494 377L474 275H35L54 377H494ZM265 228T281 211T298 167Q298 129
272 104T210 78Q183 78 167 95T150 140Q150 177 175 202T237 228Q265 228 281 211Z" />
<glyph unicode="&#xf8;" glyph-name="oslash" horiz-adv-x="639" d="M563 460T586 410T610 296Q610 208 569 139T456 32T292 -6Q230 -6 182 12L111 -89H27L121 45Q76 78 53 128T29 242Q29 330 70 398T183 505T347 543Q408 543 457 525L528 627H612L518 493Q563
460 586 410ZM175 196T200 158L383 419Q359 427 336 427Q290 427 254 404T196 341T175 249Q175 196 200 158ZM349 107T385 130T443 193T464 286Q464 340 437 377L254 116Q277 107 303 107Q349 107 385 130Z" />
<glyph unicode="&#xf9;" glyph-name="ugrave" horiz-adv-x="672" d="M145 -7T94 40T43 168Q43 193 49 221L113 538H266L208 243Q205 228 205 214Q205 174 229 151T298 127Q349 127 388 163T440 259L496 538H650L544 0H389L404 74Q338 -7 233 -7Q145 -7 94 40ZM390
765L493 612L381 602L254 712L390 765Z" />
<glyph unicode="&#xfa;" glyph-name="uacute" horiz-adv-x="672" d="M145 -7T94 40T43 168Q43 193 49 221L113 538H266L208 243Q205 228 205 214Q205 174 229 151T298 127Q349 127 388 163T440 259L496 538H650L544 0H389L404 74Q338 -7 233 -7Q145 -7 94 40ZM438
765L574 712L438 602L327 612L438 765Z" />
<glyph unicode="&#xfb;" glyph-name="ucircumflex" horiz-adv-x="672" d="M145 -7T94 40T43 168Q43 193 49 221L113 538H266L208 243Q205 228 205 214Q205 174 229 151T298 127Q349 127 388 163T440 259L496 538H650L544 0H389L404 74Q338 -7 233 -7Q145 -7 94
40ZM584 612H462L417 677L347 612H226L362 760H504L584 612Z" />
<glyph unicode="&#xfc;" glyph-name="udieresis" horiz-adv-x="672" d="M145 -7T94 40T43 168Q43 193 49 221L113 538H266L208 243Q205 228 205 214Q205 174 229 151T298 127Q349 127 388 163T440 259L496 538H650L544 0H389L404 74Q338 -7 233 -7Q145 -7 94 40ZM366
758T381 742T397 699Q397 665 372 640T312 614Q286 614 270 631T254 674Q254 710 279 734T339 758Q366 758 381 742ZM552 758T567 742T583 699Q583 665 558 640T498 614Q472 614 456 631T440 674Q440 710 465 734T526 758Q552 758 567 742Z" />
<glyph unicode="&#xfd;" glyph-name="yacute" horiz-adv-x="563" d="M624 538L267 -65Q227 -136 174 -168T51 -201Q7 -201 -26 -187T-91 -145L-12 -42Q14 -67 48 -67Q97 -67 138 -17L159 11L43 538H199L264 163L467 538H624ZM384 765L520 712L384 602L273 612L384 765Z" />
<glyph unicode="&#xfe;" glyph-name="thorn" horiz-adv-x="689" d="M510 544T558 514T634 430T661 306Q661 219 623 148T520 35T374 -6Q310 -6 266 20T199 97L140 -194H-13L174 742H327L272 469Q307 505 352 524T447 544Q510 544 558 514ZM346 422T311 399T254
337T233 251Q233 194 265 160T350 125Q392 125 428 148T485 210T506 297Q506 354 474 388T389 422Q346 422 311 399Z" />
<glyph unicode="&#xff;" glyph-name="ydieresis" horiz-adv-x="563" d="M624 538L267 -65Q227 -136 174 -168T51 -201Q7 -201 -26 -187T-91 -145L-12 -42Q14 -67 48 -67Q97 -67 138 -17L159 11L43 538H199L264 163L467 538H624ZM312 758T327 742T343 699Q343 665
318 640T258 614Q232 614 216 631T200 674Q200 710 225 734T285 758Q312 758 327 742ZM498 758T513 742T529 699Q529 665 504 640T444 614Q418 614 402 631T386 674Q386 710 411 734T472 758Q498 758 513 742Z" />
<glyph unicode="&#x2013;" glyph-name="endash" horiz-adv-x="407" d="M424 357L405 255H-2L17 357H424Z" />
<glyph unicode="&#x2014;" glyph-name="emdash" horiz-adv-x="663" d="M680 357L661 255H-2L17 357H680Z" />
<glyph unicode="&#x2018;" glyph-name="quoteleft" horiz-adv-x="223" d="M241 598T241 561Q241 523 218 499T158 475Q129 475 109 494T89 545Q89 564 96 579T116 615L197 742H272L214 616Q241 598 241 561Z" />
<glyph unicode="&#x2019;" glyph-name="quoteright" horiz-adv-x="224" d="M224 742T244 723T264 672Q264 653 257 638T237 602L156 475H81L139 601Q112 619 112 656Q112 694 135 718T195 742Q224 742 244 723Z" />
<glyph unicode="&#x201a;" glyph-name="quotesinglbase" horiz-adv-x="223" d="M104 149T124 130T144 79Q144 60 137 45T117 9L36 -118H-39L19 8Q-8 26 -8 63Q-8 101 15 125T75 149Q104 149 124 130Z" />
<glyph unicode="&#x201c;" glyph-name="quotedblleft" horiz-adv-x="397" d="M241 598T241 561Q241 523 218 499T158 475Q129 475 109 494T89 545Q89 564 96 579T116 615L197 742H272L214 616Q241 598 241 561ZM414 598T414 561Q414 523 391 499T331 475Q302 475
282 494T262 545Q262 564 269 579T289 615L370 742H445L387 616Q414 598 414 561Z" />
<glyph unicode="&#x201d;" glyph-name="quotedblright" horiz-adv-x="397" d="M224 742T244 723T264 672Q264 653 257 638T237 602L156 475H81L139 601Q112 619 112 656Q112 694 135 718T195 742Q224 742 244 723ZM397 742T417 723T437 672Q437 653 430 638T410
602L329 475H254L312 601Q285 619 285 656Q285 694 308 718T368 742Q397 742 417 723Z" />
<glyph unicode="&#x201e;" glyph-name="quotedblbase" horiz-adv-x="397" d="M104 149T124 130T144 79Q144 60 137 45T117 9L36 -118H-39L19 8Q-8 26 -8 63Q-8 101 15 125T75 149Q104 149 124 130ZM277 149T297 130T317 79Q317 60 310 45T290 9L209 -118H134L192
8Q165 26 165 63Q165 101 188 125T248 149Q277 149 297 130Z" />
<glyph unicode="&#x2022;" glyph-name="bullet" horiz-adv-x="320" d="M211 392T243 359T276 274Q276 221 244 188T160 154Q110 154 78 188T45 274Q45 326 77 359T160 392Q211 392 243 359Z" />
<glyph unicode="&#x2039;" glyph-name="guilsinglleft" horiz-adv-x="280" d="M288 446L139 260L217 83H91L8 265L163 446H288Z" />
<glyph unicode="&#x203a;" glyph-name="guilsinglright" horiz-adv-x="287" d="M13 83L162 269L84 446H210L293 264L138 83H13Z" />
</font>
</defs>
</svg>
