<?xml version="1.0" standalone="no"?>
<!DOCTYPE svg PUBLIC "-//W3C//DTD SVG 1.1//EN" "http://www.w3.org/Graphics/SVG/1.1/DTD/svg11.dtd">
<svg xmlns="http://www.w3.org/2000/svg">
<defs >
<font id="Dhurjati" horiz-adv-x="467" ><font-face
    font-family="Dhurjati"
    units-per-em="870"
    panose-1="2 0 6 0 0 0 0 0 0 0"
    ascent="1101"
    descent="-509"
    alphabetic="0" />
<glyph unicode=" " glyph-name="space" horiz-adv-x="220" />
<glyph unicode="!" glyph-name="exclam" horiz-adv-x="298" d="M252 524Q252 509 240 509Q235 509 230 513Q225 515 225 519Q221 519 218 515T214 504V208Q214 183 201 165T170 147T140 165T128 208V504Q128 510 125 514T117 519Q117 515 113 513Q109 509 104
509T94 513T89 524T96 538Q101 542 110 542H231Q240 542 245 538Q252 531 252 524ZM242 72Q225 72 225 83Q221 83 218 78T214 66V33Q214 26 218 21Q221 15 225 15Q225 28 242 28Q252 28 252 16Q252 -5 231 -5H110Q101 -5 95 -1T89 11T93 23T104 28Q117 28 117 15Q121
15 124 21Q128 26 128 33V66Q128 73 125 78T117 83Q117 78 113 75T104 72Q89 72 89 87T110 103H231Q252 103 252 88T242 72Z" />
<glyph unicode="&quot;" glyph-name="quotedbl" horiz-adv-x="369" d="M230 466L209 549V586H321V549L303 466H230ZM58 466L37 549V586H149V549L131 466H58Z" />
<glyph unicode="#" glyph-name="numbersign" horiz-adv-x="540" d="M184 173H309L329 254H219L184 173ZM219 0L272 124H163L110 0H20L73 124H16L39 173H95L129 254H61L88 303H151L200 418H289L240 303H350L400 418H489L439 303H494L467 254H418L384 173H445L422
124H362L309 0H219Z" />
<glyph unicode="$" glyph-name="dollar" horiz-adv-x="546" d="M250 383H228Q187 383 187 355V307Q187 279 228 279H250V383ZM250 484H295V439H337Q386 439 420 419T455 364V323H359V355Q359 383 318 383H295V279H337Q386 279 420 259T455 204V95Q455 62 421 41T337
20H295V-22H250V20H209Q132 20 101 63Q91 77 91 95V151H187V104Q187 76 228 76H250V223H209Q131 223 101 265Q91 279 91 297V364Q91 398 125 418T209 439H250V484ZM359 195Q359 223 318 223H295V76H318Q359 76 359 104V195Z" />
<glyph unicode="%" glyph-name="percent" horiz-adv-x="702" d="M547 39Q556 39 562 46T569 66V147Q569 156 561 162T542 169H519Q508 169 501 163T493 147V66Q493 54 500 47T519 39H547ZM417 7Q405 21 405 39V169Q405 187 417 200Q430 213 449 213H613Q631 213
645 200Q657 187 657 169V39Q657 21 645 7Q631 -5 613 -5H449Q430 -5 417 7ZM504 542H585L251 -5H169L504 542ZM186 305Q195 305 200 314Q207 323 207 334V416Q207 425 199 431T180 437H158Q147 437 139 431T131 416V334Q131 323 139 314T158 305H186ZM87 262Q69
262 57 275T44 305V437Q44 456 56 469Q69 481 87 481H251Q270 481 283 469Q295 456 295 437V305Q295 288 283 275T251 262H87Z" />
<glyph unicode="&amp;" glyph-name="ampersand" horiz-adv-x="409" d="M318 30Q283 -3 214 -3H157Q74 -3 45 40Q36 54 36 72V199Q36 245 98 261Q118 266 143 266H210Q244 266 244 287V342Q244 360 213 360H169Q156 360 147 355T138 342V293H42V349Q42 379 72 397T149
416H234Q281 416 310 397T340 349V278Q340 232 277 216Q257 211 233 211H166Q132 211 132 190V82Q132 53 177 53H198Q234 53 243 74L184 108V189L384 74V-8L318 30Z" />
<glyph unicode="&apos;" glyph-name="quotesingle" horiz-adv-x="185" d="M58 466L37 596V654H149V596L131 466H58Z" />
<glyph unicode="(" glyph-name="parenleft" horiz-adv-x="319" d="M251 483Q251 499 219 499H164Q150 499 140 493Q131 486 131 477V-106Q131 -114 140 -121T164 -128H219Q232 -128 242 -122Q251 -118 251 -111Q244 -111 240 -106T235 -96Q235 -84 248 -84T267
-90T274 -106V-172H109Q83 -172 64 -156T44 -117V490Q44 512 63 527T109 543H274V477Q274 469 268 462T253 455T240 458T235 466Q235 483 251 483Z" />
<glyph unicode=")" glyph-name="parenright" horiz-adv-x="319" d="M66 483Q83 483 83 466Q83 462 79 459T66 455T51 462T44 477V543H209Q235 543 254 527Q274 512 274 490V-117Q274 -140 254 -155Q235 -172 209 -172H44V-106Q44 -97 50 -91T70 -84T83 -95Q83
-101 79 -106T66 -111Q66 -118 76 -122Q86 -128 99 -128H154Q168 -128 177 -121T187 -106V477Q187 486 178 493Q168 499 154 499H99Q66 499 66 483Z" />
<glyph unicode="*" glyph-name="asterisk" horiz-adv-x="576" d="M165 44L172 11Q172 -4 164 -15T145 -27Q121 -27 121 -11Q121 -4 126 1T139 6Q139 28 121 50Q100 79 100 101T138 145T246 193L201 233Q150 272 125 272Q117 272 102 264T75 255T54 261T44 277T48
292Q53 298 58 298Q72 298 72 282Q81 282 98 305L125 331Q130 339 138 343Q144 349 155 349T207 310L284 239V298Q284 330 273 355T240 392Q219 405 219 415T224 430T235 435T246 430Q251 426 251 419Q275 408 278 408L333 414Q347 414 358 405Q366 395 366 381L344
239Q392 261 420 286Q449 314 449 337L442 370Q442 385 450 396T469 408T486 404T493 392T488 380T475 375Q475 353 493 331Q514 302 514 279T476 236T367 188L413 147Q466 109 488 109Q497 109 512 117T539 125T561 119Q570 112 570 104T566 89T556 83T546 87T542
99Q533 99 516 76L488 50Q479 32 464 32T407 70L330 142V83Q330 51 341 26T374 -11Q395 -26 395 -38Q395 -54 378 -54Q372 -54 368 -50T363 -38Q352 -33 345 -31Q339 -27 336 -27L281 -33Q267 -33 256 -24Q248 -14 248 0L270 142Q222 120 194 95Q165 67 165 44Z"
/>
<glyph unicode="+" glyph-name="plus" horiz-adv-x="559" d="M230 165H44V208H230V377H317V208H514V165H317V-5H230V165Z" />
<glyph unicode="," glyph-name="comma" horiz-adv-x="253" d="M109 -60Q125 -60 125 -38V-5H65Q56 -5 50 -1T44 11T48 23T58 28Q72 28 72 15Q76 15 79 21Q83 26 83 33V66Q83 73 80 78T72 83Q72 78 68 75T59 72Q44 72 44 87T65 103H186Q207 103 207 88T197 72Q180
72 180 83Q176 83 173 78T169 66V-55Q169 -70 156 -81T125 -93H72Q59 -93 52 -85T44 -67T48 -50T59 -44Q77 -44 77 -60H109Z" />
<glyph unicode="-" glyph-name="hyphen" horiz-adv-x="362" d="M44 213H317V169H44V213Z" />
<glyph unicode="." glyph-name="period" horiz-adv-x="253" d="M197 72Q180 72 180 83Q176 83 173 78T169 66V33Q169 26 173 21Q176 15 180 15Q180 28 197 28Q207 28 207 16Q207 -5 186 -5H65Q56 -5 50 -1T44 11T48 23T58 28Q72 28 72 15Q76 15 79 21Q83 26 83
33V66Q83 73 80 78T72 83Q72 78 68 75T59 72Q44 72 44 87T65 103H186Q207 103 207 88T197 72Z" />
<glyph unicode="/" glyph-name="slash" horiz-adv-x="444" d="M44 -4L308 546H408L136 -9H44V-4Z" />
<glyph unicode="0" glyph-name="zero" horiz-adv-x="547" d="M384 37T394 45T404 63V362Q404 374 394 383T370 393H189Q172 393 161 382T149 353V63Q149 53 160 46Q172 37 189 37H366Q384 37 394 45ZM135 -9Q102 -9 78 12Q55 34 55 63V386Q55 408 72 422Q89 438
112 438H430Q458 438 478 421T498 376V63Q498 34 477 12Q454 -9 421 -9H135Z" />
<glyph unicode="1" glyph-name="one" horiz-adv-x="547" d="M198 -9T184 0T170 22T177 43T193 51T208 47T214 37T212 28Q218 29 227 35T236 53V333H158V397Q168 415 182 415Q202 415 202 397T186 378V375Q212 375 234 392Q254 409 256 438H330V53Q330 42 338 35Q346
28 344 28L352 25Q350 31 350 36T356 45Q360 51 370 51T388 44T396 25T383 2T354 -9H212Q198 -9 184 0Z" />
<glyph unicode="2" glyph-name="two" horiz-adv-x="547" d="M75 7Q55 23 55 44V182Q55 201 72 218Q89 232 112 232H375Q387 232 395 239T404 259V376Q404 382 397 387Q391 393 381 393H173Q163 393 156 388T149 376Q142 359 149 363Q154 365 161 365T172 360T176
347T167 337Q161 333 151 333H55V396Q55 413 72 425T112 438H441Q465 438 482 426Q498 413 498 396V229Q498 212 483 200T446 187H178Q165 187 157 180T149 162V53Q149 46 154 42T167 37H392Q402 37 409 46T416 62Q409 56 396 59Q383 65 383 76T390 93T407 100H498V47Q498
25 480 8T436 -9H120Q96 -9 75 7Z" />
<glyph unicode="3" glyph-name="three" horiz-adv-x="547" d="M219 292Q224 286 224 278T216 266Q217 266 219 265T228 263H375Q387 263 395 270T404 288V372Q404 381 397 386Q391 393 381 393H91Q86 393 82 388T77 380Q81 380 88 377T95 367T89 355Q81 350 74
350T61 356T55 372V438H425Q454 438 476 421T498 376V278Q498 266 488 255Q480 243 472 239Q480 237 488 226Q498 215 498 200V53Q498 28 479 9Q458 -9 427 -9H55V57Q55 67 60 74T73 81T89 76Q95 70 95 63T88 53T77 50Q77 46 80 42Q86 37 91 37H381Q391 37 397
43Q404 48 404 57V182Q404 196 396 207Q387 217 375 217H228Q221 217 220 215T217 213Q224 212 224 204T219 189Q213 183 206 183T191 190Q186 198 186 210V270Q186 281 191 289Q198 297 205 297T219 292Z" />
<glyph unicode="4" glyph-name="four" horiz-adv-x="547" d="M109 124Q140 145 244 145Q299 145 318 141V348Q317 347 285 330L252 315Q193 286 157 234Q120 184 109 124ZM542 81Q528 65 482 65T410 74V34Q410 30 418 27T433 22Q432 24 432 27T438 36Q443 42 451
42T468 35Q472 28 472 17T461 -1T436 -9H372Q349 -9 333 6Q318 21 318 44V95Q301 99 228 99Q130 99 79 58L11 125Q34 209 94 273T234 373T319 438H410V129Q432 117 480 117Q493 117 502 122Q509 127 509 130V136L506 142Q505 142 502 138T492 133T479 140Q471 146
471 157T480 176Q488 185 503 185T530 174T542 146V81Z" />
<glyph unicode="5" glyph-name="five" horiz-adv-x="547" d="M498 372Q498 344 480 344Q470 344 462 349T453 362T461 375T476 380Q476 383 473 388T463 393H195Q185 393 178 387T171 372V290H419Q451 290 474 273T498 229V53Q498 28 479 9Q458 -9 427 -9H55V57Q55
86 74 86Q85 86 92 80Q100 76 100 69T95 55Q88 50 83 50Q83 46 87 42T97 37H381Q391 37 397 43Q404 48 404 57V210Q404 224 396 235Q387 245 375 245H118Q112 245 107 242Q121 239 121 230T116 213Q109 207 100 207T85 215Q76 223 76 234V391Q76 410 93 424T135
438H498V372Z" />
<glyph unicode="6" glyph-name="six" horiz-adv-x="547" d="M397 43Q404 48 404 57V210Q404 224 396 235Q387 245 375 245H184Q168 245 158 237Q149 228 149 216V63Q149 52 157 45T178 37H377Q391 37 397 43ZM149 284Q158 290 167 290H419Q451 290 474 273T498
229V53Q498 28 479 9Q458 -9 427 -9H112Q89 -9 72 9T55 53V391Q55 410 72 425Q89 438 112 438H498V372Q498 344 480 344Q470 344 462 349T453 362T461 375T476 380Q476 383 473 388T463 393H173Q163 393 156 387T149 372V284Z" />
<glyph unicode="7" glyph-name="seven" horiz-adv-x="547" d="M109 -4L384 334Q404 366 404 373T397 386Q391 393 381 393H101Q94 393 89 387Q83 382 83 380Q88 380 94 377T100 366T95 351Q88 344 79 344T62 352T55 372V438H425Q454 438 476 421T498 379T459 306L212
-9H109V-4Z" />
<glyph unicode="8" glyph-name="eight" horiz-adv-x="547" d="M167 252T157 259T147 271Q156 271 164 275Q175 279 175 287T171 301T160 307T145 305Q139 299 142 307V372Q142 381 149 386Q156 393 166 393H374Q384 393 390 387T397 372V274Q397 265 389 259T369
252H179Q167 252 157 259ZM179 37Q167 37 157 43T147 54Q156 54 165 58Q175 65 175 73T169 85Q167 90 160 90T145 88Q139 85 142 92V185Q142 194 149 200T166 207H374Q384 207 390 201T397 185V57Q397 48 391 43T374 37H179ZM435 -2Q457 -2 471 11T485 44V172Q485
194 474 210L462 226Q462 232 474 245Q485 260 485 278V386Q485 406 471 418T435 431H106Q85 431 70 419T55 386V278Q55 260 66 245L78 232Q78 226 66 213Q55 199 55 182V44Q55 25 69 11Q85 -2 102 -2H435Z" />
<glyph unicode="9" glyph-name="nine" horiz-adv-x="547" d="M375 204Q387 204 396 210Q404 217 404 224V372Q404 381 397 386Q391 393 381 393H173Q163 393 156 387T149 372V259Q145 251 151 254T166 257T177 251Q182 245 182 238T171 226Q163 221 154 221Q154
217 164 211T186 204H375ZM404 165Q392 158 386 158H118Q92 158 74 175Q55 191 55 216V376Q55 403 75 420T123 438H441Q465 438 481 421T498 376V39Q498 20 482 4Q465 -9 441 -9H55V57Q55 86 74 86Q85 86 92 80Q100 76 100 68T92 55Q85 50 77 50Q77 46 80 42Q86
37 91 37H381Q391 37 397 43Q404 48 404 57V165Z" />
<glyph unicode=":" glyph-name="colon" horiz-adv-x="253" d="M207 307Q207 289 196 289Q190 289 185 292T180 301Q176 301 173 296T169 284V251Q169 244 173 240Q176 235 180 235Q180 245 197 245Q207 245 207 234Q207 213 186 213H65Q56 213 50 218T44 230T48
241Q53 245 58 245Q72 245 72 235Q76 235 79 240Q83 244 83 251V284Q83 290 80 295T72 301Q72 296 68 293T59 289T48 294Q44 300 44 307Q44 322 65 322H186Q207 322 207 307ZM197 72Q180 72 180 83Q176 83 173 78T169 66V33Q169 26 173 21Q176 15 180 15Q180 28
197 28Q207 28 207 16Q207 -5 186 -5H65Q56 -5 50 -1T44 11T48 23T58 28Q72 28 72 15Q76 15 79 21Q83 26 83 33V66Q83 73 80 78T72 83Q72 78 68 75T59 72Q44 72 44 87T65 103H186Q207 103 207 88T197 72Z" />
<glyph unicode=";" glyph-name="semicolon" horiz-adv-x="298" d="M252 307Q252 289 240 289Q235 289 230 292T225 301Q221 301 218 296T214 284V251Q214 244 218 240Q221 235 225 235Q225 245 242 245Q252 245 252 234Q252 213 231 213H110Q101 213 95 218T89
230T93 241Q98 245 104 245Q117 245 117 235Q121 235 124 240Q128 244 128 251V284Q128 290 125 295T117 301Q117 296 113 293T104 289T93 294Q89 300 89 307Q89 322 110 322H231Q252 322 252 307ZM154 -60Q170 -60 170 -38V-5H110Q101 -5 95 -1T89 11T93 23T104
28Q117 28 117 15Q121 15 124 21Q128 26 128 33V66Q128 73 125 78T117 83Q117 78 113 75T104 72Q89 72 89 87T110 103H231Q252 103 252 88T242 72Q225 72 225 83Q221 83 218 78T214 66V-55Q214 -70 201 -81T170 -93H117Q104 -93 97 -85T89 -67T93 -50T104 -44Q122
-44 122 -60H154Z" />
<glyph unicode="&lt;" glyph-name="less" horiz-adv-x="531" d="M44 133L485 288V259L164 107L485 -44V-73L44 79V133Z" />
<glyph unicode="=" glyph-name="equal" horiz-adv-x="417" d="M44 208H372V180H44V208ZM44 111H372V83H44V111Z" />
<glyph unicode="&gt;" glyph-name="greater" horiz-adv-x="531" d="M44 -73V-44L366 107L44 259V288L485 133V79L44 -73Z" />
<glyph unicode="?" glyph-name="question" horiz-adv-x="474" d="M242 57Q225 57 225 65Q221 65 218 61T214 52V25Q214 20 218 16Q221 11 225 11Q225 21 242 21Q252 21 252 8T231 -5H110Q89 -5 89 8Q89 14 93 17T104 21Q117 21 117 11Q121 11 124 16Q128 20 128
25V52Q128 57 125 61T117 65Q117 57 103 57T89 69T110 81H231Q252 81 252 69T242 57ZM192 323Q203 323 203 309Q203 306 197 304T181 301H89V353Q89 368 104 378Q121 388 143 388H373Q396 388 412 378T428 353V235Q428 219 414 207T378 195H252Q239 195 230 189T220
174V127H132V195Q132 210 147 221Q165 230 187 230H308Q321 230 331 237Q340 246 340 257V336Q340 343 332 348T313 353H203Q192 353 184 348T176 336V315Q176 323 192 323Z" />
<glyph unicode="@" glyph-name="at" horiz-adv-x="972" d="M506 30Q506 30 473 30Q432 30 432 58V88Q432 116 473 116H506Q544 116 546 89V58Q546 30 506 30ZM736 -142L753 -127Q864 -17 864 140Q864 296 753 407T486 518T219 407T108 140T219 -127T486 -238Q602
-238 693 -177L631 -104Q566 -144 484 -144Q366 -144 283 -61T200 140T283 341T484 424T685 341T768 140T685 -61L756 -58L642 24V213Q642 247 608 267T525 287H457Q409 287 375 267T340 213V193H436V203Q436 231 477 231H506Q546 231 546 203V161Q529 172 502
172H454Q405 172 371 152T336 98V48Q336 31 346 17Q377 -26 454 -26H497Q524 -26 546 -17L736 -142Z" />
<glyph unicode="A" glyph-name="A" d="M157 155H302L230 341L157 155ZM299 419L452 0H356L321 99H138L104 0H8L160 419H299Z" />
<glyph unicode="B" glyph-name="B" horiz-adv-x="366" d="M226 335Q226 363 186 363H128V251H186Q206 251 216 259T226 279V335ZM238 167Q238 193 200 195H128V56H198Q238 56 238 84V167ZM334 75Q334 40 298 20Q265 0 217 0H32V419H205Q282 419 313 376Q323 362
323 344V274Q323 254 306 238Q301 232 293 228Q334 205 334 176V75Z" />
<glyph unicode="C" glyph-name="C" horiz-adv-x="369" d="M198 56Q238 56 238 84V131H334V75Q334 40 298 20Q265 0 217 0H150Q73 0 42 43Q32 57 32 75V344Q32 378 66 398T150 419H217Q265 419 299 399T334 344V288H238V335Q238 363 198 363H169Q128 363 128 335V84Q128
56 169 56H198Z" />
<glyph unicode="D" glyph-name="D" horiz-adv-x="369" d="M205 56Q246 56 246 84V335Q246 363 205 363H128V56H205ZM225 419Q273 419 307 399T342 344V75Q342 40 306 20Q273 0 225 0H32V419H225Z" />
<glyph unicode="E" glyph-name="E" horiz-adv-x="358" d="M319 0H32V419H319V363H128V251H278V195H128V56H319V0Z" />
<glyph unicode="F" glyph-name="F" horiz-adv-x="360" d="M32 0V419H319V363H128V251H278V195H128V0H32Z" />
<glyph unicode="G" glyph-name="G" horiz-adv-x="386" d="M209 56Q250 56 250 84V141H177V197H346V75Q346 40 310 20Q277 0 228 0H150Q73 0 42 43Q32 57 32 75V344Q32 378 66 398T150 419H228Q277 419 311 399T346 344V288H250V335Q250 363 209 363H169Q128 363
128 335V84Q128 56 169 56H209Z" />
<glyph unicode="H" glyph-name="H" horiz-adv-x="406" d="M271 0V192H128V0H32V419H128V248H271V419H368V0H271Z" />
<glyph unicode="I" glyph-name="I" horiz-adv-x="179" d="M40 0V419H136V0H40Z" />
<glyph unicode="J" glyph-name="J" horiz-adv-x="232" d="M53 56Q93 56 93 84V419H190V75Q190 41 156 21T72 0H13V56H53Z" />
<glyph unicode="K" glyph-name="K" horiz-adv-x="386" d="M32 0V419H128V212L279 419H379L226 208L379 0H279L128 205V0H32Z" />
<glyph unicode="L" glyph-name="L" horiz-adv-x="355" d="M319 0H32V419H128V56H319V0Z" />
<glyph unicode="M" glyph-name="M" horiz-adv-x="511" d="M32 0V419H131L250 170L370 419H468V0H371V213L301 66H200L128 214V0H32Z" />
<glyph unicode="N" glyph-name="N" horiz-adv-x="427" d="M32 0V419H131L281 163V418H378V0H277L128 252V0H32Z" />
<glyph unicode="O" glyph-name="O" horiz-adv-x="395" d="M213 56Q253 56 253 84V335Q253 363 213 363H169Q128 363 128 335V84Q128 56 169 56H213ZM32 344Q32 378 66 398T150 419H232Q309 419 340 376Q350 362 350 344V75Q350 41 316 21T232 0H150Q73 0 42 43Q32
57 32 75V344Z" />
<glyph unicode="P" glyph-name="P" horiz-adv-x="382" d="M205 241Q246 241 246 269V335Q246 363 205 363H128V241H205ZM32 0V419H225Q273 419 307 399T342 344V260Q342 225 308 205T225 185H128V0H32Z" />
<glyph unicode="Q" glyph-name="Q" horiz-adv-x="395" d="M213 57Q253 57 253 85V335Q253 363 213 363H169Q128 363 128 335V85Q128 57 169 57H213ZM350 75Q350 32 298 12L346 -34H242L206 1H150Q73 1 42 44Q32 57 32 75V345Q32 378 66 398T150 419H232Q309 419
340 376Q350 363 350 345V75Z" />
<glyph unicode="R" glyph-name="R" horiz-adv-x="369" d="M205 242Q246 242 246 270V335Q246 363 205 363H128V242H205ZM226 186L364 0H263L128 182V0H32V419H225Q273 419 307 399T342 344V261Q342 226 308 206T226 186Z" />
<glyph unicode="S" glyph-name="S" horiz-adv-x="386" d="M250 175Q250 203 209 203H150Q72 203 42 245Q32 259 32 277V344Q32 378 66 398T150 419H228Q277 419 311 399T346 344V303H250V335Q250 363 209 363H169Q128 363 128 335V287Q128 257 169 259H228Q277
259 311 239T346 184V75Q346 40 310 20Q277 0 228 0H150Q73 0 42 43Q32 57 32 75V131H128V84Q128 56 169 56H209Q250 56 250 84V175Z" />
<glyph unicode="T" glyph-name="T" horiz-adv-x="359" d="M341 363H227V0H130V363H16V419H341V363Z" />
<glyph unicode="U" glyph-name="U" horiz-adv-x="398" d="M217 56Q257 56 257 84V419H354V75Q354 41 320 21T236 0H154Q77 0 46 43Q36 57 36 75V419H132V84Q132 56 173 56H217Z" />
<glyph unicode="V" glyph-name="V" horiz-adv-x="409" d="M154 0L7 419H103L202 137L302 419H398L251 0H154Z" />
<glyph unicode="W" glyph-name="W" horiz-adv-x="580" d="M361 0L290 247L219 0H123L3 419H99L171 168L242 419H339L409 168L481 419H578L458 0H361Z" />
<glyph unicode="X" glyph-name="X" horiz-adv-x="421" d="M102 419L208 274L315 419H411L257 209L411 0H315L208 144L102 0H6L160 209L6 419H102Z" />
<glyph unicode="Y" glyph-name="Y" horiz-adv-x="418" d="M102 419L208 275L315 419H411L256 210V0H160V210L6 419H102Z" />
<glyph unicode="Z" glyph-name="Z" horiz-adv-x="358" d="M20 419H328V367L120 56H327V0H18V52L227 363H20V419Z" />
<glyph unicode="[" glyph-name="bracketleft" horiz-adv-x="262" d="M43 0V419H233V363H139V56H233V0H43Z" />
<glyph unicode="\" glyph-name="backslash" horiz-adv-x="410" d="M284 0L19 419H124L390 0H284Z" />
<glyph unicode="]" glyph-name="bracketright" horiz-adv-x="262" d="M43 0V56H137V363H43V419H233V0H43Z" />
<glyph unicode="^" glyph-name="asciicircum" horiz-adv-x="386" d="M8 418L154 569H238L380 418H276L194 499L113 418H8Z" />
<glyph unicode="_" glyph-name="underscore" horiz-adv-x="419" d="M-4 -96H420V-147H-4V-96Z" />
<glyph unicode="`" glyph-name="grave" horiz-adv-x="252" d="M153 683L206 493H174L44 683H153Z" />
<glyph unicode="a" glyph-name="a" horiz-adv-x="378" d="M202 56Q242 56 242 84V115Q240 142 202 142H169Q128 142 128 114V84Q128 56 169 56H202ZM173 257Q132 257 132 229V219H36V239Q36 273 70 293T153 313H221Q269 313 303 293T338 239V0H242V9Q220 0 193
0H150Q73 0 42 43Q32 57 32 74V124Q32 157 66 177T150 198H198Q225 198 242 187V229Q242 257 202 257H173Z" />
<glyph unicode="b" glyph-name="b" horiz-adv-x="390" d="M173 257Q134 257 132 230V84Q132 56 173 56H213Q254 56 254 84V229Q254 257 213 257H173ZM350 74Q350 40 314 20Q281 0 232 0H181Q154 0 132 9V0H36V408H132V302L141 306Q154 313 177 313H232Q281 313
315 293T350 239V74Z" />
<glyph unicode="c" glyph-name="c" horiz-adv-x="374" d="M198 56Q238 56 238 84V106H334V75Q334 40 298 20Q265 0 217 0H150Q73 0 42 43Q32 57 32 75V239Q32 273 66 293T150 314H217Q265 314 298 294Q334 274 334 239V207H238V230Q238 258 198 258H169Q128 258
128 230V84Q128 56 169 56H198Z" />
<glyph unicode="d" glyph-name="d" horiz-adv-x="388" d="M209 56Q250 56 250 84V230Q248 257 209 257H169Q128 257 128 229V84Q128 56 169 56H209ZM32 239Q32 272 66 292T150 313H205Q228 313 237 308L250 302V408H346V0H250V9Q228 0 201 0H150Q73 0 42 43Q32
57 32 74V239Z" />
<glyph unicode="e" glyph-name="e" horiz-adv-x="375" d="M169 258Q128 258 128 230V201H238V230Q238 258 198 258H169ZM198 56Q238 56 238 84V104H334V75Q334 40 298 20Q265 0 217 0H150Q73 0 42 43Q32 57 32 75V239Q32 273 66 293T150 314H217Q265 314 298 294Q334
274 334 239V145H128V84Q128 56 169 56H198Z" />
<glyph unicode="f" glyph-name="f" horiz-adv-x="276" d="M204 353Q164 353 164 325V313H217V257H164V0H67V257H17V313H67V334Q67 368 101 388T185 409H264V353H204Z" />
<glyph unicode="g" glyph-name="g" horiz-adv-x="382" d="M202 56Q242 56 242 82V229Q242 257 202 257H169Q128 257 128 229V84Q128 56 169 56H202ZM242 11Q231 0 198 0H150Q73 0 42 42Q32 56 32 74V239Q32 272 66 292T150 313H193Q220 313 242 305V314H338V-46Q338
-78 302 -100Q269 -120 221 -120H153Q108 -120 72 -100T36 -46V-27H132V-36Q132 -64 173 -64H202Q242 -64 242 -36V11Z" />
<glyph unicode="h" glyph-name="h" horiz-adv-x="390" d="M169 257Q130 257 128 231V0H32V409H128V302Q143 313 173 313H228Q277 313 311 293T346 239V0H250V229Q250 257 209 257H169Z" />
<glyph unicode="i" glyph-name="i" horiz-adv-x="184" d="M140 397V341H44V397H140ZM44 313H140V0H44V313Z" />
<glyph unicode="j" glyph-name="j" horiz-adv-x="205" d="M162 396V340H66V396H162ZM26 -31Q66 -31 66 -3V313H162V-13Q162 -47 128 -67T45 -87H5V-31H26Z" />
<glyph unicode="k" glyph-name="k" horiz-adv-x="370" d="M32 0V409H128V161L248 313H350L228 158L350 0H248L128 154V0H32Z" />
<glyph unicode="l" glyph-name="l" horiz-adv-x="180" d="M40 0V401H136V0H40Z" />
<glyph unicode="m" glyph-name="m" horiz-adv-x="591" d="M242 229Q242 257 202 257H184Q163 257 146 246T128 219V0H32V313H128V294Q161 313 193 313H221Q281 313 315 285Q354 313 402 313H430Q507 313 538 270Q548 257 548 239V0H451V229Q451 257 411 257H394Q361
257 344 237Q339 231 338 224V0H242V229Z" />
<glyph unicode="n" glyph-name="n" horiz-adv-x="378" d="M250 229Q250 257 209 257H184Q163 257 146 246T128 219V0H32V313H128V294Q151 313 193 313H228Q277 313 311 293T346 239V0H250V229Z" />
<glyph unicode="o" glyph-name="o" horiz-adv-x="374" d="M198 56Q238 56 238 84V230Q238 258 198 258H169Q128 258 128 230V84Q128 56 169 56H198ZM32 239Q32 273 66 293T150 314H217Q265 314 298 294Q334 274 334 239V75Q334 40 298 20Q265 0 217 0H150Q73 0
42 43Q32 57 32 75V239Z" />
<glyph unicode="p" glyph-name="p" horiz-adv-x="382" d="M169 257Q128 257 128 229V83Q130 56 169 56H202Q242 56 242 84V229Q242 257 202 257H169ZM173 0Q144 0 128 12V-93H32V314H128V305Q150 313 177 313H221Q269 313 302 293Q338 273 338 239V75Q338 40 304
20T221 0H173Z" />
<glyph unicode="q" glyph-name="q" horiz-adv-x="382" d="M202 56Q240 56 242 83V229Q242 257 202 257H169Q128 257 128 229V84Q128 56 169 56H202ZM32 239Q32 272 66 292T150 313H193Q220 313 242 305V314H338V-93H242V12Q230 0 198 0H150Q73 0 42 43Q32 57 32 75V239Z" />
<glyph unicode="r" glyph-name="r" horiz-adv-x="230" d="M128 289Q152 313 200 313H217V257H192Q151 257 134 232Q128 224 128 214V0H32V313H128V289Z" />
<glyph unicode="s" glyph-name="s" horiz-adv-x="387" d="M250 115Q250 143 209 143H150Q72 143 42 185Q32 199 32 217V239Q32 273 66 293T150 314H228Q277 314 310 294Q346 274 346 239V225H250V230Q250 258 209 258H169Q128 258 128 230V227Q128 197 169 199H228Q277
199 311 179T346 124V75Q346 40 310 20Q277 0 228 0H150Q73 0 42 43Q32 57 32 75V106H128V84Q128 56 169 56H209Q250 56 250 84V115Z" />
<glyph unicode="t" glyph-name="t" horiz-adv-x="256" d="M172 84Q172 56 212 56H237V0H193Q116 0 85 43Q75 57 75 75V257H17V313H75V384H172V313H233V257H172V84Z" />
<glyph unicode="u" glyph-name="u" horiz-adv-x="388" d="M128 84Q128 56 169 56H194Q216 56 229 64Q250 79 250 94V313H346V0H250V19Q224 0 186 0H150Q73 0 42 43Q32 57 32 75V313H128V84Z" />
<glyph unicode="v" glyph-name="v" horiz-adv-x="386" d="M143 0L7 314H103L191 112L278 314H375L239 0H143Z" />
<glyph unicode="w" glyph-name="w" horiz-adv-x="548" d="M330 0L271 172L212 0H115L7 314H103L163 140L223 314H319L378 140L438 314H535L427 0H330Z" />
<glyph unicode="x" glyph-name="x" horiz-adv-x="393" d="M102 314L193 211L284 314H380L241 157L380 0H283L193 102L102 0H6L145 157L6 314H102Z" />
<glyph unicode="y" glyph-name="y" horiz-adv-x="384" d="M102 314L188 198L276 314H372L236 135V0H140V135L6 314H102Z" />
<glyph unicode="z" glyph-name="z" horiz-adv-x="341" d="M16 314H308V262L128 56H308V0H14V52L195 258H16V314Z" />
<glyph unicode="{" glyph-name="braceleft" horiz-adv-x="295" d="M16 160Q78 160 98 197Q104 207 104 218V300Q104 340 144 358T264 377H280V321Q233 321 219 316Q193 307 193 281V199Q188 178 173 163T121 132Q160 114 172 101Q191 79 195 44V-41Q199 -53 212
-57Q238 -65 280 -65V-121H264Q181 -121 143 -98T104 -19T98 62Q89 82 79 88Q56 102 16 104V160Z" />
<glyph unicode="|" glyph-name="bar" horiz-adv-x="216" d="M70 370H149V-105H70V370Z" />
<glyph unicode="}" glyph-name="braceright" horiz-adv-x="315" d="M49 377Q209 377 209 300V218Q209 196 230 178Q253 160 296 160V104Q226 101 215 62Q209 38 209 -4T199 -66T169 -99Q132 -121 49 -121H32V-65Q96 -65 112 -51Q116 -47 118 -41V44Q121 92 160
116Q173 124 192 132Q125 159 120 199V281Q118 307 96 315Q81 321 32 321V377H49Z" />
<glyph unicode="~" glyph-name="asciitilde" horiz-adv-x="444" d="M407 260Q346 227 298 227Q272 227 233 238T174 255T139 260Q96 260 32 222V286Q89 317 143 317Q174 317 210 306T266 290T299 285Q322 285 342 290Q359 296 407 323V260Z" />
<glyph unicode="&#xa0;" glyph-name="nbsp" horiz-adv-x="220" />
<glyph unicode="&#xa2;" glyph-name="cent" horiz-adv-x="374" d="M198 56Q238 56 238 84V106H334V75Q334 40 298 20Q267 1 223 0V-85H147V0Q72 1 42 43Q32 57 32 75V239Q32 273 66 293T147 314V405H223V314Q267 313 298 294Q334 274 334 239V207H238V230Q238
258 198 258H169Q128 258 128 230V84Q128 56 169 56H198Z" />
<glyph unicode="&#xa9;" glyph-name="copyright" horiz-adv-x="575" d="M305 150Q345 150 345 178V200H441V169Q441 134 407 114T324 94H257Q180 94 149 137Q139 151 139 169V333Q139 367 173 387T257 408H324Q372 408 406 388T441 333V301H345V324Q345 352 305
352H276Q235 352 235 324V178Q235 150 276 150H305ZM54 352T54 258T121 97T282 30T443 97T510 258T443 419T282 486T121 419ZM21 150T21 258T98 443T283 520T468 443T545 258T468 73T283 -4T98 73Z" />
<glyph unicode="&#xae;" glyph-name="registered" horiz-adv-x="579" d="M60 352T60 258T127 97T288 30T449 97T516 258T449 419T288 486T127 419ZM28 150T28 258T105 443T290 520T475 443T552 258T475 73T290 -4T105 73ZM306 277Q333 277 333 295V337Q333 356
306 356H256V277H306ZM320 240L410 119H344L256 238V119H193V392H319Q350 392 372 379T395 343V289Q395 266 373 253T320 240Z" />
<glyph unicode="&#xbc;" glyph-name="onequarter" horiz-adv-x="774" d="M670 -53Q688 -53 688 -75Q688 -85 679 -91T656 -98H593Q573 -98 559 -85T545 -51V-6Q531 -3 503 -3Q427 -3 382 -39L322 20Q344 97 395 150Q459 216 514 241T573 295H633V23Q653 13 680
13T714 17T721 25V30L718 35Q717 35 714 31T707 27T695 32T687 48T695 65Q702 73 715 73T739 63T750 38V-19Q737 -33 697 -33T633 -25V-60Q633 -66 641 -67T653 -70Q653 -69 653 -66T657 -58T670 -53ZM106 17Q89 35 107 52L651 580Q659 591 670 588T686 580T692
568Q696 555 685 544L141 16Q134 9 124 9T106 17ZM381 15Q407 34 489 34Q528 34 544 30V212Q416 167 381 15ZM72 263Q60 271 60 282T66 301T81 308T94 304T100 296T98 288Q103 288 110 294T118 310V496H50V552Q58 568 71 568Q88 568 88 552T75 536V533Q97 533 116
548Q134 563 136 588H202V310Q202 299 209 294T214 288L220 285Q218 290 218 293T223 302T236 308T252 302T259 286T248 266T222 255H98Q85 255 72 263Z" />
<glyph unicode="&#xbd;" glyph-name="onehalf" horiz-adv-x="774" d="M72 263Q60 271 60 282T66 301T81 308T94 304T100 296T98 288Q103 288 110 294T118 310V496H50V552Q58 568 71 568Q88 568 88 552T75 536V533Q97 533 116 548Q134 563 136 588H202V310Q202
299 209 294T214 288L220 285Q220 290 218 295Q218 296 223 302T236 308T252 302T259 285T247 265Q236 255 222 255H98Q85 255 72 263ZM106 17Q89 35 107 52L651 580Q659 591 670 588T686 580T692 568Q696 555 685 544L141 16Q134 9 124 9T106 17ZM528 57Q506 57
506 38V-42Q506 -47 510 -50T520 -54H660Q668 -54 673 -48T678 -36Q671 -42 663 -38T654 -25T659 -12T671 -7H752V-47Q752 -63 739 -75T706 -88H472Q454 -88 439 -76T424 -49V53Q424 69 436 80Q449 90 466 90H648Q657 90 663 95T669 110V197Q669 201 665 205T652
209H524Q517 209 512 205T506 197Q501 184 506 187Q510 189 515 189T524 184T527 175T521 169T508 165H424V212Q424 224 436 233T466 243H710Q728 243 740 234T752 212V88Q752 75 741 66T713 57H528Z" />
<glyph unicode="&#xbe;" glyph-name="threequarters" horiz-adv-x="774" d="M106 17Q89 35 107 52L651 580Q659 591 670 588T686 580T692 568Q696 555 685 544L141 16Q134 9 124 9T106 17ZM74 385Q74 376 62 376Q62 373 65 370T71 367H235Q242 367 246 371T251
381V464Q251 474 245 481T231 488H163Q159 486 156 485Q160 484 160 480Q160 465 148 465T135 483V523Q135 531 139 536T148 542T156 538T160 529T156 521Q159 519 163 519H231Q251 519 251 536V592Q251 596 247 601T235 606H71Q68 606 65 603T62 597Q64 597 69
595T74 588Q74 577 59 577Q54 577 51 581T47 592V636H291Q310 636 325 625T340 594V529Q340 523 334 514T322 503Q325 502 332 495T340 477V378Q340 359 325 348T292 337H47V381Q47 387 50 392T60 397T70 393T74 385ZM670 -53Q688 -53 688 -75Q688 -85 679 -91T656
-98H593Q573 -98 559 -85T545 -51V-6Q531 -3 503 -3Q427 -3 382 -39L322 20Q344 97 395 150Q459 216 514 241T573 295H633V23Q653 13 680 13T714 17T721 25V30L718 35Q717 35 714 31T707 27T695 32T687 48T695 65Q702 73 715 73T739 63T750 38V-19Q737 -33 697
-33T633 -25V-60Q633 -66 641 -67T653 -70Q653 -69 653 -66T657 -58T670 -53ZM381 15Q407 34 489 34Q528 34 544 30V212Q416 167 381 15Z" />
<glyph unicode="&#xd7;" glyph-name="multiply" horiz-adv-x="520" d="M150 415L260 289L370 415L426 371L302 237L426 105L368 59L260 184L150 59L94 105L218 237L94 371L150 415Z" />
<glyph unicode="&#xf7;" glyph-name="divide" horiz-adv-x="561" d="M44 239H516V170H44V239ZM348 71Q330 71 330 82Q326 82 323 77T320 65V32Q320 25 324 20Q326 14 330 14Q330 27 348 27Q358 27 358 15Q358 -6 336 -6H216Q206 -6 200 -2T194 10T199 22T208 27Q222
27 222 14Q226 14 230 20Q234 25 234 32V65Q234 72 230 77T222 82Q222 77 218 74T210 71Q194 71 194 86T216 102H336Q358 102 358 87T348 71ZM348 391Q332 391 332 402Q328 402 324 397T320 385V352Q320 345 324 340Q328 334 332 334Q332 347 348 347Q358 347 358
335Q358 314 338 314H216Q208 314 202 318T196 330T200 342T210 347Q224 347 224 334Q228 334 230 340Q234 345 234 352V385Q234 392 231 397T224 402Q224 397 220 394T210 391Q196 391 196 406T216 422H338Q358 422 358 407T348 391Z" />
<glyph unicode="&#x2013;" glyph-name="U2013" horiz-adv-x="531" d="M17 217H490V159H17V217Z" />
<glyph unicode="&#x2014;" glyph-name="U2014" horiz-adv-x="1157" d="M3 217H1089V159H3V217Z" />
<glyph unicode="&#x2018;" glyph-name="U2018" horiz-adv-x="253" d="M44 284Q44 301 56 301Q61 301 66 297Q72 294 72 289Q76 289 79 294T83 307V427Q83 443 91 454Q101 465 116 465H180Q191 465 199 458Q207 449 207 439T203 422T192 416T179 420Q175 426 175
432H142Q135 432 130 426T125 410V377H186Q195 377 201 372T207 361T202 350Q198 344 193 344T184 349Q180 352 180 356Q176 356 173 352Q169 345 169 339V307Q169 300 172 295T180 289Q180 294 184 297Q187 301 192 301T202 296T207 284T200 273Q195 268 186 268H65Q56
268 51 273Q44 277 44 284Z" />
<glyph unicode="&#x2019;" glyph-name="U2019" horiz-adv-x="253" d="M207 470Q207 454 196 454Q190 454 185 457T180 465Q176 465 173 460T169 449V328Q169 312 156 301T125 289H72Q59 289 52 298T44 317T48 333T59 339Q77 339 77 322H109Q117 322 121 329T125
344V377H65Q56 377 50 382T44 394T48 406Q53 410 58 410Q72 410 72 399Q76 399 79 404T83 416V449Q83 455 79 461Q76 465 72 465Q72 461 68 458T59 454T48 459Q44 464 44 470T50 481T65 486H186Q195 486 201 482T207 470Z" />
<glyph unicode="&#x201c;" glyph-name="U201C" horiz-adv-x="479" d="M293 516Q270 543 270 580Q270 633 310 679T416 749L432 710Q389 697 364 671Q337 645 337 614Q350 619 370 619T409 602T427 557T404 510T349 491T293 516ZM201 529T178 510T123 491T67 517T44
580Q44 633 85 679Q124 726 190 749L207 710Q165 697 139 671Q111 645 111 614Q124 619 145 619T184 602Q201 584 201 557Z" />
<glyph unicode="&#x201d;" glyph-name="U201D" horiz-adv-x="473" d="M281 502Q325 526 347 561Q371 595 365 625Q353 619 331 619T290 640T270 693T293 745T348 766T404 740T427 677Q427 603 393 546Q360 488 304 468L281 502ZM55 502Q99 526 122 560T140 625Q127
619 106 619T64 640T44 693T68 745Q90 766 122 766T178 740T201 677Q201 603 168 546T78 468L55 502Z" />
<glyph unicode="&#x2022;" glyph-name="U2022" horiz-adv-x="464" d="M212 220L247 259L264 281Q277 298 284 305Q298 316 316 316T358 298Q362 284 362 277T357 259T342 239T299 227Q261 220 242 216T201 199Q234 182 272 176L307 172Q330 169 345 155T361 124T358
98Q339 81 319 81T287 90T264 117Q241 146 228 160T197 187V178Q197 155 215 111L228 85Q231 77 231 72Q236 63 236 47T224 18T192 -1Q172 4 160 17T148 48T157 87L165 109Q183 156 183 181V187Q166 176 152 160T115 114Q95 81 67 81Q52 81 44 85T22 98Q20 114
20 122Q20 146 36 157T79 172L110 176Q153 183 178 199Q146 218 102 224T44 237Q21 249 21 278L22 299Q48 317 66 317Q94 317 125 272Q140 250 153 234T183 212V223Q183 246 169 281T150 327T146 351T158 379T192 398Q209 392 222 380T235 352T224 309Q198 251
198 212Q206 214 212 220Z" />
</font>
</defs>
</svg>
