<?xml version="1.0" standalone="no"?>
<!DOCTYPE svg PUBLIC "-//W3C//DTD SVG 1.1//EN" "http://www.w3.org/Graphics/SVG/1.1/DTD/svg11.dtd">
<svg xmlns="http://www.w3.org/2000/svg">
<defs >
<font id="Yantramanav" horiz-adv-x="1014" ><font-face
    font-family="Yantramanav Light"
    units-per-em="2048"
    panose-1="2 0 0 0 0 0 0 0 0 0"
    ascent="1923"
    descent="-733"
    alphabetic="0" />
<glyph unicode=" " horiz-adv-x="509" />
<glyph unicode="!" horiz-adv-x="587" d="M346 148V0H221V148H346ZM335 1310V430H231V1310H335Z" />
<glyph unicode="&quot;" horiz-adv-x="727" d="M322 1404V1214L258 979H195L218 1209V1404H322ZM534 1404V1214L469 979H407L431 1212V1404H534Z" />
<glyph unicode="#" horiz-adv-x="1143" d="M60 369V453H305L380 850H129V936H396L467 1310H557L486 936H769L840 1310H930L859 936H1065V850H842L768 453H997V369H752L682 0H592L662 369H380L311 0H221L290 369H60ZM470 850L395 453H678L752 850H470Z" />
<glyph unicode="$" horiz-adv-x="1022" d="M522 56H523Q655 56 733 124T812 297T748 464T519 586Q323 647 237 731T151 964T240 1203T486 1307V1489H578V1307Q736 1292 821 1189T905 909L903 904H802Q802 1044 730 1128T528 1212T328 1145T257 970T319 801T565
678T834 533T919 303T827 66T573 -37V-208H482V-38Q313 -28 212 64Q161 111 134 184T108 350L111 355H212Q212 203 297 130T522 56Z" />
<glyph unicode="%" horiz-adv-x="1363" d="M845 318V248Q845 165 890 111T1015 57T1139 111T1184 248V318Q1184 403 1139 456T1015 510T890 456T845 318ZM758 248V318Q758 434 829 511T1014 588T1199 511T1271 318V248Q1271 133 1200 56T1016 -21T830 56T758 248ZM1054
1131L414 107L347 150L987 1174L1054 1131ZM185 1056V987Q185 905 231 851T356 796T480 850T525 987V1056Q525 1139 480 1194T356 1249T231 1194T185 1056ZM99 987V1056Q99 1173 170 1250T355 1327T540 1250T611 1056V987Q611 872 541 795T357 718T171 795T99 987Z"
/>
<glyph unicode="&amp;" horiz-adv-x="1134" d="M206 1028Q206 1170 285 1247T499 1325T711 1253T788 1069Q788 991 750 933T630 812L487 702L858 270Q950 401 950 582H1049Q1049 356 922 195L1088 0L1086 -4H963L853 123Q695 -23 499 -23T192 73T82 330Q82 435
143 521T336 703L349 710Q274 803 240 877T206 1028ZM190 331Q190 215 268 142T490 69Q662 69 793 194Q408 642 408 642L365 610Q190 466 190 331ZM506 1235V1234Q416 1234 365 1177T314 1031Q314 915 429 773L589 892Q685 966 685 1071Q685 1144 637 1189T506
1235Z" />
<glyph unicode="&apos;" horiz-adv-x="516" d="M322 1404V1231L258 984H195L218 1224V1404H322Z" />
<glyph unicode="(" horiz-adv-x="761" d="M201 515V530Q201 845 320 1107T602 1463L608 1462L631 1400Q494 1303 400 1062T305 532V514Q305 225 399 -15T631 -357L608 -417H602Q437 -321 319 -63T201 515Z" />
<glyph unicode=")" horiz-adv-x="770" d="M561 529V515Q561 194 443 -63T159 -417H154L131 -357Q267 -259 362 -17T457 514V532Q457 817 362 1060T131 1402L154 1462H159Q237 1417 309 1327T437 1116T527 842T561 529Z" />
<glyph unicode="*" horiz-adv-x="782" d="M130 694L325 964L26 1061L55 1152L354 1041L350 1374H444L437 1038L728 1153L758 1062L458 958L659 694L582 637L390 912L206 639L130 694Z" />
<glyph unicode="+" horiz-adv-x="1040" d="M567 1100V681H966V580H567V146H458V580H68V681H458V1100H567Z" />
<glyph unicode="," horiz-adv-x="353" d="M244 143V-10L149 -258H75L137 -7V143H244Z" />
<glyph unicode="-" horiz-adv-x="527" d="M475 661V570H44V661H475Z" />
<glyph unicode="." horiz-adv-x="440" d="M274 148V0H150V148H274Z" />
<glyph unicode="/" horiz-adv-x="732" d="M671 1298L125 -125H27L574 1298H671Z" />
<glyph unicode="0" horiz-adv-x="1075" d="M845 490V817Q845 1021 766 1128T537 1235T308 1128T230 817V490Q230 288 309 179T538 70T766 179T845 490ZM953 799V506Q953 253 845 116T539 -21T232 116T122 506V799Q122 1052 230 1189T536 1327T843 1190T953 799Z" />
<glyph unicode="1" horiz-adv-x="1022" d="M610 -7H502V1197L169 1159V1234L610 1313V-7Z" />
<glyph unicode="2" horiz-adv-x="1021" d="M124 1V84L554 571Q673 706 722 796T771 969Q771 1093 702 1166T507 1239Q359 1239 281 1158T203 934H103L101 940Q96 1108 207 1219T497 1330T777 1234T878 972Q878 869 816 761T621 504L260 95L262 91H937L938 1H124Z" />
<glyph unicode="3" horiz-adv-x="1021" d="M487 714Q627 714 702 783T778 974T708 1166T506 1237T295 1163T215 967H114L112 973Q108 1127 219 1228T505 1329T783 1233T886 966Q886 871 828 790T666 669Q786 634 848 553T910 354Q910 182 799 81T508 -20T209 80T94
349L95 354H196Q196 228 282 149T508 70T726 142T804 350Q804 620 488 620H363L362 714H487Z" />
<glyph unicode="4" horiz-adv-x="1022" d="M677 422V1169L671 1171L626 1073L190 422H677ZM784 1310V422H989V331H784V0H677V331H62V392L666 1310H784Z" />
<glyph unicode="5" horiz-adv-x="1022" d="M878 1308V1208H334L285 741Q339 789 399 812T555 838Q724 840 826 726T928 411T827 95T529 -21Q359 -21 255 72T156 337L157 343H254Q254 212 328 141T530 70Q821 70 821 414Q821 563 748 650T548 738T355 700T257 577L169
591L242 1308H878Z" />
<glyph unicode="6" horiz-adv-x="1022" d="M683 70T762 171T842 429T765 680T546 775Q438 775 357 719T245 572V476Q245 289 330 180T549 70ZM137 814Q137 1040 264 1183T582 1327Q727 1327 833 1268L805 1180Q751 1210 701 1222T582 1235Q435 1235 340 1122T245
824V708Q300 780 384 821T568 863Q744 863 847 743T950 426T840 104T549 -21T253 115T137 484V814Z" />
<glyph unicode="7" horiz-adv-x="1022" d="M69 1219V1310H929L928 1220Q713 965 602 706T453 110L443 0H335L345 110Q382 437 498 706T817 1219H69Z" />
<glyph unicode="8" horiz-adv-x="1022" d="M197 217T283 144T510 70T738 144T825 343T736 547T510 625T285 547T197 343ZM234 857T311 787T511 716T711 786T788 971T709 1160T509 1235T311 1163T234 974ZM336 1327T510 1327T790 1232T896 971Q896 866 835 786T669
669Q790 631 861 545T933 345Q933 171 818 75T511 -21T205 74T90 345Q90 460 160 546T352 670Q247 706 187 785T127 971Q127 1138 231 1232Z" />
<glyph unicode="9" horiz-adv-x="1022" d="M203 124Q318 70 464 70T698 170T785 456V587Q737 504 657 460T477 415Q298 415 189 538T79 860T193 1193T478 1327Q673 1327 784 1202T896 844V458Q896 232 778 106T459 -21Q306 -21 184 34L203 124ZM192 860H191Q191
706 269 606T477 506Q590 506 670 563T786 713V852Q786 1037 706 1136T483 1235Q357 1235 275 1127T192 860Z" />
<glyph unicode=":" horiz-adv-x="391" d="M235 133V0H123V133H235ZM235 957V824H123V957H235Z" />
<glyph unicode=";" horiz-adv-x="394" d="M241 103V-35L155 -258H89L144 -32V103H241ZM239 933V800H127V933H239Z" />
<glyph unicode="&lt;" horiz-adv-x="942" d="M814 777L261 532L164 507V502L261 477L814 235V122L69 463V550L814 891V777Z" />
<glyph unicode="=" horiz-adv-x="1032" d="M885 517V422H134V517H885ZM885 887V792H134V887H885Z" />
<glyph unicode="&gt;" horiz-adv-x="955" d="M680 536L112 780V891L872 550V463L112 122V234L680 480L778 505V510L680 536Z" />
<glyph unicode="?" horiz-adv-x="1022" d="M562 135V1H441V135H562ZM752 993Q752 1110 691 1174T517 1239T341 1176T274 1004H179L176 1010Q173 1158 267 1243T517 1329T764 1239T855 993Q855 877 800 785T626 582Q572 535 559 496T545 364L443 365Q444 448 451
488T483 562T565 650Q624 710 652 743T707 818T743 900T752 993Z" />
<glyph unicode="@" horiz-adv-x="1683" d="M906 752Q783 752 705 644T606 329Q591 188 629 106T752 24T899 64T1006 204V218L1049 708Q988 752 906 752ZM886 1233H887Q1237 1233 1414 1019T1577 416Q1567 213 1472 78Q1426 12 1353 -26T1190 -64Q1120 -64 1073
-19T1010 110Q915 -64 731 -64Q613 -64 552 43T508 329Q529 558 634 696T892 834Q972 834 1022 813T1141 737L1140 735H1142L1097 218Q1089 108 1121 61T1210 13Q1336 13 1411 122T1496 416Q1512 774 1359 964T883 1154Q590 1154 402 943T199 385Q182 39 346 -169T813
-377Q892 -377 972 -358T1110 -305L1138 -373Q1081 -410 990 -431T809 -453Q466 -453 280 -230T110 385Q120 639 218 831T489 1128T886 1233Z" />
<glyph unicode="A" horiz-adv-x="1151" d="M1011 0L876 365H275L140 0H29L527 1310H628L1122 0H1011ZM574 1171L311 462H841L580 1171H574Z" />
<glyph unicode="B" horiz-adv-x="1142" d="M642 630H279V89H625Q771 89 853 160T935 357T859 556T642 630ZM279 1218V721H581Q725 721 801 783T878 967Q878 1218 554 1218H279ZM172 1309H554Q763 1309 874 1223T986 965Q986 864 930 790T774 686Q894 664 968 574T1043
365Q1043 190 931 95T625 0L172 -1V1309Z" />
<glyph unicode="C" horiz-adv-x="1182" d="M1058 203T935 91T599 -21T252 136T118 546V759Q118 1012 252 1169T600 1327T936 1217T1075 905L1074 900H973Q928 1235 606 1235Q435 1235 331 1104T226 761V546Q226 333 330 202T602 70T862 154T974 407H1074L1075
402Q1058 203 935 91Z" />
<glyph unicode="D" horiz-adv-x="1210" d="M553 1219H279V91H553Q748 91 873 226T998 571V742Q998 949 873 1084T553 1219ZM553 0H172V1310H553Q795 1310 950 1150T1106 739V571Q1106 318 951 159T553 0Z" />
<glyph unicode="E" horiz-adv-x="1062" d="M910 726V635H279V91H1002V0H172V1310H997V1219H279V726H910Z" />
<glyph unicode="F" horiz-adv-x="1063" d="M916 707V614H279V0H172V1310H1008V1219H279V707H916Z" />
<glyph unicode="G" horiz-adv-x="1261" d="M1107 620V154Q1058 82 939 31T653 -21Q422 -21 277 134T131 538V778Q131 1022 270 1174T623 1327T959 1224T1100 947L1098 941H998Q974 1080 884 1157T625 1235T347 1109T239 780V538Q239 331 353 201T653 70Q776 70
869 104T999 186V528H651V620H1107Z" />
<glyph unicode="H" horiz-adv-x="1303" d="M1131 1310V0H1024V603H279V0H172V1310H279V695H1024V1310H1131Z" />
<glyph unicode="I" horiz-adv-x="499" d="M303 1310V0H195V1310H303Z" />
<glyph unicode="J" d="M743 370V1308H851V370Q851 192 745 86T459 -21T174 75T74 353L76 359H176Q176 217 251 144T468 70Q590 70 666 151T743 370Z" />
<glyph unicode="K" horiz-adv-x="1177" d="M279 617V0H172V1310H279V707H458L974 1310H1095L1097 1306L555 666L1136 5L1134 0H1006L459 617H279Z" />
<glyph unicode="L" horiz-adv-x="971" d="M280 1310V91H928V0H172V1310H280Z" />
<glyph unicode="M" horiz-adv-x="1598" d="M172 1310H313L795 157H800L1283 1310H1426V0H1319V579L1328 1152L1322 1154L835 0H761L275 1148H269L279 579V0H172V1310Z" />
<glyph unicode="N" horiz-adv-x="1309" d="M1137 1310V0H1030L285 1127L280 1126V0H172V1310H280L1024 185L1030 186V1310H1137Z" />
<glyph unicode="O" horiz-adv-x="1240" d="M1022 546V761Q1022 977 914 1105T617 1233T325 1106T220 761V546Q220 328 325 201T618 73T914 200T1022 546ZM1129 759V546Q1129 290 990 135T619 -21T249 134T112 546V759Q112 1015 248 1171T617 1327T989 1171T1129 759Z" />
<glyph unicode="P" horiz-adv-x="1140" d="M279 1220V636H623Q781 636 864 716T948 927T865 1139T623 1220H279ZM279 1H172V1311H623Q828 1311 941 1208T1055 928T942 648T623 545L279 546V1Z" />
<glyph unicode="Q" horiz-adv-x="1241" d="M1022 527V742Q1022 957 914 1085T617 1214T325 1086T220 742V527Q220 309 325 182T618 54T914 181T1022 527ZM1129 740V527Q1129 379 1081 262T940 68L1165 -145L1090 -212L852 12Q747 -40 617 -40Q386 -40 249 115T112
527V740Q112 996 248 1152T617 1308T989 1152T1129 740Z" />
<glyph unicode="R" horiz-adv-x="1213" d="M644 592H276V0H169V1310H613Q826 1310 937 1218T1049 948Q1049 842 989 761T818 641Q1047 582 1047 334V211Q1047 78 1109 22V0H999Q939 59 939 212V332Q939 454 861 523T644 592ZM276 1218V684H599Q773 684 857 753T941
951T859 1149T613 1218H276Z" />
<glyph unicode="S" horiz-adv-x="1108" d="M574 70Q731 70 826 138T922 317T841 494T563 614Q339 670 233 757T126 991T249 1232T571 1327T894 1216T1016 940L1014 935H915Q915 1069 821 1152T571 1235T324 1167T234 994T317 825T608 707T924 561T1031 317T905
72T575 -21Q371 -21 232 76Q165 124 127 198T90 365L92 371H191Q191 272 244 202Q345 70 574 70Z" />
<glyph unicode="T" horiz-adv-x="1092" d="M1050 1310V1219H599V0H491V1219H41V1310H1050Z" />
<glyph unicode="U" horiz-adv-x="1237" d="M981 1308H1088V420Q1088 209 960 94T618 -21T277 94T150 420V1308H258V420Q258 255 355 163T617 70T881 162T981 420V1308Z" />
<glyph unicode="V" horiz-adv-x="1137" d="M146 1310L540 221L566 134H572L598 221L991 1310H1108L619 0H518L29 1310H146Z" />
<glyph unicode="W" horiz-adv-x="1651" d="M162 1310L401 371L440 170L446 169L495 371L772 1310H874L1151 371L1199 168L1204 169L1247 371L1483 1310H1593L1256 0H1155L860 1005L826 1143H821L788 1005L491 0H388L51 1310H162Z" />
<glyph unicode="X" horiz-adv-x="1130" d="M197 1310L565 751L935 1310H1066L630 664L1080 0H951L567 578L184 0H53L503 664L67 1310H197Z" />
<glyph unicode="Y" horiz-adv-x="1120" d="M611 0H504V485L30 1310H155L558 582L964 1310H1089L611 479V0Z" />
<glyph unicode="Z" horiz-adv-x="1102" d="M1018 91V0H86V83L858 1219H110V1310H989V1232L214 91H1018Z" />
<glyph unicode="[" horiz-adv-x="622" d="M517 1498V1410H326V-193H517V-281H223V1498H517Z" />
<glyph unicode="\" horiz-adv-x="726" d="M590 -125L43 1298H149L696 -125H590Z" />
<glyph unicode="]" horiz-adv-x="622" d="M114 1410V1498H407V-281H114V-193H304V1410H114Z" />
<glyph unicode="^" horiz-adv-x="767" d="M347 1165L174 729H69L338 1383H419L688 729H583L407 1165L380 1260H374L347 1165Z" />
<glyph unicode="_" horiz-adv-x="796" d="M794 -10V-101H1V-10H794Z" />
<glyph unicode="`" horiz-adv-x="527" d="M224 1449L406 1210H301L84 1445L86 1449H224Z" />
<glyph unicode="a" horiz-adv-x="991" d="M392 -22Q251 -22 172 52T93 259T209 472T524 553H739V674Q739 779 672 838T489 897T298 841T223 702L124 703L122 708Q117 820 223 904T492 989T750 906T846 672V193Q846 92 871 -2L758 -4Q738 84 738 155Q681 75 591
27T392 -22ZM200 254Q200 173 255 124T414 74T608 127T739 268V471H522Q377 471 289 410T200 254Z" />
<glyph unicode="b" horiz-adv-x="1026" d="M532 896Q326 896 248 697V257Q326 73 533 73Q672 73 744 174T816 458L817 477Q817 669 744 782T532 896ZM553 -21Q342 -21 244 145L232 -2H139V1402H247V819Q350 990 553 990Q728 990 827 852T927 477L925 458Q925 237
826 108T553 -21Z" />
<glyph unicode="c" horiz-adv-x="955" d="M195 466H194Q194 284 271 177T502 70Q614 70 693 133T773 301H868L870 296Q875 163 765 71T503 -21Q307 -21 197 112T87 466V504Q87 722 197 856T502 990Q665 990 770 895T872 647L870 641H774Q774 757 697 827T502 898Q351
898 273 791T195 504V466Z" />
<glyph unicode="d" horiz-adv-x="1026" d="M100 458V477Q100 713 199 851T473 990Q672 990 775 824V1402H882V-2H787L778 139Q675 -21 473 -21Q298 -21 199 108T100 458ZM208 477V458Q208 276 279 175T491 73Q692 73 774 249V706Q691 896 493 896Q354 896 281
783T208 477Z" />
<glyph unicode="e" horiz-adv-x="950" d="M771 600Q771 730 696 814T498 898T294 808T199 578L201 573H771V600ZM508 -21Q324 -21 204 114T83 456V506Q83 714 202 852T497 990T775 878T878 574V482H191V456Q191 288 278 179T508 70Q698 70 801 178L847 104Q725
-21 508 -21Z" />
<glyph unicode="f" horiz-adv-x="606" d="M329 0H221V886H59V974H221V1116Q221 1264 293 1343T500 1423Q556 1423 622 1406L608 1317Q564 1328 510 1328Q422 1328 376 1273T329 1116V974H561V886H329V0Z" />
<glyph unicode="g" horiz-adv-x="1027" d="M477 949Q678 949 781 775L794 931H885V-30Q885 -220 781 -328T492 -436Q420 -436 341 -419T204 -372L231 -281Q349 -340 490 -340T704 -260T777 -30V92Q672 -62 475 -62Q300 -62 200 67T100 417L101 436Q101 672 201
810T477 949ZM208 435V417Q208 237 281 134T494 31Q695 31 776 210V662Q696 855 496 855Q357 855 283 741T208 435Z" />
<glyph unicode="h" horiz-adv-x="1026" d="M569 992Q887 992 887 600V0H779V602Q779 898 545 898Q436 898 361 842T250 686V0H142V1404H250L249 807Q352 992 569 992Z" />
<glyph unicode="i" horiz-adv-x="419" d="M263 974V0H156V974H263ZM263 1404V1253H156V1404H263Z" />
<glyph unicode="j" horiz-adv-x="436" d="M162 930H270V-124Q270 -274 199 -355T-2 -437Q-47 -437 -103 -420L-91 -329Q-51 -343 -8 -343Q73 -343 117 -287T162 -124V930ZM264 1360V1213H157V1360H264Z" />
<glyph unicode="k" horiz-adv-x="905" d="M251 474V0H143V1404H251V567H365L726 974H852L854 969L464 530L895 5L892 0H769L375 474H251Z" />
<glyph unicode="l" horiz-adv-x="419" d="M263 1404V0H156V1404H263Z" />
<glyph unicode="m" horiz-adv-x="1634" d="M870 619L871 584V0H762V570Q762 741 701 819T521 898Q305 898 246 684V0H137V974H234L244 813Q343 992 555 992Q784 992 849 773Q943 992 1173 992Q1498 992 1498 568V0H1390V570Q1390 745 1330 821T1149 898T958 824T870 619Z" />
<glyph unicode="n" horiz-adv-x="1026" d="M142 974H238L247 804Q345 992 563 992Q724 992 805 895T887 593V0H779V592Q779 755 719 826T543 898T356 841T250 680V0H142V974Z" />
<glyph unicode="o" horiz-adv-x="1026" d="M190 499V470Q190 294 277 182T513 70T749 182T836 470V499Q836 671 748 784T512 898T277 785T190 499ZM82 470V499Q82 717 200 853T512 990T824 854T943 499V470Q943 252 826 116T513 -21T200 115T82 470Z" />
<glyph unicode="p" horiz-adv-x="1026" d="M926 436V417Q926 197 827 68T554 -61Q350 -61 248 88V-417H140V931H231L245 780Q344 949 552 949Q727 949 826 811T926 436ZM818 418V436Q818 628 743 742T528 856Q328 856 249 669V201Q329 29 530 29Q669 29 743 133T818 418Z" />
<glyph unicode="q" horiz-adv-x="1026" d="M209 437V418Q209 236 281 133T492 30Q684 30 771 200V677Q686 858 494 858Q355 858 282 745T209 437ZM474 950Q675 950 773 789L784 932H878V-416H771V86Q668 -60 473 -60Q298 -60 199 68T100 418L101 437Q101 673 200
811T474 950Z" />
<glyph unicode="r" horiz-adv-x="627" d="M251 0H143V974H238L251 812V801Q343 992 534 992Q571 992 605 982L591 881L511 887Q412 887 346 831T251 672V0Z" />
<glyph unicode="s" horiz-adv-x="939" d="M473 70V71Q588 71 656 121T725 245T667 368T466 449Q286 488 206 550T125 726T220 914T473 990T728 910T821 704L819 699H719Q719 782 650 840T468 898T294 850T232 729T285 614T502 535T749 432T833 247T735 54T468
-21T197 61T99 265L101 271H200Q206 170 281 120T473 70Z" />
<glyph unicode="t" horiz-adv-x="612" d="M203 1221H311V972H526V884H311V249Q311 74 438 74Q491 74 546 83L563 3Q505 -21 419 -21Q203 -21 203 249V884H34V972H203V1221Z" />
<glyph unicode="u" horiz-adv-x="1026" d="M467 -21Q309 -21 224 85T139 407V972H247V406Q247 231 305 152T480 73Q715 73 777 279V972H885V-2H789L781 157Q684 -21 467 -21Z" />
<glyph unicode="v" horiz-adv-x="902" d="M151 974L419 244L451 130H456L491 244L755 974H867L497 0H410L40 974H151Z" />
<glyph unicode="w" horiz-adv-x="1395" d="M170 974L352 316L389 142H394L440 316L647 974H740L947 316L994 138H999L1040 316L1217 974H1328L1045 0H953L737 666L695 834H689L646 666L434 0H341L59 974H170Z" />
<glyph unicode="x" horiz-adv-x="902" d="M186 974L448 576L712 974H840L509 496L853 0H727L450 415L173 0H45L390 496L59 974H186Z" />
<glyph unicode="y" horiz-adv-x="902" d="M175 -437Q122 -437 90 -424L103 -334Q133 -341 172 -341Q238 -341 281 -295T356 -163L408 -31L32 930H151L418 220L452 104H457L751 930H872L449 -199Q405 -314 344 -375T175 -437Z" />
<glyph unicode="z" horiz-adv-x="902" d="M847 91V0H81V79L668 881H99V974H804V894L214 91H847Z" />
<glyph unicode="{" horiz-adv-x="794" d="M346 50V255Q346 369 294 429T137 490V580Q346 580 346 813V1020Q346 1181 417 1285T648 1438L671 1370Q449 1298 449 1019V812Q449 594 274 532Q361 503 405 431T449 254V49Q449 -222 674 -299L648 -367Q488 -318 417
-214T346 50Z" />
<glyph unicode="|" horiz-adv-x="553" d="M323 1310V-243H235V1310H323Z" />
<glyph unicode="}" horiz-adv-x="794" d="M346 48V253Q346 475 525 532Q346 589 346 811V1018Q346 1297 123 1369L147 1437Q305 1389 377 1284T449 1019V812Q449 579 658 579V489Q449 489 449 254V49Q449 -111 378 -215T147 -368L121 -300Q346 -222 346 48Z" />
<glyph unicode="~" horiz-adv-x="1262" d="M877 423Q799 423 735 454T588 558Q475 654 382 654Q310 654 263 600T216 455L129 469Q129 589 200 670T382 751Q458 751 523 720T672 616Q729 564 776 541T877 518Q947 518 995 576T1043 722L1131 708Q1131 590 1058
507T877 423Z" />
<glyph unicode="&#xa0;" horiz-adv-x="509" />
<glyph unicode="&#xa1;" horiz-adv-x="407" d="M151 -359L157 585H257L263 -359H151ZM167 956T201 956T255 936T275 884T255 832T201 812T147 832T126 884T146 936Z" />
<glyph unicode="&#xa2;" horiz-adv-x="1004" d="M521 49Q633 49 709 112T793 277H896Q889 152 798 64T571 -39V-244H463V-38Q296 -17 201 111T106 449V481Q106 683 201 813T463 964V1162H571V965Q712 950 802 856T897 621H794Q787 736 712 806T522 876Q375 876
295 771T215 475V444L213 445Q213 256 293 153T521 49Z" />
<glyph unicode="&#xa3;" horiz-adv-x="1053" d="M986 94V0H88V94H177Q221 105 245 190Q263 254 261 330L253 581H84V674H249L241 935Q241 1116 340 1222T604 1328T865 1234T960 979H850Q850 1100 783 1167T601 1234T419 1155T353 935L361 674H671V581L365 582L373
332Q375 174 315 94H986Z" />
<glyph unicode="&#xa4;" horiz-adv-x="1333" d="M234 670T234 544T292 311T452 141Q552 78 668 78T885 140T1043 312Q1101 419 1101 543T1043 775T883 944T668 1006T452 945L453 946Q351 884 293 777ZM1020 116Q871 -22 668 -22T315 115L176 -27L99 50L242 195Q131
346 131 548T250 903L99 1057L176 1135L326 982Q474 1109 666 1109T1007 980L1160 1136L1238 1057L1084 899Q1201 746 1201 549T1091 199L1238 51L1160 -27L1020 116Z" />
<glyph unicode="&#xa5;" horiz-adv-x="1101" d="M977 635V554H600V371H977V292H600V0H490V292H117V371H490V554H117V635H446L40 1310H168L546 661L925 1310H1054L646 635H977Z" />
<glyph unicode="&#xa6;" horiz-adv-x="400" d="M251 -270H143V424H251V-270ZM251 1283V601H143V1283H251Z" />
<glyph unicode="&#xa7;" horiz-adv-x="1115" d="M969 498Q1008 431 1008 342T954 191T799 98Q885 52 927 -11T969 -171Q969 -319 856 -405T539 -491T213 -389Q93 -287 93 -104L201 -102Q201 -243 293 -321T537 -400T775 -338T860 -173Q860 -105 830 -64T726 15Q686
34 501 91T257 182Q98 276 98 448Q98 538 150 601T299 695Q219 739 179 802T139 960Q139 1105 254 1192T567 1280T876 1179T988 892H880Q880 1025 794 1106T561 1188T331 1127T247 961Q247 890 274 849T369 773T582 697Q756 652 841 606T969 493V498ZM313 633T260
581T206 452T237 332T338 255T597 168L680 143Q781 155 840 206T899 341T840 477T623 581L410 644Q313 633 260 581Z" />
<glyph unicode="&#xa8;" horiz-adv-x="793" d="M630 1316T596 1316T542 1336T522 1387T542 1439T596 1460T651 1440T671 1388T651 1336ZM277 1357T257 1337T203 1317T149 1337T129 1388T148 1440T202 1461T257 1441T277 1389Z" />
<glyph unicode="&#xa9;" horiz-adv-x="1473" d="M920 534H1002L1004 529Q1007 395 934 324T726 252T509 347T427 600V707Q427 864 508 959T725 1055T934 984T1004 779L1003 774H921Q921 974 726 974Q628 974 572 901T516 708V600Q516 479 571 406T725 333T872
382T920 534ZM1058 1156T954 1202T735 1248T515 1202T336 1077T217 888T173 654Q173 489 247 352T451 135T734 56T1017 135T1222 351T1297 654Q1297 777 1253 887T1134 1077ZM735 -21Q604 -21 486 31T282 173T146 388T96 654Q96 841 181 995T412 1238T735 1326T1057
1238T1288 996T1373 654T1288 312T1057 68T735 -21Z" />
<glyph unicode="&#xaa;" horiz-adv-x="815" d="M365 690Q260 690 201 742T141 889T217 1039T437 1094H563V1149Q563 1310 418 1310Q335 1310 290 1278T244 1181L148 1187Q148 1280 222 1338T414 1397T596 1332T661 1147V864Q661 779 684 704L584 703Q571 738 565
787Q486 690 365 690ZM239 890Q239 777 383 777Q431 777 482 804T563 870V1021H446Q239 1021 239 890Z" />
<glyph unicode="&#xab;" horiz-adv-x="840" d="M461 847L213 497L461 148H367L101 489V506L367 847H461ZM770 847L522 497L770 148H676L410 489V506L676 847H770Z" />
<glyph unicode="&#xac;" horiz-adv-x="1005" d="M842 737V386H734V642H112V737H842Z" />
<glyph unicode="&#xad;" horiz-adv-x="527" d="M471 661V570H40V661H471Z" />
<glyph unicode="&#xae;" horiz-adv-x="1478" d="M752 597H583V287H495V1042H727Q861 1042 931 986T1002 815T875 641Q990 600 990 452Q990 340 1005 302V288H913Q901 319 901 451Q901 531 868 564T752 597ZM583 961V679H746Q820 679 866 717T913 824T874 926T740
961H583ZM241 951Q166 814 166 653T241 354T448 136T729 56T1012 136Q1143 216 1217 354T1291 652T1219 949T1016 1167T732 1248T449 1169T243 951H241ZM256 165T174 319T92 656T176 994T409 1239Q559 1328 731 1328T1054 1239Q1203 1149 1287 994T1371 657T1289
320T1058 72T732 -22T406 71Z" />
<glyph unicode="&#xaf;" horiz-adv-x="787" d="M698 1446V1359H95V1446H698Z" />
<glyph unicode="&#xb0;" horiz-adv-x="697" d="M486 1264T448 1304T350 1345T250 1304T210 1202T250 1102T349 1062T447 1101T486 1202ZM259 1426T349 1426T503 1360T567 1201T504 1044T349 980T193 1044T129 1201T194 1360Z" />
<glyph unicode="&#xb1;" horiz-adv-x="977" d="M867 91V0H115V91H867ZM548 1140V746H900V654H548V260H448V654H76V746H448V1140H548Z" />
<glyph unicode="&#xb4;" horiz-adv-x="518" d="M112 1245L284 1496H414L206 1245H112Z" />
<glyph unicode="&#xb5;" horiz-adv-x="1026" d="M146 932H253V360Q253 195 310 113T490 31Q721 31 773 239V932H881V-42H783L777 97Q689 -60 497 -60Q331 -60 253 53V-416H146V932Z" />
<glyph unicode="&#xb6;" horiz-adv-x="876" d="M721 0H613V468H516Q381 468 281 519T128 668Q75 762 75 889Q75 1082 194 1196T519 1310H721V0Z" />
<glyph unicode="&#xb7;" horiz-adv-x="453" d="M300 676T279 656T223 635T167 655T147 709T167 763T222 784T278 763T300 709Z" />
<glyph unicode="&#xb8;" horiz-adv-x="448" d="M359 -255Q359 -338 288 -386T95 -435L88 -365Q169 -365 219 -336T270 -257T234 -186T112 -158L138 -44H221L211 -101Q359 -120 359 -255Z" />
<glyph unicode="&#xba;" horiz-adv-x="830" d="M219 1083V999Q219 894 269 835T412 776T555 835T607 1002V1088Q607 1192 555 1251T412 1311T270 1251T219 1083ZM122 1003V1088Q122 1227 201 1312T413 1397T625 1312T704 1083V999Q704 860 625 775T414 690T202
774T122 1003Z" />
<glyph unicode="&#xbb;" horiz-adv-x="835" d="M94 866H190L455 520V503L190 162H94L343 511L94 866ZM413 866H509L774 520V503L509 162H413L662 511L413 866Z" />
<glyph unicode="&#xbc;" horiz-adv-x="1336" d="M1006 1153L366 129L300 172L940 1196L1006 1153Z" />
<glyph unicode="&#xbd;" horiz-adv-x="1393" d="M966 1153L326 129L260 172L900 1196L966 1153Z" />
<glyph unicode="&#xbe;" horiz-adv-x="1431" d="M1136 1153L496 129L430 172L1070 1196L1136 1153Z" />
<glyph unicode="&#xbf;" horiz-adv-x="846" d="M186 71T186 -46T246 -225T418 -288T593 -226T659 -56H767Q765 -206 671 -294T420 -383T171 -294T79 -47Q79 56 128 146T303 356Q380 420 386 518L388 580L498 581Q496 468 473 416T373 287T259 167Q186 71 186 -46ZM362
912T382 932T436 953T490 933T510 881T491 830T437 809T382 829T362 881Z" />
<glyph unicode="&#xc0;" horiz-adv-x="1151" d="M1008 0L873 365H272L137 0H26L524 1310H625L1119 0H1008ZM571 1171L308 462H838L577 1171H571ZM499 1764L681 1525H576L359 1760L361 1764H499Z" />
<glyph unicode="&#xc1;" horiz-adv-x="1151" d="M1008 0L873 365H272L137 0H26L524 1310H625L1119 0H1008ZM571 1171L308 462H838L577 1171H571ZM556 1560L728 1811H858L650 1560H556Z" />
<glyph unicode="&#xc2;" horiz-adv-x="1151" d="M1008 0L873 365H272L137 0H26L524 1310H625L1119 0H1008ZM571 1171L308 462H838L577 1171H571ZM847 1573H747L595 1738L445 1573H347V1585L561 1814H630L847 1582V1573Z" />
<glyph unicode="&#xc3;" horiz-adv-x="1151" d="M1008 0L873 365H272L137 0H26L524 1310H625L1119 0H1008ZM571 1171L308 462H838L577 1171H571ZM727 1595Q688 1595 640 1619T549 1669T469 1694T405 1666T377 1588L296 1591Q296 1674 345 1728T472 1782Q523 1782
565 1757Q580 1748 604 1732T640 1707T675 1691T722 1683Q765 1683 793 1713T822 1792L902 1787Q902 1702 852 1649T727 1595Z" />
<glyph unicode="&#xc4;" horiz-adv-x="1151" d="M1008 0L873 365H272L137 0H26L524 1310H625L1119 0H1008ZM571 1171L308 462H838L577 1171H571ZM833 1631T799 1631T745 1651T725 1702T745 1754T799 1775T854 1755T874 1703T854 1651ZM480 1672T460 1652T406 1632T352
1652T332 1703T351 1755T405 1776T460 1756T480 1704Z" />
<glyph unicode="&#xc5;" horiz-adv-x="1151" d="M1010 0L875 365H274L139 0H28L526 1310H627L1121 0H1010ZM573 1171L310 462H840L579 1171H573ZM716 1743T685 1773T611 1803T537 1773T507 1697T536 1622T611 1592T686 1621T716 1696ZM535 1528T486 1576T436 1696T487
1817T610 1867T733 1818T784 1697T735 1577T610 1528V1528Q535 1528 486 1576Z" />
<glyph unicode="&#xc6;" horiz-adv-x="1679" d="M1641 91V0H905L890 350H354L147 0H15L808 1310H1586V1219H961L982 728H1512V636H986L1009 91H1641ZM855 1198L414 452H887L855 1198Z" />
<glyph unicode="&#xc7;" horiz-adv-x="1197" d="M827 -264Q827 -347 756 -395T563 -444L556 -374Q637 -374 687 -345T738 -266T702 -195T580 -167L606 -53H689L679 -110Q827 -129 827 -264ZM1045 203T922 91T586 -21T239 136T105 546V759Q105 1012 239 1169T587
1327T923 1217T1062 905L1061 900H960Q915 1235 593 1235Q422 1235 318 1104T213 761V546Q213 333 317 202T589 70T849 154T961 407H1061L1062 402Q1045 203 922 91Z" />
<glyph unicode="&#xc8;" horiz-adv-x="1049" d="M893 726V635H262V91H985V0H155V1310H980V1219H262V726H893ZM462 1770L644 1531H539L322 1766L324 1770H462Z" />
<glyph unicode="&#xc9;" horiz-adv-x="1049" d="M893 726V635H262V91H985V0H155V1310H980V1219H262V726H893ZM519 1566L691 1817H821L613 1566H519Z" />
<glyph unicode="&#xca;" horiz-adv-x="1049" d="M893 726V635H262V91H985V0H155V1310H980V1219H262V726H893ZM810 1579H710L558 1744L408 1579H310V1591L524 1820H593L810 1588V1579Z" />
<glyph unicode="&#xcb;" horiz-adv-x="1049" d="M893 726V635H262V91H985V0H155V1310H980V1219H262V726H893ZM796 1637T762 1637T708 1657T688 1708T708 1760T762 1781T817 1761T837 1709T817 1657ZM443 1678T423 1658T369 1638T315 1658T295 1709T314 1761T368
1782T423 1762T443 1710Z" />
<glyph unicode="&#xcc;" horiz-adv-x="491" d="M303 1310V0H195V1310H303ZM134 1770L316 1531H211L-6 1766L-4 1770H134Z" />
<glyph unicode="&#xcd;" horiz-adv-x="491" d="M284 1310V0H176V1310H284ZM171 1566L343 1817H473L265 1566H171Z" />
<glyph unicode="&#xce;" horiz-adv-x="491" d="M303 1310V0H195V1310H303ZM482 1579H382L230 1744L80 1579H-18V1591L196 1820H265L482 1588V1579Z" />
<glyph unicode="&#xcf;" horiz-adv-x="491" d="M305 1310V0H197V1310H305ZM470 1637T436 1637T382 1657T362 1708T382 1760T436 1781T491 1761T511 1709T491 1657ZM117 1678T97 1658T43 1638T-11 1658T-31 1709T-12 1761T42 1782T97 1762T117 1710Z" />
<glyph unicode="&#xd0;" horiz-adv-x="1234" d="M582 712V620H304V94H548Q761 94 885 230T1010 602V717Q1010 943 887 1079T562 1216H304V712H582ZM551 0H194V620H31V712H194V1310H560Q723 1310 850 1237T1048 1028T1120 716V595Q1120 418 1050 283T848 74Q721 0 551 0Z" />
<glyph unicode="&#xd1;" horiz-adv-x="1309" d="M1119 1310V0H1012L267 1127L262 1126V0H154V1310H262L1006 185L1012 186V1310H1119ZM796 1595Q757 1595 709 1619T618 1669T538 1694T474 1666T446 1588L365 1591Q365 1674 414 1728T541 1782Q592 1782 634 1757Q649
1748 673 1732T709 1707T744 1691T791 1683Q834 1683 862 1713T891 1792L971 1787Q971 1702 921 1649T796 1595Z" />
<glyph unicode="&#xd2;" horiz-adv-x="1247" d="M1011 546V761Q1011 977 903 1105T606 1233T314 1106T209 761V546Q209 328 314 201T607 73T903 200T1011 546ZM1118 759V546Q1118 290 979 135T608 -21T238 134T101 546V759Q101 1015 237 1171T606 1327T978 1171T1118
759ZM540 1776L722 1537H617L400 1772L402 1776H540Z" />
<glyph unicode="&#xd3;" horiz-adv-x="1247" d="M1009 546V761Q1009 977 901 1105T604 1233T312 1106T207 761V546Q207 328 312 201T605 73T901 200T1009 546ZM1116 759V546Q1116 290 977 135T606 -21T236 134T99 546V759Q99 1015 235 1171T604 1327T976 1171T1116
759ZM596 1572L768 1823H898L690 1572H596Z" />
<glyph unicode="&#xd4;" horiz-adv-x="1247" d="M1009 546V761Q1009 977 901 1105T604 1233T312 1106T207 761V546Q207 328 312 201T605 73T901 200T1009 546ZM1116 759V546Q1116 290 977 135T606 -21T236 134T99 546V759Q99 1015 235 1171T604 1327T976 1171T1116
759ZM887 1585H787L635 1750L485 1585H387V1597L601 1826H670L887 1594V1585Z" />
<glyph unicode="&#xd5;" horiz-adv-x="1247" d="M1009 546V761Q1009 977 901 1105T604 1233T312 1106T207 761V546Q207 328 312 201T605 73T901 200T1009 546ZM1116 759V546Q1116 290 977 135T606 -21T236 134T99 546V759Q99 1015 235 1171T604 1327T976 1171T1116
759ZM767 1607Q728 1607 680 1631T589 1681T509 1706T445 1678T417 1600L336 1603Q336 1686 385 1740T512 1794Q563 1794 605 1769Q620 1760 644 1744T680 1719T715 1703T762 1695Q805 1695 833 1725T862 1804L942 1799Q942 1714 892 1661T767 1607Z" />
<glyph unicode="&#xd6;" horiz-adv-x="1247" d="M1009 546V761Q1009 977 901 1105T604 1233T312 1106T207 761V546Q207 328 312 201T605 73T901 200T1009 546ZM1116 759V546Q1116 290 977 135T606 -21T236 134T99 546V759Q99 1015 235 1171T604 1327T976 1171T1116
759ZM873 1643T839 1643T785 1663T765 1714T785 1766T839 1787T894 1767T914 1715T894 1663ZM520 1684T500 1664T446 1644T392 1664T372 1715T391 1767T445 1788T500 1768T520 1716Z" />
<glyph unicode="&#xd7;" horiz-adv-x="965" d="M155 239L84 310L406 639L97 954L168 1026L476 711L785 1026L856 954L547 639L869 310L798 239L476 567L155 239Z" />
<glyph unicode="&#xd8;" horiz-adv-x="1247" d="M1134 717V577Q1134 395 1072 259T894 48T616 -26T338 61L247 -83H153L276 112Q113 276 113 584V716Q113 897 176 1034T355 1246T623 1320Q823 1320 958 1194L1054 1346H1147L1013 1133Q1134 968 1134 717ZM624
69Q813 69 917 202T1022 578L1023 717Q1023 906 951 1035L391 145Q486 69 624 69ZM901 1105Q793 1223 616 1223T331 1088T223 713L222 575Q222 340 332 203L901 1105Z" />
<glyph unicode="&#xd9;" horiz-adv-x="1211" d="M966 1308H1073V420Q1073 209 945 94T603 -21T262 94T135 420V1308H243V420Q243 255 340 163T602 70T866 162T966 420V1308ZM527 1764L709 1525H604L387 1760L389 1764H527Z" />
<glyph unicode="&#xda;" horiz-adv-x="1211" d="M965 1308H1072V420Q1072 209 944 94T602 -21T261 94T134 420V1308H242V420Q242 255 339 163T601 70T865 162T965 420V1308ZM583 1560L755 1811H885L677 1560H583Z" />
<glyph unicode="&#xdb;" horiz-adv-x="1211" d="M965 1308H1072V420Q1072 209 944 94T602 -21T261 94T134 420V1308H242V420Q242 255 339 163T601 70T865 162T965 420V1308ZM874 1573H774L622 1738L472 1573H374V1585L588 1814H657L874 1582V1573Z" />
<glyph unicode="&#xdc;" horiz-adv-x="1211" d="M965 1308H1072V420Q1072 209 944 94T602 -21T261 94T134 420V1308H242V420Q242 255 339 163T601 70T865 162T965 420V1308ZM860 1631T826 1631T772 1651T752 1702T772 1754T826 1775T881 1755T901 1703T881 1651ZM507
1672T487 1652T433 1632T379 1652T359 1703T378 1755T432 1776T487 1756T507 1704Z" />
<glyph unicode="&#xdd;" horiz-adv-x="1103" d="M609 0H502V485L28 1310H153L556 582L962 1310H1087L609 479V0ZM527 1554L699 1805H829L621 1554H527Z" />
<glyph unicode="&#xde;" horiz-adv-x="1093" d="M272 946V383H563Q706 383 791 459T877 661T796 865T577 946H272ZM165 1310H272V1037H564Q693 1037 788 992T935 860T986 664Q986 496 877 396T577 292H273V0H165V1310Z" />
<glyph unicode="&#xdf;" horiz-adv-x="1080" d="M137 0V1014Q137 1194 222 1292T454 1390T686 1314T771 1112Q771 1059 759 1016T715 916T672 821T661 736T697 643T820 532T947 405T987 272Q987 141 893 60T649 -21Q573 -21 492 0T374 51L404 142Q440 114 509
92T636 69Q745 69 812 126T879 272Q879 326 841 377T718 489Q634 552 594 612T553 736T609 928T666 1105Q666 1189 610 1242T471 1296Q248 1296 244 1020L245 0H137Z" />
<glyph unicode="&#xe0;" horiz-adv-x="987" d="M383 -22Q242 -22 163 52T84 259T200 472T515 553H730V674Q730 779 663 838T480 897T289 841T214 702L115 703L113 708Q108 820 214 904T483 989T741 906T837 672V193Q837 92 862 -2L749 -4Q729 84 729 155Q672 75
582 27T383 -22ZM191 254Q191 173 246 124T405 74T599 127T730 268V471H513Q368 471 280 410T191 254ZM430 1449L612 1210H507L290 1445L292 1449H430Z" />
<glyph unicode="&#xe1;" horiz-adv-x="987" d="M383 -22Q242 -22 163 52T84 259T200 472T515 553H730V674Q730 779 663 838T480 897T289 841T214 702L115 703L113 708Q108 820 214 904T483 989T741 906T837 672V193Q837 92 862 -2L749 -4Q729 84 729 155Q672 75
582 27T383 -22ZM191 254Q191 173 246 124T405 74T599 127T730 268V471H513Q368 471 280 410T191 254ZM487 1245L659 1496H789L581 1245H487Z" />
<glyph unicode="&#xe2;" horiz-adv-x="987" d="M383 -22Q242 -22 163 52T84 259T200 472T515 553H730V674Q730 779 663 838T480 897T289 841T214 702L115 703L113 708Q108 820 214 904T483 989T741 906T837 672V193Q837 92 862 -2L749 -4Q729 84 729 155Q672 75
582 27T383 -22ZM191 254Q191 173 246 124T405 74T599 127T730 268V471H513Q368 471 280 410T191 254ZM778 1258H678L526 1423L376 1258H278V1270L492 1499H561L778 1267V1258Z" />
<glyph unicode="&#xe3;" horiz-adv-x="987" d="M383 -22Q242 -22 163 52T84 259T200 472T515 553H730V674Q730 779 663 838T480 897T289 841T214 702L115 703L113 708Q108 820 214 904T483 989T741 906T837 672V193Q837 92 862 -2L749 -4Q729 84 729 155Q672 75
582 27T383 -22ZM191 254Q191 173 246 124T405 74T599 127T730 268V471H513Q368 471 280 410T191 254ZM658 1280Q619 1280 571 1305T480 1354T400 1379T336 1351T308 1273L227 1276Q227 1359 276 1413T403 1467Q454 1467 496 1442Q511 1433 535 1417T571 1392T606
1376T653 1368Q696 1368 724 1398T753 1477L833 1472Q833 1387 783 1334T658 1280Z" />
<glyph unicode="&#xe4;" horiz-adv-x="987" d="M383 -22Q242 -22 163 52T84 259T200 472T515 553H730V674Q730 779 663 838T480 897T289 841T214 702L115 703L113 708Q108 820 214 904T483 989T741 906T837 672V193Q837 92 862 -2L749 -4Q729 84 729 155Q672 75
582 27T383 -22ZM191 254Q191 173 246 124T405 74T599 127T730 268V471H513Q368 471 280 410T191 254ZM764 1316T730 1316T676 1336T656 1387T676 1439T730 1460T785 1440T805 1388T785 1336ZM411 1357T391 1337T337 1317T283 1337T263 1388T282 1440T336 1461T391
1441T411 1389Z" />
<glyph unicode="&#xe5;" horiz-adv-x="987" d="M384 -22Q243 -22 164 52T85 259T201 472T516 553H731V674Q731 779 664 838T481 897T290 841T215 702L116 703L114 708Q109 820 215 904T484 989T742 906T838 672V193Q838 92 863 -2L750 -4Q730 84 730 155Q673 75
583 27T384 -22ZM192 254Q192 173 247 124T406 74T600 127T731 268V471H514Q369 471 281 410T192 254ZM646 1428T615 1458T541 1488T467 1458T437 1382T466 1307T541 1277T616 1306T646 1381ZM465 1213T416 1261T366 1381T417 1502T540 1552T663 1503T714 1382T665
1262T540 1213V1213Q465 1213 416 1261Z" />
<glyph unicode="&#xe6;" horiz-adv-x="1559" d="M413 70Q494 70 578 111T704 210V480H474Q349 480 272 426T187 276L186 258Q186 170 245 120T413 70ZM1386 598Q1386 738 1314 818T1118 898T913 810T815 570H1386V598ZM1140 -20Q895 -20 781 165Q727 77 626 29T397
-20Q245 -20 162 55T78 267T177 484T461 567H704V646Q704 767 647 832T474 898T284 840T210 687L103 698Q103 828 207 909T476 990Q712 990 783 798Q838 890 922 940T1112 990Q1289 990 1389 882T1492 578V482H811V456Q811 274 897 173T1144 71T1430 177L1472 99H1473Q1344
-20 1140 -20Z" />
<glyph unicode="&#xe7;" horiz-adv-x="950" d="M692 -264Q692 -347 621 -395T428 -444L421 -374Q502 -374 552 -345T603 -266T567 -195T445 -167L471 -53H554L544 -110Q692 -129 692 -264ZM186 466H185Q185 284 262 177T493 70Q605 70 684 133T764 301H859L861
296Q866 163 756 71T494 -21Q298 -21 188 112T78 466V504Q78 722 188 856T493 990Q656 990 761 895T863 647L861 641H765Q765 757 688 827T493 898Q342 898 264 791T186 504V466Z" />
<glyph unicode="&#xe8;" horiz-adv-x="952" d="M762 600Q762 730 687 814T489 898T285 808T190 578L192 573H762V600ZM499 -21Q315 -21 195 114T74 456V506Q74 714 193 852T488 990T766 878T869 574V482H182V456Q182 288 269 179T499 70Q689 70 792 178L838 104Q716
-21 499 -21ZM417 1449L599 1210H494L277 1445L279 1449H417Z" />
<glyph unicode="&#xe9;" horiz-adv-x="952" d="M762 600Q762 730 687 814T489 898T285 808T190 578L192 573H762V600ZM499 -21Q315 -21 195 114T74 456V506Q74 714 193 852T488 990T766 878T869 574V482H182V456Q182 288 269 179T499 70Q689 70 792 178L838 104Q716
-21 499 -21ZM474 1245L646 1496H776L568 1245H474Z" />
<glyph unicode="&#xea;" horiz-adv-x="952" d="M762 600Q762 730 687 814T489 898T285 808T190 578L192 573H762V600ZM499 -21Q315 -21 195 114T74 456V506Q74 714 193 852T488 990T766 878T869 574V482H182V456Q182 288 269 179T499 70Q689 70 792 178L838 104Q716
-21 499 -21ZM765 1258H665L513 1423L363 1258H265V1270L479 1499H548L765 1267V1258Z" />
<glyph unicode="&#xeb;" horiz-adv-x="952" d="M762 600Q762 730 687 814T489 898T285 808T190 578L192 573H762V600ZM499 -21Q315 -21 195 114T74 456V506Q74 714 193 852T488 990T766 878T869 574V482H182V456Q182 288 269 179T499 70Q689 70 792 178L838 104Q716
-21 499 -21ZM751 1316T717 1316T663 1336T643 1387T663 1439T717 1460T772 1440T792 1388T772 1336ZM398 1357T378 1337T324 1317T270 1337T250 1388T269 1440T323 1461T378 1441T398 1389Z" />
<glyph unicode="&#xec;" horiz-adv-x="410" d="M263 974V0H155V974H263ZM95 1437L277 1198H172L-45 1433L-43 1437H95Z" />
<glyph unicode="&#xed;" horiz-adv-x="410" d="M244 974V0H136V974H244ZM132 1233L304 1484H434L226 1233H132Z" />
<glyph unicode="&#xee;" horiz-adv-x="410" d="M265 974V0H157V974H265ZM445 1246H345L193 1411L43 1246H-55V1258L159 1487H228L445 1255V1246Z" />
<glyph unicode="&#xef;" horiz-adv-x="410" d="M265 974V0H157V974H265ZM431 1304T397 1304T343 1324T323 1375T343 1427T397 1448T452 1428T472 1376T452 1324ZM78 1345T58 1325T4 1305T-50 1325T-70 1376T-51 1428T3 1449T58 1429T78 1377Z" />
<glyph unicode="&#xf0;" horiz-adv-x="1072" d="M842 486V559L840 610Q805 686 727 729T548 772Q403 772 323 678T242 416Q242 323 282 243T395 117Q463 72 557 72Q686 72 764 184T842 486ZM950 480Q950 335 900 222T758 43Q665 -20 551 -20T341 35T190 192T134
417Q134 624 241 745T528 867Q617 867 695 833T827 737Q790 962 638 1114L436 989L390 1055L575 1170Q455 1262 266 1326L302 1418Q515 1355 670 1227L844 1336L890 1271L730 1170Q944 944 950 579V480Z" />
<glyph unicode="&#xf1;" horiz-adv-x="1012" d="M126 974H222L231 804Q329 992 547 992Q708 992 789 895T871 593V0H763V592Q763 755 703 826T527 898T340 841T234 680V0H126V974ZM647 1279Q608 1279 560 1303T469 1353T389 1378T325 1350T297 1272L216 1275Q216
1358 265 1412T392 1466Q443 1466 485 1441Q500 1432 524 1416T560 1391T595 1375T642 1367Q685 1367 713 1397T742 1476L822 1471Q822 1386 772 1333T647 1279Z" />
<glyph unicode="&#xf2;" horiz-adv-x="1032" d="M182 499V470Q182 294 269 182T505 70T741 182T828 470V499Q828 671 740 784T504 898T269 785T182 499ZM74 470V499Q74 717 192 853T504 990T816 854T935 499V470Q935 252 818 116T505 -21T192 115T74 470ZM423
1449L605 1210H500L283 1445L285 1449H423Z" />
<glyph unicode="&#xf3;" horiz-adv-x="1032" d="M182 499V470Q182 294 269 182T505 70T741 182T828 470V499Q828 671 740 784T504 898T269 785T182 499ZM74 470V499Q74 717 192 853T504 990T816 854T935 499V470Q935 252 818 116T505 -21T192 115T74 470ZM480
1245L652 1496H782L574 1245H480Z" />
<glyph unicode="&#xf4;" horiz-adv-x="1032" d="M181 499V470Q181 294 268 182T504 70T740 182T827 470V499Q827 671 739 784T503 898T268 785T181 499ZM73 470V499Q73 717 191 853T503 990T815 854T934 499V470Q934 252 817 116T504 -21T191 115T73 470ZM770
1258H670L518 1423L368 1258H270V1270L484 1499H553L770 1267V1258Z" />
<glyph unicode="&#xf5;" horiz-adv-x="1032" d="M182 499V470Q182 294 269 182T505 70T741 182T828 470V499Q828 671 740 784T504 898T269 785T182 499ZM74 470V499Q74 717 192 853T504 990T816 854T935 499V470Q935 252 818 116T505 -21T192 115T74 470ZM651
1279Q612 1279 564 1303T473 1353T393 1378T329 1350T301 1272L220 1275Q220 1358 269 1412T396 1466Q447 1466 489 1441Q504 1432 528 1416T564 1391T599 1375T646 1367Q689 1367 717 1397T746 1476L826 1471Q826 1386 776 1333T651 1279Z" />
<glyph unicode="&#xf6;" horiz-adv-x="1032" d="M182 499V470Q182 294 269 182T505 70T741 182T828 470V499Q828 671 740 784T504 898T269 785T182 499ZM74 470V499Q74 717 192 853T504 990T816 854T935 499V470Q935 252 818 116T505 -21T192 115T74 470ZM757
1316T723 1316T669 1336T649 1387T669 1439T723 1460T778 1440T798 1388T778 1336ZM404 1357T384 1337T330 1317T276 1337T256 1388T275 1440T329 1461T384 1441T404 1389Z" />
<glyph unicode="&#xf7;" horiz-adv-x="1048" d="M583 356V212H455V356H583ZM963 705V601H65V705H963ZM583 1074V930H455V1074H583Z" />
<glyph unicode="&#xf8;" horiz-adv-x="1026" d="M515 978Q615 978 707 935L777 1079H861L771 895Q857 829 903 725T950 487V458Q950 316 895 203T741 29Q639 -32 528 -32T336 5L265 -140H180L269 43Q178 108 129 215T80 459L81 487Q81 629 135 741T289 915Q387
978 515 978ZM842 468V488Q842 685 725 802L377 91Q439 60 516 60Q662 60 752 171T842 468ZM187 477V459Q187 358 219 273T313 133L663 847Q599 886 514 886Q368 886 278 773T187 477Z" />
<glyph unicode="&#xf9;" horiz-adv-x="1013" d="M452 -21Q294 -21 209 85T124 407V972H232V406Q232 231 290 152T465 73Q700 73 762 279V972H870V-2H774L766 157Q669 -21 452 -21ZM418 1449L600 1210H495L278 1445L280 1449H418Z" />
<glyph unicode="&#xfa;" horiz-adv-x="1013" d="M452 -21Q294 -21 209 85T124 407V972H232V406Q232 231 290 152T465 73Q700 73 762 279V972H870V-2H774L766 157Q669 -21 452 -21ZM475 1245L647 1496H777L569 1245H475Z" />
<glyph unicode="&#xfb;" horiz-adv-x="1013" d="M452 -21Q294 -21 209 85T124 407V972H232V406Q232 231 290 152T465 73Q700 73 762 279V972H870V-2H774L766 157Q669 -21 452 -21ZM766 1258H666L514 1423L364 1258H266V1270L480 1499H549L766 1267V1258Z" />
<glyph unicode="&#xfc;" horiz-adv-x="1013" d="M452 -21Q294 -21 209 85T124 407V972H232V406Q232 231 290 152T465 73Q700 73 762 279V972H870V-2H774L766 157Q669 -21 452 -21ZM752 1316T718 1316T664 1336T644 1387T664 1439T718 1460T773 1440T793 1388T773
1336ZM399 1357T379 1337T325 1317T271 1337T251 1388T270 1440T324 1461T379 1441T399 1389Z" />
<glyph unicode="&#xfd;" horiz-adv-x="876" d="M172 -437Q119 -437 87 -424L100 -334Q130 -341 169 -341Q235 -341 278 -295T353 -163L405 -31L29 930H148L415 220L449 104H454L748 930H869L446 -199Q402 -314 341 -375T172 -437ZM427 1245L599 1496H729L521 1245H427Z" />
<glyph unicode="&#xfe;" horiz-adv-x="1035" d="M928 452V435Q928 207 828 74T556 -60Q358 -60 251 81V-416H143V1341H251V797Q356 950 554 950Q729 950 828 819T928 452ZM532 31Q670 31 745 140T820 446T744 750T530 857Q329 857 251 670V201Q331 31 532 31Z" />
<glyph unicode="&#xff;" horiz-adv-x="876" d="M172 -437Q119 -437 87 -424L100 -334Q130 -341 169 -341Q235 -341 278 -295T353 -163L405 -31L29 930H148L415 220L449 104H454L748 930H869L446 -199Q402 -314 341 -375T172 -437ZM704 1316T670 1316T616 1336T596
1387T616 1439T670 1460T725 1440T745 1388T725 1336ZM351 1357T331 1337T277 1317T223 1337T203 1388T222 1440T276 1461T331 1441T351 1389Z" />
<glyph unicode="&#x2013;" horiz-adv-x="1273" d="M1019 769V686H140V769H1019Z" />
<glyph unicode="&#x2014;" horiz-adv-x="1500" d="M1224 769V686H143V769H1224Z" />
<glyph unicode="&#x2018;" horiz-adv-x="512" d="M176 971V1128L273 1404H336L279 1127V971H176Z" />
<glyph unicode="&#x2019;" horiz-adv-x="512" d="M336 1404V1244L239 972H176L233 1242V1404H336Z" />
<glyph unicode="&#x201a;" horiz-adv-x="318" d="M227 71Q227 -117 101 -231L37 -184Q112 -84 119 23L120 161H227V71Z" />
<glyph unicode="&#x201c;" horiz-adv-x="731" d="M176 971V1128L273 1404H336L279 1127V971H176ZM395 971V1128L492 1404H555L498 1127V971H395Z" />
<glyph unicode="&#x201d;" horiz-adv-x="735" d="M336 1404V1244L239 972H176L233 1242V1404H336ZM559 1404V1244L462 972H399L456 1242V1404H559Z" />
<glyph unicode="&#x201e;" horiz-adv-x="534" d="M228 71H227Q227 -123 101 -240L37 -193Q116 -84 121 42V188H228V71ZM437 71H438Q438 -123 312 -240L249 -193Q328 -81 329 42V188H437V71Z" />
<glyph unicode="&#x2022;" horiz-adv-x="596" d="M223 919T299 919T420 874T466 758V699Q466 628 421 584T299 540T177 583T131 699L132 758Q132 829 177 874Z" />
<glyph unicode="&#x2039;" horiz-adv-x="548" d="M457 866L209 516L457 167H363L97 508V525L363 866H457Z" />
<glyph unicode="&#x203a;" horiz-adv-x="548" d="M87 866H183L448 520V503L183 162H87L336 511L87 866Z" />
</font>
</defs>
</svg>
