<?xml version="1.0" standalone="no"?>
<!DOCTYPE svg PUBLIC "-//W3C//DTD SVG 1.1//EN" "http://www.w3.org/Graphics/SVG/1.1/DTD/svg11.dtd">
<svg xmlns="http://www.w3.org/2000/svg">
<defs >
<font id="Cambay" horiz-adv-x="445" ><font-face
    font-family="Cambay"
    units-per-em="800"
    panose-1="0 0 5 0 0 0 0 0 0 0"
    ascent="800"
    descent="-503"
    alphabetic="0" />
<glyph unicode=" " glyph-name="space" horiz-adv-x="220" />
<glyph unicode="!" glyph-name="exclam" horiz-adv-x="206" d="M152 90H103L94 493H161L152 90ZM110 -39T100 -29T90 -1Q90 16 100 26T128 37Q146 37 156 27T166 -1Q166 -18 156 -28T128 -39Q110 -39 100 -29Z" />
<glyph unicode="&quot;" glyph-name="quotedbl" horiz-adv-x="284" d="M104 540T112 529T118 499L103 375H71L56 499Q54 540 86 540Q104 540 112 529ZM214 540T222 529T228 499L213 375H181L166 499Q164 540 196 540Q214 540 222 529Z" />
<glyph unicode="#" glyph-name="numbersign" horiz-adv-x="551" d="M36 347V295H160V169H37V117H160V-37H215V117H334V-37H390V117H515V169H390V295H515V347H390V494H334V347H215V494H160V347H36ZM334 295V169H215V295H334Z" />
<glyph unicode="$" glyph-name="dollar" horiz-adv-x="369" d="M329 98T298 70T213 35V-50H158V34Q95 39 40 62L58 111Q123 88 181 88Q216 88 240 101T265 141Q265 157 256 168T226 188T159 217L135 227Q131 229 107 240T66 274T50 330Q50 373 79 398T158 429V513H213V430Q269
427 314 406L298 358Q281 365 254 371T201 377Q159 377 136 365T113 329Q113 307 131 294T195 264L230 250Q285 227 307 202T329 136Q329 98 298 70Z" />
<glyph unicode="%" glyph-name="percent" horiz-adv-x="467" d="M207 393T181 424T109 456Q62 456 36 425T10 347Q10 300 35 269T109 237Q155 237 181 268T207 347Q207 393 181 424ZM112 0L424 456H357L46 0H112ZM61 406T109 406Q157 406 157 347Q157 288 109
288Q61 288 61 347Q61 406 109 406ZM457 156T431 187T359 219Q312 219 286 188T260 110Q260 63 285 32T359 0Q405 0 431 31T457 110Q457 156 431 187ZM311 169T359 169Q407 169 407 110Q407 51 359 51Q311 51 311 110Q311 169 359 169Z" />
<glyph unicode="&amp;" glyph-name="ampersand" horiz-adv-x="595" d="M398 79Q344 29 304 6T207 -18Q145 -18 104 17T62 113Q62 167 93 210T192 313Q155 356 136 386T117 448Q117 502 155 530T251 558Q308 558 342 531T376 450Q376 413 350 379T278 306L399 169L495
272L537 234L438 124L547 0H468L398 79ZM220 503T201 488T181 445Q181 423 194 402T239 346Q315 405 315 446Q315 471 298 487T251 503Q220 503 201 488ZM251 42T283 61T359 122L230 268Q183 228 153 192T123 123Q123 84 147 63T214 42Q251 42 283 61Z" />
<glyph unicode="&apos;" glyph-name="quotesingle" horiz-adv-x="174" d="M104 540T112 529T118 499L103 375H71L56 499Q54 540 86 540Q104 540 112 529Z" />
<glyph unicode="(" glyph-name="parenleft" horiz-adv-x="269" d="M125 143T151 50Q176 -34 229 -126L185 -150Q63 47 63 224Q63 401 185 598L229 574Q176 482 151 398Q125 305 125 222Q125 143 151 50Z" />
<glyph unicode=")" glyph-name="parenright" horiz-adv-x="269" d="M144 305T118 398Q93 482 40 574L84 598Q206 401 206 224Q206 47 84 -150L40 -126Q93 -34 118 50Q144 143 144 222Q144 305 118 398Z" />
<glyph unicode="*" glyph-name="asterisk" horiz-adv-x="450" d="M251 424L347 487L377 436L275 380L376 327L348 278L252 341L253 225H195L199 341L103 279L73 329L176 383L73 436L103 487L199 424L195 540H253L251 424Z" />
<glyph unicode="+" glyph-name="plus" horiz-adv-x="452" d="M253 204V63H197V204H60V260H197V395H253V260H392V204H253Z" />
<glyph unicode="," glyph-name="comma" horiz-adv-x="220" d="M118 70T131 57T144 19Q144 -15 122 -48T67 -108L43 -92Q69 -47 83 -17Q51 -6 51 27Q51 46 63 58T97 70Q118 70 131 57Z" />
<glyph unicode="-" glyph-name="hyphen" horiz-adv-x="346" d="M286 190H40V237H286V190Z" />
<glyph unicode="." glyph-name="period" horiz-adv-x="220" d="M90 -4T78 9T65 41Q65 60 77 73T110 86Q130 86 142 73T155 41Q155 22 143 9T110 -4Q90 -4 78 9Z" />
<glyph unicode="/" glyph-name="slash" horiz-adv-x="299" d="M77 -35L269 550H207L15 -35H77Z" />
<glyph unicode="0" glyph-name="zero" horiz-adv-x="440" d="M309 464T354 398T399 228Q399 126 354 59T221 -8Q133 -8 87 59T40 228Q40 330 86 397T221 464Q309 464 354 398ZM283 45T311 98T339 228Q339 305 311 358T220 411Q157 411 129 358T101 228Q101 151
129 98T220 45Q283 45 311 98Z" />
<glyph unicode="1" glyph-name="one" horiz-adv-x="270" d="M250 50V0H27V50H113V400L42 372L20 420L105 456H172V50H250Z" />
<glyph unicode="2" glyph-name="two" horiz-adv-x="357" d="M70 442T101 453T181 465Q214 465 245 451T297 406T318 332Q318 280 293 239T208 137L130 55H321V0H41V43Q91 100 150 161Q192 205 196 210Q235 255 247 279T259 332Q259 367 236 387T172 407Q141 407
120 400T80 382T52 368L30 420Q70 442 101 453Z" />
<glyph unicode="3" glyph-name="three" horiz-adv-x="387" d="M246 466T284 436T323 347Q323 311 304 282T255 236Q298 223 322 197T347 124Q347 63 303 29T186 -5Q142 -5 108 4T30 34L51 91Q91 73 121 64T181 54Q283 54 283 127Q283 170 247 187T139 205H131V261Q261
266 261 342Q261 379 241 393T181 407Q153 407 126 399T59 373L38 426Q79 447 112 456T181 466Q246 466 284 436Z" />
<glyph unicode="4" glyph-name="four" horiz-adv-x="397" d="M384 165V109H305V-1H246V109H20V154L222 456H305V165H384ZM95 165H246V394L95 165Z" />
<glyph unicode="5" glyph-name="five" horiz-adv-x="367" d="M114 239T65 232L50 237V456H310V403H110V291Q135 294 169 294Q250 294 293 253T337 146Q337 65 285 29T152 -7Q125 -7 93 -1T30 15L46 72Q110 52 151 52Q214 52 245 74T277 145Q277 195 247 217T145
239Q114 239 65 232Z" />
<glyph unicode="6" glyph-name="six" horiz-adv-x="385" d="M272 284T314 248T357 142Q357 80 318 37T205 -7Q119 -7 77 50T35 197Q35 325 105 390T301 455L307 400Q209 404 158 363T98 254Q143 284 210 284Q272 284 314 248ZM251 51T274 76T298 141Q298 226 206
226Q167 226 143 216T93 185Q96 121 126 86T206 51Q251 51 274 76Z" />
<glyph unicode="7" glyph-name="seven" horiz-adv-x="341" d="M152 0H91L252 401H20V457H321V417L152 0Z" />
<glyph unicode="8" glyph-name="eight" horiz-adv-x="380" d="M251 465T287 437T324 358Q324 324 306 300T261 252Q302 233 326 200Q348 169 348 129Q348 68 306 29T192 -11Q142 -11 109 6T52 54Q32 83 32 124Q32 166 57 199T119 250Q98 267 87 278T66 310T56
360Q56 406 95 435T190 465Q251 465 287 437ZM159 409T138 393T117 354Q117 327 134 309T191 270Q221 287 241 307T262 353Q262 381 240 395T187 409Q159 409 138 393ZM234 48T261 69T288 124Q288 157 273 177T222 214Q206 221 188 224Q147 213 119 189T91 128Q91
94 119 71T192 48Q234 48 261 69Z" />
<glyph unicode="9" glyph-name="nine" horiz-adv-x="387" d="M274 455T313 397T353 241Q353 118 287 56T92 -7L86 48Q183 45 232 84T292 191Q245 164 183 164Q121 164 78 200T35 307Q35 368 74 411T188 455Q274 455 313 397ZM92 222T187 222Q224 222 248 231T295
259Q294 326 266 361T187 397Q142 397 117 372T92 308Q92 222 187 222Z" />
<glyph unicode=":" glyph-name="colon" horiz-adv-x="234" d="M97 234T86 246T74 277Q74 296 85 308T117 320Q137 320 148 308T160 277Q160 258 149 246T117 234Q97 234 86 246ZM97 -6T86 6T74 37Q74 56 85 68T117 80Q137 80 148 68T160 37Q160 18 149 6T117 -6Q97
-6 86 6Z" />
<glyph unicode=";" glyph-name="semicolon" horiz-adv-x="234" d="M97 234T86 246T74 277Q74 296 85 308T117 320Q137 320 148 308T160 277Q160 258 149 246T117 234Q97 234 86 246ZM138 70T151 57T164 19Q164 -15 142 -48T87 -108L63 -92Q89 -47 103 -17Q71 -6
71 27Q71 46 83 58T117 70Q138 70 151 57Z" />
<glyph unicode="&lt;" glyph-name="less" horiz-adv-x="426" d="M378 104L107 240L378 377V439L40 272V208L378 42V104Z" />
<glyph unicode="=" glyph-name="equal" horiz-adv-x="522" d="M442 277V333H80V277H442ZM442 128V184H80V128H442Z" />
<glyph unicode="&gt;" glyph-name="greater" horiz-adv-x="428" d="M48 377L319 240L48 104V42L388 208V272L48 439V377Z" />
<glyph unicode="?" glyph-name="question" horiz-adv-x="425" d="M299 498T342 464T385 366Q385 321 367 292T314 230Q309 225 285 202T251 153T242 92H179Q179 165 213 210Q226 226 257 255Q291 287 307 309T324 361Q324 401 300 420T230 440Q193 440 168 433T110
410L90 464Q126 480 158 489T234 498Q299 498 342 464ZM192 -40T182 -30T172 -2Q172 15 182 25T210 36Q228 36 238 26T248 -2Q248 -19 238 -29T210 -40Q192 -40 182 -30Z" />
<glyph unicode="@" glyph-name="at" horiz-adv-x="799" d="M504 361Q453 381 408 381Q355 381 313 357T247 287T222 178Q222 120 244 78T305 13T388 -10Q456 -10 503 43Q529 -10 594 -10Q638 -10 682 29Q718 64 735 115T752 239Q752 324 713 393T596 502T403 543Q305
543 224 498T95 372T47 188Q47 77 92 -1T212 -118T374 -158Q440 -158 518 -135V-82Q461 -102 394 -102Q316 -102 253 -69T154 31T117 192Q117 278 154 345T259 451T415 489Q503 489 564 455T655 362T686 225Q686 138 661 86Q650 67 637 56T604 45Q576 45 564 62T552
117V377H510L504 361ZM292 252T325 292T416 332Q457 332 490 317V87Q458 46 404 46Q347 46 320 83T292 185Q292 252 325 292Z" />
<glyph unicode="A" glyph-name="A" horiz-adv-x="488" d="M204 550L16 0H85L137 161H347L399 0H473L284 550H204ZM156 218L241 481L328 218H156Z" />
<glyph unicode="B" glyph-name="B" horiz-adv-x="498" d="M375 319T394 351T413 419Q413 481 374 515Q335 550 261 550H67V0H246Q298 0 341 13T412 50Q437 72 448 103T459 167Q459 218 424 258Q391 294 341 302Q375 319 394 351ZM350 321T207 321H133V493H239Q293
493 321 475T350 415Q350 321 207 321ZM393 108T352 82Q317 58 256 58H133V266H229Q298 266 339 247Q393 222 393 161Q393 108 352 82Z" />
<glyph unicode="C" glyph-name="C" horiz-adv-x="518" d="M431 546T407 551Q371 558 315 558Q260 558 202 535Q152 515 116 478Q82 444 63 393T44 276Q44 149 119 71Q155 35 208 13T324 -9Q416 -9 489 27L473 79Q402 52 344 52Q274 52 221 81Q173 109 145 159T117
277Q117 346 141 396T212 474Q256 498 334 498Q373 498 400 493T464 475L483 529Q431 546 407 551Z" />
<glyph unicode="D" glyph-name="D" horiz-adv-x="558" d="M344 0T400 33T488 127Q520 187 520 275Q520 358 488 424Q457 483 400 516T261 550H67V0H261Q344 0 400 33ZM256 493Q322 493 365 463Q398 440 424 389Q447 338 447 275Q447 200 427 159Q404 111 364 85T256
58H133V493H256Z" />
<glyph unicode="E" glyph-name="E" horiz-adv-x="442" d="M389 58H133V256H369V313H133V494H389V550H67V0H389V58Z" />
<glyph unicode="F" glyph-name="F" horiz-adv-x="424" d="M387 550H67V0H133V256H364V313H133V494H387V550Z" />
<glyph unicode="G" glyph-name="G" horiz-adv-x="563" d="M455 534T412 546T315 558Q238 558 177 521Q117 486 81 421T44 271Q44 195 79 130Q112 67 173 30T309 -8Q383 -8 442 19Q488 39 519 70V291H300V237H458V91Q435 72 401 61T333 50Q301 50 275 57T220 81Q173
108 145 158T117 276Q117 338 140 387Q163 436 212 468T321 500Q356 500 397 489T470 462L496 510Q455 534 412 546Z" />
<glyph unicode="H" glyph-name="H" horiz-adv-x="573" d="M133 307V550H67V0H133V247H439V0H505V550H439V307H133Z" />
<glyph unicode="I" glyph-name="I" horiz-adv-x="217" d="M141 0V550H76V0H141Z" />
<glyph unicode="J" glyph-name="J" horiz-adv-x="313" d="M188 133T184 121Q175 88 146 69T73 50Q52 50 18 58L9 2Q45 -7 83 -7Q170 -7 216 42Q237 65 245 92T253 165V550H188V161Q188 133 184 121Z" />
<glyph unicode="K" glyph-name="K" horiz-adv-x="497" d="M133 0V550H67V0H133ZM388 0H474L225 288L459 550H375L142 282L388 0Z" />
<glyph unicode="L" glyph-name="L" horiz-adv-x="400" d="M380 0V58H133V550H67V0H380Z" />
<glyph unicode="M" glyph-name="M" horiz-adv-x="672" d="M133 0V457L302 158H369L538 457V0H604V550H517L336 217L161 550H67V0H133Z" />
<glyph unicode="N" glyph-name="N" horiz-adv-x="574" d="M129 0V463L429 0H514V550H446V89L147 550H63V0H129Z" />
<glyph unicode="O" glyph-name="O" horiz-adv-x="606" d="M383 556T440 521T530 424Q562 354 562 275Q562 194 530 127Q498 65 441 29T302 -7Q221 -7 165 29T76 127Q44 185 44 275Q44 363 76 424Q108 485 164 520T302 556Q383 556 440 521ZM365 51T403 80T465
161Q489 211 489 275Q489 338 465 389Q414 498 302 498Q240 498 202 469T140 389Q117 343 117 275Q117 206 140 161Q164 110 202 81T302 51Q365 51 403 80Z" />
<glyph unicode="P" glyph-name="P" horiz-adv-x="465" d="M431 334T404 296T331 243Q310 236 273 232T199 228Q157 228 133 230V0H67V550H240Q279 550 296 548T331 541Q379 524 406 485T433 388Q431 334 404 296ZM257 286T291 293T346 323T367 392Q367 436 342
461T275 490Q260 494 205 494H133V289Q173 286 205 286Q257 286 291 293Z" />
<glyph unicode="Q" glyph-name="Q" horiz-adv-x="610" d="M384 556T441 521T530 424Q562 360 562 275Q562 188 530 127Q519 105 507 89L582 21L541 -22L466 47Q436 21 395 7T304 -7Q222 -7 165 29T76 127Q44 185 44 275Q44 363 76 424Q108 485 165 520T304 556Q384
556 441 521ZM490 194T490 275Q490 341 466 389Q415 498 304 498Q242 498 204 469T141 389Q117 338 117 275Q117 211 141 161Q165 110 203 81T304 51Q374 51 423 90L302 204L344 245L459 136Q490 194 490 275Z" />
<glyph unicode="R" glyph-name="R" horiz-adv-x="496" d="M133 228V0H67V550H240Q279 550 296 548T331 541Q379 524 406 485T433 388Q432 332 399 292T307 237L463 0H388L238 228H133ZM257 286T291 293T346 323T367 392Q367 436 342 461T275 490Q260 494 205 494H133V289Q173
286 205 286Q257 286 291 293Z" />
<glyph unicode="S" glyph-name="S" horiz-adv-x="462" d="M269 60T309 81T349 145Q349 182 317 204T225 248L202 257Q127 287 90 319T53 408Q53 483 102 521Q131 543 163 552T238 562Q299 562 389 524L370 465Q290 497 246 497Q188 497 155 476T121 415Q121 388
138 369T177 340T238 313Q254 306 267 302Q319 281 348 265T399 220T420 149Q420 72 358 32T207 -8Q161 -8 131 0T40 29L63 93Q151 60 209 60Q269 60 309 81Z" />
<glyph unicode="T" glyph-name="T" horiz-adv-x="451" d="M191 494V0H257V494H442V550H9V494H191Z" />
<glyph unicode="U" glyph-name="U" horiz-adv-x="542" d="M161 -9T112 45T62 210V550H127V194Q127 145 145 110Q162 79 192 64T271 49Q365 49 396 110Q415 146 415 194V550H480V210Q480 99 431 45T271 -9Q161 -9 112 45Z" />
<glyph unicode="V" glyph-name="V" horiz-adv-x="485" d="M284 0L476 550H404L245 69L88 550H9L201 0H284Z" />
<glyph unicode="W" glyph-name="W" horiz-adv-x="777" d="M252 0L388 460L533 0H603L768 550H703L568 88L425 550H358L219 88L81 550H9L182 0H252Z" />
<glyph unicode="X" glyph-name="X" horiz-adv-x="493" d="M111 550H30L207 288L9 0H89L244 232L399 0H484L288 289L463 550H388L251 344L111 550Z" />
<glyph unicode="Y" glyph-name="Y" horiz-adv-x="454" d="M445 550H370L228 324L87 550H9L191 261V0H257V261L445 550Z" />
<glyph unicode="Z" glyph-name="Z" horiz-adv-x="475" d="M352 494L36 43V0H439V58H119L437 509V550H47V494H352Z" />
<glyph unicode="[" glyph-name="bracketleft" horiz-adv-x="304" d="M63 586H241V536H119V-89H241V-139H63V586Z" />
<glyph unicode="\" glyph-name="backslash" horiz-adv-x="299" d="M221 -35H284L92 550H30L221 -35Z" />
<glyph unicode="]" glyph-name="bracketright" horiz-adv-x="304" d="M63 -89H185V536H63V586H241V-139H63V-89Z" />
<glyph unicode="^" glyph-name="asciicircum" horiz-adv-x="389" d="M334 446L195 598L55 446L97 407L195 513L292 407L334 446Z" />
<glyph unicode="_" glyph-name="underscore" horiz-adv-x="452" d="M392 -83V-25H60V-83H392Z" />
<glyph unicode="`" glyph-name="grave" horiz-adv-x="193" d="M155 427L5 550L41 593L188 465L155 427Z" />
<glyph unicode="a" glyph-name="a" horiz-adv-x="393" d="M159 333T130 329T77 317L64 365Q131 388 189 388Q254 388 288 368Q318 346 329 321T341 248V0H292L278 36Q221 -10 161 -10Q109 -10 74 20T38 96Q38 141 65 170T133 210Q184 223 276 225V228Q276 269
268 288Q252 333 180 333Q159 333 130 329ZM203 42T228 53T276 86V178Q207 177 174 170Q137 162 119 147T101 103Q101 74 121 58T170 42Q203 42 228 53Z" />
<glyph unicode="b" glyph-name="b" horiz-adv-x="439" d="M58 0V532H123V374Q162 392 216 392Q297 392 348 344Q401 291 401 188Q401 99 356 46T225 -8Q169 -8 116 27L104 0H58ZM273 47T303 82T333 192Q333 259 302 299T208 339Q161 339 123 324V70Q146 58 164
53T209 47Q273 47 303 82Z" />
<glyph unicode="c" glyph-name="c" horiz-adv-x="363" d="M135 -9T87 42T38 185Q38 271 88 333Q138 389 237 389Q286 389 335 368L319 320Q284 335 240 335Q172 335 138 300T104 197Q104 111 145 78T246 45Q284 45 319 58L334 13Q276 -9 224 -9Q135 -9 87 42Z" />
<glyph unicode="d" glyph-name="d" horiz-adv-x="439" d="M130 -8T84 45T38 188Q38 286 93 341Q146 392 225 392Q278 392 315 374V532H383V0H335L324 27Q270 -8 216 -8Q130 -8 84 45ZM256 47T274 52T315 70V324Q278 339 230 339Q168 339 137 299T105 192Q105 126
136 87T229 47Q256 47 274 52Z" />
<glyph unicode="e" glyph-name="e" horiz-adv-x="404" d="M286 389T327 344T368 215V180L364 172H101Q101 123 138 81Q173 46 247 46Q296 46 340 61L352 13Q291 -8 229 -8Q136 -8 87 42T38 185Q38 273 81 330Q127 389 210 389Q286 389 327 344ZM302 274T281 306T217
338Q164 338 136 306T102 224H302Q302 274 281 306Z" />
<glyph unicode="f" glyph-name="f" horiz-adv-x="288" d="M198 503T177 487T151 446Q149 434 149 419V384H276V333H150V0H85V333H28V384H83V423Q83 472 96 495Q129 554 211 554Q252 554 304 539L293 491Q250 503 231 503Q198 503 177 487Z" />
<glyph unicode="g" glyph-name="g" horiz-adv-x="439" d="M265 -8T214 -8Q122 -8 73 63Q38 115 38 185Q38 256 68 305T153 377Q178 389 218 389Q265 389 308 369L327 360L334 384H381V-18Q381 -71 369 -103T328 -162Q304 -185 269 -197T189 -210Q161 -210 129
-203T72 -185L89 -139Q146 -159 180 -159Q240 -159 274 -130T314 -48Q315 -37 315 8V18Q265 -8 214 -8ZM279 45T315 66V317Q270 337 226 337Q166 337 135 298T104 194Q104 147 122 111T171 59Q196 45 229 45Q279 45 315 66Z" />
<glyph unicode="h" glyph-name="h" horiz-adv-x="430" d="M313 295T294 317T228 339Q184 339 125 311V0H60V532H125V359Q192 394 253 394Q313 394 346 359T379 261V0H313V246Q313 295 294 317Z" />
<glyph unicode="i" glyph-name="i" horiz-adv-x="181" d="M73 458T61 470T49 500Q49 516 61 528T91 541Q108 541 120 529T132 500Q132 483 121 471T91 458Q73 458 61 470ZM123 0H58V384H123V0Z" />
<glyph unicode="j" glyph-name="j" horiz-adv-x="180" d="M122 384V-50Q122 -89 119 -104T105 -143Q83 -189 20 -208L-4 -161Q59 -131 59 -62V384H122ZM72 466T60 478T47 508Q47 525 59 537T89 550Q106 550 118 538T131 508Q131 491 119 479T89 466Q72 466 60 478Z" />
<glyph unicode="k" glyph-name="k" horiz-adv-x="400" d="M125 0H60V532H125V0ZM209 212L385 0H305L132 212L300 384H376L209 212Z" />
<glyph unicode="l" glyph-name="l" horiz-adv-x="220" d="M185 51T204 57L216 10Q213 9 192 0T138 -9Q101 -9 79 16T56 83V533H119V106Q119 79 128 65T170 51Q185 51 204 57Z" />
<glyph unicode="m" glyph-name="m" horiz-adv-x="634" d="M515 338T440 338Q403 338 348 304Q351 293 351 260V0H286V244Q286 338 210 338Q174 338 121 309V0H56V384H101L115 352Q149 375 178 384Q201 390 231 390Q264 390 289 377T331 341Q364 365 394 377T460
390Q519 390 550 355T582 260V0H515V244Q515 338 440 338Z" />
<glyph unicode="n" glyph-name="n" horiz-adv-x="427" d="M310 293T292 314T227 335Q178 335 121 308V0H56V384H101L115 352Q184 390 250 390Q311 390 343 356T375 260V0H310V244Q310 293 292 314Z" />
<glyph unicode="o" glyph-name="o" horiz-adv-x="447" d="M135 -9T87 45T38 190Q38 282 87 335T225 389Q313 389 361 336T409 191Q409 101 359 46T222 -9Q135 -9 87 45ZM168 338T137 296T105 190Q105 126 136 85T225 44Q281 44 312 85T343 190Q343 254 312 296T225
338Q168 338 137 296Z" />
<glyph unicode="p" glyph-name="p" horiz-adv-x="440" d="M58 384H104L117 355Q166 389 225 389Q281 389 320 365Q403 313 403 196Q403 96 347 42Q292 -10 216 -10Q167 -10 123 9V-208H58V384ZM181 335T163 330T123 312V60Q162 42 208 42Q268 42 301 83T334 189Q334
256 302 295T209 335Q181 335 163 330Z" />
<glyph unicode="q" glyph-name="q" horiz-adv-x="440" d="M150 -10T93 42Q38 99 38 196Q38 313 119 365Q160 389 217 389Q274 389 324 355L335 383H384V-208H316V9Q274 -10 225 -10Q150 -10 93 42ZM296 325T277 330T230 335Q169 335 137 296T105 189Q105 124 138
83T231 42Q279 42 316 60V312Q296 325 277 330Z" />
<glyph unicode="r" glyph-name="r" horiz-adv-x="293" d="M244 389T257 387T284 378L261 320Q235 332 204 332Q162 332 121 304V0H56V384H103L117 351Q167 389 222 389Q244 389 257 387Z" />
<glyph unicode="s" glyph-name="s" horiz-adv-x="370" d="M212 46T236 59T261 99Q261 120 243 132T167 168L129 183Q104 195 88 204T59 233T46 283Q46 337 90 363T200 389Q255 389 310 364L294 316Q249 335 207 335Q164 335 138 323T111 287Q111 264 129 251T193
221L226 208Q281 185 303 160T325 94Q325 52 286 22T182 -9Q108 -9 36 20L54 69Q119 46 177 46Q212 46 236 59Z" />
<glyph unicode="t" glyph-name="t" horiz-adv-x="297" d="M130 -8T106 23T81 119V330H16V384H81V478L146 483V384H272V330H146V123Q146 83 158 65T207 47Q241 47 268 53L279 9Q234 -8 188 -8Q130 -8 106 23Z" />
<glyph unicode="u" glyph-name="u" horiz-adv-x="430" d="M121 88T140 67T205 46Q252 46 310 73V384H375V0H330L316 28Q243 -10 181 -10Q121 -10 89 25T56 121V384H121V137Q121 88 140 67Z" />
<glyph unicode="v" glyph-name="v" horiz-adv-x="401" d="M165 0L22 384H92L198 83L202 63L205 83L312 384H379L237 0H165Z" />
<glyph unicode="w" glyph-name="w" horiz-adv-x="645" d="M189 77L190 62L192 77L293 384H356L452 77L455 62L457 77L557 384H623L491 0H418L321 297L224 0H152L22 384H88L189 77Z" />
<glyph unicode="x" glyph-name="x" horiz-adv-x="407" d="M307 384H380L241 191L380 0H301L200 141L99 0H27L164 189L27 384H101L205 240L307 384Z" />
<glyph unicode="y" glyph-name="y" horiz-adv-x="412" d="M169 -206H102L176 -20L22 384H90L208 66L326 384H388L169 -206Z" />
<glyph unicode="z" glyph-name="z" horiz-adv-x="385" d="M337 350L129 49H348V0H46V33L252 333H46V384H337V350Z" />
<glyph unicode="{" glyph-name="braceleft" horiz-adv-x="309" d="M73 182T101 153T129 84V9Q129 -65 169 -107T270 -158L284 -104Q248 -96 228 -83T196 -43T185 31V93Q185 166 118 214Q146 233 165 263T185 335V396Q185 444 196 470T227 510T284 531L270 586Q210
578 170 535T129 419V344Q129 305 101 276T35 240V188Q73 182 101 153Z" />
<glyph unicode="|" glyph-name="bar" horiz-adv-x="300" d="M180 -179H120V622H180V-179Z" />
<glyph unicode="}" glyph-name="braceright" horiz-adv-x="309" d="M236 246T208 275T180 344V419Q180 492 140 535T39 586L25 531Q61 523 81 510T113 471T124 396V335Q124 293 143 263T191 214Q124 166 124 93V31Q124 -16 113 -43T82 -83T25 -104L39 -158Q99
-150 139 -108T180 9V84Q180 125 207 153T274 187V240Q236 246 208 275Z" />
<glyph unicode="~" glyph-name="asciitilde" horiz-adv-x="379" d="M108 536T86 515T56 457L101 442Q108 465 116 475T141 486Q148 486 156 481T171 472T181 465Q208 443 237 443Q271 443 294 464T324 521L278 536Q272 513 263 502T235 491Q227 491 217 496T192
514Q177 525 165 530T140 536Q108 536 86 515Z" />
<glyph unicode="&#xa0;" glyph-name="uni00A0" horiz-adv-x="220" />
<glyph unicode="&#xa1;" glyph-name="exclamdown" horiz-adv-x="176" d="M126 483T136 473T146 445Q146 428 136 418T108 407Q90 407 80 417T70 445Q70 463 80 473T108 483Q126 483 136 473ZM132 354L141 -49H74L83 354H132Z" />
<glyph unicode="&#xa2;" glyph-name="cent" horiz-adv-x="399" d="M58 147T98 98T210 41V-50H257V40Q301 44 348 61L332 105Q310 98 283 95T235 92Q178 92 149 132T119 243Q119 309 153 344T256 379Q300 379 335 364L351 411Q329 421 308 425T257 433V513H210V431Q138
421 98 367T58 228Q58 147 98 98Z" />
<glyph unicode="&#xa3;" glyph-name="sterling" horiz-adv-x="460" d="M410 0V52H201V206H388V259H201V302Q201 358 234 386T322 415Q344 415 389 406L407 452Q362 467 317 467Q222 467 180 414T137 276V259H69V206H137V52H60V0H410Z" />
<glyph unicode="&#xa4;" glyph-name="currency" horiz-adv-x="467" d="M366 178T347 146L410 85L367 39L303 101Q270 83 233 83Q194 83 164 101L102 39L56 84L119 144Q99 175 99 217Q99 257 119 289L55 351L100 395L164 333Q195 350 233 350Q269 350 302 332L368
394L412 351L348 287Q366 254 366 217Q366 178 347 146ZM269 140T290 162T312 218Q312 252 291 273T235 295Q201 295 179 274T157 218Q157 183 179 162T235 140Q269 140 290 162Z" />
<glyph unicode="&#xa5;" glyph-name="yen" horiz-adv-x="444" d="M394 456H332L222 279L114 456H50L186 234H82V185H188V121H82V74H188V0H249V74H362V121H249V185H362V234H252L394 456Z" />
<glyph unicode="&#xa6;" glyph-name="brokenbar" horiz-adv-x="300" d="M180 275V622H120V275H180ZM180 -178V169H120V-178H180Z" />
<glyph unicode="&#xa7;" glyph-name="section" horiz-adv-x="426" d="M274 493T332 478L350 527Q320 536 295 541T231 546Q160 546 115 515T70 427Q70 386 102 357Q69 326 69 282Q69 228 114 202Q144 186 209 165Q225 159 233 157Q266 146 282 135T298 101Q298
69 271 57T193 45Q138 45 76 69L55 18Q123 -9 197 -9Q274 -9 322 18T371 101Q371 142 339 174Q371 206 371 254Q371 283 354 304T310 338Q266 358 199 379Q174 387 156 400T138 435Q138 466 167 479T239 493Q274 493 332 478ZM136 304T142 313T158 327L223 306Q298
285 298 246Q298 221 281 206Q265 211 226 224T170 246Q153 256 145 266T136 294Q136 304 142 313Z" />
<glyph unicode="&#xa8;" glyph-name="dieresis" horiz-adv-x="212" d="M22 465T11 476T0 502Q0 517 11 528T37 539Q52 539 63 528T74 502Q74 487 63 476T37 465Q22 465 11 476ZM160 465T149 476T138 502Q138 517 149 528T175 539Q190 539 201 528T212 502Q212
487 201 476T175 465Q160 465 149 476Z" />
<glyph unicode="&#xa9;" glyph-name="copyright" horiz-adv-x="684" d="M617 293T596 343T536 431Q498 466 448 485T340 505Q284 505 235 486T148 431Q110 394 89 344T67 234Q67 175 88 125T148 38Q185 2 234 -17T340 -37Q397 -37 447 -18T536 38Q574 74 595 124T617
234Q617 293 596 343ZM566 188T549 148T501 78Q470 48 429 32T343 16Q296 16 255 32T184 78Q153 108 136 148T119 234Q119 280 136 320T184 392Q214 422 255 438T343 454Q388 454 429 438T501 392Q532 361 549 321T566 234Q566 188 549 148ZM391 93T430 109L415
151Q388 141 367 141Q318 141 297 166T275 239Q275 330 361 330Q389 330 418 320L433 362Q394 378 359 378Q221 378 221 230Q221 166 256 130T353 93Q391 93 430 109Z" />
<glyph unicode="&#xaa;" glyph-name="ordfeminine" horiz-adv-x="264" d="M154 505T166 491T178 447V446Q115 448 86 438Q40 422 40 375Q40 346 58 326T111 306Q145 306 180 332L188 312H224V455Q224 505 188 530Q165 544 130 544Q114 544 91 539T48 526L58 492Q99
505 122 505Q154 505 166 491ZM102 344T94 354T85 379Q85 399 101 405T147 411H178V370Q152 344 117 344Q102 344 94 354Z" />
<glyph unicode="&#xab;" glyph-name="guillemotleft" horiz-adv-x="364" d="M128 100H199L93 241L199 384H128L29 241L128 100ZM272 100H344L237 241L344 384H272L172 241L272 100Z" />
<glyph unicode="&#xac;" glyph-name="logicalnot" horiz-adv-x="482" d="M377 190V72H427V238H55V190H377Z" />
<glyph unicode="&#xad;" glyph-name="softhyphen" horiz-adv-x="326" d="M286 190H40V237H286V190Z" />
<glyph unicode="&#xae;" glyph-name="registered" horiz-adv-x="551" d="M481 449T466 486T421 551Q393 577 356 591T276 605Q232 605 195 591T130 551Q101 523 86 486T70 405Q70 360 85 323T130 259Q157 232 194 218T276 204Q319 204 356 218T421 259Q450 286
465 323T481 405Q481 449 466 486ZM437 330T393 288T276 245Q203 245 159 287T115 405Q115 477 160 522Q203 563 276 563Q349 563 392 522Q437 477 437 405Q437 330 393 288ZM359 477T339 495T288 513H203V300H239V381H283L321 300H360L317 388Q359 404 359 448Q359
477 339 495ZM325 428T311 419T277 410H239V480H287Q305 480 315 471T325 447Q325 428 311 419Z" />
<glyph unicode="&#xaf;" glyph-name="overscore" horiz-adv-x="217" d="M212 466H5V518H212V466Z" />
<glyph unicode="&#xb0;" glyph-name="degree" horiz-adv-x="237" d="M15 336T45 306Q76 275 118 275Q161 275 192 306Q222 336 222 378Q222 422 192 452T118 482Q74 482 45 452T15 378Q15 336 45 306ZM65 402T80 418T118 434Q141 434 157 418T173 378Q173 355
157 340T118 325Q95 325 80 340T65 378Q65 402 80 418Z" />
<glyph unicode="&#xb1;" glyph-name="plusminus" horiz-adv-x="452" d="M392 244H253V103H197V244H60V300H197V435H253V300H392V244ZM392 56V0H60V56H392Z" />
<glyph unicode="&#xb2;" glyph-name="twosuperior" horiz-adv-x="299" d="M88 527T106 532T142 538Q199 538 199 489Q199 467 183 444T130 384L47 307V275H251V324H137Q166 353 190 378T227 422Q252 458 252 491Q252 538 220 565Q193 587 145 587Q121 587 99 581T47
563L62 516Q88 527 106 532Z" />
<glyph unicode="&#xb3;" glyph-name="threesuperior" horiz-adv-x="292" d="M97 591T44 570L62 527Q101 545 133 545Q157 545 170 535T184 500Q184 453 108 453H101V411H112Q156 411 176 401T196 364Q196 338 180 326T127 314Q101 314 52 329L39 286Q57 279 83
274T137 268Q188 268 216 292T244 353Q244 387 233 404T196 435Q216 450 224 466T232 504Q232 546 205 568T135 591Q97 591 44 570Z" />
<glyph unicode="&#xb4;" glyph-name="acute" horiz-adv-x="193" d="M188 550L38 427L5 465L152 593L188 550Z" />
<glyph unicode="&#xb5;" glyph-name="uni00B5" horiz-adv-x="429" d="M121 -159V21Q152 -10 208 -10Q262 -10 317 27L330 0H374V384H311V73Q252 44 214 44Q160 44 137 85Q127 104 124 123T121 176V384H58V-159H121Z" />
<glyph unicode="&#xb6;" glyph-name="paragraph" horiz-adv-x="495" d="M141 586T86 548T31 429Q31 357 78 313T200 266L201 0H268V528H361V0H427V586H228Q141 586 86 548Z" />
<glyph unicode="&#xb7;" glyph-name="middot" horiz-adv-x="229" d="M94 235T80 249T65 285Q65 305 79 319T115 334Q135 334 149 320T164 285Q164 264 150 250T115 235Q94 235 80 249Z" />
<glyph unicode="&#xb8;" glyph-name="cedilla" horiz-adv-x="194" d="M117 -162T128 -155T139 -131Q139 -105 99 -96L44 -81L68 11H117L101 -49L117 -53Q150 -64 169 -82T189 -136Q189 -168 166 -187T100 -207Q82 -207 66 -203T18 -190L5 -188L20 -142L31 -145Q77
-159 99 -161Q117 -162 128 -155Z" />
<glyph unicode="&#xb9;" glyph-name="onesuperior" horiz-adv-x="179" d="M24 555L43 514L99 530V275H151V582H107L24 555Z" />
<glyph unicode="&#xba;" glyph-name="ordmasculine" horiz-adv-x="300" d="M202 307T231 338T260 425Q260 480 232 511T150 543Q99 543 70 511T40 425Q40 370 68 339T149 307Q202 307 231 338ZM179 506T197 484T215 425Q215 387 198 366T150 344Q121 344 103 366T85
425Q85 462 103 484T150 506Q179 506 197 484Z" />
<glyph unicode="&#xbb;" glyph-name="guillemotright" horiz-adv-x="363" d="M126 241L20 100H92L190 241L92 384H20L126 241ZM270 241L165 100H237L334 241L237 384H165L270 241Z" />
<glyph unicode="&#xbc;" glyph-name="onequarter" horiz-adv-x="674" d="M47 524L66 483L122 498V240H175V550H131L47 524ZM170 0L520 550H459L108 0H170ZM364 107V66H514V0H565V66H619V113H565V309H503L364 107ZM514 240V113H427L514 240Z" />
<glyph unicode="&#xbd;" glyph-name="onehalf" horiz-adv-x="690" d="M47 523L66 483L122 498V239H175V550H131L47 523ZM170 0L520 550H459L108 0H170ZM466 252T484 257T520 263Q577 263 577 214Q577 192 561 169T508 109L425 32V0H629V49H515Q544 78 568 103T605
147Q630 183 630 216Q630 263 598 290Q571 312 523 312Q499 312 477 306T425 288L440 241Q466 252 484 257Z" />
<glyph unicode="&#xbe;" glyph-name="threequarters" horiz-adv-x="721" d="M115 556T62 535L80 492Q119 510 151 510Q175 510 188 500T202 465Q202 418 126 418H119V376H130Q174 376 194 366T214 329Q214 303 198 291T145 279Q119 279 70 294L57 251Q75 244 101
239T155 233Q206 233 234 257T262 318Q262 352 251 369T214 400Q234 415 242 431T250 469Q250 511 223 533T153 556Q115 556 62 535ZM218 0L568 550H506L156 0H218ZM410 107V66H562V0H613V66H661V113H613V309H550L410 107ZM562 240V113H476L562 240Z" />
<glyph unicode="&#xbf;" glyph-name="questiondown" horiz-adv-x="395" d="M263 483T273 473T283 445Q283 428 273 418T245 407Q227 407 217 417T207 445Q207 462 217 472T245 483Q263 483 273 473ZM156 -55T113 -21T70 77Q70 122 88 151T141 213Q146 218 170
241T204 290T213 351H276Q276 278 242 233Q229 217 198 188Q164 156 148 134T131 82Q131 42 155 23T225 3Q261 3 287 10T345 33L365 -21Q329 -37 297 -46T221 -55Q156 -55 113 -21Z" />
<glyph unicode="&#xc0;" glyph-name="Agrave" horiz-adv-x="488" d="M204 550L16 0H85L137 161H347L399 0H473L284 550H204ZM156 218L241 481L328 218H156ZM346 627L325 586L155 652L180 705L346 627Z" />
<glyph unicode="&#xc1;" glyph-name="Aacute" horiz-adv-x="488" d="M204 550L16 0H85L137 161H347L399 0H473L284 550H204ZM156 218L241 481L328 218H156ZM171 586L149 627L315 705L342 652L171 586Z" />
<glyph unicode="&#xc2;" glyph-name="Acircumflex" horiz-adv-x="488" d="M204 550L16 0H85L137 161H347L399 0H473L284 550H204ZM156 218L241 481L328 218H156ZM335 592L245 656L155 592L122 628L245 720L367 628L335 592Z" />
<glyph unicode="&#xc3;" glyph-name="Atilde" horiz-adv-x="488" d="M204 550L16 0H85L137 161H347L399 0H473L284 550H204ZM156 218L241 481L328 218H156ZM210 687T222 681T253 661Q280 642 291 642Q310 642 319 653T334 687L380 673Q373 637 350 616T293 594Q275
594 260 601T230 621Q226 623 216 630T197 637Q181 637 173 627T157 593L112 607Q120 644 142 665T196 687Q210 687 222 681Z" />
<glyph unicode="&#xc4;" glyph-name="Adieresis" horiz-adv-x="488" d="M204 550L16 0H85L137 161H347L399 0H473L284 550H204ZM156 218L241 481L328 218H156ZM149 615T138 626T127 652Q127 667 138 678T164 689Q179 689 190 678T201 652Q201 637 190 626T164
615Q149 615 138 626ZM307 615T296 626T285 652Q285 667 296 678T322 689Q337 689 348 678T359 652Q359 637 348 626T322 615Q307 615 296 626Z" />
<glyph unicode="&#xc5;" glyph-name="Aring" horiz-adv-x="499" d="M145 668T175 697T248 727Q290 727 320 698T351 627Q351 598 335 574T292 538L483 0H416L360 161H133L78 0H16L207 536Q179 548 162 573T145 627Q145 668 175 697ZM305 651T288 667T247 684Q221
684 206 668T190 627Q190 603 205 587T246 570Q271 570 288 587T305 629Q305 651 288 667ZM339 218L247 486L153 218H339Z" />
<glyph unicode="&#xc6;" glyph-name="AE" horiz-adv-x="685" d="M394 494V313H613V256H394V58H634V0H333V161H141L80 0H16L231 550H634V494H394ZM270 494L164 218H333V494H270Z" />
<glyph unicode="&#xc7;" glyph-name="Ccedilla" horiz-adv-x="516" d="M306 -172T316 -165T326 -142Q326 -127 316 -119T284 -106L219 -91L240 2Q172 18 119 71Q44 149 44 276Q44 338 65 390T121 478Q154 513 205 535T314 558Q367 558 402 552T479 529L462 475Q421
489 396 493T326 498Q282 498 242 480T177 435Q119 371 119 277Q119 209 147 159T225 81Q275 52 340 52Q402 52 470 79L486 27Q414 -9 320 -9Q306 -9 298 -8L288 -52L300 -55Q337 -66 360 -84T384 -145Q384 -179 358 -202T292 -226Q269 -226 249 -222T189 -206L205
-153L217 -157Q274 -172 290 -172Q306 -172 316 -165Z" />
<glyph unicode="&#xc8;" glyph-name="Egrave" horiz-adv-x="442" d="M389 58H133V256H369V313H133V494H389V550H67V0H389V58ZM330 627L309 586L139 652L164 705L330 627Z" />
<glyph unicode="&#xc9;" glyph-name="Eacute" horiz-adv-x="442" d="M389 58H133V256H369V313H133V494H389V550H67V0H389V58ZM155 586L133 627L299 705L326 652L155 586Z" />
<glyph unicode="&#xca;" glyph-name="Ecircumflex" horiz-adv-x="442" d="M389 58H133V256H369V313H133V494H389V550H67V0H389V58ZM319 592L229 656L139 592L106 628L229 720L351 628L319 592Z" />
<glyph unicode="&#xcb;" glyph-name="Edieresis" horiz-adv-x="442" d="M389 58H133V256H369V313H133V494H389V550H67V0H389V58ZM133 615T122 626T111 652Q111 667 122 678T148 689Q163 689 174 678T185 652Q185 637 174 626T148 615Q133 615 122 626ZM291 615T280
626T269 652Q269 667 280 678T306 689Q321 689 332 678T343 652Q343 637 332 626T306 615Q291 615 280 626Z" />
<glyph unicode="&#xcc;" glyph-name="Igrave" horiz-adv-x="217" d="M141 0V550H76V0H141ZM210 627L189 586L19 652L44 705L210 627Z" />
<glyph unicode="&#xcd;" glyph-name="Iacute" horiz-adv-x="217" d="M141 0V550H76V0H141ZM35 586L13 627L179 705L206 652L35 586Z" />
<glyph unicode="&#xce;" glyph-name="Icircumflex" horiz-adv-x="217" d="M141 0V550H76V0H141ZM455 592L365 656L275 592L242 628L365 720L487 628L455 592Z" />
<glyph unicode="&#xcf;" glyph-name="Idieresis" horiz-adv-x="217" d="M141 0V550H76V0H141ZM269 615T258 626T247 652Q247 667 258 678T284 689Q299 689 310 678T321 652Q321 637 310 626T284 615Q269 615 258 626ZM427 615T416 626T405 652Q405 667 416 678T442
689Q457 689 468 678T479 652Q479 637 468 626T442 615Q427 615 416 626Z" />
<glyph unicode="&#xd0;" glyph-name="Eth" horiz-adv-x="592" d="M554 154T484 79T275 0H106V256H13V308H106V550H260Q359 550 419 525T518 439Q554 385 554 296Q554 154 484 79ZM252 58Q280 58 332 63Q376 70 410 95T463 159Q488 214 488 287Q488 340 467 383T410
454T331 490Q312 494 279 494H172V308H296V256H172V58H252Z" />
<glyph unicode="&#xd1;" glyph-name="Ntilde" horiz-adv-x="574" d="M129 0V463L429 0H514V550H446V89L147 550H63V0H129ZM262 687T274 681T305 661Q332 642 343 642Q362 642 371 653T386 687L432 673Q425 637 402 616T345 594Q327 594 312 601T282 621Q278 623
268 630T249 637Q233 637 225 627T209 593L164 607Q172 644 194 665T248 687Q262 687 274 681Z" />
<glyph unicode="&#xd2;" glyph-name="Ograve" horiz-adv-x="606" d="M383 556T440 521T530 424Q562 354 562 275Q562 194 530 127Q498 65 441 29T302 -7Q221 -7 165 29T76 127Q44 185 44 275Q44 363 76 424Q108 485 164 520T302 556Q383 556 440 521ZM365 51T403
80T465 161Q489 211 489 275Q489 338 465 389Q414 498 302 498Q240 498 202 469T140 389Q117 343 117 275Q117 206 140 161Q164 110 202 81T302 51Q365 51 403 80ZM404 627L383 586L213 652L238 705L404 627Z" />
<glyph unicode="&#xd3;" glyph-name="Oacute" horiz-adv-x="606" d="M383 556T440 521T530 424Q562 354 562 275Q562 194 530 127Q498 65 441 29T302 -7Q221 -7 165 29T76 127Q44 185 44 275Q44 363 76 424Q108 485 164 520T302 556Q383 556 440 521ZM365 51T403
80T465 161Q489 211 489 275Q489 338 465 389Q414 498 302 498Q240 498 202 469T140 389Q117 343 117 275Q117 206 140 161Q164 110 202 81T302 51Q365 51 403 80ZM229 586L207 627L373 705L400 652L229 586Z" />
<glyph unicode="&#xd4;" glyph-name="Ocircumflex" horiz-adv-x="606" d="M383 556T440 521T530 424Q562 354 562 275Q562 194 530 127Q498 65 441 29T302 -7Q221 -7 165 29T76 127Q44 185 44 275Q44 363 76 424Q108 485 164 520T302 556Q383 556 440 521ZM365
51T403 80T465 161Q489 211 489 275Q489 338 465 389Q414 498 302 498Q240 498 202 469T140 389Q117 343 117 275Q117 206 140 161Q164 110 202 81T302 51Q365 51 403 80ZM393 592L303 656L213 592L180 628L303 720L425 628L393 592Z" />
<glyph unicode="&#xd5;" glyph-name="Otilde" horiz-adv-x="606" d="M383 556T440 521T530 424Q562 354 562 275Q562 194 530 127Q498 65 441 29T302 -7Q221 -7 165 29T76 127Q44 185 44 275Q44 363 76 424Q108 485 164 520T302 556Q383 556 440 521ZM365 51T403
80T465 161Q489 211 489 275Q489 338 465 389Q414 498 302 498Q240 498 202 469T140 389Q117 343 117 275Q117 206 140 161Q164 110 202 81T302 51Q365 51 403 80ZM268 687T280 681T311 661Q338 642 349 642Q368 642 377 653T392 687L438 673Q431 637 408 616T351
594Q333 594 318 601T288 621Q284 623 274 630T255 637Q239 637 231 627T215 593L170 607Q178 644 200 665T254 687Q268 687 280 681Z" />
<glyph unicode="&#xd6;" glyph-name="Odieresis" horiz-adv-x="606" d="M383 556T440 521T530 424Q562 354 562 275Q562 194 530 127Q498 65 441 29T302 -7Q221 -7 165 29T76 127Q44 185 44 275Q44 363 76 424Q108 485 164 520T302 556Q383 556 440 521ZM365 51T403
80T465 161Q489 211 489 275Q489 338 465 389Q414 498 302 498Q240 498 202 469T140 389Q117 343 117 275Q117 206 140 161Q164 110 202 81T302 51Q365 51 403 80ZM207 615T196 626T185 652Q185 667 196 678T222 689Q237 689 248 678T259 652Q259 637 248 626T222
615Q207 615 196 626ZM365 615T354 626T343 652Q343 667 354 678T380 689Q395 689 406 678T417 652Q417 637 406 626T380 615Q365 615 354 626Z" />
<glyph unicode="&#xd7;" glyph-name="multiply" horiz-adv-x="436" d="M356 317L315 356L220 260L123 355L81 312L175 217L80 120L119 80L215 177L312 80L355 123L259 220L356 317Z" />
<glyph unicode="&#xd8;" glyph-name="Oslash" horiz-adv-x="647" d="M97 127Q65 191 65 275Q65 357 97 424Q128 485 185 520T323 556Q432 556 502 486L575 556L617 511L539 437Q579 363 579 275Q579 192 548 127Q516 65 460 29T323 -7Q215 -7 144 62L72 -8L30
37L106 109L97 127ZM136 211T160 161V160L454 440Q406 498 323 498Q260 498 222 469T160 389Q136 338 136 275Q136 211 160 161ZM436 51T485 161Q509 208 509 275Q509 339 485 387L193 107Q241 51 323 51Q436 51 485 161Z" />
<glyph unicode="&#xd9;" glyph-name="Ugrave" horiz-adv-x="542" d="M161 -9T112 45T62 210V550H127V194Q127 145 145 110Q162 79 192 64T271 49Q365 49 396 110Q415 146 415 194V550H480V210Q480 99 431 45T271 -9Q161 -9 112 45ZM373 627L352 586L182 652L207
705L373 627Z" />
<glyph unicode="&#xda;" glyph-name="Uacute" horiz-adv-x="542" d="M161 -9T112 45T62 210V550H127V194Q127 145 145 110Q162 79 192 64T271 49Q365 49 396 110Q415 146 415 194V550H480V210Q480 99 431 45T271 -9Q161 -9 112 45ZM198 586L176 627L342 705L369
652L198 586Z" />
<glyph unicode="&#xdb;" glyph-name="Ucircumflex" horiz-adv-x="542" d="M161 -9T112 45T62 210V550H127V194Q127 145 145 110Q162 79 192 64T271 49Q365 49 396 110Q415 146 415 194V550H480V210Q480 99 431 45T271 -9Q161 -9 112 45ZM362 592L272 656L182 592L149
628L272 720L394 628L362 592Z" />
<glyph unicode="&#xdc;" glyph-name="Udieresis" horiz-adv-x="542" d="M161 -9T112 45T62 210V550H127V194Q127 145 145 110Q162 79 192 64T271 49Q365 49 396 110Q415 146 415 194V550H480V210Q480 99 431 45T271 -9Q161 -9 112 45ZM176 615T165 626T154 652Q154
667 165 678T191 689Q206 689 217 678T228 652Q228 637 217 626T191 615Q176 615 165 626ZM334 615T323 626T312 652Q312 667 323 678T349 689Q364 689 375 678T386 652Q386 637 375 626T349 615Q334 615 323 626Z" />
<glyph unicode="&#xdd;" glyph-name="Yacute" horiz-adv-x="454" d="M445 550H370L228 324L87 550H9L191 261V0H257V261L445 550ZM155 586L133 627L299 705L326 652L155 586Z" />
<glyph unicode="&#xde;" glyph-name="Thorn" horiz-adv-x="464" d="M326 450T378 410T430 292Q430 235 401 195T319 139Q302 134 265 130T196 126Q165 126 129 129V0H63V550H129V445Q194 450 231 450Q326 450 378 410ZM364 347T324 368T210 390Q191 390 129 388V188Q160
185 209 185Q287 185 325 208T364 292Q364 347 324 368Z" />
<glyph unicode="&#xdf;" glyph-name="germandbls" horiz-adv-x="488" d="M78 468T120 511T233 554Q286 554 325 517Q344 499 355 475T366 427Q366 385 328 349Q314 337 307 332Q283 311 274 301T264 279Q264 265 271 256Q280 242 311 229L338 219Q443 183 443
101Q443 75 432 53T406 18Q374 -10 315 -10Q256 -10 196 9L207 53Q271 42 301 42Q338 42 356 55T375 100Q375 127 360 139T310 166L289 175Q246 194 223 214T200 272Q200 300 217 322T264 368Q268 371 279 380T296 400T302 424Q302 454 278 475T225 497Q188 497
165 471Q142 448 142 396V0H79L78 397Q78 468 120 511Z" />
<glyph unicode="&#xe0;" glyph-name="agrave" horiz-adv-x="393" d="M159 333T130 329T77 317L64 365Q131 388 189 388Q254 388 288 368Q318 346 329 321T341 248V0H292L278 36Q221 -10 161 -10Q109 -10 74 20T38 96Q38 141 65 170T133 210Q184 223 276 225V228Q276
269 268 288Q252 333 180 333Q159 333 130 329ZM203 42T228 53T276 86V178Q207 177 174 170Q137 162 119 147T101 103Q101 74 121 58T170 42Q203 42 228 53ZM239 427L89 550L125 593L272 465L239 427Z" />
<glyph unicode="&#xe1;" glyph-name="aacute" horiz-adv-x="393" d="M159 333T130 329T77 317L64 365Q131 388 189 388Q254 388 288 368Q318 346 329 321T341 248V0H292L278 36Q221 -10 161 -10Q109 -10 74 20T38 96Q38 141 65 170T133 210Q184 223 276 225V228Q276
269 268 288Q252 333 180 333Q159 333 130 329ZM203 42T228 53T276 86V178Q207 177 174 170Q137 162 119 147T101 103Q101 74 121 58T170 42Q203 42 228 53ZM272 550L122 427L89 465L236 593L272 550Z" />
<glyph unicode="&#xe2;" glyph-name="acircumflex" horiz-adv-x="393" d="M159 333T130 329T77 317L64 365Q131 388 189 388Q254 388 288 368Q318 346 329 321T341 248V0H292L278 36Q221 -10 161 -10Q109 -10 74 20T38 96Q38 141 65 170T133 210Q184 223 276 225V228Q276
269 268 288Q252 333 180 333Q159 333 130 329ZM203 42T228 53T276 86V178Q207 177 174 170Q137 162 119 147T101 103Q101 74 121 58T170 42Q203 42 228 53ZM270 435L189 517L108 435L72 470L189 592L306 470L270 435Z" />
<glyph unicode="&#xe3;" glyph-name="atilde" horiz-adv-x="393" d="M159 333T130 329T77 317L64 365Q131 388 189 388Q254 388 288 368Q318 346 329 321T341 248V0H292L278 36Q221 -10 161 -10Q109 -10 74 20T38 96Q38 141 65 170T133 210Q184 223 276 225V228Q276
269 268 288Q252 333 180 333Q159 333 130 329ZM203 42T228 53T276 86V178Q207 177 174 170Q137 162 119 147T101 103Q101 74 121 58T170 42Q203 42 228 53ZM155 536T167 530T198 510Q225 491 236 491Q254 491 263 502T279 536L325 521Q318 486 295 465T238 443Q220
443 205 450T175 470Q171 472 161 479T142 486Q126 486 118 476T102 442L57 457Q65 493 87 514T141 536Q155 536 167 530Z" />
<glyph unicode="&#xe4;" glyph-name="adieresis" horiz-adv-x="393" d="M159 333T130 329T77 317L64 365Q131 388 189 388Q254 388 288 368Q318 346 329 321T341 248V0H292L278 36Q221 -10 161 -10Q109 -10 74 20T38 96Q38 141 65 170T133 210Q184 223 276 225V228Q276
269 268 288Q252 333 180 333Q159 333 130 329ZM203 42T228 53T276 86V178Q207 177 174 170Q137 162 119 147T101 103Q101 74 121 58T170 42Q203 42 228 53ZM105 465T94 476T83 502Q83 517 94 528T120 539Q135 539 146 528T157 502Q157 487 146 476T120 465Q105
465 94 476ZM243 465T232 476T221 502Q221 517 232 528T258 539Q273 539 284 528T295 502Q295 487 284 476T258 465Q243 465 232 476Z" />
<glyph unicode="&#xe5;" glyph-name="aring" horiz-adv-x="393" d="M159 333T130 329T77 317L64 365Q131 388 189 388Q254 388 288 368Q318 346 329 321T341 248V0H292L278 36Q221 -10 161 -10Q109 -10 74 20T38 96Q38 141 65 170T133 210Q184 223 276 225V228Q276
269 268 288Q252 333 180 333Q159 333 130 329ZM203 42T228 53T276 86V178Q207 177 174 170Q137 162 119 147T101 103Q101 74 121 58T170 42Q203 42 228 53ZM103 557T128 583T189 609Q223 609 248 583T274 522Q274 487 249 461T189 435Q154 435 129 461T103 522Q103
557 128 583ZM235 542T222 555T189 569Q168 569 156 556T143 522Q143 502 155 489T188 475Q209 475 222 488T235 522Q235 542 222 555Z" />
<glyph unicode="&#xe6;" glyph-name="ae" horiz-adv-x="629" d="M512 389T553 344T594 215V180L589 172H335Q335 123 372 81Q390 63 414 55T474 46Q522 46 567 61L579 13Q516 -8 456 -8Q349 -8 308 58Q257 -10 161 -10Q109 -10 74 20T38 96Q38 141 64 169T131
208Q196 225 276 225V228Q276 269 268 288Q252 333 180 333Q159 333 130 329T77 317L64 365Q131 388 189 388Q254 388 288 368Q311 351 319 333Q344 362 371 375T437 389Q512 389 553 344ZM529 274T508 306T443 338Q351 338 336 224H529Q529 274 508 306ZM203 42T228
53T276 86V178Q223 177 190 174T129 155T101 103Q101 75 118 59T170 42Q203 42 228 53Z" />
<glyph unicode="&#xe7;" glyph-name="ccedilla" horiz-adv-x="358" d="M256 -161T256 -131Q256 -106 215 -96L161 -81L180 -6Q111 5 75 54T38 185Q38 278 85 332Q133 389 232 389Q283 389 332 368L315 320Q280 335 237 335Q169 335 135 300T100 197Q100 126 130
90T225 46Q230 45 242 45Q281 45 312 58L328 13Q271 -8 228 -9L218 -49L232 -53Q266 -64 286 -82T306 -136Q306 -168 283 -187T218 -207Q198 -207 180 -204T134 -192L122 -188L136 -142L148 -145Q184 -156 215 -159Q256 -161 256 -131Z" />
<glyph unicode="&#xe8;" glyph-name="egrave" horiz-adv-x="404" d="M286 389T327 344T368 215V180L364 172H101Q101 123 138 81Q173 46 247 46Q296 46 340 61L352 13Q291 -8 229 -8Q136 -8 87 42T38 185Q38 273 81 330Q127 389 210 389Q286 389 327 344ZM302
274T281 306T217 338Q164 338 136 306T102 224H302Q302 274 281 306ZM260 427L110 550L146 593L293 465L260 427Z" />
<glyph unicode="&#xe9;" glyph-name="eacute" horiz-adv-x="404" d="M286 389T327 344T368 215V180L364 172H101Q101 123 138 81Q173 46 247 46Q296 46 340 61L352 13Q291 -8 229 -8Q136 -8 87 42T38 185Q38 273 81 330Q127 389 210 389Q286 389 327 344ZM302
274T281 306T217 338Q164 338 136 306T102 224H302Q302 274 281 306ZM293 550L143 427L110 465L257 593L293 550Z" />
<glyph unicode="&#xea;" glyph-name="ecircumflex" horiz-adv-x="404" d="M286 389T327 344T368 215V180L364 172H101Q101 123 138 81Q173 46 247 46Q296 46 340 61L352 13Q291 -8 229 -8Q136 -8 87 42T38 185Q38 273 81 330Q127 389 210 389Q286 389 327 344ZM302
274T281 306T217 338Q164 338 136 306T102 224H302Q302 274 281 306ZM291 435L210 517L129 435L93 470L210 592L327 470L291 435Z" />
<glyph unicode="&#xeb;" glyph-name="edieresis" horiz-adv-x="404" d="M286 389T327 344T368 215V180L364 172H101Q101 123 138 81Q173 46 247 46Q296 46 340 61L352 13Q291 -8 229 -8Q136 -8 87 42T38 185Q38 273 81 330Q127 389 210 389Q286 389 327 344ZM302
274T281 306T217 338Q164 338 136 306T102 224H302Q302 274 281 306ZM126 465T115 476T104 502Q104 517 115 528T141 539Q156 539 167 528T178 502Q178 487 167 476T141 465Q126 465 115 476ZM264 465T253 476T242 502Q242 517 253 528T279 539Q294 539 305 528T316
502Q316 487 305 476T279 465Q264 465 253 476Z" />
<glyph unicode="&#xec;" glyph-name="igrave" horiz-adv-x="181" d="M123 0H58V384H123V0ZM397 427L247 550L283 593L430 465L397 427Z" />
<glyph unicode="&#xed;" glyph-name="iacute" horiz-adv-x="181" d="M123 0H58V384H123V0ZM430 550L280 427L247 465L394 593L430 550Z" />
<glyph unicode="&#xee;" glyph-name="icircumflex" horiz-adv-x="181" d="M123 0H58V384H123V0ZM428 435L347 517L266 435L230 470L347 592L464 470L428 435Z" />
<glyph unicode="&#xef;" glyph-name="idieresis" horiz-adv-x="181" d="M123 0H58V384H123V0ZM263 465T252 476T241 502Q241 517 252 528T278 539Q293 539 304 528T315 502Q315 487 304 476T278 465Q263 465 252 476ZM401 465T390 476T379 502Q379 517 390 528T416
539Q431 539 442 528T453 502Q453 487 442 476T416 465Q401 465 390 476Z" />
<glyph unicode="&#xf0;" glyph-name="eth" horiz-adv-x="444" d="M244 549T189 566L165 515Q202 502 237 480L177 439L199 403L271 452Q318 406 332 332Q262 366 210 366Q159 366 119 342T58 274T36 177Q36 127 58 85T122 18T220 -8Q314 -8 360 62T406 246Q406
394 321 486L375 523L354 560L288 515Q244 549 189 566ZM340 149T314 103Q297 74 277 60T224 45Q168 45 135 84T102 180Q102 238 134 275T228 313Q273 313 339 276Q340 267 340 247Q340 149 314 103Z" />
<glyph unicode="&#xf1;" glyph-name="ntilde" horiz-adv-x="427" d="M310 293T292 314T227 335Q178 335 121 308V0H56V384H101L115 352Q184 390 250 390Q311 390 343 356T375 260V0H310V244Q310 293 292 314ZM183 536T195 530T226 510Q253 491 264 491Q282 491
291 502T307 536L353 521Q346 486 323 465T266 443Q248 443 233 450T203 470Q199 472 189 479T170 486Q154 486 146 476T130 442L85 457Q93 493 115 514T169 536Q183 536 195 530Z" />
<glyph unicode="&#xf2;" glyph-name="ograve" horiz-adv-x="447" d="M135 -9T87 45T38 190Q38 282 87 335T225 389Q313 389 361 336T409 191Q409 101 359 46T222 -9Q135 -9 87 45ZM168 338T137 296T105 190Q105 126 136 85T225 44Q281 44 312 85T343 190Q343 254
312 296T225 338Q168 338 137 296ZM275 427L125 550L161 593L308 465L275 427Z" />
<glyph unicode="&#xf3;" glyph-name="oacute" horiz-adv-x="447" d="M135 -9T87 45T38 190Q38 282 87 335T225 389Q313 389 361 336T409 191Q409 101 359 46T222 -9Q135 -9 87 45ZM168 338T137 296T105 190Q105 126 136 85T225 44Q281 44 312 85T343 190Q343 254
312 296T225 338Q168 338 137 296ZM308 550L158 427L125 465L272 593L308 550Z" />
<glyph unicode="&#xf4;" glyph-name="ocircumflex" horiz-adv-x="447" d="M135 -9T87 45T38 190Q38 282 87 335T225 389Q313 389 361 336T409 191Q409 101 359 46T222 -9Q135 -9 87 45ZM168 338T137 296T105 190Q105 126 136 85T225 44Q281 44 312 85T343 190Q343
254 312 296T225 338Q168 338 137 296ZM306 435L225 517L144 435L108 470L225 592L342 470L306 435Z" />
<glyph unicode="&#xf5;" glyph-name="otilde" horiz-adv-x="447" d="M135 -9T87 45T38 190Q38 282 87 335T225 389Q313 389 361 336T409 191Q409 101 359 46T222 -9Q135 -9 87 45ZM168 338T137 296T105 190Q105 126 136 85T225 44Q281 44 312 85T343 190Q343 254
312 296T225 338Q168 338 137 296ZM191 536T203 530T234 510Q261 491 272 491Q290 491 299 502T315 536L361 521Q354 486 331 465T274 443Q256 443 241 450T211 470Q207 472 197 479T178 486Q162 486 154 476T138 442L93 457Q101 493 123 514T177 536Q191 536 203
530Z" />
<glyph unicode="&#xf6;" glyph-name="odieresis" horiz-adv-x="447" d="M135 -9T87 45T38 190Q38 282 87 335T225 389Q313 389 361 336T409 191Q409 101 359 46T222 -9Q135 -9 87 45ZM168 338T137 296T105 190Q105 126 136 85T225 44Q281 44 312 85T343 190Q343
254 312 296T225 338Q168 338 137 296ZM141 465T130 476T119 502Q119 517 130 528T156 539Q171 539 182 528T193 502Q193 487 182 476T156 465Q141 465 130 476ZM279 465T268 476T257 502Q257 517 268 528T294 539Q309 539 320 528T331 502Q331 487 320 476T294
465Q279 465 268 476Z" />
<glyph unicode="&#xf7;" glyph-name="divide" horiz-adv-x="450" d="M205 320T194 332T182 363Q182 382 193 394T225 406Q245 406 256 394T268 363Q268 344 257 332T225 320Q205 320 194 332ZM390 204V260H60V204H390ZM205 58T194 70T182 101Q182 120 193 132T225
144Q245 144 256 132T268 101Q268 82 257 70T225 58Q205 58 194 70Z" />
<glyph unicode="&#xf8;" glyph-name="oslash" horiz-adv-x="456" d="M160 -9T108 29L66 -12L29 22L74 68Q44 115 44 190Q44 282 92 335T228 389Q300 389 349 351L390 393L427 355L384 311Q412 264 412 191Q412 100 363 46T226 -9Q160 -9 108 29ZM172 338T141 296T109
190Q109 149 122 117L307 307Q276 338 228 338Q172 338 141 296ZM347 231T334 260L151 73Q182 44 228 44Q285 44 316 85T347 190Q347 231 334 260Z" />
<glyph unicode="&#xf9;" glyph-name="ugrave" horiz-adv-x="430" d="M121 88T140 67T205 46Q252 46 310 73V384H375V0H330L316 28Q243 -10 181 -10Q121 -10 89 25T56 121V384H121V137Q121 88 140 67ZM266 427L116 550L152 593L299 465L266 427Z" />
<glyph unicode="&#xfa;" glyph-name="uacute" horiz-adv-x="430" d="M121 88T140 67T205 46Q252 46 310 73V384H375V0H330L316 28Q243 -10 181 -10Q121 -10 89 25T56 121V384H121V137Q121 88 140 67ZM299 550L149 427L116 465L263 593L299 550Z" />
<glyph unicode="&#xfb;" glyph-name="ucircumflex" horiz-adv-x="430" d="M121 88T140 67T205 46Q252 46 310 73V384H375V0H330L316 28Q243 -10 181 -10Q121 -10 89 25T56 121V384H121V137Q121 88 140 67ZM297 435L216 517L135 435L99 470L216 592L333 470L297 435Z" />
<glyph unicode="&#xfc;" glyph-name="udieresis" horiz-adv-x="430" d="M121 88T140 67T205 46Q252 46 310 73V384H375V0H330L316 28Q243 -10 181 -10Q121 -10 89 25T56 121V384H121V137Q121 88 140 67ZM132 465T121 476T110 502Q110 517 121 528T147 539Q162
539 173 528T184 502Q184 487 173 476T147 465Q132 465 121 476ZM270 465T259 476T248 502Q248 517 259 528T285 539Q300 539 311 528T322 502Q322 487 311 476T285 465Q270 465 259 476Z" />
<glyph unicode="&#xfd;" glyph-name="yacute" horiz-adv-x="412" d="M169 -206H102L176 -20L22 384H90L208 66L326 384H388L169 -206ZM285 550L135 427L102 465L249 593L285 550Z" />
<glyph unicode="&#xfe;" glyph-name="thorn" horiz-adv-x="439" d="M160 -10T116 32V-206H51V550H116V344Q155 388 226 388Q268 388 301 373T357 330Q401 280 401 195Q401 130 371 79T291 7Q257 -10 222 -10Q160 -10 116 32ZM271 46T305 84T339 180Q339 239 319
270Q280 332 217 334Q163 334 137 294T111 189Q111 122 129 95Q159 46 217 46Q271 46 305 84Z" />
<glyph unicode="&#xff;" glyph-name="ydieresis" horiz-adv-x="412" d="M169 -206H102L176 -20L22 384H90L208 66L326 384H388L169 -206ZM118 465T107 476T96 502Q96 517 107 528T133 539Q148 539 159 528T170 502Q170 487 159 476T133 465Q118 465 107 476ZM256
465T245 476T234 502Q234 517 245 528T271 539Q286 539 297 528T308 502Q308 487 297 476T271 465Q256 465 245 476Z" />
<glyph unicode="&#x2013;" glyph-name="endash" horiz-adv-x="436" d="M376 190H40V237H376V190Z" />
<glyph unicode="&#x2014;" glyph-name="emdash" horiz-adv-x="646" d="M586 190H40V237H586V190Z" />
<glyph unicode="&#x2018;" glyph-name="quoteleft" horiz-adv-x="201" d="M127 456T127 424Q127 407 115 396T84 384Q64 384 52 397T40 432Q40 483 106 541L131 524Q107 487 98 465Q127 456 127 424Z" />
<glyph unicode="&#x2019;" glyph-name="quoteright" horiz-adv-x="201" d="M137 541T149 528T161 493Q161 465 142 437T94 384L70 400Q72 404 84 423T103 460Q74 469 74 501Q74 517 86 529T117 541Q137 541 149 528Z" />
<glyph unicode="&#x201a;" glyph-name="quotesinglbase" horiz-adv-x="181" d="M127 70T139 57T151 22Q151 -6 132 -34T84 -87L60 -71Q62 -67 74 -48T93 -11Q64 -2 64 30Q64 46 76 58T107 70Q127 70 139 57Z" />
<glyph unicode="&#x201c;" glyph-name="quotedblleft" horiz-adv-x="306" d="M382 456T382 424Q382 407 370 396T339 384Q319 384 307 397T295 432Q295 483 361 541L386 524Q362 487 353 465Q382 456 382 424ZM241 456T241 424Q241 407 229 396T198 384Q178 384
166 397T154 432Q154 483 220 541L245 524Q221 487 212 465Q241 456 241 424Z" />
<glyph unicode="&#x201d;" glyph-name="quotedblright" horiz-adv-x="316" d="M137 541T149 528T161 493Q161 465 142 437T94 384L70 400Q72 404 84 423T103 460Q74 469 74 501Q74 517 86 529T117 541Q137 541 149 528ZM252 541T264 528T276 493Q276 465 257 437T209
384L185 400Q187 404 199 423T218 460Q189 469 189 501Q189 517 201 529T232 541Q252 541 264 528Z" />
<glyph unicode="&#x201e;" glyph-name="quotedblbase" horiz-adv-x="316" d="M137 71T149 58T161 23Q161 -5 142 -33T94 -86L70 -70Q72 -66 84 -47T103 -10Q74 -1 74 31Q74 47 86 59T117 71Q137 71 149 58ZM252 71T264 58T276 23Q276 -5 257 -33T209 -86L185 -70Q187
-66 199 -47T218 -10Q189 -1 189 31Q189 47 201 59T232 71Q252 71 264 58Z" />
<glyph unicode="&#x2022;" glyph-name="bullet" horiz-adv-x="535" d="M304 135T334 153T382 201T400 268Q400 304 383 334T335 382T268 400Q232 400 202 382T153 334T135 268Q135 232 153 202T201 153T268 135Q304 135 334 153Z" />
<glyph unicode="&#x2039;" glyph-name="guilsinglleft" horiz-adv-x="219" d="M128 100H197L97 241L197 384H128L29 241L128 100Z" />
<glyph unicode="&#x203a;" glyph-name="guilsinglright" horiz-adv-x="219" d="M122 241L22 100H92L190 241L92 384H22L122 241Z" />
</font>
</defs>
</svg>
