<?xml version="1.0" standalone="no"?>
<!DOCTYPE svg PUBLIC "-//W3C//DTD SVG 1.1//EN" "http://www.w3.org/Graphics/SVG/1.1/DTD/svg11.dtd">
<svg xmlns="http://www.w3.org/2000/svg">
<defs >
<font id="SupermercadoOne" horiz-adv-x="1073" ><font-face
    font-family="Supermercado"
    units-per-em="2048"
    panose-1="2 1 6 4 3 1 0 4 8 4"
    ascent="1925"
    descent="-527"
    alphabetic="0" />
<glyph unicode=" " glyph-name="space" horiz-adv-x="513" />
<glyph unicode="!" glyph-name="exclam" horiz-adv-x="513" d="M102 1182Q91 1314 178 1362Q208 1379 252 1379T327 1362T379 1318Q419 1263 412 1182L353 522Q349 483 322 456T254 428Q214 428 188 455T158 522L102 1182ZM254 248Q309 248 348 208Q389 168 389
127T378 62T348 20Q309 -20 254 -20Q199 -20 160 20Q119 60 119 100Q119 168 159 208T254 248Z" />
<glyph unicode="&quot;" glyph-name="quotedbl" horiz-adv-x="1026" d="M179 1178Q173 1202 173 1226T183 1275T211 1319Q249 1359 292 1359T360 1348T403 1318Q443 1279 443 1222Q443 1200 439 1178L390 877Q385 845 363 822T307 798Q273 798 252 821T226 877L179
1178ZM588 1178Q582 1202 582 1226T592 1275T620 1319Q658 1359 701 1359T769 1348T812 1318Q852 1279 852 1222Q852 1200 848 1178L799 877Q794 845 772 822T716 798Q682 798 661 821T635 877L588 1178Z" />
<glyph unicode="#" glyph-name="numbersign" horiz-adv-x="1023" d="M545 429H405L362 60Q357 22 328 -1T271 -20T227 -7T200 16Q177 47 181 81L222 429H98Q63 429 44 448Q10 482 10 519T35 583T98 610H243L263 779H144Q109 779 90 798Q56 832 56 869T81 933T144
960H284L324 1298Q328 1337 350 1354Q389 1383 417 1380T461 1367T488 1344Q510 1314 506 1277L468 960H607L647 1298Q651 1337 673 1354Q712 1383 740 1380T784 1367T810 1344Q833 1314 829 1277L791 960H905Q940 960 960 940Q993 907 993 870T968 806T905 779H770L750
610H859Q894 610 914 590Q947 557 947 520T922 456T859 429H728L685 60Q680 22 651 -1T594 -20T550 -7T524 16Q500 47 504 81L545 429ZM427 610H566L586 779H447L427 610Z" />
<glyph unicode="$" glyph-name="dollar" horiz-adv-x="1023" d="M570 1319H704Q741 1319 767 1293T794 1239T787 1195T768 1166Q739 1139 704 1139H570V824L635 805Q734 776 796 696Q862 611 862 496V336Q862 211 787 134T570 43V-25Q570 -52 554 -69T514 -87T474
-70T458 -28V40H294Q257 40 231 66T204 120T211 164T230 193Q259 220 294 220H458V625L367 651Q223 692 176 833Q161 878 161 929V1023Q161 1147 238 1224T458 1316V1399Q458 1423 474 1439T515 1456T554 1440T570 1400V1319ZM570 226Q646 249 646 338V482Q646
556 570 592V226ZM377 958Q377 918 395 894T458 856V1133Q423 1121 400 1090T377 1020V958Z" />
<glyph unicode="%" glyph-name="percent" horiz-adv-x="1698" d="M1036 1361Q1060 1417 1119 1417Q1171 1417 1198 1376Q1212 1353 1212 1331T1204 1290L648 -19Q625 -74 567 -74Q515 -74 488 -32Q473 -8 473 14T480 52L1036 1361ZM148 1147Q148 1253 220 1316T428
1379Q628 1379 689 1242Q708 1199 708 1146V877Q708 770 636 708T429 646T222 708T148 880V1147ZM521 1143Q521 1182 494 1209T428 1237T361 1210T334 1143V873Q334 832 361 811T427 789T494 810T521 873V1143ZM989 482Q989 588 1061 651T1269 714Q1469 714 1530
577Q1549 534 1549 481V212Q1549 105 1477 43T1270 -19T1063 43T989 215V482ZM1362 478Q1362 517 1335 544T1269 572T1202 545T1175 478V208Q1175 167 1202 146T1268 124T1335 145T1362 208V478Z" />
<glyph unicode="&amp;" glyph-name="ampersand" horiz-adv-x="1193" d="M852 423Q888 368 888 298T864 174T792 80Q695 0 523 0Q260 0 181 172Q156 227 156 296V549Q156 691 252 761Q282 783 320 801Q246 841 220 882Q172 955 172 1053V1085Q172 1220 264 1298Q360
1379 527 1379Q687 1379 780 1300Q870 1223 872 1088V1073Q872 1024 847 999Q803 955 755 955Q706 955 680 980Q637 1024 637 1073V1088Q635 1135 612 1158Q571 1199 537 1199T481 1190T443 1165Q409 1131 409 1081V1019Q409 950 473 914Q490 905 517 899T570 868T596
802T571 735T517 703T468 688T430 663Q392 628 392 583V287Q392 211 472 188Q496 181 525 181T582 190T629 215Q671 249 671 290T658 353T629 393Q587 443 587 477T596 532T621 569Q655 603 705 603H850Q894 603 918 630Q958 675 958 722V786Q958 836 984 860Q1028
903 1065 903T1123 894T1160 869Q1195 833 1195 786V719Q1195 597 1108 510T899 423H852Z" />
<glyph unicode="&apos;" glyph-name="quotesingle" horiz-adv-x="513" d="M128 1178Q122 1202 122 1226T132 1275T160 1319Q198 1359 241 1359T309 1348T352 1318Q392 1279 392 1222Q392 1200 388 1178L339 877Q334 845 312 822T256 798Q222 798 201 821T175 877L128
1178Z" />
<glyph unicode="(" glyph-name="parenleft" horiz-adv-x="1023" d="M530 375Q530 102 638 -52Q668 -94 692 -118Q729 -158 729 -188T722 -235T702 -265Q674 -293 644 -293T589 -282T533 -246T468 -182T403 -89T346 34Q292 189 292 380V887Q292 1241 468 1449Q562
1560 636 1560Q676 1560 702 1533T729 1477Q729 1426 699 1394T638 1319T584 1217Q530 1084 530 892V375Z" />
<glyph unicode=")" glyph-name="parenright" horiz-adv-x="1023" d="M492 375Q492 102 384 -52Q354 -94 330 -118Q293 -158 293 -188T300 -235T320 -265Q348 -293 378 -293T433 -282T489 -246T554 -182T619 -89T676 34Q730 189 730 380V887Q730 1241 554 1449Q460
1560 386 1560Q346 1560 320 1533T293 1477Q293 1426 323 1394T384 1319T438 1217Q492 1084 492 892V375Z" />
<glyph unicode="*" glyph-name="asterisk" horiz-adv-x="808" d="M477 1139L562 1183Q592 1200 622 1200Q686 1200 707 1139Q713 1121 713 1095T685 1044T618 1014L528 1000L597 932Q636 893 636 862Q636 806 605 784T544 761Q485 761 453 827L409 913L365 826Q332
759 273 759Q245 759 223 776Q182 806 182 838Q182 892 221 931L287 997L192 1012Q127 1023 104 1068Q96 1083 96 1101T104 1143T135 1182T186 1197T247 1181L329 1139L314 1235Q303 1316 356 1348Q374 1359 401 1359T448 1348T478 1320Q501 1286 492 1235L477
1139Z" />
<glyph unicode="+" glyph-name="plus" horiz-adv-x="1023" d="M562 179T546 172T511 165T476 172T446 191Q420 216 420 253V525H182Q147 525 128 544Q94 578 94 606T101 650T120 680Q145 706 182 706H420V969Q420 1004 440 1024Q473 1057 501 1057T545 1050T574
1031Q601 1006 601 969V706H840Q875 706 894 686Q928 653 928 625T921 581T902 552Q877 525 840 525H601V253Q601 218 582 199Z" />
<glyph unicode="," glyph-name="comma" horiz-adv-x="513" d="M206 -62Q206 -19 176 8Q121 56 121 116Q121 171 160 210Q198 248 246 248T323 230T372 184Q407 129 407 48Q407 -107 319 -199Q265 -251 230 -251T176 -230T157 -186T164 -149T182 -122Q206 -88 206 -62Z" />
<glyph unicode="-" glyph-name="hyphen" horiz-adv-x="1023" d="M904 667T911 651T918 616T911 581T892 552Q867 525 830 525H192Q157 525 138 544Q104 578 104 606T111 650T130 680Q155 706 192 706H830Q865 706 884 687Z" />
<glyph unicode="." glyph-name="period" horiz-adv-x="513" d="M257 248Q312 248 352 208Q392 168 392 127T381 62T352 20Q312 -20 257 -20Q202 -20 162 20Q122 60 122 100Q122 168 162 208T257 248Z" />
<glyph unicode="/" glyph-name="slash" horiz-adv-x="1023" d="M653 1470Q663 1508 695 1526T765 1535T820 1493T829 1423L368 -292Q359 -329 327 -347T268 -359T226 -340T202 -313Q183 -279 193 -245L653 1470Z" />
<glyph unicode="0" glyph-name="zero" horiz-adv-x="1023" d="M156 1085Q156 1220 248 1298Q344 1379 511 1379Q677 1379 772 1298Q866 1219 866 1083V274Q866 65 662 2Q596 -19 512 -19T361 1T250 60Q156 140 156 277V1085ZM629 1080Q629 1130 604 1155Q560 1199
511 1199Q462 1199 436 1174Q393 1130 393 1080V268Q393 217 426 190T510 162T595 189T629 268V1080Z" />
<glyph unicode="1" glyph-name="one" horiz-adv-x="678" d="M20 1217T13 1233T6 1278T31 1332T94 1359H368Q406 1359 431 1333T457 1269V97Q457 49 432 24Q388 -20 351 -20T292 -11T254 14Q219 48 219 97V1178H94Q59 1178 40 1197Z" />
<glyph unicode="2" glyph-name="two" horiz-adv-x="1023" d="M526 1359Q686 1359 779 1248Q862 1148 862 997Q862 829 740 678Q703 633 660 585L501 407Q441 341 425 307Q398 251 398 181H770Q805 181 824 162Q858 128 858 91T833 27T770 0H279Q230 0 204 26Q161
69 161 120V122Q161 276 194 352T272 487T386 623L560 812Q592 846 613 899T635 1001T622 1082T586 1136Q542 1178 482 1178H286Q250 1178 230 1198Q196 1232 196 1269T222 1332T286 1359H526Z" />
<glyph unicode="3" glyph-name="three" horiz-adv-x="1023" d="M569 854Q597 869 638 869T718 848T786 787Q846 704 846 573V294Q846 165 759 86Q664 0 491 0H253Q218 0 198 20Q165 53 165 90T190 154T253 181H491Q540 181 566 206Q609 250 609 300V570Q609 634
586 663Q547 709 515 709T468 701T438 682Q402 655 378 655T336 662T306 683Q279 710 279 735Q279 775 296 800L561 1178H213Q178 1178 158 1198Q125 1231 125 1268T150 1332T213 1359H741Q786 1359 816 1331T846 1274Q846 1223 828 1200L569 854Z" />
<glyph unicode="4" glyph-name="four" horiz-adv-x="1023" d="M978 364Q978 304 922 280Q906 273 887 273H827V97Q827 49 802 24Q758 -20 721 -20T662 -11T624 14Q589 48 589 97V273H179Q127 273 100 326Q82 359 93 397L360 1290Q371 1329 403 1352T464 1375T520
1366T569 1326T591 1265T585 1217L331 453H589V794Q589 843 614 870Q657 914 709 914Q759 914 783 888Q827 843 827 794V453H887Q924 453 944 434Q978 402 978 364Z" />
<glyph unicode="5" glyph-name="five" horiz-adv-x="1023" d="M146 1239Q146 1318 218 1350Q239 1359 264 1359H765Q802 1359 827 1333T853 1278T846 1234T827 1205Q800 1178 765 1178H374V850Q374 831 384 825T405 818T423 826T450 854Q509 911 616 911T796 824Q867
737 867 615V294Q867 165 780 86Q685 0 512 0H271Q236 0 216 20Q183 53 183 90T208 154T271 181H512Q561 181 586 206Q630 250 630 300V612Q630 688 550 722Q527 731 491 731T426 710T382 657T336 608T274 589T222 599T182 626Q146 662 146 713V1239Z" />
<glyph unicode="6" glyph-name="six" horiz-adv-x="1023" d="M644 1359Q681 1359 707 1333T734 1279T727 1235T708 1206Q679 1179 644 1179H566Q498 1179 448 1122Q393 1060 393 947V859Q393 840 403 834T424 827T442 836L459 852Q527 920 615 920Q722 920 794
832Q866 746 866 624V275Q866 140 774 62Q678 -19 511 -19Q345 -19 250 62Q156 141 156 277V937Q156 1112 248 1229Q351 1359 532 1359H644ZM629 621Q629 671 604 696Q560 740 524 740T466 733T428 711Q393 681 393 633V280Q393 230 418 205Q462 161 511 161Q560
161 586 186Q629 230 629 280V621Z" />
<glyph unicode="7" glyph-name="seven" horiz-adv-x="855" d="M447 65Q436 26 404 3T343 -20T287 -11T238 29T216 89T222 138L557 1179H200Q163 1179 143 1198Q109 1230 109 1268Q109 1328 164 1352Q181 1359 200 1359H697Q751 1359 780 1320Q806 1282 794 1236L447 65Z" />
<glyph unicode="8" glyph-name="eight" horiz-adv-x="1023" d="M718 710Q873 650 873 487V277Q873 140 776 61T511 -19Q343 -19 246 60T149 277V487Q149 650 303 710Q234 749 207 790Q161 862 161 959V1083Q161 1219 254 1298Q348 1379 511 1379Q674 1379 768
1298Q861 1219 861 1083V959Q861 820 776 750Q750 728 718 710ZM638 507Q638 556 611 582Q564 626 510 626Q457 626 429 600Q382 558 382 507V267Q382 216 418 189T509 161T601 188T638 267V507ZM623 1080Q623 1158 556 1190Q535 1199 497 1199T428 1165T397 1080V893Q397
842 430 815T498 787T553 794T590 814Q623 844 623 893V1080Z" />
<glyph unicode="9" glyph-name="nine" horiz-adv-x="1023" d="M456 0Q419 0 393 26T366 80T373 124T392 153Q421 180 454 180T518 196T574 244Q629 314 629 442V520Q629 539 619 545T598 552T580 544L563 527Q495 459 407 459Q300 459 228 546Q156 633 156 755V1085Q156
1220 248 1298Q344 1379 511 1379Q677 1379 772 1298Q866 1219 866 1083V452Q866 265 774 140Q670 0 490 0H456ZM393 758Q393 708 418 683Q462 639 498 639T556 646T594 668Q629 698 629 746V1080Q629 1130 604 1155Q560 1199 511 1199Q462 1199 436 1174Q393 1130
393 1080V758Z" />
<glyph unicode=":" glyph-name="colon" horiz-adv-x="513" d="M257 248Q312 248 352 208Q392 168 392 127T381 62T352 20Q312 -20 257 -20Q202 -20 162 20Q122 60 122 100Q122 168 162 208T257 248ZM257 1085Q312 1085 352 1045Q392 1005 392 964T381 899T352
857Q312 817 257 817Q202 817 162 857Q122 897 122 937Q122 1005 162 1045T257 1085Z" />
<glyph unicode=";" glyph-name="semicolon" horiz-adv-x="513" d="M257 1085Q312 1085 352 1045Q392 1005 392 964T381 899T352 857Q312 817 257 817Q202 817 162 857Q122 897 122 937Q122 1005 162 1045T257 1085ZM206 -62Q206 -19 176 8Q121 56 121 116Q121
171 160 210Q198 248 246 248T323 230T372 184Q407 129 407 48Q407 -107 319 -199Q265 -251 230 -251T176 -230T157 -186T164 -149T182 -122Q206 -88 206 -62Z" />
<glyph unicode="&lt;" glyph-name="less" horiz-adv-x="1023" d="M852 238Q830 226 807 226T764 238L127 605Q84 629 84 686Q84 735 127 760L764 1127Q783 1139 806 1139Q860 1139 885 1093Q898 1071 898 1047Q898 996 855 971L354 682L855 394Q898 369 898 317T852 238Z" />
<glyph unicode="=" glyph-name="equal" horiz-adv-x="1023" d="M904 486T911 470T918 435T911 400T892 370Q867 344 830 344H192Q157 344 138 364Q104 397 104 425T111 469T130 498Q155 525 192 525H830Q865 525 884 506ZM904 848T911 832T918 797T911 762T892
732Q867 706 830 706H192Q157 706 138 726Q104 759 104 787T111 831T130 860Q155 887 192 887H830Q865 887 884 868Z" />
<glyph unicode="&gt;" glyph-name="greater" horiz-adv-x="1023" d="M173 238Q195 226 218 226T261 238L898 605Q941 629 941 686Q941 735 898 760L261 1127Q242 1139 219 1139Q165 1139 140 1093Q127 1071 127 1047Q127 996 170 971L671 682L170 394Q127 369
127 317T173 238Z" />
<glyph unicode="?" glyph-name="question" horiz-adv-x="1026" d="M287 599Q287 791 502 908L564 941Q626 973 626 1037V1059Q626 1108 600 1134Q556 1178 507 1178H251Q216 1178 195 1198Q161 1230 161 1267T187 1331T251 1358H509Q674 1358 770 1278Q862 1199
862 1062V1028Q862 863 656 750L610 724Q547 689 522 628Q513 607 513 586V559Q513 513 489 489Q448 448 413 448T356 457T320 481Q287 514 287 559V599ZM399 249Q454 249 494 210Q534 169 534 128T523 63T494 20Q454 -19 399 -19Q344 -19 304 20Q264 61 264 102Q264
169 304 209T399 249Z" />
<glyph unicode="@" glyph-name="at" horiz-adv-x="1698" d="M1105 -179T1121 -195T1138 -236T1122 -275T1082 -291H840Q548 -291 382 -176Q218 -62 218 135V1026Q218 1224 379 1338Q544 1455 839 1455Q1140 1455 1311 1338Q1480 1221 1480 1024V280Q1480 178 1416
116Q1354 55 1238 55T1057 132Q1049 141 1042 141Q1027 141 1021 132Q957 55 824 55Q715 55 640 116Q564 180 564 283V857Q564 950 627 1017Q690 1084 774 1084Q860 1084 920 1019Q925 1013 935 1013Q948 1013 953 1025T964 1045T980 1062Q1004 1084 1031 1084T1076
1077T1108 1058Q1140 1029 1140 992V275Q1140 232 1180 200Q1218 170 1255 170T1315 195T1339 265V1024Q1339 1171 1206 1257Q1073 1344 836 1344Q609 1344 482 1258Q358 1173 358 1026V150Q358 -3 484 -90Q612 -178 837 -178L1082 -179Q1105 -179 1121 -195ZM948
863Q948 900 924 917Q885 946 856 946T810 939T782 920Q756 892 756 854V275Q756 236 782 215T837 194T883 199T916 214Q948 237 948 275V863Z" />
<glyph unicode="A" glyph-name="A" horiz-adv-x="1193" d="M427 1148Q427 1178 398 1178H282Q237 1178 214 1152Q174 1107 174 1060V1003Q174 925 101 895Q79 886 55 886T9 895T-28 920Q-63 954 -63 1003V1063Q-63 1185 24 1272T233 1359H689Q855 1359 950 1278Q1044
1199 1044 1063V98Q1044 22 972 -10Q951 -19 927 -19T880 -10T842 16Q807 49 807 98V433H570V98Q570 50 544 24Q501 -19 464 -19T405 -10T367 16Q333 48 333 98V433H261Q226 433 206 452Q173 486 173 523T198 587T261 614H333V955Q333 1050 418 1130Q427 1138 427
1148ZM570 614H807V1059Q807 1109 782 1134Q738 1178 701 1178T642 1169T604 1143Q570 1109 570 1060V614Z" />
<glyph unicode="B" glyph-name="B" horiz-adv-x="1191" d="M231 0Q194 0 174 19Q140 51 140 79T147 124T166 154Q194 181 231 181H333V955Q333 1050 418 1130Q427 1138 427 1147T421 1167T395 1178H283Q238 1178 215 1152Q175 1107 175 1060V1003Q175 925 102
895Q80 886 56 886T10 895T-28 920Q-62 954 -62 1003V1063Q-62 1185 25 1272T234 1359H697Q933 1359 1014 1197Q1042 1141 1042 1063V852Q1042 687 880 626Q947 587 973 546Q1019 475 1019 380V296Q1019 173 933 87Q846 0 724 0H231ZM570 722H689Q765 722 796 794Q806
815 806 841V1061Q806 1108 781 1134Q739 1178 700 1178T638 1169T601 1142Q570 1108 570 1061V722ZM664 181Q713 181 738 206Q783 251 783 300V424Q783 473 758 498Q714 542 664 542H570V181H664Z" />
<glyph unicode="C" glyph-name="C" horiz-adv-x="1026" d="M633 1006T646 1027T659 1077T649 1126T621 1164Q582 1199 522 1199T428 1165T393 1080V268Q393 217 426 190T510 162T595 189T629 268V333Q629 383 654 408Q697 451 734 451T793 442T831 417Q866 382
866 333V274Q866 65 662 2Q596 -19 512 -19T361 1T250 60Q156 140 156 277V1085Q156 1220 248 1298Q344 1379 511 1379Q683 1379 780 1298Q876 1219 876 1084Q876 873 768 799Q735 776 702 776T647 785T609 810Q575 842 575 883T588 945T617 986Z" />
<glyph unicode="D" glyph-name="D" horiz-adv-x="1193" d="M174 1003Q174 925 101 895Q79 886 55 886T9 895T-29 920Q-63 952 -63 1003V1063Q-63 1185 24 1272T233 1359H746Q868 1359 955 1272Q1041 1186 1041 1063V296Q1041 173 955 87Q868 0 746 0H221Q184 0
164 19Q130 51 130 79T137 124T156 154Q184 181 221 181H333V956Q333 1051 418 1131Q427 1139 427 1148T421 1168T395 1179H282Q238 1179 214 1152Q174 1107 174 1060V1003ZM570 181H689Q736 181 762 206Q805 247 805 298V1060Q805 1110 780 1135Q736 1179 699
1179T640 1170T602 1144Q570 1110 570 1061V181Z" />
<glyph unicode="E" glyph-name="E" horiz-adv-x="1024" d="M520 1379Q606 1379 674 1359T788 1300Q884 1221 884 1084Q884 873 776 799Q743 776 710 776T655 785T617 810Q583 842 583 883T596 945T625 986Q667 1038 667 1087T630 1167T529 1198T427 1171T388 1092V785Q388
736 413 710Q455 666 505 666H523Q561 666 586 640T612 576T587 512T530 486T477 477T439 452Q405 418 405 368V298Q405 248 430 223Q473 180 523 180Q568 180 591 204Q633 248 633 284T642 341T667 379Q702 414 751 414Q799 414 824 388Q868 345 868 287T845 174T777
80Q685 0 523 0Q356 0 260 80Q168 159 168 294V324Q168 460 252 532Q277 554 309 572Q223 606 188 661T152 796V1083Q152 1220 249 1299T520 1379Z" />
<glyph unicode="F" glyph-name="F" horiz-adv-x="1025" d="M543 1149Q543 1179 514 1179H399Q355 1179 331 1152Q291 1107 291 1060V1003Q291 925 218 895Q196 886 172 886T126 895T88 920Q54 954 54 1003V1063Q54 1185 141 1272T350 1359H936Q974 1359 999 1333T1025
1278T1018 1234T999 1205Q973 1179 936 1179H795Q750 1179 726 1154Q685 1110 685 1061V711H877Q914 711 934 692Q968 660 968 632T961 587T942 558Q915 531 877 531H685V296Q685 173 599 87Q512 0 390 0H274Q236 0 210 26T184 89T210 154T274 181H331Q380 181
406 206Q449 247 449 298V531H405Q368 531 348 550Q314 582 314 610T321 655T340 684Q367 711 405 711H449V956Q449 1051 534 1131Q543 1139 543 1149Z" />
<glyph unicode="G" glyph-name="G" horiz-adv-x="1022" d="M633 1006T646 1027T659 1077T649 1126T621 1164Q582 1199 522 1199T428 1165T393 1080V268Q393 217 427 190T511 162Q561 162 595 189T629 268V440Q629 490 654 515Q697 558 734 558T793 549T831 524Q866
489 866 440V-143Q866 -266 780 -352Q693 -439 572 -439H454Q416 -439 390 -413T364 -350T390 -285T454 -258H511Q560 -258 586 -234Q629 -192 629 -141V41Q629 60 619 66T598 73T580 64L563 48Q495 -20 407 -20Q300 -20 228 68Q156 154 156 276V1085Q156 1220
248 1298Q344 1379 511 1379Q683 1379 780 1298Q876 1219 876 1084Q876 873 768 799Q735 776 702 776T647 785T609 810Q575 842 575 883T588 945T617 986Z" />
<glyph unicode="H" glyph-name="H" horiz-adv-x="1364" d="M316 472T309 488T302 533T327 587T390 614H460V1179H415Q364 1179 333 1146T301 1060V1003Q301 925 228 895Q206 886 182 886T136 895T98 920Q64 954 64 1003V1063Q64 1186 152 1272Q240 1359 360 1359H578Q627
1359 652 1334Q696 1290 696 1239V614H935V1239Q935 1318 1006 1350Q1028 1359 1053 1359T1100 1350T1137 1324Q1171 1290 1171 1239V117Q1171 42 1100 10Q1079 0 1054 0T1007 9T969 34Q935 67 935 117V433H696V296Q696 173 610 87Q523 0 401 0H285Q247 0 221 26T195
89T221 154T285 181H342Q391 181 417 206Q460 247 460 298V433H390Q355 433 336 452Z" />
<glyph unicode="I" glyph-name="I" horiz-adv-x="855" d="M267 1003Q267 925 194 895Q172 886 148 886T102 895T64 920Q30 954 30 1003V1063Q30 1186 118 1272Q206 1359 326 1359H544Q593 1359 618 1334Q662 1290 662 1239V296Q662 173 576 87Q489 0 367 0H251Q213
0 187 26T161 89T187 154T251 181H308Q357 181 383 206Q426 247 426 298V1179H381Q333 1179 308 1153Q267 1109 267 1060V1003Z" />
<glyph unicode="J" glyph-name="J" horiz-adv-x="855" d="M436 1179H405Q355 1179 330 1154Q286 1110 286 1060V1003Q286 925 213 895Q191 886 167 886T121 895T84 920Q49 954 49 1003V1063Q49 1186 136 1272Q225 1359 345 1359H554Q603 1359 628 1334Q672 1290
672 1239V-178Q672 -300 585 -387T375 -474H219Q161 -474 136 -420Q129 -403 129 -384Q129 -348 148 -327Q181 -293 219 -293H317Q367 -293 392 -268Q436 -224 436 -176V1179Z" />
<glyph unicode="K" glyph-name="K" horiz-adv-x="1360" d="M1003 634Q1151 576 1151 414V385Q1151 152 1256 17Q1288 -25 1316 -56Q1360 -105 1360 -147Q1360 -213 1300 -239Q1281 -247 1264 -247Q1203 -247 1135 -185T1022 -43Q913 148 913 425Q913 474 888 500Q846
544 796 544H679V98Q679 50 654 24Q610 -19 573 -19T514 -10T476 16Q441 49 441 98V1179H389Q345 1179 321 1152Q281 1107 281 1060V1003Q281 925 208 895Q186 886 162 886T116 895T78 920Q44 954 44 1003V1063Q44 1185 131 1272T340 1359H561Q611 1359 635 1334Q679
1288 679 1239V724H795Q843 724 868 750Q912 793 912 844V1239Q912 1288 938 1315Q980 1359 1032 1359Q1082 1359 1106 1334Q1150 1288 1150 1239V886Q1150 745 1063 674Q1036 652 1003 634Z" />
<glyph unicode="L" glyph-name="L" horiz-adv-x="1025" d="M360 210Q360 180 389 180H638Q682 180 705 206Q746 251 746 287T755 344T780 381Q816 415 853 415T911 406T949 381Q983 347 983 291T960 181T896 87Q809 0 687 0H98Q63 0 44 20Q10 53 10 90T35 154T92
181T144 189T182 213Q216 245 216 293V1063Q216 1186 304 1272Q392 1359 512 1359H658Q717 1359 741 1304Q748 1287 748 1259T722 1205T658 1179H572Q522 1179 496 1154Q453 1110 453 1060V402Q453 314 385 246Q360 224 360 210Z" />
<glyph unicode="M" glyph-name="M" horiz-adv-x="1706" d="M185 1003Q185 925 112 895Q90 886 66 886T20 895T-18 920Q-52 954 -52 1003V1063Q-52 1186 36 1272Q124 1359 244 1359H462Q526 1359 563 1302Q574 1286 586 1286T608 1294L625 1311Q680 1359 722 1369T809
1379T906 1350T995 1273Q1004 1262 1016 1262Q1036 1262 1057 1294T1128 1353T1241 1379T1357 1356T1448 1292Q1531 1206 1531 1083V98Q1531 22 1459 -10Q1437 -19 1413 -19T1367 -10T1330 16Q1295 50 1295 98V1080Q1295 1129 1270 1154Q1225 1199 1188 1199T1129
1190T1092 1164Q1056 1128 1056 1082V98Q1056 22 984 -10Q963 -19 939 -19T892 -10T854 16Q819 49 819 98V1080Q819 1129 794 1154Q749 1199 701 1199Q652 1199 626 1176Q580 1134 580 1079V296Q580 173 494 87Q407 0 285 0H199Q161 0 135 26T109 89T135 154T199
181H226Q275 181 301 206Q344 247 344 298V1179H299Q251 1177 227 1152Q185 1108 185 1060V1003Z" />
<glyph unicode="N" glyph-name="N" horiz-adv-x="1193" d="M192 1003Q192 925 119 895Q97 886 73 886T27 895T-10 920Q-45 954 -45 1003V1063Q-45 1186 42 1272Q131 1359 251 1359H451Q510 1359 546 1310Q561 1286 574 1286T596 1294L614 1311Q687 1379 782 1379Q890
1379 968 1292Q1044 1206 1044 1083L1045 98Q1045 22 974 -10Q952 -19 928 -19T881 -10T843 16Q808 49 808 98L807 1080Q807 1130 782 1155Q738 1199 690 1199Q642 1199 616 1176Q569 1134 569 1087V296Q569 173 483 87Q396 0 274 0H188Q150 0 124 26T98 89T124
154T188 181H215Q264 181 290 206Q333 247 333 298V1179H306Q258 1177 234 1152Q192 1108 192 1060V1003Z" />
<glyph unicode="O" glyph-name="O" horiz-adv-x="1022" d="M383 1148T373 1127T363 1077T376 1028T405 986Q447 935 447 902T438 847T413 810Q378 776 333 776T254 799T196 862Q146 947 146 1084Q146 1219 242 1298Q339 1379 511 1379Q678 1379 774 1298Q866 1220
866 1085V277Q866 140 772 60Q679 -19 511 -19Q343 -19 248 60Q156 137 156 274V600Q156 649 182 674Q225 718 262 718T321 709T359 684Q393 650 393 600V268Q393 217 427 190T511 162T595 189T629 268V1080Q629 1130 595 1164T516 1199T445 1190T401 1164Z" />
<glyph unicode="P" glyph-name="P" horiz-adv-x="1193" d="M-54 1063Q-54 1185 33 1272T242 1359H765Q886 1359 971 1272Q1054 1187 1054 1063V770Q1054 646 968 560T759 474H579V98Q579 22 508 -10Q486 -19 462 -19T415 -10T377 16Q342 49 342 98V956Q342 1051
428 1131Q436 1139 436 1148T430 1168T404 1179H291Q247 1179 223 1152Q183 1107 183 1060V1003Q183 925 110 895Q88 886 64 886T18 895T-20 920Q-54 954 -54 1003V1063ZM579 652H701Q750 652 774 678Q818 723 818 772V1060Q818 1108 793 1134Q751 1179 713 1179T653
1170T614 1144Q579 1111 579 1061V652Z" />
<glyph unicode="Q" glyph-name="Q" horiz-adv-x="1022" d="M773 211Q773 181 802 181H866Q923 181 948 126Q956 109 956 90Q956 31 900 7Q884 0 866 0H250Q215 0 196 20Q162 53 162 90T187 154T250 181H511Q559 181 594 207T629 282V1080Q629 1130 604 1155Q560
1199 522 1199T461 1190T420 1164Q383 1131 383 1080V668Q383 626 412 591T454 534T467 484T458 435T433 398Q398 364 349 364Q261 364 209 443T156 672V1085Q156 1220 248 1298Q344 1379 511 1379Q677 1379 772 1298Q866 1219 866 1083V403Q866 315 798 247L782
230Q773 222 773 211Z" />
<glyph unicode="R" glyph-name="R" horiz-adv-x="1191" d="M888 634Q1036 576 1036 414V385Q1036 152 1141 14Q1173 -28 1202 -58Q1246 -104 1246 -146Q1246 -186 1224 -209Q1188 -247 1153 -247T1087 -232T1004 -170T906 -43Q798 148 798 425Q798 474 773 500Q731
544 681 544H563V98Q563 22 492 -10Q470 -19 446 -19T399 -10T361 16Q326 49 326 98V956Q326 1048 394 1113L412 1131Q420 1140 420 1149Q420 1158 414 1168T388 1179H275Q231 1179 207 1152Q167 1107 167 1060V1003Q167 925 94 895Q72 886 48 886T2 895T-36 920Q-70
954 -70 1003V1063Q-70 1185 17 1272T226 1359H745Q865 1359 950 1272Q1034 1186 1034 1063L1035 886Q1037 712 888 634ZM563 724H680Q729 724 754 750Q798 793 798 844V1060Q798 1108 773 1134Q731 1179 680 1179T596 1144T563 1061V724Z" />
<glyph unicode="S" glyph-name="S" horiz-adv-x="1026" d="M596 1013T609 1032T622 1078T613 1126T586 1164Q547 1199 503 1199T433 1186T386 1149Q344 1099 344 1013Q344 901 411 814Q431 788 454 770L681 588Q820 472 820 312Q820 180 723 88Q629 0 504 0H363Q326
0 299 26T272 80T279 124T300 154Q327 181 363 181H447Q508 181 545 212T582 287Q582 358 519 415L348 555Q226 654 176 741Q120 840 120 995Q120 1176 219 1278Q316 1379 490 1379Q653 1379 746 1298T839 1074Q839 954 789 876Q738 796 656 796Q607 796 581 820Q538
862 538 901T551 960T580 996Z" />
<glyph unicode="T" glyph-name="T" horiz-adv-x="855" d="M500 956Q500 1051 586 1131Q594 1139 594 1148T588 1168T562 1179H344Q300 1179 276 1152Q236 1107 236 1060V1003Q236 925 163 895Q141 886 117 886T71 895T34 920Q-1 954 -1 1003V1063Q-1 1185 86 1272T295
1359H846Q884 1359 909 1333T935 1278T928 1234T909 1205Q883 1179 853 1179T803 1170T768 1144Q736 1110 736 1061V296Q736 173 650 87Q563 0 441 0H325Q287 0 261 26T235 89T261 154T325 181H382Q431 181 457 206Q500 247 500 298V956Z" />
<glyph unicode="U" glyph-name="U" horiz-adv-x="1362" d="M986 1360T1007 1369T1053 1379T1099 1370T1137 1344Q1172 1311 1172 1262V101Q1172 52 1146 25Q1081 -42 1008 -11Q967 6 946 49Q934 74 920 74T898 66L880 49Q852 23 816 2T725 -19T621 4T538 68Q461
154 461 277V1179H415Q367 1179 342 1153Q301 1109 301 1060V1003Q301 925 228 895Q206 886 182 886T136 895T98 920Q64 952 64 1003V1063Q64 1185 151 1272T360 1359H578Q627 1359 653 1334Q698 1291 698 1242V280Q698 230 723 205Q767 161 815 161Q894 161 925
223Q935 243 935 268V1262Q935 1311 960 1335Z" />
<glyph unicode="V" glyph-name="V" horiz-adv-x="1193" d="M173 1003Q173 925 100 895Q78 886 54 886T8 895T-30 920Q-64 954 -64 1003V1063Q-64 1186 24 1272Q112 1359 232 1359H440Q483 1359 519 1336T565 1268L662 803Q669 768 680 716T704 598Q731 460 747
311Q773 556 827 800L928 1268Q936 1308 968 1330Q1025 1368 1069 1357T1137 1315T1161 1253T1157 1208L871 78Q860 36 828 9T760 -19T704 -11T666 10Q631 39 621 81L342 1179H287Q239 1179 214 1153Q173 1109 173 1060V1003Z" />
<glyph unicode="W" glyph-name="W" horiz-adv-x="1706" d="M1287 1259Q1287 1308 1312 1335Q1355 1379 1407 1379Q1457 1379 1481 1354Q1524 1309 1524 1259L1523 274Q1523 141 1430 60Q1340 -19 1198 -19Q1039 -19 955 81Q944 93 932 93T909 81Q825 -19 665 -19Q523
-19 434 60Q340 143 340 277V1179H297Q249 1179 224 1153Q183 1109 183 1060V1003Q183 925 110 895Q88 886 64 886T18 895T-20 920Q-54 954 -54 1003V1063Q-54 1186 34 1272Q122 1359 242 1359H460Q510 1359 534 1334Q577 1289 577 1239V268Q577 217 610 190T693
162T778 188T813 268V1259Q813 1308 838 1335Q881 1379 933 1379Q983 1379 1007 1354Q1050 1309 1050 1259V268Q1050 215 1084 189T1168 162Q1218 162 1252 189T1286 268L1287 1259Z" />
<glyph unicode="X" glyph-name="X" horiz-adv-x="1192" d="M332 484Q332 644 480 704Q406 744 380 785Q332 858 332 956V1179H286Q238 1179 213 1153Q172 1109 172 1060V1003Q172 925 99 895Q77 886 53 886T7 895T-30 920Q-65 954 -65 1003V1063Q-65 1186 22 1272Q111
1359 231 1359H449Q499 1359 524 1334Q568 1290 568 1239V912Q568 862 593 837Q636 794 690 794Q765 794 796 866Q806 887 806 912V1259Q806 1338 878 1370Q899 1379 924 1379T971 1370T1008 1344Q1042 1310 1042 1259V956Q1042 816 954 744Q927 722 894 704Q1042
644 1042 484V98Q1042 23 971 -10Q950 -19 925 -19T878 -10T840 16Q806 48 806 98V495Q806 544 782 570Q739 614 702 614T642 605T604 580Q568 546 568 495V98Q568 22 496 -10Q474 -19 449 -19Q400 -19 375 6Q332 49 332 98V484Z" />
<glyph unicode="Y" glyph-name="Y" horiz-adv-x="1361" d="M984 1360T1005 1369T1051 1379T1098 1370T1136 1344Q1171 1311 1171 1262V296Q1171 174 1082 87Q994 0 872 0H695Q657 0 631 26T604 90Q604 128 630 154T695 181H813Q892 181 924 252Q933 274 933 298V435Q933
454 923 460T902 467T884 458L867 442Q799 374 709 374Q602 374 530 461Q459 547 459 670V1179H415Q367 1179 342 1153Q301 1109 301 1060V1003Q301 925 228 895Q206 886 182 886T136 895T98 920Q64 954 64 1003V1063Q64 1186 152 1272Q240 1359 360 1359H577Q625
1359 651 1334Q696 1291 696 1242V673Q696 624 722 598Q766 554 802 554T860 561T898 583Q933 613 933 661V1262Q933 1311 958 1335Z" />
<glyph unicode="Z" glyph-name="Z" horiz-adv-x="1026" d="M649 0Q564 0 491 68L474 85Q465 93 452 93Q436 93 425 68Q391 0 317 0Q267 0 243 26Q199 71 199 110T213 176L647 1179H443Q399 1179 375 1152Q335 1107 335 1060V1003Q335 925 262 895Q240 886 216
886T170 895T132 920Q98 954 98 1003V1063Q98 1185 185 1272T394 1359H456Q541 1359 614 1291L632 1274Q640 1266 652 1266Q669 1266 680 1291Q714 1359 788 1359Q838 1359 862 1334Q906 1288 906 1248T892 1183L457 180H818Q876 180 902 124Q909 108 909 80T882
26T818 0H649Z" />
<glyph unicode="[" glyph-name="bracketleft" horiz-adv-x="1023" d="M723 -129T730 -145T737 -190T712 -244T649 -271H375Q337 -271 312 -245T286 -181V1450Q286 1487 311 1513T375 1540H649Q686 1540 711 1514T737 1459T730 1415T711 1386Q684 1359 649 1359H524V-90H649Q684
-90 703 -109Z" />
<glyph unicode="\" glyph-name="backslash" horiz-adv-x="1023" d="M370 1470Q360 1508 328 1526T258 1535T203 1493T194 1423L655 -292Q664 -329 696 -347T755 -359T797 -340T821 -313Q840 -279 830 -245L370 1470Z" />
<glyph unicode="]" glyph-name="bracketright" horiz-adv-x="1023" d="M300 -129T293 -145T286 -190T311 -244T374 -271H648Q686 -271 711 -245T737 -181V1450Q737 1487 712 1513T648 1540H374Q337 1540 312 1514T286 1459T293 1415T312 1386Q339 1359 374 1359H499V-90H374Q339
-90 320 -109Z" />
<glyph unicode="^" glyph-name="asciicircum" horiz-adv-x="1023" d="M904 732Q913 712 913 692Q913 646 875 625Q855 613 834 613Q791 613 763 652L511 1017L260 652Q232 613 200 613T148 624Q110 647 110 692Q110 712 119 732L369 1268Q421 1378 507 1378Q604
1378 654 1268L904 732Z" />
<glyph unicode="_" glyph-name="underscore" horiz-adv-x="1530" d="M-2 -252Q-29 -252 -45 -236T-61 -196T-44 -156T-2 -140H1531Q1555 -140 1571 -156T1588 -197T1571 -236T1531 -252H-2Z" />
<glyph unicode="`" glyph-name="grave" horiz-adv-x="1767" d="M974 1289Q991 1266 991 1241T978 1201Q956 1179 930 1179T880 1195L660 1349Q597 1392 597 1462Q597 1506 622 1532Q664 1573 701 1573Q769 1573 817 1507L974 1289Z" />
<glyph unicode="a" glyph-name="a" horiz-adv-x="1023" d="M244 975Q244 1035 300 1059Q316 1066 335 1066H571Q693 1066 780 979T867 770V97Q867 21 795 -10Q773 -20 747 -20T703 -12T671 8Q660 18 649 36T632 64T613 73Q600 73 592 64L576 47Q509 -20 419 -20Q312
-20 234 68Q156 155 156 276V414Q156 536 243 623Q329 709 452 709H630V767Q630 817 605 842Q561 886 512 886H335Q298 886 278 905Q244 937 244 975ZM393 278Q393 227 418 203Q462 161 499 161T557 168T595 188Q630 216 630 262V530H512Q461 530 436 505Q393 462
393 412V278Z" />
<glyph unicode="b" glyph-name="b" horiz-adv-x="1023" d="M156 1419Q156 1496 228 1528Q250 1538 275 1538T321 1529T359 1503Q394 1468 394 1419V1025Q394 1006 404 1000T424 993T442 1001T468 1028Q527 1087 617 1087Q723 1087 796 1000Q867 913 867 789V295Q867
174 780 87T572 0H276Q226 0 200 25Q156 67 156 119V1419ZM630 788Q630 864 558 896Q537 905 500 905T430 874T394 796V180H512Q562 180 587 205Q630 248 630 299V788Z" />
<glyph unicode="c" glyph-name="c" horiz-adv-x="1023" d="M621 853Q578 906 516 906Q462 906 436 880Q393 837 393 787V298Q393 247 418 223Q462 181 511 181H757Q816 181 840 124Q847 108 847 90T840 55T821 26Q795 0 757 0H452Q330 0 243 87T156 296V792Q156
921 243 1000Q338 1086 511 1086Q744 1086 822 978Q847 945 847 912T838 857T813 819Q779 785 736 785Q666 785 621 853Z" />
<glyph unicode="d" glyph-name="d" horiz-adv-x="1023" d="M867 97Q867 21 795 -10Q773 -20 747 -20T702 -12T670 6Q652 22 645 37T631 62T613 73Q601 73 592 64L574 47Q509 -20 419 -20Q311 -20 233 68Q156 154 156 276V770Q156 892 243 979T452 1066H630V1420Q630
1470 655 1495Q698 1538 748 1538Q799 1538 824 1513Q867 1470 867 1420V97ZM393 267Q393 216 426 189T497 161T556 168T594 188Q630 216 630 262V886H511Q462 886 436 860Q393 817 393 767V267Z" />
<glyph unicode="e" glyph-name="e" horiz-adv-x="1023" d="M726 181T752 154T778 90T752 26T688 0H452Q330 0 243 87T156 296V787Q156 923 248 1004Q344 1086 512 1086Q678 1086 774 1004Q867 922 867 785V505Q867 455 842 430Q799 387 748 387H393V298Q393 247
418 223Q462 181 511 181H688Q726 181 752 154ZM630 787Q630 837 605 862Q561 906 512 906Q462 906 436 880Q393 837 393 787V562H630V787Z" />
<glyph unicode="f" glyph-name="f" horiz-adv-x="850" d="M524 97Q524 48 499 23Q456 -20 406 -20Q358 -20 332 5Q288 47 288 97V890H212Q155 890 131 944Q124 960 124 978Q124 1035 178 1059Q194 1066 212 1066H288V1241Q288 1366 374 1452T583 1538H695Q753
1538 777 1482Q784 1466 784 1438T759 1385T695 1359H642Q594 1359 568 1334Q524 1289 524 1239V1066H678Q713 1066 732 1047Q764 1015 764 978Q764 921 712 897Q696 890 678 890H524V97Z" />
<glyph unicode="g" glyph-name="g" horiz-adv-x="1023" d="M867 -178Q867 -301 780 -387Q691 -474 570 -474H393Q355 -474 329 -448T302 -384Q302 -346 328 -320T393 -293H511Q561 -293 586 -268Q629 -225 629 -176V41Q629 60 619 66T598 73T580 64L563 48Q495
-20 407 -20Q300 -20 228 68Q156 154 156 276V770Q156 892 243 979T452 1066H747Q826 1066 858 993Q867 971 867 946V-178ZM393 279Q393 229 418 204Q462 160 498 160T556 167T594 189Q629 219 629 267V886H511Q462 886 436 860Q393 817 393 767V279Z" />
<glyph unicode="h" glyph-name="h" horiz-adv-x="1023" d="M343 -1T322 -10T276 -20T229 -11T191 14Q156 49 156 97V1420Q156 1469 182 1494Q225 1538 262 1538T321 1529T359 1504Q394 1469 394 1420V1025Q394 1006 404 1000T425 993T444 1002L460 1018Q528 1086
617 1086Q725 1086 796 998Q867 911 867 790V97Q867 21 796 -10Q774 -20 750 -20T703 -11T665 14Q630 49 630 97V787Q630 837 605 862Q561 906 525 906T467 899T430 877Q394 847 394 799V97Q394 48 369 24Z" />
<glyph unicode="i" glyph-name="i" horiz-adv-x="678" d="M219 966Q219 1015 244 1042Q287 1086 339 1086Q389 1086 413 1060Q457 1015 457 966V97Q457 49 432 24Q388 -20 351 -20T292 -11T254 14Q219 48 219 97V966ZM339 1538Q394 1538 434 1498Q474 1458 474
1417T463 1352T434 1310Q394 1270 339 1270Q284 1270 244 1310Q204 1350 204 1390Q204 1458 244 1498T339 1538Z" />
<glyph unicode="j" glyph-name="j" horiz-adv-x="684" d="M220 966Q220 1016 245 1042Q287 1086 338 1086Q389 1086 413 1060Q456 1016 456 966V-178Q456 -302 370 -387Q281 -474 160 -474H44Q-14 -474 -38 -420Q-46 -403 -46 -384Q-46 -348 -26 -327Q6 -293 44
-293H102Q152 -293 177 -268Q220 -225 220 -176V966ZM225 1325T215 1349T204 1400T214 1452T244 1496Q283 1535 324 1535T390 1525T434 1496Q473 1456 473 1415T463 1349T434 1306Q394 1267 353 1267T287 1277T244 1306Z" />
<glyph unicode="k" glyph-name="k" horiz-adv-x="1023" d="M687 602Q865 530 865 337V97Q865 48 840 24Q772 -42 700 -10Q627 21 627 97V334Q627 384 602 409Q558 453 510 453H394V97Q394 49 368 24Q325 -20 288 -20T229 -11T191 14Q156 48 156 97V1418Q156 1467
182 1494Q224 1538 276 1538Q326 1538 350 1512Q394 1467 394 1418V633H466L654 1021Q668 1053 698 1070T759 1088T818 1074T862 1030T879 970T865 913L687 602Z" />
<glyph unicode="l" glyph-name="l" horiz-adv-x="678" d="M437 298Q437 247 462 223Q506 181 555 181H565Q602 181 622 161Q656 127 656 99T649 55T630 26Q602 0 565 0H496Q374 0 287 87T200 296V1420Q200 1470 225 1495Q268 1538 318 1538Q369 1538 394 1513Q437
1470 437 1420V298Z" />
<glyph unicode="m" glyph-name="m" horiz-adv-x="1535" d="M361 -1T340 -10T294 -20T248 -11T210 14Q175 49 175 97V966Q175 1015 200 1042Q243 1086 281 1086T339 1078T371 1058Q388 1043 396 1026T410 1001T428 993T450 1001L467 1018Q540 1086 613 1086Q742
1086 826 980Q834 969 846 969Q867 969 888 1001T958 1060T1070 1086T1186 1063T1278 998Q1360 912 1360 790V97Q1360 21 1288 -10Q1266 -20 1242 -20T1196 -11T1158 14Q1124 50 1124 97V787Q1124 837 1099 862Q1055 906 1018 906T960 897T922 870Q887 835 887
789V97Q887 21 816 -10Q794 -20 770 -20T723 -11T685 14Q650 49 650 97V787Q650 837 625 862Q581 906 533 906Q453 906 422 844Q412 824 412 799V97Q412 48 387 24Z" />
<glyph unicode="n" glyph-name="n" horiz-adv-x="1023" d="M342 -1T321 -10T275 -20T229 -11T191 14Q156 49 156 97V966Q156 1015 182 1042Q224 1086 262 1086T319 1078T351 1058Q370 1042 377 1026T391 1001T409 993T430 1001T456 1028Q516 1086 587 1086T707
1063T790 998Q867 911 867 790V97Q867 21 796 -10Q774 -20 750 -20T703 -11T665 14Q630 49 630 97V787Q630 836 606 862Q563 906 514 906Q434 906 403 844Q393 824 393 799V97Q393 48 368 24Z" />
<glyph unicode="o" glyph-name="o" horiz-adv-x="1023" d="M156 792Q156 927 248 1006Q344 1086 512 1086Q678 1086 774 1006Q867 926 867 790V273Q867 64 663 0Q597 -20 513 -20T362 0T250 60Q156 138 156 276V792ZM630 787Q630 837 605 862Q561 906 512 906Q462
906 436 880Q393 837 393 787V267Q393 216 427 189T511 161T596 188T630 267V787Z" />
<glyph unicode="p" glyph-name="p" horiz-adv-x="1023" d="M156 966Q156 1016 181 1042Q223 1086 262 1086T320 1078T352 1058Q368 1045 376 1027T390 1001T409 993Q421 993 429 1001T455 1028Q515 1086 586 1086T705 1063T789 998Q867 911 867 790V296Q867 173
780 87Q691 0 570 0H393V-356Q393 -406 368 -431Q325 -474 274 -474Q224 -474 199 -449Q156 -406 156 -356V966ZM629 799Q629 848 596 877T525 906T466 899T428 878Q393 848 393 804V181H511Q560 181 586 206Q629 247 629 298V799Z" />
<glyph unicode="q" glyph-name="q" horiz-adv-x="1023" d="M816 -456T794 -465T748 -474T702 -465T664 -440Q629 -405 629 -356V41Q629 60 619 66T598 73T580 64L563 48Q495 -20 407 -20Q300 -20 228 68Q156 154 156 276V770Q156 892 243 979T452 1066H747Q826
1066 858 993Q867 971 867 946V-356Q867 -405 842 -430ZM393 279Q393 229 418 204Q462 160 498 160T556 167T594 189Q629 219 629 267V886H511Q462 886 436 860Q393 817 393 767V279Z" />
<glyph unicode="r" glyph-name="r" horiz-adv-x="852" d="M620 1086Q645 1086 669 1079T714 1057Q762 1022 762 960Q762 910 736 885Q691 842 652 842Q602 842 561 874Q529 895 489 895T426 870T403 805V98Q403 50 378 24Q333 -20 297 -20T239 -11T201 15Q166
50 166 98V966Q166 1015 192 1042Q234 1086 272 1086T330 1078T362 1058Q380 1042 388 1026T401 1001T419 993T440 1001L458 1018Q536 1086 620 1086Z" />
<glyph unicode="s" glyph-name="s" horiz-adv-x="1023" d="M250 0T223 26T196 80T203 124T224 154Q251 181 287 181H508Q569 181 606 215T643 301T615 383T546 428L366 478Q273 506 218 582Q162 659 162 745T187 887T256 983Q345 1066 476 1066H720Q758 1066 783
1040T808 975Q808 937 783 912T720 886H495Q444 886 416 856T387 785Q387 721 458 689L654 632Q812 579 864 432Q881 382 881 317T855 193T784 91Q691 0 565 0H287Q250 0 223 26Z" />
<glyph unicode="t" glyph-name="t" horiz-adv-x="849" d="M709 181T734 154T759 90T734 26T671 0H551Q429 0 342 87Q256 173 256 296V890H138Q81 890 57 944Q50 960 50 978Q50 1035 104 1059Q120 1066 138 1066H256V1274Q256 1353 328 1384Q349 1394 374 1394Q423
1394 448 1368Q492 1325 492 1274V1066H673Q708 1066 727 1047Q759 1015 759 979T734 916T673 890H492V298Q492 248 518 224Q562 181 610 181H671Q709 181 734 154Z" />
<glyph unicode="u" glyph-name="u" horiz-adv-x="1023" d="M681 1067T702 1076T748 1086T794 1077T832 1052Q867 1017 867 969V100Q867 51 842 24Q799 -20 761 -20T703 -12T672 8Q653 24 646 40T632 65T614 73T593 65T567 38Q507 -20 436 -20T316 3T232 68Q156
155 156 276V969Q156 1045 228 1076Q249 1086 273 1086T320 1077T358 1052Q393 1017 393 969V279Q393 229 418 204Q462 160 510 160Q589 160 620 222Q630 242 630 267V969Q630 1018 655 1042Z" />
<glyph unicode="v" glyph-name="v" horiz-adv-x="1023" d="M104 945Q100 958 100 977T108 1017T131 1052Q161 1086 193 1086T245 1080T280 1064Q316 1040 324 1002L384 778Q393 740 408 688L442 572Q488 408 515 271Q532 356 550 432Q594 617 610 679L699 1002Q711
1059 777 1080Q796 1086 817 1086T859 1077T893 1051Q923 1017 923 987T919 945L637 78Q625 37 593 9T526 -20T470 -12T432 10Q400 38 387 81L104 945Z" />
<glyph unicode="w" glyph-name="w" horiz-adv-x="1535" d="M1123 966Q1123 1015 1148 1042Q1191 1086 1243 1086Q1293 1086 1317 1060Q1360 1016 1360 966V273Q1360 140 1268 59Q1177 -20 1035 -20Q873 -20 791 80Q765 102 745 80Q661 -20 501 -20Q360 -20 269
60Q175 142 175 276V966Q175 1015 200 1042Q243 1086 295 1086Q345 1086 369 1060Q412 1016 412 966V267Q412 216 446 189T529 161T614 187T649 267V965Q649 1014 674 1041Q717 1085 769 1085Q819 1085 843 1060Q886 1015 886 965V267Q886 214 920 188T1005 161Q1055
161 1089 188T1123 267V966Z" />
<glyph unicode="x" glyph-name="x" horiz-adv-x="1023" d="M157 342Q157 502 305 562Q231 602 205 643Q157 716 157 814V966Q157 1016 182 1042Q224 1086 274 1086Q324 1086 350 1060Q393 1017 393 966V770Q393 721 418 695Q459 652 514 652Q589 652 620 724Q630
745 630 770V966Q630 1045 702 1076Q723 1086 748 1086T795 1077T832 1051Q866 1017 866 966V814Q866 674 778 602Q751 580 718 562Q866 502 866 342V97Q866 48 841 23Q798 -20 761 -20T702 -11T664 14Q630 48 630 97V353Q630 402 606 428Q563 472 526 472T466
463T428 438Q393 405 393 353V97Q393 48 368 23Q325 -20 274 -20Q223 -20 199 5Q157 49 157 97V342Z" />
<glyph unicode="y" glyph-name="y" horiz-adv-x="1023" d="M680 1067T701 1076T747 1086T794 1077T832 1052Q867 1017 867 969V-178Q867 -301 780 -387Q691 -474 569 -474H392Q354 -474 328 -448T301 -384Q301 -346 327 -320T392 -293H510Q561 -293 586 -268Q629
-225 629 -176V41Q629 60 619 66T598 73T580 64L563 48Q495 -20 406 -20Q298 -20 227 68Q156 155 156 276V969Q156 1045 228 1076Q249 1086 273 1086T320 1077T358 1052Q393 1017 393 969V279Q393 230 418 204Q460 160 497 160T555 167T594 189Q629 219 629 267V969Q629
1018 654 1042Z" />
<glyph unicode="z" glyph-name="z" horiz-adv-x="854" d="M80 975Q80 1035 136 1059Q152 1066 171 1066H637Q690 1066 726 1030Q761 995 761 957T744 890L339 181H670Q706 181 726 161Q761 126 761 89T734 26T670 0H189Q107 0 76 74Q68 94 68 112Q68 148 85 176L490
886H171Q134 886 114 905Q80 937 80 975Z" />
<glyph unicode="{" glyph-name="braceleft" horiz-adv-x="1023" d="M168 675T193 701T246 732T290 746T322 770Q355 805 355 852V1086Q355 1273 448 1398Q551 1538 731 1538H765Q802 1538 828 1512T855 1458T848 1414T828 1385Q800 1358 767 1358T703 1342T647
1294Q592 1224 592 1096V886Q592 746 504 674Q477 652 444 634Q516 595 543 553Q592 478 592 382V171Q592 -17 702 -75Q733 -91 758 -91T799 -98T828 -118Q855 -143 855 -180T829 -244T765 -271H731Q551 -271 448 -131Q355 -6 355 181V416Q355 463 332 488Q295
527 257 534T194 566T168 633Z" />
<glyph unicode="|" glyph-name="bar" horiz-adv-x="678" d="M287 1524T303 1531T338 1538T373 1531T402 1512Q429 1487 429 1450V-271Q429 -306 410 -326Q376 -359 348 -359T304 -352T274 -333Q248 -308 248 -271V1450Q248 1485 267 1504Z" />
<glyph unicode="}" glyph-name="braceright" horiz-adv-x="1023" d="M855 675T830 701T777 732T733 746T701 770Q668 805 668 852V1086Q668 1273 575 1398Q472 1538 292 1538H258Q221 1538 195 1512T168 1458T175 1414T195 1385Q223 1358 256 1358T320 1342T376
1294Q431 1224 431 1096V886Q431 746 519 674Q546 652 579 634Q507 595 480 553Q431 478 431 382V171Q431 -17 321 -75Q290 -91 265 -91T224 -98T195 -118Q168 -143 168 -180T194 -244T258 -271H292Q472 -271 575 -131Q668 -6 668 181V416Q668 463 691 488Q728
527 766 534T829 566T855 633Z" />
<glyph unicode="~" glyph-name="asciitilde" horiz-adv-x="1023" d="M783 588Q805 606 838 606Q869 606 888 587T907 538T883 476T829 412T765 357Q691 307 603 307Q493 307 397 413L380 430Q371 439 360 439Q347 439 315 413L240 356Q218 338 185 338Q154 338
135 357T116 406T140 468T193 533T257 588Q329 637 420 637Q512 637 584 572Q606 552 620 537L644 514Q652 505 663 505Q676 505 708 531L783 588Z" />
<glyph unicode="&#xa0;" glyph-name="nbspace" horiz-adv-x="402" />
<glyph unicode="&#xa1;" glyph-name="exclamdown" horiz-adv-x="513" d="M411 177Q422 45 336 -3Q305 -20 261 -20T186 -3T134 42Q94 96 101 177L160 837Q164 876 191 903T259 931Q299 931 325 904T355 837L411 177ZM259 1111Q204 1111 164 1150Q124 1191 124
1232T135 1297T164 1340Q204 1379 259 1379Q314 1379 354 1340Q394 1299 394 1258Q394 1191 354 1151T259 1111Z" />
<glyph unicode="&#xa2;" glyph-name="cent" horiz-adv-x="1023" d="M622 984V314H757Q816 314 840 258Q847 241 847 223T840 188T821 159Q795 133 757 133H622V61Q622 34 606 17T566 -1T526 16T510 58V133H472Q350 133 263 220T176 429V925Q176 1050 258 1128Q346
1213 510 1219V1302Q510 1326 526 1342T567 1359T606 1343T622 1303V1212Q724 1197 785 1151T847 1036Q847 986 822 961Q779 918 724 918T622 984ZM413 431Q413 386 440 355T510 316V1037Q468 1029 441 997T413 920V431Z" />
<glyph unicode="&#xa3;" glyph-name="sterling" horiz-adv-x="1023" d="M453 206Q453 176 481 176H837Q892 176 916 122Q923 106 923 88Q923 31 870 7Q855 0 837 0H191Q153 0 127 26T101 89T127 154T184 181T237 190T275 214Q309 247 309 298V608H200Q173 608
156 624T138 664T155 704T197 720H309V1063Q309 1185 396 1272T605 1359H720Q779 1359 803 1304Q810 1287 810 1259T784 1205T720 1179H665Q615 1179 590 1154Q546 1110 546 1060V720H742Q766 720 782 704T799 663T783 624T743 608H546V398Q546 310 478 242L462
226Q453 217 453 206Z" />
<glyph unicode="&#xa4;" glyph-name="currency" horiz-adv-x="1023" d="M227 1048Q320 1135 509 1135T796 1048L945 1197Q963 1215 986 1215T1025 1199T1042 1159T1022 1116L862 955Q885 898 885 828V536Q885 465 864 410L1022 252Q1042 233 1042 209T1026 169T986
153T945 171L801 315Q710 230 517 230T228 321L78 171Q60 153 37 153T-2 169T-19 209T1 252L165 417Q145 466 145 537V829Q145 898 164 951L1 1116Q-19 1135 -19 1159T-3 1199T37 1215T78 1197L227 1048ZM650 774Q650 863 627 897Q586 956 507 956Q403 956 386
848Q380 815 380 774V591Q380 502 403 468Q444 409 523 409Q627 409 644 516Q650 550 650 591V774Z" />
<glyph unicode="&#xa5;" glyph-name="yen" horiz-adv-x="1023" d="M391 348H192Q165 348 148 364T130 404T147 444T189 460H380L347 563H192Q165 563 148 579T130 619T147 659T189 675H311L137 1218Q131 1241 131 1254T138 1286T160 1322Q192 1359 235 1359T312
1336T357 1275L406 1101Q467 885 511 614Q558 900 617 1101L668 1275Q686 1333 747 1353Q765 1359 787 1359T830 1349T864 1322Q893 1289 893 1262T888 1218L711 675H836Q860 675 876 659T893 618T877 579T837 563H674L641 460H836Q860 460 876 444T893 403T877
364T837 348H629V98Q629 50 604 24Q560 -19 523 -19T464 -10T426 16Q391 49 391 98V348Z" />
<glyph unicode="&#xa6;" glyph-name="brokenbar" horiz-adv-x="678" d="M287 1524T303 1531T338 1538T373 1531T402 1512Q429 1487 429 1450V780Q429 745 410 726Q376 692 348 692T304 699T274 718Q248 743 248 780V1450Q248 1485 267 1504ZM287 473T303 480T338
487T373 480T402 461Q429 436 429 399V-271Q429 -306 410 -326Q376 -359 348 -359T304 -352T274 -333Q248 -308 248 -271V399Q248 434 267 453Z" />
<glyph unicode="&#xa7;" glyph-name="section" horiz-adv-x="1023" d="M722 323Q851 239 851 74Q851 -60 757 -147Q668 -230 537 -230H313Q275 -230 250 -204T225 -139Q225 -101 250 -76T313 -50H518Q569 -50 597 -20T626 51Q626 124 555 147L379 204Q273 238
212 326Q151 412 151 513Q151 706 301 806Q172 890 172 1055Q172 1189 266 1276Q355 1359 486 1359H710Q748 1359 773 1333T798 1268Q798 1230 773 1205T710 1179H505Q454 1179 426 1149T397 1078Q397 1005 468 982L644 925Q803 872 854 720Q871 667 871 604Q871
425 722 323ZM367 563Q367 498 410 452Q451 407 511 407Q572 407 614 452Q656 498 656 563Q656 628 614 674Q571 720 511 720Q452 720 410 674Q367 628 367 563Z" />
<glyph unicode="&#xa8;" glyph-name="dieresis" horiz-adv-x="1696" d="M649 1445Q704 1445 744 1406Q784 1365 784 1324T773 1259T744 1216Q704 1177 649 1177Q594 1177 554 1216Q514 1257 514 1298Q514 1365 554 1405T649 1445ZM931 1235T921 1259T910 1310T920
1362T950 1406Q989 1445 1030 1445T1096 1435T1140 1406Q1179 1366 1179 1325T1169 1259T1140 1216Q1100 1177 1059 1177T993 1187T950 1216Z" />
<glyph unicode="&#xa9;" glyph-name="copyright" horiz-adv-x="1698" d="M1409 362Q1409 187 1266 85Q1119 -19 857 -19Q590 -19 438 85Q288 188 288 364V977Q288 1152 432 1254Q578 1358 840 1358Q1107 1358 1259 1254Q1409 1151 1409 975V362ZM1285 975Q1285
1106 1168 1182Q1048 1259 837 1259Q635 1259 523 1182Q413 1107 413 977V364Q413 233 530 157Q650 80 860 80Q1168 80 1257 246Q1285 298 1285 362V975ZM928 884Q905 921 869 921T809 897T785 840V505Q785 472 808 448T866 424H1021Q1047 424 1064 406T1082 363T1065
319T1021 301H825Q742 301 683 360T623 503V843Q623 930 683 986Q747 1044 866 1044Q961 1044 1005 1019Q1082 976 1082 919Q1082 886 1060 862T1006 838Q961 838 928 884Z" />
<glyph unicode="&#xaa;" glyph-name="ordfeminine" horiz-adv-x="845" d="M269 420Q242 420 225 436T207 476T224 516T266 532L558 531Q582 531 599 515T616 475T599 436T559 420H269ZM277 1247T260 1263T243 1303T260 1343T301 1360H450Q527 1360 581 1306T636
1174V750Q636 720 615 698T569 676T532 681T513 694T501 708T494 720Q486 735 476 735Q469 735 452 718Q410 676 365 676T290 691T238 732Q188 788 188 863V950Q188 1027 242 1081T375 1136H487V1172Q487 1204 466 1225T412 1247H301Q277 1247 260 1263ZM337 864Q337
833 358 812T411 790T465 807T487 854V1023H412Q380 1023 359 1002T337 948V864Z" />
<glyph unicode="&#xab;" glyph-name="guillemotleft" horiz-adv-x="1533" d="M324 435Q269 485 269 527T285 591T324 633L620 931Q642 951 667 951T711 936Q732 915 732 889T718 843L514 534L718 225Q732 206 732 187Q732 153 713 135T668 117T620 137L324 435ZM796
435Q741 485 741 527T757 591T796 633L1092 931Q1114 951 1139 951T1183 936Q1204 915 1204 889T1190 843L986 534L1190 225Q1204 206 1204 187Q1204 153 1185 135T1140 117T1092 137L796 435Z" />
<glyph unicode="&#xac;" glyph-name="logicalnot" horiz-adv-x="1023" d="M879 225T863 218T828 211T793 218T764 237Q737 262 737 299V525H192Q157 525 138 544Q104 578 104 606T111 650T130 680Q155 706 192 706H830Q865 706 884 686Q918 653 918 616V299Q918
264 899 245Z" />
<glyph unicode="&#xad;" glyph-name="uni00AD" horiz-adv-x="1274" d="M1030 737T1037 721T1044 686T1037 651T1018 622Q993 595 956 595H318Q283 595 264 614Q230 648 230 676T237 720T256 750Q281 776 318 776H956Q991 776 1010 757Z" />
<glyph unicode="&#xae;" glyph-name="registered" horiz-adv-x="1698" d="M1005 654Q1107 612 1107 503V381Q1107 347 1083 324T1025 301T968 324T944 381V511Q944 546 921 569T864 592H785V381Q785 347 761 324T703 301T646 324T622 381V964Q622 997 645 1021T704
1045H865Q980 1045 1043 991T1107 843V826Q1107 707 1005 654ZM785 715H864Q898 715 921 738T945 796V841Q945 874 922 898T864 922H785V715ZM1409 362Q1409 187 1266 85Q1119 -19 857 -19Q590 -19 438 85Q288 188 288 364V977Q288 1152 432 1254Q578 1358 840
1358Q1107 1358 1259 1254Q1409 1151 1409 975V362ZM1285 975Q1285 1106 1168 1182Q1048 1259 837 1259Q635 1259 523 1182Q413 1107 413 977V364Q413 233 530 157Q650 80 860 80Q1168 80 1257 246Q1285 298 1285 362V975Z" />
<glyph unicode="&#xaf;" glyph-name="overscore" horiz-adv-x="1493" d="M1122 1374T1129 1358T1136 1323T1129 1288T1110 1258Q1085 1232 1048 1232H645Q610 1232 590 1252Q557 1285 557 1313T564 1357T583 1386Q608 1413 645 1413H1048Q1083 1413 1102 1394Z" />
<glyph unicode="&#xb0;" glyph-name="degree" horiz-adv-x="845" d="M424 851Q316 851 236 929Q158 1006 158 1114Q158 1224 236 1301Q317 1380 424 1380Q531 1380 610 1301Q687 1224 687 1114Q687 1005 610 928T424 851ZM489 1210T468 1219T423 1229T378 1220T342
1196Q308 1162 308 1127T317 1071T343 1034Q378 1001 412 1001T467 1010T504 1036Q540 1070 540 1103T531 1158T505 1194Z" />
<glyph unicode="&#xb1;" glyph-name="plusminus" horiz-adv-x="1023" d="M562 579T546 572T511 565T476 572T446 591Q420 616 420 653V870H192Q157 870 138 890Q104 923 104 951T111 995T130 1024Q155 1051 192 1051H420V1259Q420 1294 440 1314Q473 1347 501
1347T545 1340T574 1321Q601 1296 601 1259V1051H830Q865 1051 884 1032Q918 998 918 970T911 926T892 896Q867 870 830 870H601V653Q601 618 582 599ZM904 297T911 281T918 246T911 211T892 182Q867 155 830 155H192Q157 155 138 174Q104 208 104 236T111 280T130
310Q155 336 192 336H830Q865 336 884 317Z" />
<glyph unicode="&#xb2;" glyph-name="twosuperior" horiz-adv-x="845" d="M472 1359Q583 1359 646 1298Q702 1244 702 1167T660 1037T545 946L409 872Q359 845 347 807H635Q662 807 682 786T702 736Q702 707 682 687T634 666H234Q172 666 149 722Q142 739 142
769T148 831T173 892Q209 946 318 1009L470 1098Q515 1123 515 1162Q515 1182 500 1200T455 1218H238Q209 1218 189 1238T169 1288Q169 1317 189 1338T238 1359H472Z" />
<glyph unicode="&#xb3;" glyph-name="threesuperior" horiz-adv-x="845" d="M174 736Q174 765 194 786T244 807H422Q461 807 488 829T515 893V956Q515 989 496 1003Q464 1027 438 1027T399 1023T375 1012Q346 998 323 998T284 1014T268 1048Q268 1081 290 1099L431
1218H212Q182 1218 162 1238T142 1288Q142 1317 162 1338T212 1359H645Q669 1359 685 1343T702 1306Q702 1274 680 1258L491 1101Q512 1109 544 1109T606 1098T656 1067Q702 1025 702 958V897Q702 790 630 728T422 666H244Q215 666 195 686T174 736Z" />
<glyph unicode="&#xb4;" glyph-name="acute" horiz-adv-x="1331" d="M754 1507Q802 1573 865 1573Q907 1573 932 1548Q974 1506 974 1468Q974 1392 911 1349L691 1195Q667 1179 648 1179Q614 1179 597 1197T580 1240T597 1289L754 1507Z" />
<glyph unicode="&#xb5;" glyph-name="mu" horiz-adv-x="1023" d="M424 73Q394 73 394 44V-322Q394 -370 368 -396Q325 -439 288 -439T229 -430T191 -404Q156 -371 156 -322V969Q156 1017 182 1042Q225 1086 262 1086T321 1077T359 1052Q394 1018 394 969V267Q394
194 467 168Q488 160 512 160Q560 160 586 186Q630 230 630 279V969Q630 1017 656 1042Q699 1086 736 1086T795 1077T833 1052Q867 1019 867 969V277Q867 231 893 205Q938 160 985 160H1033Q1090 160 1114 105Q1121 89 1121 61T1096 7T1018 -20Q912 -20 845 76Q831
97 815 97T788 83Q706 -20 606 -20Q525 -20 460 48L444 64Q435 73 424 73Z" />
<glyph unicode="&#xb6;" glyph-name="paragraph" horiz-adv-x="1275" d="M176 1063Q176 1187 256 1272Q337 1359 458 1359L1172 1358Q1232 1358 1256 1302Q1263 1286 1263 1268T1256 1233T1236 1204Q1209 1178 1172 1178H1159V-175Q1159 -210 1140 -230Q1106 -263
1078 -263T1034 -256T1004 -237Q978 -212 978 -175V1178H749V-175Q749 -210 730 -230Q696 -263 668 -263T624 -256T594 -237Q568 -212 568 -175V188Q568 207 558 213T537 220T518 212Q497 190 481 174T450 148Q418 127 370 127T286 150T226 214Q176 296 176 423V1063Z"
/>
<glyph unicode="&#xb7;" glyph-name="middot" horiz-adv-x="513" d="M257 752Q312 752 352 712Q392 672 392 631T381 566T352 524Q312 484 257 484Q202 484 162 524Q122 564 122 604Q122 672 162 712T257 752Z" />
<glyph unicode="&#xb8;" glyph-name="cedilla" horiz-adv-x="1227" d="M484 -204Q457 -204 440 -188T423 -148T437 -91L487 23H621L571 -92Q663 -92 716 -144Q765 -190 765 -265Q765 -384 642 -424Q600 -438 544 -438H383Q360 -438 344 -422T328 -382T344 -342T383
-325H504Q536 -325 556 -307T577 -264T558 -222T510 -204H484Z" />
<glyph unicode="&#xb9;" glyph-name="onesuperior" horiz-adv-x="845" d="M212 1288Q212 1317 232 1338T281 1359H442Q472 1359 492 1339T512 1289V738Q512 676 456 653Q439 646 410 646T353 673T326 738V1218H281Q252 1218 232 1238T212 1288Z" />
<glyph unicode="&#xba;" glyph-name="ordmasculine" horiz-adv-x="845" d="M278 420Q251 420 234 436T216 476T233 516T275 532H567Q591 532 607 516T624 475T608 436T568 420H278ZM189 1188Q189 1319 318 1360Q360 1373 413 1373T508 1360T579 1322Q638 1273
638 1187V860Q638 728 510 688Q468 675 415 675T320 688T249 726Q189 776 189 862V1188ZM489 1185Q489 1234 444 1254Q430 1260 414 1260Q384 1260 367 1244Q339 1218 339 1185V857Q339 824 360 807T414 790Q446 790 467 807T489 857V1185Z" />
<glyph unicode="&#xbb;" glyph-name="guillemotright" horiz-adv-x="1533" d="M698 435Q753 485 753 527T737 591T698 633L402 931Q380 951 355 951T311 936Q290 915 290 889T304 843L508 534L304 225Q290 206 290 187Q290 153 309 135T354 117T402 137L698 435ZM1170
435Q1225 485 1225 527T1209 591T1170 633L874 931Q852 951 827 951T783 936Q762 915 762 889T776 843L980 534L776 225Q762 206 762 187Q762 153 781 135T826 117T874 137L1170 435Z" />
<glyph unicode="&#xbc;" glyph-name="onequarter" horiz-adv-x="1687" d="M987 1361Q1011 1417 1070 1417Q1122 1417 1148 1376Q1163 1353 1163 1331T1155 1290L599 -19Q576 -74 518 -74Q466 -74 439 -32Q424 -8 424 14T431 52L987 1361ZM1601 183Q1601 154 1581
134T1532 113H1486V53Q1486 15 1460 -12T1404 -39T1357 -32T1328 -12Q1301 14 1301 53V113H1010Q972 113 952 145T946 210L1133 661Q1142 682 1164 697T1209 713T1257 704T1295 670T1309 623T1302 586L1138 254H1301V380Q1301 439 1356 464Q1373 472 1392 472T1429
465T1459 446Q1486 420 1486 380V254H1532Q1560 254 1580 233T1601 183ZM188 1288Q188 1317 208 1338T257 1359H418Q448 1359 468 1339T488 1289V738Q488 676 432 653Q415 646 386 646T329 673T302 738V1218H257Q228 1218 208 1238T188 1288Z" />
<glyph unicode="&#xbd;" glyph-name="onehalf" horiz-adv-x="1687" d="M188 1288Q188 1317 208 1338T257 1359H418Q448 1359 468 1339T488 1289V738Q488 676 432 653Q415 646 386 646T329 673T302 738V1218H257Q228 1218 208 1238T188 1288ZM1350 693Q1461 693
1524 632Q1580 578 1580 501T1538 371T1423 280L1287 206Q1237 179 1225 141H1513Q1540 141 1560 120T1580 70Q1580 41 1560 21T1512 0H1112Q1050 0 1027 56Q1020 73 1020 103T1026 165T1051 226Q1087 280 1196 343L1348 432Q1393 457 1393 496Q1393 516 1378 534T1333
552H1116Q1087 552 1067 572T1047 622Q1047 651 1067 672T1116 693H1350ZM987 1361Q1011 1417 1070 1417Q1122 1417 1148 1376Q1163 1353 1163 1331T1155 1290L599 -19Q576 -74 518 -74Q466 -74 439 -32Q424 -8 424 14T431 52L987 1361Z" />
<glyph unicode="&#xbe;" glyph-name="threequarters" horiz-adv-x="1687" d="M105 736Q105 765 125 786T175 807H353Q392 807 419 829T446 893V956Q446 989 426 1003Q395 1027 369 1027T330 1023T306 1012Q277 998 254 998T215 1014T199 1048Q199 1081 221 1099L362
1218H143Q113 1218 93 1238T73 1288Q73 1317 93 1338T143 1359H576Q600 1359 616 1343T633 1306Q633 1274 611 1258L422 1101Q443 1109 475 1109T537 1098T588 1067Q633 1025 633 958V897Q633 790 561 728T353 666H175Q146 666 126 686T105 736ZM987 1361Q1011
1417 1070 1417Q1122 1417 1148 1376Q1163 1353 1163 1331T1155 1290L599 -19Q576 -74 518 -74Q466 -74 439 -32Q424 -8 424 14T431 52L987 1361ZM1601 183Q1601 154 1581 134T1532 113H1486V53Q1486 15 1460 -12T1404 -39T1357 -32T1328 -12Q1301 14 1301 53V113H1010Q972
113 952 145T946 210L1133 661Q1142 682 1164 697T1209 713T1257 704T1295 670T1309 623T1302 586L1138 254H1301V380Q1301 439 1356 464Q1373 472 1392 472T1429 465T1459 446Q1486 420 1486 380V254H1532Q1560 254 1580 233T1601 183Z" />
<glyph unicode="&#xbf;" glyph-name="questiondown" horiz-adv-x="1026" d="M703 759Q703 567 488 450L426 417Q364 385 364 321V299Q364 250 390 224Q434 180 483 180H739Q774 180 795 160Q829 128 829 91T803 27T739 0H481Q316 0 220 80Q128 159 128 296V330Q128
495 334 608L380 634Q443 669 468 730Q477 751 477 772V799Q477 845 501 869Q542 910 577 910T634 901T670 877Q703 844 703 799V759ZM591 1109Q536 1109 496 1148Q456 1189 456 1230T467 1295T496 1338Q536 1377 591 1377Q646 1377 686 1338Q726 1297 726 1256Q726
1189 686 1149T591 1109Z" />
<glyph unicode="&#xc0;" glyph-name="Agrave" horiz-adv-x="1193" d="M427 1148Q427 1178 398 1178H282Q237 1178 214 1152Q174 1107 174 1060V1003Q174 925 101 895Q79 886 55 886T9 895T-28 920Q-63 954 -63 1003V1063Q-63 1185 24 1272T233 1359H689Q855 1359
950 1278Q1044 1199 1044 1063V98Q1044 22 972 -10Q951 -19 927 -19T880 -10T842 16Q807 49 807 98V433H570V98Q570 50 544 24Q501 -19 464 -19T405 -10T367 16Q333 48 333 98V433H261Q226 433 206 452Q173 486 173 523T198 587T261 614H333V955Q333 1050 418 1130Q427
1138 427 1148ZM570 614H807V1059Q807 1109 782 1134Q738 1178 701 1178T642 1169T604 1143Q570 1109 570 1060V614ZM810 1602Q827 1579 827 1554T814 1514Q792 1492 766 1492T716 1508L496 1662Q433 1705 433 1775Q433 1819 458 1844Q500 1886 537 1886Q605 1886
653 1820L810 1602Z" />
<glyph unicode="&#xc1;" glyph-name="Aacute" horiz-adv-x="1193" d="M427 1148Q427 1178 398 1178H282Q237 1178 214 1152Q174 1107 174 1060V1003Q174 925 101 895Q79 886 55 886T9 895T-28 920Q-63 954 -63 1003V1063Q-63 1185 24 1272T233 1359H689Q855 1359
950 1278Q1044 1199 1044 1063V98Q1044 22 972 -10Q951 -19 927 -19T880 -10T842 16Q807 49 807 98V433H570V98Q570 50 544 24Q501 -19 464 -19T405 -10T367 16Q333 48 333 98V433H261Q226 433 206 452Q173 486 173 523T198 587T261 614H333V955Q333 1050 418 1130Q427
1138 427 1148ZM570 614H807V1059Q807 1109 782 1134Q738 1178 701 1178T642 1169T604 1143Q570 1109 570 1060V614ZM726 1820Q774 1886 837 1886Q879 1886 904 1860Q946 1819 946 1781Q946 1705 883 1662L663 1508Q639 1492 620 1492Q586 1492 569 1510T552 1553T569
1602L726 1820Z" />
<glyph unicode="&#xc2;" glyph-name="Acircumflex" horiz-adv-x="1193" d="M427 1148Q427 1178 398 1178H282Q237 1178 214 1152Q174 1107 174 1060V1003Q174 925 101 895Q79 886 55 886T9 895T-28 920Q-63 954 -63 1003V1063Q-63 1185 24 1272T233 1359H689Q855
1359 950 1278Q1044 1199 1044 1063V98Q1044 22 972 -10Q951 -19 927 -19T880 -10T842 16Q807 49 807 98V433H570V98Q570 50 544 24Q501 -19 464 -19T405 -10T367 16Q333 48 333 98V433H261Q226 433 206 452Q173 486 173 523T198 587T261 614H333V955Q333 1050
418 1130Q427 1138 427 1148ZM570 614H807V1059Q807 1109 782 1134Q738 1178 701 1178T642 1169T604 1143Q570 1109 570 1060V614ZM921 1599Q934 1575 934 1553T917 1512T880 1493Q840 1493 820 1513L689 1647L558 1513Q538 1493 508 1493T461 1512T444 1553T457
1599L577 1812Q619 1888 690 1888Q755 1888 801 1812L921 1599Z" />
<glyph unicode="&#xc3;" glyph-name="Atilde" horiz-adv-x="1193" d="M427 1148Q427 1178 398 1178H282Q237 1178 214 1152Q174 1107 174 1060V1003Q174 925 101 895Q79 886 55 886T9 895T-28 920Q-63 954 -63 1003V1063Q-63 1185 24 1272T233 1359H689Q855 1359
950 1278Q1044 1199 1044 1063V98Q1044 22 972 -10Q951 -19 927 -19T880 -10T842 16Q807 49 807 98V433H570V98Q570 50 544 24Q501 -19 464 -19T405 -10T367 16Q333 48 333 98V433H261Q226 433 206 452Q173 486 173 523T198 587T261 614H333V955Q333 1050 418 1130Q427
1138 427 1148ZM570 614H807V1059Q807 1109 782 1134Q738 1178 701 1178T642 1169T604 1143Q570 1109 570 1060V614ZM923 1767Q943 1784 968 1784T1010 1766T1027 1722T1007 1666T962 1607T908 1556Q848 1511 782 1511T675 1540T614 1592L588 1624Q581 1631 572
1631Q561 1631 534 1608L472 1556Q452 1539 427 1539T385 1557T368 1601T388 1657T432 1716T486 1767Q547 1812 621 1812Q700 1812 758 1752L793 1715Q801 1707 807 1700T823 1692Q834 1692 861 1715L923 1767Z" />
<glyph unicode="&#xc4;" glyph-name="Adieresis" horiz-adv-x="1193" d="M427 1148Q427 1178 398 1178H282Q237 1178 214 1152Q174 1107 174 1060V1003Q174 925 101 895Q79 886 55 886T9 895T-28 920Q-63 954 -63 1003V1063Q-63 1185 24 1272T233 1359H689Q855
1359 950 1278Q1044 1199 1044 1063V98Q1044 22 972 -10Q951 -19 927 -19T880 -10T842 16Q807 49 807 98V433H570V98Q570 50 544 24Q501 -19 464 -19T405 -10T367 16Q333 48 333 98V433H261Q226 433 206 452Q173 486 173 523T198 587T261 614H333V955Q333 1050
418 1130Q427 1138 427 1148ZM570 614H807V1059Q807 1109 782 1134Q738 1178 701 1178T642 1169T604 1143Q570 1109 570 1060V614ZM477 1778Q532 1778 571 1738Q612 1698 612 1657T601 1592T571 1550Q532 1510 477 1510Q422 1510 383 1550Q342 1590 342 1630Q342
1698 382 1738T477 1778ZM779 1568T769 1592T758 1643T768 1695T797 1738Q837 1778 878 1778T944 1768T987 1738Q1027 1699 1027 1658T1017 1592T987 1550Q948 1510 907 1510T841 1520T798 1549Z" />
<glyph unicode="&#xc5;" glyph-name="Aring" horiz-adv-x="1193" d="M427 1148Q427 1178 398 1178H282Q237 1178 214 1152Q174 1107 174 1060V1003Q174 925 101 895Q79 886 55 886T9 895T-28 920Q-63 954 -63 1003V1063Q-63 1185 24 1272T233 1359H689Q855 1359
950 1278Q1044 1199 1044 1063V98Q1044 22 972 -10Q951 -19 927 -19T880 -10T842 16Q807 49 807 98V433H570V98Q570 50 544 24Q501 -19 464 -19T405 -10T367 16Q333 48 333 98V433H261Q226 433 206 452Q173 486 173 523T198 587T261 614H333V955Q333 1050 418 1130Q427
1138 427 1148ZM570 614H807V1059Q807 1109 782 1134Q738 1178 701 1178T642 1169T604 1143Q570 1109 570 1060V614ZM689 1485Q644 1485 604 1502T533 1549Q468 1613 468 1704Q468 1795 533 1859Q601 1925 689 1925Q780 1925 845 1859Q908 1794 908 1704Q908 1612
845 1549T689 1485ZM743 1784T726 1792T678 1800T620 1772T592 1715T600 1668T621 1637Q651 1609 679 1609T724 1617T755 1638Q785 1666 785 1694T777 1740T756 1771Z" />
<glyph unicode="&#xc6;" glyph-name="AE" horiz-adv-x="1655" d="M594 1148Q594 1178 565 1178H449Q404 1178 381 1152Q341 1107 341 1060V1003Q341 925 268 895Q246 886 222 886T176 895T138 920Q104 954 104 1003V1063Q104 1185 191 1272T400 1359H826Q985 1359
1069 1259Q1080 1247 1092 1247T1115 1259Q1197 1359 1360 1359H1563Q1623 1359 1646 1304Q1653 1288 1653 1270T1646 1235T1627 1206Q1601 1178 1563 1178H1329Q1281 1178 1246 1152T1211 1072V667H1474Q1512 667 1537 641T1563 578T1538 514T1474 487H1211V298Q1211
247 1236 223Q1280 181 1329 181H1563Q1622 181 1646 124Q1653 108 1653 90T1646 55T1627 26Q1601 0 1563 0H1270Q1148 0 1061 87T974 296V486H737V98Q737 50 712 24Q668 -19 631 -19T572 -10T534 16Q500 48 500 98V486H428Q393 486 374 506Q340 539 340 576T365
640T428 667H500V955Q500 1050 586 1130Q594 1138 594 1148ZM737 667H974V1059Q974 1109 949 1134Q905 1178 868 1178T809 1169T771 1143Q737 1109 737 1060V667Z" />
<glyph unicode="&#xc7;" glyph-name="Ccedilla" horiz-adv-x="1026" d="M416 -204Q389 -204 372 -188T355 -148T369 -91L405 -9Q285 14 221 88T156 277V1085Q156 1220 248 1298Q344 1379 511 1379Q683 1379 780 1298Q876 1219 876 1084Q876 873 768 799Q735 776
702 776T647 785T609 810Q575 842 575 883T588 945T617 986Q659 1038 659 1071T649 1126T621 1164Q582 1199 522 1199T428 1165T393 1080V268Q393 217 426 190T510 162T595 189T629 268V333Q629 383 654 408Q697 451 734 451T793 442T831 417Q866 382 866 333V274Q866
72 676 6Q614 -15 535 -18L503 -92Q595 -92 648 -144Q697 -190 697 -265Q697 -384 574 -424Q532 -438 476 -438H315Q292 -438 276 -422T260 -382T276 -342T315 -325H436Q468 -325 488 -307T509 -264T490 -222T442 -204H416Z" />
<glyph unicode="&#xc8;" glyph-name="Egrave" horiz-adv-x="1024" d="M520 1379Q606 1379 674 1359T788 1300Q884 1221 884 1084Q884 873 776 799Q743 776 710 776T655 785T617 810Q583 842 583 883T596 945T625 986Q667 1038 667 1087T630 1167T529 1198T427
1171T388 1092V785Q388 736 413 710Q455 666 505 666H523Q561 666 586 640T612 576T587 512T530 486T477 477T439 452Q405 418 405 368V298Q405 248 430 223Q473 180 523 180Q568 180 591 204Q633 248 633 284T642 341T667 379Q702 414 751 414Q799 414 824 388Q868
345 868 287T845 174T777 80Q685 0 523 0Q356 0 260 80Q168 159 168 294V324Q168 460 252 532Q277 554 309 572Q223 606 188 661T152 796V1083Q152 1220 249 1299T520 1379ZM644 1602Q661 1579 661 1554T648 1514Q626 1492 600 1492T550 1508L330 1662Q267 1705
267 1775Q267 1819 292 1844Q334 1886 371 1886Q439 1886 487 1820L644 1602Z" />
<glyph unicode="&#xc9;" glyph-name="Eacute" horiz-adv-x="1024" d="M520 1379Q606 1379 674 1359T788 1300Q884 1221 884 1084Q884 873 776 799Q743 776 710 776T655 785T617 810Q583 842 583 883T596 945T625 986Q667 1038 667 1087T630 1167T529 1198T427
1171T388 1092V785Q388 736 413 710Q455 666 505 666H523Q561 666 586 640T612 576T587 512T530 486T477 477T439 452Q405 418 405 368V298Q405 248 430 223Q473 180 523 180Q568 180 591 204Q633 248 633 284T642 341T667 379Q702 414 751 414Q799 414 824 388Q868
345 868 287T845 174T777 80Q685 0 523 0Q356 0 260 80Q168 159 168 294V324Q168 460 252 532Q277 554 309 572Q223 606 188 661T152 796V1083Q152 1220 249 1299T520 1379ZM560 1820Q608 1886 671 1886Q713 1886 738 1860Q780 1819 780 1781Q780 1705 717 1662L497
1508Q473 1492 454 1492Q420 1492 403 1510T386 1553T403 1602L560 1820Z" />
<glyph unicode="&#xca;" glyph-name="Ecircumflex" horiz-adv-x="1024" d="M520 1379Q606 1379 674 1359T788 1300Q884 1221 884 1084Q884 873 776 799Q743 776 710 776T655 785T617 810Q583 842 583 883T596 945T625 986Q667 1038 667 1087T630 1167T529 1198T427
1171T388 1092V785Q388 736 413 710Q455 666 505 666H523Q561 666 586 640T612 576T587 512T530 486T477 477T439 452Q405 418 405 368V298Q405 248 430 223Q473 180 523 180Q568 180 591 204Q633 248 633 284T642 341T667 379Q702 414 751 414Q799 414 824 388Q868
345 868 287T845 174T777 80Q685 0 523 0Q356 0 260 80Q168 159 168 294V324Q168 460 252 532Q277 554 309 572Q223 606 188 661T152 796V1083Q152 1220 249 1299T520 1379ZM755 1599Q768 1575 768 1553T751 1512T714 1493Q674 1493 654 1513L523 1647L392 1513Q372
1493 342 1493T295 1512T278 1553T291 1599L411 1812Q453 1888 524 1888Q589 1888 635 1812L755 1599Z" />
<glyph unicode="&#xcb;" glyph-name="Edieresis" horiz-adv-x="1024" d="M520 1379Q606 1379 674 1359T788 1300Q884 1221 884 1084Q884 873 776 799Q743 776 710 776T655 785T617 810Q583 842 583 883T596 945T625 986Q667 1038 667 1087T630 1167T529 1198T427
1171T388 1092V785Q388 736 413 710Q455 666 505 666H523Q561 666 586 640T612 576T587 512T530 486T477 477T439 452Q405 418 405 368V298Q405 248 430 223Q473 180 523 180Q568 180 591 204Q633 248 633 284T642 341T667 379Q702 414 751 414Q799 414 824 388Q868
345 868 287T845 174T777 80Q685 0 523 0Q356 0 260 80Q168 159 168 294V324Q168 460 252 532Q277 554 309 572Q223 606 188 661T152 796V1083Q152 1220 249 1299T520 1379ZM311 1778Q366 1778 405 1738Q446 1698 446 1657T435 1592T405 1550Q366 1510 311 1510Q256
1510 217 1550Q176 1590 176 1630Q176 1698 216 1738T311 1778ZM613 1568T603 1592T592 1643T602 1695T631 1738Q671 1778 712 1778T778 1768T821 1738Q861 1699 861 1658T851 1592T821 1550Q782 1510 741 1510T675 1520T632 1549Z" />
<glyph unicode="&#xcc;" glyph-name="Igrave" horiz-adv-x="855" d="M267 1003Q267 925 194 895Q172 886 148 886T102 895T64 920Q30 954 30 1003V1063Q30 1186 118 1272Q206 1359 326 1359H544Q593 1359 618 1334Q662 1290 662 1239V296Q662 173 576 87Q489 0
367 0H251Q213 0 187 26T161 89T187 154T251 181H308Q357 181 383 206Q426 247 426 298V1179H381Q333 1179 308 1153Q267 1109 267 1060V1003ZM631 1602Q648 1579 648 1554T635 1514Q613 1492 587 1492T537 1508L317 1662Q254 1705 254 1775Q254 1819 279 1844Q321
1886 358 1886Q426 1886 474 1820L631 1602Z" />
<glyph unicode="&#xcd;" glyph-name="Iacute" horiz-adv-x="855" d="M267 1003Q267 925 194 895Q172 886 148 886T102 895T64 920Q30 954 30 1003V1063Q30 1186 118 1272Q206 1359 326 1359H544Q593 1359 618 1334Q662 1290 662 1239V296Q662 173 576 87Q489 0
367 0H251Q213 0 187 26T161 89T187 154T251 181H308Q357 181 383 206Q426 247 426 298V1179H381Q333 1179 308 1153Q267 1109 267 1060V1003ZM547 1820Q595 1886 658 1886Q700 1886 725 1860Q767 1819 767 1781Q767 1705 704 1662L484 1508Q460 1492 441 1492Q407
1492 390 1510T373 1553T390 1602L547 1820Z" />
<glyph unicode="&#xce;" glyph-name="Icircumflex" horiz-adv-x="855" d="M267 1003Q267 925 194 895Q172 886 148 886T102 895T64 920Q30 954 30 1003V1063Q30 1186 118 1272Q206 1359 326 1359H544Q593 1359 618 1334Q662 1290 662 1239V296Q662 173 576 87Q489
0 367 0H251Q213 0 187 26T161 89T187 154T251 181H308Q357 181 383 206Q426 247 426 298V1179H381Q333 1179 308 1153Q267 1109 267 1060V1003ZM742 1599Q755 1575 755 1553T738 1512T701 1493Q661 1493 641 1513L510 1647L379 1513Q359 1493 329 1493T282 1512T265
1553T278 1599L398 1812Q440 1888 511 1888Q576 1888 622 1812L742 1599Z" />
<glyph unicode="&#xcf;" glyph-name="Idieresis" horiz-adv-x="855" d="M267 1003Q267 925 194 895Q172 886 148 886T102 895T64 920Q30 954 30 1003V1063Q30 1186 118 1272Q206 1359 326 1359H544Q593 1359 618 1334Q662 1290 662 1239V296Q662 173 576 87Q489
0 367 0H251Q213 0 187 26T161 89T187 154T251 181H308Q357 181 383 206Q426 247 426 298V1179H381Q333 1179 308 1153Q267 1109 267 1060V1003ZM298 1778Q353 1778 392 1738Q433 1698 433 1657T422 1592T392 1550Q353 1510 298 1510Q243 1510 204 1550Q163 1590
163 1630Q163 1698 203 1738T298 1778ZM600 1568T590 1592T579 1643T589 1695T618 1738Q658 1778 699 1778T765 1768T808 1738Q848 1699 848 1658T838 1592T808 1550Q769 1510 728 1510T662 1520T619 1549Z" />
<glyph unicode="&#xd0;" glyph-name="Eth" horiz-adv-x="1321" d="M297 1003Q297 925 224 895Q202 886 178 886T132 895T94 920Q60 952 60 1003V1063Q60 1185 147 1272T356 1359H870Q992 1359 1079 1272Q1165 1186 1165 1063V296Q1165 173 1079 87Q992 0 870 0H324Q287
0 267 19Q233 51 233 79T240 124T260 154Q287 181 324 181H456V559H329Q302 559 285 575T267 615T284 655T326 671H456V956Q456 1051 542 1131Q550 1139 550 1148T544 1168T518 1179H405Q361 1179 337 1152Q297 1107 297 1060V1003ZM693 559V181H812Q888 181 920
252Q929 273 929 298V1060Q929 1108 904 1134Q861 1179 812 1179H802Q755 1176 724 1143T693 1061V671H753Q777 671 793 655T810 614T794 575T754 559H693Z" />
<glyph unicode="&#xd1;" glyph-name="Ntilde" horiz-adv-x="1193" d="M192 1003Q192 925 119 895Q97 886 73 886T27 895T-10 920Q-45 954 -45 1003V1063Q-45 1186 42 1272Q131 1359 251 1359H451Q510 1359 546 1310Q561 1286 574 1286T596 1294L614 1311Q687 1379
782 1379Q890 1379 968 1292Q1044 1206 1044 1083L1045 98Q1045 22 974 -10Q952 -19 928 -19T881 -10T843 16Q808 49 808 98L807 1080Q807 1130 782 1155Q738 1199 690 1199Q642 1199 616 1176Q569 1134 569 1087V296Q569 173 483 87Q396 0 274 0H188Q150 0 124
26T98 89T124 154T188 181H215Q264 181 290 206Q333 247 333 298V1179H306Q258 1177 234 1152Q192 1108 192 1060V1003ZM925 1767Q945 1784 970 1784T1012 1766T1029 1722T1009 1666T964 1607T910 1556Q850 1511 784 1511T677 1540T616 1592L590 1624Q583 1631
574 1631Q563 1631 536 1608L474 1556Q454 1539 429 1539T387 1557T370 1601T390 1657T434 1716T488 1767Q549 1812 623 1812Q702 1812 760 1752L795 1715Q803 1707 809 1700T825 1692Q836 1692 863 1715L925 1767Z" />
<glyph unicode="&#xd2;" glyph-name="Ograve" horiz-adv-x="1022" d="M383 1148T373 1127T363 1077T376 1028T405 986Q447 935 447 902T438 847T413 810Q378 776 333 776T254 799T196 862Q146 947 146 1084Q146 1219 242 1298Q339 1379 511 1379Q678 1379 774
1298Q866 1220 866 1085V277Q866 140 772 60Q679 -19 511 -19Q343 -19 248 60Q156 137 156 274V600Q156 649 182 674Q225 718 262 718T321 709T359 684Q393 650 393 600V268Q393 217 427 190T511 162T595 189T629 268V1080Q629 1130 595 1164T516 1199T445 1190T401
1164ZM681 1602Q698 1579 698 1554T685 1514Q663 1492 637 1492T587 1508L367 1662Q304 1705 304 1775Q304 1819 329 1844Q371 1886 408 1886Q476 1886 524 1820L681 1602Z" />
<glyph unicode="&#xd3;" glyph-name="Oacute" horiz-adv-x="1022" d="M383 1148T373 1127T363 1077T376 1028T405 986Q447 935 447 902T438 847T413 810Q378 776 333 776T254 799T196 862Q146 947 146 1084Q146 1219 242 1298Q339 1379 511 1379Q678 1379 774
1298Q866 1220 866 1085V277Q866 140 772 60Q679 -19 511 -19Q343 -19 248 60Q156 137 156 274V600Q156 649 182 674Q225 718 262 718T321 709T359 684Q393 650 393 600V268Q393 217 427 190T511 162T595 189T629 268V1080Q629 1130 595 1164T516 1199T445 1190T401
1164ZM597 1820Q645 1886 708 1886Q750 1886 775 1860Q817 1819 817 1781Q817 1705 754 1662L534 1508Q510 1492 491 1492Q457 1492 440 1510T423 1553T440 1602L597 1820Z" />
<glyph unicode="&#xd4;" glyph-name="Ocircumflex" horiz-adv-x="1022" d="M383 1148T373 1127T363 1077T376 1028T405 986Q447 935 447 902T438 847T413 810Q378 776 333 776T254 799T196 862Q146 947 146 1084Q146 1219 242 1298Q339 1379 511 1379Q678 1379
774 1298Q866 1220 866 1085V277Q866 140 772 60Q679 -19 511 -19Q343 -19 248 60Q156 137 156 274V600Q156 649 182 674Q225 718 262 718T321 709T359 684Q393 650 393 600V268Q393 217 427 190T511 162T595 189T629 268V1080Q629 1130 595 1164T516 1199T445
1190T401 1164ZM792 1599Q805 1575 805 1553T788 1512T751 1493Q711 1493 691 1513L560 1647L429 1513Q409 1493 379 1493T332 1512T315 1553T328 1599L448 1812Q490 1888 561 1888Q626 1888 672 1812L792 1599Z" />
<glyph unicode="&#xd5;" glyph-name="Otilde" horiz-adv-x="1022" d="M383 1148T373 1127T363 1077T376 1028T405 986Q447 935 447 902T438 847T413 810Q378 776 333 776T254 799T196 862Q146 947 146 1084Q146 1219 242 1298Q339 1379 511 1379Q678 1379 774
1298Q866 1220 866 1085V277Q866 140 772 60Q679 -19 511 -19Q343 -19 248 60Q156 137 156 274V600Q156 649 182 674Q225 718 262 718T321 709T359 684Q393 650 393 600V268Q393 217 427 190T511 162T595 189T629 268V1080Q629 1130 595 1164T516 1199T445 1190T401
1164ZM794 1767Q814 1784 839 1784T881 1766T898 1722T878 1666T833 1607T779 1556Q719 1511 653 1511T546 1540T485 1592L459 1624Q452 1631 443 1631Q432 1631 405 1608L343 1556Q323 1539 298 1539T256 1557T239 1601T259 1657T303 1716T357 1767Q418 1812 492
1812Q571 1812 629 1752L664 1715Q672 1707 678 1700T694 1692Q705 1692 732 1715L794 1767Z" />
<glyph unicode="&#xd6;" glyph-name="Odieresis" horiz-adv-x="1022" d="M383 1148T373 1127T363 1077T376 1028T405 986Q447 935 447 902T438 847T413 810Q378 776 333 776T254 799T196 862Q146 947 146 1084Q146 1219 242 1298Q339 1379 511 1379Q678 1379 774
1298Q866 1220 866 1085V277Q866 140 772 60Q679 -19 511 -19Q343 -19 248 60Q156 137 156 274V600Q156 649 182 674Q225 718 262 718T321 709T359 684Q393 650 393 600V268Q393 217 427 190T511 162T595 189T629 268V1080Q629 1130 595 1164T516 1199T445 1190T401
1164ZM348 1778Q403 1778 442 1738Q483 1698 483 1657T472 1592T442 1550Q403 1510 348 1510Q293 1510 254 1550Q213 1590 213 1630Q213 1698 253 1738T348 1778ZM650 1568T640 1592T629 1643T639 1695T668 1738Q708 1778 749 1778T815 1768T858 1738Q898 1699
898 1658T888 1592T858 1550Q819 1510 778 1510T712 1520T669 1549Z" />
<glyph unicode="&#xd7;" glyph-name="multiply" horiz-adv-x="1023" d="M155 966Q155 1003 176 1024Q209 1057 247 1057Q283 1057 308 1032L511 829L715 1032Q740 1057 776 1057Q814 1057 834 1037Q868 1003 868 966Q868 929 843 904L639 701L843 498Q868 473
868 436Q868 399 848 378Q814 345 776 345Q740 345 715 370L511 573L308 370Q283 345 247 345Q209 345 189 365Q155 399 155 436Q155 473 180 498L383 701L180 904Q155 929 155 966Z" />
<glyph unicode="&#xd8;" glyph-name="Oslash" horiz-adv-x="1095" d="M584 1379Q811 1379 897 1240L967 1365Q984 1395 1006 1395T1051 1384T1073 1349T1065 1312L939 1084V277Q939 140 846 60Q752 -19 592 -19T341 45L307 -17Q290 -51 266 -51Q200 -51 200 3Q200
18 208 34L262 132Q229 192 229 274V600Q229 649 254 674Q298 718 335 718T394 709T432 684Q466 650 466 600V460L702 910V1080Q702 1130 668 1164T589 1199T518 1190T474 1164Q436 1130 436 1090T449 1028T478 986Q520 935 520 902T511 847T486 810Q451 776 406
776T327 799T269 862Q219 947 219 1084Q219 1219 314 1298Q412 1379 584 1379ZM466 217T500 190T584 162T668 189T702 268V719L466 269V268Q466 217 500 190Z" />
<glyph unicode="&#xd9;" glyph-name="Ugrave" horiz-adv-x="1362" d="M986 1360T1007 1369T1053 1379T1099 1370T1137 1344Q1172 1311 1172 1262V101Q1172 52 1146 25Q1081 -42 1008 -11Q967 6 946 49Q934 74 920 74T898 66L880 49Q852 23 816 2T725 -19T621 4T538
68Q461 154 461 277V1179H415Q367 1179 342 1153Q301 1109 301 1060V1003Q301 925 228 895Q206 886 182 886T136 895T98 920Q64 952 64 1003V1063Q64 1185 151 1272T360 1359H578Q627 1359 653 1334Q698 1291 698 1242V280Q698 230 723 205Q767 161 815 161Q894
161 925 223Q935 243 935 268V1262Q935 1311 960 1335ZM975 1602Q992 1579 992 1554T979 1514Q957 1492 931 1492T881 1508L661 1662Q598 1705 598 1775Q598 1819 623 1844Q665 1886 702 1886Q770 1886 818 1820L975 1602Z" />
<glyph unicode="&#xda;" glyph-name="Uacute" horiz-adv-x="1362" d="M986 1360T1007 1369T1053 1379T1099 1370T1137 1344Q1172 1311 1172 1262V101Q1172 52 1146 25Q1081 -42 1008 -11Q967 6 946 49Q934 74 920 74T898 66L880 49Q852 23 816 2T725 -19T621 4T538
68Q461 154 461 277V1179H415Q367 1179 342 1153Q301 1109 301 1060V1003Q301 925 228 895Q206 886 182 886T136 895T98 920Q64 952 64 1003V1063Q64 1185 151 1272T360 1359H578Q627 1359 653 1334Q698 1291 698 1242V280Q698 230 723 205Q767 161 815 161Q894
161 925 223Q935 243 935 268V1262Q935 1311 960 1335ZM891 1820Q939 1886 1002 1886Q1044 1886 1069 1860Q1111 1819 1111 1781Q1111 1705 1048 1662L828 1508Q804 1492 785 1492Q751 1492 734 1510T717 1553T734 1602L891 1820Z" />
<glyph unicode="&#xdb;" glyph-name="Ucircumflex" horiz-adv-x="1362" d="M986 1360T1007 1369T1053 1379T1099 1370T1137 1344Q1172 1311 1172 1262V101Q1172 52 1146 25Q1081 -42 1008 -11Q967 6 946 49Q934 74 920 74T898 66L880 49Q852 23 816 2T725 -19T621
4T538 68Q461 154 461 277V1179H415Q367 1179 342 1153Q301 1109 301 1060V1003Q301 925 228 895Q206 886 182 886T136 895T98 920Q64 952 64 1003V1063Q64 1185 151 1272T360 1359H578Q627 1359 653 1334Q698 1291 698 1242V280Q698 230 723 205Q767 161 815 161Q894
161 925 223Q935 243 935 268V1262Q935 1311 960 1335ZM1086 1599Q1099 1575 1099 1553T1082 1512T1045 1493Q1005 1493 985 1513L854 1647L723 1513Q703 1493 673 1493T626 1512T609 1553T622 1599L742 1812Q784 1888 855 1888Q920 1888 966 1812L1086 1599Z"
/>
<glyph unicode="&#xdc;" glyph-name="Udieresis" horiz-adv-x="1362" d="M986 1360T1007 1369T1053 1379T1099 1370T1137 1344Q1172 1311 1172 1262V101Q1172 52 1146 25Q1081 -42 1008 -11Q967 6 946 49Q934 74 920 74T898 66L880 49Q852 23 816 2T725 -19T621
4T538 68Q461 154 461 277V1179H415Q367 1179 342 1153Q301 1109 301 1060V1003Q301 925 228 895Q206 886 182 886T136 895T98 920Q64 952 64 1003V1063Q64 1185 151 1272T360 1359H578Q627 1359 653 1334Q698 1291 698 1242V280Q698 230 723 205Q767 161 815 161Q894
161 925 223Q935 243 935 268V1262Q935 1311 960 1335ZM642 1778Q697 1778 736 1738Q777 1698 777 1657T766 1592T736 1550Q697 1510 642 1510Q587 1510 548 1550Q507 1590 507 1630Q507 1698 547 1738T642 1778ZM944 1568T934 1592T923 1643T933 1695T962 1738Q1002
1778 1043 1778T1109 1768T1152 1738Q1192 1699 1192 1658T1182 1592T1152 1550Q1113 1510 1072 1510T1006 1520T963 1549Z" />
<glyph unicode="&#xdd;" glyph-name="Yacute" horiz-adv-x="1361" d="M984 1360T1005 1369T1051 1379T1098 1370T1136 1344Q1171 1311 1171 1262V296Q1171 174 1082 87Q994 0 872 0H695Q657 0 631 26T604 90Q604 128 630 154T695 181H813Q892 181 924 252Q933
274 933 298V435Q933 454 923 460T902 467T884 458L867 442Q799 374 709 374Q602 374 530 461Q459 547 459 670V1179H415Q367 1179 342 1153Q301 1109 301 1060V1003Q301 925 228 895Q206 886 182 886T136 895T98 920Q64 954 64 1003V1063Q64 1186 152 1272Q240
1359 360 1359H577Q625 1359 651 1334Q696 1291 696 1242V673Q696 624 722 598Q766 554 802 554T860 561T898 583Q933 613 933 661V1262Q933 1311 958 1335ZM891 1820Q939 1886 1002 1886Q1044 1886 1069 1860Q1111 1819 1111 1781Q1111 1705 1048 1662L828 1508Q804
1492 785 1492Q751 1492 734 1510T717 1553T734 1602L891 1820Z" />
<glyph unicode="&#xde;" glyph-name="Thorn" horiz-adv-x="1116" d="M-63 799Q-63 919 24 1008Q110 1095 233 1095H333V1262Q333 1338 404 1370Q426 1379 450 1379T497 1370T535 1345Q570 1310 570 1262V1095H752Q874 1095 958 1008Q1041 921 1041 799V630Q1041
506 955 420T746 334H570V98Q570 22 498 -10Q477 -19 453 -19T406 -10T368 16Q333 49 333 98V915H282Q238 915 214 888Q174 843 174 796V739Q174 661 101 631Q79 622 55 622T9 631T-28 656Q-63 690 -63 739V799ZM805 796Q805 844 780 870Q737 915 689 915H570V512H688Q737
512 761 538Q805 583 805 632V796Z" />
<glyph unicode="&#xdf;" glyph-name="germandbls" horiz-adv-x="1023" d="M738 921Q884 856 884 696V296Q884 163 800 82Q714 0 570 0Q535 0 516 20Q482 53 482 90T507 154T567 181T625 211T648 286V707Q648 758 621 789T559 826T503 857T481 915T501 973T553
1006Q610 1021 610 1121V1239Q610 1289 582 1323T516 1358T460 1349T426 1323Q394 1288 394 1239V117Q394 69 368 44Q325 0 288 0T229 9T191 34Q156 68 156 117V1242Q156 1378 248 1458Q341 1538 502 1538Q669 1538 760 1458Q847 1380 847 1244V1151Q847 995 738
921Z" />
<glyph unicode="&#xe0;" glyph-name="agrave" horiz-adv-x="1023" d="M244 975Q244 1035 300 1059Q316 1066 335 1066H571Q693 1066 780 979T867 770V97Q867 21 795 -10Q773 -20 747 -20T703 -12T671 8Q660 18 649 36T632 64T613 73Q600 73 592 64L576 47Q509
-20 419 -20Q312 -20 234 68Q156 155 156 276V414Q156 536 243 623Q329 709 452 709H630V767Q630 817 605 842Q561 886 512 886H335Q298 886 278 905Q244 937 244 975ZM393 278Q393 227 418 203Q462 161 499 161T557 168T595 188Q630 216 630 262V530H512Q461 530
436 505Q393 462 393 412V278ZM632 1329Q649 1306 649 1281T636 1241Q614 1219 588 1219T538 1235L318 1389Q255 1432 255 1502Q255 1546 280 1572Q322 1613 359 1613Q427 1613 475 1547L632 1329Z" />
<glyph unicode="&#xe1;" glyph-name="aacute" horiz-adv-x="1023" d="M244 975Q244 1035 300 1059Q316 1066 335 1066H571Q693 1066 780 979T867 770V97Q867 21 795 -10Q773 -20 747 -20T703 -12T671 8Q660 18 649 36T632 64T613 73Q600 73 592 64L576 47Q509
-20 419 -20Q312 -20 234 68Q156 155 156 276V414Q156 536 243 623Q329 709 452 709H630V767Q630 817 605 842Q561 886 512 886H335Q298 886 278 905Q244 937 244 975ZM393 278Q393 227 418 203Q462 161 499 161T557 168T595 188Q630 216 630 262V530H512Q461 530
436 505Q393 462 393 412V278ZM548 1547Q596 1613 659 1613Q701 1613 726 1588Q768 1546 768 1508Q768 1432 705 1389L485 1235Q461 1219 442 1219Q408 1219 391 1237T374 1280T391 1329L548 1547Z" />
<glyph unicode="&#xe2;" glyph-name="acircumflex" horiz-adv-x="1023" d="M244 975Q244 1035 300 1059Q316 1066 335 1066H571Q693 1066 780 979T867 770V97Q867 21 795 -10Q773 -20 747 -20T703 -12T671 8Q660 18 649 36T632 64T613 73Q600 73 592 64L576 47Q509
-20 419 -20Q312 -20 234 68Q156 155 156 276V414Q156 536 243 623Q329 709 452 709H630V767Q630 817 605 842Q561 886 512 886H335Q298 886 278 905Q244 937 244 975ZM393 278Q393 227 418 203Q462 161 499 161T557 168T595 188Q630 216 630 262V530H512Q461 530
436 505Q393 462 393 412V278ZM744 1326Q757 1302 757 1280T740 1239T703 1220Q663 1220 643 1240L512 1374L381 1240Q361 1220 331 1220T284 1239T267 1280T280 1326L400 1539Q442 1615 513 1615Q578 1615 624 1539L744 1326Z" />
<glyph unicode="&#xe3;" glyph-name="atilde" horiz-adv-x="1023" d="M244 975Q244 1035 300 1059Q316 1066 335 1066H571Q693 1066 780 979T867 770V97Q867 21 795 -10Q773 -20 747 -20T703 -12T671 8Q660 18 649 36T632 64T613 73Q600 73 592 64L576 47Q509
-20 419 -20Q312 -20 234 68Q156 155 156 276V414Q156 536 243 623Q329 709 452 709H630V767Q630 817 605 842Q561 886 512 886H335Q298 886 278 905Q244 937 244 975ZM393 278Q393 227 418 203Q462 161 499 161T557 168T595 188Q630 216 630 262V530H512Q461 530
436 505Q393 462 393 412V278ZM760 1474Q780 1491 805 1491T847 1473T864 1429T844 1373T799 1314T746 1264Q685 1218 619 1218T512 1247T451 1300L424 1330Q418 1338 408 1338Q398 1338 371 1315L309 1263Q289 1246 264 1246T222 1264T205 1308T225 1364T269 1423T322
1474Q384 1519 458 1519Q537 1519 596 1459L630 1422Q638 1414 644 1407T660 1399Q671 1399 698 1422L760 1474Z" />
<glyph unicode="&#xe4;" glyph-name="adieresis" horiz-adv-x="1023" d="M244 975Q244 1035 300 1059Q316 1066 335 1066H571Q693 1066 780 979T867 770V97Q867 21 795 -10Q773 -20 747 -20T703 -12T671 8Q660 18 649 36T632 64T613 73Q600 73 592 64L576 47Q509
-20 419 -20Q312 -20 234 68Q156 155 156 276V414Q156 536 243 623Q329 709 452 709H630V767Q630 817 605 842Q561 886 512 886H335Q298 886 278 905Q244 937 244 975ZM393 278Q393 227 418 203Q462 161 499 161T557 168T595 188Q630 216 630 262V530H512Q461 530
436 505Q393 462 393 412V278ZM311 1485Q366 1485 406 1446Q446 1405 446 1364T435 1299T406 1256Q366 1217 311 1217Q256 1217 216 1256Q176 1297 176 1338Q176 1405 216 1445T311 1485ZM593 1275T583 1299T572 1350T582 1402T612 1446Q651 1485 692 1485T758
1475T802 1446Q841 1406 841 1365T831 1299T802 1256Q762 1217 721 1217T655 1227T612 1256Z" />
<glyph unicode="&#xe5;" glyph-name="aring" horiz-adv-x="1023" d="M244 975Q244 1035 300 1059Q316 1066 335 1066H571Q693 1066 780 979T867 770V97Q867 21 795 -10Q773 -20 747 -20T703 -12T671 8Q660 18 649 36T632 64T613 73Q600 73 592 64L576 47Q509 -20
419 -20Q312 -20 234 68Q156 155 156 276V414Q156 536 243 623Q329 709 452 709H630V767Q630 817 605 842Q561 886 512 886H335Q298 886 278 905Q244 937 244 975ZM393 278Q393 227 418 203Q462 161 499 161T557 168T595 188Q630 216 630 262V530H512Q461 530 436
505Q393 462 393 412V278ZM518 1218Q473 1218 433 1235T362 1282Q297 1346 297 1437Q297 1528 362 1592Q430 1658 518 1658Q609 1658 674 1592Q737 1527 737 1437Q737 1345 674 1282T518 1218ZM572 1517T555 1525T507 1533T449 1505T421 1448T429 1401T450 1370Q480
1342 508 1342T553 1350T584 1371Q614 1399 614 1427T606 1473T585 1504Z" />
<glyph unicode="&#xe6;" glyph-name="ae" horiz-adv-x="1496" d="M244 975Q244 1035 300 1059Q316 1066 335 1066H481Q645 1066 724 985Q735 973 747 973T770 985Q854 1085 1014 1085Q1155 1085 1246 1006Q1340 923 1340 789V505Q1340 455 1315 430Q1272 387 1221
387H867V288Q867 218 938 190Q960 181 985 181H1162Q1200 181 1226 154T1252 90T1226 26T1162 0H1015Q851 0 772 81Q761 93 749 93T726 81Q642 -19 482 -19Q341 -19 250 60Q156 143 156 277V414Q156 536 243 623Q329 709 452 709H630V767Q630 817 605 842Q561 886
512 886H335Q298 886 278 905Q244 937 244 975ZM393 278Q393 227 418 203Q462 161 499 161T557 168T595 188Q630 216 630 262V530H512Q461 530 436 505Q393 462 393 412V278ZM1103 787Q1103 837 1078 862Q1034 906 985 906Q936 906 910 880Q867 837 867 787V562H1103V787Z"
/>
<glyph unicode="&#xe7;" glyph-name="ccedilla" horiz-adv-x="1023" d="M467 -204Q440 -204 423 -188T406 -148T420 -91L460 0H452Q330 0 243 87T156 296V792Q156 921 243 1000Q338 1086 511 1086Q744 1086 822 978Q847 945 847 912T838 857T813 819Q779 785 736
785Q666 785 621 853Q578 906 511 906Q462 906 436 880Q393 837 393 787V298Q393 247 418 223Q462 181 511 181H757Q816 181 840 124Q847 108 847 90T840 55T821 26Q795 0 757 0H594L554 -92Q646 -92 700 -144Q748 -190 748 -265Q748 -384 624 -424Q583 -438 527
-438H366Q343 -438 327 -422T311 -382T327 -342T366 -325H487Q519 -325 539 -307T560 -264T541 -222T493 -204H467Z" />
<glyph unicode="&#xe8;" glyph-name="egrave" horiz-adv-x="1023" d="M726 181T752 154T778 90T752 26T688 0H452Q330 0 243 87T156 296V787Q156 923 248 1004Q344 1086 512 1086Q678 1086 774 1004Q867 922 867 785V505Q867 455 842 430Q799 387 748 387H393V298Q393
247 418 223Q462 181 511 181H688Q726 181 752 154ZM630 787Q630 837 605 862Q561 906 512 906Q462 906 436 880Q393 837 393 787V562H630V787ZM622 1349Q639 1326 639 1301T626 1261Q604 1239 578 1239T528 1255L308 1409Q245 1452 245 1522Q245 1566 270 1592Q312
1633 349 1633Q417 1633 465 1567L622 1349Z" />
<glyph unicode="&#xe9;" glyph-name="eacute" horiz-adv-x="1023" d="M726 181T752 154T778 90T752 26T688 0H452Q330 0 243 87T156 296V787Q156 923 248 1004Q344 1086 512 1086Q678 1086 774 1004Q867 922 867 785V505Q867 455 842 430Q799 387 748 387H393V298Q393
247 418 223Q462 181 511 181H688Q726 181 752 154ZM630 787Q630 837 605 862Q561 906 512 906Q462 906 436 880Q393 837 393 787V562H630V787ZM538 1567Q586 1633 649 1633Q691 1633 716 1608Q758 1566 758 1528Q758 1452 695 1409L475 1255Q451 1239 432 1239Q398
1239 381 1257T364 1300T381 1349L538 1567Z" />
<glyph unicode="&#xea;" glyph-name="ecircumflex" horiz-adv-x="1023" d="M726 181T752 154T778 90T752 26T688 0H452Q330 0 243 87T156 296V787Q156 923 248 1004Q344 1086 512 1086Q678 1086 774 1004Q867 922 867 785V505Q867 455 842 430Q799 387 748 387H393V298Q393
247 418 223Q462 181 511 181H688Q726 181 752 154ZM630 787Q630 837 605 862Q561 906 512 906Q462 906 436 880Q393 837 393 787V562H630V787ZM734 1346Q747 1322 747 1300T730 1259T693 1240Q653 1240 633 1260L502 1394L371 1260Q351 1240 321 1240T274 1259T257
1300T270 1346L390 1559Q432 1635 503 1635Q568 1635 614 1559L734 1346Z" />
<glyph unicode="&#xeb;" glyph-name="edieresis" horiz-adv-x="1023" d="M726 181T752 154T778 90T752 26T688 0H452Q330 0 243 87T156 296V787Q156 923 248 1004Q344 1086 512 1086Q678 1086 774 1004Q867 922 867 785V505Q867 455 842 430Q799 387 748 387H393V298Q393
247 418 223Q462 181 511 181H688Q726 181 752 154ZM630 787Q630 837 605 862Q561 906 512 906Q462 906 436 880Q393 837 393 787V562H630V787ZM301 1505Q356 1505 396 1466Q436 1425 436 1384T425 1319T396 1276Q356 1237 301 1237Q246 1237 206 1276Q166 1317
166 1358Q166 1425 206 1465T301 1505ZM583 1295T573 1319T562 1370T572 1422T602 1466Q641 1505 682 1505T748 1495T792 1466Q831 1426 831 1385T821 1319T792 1276Q752 1237 711 1237T645 1247T602 1276Z" />
<glyph unicode="&#xec;" glyph-name="igrave" horiz-adv-x="678" d="M219 966Q219 1015 244 1042Q287 1086 339 1086Q389 1086 413 1060Q457 1015 457 966V97Q457 49 432 24Q388 -20 351 -20T292 -11T254 14Q219 48 219 97V966ZM459 1349Q476 1326 476 1301T463
1261Q441 1239 415 1239T365 1255L145 1409Q82 1452 82 1522Q82 1566 107 1592Q149 1633 186 1633Q254 1633 302 1567L459 1349Z" />
<glyph unicode="&#xed;" glyph-name="iacute" horiz-adv-x="678" d="M219 966Q219 1015 244 1042Q287 1086 339 1086Q389 1086 413 1060Q457 1015 457 966V97Q457 49 432 24Q388 -20 351 -20T292 -11T254 14Q219 48 219 97V966ZM375 1567Q423 1633 486 1633Q528
1633 553 1608Q595 1566 595 1528Q595 1452 532 1409L312 1255Q288 1239 269 1239Q235 1239 218 1257T201 1300T218 1349L375 1567Z" />
<glyph unicode="&#xee;" glyph-name="icircumflex" horiz-adv-x="678" d="M219 966Q219 1015 244 1042Q287 1086 339 1086Q389 1086 413 1060Q457 1015 457 966V97Q457 49 432 24Q388 -20 351 -20T292 -11T254 14Q219 48 219 97V966ZM571 1346Q584 1322 584 1300T567
1259T530 1240Q490 1240 470 1260L339 1394L208 1260Q188 1240 158 1240T111 1259T94 1300T107 1346L227 1559Q269 1635 340 1635Q405 1635 451 1559L571 1346Z" />
<glyph unicode="&#xef;" glyph-name="idieresis" horiz-adv-x="678" d="M219 966Q219 1015 244 1042Q287 1086 339 1086Q389 1086 413 1060Q457 1015 457 966V97Q457 49 432 24Q388 -20 351 -20T292 -11T254 14Q219 48 219 97V966ZM138 1505Q193 1505 233 1466Q273
1425 273 1384T262 1319T233 1276Q193 1237 138 1237Q83 1237 43 1276Q3 1317 3 1358Q3 1425 43 1465T138 1505ZM420 1295T410 1319T399 1370T409 1422T439 1466Q478 1505 519 1505T585 1495T629 1466Q668 1426 668 1385T658 1319T629 1276Q589 1237 548 1237T482
1247T439 1276Z" />
<glyph unicode="&#xf0;" glyph-name="eth" horiz-adv-x="1023" d="M671 1317Q865 1123 865 867V277Q865 141 772 62Q678 -19 511 -19Q344 -19 248 62Q156 140 156 275V713Q156 835 228 922Q300 1009 407 1009Q497 1009 562 941L579 924Q587 916 596 916Q626 916
628 946Q608 1099 499 1210L285 1078Q268 1067 245 1067T208 1088T195 1125Q195 1159 223 1175L405 1288Q342 1330 294 1350T229 1392T211 1448T236 1509T292 1536Q355 1536 490 1458Q534 1433 581 1397L770 1515Q785 1524 800 1524Q833 1524 846 1503T859 1458T832
1417L671 1317ZM393 280Q393 230 418 205Q462 161 511 161Q559 161 584 186Q628 230 628 280V722Q628 795 555 822Q534 829 510 829T464 820T426 794Q393 759 393 710V280Z" />
<glyph unicode="&#xf1;" glyph-name="ntilde" horiz-adv-x="1023" d="M342 -1T321 -10T275 -20T229 -11T191 14Q156 49 156 97V966Q156 1015 182 1042Q224 1086 262 1086T319 1078T351 1058Q370 1042 377 1026T391 1001T409 993T430 1001T456 1028Q516 1086 587
1086T707 1063T790 998Q867 911 867 790V97Q867 21 796 -10Q774 -20 750 -20T703 -11T665 14Q630 49 630 97V787Q630 836 606 862Q563 906 514 906Q434 906 403 844Q393 824 393 799V97Q393 48 368 24ZM759 1494Q779 1511 804 1511T846 1493T863 1449T843 1393T798
1334T745 1284Q684 1238 618 1238T511 1267T450 1320L423 1350Q417 1358 407 1358Q397 1358 370 1335L308 1283Q288 1266 263 1266T221 1284T204 1328T224 1384T268 1443T321 1494Q383 1539 457 1539Q536 1539 595 1479L629 1442Q637 1434 643 1427T659 1419Q670
1419 697 1442L759 1494Z" />
<glyph unicode="&#xf2;" glyph-name="ograve" horiz-adv-x="1023" d="M156 792Q156 927 248 1006Q344 1086 512 1086Q678 1086 774 1006Q867 926 867 790V273Q867 64 663 0Q597 -20 513 -20T362 0T250 60Q156 138 156 276V792ZM630 787Q630 837 605 862Q561 906
512 906Q462 906 436 880Q393 837 393 787V267Q393 216 427 189T511 161T596 188T630 267V787ZM632 1349Q649 1326 649 1301T636 1261Q614 1239 588 1239T538 1255L318 1409Q255 1452 255 1522Q255 1566 280 1592Q322 1633 359 1633Q427 1633 475 1567L632 1349Z"
/>
<glyph unicode="&#xf3;" glyph-name="oacute" horiz-adv-x="1023" d="M156 792Q156 927 248 1006Q344 1086 512 1086Q678 1086 774 1006Q867 926 867 790V273Q867 64 663 0Q597 -20 513 -20T362 0T250 60Q156 138 156 276V792ZM630 787Q630 837 605 862Q561 906
512 906Q462 906 436 880Q393 837 393 787V267Q393 216 427 189T511 161T596 188T630 267V787ZM548 1567Q596 1633 659 1633Q701 1633 726 1608Q768 1566 768 1528Q768 1452 705 1409L485 1255Q461 1239 442 1239Q408 1239 391 1257T374 1300T391 1349L548 1567Z"
/>
<glyph unicode="&#xf4;" glyph-name="ocircumflex" horiz-adv-x="1023" d="M156 792Q156 927 248 1006Q344 1086 512 1086Q678 1086 774 1006Q867 926 867 790V273Q867 64 663 0Q597 -20 513 -20T362 0T250 60Q156 138 156 276V792ZM630 787Q630 837 605 862Q561
906 512 906Q462 906 436 880Q393 837 393 787V267Q393 216 427 189T511 161T596 188T630 267V787ZM744 1346Q757 1322 757 1300T740 1259T703 1240Q663 1240 643 1260L512 1394L381 1260Q361 1240 331 1240T284 1259T267 1300T280 1346L400 1559Q442 1635 513
1635Q578 1635 624 1559L744 1346Z" />
<glyph unicode="&#xf5;" glyph-name="otilde" horiz-adv-x="1023" d="M156 792Q156 927 248 1006Q344 1086 512 1086Q678 1086 774 1006Q867 926 867 790V273Q867 64 663 0Q597 -20 513 -20T362 0T250 60Q156 138 156 276V792ZM630 787Q630 837 605 862Q561 906
512 906Q462 906 436 880Q393 837 393 787V267Q393 216 427 189T511 161T596 188T630 267V787ZM760 1494Q780 1511 805 1511T847 1493T864 1449T844 1393T799 1334T746 1284Q685 1238 619 1238T512 1267T451 1320L424 1350Q418 1358 408 1358Q398 1358 371 1335L309
1283Q289 1266 264 1266T222 1284T205 1328T225 1384T269 1443T322 1494Q384 1539 458 1539Q537 1539 596 1479L630 1442Q638 1434 644 1427T660 1419Q671 1419 698 1442L760 1494Z" />
<glyph unicode="&#xf6;" glyph-name="odieresis" horiz-adv-x="1023" d="M156 792Q156 927 248 1006Q344 1086 512 1086Q678 1086 774 1006Q867 926 867 790V273Q867 64 663 0Q597 -20 513 -20T362 0T250 60Q156 138 156 276V792ZM630 787Q630 837 605 862Q561
906 512 906Q462 906 436 880Q393 837 393 787V267Q393 216 427 189T511 161T596 188T630 267V787ZM311 1505Q366 1505 406 1466Q446 1425 446 1384T435 1319T406 1276Q366 1237 311 1237Q256 1237 216 1276Q176 1317 176 1358Q176 1425 216 1465T311 1505ZM593
1295T583 1319T572 1370T582 1422T612 1466Q651 1505 692 1505T758 1495T802 1466Q841 1426 841 1385T831 1319T802 1276Q762 1237 721 1237T655 1247T612 1276Z" />
<glyph unicode="&#xf7;" glyph-name="divide" horiz-adv-x="1023" d="M506 345Q561 345 600 306Q641 265 641 224T630 159T600 116Q561 77 506 77Q451 77 412 116Q371 157 371 198Q371 265 411 305T506 345ZM506 1164Q561 1164 600 1124Q641 1084 641 1043T630
978T600 936Q561 896 506 896Q451 896 412 936Q371 976 371 1016Q371 1084 411 1124T506 1164ZM904 667T911 651T918 616T911 581T892 552Q867 525 830 525H192Q157 525 138 544Q104 578 104 606T111 650T130 680Q155 706 192 706H830Q865 706 884 687Z" />
<glyph unicode="&#xf8;" glyph-name="oslash" horiz-adv-x="1023" d="M512 -20Q352 -20 256 55L192 -40Q174 -70 150 -70T107 -58T87 -21T98 19L183 145Q156 202 156 276V792Q156 927 248 1006Q344 1086 510 1086T770 1008L834 1103Q850 1129 873 1129T910 1120Q937
1104 937 1080T927 1042L841 915Q867 858 867 790V273Q867 64 663 0Q597 -20 512 -20ZM393 425L630 792Q628 840 603 864Q559 906 523 906T465 897T427 871Q393 837 393 787V425ZM630 627L393 261Q395 213 429 187T512 161T596 188T630 267V627Z" />
<glyph unicode="&#xf9;" glyph-name="ugrave" horiz-adv-x="1023" d="M681 1067T702 1076T748 1086T794 1077T832 1052Q867 1017 867 969V100Q867 51 842 24Q799 -20 761 -20T703 -12T672 8Q653 24 646 40T632 65T614 73T593 65T567 38Q507 -20 436 -20T316 3T232
68Q156 155 156 276V969Q156 1045 228 1076Q249 1086 273 1086T320 1077T358 1052Q393 1017 393 969V279Q393 229 418 204Q462 160 510 160Q589 160 620 222Q630 242 630 267V969Q630 1018 655 1042ZM641 1349Q658 1326 658 1301T645 1261Q623 1239 597 1239T547
1255L327 1409Q264 1452 264 1522Q264 1566 289 1592Q331 1633 368 1633Q436 1633 484 1567L641 1349Z" />
<glyph unicode="&#xfa;" glyph-name="uacute" horiz-adv-x="1023" d="M681 1067T702 1076T748 1086T794 1077T832 1052Q867 1017 867 969V100Q867 51 842 24Q799 -20 761 -20T703 -12T672 8Q653 24 646 40T632 65T614 73T593 65T567 38Q507 -20 436 -20T316 3T232
68Q156 155 156 276V969Q156 1045 228 1076Q249 1086 273 1086T320 1077T358 1052Q393 1017 393 969V279Q393 229 418 204Q462 160 510 160Q589 160 620 222Q630 242 630 267V969Q630 1018 655 1042ZM557 1567Q605 1633 668 1633Q710 1633 735 1608Q777 1566 777
1528Q777 1452 714 1409L494 1255Q470 1239 451 1239Q417 1239 400 1257T383 1300T400 1349L557 1567Z" />
<glyph unicode="&#xfb;" glyph-name="ucircumflex" horiz-adv-x="1023" d="M681 1067T702 1076T748 1086T794 1077T832 1052Q867 1017 867 969V100Q867 51 842 24Q799 -20 761 -20T703 -12T672 8Q653 24 646 40T632 65T614 73T593 65T567 38Q507 -20 436 -20T316
3T232 68Q156 155 156 276V969Q156 1045 228 1076Q249 1086 273 1086T320 1077T358 1052Q393 1017 393 969V279Q393 229 418 204Q462 160 510 160Q589 160 620 222Q630 242 630 267V969Q630 1018 655 1042ZM752 1346Q765 1322 765 1300T748 1259T711 1240Q671 1240
651 1260L520 1394L389 1260Q369 1240 339 1240T292 1259T275 1300T288 1346L408 1559Q450 1635 521 1635Q586 1635 632 1559L752 1346Z" />
<glyph unicode="&#xfc;" glyph-name="udieresis" horiz-adv-x="1023" d="M681 1067T702 1076T748 1086T794 1077T832 1052Q867 1017 867 969V100Q867 51 842 24Q799 -20 761 -20T703 -12T672 8Q653 24 646 40T632 65T614 73T593 65T567 38Q507 -20 436 -20T316
3T232 68Q156 155 156 276V969Q156 1045 228 1076Q249 1086 273 1086T320 1077T358 1052Q393 1017 393 969V279Q393 229 418 204Q462 160 510 160Q589 160 620 222Q630 242 630 267V969Q630 1018 655 1042ZM320 1505Q375 1505 415 1466Q455 1425 455 1384T444 1319T415
1276Q375 1237 320 1237Q265 1237 225 1276Q185 1317 185 1358Q185 1425 225 1465T320 1505ZM602 1295T592 1319T581 1370T591 1422T621 1466Q660 1505 701 1505T767 1495T811 1466Q850 1426 850 1385T840 1319T811 1276Q771 1237 730 1237T664 1247T621 1276Z"
/>
<glyph unicode="&#xfd;" glyph-name="yacute" horiz-adv-x="1023" d="M680 1067T701 1076T747 1086T794 1077T832 1052Q867 1017 867 969V-178Q867 -301 780 -387Q691 -474 569 -474H392Q354 -474 328 -448T301 -384Q301 -346 327 -320T392 -293H510Q561 -293
586 -268Q629 -225 629 -176V41Q629 60 619 66T598 73T580 64L563 48Q495 -20 406 -20Q298 -20 227 68Q156 155 156 276V969Q156 1045 228 1076Q249 1086 273 1086T320 1077T358 1052Q393 1017 393 969V279Q393 230 418 204Q460 160 497 160T555 167T594 189Q629
219 629 267V969Q629 1018 654 1042ZM556 1567Q604 1633 667 1633Q709 1633 734 1608Q776 1566 776 1528Q776 1452 713 1409L493 1255Q469 1239 450 1239Q416 1239 399 1257T382 1300T399 1349L556 1567Z" />
<glyph unicode="&#xfe;" glyph-name="thorn" horiz-adv-x="1023" d="M156 1419Q156 1496 228 1528Q250 1538 275 1538T321 1529T359 1503Q394 1468 394 1419V1025Q394 1006 404 1000T424 993Q437 993 455 1012T488 1044T522 1066Q562 1087 616 1087T716 1064T796
1000Q867 913 867 789V295Q867 174 780 87T572 0H394V-321Q394 -369 368 -394Q325 -438 288 -438T229 -429T191 -404Q156 -370 156 -321V1419ZM630 788Q630 864 558 896Q537 905 513 905T467 897T429 874Q394 842 394 796V180H512Q562 180 587 205Q630 248 630
299V788Z" />
<glyph unicode="&#xff;" glyph-name="ydieresis" horiz-adv-x="1023" d="M680 1067T701 1076T747 1086T794 1077T832 1052Q867 1017 867 969V-178Q867 -301 780 -387Q691 -474 569 -474H392Q354 -474 328 -448T301 -384Q301 -346 327 -320T392 -293H510Q561 -293
586 -268Q629 -225 629 -176V41Q629 60 619 66T598 73T580 64L563 48Q495 -20 406 -20Q298 -20 227 68Q156 155 156 276V969Q156 1045 228 1076Q249 1086 273 1086T320 1077T358 1052Q393 1017 393 969V279Q393 230 418 204Q460 160 497 160T555 167T594 189Q629
219 629 267V969Q629 1018 654 1042ZM319 1505Q374 1505 414 1466Q454 1425 454 1384T443 1319T414 1276Q374 1237 319 1237Q264 1237 224 1276Q184 1317 184 1358Q184 1425 224 1465T319 1505ZM601 1295T591 1319T580 1370T590 1422T620 1466Q659 1505 700 1505T766
1495T810 1466Q849 1426 849 1385T839 1319T810 1276Q770 1237 729 1237T663 1247T620 1276Z" />
<glyph unicode="&#x2013;" glyph-name="endash" horiz-adv-x="1530" d="M1346 737T1353 721T1360 686T1353 651T1334 622Q1309 595 1272 595H254Q219 595 200 614Q166 648 166 676T173 720T192 750Q217 776 254 776H1272Q1307 776 1326 757Z" />
<glyph unicode="&#x2014;" glyph-name="emdash" horiz-adv-x="2038" d="M1857 737T1864 721T1871 686T1864 651T1845 622Q1820 595 1783 595H254Q219 595 200 614Q166 648 166 676T173 720T192 750Q217 776 254 776H1783Q1818 776 1837 757Z" />
<glyph unicode="&#x2018;" glyph-name="quoteleft" horiz-adv-x="513" d="M314 1190Q314 1147 344 1120Q399 1072 399 1012Q399 957 360 918Q322 880 274 880T197 898T148 944Q113 999 113 1080Q113 1235 201 1327Q255 1379 290 1379T344 1358T363 1314T356 1277T338
1250Q314 1216 314 1190Z" />
<glyph unicode="&#x2019;" glyph-name="quoteright" horiz-adv-x="513" d="M199 1069Q199 1112 169 1139Q114 1187 114 1247Q114 1302 153 1341Q191 1379 239 1379T316 1361T365 1315Q400 1260 400 1179Q400 1024 312 932Q258 880 223 880T169 901T150 945T157
982T175 1009Q199 1043 199 1069Z" />
<glyph unicode="&#x201a;" glyph-name="quotesinglbase" horiz-adv-x="513" d="M199 -62Q199 -19 169 8Q114 56 114 116Q114 171 153 210Q191 248 239 248T316 230T365 184Q400 129 400 48Q400 -107 312 -199Q258 -251 223 -251T169 -230T150 -186T157 -149T175
-122Q199 -88 199 -62Z" />
<glyph unicode="&#x201c;" glyph-name="quotedblleft" horiz-adv-x="1023" d="M350 1170Q350 1127 380 1100Q435 1052 435 992Q435 937 396 898Q358 860 310 860T233 878T184 924Q149 979 149 1060Q149 1215 237 1307Q291 1359 326 1359T380 1338T399 1294T392
1257T374 1230Q350 1196 350 1170ZM789 1170Q789 1127 819 1100Q874 1052 874 992Q874 937 835 898Q797 860 749 860T672 878T624 924Q588 979 588 1060Q588 1215 676 1307Q730 1359 765 1359T819 1338T838 1294T831 1257T814 1230Q789 1196 789 1170Z" />
<glyph unicode="&#x201d;" glyph-name="quotedblright" horiz-adv-x="1023" d="M673 1049Q673 1092 643 1119Q588 1167 588 1227Q588 1282 627 1321Q665 1359 713 1359T790 1341T838 1294Q874 1240 874 1159Q874 1004 786 912Q732 860 697 860T643 881T624 925T631
962T648 989Q673 1023 673 1049ZM234 1049Q234 1092 204 1119Q149 1167 149 1227Q149 1282 188 1321Q226 1359 274 1359T351 1341T400 1294Q435 1240 435 1159Q435 1004 347 912Q293 860 258 860T204 881T185 925T192 962T210 989Q234 1023 234 1049Z" />
<glyph unicode="&#x201e;" glyph-name="quotedblbase" horiz-adv-x="1023" d="M673 -61Q673 -18 643 9Q588 57 588 117Q588 172 627 211Q665 249 713 249T790 231T838 184Q874 130 874 49Q874 -106 786 -198Q732 -250 697 -250T643 -229T624 -185T631 -148T648
-121Q673 -87 673 -61ZM234 -61Q234 -18 204 9Q149 57 149 117Q149 172 188 211Q226 249 274 249T351 231T400 184Q435 130 435 49Q435 -106 347 -198Q293 -250 258 -250T204 -229T185 -185T192 -148T210 -121Q234 -87 234 -61Z" />
<glyph unicode="&#x2022;" glyph-name="bullet" horiz-adv-x="513" d="M45 618Q45 660 62 698T108 766Q171 827 256 827Q341 827 404 766Q467 704 467 617Q467 532 404 470Q340 408 256 408Q172 408 108 470Q45 532 45 618Z" />
<glyph unicode="&#x2039;" glyph-name="guilsinglleft" horiz-adv-x="1023" d="M324 435Q269 485 269 527T285 591T324 633L620 931Q642 951 667 951T711 936Q732 915 732 889T718 843L514 534L718 225Q732 206 732 187Q732 153 713 135T668 117T620 137L324 435Z" />
<glyph unicode="&#x203a;" glyph-name="guilsinglright" horiz-adv-x="1023" d="M698 435Q753 485 753 527T737 591T698 633L402 931Q380 951 355 951T311 936Q290 915 290 889T304 843L508 534L304 225Q290 206 290 187Q290 153 309 135T354 117T402 137L698 435Z" />
</font>
</defs>
</svg>
