<?xml version="1.0" standalone="no"?>
<!DOCTYPE svg PUBLIC "-//W3C//DTD SVG 1.1//EN" "http://www.w3.org/Graphics/SVG/1.1/DTD/svg11.dtd">
<svg xmlns="http://www.w3.org/2000/svg">
<defs >
<font id="Buda" horiz-adv-x="781" ><font-face
    font-family="Buda Light"
    units-per-em="2048"
    panose-1="2 0 3 3 0 0 0 0 0 0"
    ascent="1836"
    descent="-724"
    alphabetic="0" />
<glyph unicode=" " glyph-name="space" horiz-adv-x="562" />
<glyph unicode="!" glyph-name="exclam" horiz-adv-x="762" d="M454 1306V904Q454 776 410 312H366L356 431Q345 550 335 698T324 904V1306H454ZM298 52T298 90T324 154T388 180T452 154T478 90T452 26T388 0T324 26Z" />
<glyph unicode="&quot;" glyph-name="quotedbl" horiz-adv-x="580" d="M100 1400H238L188 1004H150L100 1400ZM342 1400H480L430 1004H392L342 1400Z" />
<glyph unicode="#" glyph-name="numbersign" horiz-adv-x="1348" d="M1008 1400H1108L994 952H1348L1328 862H971L886 528H1276L1256 438H863L752 -2H652L763 438H421L310 -2H210L321 438H6Q6 438 26 528H344L429 862H78Q78 862 98 952H452L566 1400H666L552 952H894L1008
1400ZM444 528H786L871 862H529L444 528Z" />
<glyph unicode="$" glyph-name="dollar" horiz-adv-x="956" d="M410 1430H514V1321Q561 1317 606 1304T679 1278T733 1249T766 1226T778 1216V1040H720L716 1059Q714 1072 696 1106Q682 1133 660 1165Q640 1194 600 1222Q563 1248 514 1259V742Q563 718 588 705T656
668T723 625T777 578T823 523T850 461T862 388Q862 317 831 259T749 165T638 106T514 77V-30H410V75Q328 81 247 109T139 153T98 178V360H156L160 340Q163 324 182 290Q199 260 224 230Q249 199 298 173T410 138V664Q353 692 316 713Q271 739 234 766Q192 797 162
831Q137 859 116 908Q98 951 98 1011Q98 1125 180 1216Q264 1306 410 1321V1430ZM744 354Q744 399 727 437T675 506T604 561T514 613V136Q624 147 684 211T744 354ZM210 1034Q210 959 262 903T410 795V1263Q324 1251 267 1190T210 1034Z" />
<glyph unicode="%" glyph-name="percent" horiz-adv-x="1344" d="M358 1416Q453 1416 518 1323T584 1056Q584 887 521 791T358 694T195 790T132 1056Q132 1228 198 1322T358 1416ZM358 1350Q291 1350 250 1289T208 1086Q208 1026 209 984T216 898T232 826T258
774T300 739T358 728T415 739T456 773T482 825T497 898T504 984T506 1086Q506 1350 358 1350ZM186 -2L1072 1398H1174L288 -2H186ZM1000 718Q1095 718 1160 625T1226 358Q1226 189 1163 93T1000 -4T837 92T774 358Q774 530 840 624T1000 718ZM1000 652Q933 652
892 591T850 388Q850 328 851 286T858 200T874 128T900 76T942 41T1000 30T1057 41T1098 75T1124 127T1139 200T1146 286T1148 388Q1148 652 1000 652Z" />
<glyph unicode="&amp;" glyph-name="ampersand" horiz-adv-x="1402" d="M590 1216Q640 1216 685 1205T769 1169T831 1099T854 994Q854 950 839 912T802 845T742 788T672 740T591 696L748 508Q835 402 898 333Q1008 471 1046 626H1160Q1109 427 971 256Q1131 94
1216 94Q1247 94 1273 104T1306 121T1316 132L1340 114L1332 102Q1325 91 1309 74T1273 40T1221 12T1158 0Q1060 0 890 168Q704 -6 498 -6Q348 -6 244 86T140 322Q140 383 158 434T202 518T274 585T354 636T446 680Q380 767 347 836T314 974Q314 1065 396 1140T590
1216ZM644 444Q515 594 479 639Q426 611 389 585T317 526T266 451T248 358Q248 310 262 266T305 184T387 123T508 100Q662 100 817 245Q753 315 644 444ZM420 1030Q420 965 454 897T560 735Q647 782 694 840T742 990Q742 1176 576 1176Q512 1176 466 1137T420 1030Z"
/>
<glyph unicode="&apos;" glyph-name="quotesingle" horiz-adv-x="362" d="M100 1400H238L188 1004H150L100 1400Z" />
<glyph unicode="(" glyph-name="parenleft" horiz-adv-x="584" d="M548 -262Q548 -262 510 -262L482 -228Q454 -193 415 -126T336 24T268 222T240 450V618Q240 731 269 848T334 1043T416 1197T481 1296T510 1332H548Q545 1325 537 1311Q500 1241 477 1188T418
1033T363 804T344 534Q344 417 359 306T392 119T443 -37T492 -155T539 -245Q545 -257 548 -262Z" />
<glyph unicode=")" glyph-name="parenright" horiz-adv-x="584" d="M36 -262Q39 -257 45 -245Q74 -191 91 -155T141 -38T191 119T225 305T240 534Q240 677 221 804T167 1033T108 1188T47 1311Q39 1325 36 1332H74Q85 1319 103 1296T167 1198T250 1044T315 848T344
618V450Q344 337 316 223T249 25T170 -126T102 -228L74 -262H36Z" />
<glyph unicode="*" glyph-name="asterisk" horiz-adv-x="648" d="M600 1208Q434 1157 347 1113Q387 1093 450 1070T556 1032L600 1018L544 920Q416 1039 334 1092Q337 1048 348 982T370 870L380 826H266Q304 993 309 1091Q273 1066 221 1024T136 950L102 920L46
1018Q211 1066 298 1112Q258 1132 195 1156T89 1194L46 1208L102 1306Q226 1189 309 1135Q306 1179 296 1245T276 1356L266 1400H380Q340 1232 334 1133Q371 1157 423 1200T510 1275L544 1306L600 1208Z" />
<glyph unicode="+" glyph-name="plus" horiz-adv-x="880" d="M834 382H486V34H392V382H42V476H392V826H486V476H834V382Z" />
<glyph unicode="," glyph-name="comma" horiz-adv-x="368" d="M78 89Q78 132 106 156T168 180Q202 179 232 148Q261 118 261 42Q261 1 246 -41T213 -111T170 -167T136 -203T120 -216L98 -178L118 -160Q142 -139 166 -88Q179 -60 179 -23Q179 -12 178 0Q134 0 108
21Q78 45 78 89Z" />
<glyph unicode="-" glyph-name="hyphen" horiz-adv-x="662" d="M90 420V520H582V420H90Z" />
<glyph unicode="." glyph-name="period" horiz-adv-x="468" d="M172 52T172 90T198 154T262 180T326 154T352 90T326 26T262 0T198 26Z" />
<glyph unicode="/" glyph-name="slash" horiz-adv-x="1026" d="M896 1400H996L152 -406H52L896 1400Z" />
<glyph unicode="0" glyph-name="zero" horiz-adv-x="1158" d="M576 1420Q666 1420 746 1375T890 1244T991 1018T1028 702Q1028 363 902 171T576 -22T250 170T124 702Q124 877 162 1017T264 1243T408 1375T576 1420ZM627 1308T576 1308T481 1292T398 1236T331 1136T287
981T270 766Q270 659 272 583T282 423T303 284T339 175T394 92T471 43T576 24T680 42T758 91T813 175T849 284T869 423T879 582T882 766Q882 887 866 981T822 1136T755 1236T671 1291Z" />
<glyph unicode="1" glyph-name="one" horiz-adv-x="734" d="M408 0V1222L364 1198Q321 1173 239 1141T80 1092L72 1130Q109 1143 144 1159T210 1193T267 1229T318 1267T360 1303T395 1337T422 1365T441 1387T452 1400H518V0H408Z" />
<glyph unicode="2" glyph-name="two" horiz-adv-x="1220" d="M214 1056L164 1080Q167 1087 172 1099T199 1147T244 1215T308 1286T393 1354T499 1402T628 1422Q822 1422 932 1308T1042 1018Q1042 942 1022 870T968 736T879 609T767 489T628 370T474 252T305 129Q287
117 278 110H1100V0H122V68Q178 111 250 165T373 256T484 341T588 423T678 503T757 586T819 670T867 760T895 855T906 962Q906 1114 821 1207T588 1300Q510 1300 441 1271T326 1200T253 1121T214 1056Z" />
<glyph unicode="3" glyph-name="three" horiz-adv-x="1234" d="M294 1194Q299 1203 309 1218T356 1274T434 1344T543 1399T682 1424Q810 1424 880 1359T950 1178Q950 1130 931 1083T885 1001T815 926T742 864T666 810Q761 805 840 780T982 708T1080 587T1116 416Q1116
288 1048 188T867 36T616 -16Q537 -16 458 0T323 39T222 85T154 124L132 140L190 236Q198 230 211 221T269 187T358 144T470 110T598 94Q785 94 895 190T1006 440Q1006 582 915 663T668 744Q625 744 585 733T526 711L508 700L496 762Q532 784 543 791T591 821T641
857T687 894T732 937T768 982T799 1034T816 1089T824 1152Q824 1237 773 1285T626 1334Q578 1334 530 1317T448 1276T386 1227T344 1185L330 1168L294 1194Z" />
<glyph unicode="4" glyph-name="four" horiz-adv-x="1110" d="M710 0V436H74V514L752 1400H816V546H1042V436H816V0H710ZM710 1250L168 546H710V1250Z" />
<glyph unicode="5" glyph-name="five" horiz-adv-x="1030" d="M818 1400L804 1290H314L278 820Q387 851 479 851Q551 851 608 834Q748 792 826 684Q904 575 904 428Q904 320 869 234T774 96T636 16T472 -12Q406 -12 341 5T231 44T147 92T94 130T74 148L100 188L116
177Q131 166 162 151T234 120T331 93T448 82Q606 82 694 173T782 416Q782 533 708 619Q635 704 508 732Q463 742 411 742Q321 742 216 712L272 1400H818Z" />
<glyph unicode="6" glyph-name="six" horiz-adv-x="1110" d="M700 1422Q700 1422 732 1374L711 1358Q690 1341 656 1308T579 1230T490 1123T403 992T327 837T276 662L302 680Q327 697 371 722T467 773T577 816T682 834Q743 834 797 811T895 743T964 622T990 450Q990
232 877 108T596 -16Q515 -16 438 16T296 110T190 279T150 522Q150 627 181 734T258 925T367 1092T483 1229T592 1333T669 1399T700 1422ZM268 598Q263 556 263 516Q263 429 286 351Q320 236 402 162Q484 90 594 90Q727 90 801 184T876 430Q876 575 813 654T626
734Q571 734 513 720T415 687T337 646T287 613T268 598Z" />
<glyph unicode="7" glyph-name="seven" horiz-adv-x="812" d="M-2 1400H768V1332L416 0H312L694 1290H-2V1400Z" />
<glyph unicode="8" glyph-name="eight" horiz-adv-x="1016" d="M508 1410Q600 1410 674 1378Q748 1347 792 1296Q835 1247 858 1192Q882 1134 882 1073Q882 1038 875 1004T847 930Q826 891 802 862T753 812T710 777T660 743T620 716Q910 559 910 334Q910 244 877
175T787 66T660 5T510 -16Q432 -16 363 4T236 65T144 175T110 334Q110 454 184 545T400 716Q390 723 355 747T297 787T241 837T188 903T153 983T138 1086Q138 1128 152 1172T198 1258T272 1335T376 1389T508 1410ZM510 1366Q392 1366 317 1288T242 1100Q242 1056
260 1015T301 944T366 881T436 831T510 786Q548 808 570 822T625 859T683 904T734 960Q758 994 769 1028T780 1100Q780 1209 703 1287T510 1366ZM510 92Q633 92 711 157T790 334Q790 392 760 446T693 533T608 597T540 635T510 648L481 636Q452 624 411 597T329
535T259 446T230 334Q230 227 307 160T510 92Z" />
<glyph unicode="9" glyph-name="nine" horiz-adv-x="1046" d="M480 -38Q480 -38 414 52L449 84Q484 116 537 178T646 319T751 507T822 724L800 706Q778 689 738 664T649 614T541 572T426 554Q369 554 314 580T212 654T137 781T108 956Q108 1064 144 1152T240 1293T367
1374T506 1402Q575 1402 637 1384T757 1323T856 1219T923 1062T948 850Q948 748 922 643T856 456T763 291T665 155T572 51T507 -15T480 -38ZM830 788Q834 818 834 854Q834 889 832 917Q820 1090 722 1201Q639 1296 518 1296Q460 1296 410 1276Q358 1255 316 1216T248
1115T222 976Q222 826 294 740T492 654Q547 654 603 668T696 700Q721 712 767 740Q796 757 810 770Q810 770 830 788Z" />
<glyph unicode=":" glyph-name="colon" horiz-adv-x="520" d="M172 52T172 90T198 154T262 180T326 154T352 90T326 26T262 0T198 26ZM172 736T172 774T198 838T262 864T326 838T352 774T326 710T262 684T198 710Z" />
<glyph unicode=";" glyph-name="semicolon" horiz-adv-x="480" d="M172 736T172 774T198 838T262 864T326 838T352 774T326 710T262 684T198 710ZM172 90Q172 133 201 156T262 180Q295 180 325 148T355 42Q355 1 340 -41T307 -111T264 -167T230 -203T214 -216L190
-181L217 -154Q238 -132 259 -84Q273 -52 273 -22Q273 -11 271 0Q233 0 206 18Q172 43 172 90Z" />
<glyph unicode="&lt;" glyph-name="less" horiz-adv-x="912" d="M48 384V484L868 862V762L172 432L868 102V2L48 384Z" />
<glyph unicode="=" glyph-name="equal" horiz-adv-x="886" d="M836 504H44V598H836V504ZM836 252H44V346H836V252Z" />
<glyph unicode="&gt;" glyph-name="greater" horiz-adv-x="898" d="M860 384L40 2V102L736 432L40 762V862L860 484V384Z" />
<glyph unicode="?" glyph-name="question" horiz-adv-x="914" d="M58 1178Q64 1187 75 1202T125 1257T207 1325T321 1379T466 1404Q534 1404 599 1384T718 1324T806 1220T840 1074Q840 1013 819 963T763 877T688 812T606 753T531 695T476 624T454 534V312H324V474Q324
526 345 571T400 649T474 714T555 778T630 846T685 930T706 1036Q706 1155 628 1234T390 1314Q342 1314 294 1298T211 1258T150 1211T108 1170L94 1154L58 1178ZM300 52T300 90T326 154T390 180T454 154T480 90T454 26T390 0T326 26Z" />
<glyph unicode="@" glyph-name="at" horiz-adv-x="1592" d="M1040 1044H1148L1050 497Q1047 471 1047 450Q1047 326 1143 326Q1243 326 1316 434Q1386 538 1386 728Q1386 847 1348 950T1240 1130T1059 1253T814 1298Q687 1298 572 1249T374 1117T241 920T192 680Q192
509 275 365T501 138T814 54Q892 54 966 74T1064 106T1100 126L1146 32L1110 12Q1073 -8 990 -28T814 -48Q617 -48 451 49T187 312T90 676T187 1039T450 1303T814 1400Q1005 1400 1159 1316T1401 1085T1488 754Q1488 659 1468 579T1412 443T1331 348T1233 291T1128
272Q1031 272 988 322Q948 369 948 468Q948 476 948 486Q928 456 922 447T895 409T861 368T824 334T778 303T728 285T668 276Q556 276 492 380Q438 468 438 591Q439 621 441 648Q453 812 568 946Q673 1068 808 1068Q852 1068 891 1058T953 1034T995 1004T1020 981T1028
970L1040 1044ZM982 698Q1009 857 1016 902L1008 912Q996 927 986 936Q968 952 950 966Q930 980 899 990T836 1000Q742 1000 662 903Q591 818 567 680Q564 663 564 609Q564 531 598 465Q642 380 720 380T881 485T982 698Z" />
<glyph unicode="A" glyph-name="A" horiz-adv-x="1212" d="M666 1400L1216 0H1068L864 520H246L52 0H-2L520 1400H666ZM296 640H818L552 1326L296 640Z" />
<glyph unicode="B" glyph-name="B" horiz-adv-x="1336" d="M216 0V1400H646Q871 1400 990 1314T1110 1066Q1110 931 1021 839T812 718Q1204 693 1204 370Q1204 272 1165 199T1056 84T896 21T698 0H216ZM336 680V120H676Q885 120 979 188T1074 400Q1074 545 981
612T666 680H336ZM336 730H600Q703 730 779 753T898 817T960 905T980 1008Q980 1140 902 1210T634 1280H336V730Z" />
<glyph unicode="C" glyph-name="C" horiz-adv-x="1358" d="M1150 354Q1150 354 1262 294L1253 276Q1244 258 1223 230T1173 168T1098 99T999 36T872 -10T718 -28Q624 -28 534 3T364 97T224 248T128 458T92 720Q92 884 146 1021T291 1247T492 1383T722 1432Q806
1432 883 1417T1006 1383T1093 1340T1145 1306T1162 1290L1192 1044H1134Q1121 1107 1089 1164T1007 1271Q963 1314 882 1350Q812 1381 718 1381Q622 1381 536 1341T376 1225T262 1028T222 762Q222 476 366 289T736 102Q793 102 847 116T941 152T1016 201T1075
255T1116 305T1142 341L1150 354Z" />
<glyph unicode="D" glyph-name="D" horiz-adv-x="1446" d="M216 1400H590Q957 1400 1134 1220T1312 700Q1312 363 1130 182T632 0H216V1400ZM336 1348V208Q336 113 373 82T526 50H606Q751 50 858 96T1030 228T1126 432T1158 700Q1158 817 1141 911T1082 1088T972
1227T798 1315T552 1348H336Z" />
<glyph unicode="E" glyph-name="E" horiz-adv-x="1304" d="M196 1400H1090L1138 1148H1090Q1072 1203 1054 1237T1003 1298T921 1338T800 1350H318V762H998V658H318V120H1152V0H196V1400Z" />
<glyph unicode="F" glyph-name="F" horiz-adv-x="1180" d="M196 1400H1050L1100 1148H1052Q1034 1203 1016 1237T965 1298T883 1338T762 1350Q762 1350 316 1350V762H870V660H316V0H196V1400Z" />
<glyph unicode="G" glyph-name="G" horiz-adv-x="1420" d="M688 576V680H1240V0H1142L1120 162Q1053 88 952 36T716 -16Q622 -16 533 13T366 102T228 248T135 453T100 714Q100 878 154 1016T296 1244T494 1382T716 1432Q802 1432 880 1417T1007 1383T1097 1340T1150
1306T1168 1290L1198 1044H1140Q1128 1101 1096 1158Q1068 1208 1021 1260T892 1347T718 1382Q627 1382 539 1340Q449 1297 382 1223Q312 1145 271 1028Q230 908 230 762Q230 472 372 293T746 114Q832 114 905 143T1023 216T1094 312T1120 410V576H688Z" />
<glyph unicode="H" glyph-name="H" horiz-adv-x="1564" d="M1212 1400H1346V0H1212V680H356V0H220V1400H356V730H1212V1400Z" />
<glyph unicode="I" glyph-name="I" horiz-adv-x="594" d="M230 1400H360V0H230V1400Z" />
<glyph unicode="J" glyph-name="J" horiz-adv-x="610" d="M374 1400V140Q374 -143 308 -273T86 -404V-358Q182 -358 214 -274T246 46V1400H374Z" />
<glyph unicode="K" glyph-name="K" horiz-adv-x="1304" d="M212 1400H338V652L1004 1400H1214V1342Q1106 1342 1049 1321T920 1220L598 860L1316 0H1134L500 750L338 570V0H212V1400Z" />
<glyph unicode="L" glyph-name="L" horiz-adv-x="1094" d="M220 0V1400H342V50H732Q792 50 840 64T918 97T970 146T1004 197T1024 246H1086L1006 0H220Z" />
<glyph unicode="M" glyph-name="M" horiz-adv-x="1846" d="M174 0L302 1142Q312 1233 313 1280Q314 1324 293 1339Q278 1350 221 1350Q213 1350 202 1350V1400H494L956 218L1388 1400H1536L1696 0H1548L1400 1276L936 0H888L376 1312L228 0H174Z" />
<glyph unicode="N" glyph-name="N" horiz-adv-x="1548" d="M110 1400H392L1208 238V1400H1332V0H1206L280 1318V-2L226 0V1222Q226 1234 226 1252T227 1278T226 1298T223 1315T215 1327T201 1337T180 1342T150 1347T110 1348V1400Z" />
<glyph unicode="O" glyph-name="O" horiz-adv-x="1500" d="M748 1440Q875 1440 991 1392T1197 1255T1342 1029T1396 728Q1396 578 1361 452T1266 236T1124 85T949 -8T754 -38Q624 -38 509 10T302 150T158 392T104 730Q104 893 158 1029T302 1254T507 1391T748
1440ZM752 1310Q647 1310 553 1264T388 1134T276 928T234 658Q234 504 269 385T358 197T484 84T620 25T750 10Q798 10 843 16T941 42T1039 91T1127 171T1200 288T1248 448T1266 658Q1266 803 1224 927T1112 1134T948 1263T752 1310Z" />
<glyph unicode="P" glyph-name="P" horiz-adv-x="1274" d="M218 1400H692Q815 1400 907 1370T1052 1285T1130 1164T1156 1014Q1156 913 1122 834T1037 709T918 633T791 593T672 582Q588 582 502 598T387 624T342 640V0H218V1400ZM342 1282V698L384 683Q427 668
502 653T644 638Q720 638 785 656T905 712T992 817T1024 976Q1024 1282 640 1282H342Z" />
<glyph unicode="Q" glyph-name="Q" horiz-adv-x="1500" d="M748 1440Q875 1440 991 1392T1197 1255T1342 1029T1396 728Q1396 578 1361 452T1266 236T1124 85T949 -8T754 -38Q705 -38 649 -30Q723 -64 838 -125T1027 -223T1195 -290T1370 -320Q1409 -320 1446
-313T1506 -296T1549 -276T1575 -260T1584 -252L1608 -282L1595 -299Q1582 -316 1554 -340T1489 -388T1395 -429T1276 -446Q1218 -446 1156 -422T1035 -359T911 -273T772 -175T620 -81T440 -4T232 42V90Q323 81 417 56Q272 146 188 317T104 730Q104 893 158 1029T302
1254T507 1391T748 1440ZM752 1310Q647 1310 553 1264T388 1134T276 928T234 658Q234 504 269 385T358 197T484 84T620 25T750 10Q798 10 843 16T941 42T1039 91T1127 171T1200 288T1248 448T1266 658Q1266 803 1224 927T1112 1134T948 1263T752 1310Z" />
<glyph unicode="R" glyph-name="R" horiz-adv-x="1416" d="M218 1400H682Q815 1400 914 1367T1069 1276T1150 1153T1176 1010Q1176 759 908 648Q1041 432 1093 352Q1214 164 1288 105Q1358 49 1456 48L1458 0H1324Q1259 0 1207 21T1117 77T1036 172T959 293T865
447T748 622H340V0H218V1400ZM340 1278V672H668Q733 672 786 680T889 709T972 764T1026 854T1046 984Q1046 1050 1025 1101T957 1193T826 1256T624 1278H340Z" />
<glyph unicode="S" glyph-name="S" horiz-adv-x="1172" d="M924 1314T924 1312T952 1038H898Q857 1191 772 1277T556 1364Q432 1364 365 1290T298 1116Q298 1057 323 1008T390 923T486 855T601 795T721 737T835 670T932 590T999 486T1024 352Q1024 181 899 80T568
-22Q453 -22 334 27T136 146L222 240Q380 102 590 102Q718 102 804 166T890 348Q890 415 851 469T748 563T609 638T457 715T318 803T216 922T176 1082Q176 1229 287 1324T574 1420Q642 1420 703 1409T803 1383T870 1351T911 1324Z" />
<glyph unicode="T" glyph-name="T" horiz-adv-x="1070" d="M-26 1150L-8 1400H1078L1096 1150H1044L1042 1170Q1041 1191 1030 1220T998 1279T933 1329T828 1350H600V0H470V1350H242Q182 1350 138 1329T73 1281T41 1220T28 1172T26 1150H-26Z" />
<glyph unicode="U" glyph-name="U" horiz-adv-x="1508" d="M358 1400L356 724Q356 616 358 555Q366 314 430 204Q519 50 756 50Q882 50 963 92Q1092 158 1129 349Q1152 462 1152 724V1400H1290V708Q1290 567 1275 461T1224 266T1127 121T974 33T756 2Q630 2 537
33T383 120T285 266T233 461T218 708V1400H358Z" />
<glyph unicode="V" glyph-name="V" horiz-adv-x="1194" d="M628 0H564L10 1400H148L644 194Q962 972 1028 1144Q1054 1208 1057 1249T1047 1312T1013 1341T960 1350V1400H1182V1366L628 0Z" />
<glyph unicode="W" glyph-name="W" horiz-adv-x="2062" d="M1484 0H1420L1028 1140L608 0H544L64 1400H202L620 204L1060 1400H1074L1494 198Q1494 198 1844 1144Q1864 1198 1869 1237T1869 1298T1846 1331T1813 1347T1774 1350V1400H1990V1366L1484 0Z" />
<glyph unicode="X" glyph-name="X" horiz-adv-x="1188" d="M38 1400H196L628 752L938 1194Q975 1248 978 1284T960 1335T894 1350V1400H1130V1372L660 702L1128 0H970L562 614L134 0H54L526 670L38 1400Z" />
<glyph unicode="Y" glyph-name="Y" horiz-adv-x="1054" d="M134 1400L550 770Q807 1113 858 1192Q901 1258 901 1297Q901 1352 814 1352V1400H1050V1366L570 706V0H434V700L-16 1400H134Z" />
<glyph unicode="Z" glyph-name="Z" horiz-adv-x="1196" d="M1126 0H104V120L962 1348H468Q340 1348 277 1301T178 1144H128L184 1400H1106V1348L258 132H1126V0Z" />
<glyph unicode="[" glyph-name="bracketleft" horiz-adv-x="606" d="M550 1332V1288H344V-218H550V-262H240V1332H550Z" />
<glyph unicode="\" glyph-name="backslash" horiz-adv-x="994" d="M138 1400L982 -406H882L38 1400H138Z" />
<glyph unicode="]" glyph-name="bracketright" horiz-adv-x="428" d="M56 1332H366V-262H56V-218H262V1288H56V1332Z" />
<glyph unicode="^" glyph-name="asciicircum" horiz-adv-x="840" d="M370 1296H470L800 496H700L418 1172L140 496H40L370 1296Z" />
<glyph unicode="_" glyph-name="underscore" horiz-adv-x="688" d="M0 -242V-142H688V-242H0Z" />
<glyph unicode="`" glyph-name="grave" horiz-adv-x="876" d="M536 1052H482L242 1340H380L536 1052Z" />
<glyph unicode="a" glyph-name="a" horiz-adv-x="838" d="M412 872Q489 872 545 857T632 819T682 759T706 687T712 604V0H622L612 160Q563 81 475 39T316 -4Q219 -4 148 52T76 224Q76 287 100 336T168 415T262 465T378 494T496 507T612 510Q612 518 610 600Q609
644 602 673T575 728T515 767T412 780Q296 780 180 732L162 818L191 832Q220 845 282 858T412 872ZM612 296Q612 296 612 466Q186 466 186 236Q186 158 233 110T360 62Q457 62 534 136T612 296Z" />
<glyph unicode="b" glyph-name="b" horiz-adv-x="992" d="M188 0V1262Q188 1289 186 1302T174 1331T138 1353T70 1360V1400H290V702Q293 708 303 722T340 764T398 813T481 853T586 870Q645 870 697 849T795 782T867 652T894 454Q894 347 871 263T811 128T729 45T643
0T564 -12Q509 -12 461 3T383 39T331 84T301 122T290 141L276 0H188ZM544 88Q658 88 726 189T794 454Q794 814 556 814Q498 814 446 788T362 724T311 654T290 602V354Q290 252 366 170T544 88Z" />
<glyph unicode="c" glyph-name="c" horiz-adv-x="876" d="M473 873Q508 873 551 866T644 839Q669 829 701 810Q726 795 732 790Q739 784 742 780V576H700Q685 684 622 756T452 828Q343 828 268 730T192 460Q192 300 269 195T478 90Q519 90 560 105T627 138T678
181T710 214T722 230L792 166L779 148Q766 130 738 104T672 52T577 8T458 -10Q294 -10 192 117T90 436Q90 540 122 618Q160 711 204 755Q244 797 305 832Q376 873 473 873Z" />
<glyph unicode="d" glyph-name="d" horiz-adv-x="954" d="M688 0V187Q682 173 677 162T646 115T594 56T519 11T418 -10Q372 -10 328 4T241 51T165 134T112 259T92 430Q92 525 113 601T169 724T250 803T343 847T438 860Q492 860 538 847T610 817T656 778T681 748T688
734V1262Q688 1289 686 1302T674 1331T638 1353T570 1360V1400H790V142Q790 115 792 102T804 73T840 51T908 44V0H688ZM446 758Q321 758 261 667T200 418Q200 238 266 140T444 42Q498 42 546 76T624 158T671 253T688 332V564Q688 587 672 618T628 682T551 736T446
758Z" />
<glyph unicode="e" glyph-name="e" horiz-adv-x="876" d="M450 862Q509 862 558 849T641 816T701 767T743 710T770 648T785 591T791 542T793 509T792 496H202Q201 475 201 455Q201 293 267 202Q341 100 480 100Q520 100 560 115T628 148T680 191T712 224T724 240L794
178L781 160Q768 141 740 115T674 63T579 19T460 0Q297 0 195 124T92 432Q92 622 193 742T450 862ZM206 536H686Q686 554 683 581T665 652T627 733T557 795T450 822Q390 822 344 795T273 733T232 652T212 581T206 536Z" />
<glyph unicode="f" glyph-name="f" horiz-adv-x="574" d="M200 0V818H76V860H200V1042Q200 1194 287 1296T484 1398Q522 1398 553 1394T596 1384L608 1380L612 1240H582Q561 1290 524 1313T444 1336Q302 1336 302 1098V860H580V818H302V0H200Z" />
<glyph unicode="g" glyph-name="g" horiz-adv-x="898" d="M118 560Q118 690 211 783T434 876Q499 876 561 849L830 878V782H659Q750 689 750 560Q750 430 657 337T434 244Q355 244 284 282Q208 231 208 172Q208 127 242 114T370 100H528Q571 100 610 94T690 71T761
27T810 -45T830 -148Q830 -259 731 -335T444 -412Q369 -412 306 -401T189 -365T103 -295T72 -188Q72 -72 195 15Q122 40 122 122Q122 159 148 200T200 264T248 304Q188 348 153 415T118 560ZM473 776T432 776T353 764T279 725T222 648T200 532Q200 468 220 419T275
341T350 298T434 284Q526 284 595 346T664 532Q664 598 643 648T586 724T512 763ZM362 0Q284 0 252 4Q172 -61 172 -174Q172 -245 213 -291T312 -355T442 -372Q730 -372 730 -174Q730 -88 669 -44T490 0H362Z" />
<glyph unicode="h" glyph-name="h" horiz-adv-x="1026" d="M80 1400H300V680Q404 766 513 819T696 872Q802 872 845 818T888 632V0H786V606Q786 703 759 743T650 784Q572 784 469 734T300 620V0H198V1262Q198 1289 196 1302T184 1331T148 1353T80 1360V1400Z" />
<glyph unicode="i" glyph-name="i" horiz-adv-x="440" d="M200 0V724Q200 751 198 764T186 793T150 815T82 822V864H302V0H200ZM176 1154T176 1184T197 1236T248 1258T300 1236T322 1184T300 1133T248 1112T197 1133Z" />
<glyph unicode="j" glyph-name="j" horiz-adv-x="422" d="M110 -392V-356Q151 -356 172 -296T194 -130V722Q194 749 192 762T180 791T144 813T76 820V862H294V-54Q294 -134 275 -210T216 -339T126 -392H110ZM152 1154T152 1184T173 1236T224 1258T276 1236T298
1184T276 1133T224 1112T173 1133Z" />
<glyph unicode="k" glyph-name="k" horiz-adv-x="946" d="M986 0H840L400 502L292 395V0H190V1262Q190 1289 188 1302T176 1331T140 1353T72 1360Q72 1360 72 1400H292V466L690 862H866V810Q775 810 726 792T610 708L480 580L986 0Z" />
<glyph unicode="l" glyph-name="l" horiz-adv-x="434" d="M194 0V1262Q194 1289 192 1302T180 1331T144 1353T76 1360V1400H296V0H194Z" />
<glyph unicode="m" glyph-name="m" horiz-adv-x="1554" d="M856 620Q856 620 856 0H754V598Q754 712 727 750T624 788Q580 788 533 772T439 726T364 674T298 620V0H198V746Q198 784 174 802T80 820V862H298V680Q521 872 668 872Q708 872 739 862T790 837T823 801T843
764T852 726T856 699T856 684Q1074 872 1226 872Q1283 872 1322 854T1380 804T1406 736T1414 656V0H1312V620Q1312 717 1282 752T1178 788Q1051 788 856 620Z" />
<glyph unicode="n" glyph-name="n" horiz-adv-x="1026" d="M80 862H298V680Q402 766 511 819T694 872Q800 872 843 818T886 632V0H784V606Q784 703 757 743T648 784Q570 784 467 734T298 620V0H198V726Q198 753 196 766T184 795T148 817T80 824V862Z" />
<glyph unicode="o" glyph-name="o" horiz-adv-x="920" d="M460 892Q638 892 739 767T840 446Q840 351 817 270T748 125T630 25T462 -12Q367 -12 293 24T174 124T106 269T82 446Q82 642 182 767T460 892ZM462 36Q517 36 564 57T653 123T718 250T742 444Q742 603
662 694T464 786Q346 786 265 695T184 444Q184 354 200 283T242 167T305 91T380 49T462 36Z" />
<glyph unicode="p" glyph-name="p" horiz-adv-x="966" d="M286 862V664Q290 672 301 690T341 742T400 805T479 854T574 876Q722 876 802 762T882 448Q882 227 786 103T536 -22Q468 -22 400 10T286 98V-402H190V724Q190 751 188 764T176 793T140 815T72 822V862H286ZM556
800Q506 800 455 772T367 704T309 622T286 550V238L294 222Q303 205 322 182T369 136T438 97T528 80Q595 80 645 111T724 194T766 306T780 432Q780 624 716 712T556 800Z" />
<glyph unicode="q" glyph-name="q" horiz-adv-x="936" d="M442 878Q490 878 535 863T608 831T663 787T696 753T710 734V860H812V-402H710V189Q703 177 694 163T653 112T590 49T510 0T414 -22Q374 -22 332 -7T247 42T169 127T114 256T92 428T114 600T173 728T257
813T350 863T442 878ZM442 66Q494 66 541 87T616 135T669 195T700 242T710 264V476Q710 570 687 626T625 716T543 765T452 780Q328 780 263 683T198 426Q198 248 268 157T442 66Z" />
<glyph unicode="r" glyph-name="r" horiz-adv-x="614" d="M156 0V652Q156 738 122 824L220 864Q235 829 256 724Q262 731 274 743T315 780T376 825T449 860T530 876Q596 876 626 854L562 736L552 744Q542 753 519 761T468 770Q385 770 323 715T260 582V0H156Z" />
<glyph unicode="s" glyph-name="s" horiz-adv-x="734" d="M62 116L120 186Q124 182 131 175T165 151T219 120T290 95T378 84Q465 84 512 127T560 228Q560 263 535 293T470 345T381 388T284 435T195 490T129 564T104 662Q104 752 173 815T366 878Q431 878 492 864T583
836L612 822V630H572Q571 638 569 651T552 700T516 761T452 810T354 832Q284 832 239 793T194 684Q194 640 219 604T285 544T375 496T474 449T564 398T630 329T656 236Q656 127 575 60T378 -8Q319 -8 265 5T175 36T113 72T74 103L62 116Z" />
<glyph unicode="t" glyph-name="t" horiz-adv-x="614" d="M274 1086V860H538V816H274V246Q274 221 274 205T277 167T285 131T298 103T321 83T354 76Q389 76 441 99T516 137T552 160L568 126L528 94Q487 61 426 30Q366 -2 326 -2Q174 -2 174 218V816H48V860H174V1086H274Z" />
<glyph unicode="u" glyph-name="u" horiz-adv-x="1006" d="M854 862V136Q854 109 856 96T868 67T904 45T972 38V0H754V182Q635 84 548 37T362 -10Q166 -10 166 232V862H268V280Q268 159 301 119T410 78Q496 78 594 129T754 242V862H854Z" />
<glyph unicode="v" glyph-name="v" horiz-adv-x="840" d="M136 862L454 136L668 658Q691 713 691 749Q690 814 616 814V862H794V832L454 0H396L28 862H136Z" />
<glyph unicode="w" glyph-name="w" horiz-adv-x="1374" d="M154 862L422 154L656 688L594 862H698L966 152L1182 646Q1204 696 1209 731T1205 783T1177 807T1134 814V862H1316V832L962 0H920L682 628L410 0H372L46 862H154Z" />
<glyph unicode="x" glyph-name="x" horiz-adv-x="918" d="M74 862H196L486 470L678 694Q714 737 719 767T709 810T666 822V862H856V826L516 430L852 0H730L440 370L112 0H42L402 418L74 862Z" />
<glyph unicode="y" glyph-name="y" horiz-adv-x="834" d="M116 -266Q147 -266 171 -264T216 -255T251 -241T281 -218T306 -190T329 -150T353 -104T380 -45T412 22L34 862H146L468 154L670 644Q692 698 698 732Q703 767 693 784T666 807T624 814V863L802 864V834Q745
695 675 521Q472 17 419 -97Q335 -280 267 -336Q212 -382 116 -382V-266Z" />
<glyph unicode="z" glyph-name="z" horiz-adv-x="852" d="M136 860H732V814L192 100H748V0H68V90L614 814H302Q273 814 249 808T210 790T183 766T164 738T154 712T147 690T144 676H94L136 860Z" />
<glyph unicode="{" glyph-name="braceleft" horiz-adv-x="630" d="M554 -220Q554 -220 554 -262Q521 -262 490 -258T416 -238T343 -196T290 -119T268 -2V362Q268 449 241 480T136 512V556Q214 556 241 587T268 706V1070Q268 1137 290 1187T342 1263T416 1306T490
1326T554 1330V1288Q372 1288 372 1154V820Q372 757 366 712T342 628T291 565T208 534Q303 517 337 447T372 248V-86Q372 -220 554 -220Z" />
<glyph unicode="|" glyph-name="bar" horiz-adv-x="520" d="M208 1400H308L310 -406H210L208 1400Z" />
<glyph unicode="}" glyph-name="braceright" horiz-adv-x="614" d="M62 -220Q244 -220 244 -86V248Q244 377 278 447T408 534Q358 542 325 565T275 627T251 712T244 820V1154Q244 1288 62 1288V1330Q95 1330 126 1326T200 1306T273 1264T326 1187T348 1070V706Q348
619 375 588T480 556V512Q402 512 375 481T348 362V-2Q348 -69 326 -119T274 -195T200 -238T126 -258T62 -262V-220Z" />
<glyph unicode="~" glyph-name="asciitilde" horiz-adv-x="952" d="M80 434Q81 438 83 444T95 469T114 504T143 541T183 577T233 602T296 612Q340 612 391 591T481 543T567 496T652 474Q679 474 707 485T755 513T791 546T816 574L824 586L862 562Q859 555 853
543T826 501T779 447T713 405T626 386Q579 386 528 407T439 455T357 502T276 524Q232 524 192 497T132 443L114 416L80 434Z" />
<glyph unicode="&#xa0;" glyph-name="nbspace" horiz-adv-x="380" />
<glyph unicode="&#xa1;" glyph-name="exclamdown" horiz-adv-x="762" d="M454 -400H324V2Q324 60 334 208T356 475L366 594H410Q454 130 454 2V-400ZM298 778T298 816T324 880T388 906T452 880T478 816T452 752T388 726T324 752Z" />
<glyph unicode="&#xa2;" glyph-name="cent" horiz-adv-x="888" d="M412 1026H500V871Q549 869 593 859T664 837T713 810T742 789T752 780L750 576H708Q694 672 641 741T500 825V90Q539 93 577 109T641 143T689 184T719 216T730 230L800 166L788 150Q776 133 751
109T692 61T607 16T500 -8V-178H412V-6Q270 16 184 138T98 436Q98 610 188 726T412 866V1026ZM200 460Q200 324 256 226T412 100V822Q320 801 260 706T200 460Z" />
<glyph unicode="&#xa3;" glyph-name="sterling" horiz-adv-x="1252" d="M170 658V762H326V994Q326 1175 437 1289T718 1404Q793 1404 861 1390T949 1368T980 1354L1002 1154H954L947 1174Q940 1195 921 1224T876 1282T803 1331T702 1352Q592 1352 519 1275T446
1038V762H880V658H446V570Q446 491 436 427T415 324T377 242T335 180T284 120H1098V0H142V52L161 72Q180 93 207 134T261 227T307 350T326 494V658H170Z" />
<glyph unicode="&#xa4;" glyph-name="currency" horiz-adv-x="900" d="M732 372L612 490Q532 434 434 434T258 490L140 372L68 444L184 560Q128 638 128 738Q128 835 186 916L68 1036L140 1108L258 988Q336 1044 434 1044Q534 1044 612 988L732 1108L804 1036L684
916Q740 834 740 738Q740 640 684 562L804 444L732 372ZM434 482Q536 484 613 560T690 738Q690 841 614 917T434 996Q330 994 254 918T176 738Q178 636 254 560T434 482Z" />
<glyph unicode="&#xa5;" glyph-name="yen" horiz-adv-x="1054" d="M80 546H434V700L429 708H80V772H388L-16 1400H134L548 772H551Q785 1083 858 1192Q894 1245 897 1282Q897 1286 897 1290Q897 1321 878 1335Q855 1351 814 1352V1400H1050V1366L618 772H944V708H571L570
706V546H944V482H570V0H434V482H80V546Z" />
<glyph unicode="&#xa6;" glyph-name="brokenbar" horiz-adv-x="518" d="M208 1400H310V658H210L208 1400ZM208 334H310V-406H210L208 334Z" />
<glyph unicode="&#xa7;" glyph-name="section" horiz-adv-x="1082" d="M188 -280Q188 -280 188 -116H246L248 -128Q250 -140 258 -160T278 -203T314 -250T366 -294T440 -326T540 -338Q647 -338 719 -276T792 -102Q792 -54 768 -14T704 57T611 114T500 165T384
215T274 270T181 336T116 419T92 524Q92 579 109 624T152 700T216 753T287 788T360 808Q272 858 222 922Q172 985 172 1074Q172 1217 275 1308Q380 1400 562 1400Q621 1400 677 1388T770 1360T839 1326T881 1299T896 1286V1122H838L836 1134Q834 1146 826 1166T806
1209T770 1256T718 1300T644 1332T544 1344Q438 1344 366 1282T294 1108Q294 1048 332 999T432 915T568 849T717 783T853 710T953 612T992 482Q992 427 975 382T932 306T868 253T797 218T724 198Q813 148 863 84Q914 21 914 -68Q914 -211 810 -302Q704 -394 522
-394Q463 -394 407 -382T314 -354T245 -320T203 -293T188 -280ZM862 452Q862 465 860 479Q846 572 717 646Q682 666 536 727L515 736Q461 753 438 753Q379 753 328 732Q282 712 252 666T222 554Q222 524 232 498T255 451T296 409T344 373T404 341T468 312Q530 285
537 283Q537 283 554 276L571 269Q606 255 659 253Q703 253 754 273Q802 292 832 340Q862 386 862 452Z" />
<glyph unicode="&#xa8;" glyph-name="dieresis" horiz-adv-x="864" d="M218 1122T218 1152T239 1204T290 1224T341 1203T363 1153T342 1101T290 1080T239 1101ZM496 1120T496 1150T517 1202T568 1224T620 1202T642 1150T620 1099T568 1078T517 1099Z" />
<glyph unicode="&#xa9;" glyph-name="copyright" horiz-adv-x="1544" d="M74 505T74 696T167 1048T422 1304T774 1398T1126 1304T1382 1049T1476 696T1382 344T1127 90T774 -4T422 89T168 344ZM140 868T140 696T225 378T456 147T774 62T1092 147T1324 378T1410
696T1325 1014T1093 1246T774 1332T456 1247T225 1015ZM1028 480Q1028 480 1102 438L1091 418Q1080 398 1054 369T992 311T898 262T772 242Q700 242 632 272T510 358T423 502T390 698Q390 797 423 880T510 1017T633 1100T772 1130Q823 1130 870 1121T945 1100T998
1074T1029 1053T1040 1044L1060 894H1010Q995 970 934 1028Q874 1084 772 1084Q647 1084 562 991Q476 896 476 722Q476 550 562 439T782 328Q830 328 873 344T943 381T991 427T1019 463T1028 480Z" />
<glyph unicode="&#xaa;" glyph-name="ordfeminine" horiz-adv-x="844" d="M420 1406Q482 1406 527 1394T597 1364T637 1316T656 1259T660 1192V708H588L580 836Q540 773 471 740T344 706Q266 706 209 750T152 882Q152 927 167 963T207 1024T269 1065T341 1092T423
1107T503 1114T580 1116Q580 1124 578 1188Q578 1223 573 1246T551 1291T503 1322T420 1332Q328 1332 234 1294L220 1364L244 1374Q267 1385 317 1395T420 1406ZM580 946Q580 946 580 1082Q240 1082 240 898Q240 835 277 797T378 758Q456 758 518 818T580 946Z"
/>
<glyph unicode="&#xab;" glyph-name="guillemotleft" horiz-adv-x="902" d="M100 470L424 782L460 752L202 432L460 112L424 82L100 394V470ZM420 470L744 782L780 752L522 432L780 112L744 82L420 394V470Z" />
<glyph unicode="&#xac;" glyph-name="logicalnot" horiz-adv-x="942" d="M844 346H750V768H52V862H844V346Z" />
<glyph unicode="&#xae;" glyph-name="registered" horiz-adv-x="1562" d="M74 505T74 696T167 1048T422 1304T774 1398T1126 1304T1382 1049T1476 696T1382 344T1127 90T774 -4T422 89T168 344ZM140 868T140 696T225 378T456 147T774 62T1092 147T1324 378T1410
696T1325 1014T1093 1246T774 1332T456 1247T225 1015ZM506 1124H788Q869 1124 929 1104T1023 1049T1072 974T1088 886Q1088 719 916 664L1154 270H1050L818 650H588V272H506V1124ZM588 1042V700H796Q883 700 940 739T998 870Q998 955 945 998T752 1042H588Z" />
<glyph unicode="&#xaf;" glyph-name="overscore" horiz-adv-x="688" d="M0 1450V1550H688V1450H0Z" />
<glyph unicode="&#xb0;" glyph-name="degree" horiz-adv-x="606" d="M50 1178T50 1282T123 1459T300 1532T477 1459T550 1282T477 1105T300 1032T123 1105ZM106 1362T106 1282T163 1145T300 1088T437 1145T494 1282T437 1419T300 1476T163 1419Z" />
<glyph unicode="&#xb1;" glyph-name="plusminus" horiz-adv-x="880" d="M834 426H486V152H392V426H42V520H392V826H486V520H834V426ZM834 0H42V94H834V0Z" />
<glyph unicode="&#xb2;" glyph-name="twosuperior" horiz-adv-x="658" d="M114 1228L88 1246Q91 1253 96 1264T123 1305T168 1356T234 1397T322 1416Q419 1416 473 1359T528 1214Q528 1180 520 1149T501 1092T465 1037T423 989T368 940T308 893T238 842T166 788H558V706H68V760Q97
782 146 819T220 875T281 925T337 975T379 1022T413 1074T432 1126T440 1186Q440 1260 402 1304T302 1348Q229 1348 179 1306T114 1228Z" />
<glyph unicode="&#xb3;" glyph-name="threesuperior" horiz-adv-x="676" d="M150 1282Q153 1287 158 1294T182 1322T221 1357T273 1385T338 1398Q405 1398 441 1366T478 1274Q478 1223 442 1180T358 1108Q446 1103 506 1057T566 922Q566 813 497 755T310 696Q254
696 196 715T108 754L78 774L122 846Q131 838 147 827T213 796T312 776Q396 776 440 818T484 934Q484 996 445 1033T338 1070Q317 1070 297 1065T268 1054L258 1048L250 1078Q257 1082 283 1098T320 1122T351 1146T381 1177T398 1212T406 1256Q406 1298 382 1320T314
1342Q278 1342 243 1322T191 1282L174 1262L150 1282Z" />
<glyph unicode="&#xb4;" glyph-name="acute" horiz-adv-x="868" d="M352 1050L508 1338H646L406 1050H352Z" />
<glyph unicode="&#xb5;" glyph-name="mu" horiz-adv-x="1020" d="M166 -392V864H268V264Q268 154 298 116T398 78Q495 78 592 128T754 242V864H854V194Q854 119 861 94T898 68Q934 68 982 114L1010 80Q1009 79 996 68T975 51T951 34T921 17T889 5T852 0Q819 0
798 16T768 63T757 119T754 182Q635 84 548 37T362 -10Q298 -10 268 12V-392H166Z" />
<glyph unicode="&#xb6;" glyph-name="paragraph" horiz-adv-x="980" d="M634 -392H560V480H478Q408 480 337 510T204 595T103 740T64 940Q64 1048 103 1138T203 1284T336 1370T478 1400H634V-392ZM814 -392H740V1400H932V1360Q889 1360 864 1354T829 1331T816
1302T814 1262V-392Z" />
<glyph unicode="&#xb7;" glyph-name="middot" horiz-adv-x="530" d="M172 438T172 476T198 540T262 566T326 540T352 476T326 412T262 386T198 412Z" />
<glyph unicode="&#xb8;" glyph-name="cedilla" horiz-adv-x="824" d="M392 26Q392 26 432 26L420 -54L432 -60Q444 -66 461 -79T495 -109T524 -151T536 -202Q536 -233 521 -260T486 -304T442 -333T408 -349T392 -354L370 -322L389 -315Q408 -308 427 -285T446
-228Q446 -210 438 -193T419 -164T394 -143T375 -131T366 -126Q366 -124 392 26Z" />
<glyph unicode="&#xb9;" glyph-name="onesuperior" horiz-adv-x="490" d="M240 706V1298L218 1286Q196 1274 155 1258T76 1234L72 1264Q123 1282 172 1315T239 1367T270 1400H324V706H240Z" />
<glyph unicode="&#xba;" glyph-name="ordmasculine" horiz-adv-x="854" d="M424 1414Q568 1414 650 1314T732 1054T654 791T426 686Q276 686 197 790T118 1054Q118 1213 199 1313T424 1414ZM424 720Q521 720 586 799T652 1054Q652 1183 587 1258T426 1334Q329
1334 264 1259T198 1054Q198 963 217 896T269 791T341 737T424 720Z" />
<glyph unicode="&#xbb;" glyph-name="guillemotright" horiz-adv-x="890" d="M788 470V394L464 82L428 112L686 432L428 752L464 782L788 470ZM468 470V394L144 82L108 112L366 432L108 752L144 782L468 470Z" />
<glyph unicode="&#xbc;" glyph-name="onequarter" horiz-adv-x="1298" d="M140 -2L1026 1398H1128L242 -2H140ZM998 2V190H682V240L1044 696H1082V270H1166V190H1082V2H998ZM230 706V1298L208 1286Q186 1274 145 1258T66 1234L62 1264Q113 1282 162 1315T229 1367T260
1400H314V706H230ZM998 580L748 270H998V580Z" />
<glyph unicode="&#xbd;" glyph-name="onehalf" horiz-adv-x="1378" d="M116 -2L1002 1398H1104L218 -2H116ZM786 520L760 538Q763 545 768 556T795 597T840 648T906 689T994 708Q1091 708 1145 651T1200 506Q1200 472 1192 441T1173 384T1137 329T1095 281T1040
232T980 185T910 134T838 80H1230V-2H740V52Q769 74 818 111T892 167T953 217T1009 267T1051 314T1085 366T1104 418T1112 478Q1112 552 1074 596T974 640Q901 640 851 598T786 520ZM226 706V1298L204 1286Q182 1274 141 1258T62 1234L58 1264Q109 1282 158 1315T225
1367T256 1400H310V706H226Z" />
<glyph unicode="&#xbe;" glyph-name="threequarters" horiz-adv-x="1452" d="M240 -2L1126 1398H1228L342 -2H240ZM1116 2V190H800V240L1162 696H1200V270H1284V190H1200V2H1116ZM150 1282Q153 1287 158 1294T182 1322T221 1357T273 1385T338 1398Q405 1398 441
1366T478 1274Q478 1223 442 1180T358 1108Q446 1103 506 1057T566 922Q566 813 497 755T310 696Q254 696 196 715T108 754L78 774L122 846Q131 838 147 827T213 796T312 776Q396 776 440 818T484 934Q484 996 445 1033T338 1070Q317 1070 297 1065T268 1054L258
1048L250 1078Q257 1082 283 1098T320 1122T351 1146T381 1177T398 1212T406 1256Q406 1298 382 1320T314 1342Q278 1342 243 1322T191 1282L174 1262L150 1282ZM1116 580L866 270H1116V580Z" />
<glyph unicode="&#xbf;" glyph-name="questiondown" horiz-adv-x="914" d="M838 -204Q832 -213 821 -228T771 -283T689 -351T575 -405T430 -430Q362 -430 297 -410T178 -350T90 -246T56 -100Q56 -39 77 11T133 97T208 162T290 221T365 279T420 350T442 440V662H572V500Q572
448 551 403T496 325T422 260T341 196T266 128T211 44T190 -62Q190 -181 268 -260T506 -340Q554 -340 602 -324T685 -284T746 -237T788 -196L802 -180L838 -204ZM596 922T596 884T570 820T506 794T442 820T416 884T442 948T506 974T570 948Z" />
<glyph unicode="&#xc0;" glyph-name="Agrave" horiz-adv-x="1212" d="M737 1504H683L443 1792H581L737 1504ZM668 1400L1218 0H1070L866 520H248L54 0H0L522 1400H668ZM298 640H820L554 1326L298 640Z" />
<glyph unicode="&#xc1;" glyph-name="Aacute" horiz-adv-x="1218" d="M468 1504L624 1792H762L522 1504H468ZM668 1400L1218 0H1070L866 520H248L54 0H0L522 1400H668ZM298 640H820L554 1326L298 640Z" />
<glyph unicode="&#xc2;" glyph-name="Acircumflex" horiz-adv-x="1212" d="M631 1758L831 1516H691L591 1700L491 1516H353L555 1758H631ZM666 1400L1216 0H1068L864 520H246L52 0H-2L520 1400H666ZM296 640H818L552 1326L296 640Z" />
<glyph unicode="&#xc3;" glyph-name="Atilde" horiz-adv-x="1212" d="M352 1626Q352 1626 308 1626L310 1642Q312 1657 322 1679T348 1723T398 1760T474 1776Q519 1776 565 1749T656 1695T740 1668Q770 1668 793 1679T828 1705T847 1738T856 1764T858 1776H902L900
1760Q898 1745 888 1723T862 1679T812 1642T736 1626Q698 1626 660 1643T596 1680T535 1717T470 1734T417 1723T382 1697T363 1664T354 1638T352 1626ZM666 1400L1216 0H1068L864 520H246L52 0H-2L520 1400H666ZM296 640H818L552 1326L296 640Z" />
<glyph unicode="&#xc4;" glyph-name="Adieresis" horiz-adv-x="1220" d="M363 1567T363 1597T384 1649T435 1669T486 1648T508 1598T487 1546T435 1525T384 1546ZM641 1565T641 1595T662 1647T713 1669T765 1647T787 1595T765 1544T713 1523T662 1544ZM668 1400L1218
0H1070L866 520H248L54 0H0L522 1400H668ZM298 640H820L554 1326L298 640Z" />
<glyph unicode="&#xc5;" glyph-name="Aring" horiz-adv-x="1212" d="M448 1602T448 1668T493 1780T604 1826T716 1780T762 1668T716 1557T604 1512T493 1557ZM490 1714T490 1668T523 1589T604 1556T685 1589T720 1668T686 1748T604 1782Q558 1782 524 1748ZM666
1400L1216 0H1068L864 520H246L52 0H-2L520 1400H666ZM296 640H818L552 1326L296 640Z" />
<glyph unicode="&#xc6;" glyph-name="AE" horiz-adv-x="1718" d="M1490 1400L1538 1148H1490Q1472 1203 1454 1237T1403 1298T1321 1338T1200 1350H714L784 762H1398V658H796L860 120H1552V0H728L666 520H260L50 0H-6L566 1400H1490ZM304 624H654L576 1298L304 624Z" />
<glyph unicode="&#xc7;" glyph-name="Ccedilla" horiz-adv-x="1358" d="M1150 354L1262 294L1253 276Q1244 258 1223 230T1173 168T1098 99T999 36T872 -10T718 -28Q680 -28 644 -23L635 -80L647 -86Q659 -92 676 -105T710 -135T739 -177T751 -228Q751 -259 736
-286T701 -330T657 -359T622 -375L607 -380L585 -348L604 -341Q623 -334 642 -310Q661 -287 661 -254Q661 -236 653 -219T634 -190T609 -169T590 -157T581 -152Q581 -150 604 -16Q569 -9 534 3Q444 34 364 97T224 248Q163 336 128 458T92 720Q92 884 146 1021T291
1247T492 1383T722 1432Q806 1432 883 1417T1006 1383T1093 1340T1145 1306T1162 1290L1192 1044H1134Q1121 1107 1089 1164T1007 1271Q963 1314 882 1350Q812 1381 718 1381Q622 1381 536 1341T376 1225T262 1028Q222 907 222 762Q222 476 366 289Q511 102 736
102Q793 102 847 116T941 152T1016 201T1075 255T1116 305T1142 341L1150 354Z" />
<glyph unicode="&#xc8;" glyph-name="Egrave" horiz-adv-x="1298" d="M768 1504H714L474 1792H612L768 1504ZM196 1400H1090L1138 1148H1090Q1072 1203 1054 1237T1003 1298T921 1338T800 1350H318V762H998V658H318V120H1152V0H196V1400Z" />
<glyph unicode="&#xc9;" glyph-name="Eacute" horiz-adv-x="1296" d="M504 1506L660 1794H798L558 1506H504ZM198 1400H1092L1140 1148H1092Q1074 1203 1056 1237T1005 1298T923 1338T802 1350H320V762H1000V658H320V120H1154V0H198V1400Z" />
<glyph unicode="&#xca;" glyph-name="Ecircumflex" horiz-adv-x="1290" d="M684 1754L884 1512H744L644 1696L544 1512H406L608 1754H684ZM196 1400H1090L1138 1148H1090Q1072 1203 1054 1237T1003 1298T921 1338T800 1350H318V762H998V658H318V120H1152V0H196V1400Z" />
<glyph unicode="&#xcb;" glyph-name="Edieresis" horiz-adv-x="1296" d="M446 1582T446 1612T467 1664T518 1684T569 1663T591 1613T570 1561T518 1540T467 1561ZM724 1580T724 1610T745 1662T796 1684T848 1662T870 1610T848 1559T796 1538T745 1559ZM198 1400H1092L1140
1148H1092Q1074 1203 1056 1237T1005 1298T923 1338T802 1350H320V762H1000V658H320V120H1154V0H198V1400Z" />
<glyph unicode="&#xcc;" glyph-name="Igrave" horiz-adv-x="610" d="M444 1574H390L150 1862H288L444 1574ZM230 1400H360V0H230V1400Z" />
<glyph unicode="&#xcd;" glyph-name="Iacute" horiz-adv-x="606" d="M164 1502L320 1790H458L218 1502H164ZM238 1400H368V0H238V1400Z" />
<glyph unicode="&#xce;" glyph-name="Icircumflex" horiz-adv-x="594" d="M336 1762L536 1520H396L296 1704L196 1520H58L260 1762H336ZM230 1400H360V0H230V1400Z" />
<glyph unicode="&#xcf;" glyph-name="Idieresis" horiz-adv-x="594" d="M94 1588T94 1618T115 1670T166 1690T217 1669T239 1619T218 1567T166 1546T115 1567ZM372 1586T372 1616T393 1668T444 1690T496 1668T518 1616T496 1565T444 1544T393 1565ZM230 1400H360V0H230V1400Z"
/>
<glyph unicode="&#xd0;" glyph-name="Eth" horiz-adv-x="1446" d="M2 658V762H216V1400H590Q965 1400 1138 1221T1312 700Q1312 363 1130 182T632 0H216V658H2ZM336 1348V762H682V658H336V208Q336 113 373 82T526 50H606Q751 50 858 96T1030 228T1126 432T1158
700Q1158 818 1140 913T1079 1091T967 1229T793 1316T552 1348H336Z" />
<glyph unicode="&#xd1;" glyph-name="Ntilde" horiz-adv-x="1548" d="M520 1626Q520 1626 476 1626L478 1642Q480 1657 490 1679T516 1723T566 1760T642 1776Q687 1776 733 1749T824 1695T908 1668Q938 1668 961 1679T996 1705T1015 1738T1024 1764T1026 1776H1070L1068
1760Q1066 1745 1056 1723T1030 1679T980 1642T904 1626Q866 1626 828 1643T764 1680T703 1717T638 1734T585 1723T550 1697T531 1664T522 1638T520 1626ZM110 1400H392L1208 238V1400H1332V0H1206L280 1318V-2L226 0V1222Q226 1234 226 1252T227 1278T226 1298T223
1315T215 1327T201 1337T180 1342T150 1347T110 1348V1400Z" />
<glyph unicode="&#xd2;" glyph-name="Ograve" horiz-adv-x="1500" d="M896 1574H842L602 1862H740L896 1574ZM748 1440Q875 1440 991 1392T1197 1255T1342 1029T1396 728Q1396 578 1361 452T1266 236T1124 85T949 -8T754 -38Q624 -38 509 10T302 150T158 392T104
730Q104 893 158 1029T302 1254T507 1391T748 1440ZM752 1310Q647 1310 553 1264T388 1134T276 928T234 658Q234 504 269 385T358 197T484 84T620 25T750 10Q798 10 843 16T941 42T1039 91T1127 171T1200 288T1248 448T1266 658Q1266 803 1224 927T1112 1134T948
1263T752 1310Z" />
<glyph unicode="&#xd3;" glyph-name="Oacute" horiz-adv-x="1500" d="M628 1502L784 1790H922L682 1502H628ZM748 1440Q875 1440 991 1392T1197 1255T1342 1029T1396 728Q1396 578 1361 452T1266 236T1124 85T949 -8T754 -38Q624 -38 509 10T302 150T158 392T104
730Q104 893 158 1029T302 1254T507 1391T748 1440ZM752 1310Q647 1310 553 1264T388 1134T276 928T234 658Q234 504 269 385T358 197T484 84T620 25T750 10Q798 10 843 16T941 42T1039 91T1127 171T1200 288T1248 448T1266 658Q1266 803 1224 927T1112 1134T948
1263T752 1310Z" />
<glyph unicode="&#xd4;" glyph-name="Ocircumflex" horiz-adv-x="1500" d="M789 1759L989 1517H849L749 1701L649 1517H511L713 1759H789ZM748 1440Q875 1440 991 1392T1197 1255T1342 1029T1396 728Q1396 578 1361 452T1266 236T1124 85T949 -8T754 -38Q624 -38
509 10T302 150T158 392T104 730Q104 893 158 1029T302 1254T507 1391T748 1440ZM752 1310Q647 1310 553 1264T388 1134T276 928T234 658Q234 504 269 385T358 197T484 84T620 25T750 10Q798 10 843 16T941 42T1039 91T1127 171T1200 288T1248 448T1266 658Q1266
803 1224 927T1112 1134T948 1263T752 1310Z" />
<glyph unicode="&#xd5;" glyph-name="Otilde" horiz-adv-x="1500" d="M503 1554Q503 1554 459 1554L461 1570Q463 1585 473 1607T499 1651T549 1688T625 1704Q670 1704 716 1677T807 1623T891 1596Q921 1596 944 1607T979 1633T998 1666T1007 1692T1009 1704H1053L1051
1688Q1049 1673 1039 1651T1013 1607T963 1570T887 1554Q849 1554 811 1571T747 1608T686 1645T621 1662T568 1651T533 1625T514 1592T505 1566T503 1554ZM748 1440Q875 1440 991 1392T1197 1255T1342 1029T1396 728Q1396 578 1361 452T1266 236T1124 85T949 -8T754
-38Q624 -38 509 10T302 150T158 392T104 730Q104 893 158 1029T302 1254T507 1391T748 1440ZM752 1310Q647 1310 553 1264T388 1134T276 928T234 658Q234 504 269 385T358 197T484 84T620 25T750 10Q798 10 843 16T941 42T1039 91T1127 171T1200 288T1248 448T1266
658Q1266 803 1224 927T1112 1134T948 1263T752 1310Z" />
<glyph unicode="&#xd6;" glyph-name="Odieresis" horiz-adv-x="1500" d="M533 1578T533 1608T554 1660T605 1680T656 1659T678 1609T657 1557T605 1536T554 1557ZM811 1576T811 1606T832 1658T883 1680T935 1658T957 1606T935 1555T883 1534T832 1555ZM748 1440Q875
1440 991 1392T1197 1255T1342 1029T1396 728Q1396 578 1361 452T1266 236T1124 85T949 -8T754 -38Q624 -38 509 10T302 150T158 392T104 730Q104 893 158 1029T302 1254T507 1391T748 1440ZM752 1310Q647 1310 553 1264T388 1134T276 928T234 658Q234 504 269
385T358 197T484 84T620 25T750 10Q798 10 843 16T941 42T1039 91T1127 171T1200 288T1248 448T1266 658Q1266 803 1224 927T1112 1134T948 1263T752 1310Z" />
<glyph unicode="&#xd7;" glyph-name="multiply" horiz-adv-x="900" d="M752 676L506 430L752 184L686 118L440 364L192 115L126 182L372 430L124 677L192 744L440 496L686 742L752 676Z" />
<glyph unicode="&#xd8;" glyph-name="Oslash" horiz-adv-x="1500" d="M1096 1502H1242L1147 1299Q1173 1278 1198 1254Q1287 1169 1342 1029Q1396 892 1396 728Q1396 578 1361 452T1266 236T1124 85T949 -8T754 -38Q641 -38 538 -2L468 -152H322L419 56Q354 96
302 150Q210 245 158 392Q104 543 104 730Q104 893 158 1029T302 1254T507 1391T748 1440Q885 1440 991 1392Q1013 1382 1035 1371L1096 1502ZM752 1310Q647 1310 553 1264T388 1134T276 928T234 658Q234 501 268 385Q300 274 358 196Q394 147 445 111L977 1248Q963
1256 948 1264Q855 1310 752 1310ZM1084 1164L560 45Q591 32 620 25Q684 10 750 10Q798 10 843 16T941 42T1039 91T1127 171T1200 288T1248 448T1266 658Q1266 804 1224 927T1112 1134Q1098 1150 1084 1164Z" />
<glyph unicode="&#xd9;" glyph-name="Ugrave" horiz-adv-x="1508" d="M891 1502H837L597 1790H735L891 1502ZM358 1400L356 724Q356 616 358 555Q366 314 430 204Q519 50 756 50Q882 50 963 92Q1092 158 1129 349Q1152 462 1152 724V1400H1290V708Q1290 567 1275
461T1224 266T1127 121T974 33T756 2Q630 2 537 33T383 120T285 266T233 461T218 708V1400H358Z" />
<glyph unicode="&#xda;" glyph-name="Uacute" horiz-adv-x="1508" d="M646 1502L802 1790H940L700 1502H646ZM358 1400L356 724Q356 616 358 555Q366 314 430 204Q519 50 756 50Q882 50 963 92Q1092 158 1129 349Q1152 462 1152 724V1400H1290V708Q1290 567 1275
461T1224 266T1127 121T974 33T756 2Q630 2 537 33T383 120T285 266T233 461T218 708V1400H358Z" />
<glyph unicode="&#xdb;" glyph-name="Ucircumflex" horiz-adv-x="1508" d="M820 1774L1020 1532H880L780 1716L680 1532H542L744 1774H820ZM358 1400L356 724Q356 616 358 555Q366 314 430 204Q519 50 756 50Q882 50 963 92Q1092 158 1129 349Q1152 462 1152 724V1400H1290V708Q1290
567 1275 461T1224 266T1127 121T974 33T756 2Q630 2 537 33T383 120T285 266T233 461T218 708V1400H358Z" />
<glyph unicode="&#xdc;" glyph-name="Udieresis" horiz-adv-x="1508" d="M557 1586T557 1616T578 1668T629 1688T680 1667T702 1617T681 1565T629 1544T578 1565ZM835 1584T835 1614T856 1666T907 1688T959 1666T981 1614T959 1563T907 1542T856 1563ZM358 1400L356
724Q356 616 358 555Q366 314 430 204Q519 50 756 50Q882 50 963 92Q1092 158 1129 349Q1152 462 1152 724V1400H1290V708Q1290 567 1275 461T1224 266T1127 121T974 33T756 2Q630 2 537 33T383 120T285 266T233 461T218 708V1400H358Z" />
<glyph unicode="&#xdd;" glyph-name="Yacute" horiz-adv-x="1054" d="M400 1502L556 1790H694L454 1502H400ZM134 1400L550 770Q807 1113 858 1192Q901 1258 901 1297Q901 1352 814 1352V1400H1050V1366L570 706V0H434V700L-16 1400H134Z" />
<glyph unicode="&#xde;" glyph-name="Thorn" horiz-adv-x="1046" d="M128 1400H258V1054H432Q562 1054 657 1027T806 950T885 839T910 702Q910 509 783 418T426 326H258V0H128V1400ZM398 942Q398 942 258 942V380H396Q583 380 683 454T784 662Q784 942 398 942Z" />
<glyph unicode="&#xdf;" glyph-name="germandbls" horiz-adv-x="1046" d="M450 48V152Q463 144 485 133T571 102T692 82Q788 82 836 128T884 230Q884 269 861 301T802 356T721 401T632 448T551 502T491 576T468 674Q468 724 481 761T516 820T564 862T616 902T663
948T698 1017T712 1118Q712 1209 665 1273T520 1348Q495 1350 470 1347T415 1330T362 1293T324 1227T308 1128V0H88V42Q131 42 156 48T191 71T204 100T206 140V812H84V862H206V1082Q206 1159 243 1229T357 1349T536 1398Q659 1398 739 1329T820 1154Q820 1095 806
1049T770 975T720 923T665 880T615 838T578 783T564 706Q564 659 587 621T646 556T727 507T816 458T897 405T957 334T980 238Q980 123 902 57T704 -10Q630 -10 567 4T476 34L450 48Z" />
<glyph unicode="&#xe0;" glyph-name="agrave" horiz-adv-x="840" d="M541 1052H487L247 1340H385L541 1052ZM666 872Q743 872 799 857T886 819T936 759T960 687T966 604V0H876L866 160Q817 81 729 39T570 -4Q473 -4 402 52T330 224Q330 287 354 336T422 415T516
465T632 494T750 507T866 510Q866 518 864 600Q863 644 856 673T829 728T769 767T666 780Q550 780 434 732L416 818L445 832Q474 845 536 858T666 872ZM866 296Q866 296 866 466Q440 466 440 236Q440 158 487 110T614 62Q711 62 788 136T866 296Z" />
<glyph unicode="&#xe1;" glyph-name="aacute" horiz-adv-x="840" d="M412 872Q489 872 545 857T632 819T682 759T706 687T712 604V0H622L612 160Q563 81 475 39T316 -4Q219 -4 148 52T76 224Q76 287 100 336T168 415T262 465T378 494T496 507T612 510Q612 518
610 600Q609 644 602 673T575 728T515 767T412 780Q296 780 180 732L162 818L191 832Q220 845 282 858T412 872ZM612 296Q612 296 612 466Q186 466 186 236Q186 158 233 110T360 62Q457 62 534 136T612 296ZM352 1050L508 1338H646L406 1050H352Z" />
<glyph unicode="&#xe2;" glyph-name="acircumflex" horiz-adv-x="840" d="M456 1294L656 1052H516L416 1236L316 1052H178L380 1294H456ZM666 872Q743 872 799 857T886 819T936 759T960 687T966 604V0H876L866 160Q817 81 729 39T570 -4Q473 -4 402 52T330 224Q330
287 354 336T422 415T516 465T632 494T750 507T866 510Q866 518 864 600Q863 644 856 673T829 728T769 767T666 780Q550 780 434 732L416 818L445 832Q474 845 536 858T666 872ZM866 296Q866 296 866 466Q440 466 440 236Q440 158 487 110T614 62Q711 62 788 136T866
296Z" />
<glyph unicode="&#xe3;" glyph-name="atilde" horiz-adv-x="860" d="M425 1104Q425 1104 381 1104L383 1120Q385 1135 395 1157T421 1201T471 1238T547 1254Q592 1254 638 1227T729 1173T813 1146Q843 1146 866 1157T901 1183T920 1216T929 1242T931 1254H975L973
1238Q971 1223 961 1201T935 1157T885 1120T809 1104Q771 1104 733 1121T669 1158T608 1195T543 1212T490 1201T455 1175T436 1142T427 1116T425 1104ZM414 872Q491 872 547 857T634 819T684 759T708 687T714 604V0H624L614 160Q565 81 477 39T318 -4Q221 -4 150
52T78 224Q78 287 102 336T170 415T264 465T380 494T498 507T614 510Q614 518 612 600Q611 644 604 673T577 728T517 767T414 780Q298 780 182 732L164 818L193 832Q222 845 284 858T414 872ZM614 296Q614 296 614 466Q188 466 188 236Q188 158 235 110T362 62Q459
62 536 136T614 296Z" />
<glyph unicode="&#xe4;" glyph-name="adieresis" horiz-adv-x="840" d="M218 1122T218 1152T239 1204T290 1224T341 1203T363 1153T342 1101T290 1080T239 1101ZM496 1120T496 1150T517 1202T568 1224T620 1202T642 1150T620 1099T568 1078T517 1099ZM666 872Q743
872 799 857T886 819T936 759T960 687T966 604V0H876L866 160Q817 81 729 39T570 -4Q473 -4 402 52T330 224Q330 287 354 336T422 415T516 465T632 494T750 507T866 510Q866 518 864 600Q863 644 856 673T829 728T769 767T666 780Q550 780 434 732L416 818L445
832Q474 845 536 858T666 872ZM866 296Q866 296 866 466Q440 466 440 236Q440 158 487 110T614 62Q711 62 788 136T866 296Z" />
<glyph unicode="&#xe5;" glyph-name="aring" horiz-adv-x="840" d="M278 1080T278 1146T323 1258T434 1304T546 1258T592 1146T546 1035T434 990T323 1035ZM320 1192T320 1146T353 1067T434 1034T515 1067T550 1146T516 1226T434 1260Q388 1260 354 1226ZM414
872Q491 872 547 857T634 819T684 759T708 687T714 604V0H624L614 160Q565 81 477 39T318 -4Q221 -4 150 52T78 224Q78 287 102 336T170 415T264 465T380 494T498 507T614 510Q614 518 612 600Q611 644 604 673T577 728T517 767T414 780Q298 780 182 732L164 818L193
832Q222 845 284 858T414 872ZM614 296Q614 296 614 466Q188 466 188 236Q188 158 235 110T362 62Q459 62 536 136T614 296Z" />
<glyph unicode="&#xe6;" glyph-name="ae" horiz-adv-x="1400" d="M972 862Q1050 862 1111 840T1208 784T1267 706T1300 623T1313 544T1316 489T1314 466H724Q724 457 724 447Q724 281 794 191T1002 100Q1042 100 1082 115T1150 148T1202 191T1234 224T1246 240L1316
178L1303 160Q1290 141 1262 115T1196 63T1101 19T982 0Q869 0 784 61T654 228Q624 164 578 116T484 44T394 8T318 -4Q273 -4 232 8T156 46T99 115T78 216T97 318T147 394T224 446T315 481T417 499T518 508T614 510Q614 518 612 600Q611 644 604 673T577 728T517
767T414 780Q298 780 182 732L164 812L193 827Q222 842 284 857T414 872Q547 872 613 833T700 722Q802 862 972 862ZM614 316V466Q188 466 188 236Q188 158 235 110T362 62Q462 62 538 137T614 316ZM728 510H1208Q1208 523 1207 539T1201 588T1187 649T1161 711T1119
767T1057 806T972 822Q920 822 878 803T811 750T769 683T743 609T732 548T728 510Z" />
<glyph unicode="&#xe7;" glyph-name="ccedilla" horiz-adv-x="872" d="M473 873Q508 873 551 866T644 839Q669 829 701 810Q726 795 732 790Q739 784 742 780V576H700Q685 684 622 756T452 828Q343 828 268 730T192 460Q192 300 270 195Q347 90 478 90Q519 90
560 105T627 138T678 181T710 214T722 230L792 166L779 148Q766 130 738 104Q706 75 672 52Q632 25 577 8Q520 -10 458 -10Q442 -10 427 -9L420 -54L432 -60Q444 -66 461 -79T495 -109T524 -151T536 -202Q536 -233 521 -260T486 -304T442 -333T408 -349L392 -354L370
-322L389 -315Q408 -308 427 -285T446 -228Q446 -210 438 -193T419 -164T394 -143Q378 -132 374 -130Q369 -128 366 -126Q366 -124 387 -3Q271 19 192 117Q90 244 90 436Q90 540 122 618Q160 711 204 755Q244 797 305 832Q376 873 473 873Z" />
<glyph unicode="&#xe8;" glyph-name="egrave" horiz-adv-x="872" d="M562 1052H508L268 1340H406L562 1052ZM450 862Q509 862 558 849T641 816T701 767T743 710T770 648T785 591T791 542T793 509T792 496H202Q201 475 201 455Q201 293 267 202Q341 100 480 100Q520
100 560 115T628 148T680 191T712 224T724 240L794 178L781 160Q768 141 740 115T674 63T579 19T460 0Q297 0 195 124T92 432Q92 622 193 742T450 862ZM206 536H686Q686 554 683 581T665 652T627 733T557 795T450 822Q390 822 344 795T273 733T232 652T212 581T206
536Z" />
<glyph unicode="&#xe9;" glyph-name="eacute" horiz-adv-x="880" d="M352 1050L508 1338H646L406 1050H352ZM450 862Q509 862 558 849T641 816T701 767T743 710T770 648T785 591T791 542T793 509T792 496H202Q201 475 201 455Q201 293 267 202Q341 100 480 100Q520
100 560 115T628 148T680 191T712 224T724 240L794 178L781 160Q768 141 740 115T674 63T579 19T460 0Q297 0 195 124T92 432Q92 622 193 742T450 862ZM206 536H686Q686 554 683 581T665 652T627 733T557 795T450 822Q390 822 344 795T273 733T232 652T212 581T206
536Z" />
<glyph unicode="&#xea;" glyph-name="ecircumflex" horiz-adv-x="872" d="M489 1294L689 1052H549L449 1236L349 1052H211L413 1294H489ZM702 862Q761 862 810 849T893 816T953 767T995 710T1022 648T1037 591T1043 542T1045 509T1044 496H454Q453 475 453 455Q453
293 519 202Q593 100 732 100Q772 100 812 115T880 148T932 191T964 224T976 240L1046 178L1033 160Q1020 141 992 115T926 63T831 19T712 0Q549 0 447 124T344 432Q344 622 445 742T702 862ZM458 536H938Q938 554 935 581T917 652T879 733T809 795T702 822Q642
822 596 795T525 733T484 652T464 581T458 536Z" />
<glyph unicode="&#xeb;" glyph-name="edieresis" horiz-adv-x="874" d="M237 1122T237 1152T258 1204T309 1224T360 1203T382 1153T361 1101T309 1080T258 1101ZM515 1120T515 1150T536 1202T587 1224T639 1202T661 1150T639 1099T587 1078T536 1099ZM704 862Q763
862 812 849T895 816T955 767T997 710T1024 648T1039 591T1045 542T1047 509T1046 496H456Q455 475 455 455Q455 293 521 202Q595 100 734 100Q774 100 814 115T882 148T934 191T966 224T978 240L1048 178L1035 160Q1022 141 994 115T928 63T833 19T714 0Q551 0
449 124T346 432Q346 622 447 742T704 862ZM460 536H940Q940 554 937 581T919 652T881 733T811 795T704 822Q644 822 598 795T527 733T486 652T466 581T460 536Z" />
<glyph unicode="&#xec;" glyph-name="igrave" horiz-adv-x="452" d="M373 1052H319L79 1340H217L373 1052ZM206 0V722Q206 749 204 762T192 791T156 813T88 820V862H308V0H206Z" />
<glyph unicode="&#xed;" glyph-name="iacute" horiz-adv-x="446" d="M84 1050L240 1338H378L138 1050H84ZM206 0V722Q206 749 204 762T192 791T156 813T88 820V862H308V0H206Z" />
<glyph unicode="&#xee;" glyph-name="icircumflex" horiz-adv-x="452" d="M265 1294L465 1052H325L225 1236L125 1052H-13L189 1294H265ZM206 0V722Q206 749 204 762T192 791T156 813T88 820V862H308V0H206Z" />
<glyph unicode="&#xef;" glyph-name="idieresis" horiz-adv-x="456" d="M14 1122T14 1152T35 1204T86 1224T137 1203T159 1153T138 1101T86 1080T35 1101ZM292 1120T292 1150T313 1202T364 1224T416 1202T438 1150T416 1099T364 1078T313 1099ZM206 0V722Q206
749 204 762T192 791T156 813T88 820V862H308V0H206Z" />
<glyph unicode="&#xf0;" glyph-name="eth" horiz-adv-x="966" d="M252 1104L484 1208Q441 1254 396 1293T328 1348L304 1364L334 1410Q435 1350 551 1237L784 1342L816 1270L609 1177Q892 868 892 510Q892 374 857 268T762 99T630 4T480 -28Q303 -28 198 89T92
418Q92 499 115 567T176 681T263 760T363 807T466 822Q522 822 573 806T654 771T712 725T746 688T760 668Q715 930 538 1146L284 1032L252 1104ZM754 420Q754 457 748 494T721 573T671 648T586 701T462 722Q350 722 278 640T206 418Q206 267 276 173T464 78Q530
78 581 100T664 157T717 238T746 329T754 420Z" />
<glyph unicode="&#xf1;" glyph-name="ntilde" horiz-adv-x="1026" d="M273 1104Q273 1104 229 1104L231 1120Q233 1135 243 1157T269 1201T319 1238T395 1254Q440 1254 486 1227T577 1173T661 1146Q691 1146 714 1157T749 1183T768 1216T777 1242T779 1254H823L821
1238Q819 1223 809 1201T783 1157T733 1120T657 1104Q619 1104 581 1121T517 1158T456 1195T391 1212T338 1201T303 1175T284 1142T275 1116T273 1104ZM80 862H298V680Q402 766 511 819T694 872Q800 872 843 818T886 632V0H784V606Q784 703 757 743T648 784Q570
784 467 734T298 620V0H198V726Q198 753 196 766T184 795T148 817T80 824V862Z" />
<glyph unicode="&#xf2;" glyph-name="ograve" horiz-adv-x="920" d="M584 1052H530L290 1340H428L584 1052ZM460 892Q638 892 739 767T840 446Q840 351 817 270T748 125T630 25T462 -12Q367 -12 293 24T174 124T106 269T82 446Q82 642 182 767T460 892ZM462 36Q517
36 564 57T653 123T718 250T742 444Q742 603 662 694T464 786Q346 786 265 695T184 444Q184 354 200 283T242 167T305 91T380 49T462 36Z" />
<glyph unicode="&#xf3;" glyph-name="oacute" horiz-adv-x="920" d="M352 1050L508 1338H646L406 1050H352ZM460 892Q638 892 739 767T840 446Q840 351 817 270T748 125T630 25T462 -12Q367 -12 293 24T174 124T106 269T82 446Q82 642 182 767T460 892ZM462 36Q517
36 564 57T653 123T718 250T742 444Q742 603 662 694T464 786Q346 786 265 695T184 444Q184 354 200 283T242 167T305 91T380 49T462 36Z" />
<glyph unicode="&#xf4;" glyph-name="ocircumflex" horiz-adv-x="920" d="M500 1294L700 1052H560L460 1236L360 1052H222L424 1294H500ZM460 892Q638 892 739 767T840 446Q840 351 817 270T748 125T630 25T462 -12Q367 -12 293 24T174 124T106 269T82 446Q82
642 182 767T460 892ZM462 36Q517 36 564 57T653 123T718 250T742 444Q742 603 662 694T464 786Q346 786 265 695T184 444Q184 354 200 283T242 167T305 91T380 49T462 36Z" />
<glyph unicode="&#xf5;" glyph-name="otilde" horiz-adv-x="920" d="M212 1104Q212 1104 168 1104L170 1120Q172 1135 182 1157T208 1201T258 1238T334 1254Q379 1254 425 1227T516 1173T600 1146Q630 1146 653 1157T688 1183T707 1216T716 1242T718 1254H762L760
1238Q758 1223 748 1201T722 1157T672 1120T596 1104Q558 1104 520 1121T456 1158T395 1195T330 1212T277 1201T242 1175T223 1142T214 1116T212 1104ZM460 892Q638 892 739 767T840 446Q840 351 817 270T748 125T630 25T462 -12Q367 -12 293 24T174 124T106 269T82
446Q82 642 182 767T460 892ZM462 36Q517 36 564 57T653 123T718 250T742 444Q742 603 662 694T464 786Q346 786 265 695T184 444Q184 354 200 283T242 167T305 91T380 49T462 36Z" />
<glyph unicode="&#xf6;" glyph-name="odieresis" horiz-adv-x="920" d="M254 1122T254 1152T275 1204T326 1224T377 1203T399 1153T378 1101T326 1080T275 1101ZM532 1120T532 1150T553 1202T604 1224T656 1202T678 1150T656 1099T604 1078T553 1099ZM460 892Q638
892 739 767T840 446Q840 351 817 270T748 125T630 25T462 -12Q367 -12 293 24T174 124T106 269T82 446Q82 642 182 767T460 892ZM462 36Q517 36 564 57T653 123T718 250T742 444Q742 603 662 694T464 786Q346 786 265 695T184 444Q184 354 200 283T242 167T305
91T380 49T462 36Z" />
<glyph unicode="&#xf7;" glyph-name="divide" horiz-adv-x="892" d="M844 382H52V476H844V382ZM350 698T350 736T376 800T440 826T504 800T530 736T504 672T440 646T376 672ZM350 86T350 124T376 188T440 214T504 188T530 124T504 60T440 34T376 60Z" />
<glyph unicode="&#xf8;" glyph-name="oslash" horiz-adv-x="920" d="M692 1024H792L693 814Q718 793 739 767Q840 642 840 446Q840 351 817 270T748 125T630 25T462 -12Q383 -12 318 14L240 -152H140L239 58Q201 86 174 124Q129 189 106 269T82 446Q82 642 182
767T460 892Q547 892 616 862L692 1024ZM462 36Q517 36 564 57T653 123T718 250T742 444Q742 604 662 694Q654 703 645 712L342 66Q361 55 380 48Q418 36 462 36ZM271 126L570 764Q521 786 464 786Q346 786 265 695T184 444Q184 354 200 283Q215 216 242 166Q255
144 271 126Z" />
<glyph unicode="&#xf9;" glyph-name="ugrave" horiz-adv-x="1000" d="M641 1052H587L347 1340H485L641 1052ZM1108 862V136Q1108 109 1110 96T1122 67T1158 45T1226 38V0H1008V182Q889 84 802 37T616 -10Q420 -10 420 232V862H522V280Q522 159 555 119T664 78Q750
78 848 129T1008 242V862H1108Z" />
<glyph unicode="&#xfa;" glyph-name="uacute" horiz-adv-x="1008" d="M377 1050L533 1338H671L431 1050H377ZM856 862V136Q856 109 858 96T870 67T906 45T974 38V0H756V182Q637 84 550 37T364 -10Q168 -10 168 232V862H270V280Q270 159 303 119T412 78Q498 78
596 129T756 242V862H856Z" />
<glyph unicode="&#xfb;" glyph-name="ucircumflex" horiz-adv-x="1000" d="M543 1294L743 1052H603L503 1236L403 1052H265L467 1294H543ZM1106 862V136Q1106 109 1108 96T1120 67T1156 45T1224 38V0H1006V182Q887 84 800 37T614 -10Q418 -10 418 232V862H520V280Q520
159 553 119T662 78Q748 78 846 129T1006 242V862H1106Z" />
<glyph unicode="&#xfc;" glyph-name="udieresis" horiz-adv-x="1008" d="M294 1122T294 1152T315 1204T366 1224T417 1203T439 1153T418 1101T366 1080T315 1101ZM572 1120T572 1150T593 1202T644 1224T696 1202T718 1150T696 1099T644 1078T593 1099ZM854 862V136Q854
109 856 96T868 67T904 45T972 38V0H754V182Q635 84 548 37T362 -10Q166 -10 166 232V862H268V280Q268 159 301 119T410 78Q496 78 594 129T754 242V862H854Z" />
<glyph unicode="&#xfd;" glyph-name="yacute" horiz-adv-x="816" d="M581 1050L737 1338H875L635 1050H581ZM130 -266Q161 -266 185 -264T230 -255T265 -241T295 -218T320 -190T343 -150T367 -104T394 -45T426 22L48 862H160L482 154L684 644Q706 698 712 732Q717
767 707 784T680 807T638 814V863L816 864V834Q759 695 689 521Q486 17 433 -97Q349 -280 281 -336Q226 -382 130 -382V-266Z" />
<glyph unicode="&#xfe;" glyph-name="thorn" horiz-adv-x="1038" d="M300 1398V674Q304 682 315 699T354 749T414 808T493 855T588 876Q736 876 816 762T896 448Q896 227 800 103T550 -22Q482 -22 414 10T300 98V-402H204V1260Q204 1287 202 1300T190 1329T154
1351T86 1358V1398H300ZM570 800Q520 800 469 772T381 704T323 622T300 550V238L308 222Q317 205 336 182T383 136T452 97T542 80Q609 80 659 111T738 194T780 306T794 432Q794 624 730 712T570 800Z" />
<glyph unicode="&#xff;" glyph-name="ydieresis" horiz-adv-x="832" d="M471 1122T471 1152T492 1204T543 1224T594 1203T616 1153T595 1101T543 1080T492 1101ZM749 1120T749 1150T770 1202T821 1224T873 1202T895 1150T873 1099T821 1078T770 1099ZM118 -266Q149
-266 173 -264T218 -255T253 -241T283 -218T308 -190T331 -150T355 -104T382 -45T414 22L36 862H148L470 154L672 644Q694 698 700 732Q705 767 695 784T668 807T626 814V863L804 864V834Q747 695 677 521Q474 17 421 -97Q337 -280 269 -336Q214 -382 118 -382V-266Z"
/>
<glyph unicode="&#x2013;" glyph-name="endash" horiz-adv-x="846" d="M80 420V520H768V420H80Z" />
<glyph unicode="&#x2014;" glyph-name="emdash" horiz-adv-x="1522" d="M80 420V520H1450V420H80Z" />
<glyph unicode="&#x2018;" glyph-name="quoteleft" horiz-adv-x="410" d="M288 1094Q288 1057 261 1031Q233 1004 199 1004T133 1036Q105 1064 105 1142Q106 1186 120 1225Q135 1267 153 1295T196 1351T230 1387T246 1400L268 1364L243 1338Q223 1317 202 1268Q188
1235 188 1206Q188 1195 190 1184Q226 1184 253 1166Q288 1143 288 1094Z" />
<glyph unicode="&#x2019;" glyph-name="quoteright" horiz-adv-x="370" d="M118 1310Q118 1353 147 1376T210 1400H211Q244 1400 272 1368T301 1262Q301 1221 286 1179T253 1109T210 1053T176 1017T160 1004L137 1039L163 1066Q185 1090 205 1136Q219 1168 219
1198Q219 1209 217 1220Q175 1221 154 1238Q118 1266 118 1310Z" />
<glyph unicode="&#x201a;" glyph-name="quotesinglbase" horiz-adv-x="396" d="M78 90Q78 91 78 93Q79 131 105 155T166 180T231 148T261 42Q261 1 246 -41T213 -111T170 -167T136 -203T120 -216L97 -182L123 -154Q146 -129 165 -84Q179 -51 179 -21Q179 -10 177
0Q135 0 112 18Q78 45 78 90Z" />
<glyph unicode="&#x201c;" glyph-name="quotedblleft" horiz-adv-x="680" d="M568 1094Q568 1050 541 1027T478 1004Q445 1004 415 1036T384 1142Q384 1183 399 1225T433 1295T476 1351T510 1387T526 1400L548 1364L523 1338Q501 1315 482 1268Q468 1233 468 1203Q467
1194 469 1184Q506 1184 535 1166Q568 1145 568 1094ZM302 1094Q302 1054 274 1026Q252 1004 210 1004Q178 1004 149 1036T119 1142Q119 1183 134 1225T167 1295T210 1351T244 1387T260 1400L282 1364L257 1338Q232 1312 216 1272Q202 1237 202 1203Q202 1194 203
1184Q247 1184 272 1163Q302 1138 302 1094Z" />
<glyph unicode="&#x201d;" glyph-name="quotedblright" horiz-adv-x="676" d="M118 1310Q118 1352 146 1376T208 1400T271 1368T301 1262Q301 1221 286 1179T253 1109T210 1053T176 1017T160 1004L138 1040L163 1066Q184 1089 206 1136Q221 1168 221 1199Q221
1210 219 1220Q181 1220 158 1235Q118 1260 118 1310ZM384 1310Q384 1351 412 1376Q440 1400 474 1400Q507 1400 537 1368T567 1262Q567 1221 552 1179T519 1109T476 1053T442 1017T426 1004L404 1041L429 1066Q452 1090 472 1136Q487 1170 487 1201Q487 1210 486
1220Q448 1220 419 1239Q384 1261 384 1310Z" />
<glyph unicode="&#x201e;" glyph-name="quotedblbase" horiz-adv-x="676" d="M118 90Q118 133 148 158Q176 181 208 180Q242 179 271 148Q301 116 301 42Q301 1 286 -41T253 -111T210 -167T176 -203T160 -216L137 -179L163 -154Q190 -128 208 -84Q220 -55 220
-27Q219 -12 217 0Q180 0 149 21Q118 43 118 90ZM384 90Q384 133 414 158Q441 180 474 180T537 148T567 42Q567 1 552 -41T519 -111T476 -167T442 -203T426 -216L402 -180L429 -154Q457 -126 474 -84Q485 -57 485 -30Q485 -15 482 0Q446 0 420 18Q384 42 384 90Z"
/>
<glyph unicode="&#x2022;" glyph-name="bullet" horiz-adv-x="572" d="M68 409T68 496T128 644T276 706T424 645T486 496T425 349T276 288T129 348Z" />
<glyph unicode="&#x2039;" glyph-name="guilsinglleft" horiz-adv-x="576" d="M100 470L424 782L460 752L202 432L460 112L424 82L100 394V470Z" />
<glyph unicode="&#x203a;" glyph-name="guilsinglright" horiz-adv-x="532" d="M464 470V394L140 82L104 112L362 432L104 752L140 782L464 470Z" />
</font>
</defs>
</svg>
