<?xml version="1.0" standalone="no"?>
<!DOCTYPE svg PUBLIC "-//W3C//DTD SVG 1.1//EN" "http://www.w3.org/Graphics/SVG/1.1/DTD/svg11.dtd">
<svg xmlns="http://www.w3.org/2000/svg">
<defs >
<font id="LibreFranklin" horiz-adv-x="567" ><font-face
    font-family="Libre Franklin Light"
    units-per-em="1000"
    panose-1="0 0 4 0 0 0 0 0 0 0"
    ascent="966"
    descent="-246"
    alphabetic="0" />
<glyph unicode=" " glyph-name="space" horiz-adv-x="217" />
<glyph unicode="!" glyph-name="exclam" horiz-adv-x="239" d="M131 177Q130 171 128 169T118 167H95Q89 167 86 170T84 179L145 734Q146 742 152 742H218Q221 742 223 739T226 732L131 177ZM127 12Q125 4 123 2T111 0H53Q46 0 43 4T41 14L52 89Q53 95 54 96T60
98H129Q138 98 138 86L127 12Z" />
<glyph unicode="&quot;" glyph-name="quotedbl" horiz-adv-x="393" d="M300 538Q298 531 296 529T286 527H264Q253 527 253 539L258 735Q259 742 266 742H342Q347 742 349 739T350 732L300 538ZM400 538Q398 531 396 529T386 527H364Q353 527 353 539L358 735Q359
742 366 742H442Q447 742 449 739T450 732L400 538Z" />
<glyph unicode="#" glyph-name="numbersign" horiz-adv-x="603" d="M593 503T595 500T597 493L593 465Q592 459 590 457T579 455H475L427 293H526Q530 293 532 290T534 283L530 255Q529 249 527 247T517 245H413L343 9Q342 2 340 1T331 0L305 4Q295 7 295 15L363
245H206L137 9Q135 2 133 1T125 0L99 4Q88 7 89 15L156 245H48Q42 245 39 248T37 257L41 285Q42 290 43 291T49 293H170L218 455H110Q98 455 100 467L104 495Q105 500 106 501T112 503H232L300 735Q304 743 309 742L338 738Q343 737 345 733T347 723L282 503H439L507
735Q510 743 516 742L545 738Q550 737 552 733T554 723L489 503H589Q593 503 595 500ZM425 455H268L221 293H377L425 455Z" />
<glyph unicode="$" glyph-name="dollar" horiz-adv-x="592" d="M543 143T513 96T429 20T310 -9Q298 -9 296 -19L288 -80Q286 -86 285 -88T277 -90H246Q240 -90 238 -87T236 -80L245 -15Q245 -9 243 -9Q158 -9 106 20T22 110Q12 122 20 128L49 150Q52 152 57 152Q65
152 68 145Q99 98 139 75T242 50Q254 50 256 60L292 323V328Q292 341 277 348Q181 387 141 426T101 524Q101 544 103 555Q114 635 178 687T338 749Q343 750 347 753T354 760L360 812Q361 819 367 819H401Q407 819 409 815T411 805L404 754Q404 751 404 750T408
748Q466 741 508 718T583 655Q588 652 589 648T585 640L551 611Q547 609 546 609Q543 609 537 620Q517 646 483 664T407 689H405Q395 689 393 679L355 407V402Q355 399 357 398T363 394L395 382Q468 350 505 306T543 201Q543 143 513 96ZM342 684V686Q342 692 335
690Q269 684 224 646T170 551Q169 546 169 535Q169 502 194 475T282 418Q284 417 289 417Q304 417 307 434L342 684ZM306 51T307 51T311 51Q358 51 395 71T454 124T475 198Q475 237 449 265T363 319L357 320Q344 320 341 307L306 54Q306 51 307 51Z" />
<glyph unicode="%" glyph-name="percent" horiz-adv-x="909" d="M361 753T400 709T439 586Q439 572 435 538Q421 439 368 384T241 328Q174 328 135 372T95 497Q95 519 98 544Q112 642 166 697T295 753Q361 753 400 709ZM166 3Q162 -1 159 -2T148 -4H126Q116 -4
116 5Q116 10 119 14L709 745Q712 751 716 751T723 750H750Q755 750 758 747T757 738L166 3ZM294 369T333 417T383 543Q386 566 386 586Q386 644 362 678T294 712Q239 712 200 663T150 537Q147 516 147 496Q147 438 171 404T240 369Q294 369 333 417ZM765 415T804
370T843 246Q843 225 840 199Q826 101 773 46T646 -10Q579 -10 540 34T501 158Q501 181 504 206Q517 304 571 359T699 415Q765 415 804 370ZM698 31T737 80T788 205Q791 226 791 246Q791 304 767 339T699 374Q646 374 606 324T555 198Q552 179 552 160Q552 102
576 67T645 31Q698 31 737 80Z" />
<glyph unicode="&amp;" glyph-name="ampersand" horiz-adv-x="762" d="M466 753T511 718T557 623Q557 561 506 504T346 400Q334 397 334 391Q334 389 337 384L478 185Q481 180 483 180Q486 180 495 191Q539 225 592 289T662 390Q667 397 677 392L706 381Q711 379
713 375T714 364Q694 322 642 259T531 140Q525 137 524 134T526 124Q552 98 600 79T694 60Q711 60 709 46L705 15Q703 5 700 3T688 0Q633 0 570 26T471 85Q467 87 465 87Q459 87 453 79Q343 -5 221 -5Q129 -5 78 39T27 161Q27 170 29 192Q37 251 78 300T205 398Q212
401 216 404T221 411Q221 416 215 425Q165 484 165 548Q165 604 196 651T280 725T394 753Q466 753 511 718ZM348 702T312 680T256 623T236 547Q236 508 266 468L288 440Q289 438 294 438Q300 438 305 442Q396 481 439 520T490 608Q491 613 491 624Q491 662 464
682T394 702Q348 702 312 680ZM269 359T262 359Q255 359 246 353Q180 325 140 275T100 166Q100 114 136 82T233 50Q279 50 327 69T411 121Q429 132 421 143L273 352Q269 359 262 359Z" />
<glyph unicode="&apos;" glyph-name="quotesingle" horiz-adv-x="238" d="M181 538Q179 531 177 529T167 527H145Q134 527 134 539L139 735Q140 742 147 742H223Q228 742 230 739T231 732L181 538Z" />
<glyph unicode="(" glyph-name="parenleft" horiz-adv-x="278" d="M151 -165T148 -155Q109 -68 89 12T68 179Q68 227 76 288Q93 407 146 522T279 738Q286 742 295 742H318Q327 742 325 730Q257 626 209 511T144 281Q135 217 135 155Q135 10 188 -160Q193 -165
184 -165H158Q151 -165 148 -155Z" />
<glyph unicode=")" glyph-name="parenright" horiz-adv-x="278" d="M-37 -165T-39 -162T-39 -153Q29 -49 77 66T142 296Q151 361 151 422Q151 567 98 737Q95 739 95 740T101 742H127Q136 742 137 732Q176 645 196 565T217 398Q217 350 209 289Q192 170 139 55T6
-161Q-1 -165 -9 -165H-32Q-37 -165 -39 -162Z" />
<glyph unicode="*" glyph-name="asterisk" horiz-adv-x="359" d="M228 549Q226 551 225 549T223 546L131 427Q130 426 128 426Q127 426 121 430L94 450Q87 455 92 461L191 567Q192 568 193 569T191 573L82 605Q76 608 78 617L94 647Q96 652 102 649L204 607H206Q211
607 213 614L222 737Q224 742 230 742H270Q274 742 276 739T276 733L252 610Q252 605 256 608L373 655L376 656Q380 656 382 649L388 620Q388 618 388 615T385 610L268 573Q265 572 263 570T262 564L328 464Q330 460 330 458Q330 454 325 451L295 432Q291 429 287
430T284 435L228 549Z" />
<glyph unicode="+" glyph-name="plus" horiz-adv-x="551" d="M499 400T501 397T504 390L498 355Q498 349 496 348T485 346H314L290 169Q289 165 288 164T282 162H247Q234 162 236 178L259 345H88Q76 345 78 357L83 392Q84 400 90 400H267L291 574Q292 580 294
581T301 583H336Q341 583 344 580T345 574L321 400H495Q499 400 501 397Z" />
<glyph unicode="," glyph-name="comma" horiz-adv-x="202" d="M-12 -139T-12 -136Q-12 -133 -9 -128L52 -15Q54 -12 54 -7Q54 0 44 0H32Q26 0 25 2T24 8L35 88Q35 92 38 95T45 98H115Q122 98 121 88L111 20Q109 10 106 7L20 -129Q14 -139 4 -139H-7Q-12 -139 -12 -136Z" />
<glyph unicode="-" glyph-name="hyphen" horiz-adv-x="381" d="M313 247Q311 241 309 239T299 237H74Q61 237 63 248L68 285Q69 293 75 293L309 294Q313 294 316 291T318 284L313 247Z" />
<glyph unicode="." glyph-name="period" horiz-adv-x="198" d="M106 12Q105 5 102 3T90 0H33Q18 0 20 14L31 90Q32 96 34 97T40 99H108Q117 99 117 87L106 12Z" />
<glyph unicode="/" glyph-name="slash" horiz-adv-x="336" d="M-26 -50T-28 -48T-30 -41L331 736Q333 742 342 742H379Q393 742 386 727L31 -41Q28 -47 25 -48T16 -50H-22Q-26 -50 -28 -48Z" />
<glyph unicode="0" glyph-name="zero" horiz-adv-x="683" d="M510 752T571 678T633 464Q633 422 625 366Q608 244 562 160T450 33T305 -10Q202 -10 141 63T79 272Q79 310 86 371Q103 493 150 579T263 708T407 752Q510 752 571 678ZM401 51T463 129T549 372Q557
436 557 479Q557 587 517 639T405 692Q315 692 251 611T163 365Q154 308 154 262Q154 155 195 103T309 51Q401 51 463 129Z" />
<glyph unicode="1" glyph-name="one" horiz-adv-x="454" d="M383 62T381 53L374 8Q373 4 371 2T365 0H25Q16 0 17 9L23 56Q24 62 31 62H165Q172 62 173 69L255 652Q257 660 248 657L111 607L107 606Q100 606 101 615L106 650Q107 661 116 665L268 736Q276 740
282 741T296 742H333Q344 742 342 730L248 68Q247 62 253 62H372Q383 62 381 53Z" />
<glyph unicode="2" glyph-name="two" horiz-adv-x="588" d="M300 309Q393 389 440 450T488 575Q488 630 448 660T351 691Q302 691 249 666T158 591Q152 584 146 588L104 620Q102 621 102 624Q102 629 107 635Q156 692 224 722T360 752Q447 752 504 708T561 579Q561
522 536 474T470 382T357 276L125 77Q120 73 120 70Q120 65 127 65H487Q498 65 497 55L491 9Q490 0 481 0H31Q15 0 18 16L22 49Q24 61 28 68T47 87L300 309Z" />
<glyph unicode="3" glyph-name="three" horiz-adv-x="634" d="M127 652T133 658Q189 706 246 729T369 752Q437 752 487 731T563 673T590 587Q590 522 546 471T430 396Q425 394 425 391T431 387Q488 373 524 331T561 227Q561 160 525 107T419 22T256 -10Q169 -10
119 17T26 95Q21 102 25 106L66 136Q68 138 71 138T75 136Q136 51 263 51Q326 51 377 72T458 132T488 224Q488 288 436 323T308 359H217Q207 359 208 368L214 411Q214 418 223 418H295Q353 418 403 439T484 498T515 581Q515 630 475 661T368 692Q308 692 266 672T174
613Q169 609 165 609Q161 609 157 615L133 643Q127 652 133 658Z" />
<glyph unicode="4" glyph-name="four" horiz-adv-x="638" d="M461 739T464 740T476 742H532Q543 742 541 730L477 272Q476 265 482 265H580Q592 265 592 255L586 215Q584 209 582 207T574 205H475Q466 205 465 196L440 10Q439 4 437 2T426 0H373Q363 0 364 12L390
198V200Q390 205 384 205H51Q44 205 42 207T41 217L48 262Q49 269 52 275T63 290L457 735Q461 739 464 740ZM389 265Q394 265 395 267T398 274L449 634V636Q449 640 447 640Q443 640 436 630L124 277Q113 265 124 265H389Z" />
<glyph unicode="5" glyph-name="five" horiz-adv-x="649" d="M608 742Q615 742 617 740T617 730L608 685Q606 681 604 680T595 678H247Q239 678 236 667L183 425L182 421Q182 417 184 416T190 417Q282 467 373 467Q467 467 527 420T588 280Q588 195 547 129T433
27T272 -10Q124 -10 36 93Q32 99 32 102T36 108L72 134Q75 137 77 137Q82 137 86 131Q120 94 162 72T264 49Q336 49 392 78T480 158T512 274Q512 341 469 374T358 408Q306 408 265 392T165 343L157 341Q154 341 148 344L112 368Q106 374 106 379Q106 381 108 389L184
732Q185 739 188 740T202 742H608Z" />
<glyph unicode="6" glyph-name="six" horiz-adv-x="655" d="M495 752T541 725T609 658Q612 654 606 649L561 628Q560 627 558 627Q554 627 546 638Q527 664 500 677T433 691Q320 691 252 612T165 403Q164 396 164 388Q164 384 168 384Q171 384 176 387Q237 413
281 426T379 440Q481 440 537 390T593 256Q593 182 555 121T452 25T311 -10Q200 -10 139 63T78 269Q78 304 85 365Q102 485 149 572T269 705T434 752Q495 752 541 725ZM328 381T273 367T182 332Q161 319 155 301T148 247Q148 198 165 153T220 78T314 49Q368 49
415 76T490 149T518 248Q518 307 479 344T371 381Q328 381 273 367Z" />
<glyph unicode="7" glyph-name="seven" horiz-adv-x="594" d="M603 742Q615 742 613 731L608 700Q605 681 593 667Q515 572 437 446T299 203T218 14Q215 0 204 0H144Q134 0 134 10L136 19Q187 149 284 323T514 667Q517 672 517 674Q517 678 510 678H111Q106 678
104 680T103 689L114 734Q117 742 126 742H603Z" />
<glyph unicode="8" glyph-name="eight" horiz-adv-x="665" d="M496 752T553 705T611 574Q611 524 588 485T543 427T484 380Q479 375 479 372Q479 369 485 366Q532 343 563 310T594 209Q594 140 555 91T447 16T293 -10Q181 -10 117 35T53 167Q53 237 92 285T198
375Q205 380 205 383Q205 386 199 390Q160 416 142 442T123 516Q123 582 159 636T259 721T400 752Q496 752 553 705ZM340 693T294 670T222 609T196 526Q196 486 219 462T290 426L390 401Q393 400 401 400Q428 400 461 427T519 495T543 576Q543 630 504 661T396
693Q340 693 294 670ZM364 49T414 69T491 125T519 207Q519 293 423 318L285 355Q267 360 227 335T155 264T123 168Q123 113 169 81T298 49Q364 49 414 69Z" />
<glyph unicode="9" glyph-name="nine" horiz-adv-x="651" d="M184 -10T139 16T70 82Q66 90 72 93L115 112Q119 114 120 114Q125 114 131 105Q151 77 179 64T254 51Q363 51 430 130T515 339Q516 343 516 348Q516 355 513 356T503 355Q450 330 405 316T305 302Q204
302 149 353T93 488Q93 563 131 623T234 717T374 752Q483 752 543 680T603 474Q603 346 562 236T441 58T251 -10Q184 -10 139 16ZM357 361T410 376T501 416Q522 428 528 446T535 499Q535 547 518 591T464 664T372 693Q318 693 271 666T195 593T167 495Q167 436
206 399T312 361Q357 361 410 376Z" />
<glyph unicode=":" glyph-name="colon" horiz-adv-x="198" d="M163 418Q161 410 159 408T147 406H90Q75 406 77 420L88 495Q89 501 90 502T97 504H165Q170 504 172 501T174 492L163 418ZM107 15Q106 8 103 6T90 3H33Q19 3 21 17L31 92Q32 98 34 99T40 101H108Q119
101 117 89L107 15Z" />
<glyph unicode=";" glyph-name="semicolon" horiz-adv-x="221" d="M75 405T77 419L88 494Q89 500 90 502T96 504H165Q170 504 172 501T174 492L163 417Q161 409 159 407T146 405H89Q75 405 77 419ZM-9 -140T-11 -136T-11 -126L51 -12Q54 -6 54 -4Q54 0 46 0H35Q29
0 26 3T24 12L35 92Q36 98 43 98H113Q121 98 121 88L111 17L108 4L22 -133Q15 -140 5 -140H-4Q-9 -140 -11 -136Z" />
<glyph unicode="&lt;" glyph-name="less" horiz-adv-x="535" d="M455 180Q454 167 444 167Q439 167 436 169L76 319Q71 321 68 325T66 334L73 382Q73 388 75 390T84 394L486 546L494 548Q500 548 503 544T505 532L500 495Q499 489 495 486T481 478L154 356L443
234Q461 226 460 213L455 180Z" />
<glyph unicode="=" glyph-name="equal" horiz-adv-x="551" d="M513 455Q512 448 510 447T499 445L102 444Q90 444 92 456L97 491Q98 499 104 499L509 500Q513 500 515 497T517 490L513 455ZM481 231Q480 225 478 224T468 222L72 221Q59 221 61 233L65 268Q66 272
67 274T73 276H477Q481 276 484 273T486 266L481 231Z" />
<glyph unicode="&gt;" glyph-name="greater" horiz-adv-x="535" d="M62 224T66 227T81 235L407 356L117 479Q99 487 100 499L106 536Q108 548 116 548Q120 548 126 545L485 394Q496 389 495 378L488 331Q488 326 486 324T477 318L76 168Q74 167 69 167Q63 167
60 171T57 184L61 217Q62 224 66 227Z" />
<glyph unicode="?" glyph-name="question" horiz-adv-x="519" d="M80 616T83 626Q124 685 189 718T330 752Q422 752 475 710T528 595Q528 586 526 568Q518 511 487 470T396 375Q356 338 332 312T288 252T263 176Q261 169 254 169H214Q209 169 206 173T204 185Q211
232 231 270T277 337T343 404Q396 455 423 490T456 573Q457 580 457 593Q457 641 423 668T328 696Q274 696 219 667T142 596Q140 594 138 594T132 595L88 611Q80 616 83 626ZM253 12Q251 4 249 2T237 0H179Q172 0 169 4T167 14L178 89Q179 94 180 96T186 98H255Q264
98 264 86L253 12Z" />
<glyph unicode="@" glyph-name="at" horiz-adv-x="834" d="M507 -113T386 -113Q279 -113 202 -72T86 42T46 205Q46 238 50 265Q65 372 128 463T289 607T502 661Q585 661 656 632T770 541T814 390Q814 361 810 336Q800 262 767 204T686 114T585 81Q545 81 525 95T503
139Q503 143 501 143Q498 143 492 134Q430 67 343 67Q292 67 259 106T225 212Q225 235 227 247Q236 310 267 362T346 444T448 475Q489 475 516 457T556 405H557Q563 405 566 413L579 445Q580 448 581 448T586 449H624Q628 449 630 447T631 441L562 216Q552 186
552 167Q552 149 561 142T589 134Q625 134 659 159T717 230T751 337Q754 361 754 384Q754 460 718 511T624 585T500 609Q396 609 312 562T175 434T108 256Q104 220 104 204Q104 127 137 68T236 -26T400 -61Q459 -61 497 -47T585 -1Q588 1 594 1Q600 1 604 -5L618
-27Q620 -30 620 -35Q620 -40 612 -48Q507 -113 386 -113ZM287 225T287 209Q287 168 304 145T355 122Q407 122 454 166T519 272Q528 305 528 330Q528 374 506 397T449 420Q389 420 345 369T290 243Q287 225 287 209Z" />
<glyph unicode="A" glyph-name="A" horiz-adv-x="716" d="M11 0T11 7Q11 12 13 15L376 731Q380 738 383 740T395 742H455Q471 742 473 728L632 12V9Q632 0 623 0H571Q558 0 558 11L511 216Q510 221 509 222T502 223H199Q191 223 186 214L80 7Q79 3 76 2T67 0H19Q11
0 11 7ZM489 284Q500 284 497 296L417 650Q416 659 412 659Q408 659 403 648L223 297Q219 290 219 287T225 284H489Z" />
<glyph unicode="B" glyph-name="B" horiz-adv-x="693" d="M67 0T68 12L170 730Q171 737 173 739T183 742H401Q520 742 584 700T649 577Q649 503 609 454T494 381Q488 380 488 377T493 372Q552 359 584 322T617 226Q617 107 531 54T312 0H77Q67 0 68 12ZM366 404Q457
404 514 446T572 568Q572 627 526 655T394 684H250Q239 684 236 673L201 415V411Q201 404 208 404H366ZM305 58Q540 58 540 225Q540 287 492 316T361 346H204Q191 346 189 334L152 68V66Q152 58 160 58H305Z" />
<glyph unicode="C" glyph-name="C" horiz-adv-x="702" d="M506 752T561 724T648 649T680 547V545Q680 537 672 537L616 533Q608 533 607 546Q600 612 556 652T441 692Q342 692 278 630T185 472T156 275Q156 52 351 52Q426 52 481 88T576 201Q579 207 588 204L635
190Q642 187 638 176Q601 97 523 44T345 -10Q217 -10 148 67T79 283Q79 400 118 507T238 683T442 752Q506 752 561 724Z" />
<glyph unicode="D" glyph-name="D" horiz-adv-x="714" d="M74 0T71 4T69 15L170 733Q171 742 183 742H318Q496 742 581 671T666 459Q666 236 553 118T215 0H81Q74 0 71 4ZM217 59Q411 59 499 160T587 461Q587 582 521 632T311 682H248Q242 682 240 680T236 670L153
73L152 68Q152 59 164 59H217Z" />
<glyph unicode="E" glyph-name="E" horiz-adv-x="622" d="M171 739T172 740T180 742H618Q626 742 624 731L619 692Q618 686 615 684T606 682H248Q242 682 240 680T236 672L200 412V409Q200 406 201 405T207 404H482Q487 404 488 402T489 395L482 353Q481 348 479
347T472 345H200Q194 345 192 343T189 334L152 69V65Q152 62 153 61T158 60H533Q539 60 541 58T542 50L537 8Q536 3 534 2T527 0H80Q67 0 68 14L170 732Q171 739 172 740Z" />
<glyph unicode="F" glyph-name="F" horiz-adv-x="594" d="M171 738T173 740T181 742H607Q616 742 615 732L609 692Q608 686 606 684T598 682H248Q242 682 240 680T236 670L199 402V398Q199 392 206 392H488Q496 392 496 384L491 343Q490 333 480 333H198Q192 333
191 331T187 321L144 9Q143 3 140 2T131 0H77Q70 0 69 2T68 14L170 731Q171 738 173 740Z" />
<glyph unicode="G" glyph-name="G" horiz-adv-x="735" d="M215 -10T147 66T79 281Q79 408 122 515T247 687T442 752Q507 752 562 725T649 651T681 553Q681 547 680 545T676 541L616 531H614Q611 531 610 535T608 545Q606 586 585 619T526 672T440 692Q347 692
284 634T189 480T157 275Q157 164 204 108T344 51Q411 51 463 81T546 158T586 250L596 317V320Q596 324 594 325T586 326H413Q408 326 406 327T405 334L410 371Q410 374 411 375T416 377H663Q673 377 672 367L621 11Q620 5 617 3T608 0H588Q581 0 578 2T575 11L583
110Q583 115 580 115Q577 115 572 109Q537 56 477 23T338 -10Q215 -10 147 66Z" />
<glyph unicode="H" glyph-name="H" horiz-adv-x="731" d="M200 355Q193 355 191 346L144 10Q142 4 140 2T130 0H79Q67 0 68 13L170 732Q171 739 172 740T180 742H236Q242 742 244 740T244 730L202 426V422Q202 418 203 417T210 416H563Q572 416 574 428L618 733Q619
739 620 740T627 742H683Q689 742 691 739T692 728L591 11Q590 4 588 2T580 0H529Q515 0 516 13L563 348V351Q563 355 556 355H200Z" />
<glyph unicode="I" glyph-name="I" horiz-adv-x="283" d="M235 742Q247 742 244 728L144 13Q142 4 140 2T128 0H81Q66 0 68 14L170 732Q171 739 172 740T180 742H235Z" />
<glyph unicode="J" glyph-name="J" horiz-adv-x="410" d="M283 71T243 31T126 -10Q74 -10 19 13Q12 16 10 19T9 26L26 72Q28 77 31 77Q34 77 40 74Q83 57 119 57Q167 57 190 83T222 174L301 733Q302 739 303 740T310 742H367Q377 742 375 728L295 153Q283 71 243 31Z" />
<glyph unicode="K" glyph-name="K" horiz-adv-x="690" d="M611 0T601 0H536Q528 0 524 9L341 393Q340 396 337 396Q335 396 328 389L187 252Q182 248 179 244T175 233L144 10Q143 5 140 3T130 0H80Q66 0 68 13L170 733Q171 739 172 740T179 742H235Q240 742 243
739T245 730L191 345L190 341Q190 339 198 347L602 735Q609 742 622 742H681Q688 742 689 739T685 731L402 459Q401 458 398 456T397 449L604 13Q611 0 601 0Z" />
<glyph unicode="L" glyph-name="L" horiz-adv-x="596" d="M171 738T173 740T182 742H237Q243 742 244 739T244 728L152 70L151 65Q151 60 159 60H512Q523 60 522 49L516 8Q515 3 514 2T507 0H80Q66 0 68 14L170 731Q171 738 173 740Z" />
<glyph unicode="M" glyph-name="M" horiz-adv-x="895" d="M71 0T70 1T68 6Q68 11 69 15L170 732Q171 739 172 740T180 742H250Q260 742 261 733L418 118Q420 110 422 110Q426 110 432 121L761 733Q764 738 767 740T775 742H847Q853 742 855 740T856 730L755 11Q754
4 752 2T743 0H693Q679 0 680 13L762 597Q763 601 762 601T759 599L444 10Q440 4 437 2T426 0H382Q375 0 372 2T368 13L222 595Q221 599 220 599T217 595L134 9Q133 4 131 2T123 0H76Q71 0 70 1Z" />
<glyph unicode="N" glyph-name="N" horiz-adv-x="756" d="M708 742Q714 742 716 740T717 730L616 9Q615 0 605 0H570Q557 0 551 9L230 598Q227 604 223 604Q219 604 217 595L135 10Q134 4 132 2T123 0H78Q66 0 68 13L170 732Q171 739 172 740T181 742H222Q233
742 239 732L554 150Q558 143 563 143Q569 143 570 154L651 733Q653 739 654 740T661 742H708Z" />
<glyph unicode="O" glyph-name="O" horiz-adv-x="762" d="M217 -10T148 64T79 278Q79 325 86 371Q111 553 206 652T447 752Q573 752 642 676T712 458Q712 411 705 366Q680 185 585 88T345 -10Q217 -10 148 64ZM465 51T535 130T628 372Q635 422 635 471Q635 692
445 692Q329 692 258 611T163 365Q156 317 156 271Q156 51 349 51Q465 51 535 130Z" />
<glyph unicode="P" glyph-name="P" horiz-adv-x="683" d="M197 317Q187 317 185 306L144 10Q142 4 140 2T132 0H78Q73 0 70 3T68 13L170 730Q171 737 172 739T180 742H420Q533 742 599 698T666 563Q666 445 586 381T373 317H197ZM588 628T543 655T411 683H249Q238
683 236 671L197 389V384Q197 380 198 379T204 377H372Q473 377 530 426T588 565Q588 628 543 655Z" />
<glyph unicode="Q" glyph-name="Q" horiz-adv-x="762" d="M111 555T206 653T446 752Q573 752 642 677T712 459Q712 412 705 366Q688 242 641 161T515 33Q506 27 507 20Q508 7 524 -11T568 -43T627 -62Q636 -63 635 -72L629 -114Q628 -120 623 -121T605 -123Q565
-123 519 -94T440 -4Q436 2 425 -1Q386 -10 345 -10Q218 -10 149 64T79 280Q79 327 86 372Q111 555 206 653ZM156 314T156 268Q156 51 348 51Q583 51 628 372Q635 422 635 469Q635 692 444 692Q328 692 257 609T163 364Q156 314 156 268Z" />
<glyph unicode="R" glyph-name="R" horiz-adv-x="689" d="M582 12T582 8Q582 0 570 0H515Q509 0 507 3T502 13L412 336Q410 341 407 343T395 345H202Q195 345 193 343T189 333L144 12Q142 4 140 2T129 0H80Q66 0 68 13L170 732Q171 739 172 740T180 742H450Q555
742 611 702T668 583Q668 500 621 440T493 359Q481 356 484 350L581 15Q582 12 582 8ZM588 403T588 576Q588 631 552 657T442 684H250Q238 684 237 674L200 412L199 408Q199 403 206 403H372Q588 403 588 576Z" />
<glyph unicode="S" glyph-name="S" horiz-adv-x="631" d="M524 650T483 671T384 692Q329 692 285 673T216 618T191 535Q191 466 288 429L423 379Q497 352 530 313T564 218Q564 146 527 95T426 17T280 -10Q191 -10 132 22T36 118Q34 122 34 126Q34 134 43 138L70
155Q75 159 81 159Q87 159 93 151Q118 114 141 93T199 60T285 49Q378 49 433 88T489 205Q489 239 466 264T385 312L241 367Q177 392 148 433T118 524Q118 592 154 643T251 723T388 752Q524 752 604 652Q609 646 609 643T605 636L565 607L562 606Q559 606 550 616Q524
650 483 671Z" />
<glyph unicode="T" glyph-name="T" horiz-adv-x="636" d="M110 734Q111 739 112 740T119 742H651Q656 742 657 740T658 733L652 691Q651 686 648 684T640 682H435Q428 682 426 680T422 671L329 11Q328 4 326 2T318 0H263Q256 0 254 3T253 13L346 670V673Q346 678
344 680T335 682H113Q103 682 104 692L110 734Z" />
<glyph unicode="U" glyph-name="U" horiz-adv-x="706" d="M590 111T518 51T317 -10Q200 -10 144 39T88 191Q88 218 93 258L160 731Q161 738 163 740T170 742H224Q237 742 234 728L165 234Q162 210 162 191Q162 120 202 86T324 51Q518 51 545 241L614 733Q615 739
616 740T623 742H668Q673 742 675 739T677 729L608 238Q590 111 518 51Z" />
<glyph unicode="V" glyph-name="V" horiz-adv-x="700" d="M724 742T719 730L359 12Q355 5 351 3T339 0H286Q276 0 272 2T266 12L114 731V734Q114 742 124 742H175Q182 742 184 740T188 730L321 99Q323 90 326 90Q330 90 333 97L650 734Q652 739 654 740T663 742H713Q724
742 719 730Z" />
<glyph unicode="W" glyph-name="W" horiz-adv-x="1035" d="M1050 742T1052 738T1052 726L744 12Q741 5 737 3T725 0H675Q657 0 656 13L571 610Q570 614 569 614T565 610L308 12Q305 5 301 3T288 0H238Q222 0 219 13L117 729L116 734Q116 742 128 742H176Q183 742
186 739T190 730L277 117Q279 108 281 108Q285 108 288 117L551 734Q553 739 556 740T567 742H611Q619 742 621 740T625 730L712 114Q714 106 716 106Q718 106 723 117L986 734Q987 739 990 740T1001 742H1043Q1050 742 1052 738Z" />
<glyph unicode="X" glyph-name="X" horiz-adv-x="677" d="M593 5T593 4Q593 0 584 0H525Q515 0 513 7L353 309Q348 317 345 317Q341 317 336 311L88 5Q84 0 75 0H17Q9 0 9 5Q9 10 16 18L301 369Q308 377 308 385L306 393L125 732Q122 742 130 742H193Q199 742
201 741T206 734L354 450Q357 444 361 444Q365 444 369 450L601 737Q606 742 614 742H676Q681 742 681 738T679 730L402 389Q394 382 399 374L589 15Q593 5 593 4Z" />
<glyph unicode="Y" glyph-name="Y" horiz-adv-x="660" d="M681 742T682 738T680 728L385 327Q378 316 376 299L335 14Q334 6 330 3T316 0H270Q257 0 260 14L299 296Q300 301 300 308Q300 315 298 319L112 729Q110 735 110 736Q110 742 121 742H173Q181 742 184
739T191 729L339 394Q344 384 349 384Q353 384 361 394L605 733Q609 739 613 740T625 742H675Q681 742 682 738Z" />
<glyph unicode="Z" glyph-name="Z" horiz-adv-x="619" d="M19 0T17 2T15 11L17 32Q18 38 20 43T28 54L518 675Q524 682 515 682H133Q122 682 125 693L130 735Q131 740 132 741T137 742H625Q634 742 632 733L629 709Q628 701 621 693L126 68Q122 64 123 62T127
60H528Q537 60 536 53L530 8Q529 3 527 2T520 0H26Q19 0 17 2Z" />
<glyph unicode="[" glyph-name="bracketleft" horiz-adv-x="279" d="M45 -165T42 -161T39 -152L162 735Q163 739 165 740T173 742H321Q326 742 328 740T330 734L325 699Q324 696 323 695T318 694H231Q226 694 222 690T218 681L105 -110Q105 -115 106 -116T112
-117H199Q203 -117 206 -120T209 -128L204 -157Q203 -162 202 -163T195 -165H51Q45 -165 42 -161Z" />
<glyph unicode="\" glyph-name="backslash" horiz-adv-x="336" d="M221 -50T221 -38L80 730V736Q80 740 81 741T87 742H125Q129 742 132 739T135 732L278 -45Q278 -48 277 -49T271 -50H233Q221 -50 221 -38Z" />
<glyph unicode="]" glyph-name="bracketright" horiz-adv-x="279" d="M-40 -165T-42 -163T-44 -157L-39 -122Q-38 -119 -37 -118T-32 -117H55Q60 -117 64 -113T68 -104L181 687Q181 692 180 693T174 694H87Q83 694 80 697T78 705L82 734Q83 739 84 740T91 742H235Q241
742 244 738T247 729L124 -158Q123 -162 121 -163T113 -165H-35Q-40 -165 -42 -163Z" />
<glyph unicode="^" glyph-name="asciicircum" horiz-adv-x="476" d="M268 440Q267 444 264 444Q259 444 257 437L96 142Q94 138 91 137T84 136H44Q39 136 38 140T38 150L233 506Q251 540 274 540Q297 540 306 503L403 144V140Q403 136 402 135T396 134H358Q353
134 349 137T344 144L268 440Z" />
<glyph unicode="_" glyph-name="underscore" horiz-adv-x="511" d="M395 -101Q393 -107 391 -109T381 -111H24Q12 -111 14 -100L19 -63Q20 -58 21 -57T26 -55L390 -54Q394 -54 397 -57T399 -64L395 -101Z" />
<glyph unicode="`" glyph-name="grave" horiz-adv-x="280" d="M94 753T101 751L318 656Q321 654 322 650T323 642L312 622Q310 617 308 617T299 618L82 691Q68 697 73 708L92 748Q94 753 101 751Z" />
<glyph unicode="a" glyph-name="a" horiz-adv-x="544" d="M283 -10T175 -10Q104 -10 64 24T23 115Q23 211 104 257T305 312L395 319Q404 320 409 324T416 336L420 365Q422 379 422 387Q422 435 391 462T305 489Q212 489 138 402Q135 399 133 399T126 400L87 417Q82
419 82 424Q82 427 85 433Q123 483 180 511T310 540Q395 540 440 502T486 396Q486 386 484 366L434 11Q433 4 431 2T422 0H385Q374 0 374 14L380 67Q380 72 378 72Q374 72 368 65Q283 -10 175 -10ZM405 261V265Q405 271 403 273T394 274L316 268Q91 249 91 124Q91
86 119 64T197 42Q231 42 265 54T328 87Q356 107 373 129T393 173L405 261Z" />
<glyph unicode="b" glyph-name="b" horiz-adv-x="596" d="M61 0Q45 0 48 17L149 732Q150 738 152 740T159 742H206Q216 742 214 728L179 481Q179 480 179 479T179 476Q179 472 181 472Q184 472 191 478Q225 503 264 521T364 540Q456 540 502 483T548 329Q548 246
519 168T428 40T279 -10Q216 -10 179 16T126 70Q125 73 121 73Q114 73 113 63L102 13Q100 5 98 3T85 0H61ZM136 176Q135 171 135 161Q135 128 153 101T203 57T269 41Q336 41 383 83T455 192T479 328Q479 404 445 446T344 488Q296 488 251 466T170 408L136 176Z"
/>
<glyph unicode="c" glyph-name="c" horiz-adv-x="540" d="M467 540T519 419Q521 415 521 413Q521 409 516 407L474 395H472Q468 395 463 405Q433 449 404 468T335 488Q267 488 217 448T141 345T114 213Q114 133 155 88T268 42Q318 42 359 66T439 140Q444 146 450
142L483 126Q486 124 487 120T487 112Q446 55 388 23T260 -10Q162 -10 105 51T47 215Q47 297 81 371T181 493T332 540Q467 540 519 419Z" />
<glyph unicode="d" glyph-name="d" horiz-adv-x="596" d="M426 0Q420 0 417 3T414 13L421 59L422 63Q422 67 419 67Q415 67 409 61Q379 34 339 12T241 -10Q153 -10 100 44T47 201Q47 284 80 362T176 490T325 540Q372 540 403 525T461 484Q466 479 471 479Q478
479 479 495L513 732Q514 738 516 740T524 742H570Q579 742 579 729L477 13Q476 5 473 3T462 0H426ZM470 420Q441 454 409 471T336 488Q267 488 217 446T140 339T114 204Q114 123 155 82T261 41Q303 41 341 61T405 113T434 173L470 420Z" />
<glyph unicode="e" glyph-name="e" horiz-adv-x="579" d="M164 -10T105 51T46 213Q46 297 81 372T182 493T335 540Q431 540 485 484T539 326Q539 295 535 267Q533 250 516 250H125Q118 250 115 241T112 205Q112 132 156 88T270 43Q379 43 447 132Q453 138 461
133L492 114Q501 109 495 100Q449 43 393 17T264 -10Q164 -10 105 51ZM455 296Q466 296 471 305T477 343Q477 409 438 449T333 489Q277 489 232 461T158 389T124 296H455Z" />
<glyph unicode="f" glyph-name="f" horiz-adv-x="373" d="M386 530T384 521L379 486Q378 482 377 481T371 479H248Q241 479 239 469L174 11Q173 4 171 2T164 0H118Q113 0 111 3T109 13L173 472Q175 479 168 479H63Q56 479 56 489L61 523Q62 528 63 529T69 530H172Q181
530 183 541L194 617Q203 680 236 711T330 742H409Q414 742 416 739T418 731L414 699Q413 695 411 694T404 692H331Q298 692 281 673T259 616L247 537V534Q247 530 254 530H377Q386 530 384 521Z" />
<glyph unicode="g" glyph-name="g" horiz-adv-x="594" d="M104 -175T45 -141T-15 -46Q-15 -4 13 29T90 85Q97 89 98 91T95 98Q62 117 62 147Q62 194 144 225Q152 227 153 231T149 238Q83 274 83 346Q83 406 114 449T198 515T313 538Q416 538 465 491Q468 488 472
488Q477 488 486 495Q507 511 532 523T581 535Q593 535 597 532T601 520L597 495Q596 485 593 482T580 478Q552 477 523 466Q507 459 501 454T497 442Q502 428 505 417T508 390Q508 330 476 290T391 229T276 209Q230 209 179 199T128 160Q128 146 149 139T220 129L344
122Q492 113 492 -1Q492 -91 412 -133T214 -175Q104 -175 45 -141ZM351 256T398 290T446 396Q446 442 413 466T315 491Q244 491 195 454T145 348Q145 303 179 280T279 256Q351 256 398 290ZM305 -129T366 -101T427 -7Q427 27 406 43T334 63L167 73Q115 61 82 33T48
-37Q48 -129 215 -129Q305 -129 366 -101Z" />
<glyph unicode="h" glyph-name="h" horiz-adv-x="581" d="M59 0Q53 0 50 3T48 13L149 733Q150 738 152 740T159 742H203Q213 742 212 731L175 469Q172 457 181 462Q251 506 291 523T379 540Q450 540 487 507T524 416Q524 408 522 388L469 11Q467 4 465 2T456 0H414Q401
0 403 13L454 375Q456 393 456 401Q456 485 361 485Q315 485 275 466T169 398L113 10Q112 4 110 2T101 0H59Z" />
<glyph unicode="i" glyph-name="i" horiz-adv-x="232" d="M207 649Q205 639 203 636T191 633H143Q129 633 133 650L144 728Q146 742 158 742H207Q213 742 216 738T218 726L207 649ZM113 13Q112 4 110 2T98 0H61Q45 0 47 14L119 520Q120 527 121 528T129 530H175Q187
530 185 517L113 13Z" />
<glyph unicode="j" glyph-name="j" horiz-adv-x="232" d="M207 649Q205 639 203 636T191 633H143Q129 633 133 650L144 728Q146 742 158 742H207Q213 742 216 738T218 726L207 649ZM97 -110T66 -140T-38 -170Q-81 -170 -93 -168T-105 -157L-100 -122Q-99 -115
-92 -115L-37 -113Q-2 -111 16 -93T41 -31L119 520Q120 526 122 528T130 530H175Q180 530 183 526T185 517L106 -40Q97 -110 66 -140Z" />
<glyph unicode="k" glyph-name="k" horiz-adv-x="553" d="M488 7T488 4Q488 0 479 0H426Q416 0 411 12L286 284Q284 287 282 287T275 283L143 166Q135 158 132 147L113 13Q112 4 110 2T98 0H61Q45 0 48 14L149 732Q150 739 152 740T159 742H205Q217 742 214 728L147
250V245Q147 242 148 242Q149 242 151 244T156 249L456 520Q462 526 466 528T476 530H525Q537 530 537 522Q537 517 530 511L344 345Q335 338 338 330L485 13Q488 7 488 4Z" />
<glyph unicode="l" glyph-name="l" horiz-adv-x="232" d="M113 13Q112 4 110 2T98 0H61Q45 0 47 14L149 732Q151 739 152 740T160 742H205Q217 742 214 729L113 13Z" />
<glyph unicode="m" glyph-name="m" horiz-adv-x="902" d="M53 0T50 3T47 13L119 521Q120 527 121 528T128 530H173Q184 530 182 519L174 466Q173 461 174 460T180 461Q244 504 284 522T371 540Q428 540 461 514T501 451Q501 449 503 449Q504 449 508 452T517 459Q582
503 623 521T710 540Q775 540 810 507T845 416Q845 406 843 388L790 11Q789 4 787 2T778 0H736Q730 0 727 3T724 13L775 373Q777 383 777 403Q777 485 690 485Q646 485 606 464T526 411Q515 402 510 397T504 381L452 11Q451 4 448 2T439 0H397Q392 0 389 3T386
13L437 375Q439 395 439 403Q439 485 352 485Q309 485 271 466T169 398L113 10Q112 4 110 2T100 0H59Q53 0 50 3Z" />
<glyph unicode="n" glyph-name="n" horiz-adv-x="581" d="M45 0T47 13L119 521Q120 527 121 528T128 530H174Q183 530 182 520L173 461V458Q173 454 174 454T181 457Q234 499 281 519T379 540Q449 540 486 507T524 415Q524 407 522 389L469 11Q467 4 465 2T456
0H413Q401 0 403 13L454 374Q456 392 456 401Q456 485 360 485Q314 485 275 466T169 398L113 10Q112 4 110 2T100 0H58Q45 0 47 13Z" />
<glyph unicode="o" glyph-name="o" horiz-adv-x="598" d="M163 -10T105 51T47 214Q47 306 86 380T191 497T336 540Q436 540 493 478T551 311Q551 219 513 146T408 32T263 -10Q163 -10 105 51ZM328 43T377 77T455 174T484 319Q484 398 445 443T334 488Q273 488
223 453T143 355T114 211Q114 133 154 88T267 43Q328 43 377 77Z" />
<glyph unicode="p" glyph-name="p" horiz-adv-x="594" d="M28 -165T26 -162T24 -152L119 518Q120 526 122 528T133 530H170Q177 530 180 527T183 517L175 471V469Q175 465 178 465Q183 465 188 470Q191 472 213 492T273 526T355 540Q442 540 494 486T547 331Q547
248 516 170T422 41T272 -10Q226 -10 191 5T135 43Q128 48 126 48Q122 48 120 44T116 32L90 -155Q89 -161 88 -163T80 -165H33Q28 -165 26 -162ZM328 41T377 83T453 192T479 327Q479 407 439 448T335 489Q292 489 254 470T191 420T163 362L126 110Q156 76 188 59T260
41Q328 41 377 83Z" />
<glyph unicode="q" glyph-name="q" horiz-adv-x="597" d="M387 -165T389 -151L416 33L417 41Q417 45 415 45Q413 45 404 39Q372 17 331 4T246 -10Q152 -10 100 49T48 209Q48 290 77 366T168 491T318 540Q366 540 397 528T444 502T473 468Q477 464 479 464Q484
464 487 475L499 517Q501 525 504 527T517 530H539Q546 530 548 527T549 513L455 -155Q454 -165 443 -165H398Q387 -165 389 -151ZM306 41T349 60T425 113L461 353Q462 358 462 369Q462 419 425 454T329 490Q263 490 215 449T141 344T116 212Q116 131 155 86T263
41Q306 41 349 60Z" />
<glyph unicode="r" glyph-name="r" horiz-adv-x="372" d="M53 0T50 4T47 13L119 521Q120 527 121 528T128 530H172Q183 530 181 518L172 457V454Q172 450 174 450T181 454Q226 500 266 520T347 540Q386 540 384 528L377 483Q376 476 372 476Q350 478 333 478Q302
478 263 459T194 411T161 352L113 10Q112 4 110 2T100 0H59Q53 0 50 4Z" />
<glyph unicode="s" glyph-name="s" horiz-adv-x="508" d="M136 -10T81 21T7 104Q5 108 5 110Q5 114 10 117L42 134Q44 135 48 135Q53 135 56 129Q98 41 214 41Q247 41 285 51T350 85T377 145Q377 199 283 227L184 256Q122 274 95 302T68 370Q68 422 98 461T179
520T287 540Q352 540 399 515T470 444Q472 442 472 439Q472 435 467 432L436 416L432 415Q427 415 422 421Q405 454 370 471T284 489Q249 489 214 478T156 443T132 387Q132 365 149 348T209 317L334 278Q387 262 414 230T441 157Q441 104 407 66T321 9T213 -10Q136
-10 81 21Z" />
<glyph unicode="t" glyph-name="t" horiz-adv-x="375" d="M155 0T130 21T105 87Q105 104 108 123L156 471V474Q156 479 149 479H63Q59 479 57 482T56 489L61 524Q62 528 63 529T69 530H157Q161 530 163 533T167 540L200 700Q201 710 212 710H247Q258 710 255 695L233
537Q232 530 239 530H369Q374 530 376 528T378 522L373 486Q372 481 371 480T364 479H233Q224 479 222 469L175 133Q172 115 172 102Q172 73 185 63T226 52H299Q303 52 306 49T308 41L304 13Q303 6 296 3Q268 0 209 0Q155 0 130 21Z" />
<glyph unicode="u" glyph-name="u" horiz-adv-x="576" d="M136 -10T97 25T57 119Q57 135 58 142L111 519Q112 526 114 528T123 530H166Q171 530 174 527T177 516L127 161Q125 145 125 137Q125 45 219 45Q264 45 309 69T409 141L463 520Q464 526 466 528T475 530H517Q523
530 526 526T529 516L457 9Q456 4 454 2T447 0H404Q393 0 394 10L403 68V71Q403 78 394 72Q332 26 288 8T201 -10Q136 -10 97 25Z" />
<glyph unicode="v" glyph-name="v" horiz-adv-x="540" d="M542 530T545 526T546 516L270 12Q266 5 262 3T249 0H222Q203 0 200 14L66 519V522Q66 530 76 530H122Q127 530 131 527T135 518L244 101Q245 93 249 93Q254 93 260 105L486 523Q489 527 492 528T500 530H536Q542
530 545 526Z" />
<glyph unicode="w" glyph-name="w" horiz-adv-x="791" d="M789 530T792 526T794 516L571 10Q568 4 565 2T553 0H513Q505 0 500 3T495 14L423 413Q422 420 419 420Q415 420 412 410L235 10Q232 4 229 2T218 0H175Q157 0 157 14L70 519L69 523Q69 530 79 530H124Q129
530 133 527T137 518L207 103Q208 95 211 95Q216 95 220 107L407 523Q409 530 418 530H455Q461 530 464 527T468 518L543 103Q544 95 547 95Q552 95 556 107L738 523Q742 530 753 530H783Q789 530 792 526Z" />
<glyph unicode="x" glyph-name="x" horiz-adv-x="532" d="M466 6T466 3Q466 0 458 0H403Q391 0 387 9L265 215Q263 220 259 220Q256 220 248 212L61 6Q57 0 43 0H3Q-8 0 -8 7Q-8 13 0 22L220 259Q226 265 227 269T226 279L81 518Q79 522 79 524Q79 530 88 530H139Q145
530 148 528T154 521L273 325Q274 321 278 321Q284 321 288 328L458 524Q461 528 465 529T475 530H518Q525 530 526 526T523 517L316 285Q305 272 311 265L460 15Q466 6 466 3Z" />
<glyph unicode="y" glyph-name="y" horiz-adv-x="521" d="M8 -165T-4 -164T-15 -153L-11 -124Q-10 -117 -3 -115T22 -112H81Q107 -112 132 -91T173 -38T189 19Q189 24 187 34L63 514V518Q63 530 74 530H124Q130 530 132 529T135 522L238 111Q240 101 245 101Q250
101 256 113L470 519Q474 530 484 530H522Q533 530 526 519L221 -58Q189 -118 147 -141T44 -165Q8 -165 -4 -164Z" />
<glyph unicode="z" glyph-name="z" horiz-adv-x="472" d="M-5 0T-2 11L1 35Q2 40 5 45T11 54T16 60L377 470Q381 474 380 477T374 481H93Q88 481 87 483T86 492L91 522Q92 530 102 530H461Q467 530 467 523L462 494Q461 482 449 470L88 60Q84 56 84 53T90 49H398Q406
49 405 41L401 10Q400 4 398 2T390 0H6Q-5 0 -2 11Z" />
<glyph unicode="{" glyph-name="braceleft" horiz-adv-x="290" d="M126 -165T98 -142T69 -80Q69 -70 70 -64L102 165Q103 169 103 178Q103 214 79 240T9 266Q5 266 3 269T2 276L6 307Q7 313 9 313Q64 314 97 344T138 422L170 646Q176 691 210 716T301 742H332Q342
742 340 734L336 699Q335 696 333 695T328 694H305Q270 694 253 680T231 639L200 413Q192 357 161 327T88 292Q81 292 79 290T81 286Q118 283 142 259T166 190Q166 182 164 164L132 -64Q131 -69 131 -78Q131 -99 144 -108T189 -117H210Q214 -117 217 -120T220 -128L216
-157Q214 -163 213 -164T206 -165H179Q126 -165 98 -142Z" />
<glyph unicode="|" glyph-name="bar" horiz-adv-x="263" d="M57 -165Q51 -165 48 -162T46 -154L185 839Q186 844 187 845T194 847H230Q241 847 239 834L101 -157Q100 -162 99 -163T92 -165H57Z" />
<glyph unicode="}" glyph-name="braceright" horiz-adv-x="290" d="M-40 -165T-42 -163T-44 -157L-39 -122Q-38 -119 -37 -118T-32 -117H-8Q27 -117 44 -103T66 -62L97 164Q105 220 136 250T208 285Q215 285 217 287T215 291Q177 294 154 318T130 388Q130 395
132 413L164 641Q165 646 165 656Q165 677 153 685T108 694H86Q77 694 77 705L81 734Q82 739 83 740T90 742H118Q171 742 199 719T227 658Q227 647 226 641L194 412Q193 408 193 399Q193 363 217 337T287 311Q290 311 292 308T294 301L290 270Q289 264 286 264Q231
263 198 233T158 155L127 -69Q121 -114 86 -139T-5 -165H-35Q-40 -165 -42 -163Z" />
<glyph unicode="~" glyph-name="asciitilde" horiz-adv-x="557" d="M489 351T458 338T388 325Q359 325 338 331T289 351Q265 362 247 368T207 374Q145 374 98 327L94 325Q89 325 87 334L78 361Q76 365 76 367Q76 370 80 374Q111 398 140 411T206 424Q232 424 253
418T303 398Q333 386 350 381T389 375Q423 375 445 387T486 418Q488 420 492 420Q499 420 500 411L509 385Q511 381 511 379Q511 377 507 369Q489 351 458 338Z" />
<glyph unicode="&#xa0;" glyph-name="uni00A0" horiz-adv-x="217" />
<glyph unicode="&#xa1;" glyph-name="exclamdown" horiz-adv-x="239" d="M186 435T185 434T179 432H111Q101 432 102 445L113 519Q114 526 116 528T125 530H182Q200 530 198 514L187 440Q186 435 185 434ZM101 -162T100 -163T94 -165H29Q25 -165 23 -162T21 -154L109
355Q110 360 111 361T119 363H142Q150 363 153 360T155 350L101 -158Q101 -162 100 -163Z" />
<glyph unicode="&#xa2;" glyph-name="cent" horiz-adv-x="558" d="M499 526T499 524Q499 520 494 518L452 506H450Q446 506 441 516Q411 560 382 579T313 599Q245 599 195 559T119 456T92 324Q92 244 133 199T246 153Q296 153 337 177T417 251Q422 257 428 253L461
237Q464 235 465 231T465 223Q432 178 389 148T293 107L280 14Q278 6 275 3T264 0H240Q232 0 228 4T226 16L238 101Q140 101 83 162T25 326Q25 408 59 482T159 604T310 651H315L326 732Q328 738 330 740T339 742H370Q381 742 381 729L369 644Q457 622 497 530Q499
526 499 524Z" />
<glyph unicode="&#xa3;" glyph-name="sterling" horiz-adv-x="608" d="M-19 0T-22 4T-24 12L-18 53Q-17 57 -16 58T-10 59H22Q64 58 97 99T142 221Q147 263 149 353Q148 356 144 356H53Q50 356 48 358T46 365L51 399Q51 402 52 403T56 404H136Q140 404 143 406T147
413L140 487Q139 496 139 513Q139 585 172 639T258 723T373 752Q438 752 489 721T551 645Q553 643 552 642T549 640T546 639L503 623L499 622Q492 622 490 630Q464 691 378 691Q316 691 270 656T215 559Q212 532 212 502Q212 456 218 408Q221 405 225 405H386Q390
405 392 403T393 397L388 362Q388 359 387 358T382 356H232Q222 356 220 345Q221 336 221 318Q221 275 214 230Q197 125 140 65Q136 63 135 62T138 60H328Q381 60 417 78T476 139Q481 143 489 141L526 130Q536 124 533 116Q503 58 450 29T325 0H-14Q-19 0 -22 4Z"
/>
<glyph unicode="&#xa4;" glyph-name="currency" horiz-adv-x="527" d="M199 191T158 224Q156 225 153 225Q148 225 143 220L94 177Q89 174 86 174Q81 174 75 180L59 199Q54 204 54 209Q54 212 59 217L108 259Q114 267 113 278Q95 312 95 351Q95 358 97 376Q106
433 141 478Q147 484 144 489L107 531Q103 536 103 541Q103 547 107 551L129 569Q133 573 137 573Q141 573 146 567L184 523Q185 522 187 522Q191 522 196 525Q243 554 300 554Q328 554 352 545T396 521Q398 520 401 520Q406 520 411 525L465 572Q469 574 470 574Q474
574 477 569L499 544Q503 537 500 532L444 484Q438 478 440 471Q459 436 459 393Q459 360 448 328T415 270Q406 264 411 259L452 212Q458 204 453 199L424 174L420 172Q416 172 413 177L374 224Q367 228 362 222Q311 191 255 191Q199 191 158 224ZM297 248T330
269T384 323T405 394Q405 438 376 468T300 498Q262 498 228 478T174 424T153 354Q153 310 183 279T259 248Q297 248 330 269Z" />
<glyph unicode="&#xa5;" glyph-name="yen" horiz-adv-x="596" d="M646 742T648 738T647 727L362 342H498Q502 342 505 339T507 332L503 303Q502 297 500 295T490 293H344L330 197H478Q482 197 485 194T487 187L483 158Q482 152 480 151T469 149H323L304 14Q303
6 300 3T286 0H243Q235 0 231 4T229 15L248 148H102Q89 148 91 160L95 188Q96 193 97 194T102 196H255L268 293H122Q109 293 111 304L115 333Q116 341 122 341H259L83 729Q81 735 81 736Q81 742 92 742H147Q155 742 159 739T165 729L312 394Q316 386 319 386Q322
386 329 396L576 733Q580 739 583 740T595 742H639Q646 742 648 738Z" />
<glyph unicode="&#xa6;" glyph-name="brokenbar" horiz-adv-x="263" d="M141 440Q136 440 133 443T131 451L185 839Q186 844 187 845T194 847H230Q241 847 239 834L185 448Q184 443 183 442T176 440H141ZM57 -165Q51 -165 48 -162T46 -154L100 234Q100 239 101
240T108 242H144Q157 242 155 229L101 -157Q100 -162 99 -163T92 -165H57Z" />
<glyph unicode="&#xa7;" glyph-name="section" horiz-adv-x="484" d="M416 150T416 84Q416 40 389 5T315 -50T207 -71Q139 -71 86 -40T13 42Q8 48 11 51L49 70L53 71Q59 71 61 64Q81 26 120 4T211 -19Q267 -19 306 4T350 68Q351 72 351 80Q351 105 330 126T257
169L169 205Q114 228 88 259T62 331Q62 338 64 352Q70 396 104 430T188 483Q141 508 122 535T102 595Q102 603 104 619Q112 677 167 714T303 752Q364 752 409 725T475 656Q481 650 476 646L441 629Q437 627 436 627Q430 627 428 634Q407 664 377 682T307 700Q244
700 206 674T167 608Q167 586 184 566T246 527L328 492Q392 464 422 429T452 349Q452 292 421 258T336 198Q416 150 416 84ZM295 230T321 242T365 276T387 323Q389 337 389 344Q389 371 372 390T310 429L253 453Q207 449 170 419T127 352Q126 347 126 337Q126 314
143 297T206 259L269 232Q295 230 321 242Z" />
<glyph unicode="&#xa8;" glyph-name="dieresis" horiz-adv-x="222" d="M134 649Q133 641 130 639T118 637H76Q63 637 64 650L76 732Q77 739 78 740T86 742H135Q147 742 145 729L134 649ZM266 649Q265 641 262 639T250 637H208Q195 637 196 650L208 732Q209 739
210 740T218 742H267Q272 742 274 739T276 729L266 649Z" />
<glyph unicode="&#xa9;" glyph-name="copyright" horiz-adv-x="830" d="M284 -10T208 33T88 152T45 319Q45 349 49 374Q64 477 127 563T283 701T480 752Q575 752 651 708T771 589T815 420Q815 404 811 368Q796 264 733 178T576 41T379 -10Q284 -10 208 33ZM470
43T551 84T686 201T755 374Q759 408 759 424Q759 506 723 568T622 665T479 700Q389 700 308 658T173 541T105 368Q101 344 101 314Q101 232 137 171T237 76T381 43Q470 43 551 84ZM560 589T608 488Q610 484 607 482L565 467H564Q560 467 556 476Q524 541 463 541Q402
541 358 494T302 371Q299 353 299 336Q299 277 329 243T411 208Q450 208 483 229T541 287L543 288Q546 288 552 284L578 272Q584 269 582 260Q549 215 504 187T405 159Q328 159 283 207T237 336Q237 355 240 376Q249 438 280 486T359 562T460 589Q560 589 608 488Z"
/>
<glyph unicode="&#xaa;" glyph-name="ordfeminine" horiz-adv-x="402" d="M313 749T342 724T372 654Q372 642 371 635L347 471Q345 451 345 446Q345 442 347 418Q348 417 348 415Q348 411 340 411H307Q297 411 297 421L296 453Q296 456 295 456Q294 456 288 450Q258
426 232 416T176 405Q128 405 101 426T74 486Q74 540 118 570T252 608L306 613Q318 615 320 624L322 640Q323 645 323 655Q323 709 251 709Q221 709 198 698T154 659Q152 657 145 660L113 672Q110 675 112 683Q134 715 170 732T255 749Q313 749 342 724ZM126 468T143
456T190 444Q235 444 269 476Q302 499 305 522L312 568V572Q312 577 304 576L260 572Q195 567 161 546T126 488Q126 468 143 456Z" />
<glyph unicode="&#xab;" glyph-name="guillemotleft" horiz-adv-x="436" d="M184 80Q186 76 184 76T178 75H156Q152 75 150 77T147 82L40 249Q34 260 39 267L197 445Q199 448 201 448T205 448H229Q233 448 236 445T236 437L107 262Q99 254 103 248L184 80ZM358
80Q359 79 359 77Q359 75 351 75H330Q326 75 323 77T320 82L214 249Q207 261 213 267L370 445Q373 448 375 448T379 448H403Q407 448 410 445T410 437L280 262Q274 254 277 248L358 80Z" />
<glyph unicode="&#xac;" glyph-name="logicalnot" horiz-adv-x="551" d="M501 370L478 211Q477 205 476 204T468 202H431Q426 202 423 205T422 212L440 346L88 345Q76 345 78 357L83 392Q84 400 90 400H495Q499 400 501 397T504 390L501 370Z" />
<glyph unicode="&#xad;" glyph-name="uni00AD" horiz-adv-x="381" d="M532 247Q530 241 528 239T518 237H293Q280 237 282 248L287 285Q288 293 294 293L528 294Q532 294 535 291T537 284L532 247Z" />
<glyph unicode="&#xae;" glyph-name="registered" horiz-adv-x="545" d="M217 275T169 302T94 376T67 482Q67 504 69 516Q78 581 117 635T215 720T338 752Q398 752 446 725T521 649T548 543Q548 532 546 510Q537 446 498 392T400 307T277 275Q217 275 169 302ZM335
316T383 340T463 410T503 516Q506 534 506 551Q506 624 461 667T339 711Q280 711 232 686T152 616T112 510Q109 491 109 473Q109 400 154 358T277 316Q335 316 383 340ZM378 393T375 393H344Q342 393 341 394T340 398L315 503Q315 504 315 504T309 505H259Q255
505 252 499L238 396Q238 395 238 394T235 393H207Q205 393 204 395T203 399L235 627Q235 630 236 630H337Q371 630 390 617T409 578Q409 549 394 533T355 508Q353 508 351 507T350 505L377 397Q378 393 375 393ZM339 536T353 544T371 570Q372 584 363 591T327
599H272Q271 599 269 599T266 594L258 537Q258 536 260 536H318Q339 536 353 544Z" />
<glyph unicode="&#xaf;" glyph-name="overscore" horiz-adv-x="298" d="M347 682Q345 676 343 675T334 673H78Q73 673 71 676T69 686L73 718Q74 725 80 725H344Q347 725 349 722T351 715L347 682Z" />
<glyph unicode="&#xb0;" glyph-name="degree" horiz-adv-x="464" d="M450 674T427 634T363 570T275 547Q213 547 175 584T137 680Q137 730 160 771T224 835T312 858Q374 858 412 821T450 724Q450 674 427 634ZM396 762T373 784T309 807Q257 807 223 772T188 681Q188
641 210 618T274 595Q327 595 361 631T396 724Q396 762 373 784Z" />
<glyph unicode="&#xb1;" glyph-name="plusminus" horiz-adv-x="551" d="M509 475T511 472T514 464L509 429Q508 423 506 422T495 420H324L300 243Q299 236 292 236H258Q244 236 246 252L270 419H99Q88 419 88 431L94 466Q94 471 95 472T101 474H277L302 648Q303
654 304 655T311 657H346Q351 657 354 655T356 648L332 475H505Q509 475 511 472ZM460 128T462 125T465 117L460 82Q459 76 457 75T447 73L50 72Q38 72 40 84L45 119Q46 124 47 125T52 127L456 128Q460 128 462 125Z" />
<glyph unicode="&#xb2;" glyph-name="uni00B2" horiz-adv-x="452" d="M187 578Q245 629 275 667T305 746Q305 780 280 799T219 819Q188 819 155 803T97 756Q94 751 90 754L63 774Q61 776 65 783Q96 820 138 838T224 857Q279 857 315 830T351 748Q351 712 336 682T294
625T223 558L77 432Q73 430 73 428T78 425H304Q311 425 311 419L307 390Q306 384 301 384H17Q8 384 9 394L12 415Q13 422 16 426T28 439L187 578Z" />
<glyph unicode="&#xb3;" glyph-name="uni00B3" horiz-adv-x="467" d="M89 795T92 798Q127 828 163 842T240 857Q305 857 342 828T379 753Q379 712 352 680T278 633Q275 632 275 630T279 627Q315 618 338 592T361 527Q361 485 338 451T272 398T169 378Q114 378
83 395T24 444Q21 448 24 451L50 470Q51 471 52 471T55 470Q94 416 173 416Q234 416 274 446T315 525Q315 565 282 587T202 610H144Q137 610 139 615L143 643Q143 647 148 647H194Q230 647 262 660T313 697T332 749Q332 780 307 799T239 819Q202 819 176 807T117
770Q113 767 111 767T107 771L92 788Q89 795 92 798Z" />
<glyph unicode="&#xb4;" glyph-name="acute" horiz-adv-x="280" d="M330 705Q331 703 331 700Q331 694 321 691L83 618Q81 617 77 617Q70 617 70 626L65 645Q63 654 68 656L312 751L314 752Q317 752 319 750T322 745L330 705Z" />
<glyph unicode="&#xb6;" glyph-name="paragraph" horiz-adv-x="550" d="M481 697Q479 697 476 695T472 689L364 -80Q364 -81 364 -83T359 -85H325Q321 -85 319 -82T317 -76L425 694Q425 696 424 696T421 697H386Q383 697 380 695T377 689L269 -80Q268 -85 263
-85H228Q225 -85 223 -83T221 -76L274 302Q274 305 273 305Q183 306 134 357T84 486Q84 508 86 519Q94 577 127 628T217 710T349 742H533Q536 742 538 740T539 735L535 700Q535 698 534 698T530 697H481Z" />
<glyph unicode="&#xb7;" glyph-name="middot" horiz-adv-x="189" d="M154 338Q153 331 150 329T138 326H67Q53 326 55 340L66 412Q67 418 68 419T74 421H156Q166 421 164 410L154 338Z" />
<glyph unicode="&#xb8;" glyph-name="cedilla" horiz-adv-x="211" d="M145 -162T113 -184T32 -207Q-16 -207 -47 -184Q-53 -184 -53 -176L-38 -153Q-37 -151 -35 -153T-32 -156Q-11 -172 23 -172Q56 -172 73 -159T91 -121Q91 -103 75 -95T20 -85Q12 -85 12 -78L61
5H103L72 -55Q71 -57 72 -57Q110 -60 127 -77T145 -120Q145 -162 113 -184Z" />
<glyph unicode="&#xb9;" glyph-name="uni00B9" horiz-adv-x="367" d="M225 419T225 413L220 385Q219 380 215 380H1Q-6 380 -4 386L-1 415Q0 419 4 419H89Q93 419 94 423L145 790Q147 796 141 793L55 762Q48 761 49 767L52 789Q52 795 58 798L154 843Q161 847
171 847H194Q202 847 200 839L141 423Q140 419 144 419H219Q225 419 225 413Z" />
<glyph unicode="&#xba;" glyph-name="ordmasculine" horiz-adv-x="414" d="M337 751T373 712T410 607Q410 585 408 574Q397 499 350 453T230 407Q165 407 129 445T92 546Q92 563 95 581Q106 658 154 704T272 751Q337 751 373 712ZM221 709T189 674T149 577Q146
559 146 542Q146 497 167 473T230 448Q281 448 313 484T354 584Q356 595 356 615Q356 659 335 684T272 709Q221 709 189 674Z" />
<glyph unicode="&#xbb;" glyph-name="guillemotright" horiz-adv-x="435" d="M159 259T156 266L76 440Q73 448 80 448H104Q109 448 113 441L220 264Q223 260 223 255Q223 251 219 246L64 78Q61 75 56 75H34Q21 75 24 83L152 252Q159 259 156 266ZM333 259T330
266L249 440Q246 448 254 448H278Q283 448 287 441L394 264Q397 260 397 255Q397 250 393 246L238 78Q235 75 229 75H207Q201 75 199 77T198 83L326 252Q333 259 330 266Z" />
<glyph unicode="&#xbc;" glyph-name="onequarter" horiz-adv-x="878" d="M214 315T214 309L209 281Q208 276 204 276H-10Q-17 276 -15 282L-12 311Q-11 315 -7 315H78Q82 315 83 319L134 686Q136 692 130 689L44 658Q37 657 38 663L41 685Q41 691 47 694L143 739Q150
743 160 743H183Q191 743 189 735L130 319Q129 315 133 315H208Q214 315 214 309ZM166 3Q162 -1 159 -2T148 -4H126Q116 -4 116 5Q116 10 119 14L709 745Q712 751 716 751T723 750H750Q755 750 758 747T757 738L166 3ZM701 467T708 467H744Q751 467 749 459L709
171Q708 167 712 167H774Q781 167 781 160L778 135Q777 132 775 131T770 129H708Q702 129 701 123L686 6Q685 2 684 1T677 0H644Q637 0 638 8L654 125Q656 129 651 129H441Q434 129 435 136L439 165Q440 172 449 182L696 462Q701 467 708 467ZM654 167Q659 167
659 172L691 399V401Q691 403 690 403Q689 403 683 396L487 174Q480 167 487 167H654Z" />
<glyph unicode="&#xbd;" glyph-name="onehalf" horiz-adv-x="939" d="M214 315T214 309L209 281Q208 276 204 276H-10Q-17 276 -15 282L-12 311Q-11 315 -7 315H78Q82 315 83 319L134 686Q136 692 130 689L44 658Q37 657 38 663L41 685Q41 691 47 694L143 739Q150
743 160 743H183Q191 743 189 735L130 319Q129 315 133 315H208Q214 315 214 309ZM183 3Q179 -1 176 -2T165 -4H143Q133 -4 133 5Q133 10 136 14L726 745Q729 751 733 751T740 750H767Q772 750 775 747T774 738L183 3ZM671 194Q729 245 759 283T789 362Q789 396
764 415T703 435Q672 435 639 419T581 372Q578 367 574 370L547 390Q545 392 549 399Q580 436 622 454T708 473Q763 473 799 446T835 364Q835 328 820 298T778 241T707 174L561 48Q557 46 557 44T562 41H788Q795 41 795 35L791 6Q790 0 785 0H501Q492 0 493 10L496
31Q497 38 500 42T512 55L671 194Z" />
<glyph unicode="&#xbe;" glyph-name="threequarters" horiz-adv-x="911" d="M77 690T80 693Q115 723 151 737T228 752Q293 752 330 723T367 648Q367 607 340 575T266 528Q263 527 263 525T267 522Q303 513 326 487T349 422Q349 380 326 346T260 293T157 273Q102
273 71 290T12 339Q9 343 12 346L38 365Q39 366 40 366T43 365Q82 311 161 311Q222 311 262 341T303 420Q303 460 270 482T190 505H132Q125 505 127 510L131 538Q131 542 136 542H182Q218 542 250 555T301 592T320 644Q320 675 295 694T227 714Q190 714 164 702T105
665Q101 662 99 662T95 666L80 683Q77 690 80 693ZM266 3Q262 -1 259 -2T248 -4H226Q216 -4 216 5Q216 10 219 14L809 745Q812 751 816 751T823 750H850Q855 750 858 747T857 738L266 3ZM732 467T739 467H775Q782 467 780 459L740 171Q739 167 743 167H805Q812
167 812 160L809 135Q808 132 806 131T801 129H739Q733 129 732 123L717 6Q716 2 715 1T708 0H675Q668 0 669 8L685 125Q687 129 682 129H472Q465 129 466 136L470 165Q471 172 480 182L727 462Q732 467 739 467ZM685 167Q690 167 690 172L722 399V401Q722 403
721 403Q720 403 714 396L518 174Q511 167 518 167H685Z" />
<glyph unicode="&#xbf;" glyph-name="questiondown" horiz-adv-x="512" d="M260 518Q261 525 264 527T276 530H333Q340 530 343 526T345 516L334 441Q333 436 332 434T326 432H258Q248 432 249 444L260 518ZM435 -36T436 -40T435 -49Q395 -108 329 -141T188 -175Q95
-175 43 -133T-9 -20Q-9 26 8 60T50 117T116 172Q156 202 180 224T223 279T249 355Q251 362 258 362H298Q303 362 306 358T309 347Q302 299 282 263T236 202T169 145Q119 106 94 77T62 4Q61 -2 61 -14Q61 -63 95 -90T191 -118Q246 -118 300 -89T376 -19Q378 -17
381 -17T388 -18L431 -34Q435 -36 436 -40Z" />
<glyph unicode="&#xc0;" glyph-name="Agrave" horiz-adv-x="716" d="M11 0T11 7Q11 12 13 15L376 731Q380 738 383 740T395 742H455Q471 742 473 728L632 12V9Q632 0 623 0H571Q558 0 558 11L511 216Q510 221 509 222T502 223H199Q191 223 186 214L80 7Q79 3 76
2T67 0H19Q11 0 11 7ZM489 284Q500 284 497 296L417 650Q416 659 412 659Q408 659 403 648L223 297Q219 290 219 287T225 284H489ZM326 965T333 963L550 868Q553 866 554 862T555 854L544 834Q542 829 540 829T531 830L314 903Q300 909 305 920L324 960Q326 965
333 963Z" />
<glyph unicode="&#xc1;" glyph-name="Aacute" horiz-adv-x="716" d="M11 0T11 7Q11 12 13 15L376 731Q380 738 383 740T395 742H455Q471 742 473 728L632 12V9Q632 0 623 0H571Q558 0 558 11L511 216Q510 221 509 222T502 223H199Q191 223 186 214L80 7Q79 3 76
2T67 0H19Q11 0 11 7ZM489 284Q500 284 497 296L417 650Q416 659 412 659Q408 659 403 648L223 297Q219 290 219 287T225 284H489ZM577 917Q578 915 578 912Q578 906 568 903L330 830Q328 829 324 829Q317 829 317 838L312 857Q310 866 315 868L559 963L561 964Q564
964 566 962T569 957L577 917Z" />
<glyph unicode="&#xc2;" glyph-name="Acircumflex" horiz-adv-x="716" d="M11 0T11 7Q11 12 13 15L376 731Q380 738 383 740T395 742H455Q471 742 473 728L632 12V9Q632 0 623 0H571Q558 0 558 11L511 216Q510 221 509 222T502 223H199Q191 223 186 214L80 7Q79
3 76 2T67 0H19Q11 0 11 7ZM489 284Q500 284 497 296L417 650Q416 659 412 659Q408 659 403 648L223 297Q219 290 219 287T225 284H489ZM459 905Q453 911 450 911Q447 911 437 902L371 853Q366 850 363 849T358 848T353 848H306Q299 848 299 854Q299 857 303 861L416
947Q428 956 440 956H471Q478 956 482 951T487 945L575 858Q581 852 581 850T575 848H524Q516 848 508 856L459 905Z" />
<glyph unicode="&#xc3;" glyph-name="Atilde" horiz-adv-x="716" d="M11 0T11 7Q11 12 13 15L376 731Q380 738 383 740T395 742H455Q471 742 473 728L632 12V9Q632 0 623 0H571Q558 0 558 11L511 216Q510 221 509 222T502 223H199Q191 223 186 214L80 7Q79 3 76
2T67 0H19Q11 0 11 7ZM489 284Q500 284 497 296L417 650Q416 659 412 659Q408 659 403 648L223 297Q219 290 219 287T225 284H489ZM545 875T508 875Q477 875 441 889Q437 890 422 895T390 900Q373 900 361 895T341 885T328 877L323 876Q316 876 315 885L309 907Q308
909 308 913Q308 915 311 921Q334 934 349 940T386 946Q412 946 452 932Q485 919 509 919Q527 919 539 924T567 939Q571 941 574 941Q581 941 583 932L588 906L589 902Q589 898 583 893Q545 875 508 875Z" />
<glyph unicode="&#xc4;" glyph-name="Adieresis" horiz-adv-x="716" d="M11 0T11 7Q11 12 13 15L376 731Q380 738 383 740T395 742H455Q471 742 473 728L632 12V9Q632 0 623 0H571Q558 0 558 11L511 216Q510 221 509 222T502 223H199Q191 223 186 214L80 7Q79
3 76 2T67 0H19Q11 0 11 7ZM489 284Q500 284 497 296L417 650Q416 659 412 659Q408 659 403 648L223 297Q219 290 219 287T225 284H489ZM410 861Q409 853 406 851T394 849H352Q339 849 340 862L352 944Q353 951 354 952T362 954H411Q423 954 421 941L410 861ZM542
861Q541 853 538 851T526 849H484Q471 849 472 862L484 944Q485 951 486 952T494 954H543Q548 954 550 951T552 941L542 861Z" />
<glyph unicode="&#xc5;" glyph-name="Aring" horiz-adv-x="716" d="M11 0T11 7Q11 12 13 15L376 731Q380 738 383 740T395 742H455Q471 742 473 728L632 12V9Q632 0 623 0H571Q558 0 558 11L511 216Q510 221 509 222T502 223H199Q191 223 186 214L80 7Q79 3 76
2T67 0H19Q11 0 11 7ZM489 284Q500 284 497 296L417 650Q416 659 412 659Q408 659 403 648L223 297Q219 290 219 287T225 284H489ZM539 826T505 793T424 760Q384 760 359 786T333 851Q333 862 334 868Q339 908 372 935T447 963Q487 963 513 938T539 874Q539 826
505 793ZM492 894T479 906T445 918Q419 918 398 899T377 851Q377 831 390 818T423 804Q450 804 471 826T492 875Q492 894 479 906Z" />
<glyph unicode="&#xc6;" glyph-name="AE" horiz-adv-x="990" d="M913 60T910 49L905 8Q904 3 903 2T896 0H474Q460 0 462 14L491 218Q491 221 490 222T486 223H241Q234 223 227 213L80 7Q77 3 74 2T65 0H20Q14 0 12 4T13 15L519 731Q523 738 527 740T539 742H984Q989
742 991 739T992 731L986 690Q985 685 983 684T976 682H644Q632 682 629 669L593 412V409Q593 404 601 404H856Q861 404 863 401T865 394L859 352Q859 347 858 346T850 345H596Q584 345 582 333L545 68Q544 66 544 63Q544 61 546 61T552 60H900Q913 60 910 49ZM494
284T497 287T502 296L552 657V661Q552 667 549 667Q545 667 534 653L276 292Q275 291 273 288T271 285T276 284H489Q494 284 497 287Z" />
<glyph unicode="&#xc7;" glyph-name="Ccedilla" horiz-adv-x="702" d="M680 545Q680 537 672 537L616 533Q608 533 607 546Q600 612 556 652T441 692Q342 692 278 630T185 472T156 275Q156 52 351 52Q426 52 481 88T576 201Q579 207 588 204L635 190Q642 187 638
176Q603 100 529 47T359 -10L336 -55Q335 -57 336 -57Q374 -60 391 -77T409 -120Q409 -162 377 -184T296 -207Q248 -207 217 -184Q211 -184 211 -176L226 -153Q227 -151 229 -153T232 -156Q253 -172 287 -172Q320 -172 337 -159T355 -121Q355 -103 339 -95T284
-85Q276 -85 276 -78L317 -9Q203 -1 141 75T79 283Q79 400 118 507T238 683T442 752Q506 752 561 724T648 649T680 547V545Z" />
<glyph unicode="&#xc8;" glyph-name="Egrave" horiz-adv-x="622" d="M171 739T172 740T180 742H618Q626 742 624 731L619 692Q618 686 615 684T606 682H248Q242 682 240 680T236 672L200 412V409Q200 406 201 405T207 404H482Q487 404 488 402T489 395L482 353Q481
348 479 347T472 345H200Q194 345 192 343T189 334L152 69V65Q152 62 153 61T158 60H533Q539 60 541 58T542 50L537 8Q536 3 534 2T527 0H80Q67 0 68 14L170 732Q171 739 172 740ZM313 965T320 963L537 868Q540 866 541 862T542 854L531 834Q529 829 527 829T518
830L301 903Q287 909 292 920L311 960Q313 965 320 963Z" />
<glyph unicode="&#xc9;" glyph-name="Eacute" horiz-adv-x="622" d="M171 739T172 740T180 742H618Q626 742 624 731L619 692Q618 686 615 684T606 682H248Q242 682 240 680T236 672L200 412V409Q200 406 201 405T207 404H482Q487 404 488 402T489 395L482 353Q481
348 479 347T472 345H200Q194 345 192 343T189 334L152 69V65Q152 62 153 61T158 60H533Q539 60 541 58T542 50L537 8Q536 3 534 2T527 0H80Q67 0 68 14L170 732Q171 739 172 740ZM564 917Q565 915 565 912Q565 906 555 903L317 830Q315 829 311 829Q304 829 304
838L299 857Q297 866 302 868L546 963L548 964Q551 964 553 962T556 957L564 917Z" />
<glyph unicode="&#xca;" glyph-name="Ecircumflex" horiz-adv-x="622" d="M171 739T172 740T180 742H618Q626 742 624 731L619 692Q618 686 615 684T606 682H248Q242 682 240 680T236 672L200 412V409Q200 406 201 405T207 404H482Q487 404 488 402T489 395L482
353Q481 348 479 347T472 345H200Q194 345 192 343T189 334L152 69V65Q152 62 153 61T158 60H533Q539 60 541 58T542 50L537 8Q536 3 534 2T527 0H80Q67 0 68 14L170 732Q171 739 172 740ZM446 905Q440 911 437 911Q434 911 424 902L358 853Q353 850 350 849T345
848T340 848H293Q286 848 286 854Q286 857 290 861L403 947Q415 956 427 956H458Q465 956 469 951T474 945L562 858Q568 852 568 850T562 848H511Q503 848 495 856L446 905Z" />
<glyph unicode="&#xcb;" glyph-name="Edieresis" horiz-adv-x="622" d="M171 739T172 740T180 742H618Q626 742 624 731L619 692Q618 686 615 684T606 682H248Q242 682 240 680T236 672L200 412V409Q200 406 201 405T207 404H482Q487 404 488 402T489 395L482
353Q481 348 479 347T472 345H200Q194 345 192 343T189 334L152 69V65Q152 62 153 61T158 60H533Q539 60 541 58T542 50L537 8Q536 3 534 2T527 0H80Q67 0 68 14L170 732Q171 739 172 740ZM397 861Q396 853 393 851T381 849H339Q326 849 327 862L339 944Q340 951
341 952T349 954H398Q410 954 408 941L397 861ZM529 861Q528 853 525 851T513 849H471Q458 849 459 862L471 944Q472 951 473 952T481 954H530Q535 954 537 951T539 941L529 861Z" />
<glyph unicode="&#xcc;" glyph-name="Igrave" horiz-adv-x="283" d="M235 742Q247 742 244 728L144 13Q142 4 140 2T128 0H81Q66 0 68 14L170 732Q171 739 172 740T180 742H235ZM113 965T120 963L337 868Q340 866 341 862T342 854L331 834Q329 829 327 829T318
830L101 903Q87 909 92 920L111 960Q113 965 120 963Z" />
<glyph unicode="&#xcd;" glyph-name="Iacute" horiz-adv-x="283" d="M235 742Q247 742 244 728L144 13Q142 4 140 2T128 0H81Q66 0 68 14L170 732Q171 739 172 740T180 742H235ZM364 917Q365 915 365 912Q365 906 355 903L117 830Q115 829 111 829Q104 829 104
838L99 857Q97 866 102 868L346 963L348 964Q351 964 353 962T356 957L364 917Z" />
<glyph unicode="&#xce;" glyph-name="Icircumflex" horiz-adv-x="283" d="M235 742Q247 742 244 728L144 13Q142 4 140 2T128 0H81Q66 0 68 14L170 732Q171 739 172 740T180 742H235ZM246 905Q240 911 237 911Q234 911 224 902L158 853Q153 850 150 849T145 848T140
848H93Q86 848 86 854Q86 857 90 861L203 947Q215 956 227 956H258Q265 956 269 951T274 945L362 858Q368 852 368 850T362 848H311Q303 848 295 856L246 905Z" />
<glyph unicode="&#xcf;" glyph-name="Idieresis" horiz-adv-x="283" d="M235 742Q247 742 244 728L144 13Q142 4 140 2T128 0H81Q66 0 68 14L170 732Q171 739 172 740T180 742H235ZM197 861Q196 853 193 851T181 849H139Q126 849 127 862L139 944Q140 951 141
952T149 954H198Q210 954 208 941L197 861ZM329 861Q328 853 325 851T313 849H271Q258 849 259 862L271 944Q272 951 273 952T281 954H330Q335 954 337 951T339 941L329 861Z" />
<glyph unicode="&#xd0;" glyph-name="Eth" horiz-adv-x="680" d="M462 742T547 671T632 459Q632 236 519 118T181 0H47Q40 0 37 4T35 15L81 343H58Q44 343 46 358L51 392Q52 397 54 399T60 401H89L136 733Q137 742 149 742H284Q462 742 547 671ZM377 59T465 160T553
461Q553 582 487 632T277 682H214Q208 682 206 680T202 670L165 401H365Q369 401 372 398T374 390L369 355Q368 348 365 346T353 343H157L119 73L118 68Q118 59 130 59H183Q377 59 465 160Z" />
<glyph unicode="&#xd1;" glyph-name="Ntilde" horiz-adv-x="756" d="M708 742Q714 742 716 740T717 730L616 9Q615 0 605 0H570Q557 0 551 9L230 598Q227 604 223 604Q219 604 217 595L135 10Q134 4 132 2T123 0H78Q66 0 68 13L170 732Q171 739 172 740T181 742H222Q233
742 239 732L554 150Q558 143 563 143Q569 143 570 154L651 733Q653 739 654 740T661 742H708ZM580 875T543 875Q512 875 476 889Q472 890 457 895T425 900Q408 900 396 895T376 885T363 877L358 876Q351 876 350 885L344 907Q343 909 343 913Q343 915 346 921Q369
934 384 940T421 946Q447 946 487 932Q520 919 544 919Q562 919 574 924T602 939Q606 941 609 941Q616 941 618 932L623 906L624 902Q624 898 618 893Q580 875 543 875Z" />
<glyph unicode="&#xd2;" glyph-name="Ograve" horiz-adv-x="762" d="M217 -10T148 64T79 278Q79 325 86 371Q111 553 206 652T447 752Q573 752 642 676T712 458Q712 411 705 366Q680 185 585 88T345 -10Q217 -10 148 64ZM465 51T535 130T628 372Q635 422 635 471Q635
692 445 692Q329 692 258 611T163 365Q156 317 156 271Q156 51 349 51Q465 51 535 130ZM351 965T358 963L575 868Q578 866 579 862T580 854L569 834Q567 829 565 829T556 830L339 903Q325 909 330 920L349 960Q351 965 358 963Z" />
<glyph unicode="&#xd3;" glyph-name="Oacute" horiz-adv-x="762" d="M217 -10T148 64T79 278Q79 325 86 371Q111 553 206 652T447 752Q573 752 642 676T712 458Q712 411 705 366Q680 185 585 88T345 -10Q217 -10 148 64ZM465 51T535 130T628 372Q635 422 635 471Q635
692 445 692Q329 692 258 611T163 365Q156 317 156 271Q156 51 349 51Q465 51 535 130ZM602 917Q603 915 603 912Q603 906 593 903L355 830Q353 829 349 829Q342 829 342 838L337 857Q335 866 340 868L584 963L586 964Q589 964 591 962T594 957L602 917Z" />
<glyph unicode="&#xd4;" glyph-name="Ocircumflex" horiz-adv-x="762" d="M217 -10T148 64T79 278Q79 325 86 371Q111 553 206 652T447 752Q573 752 642 676T712 458Q712 411 705 366Q680 185 585 88T345 -10Q217 -10 148 64ZM465 51T535 130T628 372Q635 422
635 471Q635 692 445 692Q329 692 258 611T163 365Q156 317 156 271Q156 51 349 51Q465 51 535 130ZM484 905Q478 911 475 911Q472 911 462 902L396 853Q391 850 388 849T383 848T378 848H331Q324 848 324 854Q324 857 328 861L441 947Q453 956 465 956H496Q503
956 507 951T512 945L600 858Q606 852 606 850T600 848H549Q541 848 533 856L484 905Z" />
<glyph unicode="&#xd5;" glyph-name="Otilde" horiz-adv-x="762" d="M217 -10T148 64T79 278Q79 325 86 371Q111 553 206 652T447 752Q573 752 642 676T712 458Q712 411 705 366Q680 185 585 88T345 -10Q217 -10 148 64ZM465 51T535 130T628 372Q635 422 635 471Q635
692 445 692Q329 692 258 611T163 365Q156 317 156 271Q156 51 349 51Q465 51 535 130ZM570 875T533 875Q502 875 466 889Q462 890 447 895T415 900Q398 900 386 895T366 885T353 877L348 876Q341 876 340 885L334 907Q333 909 333 913Q333 915 336 921Q359 934
374 940T411 946Q437 946 477 932Q510 919 534 919Q552 919 564 924T592 939Q596 941 599 941Q606 941 608 932L613 906L614 902Q614 898 608 893Q570 875 533 875Z" />
<glyph unicode="&#xd6;" glyph-name="Odieresis" horiz-adv-x="762" d="M217 -10T148 64T79 278Q79 325 86 371Q111 553 206 652T447 752Q573 752 642 676T712 458Q712 411 705 366Q680 185 585 88T345 -10Q217 -10 148 64ZM465 51T535 130T628 372Q635 422 635
471Q635 692 445 692Q329 692 258 611T163 365Q156 317 156 271Q156 51 349 51Q465 51 535 130ZM435 861Q434 853 431 851T419 849H377Q364 849 365 862L377 944Q378 951 379 952T387 954H436Q448 954 446 941L435 861ZM567 861Q566 853 563 851T551 849H509Q496
849 497 862L509 944Q510 951 511 952T519 954H568Q573 954 575 951T577 941L567 861Z" />
<glyph unicode="&#xd7;" glyph-name="multiply" horiz-adv-x="530" d="M503 532T500 529L319 370L452 215Q454 212 455 209T453 203L425 178Q423 176 419 176Q414 176 407 183L277 333L98 176L94 175Q91 175 87 179L65 204Q61 210 61 212Q61 217 66 222L241 375L109
528Q106 533 106 536T109 543L137 568Q141 571 143 571T149 567L283 412L461 568Q466 571 468 571Q472 571 475 565L497 540Q503 532 500 529Z" />
<glyph unicode="&#xd8;" glyph-name="Oslash" horiz-adv-x="721" d="M762 718T764 714T763 705L663 610Q692 547 692 458Q692 412 685 366Q660 185 565 88T324 -10Q255 -10 203 13T117 79L34 -3Q28 -9 24 -9Q19 -9 12 -2L-6 18Q-12 26 -13 29T-10 37L87 129Q58
197 58 282Q58 326 65 371Q91 553 186 652T426 752Q564 752 634 660L720 746Q723 750 727 750Q731 750 735 746L762 719Q762 718 764 714ZM139 319T139 280Q139 228 150 187L583 613Q537 691 424 691Q193 691 145 365Q139 319 139 280ZM611 417T611 457Q611 513
599 553L168 128Q215 51 329 51Q445 51 513 130T605 372Q611 417 611 457Z" />
<glyph unicode="&#xd9;" glyph-name="Ugrave" horiz-adv-x="706" d="M590 111T518 51T317 -10Q200 -10 144 39T88 191Q88 218 93 258L160 731Q161 738 163 740T170 742H224Q237 742 234 728L165 234Q162 210 162 191Q162 120 202 86T324 51Q518 51 545 241L614
733Q615 739 616 740T623 742H668Q673 742 675 739T677 729L608 238Q590 111 518 51ZM328 965T335 963L552 868Q555 866 556 862T557 854L546 834Q544 829 542 829T533 830L316 903Q302 909 307 920L326 960Q328 965 335 963Z" />
<glyph unicode="&#xda;" glyph-name="Uacute" horiz-adv-x="706" d="M590 111T518 51T317 -10Q200 -10 144 39T88 191Q88 218 93 258L160 731Q161 738 163 740T170 742H224Q237 742 234 728L165 234Q162 210 162 191Q162 120 202 86T324 51Q518 51 545 241L614
733Q615 739 616 740T623 742H668Q673 742 675 739T677 729L608 238Q590 111 518 51ZM579 917Q580 915 580 912Q580 906 570 903L332 830Q330 829 326 829Q319 829 319 838L314 857Q312 866 317 868L561 963L563 964Q566 964 568 962T571 957L579 917Z" />
<glyph unicode="&#xdb;" glyph-name="Ucircumflex" horiz-adv-x="706" d="M590 111T518 51T317 -10Q200 -10 144 39T88 191Q88 218 93 258L160 731Q161 738 163 740T170 742H224Q237 742 234 728L165 234Q162 210 162 191Q162 120 202 86T324 51Q518 51 545 241L614
733Q615 739 616 740T623 742H668Q673 742 675 739T677 729L608 238Q590 111 518 51ZM461 905Q455 911 452 911Q449 911 439 902L373 853Q368 850 365 849T360 848T355 848H308Q301 848 301 854Q301 857 305 861L418 947Q430 956 442 956H473Q480 956 484 951T489
945L577 858Q583 852 583 850T577 848H526Q518 848 510 856L461 905Z" />
<glyph unicode="&#xdc;" glyph-name="Udieresis" horiz-adv-x="706" d="M590 111T518 51T317 -10Q200 -10 144 39T88 191Q88 218 93 258L160 731Q161 738 163 740T170 742H224Q237 742 234 728L165 234Q162 210 162 191Q162 120 202 86T324 51Q518 51 545 241L614
733Q615 739 616 740T623 742H668Q673 742 675 739T677 729L608 238Q590 111 518 51ZM412 861Q411 853 408 851T396 849H354Q341 849 342 862L354 944Q355 951 356 952T364 954H413Q425 954 423 941L412 861ZM544 861Q543 853 540 851T528 849H486Q473 849 474
862L486 944Q487 951 488 952T496 954H545Q550 954 552 951T554 941L544 861Z" />
<glyph unicode="&#xdd;" glyph-name="Yacute" horiz-adv-x="660" d="M681 742T682 738T680 728L385 327Q378 316 376 299L335 14Q334 6 330 3T316 0H270Q257 0 260 14L299 296Q300 301 300 308Q300 315 298 319L112 729Q110 735 110 736Q110 742 121 742H173Q181
742 184 739T191 729L339 394Q344 384 349 384Q353 384 361 394L605 733Q609 739 613 740T625 742H675Q681 742 682 738ZM548 917Q549 915 549 912Q549 906 539 903L301 830Q299 829 295 829Q288 829 288 838L283 857Q281 866 286 868L530 963L532 964Q535 964
537 962T540 957L548 917Z" />
<glyph unicode="&#xde;" glyph-name="Thorn" horiz-adv-x="684" d="M630 278T553 227T354 176H177Q167 176 165 164L144 10Q142 4 140 2T132 0H79Q74 0 71 4T68 13L170 732Q171 739 172 740T180 742H234Q247 742 244 728L225 588Q224 585 225 585T229 584H400Q513
584 579 542T646 416Q646 395 644 384Q630 278 553 227ZM570 407T570 415Q570 473 525 498T392 524H229Q216 524 214 512L176 245V241Q176 237 177 236T182 235H354Q444 235 500 273T568 391Q570 407 570 415Z" />
<glyph unicode="&#xdf;" glyph-name="germandbls" horiz-adv-x="597" d="M458 742T494 709T531 623Q531 615 529 601Q524 565 506 541T465 504T395 467Q348 445 332 433T312 398Q310 378 321 370T370 347Q418 331 451 315T509 267T535 185Q535 178 533 158Q521
78 461 34T317 -10Q281 -10 246 -1T189 23Q178 28 182 35L208 69Q210 71 210 71Q215 71 217 66Q241 54 262 48T312 42Q377 42 419 73T469 159Q470 165 470 177Q470 208 454 228T415 259T351 286Q305 301 280 320T254 379Q254 422 278 449T362 508Q368 511 400 526T449
566T466 622Q466 654 442 672T371 690Q304 690 259 650T203 533L129 10Q129 4 128 2T120 0H73Q68 0 66 3T64 12L127 465Q128 470 127 471T122 473H66Q62 473 60 476T57 483L62 518Q64 524 70 524H126Q135 524 137 538Q151 631 215 686T380 742Q458 742 494 709Z"
/>
<glyph unicode="&#xe0;" glyph-name="agrave" horiz-adv-x="544" d="M283 -10T175 -10Q104 -10 64 24T23 115Q23 211 104 257T305 312L395 319Q404 320 409 324T416 336L420 365Q422 379 422 387Q422 435 391 462T305 489Q212 489 138 402Q135 399 133 399T126
400L87 417Q82 419 82 424Q82 427 85 433Q123 483 180 511T310 540Q395 540 440 502T486 396Q486 386 484 366L434 11Q433 4 431 2T422 0H385Q374 0 374 14L380 67Q380 72 378 72Q374 72 368 65Q283 -10 175 -10ZM405 261V265Q405 271 403 273T394 274L316 268Q91
249 91 124Q91 86 119 64T197 42Q231 42 265 54T328 87Q356 107 373 129T393 173L405 261ZM210 753T217 751L434 656Q437 654 438 650T439 642L428 622Q426 617 424 617T415 618L198 691Q184 697 189 708L208 748Q210 753 217 751Z" />
<glyph unicode="&#xe1;" glyph-name="aacute" horiz-adv-x="544" d="M283 -10T175 -10Q104 -10 64 24T23 115Q23 211 104 257T305 312L395 319Q404 320 409 324T416 336L420 365Q422 379 422 387Q422 435 391 462T305 489Q212 489 138 402Q135 399 133 399T126
400L87 417Q82 419 82 424Q82 427 85 433Q123 483 180 511T310 540Q395 540 440 502T486 396Q486 386 484 366L434 11Q433 4 431 2T422 0H385Q374 0 374 14L380 67Q380 72 378 72Q374 72 368 65Q283 -10 175 -10ZM405 261V265Q405 271 403 273T394 274L316 268Q91
249 91 124Q91 86 119 64T197 42Q231 42 265 54T328 87Q356 107 373 129T393 173L405 261ZM461 705Q462 703 462 700Q462 694 452 691L214 618Q212 617 208 617Q201 617 201 626L196 645Q194 654 199 656L443 751L445 752Q448 752 450 750T453 745L461 705Z" />
<glyph unicode="&#xe2;" glyph-name="acircumflex" horiz-adv-x="544" d="M283 -10T175 -10Q104 -10 64 24T23 115Q23 211 104 257T305 312L395 319Q404 320 409 324T416 336L420 365Q422 379 422 387Q422 435 391 462T305 489Q212 489 138 402Q135 399 133 399T126
400L87 417Q82 419 82 424Q82 427 85 433Q123 483 180 511T310 540Q395 540 440 502T486 396Q486 386 484 366L434 11Q433 4 431 2T422 0H385Q374 0 374 14L380 67Q380 72 378 72Q374 72 368 65Q283 -10 175 -10ZM405 261V265Q405 271 403 273T394 274L316 268Q91
249 91 124Q91 86 119 64T197 42Q231 42 265 54T328 87Q356 107 373 129T393 173L405 261ZM343 693Q337 699 334 699Q331 699 321 690L255 641Q250 638 247 637T242 636T237 636H190Q183 636 183 642Q183 645 187 649L300 735Q312 744 324 744H355Q362 744 366
739T371 733L459 646Q465 640 465 638T459 636H408Q400 636 392 644L343 693Z" />
<glyph unicode="&#xe3;" glyph-name="atilde" horiz-adv-x="544" d="M283 -10T175 -10Q104 -10 64 24T23 115Q23 211 104 257T305 312L395 319Q404 320 409 324T416 336L420 365Q422 379 422 387Q422 435 391 462T305 489Q212 489 138 402Q135 399 133 399T126
400L87 417Q82 419 82 424Q82 427 85 433Q123 483 180 511T310 540Q395 540 440 502T486 396Q486 386 484 366L434 11Q433 4 431 2T422 0H385Q374 0 374 14L380 67Q380 72 378 72Q374 72 368 65Q283 -10 175 -10ZM405 261V265Q405 271 403 273T394 274L316 268Q91
249 91 124Q91 86 119 64T197 42Q231 42 265 54T328 87Q356 107 373 129T393 173L405 261ZM429 663T392 663Q361 663 325 677Q321 678 306 683T274 688Q257 688 245 683T225 673T212 665L207 664Q200 664 199 673L193 695Q192 697 192 701Q192 703 195 709Q218
722 233 728T270 734Q296 734 336 720Q369 707 393 707Q411 707 423 712T451 727Q455 729 458 729Q465 729 467 720L472 694L473 690Q473 686 467 681Q429 663 392 663Z" />
<glyph unicode="&#xe4;" glyph-name="adieresis" horiz-adv-x="544" d="M283 -10T175 -10Q104 -10 64 24T23 115Q23 211 104 257T305 312L395 319Q404 320 409 324T416 336L420 365Q422 379 422 387Q422 435 391 462T305 489Q212 489 138 402Q135 399 133 399T126
400L87 417Q82 419 82 424Q82 427 85 433Q123 483 180 511T310 540Q395 540 440 502T486 396Q486 386 484 366L434 11Q433 4 431 2T422 0H385Q374 0 374 14L380 67Q380 72 378 72Q374 72 368 65Q283 -10 175 -10ZM405 261V265Q405 271 403 273T394 274L316 268Q91
249 91 124Q91 86 119 64T197 42Q231 42 265 54T328 87Q356 107 373 129T393 173L405 261ZM294 649Q293 641 290 639T278 637H236Q223 637 224 650L236 732Q237 739 238 740T246 742H295Q307 742 305 729L294 649ZM426 649Q425 641 422 639T410 637H368Q355 637
356 650L368 732Q369 739 370 740T378 742H427Q432 742 434 739T436 729L426 649Z" />
<glyph unicode="&#xe5;" glyph-name="aring" horiz-adv-x="544" d="M283 -10T175 -10Q104 -10 64 24T23 115Q23 211 104 257T305 312L395 319Q404 320 409 324T416 336L420 365Q422 379 422 387Q422 435 391 462T305 489Q212 489 138 402Q135 399 133 399T126
400L87 417Q82 419 82 424Q82 427 85 433Q123 483 180 511T310 540Q395 540 440 502T486 396Q486 386 484 366L434 11Q433 4 431 2T422 0H385Q374 0 374 14L380 67Q380 72 378 72Q374 72 368 65Q283 -10 175 -10ZM405 261V265Q405 271 403 273T394 274L316 268Q91
249 91 124Q91 86 119 64T197 42Q231 42 265 54T328 87Q356 107 373 129T393 173L405 261ZM435 663T401 630T320 597Q280 597 255 623T229 688Q229 699 230 705Q235 745 268 772T343 800Q383 800 409 775T435 711Q435 663 401 630ZM388 731T375 743T341 755Q315
755 294 736T273 688Q273 668 286 655T319 641Q346 641 367 663T388 712Q388 731 375 743Z" />
<glyph unicode="&#xe6;" glyph-name="ae" horiz-adv-x="927" d="M473 249T468 244T461 222Q459 208 459 200Q459 160 479 124T535 65T617 43Q680 43 719 67T796 133Q800 136 802 136T805 135T808 133L839 114Q847 110 842 100Q803 48 743 19T609 -10Q531 -10 489
23T418 105L416 106Q413 106 411 99Q362 50 309 20T173 -10Q101 -10 62 23T22 115Q22 123 24 141Q35 215 102 258T294 312L392 319Q401 320 407 324T415 336L419 365Q421 381 421 388Q421 436 390 462T300 489Q212 489 136 401Q132 397 131 397T127 398T123 400L86
417Q82 419 82 425L84 433Q123 484 181 512T310 540Q454 540 472 434Q510 487 563 513T682 540Q777 540 832 484T887 324Q887 294 883 267Q881 257 878 254T863 250L485 249Q473 249 468 244ZM630 489T586 465T511 397T473 296L801 297Q813 297 816 301T822 316Q824
334 824 342Q824 405 785 447T680 489Q630 489 586 465ZM405 265Q405 273 392 272L309 266Q91 248 91 122Q91 85 115 64T186 42Q236 42 282 60T357 109T392 176L404 259L405 265Z" />
<glyph unicode="&#xe7;" glyph-name="ccedilla" horiz-adv-x="540" d="M521 415T521 413Q521 409 516 407L474 395H472Q468 395 463 405Q433 449 404 468T335 488Q267 488 217 448T141 345T114 213Q114 133 155 88T268 42Q318 42 359 66T439 140Q444 146 450 142L483
126Q486 124 487 120T487 112Q448 58 394 26T275 -10L252 -55Q251 -57 252 -57Q290 -60 307 -77T325 -120Q325 -162 293 -184T212 -207Q164 -207 133 -184Q127 -184 127 -176L142 -153Q143 -151 145 -153T148 -156Q169 -172 203 -172Q236 -172 253 -159T271 -121Q271
-103 255 -95T200 -85Q192 -85 192 -78L233 -9Q147 0 97 60T47 215Q47 297 81 371T181 493T332 540Q467 540 519 419Q521 415 521 413Z" />
<glyph unicode="&#xe8;" glyph-name="egrave" horiz-adv-x="579" d="M164 -10T105 51T46 213Q46 297 81 372T182 493T335 540Q431 540 485 484T539 326Q539 295 535 267Q533 250 516 250H125Q118 250 115 241T112 205Q112 132 156 88T270 43Q379 43 447 132Q453
138 461 133L492 114Q501 109 495 100Q449 43 393 17T264 -10Q164 -10 105 51ZM455 296Q466 296 471 305T477 343Q477 409 438 449T333 489Q277 489 232 461T158 389T124 296H455ZM237 753T244 751L461 656Q464 654 465 650T466 642L455 622Q453 617 451 617T442
618L225 691Q211 697 216 708L235 748Q237 753 244 751Z" />
<glyph unicode="&#xe9;" glyph-name="eacute" horiz-adv-x="579" d="M164 -10T105 51T46 213Q46 297 81 372T182 493T335 540Q431 540 485 484T539 326Q539 295 535 267Q533 250 516 250H125Q118 250 115 241T112 205Q112 132 156 88T270 43Q379 43 447 132Q453
138 461 133L492 114Q501 109 495 100Q449 43 393 17T264 -10Q164 -10 105 51ZM455 296Q466 296 471 305T477 343Q477 409 438 449T333 489Q277 489 232 461T158 389T124 296H455ZM488 705Q489 703 489 700Q489 694 479 691L241 618Q239 617 235 617Q228 617 228
626L223 645Q221 654 226 656L470 751L472 752Q475 752 477 750T480 745L488 705Z" />
<glyph unicode="&#xea;" glyph-name="ecircumflex" horiz-adv-x="579" d="M164 -10T105 51T46 213Q46 297 81 372T182 493T335 540Q431 540 485 484T539 326Q539 295 535 267Q533 250 516 250H125Q118 250 115 241T112 205Q112 132 156 88T270 43Q379 43 447 132Q453
138 461 133L492 114Q501 109 495 100Q449 43 393 17T264 -10Q164 -10 105 51ZM455 296Q466 296 471 305T477 343Q477 409 438 449T333 489Q277 489 232 461T158 389T124 296H455ZM370 693Q364 699 361 699Q358 699 348 690L282 641Q277 638 274 637T269 636T264
636H217Q210 636 210 642Q210 645 214 649L327 735Q339 744 351 744H382Q389 744 393 739T398 733L486 646Q492 640 492 638T486 636H435Q427 636 419 644L370 693Z" />
<glyph unicode="&#xeb;" glyph-name="edieresis" horiz-adv-x="579" d="M164 -10T105 51T46 213Q46 297 81 372T182 493T335 540Q431 540 485 484T539 326Q539 295 535 267Q533 250 516 250H125Q118 250 115 241T112 205Q112 132 156 88T270 43Q379 43 447 132Q453
138 461 133L492 114Q501 109 495 100Q449 43 393 17T264 -10Q164 -10 105 51ZM455 296Q466 296 471 305T477 343Q477 409 438 449T333 489Q277 489 232 461T158 389T124 296H455ZM321 649Q320 641 317 639T305 637H263Q250 637 251 650L263 732Q264 739 265 740T273
742H322Q334 742 332 729L321 649ZM453 649Q452 641 449 639T437 637H395Q382 637 383 650L395 732Q396 739 397 740T405 742H454Q459 742 461 739T463 729L453 649Z" />
<glyph unicode="&#xec;" glyph-name="igrave" horiz-adv-x="232" d="M113 13Q112 4 110 2T98 0H61Q45 0 47 14L119 520Q120 527 121 528T129 530H174Q187 530 185 517L113 13ZM55 753T62 751L279 656Q282 654 283 650T284 642L273 622Q271 617 269 617T260 618L43
691Q29 697 34 708L53 748Q55 753 62 751Z" />
<glyph unicode="&#xed;" glyph-name="iacute" horiz-adv-x="232" d="M113 13Q112 4 110 2T98 0H61Q45 0 47 14L119 520Q120 527 121 528T129 530H174Q187 530 185 517L113 13ZM306 705Q307 703 307 700Q307 694 297 691L59 618Q57 617 53 617Q46 617 46 626L41
645Q39 654 44 656L288 751L290 752Q293 752 295 750T298 745L306 705Z" />
<glyph unicode="&#xee;" glyph-name="icircumflex" horiz-adv-x="232" d="M113 13Q112 4 110 2T98 0H61Q45 0 47 14L119 520Q120 527 121 528T129 530H174Q187 530 185 517L113 13ZM188 693Q182 699 179 699Q176 699 166 690L100 641Q95 638 92 637T87 636T82
636H35Q28 636 28 642Q28 645 32 649L145 735Q157 744 169 744H200Q207 744 211 739T216 733L304 646Q310 640 310 638T304 636H253Q245 636 237 644L188 693Z" />
<glyph unicode="&#xef;" glyph-name="idieresis" horiz-adv-x="232" d="M113 13Q112 4 110 2T98 0H61Q45 0 47 14L119 520Q120 527 121 528T129 530H174Q187 530 185 517L113 13ZM139 649Q138 641 135 639T123 637H81Q68 637 69 650L81 732Q82 739 83 740T91 742H140Q152
742 150 729L139 649ZM271 649Q270 641 267 639T255 637H213Q200 637 201 650L213 732Q214 739 215 740T223 742H272Q277 742 279 739T281 729L271 649Z" />
<glyph unicode="&#xf0;" glyph-name="eth" horiz-adv-x="598" d="M536 178T498 118T398 24T261 -10Q196 -10 147 17T72 94T46 208Q46 231 49 255Q59 331 98 391T197 486T325 520Q413 520 465 465Q433 569 338 640L168 550L163 548Q159 548 155 557L147 573Q142
582 148 585L303 665Q270 685 204 716Q199 716 197 720T199 727L231 748Q236 752 240 752Q244 752 248 748Q311 725 359 693L466 751Q467 752 470 752Q472 752 474 751T476 747L487 722Q487 721 488 719T487 714L394 668Q553 548 553 342Q553 300 547 256Q536 178
498 118ZM319 43T364 71T440 148T479 258Q482 278 482 297Q482 373 441 420T331 468Q279 468 233 440T156 361T116 251Q114 239 114 215Q114 139 156 91T267 43Q319 43 364 71Z" />
<glyph unicode="&#xf1;" glyph-name="ntilde" horiz-adv-x="581" d="M45 0T47 13L119 521Q120 527 121 528T128 530H174Q183 530 182 520L173 461V458Q173 454 174 454T181 457Q234 499 281 519T379 540Q449 540 486 507T524 415Q524 407 522 389L469 11Q467 4
465 2T456 0H413Q401 0 403 13L454 374Q456 392 456 401Q456 485 360 485Q314 485 275 466T169 398L113 10Q112 4 110 2T100 0H58Q45 0 47 13ZM461 663T424 663Q393 663 357 677Q353 678 338 683T306 688Q289 688 277 683T257 673T244 665L239 664Q232 664 231
673L225 695Q224 697 224 701Q224 703 227 709Q250 722 265 728T302 734Q328 734 368 720Q401 707 425 707Q443 707 455 712T483 727Q487 729 490 729Q497 729 499 720L504 694L505 690Q505 686 499 681Q461 663 424 663Z" />
<glyph unicode="&#xf2;" glyph-name="ograve" horiz-adv-x="598" d="M163 -10T105 51T47 214Q47 306 86 380T191 497T336 540Q436 540 493 478T551 311Q551 219 513 146T408 32T263 -10Q163 -10 105 51ZM328 43T377 77T455 174T484 319Q484 398 445 443T334 488Q273
488 223 453T143 355T114 211Q114 133 154 88T267 43Q328 43 377 77ZM240 753T247 751L464 656Q467 654 468 650T469 642L458 622Q456 617 454 617T445 618L228 691Q214 697 219 708L238 748Q240 753 247 751Z" />
<glyph unicode="&#xf3;" glyph-name="oacute" horiz-adv-x="598" d="M163 -10T105 51T47 214Q47 306 86 380T191 497T336 540Q436 540 493 478T551 311Q551 219 513 146T408 32T263 -10Q163 -10 105 51ZM328 43T377 77T455 174T484 319Q484 398 445 443T334 488Q273
488 223 453T143 355T114 211Q114 133 154 88T267 43Q328 43 377 77ZM491 705Q492 703 492 700Q492 694 482 691L244 618Q242 617 238 617Q231 617 231 626L226 645Q224 654 229 656L473 751L475 752Q478 752 480 750T483 745L491 705Z" />
<glyph unicode="&#xf4;" glyph-name="ocircumflex" horiz-adv-x="598" d="M163 -10T105 51T47 214Q47 306 86 380T191 497T336 540Q436 540 493 478T551 311Q551 219 513 146T408 32T263 -10Q163 -10 105 51ZM328 43T377 77T455 174T484 319Q484 398 445 443T334
488Q273 488 223 453T143 355T114 211Q114 133 154 88T267 43Q328 43 377 77ZM373 693Q367 699 364 699Q361 699 351 690L285 641Q280 638 277 637T272 636T267 636H220Q213 636 213 642Q213 645 217 649L330 735Q342 744 354 744H385Q392 744 396 739T401 733L489
646Q495 640 495 638T489 636H438Q430 636 422 644L373 693Z" />
<glyph unicode="&#xf5;" glyph-name="otilde" horiz-adv-x="598" d="M163 -10T105 51T47 214Q47 306 86 380T191 497T336 540Q436 540 493 478T551 311Q551 219 513 146T408 32T263 -10Q163 -10 105 51ZM328 43T377 77T455 174T484 319Q484 398 445 443T334 488Q273
488 223 453T143 355T114 211Q114 133 154 88T267 43Q328 43 377 77ZM459 663T422 663Q391 663 355 677Q351 678 336 683T304 688Q287 688 275 683T255 673T242 665L237 664Q230 664 229 673L223 695Q222 697 222 701Q222 703 225 709Q248 722 263 728T300 734Q326
734 366 720Q399 707 423 707Q441 707 453 712T481 727Q485 729 488 729Q495 729 497 720L502 694L503 690Q503 686 497 681Q459 663 422 663Z" />
<glyph unicode="&#xf6;" glyph-name="odieresis" horiz-adv-x="598" d="M163 -10T105 51T47 214Q47 306 86 380T191 497T336 540Q436 540 493 478T551 311Q551 219 513 146T408 32T263 -10Q163 -10 105 51ZM328 43T377 77T455 174T484 319Q484 398 445 443T334
488Q273 488 223 453T143 355T114 211Q114 133 154 88T267 43Q328 43 377 77ZM324 649Q323 641 320 639T308 637H266Q253 637 254 650L266 732Q267 739 268 740T276 742H325Q337 742 335 729L324 649ZM456 649Q455 641 452 639T440 637H398Q385 637 386 650L398
732Q399 739 400 740T408 742H457Q462 742 464 739T466 729L456 649Z" />
<glyph unicode="&#xf7;" glyph-name="divide" horiz-adv-x="551" d="M359 506Q358 498 356 496T344 494H272Q258 494 260 508L271 581Q272 587 273 588T279 590H361Q366 590 368 587T370 578L359 506ZM498 355Q498 349 496 348T485 346L88 345Q76 345 78 357L83
392Q84 400 90 400H495Q499 400 501 397T504 390L498 355ZM312 167Q311 160 308 158T296 156H224Q211 156 213 169L223 242Q224 248 225 249T231 251H314Q324 251 322 240L312 167Z" />
<glyph unicode="&#xf8;" glyph-name="oslash" horiz-adv-x="580" d="M596 496T589 490L517 428Q541 379 541 311Q541 219 503 146T398 32T253 -10Q199 -10 157 8T87 60L22 4Q18 0 14 0Q9 0 2 7L-8 20Q-13 27 -13 31Q-13 36 -7 42L61 100Q37 150 37 214Q37 306
76 380T181 497T326 540Q379 540 421 522T491 469L556 525Q560 529 564 529Q570 529 574 523L588 506Q596 496 589 490ZM104 175T113 145L445 429Q405 488 324 488Q263 488 213 453T133 355T104 211Q104 175 113 145ZM474 356T465 384L134 100Q154 73 185 58T257
43Q318 43 367 77T445 174T474 319Q474 356 465 384Z" />
<glyph unicode="&#xf9;" glyph-name="ugrave" horiz-adv-x="576" d="M136 -10T97 25T57 119Q57 135 58 142L111 519Q112 526 114 528T123 530H166Q171 530 174 527T177 516L127 161Q125 145 125 137Q125 45 219 45Q264 45 309 69T409 141L463 520Q464 526 466
528T475 530H517Q523 530 526 526T529 516L457 9Q456 4 454 2T447 0H404Q393 0 394 10L403 68V71Q403 78 394 72Q332 26 288 8T201 -10Q136 -10 97 25ZM212 753T219 751L436 656Q439 654 440 650T441 642L430 622Q428 617 426 617T417 618L200 691Q186 697 191
708L210 748Q212 753 219 751Z" />
<glyph unicode="&#xfa;" glyph-name="uacute" horiz-adv-x="576" d="M136 -10T97 25T57 119Q57 135 58 142L111 519Q112 526 114 528T123 530H166Q171 530 174 527T177 516L127 161Q125 145 125 137Q125 45 219 45Q264 45 309 69T409 141L463 520Q464 526 466
528T475 530H517Q523 530 526 526T529 516L457 9Q456 4 454 2T447 0H404Q393 0 394 10L403 68V71Q403 78 394 72Q332 26 288 8T201 -10Q136 -10 97 25ZM463 705Q464 703 464 700Q464 694 454 691L216 618Q214 617 210 617Q203 617 203 626L198 645Q196 654 201
656L445 751L447 752Q450 752 452 750T455 745L463 705Z" />
<glyph unicode="&#xfb;" glyph-name="ucircumflex" horiz-adv-x="576" d="M136 -10T97 25T57 119Q57 135 58 142L111 519Q112 526 114 528T123 530H166Q171 530 174 527T177 516L127 161Q125 145 125 137Q125 45 219 45Q264 45 309 69T409 141L463 520Q464 526
466 528T475 530H517Q523 530 526 526T529 516L457 9Q456 4 454 2T447 0H404Q393 0 394 10L403 68V71Q403 78 394 72Q332 26 288 8T201 -10Q136 -10 97 25ZM345 693Q339 699 336 699Q333 699 323 690L257 641Q252 638 249 637T244 636T239 636H192Q185 636 185
642Q185 645 189 649L302 735Q314 744 326 744H357Q364 744 368 739T373 733L461 646Q467 640 467 638T461 636H410Q402 636 394 644L345 693Z" />
<glyph unicode="&#xfc;" glyph-name="udieresis" horiz-adv-x="576" d="M136 -10T97 25T57 119Q57 135 58 142L111 519Q112 526 114 528T123 530H166Q171 530 174 527T177 516L127 161Q125 145 125 137Q125 45 219 45Q264 45 309 69T409 141L463 520Q464 526 466
528T475 530H517Q523 530 526 526T529 516L457 9Q456 4 454 2T447 0H404Q393 0 394 10L403 68V71Q403 78 394 72Q332 26 288 8T201 -10Q136 -10 97 25ZM296 649Q295 641 292 639T280 637H238Q225 637 226 650L238 732Q239 739 240 740T248 742H297Q309 742 307
729L296 649ZM428 649Q427 641 424 639T412 637H370Q357 637 358 650L370 732Q371 739 372 740T380 742H429Q434 742 436 739T438 729L428 649Z" />
<glyph unicode="&#xfd;" glyph-name="yacute" horiz-adv-x="521" d="M8 -165T-4 -164T-15 -153L-11 -124Q-10 -117 -3 -115T22 -112H81Q107 -112 132 -91T173 -38T189 19Q189 24 187 34L63 514V518Q63 530 74 530H124Q130 530 132 529T135 522L238 111Q240 101
245 101Q250 101 256 113L470 519Q474 530 484 530H522Q533 530 526 519L221 -58Q189 -118 147 -141T44 -165Q8 -165 -4 -164ZM457 705Q458 703 458 700Q458 694 448 691L210 618Q208 617 204 617Q197 617 197 626L192 645Q190 654 195 656L439 751L441 752Q444
752 446 750T449 745L457 705Z" />
<glyph unicode="&#xfe;" glyph-name="thorn" horiz-adv-x="592" d="M214 742T212 727L176 469V466Q176 462 178 462Q181 462 187 470Q190 472 212 491T273 525T355 540Q442 540 494 486T547 330Q547 298 543 270Q531 184 494 121T399 24T272 -10Q226 -10 192 4T136
42Q129 47 126 47Q118 47 116 32L90 -155Q89 -161 88 -163T80 -165H34Q29 -165 26 -162T24 -152L148 730Q150 738 152 740T163 742H200Q214 742 212 727ZM156 76T188 59T260 41Q313 41 358 68T434 149T475 275Q479 299 479 326Q479 407 439 448T335 489Q292 489
254 470T191 420T163 362L126 110Q156 76 188 59Z" />
<glyph unicode="&#xff;" glyph-name="ydieresis" horiz-adv-x="521" d="M8 -165T-4 -164T-15 -153L-11 -124Q-10 -117 -3 -115T22 -112H81Q107 -112 132 -91T173 -38T189 19Q189 24 187 34L63 514V518Q63 530 74 530H124Q130 530 132 529T135 522L238 111Q240
101 245 101Q250 101 256 113L470 519Q474 530 484 530H522Q533 530 526 519L221 -58Q189 -118 147 -141T44 -165Q8 -165 -4 -164ZM290 649Q289 641 286 639T274 637H232Q219 637 220 650L232 732Q233 739 234 740T242 742H291Q303 742 301 729L290 649ZM422 649Q421
641 418 639T406 637H364Q351 637 352 650L364 732Q365 739 366 740T374 742H423Q428 742 430 739T432 729L422 649Z" />
<glyph unicode="&#x2013;" glyph-name="endash" horiz-adv-x="551" d="M482 240Q481 234 479 233T468 231L72 230Q61 230 61 242L67 278Q68 283 69 284T74 286L478 287Q482 287 485 284T487 277L482 240Z" />
<glyph unicode="&#x2014;" glyph-name="emdash" horiz-adv-x="873" d="M804 240Q803 234 801 233T790 231L72 230Q61 230 61 242L67 278Q68 283 69 284T74 286L800 287Q804 287 807 284T809 277L804 240Z" />
<glyph unicode="&#x2018;" glyph-name="quoteleft" horiz-adv-x="217" d="M276 742T272 734L213 640Q210 634 210 629Q210 622 218 622L234 621Q240 621 241 620T243 613L232 534Q231 530 228 527T221 524H136Q129 524 131 530L140 603Q141 606 142 607T144 610L234
733Q239 742 252 742H268Q276 742 272 734Z" />
<glyph unicode="&#x2019;" glyph-name="quoteright" horiz-adv-x="217" d="M82 524T86 532L145 626Q148 632 148 637Q148 644 140 644L124 645Q118 645 117 646T115 653L126 732Q127 736 130 739T137 742H222Q229 742 227 736L218 663Q217 660 216 659T214 656L124
533Q119 524 106 524H90Q82 524 86 532Z" />
<glyph unicode="&#x201a;" glyph-name="quotesinglbase" horiz-adv-x="217" d="M-4 -121T-5 -119T-4 -113L55 -18Q57 -10 57 -8Q57 -1 50 0H33Q27 0 26 1T25 8L36 87Q38 97 46 97H131Q138 97 137 91L127 19Q126 15 125 14T123 11L34 -111Q29 -121 16 -121H0Q-4
-121 -5 -119Z" />
<glyph unicode="&#x201c;" glyph-name="quotedblleft" horiz-adv-x="381" d="M298 640Q295 634 295 629Q295 622 303 622H319Q325 621 326 620T327 614L316 534Q316 530 313 527T305 524H139Q135 524 135 525T134 530L145 603Q145 607 148 610L238 733Q243 742
255 742H272Q276 742 277 740T276 734L217 640Q214 634 214 630Q214 622 222 622H238L318 733Q325 742 336 742H353Q357 742 357 740T356 734L298 640Z" />
<glyph unicode="&#x201d;" glyph-name="quotedblright" horiz-adv-x="382" d="M82 524T86 532L145 626Q148 632 148 637Q148 644 140 644L124 645Q118 645 117 646T115 653L126 732Q127 736 130 739T137 742H222Q229 742 227 736L218 663Q217 660 216 659T214
656L124 533Q119 524 106 524H90Q82 524 86 532ZM246 524T250 532L308 626Q311 632 311 637Q311 644 304 644L287 645Q282 645 280 647T279 653L290 732Q291 736 294 739T301 742H386Q390 742 391 741T391 736L382 663Q381 660 380 659T378 656L288 533Q283 524
270 524H253Q246 524 250 532Z" />
<glyph unicode="&#x201e;" glyph-name="quotedblbase" horiz-adv-x="345" d="M123 -121T122 -119T123 -113L182 -18Q184 -10 184 -8Q184 -1 177 0H160Q154 0 153 1T152 8L163 87Q165 97 173 97H258Q265 97 264 91L254 19Q253 15 252 14T250 11L161 -111Q156 -121
143 -121H127Q123 -121 122 -119ZM215 -121T214 -119T215 -113L274 -18Q276 -10 276 -8Q276 -1 269 0H252Q246 0 245 1T244 8L255 87Q257 97 265 97H350Q357 97 356 91L346 19Q345 15 344 14T342 11L253 -111Q248 -121 235 -121H219Q215 -121 214 -119Z" />
<glyph unicode="&#x2022;" glyph-name="bullet" horiz-adv-x="304" d="M126 292T104 314T82 368Q82 406 110 434T177 462Q210 462 231 441T253 387Q253 348 225 320T159 292Q126 292 104 314Z" />
<glyph unicode="&#x2039;" glyph-name="guilsinglleft" horiz-adv-x="261" d="M184 80Q186 76 184 76T178 75H156Q152 75 150 77T147 82L40 249Q34 260 39 267L197 445Q199 448 201 448T205 448H229Q233 448 236 445T236 437L107 262Q99 254 103 248L184 80Z" />
<glyph unicode="&#x203a;" glyph-name="guilsinglright" horiz-adv-x="262" d="M160 259T157 266L76 440Q73 448 81 448H105Q110 448 114 441L221 264Q224 260 224 256Q224 251 220 246L65 78Q62 75 56 75H34Q28 75 26 77T25 83L153 252Q160 259 157 266Z" />
</font>
</defs>
</svg>
