<?xml version="1.0" standalone="no"?>
<!DOCTYPE svg PUBLIC "-//W3C//DTD SVG 1.1//EN" "http://www.w3.org/Graphics/SVG/1.1/DTD/svg11.dtd">
<svg xmlns="http://www.w3.org/2000/svg">
<defs >
<font id="Italianno" horiz-adv-x="254" ><font-face
    font-family="Italianno"
    units-per-em="1000"
    panose-1="2 0 5 4 6 0 0 2 0 3"
    ascent="800"
    descent="-450"
    alphabetic="0" />
<glyph unicode=" " glyph-name="space" horiz-adv-x="169" />
<glyph unicode="!" glyph-name="exclam" horiz-adv-x="295" d="M138 -6Q101 -6 101 16Q101 18 109 24T127 37T139 42Q159 30 165 30T176 31T181 28T174 17Q146 -6 138 -6ZM195 138Q188 124 170 124Q168 124 168 126Q243 325 307 487Q325 537 326 540Q378 552 405
574Q405 574 406 574T411 570T414 561T411 555T373 492Q223 200 195 138Z" />
<glyph unicode="&quot;" glyph-name="quotedbl" horiz-adv-x="168" d="M131 445Q122 428 114 428T106 432T114 458T144 573Q143 585 171 598T205 612T211 608Q200 575 131 445ZM236 445Q228 428 220 428T211 432T219 458T249 573Q248 585 289 604Q306 612 311
612T316 609Q316 591 236 445Z" />
<glyph unicode="#" glyph-name="numbersign" horiz-adv-x="579" d="M459 343Q565 345 571 345T577 344Q577 340 562 324T540 309Q511 311 438 313L379 223Q478 223 510 225Q516 225 499 207T473 189T360 192Q299 96 269 45Q266 40 260 40Q241 40 244 46Q258 85
321 193Q292 194 253 194H179Q153 152 87 45Q84 40 77 40Q60 40 62 46Q77 86 140 194Q37 192 24 191T11 191Q11 195 26 211T50 226T157 222Q180 261 215 314Q117 314 78 311Q71 310 88 329T112 347Q140 343 234 343Q312 461 354 500Q355 501 360 501T390 492L393
490Q353 453 277 342H320Q376 342 415 343Q490 457 535 500Q536 501 542 501T572 492L575 490Q533 451 459 343ZM396 314L318 315H258Q237 284 197 222H339Q370 274 396 314Z" />
<glyph unicode="$" glyph-name="dollar" horiz-adv-x="313" d="M204 256Q164 301 164 345Q164 389 200 425T283 461H285Q297 488 306 511Q310 519 324 521Q329 520 329 518L306 460Q359 455 359 409Q359 381 341 343Q334 330 324 330Q320 331 323 345T326 375Q326
419 295 431L248 302Q307 243 307 191T263 101T162 62Q141 3 130 -34Q94 -50 93 -50T91 -49Q102 -14 130 64Q94 70 72 90T50 147Q50 201 89 225Q96 229 98 225T95 215Q82 198 82 175T91 133Q107 101 139 88Q166 161 204 256ZM220 88T239 110T259 166T223 236L168
81Q186 81 195 83Q220 88 239 110ZM270 436Q244 436 225 417T205 374Q205 368 207 357T230 322Q275 434 275 436Q273 436 270 436Z" />
<glyph unicode="%" glyph-name="percent" horiz-adv-x="632" d="M104 -28Q98 -34 85 -34T71 -28Q71 -27 72 -25Q190 124 352 297T628 550Q552 538 487 538T369 550Q392 542 392 517T369 454T312 376Q236 291 182 291Q159 291 148 303T137 335Q137 372 150 398T177
447T225 509T273 549T288 538Q288 534 274 516Q216 442 198 415Q161 352 161 327T184 302Q200 302 224 321Q265 352 301 408Q343 472 343 514T310 567Q324 581 337 577Q388 562 493 562T722 595Q734 594 734 586T726 566Q709 541 690 538Q578 461 400 284T104 -28ZM399
24Q399 1 422 1Q438 1 462 20Q503 50 539 106Q581 171 581 212T549 266Q539 268 543 272T549 276Q579 276 604 260T629 218Q629 165 550 76Q474 -10 420 -10Q398 -10 387 2T375 34Q375 71 388 97T415 146T463 208T512 248T527 237Q527 232 490 184T442 120Q424
94 412 65T399 24Z" />
<glyph unicode="&amp;" glyph-name="ampersand" horiz-adv-x="608" d="M490 435Q490 384 396 318Q408 288 449 206H583Q624 206 629 210T637 214T637 209L619 182Q615 176 610 175Q607 174 537 182Q528 141 504 105Q545 34 573 -3T628 -56Q658 -74 678 -74T719
-61T755 -32T788 7Q799 22 799 5Q799 0 795 -5Q750 -67 718 -89T663 -111T624 -106Q577 -91 529 -24Q509 4 473 68Q440 34 399 8Q314 -41 248 -41Q177 -41 138 3Q110 33 110 71Q110 161 230 235Q259 253 303 277Q360 308 362 310Q351 345 351 370Q351 464 415 480Q426
484 444 484T476 469T490 435ZM273 154Q273 178 287 190Q307 208 371 208Q385 208 402 207Q374 273 365 298L299 256Q171 172 171 92Q171 64 190 38Q220 8 284 8T388 26Q427 41 464 85Q425 161 411 189Q353 187 322 162Q302 146 304 122Q304 107 312 91L304 85Q274
136 274 143T273 154ZM392 329Q477 389 477 439Q477 460 455 468Q447 472 433 472T404 455Q381 431 381 398T392 329ZM523 184Q482 188 458 189L493 124Q509 148 523 184Z" />
<glyph unicode="&apos;" glyph-name="quotesingle" horiz-adv-x="106" d="M131 445Q122 428 114 428T106 432T114 458T144 573Q143 585 171 598T205 612T211 608Q200 575 131 445Z" />
<glyph unicode="(" glyph-name="parenleft" horiz-adv-x="268" d="M112 100Q112 45 135 8T199 -30Q207 -30 228 -25Q234 -24 234 -29Q233 -39 218 -45Q188 -55 157 -55T98 -35Q49 0 49 82Q49 208 118 332Q170 424 272 505T484 624Q554 649 596 649Q605 649 605
637Q605 633 602 633Q515 618 426 568Q236 461 154 280Q112 190 112 100Z" />
<glyph unicode=")" glyph-name="parenright" horiz-adv-x="507" d="M449 504Q449 559 426 596T360 633Q353 633 332 629Q326 628 326 633Q325 644 348 651T403 658T462 638Q511 604 511 516Q511 392 442 272Q390 179 288 99T76 -20Q8 -45 -36 -45Q-40 -45 -42
-40T-45 -32T-42 -29Q45 -15 134 35Q323 142 407 322Q449 413 449 504Z" />
<glyph unicode="*" glyph-name="asterisk" horiz-adv-x="507" d="M449 354L401 303L288 401L284 399L254 234H192L262 399L259 401L86 303L70 354L254 420V422L111 489L158 540L271 441L275 443L306 609H368L297 443L300 441L474 541L490 490L306 422L305 420L449 354Z" />
<glyph unicode="+" glyph-name="plus" horiz-adv-x="326" d="M448 228Q450 228 450 226T435 207T413 192Q335 196 276 197L275 193Q230 86 225 62Q222 51 181 41Q175 40 173 40T170 41Q187 73 241 197Q130 197 107 195T84 194Q84 198 99 214T121 229Q144 225 252
225Q285 308 294 339Q298 350 338 359Q344 360 347 360T350 359Q312 280 288 225Q376 225 448 228Z" />
<glyph unicode="," glyph-name="comma" horiz-adv-x="129" d="M49 -80Q41 -85 39 -85T36 -81T44 -69Q80 -38 80 -9T55 27L59 38Q73 40 84 50Q100 63 101 63Q122 60 122 37Q122 30 120 21Q108 -39 49 -80Z" />
<glyph unicode="-" glyph-name="hyphen" horiz-adv-x="249" d="M161 148L75 146Q75 149 84 160T98 172L163 168Q188 168 215 169T243 170T240 163T230 151T219 144T204 146Q187 148 161 148Z" />
<glyph unicode="." glyph-name="period" horiz-adv-x="149" d="M70 -6Q33 -6 33 17Q33 20 51 31T70 42T82 36T98 30T108 31T113 28T107 17Q79 -6 70 -6Z" />
<glyph unicode="/" glyph-name="slash" horiz-adv-x="377" d="M502 610Q505 614 522 614Q552 614 571 610Q503 538 305 300T43 -26Q39 -33 28 -33Q1 -33 0 -25Q111 130 270 330T502 610Z" />
<glyph unicode="0" glyph-name="zero" horiz-adv-x="368" d="M153 -8Q64 -8 64 104Q64 181 110 273Q139 330 173 361Q202 387 236 414T319 442Q403 442 403 324Q403 271 382 210Q351 122 300 75Q290 66 268 49T233 20Q204 -8 153 -8ZM354 224T354 300T304 398Q288
404 267 404T220 382Q180 349 155 289T122 192T115 132Q115 56 160 34Q177 25 198 25T243 43Q284 73 316 146Q354 224 354 300Z" />
<glyph unicode="1" glyph-name="one" horiz-adv-x="243" d="M139 361T165 376T208 402T257 433T292 453T296 449T292 438Q260 375 206 197Q163 68 163 40Q163 22 185 16T218 10T230 10L219 -2Q199 4 125 6Q99 5 8 -2L17 11Q23 10 33 10T69 16T108 46Q120 68 163
201T208 351T209 371Q205 379 197 379T169 365T143 344Q127 330 123 329L131 356Q139 361 165 376Z" />
<glyph unicode="2" glyph-name="two" horiz-adv-x="331" d="M249 0L162 3Q138 3 21 -5Q99 62 155 116T216 175T236 193T258 214T278 235T298 258T316 280T332 302Q356 341 356 363T342 402T289 420Q287 420 285 420Q249 420 223 403T186 353T178 312L157 301Q177
367 180 406Q180 418 202 427Q232 439 289 439T369 429Q407 412 407 372Q407 354 399 327T362 268T299 207T238 158Q176 108 111 59Q94 46 94 40T172 33T276 48Q290 56 310 78T336 112L345 109Q321 77 308 48T282 10T249 0Z" />
<glyph unicode="3" glyph-name="three" horiz-adv-x="314" d="M271 239Q344 232 344 172Q344 156 332 121T299 61Q241 -9 125 -9Q69 -9 43 6Q33 12 33 17T39 34T61 107L83 116Q81 113 75 91T68 53T83 24T134 10Q197 10 235 46T288 133Q295 148 295 156T294 173T289
192T273 210T251 221T223 228Q199 231 162 231L175 247Q312 270 335 343Q339 356 339 370T325 402T272 420Q270 420 268 420Q213 420 184 382Q173 366 166 343T161 312L140 301Q160 367 163 406Q163 418 185 427Q215 439 272 439T353 429Q387 413 387 373Q387 361
383 350Q362 283 267 251Q244 243 261 241Q262 240 271 239Z" />
<glyph unicode="4" glyph-name="four" horiz-adv-x="403" d="M333 127L297 128Q279 64 277 49T282 25T302 14Q325 10 343 10L331 -2Q313 3 237 6Q211 5 121 -2L130 11Q135 10 145 10T181 16T218 42T252 129H195Q133 127 91 125T48 123T46 126Q46 127 56 134T80
154T116 191Q132 208 203 283T292 378Q322 417 332 420T368 434T399 446T406 444T405 438Q373 376 318 197L307 164Q347 167 358 175Q374 183 395 204T423 238L433 235Q403 195 391 169Q370 127 333 127ZM128 181Q122 174 122 169T133 163Q177 160 208 160T262
161L308 303Q325 355 325 368T322 383Q303 371 128 181Z" />
<glyph unicode="5" glyph-name="five" horiz-adv-x="331" d="M212 435L231 433Q367 435 419 435Q423 435 423 428T412 401T392 360T374 322L360 325L383 370Q388 378 388 384Q388 399 355 399Q261 399 241 397T214 383Q178 313 148 247Q184 266 239 266Q350 266
350 189Q350 167 341 138Q320 72 272 34Q215 -9 125 -9Q71 -9 43 6Q33 12 33 17T39 34T61 107L83 116Q81 113 75 91T68 53T83 24T134 10Q192 10 232 46T287 130Q295 156 295 178T282 216Q262 240 216 240T126 225Q116 222 116 223T128 249Q149 293 201 425Q205
435 212 435Z" />
<glyph unicode="6" glyph-name="six" horiz-adv-x="336" d="M159 -4Q62 -4 62 97Q62 146 91 228T187 378T344 446Q385 446 408 434Q417 431 417 425Q417 422 411 410T391 346L373 338Q375 342 381 361T387 393T375 416T336 428Q287 428 240 387T170 299T140 223Q152
232 173 243T201 259Q223 272 269 272T337 246T360 187Q360 148 340 108T288 47Q280 42 261 32T230 13Q206 -4 159 -4ZM267 236Q252 243 235 243T195 235Q152 216 132 172Q112 137 112 102Q112 41 164 26Q179 21 198 21T239 33Q281 56 297 102Q307 131 307 151Q307
216 267 236Z" />
<glyph unicode="7" glyph-name="seven" horiz-adv-x="310" d="M401 433L435 438Q439 438 439 436T436 431Q354 339 234 189T109 0Q87 5 71 3T50 2Q51 11 202 187T356 383Q358 395 339 397T223 399Q180 399 167 374Q150 347 145 329L127 326Q158 382 165 399Q180
435 193 435Q265 435 401 433Z" />
<glyph unicode="8" glyph-name="eight" horiz-adv-x="351" d="M382 389Q382 315 256 239Q293 211 304 192T316 155T309 117Q291 60 240 26T137 -9T63 10T40 54Q40 66 44 80Q67 152 182 216Q134 248 134 292Q134 308 141 327Q156 378 204 413T300 449T368 426Q382
411 382 389ZM275 270T306 301T343 353T350 387T342 413Q327 433 294 433T233 411T194 352Q184 332 195 300Q202 278 242 249Q275 270 306 301ZM197 206Q82 132 82 57Q82 42 88 32Q99 10 135 10T203 32T248 93Q254 111 254 127T243 162T197 206Z" />
<glyph unicode="9" glyph-name="nine" horiz-adv-x="336" d="M115 -4Q75 -4 51 8Q43 14 43 18T51 39T69 96L87 104Q84 101 79 82T73 50T85 27T124 15Q173 15 220 56T291 149T320 219Q308 210 286 199T259 184Q237 171 191 171Q129 171 109 215Q99 237 99 261T109
312Q129 366 172 395Q182 402 201 412T229 429Q254 446 299 446T368 426Q397 403 397 349Q397 298 373 230Q339 133 273 65T115 -4ZM348 341Q348 401 296 416Q280 421 262 421T223 410Q189 393 167 350Q147 314 147 280Q147 217 203 203Q216 200 234 200T280 216T328
270Q348 306 348 341Z" />
<glyph unicode=":" glyph-name="colon" horiz-adv-x="154" d="M169 294Q189 282 195 282T206 283T211 279Q210 275 204 269Q176 246 167 246Q166 246 166 246Q150 246 131 267Q130 268 138 275T157 288T169 294ZM97 44Q117 32 128 32T139 29T123 10T95 -5Q59 -3
59 17Q59 19 67 25T85 38T97 44Z" />
<glyph unicode=";" glyph-name="semicolon" horiz-adv-x="154" d="M135 21Q135 14 133 5Q116 -71 37 -116Q40 -103 47 -97Q85 -65 93 -24Q95 -12 88 -2T68 11L72 22Q84 23 114 47Q135 44 135 21ZM183 294Q203 282 209 282T219 283T224 279Q223 275 218 269Q190
246 181 246Q180 246 180 246Q144 246 144 267Q144 272 162 283T183 294Z" />
<glyph unicode="&lt;" glyph-name="less" horiz-adv-x="293" d="M275 91Q275 86 272 82Q245 56 243 52H237Q238 63 219 89T162 149T88 200L93 217Q201 276 326 369Q326 356 320 346Q305 327 246 286T155 225Q149 221 153 217Q204 182 239 146T275 91Z" />
<glyph unicode="=" glyph-name="equal" horiz-adv-x="344" d="M357 160Q363 160 346 142T326 124T291 126T184 129T84 127T59 126Q59 130 74 146T96 161Q127 157 198 157T357 160ZM120 282L233 277Q266 277 325 279T384 280Q384 276 369 261T351 245T316 247T231
250Q231 250 84 247Q84 250 98 266T120 282Z" />
<glyph unicode="&gt;" glyph-name="greater" horiz-adv-x="293" d="M80 52Q80 56 71 70T62 86T63 92T70 102T81 113T96 125Q148 168 240 217Q246 221 241 225Q217 244 176 285T128 346Q127 356 132 369Q212 280 300 217L298 200Q196 156 112 82Q90 64 86 52H80Z" />
<glyph unicode="?" glyph-name="question" horiz-adv-x="434" d="M293 307T261 285T204 227T180 166T191 130L180 115Q158 138 156 170Q152 226 210 272L376 404Q416 436 416 479T378 539Q362 547 346 547Q292 547 259 523Q245 513 228 484T204 429Q204 419 194
415Q183 411 184 420Q202 499 202 519T227 552Q251 563 345 570Q360 571 374 571Q481 571 481 491Q481 439 453 406T392 355T326 323ZM169 30Q171 30 176 31T181 30T181 25T164 9T142 -6Q119 -6 101 16Q101 16 101 17T109 24Q131 42 139 42L169 30Z" />
<glyph unicode="@" glyph-name="at" horiz-adv-x="694" d="M422 364Q422 383 397 383T341 354T272 260T235 166Q235 154 244 154Q273 154 347 243T422 364ZM367 235Q262 121 203 121Q185 121 185 142V150Q192 206 232 270Q310 396 394 396L509 395Q514 395 514
391Q514 383 503 383T469 351Q443 309 412 248T380 161Q380 142 412 142Q484 142 554 200T624 345T565 469T419 507Q417 507 415 507Q329 507 251 466T122 350T72 190T127 54T267 2Q433 2 532 108Q544 120 551 120Q561 120 561 107Q561 91 544 76Q486 24 423 6T289
-13T176 -2T97 31T39 93T18 198T53 330Q118 457 270 508Q338 530 411 530Q574 530 646 448Q681 409 681 355Q681 349 681 343Q673 230 582 175T352 119Q328 119 328 139Q328 171 367 235Z" />
<glyph unicode="A" glyph-name="A" horiz-adv-x="768" d="M973 568Q973 563 959 563T940 562Q924 559 905 538Q872 505 801 381T686 158Q686 157 685 155Q649 72 649 42T669 11Q696 11 735 48T807 130Q812 138 816 134T815 122Q801 103 797 98T784 82T768 63T751
45T731 26Q688 -9 656 -9Q598 -9 598 52Q598 98 635 177T736 373T831 530Q806 529 759 502T681 444T595 351T515 263Q575 261 611 261T679 276Q673 260 657 247T613 232T550 230T484 231Q236 -25 87 -25Q55 -25 38 -8T20 35Q20 41 21 53T34 91T50 117Q58 118 53
109Q40 80 40 64T45 40Q58 17 96 17Q215 17 447 233Q333 239 314 239Q238 239 213 214Q195 196 195 166Q195 158 197 151Q182 154 177 157T169 167Q170 175 168 179T170 190T176 199T184 207T194 214T205 221T217 226T229 232Q312 268 379 268Q420 268 481 265Q547
329 628 414T788 521H733Q509 521 490 426Q489 419 489 408T501 389Q506 386 497 382T485 380Q475 387 469 406T462 432Q462 463 479 484T526 515T579 532T642 542Q697 545 747 545H856Q858 545 857 544Q930 577 949 577Q973 577 973 568Z" />
<glyph unicode="B" glyph-name="B" horiz-adv-x="562" d="M415 544L455 545Q487 545 521 534Q585 514 585 447Q585 402 551 358Q504 300 429 283Q427 283 427 280T429 277T438 276T454 274T469 271Q506 263 528 240T551 181Q551 120 506 72Q423 -17 288 -17Q197
-17 138 14Q123 22 108 22T84 18T54 0Q22 -19 10 -19T-2 -13Q-2 -11 0 -10Q41 -3 64 38Q99 97 178 242T281 435T308 491Q321 515 367 531Q352 532 315 532T202 518Q98 499 98 435Q98 411 114 401Q119 399 114 396T102 395T83 418Q63 448 63 470T74 508T120 532Q171
544 231 544Q233 544 234 544L383 545Q398 544 415 544ZM472 319T490 341T520 395T532 446Q532 519 472 528Q463 529 450 529Q398 529 379 506T341 449T308 391T275 325T219 215T152 83Q147 72 147 61Q147 39 171 21Q212 -3 256 -3Q305 -3 359 18T453 86T493 196Q493
235 464 251T404 268Q343 268 275 250Q274 250 274 252Q274 257 288 268T308 286T322 292Q365 292 391 295T444 308Z" />
<glyph unicode="C" glyph-name="C" horiz-adv-x="527" d="M526 384Q543 412 543 447T532 502Q513 534 458 534Q356 534 259 452Q188 389 143 302T97 146T128 43T209 1Q235 -3 260 -3Q336 -3 404 24Q513 66 579 148Q589 160 589 148Q589 141 581 130Q518 46 412
2Q337 -29 253 -29Q117 -29 65 43Q38 80 38 135Q38 229 90 318T224 470Q329 549 451 549Q506 549 546 530T587 478Q587 464 569 434T545 389Q543 382 530 381Q526 382 526 384Z" />
<glyph unicode="D" glyph-name="D" horiz-adv-x="626" d="M228 544L427 549Q566 549 630 500Q654 481 669 448T684 371Q684 269 616 167Q494 -16 274 -16Q197 -16 138 14Q120 23 105 23T57 2T11 -19T-2 -13L0 -10L6 -8Q6 -9 13 -7Q45 4 64 38Q93 86 240 357L308
491Q323 516 367 531H343Q277 531 202 518T108 470Q98 452 98 438T102 415T111 404T116 399Q116 393 108 393T85 416Q64 449 64 473Q64 544 228 544ZM593 229Q623 305 623 373T576 485T451 528Q398 528 380 508T340 448T303 382T272 319Q261 295 211 199T154 86T146
56T171 21Q201 -2 262 -2Q373 -2 461 61T593 229Z" />
<glyph unicode="E" glyph-name="E" horiz-adv-x="478" d="M245 544L474 548Q557 548 573 534Q582 527 582 520T580 505Q576 476 551 439Q544 426 534 427Q530 427 533 441T537 474Q537 516 505 526Q491 530 460 530T394 528T344 508Q313 464 222 307Q218 296 230
296L346 294Q425 294 452 308Q461 314 460 306Q459 290 442 278T412 265L255 269Q231 269 216 268T196 259T180 228Q111 100 111 63Q111 10 211 8Q420 8 518 133Q522 139 524 132T523 120T501 92T475 60T454 36Q428 9 399 0Q357 -12 265 -12T113 -6T39 21Q34 29
34 44T49 89Q78 141 132 235T217 385T274 481T336 529Q207 522 169 506T120 472T109 432T125 401Q129 399 124 396T113 395T94 418Q75 447 75 473Q75 535 189 543Q208 544 240 544H245Z" />
<glyph unicode="F" glyph-name="F" horiz-adv-x="582" d="M43 120L42 96Q42 50 64 25T124 0Q186 0 253 72Q295 117 400 334Q452 442 460 458Q485 506 549 532Q507 532 432 527Q234 514 234 438Q234 403 264 389Q270 386 263 382T247 382T220 408Q193 441 193 464T210
507T276 535Q348 548 437 548Q691 548 726 546Q784 543 784 514Q784 497 775 480T760 452T753 439Q748 428 737 427Q731 426 733 433Q740 457 740 476Q740 516 708 526Q689 534 666 534Q581 534 547 508Q529 494 515 471T493 436T475 402T459 369T443 335T430 307Q426
296 438 296L579 295Q611 295 621 289T625 268T607 237T594 213T580 204Q578 205 578 206Q591 236 591 252T577 268H421Q412 268 408 260T384 214T357 159T332 113Q248 -38 141 -38Q108 -38 80 -20Q32 13 32 90V106Q32 122 41 122Q43 122 43 120Z" />
<glyph unicode="G" glyph-name="G" horiz-adv-x="576" d="M385 276L465 273H655L644 261Q603 261 585 238Q574 223 567 208T556 185T548 164T542 145T535 123T526 93T509 32T489 -40T467 -103T438 -170Q372 -287 266 -329Q218 -348 177 -348T97 -331T42 -279Q32
-260 32 -238V-206Q32 -191 44 -191Q46 -191 46 -193L44 -218Q44 -263 72 -287T147 -312Q267 -312 359 -196Q429 -109 474 4Q480 21 494 59T515 111Q475 52 396 10T243 -32Q241 -32 239 -32Q156 -32 97 11T38 141T90 318T224 470Q329 549 451 549Q506 549 546 530T587
478Q587 464 569 434T545 389Q543 382 530 381Q526 382 526 384Q543 412 543 447T532 502Q513 534 458 534Q356 534 259 452Q188 389 143 302T97 138T138 25T243 -13Q244 -13 246 -13Q359 -13 439 62T558 254H455Q327 254 327 195Q327 179 332 169L323 163Q296
208 296 213T296 223Q296 246 308 257Q332 276 385 276Z" />
<glyph unicode="H" glyph-name="H" horiz-adv-x="770" d="M925 568Q925 563 911 563T892 562Q875 559 856 538Q813 495 719 320T609 82Q605 65 605 51Q605 10 643 10Q669 10 705 29Q752 56 817 142Q824 151 824 140Q824 133 821 128Q760 40 699 7Q667 -10 627
-10T564 22Q550 43 550 62T562 114T632 260Q608 238 586 238Q585 238 564 240T412 242H364Q286 86 244 41Q186 -20 114 -20Q82 -20 54 -2Q5 31 5 108V124Q5 140 14 140Q16 140 16 138L15 114Q15 68 37 44T97 19Q160 19 226 90Q259 126 318 241Q231 239 187 232Q178
230 183 238Q201 263 241 276L334 273Q351 305 415 432Q431 465 460 494T521 529Q504 528 468 528T410 526Q263 519 237 470Q229 453 229 443Q229 412 243 401Q247 398 242 395T231 395T212 418Q192 448 192 470T203 508T248 532Q300 544 360 544Q362 544 456 544T568
547T586 547T585 539T578 534Q518 528 471 445Q436 382 379 271L425 269H572Q616 269 643 281Q749 483 789 534Q795 536 824 550Q880 577 909 577Q921 577 925 570Q925 569 925 568Z" />
<glyph unicode="I" glyph-name="I" horiz-adv-x="365" d="M381 546L483 542L643 543L630 528Q599 528 568 523T507 494T455 435L446 420Q439 404 413 341T369 237T319 142T259 58T193 9T121 -10T60 8Q10 42 10 117Q10 130 14 131Q21 132 21 123Q21 77 43 53T103
28Q182 28 264 138Q280 158 291 172T317 214T339 251T361 294T380 333T401 378T421 420Q453 487 501 519H471Q315 519 315 447Q315 430 327 404L317 396Q278 464 278 470T277 480Q277 509 292 523Q318 546 381 546Z" />
<glyph unicode="J" glyph-name="J" horiz-adv-x="203" d="M353 528Q309 524 301 524Q145 520 114 475Q105 461 105 448Q105 404 137 389Q144 386 137 383T125 380Q112 387 94 408Q66 440 66 464T81 506T144 532Q214 545 302 545Q305 545 306 545H414Q415 545 416
545T417 543Q417 540 401 530Q343 527 289 417Q256 352 207 236T153 109T136 72T117 33T98 -1T76 -36Q44 -80 21 -104T-40 -148T-112 -167T-172 -148Q-222 -115 -222 -39Q-222 -24 -217 -24T-212 -33Q-212 -79 -189 -103T-129 -128Q-67 -128 -1 -57Q84 36 154 195Q158
204 192 287Q262 461 283 485T353 528Z" />
<glyph unicode="K" glyph-name="K" horiz-adv-x="560" d="M674 542T705 542T754 535T783 519T794 502T791 494T776 506T738 518T649 492Q542 446 470 407T267 272Q279 239 308 186T370 93T428 41T464 30T487 32T524 52T565 89T602 135Q610 146 613 138Q613 132
608 124Q556 52 519 21T443 -10Q389 -10 338 57Q289 121 246 215Q229 252 228 254Q314 333 462 425Q572 499 623 520ZM8 -22T3 -22T-2 -18Q-2 -17 -1 -16Q42 19 77 79Q158 216 273 425Q321 509 390 528Q303 526 252 514Q176 497 176 437Q176 411 190 401Q194 398
189 395T178 395T159 418Q139 448 139 470T150 508T195 532Q247 544 307 544Q309 544 358 544T422 546T438 549Q447 549 449 538Q449 528 440 528Q434 530 428 530Q383 530 337 449Q225 260 118 46Q116 42 111 28T100 8T87 3T70 5T47 3T21 -11Z" />
<glyph unicode="L" glyph-name="L" horiz-adv-x="547" d="M8 -7Q7 -8 5 -8T3 3T13 19L20 21Q59 23 94 56T144 125L236 355Q267 434 307 484Q355 546 440 546Q485 546 514 531T543 490Q543 484 541 476T523 444T503 408T492 398T489 407Q507 433 507 462T495 513T453
535Q389 535 353 468L168 127Q125 49 85 33Q219 33 294 33T380 33T403 35T426 37T444 40Q475 47 475 80Q475 105 448 118Q441 121 446 125Q456 132 482 101T512 57T517 33T502 9T433 -4T243 6Q88 16 72 16Q33 16 8 -7Z" />
<glyph unicode="M" glyph-name="M" horiz-adv-x="830" d="M716 -9Q656 -9 656 51Q656 83 670 119T690 171Q701 198 733 261Q783 367 812 415L524 111Q521 92 498 83Q488 79 463 49Q462 48 459 48T454 50T452 53Q478 86 479 144L485 435Q485 479 509 508Q469 478
449 437Q441 421 406 332Q326 134 252 55Q227 28 188 9T116 -10T56 8Q6 42 6 117Q6 130 10 131Q17 132 17 123Q17 77 39 53T99 28Q163 28 227 99Q281 157 326 236Q339 259 345 269T364 307T381 342Q412 409 417 420Q454 500 521 520L522 521H467Q308 521 277 475Q268
461 268 448Q268 404 300 389Q307 386 300 382T284 382T256 408Q229 440 229 464T244 506T308 532Q377 545 465 545Q468 545 469 545H577Q585 546 576 538T564 530Q516 520 516 444T524 142V136L871 502Q911 544 939 563T996 583Q1006 583 1006 582T1002 575Q997
570 992 570Q950 570 907 500Q848 403 778 248T708 39Q708 11 727 11Q734 11 754 19T794 46T827 79T848 104T863 124T872 135Q878 144 880 137T879 125T866 108T850 87T830 64T806 38Q756 -9 716 -9Z" />
<glyph unicode="N" glyph-name="N" horiz-adv-x="721" d="M942 586L941 550L932 548Q933 559 923 565T903 572Q856 572 790 436Q734 323 694 220T647 101T640 73Q640 59 644 42T638 18T619 6T597 -10T581 -28Q579 -31 577 -31Q571 -31 570 -25Q581 -10 590 16Q569
130 496 355Q472 431 463 460Q453 453 438 408Q402 301 346 188Q309 112 262 55Q240 28 196 9T118 -10T56 8Q6 40 6 117Q6 132 11 132T16 123Q16 76 41 45T104 14Q176 14 237 78Q290 135 318 192T356 274Q375 314 417 420Q433 459 460 487T522 521H467Q308 521
276 475Q267 461 267 449T270 426Q279 399 300 389Q306 386 299 383T288 380Q275 387 256 408Q229 440 229 464T244 506T308 532Q377 545 464 545Q467 545 468 545H589Q598 546 585 530T569 514T560 515T535 511T509 501Q515 428 549 309T625 86Q637 116 684 245T772
465T848 589Q874 613 908 613T942 586Z" />
<glyph unicode="O" glyph-name="O" horiz-adv-x="594" d="M648 396Q648 292 592 198T440 46T232 -12Q7 -12 7 146Q7 242 74 348Q108 404 155 449T271 524T418 554Q537 554 592 516T648 396ZM591 405Q591 539 420 539Q335 539 250 471T112 309T60 137Q60 3 224
3Q322 3 408 65T543 219T591 405Z" />
<glyph unicode="P" glyph-name="P" horiz-adv-x="541" d="M418 544L458 545Q490 545 524 534T575 499Q597 466 597 441Q597 372 534 314Q494 277 450 260Q386 236 299 236Q280 236 265 238Q257 239 268 249T284 258Q298 256 314 256T358 259T420 273T486 314T529
379T542 436T534 480Q514 529 456 529Q401 529 382 506T344 449T311 391T278 325T252 273T237 245T217 208T194 165T171 118T152 76Q132 31 139 18Q143 9 127 15Q125 15 121 16T115 18T108 19T100 20Q89 20 63 4Q26 -19 14 -19T1 -13Q1 -11 3 -10Q44 -3 67 38Q112
114 145 176T218 310T271 409T296 460T311 491Q324 515 370 531Q355 532 318 532T205 518Q101 499 101 435Q101 411 117 401Q122 399 117 396T106 395T87 418Q67 449 67 473Q67 535 183 543Q202 544 238 544L386 545Q402 544 418 544Z" />
<glyph unicode="Q" glyph-name="Q" horiz-adv-x="599" d="M232 -12Q7 -12 7 146Q7 242 74 348Q108 404 155 449T271 524T418 554Q537 554 592 516T648 396Q648 261 557 148T328 0Q356 -58 458 -199Q487 -238 533 -238Q573 -238 628 -199Q650 -184 660 -172T671
-175Q671 -177 662 -188T620 -222Q549 -270 497 -270L474 -268Q435 -261 413 -225Q330 -91 285 -9Q260 -12 232 -12ZM591 405Q591 539 420 539Q335 539 250 471T112 309T60 137Q60 3 224 3Q322 3 408 65T543 219T591 405Z" />
<glyph unicode="R" glyph-name="R" horiz-adv-x="602" d="M418 544L458 545Q490 545 524 534Q591 513 591 435Q591 380 567 348T510 293T419 255T306 238Q347 147 410 69Q448 23 492 23Q559 23 642 132Q650 143 650 131Q650 123 644 115Q543 -24 472 -24L438 -17Q362
16 278 200Q261 237 260 239Q279 265 287 265T321 265T369 266T421 273T468 292Q511 324 533 389Q542 414 542 436T534 480Q514 529 456 529Q401 529 382 506T344 449T311 391T278 325T252 273T237 245T217 208T194 165T171 118T152 76Q132 31 139 18Q143 9 127
15Q125 15 121 16T115 18T108 19T100 20Q89 20 63 4Q26 -19 14 -19T1 -13Q1 -11 3 -10Q44 -3 67 38Q112 114 145 176T218 310T271 409T296 460T311 491Q324 515 370 531Q355 532 318 532T205 518Q101 499 101 435Q101 411 117 401Q122 399 117 396T106 395T87 418Q67
449 67 473Q67 535 183 543Q202 544 238 544L386 545Q402 544 418 544Z" />
<glyph unicode="S" glyph-name="S" horiz-adv-x="451" d="M488 466V486Q488 504 474 514Q445 541 397 541Q331 541 301 495Q283 468 283 445T294 394T359 301T426 201T439 144Q439 80 387 32Q354 1 310 -16T212 -34T106 -7T40 75Q38 86 38 103T49 152T86 202Q87
203 90 200Q96 195 92 191Q73 169 73 141Q73 104 96 70Q119 38 160 17Q205 -6 253 -6Q324 -6 358 46Q377 77 377 110T365 177T316 273T274 343Q254 381 254 418T277 489T338 541Q379 562 423 562Q485 562 524 519Q529 510 529 494T522 465Q496 427 489 402Q475
393 470 399Q488 435 488 466Z" />
<glyph unicode="T" glyph-name="T" horiz-adv-x="432" d="M748 543Q749 545 752 545T756 539Q756 533 746 517Q727 487 709 484Q701 482 675 482T564 493Q520 485 490 438Q463 395 447 360T409 272Q329 81 274 21Q217 -39 148 -39Q115 -39 88 -20Q38 13 38 88Q38
121 48 121Q50 121 50 119L49 94Q49 48 71 24T131 -1Q194 -1 260 70Q286 99 314 150T359 242T402 347T438 435Q456 476 528 497L361 514Q260 519 228 519T139 507T62 465Q54 452 54 440Q54 401 86 385Q92 381 85 378T70 379T42 406Q12 441 12 466Q12 523 78 538Q139
553 174 553T225 551T290 546Q348 542 471 532T642 522Q731 522 748 543Z" />
<glyph unicode="U" glyph-name="U" horiz-adv-x="611" d="M112 546L214 542Q355 543 444 543L431 528Q382 528 360 500Q304 427 233 275T152 48Q152 45 152 42Q152 13 188 13L227 25Q281 52 340 113Q484 263 586 488Q588 491 593 505T604 526T617 531T634 529T657
531T694 554Q697 556 699 556T706 553V550Q671 522 636 468Q487 242 452 133Q438 88 438 59Q438 6 484 6Q493 6 503 8Q536 13 593 70Q624 98 664 149Q671 136 652 112Q594 40 531 -1Q493 -26 462 -26Q423 -26 408 -2Q397 13 397 29T400 68Q406 113 437 190Q439
193 439 194Q411 161 346 98T250 12Q195 -26 146 -26Q144 -26 143 -26Q112 -26 100 -13T88 15Q88 50 178 222Q232 325 246 361T270 426Q290 478 290 519H202Q45 519 45 447Q45 421 58 404L47 396Q46 398 33 419Q8 459 8 468T7 483Q7 546 112 546Z" />
<glyph unicode="V" glyph-name="V" horiz-adv-x="538" d="M118 546L220 542Q361 543 450 543L429 517H359Q383 472 383 342Q383 191 341 39Q499 263 622 389Q684 453 736 496T840 566T932 593Q973 593 980 574Q984 563 984 555T980 535T973 515T963 494T955 477T942
473Q940 475 939 476Q947 503 947 522Q947 564 907 564Q855 564 765 490Q617 372 461 174Q371 61 328 -13Q327 -15 325 -22T320 -32T300 -42T275 -49T264 -46Q255 -42 267 -18Q314 137 329 261T344 441T339 518L208 519Q51 519 51 447Q51 421 64 404L53 396Q52
398 39 419Q14 459 14 467T14 480Q14 510 29 523Q55 546 118 546Z" />
<glyph unicode="W" glyph-name="W" horiz-adv-x="892" d="M118 546L220 542Q361 543 450 543L429 517Q409 517 370 517T310 518Q347 493 365 446T383 358L382 305Q382 290 382 277Q377 168 341 39Q352 55 408 139Q556 358 681 477Q701 496 737 515T807 535Q838
535 855 525L849 514Q841 516 826 516T779 502T719 459T670 370T646 255T636 136T621 39Q838 346 1032 508Q1071 541 1122 567T1212 593Q1253 593 1260 574Q1264 563 1264 555T1260 535T1253 515T1243 494T1235 477T1222 473Q1220 475 1219 476Q1227 503 1227 522Q1227
558 1197 563Q1191 564 1176 564Q1138 564 1048 490Q892 366 741 174Q651 61 608 -13Q607 -15 605 -22T600 -32T580 -42T555 -49T544 -46Q535 -42 547 -18L564 38Q576 81 583 158T604 300T647 408Q628 398 556 307Q546 295 529 273T500 237Q432 150 338 -13Q337
-15 335 -22T331 -31T305 -41T275 -49T264 -46Q255 -42 267 -18Q314 137 329 257Q333 334 333 361T322 439T284 519H208Q51 519 51 447Q51 421 64 404L53 396Q52 398 39 419Q14 459 14 467T14 480Q14 510 29 523Q55 546 118 546Z" />
<glyph unicode="X" glyph-name="X" horiz-adv-x="542" d="M429 517L302 518Q301 506 301 492Q301 414 330 287Q532 492 623 542Q669 566 706 566Q735 566 747 556T762 540T764 528T762 512T757 492T746 469T736 449T725 445Q721 445 722 448Q728 473 728 491Q728
530 698 535Q693 536 687 536Q661 536 631 520Q553 482 337 272L334 266Q345 224 372 152T422 47Q445 15 476 31Q509 48 531 72Q554 98 585 137Q594 148 594 138T577 103Q531 46 474 11Q448 -5 424 -5Q392 -5 369 25Q329 80 298 225Q285 211 250 173T199 118T152
70T102 24T56 -12Q10 -46 -40 -57Q-50 -59 -64 -59T-95 -48T-111 -9T-99 48T-82 77T-80 68Q-91 39 -91 21Q-91 -15 -53 -15Q12 -15 101 60T293 246Q273 359 273 426T289 518Q262 519 224 519T165 517Q51 506 51 447Q51 421 64 404L53 396Q52 398 39 419Q14 459
14 467T14 480Q14 510 29 523Q55 546 118 546L220 542Q361 543 450 543L429 517Z" />
<glyph unicode="Y" glyph-name="Y" horiz-adv-x="452" d="M301 519Q364 478 364 346Q364 281 341 202Q348 212 416 315T519 457T569 513T618 551T677 572Q705 572 718 545Q723 534 723 525T721 509Q717 492 708 474Q706 469 703 470T700 477T702 495T696 520Q687
541 664 541Q616 541 539 452Q452 351 382 234Q361 199 316 120T225 1T117 -39Q85 -39 58 -21Q8 11 8 89Q8 104 13 103T18 94Q18 49 41 24T101 -1Q203 -1 311 154Q299 147 293 147T283 148Q279 150 285 166Q320 273 320 375T283 519H259Q103 519 103 447Q103 430
115 404L105 396Q66 464 66 470T65 480Q65 509 80 523Q106 546 169 546L271 542Q342 543 431 543L410 517Q375 517 301 519Z" />
<glyph unicode="Z" glyph-name="Z" horiz-adv-x="453" d="M106 96Q163 125 218 125Q238 125 261 120T317 88T375 36T452 -53T564 -166T663 -217Q715 -217 725 -178Q728 -168 728 -158Q728 -129 707 -99Q697 -82 680 -65Q679 -63 685 -59T693 -55Q753 -93 753 -147Q753
-172 737 -198Q703 -253 640 -254Q554 -254 440 -126Q425 -108 399 -77T365 -37T342 -10T320 16T299 38T278 59T257 75T233 89Q208 99 182 99Q134 99 92 71T40 5T21 -44T4 -55T-17 -49T-29 -31Q-29 -15 -21 -2Q70 144 533 517Q407 519 365 519T301 517Q188 506
188 447Q188 430 200 404L190 396Q189 398 176 419Q151 459 151 468T150 483Q150 547 262 547L361 545H594Q595 544 595 540Q595 528 589 525Q331 339 106 96Z" />
<glyph unicode="[" glyph-name="bracketleft" horiz-adv-x="362" d="M369 590Q398 596 428 596T497 594T561 592L514 556Q476 565 452 565T415 564T388 555T367 534Q307 427 187 182T63 -72Q123 -73 193 -73T303 -69L249 -100Q208 -104 9 -104Q19 -83 136 175T312
553L369 590Z" />
<glyph unicode="\" glyph-name="backslash" horiz-adv-x="498" d="M510 -34T496 -34T476 -28Q450 5 263 256L1 596Q1 599 26 605T56 611T63 610Q154 502 342 222Q377 170 443 73Q510 -25 510 -29Z" />
<glyph unicode="]" glyph-name="bracketright" horiz-adv-x="397" d="M137 -102Q108 -108 78 -108T9 -106T-55 -104L-7 -68Q33 -77 57 -77T93 -76T118 -67T140 -46Q189 41 443 560Q237 560 204 557L257 588Q298 592 497 592Q274 95 194 -65L137 -102Z" />
<glyph unicode="^" glyph-name="asciicircum" horiz-adv-x="313" d="M85 252T85 259T141 305T209 347L214 345Q242 314 310 262L314 255L309 249Q292 250 250 276T194 317Q100 252 93 252Z" />
<glyph unicode="_" glyph-name="underscore" horiz-adv-x="846" />
<glyph unicode="`" glyph-name="grave" horiz-adv-x="223" d="M53 413Q49 417 49 430T52 444Q61 444 104 407T183 342Q183 342 184 335Q172 337 115 370T53 413Z" />
<glyph unicode="a" glyph-name="a" horiz-adv-x="294" d="M347 148Q349 146 349 140T335 115Q246 -3 170 -3Q146 -3 146 16Q146 51 185 112Q150 75 105 37T21 -2Q3 -2 3 20Q3 25 4 27Q11 84 50 147Q128 273 212 273H327Q332 273 332 269Q332 261 323 261Q309 261
288 229T233 129T198 44T212 26Q235 26 276 66Q298 89 309 102T323 119T347 148ZM240 241Q240 260 215 260T158 231T91 138T54 44Q54 32 62 32Q91 32 165 120T240 241Z" />
<glyph unicode="b" glyph-name="b" horiz-adv-x="269" d="M511 550Q511 546 507 546T502 548Q502 575 462 575T388 561T325 518T274 460T229 387T193 312T161 237T133 172Q132 168 134 168Q238 272 287 272Q304 272 304 248V239Q292 156 224 74T76 -9Q27 -9 27
18Q27 37 80 158Q71 148 57 132T38 110T32 112T39 131T70 168T104 208Q202 414 315 525Q404 612 470 612Q486 612 498 604T511 579V550ZM255 225Q255 238 246 238Q231 238 197 206T142 149Q70 67 70 28Q70 8 95 8T155 43Q181 67 218 131T255 225Z" />
<glyph unicode="c" glyph-name="c" horiz-adv-x="238" d="M290 147Q292 145 292 140T282 119Q248 72 190 32Q129 -8 82 -8T22 7T8 35T14 68Q25 109 62 162T149 245Q202 278 239 278Q259 278 269 270T280 248Q280 218 267 194Q262 183 254 184Q251 185 252 191T254
208T248 236Q239 261 222 261T183 250T152 227Q91 164 66 84Q59 58 59 42T73 21Q94 13 135 26T221 77T290 147Z" />
<glyph unicode="d" glyph-name="d" horiz-adv-x="294" d="M589 542Q588 542 586 544Q582 568 556 578Q544 582 530 582T499 576Q451 559 393 456T273 216Q272 215 249 167Q198 61 198 44T210 26Q232 26 278 71T347 148Q349 146 349 140T335 115Q246 -3 170 -3Q146
-3 146 16Q146 51 185 112Q150 75 112 42Q58 -2 21 -2Q3 -2 3 20Q3 25 4 27Q11 83 50 147T137 247Q169 273 214 273Q237 273 260 273Q276 300 311 366T361 458Q452 612 562 612Q576 612 586 604T596 582L594 546Q594 542 589 542ZM240 241Q240 260 215 260T158
231T91 138T54 44Q54 32 62 32Q91 32 165 120T240 241Z" />
<glyph unicode="e" glyph-name="e" horiz-adv-x="249" d="M84 119Q69 80 69 47T110 13Q125 13 149 22Q188 35 230 72T299 144Q302 141 302 136T295 121Q258 70 203 31T91 -8Q17 -8 17 46Q17 89 63 165Q89 206 137 241T229 277T273 235Q273 191 239 169T161 133T84
119ZM92 139Q98 139 114 139T154 146Q211 163 228 210Q233 224 233 236T225 254T211 260Q146 259 92 139Z" />
<glyph unicode="f" glyph-name="f" horiz-adv-x="182" d="M439 576Q424 582 409 582T380 579Q328 568 274 469Q260 444 186 273H258Q278 273 287 275Q287 268 272 262Q244 247 189 247Q182 247 175 247Q116 99 95 54T55 -26T8 -98T-50 -163T-119 -208T-198 -226Q-281
-226 -299 -176Q-301 -169 -301 -165T-300 -155T-298 -145T-294 -131T-290 -119T-285 -104T-279 -89T-274 -84T-268 -86T-270 -99T-275 -124T-270 -150Q-250 -198 -178 -204Q-174 -204 -169 -204Q-142 -204 -117 -190Q-49 -155 13 -39Q43 17 79 115T128 247H105Q104
247 83 244L81 245Q83 255 100 264T128 273H140Q245 517 332 575Q383 611 445 611Q458 611 469 603T479 581L476 545Q476 543 473 542T469 543Q465 567 439 576Z" />
<glyph unicode="g" glyph-name="g" horiz-adv-x="265" d="M-267 -193L-269 -218Q-269 -263 -241 -287T-172 -312T-99 -299T-41 -269T7 -228T47 -185T84 -130T115 -77T145 -16T169 40T194 101T215 155Q182 101 122 50T23 -2Q5 -2 5 20V27Q12 83 52 148Q130 273
214 273H329Q334 273 334 269Q334 261 325 261Q303 261 289 235Q262 192 195 35T100 -170T28 -265Q-52 -350 -145 -350Q-185 -350 -220 -332Q-282 -299 -282 -223V-206Q-282 -191 -269 -191Q-267 -191 -267 -193ZM241 241Q241 260 216 260T160 231T92 138T55 44Q55
32 64 32Q93 32 167 120T241 241Z" />
<glyph unicode="h" glyph-name="h" horiz-adv-x="294" d="M276 281Q296 281 296 265Q296 252 283 228Q261 193 228 127T194 46T200 27T214 25Q231 29 242 38Q284 70 339 138L340 133Q339 119 326 102T287 56Q233 -6 182 -6Q143 -6 143 20Q143 30 146 39T192 137T235
231T231 236Q220 236 185 207Q140 165 100 113T42 12Q38 1 16 -1T-6 4Q-6 6 -2 16T38 114T98 252Q188 452 290 542Q373 615 468 615Q523 615 527 572Q528 567 528 558T524 535Q523 531 519 531H514Q513 531 514 534T515 541Q515 580 456 580Q366 580 290 514Q198
433 127 245Q117 218 99 169T74 102Q209 281 276 281Z" />
<glyph unicode="i" glyph-name="i" horiz-adv-x="192" d="M167 38T134 18T73 -3T45 16Q45 34 55 56Q62 72 135 226Q82 169 39 112Q32 102 32 114Q32 122 37 128Q108 216 146 271Q196 278 206 287T217 288Q217 284 213 279T131 128Q97 64 97 40Q97 26 111 26Q142
26 223 122L245 147Q257 135 186 59Q167 38 134 18ZM242 382Q218 382 218 408Q218 420 231 429T255 438T272 430T278 416Q278 398 265 390T242 382Z" />
<glyph unicode="j" glyph-name="j" horiz-adv-x="135" d="M227 427Q231 421 231 416T229 403T215 388T193 382T175 391T172 411T186 429T202 436T214 436T227 427ZM-404 -193L-407 -218Q-407 -263 -379 -287T-310 -312T-231 -297Q-146 -260 -86 -180Q13 -45 90
205Q99 236 101 238Q114 252 138 263Q164 275 178 275T196 269Q196 261 187 261Q166 261 153 242Q129 208 18 -57Q-10 -122 -37 -170T-109 -265T-198 -331T-283 -350T-358 -332Q-419 -300 -419 -223V-206Q-419 -191 -407 -191Q-404 -191 -404 -193Z" />
<glyph unicode="k" glyph-name="k" horiz-adv-x="324" d="M292 281Q314 281 314 264Q314 251 306 237T296 219T292 212T287 211T284 215Q284 234 253 234T174 184Q195 69 215 38Q223 25 244 25Q282 26 376 147Q380 142 379 136T364 113Q315 51 272 17Q245 -5 218
-5T175 12Q158 35 135 140Q74 63 57 12Q52 0 30 -1T8 4Q8 6 12 14T38 73T68 142T96 203T128 272Q179 369 199 405Q246 490 312 551T442 612Q458 612 470 604T483 579V550Q483 546 479 546T474 548Q474 575 436 575T362 561T300 518T245 445Q179 343 89 102Q112
133 132 156Q130 173 138 184T156 204T168 218L171 201Q249 281 292 281Z" />
<glyph unicode="l" glyph-name="l" horiz-adv-x="214" d="M393 613Q418 613 418 581Q418 528 331 410Q257 307 125 188Q99 140 86 85Q83 74 83 64Q83 25 120 25Q126 25 133 26Q175 34 267 148Q269 146 269 140T243 101T204 55Q147 -2 101 -2Q49 -2 49 48Q49 88
81 158L39 112Q32 102 32 114Q32 122 39 131T70 168T104 208Q118 234 161 321Q252 505 297 565Q308 569 340 591T393 613ZM314 420Q385 536 385 583Q385 595 376 595Q343 595 246 421Q164 273 142 228Q241 310 314 420Z" />
<glyph unicode="m" glyph-name="m" horiz-adv-x="470" d="M477 259Q477 246 460 221T409 129T374 44T388 26Q406 26 438 55T495 113T522 147Q524 144 524 138T511 115Q427 2 352 -4Q340 -5 331 0T322 15T327 40T337 67Q358 114 376 149T415 228Q425 249 401 236Q337
196 268 100Q233 53 223 17Q209 5 199 9T188 29T221 118Q255 184 275 228Q285 249 261 236Q228 215 183 169T116 75Q107 54 84 -2Q78 -2 61 -8T40 -15Q36 -15 40 -6T57 34T88 110Q123 198 135 226Q82 169 39 112Q32 102 32 114Q32 122 37 128Q108 216 146 271Q196
278 204 285T214 292T216 288T211 277T132 135Q138 142 185 195Q208 219 244 246Q285 276 315 276Q334 276 334 261Q334 248 323 232L278 148L325 195Q348 219 384 246Q425 276 451 276T477 259Z" />
<glyph unicode="n" glyph-name="n" horiz-adv-x="330" d="M337 259Q337 246 321 222T271 132T238 48T252 30T290 48T332 88T382 147Q384 144 384 138T371 115Q320 46 285 19T222 -8Q190 -8 190 23T222 119T275 228Q285 249 261 236Q147 165 84 -2Q78 -2 61 -8T40
-15Q36 -15 40 -6T57 34T88 110Q123 198 135 226Q82 169 39 112Q32 102 32 114Q32 122 37 128Q108 216 146 271Q196 278 204 285T214 292T216 288T211 277T132 135Q180 198 244 246Q285 276 311 276T337 259Z" />
<glyph unicode="o" glyph-name="o" horiz-adv-x="265" d="M279 239Q279 185 225 107Q204 79 187 63Q253 63 309 137Q314 142 314 134T310 120Q259 49 194 49Q185 49 176 50Q120 -2 50 -2Q9 -2 9 33Q9 90 64 166Q99 216 149 245Q202 278 239 278Q279 278 279 239ZM231
238Q231 262 213 262Q207 262 190 256T148 223T99 155Q56 84 56 50T74 15Q88 15 105 24T132 44Q163 77 197 133T231 238Z" />
<glyph unicode="p" glyph-name="p" horiz-adv-x="255" d="M-404 -193L-407 -218Q-407 -263 -379 -287T-310 -312T-231 -297Q-80 -232 23 17Q35 46 58 105Q109 237 138 294Q199 418 274 418Q284 418 292 413T299 397L297 369Q297 366 295 366T292 367Q292 388 267
388Q168 388 103 152Q104 153 121 170T154 202T192 234Q237 272 271 272Q288 272 288 250Q288 245 287 239Q276 157 208 74T60 -9Q39 -9 36 -6Q-53 -269 -208 -335Q-243 -350 -283 -350T-358 -332Q-419 -300 -419 -223V-206Q-419 -191 -407 -191Q-404 -191 -404
-193ZM239 225Q239 238 230 238Q215 238 180 206T124 149Q54 66 54 28Q54 8 79 8T139 43Q165 67 202 131T239 225Z" />
<glyph unicode="q" glyph-name="q" horiz-adv-x="279" d="M331 147Q333 144 333 138T323 118Q249 21 215 -25T126 -160T52 -311Q48 -322 27 -332T-1 -343T-8 -333T83 -115T187 112Q157 81 110 40T23 -2Q5 -2 5 20V27Q12 84 52 147T139 247Q171 273 214 273H329Q334
273 334 269Q334 261 325 261Q310 261 289 228Q239 150 177 25T84 -188Q146 -85 331 147ZM241 241Q241 260 216 260T160 231T92 138T55 44Q55 32 64 32Q93 32 167 120T241 241Z" />
<glyph unicode="r" glyph-name="r" horiz-adv-x="272" d="M294 198Q294 244 266 244T185 184T105 54L84 -2Q78 -2 60 -8T41 -14Q36 -14 40 -5T57 34T88 110Q123 198 135 226Q82 169 39 112Q32 102 32 114Q32 122 37 128Q108 216 146 271Q196 278 204 285T214 292T216
288T211 277T144 158Q171 199 212 239T283 279T322 254Q326 249 326 243T324 228T320 212Q309 187 304 182Q301 177 294 176Q293 177 292 178Q294 189 294 198Z" />
<glyph unicode="s" glyph-name="s" horiz-adv-x="232" d="M219 184Q215 184 217 191T219 209T213 235Q203 262 181 262T145 249T131 224T132 206T144 185T168 158Q206 118 206 88T190 34Q156 -16 94 -16Q62 -16 34 -3Q-1 13 -1 46Q-1 57 5 74T22 101Q28 104 29
99Q22 78 22 64Q22 33 65 7Q77 -1 91 -1Q140 -1 154 16T169 59T137 118Q99 160 99 189Q87 172 49 125Q41 114 40 123T48 143Q65 161 126 252Q152 281 188 281Q244 281 245 242Q245 222 231 194Q226 184 219 184Z" />
<glyph unicode="t" glyph-name="t" horiz-adv-x="198" d="M116 274L147 273Q186 326 225 412Q234 413 253 423T280 442T291 451T294 449T286 437T247 378T189 273H270Q280 273 281 270T275 265T261 260T232 256Q183 253 172 237T132 152Q80 26 116 26Q147 26 230
122L249 146Q251 143 251 137T240 115Q148 -3 74 -3Q50 -3 50 16Q50 40 89 118L143 239Q41 115 39 112Q32 102 32 114Q32 122 37 128Q105 213 131 247Q122 247 77 242Q67 242 84 258T109 274H116Z" />
<glyph unicode="u" glyph-name="u" horiz-adv-x="393" d="M390 263Q360 254 322 171T283 57T298 26Q316 26 357 58Q401 92 436 138Q444 147 445 148Q448 142 447 136T434 115Q346 -3 269 -3Q234 -3 234 24Q234 42 247 79T271 138Q173 -3 90 -3Q66 -3 66 16Q66
40 105 118Q114 136 129 167T149 208T155 222T152 227Q145 227 113 198T39 112Q32 102 32 114Q32 122 37 128Q78 183 103 211T131 243T142 253T156 264Q176 276 198 276T221 259Q221 246 204 221T153 129T118 44T132 26Q151 26 192 65Q255 125 322 253Q331 269
334 269H348Q380 269 398 278Q399 279 401 279T403 275Q403 267 390 263Z" />
<glyph unicode="v" glyph-name="v" horiz-adv-x="294" d="M169 13Q119 -18 94 2Q81 13 82 42Q82 128 112 208Q98 188 69 151T39 112Q32 102 32 114Q32 122 37 128Q93 203 130 261Q166 266 179 278Q183 282 185 282T188 278T185 270Q167 243 144 168T121 58T138
22Q178 22 242 124Q288 199 290 242Q290 265 282 270Q274 273 276 276T282 279T291 277T302 273Q319 265 323 257T327 236Q327 200 263 116T169 13Z" />
<glyph unicode="w" glyph-name="w" horiz-adv-x="500" d="M285 2Q270 13 270 42Q272 104 290 171Q285 163 276 147T262 122Q200 32 165 11Q120 -18 94 2Q81 13 82 42Q82 128 112 208Q98 188 69 151T39 112Q32 102 32 114Q32 122 37 128Q93 203 130 261Q166 266
177 276T188 278Q188 274 185 270Q167 243 144 168T121 58T139 22Q176 22 245 132Q260 156 284 203T315 261Q350 266 361 276T373 278Q374 274 371 270Q353 244 332 169T311 58T332 22Q342 22 360 30T397 57Q464 125 493 204Q511 252 500 274Q495 282 488 284T485
291T494 295T500 295Q540 285 540 251Q540 236 532 216Q510 159 463 100T364 11T285 2Z" />
<glyph unicode="x" glyph-name="x" horiz-adv-x="299" d="M327 265L358 264Q361 264 361 257T357 249Q297 246 156 126Q162 88 178 57T211 26T246 55T272 114Q275 124 279 120T282 109Q273 67 249 31T194 -6Q163 -6 140 38Q124 69 118 94Q96 75 65 41T26 0T3 -5T-12
2T-6 12Q70 72 115 109Q97 195 97 216T120 250T158 264T175 258Q172 254 167 253Q145 253 145 201Q145 175 152 141Q180 165 298 257Q310 265 327 265Z" />
<glyph unicode="y" glyph-name="y" horiz-adv-x="344" d="M221 259Q221 246 204 221T153 129T118 44T132 26Q151 26 197 70T281 179T328 249Q371 271 381 273T400 275T410 268T401 261Q380 261 367 242Q343 208 232 -57Q204 -123 177 -170T105 -265Q24 -350 -69
-350Q-109 -350 -144 -332Q-205 -300 -205 -223V-206Q-205 -191 -193 -191Q-191 -191 -191 -193L-193 -218Q-193 -263 -165 -287T-96 -312T-17 -297Q68 -260 127 -180T237 17Q261 76 288 156Q241 92 202 54Q143 -3 90 -3Q66 -3 66 16Q66 40 105 118Q114 136 129
167T149 208T155 222T152 227Q145 227 113 198T39 112Q33 103 32 112T37 128Q78 183 103 211T131 243T142 253T156 264Q176 276 198 276T221 259Z" />
<glyph unicode="z" glyph-name="z" horiz-adv-x="234" d="M49 45Q74 58 94 58T125 57T154 41Q174 26 214 -12Q288 -86 325 -86Q343 -84 352 -77T358 -58Q352 -36 334 -23Q330 -19 336 -17T345 -16Q374 -30 374 -64Q374 -80 363 -96T335 -120T305 -127L286 -124Q269
-119 247 -97T198 -46T164 -7T154 6T144 17T133 27T123 35T111 42Q99 47 81 47T43 33T17 2T8 -23Q0 -34 -8 -27T-16 -15T-9 2T36 54T94 112T165 175T248 246Q110 246 95 225Q86 214 80 216T80 225T106 265Q109 263 138 263L271 266Q279 266 285 255T292 234Q162
141 146 128T49 45Z" />
<glyph unicode="{" glyph-name="braceleft" horiz-adv-x="354" d="M474 560Q492 561 509 561T531 555T537 544Q524 547 512 547T476 545Q416 540 381 484Q369 463 350 417T312 337T265 282Q221 246 162 232Q227 217 227 171Q227 135 193 65T155 -32T158 -68T174
-80Q192 -86 211 -86T243 -84Q235 -101 225 -101Q125 -101 100 -74Q90 -63 90 -53Q90 -11 126 61Q168 142 168 171T146 212T78 228L91 241Q152 242 189 265T253 342Q256 347 277 401Q332 539 474 560Z" />
<glyph unicode="|" glyph-name="bar" horiz-adv-x="364" d="M64 0Q74 28 298 577H345Q332 559 220 282T106 0H64Z" />
<glyph unicode="}" glyph-name="braceright" horiz-adv-x="411" d="M28 -101Q7 -104 -8 -104T-28 -99T-35 -86Q-22 -89 -10 -89Q85 -89 121 -26Q133 -5 152 41Q194 142 237 177Q284 212 340 226Q275 241 275 287Q275 323 309 393T347 490T344 526T329 538Q310
544 291 544T259 542Q269 560 277 560Q376 560 402 532Q412 521 412 511Q412 470 376 398Q335 316 335 287T357 246T425 230L412 217Q350 216 313 193T250 116Q241 97 225 57Q170 -82 28 -101Z" />
<glyph unicode="~" glyph-name="asciitilde" horiz-adv-x="277" d="M289 343T271 331T237 319T183 332T127 346T83 325L75 335Q112 366 129 366T183 352T236 338T259 340T269 344T280 351T291 359L297 352Q289 343 271 331Z" />
<glyph unicode="&#xa0;" glyph-name="nbspace" horiz-adv-x="166" />
<glyph unicode="&#xa1;" glyph-name="exclamdown" horiz-adv-x="245" d="M-30 -118Q-30 -118 -31 -118Q-38 -118 -38 -103Q-38 -101 -38 -100Q-32 -96 -17 -70Q8 -28 181 318Q186 328 202 332Q207 331 207 329Q59 -56 55 -68T49 -84Q-3 -96 -30 -118ZM236 414Q216
426 210 426T200 425T195 429Q196 433 201 439Q229 462 238 462Q239 462 239 462Q275 462 275 439Q275 437 266 432T252 422Q240 414 236 414Z" />
<glyph unicode="&#xa2;" glyph-name="cent" horiz-adv-x="375" d="M375 377Q375 427 322 427Q318 427 315 427Q238 219 195 95Q198 95 201 95Q248 95 297 125T377 201Q382 208 384 200T385 189Q351 135 298 102T185 68Q160 -4 152 -34Q115 -50 114 -50T112 -49Q122
-18 154 71Q153 71 138 74Q94 85 74 118T53 190Q53 241 84 296T169 391T298 439L327 511Q330 519 346 521Q350 520 350 518L320 440Q354 440 379 428T405 396Q405 386 393 368T379 342T368 335Q367 337 366 337Q375 353 375 377ZM108 183Q108 119 165 100Q223 256
292 424Q242 410 204 378Q128 311 111 218Q108 199 108 183Z" />
<glyph unicode="&#xa3;" glyph-name="sterling" horiz-adv-x="621" d="M89 18L388 9Q480 9 493 25T507 52Q507 81 482 95Q475 98 480 102Q492 110 516 76T543 31T546 6T529 -20T472 -34Q416 -34 265 -18Q92 0 74 0Q33 0 5 -22Q2 -25 1 -20T0 -8T7 3T20 7Q61 8
101 41T161 113L224 240Q169 240 130 237Q124 236 139 252T161 268Q181 265 236 265Q307 404 323 429Q374 510 432 533Q466 547 507 547Q556 547 593 526Q617 512 617 488Q617 480 614 470T592 437T566 399T554 388T553 398Q577 431 577 471Q577 491 569 508Q557
535 522 535Q458 535 414 468L283 264Q355 264 430 267Q432 267 426 259Q410 235 399 235Q344 240 276 240H268L186 114Q133 31 89 18Z" />
<glyph unicode="&#xa4;" glyph-name="currency" horiz-adv-x="426" d="M90 96Q87 96 87 118T90 157T97 177Q110 185 181 243Q153 287 153 339T180 433Q131 472 97 500Q88 504 88 528Q88 581 92 581L214 473Q265 517 331 517T449 471L571 581Q576 581 576 555Q576
505 565 500Q560 495 481 434Q509 390 509 338T481 243Q554 183 565 177Q576 169 576 125Q576 96 572 97L449 206Q399 161 331 161T212 206L90 96ZM204 390T204 337T242 246T333 208T424 246T462 337T424 428T333 466T242 428Z" />
<glyph unicode="&#xa5;" glyph-name="yen" horiz-adv-x="452" d="M301 519Q364 478 364 346Q364 281 341 202Q348 212 416 315T519 457T569 513T618 551T677 572Q705 572 718 545Q723 534 723 525T721 509Q717 492 708 474Q706 469 703 470T700 477T702 495T696
520Q687 541 664 541Q616 541 539 452Q439 335 339 162Q388 162 442 165Q444 165 439 158Q425 138 416 138L328 142L308 107Q270 40 225 1T117 -39Q85 -39 58 -21Q8 11 8 89Q8 104 13 103T18 94Q18 49 41 24T101 -1Q199 -1 303 142Q219 142 186 139Q180 138 193
152T212 166Q230 163 284 163Q320 273 320 375T283 519H259Q103 519 103 447Q103 430 115 404L105 396Q66 464 66 470T65 480Q65 509 80 523Q106 546 169 546L271 542Q342 543 431 543L410 517Q375 517 301 519Z" />
<glyph unicode="&#xa6;" glyph-name="brokenbar" horiz-adv-x="373" d="M161 242L204 244L106 0H64Q74 29 161 242ZM247 349H205Q287 547 298 577H345Q333 558 247 349Z" />
<glyph unicode="&#xa7;" glyph-name="section" horiz-adv-x="542" d="M399 -74T332 -119T197 -164T76 -138T10 -55Q8 -44 8 -27T19 22T56 72Q57 73 60 70Q67 65 62 60Q43 38 43 10Q43 -27 66 -61Q89 -93 130 -114Q175 -137 223 -137Q294 -137 328 -84Q347 -53
347 -20T335 47T286 141T244 212Q224 250 224 287T249 360Q275 395 317 414Q317 457 340 489T400 541Q441 562 485 562Q547 562 585 519Q591 510 591 494T574 450T551 402Q548 400 541 399T532 399Q549 433 549 468T536 514Q507 541 459 541Q393 541 363 495Q345
468 345 445T354 401Q369 364 429 309T507 219T525 162Q525 100 492 60Q450 9 408 -7Q399 -74 332 -119ZM261 345Q253 326 253 308T262 270Q276 236 329 171T395 73T410 14Q411 16 416 19Q465 52 465 117Q465 154 448 187T391 268T336 344T318 401Q277 384 261
345Z" />
<glyph unicode="&#xa8;" glyph-name="dieresis" horiz-adv-x="249" d="M113 369Q76 369 76 392Q76 395 94 406T113 417T125 411T141 405T151 406T156 402Q155 398 150 392Q122 369 113 369ZM229 369Q192 369 192 392Q192 395 218 411L231 417Q251 405 257 405T267
406T272 402Q271 398 266 392Q238 369 229 369Z" />
<glyph unicode="&#xa9;" glyph-name="copyright" horiz-adv-x="715" d="M681 348Q681 283 654 217T573 99T450 22T313 -4Q297 -4 280 -3Q50 14 40 172Q40 178 40 199T52 268T96 368T173 461T280 524T404 545Q420 545 436 544Q558 535 616 493Q681 447 681 348ZM422
530Q365 530 303 497T194 407T121 287T94 172Q94 26 271 13Q283 12 295 12Q358 12 420 40T529 122T598 240T622 364Q622 373 621 383Q613 515 438 529Q430 530 422 530ZM484 347Q493 363 493 384T484 421Q475 438 440 438Q377 438 322 388Q245 321 228 228Q225
209 225 194Q225 130 280 111Q300 104 329 104T396 124Q457 156 495 211Q499 218 502 210T503 199Q462 133 394 100Q350 78 315 78T250 85T198 117Q172 147 172 196Q172 266 216 328Q271 406 356 436Q399 450 435 450T496 438T522 406Q522 396 511 378T496 350Q492
347 484 347Z" />
<glyph unicode="&#xaa;" glyph-name="ordfeminine" horiz-adv-x="294" d="M347 451Q349 449 349 443T335 418Q246 300 170 300Q146 300 146 319Q146 354 185 415Q150 378 105 340T21 301Q3 301 3 323Q3 328 4 330Q11 387 50 450Q128 576 212 576H327Q332 576 332
572Q332 564 323 564Q309 564 288 532T233 432T198 347T212 329Q235 329 276 370Q298 392 309 405T323 422T347 451ZM240 544Q240 563 215 563T158 534T91 441T54 347Q54 335 62 335Q91 335 165 423T240 544Z" />
<glyph unicode="&#xab;" glyph-name="guillemotleft" horiz-adv-x="355" d="M226 205T276 258T341 325T363 340T371 336Q369 328 267 218Q271 214 296 176Q333 122 331 115Q329 104 320 104L314 107Q299 131 285 143T266 160T245 177T226 192Q224 196 225 197Q226
205 276 258ZM229 332Q239 340 245 340T252 336Q251 330 208 282T148 218Q150 215 159 203T176 178T194 152Q214 123 212 115Q210 104 201 104L195 107Q179 137 147 160Q141 165 126 177T107 192Q106 194 106 199T157 258T229 332Z" />
<glyph unicode="&#xac;" glyph-name="logicalnot" horiz-adv-x="414" d="M331 226Q316 227 278 227Q112 227 61 223L73 246H213Q342 246 368 248L375 245Q347 200 332 150L290 151Q292 156 331 226Z" />
<glyph unicode="&#xad;" glyph-name="uni00AD" horiz-adv-x="249" d="M161 148L75 146Q75 149 84 160T98 172L163 168Q188 168 215 169T243 170T240 163T230 151T219 144T204 146Q187 148 161 148Z" />
<glyph unicode="&#xae;" glyph-name="registered" horiz-adv-x="707" d="M681 346Q681 202 573 99T315 -4Q298 -4 280 -3Q50 14 40 172Q40 178 40 199T52 268T96 368T173 461T280 524T404 545Q420 545 436 544Q558 535 616 493Q681 447 681 346ZM241 463T194 407T121
287T94 172T117 83H118Q147 89 162 117Q189 161 285 339Q319 399 329 423T330 455Q314 455 307 463Q302 469 327 470T394 471L442 472Q465 472 490 463Q537 448 537 395Q537 315 446 278Q401 260 355 258Q383 195 428 140Q451 112 480 112Q509 112 541 144Q556
158 567 176Q622 257 622 359Q622 371 621 383Q613 515 438 529Q430 530 422 530Q365 530 303 497ZM521 114Q480 83 446 83T383 120Q345 170 315 237Q307 255 306 257Q319 275 326 275Q328 275 329 275Q370 275 415 299T479 375Q484 389 484 402T480 428Q470 453
445 456Q435 457 427 457Q401 457 390 442T364 404T342 364T318 317T298 277Q220 133 220 107Q220 104 221 101T212 101T195 104T166 93Q127 74 121 78Q161 22 271 13Q284 12 296 12Q424 12 521 114Z" />
<glyph unicode="&#xaf;" glyph-name="overscore" horiz-adv-x="250" d="M279 388L125 379Q121 379 116 386Q109 394 112 399Q131 404 196 404Q267 404 285 394Q286 394 285 391T279 388Z" />
<glyph unicode="&#xb0;" glyph-name="degree" horiz-adv-x="212" d="M187 275T156 275T108 293T91 333Q91 369 119 391T179 414T228 396T246 356Q246 321 217 298ZM143 304T161 304T196 317T214 356Q214 364 204 375T175 386T142 374Q122 359 122 343T132 315Z" />
<glyph unicode="&#xb1;" glyph-name="plusminus" horiz-adv-x="371" d="M454 299Q456 299 456 297T441 278T419 263Q341 267 282 268L281 264Q236 157 231 133Q228 122 202 116T176 112Q193 144 247 268Q136 268 92 264Q85 264 102 282T127 300Q150 296 258 296Q291
378 300 410Q304 421 344 430Q350 432 353 432T356 430Q318 351 294 296Q382 296 454 299ZM60 42L193 37Q249 37 307 39T366 40T360 31Q341 8 331 8Q206 13 191 13L25 10Q25 13 39 27T60 42Z" />
<glyph unicode="&#xb2;" glyph-name="two.superior" horiz-adv-x="220" d="M204 598Q272 598 272 547Q272 509 238 472T142 388T68 331Q54 321 61 321Q61 321 109 319Q158 319 172 326T200 350T218 375L232 370Q221 359 204 325T159 290L98 292Q83 292 63 291T-6
286Q108 389 120 401Q230 504 230 546Q230 557 221 567T188 578Q187 578 175 578T145 567T120 534L116 506L92 494Q108 550 110 572Q110 597 178 597Q197 598 204 598Z" />
<glyph unicode="&#xb3;" glyph-name="three.superior" horiz-adv-x="220" d="M205 598Q269 598 269 549Q269 522 252 504Q230 477 186 462L188 461Q218 458 229 440T241 409T238 379T218 337Q182 283 89 283Q48 283 35 291T21 306Q21 309 24 315T41 370L58 377Q58
374 56 363T52 344Q47 304 92 304Q136 304 161 328T192 375T199 412T184 434T150 446T105 448L120 466L133 468Q215 488 228 529Q231 537 231 546T222 567T189 578Q187 578 174 578T145 568T122 535T116 506L92 494Q108 550 109 567Q111 597 178 597Q198 598 205
598Z" />
<glyph unicode="&#xb4;" glyph-name="acute" horiz-adv-x="129" d="M159 444Q162 444 162 431T158 413Q153 404 96 371T27 335Q26 335 28 342Q64 369 107 406T159 444Z" />
<glyph unicode="&#xb5;" glyph-name="mu" horiz-adv-x="251" d="M207 5Q178 5 178 40Q178 62 196 128Q151 68 45 3Q-53 -146 -81 -207Q-118 -288 -118 -333T-79 -378Q-45 -378 3 -352Q-6 -366 -31 -376T-75 -387Q-117 -387 -141 -362T-165 -308Q-165 -257 -88
-143Q-67 -111 -31 -61T25 18T59 71T93 134T118 208Q111 193 76 150T23 89Q22 89 20 88Q17 88 17 90T18 95T27 105T42 123T53 136Q100 196 120 239Q129 260 144 260Q155 260 155 247T152 215T133 162T94 85T61 25Q129 68 194 139L201 146Q218 202 235 217Q241 222
255 222T268 214Q264 192 244 172Q206 87 206 45Q206 22 226 22Q243 22 259 35T276 48T278 44L277 42Q242 5 207 5Z" />
<glyph unicode="&#xb6;" glyph-name="paragraph" horiz-adv-x="494" d="M657 571Q597 571 535 476Q507 433 467 340T415 222T389 166T346 82T293 -8T231 -91Q163 -175 83 -208Q42 -225 2 -225H-3H-11Q-79 -274 -158 -274Q-192 -274 -192 -261Q-193 -253 -170 -253Q-122
-253 -71 -221T21 -144T102 -38Q168 59 214 158Q151 163 106 194Q57 227 57 289Q57 334 87 378Q138 454 238 489T451 524Q501 524 524 530Q584 600 648 600Q675 600 675 587Q676 578 671 575T657 571ZM495 492L467 491Q397 442 306 252Q268 172 226 89T127 -77T8
-211Q54 -207 101 -172T188 -84Q262 17 303 106Q449 404 495 492Z" />
<glyph unicode="&#xb7;" glyph-name="middot" horiz-adv-x="590" d="M414 214Q365 175 305 175T212 209T180 284Q180 352 241 400Q290 439 350 439T442 405T475 328Q475 261 414 214Z" />
<glyph unicode="&#xb8;" glyph-name="cedilla" horiz-adv-x="190" d="M118 -4T103 -19T88 -50T105 -90T123 -133Q123 -136 123 -139Q116 -176 72 -195T-17 -215Q-25 -215 -23 -207Q-23 -201 -14 -201Q50 -201 73 -176Q86 -161 86 -147T70 -107T53 -60T72 -19T120
1H140Q118 -4 103 -19Z" />
<glyph unicode="&#xb9;" glyph-name="one.superior" horiz-adv-x="170" d="M194 605Q200 608 204 608T208 604T196 575Q179 541 146 427Q121 355 116 323Q114 308 148 305Q160 304 167 305L153 288Q143 291 87 294Q62 293 -1 288L11 305Q15 304 22 304T46 308T71
325Q86 354 108 430Q141 529 141 539T136 550Q129 550 98 524L82 513Q83 526 85 532T88 540L194 605Z" />
<glyph unicode="&#xba;" glyph-name="ordmasculine" horiz-adv-x="265" d="M279 546Q279 492 225 414Q204 386 187 370Q253 370 309 444Q314 449 314 441T310 427Q259 356 194 356Q185 356 176 357Q120 305 50 305Q9 305 9 340Q9 397 64 473Q99 523 149 552Q202
585 239 585Q279 585 279 546ZM231 545Q231 569 213 569Q207 569 190 563T148 530T99 462Q56 391 56 357T74 322Q88 322 105 331T132 351Q163 384 197 441T231 545Z" />
<glyph unicode="&#xbb;" glyph-name="guillemotright" horiz-adv-x="355" d="M234 99T227 99T222 104Q223 112 326 222Q261 310 261 322T272 335L278 332Q297 302 327 278Q348 262 366 247Q368 245 367 240T316 181T244 107Q234 99 227 99ZM102 99T95 99T90 104Q91
112 194 222Q129 310 129 322T140 335L146 332Q165 302 195 278Q216 262 234 247Q236 245 235 240T184 181T112 107Q102 99 95 99Z" />
<glyph unicode="&#xbc;" glyph-name="onequarter" horiz-adv-x="985" d="M745 610Q748 614 765 614Q795 614 814 610Q746 538 548 300T286 -26Q282 -33 271 -33Q244 -33 243 -25Q354 130 513 330T745 610Z" />
<glyph unicode="&#xbd;" glyph-name="onehalf" horiz-adv-x="657" d="M147 430Q180 529 180 539T175 550Q168 550 137 524L121 513Q122 526 124 532T127 540Q207 589 225 600T246 607T236 576Q218 541 185 427Q160 355 155 323Q153 308 188 305Q199 304 206 305L192
288Q182 291 126 294Q101 293 38 288L50 305Q54 304 61 304T85 308T110 325Q125 354 147 430ZM600 610Q604 614 615 614Q635 614 647 610Q571 544 334 308T5 -26Q-1 -33 -10 -33Q-31 -33 -32 -28L-31 -25Q111 129 311 330T600 610ZM537 308Q605 308 605 257Q605
219 571 182T475 98T401 41Q387 31 394 31L442 29Q491 29 505 36T533 60T551 85L565 80Q554 69 537 35T492 0L431 2Q416 2 396 1T327 -4Q441 99 453 111Q563 214 563 256Q563 267 554 277T521 288Q520 288 518 288Q467 288 453 244L449 216L425 204Q441 260 443
282Q443 307 511 307Q530 308 537 308Z" />
<glyph unicode="&#xbe;" glyph-name="threequarters" horiz-adv-x="698" d="M648 610Q652 614 663 614Q683 614 695 610Q619 544 382 308T53 -26Q47 -33 38 -33Q17 -33 16 -28L17 -25Q159 129 359 330T648 610ZM205 598Q269 598 269 549Q269 522 252 504Q230 477
186 462L188 461Q218 458 229 440T241 409T238 379T218 337Q182 283 89 283Q48 283 35 291T21 306Q21 309 24 315T41 370L58 377Q58 374 56 363T52 344Q47 304 92 304Q136 304 161 328T192 375T199 412T184 434T150 446T105 448L120 466L133 468Q215 488 228 529Q231
537 231 546T222 567T189 578Q187 578 174 578T145 568T122 535T116 506L92 494Q108 550 109 567Q111 597 178 597Q198 598 205 598ZM557 87Q556 87 554 87H536Q525 47 524 36T534 20Q555 12 575 15L559 -2Q551 1 493 4Q468 3 406 -2L419 15Q422 14 429 14T453
18T477 33T499 88H465Q422 87 372 85Q360 85 360 89T367 99Q383 108 426 157Q526 262 538 277T560 296T587 306T609 314T614 312T603 286T563 171L546 120Q569 122 576 126T599 146T619 171L629 168L631 162Q628 159 617 143T602 118Q586 87 557 87ZM437 143Q419
122 419 120T459 117T507 118L510 123L538 212Q552 252 551 262Q533 247 437 143Z" />
<glyph unicode="&#xbf;" glyph-name="questiondown" horiz-adv-x="446" d="M388 440Q388 435 370 425T350 414Q330 426 324 426T313 425T308 429Q309 433 315 439Q343 462 351 462Q352 462 352 462Q388 462 388 440ZM309 342Q334 313 334 271T279 184L113 52Q73
20 73 -23T111 -83Q127 -90 143 -90T182 -87T225 -71T261 -28T285 27Q285 38 295 41Q306 45 305 36Q287 -43 287 -55T287 -68Q287 -104 172 -112Q131 -115 119 -115Q8 -115 8 -34Q8 18 36 51T97 101T163 134Q247 172 277 219T308 290T298 326L309 342Z" />
<glyph unicode="&#xc0;" glyph-name="Agrave" horiz-adv-x="768" d="M973 568Q973 563 959 563T940 562Q924 559 905 538Q872 505 801 381T686 158Q686 157 685 155Q649 72 649 42T669 11Q696 11 735 48T807 130Q812 138 816 134T815 122Q801 103 797 98T784 82T768
63T751 45T731 26Q688 -9 656 -9Q598 -9 598 52Q598 98 635 177T736 373T831 530Q806 529 759 502T681 444T595 351T515 263Q575 261 611 261T679 276Q673 260 657 247T613 232T550 230T484 231Q236 -25 87 -25Q55 -25 38 -8T20 35Q20 41 21 53T34 91T50 117Q58
118 53 109Q40 80 40 64T45 40Q58 17 96 17Q215 17 447 233Q333 239 314 239Q238 239 213 214Q195 196 195 166Q195 158 197 151Q182 154 177 157T169 167Q170 175 168 179T170 190T176 199T184 207T194 214T205 221T217 226T229 232Q312 268 379 268Q420 268 481
265Q547 329 628 414T788 521H733Q509 521 490 426Q489 419 489 408T501 389Q506 386 497 382T485 380Q475 387 469 406T462 432Q462 463 479 484T526 515T579 532T642 542Q697 545 747 545H856Q858 545 857 544Q930 577 949 577Q973 577 973 568ZM759 694Q755
698 755 711T758 725Q767 725 810 688T889 623Q889 623 890 616Q878 618 821 651T759 694Z" />
<glyph unicode="&#xc1;" glyph-name="Aacute" horiz-adv-x="768" d="M973 568Q973 563 959 563T940 562Q924 559 905 538Q872 505 801 381T686 158Q686 157 685 155Q649 72 649 42T669 11Q696 11 735 48T807 130Q812 138 816 134T815 122Q801 103 797 98T784 82T768
63T751 45T731 26Q688 -9 656 -9Q598 -9 598 52Q598 98 635 177T736 373T831 530Q806 529 759 502T681 444T595 351T515 263Q575 261 611 261T679 276Q673 260 657 247T613 232T550 230T484 231Q236 -25 87 -25Q55 -25 38 -8T20 35Q20 41 21 53T34 91T50 117Q58
118 53 109Q40 80 40 64T45 40Q58 17 96 17Q215 17 447 233Q333 239 314 239Q238 239 213 214Q195 196 195 166Q195 158 197 151Q182 154 177 157T169 167Q170 175 168 179T170 190T176 199T184 207T194 214T205 221T217 226T229 232Q312 268 379 268Q420 268 481
265Q547 329 628 414T788 521H733Q509 521 490 426Q489 419 489 408T501 389Q506 386 497 382T485 380Q475 387 469 406T462 432Q462 463 479 484T526 515T579 532T642 542Q697 545 747 545H856Q858 545 857 544Q930 577 949 577Q973 577 973 568ZM966 725Q969
725 969 712T965 694Q960 685 903 652T834 616Q833 616 835 623Q871 650 914 687T966 725Z" />
<glyph unicode="&#xc2;" glyph-name="Acircumflex" horiz-adv-x="768" d="M640 233T613 232T550 230T484 231Q236 -25 87 -25Q55 -25 38 -8T20 35Q20 41 21 53T34 91T50 117Q58 118 53 109Q40 80 40 64T45 40Q58 17 96 17Q215 17 447 233Q333 239 314 239Q238
239 213 214Q195 196 195 166Q195 158 197 151Q182 154 177 157T169 167Q170 175 168 179T170 190T176 199T184 207T194 214T205 221T217 226T229 232Q312 268 379 268Q420 268 481 265Q547 329 628 414T788 521H733Q509 521 490 426Q489 419 489 408T501 389Q506
386 497 382T485 380Q475 387 469 406T462 432Q462 463 479 484T526 515T579 532T642 542Q697 545 747 545H856Q858 545 857 544Q930 577 949 577T972 572T969 565T954 563T940 562Q924 559 905 538Q872 505 801 381T686 158Q686 157 685 155Q649 72 649 42T669
11Q696 11 735 48T807 130Q812 138 816 134T815 122Q801 103 797 98T784 82T768 63T751 45T731 26Q688 -9 656 -9Q598 -9 598 52Q598 98 635 177T736 373T831 530Q806 529 759 502T681 444T595 351T515 263Q575 261 611 261T679 276Q673 260 657 247ZM961 616Q938
616 884 681Q884 684 878 681Q867 671 835 650T794 625T775 623Q848 672 888 707H900Q924 667 968 637Q981 629 986 629V626L961 616Z" />
<glyph unicode="&#xc3;" glyph-name="Atilde" horiz-adv-x="768" d="M640 233T613 232T550 230T484 231Q236 -25 87 -25Q55 -25 38 -8T20 35Q20 41 21 53T34 91T50 117Q58 118 53 109Q40 80 40 64T45 40Q58 17 96 17Q215 17 447 233Q333 239 314 239Q238 239 213
214Q195 196 195 166Q195 158 197 151Q182 154 177 157T169 167Q170 175 168 179T170 190T176 199T184 207T194 214T205 221T217 226T229 232Q312 268 379 268Q420 268 481 265Q547 329 628 414T788 521H733Q509 521 490 426Q489 419 489 408T501 389Q506 386 497
382T485 380Q475 387 469 406T462 432Q462 463 479 484T526 515T579 532T642 542Q697 545 747 545H856Q858 545 857 544Q930 577 949 577T972 572T969 565T954 563T940 562Q924 559 905 538Q872 505 801 381T686 158Q686 157 685 155Q649 72 649 42T669 11Q696
11 735 48T807 130Q812 138 816 134T815 122Q801 103 797 98T784 82T768 63T751 45T731 26Q688 -9 656 -9Q598 -9 598 52Q598 98 635 177T736 373T831 530Q806 529 759 502T681 444T595 351T515 263Q575 261 611 261T679 276Q673 260 657 247ZM972 661T959 647T928
632T880 644T829 657T801 639H789Q794 655 809 668T840 682T881 672Q912 660 932 660T968 682H978Q972 661 959 647Z" />
<glyph unicode="&#xc4;" glyph-name="Adieresis" horiz-adv-x="768" d="M973 568Q973 563 959 563T940 562Q924 559 905 538Q872 505 801 381T686 158Q686 157 685 155Q649 72 649 42T669 11Q696 11 735 48T807 130Q812 138 816 134T815 122Q801 103 797 98T784
82T768 63T751 45T731 26Q688 -9 656 -9Q598 -9 598 52Q598 98 635 177T736 373T831 530Q806 529 759 502T681 444T595 351T515 263Q575 261 611 261T679 276Q673 260 657 247T613 232T550 230T484 231Q236 -25 87 -25Q55 -25 38 -8T20 35Q20 41 21 53T34 91T50
117Q58 118 53 109Q40 80 40 64T45 40Q58 17 96 17Q215 17 447 233Q333 239 314 239Q238 239 213 214Q195 196 195 166Q195 158 197 151Q182 154 177 157T169 167Q170 175 168 179T170 190T176 199T184 207T194 214T205 221T217 226T229 232Q312 268 379 268Q420
268 481 265Q547 329 628 414T788 521H733Q509 521 490 426Q489 419 489 408T501 389Q506 386 497 382T485 380Q475 387 469 406T462 432Q462 463 479 484T526 515T579 532T642 542Q697 545 747 545H856Q858 545 857 544Q930 577 949 577Q973 577 973 568ZM920
650Q900 650 883 672Q883 674 888 677T897 684T905 689T912 694Q920 698 922 698Q942 686 948 686T958 687T963 683Q962 679 957 673Q929 650 920 650ZM804 650Q767 650 767 673Q767 678 785 688T805 698T816 692T832 686T842 687T847 683Q846 679 841 673Q813
650 804 650Z" />
<glyph unicode="&#xc5;" glyph-name="Aring" horiz-adv-x="768" d="M640 233T613 232T550 230T484 231Q236 -25 87 -25Q55 -25 38 -8T20 35Q20 41 21 53T34 91T50 117Q58 118 53 109Q40 80 40 64T45 40Q58 17 96 17Q215 17 447 233Q333 239 314 239Q238 239 213
214Q195 196 195 166Q195 158 197 151Q182 154 177 157T169 167Q170 175 168 179T170 190T176 199T184 207T194 214T205 221T217 226T229 232Q312 268 379 268Q420 268 481 265Q547 329 628 414T788 521H733Q509 521 490 426Q489 419 489 408T501 389Q506 386 497
382T485 380Q475 387 469 406T462 432Q462 463 479 484T526 515T579 532T642 542Q697 545 747 545H856Q858 545 857 544Q930 577 949 577T972 572T969 565T954 563T940 562Q924 559 905 538Q872 505 801 381T686 158Q686 157 685 155Q649 72 649 42T669 11Q696
11 735 48T807 130Q812 138 816 134T815 122Q801 103 797 98T784 82T768 63T751 45T731 26Q688 -9 656 -9Q598 -9 598 52Q598 98 635 177T736 373T831 530Q806 529 759 502T681 444T595 351T515 263Q575 261 611 261T679 276Q673 260 657 247ZM900 614Q862 614
862 639Q862 654 876 676T905 701Q922 727 952 727Q969 727 976 716T983 698Q983 664 953 639T900 614ZM948 712Q938 712 922 702L930 698Q926 692 910 674T893 642T904 629Q924 629 942 648Q963 670 963 691T948 712Z" />
<glyph unicode="&#xc6;" glyph-name="AE" horiz-adv-x="1079" d="M913 546L996 548Q1095 548 1110 534Q1119 527 1119 520T1117 505Q1113 476 1088 439Q1081 426 1071 427Q1067 427 1070 441T1074 474Q1074 516 1042 526Q1028 530 997 530T931 528T881 508Q850
464 759 307Q755 296 767 296L883 294Q962 294 989 308Q998 314 997 306Q996 290 979 278T949 265L792 269Q768 269 753 268T733 259T716 228Q648 100 648 63Q648 10 748 8Q957 8 1055 133Q1059 139 1061 132T1060 120T1038 92T1012 60T990 36Q965 9 936 0Q894
-12 802 -12T650 -6T576 21Q571 29 571 44T586 89L634 175Q676 264 738 376T831 530Q806 529 759 502T681 444T595 351T515 263Q575 261 611 261T679 276Q673 260 657 247T613 232T550 230T484 231Q236 -25 87 -25Q55 -25 38 -8T20 35Q20 41 21 53T34 91T50 117Q58
118 53 109Q40 80 40 64T45 40Q58 17 96 17Q215 17 447 233Q333 239 314 239Q238 239 213 214Q195 196 195 166Q195 158 197 151Q182 154 177 157T169 167Q170 175 168 179T170 190T176 199T184 207T194 214T205 221T217 226T229 232Q312 268 379 268Q420 268 481
265Q547 329 628 414T788 521H733Q509 521 490 426Q489 419 489 408T501 389Q506 386 497 382T485 380Q475 387 469 406T462 432Q462 463 479 484T526 515T579 532T642 542Q697 545 747 545H860Q928 577 957 577Q969 577 972 572T969 565T956 563T943 562Q930 561
913 546Z" />
<glyph unicode="&#xc7;" glyph-name="Ccedilla" horiz-adv-x="527" d="M526 384Q543 412 543 447T532 502Q513 534 458 534Q356 534 259 452Q188 389 143 302T97 146T128 43T209 1Q235 -3 260 -3Q336 -3 404 24Q513 66 579 148Q589 160 589 148Q589 141 581 130Q518
46 412 2Q336 -29 248 -29Q223 -46 223 -65T240 -108T258 -151Q258 -154 258 -157Q251 -194 207 -213T118 -233Q110 -233 112 -225Q112 -219 121 -219Q185 -219 208 -194Q221 -179 221 -165T205 -125T188 -83Q188 -48 219 -27Q139 -21 89 18T38 143T90 318T224
470Q329 549 451 549Q506 549 546 530T587 478Q587 464 569 434T545 389Q543 382 530 381Q526 382 526 384Z" />
<glyph unicode="&#xc8;" glyph-name="Egrave" horiz-adv-x="478" d="M245 544L474 548Q557 548 573 534Q582 527 582 520T580 505Q576 476 551 439Q544 426 534 427Q530 427 533 441T537 474Q537 516 505 526Q491 530 460 530T394 528T344 508Q313 464 222 307Q218
296 230 296L346 294Q425 294 452 308Q461 314 460 306Q459 290 442 278T412 265L255 269Q231 269 216 268T196 259T180 228Q111 100 111 63Q111 10 211 8Q420 8 518 133Q522 139 524 132T523 120T501 92T475 60T454 36Q428 9 399 0Q357 -12 265 -12T113 -6T39
21Q34 29 34 44T49 89Q78 141 132 235T217 385T274 481T336 529Q207 522 169 506T120 472T109 432T125 401Q129 399 124 396T113 395T94 418Q75 447 75 473Q75 535 189 543Q208 544 240 544H245ZM362 694Q358 698 358 711T361 725Q370 725 413 688T492 623Q492
623 493 616Q481 618 424 651T362 694Z" />
<glyph unicode="&#xc9;" glyph-name="Eacute" horiz-adv-x="478" d="M245 544L474 548Q557 548 573 534Q582 527 582 520T580 505Q576 476 551 439Q544 426 534 427Q530 427 533 441T537 474Q537 516 505 526Q491 530 460 530T394 528T344 508Q313 464 222 307Q218
296 230 296L346 294Q425 294 452 308Q461 314 460 306Q459 290 442 278T412 265L255 269Q231 269 216 268T196 259T180 228Q111 100 111 63Q111 10 211 8Q420 8 518 133Q522 139 524 132T523 120T501 92T475 60T454 36Q428 9 399 0Q357 -12 265 -12T113 -6T39
21Q34 29 34 44T49 89Q78 141 132 235T217 385T274 481T336 529Q207 522 169 506T120 472T109 432T125 401Q129 399 124 396T113 395T94 418Q75 447 75 473Q75 535 189 543Q208 544 240 544H245ZM573 725Q576 725 576 712T572 694Q567 685 510 652T441 616Q440
616 442 623Q478 650 521 687T573 725Z" />
<glyph unicode="&#xca;" glyph-name="Ecircumflex" horiz-adv-x="478" d="M245 544L474 548Q557 548 573 534Q582 527 582 520T580 505Q576 476 551 439Q544 426 534 427Q530 427 533 441T537 474Q537 516 505 526Q491 530 460 530T394 528T344 508Q313 464 222
307Q218 296 230 296L346 294Q425 294 452 308Q461 314 460 306Q459 290 442 278T412 265L255 269Q231 269 216 268T196 259T180 228Q111 100 111 63Q111 10 211 8Q420 8 518 133Q522 139 524 132T523 120T501 92T475 60T454 36Q428 9 399 0Q357 -12 265 -12T113
-6T39 21Q34 29 34 44T49 89Q78 141 132 235T217 385T274 481T336 529Q207 522 169 506T120 472T109 432T125 401Q129 399 124 396T113 395T94 418Q75 447 75 473Q75 535 189 543Q208 544 240 544H245ZM534 616Q511 616 457 681Q457 684 451 681Q440 671 408 650T367
625T348 623Q421 672 461 707H473Q497 667 541 637Q554 629 559 629V626L534 616Z" />
<glyph unicode="&#xcb;" glyph-name="Edieresis" horiz-adv-x="478" d="M245 544L474 548Q557 548 573 534Q582 527 582 520T580 505Q576 476 551 439Q544 426 534 427Q530 427 533 441T537 474Q537 516 505 526Q491 530 460 530T394 528T344 508Q313 464 222
307Q218 296 230 296L346 294Q425 294 452 308Q461 314 460 306Q459 290 442 278T412 265L255 269Q231 269 216 268T196 259T180 228Q111 100 111 63Q111 10 211 8Q420 8 518 133Q522 139 524 132T523 120T501 92T475 60T454 36Q428 9 399 0Q357 -12 265 -12T113
-6T39 21Q34 29 34 44T49 89Q78 141 132 235T217 385T274 481T336 529Q207 522 169 506T120 472T109 432T125 401Q129 399 124 396T113 395T94 418Q75 447 75 473Q75 535 189 543Q208 544 240 544H245ZM396 650Q376 650 359 672Q359 674 364 677T373 684T381 689T388
694Q396 698 398 698Q418 686 424 686T434 687T439 683Q438 679 433 673Q405 650 396 650ZM512 650Q492 650 475 672Q475 674 480 677T489 684T497 689T504 694Q512 698 514 698Q534 686 540 686T550 687T555 683Q554 679 549 673Q521 650 512 650Z" />
<glyph unicode="&#xcc;" glyph-name="Igrave" horiz-adv-x="365" d="M381 546L483 542L643 543L630 528Q599 528 568 523T507 494T455 435L446 420Q439 404 413 341T369 237T319 142T259 58T193 9T121 -10T60 8Q10 42 10 117Q10 130 14 131Q21 132 21 123Q21 77
43 53T103 28Q182 28 264 138Q280 158 291 172T317 214T339 251T361 294T380 333T401 378T421 420Q453 487 501 519H471Q315 519 315 447Q315 430 327 404L317 396Q278 464 278 470T277 480Q277 509 292 523Q318 546 381 546ZM381 694Q377 698 377 711T380 725Q389
725 432 688T511 623Q511 623 512 616Q500 618 443 651T381 694Z" />
<glyph unicode="&#xcd;" glyph-name="Iacute" horiz-adv-x="365" d="M381 546L483 542L643 543L630 528Q599 528 568 523T507 494T455 435L446 420Q439 404 413 341T369 237T319 142T259 58T193 9T121 -10T60 8Q10 42 10 117Q10 130 14 131Q21 132 21 123Q21 77
43 53T103 28Q182 28 264 138Q280 158 291 172T317 214T339 251T361 294T380 333T401 378T421 420Q453 487 501 519H471Q315 519 315 447Q315 430 327 404L317 396Q278 464 278 470T277 480Q277 509 292 523Q318 546 381 546ZM613 725Q616 725 616 712T612 694Q607
685 550 652T481 616Q480 616 482 623Q518 650 561 687T613 725Z" />
<glyph unicode="&#xce;" glyph-name="Icircumflex" horiz-adv-x="365" d="M381 546L483 542L643 543L630 528Q599 528 568 523T507 494T455 435L446 420Q439 404 413 341T369 237T319 142T259 58T193 9T121 -10T60 8Q10 42 10 117Q10 130 14 131Q21 132 21 123Q21
77 43 53T103 28Q182 28 264 138Q280 158 291 172T317 214T339 251T361 294T380 333T401 378T421 420Q453 487 501 519H471Q315 519 315 447Q315 430 327 404L317 396Q278 464 278 470T277 480Q277 509 292 523Q318 546 381 546ZM584 616Q561 616 507 681Q507 684
501 681Q490 671 458 650T417 625T398 623Q471 672 511 707H523Q547 667 591 637Q604 629 609 629V626L584 616Z" />
<glyph unicode="&#xcf;" glyph-name="Idieresis" horiz-adv-x="365" d="M381 546L483 542L643 543L630 528Q599 528 568 523T507 494T455 435L446 420Q439 404 413 341T369 237T319 142T259 58T193 9T121 -10T60 8Q10 42 10 117Q10 130 14 131Q21 132 21 123Q21
77 43 53T103 28Q182 28 264 138Q280 158 291 172T317 214T339 251T361 294T380 333T401 378T421 420Q453 487 501 519H471Q315 519 315 447Q315 430 327 404L317 396Q278 464 278 470T277 480Q277 509 292 523Q318 546 381 546ZM537 687T542 690T552 696T557 698T568
692T584 686T594 687T599 683Q598 679 593 673Q565 650 556 650Q536 650 519 672Q518 673 521 676T531 683ZM440 650Q403 650 403 673Q403 678 421 688T441 698T452 692T468 686T478 687T483 683Q482 679 477 673Q449 650 440 650Z" />
<glyph unicode="&#xd0;" glyph-name="Eth" horiz-adv-x="626" d="M228 544L427 549Q566 549 630 500Q654 481 669 448T684 371Q684 269 616 167Q494 -16 274 -16Q197 -16 138 14Q120 23 105 23T57 2T11 -19T-2 -13L0 -10L6 -8Q6 -9 13 -7Q45 4 64 38Q116 125 176
238Q130 236 101 234Q95 233 110 250T131 267Q144 264 189 262L285 444Q299 476 308 491Q323 516 367 531H343Q277 531 202 518T108 470Q98 452 98 438T102 415T111 404T116 399Q116 393 108 393T85 416Q64 449 64 473Q64 544 228 544ZM292 233L230 238L152 83Q146
69 146 56T171 21Q201 -2 262 -2Q373 -2 461 61T593 229Q623 305 623 373T576 485T451 528Q398 528 380 508T340 448T303 382T272 319Q250 274 243 262Q283 262 321 266Q327 266 312 249T292 233Z" />
<glyph unicode="&#xd1;" glyph-name="Ntilde" horiz-adv-x="721" d="M942 586L941 550L932 548Q933 559 923 565T903 572Q856 572 790 436Q734 323 694 220T647 101T640 73Q640 59 644 42T638 18T619 6T597 -10T581 -28Q579 -31 577 -31Q571 -31 570 -25Q581 -10
590 16Q569 130 496 355Q472 431 463 460Q453 453 438 408Q402 301 346 188Q309 112 262 55Q240 28 196 9T118 -10T56 8Q6 40 6 117Q6 132 11 132T16 123Q16 76 41 45T104 14Q176 14 237 78Q290 135 318 192T356 274Q375 314 417 420Q433 459 460 487T522 521H467Q308
521 276 475Q267 461 267 449T270 426Q279 399 300 389Q306 386 299 383T288 380Q275 387 256 408Q229 440 229 464T244 506T308 532Q377 545 464 545Q467 545 468 545H589Q598 546 585 530T569 514T560 515T535 511T509 501Q515 428 549 309T625 86Q637 116 684
245T772 465T848 589Q874 613 908 613T942 586ZM793 661T780 647T749 632T701 644T650 657T622 639H610Q615 655 630 668T661 682T702 672Q733 660 753 660T789 682H799Q793 661 780 647Z" />
<glyph unicode="&#xd2;" glyph-name="Ograve" horiz-adv-x="594" d="M648 396Q648 292 592 198T440 46T232 -12Q7 -12 7 146Q7 242 74 348Q108 404 155 449T271 524T418 554Q537 554 592 516T648 396ZM591 405Q591 539 420 539Q335 539 250 471T112 309T60 137Q60
3 224 3Q322 3 408 65T543 219T591 405ZM390 694Q386 698 386 711T389 725Q398 725 441 688T520 623Q520 623 521 616Q509 618 452 651T390 694Z" />
<glyph unicode="&#xd3;" glyph-name="Oacute" horiz-adv-x="594" d="M648 396Q648 292 592 198T440 46T232 -12Q7 -12 7 146Q7 242 74 348Q108 404 155 449T271 524T418 554Q537 554 592 516T648 396ZM591 405Q591 539 420 539Q335 539 250 471T112 309T60 137Q60
3 224 3Q322 3 408 65T543 219T591 405ZM591 725Q594 725 594 712T590 694Q585 685 528 652T459 616Q458 616 460 623Q496 650 539 687T591 725Z" />
<glyph unicode="&#xd4;" glyph-name="Ocircumflex" horiz-adv-x="594" d="M648 396Q648 292 592 198T440 46T232 -12Q7 -12 7 146Q7 242 74 348Q108 404 155 449T271 524T418 554Q537 554 592 516T648 396ZM591 405Q591 539 420 539Q335 539 250 471T112 309T60
137Q60 3 224 3Q322 3 408 65T543 219T591 405ZM570 616Q547 616 493 681Q493 684 487 681Q476 671 444 650T403 625T384 623Q457 672 497 707H509Q533 667 577 637Q590 629 595 629V626L570 616Z" />
<glyph unicode="&#xd5;" glyph-name="Otilde" horiz-adv-x="594" d="M648 396Q648 292 592 198T440 46T232 -12Q7 -12 7 146Q7 242 74 348Q108 404 155 449T271 524T418 554Q537 554 592 516T648 396ZM591 405Q591 539 420 539Q335 539 250 471T112 309T60 137Q60
3 224 3Q322 3 408 65T543 219T591 405ZM589 661T576 647T545 632T497 644T446 657T418 639H406Q411 655 426 668T457 682T498 672Q529 660 549 660T585 682H595Q589 661 576 647Z" />
<glyph unicode="&#xd6;" glyph-name="Odieresis" horiz-adv-x="594" d="M648 396Q648 292 592 198T440 46T232 -12Q7 -12 7 146Q7 242 74 348Q108 404 155 449T271 524T418 554Q537 554 592 516T648 396ZM591 405Q591 539 420 539Q335 539 250 471T112 309T60
137Q60 3 224 3Q322 3 408 65T543 219T591 405ZM446 650Q426 650 409 672Q409 674 414 677T423 684T431 689T438 694Q446 698 448 698Q468 686 474 686T484 687T489 683Q488 679 483 673Q455 650 446 650ZM562 650Q525 650 525 673Q525 678 543 688T563 698T574
692T590 686T600 687T605 683Q604 679 599 673Q571 650 562 650Z" />
<glyph unicode="&#xd7;" glyph-name="multiply" horiz-adv-x="426" d="M372 415Q376 403 376 385T369 362Q281 294 237 256Q354 159 369 150Q376 145 376 129Q376 97 373 97L215 237Q196 221 57 97Q55 107 55 126T61 150Q76 159 193 256Q173 273 120 315T61 361T55
380Q55 403 58 415Q81 394 134 348T215 275Q301 348 372 415Z" />
<glyph unicode="&#xd8;" glyph-name="Oslash" horiz-adv-x="594" d="M39 -28Q33 -35 19 -35T4 -32T59 30Q7 69 7 146Q7 242 74 348Q108 404 155 449T271 524T423 554T558 533L598 569Q601 573 612 573Q631 573 642 569Q616 547 587 519Q648 480 648 396Q648 292
592 198T440 46T241 -12T81 17Q72 8 39 -28ZM591 405Q591 463 561 494Q358 301 100 36Q139 3 230 3T408 65T543 219T591 405ZM60 137Q60 86 82 55Q349 336 537 513Q496 539 416 539T250 471T112 309T60 137Z" />
<glyph unicode="&#xd9;" glyph-name="Ugrave" horiz-adv-x="611" d="M112 546L214 542Q355 543 444 543L431 528Q382 528 360 500Q304 427 233 275T152 48Q152 45 152 42Q152 13 188 13L227 25Q281 52 340 113Q484 263 586 488Q588 491 593 505T604 526T617 531T634
529T657 531T694 554Q700 558 706 553V550Q671 522 636 468Q487 242 452 133Q438 88 438 59Q438 6 484 6Q493 6 503 8Q536 13 593 70Q624 98 664 149Q671 136 652 112Q594 40 531 -1Q493 -26 462 -26Q423 -26 408 -2Q397 13 397 29T400 68Q406 113 437 190Q439
193 439 194Q411 161 346 98T250 12Q195 -26 146 -26Q144 -26 143 -26Q112 -26 100 -13T88 15Q88 50 178 222Q232 325 246 361T270 426Q290 478 290 519H202Q45 519 45 447Q45 421 58 404L47 396Q46 398 33 419Q8 459 8 468T7 483Q7 546 112 546ZM434 694Q430 698
430 711T433 725Q442 725 485 688T564 623Q564 623 565 616Q553 618 496 651T434 694Z" />
<glyph unicode="&#xda;" glyph-name="Uacute" horiz-adv-x="611" d="M112 546L214 542Q355 543 444 543L431 528Q382 528 360 500Q304 427 233 275T152 48Q152 45 152 42Q152 13 188 13L227 25Q281 52 340 113Q484 263 586 488Q588 491 593 505T604 526T617 531T634
529T657 531T694 554Q700 558 706 553V550Q671 522 636 468Q487 242 452 133Q438 88 438 59Q438 6 484 6Q493 6 503 8Q536 13 593 70Q624 98 664 149Q671 136 652 112Q594 40 531 -1Q493 -26 462 -26Q423 -26 408 -2Q397 13 397 29T400 68Q406 113 437 190Q439
193 439 194Q411 161 346 98T250 12Q195 -26 146 -26Q144 -26 143 -26Q112 -26 100 -13T88 15Q88 50 178 222Q232 325 246 361T270 426Q290 478 290 519H202Q45 519 45 447Q45 421 58 404L47 396Q46 398 33 419Q8 459 8 468T7 483Q7 546 112 546ZM617 725Q620 725
620 712T616 694Q611 685 554 652T485 616Q484 616 486 623Q522 650 565 687T617 725Z" />
<glyph unicode="&#xdb;" glyph-name="Ucircumflex" horiz-adv-x="611" d="M112 546L214 542Q355 543 444 543L431 528Q382 528 360 500Q304 427 233 275T152 48Q152 45 152 42Q152 13 188 13L227 25Q281 52 340 113Q484 263 586 488Q588 491 593 505T604 526T617
531T634 529T657 531T694 554Q700 558 706 553V550Q671 522 636 468Q487 242 452 133Q438 88 438 59Q438 6 484 6Q493 6 503 8Q536 13 593 70Q624 98 664 149Q671 136 652 112Q594 40 531 -1Q493 -26 462 -26Q423 -26 408 -2Q397 13 397 29T400 68Q406 113 437
190Q439 193 439 194Q411 161 346 98T250 12Q195 -26 146 -26Q144 -26 143 -26Q112 -26 100 -13T88 15Q88 50 178 222Q232 325 246 361T270 426Q290 478 290 519H202Q45 519 45 447Q45 421 58 404L47 396Q46 398 33 419Q8 459 8 468T7 483Q7 546 112 546ZM622 616Q599
616 545 681Q545 684 539 681Q528 671 496 650T455 625T436 623Q509 672 549 707H561Q585 667 629 637Q642 629 647 629V626L622 616Z" />
<glyph unicode="&#xdc;" glyph-name="Udieresis" horiz-adv-x="611" d="M112 546L214 542Q355 543 444 543L431 528Q382 528 360 500Q304 427 233 275T152 48Q152 45 152 42Q152 13 188 13L227 25Q281 52 340 113Q484 263 586 488Q588 491 593 505T604 526T617
531T634 529T657 531T694 554Q700 558 706 553V550Q671 522 636 468Q487 242 452 133Q438 88 438 59Q438 6 484 6Q493 6 503 8Q536 13 593 70Q624 98 664 149Q671 136 652 112Q594 40 531 -1Q493 -26 462 -26Q423 -26 408 -2Q397 13 397 29T400 68Q406 113 437
190Q439 193 439 194Q411 161 346 98T250 12Q195 -26 146 -26Q144 -26 143 -26Q112 -26 100 -13T88 15Q88 50 178 222Q232 325 246 361T270 426Q290 478 290 519H202Q45 519 45 447Q45 421 58 404L47 396Q46 398 33 419Q8 459 8 468T7 483Q7 546 112 546ZM480 650Q443
650 443 673Q443 678 461 688T481 698T492 692T508 686T518 687T523 683Q522 679 517 673Q489 650 480 650ZM596 650Q559 650 559 673Q559 678 577 688T597 698T608 692T624 686T634 687T639 683Q638 679 633 673Q605 650 596 650Z" />
<glyph unicode="&#xdd;" glyph-name="Yacute" horiz-adv-x="452" d="M301 519Q364 478 364 346Q364 281 341 202Q348 212 416 315T519 457T569 513T618 551T677 572Q705 572 718 545Q723 534 723 525T721 509Q717 492 708 474Q706 469 703 470T700 477T702 495T696
520Q687 541 664 541Q616 541 539 452Q452 351 382 234Q361 199 316 120T225 1T117 -39Q85 -39 58 -21Q8 11 8 89Q8 104 13 103T18 94Q18 49 41 24T101 -1Q203 -1 311 154Q299 147 293 147T283 148Q279 150 285 166Q320 273 320 375T283 519H259Q103 519 103 447Q103
430 115 404L105 396Q66 464 66 470T65 480Q65 509 80 523Q106 546 169 546L271 542Q342 543 431 543L410 517Q375 517 301 519ZM600 725Q603 725 603 712T599 694Q594 685 537 652T468 616Q467 616 469 623Q505 650 548 687T600 725Z" />
<glyph unicode="&#xde;" glyph-name="Thorn" horiz-adv-x="541" d="M510 604T501 604T487 603Q470 600 449 579Q415 548 337 424Q435 424 469 412T518 378Q540 345 540 320Q540 251 477 193Q438 157 391 138Q328 112 212 112Q184 112 169 115Q81 -50 81 -94Q81
-99 82 -103Q86 -112 70 -106Q55 -102 44 -102T27 -105T0 -121Q-31 -140 -43 -140T-56 -134Q-56 -132 -54 -131Q-13 -124 10 -83Q55 -7 88 55T158 184T283 413T381 576Q387 578 418 592Q479 618 498 618T519 613T516 606ZM181 136Q195 133 212 133T262 137T339
152T422 193T476 268Q485 293 485 315T477 358Q457 408 397 408Q341 408 324 384Q313 369 197 165L181 136Z" />
<glyph unicode="&#xdf;" glyph-name="germandbls" horiz-adv-x="461" d="M581 544T581 497T542 398Q492 341 399 331Q339 321 356 285Q370 258 397 229T431 192Q460 154 460 119T434 49Q393 -5 318 -20Q298 -24 279 -24Q224 -24 191 15Q168 43 168 63T176 107T200
144Q207 146 209 143T208 134Q201 123 201 99Q201 56 233 28T309 0T379 21Q408 45 408 96Q408 147 354 212Q314 261 314 284Q314 317 370 338Q474 361 516 416Q546 455 546 496T521 567T441 596T336 549T244 414T155 206T92 47T55 -26T8 -98T-50 -163T-119 -208T-198
-226Q-281 -226 -299 -176Q-301 -169 -301 -165T-300 -155T-298 -145T-294 -131T-290 -119T-285 -104T-279 -89T-274 -84T-268 -86T-270 -99T-275 -124T-270 -150Q-248 -200 -171 -200Q-143 -200 -117 -186Q-20 -135 53 48Q72 96 93 155T128 247H105Q104 247 83
244L81 245Q83 255 100 264T128 273H140Q222 477 310 556Q369 608 444 611Q504 611 542 578Z" />
<glyph unicode="&#xe0;" glyph-name="agrave" horiz-adv-x="294" d="M347 148Q349 146 349 140T335 115Q246 -3 170 -3Q146 -3 146 16Q146 51 185 112Q150 75 105 37T21 -2Q3 -2 3 20Q3 25 4 27Q11 84 50 147Q128 273 212 273H327Q332 273 332 269Q332 261 323
261Q309 261 288 229T233 129T198 44T212 26Q235 26 276 66Q298 89 309 102T323 119T347 148ZM240 241Q240 260 215 260T158 231T91 138T54 44Q54 32 62 32Q91 32 165 120T240 241ZM167 413Q163 417 163 430T166 444Q175 444 218 407T297 342Q297 342 298 335Q286
337 229 370T167 413Z" />
<glyph unicode="&#xe1;" glyph-name="aacute" horiz-adv-x="294" d="M347 148Q349 146 349 140T335 115Q246 -3 170 -3Q146 -3 146 16Q146 51 185 112Q150 75 105 37T21 -2Q3 -2 3 20Q3 25 4 27Q11 84 50 147Q128 273 212 273H327Q332 273 332 269Q332 261 323
261Q309 261 288 229T233 129T198 44T212 26Q235 26 276 66Q298 89 309 102T323 119T347 148ZM240 241Q240 260 215 260T158 231T91 138T54 44Q54 32 62 32Q91 32 165 120T240 241ZM374 444Q377 444 377 431T373 413Q368 404 311 371T242 335Q241 335 243 342Q279
369 322 406T374 444Z" />
<glyph unicode="&#xe2;" glyph-name="acircumflex" horiz-adv-x="294" d="M347 148Q349 146 349 140T335 115Q246 -3 170 -3Q146 -3 146 16Q146 51 185 112Q150 75 105 37T21 -2Q3 -2 3 20Q3 25 4 27Q11 84 50 147Q128 273 212 273H327Q332 273 332 269Q332 261
323 261Q309 261 288 229T233 129T198 44T212 26Q235 26 276 66Q298 89 309 102T323 119T347 148ZM240 241Q240 260 215 260T158 231T91 138T54 44Q54 32 62 32Q91 32 165 120T240 241ZM344 335Q321 335 267 400Q267 403 261 400Q250 390 218 369T177 344T158 342Q231
391 271 426H283Q307 386 351 356Q364 348 369 348V345L344 335Z" />
<glyph unicode="&#xe3;" glyph-name="atilde" horiz-adv-x="294" d="M347 148Q349 146 349 140T335 115Q246 -3 170 -3Q146 -3 146 16Q146 51 185 112Q150 75 105 37T21 -2Q3 -2 3 20Q3 25 4 27Q11 84 50 147Q128 273 212 273H327Q332 273 332 269Q332 261 323
261Q309 261 288 229T233 129T198 44T212 26Q235 26 276 66Q298 89 309 102T323 119T347 148ZM240 241Q240 260 215 260T158 231T91 138T54 44Q54 32 62 32Q91 32 165 120T240 241ZM368 380T355 366T324 351T276 363T225 376T197 358H185Q190 374 205 387T236 401T277
391Q308 379 328 379T364 401H374Q368 380 355 366Z" />
<glyph unicode="&#xe4;" glyph-name="adieresis" horiz-adv-x="294" d="M347 148Q349 146 349 140T335 115Q246 -3 170 -3Q146 -3 146 16Q146 51 185 112Q150 75 105 37T21 -2Q3 -2 3 20Q3 25 4 27Q11 84 50 147Q128 273 212 273H327Q332 273 332 269Q332 261
323 261Q309 261 288 229T233 129T198 44T212 26Q235 26 276 66Q298 89 309 102T323 119T347 148ZM240 241Q240 260 215 260T158 231T91 138T54 44Q54 32 62 32Q91 32 165 120T240 241ZM213 369Q176 369 176 392Q176 395 202 411L215 417Q235 405 241 405T251 406T256
402Q255 398 250 392Q222 369 213 369ZM329 369Q292 369 292 392Q292 395 318 411L331 417Q351 405 357 405T367 406T372 402Q371 398 366 392Q338 369 329 369Z" />
<glyph unicode="&#xe5;" glyph-name="aring" horiz-adv-x="294" d="M347 148Q349 146 349 140T335 115Q246 -3 170 -3Q146 -3 146 16Q146 51 185 112Q150 75 105 37T21 -2Q3 -2 3 20Q3 25 4 27Q11 84 50 147Q128 273 212 273H327Q332 273 332 269Q332 261 323
261Q309 261 288 229T233 129T198 44T212 26Q235 26 276 66Q298 89 309 102T323 119T347 148ZM240 241Q240 260 215 260T158 231T91 138T54 44Q54 32 62 32Q91 32 165 120T240 241ZM276 333Q238 333 238 358Q238 373 252 395T281 420Q298 446 328 446Q345 446 352
435T359 417Q359 383 329 358T276 333ZM324 431Q314 431 298 421L306 417Q302 411 286 393T269 361T280 348Q300 348 318 366Q339 389 339 410T324 431Z" />
<glyph unicode="&#xe6;" glyph-name="ae" horiz-adv-x="397" d="M232 119Q217 80 217 47T258 13Q273 13 297 22Q336 35 378 72T447 144Q450 141 450 136T443 121Q406 70 351 31T239 -8Q165 -8 165 47Q165 71 180 107Q79 -2 21 -2Q3 -2 3 20Q3 25 4 27Q11 84 50
147T137 247Q169 271 212 273L322 278Q327 278 331 276T332 268Q357 277 375 277Q421 277 421 235Q421 191 387 169T309 133T232 119ZM240 241Q240 260 215 260T158 231T91 138T54 44Q54 32 62 32Q91 32 165 120T240 241ZM240 139Q246 139 262 139T302 146Q359
163 376 210Q381 224 381 236T373 254T359 260Q294 259 240 139Z" />
<glyph unicode="&#xe7;" glyph-name="ccedilla" horiz-adv-x="238" d="M290 147Q292 145 292 140T282 119Q249 74 193 36T87 -7Q56 -26 56 -52Q56 -66 73 -90T91 -133Q91 -136 91 -139Q84 -176 40 -195T-49 -215Q-57 -215 -55 -207Q-55 -201 -46 -201Q18 -201
41 -176Q54 -161 54 -147T38 -107T21 -65Q21 -27 57 -7Q25 -3 14 17Q8 28 8 40T14 73Q28 116 63 166T149 245Q202 278 239 278Q259 278 269 270T280 248Q280 218 267 194Q262 183 254 184Q251 185 252 191T254 208T248 236Q239 261 222 261T183 250T152 227Q91
164 66 84Q59 58 59 42T73 21Q94 13 135 26T221 77T290 147Z" />
<glyph unicode="&#xe8;" glyph-name="egrave" horiz-adv-x="249" d="M84 119Q69 80 69 47T110 13Q125 13 149 22Q188 35 230 72T299 144Q302 141 302 136T295 121Q258 70 203 31T91 -8Q17 -8 17 46Q17 89 63 165Q89 206 137 241T229 277T273 235Q273 191 239 169T161
133T84 119ZM92 139Q98 139 114 139T154 146Q211 163 228 210Q233 224 233 236T225 254T211 260Q146 259 92 139ZM150 413Q146 417 146 430T149 444Q158 444 201 407T280 342Q280 342 281 335Q269 337 212 370T150 413Z" />
<glyph unicode="&#xe9;" glyph-name="eacute" horiz-adv-x="249" d="M84 119Q69 80 69 47T110 13Q125 13 149 22Q188 35 230 72T299 144Q306 137 295 121Q258 70 203 31T91 -8Q17 -8 17 46Q17 89 63 165Q89 206 137 241T229 277T273 235Q273 191 239 169T161 133T84
119ZM92 139Q98 139 114 139T154 146Q211 163 228 210Q233 224 233 236T225 254T211 260Q146 259 92 139ZM372 444Q375 444 375 431T371 413Q366 404 309 371T240 335Q239 335 241 342Q277 369 320 406T372 444Z" />
<glyph unicode="&#xea;" glyph-name="ecircumflex" horiz-adv-x="249" d="M84 119Q69 80 69 47T110 13Q125 13 149 22Q188 35 230 72T299 144Q306 137 295 121Q258 70 203 31T91 -8Q17 -8 17 46Q17 89 63 165Q89 206 137 241T229 277T273 235Q273 191 239 169T161
133T84 119ZM92 139Q98 139 114 139T154 146Q211 163 228 210Q233 224 233 236T225 254T211 260Q146 259 92 139ZM327 335Q304 335 250 400Q250 403 244 400Q233 390 201 369T160 344T141 342Q214 391 254 426H266Q290 386 334 356Q347 348 352 348V345L327 335Z"
/>
<glyph unicode="&#xeb;" glyph-name="edieresis" horiz-adv-x="249" d="M84 119Q69 80 69 47T110 13Q125 13 149 22Q188 35 230 72T299 144Q306 137 295 121Q258 70 203 31T91 -8Q17 -8 17 46Q17 89 63 165Q89 206 137 241T229 277T273 235Q273 191 239 169T161
133T84 119ZM92 139Q98 139 114 139T154 146Q211 163 228 210Q233 224 233 236T225 254T211 260Q146 259 92 139ZM193 369Q156 369 156 392Q156 395 182 411L195 417Q215 405 221 405T231 406T236 402Q235 398 230 392Q202 369 193 369ZM309 369Q272 369 272 392Q272
395 298 411L311 417Q331 405 337 405T347 406T352 402Q351 398 346 392Q318 369 309 369Z" />
<glyph unicode="&#xec;" glyph-name="igrave" horiz-adv-x="192" d="M167 38T134 18T73 -3T45 16Q45 34 55 56Q62 72 135 226Q82 169 39 112Q32 102 32 114Q32 122 37 128Q108 216 146 271Q196 278 206 287T217 288Q217 284 213 279T131 128Q97 64 97 40Q97 26
111 26Q142 26 223 122L245 147Q257 135 186 59Q167 38 134 18ZM108 413Q104 417 104 430T107 444Q116 444 159 407T238 342Q238 342 239 335Q227 337 170 370T108 413Z" />
<glyph unicode="&#xed;" glyph-name="iacute" horiz-adv-x="192" d="M167 38T134 18T73 -3T45 16Q45 34 55 56Q62 72 135 226Q82 169 39 112Q32 102 32 114Q32 122 37 128Q108 216 146 271Q196 278 206 287T217 288Q217 284 213 279T131 128Q97 64 97 40Q97 26
111 26Q142 26 223 122L245 147Q257 135 186 59Q167 38 134 18ZM322 444Q325 444 325 431T321 413Q316 404 259 371T190 335Q189 335 191 342Q227 369 270 406T322 444Z" />
<glyph unicode="&#xee;" glyph-name="icircumflex" horiz-adv-x="192" d="M167 38T134 18T73 -3T45 16Q45 34 55 56Q62 72 135 226Q82 169 39 112Q32 102 32 114Q32 122 37 128Q108 216 146 271Q196 278 206 287T217 288Q217 284 213 279T131 128Q97 64 97 40Q97
26 111 26Q142 26 223 122L245 147Q257 135 186 59Q167 38 134 18ZM289 335Q266 335 212 400Q212 403 206 400Q195 390 163 369T122 344T103 342Q176 391 216 426H228Q252 386 296 356Q309 348 314 348V345L289 335Z" />
<glyph unicode="&#xef;" glyph-name="idieresis" horiz-adv-x="192" d="M167 38T134 18T73 -3T45 16Q45 34 55 56Q62 72 135 226Q82 169 39 112Q32 102 32 114Q32 122 37 128Q108 216 146 271Q196 278 206 287T217 288Q217 284 213 279T131 128Q97 64 97 40Q97
26 111 26Q142 26 223 122L245 147Q257 135 186 59Q167 38 134 18ZM265 369Q228 369 228 392Q228 395 246 406T265 417T277 411T293 405T303 406T308 402Q307 398 302 392Q274 369 265 369ZM149 369Q112 369 112 392Q112 395 138 411L151 417Q171 405 177 405T187
406T192 402Q191 398 186 392Q158 369 149 369Z" />
<glyph unicode="&#xf0;" glyph-name="eth" horiz-adv-x="330" d="M388 542Q390 543 390 530T385 509T373 498Q341 485 322 476Q327 444 327 410Q327 308 280 214T140 46Q77 -2 35 -2Q24 -2 14 4T3 18T4 27Q11 83 50 147T137 247Q169 273 214 273Q237 273 260 273Q286
333 286 403Q286 429 283 456Q233 429 208 411L207 419Q210 450 219 455Q234 459 278 481Q263 548 219 565Q206 570 210 576Q216 587 235 587T279 570T317 500Q334 510 357 524T388 542ZM251 239Q251 258 228 258Q192 258 150 220T81 132T54 44Q54 32 62 32Q96
32 173 109T251 239Z" />
<glyph unicode="&#xf1;" glyph-name="ntilde" horiz-adv-x="330" d="M337 259Q337 246 321 222T271 132T238 48T252 30T290 48T332 88T382 147Q384 144 384 138T371 115Q320 46 285 19T222 -8Q190 -8 190 23T222 119T275 228Q285 249 261 236Q147 165 84 -2Q78
-2 61 -8T40 -15Q36 -15 40 -6T57 34T88 110Q123 198 135 226Q82 169 39 112Q32 102 32 114Q32 122 37 128Q108 216 146 271Q196 278 206 287T217 288Q217 284 211 277T132 135Q180 198 244 246Q285 276 311 276T337 259ZM378 380T365 366T334 351T286 363T235
376T207 358H195Q200 374 215 387T246 401T287 391Q318 379 338 379T374 401H384Q378 380 365 366Z" />
<glyph unicode="&#xf2;" glyph-name="ograve" horiz-adv-x="265" d="M279 239Q279 185 225 107Q204 79 187 63Q253 63 309 137Q314 142 314 134T310 120Q259 49 194 49Q185 49 176 50Q120 -2 50 -2Q9 -2 9 33Q9 90 64 166Q99 216 149 245Q202 278 239 278Q279
278 279 239ZM231 238Q231 262 213 262Q207 262 190 256T148 223T99 155Q56 84 56 50T74 15Q88 15 105 24T132 44Q163 77 197 133T231 238ZM172 413Q168 417 168 430T171 444Q180 444 223 407T302 342Q302 342 303 335Q291 337 234 370T172 413Z" />
<glyph unicode="&#xf3;" glyph-name="oacute" horiz-adv-x="265" d="M279 239Q279 185 225 107Q204 79 187 63Q253 63 309 137Q314 142 314 134T310 120Q259 49 194 49Q185 49 176 50Q120 -2 50 -2Q9 -2 9 33Q9 90 64 166Q99 216 149 245Q202 278 239 278Q279
278 279 239ZM231 238Q231 262 213 262Q207 262 190 256T148 223T99 155Q56 84 56 50T74 15Q88 15 105 24T132 44Q163 77 197 133T231 238ZM377 444Q380 444 380 431T376 413Q371 404 314 371T245 335Q244 335 246 342Q282 369 325 406T377 444Z" />
<glyph unicode="&#xf4;" glyph-name="ocircumflex" horiz-adv-x="265" d="M279 239Q279 185 225 107Q204 79 187 63Q253 63 309 137Q314 142 314 134T310 120Q259 49 194 49Q185 49 176 50Q120 -2 50 -2Q9 -2 9 33Q9 90 64 166Q99 216 149 245Q202 278 239 278Q279
278 279 239ZM231 238Q231 262 213 262Q207 262 190 256T148 223T99 155Q56 84 56 50T74 15Q88 15 105 24T132 44Q163 77 197 133T231 238ZM344 335Q321 335 267 400Q267 403 261 400Q250 390 218 369T177 344T158 342Q231 391 271 426H283Q307 386 351 356Q364
348 369 348V345L344 335Z" />
<glyph unicode="&#xf5;" glyph-name="otilde" horiz-adv-x="265" d="M279 239Q279 185 225 107Q204 79 187 63Q253 63 309 137Q314 142 314 134T310 120Q259 49 194 49Q185 49 176 50Q120 -2 50 -2Q9 -2 9 33Q9 90 64 166Q99 216 149 245Q202 278 239 278Q279
278 279 239ZM231 238Q231 262 213 262Q207 262 190 256T148 223T99 155Q56 84 56 50T74 15Q88 15 105 24T132 44Q163 77 197 133T231 238ZM361 380T348 366T317 351T269 363T218 376T190 358H178Q183 374 198 387T229 401T270 391Q301 379 321 379T357 401H367Q361
380 348 366Z" />
<glyph unicode="&#xf6;" glyph-name="odieresis" horiz-adv-x="265" d="M279 239Q279 185 225 107Q204 79 187 63Q253 63 309 137Q314 142 314 134T310 120Q259 49 194 49Q185 49 176 50Q120 -2 50 -2Q9 -2 9 33Q9 90 64 166Q99 216 149 245Q202 278 239 278Q279
278 279 239ZM231 238Q231 262 213 262Q207 262 190 256T148 223T99 155Q56 84 56 50T74 15Q88 15 105 24T132 44Q163 77 197 133T231 238ZM223 369Q186 369 186 392Q186 395 212 411L225 417Q245 405 251 405T261 406T266 402Q265 398 260 392Q232 369 223 369ZM339
369Q319 369 302 391Q302 393 307 396T316 403T324 408T332 413Q338 417 341 417Q361 405 367 405T377 406T382 402Q381 398 376 392Q348 369 339 369Z" />
<glyph unicode="&#xf7;" glyph-name="divide" horiz-adv-x="280" d="M215 314Q235 302 241 302T252 303T257 299Q256 295 250 289Q222 266 213 266Q212 266 212 266Q196 266 177 287Q176 288 184 295T203 308T215 314ZM143 64Q163 52 169 52T179 52T185 50T169
31T138 15T105 37Q104 38 112 45T131 58T143 64ZM44 172L171 167Q253 167 294 168T335 169Q335 166 322 153T303 139L168 144Q57 144 34 142T11 141Q11 144 24 158T44 172Z" />
<glyph unicode="&#xf8;" glyph-name="oslash" horiz-adv-x="265" d="M9 33Q9 90 64 166Q99 216 149 245Q183 266 218 275L238 304Q240 307 247 307Q260 307 266 304Q258 295 247 277Q279 273 279 239Q279 185 225 107Q204 79 187 63Q253 63 309 137Q314 142 314
134T310 120Q259 49 194 49Q185 49 176 50Q125 4 65 -1L52 -23Q50 -27 46 -27Q37 -27 35 -23L47 -2Q9 0 9 33ZM77 15Q103 15 133 46T197 133T231 238Q231 246 230 252Q153 140 75 15Q76 15 77 15ZM56 44Q56 27 61 22Q146 167 209 262Q152 249 99 155Q56 84 56 44Z"
/>
<glyph unicode="&#xf9;" glyph-name="ugrave" horiz-adv-x="393" d="M390 263Q360 254 322 171T283 57T298 26Q316 26 357 58Q401 92 436 138Q444 147 445 148Q448 142 447 136T434 115Q346 -3 269 -3Q234 -3 234 24Q234 42 247 79T271 138Q173 -3 90 -3Q66 -3
66 16Q66 40 105 118Q114 136 129 167T149 208T155 222T152 227Q145 227 113 198T39 112Q32 102 32 114Q32 122 37 128Q78 183 103 211T131 243T142 253T156 264Q176 276 198 276T221 259Q221 246 204 221T153 129T118 44T132 26Q151 26 192 65Q255 125 322 253Q331
269 334 269H348Q380 269 398 278Q402 280 403 275Q403 267 390 263ZM209 413Q205 417 205 430T208 444Q217 444 260 407T339 342Q339 342 340 335Q328 337 271 370T209 413Z" />
<glyph unicode="&#xfa;" glyph-name="uacute" horiz-adv-x="393" d="M390 263Q360 254 322 171T283 57T298 26Q316 26 357 58Q401 92 436 138Q444 147 445 148Q448 142 447 136T434 115Q346 -3 269 -3Q234 -3 234 24Q234 42 247 79T271 138Q173 -3 90 -3Q66 -3
66 16Q66 40 105 118Q114 136 129 167T149 208T155 222T152 227Q145 227 113 198T39 112Q32 102 32 114Q32 122 37 128Q78 183 103 211T131 243T142 253T156 264Q176 276 198 276T221 259Q221 246 204 221T153 129T118 44T132 26Q151 26 192 65Q255 125 322 253Q331
269 334 269H348Q380 269 398 278Q402 280 403 275Q403 267 390 263ZM422 444Q425 444 425 431T421 413Q416 404 359 371T290 335Q289 335 291 342Q327 369 370 406T422 444Z" />
<glyph unicode="&#xfb;" glyph-name="ucircumflex" horiz-adv-x="393" d="M390 263Q360 254 322 171T283 57T298 26Q316 26 357 58Q401 92 436 138Q444 147 445 148Q448 142 447 136T434 115Q346 -3 269 -3Q234 -3 234 24Q234 42 247 79T271 138Q173 -3 90 -3Q66
-3 66 16Q66 40 105 118Q114 136 129 167T149 208T155 222T152 227Q145 227 113 198T39 112Q32 102 32 114Q32 122 37 128Q78 183 103 211T131 243T142 253T156 264Q176 276 198 276T221 259Q221 246 204 221T153 129T118 44T132 26Q151 26 192 65Q255 125 322
253Q331 269 334 269H348Q380 269 398 278Q402 280 403 275Q403 267 390 263ZM398 335Q375 335 321 400Q321 403 315 400Q304 390 272 369T231 344T212 342Q285 391 325 426H337Q361 386 405 356Q418 348 423 348V345L398 335Z" />
<glyph unicode="&#xfc;" glyph-name="udieresis" horiz-adv-x="393" d="M390 263Q360 254 322 171T283 57T298 26Q316 26 357 58Q401 92 436 138Q444 147 445 148Q448 142 447 136T434 115Q346 -3 269 -3Q234 -3 234 24Q234 42 247 79T271 138Q173 -3 90 -3Q66
-3 66 16Q66 40 105 118Q114 136 129 167T149 208T155 222T152 227Q145 227 113 198T39 112Q32 102 32 114Q32 122 37 128Q78 183 103 211T131 243T142 253T156 264Q176 276 198 276T221 259Q221 246 204 221T153 129T118 44T132 26Q151 26 192 65Q255 125 322
253Q331 269 334 269H348Q380 269 398 278Q402 280 403 275Q403 267 390 263ZM253 369Q216 369 216 392Q216 395 242 411L255 417Q275 405 281 405T291 406T296 402Q295 398 290 392Q262 369 253 369ZM369 369Q332 369 332 392Q332 397 350 407T370 417T381 411T397
405T407 406T412 402Q411 398 406 392Q378 369 369 369Z" />
<glyph unicode="&#xfd;" glyph-name="yacute" horiz-adv-x="344" d="M221 259Q221 246 204 221T153 129T118 44T132 26Q151 26 197 70T281 179T328 249Q371 271 381 273T400 275T410 268T401 261Q380 261 367 242Q343 208 232 -57Q204 -123 177 -170T105 -265Q24
-350 -69 -350Q-109 -350 -144 -332Q-205 -300 -205 -223V-206Q-205 -191 -193 -191Q-191 -191 -191 -193L-193 -218Q-193 -263 -165 -287T-96 -312T-17 -297Q68 -260 127 -180T237 17Q261 76 288 156Q241 92 202 54Q143 -3 90 -3Q66 -3 66 16Q66 40 105 118Q114
136 129 167T149 208T155 222T152 227Q145 227 113 198T39 112Q33 103 32 112T37 128Q78 183 103 211T131 243T142 253T156 264Q176 276 198 276T221 259ZM427 444Q430 444 430 431T426 413Q421 404 364 371T295 335Q294 335 296 342Q332 369 375 406T427 444Z"
/>
<glyph unicode="&#xfe;" glyph-name="thorn" horiz-adv-x="364" d="M335 582Q355 598 421 598Q432 598 432 594T399 580Q352 568 291 493Q184 362 101 172Q100 168 102 168Q206 272 255 272Q272 272 272 248V239Q260 156 192 74T44 -9Q32 -9 18 -6Q0 -48 -35 -118T-83
-212Q-119 -277 -145 -313Q-158 -331 -193 -331Q-208 -331 -208 -324Q-208 -320 -204 -315Q-173 -279 -107 -156T27 113Q201 489 335 582ZM223 225Q223 238 214 238Q199 238 165 206T110 149Q38 67 38 28Q38 8 63 8T123 43Q149 67 186 131T223 225Z" />
<glyph unicode="&#xff;" glyph-name="ydieresis" horiz-adv-x="344" d="M221 259Q221 246 204 221T153 129T118 44T132 26Q151 26 197 70T281 179T328 249Q371 271 381 273T400 275T410 268T401 261Q380 261 367 242Q343 208 232 -57Q204 -123 177 -170T105 -265Q24
-350 -69 -350Q-109 -350 -144 -332Q-205 -300 -205 -223V-206Q-205 -191 -193 -191Q-191 -191 -191 -193L-193 -218Q-193 -263 -165 -287T-96 -312T-17 -297Q68 -260 127 -180T237 17Q261 76 288 156Q241 92 202 54Q143 -3 90 -3Q66 -3 66 16Q66 40 105 118Q114
136 129 167T149 208T155 222T152 227Q145 227 113 198T39 112Q33 103 32 112T37 128Q78 183 103 211T131 243T142 253T156 264Q176 276 198 276T221 259ZM257 369Q220 369 220 392Q220 395 238 406T257 417T269 411T285 405T295 406T300 402Q299 398 294 392Q266
369 257 369ZM373 369Q336 369 336 392Q336 395 362 411L375 417Q395 405 401 405T411 406T416 402Q415 398 410 392Q382 369 373 369Z" />
<glyph unicode="&#x2013;" glyph-name="endash" horiz-adv-x="335" d="M204 148L79 146Q79 148 90 160T106 172L206 168Q270 168 303 169T337 170T332 163Q319 144 310 144Q234 148 204 148Z" />
<glyph unicode="&#x2014;" glyph-name="emdash" horiz-adv-x="512" d="M294 146L74 144Q74 146 85 158T101 170L296 166Q453 166 486 167T520 168Q520 165 510 154T494 142L294 146Z" />
<glyph unicode="&#x2018;" glyph-name="quoteleft" horiz-adv-x="168" d="M72 476Q72 483 74 492Q89 557 156 605L170 613Q167 600 160 594Q123 562 114 521Q112 509 119 499T139 486L135 475Q127 474 111 462T93 450Q72 453 72 476Z" />
<glyph unicode="&#x2019;" glyph-name="quoteright" horiz-adv-x="168" d="M268 587Q268 580 266 571Q251 506 185 458L170 450Q173 463 180 469Q217 501 226 542Q228 555 221 565T201 577L205 588Q216 591 231 602T247 613Q268 610 268 587Z" />
<glyph unicode="&#x201a;" glyph-name="quotesinglbase" horiz-adv-x="195" d="M112 -48Q103 -65 95 -65T87 -61T95 -35T125 80Q124 92 152 105T186 119T192 115Q181 82 112 -48Z" />
<glyph unicode="&#x201c;" glyph-name="quotedblleft" horiz-adv-x="295" d="M199 475Q199 482 201 491Q218 567 297 612Q294 599 287 593Q249 561 241 520Q239 508 246 498T266 485L262 474Q250 473 220 449Q199 452 199 475ZM96 475Q96 482 98 491Q111 556 179
604L194 612Q191 599 184 593Q146 561 138 520Q136 508 143 498T163 485L159 474Q141 471 121 451Q119 449 117 449Q96 452 96 475Z" />
<glyph unicode="&#x201d;" glyph-name="quotedblright" horiz-adv-x="168" d="M268 587Q268 580 266 571Q251 506 185 458L170 450Q173 463 180 469Q217 501 226 542Q228 555 221 565T201 577L205 588Q216 591 231 602T247 613Q268 610 268 587ZM371 587Q371 580
369 571Q356 507 288 458L273 450Q276 463 283 469Q320 501 329 542Q332 555 325 565T304 577L308 588Q323 592 330 598Q348 613 350 613Q371 610 371 587Z" />
<glyph unicode="&#x201e;" glyph-name="quotedblbase" horiz-adv-x="316" d="M189 -54Q205 -12 226 80Q225 92 253 105T287 119T293 115Q282 82 213 -48Q204 -65 195 -65T189 -54ZM112 -48Q103 -65 95 -65T87 -61T95 -35T125 80Q124 92 152 105T186 119T192 115Q181
82 112 -48Z" />
<glyph unicode="&#x2022;" glyph-name="bullet" horiz-adv-x="475" d="M308 97T223 97T86 152Q46 195 46 252Q46 349 132 417Q202 472 287 472T424 417Q464 373 464 315Q464 220 378 152Q308 97 223 97Z" />
<glyph unicode="&#x2039;" glyph-name="guilsinglleft" horiz-adv-x="293" d="M194 32Q194 26 192 23Q175 -2 173 -11H169Q170 3 161 23Q125 107 73 156L77 175Q144 240 227 346Q227 336 223 320Q212 298 173 250T116 184Q112 179 116 175Q149 136 171 94T194 32Z" />
<glyph unicode="&#x203a;" glyph-name="guilsinglright" horiz-adv-x="293" d="M73 -11Q73 6 62 23Q62 25 62 29T67 44Q73 58 103 97T176 175Q180 179 170 192T135 252T106 315T106 346Q163 237 215 175L213 156Q145 103 94 23Q79 4 77 -11H73Z" />
</font>
</defs>
</svg>
