<?xml version="1.0" standalone="no"?>
<!DOCTYPE svg PUBLIC "-//W3C//DTD SVG 1.1//EN" "http://www.w3.org/Graphics/SVG/1.1/DTD/svg11.dtd">
<svg xmlns="http://www.w3.org/2000/svg">
<defs >
<font id="Glegoo" horiz-adv-x="510" ><font-face
    font-family="Glegoo"
    units-per-em="1000"
    panose-1="0 0 0 0 0 0 0 0 0 0"
    ascent="1267"
    descent="-526"
    alphabetic="0" />
<glyph unicode=" " glyph-name="space" horiz-adv-x="267" />
<glyph unicode="!" glyph-name="exclam" horiz-adv-x="315" d="M157 -8Q131 -8 118 3T101 28T98 62T101 96T117 120T157 132Q195 132 206 113T218 62Q218 41 215 28T198 4T157 -8ZM101 730V560L126 197H188L213 560V730H101Z" />
<glyph unicode="&quot;" glyph-name="quotedbl" horiz-adv-x="416" d="M244 730V642L266 479H325L347 642V730H244ZM68 730V642L90 479H150L172 642V730H68Z" />
<glyph unicode="#" glyph-name="numbersign" horiz-adv-x="812" d="M431 -106H533L577 138H687L701 220H592L634 449H742L756 531H649L693 775H591L547 531H339L383 775H281L237 531H126L111 449H222L180 220H70L56 138H165L121 -106H223L267 138H475L431 -106ZM324
449H532L490 220H282L324 449Z" />
<glyph unicode="$" glyph-name="dollar" horiz-adv-x="588" d="M261 -74H330V-13Q531 0 531 181Q531 265 487 312T348 373L330 375V600Q383 594 405 565T428 482L518 489Q518 579 474 627T330 683V744H261V683Q160 676 116 627T72 487Q72 403 113 357T244 297L261
294V67Q203 73 179 104T154 189L65 183Q65 92 110 43T261 -13V-74ZM331 284Q430 268 430 181Q430 130 408 102T330 68V284H331ZM173 487Q173 536 192 563T261 599V386H260Q173 398 173 487Z" />
<glyph unicode="%" glyph-name="percent" horiz-adv-x="987" d="M338 -66H406L621 735H552L338 -66ZM768 -8Q818 -8 849 5T896 49T915 113T920 203Q920 258 916 291T896 355T850 399T768 413T687 400T640 356T620 292T615 203T619 114T639 50T686 6T768 -8ZM768
53Q721 53 708 85T695 203T708 320T768 352Q814 352 827 320T841 203Q841 117 828 85T768 53ZM217 262Q267 262 298 275T345 319T364 383T369 473Q369 528 365 561T345 625T299 669T217 683T136 670T89 626T69 562T64 473T68 384T88 320T135 276T217 262ZM217 323Q170
323 157 355T144 473T157 590T217 622Q263 622 276 590T290 473Q290 387 277 355T217 323Z" />
<glyph unicode="&amp;" glyph-name="ampersand" horiz-adv-x="621" d="M51 184Q51 318 167 362Q70 410 70 520Q70 710 277 710Q386 710 432 659T479 504H389Q389 566 365 597T283 628Q222 628 197 599T171 513Q171 459 202 427T295 394H621V318H512V191Q512 84
463 35T283 -14Q51 -14 51 184ZM152 187Q152 127 184 98T289 68Q361 68 391 98T422 191V318H286Q152 318 152 187Z" />
<glyph unicode="&apos;" glyph-name="quotesingle" horiz-adv-x="240" d="M68 730V642L90 479H150L172 642V730H68Z" />
<glyph unicode="(" glyph-name="parenleft" horiz-adv-x="313" d="M303 -66Q248 -66 208 -55T140 -18T96 39T70 120T58 217T55 335Q55 418 59 473T78 582T119 666T192 716T303 735V657Q266 657 240 642T199 603T176 535T166 447T163 335Q163 267 165 223T176 135T199
67T240 27T303 12V-66Z" />
<glyph unicode=")" glyph-name="parenright" horiz-adv-x="313" d="M11 735Q76 735 121 717T193 668T234 583T253 474T258 334Q258 251 254 196T235 87T194 3T122 -47T11 -66V12Q48 12 74 27T114 66T137 135T147 222T150 334Q150 390 149 428T142 507T128 572T103
617T65 647T11 657V735Z" />
<glyph unicode="*" glyph-name="asterisk" horiz-adv-x="562" d="M229 779V692L265 577H297L333 692V779H229ZM29 562L112 534L232 530L242 560L143 626L60 653L29 562ZM175 300L227 372L266 484L241 503L146 432L95 359L175 300ZM467 359L416 432L321 502L295
484L335 372L387 300L467 359ZM502 653L419 626L321 560L330 529L450 534L533 562L502 653Z" />
<glyph unicode="+" glyph-name="plus" horiz-adv-x="588" d="M94 280H256V118H332V280H494V356H332V518H256V356H94V280Z" />
<glyph unicode="," glyph-name="comma" horiz-adv-x="234" d="M59 62Q59 45 67 20T75 -16Q75 -42 65 -58T33 -95L61 -129Q175 -39 175 62Q175 83 172 96T156 120T116 132Q91 132 78 121T62 96T59 62Z" />
<glyph unicode="-" glyph-name="hyphen" horiz-adv-x="492" d="M70 280H422V356H70V280Z" />
<glyph unicode="." glyph-name="period" horiz-adv-x="238" d="M118 -8Q156 -8 167 11T179 62Q179 83 176 96T159 120T118 132Q92 132 79 121T62 96T59 62T62 28T78 4T118 -8Z" />
<glyph unicode="/" glyph-name="slash" horiz-adv-x="339" d="M0 -106H102L339 775H237L0 -106Z" />
<glyph unicode="0" glyph-name="zero" horiz-adv-x="588" d="M293 -14Q357 -14 402 2T473 46T513 120T531 215T535 335T531 454T513 548T473 622T402 666T293 683T185 666T115 623T75 549T57 454T53 335Q53 275 56 234T67 150T91 80T134 30T200 -3T293 -14ZM293
67Q256 67 231 78T191 108T168 163T158 237T155 335Q155 484 180 543T293 602Q330 602 355 591T396 561T420 506T430 433T433 335T431 237T420 163T397 108T356 78T293 67Z" />
<glyph unicode="1" glyph-name="one" horiz-adv-x="588" d="M126 558H261V81H125V0H501V81H364V670H285Q230 631 126 620V558Z" />
<glyph unicode="2" glyph-name="two" horiz-adv-x="588" d="M206 81L400 291Q452 349 480 397T508 500Q508 684 296 684Q177 684 128 633T78 478H168Q168 541 193 571T290 602Q407 602 407 501Q407 462 387 430T319 349L68 75V0H517V81H206Z" />
<glyph unicode="3" glyph-name="three" horiz-adv-x="588" d="M528 171Q528 291 417 335Q519 382 519 486Q519 684 296 684Q180 684 130 633T80 478H169Q169 539 197 570T290 602Q359 602 388 573T417 487Q417 433 387 402T294 370H198V294H293Q426 294 426 175Q426
121 394 95T290 68T187 98T156 191H67Q67 86 118 36T295 -14Q411 -14 469 35T528 171Z" />
<glyph unicode="4" glyph-name="four" horiz-adv-x="584" d="M453 0V136H529V218H453V670H297L24 213V136H352V0H453ZM139 218L352 576V218H139Z" />
<glyph unicode="5" glyph-name="five" horiz-adv-x="588" d="M92 328H204Q332 328 379 298T427 196Q427 130 398 99T296 67T196 102T168 207H79Q79 97 128 42T296 -14Q422 -14 475 39T529 196Q529 314 459 363T229 412H188L200 589H489V670H114L92 328Z" />
<glyph unicode="6" glyph-name="six" horiz-adv-x="588" d="M526 202Q526 392 304 392Q230 392 154 371Q155 421 158 453T169 517T192 565T233 592T294 603Q365 603 394 572T424 474H513Q512 583 463 633T293 684Q231 684 188 668T119 623T78 543T58 434T53 289Q53
129 103 58T296 -14Q420 -14 472 41T526 202ZM287 315Q361 315 393 284T426 202Q426 135 397 101T294 67Q214 67 185 113T154 296Q220 315 287 315Z" />
<glyph unicode="7" glyph-name="seven" horiz-adv-x="588" d="M81 485H154V589H417L160 0H270L528 598V670H81V485Z" />
<glyph unicode="8" glyph-name="eight" horiz-adv-x="588" d="M67 490Q67 584 119 634T294 684T468 634T521 490Q521 383 430 340Q530 297 530 172Q530 -14 294 -14T58 172Q58 290 156 333Q67 376 67 490ZM160 174Q160 121 191 94T293 66Q428 66 428 174Q428 230
406 258T329 295L261 305Q160 286 160 174ZM419 485Q419 544 392 574T294 604Q223 604 196 574T169 485Q169 434 190 409T268 375L322 367Q419 386 419 485Z" />
<glyph unicode="9" glyph-name="nine" horiz-adv-x="588" d="M54 469Q54 272 279 272Q357 272 425 291Q422 159 394 113T286 67Q215 67 185 99T155 196H66Q67 90 118 38T288 -14Q351 -14 394 1T463 44T504 120T523 222T528 358Q528 429 523 477T503 568T462 634T395
671T294 684Q169 684 113 629T54 469ZM298 350Q223 350 190 384T156 471Q156 536 188 569T294 603Q374 603 399 555T426 367Q361 350 298 350Z" />
<glyph unicode=":" glyph-name="colon" horiz-adv-x="238" d="M118 -8Q156 -8 167 11T179 62Q179 83 176 96T159 120T118 132Q92 132 79 121T62 96T59 62T62 28T78 4T118 -8ZM118 401Q156 401 167 420T179 471Q179 492 176 505T159 529T118 541Q92 541 79 530T62
505T59 471T62 437T78 413T118 401Z" />
<glyph unicode=";" glyph-name="semicolon" horiz-adv-x="234" d="M59 62Q59 45 67 20T75 -16Q75 -42 65 -58T33 -95L61 -129Q175 -39 175 62Q175 83 172 96T156 120T116 132Q91 132 78 121T62 96T59 62ZM116 401Q154 401 165 420T177 471Q177 492 174 505T157
529T116 541Q90 541 77 530T60 505T57 471T60 437T76 413T116 401Z" />
<glyph unicode="&lt;" glyph-name="less" horiz-adv-x="588" d="M93 269L495 99V183L164 317L495 451V535L93 365V269Z" />
<glyph unicode="=" glyph-name="equal" horiz-adv-x="588" d="M94 384H494V460H94V384ZM94 176H494V252H94V176Z" />
<glyph unicode="&gt;" glyph-name="greater" horiz-adv-x="588" d="M495 365L93 535V451L423 317L93 183V99L495 269V365Z" />
<glyph unicode="?" glyph-name="question" horiz-adv-x="484" d="M220 -8Q194 -8 181 3T164 28T161 62T164 96T180 120T220 132Q247 132 261 120T277 96T280 62T278 29T261 4T220 -8ZM277 329Q371 343 415 386T460 535Q460 638 409 691T239 744Q131 744 83 696T34
556H121Q121 609 148 636T239 664Q306 664 333 630T360 533Q360 459 327 430T229 392L179 386L188 197H252L263 327L277 329Z" />
<glyph unicode="@" glyph-name="at" horiz-adv-x="1011" d="M588 -99Q685 -91 751 -60T855 28T909 156T925 328Q925 439 906 515T839 648T710 730T506 757Q383 757 301 731T172 648T106 516T86 328T105 141T172 8T301 -74T506 -101V-26Q425 -26 368 -11T275 30T219
102T191 200T183 328T190 455T218 553T275 625T368 667T506 682Q586 682 643 667T736 626T792 554T820 456T828 328Q828 180 797 100T678 -7V443Q678 586 506 586Q411 586 374 549T331 439L413 436Q416 476 434 493T503 511Q586 511 586 448V383L455 375Q373 369
342 337T311 235Q311 171 342 139T446 106Q526 106 588 155V-99ZM472 174Q434 174 418 190T401 240Q401 282 417 298T476 317L586 324V225Q535 174 472 174Z" />
<glyph unicode="A" glyph-name="A" horiz-adv-x="669" d="M266 730L49 68H3V0H210V68H150L200 224H467L518 68H458V0H666V68H619L402 730H266ZM334 637L442 305H227L334 637Z" />
<glyph unicode="B" glyph-name="B" horiz-adv-x="645" d="M372 0Q444 0 491 15T560 60T590 120T598 195Q598 230 594 256T576 307T535 351T467 378Q523 399 542 440T562 543Q562 585 555 614T525 672T455 715T336 730H66V662H126V68H66V0H372ZM229 81V332H369Q443
332 469 301T495 205Q495 143 469 112T369 81H229ZM229 414V649H334Q407 649 433 620T459 531Q459 472 433 443T334 414H229Z" />
<glyph unicode="C" glyph-name="C" horiz-adv-x="627" d="M500 730V667Q447 744 328 744Q258 744 208 727T128 681T81 602T58 498T52 365Q52 309 54 269T64 186T84 115T118 60T170 19T242 -5T338 -14Q408 -14 454 2T524 54T559 128T574 227L490 231Q487 153 455
112T338 70Q288 70 254 83T200 118T170 180T158 260T155 365Q155 427 158 469T173 551T203 612T255 648T334 662Q418 662 457 621T501 494H574V730H500Z" />
<glyph unicode="D" glyph-name="D" horiz-adv-x="696" d="M229 730H66V662H126V68H66V0H355Q432 0 485 17T569 62T617 139T639 238T644 365Q644 418 642 456T632 535T612 604T578 657T526 697T453 721T355 730H229ZM346 649Q397 649 433 636T490 600T522 540T536
463T540 365T537 268T522 191T490 130T433 95T346 81H229V649H346Z" />
<glyph unicode="E" glyph-name="E" horiz-adv-x="636" d="M66 0H579V177H504V81H229V330H495V412H229V649H484V556H559V730H66V662H126V68H66V0Z" />
<glyph unicode="F" glyph-name="F" horiz-adv-x="572" d="M66 662H126V649V69H66V0H309V69H229V330H475V412H229V649H464V556H539V730H66V662Z" />
<glyph unicode="G" glyph-name="G" horiz-adv-x="681" d="M382 301H495V212Q489 142 451 106T332 70Q291 70 262 78T214 104T182 145T165 204T157 276T155 365Q155 427 158 467T172 548T203 611T257 648T342 662Q428 662 463 620T504 494H578V730H503V666Q455
744 337 744Q264 744 213 727T130 680T81 600T58 497T52 365Q52 299 55 255T67 163T95 87T144 33T219 -3T327 -14Q456 -14 515 74L531 0H585V369H382V301Z" />
<glyph unicode="H" glyph-name="H" horiz-adv-x="775" d="M486 0H709V68H649V662H709V730H486V662H546V406H229V662H289V730H66V662H126V68H66V0H289V68H229V324H546V68H486V0Z" />
<glyph unicode="I" glyph-name="I" horiz-adv-x="368" d="M66 662H132V68H66V0H301V68H235V662H301V730H66V662Z" />
<glyph unicode="J" glyph-name="J" horiz-adv-x="489" d="M206 662H286V183Q286 118 268 94T197 70T125 97T105 195H16Q16 160 17 139T24 91T40 47T71 16T122 -7T195 -14Q247 -14 283 -3T340 24T372 68T386 121T389 183V662H449V730H206V662Z" />
<glyph unicode="K" glyph-name="K" horiz-adv-x="660" d="M423 0H640V68H584L386 368L571 662H626V730H409V662H463L308 410H229V662H281V730H66V662H126V68H66V0H285V68H229V330H302L473 68H423V0Z" />
<glyph unicode="L" glyph-name="L" horiz-adv-x="526" d="M66 662H126V68H66V0H516V177H441V81H229V662H309V730H66V662Z" />
<glyph unicode="M" glyph-name="M" horiz-adv-x="927" d="M642 0H861V68H801V662H861V730H656L457 198L272 730H66V662H126V68H66V0H285V68H229V573L408 72H504L698 582V68H642V0Z" />
<glyph unicode="N" glyph-name="N" horiz-adv-x="789" d="M510 662H570V172L237 730H66V662H126V68H66V0H289V68H229V557L562 0H673V662H733V730H510V662Z" />
<glyph unicode="O" glyph-name="O" horiz-adv-x="685" d="M342 -14Q406 -14 454 -3T533 32T585 86T615 162T629 254T633 365Q633 444 628 496T606 599T558 679T473 726T342 744Q287 744 244 735T170 711T118 669T84 614T64 543T55 461T52 365Q52 285 57 234T79
131T127 50T211 4T342 -14ZM342 70Q292 70 258 84T203 120T172 183T158 263T155 365T158 467T172 547T203 609T257 646T342 660Q391 660 426 646T481 610T512 547T526 467T530 365T527 264T512 183T481 121T426 84T342 70Z" />
<glyph unicode="P" glyph-name="P" horiz-adv-x="611" d="M349 267Q420 267 467 285T535 339T564 410T572 498Q572 550 565 586T536 657T467 711T349 730H126H66V662H126V68H66V0H309V68H229V267H349ZM229 348V649H339Q420 649 444 612T469 498Q469 460 465 437T448
391T408 359T339 348H229Z" />
<glyph unicode="Q" glyph-name="Q" horiz-adv-x="675" d="M383 -180H485L400 -10Q459 -4 500 17T565 68T602 147T619 244T623 365Q623 444 618 496T597 599T549 679T466 726T337 744T209 726T126 679T79 599T57 496T52 365Q52 290 56 240T75 140T115 61T187 11T298
-13L383 -180ZM337 70Q289 70 256 84T203 120T172 183T158 263T155 365T158 466T172 547T202 609T255 646T337 660T419 646T472 610T503 547T517 467T520 365T517 264T503 183T473 121T419 84T337 70Z" />
<glyph unicode="R" glyph-name="R" horiz-adv-x="671" d="M66 662H126V68H66V0H285V68H229V297H305Q344 295 365 283T401 237L502 0H645V68H582L504 249Q486 290 463 310Q501 322 526 342T562 391T578 447T582 513Q582 552 579 579T562 637T525 686T458 717T356
730H126H66V662ZM229 378V649H354Q431 649 455 615T479 513Q479 481 475 460T459 418T421 388T354 378H229Z" />
<glyph unicode="S" glyph-name="S" horiz-adv-x="599" d="M122 0V72Q183 -14 319 -14Q443 -14 497 39T552 197Q552 293 509 336T358 402L277 418Q204 433 182 456T159 535Q159 600 189 631T299 662Q447 662 460 533H534V730H460V666Q406 744 277 744Q157 744 107
690T56 533Q56 437 97 392T244 326L328 310Q398 296 423 271T449 186Q449 124 413 96T297 68Q212 68 168 109T122 228H48V0H122Z" />
<glyph unicode="T" glyph-name="T" horiz-adv-x="557" d="M549 552V730H8V552H84V650H227V68H145V0H412V68H330V650H474V552H549Z" />
<glyph unicode="U" glyph-name="U" horiz-adv-x="746" d="M45 662H105V241Q105 174 120 126T159 52T219 10T291 -10T372 -14Q420 -14 454 -10T526 9T587 51T625 126T641 241V662H701V730H478V662H538V246Q538 190 526 154T488 101T437 78T372 72Q334 72 309 78T258
100T221 153T208 246V662H268V730H45V662Z" />
<glyph unicode="V" glyph-name="V" horiz-adv-x="666" d="M401 0L605 662H648V730H443V662H502L333 96L165 662H223V730H18V662H61L265 0H401Z" />
<glyph unicode="W" glyph-name="W" horiz-adv-x="920" d="M348 0L460 527L572 0H722L860 662H901V730H696V662H757L643 97L511 730H409L276 97L162 662H224V730H19V662H59L198 0H348Z" />
<glyph unicode="X" glyph-name="X" horiz-adv-x="650" d="M415 662H462L331 452L192 662H241V730H30V662H77L264 379L66 68H17V0H223V68H175L318 298L470 68H422V0H634V68H586L385 371L571 662H620V730H415V662Z" />
<glyph unicode="Y" glyph-name="Y" horiz-adv-x="605" d="M179 0H426V68H354V253L547 662H595V730H392V662H444L303 353L162 662H213V730H10V662H58L251 253V68H179V0Z" />
<glyph unicode="Z" glyph-name="Z" horiz-adv-x="564" d="M49 649H50V552H125V649H400L30 65V0H534V177H459V81H155L524 664V730H50L49 649Z" />
<glyph unicode="[" glyph-name="bracketleft" horiz-adv-x="313" d="M80 -66H302V6H184V663H302V735H80V-66Z" />
<glyph unicode="\" glyph-name="backslash" horiz-adv-x="339" d="M102 775H0L237 -106H339L102 775Z" />
<glyph unicode="]" glyph-name="bracketright" horiz-adv-x="313" d="M233 735H11V663H129V6H11V-66H233V735Z" />
<glyph unicode="^" glyph-name="asciicircum" horiz-adv-x="588" d="M246 618L96 316H180L294 557L408 316H492L342 618H246Z" />
<glyph unicode="_" glyph-name="underscore" horiz-adv-x="580" d="M70 -76H510V0H70V-76Z" />
<glyph unicode="`" glyph-name="grave" horiz-adv-x="314" d="M228 622L38 752L94 826L271 679L228 622Z" />
<glyph unicode="a" glyph-name="a" horiz-adv-x="608" d="M430 0H556V68H496V426Q496 586 290 586Q175 586 130 541T77 403L161 399Q164 455 190 480T287 506Q335 506 365 486T395 420V331L232 321Q127 313 90 273T53 146Q53 68 92 27T221 -14Q324 -14 414 57L430
0ZM247 62Q195 62 173 83T151 149Q151 205 171 226T251 251L395 260V123Q331 62 247 62Z" />
<glyph unicode="b" glyph-name="b" horiz-adv-x="616" d="M32 674H92V0H147L171 44Q254 -14 346 -14Q403 -14 443 3T507 46T543 114T560 194T564 286T560 377T543 457T507 525T443 569T346 586Q271 586 193 546V742H92H32V674ZM323 506Q360 506 386 494T427 462T450
412T460 353T463 286Q463 244 461 216T451 157T427 108T384 78T317 66Q254 66 193 105V471Q256 506 323 506Z" />
<glyph unicode="c" glyph-name="c" horiz-adv-x="567" d="M436 572L437 522Q384 586 288 586Q227 586 183 569T114 526T75 459T56 378T52 286Q52 232 55 195T73 115T111 46T181 3T289 -14Q354 -14 397 -1T464 39T498 97T511 177L430 181Q427 121 400 94T296 66Q258
66 231 78T189 108T166 156T155 215T153 286Q153 335 157 369T175 437T218 488T293 506Q426 506 440 362H505V572H436Z" />
<glyph unicode="d" glyph-name="d" horiz-adv-x="636" d="M457 0H584V68H524V742H363V674H423V558Q347 586 276 586Q218 586 176 569T111 526T74 458T56 378T52 286T56 195T73 114T109 46T174 3T273 -14Q365 -14 445 51L457 0ZM297 66Q260 66 234 77T192 106T168
154T156 214T153 286Q153 329 156 359T168 419T193 467T235 495T299 506Q362 506 423 482V112Q365 66 297 66Z" />
<glyph unicode="e" glyph-name="e" horiz-adv-x="592" d="M305 -14Q371 -14 416 0T484 43T517 102T531 176L448 180Q444 124 415 95T307 66Q221 66 191 109T158 260H540V286Q540 339 536 377T518 458T479 526T409 569T301 586T193 569T122 526T81 458T62 378T58
286Q58 209 68 157T105 64T181 5T305 -14ZM300 506Q381 506 409 463T440 333H159Q162 420 191 463T300 506Z" />
<glyph unicode="f" glyph-name="f" horiz-adv-x="357" d="M222 601Q222 640 235 657T291 678L352 683V751H272Q181 751 151 712T121 594V572H56V504H121V68H61V0H302V68H222V504H334V572H222V601Z" />
<glyph unicode="g" glyph-name="g" horiz-adv-x="587" d="M301 176Q371 176 416 192T483 240T510 303T517 381Q517 473 486 517L550 582L493 640L420 567Q372 586 301 586Q244 586 204 575T141 545T105 499T89 444T85 381Q85 269 132 224L92 184Q51 143 51 94Q51
29 108 8Q47 -34 47 -99Q47 -133 59 -157T90 -196T142 -217T207 -227T287 -230Q337 -230 367 -229T437 -218T500 -193T539 -145T556 -68Q556 -1 515 35T399 72H176Q132 72 132 107Q132 132 154 154L191 191Q235 176 301 176ZM301 247Q227 247 205 279T182 381T204
482T301 515T397 483T420 381T398 280T301 247ZM291 -157Q211 -157 173 -144T135 -84Q135 -33 173 0H369Q395 0 412 -3T445 -23T461 -69Q461 -94 454 -110T434 -135T399 -150T353 -156T291 -157Z" />
<glyph unicode="h" glyph-name="h" horiz-adv-x="691" d="M56 674H116V68H56V0H273V68H217V444Q296 506 383 506Q434 506 455 482T477 399V68H421V0H639V68H579V405Q579 586 406 586Q309 586 217 525V742H56V674Z" />
<glyph unicode="i" glyph-name="i" horiz-adv-x="336" d="M62 504H122V68H62V0H283V68H223V572H62V504ZM173 652Q194 652 207 657T225 675T231 696T233 721Q233 737 232 747T225 768T207 785T173 791Q147 791 133 780T117 756T114 721Q114 700 116 688T133 664T173 652Z" />
<glyph unicode="j" glyph-name="j" horiz-adv-x="322" d="M52 504H112V-48Q112 -95 99 -114T43 -137L-22 -142V-216H67Q153 -216 183 -178T213 -60V572H52V504ZM169 652Q190 652 203 657T221 675T227 696T229 721Q229 737 228 747T221 768T203 785T169 791Q143
791 129 780T113 756T110 721Q110 700 112 688T129 664T169 652Z" />
<glyph unicode="k" glyph-name="k" horiz-adv-x="604" d="M52 674H112V68H52V0H266V68H213V273H276L417 68H368V0H582V68H527L365 301L509 504H564V572H350V504H398L287 345H213V742H52V674Z" />
<glyph unicode="l" glyph-name="l" horiz-adv-x="326" d="M52 674H112V68H52V0H273V68H213V742H52V674Z" />
<glyph unicode="m" glyph-name="m" horiz-adv-x="1030" d="M413 0H627V68H570V406Q570 426 567 444Q638 506 720 506Q772 506 794 478T816 396V68H756V0H978V68H918V406Q918 586 738 586Q685 586 634 565T547 510Q504 586 387 586Q290 586 207 518L181 572H122H62V504H122V68H62V0H283V68H223V449Q290
506 371 506Q424 506 446 479T469 396V68H413V0Z" />
<glyph unicode="n" glyph-name="n" horiz-adv-x="697" d="M62 504H122V68H62V0H279V68H223V444Q302 506 389 506Q440 506 461 482T483 399V68H427V0H645V68H585V405Q585 586 412 586Q306 586 208 515L177 572H62V504Z" />
<glyph unicode="o" glyph-name="o" horiz-adv-x="608" d="M304 66Q269 66 243 73T201 97T175 132T161 178T155 229T153 286T154 343T160 394T175 440T201 474T243 498T304 506T365 499T407 475T433 440T447 394T453 343T455 286T454 229T448 178T433 132T407 98T365
74T304 66ZM304 -14Q370 -14 417 3T491 46T532 114T552 194T556 286T552 377T533 458T491 526T418 569T304 586T191 569T117 526T76 458T56 378T52 286T56 195T75 114T117 46T190 3T304 -14Z" />
<glyph unicode="p" glyph-name="p" horiz-adv-x="636" d="M167 572H112H52V504H112V-149H52V-216H293V-149H213V13Q287 -14 360 -14Q418 -14 460 3T525 46T562 114T580 194T584 286T580 377T563 458T527 526T464 569T366 586Q275 586 192 524L167 572ZM343 506Q380
506 406 494T447 462T470 412T480 353T483 286Q483 243 481 214T470 154T446 106T403 77T337 66Q272 66 213 89V462Q277 506 343 506Z" />
<glyph unicode="q" glyph-name="q" horiz-adv-x="636" d="M584 -149H524V504H584V572H524H469L447 531Q372 586 276 586Q218 586 176 569T111 526T74 458T56 378T52 286T56 195T73 114T110 46T176 3T276 -14Q345 -14 423 19V-149H343V-216H584V-149ZM299 66Q262
66 235 77T193 106T168 153T156 213T153 286Q153 328 156 358T168 417T192 465T235 495T299 506Q369 506 423 470V94Q364 66 299 66Z" />
<glyph unicode="r" glyph-name="r" horiz-adv-x="427" d="M177 572H122H62V504H122V68H62V0H303V68H223V395Q286 491 417 496V586Q286 581 215 475L177 572Z" />
<glyph unicode="s" glyph-name="s" horiz-adv-x="568" d="M417 572L418 526Q367 586 261 586Q163 586 114 541T65 424Q65 346 102 312T222 253L320 228Q367 215 386 197T405 148Q405 66 286 66Q143 66 129 206H65V0H134L132 59Q189 -14 305 -14Q506 -14 506 153Q506
224 469 259T351 316L253 342Q207 354 187 372T166 424Q166 461 191 483T270 506Q351 506 383 479T421 366H486V572H417Z" />
<glyph unicode="t" glyph-name="t" horiz-adv-x="372" d="M23 504H113V137Q113 111 114 94T122 55T141 19T178 -4T235 -14Q279 -14 333 4L321 70Q286 62 268 62Q239 62 227 80T214 143V504H319V572H214V700L113 686V572H23V504Z" />
<glyph unicode="u" glyph-name="u" horiz-adv-x="696" d="M112 572H52V504H112V165Q112 76 151 31T285 -14Q394 -14 494 58L517 0H644V68H584V572H423V504H483V130Q403 66 315 66Q259 66 236 92T213 176V572H112Z" />
<glyph unicode="v" glyph-name="v" horiz-adv-x="572" d="M195 572H2V504H43L230 0H342L529 504H570V572H376V504H426L286 111L144 504H195V572Z" />
<glyph unicode="w" glyph-name="w" horiz-adv-x="786" d="M784 572H591V504H646L544 132L435 522H350L241 132L138 504H195V572H2V504H37L183 0H285L393 383L501 0H603L748 504H784V572Z" />
<glyph unicode="x" glyph-name="x" horiz-adv-x="577" d="M221 68H172L282 225L397 68H353V0H554V68H509L347 291L498 504H541V572H346V504H392L294 364L192 504H235V572H36V504H80L230 298L66 68H24V0H221V68Z" />
<glyph unicode="y" glyph-name="y" horiz-adv-x="572" d="M88 -216H202Q234 -216 252 -200T282 -151L528 504H570V572H377V504H426L286 120L145 504H195V572H2V504H44L239 -11L207 -99Q199 -121 190 -129T157 -140L88 -146V-216Z" />
<glyph unicode="z" glyph-name="z" d="M396 182V75H132L457 506V572H28V390H96V497H337L10 66V0H464V182H396Z" />
<glyph unicode="{" glyph-name="braceleft" horiz-adv-x="319" d="M148 335Q168 335 182 318T197 271Q197 252 193 216T189 154Q189 86 216 49T308 12V-66Q84 -66 84 137Q84 160 88 198T92 256Q92 281 69 291T21 302V368Q46 368 69 378T92 414Q92 433 88 471T84
533Q84 736 308 736V658Q189 658 189 519Q189 495 193 459T197 404Q197 375 183 358T148 340V335Z" />
<glyph unicode="|" glyph-name="bar" horiz-adv-x="337" d="M112 -106H224V775H112V-106Z" />
<glyph unicode="}" glyph-name="braceright" horiz-adv-x="319" d="M171 343Q151 343 137 361T122 408Q122 427 126 464T130 526Q130 589 104 623T11 658V736Q235 736 235 533Q235 510 231 472T227 414Q227 389 249 379T298 368V302Q272 302 250 292T227 256Q227
237 231 199T235 137Q235 -66 11 -66V12Q77 12 103 49T130 155Q130 180 126 217T122 274Q122 303 136 320T171 338V343Z" />
<glyph unicode="~" glyph-name="asciitilde" horiz-adv-x="588" d="M94 280Q131 258 180 258Q217 258 293 279T408 301Q456 301 494 280V356Q457 375 408 375Q370 375 294 354T180 332Q128 332 94 356V280Z" />
<glyph unicode="&#xa0;" glyph-name="nbsp" horiz-adv-x="267" />
<glyph unicode="&#xa1;" glyph-name="exclamdown" horiz-adv-x="315" d="M158 586Q184 586 197 575T214 550T217 516T214 482T198 458T158 446Q131 446 117 458T101 482T98 516T100 549T117 574T158 586ZM215 -152V18L189 381H128L102 18V-152H215Z" />
<glyph unicode="&#xa2;" glyph-name="cent" horiz-adv-x="580" d="M283 -74H352V36Q448 44 487 90T534 218L453 223Q451 175 429 149T352 116V553Q441 541 446 434L527 438Q519 525 481 576T352 634V744H283V633Q229 627 190 608T129 562T95 496T79 420T75 335Q75
285 79 248T95 170T130 104T191 58T283 36V-74ZM177 335Q177 382 180 411T192 472T224 524T283 551V118Q249 124 227 143T195 194T181 258T177 335Z" />
<glyph unicode="&#xa3;" glyph-name="sterling" horiz-adv-x="588" d="M64 281H126V173Q126 107 74 68V0H543V81H186Q210 102 219 125T229 189V281H441V350H229V485Q229 544 251 573T332 602Q389 602 414 571T440 477L530 484Q530 586 484 635T327 684Q219 684
173 633T126 485V350H64V281Z" />
<glyph unicode="&#xa4;" glyph-name="currency" horiz-adv-x="597" d="M81 601L32 552L117 466Q93 422 93 335T116 202L32 118L81 69L162 150Q207 119 294 119Q383 119 435 148L516 69L565 118L486 197Q514 244 514 335Q514 428 487 474L565 552L516 601L438 524Q390
551 311 551Q218 551 164 518L81 601ZM294 206Q256 206 232 216T199 248T186 287T183 335T186 382T200 422T239 453T311 464Q350 464 374 454T408 422T421 383T424 335Q424 306 421 288T406 248T366 217T294 206Z" />
<glyph unicode="&#xa5;" glyph-name="yen" horiz-adv-x="588" d="M73 352H204L241 280H73V210H243V0H344V210H516V280H346L383 352H516V422H419L547 670H441L294 373L147 670H41L168 422H73V352Z" />
<glyph unicode="&#xa6;" glyph-name="brokenbar" horiz-adv-x="337" d="M112 413H224V775H112V413ZM112 -106H224V256H112V-106Z" />
<glyph unicode="&#xa7;" glyph-name="section" horiz-adv-x="576" d="M531 241Q531 323 488 368T348 430L260 446Q173 461 173 547Q173 605 201 633T299 662T398 633T428 542L518 549Q518 647 467 695T295 744T124 694T72 547Q72 452 124 406Q72 359 72 259Q72
176 112 132T244 72L331 56Q430 39 430 -47Q430 -105 400 -133T294 -162Q218 -162 186 -132T154 -39L65 -45Q65 -143 118 -192T296 -242Q531 -242 531 -47Q531 47 474 95Q531 142 531 241ZM336 343Q383 334 403 310T423 242Q423 165 375 135L267 157Q216 166 196
191T175 259Q175 336 223 366L336 343Z" />
<glyph unicode="&#xa8;" glyph-name="dieresis" horiz-adv-x="347" d="M66 654Q31 654 21 672T11 721Q11 736 12 745T19 766T35 783T66 789Q91 789 104 778T119 754T122 721T120 689T104 665T66 654ZM279 654Q255 654 243 665T228 688T225 721T227 753T242 777T279
789Q298 789 310 784T328 767T334 746T336 721Q336 701 334 689T318 665T279 654Z" />
<glyph unicode="&#xa9;" glyph-name="copyright" horiz-adv-x="739" d="M64 560Q64 395 134 325T369 255T604 325T675 560T604 795T369 866Q204 866 134 796T64 560ZM124 560Q124 697 178 754T369 811Q506 811 560 754T615 560Q615 424 561 367T369 310T178 366T124
560ZM500 649Q494 710 463 739T364 769Q273 769 241 719T209 561Q209 451 239 402T365 352Q438 352 467 387T501 489L447 492Q444 403 366 403Q309 403 291 440T273 561Q273 642 292 680T365 719Q406 719 423 702T445 645L500 649Z" />
<glyph unicode="&#xaa;" glyph-name="ordfeminine" horiz-adv-x="424" d="M295 350H393V409H351V648Q351 708 309 734T202 760Q120 760 86 727T46 628L121 624Q123 659 139 674T196 690Q259 690 259 640V586L160 579Q84 573 57 544T30 453Q30 340 147 340Q223
340 278 388L295 350ZM38 240H393V300H38V240ZM175 408Q146 408 134 420T121 458Q121 491 132 504T179 519L259 524V438Q226 408 175 408Z" />
<glyph unicode="&#xab;" glyph-name="guillemotleft" horiz-adv-x="536" d="M140 315L260 161L204 106L30 295V335L204 524L260 469L140 315ZM363 315L483 161L427 106L253 295V335L427 524L483 469L363 315Z" />
<glyph unicode="&#xac;" glyph-name="logicalnot" horiz-adv-x="588" d="M94 280H422V142H494V356H94V280Z" />
<glyph unicode="&#xae;" glyph-name="registered" horiz-adv-x="739" d="M64 560Q64 395 134 325T369 255T604 325T675 560T604 795T369 866Q204 866 134 796T64 560ZM124 560Q124 697 178 754T369 811Q506 811 560 754T615 560Q615 424 561 367T369 310T178 366T124
560ZM248 762V360H312V521H351Q384 521 396 490L452 360H520L461 495Q451 517 437 530Q477 542 490 570T503 643Q503 699 478 730T375 762H248ZM312 570V712H374Q414 712 426 694T439 641T427 588T374 570H312Z" />
<glyph unicode="&#xaf;" glyph-name="overscore" horiz-adv-x="362" d="M50 682H312V763H50V682Z" />
<glyph unicode="&#xb0;" glyph-name="degree" horiz-adv-x="425" d="M212 410Q183 410 166 418T140 444T130 479T128 525T130 571T140 606T165 632T212 640T258 632T284 606T294 571T296 525T294 479T284 444T259 418T212 410ZM212 340Q268 340 304 354T356 398T378
455T384 525Q384 567 379 595T357 652T304 695T212 710Q157 710 121 696T69 653T47 596T41 525Q41 484 46 456T68 398T121 355T212 340Z" />
<glyph unicode="&#xb1;" glyph-name="plusminus" horiz-adv-x="588" d="M94 330H256V168H332V330H494V406H332V568H256V406H94V330ZM94 0H494V76H94V0Z" />
<glyph unicode="&#xb2;" glyph-name="twosuperior" horiz-adv-x="420" d="M175 407L285 526Q342 591 342 644Q342 759 211 759Q134 759 103 727T71 628H140Q140 664 153 680T204 696Q264 696 264 644Q264 624 253 608T212 561L67 401V345H349V407H175Z" />
<glyph unicode="&#xb3;" glyph-name="threesuperior" horiz-adv-x="420" d="M356 451Q356 521 290 548Q350 577 350 637Q350 759 213 759Q136 759 105 728T74 628H144Q144 663 158 679T205 696Q271 696 271 637Q271 606 255 591T199 575H147V516H198Q277 516 277
456Q277 399 205 399Q168 399 152 415T136 467H66Q66 398 98 368T212 337Q282 337 319 368T356 451Z" />
<glyph unicode="&#xb4;" glyph-name="acute" horiz-adv-x="314" d="M86 622L276 752L220 826L43 679L86 622Z" />
<glyph unicode="&#xb5;" glyph-name="mu" horiz-adv-x="641" d="M112 -227V572H213V130Q293 66 381 66Q437 66 460 92T483 176V572H584V165Q584 76 545 31T411 -14Q311 -14 213 50V-227H112Z" />
<glyph unicode="&#xb6;" glyph-name="paragraph" horiz-adv-x="508" d="M442 602H382V68H442V0H199V68H279V277H226Q162 277 121 292T60 338T33 399T26 473Q26 517 33 548T59 609T120 654T226 670H442V602Z" />
<glyph unicode="&#xb7;" glyph-name="middot" horiz-adv-x="238" d="M118 257Q156 257 167 276T179 327Q179 348 176 361T159 385T118 397Q92 397 79 386T62 361T59 327T62 293T78 269T118 257Z" />
<glyph unicode="&#xb8;" glyph-name="cedilla" horiz-adv-x="299" d="M42 -138Q42 -186 66 -213T149 -241Q210 -241 233 -216T257 -141Q257 -89 233 -69T161 -45L169 0H108L93 -84L147 -94Q171 -98 180 -108T189 -138T182 -168T151 -179Q128 -179 121 -169T114 -138H42Z" />
<glyph unicode="&#xb9;" glyph-name="onesuperior" horiz-adv-x="419" d="M99 673H181V407H101V345H341V407H261V750H198Q165 726 99 720V673Z" />
<glyph unicode="&#xba;" glyph-name="ordmasculine" horiz-adv-x="425" d="M212 410Q187 410 170 417T144 436T129 467T123 504T122 550T123 595T129 633T143 664T170 682T212 690T254 683T281 665T295 634T301 596T302 550T301 504T295 467T281 436T255 418T212
410ZM212 340Q260 340 294 352T347 382T377 430T391 486T394 550T391 614T377 670T347 718T294 748T212 760Q153 760 115 744T60 695T37 630T31 550Q31 513 34 486T48 430T78 383T131 352T212 340ZM41 240H383V300H41V240Z" />
<glyph unicode="&#xbb;" glyph-name="guillemotright" horiz-adv-x="536" d="M377 315L257 469L313 524L487 335V295L313 106L257 161L377 315ZM154 315L35 469L91 524L264 335V295L91 106L35 161L154 315Z" />
<glyph unicode="&#xbc;" glyph-name="onequarter" horiz-adv-x="987" d="M869 0V74H911V137H869V405H750L597 132V74H792V0H869ZM362 -66H430L645 735H576L362 -66ZM105 598H187V332H107V270H347V332H267V675H204Q171 651 105 645V598ZM687 137L792 326V137H687Z" />
<glyph unicode="&#xbd;" glyph-name="onehalf" horiz-adv-x="987" d="M732 62L842 181Q899 246 899 299Q899 414 768 414Q691 414 660 382T628 283H697Q697 319 710 335T761 351Q821 351 821 299Q821 279 810 263T769 216L624 56V0H906V62H732ZM338 -66H406L621
735H552L338 -66ZM105 598H187V332H107V270H347V332H267V675H204Q171 651 105 645V598Z" />
<glyph unicode="&#xbe;" glyph-name="threequarters" horiz-adv-x="987" d="M869 0V74H911V137H869V405H750L597 132V74H792V0H869ZM362 376Q362 446 296 473Q356 502 356 562Q356 684 219 684Q142 684 111 653T80 553H150Q150 588 164 604T211 621Q277 621 277
562Q277 531 261 516T205 500H153V441H204Q283 441 283 381Q283 324 211 324Q174 324 158 340T142 392H72Q72 323 104 293T218 262Q288 262 325 293T362 376ZM363 -66H431L646 735H577L363 -66ZM687 137L792 326V137H687Z" />
<glyph unicode="&#xbf;" glyph-name="questiondown" horiz-adv-x="484" d="M274 586Q300 586 313 575T330 550T333 516T330 482T314 458T274 446Q247 446 233 458T217 482T214 516T216 549T233 574T274 586ZM217 249Q123 235 79 192T34 43Q34 -60 85 -113T255
-166Q363 -166 411 -118T460 22H372Q372 -31 346 -58T255 -86Q188 -86 161 -52T134 45Q134 119 167 148T265 186L315 192L306 381H242L231 251L217 249Z" />
<glyph unicode="&#xc0;" glyph-name="Agrave" horiz-adv-x="669" d="M266 730L49 68H3V0H210V68H150L200 224H467L518 68H458V0H666V68H619L402 730H266ZM334 637L442 305H227L334 637ZM405 780L215 910L271 984L448 837L405 780Z" />
<glyph unicode="&#xc1;" glyph-name="Aacute" horiz-adv-x="669" d="M266 730L49 68H3V0H210V68H150L200 224H467L518 68H458V0H666V68H619L402 730H266ZM334 637L442 305H227L334 637ZM263 780L453 910L397 984L220 837L263 780Z" />
<glyph unicode="&#xc2;" glyph-name="Acircumflex" horiz-adv-x="669" d="M266 730L49 68H3V0H210V68H150L200 224H467L518 68H458V0H666V68H619L402 730H266ZM334 637L442 305H227L334 637ZM226 782L334 880L443 782L489 828L357 979H312L180 828L226 782Z" />
<glyph unicode="&#xc3;" glyph-name="Atilde" horiz-adv-x="669" d="M266 730L49 68H3V0H210V68H150L200 224H467L518 68H458V0H666V68H619L402 730H266ZM334 637L442 305H227L334 637ZM407 827Q440 827 463 851T503 932L441 952Q433 929 423 919T396 908Q383
908 335 926T261 944Q228 944 205 920T165 839L228 819Q236 842 246 852T273 863Q286 863 334 845T407 827Z" />
<glyph unicode="&#xc4;" glyph-name="Adieresis" horiz-adv-x="669" d="M266 730L49 68H3V0H210V68H150L200 224H467L518 68H458V0H666V68H619L402 730H266ZM334 637L442 305H227L334 637ZM226 812Q191 812 181 830T171 879Q171 894 172 903T179 924T195 941T226
947Q251 947 264 936T279 912T282 879T280 847T264 823T226 812ZM439 812Q415 812 403 823T388 846T385 879T387 911T402 935T439 947Q458 947 470 942T488 925T494 904T496 879Q496 859 494 847T478 823T439 812Z" />
<glyph unicode="&#xc5;" glyph-name="Aring" horiz-adv-x="669" d="M266 730L49 68H3V0H210V68H150L200 224H467L518 68H458V0H666V68H619L402 730H266ZM334 637L442 305H227L334 637ZM333 833Q316 833 307 841T297 859T295 883T296 907T307 925T333 934Q351 934
360 926T371 908T373 883T371 859T360 842T333 833ZM333 780Q367 780 389 788T420 814T432 845T435 883T433 921T421 953T389 978T333 987T278 979T248 953T236 921T233 883T235 846T247 814T278 789T333 780Z" />
<glyph unicode="&#xc6;" glyph-name="AE" horiz-adv-x="974" d="M3 0H210V68H153L252 330H465V68H405V0H918V177H843V81H568V330H834V412H568V649H823V556H898V730H823H306L53 68H3V0ZM465 649V412H283L373 649H465Z" />
<glyph unicode="&#xc7;" glyph-name="Ccedilla" horiz-adv-x="636" d="M209 -138Q209 -186 233 -213T316 -241Q377 -241 400 -216T424 -141Q424 -89 400 -69T328 -45L333 -13Q336 -13 340 -13T347 -14Q417 -14 463 2T533 54T568 128T583 227L499 231Q496 153 464
112T347 70Q297 70 263 83T209 118T179 180T167 260T164 365Q164 427 167 469T182 551T212 612T264 648T343 662Q427 662 466 621T510 494H583V730H509V667Q456 744 337 744Q267 744 217 727T137 681T90 602T67 498T61 365Q61 294 65 246T82 149T117 71T179 20T273
-9L260 -84L314 -94Q338 -98 347 -108T356 -138T349 -168T318 -179Q295 -179 288 -169T281 -138H209Z" />
<glyph unicode="&#xc8;" glyph-name="Egrave" horiz-adv-x="636" d="M66 0H579V177H504V81H229V330H495V412H229V649H484V556H559V730H66V662H126V68H66V0ZM393 780L203 910L259 984L436 837L393 780Z" />
<glyph unicode="&#xc9;" glyph-name="Eacute" horiz-adv-x="636" d="M66 0H579V177H504V81H229V330H495V412H229V649H484V556H559V730H66V662H126V68H66V0ZM250 780L440 910L384 984L207 837L250 780Z" />
<glyph unicode="&#xca;" glyph-name="Ecircumflex" horiz-adv-x="636" d="M66 662H126V649V68H66V0H579V177H504V81H229V330H495V412H229V649H484V556H559V730H66V662ZM213 782L321 880L430 782L476 828L344 979H299L167 828L213 782Z" />
<glyph unicode="&#xcb;" glyph-name="Edieresis" horiz-adv-x="636" d="M66 662H126V68H66V0H579V177H504V81H229V330H495V412H229V649H484V556H559V730H66V662ZM214 812Q179 812 169 830T159 879Q159 894 160 903T167 924T183 941T214 947Q239 947 252 936T267
912T270 879T268 847T252 823T214 812ZM427 812Q403 812 391 823T376 846T373 879T375 911T390 935T427 947Q446 947 458 942T476 925T482 904T484 879Q484 859 482 847T466 823T427 812Z" />
<glyph unicode="&#xcc;" glyph-name="Igrave" horiz-adv-x="368" d="M66 662H132V68H66V0H301V68H235V662H301V730H66V662ZM255 780L65 910L121 984L298 837L255 780Z" />
<glyph unicode="&#xcd;" glyph-name="Iacute" horiz-adv-x="368" d="M66 662H132V68H66V0H301V68H235V662H301V730H66V662ZM133 780L323 910L267 984L90 837L133 780Z" />
<glyph unicode="&#xce;" glyph-name="Icircumflex" horiz-adv-x="368" d="M66 662H132V68H66V0H301V68H235V662H301V730H66V662ZM76 782L184 880L293 782L339 828L207 979H162L30 828L76 782Z" />
<glyph unicode="&#xcf;" glyph-name="Idieresis" horiz-adv-x="368" d="M66 662H132V68H66V0H301V68H235V662H301V730H66V662ZM76 812Q41 812 31 830T21 879Q21 894 22 903T29 924T45 941T76 947Q101 947 114 936T129 912T132 879T130 847T114 823T76 812ZM289
812Q265 812 253 823T238 846T235 879T237 911T252 935T289 947Q308 947 320 942T338 925T344 904T346 879Q346 859 344 847T328 823T289 812Z" />
<glyph unicode="&#xd0;" glyph-name="Eth" horiz-adv-x="696" d="M229 730H66V654H126V401H66V325H126V75H66V0H355Q432 0 485 17T569 62T617 139T639 238T644 365Q644 418 642 456T632 535T612 604T578 657T526 697T453 721T355 730H229ZM346 645Q398 645 433
632T490 598T522 538T536 462T540 365T537 269T522 192T490 133T434 98T346 85H229V325H418V401H229V645H346Z" />
<glyph unicode="&#xd1;" glyph-name="Ntilde" horiz-adv-x="789" d="M510 662H570V172L237 730H66V662H126V68H66V0H289V68H229V557L562 0H673V662H733V730H510V662ZM478 827Q511 827 534 851T574 932L512 952Q504 929 494 919T467 908Q454 908 406 926T332 944Q299
944 276 920T236 839L299 819Q307 842 317 852T344 863Q357 863 405 845T478 827Z" />
<glyph unicode="&#xd2;" glyph-name="Ograve" horiz-adv-x="685" d="M342 -14Q406 -14 454 -3T533 32T585 86T615 162T629 254T633 365Q633 444 628 496T606 599T558 679T473 726T342 744Q287 744 244 735T170 711T118 669T84 614T64 543T55 461T52 365Q52 285
57 234T79 131T127 50T211 4T342 -14ZM342 70Q292 70 258 84T203 120T172 183T158 263T155 365T158 467T172 547T203 609T257 646T342 660Q391 660 426 646T481 610T512 547T526 467T530 365T527 264T512 183T481 121T426 84T342 70ZM413 780L223 910L279 984L456
837L413 780Z" />
<glyph unicode="&#xd3;" glyph-name="Oacute" horiz-adv-x="685" d="M342 -14Q406 -14 454 -3T533 32T585 86T615 162T629 254T633 365Q633 444 628 496T606 599T558 679T473 726T342 744Q287 744 244 735T170 711T118 669T84 614T64 543T55 461T52 365Q52 285
57 234T79 131T127 50T211 4T342 -14ZM342 70Q292 70 258 84T203 120T172 183T158 263T155 365T158 467T172 547T203 609T257 646T342 660Q391 660 426 646T481 610T512 547T526 467T530 365T527 264T512 183T481 121T426 84T342 70ZM291 780L481 910L425 984L248
837L291 780Z" />
<glyph unicode="&#xd4;" glyph-name="Ocircumflex" horiz-adv-x="685" d="M342 -14Q406 -14 454 -3T533 32T585 86T615 162T629 254T633 365Q633 444 628 496T606 599T558 679T473 726T342 744Q287 744 244 735T170 711T118 669T84 614T64 543T55 461T52 365Q52
285 57 234T79 131T127 50T211 4T342 -14ZM342 70Q292 70 258 84T203 120T172 183T158 263T155 365T158 467T172 547T203 609T257 646T342 660Q391 660 426 646T481 610T512 547T526 467T530 365T527 264T512 183T481 121T426 84T342 70ZM234 782L342 880L451 782L497
828L365 979H320L188 828L234 782Z" />
<glyph unicode="&#xd5;" glyph-name="Otilde" horiz-adv-x="685" d="M342 -14Q406 -14 454 -3T533 32T585 86T615 162T629 254T633 365Q633 444 628 496T606 599T558 679T473 726T342 744Q287 744 244 735T170 711T118 669T84 614T64 543T55 461T52 365Q52 285
57 234T79 131T127 50T211 4T342 -14ZM342 70Q292 70 258 84T203 120T172 183T158 263T155 365T158 467T172 547T203 609T257 646T342 660Q391 660 426 646T481 610T512 547T526 467T530 365T527 264T512 183T481 121T426 84T342 70ZM415 827Q448 827 471 851T511
932L449 952Q441 929 431 919T404 908Q391 908 343 926T269 944Q236 944 213 920T173 839L236 819Q244 842 254 852T281 863Q294 863 342 845T415 827Z" />
<glyph unicode="&#xd6;" glyph-name="Odieresis" horiz-adv-x="685" d="M342 -14Q406 -14 454 -3T533 32T585 86T615 162T629 254T633 365Q633 444 628 496T606 599T558 679T473 726T342 744Q287 744 244 735T170 711T118 669T84 614T64 543T55 461T52 365Q52
285 57 234T79 131T127 50T211 4T342 -14ZM342 70Q292 70 258 84T203 120T172 183T158 263T155 365T158 467T172 547T203 609T257 646T342 660Q391 660 426 646T481 610T512 547T526 467T530 365T527 264T512 183T481 121T426 84T342 70ZM234 812Q199 812 189 830T179
879Q179 894 180 903T187 924T203 941T234 947Q259 947 272 936T287 912T290 879T288 847T272 823T234 812ZM447 812Q423 812 411 823T396 846T393 879T395 911T410 935T447 947Q466 947 478 942T496 925T502 904T504 879Q504 859 502 847T486 823T447 812Z" />
<glyph unicode="&#xd7;" glyph-name="multiply" horiz-adv-x="588" d="M162 132L294 265L426 132L479 186L347 318L479 450L426 504L294 371L162 504L108 450L241 318L108 186L162 132Z" />
<glyph unicode="&#xd8;" glyph-name="Oslash" horiz-adv-x="685" d="M201 -94H269L288 -11Q314 -14 342 -14Q406 -14 454 -3T533 32T585 86T615 162T629 254T633 365Q633 429 630 474T617 564T588 640T538 694T461 730L484 827H415L395 741Q370 744 342 744Q287
744 244 735T170 711T118 669T84 614T64 543T55 461T52 365Q52 300 55 255T68 165T97 89T146 36T222 0L201 -94ZM342 70Q329 70 307 72L440 640Q494 613 512 548T530 365Q530 304 527 264T512 183T481 121T426 84T342 70ZM155 365Q155 427 158 467T172 547T203
609T257 646T342 660Q355 660 375 658L243 89Q189 117 172 181T155 365Z" />
<glyph unicode="&#xd9;" glyph-name="Ugrave" horiz-adv-x="746" d="M45 662H105V241Q105 174 120 126T159 52T219 10T291 -10T372 -14Q420 -14 454 -10T526 9T587 51T625 126T641 241V662H701V730H478V662H538V246Q538 190 526 154T488 101T437 78T372 72Q334
72 309 78T258 100T221 153T208 246V662H268V730H45V662ZM414 780L224 910L280 984L457 837L414 780Z" />
<glyph unicode="&#xda;" glyph-name="Uacute" horiz-adv-x="746" d="M45 662H105V241Q105 174 120 126T159 52T219 10T291 -10T372 -14Q420 -14 454 -10T526 9T587 51T625 126T641 241V662H701V730H478V662H538V246Q538 190 526 154T488 101T437 78T372 72Q334
72 309 78T258 100T221 153T208 246V662H268V730H45V662ZM352 780L542 910L486 984L309 837L352 780Z" />
<glyph unicode="&#xdb;" glyph-name="Ucircumflex" horiz-adv-x="746" d="M45 662H105V241Q105 174 120 126T159 52T219 10T291 -10T372 -14Q420 -14 454 -10T526 9T587 51T625 126T641 241V662H701V730H478V662H538V246Q538 190 526 154T488 101T437 78T372 72Q334
72 309 78T258 100T221 153T208 246V662H268V730H45V662ZM264 782L372 880L481 782L527 828L395 979H350L218 828L264 782Z" />
<glyph unicode="&#xdc;" glyph-name="Udieresis" horiz-adv-x="746" d="M45 662H105V241Q105 174 120 126T159 52T219 10T291 -10T372 -14Q420 -14 454 -10T526 9T587 51T625 126T641 241V662H701V730H478V662H538V246Q538 190 526 154T488 101T437 78T372 72Q334
72 309 78T258 100T221 153T208 246V662H268V730H45V662ZM266 812Q231 812 221 830T211 879Q211 894 212 903T219 924T235 941T266 947Q291 947 304 936T319 912T322 879T320 847T304 823T266 812ZM479 812Q455 812 443 823T428 846T425 879T427 911T442 935T479
947Q498 947 510 942T528 925T534 904T536 879Q536 859 534 847T518 823T479 812Z" />
<glyph unicode="&#xdd;" glyph-name="Yacute" horiz-adv-x="601" d="M352 253L545 662H593V730H390V662H442L301 353L160 662H211V730H8V662H56L249 253V68H177V0H424V68H352V253ZM230 780L420 910L364 984L187 837L230 780Z" />
<glyph unicode="&#xde;" glyph-name="Thorn" horiz-adv-x="611" d="M349 145Q420 145 467 162T535 213T564 281T572 364T565 447T536 515T467 566T349 584H229V654H295V730H66V654H126V75H66V0H295V75H229V145H349ZM229 231V498H339Q381 498 408 488T448 458T465
416T469 364Q469 300 444 266T339 231H229Z" />
<glyph unicode="&#xdf;" glyph-name="germandbls" horiz-adv-x="655" d="M217 545Q217 669 339 669Q409 669 438 639T467 546Q467 490 441 452T365 413H304V337H412Q475 337 501 303T528 201Q528 140 509 104T437 68Q383 68 366 95T348 187H264Q264 81 301 34T438
-14Q629 -14 629 193Q629 275 590 325T483 391Q522 419 545 461T568 553Q568 751 345 751Q227 751 172 699T116 545V68H56V0H217V545Z" />
<glyph unicode="&#xe0;" glyph-name="agrave" horiz-adv-x="608" d="M430 0H556V68H496V426Q496 586 290 586Q175 586 130 541T77 403L161 399Q164 455 190 480T287 506Q335 506 365 486T395 420V331L232 321Q127 313 90 273T53 146Q53 68 92 27T221 -14Q324 -14
414 57L430 0ZM247 62Q195 62 173 83T151 149Q151 205 171 226T251 251L395 260V123Q331 62 247 62ZM359 622L169 752L225 826L402 679L359 622Z" />
<glyph unicode="&#xe1;" glyph-name="aacute" horiz-adv-x="608" d="M430 0H556V68H496V426Q496 586 290 586Q175 586 130 541T77 403L161 399Q164 455 190 480T287 506Q335 506 365 486T395 420V331L232 321Q127 313 90 273T53 146Q53 68 92 27T221 -14Q324 -14
414 57L430 0ZM247 62Q195 62 173 83T151 149Q151 205 171 226T251 251L395 260V123Q331 62 247 62ZM262 622L452 752L396 826L219 679L262 622Z" />
<glyph unicode="&#xe2;" glyph-name="acircumflex" horiz-adv-x="608" d="M430 0H556V68H496V426Q496 586 290 586Q175 586 130 541T77 403L161 399Q164 455 190 480T287 506Q335 506 365 486T395 420V331L232 321Q127 313 90 273T53 146Q53 68 92 27T221 -14Q324
-14 414 57L430 0ZM247 62Q195 62 173 83T151 149Q151 205 171 226T251 251L395 260V123Q331 62 247 62ZM179 624L287 722L396 624L442 670L310 821H265L133 670L179 624Z" />
<glyph unicode="&#xe3;" glyph-name="atilde" horiz-adv-x="608" d="M430 0H556V68H496V426Q496 586 290 586Q175 586 130 541T77 403L161 399Q164 455 190 480T287 506Q335 506 365 486T395 420V331L232 321Q127 313 90 273T53 146Q53 68 92 27T221 -14Q324 -14
414 57L430 0ZM247 62Q195 62 173 83T151 149Q151 205 171 226T251 251L395 260V123Q331 62 247 62ZM360 669Q393 669 416 693T456 774L394 794Q386 771 376 761T349 750Q336 750 288 768T214 786Q181 786 158 762T118 681L181 661Q189 684 199 694T226 705Q239
705 287 687T360 669Z" />
<glyph unicode="&#xe4;" glyph-name="adieresis" horiz-adv-x="608" d="M430 0H556V68H496V426Q496 586 290 586Q175 586 130 541T77 403L161 399Q164 455 190 480T287 506Q335 506 365 486T395 420V331L232 321Q127 313 90 273T53 146Q53 68 92 27T221 -14Q324
-14 414 57L430 0ZM247 62Q195 62 173 83T151 149Q151 205 171 226T251 251L395 260V123Q331 62 247 62ZM187 654Q152 654 142 672T132 721Q132 736 133 745T140 766T156 783T187 789Q212 789 225 778T240 754T243 721T241 689T225 665T187 654ZM400 654Q376 654
364 665T349 688T346 721T348 753T363 777T400 789Q419 789 431 784T449 767T455 746T457 721Q457 701 455 689T439 665T400 654Z" />
<glyph unicode="&#xe5;" glyph-name="aring" horiz-adv-x="608" d="M430 0H556V68H496V426Q496 586 290 586Q175 586 130 541T77 403L161 399Q164 455 190 480T287 506Q335 506 365 486T395 420V331L232 321Q127 313 90 273T53 146Q53 68 92 27T221 -14Q324 -14
414 57L430 0ZM247 62Q195 62 173 83T151 149Q151 205 171 226T251 251L395 260V123Q331 62 247 62ZM286 622Q320 622 342 630T373 656T385 687T388 725T386 763T374 795T342 820T286 829T231 821T201 795T189 763T186 725T188 688T200 656T231 631T286 622ZM286
675Q269 675 260 683T250 701T248 725T249 749T260 767T286 776Q304 776 313 768T324 750T326 725T324 701T313 684T286 675Z" />
<glyph unicode="&#xe6;" glyph-name="ae" horiz-adv-x="894" d="M624 -14Q690 -14 734 0T802 43T836 102T850 176L766 180Q762 124 733 95T625 66Q539 66 509 109T476 260H858V286Q858 339 854 377T836 458T797 526T727 569T619 586Q511 586 452 537Q402 586 290
586Q175 586 130 541T77 403L161 399Q164 455 190 480T287 506Q379 506 393 440Q380 395 378 330L232 321Q127 313 90 273T53 146Q53 68 92 27T221 -14Q335 -14 423 64Q478 -14 624 -14ZM618 506Q699 506 727 463T758 333H477Q480 420 509 463T618 506ZM247 62Q195
62 173 83T151 149Q151 205 171 226T251 251L377 259Q379 174 395 122Q329 62 247 62Z" />
<glyph unicode="&#xe7;" glyph-name="ccedilla" horiz-adv-x="563" d="M169 -138Q169 -186 193 -213T276 -241Q337 -241 360 -216T384 -141Q384 -89 360 -69T288 -45L293 -14Q357 -13 399 0T464 40T498 98T511 177L430 181Q427 121 400 94T296 66Q258 66 231 78T189
108T166 156T155 215T153 286Q153 335 157 369T175 437T218 488T293 506Q426 506 440 362H505V572H436L437 522Q384 586 288 586Q227 586 183 569T114 526T75 459T56 378T52 286Q52 237 55 203T68 129T98 63T151 17T233 -10L220 -84L274 -94Q298 -98 307 -108T316
-138T309 -168T278 -179Q255 -179 248 -169T241 -138H169Z" />
<glyph unicode="&#xe8;" glyph-name="egrave" horiz-adv-x="586" d="M293 -14Q359 -14 404 0T472 43T505 102T519 176L436 180Q432 124 403 95T295 66Q209 66 179 109T146 260H528V286Q528 339 524 377T506 458T467 526T397 569T289 586T181 569T110 526T69 458T50
378T46 286Q46 209 56 157T93 64T169 5T293 -14ZM288 506Q369 506 397 463T428 333H147Q150 420 179 463T288 506ZM362 622L172 752L228 826L405 679L362 622Z" />
<glyph unicode="&#xe9;" glyph-name="eacute" horiz-adv-x="586" d="M293 -14Q359 -14 404 0T472 43T505 102T519 176L436 180Q432 124 403 95T295 66Q209 66 179 109T146 260H528V286Q528 339 524 377T506 458T467 526T397 569T289 586T181 569T110 526T69 458T50
378T46 286Q46 209 56 157T93 64T169 5T293 -14ZM288 506Q369 506 397 463T428 333H147Q150 420 179 463T288 506ZM258 622L448 752L392 826L215 679L258 622Z" />
<glyph unicode="&#xea;" glyph-name="ecircumflex" horiz-adv-x="586" d="M293 -14Q359 -14 404 0T472 43T505 102T519 176L436 180Q432 124 403 95T295 66Q209 66 179 109T146 260H528V286Q528 339 524 377T506 458T467 526T397 569T289 586T181 569T110 526T69
458T50 378T46 286Q46 209 56 157T93 64T169 5T293 -14ZM288 506Q369 506 397 463T428 333H147Q150 420 179 463T288 506ZM183 624L291 722L400 624L446 670L314 821H269L137 670L183 624Z" />
<glyph unicode="&#xeb;" glyph-name="edieresis" horiz-adv-x="586" d="M293 -14Q359 -14 404 0T472 43T505 102T519 176L436 180Q432 124 403 95T295 66Q209 66 179 109T146 260H528V286Q528 339 524 377T506 458T467 526T397 569T289 586T181 569T110 526T69
458T50 378T46 286Q46 209 56 157T93 64T169 5T293 -14ZM288 506Q369 506 397 463T428 333H147Q150 420 179 463T288 506ZM183 654Q148 654 138 672T128 721Q128 736 129 745T136 766T152 783T183 789Q208 789 221 778T236 754T239 721T237 689T221 665T183 654ZM396
654Q372 654 360 665T345 688T342 721T344 753T359 777T396 789Q415 789 427 784T445 767T451 746T453 721Q453 701 451 689T435 665T396 654Z" />
<glyph unicode="&#xec;" glyph-name="igrave" horiz-adv-x="336" d="M62 504H122V68H62V0H283V68H223V572H62V504ZM234 622L44 752L100 826L277 679L234 622Z" />
<glyph unicode="&#xed;" glyph-name="iacute" horiz-adv-x="336" d="M62 504H122V68H62V0H283V68H223V572H62V504ZM117 622L307 752L251 826L74 679L117 622Z" />
<glyph unicode="&#xee;" glyph-name="icircumflex" horiz-adv-x="336" d="M62 504H122V68H62V0H283V68H223V572H62V504ZM55 624L163 722L272 624L318 670L186 821H141L9 670L55 624Z" />
<glyph unicode="&#xef;" glyph-name="idieresis" horiz-adv-x="336" d="M62 504H122V68H62V0H283V68H223V572H62V504ZM55 654Q20 654 10 672T0 721Q0 736 1 745T8 766T24 783T55 789Q80 789 93 778T108 754T111 721T109 689T93 665T55 654ZM268 654Q244 654 232
665T217 688T214 721T216 753T231 777T268 789Q287 789 299 784T317 767T323 746T325 721Q325 701 323 689T307 665T268 654Z" />
<glyph unicode="&#xf0;" glyph-name="eth" horiz-adv-x="608" d="M284 706Q305 686 330 658L268 634V563L371 604Q412 540 435 461Q383 506 304 506Q238 506 191 492T117 454T76 395T56 326T52 246T56 167T75 97T117 38T190 1T304 -14T417 0T491 38T532 97T552
166T556 246V267Q556 482 451 636L534 669V740L409 690Q388 714 333 764L284 706ZM304 64Q263 64 234 75T189 101T166 144T155 192T153 246T155 299T165 347T189 389T233 416T304 427T374 416T419 390T442 348T453 300T455 246T453 193T443 144T419 102T375 75T304
64Z" />
<glyph unicode="&#xf1;" glyph-name="ntilde" horiz-adv-x="660" d="M44 504H104V68H44V0H261V68H205V444Q284 506 371 506Q422 506 443 482T465 399V68H409V0H627V68H567V405Q567 586 394 586Q288 586 190 515L159 572H44V504ZM420 669Q453 669 476 693T516 774L454
794Q446 771 436 761T409 750Q396 750 348 768T274 786Q241 786 218 762T178 681L241 661Q249 684 259 694T286 705Q299 705 347 687T420 669Z" />
<glyph unicode="&#xf2;" glyph-name="ograve" horiz-adv-x="608" d="M304 66Q269 66 243 73T201 97T175 132T161 178T155 229T153 286T154 343T160 394T175 440T201 474T243 498T304 506T365 499T407 475T433 440T447 394T453 343T455 286T454 229T448 178T433
132T407 98T365 74T304 66ZM304 -14Q370 -14 417 3T491 46T532 114T552 194T556 286T552 377T533 458T491 526T418 569T304 586T191 569T117 526T76 458T56 378T52 286T56 195T75 114T117 46T190 3T304 -14ZM375 622L185 752L241 826L418 679L375 622Z" />
<glyph unicode="&#xf3;" glyph-name="oacute" horiz-adv-x="608" d="M304 66Q269 66 243 73T201 97T175 132T161 178T155 229T153 286T154 343T160 394T175 440T201 474T243 498T304 506T365 499T407 475T433 440T447 394T453 343T455 286T454 229T448 178T433
132T407 98T365 74T304 66ZM304 -14Q370 -14 417 3T491 46T532 114T552 194T556 286T552 377T533 458T491 526T418 569T304 586T191 569T117 526T76 458T56 378T52 286T56 195T75 114T117 46T190 3T304 -14ZM270 622L460 752L404 826L227 679L270 622Z" />
<glyph unicode="&#xf4;" glyph-name="ocircumflex" horiz-adv-x="608" d="M304 66Q269 66 243 73T201 97T175 132T161 178T155 229T153 286T154 343T160 394T175 440T201 474T243 498T304 506T365 499T407 475T433 440T447 394T453 343T455 286T454 229T448 178T433
132T407 98T365 74T304 66ZM304 -14Q370 -14 417 3T491 46T532 114T552 194T556 286T552 377T533 458T491 526T418 569T304 586T191 569T117 526T76 458T56 378T52 286T56 195T75 114T117 46T190 3T304 -14ZM195 624L303 722L412 624L458 670L326 821H281L149 670L195
624Z" />
<glyph unicode="&#xf5;" glyph-name="otilde" horiz-adv-x="608" d="M304 66Q269 66 243 73T201 97T175 132T161 178T155 229T153 286T154 343T160 394T175 440T201 474T243 498T304 506T365 499T407 475T433 440T447 394T453 343T455 286T454 229T448 178T433
132T407 98T365 74T304 66ZM304 -14Q370 -14 417 3T491 46T532 114T552 194T556 286T552 377T533 458T491 526T418 569T304 586T191 569T117 526T76 458T56 378T52 286T56 195T75 114T117 46T190 3T304 -14ZM377 669Q410 669 433 693T473 774L411 794Q403 771 393
761T366 750Q353 750 305 768T231 786Q198 786 175 762T135 681L198 661Q206 684 216 694T243 705Q256 705 304 687T377 669Z" />
<glyph unicode="&#xf6;" glyph-name="odieresis" horiz-adv-x="608" d="M304 66Q269 66 243 73T201 97T175 132T161 178T155 229T153 286T154 343T160 394T175 440T201 474T243 498T304 506T365 499T407 475T433 440T447 394T453 343T455 286T454 229T448 178T433
132T407 98T365 74T304 66ZM304 -14Q370 -14 417 3T491 46T532 114T552 194T556 286T552 377T533 458T491 526T418 569T304 586T191 569T117 526T76 458T56 378T52 286T56 195T75 114T117 46T190 3T304 -14ZM196 654Q161 654 151 672T141 721Q141 736 142 745T149
766T165 783T196 789Q221 789 234 778T249 754T252 721T250 689T234 665T196 654ZM409 654Q385 654 373 665T358 688T355 721T357 753T372 777T409 789Q428 789 440 784T458 767T464 746T466 721Q466 701 464 689T448 665T409 654Z" />
<glyph unicode="&#xf7;" glyph-name="divide" horiz-adv-x="588" d="M94 280H494V356H94V280ZM293 75Q258 75 248 93T238 141Q238 161 240 173T256 197T293 208Q329 208 339 190T350 141Q350 122 348 110T332 86T293 75ZM293 418Q258 418 248 435T238 484Q238
498 239 508T246 529T262 545T293 551T324 546T341 529T348 508T350 484Q350 465 347 453T331 429T293 418Z" />
<glyph unicode="&#xf8;" glyph-name="oslash" horiz-adv-x="608" d="M163 -115H231L258 -11Q280 -14 304 -14Q370 -14 417 3T491 46T532 114T552 194T556 286Q556 340 551 379T533 458T490 527T415 570L446 686H377L349 583Q328 586 304 586Q238 586 191 569T117
526T76 458T56 378T52 286Q52 232 57 193T75 113T119 44T194 1L163 -115ZM153 286Q153 320 154 343T160 394T175 440T201 474T243 498T304 506Q321 506 328 505L216 86Q176 110 165 158T153 286ZM304 66Q287 66 279 67L392 485Q431 461 443 413T455 286Q455 252
454 229T448 178T433 132T407 98T365 74T304 66Z" />
<glyph unicode="&#xf9;" glyph-name="ugrave" horiz-adv-x="696" d="M112 572H52V504H112V165Q112 76 151 31T285 -14Q394 -14 494 58L517 0H644V68H584V572H423V504H483V130Q403 66 315 66Q259 66 236 92T213 176V572H112ZM396 622L206 752L262 826L439 679L396 622Z" />
<glyph unicode="&#xfa;" glyph-name="uacute" horiz-adv-x="696" d="M112 572H52V504H112V165Q112 76 151 31T285 -14Q394 -14 494 58L517 0H644V68H584V572H423V504H483V130Q403 66 315 66Q259 66 236 92T213 176V572H112ZM325 622L515 752L459 826L282 679L325 622Z" />
<glyph unicode="&#xfb;" glyph-name="ucircumflex" horiz-adv-x="696" d="M112 572H52V504H112V165Q112 76 151 31T285 -14Q394 -14 494 58L517 0H644V68H584V572H423V504H483V130Q403 66 315 66Q259 66 236 92T213 176V572H112ZM247 624L355 722L464 624L510
670L378 821H333L201 670L247 624Z" />
<glyph unicode="&#xfc;" glyph-name="udieresis" horiz-adv-x="696" d="M213 572H52V504H112V165Q112 76 151 31T285 -14Q394 -14 494 58L517 0H644V68H584V572H423V504H483V130Q403 66 315 66Q259 66 236 92T213 176V572ZM247 654Q212 654 202 672T192 721Q192
736 193 745T200 766T216 783T247 789Q272 789 285 778T300 754T303 721T301 689T285 665T247 654ZM460 654Q436 654 424 665T409 688T406 721T408 753T423 777T460 789Q479 789 491 784T509 767T515 746T517 721Q517 701 515 689T499 665T460 654Z" />
<glyph unicode="&#xfd;" glyph-name="yacute" horiz-adv-x="572" d="M88 -216H202Q234 -216 252 -200T282 -151L528 504H570V572H377V504H426L286 120L145 504H195V572H2V504H44L239 -11L207 -99Q199 -121 190 -129T157 -140L88 -146V-216ZM268 622L458 752L402
826L225 679L268 622Z" />
<glyph unicode="&#xfe;" glyph-name="thorn" horiz-adv-x="628" d="M32 671H92V-145H32V-216H273V-145H193V17Q275 -14 348 -14Q407 -14 449 3T514 46T551 114T568 194T572 286T569 377T552 458T515 526T449 569T348 586Q270 586 193 531V742H32V671ZM332 502Q377
502 406 485T448 435T466 369T471 286Q471 231 467 197T449 131T406 84T332 69Q256 69 193 95V447Q257 502 332 502Z" />
<glyph unicode="&#xff;" glyph-name="ydieresis" horiz-adv-x="572" d="M88 -216H202Q234 -216 252 -200T282 -151L528 504H570V572H377V504H426L286 120L145 504H195V572H2V504H44L239 -11L207 -99Q199 -121 190 -129T157 -140L88 -146V-216ZM198 654Q163 654
153 672T143 721Q143 736 144 745T151 766T167 783T198 789Q223 789 236 778T251 754T254 721T252 689T236 665T198 654ZM411 654Q387 654 375 665T360 688T357 721T359 753T374 777T411 789Q430 789 442 784T460 767T466 746T468 721Q468 701 466 689T450 665T411
654Z" />
<glyph unicode="&#x2013;" glyph-name="endash" horiz-adv-x="580" d="M70 280H510V356H70V280Z" />
<glyph unicode="&#x2014;" glyph-name="emdash" horiz-adv-x="913" d="M70 280H843V356H70V280Z" />
<glyph unicode="&#x2018;" glyph-name="quoteleft" horiz-adv-x="287" d="M188 590Q188 570 186 558T170 534T132 523Q72 523 72 590Q72 698 185 783L214 749Q172 714 172 670Q172 660 180 635T188 590Z" />
<glyph unicode="&#x2019;" glyph-name="quoteright" horiz-adv-x="275" d="M99 715Q99 736 101 748T117 772T154 783Q190 783 202 765T214 715Q214 669 190 625T145 560T101 523L72 556Q114 589 114 635Q114 646 107 671T99 715Z" />
<glyph unicode="&#x201a;" glyph-name="quotesinglbase" horiz-adv-x="234" d="M59 62Q59 45 67 20T75 -16Q75 -42 65 -58T33 -95L61 -129Q175 -39 175 62Q175 83 172 96T156 120T116 132Q91 132 78 121T62 96T59 62Z" />
<glyph unicode="&#x201c;" glyph-name="quotedblleft" horiz-adv-x="455" d="M188 590Q188 570 185 558T169 534T131 523Q95 523 84 541T72 590Q72 698 185 783L215 749Q172 711 172 670Q172 660 180 635T188 590ZM356 590Q356 570 354 558T338 534T301 523Q265
523 253 541T241 590Q241 698 354 783L383 749Q341 714 341 670Q341 660 348 635T356 590Z" />
<glyph unicode="&#x201d;" glyph-name="quotedblright" horiz-adv-x="455" d="M268 715Q268 735 270 748T286 772T324 783Q360 783 371 765T383 715Q383 608 270 523L240 556Q283 594 283 635Q283 646 276 671T268 715ZM99 715Q99 736 101 748T117 772T154 783Q190
783 202 765T214 715Q214 669 190 625T145 560T101 523L72 556Q114 589 114 635Q114 646 107 671T99 715Z" />
<glyph unicode="&#x201e;" glyph-name="quotedblbase" horiz-adv-x="402" d="M228 63Q228 83 230 96T246 120T284 131Q320 131 331 113T343 63Q343 -44 230 -129L200 -96Q243 -58 243 -17Q243 -6 236 19T228 63ZM59 63Q59 84 61 96T77 120T114 131Q150 131 162
113T174 63Q174 17 150 -27T105 -92T61 -129L32 -96Q74 -63 74 -17Q74 -6 67 19T59 63Z" />
<glyph unicode="&#x2022;" glyph-name="bullet" horiz-adv-x="276" d="M137 230Q167 230 186 238T214 264T225 297T228 335T226 373T215 405T187 431T137 440Q98 440 77 423T52 386T48 335Q48 317 49 305T55 277T70 253T96 237T137 230Z" />
<glyph unicode="&#x2039;" glyph-name="guilsinglleft" horiz-adv-x="313" d="M140 315L260 161L204 106L30 295V335L204 524L260 469L140 315Z" />
<glyph unicode="&#x203a;" glyph-name="guilsinglright" horiz-adv-x="313" d="M172 315L53 469L109 524L283 335V295L109 106L53 161L172 315Z" />
</font>
</defs>
</svg>
