<?xml version="1.0" standalone="no"?>
<!DOCTYPE svg PUBLIC "-//W3C//DTD SVG 1.1//EN" "http://www.w3.org/Graphics/SVG/1.1/DTD/svg11.dtd">
<svg xmlns="http://www.w3.org/2000/svg">
<defs >
<font id="Abel" horiz-adv-x="926" ><font-face
    font-family="Abel"
    units-per-em="2048"
    panose-1="2 0 5 6 3 0 0 2 0 4"
    ascent="2006"
    descent="-604"
    alphabetic="0" />
<glyph unicode=" " glyph-name="space" horiz-adv-x="471" />
<glyph unicode="!" glyph-name="exclam" horiz-adv-x="428" d="M250 434H178L123 1434H305L250 434ZM137 0V154H291V0H137Z" />
<glyph unicode="&quot;" glyph-name="quotedbl" horiz-adv-x="645" d="M225 993H174L123 1434H276L225 993ZM471 993H420L369 1434H522L471 993Z" />
<glyph unicode="#" glyph-name="numbersign" horiz-adv-x="1311" d="M164 1069H399L430 1434H551L520 1069H852L883 1434H1004L973 1069H1188V967H963L922 467H1147V365H911L881 0H760L791 365H459L428 0H307L338 365H123V467H348L389 967H164V1069ZM469 467H801L842
967H510L469 467Z" />
<glyph unicode="$" glyph-name="dollar" horiz-adv-x="1063" d="M492 -246V-20Q420 -19 356 8T245 83T171 195T143 332V389L272 410V332Q272 285 289 244T336 172T406 123T492 102V684Q426 708 364 736T252 809T173 917T143 1075V1102Q143 1174 170 1237T245 1349T356
1425T492 1454V1638H594V1454Q665 1453 728 1425T838 1349T912 1238T940 1102V1065L811 1044V1102Q811 1148 794 1189T748 1260T679 1310T594 1331V776Q659 751 723 721T837 646T919 536T950 375V332Q950 259 923 195T847 83T735 8T598 -20H594V-246H492ZM821 375Q821
432 803 474T755 548T683 603T594 645V102Q641 102 682 120T754 169T803 242T821 332V375V375ZM272 1075Q272 1022 289 983T336 913T406 860T492 817V1331Q446 1329 406 1310T336 1261T289 1189T272 1102V1075V1075Z" />
<glyph unicode="%" glyph-name="percent" horiz-adv-x="1382" d="M528 915Q528 879 515 847T477 790T421 752T350 737H322Q284 737 252 751T195 790T157 846T143 915V1264Q143 1300 157 1332T195 1389T251 1427T322 1442H350Q388 1442 420 1428T477 1389T514 1333T528
1264V915V915ZM430 1264Q430 1281 424 1296T406 1322T379 1339T346 1346H326Q308 1346 293 1340T267 1322T249 1296T242 1264V915Q242 881 266 858T326 834H346Q381 834 405 857T430 915V1264ZM1239 170Q1239 134 1226 102T1188 45T1132 7T1061 -8H1032Q995 -8
963 6T906 45T868 101T854 170V518Q854 554 868 586T906 643T962 681T1032 696H1061Q1099 696 1131 682T1188 643T1225 587T1239 518V170V170ZM1141 518Q1141 535 1135 550T1117 576T1090 593T1057 600H1036Q1018 600 1003 594T977 576T959 550T952 518V170Q952
153 958 138T976 112T1003 95T1036 88H1057Q1075 88 1090 94T1116 112T1134 138T1141 170V518ZM225 0L1042 1434H1157L340 0H225Z" />
<glyph unicode="&amp;" glyph-name="ampersand" horiz-adv-x="1272" d="M1092 -20Q1005 -20 941 17T838 117Q788 54 715 17T557 -20H496Q423 -20 359 7T246 83T171 195T143 332V410Q143 461 156 507T195 594T254 666T330 721Q288 743 254 775T195 848T157 934T143
1032V1102Q143 1175 170 1239T246 1351T358 1426T496 1454H557Q630 1454 694 1427T806 1351T881 1239T909 1102V1092L780 1071V1102Q780 1150 762 1191T713 1264T641 1313T551 1331H502Q454 1331 413 1313T340 1264T290 1192T272 1102V1012Q272 964 290 923T339
850T412 800T502 782H780V913L909 934V784H1108V662H909V317Q911 272 923 233T958 165T1017 119T1098 102H1128L1110 -20H1092ZM551 102Q597 102 638 119T709 166T759 236T780 322V659H502Q454 659 413 641T340 592T290 520T272 430V332Q272 284 290 243T339 170T412
120T502 102H551V102Z" />
<glyph unicode="&apos;" glyph-name="quotesingle" horiz-adv-x="399" d="M195 993H143V1434H297L195 993Z" />
<glyph unicode="(" glyph-name="parenleft" horiz-adv-x="684" d="M123 598Q123 765 155 909T244 1177T379 1408T551 1606L623 1534Q541 1449 472 1346T352 1125T274 874T246 598Q246 454 274 322T352 72T471 -150T623 -338L551 -410Q458 -319 380 -213T244 19T155
288T123 598Z" />
<glyph unicode=")" glyph-name="parenright" horiz-adv-x="684" d="M561 598Q561 432 529 288T440 19T305 -212T133 -410L61 -338Q144 -253 213 -150T332 71T410 322T438 598Q438 742 410 874T332 1124T213 1346T61 1534L133 1606Q226 1515 304 1409T440 1178T529
909T561 598Z" />
<glyph unicode="*" glyph-name="asterisk" horiz-adv-x="993" d="M498 973L326 686L207 772L428 1022L102 1096L147 1233L455 1102L424 1434H569L539 1102L846 1233L891 1096L565 1022L786 772L668 686L498 973Z" />
<glyph unicode="+" glyph-name="plus" horiz-adv-x="1188" d="M82 782H528V1229H657V782H1106V653H657V205H528V653H82V782Z" />
<glyph unicode="," glyph-name="comma" horiz-adv-x="440" d="M195 -287H143V154H297L195 -287Z" />
<glyph unicode="-" glyph-name="hyphen" horiz-adv-x="588" d="M102 627V743H485V627H102Z" />
<glyph unicode="." glyph-name="period" horiz-adv-x="440" d="M143 0V154H297V0H143Z" />
<glyph unicode="/" glyph-name="slash" horiz-adv-x="782" d="M41 -123L612 1556H741L170 -123H41Z" />
<glyph unicode="0" glyph-name="zero" horiz-adv-x="1053" d="M909 332Q909 259 882 195T806 83T694 8T557 -20H496Q423 -20 359 7T246 83T171 195T143 332V1102Q143 1175 170 1239T246 1351T358 1426T496 1454H557Q630 1454 694 1427T806 1351T881 1239T909 1102V332V332ZM780
1102Q780 1150 762 1191T713 1264T641 1313T551 1331H502Q454 1331 413 1313T340 1264T290 1192T272 1102V332Q272 284 290 243T339 170T412 120T502 102H551Q599 102 640 120T713 169T762 242T780 332V1102Z" />
<glyph unicode="1" glyph-name="one" horiz-adv-x="1059" d="M164 0V123H506V1311L164 1167V1290L506 1434H635V123H977V0H164Z" />
<glyph unicode="2" glyph-name="two" horiz-adv-x="1012" d="M471 1331Q423 1331 382 1313T309 1264T260 1192T242 1102V1044L113 1065V1102Q113 1175 140 1239T216 1351T328 1426T465 1454H526Q599 1454 663 1428T776 1353T851 1236T879 1081Q879 996 854 910T787
741T692 580T582 433Q451 272 285 123H889V0H82V102Q269 256 416 421Q479 492 539 572T646 736T721 908T750 1081Q750 1144 731 1191T680 1269T607 1315T520 1331H471Z" />
<glyph unicode="3" glyph-name="three" horiz-adv-x="1053" d="M909 332Q909 259 882 195T806 83T694 8T557 -20H496Q423 -20 359 7T246 83T171 195T143 332V369L272 389V332Q272 284 290 243T339 170T412 120T502 102H551Q599 102 640 120T713 169T762 242T780
332V451Q780 499 762 540T713 613T641 662T551 680H455V803H551Q599 803 640 821T713 870T762 942T780 1032V1102Q780 1150 762 1191T713 1264T641 1313T551 1331H502Q454 1331 413 1313T340 1264T290 1192T272 1102V1044L143 1065V1102Q143 1175 170 1239T246
1351T358 1426T496 1454H557Q630 1454 694 1427T806 1351T881 1239T909 1102V1053Q909 1002 896 956T858 869T799 797T723 741Q765 719 799 687T857 614T895 528T909 430V332V332Z" />
<glyph unicode="4" glyph-name="four" horiz-adv-x="1032" d="M766 248V0H637V248H61V309L698 1434H766V371H889V248H766ZM637 1081L242 371H637V1081Z" />
<glyph unicode="5" glyph-name="five" horiz-adv-x="1053" d="M909 332Q909 259 882 195T806 83T694 8T557 -20H496Q423 -20 359 7T246 83T171 195T143 332V354H272V332Q272 284 290 243T339 170T412 120T502 102H551Q599 102 640 120T713 169T762 242T780 332V610Q780
658 762 699T713 772T641 822T551 840H502Q454 840 413 822T340 773T290 700T272 610H143L225 1434H838V1311H346L299 870Q345 914 406 938T537 963H557Q630 963 694 936T806 860T881 748T909 610V332V332Z" />
<glyph unicode="6" glyph-name="six" horiz-adv-x="1053" d="M930 332Q930 259 903 195T827 83T715 8T578 -20H516Q443 -20 379 7T267 83T192 195T164 332V1102Q164 1175 191 1239T267 1351T379 1426T516 1454H578Q651 1454 715 1427T827 1351T902 1239T930 1102V1065L801
1044V1102Q801 1150 783 1191T734 1264T661 1313T571 1331H522Q474 1331 433 1313T360 1264T311 1192T293 1102V745Q342 799 410 831T557 864H578Q651 864 715 837T827 761T902 649T930 512V332V332ZM801 512Q801 560 783 601T734 674T661 723T571 741H522Q474
741 433 723T360 674T311 602T293 512V332Q293 284 311 243T360 170T432 120T522 102H571Q619 102 660 120T733 169T783 242T801 332V512Z" />
<glyph unicode="7" glyph-name="seven" horiz-adv-x="1053" d="M389 0H254L791 1311H293V1120H164V1434H950V1372L389 0Z" />
<glyph unicode="8" glyph-name="eight" horiz-adv-x="1053" d="M909 332Q909 259 882 195T806 83T694 8T557 -20H496Q423 -20 359 7T246 83T171 195T143 332V451Q143 542 185 617T297 741Q228 789 186 865T143 1032V1102Q143 1175 170 1239T246 1351T358 1426T496
1454H557Q630 1454 694 1427T806 1351T881 1239T909 1102V1032Q909 941 867 865T756 741Q825 693 867 618T909 451V332V332ZM780 1102Q780 1150 762 1191T713 1264T641 1313T551 1331H502Q454 1331 413 1313T340 1264T290 1192T272 1102V1032Q272 984 290 943T339
870T412 821T502 803H551Q599 803 640 821T713 870T762 942T780 1032V1102ZM780 451Q780 499 762 540T713 613T641 662T551 680H502Q454 680 413 662T340 613T290 541T272 451V332Q272 284 290 243T339 170T412 120T502 102H551Q599 102 640 120T713 169T762 242T780
332V451Z" />
<glyph unicode="9" glyph-name="nine" horiz-adv-x="1053" d="M930 332Q930 259 903 195T827 83T715 8T578 -20H516Q443 -20 379 7T267 83T192 195T164 332V369L293 389V332Q293 284 311 243T360 170T432 120T522 102H571Q619 102 660 120T733 169T783 242T801
332V688Q751 634 683 602T537 569H516Q443 569 379 596T267 672T192 784T164 922V1102Q164 1175 191 1239T267 1351T379 1426T516 1454H578Q651 1454 715 1427T827 1351T902 1239T930 1102V332V332ZM801 1102Q801 1150 783 1191T734 1264T661 1313T571 1331H522Q474
1331 433 1313T360 1264T311 1192T293 1102V922Q293 874 311 833T360 760T432 710T522 692H571Q619 692 660 710T733 759T783 832T801 922V1102Z" />
<glyph unicode=":" glyph-name="colon" horiz-adv-x="440" d="M143 870V1024H297V870H143ZM143 0V154H297V0H143Z" />
<glyph unicode=";" glyph-name="semicolon" horiz-adv-x="440" d="M143 870V1024H297V870H143ZM195 -287H143V154H297L195 -287Z" />
<glyph unicode="&lt;" glyph-name="less" horiz-adv-x="1249" d="M1126 1247V1106L248 717L1126 330V188L102 645V791L1126 1247Z" />
<glyph unicode="=" glyph-name="equal" horiz-adv-x="1352" d="M1188 973V844H164V973H1188ZM1188 592V463H164V592H1188Z" />
<glyph unicode="&gt;" glyph-name="greater" horiz-adv-x="1249" d="M999 717L123 1106V1247L1147 791V645L123 188V330L999 717Z" />
<glyph unicode="?" glyph-name="question" horiz-adv-x="950" d="M332 0V154H485V0H332ZM473 434H344V473Q344 539 360 588T402 674T462 740T531 795T600 849T660 909T703 984T719 1083V1102Q719 1150 701 1191T652 1264T579 1313T489 1331H461Q413 1331 372 1313T299
1264T249 1192T231 1102V1044L102 1065V1102Q102 1175 129 1239T205 1351T317 1426T455 1454H496Q569 1454 633 1427T745 1351T820 1239T848 1102V1083Q848 1014 832 962T790 870T730 799T661 741T592 688T532 631T489 562T473 473V434Z" />
<glyph unicode="@" glyph-name="at" horiz-adv-x="2046" d="M1305 254Q1291 154 1330 107T1454 59Q1515 59 1573 103T1676 225T1748 412T1776 649Q1776 796 1733 922T1607 1139T1404 1283T1128 1335Q1005 1335 894 1300T688 1202T515 1052T384 858T300 632T270
383Q270 236 310 109T429 -111T624 -258T895 -311Q951 -311 1004 -304T1106 -284T1194 -256T1264 -223L1305 -317Q1257 -346 1203 -367T1094 -403T984 -423T879 -430Q702 -430 565 -369T335 -201T192 51T143 367Q143 513 178 650T277 909T433 1130T635 1302T875
1414T1145 1454Q1322 1454 1462 1394T1701 1229T1851 979T1903 666Q1903 585 1890 501T1851 336T1786 186T1695 63T1576 -20T1430 -51Q1375 -51 1334 -39T1263 -7T1211 42T1174 104Q1123 47 1055 14T911 -20H881Q824 -20 777 0T695 54T641 136T621 238Q621 249
621 259T623 281L686 743Q695 805 726 860T805 956T910 1020T1030 1044H1061Q1136 1044 1195 1011T1286 920L1370 1024H1411L1305 254ZM743 274Q743 268 742 262T741 250Q741 217 752 189T785 140T834 108T897 96H979Q1016 96 1050 110T1111 148T1157 204T1182
274L1249 750Q1251 756 1251 763T1251 776Q1251 808 1240 836T1208 884T1159 916T1096 928H1014Q977 928 943 914T881 876T835 820T811 750L743 274Z" />
<glyph unicode="A" glyph-name="A" horiz-adv-x="950" d="M702 334H248L154 0H20L440 1434H508L930 0H797L702 334ZM283 457H668L479 1118L475 1171L471 1118L283 457Z" />
<glyph unicode="B" glyph-name="B" horiz-adv-x="1053" d="M971 352Q971 279 944 215T868 103T756 28T618 0H164V1434H618Q691 1434 755 1407T868 1331T943 1219T971 1081V1067Q971 1016 958 970T919 883T860 811T784 756Q826 734 860 702T919 629T957 542T971
444V352V352ZM842 465Q842 513 824 554T775 627T702 676T612 694H293V123H612Q660 123 701 141T774 190T824 262T842 352V465ZM842 1081Q842 1129 824 1170T775 1243T702 1293T612 1311H293V817H612Q660 817 701 835T774 884T824 957T842 1047V1081Z" />
<glyph unicode="C" glyph-name="C" horiz-adv-x="1073" d="M950 332Q950 259 923 195T847 83T735 8T598 -20H496Q423 -20 359 7T246 83T171 195T143 332V1102Q143 1175 170 1239T246 1351T358 1426T496 1454H598Q671 1454 735 1427T847 1351T922 1239T950 1102V1044L821
1024V1102Q821 1150 803 1191T754 1264T682 1313T592 1331H502Q454 1331 413 1313T340 1264T290 1192T272 1102V332Q272 284 290 243T339 170T412 120T502 102H592Q640 102 681 120T754 169T803 242T821 332V410L950 389V332V332Z" />
<glyph unicode="D" glyph-name="D" horiz-adv-x="1114" d="M971 352Q971 279 944 215T868 103T756 28T618 0H164V1434H618Q691 1434 755 1407T868 1331T943 1219T971 1081V352V352ZM842 1081Q842 1129 824 1170T775 1243T702 1293T612 1311H293V123H612Q660 123
701 141T774 190T824 262T842 352V1081Z" />
<glyph unicode="E" glyph-name="E" horiz-adv-x="1053" d="M164 0V1434H971V1311H293V778H842V655H293V123H971V0H164Z" />
<glyph unicode="F" glyph-name="F" horiz-adv-x="1012" d="M293 1311V778H842V655H293V0H164V1434H971V1311H293Z" />
<glyph unicode="G" glyph-name="G" horiz-adv-x="1094" d="M950 0H909L834 115Q787 53 720 17T571 -20H496Q423 -20 359 7T246 83T171 195T143 332V1102Q143 1175 170 1239T246 1351T358 1426T496 1454H598Q671 1454 735 1427T847 1351T922 1239T950 1102V1044L821
1024V1102Q821 1150 803 1191T754 1264T682 1313T592 1331H502Q454 1331 413 1313T340 1264T290 1192T272 1102V332Q272 284 290 243T339 170T412 120T502 102H592Q640 102 681 120T754 169T803 242T821 332V631H592V754H950V0Z" />
<glyph unicode="H" glyph-name="H" horiz-adv-x="1135" d="M842 0V655H293V0H164V1434H293V778H842V1434H971V0H842Z" />
<glyph unicode="I" glyph-name="I" horiz-adv-x="457" d="M164 0V1434H293V0H164Z" />
<glyph unicode="J" glyph-name="J" horiz-adv-x="930" d="M807 332Q807 259 780 195T704 83T592 8T455 -20H414Q341 -20 277 7T164 83T89 195T61 332V389L190 410V332Q190 284 208 243T257 170T330 120T420 102H449Q496 102 538 120T611 169T660 242T678 332V1434H807V332V332Z"
/>
<glyph unicode="K" glyph-name="K" horiz-adv-x="1065" d="M864 0L324 717L864 1434H1024L473 717L1024 0H864ZM164 0V1434H293V0H164Z" />
<glyph unicode="L" glyph-name="L" horiz-adv-x="862" d="M143 0V1434H272V123H821V0H143Z" />
<glyph unicode="M" glyph-name="M" horiz-adv-x="1339" d="M1047 0V983L1038 922L705 0H637L301 922L293 983V0H164V1434H231L666 258L670 205L674 258L1108 1434H1176V0H1047Z" />
<glyph unicode="N" glyph-name="N" horiz-adv-x="1135" d="M903 0L305 1044L293 1106V0H164V1434H231L829 389L842 328V1434H971V0H903Z" />
<glyph unicode="O" glyph-name="O" horiz-adv-x="1094" d="M950 332Q950 259 923 195T847 83T735 8T598 -20H496Q423 -20 359 7T246 83T171 195T143 332V1102Q143 1175 170 1239T246 1351T358 1426T496 1454H598Q671 1454 735 1427T847 1351T922 1239T950 1102V332V332ZM821
1102Q821 1150 803 1191T754 1264T682 1313T592 1331H502Q454 1331 413 1313T340 1264T290 1192T272 1102V332Q272 284 290 243T339 170T412 120T502 102H592Q640 102 681 120T754 169T803 242T821 332V1102Z" />
<glyph unicode="P" glyph-name="P" horiz-adv-x="1053" d="M971 903Q971 830 944 766T868 654T756 579T618 551H293V0H164V1434H618Q691 1434 755 1407T868 1331T943 1219T971 1081V903V903ZM842 1081Q842 1129 824 1170T775 1243T702 1293T612 1311H293V674H612Q660
674 701 692T774 741T824 813T842 903V1081Z" />
<glyph unicode="Q" glyph-name="Q" horiz-adv-x="1094" d="M950 332Q950 262 925 200T856 91T753 15T625 -20L756 -315H627L496 -20Q423 -20 359 7T246 83T171 195T143 332V1102Q143 1175 170 1239T246 1351T358 1426T496 1454H598Q671 1454 735 1427T847 1351T922
1239T950 1102V332V332ZM821 1102Q821 1150 803 1191T754 1264T682 1313T592 1331H502Q454 1331 413 1313T340 1264T290 1192T272 1102V332Q272 284 290 243T339 170T412 120T502 102H592Q640 102 681 120T754 169T803 242T821 332V1102Z" />
<glyph unicode="R" glyph-name="R" horiz-adv-x="1069" d="M838 0L449 612H272V0H143V1434H598Q671 1434 735 1407T847 1331T922 1219T950 1081V965Q950 892 923 828T847 715T735 640T598 612L987 0H838ZM821 1081Q821 1129 803 1170T754 1243T682 1293T592 1311H272V735H592Q640
735 681 753T754 802T803 875T821 965V1081Z" />
<glyph unicode="S" glyph-name="S" horiz-adv-x="1063" d="M950 332Q950 259 921 195T842 83T727 8T588 -20H485Q412 -20 347 7T232 83T153 195T123 332V389L252 410V332Q252 284 271 243T324 170T400 120T492 102H582Q630 102 673 120T749 169T801 242T821 332V375Q821
449 792 498T715 581T607 640T482 688T358 741T249 813T172 920T143 1075V1102Q143 1175 170 1239T246 1351T358 1426T496 1454H588Q661 1454 725 1427T837 1351T912 1239T940 1102V1065L811 1044V1102Q811 1150 793 1191T744 1264T672 1313T582 1331H502Q454 1331
413 1313T340 1264T290 1192T272 1102V1075Q272 1006 301 959T378 879T486 821T611 771T735 715T844 640T921 531T950 375V332Z" />
<glyph unicode="T" glyph-name="T" horiz-adv-x="895" d="M512 1311V0H383V1311H41V1434H854V1311H512Z" />
<glyph unicode="U" glyph-name="U" horiz-adv-x="1094" d="M950 332Q950 259 923 195T847 83T735 8T598 -20H496Q423 -20 359 7T246 83T171 195T143 332V1434H272V332Q272 284 290 243T339 170T412 120T502 102H592Q640 102 681 120T754 169T803 242T821 332V1434H950V332V332Z"
/>
<glyph unicode="V" glyph-name="V" horiz-adv-x="950" d="M471 315L475 262L479 315L797 1434H930L508 0H440L20 1434H154L471 315Z" />
<glyph unicode="W" glyph-name="W" horiz-adv-x="1542" d="M1122 0H1055L776 1079L772 1135L766 1079L489 0H422L41 1434H170L451 344L455 291L459 344L735 1434H807L1083 344L1087 291L1092 344L1372 1434H1501L1122 0Z" />
<glyph unicode="X" glyph-name="X" horiz-adv-x="991" d="M791 0L496 596L201 0H61L426 737L82 1434H221L496 879L770 1434H909L565 737L930 0H791Z" />
<glyph unicode="Y" glyph-name="Y" horiz-adv-x="950" d="M541 686V0H412V684L41 1434H180L475 838L770 1434H909L541 686Z" />
<glyph unicode="Z" glyph-name="Z" horiz-adv-x="971" d="M82 0V61L721 1311H102V1434H889V1372L250 123H889V0H82Z" />
<glyph unicode="[" glyph-name="bracketleft" horiz-adv-x="633" d="M530 -410H164V1606H530V1495H287V-299H530V-410Z" />
<glyph unicode="\" glyph-name="backslash" horiz-adv-x="782" d="M612 -123L41 1556H170L741 -123H612Z" />
<glyph unicode="]" glyph-name="bracketright" horiz-adv-x="633" d="M102 -299H346V1495H102V1606H469V-410H102V-299Z" />
<glyph unicode="^" glyph-name="asciicircum" horiz-adv-x="1104" d="M981 776H844L551 1315L260 776H123L483 1434H621L981 776Z" />
<glyph unicode="_" glyph-name="underscore" horiz-adv-x="1122" d="M1124 -293V-410H-2V-293H1124Z" />
<glyph unicode="`" glyph-name="grave" horiz-adv-x="778" d="M205 1434H410L573 1188H481L205 1434Z" />
<glyph unicode="a" glyph-name="a" horiz-adv-x="930" d="M766 0L698 102Q656 47 593 14T455 -20H424Q362 -20 307 3T211 68T147 164T123 281V291Q123 353 146 408T211 504T307 568T424 592H684V750Q684 787 670 819T632 876T576 914T506 928H434Q397 928 365
914T308 876T270 820T256 750V713L133 733V743Q133 805 156 860T221 956T317 1020T434 1044H506Q568 1044 623 1021T719 956T783 860T807 743V0H766ZM684 496H424Q387 496 355 482T298 444T260 387T246 317V274Q246 237 260 205T298 148T354 110T424 96H506Q543
96 575 110T632 148T670 204T684 274V496Z" />
<glyph unicode="b" glyph-name="b" horiz-adv-x="930" d="M807 281Q807 219 784 164T719 68T623 4T506 -20H424Q362 -20 307 3T211 68T147 164T123 281V1434H246V938Q288 988 347 1016T475 1044H506Q568 1044 623 1021T719 956T783 860T807 743V281V281ZM684 750Q684
787 670 819T632 876T576 914T506 928H424Q387 928 355 914T298 876T260 820T246 750V274Q246 237 260 205T298 148T354 110T424 96H506Q543 96 575 110T632 148T670 204T684 274V750Z" />
<glyph unicode="c" glyph-name="c" horiz-adv-x="930" d="M807 281Q807 219 784 164T719 68T623 4T506 -20H424Q362 -20 307 3T211 68T147 164T123 281V743Q123 805 146 860T211 956T307 1020T424 1044H506Q568 1044 623 1021T719 956T783 860T807 743V702L684
682V750Q684 787 670 819T632 876T576 914T506 928H424Q387 928 355 914T298 876T260 820T246 750V274Q246 237 260 205T298 148T354 110T424 96H506Q543 96 575 110T632 148T670 204T684 274V342L807 322V281V281Z" />
<glyph unicode="d" glyph-name="d" horiz-adv-x="930" d="M766 0L698 104Q656 47 593 14T455 -20H424Q362 -20 307 3T211 68T147 164T123 281V743Q123 805 146 860T211 956T307 1020T424 1044H455Q524 1044 583 1016T684 938V1434H807V0H766ZM684 750Q684 787
670 819T632 876T576 914T506 928H424Q387 928 355 914T298 876T260 820T246 750V274Q246 237 260 205T298 148T354 110T424 96H506Q543 96 575 110T632 148T670 204T684 274V750Z" />
<glyph unicode="e" glyph-name="e" horiz-adv-x="930" d="M807 281Q807 219 784 164T719 68T623 4T506 -20H424Q362 -20 307 3T211 68T147 164T123 281V743Q123 805 146 860T211 956T307 1020T424 1044H506Q568 1044 623 1021T719 956T783 860T807 743V502H246V274Q246
237 260 205T298 148T354 110T424 96H506Q543 96 575 110T632 148T670 204T684 274V342L807 322V281V281ZM684 750Q684 787 670 819T632 876T576 914T506 928H424Q387 928 355 914T298 876T260 820T246 750V598H684V750Z" />
<glyph unicode="f" glyph-name="f" horiz-adv-x="588" d="M475 1317Q444 1317 418 1306T371 1274T340 1227T328 1169V1024H567V907H328V0H205V907H20V1024H205V1163Q205 1219 226 1268T284 1355T370 1413T475 1434H588V1317H475Z" />
<glyph unicode="g" glyph-name="g" horiz-adv-x="930" d="M817 -129Q817 -191 794 -243T729 -332T633 -389T516 -410H465Q403 -410 348 -390T252 -332T188 -243T164 -129V-125Q164 -65 186 -15T246 72Q198 101 170 150T141 260Q141 314 164 360T227 436Q179 478
151 537T123 666V743Q123 805 146 860T211 956T307 1020T424 1044H475Q550 1044 613 1011T719 920L786 1024H827V666Q827 604 804 549T739 453T643 389T526 365H348Q327 365 308 357T275 334T252 301T244 260Q244 239 252 220T274 187T308 164T348 156H516Q578
156 633 136T729 78T793 -11T817 -125V-129V-129ZM705 750Q705 787 691 819T653 876T596 914T526 928H424Q387 928 355 914T298 876T260 820T246 750V659Q246 622 260 590T298 533T354 495T424 481H526Q563 481 595 495T652 533T691 589T705 659V750ZM700 -119Q700
-82 686 -53T648 -3T592 28T522 39H459Q422 39 390 28T333 -3T295 -52T281 -119V-135Q281 -172 295 -201T333 -250T389 -282T459 -293H522Q559 -293 591 -282T648 -251T686 -201T700 -135V-119Z" />
<glyph unicode="h" glyph-name="h" horiz-adv-x="930" d="M684 0V750Q684 787 670 819T632 876T576 914T506 928H424Q387 928 355 914T298 876T260 820T246 750V0H123V1434H246V938Q288 988 347 1016T475 1044H506Q568 1044 623 1021T719 956T783 860T807 743V0H684Z" />
<glyph unicode="i" glyph-name="i" horiz-adv-x="451" d="M154 1270V1434H297V1270H154ZM164 0V1024H287V0H164Z" />
<glyph unicode="j" glyph-name="j" horiz-adv-x="451" d="M154 1270V1434H297V1270H154ZM287 -109Q287 -171 264 -225T199 -321T103 -386T-14 -410V-293Q23 -293 55 -279T112 -241T150 -185T164 -115V1024H287V-109V-109Z" />
<glyph unicode="k" glyph-name="k" horiz-adv-x="930" d="M729 0L311 512L729 1024H889L461 512L889 0H729ZM164 0V1434H287V0H164Z" />
<glyph unicode="l" glyph-name="l" horiz-adv-x="451" d="M164 0V1434H287V0H164Z" />
<glyph unicode="m" glyph-name="m" horiz-adv-x="1450" d="M1204 0V750Q1204 787 1190 819T1152 876T1096 914T1026 928H965Q928 928 896 914T839 876T800 820T786 750V0H664V750Q664 787 650 819T612 876T555 914T485 928H424Q387 928 355 914T298 876T260 820T246
750V0H123V1024H164L231 920Q273 977 336 1010T475 1044H485Q572 1044 642 1001T750 887Q769 922 797 951T859 1000T933 1032T1016 1044H1026Q1088 1044 1143 1021T1239 956T1303 860T1327 743V0H1204Z" />
<glyph unicode="n" glyph-name="n" horiz-adv-x="930" d="M684 0V750Q684 787 670 819T632 876T576 914T506 928H424Q387 928 355 914T298 876T260 820T246 750V0H123V1024H164L231 920Q273 977 336 1010T475 1044H506Q568 1044 623 1021T719 956T783 860T807 743V0H684Z" />
<glyph unicode="o" glyph-name="o" horiz-adv-x="930" d="M807 281Q807 219 784 164T719 68T623 4T506 -20H424Q362 -20 307 3T211 68T147 164T123 281V743Q123 805 146 860T211 956T307 1020T424 1044H506Q568 1044 623 1021T719 956T783 860T807 743V281V281ZM684
750Q684 787 670 819T632 876T576 914T506 928H424Q387 928 355 914T298 876T260 820T246 750V274Q246 237 260 205T298 148T354 110T424 96H506Q543 96 575 110T632 148T670 204T684 274V750Z" />
<glyph unicode="p" glyph-name="p" horiz-adv-x="930" d="M807 281Q807 219 784 164T719 68T623 4T506 -20H475Q406 -20 347 8T246 86V-410H123V1024H164L231 920Q273 977 336 1010T475 1044H506Q568 1044 623 1021T719 956T783 860T807 743V281V281ZM684 750Q684
787 670 819T632 876T576 914T506 928H424Q387 928 355 914T298 876T260 820T246 750V274Q246 237 260 205T298 148T354 110T424 96H506Q543 96 575 110T632 148T670 204T684 274V750Z" />
<glyph unicode="q" glyph-name="q" horiz-adv-x="930" d="M684 -410V86Q642 36 583 8T455 -20H424Q362 -20 307 3T211 68T147 164T123 281V743Q123 805 146 860T211 956T307 1020T424 1044H455Q530 1044 593 1011T698 920L766 1024H807V-410H684ZM684 750Q684
787 670 819T632 876T576 914T506 928H424Q387 928 355 914T298 876T260 820T246 750V274Q246 237 260 205T298 148T354 110T424 96H506Q543 96 575 110T632 148T670 204T684 274V750Z" />
<glyph unicode="r" glyph-name="r" horiz-adv-x="588" d="M424 907Q387 907 355 893T298 855T260 799T246 729V0H123V1024H164L231 920Q273 977 336 1010T475 1044H547V907H424Z" />
<glyph unicode="s" glyph-name="s" horiz-adv-x="940" d="M827 260Q827 198 802 147T734 58T635 1T516 -20H434Q372 -20 316 3T217 68T149 164T123 281V322L246 342V274Q246 237 261 205T303 148T363 110T434 96H516Q553 96 587 107T647 138T689 188T705 254Q705
309 681 344T618 402T528 441T424 472T321 508T231 560T167 642T143 764Q143 826 167 877T232 966T327 1023T444 1044H516Q578 1044 633 1021T729 956T793 860T817 743V739L694 719V750Q694 787 680 819T642 876T586 914T516 928H444Q407 928 375 917T318 886T280
836T266 770Q266 717 290 684T353 627T443 589T546 557T649 519T739 465T803 383T827 260Z" />
<glyph unicode="t" glyph-name="t" horiz-adv-x="711" d="M496 0Q440 0 391 21T305 79T247 165T225 270V907H41V1024H225V1270L348 1290V1024H608V907H348V264Q348 233 359 207T391 160T438 129T496 117H608V0H496Z" />
<glyph unicode="u" glyph-name="u" horiz-adv-x="930" d="M766 0L698 104Q656 47 593 14T455 -20H424Q362 -20 307 3T211 68T147 164T123 281V1024H246V274Q246 237 260 205T298 148T354 110T424 96H506Q543 96 575 110T632 148T670 204T684 274V1024H807V0H766Z" />
<glyph unicode="v" glyph-name="v" horiz-adv-x="827" d="M444 0H383L20 1024H143L410 248L414 195L418 248L684 1024H807L444 0Z" />
<glyph unicode="w" glyph-name="w" horiz-adv-x="1348" d="M985 0H918L678 772L674 825L670 772L430 0H362L20 1024H145L389 250L393 197L397 250L637 1024H711L950 250L954 197L958 250L1202 1024H1327L985 0Z" />
<glyph unicode="x" glyph-name="x" horiz-adv-x="868" d="M653 0L434 393L215 0H82L369 512L82 1024H215L434 631L653 1024H786L500 512L786 0H653Z" />
<glyph unicode="y" glyph-name="y" horiz-adv-x="807" d="M289 -410H170L352 88L20 1024H143L410 248L414 195L418 248L684 1024H807L289 -410Z" />
<glyph unicode="z" glyph-name="z" horiz-adv-x="848" d="M82 0V55L598 907H102V1024H766V969L250 117H766V0H82Z" />
<glyph unicode="{" glyph-name="braceleft" horiz-adv-x="778" d="M334 313Q334 365 317 407T270 480T197 526T104 543H82V653H115Q163 655 203 672T272 719T317 790T334 883V1253Q334 1330 360 1394T434 1506T546 1579T686 1606H696V1495H686Q636 1495 594 1479T522
1432T474 1360T457 1266V895Q457 798 415 720T301 598Q372 552 414 475T457 301V-70Q457 -121 474 -163T521 -236T594 -282T686 -299H696V-410H686Q611 -410 547 -384T435 -310T361 -199T334 -57V313Z" />
<glyph unicode="|" glyph-name="bar" horiz-adv-x="457" d="M164 -410V1606H293V-410H164Z" />
<glyph unicode="}" glyph-name="braceright" horiz-adv-x="778" d="M444 -57Q444 -134 418 -198T344 -310T232 -383T92 -410H82V-299H92Q142 -299 184 -283T257 -236T305 -164T322 -70V301Q322 398 363 475T477 598Q405 643 364 720T322 895V1266Q322 1317 305
1359T257 1432T184 1478T92 1495H82V1606H92Q167 1606 231 1580T343 1506T417 1395T444 1253V883Q444 831 461 789T509 716T582 670T674 653H696V543H664Q616 542 576 525T506 477T460 405T444 313V-57Z" />
<glyph unicode="~" glyph-name="asciitilde" horiz-adv-x="985" d="M659 604Q687 604 708 615T745 646T768 692T776 750H883Q883 696 869 649T827 567T757 512T657 492Q618 492 586 503T525 530T472 565T423 601T376 628T326 639Q272 639 241 598T209 494H102Q102
548 116 595T158 677T229 732T328 752Q386 752 430 729T513 678T586 627T659 604Z" />
<glyph unicode="&#xa0;" glyph-name="uni00A0" horiz-adv-x="471" />
<glyph unicode="&#xa1;" glyph-name="exclamdown" horiz-adv-x="428" d="M305 -410H123L178 590H250L305 -410ZM291 1024V870H137V1024H291Z" />
<glyph unicode="&#xa2;" glyph-name="cent" horiz-adv-x="930" d="M184 -20L262 231Q199 272 161 338T123 485V948Q123 1010 146 1065T211 1161T307 1225T424 1249H506Q523 1249 539 1248T571 1241L637 1454H745L668 1202Q731 1162 769 1096T807 948V907L684 887V954Q684
992 670 1024T631 1081L393 303Q401 301 408 301T424 301H506Q543 301 575 315T632 353T670 409T684 479V547L807 526V485Q807 423 784 368T719 272T623 208T506 184H424Q390 184 358 190L293 -20H184ZM246 479Q246 442 260 410T299 352L537 1128Q529 1130 522
1131T506 1133H424Q387 1133 355 1119T298 1081T260 1024T246 954V479V479Z" />
<glyph unicode="&#xa3;" glyph-name="sterling" horiz-adv-x="1108" d="M303 686Q289 734 275 783T250 884T232 989T225 1102Q225 1175 252 1239T328 1351T440 1426T578 1454H606Q679 1454 743 1427T855 1351T930 1239T958 1102V1065L829 1044V1102Q829 1150 811
1191T762 1264T690 1313T600 1331H584Q536 1331 495 1313T422 1264T372 1192T354 1102Q354 1047 361 995T381 891T409 789T440 686H780V584H467Q479 528 487 471T496 352Q496 286 476 228T420 123H965V0H123V123H158Q206 123 244 141T310 190T352 262T367 352Q367
412 358 469T334 584H123V686H303Z" />
<glyph unicode="&#xa4;" glyph-name="currency" horiz-adv-x="1237" d="M215 1212L365 1061Q419 1101 482 1123T618 1145Q690 1145 754 1123T870 1061L1022 1212L1112 1120L963 971Q1001 917 1022 854T1044 719Q1044 648 1023 584T961 467L1114 313L1022 223L868
375Q816 337 753 316T618 295Q547 295 483 316T367 375L215 223L123 313L276 467Q236 520 216 584T195 719Q195 790 215 853T274 969L125 1120L215 1212ZM317 719Q317 655 340 600T404 503T500 438T618 414Q682 414 737 438T834 503T898 599T922 719Q922 783 899
839T834 936T738 1002T618 1026Q555 1026 500 1002T405 937T341 839T317 719Z" />
<glyph unicode="&#xa5;" glyph-name="yen" horiz-adv-x="950" d="M397 711L41 1434H180L475 838L770 1434H909L553 711H827V608H541V475H827V373H541V0H412V373H123V475H412V608H123V711H397Z" />
<glyph unicode="&#xa6;" glyph-name="brokenbar" horiz-adv-x="457" d="M164 -410V496H293V-410H164ZM164 700V1606H293V700H164Z" />
<glyph unicode="&#xa7;" glyph-name="section" horiz-adv-x="1073" d="M143 1102Q143 1175 170 1239T246 1351T358 1426T496 1454H588Q661 1454 725 1427T837 1351T912 1239T940 1102V1065L811 1044V1102Q811 1150 793 1191T744 1264T672 1313T582 1331H502Q454
1331 413 1313T340 1264T290 1192T272 1102V1075Q272 1006 301 959T378 879T486 821T611 771T735 715T844 640T921 531T950 375V332Q950 284 937 240T901 158Q924 119 937 72T950 -35V-78Q950 -151 921 -215T842 -327T727 -402T588 -430H485Q412 -430 347 -403T232
-327T153 -215T123 -78V-20L252 0V-78Q252 -126 271 -167T324 -240T400 -289T492 -307H582Q630 -307 673 -289T749 -240T801 -168T821 -78V-35Q821 39 792 88T715 171T607 230T482 278T358 331T249 403T172 510T143 666V692Q143 743 156 789T195 877Q170 915 157
963T143 1075V1102ZM821 375Q821 444 796 491T728 572T630 629T517 675T400 721T291 780Q272 739 272 692V666Q272 600 298 555T366 477T464 420T579 373T698 323T807 260Q813 277 817 294T821 332V375Z" />
<glyph unicode="&#xa8;" glyph-name="dieresis" horiz-adv-x="950" d="M205 1231V1384H358V1231H205ZM592 1231V1384H745V1231H592Z" />
<glyph unicode="&#xa9;" glyph-name="copyright" horiz-adv-x="1679" d="M102 717Q102 819 128 913T203 1089T318 1238T467 1353T643 1427T840 1454Q942 1454 1036 1428T1212 1353T1361 1238T1476 1089T1550 913T1577 717Q1577 615 1551 521T1476 345T1361 196T1212
81T1036 7T840 -20Q738 -20 644 6T467 80T318 195T203 344T129 520T102 717ZM217 717Q217 586 265 471T397 271T594 136T840 86Q971 86 1084 135T1282 270T1414 471T1462 717Q1462 848 1414 963T1282 1163T1085 1298T840 1348Q708 1348 595 1299T397 1164T265 963T217
717ZM1100 485Q1100 437 1082 396T1033 323T960 274T870 256H809Q761 256 720 274T647 323T598 395T580 485V948Q580 996 598 1037T647 1110T719 1160T809 1178H870Q918 1178 959 1160T1032 1111T1082 1038T1100 948V897L985 879V948Q985 973 976 994T950 1032T913
1057T866 1067H813Q789 1067 767 1058T729 1032T704 995T694 948V485Q694 461 703 440T729 402T767 377T813 367H866Q891 367 912 376T950 402T975 439T985 485V555L1100 537V485V485Z" />
<glyph unicode="&#xaa;" glyph-name="ordfeminine" horiz-adv-x="717" d="M532 795L496 848Q470 820 432 801T352 782H334Q294 782 259 797T199 838T158 901T143 979Q143 1019 158 1053T198 1113T259 1154T334 1169H479V1255Q479 1275 472 1292T451 1323T421 1344T383
1352H340Q320 1352 303 1344T272 1323T252 1293T244 1255V1219L150 1243Q150 1284 164 1320T204 1383T265 1426T340 1442H383Q423 1442 457 1427T517 1386T558 1325T573 1251V795H532ZM479 1092H334Q294 1092 266 1064T238 995V969Q238 950 245 933T266 902T296
880T334 872H383Q403 872 420 880T451 901T471 932T479 969V1092ZM143 631H573V553H143V631Z" />
<glyph unicode="&#xab;" glyph-name="guillemotleft" horiz-adv-x="961" d="M797 84L420 467L797 850L838 809L588 467L838 125L797 84ZM459 84L82 467L459 850L500 809L250 467L500 125L459 84Z" />
<glyph unicode="&#xac;" glyph-name="logicalnot" horiz-adv-x="1270" d="M1147 782V309H1018V653H123V782H1147Z" />
<glyph unicode="&#xae;" glyph-name="registered" horiz-adv-x="1679" d="M102 717Q102 819 128 913T203 1089T318 1238T467 1353T643 1427T840 1454Q942 1454 1036 1428T1212 1353T1361 1238T1476 1089T1550 913T1577 717Q1577 615 1551 521T1476 345T1361 196T1212
81T1036 7T840 -20Q738 -20 644 6T467 80T318 195T203 344T129 520T102 717ZM217 717Q217 586 265 471T397 271T594 136T840 86Q971 86 1084 135T1282 270T1414 471T1462 717Q1462 848 1414 963T1282 1163T1085 1298T840 1348Q708 1348 595 1299T397 1164T265 963T217
717ZM1001 268L791 598H715V268H600V1165H891Q939 1165 980 1147T1053 1098T1102 1026T1120 936V829Q1120 786 1106 747T1065 677T1004 626T926 600Q950 563 977 520T1032 432T1087 346T1137 268H1001ZM1006 936Q1006 960 997 982T971 1020T933 1045T887 1055H715V709H887Q911
709 933 718T971 744T996 782T1006 829V936Z" />
<glyph unicode="&#xaf;" glyph-name="overscore" horiz-adv-x="1010" d="M205 1329H805V1231H205V1329Z" />
<glyph unicode="&#xb0;" glyph-name="degree" horiz-adv-x="856" d="M143 1169Q143 1228 165 1280T226 1370T317 1431T428 1454Q487 1454 539 1432T629 1371T690 1280T713 1169Q713 1110 691 1059T630 969T539 908T428 885Q369 885 317 907T227 968T166 1058T143
1169ZM258 1169Q258 1134 271 1103T308 1048T362 1011T428 997Q463 997 494 1010T548 1047T584 1102T598 1169Q598 1205 585 1236T548 1290T494 1327T428 1341Q393 1341 362 1328T308 1291T272 1236T258 1169Z" />
<glyph unicode="&#xb1;" glyph-name="plusminus" horiz-adv-x="1188" d="M528 205V653H82V782H528V1229H657V782H1106V653H657V205H1106V76H82V205H528Z" />
<glyph unicode="&#xb2;" glyph-name="twosuperior" horiz-adv-x="692" d="M340 1346Q305 1346 281 1322T256 1262V1214L158 1227V1262Q158 1300 172 1332T211 1389T267 1428T336 1442H365Q403 1442 435 1429T492 1391T529 1331T543 1253Q543 1220 533 1185T507
1114T469 1045T426 981Q374 910 309 842H549V745H143V823Q228 892 294 965Q322 996 349 1031T397 1104T431 1179T444 1253Q444 1300 420 1323T362 1346H340Z" />
<glyph unicode="&#xb3;" glyph-name="threesuperior" horiz-adv-x="672" d="M528 915Q528 879 515 847T477 790T421 752T350 737H322Q284 737 252 751T195 790T157 846T143 915V950L242 965V915Q242 881 266 858T326 834H346Q381 834 405 857T430 915V969Q430
1004 406 1028T346 1053H283V1149H346Q364 1149 379 1155T405 1173T423 1199T430 1231V1264Q430 1281 424 1296T406 1322T379 1339T346 1346H326Q308 1346 293 1340T267 1322T249 1296T242 1264V1214L143 1229V1264Q143 1300 157 1332T195 1389T251 1427T322 1442H350Q388
1442 420 1428T477 1389T514 1333T528 1264V1241Q528 1150 463 1100Q491 1075 509 1038T528 961V915V915Z" />
<glyph unicode="&#xb4;" glyph-name="acute" horiz-adv-x="778" d="M297 1188H205L369 1434H573L297 1188Z" />
<glyph unicode="&#xb5;" glyph-name="mu" horiz-adv-x="930" d="M123 1024H246V274Q246 237 260 205T298 148T354 110T424 96H506Q543 96 575 110T632 148T670 204T684 274V1024H807V0H766L698 104Q656 47 593 14T455 -20H424Q373 -20 328 -5T246 39V-295H123V1024Z" />
<glyph unicode="&#xb6;" glyph-name="paragraph" horiz-adv-x="1155" d="M686 -410H557V633H455Q382 633 318 660T205 736T130 848T102 985V1081Q102 1154 129 1218T205 1331T317 1406T455 1434H991V-410H862V1311H686V-410Z" />
<glyph unicode="&#xb7;" glyph-name="middot" horiz-adv-x="440" d="M143 655V809H297V655H143Z" />
<glyph unicode="&#xb8;" glyph-name="cedilla" horiz-adv-x="741" d="M416 0H502L442 -102Q451 -106 467 -116T498 -145T525 -188T537 -246Q537 -284 523 -315T485 -367T426 -400T352 -412Q307 -412 271 -395T205 -348L252 -276Q257 -282 266 -290T288 -305T318
-317T354 -322Q391 -322 416 -301T442 -242Q442 -218 433 -200T407 -170T369 -153T324 -150L416 0Z" />
<glyph unicode="&#xb9;" glyph-name="onesuperior" horiz-adv-x="694" d="M143 745V842H299V1327L143 1262V1362L317 1434H397V842H551V745H143Z" />
<glyph unicode="&#xba;" glyph-name="ordmasculine" horiz-adv-x="717" d="M573 973Q573 934 558 899T518 838T458 797T383 782H334Q294 782 259 797T199 838T158 899T143 973V1251Q143 1290 158 1325T198 1386T259 1427T334 1442H383Q423 1442 457 1427T517 1386T558
1325T573 1251V973V973ZM479 1255Q479 1275 472 1292T451 1323T421 1344T383 1352H334Q314 1352 297 1344T266 1323T246 1293T238 1255V969Q238 950 245 933T266 902T296 880T334 872H383Q403 872 420 880T451 901T471 932T479 969V1255ZM143 631H573V553H143V631Z"
/>
<glyph unicode="&#xbb;" glyph-name="guillemotright" horiz-adv-x="961" d="M123 125L373 467L123 809L164 850L541 467L164 84L123 125ZM461 125L711 467L461 809L502 850L879 467L502 84L461 125Z" />
<glyph unicode="&#xbc;" glyph-name="onequarter" horiz-adv-x="1364" d="M1165 119V0H1075V119H815V166L1108 686H1165V207H1221V119H1165ZM1075 449L942 207H1075V449ZM287 0L1104 1434H1219L401 0H287ZM143 745V842H299V1327L143 1262V1362L317 1434H397V842H551V745H143Z"
/>
<glyph unicode="&#xbd;" glyph-name="onehalf" horiz-adv-x="1448" d="M143 745V842H299V1327L143 1262V1362L317 1434H397V842H551V745H143ZM1096 600Q1061 600 1037 576T1012 516V469L913 481V516Q913 554 927 586T966 643T1023 682T1092 696H1120Q1158 696
1190 683T1247 646T1284 586T1298 508Q1298 475 1288 440T1262 369T1225 299T1182 235Q1131 164 1065 96H1305V0H899V78Q984 147 1050 220Q1078 251 1105 286T1153 359T1187 434T1200 508Q1200 554 1175 577T1118 600H1096ZM287 0L1104 1434H1219L401 0H287Z" />
<glyph unicode="&#xbe;" glyph-name="threequarters" horiz-adv-x="1364" d="M528 915Q528 879 515 847T477 790T421 752T350 737H322Q284 737 252 751T195 790T157 846T143 915V950L242 965V915Q242 881 266 858T326 834H346Q381 834 405 857T430 915V969Q430
1004 406 1028T346 1053H283V1149H346Q364 1149 379 1155T405 1173T423 1199T430 1231V1264Q430 1281 424 1296T406 1322T379 1339T346 1346H326Q308 1346 293 1340T267 1322T249 1296T242 1264V1214L143 1229V1264Q143 1300 157 1332T195 1389T251 1427T322 1442H350Q388
1442 420 1428T477 1389T514 1333T528 1264V1241Q528 1150 463 1100Q491 1075 509 1038T528 961V915V915ZM1165 119V0H1075V119H815V166L1108 686H1165V207H1221V119H1165ZM1075 449L942 207H1075V449ZM287 0L1104 1434H1219L401 0H287Z" />
<glyph unicode="&#xbf;" glyph-name="questiondown" horiz-adv-x="950" d="M618 1024V870H465V1024H618ZM477 590H606V551Q606 485 590 436T548 350T488 284T419 229T350 175T290 115T247 40T231 -59V-78Q231 -126 249 -167T298 -240T371 -289T461 -307H489Q537
-307 578 -289T651 -240T701 -168T719 -78V-20L848 -41V-78Q848 -151 821 -215T745 -327T633 -402T496 -430H455Q382 -430 318 -403T205 -327T130 -215T102 -78V-59Q102 10 118 62T160 154T220 225T289 283T358 336T418 393T461 462T477 551V590Z" />
<glyph unicode="&#xc0;" glyph-name="Agrave" horiz-adv-x="950" d="M702 334H248L154 0H20L440 1434H508L930 0H797L702 334ZM283 457H668L479 1118L475 1171L471 1118L283 457ZM250 1843H455L618 1597H526L250 1843Z" />
<glyph unicode="&#xc1;" glyph-name="Aacute" horiz-adv-x="950" d="M702 334H248L154 0H20L440 1434H508L930 0H797L702 334ZM283 457H668L479 1118L475 1171L471 1118L283 457ZM424 1597H332L496 1843H700L424 1597Z" />
<glyph unicode="&#xc2;" glyph-name="Acircumflex" horiz-adv-x="950" d="M702 334H248L154 0H20L440 1434H508L930 0H797L702 334ZM283 457H668L479 1118L475 1171L471 1118L283 457ZM741 1597H618L475 1761L332 1597H209L414 1843H537L741 1597Z" />
<glyph unicode="&#xc3;" glyph-name="Atilde" horiz-adv-x="950" d="M702 334H248L154 0H20L440 1434H508L930 0H797L702 334ZM283 457H668L479 1118L475 1171L471 1118L283 457ZM612 1729Q654 1729 676 1760T698 1843H793Q793 1798 782 1759T747 1691T690 1645T610
1628Q562 1628 526 1646T458 1685T398 1725T338 1743Q296 1743 275 1712T254 1630H160Q160 1675 171 1713T204 1781T261 1826T342 1843Q387 1843 421 1825T486 1786T547 1747T612 1729Z" />
<glyph unicode="&#xc4;" glyph-name="Adieresis" horiz-adv-x="950" d="M702 334H248L154 0H20L440 1434H508L930 0H797L702 334ZM283 457H668L479 1118L475 1171L471 1118L283 457ZM205 1640V1794H358V1640H205ZM592 1640V1794H745V1640H592Z" />
<glyph unicode="&#xc5;" glyph-name="Aring" horiz-adv-x="950" d="M264 1546Q264 1590 280 1628T325 1696T392 1742T475 1759Q519 1759 557 1742T625 1696T671 1629T688 1546Q688 1510 677 1478T645 1418T596 1372T535 1343L930 0H797L702 334H248L154 0H20L414
1343Q381 1353 354 1372T306 1418T275 1477T264 1546ZM283 457H668L479 1118L475 1171L471 1118L283 457ZM367 1546Q367 1524 375 1504T399 1469T433 1445T475 1436Q498 1436 518 1445T554 1469T577 1504T586 1546Q586 1569 578 1589T554 1625T519 1650T475 1659Q453
1659 434 1650T399 1626T376 1590T367 1546Z" />
<glyph unicode="&#xc6;" glyph-name="AE" horiz-adv-x="1767" d="M879 0V334H352L154 0H20L879 1434H1686V1311H1008V778H1556V655H1008V123H1686V0H879ZM879 457V1229L858 1176L426 457H879Z" />
<glyph unicode="&#xc7;" glyph-name="Ccedilla" horiz-adv-x="1073" d="M508 -20H496Q423 -20 359 7T246 83T171 195T143 332V1102Q143 1175 170 1239T246 1351T358 1426T496 1454H598Q671 1454 735 1427T847 1351T922 1239T950 1102V1044L821 1024V1102Q821 1150
803 1191T754 1264T682 1313T592 1331H502Q454 1331 413 1313T340 1264T290 1192T272 1102V332Q272 284 290 243T339 170T412 120T502 102H592Q640 102 681 120T754 169T803 242T821 332V410L950 389V332Q950 259 923 195T847 83T735 8T598 -20H594L547 -102Q556
-106 572 -116T603 -145T629 -188T641 -246Q641 -284 627 -315T589 -367T531 -400T457 -412Q412 -412 375 -395T309 -348L356 -276Q361 -282 370 -290T393 -305T423 -317T459 -322Q496 -322 521 -301T547 -242Q547 -218 538 -200T512 -170T474 -153T428 -150L508
-20Z" />
<glyph unicode="&#xc8;" glyph-name="Egrave" horiz-adv-x="1053" d="M164 0V1434H971V1311H293V778H842V655H293V123H971V0H164ZM301 1843H506L670 1597H578L301 1843Z" />
<glyph unicode="&#xc9;" glyph-name="Eacute" horiz-adv-x="1053" d="M164 0V1434H971V1311H293V778H842V655H293V123H971V0H164ZM516 1597H424L588 1843H793L516 1597Z" />
<glyph unicode="&#xca;" glyph-name="Ecircumflex" horiz-adv-x="1053" d="M164 0V1434H971V1311H293V778H842V655H293V123H971V0H164ZM834 1597H711L567 1761L424 1597H301L506 1843H629L834 1597Z" />
<glyph unicode="&#xcb;" glyph-name="Edieresis" horiz-adv-x="1053" d="M164 0V1434H971V1311H293V778H842V655H293V123H971V0H164ZM256 1640V1794H410V1640H256ZM643 1640V1794H797V1640H643Z" />
<glyph unicode="&#xcc;" glyph-name="Igrave" horiz-adv-x="457" d="M164 0V1434H293V0H164ZM4 1843H209L373 1597H281L4 1843Z" />
<glyph unicode="&#xcd;" glyph-name="Iacute" horiz-adv-x="457" d="M164 0V1434H293V0H164ZM178 1597H86L250 1843H455L178 1597Z" />
<glyph unicode="&#xce;" glyph-name="Icircumflex" horiz-adv-x="457" d="M164 0V1434H293V0H164ZM496 1597H373L229 1761L86 1597H-37L168 1843H291L496 1597Z" />
<glyph unicode="&#xcf;" glyph-name="Idieresis" horiz-adv-x="457" d="M164 0V1434H293V0H164ZM-41 1640V1794H113V1640H-41ZM346 1640V1794H500V1640H346Z" />
<glyph unicode="&#xd0;" glyph-name="Eth" horiz-adv-x="1139" d="M188 686V1434H643Q716 1434 780 1407T892 1331T967 1219T995 1081V352Q995 279 968 215T892 103T780 28T643 0H188V584H61V686H188ZM866 1081Q866 1129 848 1170T799 1243T727 1293T637 1311H317V686H557V584H317V123H637Q685
123 726 141T799 190T848 262T866 352V1081Z" />
<glyph unicode="&#xd1;" glyph-name="Ntilde" horiz-adv-x="1135" d="M903 0L305 1044L293 1106V0H164V1434H231L829 389L842 328V1434H971V0H903ZM702 1729Q744 1729 766 1760T788 1843H883Q883 1798 872 1759T837 1691T780 1645T700 1628Q652 1628 616 1646T548
1685T488 1725T428 1743Q386 1743 365 1712T344 1630H250Q250 1675 261 1713T294 1781T351 1826T432 1843Q477 1843 511 1825T576 1786T637 1747T702 1729Z" />
<glyph unicode="&#xd2;" glyph-name="Ograve" horiz-adv-x="1094" d="M950 332Q950 259 923 195T847 83T735 8T598 -20H496Q423 -20 359 7T246 83T171 195T143 332V1102Q143 1175 170 1239T246 1351T358 1426T496 1454H598Q671 1454 735 1427T847 1351T922 1239T950
1102V332V332ZM821 1102Q821 1150 803 1191T754 1264T682 1313T592 1331H502Q454 1331 413 1313T340 1264T290 1192T272 1102V332Q272 284 290 243T339 170T412 120T502 102H592Q640 102 681 120T754 169T803 242T821 332V1102ZM342 1843H547L711 1597H618L342
1843Z" />
<glyph unicode="&#xd3;" glyph-name="Oacute" horiz-adv-x="1094" d="M950 332Q950 259 923 195T847 83T735 8T598 -20H496Q423 -20 359 7T246 83T171 195T143 332V1102Q143 1175 170 1239T246 1351T358 1426T496 1454H598Q671 1454 735 1427T847 1351T922 1239T950
1102V332V332ZM821 1102Q821 1150 803 1191T754 1264T682 1313T592 1331H502Q454 1331 413 1313T340 1264T290 1192T272 1102V332Q272 284 290 243T339 170T412 120T502 102H592Q640 102 681 120T754 169T803 242T821 332V1102ZM516 1597H424L588 1843H793L516
1597Z" />
<glyph unicode="&#xd4;" glyph-name="Ocircumflex" horiz-adv-x="1094" d="M950 332Q950 259 923 195T847 83T735 8T598 -20H496Q423 -20 359 7T246 83T171 195T143 332V1102Q143 1175 170 1239T246 1351T358 1426T496 1454H598Q671 1454 735 1427T847 1351T922
1239T950 1102V332V332ZM821 1102Q821 1150 803 1191T754 1264T682 1313T592 1331H502Q454 1331 413 1313T340 1264T290 1192T272 1102V332Q272 284 290 243T339 170T412 120T502 102H592Q640 102 681 120T754 169T803 242T821 332V1102ZM813 1597H690L547 1761L403
1597H281L485 1843H608L813 1597Z" />
<glyph unicode="&#xd5;" glyph-name="Otilde" horiz-adv-x="1094" d="M950 332Q950 259 923 195T847 83T735 8T598 -20H496Q423 -20 359 7T246 83T171 195T143 332V1102Q143 1175 170 1239T246 1351T358 1426T496 1454H598Q671 1454 735 1427T847 1351T922 1239T950
1102V332V332ZM821 1102Q821 1150 803 1191T754 1264T682 1313T592 1331H502Q454 1331 413 1313T340 1264T290 1192T272 1102V332Q272 284 290 243T339 170T412 120T502 102H592Q640 102 681 120T754 169T803 242T821 332V1102ZM682 1729Q724 1729 746 1760T768
1843H862Q862 1798 851 1759T817 1691T760 1645T680 1628Q632 1628 595 1646T527 1685T467 1725T408 1743Q366 1743 345 1712T324 1630H229Q229 1675 240 1713T274 1781T331 1826T412 1843Q456 1843 490 1825T556 1786T617 1747T682 1729Z" />
<glyph unicode="&#xd6;" glyph-name="Odieresis" horiz-adv-x="1094" d="M950 332Q950 259 923 195T847 83T735 8T598 -20H496Q423 -20 359 7T246 83T171 195T143 332V1102Q143 1175 170 1239T246 1351T358 1426T496 1454H598Q671 1454 735 1427T847 1351T922
1239T950 1102V332V332ZM821 1102Q821 1150 803 1191T754 1264T682 1313T592 1331H502Q454 1331 413 1313T340 1264T290 1192T272 1102V332Q272 284 290 243T339 170T412 120T502 102H592Q640 102 681 120T754 169T803 242T821 332V1102ZM276 1640V1794H430V1640H276ZM664
1640V1794H817V1640H664Z" />
<glyph unicode="&#xd7;" glyph-name="multiply" horiz-adv-x="1196" d="M195 1212L598 809L1001 1212L1092 1120L690 719L1094 313L1001 223L598 627L195 223L102 313L506 719L104 1120L195 1212Z" />
<glyph unicode="&#xd8;" glyph-name="Oslash" horiz-adv-x="1094" d="M102 -61L201 137Q173 179 158 228T143 332V1102Q143 1175 170 1239T246 1351T358 1426T496 1454H598Q661 1454 718 1433T821 1374L883 1495H991L891 1294Q919 1252 934 1204T950 1102V332Q950
259 923 195T847 83T735 8T598 -20H496Q431 -20 374 0T270 59L211 -61H102ZM821 1102Q821 1113 820 1124T817 1147L330 178Q362 143 405 123T502 102H592Q640 102 681 120T754 169T803 242T821 332V1102ZM272 332Q272 319 272 309T276 287L762 1255Q731 1291 687
1311T592 1331H502Q454 1331 413 1313T340 1264T290 1192T272 1102V332V332Z" />
<glyph unicode="&#xd9;" glyph-name="Ugrave" horiz-adv-x="1094" d="M950 332Q950 259 923 195T847 83T735 8T598 -20H496Q423 -20 359 7T246 83T171 195T143 332V1434H272V332Q272 284 290 243T339 170T412 120T502 102H592Q640 102 681 120T754 169T803 242T821
332V1434H950V332V332ZM301 1843H506L670 1597H578L301 1843Z" />
<glyph unicode="&#xda;" glyph-name="Uacute" horiz-adv-x="1094" d="M950 332Q950 259 923 195T847 83T735 8T598 -20H496Q423 -20 359 7T246 83T171 195T143 332V1434H272V332Q272 284 290 243T339 170T412 120T502 102H592Q640 102 681 120T754 169T803 242T821
332V1434H950V332V332ZM516 1597H424L588 1843H793L516 1597Z" />
<glyph unicode="&#xdb;" glyph-name="Ucircumflex" horiz-adv-x="1094" d="M950 332Q950 259 923 195T847 83T735 8T598 -20H496Q423 -20 359 7T246 83T171 195T143 332V1434H272V332Q272 284 290 243T339 170T412 120T502 102H592Q640 102 681 120T754 169T803
242T821 332V1434H950V332V332ZM813 1597H690L547 1761L403 1597H281L485 1843H608L813 1597Z" />
<glyph unicode="&#xdc;" glyph-name="Udieresis" horiz-adv-x="1094" d="M950 332Q950 259 923 195T847 83T735 8T598 -20H496Q423 -20 359 7T246 83T171 195T143 332V1434H272V332Q272 284 290 243T339 170T412 120T502 102H592Q640 102 681 120T754 169T803
242T821 332V1434H950V332V332ZM276 1640V1794H430V1640H276ZM664 1640V1794H817V1640H664Z" />
<glyph unicode="&#xdd;" glyph-name="Yacute" horiz-adv-x="950" d="M541 686V0H412V684L41 1434H180L475 838L770 1434H909L541 686ZM465 1597H373L537 1843H741L465 1597Z" />
<glyph unicode="&#xde;" glyph-name="Thorn" horiz-adv-x="1053" d="M971 682Q971 609 944 545T868 433T756 358T618 330H293V0H164V1434H293V1151H618Q691 1151 755 1124T868 1048T943 936T971 799V682V682ZM842 799Q842 847 824 888T775 961T702 1010T612 1028H293V453H612Q660
453 701 471T774 520T824 592T842 682V799Z" />
<glyph unicode="&#xdf;" glyph-name="germandbls" horiz-adv-x="1053" d="M471 117H582Q630 117 671 135T744 184T793 256T811 346V477Q811 525 793 566T744 639T672 689T582 707H471V823H582Q630 823 671 841T744 890T793 963T811 1053V1108Q811 1156 793 1197T744
1270T672 1319T582 1337H522Q474 1337 433 1319T360 1270T311 1198T293 1108V0H170V1102Q170 1175 197 1239T270 1351T380 1426T516 1454H582Q655 1454 719 1427T831 1351T906 1239T934 1102V1077Q934 1026 921 980T883 893T824 821T748 766Q789 744 823 712T882
639T920 553T934 455V352Q934 279 907 215T831 103T719 28T582 0H471V117Z" />
<glyph unicode="&#xe0;" glyph-name="agrave" horiz-adv-x="930" d="M766 0L698 102Q656 47 593 14T455 -20H424Q362 -20 307 3T211 68T147 164T123 281V291Q123 353 146 408T211 504T307 568T424 592H684V750Q684 787 670 819T632 876T576 914T506 928H434Q397
928 365 914T308 876T270 820T256 750V713L133 733V743Q133 805 156 860T221 956T317 1020T434 1044H506Q568 1044 623 1021T719 956T783 860T807 743V0H766ZM684 496H424Q387 496 355 482T298 444T260 387T246 317V274Q246 237 260 205T298 148T354 110T424 96H506Q543
96 575 110T632 148T670 204T684 274V496ZM240 1434H444L608 1188H516L240 1434Z" />
<glyph unicode="&#xe1;" glyph-name="aacute" horiz-adv-x="930" d="M766 0L698 102Q656 47 593 14T455 -20H424Q362 -20 307 3T211 68T147 164T123 281V291Q123 353 146 408T211 504T307 568T424 592H684V750Q684 787 670 819T632 876T576 914T506 928H434Q397
928 365 914T308 876T270 820T256 750V713L133 733V743Q133 805 156 860T221 956T317 1020T434 1044H506Q568 1044 623 1021T719 956T783 860T807 743V0H766ZM684 496H424Q387 496 355 482T298 444T260 387T246 317V274Q246 237 260 205T298 148T354 110T424 96H506Q543
96 575 110T632 148T670 204T684 274V496ZM414 1188H322L485 1434H690L414 1188Z" />
<glyph unicode="&#xe2;" glyph-name="acircumflex" horiz-adv-x="930" d="M766 0L698 102Q656 47 593 14T455 -20H424Q362 -20 307 3T211 68T147 164T123 281V291Q123 353 146 408T211 504T307 568T424 592H684V750Q684 787 670 819T632 876T576 914T506 928H434Q397
928 365 914T308 876T270 820T256 750V713L133 733V743Q133 805 156 860T221 956T317 1020T434 1044H506Q568 1044 623 1021T719 956T783 860T807 743V0H766ZM684 496H424Q387 496 355 482T298 444T260 387T246 317V274Q246 237 260 205T298 148T354 110T424 96H506Q543
96 575 110T632 148T670 204T684 274V496ZM752 1188H629L485 1352L342 1188H219L424 1434H547L752 1188Z" />
<glyph unicode="&#xe3;" glyph-name="atilde" horiz-adv-x="930" d="M766 0L698 102Q656 47 593 14T455 -20H424Q362 -20 307 3T211 68T147 164T123 281V291Q123 353 146 408T211 504T307 568T424 592H684V750Q684 787 670 819T632 876T576 914T506 928H434Q397
928 365 914T308 876T270 820T256 750V713L133 733V743Q133 805 156 860T221 956T317 1020T434 1044H506Q568 1044 623 1021T719 956T783 860T807 743V0H766ZM684 496H424Q387 496 355 482T298 444T260 387T246 317V274Q246 237 260 205T298 148T354 110T424 96H506Q543
96 575 110T632 148T670 204T684 274V496ZM602 1319Q644 1319 666 1351T688 1434H782Q782 1389 771 1350T737 1282T680 1236T600 1219Q552 1219 516 1237T448 1276T388 1315T328 1333Q286 1333 265 1302T244 1221H150Q150 1265 161 1304T194 1372T251 1417T332
1434Q377 1434 411 1416T476 1377T537 1337T602 1319Z" />
<glyph unicode="&#xe4;" glyph-name="adieresis" horiz-adv-x="930" d="M766 0L698 102Q656 47 593 14T455 -20H424Q362 -20 307 3T211 68T147 164T123 281V291Q123 353 146 408T211 504T307 568T424 592H684V750Q684 787 670 819T632 876T576 914T506 928H434Q397
928 365 914T308 876T270 820T256 750V713L133 733V743Q133 805 156 860T221 956T317 1020T434 1044H506Q568 1044 623 1021T719 956T783 860T807 743V0H766ZM684 496H424Q387 496 355 482T298 444T260 387T246 317V274Q246 237 260 205T298 148T354 110T424 96H506Q543
96 575 110T632 148T670 204T684 274V496ZM215 1231V1384H369V1231H215ZM602 1231V1384H756V1231H602Z" />
<glyph unicode="&#xe5;" glyph-name="aring" horiz-adv-x="930" d="M766 0L698 102Q656 47 593 14T455 -20H424Q362 -20 307 3T211 68T147 164T123 281V291Q123 353 146 408T211 504T307 568T424 592H684V750Q684 787 670 819T632 876T576 914T506 928H434Q397
928 365 914T308 876T270 820T256 750V713L133 733V743Q133 805 156 860T221 956T317 1020T434 1044H506Q568 1044 623 1021T719 956T783 860T807 743V0H766ZM684 496H424Q387 496 355 482T298 444T260 387T246 317V274Q246 237 260 205T298 148T354 110T424 96H506Q543
96 575 110T632 148T670 204T684 274V496ZM258 1358Q258 1402 274 1440T319 1508T386 1554T469 1571Q513 1571 551 1554T619 1508T665 1441T682 1358Q682 1314 665 1276T619 1209T552 1164T469 1147Q425 1147 387 1163T320 1208T275 1275T258 1358ZM360 1358Q360
1336 368 1316T392 1280T427 1256T469 1247Q492 1247 512 1256T547 1280T571 1315T580 1358Q580 1381 571 1401T547 1437T512 1461T469 1470Q447 1470 427 1461T392 1437T369 1402T360 1358Z" />
<glyph unicode="&#xe6;" glyph-name="ae" horiz-adv-x="1491" d="M1368 281Q1368 219 1345 164T1280 68T1184 4T1067 -20H985Q943 -20 904 -9T830 22T768 70T721 133Q693 88 662 59T596 12T526 -13T455 -20H424Q362 -20 307 3T211 68T147 164T123 281V291Q123
353 146 408T211 504T307 568T424 592H684V756Q683 791 669 822T630 877T574 914T506 928H434Q397 928 365 914T308 876T270 820T256 750V713L133 733V743Q133 805 156 860T221 956T317 1020T434 1044H506Q578 1044 640 1012T745 924Q787 979 849 1011T985 1044H1067Q1129
1044 1184 1021T1280 956T1344 860T1368 743V502H807V274Q807 237 821 205T859 148T915 110T985 96H1067Q1104 96 1136 110T1193 148T1231 204T1245 274V342L1368 322V281V281ZM684 496H424Q387 496 355 482T298 444T260 387T246 317V274Q246 237 260 205T298 148T354
110T424 96H506Q543 96 575 110T632 148T670 204T684 274V496ZM1245 750Q1245 787 1231 819T1193 876T1137 914T1067 928H985Q949 928 917 915T861 878T823 823T807 756V598H1245V750Z" />
<glyph unicode="&#xe7;" glyph-name="ccedilla" horiz-adv-x="930" d="M436 -20H424Q362 -20 307 3T211 68T147 164T123 281V743Q123 805 146 860T211 956T307 1020T424 1044H506Q568 1044 623 1021T719 956T783 860T807 743V702L684 682V750Q684 787 670 819T632
876T576 914T506 928H424Q387 928 355 914T298 876T260 820T246 750V274Q246 237 260 205T298 148T354 110T424 96H506Q543 96 575 110T632 148T670 204T684 274V342L807 322V281Q807 221 785 168T724 75T633 9T522 -20L475 -102Q484 -106 500 -116T531 -145T558
-188T569 -246Q569 -284 556 -315T518 -367T459 -400T385 -412Q340 -412 304 -395T238 -348L285 -276Q290 -282 299 -290T321 -305T351 -317T387 -322Q424 -322 449 -301T475 -242Q475 -218 466 -200T440 -170T402 -153T356 -150L436 -20Z" />
<glyph unicode="&#xe8;" glyph-name="egrave" horiz-adv-x="930" d="M807 281Q807 219 784 164T719 68T623 4T506 -20H424Q362 -20 307 3T211 68T147 164T123 281V743Q123 805 146 860T211 956T307 1020T424 1044H506Q568 1044 623 1021T719 956T783 860T807 743V502H246V274Q246
237 260 205T298 148T354 110T424 96H506Q543 96 575 110T632 148T670 204T684 274V342L807 322V281V281ZM684 750Q684 787 670 819T632 876T576 914T506 928H424Q387 928 355 914T298 876T260 820T246 750V598H684V750ZM240 1434H444L608 1188H516L240 1434Z"
/>
<glyph unicode="&#xe9;" glyph-name="eacute" horiz-adv-x="930" d="M807 281Q807 219 784 164T719 68T623 4T506 -20H424Q362 -20 307 3T211 68T147 164T123 281V743Q123 805 146 860T211 956T307 1020T424 1044H506Q568 1044 623 1021T719 956T783 860T807 743V502H246V274Q246
237 260 205T298 148T354 110T424 96H506Q543 96 575 110T632 148T670 204T684 274V342L807 322V281V281ZM684 750Q684 787 670 819T632 876T576 914T506 928H424Q387 928 355 914T298 876T260 820T246 750V598H684V750ZM414 1188H322L485 1434H690L414 1188Z"
/>
<glyph unicode="&#xea;" glyph-name="ecircumflex" horiz-adv-x="930" d="M807 281Q807 219 784 164T719 68T623 4T506 -20H424Q362 -20 307 3T211 68T147 164T123 281V743Q123 805 146 860T211 956T307 1020T424 1044H506Q568 1044 623 1021T719 956T783 860T807
743V502H246V274Q246 237 260 205T298 148T354 110T424 96H506Q543 96 575 110T632 148T670 204T684 274V342L807 322V281V281ZM684 750Q684 787 670 819T632 876T576 914T506 928H424Q387 928 355 914T298 876T260 820T246 750V598H684V750ZM752 1188H629L485
1352L342 1188H219L424 1434H547L752 1188Z" />
<glyph unicode="&#xeb;" glyph-name="edieresis" horiz-adv-x="930" d="M807 281Q807 219 784 164T719 68T623 4T506 -20H424Q362 -20 307 3T211 68T147 164T123 281V743Q123 805 146 860T211 956T307 1020T424 1044H506Q568 1044 623 1021T719 956T783 860T807
743V502H246V274Q246 237 260 205T298 148T354 110T424 96H506Q543 96 575 110T632 148T670 204T684 274V342L807 322V281V281ZM684 750Q684 787 670 819T632 876T576 914T506 928H424Q387 928 355 914T298 876T260 820T246 750V598H684V750ZM215 1231V1384H369V1231H215ZM602
1231V1384H756V1231H602Z" />
<glyph unicode="&#xec;" glyph-name="igrave" horiz-adv-x="451" d="M164 0V1024H287V0H164ZM0 1434H205L369 1188H276L0 1434Z" />
<glyph unicode="&#xed;" glyph-name="iacute" horiz-adv-x="451" d="M164 0V1024H287V0H164ZM174 1188H82L246 1434H451L174 1188Z" />
<glyph unicode="&#xee;" glyph-name="icircumflex" horiz-adv-x="451" d="M164 0V1024H287V0H164ZM492 1188H369L225 1352L82 1188H-41L164 1434H287L492 1188Z" />
<glyph unicode="&#xef;" glyph-name="idieresis" horiz-adv-x="451" d="M164 0V1024H287V0H164ZM-45 1231V1384H109V1231H-45ZM342 1231V1384H496V1231H342Z" />
<glyph unicode="&#xf0;" glyph-name="eth" horiz-adv-x="930" d="M498 1264Q456 1313 408 1355T309 1434H457Q536 1382 608 1296L827 1360L848 1294L651 1237Q720 1137 763 1012T807 743V281Q807 219 784 164T719 68T623 4T506 -20H424Q362 -20 307 3T211 68T147
164T123 281V743Q123 805 146 860T211 956T307 1020T424 1044H506Q572 1044 633 1016Q604 1118 543 1206L315 1141L297 1206L498 1264ZM684 750Q684 787 670 819T632 876T576 914T506 928H424Q387 928 355 914T298 876T260 820T246 750V274Q246 237 260 205T298
148T354 110T424 96H506Q543 96 575 110T632 148T670 204T684 274V750Z" />
<glyph unicode="&#xf1;" glyph-name="ntilde" horiz-adv-x="930" d="M684 0V750Q684 787 670 819T632 876T576 914T506 928H424Q387 928 355 914T298 876T260 820T246 750V0H123V1024H164L231 920Q273 977 336 1010T475 1044H506Q568 1044 623 1021T719 956T783
860T807 743V0H684ZM602 1319Q644 1319 666 1351T688 1434H782Q782 1389 771 1350T737 1282T680 1236T600 1219Q552 1219 516 1237T448 1276T388 1315T328 1333Q286 1333 265 1302T244 1221H150Q150 1265 161 1304T194 1372T251 1417T332 1434Q377 1434 411 1416T476
1377T537 1337T602 1319Z" />
<glyph unicode="&#xf2;" glyph-name="ograve" horiz-adv-x="930" d="M807 281Q807 219 784 164T719 68T623 4T506 -20H424Q362 -20 307 3T211 68T147 164T123 281V743Q123 805 146 860T211 956T307 1020T424 1044H506Q568 1044 623 1021T719 956T783 860T807 743V281V281ZM684
750Q684 787 670 819T632 876T576 914T506 928H424Q387 928 355 914T298 876T260 820T246 750V274Q246 237 260 205T298 148T354 110T424 96H506Q543 96 575 110T632 148T670 204T684 274V750ZM240 1434H444L608 1188H516L240 1434Z" />
<glyph unicode="&#xf3;" glyph-name="oacute" horiz-adv-x="930" d="M807 281Q807 219 784 164T719 68T623 4T506 -20H424Q362 -20 307 3T211 68T147 164T123 281V743Q123 805 146 860T211 956T307 1020T424 1044H506Q568 1044 623 1021T719 956T783 860T807 743V281V281ZM684
750Q684 787 670 819T632 876T576 914T506 928H424Q387 928 355 914T298 876T260 820T246 750V274Q246 237 260 205T298 148T354 110T424 96H506Q543 96 575 110T632 148T670 204T684 274V750ZM414 1188H322L485 1434H690L414 1188Z" />
<glyph unicode="&#xf4;" glyph-name="ocircumflex" horiz-adv-x="930" d="M807 281Q807 219 784 164T719 68T623 4T506 -20H424Q362 -20 307 3T211 68T147 164T123 281V743Q123 805 146 860T211 956T307 1020T424 1044H506Q568 1044 623 1021T719 956T783 860T807
743V281V281ZM684 750Q684 787 670 819T632 876T576 914T506 928H424Q387 928 355 914T298 876T260 820T246 750V274Q246 237 260 205T298 148T354 110T424 96H506Q543 96 575 110T632 148T670 204T684 274V750ZM731 1188H608L465 1352L322 1188H199L403 1434H526L731
1188Z" />
<glyph unicode="&#xf5;" glyph-name="otilde" horiz-adv-x="930" d="M807 281Q807 219 784 164T719 68T623 4T506 -20H424Q362 -20 307 3T211 68T147 164T123 281V743Q123 805 146 860T211 956T307 1020T424 1044H506Q568 1044 623 1021T719 956T783 860T807 743V281V281ZM684
750Q684 787 670 819T632 876T576 914T506 928H424Q387 928 355 914T298 876T260 820T246 750V274Q246 237 260 205T298 148T354 110T424 96H506Q543 96 575 110T632 148T670 204T684 274V750ZM602 1319Q644 1319 666 1351T688 1434H782Q782 1389 771 1350T737
1282T680 1236T600 1219Q552 1219 516 1237T448 1276T388 1315T328 1333Q286 1333 265 1302T244 1221H150Q150 1265 161 1304T194 1372T251 1417T332 1434Q377 1434 411 1416T476 1377T537 1337T602 1319Z" />
<glyph unicode="&#xf6;" glyph-name="odieresis" horiz-adv-x="930" d="M807 281Q807 219 784 164T719 68T623 4T506 -20H424Q362 -20 307 3T211 68T147 164T123 281V743Q123 805 146 860T211 956T307 1020T424 1044H506Q568 1044 623 1021T719 956T783 860T807
743V281V281ZM684 750Q684 787 670 819T632 876T576 914T506 928H424Q387 928 355 914T298 876T260 820T246 750V274Q246 237 260 205T298 148T354 110T424 96H506Q543 96 575 110T632 148T670 204T684 274V750ZM195 1231V1384H348V1231H195ZM582 1231V1384H735V1231H582Z"
/>
<glyph unicode="&#xf7;" glyph-name="divide" horiz-adv-x="1188" d="M1106 782V653H82V782H1106ZM455 1100Q455 1129 466 1154T496 1198T540 1228T594 1239Q623 1239 648 1228T692 1198T722 1154T733 1100Q733 1072 722 1047T692 1002T648 972T594 961Q566 961
541 972T496 1002T466 1046T455 1100ZM455 336Q455 365 466 390T496 434T540 464T594 475Q623 475 648 464T692 434T722 390T733 336Q733 308 722 283T692 238T648 208T594 197Q566 197 541 208T496 238T466 282T455 336Z" />
<glyph unicode="&#xf8;" glyph-name="oslash" horiz-adv-x="932" d="M61 -61L170 117Q123 188 123 281V743Q123 805 146 860T211 956T307 1020T424 1044H506Q560 1044 608 1026T694 977L762 1085H870L760 905Q781 870 794 829T807 743V281Q807 219 784 164T719
68T623 4T506 -20H424Q370 -20 322 -3T236 45L170 -61H61ZM246 274Q246 266 246 259T248 244L633 874Q608 899 576 913T506 928H424Q387 928 355 914T298 876T260 820T246 750V274V274ZM684 750Q684 756 683 763T682 776L297 147Q322 123 354 110T424 96H506Q543
96 575 110T632 148T670 204T684 274V750Z" />
<glyph unicode="&#xf9;" glyph-name="ugrave" horiz-adv-x="930" d="M766 0L698 104Q656 47 593 14T455 -20H424Q362 -20 307 3T211 68T147 164T123 281V1024H246V274Q246 237 260 205T298 148T354 110T424 96H506Q543 96 575 110T632 148T670 204T684 274V1024H807V0H766ZM199
1434H403L567 1188H475L199 1434Z" />
<glyph unicode="&#xfa;" glyph-name="uacute" horiz-adv-x="930" d="M766 0L698 104Q656 47 593 14T455 -20H424Q362 -20 307 3T211 68T147 164T123 281V1024H246V274Q246 237 260 205T298 148T354 110T424 96H506Q543 96 575 110T632 148T670 204T684 274V1024H807V0H766ZM455
1188H362L526 1434H731L455 1188Z" />
<glyph unicode="&#xfb;" glyph-name="ucircumflex" horiz-adv-x="930" d="M766 0L698 104Q656 47 593 14T455 -20H424Q362 -20 307 3T211 68T147 164T123 281V1024H246V274Q246 237 260 205T298 148T354 110T424 96H506Q543 96 575 110T632 148T670 204T684 274V1024H807V0H766ZM731
1188H608L465 1352L322 1188H199L403 1434H526L731 1188Z" />
<glyph unicode="&#xfc;" glyph-name="udieresis" horiz-adv-x="930" d="M766 0L698 104Q656 47 593 14T455 -20H424Q362 -20 307 3T211 68T147 164T123 281V1024H246V274Q246 237 260 205T298 148T354 110T424 96H506Q543 96 575 110T632 148T670 204T684 274V1024H807V0H766ZM195
1231V1384H348V1231H195ZM582 1231V1384H735V1231H582Z" />
<glyph unicode="&#xfd;" glyph-name="yacute" horiz-adv-x="807" d="M289 -410H170L352 88L20 1024H143L410 248L414 195L418 248L684 1024H807L289 -410ZM393 1188H301L465 1434H670L393 1188Z" />
<glyph unicode="&#xfe;" glyph-name="thorn" horiz-adv-x="930" d="M807 281Q807 219 784 164T719 68T623 4T506 -20H475Q406 -20 347 8T246 86V-410H123V1434H246V938Q288 988 347 1016T475 1044H506Q568 1044 623 1021T719 956T783 860T807 743V281V281ZM684
750Q684 787 670 819T632 876T576 914T506 928H424Q387 928 355 914T298 876T260 820T246 750V274Q246 237 260 205T298 148T354 110T424 96H506Q543 96 575 110T632 148T670 204T684 274V750Z" />
<glyph unicode="&#xff;" glyph-name="ydieresis" horiz-adv-x="807" d="M289 -410H170L352 88L20 1024H143L410 248L414 195L418 248L684 1024H807L289 -410ZM154 1231V1384H307V1231H154ZM541 1231V1384H694V1231H541Z" />
<glyph unicode="&#x2013;" glyph-name="endash" horiz-adv-x="1126" d="M1024 743V627H102V743H1024Z" />
<glyph unicode="&#x2014;" glyph-name="emdash" horiz-adv-x="2048" d="M1946 743V627H102V743H1946Z" />
<glyph unicode="&#x2018;" glyph-name="quoteleft" horiz-adv-x="399" d="M246 1434H297V993H143L246 1434Z" />
<glyph unicode="&#x2019;" glyph-name="quoteright" horiz-adv-x="399" d="M195 993H143V1434H297L195 993Z" />
<glyph unicode="&#x201a;" glyph-name="quotesinglbase" horiz-adv-x="440" d="M195 -287H143V154H297L195 -287Z" />
<glyph unicode="&#x201c;" glyph-name="quotedblleft" horiz-adv-x="645" d="M451 1434H502V993H348L451 1434ZM205 1434H256V993H102L205 1434Z" />
<glyph unicode="&#x201d;" glyph-name="quotedblright" horiz-adv-x="645" d="M195 993H143V1434H297L195 993ZM440 993H389V1434H543L440 993Z" />
<glyph unicode="&#x201e;" glyph-name="quotedblbase" horiz-adv-x="645" d="M195 -287H143V154H297L195 -287ZM440 -287H389V154H543L440 -287Z" />
<glyph unicode="&#x2022;" glyph-name="bullet" horiz-adv-x="958" d="M123 709Q123 783 151 847T227 960T341 1037T479 1065Q553 1065 618 1037T731 961T808 848T836 709Q836 635 808 570T732 457T618 380T479 352Q406 352 341 380T228 456T151 570T123 709Z" />
<glyph unicode="&#x2039;" glyph-name="guilsinglleft" horiz-adv-x="623" d="M459 84L82 467L459 850L500 809L250 467L500 125L459 84Z" />
<glyph unicode="&#x203a;" glyph-name="guilsinglright" horiz-adv-x="623" d="M123 125L373 467L123 809L164 850L541 467L164 84L123 125Z" />
</font>
</defs>
</svg>
