<?xml version="1.0" standalone="no"?>
<!DOCTYPE svg PUBLIC "-//W3C//DTD SVG 1.1//EN" "http://www.w3.org/Graphics/SVG/1.1/DTD/svg11.dtd">
<svg xmlns="http://www.w3.org/2000/svg">
<defs >
<font id="AsapCondensed" horiz-adv-x="462" ><font-face
    font-family="Asap Condensed"
    units-per-em="1000"
    panose-1="2 15 8 6 3 2 2 6 2 3"
    ascent="934"
    descent="-212"
    alphabetic="0" />
<glyph unicode=" " glyph-name="space" horiz-adv-x="137" />
<glyph unicode="!" glyph-name="exclam" horiz-adv-x="246" d="M88 222T78 229T67 254V670Q67 702 125 702H171Q198 702 213 695T229 674L178 254Q175 236 166 229T127 222H119Q88 222 78 229ZM47 -2T47 30V122Q47 154 105 154H138Q196 154 196 122V30Q196 -2
138 -2H105Q47 -2 47 30Z" />
<glyph unicode="&quot;" glyph-name="quotedbl" horiz-adv-x="309" d="M54 464T46 471T36 494L14 665V670Q14 702 74 702H84Q144 702 144 670Q142 647 136 596T122 494Q120 478 112 471T88 464H70Q54 464 46 471ZM205 464T197 471T187 494L165 665V670Q165 702
225 702H235Q295 702 295 670Q293 647 287 596T273 494Q271 478 263 471T239 464H221Q205 464 197 471Z" />
<glyph unicode="#" glyph-name="numbersign" horiz-adv-x="514" d="M58 -2T59 28Q60 43 66 87T82 183H38Q22 183 15 195T8 233V243Q8 269 15 281T38 293H98L114 403H66Q50 403 43 415T36 453V463Q36 489 43 501T66 513H130L150 654Q156 686 201 686H219Q266 686
263 655L242 513H319L339 654Q345 686 390 686H408Q431 686 442 678T452 655L431 513H476Q492 513 499 501T506 463V453Q506 427 499 415T476 403H415L399 293H452Q468 293 475 281T482 243V233Q482 207 475 195T452 183H383L361 30Q355 -2 310 -2H292Q248 -2 248
26Q249 43 255 86T270 183H195L172 30Q166 -2 122 -2H103Q58 -2 59 28ZM287 293L303 403H227L211 293H287Z" />
<glyph unicode="$" glyph-name="dollar" horiz-adv-x="440" d="M200 -75T197 -71T191 -55V-8Q143 -7 99 8Q71 18 50 33T27 66Q24 95 36 129T68 163Q74 163 88 156Q122 138 143 131T191 123L192 291Q138 313 102 338T42 405T19 512Q19 592 65 644T191 706V745V748Q191
765 211 765H228Q238 765 242 761T248 745V707Q310 702 348 680Q374 666 375 645Q376 641 376 632Q376 604 367 580T340 555Q332 555 309 562Q271 575 249 576L248 417L259 412Q311 386 341 366T396 305T420 203Q420 122 375 68T248 -5V-55Q248 -75 228 -75H211Q200
-75 197 -71ZM191 568Q154 552 154 514Q154 492 164 474T191 445V568ZM266 141T276 158T287 198Q287 223 277 236T248 261V133Q266 141 276 158Z" />
<glyph unicode="%" glyph-name="percent" horiz-adv-x="686" d="M109 372T70 409T31 540Q31 634 70 671T167 708Q226 708 265 671T304 540Q304 446 265 409T167 372Q109 372 70 409ZM168 -2T161 3T154 18Q154 25 158 33L437 674Q449 702 478 702H511Q524 702 531
697T538 682Q538 675 534 667L256 26Q243 -2 214 -2H181Q168 -2 161 3ZM187 454T194 473T201 540Q201 584 194 603T167 622Q147 622 140 603T133 540Q133 492 140 473T167 454Q187 454 194 473ZM465 -8T426 29T387 160Q387 254 426 291T523 328Q582 328 621 291T660
160Q660 66 621 29T523 -8Q465 -8 426 29ZM543 74T550 93T557 160Q557 204 550 223T523 242Q503 242 496 223T489 160Q489 112 496 93T523 74Q543 74 550 93Z" />
<glyph unicode="&amp;" glyph-name="ampersand" horiz-adv-x="520" d="M503 113T511 84T520 41Q520 -8 432 -8Q398 -8 377 1T341 32Q296 9 265 1T188 -8Q97 -8 51 47T5 204Q5 273 23 317T93 383V387Q59 405 41 443T23 533Q23 614 67 661T189 708Q225 708 257 697T289
666Q289 632 278 608T255 584Q252 584 241 587T219 591Q198 591 187 569T176 509Q176 472 195 449T243 426H306L318 521Q321 553 372 553H407Q457 553 457 521V426H479Q494 426 501 414T508 376V359Q508 333 501 321T479 309H457V152Q457 127 459 118T473 109Q478
109 483 111T491 113Q503 113 511 84ZM156 156T168 133T213 109Q235 109 255 114T306 133V309H233Q188 309 172 285T156 206Q156 156 168 133Z" />
<glyph unicode="&apos;" glyph-name="quotesingle" horiz-adv-x="164" d="M59 464T51 471T41 494L19 665V670Q19 702 79 702H89Q149 702 149 670Q147 647 141 596T127 494Q125 478 117 471T93 464H75Q59 464 51 471Z" />
<glyph unicode="(" glyph-name="parenleft" horiz-adv-x="249" d="M184 -208T172 -192Q102 -94 68 29T33 287Q33 423 67 546T172 767Q184 783 199 783Q215 783 235 768T256 737Q256 726 251 717Q193 614 172 512T150 287Q150 163 171 62T251 -142Q256 -151 256
-162Q256 -178 236 -193T199 -208Q184 -208 172 -192Z" />
<glyph unicode=")" glyph-name="parenright" horiz-adv-x="249" d="M34 -208T14 -193T-7 -162Q-7 -151 -2 -142Q55 -39 76 62T98 287Q98 412 77 513T-2 717Q-7 726 -7 737Q-7 753 13 768T50 783Q65 783 77 767Q147 670 181 546T215 287Q215 151 181 28T77 -192Q65
-208 50 -208Q34 -208 14 -193Z" />
<glyph unicode="*" glyph-name="asterisk" horiz-adv-x="299" d="M68 412T57 420T45 438V441Q45 449 54 462L101 540L38 564Q27 569 22 574T16 587Q16 600 23 612T44 624Q53 624 60 621L117 600V678Q117 694 124 701T147 708Q163 708 170 701T177 678V600L233
621Q241 624 249 624Q262 624 270 613T278 587Q278 579 273 574T256 564L192 540L240 462Q249 449 249 438Q248 429 237 421T215 412Q202 414 192 429L147 501L102 429Q93 414 79 412Q68 412 57 420Z" />
<glyph unicode="+" glyph-name="plus" horiz-adv-x="449" d="M190 0T178 7T166 30V182H59Q44 182 37 194T30 232V239Q30 265 37 277T59 289H166V443Q166 459 178 466T216 473H230Q256 473 268 466T280 443V289H391Q406 289 412 277T419 239V232Q419 206 413 194T391
182H280V30Q280 14 268 7T230 0H216Q190 0 178 7Z" />
<glyph unicode="," glyph-name="comma" horiz-adv-x="188" d="M24 -125T10 -120T-4 -103Q-4 -98 -2 -88T2 -70L8 -50Q19 -14 25 22T32 110Q32 154 90 154H110Q140 154 154 142T168 110Q168 57 146 3T92 -88T40 -125Q24 -125 10 -120Z" />
<glyph unicode="-" glyph-name="hyphen" horiz-adv-x="256" d="M28 212T21 224T14 262V269Q14 295 21 307T43 319H214Q229 319 236 307T243 269V262Q243 236 236 224T214 212H43Q28 212 21 224Z" />
<glyph unicode="." glyph-name="period" horiz-adv-x="188" d="M19 -2T19 30V122Q19 154 77 154H110Q168 154 168 122V30Q168 -2 110 -2H77Q19 -2 19 30Z" />
<glyph unicode="/" glyph-name="slash" horiz-adv-x="320" d="M-19 -79T-19 -56Q-19 -51 -15 -38L208 672Q218 702 262 702H289Q330 702 330 679Q330 674 326 658L103 -49Q93 -79 49 -79H22Q-19 -79 -19 -56Z" />
<glyph unicode="0" glyph-name="zero" horiz-adv-x="459" d="M126 -8T76 84T25 350Q25 523 75 615T229 708Q332 708 383 615T434 350Q434 178 383 85T229 -8Q126 -8 76 84ZM248 109T259 128T275 199T281 350Q281 449 276 501T259 572T229 591Q210 591 199 572T183
501T177 350Q177 251 182 199T199 128T229 109Q248 109 259 128Z" />
<glyph unicode="1" glyph-name="one" horiz-adv-x="459" d="M44 0T37 12T30 50V67Q30 93 37 105T60 117H167V566L59 551Q42 551 35 578T27 635Q27 658 53 663L274 704Q287 704 301 697T315 680V117H399Q415 117 422 105T429 67V50Q429 24 422 12T399 0H60Q44 0 37 12Z" />
<glyph unicode="2" glyph-name="two" horiz-adv-x="459" d="M33 0T24 31T15 88Q15 99 18 103L236 420Q257 451 266 474T275 520Q275 555 254 572T196 590Q171 590 150 582T106 559Q87 547 80 547Q58 547 41 571T23 616Q23 658 84 683T219 708Q318 708 371 658T425
525Q425 447 372 372L199 117H400Q416 117 423 105T430 67V50Q430 24 423 12T400 0H43Q33 0 24 31Z" />
<glyph unicode="3" glyph-name="three" horiz-adv-x="459" d="M176 -8T129 0T49 27T15 74Q15 84 23 102T42 135T64 150Q69 150 86 140Q109 126 131 118T183 109Q225 109 250 134T275 206Q275 257 249 282T165 308H130Q114 308 107 320T100 358V376Q100 402 107
414T130 426H156Q201 426 226 448T252 509Q252 547 233 568T178 590Q152 590 136 584T105 568T86 559Q71 559 54 586T36 635Q36 670 88 689T214 708Q300 708 351 661T402 533Q402 482 377 444T309 387V383Q367 361 396 314T425 204Q425 106 368 49T216 -8Q176 -8
129 0Z" />
<glyph unicode="4" glyph-name="four" horiz-adv-x="459" d="M247 -2T247 30V142H41Q29 142 17 177T4 235Q4 242 6 246L221 678Q228 694 242 698T284 702H335Q395 702 395 670V259H422Q438 259 445 247T452 209V192Q452 166 445 154T422 142H395V30Q395 -2 335
-2H307Q247 -2 247 30ZM246 259V356Q246 417 256 493L252 494L142 259H246Z" />
<glyph unicode="5" glyph-name="five" horiz-adv-x="459" d="M122 -8T72 13T21 64Q21 73 30 92T51 127T75 143Q77 143 96 134T139 117T193 109Q232 109 254 136T277 212Q277 267 254 295T177 323H83Q62 323 54 332T46 363L65 660Q67 681 76 690T107 700H374Q390
700 397 688T404 650V623Q404 602 397 593T374 583H200L190 440H205Q313 440 370 389T427 216Q427 136 394 86T309 14T198 -8Q122 -8 72 13Z" />
<glyph unicode="6" glyph-name="six" horiz-adv-x="459" d="M178 -8T132 18T55 103T25 253Q25 424 93 524T237 664T339 704Q355 704 366 689T383 653T389 621Q389 611 387 607T376 600Q305 577 259 528T193 405Q232 428 274 428Q310 428 348 407T412 339T439 216Q439
139 410 89T333 16T232 -8Q178 -8 132 18ZM261 109T280 138T299 212Q299 257 280 284T226 311Q202 311 177 296Q176 278 176 241Q176 109 234 109Q261 109 280 138Z" />
<glyph unicode="7" glyph-name="seven" horiz-adv-x="459" d="M58 -2T58 17Q58 22 64 38L274 583H60Q44 583 37 595T30 633V650Q30 676 37 688T60 700H405Q413 700 424 667T435 610Q435 603 433 597L209 18Q205 7 191 3T152 -2H115Q58 -2 58 17Z" />
<glyph unicode="8" glyph-name="eight" horiz-adv-x="459" d="M130 -8T79 50T27 199Q27 264 51 306T115 372Q80 401 60 436T40 524Q40 606 92 657T237 708Q325 708 375 659T425 532Q425 472 403 437T343 379Q387 351 412 308T437 195Q437 142 416 96T350 21T234
-8Q130 -8 79 50ZM292 473T292 527Q292 557 276 574T236 591Q212 591 195 575T177 529Q177 499 194 479T244 440Q292 473 292 527ZM263 109T280 132T297 189Q297 231 275 256T212 305Q189 287 178 263T166 203Q166 155 184 132T233 109Q263 109 280 132Z" />
<glyph unicode="9" glyph-name="nine" horiz-adv-x="459" d="M104 -7T93 8T76 44T70 76Q70 87 72 91T83 97Q153 120 200 169T266 293Q228 269 184 269Q148 269 111 290T47 358T20 481Q20 558 49 608T126 681T226 705Q280 705 327 679T404 594T434 444Q434 273
366 173T222 33T120 -7Q104 -7 93 8ZM255 386T282 401Q283 419 283 456Q283 526 267 557T225 588Q198 588 179 559T160 484Q160 439 179 413T233 386Q255 386 282 401Z" />
<glyph unicode=":" glyph-name="colon" horiz-adv-x="188" d="M19 369T19 401V493Q19 525 77 525H110Q168 525 168 493V401Q168 369 110 369H77Q19 369 19 401ZM19 -2T19 30V122Q19 154 77 154H110Q168 154 168 122V30Q168 -2 110 -2H77Q19 -2 19 30Z" />
<glyph unicode=";" glyph-name="semicolon" horiz-adv-x="188" d="M19 369T19 401V493Q19 525 77 525H110Q168 525 168 493V401Q168 369 110 369H77Q19 369 19 401ZM24 -125T10 -120T-4 -103Q-4 -98 -2 -88T2 -70L8 -50Q19 -14 25 22T32 110Q32 154 90 154H110Q140
154 154 142T168 110Q168 57 146 3T92 -88T40 -125Q24 -125 10 -120Z" />
<glyph unicode="&lt;" glyph-name="less" horiz-adv-x="448" d="M51 193Q38 200 33 209T27 236V255Q27 271 32 280T51 297L372 467Q388 475 394 475Q404 475 407 466T410 438V422Q410 394 405 382T385 359L182 245L387 131Q404 120 408 110T412 68V52Q412 30 410
21T399 11Q395 11 385 16L51 193Z" />
<glyph unicode="=" glyph-name="equal" horiz-adv-x="449" d="M41 267T36 278T30 317V324Q30 351 35 362T54 374H396Q409 374 414 363T419 324V317Q419 290 414 279T396 267H54Q41 267 36 278ZM41 86T36 97T30 136V143Q30 170 35 181T54 193H396Q409 193 414 182T419
143V136Q419 109 414 98T396 86H54Q41 86 36 97Z" />
<glyph unicode="&gt;" glyph-name="greater" horiz-adv-x="448" d="M44 11T40 11Q32 11 30 20T27 52V68Q27 99 31 109T52 131L257 245L54 359Q39 369 34 381T29 422V438Q29 457 32 466T45 475Q51 475 67 467L388 297Q401 290 406 281T412 255V236Q412 219 407
210T388 193L54 16Q44 11 40 11Z" />
<glyph unicode="?" glyph-name="question" horiz-adv-x="391" d="M121 222T110 228T98 251Q98 293 112 330T155 404L177 430Q205 463 217 483T230 520Q230 576 165 576Q145 576 129 570T98 554T78 545Q65 545 51 560T26 596T15 627Q15 652 41 670T107 698T185
708Q277 708 331 664T386 539Q386 499 375 470T347 421T301 373Q267 341 248 314T223 249Q219 234 207 228T170 222H147Q121 222 110 228ZM85 -2T85 30V122Q85 154 145 154H177Q237 154 237 122V30Q237 -2 177 -2H145Q85 -2 85 30Z" />
<glyph unicode="@" glyph-name="at" horiz-adv-x="792" d="M526 708T591 668T691 554T727 383Q727 294 699 220T622 102T513 58Q476 58 451 74T415 118Q401 91 376 75T320 58Q269 58 239 105T209 239Q209 318 229 379T284 474T365 508Q391 508 412 496T449 466Q455
488 464 495T499 503H511Q558 503 558 479L549 382Q546 346 539 266T532 174Q532 159 539 150T560 141Q587 141 610 174T648 262T663 380Q663 463 635 525T557 620T439 654Q351 654 278 599T162 449T119 237Q119 147 145 78T221 -30T334 -69Q365 -69 386 -64T431
-48Q447 -40 455 -40Q469 -40 469 -73Q469 -99 422 -111T328 -123Q248 -123 186 -77T90 51T55 239Q55 369 106 476T245 646T441 708Q526 708 591 668ZM416 314T429 392Q413 410 395 410Q366 410 350 368T334 247Q334 197 342 178T370 159Q390 159 411 190Q416 314
429 392Z" />
<glyph unicode="A" glyph-name="A" horiz-adv-x="505" d="M2 -2T2 20Q2 28 5 38L159 674Q166 702 220 702H285Q340 702 347 674L501 38Q503 24 503 20Q503 -2 460 -2H407Q359 -2 354 19L328 141H176L149 19Q145 -2 102 -2H50Q2 -2 2 20ZM311 263L266 475Q259 511
254 551H249Q244 511 237 475L193 263H311Z" />
<glyph unicode="B" glyph-name="B" horiz-adv-x="539" d="M75 0T66 9T57 40V661Q57 681 66 690T94 700H273Q483 700 483 531Q483 419 393 366L394 362Q445 347 474 304T503 197Q503 108 446 54T276 0H94Q75 0 66 9ZM274 415Q306 415 321 435T337 500Q337 543 323
561T276 580H205V415H274ZM281 121Q318 121 335 142T353 211Q353 257 336 276T281 296H205V121H281Z" />
<glyph unicode="C" glyph-name="C" horiz-adv-x="459" d="M164 -8T101 78T37 352Q37 532 103 620T309 708Q356 708 396 697Q427 688 427 654Q427 616 414 586T380 563Q348 573 316 573Q256 573 227 518T197 351Q197 239 226 184T321 128Q340 128 353 130T387 139Q390
140 396 140Q416 140 426 115T436 49Q436 34 430 24T407 7Q390 1 362 -3T304 -8Q164 -8 101 78Z" />
<glyph unicode="D" glyph-name="D" horiz-adv-x="577" d="M75 0T66 9T57 40V660Q57 681 66 690T94 700H284Q414 700 475 613T537 350Q537 174 476 87T284 0H94Q75 0 66 9ZM279 131Q332 131 355 180T378 350Q378 470 355 519T279 569H215V131H279Z" />
<glyph unicode="E" glyph-name="E" horiz-adv-x="457" d="M75 0T66 9T57 40V660Q57 681 66 690T94 700H389Q404 700 411 688T418 650V619Q418 593 411 581T389 569H213V424H369Q384 424 391 412T398 374V343Q398 317 391 305T369 293H213V131H390Q405 131 411
119T418 81V50Q418 24 412 12T390 0H94Q75 0 66 9Z" />
<glyph unicode="F" glyph-name="F" horiz-adv-x="423" d="M57 -2T57 30V660Q57 681 66 690T94 700H369Q384 700 391 688T398 650V619Q398 593 391 581T369 569H213V423H360Q375 423 382 411T389 373V342Q389 316 382 304T360 292H213V30Q213 -2 155 -2H115Q57 -2 57 30Z" />
<glyph unicode="G" glyph-name="G" horiz-adv-x="552" d="M484 410T493 401T502 370V72Q502 49 472 31T396 2T310 -8Q170 -8 104 79T37 352Q37 532 104 620T312 708Q357 708 399 698T467 671T493 637Q493 624 483 602T457 564T430 547Q426 547 409 554T371 567T321
573Q257 573 227 519T197 351Q197 229 225 179T310 128Q334 128 351 132V278H300Q285 278 278 290T271 328V360Q271 386 278 398T300 410H465Q484 410 493 401Z" />
<glyph unicode="H" glyph-name="H" horiz-adv-x="600" d="M57 -2T57 30V670Q57 702 115 702H157Q214 702 214 670V423H385V670Q385 702 443 702H484Q542 702 542 670V30Q542 -2 484 -2H443Q385 -2 385 30V291H214V30Q214 -2 157 -2H115Q57 -2 57 30Z" />
<glyph unicode="I" glyph-name="I" horiz-adv-x="262" d="M52 -3T52 30V670Q52 703 110 703H152Q209 703 209 670V30Q209 -3 152 -3H110Q52 -3 52 30Z" />
<glyph unicode="J" glyph-name="J" horiz-adv-x="355" d="M78 -8T43 5T8 38Q8 67 21 98T50 131Q54 131 67 128T97 125Q124 125 135 149T146 227V670Q146 703 203 703H245Q303 703 303 670V202Q303 -8 122 -8Q78 -8 43 5Z" />
<glyph unicode="K" glyph-name="K" horiz-adv-x="510" d="M522 23T522 13Q522 -2 470 -2H404Q381 -2 368 2T350 17L214 331L211 330V30Q211 -2 152 -2H112Q54 -2 54 30V670Q54 702 112 702H152Q211 702 211 670V372L215 371L350 683Q355 694 367 698T401 702H456Q511
702 511 687Q511 680 505 666L350 357L516 34Q522 23 522 13Z" />
<glyph unicode="L" glyph-name="L" horiz-adv-x="408" d="M75 0T66 9T57 40V670Q57 702 115 702H155Q213 702 213 670V131H362Q378 131 385 119T392 81V50Q392 24 385 12T362 0H94Q75 0 66 9Z" />
<glyph unicode="M" glyph-name="M" horiz-adv-x="689" d="M320 223T311 228T295 247L221 385Q215 396 209 410T200 432L196 431Q202 395 202 376V30Q202 13 189 6T144 -2H110Q79 -2 66 5T52 30V670Q52 687 65 694T110 702H141Q165 702 179 696T201 674L325 439Q335
421 344 391Q351 418 362 439L486 674Q494 689 508 695T546 702H577Q608 702 621 695T635 670V30Q635 13 622 6T577 -2H543Q512 -2 499 5T485 30V376Q485 400 492 431L488 432Q481 413 466 385L392 247Q385 234 376 229T352 223H335Q320 223 311 228Z" />
<glyph unicode="N" glyph-name="N" horiz-adv-x="590" d="M52 -2T52 30V670Q52 702 110 702H136Q156 702 168 697T188 674L368 348Q382 322 402 270L406 272Q398 324 398 351V670Q398 702 456 702H480Q538 702 538 670V30Q538 -2 480 -2H461Q441 -2 428 3T407
26L216 366Q207 381 189 430L184 427Q192 381 192 359V30Q192 -2 134 -2H110Q52 -2 52 30Z" />
<glyph unicode="O" glyph-name="O" horiz-adv-x="599" d="M38 -8T38 350Q38 708 300 708Q428 708 494 621T561 350Q561 166 495 79T300 -8Q38 -8 38 350ZM337 123T359 143T392 212T403 350Q403 437 392 486T359 556T301 576Q265 576 243 556T209 487T197 350Q197
263 208 213T242 143T301 123Q337 123 359 143Z" />
<glyph unicode="P" glyph-name="P" horiz-adv-x="482" d="M55 -2T55 30V660Q55 681 64 690T95 700H268Q347 700 407 655T468 481Q468 393 433 345T355 279T278 262H209V30Q209 -2 149 -2H115Q55 -2 55 30ZM261 391Q284 391 301 411T318 481Q318 530 301 549T261
569H208V391H261Z" />
<glyph unicode="Q" glyph-name="Q" horiz-adv-x="599" d="M513 -159T503 -154T488 -145Q373 -76 183 16Q111 52 75 133T38 350Q38 708 300 708Q428 708 494 621T561 350Q561 100 433 26V22L572 -47Q584 -52 584 -65Q583 -74 572 -97T546 -140T517 -159Q513 -159
503 -154ZM337 121T359 141T392 212T403 350Q403 437 392 486T359 556T301 576Q265 576 243 556T209 487T197 350Q197 262 208 212T242 142T301 121Q337 121 359 141Z" />
<glyph unicode="R" glyph-name="R" horiz-adv-x="513" d="M54 -2T54 30V660Q54 681 63 690T94 700H261Q353 700 409 655T465 503Q465 386 370 334V330Q392 318 410 290T437 230L496 38Q499 26 499 26Q499 -1 437 -1H402Q349 -1 342 26L289 216Q280 238 269 247T232
256H208V30Q208 -2 148 -2H114Q54 -2 54 30ZM264 402Q286 402 301 424T317 488Q317 530 302 549T261 569H208V402H264Z" />
<glyph unicode="S" glyph-name="S" horiz-adv-x="437" d="M157 -8T109 6T39 46Q26 64 26 81Q26 109 41 138T74 167Q82 167 99 157T125 143Q164 123 194 123Q225 123 248 138T271 189Q271 216 259 235T230 266T179 296Q103 339 69 387T35 516Q35 606 92 657T245
708Q279 708 317 698T376 672Q394 659 394 637Q394 611 383 582T354 553Q346 553 325 561Q286 576 260 576Q220 576 205 559T190 520Q190 483 209 464T271 421L294 408Q363 368 393 322T424 201Q424 145 400 98T327 21T206 -8Q157 -8 109 6Z" />
<glyph unicode="T" glyph-name="T" horiz-adv-x="454" d="M148 -2T148 30V569H37Q22 569 15 581T8 619V650Q8 676 15 688T37 700H417Q433 700 440 688T447 650V619Q447 593 440 581T417 569H305V30Q305 -2 247 -2H206Q148 -2 148 30Z" />
<glyph unicode="U" glyph-name="U" horiz-adv-x="583" d="M179 -8T115 48T51 205V670Q51 702 109 702H149Q207 702 207 670V215Q207 174 230 149T292 123Q330 123 353 149T377 215V670Q377 702 435 702H474Q532 702 532 670V205Q532 104 469 48T292 -8Q179 -8 115 48Z" />
<glyph unicode="V" glyph-name="V" horiz-adv-x="508" d="M165 -2T160 19L8 662Q4 676 4 680Q4 702 62 702H100Q150 702 155 673L240 221L249 152H253L262 221L352 673Q357 702 407 702H444Q501 702 501 680Q501 673 498 662L346 19Q341 -2 293 -2H213Q165 -2 160 19Z" />
<glyph unicode="W" glyph-name="W" horiz-adv-x="752" d="M161 -2T150 3T137 19L6 661Q5 665 5 669T6 676Q6 702 65 702H94Q154 702 158 671L205 302L214 230L223 152L241 273Q245 293 246 302L307 681Q309 693 319 697T354 702H404Q428 702 438 698T451 681L511
302L533 149L547 256L553 302L601 671Q605 702 665 702H688Q747 702 747 676Q747 667 746 661L613 19Q609 -2 566 -2H500Q460 -2 455 19L387 372L376 479L364 372L295 19Q291 -2 250 -2H184Q161 -2 150 3Z" />
<glyph unicode="X" glyph-name="X" horiz-adv-x="506" d="M8 -2T8 17Q8 23 16 42L161 365L35 658Q26 676 26 683Q26 692 41 697T86 702H133Q156 702 170 698T187 683L257 447L333 682Q337 694 350 698T389 702H436Q495 702 495 683Q495 676 487 658L351 363L488
42Q490 37 493 30T496 17Q496 -2 437 -2H394Q345 -2 339 17L257 272L167 18Q162 4 151 1T112 -2H67Q8 -2 8 17Z" />
<glyph unicode="Y" glyph-name="Y" horiz-adv-x="484" d="M164 -2T164 30V302L10 657Q1 675 1 682Q1 691 16 696T61 702H112Q161 702 167 683L245 437L322 683Q325 694 339 698T377 702H419Q482 702 482 682Q482 676 475 657L321 299V30Q320 14 306 6T262 -2H223Q164
-2 164 30Z" />
<glyph unicode="Z" glyph-name="Z" horiz-adv-x="507" d="M49 0T36 33T23 89Q23 97 24 99L278 569H73Q58 569 52 581T45 619V650Q45 676 51 688T73 700H438Q450 700 462 666T475 608Q475 605 476 604T476 600L223 131H448Q463 131 470 119T477 81V50Q477 24 470
12T448 0H62Q49 0 36 33Z" />
<glyph unicode="[" glyph-name="bracketleft" horiz-adv-x="239" d="M66 -138T57 -129T48 -98V728Q48 749 57 758T85 768H191Q207 768 213 759T220 728V713Q220 692 214 683T191 673H161V-43H191Q207 -43 213 -52T220 -83V-98Q220 -119 214 -128T191 -138H85Q66
-138 57 -129Z" />
<glyph unicode="\" glyph-name="backslash" horiz-adv-x="289" d="M168 -22T161 9L3 652Q-1 679 -1 679Q1 702 37 702H73Q113 702 120 671L279 35Q284 3 284 1Q284 -10 275 -16T247 -22H208Q168 -22 161 9Z" />
<glyph unicode="]" glyph-name="bracketright" horiz-adv-x="239" d="M34 -138T27 -129T20 -98V-83Q20 -62 27 -53T49 -43H80V673H49Q34 673 27 682T20 713V728Q20 749 27 758T49 768H155Q174 768 183 759T192 728V-98Q192 -119 183 -128T155 -138H49Q34 -138 27 -129Z" />
<glyph unicode="^" glyph-name="asciicircum" horiz-adv-x="360" d="M19 318T19 333Q19 339 22 348L128 656Q138 686 165 686H196Q223 686 233 656L339 348Q342 339 342 333Q342 318 314 318H289Q250 318 240 348L180 555L120 348Q111 318 73 318H47Q19 318 19 333Z" />
<glyph unicode="_" glyph-name="underscore" horiz-adv-x="427" d="M-2 -143T-9 -131T-16 -93V-86Q-16 -60 -9 -48T13 -36H415Q430 -36 437 -48T444 -86V-93Q444 -119 437 -131T415 -143H13Q-2 -143 -9 -131Z" />
<glyph unicode="`" glyph-name="grave" horiz-adv-x="256" d="M160 575T145 582T122 600L71 664Q50 690 42 702T33 720Q33 728 46 731T87 734Q152 734 167 707Q194 656 208 627T222 590Q222 581 216 578T193 575Q160 575 145 582Z" />
<glyph unicode="a" glyph-name="a" horiz-adv-x="481" d="M109 -8T74 34T38 149Q38 336 271 335V351Q271 383 257 398T210 414Q188 414 171 409T133 393Q119 385 112 385Q102 385 90 400T69 434T60 465Q60 482 83 497T144 522T221 531Q325 531 372 485T419 358V176Q419
130 421 106T428 53Q431 40 431 31Q431 15 391 7T319 -1Q303 -1 297 11T283 50Q270 28 242 10T175 -8Q109 -8 74 34ZM236 99T249 108T271 132V249Q171 249 171 160Q171 132 184 116T220 99Q236 99 249 108Z" />
<glyph unicode="b" glyph-name="b" horiz-adv-x="482" d="M261 -8T231 11T185 62L177 24Q173 9 160 4T122 -2H110Q50 -2 50 30V722Q50 754 110 754H138Q198 754 198 722V501Q232 531 281 531Q360 531 403 461T447 260Q447 133 406 63T295 -8Q261 -8 231 11ZM273
113T285 146T297 261Q297 348 284 381T240 414Q217 414 198 399V147Q219 113 246 113Q273 113 285 146Z" />
<glyph unicode="c" glyph-name="c" horiz-adv-x="408" d="M34 -8T34 260Q34 531 250 531Q286 531 319 522T374 496T395 462Q395 444 380 415T350 386Q344 386 331 394Q313 403 299 408T266 414Q225 414 205 379T185 262Q185 180 204 145T263 109Q281 109 296 114T321
124T334 130Q348 137 352 137Q367 137 381 109T396 61Q396 42 371 26T311 1T246 -8Q34 -8 34 260Z" />
<glyph unicode="d" glyph-name="d" horiz-adv-x="481" d="M141 -8T108 23T55 116T35 264Q35 392 79 461T202 531Q251 531 284 502V722Q284 754 344 754H372Q432 754 432 722V176Q432 130 434 106T441 53Q444 40 444 31Q444 15 404 7T332 -1Q312 -1 305 15T291
62Q276 31 248 12T185 -8Q141 -8 108 23ZM264 113T284 153V400Q264 414 243 414Q213 414 199 379T185 261Q185 183 197 148T235 113Q264 113 284 153Z" />
<glyph unicode="e" glyph-name="e" horiz-adv-x="454" d="M144 -8T89 59T34 258Q34 406 88 468T242 531Q340 531 384 462T428 262Q428 250 408 227T377 203H187Q189 152 210 131T267 109Q289 109 307 115T342 129T363 138Q373 138 385 124T406 91T415 62Q415 39
388 24T325 0T260 -8Q144 -8 89 59ZM293 292Q293 363 281 393T241 424Q214 424 200 395T181 292H293Z" />
<glyph unicode="f" glyph-name="f" horiz-adv-x="286" d="M65 -2T65 30V406H53Q37 406 30 418T23 456V473Q23 499 30 511T53 523H65V598Q65 760 206 760Q238 760 270 748T303 710Q303 704 299 686T288 653T272 638Q269 638 259 640T244 643Q228 643 221 633T213
600V523H246Q262 523 269 511T276 473V456Q276 430 269 418T246 406H213V30Q213 -2 153 -2H125Q65 -2 65 30Z" />
<glyph unicode="g" glyph-name="g" horiz-adv-x="471" d="M133 -212T84 -179T35 -79Q35 2 111 39V42Q91 54 81 73T70 118Q70 169 118 203Q46 246 46 352Q46 442 95 486T228 531Q259 531 293 523H423Q437 523 443 512T450 478V462Q450 440 445 430T427 419Q409
419 393 423L391 419Q399 407 403 389T408 349Q408 268 364 225T245 179Q197 177 197 144Q197 123 215 115T275 98Q299 94 312 91Q369 78 402 48T436 -45Q436 -123 380 -167T226 -212Q133 -212 84 -179ZM252 276T267 293T283 354Q283 433 226 433Q170 433 170 354Q170
310 185 293T226 276Q252 276 267 293ZM276 -106T294 -93T313 -54Q313 -35 300 -25T267 -9T199 3Q182 -7 172 -22T162 -56Q162 -81 182 -93T239 -106Q276 -106 294 -93Z" />
<glyph unicode="h" glyph-name="h" horiz-adv-x="485" d="M51 -2T51 30V722Q51 754 109 754H143Q201 754 201 722V463Q223 493 254 512T326 531Q381 531 410 496T439 392V30Q439 -2 381 -2H347Q289 -2 289 30V358Q289 384 280 396T250 409Q222 409 201 377V30Q201
-2 143 -2H109Q51 -2 51 30Z" />
<glyph unicode="i" glyph-name="i" horiz-adv-x="254" d="M60 578T60 610V670Q60 702 127 702Q197 702 197 670V610Q197 578 130 578Q60 578 60 610ZM53 -2T53 30V493Q53 525 113 525H141Q201 525 201 493V30Q201 -2 141 -2H113Q53 -2 53 30Z" />
<glyph unicode="j" glyph-name="j" horiz-adv-x="249" d="M60 578T60 610V670Q60 702 127 702Q197 702 197 670V610Q197 578 130 578Q60 578 60 610ZM17 -212T-7 -201T-32 -161Q-32 -139 -24 -115T-1 -91Q4 -91 13 -93T29 -95Q42 -95 47 -85T53 -52V493Q53 525
113 525H141Q201 525 201 493V-50Q201 -129 164 -170T67 -212Q17 -212 -7 -201Z" />
<glyph unicode="k" glyph-name="k" horiz-adv-x="452" d="M447 21T447 14Q447 -2 395 -2H339Q320 -2 313 2T300 17L211 246H200V30Q200 -2 142 -2H110Q52 -2 52 30V722Q52 754 110 754H142Q200 754 200 722V306H205L290 506Q296 519 302 522T329 525H381Q435 525
435 508Q435 502 428 487L334 274L441 34Q447 21 447 14Z" />
<glyph unicode="l" glyph-name="l" horiz-adv-x="270" d="M50 -8T50 144V722Q50 754 110 754H138Q198 754 198 722V142Q198 125 203 117T222 109Q226 109 233 111T244 113Q257 113 265 87T273 39Q273 15 244 4T179 -8Q50 -8 50 144Z" />
<glyph unicode="m" glyph-name="m" horiz-adv-x="720" d="M615 531T643 496T671 392V30Q671 -2 613 -2H579Q521 -2 521 30V358Q521 384 513 396T484 409Q458 409 435 382V30Q435 -2 377 -2H343Q285 -2 285 30V358Q285 384 277 396T248 409Q222 409 199 377V30Q199
14 185 6T142 -2H107Q50 -2 50 30V349Q50 420 45 450T40 487Q40 505 82 513T155 522Q174 522 180 511T188 483T193 455Q216 488 248 509T324 531Q403 531 425 461Q447 491 481 511T560 531Q615 531 643 496Z" />
<glyph unicode="n" glyph-name="n" horiz-adv-x="482" d="M50 -2T50 30V349Q50 420 45 450T40 487Q40 505 82 513T155 522Q174 522 180 511T188 483T193 455Q215 488 248 509T324 531Q379 531 407 496T436 392V30Q436 -2 378 -2H344Q286 -2 286 30V358Q286 384
278 396T249 409Q222 409 199 377V30Q199 14 185 6T142 -2H107Q50 -2 50 30Z" />
<glyph unicode="o" glyph-name="o" horiz-adv-x="477" d="M138 -8T86 61T34 262Q34 393 85 462T238 531Q339 531 391 462T443 262Q443 131 391 62T238 -8Q138 -8 86 61ZM268 109T280 143T293 262Q293 346 281 380T239 414Q209 414 197 380T184 262Q184 178 196
144T239 109Q268 109 280 143Z" />
<glyph unicode="p" glyph-name="p" horiz-adv-x="484" d="M52 -206T52 -174V347Q52 393 50 416T43 469Q40 483 40 490Q40 506 80 514T152 522Q172 522 179 506T193 461Q208 492 236 511T299 531Q343 531 376 500T429 407T449 259Q449 131 405 62T282 -8Q233 -8
200 21V-174Q200 -206 140 -206H112Q52 -206 52 -174ZM271 109T285 144T299 262Q299 340 287 375T249 410Q220 410 200 370V123Q220 109 241 109Q271 109 285 144Z" />
<glyph unicode="q" glyph-name="q" horiz-adv-x="481" d="M286 -206T286 -174V22Q252 -8 204 -8Q123 -8 79 62T35 263Q35 390 77 460T189 531Q224 531 254 512T299 461L308 499Q312 514 324 519T362 525H374Q434 525 434 493V-174Q434 -206 374 -206H346Q286 -206
286 -174ZM267 109T286 124V376Q265 410 238 410Q210 410 198 377T185 262Q185 175 199 142T244 109Q267 109 286 124Z" />
<glyph unicode="r" glyph-name="r" horiz-adv-x="337" d="M55 -2T55 30V349Q55 393 53 416T46 469Q43 483 43 490Q43 506 83 514T155 522Q173 522 180 508T190 478T195 455Q209 490 227 510T275 531Q305 531 316 515T327 477Q327 455 320 421T301 387Q295 387
280 391T254 395Q235 395 222 381T203 345V30Q203 -2 143 -2H115Q55 -2 55 30Z" />
<glyph unicode="s" glyph-name="s" horiz-adv-x="353" d="M111 -8T67 10T22 57Q22 78 41 109T76 140Q80 140 93 132T119 119T147 113Q166 113 177 123T188 151Q188 174 173 187T123 221Q80 247 55 278T29 370Q29 445 74 488T194 531Q240 531 282 517T324 473Q324
453 310 423T283 392Q280 392 260 401T219 410Q178 410 178 376Q178 357 190 345T230 318L253 304Q292 279 314 247T337 161Q337 86 291 39T163 -8Q111 -8 67 10Z" />
<glyph unicode="t" glyph-name="t" horiz-adv-x="298" d="M123 -8T91 30T58 148V406H47Q31 406 24 418T17 456V473Q17 499 24 511T47 523H58L71 618Q76 650 125 650H156Q206 650 206 618V523H243Q259 523 266 511T273 473V456Q273 430 266 418T243 406H206V144Q206
126 211 118T230 109Q235 109 243 111T257 113Q269 113 278 85T287 42Q287 17 253 5T183 -8Q123 -8 91 30Z" />
<glyph unicode="u" glyph-name="u" horiz-adv-x="482" d="M105 -9T76 26T46 130V493Q46 525 104 525H138Q196 525 196 493V163Q196 138 204 126T233 113Q260 113 283 145V493Q283 509 297 517T340 525H375Q432 525 432 493V174Q432 103 437 72T442 34Q442 16 400
8T327 0Q308 0 302 11T294 39T289 67Q267 34 236 13T163 -9Q105 -9 76 26Z" />
<glyph unicode="v" glyph-name="v" horiz-adv-x="412" d="M131 -2T126 19L7 485Q5 492 5 503Q5 525 57 525H101Q150 525 154 504L189 282Q194 255 200 191L206 138H210L216 193Q218 210 220 233T227 282L262 504Q266 525 315 525H355Q407 525 407 503Q407 492
405 485L286 19Q281 -2 234 -2H178Q131 -2 126 19Z" />
<glyph unicode="w" glyph-name="w" horiz-adv-x="616" d="M142 -2T133 3T121 19L15 484Q14 490 14 499Q14 525 75 525Q146 525 147 504L173 257L183 146H187Q193 204 203 262L245 504Q246 514 260 519T297 525H323Q344 525 359 520T375 504L417 260Q424 221 432
146H436Q438 160 439 175T441 202L446 257L473 504Q476 525 540 525Q601 525 601 499Q601 490 600 484L496 19Q493 -2 455 -2H423Q401 -2 392 3T381 19L318 282Q315 307 314 321Q312 351 310 359H306Q303 334 302 321Q300 290 298 282L236 19Q234 8 225 3T195 -2H162Q142
-2 133 3Z" />
<glyph unicode="x" glyph-name="x" horiz-adv-x="404" d="M0 0T0 16Q0 21 9 41L128 265L15 481Q6 499 6 507Q6 515 21 520T65 525H102Q128 525 141 522T158 506L194 377L203 342Q212 378 212 378L249 506Q253 519 266 522T305 525H341Q370 525 385 520T400 507Q400
499 391 481L276 265L393 41Q403 23 403 16Q403 0 366 0H304Q275 0 264 2T249 17L210 157L201 189L193 157L152 17Q148 4 137 2T98 0H27Q0 0 0 16Z" />
<glyph unicode="y" glyph-name="y" horiz-adv-x="408" d="M404 525T404 503Q404 499 402 485L232 -185Q227 -206 177 -206H157Q101 -206 101 -185Q101 -178 104 -167L161 43Q147 43 138 47T126 64L10 480Q6 498 6 502Q6 525 56 525H99Q122 525 134 521T150 502L187
299Q193 263 203 187H207Q212 222 214 232Q220 280 224 299L264 504Q268 525 317 525H346Q404 525 404 503Z" />
<glyph unicode="z" glyph-name="z" horiz-adv-x="405" d="M42 0T33 27T24 76Q24 84 26 90L196 406H64Q49 406 42 418T35 456V473Q35 499 42 511T64 523H349Q356 523 366 495T376 446Q376 437 373 431L203 117H352Q367 117 374 105T381 67V50Q381 24 374 12T352
0H51Q42 0 33 27Z" />
<glyph unicode="{" glyph-name="braceleft" horiz-adv-x="249" d="M132 -138T105 -106T77 -22V163Q77 205 69 227T41 259Q26 268 19 279T12 309V321Q12 340 19 351T41 371Q60 381 68 403T77 467V652Q77 703 104 735T176 768H215Q231 768 238 759T245 728V714Q245
675 219 674H221Q205 674 199 666T192 638V451Q192 401 178 366T135 315Q163 299 177 264T192 179V-8Q192 -44 216 -44H217Q231 -45 238 -54T245 -84V-98Q245 -119 238 -128T215 -138H176Q132 -138 105 -106Z" />
<glyph unicode="|" glyph-name="bar" horiz-adv-x="200" d="M66 -138T54 -131T41 -108V738Q41 754 53 761T94 768H108Q136 768 148 761T161 738V-108Q161 -124 149 -131T108 -138H94Q66 -138 54 -131Z" />
<glyph unicode="}" glyph-name="braceright" horiz-adv-x="249" d="M27 -138T20 -129T13 -98V-84Q13 -64 20 -55T41 -44H42Q66 -44 66 -8V179Q66 229 80 264T123 315Q95 331 81 366T66 451V638Q66 658 60 666T38 674H39Q13 675 13 714V728Q13 749 20 758T43 768H82Q126
768 153 736T181 652V467Q181 425 189 403T217 371Q232 362 239 351T246 321V309Q246 290 239 279T217 259Q197 249 189 227T181 163V-22Q181 -73 154 -105T82 -138H43Q27 -138 20 -129Z" />
<glyph unicode="~" glyph-name="asciitilde" horiz-adv-x="437" d="M62 218Q48 221 42 228T35 244Q35 251 40 260Q53 290 80 309T146 329Q170 329 224 313Q232 311 251 306T283 300Q291 300 297 303T313 316Q328 333 346 333Q352 333 362 331L375 328Q401 321
401 302Q401 299 398 287Q385 257 357 237T291 217Q268 217 214 233Q206 235 186 240T153 246Q137 246 123 230Q108 213 91 213Q85 213 75 215L62 218Z" />
<glyph unicode="&#xa0;" glyph-name="uni00A0" horiz-adv-x="137" />
<glyph unicode="&#xa1;" glyph-name="exclamdown" horiz-adv-x="246" d="M55 369T55 401V493Q55 525 113 525H146Q204 525 204 493V401Q204 369 146 369H113Q55 369 55 401ZM52 -180T37 -173T21 -152Q21 -138 63 193L73 268Q76 286 84 293T123 300H132Q162 300
172 293T183 268V-148Q183 -180 125 -180H79Q52 -180 37 -173Z" />
<glyph unicode="&#xa2;" glyph-name="cent" horiz-adv-x="440" d="M396 35T353 16T262 -7V-48Q262 -78 236 -78Q221 -78 214 -71T207 -48V-6Q34 18 34 260Q34 503 207 528V557Q207 587 233 587Q248 587 255 580T262 557V531Q315 528 355 508T395 462Q395 444 380
415T350 386Q344 386 331 394Q313 403 299 408T266 414H262V109H263Q281 109 296 114T321 124T334 130Q348 137 352 137Q367 137 381 109T396 61Q396 35 353 16ZM185 174T207 139V382Q185 347 185 262Q185 174 207 139Z" />
<glyph unicode="&#xa3;" glyph-name="sterling" horiz-adv-x="411" d="M26 0T17 9T7 40V59Q7 71 14 79T38 101Q60 119 71 134T83 175V311H50Q34 311 27 323T20 361V378Q20 404 27 416T50 428H83V502Q83 708 284 708Q321 708 352 698T383 663Q383 637 370 613T343
588Q341 588 323 592T290 596Q259 596 244 575T228 507V428H296Q312 428 319 416T326 378V361Q326 335 319 323T296 311H228V251Q228 158 187 117H364Q380 117 387 105T394 67V50Q394 24 387 12T364 0H47Q26 0 17 9Z" />
<glyph unicode="&#xa4;" glyph-name="currency" d="M86 72T74 84L44 114Q32 126 32 139Q32 152 44 164L71 191Q50 239 50 289Q50 344 73 390L41 422Q29 434 29 447Q29 460 41 472L71 502Q83 514 96 514Q109 514 121 502L147 476Q185 500 227 500Q271 500 310 475L336
502Q348 514 361 514Q374 514 386 502L416 472Q428 460 428 447Q428 434 416 422L382 388Q404 341 404 289Q404 242 384 194L413 164Q425 152 425 139Q425 126 413 114L383 84Q371 72 358 72Q345 72 333 84L313 105Q274 78 227 78Q182 78 143 103L124 84Q112 72
99 72Q86 72 74 84ZM254 192T271 217T289 289Q289 336 272 361T227 386Q199 386 182 361T164 289Q164 242 181 217T227 192Q254 192 271 217Z" />
<glyph unicode="&#xa5;" glyph-name="yen" horiz-adv-x="470" d="M482 676T475 657L361 392H413Q428 392 435 385T442 362V347Q442 316 413 316H328L321 299V253H413Q428 253 435 246T442 223V208Q442 192 435 185T413 178H321V30Q320 14 306 6T262 -2H223Q164
-2 164 30V178H60Q45 178 38 185T31 208V223Q31 239 38 246T60 253H164V302L158 317H60Q45 317 38 324T31 347V362Q31 378 38 385T60 392H125L10 657Q1 675 1 682Q1 691 16 696T61 702H112Q161 702 167 683L245 437L322 683Q325 694 339 698T377 702H419Q482 702
482 682Q482 676 475 657Z" />
<glyph unicode="&#xa6;" glyph-name="brokenbar" horiz-adv-x="200" d="M41 380T41 412V738Q41 770 94 770H108Q136 770 148 762T161 738V412Q161 396 149 388T108 380H94Q41 380 41 412ZM41 -140T41 -108V218Q41 250 94 250H108Q136 250 148 242T161 218V-108Q161
-124 149 -132T108 -140H94Q41 -140 41 -108Z" />
<glyph unicode="&#xa7;" glyph-name="section" horiz-adv-x="355" d="M115 -8T71 8T27 55Q27 74 45 105T76 137Q80 137 99 125T140 113Q180 113 180 141Q180 156 168 165T129 188L111 197Q68 220 42 255T15 349Q15 420 63 462Q26 501 26 559Q26 628 71 667T192
707Q235 707 278 693T321 647Q321 630 307 599T280 568Q277 568 258 577T217 587Q197 587 186 580T175 560Q175 545 187 536T216 519T240 507Q284 484 312 450T340 356Q340 321 328 291T292 241Q329 202 329 145Q329 77 284 35T160 -8Q115 -8 71 8ZM217 319T217
338Q217 362 201 374T154 398Q139 386 139 364Q139 340 155 328T202 304Q217 319 217 338Z" />
<glyph unicode="&#xa8;" glyph-name="dieresis" horiz-adv-x="256" d="M-9 578T-9 610V670Q-9 702 47 702Q105 702 105 670V610Q105 578 49 578Q-9 578 -9 610ZM153 578T153 610V670Q153 702 209 702Q267 702 267 670V610Q267 578 211 578Q153 578 153 610Z" />
<glyph unicode="&#xa9;" glyph-name="copyright" horiz-adv-x="592" d="M215 -8T151 32T48 154T10 350Q10 465 48 546T150 667T296 708Q377 708 441 668T543 546T581 350Q581 235 544 154T442 33T296 -8Q215 -8 151 32ZM358 56T407 88T486 186T515 350Q515 447
486 513T408 612T296 644Q234 644 184 612T105 514T76 350Q76 253 105 187T184 88T296 56Q358 56 407 88ZM231 152T196 201T161 353Q161 552 306 552Q337 552 369 541T401 513Q401 500 388 480T365 460Q363 460 349 469T304 478Q248 478 248 353Q248 225 304 225Q332
225 350 236T371 248Q384 248 394 229T404 199Q404 184 386 173T343 157T304 152Q231 152 196 201Z" />
<glyph unicode="&#xaa;" glyph-name="ordfeminine" horiz-adv-x="281" d="M57 439T37 460T17 517Q17 605 154 605V607Q154 630 123 630Q100 630 79 623T55 616Q46 616 37 639T28 675Q28 689 57 699T128 709Q188 709 218 683T248 614V531Q248 495 251 479T254 460Q254
451 228 447T180 443Q171 443 168 448T160 466Q152 456 135 448T92 439Q57 439 37 460ZM145 503T154 519V552Q108 552 108 524Q108 503 128 503Q145 503 154 519Z" />
<glyph unicode="&#xab;" glyph-name="guillemotleft" horiz-adv-x="405" d="M143 47T134 61L32 214Q17 235 17 258Q17 281 32 302L134 455Q143 469 157 469Q173 469 194 456T215 426Q215 417 207 404L116 258L207 112Q215 99 215 89Q215 74 195 61T157 47Q143
47 134 61ZM314 47T305 61L204 214Q196 226 193 235T189 258Q189 271 192 280T204 302L305 455Q314 469 329 469Q345 469 366 456T387 426Q387 417 379 404L289 258L379 112Q387 99 387 89Q387 74 367 61T329 47Q314 47 305 61Z" />
<glyph unicode="&#xac;" glyph-name="logicalnot" horiz-adv-x="449" d="M315 72T315 104V242H49Q34 242 27 254T20 292V299Q20 325 27 337T49 349H391Q410 349 419 340T428 309V104Q428 72 391 72H351Q315 72 315 104Z" />
<glyph unicode="&#xad;" glyph-name="uni00AD" horiz-adv-x="256" d="M29 212T22 224T15 262V269Q15 295 22 307T44 319H211Q226 319 233 307T240 269V262Q240 236 233 224T211 212H44Q29 212 22 224Z" />
<glyph unicode="&#xae;" glyph-name="registered" horiz-adv-x="591" d="M215 -8T151 32T48 154T10 350Q10 465 48 546T150 667T296 708Q377 708 441 668T543 546T581 350Q581 235 544 154T442 33T296 -8Q215 -8 151 32ZM358 56T407 88T486 186T515 350Q515 447
486 513T408 612T296 644Q234 644 184 612T105 514T76 350Q76 253 105 187T184 88T296 56Q358 56 407 88ZM188 156T188 174V526Q188 548 208 548H300Q358 548 384 522T410 443Q410 412 396 389T358 354V350Q364 344 373 331T387 302L426 178Q428 168 428 167Q428
156 398 156H371Q345 156 341 168L305 277Q300 298 296 304T276 310H274V174Q274 156 242 156H220Q188 156 188 174ZM304 384Q311 384 317 398T323 432Q323 452 317 463T301 475H274V384H304Z" />
<glyph unicode="&#xaf;" glyph-name="overscore" horiz-adv-x="255" d="M16 597T9 606T2 637V652Q2 673 9 682T31 692H222Q238 692 244 683T251 652V637Q251 616 245 607T222 597H31Q16 597 9 606Z" />
<glyph unicode="&#xb0;" glyph-name="degree" horiz-adv-x="276" d="M90 443T61 476T31 575Q31 641 60 674T137 708Q184 708 213 675T243 575Q243 509 214 476T137 443Q90 443 61 476ZM154 505T165 522T177 575Q177 610 166 628T136 646Q118 646 107 628T95 575Q95
540 106 523T136 505Q154 505 165 522Z" />
<glyph unicode="&#xb1;" glyph-name="plusminus" horiz-adv-x="449" d="M189 130T178 137T166 160V312H54Q41 312 36 323T30 362V369Q30 396 35 407T54 419H166V573Q166 589 177 596T216 603H230Q257 603 268 596T280 573V419H396Q409 419 414 408T419 369V362Q419
335 414 324T396 312H280V160Q280 144 269 137T230 130H216Q189 130 178 137ZM45 0T40 12T34 50V57Q34 83 39 95T58 107H389Q402 107 408 95T414 57V50Q414 24 408 12T389 0H58Q45 0 40 12Z" />
<glyph unicode="&#xb2;" glyph-name="uni00B2" horiz-adv-x="280" d="M23 293T18 311T13 344Q13 351 15 353L142 538Q165 573 165 597Q165 617 152 627T118 638Q104 638 92 633T68 620T51 612Q38 612 28 626T17 653Q17 677 52 691T132 706Q190 706 221 677T252
600Q252 553 221 510L120 361H238Q247 361 251 355T255 332V322Q255 293 238 293H29Q23 293 18 311Z" />
<glyph unicode="&#xb3;" glyph-name="uni00B3" horiz-adv-x="280" d="M93 287T54 299T15 335Q15 346 24 363T44 380Q47 380 67 368T113 356Q138 356 152 371T167 413Q167 443 152 458T103 473H82Q65 473 65 502V513Q65 542 82 542H98Q124 542 139 555T154 591Q154
613 143 625T110 638Q88 638 74 629T56 620Q48 620 38 636T27 665Q27 686 57 697T132 708Q182 708 212 680T242 605Q242 575 228 553T187 519V517Q221 504 238 477T255 412Q255 354 222 321T133 287Q93 287 54 299Z" />
<glyph unicode="&#xb4;" glyph-name="acute" horiz-adv-x="256" d="M45 575T39 578T33 590Q33 596 39 610T58 646L89 707Q103 734 168 734Q196 734 209 731T222 720Q222 714 215 704T190 672Q181 660 168 643T134 600Q125 588 110 582T62 575Q45 575 39 578Z" />
<glyph unicode="&#xb5;" glyph-name="uni00B5" horiz-adv-x="453" d="M403 100T410 53Q412 35 412 31Q412 15 369 7T294 -1Q278 -1 272 12T264 43T260 68Q250 45 230 27T184 -1V-174Q184 -206 127 -206H92Q34 -206 34 -174V493Q34 525 92 525H127Q184 525 184
493V176Q184 143 189 129T212 114Q232 114 242 132T253 172V493Q253 525 311 525H345Q403 525 403 493V176Q403 100 410 53Z" />
<glyph unicode="&#xb6;" glyph-name="paragraph" horiz-adv-x="466" d="M216 -171T209 -164T202 -141V213Q125 224 77 286T29 456Q29 577 84 638T227 700H425Q441 700 448 693T455 668V667Q455 652 448 645T425 638H404V-141Q404 -156 397 -163T374 -171H372Q356
-171 349 -164T342 -141V638H264V-141Q264 -156 257 -163T234 -171H232Q216 -171 209 -164Z" />
<glyph unicode="&#xb7;" glyph-name="middot" horiz-adv-x="214" d="M83 289T64 307T45 359Q45 392 64 410T113 429Q143 429 162 411T181 359Q181 326 162 308T113 289Q83 289 64 307Z" />
<glyph unicode="&#xb8;" glyph-name="cedilla" horiz-adv-x="256" d="M190 -53T207 -71T225 -122Q225 -166 197 -189T121 -212Q78 -212 47 -197T15 -160Q15 -142 26 -130T47 -118Q56 -118 72 -127Q74 -128 86 -133T112 -139Q132 -139 132 -123Q132 -115 127 -111T109
-101Q97 -96 91 -92T85 -79Q85 -71 106 -12L114 10H178L161 -48Q190 -53 207 -71Z" />
<glyph unicode="&#xb9;" glyph-name="uni00B9" horiz-adv-x="280" d="M104 293T104 312V624L39 612Q28 612 24 628T20 662Q20 676 34 679L171 704Q176 704 184 700T192 690V312Q192 302 185 298T158 293H139Q104 293 104 312Z" />
<glyph unicode="&#xba;" glyph-name="ordmasculine" horiz-adv-x="292" d="M87 439T55 474T23 574Q23 639 54 674T146 709Q206 709 237 674T269 574Q269 509 237 474T146 439Q87 439 55 474ZM162 518T168 530T174 574Q174 605 168 617T147 630Q132 630 125 618T118
574Q118 543 125 531T147 518Q162 518 168 530Z" />
<glyph unicode="&#xbb;" glyph-name="guillemotright" horiz-adv-x="405" d="M66 47T45 60T24 89Q24 99 32 112L122 258L32 404Q24 417 24 426Q24 442 45 455T82 469Q97 469 106 455L207 302Q215 290 218 281T222 258Q222 245 219 236T207 214L106 61Q97 47 82
47Q66 47 45 60ZM238 47T217 60T196 89Q196 99 204 112L296 258L204 404Q196 417 196 426Q196 442 217 455T254 469Q269 469 277 455L379 302Q394 281 394 258Q394 235 379 214L277 61Q269 47 254 47Q238 47 217 60Z" />
<glyph unicode="&#xbc;" glyph-name="onequarter" horiz-adv-x="586" d="M104 293T104 312V624L39 612Q28 612 24 628T20 662Q20 676 34 679L171 704Q176 704 184 700T192 690V312Q192 302 185 298T158 293H139Q104 293 104 312ZM120 0T120 11Q120 14 126 26L391
674Q401 700 433 700H449Q469 700 469 689Q469 688 465 674L198 27Q187 0 156 0H140Q120 0 120 11ZM444 -2T444 17V82H324Q317 82 310 102T302 136Q302 141 304 143L429 396Q434 405 442 407T466 410H496Q531 410 531 391V151H547Q556 151 560 144T564 121V111Q564
82 547 82H531V17Q531 7 523 3T496 -2H480Q444 -2 444 17ZM444 151V207Q444 241 450 287L447 288L383 151H444Z" />
<glyph unicode="&#xbd;" glyph-name="onehalf" horiz-adv-x="641" d="M104 293T104 312V624L39 612Q28 612 24 628T20 662Q20 676 34 679L171 704Q176 704 184 700T192 690V312Q192 302 185 298T158 293H139Q104 293 104 312ZM120 0T120 11Q120 14 126 26L391
674Q401 700 433 700H449Q469 700 469 689Q469 688 465 674L198 27Q187 0 156 0H140Q120 0 120 11ZM384 0T379 18T374 51Q374 58 376 60L503 245Q526 280 526 304Q526 324 513 334T479 345Q465 345 453 340T429 327T412 319Q399 319 389 333T378 360Q378 384 413
398T493 413Q551 413 582 384T613 307Q613 260 582 217L481 68H599Q608 68 612 62T616 39V29Q616 0 599 0H390Q384 0 379 18Z" />
<glyph unicode="&#xbe;" glyph-name="threequarters" horiz-adv-x="627" d="M93 287T54 299T15 335Q15 346 24 363T44 380Q47 380 67 368T113 356Q138 356 152 371T167 413Q167 443 152 458T103 473H82Q65 473 65 502V513Q65 542 82 542H98Q124 542 139 555T154
591Q154 613 143 625T110 638Q88 638 74 629T56 620Q48 620 38 636T27 665Q27 686 57 697T132 708Q182 708 212 680T242 605Q242 575 228 553T187 519V517Q221 504 238 477T255 412Q255 354 222 321T133 287Q93 287 54 299ZM147 0T147 11Q147 14 149 18T152 26L418
674Q429 700 460 700H476Q496 700 496 689Q496 686 491 674L225 27Q214 0 183 0H167Q147 0 147 11ZM471 -2T471 17V82H351Q344 82 337 102T329 136Q329 141 331 143L456 396Q461 405 469 407T493 410H523Q558 410 558 391V151H574Q583 151 587 144T591 121V111Q591
82 574 82H558V17Q558 7 550 3T523 -2H507Q471 -2 471 17ZM471 151V207Q471 241 477 287L474 288L410 151H471Z" />
<glyph unicode="&#xbf;" glyph-name="questiondown" horiz-adv-x="391" d="M306 525T306 493V401Q306 369 246 369H214Q154 369 154 401V493Q154 525 214 525H246Q306 525 306 493ZM270 301T281 295T293 272Q293 230 279 193T236 119L214 93Q186 60 174 40T161
3Q161 -53 226 -53Q246 -53 262 -47T293 -31T313 -22Q326 -22 340 -37T365 -73T376 -104Q376 -129 350 -147T284 -175T206 -185Q114 -185 60 -141T5 -16Q5 24 16 53T44 102T90 150Q124 182 143 209T168 274Q172 289 184 295T221 301H244Q270 301 281 295Z" />
<glyph unicode="&#xc0;" glyph-name="Agrave" horiz-adv-x="505" d="M235 752T220 759T197 777L146 841Q125 867 117 879T108 897Q108 905 121 908T162 911Q227 911 242 884Q269 833 283 804T297 767Q297 758 291 755T268 752Q235 752 220 759ZM2 -2T2 20Q2 28
5 38L159 674Q166 702 220 702H285Q340 702 347 674L501 38Q503 24 503 20Q503 -2 460 -2H407Q359 -2 354 19L328 141H176L149 19Q145 -2 102 -2H50Q2 -2 2 20ZM311 263L266 475Q259 511 254 551H249Q244 511 237 475L193 263H311Z" />
<glyph unicode="&#xc1;" glyph-name="Aacute" horiz-adv-x="505" d="M215 752T209 755T203 767Q203 773 209 787T228 823L259 884Q273 911 338 911Q366 911 379 908T392 897Q392 891 385 881T360 849Q351 837 338 820T304 777Q295 765 280 759T232 752Q215 752
209 755ZM2 -2T2 20Q2 28 5 38L159 674Q166 702 220 702H285Q340 702 347 674L501 38Q503 24 503 20Q503 -2 460 -2H407Q359 -2 354 19L328 141H176L149 19Q145 -2 102 -2H50Q2 -2 2 20ZM311 263L266 475Q259 511 254 551H249Q244 511 237 475L193 263H311Z" />
<glyph unicode="&#xc2;" glyph-name="Acircumflex" horiz-adv-x="505" d="M128 749T128 759Q128 764 135 776L194 876Q202 888 215 891T251 895H253Q276 895 289 892T310 876L370 776Q377 764 377 759Q377 749 357 749H329Q288 749 278 767L252 813L226 768Q214
749 176 749H149Q128 749 128 759ZM2 -2T2 20Q2 28 5 38L159 674Q166 702 220 702H285Q340 702 347 674L501 38Q503 24 503 20Q503 -2 460 -2H407Q359 -2 354 19L328 141H176L149 19Q145 -2 102 -2H50Q2 -2 2 20ZM311 263L266 475Q259 511 254 551H249Q244 511
237 475L193 263H311Z" />
<glyph unicode="&#xc3;" glyph-name="Atilde" horiz-adv-x="505" d="M112 760Q89 766 89 786Q89 793 93 802Q104 832 127 851T183 871Q203 871 249 855Q256 853 273 848T299 842Q312 842 325 858Q331 867 337 871T352 875Q356 875 366 873L376 870Q399 863 399
844Q399 841 396 829Q385 799 361 779T305 759Q286 759 240 775Q234 777 216 782T189 788Q175 788 164 772Q157 763 151 759T136 755Q131 755 123 757L112 760ZM2 -2T2 20Q2 28 5 38L159 674Q166 702 220 702H285Q340 702 347 674L501 38Q503 24 503 20Q503 -2
460 -2H407Q359 -2 354 19L328 141H176L149 19Q145 -2 102 -2H50Q2 -2 2 20ZM311 263L266 475Q259 511 254 551H249Q244 511 237 475L193 263H311Z" />
<glyph unicode="&#xc4;" glyph-name="Adieresis" horiz-adv-x="505" d="M116 755T116 787V847Q116 879 172 879Q230 879 230 847V787Q230 755 174 755Q116 755 116 787ZM278 755T278 787V847Q278 879 334 879Q392 879 392 847V787Q392 755 336 755Q278 755 278
787ZM2 -2T2 20Q2 28 5 38L159 674Q166 702 220 702H285Q340 702 347 674L501 38Q503 24 503 20Q503 -2 460 -2H407Q359 -2 354 19L328 141H176L149 19Q145 -2 102 -2H50Q2 -2 2 20ZM311 263L266 475Q259 511 254 551H249Q244 511 237 475L193 263H311Z" />
<glyph unicode="&#xc5;" glyph-name="Aring" horiz-adv-x="505" d="M205 727T179 754T153 826Q153 870 179 898T251 926Q297 926 323 899T350 826Q350 782 324 755T251 727Q205 727 179 754ZM269 789T279 798T289 825Q289 842 279 852T252 862Q234 862 225 852T215
825Q215 808 224 799T252 789Q269 789 279 798ZM2 -2T2 20Q2 28 5 38L159 674Q166 702 220 702H285Q340 702 347 674L501 38Q503 24 503 20Q503 -2 460 -2H407Q359 -2 354 19L328 141H176L149 19Q145 -2 102 -2H50Q2 -2 2 20ZM311 263L266 475Q259 511 254 551H249Q244
511 237 475L193 263H311Z" />
<glyph unicode="&#xc6;" glyph-name="AE" horiz-adv-x="746" d="M3 -2T3 20Q3 29 6 38L252 673Q262 700 287 700H679Q694 700 701 688T708 650V619Q708 593 701 581T679 569H451L466 424H659Q674 424 681 412T688 374V343Q688 317 681 305T659 293H483L500 131H680Q695
131 702 119T709 81V50Q709 24 702 12T680 0H393Q380 0 374 7T366 30L354 141H194L147 19Q140 -2 108 -2H62Q3 -2 3 20ZM342 273L326 454V526H322L299 455L235 273H342Z" />
<glyph unicode="&#xc7;" glyph-name="Ccedilla" horiz-adv-x="459" d="M390 140T396 140Q416 140 426 115T436 49Q436 34 430 24T407 7Q377 -3 336 -7L324 -48Q353 -53 370 -71T388 -122Q388 -166 360 -189T284 -212Q241 -212 210 -197T178 -160Q178 -142 189
-130T210 -118Q219 -118 235 -127Q237 -128 249 -133T275 -139Q295 -139 295 -123Q295 -115 290 -111T272 -101Q260 -96 254 -92T248 -79Q248 -69 271 -7Q149 3 93 90T37 352Q37 532 103 620T309 708Q356 708 396 697Q427 688 427 654Q427 616 414 586T380 563Q348
573 316 573Q256 573 227 518T197 351Q197 239 226 184T321 128Q340 128 353 130T387 139Q390 140 396 140Z" />
<glyph unicode="&#xc8;" glyph-name="Egrave" horiz-adv-x="457" d="M230 752T215 759T192 777L141 841Q120 867 112 879T103 897Q103 905 116 908T157 911Q222 911 237 884Q264 833 278 804T292 767Q292 758 286 755T263 752Q230 752 215 759ZM75 0T66 9T57 40V660Q57
681 66 690T94 700H389Q404 700 411 688T418 650V619Q418 593 411 581T389 569H213V424H369Q384 424 391 412T398 374V343Q398 317 391 305T369 293H213V131H390Q405 131 411 119T418 81V50Q418 24 412 12T390 0H94Q75 0 66 9Z" />
<glyph unicode="&#xc9;" glyph-name="Eacute" horiz-adv-x="457" d="M210 752T204 755T198 767Q198 773 204 787T223 823L254 884Q268 911 333 911Q361 911 374 908T387 897Q387 891 380 881T355 849Q346 837 333 820T299 777Q290 765 275 759T227 752Q210 752
204 755ZM75 0T66 9T57 40V660Q57 681 66 690T94 700H389Q404 700 411 688T418 650V619Q418 593 411 581T389 569H213V424H369Q384 424 391 412T398 374V343Q398 317 391 305T369 293H213V131H390Q405 131 411 119T418 81V50Q418 24 412 12T390 0H94Q75 0 66 9Z"
/>
<glyph unicode="&#xca;" glyph-name="Ecircumflex" horiz-adv-x="457" d="M123 749T123 759Q123 764 130 776L189 876Q197 888 210 891T246 895H248Q271 895 284 892T305 876L365 776Q372 764 372 759Q372 749 352 749H324Q283 749 273 767L247 813L221 768Q209
749 171 749H144Q123 749 123 759ZM75 0T66 9T57 40V660Q57 681 66 690T94 700H389Q404 700 411 688T418 650V619Q418 593 411 581T389 569H213V424H369Q384 424 391 412T398 374V343Q398 317 391 305T369 293H213V131H390Q405 131 411 119T418 81V50Q418 24 412
12T390 0H94Q75 0 66 9Z" />
<glyph unicode="&#xcb;" glyph-name="Edieresis" horiz-adv-x="457" d="M111 755T111 787V847Q111 879 167 879Q225 879 225 847V787Q225 755 169 755Q111 755 111 787ZM273 755T273 787V847Q273 879 329 879Q387 879 387 847V787Q387 755 331 755Q273 755 273
787ZM75 0T66 9T57 40V660Q57 681 66 690T94 700H389Q404 700 411 688T418 650V619Q418 593 411 581T389 569H213V424H369Q384 424 391 412T398 374V343Q398 317 391 305T369 293H213V131H390Q405 131 411 119T418 81V50Q418 24 412 12T390 0H94Q75 0 66 9Z" />
<glyph unicode="&#xcc;" glyph-name="Igrave" horiz-adv-x="262" d="M113 752T98 759T75 777L24 841Q3 867 -5 879T-14 897Q-14 905 -1 908T40 911Q105 911 120 884Q147 833 161 804T175 767Q175 758 169 755T146 752Q113 752 98 759ZM52 -3T52 30V670Q52 703
110 703H152Q209 703 209 670V30Q209 -3 152 -3H110Q52 -3 52 30Z" />
<glyph unicode="&#xcd;" glyph-name="Iacute" horiz-adv-x="262" d="M93 752T87 755T81 767Q81 773 87 787T106 823L137 884Q151 911 216 911Q244 911 257 908T270 897Q270 891 263 881T238 849Q229 837 216 820T182 777Q173 765 158 759T110 752Q93 752 87 755ZM52
-3T52 30V670Q52 703 110 703H152Q209 703 209 670V30Q209 -3 152 -3H110Q52 -3 52 30Z" />
<glyph unicode="&#xce;" glyph-name="Icircumflex" horiz-adv-x="262" d="M6 749T6 759Q6 764 13 776L72 876Q80 888 93 891T129 895H131Q154 895 167 892T188 876L248 776Q255 764 255 759Q255 749 235 749H207Q166 749 156 767L130 813L104 768Q92 749 54 749H27Q6
749 6 759ZM52 -3T52 30V670Q52 703 110 703H152Q209 703 209 670V30Q209 -3 152 -3H110Q52 -3 52 30Z" />
<glyph unicode="&#xcf;" glyph-name="Idieresis" horiz-adv-x="262" d="M-6 755T-6 787V847Q-6 879 50 879Q108 879 108 847V787Q108 755 52 755Q-6 755 -6 787ZM156 755T156 787V847Q156 879 212 879Q270 879 270 847V787Q270 755 214 755Q156 755 156 787ZM52
-3T52 30V670Q52 703 110 703H152Q209 703 209 670V30Q209 -3 152 -3H110Q52 -3 52 30Z" />
<glyph unicode="&#xd0;" glyph-name="Eth" horiz-adv-x="577" d="M414 700T475 613T537 350Q537 174 476 87T284 0H94Q75 0 66 9T57 40V291H36Q21 291 14 303T7 341V371Q7 397 14 409T36 421H57V660Q57 681 66 690T94 700H284Q414 700 475 613ZM332 131T355 180T378
350Q378 470 355 519T279 569H215V421H259Q274 421 281 409T288 371V341Q288 315 281 303T259 291H215V131H279Q332 131 355 180Z" />
<glyph unicode="&#xd1;" glyph-name="Ntilde" horiz-adv-x="590" d="M154 760Q131 766 131 786Q131 793 135 802Q146 832 169 851T225 871Q245 871 291 855Q298 853 315 848T341 842Q354 842 367 858Q373 867 379 871T394 875Q398 875 408 873L418 870Q441 863
441 844Q441 841 438 829Q427 799 403 779T347 759Q328 759 282 775Q276 777 258 782T231 788Q217 788 206 772Q199 763 193 759T178 755Q173 755 165 757L154 760ZM52 -2T52 30V670Q52 702 110 702H136Q156 702 168 697T188 674L368 348Q382 322 402 270L406 272Q398
324 398 351V670Q398 702 456 702H480Q538 702 538 670V30Q538 -2 480 -2H461Q441 -2 428 3T407 26L216 366Q207 381 189 430L184 427Q192 381 192 359V30Q192 -2 134 -2H110Q52 -2 52 30Z" />
<glyph unicode="&#xd2;" glyph-name="Ograve" horiz-adv-x="599" d="M282 752T267 759T244 777L193 841Q172 867 164 879T155 897Q155 905 168 908T209 911Q274 911 289 884Q316 833 330 804T344 767Q344 758 338 755T315 752Q282 752 267 759ZM38 -8T38 350Q38
708 300 708Q428 708 494 621T561 350Q561 166 495 79T300 -8Q38 -8 38 350ZM337 123T359 143T392 212T403 350Q403 437 392 486T359 556T301 576Q265 576 243 556T209 487T197 350Q197 263 208 213T242 143T301 123Q337 123 359 143Z" />
<glyph unicode="&#xd3;" glyph-name="Oacute" horiz-adv-x="599" d="M262 752T256 755T250 767Q250 773 256 787T275 823L306 884Q320 911 385 911Q413 911 426 908T439 897Q439 891 432 881T407 849Q398 837 385 820T351 777Q342 765 327 759T279 752Q262 752
256 755ZM38 -8T38 350Q38 708 300 708Q428 708 494 621T561 350Q561 166 495 79T300 -8Q38 -8 38 350ZM337 123T359 143T392 212T403 350Q403 437 392 486T359 556T301 576Q265 576 243 556T209 487T197 350Q197 263 208 213T242 143T301 123Q337 123 359 143Z"
/>
<glyph unicode="&#xd4;" glyph-name="Ocircumflex" horiz-adv-x="599" d="M175 749T175 759Q175 764 182 776L241 876Q249 888 262 891T298 895H300Q323 895 336 892T357 876L417 776Q424 764 424 759Q424 749 404 749H376Q335 749 325 767L299 813L273 768Q261
749 223 749H196Q175 749 175 759ZM38 -8T38 350Q38 708 300 708Q428 708 494 621T561 350Q561 166 495 79T300 -8Q38 -8 38 350ZM337 123T359 143T392 212T403 350Q403 437 392 486T359 556T301 576Q265 576 243 556T209 487T197 350Q197 263 208 213T242 143T301
123Q337 123 359 143Z" />
<glyph unicode="&#xd5;" glyph-name="Otilde" horiz-adv-x="599" d="M159 760Q136 766 136 786Q136 793 140 802Q151 832 174 851T230 871Q250 871 296 855Q303 853 320 848T346 842Q359 842 372 858Q378 867 384 871T399 875Q403 875 413 873L423 870Q446 863
446 844Q446 841 443 829Q432 799 408 779T352 759Q333 759 287 775Q281 777 263 782T236 788Q222 788 211 772Q204 763 198 759T183 755Q178 755 170 757L159 760ZM38 -8T38 350Q38 708 300 708Q428 708 494 621T561 350Q561 166 495 79T300 -8Q38 -8 38 350ZM337
123T359 143T392 212T403 350Q403 437 392 486T359 556T301 576Q265 576 243 556T209 487T197 350Q197 263 208 213T242 143T301 123Q337 123 359 143Z" />
<glyph unicode="&#xd6;" glyph-name="Odieresis" horiz-adv-x="599" d="M163 755T163 787V847Q163 879 219 879Q277 879 277 847V787Q277 755 221 755Q163 755 163 787ZM325 755T325 787V847Q325 879 381 879Q439 879 439 847V787Q439 755 383 755Q325 755 325
787ZM38 -8T38 350Q38 708 300 708Q428 708 494 621T561 350Q561 166 495 79T300 -8Q38 -8 38 350ZM337 123T359 143T392 212T403 350Q403 437 392 486T359 556T301 576Q265 576 243 556T209 487T197 350Q197 263 208 213T242 143T301 123Q337 123 359 143Z" />
<glyph unicode="&#xd7;" glyph-name="multiply" horiz-adv-x="448" d="M395 95Q404 82 404 72Q404 65 400 60T386 45L364 27Q363 26 354 19T336 12Q324 12 314 26L214 167L108 20Q98 10 92 10Q86 10 77 16T56 33L48 40Q24 61 24 74Q24 82 34 95L140 242L34 389Q24
402 24 410Q24 423 48 444L56 451Q68 461 77 467T92 474Q98 474 108 464L214 317L314 458Q324 472 336 472Q345 472 354 465T364 457L386 439Q396 430 400 425T404 412Q404 403 395 389L288 242L395 95Z" />
<glyph unicode="&#xd8;" glyph-name="Oslash" horiz-adv-x="599" d="M561 517T561 350Q561 166 495 79T300 -8Q200 -8 138 44L104 -7Q94 -23 80 -23Q66 -23 48 -9T29 18Q29 26 36 36L85 111Q38 197 38 350Q38 708 300 708Q389 708 449 666L481 714Q487 722 492
726T504 730Q518 730 536 716T555 689Q555 679 548 670L505 605Q561 517 561 350ZM197 324T199 284L369 544Q347 576 301 576Q265 576 243 556T209 487T197 350Q197 324 199 284ZM337 123T359 143T392 212T403 350Q403 408 399 443L222 173Q234 146 253 135T301
123Q337 123 359 143Z" />
<glyph unicode="&#xd9;" glyph-name="Ugrave" horiz-adv-x="583" d="M274 752T259 759T236 777L185 841Q164 867 156 879T147 897Q147 905 160 908T201 911Q266 911 281 884Q308 833 322 804T336 767Q336 758 330 755T307 752Q274 752 259 759ZM179 -8T115 48T51
205V670Q51 702 109 702H149Q207 702 207 670V215Q207 174 230 149T292 123Q330 123 353 149T377 215V670Q377 702 435 702H474Q532 702 532 670V205Q532 104 469 48T292 -8Q179 -8 115 48Z" />
<glyph unicode="&#xda;" glyph-name="Uacute" horiz-adv-x="583" d="M254 752T248 755T242 767Q242 773 248 787T267 823L298 884Q312 911 377 911Q405 911 418 908T431 897Q431 891 424 881T399 849Q390 837 377 820T343 777Q334 765 319 759T271 752Q254 752
248 755ZM179 -8T115 48T51 205V670Q51 702 109 702H149Q207 702 207 670V215Q207 174 230 149T292 123Q330 123 353 149T377 215V670Q377 702 435 702H474Q532 702 532 670V205Q532 104 469 48T292 -8Q179 -8 115 48Z" />
<glyph unicode="&#xdb;" glyph-name="Ucircumflex" horiz-adv-x="583" d="M167 749T167 759Q167 764 174 776L233 876Q241 888 254 891T290 895H292Q315 895 328 892T349 876L409 776Q416 764 416 759Q416 749 396 749H368Q327 749 317 767L291 813L265 768Q253
749 215 749H188Q167 749 167 759ZM179 -8T115 48T51 205V670Q51 702 109 702H149Q207 702 207 670V215Q207 174 230 149T292 123Q330 123 353 149T377 215V670Q377 702 435 702H474Q532 702 532 670V205Q532 104 469 48T292 -8Q179 -8 115 48Z" />
<glyph unicode="&#xdc;" glyph-name="Udieresis" horiz-adv-x="583" d="M155 755T155 787V847Q155 879 211 879Q269 879 269 847V787Q269 755 213 755Q155 755 155 787ZM317 755T317 787V847Q317 879 373 879Q431 879 431 847V787Q431 755 375 755Q317 755 317
787ZM179 -8T115 48T51 205V670Q51 702 109 702H149Q207 702 207 670V215Q207 174 230 149T292 123Q330 123 353 149T377 215V670Q377 702 435 702H474Q532 702 532 670V205Q532 104 469 48T292 -8Q179 -8 115 48Z" />
<glyph unicode="&#xdd;" glyph-name="Yacute" horiz-adv-x="484" d="M204 752T198 755T192 767Q192 773 198 787T217 823L248 884Q262 911 327 911Q355 911 368 908T381 897Q381 891 374 881T349 849Q340 837 327 820T293 777Q284 765 269 759T221 752Q204 752
198 755ZM164 -2T164 30V302L10 657Q1 675 1 682Q1 691 16 696T61 702H112Q161 702 167 683L245 437L322 683Q325 694 339 698T377 702H419Q482 702 482 682Q482 676 475 657L321 299V30Q320 14 306 6T262 -2H223Q164 -2 164 30Z" />
<glyph unicode="&#xde;" glyph-name="Thorn" horiz-adv-x="482" d="M55 -2T55 30V670Q55 702 113 702H153Q211 702 211 670V591H268Q347 591 407 546T468 372Q468 284 433 236T355 170T278 153H211V30Q211 -2 153 -2H113Q55 -2 55 30ZM261 282Q285 282 301 302T318
372Q318 421 302 440T261 460H211V282H261Z" />
<glyph unicode="&#xdf;" glyph-name="germandbls" horiz-adv-x="480" d="M47 -2T47 30V501Q47 597 100 652T249 708Q337 708 391 662T446 524Q446 471 427 433T370 376V372Q417 349 438 311T460 205Q460 105 410 53T271 0H254Q238 0 231 12T224 50V67Q224 93 231
105T254 117H262Q287 117 300 137T314 205Q314 256 299 278T256 300H254Q238 300 231 312T224 350V367Q224 417 251 417H254Q274 417 285 438T296 501Q296 543 285 563T249 583Q224 583 210 566T195 519V30Q195 -2 135 -2H107Q47 -2 47 30Z" />
<glyph unicode="&#xe0;" glyph-name="agrave" horiz-adv-x="481" d="M217 575T202 582T179 600L128 664Q107 690 99 702T90 720Q90 728 103 731T144 734Q209 734 224 707Q251 656 265 627T279 590Q279 581 273 578T250 575Q217 575 202 582ZM109 -8T74 34T38 149Q38
336 271 335V351Q271 383 257 398T210 414Q188 414 171 409T133 393Q119 385 112 385Q102 385 90 400T69 434T60 465Q60 482 83 497T144 522T221 531Q325 531 372 485T419 358V176Q419 130 421 106T428 53Q431 40 431 31Q431 15 391 7T319 -1Q303 -1 297 11T283
50Q270 28 242 10T175 -8Q109 -8 74 34ZM236 99T249 108T271 132V249Q171 249 171 160Q171 132 184 116T220 99Q236 99 249 108Z" />
<glyph unicode="&#xe1;" glyph-name="aacute" horiz-adv-x="481" d="M197 575T191 578T185 590Q185 596 191 610T210 646L241 707Q255 734 320 734Q348 734 361 731T374 720Q374 714 367 704T342 672Q333 660 320 643T286 600Q277 588 262 582T214 575Q197 575
191 578ZM109 -8T74 34T38 149Q38 336 271 335V351Q271 383 257 398T210 414Q188 414 171 409T133 393Q119 385 112 385Q102 385 90 400T69 434T60 465Q60 482 83 497T144 522T221 531Q325 531 372 485T419 358V176Q419 130 421 106T428 53Q431 40 431 31Q431 15
391 7T319 -1Q303 -1 297 11T283 50Q270 28 242 10T175 -8Q109 -8 74 34ZM236 99T249 108T271 132V249Q171 249 171 160Q171 132 184 116T220 99Q236 99 249 108Z" />
<glyph unicode="&#xe2;" glyph-name="acircumflex" horiz-adv-x="481" d="M110 572T110 582Q110 587 117 599L176 699Q184 711 197 714T233 718H235Q258 718 271 715T292 699L352 599Q359 587 359 582Q359 572 339 572H311Q270 572 260 590L234 636L208 591Q196
572 158 572H131Q110 572 110 582ZM109 -8T74 34T38 149Q38 336 271 335V351Q271 383 257 398T210 414Q188 414 171 409T133 393Q119 385 112 385Q102 385 90 400T69 434T60 465Q60 482 83 497T144 522T221 531Q325 531 372 485T419 358V176Q419 130 421 106T428
53Q431 40 431 31Q431 15 391 7T319 -1Q303 -1 297 11T283 50Q270 28 242 10T175 -8Q109 -8 74 34ZM236 99T249 108T271 132V249Q171 249 171 160Q171 132 184 116T220 99Q236 99 249 108Z" />
<glyph unicode="&#xe3;" glyph-name="atilde" horiz-adv-x="481" d="M94 583Q71 589 71 609Q71 616 75 625Q86 655 109 674T165 694Q185 694 231 678Q238 676 255 671T281 665Q294 665 307 681Q313 690 319 694T334 698Q338 698 348 696L358 693Q381 686 381 667Q381
664 378 652Q367 622 343 602T287 582Q268 582 222 598Q216 600 198 605T171 611Q157 611 146 595Q139 586 133 582T118 578Q113 578 105 580L94 583ZM109 -8T74 34T38 149Q38 336 271 335V351Q271 383 257 398T210 414Q188 414 171 409T133 393Q119 385 112 385Q102
385 90 400T69 434T60 465Q60 482 83 497T144 522T221 531Q325 531 372 485T419 358V176Q419 130 421 106T428 53Q431 40 431 31Q431 15 391 7T319 -1Q303 -1 297 11T283 50Q270 28 242 10T175 -8Q109 -8 74 34ZM236 99T249 108T271 132V249Q171 249 171 160Q171
132 184 116T220 99Q236 99 249 108Z" />
<glyph unicode="&#xe4;" glyph-name="adieresis" horiz-adv-x="481" d="M98 578T98 610V670Q98 702 154 702Q212 702 212 670V610Q212 578 156 578Q98 578 98 610ZM260 578T260 610V670Q260 702 316 702Q374 702 374 670V610Q374 578 318 578Q260 578 260 610ZM109
-8T74 34T38 149Q38 336 271 335V351Q271 383 257 398T210 414Q188 414 171 409T133 393Q119 385 112 385Q102 385 90 400T69 434T60 465Q60 482 83 497T144 522T221 531Q325 531 372 485T419 358V176Q419 130 421 106T428 53Q431 40 431 31Q431 15 391 7T319 -1Q303
-1 297 11T283 50Q270 28 242 10T175 -8Q109 -8 74 34ZM236 99T249 108T271 132V249Q171 249 171 160Q171 132 184 116T220 99Q236 99 249 108Z" />
<glyph unicode="&#xe5;" glyph-name="aring" horiz-adv-x="481" d="M187 550T161 577T135 649Q135 693 161 721T233 749Q279 749 305 722T332 649Q332 605 306 578T233 550Q187 550 161 577ZM251 612T261 621T271 648Q271 665 261 675T234 685Q216 685 207 675T197
648Q197 631 206 622T234 612Q251 612 261 621ZM109 -8T74 34T38 149Q38 336 271 335V351Q271 383 257 398T210 414Q188 414 171 409T133 393Q119 385 112 385Q102 385 90 400T69 434T60 465Q60 482 83 497T144 522T221 531Q325 531 372 485T419 358V176Q419 130
421 106T428 53Q431 40 431 31Q431 15 391 7T319 -1Q303 -1 297 11T283 50Q270 28 242 10T175 -8Q109 -8 74 34ZM236 99T249 108T271 132V249Q171 249 171 160Q171 132 184 116T220 99Q236 99 249 108Z" />
<glyph unicode="&#xe6;" glyph-name="ae" horiz-adv-x="688" d="M116 -8T77 34T38 149Q38 336 272 335Q275 358 281 378Q267 414 212 414Q191 414 176 409T136 394Q118 385 112 385Q102 385 90 400T69 434T60 465Q60 482 83 497T145 522T225 531Q266 531 300 523T357
500Q402 531 474 531Q574 531 618 464T662 266Q662 254 642 231T611 207H422Q422 155 444 132T501 109Q522 109 539 115T577 130Q593 138 598 138Q612 138 630 109T649 61Q649 40 623 25T560 1T489 -8Q388 -8 329 51Q311 26 273 9T188 -8Q116 -8 77 34ZM520 306Q520
365 510 389T475 414Q451 414 437 391T419 306H520ZM238 109T254 117T281 142Q270 182 268 238Q179 238 179 160Q179 137 189 123T220 109Q238 109 254 117Z" />
<glyph unicode="&#xe7;" glyph-name="ccedilla" horiz-adv-x="408" d="M396 38T361 20T280 -5L267 -48Q296 -53 313 -71T331 -122Q331 -166 303 -189T227 -212Q184 -212 153 -197T121 -160Q121 -142 132 -130T153 -118Q162 -118 178 -127Q180 -128 192 -133T218
-139Q238 -139 238 -123Q238 -115 233 -111T215 -101Q203 -96 197 -92T191 -79Q191 -71 205 -33Q208 -21 214 -6Q34 12 34 260Q34 531 250 531Q286 531 319 522T374 496T395 462Q395 444 380 415T350 386Q344 386 331 394Q313 403 299 408T266 414Q225 414 205
379T185 262Q185 180 204 145T263 109Q281 109 296 114T321 124T334 130Q348 137 352 137Q367 137 381 109T396 61Q396 38 361 20Z" />
<glyph unicode="&#xe8;" glyph-name="egrave" horiz-adv-x="454" d="M213 575T198 582T175 600L124 664Q103 690 95 702T86 720Q86 728 99 731T140 734Q205 734 220 707Q247 656 261 627T275 590Q275 581 269 578T246 575Q213 575 198 582ZM144 -8T89 59T34 258Q34
406 88 468T242 531Q340 531 384 462T428 262Q428 250 408 227T377 203H187Q189 152 210 131T267 109Q289 109 307 115T342 129T363 138Q373 138 385 124T406 91T415 62Q415 39 388 24T325 0T260 -8Q144 -8 89 59ZM293 292Q293 363 281 393T241 424Q214 424 200
395T181 292H293Z" />
<glyph unicode="&#xe9;" glyph-name="eacute" horiz-adv-x="454" d="M193 575T187 578T181 590Q181 596 187 610T206 646L237 707Q251 734 316 734Q344 734 357 731T370 720Q370 714 363 704T338 672Q329 660 316 643T282 600Q273 588 258 582T210 575Q193 575
187 578ZM144 -8T89 59T34 258Q34 406 88 468T242 531Q340 531 384 462T428 262Q428 250 408 227T377 203H187Q189 152 210 131T267 109Q289 109 307 115T342 129T363 138Q373 138 385 124T406 91T415 62Q415 39 388 24T325 0T260 -8Q144 -8 89 59ZM293 292Q293
363 281 393T241 424Q214 424 200 395T181 292H293Z" />
<glyph unicode="&#xea;" glyph-name="ecircumflex" horiz-adv-x="454" d="M106 572T106 582Q106 587 113 599L172 699Q180 711 193 714T229 718H231Q254 718 267 715T288 699L348 599Q355 587 355 582Q355 572 335 572H307Q266 572 256 590L230 636L204 591Q192
572 154 572H127Q106 572 106 582ZM144 -8T89 59T34 258Q34 406 88 468T242 531Q340 531 384 462T428 262Q428 250 408 227T377 203H187Q189 152 210 131T267 109Q289 109 307 115T342 129T363 138Q373 138 385 124T406 91T415 62Q415 39 388 24T325 0T260 -8Q144
-8 89 59ZM293 292Q293 363 281 393T241 424Q214 424 200 395T181 292H293Z" />
<glyph unicode="&#xeb;" glyph-name="edieresis" horiz-adv-x="454" d="M94 578T94 610V670Q94 702 150 702Q208 702 208 670V610Q208 578 152 578Q94 578 94 610ZM256 578T256 610V670Q256 702 312 702Q370 702 370 670V610Q370 578 314 578Q256 578 256 610ZM144
-8T89 59T34 258Q34 406 88 468T242 531Q340 531 384 462T428 262Q428 250 408 227T377 203H187Q189 152 210 131T267 109Q289 109 307 115T342 129T363 138Q373 138 385 124T406 91T415 62Q415 39 388 24T325 0T260 -8Q144 -8 89 59ZM293 292Q293 363 281 393T241
424Q214 424 200 395T181 292H293Z" />
<glyph unicode="&#xec;" glyph-name="igrave" horiz-adv-x="254" d="M110 575T95 582T72 600L21 664Q0 690 -8 702T-17 720Q-17 728 -4 731T37 734Q102 734 117 707Q144 656 158 627T172 590Q172 581 166 578T143 575Q110 575 95 582ZM53 -2T53 30V493Q53 525
113 525H141Q201 525 201 493V30Q201 -2 141 -2H113Q53 -2 53 30Z" />
<glyph unicode="&#xed;" glyph-name="iacute" horiz-adv-x="254" d="M90 575T84 578T78 590Q78 596 84 610T103 646L134 707Q148 734 213 734Q241 734 254 731T267 720Q267 714 260 704T235 672Q226 660 213 643T179 600Q170 588 155 582T107 575Q90 575 84 578ZM53
-2T53 30V493Q53 525 113 525H141Q201 525 201 493V30Q201 -2 141 -2H113Q53 -2 53 30Z" />
<glyph unicode="&#xee;" glyph-name="icircumflex" horiz-adv-x="254" d="M3 572T3 582Q3 587 10 599L69 699Q77 711 90 714T126 718H128Q151 718 164 715T185 699L245 599Q252 587 252 582Q252 572 232 572H204Q163 572 153 590L127 636L101 591Q89 572 51 572H24Q3
572 3 582ZM53 -2T53 30V493Q53 525 113 525H141Q201 525 201 493V30Q201 -2 141 -2H113Q53 -2 53 30Z" />
<glyph unicode="&#xef;" glyph-name="idieresis" horiz-adv-x="254" d="M-9 578T-9 610V670Q-9 702 47 702Q105 702 105 670V610Q105 578 49 578Q-9 578 -9 610ZM153 578T153 610V670Q153 702 209 702Q267 702 267 670V610Q267 578 211 578Q153 578 153 610ZM53
-2T53 30V493Q53 525 113 525H141Q201 525 201 493V30Q201 -2 141 -2H113Q53 -2 53 30Z" />
<glyph unicode="&#xf0;" glyph-name="eth" horiz-adv-x="477" d="M386 542T414 450T443 262Q443 131 391 62T238 -8Q138 -8 86 61T34 262Q34 391 85 458T238 526Q249 526 255 525Q246 546 223 589Q168 581 162 581Q147 581 135 594T123 623Q123 636 144 639L187
645L173 663Q149 689 149 696Q149 705 168 708L230 715Q251 715 268 704Q283 693 308 661L376 670Q389 670 401 657T413 628Q413 615 392 612L346 606Q386 542 414 450ZM268 109T280 143T293 262Q293 343 281 376T239 409Q209 409 197 376T184 262Q184 178 196
144T239 109Q268 109 280 143Z" />
<glyph unicode="&#xf1;" glyph-name="ntilde" horiz-adv-x="482" d="M101 583Q78 589 78 609Q78 616 82 625Q93 655 116 674T172 694Q192 694 238 678Q245 676 262 671T288 665Q301 665 314 681Q320 690 326 694T341 698Q345 698 355 696L365 693Q388 686 388
667Q388 664 385 652Q374 622 350 602T294 582Q275 582 229 598Q223 600 205 605T178 611Q164 611 153 595Q146 586 140 582T125 578Q120 578 112 580L101 583ZM50 -2T50 30V349Q50 420 45 450T40 487Q40 505 82 513T155 522Q174 522 180 511T188 483T193 455Q215
488 248 509T324 531Q379 531 407 496T436 392V30Q436 -2 378 -2H344Q286 -2 286 30V358Q286 384 278 396T249 409Q222 409 199 377V30Q199 14 185 6T142 -2H107Q50 -2 50 30Z" />
<glyph unicode="&#xf2;" glyph-name="ograve" horiz-adv-x="477" d="M221 575T206 582T183 600L132 664Q111 690 103 702T94 720Q94 728 107 731T148 734Q213 734 228 707Q255 656 269 627T283 590Q283 581 277 578T254 575Q221 575 206 582ZM138 -8T86 61T34
262Q34 393 85 462T238 531Q339 531 391 462T443 262Q443 131 391 62T238 -8Q138 -8 86 61ZM268 109T280 143T293 262Q293 346 281 380T239 414Q209 414 197 380T184 262Q184 178 196 144T239 109Q268 109 280 143Z" />
<glyph unicode="&#xf3;" glyph-name="oacute" horiz-adv-x="477" d="M201 575T195 578T189 590Q189 596 195 610T214 646L245 707Q259 734 324 734Q352 734 365 731T378 720Q378 714 371 704T346 672Q337 660 324 643T290 600Q281 588 266 582T218 575Q201 575
195 578ZM138 -8T86 61T34 262Q34 393 85 462T238 531Q339 531 391 462T443 262Q443 131 391 62T238 -8Q138 -8 86 61ZM268 109T280 143T293 262Q293 346 281 380T239 414Q209 414 197 380T184 262Q184 178 196 144T239 109Q268 109 280 143Z" />
<glyph unicode="&#xf4;" glyph-name="ocircumflex" horiz-adv-x="477" d="M114 572T114 582Q114 587 121 599L180 699Q188 711 201 714T237 718H239Q262 718 275 715T296 699L356 599Q363 587 363 582Q363 572 343 572H315Q274 572 264 590L238 636L212 591Q200
572 162 572H135Q114 572 114 582ZM138 -8T86 61T34 262Q34 393 85 462T238 531Q339 531 391 462T443 262Q443 131 391 62T238 -8Q138 -8 86 61ZM268 109T280 143T293 262Q293 346 281 380T239 414Q209 414 197 380T184 262Q184 178 196 144T239 109Q268 109 280
143Z" />
<glyph unicode="&#xf5;" glyph-name="otilde" horiz-adv-x="477" d="M98 583Q75 589 75 609Q75 616 79 625Q90 655 113 674T169 694Q189 694 235 678Q242 676 259 671T285 665Q298 665 311 681Q317 690 323 694T338 698Q342 698 352 696L362 693Q385 686 385 667Q385
664 382 652Q371 622 347 602T291 582Q272 582 226 598Q220 600 202 605T175 611Q161 611 150 595Q143 586 137 582T122 578Q117 578 109 580L98 583ZM138 -8T86 61T34 262Q34 393 85 462T238 531Q339 531 391 462T443 262Q443 131 391 62T238 -8Q138 -8 86 61ZM268
109T280 143T293 262Q293 346 281 380T239 414Q209 414 197 380T184 262Q184 178 196 144T239 109Q268 109 280 143Z" />
<glyph unicode="&#xf6;" glyph-name="odieresis" horiz-adv-x="477" d="M102 578T102 610V670Q102 702 158 702Q216 702 216 670V610Q216 578 160 578Q102 578 102 610ZM264 578T264 610V670Q264 702 320 702Q378 702 378 670V610Q378 578 322 578Q264 578 264
610ZM138 -8T86 61T34 262Q34 393 85 462T238 531Q339 531 391 462T443 262Q443 131 391 62T238 -8Q138 -8 86 61ZM268 109T280 143T293 262Q293 346 281 380T239 414Q209 414 197 380T184 262Q184 178 196 144T239 109Q268 109 280 143Z" />
<glyph unicode="&#xf7;" glyph-name="divide" horiz-adv-x="448" d="M159 318T159 350V421Q159 453 217 453H229Q287 453 287 421V350Q287 318 229 318H217Q159 318 159 350ZM24 172T19 183T13 222V229Q13 256 18 267T37 279H412Q425 279 430 268T436 229V222Q436
195 431 184T412 172H37Q24 172 19 183ZM159 -2T159 30V101Q159 133 217 133H229Q287 133 287 101V30Q287 -2 229 -2H217Q159 -2 159 30Z" />
<glyph unicode="&#xf8;" glyph-name="oslash" horiz-adv-x="477" d="M404 443Q443 377 443 262Q443 131 391 62T238 -8Q166 -8 117 30L93 -5Q84 -18 73 -18Q60 -18 41 -3T21 25Q21 31 25 37T30 46L65 97Q34 159 34 262Q34 393 85 462T238 531Q302 531 346 504L369
537Q378 550 390 550Q404 550 423 536T443 509Q443 501 435 488L404 443ZM210 414T198 382T184 269L272 397Q261 414 239 414Q210 414 198 382ZM293 283L196 144Q209 109 239 109Q268 109 280 143T293 262V283Z" />
<glyph unicode="&#xf9;" glyph-name="ugrave" horiz-adv-x="482" d="M222 575T207 582T184 600L133 664Q112 690 104 702T95 720Q95 728 108 731T149 734Q214 734 229 707Q256 656 270 627T284 590Q284 581 278 578T255 575Q222 575 207 582ZM105 -9T76 26T46
130V493Q46 525 104 525H138Q196 525 196 493V163Q196 138 204 126T233 113Q260 113 283 145V493Q283 509 297 517T340 525H375Q432 525 432 493V174Q432 103 437 72T442 34Q442 16 400 8T327 0Q308 0 302 11T294 39T289 67Q267 34 236 13T163 -9Q105 -9 76 26Z"
/>
<glyph unicode="&#xfa;" glyph-name="uacute" horiz-adv-x="482" d="M202 575T196 578T190 590Q190 596 196 610T215 646L246 707Q260 734 325 734Q353 734 366 731T379 720Q379 714 372 704T347 672Q338 660 325 643T291 600Q282 588 267 582T219 575Q202 575
196 578ZM105 -9T76 26T46 130V493Q46 525 104 525H138Q196 525 196 493V163Q196 138 204 126T233 113Q260 113 283 145V493Q283 509 297 517T340 525H375Q432 525 432 493V174Q432 103 437 72T442 34Q442 16 400 8T327 0Q308 0 302 11T294 39T289 67Q267 34 236
13T163 -9Q105 -9 76 26Z" />
<glyph unicode="&#xfb;" glyph-name="ucircumflex" horiz-adv-x="482" d="M115 572T115 582Q115 587 122 599L181 699Q189 711 202 714T238 718H240Q263 718 276 715T297 699L357 599Q364 587 364 582Q364 572 344 572H316Q275 572 265 590L239 636L213 591Q201
572 163 572H136Q115 572 115 582ZM105 -9T76 26T46 130V493Q46 525 104 525H138Q196 525 196 493V163Q196 138 204 126T233 113Q260 113 283 145V493Q283 509 297 517T340 525H375Q432 525 432 493V174Q432 103 437 72T442 34Q442 16 400 8T327 0Q308 0 302 11T294
39T289 67Q267 34 236 13T163 -9Q105 -9 76 26Z" />
<glyph unicode="&#xfc;" glyph-name="udieresis" horiz-adv-x="482" d="M103 578T103 610V670Q103 702 159 702Q217 702 217 670V610Q217 578 161 578Q103 578 103 610ZM265 578T265 610V670Q265 702 321 702Q379 702 379 670V610Q379 578 323 578Q265 578 265
610ZM105 -9T76 26T46 130V493Q46 525 104 525H138Q196 525 196 493V163Q196 138 204 126T233 113Q260 113 283 145V493Q283 509 297 517T340 525H375Q432 525 432 493V174Q432 103 437 72T442 34Q442 16 400 8T327 0Q308 0 302 11T294 39T289 67Q267 34 236 13T163
-9Q105 -9 76 26Z" />
<glyph unicode="&#xfd;" glyph-name="yacute" horiz-adv-x="408" d="M166 575T160 578T154 590Q154 596 160 610T179 646L210 707Q224 734 289 734Q317 734 330 731T343 720Q343 714 336 704T311 672Q302 660 289 643T255 600Q246 588 231 582T183 575Q166 575
160 578ZM404 525T404 503Q404 499 402 485L232 -185Q227 -206 177 -206H157Q101 -206 101 -185Q101 -178 104 -167L161 43Q147 43 138 47T126 64L10 480Q6 498 6 502Q6 525 56 525H99Q122 525 134 521T150 502L187 299Q193 263 203 187H207Q212 222 214 232Q220
280 224 299L264 504Q268 525 317 525H346Q404 525 404 503Z" />
<glyph unicode="&#xfe;" glyph-name="thorn" horiz-adv-x="483" d="M50 -206T50 -174V722Q50 754 110 754H138Q198 754 198 722V475Q213 500 239 515T297 531Q341 531 374 500T427 407T447 259Q447 131 403 62T280 -8Q231 -8 198 21V-174Q198 -206 138 -206H110Q50
-206 50 -174ZM269 109T283 144T297 262Q297 340 285 375T247 410Q218 410 198 370V123Q218 109 239 109Q269 109 283 144Z" />
<glyph unicode="&#xff;" glyph-name="ydieresis" horiz-adv-x="408" d="M67 578T67 610V670Q67 702 123 702Q181 702 181 670V610Q181 578 125 578Q67 578 67 610ZM229 578T229 610V670Q229 702 285 702Q343 702 343 670V610Q343 578 287 578Q229 578 229 610ZM404
525T404 503Q404 499 402 485L232 -185Q227 -206 177 -206H157Q101 -206 101 -185Q101 -178 104 -167L161 43Q147 43 138 47T126 64L10 480Q6 498 6 502Q6 525 56 525H99Q122 525 134 521T150 502L187 299Q193 263 203 187H207Q212 222 214 232Q220 280 224 299L264
504Q268 525 317 525H346Q404 525 404 503Z" />
<glyph unicode="&#x2013;" glyph-name="endash" horiz-adv-x="443" d="M14 212T7 224T0 262V269Q0 295 7 307T29 319H414Q429 319 436 307T443 269V262Q443 236 436 224T414 212H29Q14 212 7 224Z" />
<glyph unicode="&#x2014;" glyph-name="emdash" horiz-adv-x="886" d="M14 212T7 224T0 262V269Q0 295 7 307T29 319H857Q872 319 879 307T886 269V262Q886 236 879 224T857 212H29Q14 212 7 224Z" />
<glyph unicode="&#x2018;" glyph-name="quoteleft" horiz-adv-x="210" d="M46 478T31 490T16 522Q16 575 40 629T98 720T154 757Q170 757 184 752T199 735Q199 724 193 709Q191 703 180 676T162 610T155 522Q155 478 95 478H76Q46 478 31 490Z" />
<glyph unicode="&#x2019;" glyph-name="quoteright" horiz-adv-x="210" d="M48 478T34 483T19 500Q19 512 26 529Q43 572 53 609T63 713Q63 757 123 757H142Q172 757 187 745T202 713Q202 660 178 606T120 515T64 478Q48 478 34 483Z" />
<glyph unicode="&#x201a;" glyph-name="quotesinglbase" horiz-adv-x="210" d="M45 -125T31 -120T16 -103Q16 -91 23 -74Q40 -31 50 6T60 110Q60 154 120 154H139Q169 154 184 142T199 110Q199 57 175 3T117 -88T61 -125Q45 -125 31 -120Z" />
<glyph unicode="&#x201c;" glyph-name="quotedblleft" horiz-adv-x="348" d="M198 478T183 490T168 522Q168 575 192 629T250 720T306 757Q322 757 336 752T351 735Q351 724 345 709Q343 703 332 676T314 610T307 522Q307 478 247 478H228Q198 478 183 490ZM288
478T273 490T258 522Q258 575 282 629T340 720T396 757Q412 757 426 752T441 735Q441 724 435 709Q433 703 422 676T404 610T397 522Q397 478 337 478H318Q288 478 273 490Z" />
<glyph unicode="&#x201d;" glyph-name="quotedblright" horiz-adv-x="348" d="M204 478T190 483T175 500Q175 512 182 529Q199 572 209 609T219 713Q219 757 279 757H298Q328 757 343 745T358 713Q358 660 334 606T276 515T220 478Q204 478 190 483ZM294 478T280
483T265 500Q265 512 272 529Q289 572 299 609T309 713Q309 757 369 757H388Q418 757 433 745T448 713Q448 660 424 606T366 515T310 478Q294 478 280 483Z" />
<glyph unicode="&#x201e;" glyph-name="quotedblbase" horiz-adv-x="348" d="M184 -125T170 -120T155 -103Q155 -91 162 -74Q179 -31 189 6T199 110Q199 154 259 154H278Q308 154 323 142T338 110Q338 57 314 3T256 -88T200 -125Q184 -125 170 -120ZM18 -125T4
-120T-11 -103Q-11 -91 -4 -74Q13 -31 23 6T33 110Q33 154 93 154H112Q142 154 157 142T172 110Q172 57 148 3T90 -88T34 -125Q18 -125 4 -120Z" />
<glyph unicode="&#x2022;" glyph-name="bullet" horiz-adv-x="298" d="M96 194T62 227T28 326Q28 391 62 425T149 459Q202 459 236 425T270 326Q270 262 236 228T149 194Q96 194 62 227Z" />
<glyph unicode="&#x2039;" glyph-name="guilsinglleft" horiz-adv-x="247" d="M142 47T133 61L31 214Q24 226 21 235T17 258Q17 271 20 280T31 302L133 455Q142 469 157 469Q173 469 195 455T218 425Q218 416 211 403L120 258L211 113Q218 100 218 90Q218 75 196
61T157 47Q142 47 133 61Z" />
<glyph unicode="&#x203a;" glyph-name="guilsinglright" horiz-adv-x="247" d="M67 47T45 61T23 90Q23 100 30 113L121 258L30 403Q23 416 23 425Q23 441 45 455T84 469Q99 469 108 455L210 302Q217 290 220 281T224 258Q224 245 221 236T210 214L108 61Q99 47
84 47Q67 47 45 61Z" />
</font>
</defs>
</svg>
