<?xml version="1.0" standalone="no"?>
<!DOCTYPE svg PUBLIC "-//W3C//DTD SVG 1.1//EN" "http://www.w3.org/Graphics/SVG/1.1/DTD/svg11.dtd">
<svg xmlns="http://www.w3.org/2000/svg">
<defs >
<font id="PontanoSans" horiz-adv-x="838" ><font-face
    font-family="Pontano Sans"
    units-per-em="2048"
    panose-1="0 0 0 0 0 0 0 0 0 0"
    ascent="2025"
    descent="-599"
    alphabetic="0" />
<glyph unicode=" " horiz-adv-x="450" />
<glyph unicode="!" horiz-adv-x="428" d="M191 305L138 1464H307L250 305H191ZM138 197H302V0H138V197Z" />
<glyph unicode="&quot;" horiz-adv-x="510" d="M457 1464L406 1000H355L303 1464H457ZM53 1464H207L156 1000H105L53 1464Z" />
<glyph unicode="#" horiz-adv-x="1221" d="M278 1L144 0L255 551H51L80 649H275L326 901H120L149 999H346L440 1463L579 1464L483 999H808L902 1463L1041 1464L945 999H1175L1146 901H925L873 649H1106L1077 551H853L740 1L606 0L717 551H391L278 1ZM463 901L411
649H737L788 901H463Z" />
<glyph unicode="$" horiz-adv-x="1323" d="M642 871Q586 889 551 902T471 938T400 985T356 1047T337 1128Q337 1238 421 1296T642 1362V871ZM731 103V692Q802 667 847 647T937 601T1005 546T1043 478T1058 388Q1058 316 1031 262T957 175T855 125T734 103H731ZM642
-201H731V-23Q954 -11 1082 98T1211 393Q1211 446 1200 491T1171 572T1120 639T1055 693T971 742T876 785T766 829Q763 830 751 835T731 842V1363Q858 1354 942 1294T1074 1148L1178 1224Q1097 1348 989 1410T731 1480V1674H642V1481Q552 1477 472 1453T326 1386T222
1273T184 1116Q184 1067 197 1025T230 951T285 890T352 842T432 801T517 767T606 735Q614 732 618 731Q634 725 642 723V102Q305 119 221 426L98 373Q117 270 173 192T308 69T470 2T642 -24V-201Z" />
<glyph unicode="%" horiz-adv-x="1677" d="M268 -14L1503 1415L1426 1481L190 52L268 -14ZM357 1466Q453 1466 523 1415T627 1286T660 1120Q660 1030 627 953T524 825T357 774Q212 774 131 876T50 1118Q50 1208 83 1285T188 1414T357 1466ZM357 1374Q264 1374
213 1300T161 1123Q161 1019 213 944T357 868Q447 868 497 943T548 1122Q548 1187 528 1243T463 1336T357 1374ZM1325 692Q1421 692 1492 641T1595 512T1628 346Q1628 256 1596 179T1493 51T1325 0Q1227 0 1156 51T1052 178T1019 344Q1019 410 1038 471T1095 582T1192
662T1325 692ZM1325 599Q1232 599 1181 525T1129 349Q1129 283 1150 226T1217 131T1325 93Q1415 93 1466 169T1517 348Q1517 413 1497 468T1431 561T1325 599Z" />
<glyph unicode="&amp;" horiz-adv-x="1430" d="M1010 1211Q1010 1342 915 1415T673 1489Q531 1489 428 1414T325 1210Q325 1122 364 1043T484 873Q305 802 202 686T98 413Q98 228 233 101T582 -26Q880 -26 1088 195Q1104 179 1141 141T1200 81T1257 27T1320 -28L1393
57Q1350 94 1317 127T1240 208T1169 285Q1276 490 1311 782L1181 801Q1166 698 1157 640T1125 505T1074 381L677 836Q841 918 925 1005T1010 1211ZM609 917Q459 1079 459 1209Q459 1291 525 1341T678 1391Q761 1391 821 1341T882 1205Q882 1171 872 1140T834 1072T750
996T609 917ZM603 85Q512 85 441 113T328 190T265 297T244 419Q244 531 316 617T557 785Q601 736 691 634T860 443T1002 283Q924 186 818 136T603 85Z" />
<glyph unicode="&apos;" horiz-adv-x="280" d="M173 1000H122L70 1464H224L173 1000Z" />
<glyph unicode="(" horiz-adv-x="602" d="M523 1587L560 1482Q185 1376 185 703Q185 27 560 -73L523 -180Q294 -125 164 94T34 703T164 1313T523 1587Z" />
<glyph unicode=")" horiz-adv-x="602" d="M79 -180L42 -75Q417 31 417 704Q417 1380 42 1480L79 1587Q308 1532 438 1313T568 704T438 94T79 -180Z" />
<glyph unicode="*" horiz-adv-x="826" d="M463 762H363L373 1049L108 894L61 982L336 1112L60 1242L107 1330L373 1175L363 1463H463L453 1176L718 1331L765 1243L490 1113L766 983L719 895L453 1050L463 762Z" />
<glyph unicode="+" horiz-adv-x="860" d="M72 673V773H376V1100H478V773H778V673H478V350H376V673H72Z" />
<glyph unicode="," horiz-adv-x="445" d="M100 219H300V134Q295 -19 281 -78Q254 -192 163 -254L114 -192Q141 -171 166 -118T194 16L100 29V219Z" />
<glyph unicode="-" horiz-adv-x="724" d="M100 400V511H600V400H100Z" />
<glyph unicode="." horiz-adv-x="434" d="M135 215H299V0H135V215Z" />
<glyph unicode="/" horiz-adv-x="592" d="M152 -35L43 -8L458 1534L575 1507L152 -35Z" />
<glyph unicode="0" horiz-adv-x="1246" d="M498 -25T623 -25T846 30T1006 185T1100 421T1132 724Q1132 891 1100 1030T1006 1272T846 1433T623 1491T401 1434T241 1273T146 1030T114 724Q114 558 146 422T240 185T400 30ZM509 1374T623 1374T818 1290T938 1060T977
724Q977 538 940 399T821 176T623 93T425 176T307 398T269 724Q269 915 308 1060T428 1289Z" />
<glyph unicode="1" horiz-adv-x="592" d="M288 1328V0H434V1464H305L58 1364L102 1248L288 1328Z" />
<glyph unicode="2" horiz-adv-x="1137" d="M185 1089Q313 1370 574 1370Q701 1370 790 1288T880 1062Q880 974 838 893T728 745T578 614T414 482T262 346T148 187T100 0H1019V121H280Q312 185 372 250T501 371T646 486T792 607T917 736T1006 887T1040 1060Q1040
1170 1001 1255T893 1390T741 1466T562 1492Q390 1492 264 1408T56 1141L185 1089Z" />
<glyph unicode="3" horiz-adv-x="1092" d="M926 1152Q926 1305 822 1399T535 1493Q274 1493 123 1256L229 1192Q347 1381 542 1381Q659 1381 721 1310T783 1140Q783 1085 768 1040T716 953T609 888T441 864V751Q640 751 744 667T848 396Q848 274 765 184T533 94Q297
94 213 358L89 316Q111 227 158 160T267 53T399 -5T545 -24Q651 -24 738 13T881 112T967 248T997 403Q997 547 920 660T684 818Q805 857 865 948T926 1152Z" />
<glyph unicode="4" horiz-adv-x="1206" d="M131 464L673 1464H877V467H1132V357H878V0H738V357H131V464ZM738 1332L292 467H738V1332Z" />
<glyph unicode="5" horiz-adv-x="1163" d="M608 928Q725 928 816 890T961 785T1044 637T1072 461Q1072 378 1051 304T989 171T889 68T753 2T583 -22Q414 -22 290 59T99 309L223 359Q280 235 372 165T574 95Q657 95 724 124T834 204T900 318T923 453Q923 522 903
584T844 697T743 778T602 808Q439 808 276 685L185 744L281 1464H982V1337H412L343 856L348 858Q474 928 608 928Z" />
<glyph unicode="6" horiz-adv-x="1202" d="M290 828Q454 946 622 946Q715 946 798 916T945 830T1046 685T1083 484Q1083 408 1064 335T1006 197T913 83T784 5T623 -24Q496 -24 401 26T245 170T154 398T124 700Q124 885 162 1034T269 1284T433 1437T641 1491Q791
1491 963 1396L922 1285Q767 1372 643 1372Q541 1372 467 1313T347 1132T290 828ZM284 698Q283 672 283 607Q283 539 289 479T311 360T352 253T415 169T505 112T623 92Q686 92 741 118T839 193T907 316T932 480Q932 572 908 640T841 748T742 807T621 827Q540 827
451 792T284 698Z" />
<glyph unicode="7" horiz-adv-x="948" d="M148 1348L136 1464H874V1351L317 -1L159 1L722 1348H148Z" />
<glyph unicode="8" horiz-adv-x="1160" d="M501 716Q388 648 326 554T264 367Q264 311 285 260T346 170T447 107T584 83Q644 83 702 102T807 155T884 245T914 368Q914 414 902 453T870 521T818 577T755 621T677 658T593 688T501 716ZM106 351Q106 589 398 759Q350
781 307 811T221 883T153 981T127 1101Q127 1159 140 1210T178 1300T236 1372T310 1426T397 1463T493 1485T594 1492Q669 1492 735 1478T860 1433T959 1357T1025 1246T1049 1099Q1049 1030 1019 968T941 863T851 793T768 751Q843 715 896 677T981 603T1031 526T1056
448T1062 365Q1062 303 1042 246T979 140T879 55T742 -3T569 -24Q465 -24 377 7T230 90T139 209T106 351ZM659 792Q899 912 899 1101Q899 1171 875 1225T808 1313T711 1362T594 1379Q547 1379 503 1370T417 1340T346 1288T297 1210T278 1104Q278 1073 285 1046T302
996T332 953T369 917T416 886T468 860T529 836T591 814T659 792Z" />
<glyph unicode="9" horiz-adv-x="1197" d="M912 643Q861 605 809 579T701 539T591 525Q495 525 411 555T261 641T157 786T119 987Q119 1051 131 1111T166 1229T229 1333T318 1416T437 1472T587 1492Q835 1492 954 1310T1073 771Q1073 581 1035 431T929 182T765
33T555 -19Q404 -19 227 75L268 186Q427 99 550 99Q707 99 801 237T912 643ZM918 773Q919 797 919 864Q919 931 913 990T891 1109T850 1214T787 1297T697 1354T578 1374Q515 1374 460 1348T362 1274T295 1153T270 991Q270 899 295 831T365 722T467 663T593 644Q670
644 756 679T918 773Z" />
<glyph unicode=":" horiz-adv-x="482" d="M332 387V171H159V387H332ZM159 1024H332V808H159V1024Z" />
<glyph unicode=";" horiz-adv-x="478" d="M150 219H350V134Q345 -19 331 -78Q303 -192 213 -254L164 -192Q191 -171 216 -118T244 16L150 29V219ZM332 1024V808H159V1024H332Z" />
<glyph unicode="&lt;" horiz-adv-x="1051" d="M998 241V103L49 469V595L998 950V798L211 525L998 241Z" />
<glyph unicode="=" horiz-adv-x="820" d="M135 550V650H685V550H135ZM135 300V400H685V300H135Z" />
<glyph unicode="&gt;" horiz-adv-x="1051" d="M53 812V950L1002 584V458L53 103V255L840 528L53 812Z" />
<glyph unicode="?" horiz-adv-x="1010" d="M795 1089Q795 1019 773 960T708 843T616 726T496 568T366 358H515Q570 452 638 543T756 693T850 815T918 947T941 1094Q941 1169 916 1237T839 1364T700 1456T497 1491Q187 1491 35 1250L134 1177Q264 1380 488 1380Q572
1380 634 1355T730 1287T779 1194T795 1089ZM350 0H514V215H350V0Z" />
<glyph unicode="@" horiz-adv-x="1704" d="M1091 252Q1056 199 1019 163T940 106T857 76T764 67Q712 67 666 80T586 119T524 177T480 251T454 335T445 425Q445 520 476 612T560 776T694 892T866 937Q1002 937 1145 844L1170 917H1268L1176 326Q1176 295 1190 267T1227
222T1276 205Q1297 205 1317 213T1357 237T1394 278T1426 336T1451 410T1467 500T1473 608Q1473 707 1441 794T1354 945T1224 1057T1064 1127T886 1151Q821 1151 759 1139T644 1103T542 1047T453 974T378 888T319 790T276 686T249 577T240 467Q240 230 370 74Q532
-119 839 -120Q1025 -120 1248 -30L1288 -105Q1052 -223 842 -223Q696 -223 575 -185T369 -80T227 75T141 265T114 476Q114 591 146 703T244 914T400 1090T615 1211T883 1256Q994 1256 1099 1226T1293 1137T1448 999T1553 815T1591 596Q1591 537 1584 484T1565
385T1534 302T1494 234T1445 181T1388 142T1326 120T1258 112Q1227 112 1197 124T1136 169T1091 252ZM1123 763Q999 843 886 843Q793 843 720 786T609 633T570 422Q570 371 582 326T619 243T684 185T778 163H779Q808 163 841 172T912 207T982 269T1041 367T1079
504L1123 763Z" />
<glyph unicode="A" horiz-adv-x="1218" d="M26 0L512 1464H704L1192 0H1042L908 399H300L172 0H26ZM603 1362Q588 1316 554 1204T503 1040L334 508H874L704 1041Q646 1221 603 1362Z" />
<glyph unicode="B" horiz-adv-x="1295" d="M293 1357V837H521Q581 837 621 837T709 840T787 847T853 858T909 875T953 899T988 933T1011 977T1026 1032T1031 1100Q1031 1141 1024 1174T1004 1232T970 1276T927 1309T873 1331T813 1345T744 1353T672 1356T594 1357H293ZM294
730V107H608Q665 107 704 108T795 116T883 135T956 170T1017 225T1054 305T1069 415Q1069 465 1061 505T1039 577T1002 631T955 671T896 698T830 716T754 725T675 729T589 730H294ZM148 0V1464H587Q657 1464 714 1461T834 1447T943 1420T1035 1375T1107 1309T1153
1217T1170 1095Q1170 837 899 790Q1056 759 1135 660T1214 413Q1214 290 1176 210T1053 84T849 19T551 0H148Z" />
<glyph unicode="C" horiz-adv-x="1350" d="M738 1491Q937 1491 1076 1393T1269 1102L1135 1071Q1099 1211 999 1292T733 1374Q484 1374 376 1212T267 738Q267 605 280 506T327 327T413 197T547 120T736 93Q1047 93 1149 377L1274 338Q1214 157 1071 66T728 -25Q418
-25 266 156T114 738Q114 1124 277 1307T738 1491Z" />
<glyph unicode="D" horiz-adv-x="1400" d="M653 1350H294V114H597Q752 114 856 147T1024 258T1116 450T1144 737Q1144 891 1121 999T1043 1189T892 1310T653 1350ZM148 1464H652Q811 1464 926 1427T1123 1305T1246 1080T1287 738Q1287 472 1217 309T1008 73T645
0H148V1464Z" />
<glyph unicode="E" horiz-adv-x="1143" d="M1128 0H148V1464H1117V1352H294V838H1010V723H294V113H1128V0Z" />
<glyph unicode="F" horiz-adv-x="1094" d="M1117 1352H294V830H1009V716H294V0H148V1464H1117V1352Z" />
<glyph unicode="G" horiz-adv-x="1374" d="M735 1491Q908 1491 1041 1405T1236 1150L1114 1096Q1011 1374 734 1374Q489 1374 378 1212T267 721Q267 566 290 453T366 257T506 134T719 93Q784 93 849 114T973 177T1067 288T1104 444V664H732V789H1248V581L1238
0H1145L1113 191Q1056 96 946 36T701 -24Q114 -24 114 722Q114 924 158 1073T284 1313T479 1447T735 1491Z" />
<glyph unicode="H" horiz-adv-x="1457" d="M1164 836V1464H1309V0H1164V720H294V0H148V1464H294V836H1164Z" />
<glyph unicode="I" horiz-adv-x="464" d="M309 0H163V1464H309V0Z" />
<glyph unicode="J" horiz-adv-x="954" d="M21 334L151 369Q182 231 242 162T417 93Q475 93 519 109T590 159T635 228T660 321T670 425T673 541V1464H818V544Q818 250 726 113T405 -25Q92 -25 21 334Z" />
<glyph unicode="K" horiz-adv-x="1252" d="M1180 1466L665 926L1244 0H1077L562 828L294 553V0H148V1466H294V726L1003 1466H1180Z" />
<glyph unicode="L" horiz-adv-x="1020" d="M1041 0H148V1464H294V113H1041V0Z" />
<glyph unicode="M" horiz-adv-x="1645" d="M148 0V1463H359L826 405L1306 1462H1497V0H1363V1275L888 250H753L287 1281V0H148Z" />
<glyph unicode="N" horiz-adv-x="1491" d="M148 0V1464H311L1214 221V614V1464H1343V0H1211L281 1290Q281 1290 281 875V0H148Z" />
<glyph unicode="O" horiz-adv-x="1449" d="M723 1491Q869 1491 979 1449T1171 1319T1293 1086T1335 741Q1335 341 1180 158T722 -25Q575 -25 465 17T275 149T155 387T114 740Q114 940 155 1085T277 1319T467 1449T723 1491ZM722 1374Q618 1374 540 1345T410 1264T326
1131T281 957T267 741Q267 404 371 249T723 93Q972 93 1076 247T1180 740Q1180 861 1167 956T1121 1131T1036 1263T906 1345T722 1374Z" />
<glyph unicode="P" horiz-adv-x="1253" d="M148 0V1464H579Q937 1464 1084 1375T1231 1063Q1231 961 1206 889T1129 766T991 688T791 647T520 635H298V0H148ZM304 1350V748H576Q690 748 769 756T911 785T1010 840T1064 927T1083 1055T1064 1181T1009 1266T906
1318T759 1343T556 1350H304Z" />
<glyph unicode="Q" horiz-adv-x="1449" d="M1266 -345L1016 30Q975 11 928 -1T830 -19T722 -25Q575 -25 465 17T275 149T155 387T114 740Q114 940 155 1085T277 1319T467 1449T723 1491Q869 1491 979 1449T1171 1319T1293 1086T1335 741Q1335 274 1116 94L1374
-263L1266 -345ZM722 1374Q618 1374 540 1345T410 1264T326 1131T281 957T267 741Q267 404 371 249T723 93Q972 93 1076 247T1180 740Q1180 861 1167 956T1121 1131T1036 1263T906 1345T722 1374Z" />
<glyph unicode="R" horiz-adv-x="1286" d="M1214 1075Q1214 925 1137 832T898 695L1238 0H1082L750 673H293V0H148V1464H677Q962 1464 1088 1370T1214 1075ZM293 1356V786H644Q716 786 770 791T883 814T979 862T1041 945T1065 1073Q1065 1149 1042 1202T985 1285T894
1331T788 1352T668 1356H293Z" />
<glyph unicode="S" horiz-adv-x="1216" d="M618 1482Q795 1482 917 1423T1127 1231L1019 1151Q960 1255 860 1309T639 1364Q482 1364 383 1306T284 1128Q284 1081 305 1042T355 978T434 929T523 892T622 860T713 829Q780 803 823 786T918 742T1002 694T1067 639T1117
572T1146 492T1158 393Q1158 196 1011 86T615 -25Q544 -25 475 -13T334 28T205 101T105 215T45 373L168 426Q213 261 325 181T624 101Q681 101 733 109T835 139T923 191T982 273T1005 388Q1005 429 994 463T971 521T923 572T866 612T785 651T696 685T585 724Q572
729 565 731Q387 793 317 832Q156 921 134 1066Q131 1090 131 1116Q131 1207 172 1279T282 1394T437 1460T618 1482Z" />
<glyph unicode="T" horiz-adv-x="1119" d="M9 1352V1465H1110V1352H636V0H483V1352H9Z" />
<glyph unicode="U" horiz-adv-x="1346" d="M123 574V1464H283V598Q283 504 292 433T327 297T396 189T509 123T676 98T842 122T954 189T1022 296T1057 433T1066 598V1464H1223V581Q1223 268 1088 122T670 -25Q394 -25 259 118T123 574Z" />
<glyph unicode="V" horiz-adv-x="1164" d="M513 0L12 1464H167L460 596Q471 564 516 427T586 216Q610 288 655 419T716 596L1004 1464H1152L651 0H513Z" />
<glyph unicode="W" horiz-adv-x="1797" d="M427 0L12 1462H164Q272 1072 343 805T446 408T490 234Q509 297 543 409T664 803T865 1462H969Q1020 1273 1139 853T1316 217Q1364 394 1474 817T1646 1461L1785 1462L1370 0H1244Q921 1134 907 1187Q895 1146 870 1065T756
700T540 0H427Z" />
<glyph unicode="X" horiz-adv-x="1245" d="M626 889L1029 1464H1195L706 767L1239 0H1066L620 641L173 0H6L540 763L51 1464H226L626 889Z" />
<glyph unicode="Y" horiz-adv-x="1162" d="M508 549L-4 1464H154L582 682L1009 1464H1166L654 548V0H508V549Z" />
<glyph unicode="Z" horiz-adv-x="1176" d="M130 1356V1464H1136V1383L228 107H1141L1134 0H47V98L945 1356H130Z" />
<glyph unicode="[" horiz-adv-x="708" d="M132 -52V1480H590V1374H277V55H590V-52H132Z" />
<glyph unicode="\" horiz-adv-x="632" d="M588 -5H443L46 1464H191L588 -5Z" />
<glyph unicode="]" horiz-adv-x="707" d="M119 1374V1480H576V-52H119V55H431V1374H119Z" />
<glyph unicode="^" horiz-adv-x="1053" d="M241 100H103L469 999H595L950 100H798L525 837L241 100Z" />
<glyph unicode="_" horiz-adv-x="870" d="M99 -1H750V-99H99V-1Z" />
<glyph unicode="`" horiz-adv-x="496" d="M47 1492H242L447 1173L353 1172L47 1492Z" />
<glyph unicode="a" horiz-adv-x="1019" d="M746 219Q573 73 414 73Q224 73 224 265Q224 302 235 330T272 379T330 416T415 445T519 468T648 490L746 505V219ZM771 0H888V673Q888 1044 512 1044Q255 1044 132 888Q217 808 217 807Q267 869 342 902T504 935Q636
935 691 873T746 643V601L647 586Q560 573 517 566T403 543T297 513T214 473T145 417T107 343T90 245Q90 117 175 47T389 -24Q583 -24 754 116L771 0Z" />
<glyph unicode="b" horiz-adv-x="1078" d="M563 940Q688 940 764 821T840 520Q840 318 767 198T565 77Q263 77 263 522Q263 616 282 690T331 810T401 886T481 928T563 940ZM125 0H238L257 161Q294 72 381 24T580 -24Q773 -24 878 119T984 502Q984 756 880 900T589
1044Q481 1044 396 999T268 865V1102V1493H125V0Z" />
<glyph unicode="c" horiz-adv-x="981" d="M92 509Q92 666 141 785T292 974T538 1044Q600 1044 654 1029T760 980T851 883T911 733L792 701Q760 823 701 881T544 940Q390 940 314 826T237 512Q237 415 254 338T305 203T397 113T531 81Q730 81 799 316L908 282Q890
201 851 140T759 44T648 -7T528 -24Q316 -24 204 121T92 509Z" />
<glyph unicode="d" horiz-adv-x="1066" d="M90 500Q90 753 192 898T482 1044Q711 1044 792 863V1474H935V0H821L802 172Q763 82 678 29T486 -24Q302 -24 196 119T90 500ZM504 81Q549 81 585 88T663 121T733 190T779 313T798 499Q798 629 770 725T673 880T502 940Q375
940 305 820T235 496Q235 314 307 198T504 81Z" />
<glyph unicode="e" horiz-adv-x="1027" d="M532 1044Q636 1044 715 1008T843 906T915 754T939 564Q939 530 936 504H237Q237 417 254 343T305 209T399 115T537 81Q638 81 703 127T795 258L905 234Q882 149 824 90T694 4T541 -24H537Q424 -24 337 20T197 139T118
309T92 512Q92 751 208 897T532 1044ZM802 597Q801 761 734 851T528 941Q461 941 408 914T321 839T266 730T240 597H802Z" />
<glyph unicode="f" horiz-adv-x="623" d="M460 1365Q435 1365 418 1359T389 1336T372 1304T363 1257T360 1203T359 1137V1023H559V917H359V-1H217V917H44V1023H217V1140Q217 1311 270 1391T451 1471Q532 1471 607 1430L573 1338Q501 1365 460 1365Z" />
<glyph unicode="g" horiz-adv-x="1077" d="M818 543Q818 641 797 715T746 831T673 898T594 932T518 940Q445 940 389 906T301 812T252 682T236 530Q236 315 310 198T513 81Q558 81 597 90T678 128T749 201T798 326T818 509V543ZM527 -429Q261 -429 164 -267L247
-188Q329 -320 534 -320Q677 -320 747 -229T818 28V130Q701 -24 508 -24Q312 -24 203 127T94 526Q94 677 139 792T278 976T502 1044Q701 1044 829 891L837 1023H951V20Q951 -179 842 -304T527 -429Z" />
<glyph unicode="h" horiz-adv-x="1101" d="M602 940Q528 940 471 915T376 849T315 748T282 623T272 483V0H130V1473H272V1053V862Q389 1044 623 1044Q691 1044 745 1029T836 988T900 925T942 849T966 762T977 672T980 583V0H838V594Q838 765 786 852T602 940Z" />
<glyph unicode="i" horiz-adv-x="410" d="M135 1242V1421H276V1242H135ZM137 0V1023H279V0H137Z" />
<glyph unicode="j" horiz-adv-x="482" d="M214 -91V1023H356V-12Q356 -97 349 -149T319 -244T252 -306T137 -325Q45 -325 -25 -284L-1 -177Q83 -208 118 -208Q165 -208 189 -182T214 -91ZM216 1242V1421H357V1242H216Z" />
<glyph unicode="k" horiz-adv-x="1008" d="M797 1023H959L578 651L1018 0H858L485 565L272 369V0H130V1477H271V511L797 1023Z" />
<glyph unicode="l" horiz-adv-x="419" d="M134 0V1474H276V0H134Z" />
<glyph unicode="m" horiz-adv-x="1663" d="M268 583V0H126V1023H263L267 861Q323 957 409 1000T593 1044Q707 1044 779 988T879 832Q930 939 1023 991T1224 1044Q1306 1044 1365 1015T1458 943T1511 833T1536 709T1542 576V0H1400V607Q1400 684 1391 742T1359
846T1296 916T1199 940Q1114 940 1045 888T940 757T904 591V0H762V607Q762 768 717 854T563 940Q476 940 407 887T303 753T268 583Z" />
<glyph unicode="n" horiz-adv-x="1086" d="M127 0V1023H265Q265 1011 265 991T265 929T265 858V830Q284 885 324 927T414 994T518 1031T623 1044Q682 1044 730 1033T813 1001T873 954T915 891T941 821T957 742T963 663T965 584V0H823V603Q823 667 818 715T797
805T758 873T695 915T603 930Q526 930 468 908T372 848T311 754T279 637T269 499V0H127Z" />
<glyph unicode="o" horiz-adv-x="1064" d="M533 1044Q730 1044 851 909T972 513Q972 255 854 116T532 -24T211 114T92 510Q92 772 213 908T533 1044ZM532 940Q448 940 388 904T297 803T251 668T237 513Q237 446 245 387T274 271T327 172T412 106T533 81Q600 81
652 106T737 171T791 269T820 385T828 511Q828 577 820 636T790 752T737 849T652 915T532 940Z" />
<glyph unicode="p" horiz-adv-x="1061" d="M825 521Q825 313 754 197T559 81Q270 81 270 519Q270 592 275 647T299 760T347 855T431 916T558 940Q682 940 753 825T825 521ZM253 1023H131V-350H273V21V154Q317 68 396 22T580 -24Q709 -23 798 51T928 244T969 520Q969
632 946 725T875 891T751 1003T573 1044Q362 1044 263 858L253 1023Z" />
<glyph unicode="q" horiz-adv-x="1057" d="M481 1044Q716 1044 797 862L812 1023H929V-350H786V12V155Q743 68 664 22T479 -24Q353 -24 264 48T134 241T92 518Q92 667 133 783T264 972T481 1044ZM502 940Q379 940 308 824T237 522Q237 314 306 198T498 81Q788
81 788 501Q788 578 782 638T757 756T707 853T624 916T502 940Z" />
<glyph unicode="r" horiz-adv-x="584" d="M260 1023V831Q288 900 341 945T449 1007T566 1024V895Q483 895 423 865T329 782T280 667T264 532V0H122V1023H260Z" />
<glyph unicode="s" horiz-adv-x="929" d="M841 846Q744 791 744 790Q710 868 649 902T488 937Q364 937 300 892T236 759Q236 724 249 697T284 653T343 621T414 598T501 580Q675 548 762 481T850 286Q850 135 749 56T445 -24Q384 -24 328 -12T219 28T126 106T67
225L175 269Q211 171 275 127T458 83Q721 83 721 259Q721 355 661 394T408 474Q350 486 311 498T229 533T161 583T119 657T102 761Q102 896 206 970T480 1044Q616 1044 702 999T841 846Z" />
<glyph unicode="t" horiz-adv-x="644" d="M594 125L618 32Q543 -16 442 -16Q310 -16 251 64T191 325V924H38V1023H200V1350L333 1387V1023H557V924H333V261Q333 91 471 91Q517 91 594 125Z" />
<glyph unicode="u" horiz-adv-x="1118" d="M813 436V1023H955V0H817V192Q777 86 675 31T458 -24Q393 -24 341 -9T254 31T194 94T155 170T133 257T123 346T121 436V1023H263V406Q263 248 312 168T483 87Q558 87 618 112T713 174T772 260T804 352T813 436Z" />
<glyph unicode="v" horiz-adv-x="952" d="M788 1023H926L532 0H406L23 1023H175L476 151L788 1023Z" />
<glyph unicode="w" horiz-adv-x="1487" d="M351 0L21 1023H173L422 177L533 515L700 1023H794L951 516L1056 178L1323 1023H1463L1115 0H988L742 800L478 0H351Z" />
<glyph unicode="x" horiz-adv-x="966" d="M405 514L34 1023H188L482 606L776 1023H926L558 518L938 0H784L481 420L181 0H31L405 514Z" />
<glyph unicode="y" horiz-adv-x="985" d="M426 64L34 1023H180Q180 1023 237 876Q294 730 374 525T498 211Q584 435 815 1023H955Q886 848 757 527T584 97Q548 6 522 -50T458 -164T383 -251T290 -301T169 -320Q116 -320 64 -306L79 -193Q125 -200 167 -200Q336
-200 403 -3L426 64Z" />
<glyph unicode="z" horiz-adv-x="878" d="M86 919V1023H836V928L227 103H834V0H66V94L667 919H86Z" />
<glyph unicode="{" horiz-adv-x="644" d="M35 754Q62 756 84 763T122 778T150 803T171 832T184 868T192 905T196 947T198 989T198 1033Q198 1098 198 1130T202 1217T213 1299T234 1368T268 1430T319 1477T390 1515T486 1535T608 1544V1454Q568 1454 538 1453T482
1443T438 1429T405 1404T381 1374T366 1330T356 1278T351 1210T349 1132T349 1037Q349 1034 349 1033Q349 886 316 808T190 707Q282 685 315 607T349 381Q349 168 361 105Q378 16 437 -14Q490 -40 608 -40V-130Q541 -130 486 -122T391 -101T320 -63T269 -17T234
45T213 114T203 197T199 284T198 381Q198 412 198 425T197 466T193 508T185 546T171 582T151 610T122 635T84 651T35 660V754Z" />
<glyph unicode="|" horiz-adv-x="416" d="M281 -197H135V1502H281V-197Z" />
<glyph unicode="}" horiz-adv-x="644" d="M609 753Q582 755 560 762T522 777T494 802T473 831T460 867T452 904T448 946T446 988T446 1032Q446 1097 446 1129T442 1216T431 1298T410 1367T376 1429T325 1476T254 1514T158 1534T36 1543V1453Q76 1453 106 1452T162
1442T206 1428T239 1403T263 1373T278 1329T288 1277T293 1209T295 1131T295 1036Q295 1033 295 1032Q295 885 328 807T454 706Q362 684 329 606T295 380Q295 167 283 104Q266 15 207 -15Q154 -41 36 -41V-131Q103 -131 158 -123T253 -102T324 -64T375 -18T410
44T431 113T441 196T445 283T446 380Q446 411 446 424T447 465T451 507T459 545T473 581T493 609T522 634T560 650T609 659V753Z" />
<glyph unicode="~" horiz-adv-x="962" d="M757 700Q843 700 889 754T941 946H822Q815 909 812 897T803 866T790 841T772 831T743 826Q711 826 504 886T235 946Q209 946 195 946T156 940T117 927T83 901T53 858T33 795T21 707H139Q153 783 170 804T217 825Q259
825 466 763T757 700Z" />
<glyph unicode="&#xa1;" horiz-adv-x="426" d="M174 1160H250L307 0H122L174 1160ZM139 1268V1465H303V1268H139Z" />
<glyph unicode="&#xa2;" horiz-adv-x="993" d="M484 -208H577V-22Q621 -17 662 -4T742 35T812 95T868 179T906 289L805 323Q774 217 717 157T577 84V938Q741 918 798 701L909 733Q894 797 868 848T811 934T740 991T661 1027T577 1042V1253H484V1042Q357 1029 268
957T137 770T94 509Q94 360 136 246T268 61T484 -22V-208ZM484 935V85Q401 99 345 157T263 305T237 512Q237 691 298 802T484 935Z" />
<glyph unicode="&#xa3;" horiz-adv-x="1168" d="M677 42Q714 42 746 40T812 33T864 24T922 12T978 -1L1006 129Q861 167 739 167Q629 167 531 153T307 95Q329 138 339 160T365 234T388 350T395 502Q395 527 381 695H773V797H374Q372 815 367 861T359 946T355 1007Q355
1200 426 1291T651 1383Q688 1383 718 1375T783 1344T845 1267T884 1134L1003 1152Q978 1319 895 1404T645 1489Q215 1489 215 988Q215 961 223 885T233 797H66V695H242Q260 558 260 525Q260 381 237 279T156 60L232 -30Q395 11 492 26T677 42Z" />
<glyph unicode="&#xa4;" horiz-adv-x="1068" d="M769 658Q769 548 705 467T536 385Q428 385 366 464T303 655T365 845T535 925T705 846T769 658ZM934 246L990 309L831 449Q883 540 883 653Q883 794 805 896L942 1052L878 1108L745 956Q659 1023 534 1023Q382 1023
287 926L134 1061L78 997L236 859Q183 771 183 656Q183 514 264 410L126 253L190 197L324 350Q413 284 535 284Q685 284 780 381L934 246Z" />
<glyph unicode="&#xa5;" horiz-adv-x="1358" d="M348 544V630H559L94 1436H252L680 682L1107 1436H1264L799 630H1002V544H752V420H1002V334H752V0H606V334H348V420H606V544H348Z" />
<glyph unicode="&#xa6;" horiz-adv-x="416" d="M135 -198V433H281V-198H135ZM281 883H135V1504H281V883Z" />
<glyph unicode="&#xa7;" horiz-adv-x="1005" d="M301 731Q301 773 319 818T391 931Q417 921 458 906T521 882T575 861T624 839T663 817T697 793T719 768T734 737T739 703Q739 630 677 524Q662 528 637 535T546 564T432 609T342 665T301 731ZM535 -33Q715 -33 806
40T898 253Q898 394 783 471Q873 614 873 706Q873 806 804 866T560 994Q415 1050 387 1064Q315 1102 303 1157Q300 1170 300 1186V1189Q302 1278 361 1324T535 1371Q635 1371 691 1339T793 1221L884 1278Q829 1387 746 1432T527 1478Q360 1478 264 1405T167 1195Q167
1112 195 1065T281 984Q174 851 174 747Q174 647 239 587T455 473Q646 404 685 384Q745 352 760 307Q769 283 770 243V237Q770 157 709 116T540 74Q294 74 229 302L127 265Q138 200 168 148T239 63T331 8T432 -24T535 -33Z" />
<glyph unicode="&#xa8;" horiz-adv-x="860" d="M680 1365V1191H514V1365H680ZM135 1365H301V1191H135V1365Z" />
<glyph unicode="&#xa9;" horiz-adv-x="1702" d="M856 1247Q960 1247 1030 1189T1129 1015L1058 997Q1017 1177 853 1177Q598 1177 598 799Q598 601 656 508T854 415Q939 415 989 458T1066 584L1132 561Q1067 344 850 344Q685 344 601 453T517 799Q517 1027 607
1137T856 1247ZM1579 774Q1579 578 1481 411T1215 145T850 47Q654 47 487 145T221 410T123 774Q123 971 221 1139T486 1405T850 1503Q1047 1503 1215 1405T1481 1139T1579 774ZM667 100T849 100T1186 190T1432 436T1523 773Q1523 910 1470 1035T1326 1252T1112
1397T850 1452Q714 1452 589 1398T374 1252T230 1036T176 773Q176 591 266 436T512 191Z" />
<glyph unicode="&#xaa;" horiz-adv-x="946" d="M671 192Q532 68 396 68Q269 68 269 229Q269 303 346 341T595 406L671 419V192ZM676 97L690 0H794V544Q794 706 717 788T492 871Q416 871 326 834T182 737Q260 667 260 666Q306 711 369 740T494 770Q572 770 621
723T671 573V507L594 495Q546 487 515 482T442 467T372 449T311 427T257 399T214 364T180 320T160 266T152 201Q152 95 222 38T393 -20Q544 -20 676 97Z" />
<glyph unicode="&#xab;" horiz-adv-x="946" d="M894 251L449 552V749L894 1050V909L547 650L894 393V251ZM51 552V749L496 1050V909L149 650L496 393V251L51 552Z" />
<glyph unicode="&#xac;" horiz-adv-x="1024" d="M803 335H889V756H135V670H803V335Z" />
<glyph unicode="&#xae;" horiz-adv-x="1702" d="M1579 774Q1579 578 1481 411T1215 145T850 47Q654 47 487 145T221 410T123 774Q123 971 221 1139T486 1405T850 1503Q1047 1503 1215 1405T1481 1139T1579 774ZM664 1184V846H849Q889 846 920 849T985 862T1041
890T1077 939T1092 1015T1077 1091T1039 1141T982 1169T917 1181T848 1184H664ZM857 1248Q1179 1248 1179 1017Q1179 849 1000 793Q1010 761 1056 658T1144 466L1186 379H1099L916 779H661V381H578V1248H857ZM667 100T849 100T1186 190T1432 436T1523 773T1433
1110T1187 1356T849 1447T512 1357T267 1111T176 773T266 436T512 191Z" />
<glyph unicode="&#xaf;" horiz-adv-x="724" d="M135 1219V1329H589V1219H135Z" />
<glyph unicode="&#xb0;" horiz-adv-x="483" d="M483 1269Q483 1366 417 1435T240 1504Q133 1504 67 1435T0 1267Q0 1170 66 1101T240 1032Q350 1032 416 1101T483 1269ZM379 1268Q379 1208 342 1163T240 1117Q174 1117 136 1162T98 1268Q98 1327 136 1372T240
1418Q303 1418 341 1373T379 1268Z" />
<glyph unicode="&#xb1;" horiz-adv-x="860" d="M129 247V333H730V247H129ZM130 673V773H379V1023H481V773H730V673H481V423H379V673H130Z" />
<glyph unicode="&#xb2;" horiz-adv-x="1230" d="M860 859H530Q554 900 598 940T685 1011T768 1078T833 1165T858 1276Q858 1377 787 1434T619 1491Q534 1491 465 1447T364 1316Q371 1313 393 1302T435 1281L454 1271Q467 1330 514 1363T618 1396Q673 1396 711
1363T750 1269V1266Q750 1231 724 1193T657 1123T570 1050T483 972T415 883T385 779H860V859Z" />
<glyph unicode="&#xb3;" horiz-adv-x="772" d="M363 1481Q296 1481 234 1449T150 1358L223 1307Q243 1351 282 1373T364 1396Q418 1396 444 1370T471 1298Q471 1244 437 1214T318 1182V1095Q506 1095 506 953Q506 907 470 871T376 834Q244 834 208 950L130 910Q150
828 219 787T369 745Q487 745 553 809T615 960Q607 1101 459 1144Q517 1165 549 1210T581 1308Q581 1379 523 1430T363 1481Z" />
<glyph unicode="&#xb4;" horiz-adv-x="494" d="M254 1492H449L141 1172H49L254 1492Z" />
<glyph unicode="&#xb5;" horiz-adv-x="1122" d="M261 -350V57Q292 22 348 -1T467 -24Q712 -24 829 159L833 0H970V1023H828V436Q828 401 819 359T786 268T725 180T628 114T492 87Q370 87 319 168T268 406V1023H121V481H119V-350H261Z" />
<glyph unicode="&#xb6;" horiz-adv-x="1038" d="M465 0V799Q303 799 195 894T87 1135Q87 1192 100 1238T150 1327T246 1400T401 1446T626 1464H994V1349H824V0H698V799H595V0H465Z" />
<glyph unicode="&#xb7;" horiz-adv-x="434" d="M135 758H299V543H135V758Z" />
<glyph unicode="&#xb8;" horiz-adv-x="435" d="M150 -174V-10H350V-189Q350 -269 316 -329T214 -390Q193 -390 172 -381V-316Q202 -324 209 -324Q231 -324 240 -293T249 -174H150Z" />
<glyph unicode="&#xb9;" horiz-adv-x="546" d="M262 769H375V1464H272L124 1397L145 1307L262 1365V769Z" />
<glyph unicode="&#xba;" horiz-adv-x="1000" d="M123 425Q123 212 226 96T500 -20T773 97T877 428Q877 644 772 757T501 871Q334 871 229 757T123 425ZM501 79Q437 79 389 108T312 188T269 299T254 428Q254 495 268 555T310 665T388 744T500 773Q583 773 640 722T722
594T747 426Q747 358 733 298T690 187T612 108T501 79Z" />
<glyph unicode="&#xbb;" horiz-adv-x="946" d="M53 1049L498 748V551L53 250V391L400 650L53 907V1049ZM896 748V551L451 250V391L798 650L451 907V1049L896 748Z" />
<glyph unicode="&#xbc;" horiz-adv-x="1403" d="M68 52L146 -14L1381 1415L1304 1481L68 52ZM302 1365V769H415V1464H312L164 1397L185 1307L302 1365ZM707 152H1058V0H1173V152H1273V234H1173V693H1027L707 220V152ZM1058 234H821L1058 585V234Z" />
<glyph unicode="&#xbd;" horiz-adv-x="1361" d="M86 -14L1321 1415L1244 1481L8 52L86 -14ZM302 1365V769H415V1464H312L164 1397L185 1307L302 1365ZM1231 0V80H901Q925 121 969 161T1056 232T1139 299T1204 386T1229 497Q1229 598 1158 655T990 712Q905 712
836 668T735 537Q742 534 764 523T806 502L825 492Q838 551 885 584T989 617Q1044 617 1082 584T1121 490V487Q1121 452 1095 414T1028 344T941 271T854 193T786 104T756 0H1231Z" />
<glyph unicode="&#xbe;" horiz-adv-x="1441" d="M189 -14L1424 1415L1347 1481L111 52L189 -14ZM1096 152V0H1211V152H1311V234H1211V693H1065L745 220V152H1096ZM859 234L1096 585V234H859ZM581 1308Q581 1379 523 1430T363 1481Q296 1481 234 1449T150 1358L223
1307Q243 1351 282 1373T364 1396Q418 1396 444 1370T471 1298Q471 1244 437 1214T318 1182V1095Q506 1095 506 953Q506 907 470 871T376 834Q244 834 208 950L130 910Q150 828 219 787T369 745Q487 745 553 809T615 960Q607 1101 459 1144Q517 1165 549 1210T581
1308Z" />
<glyph unicode="&#xbf;" horiz-adv-x="1099" d="M273 378Q273 448 295 507T360 624T452 741T572 899T702 1109H553Q498 1015 430 924T312 774T218 652T150 520T127 373Q127 298 152 230T229 103T368 11T571 -24Q881 -24 1033 217L934 290Q804 87 580 87Q496 87
434 112T338 180T289 273T273 378ZM718 1467H554V1252H718V1467Z" />
<glyph unicode="&#xc0;" horiz-adv-x="1218" d="M313 1933H508L713 1614L619 1613L313 1933ZM26 0L512 1464H704L1192 0H1042L908 399H300L172 0H26ZM603 1362Q588 1316 554 1204T503 1040L334 508H874L704 1041Q646 1221 603 1362Z" />
<glyph unicode="&#xc1;" horiz-adv-x="1218" d="M710 1933H905L597 1613H505L710 1933ZM26 0L512 1464H704L1192 0H1042L908 399H300L172 0H26ZM603 1362Q588 1316 554 1204T503 1040L334 508H874L704 1041Q646 1221 603 1362Z" />
<glyph unicode="&#xc2;" horiz-adv-x="1218" d="M517 1933H712L887 1613H795L614 1831L434 1613H342L517 1933ZM26 0L512 1464H704L1192 0H1042L908 399H300L172 0H26ZM603 1362Q588 1316 554 1204T503 1040L334 508H874L704 1041Q646 1221 603 1362Z" />
<glyph unicode="&#xc3;" horiz-adv-x="1218" d="M478 1729Q499 1728 597 1686T749 1643T843 1681T884 1801Q884 1812 882 1836H785Q785 1740 746 1740Q725 1740 615 1786T462 1832Q334 1832 334 1682Q334 1656 336 1641H432Q432 1684 445 1706T478 1729ZM26 0L512
1464H704L1192 0H1042L908 399H300L172 0H26ZM603 1362Q588 1316 554 1204T503 1040L334 508H874L704 1041Q646 1221 603 1362Z" />
<glyph unicode="&#xc4;" horiz-adv-x="1218" d="M859 1806V1632H693V1806H859ZM314 1806H480V1632H314V1806ZM26 0L512 1464H704L1192 0H1042L908 399H300L172 0H26ZM603 1362Q588 1316 554 1204T503 1040L334 508H874L704 1041Q646 1221 603 1362Z" />
<glyph unicode="&#xc5;" horiz-adv-x="1218" d="M606 2033Q502 2033 444 1968T385 1815T443 1664T606 1601Q713 1601 773 1665T833 1817T774 1969T606 2033ZM483 1765T483 1817T515 1909T606 1949T696 1909T729 1817T697 1725T606 1684T516 1724ZM26 0L512 1464H704L1192
0H1042L908 399H300L172 0H26ZM603 1362Q588 1316 554 1204T503 1040L334 508H874L704 1041Q646 1221 603 1362Z" />
<glyph unicode="&#xc6;" horiz-adv-x="2030" d="M432 508H974V1406Q975 1405 950 1360T889 1256T832 1167Q479 586 432 508ZM-37 0L870 1464H2005V1352H1118V838H1843Q1843 819 1843 781T1842 723H1118V113H2015V0H971V399H371L124 0H-37Z" />
<glyph unicode="&#xc7;" horiz-adv-x="1338" d="M623 -174V-10H823V-189Q823 -269 789 -329T687 -390Q666 -390 645 -381V-316Q675 -324 682 -324Q704 -324 713 -293T722 -174H623ZM738 1491Q937 1491 1076 1393T1269 1102L1135 1071Q1099 1211 999 1292T733 1374Q484
1374 376 1212T267 738Q267 605 280 506T327 327T413 197T547 120T736 93Q1047 93 1149 377L1274 338Q1214 157 1071 66T728 -25Q418 -25 266 156T114 738Q114 1124 277 1307T738 1491Z" />
<glyph unicode="&#xc8;" horiz-adv-x="1143" d="M372 1933H567L772 1614L678 1613L372 1933ZM1128 0H148V1464H1117V1352H294V838H1010V723H294V113H1128V0Z" />
<glyph unicode="&#xc9;" horiz-adv-x="1143" d="M686 1933H881L573 1613H481L686 1933ZM1128 0H148V1464H1117V1352H294V838H1010V723H294V113H1128V0Z" />
<glyph unicode="&#xca;" horiz-adv-x="1143" d="M561 1933H756L931 1613H839L658 1831L478 1613H386L561 1933ZM1128 0H148V1464H1117V1352H294V838H1010V723H294V113H1128V0Z" />
<glyph unicode="&#xcb;" horiz-adv-x="1143" d="M922 1806V1632H756V1806H922ZM377 1806H543V1632H377V1806ZM1128 0H148V1464H1117V1352H294V838H1010V723H294V113H1128V0Z" />
<glyph unicode="&#xcc;" horiz-adv-x="464" d="M-97 1933H98L303 1614L209 1613L-97 1933ZM309 0H163V1464H309V0Z" />
<glyph unicode="&#xcd;" horiz-adv-x="464" d="M358 1933H553L245 1613H153L358 1933ZM309 0H163V1464H309V0Z" />
<glyph unicode="&#xce;" horiz-adv-x="464" d="M141 1933H336L511 1613H419L238 1831L58 1613H-34L141 1933ZM309 0H163V1464H309V0Z" />
<glyph unicode="&#xcf;" horiz-adv-x="464" d="M503 1806V1632H337V1806H503ZM-42 1806H124V1632H-42V1806ZM309 0H163V1464H309V0Z" />
<glyph unicode="&#xd0;" horiz-adv-x="1391" d="M0 702V788H140V1464H644Q803 1464 916 1427T1111 1305T1231 1080T1270 738Q1270 341 1120 171T637 0H140V702H0ZM645 1350H286V788H550V702H286V114H589Q744 114 846 147T1012 258T1101 449T1127 737Q1127 860
1114 952T1068 1121T981 1248T843 1323T645 1350Z" />
<glyph unicode="&#xd1;" horiz-adv-x="1491" d="M642 1729Q663 1728 761 1686T913 1643T1007 1681T1048 1801Q1048 1812 1046 1836H949Q949 1740 910 1740Q889 1740 779 1786T626 1832Q498 1832 498 1682Q498 1656 500 1641H596Q596 1684 609 1706T642 1729ZM148
0V1464H311L1214 221V614V1464H1343V0H1211L281 1290Q281 1290 281 875V0H148Z" />
<glyph unicode="&#xd2;" horiz-adv-x="1449" d="M448 1933H643L848 1614L754 1613L448 1933ZM723 1491Q869 1491 979 1449T1171 1319T1293 1086T1335 741Q1335 341 1180 158T722 -25Q575 -25 465 17T275 149T155 387T114 740Q114 940 155 1085T277 1319T467 1449T723
1491ZM722 1374Q618 1374 540 1345T410 1264T326 1131T281 957T267 741Q267 404 371 249T723 93Q972 93 1076 247T1180 740Q1180 861 1167 956T1121 1131T1036 1263T906 1345T722 1374Z" />
<glyph unicode="&#xd3;" horiz-adv-x="1449" d="M820 1933H1015L707 1613H615L820 1933ZM723 1491Q869 1491 979 1449T1171 1319T1293 1086T1335 741Q1335 341 1180 158T722 -25Q575 -25 465 17T275 149T155 387T114 740Q114 940 155 1085T277 1319T467 1449T723
1491ZM722 1374Q618 1374 540 1345T410 1264T326 1131T281 957T267 741Q267 404 371 249T723 93Q972 93 1076 247T1180 740Q1180 861 1167 956T1121 1131T1036 1263T906 1345T722 1374Z" />
<glyph unicode="&#xd4;" horiz-adv-x="1449" d="M633 1933H828L1003 1613H911L730 1831L550 1613H458L633 1933ZM723 1491Q869 1491 979 1449T1171 1319T1293 1086T1335 741Q1335 341 1180 158T722 -25Q575 -25 465 17T275 149T155 387T114 740Q114 940 155 1085T277
1319T467 1449T723 1491ZM722 1374Q618 1374 540 1345T410 1264T326 1131T281 957T267 741Q267 404 371 249T723 93Q972 93 1076 247T1180 740Q1180 861 1167 956T1121 1131T1036 1263T906 1345T722 1374Z" />
<glyph unicode="&#xd5;" horiz-adv-x="1449" d="M582 1729Q603 1728 701 1686T853 1643T947 1681T988 1801Q988 1812 986 1836H889Q889 1740 850 1740Q829 1740 719 1786T566 1832Q438 1832 438 1682Q438 1656 440 1641H536Q536 1684 549 1706T582 1729ZM723 1491Q869
1491 979 1449T1171 1319T1293 1086T1335 741Q1335 341 1180 158T722 -25Q575 -25 465 17T275 149T155 387T114 740Q114 940 155 1085T277 1319T467 1449T723 1491ZM722 1374Q618 1374 540 1345T410 1264T326 1131T281 957T267 741Q267 404 371 249T723 93Q972
93 1076 247T1180 740Q1180 861 1167 956T1121 1131T1036 1263T906 1345T722 1374Z" />
<glyph unicode="&#xd6;" horiz-adv-x="1449" d="M975 1806V1632H809V1806H975ZM430 1806H596V1632H430V1806ZM723 1491Q869 1491 979 1449T1171 1319T1293 1086T1335 741Q1335 341 1180 158T722 -25Q575 -25 465 17T275 149T155 387T114 740Q114 940 155 1085T277
1319T467 1449T723 1491ZM722 1374Q618 1374 540 1345T410 1264T326 1131T281 957T267 741Q267 404 371 249T723 93Q972 93 1076 247T1180 740Q1180 861 1167 956T1121 1131T1036 1263T906 1345T722 1374Z" />
<glyph unicode="&#xd7;" horiz-adv-x="734" d="M190 203L120 273L296 449L119 626L191 698L368 521L544 697L614 627L438 451L615 274L543 202L366 379L190 203Z" />
<glyph unicode="&#xd8;" horiz-adv-x="1463" d="M722 1374Q863 1374 961 1321L411 200Q267 344 267 741Q267 862 280 956T326 1131T409 1263T539 1345T722 1374ZM723 93Q583 93 489 142L1038 1262Q1180 1116 1180 740Q1180 401 1076 247T723 93ZM1335 741Q1335
1211 1098 1386L1210 1614L1126 1658L1016 1434Q895 1491 723 1491Q578 1491 468 1450T277 1320T156 1086T114 740Q114 251 352 78L235 -160L320 -204L434 30Q553 -25 722 -25Q1025 -25 1180 158T1335 741Z" />
<glyph unicode="&#xd9;" horiz-adv-x="1346" d="M433 1933H628L833 1614L739 1613L433 1933ZM123 574V1464H283V598Q283 504 292 433T327 297T396 189T509 123T676 98T842 122T954 189T1022 296T1057 433T1066 598V1464H1223V581Q1223 268 1088 122T670 -25Q394
-25 259 118T123 574Z" />
<glyph unicode="&#xda;" horiz-adv-x="1346" d="M732 1933H927L619 1613H527L732 1933ZM123 574V1464H283V598Q283 504 292 433T327 297T396 189T509 123T676 98T842 122T954 189T1022 296T1057 433T1066 598V1464H1223V581Q1223 268 1088 122T670 -25Q394 -25
259 118T123 574Z" />
<glyph unicode="&#xdb;" horiz-adv-x="1346" d="M581 1933H776L951 1613H859L678 1831L498 1613H406L581 1933ZM123 574V1464H283V598Q283 504 292 433T327 297T396 189T509 123T676 98T842 122T954 189T1022 296T1057 433T1066 598V1464H1223V581Q1223 268 1088
122T670 -25Q394 -25 259 118T123 574Z" />
<glyph unicode="&#xdc;" horiz-adv-x="1346" d="M962 1806V1632H796V1806H962ZM417 1806H583V1632H417V1806ZM123 574V1464H283V598Q283 504 292 433T327 297T396 189T509 123T676 98T842 122T954 189T1022 296T1057 433T1066 598V1464H1223V581Q1223 268 1088
122T670 -25Q394 -25 259 118T123 574Z" />
<glyph unicode="&#xdd;" horiz-adv-x="1162" d="M677 1933H872L564 1613H472L677 1933ZM508 549L-4 1464H154L582 682L1009 1464H1166L654 548V0H508V549Z" />
<glyph unicode="&#xde;" horiz-adv-x="1261" d="M140 0V1464H296V1194H561Q795 1194 936 1148T1140 1011T1203 773Q1203 528 1045 432T502 335H290V0H140ZM296 1080V449H558Q829 450 942 519T1055 765Q1055 943 940 1011T538 1080H296Z" />
<glyph unicode="&#xdf;" horiz-adv-x="1199" d="M130 0V1151Q130 1231 167 1297T267 1405T407 1469T568 1492Q754 1492 847 1411T940 1203Q940 1143 914 1092T848 1007T763 944T677 896T612 860T585 828V823Q585 795 614 770T691 722T796 674T910 618T1014 548T1091
456T1121 336Q1121 262 1109 214T1058 121T949 53T764 14T481 0H441V117Q608 117 715 131T879 174T955 240T975 332Q975 381 946 422T869 494T765 551T651 606T547 662T471 730T441 816Q441 867 478 906T569 974T675 1031T766 1105T804 1209Q804 1294 743 1341T565
1388Q448 1388 362 1322T276 1140V0H130Z" />
<glyph unicode="&#xe0;" horiz-adv-x="1025" d="M253 1492H448L653 1173L559 1172L253 1492ZM746 219Q573 73 414 73Q224 73 224 265Q224 302 235 330T272 379T330 416T415 445T519 468T648 490L746 505V219ZM771 0H888V673Q888 1044 512 1044Q255 1044 132 888Q217
808 217 807Q267 869 342 902T504 935Q636 935 691 873T746 643V601L647 586Q560 573 517 566T403 543T297 513T214 473T145 417T107 343T90 245Q90 117 175 47T389 -24Q583 -24 754 116L771 0Z" />
<glyph unicode="&#xe1;" horiz-adv-x="1025" d="M582 1492H777L469 1172H377L582 1492ZM746 219Q573 73 414 73Q224 73 224 265Q224 302 235 330T272 379T330 416T415 445T519 468T648 490L746 505V219ZM771 0H888V673Q888 1044 512 1044Q255 1044 132 888Q217
808 217 807Q267 869 342 902T504 935Q636 935 691 873T746 643V601L647 586Q560 573 517 566T403 543T297 513T214 473T145 417T107 343T90 245Q90 117 175 47T389 -24Q583 -24 754 116L771 0Z" />
<glyph unicode="&#xe2;" horiz-adv-x="1025" d="M416 1492H611L786 1172H694L513 1390L333 1172H241L416 1492ZM746 219Q573 73 414 73Q224 73 224 265Q224 302 235 330T272 379T330 416T415 445T519 468T648 490L746 505V219ZM771 0H888V673Q888 1044 512 1044Q255
1044 132 888Q217 808 217 807Q267 869 342 902T504 935Q636 935 691 873T746 643V601L647 586Q560 573 517 566T403 543T297 513T214 473T145 417T107 343T90 245Q90 117 175 47T389 -24Q583 -24 754 116L771 0Z" />
<glyph unicode="&#xe3;" horiz-adv-x="1025" d="M382 1288Q403 1287 501 1245T653 1202T747 1240T788 1360Q788 1371 786 1395H689Q689 1299 650 1299Q629 1299 519 1345T366 1391Q238 1391 238 1241Q238 1215 240 1200H336Q336 1243 349 1265T382 1288ZM746 219Q573
73 414 73Q224 73 224 265Q224 302 235 330T272 379T330 416T415 445T519 468T648 490L746 505V219ZM771 0H888V673Q888 1044 512 1044Q255 1044 132 888Q217 808 217 807Q267 869 342 902T504 935Q636 935 691 873T746 643V601L647 586Q560 573 517 566T403 543T297
513T214 473T145 417T107 343T90 245Q90 117 175 47T389 -24Q583 -24 754 116L771 0Z" />
<glyph unicode="&#xe4;" horiz-adv-x="1025" d="M781 1365V1191H615V1365H781ZM236 1365H402V1191H236V1365ZM746 219Q573 73 414 73Q224 73 224 265Q224 302 235 330T272 379T330 416T415 445T519 468T648 490L746 505V219ZM771 0H888V673Q888 1044 512 1044Q255
1044 132 888Q217 808 217 807Q267 869 342 902T504 935Q636 935 691 873T746 643V601L647 586Q560 573 517 566T403 543T297 513T214 473T145 417T107 343T90 245Q90 117 175 47T389 -24Q583 -24 754 116L771 0Z" />
<glyph unicode="&#xe5;" horiz-adv-x="1025" d="M510 1592Q406 1592 348 1527T289 1374T347 1223T510 1160Q617 1160 677 1224T737 1376T678 1528T510 1592ZM387 1324T387 1376T419 1468T510 1508T600 1468T633 1376T601 1284T510 1243T420 1283ZM746 219Q573
73 414 73Q224 73 224 265Q224 302 235 330T272 379T330 416T415 445T519 468T648 490L746 505V219ZM771 0H888V673Q888 1044 512 1044Q255 1044 132 888Q217 808 217 807Q267 869 342 902T504 935Q636 935 691 873T746 643V601L647 586Q560 573 517 566T403 543T297
513T214 473T145 417T107 343T90 245Q90 117 175 47T389 -24Q583 -24 754 116L771 0Z" />
<glyph unicode="&#xe6;" horiz-adv-x="1667" d="M133 927Q302 1044 518 1044Q647 1044 734 991T842 832Q887 931 982 987T1191 1044Q1295 1044 1372 1009T1496 910T1565 761T1587 572Q1587 534 1584 508L900 494Q900 81 1191 81Q1253 81 1303 102T1384 157T1431
219T1455 273L1570 234Q1528 120 1426 49T1195 -24Q1072 -24 977 32T845 195Q777 72 672 24T429 -25Q337 -25 262 2T135 94T84 251Q84 344 122 409T235 510T400 562T613 581Q618 581 685 583T752 586Q752 663 748 713T730 811T691 884T625 925T523 940Q465 940
420 933T334 909T269 879T203 838L133 927ZM771 318Q771 341 766 409T761 487L620 482Q546 478 494 472T388 451T301 412T247 349T226 256Q226 170 289 125T440 80Q504 80 562 95T668 138T743 213T771 318ZM1450 606Q1449 770 1387 855T1187 941Q1057 941 983 841T901
592L1450 606Z" />
<glyph unicode="&#xe7;" horiz-adv-x="979" d="M427 -174V-10H627V-189Q627 -269 593 -329T491 -390Q470 -390 449 -381V-316Q479 -324 486 -324Q508 -324 517 -293T526 -174H427ZM92 509Q92 666 141 785T292 974T538 1044Q600 1044 654 1029T760 980T851 883T911
733L792 701Q760 823 701 881T544 940Q390 940 314 826T237 512Q237 415 254 338T305 203T397 113T531 81Q730 81 799 316L908 282Q890 201 851 140T759 44T648 -7T528 -24Q316 -24 204 121T92 509Z" />
<glyph unicode="&#xe8;" horiz-adv-x="1020" d="M267 1492H462L667 1173L573 1172L267 1492ZM532 1044Q636 1044 715 1008T843 906T915 754T939 564Q939 530 936 504H237Q237 417 254 343T305 209T399 115T537 81Q638 81 703 127T795 258L905 234Q882 149 824
90T694 4T541 -24H537Q424 -24 337 20T197 139T118 309T92 512Q92 751 208 897T532 1044ZM802 597Q801 761 734 851T528 941Q461 941 408 914T321 839T266 730T240 597H802Z" />
<glyph unicode="&#xe9;" horiz-adv-x="1020" d="M631 1492H826L518 1172H426L631 1492ZM532 1044Q636 1044 715 1008T843 906T915 754T939 564Q939 530 936 504H237Q237 417 254 343T305 209T399 115T537 81Q638 81 703 127T795 258L905 234Q882 149 824 90T694
4T541 -24H537Q424 -24 337 20T197 139T118 309T92 512Q92 751 208 897T532 1044ZM802 597Q801 761 734 851T528 941Q461 941 408 914T321 839T266 730T240 597H802Z" />
<glyph unicode="&#xea;" horiz-adv-x="1020" d="M445 1492H640L815 1172H723L542 1390L362 1172H270L445 1492ZM532 1044Q636 1044 715 1008T843 906T915 754T939 564Q939 530 936 504H237Q237 417 254 343T305 209T399 115T537 81Q638 81 703 127T795 258L905
234Q882 149 824 90T694 4T541 -24H537Q424 -24 337 20T197 139T118 309T92 512Q92 751 208 897T532 1044ZM802 597Q801 761 734 851T528 941Q461 941 408 914T321 839T266 730T240 597H802Z" />
<glyph unicode="&#xeb;" horiz-adv-x="1020" d="M532 1044Q636 1044 715 1008T843 906T915 754T939 564Q939 530 936 504H237Q237 417 254 343T305 209T399 115T537 81Q638 81 703 127T795 258L905 234Q882 149 824 90T694 4T541 -24H537Q424 -24 337 20T197 139T118
309T92 512Q92 751 208 897T532 1044ZM802 597Q801 761 734 851T528 941Q461 941 408 914T321 839T266 730T240 597H802ZM795 1365V1191H629V1365H795ZM250 1365H416V1191H250V1365Z" />
<glyph unicode="&#xec;" horiz-adv-x="411" d="M178 1492H373L578 1173L484 1172L178 1492ZM140 0V1023H282V0H140Z" />
<glyph unicode="&#xed;" horiz-adv-x="411" d="M140 0V1023H282V0H140ZM339 1492H534L226 1172H134L339 1492Z" />
<glyph unicode="&#xee;" horiz-adv-x="411" d="M140 0V1023H282V0H140ZM115 1492H310L485 1172H393L212 1390L32 1172H-60L115 1492Z" />
<glyph unicode="&#xef;" horiz-adv-x="411" d="M482 1365V1191H316V1365H482ZM-63 1365H103V1191H-63V1365ZM140 0V1023H282V0H140Z" />
<glyph unicode="&#xf0;" horiz-adv-x="1053" d="M368 1101L559 1225Q408 1339 169 1339V1432Q460 1432 648 1283L854 1418L907 1343L715 1218Q817 1112 888 921T959 529Q959 407 934 309T858 134T720 17T518 -25Q414 -25 332 15T198 122T121 275T94 454Q94 560
128 647T220 791T351 877T503 908Q680 908 810 774Q796 878 738 988T618 1155L421 1026L368 1101ZM523 798Q400 798 318 702T235 439Q235 275 314 180T518 84Q670 84 746 199T823 511Q823 620 816 650Q681 798 523 798Z" />
<glyph unicode="&#xf1;" horiz-adv-x="1085" d="M442 1288Q463 1287 561 1245T713 1202T807 1240T848 1360Q848 1371 846 1395H749Q749 1299 710 1299Q689 1299 579 1345T426 1391Q298 1391 298 1241Q298 1215 300 1200H396Q396 1243 409 1265T442 1288ZM127 0V1023H265Q265
1011 265 991T265 929T265 858V830Q284 885 324 927T414 994T518 1031T623 1044Q682 1044 730 1033T813 1001T873 954T915 891T941 821T957 742T963 663T965 584V0H823V603Q823 667 818 715T797 805T758 873T695 915T603 930Q526 930 468 908T372 848T311 754T279
637T269 499V0H127Z" />
<glyph unicode="&#xf2;" horiz-adv-x="1064" d="M263 1492H458L663 1173L569 1172L263 1492ZM533 1044Q730 1044 851 909T972 513Q972 255 854 116T532 -24T211 114T92 510Q92 772 213 908T533 1044ZM532 940Q448 940 388 904T297 803T251 668T237 513Q237 446
245 387T274 271T327 172T412 106T533 81Q600 81 652 106T737 171T791 269T820 385T828 511Q828 577 820 636T790 752T737 849T652 915T532 940Z" />
<glyph unicode="&#xf3;" horiz-adv-x="1064" d="M600 1492H795L487 1172H395L600 1492ZM533 1044Q730 1044 851 909T972 513Q972 255 854 116T532 -24T211 114T92 510Q92 772 213 908T533 1044ZM532 940Q448 940 388 904T297 803T251 668T237 513Q237 446 245
387T274 271T327 172T412 106T533 81Q600 81 652 106T737 171T791 269T820 385T828 511Q828 577 820 636T790 752T737 849T652 915T532 940Z" />
<glyph unicode="&#xf4;" horiz-adv-x="1064" d="M441 1492H636L811 1172H719L538 1390L358 1172H266L441 1492ZM533 1044Q730 1044 851 909T972 513Q972 255 854 116T532 -24T211 114T92 510Q92 772 213 908T533 1044ZM532 940Q448 940 388 904T297 803T251 668T237
513Q237 446 245 387T274 271T327 172T412 106T533 81Q600 81 652 106T737 171T791 269T820 385T828 511Q828 577 820 636T790 752T737 849T652 915T532 940Z" />
<glyph unicode="&#xf5;" horiz-adv-x="1064" d="M382 1288Q403 1287 501 1245T653 1202T747 1240T788 1360Q788 1371 786 1395H689Q689 1299 650 1299Q629 1299 519 1345T366 1391Q238 1391 238 1241Q238 1215 240 1200H336Q336 1243 349 1265T382 1288ZM533 1044Q730
1044 851 909T972 513Q972 255 854 116T532 -24T211 114T92 510Q92 772 213 908T533 1044ZM532 940Q448 940 388 904T297 803T251 668T237 513Q237 446 245 387T274 271T327 172T412 106T533 81Q600 81 652 106T737 171T791 269T820 385T828 511Q828 577 820 636T790
752T737 849T652 915T532 940Z" />
<glyph unicode="&#xf6;" horiz-adv-x="1064" d="M805 1365V1191H639V1365H805ZM260 1365H426V1191H260V1365ZM533 1044Q730 1044 851 909T972 513Q972 255 854 116T532 -24T211 114T92 510Q92 772 213 908T533 1044ZM532 940Q448 940 388 904T297 803T251 668T237
513Q237 446 245 387T274 271T327 172T412 106T533 81Q600 81 652 106T737 171T791 269T820 385T828 511Q828 577 820 636T790 752T737 849T652 915T532 940Z" />
<glyph unicode="&#xf7;" horiz-adv-x="1024" d="M565 385V171H392V385H565ZM392 1024H565V808H392V1024ZM850 551V649H100V551H850Z" />
<glyph unicode="&#xf8;" horiz-adv-x="1064" d="M532 940Q621 940 683 898L334 164Q237 273 237 513Q237 597 251 668T296 803T388 903T532 940ZM533 81Q457 81 400 112L745 838Q828 727 828 511Q828 444 820 385T791 269T738 172T653 106T533 81ZM972 513Q972
818 801 956L906 1178L834 1216L732 1001Q645 1044 533 1044Q334 1044 213 908T92 510Q92 187 280 50L181 -159L254 -197L352 10Q432 -24 532 -24Q735 -24 853 115T972 513Z" />
<glyph unicode="&#xf9;" horiz-adv-x="1127" d="M233 1492H428L633 1173L539 1172L233 1492ZM813 436V1023H955V0H817V192Q777 86 675 31T458 -24Q393 -24 341 -9T254 31T194 94T155 170T133 257T123 346T121 436V1023H263V406Q263 248 312 168T483 87Q558 87
618 112T713 174T772 260T804 352T813 436Z" />
<glyph unicode="&#xfa;" horiz-adv-x="1127" d="M611 1492H806L498 1172H406L611 1492ZM813 436V1023H955V0H817V192Q777 86 675 31T458 -24Q393 -24 341 -9T254 31T194 94T155 170T133 257T123 346T121 436V1023H263V406Q263 248 312 168T483 87Q558 87 618 112T713
174T772 260T804 352T813 436Z" />
<glyph unicode="&#xfb;" horiz-adv-x="1127" d="M458 1492H653L828 1172H736L555 1390L375 1172H283L458 1492ZM813 436V1023H955V0H817V192Q777 86 675 31T458 -24Q393 -24 341 -9T254 31T194 94T155 170T133 257T123 346T121 436V1023H263V406Q263 248 312 168T483
87Q558 87 618 112T713 174T772 260T804 352T813 436Z" />
<glyph unicode="&#xfc;" horiz-adv-x="1127" d="M813 436V1023H955V0H817V192Q777 86 675 31T458 -24Q393 -24 341 -9T254 31T194 94T155 170T133 257T123 346T121 436V1023H263V406Q263 248 312 168T483 87Q558 87 618 112T713 174T772 260T804 352T813 436ZM811
1365V1191H645V1365H811ZM266 1365H432V1191H266V1365Z" />
<glyph unicode="&#xfd;" horiz-adv-x="985" d="M541 1492H736L428 1172H336L541 1492ZM426 64L34 1023H180Q180 1023 237 876Q294 730 374 525T498 211Q584 435 815 1023H955Q886 848 757 527T584 97Q548 6 522 -50T458 -164T383 -251T290 -301T169 -320Q116 -320
64 -306L79 -193Q125 -200 167 -200Q336 -200 403 -3L426 64Z" />
<glyph unicode="&#xfe;" horiz-adv-x="1058" d="M272 1464V874Q371 1044 573 1044Q673 1044 750 1004T873 891T943 726T967 520Q967 404 944 307T874 136T752 20T580 -24Q476 -24 397 22T273 154V21V-378L131 -394V1464H272ZM822 521Q822 725 745 834T559 943Q445
943 359 829T273 519Q273 81 559 81Q683 81 752 197T822 521Z" />
<glyph unicode="&#xff;" horiz-adv-x="985" d="M763 1365V1191H597V1365H763ZM218 1365H384V1191H218V1365ZM426 64L34 1023H180Q180 1023 237 876Q294 730 374 525T498 211Q584 435 815 1023H955Q886 848 757 527T584 97Q548 6 522 -50T458 -164T383 -251T290
-301T169 -320Q116 -320 64 -306L79 -193Q125 -200 167 -200Q336 -200 403 -3L426 64Z" />
<glyph unicode="&#x2013;" horiz-adv-x="1024" d="M135 334V420H889V334H135Z" />
<glyph unicode="&#x2014;" horiz-adv-x="2048" d="M135 334V420H1913V334H135Z" />
<glyph unicode="&#x2018;" horiz-adv-x="330" d="M145 1469Q145 1468 179 1450T214 1431Q166 1351 151 1310T136 1200L230 1187V992H30V1089Q30 1134 30 1152T32 1210T38 1270T50 1323T71 1377T102 1424T145 1469Z" />
<glyph unicode="&#x2019;" horiz-adv-x="330" d="M100 1292V1464H300Q299 1441 299 1389T298 1310T294 1240T281 1167T257 1104T218 1042T160 991L111 1054Q137 1078 162 1136T190 1274L168 1278Q145 1282 122 1287L100 1292Z" />
<glyph unicode="&#x201a;" horiz-adv-x="436" d="M128 -81V93H320Q316 -77 304 -144Q274 -301 159 -382L110 -319Q136 -295 161 -237T189 -99Q128 -82 128 -81Z" />
<glyph unicode="&#x201c;" horiz-adv-x="630" d="M459 1473L508 1410Q480 1384 455 1331T427 1196L530 1183V995H330V1084Q330 1096 331 1134T333 1186T336 1233T342 1281T352 1323T367 1366T389 1403T419 1440T459 1473ZM165 1473L214 1410Q186 1384 161 1331T133
1197L230 1183V995H30V1084Q30 1145 31 1177T39 1259T59 1342T99 1410T165 1473Z" />
<glyph unicode="&#x201d;" horiz-adv-x="631" d="M401 1292V1464H601Q601 1446 600 1398T598 1330T594 1267T585 1202T569 1144T543 1086T505 1037T453 991L402 1054Q428 1076 454 1134T482 1273L401 1292ZM100 1292V1464H301Q301 1442 301 1389T299 1310T295
1239T282 1167T257 1104T218 1042T160 991L110 1054Q136 1077 162 1135T190 1274L168 1278Q145 1282 122 1287L100 1292Z" />
<glyph unicode="&#x201e;" horiz-adv-x="744" d="M434 -81V93H628Q624 -77 612 -144Q582 -301 467 -382L418 -319Q444 -295 469 -237T497 -99Q434 -82 434 -81ZM126 -81V93H320Q316 -77 304 -144Q274 -301 159 -382L110 -319Q136 -295 161 -237T189 -99Q188 -99
186 -99T179 -97T169 -94T158 -91T146 -88T136 -85T128 -82L126 -81Z" />
<glyph unicode="&#x2039;" horiz-adv-x="528" d="M51 552V749L435 1050V909L149 650L435 393V251L51 552Z" />
<glyph unicode="&#x203a;" horiz-adv-x="528" d="M435 552V749L51 1050V909L337 650L51 393V251L435 552Z" />
</font>
</defs>
</svg>
