<?xml version="1.0" standalone="no"?>
<!DOCTYPE svg PUBLIC "-//W3C//DTD SVG 1.1//EN" "http://www.w3.org/Graphics/SVG/1.1/DTD/svg11.dtd">
<svg xmlns="http://www.w3.org/2000/svg">
<defs >
<font id="GFSNeohellenic" horiz-adv-x="514" ><font-face
    font-family="GFS Neohellenic"
    units-per-em="1000"
    panose-1="2 0 8 0 0 0 0 9 0 3"
    ascent="872"
    descent="-264"
    alphabetic="0" />
<glyph unicode=" " glyph-name="space" horiz-adv-x="398" />
<glyph unicode="!" glyph-name="exclam" horiz-adv-x="335" d="M300 626Q283 590 248 428Q224 317 197 179H79Q89 210 136 428Q168 582 168 614Q168 623 167 626H300ZM100 -10Q76 -10 61 5T45 44Q45 74 71 100Q96 125 128 125Q152 125 167 110T183 71Q183 41 157
15Q132 -10 100 -10Z" />
<glyph unicode="&quot;" glyph-name="quotedbl" horiz-adv-x="174" d="M158 626L103 449H54L93 630L158 626ZM252 626L197 449H148L187 630L252 626Z" />
<glyph unicode="#" glyph-name="numbersign" horiz-adv-x="742" d="M342 249H469Q476 267 482 282T495 313T507 344T522 379H396L342 249ZM734 249L700 165H521Q504 125 486 82T450 -1H362L434 165H307Q290 125 272 82T236 -1H148L220 165H65L99 249H255Q262 267
268 282T281 313T293 344T308 379H153L189 463H344Q361 503 380 547T415 632H502L432 463H558Q575 503 594 547T629 632H716L646 463H825L788 379H610Q602 361 596 346T584 315T571 284T556 249H734Z" />
<glyph unicode="$" glyph-name="dollar" horiz-adv-x="625" d="M580 614L548 459H480Q480 474 478 483T472 498T463 508T454 516Q440 527 411 530L377 372Q531 321 531 204Q531 174 521 147Q510 113 489 85T438 35T372 1T295 -16L272 -123H202L225 -15Q207 -13
186 -8T140 5Q126 9 113 13T85 22Q51 31 41 29L76 193H146Q145 166 164 147Q192 118 251 108L286 272Q214 300 185 325Q140 361 140 415Q140 431 144 446Q177 614 364 639L383 728H453L434 642Q448 640 468 635T517 622Q559 610 580 614ZM340 527Q304 518 286 492Q271
469 271 451Q271 418 312 395L340 527ZM386 157Q392 169 392 181Q392 216 350 243L320 105Q367 114 386 157Z" />
<glyph unicode="%" glyph-name="percent" horiz-adv-x="776" d="M696 157Q656 -6 544 -6Q455 -6 455 92Q455 174 493 242Q538 323 614 323Q705 323 705 226Q705 194 696 157ZM623 152Q630 183 630 203Q630 239 597 239Q551 239 532 152Q530 138 529 128T527 109Q527
69 560 69Q603 69 623 152ZM329 483Q288 321 178 321Q89 321 89 419Q89 502 126 569Q171 649 247 649Q338 649 338 552Q338 522 329 483ZM258 478Q266 513 266 529Q266 565 232 565Q186 565 168 478Q162 451 162 435Q162 395 196 395Q238 395 258 478ZM631 647L237
-88H123L515 647H631Z" />
<glyph unicode="&amp;" glyph-name="ampersand" horiz-adv-x="628" d="M589 288Q573 191 513 131L585 0H466L434 54Q409 35 387 22T343 2Q299 -14 229 -12Q65 -7 65 136Q65 157 70 180Q98 298 248 372Q209 436 209 474Q209 491 213 508Q224 561 279 600Q334 640
402 640Q465 640 497 593Q521 556 516 516Q502 418 387 351L457 226Q462 231 466 237T476 248Q482 257 490 288H589ZM420 512Q420 552 384 552Q357 552 338 536T317 504Q311 447 341 422Q420 456 420 512ZM381 138L287 296Q193 255 183 181Q178 144 200 121T256
94Q326 83 381 138Z" />
<glyph unicode="&apos;" glyph-name="quotesingle" horiz-adv-x="75" d="M145 625L90 449H6L45 631L145 625Z" />
<glyph unicode="(" glyph-name="parenleft" horiz-adv-x="443" d="M440 654Q236 397 202 213Q192 164 192 102Q192 -50 247 -227H148Q63 -35 63 107Q63 171 76 233Q101 350 166 454Q221 544 330 654H440Z" />
<glyph unicode=")" glyph-name="parenright" horiz-adv-x="432" d="M381 210Q333 -46 117 -224H11Q105 -95 152 -11Q213 100 239 204Q265 317 265 393Q265 460 244 528Q233 560 221 591T198 654H308Q392 493 392 330Q392 300 389 270T381 210Z" />
<glyph unicode="*" glyph-name="asterisk" horiz-adv-x="522" d="M449 445Q420 442 341 400Q397 362 427 355L363 274Q352 294 291 336Q279 277 282 246H188Q202 267 218 337Q145 297 128 279L98 360Q115 364 139 374T194 400Q139 437 112 440L176 522Q184 511
201 497T245 463Q265 553 259 577H353Q337 548 319 465Q394 504 420 527L449 445Z" />
<glyph unicode="+" glyph-name="plus" horiz-adv-x="631" d="M585 293L565 194H343L302 0H195L237 194H35L56 293H258L297 478H404L364 293H585Z" />
<glyph unicode="," glyph-name="comma" horiz-adv-x="206" d="M182 67L169 6Q145 -107 26 -121L32 -78Q75 -71 90 0H62L76 67H182Z" />
<glyph unicode="-" glyph-name="hyphen" horiz-adv-x="313" d="M280 257L262 173H34L52 257H280Z" />
<glyph unicode="." glyph-name="period" horiz-adv-x="251" d="M115 -10Q91 -10 76 5T60 44Q60 74 86 100Q111 125 143 125Q167 125 182 110T198 71Q198 41 172 15Q147 -10 115 -10Z" />
<glyph unicode="/" glyph-name="slash" horiz-adv-x="411" d="M463 647L69 -88H-45L347 647H463Z" />
<glyph unicode="0" glyph-name="zero" horiz-adv-x="535" d="M503 306Q466 153 403 75Q326 -18 198 -17Q18 -16 18 183Q18 211 21 241T31 307Q59 458 133 545Q214 641 337 641Q521 641 521 442Q521 381 503 306ZM379 308Q398 390 398 435Q398 527 314 527Q199
527 153 308Q146 274 143 248T139 201Q139 101 223 101Q329 101 379 308Z" />
<glyph unicode="1" glyph-name="one" horiz-adv-x="535" d="M421 625Q408 596 389 518T342 312Q329 252 322 214T310 156Q300 103 295 65T287 0H137Q150 40 169 118T213 314Q226 371 249 496Q234 498 208 496L225 574Q269 586 308 625H421Z" />
<glyph unicode="2" glyph-name="two" horiz-adv-x="535" d="M543 490Q543 355 383 222Q331 179 293 150T232 103H302Q304 103 307 103T315 102H330Q375 102 387 146H487Q473 100 465 64T453 1Q74 5 1 1L16 67Q27 75 65 103T169 182Q201 207 226 228T272 268Q347
337 382 392Q411 439 411 474Q411 530 348 530Q304 530 278 504Q245 474 242 444Q179 442 116 444Q117 455 119 465T126 485Q145 533 189 574Q266 643 393 642Q543 640 543 490Z" />
<glyph unicode="3" glyph-name="three" horiz-adv-x="536" d="M519 511Q516 448 473 407Q429 365 372 356Q399 353 421 341T460 310T485 265T494 211Q494 168 474 123Q430 27 290 -8Q251 -18 202 -18Q87 -18 10 26L92 135Q115 121 127 114T142 105Q155 100 172
97T213 92Q327 86 358 168Q364 184 364 201Q364 257 313 275Q277 288 213 291L232 386Q280 390 325 413Q385 444 396 491Q397 495 397 498T398 505Q398 551 335 548Q262 544 225 484L110 500Q157 587 246 621Q311 647 380 642Q446 638 480 613Q523 581 519 511Z"
/>
<glyph unicode="4" glyph-name="four" horiz-adv-x="537" d="M510 625Q497 587 476 498T425 264Q438 265 455 267T494 271L469 153Q455 157 439 158T403 161Q399 140 394 100T381 0H231Q238 25 248 65T275 162Q181 163 15 162L29 227Q73 273 111 313T185 391Q348
566 392 625Q506 622 510 625ZM323 397L195 260Q222 259 295 260Q326 405 326 406Q324 404 323 397Z" />
<glyph unicode="5" glyph-name="five" horiz-adv-x="536" d="M543 623Q526 573 515 500H430Q428 522 409 527Q411 526 363 526H238Q231 514 213 433Q230 435 246 436T279 437Q386 437 439 396Q508 342 508 251Q508 161 444 88Q373 6 244 -9Q215 -13 178 -14T93
-16H26Q12 -17 3 -17T-11 -18L14 100Q48 93 81 91T147 90Q326 102 359 194Q369 221 369 245Q369 290 331 316Q299 338 243 338Q206 338 170 328Q156 323 145 308H68Q99 452 114 531T129 624Q158 622 208 621T334 617Q413 616 543 623Z" />
<glyph unicode="6" glyph-name="six" horiz-adv-x="522" d="M516 559Q502 553 488 547T460 534Q396 503 350 466Q225 365 182 261Q161 210 161 169Q161 98 216 86Q229 83 243 83Q323 83 349 163Q353 175 353 189Q353 222 327 239T264 256Q229 256 206 242L260
343Q297 355 353 352Q417 347 452 301Q483 260 483 196Q481 108 418 46Q349 -23 240 -24Q134 -25 76 29Q25 78 25 162Q25 193 32 222Q61 357 186 479Q298 589 459 642L516 559Z" />
<glyph unicode="7" glyph-name="seven" horiz-adv-x="584" d="M550 627L535 557Q450 472 448 469Q421 440 396 407T348 338Q293 252 249 150Q206 51 203 -1Q46 -5 43 -1Q118 179 194 306T355 526H210Q156 526 146 514Q137 505 129 477H45Q61 526 81 626Q144 624
195 623T286 621Q377 621 550 627Z" />
<glyph unicode="8" glyph-name="eight" horiz-adv-x="584" d="M537 491Q518 376 410 354Q452 341 474 301T497 206Q497 98 413 37Q338 -17 225 -17Q134 -17 83 34Q38 79 38 150Q38 170 43 195Q57 256 102 300Q150 348 212 350Q139 378 139 454Q139 475 145 501Q162
574 231 611Q292 643 371 643Q452 643 497 607Q539 572 539 516Q539 510 539 504T537 491ZM424 493Q424 546 350 546Q314 546 283 523Q249 498 249 463Q249 437 269 418T321 397Q341 398 359 406T392 426T415 456T424 493ZM379 182Q382 197 382 210Q382 279 300
301Q246 290 206 256Q160 216 160 166Q160 133 185 109T253 85Q298 85 333 113Q370 141 379 182Z" />
<glyph unicode="9" glyph-name="nine" horiz-adv-x="584" d="M525 395Q494 247 369 133Q258 31 102 -23L45 60L102 87Q168 121 212 156Q336 255 378 358Q399 409 399 450Q399 521 344 533Q330 536 317 536Q236 536 212 456Q207 441 207 429Q207 396 233 378T294
360Q329 360 355 377L298 271Q265 260 205 262Q143 264 107 313Q74 356 74 419Q74 453 84 480Q138 641 331 641Q433 641 486 588Q532 541 532 460Q532 427 525 395Z" />
<glyph unicode=":" glyph-name="colon" horiz-adv-x="289" d="M168 261Q145 261 129 276T113 315Q113 345 139 371Q164 396 197 396Q220 396 235 381T251 342Q251 312 225 286Q200 261 168 261ZM110 -10Q87 -10 72 5T56 44Q56 74 82 100Q107 125 139 125Q163 125
178 110T194 71Q194 41 168 15Q143 -10 110 -10Z" />
<glyph unicode=";" glyph-name="semicolon" horiz-adv-x="306" d="M194 258Q171 258 156 273T140 312Q140 342 166 368Q191 393 223 393Q246 393 262 378T278 339Q278 308 251 283Q226 258 194 258ZM59 -121L70 -68Q124 -58 138 -14Q116 -14 100 1T83 41Q83 73
109 97Q135 122 167 122Q190 122 204 107T218 67Q218 -2 172 -54Q128 -106 59 -121Z" />
<glyph unicode="&lt;" glyph-name="less" horiz-adv-x="493" d="M487 625L456 496L178 282L361 45L339 -67L68 258L77 304L487 625Z" />
<glyph unicode="=" glyph-name="equalorig" horiz-adv-x="788" d="M698 394L679 305H127L146 394H698ZM661 221L642 131H90L109 221H661Z" />
<glyph unicode="&gt;" glyph-name="greater" horiz-adv-x="508" d="M464 304L454 258L39 -87L69 58L351 290L170 519L195 645L464 304Z" />
<glyph unicode="?" glyph-name="question" horiz-adv-x="499" d="M431 403Q408 347 325 269Q253 200 245 148H111Q128 211 165 260Q176 274 193 292T234 333Q274 372 289 393Q315 434 315 461Q315 515 236 514Q167 512 140 445H65L99 604Q113 605 133 608T182
618Q237 631 260 633Q344 638 395 595Q448 553 448 483Q448 445 431 403ZM140 -13Q116 -13 101 2T85 41Q85 72 111 98Q136 123 168 123Q192 123 208 107T224 67Q224 33 199 10T140 -13Z" />
<glyph unicode="@" glyph-name="at" horiz-adv-x="1043" d="M696 -23Q586 -8 573 79Q564 57 547 39T507 8T459 -12T407 -19Q331 -19 287 28Q247 71 247 142Q247 167 253 193Q269 269 334 325Q404 386 493 386Q550 386 582 358T619 287Q633 322 669 355Q709 389
755 398L747 307Q706 287 678 240Q651 193 651 147Q651 105 674 83T740 60Q791 60 830 104Q872 149 889 237Q895 267 895 295Q895 396 827 456Q753 521 614 521Q439 521 305 399Q168 274 168 102Q168 -8 234 -77Q308 -154 439 -154Q447 -154 456 -154T474 -153Q450
-266 447 -263Q254 -263 148 -151Q53 -51 53 104Q53 152 64 205Q101 383 260 504Q424 629 639 624Q814 619 911 527Q1005 440 1005 300Q1005 255 995 212Q971 98 898 34Q829 -26 735 -26Q715 -26 696 -23ZM546 207Q546 243 522 267T462 292Q425 292 390 261Q355
229 346 188Q343 171 343 158Q343 121 363 98T418 75Q467 75 506 116Q546 157 546 207Z" />
<glyph unicode="A" glyph-name="A" horiz-adv-x="638" d="M610 0H474Q451 163 450 162H254Q213 97 161 0H17Q49 49 144 206T399 633H504Q517 548 528 475T550 338Q600 35 610 0ZM440 282Q435 325 430 367T419 451Q394 408 370 366T320 282H440Z" />
<glyph unicode="B" glyph-name="B" horiz-adv-x="603" d="M606 460Q591 389 532 351Q488 322 449 324Q492 323 525 297Q566 265 566 209Q566 190 561 165Q537 72 450 30Q387 0 308 0H7Q26 39 45 125Q46 132 84 308L123 494Q143 590 140 625H439Q505 625 551 600Q611
565 611 499Q611 482 606 460ZM469 454Q470 459 470 463T471 472Q471 497 454 512T411 527L260 526L228 377H379Q452 377 469 454ZM427 185Q428 190 428 195T429 205Q429 242 394 260Q374 270 351 270H205L170 104H325Q353 104 380 119Q418 142 427 185Z" />
<glyph unicode="C" glyph-name="C" horiz-adv-x="562" d="M570 616Q567 602 562 562T550 454H468V475Q466 486 463 490Q440 518 377 516Q310 514 252 464Q185 406 164 308Q158 279 158 255Q158 186 198 147T303 112Q363 117 388 137Q400 146 413 174L497 175Q486
140 473 98T446 6Q419 10 359 -5Q310 -18 255 -18Q233 -18 214 -15Q121 -1 69 74Q20 144 20 246Q20 265 22 284T28 323Q57 469 156 555Q256 642 401 642Q425 642 488 626Q546 611 570 616Z" />
<glyph unicode="D" glyph-name="D" horiz-adv-x="672" d="M649 302Q623 164 520 79Q425 0 255 0H7Q13 14 19 32T32 75Q39 99 52 158T85 312Q93 348 104 402T130 529Q143 596 142 625H397Q470 625 530 599T621 526Q657 470 657 389Q657 369 655 347T649 302ZM511
303Q520 343 520 373Q520 425 488 469Q453 517 368 517H261Q256 498 251 474T238 419Q231 389 226 365T216 321Q211 301 201 247T173 104H276Q366 104 425 156Q491 213 511 303Z" />
<glyph unicode="E" glyph-name="E" horiz-adv-x="588" d="M603 626Q586 573 574 489H491Q492 507 488 514Q484 521 429 521H254L223 378Q440 378 476 392L449 266Q405 281 201 278L163 107H364Q415 107 426 119Q435 130 442 150H524Q517 124 510 87T492 0Q419
3 363 4T267 5Q174 5 2 -1Q23 43 83 324Q93 370 102 415T121 506Q131 552 135 582T138 627Q186 624 375 621Q415 620 471 621T603 626Z" />
<glyph unicode="F" glyph-name="F" horiz-adv-x="581" d="M605 627Q599 612 587 551Q584 531 578 494H494Q495 499 495 507Q495 526 455 526H257L224 368H308Q441 368 477 382L450 256Q417 266 287 266H236Q225 266 216 266T199 265Q195 246 189 215T173 138Q155
49 158 0H6Q13 12 25 57Q37 100 85 324Q89 343 94 370T107 432Q115 468 120 495T130 541Q140 589 137 628Q175 628 255 625Q334 622 377 622Q409 622 437 622T490 623Q529 624 557 625T605 627Z" />
<glyph unicode="G" glyph-name="G" horiz-adv-x="611" d="M596 620Q593 606 588 565T576 454H493Q496 479 488 490T450 509Q418 518 381 518Q314 516 257 465Q190 407 169 308Q167 294 166 281T164 255Q164 188 202 150T300 110Q412 109 426 169L432 196H407Q402
195 395 194T380 188Q373 183 369 164H285Q311 255 316 311Q407 310 471 310T575 310Q569 291 550 212T498 -8Q464 6 441 6Q410 6 364 -5Q317 -17 261 -17Q236 -17 217 -14Q124 0 72 76Q23 146 23 249Q23 268 25 287T31 326Q58 465 160 554Q263 642 406 642Q467
642 514 630Q562 618 578 618Q586 618 596 620Z" />
<glyph unicode="H" glyph-name="H" horiz-adv-x="690" d="M716 625Q708 606 699 574T678 495Q668 449 659 403T639 310Q582 46 585 0H433Q444 25 460 88T498 256H200Q155 44 157 0H5Q23 38 44 127Q83 313 104 416T131 542Q140 588 137 625H289Q260 563 223 370H522Q568
577 565 625H716Z" />
<glyph unicode="I" glyph-name="I" horiz-adv-x="260" d="M289 623Q281 604 272 573T252 495Q242 449 232 404T212 312Q202 266 193 221T174 129Q154 37 156 0H5Q22 36 45 128Q45 129 84 314Q94 360 103 405T123 496Q139 586 138 623H289Z" />
<glyph unicode="J" glyph-name="J" horiz-adv-x="404" d="M447 625Q438 606 429 574T409 495Q399 449 389 403T369 310Q323 89 287 41Q243 -19 144 -19Q99 -19 63 -7Q28 5 4 0L32 130H90Q89 106 110 94Q124 86 141 86Q182 86 196 127Q204 150 215 196T242 312Q262
405 273 462T289 542Q298 586 296 625H447Z" />
<glyph unicode="K" glyph-name="K" horiz-adv-x="674" d="M288 626Q265 578 213 331Q283 392 345 445Q399 490 431 517T474 554Q520 597 527 627L729 626Q712 615 684 592T614 534Q538 470 499 437T456 400Q439 386 416 367T364 323Q386 302 405 281T444 238Q560
101 603 0H434Q429 42 405 82Q395 99 375 126T323 191Q292 229 264 258T209 310Q152 44 154 0H2Q22 38 41 127Q81 313 102 416T129 543Q138 589 135 626H288Z" />
<glyph unicode="L" glyph-name="L" horiz-adv-x="530" d="M515 148Q508 122 500 85T483 -2Q414 1 361 2T268 3Q221 3 156 2T3 -2Q22 37 84 325Q94 370 103 414T123 503Q139 588 138 625H286Q268 587 247 491Q237 446 228 401T209 310L163 105L351 106Q364 106
372 106T385 107Q409 110 417 118T432 149L515 148Z" />
<glyph unicode="M" glyph-name="M" horiz-adv-x="900" d="M895 625Q872 594 848 501Q837 460 806 311Q796 265 787 219T767 127Q749 38 751 -1H601Q609 18 618 49T638 127Q648 173 658 218T678 309L705 437Q667 395 591 309T396 91L236 437L209 309Q199 264 190
219T170 127Q151 37 154 -1H4Q12 18 21 49T41 127Q52 173 61 219T81 311Q130 541 130 595Q130 614 127 625L284 626L434 308L721 626L895 625Z" />
<glyph unicode="N" glyph-name="N" horiz-adv-x="750" d="M786 626Q778 607 769 575T749 496Q739 449 729 403T709 310L643 0H514Q427 135 358 246T235 449L205 310Q195 264 186 219T166 129Q148 38 150 0H0Q9 19 18 50T38 128Q48 174 58 220T78 312Q126 538 126
606Q126 616 124 626Q287 626 287 627Q391 457 457 347T552 184Q556 201 563 232T580 311Q590 358 599 404T619 496Q639 591 636 626H786Z" />
<glyph unicode="O" glyph-name="O" horiz-adv-x="675" d="M648 299Q615 156 511 70Q407 -14 268 -14Q148 -14 81 62Q18 132 18 248Q18 264 19 280T23 314Q49 463 153 554Q260 646 408 646Q529 646 597 575Q660 507 660 396Q660 348 648 299ZM510 312Q517 344 517
377Q517 518 378 518Q288 518 220 435Q158 356 158 264Q158 199 192 159Q230 115 295 115Q372 115 434 175Q492 230 510 312Z" />
<glyph unicode="P" glyph-name="P" horiz-adv-x="578" d="M585 426Q564 297 467 251Q422 228 332 224Q314 223 290 223T237 222Q189 220 176 156Q169 124 166 106T161 82Q153 38 155 0H5Q13 19 22 49T42 125Q52 171 61 217T81 309Q100 400 120 495Q139 589 138
626H419Q589 626 589 475Q589 464 588 452T585 426ZM450 429Q453 445 453 458Q453 508 408 522Q396 526 356 526H258L215 325H313Q360 325 381 335Q437 358 450 429Z" />
<glyph unicode="Q" glyph-name="Q" horiz-adv-x="681" d="M646 296Q621 185 553 109T387 1L394 -21Q404 -57 430 -96Q450 -127 460 -134H294Q295 -109 280 -52L271 -17H266Q147 -19 80 58Q16 129 16 245Q16 261 17 277T21 311Q47 460 151 551Q258 643 406 643Q527
643 595 572Q658 504 658 393Q658 345 646 296ZM508 309Q515 341 515 374Q515 515 376 515Q286 515 218 432Q156 353 156 261Q156 197 191 156Q229 112 293 112Q370 112 432 172Q492 229 508 309Z" />
<glyph unicode="R" glyph-name="R" horiz-adv-x="600" d="M586 452Q577 362 516 319Q470 285 401 285Q527 253 524 0H382Q389 18 389 50Q389 108 365 159Q335 219 282 237Q258 244 223 246Q215 245 208 245T193 244Q185 206 177 169T161 94Q151 37 152 0H2Q11
19 20 49T40 125Q50 171 59 217T79 309Q98 400 118 495Q128 543 132 575T135 626H416Q478 626 524 598Q588 558 588 476Q588 471 588 465T586 452ZM451 439Q452 446 452 452T453 464Q453 525 376 525H361Q357 524 355 524T354 524H255L217 345L315 346Q365 346
383 353Q436 373 451 439Z" />
<glyph unicode="S" glyph-name="S" horiz-adv-x="610" d="M629 614L596 459H528Q529 487 518 497Q480 527 407 527Q275 527 268 460Q265 432 298 416Q317 408 404 383Q573 337 573 209Q573 181 566 153Q528 -17 277 -17Q244 -17 207 -14Q196 -13 175 -9T125 2Q96
10 76 15T45 25Q24 32 0 28Q2 42 11 83T38 196H106Q104 179 126 161Q170 125 245 113Q257 111 269 110T294 109Q402 109 423 165Q426 175 426 185Q426 229 330 258Q276 274 240 287T185 311Q113 354 113 428Q113 445 118 468Q152 635 410 643Q437 644 489 637Q540
630 566 622Q608 610 629 614Z" />
<glyph unicode="T" glyph-name="T" horiz-adv-x="660" d="M650 625Q642 601 634 564T618 476H535Q539 501 534 513Q525 525 474 525H386L339 301Q329 256 320 212T300 122Q283 36 285 0H135Q144 19 153 49T173 122L211 301L259 526H176Q121 526 108 514Q100 504
92 477H11Q24 524 32 560T42 625H650Z" />
<glyph unicode="U" glyph-name="U" horiz-adv-x="625" d="M630 625Q618 599 603 541Q598 518 589 482T569 395L542 259Q516 131 448 67Q359 -16 223 -16Q91 -16 39 71Q11 120 11 185Q11 202 12 220T18 258L43 384Q51 419 59 461T78 554Q82 577 83 595T83 625H237Q223
595 194 473Q186 436 174 383T147 257Q145 244 144 233T142 211Q142 105 249 105Q314 105 359 152Q396 192 411 254Q433 343 462 505Q470 550 474 579T478 625H630Z" />
<glyph unicode="V" glyph-name="V" horiz-adv-x="582" d="M608 625Q569 573 231 0H118Q98 131 73 286T15 625H145Q146 607 162 495T212 174L458 625H608Z" />
<glyph unicode="W" glyph-name="W" horiz-adv-x="890" d="M910 626Q890 600 801 443T552 0H439Q434 43 425 126T399 337L211 0H98Q90 78 82 145T66 273Q49 417 37 505T16 626H156Q156 590 195 185L419 626H486Q493 563 505 454T536 185L750 626H910Z" />
<glyph unicode="X" glyph-name="X" horiz-adv-x="731" d="M773 626Q744 599 673 523T488 318L656 0H489Q486 25 462 94L397 237L259 90Q239 68 222 46T191 0H8Q70 60 153 141T344 326Q324 366 306 400T272 465Q234 537 210 576T177 626H353Q355 615 363 591T385
529L435 412L527 526Q561 569 593 626H773Z" />
<glyph unicode="Y" glyph-name="Y" horiz-adv-x="535" d="M577 626Q557 608 519 568T425 463Q391 425 358 387T292 310Q282 264 273 219T255 128Q237 35 238 0H87Q106 39 125 129Q135 175 145 221T165 313Q152 344 131 393T79 512Q32 611 14 626H174Q171 618 171
607Q171 580 188 544L251 409L367 543Q416 598 420 626H577Z" />
<glyph unicode="Z" glyph-name="Z" horiz-adv-x="620" d="M630 625L212 103L368 104Q421 104 433 117Q443 127 448 147H534Q526 117 521 99T514 76Q502 29 499 -2Q421 1 363 2T265 2Q219 3 154 3T2 0L10 37L403 526H289Q230 526 223 519Q215 511 211 494H125Q139
547 143 558Q154 597 155 628Q219 625 270 624T361 623Q409 622 476 622T630 625Z" />
<glyph unicode="[" glyph-name="bracketleft" horiz-adv-x="492" d="M480 652L459 557H285L141 -123H316L293 -227H1L188 652H480Z" />
<glyph unicode="\" glyph-name="backslash" horiz-adv-x="318" d="M181 -10L-1 632H104L286 -10H181Z" />
<glyph unicode="]" glyph-name="bracketright" horiz-adv-x="492" d="M508 652L321 -227H29L51 -123H226L371 557H197L216 652H508Z" />
<glyph unicode="^" glyph-name="asciicircum" horiz-adv-x="500" d="M450 244H388L250 555L112 244H49L226 626H274L450 244Z" />
<glyph unicode="_" glyph-name="underscore" horiz-adv-x="543" d="M550 -167L536 -242H-7L7 -167H550Z" />
<glyph unicode="`" glyph-name="grave" horiz-adv-x="152" d="M132 472L63 450L-14 617L65 646L132 472Z" />
<glyph unicode="a" glyph-name="a" horiz-adv-x="520" d="M517 397L497 304Q418 276 402 183Q399 163 399 150Q399 82 466 81L428 -10Q392 -10 363 10Q331 32 330 73Q277 -8 170 -8Q91 -8 51 40Q15 83 15 155Q15 168 16 180T20 207Q34 286 97 340Q166 400 256
397Q312 395 341 374Q365 356 382 310Q400 358 444 382Q481 401 517 397ZM321 218Q321 254 298 278T236 302Q197 300 162 270Q126 238 117 196Q114 181 114 166Q114 129 134 108T191 86Q242 86 281 126Q321 166 321 218Z" />
<glyph unicode="b" glyph-name="b" horiz-adv-x="431" d="M419 185Q396 90 327 39Q263 -8 175 -8Q131 -8 110 1Q102 6 84 21L42 0H1Q11 38 32 134T87 387Q100 444 107 480T118 534Q123 560 126 582T132 625H236Q231 605 225 580T213 526Q205 490 197 456T181 388L175
365Q216 393 270 393Q348 393 388 353Q426 315 426 248Q426 217 419 185ZM327 194Q330 209 330 222Q330 259 308 281T247 304Q196 304 156 268Q149 236 142 199T124 119Q148 84 200 84Q245 84 280 113T327 194Z" />
<glyph unicode="c" glyph-name="c" horiz-adv-x="368" d="M364 385L327 292Q295 305 259 305Q202 305 161 267Q121 230 121 173Q121 135 144 110T207 84Q247 84 292 104L302 19Q275 8 258 3Q229 -5 194 -6Q114 -11 69 39Q28 85 28 159Q28 184 32 207Q47 287 109
338Q168 385 252 394Q309 400 364 385Z" />
<glyph unicode="d" glyph-name="d" horiz-adv-x="471" d="M499 625Q480 571 442 387Q413 258 364 0H294L288 29Q249 -6 183 -7Q105 -10 62 35T18 156Q18 177 23 205Q31 248 51 283T103 342T175 380T262 393Q310 393 343 360L349 388Q365 466 394 625H499ZM322
268Q298 304 247 304Q224 304 203 296T165 273T135 238T116 193Q112 178 112 162Q112 123 137 103T201 82Q251 82 291 119Q297 147 304 184T322 268Z" />
<glyph unicode="e" glyph-name="e" horiz-adv-x="435" d="M409 167H125Q124 162 124 157T123 147Q123 81 198 81Q204 81 210 81T224 83Q272 90 304 116L348 38Q262 -5 197 -8Q112 -12 68 32T23 157Q23 183 27 206Q39 292 106 344Q175 397 267 396Q342 395 381
357T420 248Q420 213 409 167ZM321 241Q323 308 252 306Q181 304 156 241H321Z" />
<glyph unicode="f" glyph-name="f" horiz-adv-x="330" d="M401 605L378 497Q325 564 276 560Q235 555 219 515Q217 508 210 477T191 389Q303 394 313 399L292 301Q281 308 174 309Q155 203 117 41Q75 -134 56 -163Q20 -223 -61 -223Q-90 -223 -108 -216Q-118 -209
-151 -198Q-138 -173 -103 -105Q-78 -131 -61 -132Q-26 -137 -8 -84Q0 -58 22 38T80 302L82 310Q29 308 14 304L33 392Q47 384 97 386Q111 457 124 503T150 571Q192 644 270 644Q313 644 358 623Q368 616 401 605Z" />
<glyph unicode="g" glyph-name="g" horiz-adv-x="462" d="M455 390Q448 373 436 322T406 185Q394 124 382 64T357 -57Q340 -138 286 -180T154 -223Q146 -223 137 -223T118 -221Q95 -218 76 -213T39 -201Q-3 -185 -20 -180L48 -85Q109 -133 160 -133Q199 -133 226
-109T261 -45L276 24Q240 -3 181 -4Q105 -6 62 37T18 154Q18 168 19 183T25 215Q46 308 115 354Q180 399 273 396Q338 394 362 360L381 389L455 390ZM327 270Q302 307 253 307Q205 307 171 280Q132 251 121 196Q118 182 118 170Q118 131 141 108T205 85Q256 85
295 121Q302 153 310 190T327 270Z" />
<glyph unicode="h" glyph-name="h" horiz-adv-x="444" d="M419 196Q409 148 400 100T380 0H275L311 172Q316 199 318 217T321 246Q321 302 264 302Q195 302 157 210L111 0H7Q19 49 38 133T83 340L93 387Q106 444 113 480T124 534Q129 560 132 582T138 625H247Q237
591 223 530T189 379L181 340Q229 397 314 397Q430 397 430 280Q430 246 419 196Z" />
<glyph unicode="i" glyph-name="i" horiz-adv-x="240" d="M161 454Q140 454 127 467T113 500Q113 513 119 526T136 549T159 566T186 572Q207 572 221 558T235 523Q235 497 211 475Q187 454 161 454ZM214 378Q211 361 201 319T173 209Q144 96 149 94Q156 90 213
117L194 31Q176 17 116 4Q86 -3 65 -5T32 -7Q26 -6 26 8Q26 30 43 96L64 177Q92 289 92 296Q92 304 85 304Q78 304 63 298Q43 292 55 379Q81 386 114 390T189 396Q199 398 207 393T214 378Z" />
<glyph unicode="j" glyph-name="j" horiz-adv-x="200" d="M153 460Q134 460 122 472T109 502Q109 514 115 525T130 546T152 561T176 567Q194 567 207 554T220 523Q220 511 214 500T199 480T177 466T153 460ZM192 389Q184 359 169 290T131 111Q117 47 108 5T93
-57Q83 -95 74 -122T56 -163Q20 -223 -61 -223Q-90 -223 -108 -216Q-118 -209 -151 -198Q-138 -173 -103 -105Q-78 -131 -61 -132Q-25 -137 -9 -86Q-7 -81 34 109Q44 152 58 222T91 389H192Z" />
<glyph unicode="k" glyph-name="k" horiz-adv-x="418" d="M443 353L277 221Q301 187 333 147T406 57L324 -10Q322 -1 196 168L130 118Q123 87 120 64T117 26Q117 12 120 8Q107 3 67 -2Q26 -7 13 -2Q9 -1 9 13Q9 45 34 146Q44 186 53 225T73 304Q101 429 116 509T135
625H243Q227 571 205 473T151 230Q184 254 241 298T379 408L443 353Z" />
<glyph unicode="l" glyph-name="l" horiz-adv-x="240" d="M244 611Q242 597 227 526T182 325Q131 97 136 94Q143 90 200 117L181 31Q163 17 103 4Q73 -3 52 -5T19 -7Q13 -6 13 8Q13 30 30 96L51 177Q69 247 96 386Q124 531 121 535Q119 537 115 537Q108 537 92
531Q73 525 85 612Q111 619 144 623T219 629Q229 631 237 626T244 611Z" />
<glyph unicode="m" glyph-name="m" horiz-adv-x="712" d="M707 117L689 31Q669 17 610 4Q581 -3 560 -5T527 -7Q520 -6 520 8Q520 30 533 78Q538 95 542 111T550 144Q568 226 568 251Q568 306 525 306Q485 306 449 285Q446 284 413 259Q411 247 408 230T399 189L360
0H263Q270 30 280 76T304 187Q309 215 312 232T315 258Q315 307 258 307Q217 307 186 283Q179 276 172 270T157 257L103 0H3Q15 49 31 124T70 302Q68 305 61 305Q50 305 31 299Q26 297 20 296T8 292L20 379Q46 386 79 390T154 396Q165 398 172 393T179 378L173
344Q235 397 308 397Q388 397 405 337Q422 354 462 372Q515 397 569 397Q673 397 673 292Q673 271 670 246T659 189Q637 95 639 93Q649 89 707 117Z" />
<glyph unicode="n" glyph-name="n" horiz-adv-x="470" d="M462 117L444 31Q424 17 365 4Q336 -3 315 -5T282 -7Q275 -6 275 8Q275 30 288 78L306 144Q323 229 323 251Q323 306 281 306Q221 306 157 257L103 0H3Q15 49 31 124T70 302Q68 305 61 305Q50 305 31 299Q26
297 20 296T8 292L20 379Q46 386 79 390T154 396Q165 398 172 393T179 378L173 344Q189 360 223 375Q270 397 324 397Q428 397 428 292Q428 271 425 246T414 189Q393 94 394 93Q404 89 462 117Z" />
<glyph unicode="o" glyph-name="o" horiz-adv-x="444" d="M431 195Q414 101 343 46Q276 -6 185 -6Q107 -6 62 42Q19 86 19 159Q19 171 20 183T24 208Q33 253 55 288T110 347T182 383T270 396Q349 396 392 355T435 241Q435 230 434 219T431 195ZM331 201Q335 213
335 229Q335 266 313 288T251 311Q197 311 157 271Q116 230 116 178Q116 140 140 116T204 91Q249 91 284 120T331 201Z" />
<glyph unicode="p" glyph-name="p" horiz-adv-x="481" d="M463 186Q428 -4 226 -5Q166 -6 143 23L139 0Q131 -35 121 -91T97 -223L-8 -220Q10 -165 46 4Q73 133 124 391L165 388L198 367Q241 394 302 396Q377 397 422 356T467 236Q467 224 466 212T463 186ZM368
194Q369 201 369 207T370 221Q370 259 348 281T288 304Q237 304 197 269Q191 241 184 204T166 120Q190 83 241 83Q287 83 322 114T368 194Z" />
<glyph unicode="q" glyph-name="q" horiz-adv-x="449" d="M441 389Q421 312 354 2Q337 -78 326 -134T310 -223H206Q211 -200 224 -145T259 1L265 24Q230 -4 170 -4Q92 -4 51 38T9 154Q9 168 10 182T14 211Q32 303 102 352Q170 399 262 396Q325 395 351 360L369
389H441ZM316 270Q291 307 242 307Q195 307 159 280Q119 250 109 196Q106 182 106 170Q106 131 129 108T193 85Q244 85 283 121Q290 153 298 190T316 270Z" />
<glyph unicode="r" glyph-name="r" horiz-adv-x="290" d="M321 389L300 289Q284 302 272 302Q224 302 181 248Q150 208 139 168Q131 128 123 87T107 0L7 -1Q19 48 37 132T79 339Q80 346 82 358T87 388H184L169 319Q206 394 287 396Q307 396 321 389Z" />
<glyph unicode="s" glyph-name="s" horiz-adv-x="364" d="M351 379Q349 371 345 349T332 290H272Q269 299 256 308T229 317Q178 317 173 291Q170 273 190 261Q190 261 240 239Q336 198 336 126Q336 112 331 90Q315 30 243 3Q202 -13 147 -11Q118 -10 90 -5T34
8Q14 13 9 12L30 106H94Q113 82 156 75Q184 70 204 76Q232 83 232 109Q232 142 185 166Q154 179 94 211Q68 231 68 270Q68 297 83 326T122 368Q161 390 196 394Q204 395 221 395T264 396Q275 396 321 385Q346 377 351 379Z" />
<glyph unicode="t" glyph-name="t" horiz-adv-x="275" d="M263 388L245 306H178Q176 301 171 279T156 216Q133 118 133 107Q133 93 140 93Q144 93 158 101Q165 106 169 108T175 111Q178 105 175 29Q92 -13 33 -9Q20 -8 20 17Q20 31 28 69T52 174Q56 190 63 222T81
305H24Q27 308 34 347Q42 388 43 388H100Q106 414 112 440T123 492L224 518L196 388Q265 386 263 388Z" />
<glyph unicode="u" glyph-name="u" horiz-adv-x="460" d="M444 387Q432 338 415 264T376 90Q376 88 379 88Q385 88 399 95L417 104V26Q302 -15 278 -9Q267 -7 267 10Q267 16 272 44Q201 -9 127 -9Q18 -9 18 103Q18 143 30 199Q38 231 48 278T73 388H173Q167 368
158 333T136 243Q119 155 119 141Q119 86 165 86Q175 86 180 87Q232 94 264 119Q270 125 276 131T289 143Q302 197 315 258T342 388L444 387Z" />
<glyph unicode="v" glyph-name="v" horiz-adv-x="435" d="M447 386Q427 354 369 258T214 0H83Q69 88 53 184T16 387H124Q129 341 139 268T165 91Q235 202 277 275T335 386H447Z" />
<glyph unicode="w" glyph-name="w" horiz-adv-x="663" d="M672 386Q630 321 460 0L329 -2Q327 30 322 87T307 228Q278 177 248 121T185 0H56Q51 52 46 97T36 181Q15 364 7 387H117Q122 281 138 91Q211 211 285 387Q395 387 394 388Q396 350 397 312T399 236Q402
149 411 91Q460 179 497 252T560 386H672Z" />
<glyph unicode="x" glyph-name="x" horiz-adv-x="442" d="M476 388Q449 361 404 313T294 196Q308 167 395 0H284Q277 25 236 124Q202 87 175 56T128 0H5Q34 29 81 78T194 200Q173 243 151 289T104 387H213Q220 370 231 342T258 275Q272 292 296 320T354 388H476Z" />
<glyph unicode="y" glyph-name="y" horiz-adv-x="505" d="M495 387Q460 327 417 253T319 91Q300 60 281 30T242 -31Q188 -114 141 -159Q79 -218 19 -223Q-24 -226 -59 -209Q-103 -188 -122 -185L-53 -91Q-15 -126 31 -129Q50 -130 82 -97Q95 -83 105 -69T123 -39Q98
68 74 174T24 388L133 389Q143 346 159 269T199 76Q222 112 251 162T317 278Q378 387 380 387Q494 388 495 387Z" />
<glyph unicode="z" glyph-name="z" horiz-adv-x="404" d="M401 388L391 344Q361 311 305 247T165 87H232Q270 87 288 102H344L322 -1Q318 -5 7 0L18 50L238 302H223Q171 302 154 286H91L113 388H401Z" />
<glyph unicode="{" glyph-name="braceleft" horiz-adv-x="410" d="M430 629L408 529H366Q322 529 306 451L281 334Q267 273 226 235Q197 209 172 202L181 200Q197 197 211 179Q230 154 230 113Q230 91 224 66L196 -58Q191 -81 191 -93Q191 -132 223 -130L269 -128L247
-229H192Q153 -229 116 -201Q71 -170 71 -125Q71 -120 71 -116T73 -107L107 52Q112 77 112 94Q112 173 57 173L69 230Q102 230 130 263T170 348L204 508Q214 559 278 597Q331 629 375 629H430Z" />
<glyph unicode="|" glyph-name="bar" horiz-adv-x="223" d="M266 623L86 -228H-14L166 623H266Z" />
<glyph unicode="}" glyph-name="braceright" horiz-adv-x="410" d="M386 230L373 173Q340 173 312 140T272 52L238 -107Q228 -158 164 -196Q110 -229 67 -229H12L33 -128H75Q119 -128 136 -50L161 66Q174 130 212 169Q237 195 260 200L271 202Q255 206 237 227Q213
255 213 297Q213 306 214 315T218 334L242 451Q247 474 247 488Q247 529 215 529H173L194 629H249Q288 629 326 602Q371 570 371 526Q371 521 371 517T369 508L335 348Q330 325 330 308Q330 230 386 230Z" />
<glyph unicode="~" glyph-name="asciitilde" horiz-adv-x="490" d="M436 301Q375 191 306 191Q289 191 260 205T203 236Q183 247 169 255T150 262Q129 260 99 192L30 223Q64 280 94 309T155 340Q170 341 194 331T249 300Q274 283 290 275T315 265Q322 265 330
271T348 288T364 313T377 344Q397 333 412 325T435 313L436 301Z" />
<glyph unicode="&#xa0;" glyph-name="ch202" horiz-adv-x="250" />
<glyph unicode="&#xa1;" glyph-name="exclamdown" horiz-adv-x="335" d="M45 -10Q62 26 97 188Q121 300 148 437H266Q255 405 209 188Q177 34 177 2Q177 -7 178 -10H45ZM245 626Q269 626 284 611T300 572Q300 542 274 516Q249 491 217 491Q193 491 178 506T162
545Q162 575 188 601Q213 626 245 626Z" />
<glyph unicode="&#xa2;" glyph-name="cent" horiz-adv-x="414" d="M208 404Q172 389 151 355T129 281Q129 249 142 227Q157 201 184 200L208 404ZM372 495L335 402Q288 421 242 414L216 194Q255 194 300 214L310 129Q282 118 267 114Q253 110 238 108T205 104L192
0Q160 -5 159 0L172 105Q107 111 69 162Q37 209 37 278Q37 299 40 322Q61 459 219 498L232 608H265L253 504Q316 512 372 495Z" />
<glyph unicode="&#xa3;" glyph-name="sterling" horiz-adv-x="569" d="M557 599Q554 587 548 558T535 493H461Q462 511 461 520T458 533L461 532Q445 543 422 550T368 560Q341 561 314 555T265 533T229 496T213 444V445Q210 406 231 347Q258 348 278 349T316 351T349
355T384 361L360 257Q334 265 312 267T256 271Q257 264 258 256T259 241Q259 230 257 218T250 192Q240 167 218 141T165 92Q177 94 193 96T221 99Q255 99 287 89T358 79Q392 79 462 132L490 28Q447 10 408 2T337 -5Q323 -4 304 0T261 11Q213 23 189 23Q185 23 182
23T174 22Q141 18 43 -11L12 71Q25 77 41 88T74 109Q76 111 78 112T82 115Q110 138 128 162T151 215Q158 240 150 271Q102 269 73 267T22 257L48 357Q69 352 83 352T121 350Q112 371 109 387T105 419Q105 481 128 523T190 590T281 626T392 638Q406 638 431 633T492
619Q509 614 521 612T535 610L557 599Z" />
<glyph unicode="&#xa4;" glyph-name="currency" horiz-adv-x="500" d="M466 326Q466 249 420 194L465 149Q467 147 441 124Q430 114 424 109T416 101L375 152Q320 112 250 112Q180 112 125 152L84 101Q77 106 71 112T58 123Q33 147 35 149L80 194Q34 249 34 326Q34
403 80 458L35 503Q36 504 42 509T59 526Q85 550 84 551L125 500Q177 538 250 540Q319 542 375 500L416 551Q415 550 441 525Q447 520 453 514T465 503L420 458Q466 403 466 326ZM410 325Q410 393 362 443Q314 493 251 493Q187 493 139 443Q92 393 92 325Q92 255
139 205Q187 157 251 157Q314 157 362 206Q410 255 410 325Z" />
<glyph unicode="&#xa5;" glyph-name="yen" horiz-adv-x="535" d="M577 626Q529 584 378 409H504L491 334H313Q299 317 292 310L285 278H477L464 203H269Q236 47 238 0H87Q108 43 142 203H-12L2 278H158L165 313L156 334H15L28 409H124Q110 441 99 466T79 512Q32
611 14 626H174Q171 618 171 607Q171 580 188 544L251 409L367 543Q416 598 420 626H577Z" />
<glyph unicode="&#xa6;" glyph-name="brokenbar" horiz-adv-x="239" d="M149 392H90V686H149V392ZM149 -16H90V278H149V-16Z" />
<glyph unicode="&#xa7;" glyph-name="section" horiz-adv-x="483" d="M431 656L408 548L363 549Q358 557 355 561T350 566Q339 575 316 575Q268 576 260 528Q258 511 272 492T315 463Q405 431 405 347Q405 328 399 306Q379 229 303 204Q322 208 339 186Q359 160
359 123Q359 37 284 -11Q219 -52 128 -49Q102 -47 65 -33Q50 -27 39 -29L65 87H109Q111 82 114 78T119 69Q128 57 152 51Q165 48 179 48Q210 48 228 65T246 104Q246 127 227 139Q202 153 178 166T129 192Q74 229 77 288Q80 335 115 376Q151 418 198 433Q152 461
152 516Q152 531 157 554Q167 605 223 640Q273 671 337 671Q366 671 401 662Q426 654 431 656ZM294 317Q298 334 278 350Q260 366 250 364Q195 348 196 303Q198 270 236 268Q253 267 270 280T294 317Z" />
<glyph unicode="&#xa8;" glyph-name="dieresis" horiz-adv-x="237" d="M252 469Q234 469 223 481T211 511Q211 523 216 534T231 555T251 569T275 575Q293 575 305 563T317 532Q317 520 312 509T297 489T276 475T252 469ZM125 524Q120 504 101 488T61 472Q42 472
30 484T17 514Q17 526 23 537T38 557T59 571T83 577Q104 577 116 561T125 524Z" />
<glyph unicode="&#xa9;" glyph-name="copyright" horiz-adv-x="748" d="M495 208Q489 155 489 129Q479 131 471 130T449 125Q443 123 432 121T402 117L357 119Q280 134 238 195H239Q196 256 196 331Q196 376 209 415T245 484Q271 516 307 533T388 550Q404 550
445 541Q474 534 485 534Q485 509 491 460H445Q443 468 442 474T438 486Q432 492 418 495T386 498Q327 497 290 445Q257 400 257 330Q257 266 293 221Q332 171 391 171Q427 171 439 184V183Q443 188 449 208H495ZM671 337Q671 459 582 547Q493 634 372 634Q252
634 164 546Q119 501 98 449T77 336Q77 214 164 127Q208 82 260 61T373 40Q496 40 583 127Q671 215 671 337ZM729 337Q729 188 624 86Q521 -17 373 -17Q227 -17 123 87Q19 189 19 336Q19 482 123 588Q225 692 372 692Q521 692 624 589Q729 485 729 337Z" />
<glyph unicode="&#xaa;" glyph-name="ordfeminine" horiz-adv-x="393" d="M381 556L367 490Q310 470 299 404Q298 397 298 391T297 380Q297 332 345 331L318 266Q291 266 270 281T248 325Q211 267 134 267Q77 267 49 301Q23 333 23 384Q23 401 26 421Q36 476 81
515Q129 558 195 556Q264 555 285 494Q299 530 329 546Q357 560 381 556ZM242 428Q242 454 225 471T181 488Q167 488 154 482T128 466T108 442T96 413Q95 408 95 403T94 392Q94 334 149 334Q184 334 213 363Q242 392 242 428Z" />
<glyph unicode="&#xab;" glyph-name="guillemotleft" horiz-adv-x="667" d="M608 478L591 373L390 230L527 96L506 0L296 208L310 270L608 478ZM398 478L378 362L180 230L319 108L296 0L86 208L100 270L398 478Z" />
<glyph unicode="&#xac;" glyph-name="logicalnot" horiz-adv-x="500" d="M467 50H408V256H33V305H467V50Z" />
<glyph unicode="&#xae;" glyph-name="registered" horiz-adv-x="748" d="M458 435Q458 474 429 488L430 487Q420 489 411 490T392 494Q384 496 363 496T313 497Q313 463 313 434T312 370H343Q362 370 374 370T391 371Q422 374 431 380Q459 396 458 435ZM459 135Q463
155 458 180T442 232Q414 295 371 311Q353 316 328 316H311Q311 169 321 135H244Q254 171 254 338Q254 511 244 548H393Q415 548 432 544T467 529Q519 498 519 435Q519 352 438 326Q504 285 534 135H459ZM671 337Q671 459 582 547Q493 634 372 634Q252 634 164
546Q119 501 98 449T77 336Q77 214 164 127Q208 82 260 61T373 40Q496 40 583 127Q671 215 671 337ZM729 337Q729 188 624 86Q521 -17 373 -17Q227 -17 123 87Q19 189 19 336Q19 482 123 588Q225 692 372 692Q521 692 624 589Q729 485 729 337Z" />
<glyph unicode="&#xaf;" glyph-name="overscore" horiz-adv-x="333" d="M333 518L322 466H15L26 518H333Z" />
<glyph unicode="&#xb0;" glyph-name="degree" horiz-adv-x="348" d="M308 511Q308 481 298 458T269 417T227 391T174 382Q117 382 80 416Q40 452 40 511Q40 568 79 604Q118 640 174 640Q230 640 269 604Q308 568 308 511ZM252 511Q252 553 230 579T174 605Q140
605 118 579T96 511Q96 469 118 443T174 417Q208 417 230 443T252 511Z" />
<glyph unicode="&#xb1;" glyph-name="plusminus" horiz-adv-x="500" d="M443 239H280V84H221V239H58V288H221V436H280V288H443V239ZM443 0H58V49H443V0Z" />
<glyph unicode="&#xb2;" glyph-name="twosuperior" horiz-adv-x="327" d="M310 542Q310 466 221 392Q163 343 136 325H175Q201 325 202 326Q217 331 223 349H279Q271 323 267 303T260 268Q48 270 7 268L15 305Q22 309 43 325T101 369Q236 475 236 533Q236 557
211 563Q182 570 163 551Q144 533 142 516Q96 515 71 516Q73 529 77 539Q88 566 112 589Q156 627 227 627Q310 625 310 542Z" />
<glyph unicode="&#xb3;" glyph-name="threesuperior" horiz-adv-x="311" d="M296 560Q294 526 270 503T213 473Q244 471 263 448T282 392Q282 367 270 343Q246 289 167 270Q144 264 118 264Q53 264 11 288L56 349Q83 334 84 333Q99 326 124 325Q187 322 205 368Q209
376 209 387Q209 417 180 428Q161 435 124 437L135 490Q161 491 187 505Q221 521 227 549Q231 565 221 573T193 581Q150 578 131 545L67 554Q93 603 142 622Q181 636 218 633Q299 627 296 560Z" />
<glyph unicode="&#xb4;" glyph-name="acute" horiz-adv-x="152" d="M221 616L123 449L54 469L141 646L221 616ZM221 616L123 449L54 469L141 646L221 616Z" />
<glyph unicode="&#xb5;" glyph-name="uni00B5" horiz-adv-x="551" d="M540 388Q533 365 527 343T515 300Q490 201 488 145Q485 88 517 27L404 -17Q399 -8 394 5Q383 34 379 66Q366 41 335 18Q297 -9 257 -9Q239 -9 222 -4T190 11T167 33T155 58Q129 -52 129 -95Q129
-141 144 -166L22 -191Q13 -170 13 -137Q13 -102 45 40Q50 62 70 148T128 389H242L194 183Q193 159 214 133Q239 102 279 102Q320 102 353 146Q379 179 380 198Q382 226 392 273T423 389L540 388Z" />
<glyph unicode="&#xb6;" glyph-name="paragraph" horiz-adv-x="599" d="M630 627Q611 588 592 498Q582 452 572 407T552 315Q445 -186 447 -227H301Q312 -205 343 -70T429 317L484 579H375L314 295Q213 -179 215 -227H69Q86 -192 127 -4Q141 66 156 136T185 276Q131
276 88 314Q47 353 47 412Q47 428 50 445Q66 520 126 574Q187 627 267 627H630Z" />
<glyph unicode="&#xb7;" glyph-name="middot" horiz-adv-x="250" d="M183 299Q183 275 166 258T125 241Q101 241 84 258T66 299Q66 324 83 341T125 358Q149 358 166 341T183 299Z" />
<glyph unicode="&#xb8;" glyph-name="cedilla" horiz-adv-x="401" d="M265 -137Q227 -200 129 -193Q84 -190 77 -180L117 -110Q127 -116 143 -116Q171 -116 179 -98Q184 -85 184 -77Q184 -53 143 -48Q140 -48 185 12L271 11L243 -29Q280 -51 280 -89Q280 -112 265 -137Z" />
<glyph unicode="&#xb9;" glyph-name="onesuperior" horiz-adv-x="360" d="M281 629Q266 594 237 452Q229 420 222 376T206 276H121Q129 299 139 343T164 454Q171 487 185 556Q176 557 161 556L171 601Q196 607 218 629H281Z" />
<glyph unicode="&#xba;" glyph-name="ordmasculine" horiz-adv-x="359" d="M274 382Q282 422 264 448T207 474Q168 474 136 448T96 382Q88 344 108 317Q130 290 169 290Q207 290 235 315T274 382ZM342 382Q327 311 273 269Q218 226 153 226Q80 226 48 271Q14 317
29 384Q43 449 96 493Q149 537 218 537Q290 537 323 495T342 382Z" />
<glyph unicode="&#xbb;" glyph-name="guillemotright" horiz-adv-x="667" d="M596 270L582 208L284 0L302 98L504 248L362 390L386 478L596 270ZM386 270L372 208L74 0L97 108L294 248L152 380L176 478L386 270Z" />
<glyph unicode="&#xbc;" glyph-name="onequarter" horiz-adv-x="755" d="M260 631Q247 599 215 455Q208 422 200 378T184 279H99Q107 302 118 346T143 456Q147 473 151 498T163 559H140L149 603Q174 609 196 631H260ZM613 695L164 -5H126L123 0L572 700H611L613
695ZM664 349Q657 328 646 278T617 146Q624 147 633 147T655 150L641 84Q633 86 624 87T604 89Q599 64 592 -2H508Q512 12 518 34T532 89Q480 90 387 89L394 125Q436 168 486 224T598 349Q638 347 664 349ZM559 221L487 144Q502 142 543 144Q561 226 561 225Q560
225 560 224Q560 223 560 223T559 221Z" />
<glyph unicode="&#xbd;" glyph-name="onehalf" horiz-adv-x="755" d="M246 629Q231 594 202 452Q194 420 187 376T171 276H86Q94 299 104 343T129 454Q136 487 150 556Q141 557 126 556L136 601Q161 607 183 629H246ZM601 695L151 -5H113L110 0L559 700H598L601
695ZM690 275Q690 199 601 125Q543 76 516 58H555Q581 58 582 59Q597 64 603 82H659Q651 56 647 36T640 1Q428 3 387 1L395 38Q402 42 423 58T481 102Q616 208 616 266Q616 290 591 296Q562 303 543 284Q524 266 522 249Q476 248 451 249Q453 262 457 272Q468 299
492 322Q536 360 607 360Q690 358 690 275Z" />
<glyph unicode="&#xbe;" glyph-name="threequarters" horiz-adv-x="735" d="M612 683L163 -17H125L122 -12L571 688H610L612 683ZM301 579Q300 545 277 522T221 494Q251 492 269 470T287 415Q287 390 277 367Q253 315 176 295Q151 290 128 290Q63 290 23 314L67
373Q80 365 87 362T95 357Q107 352 134 350Q195 346 213 391Q216 400 216 410Q216 440 188 450Q168 457 134 459L144 511Q169 512 195 526Q228 542 234 568Q238 584 228 592T201 599Q160 597 140 564L78 573Q102 620 151 639Q187 654 225 651Q305 645 301 579ZM678
352Q671 331 660 281T631 150Q645 150 669 153L655 87Q647 89 638 90T618 92Q613 67 606 1H522Q526 15 532 38T546 93H400L408 129Q450 172 500 227T612 352Q652 350 678 352ZM573 224L501 147H557Q575 229 575 229Q574 228 573 224Z" />
<glyph unicode="&#xbf;" glyph-name="questiondown" horiz-adv-x="499" d="M73 11Q95 65 179 146Q253 217 259 266H394Q376 203 339 155Q318 127 270 82Q228 42 215 21Q189 -19 189 -47Q189 -101 268 -100Q337 -99 364 -31H439L405 -190Q391 -191 371 -194T322
-204Q266 -218 244 -219Q162 -223 109 -181Q56 -139 56 -68Q56 -31 73 11ZM365 427Q388 427 403 412T419 373Q419 343 393 317Q368 292 336 292Q312 292 296 308T280 348Q280 381 305 404T365 427Z" />
<glyph unicode="&#xc0;" glyph-name="Agrave" horiz-adv-x="638" d="M610 0H474Q451 163 450 162H254Q213 97 161 0H17Q49 49 144 206T399 633H504Q517 548 528 475T550 338Q600 35 610 0ZM440 282Q435 325 430 367T419 451Q394 408 370 366T320 282H440ZM487
681L418 659L341 826L420 855L487 681Z" />
<glyph unicode="&#xc1;" glyph-name="Aacute" horiz-adv-x="638" d="M610 0H474Q451 163 450 162H254Q213 97 161 0H17Q49 49 144 206T399 633H504Q517 548 528 475T550 338Q600 35 610 0ZM440 282Q435 325 430 367T419 451Q394 408 370 366T320 282H440ZM581
835L483 668L414 688L501 865L581 835ZM581 835L483 668L414 688L501 865L581 835Z" />
<glyph unicode="&#xc2;" glyph-name="Acircumflex" horiz-adv-x="638" d="M602 0H466Q443 163 442 162H246Q205 97 153 0H9Q41 49 136 206T391 633H496Q509 548 520 475T542 338Q592 35 602 0ZM432 282Q427 325 422 367T411 451Q386 408 362 366T312 282H432ZM619
728L562 677Q543 692 518 713T461 762Q433 746 393 723T299 667L263 728L467 852Q505 821 543 790T619 728Z" />
<glyph unicode="&#xc3;" glyph-name="Atilde" horiz-adv-x="638" d="M610 0H474Q451 163 450 162H254Q213 97 161 0H17Q49 49 144 206T399 633H504Q517 548 528 475T550 338Q600 35 610 0ZM440 282Q435 325 430 367T419 451Q394 408 370 366T320 282H440ZM662
744Q598 674 527 674Q477 674 446 698Q415 722 381 723Q349 725 302 669L256 690Q284 744 327 769Q361 789 390 789Q449 789 483 764Q517 740 548 740Q584 740 606 786Q620 775 634 765T662 744Z" />
<glyph unicode="&#xc4;" glyph-name="Adieresis" horiz-adv-x="638" d="M610 0H474Q451 163 450 162H254Q213 97 161 0H17Q49 49 144 206T399 633H504Q517 548 528 475T550 338Q600 35 610 0ZM440 282Q435 325 430 367T419 451Q394 408 370 366T320 282H440ZM548
669Q530 669 519 681T507 711Q507 723 512 734T527 755T547 769T571 775Q589 775 601 763T613 732Q613 720 608 709T593 689T572 675T548 669ZM421 724Q416 704 397 688T357 672Q338 672 326 684T313 714Q313 726 319 737T334 757T355 771T379 777Q400 777 412
761T421 724Z" />
<glyph unicode="&#xc5;" glyph-name="Aring" horiz-adv-x="638" d="M457 657Q424 657 404 677T383 729Q383 772 418 807Q452 841 496 841Q529 841 550 820T571 768Q571 725 536 690Q501 657 457 657ZM520 749Q524 767 514 779T486 792Q468 792 453 780T433 749Q430
731 440 718T468 705Q486 705 501 718T520 749ZM610 0H474Q451 163 450 162H254Q213 97 161 0H17Q49 49 144 206T399 633H504Q517 548 528 475T550 338Q600 35 610 0ZM440 282Q435 325 430 367T419 451Q394 408 370 366T320 282H440Z" />
<glyph unicode="&#xc6;" glyph-name="AE" horiz-adv-x="970" d="M1031 626Q1014 573 1002 489H919Q920 507 916 514Q912 521 857 521H682L651 378Q868 378 904 392L877 266Q833 281 630 278L591 107H792Q843 107 854 119Q863 130 870 150H952Q945 124 938 87T920
0Q837 3 776 4T675 5Q647 5 550 2Q512 1 481 1T425 0Q435 41 445 81T466 162H270Q237 130 198 90T112 0H-31Q21 49 176 205T592 626Q612 626 638 626T697 624Q776 621 803 621Q843 620 899 621T1031 626ZM548 451Q506 408 466 366T383 282H503Q514 325 525 367T548
451Z" />
<glyph unicode="&#xc7;" glyph-name="Ccedilla" horiz-adv-x="562" d="M251 -18L243 -29Q280 -51 280 -89Q280 -112 265 -137Q227 -200 129 -193Q84 -190 77 -180L117 -110Q127 -116 143 -116Q171 -116 179 -98Q184 -85 184 -77Q184 -53 143 -48Q141 -48 172 -5Q99
20 59 92Q21 159 21 249Q21 288 28 323Q54 468 155 554Q256 642 401 642Q425 642 488 626Q546 611 570 616Q567 602 562 562T550 454H468V475Q466 486 463 490Q440 518 377 516Q310 514 252 464Q185 406 164 308Q158 279 158 255Q158 186 198 147T303 112Q363 117
388 137Q400 146 413 174L497 175Q486 140 473 98T446 6Q419 10 359 -5Q308 -18 251 -18Z" />
<glyph unicode="&#xc8;" glyph-name="Egrave" horiz-adv-x="590" d="M603 626Q586 573 574 489H491Q492 507 488 514Q484 521 429 521H254L223 378Q440 378 476 392L449 266Q405 281 201 278L163 107H364Q415 107 426 119Q435 130 442 150H524Q517 124 510 87T492
0Q419 3 363 4T267 5Q174 5 2 -1Q23 43 83 324Q93 370 102 415T121 506Q131 552 135 582T138 627Q186 624 375 621Q415 620 471 621T603 626ZM435 687L366 665L289 832L368 861L435 687Z" />
<glyph unicode="&#xc9;" glyph-name="Eacute" horiz-adv-x="590" d="M603 626Q586 573 574 489H491Q492 507 488 514Q484 521 429 521H254L223 378Q440 378 476 392L449 266Q405 281 201 278L163 107H364Q415 107 426 119Q435 130 442 150H524Q517 124 510 87T492
0Q419 3 363 4T267 5Q174 5 2 -1Q23 43 83 324Q93 370 102 415T121 506Q131 552 135 582T138 627Q186 624 375 621Q415 620 471 621T603 626ZM510 836L412 669L343 689L430 866L510 836ZM510 836L412 669L343 689L430 866L510 836Z" />
<glyph unicode="&#xca;" glyph-name="Ecircumflex" horiz-adv-x="590" d="M603 626Q586 573 574 489H491Q492 507 488 514Q484 521 429 521H254L223 378Q440 378 476 392L449 266Q405 281 201 278L163 107H364Q415 107 426 119Q435 130 442 150H524Q517 124 510
87T492 0Q419 3 363 4T267 5Q174 5 2 -1Q23 43 83 324Q93 370 102 415T121 506Q131 552 135 582T138 627Q186 624 375 621Q415 620 471 621T603 626ZM572 726L515 675Q496 690 471 711T414 760Q386 744 346 721T252 665L216 726L420 850Q458 819 496 788T572 726Z"
/>
<glyph unicode="&#xcb;" glyph-name="Edieresis" horiz-adv-x="590" d="M603 626Q586 573 574 489H491Q492 507 488 514Q484 521 429 521H254L223 378Q440 378 476 392L449 266Q405 281 201 278L163 107H364Q415 107 426 119Q435 130 442 150H524Q517 124 510
87T492 0Q419 3 363 4T267 5Q174 5 2 -1Q23 43 83 324Q93 370 102 415T121 506Q131 552 135 582T138 627Q186 624 375 621Q415 620 471 621T603 626ZM493 670Q475 670 464 682T452 712Q452 724 457 735T472 756T492 770T516 776Q534 776 546 764T558 733Q558 721
553 710T538 690T517 676T493 670ZM366 725Q361 705 342 689T302 673Q283 673 271 685T258 715Q258 727 264 738T279 758T300 772T324 778Q345 778 357 762T366 725Z" />
<glyph unicode="&#xcc;" glyph-name="Igrave" horiz-adv-x="260" d="M289 623Q281 604 272 573T252 495Q242 449 232 404T212 312Q202 266 193 221T174 129Q154 37 156 0H5Q22 36 45 128Q45 129 84 314Q94 360 103 405T123 496Q139 586 138 623H289ZM269 690L200
668L123 835L202 864L269 690Z" />
<glyph unicode="&#xcd;" glyph-name="Iacute" horiz-adv-x="260" d="M289 623Q281 604 272 573T252 495Q242 449 232 404T212 312Q202 266 193 221T174 129Q154 37 156 0H5Q22 36 45 128Q45 129 84 314Q94 360 103 405T123 496Q139 586 138 623H289ZM363 835L265
668L196 688L283 865L363 835ZM363 835L265 668L196 688L283 865L363 835Z" />
<glyph unicode="&#xce;" glyph-name="Icircumflex" horiz-adv-x="260" d="M289 623Q281 604 272 573T252 495Q242 449 232 404T212 312Q202 266 193 221T174 129Q154 37 156 0H5Q22 36 45 128Q45 129 84 314Q94 360 103 405T123 496Q139 586 138 623H289ZM400
723L343 672Q324 687 299 708T242 757Q214 741 174 718T80 662L44 723L248 847Q286 816 324 785T400 723Z" />
<glyph unicode="&#xcf;" glyph-name="Idieresis" horiz-adv-x="260" d="M289 623Q281 604 272 573T252 495Q242 449 232 404T212 312Q202 266 193 221T174 129Q154 37 156 0H5Q22 36 45 128Q45 129 84 314Q94 360 103 405T123 496Q139 586 138 623H289ZM314 667Q296
667 285 679T273 709Q273 721 278 732T293 753T313 767T337 773Q355 773 367 761T379 730Q379 718 374 707T359 687T338 673T314 667ZM187 722Q182 702 163 686T123 670Q104 670 92 682T79 712Q79 724 85 735T100 755T121 769T145 775Q166 775 178 759T187 722Z"
/>
<glyph unicode="&#xd0;" glyph-name="Eth" horiz-adv-x="672" d="M649 302Q621 144 525 72T255 0H7Q13 14 19 32T32 75Q40 104 52 157T81 291H-16L-3 366H97Q108 418 116 458T130 529Q143 596 142 625H397Q525 625 593 559Q657 496 657 383Q657 348 649 302ZM511
303Q519 340 519 369Q519 517 368 517H261Q255 492 246 455T226 366H383L370 291H210Q208 280 199 234T173 104H276Q364 104 428 159Q491 213 511 303Z" />
<glyph unicode="&#xd1;" glyph-name="Ntilde" horiz-adv-x="777" d="M786 626Q778 607 769 575T749 496Q739 449 729 403T709 310L643 0H514Q427 135 358 246T235 449L205 310Q195 264 186 219T166 129Q148 38 150 0H0Q9 19 18 50T38 128Q48 174 58 220T78 312Q126
538 126 606Q126 616 124 626Q287 626 287 627Q391 457 457 347T552 184Q556 201 563 232T580 311Q590 358 599 404T619 496Q639 591 636 626H786ZM666 742Q602 672 531 672Q481 672 450 696Q419 720 385 721Q353 723 306 667L260 688Q288 742 331 767Q365 787
394 787Q453 787 487 762Q521 738 552 738Q588 738 610 784Q624 773 638 763T666 742Z" />
<glyph unicode="&#xd2;" glyph-name="Ograve" horiz-adv-x="675" d="M648 299Q615 156 511 70Q407 -14 268 -14Q148 -14 81 62Q18 132 18 248Q18 264 19 280T23 314Q49 463 153 554Q260 646 408 646Q529 646 597 575Q660 507 660 396Q660 348 648 299ZM510 312Q517
344 517 377Q517 518 378 518Q288 518 220 435Q158 356 158 264Q158 199 192 159Q230 115 295 115Q372 115 434 175Q492 230 510 312ZM445 696L376 674L299 841L378 870L445 696Z" />
<glyph unicode="&#xd3;" glyph-name="Oacute" horiz-adv-x="675" d="M648 299Q615 156 511 70Q407 -14 268 -14Q148 -14 81 62Q18 132 18 248Q18 264 19 280T23 314Q49 463 153 554Q260 646 408 646Q529 646 597 575Q660 507 660 396Q660 348 648 299ZM510 312Q517
344 517 377Q517 518 378 518Q288 518 220 435Q158 356 158 264Q158 199 192 159Q230 115 295 115Q372 115 434 175Q492 230 510 312ZM543 842L445 675L376 695L463 872L543 842ZM543 842L445 675L376 695L463 872L543 842Z" />
<glyph unicode="&#xd4;" glyph-name="Ocircumflex" horiz-adv-x="675" d="M648 299Q615 156 511 70Q407 -14 268 -14Q148 -14 81 62Q18 132 18 248Q18 264 19 280T23 314Q49 463 153 554Q260 646 408 646Q529 646 597 575Q660 507 660 396Q660 348 648 299ZM510
312Q517 344 517 377Q517 518 378 518Q288 518 220 435Q158 356 158 264Q158 199 192 159Q230 115 295 115Q372 115 434 175Q492 230 510 312ZM585 726L528 675Q509 690 484 711T427 760Q399 744 359 721T265 665L229 726L433 850Q471 819 509 788T585 726Z" />
<glyph unicode="&#xd5;" glyph-name="Otilde" horiz-adv-x="675" d="M648 299Q615 156 511 70Q407 -14 268 -14Q148 -14 81 62Q18 132 18 248Q18 264 19 280T23 314Q49 463 153 554Q260 646 408 646Q529 646 597 575Q660 507 660 396Q660 348 648 299ZM510 312Q517
344 517 377Q517 518 378 518Q288 518 220 435Q158 356 158 264Q158 199 192 159Q230 115 295 115Q372 115 434 175Q492 230 510 312ZM618 743Q554 673 483 673Q433 673 402 697Q371 721 337 722Q305 724 258 668L212 689Q240 743 283 768Q317 788 346 788Q405
788 439 763Q473 739 504 739Q540 739 562 785Q576 774 590 764T618 743Z" />
<glyph unicode="&#xd6;" glyph-name="Odieresis" horiz-adv-x="675" d="M520 675Q503 675 491 687T479 717Q479 729 484 740T499 761T519 775T543 781Q561 781 573 768T585 737Q585 713 565 694T520 675ZM393 730Q389 709 370 693T329 677Q310 677 298 689T286
719Q286 731 292 742T307 762T328 776T352 782Q372 782 384 766T393 730ZM648 299Q615 156 511 70Q407 -14 268 -14Q148 -14 81 62Q18 132 18 248Q18 264 19 280T23 314Q49 463 153 554Q260 646 408 646Q529 646 597 575Q660 507 660 396Q660 348 648 299ZM510
312Q517 344 517 377Q517 518 378 518Q288 518 220 435Q158 356 158 264Q158 199 192 159Q230 115 295 115Q372 115 434 175Q492 230 510 312Z" />
<glyph unicode="&#xd7;" glyph-name="multiply" horiz-adv-x="500" d="M440 164L401 125L250 270L100 125L60 164L210 309L60 454L100 492L250 347L401 492L440 454L290 309L440 164Z" />
<glyph unicode="&#xd8;" glyph-name="Oslash" horiz-adv-x="675" d="M648 299Q616 159 517 75Q417 -10 284 -14L256 -99H162L193 -5Q108 18 62 87Q18 155 18 248Q18 264 19 280T23 314Q48 461 152 553Q257 645 405 646L443 764H537L495 635Q576 612 618 549T660
396Q660 348 648 299ZM510 312Q517 344 517 377Q517 469 452 502L327 118Q395 130 444 185Q494 241 510 312ZM363 517Q277 511 216 429Q158 353 158 264Q158 161 236 127L363 517Z" />
<glyph unicode="&#xd9;" glyph-name="Ugrave" horiz-adv-x="625" d="M630 625Q618 599 603 541Q598 518 589 482T569 395L542 259Q516 131 448 67Q359 -16 223 -16Q91 -16 39 71Q11 120 11 185Q11 202 12 220T18 258L43 384Q51 419 59 461T78 554Q82 577 83 595T83
625H237Q223 595 194 473Q186 436 174 383T147 257Q145 244 144 233T142 211Q142 105 249 105Q314 105 359 152Q396 192 411 254Q433 343 462 505Q470 550 474 579T478 625H630ZM411 691L342 669L265 836L344 865L411 691Z" />
<glyph unicode="&#xda;" glyph-name="Uacute" horiz-adv-x="625" d="M630 625Q618 599 603 541Q598 518 589 482T569 395L542 259Q516 131 448 67Q359 -16 223 -16Q91 -16 39 71Q11 120 11 185Q11 202 12 220T18 258L43 384Q51 419 59 461T78 554Q82 577 83 595T83
625H237Q223 595 194 473Q186 436 174 383T147 257Q145 244 144 233T142 211Q142 105 249 105Q314 105 359 152Q396 192 411 254Q433 343 462 505Q470 550 474 579T478 625H630ZM492 836L394 669L325 689L412 866L492 836ZM492 836L394 669L325 689L412 866L492
836Z" />
<glyph unicode="&#xdb;" glyph-name="Ucircumflex" horiz-adv-x="625" d="M630 625Q618 599 603 541Q598 518 589 482T569 395L542 259Q516 131 448 67Q359 -16 223 -16Q91 -16 39 71Q11 120 11 185Q11 202 12 220T18 258L43 384Q51 419 59 461T78 554Q82 577
83 595T83 625H237Q223 595 194 473Q186 436 174 383T147 257Q145 244 144 233T142 211Q142 105 249 105Q314 105 359 152Q396 192 411 254Q433 343 462 505Q470 550 474 579T478 625H630ZM544 729L487 678Q468 693 443 714T386 763Q358 747 318 724T224 668L188
729L392 853Q430 822 468 791T544 729Z" />
<glyph unicode="&#xdc;" glyph-name="Udieresis" horiz-adv-x="625" d="M468 675Q450 675 438 687T426 717Q426 729 431 740T446 761T466 775T490 781Q509 781 520 768T532 737Q532 713 512 694T468 675ZM340 730Q336 709 317 693T276 677Q257 677 245 689T233
719Q233 731 239 742T254 762T275 776T299 782Q319 782 331 766T340 730ZM630 625Q618 599 603 541Q598 518 589 482T569 395L542 259Q516 131 448 67Q359 -16 223 -16Q91 -16 39 71Q11 120 11 185Q11 202 12 220T18 258L43 384Q51 419 59 461T78 554Q82 577 83
595T83 625H237Q223 595 194 473Q186 436 174 383T147 257Q145 244 144 233T142 211Q142 105 249 105Q314 105 359 152Q396 192 411 254Q433 343 462 505Q470 550 474 579T478 625H630Z" />
<glyph unicode="&#xdd;" glyph-name="Yacute" horiz-adv-x="535" d="M577 626Q557 608 519 568T425 463Q391 425 358 387T292 310Q282 264 273 219T255 128Q237 35 238 0H87Q106 39 125 129Q135 175 145 221T165 313Q152 344 131 393T79 512Q32 611 14 626H174Q171
618 171 607Q171 580 188 544L251 409L367 543Q416 598 420 626H577ZM424 836L326 669L257 689L344 866L424 836ZM424 836L326 669L257 689L344 866L424 836Z" />
<glyph unicode="&#xde;" glyph-name="Thorn" horiz-adv-x="260" d="M563 323Q542 194 445 148Q400 125 310 121Q279 120 244 120T171 118Q154 35 156 0H5Q22 36 45 128L84 314Q94 360 103 405T123 496Q139 586 138 623H289Q275 594 258 524L397 523Q567 521 567
372Q567 361 566 349T563 323ZM428 326Q431 342 431 355Q431 405 386 419Q374 423 334 423H236L193 222H291Q338 222 359 232Q415 255 428 326Z" />
<glyph unicode="&#xdf;" glyph-name="germandbls" horiz-adv-x="466" d="M268 -12Q260 -11 252 -11T235 -10Q212 -7 180 5Q165 11 155 9L176 108H240Q242 103 244 99T248 89Q257 75 282 72Q304 70 319 83T337 117Q341 148 311 163Q254 191 243 200Q210 225 210
264Q210 276 213 290Q223 340 285 396Q347 452 356 478Q363 499 363 515Q363 562 309 562Q283 562 259 537T224 466Q217 439 208 399T186 303Q172 238 157 163T124 0H26Q36 31 46 69T66 154Q74 193 82 232T98 310Q46 309 31 304L49 392Q63 384 113 386Q134 494
162 551Q183 596 232 624Q279 650 330 650Q337 650 344 650T358 648Q462 631 462 528Q462 493 448 453Q431 406 365 353Q305 305 305 287Q304 266 317 259Q330 252 343 246T369 233Q433 196 433 124Q433 60 383 22Q332 -16 268 -12Z" />
<glyph unicode="&#xe0;" glyph-name="agrave" horiz-adv-x="520" d="M509 397L489 304Q410 276 394 183Q391 163 391 150Q391 82 458 81L420 -10Q384 -10 355 10Q323 32 322 73Q269 -8 162 -8Q83 -8 43 40Q7 83 7 155Q7 168 8 180T12 207Q26 286 89 340Q158 400
248 397Q304 395 333 374Q357 356 374 310Q392 358 436 382Q473 401 509 397ZM313 218Q313 254 290 278T228 302Q189 300 154 270Q118 238 109 196Q106 181 106 166Q106 129 126 108T183 86Q234 86 273 126Q313 166 313 218ZM289 468L220 446L143 613L222 642L289
468Z" />
<glyph unicode="&#xe1;" glyph-name="aacute" horiz-adv-x="520" d="M517 397L497 304Q418 276 402 183Q399 163 399 150Q399 82 466 81L428 -10Q392 -10 363 10Q331 32 330 73Q277 -8 170 -8Q91 -8 51 40Q15 83 15 155Q15 168 16 180T20 207Q34 286 97 340Q166
400 256 397Q312 395 341 374Q365 356 382 310Q400 358 444 382Q481 401 517 397ZM321 218Q321 254 298 278T236 302Q197 300 162 270Q126 238 117 196Q114 181 114 166Q114 129 134 108T191 86Q242 86 281 126Q321 166 321 218ZM405 612L307 445L238 465L325 642L405
612ZM405 612L307 445L238 465L325 642L405 612Z" />
<glyph unicode="&#xe2;" glyph-name="acircumflex" horiz-adv-x="520" d="M517 397L497 304Q418 276 402 183Q399 163 399 150Q399 82 466 81L428 -10Q392 -10 363 10Q331 32 330 73Q277 -8 170 -8Q91 -8 51 40Q15 83 15 155Q15 168 16 180T20 207Q34 286 97 340Q166
400 256 397Q312 395 341 374Q365 356 382 310Q400 358 444 382Q481 401 517 397ZM321 218Q321 254 298 278T236 302Q197 300 162 270Q126 238 117 196Q114 181 114 166Q114 129 134 108T191 86Q242 86 281 126Q321 166 321 218ZM453 521L396 470Q377 485 352 506T295
555Q267 539 227 516T133 460L97 521L301 645Q339 614 377 583T453 521Z" />
<glyph unicode="&#xe3;" glyph-name="atilde" horiz-adv-x="520" d="M517 397L497 304Q418 276 402 183Q399 163 399 150Q399 82 466 81L428 -10Q392 -10 363 10Q331 32 330 73Q277 -8 170 -8Q91 -8 51 40Q15 83 15 155Q15 168 16 180T20 207Q34 286 97 340Q166
400 256 397Q312 395 341 374Q365 356 382 310Q400 358 444 382Q481 401 517 397ZM321 218Q321 254 298 278T236 302Q197 300 162 270Q126 238 117 196Q114 181 114 166Q114 129 134 108T191 86Q242 86 281 126Q321 166 321 218ZM499 540Q435 470 364 470Q314 470
283 494Q252 518 218 519Q186 521 139 465L93 486Q121 540 164 565Q198 585 227 585Q286 585 320 560Q354 536 385 536Q421 536 443 582Q457 571 471 561T499 540Z" />
<glyph unicode="&#xe4;" glyph-name="adieresis" horiz-adv-x="520" d="M517 397L497 304Q418 276 402 183Q399 163 399 150Q399 82 466 81L428 -10Q392 -10 363 10Q331 32 330 73Q277 -8 170 -8Q91 -8 51 40Q15 83 15 155Q15 168 16 180T20 207Q34 286 97 340Q166
400 256 397Q312 395 341 374Q365 356 382 310Q400 358 444 382Q481 401 517 397ZM321 218Q321 254 298 278T236 302Q197 300 162 270Q126 238 117 196Q114 181 114 166Q114 129 134 108T191 86Q242 86 281 126Q321 166 321 218ZM372 465Q354 465 343 477T331 507Q331
519 336 530T351 551T371 565T395 571Q413 571 425 559T437 528Q437 516 432 505T417 485T396 471T372 465ZM245 520Q240 500 221 484T181 468Q162 468 150 480T137 510Q137 522 143 533T158 553T179 567T203 573Q224 573 236 557T245 520Z" />
<glyph unicode="&#xe5;" glyph-name="aring" horiz-adv-x="520" d="M256 471Q223 471 202 492T181 544Q181 588 216 621Q251 655 295 655Q328 655 349 635T370 583Q370 540 335 505Q301 471 256 471ZM319 564Q323 582 313 594T285 607Q267 607 252 595T232 564Q228
546 238 533T266 520Q284 520 299 533T319 564ZM517 397L497 304Q418 276 402 183Q399 163 399 150Q399 82 466 81L428 -10Q392 -10 363 10Q331 32 330 73Q277 -8 170 -8Q91 -8 51 40Q15 83 15 155Q15 168 16 180T20 207Q34 286 97 340Q166 400 256 397Q312 395
341 374Q365 356 382 310Q400 358 444 382Q481 401 517 397ZM321 218Q321 254 298 278T236 302Q197 300 162 270Q126 238 117 196Q114 181 114 166Q114 129 134 108T191 86Q242 86 281 126Q321 166 321 218Z" />
<glyph unicode="&#xe6;" glyph-name="ae" horiz-adv-x="749" d="M698 167H412Q411 160 411 153T411 139Q413 119 420 107Q436 80 490 80Q543 79 592 117L635 40Q557 -4 473 -8Q382 -12 337 53Q274 -13 164 -11Q106 -11 72 14Q32 42 32 92Q32 103 35 117Q46 183
123 218Q189 247 273 247Q281 247 289 247T305 246Q306 251 306 255T307 263Q307 314 252 318Q213 322 149 301Q86 280 59 253L62 344Q88 369 144 385Q203 402 257 402Q299 402 334 384Q373 362 386 322Q405 354 456 376Q501 395 543 395Q624 394 665 351T706 235Q706
205 698 167ZM619 240Q611 306 544 306Q472 306 432 240H619ZM299 175Q147 177 128 119Q125 111 125 103Q125 85 137 72T167 60Q247 62 289 113Q291 124 293 139T299 175Z" />
<glyph unicode="&#xe7;" glyph-name="ccedilla" horiz-adv-x="368" d="M199 -6L183 -29Q220 -51 220 -89Q220 -112 205 -137Q167 -200 69 -193Q24 -190 17 -180L57 -110Q67 -116 83 -116Q111 -116 119 -98Q124 -85 124 -77Q124 -53 83 -48Q80 -48 120 4Q28 40
28 159Q28 184 32 207Q47 287 109 338Q168 385 252 394Q309 400 364 385L327 292Q295 305 259 305Q202 305 161 267Q121 230 121 173Q121 135 144 110T207 84Q247 84 292 104L302 19Q288 14 278 10T260 3Q233 -5 199 -6Z" />
<glyph unicode="&#xe8;" glyph-name="egrave" horiz-adv-x="435" d="M409 167H125Q124 162 124 157T123 147Q123 81 198 81Q204 81 210 81T224 83Q272 90 304 116L348 38Q262 -5 197 -8Q112 -12 68 32T23 157Q23 183 27 206Q39 292 106 344Q175 397 267 396Q342
395 381 357T420 248Q420 213 409 167ZM321 241Q323 308 252 306Q181 304 156 241H321ZM293 465L224 443L147 610L226 639L293 465Z" />
<glyph unicode="&#xe9;" glyph-name="eacute" horiz-adv-x="435" d="M407 169H123Q122 164 122 159T121 149Q121 83 196 83Q202 83 208 83T222 85Q270 92 302 118L346 40Q260 -3 195 -6Q110 -10 66 34T21 159Q21 185 25 208Q37 294 104 346Q173 399 265 398Q340
397 379 359T418 250Q418 215 407 169ZM319 243Q321 310 250 308Q179 306 154 243H319ZM404 617L306 450L237 470L324 647L404 617ZM404 617L306 450L237 470L324 647L404 617Z" />
<glyph unicode="&#xea;" glyph-name="ecircumflex" horiz-adv-x="438" d="M416 167H132Q131 162 131 157T130 147Q130 81 205 81Q211 81 217 81T231 83Q279 90 311 116L355 38Q269 -5 204 -8Q119 -12 75 32T30 157Q30 183 34 206Q46 292 113 344Q182 397 274 396Q349
395 388 357T427 248Q427 213 416 167ZM328 241Q330 308 259 306Q188 304 163 241H328ZM452 521L395 470Q376 485 351 506T294 555Q266 539 226 516T132 460L96 521L300 645Q338 614 376 583T452 521Z" />
<glyph unicode="&#xeb;" glyph-name="edieresis" horiz-adv-x="435" d="M409 167H125Q124 162 124 157T123 147Q123 81 198 81Q204 81 210 81T224 83Q272 90 304 116L348 38Q262 -5 197 -8Q112 -12 68 32T23 157Q23 183 27 206Q39 292 106 344Q175 397 267 396Q342
395 381 357T420 248Q420 213 409 167ZM321 241Q323 308 252 306Q181 304 156 241H321ZM364 463Q346 463 335 475T323 505Q323 517 328 528T343 549T363 563T387 569Q405 569 417 557T429 526Q429 514 424 503T409 483T388 469T364 463ZM237 518Q232 498 213 482T173
466Q154 466 142 478T129 508Q129 520 135 531T150 551T171 565T195 571Q216 571 228 555T237 518Z" />
<glyph unicode="&#xec;" glyph-name="igrave" horiz-adv-x="240" d="M195 465L126 443L49 610L128 639L195 465ZM214 372Q212 355 202 313T174 203Q144 91 149 88Q156 84 213 111L195 25Q177 13 116 -1Q57 -15 32 -13Q27 -11 27 2Q27 28 43 91Q48 111 54 131T65
171Q93 284 93 290Q93 298 86 298Q81 298 63 293Q45 286 43 286L56 373Q82 380 115 384T189 390Q200 392 207 387T214 372Z" />
<glyph unicode="&#xed;" glyph-name="iacute" horiz-adv-x="240" d="M293 617L195 450L126 470L213 647L293 617ZM293 617L195 450L126 470L213 647L293 617ZM216 378Q214 361 204 319T176 209Q146 97 151 94Q158 90 215 117L197 31Q177 17 118 4Q89 -3 68 -5T34
-7Q29 -5 29 8Q29 34 45 97Q50 117 56 137T67 177Q95 290 95 296Q95 304 88 304Q83 304 65 299Q47 292 45 292L58 379Q84 386 117 390T191 396Q202 398 209 393T216 378Z" />
<glyph unicode="&#xee;" glyph-name="icircumflex" horiz-adv-x="240" d="M361 518L304 467Q285 482 260 503T203 552Q175 536 135 513T41 457L5 518L209 642Q247 611 285 580T361 518ZM229 377Q227 360 217 318T189 208Q159 96 164 93Q171 89 228 116L210 30Q190
16 131 3Q102 -4 81 -6T47 -8Q42 -6 42 7Q42 33 58 96Q63 116 69 136T80 176Q108 289 108 295Q108 303 101 303Q96 303 78 298Q60 291 58 291L71 378Q97 385 130 389T204 395Q215 397 222 392T229 377Z" />
<glyph unicode="&#xef;" glyph-name="idieresis" horiz-adv-x="240" d="M244 469Q226 469 215 481T203 511Q203 523 208 534T223 555T243 569T267 575Q285 575 297 563T309 532Q309 520 304 509T289 489T268 475T244 469ZM117 524Q112 504 93 488T53 472Q34 472
22 484T9 514Q9 526 15 537T30 557T51 571T75 577Q96 577 108 561T117 524ZM220 379Q218 362 208 320T180 210Q150 98 155 95Q162 91 219 118L201 32Q181 18 122 5Q93 -2 72 -4T38 -6Q33 -4 33 9Q33 35 49 98Q54 118 60 138T71 178Q99 291 99 297Q99 305 92 305Q87
305 69 300Q51 293 49 293L62 380Q88 387 121 391T195 397Q206 399 213 394T220 379Z" />
<glyph unicode="&#xf0;" glyph-name="eth" horiz-adv-x="459" d="M439 195Q426 92 348 39Q282 -6 185 -6Q107 -6 62 42Q19 86 19 159Q19 171 20 183T24 208Q33 253 55 288T110 347T182 383T270 396Q273 396 281 393T291 389Q258 456 227 482L90 418Q89 417 83
451L203 507Q163 547 103 595L203 642L211 636Q262 597 296 559L432 623Q433 622 441 591L319 534Q442 384 442 242Q442 219 439 195ZM331 201Q335 213 335 229Q335 266 313 288T251 311Q197 311 157 271Q116 230 116 178Q116 140 140 116T204 91Q249 91 284 120T331
201Z" />
<glyph unicode="&#xf1;" glyph-name="ntilde" horiz-adv-x="470" d="M462 117L444 31Q424 17 365 4Q336 -3 315 -5T282 -7Q275 -6 275 8Q275 30 288 78L306 144Q323 229 323 251Q323 306 281 306Q221 306 157 257L103 0H3Q15 49 31 124T70 302Q68 305 61 305Q50
305 31 299Q26 297 20 296T8 292L20 379Q46 386 79 390T154 396Q165 398 172 393T179 378L173 344Q189 360 223 375Q270 397 324 397Q428 397 428 292Q428 271 425 246T414 189Q393 94 394 93Q404 89 462 117ZM464 541Q400 471 329 471Q279 471 248 495Q217 519
183 520Q151 522 104 466L58 487Q86 541 129 566Q163 586 192 586Q251 586 285 561Q319 537 350 537Q386 537 408 583Q422 572 436 562T464 541Z" />
<glyph unicode="&#xf2;" glyph-name="ograve" horiz-adv-x="442" d="M431 195Q414 101 343 46Q276 -6 185 -6Q107 -6 62 42Q19 86 19 159Q19 171 20 183T24 208Q33 253 55 288T110 347T182 383T270 396Q349 396 392 355T435 241Q435 230 434 219T431 195ZM331
201Q335 213 335 229Q335 266 313 288T251 311Q197 311 157 271Q116 230 116 178Q116 140 140 116T204 91Q249 91 284 120T331 201ZM314 464L245 442L168 609L247 638L314 464Z" />
<glyph unicode="&#xf3;" glyph-name="oacute" horiz-adv-x="444" d="M431 195Q414 101 343 46Q276 -6 185 -6Q107 -6 62 42Q19 86 19 159Q19 171 20 183T24 208Q33 253 55 288T110 347T182 383T270 396Q349 396 392 355T435 241Q435 230 434 219T431 195ZM331
201Q335 213 335 229Q335 266 313 288T251 311Q197 311 157 271Q116 230 116 178Q116 140 140 116T204 91Q249 91 284 120T331 201ZM402 613L304 446L235 466L322 643L402 613ZM402 613L304 446L235 466L322 643L402 613Z" />
<glyph unicode="&#xf4;" glyph-name="ocircumflex" horiz-adv-x="444" d="M431 195Q414 101 343 46Q276 -6 185 -6Q107 -6 62 42Q19 86 19 159Q19 171 20 183T24 208Q33 253 55 288T110 347T182 383T270 396Q349 396 392 355T435 241Q435 230 434 219T431 195ZM331
201Q335 213 335 229Q335 266 313 288T251 311Q197 311 157 271Q116 230 116 178Q116 140 140 116T204 91Q249 91 284 120T331 201ZM441 524L384 473Q365 488 340 509T283 558Q255 542 215 519T121 463L85 524L289 648Q327 617 365 586T441 524Z" />
<glyph unicode="&#xf5;" glyph-name="otilde" horiz-adv-x="444" d="M431 195Q414 101 343 46Q276 -6 185 -6Q107 -6 62 42Q19 86 19 159Q19 171 20 183T24 208Q33 253 55 288T110 347T182 383T270 396Q349 396 392 355T435 241Q435 230 434 219T431 195ZM331
201Q335 213 335 229Q335 266 313 288T251 311Q197 311 157 271Q116 230 116 178Q116 140 140 116T204 91Q249 91 284 120T331 201ZM454 536Q390 466 319 466Q269 466 238 490Q207 514 173 515Q141 517 94 461L48 482Q76 536 119 561Q153 581 182 581Q241 581 275
556Q309 532 340 532Q376 532 398 578Q412 567 426 557T454 536Z" />
<glyph unicode="&#xf6;" glyph-name="odieresis" horiz-adv-x="443" d="M431 195Q414 101 343 46Q276 -6 185 -6Q107 -6 62 42Q19 86 19 159Q19 171 20 183T24 208Q33 253 55 288T110 347T182 383T270 396Q349 396 392 355T435 241Q435 230 434 219T431 195ZM331
201Q335 213 335 229Q335 266 313 288T251 311Q197 311 157 271Q116 230 116 178Q116 140 140 116T204 91Q249 91 284 120T331 201ZM361 468Q343 468 332 480T320 510Q320 522 325 533T340 554T360 568T384 574Q402 574 414 562T426 531Q426 519 421 508T406 488T385
474T361 468ZM234 523Q229 503 210 487T170 471Q151 471 139 483T126 513Q126 525 132 536T147 556T168 570T192 576Q213 576 225 560T234 523Z" />
<glyph unicode="&#xf7;" glyph-name="divide" horiz-adv-x="594" d="M355 444Q355 421 338 405T297 388Q275 388 258 405T241 444Q241 467 258 484T297 502Q320 502 337 485T355 444ZM543 228H49V283H543V228ZM355 67Q355 43 338 27T297 10Q275 10 258 27T241
67Q241 89 258 106T297 123Q320 123 337 106T355 67Z" />
<glyph unicode="&#xf8;" glyph-name="oslash" horiz-adv-x="450" d="M431 195Q414 105 349 51Q285 -1 198 -6L171 -88H97L126 2Q75 18 47 60T19 159Q19 171 20 183T24 208Q42 294 106 343Q168 392 254 396L278 468H352L326 389Q435 361 435 241Q435 230 434 219T431
195ZM331 201Q335 213 335 229Q335 277 297 300L230 93Q312 111 331 201ZM226 308Q182 299 148 261Q116 223 116 178Q116 124 159 102L226 308Z" />
<glyph unicode="&#xf9;" glyph-name="ugrave" horiz-adv-x="460" d="M444 391Q432 342 415 268T376 94Q376 92 379 92Q385 92 399 99L417 108V30Q302 -11 278 -5Q267 -3 267 14Q267 20 272 48Q201 -5 127 -5Q18 -5 18 107Q18 147 30 203Q38 235 48 282T73 392H173Q167
372 158 337T136 247Q119 159 119 145Q119 90 165 90Q175 90 180 91Q232 98 264 123Q270 129 276 135T289 147Q302 201 315 262T342 392L444 391ZM301 464L232 442L155 609L234 638L301 464Z" />
<glyph unicode="&#xfa;" glyph-name="uacute" horiz-adv-x="460" d="M444 387Q432 338 415 264T376 90Q376 88 379 88Q385 88 399 95L417 104V26Q302 -15 278 -9Q267 -7 267 10Q267 16 272 44Q201 -9 127 -9Q18 -9 18 103Q18 143 30 199Q38 231 48 278T73 388H173Q167
368 158 333T136 243Q119 155 119 141Q119 86 165 86Q175 86 180 87Q232 94 264 119Q270 125 276 131T289 143Q302 197 315 258T342 388L444 387ZM394 612L296 445L227 465L314 642L394 612ZM394 612L296 445L227 465L314 642L394 612Z" />
<glyph unicode="&#xfb;" glyph-name="ucircumflex" horiz-adv-x="460" d="M444 387Q432 338 415 264T376 90Q376 88 379 88Q385 88 399 95L417 104V26Q302 -15 278 -9Q267 -7 267 10Q267 16 272 44Q201 -9 127 -9Q18 -9 18 103Q18 143 30 199Q38 231 48 278T73
388H173Q167 368 158 333T136 243Q119 155 119 141Q119 86 165 86Q175 86 180 87Q232 94 264 119Q270 125 276 131T289 143Q302 197 315 258T342 388L444 387ZM453 521L396 470Q377 485 352 506T295 555Q267 539 227 516T133 460L97 521L301 645Q339 614 377 583T453
521Z" />
<glyph unicode="&#xfc;" glyph-name="udieresis" horiz-adv-x="460" d="M444 387Q432 338 415 264T376 90Q376 88 379 88Q385 88 399 95L417 104V26Q302 -15 278 -9Q267 -7 267 10Q267 16 272 44Q201 -9 127 -9Q18 -9 18 103Q18 143 30 199Q38 231 48 278T73 388H173Q167
368 158 333T136 243Q119 155 119 141Q119 86 165 86Q175 86 180 87Q232 94 264 119Q270 125 276 131T289 143Q302 197 315 258T342 388L444 387ZM354 462Q336 462 325 474T313 504Q313 516 318 527T333 548T353 562T377 568Q395 568 407 556T419 525Q419 513 414
502T399 482T378 468T354 462ZM227 517Q222 497 203 481T163 465Q144 465 132 477T119 507Q119 519 125 530T140 550T161 564T185 570Q206 570 218 554T227 517Z" />
<glyph unicode="&#xfd;" glyph-name="yacute" horiz-adv-x="505" d="M495 387Q460 327 417 253T319 91Q300 60 281 30T242 -31Q188 -114 141 -159Q79 -218 19 -223Q-24 -226 -59 -209Q-103 -188 -122 -185L-53 -91Q-15 -126 31 -129Q50 -130 82 -97Q95 -83 105
-69T123 -39Q98 68 74 174T24 388L133 389Q143 346 159 269T199 76Q222 112 251 162T317 278Q378 387 380 387Q494 388 495 387ZM389 610L291 443L222 463L309 640L389 610ZM389 610L291 443L222 463L309 640L389 610Z" />
<glyph unicode="&#xfe;" glyph-name="thorn" horiz-adv-x="472" d="M463 186Q428 -4 226 -5Q166 -6 143 23L139 0Q131 -35 121 -91T97 -223L-8 -220Q10 -165 46 4Q60 69 79 165T125 391H127Q155 530 151 535Q149 537 145 537Q138 537 122 531Q103 525 115 612Q141
619 174 623T249 629Q259 631 267 626T274 611Q272 595 260 538T224 381Q255 394 302 396Q377 397 422 356T467 236Q467 224 466 212T463 186ZM368 194Q369 201 369 207T370 221Q370 259 348 281T288 304Q237 304 200 271Q187 213 179 175T168 117Q192 83 241 83Q287
83 322 114T368 194Z" />
<glyph unicode="&#xff;" glyph-name="ydieresis" horiz-adv-x="505" d="M495 387Q460 327 417 253T319 91Q300 60 281 30T242 -31Q188 -114 141 -159Q79 -218 19 -223Q-24 -226 -59 -209Q-103 -188 -122 -185L-53 -91Q-15 -126 31 -129Q50 -130 82 -97Q95 -83
105 -69T123 -39Q98 68 74 174T24 388L133 389Q143 346 159 269T199 76Q222 112 251 162T317 278Q378 387 380 387Q494 388 495 387ZM357 461Q339 461 328 473T316 503Q316 515 321 526T336 547T356 561T380 567Q398 567 410 555T422 524Q422 512 417 501T402 481T381
467T357 461ZM230 516Q225 496 206 480T166 464Q147 464 135 476T122 506Q122 518 128 529T143 549T164 563T188 569Q209 569 221 553T230 516Z" />
<glyph unicode="&#x2013;" glyph-name="endash" horiz-adv-x="717" d="M714 279L698 204H0L16 279H714Z" />
<glyph unicode="&#x2014;" glyph-name="emdash" horiz-adv-x="901" d="M900 279L882 204H0L18 279H900Z" />
<glyph unicode="&#x2018;" glyph-name="quoteleft" horiz-adv-x="207" d="M178 472L109 450L32 617L111 646L178 472Z" />
<glyph unicode="&#x2019;" glyph-name="quoteright" horiz-adv-x="249" d="M141 646L220 617L143 450L74 472L141 646Z" />
<glyph unicode="&#x201a;" glyph-name="quotesinglbase" horiz-adv-x="209" d="M185 34L86 -136L12 -111L95 67L185 34Z" />
<glyph unicode="&#x201c;" glyph-name="quotedblleft" horiz-adv-x="343" d="M178 472L109 450L32 617L111 646L178 472ZM314 472L245 450L168 617L247 646L314 472Z" />
<glyph unicode="&#x201d;" glyph-name="quotedblright" horiz-adv-x="385" d="M277 646L356 617L279 450L210 472L277 646ZM141 646L220 617L143 450L74 472L141 646Z" />
<glyph unicode="&#x201e;" glyph-name="quotedblbase" horiz-adv-x="357" d="M333 36L236 -134L160 -109L243 69L333 36ZM185 36L88 -134L12 -109L95 69L185 36Z" />
<glyph unicode="&#x2022;" glyph-name="bullet" horiz-adv-x="594" d="M466 337Q466 268 416 218Q367 169 297 169Q227 169 178 218Q128 268 128 337Q128 406 178 456Q228 506 297 506Q366 506 416 456Q466 406 466 337Z" />
<glyph unicode="&#x2039;" glyph-name="guilsinglleft" horiz-adv-x="340" d="M336 478L319 373L118 230L255 96L234 0L24 208L38 270L336 478Z" />
<glyph unicode="&#x203a;" glyph-name="guilsinglright" horiz-adv-x="340" d="M316 270L302 208L4 0L22 98L224 248L82 390L106 478L316 270Z" />
</font>
</defs>
</svg>
