<?xml version="1.0" standalone="no"?>
<!DOCTYPE svg PUBLIC "-//W3C//DTD SVG 1.1//EN" "http://www.w3.org/Graphics/SVG/1.1/DTD/svg11.dtd">
<svg xmlns="http://www.w3.org/2000/svg">
<defs >
<font id="Faustina" horiz-adv-x="530" ><font-face
    font-family="Faustina"
    units-per-em="1000"
    panose-1="0 0 5 0 0 0 0 0 0 0"
    ascent="1043"
    descent="-217"
    alphabetic="0" />
<glyph unicode=" " glyph-name="space" horiz-adv-x="201" />
<glyph unicode="!" glyph-name="exclam" horiz-adv-x="201" d="M35 668T48 672T85 677Q116 677 126 662T137 621L113 160H69L35 667Q35 668 48 672ZM64 -11T50 5T35 48Q35 74 51 92T93 111Q118 111 132 96T147 53Q147 27 131 8T88 -11Q64 -11 50 5Z" />
<glyph unicode="&quot;" glyph-name="quotedbl" horiz-adv-x="334" d="M89 718T112 718Q134 718 140 707T147 680Q144 654 143 645L120 494H80L59 705Q89 718 112 718ZM222 718T245 718Q267 718 273 707T280 680Q277 654 276 645L253 494H213L192 705Q222 718 245 718Z" />
<glyph unicode="#" glyph-name="numbersign" d="M106 124H-2V183H117L143 319H21V378H155L182 520H242L215 378H349L376 520H436L409 378H511V319H397L371 183H488V124H360L330 -32H270L300 124H166L136 -32H76L106 124ZM311 183L337 319H203L177 183H311Z" />
<glyph unicode="$" glyph-name="dollar" horiz-adv-x="484" d="M448 111T402 61T280 -1L275 -117H222L217 -3Q169 1 125 16T59 50V193H109L123 93Q144 76 177 65T248 54Q362 54 362 158Q362 195 348 218T306 257T226 295Q176 316 143 336T85 391T60 479Q60 548
104 594T225 651L229 760H283L287 652Q323 650 363 643T424 628V477H375L356 571Q315 594 256 594Q200 594 174 572T147 504Q147 469 162 447T201 411T274 377Q334 351 369 330T426 275T448 188Q448 111 402 61Z" />
<glyph unicode="%" glyph-name="percent" horiz-adv-x="684" d="M125 -45L73 -12L542 667L591 635L125 -45ZM79 348T47 388T15 502Q15 575 53 617T166 660Q242 660 274 620T306 504Q306 348 156 348Q79 348 47 388ZM207 399T223 423T239 504Q239 565 222 587T160
609Q118 609 100 584T82 504Q82 449 98 424T161 399Q207 399 223 423ZM442 -8T410 32T378 146Q378 219 416 261T529 304Q605 304 637 264T669 148Q669 -8 519 -8Q442 -8 410 32ZM570 43T586 67T602 148Q602 209 585 231T523 253Q481 253 463 228T445 148Q445 93
461 68T524 43Q570 43 586 67Z" />
<glyph unicode="&amp;" glyph-name="ampersand" horiz-adv-x="611" d="M383 -10T273 -10Q174 -10 109 30T44 169Q44 238 84 281T170 347Q130 390 111 425T92 501Q92 570 140 615T275 660Q319 660 358 651T421 632V484H372L352 586Q350 587 340 591T311 598T266
602Q213 602 191 580T169 512Q169 479 183 458T246 386L464 160Q478 194 478 237Q478 268 475 290T467 322L384 338V383H520Q539 328 539 238Q539 173 506 116L561 60L638 43V0H552Q511 0 481 30L456 55Q383 -10 273 -10ZM175 299T154 267T132 183Q132 115 165
84T286 52Q366 52 417 95L201 316Q175 299 154 267Z" />
<glyph unicode="&apos;" glyph-name="quotesingle" horiz-adv-x="207" d="M89 718T112 718Q134 718 140 707T147 680Q144 654 143 645L120 494H80L59 705Q89 718 112 718Z" />
<glyph unicode="(" glyph-name="parenleft" horiz-adv-x="258" d="M124 -128T81 -9T37 279Q37 660 239 699L257 658Q198 642 170 597T132 478T123 279Q123 146 133 69T173 -51T258 -109L240 -151Q124 -128 81 -9Z" />
<glyph unicode=")" glyph-name="parenright" horiz-adv-x="258" d="M56 -94T85 -51T124 69T135 279Q135 405 126 478T89 596T1 658L19 699Q221 660 221 279Q221 110 178 -9T18 -151L0 -109Q56 -94 85 -51Z" />
<glyph unicode="*" glyph-name="asterisk" horiz-adv-x="384" d="M209 564L171 550L135 628Q118 664 118 680Q118 712 167 712H186L209 564ZM234 531L209 564L271 622Q275 626 285 636T304 651T325 657Q339 657 348 645T367 601L234 531ZM171 550V509L87 499Q57
496 50 496Q35 496 23 503T11 528Q11 544 23 574L171 550ZM314 488T329 480T352 463T361 442Q361 431 352 420T319 393L211 497L234 531L309 491Q314 488 329 480ZM171 509L211 497L196 414Q195 410 192 391T180 360T156 347Q141 347 106 374L171 509Z" />
<glyph unicode="+" glyph-name="plus" d="M231 69V240H65V299H231V469H298V299H465V240H298V69H231Z" />
<glyph unicode="," glyph-name="comma" horiz-adv-x="184" d="M22 -115Q40 -83 51 -53T62 -3Q62 16 53 32T30 59Q53 109 96 109Q122 109 137 91T153 46Q153 2 119 -49T56 -129L22 -115Z" />
<glyph unicode="-" glyph-name="hyphen" horiz-adv-x="313" d="M41 297L256 314V237H41V297Z" />
<glyph unicode="." glyph-name="period" horiz-adv-x="191" d="M68 -11T53 6T37 52Q37 80 54 99T99 119Q125 119 140 103T156 58Q156 29 140 9T94 -11Q68 -11 53 6Z" />
<glyph unicode="/" glyph-name="slash" horiz-adv-x="350" d="M338 695L398 668L35 -167L-27 -140L338 695Z" />
<glyph unicode="0" glyph-name="zero" horiz-adv-x="592" d="M158 -8T103 78T48 327Q48 486 111 573T307 661Q437 661 491 576T546 327Q546 168 484 80T289 -8Q158 -8 103 78ZM358 51T392 82T439 172T452 327Q452 422 439 481T392 571T297 602Q236 602 202 572T155
482T142 327Q142 232 155 173T202 82T297 51Q358 51 392 82Z" />
<glyph unicode="1" glyph-name="one" horiz-adv-x="390" d="M55 0V49L169 60V579H44V628L210 658H254V60L371 49V0H55Z" />
<glyph unicode="2" glyph-name="two" horiz-adv-x="486" d="M29 55L215 250Q287 325 317 373T347 476Q347 538 320 565T221 593Q149 593 111 574L95 479H45V623Q74 636 119 648T221 660Q333 660 386 618T440 482Q440 440 422 401T365 315T252 196L137 82V76H396L416
163H466V0H29V55Z" />
<glyph unicode="3" glyph-name="three" horiz-adv-x="442" d="M145 -10T96 4T20 36L27 165H79L89 85Q141 54 194 54Q266 54 301 84T336 185Q336 255 295 281T178 308H126L111 336V372H161Q221 372 266 401T311 486Q311 542 285 567T191 593Q164 593 143 590T111
582T96 577L87 492H36L28 629Q102 660 201 660Q308 660 351 621T394 512Q394 454 363 415T285 358L282 357Q342 343 386 305T431 193Q431 93 367 42T193 -10Q145 -10 96 4Z" />
<glyph unicode="4" glyph-name="four" horiz-adv-x="482" d="M206 0V44L289 59V181H21L-4 228L320 676L371 654V244H463V181H371V59L454 44V0H206ZM86 244H289V542L280 525L83 250L86 244Z" />
<glyph unicode="5" glyph-name="five" horiz-adv-x="441" d="M89 -10T20 32L27 168H81L90 72Q112 62 136 55T201 48Q273 48 304 87T336 200Q336 273 293 309T146 346H45V648H396V572H103V409H164Q302 409 365 362T429 215Q429 112 368 51T198 -10Q89 -10 20 32Z" />
<glyph unicode="6" glyph-name="six" horiz-adv-x="512" d="M147 -10T96 54T45 254Q45 376 91 465T225 603T436 657V617Q297 603 222 533T143 344Q178 368 219 381T302 394Q380 394 428 344T477 214Q477 147 450 97T371 18T253 -10Q147 -10 96 54ZM328 48T357
85T386 200Q386 260 354 292T262 325Q209 325 142 305V279Q142 192 154 142T193 70T267 48Q328 48 357 85Z" />
<glyph unicode="7" glyph-name="seven" horiz-adv-x="433" d="M89 0V41L366 555V572H92L84 493H30L21 648H438V572L164 0H89Z" />
<glyph unicode="8" glyph-name="eight" horiz-adv-x="482" d="M144 -10T93 30T42 144Q42 200 76 247T164 326Q113 354 86 392T58 484Q58 536 83 576T153 638T251 660Q338 660 384 618T430 506Q430 456 402 415T328 347Q389 315 420 276T452 179Q452 130 430 87T360
17T240 -10Q144 -10 93 30ZM321 392T336 422T351 493Q351 548 326 571T242 594Q138 594 138 505Q138 463 163 437T247 385Q260 379 270 374T289 366Q321 392 336 422ZM369 48T369 166Q369 211 335 239T220 300L202 307Q165 278 147 242T129 168Q129 107 158 78T249
48Q369 48 369 166Z" />
<glyph unicode="9" glyph-name="nine" horiz-adv-x="485" d="M120 -5T100 -3T76 0V40Q184 40 245 66T333 149T362 307Q362 305 341 293T286 269T206 258Q125 258 75 307T24 441Q24 514 52 563T128 636T234 660Q310 660 359 630T432 532T456 351Q456 171 377 83T154
-5Q120 -5 100 -3ZM302 326T331 337T362 350Q362 434 355 485T319 569T230 602Q165 602 141 565T116 450Q116 383 155 355T251 326Q302 326 331 337Z" />
<glyph unicode=":" glyph-name="colon" horiz-adv-x="221" d="M83 322T68 339T52 385Q52 413 69 432T114 452Q140 452 155 436T171 391Q171 362 155 342T109 322Q83 322 68 339ZM83 -11T68 6T52 52Q52 80 69 99T114 119Q140 119 155 103T171 58Q171 29 155 9T109
-11Q83 -11 68 6Z" />
<glyph unicode=";" glyph-name="semicolon" horiz-adv-x="226" d="M88 322T73 339T57 385Q57 413 74 432T119 452Q145 452 160 436T176 391Q176 362 160 342T114 322Q88 322 73 339ZM47 -115Q65 -83 76 -53T87 -3Q87 16 78 32T55 59Q78 109 121 109Q147 109 162
91T178 46Q178 2 144 -49T81 -129L47 -115Z" />
<glyph unicode="&lt;" glyph-name="less" d="M32 278L467 502L499 436L116 249L499 65L468 0L32 216V278Z" />
<glyph unicode="=" glyph-name="equal" d="M65 317V377H465V317H65ZM65 158V218H465V158H65Z" />
<glyph unicode="&gt;" glyph-name="greater" d="M31 65L414 249L31 436L63 502L498 278V216L62 0L31 65Z" />
<glyph unicode="?" glyph-name="question" horiz-adv-x="361" d="M176 368Q219 384 237 408T255 482Q255 524 244 543T209 568T139 574H46Q44 577 40 588T35 611Q35 638 50 650T116 663Q215 663 273 606T331 453Q331 395 299 357T215 302L162 285L141 163H92L86
335L176 368ZM86 -11T72 5T57 48Q57 74 73 92T115 111Q140 111 154 96T169 53Q169 27 153 8T110 -11Q86 -11 72 5Z" />
<glyph unicode="@" glyph-name="at" horiz-adv-x="762" d="M271 -108T192 -63T70 65T26 252Q26 348 77 435T217 575T414 629Q513 629 586 585T699 469T739 315Q739 193 687 125T544 57Q510 57 480 74T440 130Q440 129 418 111T367 78T309 63Q260 63 236 99T212
199Q212 247 230 303T288 399T389 439Q408 439 428 434T464 423T483 415L514 450H548L505 188Q502 170 502 159Q502 135 516 122T554 109Q604 109 636 154T668 295Q668 389 633 451T539 543T404 573Q331 573 262 543T147 443T101 258Q101 106 180 28T394 -51Q464
-51 516 -32T571 -12L586 -39Q586 -42 557 -60T481 -93T375 -108Q271 -108 192 -63ZM353 128T375 137T412 155T432 168L465 365Q463 366 453 370T423 378T377 382Q360 382 343 377T321 367Q307 351 295 308T283 226Q283 172 294 150T333 128Q353 128 375 137Z"
/>
<glyph unicode="A" glyph-name="A" horiz-adv-x="608" d="M-9 41L54 57L275 653H323L553 57L617 41V0H378V41L449 57V75L406 186H165L126 75V57L202 41V0H-9V41ZM385 243L288 500L284 511L282 516L276 498L185 243H385Z" />
<glyph unicode="B" glyph-name="B" horiz-adv-x="600" d="M59 43L142 60V588L59 605V648H321Q415 648 470 606T525 492Q525 436 498 401T410 345Q474 332 516 285T559 178Q559 94 500 47T336 0H59V43ZM279 357Q355 357 394 391T434 491Q434 590 301 590Q265 590
228 585V357H279ZM388 55T424 87T460 181Q460 245 422 273T296 302H228V61Q266 55 320 55Q388 55 424 87Z" />
<glyph unicode="C" glyph-name="C" horiz-adv-x="612" d="M557 184V32Q512 13 466 1T340 -11Q45 -11 45 316Q45 408 83 487T192 613T355 660Q481 660 553 631V474H504L483 584Q479 585 461 589T413 596T348 600Q275 600 231 571T166 481T146 319Q146 194 200 120T352
45Q396 45 426 53T472 70T488 82L508 184H557Z" />
<glyph unicode="D" glyph-name="D" horiz-adv-x="703" d="M55 43L138 60V587L55 605V648H351Q499 648 578 568T658 340Q658 172 570 86T310 0H55V43ZM404 51T456 80T532 172T557 337Q557 468 500 529T320 590Q260 590 224 583V62Q238 57 265 54T319 51Q404 51 456 80Z" />
<glyph unicode="E" glyph-name="E" horiz-adv-x="572" d="M138 60V588L55 605V648H513V484H464L443 593H322L224 587V358H382L397 417H439V246H397L382 305H224V67Q243 63 273 60T331 57H451L473 164H522V0H55V43L138 60Z" />
<glyph unicode="F" glyph-name="F" horiz-adv-x="517" d="M55 43L138 60V588L55 605V648H517V484H467L446 593H322L224 587V338H391L405 398H447V226H405L391 285H224V63L338 49V0H55V43Z" />
<glyph unicode="G" glyph-name="G" horiz-adv-x="645" d="M413 278V321H610V271L569 263V0H528L496 27H482Q425 -11 329 -11Q189 -11 117 68T45 316Q45 409 82 487T191 613T359 660Q431 660 485 651T558 630V474H510L481 584Q477 585 461 589T414 597T346 601Q237
601 192 534T146 326Q146 185 194 115T354 45Q399 45 425 52T485 77V260L413 278Z" />
<glyph unicode="H" glyph-name="H" horiz-adv-x="753" d="M55 44L138 59V589L55 604V648H307V604L224 589V360H529V589L447 604V648H698V604L616 589V59L698 44V0H447V44L529 59V305H224V59L307 44V0H55V44Z" />
<glyph unicode="I" glyph-name="I" horiz-adv-x="369" d="M59 44L141 59V589L59 604V648H310V604L228 589V59L310 44V0H59V44Z" />
<glyph unicode="J" glyph-name="J" horiz-adv-x="400" d="M58 157L87 47Q91 45 105 41T137 37Q195 37 195 99V587L100 604V648H355V604L282 589V111Q282 45 245 16T135 -14Q102 -14 75 -8T31 4T10 13V157H58Z" />
<glyph unicode="K" glyph-name="K" horiz-adv-x="600" d="M138 59V589L55 604V648H307V604L224 589V359H255L439 582V593L381 605V648H585V604L528 592L332 358L541 60L605 45V0H511Q486 0 474 5T450 29L257 312H224V59L307 44V0H55V44L138 59Z" />
<glyph unicode="L" glyph-name="L" horiz-adv-x="523" d="M55 43L138 60V588L55 605V648H315V601L224 586V63L322 55H435L457 162H506V0H55V43Z" />
<glyph unicode="M" glyph-name="M" horiz-adv-x="885" d="M55 0V42L128 58V592L64 604V648H269L423 190L438 134L453 190L604 648H826V604L743 589V59L826 44V0H574V44L656 59V581H641L633 557L445 0H397L201 581H189V58L262 42V0H55Z" />
<glyph unicode="N" glyph-name="N" horiz-adv-x="727" d="M55 0V42L125 58V590L60 604V648H213L528 149L541 129H550V590L481 606V648H680V606L611 590V0H519L194 516H185V58L255 42V0H55Z" />
<glyph unicode="O" glyph-name="O" horiz-adv-x="696" d="M199 -13T122 73T45 313Q45 410 83 489T193 614T366 660Q455 660 519 620T617 508T651 338Q651 237 619 158T517 33T344 -13Q199 -13 122 73ZM461 44T505 114T550 319Q550 431 526 492T458 577T352 600Q285
600 242 582T173 502T146 319Q146 172 200 108T364 44Q461 44 505 114Z" />
<glyph unicode="P" glyph-name="P" horiz-adv-x="565" d="M55 43L138 60V588L55 605V648H304Q547 648 547 484Q547 375 483 318T309 260Q285 260 273 262L268 301Q359 301 407 336T455 454Q455 591 303 591Q278 591 255 589T224 586V63L335 46V0H55V43Z" />
<glyph unicode="Q" glyph-name="Q" horiz-adv-x="702" d="M373 -31T355 -23T307 -9Q181 -3 113 84T45 318Q45 409 85 487T199 613T366 660Q455 660 519 621T617 511T651 343Q651 278 632 211T567 88T443 7L591 -86H696V-121Q692 -124 676 -132T637 -148T591 -156Q551
-156 519 -135L390 -43Q373 -31 355 -23ZM461 45T505 118T550 324Q550 436 525 496T457 579T352 601Q286 601 243 583T173 504T146 324Q146 184 204 115T370 45Q461 45 505 118Z" />
<glyph unicode="R" glyph-name="R" horiz-adv-x="611" d="M55 43L138 60V588L55 605V648H339Q428 648 483 608T538 488Q538 429 518 391T468 332T397 293L538 62L606 43V0H502Q485 0 470 7T447 30L310 273H224V60L307 43V0H55V43ZM287 328Q356 328 400 367T444
470Q444 543 405 567T305 591Q264 591 224 586V328H287Z" />
<glyph unicode="S" glyph-name="S" horiz-adv-x="514" d="M193 -10T138 6T58 44V187H112L127 87Q149 71 182 60T244 48Q319 48 351 73T383 162Q383 197 365 220T320 259T248 290Q183 313 148 331T86 384T59 477Q59 560 117 610T273 660Q319 660 371 652T442 635V484H393L374
578Q371 580 357 585T320 596T270 601Q199 601 173 576T146 505Q146 467 167 443T217 406T305 370Q356 351 390 331T446 274T469 184Q469 117 437 74T355 10T250 -10Q193 -10 138 6Z" />
<glyph unicode="T" glyph-name="T" horiz-adv-x="541" d="M145 44L227 59V590H85L64 484H15V648H526V484H477L457 590H314V59L396 44V0H145V44Z" />
<glyph unicode="U" glyph-name="U" horiz-adv-x="732" d="M45 604V648H296V604L214 589V278Q214 187 228 140T280 73T390 53Q480 53 515 107T550 278V587L468 603V648H697V603L615 587V278Q615 177 594 115T517 20T359 -13Q266 -13 216 19T147 113T127 278V589L45 604Z" />
<glyph unicode="V" glyph-name="V" horiz-adv-x="602" d="M283 -5L52 591L-9 607V648H231V607L156 591V576L308 155L320 121L334 159L480 573V591L400 607V648H611V607L552 591L332 -5H283Z" />
<glyph unicode="W" glyph-name="W" horiz-adv-x="945" d="M256 -5L61 591L0 607V648H240V607L165 591V573L291 152L301 120H304L315 153L442 515L414 591L340 607V648H593V607L518 591V573L670 153L681 122H686L695 153L814 573V591L734 607V648H945V607L886 591L702
-5H643L483 405L477 421H470L463 402L315 -5H256Z" />
<glyph unicode="X" glyph-name="X" horiz-adv-x="593" d="M5 45L68 58L251 323L71 582L8 603V648H250V603L190 590V571L312 394L440 574V592L371 605V648H592V606L526 592L346 342L537 59L608 45V0H356V45L426 59V71L286 272L148 74V56L213 43V0H5V45Z" />
<glyph unicode="Y" glyph-name="Y" horiz-adv-x="584" d="M179 44L261 59V232L61 591L-1 607V648H240V607L165 591V573L310 299H324L466 573V591L387 607V648H598V607L538 591L348 244V59L430 44V0H179V44Z" />
<glyph unicode="Z" glyph-name="Z" horiz-adv-x="559" d="M35 59L395 570V589H123L94 485H45V648H515V582L145 71V59H446L475 163H524V0H35V59Z" />
<glyph unicode="[" glyph-name="bracketleft" horiz-adv-x="252" d="M70 699H228V656L140 644V-96L228 -108V-151H70V699Z" />
<glyph unicode="\" glyph-name="backslash" horiz-adv-x="350" d="M-54 668L6 695L371 -140L309 -167L-54 668Z" />
<glyph unicode="]" glyph-name="bracketright" horiz-adv-x="252" d="M24 -108L112 -96V644L24 656V699H182V-151H24V-108Z" />
<glyph unicode="^" glyph-name="asciicircum" d="M235 649H297L487 262H413L266 573L117 262H44L235 649Z" />
<glyph unicode="_" glyph-name="underscore" horiz-adv-x="450" d="M0 -1H450V-60H0V-1Z" />
<glyph unicode="`" glyph-name="grave" horiz-adv-x="202" d="M9 684T23 700T51 717Q61 717 69 710T93 686L202 565L174 535L0 655Q9 684 23 700Z" />
<glyph unicode="a" glyph-name="a" horiz-adv-x="480" d="M108 -7T73 28T38 117Q38 243 217 268L307 281V356Q307 440 209 440Q187 440 170 437T147 432L132 340Q132 339 123 336T100 333Q82 333 68 346T54 379Q54 417 91 445T177 489T258 504Q321 504 355 472T389
389V68L460 54V16Q456 14 442 10T406 1T360 -4Q316 -4 312 42H308Q295 28 259 11T180 -7Q108 -7 73 28ZM240 56T260 60T292 68T307 74V233Q212 226 169 203T126 132Q126 100 150 78T218 56Q240 56 260 60Z" />
<glyph unicode="b" glyph-name="b" horiz-adv-x="518" d="M224 -9T195 5T149 35H141L113 -3H72V620L-10 633V672L127 699L154 685V452Q174 471 209 487T293 504Q377 504 427 448T478 276Q478 185 450 121T373 24T267 -9Q224 -9 195 5ZM320 49T354 95T388 248Q388
346 358 390T257 434Q208 434 154 419V69Q171 62 199 56T255 49Q320 49 354 95Z" />
<glyph unicode="c" glyph-name="c" horiz-adv-x="439" d="M399 50T377 34T320 5T239 -9Q177 -9 129 19T53 102T25 234Q25 307 51 368T128 467T251 504Q323 504 363 468T404 379Q404 362 391 348T358 333Q342 333 334 336T326 340L310 434Q308 435 300 438T278
443T245 446Q172 446 143 398T113 246Q113 147 153 104T274 61Q302 61 327 65T367 75T386 82L399 52Q399 50 377 34Z" />
<glyph unicode="d" glyph-name="d" horiz-adv-x="538" d="M145 -9T93 47T40 218Q40 318 72 382T154 475T253 504Q318 504 363 465V620L281 643V682L417 699L445 685V70L516 55V16L380 -4L367 48L363 49Q343 28 307 10T224 -9Q145 -9 93 47ZM285 61T314 69T363
87V425Q347 431 322 436T269 441Q202 441 166 399T129 251Q129 152 157 107T255 61Q285 61 314 69Z" />
<glyph unicode="e" glyph-name="e" horiz-adv-x="459" d="M135 -9T80 59T25 233Q25 312 53 373T133 469T248 504Q330 504 371 451T412 322Q412 269 402 251T364 233H113Q113 157 150 109T270 61Q305 61 331 66T372 77T390 85L404 57Q404 55 382 38T323 6T240 -9Q135
-9 80 59ZM328 287Q331 305 331 327Q331 387 310 416T233 446Q173 446 144 404T114 279L328 287Z" />
<glyph unicode="f" glyph-name="f" horiz-adv-x="300" d="M15 41L84 55V437H23V484L83 496Q87 555 115 601T187 674T281 701Q308 701 322 688T337 653Q337 636 328 623T309 605Q259 618 235 624T198 630Q179 630 166 621V494H293V463L280 437H166V57L270 41V0H15V41Z" />
<glyph unicode="g" glyph-name="g" horiz-adv-x="461" d="M131 -166T77 -139T22 -55Q22 -10 55 19T136 73Q127 81 122 95T116 125Q116 143 129 160T161 190Q99 203 69 242T39 333Q39 381 64 420T134 481T232 504Q298 504 339 473Q340 474 366 494T427 515Q471
515 471 472Q471 449 453 428L416 436Q408 437 396 439T370 442Q385 421 392 396T400 346Q400 298 375 262T306 205T213 185H200V129L306 108Q379 94 416 69T453 -8Q453 -56 421 -91T335 -146T214 -166Q131 -166 77 -139ZM270 243T294 265T319 346Q319 395 297
420T223 446Q169 446 146 421T122 341Q122 290 147 267T221 243Q270 243 294 265ZM302 -114T339 -92T376 -32Q376 -9 362 7T307 31L169 57Q143 39 124 11T105 -42Q105 -81 135 -97T236 -114Q302 -114 339 -92Z" />
<glyph unicode="h" glyph-name="h" horiz-adv-x="575" d="M24 41L105 55V622L25 636V677L164 699L187 690V453Q221 475 265 489T344 504Q401 504 438 471T475 367V55L555 41V0H315V41L393 55V353Q393 398 367 416T288 434Q268 434 239 430T187 421V55L266 41V0H24V41Z" />
<glyph unicode="i" glyph-name="i" horiz-adv-x="293" d="M114 568T99 585T83 630Q83 657 100 676T144 696Q170 696 185 680T200 636Q200 608 184 588T139 568Q114 568 99 585ZM28 41L108 55V411L28 425V466L167 494L190 485V55L268 41V0H28V41Z" />
<glyph unicode="j" glyph-name="j" horiz-adv-x="259" d="M97 568T82 585T66 630Q66 657 83 676T127 696Q153 696 168 680T183 636Q183 608 167 588T122 568Q97 568 82 585ZM40 -165T14 -161T-13 -155V-117L95 -91V411L15 425V466L154 494L177 485V-83Q177 -122
150 -143T70 -165Q40 -165 14 -161Z" />
<glyph unicode="k" glyph-name="k" horiz-adv-x="489" d="M99 55V622L19 636V677L158 699L181 690V295H237L343 427V441L284 454V494H476V453L416 437L300 289L433 59L515 41V0H353V18Q353 33 346 43L233 242H181V55L259 41V0H19V41L99 55Z" />
<glyph unicode="l" glyph-name="l" horiz-adv-x="283" d="M19 41L99 55V622L19 636V677L158 699L181 690V55L259 41V0H19V41Z" />
<glyph unicode="m" glyph-name="m" horiz-adv-x="848" d="M26 41L106 55V412L26 428V466L161 494L188 453Q222 475 264 489T339 504Q373 504 404 489T451 450Q480 472 530 488T619 504Q674 504 711 468T748 376V55L828 41V0H588V41L666 55V353Q666 397 644 415T568
434Q549 434 520 430T467 421V396V55L530 40V0H320V40L385 55V353Q385 397 363 415T288 434Q270 434 242 430T188 420V55L267 41V0H26V41Z" />
<glyph unicode="n" glyph-name="n" horiz-adv-x="576" d="M26 41L106 55V411L26 425V466L175 494L183 461L185 455Q276 504 345 504Q407 504 441 468T476 367V55L556 41V0H316V41L394 55V353Q394 396 369 415T289 434Q263 434 234 431T188 422V55L266 41V0H26V41Z" />
<glyph unicode="o" glyph-name="o" horiz-adv-x="497" d="M134 -9T80 58T25 240Q25 311 53 371T133 468T254 504Q359 504 414 440T469 263Q469 186 442 124T363 27T236 -9Q134 -9 80 58ZM323 49T351 98T379 245Q379 350 350 398T248 446Q194 446 165 423T126 358T115
245Q115 149 146 99T255 49Q323 49 351 98Z" />
<glyph unicode="p" glyph-name="p" horiz-adv-x="540" d="M25 -123L94 -109V411L14 425V466L163 494L174 453L175 450Q204 475 242 489T315 504Q405 504 452 446T500 276Q500 192 473 130T397 34T281 0Q253 0 225 9T176 34V-109L263 -121V-165H25V-123ZM345 58T377
103T410 248Q410 348 380 391T279 434Q228 434 176 419V83Q195 72 222 65T275 58Q345 58 377 103Z" />
<glyph unicode="q" glyph-name="q" horiz-adv-x="518" d="M290 -123L364 -109V50Q341 27 305 14T229 0Q138 0 89 57T40 218Q40 300 68 365T146 467T259 504Q290 504 319 494T370 466H375L415 494H446V-109L510 -123V-165H290V-123ZM284 62T312 70T364 91V425Q346
432 320 436T269 441Q201 441 165 393T129 251Q129 151 160 107T260 62Q284 62 312 70Z" />
<glyph unicode="r" glyph-name="r" horiz-adv-x="359" d="M99 55V416L21 430V471L165 498L181 443Q186 448 205 462T249 490T294 504Q314 504 326 491T338 455Q338 439 332 427T318 409T308 401L262 413Q252 416 244 417T226 418Q212 418 197 415T181 411V56L273
43V0H30V41L99 55Z" />
<glyph unicode="s" glyph-name="s" horiz-adv-x="413" d="M83 152L97 74Q112 63 136 55T192 46Q250 46 272 69T295 133Q295 159 281 175T245 199T185 218Q137 230 107 243T55 285T33 363Q33 431 84 467T215 504Q258 504 300 495T358 477L344 352H303L289 432Q289
433 260 440T207 447Q153 447 132 430T110 374Q110 351 124 337T158 314T216 296Q265 283 296 269T350 226T373 146Q373 63 322 27T188 -9Q139 -9 93 4T30 30L42 152H83Z" />
<glyph unicode="t" glyph-name="t" horiz-adv-x="343" d="M13 442V484L91 505L115 609H173V495H314V467L300 442H173V114Q173 84 184 74T223 64Q247 64 271 69T303 77L313 45Q315 45 296 32T250 7T199 -4Q139 -4 115 24T91 107V442H13Z" />
<glyph unicode="u" glyph-name="u" horiz-adv-x="557" d="M167 -9T129 27T90 129V424L7 438V476L144 504L172 490V172Q172 107 196 82T281 56Q302 56 329 64T378 84V424L296 438V476L433 504L461 490V71L532 55V17L393 -3L378 47L377 46Q355 21 316 6T237 -9Q167
-9 129 27Z" />
<glyph unicode="v" glyph-name="v" horiz-adv-x="457" d="M34 438L-22 450V494H197V452L133 438V424L235 150L245 112L255 159L355 423V437L292 452V494H477V451L424 436L250 -5H214L34 438Z" />
<glyph unicode="w" glyph-name="w" horiz-adv-x="726" d="M204 -5L41 436L-17 451V494H201V449L135 438V426L218 175L228 129L239 185L337 494H424L519 175L528 129L539 185L615 423V438L552 449V494H736V452L678 433L534 -5H493L367 393L242 -5H204Z" />
<glyph unicode="x" glyph-name="x" horiz-adv-x="493" d="M-5 0V40L61 56L199 243L64 437L5 451V494H224V449L169 441V427L255 306L343 425V439L288 449V494H470V452L415 437L286 260L430 55L498 40V0H273V40L324 49V63L231 197L134 66V52L198 41V0H-5Z" />
<glyph unicode="y" glyph-name="y" horiz-adv-x="455" d="M475 494V452L421 436L209 -109Q187 -166 106 -166Q89 -166 68 -163T31 -156V-118L145 -89L199 29L36 435L-22 451V494H197V449L131 440V425L234 155L242 121L254 165L354 425V437L290 448V494H475Z" />
<glyph unicode="z" glyph-name="z" horiz-adv-x="434" d="M19 0V50L293 428V441H98L84 358H43L29 494H389V420L133 68V52H342L356 137H397L411 0H19Z" />
<glyph unicode="{" glyph-name="braceleft" horiz-adv-x="207" d="M107 -134T72 -94T37 7L39 22L67 240L6 267V301L67 328L39 526L37 541Q37 601 71 641T164 699L182 658Q153 642 139 630T120 600T114 550L129 350Q129 316 111 301T78 283Q94 278 111 264T129
216L113 -2Q113 -33 119 -50T138 -80T182 -109L165 -151Q107 -134 72 -94Z" />
<glyph unicode="|" glyph-name="bar" horiz-adv-x="361" d="M150 699H210V-156H150V699Z" />
<glyph unicode="}" glyph-name="braceright" horiz-adv-x="207" d="M25 -109Q55 -93 68 -81T88 -51T94 -2L78 216Q78 249 95 264T129 283Q115 285 97 300T78 350L93 550Q93 582 88 599T68 629T25 658L43 699Q101 682 135 642T170 541L169 530L140 328L200 301V267L140
240L168 23L170 7Q170 -53 135 -93T42 -151L25 -109Z" />
<glyph unicode="~" glyph-name="asciitilde" d="M331 229T306 234T271 242L170 265L95 232L74 258L109 304Q132 335 168 335Q193 335 259 321L360 298L436 333L456 305L420 258Q397 229 359 229Q331 229 306 234Z" />
<glyph unicode="&#xa0;" glyph-name="uni00A0" horiz-adv-x="201" />
<glyph unicode="&#xa1;" glyph-name="exclamdown" horiz-adv-x="201" d="M70 400T56 415T41 458Q41 484 57 503T100 522Q124 522 138 506T153 463Q153 437 137 419T95 400Q70 400 56 415ZM72 -166T62 -151T51 -110L75 351H119L153 -156Q153 -157 140 -161T103
-166Q72 -166 62 -151Z" />
<glyph unicode="&#xa2;" glyph-name="cent" horiz-adv-x="500" d="M170 71T120 136T70 314Q70 417 117 495T258 592L262 703H318L322 597Q351 596 376 591T418 582T438 575V440H388L373 520Q366 522 342 526T294 530Q218 530 189 481T160 326Q160 229 197 178T302
127Q339 127 369 131T416 139T438 146V111Q434 108 419 98T377 76T322 60L318 -51H263L259 60Q170 71 120 136Z" />
<glyph unicode="&#xa3;" glyph-name="sterling" horiz-adv-x="516" d="M66 65T87 103T108 174V314H39V371H108V466Q108 556 157 607T300 658Q337 658 380 651T450 633V492H401L378 584Q368 590 344 593T294 597Q236 597 213 568T189 466V371H318V314H189V174Q189
139 175 113T137 76V71H402L424 178H473V0H38V43Q66 65 87 103Z" />
<glyph unicode="&#xa4;" glyph-name="currency" d="M59 256T59 326Q59 394 99 448L14 537L51 574L141 488Q195 527 260 527Q330 527 384 484L479 574L516 537L424 441Q461 390 461 326Q461 261 422 207L516 110L479 73L382 166Q328 125 260 125Q195 125 143 161L51
73L14 110L101 201Q59 256 59 326ZM131 292T149 263T196 216T260 198Q294 198 323 215T371 262T389 326Q389 360 371 389T324 437T260 455Q226 455 197 437T149 390T131 326Q131 292 149 263Z" />
<glyph unicode="&#xa5;" glyph-name="yen" horiz-adv-x="550" d="M387 648H598V607L538 591L414 365L529 361V315L384 310L350 247L529 241V196L348 190V59L430 44V0H179V44L261 59V190L86 196V241L253 247L218 310L86 315V361L187 365L61 591L-1 607V648H240V607L165
591V573L310 299H324L466 573V591L387 607V648Z" />
<glyph unicode="&#xa6;" glyph-name="brokenbar" horiz-adv-x="361" d="M150 699H210V334H150V699ZM150 209H210V-156H150V209Z" />
<glyph unicode="&#xa7;" glyph-name="section" horiz-adv-x="551" d="M267 339Q208 376 175 401T121 460T99 535Q99 611 148 653T293 696Q339 696 385 688T452 671V524H403L384 618Q381 619 369 622T336 628T287 631Q231 631 209 613T186 545Q186 520 200 500T239
459T317 403L350 380L499 274L456 212L317 306L267 339ZM155 35L174 -72Q189 -84 216 -96T280 -108Q341 -108 369 -85T398 -11Q398 26 366 56T267 131L232 155L83 256L126 318L300 207Q393 149 436 103T479 0Q479 -80 422 -123T283 -166Q228 -166 176 -152T101
-118V35H155Z" />
<glyph unicode="&#xa8;" glyph-name="dieresis" horiz-adv-x="317" d="M28 575T14 590T0 631Q0 656 15 673T55 691Q78 691 92 677T106 637Q106 611 91 593T51 575Q28 575 14 590ZM239 575T225 590T211 631Q211 656 226 673T266 691Q289 691 303 677T317 637Q317
611 302 593T262 575Q239 575 225 590Z" />
<glyph unicode="&#xa9;" glyph-name="copyright" horiz-adv-x="647" d="M-2 414T42 488T160 607T324 651Q413 651 487 607T606 489T650 325Q650 236 606 162T488 43T324 -1Q235 -1 161 43T42 161T-2 325Q-2 414 42 488ZM398 52T459 88T555 187T590 324Q590 398
555 460T459 559T324 596Q250 596 190 560T95 461T61 324Q61 250 95 188T189 89T324 52Q398 52 459 88ZM438 270V177Q389 155 319 155Q163 155 163 323Q163 370 183 409T240 471T327 495Q359 495 388 491T435 480V386H402L392 438Q388 439 373 441T333 444Q297
444 276 434T244 397T234 322Q234 258 259 232T334 205Q357 205 371 207T390 213T397 217L407 270H438Z" />
<glyph unicode="&#xaa;" glyph-name="ordfeminine" horiz-adv-x="376" d="M77 355T50 378T23 441Q23 481 54 508T138 543L217 554V601Q217 659 148 659Q131 659 109 654L94 594Q84 589 66 589Q33 589 33 621Q33 640 56 660T114 693T182 707Q230 707 259 686T288
628V412L339 397V371Q322 365 302 361T265 357Q246 357 233 365T217 387L215 386Q199 372 174 364T123 355Q77 355 50 378ZM172 405T189 408T217 416V516Q153 512 125 497T97 451Q97 429 113 417T159 405Q172 405 189 408Z" />
<glyph unicode="&#xab;" glyph-name="guillemotleft" horiz-adv-x="379" d="M82 182T69 197T47 224T39 245Q39 258 78 303L180 417L205 401L121 245L205 87L180 71L87 175Q82 182 69 197ZM233 182T220 197T198 224T190 245Q190 258 229 303L331 417L356 401L272
245L356 87L331 71L238 175Q233 182 220 197Z" />
<glyph unicode="&#xac;" glyph-name="logicalnot" d="M40 364H462V122H409V304H40V364Z" />
<glyph unicode="&#xad;" glyph-name="uni00AD" horiz-adv-x="313" d="M41 297L256 314V237H41V297Z" />
<glyph unicode="&#xae;" glyph-name="registered" horiz-adv-x="691" d="M257 230T194 266T95 366T58 503Q58 577 94 640T194 739T331 776Q405 776 468 740T567 640T604 503Q604 429 568 366T468 267T331 230Q257 230 194 266ZM390 282T439 311T517 391T546 503Q546
564 518 614T440 694T331 724Q271 724 222 695T145 615T116 503Q116 442 144 392T222 312T331 282Q390 282 439 311ZM188 382L225 389V614L188 620V648H348Q391 648 416 628T442 574Q442 542 425 517T379 482L441 392L477 383V358H406Q389 358 382 371L317 472H289V389L326
382V358H188V382ZM317 505Q374 505 374 569Q374 594 363 604T323 614Q305 614 289 611V505H317Z" />
<glyph unicode="&#xaf;" glyph-name="overscore" horiz-adv-x="343" d="M10 663H342L332 606H0L10 663Z" />
<glyph unicode="&#xb0;" glyph-name="degree" horiz-adv-x="238" d="M22 611T50 639T118 667Q159 667 187 639T215 570Q215 530 187 502T118 474Q78 474 50 502T22 570Q22 611 50 639ZM66 547T81 532T118 517Q140 517 155 532T171 569Q171 592 156 607T118 622Q96
622 81 607T66 569Q66 547 81 532Z" />
<glyph unicode="&#xb1;" glyph-name="plusminus" d="M230 125V296H64V355H230V525H297V355H464V296H297V125H230ZM64 -1V58H464V-1H64Z" />
<glyph unicode="&#xb2;" glyph-name="uni00B2" horiz-adv-x="343" d="M125 483Q169 524 190 551T212 605Q212 634 197 644T150 655Q132 655 117 651T98 645L88 590H48V675Q64 686 94 696T156 707Q218 707 252 686T287 615Q287 577 264 545T178 459L125 414V410H257L268
464H307V361H36V398L125 483Z" />
<glyph unicode="&#xb3;" glyph-name="uni00B3" horiz-adv-x="343" d="M93 460L98 414Q120 403 158 403Q233 403 233 457Q233 491 214 505T156 519H129L121 540V564H147Q179 564 201 576T224 614Q224 659 159 659Q139 659 122 655T104 649L96 595H55L52 679Q68
688 98 697T164 707Q223 707 255 684T287 621Q287 593 269 574T226 547Q300 530 300 464Q300 411 260 383T159 355Q131 355 99 362T49 379L53 460H93Z" />
<glyph unicode="&#xb4;" glyph-name="acute" horiz-adv-x="202" d="M109 686Q124 702 132 709T151 717Q165 717 179 701T202 655L28 535L0 565L109 686Z" />
<glyph unicode="&#xb5;" glyph-name="uni00B5" d="M72 -149V494L126 504L154 490V168Q154 104 177 81T263 57Q282 57 309 63T360 80V494L415 504L443 490V67L523 54V16Q500 7 469 2T414 -4Q394 -4 379 8T360 43L358 42Q326 20 285 6T211 -9Q166 -9 136 6Q142 -15
143 -28L154 -153L100 -163L72 -149Z" />
<glyph unicode="&#xb6;" glyph-name="paragraph" horiz-adv-x="640" d="M247 196T195 226T113 309T82 422Q82 483 112 535T195 617T308 648H592V607L514 593H373V-57H308V196Q247 196 195 226ZM363 -109Q400 -105 418 -95T443 -68T449 -21V548H514V-42Q514 -91
482 -128T379 -165H230V-124L363 -109Z" />
<glyph unicode="&#xb7;" glyph-name="middot" horiz-adv-x="191" d="M68 198T53 215T37 261Q37 289 54 308T99 328Q125 328 140 312T156 267Q156 238 140 218T94 198Q68 198 53 215Z" />
<glyph unicode="&#xb8;" glyph-name="cedilla" horiz-adv-x="159" d="M33 -187T17 -183T-19 -171L-3 -134Q25 -145 51 -145Q110 -145 110 -115Q110 -100 103 -95T79 -86L42 -78L23 -59L48 0H89V-29L106 -33Q142 -42 160 -54T178 -96Q178 -144 143 -165T55 -187Q33
-187 17 -183Z" />
<glyph unicode="&#xb9;" glyph-name="uni00B9" horiz-adv-x="343" d="M56 401L147 405V650H52V691L161 701H215V405L306 401V361H56V401Z" />
<glyph unicode="&#xba;" glyph-name="ordmasculine" horiz-adv-x="386" d="M110 355T70 400T30 525Q30 573 50 615T109 682T197 707Q270 707 312 662T354 541Q354 491 335 449T277 381T185 355Q110 355 70 400ZM245 408T263 437T281 529Q281 595 262 622T193 649Q139
649 121 620T103 529Q103 463 123 436T198 408Q245 408 263 437Z" />
<glyph unicode="&#xbb;" glyph-name="guillemotright" horiz-adv-x="379" d="M23 401L48 417L150 303Q189 258 189 245Q189 236 180 223T158 196T141 175L48 71L23 87L107 245L23 401ZM174 401L199 417L301 303Q340 258 340 245Q340 236 331 223T309 196T292 175L199
71L174 87L258 245L174 401Z" />
<glyph unicode="&#xbc;" glyph-name="onequarter" horiz-adv-x="747" d="M561 690L610 658L126 -45L74 -12L561 690ZM34 351L95 355V600H30V641L109 651H163V355L224 351V311H34V351ZM502 40L563 44V95H418L399 129L569 360L631 338V138H684V95H631V44L692 40V0H502V40ZM563
138V279L463 141L464 138H563Z" />
<glyph unicode="&#xbd;" glyph-name="onehalf" horiz-adv-x="719" d="M108 -44L56 -11L543 691L592 659L108 -44ZM34 311V351L95 355V600H30V641L109 651H163V355L224 351V311H34ZM407 37L496 122Q540 163 561 190T583 244Q583 273 568 283T521 294Q503 294 488
290T469 284L459 229H419V314Q435 325 465 335T527 346Q589 346 623 325T658 254Q658 216 635 184T549 98L496 53V49H628L639 103H678V0H407V37Z" />
<glyph unicode="&#xbe;" glyph-name="threequarters" horiz-adv-x="679" d="M135 -45L83 -12L570 690L619 658L135 -45ZM112 305T80 312T30 329L34 410H74L79 364Q101 353 139 353Q214 353 214 407Q214 441 195 455T137 469H110L102 490V514H128Q160 514 182 526T205
564Q205 609 140 609Q120 609 103 605T85 599L77 545H36L33 629Q49 638 79 647T145 657Q204 657 236 634T268 571Q268 543 250 524T207 497Q281 480 281 414Q281 361 241 333T140 305Q112 305 80 312ZM461 0V40L522 44V95H377L358 129L528 360L590 338V138H643V95H590V44L651
40V0H461ZM423 138H522V279L422 141L423 138Z" />
<glyph unicode="&#xbf;" glyph-name="questiondown" horiz-adv-x="362" d="M216 392T202 407T187 450Q187 476 203 495T246 514Q270 514 284 498T299 455Q299 429 283 411T241 392Q216 392 202 407ZM147 -160T89 -103T31 50Q31 108 63 146T147 201L200 218L221
340H270L276 168L186 135Q143 119 125 95T107 21Q107 -21 118 -40T153 -65T223 -71H316Q318 -74 322 -85T327 -108Q327 -135 312 -147T246 -160Q147 -160 89 -103Z" />
<glyph unicode="&#xc0;" glyph-name="Agrave" horiz-adv-x="608" d="M167 800T179 818T206 836Q213 836 224 830T248 814L379 716L357 681L164 767Q167 800 179 818ZM-9 41L54 57L275 653H323L553 57L617 41V0H378V41L449 57V75L406 186H165L126 75V57L202 41V0H-9V41ZM385
243L288 500L284 511L282 516L276 498L185 243H385Z" />
<glyph unicode="&#xc1;" glyph-name="Aacute" horiz-adv-x="608" d="M340 814Q352 823 363 829T382 836Q397 836 409 818T424 767L231 681L209 716L340 814ZM-9 41L54 57L275 653H323L553 57L617 41V0H378V41L449 57V75L406 186H165L126 75V57L202 41V0H-9V41ZM385
243L288 500L284 511L282 516L276 498L185 243H385Z" />
<glyph unicode="&#xc2;" glyph-name="Acircumflex" horiz-adv-x="608" d="M221 780L250 803Q266 817 278 825T297 834Q306 834 317 827T352 798Q360 792 374 780L448 719L415 678L293 743L167 680L142 716L221 780ZM-9 41L54 57L275 653H323L553 57L617 41V0H378V41L449
57V75L406 186H165L126 75V57L202 41V0H-9V41ZM385 243L288 500L284 511L282 516L276 498L185 243H385Z" />
<glyph unicode="&#xc3;" glyph-name="Atilde" horiz-adv-x="608" d="M161 777Q182 806 222 806Q245 806 292 791L371 766L451 802L474 776L437 727Q416 698 376 698Q353 698 306 713L227 738L147 702L124 728L161 777ZM-9 41L54 57L275 653H323L553 57L617 41V0H378V41L449
57V75L406 186H165L126 75V57L202 41V0H-9V41ZM385 243L288 500L284 511L282 516L276 498L185 243H385Z" />
<glyph unicode="&#xc4;" glyph-name="Adieresis" horiz-adv-x="608" d="M168 686T154 701T140 742Q140 767 155 784T195 802Q218 802 232 788T246 748Q246 722 231 704T191 686Q168 686 154 701ZM379 686T365 701T351 742Q351 767 366 784T406 802Q429 802 443
788T457 748Q457 722 442 704T402 686Q379 686 365 701ZM-9 41L54 57L275 653H323L553 57L617 41V0H378V41L449 57V75L406 186H165L126 75V57L202 41V0H-9V41ZM385 243L288 500L284 511L282 516L276 498L185 243H385Z" />
<glyph unicode="&#xc5;" glyph-name="Aring" horiz-adv-x="608" d="M617 41V0H378V41L449 57V75L406 186H165L126 75V57L202 41V0H-9V41L54 57L273 646Q238 651 223 671T208 731Q208 775 234 798T301 821Q341 821 365 801T390 738Q390 699 375 677T325 648L553
57L617 41ZM256 711T264 701T300 690Q324 690 333 699T342 733Q342 757 334 767T300 778Q276 778 266 769T256 735Q256 711 264 701ZM185 243H385L288 500L284 511L282 516L276 498L185 243Z" />
<glyph unicode="&#xc6;" glyph-name="AE" horiz-adv-x="793" d="M54 57L334 648H712V484H663L642 593H548L454 587L475 328H617L634 377H676V222H634L617 271H480L499 67Q515 63 544 60T602 57H702L724 164H773V0H326V43L409 60L391 271H221L128 75V57L202 41V0H-9V41L54
57ZM386 328L365 583L250 328H386Z" />
<glyph unicode="&#xc7;" glyph-name="Ccedilla" horiz-adv-x="612" d="M301 -145T327 -145Q386 -145 386 -115Q386 -100 379 -95T355 -86L318 -78L299 -59L319 -10Q45 0 45 316Q45 408 83 487T192 613T355 660Q481 660 553 631V474H504L483 584Q479 585 461 589T413
596T348 600Q275 600 231 571T166 481T146 319Q146 194 200 120T352 45Q396 45 426 53T472 70T488 82L508 184H557V32Q518 14 476 3T365 -11V-29L382 -33Q418 -42 436 -54T454 -96Q454 -144 419 -165T331 -187Q309 -187 293 -183T257 -171L273 -134Q301 -145 327
-145Z" />
<glyph unicode="&#xc8;" glyph-name="Egrave" horiz-adv-x="572" d="M197 800T209 818T236 836Q243 836 254 830T278 814L409 716L387 681L194 767Q197 800 209 818ZM138 60V588L55 605V648H513V484H464L443 593H322L224 587V358H382L397 417H439V246H397L382
305H224V67Q243 63 273 60T331 57H451L473 164H522V0H55V43L138 60Z" />
<glyph unicode="&#xc9;" glyph-name="Eacute" horiz-adv-x="572" d="M342 814Q354 823 365 829T384 836Q399 836 411 818T426 767L233 681L211 716L342 814ZM138 60V588L55 605V648H513V484H464L443 593H322L224 587V358H382L397 417H439V246H397L382 305H224V67Q243
63 273 60T331 57H451L473 164H522V0H55V43L138 60Z" />
<glyph unicode="&#xca;" glyph-name="Ecircumflex" horiz-adv-x="572" d="M228 780L257 803Q273 817 285 825T304 834Q313 834 324 827T359 798Q367 792 381 780L455 719L422 678L300 743L174 680L149 716L228 780ZM138 60V588L55 605V648H513V484H464L443 593H322L224
587V358H382L397 417H439V246H397L382 305H224V67Q243 63 273 60T331 57H451L473 164H522V0H55V43L138 60Z" />
<glyph unicode="&#xcb;" glyph-name="Edieresis" horiz-adv-x="572" d="M181 693T167 708T153 749Q153 774 168 791T208 809Q231 809 245 795T259 755Q259 729 244 711T204 693Q181 693 167 708ZM392 693T378 708T364 749Q364 774 379 791T419 809Q442 809 456
795T470 755Q470 729 455 711T415 693Q392 693 378 708ZM138 60V588L55 605V648H513V484H464L443 593H322L224 587V358H382L397 417H439V246H397L382 305H224V67Q243 63 273 60T331 57H451L473 164H522V0H55V43L138 60Z" />
<glyph unicode="&#xcc;" glyph-name="Igrave" horiz-adv-x="369" d="M78 800T90 818T117 836Q124 836 135 830T159 814L290 716L268 681L75 767Q78 800 90 818ZM59 44L141 59V589L59 604V648H310V604L228 589V59L310 44V0H59V44Z" />
<glyph unicode="&#xcd;" glyph-name="Iacute" horiz-adv-x="369" d="M215 814Q227 823 238 829T257 836Q272 836 284 818T299 767L106 681L84 716L215 814ZM59 44L141 59V589L59 604V648H310V604L228 589V59L310 44V0H59V44Z" />
<glyph unicode="&#xce;" glyph-name="Icircumflex" horiz-adv-x="369" d="M106 780L135 803Q151 817 163 825T182 834Q191 834 202 827T237 798Q245 792 259 780L333 719L300 678L178 743L52 680L27 716L106 780ZM59 44L141 59V589L59 604V648H310V604L228 589V59L310
44V0H59V44Z" />
<glyph unicode="&#xcf;" glyph-name="Idieresis" horiz-adv-x="369" d="M54 693T40 708T26 749Q26 774 41 791T81 809Q104 809 118 795T132 755Q132 729 117 711T77 693Q54 693 40 708ZM265 693T251 708T237 749Q237 774 252 791T292 809Q315 809 329 795T343
755Q343 729 328 711T288 693Q265 693 251 708ZM59 0V44L141 59V589L59 604V648H310V604L228 589V59L310 44V0H59Z" />
<glyph unicode="&#xd0;" glyph-name="Eth" horiz-adv-x="712" d="M142 60V305H57V362H142V587L59 605V648H367Q509 648 585 566T662 330Q662 231 622 157T509 41T340 0H59V43L142 60ZM267 51T329 51Q412 51 463 79T537 167T561 327Q561 464 507 527T336 590Q277
590 228 583V362H404V305H228V62Q267 51 329 51Z" />
<glyph unicode="&#xd1;" glyph-name="Ntilde" horiz-adv-x="727" d="M425 698T378 713L299 738L219 702L196 728L233 777Q254 806 294 806Q317 806 364 791L443 766L523 802L546 776L509 727Q488 698 448 698Q425 698 378 713ZM55 0V42L125 58V590L60 604V648H213L527
151L541 129H550V590L481 606V648H680V606L611 590V0H519L202 503L194 516H185V58L255 42V0H55Z" />
<glyph unicode="&#xd2;" glyph-name="Ograve" horiz-adv-x="696" d="M238 767Q241 800 253 818T280 836Q287 836 298 830T322 814L453 716L431 681L238 767ZM199 -13T122 73T45 313Q45 410 83 489T193 614T366 660Q455 660 519 620T617 508T651 338Q651 237 619
158T517 33T344 -13Q199 -13 122 73ZM461 44T505 114T550 319Q550 431 526 492T458 577T352 600Q285 600 242 582T173 502T146 319Q146 172 200 108T364 44Q461 44 505 114Z" />
<glyph unicode="&#xd3;" glyph-name="Oacute" horiz-adv-x="696" d="M250 716L381 814Q393 823 404 829T423 836Q438 836 450 818T465 767L272 681L250 716ZM199 -13T122 73T45 313Q45 410 83 489T193 614T366 660Q455 660 519 620T617 508T651 338Q651 237 619
158T517 33T344 -13Q199 -13 122 73ZM461 44T505 114T550 319Q550 431 526 492T458 577T352 600Q285 600 242 582T173 502T146 319Q146 172 200 108T364 44Q461 44 505 114Z" />
<glyph unicode="&#xd4;" glyph-name="Ocircumflex" horiz-adv-x="696" d="M276 780L305 803Q321 817 333 825T352 834Q361 834 372 827T407 798Q415 792 429 780L503 719L470 678L348 743L222 680L197 716L276 780ZM199 -13T122 73T45 313Q45 410 83 489T193 614T366
660Q455 660 519 620T617 508T651 338Q651 237 619 158T517 33T344 -13Q199 -13 122 73ZM461 44T505 114T550 319Q550 431 526 492T458 577T352 600Q285 600 242 582T173 502T146 319Q146 172 200 108T364 44Q461 44 505 114Z" />
<glyph unicode="&#xd5;" glyph-name="Otilde" horiz-adv-x="696" d="M411 698T364 713L285 738L205 702L182 728L219 777Q240 806 280 806Q303 806 350 791L429 766L509 802L532 776L495 727Q474 698 434 698Q411 698 364 713ZM199 -13T122 73T45 313Q45 410 83
489T193 614T366 660Q455 660 519 620T617 508T651 338Q651 237 619 158T517 33T344 -13Q199 -13 122 73ZM461 44T505 114T550 319Q550 431 526 492T458 577T352 600Q285 600 242 582T173 502T146 319Q146 172 200 108T364 44Q461 44 505 114Z" />
<glyph unicode="&#xd6;" glyph-name="Odieresis" horiz-adv-x="696" d="M223 693T209 708T195 749Q195 774 210 791T250 809Q273 809 287 795T301 755Q301 729 286 711T246 693Q223 693 209 708ZM434 693T420 708T406 749Q406 774 421 791T461 809Q484 809 498
795T512 755Q512 729 497 711T457 693Q434 693 420 708ZM199 -13T122 73T45 313Q45 410 83 489T193 614T366 660Q455 660 519 620T617 508T651 338Q651 237 619 158T517 33T344 -13Q199 -13 122 73ZM461 44T505 114T550 319Q550 431 526 492T458 577T352 600Q285
600 242 582T173 502T146 319Q146 172 200 108T364 44Q461 44 505 114Z" />
<glyph unicode="&#xd7;" glyph-name="multiply" d="M86 138L218 271L86 404L132 450L263 317L395 450L445 401L313 269L444 136L398 90L266 223L133 90L86 138Z" />
<glyph unicode="&#xd8;" glyph-name="Oslash" horiz-adv-x="696" d="M113 66T79 139T45 313Q45 410 83 489T193 614T366 660Q405 660 447 650L478 720L538 693L509 626Q577 588 614 513T651 338Q651 237 619 158T517 33T344 -13Q291 -13 241 0L210 -72L148 -45L179
27Q113 66 79 139ZM394 600T352 600Q285 600 242 582T173 502T146 319Q146 164 209 98L422 592Q394 600 352 600ZM307 44T364 44Q461 44 505 114T550 319Q550 414 533 472T481 560L266 60Q307 44 364 44Z" />
<glyph unicode="&#xd9;" glyph-name="Ugrave" horiz-adv-x="732" d="M245 767Q248 800 260 818T287 836Q294 836 305 830T329 814L460 716L438 681L245 767ZM266 -13T216 19T147 113T127 278V589L45 604V648H296V604L214 589V278Q214 187 228 140T280 73T390 53Q480
53 515 107T550 278V587L468 603V648H697V603L615 587V278Q615 177 594 115T517 20T359 -13Q266 -13 216 19Z" />
<glyph unicode="&#xda;" glyph-name="Uacute" horiz-adv-x="732" d="M297 716L428 814Q440 823 451 829T470 836Q485 836 497 818T512 767L319 681L297 716ZM266 -13T216 19T147 113T127 278V589L45 604V648H296V604L214 589V278Q214 187 228 140T280 73T390 53Q480
53 515 107T550 278V587L468 603V648H697V603L615 587V278Q615 177 594 115T517 20T359 -13Q266 -13 216 19Z" />
<glyph unicode="&#xdb;" glyph-name="Ucircumflex" horiz-adv-x="732" d="M305 780L334 803Q350 817 362 825T381 834Q390 834 401 827T436 798Q444 792 458 780L532 719L499 678L377 743L251 680L226 716L305 780ZM45 604V648H296V604L214 589V278Q214 187 228
140T280 73T390 53Q480 53 515 107T550 278V587L468 603V648H697V603L615 587V278Q615 177 594 115T517 20T359 -13Q266 -13 216 19T147 113T127 278V589L45 604Z" />
<glyph unicode="&#xdc;" glyph-name="Udieresis" horiz-adv-x="732" d="M253 703T239 718T225 759Q225 784 240 801T280 819Q303 819 317 805T331 765Q331 739 316 721T276 703Q253 703 239 718ZM464 703T450 718T436 759Q436 784 451 801T491 819Q514 819 528
805T542 765Q542 739 527 721T487 703Q464 703 450 718ZM266 -13T216 19T147 113T127 278V589L45 604V648H296V604L214 589V278Q214 187 228 140T280 73T390 53Q480 53 515 107T550 278V587L468 603V648H697V603L615 587V278Q615 177 594 115T517 20T359 -13Q266
-13 216 19Z" />
<glyph unicode="&#xdd;" glyph-name="Yacute" horiz-adv-x="584" d="M222 716L353 814Q365 823 376 829T395 836Q410 836 422 818T437 767L244 681L222 716ZM175 0V44L257 59V232L57 591L-5 607V648H236V607L161 591V573L306 299H320L462 573V591L383 607V648H594V607L534
591L344 244V59L426 44V0H175Z" />
<glyph unicode="&#xde;" glyph-name="Thorn" horiz-adv-x="561" d="M59 44L141 59V589L59 604V648H310V604L228 589V510H317Q429 510 482 476T536 357Q536 252 479 204T306 156H228V59L310 44V0H59V44ZM288 206Q371 206 407 235T444 336Q444 401 412 427T311 453H228V206H288Z"
/>
<glyph unicode="&#xdf;" glyph-name="germandbls" horiz-adv-x="604" d="M339 -9T300 4T244 30L256 152H297L311 74Q339 46 390 46Q438 46 458 69T479 127Q479 151 470 164T440 187T379 207Q339 219 316 229T275 265T257 334Q257 372 270 397T297 436T346 475Q377
499 390 516T404 562Q404 596 380 616T302 637Q240 637 209 609T178 527V0H27V41L96 55V437H35V484L95 496Q95 593 154 647T308 701Q387 701 437 664T487 561Q487 506 449 466Q433 450 402 430Q368 407 351 389T334 344Q334 324 345 312T372 293T420 277Q465 264
493 250T539 209T557 139Q557 65 508 28T386 -9Q339 -9 300 4Z" />
<glyph unicode="&#xe0;" glyph-name="agrave" horiz-adv-x="475" d="M118 655Q127 684 141 700T169 717Q179 717 187 710T211 686L320 565L292 535L118 655ZM103 -7T68 28T33 117Q33 243 212 268L302 281V356Q302 440 204 440Q182 440 165 437T142 432L127 340Q127
339 118 336T95 333Q77 333 63 346T49 379Q49 417 86 445T172 489T253 504Q316 504 350 472T384 389V68L455 54V16Q451 14 437 10T401 1T355 -4Q311 -4 307 42H303Q290 28 254 11T175 -7Q103 -7 68 28ZM235 56T255 60T287 68T302 74V233Q207 226 164 203T121 132Q121
100 145 78T213 56Q235 56 255 60Z" />
<glyph unicode="&#xe1;" glyph-name="aacute" horiz-adv-x="475" d="M138 565L247 686Q262 702 270 709T289 717Q303 717 317 701T340 655L166 535L138 565ZM103 -7T68 28T33 117Q33 243 212 268L302 281V356Q302 440 204 440Q182 440 165 437T142 432L127 340Q127
339 118 336T95 333Q77 333 63 346T49 379Q49 417 86 445T172 489T253 504Q316 504 350 472T384 389V68L455 54V16Q451 14 437 10T401 1T355 -4Q311 -4 307 42H303Q290 28 254 11T175 -7Q103 -7 68 28ZM235 56T255 60T287 68T302 74V233Q207 226 164 203T121 132Q121
100 145 78T213 56Q235 56 255 60Z" />
<glyph unicode="&#xe2;" glyph-name="acircumflex" horiz-adv-x="475" d="M221 628L106 545L78 577L184 683Q211 710 230 710Q247 710 268 689L374 579L339 544L221 628ZM103 -7T68 28T33 117Q33 243 212 268L302 281V356Q302 440 204 440Q182 440 165 437T142
432L127 340Q127 339 118 336T95 333Q77 333 63 346T49 379Q49 417 86 445T172 489T253 504Q316 504 350 472T384 389V68L455 54V16Q451 14 437 10T401 1T355 -4Q311 -4 307 42H303Q290 28 254 11T175 -7Q103 -7 68 28ZM235 56T255 60T287 68T302 74V233Q207 226
164 203T121 132Q121 100 145 78T213 56Q235 56 255 60Z" />
<glyph unicode="&#xe3;" glyph-name="atilde" horiz-adv-x="475" d="M275 574T251 581T222 589L138 614L70 580L48 600L76 647Q86 664 103 673T139 683Q157 683 181 676T210 668L294 643L362 677L384 657L356 610Q346 593 329 584T293 574Q275 574 251 581ZM103
-7T68 28T33 117Q33 243 212 268L302 281V356Q302 440 204 440Q182 440 165 437T142 432L127 340Q127 339 118 336T95 333Q77 333 63 346T49 379Q49 417 86 445T172 489T253 504Q316 504 350 472T384 389V68L455 54V16Q451 14 437 10T401 1T355 -4Q311 -4 307 42H303Q290
28 254 11T175 -7Q103 -7 68 28ZM235 56T255 60T287 68T302 74V233Q207 226 164 203T121 132Q121 100 145 78T213 56Q235 56 255 60Z" />
<glyph unicode="&#xe4;" glyph-name="adieresis" horiz-adv-x="475" d="M85 575T71 590T57 631Q57 656 72 673T112 691Q135 691 149 677T163 637Q163 611 148 593T108 575Q85 575 71 590ZM296 575T282 590T268 631Q268 656 283 673T323 691Q346 691 360 677T374
637Q374 611 359 593T319 575Q296 575 282 590ZM103 -7T68 28T33 117Q33 243 212 268L302 281V356Q302 440 204 440Q182 440 165 437T142 432L127 340Q127 339 118 336T95 333Q77 333 63 346T49 379Q49 417 86 445T172 489T253 504Q316 504 350 472T384 389V68L455
54V16Q451 14 437 10T401 1T355 -4Q311 -4 307 42H303Q290 28 254 11T175 -7Q103 -7 68 28ZM235 56T255 60T287 68T302 74V233Q207 226 164 203T121 132Q121 100 145 78T213 56Q235 56 255 60Z" />
<glyph unicode="&#xe5;" glyph-name="aring" horiz-adv-x="475" d="M175 535T152 558T129 622Q129 662 154 689T226 717Q269 717 292 692T316 628Q316 588 290 562T219 535Q175 535 152 558ZM245 578T253 589T262 626Q262 653 253 662T221 672Q198 672 190 662T182
626Q182 598 191 588T223 578Q245 578 253 589ZM103 -7T68 28T33 117Q33 243 212 268L302 281V356Q302 440 204 440Q182 440 165 437T142 432L127 340Q127 339 118 336T95 333Q77 333 63 346T49 379Q49 417 86 445T172 489T253 504Q316 504 350 472T384 389V68L455
54V16Q451 14 437 10T401 1T355 -4Q311 -4 307 42H303Q290 28 254 11T175 -7Q103 -7 68 28ZM235 56T255 60T287 68T302 74V233Q207 226 164 203T121 132Q121 100 145 78T213 56Q235 56 255 60Z" />
<glyph unicode="&#xe6;" glyph-name="ae" horiz-adv-x="736" d="M313 350Q313 393 289 413T216 434Q194 434 177 431T155 427L133 340Q131 339 124 336T103 333Q60 333 60 378Q60 417 97 445T184 489T265 504Q306 504 337 486T384 436Q411 469 448 486T528 504Q624
504 661 443T699 260Q699 235 670 233L401 223Q401 176 409 142T444 85T525 61Q565 61 598 64T649 72T673 77L682 44Q682 42 661 29T604 3T523 -9Q416 -9 365 58Q332 28 290 11T187 -7Q115 -7 80 28T45 117Q45 181 93 221T224 266L313 271V350ZM616 305T616 329Q616
373 606 396T575 428T514 437Q454 437 428 393T401 275L613 287Q616 305 616 329ZM218 218T176 199T133 136Q133 102 155 79T223 55Q245 55 265 61T297 73T313 82V219Q218 218 176 199Z" />
<glyph unicode="&#xe7;" glyph-name="ccedilla" horiz-adv-x="454" d="M212 -187T196 -183T160 -171L176 -134Q204 -145 230 -145Q289 -145 289 -115Q289 -100 282 -95T258 -86L221 -78L202 -59L224 -7Q141 3 91 65T40 234Q40 307 66 368T143 467T266 504Q338
504 378 468T419 379Q419 362 406 348T373 333Q362 333 353 335T341 340L325 434Q314 439 296 442T260 446Q187 446 158 398T128 246Q128 147 168 104T289 61Q317 61 342 65T382 75T401 82L414 52Q414 50 394 36T342 8T268 -8V-29L285 -33Q321 -42 339 -54T357
-96Q357 -144 322 -165T234 -187Q212 -187 196 -183Z" />
<glyph unicode="&#xe8;" glyph-name="egrave" horiz-adv-x="471" d="M132 655Q141 684 155 700T183 717Q193 717 201 710T225 686L334 565L306 535L132 655ZM147 -9T92 59T37 233Q37 312 65 373T145 469T260 504Q342 504 383 451T424 322Q424 269 414 251T376
233H125Q125 157 162 109T282 61Q317 61 343 66T384 77T402 85L416 57Q416 55 394 38T335 6T252 -9Q147 -9 92 59ZM340 287Q343 305 343 327Q343 387 322 416T245 446Q185 446 156 404T126 279L340 287Z" />
<glyph unicode="&#xe9;" glyph-name="eacute" horiz-adv-x="471" d="M155 565L264 686Q279 702 287 709T306 717Q320 717 334 701T357 655L183 535L155 565ZM147 -9T92 59T37 233Q37 312 65 373T145 469T260 504Q342 504 383 451T424 322Q424 269 414 251T376
233H125Q125 157 162 109T282 61Q317 61 343 66T384 77T402 85L416 57Q416 55 394 38T335 6T252 -9Q147 -9 92 59ZM340 287Q343 305 343 327Q343 387 322 416T245 446Q185 446 156 404T126 279L340 287Z" />
<glyph unicode="&#xea;" glyph-name="ecircumflex" horiz-adv-x="471" d="M230 628L115 545L87 577L193 683Q220 710 239 710Q256 710 277 689L383 579L348 544L230 628ZM147 -9T92 59T37 233Q37 312 65 373T145 469T260 504Q342 504 383 451T424 322Q424 269
414 251T376 233H125Q125 157 162 109T282 61Q317 61 343 66T384 77T402 85L416 57Q416 55 394 38T335 6T252 -9Q147 -9 92 59ZM340 287Q343 305 343 327Q343 387 322 416T245 446Q185 446 156 404T126 279L340 287Z" />
<glyph unicode="&#xeb;" glyph-name="edieresis" horiz-adv-x="471" d="M117 575T103 590T89 631Q89 656 104 673T144 691Q167 691 181 677T195 637Q195 611 180 593T140 575Q117 575 103 590ZM328 575T314 590T300 631Q300 656 315 673T355 691Q378 691 392 677T406
637Q406 611 391 593T351 575Q328 575 314 590ZM147 -9T92 59T37 233Q37 312 65 373T145 469T260 504Q342 504 383 451T424 322Q424 269 414 251T376 233H125Q125 157 162 109T282 61Q317 61 343 66T384 77T402 85L416 57Q416 55 394 38T335 6T252 -9Q147 -9 92
59ZM340 287Q343 305 343 327Q343 387 322 416T245 446Q185 446 156 404T126 279L340 287Z" />
<glyph unicode="&#xec;" glyph-name="igrave" horiz-adv-x="293" d="M23 684T37 700T65 717Q75 717 83 710T107 686L216 565L188 535L14 655Q23 684 37 700ZM28 41L108 55V411L28 425V466L167 494L190 485V55L268 41V0H28V41Z" />
<glyph unicode="&#xed;" glyph-name="iacute" horiz-adv-x="293" d="M38 565L147 686Q162 702 170 709T189 717Q203 717 217 701T240 655L66 535L38 565ZM28 0V41L108 55V411L28 425V466L167 494L190 485V55L268 41V0H28Z" />
<glyph unicode="&#xee;" glyph-name="icircumflex" horiz-adv-x="293" d="M61 667Q106 719 121 719Q135 719 179 667L249 586L217 554L118 632L10 556L-15 584L61 667ZM28 41L108 55V411L28 425V466L167 494L190 485V55L268 41V0H28V41Z" />
<glyph unicode="&#xef;" glyph-name="idieresis" horiz-adv-x="293" d="M15 573T1 588T-13 629Q-13 654 2 671T42 689Q65 689 79 675T93 635Q93 609 78 591T38 573Q15 573 1 588ZM186 573T172 588T158 629Q158 654 173 671T213 689Q236 689 250 675T264 635Q264
609 249 591T209 573Q186 573 172 588ZM28 0V41L108 55V411L28 425V466L167 494L190 485V55L268 41V0H28Z" />
<glyph unicode="&#xf0;" glyph-name="eth" horiz-adv-x="525" d="M150 -9T95 57T40 238Q40 346 103 410T277 475Q327 475 383 447Q363 551 299 597L197 531L170 570L251 623Q203 641 117 641V681Q117 682 139 685T195 688Q259 688 313 663L404 722L430 681L360
636Q419 592 452 511T485 311Q485 152 426 72T258 -9Q150 -9 95 57ZM340 49T367 105T394 284Q394 343 390 388Q361 399 334 405T273 412Q193 412 162 374T130 253Q130 194 138 151T177 79T267 49Q340 49 367 105Z" />
<glyph unicode="&#xf1;" glyph-name="ntilde" horiz-adv-x="576" d="M337 581T313 588T284 596L200 621L132 587L110 607L138 654Q148 671 165 680T201 690Q219 690 243 683T272 675L356 650L424 684L446 664L418 617Q408 600 391 591T355 581Q337 581 313 588ZM26
41L106 55V411L26 425V466L175 494L183 461L185 455Q276 504 345 504Q407 504 441 468T476 367V55L556 41V0H316V41L394 55V353Q394 396 369 415T289 434Q263 434 234 431T188 422V55L266 41V0H26V41Z" />
<glyph unicode="&#xf2;" glyph-name="ograve" horiz-adv-x="521" d="M158 684T172 700T200 717Q210 717 218 710T242 686L351 565L323 535L149 655Q158 684 172 700ZM149 -9T95 58T40 240Q40 311 68 371T148 468T269 504Q374 504 429 440T484 263Q484 186 457
124T378 27T251 -9Q149 -9 95 58ZM338 49T366 98T394 245Q394 350 365 398T263 446Q209 446 180 423T141 358T130 245Q130 149 161 99T270 49Q338 49 366 98Z" />
<glyph unicode="&#xf3;" glyph-name="oacute" horiz-adv-x="521" d="M290 686Q305 702 313 709T332 717Q346 717 360 701T383 655L209 535L181 565L290 686ZM149 -9T95 58T40 240Q40 311 68 371T148 468T269 504Q374 504 429 440T484 263Q484 186 457 124T378
27T251 -9Q149 -9 95 58ZM338 49T366 98T394 245Q394 350 365 398T263 446Q209 446 180 423T141 358T130 245Q130 149 161 99T270 49Q338 49 366 98Z" />
<glyph unicode="&#xf4;" glyph-name="ocircumflex" horiz-adv-x="521" d="M221 683Q248 710 267 710Q284 710 305 689L411 579L376 544L258 628L143 545L115 577L221 683ZM149 -9T95 58T40 240Q40 311 68 371T148 468T269 504Q374 504 429 440T484 263Q484 186
457 124T378 27T251 -9Q149 -9 95 58ZM338 49T366 98T394 245Q394 350 365 398T263 446Q209 446 180 423T141 358T130 245Q130 149 161 99T270 49Q338 49 366 98Z" />
<glyph unicode="&#xf5;" glyph-name="otilde" horiz-adv-x="521" d="M131 664T148 673T184 683Q202 683 226 676T255 668L339 643L407 677L429 657L401 610Q391 593 374 584T338 574Q320 574 296 581T267 589L183 614L115 580L93 600L121 647Q131 664 148 673ZM149
-9T95 58T40 240Q40 311 68 371T148 468T269 504Q374 504 429 440T484 263Q484 186 457 124T378 27T251 -9Q149 -9 95 58ZM338 49T366 98T394 245Q394 350 365 398T263 446Q209 446 180 423T141 358T130 245Q130 149 161 99T270 49Q338 49 366 98Z" />
<glyph unicode="&#xf6;" glyph-name="odieresis" horiz-adv-x="521" d="M132 575T118 590T104 631Q104 656 119 673T159 691Q182 691 196 677T210 637Q210 611 195 593T155 575Q132 575 118 590ZM343 575T329 590T315 631Q315 656 330 673T370 691Q393 691 407
677T421 637Q421 611 406 593T366 575Q343 575 329 590ZM149 -9T95 58T40 240Q40 311 68 371T148 468T269 504Q374 504 429 440T484 263Q484 186 457 124T378 27T251 -9Q149 -9 95 58ZM338 49T366 98T394 245Q394 350 365 398T263 446Q209 446 180 423T141 358T130
245Q130 149 161 99T270 49Q338 49 366 98Z" />
<glyph unicode="&#xf7;" glyph-name="divide" d="M238 371T223 388T207 434Q207 462 224 481T269 501Q295 501 310 485T326 440Q326 411 310 391T264 371Q238 371 223 388ZM67 239V302H462V239H67ZM238 37T223 54T207 100Q207 128 224 147T269 167Q295 167 310
151T326 106Q326 77 310 57T264 37Q238 37 223 54Z" />
<glyph unicode="&#xf8;" glyph-name="oslash" horiz-adv-x="521" d="M99 -53L132 23Q87 54 64 109T40 240Q40 311 68 371T148 468T269 504Q308 504 339 495L373 572L427 548L393 470Q438 440 461 387T484 263Q484 186 457 124T378 27T251 -9Q218 -9 188 -1L155
-77L99 -53ZM314 438Q290 446 263 446Q209 446 180 423T141 358T130 245Q130 142 164 96L314 438ZM338 49T366 98T394 245Q394 355 363 401L213 58Q237 49 270 49Q338 49 366 98Z" />
<glyph unicode="&#xf9;" glyph-name="ugrave" horiz-adv-x="557" d="M146 655Q155 684 169 700T197 717Q207 717 215 710T239 686L348 565L320 535L146 655ZM167 -9T129 27T90 129V424L7 438V476L144 504L172 490V172Q172 107 196 82T281 56Q302 56 329 64T378
84V424L296 438V476L433 504L461 490V71L532 55V17L393 -3L378 47L377 46Q355 21 316 6T237 -9Q167 -9 129 27Z" />
<glyph unicode="&#xfa;" glyph-name="uacute" horiz-adv-x="557" d="M180 565L289 686Q304 702 312 709T331 717Q345 717 359 701T382 655L208 535L180 565ZM167 -9T129 27T90 129V424L7 438V476L144 504L172 490V172Q172 107 196 82T281 56Q302 56 329 64T378
84V424L296 438V476L433 504L461 490V71L532 55V17L393 -3L378 47L377 46Q355 21 316 6T237 -9Q167 -9 129 27Z" />
<glyph unicode="&#xfb;" glyph-name="ucircumflex" horiz-adv-x="557" d="M255 623L140 540L112 572L218 678Q245 705 264 705Q281 705 302 684L408 574L373 539L255 623ZM167 -9T129 27T90 129V424L7 438V476L144 504L172 490V172Q172 107 196 82T281 56Q302
56 329 64T378 84V424L296 438V476L433 504L461 490V71L532 55V17L393 -3L378 47L377 46Q355 21 316 6T237 -9Q167 -9 129 27Z" />
<glyph unicode="&#xfc;" glyph-name="udieresis" horiz-adv-x="557" d="M136 575T122 590T108 631Q108 656 123 673T163 691Q186 691 200 677T214 637Q214 611 199 593T159 575Q136 575 122 590ZM347 575T333 590T319 631Q319 656 334 673T374 691Q397 691 411
677T425 637Q425 611 410 593T370 575Q347 575 333 590ZM167 -9T129 27T90 129V424L7 438V476L144 504L172 490V172Q172 107 196 82T281 56Q302 56 329 64T378 84V424L296 438V476L433 504L461 490V71L532 55V17L393 -3L378 47L377 46Q355 21 316 6T237 -9Q167
-9 129 27Z" />
<glyph unicode="&#xfd;" glyph-name="yacute" horiz-adv-x="468" d="M198 535L170 565L279 686Q294 702 302 709T321 717Q335 717 349 701T372 655L198 535ZM475 494V452L421 436L209 -109Q187 -166 106 -166Q89 -166 68 -163T31 -156V-118L145 -89L199 29L36
435L-22 451V494H197V449L131 440V425L234 155L242 121L254 165L354 425V437L290 448V494H475Z" />
<glyph unicode="&#xfe;" glyph-name="thorn" horiz-adv-x="540" d="M25 -123L94 -109V620L12 633V672L149 699L176 685V453Q204 476 242 490T315 504Q403 504 451 445T500 276Q500 193 474 131T400 34T289 0Q256 0 225 10T176 37V-109L263 -121V-165H25V-123ZM347
59T378 104T410 248Q410 348 380 392T279 436Q228 436 176 421V86Q196 74 224 67T277 59Q347 59 378 104Z" />
<glyph unicode="&#xff;" glyph-name="ydieresis" horiz-adv-x="468" d="M111 575T97 590T83 631Q83 656 98 673T138 691Q161 691 175 677T189 637Q189 611 174 593T134 575Q111 575 97 590ZM322 575T308 590T294 631Q294 656 309 673T349 691Q372 691 386 677T400
637Q400 611 385 593T345 575Q322 575 308 590ZM475 494V452L421 436L209 -109Q187 -166 106 -166Q89 -166 68 -163T31 -156V-118L145 -89L199 29L36 435L-22 451V494H197V449L131 440V425L234 155L242 121L254 165L354 425V437L290 448V494H475Z" />
<glyph unicode="&#x2013;" glyph-name="endash" horiz-adv-x="500" d="M0 296H500V237H0V296Z" />
<glyph unicode="&#x2014;" glyph-name="emdash" horiz-adv-x="1000" d="M0 296H1000V237H0V296Z" />
<glyph unicode="&#x2018;" glyph-name="quoteleft" horiz-adv-x="192" d="M173 704Q137 635 137 590Q137 571 144 553T161 520Q148 501 134 491T100 480Q73 480 58 498T42 543Q42 587 76 638T139 718L173 704Z" />
<glyph unicode="&#x2019;" glyph-name="quoteright" horiz-adv-x="188" d="M23 487Q59 556 59 601Q59 621 52 639T35 671Q48 690 62 700T96 711Q123 711 138 693T154 648Q154 604 120 553T57 473L23 487Z" />
<glyph unicode="&#x201a;" glyph-name="quotesinglbase" horiz-adv-x="192" d="M27 -115Q63 -46 63 -1Q63 19 56 37T39 69Q52 88 66 98T100 109Q127 109 142 91T158 46Q158 2 124 -49T61 -129L27 -115Z" />
<glyph unicode="&#x201c;" glyph-name="quotedblleft" horiz-adv-x="330" d="M151 703Q130 659 122 635T113 588Q113 548 143 524Q131 506 118 496T85 486Q60 486 45 504T30 548Q30 590 61 638T121 717L151 703ZM301 703Q280 659 272 635T263 588Q263 548 293
524Q281 506 268 496T235 486Q210 486 195 504T180 548Q180 590 211 638T271 717L301 703Z" />
<glyph unicode="&#x201d;" glyph-name="quotedblright" horiz-adv-x="330" d="M27 500Q48 544 56 568T65 615Q65 655 35 679Q47 697 60 707T93 717Q118 717 133 700T148 655Q148 613 117 565T57 486L27 500ZM177 500Q198 544 206 568T215 615Q215 655 185 679Q197
697 210 707T243 717Q268 717 283 700T298 655Q298 613 267 565T207 486L177 500Z" />
<glyph unicode="&#x201e;" glyph-name="quotedblbase" horiz-adv-x="347" d="M39 -108Q60 -64 68 -40T77 7Q77 47 47 71Q59 89 72 99T105 109Q130 109 145 92T160 47Q160 5 129 -43T69 -122L39 -108ZM189 -108Q210 -64 218 -40T227 7Q227 47 197 71Q209 89 222
99T255 109Q280 109 295 92T310 47Q310 5 279 -43T219 -122L189 -108Z" />
<glyph unicode="&#x2022;" glyph-name="bullet" horiz-adv-x="413" d="M90 352T123 385T203 419Q250 419 283 386T317 305Q317 258 284 225T203 192Q156 192 123 225T90 305Q90 352 123 385Z" />
<glyph unicode="&#x2039;" glyph-name="guilsinglleft" horiz-adv-x="228" d="M82 182T69 197T47 224T39 245Q39 258 78 303L180 417L205 401L121 245L205 87L180 71L87 175Q82 182 69 197Z" />
<glyph unicode="&#x203a;" glyph-name="guilsinglright" horiz-adv-x="228" d="M23 401L48 417L150 303Q189 258 189 245Q189 236 180 223T158 196T141 175L48 71L23 87L107 245L23 401Z" />
</font>
</defs>
</svg>
