<?xml version="1.0" standalone="no"?>
<!DOCTYPE svg PUBLIC "-//W3C//DTD SVG 1.1//EN" "http://www.w3.org/Graphics/SVG/1.1/DTD/svg11.dtd">
<svg xmlns="http://www.w3.org/2000/svg">
<defs >
<font id="Kanit" horiz-adv-x="558" ><font-face
    font-family="Kanit"
    units-per-em="1000"
    panose-1="0 0 5 0 0 0 0 0 0 0"
    ascent="1100"
    descent="-395"
    alphabetic="0" />
<glyph unicode=" " glyph-name="space" horiz-adv-x="370" />
<glyph unicode="!" glyph-name="exclam" horiz-adv-x="203" d="M89 483L123 644H232L198 483L124 161H27L89 483ZM0 82H116L99 0H-17L0 82Z" />
<glyph unicode="&quot;" glyph-name="quotedbl" horiz-adv-x="341" d="M119 644H213L160 455H79L119 644ZM279 644H373L320 455H239L279 644Z" />
<glyph unicode="#" glyph-name="numbersign" horiz-adv-x="702" d="M103 172H19L35 245H142L222 398H113L129 472H261L351 644H445L354 472H524L614 644H709L618 472H699L683 398H579L499 245H605L589 172H460L370 0H276L366 172H196L106 0H13L103 172ZM405 245L485
398H315L235 245H405Z" />
<glyph unicode="$" glyph-name="dollar" horiz-adv-x="555" d="M176 -10Q62 -7 1 22L22 118Q103 83 195 82L239 288Q236 288 232 290Q152 314 115 346T78 431Q78 448 83 473Q99 549 158 595T317 651L334 730H416L399 653Q444 651 483 644T546 628L526 532Q462
558 380 561L337 363Q492 320 492 212Q492 191 488 172Q455 15 259 -7L242 -86H160L176 -10ZM297 557Q250 550 225 531T193 473Q191 465 191 452Q191 429 206 414T260 386L297 557ZM322 94T346 113T378 172Q381 184 381 195Q381 219 366 234T316 264L279 87Q322
94 346 113Z" />
<glyph unicode="%" glyph-name="percent" horiz-adv-x="727" d="M145 360T115 387T85 463Q85 483 89 500Q121 654 264 654Q319 654 348 626T377 546Q377 527 372 500Q358 435 315 398T201 360Q145 360 115 387ZM558 644H660L183 0H81L558 644ZM288 426T304 502Q308
519 308 537Q308 563 294 575T249 587Q211 587 190 567T158 502Q155 487 155 475Q155 451 169 439T215 426Q288 426 304 502ZM424 -10T394 17T364 93Q364 113 368 130Q400 284 543 284Q598 284 627 256T656 176Q656 157 651 130Q637 65 594 28T480 -10Q424 -10
394 17ZM567 56T583 132Q587 149 587 167Q587 193 573 205T528 217Q490 217 469 197T437 132Q434 117 434 105Q434 81 448 69T494 56Q567 56 583 132Z" />
<glyph unicode="&amp;" glyph-name="ampersand" horiz-adv-x="668" d="M118 -10T65 26T12 124Q12 133 16 157Q30 221 78 268T209 357Q180 389 166 416T152 474Q152 490 155 506Q169 572 221 613T356 654Q420 654 457 624T495 540Q495 522 491 506Q480 454 448
418T352 344L468 193Q491 227 501 273L504 290H587L583 271Q575 233 558 197T517 133L580 51L502 -9L445 63Q359 -10 210 -10Q118 -10 65 26ZM348 422T371 444T402 501Q405 515 405 526Q405 577 339 577Q259 577 244 507Q242 493 242 487Q242 465 254 444T294 391Q348
422 371 444ZM326 66T392 123L261 292Q199 268 165 237T121 159Q119 145 119 139Q119 104 148 85T227 66Q326 66 392 123Z" />
<glyph unicode="&apos;" glyph-name="quotesingle" horiz-adv-x="181" d="M119 644H213L160 455H79L119 644Z" />
<glyph unicode="(" glyph-name="parenleft" horiz-adv-x="325" d="M31 6T31 154Q31 225 47 303Q71 416 125 516T262 678H385Q208 549 157 303Q141 232 141 164Q141 18 225 -72H102Q31 6 31 154Z" />
<glyph unicode=")" glyph-name="parenright" horiz-adv-x="325" d="M39 -5T94 88T175 303Q191 381 191 443Q191 590 107 678H231Q302 599 302 452Q302 386 285 303Q261 190 208 90T71 -72H-53Q39 -5 94 88Z" />
<glyph unicode="*" glyph-name="asterisk" horiz-adv-x="432" d="M88 373L198 470L92 518L140 583L232 533L250 644H334L306 533L418 583L437 515L311 467L379 370L308 323L250 430L145 323L88 373Z" />
<glyph unicode="+" glyph-name="plus" horiz-adv-x="473" d="M181 227H34L52 312H199L230 458H317L286 312H433L415 227H268L238 86H151L181 227Z" />
<glyph unicode="," glyph-name="comma" horiz-adv-x="211" d="M27 69H122L36 -120H-43L27 69Z" />
<glyph unicode="-" glyph-name="hyphen" horiz-adv-x="468" d="M49 312H431L413 227H31L49 312Z" />
<glyph unicode="." glyph-name="period" horiz-adv-x="179" d="M1 85H93L75 0H-17L1 85Z" />
<glyph unicode="/" glyph-name="slash" horiz-adv-x="431" d="M357 662H468L94 0H-17L357 662Z" />
<glyph unicode="0" glyph-name="zero" horiz-adv-x="651" d="M148 -18T92 38T36 200Q36 253 49 314Q73 428 114 502T226 615T405 654Q520 654 574 600T629 441Q629 385 614 314Q579 149 497 66T262 -18Q148 -18 92 38ZM373 75T426 136T504 314Q520 389 520 435Q520
499 489 530T385 561Q290 561 237 500T159 314Q145 247 145 201Q145 137 176 106T281 75Q373 75 426 136Z" />
<glyph unicode="1" glyph-name="one" horiz-adv-x="319" d="M203 548L95 530L114 621L334 654L195 0H87L203 548Z" />
<glyph unicode="2" glyph-name="two" horiz-adv-x="509" d="M-6 54Q29 109 81 156T210 259Q282 312 313 338T360 390T386 455Q391 478 391 492Q391 528 365 544T279 561Q206 561 119 531L140 627Q178 639 227 646T320 654Q407 654 453 614T500 504Q500 477 495
456Q481 393 441 347T325 243Q311 233 304 227Q243 183 205 152T139 84H423L406 0H-17L-6 54Z" />
<glyph unicode="3" glyph-name="three" horiz-adv-x="519" d="M118 -10T67 -2T-13 19L7 114Q75 83 168 83Q248 83 290 106T344 187Q347 201 347 213Q347 285 232 285H135L161 366H242Q370 366 391 466Q394 481 394 494Q394 529 366 545T270 561Q230 561 187 553T107
531L127 624Q162 637 212 645T307 654Q402 654 454 616T506 512Q506 492 502 476Q491 425 458 384T373 326Q457 303 457 219Q457 199 453 180Q432 83 361 37T163 -10Q118 -10 67 -2Z" />
<glyph unicode="4" glyph-name="four" horiz-adv-x="543" d="M314 141H-8L9 218L434 644H529L441 229H507L488 141H422L393 0H285L314 141ZM350 226L412 520L117 226H350Z" />
<glyph unicode="5" glyph-name="five" horiz-adv-x="515" d="M115 -10T67 -3T-10 19L10 114Q41 99 83 91T168 83Q246 83 287 110T342 197Q348 221 348 241Q348 275 323 291T238 307H48L62 373L136 644H502L476 560H211L164 391H273Q363 391 410 354T458 248Q458
224 452 195Q431 95 361 43T162 -10Q115 -10 67 -3Z" />
<glyph unicode="6" glyph-name="six" horiz-adv-x="573" d="M128 -10T76 35T24 165Q24 199 33 239L64 384Q90 508 174 581T394 654Q482 654 542 631L522 538Q464 561 381 561Q294 561 241 520T172 405L163 365Q202 389 249 402T337 416Q427 416 473 377T520 265Q520
236 513 205Q491 102 423 46T224 -10Q128 -10 76 35ZM314 72T357 106T414 201Q421 234 421 252Q421 292 394 312T303 332Q264 332 223 319T146 283L131 214Q125 186 125 163Q125 117 153 95T243 72Q314 72 357 106Z" />
<glyph unicode="7" glyph-name="seven" horiz-adv-x="498" d="M406 560H92L109 644H540L526 574L161 0H50L406 560Z" />
<glyph unicode="8" glyph-name="eight" horiz-adv-x="590" d="M14 -10T14 130Q14 147 19 174Q31 230 70 272T167 333Q131 348 114 375T96 437Q96 448 100 470Q119 556 188 605T374 654Q472 654 522 617T573 514Q573 495 568 470Q557 421 525 383T436 324Q527 296
527 215Q527 199 522 174Q503 81 433 36T232 -10Q14 -10 14 130ZM397 372T427 396T467 468Q470 485 470 498Q470 534 443 551T355 568Q289 568 251 544T201 468Q198 456 198 445Q198 386 270 372L338 358Q397 372 427 396ZM326 75T368 99T422 176Q425 191 425 202Q425
234 404 250T335 277L257 294Q200 282 166 256T121 178Q118 163 118 149Q118 111 149 93T250 75Q326 75 368 99Z" />
<glyph unicode="9" glyph-name="nine" horiz-adv-x="573" d="M108 -10T47 12L67 106Q124 82 208 82Q296 82 349 123T417 239L426 279Q387 255 340 242T252 228Q164 228 117 267T69 381Q69 402 76 439Q122 654 365 654Q462 654 513 609T565 479Q565 444 556 405L525
260Q497 130 413 60T195 -10Q108 -10 47 12ZM325 311T365 324T443 360L458 430Q464 457 464 480Q464 526 436 548T346 571Q268 571 228 538T174 442Q168 417 168 395Q168 353 195 332T286 311Q325 311 365 324Z" />
<glyph unicode=":" glyph-name="colon" horiz-adv-x="179" d="M70 412H162L144 326H52L70 412ZM6 111H98L80 25H-12L6 111Z" />
<glyph unicode=";" glyph-name="semicolon" horiz-adv-x="212" d="M103 412H194L176 326H85L103 412ZM29 77H124L38 -112H-41L29 77Z" />
<glyph unicode="&lt;" glyph-name="less" horiz-adv-x="544" d="M37 255L56 344L558 552L536 447L161 296L472 144L450 46L37 255Z" />
<glyph unicode="=" glyph-name="equal" horiz-adv-x="473" d="M64 385H450L434 308H48L64 385ZM32 232H418L401 154H15L32 232Z" />
<glyph unicode="&gt;" glyph-name="greater" horiz-adv-x="544" d="M14 152L390 304L78 455L100 552L514 344L495 255L-8 46L14 152Z" />
<glyph unicode="?" glyph-name="question" horiz-adv-x="495" d="M133 184Q140 221 162 250T209 298T279 349Q323 380 347 405T379 463Q383 480 383 498Q383 532 356 546T260 561Q220 561 175 551T94 525L114 617Q152 634 203 644T308 654Q397 654 446 617T496
513Q496 496 491 471Q480 419 450 385T359 310L342 298Q293 262 271 239T241 179L237 162H128L133 184ZM107 82H223L206 0H90L107 82Z" />
<glyph unicode="@" glyph-name="at" horiz-adv-x="764" d="M167 -132T90 -76T12 99Q12 142 22 188Q91 525 452 525Q581 525 651 472T721 321Q721 291 713 253Q692 154 635 99T484 44H459Q393 -9 291 -9Q238 -9 206 15T173 83Q173 95 176 110Q188 168 230 202T352
236H472L476 258Q480 284 480 292Q480 319 461 328T391 338Q329 338 266 318L278 374Q334 396 422 396Q550 396 550 294Q550 273 546 254L515 107Q560 107 588 141T632 250Q640 290 640 319Q640 388 593 420T437 453Q297 453 216 390T104 187Q94 141 94 102Q94
13 149 -24T315 -61Q425 -61 492 -42L476 -114Q397 -132 301 -132Q167 -132 90 -76ZM394 47T442 95L460 182H355Q306 182 283 164T252 110Q249 98 249 89Q249 67 266 57T320 47Q394 47 442 95Z" />
<glyph unicode="A" glyph-name="A" horiz-adv-x="699" d="M365 644H487L595 0H487L458 166H199L100 0H-17L365 644ZM458 250L408 545L234 250H458Z" />
<glyph unicode="B" glyph-name="B" horiz-adv-x="631" d="M139 644H451Q526 644 567 611T608 516Q608 499 603 472Q592 421 564 386T496 331Q533 319 552 295T572 231Q572 214 567 186Q527 0 329 0H3L139 644ZM378 369Q480 369 500 463Q505 488 505 503Q505 534
484 548T407 562H231L190 369H378ZM323 80Q382 80 413 105T458 190Q462 214 462 222Q462 256 438 272T356 289H173L129 80H323Z" />
<glyph unicode="C" glyph-name="C" horiz-adv-x="597" d="M179 -10T110 53T40 228Q40 267 49 312Q84 478 179 566T443 654Q543 654 625 623L605 528Q526 561 431 561Q314 561 250 499T159 312Q149 268 149 229Q149 155 192 119T331 82Q429 82 518 113L497 17Q406
-10 302 -10Q179 -10 110 53Z" />
<glyph unicode="D" glyph-name="D" horiz-adv-x="649" d="M139 644H400Q512 644 569 594T626 437Q626 381 612 318Q577 153 494 77T267 0H3L139 644ZM264 84Q333 84 377 103T452 173T503 318Q521 405 521 446Q521 510 486 534T365 559H230L129 84H264Z" />
<glyph unicode="E" glyph-name="E" horiz-adv-x="550" d="M139 644H588L570 559H230L189 364H492L474 280H171L129 84H469L452 0H3L139 644Z" />
<glyph unicode="F" glyph-name="F" horiz-adv-x="524" d="M139 644H577L559 559H230L189 364H481L463 280H171L112 0H3L139 644Z" />
<glyph unicode="G" glyph-name="G" horiz-adv-x="641" d="M173 -10T106 51T38 221Q38 265 48 309Q83 474 181 564T445 654Q551 654 629 625L609 531Q534 561 434 561Q318 561 251 498T158 309Q148 256 148 224Q148 151 190 117T323 82Q409 82 466 102L504 282H343L359
353H613L547 43Q506 20 444 5T300 -10Q173 -10 106 51Z" />
<glyph unicode="H" glyph-name="H" horiz-adv-x="654" d="M139 644H248L189 364H499L558 644H667L531 0H422L481 280H171L112 0H3L139 644Z" />
<glyph unicode="I" glyph-name="I" horiz-adv-x="235" d="M139 644H248L112 0H3L139 644Z" />
<glyph unicode="J" glyph-name="J" horiz-adv-x="431" d="M19 -10T-35 13L-15 105Q7 94 38 88T101 82Q167 82 199 109T246 198L340 644H449L351 180Q331 86 270 38T100 -10Q19 -10 -35 13Z" />
<glyph unicode="K" glyph-name="K" horiz-adv-x="625" d="M139 644H248L185 348L522 644H648L356 384L522 0H406L273 315L157 213L112 0H3L139 644Z" />
<glyph unicode="L" glyph-name="L" horiz-adv-x="525" d="M139 644H248L129 84H459L442 0H3L139 644Z" />
<glyph unicode="M" glyph-name="M" horiz-adv-x="757" d="M139 644H248L364 227L655 644H770L634 0H526L625 467L375 111H309L210 467L111 0H3L139 644Z" />
<glyph unicode="N" glyph-name="N" horiz-adv-x="667" d="M139 644H235L471 170L571 644H679L543 0H447L212 473L112 0H3L139 644Z" />
<glyph unicode="O" glyph-name="O" horiz-adv-x="697" d="M164 -10T101 44T38 209Q38 261 51 320Q88 495 178 574T427 654Q674 654 674 435Q674 382 661 320Q624 150 534 70T285 -10Q164 -10 101 44ZM403 82T464 139T552 320Q566 387 566 429Q566 500 529 530T407
561Q308 561 248 505T161 320Q148 255 148 217Q148 146 185 114T305 82Q403 82 464 139Z" />
<glyph unicode="P" glyph-name="P" horiz-adv-x="590" d="M139 644H426Q514 644 558 602T603 487Q603 459 597 429Q575 330 508 274T332 217H158L112 0H3L139 644ZM330 303Q463 303 488 429Q494 461 494 484Q494 524 472 541T397 559H230L176 303H330Z" />
<glyph unicode="Q" glyph-name="Q" horiz-adv-x="697" d="M285 -172T256 -143T226 -58Q226 -37 231 -7Q38 15 38 209Q38 261 51 320Q88 495 178 574T427 654Q674 654 674 435Q674 382 661 320Q626 161 546 82T328 -8Q323 -33 323 -46Q323 -72 337 -80T385 -89Q420
-89 458 -79L440 -160Q423 -165 396 -168T344 -172Q285 -172 256 -143ZM403 82T464 139T552 320Q566 387 566 429Q566 500 529 530T407 561Q308 561 248 505T161 320Q148 255 148 217Q148 146 185 114T305 82Q403 82 464 139Z" />
<glyph unicode="R" glyph-name="R" horiz-adv-x="610" d="M139 644H425Q514 644 559 605T605 495Q605 468 599 438Q584 368 541 321T428 255Q442 243 448 229T461 187L503 0H391L350 180Q344 207 330 217T281 228H160L112 0H3L139 644ZM337 316Q402 316 439 345T490
438Q496 465 496 485Q496 523 473 541T398 559H230L179 316H337Z" />
<glyph unicode="S" glyph-name="S" horiz-adv-x="555" d="M71 -10T1 22L22 118Q107 82 205 82Q286 82 326 101T378 172Q381 186 381 195Q381 219 366 234T321 262T232 290Q152 312 115 345T78 430Q78 448 83 473Q121 654 369 654Q422 654 469 647T546 628L526
532Q456 561 364 561Q288 561 246 541T193 473Q191 465 191 452Q191 431 204 417T245 392T328 366Q416 343 454 307T493 216Q493 199 488 172Q469 83 400 37T195 -10Q71 -10 1 22Z" />
<glyph unicode="T" glyph-name="T" horiz-adv-x="567" d="M287 559H81L99 644H619L601 559H396L278 0H169L287 559Z" />
<glyph unicode="U" glyph-name="U" horiz-adv-x="675" d="M165 -10T104 41T42 181Q42 209 48 239L134 644H243L158 243Q150 206 150 182Q150 130 183 106T295 82Q382 82 431 120T499 243L584 644H692L606 239Q580 116 499 53T275 -10Q165 -10 104 41Z" />
<glyph unicode="V" glyph-name="V" horiz-adv-x="699" d="M119 644H230L311 117L616 644H731L351 0H229L119 644Z" />
<glyph unicode="W" glyph-name="W" horiz-adv-x="868" d="M119 644H226L233 161L441 566L457 644H546L581 161L794 644H900L615 0H510L476 451L244 0H133L119 644Z" />
<glyph unicode="X" glyph-name="X" horiz-adv-x="677" d="M281 321L124 644H250L364 405L578 644H705L411 321L573 0H445L328 236L111 0H-17L281 321Z" />
<glyph unicode="Y" glyph-name="Y" horiz-adv-x="656" d="M264 239L119 644H228L334 331L572 644H689L372 239L322 0H214L264 239Z" />
<glyph unicode="Z" glyph-name="Z" horiz-adv-x="575" d="M-5 58L446 555H117L136 644H605L591 577L143 84H491L474 0H-17L-5 58Z" />
<glyph unicode="[" glyph-name="bracketleft" horiz-adv-x="351" d="M133 706H404L388 621H223L88 -15H254L232 -99H-39L133 706Z" />
<glyph unicode="\" glyph-name="backslash" horiz-adv-x="451" d="M123 662H235L335 -54H224L123 662Z" />
<glyph unicode="]" glyph-name="bracketright" horiz-adv-x="351" d="M-31 -15H135L270 621H105L127 706H398L226 -99H-45L-31 -15Z" />
<glyph unicode="^" glyph-name="asciicircum" horiz-adv-x="476" d="M268 624H347L454 387H356L296 545L170 387H65L268 624Z" />
<glyph unicode="_" glyph-name="underscore" horiz-adv-x="541" d="M-17 0H437L420 -77H-34L-17 0Z" />
<glyph unicode="`" glyph-name="grave" horiz-adv-x="261" d="M132 699H228L265 522H178L132 699Z" />
<glyph unicode="a" glyph-name="a" horiz-adv-x="583" d="M21 -10T21 145Q21 175 29 218Q45 299 87 359T189 452T314 484Q357 484 387 474T443 441L450 474H559L459 0H366L368 47Q329 17 288 4T196 -10Q21 -10 21 145ZM316 72T375 122L425 357Q406 379 383 390T326
401Q254 401 206 354T139 217Q130 178 130 151Q130 107 156 90T243 72Q316 72 375 122Z" />
<glyph unicode="b" glyph-name="b" horiz-adv-x="582" d="M209 -10T174 3T112 47L97 0H3L146 674H255L206 443Q276 484 363 484Q446 484 492 443T539 319Q539 285 530 241Q476 -10 260 -10Q209 -10 174 3ZM323 72T362 112T420 241Q429 282 429 310Q429 358 403
379T317 401Q243 401 188 360L137 122Q155 97 184 85T249 72Q323 72 362 112Z" />
<glyph unicode="c" glyph-name="c" horiz-adv-x="493" d="M134 -10T80 36T25 169Q25 197 33 237Q59 360 138 422T344 484Q392 484 424 477T485 455L468 374Q422 400 348 400Q262 400 212 362T143 237Q135 199 135 174Q135 121 167 97T276 73Q347 73 411 100L393
17Q321 -10 233 -10Q134 -10 80 36Z" />
<glyph unicode="d" glyph-name="d" horiz-adv-x="582" d="M116 -10T70 31T23 157Q23 192 32 235Q59 360 130 422T306 484Q393 484 444 443L493 674H602L459 0H366L368 47Q329 17 288 4T196 -10Q116 -10 70 31ZM316 72T375 122L426 359Q389 401 317 401Q251 401
206 360T142 234Q133 195 133 165Q133 117 159 95T243 72Q316 72 375 122Z" />
<glyph unicode="e" glyph-name="e" horiz-adv-x="537" d="M139 -10T82 35T25 168Q25 198 33 238Q58 357 127 420T319 484Q407 484 452 442T498 329Q498 309 493 282L475 194H128Q127 185 127 170Q127 116 161 95T280 73Q316 73 355 80T425 98L408 18Q339 -10 240
-10Q139 -10 82 35ZM394 265L401 298Q405 314 405 332Q405 367 382 384T305 402Q231 402 195 370T143 265H394Z" />
<glyph unicode="f" glyph-name="f" horiz-adv-x="350" d="M114 389H45L63 474H132L145 532Q161 606 207 648T335 690Q387 690 429 673L412 595Q382 606 351 606Q304 606 283 590T252 531L240 474H364L341 389H222L140 0H32L114 389Z" />
<glyph unicode="g" glyph-name="g" horiz-adv-x="583" d="M141 -176T103 -173T46 -166L65 -79Q84 -85 114 -88T168 -92Q329 -92 350 4L358 40Q290 0 203 0Q119 0 71 39T23 159Q23 187 31 227Q56 349 128 416T302 484Q353 484 387 470T449 427L466 474H559L463
21Q443 -70 370 -123T168 -176Q141 -176 103 -173ZM318 82T376 124L424 351Q386 401 314 401Q248 401 203 356T141 228Q132 189 132 162Q132 116 158 99T248 82Q318 82 376 124Z" />
<glyph unicode="h" glyph-name="h" horiz-adv-x="578" d="M146 674H255L202 428Q283 484 385 484Q456 484 493 453T530 360Q530 336 524 307L459 0H351L415 302Q420 327 420 342Q420 374 400 387T331 401Q295 401 255 386T185 345L112 0H3L146 674Z" />
<glyph unicode="i" glyph-name="i" horiz-adv-x="308" d="M206 663H325L306 573H187L206 663ZM158 391H86L113 474H284L184 0H75L158 391Z" />
<glyph unicode="j" glyph-name="j" horiz-adv-x="306" d="M204 663H323L304 573H185L204 663ZM-78 -234T-116 -218L-99 -139Q-70 -149 -40 -149Q6 -149 28 -133T58 -76L158 391H86L113 474H283L164 -86Q149 -156 104 -195T-20 -234Q-78 -234 -116 -218Z" />
<glyph unicode="k" glyph-name="k" horiz-adv-x="550" d="M146 674H255L172 284L411 474H536L303 283L447 0H332L222 225L147 165L112 0H3L146 674Z" />
<glyph unicode="l" glyph-name="l" horiz-adv-x="280" d="M22 -10T22 72Q22 88 27 113L146 674H255L138 123Q135 108 135 99Q135 86 142 81T167 75Q191 75 215 81L198 2Q162 -10 118 -10Q22 -10 22 72Z" />
<glyph unicode="m" glyph-name="m" horiz-adv-x="856" d="M103 474H203L198 424Q286 484 377 484Q425 484 450 469T487 422Q530 452 576 468T679 484Q743 484 776 456T810 369Q810 350 803 313L737 0H630L694 302Q699 329 699 343Q699 374 680 387T617 401Q582
401 549 389T490 353Q490 333 484 304L420 0H319L382 301Q388 327 388 345Q388 374 372 387T318 401Q285 401 250 386T183 345L110 0H3L103 474Z" />
<glyph unicode="n" glyph-name="n" horiz-adv-x="578" d="M103 474H203L198 424Q238 451 286 467T385 484Q457 484 493 452T530 360Q530 336 524 307L459 0H351L415 302Q420 329 420 343Q420 375 400 388T329 401Q292 401 254 386T185 347L112 0H3L103 474Z" />
<glyph unicode="o" glyph-name="o" horiz-adv-x="581" d="M128 -10T77 34T25 164Q25 202 33 237Q59 360 130 422T332 484Q433 484 484 440T536 310Q536 272 528 237Q502 114 431 52T227 -10Q128 -10 77 34ZM321 82T360 118T418 237Q427 276 427 305Q427 351 401
371T313 391Q239 391 200 355T143 237Q134 198 134 169Q134 123 160 103T247 82Q321 82 360 118Z" />
<glyph unicode="p" glyph-name="p" horiz-adv-x="582" d="M103 474H197L193 427Q232 456 273 470T365 484Q447 484 492 443T538 318Q538 282 529 237Q502 110 436 50T256 -10Q170 -10 118 30L66 -216H-43L103 474ZM317 72T358 111T419 238Q428 280 428 311Q428
358 403 379T319 401Q245 401 186 351L136 114Q175 72 246 72Q317 72 358 111Z" />
<glyph unicode="q" glyph-name="q" horiz-adv-x="631" d="M321 -242T321 -152Q321 -135 326 -110L356 30Q286 -10 200 -10Q117 -10 71 33T25 161Q25 200 33 237Q59 363 126 423T302 484Q353 484 387 470T449 427L466 474H559L437 -102Q434 -117 434 -127Q434 -143
443 -150T476 -157Q495 -157 519 -151L503 -230Q466 -242 425 -242Q321 -242 321 -152ZM316 72T374 114L424 351Q386 401 314 401Q242 401 202 362T143 238Q135 203 135 169Q135 118 161 95T246 72Q316 72 374 114Z" />
<glyph unicode="r" glyph-name="r" horiz-adv-x="367" d="M103 474H203L198 419Q237 441 287 459T385 484L368 401Q323 393 270 376T184 342L112 0H3L103 474Z" />
<glyph unicode="s" glyph-name="s" horiz-adv-x="464" d="M110 -10T67 -4T-4 14L16 106Q46 93 85 86T163 79Q221 79 246 89T278 128Q279 132 279 138Q279 158 261 169T191 198L164 207Q107 227 80 250T52 316Q52 324 56 348Q71 416 124 450T283 484Q362 484 420
463L401 372Q376 383 344 389T281 395Q226 395 200 386T167 350Q166 346 166 340Q166 326 176 317T211 298T268 279Q335 257 363 233T392 167Q392 152 387 129Q372 57 318 24T158 -10Q110 -10 67 -4Z" />
<glyph unicode="t" glyph-name="t" horiz-adv-x="363" d="M119 -10T88 17T57 96Q57 114 62 141L115 389H45L63 474H133L156 583L271 616L241 474H367L342 389H223L172 147Q168 131 168 116Q168 91 183 82T237 73Q265 73 296 83L280 6Q236 -10 181 -10Q119 -10 88 17Z" />
<glyph unicode="u" glyph-name="u" horiz-adv-x="578" d="M104 -10T67 23T29 121Q29 145 35 175L98 474H207L144 175Q139 150 139 135Q139 100 160 86T228 72Q267 72 304 86T372 127L446 474H554L454 0H355L360 49Q273 -10 171 -10Q104 -10 67 23Z" />
<glyph unicode="v" glyph-name="v" horiz-adv-x="578" d="M83 474H192L247 106L458 474H574L288 0H170L83 474Z" />
<glyph unicode="w" glyph-name="w" horiz-adv-x="746" d="M83 474H192L201 129L355 416L367 474H450L480 129L635 474H743L519 0H420L384 310L216 0H108L83 474Z" />
<glyph unicode="x" glyph-name="x" horiz-adv-x="567" d="M215 241L90 474H207L290 316L439 474H556L334 241L463 0H345L258 165L101 0H-17L215 241Z" />
<glyph unicode="y" glyph-name="y" horiz-adv-x="598" d="M121 -176T83 -173T26 -166L45 -79Q64 -85 94 -88T148 -92Q232 -92 286 -66T352 15L359 49Q272 -10 171 -10Q105 -10 67 25T29 124Q29 148 35 175L98 474H207L144 175Q139 150 139 135Q139 102 159 87T228
72Q267 72 304 86T372 127L446 474H554L460 32Q441 -61 363 -118T148 -176Q121 -176 83 -173Z" />
<glyph unicode="z" glyph-name="z" horiz-adv-x="487" d="M-5 57L323 385H76L95 474H476L462 407L139 84H400L383 0H-17L-5 57Z" />
<glyph unicode="{" glyph-name="braceleft" horiz-adv-x="304" d="M67 -104T46 -87T24 -33Q24 -14 30 12L64 172Q69 197 69 212Q69 236 58 248T19 264L33 332Q74 337 91 359T120 433L153 590Q166 650 196 675T292 700H358L340 616H311Q285 616 274 605T256 565L218
387Q211 356 192 331T143 294Q162 285 171 268T181 228Q181 215 178 201L142 31Q139 18 139 7Q139 -8 147 -14T176 -20H205L187 -104H112Q67 -104 46 -87Z" />
<glyph unicode="|" glyph-name="bar" horiz-adv-x="196" d="M139 735H248L66 -120H-43L139 735Z" />
<glyph unicode="}" glyph-name="braceright" horiz-adv-x="304" d="M-32 -20H-3Q23 -20 35 -9T53 31L91 210Q98 241 116 266T166 303Q128 318 128 368Q128 383 131 396L167 565Q170 579 170 588Q170 604 162 610T132 616H103L121 700H187Q240 700 262 685T285
633Q285 610 280 590L247 433Q240 398 240 383Q240 360 251 348T290 332L276 264Q237 260 219 239T191 172L157 12Q144 -48 114 -76T25 -104H-50L-32 -20Z" />
<glyph unicode="~" glyph-name="asciitilde" horiz-adv-x="562" d="M359 217T336 225T274 252Q241 269 216 278T163 287Q125 287 93 273T31 227L54 335Q76 358 111 372T184 387Q215 387 241 378T303 350Q339 333 360 325T408 317Q446 317 476 331T537 376L514
268Q492 244 459 231T387 217Q359 217 336 225Z" />
<glyph unicode="&#xa0;" glyph-name="uni00A0" horiz-adv-x="370" />
<glyph unicode="&#xa1;" glyph-name="exclamdown" horiz-adv-x="203" d="M78 526L95 608H211L194 526H78ZM-38 -36L-4 125L70 447H167L105 125L71 -36H-38Z" />
<glyph unicode="&#xa2;" glyph-name="cent" horiz-adv-x="493" d="M197 -8Q114 0 70 44T25 167Q25 197 33 237Q57 350 125 411T302 482L319 560H399L382 483Q437 479 485 455L468 374Q429 396 364 399L295 73Q356 76 411 100L393 17Q340 -3 277 -8L261 -86H181L197
-8ZM283 394Q227 382 192 344T143 237Q135 199 135 173Q135 132 154 109T216 77L283 394Z" />
<glyph unicode="&#xa3;" glyph-name="sterling" horiz-adv-x="498" d="M0 84H25Q53 84 71 101T95 149L127 299H59L77 383H145L167 489Q184 567 239 610T378 654Q448 654 490 633L473 555Q462 562 439 566T393 570Q342 570 313 550T274 483L253 383H435L413 299H235L204
154Q198 128 190 112T164 84H411L394 0H-17L0 84Z" />
<glyph unicode="&#xa4;" glyph-name="currency" horiz-adv-x="572" d="M7 114L101 174Q89 200 89 231Q89 252 93 269Q104 322 141 362L74 424L134 483L203 418Q261 456 321 456Q352 456 378 446T424 417L522 483L558 424L462 362Q476 334 476 300Q476 284 473
269Q461 218 422 174L492 113L431 54L361 118Q305 81 243 81Q181 81 141 118L43 54L7 114ZM292 159T324 178T375 228T395 294Q395 332 371 355T305 379Q271 379 240 360T190 310T171 242Q171 205 193 182T258 159Q292 159 324 178Z" />
<glyph unicode="&#xa5;" glyph-name="yen" horiz-adv-x="656" d="M233 90H82L96 158H247L258 212H108L122 280H249L119 644H228L334 331L572 644H689L404 280H532L518 212H366L355 158H506L492 90H341L322 0H214L233 90Z" />
<glyph unicode="&#xa6;" glyph-name="brokenbar" horiz-adv-x="196" d="M139 735H248L179 414H70L139 735ZM25 200H134L66 -120H-43L25 200Z" />
<glyph unicode="&#xa7;" glyph-name="section" horiz-adv-x="555" d="M71 -10T1 22L22 118Q107 82 205 82Q284 82 325 101T378 172Q380 186 380 191Q380 226 347 245T231 288Q147 312 111 341T75 416Q75 435 79 452Q87 492 112 519Q105 538 105 558Q105 567 109
591Q127 674 198 719T392 765Q441 765 490 757T570 739L549 643Q475 672 385 672Q317 672 272 653T217 584Q214 572 214 563Q214 532 244 514T352 476Q447 451 485 424T523 351Q523 337 518 314Q515 299 505 277T484 240Q491 219 491 200Q491 191 487 169Q469 81
394 36T195 -10Q71 -10 1 22ZM425 312T428 326Q429 329 429 334Q429 354 401 368T296 402Q249 415 223 426T185 454Q178 439 177 433Q176 430 176 424Q176 405 201 393T298 361Q396 334 417 301Q425 312 428 326Z" />
<glyph unicode="&#xa8;" glyph-name="dieresis" horiz-adv-x="365" d="M120 645H212L193 559H101L120 645ZM306 645H398L379 559H287L306 645Z" />
<glyph unicode="&#xa9;" glyph-name="copyright" horiz-adv-x="751" d="M236 -10T175 24T79 119T44 255Q44 290 51 322Q71 414 128 489T270 609T454 654Q532 654 593 620T688 525T722 391Q722 356 715 322Q695 230 639 154T498 34T312 -10Q236 -10 175 24ZM406
57T472 91T584 185T645 322Q652 356 652 390Q652 480 597 533T439 586Q359 586 293 552T183 458T123 322Q115 284 115 254Q115 164 170 111T327 57Q406 57 472 91ZM257 99T209 143T161 264Q161 291 167 321Q182 392 222 442T317 517T436 543Q511 543 557 510L544
449Q500 476 439 476Q365 476 314 439T245 321Q238 289 238 262Q238 211 269 188T369 165Q399 165 431 173T491 195L477 131Q413 99 336 99Q257 99 209 143Z" />
<glyph unicode="&#xaa;" glyph-name="ordfeminine" horiz-adv-x="343" d="M123 380T101 395T78 440Q78 445 80 459Q89 503 119 524T206 546H288L289 555Q292 566 292 574Q292 589 279 595T229 601Q186 601 141 587L152 638Q200 654 255 654Q303 654 331 636T359
579Q359 568 356 554L321 386H261L262 412Q239 395 215 388T158 380Q123 380 101 395ZM236 427T270 462L278 501H208Q178 501 164 493T145 462Q144 458 144 451Q144 438 154 433T188 427Q236 427 270 462Z" />
<glyph unicode="&#xab;" glyph-name="guillemotleft" horiz-adv-x="620" d="M38 263L48 309L347 499L376 433L140 281L312 130L256 73L38 263ZM271 263L281 309L580 499L608 433L373 281L544 130L489 73L271 263Z" />
<glyph unicode="&#xac;" glyph-name="logicalnot" horiz-adv-x="524" d="M393 286H43L61 371H498L449 141H362L393 286Z" />
<glyph unicode="&#xad;" glyph-name="uni00AD" horiz-adv-x="468" d="M49 312H431L413 227H31L49 312Z" />
<glyph unicode="&#xae;" glyph-name="registered" horiz-adv-x="751" d="M236 -10T175 24T79 119T44 255Q44 290 51 322Q71 414 128 489T270 609T454 654Q532 654 593 620T688 525T722 391Q722 356 715 322Q695 230 639 154T498 34T312 -10Q236 -10 175 24ZM406
57T472 91T584 185T645 322Q652 356 652 390Q652 480 597 533T439 586Q359 586 293 552T183 458T123 322Q115 284 115 254Q115 164 170 111T327 57Q406 57 472 91ZM278 527H465Q520 527 548 503T577 434Q577 424 573 400Q563 354 533 324T456 282Q466 274 470 265T479
237L502 120H435L412 241Q407 258 397 263T357 269H292L260 120H191L278 527ZM384 324Q438 324 466 338T504 400Q507 415 507 426Q507 451 492 461T441 472H335L303 324H384Z" />
<glyph unicode="&#xaf;" glyph-name="overscore" horiz-adv-x="365" d="M107 634H405L390 563H92L107 634Z" />
<glyph unicode="&#xb0;" glyph-name="degree" horiz-adv-x="312" d="M161 500T135 524T109 587Q109 599 112 612Q122 661 160 692T248 723Q290 723 316 700T342 637Q342 626 339 612Q328 562 291 531T201 500Q161 500 135 524ZM239 562T258 581T278 626Q278 643
268 652T235 662Q210 662 192 642T174 596Q174 580 184 571T214 562Q239 562 258 581Z" />
<glyph unicode="&#xb1;" glyph-name="plusminus" horiz-adv-x="473" d="M189 267H42L60 352H207L238 498H325L294 352H441L423 267H276L246 126H159L189 267ZM4 85H385L367 0H-14L4 85Z" />
<glyph unicode="&#xb2;" glyph-name="uni00B2" horiz-adv-x="301" d="M69 408Q87 429 106 444T162 485Q204 515 218 529T237 559Q239 567 239 571Q239 583 228 588T190 594Q154 594 114 579L126 638Q179 654 227 654Q269 654 293 635T317 585Q317 581 315 569Q309
542 294 523T244 477Q229 466 219 458Q192 440 181 429H288L275 370H61L69 408Z" />
<glyph unicode="&#xb3;" glyph-name="uni00B3" horiz-adv-x="304" d="M126 362T101 365T62 375L74 429Q105 415 144 415Q180 415 196 423T217 450Q218 453 218 458Q218 485 166 485H127L141 533H173Q202 533 217 542T237 570Q240 586 229 592T184 599Q148 599
112 586L124 641Q140 646 165 650T215 654Q267 654 293 637T319 589Q319 563 304 541T262 509Q298 499 298 463Q298 459 296 447Q287 405 250 384T150 362Q126 362 101 365Z" />
<glyph unicode="&#xb4;" glyph-name="acute" horiz-adv-x="261" d="M208 699H303L182 522H94L208 699Z" />
<glyph unicode="&#xb6;" glyph-name="paragraph" horiz-adv-x="632" d="M289 253Q77 253 77 412Q77 443 84 477Q109 597 190 653T393 710H688L521 -77H412L562 626H477L327 -77H219L289 253Z" />
<glyph unicode="&#xb7;" glyph-name="middot" horiz-adv-x="179" d="M52 327H144L126 242H34L52 327Z" />
<glyph unicode="&#xb8;" glyph-name="cedilla" horiz-adv-x="293" d="M-18 -240T-39 -238T-71 -232L-59 -173Q-32 -181 1 -181Q48 -181 69 -172T96 -136Q97 -132 97 -126Q97 -107 80 -101T23 -95H-17L33 0H106L80 -47Q126 -47 149 -64T172 -114Q172 -125 169 -137Q147
-240 -1 -240Q-18 -240 -39 -238Z" />
<glyph unicode="&#xb9;" glyph-name="uni00B9" horiz-adv-x="203" d="M167 581L92 566L104 625L258 654L197 370H122L167 581Z" />
<glyph unicode="&#xba;" glyph-name="ordmasculine" horiz-adv-x="363" d="M145 380T116 404T87 476Q87 492 92 517Q107 585 148 619T260 654Q316 654 344 630T373 559Q373 542 368 517Q353 448 313 414T201 380Q145 380 116 404ZM249 432T269 452T299 517Q304
540 304 554Q304 578 291 589T248 601Q211 601 190 581T160 517Q155 492 155 479Q155 455 168 444T212 432Q249 432 269 452Z" />
<glyph unicode="&#xbb;" glyph-name="guillemotright" horiz-adv-x="620" d="M11 138L247 289L75 441L132 499L349 309L339 263L41 73L11 138ZM244 138L479 289L308 441L364 499L581 309L571 263L273 73L244 138Z" />
<glyph unicode="&#xbc;" glyph-name="onequarter" horiz-adv-x="644" d="M178 581L103 566L115 625L269 654L208 370H133L178 581ZM511 644H613L136 0H34L511 644ZM446 54H302L313 106L490 284H570L532 107H562L551 54H521L510 0H435L446 54ZM473 108L498 222L386
108H473Z" />
<glyph unicode="&#xbd;" glyph-name="onehalf" horiz-adv-x="651" d="M178 581L103 566L115 625L269 654L208 370H133L178 581ZM511 644H613L136 0H34L511 644ZM331 38Q348 59 367 74T423 115Q466 145 480 159T499 189Q500 192 500 198Q500 212 489 218T451 224Q417
224 375 209L387 268Q440 284 488 284Q532 284 555 265T579 216Q579 211 577 199Q571 172 556 153T505 107Q490 96 480 88Q453 70 442 59H549L537 0H323L331 38Z" />
<glyph unicode="&#xbe;" glyph-name="threequarters" horiz-adv-x="660" d="M126 362T101 365T62 375L73 428Q104 414 143 414Q179 414 196 422T217 450Q218 453 218 458Q218 485 166 485H127L141 533H173Q202 533 217 542T237 570Q240 586 228 593T184 600Q148
600 112 587L124 641Q140 646 165 650T215 654Q268 654 293 637T319 590Q319 564 304 541T262 509Q298 499 298 463Q298 459 296 447Q287 405 250 384T150 362Q126 362 101 365ZM515 644H618L141 0H39L515 644ZM451 54H306L317 106L495 284H574L536 107H567L556
54H525L514 0H440L451 54ZM478 108L503 222L390 108H478Z" />
<glyph unicode="&#xbf;" glyph-name="questiondown" horiz-adv-x="495" d="M330 608H446L429 526H313L330 608ZM139 -46T90 -9T40 95Q40 112 45 137Q56 189 86 223T177 298L194 310Q243 346 265 369T295 429L299 446H408L403 424Q396 387 374 358T327 310T257
259Q213 228 189 203T157 145Q153 128 153 110Q153 76 180 62T276 47Q316 47 361 57T442 83L422 -9Q384 -26 333 -36T228 -46Q139 -46 90 -9Z" />
<glyph unicode="&#xc0;" glyph-name="Agrave" horiz-adv-x="699" d="M338 865H433L471 688H383L338 865ZM365 644H487L595 0H487L458 166H199L100 0H-17L365 644ZM458 250L408 545L234 250H458Z" />
<glyph unicode="&#xc1;" glyph-name="Aacute" horiz-adv-x="699" d="M508 865H604L482 688H395L508 865ZM365 644H487L595 0H487L458 166H199L100 0H-17L365 644ZM458 250L408 545L234 250H458Z" />
<glyph unicode="&#xc2;" glyph-name="Acircumflex" horiz-adv-x="699" d="M429 848H505L596 687H512L457 788L362 687H271L429 848ZM365 644H487L595 0H487L458 166H199L100 0H-17L365 644ZM458 250L408 545L234 250H458Z" />
<glyph unicode="&#xc3;" glyph-name="Atilde" horiz-adv-x="699" d="M497 695T481 700T438 716Q415 725 402 729T373 734Q318 734 278 698L295 778Q311 791 336 799T386 808Q406 808 422 803T462 788Q483 779 498 774T531 769Q584 769 619 806L602 726Q589 712
566 704T516 695Q497 695 481 700ZM365 644H487L595 0H487L458 166H199L100 0H-17L365 644ZM458 250L408 545L234 250H458Z" />
<glyph unicode="&#xc4;" glyph-name="Adieresis" horiz-adv-x="699" d="M319 797H410L391 711H300L319 797ZM504 797H596L577 711H485L504 797ZM365 644H487L595 0H487L458 166H199L100 0H-17L365 644ZM458 250L408 545L234 250H458Z" />
<glyph unicode="&#xc5;" glyph-name="Aring" horiz-adv-x="699" d="M351 620Q320 645 320 689Q320 701 323 714Q334 764 371 796T463 828Q508 828 534 804T560 740Q560 704 542 672T491 620L595 0H487L458 166H199L100 0H-17L351 620ZM459 655T480 677T502 730Q502
750 490 761T452 773Q422 773 400 751T378 698Q378 678 390 667T427 655Q459 655 480 677ZM458 250L408 545L234 250H458Z" />
<glyph unicode="&#xc6;" glyph-name="AE" horiz-adv-x="844" d="M365 644H877L859 559H572L531 364H781L763 280H513L471 84H758L741 0H346L381 167H199L100 0H-17L365 644ZM399 251L465 561H426L245 251H399Z" />
<glyph unicode="&#xc7;" glyph-name="Ccedilla" horiz-adv-x="597" d="M209 -240T187 -238T154 -232L167 -173Q194 -181 227 -181Q274 -181 294 -172T321 -136Q322 -132 322 -125Q322 -106 306 -101T249 -95H209L254 -7Q152 4 96 65T39 227Q39 269 49 312Q84 478
179 566T443 654Q543 654 625 623L605 528Q526 561 431 561Q314 561 250 499T159 312Q149 268 149 229Q149 155 192 119T331 82Q429 82 518 113L497 17Q415 -7 326 -10L306 -47Q351 -47 374 -64T397 -114Q397 -125 394 -137Q372 -240 225 -240Q209 -240 187 -238Z"
/>
<glyph unicode="&#xc8;" glyph-name="Egrave" horiz-adv-x="550" d="M293 865H388L426 688H338L293 865ZM139 644H588L570 559H230L189 364H492L474 280H171L129 84H469L452 0H3L139 644Z" />
<glyph unicode="&#xc9;" glyph-name="Eacute" horiz-adv-x="550" d="M429 865H525L403 688H316L429 865ZM139 644H588L570 559H230L189 364H492L474 280H171L129 84H469L452 0H3L139 644Z" />
<glyph unicode="&#xca;" glyph-name="Ecircumflex" horiz-adv-x="550" d="M361 848H437L528 687H444L389 788L294 687H203L361 848ZM139 644H588L570 559H230L189 364H492L474 280H171L129 84H469L452 0H3L139 644Z" />
<glyph unicode="&#xcb;" glyph-name="Edieresis" horiz-adv-x="550" d="M256 798H347L328 712H237L256 798ZM441 798H533L514 712H422L441 798ZM139 644H588L570 559H230L189 364H492L474 280H171L129 84H469L452 0H3L139 644Z" />
<glyph unicode="&#xcc;" glyph-name="Igrave" horiz-adv-x="235" d="M115 865H210L248 688H160L115 865ZM139 644H248L112 0H3L139 644Z" />
<glyph unicode="&#xcd;" glyph-name="Iacute" horiz-adv-x="236" d="M269 865H365L243 688H156L269 865ZM139 644H248L112 0H3L139 644Z" />
<glyph unicode="&#xce;" glyph-name="Icircumflex" horiz-adv-x="235" d="M198 848H274L365 687H281L226 788L131 687H40L198 848ZM139 644H248L112 0H3L139 644Z" />
<glyph unicode="&#xcf;" glyph-name="Idieresis" horiz-adv-x="235" d="M89 801H180L161 715H70L89 801ZM274 801H366L347 715H255L274 801ZM139 644H248L112 0H3L139 644Z" />
<glyph unicode="&#xd0;" glyph-name="Eth" horiz-adv-x="689" d="M101 274H31L49 358H118L179 644H440Q552 644 609 594T666 437Q666 381 652 318Q617 153 534 77T307 0H43L101 274ZM304 84Q373 84 417 103T492 173T543 318Q561 405 561 446Q561 510 526 534T405
559H270L227 358H393L375 274H209L169 84H304Z" />
<glyph unicode="&#xd1;" glyph-name="Ntilde" horiz-adv-x="667" d="M486 703T470 708T427 724Q404 733 391 737T362 742Q307 742 267 706L284 786Q300 799 325 807T375 816Q395 816 411 811T451 796Q472 787 487 782T520 777Q573 777 608 814L591 734Q578 720
555 712T505 703Q486 703 470 708ZM139 644H235L471 170L571 644H679L543 0H447L212 473L112 0H3L139 644Z" />
<glyph unicode="&#xd2;" glyph-name="Ograve" horiz-adv-x="697" d="M351 865H446L484 688H396L351 865ZM164 -10T101 44T38 209Q38 261 51 320Q88 495 178 574T427 654Q674 654 674 435Q674 382 661 320Q624 150 534 70T285 -10Q164 -10 101 44ZM403 82T464 139T552
320Q566 387 566 429Q566 500 529 530T407 561Q308 561 248 505T161 320Q148 255 148 217Q148 146 185 114T305 82Q403 82 464 139Z" />
<glyph unicode="&#xd3;" glyph-name="Oacute" horiz-adv-x="697" d="M499 865H595L473 688H386L499 865ZM164 -10T101 44T38 209Q38 261 51 320Q88 495 178 574T427 654Q674 654 674 435Q674 382 661 320Q624 150 534 70T285 -10Q164 -10 101 44ZM403 82T464 139T552
320Q566 387 566 429Q566 500 529 530T407 561Q308 561 248 505T161 320Q148 255 148 217Q148 146 185 114T305 82Q403 82 464 139Z" />
<glyph unicode="&#xd4;" glyph-name="Ocircumflex" horiz-adv-x="697" d="M429 848H505L596 687H512L457 788L362 687H271L429 848ZM164 -10T101 44T38 209Q38 261 51 320Q88 495 178 574T427 654Q674 654 674 435Q674 382 661 320Q624 150 534 70T285 -10Q164
-10 101 44ZM403 82T464 139T552 320Q566 387 566 429Q566 500 529 530T407 561Q308 561 248 505T161 320Q148 255 148 217Q148 146 185 114T305 82Q403 82 464 139Z" />
<glyph unicode="&#xd5;" glyph-name="Otilde" horiz-adv-x="697" d="M496 695T480 700T437 716Q414 725 401 729T372 734Q317 734 277 698L294 778Q310 791 335 799T385 808Q405 808 421 803T461 788Q482 779 497 774T530 769Q583 769 618 806L601 726Q588 712
565 704T515 695Q496 695 480 700ZM164 -10T101 44T38 209Q38 261 51 320Q88 495 178 574T427 654Q674 654 674 435Q674 382 661 320Q624 150 534 70T285 -10Q164 -10 101 44ZM403 82T464 139T552 320Q566 387 566 429Q566 500 529 530T407 561Q308 561 248 505T161
320Q148 255 148 217Q148 146 185 114T305 82Q403 82 464 139Z" />
<glyph unicode="&#xd6;" glyph-name="Odieresis" horiz-adv-x="697" d="M319 798H410L391 712H300L319 798ZM504 798H596L577 712H485L504 798ZM164 -10T101 44T38 209Q38 261 51 320Q88 495 178 574T427 654Q674 654 674 435Q674 382 661 320Q624 150 534 70T285
-10Q164 -10 101 44ZM403 82T464 139T552 320Q566 387 566 429Q566 500 529 530T407 561Q308 561 248 505T161 320Q148 255 148 217Q148 146 185 114T305 82Q403 82 464 139Z" />
<glyph unicode="&#xd7;" glyph-name="multiply" horiz-adv-x="414" d="M190 199L63 95L19 150L146 255L60 363L126 418L210 309L343 417L386 362L254 253L340 144L276 90L190 199Z" />
<glyph unicode="&#xd8;" glyph-name="Oslash" horiz-adv-x="697" d="M136 20Q38 72 38 209Q38 261 51 320Q88 495 178 574T427 654Q464 654 504 647L531 693H605L567 628Q674 581 674 435Q674 382 661 320Q625 150 535 70T285 -10Q236 -10 197 -1L167 -53H93L136
20ZM452 558Q431 561 407 561Q308 561 248 505T161 320Q148 262 148 216Q148 142 189 111L452 558ZM403 82T464 139T552 320Q566 387 566 429Q566 471 554 498T515 540L249 86Q272 82 305 82Q403 82 464 139Z" />
<glyph unicode="&#xd9;" glyph-name="Ugrave" horiz-adv-x="675" d="M348 865H443L481 688H393L348 865ZM165 -10T104 41T42 181Q42 209 48 239L134 644H243L158 243Q150 206 150 182Q150 130 183 106T295 82Q382 82 431 120T499 243L584 644H692L606 239Q580
116 499 53T275 -10Q165 -10 104 41Z" />
<glyph unicode="&#xda;" glyph-name="Uacute" horiz-adv-x="675" d="M487 865H583L461 688H374L487 865ZM165 -10T104 41T42 181Q42 209 48 239L134 644H243L158 243Q150 206 150 182Q150 130 183 106T295 82Q382 82 431 120T499 243L584 644H692L606 239Q580
116 499 53T275 -10Q165 -10 104 41Z" />
<glyph unicode="&#xdb;" glyph-name="Ucircumflex" horiz-adv-x="675" d="M418 848H494L585 687H501L446 788L351 687H260L418 848ZM165 -10T104 41T42 181Q42 209 48 239L134 644H243L158 243Q150 206 150 182Q150 130 183 106T295 82Q382 82 431 120T499 243L584
644H692L606 239Q580 116 499 53T275 -10Q165 -10 104 41Z" />
<glyph unicode="&#xdc;" glyph-name="Udieresis" horiz-adv-x="675" d="M302 798H393L374 712H283L302 798ZM487 798H579L560 712H468L487 798ZM165 -10T104 41T42 181Q42 209 48 239L134 644H243L158 243Q150 206 150 182Q150 130 183 106T295 82Q382 82 431
120T499 243L584 644H692L606 239Q580 116 499 53T275 -10Q165 -10 104 41Z" />
<glyph unicode="&#xdd;" glyph-name="Yacute" horiz-adv-x="656" d="M473 865H569L447 688H360L473 865ZM264 239L119 644H228L334 331L572 644H689L372 239L322 0H214L264 239Z" />
<glyph unicode="&#xde;" glyph-name="Thorn" horiz-adv-x="590" d="M139 644H248L225 534H403Q490 534 535 492T580 376Q580 350 574 320Q552 221 485 164T308 107H134L112 0H3L139 644ZM307 193Q370 193 411 227T465 320Q471 347 471 369Q471 410 447 429T366
448H207L153 193H307Z" />
<glyph unicode="&#xdf;" glyph-name="germandbls" horiz-adv-x="630" d="M234 -10T180 12L200 104Q244 82 319 82Q373 82 409 111T458 193Q462 209 462 227Q462 266 437 285T357 305H279L297 388H374Q430 388 462 417T505 498Q509 520 509 528Q509 566 479 586T381
607Q304 607 260 570T199 455L103 0H-2L95 458Q120 574 196 637T400 700Q505 700 558 656T612 540Q612 521 607 498Q596 442 567 402T494 343Q530 331 550 300T570 225Q570 204 566 187Q546 94 482 42T319 -10Q234 -10 180 12Z" />
<glyph unicode="&#xe0;" glyph-name="agrave" horiz-adv-x="583" d="M257 699H352L390 522H302L257 699ZM21 -10T21 145Q21 175 29 218Q45 299 87 359T189 452T314 484Q357 484 387 474T443 441L450 474H559L459 0H366L368 47Q329 17 288 4T196 -10Q21 -10 21
145ZM316 72T375 122L425 357Q406 379 383 390T326 401Q254 401 206 354T139 217Q130 178 130 151Q130 107 156 90T243 72Q316 72 375 122Z" />
<glyph unicode="&#xe1;" glyph-name="aacute" horiz-adv-x="583" d="M400 699H496L374 522H287L400 699ZM21 -10T21 145Q21 175 29 218Q45 299 87 359T189 452T314 484Q357 484 387 474T443 441L450 474H559L459 0H366L368 47Q329 17 288 4T196 -10Q21 -10 21
145ZM316 72T375 122L425 357Q406 379 383 390T326 401Q254 401 206 354T139 217Q130 178 130 151Q130 107 156 90T243 72Q316 72 375 122Z" />
<glyph unicode="&#xe2;" glyph-name="acircumflex" horiz-adv-x="583" d="M331 682H407L498 521H414L359 622L264 521H173L331 682ZM21 -10T21 145Q21 175 29 218Q45 299 87 359T189 452T314 484Q357 484 387 474T443 441L450 474H559L459 0H366L368 47Q329 17
288 4T196 -10Q21 -10 21 145ZM316 72T375 122L425 357Q406 379 383 390T326 401Q254 401 206 354T139 217Q130 178 130 151Q130 107 156 90T243 72Q316 72 375 122Z" />
<glyph unicode="&#xe3;" glyph-name="atilde" horiz-adv-x="583" d="M403 537T387 542T344 558Q321 567 308 571T279 576Q224 576 184 540L201 620Q217 633 242 641T292 650Q312 650 328 645T368 630Q389 621 404 616T437 611Q490 611 525 648L508 568Q495 554
472 546T422 537Q403 537 387 542ZM21 -10T21 145Q21 175 29 218Q45 299 87 359T189 452T314 484Q357 484 387 474T443 441L450 474H559L459 0H366L368 47Q329 17 288 4T196 -10Q21 -10 21 145ZM316 72T375 122L425 357Q406 379 383 390T326 401Q254 401 206 354T139
217Q130 178 130 151Q130 107 156 90T243 72Q316 72 375 122Z" />
<glyph unicode="&#xe4;" glyph-name="adieresis" horiz-adv-x="583" d="M227 632H318L299 546H208L227 632ZM412 632H504L485 546H393L412 632ZM21 -10T21 145Q21 175 29 218Q45 299 87 359T189 452T314 484Q357 484 387 474T443 441L450 474H559L459 0H366L368
47Q329 17 288 4T196 -10Q21 -10 21 145ZM316 72T375 122L425 357Q406 379 383 390T326 401Q254 401 206 354T139 217Q130 178 130 151Q130 107 156 90T243 72Q316 72 375 122Z" />
<glyph unicode="&#xe5;" glyph-name="aring" horiz-adv-x="583" d="M297 521T272 546T247 610Q247 626 249 634Q260 684 297 716T389 748Q434 748 460 724T486 660Q486 623 468 591T416 540T341 521Q297 521 272 546ZM385 575T406 597T428 650Q428 670 416 681T378
693Q348 693 326 671T304 618Q304 598 316 587T353 575Q385 575 406 597ZM21 -10T21 145Q21 175 29 218Q45 299 87 359T189 452T314 484Q357 484 387 474T443 441L450 474H559L459 0H366L368 47Q329 17 288 4T196 -10Q21 -10 21 145ZM316 72T375 122L425 357Q406
379 383 390T326 401Q254 401 206 354T139 217Q130 178 130 151Q130 107 156 90T243 72Q316 72 375 122Z" />
<glyph unicode="&#xe6;" glyph-name="ae" horiz-adv-x="881" d="M88 -10T48 19T7 103Q7 113 11 135Q26 205 82 245T233 286H385L390 307Q394 323 394 340Q394 372 369 385T280 399Q196 399 118 374L135 455Q215 484 318 484Q437 484 474 421Q509 451 558 467T663
484Q751 484 797 444T843 335Q843 311 837 282L819 194H472Q471 187 471 173Q471 117 507 95T624 72Q661 72 700 78T769 97L752 18Q683 -10 584 -10Q517 -10 470 11T401 73Q351 33 295 12T154 -10Q88 -10 48 19ZM738 265L745 298Q749 320 749 329Q749 402 649 402Q575
402 539 370T487 265H738ZM244 68T282 83T351 127L370 212H220Q172 212 147 194T113 137Q111 123 111 119Q111 93 132 81T194 68Q244 68 282 83Z" />
<glyph unicode="&#xe7;" glyph-name="ccedilla" horiz-adv-x="493" d="M139 -240T117 -238T84 -232L97 -173Q124 -181 157 -181Q204 -181 224 -172T251 -136Q252 -132 252 -125Q252 -106 236 -101T179 -95H139L184 -7Q108 4 67 49T25 169Q25 197 33 237Q59 360
138 422T344 484Q392 484 424 477T485 455L468 374Q422 400 348 400Q262 400 212 362T143 237Q135 199 135 174Q135 121 167 97T276 73Q347 73 411 100L393 17Q333 -6 256 -9L236 -47Q281 -47 304 -64T327 -114Q327 -125 324 -137Q302 -240 155 -240Q139 -240 117
-238Z" />
<glyph unicode="&#xe8;" glyph-name="egrave" horiz-adv-x="537" d="M235 699H330L368 522H280L235 699ZM139 -10T82 35T25 168Q25 198 33 238Q58 357 127 420T319 484Q407 484 452 442T498 329Q498 309 493 282L475 194H128Q127 185 127 170Q127 116 161 95T280
73Q316 73 355 80T425 98L408 18Q339 -10 240 -10Q139 -10 82 35ZM394 265L401 298Q405 314 405 332Q405 367 382 384T305 402Q231 402 195 370T143 265H394Z" />
<glyph unicode="&#xe9;" glyph-name="eacute" horiz-adv-x="537" d="M389 699H485L363 522H276L389 699ZM139 -10T82 35T25 168Q25 198 33 238Q58 357 127 420T319 484Q407 484 452 442T498 329Q498 309 493 282L475 194H128Q127 185 127 170Q127 116 161 95T280
73Q316 73 355 80T425 98L408 18Q339 -10 240 -10Q139 -10 82 35ZM394 265L401 298Q405 314 405 332Q405 367 382 384T305 402Q231 402 195 370T143 265H394Z" />
<glyph unicode="&#xea;" glyph-name="ecircumflex" horiz-adv-x="537" d="M318 682H394L485 521H401L346 622L251 521H160L318 682ZM139 -10T82 35T25 168Q25 198 33 238Q58 357 127 420T319 484Q407 484 452 442T498 329Q498 309 493 282L475 194H128Q127 185
127 170Q127 116 161 95T280 73Q316 73 355 80T425 98L408 18Q339 -10 240 -10Q139 -10 82 35ZM394 265L401 298Q405 314 405 332Q405 367 382 384T305 402Q231 402 195 370T143 265H394Z" />
<glyph unicode="&#xeb;" glyph-name="edieresis" horiz-adv-x="537" d="M207 632H298L279 546H188L207 632ZM392 632H484L465 546H373L392 632ZM139 -10T82 35T25 168Q25 198 33 238Q58 357 127 420T319 484Q407 484 452 442T498 329Q498 309 493 282L475 194H128Q127
185 127 170Q127 116 161 95T280 73Q316 73 355 80T425 98L408 18Q339 -10 240 -10Q139 -10 82 35ZM394 265L401 298Q405 314 405 332Q405 367 382 384T305 402Q231 402 195 370T143 265H394Z" />
<glyph unicode="&#xec;" glyph-name="igrave" horiz-adv-x="310" d="M151 699H246L284 522H196L151 699ZM158 391H86L113 474H284L184 0H75L158 391Z" />
<glyph unicode="&#xed;" glyph-name="iacute" horiz-adv-x="308" d="M297 699H393L271 522H184L297 699ZM158 391H86L113 474H284L184 0H75L158 391Z" />
<glyph unicode="&#xee;" glyph-name="icircumflex" horiz-adv-x="310" d="M214 682H290L381 521H297L242 622L147 521H56L214 682ZM158 391H86L113 474H284L184 0H75L158 391Z" />
<glyph unicode="&#xef;" glyph-name="idieresis" horiz-adv-x="310" d="M95 632H186L167 546H76L95 632ZM280 632H372L353 546H261L280 632ZM158 391H86L113 474H284L184 0H75L158 391Z" />
<glyph unicode="&#xf0;" glyph-name="eth" horiz-adv-x="573" d="M120 -10T69 29T18 142Q18 167 24 197Q46 298 115 350T291 403Q331 403 372 390T441 352L450 393Q462 453 462 483Q462 500 459 513L315 456L327 512L435 555Q407 580 337 580Q263 580 188 555L204
630Q278 654 368 654Q478 654 527 592L627 632L615 575L550 549Q561 517 561 472Q561 428 551 382L520 239Q493 108 424 49T223 -10Q120 -10 69 29ZM311 66T353 101T411 210L426 282Q399 304 365 317T296 331Q219 331 178 297T122 197Q117 174 117 157Q117 112
146 89T239 66Q311 66 353 101Z" />
<glyph unicode="&#xf1;" glyph-name="ntilde" horiz-adv-x="578" d="M407 537T391 542T348 558Q325 567 312 571T283 576Q228 576 188 540L205 620Q221 633 246 641T296 650Q316 650 332 645T372 630Q393 621 408 616T441 611Q494 611 529 648L512 568Q499 554
476 546T426 537Q407 537 391 542ZM103 474H203L198 424Q238 451 286 467T385 484Q457 484 493 452T530 360Q530 336 524 307L459 0H351L415 302Q420 329 420 343Q420 375 400 388T329 401Q292 401 254 386T185 347L112 0H3L103 474Z" />
<glyph unicode="&#xf2;" glyph-name="ograve" horiz-adv-x="581" d="M257 699H352L390 522H302L257 699ZM128 -10T77 34T25 164Q25 202 33 237Q59 360 130 422T332 484Q433 484 484 440T536 310Q536 272 528 237Q502 114 431 52T227 -10Q128 -10 77 34ZM321 82T360
118T418 237Q427 276 427 305Q427 351 401 371T313 391Q239 391 200 355T143 237Q134 198 134 169Q134 123 160 103T247 82Q321 82 360 118Z" />
<glyph unicode="&#xf3;" glyph-name="oacute" horiz-adv-x="581" d="M406 699H502L380 522H293L406 699ZM128 -10T77 34T25 164Q25 202 33 237Q59 360 130 422T332 484Q433 484 484 440T536 310Q536 272 528 237Q502 114 431 52T227 -10Q128 -10 77 34ZM321 82T360
118T418 237Q427 276 427 305Q427 351 401 371T313 391Q239 391 200 355T143 237Q134 198 134 169Q134 123 160 103T247 82Q321 82 360 118Z" />
<glyph unicode="&#xf4;" glyph-name="ocircumflex" horiz-adv-x="581" d="M336 682H412L503 521H419L364 622L269 521H178L336 682ZM128 -10T77 34T25 164Q25 202 33 237Q59 360 130 422T332 484Q433 484 484 440T536 310Q536 272 528 237Q502 114 431 52T227
-10Q128 -10 77 34ZM321 82T360 118T418 237Q427 276 427 305Q427 351 401 371T313 391Q239 391 200 355T143 237Q134 198 134 169Q134 123 160 103T247 82Q321 82 360 118Z" />
<glyph unicode="&#xf5;" glyph-name="otilde" horiz-adv-x="581" d="M406 545T390 550T347 566Q324 575 311 579T282 584Q227 584 187 548L204 628Q220 641 245 649T295 658Q315 658 331 653T371 638Q392 629 407 624T440 619Q493 619 528 656L511 576Q498 562
475 554T425 545Q406 545 390 550ZM128 -10T77 34T25 164Q25 202 33 237Q59 360 130 422T332 484Q433 484 484 440T536 310Q536 272 528 237Q502 114 431 52T227 -10Q128 -10 77 34ZM321 82T360 118T418 237Q427 276 427 305Q427 351 401 371T313 391Q239 391 200
355T143 237Q134 198 134 169Q134 123 160 103T247 82Q321 82 360 118Z" />
<glyph unicode="&#xf6;" glyph-name="odieresis" horiz-adv-x="581" d="M226 632H317L298 546H207L226 632ZM411 632H503L484 546H392L411 632ZM128 -10T77 34T25 164Q25 202 33 237Q59 360 130 422T332 484Q433 484 484 440T536 310Q536 272 528 237Q502 114
431 52T227 -10Q128 -10 77 34ZM321 82T360 118T418 237Q427 276 427 305Q427 351 401 371T313 391Q239 391 200 355T143 237Q134 198 134 169Q134 123 160 103T247 82Q321 82 360 118Z" />
<glyph unicode="&#xf7;" glyph-name="divide" horiz-adv-x="468" d="M233 478H321L304 397H216L233 478ZM52 312H433L415 227H34L52 312ZM163 147H251L234 66H146L163 147Z" />
<glyph unicode="&#xf8;" glyph-name="oslash" horiz-adv-x="581" d="M111 12Q25 54 25 164Q25 202 33 237Q59 360 130 422T332 484Q364 484 385 480L413 528H487L448 462Q536 422 536 310Q536 279 528 237Q502 114 431 52T227 -10Q195 -10 174 -6L146 -54H72L111
12ZM332 390L313 391Q239 391 200 355T143 237Q134 198 134 169Q134 121 163 101L332 390ZM321 82T360 118T418 237Q427 276 427 304Q427 352 396 373L226 83Q233 82 247 82Q321 82 360 118Z" />
<glyph unicode="&#xf9;" glyph-name="ugrave" horiz-adv-x="578" d="M259 699H354L392 522H304L259 699ZM104 -10T67 23T29 121Q29 145 35 175L98 474H207L144 175Q139 150 139 135Q139 100 160 86T228 72Q267 72 304 86T372 127L446 474H554L454 0H355L360 49Q273
-10 171 -10Q104 -10 67 23Z" />
<glyph unicode="&#xfa;" glyph-name="uacute" horiz-adv-x="578" d="M391 699H487L365 522H278L391 699ZM104 -10T67 23T29 121Q29 145 35 175L98 474H207L144 175Q139 150 139 135Q139 100 160 86T228 72Q267 72 304 86T372 127L446 474H554L454 0H355L360 49Q273
-10 171 -10Q104 -10 67 23Z" />
<glyph unicode="&#xfb;" glyph-name="ucircumflex" horiz-adv-x="578" d="M331 682H407L498 521H414L359 622L264 521H173L331 682ZM104 -10T67 23T29 121Q29 145 35 175L98 474H207L144 175Q139 150 139 135Q139 100 160 86T228 72Q267 72 304 86T372 127L446
474H554L454 0H355L360 49Q273 -10 171 -10Q104 -10 67 23Z" />
<glyph unicode="&#xfc;" glyph-name="udieresis" horiz-adv-x="578" d="M219 630H310L291 544H200L219 630ZM404 630H496L477 544H385L404 630ZM104 -10T67 23T29 121Q29 145 35 175L98 474H207L144 175Q139 150 139 135Q139 100 160 86T228 72Q267 72 304 86T372
127L446 474H554L454 0H355L360 49Q273 -10 171 -10Q104 -10 67 23Z" />
<glyph unicode="&#xfd;" glyph-name="yacute" horiz-adv-x="598" d="M420 699H516L394 522H307L420 699ZM121 -176T83 -173T26 -166L45 -79Q64 -85 94 -88T148 -92Q232 -92 286 -66T352 15L359 49Q272 -10 171 -10Q105 -10 67 25T29 124Q29 148 35 175L98 474H207L144
175Q139 150 139 135Q139 102 159 87T228 72Q267 72 304 86T372 127L446 474H554L460 32Q441 -61 363 -118T148 -176Q121 -176 83 -173Z" />
<glyph unicode="&#xfe;" glyph-name="thorn" horiz-adv-x="582" d="M151 700H260L206 443Q275 484 364 484Q446 484 492 441T538 314Q538 279 529 237Q501 110 434 50T256 -10Q170 -10 118 30L66 -216H-43L151 700ZM317 72T358 111T419 238Q428 279 428 308Q428
356 403 378T319 401Q245 401 186 351L136 114Q175 72 246 72Q317 72 358 111Z" />
<glyph unicode="&#xff;" glyph-name="ydieresis" horiz-adv-x="598" d="M249 642H340L321 556H230L249 642ZM434 642H526L507 556H415L434 642ZM121 -176T83 -173T26 -166L45 -79Q64 -85 94 -88T148 -92Q232 -92 286 -66T352 15L359 49Q272 -10 171 -10Q105 -10
67 25T29 124Q29 148 35 175L98 474H207L144 175Q139 150 139 135Q139 102 159 87T228 72Q267 72 304 86T372 127L446 474H554L460 32Q441 -61 363 -118T148 -176Q121 -176 83 -173Z" />
<glyph unicode="&#x2013;" glyph-name="endash" horiz-adv-x="575" d="M49 312H538L520 227H31L49 312Z" />
<glyph unicode="&#x2014;" glyph-name="emdash" horiz-adv-x="858" d="M49 312H820L802 227H31L49 312Z" />
<glyph unicode="&#x2018;" glyph-name="quoteleft" horiz-adv-x="235" d="M188 654H270L176 459H80L188 654Z" />
<glyph unicode="&#x2019;" glyph-name="quoteright" horiz-adv-x="235" d="M175 654H270L162 459H80L175 654Z" />
<glyph unicode="&#x201a;" glyph-name="quotesinglbase" horiz-adv-x="235" d="M43 33H138L30 -162H-52L43 33Z" />
<glyph unicode="&#x201c;" glyph-name="quotedblleft" horiz-adv-x="374" d="M188 654H263L168 459H80L188 654ZM335 654H409L315 459H227L335 654Z" />
<glyph unicode="&#x201d;" glyph-name="quotedblright" horiz-adv-x="374" d="M175 654H263L155 459H80L175 654ZM321 654H409L301 459H227L321 654Z" />
<glyph unicode="&#x201e;" glyph-name="quotedblbase" horiz-adv-x="374" d="M53 80H141L33 -115H-42L53 80ZM199 80H287L179 -115H105L199 80Z" />
<glyph unicode="&#x2022;" glyph-name="bullet" horiz-adv-x="334" d="M96 164T69 191T41 260Q41 299 63 334T120 390T193 411Q238 411 266 383T294 312Q294 273 272 239T214 184T140 164Q96 164 69 191Z" />
<glyph unicode="&#x2039;" glyph-name="guilsinglleft" horiz-adv-x="388" d="M38 263L48 309L347 499L376 433L140 281L312 130L256 73L38 263Z" />
<glyph unicode="&#x203a;" glyph-name="guilsinglright" horiz-adv-x="388" d="M11 138L247 289L75 441L132 499L349 309L339 263L41 73L11 138Z" />
</font>
</defs>
</svg>
