<?xml version="1.0" standalone="no"?>
<!DOCTYPE svg PUBLIC "-//W3C//DTD SVG 1.1//EN" "http://www.w3.org/Graphics/SVG/1.1/DTD/svg11.dtd">
<svg xmlns="http://www.w3.org/2000/svg">
<defs >
<font id="Assistant" horiz-adv-x="478" ><font-face
    font-family="Assistant"
    units-per-em="1000"
    panose-1="0 0 5 0 0 0 0 0 0 0"
    ascent="1021"
    descent="-287"
    alphabetic="0" />
<glyph unicode=" " glyph-name="space" horiz-adv-x="200" />
<glyph unicode="!" glyph-name="exclam" horiz-adv-x="282" d="M106 582L104 670H178L176 582L166 194H116L106 582ZM118 -12T102 4T86 46Q86 72 102 88T141 105Q164 105 180 89T196 46Q196 21 180 5T141 -12Q118 -12 102 4Z" />
<glyph unicode="&quot;" glyph-name="quotedbl" horiz-adv-x="409" d="M83 605L81 691H159L157 605L143 443H97L83 605ZM251 605L249 691H327L325 605L311 443H265L251 605Z" />
<glyph unicode="#" glyph-name="numbersign" horiz-adv-x="492" d="M116 207H35V259H122L141 412H55V464H147L171 650H219L196 464H333L357 650H405L382 464H462V412H376L357 259H442V207H351L326 0H277L302 207H165L140 0H91L116 207ZM308 259L327 412H190L171 259H308Z" />
<glyph unicode="$" glyph-name="dollar" horiz-adv-x="492" d="M432 91T390 45T278 -10V-110H223V-11Q176 -7 131 14T54 66L88 116Q166 49 245 49Q301 49 331 78T361 157Q361 196 343 223T299 267T227 307Q179 331 150 351T100 404T79 484Q79 550 118 594T223
648V748H278V649Q322 645 354 626T418 575L379 531Q347 562 321 575T255 589Q208 589 180 561T151 488Q151 455 167 432T207 394T273 359Q325 333 356 312T410 254T432 162Q432 91 390 45Z" />
<glyph unicode="%" glyph-name="percent" horiz-adv-x="817" d="M115 261T76 316T36 469Q36 566 75 620T183 675Q251 675 290 621T330 469Q330 371 291 316T183 261Q115 261 76 316ZM563 669H614L251 -12H200L563 669ZM225 307T249 349T274 469Q274 547 250 588T183
629Q141 629 117 588T92 469Q92 391 116 349T183 307Q225 307 249 349ZM566 -12T527 43T487 196Q487 293 526 347T634 402Q702 402 741 348T781 196Q781 98 742 43T634 -12Q566 -12 527 43ZM675 34T699 76T724 196Q724 274 700 315T634 356Q592 356 568 315T543
196Q543 118 567 76T634 34Q675 34 699 76Z" />
<glyph unicode="&amp;" glyph-name="ampersand" horiz-adv-x="600" d="M566 -12Q496 8 418 65Q334 -12 231 -12Q174 -12 129 11T59 75T33 169Q33 229 67 272T164 360Q120 445 120 515Q120 581 161 625T268 669Q326 669 359 634T392 542Q392 502 372 468T321 408T243
347Q275 294 319 244T413 152Q477 234 509 352H577Q535 210 462 114Q530 66 586 49L566 -12ZM184 463T216 396Q273 435 302 467T332 540Q332 572 316 594T268 616Q230 616 207 588T184 517Q184 463 216 396ZM104 117T143 82T239 47Q305 47 370 104Q261 199 193
309Q150 275 127 243T104 173Q104 117 143 82Z" />
<glyph unicode="&apos;" glyph-name="quotesingle" horiz-adv-x="242" d="M83 605L81 691H159L157 605L143 443H97L83 605Z" />
<glyph unicode="(" glyph-name="parenleft" horiz-adv-x="297" d="M150 -70T117 40T83 278Q83 405 116 515T215 732L260 710Q203 616 174 505T144 278Q144 162 173 51T260 -154L215 -176Q150 -70 117 40Z" />
<glyph unicode=")" glyph-name="parenright" horiz-adv-x="297" d="M37 -154Q94 -60 123 51T153 278Q153 394 124 505T37 710L82 732Q147 626 180 516T214 278Q214 151 181 41T82 -176L37 -154Z" />
<glyph unicode="*" glyph-name="asterisk" horiz-adv-x="412" d="M100 457L156 550L61 589L75 631L175 605L184 712H228L237 607L337 631L351 589L256 550L312 457L275 431L207 516L137 431L100 457Z" />
<glyph unicode="+" glyph-name="plus" horiz-adv-x="492" d="M216 302H34V358H216V555H276V358H458V302H276V105H216V302Z" />
<glyph unicode="," glyph-name="comma" horiz-adv-x="242" d="M155 105T172 81T190 15Q190 -46 157 -93T66 -166L47 -122Q88 -104 110 -73T134 -1Q131 -2 124 -2Q100 -2 84 12T68 52Q68 76 85 90T125 105Q155 105 172 81Z" />
<glyph unicode="-" glyph-name="hyphen" horiz-adv-x="308" d="M41 279H268V222H41V279Z" />
<glyph unicode="." glyph-name="period" horiz-adv-x="242" d="M98 -12T82 4T66 46Q66 72 82 88T121 105Q144 105 160 89T176 46Q176 21 160 5T121 -12Q98 -12 82 4Z" />
<glyph unicode="/" glyph-name="slash" horiz-adv-x="352" d="M287 710H341L64 -160H10L287 710Z" />
<glyph unicode="0" glyph-name="zero" horiz-adv-x="492" d="M151 -12T98 75T45 321Q45 480 98 565T246 650Q341 650 394 565T447 321Q447 162 394 75T246 -12Q151 -12 98 75ZM307 47T341 115T376 321Q376 458 342 524T246 591Q185 591 151 525T116 321Q116 184
150 116T246 47Q307 47 341 115Z" />
<glyph unicode="1" glyph-name="one" horiz-adv-x="451" d="M49 61H196V546H80V593Q161 607 213 638H269V61H402V0H49V61Z" />
<glyph unicode="2" glyph-name="two" horiz-adv-x="492" d="M40 43Q153 157 215 226T310 353T344 462Q344 520 312 555T218 590Q180 590 145 569T79 512L36 554Q78 600 124 625T227 650Q314 650 365 600T416 465Q416 407 384 346T298 223T147 58L171 59Q227 63
254 63H447V0H40V43Z" />
<glyph unicode="3" glyph-name="three" horiz-adv-x="492" d="M109 -12T27 78L64 126Q99 90 138 70T231 49Q292 49 330 82T368 172Q368 304 159 304V361Q257 361 301 395T345 485Q345 533 314 561T230 590Q154 590 91 524L51 571Q135 650 232 650Q315 650 367
608T419 490Q419 434 388 396T301 337V333Q363 319 402 276T442 170Q442 115 415 74T340 10T235 -12Q109 -12 27 78Z" />
<glyph unicode="4" glyph-name="four" horiz-adv-x="492" d="M463 180H374V0H305V180H17V227L296 638H374V238H463V180ZM305 238V436Q305 474 310 556H306Q286 520 275 503L254 468L95 238H305Z" />
<glyph unicode="5" glyph-name="five" horiz-adv-x="492" d="M163 -12T114 12T25 75L62 123Q96 89 134 69T226 49Q266 49 299 68T351 121T370 201Q370 269 332 308T230 347Q198 347 174 338T118 308L78 333L99 638H412V575H163L145 376Q170 390 194 397T247 404Q334
404 389 354T444 204Q444 138 415 89T337 14T232 -12Q163 -12 114 12Z" />
<glyph unicode="6" glyph-name="six" horiz-adv-x="492" d="M355 389T403 338T451 191Q451 132 426 86T359 14T266 -12Q202 -12 153 22T77 126T49 293Q49 417 82 497T169 613T290 650Q378 650 439 584L398 538Q378 562 351 575T292 589Q216 589 168 522T118 305Q149
344 190 366T271 389Q355 389 403 338ZM316 46T349 87T382 191Q382 258 351 295T259 333Q225 333 189 312T120 245Q128 149 165 98T267 46Q316 46 349 87Z" />
<glyph unicode="7" glyph-name="seven" horiz-adv-x="492" d="M188 184T230 313T366 575H44V638H450V594Q376 498 336 410T278 228T255 0H180Q188 184 230 313Z" />
<glyph unicode="8" glyph-name="eight" horiz-adv-x="492" d="M189 -12T142 10T68 73T41 163Q41 221 76 265T163 337V341Q73 404 73 488Q73 536 96 572T159 629T250 650Q332 650 380 603T429 481Q429 435 402 394T340 325V321Q392 290 421 253T451 158Q451 111
426 72T354 11T248 -12Q189 -12 142 10ZM365 407T365 478Q365 529 334 562T249 595Q202 595 172 566T141 488Q141 435 180 404T293 344Q365 407 365 478ZM308 43T344 75T381 159Q381 200 358 227T300 272T202 314Q159 287 133 250T107 169Q107 115 148 79T250 43Q308
43 344 75Z" />
<glyph unicode="9" glyph-name="nine" horiz-adv-x="492" d="M289 650T338 616T415 513T443 345Q443 221 410 141T323 25T202 -12Q112 -12 53 54L94 100Q114 76 141 63T199 49Q275 49 323 116T373 332Q342 293 302 271T221 249Q136 249 88 299T40 447Q40 505 65
551T132 624T225 650Q289 650 338 616ZM266 305T302 326T371 392Q364 488 327 540T225 592Q176 592 143 552T110 447Q110 380 141 343T233 305Q266 305 302 326Z" />
<glyph unicode=":" glyph-name="colon" horiz-adv-x="242" d="M98 354T82 370T66 412Q66 438 82 454T121 471Q144 471 160 455T176 412Q176 387 160 371T121 354Q98 354 82 370ZM98 -12T82 4T66 46Q66 72 82 88T121 105Q144 105 160 89T176 46Q176 21 160 5T121
-12Q98 -12 82 4Z" />
<glyph unicode=";" glyph-name="semicolon" horiz-adv-x="242" d="M98 354T82 370T66 412Q66 438 82 454T121 471Q144 471 160 455T176 412Q176 387 160 371T121 354Q98 354 82 370ZM155 105T172 81T190 15Q190 -46 157 -93T66 -166L47 -122Q88 -104 110 -73T134
-1Q131 -2 124 -2Q100 -2 84 12T68 52Q68 76 85 90T125 105Q155 105 172 81Z" />
<glyph unicode="&lt;" glyph-name="less" horiz-adv-x="492" d="M34 302V362L458 529V465L109 334V330L458 199V135L34 302Z" />
<glyph unicode="=" glyph-name="equal" horiz-adv-x="492" d="M34 464H458V408H34V464ZM34 508H458V452H34V508Z" />
<glyph unicode="&gt;" glyph-name="greater" horiz-adv-x="492" d="M34 199L384 330V334L34 465V529L458 362V302L34 135V199Z" />
<glyph unicode="?" glyph-name="question" horiz-adv-x="419" d="M158 214T158 222Q158 271 178 308T236 393Q268 431 283 459T299 519Q299 563 273 592T198 621Q165 621 135 606T80 562L38 601Q110 682 206 682Q281 682 326 639T371 524Q371 483 353 450T298
371Q262 327 243 293T224 215Q224 201 225 194H160Q158 214 158 222ZM172 -12T156 4T140 46Q140 72 156 88T195 105Q218 105 234 89T250 46Q250 21 234 5T195 -12Q172 -12 156 4Z" />
<glyph unicode="@" glyph-name="at" horiz-adv-x="839" d="M300 -153T221 -112T97 10T51 203Q51 332 107 432T258 588T463 643Q562 643 635 602T748 487T788 315Q788 233 759 173T684 82T592 51Q550 51 522 70T490 127H488Q462 96 431 77T367 58Q315 58 281 95T247
198Q247 251 271 305T338 393T438 428Q491 428 519 380H521L531 420H581L543 223Q535 189 535 168Q535 102 599 102Q631 102 662 127T714 201T735 312Q735 395 703 458T608 557T457 593Q367 593 286 545T156 408T106 206Q106 111 144 41T250 -66T404 -103Q490 -103
568 -57L588 -101Q503 -153 399 -153Q300 -153 221 -112ZM424 109T476 170L505 333Q490 357 475 366T438 376Q400 376 370 350T324 283T307 202Q307 154 326 132T379 109Q424 109 476 170Z" />
<glyph unicode="A" glyph-name="A" horiz-adv-x="539" d="M391 207H146L79 0H4L229 657H311L535 0H457L391 207ZM372 266L338 372Q298 497 270 595H266Q233 474 199 372L165 266H372Z" />
<glyph unicode="B" glyph-name="B" horiz-adv-x="585" d="M92 657H282Q387 657 446 618T506 496Q506 446 480 408T408 354V350Q471 338 507 298T544 192Q544 98 478 49T297 0H92V657ZM267 375Q433 375 433 487Q433 546 393 572T271 598H166V375H267ZM285 59Q375
59 423 92T471 194Q471 318 285 318H166V59H285Z" />
<glyph unicode="C" glyph-name="C" horiz-adv-x="569" d="M254 -12T190 29T89 147T52 328Q52 431 89 508T192 627T341 669Q396 669 442 646T519 589L478 540Q421 604 342 604Q278 604 230 571T156 476T129 330Q129 246 154 184T227 87T339 53Q385 53 422 72T495
129L536 83Q496 36 447 12T336 -12Q254 -12 190 29Z" />
<glyph unicode="D" glyph-name="D" horiz-adv-x="613" d="M92 657H253Q403 657 481 572T560 331Q560 175 482 88T256 0H92V657ZM247 61Q365 61 424 131T484 331Q484 458 425 527T247 596H166V61H247Z" />
<glyph unicode="E" glyph-name="E" horiz-adv-x="524" d="M92 657H465V594H166V377H418V315H166V63H475V0H92V657Z" />
<glyph unicode="F" glyph-name="F" horiz-adv-x="490" d="M92 657H465V594H166V362H419V300H166V0H92V657Z" />
<glyph unicode="G" glyph-name="G" horiz-adv-x="614" d="M259 -12T193 29T89 147T52 328Q52 432 90 509T196 627T351 669Q460 669 538 589L497 540Q437 604 353 604Q285 604 235 571T157 476T129 330Q129 202 188 128T352 53Q389 53 423 64T478 95V274H334V336H546V64Q513
29 461 9T345 -12Q259 -12 193 29Z" />
<glyph unicode="H" glyph-name="H" horiz-adv-x="648" d="M92 657H166V379H483V657H557V0H483V314H166V0H92V657Z" />
<glyph unicode="I" glyph-name="I" horiz-adv-x="257" d="M92 657H166V0H92V657Z" />
<glyph unicode="J" glyph-name="J" horiz-adv-x="475" d="M91 -12T34 91L87 128Q109 89 138 71T204 53Q259 53 285 87T312 197V657H386V190Q386 100 343 44T210 -12Q91 -12 34 91Z" />
<glyph unicode="K" glyph-name="K" horiz-adv-x="573" d="M92 657H166V318H168L453 657H537L330 408L568 0H485L284 351L166 212V0H92V657Z" />
<glyph unicode="L" glyph-name="L" horiz-adv-x="481" d="M92 657H166V63H456V0H92V657Z" />
<glyph unicode="M" glyph-name="M" horiz-adv-x="721" d="M92 657H183L312 297L360 158H364Q371 177 383 215Q399 263 411 297L538 657H630V0H561V380Q561 440 570 570H566L514 421L386 68H334L205 421L153 570H149L151 545Q159 439 159 380V0H92V657Z" />
<glyph unicode="N" glyph-name="N" horiz-adv-x="644" d="M92 657H168L416 231L488 96H492L489 140Q488 156 485 207T482 301V657H552V0H476L228 426L156 561H152L155 513Q162 426 162 360V0H92V657Z" />
<glyph unicode="O" glyph-name="O" horiz-adv-x="661" d="M249 -12T186 30T88 150T52 331Q52 434 87 510T186 628T331 669Q412 669 475 628T573 511T609 331Q609 228 574 150T475 30T331 -12Q249 -12 186 30ZM391 53T436 87T507 184T532 331Q532 414 507 475T437
570T331 604Q270 604 225 571T154 476T129 331Q129 247 154 184T225 87T331 53Q391 53 436 87Z" />
<glyph unicode="P" glyph-name="P" horiz-adv-x="562" d="M92 657H274Q391 657 454 613T518 466Q518 367 454 317T278 266H166V0H92V657ZM267 327Q358 327 401 360T444 466Q444 538 400 567T263 597H166V327H267Z" />
<glyph unicode="Q" glyph-name="Q" horiz-adv-x="661" d="M620 -149Q582 -163 530 -163Q444 -163 383 -121T293 -10Q222 -1 167 43T82 162T52 331Q52 434 87 510T186 628T331 669Q412 669 475 628T573 511T609 331Q609 237 580 164T497 47T374 -9Q395 -53 438
-76T537 -100Q571 -100 605 -90L620 -149ZM129 246T154 183T224 85T331 50Q391 50 436 84T507 182T532 331Q532 414 507 475T437 570T331 604Q270 604 225 571T154 476T129 331Q129 246 154 183Z" />
<glyph unicode="R" glyph-name="R" horiz-adv-x="563" d="M453 0L290 284H166V0H92V657H293Q519 657 519 475Q519 400 479 353T366 291L537 0H453ZM166 344H281Q361 344 403 377T445 475Q445 540 404 568T281 597H166V344Z" />
<glyph unicode="S" glyph-name="S" horiz-adv-x="530" d="M203 -12T145 14T43 86L88 137Q124 98 172 76T272 53Q339 53 377 84T416 167Q416 200 402 222T366 257T304 288L209 330Q151 355 114 394T76 498Q76 547 102 586T174 647T278 669Q335 669 384 647T469
588L429 541Q364 604 278 604Q220 604 185 576T150 502Q150 471 166 450T203 417T260 389L355 347Q420 320 455 280T491 172Q491 120 464 78T387 12T271 -12Q203 -12 145 14Z" />
<glyph unicode="T" glyph-name="T" horiz-adv-x="533" d="M230 594H28V657H505V594H304V0H230V594Z" />
<glyph unicode="U" glyph-name="U" horiz-adv-x="643" d="M215 -12T152 53T89 266V657H163V266Q163 152 206 103T321 53Q395 53 439 102T483 266V657H554V266Q554 119 491 54T321 -12Q215 -12 152 53Z" />
<glyph unicode="V" glyph-name="V" horiz-adv-x="509" d="M1 657H80L190 295Q206 238 213 217Q230 153 254 77H258Q269 110 304 229L323 295L433 657H508L298 0H213L1 657Z" />
<glyph unicode="W" glyph-name="W" horiz-adv-x="782" d="M24 657H101L173 292L213 79H217Q232 150 264 292L359 657H427L521 292Q533 238 540 211L570 79H574L585 138Q602 233 613 292L685 657H757L618 0H530L425 409Q421 428 418 443T412 469Q404 505 393 558H389L355
409L253 0H166L24 657Z" />
<glyph unicode="X" glyph-name="X" horiz-adv-x="505" d="M208 340L28 657H110L204 482L256 388H260Q285 441 307 482L399 657H477L297 336L490 0H408L307 183Q293 211 263 264Q261 268 258 274T250 288H246Q231 256 203 202L193 183L93 0H16L208 340Z" />
<glyph unicode="Y" glyph-name="Y" horiz-adv-x="468" d="M197 258L0 657H79L167 466L184 429Q224 342 233 324H237L254 359Q296 447 304 466L392 657H469L271 258V0H197V258Z" />
<glyph unicode="Z" glyph-name="Z" horiz-adv-x="539" d="M46 44L400 594H78V657H492V613L138 63H495V0H46V44Z" />
<glyph unicode="[" glyph-name="bracketleft" horiz-adv-x="297" d="M95 708H269V666H150V-110H269V-152H95V708Z" />
<glyph unicode="\" glyph-name="backslash" horiz-adv-x="352" d="M12 710H66L342 -160H288L12 710Z" />
<glyph unicode="]" glyph-name="bracketright" horiz-adv-x="297" d="M28 -110H147V666H28V708H202V-152H28V-110Z" />
<glyph unicode="^" glyph-name="asciicircum" horiz-adv-x="492" d="M213 670H279L431 285H367L248 601H244L195 468L126 285H61L213 670Z" />
<glyph unicode="_" glyph-name="underscore" horiz-adv-x="500" d="M12 -73H488V-124H12V-73Z" />
<glyph unicode="`" glyph-name="grave" horiz-adv-x="540" d="M134 726L186 774L326 610L288 573L134 726Z" />
<glyph unicode="a" glyph-name="a" horiz-adv-x="501" d="M133 -12T93 24T53 125Q53 204 125 246T355 306Q355 363 332 399T251 436Q182 436 104 383L75 433Q171 497 263 497Q347 497 387 445T427 300V0H367L361 59H358Q272 -12 195 -12Q133 -12 93 24ZM249 47T282
63T355 115V257Q230 242 178 211T125 129Q125 88 150 68T214 47Q249 47 282 63Z" />
<glyph unicode="b" glyph-name="b" horiz-adv-x="551" d="M259 -12T222 4T153 50H150L143 0H85V714H157V516L155 427Q236 497 311 497Q404 497 453 431T503 250Q503 170 474 111T397 20T293 -12Q259 -12 222 4ZM323 50T356 74T409 144T428 249Q428 336 396 385T294
435Q232 435 157 365V103Q189 76 221 63T281 50Q323 50 356 74Z" />
<glyph unicode="c" glyph-name="c" horiz-adv-x="454" d="M209 -12T158 18T77 106T47 242Q47 320 78 378T163 466T278 497Q357 497 419 439L381 391Q357 413 333 424T281 436Q236 436 200 412T144 343T123 242Q123 155 166 102T279 49Q342 49 397 99L429 50Q396
21 356 5T273 -12Q209 -12 158 18Z" />
<glyph unicode="d" glyph-name="d" horiz-adv-x="552" d="M156 -12T103 55T49 242Q49 318 78 376T155 465T260 497Q299 497 330 483T398 440L395 524V714H467V0H407L401 59H398Q367 27 329 8T248 -12Q156 -12 103 55ZM299 50T330 67T395 119V382Q363 410 333 422T271
435Q230 435 197 410T144 341T124 242Q124 152 160 101T264 50Q299 50 330 67Z" />
<glyph unicode="e" glyph-name="e" horiz-adv-x="492" d="M455 244T452 226H117Q122 141 169 94T286 47Q350 47 409 86L436 38Q400 15 362 2T277 -12Q213 -12 161 18T78 107T47 242Q47 318 77 376T158 465T264 497Q354 497 404 437T455 270Q455 244 452 226ZM390
279Q390 356 357 397T265 438Q211 438 169 397T119 279H390Z" />
<glyph unicode="f" glyph-name="f" horiz-adv-x="284" d="M169 666T169 568V485H274V425H169V0H96V425H30V480L96 485V569Q96 644 130 685T233 726Q272 726 311 710L295 654Q267 666 239 666Q169 666 169 568Z" />
<glyph unicode="g" glyph-name="g" horiz-adv-x="500" d="M156 -226T102 -191T47 -95Q47 -64 65 -35T118 17V21Q99 33 87 53T75 100Q75 128 90 151T128 190V194Q102 215 84 249T66 324Q66 375 90 414T155 475T245 497Q278 497 312 485H480V428H377Q396 410 408
382T420 323Q420 273 397 235T334 175T245 154Q205 154 171 171Q155 158 147 145T138 111Q138 85 157 71T224 56H321Q406 56 447 28T488 -59Q488 -103 458 -141T373 -203T247 -226Q156 -226 102 -191ZM290 204T321 237T353 324Q353 378 322 410T245 443Q199 443
168 411T136 324Q136 271 167 238T245 204Q290 204 321 237ZM303 -174T339 -160T396 -121T416 -69Q416 -35 391 -21T315 -6H226Q195 -6 164 2Q111 -35 111 -85Q111 -126 150 -150T257 -174Q303 -174 339 -160Z" />
<glyph unicode="h" glyph-name="h" horiz-adv-x="540" d="M85 714H157V516L155 414Q195 454 233 475T317 497Q393 497 429 450T465 308V0H392V299Q392 369 370 401T296 433Q260 433 229 415T157 355V0H85V714Z" />
<glyph unicode="i" glyph-name="i" horiz-adv-x="242" d="M85 485H157V0H85V485ZM100 589T86 603T72 640Q72 662 86 675T122 689Q144 689 158 676T172 640Q172 617 158 603T122 589Q100 589 86 603Z" />
<glyph unicode="j" glyph-name="j" horiz-adv-x="242" d="M100 589T86 603T72 640Q72 662 86 675T122 689Q144 689 158 676T172 640Q172 617 158 603T122 589Q100 589 86 603ZM88 485H160V-64Q160 -140 130 -180T33 -220Q-4 -220 -36 -208L-21 -152Q3 -160 26
-160Q61 -160 74 -136T87 -63L88 485Z" />
<glyph unicode="k" glyph-name="k" horiz-adv-x="487" d="M85 714H156V220H159L374 485H455L293 291L477 0H398L251 240L156 128V0H85V714Z" />
<glyph unicode="l" glyph-name="l" horiz-adv-x="250" d="M123 -12T104 13T85 89V714H157V83Q157 66 163 58T180 49Q188 49 198 51L208 -5Q189 -12 164 -12Q123 -12 104 13Z" />
<glyph unicode="m" glyph-name="m" horiz-adv-x="825" d="M85 485H145L151 413H154Q231 497 305 497Q408 497 439 403Q481 449 520 473T600 497Q747 497 747 308V0H674V299Q674 369 651 401T579 433Q522 433 452 355V0H379V299Q379 368 356 400T285 433Q228 433
157 355V0H85V485Z" />
<glyph unicode="n" glyph-name="n" horiz-adv-x="543" d="M85 485H145L151 413H154Q194 453 232 475T317 497Q393 497 429 450T465 308V0H392V299Q392 369 370 401T296 433Q260 433 229 415T157 355V0H85V485Z" />
<glyph unicode="o" glyph-name="o" horiz-adv-x="540" d="M210 -12T159 18T78 106T47 242Q47 320 77 378T159 466T270 497Q330 497 381 467T462 378T493 242Q493 164 463 107T381 19T270 -12Q210 -12 159 18ZM313 49T346 73T399 141T418 242Q418 299 399 343T347
411T270 436Q227 436 194 412T142 343T123 242Q123 155 164 102T270 49Q313 49 346 73Z" />
<glyph unicode="p" glyph-name="p" horiz-adv-x="552" d="M85 485H145L151 427H154Q239 497 311 497Q404 497 453 431T503 250Q503 170 474 111T397 20T293 -12Q228 -12 155 45L157 -41V-208H85V485ZM323 50T356 74T409 144T428 249Q428 336 396 385T294 435Q233
435 157 365V103Q190 75 222 63T281 50Q323 50 356 74Z" />
<glyph unicode="q" glyph-name="q" horiz-adv-x="552" d="M395 -32L398 58Q326 -12 248 -12Q156 -12 103 55T49 242Q49 318 78 376T155 465T260 497Q300 497 332 483T399 439H402L409 485H467V-208H395V-32ZM299 50T330 67T395 119V382Q363 410 333 422T271 435Q230
435 197 410T144 341T124 242Q124 152 160 101T264 50Q299 50 330 67Z" />
<glyph unicode="r" glyph-name="r" horiz-adv-x="340" d="M85 485H145L151 396H154Q179 443 215 470T292 497Q321 497 342 487L328 423Q302 431 282 431Q248 431 215 403T157 316V0H85V485Z" />
<glyph unicode="s" glyph-name="s" horiz-adv-x="416" d="M159 -12T112 6T29 55L66 104Q102 75 136 60T212 45Q260 45 286 68T312 126Q312 161 283 182T199 222Q130 247 91 276T52 361Q52 420 96 458T217 497Q258 497 296 482T364 443L329 396Q300 417 274 428T217
439Q171 439 147 418T123 365Q123 343 137 327T173 302T232 277Q283 258 312 243T362 201T383 130Q383 91 363 59T303 7T209 -12Q159 -12 112 6Z" />
<glyph unicode="t" glyph-name="t" horiz-adv-x="331" d="M160 -12T129 29T98 146V425H25V480L101 485L110 622H171V485H304V425H171V144Q171 96 188 72T248 48Q269 48 304 61L319 6Q265 -12 232 -12Q160 -12 129 29Z" />
<glyph unicode="u" glyph-name="u" horiz-adv-x="540" d="M150 -12T114 35T78 177V485H150V186Q150 116 173 84T247 51Q284 51 314 71T383 137V485H456V0H395L389 77H386Q349 34 311 11T225 -12Q150 -12 114 35Z" />
<glyph unicode="v" glyph-name="v" horiz-adv-x="459" d="M12 485H87L183 202L229 60H233L279 202L375 485H447L273 0H189L12 485Z" />
<glyph unicode="w" glyph-name="w" horiz-adv-x="710" d="M24 485H99L175 196L184 153Q198 93 204 62H208Q227 140 242 196L320 485H393L472 196L506 62H510L542 196L616 485H686L554 0H464L390 271L371 350Q369 358 357 410H353Q331 311 318 269L246 0H161L24 485Z" />
<glyph unicode="x" glyph-name="x" horiz-adv-x="436" d="M174 253L26 485H105L173 374Q205 320 222 294H226L271 374L334 485H410L263 246L422 0H343L268 118Q238 170 215 205H211Q195 179 177 147L160 118L90 0H14L174 253Z" />
<glyph unicode="y" glyph-name="y" horiz-adv-x="459" d="M56 -212T31 -202L45 -143Q65 -151 83 -151Q123 -151 151 -121T196 -40L208 -3L12 485H87L191 207L239 71H243Q257 113 272 163L285 207L376 485H447L263 -45Q235 -123 194 -167T86 -212Q56 -212 31 -202Z" />
<glyph unicode="z" glyph-name="z" horiz-adv-x="419" d="M30 39L293 425H59V485H385V446L122 60H394V0H30V39Z" />
<glyph unicode="{" glyph-name="braceleft" horiz-adv-x="297" d="M166 -152T139 -124T112 -20Q112 18 116 82Q120 142 120 176Q120 210 101 232T34 255V301Q81 302 100 324T120 379Q120 413 116 475Q112 539 112 576Q112 651 139 679T227 708H269V666H242Q201
666 186 644T171 571Q171 529 174 485Q174 472 175 442T177 387Q177 339 164 314T119 280V276Q150 267 163 242T177 169Q177 144 176 114T174 71Q171 28 171 -15Q171 -66 186 -88T242 -110H269V-152H227Q166 -152 139 -124Z" />
<glyph unicode="|" glyph-name="bar" horiz-adv-x="237" d="M92 750H145V-250H92V750Z" />
<glyph unicode="}" glyph-name="braceright" horiz-adv-x="297" d="M28 -110H55Q96 -110 111 -88T126 -15Q126 28 123 71Q123 84 122 114T120 169Q120 216 133 241T178 276V280Q147 289 134 314T120 387Q120 412 121 442T123 485Q126 529 126 571Q126 622 111
644T55 666H28V708H70Q131 708 158 680T185 576Q185 539 181 475Q177 413 177 379Q177 346 196 324T263 301V255Q216 254 197 232T177 176Q177 142 181 82Q185 18 185 -20Q185 -95 158 -123T70 -152H28V-110Z" />
<glyph unicode="~" glyph-name="asciitilde" horiz-adv-x="492" d="M306 259T283 271T231 307Q208 326 191 335T156 345Q112 345 79 284L37 312Q62 357 93 379T158 401Q186 401 208 389T262 353Q286 334 302 325T336 315Q382 315 413 376L455 346Q430 302 399
281T334 259Q306 259 283 271Z" />
<glyph unicode="&#xa0;" glyph-name="uni00A0" horiz-adv-x="202" />
<glyph unicode="&#xa1;" glyph-name="exclamdown" horiz-adv-x="282" d="M118 380T102 396T86 439Q86 464 102 480T141 497Q164 497 180 481T196 439Q196 413 180 397T141 380Q118 380 102 396ZM106 -98L116 291H166L176 -98L178 -185H104L106 -98Z" />
<glyph unicode="&#xa2;" glyph-name="cent" horiz-adv-x="492" d="M420 108T384 92T308 73V-31H260V74Q169 84 115 146T61 310Q61 410 116 471T260 545V653H308V548Q383 544 439 490L403 444Q358 484 308 487V133Q365 137 417 182L450 135Q420 108 384 92ZM134
240T167 195T260 137V483Q202 470 168 424T134 310Q134 240 167 195Z" />
<glyph unicode="&#xa3;" glyph-name="sterling" horiz-adv-x="492" d="M447 63V0H54V44Q105 72 132 121T160 228Q160 254 153 287H53V335L120 338H139Q137 346 129 374T116 426T111 470Q111 553 161 601T293 650Q385 650 445 576L402 534Q357 589 297 589Q243
589 213 556T183 468Q183 443 188 418T204 358Q205 353 209 338H369V287H220Q226 259 226 227Q226 174 211 137T162 67V63H447Z" />
<glyph unicode="&#xa4;" glyph-name="currency" horiz-adv-x="492" d="M28 146L92 212Q55 262 55 329Q55 396 91 447L28 513L67 554L134 485Q157 504 186 514T246 524Q277 524 306 514T358 485L425 554L465 513L400 447Q437 397 437 329Q437 262 400 212L465 146L425
105L358 174Q335 155 306 145T246 135Q184 135 134 174L67 105L28 146ZM297 190T333 229T369 329Q369 369 353 401T308 451T246 469Q213 469 185 451T140 401T123 329Q123 268 159 229T246 190Q297 190 333 229Z" />
<glyph unicode="&#xa5;" glyph-name="yen" horiz-adv-x="492" d="M209 160H47V204H209V271H47V314H190L25 638H101L183 461L245 326H249Q258 344 264 358T276 384Q300 437 312 461L394 638H468L301 314H446V271H282V204H446V160H282V0H209V160Z" />
<glyph unicode="&#xa6;" glyph-name="brokenbar" horiz-adv-x="237" d="M145 585V117V-79H92V380V585H145Z" />
<glyph unicode="&#xa7;" glyph-name="section" horiz-adv-x="492" d="M446 239T424 209T361 155Q391 120 391 73Q391 15 347 -23T235 -61Q183 -61 140 -43T65 8L110 49Q136 23 166 10T235 -4Q276 -4 300 17T324 69Q324 105 296 126T208 173Q156 195 124 214T70
265T47 345Q47 387 70 420T133 475Q101 509 101 557Q101 609 139 646T248 684Q329 684 399 627L363 580Q336 602 310 614T251 626Q209 626 189 607T168 560Q168 527 195 506T282 459Q335 436 367 417T423 365T446 284Q446 239 424 209ZM351 206T366 225T382 278Q382
310 365 333T321 370T250 405Q196 429 176 441Q144 424 128 403T111 350Q111 319 128 297T171 261T241 227Q291 206 317 190Q351 206 366 225Z" />
<glyph unicode="&#xa8;" glyph-name="dieresis" horiz-adv-x="540" d="M156 590T143 603T129 636Q129 656 142 669T176 683Q196 683 209 670T222 636Q222 617 209 604T176 590Q156 590 143 603ZM345 590T332 603T318 636Q318 656 331 669T364 683Q384 683 397
670T411 636Q411 616 398 603T364 590Q345 590 332 603Z" />
<glyph unicode="&#xa9;" glyph-name="copyright" horiz-adv-x="744" d="M285 -11T211 30T94 148T50 323Q50 422 93 497T210 612T372 653Q459 653 533 612T650 496T694 323Q694 224 651 148T533 31T372 -11Q285 -11 211 30ZM448 28T511 65T612 169T650 323Q650
409 613 475T512 578T372 615Q296 615 232 579T131 476T93 323Q93 237 130 170T232 65T372 28Q448 28 511 65ZM329 125T288 149T223 217T199 323Q199 379 224 422T291 488T382 511Q421 511 450 497T506 455L474 419Q452 441 432 451T385 461Q329 461 294 423T259
323Q259 255 292 216T381 176Q412 176 437 187T487 221L514 182Q483 154 452 140T379 125Q329 125 288 149Z" />
<glyph unicode="&#xaa;" glyph-name="ordfeminine" horiz-adv-x="343" d="M92 389T66 414T39 483Q39 535 86 563T239 602Q238 639 224 659T175 680Q150 680 123 670T72 645L51 684Q122 726 183 726Q294 726 294 595V397H250L243 435H239Q187 389 136 389Q92 389
66 414ZM196 435T239 477V566Q161 557 128 538T94 487Q94 435 153 435Q196 435 239 477Z" />
<glyph unicode="&#xab;" glyph-name="guillemotleft" horiz-adv-x="422" d="M44 224V280L181 437L214 409L95 252L214 94L181 67L44 224ZM198 224V280L335 437L368 409L249 252L368 94L335 67L198 224Z" />
<glyph unicode="&#xac;" glyph-name="logicalnot" horiz-adv-x="492" d="M399 302H34V358H458V105H399V302Z" />
<glyph unicode="&#xad;" glyph-name="uni00AD" horiz-adv-x="308" d="M41 279H268V222H41V279Z" />
<glyph unicode="&#xae;" glyph-name="registered" horiz-adv-x="418" d="M158 321T115 345T47 414T22 516Q22 573 47 618T115 688T209 713Q260 713 302 688T370 618T395 516Q395 459 370 415T303 346T209 321Q158 321 115 345ZM251 355T285 375T338 432T358 516Q358
563 339 600T285 658T209 679Q167 679 133 658T80 600T60 516Q60 469 79 433T133 376T209 355Q251 355 285 375ZM137 621H212Q246 621 267 606T289 557Q289 538 279 523T251 501L298 417H255L218 489H176V417H137V621ZM202 520Q224 520 236 528T248 554Q248 589
205 589H176V520H202Z" />
<glyph unicode="&#xaf;" glyph-name="overscore" horiz-adv-x="540" d="M140 654H400V602H140V654Z" />
<glyph unicode="&#xb0;" glyph-name="degree" horiz-adv-x="326" d="M112 434T77 468T41 558Q41 615 76 650T163 685Q214 685 250 650T286 558Q286 503 250 469T163 434Q112 434 77 468ZM197 476T218 499T240 558Q240 595 219 618T163 642Q129 642 108 619T87
558Q87 522 108 499T163 476Q197 476 218 499Z" />
<glyph unicode="&#xb1;" glyph-name="plusminus" horiz-adv-x="492" d="M216 305H34V361H216V555H276V361H458V305H276V122H216V305ZM34 56H458V0H34V56Z" />
<glyph unicode="&#xb4;" glyph-name="acute" horiz-adv-x="540" d="M214 610L354 774L406 726L252 573L214 610Z" />
<glyph unicode="&#xb6;" glyph-name="paragraph" horiz-adv-x="548" d="M177 231T109 284T41 445Q41 555 105 606T280 657H324V231H292Q177 231 109 284ZM378 657H452V-80H378V657Z" />
<glyph unicode="&#xb7;" glyph-name="middot" horiz-adv-x="242" d="M98 264T82 280T66 322Q66 348 82 364T121 381Q144 381 160 365T176 322Q176 297 160 281T121 264Q98 264 82 280Z" />
<glyph unicode="&#xb8;" glyph-name="cedilla" horiz-adv-x="540" d="M178 -186Q239 -182 263 -171T288 -136Q288 -116 270 -105T210 -88L253 3H302L273 -64Q309 -73 327 -89T345 -135Q345 -216 186 -224L178 -186Z" />
<glyph unicode="&#xba;" glyph-name="ordmasculine" horiz-adv-x="363" d="M140 389T106 409T51 468T30 558Q30 610 50 648T105 706T181 726Q223 726 257 706T311 648T332 558Q332 507 312 469T257 410T181 389Q140 389 106 409ZM224 436T249 469T274 558Q274
613 249 646T181 680Q138 680 113 647T88 558Q88 503 113 470T181 436Q224 436 249 469Z" />
<glyph unicode="&#xbb;" glyph-name="guillemotright" horiz-adv-x="422" d="M54 94L173 252L54 409L87 437L223 280V224L87 67L54 94ZM208 94L327 252L208 409L241 437L377 280V224L241 67L208 94Z" />
<glyph unicode="&#xbc;" glyph-name="onequarter" horiz-adv-x="789" d="M159 279V591H75V629Q106 635 127 644T169 669H217V279H159ZM600 669L237 -12H186L549 669H600ZM754 107H696V0H643V107H466V136L633 390H696V149H754V107ZM643 149V224L648 331H644L592
249L527 149H643Z" />
<glyph unicode="&#xbd;" glyph-name="onehalf" horiz-adv-x="803" d="M159 591H75V629Q106 635 127 644T169 669H217V279H159V591ZM532 669H583L220 -12H169L532 669ZM490 34Q594 128 635 177T677 268Q677 307 656 330T599 353Q575 353 553 337T513 295L478 327Q501
361 534 381T606 402Q665 402 699 370T734 276Q734 240 716 206T670 141T583 49H754V0H490V34Z" />
<glyph unicode="&#xbe;" glyph-name="threequarters" horiz-adv-x="803" d="M316 330T277 299T180 267Q135 267 98 288T37 343L76 373Q95 345 121 329T177 313Q211 313 234 333T258 386Q258 421 226 439T133 458V496Q184 496 213 517T243 570Q243 599 223 617T169
635Q148 635 127 622T88 586L53 617Q107 681 177 681Q229 681 265 653T301 577Q301 543 282 519T230 480Q267 471 291 446T316 383Q316 330 277 299ZM635 669L272 -12H221L584 669H635ZM768 107H710V0H657V107H480V136L647 390H710V149H768V107ZM657 149V224L662
331H658L606 249L541 149H657Z" />
<glyph unicode="&#xbf;" glyph-name="questiondown" horiz-adv-x="419" d="M201 380T185 396T169 439Q169 464 185 480T224 497Q247 497 263 481T279 439Q279 413 263 397T224 380Q201 380 185 396ZM138 -197T93 -154T48 -40Q48 2 66 35T121 114Q158 160 176 193T195
270Q195 284 194 291H259Q261 271 261 263Q261 214 241 176T183 93Q151 52 136 25T120 -35Q120 -79 146 -107T221 -136Q254 -136 284 -121T339 -78L381 -116Q309 -197 213 -197Q138 -197 93 -154Z" />
<glyph unicode="&#xc0;" glyph-name="Agrave" horiz-adv-x="539" d="M391 207H146L79 0H4L229 657H311L535 0H457L391 207ZM372 266L338 372Q298 497 270 595H266Q233 474 199 372L165 266H372ZM139 814L181 863L318 736L286 699L139 814Z" />
<glyph unicode="&#xc1;" glyph-name="Aacute" horiz-adv-x="539" d="M391 207H146L79 0H4L229 657H311L535 0H457L391 207ZM372 266L338 372Q298 497 270 595H266Q233 474 199 372L165 266H372ZM218 736L355 863L397 814L250 699L218 736Z" />
<glyph unicode="&#xc2;" glyph-name="Acircumflex" horiz-adv-x="539" d="M391 207H146L79 0H4L229 657H311L535 0H457L391 207ZM372 266L338 372Q298 497 270 595H266Q233 474 199 372L165 266H372ZM124 725L230 838H306L412 725L380 701L270 795H266L156 701L124 725Z" />
<glyph unicode="&#xc3;" glyph-name="Atilde" horiz-adv-x="539" d="M391 207H146L79 0H4L229 657H311L535 0H457L391 207ZM372 266L338 372Q298 497 270 595H266Q233 474 199 372L165 266H372ZM316 711T296 722T252 753Q235 769 222 776T194 784Q174 784 161
766T144 716L94 719Q96 774 122 806T192 839Q220 839 240 828T284 797Q301 781 314 774T342 766Q362 766 375 784T392 835L442 831Q440 776 414 744T344 711Q316 711 296 722Z" />
<glyph unicode="&#xc4;" glyph-name="Adieresis" horiz-adv-x="539" d="M391 207H146L79 0H4L229 657H311L535 0H457L391 207ZM372 266L338 372Q298 497 270 595H266Q233 474 199 372L165 266H372ZM147 718T134 730T121 764Q121 784 134 796T167 809Q187 809 199
797T212 764Q212 743 200 731T167 718Q147 718 134 730ZM349 718T337 730T324 764Q324 784 336 796T369 809Q389 809 402 797T415 764Q415 743 402 731T369 718Q349 718 337 730Z" />
<glyph unicode="&#xc5;" glyph-name="Aring" horiz-adv-x="539" d="M391 207H146L79 0H4L229 657H311L535 0H457L391 207ZM372 266L338 372Q298 497 270 595H266Q233 474 199 372L165 266H372ZM226 699T200 724T173 788Q173 829 199 853T268 878Q309 878 336 853T363
788Q363 749 336 724T268 699Q226 699 200 724ZM290 733T305 747T320 788Q320 813 305 828T268 844Q245 844 230 829T215 788Q215 762 230 748T268 733Q290 733 305 747Z" />
<glyph unicode="&#xc6;" glyph-name="AE" horiz-adv-x="819" d="M771 63V0H404V198H193L89 0H12L361 657H761V594H478V377H713V315H478V63H771ZM404 257V598H400L355 510L288 379L224 257H404Z" />
<glyph unicode="&#xc7;" glyph-name="Ccedilla" horiz-adv-x="569" d="M254 -12T190 29T89 147T52 328Q52 431 89 508T192 627T341 669Q396 669 442 646T519 589L478 540Q421 604 342 604Q278 604 230 571T156 476T129 330Q129 246 154 184T227 87T339 53Q385
53 422 72T495 129L536 83Q496 36 447 12T336 -12Q254 -12 190 29Z" />
<glyph unicode="&#xc8;" glyph-name="Egrave" horiz-adv-x="524" d="M92 657H465V594H166V377H418V315H166V63H475V0H92V657ZM155 814L197 863L334 736L302 699L155 814Z" />
<glyph unicode="&#xc9;" glyph-name="Eacute" horiz-adv-x="524" d="M92 657H465V594H166V377H418V315H166V63H475V0H92V657ZM234 736L371 863L413 814L266 699L234 736Z" />
<glyph unicode="&#xca;" glyph-name="Ecircumflex" horiz-adv-x="524" d="M92 657H465V594H166V377H418V315H166V63H475V0H92V657ZM140 725L246 838H322L428 725L396 701L286 795H282L172 701L140 725Z" />
<glyph unicode="&#xcb;" glyph-name="Edieresis" horiz-adv-x="524" d="M92 657H465V594H166V377H418V315H166V63H475V0H92V657ZM163 718T150 730T137 764Q137 784 150 796T183 809Q203 809 215 797T228 764Q228 743 216 731T183 718Q163 718 150 730ZM365 718T353
730T340 764Q340 784 352 796T385 809Q405 809 418 797T431 764Q431 743 418 731T385 718Q365 718 353 730Z" />
<glyph unicode="&#xcc;" glyph-name="Igrave" horiz-adv-x="257" d="M92 657H166V0H92V657ZM0 814L42 863L179 736L147 699L0 814Z" />
<glyph unicode="&#xcd;" glyph-name="Iacute" horiz-adv-x="257" d="M92 657H166V0H92V657ZM79 736L216 863L258 814L111 699L79 736Z" />
<glyph unicode="&#xce;" glyph-name="Icircumflex" horiz-adv-x="257" d="M92 657H166V0H92V657ZM-15 725L91 838H167L273 725L241 701L131 795H127L17 701L-15 725Z" />
<glyph unicode="&#xcf;" glyph-name="Idieresis" horiz-adv-x="257" d="M92 657H166V0H92V657ZM8 718T-5 730T-18 764Q-18 784 -5 796T28 809Q48 809 60 797T73 764Q73 743 61 731T28 718Q8 718 -5 730ZM210 718T198 730T185 764Q185 784 197 796T230 809Q250
809 263 797T276 764Q276 743 263 731T230 718Q210 718 198 730Z" />
<glyph unicode="&#xd0;" glyph-name="Eth" horiz-adv-x="634" d="M425 657T503 572T582 331Q582 175 504 88T278 0H114V323H34V364L114 367V657H275Q425 657 503 572ZM387 61T446 131T506 331Q506 458 447 527T269 596H188V367H340V323H188V61H269Q387 61 446 131Z" />
<glyph unicode="&#xd1;" glyph-name="Ntilde" horiz-adv-x="644" d="M92 657H168L416 231L488 96H492L489 140Q488 156 485 207T482 301V657H552V0H476L228 426L156 561H152L155 513Q162 426 162 360V0H92V657ZM374 711T354 722T310 753Q293 769 280 776T252 784Q232
784 219 766T202 716L152 719Q154 774 180 806T250 839Q278 839 298 828T342 797Q359 781 372 774T400 766Q420 766 433 784T450 835L500 831Q498 776 472 744T402 711Q374 711 354 722Z" />
<glyph unicode="&#xd2;" glyph-name="Ograve" horiz-adv-x="661" d="M249 -12T186 30T88 150T52 331Q52 434 87 510T186 628T331 669Q412 669 475 628T573 511T609 331Q609 228 574 150T475 30T331 -12Q249 -12 186 30ZM391 53T436 87T507 184T532 331Q532 414
507 475T437 570T331 604Q270 604 225 571T154 476T129 331Q129 247 154 184T225 87T331 53Q391 53 436 87ZM202 814L244 863L381 736L349 699L202 814Z" />
<glyph unicode="&#xd3;" glyph-name="Oacute" horiz-adv-x="661" d="M249 -12T186 30T88 150T52 331Q52 434 87 510T186 628T331 669Q412 669 475 628T573 511T609 331Q609 228 574 150T475 30T331 -12Q249 -12 186 30ZM391 53T436 87T507 184T532 331Q532 414
507 475T437 570T331 604Q270 604 225 571T154 476T129 331Q129 247 154 184T225 87T331 53Q391 53 436 87ZM281 736L418 863L460 814L313 699L281 736Z" />
<glyph unicode="&#xd4;" glyph-name="Ocircumflex" horiz-adv-x="661" d="M249 -12T186 30T88 150T52 331Q52 434 87 510T186 628T331 669Q412 669 475 628T573 511T609 331Q609 228 574 150T475 30T331 -12Q249 -12 186 30ZM391 53T436 87T507 184T532 331Q532
414 507 475T437 570T331 604Q270 604 225 571T154 476T129 331Q129 247 154 184T225 87T331 53Q391 53 436 87ZM187 725L293 838H369L475 725L443 701L333 795H329L219 701L187 725Z" />
<glyph unicode="&#xd5;" glyph-name="Otilde" horiz-adv-x="661" d="M249 -12T186 30T88 150T52 331Q52 434 87 510T186 628T331 669Q412 669 475 628T573 511T609 331Q609 228 574 150T475 30T331 -12Q249 -12 186 30ZM391 53T436 87T507 184T532 331Q532 414
507 475T437 570T331 604Q270 604 225 571T154 476T129 331Q129 247 154 184T225 87T331 53Q391 53 436 87ZM379 711T359 722T315 753Q298 769 285 776T257 784Q237 784 224 766T207 716L157 719Q159 774 185 806T255 839Q283 839 303 828T347 797Q364 781 377
774T405 766Q425 766 438 784T455 835L505 831Q503 776 477 744T407 711Q379 711 359 722Z" />
<glyph unicode="&#xd6;" glyph-name="Odieresis" horiz-adv-x="661" d="M249 -12T186 30T88 150T52 331Q52 434 87 510T186 628T331 669Q412 669 475 628T573 511T609 331Q609 228 574 150T475 30T331 -12Q249 -12 186 30ZM391 53T436 87T507 184T532 331Q532
414 507 475T437 570T331 604Q270 604 225 571T154 476T129 331Q129 247 154 184T225 87T331 53Q391 53 436 87ZM210 718T197 730T184 764Q184 784 197 796T230 809Q250 809 262 797T275 764Q275 743 263 731T230 718Q210 718 197 730ZM412 718T400 730T387 764Q387
784 399 796T432 809Q452 809 465 797T478 764Q478 743 465 731T432 718Q412 718 400 730Z" />
<glyph unicode="&#xd7;" glyph-name="multiply" horiz-adv-x="492" d="M51 169L207 330L51 490L90 531L246 369L402 531L442 490L286 330L442 169L402 128L246 290L90 128L51 169Z" />
<glyph unicode="&#xd8;" glyph-name="Oslash" horiz-adv-x="661" d="M545 564Q578 521 595 462T612 331Q612 228 577 150T478 30T334 -12Q230 -12 157 56L93 -28L51 4L121 96Q55 189 55 331Q55 434 90 510T189 628T334 669Q438 669 509 604L571 685L613 653L545
564ZM132 229T169 158L466 547Q414 604 334 604Q273 604 228 571T157 476T132 331Q132 229 169 158ZM535 433T498 502L200 112Q253 53 334 53Q394 53 439 87T510 184T535 331Q535 433 498 502Z" />
<glyph unicode="&#xd9;" glyph-name="Ugrave" horiz-adv-x="643" d="M215 -12T152 53T89 266V657H163V266Q163 152 206 103T321 53Q395 53 439 102T483 266V657H554V266Q554 119 491 54T321 -12Q215 -12 152 53ZM192 814L234 863L371 736L339 699L192 814Z" />
<glyph unicode="&#xda;" glyph-name="Uacute" horiz-adv-x="643" d="M215 -12T152 53T89 266V657H163V266Q163 152 206 103T321 53Q395 53 439 102T483 266V657H554V266Q554 119 491 54T321 -12Q215 -12 152 53ZM271 736L408 863L450 814L303 699L271 736Z" />
<glyph unicode="&#xdb;" glyph-name="Ucircumflex" horiz-adv-x="643" d="M215 -12T152 53T89 266V657H163V266Q163 152 206 103T321 53Q395 53 439 102T483 266V657H554V266Q554 119 491 54T321 -12Q215 -12 152 53ZM177 725L283 838H359L465 725L433 701L323
795H319L209 701L177 725Z" />
<glyph unicode="&#xdc;" glyph-name="Udieresis" horiz-adv-x="643" d="M215 -12T152 53T89 266V657H163V266Q163 152 206 103T321 53Q395 53 439 102T483 266V657H554V266Q554 119 491 54T321 -12Q215 -12 152 53ZM200 718T187 730T174 764Q174 784 187 796T220
809Q240 809 252 797T265 764Q265 743 253 731T220 718Q200 718 187 730ZM402 718T390 730T377 764Q377 784 389 796T422 809Q442 809 455 797T468 764Q468 743 455 731T422 718Q402 718 390 730Z" />
<glyph unicode="&#xdd;" glyph-name="Yacute" horiz-adv-x="468" d="M197 258L0 657H79L167 466L184 429Q224 342 233 324H237L254 359Q296 447 304 466L392 657H469L271 258V0H197V258ZM184 736L321 863L363 814L216 699L184 736Z" />
<glyph unicode="&#xde;" glyph-name="Thorn" horiz-adv-x="578" d="M92 657H166V545H288Q403 545 465 501T528 354Q528 255 464 205T288 154H166V0H92V657ZM277 214Q368 214 411 248T454 354Q454 426 412 455T277 484H166V214H277Z" />
<glyph unicode="&#xdf;" glyph-name="germandbls" horiz-adv-x="567" d="M307 -12T242 38L272 89Q300 67 325 56T380 45Q422 45 445 70T469 130Q469 158 456 177T425 208T374 239Q340 257 319 271T284 309T269 366Q269 397 281 420T316 474Q338 503 349 524T360
574Q360 614 338 639T273 664Q218 664 188 624T157 504V0H85V519Q85 613 135 668T274 724Q347 724 389 683T431 581Q431 544 418 518T379 459Q358 434 348 415T338 374Q338 345 357 328T420 287Q458 267 481 251T521 206T538 134Q538 71 495 30T382 -12Q307 -12
242 38Z" />
<glyph unicode="&#xe0;" glyph-name="agrave" horiz-adv-x="501" d="M133 -12T93 24T53 125Q53 204 125 246T355 306Q355 363 332 399T251 436Q182 436 104 383L75 433Q171 497 263 497Q347 497 387 445T427 300V0H367L361 59H358Q272 -12 195 -12Q133 -12 93
24ZM249 47T282 63T355 115V257Q230 242 178 211T125 129Q125 88 150 68T214 47Q249 47 282 63ZM133 726L185 774L325 610L287 573L133 726Z" />
<glyph unicode="&#xe1;" glyph-name="aacute" horiz-adv-x="501" d="M133 -12T93 24T53 125Q53 204 125 246T355 306Q355 363 332 399T251 436Q182 436 104 383L75 433Q171 497 263 497Q347 497 387 445T427 300V0H367L361 59H358Q272 -12 195 -12Q133 -12 93
24ZM249 47T282 63T355 115V257Q230 242 178 211T125 129Q125 88 150 68T214 47Q249 47 282 63ZM213 610L353 774L405 726L251 573L213 610Z" />
<glyph unicode="&#xe2;" glyph-name="acircumflex" horiz-adv-x="501" d="M133 -12T93 24T53 125Q53 204 125 246T355 306Q355 363 332 399T251 436Q182 436 104 383L75 433Q171 497 263 497Q347 497 387 445T427 300V0H367L361 59H358Q272 -12 195 -12Q133 -12
93 24ZM249 47T282 63T355 115V257Q230 242 178 211T125 129Q125 88 150 68T214 47Q249 47 282 63ZM118 598L233 739H305L420 598L388 569L271 685H267L150 569L118 598Z" />
<glyph unicode="&#xe3;" glyph-name="atilde" horiz-adv-x="501" d="M133 -12T93 24T53 125Q53 204 125 246T355 306Q355 363 332 399T251 436Q182 436 104 383L75 433Q171 497 263 497Q347 497 387 445T427 300V0H367L361 59H358Q272 -12 195 -12Q133 -12 93
24ZM249 47T282 63T355 115V257Q230 242 178 211T125 129Q125 88 150 68T214 47Q249 47 282 63ZM316 578T297 590T254 627Q235 646 223 655T196 664Q153 664 148 582L98 585Q101 646 124 682T197 718Q223 718 242 705T284 668Q301 650 314 641T342 631Q364 631
376 653T390 714L440 710Q437 650 414 614T342 578Q316 578 297 590Z" />
<glyph unicode="&#xe4;" glyph-name="adieresis" horiz-adv-x="501" d="M133 -12T93 24T53 125Q53 204 125 246T355 306Q355 363 332 399T251 436Q182 436 104 383L75 433Q171 497 263 497Q347 497 387 445T427 300V0H367L361 59H358Q272 -12 195 -12Q133 -12
93 24ZM249 47T282 63T355 115V257Q230 242 178 211T125 129Q125 88 150 68T214 47Q249 47 282 63ZM155 590T142 603T128 636Q128 656 141 669T175 683Q195 683 208 670T221 636Q221 617 208 604T175 590Q155 590 142 603ZM344 590T331 603T317 636Q317 656 330
669T363 683Q383 683 396 670T410 636Q410 616 397 603T363 590Q344 590 331 603Z" />
<glyph unicode="&#xe5;" glyph-name="aring" horiz-adv-x="501" d="M133 -12T93 24T53 125Q53 204 125 246T355 306Q355 363 332 399T251 436Q182 436 104 383L75 433Q171 497 263 497Q347 497 387 445T427 300V0H367L361 59H358Q272 -12 195 -12Q133 -12 93 24ZM249
47T282 63T355 115V257Q230 242 178 211T125 129Q125 88 150 68T214 47Q249 47 282 63ZM221 553T192 580T163 650Q163 693 192 720T269 748Q317 748 346 721T375 650Q375 607 346 580T269 553Q221 553 192 580ZM294 587T311 604T328 650Q328 679 311 696T269 714Q244
714 227 697T210 650Q210 622 227 605T269 587Q294 587 311 604Z" />
<glyph unicode="&#xe6;" glyph-name="ae" horiz-adv-x="785" d="M140 -12T100 24T60 124Q60 203 131 246T357 306Q357 436 254 436Q189 436 111 383L82 433Q178 497 262 497Q316 497 351 469T402 389Q430 440 472 468T563 497Q650 497 698 436T747 269Q747 244
744 226H425Q426 174 446 134T502 71T581 48Q615 48 643 58T701 89L728 38Q691 14 655 1T572 -12Q516 -12 475 13T401 81Q353 36 301 12T202 -12Q140 -12 100 24ZM682 275Q682 354 651 396T562 438Q508 438 470 393T425 275H682ZM257 47T299 68T376 126Q357 169
357 232L356 257Q237 242 185 211T132 129Q132 88 157 68T221 47Q257 47 299 68Z" />
<glyph unicode="&#xe7;" glyph-name="ccedilla" horiz-adv-x="454" d="M309 -73T327 -89T345 -135Q345 -216 186 -224L178 -186Q239 -182 263 -171T288 -136Q288 -116 270 -105T210 -88L247 -11Q189 -5 144 27T73 114T47 242Q47 320 78 378T163 466T278 497Q357
497 419 439L381 391Q357 413 333 424T281 436Q236 436 200 412T144 343T123 242Q123 155 166 102T279 49Q342 49 397 99L429 50Q371 -2 296 -11L273 -64Q309 -73 327 -89Z" />
<glyph unicode="&#xe8;" glyph-name="egrave" horiz-adv-x="492" d="M455 244T452 226H117Q122 141 169 94T286 47Q350 47 409 86L436 38Q400 15 362 2T277 -12Q213 -12 161 18T78 107T47 242Q47 318 77 376T158 465T264 497Q354 497 404 437T455 270Q455 244
452 226ZM390 279Q390 356 357 397T265 438Q211 438 169 397T119 279H390ZM130 726L182 774L322 610L284 573L130 726Z" />
<glyph unicode="&#xe9;" glyph-name="eacute" horiz-adv-x="492" d="M455 244T452 226H117Q122 141 169 94T286 47Q350 47 409 86L436 38Q400 15 362 2T277 -12Q213 -12 161 18T78 107T47 242Q47 318 77 376T158 465T264 497Q354 497 404 437T455 270Q455 244
452 226ZM390 279Q390 356 357 397T265 438Q211 438 169 397T119 279H390ZM210 610L350 774L402 726L248 573L210 610Z" />
<glyph unicode="&#xea;" glyph-name="ecircumflex" horiz-adv-x="492" d="M455 244T452 226H117Q122 141 169 94T286 47Q350 47 409 86L436 38Q400 15 362 2T277 -12Q213 -12 161 18T78 107T47 242Q47 318 77 376T158 465T264 497Q354 497 404 437T455 270Q455
244 452 226ZM390 279Q390 356 357 397T265 438Q211 438 169 397T119 279H390ZM115 598L230 739H302L417 598L385 569L268 685H264L147 569L115 598Z" />
<glyph unicode="&#xeb;" glyph-name="edieresis" horiz-adv-x="492" d="M455 244T452 226H117Q122 141 169 94T286 47Q350 47 409 86L436 38Q400 15 362 2T277 -12Q213 -12 161 18T78 107T47 242Q47 318 77 376T158 465T264 497Q354 497 404 437T455 270Q455 244
452 226ZM390 279Q390 356 357 397T265 438Q211 438 169 397T119 279H390ZM152 590T139 603T125 636Q125 656 138 669T172 683Q192 683 205 670T218 636Q218 617 205 604T172 590Q152 590 139 603ZM341 590T328 603T314 636Q314 656 327 669T360 683Q380 683 393
670T407 636Q407 616 394 603T360 590Q341 590 328 603Z" />
<glyph unicode="&#xec;" glyph-name="igrave" horiz-adv-x="242" d="M85 485H157V0H85V485ZM-14 726L38 774L178 610L140 573L-14 726Z" />
<glyph unicode="&#xed;" glyph-name="iacute" horiz-adv-x="242" d="M85 485H157V0H85V485ZM66 610L206 774L258 726L104 573L66 610Z" />
<glyph unicode="&#xee;" glyph-name="icircumflex" horiz-adv-x="242" d="M85 485H157V0H85V485ZM-29 598L86 739H158L273 598L241 569L124 685H120L3 569L-29 598Z" />
<glyph unicode="&#xef;" glyph-name="idieresis" horiz-adv-x="242" d="M85 485H157V0H85V485ZM8 590T-5 603T-19 636Q-19 656 -6 669T28 683Q48 683 61 670T74 636Q74 617 61 604T28 590Q8 590 -5 603ZM197 590T184 603T170 636Q170 656 183 669T216 683Q236
683 249 670T263 636Q263 616 250 603T216 590Q197 590 184 603Z" />
<glyph unicode="&#xf0;" glyph-name="eth" horiz-adv-x="542" d="M481 468T481 256Q481 176 455 116T380 22T268 -12Q212 -12 163 16T85 98T55 222Q55 288 81 338T155 417T261 445Q301 445 336 429T397 379Q372 495 289 577L148 504L127 541L255 607Q207 645 140
682L174 729Q257 684 312 637L454 710L475 672L346 606Q481 468 481 256ZM339 49T374 104T410 253Q410 274 408 312Q377 355 343 371T271 388Q202 388 163 342T124 222Q124 171 144 132T197 71T270 49Q339 49 374 104Z" />
<glyph unicode="&#xf1;" glyph-name="ntilde" horiz-adv-x="543" d="M85 485H145L151 413H154Q194 453 232 475T317 497Q393 497 429 450T465 308V0H392V299Q392 369 370 401T296 433Q260 433 229 415T157 355V0H85V485ZM338 578T319 590T276 627Q257 646 245
655T218 664Q175 664 170 582L120 585Q123 646 146 682T219 718Q245 718 264 705T306 668Q323 650 336 641T364 631Q386 631 398 653T412 714L462 710Q459 650 436 614T364 578Q338 578 319 590Z" />
<glyph unicode="&#xf2;" glyph-name="ograve" horiz-adv-x="540" d="M210 -12T159 18T78 106T47 242Q47 320 77 378T159 466T270 497Q330 497 381 467T462 378T493 242Q493 164 463 107T381 19T270 -12Q210 -12 159 18ZM313 49T346 73T399 141T418 242Q418 299
399 343T347 411T270 436Q227 436 194 412T142 343T123 242Q123 155 164 102T270 49Q313 49 346 73ZM134 726L186 774L326 610L288 573L134 726Z" />
<glyph unicode="&#xf3;" glyph-name="oacute" horiz-adv-x="540" d="M210 -12T159 18T78 106T47 242Q47 320 77 378T159 466T270 497Q330 497 381 467T462 378T493 242Q493 164 463 107T381 19T270 -12Q210 -12 159 18ZM313 49T346 73T399 141T418 242Q418 299
399 343T347 411T270 436Q227 436 194 412T142 343T123 242Q123 155 164 102T270 49Q313 49 346 73ZM214 610L354 774L406 726L252 573L214 610Z" />
<glyph unicode="&#xf4;" glyph-name="ocircumflex" horiz-adv-x="540" d="M210 -12T159 18T78 106T47 242Q47 320 77 378T159 466T270 497Q330 497 381 467T462 378T493 242Q493 164 463 107T381 19T270 -12Q210 -12 159 18ZM313 49T346 73T399 141T418 242Q418
299 399 343T347 411T270 436Q227 436 194 412T142 343T123 242Q123 155 164 102T270 49Q313 49 346 73ZM119 598L234 739H306L421 598L389 569L272 685H268L151 569L119 598Z" />
<glyph unicode="&#xf5;" glyph-name="otilde" horiz-adv-x="540" d="M210 -12T159 18T78 106T47 242Q47 320 77 378T159 466T270 497Q330 497 381 467T462 378T493 242Q493 164 463 107T381 19T270 -12Q210 -12 159 18ZM313 49T346 73T399 141T418 242Q418 299
399 343T347 411T270 436Q227 436 194 412T142 343T123 242Q123 155 164 102T270 49Q313 49 346 73ZM317 578T298 590T255 627Q236 646 224 655T197 664Q154 664 149 582L99 585Q102 646 125 682T198 718Q224 718 243 705T285 668Q302 650 315 641T343 631Q365
631 377 653T391 714L441 710Q438 650 415 614T343 578Q317 578 298 590Z" />
<glyph unicode="&#xf6;" glyph-name="odieresis" horiz-adv-x="540" d="M210 -12T159 18T78 106T47 242Q47 320 77 378T159 466T270 497Q330 497 381 467T462 378T493 242Q493 164 463 107T381 19T270 -12Q210 -12 159 18ZM313 49T346 73T399 141T418 242Q418
299 399 343T347 411T270 436Q227 436 194 412T142 343T123 242Q123 155 164 102T270 49Q313 49 346 73ZM156 590T143 603T129 636Q129 656 142 669T176 683Q196 683 209 670T222 636Q222 617 209 604T176 590Q156 590 143 603ZM345 590T332 603T318 636Q318 656
331 669T364 683Q384 683 397 670T411 636Q411 616 398 603T364 590Q345 590 332 603Z" />
<glyph unicode="&#xf7;" glyph-name="divide" horiz-adv-x="492" d="M225 459T211 473T196 510Q196 532 210 546T246 560Q267 560 281 546T296 510Q296 488 282 474T246 459Q225 459 211 473ZM34 358H458V302H34V358ZM225 99T211 113T196 150Q196 172 210 186T246
200Q267 200 281 186T296 150Q296 128 282 114T246 99Q225 99 211 113Z" />
<glyph unicode="&#xf8;" glyph-name="oslash" horiz-adv-x="540" d="M439 414Q493 346 493 242Q493 164 463 107T381 19T270 -12Q232 -12 196 1T131 39L80 -23L46 4L101 70Q47 140 47 242Q47 320 77 378T159 466T270 497Q308 497 344 484T409 446L460 507L494
480L439 414ZM120 173T146 126L368 395Q328 437 270 437Q227 437 193 413T140 345T120 245Q120 173 146 126ZM421 308T394 359L172 89Q212 47 270 47Q313 47 347 71T401 139T421 239Q421 308 394 359Z" />
<glyph unicode="&#xf9;" glyph-name="ugrave" horiz-adv-x="540" d="M150 -12T114 35T78 177V485H150V186Q150 116 173 84T247 51Q284 51 314 71T383 137V485H456V0H395L389 77H386Q349 34 311 11T225 -12Q150 -12 114 35ZM137 726L189 774L329 610L291 573L137 726Z" />
<glyph unicode="&#xfa;" glyph-name="uacute" horiz-adv-x="540" d="M150 -12T114 35T78 177V485H150V186Q150 116 173 84T247 51Q284 51 314 71T383 137V485H456V0H395L389 77H386Q349 34 311 11T225 -12Q150 -12 114 35ZM217 610L357 774L409 726L255 573L217 610Z" />
<glyph unicode="&#xfb;" glyph-name="ucircumflex" horiz-adv-x="540" d="M150 -12T114 35T78 177V485H150V186Q150 116 173 84T247 51Q284 51 314 71T383 137V485H456V0H395L389 77H386Q349 34 311 11T225 -12Q150 -12 114 35ZM122 598L237 739H309L424 598L392
569L275 685H271L154 569L122 598Z" />
<glyph unicode="&#xfc;" glyph-name="udieresis" horiz-adv-x="540" d="M150 -12T114 35T78 177V485H150V186Q150 116 173 84T247 51Q284 51 314 71T383 137V485H456V0H395L389 77H386Q349 34 311 11T225 -12Q150 -12 114 35ZM159 590T146 603T132 636Q132 656
145 669T179 683Q199 683 212 670T225 636Q225 617 212 604T179 590Q159 590 146 603ZM348 590T335 603T321 636Q321 656 334 669T367 683Q387 683 400 670T414 636Q414 616 401 603T367 590Q348 590 335 603Z" />
<glyph unicode="&#xfd;" glyph-name="yacute" horiz-adv-x="459" d="M56 -212T31 -202L45 -143Q65 -151 83 -151Q123 -151 151 -121T196 -40L208 -3L12 485H87L191 207L239 71H243Q257 113 272 163L285 207L376 485H447L263 -45Q235 -123 194 -167T86 -212Q56
-212 31 -202ZM185 610L325 774L377 726L223 573L185 610Z" />
<glyph unicode="&#xfe;" glyph-name="thorn" horiz-adv-x="552" d="M85 714H157V517L156 432Q238 497 308 497Q402 497 452 431T503 250Q503 170 474 111T397 20T293 -12Q227 -12 156 43L157 -41V-208H85V714ZM323 50T356 74T409 144T428 249Q428 336 396 385T294
435Q233 435 157 365V103Q190 75 222 63T281 50Q323 50 356 74Z" />
<glyph unicode="&#xff;" glyph-name="ydieresis" horiz-adv-x="459" d="M56 -212T31 -202L45 -143Q65 -151 83 -151Q123 -151 151 -121T196 -40L208 -3L12 485H87L191 207L239 71H243Q257 113 272 163L285 207L376 485H447L263 -45Q235 -123 194 -167T86 -212Q56
-212 31 -202ZM127 590T114 603T100 636Q100 656 113 669T147 683Q167 683 180 670T193 636Q193 617 180 604T147 590Q127 590 114 603ZM316 590T303 603T289 636Q289 656 302 669T335 683Q355 683 368 670T382 636Q382 616 369 603T335 590Q316 590 303 603Z"
/>
<glyph unicode="&#x2013;" glyph-name="endash" horiz-adv-x="480" d="M41 277H439V225H41V277Z" />
<glyph unicode="&#x2014;" glyph-name="emdash" horiz-adv-x="800" d="M41 277H759V225H41V277Z" />
<glyph unicode="&#x2018;" glyph-name="quoteleft" horiz-adv-x="242" d="M136 540T150 528T165 493Q165 469 151 455T115 441Q88 441 73 463T57 526Q57 637 158 698L180 663Q142 636 125 608T107 539Q109 540 115 540Q136 540 150 528Z" />
<glyph unicode="&#x2019;" glyph-name="quoteright" horiz-adv-x="242" d="M154 699T169 677T185 614Q185 502 83 442L61 477Q100 504 117 532T135 601Q132 600 126 600Q106 600 92 613T77 647Q77 671 90 685T126 699Q154 699 169 677Z" />
<glyph unicode="&#x201a;" glyph-name="quotesinglbase" horiz-adv-x="242" d="M154 115T169 93T185 30Q185 -82 83 -142L61 -107Q100 -80 117 -52T135 17Q132 16 126 16Q106 16 92 29T77 63Q77 87 90 101T126 115Q154 115 169 93Z" />
<glyph unicode="&#x201c;" glyph-name="quotedblleft" horiz-adv-x="409" d="M136 540T150 528T165 493Q165 469 151 455T115 441Q88 441 73 463T57 526Q57 637 158 698L180 663Q142 636 125 608T107 539Q109 540 115 540Q136 540 150 528ZM304 540T318 528T333
493Q333 469 319 455T283 441Q256 441 241 463T225 526Q225 637 326 698L348 663Q310 636 293 608T275 539Q277 540 283 540Q304 540 318 528Z" />
<glyph unicode="&#x201d;" glyph-name="quotedblright" horiz-adv-x="409" d="M154 699T169 677T185 614Q185 502 83 442L61 477Q100 504 117 532T135 601Q132 600 126 600Q106 600 92 613T77 647Q77 671 90 685T126 699Q154 699 169 677ZM322 699T337 677T353
614Q353 502 251 442L229 477Q268 504 285 532T303 601Q300 600 294 600Q274 600 260 613T245 647Q245 671 258 685T294 699Q322 699 337 677Z" />
<glyph unicode="&#x201e;" glyph-name="quotedblbase" horiz-adv-x="409" d="M154 115T169 93T185 30Q185 -82 83 -142L61 -107Q100 -80 117 -52T135 17Q132 16 126 16Q106 16 92 29T77 63Q77 87 90 101T126 115Q154 115 169 93ZM322 115T337 93T353 30Q353 -82
251 -142L229 -107Q268 -80 285 -52T303 17Q300 16 294 16Q274 16 260 29T245 63Q245 87 258 101T294 115Q322 115 337 93Z" />
<glyph unicode="&#x2022;" glyph-name="bullet" horiz-adv-x="298" d="M105 145T73 178T40 263Q40 315 72 348T149 381Q194 381 226 348T258 263Q258 212 226 179T149 145Q105 145 73 178Z" />
<glyph unicode="&#x2039;" glyph-name="guilsinglleft" horiz-adv-x="268" d="M44 224V280L181 437L214 409L95 252L214 94L181 67L44 224Z" />
<glyph unicode="&#x203a;" glyph-name="guilsinglright" horiz-adv-x="268" d="M54 94L173 252L54 409L87 437L223 280V224L87 67L54 94Z" />
</font>
</defs>
</svg>
