<?xml version="1.0" standalone="no"?>
<!DOCTYPE svg PUBLIC "-//W3C//DTD SVG 1.1//EN" "http://www.w3.org/Graphics/SVG/1.1/DTD/svg11.dtd">
<svg xmlns="http://www.w3.org/2000/svg">
<defs >
<font id="JosefinSans" horiz-adv-x="591" ><font-face
    font-family="Josefin Sans SemiBold"
    units-per-em="1000"
    panose-1="0 0 7 0 0 0 0 0 0 0"
    ascent="750"
    descent="-250"
    alphabetic="0" />
<glyph unicode=" " glyph-name="space" horiz-adv-x="320" />
<glyph unicode="!" glyph-name="exclam" horiz-adv-x="202" d="M149 762V192H49V762H149ZM72 -3T53 13T33 57Q33 83 53 101T102 119Q131 119 150 101T169 57Q169 30 151 14T102 -3Q72 -3 53 13Z" />
<glyph unicode="&quot;" glyph-name="quotedbl" horiz-adv-x="350" d="M159 479H64V731H163L159 479ZM294 479H199V731H298L294 479Z" />
<glyph unicode="#" glyph-name="numbersign" horiz-adv-x="580" d="M263 597Q259 559 246 466H332L336 498Q344 556 355 653H457L450 597Q446 559 433 466H529L520 369H423Q415 306 412 280H508Q500 211 497 182H400Q397 147 386 63L379 0H278Q282 35 292 119L299
182H214Q212 164 206 120Q196 40 193 0H90L112 182H24L28 216Q34 258 36 280H124L135 369H47L58 466H145L169 653H270L263 597ZM233 343T225 280H311L321 369H236Q233 343 225 280Z" />
<glyph unicode="$" glyph-name="dollar" horiz-adv-x="567" d="M529 147T504 102T431 28T318 -7V-68H249V-6Q192 -1 139 18T42 69L94 160Q126 136 167 119T249 97V332Q171 363 125 407T78 530Q78 614 132 667T277 731V795H346V730Q441 721 526 669L482 580Q408
619 346 627V417L348 416Q402 397 440 373T504 306T529 200Q529 147 504 102ZM198 487T277 447V625Q240 618 219 596T198 539Q198 487 277 447ZM358 108T383 133T408 199Q408 234 385 259T318 304V100Q358 108 383 133Z" />
<glyph unicode="%" glyph-name="percent" horiz-adv-x="792" d="M238 -2L128 0L571 635H683L238 -2ZM129 278T91 327T52 456Q52 536 90 585T201 634Q273 634 312 585T351 456Q351 375 312 327T201 278Q129 278 91 327ZM150 357T201 357Q252 357 252 456Q252 506
240 530T201 554Q174 554 162 531T150 456Q150 357 201 357ZM521 -21T483 28T444 158Q444 238 482 287T594 336Q666 336 705 287T744 158Q744 78 705 29T594 -21Q521 -21 483 28ZM542 111T555 85T594 58Q645 58 645 158Q645 208 633 232T594 256Q567 256 555 232T542
158Q542 111 555 85Z" />
<glyph unicode="&amp;" glyph-name="ampersand" horiz-adv-x="731" d="M555 0L497 77Q465 37 414 13T294 -11Q226 -11 171 17T84 96T52 208Q52 284 105 342T237 423L217 450Q162 531 162 592Q162 634 183 673T246 736T345 760Q405 760 455 736T539 673L481 596Q447
628 419 645T364 662Q326 662 304 639T282 582Q282 553 298 527T315 499L484 274L545 434H652L553 182L690 0H555ZM396 93T436 158L298 343Q246 338 210 301T173 214Q173 161 212 127T310 93Q396 93 436 158Z" />
<glyph unicode="&apos;" glyph-name="quotesingle" horiz-adv-x="169" d="M133 479H37V731H137L133 479Z" />
<glyph unicode="(" glyph-name="parenleft" horiz-adv-x="405" d="M91 438T139 560T258 757L348 711Q285 638 247 532T208 295Q208 164 246 59T348 -120L258 -167Q187 -92 139 30T91 295Q91 438 139 560Z" />
<glyph unicode=")" glyph-name="parenright" horiz-adv-x="406" d="M321 152T273 30T154 -167L64 -120Q127 -47 165 58T204 295Q204 426 166 531T64 710L154 757Q224 683 272 561T321 295Q321 152 273 30Z" />
<glyph unicode="*" glyph-name="asterisk" horiz-adv-x="335" d="M63 475L28 536L73 560Q77 563 101 576L29 619Q39 638 61 676L135 633V720H204L203 633L278 675L300 637L311 618L273 597Q261 589 235 575L309 533L294 507L274 473Q269 476 262 480T246 489L201
516L200 434H135V517L63 475Z" />
<glyph unicode="+" glyph-name="plus" horiz-adv-x="552" d="M321 417V283H453V185H321V52H219V185H88V283H219V417H321Z" />
<glyph unicode="," glyph-name="comma" horiz-adv-x="204" d="M87 -122H-3L23 -52Q68 69 75 88H175L87 -122Z" />
<glyph unicode="-" glyph-name="hyphen" horiz-adv-x="305" d="M241 270V172H54V270H241Z" />
<glyph unicode="." glyph-name="period" horiz-adv-x="170" d="M26 86T44 104T87 122Q109 122 127 104T146 61Q146 35 128 18T87 0Q63 0 45 17T26 61Q26 86 44 104Z" />
<glyph unicode="/" glyph-name="slash" horiz-adv-x="399" d="M248 331T118 -19H17Q65 109 159 365L300 748H401Q248 331 118 -19Z" />
<glyph unicode="0" glyph-name="zero" horiz-adv-x="625" d="M233 -3T170 36T71 152T35 333Q35 503 109 585T313 667Q393 668 456 629T554 514T590 333Q590 225 554 150T456 36T313 -2Q233 -3 170 36ZM391 109T430 170T469 336Q469 437 430 496T312 555Q234 556
195 496T156 333Q156 231 195 170T312 109Q391 109 430 170Z" />
<glyph unicode="1" glyph-name="one" horiz-adv-x="335" d="M235 660V0H118V548H52V660H235Z" />
<glyph unicode="2" glyph-name="two" horiz-adv-x="560" d="M514 112V0H54L90 36Q189 135 245 197T339 323T377 444Q377 498 344 527T262 556Q209 556 180 526T151 459Q151 397 190 356L119 291Q83 311 61 362T38 456Q38 511 67 560T151 638T282 668Q345 668 394
639T471 560T498 454Q498 397 472 341T410 237T307 112H514Z" />
<glyph unicode="3" glyph-name="three" horiz-adv-x="525" d="M374 410T418 362T463 220Q463 151 431 100T346 20T228 -8Q179 -8 129 12T48 65L107 161Q126 138 158 121T225 104Q274 104 308 137T343 227Q343 278 313 308T230 339Q204 339 187 336T149 327L146
330L277 548H93V660H445L304 418Q374 410 418 362Z" />
<glyph unicode="4" glyph-name="four" horiz-adv-x="543" d="M506 242V153H423V0H306V153H12V154L422 668H423V242H506ZM306 242V401L184 242H306Z" />
<glyph unicode="5" glyph-name="five" horiz-adv-x="521" d="M320 438T367 408T440 329T465 219Q465 156 436 104T357 22T244 -8Q190 -8 138 12T55 63L116 155Q135 133 168 119T234 104Q282 104 313 134T345 215Q345 271 314 305T226 340Q194 340 165 331T100
302H99V660H420V548H199V432Q226 438 254 438Q320 438 367 408Z" />
<glyph unicode="6" glyph-name="six" horiz-adv-x="551" d="M368 428T413 401T487 325T515 216Q515 149 482 98T395 20T279 -8Q210 -8 155 25T67 120T35 266Q35 382 118 485T331 671L409 586Q325 548 268 493T184 379Q235 428 318 428Q368 428 413 401ZM326 96T360
129T394 216Q394 268 360 299T274 330Q224 330 189 301T154 230V210Q154 180 170 154T213 112T274 96Q326 96 360 129Z" />
<glyph unicode="7" glyph-name="seven" horiz-adv-x="495" d="M472 660L215 0H85L303 548H35V660H472Z" />
<glyph unicode="8" glyph-name="eight" horiz-adv-x="527" d="M23 280T59 326T146 398Q116 422 100 448T84 516Q84 559 107 594T172 648T263 668Q313 668 354 649T420 596T444 521Q444 477 428 450T380 398Q431 371 467 325T504 211Q504 153 472 103T385 23T262
-8Q195 -8 140 22T54 102T23 211Q23 280 59 326ZM197 476T218 457T266 437Q293 437 313 456T333 502Q333 531 313 551T266 571Q238 571 218 551T197 502Q197 476 218 457ZM142 182T158 153T202 107T262 90Q295 90 324 107T370 153T388 215Q388 267 352 303T265
340Q233 340 205 324T159 278T142 215Q142 182 158 153Z" />
<glyph unicode="9" glyph-name="nine" horiz-adv-x="541" d="M339 661T394 630T482 545T515 423Q515 324 469 245T355 107T187 -15L109 70Q188 107 249 152T345 243Q300 212 231 212Q181 212 136 239T63 315T35 423Q35 495 68 549T155 632T271 661Q339 661 394
630ZM155 377T189 344T275 310Q326 310 360 341T395 419V439Q394 488 360 522T275 557Q224 557 190 523T155 432Q155 377 189 344Z" />
<glyph unicode=":" glyph-name="colon" horiz-adv-x="178" d="M26 363T44 381T87 399Q109 399 127 381T146 338Q146 312 128 295T87 277Q63 277 45 294T26 338Q26 363 44 381ZM26 86T44 104T87 122Q109 122 127 104T146 61Q146 35 128 18T87 0Q63 0 45 17T26 61Q26
86 44 104Z" />
<glyph unicode=";" glyph-name="semicolon" horiz-adv-x="204" d="M60 340T78 358T120 376Q143 376 161 358T179 314Q179 288 161 271T120 254Q96 254 78 271T60 314Q60 340 78 358ZM73 -122H-18L27 -4Q45 46 61 88H160L73 -122Z" />
<glyph unicode="&lt;" glyph-name="less" horiz-adv-x="583" d="M264 241L492 107V-14L49 241L492 497V375L264 241Z" />
<glyph unicode="=" glyph-name="equal" horiz-adv-x="719" d="M615 400V302H102V400H615ZM615 203V105H102V203H615Z" />
<glyph unicode="&gt;" glyph-name="greater" horiz-adv-x="576" d="M317 242L88 376V497L531 242L88 -14V108L317 242Z" />
<glyph unicode="?" glyph-name="question" horiz-adv-x="461" d="M157 249Q157 295 169 326T197 376T244 423Q282 455 300 481T318 546Q318 586 290 613T225 640Q181 640 152 613T107 541L15 584Q25 617 52 654T125 717T236 744Q325 743 381 695T437 556Q437 509
424 476T393 421T341 369Q316 346 302 329T278 286T269 223V190H157V249ZM184 -3T165 13T145 57Q145 83 164 101T214 119Q243 119 262 101T281 57Q281 30 262 14T214 -3Q184 -3 165 13Z" />
<glyph unicode="@" glyph-name="at" horiz-adv-x="1041" d="M726 659T815 612T952 483T999 300Q999 218 967 147T876 34T744 -8Q700 -8 668 14T624 76Q592 40 544 15T447 -11Q392 -11 349 12T281 80T256 184Q256 255 287 314T374 407T501 442Q561 442 595 421T650
361L667 423H773L736 156Q735 150 735 138Q735 94 772 94Q802 94 830 121T877 195T895 300Q895 375 860 436T755 534T587 571Q423 571 324 502T184 341T143 172Q143 69 184 0T298 -102T463 -135Q520 -135 576 -117T683 -67L729 -132Q672 -176 595 -199T446 -222Q333
-222 242 -179T96 -47T42 168Q42 283 101 396T286 584T603 659Q726 659 815 612ZM536 81T569 104T622 171L635 263Q629 302 597 326T519 350Q480 350 447 329T394 274T375 200Q375 149 407 115T491 81Q536 81 569 104Z" />
<glyph unicode="A" glyph-name="A" horiz-adv-x="699" d="M474 171H209L139 0H24L346 758H353L675 0H541L474 171ZM435 271L344 501L250 271H435Z" />
<glyph unicode="B" glyph-name="B" horiz-adv-x="630" d="M506 355T540 311T575 209Q575 103 504 52T327 0H100V728H299Q413 728 476 682T539 545Q539 488 515 447T445 380Q506 355 540 311ZM217 418H318Q368 418 393 447T419 520Q419 568 389 592T304 616H217V418ZM381
108T418 133T455 208Q455 260 415 283T314 306H217V108H322Q381 108 418 133Z" />
<glyph unicode="C" glyph-name="C" horiz-adv-x="695" d="M608 34T552 13T428 -8Q315 -8 231 41T101 174T55 358Q55 467 100 553T227 687T413 736Q477 736 531 719T628 676L582 567Q501 624 417 624Q353 624 298 590T209 496T176 365Q176 290 206 231T293 138T424
104Q477 104 519 120T591 161L640 57Q608 34 552 13Z" />
<glyph unicode="D" glyph-name="D" horiz-adv-x="761" d="M100 728H307Q444 728 533 674T664 535T705 354Q705 248 656 168T523 44T342 0H100V728ZM321 112Q399 112 458 141T551 226T585 362Q585 448 549 505T456 590T339 617H217V112H321Z" />
<glyph unicode="E" glyph-name="E" horiz-adv-x="658" d="M583 728V616H217V422H543V310H217V112H597V0H100V728H583Z" />
<glyph unicode="F" glyph-name="F" horiz-adv-x="593" d="M542 728V616H217V411H500V300H217V0H100V728H542Z" />
<glyph unicode="G" glyph-name="G" horiz-adv-x="756" d="M649 39T575 16T438 -8Q323 -8 236 38T102 164T55 347Q55 470 105 558T241 691T429 736Q492 736 548 722T648 683L610 575Q580 593 531 606T444 619Q319 619 247 550T175 357Q175 283 208 227T302 139T441
108Q476 108 508 114T562 133V254H425V366H679V67Q649 39 575 16Z" />
<glyph unicode="H" glyph-name="H" horiz-adv-x="792" d="M692 0H575V310H217V0H100V728H217V421H575V728H692V0Z" />
<glyph unicode="I" glyph-name="I" horiz-adv-x="317" d="M217 728V0H100V728H217Z" />
<glyph unicode="J" glyph-name="J" horiz-adv-x="379" d="M279 52T244 -13T147 -113T4 -151V-38Q77 -34 119 10T162 144V728H279V141Q279 52 244 -13Z" />
<glyph unicode="K" glyph-name="K" horiz-adv-x="689" d="M215 412L231 435L505 728H655L354 410L666 0H518L269 336L218 286V0H100V728H218V449L215 412Z" />
<glyph unicode="L" glyph-name="L" horiz-adv-x="630" d="M217 728V112H576V0H100V728H217Z" />
<glyph unicode="M" glyph-name="M" horiz-adv-x="935" d="M835 754V0H719V421L464 59H462L213 404V0H100V754H101L464 240L833 754H835Z" />
<glyph unicode="N" glyph-name="N" horiz-adv-x="844" d="M743 728V-26H740L215 483L218 0H100V753H106L629 238L627 728H743Z" />
<glyph unicode="O" glyph-name="O" horiz-adv-x="855" d="M55 463T105 548T240 685T427 736Q527 736 612 685T749 548T800 363Q800 262 750 177T613 42T427 -8Q326 -8 241 41T105 176T55 363Q55 463 105 548ZM175 292T209 233T301 139T430 104Q499 104 556 138T646
232T680 363Q680 434 646 494T554 589T427 624Q357 624 300 589T209 494T175 363Q175 292 209 233Z" />
<glyph unicode="P" glyph-name="P" horiz-adv-x="611" d="M430 728T500 666T570 494Q570 431 545 377T465 288T322 253H217V0H100V728H306Q430 728 500 666ZM370 365T399 385T441 435T454 492Q454 538 425 577T325 616H217V365H322Q370 365 399 385Z" />
<glyph unicode="Q" glyph-name="Q" horiz-adv-x="890" d="M834 0H504Q464 -8 427 -8Q326 -8 241 41T105 176T55 363Q55 463 105 548T240 685T427 736Q527 736 612 685T749 548T800 363Q800 292 775 229T703 114H834V0ZM175 293T209 234T301 140T430 105Q499 105
556 139T646 233T680 363Q680 433 646 492T554 586T427 621Q357 621 300 586T209 492T175 363Q175 293 209 234Z" />
<glyph unicode="R" glyph-name="R" horiz-adv-x="670" d="M498 0L334 253H322H217V0H100V728H305Q427 728 500 666T574 494Q574 427 546 370T456 281L633 0H498ZM217 365H321Q391 365 422 403T454 490Q454 518 442 546T401 595T325 616H217V365Z" />
<glyph unicode="S" glyph-name="S" horiz-adv-x="582" d="M388 629T315 629Q261 629 230 605T198 539Q198 498 237 471T348 416Q402 397 440 373T504 306T529 200Q529 142 500 95T416 20T286 -8Q220 -8 156 12T42 69L94 160Q131 132 181 114T275 95Q328 95 368
120T408 199Q408 241 375 269T281 320Q219 343 178 365T108 428T78 530Q78 619 138 673T298 732Q370 732 424 716T526 669L482 580Q388 629 315 629Z" />
<glyph unicode="T" glyph-name="T" horiz-adv-x="583" d="M535 728V616H347V0H231V616H48V728H535Z" />
<glyph unicode="U" glyph-name="U" horiz-adv-x="741" d="M205 220T227 184T287 127T370 105Q417 105 455 126T516 183T538 262V728H653V259Q653 181 616 121T513 26T370 -8Q292 -8 228 26T126 120T89 259V728H205V262Q205 220 227 184Z" />
<glyph unicode="V" glyph-name="V" horiz-adv-x="726" d="M689 728L363 -34L37 728H176L368 250L552 728H689Z" />
<glyph unicode="W" glyph-name="W" horiz-adv-x="1014" d="M693 -32L521 402L328 -34L37 724H173L343 238L464 548L394 724H509L696 252L852 724H977L693 -32Z" />
<glyph unicode="X" glyph-name="X" horiz-adv-x="694" d="M513 0L334 275L174 0H30L269 375L40 728H188L359 465L513 728H654L423 368L663 0H513Z" />
<glyph unicode="Y" glyph-name="Y" horiz-adv-x="704" d="M681 728L408 236V0H292V236L23 728H166L354 369L538 728H681Z" />
<glyph unicode="Z" glyph-name="Z" horiz-adv-x="716" d="M663 112V0H48Q59 16 242 295Q394 530 452 616H182Q149 616 122 635T94 682V765H202V751Q202 734 207 731T233 728H657L248 112H663Z" />
<glyph unicode="[" glyph-name="bracketleft" horiz-adv-x="367" d="M319 758V653H217V-48H319V-151H100V758H319Z" />
<glyph unicode="\" glyph-name="backslash" horiz-adv-x="406" d="M392 -19H279Q149 331 -4 748H110L392 -19Z" />
<glyph unicode="]" glyph-name="bracketright" horiz-adv-x="367" d="M48 -151V-47H150V654H48V758H267V-151H48Z" />
<glyph unicode="^" glyph-name="asciicircum" horiz-adv-x="477" d="M235 556L183 487H114L235 670L358 487H288L235 556Z" />
<glyph unicode="_" glyph-name="underscore" horiz-adv-x="609" d="M508 97V0H102V97H508Z" />
<glyph unicode="`" glyph-name="grave" horiz-adv-x="291" d="M145 621L213 487H143L20 621H145Z" />
<glyph unicode="a" glyph-name="a" horiz-adv-x="598" d="M520 423V0H408V61Q385 34 346 12T255 -11Q194 -11 146 14T70 90T42 211Q42 280 71 332T148 413T255 442Q358 442 409 366L417 423H520ZM332 81T363 104T408 171V263Q396 302 362 326T282 350Q229 350
192 313T155 217Q155 179 173 148T221 99T286 81Q332 81 363 104Z" />
<glyph unicode="b" glyph-name="b" horiz-adv-x="605" d="M415 442T462 415T536 338T564 219Q564 149 534 97T454 17T344 -11Q294 -11 255 7T189 56V0H77V780H189V378Q216 407 260 424T359 442Q415 442 462 415ZM375 84T412 123T450 220Q450 257 433 288T386 336T320
354Q273 354 238 330T189 266V172Q204 131 238 108T320 84Q375 84 412 123Z" />
<glyph unicode="c" glyph-name="c" horiz-adv-x="465" d="M399 16T359 3T277 -11Q207 -11 154 16T71 93T42 212Q42 279 73 329T155 407T266 434Q366 434 431 380L375 307Q356 322 331 332T276 343Q225 343 190 306T154 212Q154 156 191 119T287 81Q337 81 371
109L427 39Q399 16 359 3Z" />
<glyph unicode="d" glyph-name="d" horiz-adv-x="605" d="M528 780V0H416V57Q346 -11 250 -11Q191 -11 144 17T69 97T42 218Q42 287 70 338T149 415T264 442Q310 442 351 425T417 377V780H528ZM334 84T368 108T416 175V265Q404 304 369 329T286 354Q251 354 221
337T173 289T155 220Q155 182 173 151T221 102T286 84Q334 84 368 108Z" />
<glyph unicode="e" glyph-name="e" horiz-adv-x="533" d="M328 85T376 118L427 35Q393 14 354 2T279 -11Q206 -11 153 18T71 98T42 215Q42 277 74 329T161 411T281 442Q367 442 424 392T500 249L174 139Q191 113 219 99T281 85Q328 85 376 118ZM219 354T186 317T152
221Q152 210 153 204L375 283Q362 314 337 334T272 354Q219 354 186 317Z" />
<glyph unicode="f" glyph-name="f" horiz-adv-x="402" d="M114 325H42V424H114V590Q114 679 159 729T288 779Q313 779 342 772T392 750L345 669Q328 687 300 687Q226 687 226 587V424H358V325H226V0H114V325Z" />
<glyph unicode="g" glyph-name="g" horiz-adv-x="612" d="M535 423V-2Q535 -61 504 -108T416 -183T288 -211Q219 -211 173 -190T80 -127L146 -50Q178 -80 211 -96T286 -113Q348 -113 385 -83T423 0V71Q401 34 358 12T256 -11Q198 -11 149 18T71 99T42 214Q42 278
72 330T153 412T261 442Q314 442 357 424T423 375L432 423H535ZM338 81T373 105T423 170V262Q409 302 373 326T289 350Q232 350 194 313T155 217Q155 179 173 148T221 99T289 81Q338 81 373 105Z" />
<glyph unicode="h" glyph-name="h" horiz-adv-x="569" d="M412 441T451 406T492 314V0H380V274Q378 307 361 326T308 346Q256 346 223 301T189 188V0H77V780H187V351Q211 392 253 416T353 441Q412 441 451 406Z" />
<glyph unicode="i" glyph-name="i" horiz-adv-x="266" d="M189 423V0H77V423H189ZM72 855T92 872T137 890Q161 890 180 873T200 830Q200 805 181 788T137 771Q112 771 92 788T72 830Q72 855 92 872Z" />
<glyph unicode="j" glyph-name="j" horiz-adv-x="274" d="M27 -135Q88 -85 88 4V423H200V-2Q200 -77 175 -125T92 -204L27 -135ZM81 855T101 872T146 890Q170 890 189 873T209 830Q209 805 190 788T146 771Q121 771 101 788T81 830Q81 855 101 872Z" />
<glyph unicode="k" glyph-name="k" horiz-adv-x="518" d="M238 192L189 154V0H77V780H189V270L401 433L469 373L315 253L487 0H357L238 192Z" />
<glyph unicode="l" glyph-name="l" horiz-adv-x="266" d="M189 780V0H77V780H189Z" />
<glyph unicode="m" glyph-name="m" horiz-adv-x="840" d="M688 442T724 407T763 315V0H652V272Q650 306 637 324T594 345Q542 345 510 299T477 190V0H364V272Q362 305 349 324T304 345Q270 345 244 323T204 265T189 190V0H77V423H178L187 349Q211 394 252 418T346
442Q397 442 431 420T477 355Q503 396 543 419T626 442Q688 442 724 407Z" />
<glyph unicode="n" glyph-name="n" horiz-adv-x="569" d="M412 441T451 406T492 314V0H380V274Q378 307 361 326T308 346Q256 346 223 302T189 188V0H77V423H178L186 348Q209 392 252 416T353 441Q412 441 451 406Z" />
<glyph unicode="o" glyph-name="o" horiz-adv-x="555" d="M42 279T72 331T157 412T280 442Q349 442 402 413T485 332T514 216Q514 152 485 101T403 19T279 -11Q211 -11 157 16T73 95T42 216Q42 279 72 331ZM155 158T190 120T277 81Q331 81 365 119T400 215Q400
273 366 311T277 350Q225 350 190 311T155 215Q155 158 190 120Z" />
<glyph unicode="p" glyph-name="p" horiz-adv-x="605" d="M414 442T462 414T537 334T564 213Q564 145 535 94T453 16T334 -11Q292 -11 253 6T189 52V-203H77V431H174L184 368Q217 402 260 422T355 442Q414 442 462 414ZM349 78T380 95T431 143T450 211Q450 270
413 308T320 347Q271 347 238 323T189 256V171Q199 130 232 104T312 78Q349 78 380 95Z" />
<glyph unicode="q" glyph-name="q" horiz-adv-x="605" d="M528 431V-203H417V53Q391 24 346 7T247 -11Q191 -11 144 16T70 93T42 212Q42 280 72 332T153 413T264 442Q358 442 416 377V431H528ZM416 256Q402 299 368 323T286 347Q251 347 221 329T173 280T155 211Q155
174 173 144T221 96T286 78Q335 78 370 104T416 171V256Z" />
<glyph unicode="r" glyph-name="r" horiz-adv-x="390" d="M203 359T234 386T297 427T352 442L347 330Q301 334 265 314T209 258T189 182V0H77V423H178L186 325Q203 359 234 386Z" />
<glyph unicode="s" glyph-name="s" horiz-adv-x="423" d="M155 -9T112 8T40 58L87 121Q140 69 195 69Q225 69 244 80T264 115Q264 139 244 151T200 170T168 180Q113 197 86 229T59 306Q59 341 76 371T129 421T216 440Q264 440 299 429T366 394L323 327Q305 344
280 354T233 364Q207 364 190 352T173 321Q172 298 190 287T248 262Q265 257 270 255Q320 239 348 211T376 136Q376 74 332 33T204 -9Q155 -9 112 8Z" />
<glyph unicode="t" glyph-name="t" horiz-adv-x="373" d="M230 609V423H340V335H230V0H118V335H45V423H118V609H230Z" />
<glyph unicode="u" glyph-name="u" horiz-adv-x="562" d="M484 423V0H383L376 76Q354 33 311 8T213 -18Q155 -18 117 17T77 109V423H189V149Q192 79 258 78Q307 78 339 123T372 236V423H484Z" />
<glyph unicode="v" glyph-name="v" horiz-adv-x="510" d="M495 423L263 -11H258L15 423H148L264 181L370 423H495Z" />
<glyph unicode="w" glyph-name="w" horiz-adv-x="678" d="M663 423L470 -25L334 261L210 -25L15 423H125L223 198L294 360L265 423H362L462 191L553 423H663Z" />
<glyph unicode="x" glyph-name="x" horiz-adv-x="490" d="M339 0L232 140L133 0H20L176 212L15 423H154L257 287L343 423H455L309 219L474 0H339Z" />
<glyph unicode="y" glyph-name="y" horiz-adv-x="510" d="M495 423L222 -203H112L211 18L15 423H141L267 143L393 423H495Z" />
<glyph unicode="z" glyph-name="z" horiz-adv-x="487" d="M206 92H432V0H25L254 332H128Q94 332 71 354T47 416V464H131V450Q131 433 138 428T165 423H435L206 92Z" />
<glyph unicode="{" glyph-name="braceleft" horiz-adv-x="373" d="M261 659T251 652T236 623T231 557V447Q231 389 212 355T165 304Q231 255 231 175V48Q231 3 235 -18T250 -46T283 -54H325V-152H255Q204 -152 179 -148T134 -115T115 -24V137Q115 185 94 220T34
257V353Q73 354 94 389T115 474V637Q115 696 134 722T179 753T255 758H325V659H283Q261 659 251 652Z" />
<glyph unicode="|" glyph-name="bar" horiz-adv-x="287" d="M192 711V-236H90V711H192Z" />
<glyph unicode="}" glyph-name="braceright" horiz-adv-x="383" d="M122 -54T133 -47T148 -18T153 49V167Q153 219 173 252T219 302Q153 352 153 431V558Q153 603 149 624T133 652T100 659H58V758H128Q179 758 204 754T249 723T269 638V477Q269 427 288 389T349
349V253Q308 252 289 213T269 124V-32Q269 -91 250 -117T205 -147T128 -152H58V-54H100Q122 -54 133 -47Z" />
<glyph unicode="~" glyph-name="asciitilde" horiz-adv-x="436" d="M271 430T249 443T195 482Q177 498 165 505T140 513Q118 513 107 490T97 430L28 431Q27 438 27 451Q27 514 59 556T146 599Q173 599 193 586T241 548Q262 529 275 520T302 511Q342 511 338 598L407
597Q409 586 409 565Q409 505 379 468T305 430Q271 430 249 443Z" />
<glyph unicode="&#xa0;" glyph-name="uni00A0" horiz-adv-x="320" />
<glyph unicode="&#xa1;" glyph-name="exclamdown" horiz-adv-x="203" d="M132 552T150 536T169 492Q169 466 150 448T102 430Q73 430 53 448T33 492Q33 519 52 535T102 552Q132 552 150 536ZM49 357H149V-213H49V357Z" />
<glyph unicode="&#xa2;" glyph-name="cent" horiz-adv-x="465" d="M427 39Q404 20 372 8T307 -9V-68H238V-9Q148 2 95 61T42 212Q42 273 68 321T139 397T238 432V491H307V431Q379 423 431 380L375 307Q344 332 307 340V82Q344 86 371 109L427 39ZM154 169T177
136T238 89V337Q201 324 178 290T154 212Q154 169 177 136Z" />
<glyph unicode="&#xa3;" glyph-name="sterling" horiz-adv-x="648" d="M603 193V122Q603 65 571 33T467 0H64V112H109Q131 112 142 118T157 143T162 202V285H96V398H162V547Q162 594 189 632T267 692T382 714Q453 714 503 687T580 609L496 551Q480 574 455 588T384
602Q329 602 304 578T278 504V398H418V285H278V193Q278 139 259 112H443Q473 112 487 122T502 154V193H603Z" />
<glyph unicode="&#xa4;" glyph-name="currency" horiz-adv-x="505" d="M407 405T407 361Q407 316 382 278L409 250L361 202Q361 202 332 231Q297 208 251 208Q207 208 171 230L142 201L94 249L122 277Q97 315 97 361Q97 404 121 441Q121 441 94 468L142 516L169
489Q214 514 251 514Q293 514 333 489L360 516L408 468L383 442Q407 405 407 361ZM166 325T191 300T252 274Q288 274 313 299T339 360Q339 396 314 421T252 447Q217 447 192 422T166 360Q166 325 191 300Z" />
<glyph unicode="&#xa5;" glyph-name="yen" horiz-adv-x="704" d="M409 307H545V216H408V163H545V72H408V0H292V72H170V163H292V216H169V307H291L23 728H166L354 432L538 728H681L409 307Z" />
<glyph unicode="&#xa6;" glyph-name="brokenbar" horiz-adv-x="218" d="M164 711V356H62V711H164ZM164 119V-237H62V119H164Z" />
<glyph unicode="&#xa7;" glyph-name="section" horiz-adv-x="575" d="M462 135T482 103T502 27Q502 -29 474 -75T394 -149T279 -177Q215 -177 155 -158T50 -102L108 -6Q196 -73 272 -73Q319 -73 350 -51T381 11Q381 46 348 65T255 99Q173 120 120 159T66 270Q66
323 93 359T165 411Q87 460 87 549Q87 596 110 638T180 706T300 733Q357 733 407 715T499 664L448 579Q383 630 312 633Q261 633 235 613T208 564Q208 529 241 510T340 474Q394 460 432 442T498 390T525 303Q525 256 500 217T427 155Q462 135 482 103ZM179 228T299
198Q342 200 376 223T411 284Q411 317 375 339T293 369Q243 371 211 350T179 295Q179 228 299 198Z" />
<glyph unicode="&#xa8;" glyph-name="dieresis" horiz-adv-x="426" d="M57 559T75 576T118 594Q140 594 158 576T177 533Q177 507 159 490T118 472Q94 472 76 489T57 533Q57 559 75 576ZM249 559T267 576T310 594Q332 594 350 576T369 533Q369 507 351 490T310
472Q286 472 268 489T249 533Q249 559 267 576Z" />
<glyph unicode="&#xa9;" glyph-name="copyright" horiz-adv-x="860" d="M332 -29T250 17T119 145T70 325Q70 425 118 506T249 634T430 681Q528 681 610 635T741 507T790 325Q790 226 742 145T612 18T430 -29Q332 -29 250 17ZM503 61T563 95T658 190T693 325Q693
400 659 460T564 555T430 590Q357 590 297 556T201 461T166 325Q166 250 200 190T294 95T430 61Q503 61 563 95ZM558 167T520 149T435 131Q382 131 339 157T270 229T244 326Q244 383 268 428T337 499T440 525Q474 525 510 516T566 487L521 401Q494 427 449 427Q410
427 385 398T360 329Q360 289 384 261T450 233Q473 233 494 242T533 270L585 194Q558 167 520 149Z" />
<glyph unicode="&#xaa;" glyph-name="ordfeminine" horiz-adv-x="395" d="M339 718V430H253V469Q239 452 215 438T159 424Q102 424 66 463T30 575Q30 621 47 656T94 710T157 729Q221 729 254 682L259 718H339ZM212 493T229 508T253 551V604Q246 629 228 644T185
660Q155 660 136 637T116 578Q116 542 136 518T186 493Q212 493 229 508Z" />
<glyph unicode="&#xab;" glyph-name="guillemotleft" horiz-adv-x="607" d="M44 249T156 341Q266 431 273 438V336L231 299L169 243L221 196Q265 157 273 148V47L38 243Q44 249 156 341ZM388 341Q495 427 506 438V336L475 309Q400 242 401 243L454 196Q504 150
506 148V47L270 243L388 341Z" />
<glyph unicode="&#xac;" glyph-name="logicalnot" horiz-adv-x="487" d="M427 310V104H310V197H61V310H427Z" />
<glyph unicode="&#xad;" glyph-name="uni00AD" horiz-adv-x="600" d="M241 270V172H54V270H241Z" />
<glyph unicode="&#xae;" glyph-name="registered" horiz-adv-x="518" d="M322 726T375 697T459 616T490 500Q490 436 459 385T375 304T259 274Q196 274 143 303T59 384T28 500Q28 564 59 615T143 696T259 726Q322 726 375 697ZM305 335T342 356T401 415T423 500Q423
547 402 584T343 643T259 665Q213 665 176 644T117 585T95 500Q95 453 116 416T175 357T259 335Q305 335 342 356ZM352 520T343 502T314 474L352 390H282L254 465H239V390H177V615H270Q311 615 331 596T352 541Q352 520 343 502ZM239 512H258Q286 512 286 539Q286
551 279 559T259 568H239V512Z" />
<glyph unicode="&#xaf;" glyph-name="overscore" horiz-adv-x="365" d="M307 545V466H58V545H307Z" />
<glyph unicode="&#xb0;" glyph-name="degree" horiz-adv-x="286" d="M31 614T62 645T140 676Q184 676 215 645T247 569Q247 524 216 493T140 461Q94 461 63 492T31 569Q31 614 62 645ZM160 522T173 535T187 568Q187 587 173 600T140 614Q121 614 108 601T95 568Q95
549 108 536T140 522Q160 522 173 535Z" />
<glyph unicode="&#xb1;" glyph-name="plusminus" horiz-adv-x="533" d="M321 580V445H453V348H321V214H219V348H88V445H219V580H321ZM453 176V78H88V176H453Z" />
<glyph unicode="&#xb2;" glyph-name="uni00B2" horiz-adv-x="405" d="M360 383V289H70V353Q229 450 229 530Q229 600 171 600Q149 600 126 587T92 557L59 631Q76 657 116 675T198 693Q265 693 305 658T346 560Q346 512 316 469T235 383H360Z" />
<glyph unicode="&#xb3;" glyph-name="uni00B3" horiz-adv-x="384" d="M260 532T287 503T315 428Q315 367 273 327T164 286Q126 286 97 300T49 334L81 399Q115 359 150 359Q178 359 195 375T213 424Q213 458 195 474T148 490Q120 490 102 481L97 491L169 604H64V685H300L220
540Q260 532 287 503Z" />
<glyph unicode="&#xb4;" glyph-name="acute" horiz-adv-x="292" d="M114 487H44L125 621H249L114 487Z" />
<glyph unicode="&#xb5;" glyph-name="uni00B5" horiz-adv-x="562" d="M484 423V0H383L375 74Q353 32 311 7T213 -18Q205 -18 189 -16V-201H77V423H189V149Q192 79 258 78Q307 78 339 123T372 236V423H484Z" />
<glyph unicode="&#xb6;" glyph-name="paragraph" horiz-adv-x="569" d="M159 429T121 451T61 512T39 595Q39 641 61 679T121 739T204 762H470V0H370V664H305V0H204V429Q159 429 121 451Z" />
<glyph unicode="&#xb7;" glyph-name="middot" horiz-adv-x="172" d="M26 313T44 331T87 349Q109 349 127 331T146 288Q146 262 128 245T87 227Q63 227 45 244T26 288Q26 313 44 331Z" />
<glyph unicode="&#xb8;" glyph-name="cedilla" horiz-adv-x="390" d="M258 -41T291 -64T325 -130Q325 -180 283 -206T180 -233Q110 -233 69 -192L104 -147Q115 -159 131 -166T168 -173Q193 -173 212 -162T231 -132Q231 -115 217 -103T171 -91Q149 -91 108 -103L90
-50L159 10L245 7L203 -41Q258 -41 291 -64Z" />
<glyph unicode="&#xb9;" glyph-name="uni00B9" horiz-adv-x="276" d="M204 662V272H100V561H37V662H204Z" />
<glyph unicode="&#xba;" glyph-name="ordmasculine" horiz-adv-x="375" d="M30 641T74 684T189 727Q259 727 302 684T346 575Q346 509 303 466T188 422Q118 422 74 463T30 575Q30 641 74 684ZM117 542T137 520T187 497Q218 497 238 519T259 574Q259 607 239 630T187
653Q157 653 137 630T117 574Q117 542 137 520Z" />
<glyph unicode="&#xbb;" glyph-name="guillemotright" horiz-adv-x="607" d="M88 47V148Q101 161 141 196L193 243Q194 242 119 309L88 336V438Q129 403 206 341Q318 249 324 243L88 47ZM321 47V148Q323 150 373 196Q413 231 425 243L363 299L321 336V438Q332
427 439 341Q555 244 556 243L321 47Z" />
<glyph unicode="&#xbc;" glyph-name="onequarter" horiz-adv-x="831" d="M206 662V272H102V561H39V662H206ZM253 0H148L555 690H660L253 0ZM802 97H757V0H660V97H485L483 126L687 397H757V161H802V97ZM660 161V252L593 161H660Z" />
<glyph unicode="&#xbd;" glyph-name="onehalf" horiz-adv-x="897" d="M206 664V274H102V563H39V664H206ZM836 86V-8H546V56Q705 153 705 233Q705 303 647 303Q625 303 602 290T568 260L535 334Q552 360 592 378T674 396Q741 396 781 361T822 263Q822 215 792 172T711
86H836ZM240 0H135L542 690H647L240 0Z" />
<glyph unicode="&#xbe;" glyph-name="threequarters" horiz-adv-x="856" d="M261 532T288 503T316 428Q316 367 274 327T165 286Q127 286 98 300T50 334L82 399Q116 359 151 359Q179 359 196 375T214 424Q214 458 196 474T149 490Q121 490 103 481L98 491L170
604H65V685H301L221 540Q261 532 288 503ZM280 0H175L582 690H687L280 0ZM804 98H759V1H662V98H487L485 127L689 398H759V162H804V98ZM662 162V253L595 162H662Z" />
<glyph unicode="&#xbf;" glyph-name="questiondown" horiz-adv-x="443" d="M280 542T299 526T319 482Q319 456 300 438T250 420Q221 420 202 438T183 482Q183 509 202 525T250 542Q280 542 299 526ZM307 290Q307 244 295 213T267 163T220 116Q182 84 164 58T146
-7Q146 -47 174 -74T239 -101Q283 -101 312 -74T357 -2L449 -45Q439 -78 412 -115T339 -178T228 -205Q139 -204 83 -156T27 -17Q27 30 40 63T71 118T123 170Q148 193 162 210T186 253T195 316V349H307V290Z" />
<glyph unicode="&#xc0;" glyph-name="Agrave" horiz-adv-x="699" d="M474 171H209L139 0H24L346 758H353L675 0H541L474 171ZM435 271L344 501L250 271H435ZM310 930L378 796H308L185 930H310Z" />
<glyph unicode="&#xc1;" glyph-name="Aacute" horiz-adv-x="699" d="M474 171H209L139 0H24L346 758H353L675 0H541L474 171ZM435 271L344 501L250 271H435ZM382 790H312L393 924H517L382 790Z" />
<glyph unicode="&#xc2;" glyph-name="Acircumflex" horiz-adv-x="699" d="M474 171H209L139 0H24L346 758H353L675 0H541L474 171ZM435 271L344 501L250 271H435ZM416 805L341 881L271 805H168L341 981H342L519 805H416Z" />
<glyph unicode="&#xc3;" glyph-name="Atilde" horiz-adv-x="699" d="M474 171H209L139 0H24L346 758H353L675 0H541L474 171ZM435 271L344 501L250 271H435ZM399 827T381 838T334 872Q319 885 309 891T287 898Q268 898 258 878T250 827H190Q189 833 189 844Q189
899 217 936T292 973Q315 973 332 962T374 929Q391 913 403 905T427 897Q462 897 458 972L517 971Q519 951 519 943Q519 891 493 859T429 827Q399 827 381 838Z" />
<glyph unicode="&#xc4;" glyph-name="Adieresis" horiz-adv-x="699" d="M474 171H209L139 0H24L346 758H353L675 0H541L474 171ZM435 271L344 501L250 271H435ZM189 880T207 897T250 915Q272 915 290 897T309 854Q309 828 291 811T250 793Q226 793 208 810T189
854Q189 880 207 897ZM381 880T399 897T442 915Q464 915 482 897T501 854Q501 828 483 811T442 793Q418 793 400 810T381 854Q381 880 399 897Z" />
<glyph unicode="&#xc5;" glyph-name="Aring" horiz-adv-x="699" d="M474 171H209L139 0H24L346 758H353L675 0H541L474 171ZM435 271L344 501L250 271H435ZM252 928T280 954T353 981Q396 981 425 955T454 886Q454 844 425 817T353 790Q309 790 281 816T252 886Q252
928 280 954ZM312 865T323 853T353 841Q372 841 383 853T394 884Q394 905 383 916T353 928Q335 928 324 917T312 884Q312 865 323 853Z" />
<glyph unicode="&#xc6;" glyph-name="AE" horiz-adv-x="957" d="M896 112V0H481V172H249L144 0H10L481 728H882V616H597V420H842V308H597V112H896ZM481 264V550L306 264H481Z" />
<glyph unicode="&#xc7;" glyph-name="Ccedilla" horiz-adv-x="695" d="M476 -41T509 -64T543 -130Q543 -180 501 -206T398 -233Q328 -233 287 -192L322 -147Q333 -159 349 -166T386 -173Q411 -173 430 -162T449 -132Q449 -115 435 -103T389 -91Q367 -91 326 -103L308
-50L362 -3Q268 11 199 62T92 190T55 358Q55 467 100 553T227 687T413 736Q477 736 531 719T628 676L582 567Q501 624 417 624Q353 624 298 590T209 496T176 365Q176 290 206 231T293 138T424 104Q477 104 519 120T591 161L640 57Q612 36 562 16T450 -7L421 -41Q476
-41 509 -64Z" />
<glyph unicode="&#xc8;" glyph-name="Egrave" horiz-adv-x="658" d="M583 728V616H217V422H543V310H217V112H597V0H100V728H583ZM299 915L367 781H297L174 915H299Z" />
<glyph unicode="&#xc9;" glyph-name="Eacute" horiz-adv-x="658" d="M583 728V616H217V422H543V310H217V112H597V0H100V728H583ZM371 775H301L382 909H506L371 775Z" />
<glyph unicode="&#xca;" glyph-name="Ecircumflex" horiz-adv-x="658" d="M583 728V616H217V422H543V310H217V112H597V0H100V728H583ZM405 790L330 866L260 790H157L330 966H331L508 790H405Z" />
<glyph unicode="&#xcb;" glyph-name="Edieresis" horiz-adv-x="658" d="M583 728V616H217V422H543V310H217V112H597V0H100V728H583ZM178 865T196 882T239 900Q261 900 279 882T298 839Q298 813 280 796T239 778Q215 778 197 795T178 839Q178 865 196 882ZM370
865T388 882T431 900Q453 900 471 882T490 839Q490 813 472 796T431 778Q407 778 389 795T370 839Q370 865 388 882Z" />
<glyph unicode="&#xcc;" glyph-name="Igrave" horiz-adv-x="317" d="M217 728V0H100V728H217ZM119 915L187 781H117L-6 915H119Z" />
<glyph unicode="&#xcd;" glyph-name="Iacute" horiz-adv-x="317" d="M217 728V0H100V728H217ZM191 775H121L202 909H326L191 775Z" />
<glyph unicode="&#xce;" glyph-name="Icircumflex" horiz-adv-x="317" d="M217 728V0H100V728H217ZM225 790L150 866L80 790H-23L150 966H151L328 790H225Z" />
<glyph unicode="&#xcf;" glyph-name="Idieresis" horiz-adv-x="317" d="M217 728V0H100V728H217ZM-2 865T16 882T59 900Q81 900 99 882T118 839Q118 813 100 796T59 778Q35 778 17 795T-2 839Q-2 865 16 882ZM190 865T208 882T251 900Q273 900 291 882T310 839Q310
813 292 796T251 778Q227 778 209 795T190 839Q190 865 208 882Z" />
<glyph unicode="&#xd0;" glyph-name="Eth" horiz-adv-x="761" d="M444 728T533 674T664 535T705 354Q705 248 656 168T523 44T342 0H100V309H19V413H100V728H307Q444 728 533 674ZM399 112T458 141T551 226T585 362Q585 448 549 505T456 590T339 617H217V413H311V309H217V112H321Q399
112 458 141Z" />
<glyph unicode="&#xd1;" glyph-name="Ntilde" horiz-adv-x="844" d="M743 728V-26H740L215 483L218 0H100V753H106L629 238L627 728H743ZM456 796T438 807T391 841Q376 854 366 860T344 867Q325 867 315 847T307 796H247Q246 802 246 813Q246 868 274 905T349
942Q372 942 389 931T431 898Q448 882 460 874T484 866Q519 866 515 941L574 940Q576 920 576 912Q576 860 550 828T486 796Q456 796 438 807Z" />
<glyph unicode="&#xd2;" glyph-name="Ograve" horiz-adv-x="855" d="M55 463T105 548T240 685T427 736Q527 736 612 685T749 548T800 363Q800 262 750 177T613 42T427 -8Q326 -8 241 41T105 176T55 363Q55 463 105 548ZM175 292T209 233T301 139T430 104Q499 104
556 138T646 232T680 363Q680 434 646 494T554 589T427 624Q357 624 300 589T209 494T175 363Q175 292 209 233ZM388 907L456 773H386L263 907H388Z" />
<glyph unicode="&#xd3;" glyph-name="Oacute" horiz-adv-x="855" d="M55 463T105 548T240 685T427 736Q527 736 612 685T749 548T800 363Q800 262 750 177T613 42T427 -8Q326 -8 241 41T105 176T55 363Q55 463 105 548ZM175 292T209 233T301 139T430 104Q499 104
556 138T646 232T680 363Q680 434 646 494T554 589T427 624Q357 624 300 589T209 494T175 363Q175 292 209 233ZM460 767H390L471 901H595L460 767Z" />
<glyph unicode="&#xd4;" glyph-name="Ocircumflex" horiz-adv-x="855" d="M55 463T105 548T240 685T427 736Q527 736 612 685T749 548T800 363Q800 262 750 177T613 42T427 -8Q326 -8 241 41T105 176T55 363Q55 463 105 548ZM175 292T209 233T301 139T430 104Q499
104 556 138T646 232T680 363Q680 434 646 494T554 589T427 624Q357 624 300 589T209 494T175 363Q175 292 209 233ZM494 782L419 858L349 782H246L419 958H420L597 782H494Z" />
<glyph unicode="&#xd5;" glyph-name="Otilde" horiz-adv-x="855" d="M55 463T105 548T240 685T427 736Q527 736 612 685T749 548T800 363Q800 262 750 177T613 42T427 -8Q326 -8 241 41T105 176T55 363Q55 463 105 548ZM175 292T209 233T301 139T430 104Q499 104
556 138T646 232T680 363Q680 434 646 494T554 589T427 624Q357 624 300 589T209 494T175 363Q175 292 209 233ZM477 804T459 815T412 849Q397 862 387 868T365 875Q346 875 336 855T328 804H268Q267 810 267 821Q267 876 295 913T370 950Q393 950 410 939T452
906Q469 890 481 882T505 874Q540 874 536 949L595 948Q597 928 597 920Q597 868 571 836T507 804Q477 804 459 815Z" />
<glyph unicode="&#xd6;" glyph-name="Odieresis" horiz-adv-x="855" d="M55 463T105 548T240 685T427 736Q527 736 612 685T749 548T800 363Q800 262 750 177T613 42T427 -8Q326 -8 241 41T105 176T55 363Q55 463 105 548ZM175 292T209 233T301 139T430 104Q499
104 556 138T646 232T680 363Q680 434 646 494T554 589T427 624Q357 624 300 589T209 494T175 363Q175 292 209 233ZM267 857T285 874T328 892Q350 892 368 874T387 831Q387 805 369 788T328 770Q304 770 286 787T267 831Q267 857 285 874ZM459 857T477 874T520
892Q542 892 560 874T579 831Q579 805 561 788T520 770Q496 770 478 787T459 831Q459 857 477 874Z" />
<glyph unicode="&#xd7;" glyph-name="multiply" horiz-adv-x="522" d="M341 322T370 351Q385 338 411 309Q439 279 454 265Q396 207 368 177Q386 160 420 124L457 87L368 0Q339 30 314 53L278 89Q249 59 219 30L191 2L105 86L135 116Q165 144 194 175L102 266L189
355L282 262Q341 322 370 351Z" />
<glyph unicode="&#xd8;" glyph-name="Oslash" horiz-adv-x="858" d="M748 562T774 498T800 363Q800 262 750 177T613 42T427 -8Q313 -8 221 53L160 -18L86 49L146 119Q102 169 79 231T55 363Q55 463 105 548T240 685T427 736Q534 736 626 677L688 749L760 682L701
613Q748 562 774 498ZM175 321T187 282T224 209L552 591Q494 624 427 624Q357 624 300 589T209 494T175 363Q175 321 187 282ZM499 104T556 138T646 232T680 363Q680 455 626 525L297 142Q357 104 430 104Q499 104 556 138Z" />
<glyph unicode="&#xd9;" glyph-name="Ugrave" horiz-adv-x="741" d="M205 220T227 184T287 127T370 105Q417 105 455 126T516 183T538 262V728H653V259Q653 181 616 121T513 26T370 -8Q292 -8 228 26T126 120T89 259V728H205V262Q205 220 227 184ZM331 915L399
781H329L206 915H331Z" />
<glyph unicode="&#xda;" glyph-name="Uacute" horiz-adv-x="741" d="M205 220T227 184T287 127T370 105Q417 105 455 126T516 183T538 262V728H653V259Q653 181 616 121T513 26T370 -8Q292 -8 228 26T126 120T89 259V728H205V262Q205 220 227 184ZM403 775H333L414
909H538L403 775Z" />
<glyph unicode="&#xdb;" glyph-name="Ucircumflex" horiz-adv-x="741" d="M205 220T227 184T287 127T370 105Q417 105 455 126T516 183T538 262V728H653V259Q653 181 616 121T513 26T370 -8Q292 -8 228 26T126 120T89 259V728H205V262Q205 220 227 184ZM437 790L362
866L292 790H189L362 966H363L540 790H437Z" />
<glyph unicode="&#xdc;" glyph-name="Udieresis" horiz-adv-x="741" d="M205 220T227 184T287 127T370 105Q417 105 455 126T516 183T538 262V728H653V259Q653 181 616 121T513 26T370 -8Q292 -8 228 26T126 120T89 259V728H205V262Q205 220 227 184ZM210 865T228
882T271 900Q293 900 311 882T330 839Q330 813 312 796T271 778Q247 778 229 795T210 839Q210 865 228 882ZM402 865T420 882T463 900Q485 900 503 882T522 839Q522 813 504 796T463 778Q439 778 421 795T402 839Q402 865 420 882Z" />
<glyph unicode="&#xdd;" glyph-name="Yacute" horiz-adv-x="704" d="M681 728L408 236V0H292V236L23 728H166L354 369L538 728H681ZM400 773H330L411 907H535L400 773Z" />
<glyph unicode="&#xde;" glyph-name="Thorn" horiz-adv-x="611" d="M446 598T508 537T570 364Q570 263 513 193T330 123H220V0H100V724H220V598H329Q446 598 508 537ZM384 235T417 273T450 362Q450 413 418 449T320 486H220V235H319Q384 235 417 273Z" />
<glyph unicode="&#xdf;" glyph-name="germandbls" horiz-adv-x="611" d="M107 522T135 569T212 642T318 667Q381 667 426 649T495 598T519 526Q519 483 501 449T449 396Q564 349 564 197Q564 97 511 44T367 -10Q327 -10 297 1T252 28L295 95Q320 75 356 75Q402
75 426 110T451 203Q451 267 422 303T342 338H336L335 436Q367 436 386 454T406 500Q406 535 384 555T321 576Q267 576 244 537T220 421V0H107V337H42V428H107V459Q107 522 135 569Z" />
<glyph unicode="&#xe0;" glyph-name="agrave" horiz-adv-x="598" d="M520 423V0H408V61Q385 34 346 12T255 -11Q194 -11 146 14T70 90T42 211Q42 280 71 332T148 413T255 442Q358 442 409 366L417 423H520ZM332 81T363 104T408 171V263Q396 302 362 326T282 350Q229
350 192 313T155 217Q155 179 173 148T221 99T286 81Q332 81 363 104ZM281 637L349 503H279L156 637H281Z" />
<glyph unicode="&#xe1;" glyph-name="aacute" horiz-adv-x="598" d="M520 423V0H408V61Q385 34 346 12T255 -11Q194 -11 146 14T70 90T42 211Q42 280 71 332T148 413T255 442Q358 442 409 366L417 423H520ZM332 81T363 104T408 171V263Q396 302 362 326T282 350Q229
350 192 313T155 217Q155 179 173 148T221 99T286 81Q332 81 363 104ZM352 498H282L363 632H487L352 498Z" />
<glyph unicode="&#xe2;" glyph-name="acircumflex" horiz-adv-x="598" d="M520 423V0H408V61Q385 34 346 12T255 -11Q194 -11 146 14T70 90T42 211Q42 280 71 332T148 413T255 442Q358 442 409 366L417 423H520ZM332 81T363 104T408 171V263Q396 302 362 326T282
350Q229 350 192 313T155 217Q155 179 173 148T221 99T286 81Q332 81 363 104ZM386 503L311 579L241 503H138L311 679H312L489 503H386Z" />
<glyph unicode="&#xe3;" glyph-name="atilde" horiz-adv-x="598" d="M520 423V0H408V61Q385 34 346 12T255 -11Q194 -11 146 14T70 90T42 211Q42 280 71 332T148 413T255 442Q358 442 409 366L417 423H520ZM332 81T363 104T408 171V263Q396 302 362 326T282 350Q229
350 192 313T155 217Q155 179 173 148T221 99T286 81Q332 81 363 104ZM364 479T346 490T299 524Q284 537 274 543T252 550Q233 550 223 530T215 479H155Q154 485 154 496Q154 551 182 588T257 625Q280 625 297 614T339 581Q356 565 368 557T392 549Q427 549 423
624L482 623Q484 603 484 595Q484 543 458 511T394 479Q364 479 346 490Z" />
<glyph unicode="&#xe4;" glyph-name="adieresis" horiz-adv-x="598" d="M520 423V0H408V61Q385 34 346 12T255 -11Q194 -11 146 14T70 90T42 211Q42 280 71 332T148 413T255 442Q358 442 409 366L417 423H520ZM332 81T363 104T408 171V263Q396 302 362 326T282
350Q229 350 192 313T155 217Q155 179 173 148T221 99T286 81Q332 81 363 104ZM157 575T175 592T218 610Q240 610 258 592T277 549Q277 523 259 506T218 488Q194 488 176 505T157 549Q157 575 175 592ZM349 575T367 592T410 610Q432 610 450 592T469 549Q469 523
451 506T410 488Q386 488 368 505T349 549Q349 575 367 592Z" />
<glyph unicode="&#xe5;" glyph-name="aring" horiz-adv-x="598" d="M520 423V0H408V61Q385 34 346 12T255 -11Q194 -11 146 14T70 90T42 211Q42 280 71 332T148 413T255 442Q358 442 409 366L417 423H520ZM332 81T363 104T408 171V263Q396 302 362 326T282 350Q229
350 192 313T155 217Q155 179 173 148T221 99T286 81Q332 81 363 104ZM202 609T230 635T303 662Q346 662 375 636T404 567Q404 525 375 498T303 471Q259 471 231 497T202 567Q202 609 230 635ZM262 546T273 534T303 522Q322 522 333 534T344 565Q344 586 333 597T303
609Q285 609 274 598T262 565Q262 546 273 534Z" />
<glyph unicode="&#xe6;" glyph-name="ae" horiz-adv-x="828" d="M623 85T671 118L722 35Q688 14 649 2T574 -11Q513 -11 467 8T389 65Q359 27 311 8T208 -11Q125 -11 84 25T42 121Q42 161 66 191T132 237T219 253Q249 253 280 247T337 229V263Q337 309 308 329T247
349Q210 349 179 331T126 285L69 356Q148 441 262 441Q311 441 350 426T415 383Q447 411 488 426T576 442Q662 442 719 392T795 249L469 139Q486 113 514 99T576 85Q623 85 671 118ZM514 354T481 317T447 221Q447 210 448 204L670 283Q657 314 632 334T567 354Q514
354 481 317ZM346 146L345 149Q320 165 298 172T246 179Q209 179 187 166T165 124Q165 97 184 82T240 67Q267 67 298 82T346 117V146Z" />
<glyph unicode="&#xe7;" glyph-name="ccedilla" horiz-adv-x="465" d="M276 -11L251 -40Q306 -40 339 -63T373 -129Q373 -179 331 -205T228 -232Q158 -232 117 -191L152 -146Q163 -158 179 -165T216 -172Q241 -172 260 -161T279 -131Q279 -114 265 -102T219 -90Q197
-90 156 -102L138 -49L195 0Q124 21 83 76T42 212Q42 279 73 329T155 407T266 434Q366 434 431 380L375 307Q356 322 331 332T276 343Q225 343 190 306T154 212Q154 156 191 119T287 81Q337 81 371 109L427 39Q399 16 359 3T277 -11H276Z" />
<glyph unicode="&#xe8;" glyph-name="egrave" horiz-adv-x="533" d="M328 85T376 118L427 35Q393 14 354 2T279 -11Q206 -11 153 18T71 98T42 215Q42 277 74 329T161 411T281 442Q367 442 424 392T500 249L174 139Q191 113 219 99T281 85Q328 85 376 118ZM219
354T186 317T152 221Q152 210 153 204L375 283Q362 314 337 334T272 354Q219 354 186 317ZM244 638L312 504H242L119 638H244Z" />
<glyph unicode="&#xe9;" glyph-name="eacute" horiz-adv-x="533" d="M328 85T376 118L427 35Q393 14 354 2T279 -11Q206 -11 153 18T71 98T42 215Q42 277 74 329T161 411T281 442Q367 442 424 392T500 249L174 139Q191 113 219 99T281 85Q328 85 376 118ZM219
354T186 317T152 221Q152 210 153 204L375 283Q362 314 337 334T272 354Q219 354 186 317ZM315 499H245L326 633H450L315 499Z" />
<glyph unicode="&#xea;" glyph-name="ecircumflex" horiz-adv-x="533" d="M328 85T376 118L427 35Q393 14 354 2T279 -11Q206 -11 153 18T71 98T42 215Q42 277 74 329T161 411T281 442Q367 442 424 392T500 249L174 139Q191 113 219 99T281 85Q328 85 376 118ZM219
354T186 317T152 221Q152 210 153 204L375 283Q362 314 337 334T272 354Q219 354 186 317ZM349 504L274 580L204 504H101L274 680H275L452 504H349Z" />
<glyph unicode="&#xeb;" glyph-name="edieresis" horiz-adv-x="533" d="M328 85T376 118L427 35Q393 14 354 2T279 -11Q206 -11 153 18T71 98T42 215Q42 277 74 329T161 411T281 442Q367 442 424 392T500 249L174 139Q191 113 219 99T281 85Q328 85 376 118ZM219
354T186 317T152 221Q152 210 153 204L375 283Q362 314 337 334T272 354Q219 354 186 317ZM120 576T138 593T181 611Q203 611 221 593T240 550Q240 524 222 507T181 489Q157 489 139 506T120 550Q120 576 138 593ZM312 576T330 593T373 611Q395 611 413 593T432
550Q432 524 414 507T373 489Q349 489 331 506T312 550Q312 576 330 593Z" />
<glyph unicode="&#xec;" glyph-name="igrave" horiz-adv-x="266" d="M189 423V0H77V423H189ZM358 621L426 487H356L233 621H358Z" />
<glyph unicode="&#xed;" glyph-name="iacute" horiz-adv-x="266" d="M189 423V0H77V423H189ZM173 738H103L184 872H308L173 738Z" />
<glyph unicode="&#xee;" glyph-name="icircumflex" horiz-adv-x="266" d="M189 423V0H77V423H189ZM463 743L388 819L318 743H215L388 919H389L566 743H463Z" />
<glyph unicode="&#xef;" glyph-name="idieresis" horiz-adv-x="266" d="M189 423V0H77V423H189ZM234 559T252 576T295 594Q317 594 335 576T354 533Q354 507 336 490T295 472Q271 472 253 489T234 533Q234 559 252 576ZM426 559T444 576T487 594Q509 594 527 576T546
533Q546 507 528 490T487 472Q463 472 445 489T426 533Q426 559 444 576Z" />
<glyph unicode="&#xf0;" glyph-name="eth" horiz-adv-x="555" d="M443 546T478 448T514 256Q514 188 485 127T400 27T268 -11Q205 -11 154 17T72 96T42 216Q42 279 70 330T145 412T251 442Q330 442 385 377Q360 483 288 570L199 515L162 589L231 632Q186 674 150
702L232 775Q282 742 329 692L415 745L452 672L382 629Q443 546 478 448ZM331 81T365 119T400 215Q400 273 366 311T277 350Q225 350 190 311T155 215Q155 158 190 120T277 81Q331 81 365 119Z" />
<glyph unicode="&#xf1;" glyph-name="ntilde" horiz-adv-x="569" d="M412 441T451 406T492 314V0H380V274Q378 307 361 326T308 346Q256 346 223 302T189 188V0H77V423H178L186 348Q209 392 252 416T353 441Q412 441 451 406ZM335 471T317 482T270 516Q255 529
245 535T223 542Q204 542 194 522T186 471H126Q125 477 125 488Q125 543 153 580T228 617Q251 617 268 606T310 573Q327 557 339 549T363 541Q398 541 394 616L453 615Q455 595 455 587Q455 535 429 503T365 471Q335 471 317 482Z" />
<glyph unicode="&#xf2;" glyph-name="ograve" horiz-adv-x="555" d="M42 279T72 331T157 412T280 442Q349 442 402 413T485 332T514 216Q514 152 485 101T403 19T279 -11Q211 -11 157 16T73 95T42 216Q42 279 72 331ZM155 158T190 120T277 81Q331 81 365 119T400
215Q400 273 366 311T277 350Q225 350 190 311T155 215Q155 158 190 120ZM245 637L313 503H243L120 637H245Z" />
<glyph unicode="&#xf3;" glyph-name="oacute" horiz-adv-x="555" d="M42 279T72 331T157 412T280 442Q349 442 402 413T485 332T514 216Q514 152 485 101T403 19T279 -11Q211 -11 157 16T73 95T42 216Q42 279 72 331ZM155 158T190 120T277 81Q331 81 365 119T400
215Q400 273 366 311T277 350Q225 350 190 311T155 215Q155 158 190 120ZM316 498H246L327 632H451L316 498Z" />
<glyph unicode="&#xf4;" glyph-name="ocircumflex" horiz-adv-x="555" d="M42 279T72 331T157 412T280 442Q349 442 402 413T485 332T514 216Q514 152 485 101T403 19T279 -11Q211 -11 157 16T73 95T42 216Q42 279 72 331ZM155 158T190 120T277 81Q331 81 365
119T400 215Q400 273 366 311T277 350Q225 350 190 311T155 215Q155 158 190 120ZM350 503L275 579L205 503H102L275 679H276L453 503H350Z" />
<glyph unicode="&#xf5;" glyph-name="otilde" horiz-adv-x="555" d="M42 279T72 331T157 412T280 442Q349 442 402 413T485 332T514 216Q514 152 485 101T403 19T279 -11Q211 -11 157 16T73 95T42 216Q42 279 72 331ZM155 158T190 120T277 81Q331 81 365 119T400
215Q400 273 366 311T277 350Q225 350 190 311T155 215Q155 158 190 120ZM328 479T310 490T263 524Q248 537 238 543T216 550Q197 550 187 530T179 479H119Q118 485 118 496Q118 551 146 588T221 625Q244 625 261 614T303 581Q320 565 332 557T356 549Q391 549
387 624L446 623Q448 603 448 595Q448 543 422 511T358 479Q328 479 310 490Z" />
<glyph unicode="&#xf6;" glyph-name="odieresis" horiz-adv-x="555" d="M42 279T72 331T157 412T280 442Q349 442 402 413T485 332T514 216Q514 152 485 101T403 19T279 -11Q211 -11 157 16T73 95T42 216Q42 279 72 331ZM155 158T190 120T277 81Q331 81 365 119T400
215Q400 273 366 311T277 350Q225 350 190 311T155 215Q155 158 190 120ZM121 575T139 592T182 610Q204 610 222 592T241 549Q241 523 223 506T182 488Q158 488 140 505T121 549Q121 575 139 592ZM313 575T331 592T374 610Q396 610 414 592T433 549Q433 523 415
506T374 488Q350 488 332 505T313 549Q313 575 331 592Z" />
<glyph unicode="&#xf7;" glyph-name="divide" horiz-adv-x="508" d="M195 435T213 453T255 471Q277 471 295 453T314 410Q314 384 296 367T255 349Q231 349 213 366T195 410Q195 435 213 453ZM434 306V208H69V306H434ZM195 134T213 152T255 170Q277 170 295 152T314
109Q314 83 296 66T255 48Q231 48 213 65T195 109Q195 134 213 152Z" />
<glyph unicode="&#xf8;" glyph-name="oslash" horiz-adv-x="531" d="M484 341T499 302T514 216Q514 152 485 101T403 19T279 -11Q204 -11 149 21L105 -29L51 21L92 68Q42 127 42 216Q42 279 72 331T157 412T280 442Q346 442 396 416L435 460L492 413L455 371Q484
341 499 302ZM155 180T168 154L329 339Q304 350 277 350Q225 350 190 311T155 215Q155 180 168 154ZM331 81T365 119T400 215Q400 257 382 288L216 98Q244 81 277 81Q331 81 365 119Z" />
<glyph unicode="&#xf9;" glyph-name="ugrave" horiz-adv-x="562" d="M484 423V0H383L376 76Q354 33 311 8T213 -18Q155 -18 117 17T77 109V423H189V149Q192 79 258 78Q307 78 339 123T372 236V423H484ZM249 637L317 503H247L124 637H249Z" />
<glyph unicode="&#xfa;" glyph-name="uacute" horiz-adv-x="562" d="M484 423V0H383L376 76Q354 33 311 8T213 -18Q155 -18 117 17T77 109V423H189V149Q192 79 258 78Q307 78 339 123T372 236V423H484ZM320 498H250L331 632H455L320 498Z" />
<glyph unicode="&#xfb;" glyph-name="ucircumflex" horiz-adv-x="562" d="M484 423V0H383L376 76Q354 33 311 8T213 -18Q155 -18 117 17T77 109V423H189V149Q192 79 258 78Q307 78 339 123T372 236V423H484ZM354 503L279 579L209 503H106L279 679H280L457 503H354Z" />
<glyph unicode="&#xfc;" glyph-name="udieresis" horiz-adv-x="562" d="M484 423V0H383L376 76Q354 33 311 8T213 -18Q155 -18 117 17T77 109V423H189V149Q192 79 258 78Q307 78 339 123T372 236V423H484ZM125 575T143 592T186 610Q208 610 226 592T245 549Q245
523 227 506T186 488Q162 488 144 505T125 549Q125 575 143 592ZM317 575T335 592T378 610Q400 610 418 592T437 549Q437 523 419 506T378 488Q354 488 336 505T317 549Q317 575 335 592Z" />
<glyph unicode="&#xfd;" glyph-name="yacute" horiz-adv-x="510" d="M495 423L222 -203H112L211 18L15 423H141L267 143L393 423H495ZM301 482H231L312 616H436L301 482Z" />
<glyph unicode="&#xfe;" glyph-name="thorn" horiz-adv-x="601" d="M415 442T462 414T537 334T564 213Q564 145 535 94T453 16T334 -11Q290 -11 251 7T189 57V-203H77V780H190V373Q222 405 264 423T356 442Q415 442 462 414ZM349 78T380 95T431 143T450 211Q450
249 432 280T384 329T320 347Q271 347 238 323T190 256V170Q199 129 232 104T312 78Q349 78 380 95Z" />
<glyph unicode="&#xff;" glyph-name="ydieresis" horiz-adv-x="510" d="M495 423L222 -203H112L211 18L15 423H141L267 143L393 423H495ZM106 559T124 576T167 594Q189 594 207 576T226 533Q226 507 208 490T167 472Q143 472 125 489T106 533Q106 559 124 576ZM298
559T316 576T359 594Q381 594 399 576T418 533Q418 507 400 490T359 472Q335 472 317 489T298 533Q298 559 316 576Z" />
<glyph unicode="&#x2013;" glyph-name="endash" horiz-adv-x="517" d="M407 266V168H102V266H407Z" />
<glyph unicode="&#x2014;" glyph-name="emdash" horiz-adv-x="711" d="M610 266V168H101V266H610Z" />
<glyph unicode="&#x2018;" glyph-name="quoteleft" horiz-adv-x="186" d="M159 712Q140 693 128 664T116 607Q116 599 118 585L30 578Q27 593 27 607Q27 647 48 681T101 738L159 712Z" />
<glyph unicode="&#x2019;" glyph-name="quoteright" horiz-adv-x="190" d="M29 588Q47 606 59 634T71 692Q71 699 69 715L157 722Q159 708 159 701Q159 662 138 622T86 562L29 588Z" />
<glyph unicode="&#x201a;" glyph-name="quotesinglbase" horiz-adv-x="190" d="M29 -54Q47 -36 59 -8T71 50Q71 57 69 73L157 80Q159 66 159 59Q159 20 138 -20T86 -80L29 -54Z" />
<glyph unicode="&#x201c;" glyph-name="quotedblleft" horiz-adv-x="308" d="M292 712Q273 693 261 664T249 607Q249 599 251 585L163 578Q160 593 160 607Q160 647 181 681T234 738L292 712ZM162 712Q143 693 131 664T119 607Q119 599 121 585L33 578Q30 593
30 607Q30 647 51 681T104 738L162 712Z" />
<glyph unicode="&#x201d;" glyph-name="quotedblright" horiz-adv-x="308" d="M29 588Q47 606 59 634T71 692Q71 699 69 715L157 722Q159 708 159 701Q159 662 138 622T86 562L29 588ZM156 588Q174 606 186 634T198 692Q198 699 196 715L284 722Q286 708 286 701Q286
662 265 622T213 562L156 588Z" />
<glyph unicode="&#x201e;" glyph-name="quotedblbase" horiz-adv-x="315" d="M29 -49Q47 -31 59 -3T71 55Q71 62 69 78L157 85Q159 71 159 64Q159 25 138 -15T86 -75L29 -49ZM156 -49Q174 -31 186 -3T198 55Q198 62 196 78L284 85Q286 71 286 64Q286 25 265 -15T213
-75L156 -49Z" />
<glyph unicode="&#x2022;" glyph-name="bullet" horiz-adv-x="486" d="M101 344T120 377T171 429T243 449Q282 449 315 430T367 377T387 305Q387 265 368 233T316 181T243 162Q204 162 172 181T120 232T101 305Q101 344 120 377Z" />
<glyph unicode="&#x2039;" glyph-name="guilsinglleft" horiz-adv-x="366" d="M44 249T156 341Q266 431 273 438V336L231 299L169 243L221 196Q265 157 273 148V47L38 243Q44 249 156 341Z" />
<glyph unicode="&#x203a;" glyph-name="guilsinglright" horiz-adv-x="359" d="M88 47V148Q90 150 140 196Q180 231 192 243L130 299L88 336V438Q99 427 206 341Q322 244 323 243L88 47Z" />
</font>
</defs>
</svg>
