<?xml version="1.0" standalone="no"?>
<!DOCTYPE svg PUBLIC "-//W3C//DTD SVG 1.1//EN" "http://www.w3.org/Graphics/SVG/1.1/DTD/svg11.dtd">
<svg xmlns="http://www.w3.org/2000/svg">
<defs >
<font id="LibreFranklin" horiz-adv-x="561" ><font-face
    font-family="Libre Franklin ExtraLight"
    units-per-em="1000"
    panose-1="0 0 3 0 0 0 0 0 0 0"
    ascent="966"
    descent="-246"
    alphabetic="0" />
<glyph unicode=" " glyph-name="space" horiz-adv-x="219" />
<glyph unicode="!" glyph-name="exclam" horiz-adv-x="235" d="M123 163Q122 158 120 157T111 155H94Q83 155 85 165L152 735Q152 739 153 740T158 742H209Q212 742 214 740T216 734L123 163ZM117 11Q116 4 114 2T103 0H57Q44 0 46 12L56 78Q57 86 63 86H119Q127
86 127 76L117 11Z" />
<glyph unicode="&quot;" glyph-name="quotedbl" horiz-adv-x="380" d="M285 550Q283 544 281 543T273 541H254Q245 541 245 551L250 736Q251 742 257 742H325Q329 742 331 740T332 734L285 550ZM397 550Q395 544 393 543T385 541H366Q357 541 357 551L362 736Q363
742 369 742H437Q441 742 443 740T444 734L397 550Z" />
<glyph unicode="#" glyph-name="numbersign" horiz-adv-x="603" d="M589 500T591 498T593 492L589 466Q588 461 586 460T578 458H472L423 290H522Q526 290 528 288T530 282L526 256Q525 251 523 250T515 248H410L339 7Q338 2 336 1T329 0L305 4Q297 5 297 13L366
248H205L134 7Q133 2 131 1T125 0L100 4Q91 5 93 13L162 248H51Q46 248 43 251T41 258L45 283Q45 287 46 288T51 290H175L224 458H113Q102 458 104 468L108 493Q108 497 109 498T114 500H236L306 736Q309 743 313 742L339 738Q344 737 345 734T346 725L280 500H440L510
736Q513 743 518 742L543 738Q548 737 550 734T551 725L485 500H585Q589 500 591 498ZM428 458H267L218 290H379L428 458Z" />
<glyph unicode="$" glyph-name="dollar" horiz-adv-x="581" d="M530 138T500 92T418 18T300 -10Q290 -10 288 -18L279 -84Q278 -89 277 -90T271 -92H244Q240 -92 238 -90T236 -84L246 -15Q246 -12 246 -11T242 -9Q156 -9 105 21T22 113Q18 119 18 122Q18 126 23
129L44 143Q48 145 52 145Q60 145 61 139Q94 88 135 64T243 39Q247 39 250 41T255 48L293 329V333Q293 345 277 355Q213 384 176 408T122 461T105 528Q105 548 107 559Q118 638 183 690T341 751Q345 751 349 754T354 760L361 815Q363 821 367 821H395Q400 821 402
818T404 809L396 756Q396 753 396 752T400 750Q458 744 500 721T577 655Q588 647 578 641L549 619L545 617Q542 617 537 627Q518 655 482 674T400 700H397Q389 700 387 691L346 400V396Q346 393 348 391T354 387L382 374Q455 342 492 299T530 195Q530 138 500 92ZM344
695V697Q344 703 337 701Q267 695 219 655T162 554Q161 548 161 537Q161 502 188 473T282 411Q284 410 289 410Q304 410 307 425L344 695ZM297 42T298 41T301 40Q350 40 389 60T451 116T474 194Q474 236 447 265T355 324Q352 325 347 325Q335 325 334 314L297 44Q297
42 298 41Z" />
<glyph unicode="%" glyph-name="percent" horiz-adv-x="902" d="M361 753T398 710T436 588Q436 574 432 538Q417 437 365 382T240 327Q175 327 137 370T98 493Q98 520 102 544Q116 643 169 698T296 753Q361 753 398 710ZM159 3Q155 -1 152 -2T142 -4H124Q115 -4
115 3Q115 8 119 12L710 746Q713 750 717 750T723 750H746Q751 750 753 748T752 740L159 3ZM296 362T337 412T390 543Q393 566 393 586Q393 646 367 682T294 719Q237 719 196 668T143 537Q140 516 140 496Q140 435 166 399T239 362Q296 362 337 412ZM758 416T796
373T834 252Q834 225 830 201Q815 100 763 45T638 -10Q573 -10 535 32T497 154Q497 182 501 206Q515 306 567 361T694 416Q758 416 796 373ZM674 24T706 48T760 113T789 205Q792 226 792 244Q792 305 765 343T693 381Q657 381 625 357T570 292T542 200Q539 181
539 161Q539 101 566 63T638 24Q674 24 706 48Z" />
<glyph unicode="&amp;" glyph-name="ampersand" horiz-adv-x="749" d="M454 753T497 719T540 626Q540 490 323 399Q312 396 312 391Q312 388 315 383L465 169Q468 165 470 165Q472 165 481 174Q527 210 584 279T660 386Q664 392 674 389L695 381Q699 379 701 375T702
367Q682 323 626 255T510 132Q504 129 503 126T505 117Q532 88 583 68T682 47Q698 47 695 35L693 14Q691 5 688 3T676 0Q625 0 561 27T462 87Q458 89 456 89Q450 89 446 82Q336 -5 216 -5Q127 -5 77 39T27 159Q27 168 29 190Q37 250 78 299T203 397Q210 400 214
403T218 410Q218 413 211 423Q161 484 161 547Q161 555 163 571Q170 622 202 663T282 729T386 753Q454 753 497 719ZM336 709T298 686T239 625T218 545Q218 522 225 502T249 459L270 433Q272 430 276 430Q281 430 287 433Q386 476 432 518T486 611Q487 616 487
627Q487 667 459 688T385 709Q336 709 298 686ZM259 366T253 366Q247 366 238 360Q167 330 125 276T82 161Q82 106 121 73T223 40Q272 40 322 60T412 115Q428 125 421 137L265 358Q259 366 253 366Z" />
<glyph unicode="&apos;" glyph-name="quotesingle" horiz-adv-x="236" d="M178 550Q176 544 174 543T166 541H147Q138 541 138 551L143 736Q144 742 150 742H218Q222 742 224 740T225 734L178 550Z" />
<glyph unicode="(" glyph-name="parenleft" horiz-adv-x="272" d="M153 -165T152 -157Q113 -69 93 11T72 178Q72 227 80 288Q97 406 151 522T285 738Q290 742 299 742H312Q316 742 317 739T318 732Q249 626 201 511T136 281Q127 218 127 156Q127 8 180 -160Q182
-162 182 -163T177 -165H161Q153 -165 152 -157Z" />
<glyph unicode=")" glyph-name="parenright" horiz-adv-x="272" d="M-37 -165T-38 -162T-39 -155Q30 -49 78 66T143 296Q152 359 152 421Q152 569 99 737Q97 739 97 740T102 742H118Q126 742 127 734Q166 646 186 566T207 399Q207 350 199 289Q182 171 128 55T-6
-161Q-11 -165 -20 -165H-33Q-37 -165 -38 -162Z" />
<glyph unicode="*" glyph-name="asterisk" horiz-adv-x="339" d="M220 564Q218 566 216 561L124 444Q122 441 120 443T116 446L93 463Q88 466 92 472L190 578Q192 582 189 583L83 615Q79 616 79 624L93 650Q94 652 96 652T100 651L200 611H201Q206 611 208 617L217
738Q217 742 224 742H258Q261 742 262 740T263 735L240 614Q240 609 244 612L358 657Q365 661 365 653L371 629Q371 628 371 625T368 621L254 583Q251 582 249 580T248 576L313 476Q315 473 315 471T311 465L285 449Q282 446 279 447T276 451L220 564Z" />
<glyph unicode="+" glyph-name="plus" horiz-adv-x="545" d="M494 395T494 387L489 359Q489 354 487 353T479 351H307L283 175Q282 168 276 168H248Q243 168 240 171T238 181L262 350H90Q81 350 81 359L86 388Q87 394 91 394H268L292 569Q293 574 294 575T300
577H329Q333 577 335 575T337 570L313 395H486Q494 395 494 387Z" />
<glyph unicode="," glyph-name="comma" horiz-adv-x="193" d="M-11 -136T-11 -134T-9 -126L52 -13Q54 -7 54 -6Q54 0 44 0H34Q29 0 28 1T27 7L37 78Q37 86 46 86H103Q110 86 108 77L99 18Q97 9 95 6L15 -128Q10 -136 2 -136H-6Q-11 -136 -11 -134Z" />
<glyph unicode="-" glyph-name="hyphen" horiz-adv-x="381" d="M310 251Q309 246 307 245T299 243L75 242Q66 242 66 251L71 281Q72 288 76 288L307 289Q311 289 313 287T315 281L310 251Z" />
<glyph unicode="." glyph-name="period" horiz-adv-x="188" d="M94 11Q93 4 90 2T79 0H34Q20 0 22 12L32 78Q33 84 34 85T40 87H96Q100 87 102 84T103 77L94 11Z" />
<glyph unicode="/" glyph-name="slash" horiz-adv-x="331" d="M-31 -56T-29 -49L333 737Q336 742 342 742H374Q385 742 380 729L22 -48Q20 -53 18 -54T10 -56H-23Q-31 -56 -29 -49Z" />
<glyph unicode="0" glyph-name="zero" horiz-adv-x="678" d="M504 752T564 679T624 468Q624 427 616 366Q599 243 553 159T443 32T302 -10Q202 -10 143 61T83 268Q83 312 91 370Q108 494 154 580T265 709T405 752Q504 752 564 679ZM401 39T467 121T558 372Q566
434 566 478Q566 592 523 647T404 703Q309 703 242 619T149 366Q141 305 141 263Q141 150 185 95T306 39Q401 39 467 121Z" />
<glyph unicode="1" glyph-name="one" horiz-adv-x="444" d="M369 50T367 42L362 8Q361 4 360 2T354 0H26Q18 0 19 8L24 44Q24 47 25 48T31 50H169Q175 50 176 56L262 669Q263 676 256 673L114 620L110 619Q103 619 105 627L108 654Q109 664 118 668L265 737Q276
742 290 742H321Q330 742 329 731L233 56Q232 50 238 50H360Q369 50 367 42Z" />
<glyph unicode="2" glyph-name="two" horiz-adv-x="577" d="M304 307Q394 385 443 449T492 580Q492 639 449 671T347 703Q297 703 243 678T149 604Q144 598 138 602L108 628Q106 629 106 632Q106 636 111 641Q158 696 224 724T356 752Q438 752 493 710T548 584Q548
526 523 477T456 383T339 272L100 62Q95 60 95 55Q95 51 102 51H473Q483 51 482 41L478 9Q477 5 475 3T469 0H32Q19 0 20 14L23 39Q24 51 28 57T44 74L304 307Z" />
<glyph unicode="3" glyph-name="three" horiz-adv-x="628" d="M131 653T136 659Q193 708 248 730T366 752Q432 752 480 731T553 674T579 590Q579 524 535 472T418 396Q413 394 413 392T419 388Q477 373 514 331T551 226Q551 161 516 108T412 22T250 -10Q191 -10
151 3T84 36T28 90Q25 94 25 96T27 100L59 124Q61 126 63 126T66 124Q97 80 146 60T258 39Q324 39 378 61T463 125T495 222Q495 290 439 328T304 366H214Q209 366 207 368T205 374L210 407Q210 413 218 413H291Q351 413 404 436T490 498T522 585Q522 637 480 670T366
703Q304 703 261 682T168 623Q164 620 161 620Q156 620 152 626L137 645Q131 653 136 659Z" />
<glyph unicode="4" glyph-name="four" horiz-adv-x="629" d="M467 742T478 742H520Q530 742 529 731L463 266Q462 259 469 259H569Q580 259 580 251L575 220Q574 215 572 213T564 211H463Q455 211 453 202L427 9Q426 4 424 2T416 0H377Q369 0 370 11L397 204V206Q397
211 391 211H53Q47 211 45 213T44 222L50 258Q51 265 53 270T62 283L463 737Q467 742 478 742ZM394 259Q401 259 402 268L456 649V651Q456 654 454 654Q452 654 443 644L114 271Q103 259 114 259H394Z" />
<glyph unicode="5" glyph-name="five" horiz-adv-x="644" d="M603 742Q610 742 611 740T612 732L604 698Q602 694 600 693T593 691H240Q232 691 230 682L173 419L172 415Q172 409 180 412Q270 465 369 465Q461 465 520 420T579 281Q579 197 538 131T426 27T266
-10Q125 -10 39 89Q35 94 35 96T39 101L64 122Q66 124 69 124Q73 124 77 120Q152 37 260 37Q335 37 394 67T487 152T521 276Q521 347 476 382T359 418Q304 418 259 400T157 348L149 346Q145 346 141 350L115 369Q109 375 109 378L111 387L187 734Q188 739 191 740T202
742H603Z" />
<glyph unicode="6" glyph-name="six" horiz-adv-x="649" d="M492 752T533 729T600 669Q603 663 598 659L565 641Q564 640 562 640Q558 640 552 649Q531 676 504 689T434 703Q314 703 243 619T152 398L150 383Q150 379 154 379Q157 379 163 381Q223 409 270 423T373
438Q474 438 529 388T584 255Q584 182 547 121T447 25T308 -10Q200 -10 141 62T82 266Q82 309 90 365Q116 547 206 649T434 752Q492 752 533 729ZM326 389T268 374T171 337Q149 323 143 305T136 249Q136 198 154 150T212 71T312 39Q369 39 418 67T497 144T527 247Q527
309 486 349T371 389Q326 389 268 374Z" />
<glyph unicode="7" glyph-name="seven" horiz-adv-x="590" d="M598 742Q608 742 606 733L603 707Q599 690 590 679Q511 583 430 454T288 204T203 13Q201 6 199 3T190 0H148Q140 0 140 8Q140 11 142 17Q192 148 293 329T528 681Q535 691 524 691H113Q106 691 107
701L115 735Q117 739 119 740T126 742H598Z" />
<glyph unicode="8" glyph-name="eight" horiz-adv-x="661" d="M493 752T548 706T604 577Q604 511 569 466T508 401T476 377Q471 372 471 369Q471 366 477 363Q523 342 554 308T586 207Q586 138 548 89T443 15T292 -10Q182 -10 120 35T57 166Q57 238 95 285T202
378Q209 383 209 386Q209 389 203 393Q176 411 161 425T137 462T128 518Q128 583 164 636T263 721T400 752Q493 752 548 706ZM336 704T288 680T212 614T184 525Q184 483 209 458T285 419L389 394Q392 393 399 393Q427 393 463 421T524 493T550 579Q550 636 509
670T395 704Q336 704 288 680ZM365 38T418 59T500 119T530 206Q530 250 504 280T428 324L281 362Q264 367 222 340T146 266T112 164Q112 107 161 73T297 38Q365 38 418 59Z" />
<glyph unicode="9" glyph-name="nine" horiz-adv-x="645" d="M183 -10T140 12T73 72Q67 79 73 83L104 99L109 101Q114 101 119 93Q140 65 170 52T248 39Q364 39 434 123T523 344Q524 348 524 354Q524 367 512 360Q453 333 408 319T306 304Q206 304 152 355T97
489Q97 563 134 623T235 717T372 752Q477 752 535 681T593 477Q593 349 553 238T434 58T246 -10Q183 -10 140 12ZM355 353T411 369T506 412Q528 424 535 442T542 497Q542 547 524 594T467 673T368 704Q311 704 262 676T184 599T154 496Q154 434 194 394T306 353Q355
353 411 369Z" />
<glyph unicode=":" glyph-name="colon" horiz-adv-x="188" d="M152 426Q151 419 149 417T138 415H92Q79 415 81 428L90 493Q91 502 98 502H154Q158 502 160 499T162 492L152 426ZM95 14Q94 7 91 5T79 3H34Q21 3 23 15L32 81Q33 86 34 87T40 89H96Q104 89 103 79L95 14Z" />
<glyph unicode=";" glyph-name="semicolon" horiz-adv-x="214" d="M80 415T81 427L90 493Q91 501 98 501H154Q163 501 162 491L152 426Q151 419 149 417T138 415H92Q80 415 81 427ZM-8 -136T-10 -133T-10 -124L51 -10Q54 -6 54 -3Q54 0 46 0H36Q31 0 29 3T27 9L37
81Q37 84 39 85T44 86H101Q108 86 108 78L99 16L96 4L16 -130Q12 -136 3 -136H-5Q-8 -136 -10 -133Z" />
<glyph unicode="&lt;" glyph-name="less" horiz-adv-x="528" d="M447 189Q446 180 441 178T430 178L77 326Q73 328 71 331T69 338L75 378Q75 383 77 385T84 389L478 538L486 540Q491 540 493 537T495 527L492 496Q491 491 487 488T476 482L142 357L437 232Q452
224 451 214L447 189Z" />
<glyph unicode="=" glyph-name="equal" horiz-adv-x="545" d="M504 459Q503 454 501 453T493 451L104 450Q95 450 96 459L99 487Q101 494 105 494L500 495Q504 495 506 493T508 487L504 459ZM473 237Q472 232 470 231T462 229L74 228Q63 228 65 238L68 266Q69
273 74 273L469 274Q473 274 475 272T477 266L473 237Z" />
<glyph unicode="&gt;" glyph-name="greater" horiz-adv-x="528" d="M64 222T68 225T79 232L412 357L116 483Q101 489 102 499L107 529Q108 540 115 540Q121 540 125 538L476 388Q486 385 485 376L479 336Q479 332 477 330T470 325L77 178Q74 177 70 177Q65 177
62 180T59 191L63 217Q64 222 68 225Z" />
<glyph unicode="?" glyph-name="question" horiz-adv-x="516" d="M86 620T88 629Q128 686 193 719T331 752Q421 752 472 710T524 595Q524 586 522 568Q514 511 482 469T390 370Q330 314 297 270T255 164Q253 157 247 157H215Q211 157 208 160T206 170Q213 217
233 256T280 324T347 393Q402 446 431 484T467 573Q468 580 468 593Q468 645 431 675T329 705Q272 705 215 675T135 603Q132 600 126 602L92 617Q86 620 88 629ZM244 11Q243 4 241 2T230 0H184Q178 0 175 3T173 12L183 78Q183 82 184 84T190 86H246Q254 86 254
76L244 11Z" />
<glyph unicode="@" glyph-name="at" horiz-adv-x="834" d="M506 -113T386 -113Q279 -113 203 -72T88 41T48 204Q48 237 52 264Q67 371 130 462T291 607T503 661Q585 661 655 632T769 542T812 391Q812 362 808 337Q798 263 765 205T684 114T583 81Q544 81 525 94T503
140Q503 145 501 145Q498 145 493 136Q431 67 342 67Q292 67 260 106T227 211Q227 234 229 246Q238 309 270 361T349 444T449 475Q489 475 517 456T558 403H559Q564 403 567 409L581 445Q582 448 583 448T588 449H620Q624 449 626 447T627 442L557 214Q547 184
547 163Q547 144 557 136T587 128Q625 128 660 154T720 227T755 336Q758 360 758 383Q758 461 722 513T626 589T500 614Q396 614 311 566T172 436T104 256Q100 220 100 204Q100 127 133 66T233 -30T400 -66Q458 -66 496 -52T586 -5Q589 -3 594 -3Q601 -3 605 -9L616
-27Q618 -30 618 -34Q618 -40 609 -47Q506 -113 386 -113ZM281 223T281 205Q281 162 299 139T351 115Q404 115 453 160T521 270Q531 303 531 332Q531 378 507 402T448 427Q386 427 341 374T284 242Q281 223 281 205Z" />
<glyph unicode="A" glyph-name="A" horiz-adv-x="706" d="M17 0T15 3T15 12L381 732Q384 738 387 740T398 742H442Q449 742 453 739T458 730L619 10V7Q619 0 611 0H576Q564 0 563 10L514 226Q513 230 512 231T506 232H191Q184 232 179 224L68 6Q66 0 56 0H22Q17
0 15 3ZM494 280Q504 280 502 292L416 668Q415 677 411 677Q407 677 402 665L211 293Q205 280 212 280H494Z" />
<glyph unicode="B" glyph-name="B" horiz-adv-x="687" d="M78 0T76 3T74 10L176 730Q177 737 179 739T188 742H397Q513 742 576 700T639 578Q639 504 599 454T484 381Q478 380 478 377T483 372Q541 360 574 323T607 227Q607 109 522 55T306 0H83Q78 0 76 3ZM361
399Q458 399 519 443T580 571Q580 634 531 664T389 695H238Q227 695 226 685L188 409V406Q188 399 195 399H361ZM298 47Q407 47 477 84T548 223Q548 289 497 320T357 351H192Q179 351 178 341L138 56V54Q138 47 147 47H298Z" />
<glyph unicode="C" glyph-name="C" horiz-adv-x="698" d="M503 752T556 725T642 653T674 554Q674 549 673 546T666 543L624 540Q617 540 616 551Q609 620 561 661T440 703Q338 703 271 639T173 478T142 275Q142 40 349 40Q427 40 483 77T580 193Q583 198 591 195L627
182Q633 180 630 172Q592 90 515 40T345 -10Q219 -10 151 65T83 279Q83 395 121 503T239 682T442 752Q503 752 556 725Z" />
<glyph unicode="D" glyph-name="D" horiz-adv-x="707" d="M80 0T77 3T74 13L176 734Q177 742 188 742H309Q488 742 571 673T655 463Q655 236 543 118T203 0H85Q80 0 77 3ZM203 47Q409 47 502 151T595 464Q595 550 563 600T467 672T300 694H237Q226 694 225 682L140
61L139 56Q139 47 150 47H203Z" />
<glyph unicode="E" glyph-name="E" horiz-adv-x="616" d="M177 739T178 740T186 742H611Q618 742 616 733L612 703Q611 694 601 694H237Q227 694 226 686L187 405Q186 399 193 399H479Q487 399 485 390L480 358Q479 354 477 353T470 351H188Q183 351 181 349T178
341L139 56Q138 51 139 50T145 48H524Q534 48 533 39L529 7Q528 2 527 1T521 0H84Q78 0 76 2T74 12L176 733Q177 739 178 740Z" />
<glyph unicode="F" glyph-name="F" horiz-adv-x="587" d="M177 739T179 740T187 742H599Q608 742 606 733L602 703Q601 698 599 696T592 694H238Q232 694 230 692T226 684L186 395V392Q186 386 193 386H485Q492 386 492 379L489 348Q489 339 479 339H186Q181 339
180 337T176 328L132 7Q130 0 121 0H81Q75 0 74 2T74 12L176 732Q177 739 179 740Z" />
<glyph unicode="G" glyph-name="G" horiz-adv-x="732" d="M216 -10T150 65T83 278Q83 405 125 513T248 687T441 752Q503 752 557 725T642 653T674 556Q674 550 673 549T668 546L623 539H621Q616 539 616 550Q615 592 592 627T529 682T439 703Q342 703 276 644T176
487T143 275Q143 159 193 99T341 39Q413 39 468 72T555 155T596 254L607 327V330Q607 334 605 335T598 336H415Q410 336 409 337T408 343L411 372Q412 377 417 377H657Q666 377 664 369L613 10Q612 4 610 2T601 0H583Q575 0 573 2T571 10L583 114Q583 119 581 119Q579
119 574 113Q539 59 478 25T337 -10Q216 -10 150 65Z" />
<glyph unicode="H" glyph-name="H" horiz-adv-x="727" d="M188 362Q182 362 180 354L132 9Q130 4 128 2T120 0H84Q73 0 74 12L176 733Q177 739 178 740T186 742H224Q230 742 232 740T232 731L189 419V414Q189 411 190 411T196 410H571Q580 410 582 420L626 734Q627
739 628 740T634 742H674Q685 742 682 730L581 10Q580 4 578 2T571 0H535Q523 0 524 11L572 356Q573 360 572 361T567 362H188Z" />
<glyph unicode="I" glyph-name="I" horiz-adv-x="278" d="M224 742Q235 742 232 730L132 12Q130 4 128 2T118 0H86Q73 0 74 12L176 733Q177 739 178 740T186 742H224Z" />
<glyph unicode="J" glyph-name="J" horiz-adv-x="403" d="M270 70T233 30T123 -10Q72 -10 18 14Q9 20 11 25L27 62Q29 65 31 65Q34 65 40 62Q78 43 122 43Q170 43 193 70T226 162L306 733Q307 738 308 740T314 742H355Q364 742 362 730L281 147Q270 70 233 30Z" />
<glyph unicode="K" glyph-name="K" horiz-adv-x="680" d="M598 0T590 0H541Q533 0 531 7L336 403Q335 407 332 407Q331 407 329 405T324 401L176 258Q171 254 168 250T164 241L132 9Q131 4 129 2T120 0H85Q72 0 74 11L176 734Q177 739 178 740T185 742H225Q229
742 231 739T233 732L177 331Q176 328 177 328T179 328T183 332L609 736Q615 742 626 742H673Q678 742 678 739T675 732L382 454Q381 453 380 452T379 446L592 11Q598 0 590 0Z" />
<glyph unicode="L" glyph-name="L" horiz-adv-x="591" d="M177 738T179 740T187 742H226Q231 742 232 740T232 730L139 56Q138 51 139 50T145 48H504Q515 48 513 39L509 7Q508 3 507 2T501 0H84Q73 0 74 12L176 732Q177 738 179 740Z" />
<glyph unicode="M" glyph-name="M" horiz-adv-x="885" d="M75 0T74 2T74 12L176 733Q177 739 178 740T186 742H230Q237 742 240 735L407 84Q409 76 412 76Q416 76 422 87L774 735Q778 742 786 742H832Q837 742 839 740T840 731L739 10Q738 4 736 2T729 0H693Q681
0 682 11L766 613Q767 617 766 617T764 614L436 10Q433 4 430 2T419 0H382Q376 0 373 2T369 12L216 610Q215 614 214 614T211 610L127 9Q126 4 124 2T116 0H81Q75 0 74 2Z" />
<glyph unicode="N" glyph-name="N" horiz-adv-x="755" d="M702 742Q707 742 709 740T710 731L609 9Q608 4 607 2T600 0H577Q570 0 566 1T559 8L226 623Q223 629 219 629Q215 629 213 620L127 9Q126 4 124 2T116 0H84Q73 0 74 12L176 733Q177 739 178 740T186 742H213Q224
742 228 733L557 122Q561 115 566 115Q572 115 573 126L659 734Q660 739 661 740T667 742H702Z" />
<glyph unicode="O" glyph-name="O" horiz-adv-x="759" d="M218 -10T151 63T83 275Q83 322 90 370Q116 554 210 653T446 752Q570 752 637 677T705 461Q705 414 698 366Q673 185 580 88T343 -10Q218 -10 151 63ZM593 39T640 371Q647 423 647 470Q647 703 445 703Q323
703 248 619T149 366Q142 318 142 272Q142 39 347 39Q593 39 640 371Z" />
<glyph unicode="P" glyph-name="P" horiz-adv-x="678" d="M185 323Q176 323 174 313L132 9Q130 4 128 2T122 0H83Q78 0 76 3T74 10L176 731Q177 738 178 740T186 742H414Q527 742 592 700T657 567Q657 449 578 386T365 323H185ZM598 637T550 666T408 695H238Q228
695 226 685L184 383V378Q184 374 185 373T191 371H367Q475 371 536 422T598 569Q598 637 550 666Z" />
<glyph unicode="Q" glyph-name="Q" horiz-adv-x="760" d="M116 556T209 654T445 752Q570 752 637 678T705 463Q705 415 698 366Q680 238 631 156T503 27Q494 22 494 15Q495 1 512 -18T557 -52T618 -72Q627 -73 626 -82L621 -115Q620 -119 615 -120T599 -122Q562
-122 517 -94T439 -3Q436 2 424 -1Q385 -10 343 -10Q220 -10 152 63T83 277Q83 324 90 372Q116 556 209 654ZM142 315T142 268Q142 39 345 39Q467 39 541 121T640 371Q647 421 647 469Q647 585 596 644T444 703Q322 703 247 617T149 364Q142 315 142 268Z" />
<glyph unicode="R" glyph-name="R" horiz-adv-x="683" d="M572 6Q572 0 561 0H523Q513 0 511 11L417 342Q415 347 412 349T399 351H190Q184 351 182 349T178 339L132 11Q130 4 129 2T120 0H85Q72 0 74 11L176 733Q177 739 178 740T186 742H448Q549 742 603 703T658
587Q658 503 611 443T481 363Q470 359 472 355L570 14L572 6ZM478 398T537 441T597 581Q597 639 559 667T442 695H240Q229 695 226 686L187 407V404Q187 398 193 398H366Q478 398 537 441Z" />
<glyph unicode="S" glyph-name="S" horiz-adv-x="623" d="M525 660T483 681T381 703Q324 703 278 682T206 623T179 535Q179 461 280 423L413 373Q485 345 518 306T551 213Q551 142 516 92T418 16T275 -10Q189 -10 132 21T39 116Q37 120 37 123Q37 130 46 136L64
147Q69 151 74 151Q80 151 84 144Q121 87 162 63T278 39Q377 39 435 80T494 205Q494 241 470 267T384 318L241 375Q178 400 150 440T122 528Q122 595 157 646T252 724T386 752Q455 752 505 727T594 653Q598 648 598 645T595 639L564 616L562 615Q560 615 557 618T551
624Q525 660 483 681Z" />
<glyph unicode="T" glyph-name="T" horiz-adv-x="628" d="M112 735Q113 740 114 741T120 742H642Q650 742 648 733L643 703Q642 694 633 694H424Q417 694 415 692T411 684L317 10Q316 3 314 2T307 0H268Q262 0 260 2T259 12L354 682V685Q354 690 352 692T343 694H115Q107
694 108 703L112 735Z" />
<glyph unicode="U" glyph-name="U" horiz-adv-x="704" d="M581 109T511 50T315 -10Q202 -10 148 38T93 186Q93 211 98 251L166 732Q167 738 168 740T175 742H213Q225 742 222 730L152 229Q149 205 149 185Q149 39 320 39Q523 39 550 234L620 733Q621 739 622 740T629
742H661Q669 742 669 731L599 233Q581 109 511 50Z" />
<glyph unicode="V" glyph-name="V" horiz-adv-x="694" d="M710 742T711 740T710 731L347 11Q343 4 340 2T329 0H289Q280 0 276 2T270 12L117 732V735Q117 742 126 742H160Q166 742 168 740T172 732L312 77Q315 68 317 68Q321 68 324 75L656 735Q660 742 668 742H705Q710
742 711 740Z" />
<glyph unicode="W" glyph-name="W" horiz-adv-x="1027" d="M1043 742T1041 730L732 11Q729 4 726 2T714 0H676Q660 0 658 12L570 638Q569 644 564 638L296 11Q293 4 290 2T278 0H239Q231 0 227 2T222 12L120 731V734Q120 742 129 742H163Q169 742 171 740T175
732L266 89Q268 80 270 80Q274 80 277 89L552 735Q553 739 556 740T566 742H599Q606 742 608 740T611 732L702 87Q702 79 706 79Q708 79 713 90L988 735Q990 742 1001 742H1033Q1043 742 1041 730Z" />
<glyph unicode="X" glyph-name="X" horiz-adv-x="668" d="M581 4T580 2T574 0H529Q522 0 520 6L351 321Q347 328 343 328Q339 328 335 323L75 4Q71 0 64 0H18Q12 0 12 3Q12 6 17 14L307 370Q314 379 314 384Q314 388 311 392L129 734Q126 742 132 742H180Q185
742 187 741T190 736L348 437Q351 432 354 432Q357 432 362 437L608 738Q611 742 618 742H667Q675 742 670 733L387 386Q383 382 383 380T385 373L577 11Q581 4 580 2Z" />
<glyph unicode="Y" glyph-name="Y" horiz-adv-x="647" d="M665 742T666 738T664 729L368 326Q362 316 361 303L319 13Q318 6 315 3T302 0H271Q265 0 263 3T262 13L302 296L303 306Q303 311 300 317L115 730Q113 733 113 737Q113 742 122 742H157Q164 742 167 740T173
731L328 382Q332 372 338 372Q344 372 351 382L605 734Q609 739 612 740T623 742H660Q665 742 666 738Z" />
<glyph unicode="Z" glyph-name="Z" horiz-adv-x="607" d="M16 0T17 9L20 26Q21 36 29 45L533 688Q538 694 530 694H134Q125 694 127 704L131 736Q131 739 132 740T137 742H612Q620 742 619 734L616 715Q615 708 609 701L101 55Q95 48 102 48H514Q521 48 521 41L516
7Q515 3 514 2T508 0H27Q16 0 17 9Z" />
<glyph unicode="[" glyph-name="bracketleft" horiz-adv-x="272" d="M50 -165T47 -162T44 -155L168 736Q169 740 170 741T177 742H316Q324 742 323 735L320 706Q319 701 312 701H224Q220 701 217 698T214 690L98 -118Q98 -123 99 -123T104 -124H192Q201 -124 201
-133L197 -158Q196 -163 195 -164T189 -165H55Q50 -165 47 -162Z" />
<glyph unicode="\" glyph-name="backslash" horiz-adv-x="331" d="M222 -56T221 -46L82 732Q81 738 82 740T88 742H120Q124 742 126 740T128 734L270 -52Q270 -54 269 -55T264 -56H232Q222 -56 221 -46Z" />
<glyph unicode="]" glyph-name="bracketright" horiz-adv-x="272" d="M-45 -165T-44 -158L-40 -129Q-39 -124 -33 -124H55Q60 -124 63 -121T66 -113L181 695Q181 700 181 700T175 701H87Q83 701 81 703T78 710L82 735Q83 740 84 741T90 742H225Q230 742 233 739T235
732L111 -159Q110 -163 109 -164T102 -165H-36Q-45 -165 -44 -158Z" />
<glyph unicode="^" glyph-name="asciicircum" horiz-adv-x="476" d="M269 454Q268 458 265 458Q261 458 259 452L92 144Q90 140 88 139T82 138H47Q43 138 42 141T42 150L236 505Q254 540 275 540Q295 540 304 503L400 144Q401 139 400 138T394 136H360Q355 136
352 138T348 145L269 454Z" />
<glyph unicode="_" glyph-name="underscore" horiz-adv-x="505" d="M386 -97Q385 -102 383 -103T375 -105L26 -106Q16 -106 18 -96L21 -66Q23 -59 27 -59L382 -58Q386 -58 388 -60T390 -67L386 -97Z" />
<glyph unicode="`" glyph-name="grave" horiz-adv-x="275" d="M91 753T98 751L314 656Q321 654 319 644L309 628Q308 623 306 623T298 624L81 699Q69 703 74 714L90 749Q91 753 98 751Z" />
<glyph unicode="a" glyph-name="a" horiz-adv-x="540" d="M286 -10T179 -10Q107 -10 67 23T26 114Q26 209 105 254T302 310L402 318Q410 319 416 323T423 334L427 364Q429 380 429 388Q429 439 396 468T304 497Q254 497 211 475T128 406Q122 400 117 404L88 420Q85
422 85 425Q85 427 88 433Q127 482 183 511T308 540Q389 540 433 502T478 396Q478 386 476 366L426 10Q425 4 423 2T415 0H390Q378 0 380 11L387 69Q387 75 385 75Q382 75 377 68Q286 -10 179 -10ZM412 265V269Q412 275 410 277T401 278L316 271Q79 253 79 120Q79
80 109 57T192 34Q228 34 264 47T330 82Q360 103 378 126T400 172L412 265Z" />
<glyph unicode="b" glyph-name="b" horiz-adv-x="594" d="M64 0Q50 0 53 15L154 733Q155 738 157 740T163 742H196Q205 742 203 729L168 478L167 472Q167 469 169 469Q170 469 179 476Q182 478 205 494T270 525T357 540Q450 540 496 483T542 330Q542 247 512 169T421
40T272 -10Q207 -10 170 16T118 69Q117 72 113 72Q108 72 106 63L96 13Q95 5 92 3T80 0H64ZM125 176Q124 171 124 160Q124 125 144 96T197 50T267 33Q337 33 387 76T463 186T489 326Q489 407 452 452T344 497Q293 497 245 473T160 412L125 176Z" />
<glyph unicode="c" glyph-name="c" horiz-adv-x="538" d="M460 540T516 427Q522 418 515 415L483 402L481 401Q478 401 473 410Q441 457 409 477T336 497Q265 497 212 456T131 350T102 214Q102 130 145 82T266 33Q317 33 360 58T443 134Q447 138 449 138T454 135L479
120Q482 118 483 115T483 108Q440 51 383 21T260 -10Q163 -10 107 51T50 213Q50 294 84 369T182 492T333 540Q460 540 516 427Z" />
<glyph unicode="d" glyph-name="d" horiz-adv-x="594" d="M433 0Q420 0 422 13L430 62L431 66Q431 70 428 70Q427 70 418 63Q341 -10 247 -10Q158 -10 104 44T50 201Q50 283 83 361T180 490T333 540Q381 540 412 525T470 485Q475 480 480 480Q487 480 488 495L522
732Q523 738 524 740T532 742H563Q573 742 571 731L470 12Q469 5 467 3T457 0H433ZM479 424Q448 460 413 478T336 497Q264 497 211 455T130 345T102 206Q102 121 146 77T259 33Q304 33 344 55T411 109T443 172L479 424Z" />
<glyph unicode="e" glyph-name="e" horiz-adv-x="578" d="M165 -10T108 50T50 212Q50 296 84 371T184 493T336 540Q430 540 482 485T535 329Q535 298 531 270Q529 252 512 252H112Q105 252 103 244T100 207Q100 129 146 82T266 34Q381 34 451 126Q454 130 456
130T463 127L488 111Q491 109 491 106T490 99Q446 44 390 17T263 -10Q165 -10 108 50ZM465 292Q477 292 482 301T488 340Q488 411 446 454T333 497Q272 497 224 467T147 390T111 292H465Z" />
<glyph unicode="f" glyph-name="f" horiz-adv-x="367" d="M375 530T377 528T378 522L374 495Q374 492 373 491T367 489H238Q231 489 229 480L163 10Q162 4 161 2T154 0H122Q117 0 115 3T113 12L179 483Q181 489 175 489H64Q58 489 58 497L62 524Q62 527 63 528T68
530H177Q181 530 184 532T187 539L199 618Q208 681 239 711T331 742H405Q415 742 413 733L409 708Q408 704 407 703T400 701H323Q288 701 272 682T249 622L237 536Q236 532 237 531T242 530H372Q375 530 377 528Z" />
<glyph unicode="g" glyph-name="g" horiz-adv-x="586" d="M104 -175T47 -140T-11 -44Q-11 -2 17 33T94 92Q101 95 102 97T99 103Q69 124 69 150Q69 175 91 193T147 224Q153 227 154 231T152 237Q87 273 87 344Q87 404 117 448T199 515T313 538Q413 538 461 492Q465
488 469 488Q471 488 481 494Q536 532 573 532Q584 532 588 529T592 518L590 500Q588 491 585 488T572 484Q542 483 516 470Q500 463 494 458T490 446Q501 417 501 391Q501 331 470 290T388 229T274 209Q226 209 174 199T121 158Q121 143 143 136T219 125L340 118Q482
111 482 -2Q482 -91 405 -133T213 -175Q104 -175 47 -140ZM353 250T403 285T454 397Q454 445 419 471T315 497Q240 497 188 458T135 347Q135 300 171 275T276 250Q353 250 403 285ZM304 -134T367 -105T431 -4Q431 33 409 50T333 70L164 81Q108 68 74 38T40 -37Q40
-134 213 -134Q304 -134 367 -105Z" />
<glyph unicode="h" glyph-name="h" horiz-adv-x="578" d="M62 0Q57 0 54 3T52 11L154 733Q155 739 156 740T163 742H192Q202 742 201 732L163 467Q162 456 169 460Q242 505 282 522T372 540Q442 540 479 507T517 417Q517 409 515 391L461 10Q460 4 458 2T451 0H421Q416
0 413 3T411 11L463 377Q465 395 465 405Q465 496 363 496Q315 496 273 476T158 405L102 9Q101 4 99 2T92 0H62Z" />
<glyph unicode="i" glyph-name="i" horiz-adv-x="226" d="M197 655Q196 647 194 644T183 640H148Q136 640 138 656L148 729Q149 742 162 742H197Q202 742 205 738T207 727L197 655ZM102 12Q101 4 99 2T89 0H64Q51 0 52 12L124 521Q125 527 126 528T133 530H165Q176
530 174 518L102 12Z" />
<glyph unicode="j" glyph-name="j" horiz-adv-x="226" d="M197 655Q196 647 194 644T183 640H148Q136 640 138 656L148 729Q149 742 162 742H197Q202 742 205 738T207 727L197 655ZM85 -113T56 -141T-40 -170Q-84 -170 -95 -168T-106 -159L-102 -133Q-102 -130
-101 -129T-96 -127L-39 -125Q0 -124 19 -105T45 -40L124 521Q125 526 127 528T134 530H165Q176 530 174 518L94 -47Q85 -113 56 -141Z" />
<glyph unicode="k" glyph-name="k" horiz-adv-x="544" d="M477 8T477 4Q477 0 469 0H430Q422 0 417 9L282 294Q280 296 278 296T273 292L132 167Q123 158 122 149L102 12Q101 4 99 2T89 0H64Q51 0 52 12L154 733Q155 739 156 740T163 742H195Q206 742 203 730L135
240Q134 237 134 233Q134 231 135 231Q136 231 143 237L459 521Q465 527 468 528T477 530H516Q525 530 525 524Q525 519 519 513L329 343Q325 340 324 337T323 330L474 12Q477 8 477 4Z" />
<glyph unicode="l" glyph-name="l" horiz-adv-x="226" d="M102 12Q101 4 99 2T89 0H64Q51 0 52 12L154 733Q155 739 156 740T164 742H195Q206 742 203 730L102 12Z" />
<glyph unicode="m" glyph-name="m" horiz-adv-x="899" d="M57 0T54 3T52 11L124 521Q125 526 126 528T132 530H163Q172 530 171 520L163 465Q162 456 168 460Q235 504 275 522T362 540Q421 540 454 514T492 452Q492 450 494 450Q496 450 500 453T508 459Q576 504
616 522T702 540Q768 540 803 507T838 418Q838 410 836 390L782 10Q781 4 779 2T772 0H742Q737 0 734 3T732 11L784 376Q786 387 786 407Q786 451 764 473T693 496Q646 496 605 475T518 418Q506 410 501 404T495 388L442 10Q441 0 432 0H402Q397 0 394 3T392 11L444
377Q446 397 446 406Q446 496 353 496Q307 496 268 476T158 405L102 9Q101 4 99 2T92 0H62Q57 0 54 3Z" />
<glyph unicode="n" glyph-name="n" horiz-adv-x="578" d="M57 0T54 3T52 11L124 521Q125 526 126 528T132 530H163Q173 530 171 521L162 460Q161 454 162 453T169 456Q224 498 272 519T372 540Q442 540 479 507T517 417Q517 409 515 391L461 10Q460 0 451 0H420Q416
0 413 3T411 11L463 376Q465 396 465 405Q465 496 363 496Q315 496 273 476T158 405L102 9Q101 4 99 2T91 0H62Q57 0 54 3Z" />
<glyph unicode="o" glyph-name="o" horiz-adv-x="598" d="M164 -10T107 50T50 212Q50 305 88 380T192 497T337 540Q434 540 490 478T547 312Q547 220 509 147T406 32T262 -10Q164 -10 107 50ZM331 34T383 69T466 169T496 317Q496 400 453 448T335 497Q270 497
217 461T133 359T102 213Q102 130 145 82T266 34Q331 34 383 69Z" />
<glyph unicode="p" glyph-name="p" horiz-adv-x="592" d="M33 -165T31 -162T29 -154L124 518Q125 526 127 528T137 530H161Q167 530 170 527T172 518L164 468V466Q164 462 166 462Q170 462 176 468Q178 470 199 490T261 525T346 540Q434 540 487 486T541 331Q541
248 509 170T413 41T262 -10Q215 -10 180 5T123 42Q118 46 114 46Q107 46 105 32L79 -156Q78 -162 77 -163T70 -165H37Q33 -165 31 -162ZM329 33T381 75T461 185T489 324Q489 409 446 453T334 497Q288 497 248 476T182 424T152 363L114 106Q146 70 181 52T258 33Q329
33 381 75Z" />
<glyph unicode="q" glyph-name="q" horiz-adv-x="594" d="M397 -165T398 -152L424 34Q425 38 425 43Q425 46 424 46Q422 46 412 39Q380 18 338 4T251 -10Q157 -10 105 49T52 210Q52 291 81 366T172 491T323 540Q373 540 404 528T449 503T478 470Q482 466 484 466Q488
466 491 476L502 518Q503 525 507 527T520 530H533Q545 530 541 515L448 -156Q447 -165 437 -165H406Q397 -165 398 -152ZM307 33T353 53T434 109L470 354Q471 359 471 369Q471 403 453 432T403 479T329 497Q259 497 208 456T131 350T104 214Q104 129 147 81T262
33Q307 33 353 53Z" />
<glyph unicode="r" glyph-name="r" horiz-adv-x="362" d="M57 0T54 3T52 11L124 521Q125 526 126 528T132 530H162Q172 530 171 520L161 456V454Q161 450 163 450T170 454Q216 500 256 520T338 540Q375 540 373 529L368 495Q368 490 365 490L331 491Q299 491 258
471T186 421T151 359L102 9Q101 4 99 2T92 0H62Q57 0 54 3Z" />
<glyph unicode="s" glyph-name="s" horiz-adv-x="504" d="M134 -10T80 21T8 103Q4 111 10 114L37 129Q38 130 41 130Q45 130 48 125Q68 81 109 57T210 33Q246 33 286 44T354 80T383 145Q383 202 282 233L183 262Q70 297 70 374Q70 425 100 462T179 520T284 540Q348
540 395 516T465 445Q466 444 466 441Q466 438 461 435L437 421Q436 420 434 420Q429 420 426 425Q407 460 371 478T281 497Q245 497 208 485T146 448T121 387Q121 364 139 345T203 311L330 271Q381 255 407 224T433 153Q433 101 400 65T315 9T209 -10Q134 -10
80 21Z" />
<glyph unicode="t" glyph-name="t" horiz-adv-x="365" d="M153 0T131 19T108 83Q108 95 110 121L160 482Q161 486 160 487T155 489H64Q58 489 58 497L62 525Q63 530 68 530H160Q163 530 166 532T169 539L201 701Q202 710 212 710H234Q243 710 242 697L219 537Q218
533 219 532T224 530H360Q369 530 367 522L363 494Q363 491 362 490T356 489H220Q212 489 210 480L161 127Q158 108 158 94Q158 63 170 52T211 41H287Q296 41 296 32L292 11Q291 5 286 3Q262 0 205 0Q153 0 131 19Z" />
<glyph unicode="u" glyph-name="u" horiz-adv-x="573" d="M142 -10T102 25T61 118Q61 132 62 140L116 520Q117 526 119 528T126 530H156Q161 530 164 527T166 519L115 159Q113 141 113 134Q113 34 214 34Q262 34 310 60T416 137L471 521Q472 526 474 528T481 530H511Q516
530 519 527T521 519L449 9Q448 3 447 2T440 0H411Q401 0 402 9L411 69V72Q411 78 403 73Q338 26 293 8T207 -10Q142 -10 102 25Z" />
<glyph unicode="v" glyph-name="v" horiz-adv-x="534" d="M535 530T538 527T539 519L261 11Q257 5 253 3T242 0H223Q215 0 210 3T203 12L68 520V523Q68 530 77 530H108Q118 530 120 520L236 80Q238 71 242 71Q246 71 252 83L490 523Q493 527 495 528T502 530H530Q535
530 538 527Z" />
<glyph unicode="w" glyph-name="w" horiz-adv-x="786" d="M783 530T785 527T787 519L566 10Q562 0 549 0H517Q509 0 504 3T499 12L423 434Q422 441 419 441Q416 441 413 431L226 10Q224 4 221 2T210 0H175Q159 0 157 12L72 520V523Q72 530 80 530H112Q123 530
123 520L197 80Q198 72 201 72Q206 72 210 84L408 524Q409 528 411 529T418 530H446Q451 530 454 527T458 520L538 80Q539 72 542 72Q546 72 550 84L742 523Q746 530 755 530H778Q783 530 785 527Z" />
<glyph unicode="x" glyph-name="x" horiz-adv-x="522" d="M453 5T453 3T447 0H405Q401 0 397 2T392 7L262 224Q260 229 256 229Q254 229 247 222L49 5Q47 0 35 0H4Q-6 0 -6 6Q-6 12 0 18L225 260Q235 270 230 278L84 521Q81 524 82 527T88 530H127Q136 530 139
523L266 315Q267 311 271 311Q275 311 281 318L462 525Q465 529 468 529T476 530H509Q515 530 516 527T515 519L302 282Q291 271 297 264L448 13Q453 5 453 3Z" />
<glyph unicode="y" glyph-name="y" horiz-adv-x="513" d="M38 -165T19 -165T-8 -163T-15 -155L-12 -135Q-11 -128 -4 -125T20 -122H77Q104 -122 130 -99T174 -42T191 19Q191 25 189 35L66 516L65 521Q65 530 75 530H109Q119 530 120 523L229 91Q231 82 235 82Q241
82 246 93L472 521Q475 530 484 530H514Q522 530 517 521L206 -69Q179 -121 140 -143T45 -165Q38 -165 19 -165Z" />
<glyph unicode="z" glyph-name="z" horiz-adv-x="463" d="M-3 0T-1 9L2 31Q3 40 15 53L389 480Q393 484 393 487T387 490H95Q91 490 90 492T89 499L93 523Q94 530 102 530H452Q457 530 457 524L452 498Q451 485 440 476L67 50Q59 41 68 41H388Q396 41 394 34L390
9Q389 3 388 2T381 0H6Q-3 0 -1 9Z" />
<glyph unicode="{" glyph-name="braceleft" horiz-adv-x="276" d="M120 -165T94 -143T68 -85Q68 -74 69 -69L102 164Q103 168 103 177Q103 214 79 241T8 268Q5 268 3 270T2 276L5 305Q6 310 8 310Q63 311 97 342T138 421L171 650Q176 692 208 717T294 742H319Q328
742 327 735L323 706Q322 701 316 701H294Q259 701 242 688T221 646L189 416Q180 359 150 328T78 292Q71 291 69 289T73 285Q109 282 131 259T154 190Q154 182 152 162L120 -70Q119 -75 119 -84Q119 -105 132 -114T177 -124H197Q205 -124 205 -133L202 -158Q201
-163 200 -164T193 -165H171Q120 -165 94 -143Z" />
<glyph unicode="|" glyph-name="bar" horiz-adv-x="266" d="M61 -165Q57 -165 54 -163T51 -157L191 840Q191 843 192 845T198 847H227Q237 847 235 835L97 -158Q96 -162 95 -163T89 -165H61Z" />
<glyph unicode="}" glyph-name="braceright" horiz-adv-x="276" d="M-45 -165T-44 -158L-40 -129Q-39 -124 -33 -124H-11Q24 -124 41 -111T62 -69L94 161Q103 218 133 249T204 285Q211 286 213 288T210 292Q173 295 151 319T128 389Q128 397 130 415L163 647Q164
652 164 661Q164 682 151 691T106 701H86Q82 701 80 703T78 710L81 735Q82 740 83 741T89 742H112Q163 742 189 721T215 664Q215 658 213 646L181 413Q180 409 180 400Q180 363 204 336T274 309Q277 309 279 307T280 301L276 273Q275 267 273 267Q219 266 186 235T145
156L112 -73Q107 -115 75 -140T-12 -165H-36Q-45 -165 -44 -158Z" />
<glyph unicode="~" glyph-name="asciitilde" horiz-adv-x="548" d="M481 355T451 343T382 331Q354 331 333 337T285 355Q259 366 242 371T203 377Q139 377 96 334Q94 333 91 333Q87 333 86 340L79 362Q76 369 80 374Q112 396 138 407T200 419Q225 419 246 413T296
395Q323 384 342 379T384 373Q418 373 439 383T479 412L485 414Q489 414 491 406L499 383Q500 382 500 379Q500 375 496 370Q481 355 451 343Z" />
<glyph unicode="&#xa0;" glyph-name="uni00A0" horiz-adv-x="219" />
<glyph unicode="&#xa1;" glyph-name="exclamdown" horiz-adv-x="235" d="M178 447T177 446T172 444H116Q108 444 109 455L118 520Q119 526 121 528T129 530H175Q191 530 189 517L179 451Q178 447 177 446ZM90 -165T84 -165H33Q31 -165 29 -163T27 -156L113 368Q114
373 115 374T122 375H139Q152 375 150 364L90 -159Q90 -165 84 -165Z" />
<glyph unicode="&#xa2;" glyph-name="cent" horiz-adv-x="558" d="M500 529T493 526L461 513L459 512Q456 512 451 521Q419 568 387 588T314 608Q243 608 190 567T109 461T80 325Q80 241 123 193T244 144Q295 144 338 169T421 245Q425 249 427 249T432 246L457
231Q460 229 461 226T461 219Q391 125 287 105L273 13Q272 5 269 3T259 0H240Q233 0 230 4T228 14L240 101H238Q141 101 85 162T28 324Q28 405 62 480T160 603T311 651H317L329 733Q330 738 332 740T339 742H366Q375 742 375 732L362 646Q450 627 494 538Q500 529
493 526Z" />
<glyph unicode="&#xa3;" glyph-name="sterling" horiz-adv-x="601" d="M-19 0T-22 3T-24 10L-20 41Q-20 44 -19 45T-13 47H21Q63 46 97 90T144 218Q151 266 151 354Q151 356 150 356T146 357H54Q52 357 50 359T49 365L53 394Q53 399 57 399H140Q143 399 146 401T149
407L141 479Q139 501 139 511Q139 583 171 638T257 722T370 752Q411 752 448 738T509 701T540 653Q542 650 541 649T538 647T535 646L503 633L499 632Q494 632 492 639Q465 702 372 702Q305 702 256 665T198 563Q194 538 194 502Q194 458 201 404Q205 400 208 400H375Q378
400 380 398T381 393L377 363Q376 358 371 358H215Q204 358 204 348Q205 337 205 313Q205 275 199 230Q189 161 167 118T122 53Q121 52 119 51T118 49T121 48H324Q379 48 416 66T477 127Q482 131 488 129L516 119Q524 114 521 108Q460 0 321 0H-15Q-19 0 -22 3Z"
/>
<glyph unicode="&#xa4;" glyph-name="currency" horiz-adv-x="518" d="M194 199T156 232Q154 233 151 233Q147 233 142 228L95 186Q89 182 86 182Q83 182 76 189L65 203Q60 208 60 213Q60 217 64 221L112 262Q119 270 116 279Q98 313 98 352Q98 418 144 475Q150
481 147 486L111 527Q107 535 107 537Q107 541 112 546L129 560Q133 564 137 564Q142 564 145 558L182 516Q184 514 185 514Q188 514 193 517Q239 546 295 546Q352 546 388 513L392 512Q396 512 403 517L456 563Q463 568 468 561L486 541Q490 534 486 529L432 481Q425
476 428 469Q447 436 447 393Q447 361 436 330T403 274Q399 270 398 267T400 261L440 216Q446 208 441 203L417 183Q412 178 406 185L368 231Q361 237 356 230Q305 199 251 199Q194 199 156 232ZM293 248T326 268T380 323T401 394Q401 437 371 467T295 498Q257
498 224 478T170 424T149 354Q149 310 179 279T255 248Q293 248 326 268Z" />
<glyph unicode="&#xa5;" glyph-name="yen" horiz-adv-x="585" d="M631 742T633 738T632 729L344 339H485Q489 339 491 337T493 331L490 305Q489 300 487 299T478 297H329L315 197H465Q468 197 471 195T473 189L469 163Q468 158 466 157T458 155H309L289 13Q287
5 284 3T273 0H244Q237 0 234 4T231 13L251 154H103Q98 154 95 157T93 164L97 189Q98 196 102 196H257L271 296H123Q112 296 114 305L117 331Q117 335 118 336T123 338H263L86 730Q85 732 85 736Q85 742 95 742H132Q139 742 142 740T148 731L302 382Q307 373 309
373Q312 373 319 383L576 734Q581 740 584 741T595 742H625Q631 742 633 738Z" />
<glyph unicode="&#xa6;" glyph-name="brokenbar" horiz-adv-x="266" d="M145 442Q141 442 139 444T137 450L191 840Q191 843 192 845T198 847H227Q237 847 235 835L181 449Q180 445 179 444T174 442H145ZM61 -165Q57 -165 54 -163T51 -157L106 233Q106 240 112
240H142Q153 240 151 228L97 -158Q96 -162 95 -163T89 -165H61Z" />
<glyph unicode="&#xa7;" glyph-name="section" horiz-adv-x="480" d="M368 171T388 143T409 81Q409 39 383 5T310 -49T206 -69Q141 -69 89 -38T16 44Q12 50 14 52L45 68Q46 69 49 69Q54 69 55 63Q75 23 115 0T210 -24Q269 -24 310 0T356 67Q357 71 357 79Q357
106 335 129T258 175L167 212Q66 254 66 334Q66 386 102 424T196 485Q146 511 126 539T105 601Q105 609 107 623Q112 659 138 688T208 735T303 752Q361 752 405 725T470 657Q476 651 470 649L444 634Q442 633 439 633Q432 633 432 638Q411 670 379 688T307 707Q244
707 204 684T158 621L157 610Q157 586 175 565T241 523L325 486Q388 458 416 424T445 345Q445 288 413 254T328 196Q368 171 388 143ZM294 224T321 236T368 272T392 321Q394 337 394 344Q394 372 376 393T313 434L254 459Q206 454 165 423T120 353Q119 347 119
337Q119 313 137 294T201 255L266 226Q294 224 321 236Z" />
<glyph unicode="&#xa8;" glyph-name="dieresis" horiz-adv-x="197" d="M122 653Q120 645 118 643T108 641H76Q69 641 67 644T65 653L76 733Q77 739 78 740T85 742H124Q134 742 133 730L122 653ZM241 653Q239 645 237 643T227 641H195Q188 641 186 644T184 653L195
733Q196 739 197 740T204 742H243Q255 742 252 730L241 653Z" />
<glyph unicode="&#xa9;" glyph-name="copyright" horiz-adv-x="830" d="M283 -10T207 33T88 151T45 319Q45 349 49 374Q64 476 127 563T284 701T481 752Q576 752 652 709T771 589T815 421Q815 404 811 368Q796 265 733 178T575 41T378 -10Q283 -10 207 33ZM470
38T552 80T691 198T762 374Q766 408 766 425Q766 508 728 571T625 670T479 705Q388 705 306 663T168 543T98 368Q94 343 94 314Q94 231 131 169T234 72T381 38Q470 38 552 80ZM553 590T606 494Q608 491 607 489T606 487L572 472H571Q566 472 564 479Q528 547 463
547Q399 547 352 499T293 372Q291 350 291 340Q291 277 323 240T410 202Q449 202 484 223T545 282Q548 285 555 280L576 268Q580 266 580 257Q545 211 500 185T404 159Q329 159 285 206T240 334Q240 354 243 375Q252 437 283 486T360 562T461 590Q553 590 606 494Z"
/>
<glyph unicode="&#xaa;" glyph-name="ordfeminine" horiz-adv-x="404" d="M311 749T340 724T370 654Q370 648 368 634L345 471Q342 455 342 444Q342 435 345 417Q350 411 340 411H312Q303 411 303 419L302 455Q302 458 301 458Q299 458 294 452Q263 427 236 416T178
405Q130 405 104 426T77 484Q77 538 121 568T252 606L311 612Q324 614 325 622L328 640Q329 645 329 653Q329 713 251 713Q219 713 196 702T150 661Q148 659 141 662L115 673Q115 674 114 676T114 682Q137 714 173 731T256 749Q311 749 340 724ZM118 470T136 455T190
440Q236 440 273 473Q308 498 311 522L317 570V574Q317 577 316 578T309 578L262 574Q132 564 121 495Q118 470 136 455Z" />
<glyph unicode="&#xab;" glyph-name="guillemotleft" horiz-adv-x="427" d="M179 81Q181 78 180 78T174 77H158Q155 77 152 79T149 83L38 250Q33 261 37 265L199 443Q202 446 204 446T207 446H225Q229 446 231 443T231 436L96 262Q90 254 93 249L179 81ZM349 81Q351
78 349 78T343 77H327Q324 77 322 79T319 83L208 250Q203 261 207 265L369 443Q371 446 373 446T376 446H394Q398 446 401 443T401 436L265 262Q259 254 262 249L349 81Z" />
<glyph unicode="&#xac;" glyph-name="logicalnot" horiz-adv-x="545" d="M492 377V374L470 217Q469 212 468 211T462 209H434Q430 209 428 211T426 217L443 351L90 350Q81 350 81 359L86 388Q87 394 91 394L486 395Q494 395 494 387L492 377Z" />
<glyph unicode="&#xad;" glyph-name="uni00AD" horiz-adv-x="381" d="M529 251Q528 246 526 245T518 243L294 242Q285 242 285 251L290 281Q291 288 295 288L526 289Q530 289 532 287T534 281L529 251Z" />
<glyph unicode="&#xae;" glyph-name="registered" horiz-adv-x="545" d="M216 275T169 302T94 376T67 481Q67 504 69 516Q78 580 117 634T215 720T339 752Q398 752 446 725T521 649T548 543Q548 521 546 510Q537 446 497 392T399 307T276 275Q216 275 169 302ZM336
312T385 337T467 408T507 516Q510 534 510 551Q510 626 464 670T339 715Q279 715 230 690T148 618T108 510Q105 491 105 473Q105 399 151 356T277 312Q336 312 385 337ZM375 393T372 393H345Q343 393 342 394T342 398L316 504Q316 505 316 505T310 506H256Q252
506 250 501L235 396Q235 395 235 394T233 393H208Q205 393 204 394T204 398L236 627Q236 628 236 629T237 630H338Q371 630 389 617T407 578L406 569Q402 544 387 531T351 509Q349 509 348 508T347 506L375 397Q375 393 372 393ZM340 535T355 543T373 570Q375
585 366 593T326 601H269Q268 601 267 601T264 596L255 537Q255 535 257 535H318Q340 535 355 543Z" />
<glyph unicode="&#xaf;" glyph-name="overscore" horiz-adv-x="282" d="M331 688Q330 683 328 682T320 680H78Q68 680 70 690L73 717Q74 723 79 723H329Q332 723 334 721T335 715L331 688Z" />
<glyph unicode="&#xb0;" glyph-name="degree" horiz-adv-x="464" d="M448 678T425 639T362 577T275 554Q215 554 178 589T141 683Q141 732 164 772T226 835T313 858Q373 858 410 822T448 727Q448 678 425 639ZM400 767T376 791T310 815Q256 815 221 778T185 683Q185
642 208 618T275 594Q328 594 364 632T400 727Q400 767 376 791Z" />
<glyph unicode="&#xb1;" glyph-name="plusminus" horiz-adv-x="545" d="M500 467T502 465T504 459L500 430Q499 425 497 424T488 422H316L292 246Q291 240 285 240H258Q247 240 249 253L272 421H100Q91 421 91 431L96 459Q96 466 102 466H278L302 641Q303 646
304 647T310 648H339Q343 648 345 646T347 641L323 467H497Q500 467 502 465ZM452 124T454 122T456 116L452 88Q451 83 449 82T441 80L52 79Q43 79 44 88L47 117Q48 123 53 123L448 124Q452 124 454 122Z" />
<glyph unicode="&#xb2;" glyph-name="uni00B2" horiz-adv-x="452" d="M189 577Q245 625 276 666T307 749Q307 786 280 806T216 826Q185 826 151 811T92 764Q88 760 85 763L66 779Q62 781 68 787Q97 822 139 839T222 857Q274 857 308 831T343 751Q343 715 327 684T285
625T211 555L61 423Q57 421 57 419T62 416H296Q303 416 301 410L299 390Q298 389 297 387T293 384H18Q9 384 11 393L12 409Q13 416 15 420T26 431L189 577Z" />
<glyph unicode="&#xb3;" glyph-name="uni00B3" horiz-adv-x="467" d="M90 794T94 799Q130 829 164 843T238 857Q300 857 336 829T372 755Q372 714 345 681T271 633Q268 632 268 631T272 628Q308 618 331 592T355 526Q355 485 333 452T267 398T165 378Q112 378
83 394T26 441Q23 445 25 447L45 462Q47 465 50 462Q88 409 170 409Q234 409 276 440T319 524Q319 567 284 590T199 614H143Q140 614 138 615T137 619L140 640Q140 644 145 644H191Q229 644 262 658T316 697T336 752Q336 785 310 805T238 826Q199 826 172 813T114
776Q110 774 108 774T104 778L94 790Q90 794 94 799Z" />
<glyph unicode="&#xb4;" glyph-name="acute" horiz-adv-x="275" d="M326 711L327 707Q327 702 319 699L81 623L77 622Q71 622 69 630L65 647Q63 655 68 657L311 751H313Q318 751 320 746L326 711Z" />
<glyph unicode="&#xb6;" glyph-name="paragraph" horiz-adv-x="540" d="M467 705Q465 705 463 703T460 698L350 -81Q350 -81 350 -83T346 -85H318Q315 -85 313 -83T312 -78L421 702Q421 705 417 705H382Q380 705 378 703T375 698L265 -81Q265 -85 261 -85H232Q225
-85 226 -78L279 302Q279 304 278 305Q217 305 174 329T109 395T87 486Q87 497 89 517Q97 575 130 626T220 710T352 742H520Q527 742 525 736L521 708Q521 706 521 706T518 705H467Z" />
<glyph unicode="&#xb7;" glyph-name="middot" horiz-adv-x="179" d="M144 342Q143 335 141 333T130 331H67Q55 331 56 343L65 408Q66 413 67 414T73 416H146Q154 416 154 406L144 342Z" />
<glyph unicode="&#xb8;" glyph-name="cedilla" horiz-adv-x="202" d="M137 -161T106 -183T26 -205Q-18 -205 -48 -183Q-50 -183 -51 -181T-53 -176L-39 -155Q-38 -152 -33 -157Q-15 -173 20 -173Q83 -173 89 -129Q91 -106 75 -96T19 -84Q12 -84 12 -78L60 5H97L66
-56Q65 -58 66 -58Q104 -61 120 -78T137 -120Q137 -161 106 -183Z" />
<glyph unicode="&#xb9;" glyph-name="uni00B9" horiz-adv-x="367" d="M216 411T216 406L213 385Q213 384 212 382T208 380H1Q-4 380 -3 385L0 408Q1 411 4 411H91Q94 411 96 415L150 801Q150 806 146 803L57 770Q50 769 51 774L53 791Q54 798 59 800L152 844Q159
847 167 847H187Q193 847 192 840L132 415Q130 411 135 411H211Q216 411 216 406Z" />
<glyph unicode="&#xba;" glyph-name="ordmasculine" horiz-adv-x="417" d="M338 751T373 713T409 609Q409 587 407 575Q396 499 350 453T231 407Q166 407 131 444T96 546Q96 568 98 580Q109 657 157 704T274 751Q338 751 373 713ZM220 713T186 676T144 578Q141
560 141 544Q141 496 164 470T231 443Q285 443 318 480T362 583Q364 603 364 613Q364 659 341 686T273 713Q220 713 186 676Z" />
<glyph unicode="&#xbb;" glyph-name="guillemotright" horiz-adv-x="426" d="M165 259T162 265L75 439Q72 446 80 446H97Q101 446 105 441L217 263Q221 254 216 248L56 80Q55 77 48 77H33Q21 77 24 84L158 252Q165 259 162 265ZM334 259T331 265L245 439Q242 446
249 446H267Q271 446 275 441L387 263Q390 260 390 256Q390 252 386 248L226 80Q223 77 218 77H202Q190 77 194 84L327 252Q334 259 331 265Z" />
<glyph unicode="&#xbc;" glyph-name="onequarter" horiz-adv-x="867" d="M205 307T205 302L202 281Q202 280 201 278T197 276H-10Q-15 276 -14 281L-11 304Q-10 307 -7 307H80Q83 307 85 311L139 697Q139 702 135 699L46 666Q39 665 40 670L42 687Q43 694 48 696L141
740Q148 743 156 743H176Q182 743 181 736L121 311Q119 307 124 307H200Q205 307 205 302ZM162 3Q158 -1 155 -2T145 -4H127Q118 -4 118 3Q118 8 122 12L713 746Q716 750 720 750T726 750H749Q754 750 756 748T755 740L162 3ZM700 467T707 467H733Q739 467 739
460L697 167Q697 165 698 164T701 163H764Q771 163 771 158L768 138Q766 133 761 133H697Q693 133 691 127L675 6Q675 3 674 2T668 0H643Q638 0 639 7L656 128Q656 133 652 133H439Q435 133 434 134T434 140L437 162Q437 166 439 169T445 178L697 464Q700 467 707
467ZM654 163Q658 163 659 169L693 408Q693 411 692 411Q689 411 685 405L478 170Q471 163 478 163H654Z" />
<glyph unicode="&#xbd;" glyph-name="onehalf" horiz-adv-x="929" d="M205 307T205 302L202 281Q202 280 201 278T197 276H-10Q-15 276 -14 281L-11 304Q-10 307 -7 307H80Q83 307 85 311L139 697Q139 702 135 699L46 666Q39 665 40 670L42 687Q43 694 48 696L141
740Q148 743 156 743H176Q182 743 181 736L121 311Q119 307 124 307H200Q205 307 205 302ZM176 3Q172 -1 169 -2T159 -4H141Q132 -4 132 3Q132 8 136 12L727 746Q730 750 734 750T740 750H763Q768 750 770 748T769 740L176 3ZM671 193Q727 241 758 282T789 365Q789
402 762 422T698 442Q667 442 633 427T574 380Q570 376 567 379L548 395Q544 397 550 403Q579 438 621 455T704 473Q756 473 790 447T825 367Q825 331 809 300T767 241T693 171L543 39Q539 37 539 35T544 32H778Q785 32 783 26L781 6Q780 5 779 3T775 0H500Q491
0 493 9L494 25Q495 32 497 36T508 47L671 193Z" />
<glyph unicode="&#xbe;" glyph-name="threequarters" horiz-adv-x="893" d="M78 689T82 694Q118 724 152 738T226 752Q288 752 324 724T360 650Q360 609 333 576T259 528Q256 527 256 526T260 523Q296 513 319 487T343 421Q343 380 321 347T255 293T153 273Q100
273 71 289T14 336Q11 340 13 342L33 357Q35 360 38 357Q76 304 158 304Q222 304 264 335T307 419Q307 462 272 485T187 509H131Q128 509 126 510T125 514L128 535Q128 539 133 539H179Q217 539 250 553T304 592T324 647Q324 680 298 700T226 721Q187 721 160 708T102
671Q98 669 96 669T92 673L82 685Q78 689 82 694ZM262 3Q258 -1 255 -2T245 -4H227Q218 -4 218 3Q218 8 222 12L813 746Q816 750 820 750T826 750H849Q854 750 856 748T855 740L262 3ZM726 467T733 467H759Q765 467 765 460L723 167Q723 165 724 164T727 163H790Q797
163 797 158L794 138Q792 133 787 133H723Q719 133 717 127L701 6Q701 3 700 2T694 0H669Q664 0 665 7L682 128Q682 133 678 133H465Q461 133 460 134T460 140L463 162Q463 166 465 169T471 178L723 464Q726 467 733 467ZM680 163Q684 163 685 169L719 408Q719
411 718 411Q715 411 711 405L504 170Q497 163 504 163H680Z" />
<glyph unicode="&#xbf;" glyph-name="questiondown" horiz-adv-x="508" d="M264 519Q265 526 267 528T278 530H324Q330 530 333 527T335 518L326 452Q325 444 318 444H262Q254 444 254 454L264 519ZM426 -42T427 -45T427 -52Q387 -109 322 -142T184 -175Q93 -175
42 -133T-9 -19Q-9 -11 -7 9Q-2 46 15 75T55 125T116 175Q157 207 182 230T227 288T253 367Q255 373 261 373H293Q298 373 300 370T302 360Q295 310 274 273T227 210T159 153Q108 113 82 82T48 5Q47 -2 47 -15Q47 -68 84 -97T186 -127Q243 -127 300 -97T379 -26Q381
-24 383 -24T389 -26L423 -40Q426 -42 427 -45Z" />
<glyph unicode="&#xc0;" glyph-name="Agrave" horiz-adv-x="706" d="M17 0T15 3T15 12L381 732Q384 738 387 740T398 742H442Q449 742 453 739T458 730L619 10V7Q619 0 611 0H576Q564 0 563 10L514 226Q513 230 512 231T506 232H191Q184 232 179 224L68 6Q66 0
56 0H22Q17 0 15 3ZM494 280Q504 280 502 292L416 668Q415 677 411 677Q407 677 402 665L211 293Q205 280 212 280H494ZM320 965T327 963L543 868Q550 866 548 856L538 840Q537 835 535 835T527 836L310 911Q298 915 303 926L319 961Q320 965 327 963Z" />
<glyph unicode="&#xc1;" glyph-name="Aacute" horiz-adv-x="706" d="M17 0T15 3T15 12L381 732Q384 738 387 740T398 742H442Q449 742 453 739T458 730L619 10V7Q619 0 611 0H576Q564 0 563 10L514 226Q513 230 512 231T506 232H191Q184 232 179 224L68 6Q66 0
56 0H22Q17 0 15 3ZM494 280Q504 280 502 292L416 668Q415 677 411 677Q407 677 402 665L211 293Q205 280 212 280H494ZM571 923L572 919Q572 914 564 911L326 835L322 834Q316 834 314 842L310 859Q308 867 313 869L556 963H558Q563 963 565 958L571 923Z" />
<glyph unicode="&#xc2;" glyph-name="Acircumflex" horiz-adv-x="706" d="M17 0T15 3T15 12L381 732Q384 738 387 740T398 742H442Q449 742 453 739T458 730L619 10V7Q619 0 611 0H576Q564 0 563 10L514 226Q513 230 512 231T506 232H191Q184 232 179 224L68 6Q66
0 56 0H22Q17 0 15 3ZM494 280Q504 280 502 292L416 668Q415 677 411 677Q407 677 402 665L211 293Q205 280 212 280H494ZM455 909Q448 914 447 914Q445 914 442 911T435 906L366 858Q361 855 358 854T350 853H309Q303 853 303 858Q303 861 307 865L418 947Q429
955 440 955H463Q469 955 472 951T478 945L566 862Q571 857 571 855T565 853H520Q514 853 505 860L455 909Z" />
<glyph unicode="&#xc3;" glyph-name="Atilde" horiz-adv-x="706" d="M17 0T15 3T15 12L381 732Q384 738 387 740T398 742H442Q449 742 453 739T458 730L619 10V7Q619 0 611 0H576Q564 0 563 10L514 226Q513 230 512 231T506 232H191Q184 232 179 224L68 6Q66 0
56 0H22Q17 0 15 3ZM494 280Q504 280 502 292L416 668Q415 677 411 677Q407 677 402 665L211 293Q205 280 212 280H494ZM556 891T540 886T501 881Q482 881 470 884T436 894Q408 905 388 905Q371 905 360 901T340 891T328 884L322 883Q317 883 316 891L310 909Q310
910 309 913T311 920Q333 932 348 938T384 944Q411 944 446 931Q482 919 503 919Q520 919 531 923T557 937L563 939Q569 939 571 931L577 910L578 906Q578 904 573 899Q556 891 540 886Z" />
<glyph unicode="&#xc4;" glyph-name="Adieresis" horiz-adv-x="706" d="M17 0T15 3T15 12L381 732Q384 738 387 740T398 742H442Q449 742 453 739T458 730L619 10V7Q619 0 611 0H576Q564 0 563 10L514 226Q513 230 512 231T506 232H191Q184 232 179 224L68 6Q66
0 56 0H22Q17 0 15 3ZM494 280Q504 280 502 292L416 668Q415 677 411 677Q407 677 402 665L211 293Q205 280 212 280H494ZM406 865Q404 857 402 855T392 853H360Q353 853 351 856T349 865L360 945Q361 951 362 952T369 954H408Q418 954 417 942L406 865ZM525 865Q523
857 521 855T511 853H479Q472 853 470 856T468 865L479 945Q480 951 481 952T488 954H527Q539 954 536 942L525 865Z" />
<glyph unicode="&#xc5;" glyph-name="Aring" horiz-adv-x="706" d="M17 0T15 3T15 12L381 732Q384 738 387 740T398 742H442Q449 742 453 739T458 730L619 10V7Q619 0 611 0H576Q564 0 563 10L514 226Q513 230 512 231T506 232H191Q184 232 179 224L68 6Q66 0
56 0H22Q17 0 15 3ZM494 280Q504 280 502 292L416 668Q415 677 411 677Q407 677 402 665L211 293Q205 280 212 280H494ZM532 829T498 797T418 764Q378 764 354 789T329 853Q329 898 363 931T442 964Q481 964 506 939T532 876Q532 829 498 797ZM487 896T474 909T439
922Q414 922 394 905T370 861Q368 839 382 822T419 805Q446 805 466 827T487 876Q487 896 474 909Z" />
<glyph unicode="&#xc6;" glyph-name="AE" horiz-adv-x="974" d="M893 48T891 39L887 7Q886 2 885 1T879 0H471Q460 0 461 12L492 228Q492 232 487 232H237Q229 232 223 224L68 6Q63 0 55 0H22Q17 0 15 4T16 12L527 732Q531 738 535 740T546 742H967Q971 742 973
740T974 733L970 701Q968 696 967 695T960 694H625Q619 694 617 692T613 683L573 405V403Q573 400 575 400T581 399H844Q848 399 850 397T852 390L847 357Q847 353 846 352T840 351H577Q565 351 564 340L525 56Q524 50 525 49T531 48H882Q893 48 891 39ZM493 280T496
283T500 291L553 670V674Q553 679 550 679Q547 679 538 667L264 288Q263 286 261 284T260 281T264 280H489Q493 280 496 283Z" />
<glyph unicode="&#xc7;" glyph-name="Ccedilla" horiz-adv-x="698" d="M503 752T556 725T642 653T674 554Q674 549 673 546T666 543L624 540Q617 540 616 551Q609 620 561 661T440 703Q338 703 271 639T173 478T142 275Q142 40 349 40Q427 40 483 77T580 193Q583
198 591 195L627 182Q633 180 630 172Q593 93 519 43T355 -10L332 -56Q331 -58 332 -58Q370 -61 386 -78T403 -120Q403 -161 372 -183T292 -205Q248 -205 218 -183Q216 -183 215 -181T213 -176L227 -155Q228 -152 233 -157Q251 -173 286 -173Q349 -173 355 -129Q357
-106 341 -96T285 -84Q278 -84 278 -78L318 -9Q204 -1 144 73T83 279Q83 395 121 503T239 682T442 752Q503 752 556 725Z" />
<glyph unicode="&#xc8;" glyph-name="Egrave" horiz-adv-x="616" d="M177 739T178 740T186 742H611Q618 742 616 733L612 703Q611 694 601 694H237Q227 694 226 686L187 405Q186 399 193 399H479Q487 399 485 390L480 358Q479 354 477 353T470 351H188Q183 351
181 349T178 341L139 56Q138 51 139 50T145 48H524Q534 48 533 39L529 7Q528 2 527 1T521 0H84Q78 0 76 2T74 12L176 733Q177 739 178 740ZM311 965T318 963L534 868Q541 866 539 856L529 840Q528 835 526 835T518 836L301 911Q289 915 294 926L310 961Q311 965
318 963Z" />
<glyph unicode="&#xc9;" glyph-name="Eacute" horiz-adv-x="616" d="M177 739T178 740T186 742H611Q618 742 616 733L612 703Q611 694 601 694H237Q227 694 226 686L187 405Q186 399 193 399H479Q487 399 485 390L480 358Q479 354 477 353T470 351H188Q183 351
181 349T178 341L139 56Q138 51 139 50T145 48H524Q534 48 533 39L529 7Q528 2 527 1T521 0H84Q78 0 76 2T74 12L176 733Q177 739 178 740ZM562 923L563 919Q563 914 555 911L317 835L313 834Q307 834 305 842L301 859Q299 867 304 869L547 963H549Q554 963 556
958L562 923Z" />
<glyph unicode="&#xca;" glyph-name="Ecircumflex" horiz-adv-x="616" d="M177 739T178 740T186 742H611Q618 742 616 733L612 703Q611 694 601 694H237Q227 694 226 686L187 405Q186 399 193 399H479Q487 399 485 390L480 358Q479 354 477 353T470 351H188Q183
351 181 349T178 341L139 56Q138 51 139 50T145 48H524Q534 48 533 39L529 7Q528 2 527 1T521 0H84Q78 0 76 2T74 12L176 733Q177 739 178 740ZM446 909Q439 914 438 914Q436 914 433 911T426 906L357 858Q352 855 349 854T341 853H300Q294 853 294 858Q294 861
298 865L409 947Q420 955 431 955H454Q460 955 463 951T469 945L557 862Q562 857 562 855T556 853H511Q505 853 496 860L446 909Z" />
<glyph unicode="&#xcb;" glyph-name="Edieresis" horiz-adv-x="616" d="M177 739T178 740T186 742H611Q618 742 616 733L612 703Q611 694 601 694H237Q227 694 226 686L187 405Q186 399 193 399H479Q487 399 485 390L480 358Q479 354 477 353T470 351H188Q183
351 181 349T178 341L139 56Q138 51 139 50T145 48H524Q534 48 533 39L529 7Q528 2 527 1T521 0H84Q78 0 76 2T74 12L176 733Q177 739 178 740ZM397 865Q395 857 393 855T383 853H351Q344 853 342 856T340 865L351 945Q352 951 353 952T360 954H399Q409 954 408
942L397 865ZM516 865Q514 857 512 855T502 853H470Q463 853 461 856T459 865L470 945Q471 951 472 952T479 954H518Q530 954 527 942L516 865Z" />
<glyph unicode="&#xcc;" glyph-name="Igrave" horiz-adv-x="278" d="M224 742Q235 742 232 730L132 12Q130 4 128 2T118 0H86Q73 0 74 12L176 733Q177 739 178 740T186 742H224ZM109 965T116 963L332 868Q339 866 337 856L327 840Q326 835 324 835T316 836L99
911Q87 915 92 926L108 961Q109 965 116 963Z" />
<glyph unicode="&#xcd;" glyph-name="Iacute" horiz-adv-x="278" d="M224 742Q235 742 232 730L132 12Q130 4 128 2T118 0H86Q73 0 74 12L176 733Q177 739 178 740T186 742H224ZM360 923L361 919Q361 914 353 911L115 835L111 834Q105 834 103 842L99 859Q97 867
102 869L345 963H347Q352 963 354 958L360 923Z" />
<glyph unicode="&#xce;" glyph-name="Icircumflex" horiz-adv-x="278" d="M224 742Q235 742 232 730L132 12Q130 4 128 2T118 0H86Q73 0 74 12L176 733Q177 739 178 740T186 742H224ZM244 909Q237 914 236 914Q234 914 231 911T224 906L155 858Q150 855 147 854T139
853H98Q92 853 92 858Q92 861 96 865L207 947Q218 955 229 955H252Q258 955 261 951T267 945L355 862Q360 857 360 855T354 853H309Q303 853 294 860L244 909Z" />
<glyph unicode="&#xcf;" glyph-name="Idieresis" horiz-adv-x="278" d="M224 742Q235 742 232 730L132 12Q130 4 128 2T118 0H86Q73 0 74 12L176 733Q177 739 178 740T186 742H224ZM195 865Q193 857 191 855T181 853H149Q142 853 140 856T138 865L149 945Q150
951 151 952T158 954H197Q207 954 206 942L195 865ZM314 865Q312 857 310 855T300 853H268Q261 853 259 856T257 865L268 945Q269 951 270 952T277 954H316Q328 954 325 942L314 865Z" />
<glyph unicode="&#xd0;" glyph-name="Eth" horiz-adv-x="672" d="M452 742T535 673T619 463Q619 236 507 118T167 0H49Q44 0 41 3T38 13L86 349H58Q46 349 48 362L52 389Q52 393 53 395T59 397H92L140 734Q141 742 152 742H273Q452 742 535 673ZM373 47T466 151T559
464Q559 550 527 600T431 672T264 694H201Q190 694 189 682L150 397H357Q367 397 365 387L361 360Q360 353 357 351T346 349H143L104 61L103 56Q103 47 114 47H167Q373 47 466 151Z" />
<glyph unicode="&#xd1;" glyph-name="Ntilde" horiz-adv-x="755" d="M702 742Q707 742 709 740T710 731L609 9Q608 4 607 2T600 0H577Q570 0 566 1T559 8L226 623Q223 629 219 629Q215 629 213 620L127 9Q126 4 124 2T116 0H84Q73 0 74 12L176 733Q177 739 178
740T186 742H213Q224 742 228 733L557 122Q561 115 566 115Q572 115 573 126L659 734Q660 739 661 740T667 742H702ZM596 891T580 886T541 881Q522 881 510 884T476 894Q448 905 428 905Q411 905 400 901T380 891T368 884L362 883Q357 883 356 891L350 909Q350
910 349 913T351 920Q373 932 388 938T424 944Q451 944 486 931Q522 919 543 919Q560 919 571 923T597 937L603 939Q609 939 611 931L617 910L618 906Q618 904 613 899Q596 891 580 886Z" />
<glyph unicode="&#xd2;" glyph-name="Ograve" horiz-adv-x="759" d="M218 -10T151 63T83 275Q83 322 90 370Q116 554 210 653T446 752Q570 752 637 677T705 461Q705 414 698 366Q673 185 580 88T343 -10Q218 -10 151 63ZM593 39T640 371Q647 423 647 470Q647 703
445 703Q323 703 248 619T149 366Q142 318 142 272Q142 39 347 39Q593 39 640 371ZM349 965T356 963L572 868Q579 866 577 856L567 840Q566 835 564 835T556 836L339 911Q327 915 332 926L348 961Q349 965 356 963Z" />
<glyph unicode="&#xd3;" glyph-name="Oacute" horiz-adv-x="759" d="M218 -10T151 63T83 275Q83 322 90 370Q116 554 210 653T446 752Q570 752 637 677T705 461Q705 414 698 366Q673 185 580 88T343 -10Q218 -10 151 63ZM593 39T640 371Q647 423 647 470Q647 703
445 703Q323 703 248 619T149 366Q142 318 142 272Q142 39 347 39Q593 39 640 371ZM600 923L601 919Q601 914 593 911L355 835L351 834Q345 834 343 842L339 859Q337 867 342 869L585 963H587Q592 963 594 958L600 923Z" />
<glyph unicode="&#xd4;" glyph-name="Ocircumflex" horiz-adv-x="759" d="M218 -10T151 63T83 275Q83 322 90 370Q116 554 210 653T446 752Q570 752 637 677T705 461Q705 414 698 366Q673 185 580 88T343 -10Q218 -10 151 63ZM593 39T640 371Q647 423 647 470Q647
703 445 703Q323 703 248 619T149 366Q142 318 142 272Q142 39 347 39Q593 39 640 371ZM484 909Q477 914 476 914Q474 914 471 911T464 906L395 858Q390 855 387 854T379 853H338Q332 853 332 858Q332 861 336 865L447 947Q458 955 469 955H492Q498 955 501 951T507
945L595 862Q600 857 600 855T594 853H549Q543 853 534 860L484 909Z" />
<glyph unicode="&#xd5;" glyph-name="Otilde" horiz-adv-x="759" d="M218 -10T151 63T83 275Q83 322 90 370Q116 554 210 653T446 752Q570 752 637 677T705 461Q705 414 698 366Q673 185 580 88T343 -10Q218 -10 151 63ZM593 39T640 371Q647 423 647 470Q647 703
445 703Q323 703 248 619T149 366Q142 318 142 272Q142 39 347 39Q593 39 640 371ZM585 891T569 886T530 881Q511 881 499 884T465 894Q437 905 417 905Q400 905 389 901T369 891T357 884L351 883Q346 883 345 891L339 909Q339 910 338 913T340 920Q362 932 377
938T413 944Q440 944 475 931Q511 919 532 919Q549 919 560 923T586 937L592 939Q598 939 600 931L606 910L607 906Q607 904 602 899Q585 891 569 886Z" />
<glyph unicode="&#xd6;" glyph-name="Odieresis" horiz-adv-x="759" d="M218 -10T151 63T83 275Q83 322 90 370Q116 554 210 653T446 752Q570 752 637 677T705 461Q705 414 698 366Q673 185 580 88T343 -10Q218 -10 151 63ZM593 39T640 371Q647 423 647 470Q647
703 445 703Q323 703 248 619T149 366Q142 318 142 272Q142 39 347 39Q593 39 640 371ZM435 865Q433 857 431 855T421 853H389Q382 853 380 856T378 865L389 945Q390 951 391 952T398 954H437Q447 954 446 942L435 865ZM554 865Q552 857 550 855T540 853H508Q501
853 499 856T497 865L508 945Q509 951 510 952T517 954H556Q568 954 565 942L554 865Z" />
<glyph unicode="&#xd7;" glyph-name="multiply" horiz-adv-x="522" d="M493 533T490 531L307 370L442 214Q449 207 443 204L421 184Q418 181 415 181Q412 181 406 187L273 341L93 182Q90 180 88 181T83 184L66 204Q63 209 63 211Q63 215 67 219L244 375L110 530Q107
535 107 537T110 543L133 563Q138 567 142 561L278 404L458 563Q462 565 464 565Q467 565 470 560L488 540Q493 533 490 531Z" />
<glyph unicode="&#xd8;" glyph-name="Oslash" horiz-adv-x="713" d="M760 717T754 711L654 614Q682 554 682 463Q682 415 675 366Q650 185 557 88T320 -10Q251 -10 199 13T114 81L30 -4Q25 -9 21 -9Q16 -9 10 -3L-7 14Q-12 21 -13 24T-10 31L88 126Q60 190 60
277Q60 324 67 370Q93 554 186 653T423 752Q491 752 543 728T628 659L716 747Q719 751 723 751Q727 751 730 747L753 723Q760 717 754 711ZM121 310T121 276Q121 217 135 170L589 621Q540 702 421 702Q177 702 128 366Q121 310 121 276ZM621 427T621 468Q621 525
607 570L154 121Q204 40 324 40Q445 40 517 122T613 371Q621 427 621 468Z" />
<glyph unicode="&#xd9;" glyph-name="Ugrave" horiz-adv-x="704" d="M581 109T511 50T315 -10Q202 -10 148 38T93 186Q93 211 98 251L166 732Q167 738 168 740T175 742H213Q225 742 222 730L152 229Q149 205 149 185Q149 39 320 39Q523 39 550 234L620 733Q621
739 622 740T629 742H661Q669 742 669 731L599 233Q581 109 511 50ZM324 965T331 963L547 868Q554 866 552 856L542 840Q541 835 539 835T531 836L314 911Q302 915 307 926L323 961Q324 965 331 963Z" />
<glyph unicode="&#xda;" glyph-name="Uacute" horiz-adv-x="704" d="M581 109T511 50T315 -10Q202 -10 148 38T93 186Q93 211 98 251L166 732Q167 738 168 740T175 742H213Q225 742 222 730L152 229Q149 205 149 185Q149 39 320 39Q523 39 550 234L620 733Q621
739 622 740T629 742H661Q669 742 669 731L599 233Q581 109 511 50ZM575 923L576 919Q576 914 568 911L330 835L326 834Q320 834 318 842L314 859Q312 867 317 869L560 963H562Q567 963 569 958L575 923Z" />
<glyph unicode="&#xdb;" glyph-name="Ucircumflex" horiz-adv-x="704" d="M581 109T511 50T315 -10Q202 -10 148 38T93 186Q93 211 98 251L166 732Q167 738 168 740T175 742H213Q225 742 222 730L152 229Q149 205 149 185Q149 39 320 39Q523 39 550 234L620 733Q621
739 622 740T629 742H661Q669 742 669 731L599 233Q581 109 511 50ZM459 909Q452 914 451 914Q449 914 446 911T439 906L370 858Q365 855 362 854T354 853H313Q307 853 307 858Q307 861 311 865L422 947Q433 955 444 955H467Q473 955 476 951T482 945L570 862Q575
857 575 855T569 853H524Q518 853 509 860L459 909Z" />
<glyph unicode="&#xdc;" glyph-name="Udieresis" horiz-adv-x="704" d="M581 109T511 50T315 -10Q202 -10 148 38T93 186Q93 211 98 251L166 732Q167 738 168 740T175 742H213Q225 742 222 730L152 229Q149 205 149 185Q149 39 320 39Q523 39 550 234L620 733Q621
739 622 740T629 742H661Q669 742 669 731L599 233Q581 109 511 50ZM410 865Q408 857 406 855T396 853H364Q357 853 355 856T353 865L364 945Q365 951 366 952T373 954H412Q422 954 421 942L410 865ZM529 865Q527 857 525 855T515 853H483Q476 853 474 856T472
865L483 945Q484 951 485 952T492 954H531Q543 954 540 942L529 865Z" />
<glyph unicode="&#xdd;" glyph-name="Yacute" horiz-adv-x="647" d="M665 742T666 738T664 729L368 326Q362 316 361 303L319 13Q318 6 315 3T302 0H271Q265 0 263 3T262 13L302 296L303 306Q303 311 300 317L115 730Q113 733 113 737Q113 742 122 742H157Q164
742 167 740T173 731L328 382Q332 372 338 372Q344 372 351 382L605 734Q609 739 612 740T623 742H660Q665 742 666 738ZM538 923L539 919Q539 914 531 911L293 835L289 834Q283 834 281 842L277 859Q275 867 280 869L523 963H525Q530 963 532 958L538 923Z" />
<glyph unicode="&#xde;" glyph-name="Thorn" horiz-adv-x="677" d="M619 279T543 230T346 180H165Q156 180 154 169L132 9Q130 4 128 2T122 0H83Q79 0 76 3T74 10L176 733Q177 739 178 740T186 742H224Q235 742 232 730L213 585Q212 581 217 581H392Q505 581 570
540T636 418Q636 397 634 386Q619 279 543 230ZM578 408T578 416Q578 479 530 506T387 533H217Q205 533 204 523L163 236V232Q163 229 164 228T169 227H348Q445 227 504 267T576 392Q578 408 578 416Z" />
<glyph unicode="&#xdf;" glyph-name="germandbls" horiz-adv-x="588" d="M451 742T485 710T519 628Q519 582 501 554T461 513T386 473Q346 453 329 443T304 421T295 389Q295 372 308 363T360 340Q406 325 438 310T495 264T521 184Q521 175 519 157Q507 78 448
34T308 -10Q272 -10 236 -1T179 23Q173 25 172 27T172 34L194 62Q196 64 198 63T203 59Q227 46 249 40T302 33Q371 33 415 66T469 158Q470 165 470 177Q470 211 453 232T412 266T344 294Q313 303 294 311T261 337T247 382Q247 425 272 451T361 510Q367 513 397
527T446 562T468 612Q469 616 469 625Q469 660 443 679T368 699Q298 699 251 657T191 534L117 10Q117 4 116 2T109 0H76Q72 0 70 3T68 10L133 478V482Q133 485 132 486T127 487H68Q61 487 61 495L65 522Q65 528 71 528H132Q139 528 141 539Q154 633 218 687T377
742Q451 742 485 710Z" />
<glyph unicode="&#xe0;" glyph-name="agrave" horiz-adv-x="540" d="M286 -10T179 -10Q107 -10 67 23T26 114Q26 209 105 254T302 310L402 318Q410 319 416 323T423 334L427 364Q429 380 429 388Q429 439 396 468T304 497Q254 497 211 475T128 406Q122 400 117
404L88 420Q85 422 85 425Q85 427 88 433Q127 482 183 511T308 540Q389 540 433 502T478 396Q478 386 476 366L426 10Q425 4 423 2T415 0H390Q378 0 380 11L387 69Q387 75 385 75Q382 75 377 68Q286 -10 179 -10ZM412 265V269Q412 275 410 277T401 278L316 271Q79
253 79 120Q79 80 109 57T192 34Q228 34 264 47T330 82Q360 103 378 126T400 172L412 265ZM205 753T212 751L428 656Q435 654 433 644L423 628Q422 623 420 623T412 624L195 699Q183 703 188 714L204 749Q205 753 212 751Z" />
<glyph unicode="&#xe1;" glyph-name="aacute" horiz-adv-x="540" d="M286 -10T179 -10Q107 -10 67 23T26 114Q26 209 105 254T302 310L402 318Q410 319 416 323T423 334L427 364Q429 380 429 388Q429 439 396 468T304 497Q254 497 211 475T128 406Q122 400 117
404L88 420Q85 422 85 425Q85 427 88 433Q127 482 183 511T308 540Q389 540 433 502T478 396Q478 386 476 366L426 10Q425 4 423 2T415 0H390Q378 0 380 11L387 69Q387 75 385 75Q382 75 377 68Q286 -10 179 -10ZM412 265V269Q412 275 410 277T401 278L316 271Q79
253 79 120Q79 80 109 57T192 34Q228 34 264 47T330 82Q360 103 378 126T400 172L412 265ZM456 711L457 707Q457 702 449 699L211 623L207 622Q201 622 199 630L195 647Q193 655 198 657L441 751H443Q448 751 450 746L456 711Z" />
<glyph unicode="&#xe2;" glyph-name="acircumflex" horiz-adv-x="540" d="M286 -10T179 -10Q107 -10 67 23T26 114Q26 209 105 254T302 310L402 318Q410 319 416 323T423 334L427 364Q429 380 429 388Q429 439 396 468T304 497Q254 497 211 475T128 406Q122 400
117 404L88 420Q85 422 85 425Q85 427 88 433Q127 482 183 511T308 540Q389 540 433 502T478 396Q478 386 476 366L426 10Q425 4 423 2T415 0H390Q378 0 380 11L387 69Q387 75 385 75Q382 75 377 68Q286 -10 179 -10ZM412 265V269Q412 275 410 277T401 278L316
271Q79 253 79 120Q79 80 109 57T192 34Q228 34 264 47T330 82Q360 103 378 126T400 172L412 265ZM340 697Q333 702 332 702Q330 702 327 699T320 694L251 646Q246 643 243 642T235 641H194Q188 641 188 646Q188 649 192 653L303 735Q314 743 325 743H348Q354 743
357 739T363 733L451 650Q456 645 456 643T450 641H405Q399 641 390 648L340 697Z" />
<glyph unicode="&#xe3;" glyph-name="atilde" horiz-adv-x="540" d="M286 -10T179 -10Q107 -10 67 23T26 114Q26 209 105 254T302 310L402 318Q410 319 416 323T423 334L427 364Q429 380 429 388Q429 439 396 468T304 497Q254 497 211 475T128 406Q122 400 117
404L88 420Q85 422 85 425Q85 427 88 433Q127 482 183 511T308 540Q389 540 433 502T478 396Q478 386 476 366L426 10Q425 4 423 2T415 0H390Q378 0 380 11L387 69Q387 75 385 75Q382 75 377 68Q286 -10 179 -10ZM412 265V269Q412 275 410 277T401 278L316 271Q79
253 79 120Q79 80 109 57T192 34Q228 34 264 47T330 82Q360 103 378 126T400 172L412 265ZM441 679T425 674T386 669Q367 669 355 672T321 682Q293 693 273 693Q256 693 245 689T225 679T213 672L207 671Q202 671 201 679L195 697Q195 698 194 701T196 708Q218
720 233 726T269 732Q296 732 331 719Q367 707 388 707Q405 707 416 711T442 725L448 727Q454 727 456 719L462 698L463 694Q463 692 458 687Q441 679 425 674Z" />
<glyph unicode="&#xe4;" glyph-name="adieresis" horiz-adv-x="540" d="M286 -10T179 -10Q107 -10 67 23T26 114Q26 209 105 254T302 310L402 318Q410 319 416 323T423 334L427 364Q429 380 429 388Q429 439 396 468T304 497Q254 497 211 475T128 406Q122 400
117 404L88 420Q85 422 85 425Q85 427 88 433Q127 482 183 511T308 540Q389 540 433 502T478 396Q478 386 476 366L426 10Q425 4 423 2T415 0H390Q378 0 380 11L387 69Q387 75 385 75Q382 75 377 68Q286 -10 179 -10ZM412 265V269Q412 275 410 277T401 278L316
271Q79 253 79 120Q79 80 109 57T192 34Q228 34 264 47T330 82Q360 103 378 126T400 172L412 265ZM291 653Q289 645 287 643T277 641H245Q238 641 236 644T234 653L245 733Q246 739 247 740T254 742H293Q303 742 302 730L291 653ZM410 653Q408 645 406 643T396
641H364Q357 641 355 644T353 653L364 733Q365 739 366 740T373 742H412Q424 742 421 730L410 653Z" />
<glyph unicode="&#xe5;" glyph-name="aring" horiz-adv-x="540" d="M286 -10T179 -10Q107 -10 67 23T26 114Q26 209 105 254T302 310L402 318Q410 319 416 323T423 334L427 364Q429 380 429 388Q429 439 396 468T304 497Q254 497 211 475T128 406Q122 400 117
404L88 420Q85 422 85 425Q85 427 88 433Q127 482 183 511T308 540Q389 540 433 502T478 396Q478 386 476 366L426 10Q425 4 423 2T415 0H390Q378 0 380 11L387 69Q387 75 385 75Q382 75 377 68Q286 -10 179 -10ZM412 265V269Q412 275 410 277T401 278L316 271Q79
253 79 120Q79 80 109 57T192 34Q228 34 264 47T330 82Q360 103 378 126T400 172L412 265ZM431 665T397 633T317 600Q277 600 253 625T228 689Q228 734 262 767T341 800Q380 800 405 775T431 712Q431 665 397 633ZM386 732T373 745T338 758Q313 758 293 741T269
697Q267 675 281 658T318 641Q345 641 365 663T386 712Q386 732 373 745Z" />
<glyph unicode="&#xe6;" glyph-name="ae" horiz-adv-x="928" d="M462 252T458 247T451 224Q449 208 449 201Q449 159 470 121T530 58T616 34Q683 34 724 59T801 127Q805 130 807 130T810 129T813 127L837 111Q844 108 839 99Q805 50 743 20T610 -10Q531 -10 490
24T421 108Q417 111 415 103Q382 70 353 48T279 8T175 -10Q104 -10 65 23T25 113Q25 198 91 248T292 309L400 318Q408 319 414 323T422 334L426 364Q428 380 428 388Q428 440 395 468T298 497Q207 497 126 405Q122 402 120 402T114 404L87 420Q84 422 84 425Q84
429 87 433Q125 484 183 512T308 540Q454 540 468 426Q506 483 561 511T686 540Q779 540 832 485T886 327Q886 297 882 270Q880 261 876 257T862 252H475Q462 252 458 247ZM629 497T582 472T503 399T463 292L815 293Q826 293 829 297T835 311Q837 331 837 339Q837
407 795 452T682 497Q629 497 582 472ZM412 269Q412 274 409 275T399 276L308 270Q79 251 79 119Q79 80 105 57T180 34Q234 34 282 53T363 106T400 177L411 263L412 269Z" />
<glyph unicode="&#xe7;" glyph-name="ccedilla" horiz-adv-x="538" d="M522 418T515 415L483 402L481 401Q478 401 473 410Q441 457 409 477T336 497Q265 497 212 456T131 350T102 214Q102 130 145 82T266 33Q317 33 360 58T443 134Q447 138 449 138T454 135L479
120Q482 118 483 115T483 108Q442 53 388 23T271 -10L248 -56Q247 -58 248 -58Q286 -61 302 -78T319 -120Q319 -161 288 -183T208 -205Q164 -205 134 -183Q132 -183 131 -181T129 -176L143 -155Q144 -152 149 -157Q167 -173 202 -173Q265 -173 271 -129Q273 -106
257 -96T201 -84Q194 -84 194 -78L234 -9Q148 -1 99 59T50 213Q50 294 84 369T182 492T333 540Q460 540 516 427Q522 418 515 415Z" />
<glyph unicode="&#xe8;" glyph-name="egrave" horiz-adv-x="578" d="M165 -10T108 50T50 212Q50 296 84 371T184 493T336 540Q430 540 482 485T535 329Q535 298 531 270Q529 252 512 252H112Q105 252 103 244T100 207Q100 129 146 82T266 34Q381 34 451 126Q454
130 456 130T463 127L488 111Q491 109 491 106T490 99Q446 44 390 17T263 -10Q165 -10 108 50ZM465 292Q477 292 482 301T488 340Q488 411 446 454T333 497Q272 497 224 467T147 390T111 292H465ZM234 753T241 751L457 656Q464 654 462 644L452 628Q451 623 449
623T441 624L224 699Q212 703 217 714L233 749Q234 753 241 751Z" />
<glyph unicode="&#xe9;" glyph-name="eacute" horiz-adv-x="578" d="M165 -10T108 50T50 212Q50 296 84 371T184 493T336 540Q430 540 482 485T535 329Q535 298 531 270Q529 252 512 252H112Q105 252 103 244T100 207Q100 129 146 82T266 34Q381 34 451 126Q454
130 456 130T463 127L488 111Q491 109 491 106T490 99Q446 44 390 17T263 -10Q165 -10 108 50ZM465 292Q477 292 482 301T488 340Q488 411 446 454T333 497Q272 497 224 467T147 390T111 292H465ZM485 711L486 707Q486 702 478 699L240 623L236 622Q230 622 228
630L224 647Q222 655 227 657L470 751H472Q477 751 479 746L485 711Z" />
<glyph unicode="&#xea;" glyph-name="ecircumflex" horiz-adv-x="578" d="M165 -10T108 50T50 212Q50 296 84 371T184 493T336 540Q430 540 482 485T535 329Q535 298 531 270Q529 252 512 252H112Q105 252 103 244T100 207Q100 129 146 82T266 34Q381 34 451 126Q454
130 456 130T463 127L488 111Q491 109 491 106T490 99Q446 44 390 17T263 -10Q165 -10 108 50ZM465 292Q477 292 482 301T488 340Q488 411 446 454T333 497Q272 497 224 467T147 390T111 292H465ZM369 697Q362 702 361 702Q359 702 356 699T349 694L280 646Q275
643 272 642T264 641H223Q217 641 217 646Q217 649 221 653L332 735Q343 743 354 743H377Q383 743 386 739T392 733L480 650Q485 645 485 643T479 641H434Q428 641 419 648L369 697Z" />
<glyph unicode="&#xeb;" glyph-name="edieresis" horiz-adv-x="578" d="M165 -10T108 50T50 212Q50 296 84 371T184 493T336 540Q430 540 482 485T535 329Q535 298 531 270Q529 252 512 252H112Q105 252 103 244T100 207Q100 129 146 82T266 34Q381 34 451 126Q454
130 456 130T463 127L488 111Q491 109 491 106T490 99Q446 44 390 17T263 -10Q165 -10 108 50ZM465 292Q477 292 482 301T488 340Q488 411 446 454T333 497Q272 497 224 467T147 390T111 292H465ZM320 653Q318 645 316 643T306 641H274Q267 641 265 644T263 653L274
733Q275 739 276 740T283 742H322Q332 742 331 730L320 653ZM439 653Q437 645 435 643T425 641H393Q386 641 384 644T382 653L393 733Q394 739 395 740T402 742H441Q453 742 450 730L439 653Z" />
<glyph unicode="&#xec;" glyph-name="igrave" horiz-adv-x="226" d="M102 12Q101 4 99 2T89 0H64Q51 0 52 12L124 521Q125 527 126 528T133 530H164Q176 530 174 518L102 12ZM50 753T57 751L273 656Q280 654 278 644L268 628Q267 623 265 623T257 624L40 699Q28
703 33 714L49 749Q50 753 57 751Z" />
<glyph unicode="&#xed;" glyph-name="iacute" horiz-adv-x="226" d="M102 12Q101 4 99 2T89 0H64Q51 0 52 12L124 521Q125 527 126 528T133 530H164Q176 530 174 518L102 12ZM301 711L302 707Q302 702 294 699L56 623L52 622Q46 622 44 630L40 647Q38 655 43 657L286
751H288Q293 751 295 746L301 711Z" />
<glyph unicode="&#xee;" glyph-name="icircumflex" horiz-adv-x="226" d="M102 12Q101 4 99 2T89 0H64Q51 0 52 12L124 521Q125 527 126 528T133 530H164Q176 530 174 518L102 12ZM185 697Q178 702 177 702Q175 702 172 699T165 694L96 646Q91 643 88 642T80 641H39Q33
641 33 646Q33 649 37 653L148 735Q159 743 170 743H193Q199 743 202 739T208 733L296 650Q301 645 301 643T295 641H250Q244 641 235 648L185 697Z" />
<glyph unicode="&#xef;" glyph-name="idieresis" horiz-adv-x="226" d="M102 12Q101 4 99 2T89 0H64Q51 0 52 12L124 521Q125 527 126 528T133 530H164Q176 530 174 518L102 12ZM136 653Q134 645 132 643T122 641H90Q83 641 81 644T79 653L90 733Q91 739 92 740T99
742H138Q148 742 147 730L136 653ZM255 653Q253 645 251 643T241 641H209Q202 641 200 644T198 653L209 733Q210 739 211 740T218 742H257Q269 742 266 730L255 653Z" />
<glyph unicode="&#xf0;" glyph-name="eth" horiz-adv-x="598" d="M532 177T494 117T396 24T261 -10Q163 -10 106 50T49 209Q49 231 52 255Q63 331 101 391T198 486T324 520Q421 520 480 456Q446 570 344 646L167 552L163 551Q158 551 154 558L147 573Q143 581
148 584L311 669Q269 694 209 721Q204 722 203 725T206 733L231 748Q236 751 240 751Q243 751 248 748Q304 727 357 692L467 751Q470 752 473 751T477 748L486 725Q486 724 487 722T486 716L390 668Q473 605 511 524T549 342Q549 299 543 254Q532 177 494 117ZM322
34T370 63T450 144T491 257Q494 277 494 294Q494 374 450 425T332 477Q277 477 228 447T146 366T104 252Q101 233 101 215Q101 136 146 85T266 34Q322 34 370 63Z" />
<glyph unicode="&#xf1;" glyph-name="ntilde" horiz-adv-x="578" d="M57 0T54 3T52 11L124 521Q125 526 126 528T132 530H163Q173 530 171 521L162 460Q161 454 162 453T169 456Q224 498 272 519T372 540Q442 540 479 507T517 417Q517 409 515 391L461 10Q460
0 451 0H420Q416 0 413 3T411 11L463 376Q465 396 465 405Q465 496 363 496Q315 496 273 476T158 405L102 9Q101 4 99 2T91 0H62Q57 0 54 3ZM476 679T460 674T421 669Q402 669 390 672T356 682Q328 693 308 693Q291 693 280 689T260 679T248 672L242 671Q237 671
236 679L230 697Q230 698 229 701T231 708Q253 720 268 726T304 732Q331 732 366 719Q402 707 423 707Q440 707 451 711T477 725L483 727Q489 727 491 719L497 698L498 694Q498 692 493 687Q476 679 460 674Z" />
<glyph unicode="&#xf2;" glyph-name="ograve" horiz-adv-x="598" d="M164 -10T107 50T50 212Q50 305 88 380T192 497T337 540Q434 540 490 478T547 312Q547 220 509 147T406 32T262 -10Q164 -10 107 50ZM331 34T383 69T466 169T496 317Q496 400 453 448T335 497Q270
497 217 461T133 359T102 213Q102 130 145 82T266 34Q331 34 383 69ZM238 753T245 751L461 656Q468 654 466 644L456 628Q455 623 453 623T445 624L228 699Q216 703 221 714L237 749Q238 753 245 751Z" />
<glyph unicode="&#xf3;" glyph-name="oacute" horiz-adv-x="598" d="M164 -10T107 50T50 212Q50 305 88 380T192 497T337 540Q434 540 490 478T547 312Q547 220 509 147T406 32T262 -10Q164 -10 107 50ZM331 34T383 69T466 169T496 317Q496 400 453 448T335 497Q270
497 217 461T133 359T102 213Q102 130 145 82T266 34Q331 34 383 69ZM489 711L490 707Q490 702 482 699L244 623L240 622Q234 622 232 630L228 647Q226 655 231 657L474 751H476Q481 751 483 746L489 711Z" />
<glyph unicode="&#xf4;" glyph-name="ocircumflex" horiz-adv-x="598" d="M164 -10T107 50T50 212Q50 305 88 380T192 497T337 540Q434 540 490 478T547 312Q547 220 509 147T406 32T262 -10Q164 -10 107 50ZM331 34T383 69T466 169T496 317Q496 400 453 448T335
497Q270 497 217 461T133 359T102 213Q102 130 145 82T266 34Q331 34 383 69ZM373 697Q366 702 365 702Q363 702 360 699T353 694L284 646Q279 643 276 642T268 641H227Q221 641 221 646Q221 649 225 653L336 735Q347 743 358 743H381Q387 743 390 739T396 733L484
650Q489 645 489 643T483 641H438Q432 641 423 648L373 697Z" />
<glyph unicode="&#xf5;" glyph-name="otilde" horiz-adv-x="598" d="M164 -10T107 50T50 212Q50 305 88 380T192 497T337 540Q434 540 490 478T547 312Q547 220 509 147T406 32T262 -10Q164 -10 107 50ZM331 34T383 69T466 169T496 317Q496 400 453 448T335 497Q270
497 217 461T133 359T102 213Q102 130 145 82T266 34Q331 34 383 69ZM474 679T458 674T419 669Q400 669 388 672T354 682Q326 693 306 693Q289 693 278 689T258 679T246 672L240 671Q235 671 234 679L228 697Q228 698 227 701T229 708Q251 720 266 726T302 732Q329
732 364 719Q400 707 421 707Q438 707 449 711T475 725L481 727Q487 727 489 719L495 698L496 694Q496 692 491 687Q474 679 458 674Z" />
<glyph unicode="&#xf6;" glyph-name="odieresis" horiz-adv-x="598" d="M164 -10T107 50T50 212Q50 305 88 380T192 497T337 540Q434 540 490 478T547 312Q547 220 509 147T406 32T262 -10Q164 -10 107 50ZM331 34T383 69T466 169T496 317Q496 400 453 448T335
497Q270 497 217 461T133 359T102 213Q102 130 145 82T266 34Q331 34 383 69ZM324 653Q322 645 320 643T310 641H278Q271 641 269 644T267 653L278 733Q279 739 280 740T287 742H326Q336 742 335 730L324 653ZM443 653Q441 645 439 643T429 641H397Q390 641 388
644T386 653L397 733Q398 739 399 740T406 742H445Q457 742 454 730L443 653Z" />
<glyph unicode="&#xf7;" glyph-name="divide" horiz-adv-x="545" d="M351 503Q349 497 347 495T337 493H273Q261 493 262 505L272 570Q273 578 279 578H353Q361 578 360 568L351 503ZM489 359Q489 354 487 353T479 351L90 350Q81 350 81 359L86 388Q87 394 91
394L486 395Q494 395 494 387L489 359ZM305 178Q303 171 301 169T290 167H227Q215 167 217 179L225 244Q227 252 233 252H307Q315 252 314 242L305 178Z" />
<glyph unicode="&#xf8;" glyph-name="oslash" horiz-adv-x="577" d="M590 504T590 501T586 494L512 430Q536 379 536 312Q536 220 498 147T395 32T251 -10Q144 -10 86 62L18 3Q14 0 10 0Q5 0 0 6L-9 18Q-14 25 -14 28Q-14 34 -8 38L63 99Q39 147 39 212Q39 305
77 380T181 497T326 540Q379 540 420 521T489 466L557 525Q561 529 565 529Q570 529 574 523L586 508Q590 504 590 501ZM91 167T104 134L453 435Q410 497 324 497Q259 497 206 461T122 359T91 213Q91 167 104 134ZM485 362T473 396L124 95Q145 65 178 50T255 34Q320
34 372 69T455 169T485 317Q485 362 473 396Z" />
<glyph unicode="&#xf9;" glyph-name="ugrave" horiz-adv-x="573" d="M142 -10T102 25T61 118Q61 132 62 140L116 520Q117 526 119 528T126 530H156Q161 530 164 527T166 519L115 159Q113 141 113 134Q113 34 214 34Q262 34 310 60T416 137L471 521Q472 526 474
528T481 530H511Q516 530 519 527T521 519L449 9Q448 3 447 2T440 0H411Q401 0 402 9L411 69V72Q411 78 403 73Q338 26 293 8T207 -10Q142 -10 102 25ZM207 753T214 751L430 656Q437 654 435 644L425 628Q424 623 422 623T414 624L197 699Q185 703 190 714L206
749Q207 753 214 751Z" />
<glyph unicode="&#xfa;" glyph-name="uacute" horiz-adv-x="573" d="M142 -10T102 25T61 118Q61 132 62 140L116 520Q117 526 119 528T126 530H156Q161 530 164 527T166 519L115 159Q113 141 113 134Q113 34 214 34Q262 34 310 60T416 137L471 521Q472 526 474
528T481 530H511Q516 530 519 527T521 519L449 9Q448 3 447 2T440 0H411Q401 0 402 9L411 69V72Q411 78 403 73Q338 26 293 8T207 -10Q142 -10 102 25ZM458 711L459 707Q459 702 451 699L213 623L209 622Q203 622 201 630L197 647Q195 655 200 657L443 751H445Q450
751 452 746L458 711Z" />
<glyph unicode="&#xfb;" glyph-name="ucircumflex" horiz-adv-x="573" d="M142 -10T102 25T61 118Q61 132 62 140L116 520Q117 526 119 528T126 530H156Q161 530 164 527T166 519L115 159Q113 141 113 134Q113 34 214 34Q262 34 310 60T416 137L471 521Q472 526
474 528T481 530H511Q516 530 519 527T521 519L449 9Q448 3 447 2T440 0H411Q401 0 402 9L411 69V72Q411 78 403 73Q338 26 293 8T207 -10Q142 -10 102 25ZM342 697Q335 702 334 702Q332 702 329 699T322 694L253 646Q248 643 245 642T237 641H196Q190 641 190
646Q190 649 194 653L305 735Q316 743 327 743H350Q356 743 359 739T365 733L453 650Q458 645 458 643T452 641H407Q401 641 392 648L342 697Z" />
<glyph unicode="&#xfc;" glyph-name="udieresis" horiz-adv-x="573" d="M142 -10T102 25T61 118Q61 132 62 140L116 520Q117 526 119 528T126 530H156Q161 530 164 527T166 519L115 159Q113 141 113 134Q113 34 214 34Q262 34 310 60T416 137L471 521Q472 526
474 528T481 530H511Q516 530 519 527T521 519L449 9Q448 3 447 2T440 0H411Q401 0 402 9L411 69V72Q411 78 403 73Q338 26 293 8T207 -10Q142 -10 102 25ZM293 653Q291 645 289 643T279 641H247Q240 641 238 644T236 653L247 733Q248 739 249 740T256 742H295Q305
742 304 730L293 653ZM412 653Q410 645 408 643T398 641H366Q359 641 357 644T355 653L366 733Q367 739 368 740T375 742H414Q426 742 423 730L412 653Z" />
<glyph unicode="&#xfd;" glyph-name="yacute" horiz-adv-x="513" d="M38 -165T19 -165T-8 -163T-15 -155L-12 -135Q-11 -128 -4 -125T20 -122H77Q104 -122 130 -99T174 -42T191 19Q191 25 189 35L66 516L65 521Q65 530 75 530H109Q119 530 120 523L229 91Q231
82 235 82Q241 82 246 93L472 521Q475 530 484 530H514Q522 530 517 521L206 -69Q179 -121 140 -143T45 -165Q38 -165 19 -165ZM447 711L448 707Q448 702 440 699L202 623L198 622Q192 622 190 630L186 647Q184 655 189 657L432 751H434Q439 751 441 746L447 711Z"
/>
<glyph unicode="&#xfe;" glyph-name="thorn" horiz-adv-x="590" d="M203 742T201 729L164 468V465Q164 460 166 460Q169 460 175 468Q178 471 200 490T261 525T346 540Q434 540 487 486T541 331Q541 300 537 272Q525 187 487 124T391 25T262 -10Q215 -10 180 5T124
42Q119 46 114 46Q107 46 105 32L79 -156Q78 -162 77 -163T70 -165H38Q34 -165 31 -162T29 -154L153 730Q155 738 157 740T167 742H191Q203 742 201 729ZM146 70T181 52T258 33Q314 33 362 62T442 145T485 274Q489 298 489 325Q489 410 446 453T334 497Q288 497
248 476T182 424T152 363L114 106Q146 70 181 52Z" />
<glyph unicode="&#xff;" glyph-name="ydieresis" horiz-adv-x="513" d="M38 -165T19 -165T-8 -163T-15 -155L-12 -135Q-11 -128 -4 -125T20 -122H77Q104 -122 130 -99T174 -42T191 19Q191 25 189 35L66 516L65 521Q65 530 75 530H109Q119 530 120 523L229 91Q231
82 235 82Q241 82 246 93L472 521Q475 530 484 530H514Q522 530 517 521L206 -69Q179 -121 140 -143T45 -165Q38 -165 19 -165ZM282 653Q280 645 278 643T268 641H236Q229 641 227 644T225 653L236 733Q237 739 238 740T245 742H284Q294 742 293 730L282 653ZM401
653Q399 645 397 643T387 641H355Q348 641 346 644T344 653L355 733Q356 739 357 740T364 742H403Q415 742 412 730L401 653Z" />
<glyph unicode="&#x2013;" glyph-name="endash" horiz-adv-x="545" d="M473 244Q473 236 462 236H74Q65 236 65 245L69 275Q71 282 75 282L470 283Q474 283 476 281T478 275L473 244Z" />
<glyph unicode="&#x2014;" glyph-name="emdash" horiz-adv-x="866" d="M795 244Q795 236 783 236H74Q65 236 65 245L69 275Q71 282 75 282L792 283Q795 283 797 281T799 275L795 244Z" />
<glyph unicode="&#x2018;" glyph-name="quoteleft" horiz-adv-x="213" d="M270 742T268 736L209 642Q206 636 206 632Q206 626 213 626H230Q234 626 235 625T237 619L227 546Q226 543 224 541T218 538H140Q135 538 136 543L144 609Q145 613 148 616L234 735Q235
742 248 742H265Q270 742 268 736Z" />
<glyph unicode="&#x2019;" glyph-name="quoteright" horiz-adv-x="213" d="M86 538T88 544L147 638Q150 644 150 648Q150 654 143 654H126Q122 654 121 655T119 661L129 734Q130 737 132 739T138 742H216Q221 742 220 737L212 671Q211 667 208 664L122 545Q121
538 108 538H91Q86 538 88 544Z" />
<glyph unicode="&#x201a;" glyph-name="quotesinglbase" horiz-adv-x="213" d="M-4 -117T-4 -115T-3 -110L56 -16Q58 -10 58 -7Q58 0 51 0H34Q29 0 28 1T27 7L37 80Q38 83 40 85T46 88H124Q127 88 128 87T129 82L120 16Q119 14 118 13T116 10L31 -109Q26 -117
17 -117H0Q-4 -117 -4 -115Z" />
<glyph unicode="&#x201c;" glyph-name="quotedblleft" horiz-adv-x="366" d="M115 538T114 539T113 543L123 609Q123 613 126 616L211 735Q216 742 226 742H243Q250 742 246 735L187 642Q185 638 185 632Q185 626 191 626H208Q213 625 214 624T215 619L204 546Q204
538 195 538H118Q115 538 114 539ZM236 538T235 539T234 543L244 609Q244 613 247 616L332 735Q337 742 346 742H363Q371 742 367 735L308 642Q305 636 305 632Q305 626 312 626H329Q334 625 335 624T336 619L325 546Q325 538 316 538H239Q236 538 235 539Z" />
<glyph unicode="&#x201d;" glyph-name="quotedblright" horiz-adv-x="366" d="M86 538T88 544L147 638Q150 644 150 648Q150 654 143 654H126Q122 654 121 655T119 661L129 734Q130 737 132 739T138 742H216Q221 742 220 737L212 671Q211 667 208 664L122 545Q121
538 108 538H91Q86 538 88 544ZM237 538T241 544L300 638Q303 644 303 648Q303 654 296 654H279Q274 654 273 655T272 661L282 734Q283 737 285 739T291 742H369Q374 742 373 737L365 671Q364 668 363 667T361 664L275 545Q272 538 261 538H244Q237 538 241 544Z"
/>
<glyph unicode="&#x201e;" glyph-name="quotedblbase" horiz-adv-x="329" d="M112 -117T112 -115T113 -110L172 -16Q174 -10 174 -7Q174 0 167 0H150Q145 0 144 1T143 7L153 80Q154 83 156 85T162 88H240Q243 88 244 87T245 82L236 16Q235 14 234 13T232 10L147
-109Q142 -117 133 -117H116Q112 -117 112 -115ZM215 -117T215 -115T216 -110L275 -16Q277 -10 277 -7Q277 0 270 0H253Q248 0 247 1T246 7L256 80Q257 83 259 85T265 88H343Q346 88 347 87T348 82L339 16Q338 14 337 13T335 10L250 -109Q245 -117 236 -117H219Q215
-117 215 -115Z" />
<glyph unicode="&#x2022;" glyph-name="bullet" horiz-adv-x="298" d="M126 300T107 319T87 368Q87 402 113 428T173 454Q203 454 222 435T242 385Q242 351 217 326T156 300Q126 300 107 319Z" />
<glyph unicode="&#x2039;" glyph-name="guilsinglleft" horiz-adv-x="256" d="M179 81Q181 78 180 78T174 77H158Q155 77 152 79T149 83L38 250Q33 261 37 265L199 443Q202 446 204 446T207 446H225Q229 446 231 443T231 436L96 262Q90 254 93 249L179 81Z" />
<glyph unicode="&#x203a;" glyph-name="guilsinglright" horiz-adv-x="257" d="M166 259T163 265L76 439Q73 446 81 446H98Q102 446 106 441L218 263Q220 259 220 256Q220 253 217 248L57 80Q56 77 49 77H34Q22 77 25 84L159 252Q166 259 163 265Z" />
</font>
</defs>
</svg>
