<?xml version="1.0" standalone="no"?>
<!DOCTYPE svg PUBLIC "-//W3C//DTD SVG 1.1//EN" "http://www.w3.org/Graphics/SVG/1.1/DTD/svg11.dtd">
<svg xmlns="http://www.w3.org/2000/svg">
<defs >
<font id="Spectral" horiz-adv-x="580" ><font-face
    font-family="Spectral Medium"
    units-per-em="1000"
    panose-1="2 2 6 2 6 0 0 0 0 0"
    ascent="1059"
    descent="-463"
    alphabetic="0" />
<glyph unicode=" " glyph-name="uni0020" horiz-adv-x="250" />
<glyph unicode="!" glyph-name="uni0021" horiz-adv-x="254" d="M116 204L67 660H188L139 204H116ZM127 -5Q101 -5 82 14T63 59Q63 85 82 104T127 123Q152 123 171 104T191 59Q191 34 172 15T127 -5Z" />
<glyph unicode="&quot;" glyph-name="uni0022" horiz-adv-x="450" d="M114 490L79 740H171L136 490H114ZM314 490L279 740H371L336 490H314Z" />
<glyph unicode="#" glyph-name="uni0023" horiz-adv-x="514" d="M47 0L106 203H8V250H120L164 403H66V450H178L239 660H289L228 450H358L419 660H469L408 450H506V403H394L350 250H448V203H336L277 0H227L286 203H156L97 0H47ZM170 250H300L344 403H214L170 250Z" />
<glyph unicode="$" glyph-name="uni0024" horiz-adv-x="514" d="M195 -80V-3Q133 12 100 43Q75 64 63 90T51 140Q51 160 64 166T90 172H121L126 168V141Q126 72 195 47V310Q120 345 89 385T57 484Q57 537 97 585T195 656V740H236V667Q252 670 268 670Q280 670
292 669V740H333V663Q375 653 400 632Q450 588 450 542Q450 522 437 516T411 509H379L374 513V540Q374 588 333 608V361Q406 323 436 284T467 182Q467 118 429 72T333 4V-80H292V-6Q270 -10 248 -10Q242 -10 236 -10V-80H195ZM284 385Q288 383 292 381V620Q280
621 267 621Q251 621 236 618V408Q256 398 284 385ZM149 521Q149 494 158 474T195 433V602Q149 574 149 521ZM249 38Q272 38 292 43V263Q269 276 236 291V38Q242 38 249 38ZM379 148Q379 177 370 197T333 238V60Q379 90 379 148Z" />
<glyph unicode="%" glyph-name="uni0025" horiz-adv-x="760" d="M413 345Q345 345 306 400T267 548Q267 633 308 691T413 750Q481 750 520 695T559 547Q559 462 518 404T413 345ZM419 372Q447 372 459 422T472 532Q472 609 457 666T406 723Q380 723 367 674T354
564Q354 486 369 429T419 372ZM127 15L594 750L632 725L166 -10L127 15ZM603 -10Q535 -10 496 45T457 193Q457 278 498 336T603 395Q671 395 710 340T749 192Q749 107 708 49T603 -10ZM609 17Q637 17 649 67T662 177Q662 254 647 311T596 368Q570 368 557 319T544
209Q544 131 559 74T609 17Z" />
<glyph unicode="&amp;" glyph-name="uni0026" horiz-adv-x="712" d="M221 -10Q132 -10 78 36T24 162Q24 211 57 258T164 352Q113 406 97 438T81 511Q81 569 133 619T269 670Q349 670 394 634T440 540Q440 495 399 459T278 381Q285 373 294 364T312 346L470 188Q523
269 567 402L469 441V457H709V441L623 404Q592 334 561 273T496 162L606 52L689 16V0H513L431 82Q388 38 337 14T221 -10ZM179 536Q179 502 197 474T253 405Q296 437 319 467T343 539Q343 577 321 601T261 625Q226 625 203 601T179 536ZM126 190Q126 126 166 91T263
56Q340 56 403 110L253 261Q234 279 218 295T188 326Q147 292 137 263T126 190Z" />
<glyph unicode="&apos;" glyph-name="uni0027" horiz-adv-x="250" d="M114 490L79 740H171L136 490H114Z" />
<glyph unicode="(" glyph-name="uni0028" horiz-adv-x="253" d="M224 -150Q143 -52 99 59T54 295Q54 419 98 530T224 740H246V737Q186 641 154 537T122 295Q122 158 154 54T246 -147V-150H224Z" />
<glyph unicode=")" glyph-name="uni0029" horiz-adv-x="253" d="M7 -150V-147Q67 -50 99 54T131 295Q131 432 99 536T7 737V740H29Q110 642 154 531T199 295Q199 171 155 60T29 -150H7Z" />
<glyph unicode="*" glyph-name="uni002A" horiz-adv-x="361" d="M59 469L161 574L19 598L40 661L169 598L149 740H213L192 598L321 661L342 598L200 574L303 469L247 431L181 556L114 431L59 469Z" />
<glyph unicode="+" glyph-name="uni002B" horiz-adv-x="514" d="M230 62V246H47V298H230V482H284V298H467V246H284V62H230Z" />
<glyph unicode="," glyph-name="uni002C" horiz-adv-x="254" d="M60 -207V-184Q104 -161 122 -133T141 -74Q141 -23 91 5L57 23L53 33L85 88Q100 110 110 110Q118 110 135 101Q204 62 204 -22Q204 -75 171 -123T60 -207Z" />
<glyph unicode="-" glyph-name="uni002D" horiz-adv-x="374" d="M49 222V292H324V222H49Z" />
<glyph unicode="." glyph-name="uni002E" horiz-adv-x="254" d="M127 -5Q101 -5 82 14T63 59Q63 85 82 104T127 123Q153 123 172 104T191 59Q191 33 172 14T127 -5Z" />
<glyph unicode="/" glyph-name="uni002F" horiz-adv-x="250" d="M0 -120L200 750H250L50 -120H0Z" />
<glyph unicode="0" glyph-name="uni0030" horiz-adv-x="514" d="M257 -10Q150 -10 92 81T33 330Q33 476 95 573T257 670Q364 670 423 579T482 330Q482 184 419 87T257 -10ZM277 37Q324 37 349 111T375 299Q375 445 342 534T241 623Q192 623 166 550T140 363Q140
216 173 127T277 37Z" />
<glyph unicode="1" glyph-name="uni0031" horiz-adv-x="514" d="M152 0V16L243 55V559L70 474V510L312 660H342V55L424 16V0H152Z" />
<glyph unicode="2" glyph-name="uni0032" horiz-adv-x="514" d="M52 0V28Q159 149 219 222T306 340T341 419T348 495Q348 553 319 587T243 622Q138 622 138 511V466L132 458H81Q61 458 51 465T41 500Q41 559 107 607Q147 635 182 652T277 670Q356 670 407 618T459
493Q459 439 436 396T350 284T165 89H408L460 187H476L466 0H52Z" />
<glyph unicode="3" glyph-name="uni0033" horiz-adv-x="514" d="M249 -10Q154 -10 92 36Q34 78 34 121Q34 144 43 149T71 155H121L129 147V114Q129 80 158 58T248 36Q310 36 343 74T377 172Q377 240 341 279T213 319H155V364H188Q256 364 299 402T343 506Q343
624 242 624Q201 624 175 600T148 535V497L140 489H92Q72 489 63 495T53 525Q53 583 123 625Q159 648 191 659T268 670Q348 670 401 625T454 512Q454 459 412 417T300 358Q394 345 441 298T489 177Q489 100 418 45T249 -10Z" />
<glyph unicode="4" glyph-name="uni0034" horiz-adv-x="514" d="M192 0V16L283 55V189H10V211L353 660H383V259H502V189H383V55L464 16V0H192ZM106 259H283V499L106 259Z" />
<glyph unicode="5" glyph-name="uni0035" horiz-adv-x="514" d="M202 -10Q98 -10 64 39Q56 50 56 59Q56 72 74 86L113 116H124L134 97Q149 72 174 55T240 38Q298 38 337 79T377 190Q377 252 336 299T183 346Q142 346 87 337V660H414V577H136V432Q168 434 199 434Q345
434 405 371T465 231Q465 121 391 56T202 -10Z" />
<glyph unicode="6" glyph-name="uni0036" horiz-adv-x="514" d="M262 -10Q160 -10 98 60T36 236Q36 395 142 509T430 670V640Q309 602 238 515T150 310Q208 389 308 389Q389 389 437 335T485 198Q485 119 430 55T262 -10ZM146 243Q146 135 180 86T264 37Q322 37
350 80T378 175Q378 321 262 321Q188 321 146 257Q146 250 146 243Z" />
<glyph unicode="7" glyph-name="uni0037" horiz-adv-x="514" d="M89 0Q115 61 139 113T195 226T273 368T389 571H53V660H472V636Q424 544 371 436T273 216T208 0H89Z" />
<glyph unicode="8" glyph-name="uni0038" horiz-adv-x="514" d="M258 -10Q170 -10 106 32T41 146Q41 192 67 235T175 326Q110 366 85 404T59 497Q59 567 121 618T261 670Q340 670 397 623T455 504Q455 463 421 428T327 361Q402 317 437 276T473 174Q473 85 404
38T258 -10ZM158 532Q158 492 182 460T286 384Q322 406 342 433T362 498Q362 562 332 593T253 624Q212 624 185 600T158 532ZM138 167Q138 104 172 69T260 33Q315 33 346 61T377 140Q377 197 334 229T211 305Q165 272 152 241T138 167Z" />
<glyph unicode="9" glyph-name="uni0039" horiz-adv-x="514" d="M85 -10V20Q206 58 277 145T365 350Q307 271 207 271Q126 271 78 325T30 462Q30 541 86 605T254 670Q355 670 417 600T479 424Q479 265 373 151T85 -10ZM137 485Q137 339 253 339Q327 339 369 402Q369
409 369 417Q369 525 335 574T251 623Q193 623 165 580T137 485Z" />
<glyph unicode=":" glyph-name="uni003A" horiz-adv-x="254" d="M127 -5Q101 -5 82 14T63 59Q63 85 82 104T127 123Q153 123 172 104T191 59Q191 33 172 14T127 -5ZM127 328Q101 328 82 347T63 392Q63 418 82 437T127 456Q153 456 172 437T191 392Q191 366 172
347T127 328Z" />
<glyph unicode=";" glyph-name="uni003B" horiz-adv-x="254" d="M127 328Q101 328 82 347T63 392Q63 418 82 437T127 456Q153 456 172 437T191 392Q191 366 172 347T127 328ZM60 -207V-184Q104 -161 122 -133T141 -74Q141 -23 91 5L57 23L53 33L85 88Q100 110
110 110Q118 110 135 101Q204 62 204 -22Q204 -75 171 -123T60 -207Z" />
<glyph unicode="&lt;" glyph-name="uni003C" horiz-adv-x="514" d="M467 62L47 247V297L467 482V426L118 272L467 118V62Z" />
<glyph unicode="=" glyph-name="uni003D" horiz-adv-x="514" d="M47 348V400H467V348H47ZM47 144V196H467V144H47Z" />
<glyph unicode="&gt;" glyph-name="uni003E" horiz-adv-x="514" d="M47 62V118L396 272L47 426V482L467 297V247L47 62Z" />
<glyph unicode="?" glyph-name="uni003F" horiz-adv-x="479" d="M199 204L171 353Q329 400 329 496Q329 564 298 595T219 626Q132 626 132 518V480L124 469H75Q56 469 47 476T38 509Q38 569 99 612Q134 637 165 653T246 670Q326 670 377 619T428 493Q428 427 382
375T231 281L222 204H199ZM210 -5Q184 -5 165 14T146 59Q146 85 165 104T210 123Q236 123 255 104T274 59Q274 34 255 15T210 -5Z" />
<glyph unicode="@" glyph-name="uni0040" horiz-adv-x="812" d="M374 -118Q238 -118 153 -40T67 167Q67 274 120 364T262 508T462 562Q592 562 668 484T745 284Q745 181 684 101T525 21Q440 21 456 114L459 133Q388 21 311 21Q276 21 253 50T230 139Q230 213 262
279T346 387T457 429Q501 429 534 409L568 428H591L538 133Q530 90 535 76T563 62Q616 62 659 128T702 281Q702 388 630 461T440 535Q299 535 215 433T130 186Q130 56 205 -17T401 -90Q466 -90 515 -74T609 -27L618 -48Q566 -81 508 -99T374 -118ZM310 176Q310
124 320 104T359 84Q408 84 466 170L498 354Q485 371 470 382T430 394Q380 394 345 329T310 176Z" />
<glyph unicode="A" glyph-name="uni0041" horiz-adv-x="756" d="M30 0V16L93 49L350 665H405L659 52L726 16V0H462V16L550 51L476 231H235L162 50L246 16V0H30ZM258 286H454L356 527L258 286Z" />
<glyph unicode="B" glyph-name="uni0042" horiz-adv-x="669" d="M60 0V16L141 56V604L60 644V660H329Q430 660 497 623T564 512Q564 461 529 419T428 358Q519 346 570 303T622 192Q622 110 545 55T352 0H60ZM300 605H246V367H305Q376 367 415 398T454 483Q454
605 300 605ZM337 314H246V55H344Q421 55 465 91T510 185Q510 314 337 314Z" />
<glyph unicode="C" glyph-name="uni0043" horiz-adv-x="722" d="M400 -10Q246 -10 156 82T65 313Q65 409 113 490T241 621T415 670Q491 670 534 656T619 622L625 444H607L538 574Q504 598 477 609T415 620Q311 620 242 541T173 338Q173 198 239 120T401 42Q453
42 488 56T552 89L619 201H636L624 40Q580 18 530 4T400 -10Z" />
<glyph unicode="D" glyph-name="uni0044" horiz-adv-x="781" d="M60 0V16L141 56V604L60 644V660H364Q533 660 625 575T717 360Q717 256 670 175T542 47T357 0H60ZM337 605H246V55H352Q471 55 539 129T608 329Q608 454 538 529T337 605Z" />
<glyph unicode="E" glyph-name="uni0045" horiz-adv-x="659" d="M60 0V16L141 56V604L60 644V660H562V488H546L481 605H246V368H412L463 452H479V231H463L412 313H246V55H508L574 187H590V0H60Z" />
<glyph unicode="F" glyph-name="uni0046" horiz-adv-x="618" d="M60 0V16L141 56V604L60 644V660H552V488H536L473 605H246V367H402L453 451H469V232H453L402 314H246V56L338 16V0H60Z" />
<glyph unicode="G" glyph-name="uni0047" horiz-adv-x="765" d="M401 -10Q257 -10 161 82T65 313Q65 416 114 496T245 623T426 670Q506 670 551 657T640 622L646 454H630L558 574Q488 620 426 620Q315 620 243 545T170 355Q170 210 245 129T430 47Q459 47 487
50T545 64V235L456 276V292H720V276L650 232V74Q604 36 535 13T401 -10Z" />
<glyph unicode="H" glyph-name="uni0048" horiz-adv-x="816" d="M60 0V16L141 56V604L60 644V660H325V644L246 604V368H571V604L491 644V660H756V644L675 604V56L756 16V0H491V16L571 56V313H246V56L325 16V0H60Z" />
<glyph unicode="I" glyph-name="uni0049" horiz-adv-x="395" d="M64 0V16L146 56V604L64 644V660H331V644L250 604V56L331 16V0H64Z" />
<glyph unicode="J" glyph-name="uni004A" horiz-adv-x="400" d="M49 -173Q16 -173 16 -145Q16 -141 18 -131T27 -86H33Q50 -90 60 -92T83 -95Q114 -95 132 -71T150 51V604L69 644V660H336V644L254 604V241Q254 128 232 39T166 -97Q125 -143 103 -158T49 -173Z" />
<glyph unicode="K" glyph-name="uni004B" horiz-adv-x="732" d="M60 0V16L141 56V604L60 644V660H327V644L246 604V56L327 16V0H60ZM246 337L522 610L451 644V660H667V644L604 619L348 368L656 43L719 16V0H556L246 337Z" />
<glyph unicode="L" glyph-name="uni004C" horiz-adv-x="636" d="M60 0V16L141 56V604L60 644V660H337V644L246 604V55H483L554 227H570V0H60Z" />
<glyph unicode="M" glyph-name="uni004D" horiz-adv-x="968" d="M56 0V16L136 56L157 604L71 644V660H270L494 143L717 660H908V644L823 607L840 56L912 16V0H665V16L740 55L730 544L494 -5H446L212 538L199 55L282 16V0H56Z" />
<glyph unicode="N" glyph-name="uni004E" horiz-adv-x="803" d="M56 0V16L137 56V602L57 644V660H214L597 189V605L494 644V660H747V644L667 605V-5H624L207 507V55L310 16V0H56Z" />
<glyph unicode="O" glyph-name="uni004F" horiz-adv-x="803" d="M401 -10Q256 -10 161 86T65 330Q65 477 160 573T401 670Q546 670 642 574T738 330Q738 183 642 87T401 -10ZM421 40Q512 40 569 110T626 299Q626 445 556 533T385 621Q294 621 236 552T177 363Q177
217 248 129T421 40Z" />
<glyph unicode="P" glyph-name="uni0050" horiz-adv-x="649" d="M60 0V16L141 56V604L60 644V660H340Q458 660 529 617T601 481Q601 398 520 345T316 292H246V56L338 16V0H60ZM246 605V345H322Q401 345 446 381T491 473Q491 543 446 574T315 605H246Z" />
<glyph unicode="Q" glyph-name="uni0051" horiz-adv-x="803" d="M683 -150Q622 -150 552 -124T369 -9Q237 3 151 97T65 330Q65 477 160 573T401 670Q546 670 642 574T738 330Q738 210 673 122T502 4Q586 -63 640 -89T744 -115Q781 -115 808 -106V-123Q757 -150
683 -150ZM421 40Q512 40 569 110T626 299Q626 445 556 533T385 621Q294 621 236 552T177 363Q177 217 248 129T421 40Z" />
<glyph unicode="R" glyph-name="uni0052" horiz-adv-x="677" d="M60 0V16L141 56V604L60 644V660H338Q443 660 503 617T564 497Q564 441 526 398T426 332L615 53L682 16V0H521L329 304H246V57L321 16V0H60ZM305 605H246V357H311Q373 357 413 392T454 483Q454 540
415 572T305 605Z" />
<glyph unicode="S" glyph-name="uni0053" horiz-adv-x="541" d="M266 -10Q203 -10 159 2T67 37L57 202H73L126 93Q193 38 263 38Q321 38 354 68T388 150Q388 212 346 239T225 305Q154 339 116 376T78 482Q78 530 108 573T186 643T287 670Q334 670 375 659T456
627L466 467H450L398 574Q366 599 340 610T281 621Q238 621 210 592T181 519Q181 470 211 442T310 382Q401 338 444 299T487 183Q487 120 453 77T367 12T266 -10Z" />
<glyph unicode="T" glyph-name="uni0054" horiz-adv-x="680" d="M187 0V16L288 56V605H130L59 454H43V660H637V454H621L551 605H392V56L494 16V0H187Z" />
<glyph unicode="U" glyph-name="uni0055" horiz-adv-x="816" d="M409 -10Q293 -10 217 54T141 263V604L60 644V660H327V644L246 604V274Q246 150 302 101T441 52Q507 52 556 95T605 239V606L507 644V660H756V644L675 605V263Q675 118 600 54T409 -10Z" />
<glyph unicode="V" glyph-name="uni0056" horiz-adv-x="746" d="M356 -5L100 608L31 644V660H296V644L209 606L396 156H401L586 609L503 644V660H714V644L657 613L396 -5H356Z" />
<glyph unicode="W" glyph-name="uni0057" horiz-adv-x="995" d="M276 -5L90 607L14 644V660H283V644L198 607L320 185H326L499 665H541L717 185H723L844 606L759 644V660H981V644L914 608L726 -5H685L505 474H498L316 -5H276Z" />
<glyph unicode="X" glyph-name="uni0058" horiz-adv-x="749" d="M33 0V16L106 53L319 325L111 608L47 644V660H316V644L236 606V601L391 395L553 602V606L476 644V660H692V644L628 608L425 350L646 55L717 16V0H443V16L516 52V56L352 280L181 57V53L261 16V0H33Z" />
<glyph unicode="Y" glyph-name="uni0059" horiz-adv-x="727" d="M225 0V16L315 56V308L94 609L31 644V660H289V644L216 608V604L393 363L553 603V607L479 644V660H695V644L630 611L419 309V56L509 16V0H225Z" />
<glyph unicode="Z" glyph-name="uni005A" horiz-adv-x="659" d="M89 0V27L430 605H181L117 473H101V660H559V633L217 55H488L554 197H570V0H89Z" />
<glyph unicode="[" glyph-name="uni005B" horiz-adv-x="253" d="M64 -150V740H245V716H129V-126H245V-150H64Z" />
<glyph unicode="\" glyph-name="uni005C" horiz-adv-x="250" d="M200 -120L0 750H50L250 -120H200Z" />
<glyph unicode="]" glyph-name="uni005D" horiz-adv-x="253" d="M8 -150V-126H124V716H8V740H189V-150H8Z" />
<glyph unicode="^" glyph-name="uni005E" horiz-adv-x="514" d="M47 250L232 670H282L467 250H411L258 598L104 250H47Z" />
<glyph unicode="_" glyph-name="uni005F" horiz-adv-x="500" d="M25 -140V-90H475V-140H25Z" />
<glyph unicode="`" glyph-name="uni0060" horiz-adv-x="500" d="M323 530L197 643Q176 661 169 676T162 707H251L337 530H323Z" />
<glyph unicode="a" glyph-name="uni0061" horiz-adv-x="495" d="M155 -10Q107 -10 76 18T44 97Q44 146 79 181T203 238L298 260V330Q298 366 272 390T210 414Q144 414 144 343V311L139 306H84Q58 306 58 335Q58 385 113 419Q143 438 174 449T240 461Q298 461 345
437T393 348V69Q408 52 447 52H482L486 50V44Q474 23 450 7T390 -10Q325 -10 305 52H298Q272 26 235 8T155 -10ZM135 119Q135 57 208 57Q250 57 298 77V225Q190 204 163 179T135 119Z" />
<glyph unicode="b" glyph-name="uni0062" horiz-adv-x="565" d="M100 -9V636L39 687V695L187 750H194V400H198Q270 461 347 461Q420 461 470 404T520 247Q520 125 452 58T285 -10Q207 -10 140 19L107 -9H100ZM286 389Q238 389 194 362V78Q240 39 303 39Q352 39
388 80T425 223Q425 309 384 349T286 389Z" />
<glyph unicode="c" glyph-name="uni0063" horiz-adv-x="480" d="M258 -10Q161 -10 104 49T47 206Q47 318 114 389T282 461Q324 461 362 448T420 412Q435 394 435 382Q435 369 423 358L382 325H375L341 371Q326 392 305 404T252 417Q199 417 169 373T139 252Q139
182 175 128T306 73Q364 73 434 111H437V99Q414 53 367 22T258 -10Z" />
<glyph unicode="d" glyph-name="uni0064" horiz-adv-x="565" d="M214 -10Q140 -10 91 45T41 194Q41 322 111 391T281 461Q331 461 367 452V636L301 687V695L454 750H461V45L532 16V0H377L368 51H362Q290 -10 214 -10ZM136 219Q136 137 177 100T275 62Q323 62 367
90V372Q322 412 274 412Q218 412 177 369T136 219Z" />
<glyph unicode="e" glyph-name="uni0065" horiz-adv-x="487" d="M259 -10Q161 -10 104 49T47 206Q47 318 113 389T268 461Q348 461 393 407T439 250L434 245H139Q140 176 177 125T308 73Q365 73 437 111H440V99Q416 53 369 22T259 -10ZM250 417Q157 417 141 291H354Q344
359 318 388T250 417Z" />
<glyph unicode="f" glyph-name="uni0066" horiz-adv-x="349" d="M50 0V16L114 48V405H36V451H114V489Q114 525 145 587T229 700T352 750Q369 750 389 741Q418 728 418 713Q418 707 413 695L392 645H384L359 655Q330 668 295 668Q242 668 225 634T208 527V451H337V405H208V46L281
16V0H50Z" />
<glyph unicode="g" glyph-name="uni0067" horiz-adv-x="545" d="M258 144Q213 144 175 160Q142 146 142 114Q142 64 214 64H332Q477 64 477 -65Q477 -130 412 -185T236 -240Q141 -240 99 -207T57 -124Q57 -88 75 -60L143 -16V-11Q65 6 65 75Q65 114 92 141L146
170V176Q77 222 77 303Q77 370 128 415T258 461Q308 461 350 442L500 451V396L405 402L401 398Q439 358 439 303Q439 235 387 190T258 144ZM267 186Q305 186 326 219T348 300Q348 356 320 388T252 421Q211 421 190 388T168 306Q168 252 195 219T267 186ZM131 -111Q131
-154 164 -182T248 -210Q313 -210 353 -174T394 -92Q394 -49 371 -33T290 -16H188Q183 -16 178 -16Q131 -44 131 -111Z" />
<glyph unicode="h" glyph-name="uni0068" horiz-adv-x="590" d="M44 0V16L108 48V636L47 687V695L195 750H202V387H206Q244 424 279 442T358 461Q416 461 454 432T493 343V48L556 16V0H332V16L398 45V297Q398 340 372 361T305 383Q280 383 250 375T202 350V45L268
16V0H44Z" />
<glyph unicode="i" glyph-name="uni0069" horiz-adv-x="318" d="M157 577Q130 577 112 595T94 640Q94 668 112 685T157 703Q184 703 202 686T220 640Q220 613 202 595T157 577ZM49 0V16L113 48V347L52 398V406L200 461H207V48L269 16V0H49Z" />
<glyph unicode="j" glyph-name="uni006A" horiz-adv-x="318" d="M157 577Q129 577 112 595T94 640Q94 668 111 685T157 703Q184 703 202 686T220 640Q220 613 202 595T157 577ZM50 -230V-213Q85 -181 99 -141T113 -21V347L52 398V406L199 461H207V6Q207 -74 174
-130T50 -230Z" />
<glyph unicode="k" glyph-name="uni006B" horiz-adv-x="569" d="M44 0V16L108 48V636L47 687V695L195 750H202V257L361 393V399L312 435V451H507V435L443 400L284 278L482 50L546 16V0H399L363 52L202 240V45L272 16V0H44Z" />
<glyph unicode="l" glyph-name="uni006C" horiz-adv-x="301" d="M41 0V16L104 48V636L44 687V695L191 750H199V48L261 16V0H41Z" />
<glyph unicode="m" glyph-name="uni006D" horiz-adv-x="870" d="M44 0V16L108 48V347L47 397V405L185 461H192L201 387H206Q243 424 277 442T353 461Q401 461 435 440T479 376H483Q524 419 560 440T641 461Q699 461 735 432T772 343V48L836 16V0H611V16L678 48V297Q678
340 653 361T589 383Q521 383 483 342V48L548 16V0H326V16L389 48V297Q389 340 365 361T301 383Q277 383 249 375T202 350V48L263 16V0H44Z" />
<glyph unicode="n" glyph-name="uni006E" horiz-adv-x="590" d="M44 0V16L108 48V347L47 397V405L185 461H192L201 387H206Q244 424 279 442T358 461Q416 461 454 432T493 343V48L556 16V0H332V16L398 48V297Q398 340 372 361T305 383Q280 383 250 375T202 350V48L268
16V0H44Z" />
<glyph unicode="o" glyph-name="uni006F" horiz-adv-x="542" d="M271 -10Q170 -10 108 58T46 226Q46 326 108 393T271 461Q371 461 433 394T495 226Q495 126 433 58T271 -10ZM284 34Q341 34 366 87T392 206Q392 286 361 352T260 418Q202 418 176 366T149 247Q149
167 181 101T284 34Z" />
<glyph unicode="p" glyph-name="uni0070" horiz-adv-x="572" d="M44 -230V-214L108 -182V346L47 397V405L185 461H192L200 400H207Q278 461 355 461Q428 461 478 404T528 247Q528 125 461 58T299 -10Q245 -10 202 0V-182L275 -214V-230H44ZM294 389Q246 389 202
362V78Q250 39 320 39Q365 39 399 78T433 215Q433 306 392 347T294 389Z" />
<glyph unicode="q" glyph-name="uni0071" horiz-adv-x="563" d="M298 -230V-214L370 -185V50H364Q295 -10 217 -10Q144 -10 95 45T45 194Q45 322 115 391T286 461Q321 461 348 456T405 439L457 461H464V-183L528 -214V-230H298ZM139 219Q139 137 180 100T279 62Q325
62 370 90V328Q370 362 368 369T359 384Q340 400 317 406T269 412Q216 412 178 369T139 219Z" />
<glyph unicode="r" glyph-name="uni0072" horiz-adv-x="404" d="M47 0V16L111 48V346L50 397V405L188 461H196L205 375H209Q244 432 270 446T322 461Q339 461 359 453Q389 442 389 425Q389 416 385 407L364 354H357L322 368Q303 375 277 375Q234 375 206 334V48L279
16V0H47Z" />
<glyph unicode="s" glyph-name="uni0073" horiz-adv-x="433" d="M212 -10Q164 -10 130 -2T60 25V137H75L107 83Q140 28 209 28Q292 28 292 96Q292 136 263 153T178 195Q126 218 99 246T71 323Q71 381 117 421T220 461Q256 461 288 453T351 428V317H337L304 369Q271
421 223 421Q150 421 150 359Q150 327 173 310T247 270Q290 250 329 225T369 130Q369 62 317 26T212 -10Z" />
<glyph unicode="t" glyph-name="uni0074" horiz-adv-x="362" d="M211 -10Q163 -10 130 16T96 89V405H16V413L103 451L181 561H190V451H323V405H190V108Q190 82 212 70T266 58Q300 58 330 65H333V53Q321 30 290 10T211 -10Z" />
<glyph unicode="u" glyph-name="uni0075" horiz-adv-x="568" d="M223 -10Q164 -10 127 20T89 108V404L25 435V451H183V154Q183 112 208 90T275 68Q300 68 330 76T378 102V404L310 435V451H473V45L542 16V0H378V63H373Q300 -10 223 -10Z" />
<glyph unicode="v" glyph-name="uni0076" horiz-adv-x="479" d="M224 0L40 405L-26 435V451H223V435L144 406V400L267 135H271L379 395V400L309 435V451H505V435L432 401L249 0H224Z" />
<glyph unicode="w" glyph-name="uni0077" horiz-adv-x="747" d="M199 0L40 405L-26 435V451H223V435L144 406V400L244 136H248L384 451H409L545 139H549L647 395V400L577 435V451H773V435L700 401L531 0H506L367 313L224 0H199Z" />
<glyph unicode="x" glyph-name="uni0078" horiz-adv-x="509" d="M24 0V16L78 50L210 220L75 405L28 435V451H250V435L185 406V400L274 279L354 394V400L299 435V451H468V435L415 401L296 249L444 46L485 16V0H274V16L333 45V51L232 189L141 57V51L202 16V0H24Z" />
<glyph unicode="y" glyph-name="uni0079" horiz-adv-x="479" d="M83 -241Q60 -241 55 -235T49 -212V-158L53 -153H99Q136 -153 151 -142T194 -69L227 6L40 405L-26 435V451H222V435L144 405V400L272 124H276L381 395V400L310 435V451H505V435L431 402L233 -79Q219
-114 211 -133T180 -183Q139 -241 83 -241Z" />
<glyph unicode="z" glyph-name="uni007A" horiz-adv-x="487" d="M66 0V18L288 407H128L82 305H65L76 461H81Q94 458 113 455T146 451H409V433L186 45H361L400 154H417V0H66Z" />
<glyph unicode="{" glyph-name="uni007B" horiz-adv-x="253" d="M225 -150Q142 -150 105 -113T67 -17Q67 45 91 96T115 199Q115 233 97 258T29 284H4V307H29Q78 307 96 332T115 391Q115 442 91 493T67 607Q67 666 104 703T225 740H245V716H218Q174 716 153 691T132
625Q132 566 153 516T175 413Q175 376 156 347T88 295Q136 272 155 243T175 177Q175 125 154 75T132 -35Q132 -76 153 -101T218 -126H245V-150H225Z" />
<glyph unicode="|" glyph-name="uni007C" horiz-adv-x="250" d="M100 -250V750H150V-250H100Z" />
<glyph unicode="}" glyph-name="uni007D" horiz-adv-x="253" d="M28 -150H8V-126H35Q78 -126 99 -101T121 -35Q121 24 100 74T78 177Q78 214 97 243T165 295Q116 318 97 347T78 413Q78 465 99 515T121 625Q121 666 100 691T35 716H8V740H28Q111 740 148 703T186
607Q186 545 162 494T138 391Q138 358 156 333T224 307H249V284H224Q175 284 157 259T138 199Q138 148 162 97T186 -17Q186 -76 149 -113T28 -150Z" />
<glyph unicode="~" glyph-name="uni007E" horiz-adv-x="514" d="M47 201Q47 268 78 305T161 343Q208 343 239 321T295 276T354 253Q414 253 414 343H467Q467 276 437 239T353 201Q306 201 275 223T218 268T160 291Q100 291 100 201H47Z" />
<glyph unicode="&#xa0;" glyph-name="uni00A0" horiz-adv-x="250" />
<glyph unicode="&#xa1;" glyph-name="uni00A1" horiz-adv-x="254" d="M127 333Q102 333 83 352T63 397Q63 422 82 441T127 461Q152 461 171 442T191 397Q191 372 172 353T127 333ZM67 -204L116 252H139L188 -204H67Z" />
<glyph unicode="&#xa2;" glyph-name="uni00A2" horiz-adv-x="514" d="M171 26L191 108Q60 153 60 311Q60 423 127 494T295 566Q300 566 304 566L321 635H367L349 560Q405 548 432 518Q448 499 448 488Q448 474 435 464L395 430H388L354 476Q344 490 333 499L257
190Q285 182 319 182Q378 182 447 221H450V196Q421 152 376 124T271 95Q252 95 235 97L217 26H171ZM156 357Q156 251 216 209L292 518Q280 520 266 520Q214 520 185 477T156 357Z" />
<glyph unicode="&#xa3;" glyph-name="uni00A3" horiz-adv-x="514" d="M49 0V44Q120 102 147 143T174 221Q174 241 166 264T145 312H45V356H124Q109 385 98 414T87 472Q87 548 142 609T287 670Q342 670 379 653T437 612Q453 593 453 582Q453 568 440 558L392 520H385L371
546Q349 585 329 603T273 622Q226 622 203 595T179 530Q179 493 202 447T248 356H404V312H268Q282 275 282 250Q282 170 155 89H402L432 186H468L458 0H49Z" />
<glyph unicode="&#xa4;" glyph-name="uni00A4" horiz-adv-x="514" d="M47 99L126 177Q95 221 95 272Q95 323 126 367L47 445L84 482L163 404Q206 434 257 434Q307 434 352 404L430 482L467 445L389 367Q419 324 419 272Q419 220 389 177L467 99L430 62L352 140Q309
110 257 110Q206 110 163 140L84 62L47 99ZM257 158Q304 158 335 190T366 272Q366 321 335 353T257 386Q210 386 179 354T148 272Q148 223 179 191T257 158Z" />
<glyph unicode="&#xa5;" glyph-name="uni00A5" horiz-adv-x="514" d="M121 0V16L206 56V240H73V284H206V390H73V434H176L40 624L2 644V660H228V644L166 621V619L286 442L393 614V618L331 644V660H513V644L464 624L334 434H437V390H306V284H437V240H306V56L391 16V0H121Z" />
<glyph unicode="&#xa6;" glyph-name="uni00A6" horiz-adv-x="250" d="M100 350V750H150V350H100ZM100 -250V150H150V-250H100Z" />
<glyph unicode="&#xa7;" glyph-name="uni00A7" horiz-adv-x="508" d="M196 -120Q162 -120 132 -108T86 -80Q69 -61 70 -50Q70 -38 83 -28L122 9H128L148 -13Q165 -32 189 -49T247 -67Q285 -67 309 -46T333 9Q333 56 303 77T227 110T138 134T63 178T32 268Q32 315
60 349T136 403Q119 418 109 442T98 501Q98 569 159 619T314 670Q346 670 369 659T408 634Q424 618 424 607Q422 598 411 585L374 551H369L350 572Q334 589 313 604T260 620Q225 620 201 599T176 545Q176 498 206 476T280 443T369 419T444 378T474 293Q474 243
445 207T363 152Q385 137 398 112T411 49Q411 5 379 -33T298 -96T196 -120ZM113 303Q113 252 147 232T231 201T324 174Q353 180 375 201T397 251Q397 304 358 323T265 350T167 382Q113 363 113 303Z" />
<glyph unicode="&#xa8;" glyph-name="uni00A8" horiz-adv-x="500" d="M156 566Q134 566 120 580T105 617Q105 639 119 653T156 668Q207 668 207 617Q207 566 156 566ZM344 566Q322 566 307 580T292 617Q292 639 307 653T344 668Q366 668 380 654T395 617Q395 595
381 581T344 566Z" />
<glyph unicode="&#xa9;" glyph-name="uni00A9" horiz-adv-x="806" d="M403 -10Q260 -10 165 86T70 330Q70 477 165 573T403 670Q546 670 641 574T736 330Q736 183 641 87T403 -10ZM403 27Q529 27 613 113T697 330Q697 461 613 547T403 633Q277 633 193 547T109
330Q109 199 193 113T403 27ZM415 129Q320 129 267 184T213 324Q213 410 275 475T424 540Q469 540 495 531T549 509L553 394H524L488 471Q453 495 424 495Q366 495 328 452T290 341Q290 263 326 219T416 175Q459 175 495 197L531 266H560L552 161Q524 147 492 138T415
129Z" />
<glyph unicode="&#xaa;" glyph-name="uni00AA" horiz-adv-x="403" d="M144 417Q118 417 100 432T82 477Q82 506 100 522T168 552L218 565V598Q218 642 176 642Q144 642 144 612V588L142 586H105Q91 586 91 602Q91 626 124 646Q161 669 197 669Q290 669 290 602V462Q299
453 317 453H332L334 451V444Q328 434 314 426T278 417Q235 417 221 452H218Q186 417 144 417ZM151 491Q151 459 187 459Q202 459 218 465V543Q177 534 164 522T151 491ZM85 292V342H319V292H85Z" />
<glyph unicode="&#xab;" glyph-name="uni00AB" horiz-adv-x="439" d="M221 70L21 247L221 424H234L124 247L234 70H221ZM404 70L204 247L404 424H417L307 247L417 70H404Z" />
<glyph unicode="&#xac;" glyph-name="uni00AC" horiz-adv-x="514" d="M415 62V246H47V298H467V62H415Z" />
<glyph unicode="&#xad;" glyph-name="uni00AD" horiz-adv-x="374" d="M49 222V292H324V222H49Z" />
<glyph unicode="&#xae;" glyph-name="uni00AE" horiz-adv-x="543" d="M271 235Q180 235 119 297T58 453Q58 545 119 607T271 670Q363 670 424 608T485 453Q485 360 424 298T271 235ZM271 266Q351 266 401 319T451 453Q451 532 401 585T271 639Q192 639 142 586T92
453Q92 373 142 320T271 266ZM162 328V335L193 351V561L162 577V583H272Q359 583 359 520Q359 474 305 454L359 348L385 335V328H318L261 445H238V351L268 335V328H162ZM257 560H238V468H259Q281 468 296 480T311 515Q311 560 257 560Z" />
<glyph unicode="&#xaf;" glyph-name="uni00AF" horiz-adv-x="500" d="M114 591V643H386V591H114Z" />
<glyph unicode="&#xb0;" glyph-name="uni00B0" horiz-adv-x="500" d="M250 410Q194 410 157 449T120 540Q120 592 157 631T250 670Q306 670 343 631T380 540Q380 488 343 449T250 410ZM250 450Q286 450 311 474T336 540Q336 581 311 605T250 630Q214 630 189 606T164
540Q164 499 189 475T250 450Z" />
<glyph unicode="&#xb1;" glyph-name="uni00B1" horiz-adv-x="514" d="M230 152V286H47V338H230V482H284V338H467V286H284V152H230ZM47 61V113H467V61H47Z" />
<glyph unicode="&#xb2;" glyph-name="uni00B2" horiz-adv-x="322" d="M27 505V526Q104 613 141 662T189 742T200 801Q200 829 186 848T143 868Q85 868 85 801V773L81 768H40Q20 768 20 791Q20 829 65 864Q85 880 107 890T169 900Q224 900 255 871T287 794Q287
763 274 737T218 671T92 561H259L287 620H302L296 505H27Z" />
<glyph unicode="&#xb3;" glyph-name="uni00B3" horiz-adv-x="325" d="M156 495Q98 495 58 522Q20 548 20 574Q20 590 25 593T42 597H81L86 591V577Q86 526 148 526Q183 526 200 547T217 603Q217 644 197 666T123 688H90V717H104Q146 717 171 739T197 804Q197 868
143 868Q94 868 94 815V791L89 786H50Q29 786 29 811Q29 843 67 868Q91 884 112 892T165 900Q219 900 252 875T285 807Q285 771 256 747T181 713Q305 700 305 610Q305 561 263 528T156 495Z" />
<glyph unicode="&#xb4;" glyph-name="uni00B4" horiz-adv-x="500" d="M162 530L248 707H337Q337 691 330 676T302 643L176 530H162Z" />
<glyph unicode="&#xb5;" glyph-name="uni00B5" horiz-adv-x="561" d="M244 -10Q218 -10 195 -3T150 25L175 -210L87 -230H85V451H179V154Q179 112 205 90T272 68Q297 68 326 76T375 102V451H469V69Q484 52 523 52H559L562 50V44Q550 23 526 7T466 -10Q395 -10
379 63H371Q310 -10 244 -10Z" />
<glyph unicode="&#xb6;" glyph-name="uni00B6" horiz-adv-x="501" d="M266 -110V359H223Q142 359 89 403T35 514Q35 590 82 625T207 660H317V-110H266ZM376 -110V660H509V644L428 604V-110H376Z" />
<glyph unicode="&#xb7;" glyph-name="uni00B7" horiz-adv-x="250" d="M125 207Q99 207 80 226T61 271Q61 297 80 316T125 335Q151 335 170 316T189 271Q189 245 170 226T125 207Z" />
<glyph unicode="&#xb8;" glyph-name="uni00B8" horiz-adv-x="500" d="M242 -240Q187 -240 159 -211V-198H162Q189 -210 224 -210Q278 -210 278 -171Q278 -149 258 -135T178 -103L235 21H271L237 -52Q295 -70 318 -92T341 -153Q341 -190 315 -215T242 -240Z" />
<glyph unicode="&#xb9;" glyph-name="uni00B9" horiz-adv-x="275" d="M62 505V520L118 541V828L15 776V806L158 893H200V541L250 520V505H62Z" />
<glyph unicode="&#xba;" glyph-name="uni00BA" horiz-adv-x="403" d="M202 417Q145 417 110 453T75 543Q75 595 110 632T202 669Q258 669 293 632T328 543Q328 490 293 454T202 417ZM207 442Q230 442 241 467T253 532Q253 582 238 613T197 644Q174 644 162 618T150
554Q150 504 165 473T207 442ZM85 292V342H319V292H85Z" />
<glyph unicode="&#xbb;" glyph-name="uni00BB" horiz-adv-x="439" d="M21 70L132 247L21 424H34L234 247L34 70H21ZM204 70L315 247L204 424H217L417 247L217 70H204Z" />
<glyph unicode="&#xbc;" glyph-name="uni00BC" horiz-adv-x="760" d="M100 355V370L156 391V678L53 626V656L196 743H238V391L288 370V355H100ZM134 15L601 750L639 725L173 -10L134 15ZM509 0V15L564 38V104H399V119L598 388H647V145H717V104H647V38L696 15V0H509ZM458
145H564V293L458 145Z" />
<glyph unicode="&#xbd;" glyph-name="uni00BD" horiz-adv-x="760" d="M96 355V370L152 391V678L49 626V656L192 743H234V391L284 370V355H96ZM103 15L570 750L608 725L142 -10L103 15ZM431 0V21Q508 108 545 157T593 237T604 296Q604 324 590 343T547 363Q489
363 489 296V268L485 263H444Q424 263 424 286Q424 324 469 359Q489 375 511 385T573 395Q628 395 659 366T691 289Q691 258 678 232T622 166T496 56H663L691 115H706L700 0H431Z" />
<glyph unicode="&#xbe;" glyph-name="uni00BE" horiz-adv-x="760" d="M169 345Q111 345 71 372Q33 398 33 424Q33 440 38 443T55 447H94L99 441V427Q99 376 161 376Q196 376 213 397T230 453Q230 494 210 516T136 538H103V567H117Q159 567 184 589T210 654Q210
718 156 718Q107 718 107 665V641L102 636H63Q42 636 42 661Q42 693 80 718Q104 734 125 742T178 750Q232 750 265 725T298 657Q298 621 269 597T194 563Q318 550 318 460Q318 411 276 378T169 345ZM159 15L626 750L664 725L198 -10L159 15ZM534 0V15L589 38V104H424V119L623
388H672V145H742V104H672V38L721 15V0H534ZM483 145H589V293L483 145Z" />
<glyph unicode="&#xbf;" glyph-name="uni00BF" horiz-adv-x="479" d="M269 333Q244 333 225 352T205 397Q205 422 224 441T269 461Q295 461 314 442T333 397Q333 372 314 353T269 333ZM233 -214Q153 -214 102 -162T51 -37Q51 29 97 81T248 175L257 252H280L308
104Q150 56 150 -40Q150 -107 182 -138T260 -169Q347 -169 347 -62V-23L355 -13H404Q423 -13 432 -19T441 -52Q441 -113 380 -155Q346 -180 314 -197T233 -214Z" />
<glyph unicode="&#xc0;" glyph-name="uni00C0" horiz-adv-x="756" d="M30 0V16L93 49L350 665H405L659 52L726 16V0H462V16L550 51L476 231H235L162 50L246 16V0H30ZM258 286H454L356 527L258 286ZM371 710L245 798Q222 814 216 830T210 862H299L385 710H371Z" />
<glyph unicode="&#xc1;" glyph-name="uni00C1" horiz-adv-x="756" d="M30 0V16L93 49L350 665H405L659 52L726 16V0H462V16L550 51L476 231H235L162 50L246 16V0H30ZM258 286H454L356 527L258 286ZM372 710L458 862H547Q547 846 541 830T512 798L386 710H372Z" />
<glyph unicode="&#xc2;" glyph-name="uni00C2" horiz-adv-x="756" d="M30 0V16L93 49L350 665H405L659 52L726 16V0H462V16L550 51L476 231H235L162 50L246 16V0H30ZM258 286H454L356 527L258 286ZM228 710L361 862H395L528 710H514L378 783L242 710H228Z" />
<glyph unicode="&#xc3;" glyph-name="uni00C3" horiz-adv-x="756" d="M30 0V16L93 49L350 665H405L659 52L726 16V0H462V16L550 51L476 231H235L162 50L246 16V0H30ZM258 286H454L356 527L258 286ZM223 725Q248 800 269 821T320 842Q360 842 391 816T457 790Q476
790 490 800T518 842H533Q509 767 487 746T436 725Q396 725 365 751T299 777Q280 777 266 767T238 725H223Z" />
<glyph unicode="&#xc4;" glyph-name="uni00C4" horiz-adv-x="756" d="M30 0V16L93 49L350 665H405L659 52L726 16V0H462V16L550 51L476 231H235L162 50L246 16V0H30ZM258 286H454L356 527L258 286ZM284 735Q262 735 248 749T233 786Q233 808 247 822T284 837Q335
837 335 786Q335 735 284 735ZM472 735Q450 735 435 749T420 786Q420 808 435 822T472 837Q494 837 508 823T523 786Q523 764 509 750T472 735Z" />
<glyph unicode="&#xc5;" glyph-name="uni00C5" horiz-adv-x="756" d="M30 0V16L93 49L350 665H405L659 52L726 16V0H462V16L550 51L476 231H235L162 50L246 16V0H30ZM258 286H454L356 527L258 286ZM378 710Q340 710 316 733T291 793Q291 829 315 853T378 877Q417
877 441 853T465 793Q465 757 441 734T378 710ZM383 734Q415 734 415 787Q415 853 374 853Q343 853 343 800Q343 734 383 734Z" />
<glyph unicode="&#xc6;" glyph-name="uni00C6" horiz-adv-x="993" d="M464 660H896V488H880L816 605H580V368H746L797 452H813V231H797L746 313H580V55H843L908 187H924V0H394V16L475 56V234H271L161 50L241 16V0H25V16L89 50L464 660ZM304 289H475V575L304 289Z" />
<glyph unicode="&#xc7;" glyph-name="uni00C7" horiz-adv-x="722" d="M381 -210Q435 -210 435 -171Q435 -149 415 -135T335 -103L378 -9Q233 -2 149 88T65 313Q65 408 113 489T241 620T415 670Q491 670 534 656T619 622L625 444H607L538 574Q504 598 477 609T415
620Q311 620 242 541T173 338Q173 198 239 120T401 42Q453 42 488 56T552 89L619 201H636L624 40Q582 18 535 5T414 -10L394 -52Q452 -70 475 -92T498 -153Q498 -190 472 -215T399 -240Q344 -240 316 -211V-198H320Q346 -210 381 -210Z" />
<glyph unicode="&#xc8;" glyph-name="uni00C8" horiz-adv-x="659" d="M60 0V16L141 56V604L60 644V660H562V488H546L481 605H246V368H412L463 452H479V231H463L412 313H246V55H508L574 187H590V0H60ZM332 710L206 798Q183 814 177 830T171 862H260L346 710H332Z" />
<glyph unicode="&#xc9;" glyph-name="uni00C9" horiz-adv-x="659" d="M60 0V16L141 56V604L60 644V660H562V488H546L481 605H246V368H412L463 452H479V231H463L412 313H246V55H508L574 187H590V0H60ZM333 710L419 862H508Q508 846 502 830T473 798L347 710H333Z" />
<glyph unicode="&#xca;" glyph-name="uni00CA" horiz-adv-x="659" d="M60 0V16L141 56V604L60 644V660H562V488H546L481 605H246V368H412L463 452H479V231H463L412 313H246V55H508L574 187H590V0H60ZM189 710L322 862H356L489 710H475L339 783L203 710H189Z" />
<glyph unicode="&#xcb;" glyph-name="uni00CB" horiz-adv-x="659" d="M60 0V16L141 56V604L60 644V660H562V488H546L481 605H246V368H412L463 452H479V231H463L412 313H246V55H508L574 187H590V0H60ZM246 735Q224 735 210 749T195 786Q195 808 209 822T246 837Q297
837 297 786Q297 735 246 735ZM434 735Q412 735 397 749T382 786Q382 808 397 822T434 837Q456 837 470 823T485 786Q485 764 471 750T434 735Z" />
<glyph unicode="&#xcc;" glyph-name="uni00CC" horiz-adv-x="395" d="M64 0V16L146 56V604L64 644V660H331V644L250 604V56L331 16V0H64ZM190 710L64 798Q41 814 35 830T29 862H118L204 710H190Z" />
<glyph unicode="&#xcd;" glyph-name="uni00CD" horiz-adv-x="395" d="M64 0V16L146 56V604L64 644V660H331V644L250 604V56L331 16V0H64ZM191 710L277 862H366Q366 846 360 830T331 798L205 710H191Z" />
<glyph unicode="&#xce;" glyph-name="uni00CE" horiz-adv-x="395" d="M64 0V16L146 56V604L64 644V660H331V644L250 604V56L331 16V0H64ZM48 710L181 862H215L348 710H334L198 783L62 710H48Z" />
<glyph unicode="&#xcf;" glyph-name="uni00CF" horiz-adv-x="395" d="M64 0V16L146 56V604L64 644V660H331V644L250 604V56L331 16V0H64ZM104 735Q82 735 68 749T53 786Q53 808 67 822T104 837Q155 837 155 786Q155 735 104 735ZM292 735Q270 735 255 749T240
786Q240 808 255 822T292 837Q314 837 328 823T343 786Q343 764 329 750T292 735Z" />
<glyph unicode="&#xd0;" glyph-name="uni00D0" horiz-adv-x="781" d="M60 0V16L141 56V317H60V367H141V604L60 644V660H364Q533 660 625 575T717 360Q717 256 670 175T542 47T357 0H60ZM415 317H246V55H352Q471 55 539 129T608 329Q608 454 538 529T337 605H246V367H415V317Z"
/>
<glyph unicode="&#xd1;" glyph-name="uni00D1" horiz-adv-x="803" d="M56 0V16L137 56V602L57 644V660H214L597 189V605L494 644V660H747V644L667 605V-5H624L207 507V55L310 16V0H56ZM256 725Q281 800 302 821T353 842Q393 842 424 816T490 790Q509 790 523 800T551
842H566Q542 767 520 746T469 725Q429 725 398 751T332 777Q313 777 299 767T271 725H256Z" />
<glyph unicode="&#xd2;" glyph-name="uni00D2" horiz-adv-x="803" d="M401 -10Q256 -10 161 86T65 330Q65 477 160 573T401 670Q546 670 642 574T738 330Q738 183 642 87T401 -10ZM421 40Q512 40 569 110T626 299Q626 445 556 533T385 621Q294 621 236 552T177
363Q177 217 248 129T421 40ZM383 710L257 798Q234 814 228 830T222 862H311L397 710H383Z" />
<glyph unicode="&#xd3;" glyph-name="uni00D3" horiz-adv-x="803" d="M401 -10Q256 -10 161 86T65 330Q65 477 160 573T401 670Q546 670 642 574T738 330Q738 183 642 87T401 -10ZM421 40Q512 40 569 110T626 299Q626 445 556 533T385 621Q294 621 236 552T177
363Q177 217 248 129T421 40ZM384 710L470 862H559Q559 846 553 830T524 798L398 710H384Z" />
<glyph unicode="&#xd4;" glyph-name="uni00D4" horiz-adv-x="803" d="M401 -10Q256 -10 161 86T65 330Q65 477 160 573T401 670Q546 670 642 574T738 330Q738 183 642 87T401 -10ZM421 40Q512 40 569 110T626 299Q626 445 556 533T385 621Q294 621 236 552T177
363Q177 217 248 129T421 40ZM241 710L374 862H408L541 710H527L391 783L255 710H241Z" />
<glyph unicode="&#xd5;" glyph-name="uni00D5" horiz-adv-x="803" d="M401 -10Q256 -10 161 86T65 330Q65 477 160 573T401 670Q546 670 642 574T738 330Q738 183 642 87T401 -10ZM421 40Q512 40 569 110T626 299Q626 445 556 533T385 621Q294 621 236 552T177
363Q177 217 248 129T421 40ZM236 725Q261 800 282 821T333 842Q373 842 404 816T470 790Q489 790 503 800T531 842H546Q522 767 500 746T449 725Q409 725 378 751T312 777Q293 777 279 767T251 725H236Z" />
<glyph unicode="&#xd6;" glyph-name="uni00D6" horiz-adv-x="803" d="M401 -10Q256 -10 161 86T65 330Q65 477 160 573T401 670Q546 670 642 574T738 330Q738 183 642 87T401 -10ZM421 40Q512 40 569 110T626 299Q626 445 556 533T385 621Q294 621 236 552T177
363Q177 217 248 129T421 40ZM297 735Q275 735 261 749T246 786Q246 808 260 822T297 837Q348 837 348 786Q348 735 297 735ZM485 735Q463 735 448 749T433 786Q433 808 448 822T485 837Q507 837 521 823T536 786Q536 764 522 750T485 735Z" />
<glyph unicode="&#xd7;" glyph-name="uni00D7" horiz-adv-x="514" d="M110 87L73 125L220 272L73 419L110 457L258 310L405 457L442 419L295 272L442 125L405 87L258 234L110 87Z" />
<glyph unicode="&#xd8;" glyph-name="uni00D8" horiz-adv-x="803" d="M65 -10L155 92Q65 188 65 330Q65 477 160 573T401 670Q519 670 608 603L667 670H738L647 568Q738 472 738 330Q738 183 642 87T401 -10Q283 -10 195 57L136 -10H65ZM177 363Q177 250 222 168L551
539Q484 621 385 621Q294 621 236 552T177 363ZM421 40Q512 40 569 110T626 299Q626 411 582 493L253 122Q321 40 421 40Z" />
<glyph unicode="&#xd9;" glyph-name="uni00D9" horiz-adv-x="816" d="M409 -10Q293 -10 217 54T141 263V604L60 644V660H327V644L246 604V274Q246 150 302 101T441 52Q507 52 556 95T605 239V606L507 644V660H756V644L675 605V263Q675 118 600 54T409 -10ZM417
710L291 798Q268 814 262 830T256 862H345L431 710H417Z" />
<glyph unicode="&#xda;" glyph-name="uni00DA" horiz-adv-x="816" d="M409 -10Q293 -10 217 54T141 263V604L60 644V660H327V644L246 604V274Q246 150 302 101T441 52Q507 52 556 95T605 239V606L507 644V660H756V644L675 605V263Q675 118 600 54T409 -10ZM418
710L504 862H593Q593 846 587 830T558 798L432 710H418Z" />
<glyph unicode="&#xdb;" glyph-name="uni00DB" horiz-adv-x="816" d="M409 -10Q293 -10 217 54T141 263V604L60 644V660H327V644L246 604V274Q246 150 302 101T441 52Q507 52 556 95T605 239V606L507 644V660H756V644L675 605V263Q675 118 600 54T409 -10ZM275
710L408 862H442L575 710H561L425 783L289 710H275Z" />
<glyph unicode="&#xdc;" glyph-name="uni00DC" horiz-adv-x="816" d="M409 -10Q293 -10 217 54T141 263V604L60 644V660H327V644L246 604V274Q246 150 302 101T441 52Q507 52 556 95T605 239V606L507 644V660H756V644L675 605V263Q675 118 600 54T409 -10ZM331
735Q309 735 295 749T280 786Q280 808 294 822T331 837Q382 837 382 786Q382 735 331 735ZM519 735Q497 735 482 749T467 786Q467 808 482 822T519 837Q541 837 555 823T570 786Q570 764 556 750T519 735Z" />
<glyph unicode="&#xdd;" glyph-name="uni00DD" horiz-adv-x="727" d="M225 0V16L315 56V308L94 609L31 644V660H289V644L216 608V604L393 363L553 603V607L479 644V660H695V644L630 611L419 309V56L509 16V0H225ZM377 710L463 862H552Q552 846 546 830T517 798L391
710H377Z" />
<glyph unicode="&#xde;" glyph-name="uni00DE" horiz-adv-x="649" d="M60 0V16L141 56V604L60 644V660H327V644L246 604V538H340Q458 538 529 495T601 359Q601 276 520 223T316 170H246V56L327 16V0H60ZM315 483H246V223H322Q401 223 446 259T491 351Q491 421
446 452T315 483Z" />
<glyph unicode="&#xdf;" glyph-name="uni00DF" horiz-adv-x="619" d="M59 0V16L122 48V404H44V451H122V480Q122 548 151 610T234 711T363 750Q446 750 490 712T535 622Q535 569 503 534T438 463T406 378Q406 346 432 326T507 268Q558 229 577 199T597 127Q597
70 551 30T442 -10Q396 -10 362 -2T293 25V137H307L340 83Q372 28 434 28Q471 28 494 47T517 101Q517 141 486 166T407 224Q373 247 349 273T325 347Q325 395 355 426T416 495T447 605Q447 648 420 678T339 708Q272 708 245 665T217 550V0H59Z" />
<glyph unicode="&#xe0;" glyph-name="uni00E0" horiz-adv-x="495" d="M155 -10Q107 -10 76 18T44 97Q44 146 79 181T203 238L298 260V330Q298 366 272 390T210 414Q144 414 144 343V311L139 306H84Q58 306 58 335Q58 385 113 419Q143 438 174 449T240 461Q298
461 345 437T393 348V69Q408 52 447 52H482L486 50V44Q474 23 450 7T390 -10Q325 -10 305 52H298Q272 26 235 8T155 -10ZM135 119Q135 57 208 57Q250 57 298 77V225Q190 204 163 179T135 119ZM223 530L97 643Q76 661 69 676T62 707H151L237 530H223Z" />
<glyph unicode="&#xe1;" glyph-name="uni00E1" horiz-adv-x="495" d="M155 -10Q107 -10 76 18T44 97Q44 146 79 181T203 238L298 260V330Q298 366 272 390T210 414Q144 414 144 343V311L139 306H84Q58 306 58 335Q58 385 113 419Q143 438 174 449T240 461Q298
461 345 437T393 348V69Q408 52 447 52H482L486 50V44Q474 23 450 7T390 -10Q325 -10 305 52H298Q272 26 235 8T155 -10ZM135 119Q135 57 208 57Q250 57 298 77V225Q190 204 163 179T135 119ZM227 530L313 707H402Q402 691 395 676T367 643L241 530H227Z" />
<glyph unicode="&#xe2;" glyph-name="uni00E2" horiz-adv-x="495" d="M155 -10Q107 -10 76 18T44 97Q44 146 79 181T203 238L298 260V330Q298 366 272 390T210 414Q144 414 144 343V311L139 306H84Q58 306 58 335Q58 385 113 419Q143 438 174 449T240 461Q298
461 345 437T393 348V69Q408 52 447 52H482L486 50V44Q474 23 450 7T390 -10Q325 -10 305 52H298Q272 26 235 8T155 -10ZM135 119Q135 57 208 57Q250 57 298 77V225Q190 204 163 179T135 119ZM80 530L213 707H247L380 530H366L230 622L94 530H80Z" />
<glyph unicode="&#xe3;" glyph-name="uni00E3" horiz-adv-x="495" d="M155 -10Q107 -10 76 18T44 97Q44 146 79 181T203 238L298 260V330Q298 366 272 390T210 414Q144 414 144 343V311L139 306H84Q58 306 58 335Q58 385 113 419Q143 438 174 449T240 461Q298
461 345 437T393 348V69Q408 52 447 52H482L486 50V44Q474 23 450 7T390 -10Q325 -10 305 52H298Q272 26 235 8T155 -10ZM135 119Q135 57 208 57Q250 57 298 77V225Q190 204 163 179T135 119ZM75 555Q102 638 123 659T173 681Q213 681 244 649T308 617Q328 617
341 630T370 681H385Q358 598 337 577T287 555Q247 555 216 587T152 619Q132 619 119 606T90 555H75Z" />
<glyph unicode="&#xe4;" glyph-name="uni00E4" horiz-adv-x="495" d="M155 -10Q107 -10 76 18T44 97Q44 146 79 181T203 238L298 260V330Q298 366 272 390T210 414Q144 414 144 343V311L139 306H84Q58 306 58 335Q58 385 113 419Q143 438 174 449T240 461Q298
461 345 437T393 348V69Q408 52 447 52H482L486 50V44Q474 23 450 7T390 -10Q325 -10 305 52H298Q272 26 235 8T155 -10ZM135 119Q135 57 208 57Q250 57 298 77V225Q190 204 163 179T135 119ZM136 566Q114 566 100 580T85 617Q85 639 99 653T136 668Q187 668 187
617Q187 566 136 566ZM324 566Q302 566 287 580T272 617Q272 639 287 653T324 668Q346 668 360 654T375 617Q375 595 361 581T324 566Z" />
<glyph unicode="&#xe5;" glyph-name="uni00E5" horiz-adv-x="495" d="M155 -10Q107 -10 76 18T44 97Q44 146 79 181T203 238L298 260V330Q298 366 272 390T210 414Q144 414 144 343V311L139 306H84Q58 306 58 335Q58 385 113 419Q143 438 174 449T240 461Q298
461 345 437T393 348V69Q408 52 447 52H482L486 50V44Q474 23 450 7T390 -10Q325 -10 305 52H298Q272 26 235 8T155 -10ZM135 119Q135 57 208 57Q250 57 298 77V225Q190 204 163 179T135 119ZM230 701Q269 701 293 677T317 618Q317 582 293 559T230 535Q192 535
168 558T143 618Q143 653 167 677T230 701ZM226 677Q195 677 195 625Q195 559 235 559Q267 559 267 611Q267 677 226 677Z" />
<glyph unicode="&#xe6;" glyph-name="uni00E6" horiz-adv-x="740" d="M156 -10Q108 -10 77 18T45 97Q45 146 80 181T204 238L299 260V330Q299 366 273 390T211 414Q145 414 145 343V311L140 306H85Q59 306 59 335Q59 385 114 419Q144 438 175 449T241 461Q283
461 322 448T379 402Q440 461 521 461Q600 461 645 407T691 250L687 245H392Q393 176 430 125T561 73Q619 73 689 111H692V99Q669 53 622 22T512 -10Q395 -10 338 72H332Q304 38 259 14T156 -10ZM503 417Q410 417 394 291H607Q596 359 570 388T503 417ZM135 119Q135
57 208 57Q240 57 268 66T326 91Q299 140 299 207V225Q190 204 163 179T135 119Z" />
<glyph unicode="&#xe7;" glyph-name="uni00E7" horiz-adv-x="480" d="M244 -210Q298 -210 298 -171Q298 -149 277 -135T197 -103L241 -9Q151 -4 99 54T47 206Q47 318 114 389T282 461Q324 461 362 448T420 412Q435 394 435 382Q435 369 423 358L382 325H375L342
370Q326 392 305 404T252 417Q199 417 169 373T139 252Q139 182 175 128T306 73Q364 73 434 111H437V99Q416 57 374 27T276 -9L257 -52Q314 -70 337 -92T360 -153Q360 -190 335 -215T261 -240Q205 -240 179 -211V-198H182Q209 -210 244 -210Z" />
<glyph unicode="&#xe8;" glyph-name="uni00E8" horiz-adv-x="487" d="M259 -10Q161 -10 104 49T47 206Q47 318 113 389T268 461Q348 461 393 407T439 250L434 245H139Q140 176 177 125T308 73Q365 73 437 111H440V99Q416 53 369 22T259 -10ZM250 417Q157 417 141
291H354Q344 359 318 388T250 417ZM255 530L129 643Q108 661 101 676T94 707H183L269 530H255Z" />
<glyph unicode="&#xe9;" glyph-name="uni00E9" horiz-adv-x="487" d="M259 -10Q161 -10 104 49T47 206Q47 318 113 389T268 461Q348 461 393 407T439 250L434 245H139Q140 176 177 125T308 73Q365 73 437 111H440V99Q416 53 369 22T259 -10ZM250 417Q157 417 141
291H354Q344 359 318 388T250 417ZM259 530L345 707H434Q434 691 427 676T399 643L273 530H259Z" />
<glyph unicode="&#xea;" glyph-name="uni00EA" horiz-adv-x="487" d="M259 -10Q161 -10 104 49T47 206Q47 318 113 389T268 461Q348 461 393 407T439 250L434 245H139Q140 176 177 125T308 73Q365 73 437 111H440V99Q416 53 369 22T259 -10ZM250 417Q157 417 141
291H354Q344 359 318 388T250 417ZM111 530L244 707H278L411 530H397L261 622L125 530H111Z" />
<glyph unicode="&#xeb;" glyph-name="uni00EB" horiz-adv-x="487" d="M259 -10Q161 -10 104 49T47 206Q47 318 113 389T268 461Q348 461 393 407T439 250L434 245H139Q140 176 177 125T308 73Q365 73 437 111H440V99Q416 53 369 22T259 -10ZM250 417Q157 417 141
291H354Q344 359 318 388T250 417ZM167 566Q145 566 131 580T116 617Q116 639 130 653T167 668Q218 668 218 617Q218 566 167 566ZM355 566Q333 566 318 580T303 617Q303 639 318 653T355 668Q377 668 391 654T406 617Q406 595 392 581T355 566Z" />
<glyph unicode="&#xec;" glyph-name="uni00EC" horiz-adv-x="318" d="M49 0V16L113 48V347L52 398V406L200 461H207V48L269 16V0H49ZM153 530L27 643Q6 661 -1 676T-8 707H81L167 530H153Z" />
<glyph unicode="&#xed;" glyph-name="uni00ED" horiz-adv-x="318" d="M49 0V16L113 48V347L52 398V406L200 461H207V48L269 16V0H49ZM157 530L243 707H332Q332 691 325 676T297 643L171 530H157Z" />
<glyph unicode="&#xee;" glyph-name="uni00EE" horiz-adv-x="318" d="M49 0V16L113 48V347L52 398V406L200 461H207V48L269 16V0H49ZM9 530L142 707H176L309 530H295L159 622L23 530H9Z" />
<glyph unicode="&#xef;" glyph-name="uni00EF" horiz-adv-x="318" d="M49 0V16L113 48V347L52 398V406L200 461H207V48L269 16V0H49ZM65 566Q43 566 29 580T14 617Q14 639 28 653T65 668Q116 668 116 617Q116 566 65 566ZM253 566Q231 566 216 580T201 617Q201
639 216 653T253 668Q275 668 289 654T304 617Q304 595 290 581T253 566Z" />
<glyph unicode="&#xf0;" glyph-name="uni00F0" horiz-adv-x="547" d="M271 -10Q171 -10 109 56T46 217Q46 336 117 398T286 461Q331 461 364 453Q336 536 281 598L204 523H134L247 632Q186 685 105 714V749Q204 720 282 666L360 741H430L322 637Q406 567 453 470T500
260Q500 142 437 66T271 -10ZM149 227Q149 159 180 97T280 34Q327 34 360 89T394 265Q394 313 387 357Q363 384 337 398T276 412Q223 412 186 371T149 227Z" />
<glyph unicode="&#xf1;" glyph-name="uni00F1" horiz-adv-x="590" d="M44 0V16L108 48V347L47 397V405L185 461H192L201 387H206Q244 424 279 442T358 461Q416 461 454 432T493 343V48L556 16V0H332V16L398 48V297Q398 340 372 361T305 383Q280 383 250 375T202
350V48L268 16V0H44ZM145 555Q172 638 193 659T243 681Q283 681 314 649T378 617Q398 617 411 630T440 681H455Q428 598 407 577T357 555Q317 555 286 587T222 619Q202 619 189 606T160 555H145Z" />
<glyph unicode="&#xf2;" glyph-name="uni00F2" horiz-adv-x="542" d="M271 -10Q170 -10 108 58T46 226Q46 326 108 393T271 461Q371 461 433 394T495 226Q495 126 433 58T271 -10ZM284 34Q341 34 366 87T392 206Q392 286 361 352T260 418Q202 418 176 366T149
247Q149 167 181 101T284 34ZM262 530L136 643Q115 661 108 676T101 707H190L276 530H262Z" />
<glyph unicode="&#xf3;" glyph-name="uni00F3" horiz-adv-x="542" d="M271 -10Q170 -10 108 58T46 226Q46 326 108 393T271 461Q371 461 433 394T495 226Q495 126 433 58T271 -10ZM284 34Q341 34 366 87T392 206Q392 286 361 352T260 418Q202 418 176 366T149
247Q149 167 181 101T284 34ZM266 530L352 707H441Q441 691 434 676T406 643L280 530H266Z" />
<glyph unicode="&#xf4;" glyph-name="uni00F4" horiz-adv-x="542" d="M271 -10Q170 -10 108 58T46 226Q46 326 108 393T271 461Q371 461 433 394T495 226Q495 126 433 58T271 -10ZM284 34Q341 34 366 87T392 206Q392 286 361 352T260 418Q202 418 176 366T149
247Q149 167 181 101T284 34ZM118 530L251 707H285L418 530H404L268 622L132 530H118Z" />
<glyph unicode="&#xf5;" glyph-name="uni00F5" horiz-adv-x="542" d="M271 -10Q170 -10 108 58T46 226Q46 326 108 393T271 461Q371 461 433 394T495 226Q495 126 433 58T271 -10ZM284 34Q341 34 366 87T392 206Q392 286 361 352T260 418Q202 418 176 366T149
247Q149 167 181 101T284 34ZM113 555Q140 638 161 659T211 681Q251 681 282 649T346 617Q366 617 379 630T408 681H423Q396 598 375 577T325 555Q285 555 254 587T190 619Q170 619 157 606T128 555H113Z" />
<glyph unicode="&#xf6;" glyph-name="uni00F6" horiz-adv-x="542" d="M271 -10Q170 -10 108 58T46 226Q46 326 108 393T271 461Q371 461 433 394T495 226Q495 126 433 58T271 -10ZM284 34Q341 34 366 87T392 206Q392 286 361 352T260 418Q202 418 176 366T149
247Q149 167 181 101T284 34ZM174 566Q152 566 138 580T123 617Q123 639 137 653T174 668Q225 668 225 617Q225 566 174 566ZM362 566Q340 566 325 580T310 617Q310 639 325 653T362 668Q384 668 398 654T413 617Q413 595 399 581T362 566Z" />
<glyph unicode="&#xf7;" glyph-name="uni00F7" horiz-adv-x="514" d="M224 417V482H290V417H224ZM47 246V298H467V246H47ZM224 62V127H290V62H224Z" />
<glyph unicode="&#xf8;" glyph-name="uni00F8" horiz-adv-x="542" d="M46 -10L105 62Q46 128 46 226Q46 326 108 393T271 461Q343 461 398 423L429 461H495L437 389Q495 323 495 226Q495 126 433 58T271 -10Q199 -10 144 28L113 -10H46ZM149 247Q149 186 165 137L352
367Q318 418 260 418Q202 418 176 366T149 247ZM284 34Q341 34 366 87T392 206Q392 267 377 315L190 85Q226 34 284 34Z" />
<glyph unicode="&#xf9;" glyph-name="uni00F9" horiz-adv-x="568" d="M223 -10Q164 -10 127 20T89 108V404L25 435V451H183V154Q183 112 208 90T275 68Q300 68 330 76T378 102V404L310 435V451H473V45L542 16V0H378V63H373Q300 -10 223 -10ZM269 530L143 643Q122
661 115 676T108 707H197L283 530H269Z" />
<glyph unicode="&#xfa;" glyph-name="uni00FA" horiz-adv-x="568" d="M223 -10Q164 -10 127 20T89 108V404L25 435V451H183V154Q183 112 208 90T275 68Q300 68 330 76T378 102V404L310 435V451H473V45L542 16V0H378V63H373Q300 -10 223 -10ZM273 530L359 707H448Q448
691 441 676T413 643L287 530H273Z" />
<glyph unicode="&#xfb;" glyph-name="uni00FB" horiz-adv-x="568" d="M223 -10Q164 -10 127 20T89 108V404L25 435V451H183V154Q183 112 208 90T275 68Q300 68 330 76T378 102V404L310 435V451H473V45L542 16V0H378V63H373Q300 -10 223 -10ZM126 530L259 707H293L426
530H412L276 622L140 530H126Z" />
<glyph unicode="&#xfc;" glyph-name="uni00FC" horiz-adv-x="568" d="M223 -10Q164 -10 127 20T89 108V404L25 435V451H183V154Q183 112 208 90T275 68Q300 68 330 76T378 102V404L310 435V451H473V45L542 16V0H378V63H373Q300 -10 223 -10ZM182 566Q160 566 146
580T131 617Q131 639 145 653T182 668Q233 668 233 617Q233 566 182 566ZM370 566Q348 566 333 580T318 617Q318 639 333 653T370 668Q392 668 406 654T421 617Q421 595 407 581T370 566Z" />
<glyph unicode="&#xfd;" glyph-name="uni00FD" horiz-adv-x="479" d="M83 -241Q60 -241 55 -235T49 -212V-158L53 -153H99Q136 -153 151 -142T194 -69L227 6L40 405L-26 435V451H222V435L144 405V400L272 124H276L381 395V400L310 435V451H505V435L431 402L233
-79Q219 -114 211 -133T180 -183Q139 -241 83 -241ZM265 530L351 707H440Q440 691 433 676T405 643L279 530H265Z" />
<glyph unicode="&#xfe;" glyph-name="uni00FE" horiz-adv-x="572" d="M44 -230V-214L108 -182V636L47 687V695L186 750H202V401H208Q278 461 355 461Q428 461 478 404T528 247Q528 125 461 58T299 -10Q245 -10 202 0V-182L275 -214V-230H44ZM294 389Q246 389 202
362V78Q250 39 320 39Q365 39 399 78T433 215Q433 306 392 347T294 389Z" />
<glyph unicode="&#xff;" glyph-name="uni00FF" horiz-adv-x="479" d="M83 -241Q60 -241 55 -235T49 -212V-158L53 -153H99Q136 -153 151 -142T194 -69L227 6L40 405L-26 435V451H222V435L144 405V400L272 124H276L381 395V400L310 435V451H505V435L431 402L233
-79Q219 -114 211 -133T180 -183Q139 -241 83 -241ZM174 566Q152 566 138 580T123 617Q123 639 137 653T174 668Q225 668 225 617Q225 566 174 566ZM362 566Q340 566 325 580T310 617Q310 639 325 653T362 668Q384 668 398 654T413 617Q413 595 399 581T362 566Z"
/>
<glyph unicode="&#x2013;" glyph-name="uni2013" horiz-adv-x="500" d="M49 247V297H451V247H49Z" />
<glyph unicode="&#x2014;" glyph-name="uni2014" horiz-adv-x="1000" d="M49 247V297H951V247H49Z" />
<glyph unicode="&#x2018;" glyph-name="uni2018" horiz-adv-x="248" d="M151 480Q141 480 124 487Q50 531 50 602Q50 644 86 689T197 750V728Q162 719 137 698T111 648Q111 630 120 614T161 581L196 563L197 551L175 502Q167 480 151 480Z" />
<glyph unicode="&#x2019;" glyph-name="uni2019" horiz-adv-x="248" d="M52 480V502Q86 512 112 533T138 583Q138 601 129 617T88 650L52 668L51 680L73 729Q81 750 97 750Q110 750 124 743Q199 700 199 629Q199 592 164 545T52 480Z" />
<glyph unicode="&#x201a;" glyph-name="uni201A" horiz-adv-x="248" d="M52 -194V-172Q86 -162 112 -141T138 -91Q138 -73 129 -57T88 -24L52 -6L51 6L73 55Q81 76 97 76Q110 76 124 69Q199 26 199 -45Q199 -82 164 -129T52 -194Z" />
<glyph unicode="&#x201c;" glyph-name="uni201C" horiz-adv-x="447" d="M151 480Q141 480 124 487Q50 531 50 602Q50 644 86 689T197 750V728Q162 719 137 698T111 648Q111 630 120 614T161 581L196 563L197 551L175 502Q167 480 151 480ZM350 480Q340 480 323
487Q249 531 249 602Q249 644 285 689T396 750V728Q361 719 336 698T310 648Q310 630 319 614T360 581L395 563L396 551L374 502Q366 480 350 480Z" />
<glyph unicode="&#x201d;" glyph-name="uni201D" horiz-adv-x="447" d="M52 480V502Q86 512 112 533T138 583Q138 601 129 617T88 650L52 668L51 680L73 729Q81 750 97 750Q110 750 124 743Q199 700 199 629Q199 592 164 545T52 480ZM251 480V502Q285 512 311
533T337 583Q337 601 328 617T287 650L251 668L250 680L272 729Q280 750 296 750Q309 750 323 743Q398 700 398 629Q398 592 363 545T251 480Z" />
<glyph unicode="&#x201e;" glyph-name="uni201E" horiz-adv-x="447" d="M52 -194V-172Q86 -162 112 -141T138 -91Q138 -73 129 -57T88 -24L52 -6L51 6L73 55Q81 76 97 76Q110 76 124 69Q199 26 199 -45Q199 -82 164 -129T52 -194ZM251 -194V-172Q285 -162 311
-141T337 -91Q337 -73 328 -57T287 -24L251 -6L250 6L272 55Q280 76 296 76Q309 76 323 69Q398 26 398 -45Q398 -82 363 -129T251 -194Z" />
<glyph unicode="&#x2022;" glyph-name="uni2022" horiz-adv-x="500" d="M250 150Q197 150 163 185T128 272Q128 324 162 358T250 393Q301 393 336 359T371 272Q371 220 336 185T250 150Z" />
<glyph unicode="&#x2039;" glyph-name="uni2039" horiz-adv-x="256" d="M221 70L21 247L221 424H234L124 247L234 70H221Z" />
<glyph unicode="&#x203a;" glyph-name="uni203A" horiz-adv-x="256" d="M21 70L132 247L21 424H34L234 247L34 70H21Z" />
</font>
</defs>
</svg>
