<?xml version="1.0" standalone="no"?>
<!DOCTYPE svg PUBLIC "-//W3C//DTD SVG 1.1//EN" "http://www.w3.org/Graphics/SVG/1.1/DTD/svg11.dtd">
<svg xmlns="http://www.w3.org/2000/svg">
<defs >
<font id="Actor" horiz-adv-x="424" ><font-face
    font-family="Actor"
    units-per-em="1000"
    panose-1="2 11 5 3 5 0 0 2 0 4"
    ascent="941"
    descent="-262"
    alphabetic="0" />
<glyph unicode=" " glyph-name="space" horiz-adv-x="229" />
<glyph unicode="!" glyph-name="exclam" horiz-adv-x="249" d="M73 728L175 739L158 182H93L73 728ZM64 59Q64 83 81 100T123 118Q149 118 167 101T185 59Q185 34 167 17T123 0Q98 0 81 17T64 59Z" />
<glyph unicode="&quot;" glyph-name="quotedbl" horiz-adv-x="340" d="M200 758H280V513H200V758ZM60 758H140V513H60V758Z" />
<glyph unicode="#" glyph-name="numbersign" horiz-adv-x="572" d="M114 229H56V299H138L163 373H73V443H187L232 572L302 549L265 443H386L432 577L502 554L463 443H522V373H439L414 299H483V229H390L341 87L273 114L312 229H191L141 82L73 109L114 229ZM336
299L362 373H241L215 299H336Z" />
<glyph unicode="$" glyph-name="dollar" horiz-adv-x="538" d="M234 -13Q137 -13 50 19L70 100Q154 67 231 67Q270 67 302 71T359 86T396 115T410 161Q410 198 384 224T318 272T233 315T147 364T82 428T55 519Q55 585 103 631T234 689V782H304V690Q379 687 452
671L442 588Q357 611 278 611Q204 611 172 589T140 519Q140 484 166 459T232 411T317 368T403 320T468 258T495 172Q495 127 479 96T435 45T374 12T304 -8V-101H234V-13Z" />
<glyph unicode="%" glyph-name="percent" horiz-adv-x="765" d="M46 540Q46 560 52 588T75 642T122 686T201 704Q247 704 276 686T320 641T341 587T347 540Q347 521 342 493T321 439T276 395T201 376Q153 376 123 394T75 437T52 491T46 540ZM275 540Q275 557 272
574T261 606T237 630T196 640Q173 640 158 631T134 607T121 575T117 540Q117 523 121 506T134 474T158 450T196 440Q221 440 237 449T261 473T272 505T275 540ZM420 151Q420 171 426 199T449 253T496 297T575 315Q621 315 650 297T694 252T715 198T721 151Q721
132 716 104T695 50T650 6T575 -13Q527 -13 497 5T449 48T426 102T420 151ZM649 151Q649 168 646 185T635 217T611 241T570 251Q547 251 532 242T508 218T495 186T491 151Q491 134 495 117T508 85T532 61T570 51Q595 51 611 60T635 84T646 116T649 151ZM602 743L666
695L147 -45L83 2L602 743Z" />
<glyph unicode="&amp;" glyph-name="ampersand" horiz-adv-x="699" d="M652 -21Q617 6 582 36T510 98Q463 49 401 18T257 -13Q213 -13 176 -2T112 30T70 85T54 162Q54 206 71 240T115 302T170 349T223 385Q205 407 185 430T149 478T122 533T111 596Q111 624 121
652T154 702T213 738T303 752Q357 752 392 740T449 706T478 657T487 596Q487 560 472 528T434 467T382 416T328 376Q376 325 418 283T501 203Q528 243 548 287T582 373L648 351Q634 304 612 253T555 154Q592 121 626 91T696 28L652 -21ZM257 57Q317 57 366 81T455
147Q405 192 358 239T268 334Q243 317 219 299T176 260T146 214T134 159Q134 141 141 123T164 90T203 66T257 57ZM191 596Q191 572 197 552T214 512T244 471T286 421Q310 437 331 456T370 498T397 544T407 594Q407 636 386 659T303 682Q247 682 219 659T191 596Z"
/>
<glyph unicode="&apos;" glyph-name="quotesingle" horiz-adv-x="200" d="M60 758H140V513H60V758Z" />
<glyph unicode="(" glyph-name="parenleft" horiz-adv-x="335" d="M273 -262Q228 -226 186 -177T112 -64T59 83T39 271Q39 376 59 458T111 604T186 716T273 800L321 754Q263 697 227 636T169 512T141 389T133 270Q133 212 140 151T169 28T226 -96T321 -216L273 -262Z" />
<glyph unicode=")" glyph-name="parenright" horiz-adv-x="335" d="M14 -216Q72 -158 108 -97T166 27T194 151T202 270Q202 328 195 389T166 512T109 635T14 754L62 800Q107 764 149 716T223 604T276 458T296 271Q296 166 276 84T224 -63T149 -177T62 -262L14 -216Z" />
<glyph unicode="*" glyph-name="asterisk" horiz-adv-x="447" d="M285 410L359 315L295 267L223 371L153 265L87 311L163 411L48 451L74 526L188 479L185 600H265L261 479L373 521L400 446L285 410Z" />
<glyph unicode="+" glyph-name="plus" horiz-adv-x="528" d="M44 294H224V474H304V294H484V220H304V40H224V220H44V294Z" />
<glyph unicode="," glyph-name="comma" horiz-adv-x="211" d="M71 130H156L100 -128L37 -116L71 130Z" />
<glyph unicode="-" glyph-name="hyphen" horiz-adv-x="391" d="M62 294H329V220H62V294Z" />
<glyph unicode="." glyph-name="period" horiz-adv-x="222" d="M51 59Q51 83 68 100T110 118Q136 118 154 101T172 59Q172 34 154 17T110 0Q85 0 68 17T51 59Z" />
<glyph unicode="/" glyph-name="slash" horiz-adv-x="510" d="M405 850L480 822L105 -209L30 -181L405 850Z" />
<glyph unicode="0" glyph-name="zero" horiz-adv-x="604" d="M134 250Q134 214 145 181T178 122T231 82T303 67Q343 67 374 82T426 122T459 180T470 250Q470 287 459 320T427 379T374 418T303 433Q262 433 231 419T178 379T145 321T134 250ZM49 250Q49 305 68
353T121 436T201 492T303 513Q357 513 403 493T483 437T536 353T555 250Q555 196 536 148T484 64T404 8T303 -13Q248 -13 202 7T121 64T68 148T49 250Z" />
<glyph unicode="1" glyph-name="one" horiz-adv-x="330" d="M168 411L37 386L21 454L199 503H248V0H168V411Z" />
<glyph unicode="2" glyph-name="two" horiz-adv-x="486" d="M43 38Q125 103 190 165Q218 191 244 219T292 274T325 325T338 370Q338 402 318 422T237 443Q206 443 177 438T125 428Q98 421 73 413L49 477Q75 487 108 495Q135 502 171 507T249 513Q282 513 313 507T369
485T408 443T423 377Q423 354 413 329T388 278T352 227T310 178Q261 124 198 71Q222 72 248 73Q271 74 300 74T362 75H438V0H43V38Z" />
<glyph unicode="3" glyph-name="three" horiz-adv-x="455" d="M45 -92Q64 -101 81 -107T115 -117T149 -123T187 -125Q213 -125 237 -117T279 -93T308 -53T319 5Q319 71 266 107T125 144V214Q210 214 260 250T311 355Q311 374 307 390T291 418T260 436T212 443Q188
443 167 440T128 434Q109 430 91 426L71 491Q90 497 114 502Q134 506 162 509T223 513Q301 513 348 476T396 356Q396 316 383 287T352 236T312 203T272 184V181Q297 172 321 157T363 120T393 70T404 5Q404 -54 383 -92T329 -154T259 -186T187 -195Q149 -195 119
-190T66 -177Q40 -169 20 -159L45 -92Z" />
<glyph unicode="4" glyph-name="four" horiz-adv-x="574" d="M118 66Q153 67 189 68Q220 69 256 69T326 70H388V175Q388 229 388 271T390 342Q391 376 393 402L118 66ZM16 54L388 503H468V70H538V0H468V-195H388V0H21L16 54Z" />
<glyph unicode="5" glyph-name="five" horiz-adv-x="493" d="M108 503H425V433H182L164 210Q175 213 187 215T214 219T247 221Q341 221 396 171T451 21Q451 -44 431 -86T378 -152T304 -185T219 -195Q121 -193 27 -140L54 -73Q150 -125 220 -125Q298 -125 332 -88T366
21Q366 50 359 74T337 115T298 141T238 151Q214 151 192 148T152 139T116 127L77 133L108 503Z" />
<glyph unicode="6" glyph-name="six" horiz-adv-x="525" d="M459 620Q325 578 251 520T150 387L185 390Q201 392 221 393T264 394Q303 394 342 384T411 350T461 288T481 194Q481 146 464 108T416 43T346 2T260 -13Q160 -13 106 52T51 268Q51 338 69 394T118 493T188
569T270 625T355 665T434 691L459 620ZM266 57Q290 57 313 64T355 87T385 128T396 192Q396 257 360 290T252 324Q229 324 209 323T140 317Q135 271 136 259Q139 154 170 106T266 57Z" />
<glyph unicode="7" glyph-name="seven" horiz-adv-x="441" d="M40 503H431V465L271 81Q253 38 234 0T192 -73T145 -141T89 -207L30 -154Q63 -116 88 -82T134 -13T172 55T204 127L331 433H40V503Z" />
<glyph unicode="8" glyph-name="eight" horiz-adv-x="550" d="M273 -13Q229 -13 191 -4T123 28T77 85T60 173Q60 210 73 239T104 291T145 330T185 359Q137 385 109 421T80 510Q80 556 98 590T144 647T208 680T278 691Q322 691 358 679T421 643T461 586T476 510Q476
484 468 461T446 416T415 377T379 344Q401 332 422 318T459 285T486 238T496 173Q496 120 478 85T428 27T357 -4T273 -13ZM314 376Q327 388 341 401T366 430T384 465T391 510Q391 531 386 551T367 586T332 611T278 621Q250 621 229 611T194 586T172 550T165 510Q165
483 176 464T208 429T256 401T314 376ZM145 173Q145 122 176 90T274 57Q340 57 375 89T411 173Q411 202 400 223T367 260T316 292T247 323Q228 311 211 297T178 265T154 225T145 173Z" />
<glyph unicode="9" glyph-name="nine" horiz-adv-x="513" d="M62 -133Q196 -88 270 -24T371 109Q354 107 336 105Q320 103 300 102T257 101Q218 101 179 112T110 147T60 211T40 306Q40 402 99 457T261 513Q310 513 348 497T414 445T455 356T470 227Q470 157 452
101T404 0T334 -78T252 -135T166 -177T86 -205L62 -133ZM254 443Q230 443 207 436T165 413T136 371T125 308Q125 243 161 207T269 171Q292 171 312 172T348 175Q366 177 382 180Q383 185 384 193Q385 200 385 210T385 236Q381 443 254 443Z" />
<glyph unicode=":" glyph-name="colon" horiz-adv-x="245" d="M62 59Q62 83 79 100T121 118Q147 118 165 101T183 59Q183 34 165 17T121 0Q96 0 79 17T62 59ZM62 394Q62 418 79 435T121 453Q147 453 165 436T183 394Q183 369 165 352T121 335Q96 335 79 352T62 394Z" />
<glyph unicode=";" glyph-name="semicolon" horiz-adv-x="251" d="M74 395Q74 419 91 436T133 454Q159 454 177 437T195 395Q195 370 177 353T133 336Q108 336 91 353T74 395ZM82 119H167L111 -139L48 -127L82 119Z" />
<glyph unicode="&lt;" glyph-name="less" horiz-adv-x="481" d="M41 290V331L414 506V430L155 305L414 170V84L41 290Z" />
<glyph unicode="=" glyph-name="equal" horiz-adv-x="578" d="M69 220H509V150H69V220ZM69 425H509V355H69V425Z" />
<glyph unicode="&gt;" glyph-name="greater" horiz-adv-x="481" d="M67 170L326 305L67 430V506L440 331V290L67 84V170Z" />
<glyph unicode="?" glyph-name="question" horiz-adv-x="408" d="M84 308Q84 341 99 360T134 392T179 416T225 443T261 482T275 544Q275 595 243 624T157 653Q142 653 129 651T80 638L60 715Q102 728 121 730T164 733Q207 733 243 720T307 684T349 628T365 554Q365
505 350 473T313 420T265 384T216 358T179 334T164 300V182H84V308ZM64 59Q64 83 81 100T123 118Q149 118 167 101T185 59Q185 34 167 17T123 0Q98 0 81 17T64 59Z" />
<glyph unicode="@" glyph-name="at" horiz-adv-x="853" d="M515 438Q507 440 497 441T476 444T452 445Q427 445 403 434T360 401T328 343T316 261Q316 250 317 238T322 216T330 199T342 192Q347 192 360 201T391 226T427 262T462 304T490 346T505 384L515 438ZM567
297Q564 280 565 262T569 229T575 205T582 195Q611 195 639 205T689 238T725 293T739 373Q739 440 720 487T665 564T576 607T456 621Q393 621 333 599T227 533T153 427T125 281Q125 132 197 66T416 0Q451 0 478 4T526 14Q549 20 566 28L586 -38Q561 -47 531 -53Q505
-59 470 -63T392 -68Q313 -68 251 -47T145 16T78 125T55 281Q55 378 88 454T177 583T305 663T456 691Q534 691 599 674T710 620T783 521T809 373Q809 325 795 280T748 199T666 142T543 120Q539 120 532 128T519 155T509 200T505 266H503Q451 199 407 162T324 125Q279
125 258 158T237 245Q237 304 254 353T303 438T378 493T474 513Q488 513 508 511T597 497L567 297Z" />
<glyph unicode="A" glyph-name="A" horiz-adv-x="610" d="M253 682H357L591 0H504L444 182H167L106 0H19L253 682ZM417 262L307 602H304L193 262H417Z" />
<glyph unicode="B" glyph-name="B" horiz-adv-x="575" d="M88 682H270Q378 682 426 642T475 520Q475 482 465 454T441 407Q426 385 408 369Q432 360 453 346T490 312T515 265T525 200Q525 159 514 123T477 59T408 16T301 0H88V682ZM172 386H339Q353 397 364 415Q374
430 382 452T390 507Q390 566 360 586T274 607H172V386ZM172 75H308Q374 75 407 109T440 200Q440 225 434 246T411 282T368 307T301 316H172V75Z" />
<glyph unicode="C" glyph-name="C" horiz-adv-x="607" d="M552 586Q527 594 499 600T438 611T367 616Q307 616 265 590T197 524T158 433T146 334Q146 272 163 222T211 136T282 81T368 62Q410 62 445 66T505 76Q534 82 557 90L574 19Q547 10 514 3Q486 -3 449 -8T368
-13Q289 -13 230 13T131 85T71 195T51 335Q51 422 75 488T141 600T241 668T368 691Q410 691 446 687T513 675T570 660L552 586Z" />
<glyph unicode="D" glyph-name="D" horiz-adv-x="715" d="M172 77H307Q362 77 410 91T495 136T553 219T574 343Q574 411 555 460T502 542T418 589T307 605H172V77ZM88 682H307Q388 682 453 662T566 600T638 494T664 343Q664 255 636 191T560 84T447 21T307 0H88V682Z" />
<glyph unicode="E" glyph-name="E" horiz-adv-x="564" d="M88 682H506V605H172V387H482V312H172V77H516V0H88V682Z" />
<glyph unicode="F" glyph-name="F" horiz-adv-x="541" d="M88 682H506V605H172V387H482V312H172V0H88V682Z" />
<glyph unicode="G" glyph-name="G" horiz-adv-x="692" d="M607 586Q563 595 514 603T399 613Q333 612 285 593T207 539T161 454T146 346Q146 270 165 216T219 128T300 77T399 61Q433 61 460 65T508 74T546 87V270H421V345H631V46Q596 23 535 5T399 -13Q331 -13
269 3T158 59T80 170T51 347Q51 434 78 498T151 605T259 669T390 691Q435 691 477 687T554 677T621 663L607 586Z" />
<glyph unicode="H" glyph-name="H" horiz-adv-x="689" d="M88 682H172V387H517V682H601V0H517V312H172V0H88V682Z" />
<glyph unicode="I" glyph-name="I" horiz-adv-x="260" d="M88 682H172V0H88V682Z" />
<glyph unicode="J" glyph-name="J" horiz-adv-x="325" d="M241 682V213Q241 154 231 113T188 46Q165 28 129 12T32 -13L21 58Q68 66 95 78T136 109T153 153T157 214V682H241Z" />
<glyph unicode="K" glyph-name="K" horiz-adv-x="596" d="M88 682H172V367L458 682H563L301 396L603 0H498L243 334L172 256V0H88V682Z" />
<glyph unicode="L" glyph-name="L" horiz-adv-x="499" d="M88 682H172V80H482V0H88V682Z" />
<glyph unicode="M" glyph-name="M" horiz-adv-x="858" d="M107 682H214L368 276Q381 241 392 212T411 159Q421 133 428 111H430Q436 133 445 159Q453 182 463 211T487 276L644 682H751L786 0H701L684 375Q682 424 681 458T680 514V556H678Q672 541 663 515Q655
493 643 459T612 375L471 0H386L244 375Q225 423 213 457T193 514Q184 540 179 556H177Q178 540 179 514Q180 472 176 375L156 0H71L107 682Z" />
<glyph unicode="N" glyph-name="N" horiz-adv-x="690" d="M88 682H168L526 141H528Q526 170 525 203Q523 231 523 267T522 342V682H602V0H522L164 543H162Q163 513 165 480Q166 451 167 415T168 341V0H88V682Z" />
<glyph unicode="O" glyph-name="O" horiz-adv-x="760" d="M51 341Q51 438 81 505T159 613T265 672T380 691Q436 691 494 676T600 621T678 513T709 340Q709 242 679 175T601 66T495 6T380 -13Q324 -13 266 5T160 64T82 173T51 341ZM614 336Q614 471 552 541T384
611Q331 611 288 595T213 545T164 463T146 346Q146 211 208 139T376 67Q428 67 472 83T547 134T596 218T614 336Z" />
<glyph unicode="P" glyph-name="P" horiz-adv-x="540" d="M88 682H245Q375 682 437 636T500 481Q500 421 477 381T420 317T345 282T271 271H172V0H88V682ZM172 346H264Q298 346 325 352T373 374T404 416T415 483Q415 523 404 547T370 585T313 602T234 607H172V346Z" />
<glyph unicode="Q" glyph-name="Q" horiz-adv-x="759" d="M614 336Q614 471 552 541T384 611Q331 611 288 595T213 545T164 463T146 346Q146 211 208 139T376 67Q428 67 472 83T547 134T596 218T614 336ZM424 -11Q411 -13 403 -13T383 -13Q330 -13 272 3T164 59T83
167T51 341Q51 438 81 505T159 613T266 672T383 691Q440 691 498 676T603 620T679 513T709 340Q709 272 693 220T651 128T591 62T521 19Q537 10 560 -5T608 -34T657 -59T700 -69Q718 -69 737 -63T774 -46L811 -111Q788 -125 759 -137T696 -149Q673 -149 643 -138T578
-107T504 -63T424 -11Z" />
<glyph unicode="R" glyph-name="R" horiz-adv-x="579" d="M88 682H256Q311 682 356 673T434 641T483 581T500 488Q499 426 479 388T430 326T363 291V289Q367 285 375 275T390 256L583 0H484L286 271H172V0H88V682ZM415 474Q415 516 405 542T374 583T323 602T255
607H172V346H271Q310 346 337 356T381 383T406 424T415 474Z" />
<glyph unicode="S" glyph-name="S" horiz-adv-x="526" d="M437 588Q413 594 387 599Q364 604 335 607T273 611Q199 611 167 589T135 519Q136 482 162 457T227 410T312 368T398 321T463 259T490 172Q490 113 465 77T400 21T315 -6T226 -13Q186 -13 153 -8T96 3Q68
10 45 19L65 100Q88 90 114 83Q137 77 165 72T226 67Q265 67 297 72T354 88T391 117T405 161Q404 200 380 224T315 271T228 315T142 363T77 427T50 519Q50 551 61 582T98 637T167 676T273 691Q309 691 341 688T398 680Q426 675 451 669L437 588Z" />
<glyph unicode="T" glyph-name="T" horiz-adv-x="546" d="M231 604H17V682H529V604H315V0H231V604Z" />
<glyph unicode="U" glyph-name="U" horiz-adv-x="716" d="M167 682V256Q167 199 183 163T227 105T288 76T359 68Q395 68 429 76T490 105T533 162T549 256V682H633V235Q633 183 614 138T558 60T471 7T358 -12Q225 -12 154 52T83 235V682H167Z" />
<glyph unicode="V" glyph-name="V" horiz-adv-x="596" d="M18 682H103L299 80H300L493 682H578L351 0H245L18 682Z" />
<glyph unicode="W" glyph-name="W" horiz-adv-x="946" d="M28 682H113L245 80H246L421 682H527L700 80H701L832 682H917L760 0H654L474 601H473L292 0H186L28 682Z" />
<glyph unicode="X" glyph-name="X" horiz-adv-x="551" d="M217 347L20 682H115L276 405L436 682H531L329 339L532 0H435L271 285L115 0H20L217 347Z" />
<glyph unicode="Y" glyph-name="Y" horiz-adv-x="545" d="M230 248L12 682H105L272 351L440 682H533L315 248V0H230V248Z" />
<glyph unicode="Z" glyph-name="Z" horiz-adv-x="588" d="M36 36L422 602H36V682H556V648L167 80H547V0H36V36Z" />
<glyph unicode="[" glyph-name="bracketleft" horiz-adv-x="311" d="M74 790H282V710H159V-172H282V-252H74V790Z" />
<glyph unicode="\" glyph-name="backslash" horiz-adv-x="508" d="M29 823L104 849L479 -182L404 -208L29 823Z" />
<glyph unicode="]" glyph-name="bracketright" horiz-adv-x="311" d="M237 -252H29V-172H152V710H29V790H237V-252Z" />
<glyph unicode="^" glyph-name="asciicircum" horiz-adv-x="666" d="M335 745L566 432H481L335 637L189 432H100L335 745Z" />
<glyph unicode="_" glyph-name="underscore" horiz-adv-x="559" d="M59 -66H500V-126H59V-66Z" />
<glyph unicode="`" glyph-name="grave" d="M100 710L152 771L324 646L290 601L100 710Z" />
<glyph unicode="a" glyph-name="a" horiz-adv-x="501" d="M352 231Q332 230 314 229T279 227T247 223Q175 214 145 192T115 127Q115 92 136 75T193 57Q241 57 278 73T352 117V231ZM351 47Q304 20 264 4T176 -13Q109 -13 70 19T30 127Q30 166 50 195T102 243T176
274T260 288Q278 290 307 291T352 294Q352 329 350 356T338 403T309 433T253 443Q224 443 197 440T149 432Q124 427 103 421L87 490Q112 496 141 501Q166 506 199 509T270 513Q321 513 352 498T401 458T425 400T432 331V91Q432 77 432 62T434 31T438 0L361 -8L351
47Z" />
<glyph unicode="b" glyph-name="b" horiz-adv-x="538" d="M71 749L151 758V460Q173 475 197 486Q217 496 242 504T292 513Q333 513 369 497T433 449T477 368T493 252Q493 178 473 128T418 46T339 1T249 -13Q203 -13 170 -7T114 8Q88 18 71 30V749ZM151 74Q164
69 179 66T211 60T249 57Q295 57 326 70T375 108T400 168T408 248Q408 283 401 318T377 380T338 425T283 443Q262 443 239 435T196 415Q173 403 151 388V74Z" />
<glyph unicode="c" glyph-name="c" horiz-adv-x="437" d="M384 430Q367 434 337 438T276 443Q231 443 203 425T158 379T136 316T130 248Q130 197 143 161T177 101T227 68T286 57Q307 57 326 59T362 65T394 74L410 7Q389 1 371 -3T329 -10T276 -13Q221 -13 178
1T106 46T61 127T45 249Q45 319 64 369T116 451T189 498T276 513Q300 513 322 511T362 505Q382 501 400 497L384 430Z" />
<glyph unicode="d" glyph-name="d" horiz-adv-x="539" d="M386 428Q350 438 330 440T289 443Q247 443 217 428T168 387T139 326T130 252Q130 217 137 182T161 119T200 74T255 57Q277 57 300 65T344 83T386 110V428ZM387 40Q364 24 343 14T296 -5T246 -13Q152 -13
99 53T45 248Q45 324 69 375T131 456T210 500T289 513Q307 513 327 511T386 498V749L466 758V91Q466 77 466 62T468 31T472 0L395 -8L387 40Z" />
<glyph unicode="e" glyph-name="e" horiz-adv-x="506" d="M444 12Q421 5 397 0T343 -9T281 -13Q231 -13 188 1T113 46T63 126T44 248Q44 313 62 362T111 445T185 496T278 513Q327 513 363 494T422 443T457 367T469 275L454 231H131Q131 200 139 169T166 113T217
73T296 57Q326 57 351 60T394 68T429 79L444 12ZM386 295Q386 302 383 326T369 376T335 422T274 443Q232 443 205 426T162 384T140 335T134 295H386Z" />
<glyph unicode="f" glyph-name="f" horiz-adv-x="340" d="M115 438H22V503H115Q115 573 124 621T155 700T209 744T289 758Q327 758 360 746T413 715L378 655Q358 670 337 679T290 688Q257 688 238 674T210 634T198 576T195 503H320V438H195V0H115V438Z" />
<glyph unicode="g" glyph-name="g" horiz-adv-x="538" d="M466 -48Q466 -85 458 -120T428 -182T365 -226T258 -243Q216 -242 185 -238T126 -227T75 -209L96 -139Q135 -156 175 -165T248 -174Q283 -174 309 -167T352 -144T378 -100T387 -33V40Q366 26 344 15T296
-5T246 -13Q153 -13 99 52T45 248Q45 323 68 373T128 455T207 499T289 513Q340 513 382 505T466 491V-48ZM255 57Q277 57 300 65T344 84T387 110V429Q375 432 359 436Q345 438 327 440T289 443Q247 443 217 428T168 387T139 326T130 252Q130 217 137 182T161 119T200
74T255 57Z" />
<glyph unicode="h" glyph-name="h" horiz-adv-x="546" d="M72 749L152 758V440Q182 460 211 475T272 501T332 513Q373 513 400 504T445 472T469 414T477 324V0H397V315Q397 345 396 368T388 408T365 434T321 443Q295 443 265 432T208 405T152 370V0H72V749Z" />
<glyph unicode="i" glyph-name="i" horiz-adv-x="224" d="M72 504L152 513V0H72V504ZM59 647Q59 670 74 685T113 701Q137 701 153 686T170 647Q170 624 154 609T113 593Q90 593 75 608T59 647Z" />
<glyph unicode="j" glyph-name="j" horiz-adv-x="224" d="M152 514V9Q152 -81 119 -139T16 -238L-25 -167Q5 -149 24 -128T53 -82T68 -32T72 20V502L152 514ZM56 647Q56 670 71 685T110 701Q134 701 150 686T167 647Q167 624 151 609T110 593Q87 593 72 608T56 647Z" />
<glyph unicode="k" glyph-name="k" horiz-adv-x="501" d="M72 749L152 758V307L375 503H485L267 312L493 0H392L208 261L152 212V0H72V749Z" />
<glyph unicode="l" glyph-name="l" horiz-adv-x="224" d="M72 749L152 758V0H72V749Z" />
<glyph unicode="m" glyph-name="m" horiz-adv-x="827" d="M73 412Q73 446 67 494L142 504L153 441Q180 461 206 476T262 502T323 513Q373 513 402 496T445 436Q486 465 530 489T623 513Q660 513 686 504T728 472T751 414T758 324V0H678V315Q678 345 677 368T670
408T651 434T612 443Q589 443 569 437T526 418T458 369V0H378V315Q378 345 377 368T370 408T351 434T312 443Q286 443 258 432T205 406T153 371V0H73V412Z" />
<glyph unicode="n" glyph-name="n" horiz-adv-x="547" d="M73 403Q74 424 68 494L142 504L153 440Q183 460 212 475T273 501T333 513Q374 513 401 504T446 472T470 414T478 324V0H398V315Q398 345 397 368T389 408T366 434T322 443Q296 443 267 432T210 405T153
370V0H73V403Z" />
<glyph unicode="o" glyph-name="o" horiz-adv-x="574" d="M129 249Q129 152 172 105T290 57Q363 57 404 104T445 245Q445 345 402 394T283 443Q208 443 169 395T129 249ZM44 250Q44 326 68 376T129 457T208 500T289 513Q325 513 367 502T446 461T506 382T530 256Q530
177 506 125T444 43T364 0T284 -13Q246 -13 204 -1T127 40T68 121T44 250Z" />
<glyph unicode="p" glyph-name="p" horiz-adv-x="540" d="M73 387Q73 423 68 494L142 504L151 450Q171 467 192 480T239 503T294 513Q335 513 371 499T435 454T479 374T495 252Q495 179 474 129T418 47T340 1T251 -13Q203 -12 153 -1V-218L73 -228V387ZM251 57Q293
57 323 72T372 113T401 174T410 248Q410 283 404 318T383 380T344 425T285 443Q259 443 236 434T193 411T153 380V73Q164 69 177 66T209 60T251 57Z" />
<glyph unicode="q" glyph-name="q" horiz-adv-x="537" d="M386 40Q357 19 318 3T245 -13Q204 -13 168 1T104 46T60 126T44 248Q44 316 66 366T124 448T203 497T288 513Q326 513 350 509T392 499T426 490T465 485V-219L386 -229V40ZM254 57Q276 57 299 65T343 84T386
110V429Q377 432 364 436Q353 438 334 440T288 443Q246 443 216 428T167 387T138 326T129 252Q129 217 136 182T160 119T199 74T254 57Z" />
<glyph unicode="r" glyph-name="r" horiz-adv-x="337" d="M73 422Q73 445 68 494L142 504L150 431H151Q169 454 186 471T221 500T257 513Q280 514 321 508L303 431Q270 437 257 436Q240 436 221 420T188 386Q170 364 153 336V0H73V422Z" />
<glyph unicode="s" glyph-name="s" horiz-adv-x="417" d="M344 421Q302 434 270 438T210 443Q175 443 152 426T128 382Q129 358 149 341T195 311T254 281T315 245T362 197T381 130Q380 88 363 61T318 17T258 -6T198 -13Q162 -13 124 -9T41 8L56 80Q101 68 138
63T199 57Q217 57 234 61T266 72T288 92T297 119Q296 147 278 166T232 201T171 232T110 268T62 317T43 388Q43 418 58 441T98 480T152 504T210 513Q239 513 275 509T358 492L344 421Z" />
<glyph unicode="t" glyph-name="t" horiz-adv-x="364" d="M189 653V503H334V438H189V171Q189 138 190 116T197 81T211 63T234 57Q272 58 322 85L346 24Q313 2 285 -5T228 -13Q162 -13 136 24T109 149V438H17V503H109V643L189 653Z" />
<glyph unicode="u" glyph-name="u" horiz-adv-x="526" d="M373 55H371Q362 48 345 37T306 14T258 -5T204 -13Q167 -13 141 -4T99 28T76 86T69 176V503H149V188Q149 158 150 134T157 93T176 67T215 57Q241 57 269 68T320 93Q347 109 373 129V503H453V65Q454 29
458 0L379 -8L373 55Z" />
<glyph unicode="v" glyph-name="v" horiz-adv-x="489" d="M10 503H98L220 148L242 69H243L266 148L396 503H480L285 0H195L10 503Z" />
<glyph unicode="w" glyph-name="w" horiz-adv-x="750" d="M18 503H102L161 276Q169 247 175 215T188 154Q194 121 201 89H202Q209 121 218 154Q226 182 235 214T253 276L324 503H431L488 276Q495 247 502 215T515 154Q521 121 527 89H528Q537 122 547 155Q555
183 565 215T584 276L654 503H737L572 0H483L411 276Q401 314 395 344T383 396Q378 421 374 440H372Q368 421 362 396Q357 375 348 345T328 276L243 0H154L18 503Z" />
<glyph unicode="x" glyph-name="x" horiz-adv-x="514" d="M204 264L18 503H112L259 317L398 503H488L313 267L505 0H411L258 213L103 0H13L204 264Z" />
<glyph unicode="y" glyph-name="y" horiz-adv-x="497" d="M7 503H92L186 276Q200 243 211 210T232 151Q243 120 251 91H252Q261 120 272 151Q281 177 293 210T318 276L405 503H489L251 -97Q237 -134 215 -161T171 -206Q146 -227 119 -242L80 -173Q101 -163 119
-148Q135 -135 151 -116T177 -69L208 13L7 503Z" />
<glyph unicode="z" glyph-name="z" horiz-adv-x="460" d="M24 31L311 441Q269 438 252 438T212 437H49V503H424V468L142 63Q178 65 190 65T213 66H423V0H24V31Z" />
<glyph unicode="{" glyph-name="braceleft" horiz-adv-x="325" d="M119 130Q119 161 110 181T88 215T58 236T26 250V325Q45 332 62 340T92 362T112 397T119 455Q119 483 118 505T116 550T113 598T112 657Q112 691 130 716T174 758T231 785T287 802L301 732Q270
725 247 713Q225 702 208 684T191 640Q191 599 194 556T198 449Q199 389 181 346T115 287Q163 273 180 235T198 136Q198 73 195 30T191 -55Q192 -82 208 -99T246 -128Q270 -140 301 -147L287 -217Q262 -211 232 -201T174 -173T130 -131T112 -72Q112 -39 113 -14T115
34T118 79T119 130Z" />
<glyph unicode="|" glyph-name="bar" horiz-adv-x="230" d="M75 758H155V-228H75V758Z" />
<glyph unicode="}" glyph-name="braceright" horiz-adv-x="325" d="M206 130Q206 102 207 80T209 35T212 -13T213 -72Q213 -106 195 -131T151 -173T94 -201T38 -217L24 -147Q54 -140 79 -128Q99 -117 116 -100T134 -55Q134 -14 131 29T127 136Q127 196 144 234T210
287Q164 300 145 344T127 449Q127 512 130 555T134 640Q134 666 118 684T79 713Q54 725 24 732L38 802Q63 796 93 786T150 758T195 716T213 657Q213 624 212 599T210 551T207 506T206 455Q206 419 213 398T233 363T262 341T299 325V250Q284 244 267 236T237 215T215
182T206 130Z" />
<glyph unicode="~" glyph-name="asciitilde" horiz-adv-x="557" d="M509 282Q480 257 453 243T391 228Q360 228 335 236T286 256T237 276T182 285Q159 284 139 274T84 242L50 299Q76 318 110 336T182 355Q212 355 237 346T286 326T335 307T391 298Q413 298 436
312T473 338L509 282Z" />
<glyph unicode="&#xa0;" glyph-name="space" horiz-adv-x="229" />
<glyph unicode="&#xa1;" glyph-name="exclamdown" horiz-adv-x="229" d="M83 315H148L165 -242L63 -231L83 315ZM54 434Q54 459 71 476T113 493Q139 493 157 476T175 434Q175 410 157 393T113 375Q88 375 71 392T54 434Z" />
<glyph unicode="&#xa2;" glyph-name="cent" horiz-adv-x="461" d="M225 102Q181 105 149 117T94 157T61 227T50 333Q50 385 64 426T103 496T158 543T225 565V682H305V564Q326 561 346 558T406 544L390 477Q341 490 310 494T251 498Q210 498 187 482T152 441T138
387T135 332Q135 288 141 258T163 208T204 180T268 171Q293 171 325 176T397 195L413 128Q391 119 363 113T305 104V-20H225V102Z" />
<glyph unicode="&#xa3;" glyph-name="sterling" horiz-adv-x="555" d="M50 59L138 74L121 307L62 301L55 372L116 380L107 509Q104 549 116 582T155 640T223 677T320 691Q356 691 388 687T443 678Q470 672 493 665L472 597Q450 604 425 609Q404 614 377 617T320
621Q291 621 266 616T224 596T198 559T192 498L200 387H438V312H205L223 80H507V0H192Q171 0 146 -2T60 -13L50 59Z" />
<glyph unicode="&#xa4;" glyph-name="currency" horiz-adv-x="554" d="M396 67Q371 47 341 37T278 26Q209 26 158 68L89 -14L50 19L122 105Q100 134 88 171T76 250Q76 292 88 329T122 395L50 481L89 514L158 432Q210 475 278 475Q344 475 397 433L465 514L504
481L432 396Q455 366 467 329T480 250Q480 208 467 171T431 104L504 19L465 -14L396 67ZM140 250Q140 215 151 186T181 135T225 101T278 89Q306 89 331 101T375 134T405 185T416 250Q416 286 405 315T376 366T332 400T278 412Q250 412 225 400T181 367T151 316T140
250Z" />
<glyph unicode="&#xa5;" glyph-name="yen" horiz-adv-x="615" d="M265 107H67V177H265V258H67V328H225L47 682H142L307 356L473 682H568L390 328H548V258H350V177H548V107H350V0H265V107Z" />
<glyph unicode="&#xa6;" glyph-name="brokenbar" horiz-adv-x="234" d="M82 306H152V0H82V306ZM82 682H152V376H82V682Z" />
<glyph unicode="&#xa7;" glyph-name="section" horiz-adv-x="545" d="M440 675Q383 685 348 688T280 691Q206 690 174 668T142 598Q142 563 168 538T234 492T319 452T405 406T470 346T497 261Q497 231 489 206T467 161T436 124T399 94Q443 67 470 32T497 -58Q497
-117 469 -153T400 -210T314 -236T233 -243Q193 -243 146 -236T52 -211L72 -130Q122 -149 161 -156T233 -163Q272 -163 304 -158T361 -142T398 -113T412 -69Q412 -32 386 -7T320 39T235 79T150 125T84 187T57 279Q57 304 65 326T88 368T120 405T158 436Q115 464
86 502T57 598Q57 630 71 661T113 716T182 755T280 770Q316 770 358 766T454 750L440 675ZM411 250Q411 275 394 296T351 336T293 369T231 397Q189 371 166 341T142 279Q142 254 159 233T203 194T262 160T325 131Q365 156 388 187T411 250Z" />
<glyph unicode="&#xa8;" glyph-name="dieresis" horiz-adv-x="482" d="M100 647Q100 670 115 685T154 701Q178 701 194 686T211 647Q211 624 195 609T154 593Q131 593 116 608T100 647ZM271 647Q271 670 286 685T325 701Q349 701 365 686T382 647Q382 624 366
609T325 593Q302 593 287 608T271 647Z" />
<glyph unicode="&#xa9;" glyph-name="copyright" horiz-adv-x="781" d="M50 341Q50 411 76 473T149 582T257 655T390 682Q460 682 522 655T631 582T704 474T731 341Q731 270 704 209T631 101T523 28T390 1Q319 1 258 27T150 100T77 208T50 341ZM107 341Q107 283
129 232T190 142T280 81T390 58Q449 58 500 80T590 141T651 231T673 341Q673 400 651 451T591 541T501 602T390 624Q332 624 281 602T191 542T130 452T107 341ZM475 472Q441 479 424 480T392 482Q361 482 341 469T310 434T295 389T290 342Q290 306 299 281T324
238T360 213T400 205Q416 205 436 208T482 219L494 160Q462 149 438 146T392 142Q354 142 322 152T266 185T229 247T215 343Q215 399 230 437T271 499T327 533T392 544Q410 544 432 542T489 531L475 472Z" />
<glyph unicode="&#xaa;" glyph-name="ordfeminine" horiz-adv-x="383" d="M252 535Q210 533 160 524Q138 519 123 507T107 470Q107 447 119 437T154 427Q184 427 206 438T252 468V535ZM251 416Q217 392 194 384T147 376Q125 376 105 381T71 398T48 427T39 470Q39
496 53 515T90 548T146 569T252 582Q252 605 252 622T248 650T231 666T195 672Q164 672 137 668T84 658L73 715Q106 722 143 726T206 730Q240 730 262 720T296 693T314 653T319 607V445Q319 430 323 384L258 379L251 416Z" />
<glyph unicode="&#xab;" glyph-name="guillemotleft" horiz-adv-x="539" d="M283 73L230 28L39 255L230 482L283 437L131 255L283 73ZM495 73L442 28L251 255L442 482L495 437L343 255L495 73Z" />
<glyph unicode="&#xac;" glyph-name="logicalnot" horiz-adv-x="580" d="M69 294H509V74H435V220H69V294Z" />
<glyph unicode="&#xad;" glyph-name="hyphen" horiz-adv-x="391" d="M62 294H329V220H62V294Z" />
<glyph unicode="&#xae;" glyph-name="registered" horiz-adv-x="781" d="M50 341Q50 411 76 473T149 582T257 655T390 682Q460 682 522 655T631 582T704 474T731 341Q731 270 704 209T631 101T523 28T390 1Q319 1 258 27T150 100T77 208T50 341ZM107 341Q107 283
129 232T190 142T280 81T390 58Q449 58 500 80T590 141T651 231T673 341Q673 400 651 451T591 541T501 602T390 624Q332 624 281 602T191 542T130 452T107 341ZM277 543H371Q434 543 471 517T509 434Q509 399 498 378T470 343T433 324L431 320Q433 319 435 317Q437
315 439 312T445 305L555 159H478L366 312H341V159H277V543ZM442 426Q442 459 425 470T371 482H341V373H379Q413 373 427 387T442 426Z" />
<glyph unicode="&#xaf;" glyph-name="overscore" horiz-adv-x="606" d="M100 662H506V592H100V662Z" />
<glyph unicode="&#xb0;" glyph-name="degree" horiz-adv-x="355" d="M43 627Q43 654 53 678T82 719T125 747T177 758Q204 758 228 748T272 720T302 678T313 627Q313 600 302 575T272 532T229 502T177 491Q150 491 126 502T83 531T54 575T43 627ZM107 627Q107 594
126 573T177 551Q209 551 229 572T249 627Q249 659 229 679T177 699Q145 699 126 679T107 627Z" />
<glyph unicode="&#xb1;" glyph-name="plusminus" horiz-adv-x="551" d="M56 74H235V220H55V294H235V470H315V294H495V220H315V74H496V0H56V74Z" />
<glyph unicode="&#xb2;" glyph-name="twosuperior" horiz-adv-x="360" d="M51 356Q99 400 137 442Q153 460 168 479T196 518T216 554T224 586Q224 612 211 622T162 632Q145 632 129 630T99 624T72 616L55 669Q69 675 85 679T124 687T173 691Q197 691 218 687T257
671T284 640T294 592Q293 555 269 516T219 448Q186 409 144 370Q153 371 166 372Q177 373 194 373T236 374H305V315H51V356Z" />
<glyph unicode="&#xb3;" glyph-name="threesuperior" horiz-adv-x="323" d="M62 378Q86 367 102 365T131 363Q202 363 202 422Q202 453 177 467T97 482V530Q150 530 174 547T198 591Q198 608 187 619T144 632Q131 632 120 631T86 624L68 679Q95 687 113 689T150
691Q175 691 196 686T234 671T259 644T268 606Q268 584 261 568T244 539T222 520T201 509V507Q230 497 251 475T272 416Q272 384 258 363T223 330T178 313T131 308Q80 308 40 327L62 378Z" />
<glyph unicode="&#xb4;" glyph-name="acute" d="M272 771L324 710L134 601L100 646L272 771Z" />
<glyph unicode="&#xb5;" glyph-name="mu" horiz-adv-x="518" d="M76 503H156V188Q156 158 157 134T164 93T183 67T222 57Q248 57 276 68T327 93Q354 109 380 129V503H460V65Q460 37 465 0L386 -8L380 55H378Q369 48 352 37T313 14T265 -5T211 -13Q188 -13 178
-10T156 0V-227H76V503Z" />
<glyph unicode="&#xb6;" glyph-name="paragraph" horiz-adv-x="526" d="M359 612H287V266H239Q188 266 151 283T88 330T51 397T39 474Q39 529 49 568T81 632T140 670T230 682H439V-1Q439 -46 433 -78T412 -138T375 -188T319 -237L263 -177Q293 -154 312 -132T341
-86T355 -40T359 10V612Z" />
<glyph unicode="&#xb7;" glyph-name="middot" horiz-adv-x="224" d="M53 393Q53 418 70 435T112 452Q137 452 154 435T171 393Q171 368 154 351T112 334Q87 334 70 351T53 393Z" />
<glyph unicode="&#xb8;" glyph-name="cedilla" horiz-adv-x="331" d="M152 -59H231V-83Q231 -101 229 -118T219 -154T197 -195T157 -244L100 -197Q119 -176 130 -159T145 -129T151 -104T152 -83V-59Z" />
<glyph unicode="&#xb9;" glyph-name="onesuperior" horiz-adv-x="269" d="M135 614L35 592L23 638L163 682H202V315H135V614Z" />
<glyph unicode="&#xba;" glyph-name="ordmasculine" horiz-adv-x="427" d="M112 552Q112 493 139 463T216 432Q266 432 291 462T316 549Q316 609 289 641T211 673Q160 673 136 642T112 552ZM44 552Q44 604 61 638T104 692T160 721T215 730Q240 730 269 722T323
695T366 642T383 556Q383 503 366 468T322 412T267 383T212 374Q186 374 157 382T102 410T61 464T44 552Z" />
<glyph unicode="&#xbb;" glyph-name="guillemotright" horiz-adv-x="539" d="M408 255L256 437L309 482L500 255L309 28L256 73L408 255ZM196 255L44 437L97 482L288 255L97 28L44 73L196 255Z" />
<glyph unicode="&#xbc;" glyph-name="onequarter" horiz-adv-x="833" d="M146 614L46 592L34 638L174 682H213V315H146V614ZM517 757L573 737L277 -75L221 -55L517 757ZM561 138Q622 140 650 140H683V195Q683 251 686 294L561 138ZM488 131L683 367H750V140H787V83H750V0H683V83H488V131Z"
/>
<glyph unicode="&#xbd;" glyph-name="onehalf" horiz-adv-x="815" d="M146 614L46 592L34 638L174 682H213V315H146V614ZM507 757L563 737L267 -75L211 -55L507 757ZM512 42Q560 86 598 128Q614 146 629 165T657 204T677 240T685 272Q685 298 672 308T623 318Q606
318 590 316T560 310T533 302L516 355Q530 361 546 365T585 373T634 377Q658 377 679 373T718 357T745 326T755 278Q754 241 730 202T680 134Q647 95 605 56Q614 57 627 58Q638 59 655 59T697 60H766V1H512V42Z" />
<glyph unicode="&#xbe;" glyph-name="threequarters" horiz-adv-x="865" d="M553 757L609 737L313 -75L257 -55L553 757ZM62 378Q86 367 102 365T131 363Q202 363 202 422Q202 453 177 467T97 482V530Q150 530 174 547T198 591Q198 608 187 619T144 632Q131 632
120 631T86 624L68 679Q95 687 113 689T150 691Q175 691 196 686T234 671T259 644T268 606Q268 584 261 568T244 539T222 520T201 509V507Q230 497 251 475T272 416Q272 384 258 363T223 330T178 313T131 308Q80 308 40 327L62 378ZM597 138Q658 140 686 140H719V195Q719
251 722 294L597 138ZM524 131L719 367H786V140H823V83H786V0H719V83H524V131Z" />
<glyph unicode="&#xbf;" glyph-name="questiondown" horiz-adv-x="400" d="M342 434Q342 410 325 393T283 375Q257 375 239 392T221 434Q221 459 239 476T283 493Q308 493 325 476T342 434ZM240 307H320V179Q320 144 306 125T271 94T225 72T179 48T143 10T129
-55Q129 -106 161 -135T247 -164Q284 -164 324 -149L344 -226Q299 -244 240 -244Q197 -244 161 -231T97 -195T55 -139T39 -65Q39 -18 53 14T91 71T161 117T224 151T240 179V307Z" />
<glyph unicode="&#xc0;" glyph-name="Agrave" horiz-adv-x="610" d="M253 682H357L591 0H504L444 182H167L106 0H19L253 682ZM417 262L307 602H304L193 262H417ZM148 878L200 939L372 814L338 769L148 878Z" />
<glyph unicode="&#xc1;" glyph-name="Aacute" horiz-adv-x="610" d="M253 682H357L591 0H504L444 182H167L106 0H19L253 682ZM417 262L307 602H304L193 262H417ZM377 938L429 877L239 768L205 813L377 938Z" />
<glyph unicode="&#xc2;" glyph-name="Acircumflex" horiz-adv-x="610" d="M253 682H357L591 0H504L444 182H167L106 0H19L253 682ZM417 262L307 602H304L193 262H417ZM285 940H325L460 803L420 770L305 867L190 770L150 803L285 940Z" />
<glyph unicode="&#xc3;" glyph-name="Atilde" horiz-adv-x="610" d="M253 682H357L591 0H504L444 182H167L106 0H19L253 682ZM417 262L307 602H304L193 262H417ZM477 828Q450 794 425 780T374 765Q349 765 330 771T294 784T264 798T238 805Q218 805 203 795T175
768L123 812Q149 847 178 858T234 870Q255 870 273 864T307 850T336 836T363 830Q386 830 399 842T423 869L477 828Z" />
<glyph unicode="&#xc4;" glyph-name="Adieresis" horiz-adv-x="610" d="M253 682H357L591 0H504L444 182H167L106 0H19L253 682ZM417 262L307 602H304L193 262H417ZM164 824Q164 847 179 862T218 878Q242 878 258 863T275 824Q275 801 259 786T218 770Q195 770
180 785T164 824ZM335 824Q335 847 350 862T389 878Q413 878 429 863T446 824Q446 801 430 786T389 770Q366 770 351 785T335 824Z" />
<glyph unicode="&#xc5;" glyph-name="Aring" horiz-adv-x="610" d="M253 682H357L591 0H504L444 182H167L106 0H19L253 682ZM417 262L307 602H304L193 262H417ZM198 827Q198 850 206 870T228 904T262 927T304 936Q351 936 383 905T415 827Q415 804 407 785T383
751T348 728T304 719Q281 719 262 727T229 750T206 784T198 827ZM249 827Q249 803 265 787T306 770Q330 770 347 786T364 827Q364 851 347 868T306 885Q282 885 266 868T249 827Z" />
<glyph unicode="&#xc6;" glyph-name="AE" horiz-adv-x="866" d="M197 192L109 0H13L342 682H808V605H474V387H784V312H474V77H818V0H390V192H197ZM234 272H390V602H386L234 272Z" />
<glyph unicode="&#xc7;" glyph-name="Ccedilla" horiz-adv-x="607" d="M552 586Q527 594 499 600T438 611T367 616Q307 616 265 590T197 524T158 433T146 334Q146 272 163 222T211 136T282 81T368 62Q410 62 445 66T505 76Q534 82 557 90L574 19Q547 10 514 3Q486
-3 449 -8T368 -13Q289 -13 230 13T131 85T71 195T51 335Q51 422 75 488T141 600T241 668T368 691Q410 691 446 687T513 675T570 660L552 586ZM327 -59H406V-83Q406 -101 404 -118T394 -154T372 -195T332 -244L275 -197Q294 -176 305 -159T320 -129T326 -104T327
-83V-59Z" />
<glyph unicode="&#xc8;" glyph-name="Egrave" horiz-adv-x="564" d="M88 682H506V605H172V387H482V312H172V77H516V0H88V682ZM172 877L224 938L396 813L362 768L172 877Z" />
<glyph unicode="&#xc9;" glyph-name="Eacute" horiz-adv-x="564" d="M88 682H506V605H172V387H482V312H172V77H516V0H88V682ZM397 939L449 878L259 769L225 814L397 939Z" />
<glyph unicode="&#xca;" glyph-name="Ecircumflex" horiz-adv-x="564" d="M88 682H506V605H172V387H482V312H172V77H516V0H88V682ZM286 939H326L461 802L421 769L306 866L191 769L151 802L286 939Z" />
<glyph unicode="&#xcb;" glyph-name="Edieresis" horiz-adv-x="564" d="M88 682H506V605H172V387H482V312H172V77H516V0H88V682ZM167 812Q167 835 182 850T221 866Q245 866 261 851T278 812Q278 789 262 774T221 758Q198 758 183 773T167 812ZM338 812Q338 835
353 850T392 866Q416 866 432 851T449 812Q449 789 433 774T392 758Q369 758 354 773T338 812Z" />
<glyph unicode="&#xcc;" glyph-name="Igrave" horiz-adv-x="260" d="M88 682H172V0H88V682ZM-13 877L39 938L211 813L177 768L-13 877ZM88 682H172V0H88V682ZM-13 877L39 938L211 813L177 768L-13 877Z" />
<glyph unicode="&#xcd;" glyph-name="Iacute" horiz-adv-x="260" d="M88 682H172V0H88V682ZM225 938L277 877L87 768L53 813L225 938Z" />
<glyph unicode="&#xce;" glyph-name="Icircumflex" horiz-adv-x="260" d="M88 682H172V0H88V682ZM110 939H150L285 802L245 769L130 866L15 769L-25 802L110 939Z" />
<glyph unicode="&#xcf;" glyph-name="Idieresis" horiz-adv-x="260" d="M88 682H172V0H88V682ZM-11 812Q-11 835 4 850T43 866Q67 866 83 851T100 812Q100 789 84 774T43 758Q20 758 5 773T-11 812ZM160 812Q160 835 175 850T214 866Q238 866 254 851T271 812Q271
789 255 774T214 758Q191 758 176 773T160 812Z" />
<glyph unicode="&#xd0;" glyph-name="Eth" horiz-adv-x="753" d="M126 312H3V392H126V682H345Q426 682 491 662T604 600T676 494T702 343Q702 255 674 191T598 84T485 21T345 0H126V312ZM210 392H368V312H210V77H345Q400 77 448 91T533 136T591 219T612 343Q612
411 593 460T540 542T456 589T345 605H210V392Z" />
<glyph unicode="&#xd1;" glyph-name="Ntilde" horiz-adv-x="690" d="M88 682H168L526 141H528Q526 170 525 203Q523 231 523 267T522 342V682H602V0H522L164 543H162Q163 513 165 480Q166 451 167 415T168 341V0H88V682ZM522 817Q495 783 470 769T419 754Q394
754 375 760T339 773T309 787T283 794Q263 794 248 784T220 757L168 801Q194 836 223 847T279 859Q300 859 318 853T352 839T381 825T408 819Q431 819 444 831T468 858L522 817Z" />
<glyph unicode="&#xd2;" glyph-name="Ograve" horiz-adv-x="760" d="M51 341Q51 438 81 505T159 613T265 672T380 691Q436 691 494 676T600 621T678 513T709 340Q709 242 679 175T601 66T495 6T380 -13Q324 -13 266 5T160 64T82 173T51 341ZM614 336Q614 471 552
541T384 611Q331 611 288 595T213 545T164 463T146 346Q146 211 208 139T376 67Q428 67 472 83T547 134T596 218T614 336ZM266 877L318 938L490 813L456 768L266 877Z" />
<glyph unicode="&#xd3;" glyph-name="Oacute" horiz-adv-x="760" d="M51 341Q51 438 81 505T159 613T265 672T380 691Q436 691 494 676T600 621T678 513T709 340Q709 242 679 175T601 66T495 6T380 -13Q324 -13 266 5T160 64T82 173T51 341ZM614 336Q614 471 552
541T384 611Q331 611 288 595T213 545T164 463T146 346Q146 211 208 139T376 67Q428 67 472 83T547 134T596 218T614 336ZM443 938L495 877L305 768L271 813L443 938Z" />
<glyph unicode="&#xd4;" glyph-name="Ocircumflex" horiz-adv-x="760" d="M51 341Q51 438 81 505T159 613T265 672T380 691Q436 691 494 676T600 621T678 513T709 340Q709 242 679 175T601 66T495 6T380 -13Q324 -13 266 5T160 64T82 173T51 341ZM614 336Q614
471 552 541T384 611Q331 611 288 595T213 545T164 463T146 346Q146 211 208 139T376 67Q428 67 472 83T547 134T596 218T614 336ZM374 940H414L549 803L509 770L394 867L279 770L239 803L374 940Z" />
<glyph unicode="&#xd5;" glyph-name="Otilde" horiz-adv-x="760" d="M51 341Q51 438 81 505T159 613T265 672T380 691Q436 691 494 676T600 621T678 513T709 340Q709 242 679 175T601 66T495 6T380 -13Q324 -13 266 5T160 64T82 173T51 341ZM614 336Q614 471 552
541T384 611Q331 611 288 595T213 545T164 463T146 346Q146 211 208 139T376 67Q428 67 472 83T547 134T596 218T614 336ZM557 828Q530 794 505 780T454 765Q429 765 410 771T374 784T344 798T318 805Q298 805 283 795T255 768L203 812Q229 847 258 858T314 870Q335
870 353 864T387 850T416 836T443 830Q466 830 479 842T503 869L557 828Z" />
<glyph unicode="&#xd6;" glyph-name="Odieresis" horiz-adv-x="760" d="M51 341Q51 438 81 505T159 613T265 672T380 691Q436 691 494 676T600 621T678 513T709 340Q709 242 679 175T601 66T495 6T380 -13Q324 -13 266 5T160 64T82 173T51 341ZM614 336Q614 471
552 541T384 611Q331 611 288 595T213 545T164 463T146 346Q146 211 208 139T376 67Q428 67 472 83T547 134T596 218T614 336ZM247 824Q247 847 262 862T301 878Q325 878 341 863T358 824Q358 801 342 786T301 770Q278 770 263 785T247 824ZM418 824Q418 847 433
862T472 878Q496 878 512 863T529 824Q529 801 513 786T472 770Q449 770 434 785T418 824Z" />
<glyph unicode="&#xd7;" glyph-name="multiply" horiz-adv-x="562" d="M238 251L47 443L89 486L281 294L473 486L515 443L323 251L515 60L473 17L281 209L89 17L47 60L238 251Z" />
<glyph unicode="&#xd8;" glyph-name="Oslash" horiz-adv-x="760" d="M132 90Q95 132 73 193T51 341Q51 438 81 505T159 613T265 672T380 691Q432 691 486 678T586 631L654 712L708 667L637 583Q670 542 689 483T709 340Q709 242 679 175T601 66T495 6T380 -13Q331
-13 281 0T185 44L106 -51L52 -6L132 90ZM146 346Q146 232 192 161L529 563Q470 611 384 611Q331 611 288 595T213 545T164 463T146 346ZM614 336Q614 389 604 432T575 508L240 109Q294 67 376 67Q428 67 472 83T547 134T596 218T614 336Z" />
<glyph unicode="&#xd9;" glyph-name="Ugrave" horiz-adv-x="716" d="M167 682V256Q167 199 183 163T227 105T288 76T359 68Q395 68 429 76T490 105T533 162T549 256V682H633V235Q633 183 614 138T558 60T471 7T358 -12Q225 -12 154 52T83 235V682H167ZM235 877L287
938L459 813L425 768L235 877Z" />
<glyph unicode="&#xda;" glyph-name="Uacute" horiz-adv-x="716" d="M167 682V256Q167 199 183 163T227 105T288 76T359 68Q395 68 429 76T490 105T533 162T549 256V682H633V235Q633 183 614 138T558 60T471 7T358 -12Q225 -12 154 52T83 235V682H167ZM480 938L532
877L342 768L308 813L480 938Z" />
<glyph unicode="&#xdb;" glyph-name="Ucircumflex" horiz-adv-x="716" d="M167 682V256Q167 199 183 163T227 105T288 76T359 68Q395 68 429 76T490 105T533 162T549 256V682H633V235Q633 183 614 138T558 60T471 7T358 -12Q225 -12 154 52T83 235V682H167ZM348
941H388L523 804L483 771L368 868L253 771L213 804L348 941Z" />
<glyph unicode="&#xdc;" glyph-name="Udieresis" horiz-adv-x="716" d="M167 682V256Q167 199 183 163T227 105T288 76T359 68Q395 68 429 76T490 105T533 162T549 256V682H633V235Q633 183 614 138T558 60T471 7T358 -12Q225 -12 154 52T83 235V682H167ZM212
824Q212 847 227 862T266 878Q290 878 306 863T323 824Q323 801 307 786T266 770Q243 770 228 785T212 824ZM383 824Q383 847 398 862T437 878Q461 878 477 863T494 824Q494 801 478 786T437 770Q414 770 399 785T383 824Z" />
<glyph unicode="&#xdd;" glyph-name="Yacute" horiz-adv-x="545" d="M230 248L12 682H105L272 351L440 682H533L315 248V0H230V248ZM347 938L399 877L209 768L175 813L347 938Z" />
<glyph unicode="&#xde;" glyph-name="Thorn" horiz-adv-x="544" d="M172 563H255Q385 563 447 517T510 362Q510 302 487 262T430 198T355 163T281 152H172V0H88V682H172V563ZM172 488V227H274Q308 227 335 233T383 255T414 297T425 364Q425 404 414 428T380 466T323
483T244 488H172Z" />
<glyph unicode="&#xdf;" glyph-name="germandbls" horiz-adv-x="599" d="M72 442Q72 521 81 580T116 680T184 739T294 759Q329 759 365 751T430 722T477 669T496 588Q496 544 484 516T452 471T410 442T368 422T336 402T323 371Q323 355 341 341T388 313T449 282T509
244T555 195T574 130Q574 88 556 61T510 17T448 -6T382 -13Q353 -13 314 -8T233 9L249 82Q295 67 326 63T383 58Q401 58 420 61T454 71T479 92T489 127Q488 150 470 167T424 200T364 232T304 268T257 313T238 373Q238 404 252 423T286 455T331 477T376 499T410
530T424 579Q424 610 411 631T377 664T332 681T287 686Q238 686 211 667T171 613T155 527T152 411V0H72V442Z" />
<glyph unicode="&#xe0;" glyph-name="agrave" horiz-adv-x="501" d="M352 231Q332 230 314 229T279 227T247 223Q175 214 145 192T115 127Q115 92 136 75T193 57Q241 57 278 73T352 117V231ZM351 47Q304 20 264 4T176 -13Q109 -13 70 19T30 127Q30 166 50 195T102
243T176 274T260 288Q278 290 307 291T352 294Q352 329 350 356T338 403T309 433T253 443Q224 443 197 440T149 432Q124 427 103 421L87 490Q112 496 141 501Q166 506 199 509T270 513Q321 513 352 498T401 458T425 400T432 331V91Q432 77 432 62T434 31T438 0L361
-8L351 47ZM129 710L181 771L353 646L319 601L129 710Z" />
<glyph unicode="&#xe1;" glyph-name="aacute" horiz-adv-x="501" d="M352 231Q332 230 314 229T279 227T247 223Q175 214 145 192T115 127Q115 92 136 75T193 57Q241 57 278 73T352 117V231ZM351 47Q304 20 264 4T176 -13Q109 -13 70 19T30 127Q30 166 50 195T102
243T176 274T260 288Q278 290 307 291T352 294Q352 329 350 356T338 403T309 433T253 443Q224 443 197 440T149 432Q124 427 103 421L87 490Q112 496 141 501Q166 506 199 509T270 513Q321 513 352 498T401 458T425 400T432 331V91Q432 77 432 62T434 31T438 0L361
-8L351 47ZM319 771L371 710L181 601L147 646L319 771Z" />
<glyph unicode="&#xe2;" glyph-name="acircumflex" horiz-adv-x="501" d="M352 231Q332 230 314 229T279 227T247 223Q175 214 145 192T115 127Q115 92 136 75T193 57Q241 57 278 73T352 117V231ZM351 47Q304 20 264 4T176 -13Q109 -13 70 19T30 127Q30 166 50
195T102 243T176 274T260 288Q278 290 307 291T352 294Q352 329 350 356T338 403T309 433T253 443Q224 443 197 440T149 432Q124 427 103 421L87 490Q112 496 141 501Q166 506 199 509T270 513Q321 513 352 498T401 458T425 400T432 331V91Q432 77 432 62T434 31T438
0L361 -8L351 47ZM235 770H275L410 633L370 600L255 697L140 600L100 633L235 770Z" />
<glyph unicode="&#xe3;" glyph-name="atilde" horiz-adv-x="501" d="M352 231Q332 230 314 229T279 227T247 223Q175 214 145 192T115 127Q115 92 136 75T193 57Q241 57 278 73T352 117V231ZM351 47Q304 20 264 4T176 -13Q109 -13 70 19T30 127Q30 166 50 195T102
243T176 274T260 288Q278 290 307 291T352 294Q352 329 350 356T338 403T309 433T253 443Q224 443 197 440T149 432Q124 427 103 421L87 490Q112 496 141 501Q166 506 199 509T270 513Q321 513 352 498T401 458T425 400T432 331V91Q432 77 432 62T434 31T438 0L361
-8L351 47ZM688 663Q661 629 636 615T585 600Q560 600 541 606T505 619T475 633T449 640Q429 640 414 630T386 603L334 647Q360 682 389 693T445 705Q466 705 484 699T518 685T547 671T574 665Q597 665 610 677T634 704L688 663Z" />
<glyph unicode="&#xe4;" glyph-name="adieresis" horiz-adv-x="501" d="M352 231Q332 230 314 229T279 227T247 223Q175 214 145 192T115 127Q115 92 136 75T193 57Q241 57 278 73T352 117V231ZM351 47Q304 20 264 4T176 -13Q109 -13 70 19T30 127Q30 166 50 195T102
243T176 274T260 288Q278 290 307 291T352 294Q352 329 350 356T338 403T309 433T253 443Q224 443 197 440T149 432Q124 427 103 421L87 490Q112 496 141 501Q166 506 199 509T270 513Q321 513 352 498T401 458T425 400T432 331V91Q432 77 432 62T434 31T438 0L361
-8L351 47ZM115 647Q115 670 130 685T169 701Q193 701 209 686T226 647Q226 624 210 609T169 593Q146 593 131 608T115 647ZM286 647Q286 670 301 685T340 701Q364 701 380 686T397 647Q397 624 381 609T340 593Q317 593 302 608T286 647Z" />
<glyph unicode="&#xe5;" glyph-name="aring" horiz-adv-x="501" d="M352 231Q332 230 314 229T279 227T247 223Q175 214 145 192T115 127Q115 92 136 75T193 57Q241 57 278 73T352 117V231ZM351 47Q304 20 264 4T176 -13Q109 -13 70 19T30 127Q30 166 50 195T102
243T176 274T260 288Q278 290 307 291T352 294Q352 329 350 356T338 403T309 433T253 443Q224 443 197 440T149 432Q124 427 103 421L87 490Q112 496 141 501Q166 506 199 509T270 513Q321 513 352 498T401 458T425 400T432 331V91Q432 77 432 62T434 31T438 0L361
-8L351 47ZM153 690Q153 713 161 733T183 767T217 790T259 799Q306 799 338 768T370 690Q370 667 362 648T338 614T303 591T259 582Q236 582 217 590T184 613T161 647T153 690ZM204 690Q204 666 220 650T261 633Q285 633 302 649T319 690Q319 714 302 731T261 748Q237
748 221 731T204 690Z" />
<glyph unicode="&#xe6;" glyph-name="ae" horiz-adv-x="806" d="M176 -13Q101 -13 66 22T30 127Q30 167 48 196T96 244T166 274T249 288Q264 289 282 290T347 296L351 323Q360 382 338 412T253 443Q184 443 104 424L87 495Q179 513 270 513Q327 512 360 494T409
445Q472 513 583 513Q632 513 667 494T724 443T758 367T769 275L754 231H430Q430 198 439 167T469 111T520 72T596 57Q671 57 729 79L744 14Q664 -13 581 -13Q527 -13 482 4T397 69Q370 46 336 28Q307 12 267 0T176 -13ZM364 122Q358 139 354 157T348 193Q345 212
344 231Q290 228 247 223Q175 214 145 192T114 127Q114 92 136 75T193 57Q241 57 284 76T364 122ZM686 295Q686 302 683 326T669 376T636 422T574 443Q532 443 505 426T463 385T441 335T434 295H686Z" />
<glyph unicode="&#xe7;" glyph-name="ccedilla" horiz-adv-x="437" d="M384 430Q367 434 337 438T276 443Q231 443 203 425T158 379T136 316T130 248Q130 197 143 161T177 101T227 68T286 57Q307 57 326 59T362 65T394 74L410 7Q389 1 371 -3T329 -10T276 -13Q221
-13 178 1T106 46T61 127T45 249Q45 319 64 369T116 451T189 498T276 513Q300 513 322 511T362 505Q382 501 400 497L384 430ZM218 -59H297V-83Q297 -101 295 -118T285 -154T263 -195T223 -244L166 -197Q185 -176 196 -159T211 -129T217 -104T218 -83V-59Z" />
<glyph unicode="&#xe8;" glyph-name="egrave" horiz-adv-x="506" d="M444 12Q421 5 397 0T343 -9T281 -13Q231 -13 188 1T113 46T63 126T44 248Q44 313 62 362T111 445T185 496T278 513Q327 513 363 494T422 443T457 367T469 275L454 231H131Q131 200 139 169T166
113T217 73T296 57Q326 57 351 60T394 68T429 79L444 12ZM386 295Q386 302 383 326T369 376T335 422T274 443Q232 443 205 426T162 384T140 335T134 295H386ZM141 710L193 771L365 646L331 601L141 710Z" />
<glyph unicode="&#xe9;" glyph-name="eacute" horiz-adv-x="506" d="M444 12Q421 5 397 0T343 -9T281 -13Q231 -13 188 1T113 46T63 126T44 248Q44 313 62 362T111 445T185 496T278 513Q327 513 363 494T422 443T457 367T469 275L454 231H131Q131 200 139 169T166
113T217 73T296 57Q326 57 351 60T394 68T429 79L444 12ZM386 295Q386 302 383 326T369 376T335 422T274 443Q232 443 205 426T162 384T140 335T134 295H386ZM337 771L389 710L199 601L165 646L337 771Z" />
<glyph unicode="&#xea;" glyph-name="ecircumflex" horiz-adv-x="506" d="M444 12Q421 5 397 0T343 -9T281 -13Q231 -13 188 1T113 46T63 126T44 248Q44 313 62 362T111 445T185 496T278 513Q327 513 363 494T422 443T457 367T469 275L454 231H131Q131 200 139
169T166 113T217 73T296 57Q326 57 351 60T394 68T429 79L444 12ZM386 295Q386 302 383 326T369 376T335 422T274 443Q232 443 205 426T162 384T140 335T134 295H386ZM251 770H291L426 633L386 600L271 697L156 600L116 633L251 770Z" />
<glyph unicode="&#xeb;" glyph-name="edieresis" horiz-adv-x="506" d="M444 12Q421 5 397 0T343 -9T281 -13Q231 -13 188 1T113 46T63 126T44 248Q44 313 62 362T111 445T185 496T278 513Q327 513 363 494T422 443T457 367T469 275L454 231H131Q131 200 139 169T166
113T217 73T296 57Q326 57 351 60T394 68T429 79L444 12ZM386 295Q386 302 383 326T369 376T335 422T274 443Q232 443 205 426T162 384T140 335T134 295H386ZM126 647Q126 670 141 685T180 701Q204 701 220 686T237 647Q237 624 221 609T180 593Q157 593 142 608T126
647ZM297 647Q297 670 312 685T351 701Q375 701 391 686T408 647Q408 624 392 609T351 593Q328 593 313 608T297 647Z" />
<glyph unicode="&#xec;" glyph-name="igrave" horiz-adv-x="224" d="M72 504L152 513V0H72V504ZM-40 710L12 771L184 646L150 601L-40 710Z" />
<glyph unicode="&#xed;" glyph-name="iacute" horiz-adv-x="224" d="M72 504L152 513V0H72V504ZM468 771L520 710L330 601L296 646L468 771Z" />
<glyph unicode="&#xee;" glyph-name="icircumflex" horiz-adv-x="224" d="M72 504L152 513V0H72V504ZM92 770H132L267 633L227 600L112 697L-3 600L-43 633L92 770Z" />
<glyph unicode="&#xef;" glyph-name="idieresis" horiz-adv-x="224" d="M72 504L152 513V0H72V504ZM-29 647Q-29 670 -14 685T25 701Q49 701 65 686T82 647Q82 624 66 609T25 593Q2 593 -13 608T-29 647ZM142 647Q142 670 157 685T196 701Q220 701 236 686T253
647Q253 624 237 609T196 593Q173 593 158 608T142 647Z" />
<glyph unicode="&#xf0;" glyph-name="eth" horiz-adv-x="513" d="M183 490L264 552Q246 573 226 594T185 637L243 691Q266 666 286 644T326 599L415 666L451 619L364 552Q409 492 435 426T462 268Q462 198 447 146T403 58T334 5T245 -13Q190 -13 150 1T84 42T45
106T32 189Q32 245 54 284T108 347T179 383T249 394Q271 394 292 392T330 387Q349 383 367 380Q356 415 340 445T302 505L221 442L183 490ZM246 58Q311 58 342 106T377 259Q378 283 374 313Q311 324 261 324Q189 324 153 288T117 187Q117 149 128 125T157 85T198
64T246 58Z" />
<glyph unicode="&#xf1;" glyph-name="ntilde" horiz-adv-x="547" d="M73 403Q74 424 68 494L142 504L153 440Q183 460 212 475T273 501T333 513Q374 513 401 504T446 472T470 414T478 324V0H398V315Q398 345 397 368T389 408T366 434T322 443Q296 443 267 432T210
405T153 370V0H73V403ZM459 910Q432 876 407 862T356 847Q331 847 312 853T276 866T246 880T220 887Q200 887 185 877T157 850L105 894Q131 929 160 940T216 952Q237 952 255 946T289 932T318 918T345 912Q368 912 381 924T405 951L459 910Z" />
<glyph unicode="&#xf2;" glyph-name="ograve" horiz-adv-x="574" d="M129 249Q129 152 172 105T290 57Q363 57 404 104T445 245Q445 345 402 394T283 443Q208 443 169 395T129 249ZM44 250Q44 326 68 376T129 457T208 500T289 513Q325 513 367 502T446 461T506
382T530 256Q530 177 506 125T444 43T364 0T284 -13Q246 -13 204 -1T127 40T68 121T44 250ZM155 710L207 771L379 646L345 601L155 710Z" />
<glyph unicode="&#xf3;" glyph-name="oacute" horiz-adv-x="574" d="M129 249Q129 152 172 105T290 57Q363 57 404 104T445 245Q445 345 402 394T283 443Q208 443 169 395T129 249ZM44 250Q44 326 68 376T129 457T208 500T289 513Q325 513 367 502T446 461T506
382T530 256Q530 177 506 125T444 43T364 0T284 -13Q246 -13 204 -1T127 40T68 121T44 250ZM353 771L405 710L215 601L181 646L353 771Z" />
<glyph unicode="&#xf4;" glyph-name="ocircumflex" horiz-adv-x="574" d="M129 249Q129 152 172 105T290 57Q363 57 404 104T445 245Q445 345 402 394T283 443Q208 443 169 395T129 249ZM44 250Q44 326 68 376T129 457T208 500T289 513Q325 513 367 502T446 461T506
382T530 256Q530 177 506 125T444 43T364 0T284 -13Q246 -13 204 -1T127 40T68 121T44 250ZM270 770H310L445 633L405 600L290 697L175 600L135 633L270 770Z" />
<glyph unicode="&#xf5;" glyph-name="otilde" horiz-adv-x="574" d="M129 249Q129 152 172 105T290 57Q363 57 404 104T445 245Q445 345 402 394T283 443Q208 443 169 395T129 249ZM44 250Q44 326 68 376T129 457T208 500T289 513Q325 513 367 502T446 461T506
382T530 256Q530 177 506 125T444 43T364 0T284 -13Q246 -13 204 -1T127 40T68 121T44 250ZM467 663Q440 629 415 615T364 600Q339 600 320 606T284 619T254 633T228 640Q208 640 193 630T165 603L113 647Q139 682 168 693T224 705Q245 705 263 699T297 685T326
671T353 665Q376 665 389 677T413 704L467 663Z" />
<glyph unicode="&#xf6;" glyph-name="odieresis" horiz-adv-x="574" d="M129 249Q129 152 172 105T290 57Q363 57 404 104T445 245Q445 345 402 394T283 443Q208 443 169 395T129 249ZM44 250Q44 326 68 376T129 457T208 500T289 513Q325 513 367 502T446 461T506
382T530 256Q530 177 506 125T444 43T364 0T284 -13Q246 -13 204 -1T127 40T68 121T44 250ZM152 647Q152 670 167 685T206 701Q230 701 246 686T263 647Q263 624 247 609T206 593Q183 593 168 608T152 647ZM323 647Q323 670 338 685T377 701Q401 701 417 686T434
647Q434 624 418 609T377 593Q354 593 339 608T323 647Z" />
<glyph unicode="&#xf7;" glyph-name="divide" horiz-adv-x="552" d="M56 323H496V243H56V323ZM276 395Q251 395 234 411T217 453Q217 479 234 496T276 513Q302 513 318 496T335 453Q335 428 319 412T276 395ZM276 53Q251 53 234 69T217 111Q217 137 234 154T276
171Q302 171 318 154T335 111Q335 86 319 70T276 53Z" />
<glyph unicode="&#xf8;" glyph-name="oslash" horiz-adv-x="574" d="M101 65Q75 95 60 140T44 250Q44 326 68 376T129 457T208 500T289 513Q324 513 363 503T438 467L491 530L537 492L481 425Q503 396 516 355T530 256Q530 177 506 125T444 43T364 0T284 -13Q251
-13 215 -5T146 25L97 -33L51 5L101 65ZM129 249Q129 175 155 129L388 407Q347 443 283 443Q208 443 169 395T129 249ZM445 245Q445 279 440 306T424 357L195 84Q214 70 238 64T290 57Q363 57 404 104T445 245Z" />
<glyph unicode="&#xf9;" glyph-name="ugrave" horiz-adv-x="526" d="M373 55H371Q362 48 345 37T306 14T258 -5T204 -13Q167 -13 141 -4T99 28T76 86T69 176V503H149V188Q149 158 150 134T157 93T176 67T215 57Q241 57 269 68T320 93Q347 109 373 129V503H453V65Q454
29 458 0L379 -8L373 55ZM137 710L189 771L361 646L327 601L137 710Z" />
<glyph unicode="&#xfa;" glyph-name="uacute" horiz-adv-x="526" d="M373 55H371Q362 48 345 37T306 14T258 -5T204 -13Q167 -13 141 -4T99 28T76 86T69 176V503H149V188Q149 158 150 134T157 93T176 67T215 57Q241 57 269 68T320 93Q347 109 373 129V503H453V65Q454
29 458 0L379 -8L373 55ZM330 771L382 710L192 601L158 646L330 771Z" />
<glyph unicode="&#xfb;" glyph-name="ucircumflex" horiz-adv-x="526" d="M373 55H371Q362 48 345 37T306 14T258 -5T204 -13Q167 -13 141 -4T99 28T76 86T69 176V503H149V188Q149 158 150 134T157 93T176 67T215 57Q241 57 269 68T320 93Q347 109 373 129V503H453V65Q454
29 458 0L379 -8L373 55ZM243 770H283L418 633L378 600L263 697L148 600L108 633L243 770Z" />
<glyph unicode="&#xfc;" glyph-name="udieresis" horiz-adv-x="526" d="M373 55H371Q362 48 345 37T306 14T258 -5T204 -13Q167 -13 141 -4T99 28T76 86T69 176V503H149V188Q149 158 150 134T157 93T176 67T215 57Q241 57 269 68T320 93Q347 109 373 129V503H453V65Q454
29 458 0L379 -8L373 55ZM123 647Q123 670 138 685T177 701Q201 701 217 686T234 647Q234 624 218 609T177 593Q154 593 139 608T123 647ZM294 647Q294 670 309 685T348 701Q372 701 388 686T405 647Q405 624 389 609T348 593Q325 593 310 608T294 647Z" />
<glyph unicode="&#xfd;" glyph-name="yacute" horiz-adv-x="497" d="M7 503H92L186 276Q200 243 211 210T232 151Q243 120 251 91H252Q261 120 272 151Q281 177 293 210T318 276L405 503H489L251 -97Q237 -134 215 -161T171 -206Q146 -227 119 -242L80 -173Q101
-163 119 -148Q135 -135 151 -116T177 -69L208 13L7 503ZM301 779L353 718L163 609L129 654L301 779Z" />
<glyph unicode="&#xfe;" glyph-name="thorn" horiz-adv-x="539" d="M152 -228H72V749L152 758V460Q191 486 229 499T293 513Q334 513 370 497T434 449T478 368T494 252Q494 178 474 128T419 46T340 1T250 -13Q198 -13 152 -2V-228ZM284 443Q263 443 231 431T152
388V74Q204 57 250 57Q296 57 327 70T376 108T401 168T409 248Q409 283 402 318T378 380T339 425T284 443Z" />
<glyph unicode="&#xff;" glyph-name="ydieresis" horiz-adv-x="497" d="M7 503H92L186 276Q200 243 211 210T232 151Q243 120 251 91H252Q261 120 272 151Q281 177 293 210T318 276L405 503H489L251 -97Q237 -134 215 -161T171 -206Q146 -227 119 -242L80 -173Q101
-163 119 -148Q135 -135 151 -116T177 -69L208 13L7 503ZM108 657Q108 680 123 695T162 711Q186 711 202 696T219 657Q219 634 203 619T162 603Q139 603 124 618T108 657ZM279 657Q279 680 294 695T333 711Q357 711 373 696T390 657Q390 634 374 619T333 603Q310
603 295 618T279 657Z" />
<glyph unicode="&#x2013;" glyph-name="endash" horiz-adv-x="566" d="M63 294H503V214H63V294Z" />
<glyph unicode="&#x2014;" glyph-name="emdash" horiz-adv-x="796" d="M63 294H733V214H63V294Z" />
<glyph unicode="&#x2018;" glyph-name="quoteleft" horiz-adv-x="201" d="M58 595Q58 619 67 649T87 707Q99 739 116 771L178 760Q167 731 159 704Q151 681 146 655T140 607V527L58 518V595Z" />
<glyph unicode="&#x2019;" glyph-name="quoteright" horiz-adv-x="204" d="M84 761L166 770V693Q166 669 157 639T137 581Q124 549 108 517L46 528Q56 556 65 583Q72 606 78 633T84 681V761Z" />
<glyph unicode="&#x201a;" glyph-name="quotesinglbase" horiz-adv-x="207" d="M62 121L144 130V53Q144 29 135 -1T115 -59Q102 -91 86 -123L24 -112Q34 -84 43 -57Q50 -34 56 -7T62 41V121Z" />
<glyph unicode="&#x201c;" glyph-name="quotedblleft" horiz-adv-x="349" d="M204 587Q204 611 213 641T233 699Q245 731 262 763L324 752Q313 723 305 696Q297 673 292 647T286 599V519L204 510V587ZM58 587Q58 611 67 641T87 699Q99 731 116 763L178 752Q167
723 159 696Q151 673 146 647T140 599V519L58 510V587Z" />
<glyph unicode="&#x201d;" glyph-name="quotedblright" horiz-adv-x="355" d="M235 758L317 767V690Q317 666 308 636T288 578Q275 546 259 514L197 525Q207 553 216 580Q223 603 229 630T235 678V758ZM82 758L164 767V690Q164 666 155 636T135 578Q122 546 106
514L44 525Q54 553 63 580Q70 603 76 630T82 678V758Z" />
<glyph unicode="&#x201e;" glyph-name="quotedblbase" horiz-adv-x="349" d="M62 121L144 130V53Q144 29 135 -1T115 -59Q102 -91 86 -123L24 -112Q34 -84 43 -57Q50 -34 56 -7T62 41V121ZM204 121L286 130V53Q286 29 277 -1T257 -59Q244 -91 228 -123L166 -112Q176
-84 185 -57Q192 -34 198 -7T204 41V121Z" />
<glyph unicode="&#x2022;" glyph-name="bullet" horiz-adv-x="341" d="M46 267Q46 291 56 313T82 351T121 376T170 386Q195 386 218 377T258 351T285 313T296 267Q296 241 286 218T258 177T218 149T170 139Q144 139 122 149T83 176T56 217T46 267Z" />
<glyph unicode="&#x2039;" glyph-name="guilsinglleft" horiz-adv-x="327" d="M283 73L230 28L39 255L230 482L283 437L131 255L283 73Z" />
<glyph unicode="&#x203a;" glyph-name="guilsinglright" horiz-adv-x="327" d="M196 255L44 437L97 482L288 255L97 28L44 73L196 255Z" />
</font>
</defs>
</svg>
