<?xml version="1.0" standalone="no"?>
<!DOCTYPE svg PUBLIC "-//W3C//DTD SVG 1.1//EN" "http://www.w3.org/Graphics/SVG/1.1/DTD/svg11.dtd">
<svg xmlns="http://www.w3.org/2000/svg">
<defs >
<font id="Overlock" horiz-adv-x="370" ><font-face
    font-family="Overlock"
    units-per-em="1000"
    panose-1="2 0 5 6 4 0 0 9 0 2"
    ascent="966"
    descent="-254"
    alphabetic="0" />
<glyph unicode=" " glyph-name="space" horiz-adv-x="200" />
<glyph unicode="!" glyph-name="exclam" horiz-adv-x="251" d="M100 -10Q79 -10 65 4T50 43Q50 72 70 94T116 117Q137 117 151 102T165 63Q165 33 146 12T100 -10ZM226 646Q226 630 218 590T197 487T176 367Q163 262 163 243Q163 218 167 199Q145 189 128 189Q93
189 93 226Q93 233 113 408T133 650Q133 669 132 676Q164 684 185 684Q226 684 226 646Z" />
<glyph unicode="&quot;" glyph-name="quotedbl" horiz-adv-x="344" d="M118 711Q122 735 155 735Q173 735 185 725T198 695Q198 681 180 619T147 520Q134 485 114 485Q103 485 85 494Q96 520 103 567T113 657T118 711ZM284 711Q288 735 321 735Q339 735 351 725T364
695Q364 681 346 619T313 520Q300 485 280 485Q269 485 251 494Q262 520 269 567T279 657T284 711Z" />
<glyph unicode="#" glyph-name="numbersign" horiz-adv-x="574" d="M311 220Q287 221 232 221H201Q199 213 193 187T181 140T175 106Q172 86 172 49Q159 41 140 41Q116 41 116 64Q116 86 155 220Q79 216 29 202Q28 209 28 221Q28 274 86 274Q142 274 171 273L201
389Q125 385 75 371Q74 378 74 390Q74 443 132 443Q186 443 215 442Q218 456 234 521T253 610Q267 613 279 613Q305 613 305 590Q305 582 298 557T279 493T263 442H371Q374 456 390 521T409 610Q423 613 435 613Q461 613 461 590Q461 582 454 557T435 493T419 442Q492
445 546 449Q544 418 534 400T494 382Q489 382 476 383T440 385T401 387Q379 311 370 273Q450 276 500 280Q498 249 488 231T448 213Q443 213 430 214T395 216T356 218Q354 210 348 185T337 139T331 106Q328 86 328 49Q315 41 296 41Q272 41 272 64Q272 86 311
220ZM215 272Q302 272 326 273Q337 309 356 389Q331 390 276 390H247Q227 322 215 272Z" />
<glyph unicode="$" glyph-name="dollar" horiz-adv-x="574" d="M202 481Q202 418 274 386L306 610Q262 605 232 571T202 481ZM389 194Q389 233 366 254T299 290Q292 243 281 160T266 49Q317 52 353 90T389 194ZM238 -78Q213 -78 213 -57Q213 -49 219 -9Q157 -6
113 17T69 75Q69 97 82 110T120 135Q130 104 160 82T228 52Q229 63 263 302Q239 310 224 316T189 335T158 363T139 401T131 455Q131 543 181 599T312 668Q316 704 318 736Q330 739 336 739Q360 739 360 719Q360 713 354 671Q407 670 451 648T496 589Q496 543 440
532Q430 561 404 581T345 608Q314 391 311 371Q347 358 363 352T402 332T436 307T454 274T462 227Q462 126 406 63T259 -9Q254 -45 253 -76L238 -78Z" />
<glyph unicode="%" glyph-name="percent" horiz-adv-x="712" d="M485 -10Q431 -10 401 25T370 122Q370 207 414 264T528 322Q582 322 612 288T642 191Q642 106 599 48T485 -10ZM522 273Q482 273 457 232T432 138Q432 97 446 69T491 40Q530 40 554 83T579 179Q579
219 565 246T522 273ZM104 25L583 692Q598 691 610 683T622 662Q622 654 609 635T526 520Q394 340 272 171Q212 89 133 -29Q94 -21 94 1Q96 15 104 25ZM185 333Q131 333 101 368T70 465Q70 550 114 607T228 665Q282 665 312 631T342 534Q342 449 299 391T185 333ZM222
616Q182 616 157 575T132 481Q132 440 146 412T191 383Q230 383 254 426T279 522Q279 562 265 589T222 616Z" />
<glyph unicode="&amp;" glyph-name="ampersand" horiz-adv-x="700" d="M415 235Q400 204 373 204T346 244Q346 291 384 335T476 380Q504 380 558 365T631 350Q673 350 673 394Q673 418 660 437Q674 467 703 467Q730 467 730 427Q730 382 692 337T601 291Q584 291
565 295Q529 130 452 60T257 -11Q157 -11 98 45T39 179Q39 238 77 291T188 375Q108 415 108 492Q108 566 167 620T314 675Q371 675 411 649T452 590Q452 553 406 547Q392 581 365 598T305 616Q254 616 220 586T185 507Q185 473 211 446T289 418Q301 418 308 419Q310
405 310 401Q310 393 308 388T305 379T297 372T289 369T278 366T267 364Q197 348 159 300T121 194Q121 134 162 91T275 48Q371 48 426 107T501 311Q464 322 440 322Q421 322 411 310T401 278Q401 251 415 235Z" />
<glyph unicode="&apos;" glyph-name="quotesingle" horiz-adv-x="178" d="M118 711Q122 735 155 735Q173 735 185 725T198 695Q198 681 180 619T147 520Q134 485 114 485Q103 485 85 494Q96 520 103 567T113 657T118 711Z" />
<glyph unicode="(" glyph-name="parenleft" horiz-adv-x="332" d="M237 -180Q218 -203 201 -203Q165 -203 124 -92T82 158Q82 258 112 366T184 551T266 680T332 731Q349 731 362 708Q269 613 212 457T154 146Q154 44 176 -41T237 -180Z" />
<glyph unicode=")" glyph-name="parenright" horiz-adv-x="332" d="M94 708Q113 731 130 731Q166 731 207 618T249 367Q249 263 218 154T144 -31T62 -154T0 -203Q-17 -203 -30 -180Q64 -83 121 72T178 379Q178 478 156 566T94 708Z" />
<glyph unicode="*" glyph-name="asterisk" horiz-adv-x="450" d="M247 738Q264 743 280 743Q321 743 321 711Q321 696 299 610Q339 633 408 679Q430 657 430 631Q430 619 424 610T403 592T378 579T342 565T306 552Q339 511 392 458Q363 417 332 417Q326 417 321
419T310 427T300 439T289 455T279 474T268 496T255 520Q216 475 163 405Q119 422 119 453Q119 476 214 555Q158 582 100 602Q107 625 122 643T156 662Q172 662 241 613Q246 681 247 738Z" />
<glyph unicode="+" glyph-name="plus" horiz-adv-x="574" d="M316 280Q434 280 503 288Q506 279 506 258Q506 240 496 228T470 216Q453 216 397 219T315 223Q315 114 323 26Q308 23 293 23Q276 23 264 32T251 59Q251 67 254 123T258 224Q159 223 72 216Q69 231
69 246Q69 262 78 275T105 288Q113 288 165 285T259 281Q259 409 251 478Q260 481 281 481Q299 481 311 471T323 445Q323 428 320 367T316 280Z" />
<glyph unicode="," glyph-name="comma" horiz-adv-x="201" d="M74 -12Q74 28 35 37Q30 50 30 61Q30 85 48 102T92 120Q113 120 127 104T141 53Q141 -13 98 -78T6 -143Q-16 -143 -16 -119Q-16 -113 -12 -101H-8Q26 -101 50 -73T74 -12Z" />
<glyph unicode="-" glyph-name="hyphen" horiz-adv-x="224" d="M218 297Q219 293 219 286Q219 264 209 246T177 228Q171 228 148 230T106 233Q61 233 26 225Q25 230 25 240Q25 294 66 294Q67 294 94 292T144 290Q187 290 218 297Z" />
<glyph unicode="." glyph-name="period" horiz-adv-x="204" d="M80 -10Q59 -10 45 4T30 43Q30 72 50 94T96 117Q117 117 131 102T145 63Q145 33 126 12T80 -10Z" />
<glyph unicode="/" glyph-name="slash" horiz-adv-x="243" d="M246 742Q278 742 278 721Q278 710 244 593T177 369T142 254Q119 181 83 53T37 -119Q24 -122 13 -122Q-15 -122 -15 -99Q-15 -87 162 507Q208 665 225 739L246 742Z" />
<glyph unicode="0" glyph-name="zero" horiz-adv-x="574" d="M242 -10Q155 -10 107 58T58 246Q58 358 90 454T186 612T332 673Q419 673 468 605T517 417Q517 306 485 210T388 52T242 -10ZM133 275Q133 178 162 114T249 49Q334 49 388 152T442 390Q442 485 413
549T325 614Q243 614 188 515T133 275Z" />
<glyph unicode="1" glyph-name="one" horiz-adv-x="574" d="M305 54Q370 54 403 58Q405 48 405 42Q405 -2 362 -2Q356 -2 305 -1T212 0Q140 0 111 -1Q109 11 109 15Q109 57 169 57H233Q237 86 251 187T274 354Q296 523 304 606Q199 595 185 592Q185 607 186 614Q190
652 228 657Q331 673 349 673Q383 673 383 642Q383 633 375 587T354 462T332 311L324 249Q308 135 305 54Z" />
<glyph unicode="2" glyph-name="two" horiz-adv-x="574" d="M143 528Q112 533 112 557Q112 597 178 635T313 673Q379 673 424 633T470 520Q470 491 465 463T445 407T418 357T379 306T336 259T283 210T229 163T169 113T108 63Q140 61 191 61Q290 61 337 66T433
89Q440 71 440 52Q440 22 412 12Q374 -2 258 -2Q221 -2 157 -1T66 0Q29 0 29 37Q29 46 32 60Q74 99 140 155T244 245T321 323T379 410T397 498Q397 551 369 582T297 613Q258 613 216 590T143 528Z" />
<glyph unicode="3" glyph-name="three" horiz-adv-x="574" d="M324 364Q423 313 423 223Q423 130 355 60T172 -10Q105 -10 72 7T38 48Q38 65 49 76T78 89Q106 49 184 49Q258 49 303 96T348 204Q348 257 309 291T193 326Q166 326 166 352Q166 363 170 375Q266 375
318 419T371 525Q371 563 349 588T286 614Q251 614 216 594T155 536Q138 536 129 544T119 564Q119 601 176 637T300 673Q371 673 408 635T446 541Q446 487 415 441T324 364Z" />
<glyph unicode="4" glyph-name="four" horiz-adv-x="574" d="M129 273Q177 270 229 270Q286 270 336 273Q356 417 380 579Q273 472 129 273ZM383 661Q399 674 432 674Q449 674 461 671Q416 409 401 276Q471 282 495 293Q499 279 499 267Q499 226 474 218Q452 210
393 209Q379 111 379 57Q379 23 383 -2Q365 -10 343 -10Q320 -10 312 -1T303 28Q303 40 328 208Q129 208 76 215Q59 218 59 244Q59 265 66 284Q116 359 226 490T383 661Z" />
<glyph unicode="5" glyph-name="five" horiz-adv-x="574" d="M398 592Q326 592 224 598L189 423Q224 429 255 429Q347 429 394 383T441 259Q441 149 370 70T185 -10Q117 -10 84 8T50 49Q50 65 62 76T91 89Q117 49 196 49Q271 49 318 105T366 232Q366 292 327 332T217
372Q176 372 139 367Q133 375 133 394Q133 395 180 664Q207 662 366 662Q432 662 472 670Q477 659 477 636Q472 592 398 592Z" />
<glyph unicode="6" glyph-name="six" horiz-adv-x="574" d="M295 334Q228 334 158 274Q153 232 153 199Q153 49 261 49Q324 49 361 100T399 218Q399 272 371 303T295 334ZM245 -10Q82 -10 82 198Q82 280 107 363T177 516T291 629T440 673Q475 673 475 644Q475
627 466 609Q442 613 429 613Q328 613 260 531T166 330Q242 391 321 391Q387 391 430 349T474 235Q474 143 408 67T245 -10Z" />
<glyph unicode="7" glyph-name="seven" horiz-adv-x="574" d="M448 597Q305 592 182 592Q117 592 117 630Q117 650 130 670Q176 662 235 662Q472 662 520 664Q523 650 523 637Q523 610 512 589Q470 492 191 59Q147 -10 121 -10Q106 -10 89 2T63 29Q155 118 274
299T448 597Z" />
<glyph unicode="8" glyph-name="eight" horiz-adv-x="574" d="M331 614Q281 614 247 587T213 518Q213 478 239 450T318 398Q429 450 429 542Q429 574 401 594T331 614ZM257 49Q323 49 363 93T403 196Q403 245 373 276T280 337Q143 276 143 158Q143 113 173 81T257
49ZM249 -10Q162 -10 117 34T71 145Q71 225 115 280T226 367Q143 417 143 502Q143 577 199 625T339 673Q406 673 451 639T497 549Q497 430 371 367Q421 339 448 301T476 204Q476 117 417 54T249 -10Z" />
<glyph unicode="9" glyph-name="nine" horiz-adv-x="574" d="M285 330Q352 330 422 390Q427 432 427 465Q427 615 319 615Q256 615 219 564T181 446Q181 392 209 361T285 330ZM334 674Q498 674 498 468Q498 386 473 303T403 149T289 35T139 -9Q106 -9 106 18Q106
34 113 55Q139 51 151 51Q252 51 320 133T414 334Q338 273 259 273Q193 273 150 315T106 429Q106 521 171 597T334 674Z" />
<glyph unicode=":" glyph-name="colon" horiz-adv-x="224" d="M80 -10Q59 -10 45 4T30 43Q30 72 50 94T96 117Q117 117 131 102T145 63Q145 33 126 12T80 -10ZM128 351Q107 351 93 365T78 404Q78 433 98 455T144 478Q165 478 179 463T193 424Q193 394 174 373T128 351Z" />
<glyph unicode=";" glyph-name="semicolon" horiz-adv-x="221" d="M109 351Q88 351 74 365T59 404Q59 433 79 455T125 478Q146 478 160 463T174 424Q174 394 155 373T109 351ZM74 -12Q74 28 35 37Q30 50 30 61Q30 85 48 102T92 120Q113 120 127 104T141 53Q141
-13 98 -78T6 -143Q-16 -143 -16 -119Q-16 -113 -12 -101H-8Q26 -101 50 -73T74 -12Z" />
<glyph unicode="&lt;" glyph-name="less" horiz-adv-x="574" d="M206 251Q243 209 395 52Q374 18 342 18Q328 18 318 29L130 251L379 461Q393 472 405 472Q420 472 432 462T450 438Q431 423 372 378T261 293T206 251Z" />
<glyph unicode="=" glyph-name="equal" horiz-adv-x="574" d="M486 158Q486 140 476 128T450 116T379 120T294 124Q180 124 92 116Q89 131 89 146Q89 162 98 175T125 188Q128 188 188 185T292 181Q422 181 483 188Q486 179 486 158ZM486 358Q486 340 476 328T450
316T379 320T294 324Q180 324 92 316Q89 331 89 346Q89 362 98 375T125 388Q128 388 188 385T292 381Q422 381 483 388Q486 379 486 358Z" />
<glyph unicode="&gt;" glyph-name="greater" horiz-adv-x="574" d="M360 251Q357 254 318 293T232 377T170 438Q178 451 193 461T223 472Q236 472 247 461L436 251L186 29Q174 18 160 18T134 27T115 52Q324 219 360 251Z" />
<glyph unicode="?" glyph-name="question" horiz-adv-x="359" d="M141 117Q162 117 176 103T191 64Q191 35 171 13T125 -10Q104 -10 90 5T76 44Q76 74 95 95T141 117ZM178 199Q155 189 138 189Q101 189 101 238Q101 272 117 304T152 358T202 410T247 461Q289 516
289 566Q289 597 270 612T220 628Q182 628 147 607T100 553Q60 560 60 590Q60 631 106 657T213 684Q275 684 318 653T362 560Q362 489 303 425Q290 411 261 385T217 343T188 298T174 237Q174 218 178 199Z" />
<glyph unicode="@" glyph-name="at" horiz-adv-x="836" d="M336 54Q295 54 271 82T246 164Q246 268 310 355T457 443Q543 443 597 397Q532 219 532 156Q532 117 561 117Q607 117 649 189T692 359Q692 534 507 534Q413 534 331 472T203 319T158 140Q158 57 205
5T348 -48Q400 -48 445 -26T511 32Q549 17 549 -11Q549 -52 486 -80T342 -109Q217 -109 154 -42T90 132Q90 210 123 291T214 439T354 547T530 590Q641 590 703 531T766 376Q766 300 727 227T634 112T535 69Q507 69 489 88T467 146Q405 54 336 54ZM468 204Q476 233
491 296T508 363Q479 391 446 391Q395 391 357 329T319 186Q319 115 361 115Q385 115 414 138T468 204Z" />
<glyph unicode="A" glyph-name="A" horiz-adv-x="528" d="M313 569Q302 545 278 488T228 376T178 268Q250 266 288 266Q344 266 371 268Q353 349 313 569ZM264 207Q242 207 150 209Q139 185 116 134T77 48T53 -13Q31 -12 11 -2T-10 28Q-10 37 10 79T72 202T139
336Q255 577 278 659Q314 663 323 663Q347 663 358 652T375 610Q378 597 390 525T415 394T440 280Q484 87 511 10Q483 -10 462 -10Q431 -10 425 17Q411 80 384 209Q284 207 264 207Z" />
<glyph unicode="B" glyph-name="B" horiz-adv-x="509" d="M265 612Q244 612 206 608Q193 476 182 383Q210 381 227 381Q401 381 401 515Q401 612 265 612ZM236 51Q297 51 340 95T384 211Q384 270 347 300T254 331Q199 331 174 326Q159 220 131 87Q145 73 176 62T236
51ZM51 56Q79 167 107 387Q131 572 131 660Q200 673 279 673Q369 673 426 640T483 530Q483 473 458 427T386 362Q466 320 466 227Q466 120 401 55T245 -10Q112 -10 51 56Z" />
<glyph unicode="C" glyph-name="C" horiz-adv-x="517" d="M427 134Q470 116 470 87Q470 49 414 20T282 -10Q173 -10 111 64T48 264Q48 445 140 559T378 673Q444 673 488 645T532 574Q532 549 516 534T473 514Q462 563 429 587T355 612Q257 612 194 514T131 287Q131
183 172 117T294 51Q376 51 427 134Z" />
<glyph unicode="D" glyph-name="D" horiz-adv-x="582" d="M51 53Q80 186 104 359T131 661Q185 673 273 673Q563 673 563 404Q563 296 526 204T413 51T235 -10Q111 -10 51 53ZM208 608Q185 332 134 87Q178 51 246 51Q309 51 357 83T430 167T467 273T479 382Q479
497 424 554T264 612Q246 612 208 608Z" />
<glyph unicode="E" glyph-name="E" horiz-adv-x="453" d="M454 580Q406 601 290 601Q256 601 205 598Q203 551 181 386Q318 386 351 390Q353 374 353 368Q353 327 308 324Q284 323 172 323Q145 112 145 61Q173 59 209 59Q263 59 318 66T392 82Q400 55 400 40Q400
11 369 4T248 -3Q122 -3 96 -1Q76 0 68 8T60 34Q60 62 93 306T127 631Q127 649 126 656Q224 665 319 665Q448 665 463 650Q468 644 468 631Q468 605 454 580Z" />
<glyph unicode="F" glyph-name="F" horiz-adv-x="434" d="M150 5Q132 -3 102 -3Q60 -3 60 39Q60 46 65 81T81 201T104 376Q128 559 128 631Q128 649 127 656Q225 665 325 665Q454 665 469 650Q474 644 474 631Q474 605 460 580Q412 601 296 601Q257 601 206 598Q204
551 182 386Q319 386 352 390Q354 374 354 368Q354 327 309 324Q285 323 174 323Q146 114 146 66Q146 32 150 5Z" />
<glyph unicode="G" glyph-name="G" horiz-adv-x="549" d="M428 301Q446 304 465 304Q509 304 509 273Q509 267 504 241T492 171T479 85Q471 44 415 17T282 -10Q173 -10 111 64T48 264Q48 445 140 559T378 673Q444 673 488 645T532 574Q532 549 516 534T473 514Q462
563 429 587T355 612Q257 612 194 514T131 287Q131 183 172 117T294 51Q360 51 408 91Q422 214 428 301Z" />
<glyph unicode="H" glyph-name="H" horiz-adv-x="599" d="M538 666Q582 666 582 633Q582 628 577 601T563 518T547 404L521 203Q509 115 509 66Q509 32 513 5Q495 -3 465 -3Q423 -3 423 39Q423 46 427 77T438 156T449 231L461 332Q415 330 319 330Q216 330 174
332L158 203Q146 115 146 66Q146 32 150 5Q132 -3 102 -3Q60 -3 60 39Q60 46 64 77T75 156T86 231L111 431Q130 581 134 663Q150 666 175 666Q219 666 219 633Q219 628 214 600T200 513T182 391Q225 389 328 389Q426 389 469 391Q493 582 497 663Q513 666 538 666Z"
/>
<glyph unicode="I" glyph-name="I" horiz-adv-x="236" d="M175 666Q219 666 219 633Q219 628 214 601T200 518T184 404L158 203Q146 115 146 66Q146 32 150 5Q132 -3 102 -3Q60 -3 60 39Q60 46 65 82T83 218T111 431Q130 581 134 663Q150 666 175 666Z" />
<glyph unicode="J" glyph-name="J" horiz-adv-x="310" d="M36 -119Q0 -119 0 -72Q0 -62 1 -56Q78 -49 103 -9T142 136L183 431Q202 568 208 663Q226 666 250 666Q293 666 293 635Q293 625 287 595T272 515T256 421L213 111Q205 56 187 13T149 -54T105 -93T65 -114T36
-119Z" />
<glyph unicode="K" glyph-name="K" horiz-adv-x="497" d="M175 666Q219 666 219 633Q219 628 214 601T200 518T184 404L180 375Q312 478 366 543T439 668Q497 660 497 628Q497 590 424 512T252 350Q276 294 324 205T399 83Q423 55 451 55Q470 55 481 58Q485 43
485 32Q485 -10 423 -10Q376 -10 336 47Q304 93 260 172T194 304Q189 299 179 293T168 285L158 203Q146 115 146 66Q146 32 150 5Q132 -3 102 -3Q60 -3 60 39Q60 46 65 82T83 218T111 431Q130 581 134 663Q150 666 175 666Z" />
<glyph unicode="L" glyph-name="L" horiz-adv-x="386" d="M113 450Q125 540 133 663Q148 666 173 666Q218 666 218 634Q218 628 213 595T198 506T183 404Q146 125 145 81Q145 72 145 62Q173 60 195 60Q249 60 304 67T378 83Q386 56 386 41Q386 12 355 5T234 -2Q122
-2 96 0Q76 1 68 9T60 35Q60 54 113 450Z" />
<glyph unicode="M" glyph-name="M" horiz-adv-x="760" d="M696 436L663 203Q649 111 649 59Q649 39 653 5Q635 -3 603 -3Q562 -3 562 35Q562 40 572 108T601 302T635 538Q515 334 382 2Q372 -2 352 -2Q316 -2 310 24Q296 76 263 256T197 541Q189 487 181 426T167
332T157 260T149 203T143 161T139 127T137 102T135 79T135 59Q135 39 139 5Q121 -3 97 -3Q60 -3 60 32Q60 40 88 231L124 483Q134 555 134 610Q134 636 131 659Q161 667 190 667Q231 667 250 619Q271 564 289 498T316 386T341 261T364 142Q483 426 609 619Q640
667 690 667Q724 667 743 659Q719 599 696 436Z" />
<glyph unicode="N" glyph-name="N" horiz-adv-x="580" d="M483 1Q468 -3 450 -3Q418 -3 406 24Q380 83 311 253T192 534Q185 482 173 392T154 251T142 143T136 59Q136 39 140 5Q122 -3 102 -3Q78 -3 69 6T60 35Q60 44 64 76T75 155T86 231Q93 286 102 355T115
459T123 533T127 604Q127 636 123 659Q142 667 170 667T218 638Q294 523 432 157L466 431Q483 562 489 663Q504 666 521 666Q563 666 563 632Q563 625 557 593T543 506T528 404Q522 355 510 263T492 112T483 1Z" />
<glyph unicode="O" glyph-name="O" horiz-adv-x="628" d="M284 -10Q173 -10 111 63T48 263Q48 438 137 556T370 674Q482 674 545 602T609 402Q609 230 519 110T284 -10ZM362 612Q256 612 194 518T131 288Q131 185 170 118T293 50Q367 50 421 98T500 220T525 381Q525
480 486 546T362 612Z" />
<glyph unicode="P" glyph-name="P" horiz-adv-x="497" d="M255 304Q328 304 366 357T405 494Q405 561 370 586T270 612Q235 612 206 608Q200 521 184 404L174 329Q210 304 255 304ZM86 231L111 431Q129 586 129 661Q196 673 268 673Q487 673 487 496Q487 379 420
311T267 243Q207 243 167 275L158 203Q146 113 146 63Q146 30 150 5Q132 -3 102 -3Q60 -3 60 39Q60 48 64 79T76 157T86 231Z" />
<glyph unicode="Q" glyph-name="Q" horiz-adv-x="629" d="M362 612Q256 612 194 518T131 288Q131 185 170 118T293 50Q367 50 421 98T500 220T525 381Q525 480 486 546T362 612ZM315 -8Q337 -62 393 -96T517 -131Q623 -131 664 -49Q707 -71 707 -103Q707 -148
661 -173T544 -198Q441 -198 361 -152T253 -8Q156 2 102 74T48 263Q48 438 137 556T370 674Q482 674 545 602T609 402Q609 240 529 123T315 -8Z" />
<glyph unicode="R" glyph-name="R" horiz-adv-x="516" d="M401 84Q422 55 458 55Q477 55 492 58Q496 47 496 36Q496 -10 430 -10Q368 -10 339 38Q315 78 283 152T234 278Q207 284 207 299Q207 311 218 328Q235 322 254 322Q325 322 365 368T405 495Q405 565 374
588T273 612Q233 612 206 608Q200 530 187 429L158 203Q146 113 146 62Q146 29 150 5Q132 -3 102 -3Q60 -3 60 39Q60 49 64 80T76 158T86 231L111 431Q129 577 129 661Q196 673 269 673Q313 673 349 665T418 639T469 586T487 503Q487 414 438 351T313 277Q329 226
355 168T401 84Z" />
<glyph unicode="S" glyph-name="S" horiz-adv-x="460" d="M402 531Q391 564 355 585T278 607Q228 607 193 574T158 479Q158 439 185 415T252 379T331 353T398 306T426 222Q426 112 363 51T194 -10Q127 -10 76 15T25 76Q25 114 77 137Q90 100 131 77T218 53Q273
53 313 90T354 194Q354 233 327 255T260 289T180 315T113 365T85 457Q85 558 149 614T310 671Q365 671 412 649T460 588Q460 542 402 531Z" />
<glyph unicode="T" glyph-name="T" horiz-adv-x="408" d="M46 598Q45 604 45 613Q45 638 55 648T90 660Q113 661 187 661H293Q434 661 466 664Q468 654 468 644Q468 623 458 614T423 603Q395 602 296 602Q274 468 266 404L240 203Q228 115 228 66Q228 32 232 5Q214
-3 184 -3Q142 -3 142 39Q142 51 154 136T183 357T212 602Q89 602 46 598Z" />
<glyph unicode="U" glyph-name="U" horiz-adv-x="596" d="M450 274Q490 579 494 663Q510 666 535 666Q579 666 579 633Q579 628 574 601T560 518T544 404L518 203Q506 115 506 66Q506 32 510 5Q492 -3 462 -3Q420 -3 420 39Q420 48 432 132Q389 64 332 27T219
-10Q152 -10 116 38T79 157Q79 182 104 371T134 663Q150 666 175 666Q219 666 219 633Q219 630 215 603T202 524T186 421Q156 200 156 164Q156 122 174 92T232 62Q287 62 352 122T450 274Z" />
<glyph unicode="V" glyph-name="V" horiz-adv-x="550" d="M113 521Q113 594 86 650Q122 674 149 674Q200 674 200 579Q200 528 177 392T154 191Q154 85 191 48Q259 57 324 142T427 339T465 547Q465 609 448 653Q481 674 508 674Q560 674 560 594Q560 539 544 463T494
304T417 151T313 36T188 -10Q164 -10 142 1Q80 67 80 191Q80 255 96 347T113 521Z" />
<glyph unicode="W" glyph-name="W" horiz-adv-x="877" d="M113 521Q113 594 86 650Q122 674 149 674Q200 674 200 579Q200 528 177 392T154 191Q154 85 191 48Q257 57 319 137T418 324T454 521Q454 580 437 621Q471 641 497 641Q549 641 549 565Q549 460 495 318Q491
252 491 217Q491 85 529 48Q595 57 657 142T756 339T792 547Q792 609 775 653Q808 674 835 674Q887 674 887 594Q887 539 871 463T822 304T747 151T646 36T525 -10Q502 -10 480 1Q425 58 419 159Q313 -10 187 -10Q164 -10 142 1Q80 67 80 191Q80 255 96 347T113
521Z" />
<glyph unicode="X" glyph-name="X" horiz-adv-x="515" d="M505 46Q474 -10 441 -10Q428 -10 414 -1T387 27T363 66T338 116T316 170T293 227T271 281Q214 224 151 134T69 -10Q6 5 6 37Q6 55 22 84T72 154T129 221T195 294T245 348Q187 486 160 532T81 618Q103
657 125 669Q134 674 145 674Q159 674 173 664T202 630T228 588T255 531T279 475T302 415Q359 482 406 557T464 674Q530 658 530 623Q530 573 330 348Q358 272 373 233T426 135T505 46Z" />
<glyph unicode="Y" glyph-name="Y" horiz-adv-x="461" d="M50 619Q54 623 63 634T76 648T87 657T100 665T113 667Q140 667 154 633Q196 551 261 369Q312 433 371 534T437 672Q511 672 511 631Q511 606 430 494T282 302L269 203Q257 115 257 66Q257 32 261 5Q243
-3 213 -3Q171 -3 171 39Q171 45 174 70T187 163T206 302Q112 567 50 619Z" />
<glyph unicode="Z" glyph-name="Z" horiz-adv-x="511" d="M141 667Q170 667 270 654T418 640Q463 640 486 653Q509 630 509 595Q509 554 489 531L210 206Q153 138 116 82Q124 83 141 83Q178 83 261 71T380 58Q438 58 469 74Q480 55 480 41Q480 -10 382 -10Q356
-10 274 2T146 15Q99 15 67 3Q40 38 40 61T58 119Q117 224 428 575Q388 575 302 587T170 600Q124 600 86 581Q74 610 74 619Q74 667 141 667Z" />
<glyph unicode="[" glyph-name="bracketleft" horiz-adv-x="381" d="M272 664L159 -134Q198 -132 240 -132Q280 -132 280 -159Q280 -172 272 -190H86L213 720H399Q401 710 401 704Q401 662 353 662Q308 662 272 664Z" />
<glyph unicode="\" glyph-name="backslash" horiz-adv-x="258" d="M129 113Q35 700 35 715Q35 742 71 742Q83 742 92 739Q100 653 122 507L171 194Q216 -87 216 -94Q216 -122 183 -122Q172 -122 159 -119Q151 -33 129 113Z" />
<glyph unicode="]" glyph-name="bracketright" horiz-adv-x="360" d="M107 -134L220 664Q182 662 139 662Q99 662 99 689Q99 702 107 720H293L166 -190H-19Q-20 -184 -20 -174Q-20 -132 28 -132Q70 -132 107 -134Z" />
<glyph unicode="^" glyph-name="asciicircum" horiz-adv-x="470" d="M236 582Q82 417 52 417Q41 417 25 433Q48 472 119 552T235 675Q279 632 350 552T445 433Q429 417 419 417Q413 417 402 423T377 442T348 467T316 498T287 529T258 559T236 582Z" />
<glyph unicode="_" glyph-name="underscore" horiz-adv-x="535" d="M535 -110Q535 -128 525 -140T499 -152Q484 -152 430 -148T348 -144H205Q91 -144 3 -152Q0 -137 0 -122Q0 -106 9 -93T36 -80Q39 -80 99 -83T203 -87H345Q472 -87 532 -80Q535 -89 535 -110Z" />
<glyph unicode="`" glyph-name="grave" horiz-adv-x="201" d="M-26 619Q-51 635 -51 655Q-51 682 -16 701Q-4 686 17 667T56 634T95 604T120 585Q139 571 139 557Q139 541 123 525Q110 536 54 569T-26 619Z" />
<glyph unicode="a" glyph-name="a" horiz-adv-x="476" d="M319 104Q290 49 248 20T161 -10Q102 -10 65 35T28 166Q28 292 92 383T251 474Q353 474 430 417Q384 193 384 99Q384 58 416 36Q402 -10 365 -10Q318 -10 318 71Q318 93 319 104ZM326 189Q339 279 355
379Q304 424 252 424Q189 424 148 357T106 183Q106 123 125 82T181 40Q214 40 256 81T326 189Z" />
<glyph unicode="b" glyph-name="b" horiz-adv-x="474" d="M43 46Q64 164 94 377T124 637Q124 686 103 691Q105 706 120 724T155 742Q199 742 199 676Q199 608 164 389Q190 429 228 451T304 474Q366 474 405 426T445 290Q445 170 381 80T211 -10Q124 -10 43 46ZM150
294Q150 290 118 84Q166 39 217 39Q279 39 323 101T367 271Q367 332 345 378T284 424Q254 424 216 388T150 294Z" />
<glyph unicode="c" glyph-name="c" horiz-adv-x="413" d="M355 354Q346 387 318 403T263 419Q197 419 158 353T118 195Q118 117 148 79T225 40Q290 40 330 102Q361 83 361 60Q361 30 319 10T222 -10Q134 -10 87 39T39 180Q39 319 113 396T280 474Q324 474 363
456T403 403Q403 362 355 354Z" />
<glyph unicode="d" glyph-name="d" horiz-adv-x="477" d="M365 426Q391 605 391 639Q391 686 371 691Q373 705 389 723T424 742Q467 742 467 679Q467 642 428 382T388 99Q388 58 420 36Q406 -10 369 -10Q319 -10 319 71Q319 94 320 104Q291 49 249 20T162 -10Q103
-10 66 35T29 166Q29 292 93 383T252 474Q308 474 365 426ZM329 189L357 378Q302 425 256 425Q190 425 149 358T107 183Q107 123 126 82T182 40Q215 40 258 81T329 189Z" />
<glyph unicode="e" glyph-name="e" horiz-adv-x="421" d="M320 102Q351 83 351 60Q351 30 309 10T212 -10Q124 -10 77 39T29 180Q29 318 103 396T267 474Q327 474 359 445T391 370Q391 321 371 285T324 231T258 201T194 188T141 185Q128 185 108 187Q112 112 141
76T215 40Q280 40 320 102ZM313 359Q313 387 297 406T250 425Q197 425 157 370T109 228Q137 228 156 229T208 238T261 258T297 297T313 359Z" />
<glyph unicode="f" glyph-name="f" horiz-adv-x="316" d="M368 598Q351 657 283 657Q235 657 209 601T178 464Q251 464 314 469Q317 458 317 449Q317 412 269 411Q246 410 172 410Q143 65 118 -34Q93 -131 47 -131Q32 -131 19 -119T0 -84Q24 -77 43 -29T74 101T92
251T104 409Q72 408 41 404Q39 418 39 422Q39 465 97 465H110Q117 577 164 645T305 714Q348 714 382 698T416 647Q416 606 368 598Z" />
<glyph unicode="g" glyph-name="g" horiz-adv-x="455" d="M181 40Q214 40 255 80T326 189Q339 279 355 379Q307 424 252 424Q185 424 146 353T106 183Q106 119 126 80T181 40ZM251 475Q354 475 430 418Q383 222 364 40Q348 -117 298 -185T126 -253Q75 -253 40
-237T5 -194Q5 -162 49 -141Q58 -169 83 -186T142 -203Q287 -203 305 80Q275 33 236 12T161 -10Q95 -10 62 41T28 166Q28 291 92 383T251 475Z" />
<glyph unicode="h" glyph-name="h" horiz-adv-x="465" d="M164 382Q194 425 235 449T314 474Q364 474 391 440T419 351Q419 332 400 228T381 99Q381 58 413 36Q399 -10 362 -10Q312 -10 312 81Q312 124 330 225T349 347Q349 382 336 402T298 423Q259 423 212 378T145
273Q124 112 124 60Q124 30 127 5Q109 -3 85 -3Q46 -3 46 31T87 337T128 639Q128 686 108 691Q110 705 126 723T161 742Q204 742 204 679Q204 618 164 382Z" />
<glyph unicode="i" glyph-name="i" horiz-adv-x="201" d="M132 521Q113 521 101 534T89 568Q89 593 106 610T145 628Q163 628 175 614T188 579Q188 555 170 538T132 521ZM120 474Q163 474 163 411Q163 374 137 248T111 99Q111 58 143 36Q129 -10 92 -10Q42 -10
42 81Q42 128 64 228T87 371Q87 418 67 423Q69 437 85 455T120 474Z" />
<glyph unicode="j" glyph-name="j" horiz-adv-x="218" d="M145 521Q126 521 114 534T102 568Q102 593 119 610T158 628Q176 628 188 614T201 579Q201 555 183 538T145 521ZM133 474Q176 474 176 411Q176 339 120 -9Q102 -124 55 -188T-90 -253Q-135 -253 -166
-237T-198 -194Q-198 -162 -154 -141Q-147 -169 -126 -186T-77 -203Q19 -203 47 -30Q100 293 100 371Q100 418 80 423Q82 437 98 455T133 474Z" />
<glyph unicode="k" glyph-name="k" horiz-adv-x="452" d="M158 371Q224 474 319 474Q374 474 403 446T433 373Q433 312 387 256T271 195Q308 108 326 84Q347 55 384 55Q397 55 412 58Q416 38 416 32Q416 -10 352 -10Q336 -10 321 -4T294 17T271 44T251 81T234
119T217 160T201 198Q178 206 178 219Q178 231 191 246Q220 233 246 233Q293 233 323 269T354 352Q354 383 340 403T296 424Q262 424 214 380T145 273Q124 112 124 60Q124 30 127 5Q109 -3 85 -3Q46 -3 46 31Q46 43 53 94T71 221T88 335Q123 586 123 639Q123 686
103 691Q105 705 121 723T156 742Q199 742 199 679Q199 655 191 591T171 457T158 371Z" />
<glyph unicode="l" glyph-name="l" horiz-adv-x="204" d="M151 742Q194 742 194 679Q194 642 155 382T115 99Q115 58 147 36Q133 -10 96 -10Q46 -10 46 81Q46 128 82 363T118 639Q118 686 98 691Q100 705 116 723T151 742Z" />
<glyph unicode="m" glyph-name="m" horiz-adv-x="705" d="M395 273Q374 112 374 60Q374 30 377 5Q359 -3 335 -3Q296 -3 296 31Q296 48 317 188T338 348Q338 385 324 404T289 423Q252 423 208 378T145 273Q124 112 124 60Q124 30 127 5Q109 -3 85 -3Q46 -3 46
31Q46 48 68 195T90 369Q90 417 69 423Q71 437 87 455T122 474Q163 474 163 412Q163 394 160 376Q189 423 229 448T307 474Q351 474 376 444T406 366Q433 416 476 445T559 474Q606 474 632 440T659 351Q659 332 641 228T623 99Q623 57 653 36Q639 -10 602 -10Q552
-10 552 81Q552 124 570 225T589 347Q589 382 576 402T541 423Q504 423 459 378T395 273Z" />
<glyph unicode="n" glyph-name="n" horiz-adv-x="465" d="M145 273Q124 112 124 60Q124 30 127 5Q109 -3 85 -3Q46 -3 46 31Q46 45 68 194T90 368Q90 414 69 423Q71 437 87 455T122 474Q163 474 163 412Q163 394 160 376Q190 423 232 448T314 474Q364 474 391
440T419 351Q419 332 400 228T381 99Q381 58 413 36Q399 -10 362 -10Q312 -10 312 81Q312 124 330 225T349 347Q349 382 336 402T298 423Q259 423 212 378T145 273Z" />
<glyph unicode="o" glyph-name="o" horiz-adv-x="475" d="M203 -10Q121 -10 75 41T29 181Q29 304 96 389T268 474Q351 474 398 423T446 281Q446 159 377 75T203 -10ZM262 424Q190 424 149 355T107 194Q107 127 134 84T213 40Q285 40 326 108T367 266Q367 335 340
379T262 424Z" />
<glyph unicode="p" glyph-name="p" horiz-adv-x="475" d="M151 294Q147 266 141 232T128 153T116 84Q162 39 214 39Q277 39 322 104T368 281Q368 346 347 385T288 424Q258 424 219 388T151 294ZM123 475Q166 475 166 412Q166 407 164 383Q223 474 308 474Q369
474 407 431T446 298Q446 165 377 78T219 -10Q158 -10 108 34Q82 -115 82 -147T109 -211Q83 -253 55 -253Q29 -253 21 -233T13 -175Q13 -116 51 106T90 370Q90 419 70 424Q72 438 88 456T123 475Z" />
<glyph unicode="q" glyph-name="q" horiz-adv-x="456" d="M327 189Q340 279 356 379Q305 424 253 424Q190 424 149 357T107 183Q107 123 126 82T182 40Q215 40 257 81T327 189ZM431 417Q411 340 374 116T337 -145Q337 -186 369 -208Q355 -254 318 -254Q268 -254
268 -163Q268 -118 306 80Q247 -10 162 -10Q103 -10 66 35T29 166Q29 292 93 383T252 474Q354 474 431 417Z" />
<glyph unicode="r" glyph-name="r" horiz-adv-x="332" d="M142 256Q123 111 123 60Q123 30 126 5Q108 -3 84 -3Q45 -3 45 31Q45 47 81 289Q90 356 90 371Q90 418 70 423Q72 437 88 455T123 474Q164 474 164 412Q164 392 158 356Q174 394 218 434T302 474Q343 474
343 437Q343 406 317 383Q299 402 275 402Q245 402 215 373T169 314T142 256Z" />
<glyph unicode="s" glyph-name="s" horiz-adv-x="368" d="M296 354Q290 383 261 401T196 419Q160 419 133 398T106 339Q106 310 128 294T183 270T248 252T302 214T325 140Q325 66 273 28T140 -10Q86 -10 46 11T5 63Q5 100 52 112Q58 80 90 63T167 46Q214 46 241
67T268 120Q268 150 246 168T191 195T126 216T71 253T48 322Q48 398 100 436T226 475Q268 475 305 457T343 404Q343 366 296 354Z" />
<glyph unicode="t" glyph-name="t" horiz-adv-x="314" d="M76 465H109Q110 479 116 521T123 576Q141 580 155 580Q194 580 194 549Q194 543 191 527T185 491T180 464Q270 464 338 469Q341 458 341 449Q341 412 293 411Q261 410 171 410Q134 157 134 120Q134 74
149 59T199 43Q234 43 271 73Q287 57 287 39Q287 15 259 3T193 -10Q68 -10 68 125Q68 147 74 193T90 307T104 410Q86 410 20 404Q18 418 18 422Q18 465 76 465Z" />
<glyph unicode="u" glyph-name="u" horiz-adv-x="473" d="M318 104Q293 56 251 23T158 -10T81 24T53 113Q53 132 72 236T91 365Q91 415 70 423Q74 440 89 457T123 474Q148 474 155 455T163 394Q163 351 143 250T123 117Q123 82 136 62T174 41Q213 41 260 86T327
191Q357 390 361 464Q379 469 394 469Q433 469 433 437Q433 427 408 277T383 93Q383 56 415 36Q410 19 398 5T365 -10Q317 -10 317 70Q317 93 318 104Z" />
<glyph unicode="v" glyph-name="v" horiz-adv-x="402" d="M71 366Q71 417 52 457Q84 474 106 474Q150 474 150 407Q150 371 134 274T118 132Q118 68 137 40Q177 44 214 81T276 169T314 273T329 366Q329 428 314 459Q340 474 363 474Q402 474 402 409Q402 362 382
293T327 156T238 39T127 -10Q107 -10 91 -2Q51 41 51 132Q51 177 61 242T71 366Z" />
<glyph unicode="w" glyph-name="w" horiz-adv-x="627" d="M71 366Q71 417 52 457Q84 474 106 474Q150 474 150 407Q150 371 134 274T118 132Q118 69 136 40Q186 44 229 101T295 227T317 346Q317 403 302 433Q328 448 351 448Q390 448 390 386Q390 330 360 245Q360
235 358 197T355 138Q355 71 373 40Q423 45 466 106T532 239T554 366Q554 428 539 459Q564 474 588 474Q627 474 627 409Q627 362 607 293T554 156T469 39T361 -10Q342 -10 327 -2Q294 34 289 101Q213 -10 124 -10Q105 -10 90 -2Q51 41 51 132Q51 177 61 242T71
366Z" />
<glyph unicode="x" glyph-name="x" horiz-adv-x="398" d="M48 400Q44 414 44 424Q44 445 56 459T87 474Q152 474 220 287Q306 398 315 473Q319 474 328 474Q348 474 359 464T371 438Q371 391 240 241Q247 225 258 197T275 154T291 119T311 89T333 72T363 64Q367
50 367 40Q367 19 355 5T324 -10Q303 -10 282 10T241 68T212 127T187 185Q72 59 63 -6Q59 -7 52 -7Q33 -7 22 3T11 31Q11 81 168 231Q164 241 157 261T145 290T134 316T123 340T111 359T98 377T84 389T67 397T48 400Z" />
<glyph unicode="y" glyph-name="y" horiz-adv-x="411" d="M204 72Q321 265 321 395Q321 423 307 459Q333 474 354 474Q396 474 396 408Q396 333 345 217T222 -7Q142 -126 81 -178T-71 -230Q-116 -230 -148 -214T-180 -171Q-180 -139 -136 -118Q-128 -146 -104
-163T-48 -180Q-18 -180 11 -166T66 -123T110 -71T152 -10Q146 73 104 233T13 435Q41 474 71 474Q104 474 121 426Q157 325 204 72Z" />
<glyph unicode="z" glyph-name="z" horiz-adv-x="391" d="M103 474Q125 474 200 465T312 455Q351 455 369 464Q386 448 386 422Q386 395 369 377Q179 175 96 67Q102 68 113 68Q139 68 194 59T274 50Q314 50 338 62Q346 49 346 31Q346 -10 273 -10Q253 -10 192
-1T97 8Q57 8 30 -1Q11 25 11 41Q11 59 24 82Q69 158 295 401Q267 401 211 407T124 414Q92 414 64 400Q56 419 56 435Q56 474 103 474Z" />
<glyph unicode="{" glyph-name="braceleft" horiz-adv-x="417" d="M181 286Q202 278 218 251T235 193Q235 179 220 72T204 -48Q204 -67 218 -75T274 -83Q319 -83 319 -110Q319 -125 310 -141Q297 -142 274 -142Q198 -142 168 -122T138 -59Q138 -39 153 71T169
186Q169 215 144 238T66 261L73 311Q129 311 161 338T199 395Q199 394 205 441T220 542T229 604Q237 662 272 688T395 715Q418 715 431 714Q432 711 432 705Q432 656 384 656Q330 656 314 644T293 592L264 393Q260 361 234 328T181 286Z" />
<glyph unicode="|" glyph-name="bar" horiz-adv-x="574" d="M257 136V444Q257 680 249 733Q265 736 279 736Q325 736 325 698Q325 694 324 645T320 514T318 351V43Q318 -193 326 -246Q310 -249 296 -249Q250 -249 250 -211Q250 -207 252 -158T255 -27T257 136Z" />
<glyph unicode="}" glyph-name="braceright" horiz-adv-x="417" d="M234 286Q213 294 197 323T180 381Q180 385 195 496T211 621Q211 640 197 648T141 656Q97 656 97 683Q97 698 106 714Q119 715 142 715Q218 715 248 695T278 632Q278 616 263 505T247 387Q247
358 272 335T350 311L343 261Q287 261 255 235T217 178Q217 179 210 132T196 32T187 -31Q179 -89 144 -115T21 -142Q-1 -142 -14 -141Q-15 -138 -15 -131Q-15 -104 -3 -94T37 -83Q89 -83 103 -71T122 -19L151 180Q156 211 182 244T234 286Z" />
<glyph unicode="~" glyph-name="asciitilde" horiz-adv-x="546" d="M40 267Q40 329 138 329Q189 329 268 309T385 289Q451 289 487 324Q506 299 506 275Q506 243 470 228T385 213Q354 213 278 233T161 253Q95 253 59 218Q40 243 40 267Z" />
<glyph unicode="&#xa1;" glyph-name="exclamdown" horiz-adv-x="296" d="M186 475Q207 475 221 461T236 422Q236 393 216 371T170 348Q149 348 135 363T121 402Q121 432 140 453T186 475ZM60 -181Q60 -165 68 -125T89 -22T110 98Q123 203 123 222Q123 247 119
266Q141 276 158 276Q193 276 193 239Q193 232 173 57T153 -185Q153 -204 154 -211Q122 -219 101 -219Q60 -219 60 -181Z" />
<glyph unicode="&#xa2;" glyph-name="cent" horiz-adv-x="574" d="M156 288Q156 224 186 185T265 132L320 518Q251 500 204 440T156 288ZM356 684Q380 684 380 664Q380 662 379 652T374 619T368 581H376Q404 581 436 574T496 549T523 506Q523 488 510 475T474
456Q434 525 370 525H360L304 126H314Q378 126 437 195Q474 187 474 156Q474 128 441 107T371 78T304 70H297Q292 29 290 -14L274 -16Q248 -16 248 9Q248 18 257 73Q181 85 133 135T85 276Q85 403 155 481T328 577Q338 659 338 681Q350 684 356 684Z" />
<glyph unicode="&#xa3;" glyph-name="sterling" horiz-adv-x="574" d="M447 392Q449 378 449 372Q449 350 435 341T387 332Q369 332 317 334V328Q317 254 283 199T147 69Q164 68 219 57T319 46Q354 46 382 68T411 122H417Q470 122 470 77Q470 37 429 17T337 -3Q283
-3 218 11T117 25Q110 25 104 23Q86 -3 61 -3Q50 -3 43 4T35 22Q35 38 52 52T106 73Q178 147 208 195T238 300Q238 320 234 336H214Q178 336 112 332Q111 338 111 347Q115 370 149 373Q161 373 188 374T221 376Q218 386 211 406T199 439T192 468T188 499Q188 562
241 618T369 675Q397 675 419 661T442 621Q442 586 399 568Q381 608 334 608Q303 608 281 587T258 529Q258 503 281 450T309 380Q389 384 447 392Z" />
<glyph unicode="&#xa5;" glyph-name="yen" horiz-adv-x="574" d="M222 196H213Q115 196 61 191Q60 195 60 201Q60 235 89 235H227L237 306H227Q128 306 76 301Q75 305 75 313Q75 345 104 345H224Q220 356 175 463Q129 577 75 628Q104 668 134 668Q153 668 171
632Q242 490 289 363Q342 426 406 530T477 671Q480 672 491 672Q529 672 529 642Q529 615 468 523T336 345Q422 345 473 350V343Q473 306 443 306H300L290 235H305Q404 235 458 240V232Q458 196 429 196H286Q273 94 273 58Q273 31 277 5Q259 -3 241 -3Q200 -3 200
33Q200 40 202 59T211 119T222 196Z" />
<glyph unicode="&#xa6;" glyph-name="brokenbar" horiz-adv-x="574" d="M257 534V564Q257 681 249 734Q265 737 279 737Q325 737 325 699Q325 694 322 627T318 528V489Q318 369 326 297Q310 294 296 294Q250 294 250 332Q250 337 253 419T257 534ZM257 -9V22Q257
139 249 192Q265 195 279 195Q325 195 325 157Q325 152 322 86T318 -14V-54Q318 -174 326 -246Q310 -249 296 -249Q250 -249 250 -211Q250 -206 253 -124T257 -9Z" />
<glyph unicode="&#xa7;" glyph-name="section" horiz-adv-x="415" d="M132 339Q132 304 161 281T236 235T304 188Q326 217 326 257Q326 293 297 315T222 359T154 406Q132 378 132 339ZM72 311Q72 387 132 440Q119 469 119 507Q119 583 170 627T296 672Q338 672
376 653T415 600Q415 564 367 551Q361 580 331 598T266 616Q228 616 203 594T177 530Q177 496 198 472T251 432T312 399T364 354T386 284Q386 207 327 155Q340 129 340 96Q340 12 286 -33T157 -78Q102 -78 62 -57T21 -3Q21 31 69 44Q81 -21 185 -21Q226 -21 253
2T281 72Q281 105 260 128T207 167T146 199T94 243T72 311Z" />
<glyph unicode="&#xa8;" glyph-name="dieresis" horiz-adv-x="257" d="M82 521Q63 521 51 534T39 568Q39 593 56 610T95 628Q113 628 125 614T138 579Q138 555 120 538T82 521ZM249 521Q230 521 218 534T206 568Q206 593 223 610T262 628Q280 628 292 614T305
579Q305 555 287 538T249 521Z" />
<glyph unicode="&#xa9;" glyph-name="copyright" horiz-adv-x="888" d="M617 157Q617 133 580 116T493 98Q455 98 420 109T353 145T302 214T283 318Q283 431 345 489T487 548Q514 548 542 540T594 513T618 467Q618 433 575 427Q566 458 539 473T480 489Q432 489
400 445T367 330Q367 240 407 199T502 157Q561 157 588 195Q617 179 617 157ZM750 320Q750 452 671 534T477 617Q361 617 282 535T202 320T281 105T477 23Q591 23 670 105T750 320ZM822 320Q822 170 722 68T477 -34Q330 -34 230 67T130 320Q130 472 230 573T477
674Q622 674 722 573T822 320Z" />
<glyph unicode="&#xaa;" glyph-name="ordfeminine" horiz-adv-x="309" d="M140 301Q209 301 242 308Q243 304 243 297Q243 280 232 268T204 256Q196 256 167 260T122 264Q61 264 13 256Q12 260 12 267Q12 308 51 308Q53 308 84 305T140 301ZM103 573Q76 580 76
595Q76 617 107 630T175 643Q218 643 239 629T260 577Q260 560 251 499T242 413Q242 402 244 384Q236 380 220 380Q196 380 196 404Q160 376 123 376Q48 376 48 438Q48 499 107 516Q150 528 212 530Q215 550 215 563Q215 588 203 598T162 609Q122 609 103 573ZM208
503Q201 502 188 501T168 498T150 495T134 492T122 487T111 480T103 472T98 461T96 446Q96 409 135 409Q169 409 196 434L200 459Q206 496 208 503Z" />
<glyph unicode="&#xab;" glyph-name="guillemotleft" horiz-adv-x="472" d="M328 235Q356 192 383 141T411 74Q411 59 387 44Q324 103 249 235Q366 371 440 426Q457 413 457 403Q457 375 328 235ZM139 235Q167 192 194 141T222 74Q222 59 198 44Q135 103 60 235Q177
371 251 426Q268 413 268 403Q268 375 139 235Z" />
<glyph unicode="&#xac;" glyph-name="logicalnot" horiz-adv-x="574" d="M473 324L475 102Q475 74 466 63T431 51Q413 51 397 59Q414 115 414 236V272H183Q127 272 83 257Q76 274 76 287Q76 324 118 324H473Z" />
<glyph unicode="&#xae;" glyph-name="registered" horiz-adv-x="607" d="M498 358T498 440T449 572T329 623Q257 623 208 573T159 440T208 308T329 257Q400 257 449 307ZM557 539T557 440T491 274T329 207Q232 207 166 274T100 440Q100 540 166 606T329 673Q424
673 490 606ZM410 360Q418 352 432 352Q434 348 434 341Q434 323 410 323Q383 323 366 348Q363 353 343 380T315 420Q303 420 293 423V397Q293 353 301 330Q292 325 271 325Q240 325 240 348Q240 351 241 374T242 408V477Q242 529 238 558Q300 563 319 563Q427
563 427 491Q427 437 363 424Q383 390 410 360ZM320 445Q344 445 360 456T377 491Q377 531 315 531Q308 531 292 529Q293 519 293 449Q313 445 320 445Z" />
<glyph unicode="&#xaf;" glyph-name="overscore" horiz-adv-x="350" d="M226 609H247Q309 609 357 615Q357 551 322 551Q319 551 303 552T263 555T216 557H195Q139 557 97 551Q97 615 131 615Q134 615 171 612T226 609Z" />
<glyph unicode="&#xb0;" glyph-name="degree" horiz-adv-x="356" d="M217 655Q171 655 142 616T112 525Q112 488 130 466T184 443Q229 443 258 482T287 573Q287 610 269 632T217 655ZM226 711Q283 711 318 674T353 579Q353 499 301 443T176 387Q117 387 82 424T47
520Q47 598 99 654T226 711Z" />
<glyph unicode="&#xb1;" glyph-name="plusminus" horiz-adv-x="574" d="M476 48Q476 30 466 18T440 6T369 10T284 14Q170 14 82 6Q79 21 79 36Q79 52 88 65T115 78Q118 78 178 75T282 71Q412 71 473 78Q476 69 476 48ZM316 320Q424 320 493 328Q496 319 496 298Q496
280 486 268T460 256Q443 256 392 259T315 263Q315 204 323 116Q308 113 293 113Q276 113 264 122T251 149Q251 155 254 187T258 264Q171 263 82 256Q79 271 79 286Q79 302 88 315T115 328Q122 328 169 325T259 321Q259 409 251 478Q260 481 281 481Q299 481 311
471T323 445Q323 428 320 387T316 320Z" />
<glyph unicode="&#xb2;" glyph-name="twosuperior" horiz-adv-x="399" d="M127 549Q99 552 99 573Q99 605 147 639T250 673Q303 673 333 645T364 570Q364 504 295 423T107 275Q134 274 189 274Q292 274 346 298Q354 284 354 266Q354 241 328 232Q296 220 199 220Q126
220 79 222Q45 222 45 254Q45 272 48 279Q162 345 230 421T298 557Q298 586 280 604T231 622Q207 622 178 602T127 549Z" />
<glyph unicode="&#xb3;" glyph-name="threesuperior" horiz-adv-x="373" d="M154 471Q182 472 201 475T243 488T278 519T290 572Q290 622 227 622Q177 622 130 569Q102 575 102 597Q102 628 149 650T238 673Q297 673 326 649T356 584Q356 488 260 458Q335 432
335 358Q335 293 282 251T153 208Q110 208 78 223T45 264Q45 288 77 300Q109 259 165 259Q211 259 241 286T271 360Q271 434 171 434Q151 434 151 455Q151 462 154 471Z" />
<glyph unicode="&#xb4;" glyph-name="acute" horiz-adv-x="201" d="M172 604Q150 592 89 564T13 525Q0 538 0 554Q0 574 21 584Q126 644 171 688Q201 666 201 643Q201 621 172 604Z" />
<glyph unicode="&#xb5;" glyph-name="mu" horiz-adv-x="473" d="M312 88Q289 51 246 21T164 -10Q124 -10 100 26Q76 -56 76 -120Q76 -192 110 -208Q96 -254 59 -254Q9 -254 9 -163Q9 -117 48 104T87 370Q87 419 67 424Q69 438 85 456T120 475Q163 475 163 414Q163
398 143 272T123 117Q123 82 136 62T174 41Q213 41 260 86T327 191Q357 390 361 464Q379 469 394 469Q433 469 433 437Q433 431 431 418T424 379T416 331Q383 127 383 93Q383 46 403 41Q401 27 385 9T350 -10Q309 -10 309 52Q309 70 312 88Z" />
<glyph unicode="&#xb6;" glyph-name="paragraph" horiz-adv-x="472" d="M243 235Q241 218 196 218Q138 218 99 257T60 362Q60 455 121 515T268 575Q274 575 329 573T413 571Q469 571 500 572Q502 558 502 554Q502 514 439 514H417Q368 282 349 115Q322 -119 185
-119Q158 -119 141 -107T123 -75Q123 -60 132 -42Q160 -54 185 -54Q212 -54 231 -41T259 -9T275 40T283 93T287 148T292 196Q318 380 347 514Q301 514 292 516Q271 433 243 235Z" />
<glyph unicode="&#xb7;" glyph-name="middot" horiz-adv-x="175" d="M85 197Q64 197 50 211T35 250Q35 279 55 301T101 324Q122 324 136 309T150 270Q150 240 131 219T85 197Z" />
<glyph unicode="&#xb8;" glyph-name="cedilla" horiz-adv-x="350" d="M142 32L179 27Q178 24 170 9T158 -17T153 -33Q153 -44 175 -60Q213 -83 213 -122Q213 -164 175 -198T82 -232Q51 -232 51 -209Q51 -195 70 -178Q83 -187 97 -187Q122 -187 140 -175T159 -142Q159
-122 131 -99T102 -59Q102 -29 142 32Z" />
<glyph unicode="&#xb9;" glyph-name="onesuperior" horiz-adv-x="344" d="M206 277V268Q242 268 278 272Q279 268 279 259Q279 219 242 219Q236 219 199 220T125 221Q78 221 52 220Q50 232 50 236Q50 272 102 272H141Q166 446 168 462Q180 549 186 617Q136 612
98 598Q95 607 95 615Q95 650 133 659Q195 673 226 673T257 646Q257 642 251 612T237 531T222 437Q206 314 206 277Z" />
<glyph unicode="&#xba;" glyph-name="ordmasculine" horiz-adv-x="343" d="M148 301Q217 301 250 308Q251 304 251 297Q251 280 240 268T212 256Q204 256 175 260T130 264Q69 264 21 256Q20 260 20 267Q20 308 59 308Q61 308 92 305T148 301ZM147 376Q99 376 71
405T43 484Q43 549 80 596T182 643Q231 643 259 614T287 533Q287 469 249 423T147 376ZM151 411Q192 411 217 442T242 523Q242 561 226 584T178 608Q137 608 113 576T89 495Q89 457 105 434T151 411Z" />
<glyph unicode="&#xbb;" glyph-name="guillemotright" horiz-adv-x="473" d="M334 235Q306 276 278 327T250 396Q250 408 274 426Q333 370 413 235Q290 95 221 44Q204 57 204 67Q204 97 334 235ZM145 235Q117 276 89 327T61 396Q61 408 85 426Q144 370 224 235Q101
95 32 44Q15 57 15 67Q15 97 145 235Z" />
<glyph unicode="&#xbc;" glyph-name="onequarter" horiz-adv-x="838" d="M512 185Q543 183 652 183Q659 236 667 293T678 372Q667 361 640 335T600 294T562 251T512 185ZM684 441Q696 452 729 452Q735 452 751 450Q751 448 745 414T728 318T709 188Q754 191 774
200Q778 186 778 175Q778 162 774 154T764 141T747 134T727 131T701 130Q695 80 695 50Q695 19 699 -2Q683 -10 668 -10Q630 -10 630 25Q630 43 636 77T644 129H607Q523 129 469 136Q455 137 455 160Q455 177 460 195Q500 253 569 328T684 441ZM206 277V268Q242
268 278 272Q279 268 279 259Q279 219 242 219Q236 219 199 220T125 221Q78 221 52 220Q50 232 50 236Q50 272 102 272H141Q166 446 168 462Q180 549 186 617Q136 612 98 598Q95 607 95 615Q95 650 133 659Q195 673 226 673T257 646Q257 642 251 612T237 531T222
437Q206 314 206 277ZM158 -57L510 528Q590 661 631 740Q648 740 662 733T676 713Q676 701 668 690L316 105Q231 -36 195 -107Q150 -105 150 -78Q150 -70 158 -57Z" />
<glyph unicode="&#xbd;" glyph-name="onehalf" horiz-adv-x="892" d="M570 328Q542 331 542 352Q542 384 590 418T693 452Q746 452 776 424T807 349Q807 283 738 202T550 54Q577 53 632 53Q735 53 789 77Q797 63 797 45Q797 20 771 11Q739 -1 642 -1Q569 -1 522
1Q488 1 488 33Q488 51 491 58Q605 124 673 200T741 336Q741 365 723 383T674 401Q650 401 621 381T570 328ZM206 277V268Q242 268 278 272Q279 268 279 259Q279 219 242 219Q236 219 199 220T125 221Q78 221 52 220Q50 232 50 236Q50 272 102 272H141Q166 446
168 462Q180 549 186 617Q136 612 98 598Q95 607 95 615Q95 650 133 659Q195 673 226 673T257 646Q257 642 251 612T237 531T222 437Q206 314 206 277ZM158 -57L510 528Q590 661 631 740Q648 740 662 733T676 713Q676 701 668 690L316 105Q231 -36 195 -107Q150
-105 150 -78Q150 -70 158 -57Z" />
<glyph unicode="&#xbe;" glyph-name="threequarters" horiz-adv-x="852" d="M182 -57L534 528Q614 661 655 740Q672 740 686 733T700 713Q700 701 692 690L340 105Q255 -36 219 -107Q174 -105 174 -78Q174 -70 182 -57ZM151 433V471H156Q291 471 291 569Q291 622
227 622Q179 622 130 569Q102 575 102 597Q102 628 149 650T241 673Q358 673 358 585Q358 489 261 458Q335 433 335 362Q335 301 287 255T155 208Q110 208 78 223T45 264T77 300Q107 259 165 259Q212 259 241 287T270 362Q270 434 177 434Q160 434 151 433ZM526
185Q557 183 666 183Q673 236 681 293T692 372Q681 361 654 335T614 294T576 251T526 185ZM698 441Q710 452 743 452Q749 452 765 450Q765 448 759 414T742 318T723 188Q768 191 788 200Q792 186 792 175Q792 162 788 154T778 141T761 134T741 131T715 130Q709
80 709 50Q709 19 713 -2Q697 -10 682 -10Q644 -10 644 25Q644 43 650 77T658 129H621Q537 129 483 136Q469 137 469 160Q469 177 474 195Q514 253 583 328T698 441Z" />
<glyph unicode="&#xbf;" glyph-name="questiondown" horiz-adv-x="362" d="M221 348Q200 348 186 362T171 401Q171 430 191 452T237 475Q258 475 272 460T286 421Q286 391 267 370T221 348ZM184 266Q207 276 224 276Q261 276 261 227Q261 193 245 161T210 107T160
55T115 4Q73 -51 73 -101Q73 -132 92 -147T142 -163Q180 -163 215 -142T262 -88Q302 -95 302 -125Q302 -166 256 -192T149 -219Q87 -219 44 -188T0 -95Q0 -24 59 40Q72 54 101 80T145 122T174 167T188 228Q188 247 184 266Z" />
<glyph unicode="&#xc0;" glyph-name="Agrave" horiz-adv-x="528" d="M192 810Q167 826 167 846Q167 873 202 892Q214 877 235 858T274 825T313 795T338 776Q357 762 357 748Q357 732 341 716Q328 727 272 760T192 810ZM313 569Q302 545 278 488T228 376T178 268Q250
266 288 266Q344 266 371 268Q353 349 313 569ZM264 207Q242 207 150 209Q139 185 116 134T77 48T53 -13Q31 -12 11 -2T-10 28Q-10 37 10 79T72 202T139 336Q255 577 278 659Q314 663 323 663Q347 663 358 652T375 610Q378 597 390 525T415 394T440 280Q484 87
511 10Q483 -10 462 -10Q431 -10 425 17Q411 80 384 209Q284 207 264 207Z" />
<glyph unicode="&#xc1;" glyph-name="Aacute" horiz-adv-x="528" d="M404 795Q382 783 321 755T245 716Q232 729 232 745Q232 765 253 775Q358 835 403 879Q433 857 433 834Q433 812 404 795ZM313 569Q302 545 278 488T228 376T178 268Q250 266 288 266Q344 266
371 268Q353 349 313 569ZM264 207Q242 207 150 209Q139 185 116 134T77 48T53 -13Q31 -12 11 -2T-10 28Q-10 37 10 79T72 202T139 336Q255 577 278 659Q314 663 323 663Q347 663 358 652T375 610Q378 597 390 525T415 394T440 280Q484 87 511 10Q483 -10 462 -10Q431
-10 425 17Q411 80 384 209Q284 207 264 207Z" />
<glyph unicode="&#xc2;" glyph-name="Acircumflex" horiz-adv-x="528" d="M339 870Q445 790 445 743Q445 721 418 710Q404 734 381 756T342 788L327 799Q224 718 209 718Q197 718 187 736Q255 811 339 870ZM313 569Q302 545 278 488T228 376T178 268Q250 266 288
266Q344 266 371 268Q353 349 313 569ZM264 207Q242 207 150 209Q139 185 116 134T77 48T53 -13Q31 -12 11 -2T-10 28Q-10 37 10 79T72 202T139 336Q255 577 278 659Q314 663 323 663Q347 663 358 652T375 610Q378 597 390 525T415 394T440 280Q484 87 511 10Q483
-10 462 -10Q431 -10 425 17Q411 80 384 209Q284 207 264 207Z" />
<glyph unicode="&#xc3;" glyph-name="Atilde" horiz-adv-x="528" d="M313 569Q302 545 278 488T228 376T178 268Q250 266 288 266Q344 266 371 268Q353 349 313 569ZM264 207Q242 207 150 209Q139 185 116 134T77 48T53 -13Q31 -12 11 -2T-10 28Q-10 37 10 79T72
202T139 336Q255 577 278 659Q314 663 323 663Q347 663 358 652T375 610Q378 597 390 525T415 394T440 280Q484 87 511 10Q483 -10 462 -10Q431 -10 425 17Q411 80 384 209Q284 207 264 207ZM393 780Q404 780 423 793T458 822Q471 817 471 805Q471 777 435 749T363
721Q342 721 308 743T256 766Q237 766 191 724Q178 730 178 741Q178 769 214 797T287 825Q305 825 340 803T393 780Z" />
<glyph unicode="&#xc4;" glyph-name="Adieresis" horiz-adv-x="528" d="M313 569Q302 545 278 488T228 376T178 268Q250 266 288 266Q344 266 371 268Q353 349 313 569ZM264 207Q242 207 150 209Q139 185 116 134T77 48T53 -13Q31 -12 11 -2T-10 28Q-10 37 10
79T72 202T139 336Q255 577 278 659Q314 663 323 663Q347 663 358 652T375 610Q378 597 390 525T415 394T440 280Q484 87 511 10Q483 -10 462 -10Q431 -10 425 17Q411 80 384 209Q284 207 264 207ZM235 712Q216 712 204 725T192 759Q192 784 209 801T248 819Q266
819 278 805T291 770Q291 746 273 729T235 712ZM402 712Q383 712 371 725T359 759Q359 784 376 801T415 819Q433 819 445 805T458 770Q458 746 440 729T402 712Z" />
<glyph unicode="&#xc5;" glyph-name="Aring" horiz-adv-x="528" d="M319 711Q284 711 264 731T244 786Q244 830 272 859T342 889Q376 889 396 869T416 814Q416 770 388 741T319 711ZM338 856Q313 856 300 838T286 790Q286 769 295 757T323 744Q347 744 360 762T373
809Q373 830 364 843T338 856ZM313 569Q302 545 278 488T228 376T178 268Q250 266 288 266Q344 266 371 268Q353 349 313 569ZM264 207Q242 207 150 209Q139 185 116 134T77 48T53 -13Q31 -12 11 -2T-10 28Q-10 37 10 79T72 202T139 336Q255 577 278 659Q314 663
323 663Q347 663 358 652T375 610Q378 597 390 525T415 394T440 280Q484 87 511 10Q483 -10 462 -10Q431 -10 425 17Q411 80 384 209Q284 207 264 207Z" />
<glyph unicode="&#xc6;" glyph-name="AE" horiz-adv-x="716" d="M299 266H346Q374 470 382 565Q368 543 303 439T192 268Q260 266 299 266ZM717 580Q669 601 553 601Q514 601 463 598Q461 551 439 386Q576 386 609 390Q611 374 611 368Q611 327 566 324Q542 323
430 323Q403 112 403 61Q431 59 453 59Q507 59 562 66T636 82Q644 55 644 40Q644 11 613 4T492 -3Q380 -3 354 -1Q334 0 326 8T318 34Q318 68 337 208Q310 207 264 207Q244 207 152 209Q38 38 14 -10Q-40 -1 -40 26Q-40 37 2 99Q20 125 67 192T140 298Q283 508
362 654Q467 665 582 665Q711 665 726 650Q731 644 731 631Q731 605 717 580Z" />
<glyph unicode="&#xc7;" glyph-name="Ccedilla" horiz-adv-x="517" d="M427 134Q470 116 470 87Q470 50 416 21T288 -10Q281 -26 281 -33Q281 -44 303 -60Q341 -83 341 -122Q341 -164 303 -198T210 -232Q179 -232 179 -209Q179 -195 198 -178Q211 -187 225 -187Q250
-187 268 -175T287 -142Q287 -122 259 -99T230 -59T246 -7Q153 5 101 77T48 264Q48 445 140 559T378 673Q444 673 488 645T532 574Q532 549 516 534T473 514Q462 563 429 587T355 612Q257 612 194 514T131 287Q131 183 172 117T294 51Q376 51 427 134Z" />
<glyph unicode="&#xc8;" glyph-name="Egrave" horiz-adv-x="458" d="M459 580Q411 601 295 601Q256 601 205 598Q203 551 181 386Q318 386 351 390Q353 374 353 368Q353 327 308 324Q284 323 172 323Q145 112 145 61Q173 59 195 59Q249 59 304 66T378 82Q386 55
386 40Q386 11 355 4T234 -3Q122 -3 96 -1Q76 0 68 8T60 34Q60 62 93 306T127 631Q127 649 126 656Q224 665 324 665Q453 665 468 650Q473 644 473 631Q473 605 459 580ZM188 810Q163 826 163 846Q163 873 198 892Q210 877 231 858T270 825T309 795T334 776Q353
762 353 748Q353 732 337 716Q324 727 268 760T188 810Z" />
<glyph unicode="&#xc9;" glyph-name="Eacute" horiz-adv-x="458" d="M459 580Q411 601 295 601Q256 601 205 598Q203 551 181 386Q318 386 351 390Q353 374 353 368Q353 327 308 324Q284 323 172 323Q145 112 145 61Q173 59 195 59Q249 59 304 66T378 82Q386 55
386 40Q386 11 355 4T234 -3Q122 -3 96 -1Q76 0 68 8T60 34Q60 62 93 306T127 631Q127 649 126 656Q224 665 324 665Q453 665 468 650Q473 644 473 631Q473 605 459 580ZM420 794Q398 782 337 754T261 715Q248 728 248 744Q248 764 269 774Q374 834 419 878Q449
856 449 833Q449 811 420 794Z" />
<glyph unicode="&#xca;" glyph-name="Ecircumflex" horiz-adv-x="458" d="M329 870Q435 790 435 743Q435 721 408 710Q394 734 371 756T332 788L317 799Q311 794 298 784T277 767T258 752T239 738T223 728T209 721T199 718Q187 718 177 736Q245 811 329 870ZM459
580Q411 601 295 601Q256 601 205 598Q203 551 181 386Q318 386 351 390Q353 374 353 368Q353 327 308 324Q284 323 172 323Q145 112 145 61Q173 59 195 59Q249 59 304 66T378 82Q386 55 386 40Q386 11 355 4T234 -3Q122 -3 96 -1Q76 0 68 8T60 34Q60 62 93 306T127
631Q127 649 126 656Q224 665 324 665Q453 665 468 650Q473 644 473 631Q473 605 459 580Z" />
<glyph unicode="&#xcb;" glyph-name="Edieresis" horiz-adv-x="453" d="M454 580Q406 601 290 601Q256 601 205 598Q203 551 181 386Q318 386 351 390Q353 374 353 368Q353 327 308 324Q284 323 172 323Q145 112 145 61Q173 59 209 59Q263 59 318 66T392 82Q400
55 400 40Q400 11 369 4T248 -3Q122 -3 96 -1Q76 0 68 8T60 34Q60 62 93 306T127 631Q127 649 126 656Q224 665 319 665Q448 665 463 650Q468 644 468 631Q468 605 454 580ZM218 712Q199 712 187 725T175 759Q175 784 192 801T231 819Q249 819 261 805T274 770Q274
746 256 729T218 712ZM385 712Q366 712 354 725T342 759Q342 784 359 801T398 819Q416 819 428 805T441 770Q441 746 423 729T385 712Z" />
<glyph unicode="&#xcc;" glyph-name="Igrave" horiz-adv-x="236" d="M175 666Q219 666 219 633Q219 628 214 601T200 518T184 404L158 203Q146 115 146 66Q146 32 150 5Q132 -3 102 -3Q60 -3 60 39Q60 46 65 82T83 218T111 431Q130 581 134 663Q150 666 175 666ZM71
810Q46 826 46 846Q46 873 81 892Q93 877 114 858T153 825T192 795T217 776Q236 762 236 748Q236 732 220 716Q207 727 151 760T71 810Z" />
<glyph unicode="&#xcd;" glyph-name="Iacute" horiz-adv-x="236" d="M175 666Q219 666 219 633Q219 628 214 601T200 518T184 404L158 203Q146 115 146 66Q146 32 150 5Q132 -3 102 -3Q60 -3 60 39Q60 46 65 82T83 218T111 431Q130 581 134 663Q150 666 175 666ZM283
795Q261 783 200 755T124 716Q111 729 111 745Q111 765 132 775Q237 835 282 879Q312 857 312 834Q312 812 283 795Z" />
<glyph unicode="&#xce;" glyph-name="Icircumflex" horiz-adv-x="236" d="M202 870Q308 790 308 743Q308 721 281 710Q267 734 244 756T206 788L190 799Q184 794 171 784T150 767T131 752T112 738T96 728T82 721T72 718Q60 718 50 736Q118 811 202 870ZM175 666Q219
666 219 633Q219 628 214 601T200 518T184 404L158 203Q146 115 146 66Q146 32 150 5Q132 -3 102 -3Q60 -3 60 39Q60 46 65 82T83 218T111 431Q130 581 134 663Q150 666 175 666Z" />
<glyph unicode="&#xcf;" glyph-name="Idieresis" horiz-adv-x="236" d="M175 666Q219 666 219 633Q219 628 214 601T200 518T184 404L158 203Q146 115 146 66Q146 32 150 5Q132 -3 102 -3Q60 -3 60 39Q60 46 65 82T83 218T111 431Q130 581 134 663Q150 666 175
666ZM97 712Q78 712 66 725T54 759Q54 784 71 801T110 819Q128 819 140 805T153 770Q153 746 135 729T97 712ZM264 712Q245 712 233 725T221 759Q221 784 238 801T277 819Q295 819 307 805T320 770Q320 746 302 729T264 712Z" />
<glyph unicode="&#xd0;" glyph-name="Eth" horiz-adv-x="605" d="M231 608Q222 497 207 386Q345 386 377 390Q379 374 379 368Q379 327 334 324Q313 323 198 323Q179 196 157 87Q201 51 269 51Q332 51 380 83T453 167T490 273T502 382Q502 497 447 554T287 612Q269
612 231 608ZM74 53Q103 187 122 323Q69 323 42 319Q40 335 40 341Q40 386 86 386H131Q151 550 154 661Q208 673 296 673Q586 673 586 404Q586 296 549 204T436 51T258 -10Q134 -10 74 53Z" />
<glyph unicode="&#xd1;" glyph-name="Ntilde" horiz-adv-x="580" d="M483 1Q468 -3 450 -3Q418 -3 406 24Q380 83 311 253T192 534Q185 482 173 392T154 251T142 143T136 59Q136 39 140 5Q122 -3 102 -3Q78 -3 69 6T60 35Q60 44 64 76T75 155T86 231Q93 286 102
355T115 459T123 533T127 604Q127 636 123 659Q142 667 170 667T218 638Q294 523 432 157L466 431Q483 562 489 663Q504 666 521 666Q563 666 563 632Q563 625 557 593T543 506T528 404Q522 355 510 263T492 112T483 1ZM430 780Q441 780 460 793T495 822Q508 817
508 805Q508 777 472 749T400 721Q379 721 345 743T293 766Q274 766 228 724Q215 730 215 741Q215 769 251 797T324 825Q342 825 377 803T430 780Z" />
<glyph unicode="&#xd2;" glyph-name="Ograve" horiz-adv-x="628" d="M284 -10Q173 -10 111 63T48 263Q48 438 137 556T370 674Q482 674 545 602T609 402Q609 230 519 110T284 -10ZM362 612Q256 612 194 518T131 288Q131 185 170 118T293 50Q367 50 421 98T500
220T525 381Q525 480 486 546T362 612ZM250 810Q225 826 225 846Q225 873 260 892Q272 877 293 858T332 825T371 795T396 776Q415 762 415 748Q415 732 399 716Q386 727 330 760T250 810Z" />
<glyph unicode="&#xd3;" glyph-name="Oacute" horiz-adv-x="628" d="M284 -10Q173 -10 111 63T48 263Q48 438 137 556T370 674Q482 674 545 602T609 402Q609 230 519 110T284 -10ZM362 612Q256 612 194 518T131 288Q131 185 170 118T293 50Q367 50 421 98T500
220T525 381Q525 480 486 546T362 612ZM482 795Q460 783 399 755T323 716Q310 729 310 745Q310 765 331 775Q436 835 481 879Q511 857 511 834Q511 812 482 795Z" />
<glyph unicode="&#xd4;" glyph-name="Ocircumflex" horiz-adv-x="628" d="M391 870Q497 790 497 743Q497 721 470 710Q456 734 433 756T394 788L379 799Q276 718 261 718Q249 718 239 736Q307 811 391 870ZM284 -10Q173 -10 111 63T48 263Q48 438 137 556T370
674Q482 674 545 602T609 402Q609 230 519 110T284 -10ZM362 612Q256 612 194 518T131 288Q131 185 170 118T293 50Q367 50 421 98T500 220T525 381Q525 480 486 546T362 612Z" />
<glyph unicode="&#xd5;" glyph-name="Otilde" horiz-adv-x="628" d="M284 -10Q173 -10 111 63T48 263Q48 438 137 556T370 674Q482 674 545 602T609 402Q609 230 519 110T284 -10ZM362 612Q256 612 194 518T131 288Q131 185 170 118T293 50Q367 50 421 98T500
220T525 381Q525 480 486 546T362 612ZM455 780Q466 780 485 793T520 822Q533 817 533 805Q533 777 497 749T425 721Q404 721 370 743T318 766Q299 766 253 724Q240 730 240 741Q240 769 276 797T349 825Q367 825 402 803T455 780Z" />
<glyph unicode="&#xd6;" glyph-name="Odieresis" horiz-adv-x="628" d="M284 -10Q173 -10 111 63T48 263Q48 438 137 556T370 674Q482 674 545 602T609 402Q609 230 519 110T284 -10ZM362 612Q256 612 194 518T131 288Q131 185 170 118T293 50Q367 50 421 98T500
220T525 381Q525 480 486 546T362 612ZM288 712Q269 712 257 725T245 759Q245 784 262 801T301 819Q319 819 331 805T344 770Q344 746 326 729T288 712ZM455 712Q436 712 424 725T412 759Q412 784 429 801T468 819Q486 819 498 805T511 770Q511 746 493 729T455
712Z" />
<glyph unicode="&#xd7;" glyph-name="multiply" horiz-adv-x="574" d="M327 252Q437 142 493 97Q471 60 442 60Q429 60 419 70Q406 83 354 139T286 212Q187 115 131 46Q93 72 93 97Q93 110 103 120Q104 120 246 253Q121 373 81 408Q105 446 131 446Q144 446 155
435Q161 429 182 406T235 349T287 293Q397 403 442 459Q456 451 467 437T479 408Q479 395 469 385Q456 372 400 320T327 252Z" />
<glyph unicode="&#xd8;" glyph-name="Oslash" horiz-adv-x="632" d="M293 50Q367 50 421 98T500 220T525 381Q525 467 496 526L205 78Q241 50 293 50ZM362 612Q256 612 194 518T131 288Q131 179 171 116L467 570Q427 612 362 612ZM284 -10Q217 -10 166 18Q147
-12 105 -84Q88 -83 77 -75T66 -55Q66 -46 74 -33L126 47Q48 119 48 263Q48 438 137 556T370 674Q451 674 508 634Q542 688 574 744Q613 742 613 715Q613 704 605 693L545 602Q609 530 609 402Q609 230 519 110T284 -10Z" />
<glyph unicode="&#xd9;" glyph-name="Ugrave" horiz-adv-x="596" d="M450 274Q490 579 494 663Q510 666 535 666Q579 666 579 633Q579 628 574 601T560 518T544 404L518 203Q506 115 506 66Q506 32 510 5Q492 -3 462 -3Q420 -3 420 39Q420 48 432 132Q389 64 332
27T219 -10Q152 -10 116 38T79 157Q79 182 104 371T134 663Q150 666 175 666Q219 666 219 633Q219 630 215 603T202 524T186 421Q156 200 156 164Q156 122 174 92T232 62Q287 62 352 122T450 274ZM251 810Q226 826 226 846Q226 873 261 892Q273 877 294 858T333
825T372 795T397 776Q416 762 416 748Q416 732 400 716Q387 727 331 760T251 810Z" />
<glyph unicode="&#xda;" glyph-name="Uacute" horiz-adv-x="596" d="M450 274Q490 579 494 663Q510 666 535 666Q579 666 579 633Q579 628 574 601T560 518T544 404L518 203Q506 115 506 66Q506 32 510 5Q492 -3 462 -3Q420 -3 420 39Q420 48 432 132Q389 64 332
27T219 -10Q152 -10 116 38T79 157Q79 182 104 371T134 663Q150 666 175 666Q219 666 219 633Q219 630 215 603T202 524T186 421Q156 200 156 164Q156 122 174 92T232 62Q287 62 352 122T450 274ZM483 795Q461 783 400 755T324 716Q311 729 311 745Q311 765 332
775Q437 835 482 879Q512 857 512 834Q512 812 483 795Z" />
<glyph unicode="&#xdb;" glyph-name="Ucircumflex" horiz-adv-x="596" d="M388 870Q494 790 494 743Q494 721 467 710Q453 734 430 756T392 788L376 799Q370 794 357 784T336 767T317 752T298 738T282 728T268 721T258 718Q246 718 236 736Q304 811 388 870ZM450
274Q490 579 494 663Q510 666 535 666Q579 666 579 633Q579 628 574 601T560 518T544 404L518 203Q506 115 506 66Q506 32 510 5Q492 -3 462 -3Q420 -3 420 39Q420 48 432 132Q389 64 332 27T219 -10Q152 -10 116 38T79 157Q79 182 104 371T134 663Q150 666 175
666Q219 666 219 633Q219 630 215 603T202 524T186 421Q156 200 156 164Q156 122 174 92T232 62Q287 62 352 122T450 274Z" />
<glyph unicode="&#xdc;" glyph-name="Udieresis" horiz-adv-x="596" d="M450 274Q490 579 494 663Q510 666 535 666Q579 666 579 633Q579 628 574 601T560 518T544 404L518 203Q506 115 506 66Q506 32 510 5Q492 -3 462 -3Q420 -3 420 39Q420 48 432 132Q389 64
332 27T219 -10Q152 -10 116 38T79 157Q79 182 104 371T134 663Q150 666 175 666Q219 666 219 633Q219 630 215 603T202 524T186 421Q156 200 156 164Q156 122 174 92T232 62Q287 62 352 122T450 274ZM289 712Q270 712 258 725T246 759Q246 784 263 801T302 819Q320
819 332 805T345 770Q345 746 327 729T289 712ZM456 712Q437 712 425 725T413 759Q413 784 430 801T469 819Q487 819 499 805T512 770Q512 746 494 729T456 712Z" />
<glyph unicode="&#xdd;" glyph-name="Yacute" horiz-adv-x="461" d="M50 619Q54 623 63 634T76 648T87 657T100 665T113 667Q140 667 154 633Q196 551 261 369Q312 433 371 534T437 672Q511 672 511 631Q511 606 430 494T282 302L269 203Q257 115 257 66Q257 32
261 5Q243 -3 213 -3Q171 -3 171 39Q171 45 174 70T187 163T206 302Q112 567 50 619ZM404 795Q382 783 321 755T245 716Q232 729 232 745Q232 765 253 775Q358 835 403 879Q433 857 433 834Q433 812 404 795Z" />
<glyph unicode="&#xde;" glyph-name="Thorn" horiz-adv-x="473" d="M231 188Q304 188 342 241T381 378Q381 445 346 470T246 496Q217 496 187 493Q181 453 150 213Q186 188 231 188ZM166 666Q210 666 210 633Q210 620 197 555Q233 557 244 557Q463 557 463 380Q463
263 396 195T243 127Q183 127 143 159Q137 112 137 66Q137 32 141 5Q123 -3 93 -3Q51 -3 51 39Q51 47 62 129T86 309T102 431Q121 581 125 663Q141 666 166 666Z" />
<glyph unicode="&#xdf;" glyph-name="germandbls" horiz-adv-x="487" d="M234 112Q235 80 256 63T304 46Q334 46 354 68T375 124Q375 152 359 176T319 217T273 253T233 295T216 349Q216 380 238 406T288 449T337 494T360 557Q360 586 343 601T296 617Q251 617
211 587T163 493Q113 39 92 -34Q66 -128 19 -128Q-14 -128 -27 -79Q9 -70 36 48T94 465Q105 567 170 620T309 673Q362 673 397 648T433 578Q433 538 417 508T379 460T333 428T294 397T278 362Q278 344 295 326T337 289T387 251T429 203T447 141Q447 81 399 36T288
-10Q246 -10 214 10T182 62Q182 99 234 112Z" />
<glyph unicode="&#xe0;" glyph-name="agrave" horiz-adv-x="487" d="M330 104Q301 49 259 20T172 -10Q113 -10 76 35T39 166Q39 292 103 383T262 474Q364 474 441 417Q395 193 395 99Q395 58 427 36Q413 -10 376 -10Q329 -10 329 71Q329 93 330 104ZM337 189Q350
279 366 379Q315 424 263 424Q200 424 159 357T117 183Q117 123 136 82T192 40Q225 40 267 81T337 189ZM162 619Q137 635 137 655Q137 682 172 701Q184 686 205 667T244 634T283 604T308 585Q327 571 327 557Q327 541 311 525Q298 536 242 569T162 619Z" />
<glyph unicode="&#xe1;" glyph-name="aacute" horiz-adv-x="487" d="M330 104Q301 49 259 20T172 -10Q113 -10 76 35T39 166Q39 292 103 383T262 474Q364 474 441 417Q395 193 395 99Q395 58 427 36Q413 -10 376 -10Q329 -10 329 71Q329 93 330 104ZM337 189Q350
279 366 379Q315 424 263 424Q200 424 159 357T117 183Q117 123 136 82T192 40Q225 40 267 81T337 189ZM394 604Q372 592 311 564T235 525Q222 538 222 554Q222 574 243 584Q348 644 393 688Q423 666 423 643Q423 621 394 604Z" />
<glyph unicode="&#xe2;" glyph-name="acircumflex" horiz-adv-x="487" d="M303 679Q409 599 409 552Q409 530 382 519Q368 543 345 565T306 598L291 608Q188 527 173 527Q161 527 151 545Q219 620 303 679ZM330 104Q301 49 259 20T172 -10Q113 -10 76 35T39 166Q39
292 103 383T262 474Q364 474 441 417Q395 193 395 99Q395 58 427 36Q413 -10 376 -10Q329 -10 329 71Q329 93 330 104ZM337 189Q350 279 366 379Q315 424 263 424Q200 424 159 357T117 183Q117 123 136 82T192 40Q225 40 267 81T337 189Z" />
<glyph unicode="&#xe3;" glyph-name="atilde" horiz-adv-x="487" d="M330 104Q301 49 259 20T172 -10Q113 -10 76 35T39 166Q39 292 103 383T262 474Q364 474 441 417Q395 193 395 99Q395 58 427 36Q413 -10 376 -10Q329 -10 329 71Q329 93 330 104ZM337 189Q350
279 366 379Q315 424 263 424Q200 424 159 357T117 183Q117 123 136 82T192 40Q225 40 267 81T337 189ZM359 589Q370 589 389 602T424 631Q437 626 437 614Q437 586 401 558T329 530Q308 530 274 552T222 575Q203 575 157 533Q144 540 144 550Q144 578 180 606T253
634Q271 634 306 612T359 589Z" />
<glyph unicode="&#xe4;" glyph-name="adieresis" horiz-adv-x="487" d="M330 104Q301 49 259 20T172 -10Q113 -10 76 35T39 166Q39 292 103 383T262 474Q364 474 441 417Q395 193 395 99Q395 58 427 36Q413 -10 376 -10Q329 -10 329 71Q329 93 330 104ZM337 189Q350
279 366 379Q315 424 263 424Q200 424 159 357T117 183Q117 123 136 82T192 40Q225 40 267 81T337 189ZM204 521Q185 521 173 534T161 568Q161 593 178 610T217 628Q235 628 247 614T260 579Q260 555 242 538T204 521ZM371 521Q352 521 340 534T328 568Q328 593
345 610T384 628Q402 628 414 614T427 579Q427 555 409 538T371 521Z" />
<glyph unicode="&#xe5;" glyph-name="aring" horiz-adv-x="487" d="M299 520Q264 520 244 540T224 595Q224 639 252 668T322 698Q356 698 376 678T396 623Q396 579 368 550T299 520ZM318 665Q293 665 280 647T266 599Q266 578 275 566T303 553Q327 553 340 571T353
618Q353 639 344 652T318 665ZM330 104Q301 49 259 20T172 -10Q113 -10 76 35T39 166Q39 292 103 383T262 474Q364 474 441 417Q395 193 395 99Q395 58 427 36Q413 -10 376 -10Q329 -10 329 71Q329 93 330 104ZM337 189Q350 279 366 379Q315 424 263 424Q200 424
159 357T117 183Q117 123 136 82T192 40Q225 40 267 81T337 189Z" />
<glyph unicode="&#xe6;" glyph-name="ae" horiz-adv-x="708" d="M600 359Q600 387 584 406T537 425Q484 425 444 370T396 228Q424 228 443 229T495 238T548 258T584 297T600 359ZM192 40Q219 40 254 69T317 149Q316 159 316 180Q316 299 376 379Q316 424 263 424Q200
424 159 357T117 183Q117 123 136 82T192 40ZM607 102Q638 83 638 60Q638 30 596 10T499 -10Q366 -10 328 104Q267 -10 172 -10Q113 -10 76 35T39 166Q39 292 103 383T262 474Q350 474 420 424Q479 474 554 474Q614 474 646 445T678 370Q678 321 658 285T611 231T545
201T481 188T428 185Q415 185 395 187Q399 112 428 76T502 40Q567 40 607 102Z" />
<glyph unicode="&#xe7;" glyph-name="ccedilla" horiz-adv-x="413" d="M355 354Q346 387 318 403T263 419Q197 419 158 353T118 195Q118 117 148 79T225 40Q290 40 330 102Q361 83 361 60Q361 30 319 10T219 -10Q212 -29 212 -33Q212 -44 234 -60Q272 -83 272
-122Q272 -164 233 -198T141 -232Q110 -232 110 -209Q110 -195 129 -178Q142 -187 156 -187Q181 -187 199 -175T218 -142Q218 -122 190 -99T161 -59Q161 -40 178 -6Q110 5 75 52T39 180Q39 319 113 396T280 474Q324 474 363 456T403 403Q403 362 355 354Z" />
<glyph unicode="&#xe8;" glyph-name="egrave" horiz-adv-x="421" d="M320 102Q351 83 351 60Q351 30 309 10T212 -10Q124 -10 77 39T29 180Q29 318 103 396T267 474Q327 474 359 445T391 370Q391 321 371 285T324 231T258 201T194 188T141 185Q128 185 108 187Q112
112 141 76T215 40Q280 40 320 102ZM313 359Q313 387 297 406T250 425Q197 425 157 370T109 228Q137 228 156 229T208 238T261 258T297 297T313 359ZM132 619Q107 635 107 655Q107 682 142 701Q154 686 175 667T214 634T253 604T278 585Q297 571 297 557Q297 541
281 525Q268 536 212 569T132 619Z" />
<glyph unicode="&#xe9;" glyph-name="eacute" horiz-adv-x="424" d="M320 102Q351 83 351 60Q351 30 309 10T212 -10Q124 -10 77 39T29 180Q29 318 103 396T267 474Q327 474 359 445T391 370Q391 321 371 285T324 231T258 201T194 188T141 185Q128 185 108 187Q112
112 141 76T215 40Q280 40 320 102ZM313 359Q313 387 297 406T250 425Q197 425 157 370T109 228Q137 228 156 229T208 238T261 258T297 297T313 359ZM364 604Q342 592 281 564T205 525Q192 538 192 554Q192 574 213 584Q318 644 363 688Q393 666 393 643Q393 621
364 604Z" />
<glyph unicode="&#xea;" glyph-name="ecircumflex" horiz-adv-x="421" d="M273 679Q379 599 379 552Q379 530 352 519Q338 543 315 565T276 598L261 608Q255 603 242 593T221 576T202 561T183 547T167 537T153 530T143 527Q131 527 121 545Q189 620 273 679ZM320
102Q351 83 351 60Q351 30 309 10T212 -10Q124 -10 77 39T29 180Q29 318 103 396T267 474Q327 474 359 445T391 370Q391 321 371 285T324 231T258 201T194 188T141 185Q128 185 108 187Q112 112 141 76T215 40Q280 40 320 102ZM313 359Q313 387 297 406T250 425Q197
425 157 370T109 228Q137 228 156 229T208 238T261 258T297 297T313 359Z" />
<glyph unicode="&#xeb;" glyph-name="edieresis" horiz-adv-x="421" d="M320 102Q351 83 351 60Q351 30 309 10T212 -10Q124 -10 77 39T29 180Q29 318 103 396T267 474Q327 474 359 445T391 370Q391 321 371 285T324 231T258 201T194 188T141 185Q128 185 108
187Q112 112 141 76T215 40Q280 40 320 102ZM313 359Q313 387 297 406T250 425Q197 425 157 370T109 228Q137 228 156 229T208 238T261 258T297 297T313 359ZM168 521Q149 521 137 534T125 568Q125 593 142 610T181 628Q199 628 211 614T224 579Q224 555 206 538T168
521ZM335 521Q316 521 304 534T292 568Q292 593 309 610T348 628Q366 628 378 614T391 579Q391 555 373 538T335 521Z" />
<glyph unicode="&#xec;" glyph-name="igrave" horiz-adv-x="200" d="M116 474Q159 474 159 411Q159 374 137 248T115 99Q115 58 147 36Q133 -10 96 -10Q46 -10 46 81Q46 128 64 228T83 371Q83 418 63 423Q65 437 81 455T116 474ZM24 619Q-1 635 -1 655Q-1 682
34 701Q46 686 67 667T106 634T145 604T170 585Q189 571 189 557Q189 541 173 525Q160 536 104 569T24 619Z" />
<glyph unicode="&#xed;" glyph-name="iacute" horiz-adv-x="200" d="M116 474Q159 474 159 411Q159 374 137 248T115 99Q115 58 147 36Q133 -10 96 -10Q46 -10 46 81Q46 128 64 228T83 371Q83 418 63 423Q65 437 81 455T116 474ZM205 604Q183 592 122 564T46 525Q33
538 33 554Q33 574 54 584Q159 644 204 688Q234 666 234 643Q234 621 205 604Z" />
<glyph unicode="&#xee;" glyph-name="icircumflex" horiz-adv-x="200" d="M139 679Q245 599 245 552Q245 530 218 519Q204 543 181 565T142 598L127 608Q24 527 9 527Q-3 527 -13 545Q55 620 139 679ZM116 474Q159 474 159 411Q159 374 137 248T115 99Q115 58
147 36Q133 -10 96 -10Q46 -10 46 81Q46 128 64 228T83 371Q83 418 63 423Q65 437 81 455T116 474Z" />
<glyph unicode="&#xef;" glyph-name="idieresis" horiz-adv-x="201" d="M120 474Q163 474 163 411Q163 374 137 248T111 99Q111 58 143 36Q129 -10 92 -10Q42 -10 42 81Q42 128 64 228T87 371Q87 418 67 423Q69 437 85 455T120 474ZM35 521Q16 521 4 534T-8 568Q-8
593 9 610T48 628Q66 628 78 614T91 579Q91 555 73 538T35 521ZM202 521Q183 521 171 534T159 568Q159 593 176 610T215 628Q233 628 245 614T258 579Q258 555 240 538T202 521Z" />
<glyph unicode="&#xf0;" glyph-name="eth" horiz-adv-x="529" d="M269 419Q192 419 148 356T104 201Q104 131 133 89T219 46Q297 46 340 109T383 264Q383 333 353 376T269 419ZM197 570Q227 589 267 616Q217 648 148 661Q147 665 147 669Q147 698 174 698Q198
698 240 684T316 649Q392 700 430 731Q445 714 445 696Q445 680 426 667L354 619Q457 523 457 352Q457 283 444 222T403 107T326 22T211 -10Q130 -10 83 42T36 185Q36 315 106 394T264 474Q347 474 394 404Q373 520 306 586Q278 567 243 541T198 509Q178 525 178
541T197 570Z" />
<glyph unicode="&#xf1;" glyph-name="ntilde" horiz-adv-x="475" d="M145 273Q124 112 124 60Q124 30 127 5Q109 -3 85 -3Q46 -3 46 31Q46 45 68 194T90 368Q90 414 69 423Q71 437 87 455T122 474Q163 474 163 412Q163 394 160 376Q190 423 232 448T314 474Q364
474 391 440T419 351Q419 332 400 228T381 99Q381 58 413 36Q399 -10 362 -10Q312 -10 312 81Q312 124 330 225T349 347Q349 382 336 402T298 423Q259 423 212 378T145 273ZM351 589Q362 589 381 602T416 631Q429 626 429 614Q429 586 393 558T321 530Q300 530
266 552T214 575Q195 575 149 533Q136 540 136 550Q136 578 172 606T245 634Q263 634 298 612T351 589Z" />
<glyph unicode="&#xf2;" glyph-name="ograve" horiz-adv-x="475" d="M203 -10Q121 -10 75 41T29 181Q29 304 96 389T268 474Q351 474 398 423T446 281Q446 159 377 75T203 -10ZM262 424Q190 424 149 355T107 194Q107 127 134 84T213 40Q285 40 326 108T367 266Q367
335 340 379T262 424ZM159 619Q134 635 134 655Q134 682 169 701Q181 686 202 667T241 634T280 604T305 585Q324 571 324 557Q324 541 308 525Q295 536 239 569T159 619Z" />
<glyph unicode="&#xf3;" glyph-name="oacute" horiz-adv-x="475" d="M203 -10Q121 -10 75 41T29 181Q29 304 96 389T268 474Q351 474 398 423T446 281Q446 159 377 75T203 -10ZM262 424Q190 424 149 355T107 194Q107 127 134 84T213 40Q285 40 326 108T367 266Q367
335 340 379T262 424ZM391 604Q369 592 308 564T232 525Q219 538 219 554Q219 574 240 584Q345 644 390 688Q420 666 420 643Q420 621 391 604Z" />
<glyph unicode="&#xf4;" glyph-name="ocircumflex" horiz-adv-x="475" d="M300 679Q406 599 406 552Q406 530 379 519Q365 543 342 565T304 598L288 608Q185 527 170 527Q158 527 148 545Q216 620 300 679ZM203 -10Q121 -10 75 41T29 181Q29 304 96 389T268 474Q351
474 398 423T446 281Q446 159 377 75T203 -10ZM262 424Q190 424 149 355T107 194Q107 127 134 84T213 40Q285 40 326 108T367 266Q367 335 340 379T262 424Z" />
<glyph unicode="&#xf5;" glyph-name="otilde" horiz-adv-x="475" d="M203 -10Q121 -10 75 41T29 181Q29 304 96 389T268 474Q351 474 398 423T446 281Q446 159 377 75T203 -10ZM262 424Q190 424 149 355T107 194Q107 127 134 84T213 40Q285 40 326 108T367 266Q367
335 340 379T262 424ZM356 589Q367 589 386 602T421 631Q434 626 434 614Q434 586 398 558T326 530Q305 530 271 552T219 575Q200 575 154 533Q141 540 141 550Q141 578 177 606T250 634Q268 634 303 612T356 589Z" />
<glyph unicode="&#xf6;" glyph-name="odieresis" horiz-adv-x="475" d="M203 -10Q121 -10 75 41T29 181Q29 304 96 389T268 474Q351 474 398 423T446 281Q446 159 377 75T203 -10ZM262 424Q190 424 149 355T107 194Q107 127 134 84T213 40Q285 40 326 108T367
266Q367 335 340 379T262 424ZM194 521Q175 521 163 534T151 568Q151 593 168 610T207 628Q225 628 237 614T250 579Q250 555 232 538T194 521ZM361 521Q342 521 330 534T318 568Q318 593 335 610T374 628Q392 628 404 614T417 579Q417 555 399 538T361 521Z" />
<glyph unicode="&#xf7;" glyph-name="divide" horiz-adv-x="574" d="M486 258Q486 240 476 228T450 216T379 220T294 224Q180 224 92 216Q89 231 89 246Q89 262 98 275T125 288Q128 288 188 285T292 281Q422 281 483 288Q486 279 486 258ZM314 367T291 367T252
383T236 424Q236 448 252 464T291 481T329 465T345 424Q345 399 330 383ZM314 23T291 23T252 39T236 80Q236 104 252 120T291 137T329 121T345 80Q345 55 330 39Z" />
<glyph unicode="&#xf8;" glyph-name="oslash" horiz-adv-x="485" d="M351 356L157 59Q181 40 213 40Q285 40 326 108T367 266Q367 312 351 356ZM262 424Q190 424 149 355T107 194Q107 140 125 102L323 399Q298 424 262 424ZM203 -10Q161 -10 124 6L65 -85Q29 -83
29 -57Q29 -48 37 -35L83 34Q29 88 29 181Q29 304 96 389T268 474Q318 474 358 454Q391 508 420 557Q456 555 456 529Q456 518 448 507L395 424Q446 370 446 281Q446 159 377 75T203 -10Z" />
<glyph unicode="&#xf9;" glyph-name="ugrave" horiz-adv-x="473" d="M318 104Q293 56 251 23T158 -10T81 24T53 113Q53 132 72 236T91 365Q91 415 70 423Q74 440 89 457T123 474Q148 474 155 455T163 394Q163 351 143 250T123 117Q123 82 136 62T174 41Q213 41
260 86T327 191Q357 390 361 464Q379 469 394 469Q433 469 433 437Q433 427 408 277T383 93Q383 56 415 36Q410 19 398 5T365 -10Q317 -10 317 70Q317 93 318 104ZM165 619Q140 635 140 655Q140 682 175 701Q187 686 208 667T247 634T286 604T311 585Q330 571 330
557Q330 541 314 525Q301 536 245 569T165 619Z" />
<glyph unicode="&#xfa;" glyph-name="uacute" horiz-adv-x="473" d="M318 104Q293 56 251 23T158 -10T81 24T53 113Q53 132 72 236T91 365Q91 415 70 423Q74 440 89 457T123 474Q148 474 155 455T163 394Q163 351 143 250T123 117Q123 82 136 62T174 41Q213 41
260 86T327 191Q357 390 361 464Q379 469 394 469Q433 469 433 437Q433 427 408 277T383 93Q383 56 415 36Q410 19 398 5T365 -10Q317 -10 317 70Q317 93 318 104ZM397 604Q375 592 314 564T238 525Q225 538 225 554Q225 574 246 584Q351 644 396 688Q426 666 426
643Q426 621 397 604Z" />
<glyph unicode="&#xfb;" glyph-name="ucircumflex" horiz-adv-x="473" d="M295 679Q401 599 401 552Q401 530 374 519Q360 543 337 565T298 598L283 608Q180 527 165 527Q153 527 143 545Q211 620 295 679ZM318 104Q293 56 251 23T158 -10T81 24T53 113Q53 132
72 236T91 365Q91 415 70 423Q74 440 89 457T123 474Q148 474 155 455T163 394Q163 351 143 250T123 117Q123 82 136 62T174 41Q213 41 260 86T327 191Q357 390 361 464Q379 469 394 469Q433 469 433 437Q433 427 408 277T383 93Q383 56 415 36Q410 19 398 5T365
-10Q317 -10 317 70Q317 93 318 104Z" />
<glyph unicode="&#xfc;" glyph-name="udieresis" horiz-adv-x="473" d="M318 104Q293 56 251 23T158 -10T81 24T53 113Q53 132 72 236T91 365Q91 415 70 423Q74 440 89 457T123 474Q148 474 155 455T163 394Q163 351 143 250T123 117Q123 82 136 62T174 41Q213
41 260 86T327 191Q357 390 361 464Q379 469 394 469Q433 469 433 437Q433 427 408 277T383 93Q383 56 415 36Q410 19 398 5T365 -10Q317 -10 317 70Q317 93 318 104ZM184 521Q165 521 153 534T141 568Q141 593 158 610T197 628Q215 628 227 614T240 579Q240 555
222 538T184 521ZM351 521Q332 521 320 534T308 568Q308 593 325 610T364 628Q382 628 394 614T407 579Q407 555 389 538T351 521Z" />
<glyph unicode="&#xfd;" glyph-name="yacute" horiz-adv-x="411" d="M204 72Q321 265 321 395Q321 423 307 459Q333 474 354 474Q396 474 396 408Q396 333 345 217T222 -7Q142 -126 81 -178T-71 -230Q-116 -230 -148 -214T-180 -171Q-180 -139 -136 -118Q-128
-146 -104 -163T-48 -180Q-18 -180 11 -166T66 -123T110 -71T152 -10Q146 73 104 233T13 435Q41 474 71 474Q104 474 121 426Q157 325 204 72ZM352 604Q330 592 269 564T193 525Q180 538 180 554Q180 574 201 584Q306 644 351 688Q381 666 381 643Q381 621 352
604Z" />
<glyph unicode="&#xfe;" glyph-name="thorn" horiz-adv-x="471" d="M152 294Q148 266 142 232T129 153T117 84Q164 39 215 39Q278 39 321 103T364 281Q364 341 345 382T289 424Q259 424 220 388T152 294ZM170 742Q213 742 213 679Q213 637 170 391Q229 474 309
474Q368 474 405 429T442 298Q442 164 375 77T220 -10Q159 -10 109 34Q82 -121 82 -145Q82 -186 114 -208Q100 -254 63 -254Q13 -254 13 -163Q13 -138 20 -87T43 51T65 177Q72 219 93 338T125 533T137 639Q137 686 117 691Q119 705 135 723T170 742Z" />
<glyph unicode="&#xff;" glyph-name="ydieresis" horiz-adv-x="411" d="M204 72Q321 265 321 395Q321 423 307 459Q333 474 354 474Q396 474 396 408Q396 333 345 217T222 -7Q142 -126 81 -178T-71 -230Q-116 -230 -148 -214T-180 -171Q-180 -139 -136 -118Q-128
-146 -104 -163T-48 -180Q-18 -180 11 -166T66 -123T110 -71T152 -10Q146 73 104 233T13 435Q41 474 71 474Q104 474 121 426Q157 325 204 72ZM126 521Q107 521 95 534T83 568Q83 593 100 610T139 628Q157 628 169 614T182 579Q182 555 164 538T126 521ZM293 521Q274
521 262 534T250 568Q250 593 267 610T306 628Q324 628 336 614T349 579Q349 555 331 538T293 521Z" />
<glyph unicode="&#x2013;" glyph-name="endash" horiz-adv-x="574" d="M169 290H339Q417 290 454 297Q455 293 455 286Q455 262 445 245T411 228Q402 228 371 230T322 233H154Q85 233 31 225Q30 230 30 237Q30 294 74 294Q76 294 110 292T169 290Z" />
<glyph unicode="&#x2014;" glyph-name="emdash" horiz-adv-x="718" d="M687 297Q687 296 687 292T688 287Q688 264 678 246T647 228Q639 228 609 230T554 233H135Q76 233 30 225Q30 294 69 294Q71 294 106 292T170 290H588Q648 290 687 297Z" />
<glyph unicode="&#x2018;" glyph-name="quoteleft" horiz-adv-x="215" d="M213 738Q235 738 235 715Q235 704 231 696H226Q194 696 170 668T145 609Q145 567 185 558Q191 546 191 534Q191 510 173 493T129 475Q108 475 94 491T80 542Q80 609 121 673T213 738Z" />
<glyph unicode="&#x2019;" glyph-name="quoteright" horiz-adv-x="217" d="M160 608Q160 648 121 657Q116 670 116 681Q116 705 134 722T178 740Q199 740 213 724T227 673Q227 607 184 542T92 477Q70 477 70 501Q70 507 74 519H78Q112 519 136 547T160 608Z" />
<glyph unicode="&#x201a;" glyph-name="quotesinglbase" horiz-adv-x="222" d="M90 -12Q90 28 51 37Q46 50 46 61Q46 85 64 102T108 120Q129 120 143 104T157 53Q157 -13 114 -78T22 -143Q0 -143 0 -119Q0 -113 4 -101H8Q42 -101 66 -73T90 -12Z" />
<glyph unicode="&#x201c;" glyph-name="quotedblleft" horiz-adv-x="412" d="M410 738Q432 738 432 715Q432 704 428 696H423Q391 696 367 668T342 609Q342 567 382 558Q388 546 388 534Q388 510 370 493T326 475Q305 475 291 491T277 542Q277 609 318 673T410
738ZM213 738Q235 738 235 715Q235 704 231 696H226Q194 696 170 668T145 609Q145 567 185 558Q191 546 191 534Q191 510 173 493T129 475Q108 475 94 491T80 542Q80 609 121 673T213 738Z" />
<glyph unicode="&#x201d;" glyph-name="quotedblright" horiz-adv-x="410" d="M160 608Q160 648 121 657Q116 670 116 681Q116 705 134 722T178 740Q199 740 213 724T227 673Q227 607 184 542T92 477Q70 477 70 501Q70 507 74 519H78Q112 519 136 547T160 608ZM353
608Q353 648 314 657Q309 670 309 681Q309 705 327 722T371 740Q392 740 406 724T420 673Q420 607 377 542T285 477Q263 477 263 501Q263 507 267 519H271Q305 519 329 547T353 608Z" />
<glyph unicode="&#x201e;" glyph-name="quotedblbase" horiz-adv-x="415" d="M90 -12Q90 28 51 37Q46 50 46 61Q46 85 64 102T108 120Q129 120 143 104T157 53Q157 -13 114 -78T22 -143Q0 -143 0 -119Q0 -113 4 -101H8Q42 -101 66 -73T90 -12ZM283 -12Q283 28
244 37Q239 50 239 61Q239 85 257 102T301 120Q322 120 336 104T350 53Q350 -13 307 -78T215 -143Q193 -143 193 -119Q193 -113 197 -101H201Q235 -101 259 -73T283 -12Z" />
<glyph unicode="&#x2022;" glyph-name="bullet" horiz-adv-x="281" d="M129 155Q90 155 65 181T40 250Q40 302 75 342T160 383Q197 383 221 356T246 286Q246 232 211 194T129 155Z" />
<glyph unicode="&#x2039;" glyph-name="guilsinglleft" horiz-adv-x="283" d="M139 235Q167 192 194 141T222 74Q222 59 198 44Q135 103 60 235Q177 371 251 426Q268 413 268 403Q268 375 139 235Z" />
<glyph unicode="&#x203a;" glyph-name="guilsinglright" horiz-adv-x="284" d="M145 235Q117 276 89 327T61 396Q61 408 85 426Q144 370 224 235Q101 95 32 44Q15 57 15 67Q15 97 145 235Z" />
</font>
</defs>
</svg>
