<?xml version="1.0" standalone="no"?>
<!DOCTYPE svg PUBLIC "-//W3C//DTD SVG 1.1//EN" "http://www.w3.org/Graphics/SVG/1.1/DTD/svg11.dtd">
<svg xmlns="http://www.w3.org/2000/svg">
<defs >
<font id="Chicle" horiz-adv-x="337" ><font-face
    font-family="Chicle"
    units-per-em="1000"
    panose-1="2 0 5 6 0 0 0 2 0 3"
    ascent="915"
    descent="-294"
    alphabetic="0" />
<glyph unicode=" " glyph-name="space" horiz-adv-x="200" />
<glyph unicode="!" glyph-name="exclam" horiz-adv-x="230" d="M10 48Q13 85 47 107T114 129T165 117T183 83Q183 44 148 21T80 -2Q12 -2 10 48ZM153 265L154 228Q154 197 101 197Q92 197 83 198T58 209T43 239V244Q47 296 47 358T41 479T28 562L22 587Q16 604
16 617Q16 656 59 678T148 701Q220 701 220 658L214 633Q153 484 153 265Z" />
<glyph unicode="&quot;" glyph-name="quotedbl" horiz-adv-x="270" d="M60 556Q44 556 39 589Q33 625 24 670T15 717Q15 735 26 745Q41 759 68 759T106 743T118 705T79 570Q73 556 60 556ZM216 570Q210 556 196 556T176 589Q170 625 161 670T152 717Q152 735 163
745Q178 759 205 759T243 743T255 705T216 570Z" />
<glyph unicode="#" glyph-name="numbersign" horiz-adv-x="532" d="M319 485L318 566Q318 585 329 595T346 607T359 608Q400 608 400 579Q398 563 398 485Q471 485 485 485T510 476Q522 463 522 446T515 418T501 406L494 404Q462 406 398 406V298Q471 298 485
298T509 289T521 273T522 254T515 231T501 218L494 217Q462 219 399 219L400 127Q400 95 358 95Q343 95 331 107T318 137V219L213 218L214 127Q214 95 171 95Q146 95 136 117Q132 126 132 137V218L42 217Q27 217 19 227T10 252Q10 299 52 299Q87 298 133 298V405L42
404Q10 404 10 442Q10 460 21 472T52 486Q87 485 133 485L132 566Q132 584 142 594Q155 608 171 608Q213 608 214 579Q212 563 212 485H319ZM319 406L212 405V298H319V406Z" />
<glyph unicode="$" glyph-name="dollar" horiz-adv-x="403" d="M180 728V778Q180 792 193 799T220 806T240 800T249 783V741H263Q358 741 358 656Q358 600 329 600Q319 600 302 607T265 615T231 598T217 553T244 488T304 418T364 328T392 209T378 106T338 40Q294
-3 241 -17V-71Q240 -85 226 -92T195 -99Q172 -99 172 -77V-24Q92 -19 47 30T1 159Q1 202 23 244T81 286Q94 286 101 277T110 246T119 204T134 174T152 158Q166 151 176 151Q200 151 215 170T230 219T201 293T138 375T75 461T46 560T81 659T180 728Z" />
<glyph unicode="%" glyph-name="percent" horiz-adv-x="601" d="M146 727Q202 727 232 677T263 568T253 462T211 380T123 344T39 394T11 519T45 660T146 727ZM187 587T173 622T136 658Q94 658 94 558Q94 512 108 489T143 466T175 484T187 545ZM130 1Q119 -24 85
-24T50 -5Q50 1 57 13L481 733Q490 750 523 750T556 732Q556 727 553 721L130 1ZM468 367Q524 367 554 317T585 208T575 102T533 20T445 -16T361 34T333 159T367 300T468 367ZM509 227T495 262T458 298Q416 298 416 198Q416 152 430 129T465 106T497 124T509 185Z"
/>
<glyph unicode="&amp;" glyph-name="ampersand" horiz-adv-x="500" d="M397 -10Q378 -10 363 1T342 23L336 34Q334 40 327 40T298 28Q230 -9 160 -9T45 31T0 140Q0 180 14 221T48 294Q88 354 122 386L136 399Q139 402 139 408L138 416Q92 512 92 570T147 674T288
721Q400 721 400 641Q400 564 283 429Q275 424 275 419T277 409Q311 340 365 260Q367 256 372 256Q385 256 393 277Q400 292 416 292T443 271T453 226T446 185T438 161T448 145T471 137L486 138Q513 138 513 115Q513 78 476 34T397 -10ZM263 164Q222 237 198 283Q194
289 187 289T173 281Q142 246 142 209T160 152T205 131T258 144Q266 148 266 155L263 164ZM241 505Q278 543 278 592Q278 628 251 628Q232 628 222 611T211 577T218 531T236 503Q239 503 241 505Z" />
<glyph unicode="&apos;" glyph-name="quotesingle" horiz-adv-x="133" d="M60 556Q44 556 39 589Q33 625 24 670T15 717Q15 735 26 745Q41 759 68 759T106 743T118 705T79 570Q73 556 60 556Z" />
<glyph unicode="(" glyph-name="parenleft" horiz-adv-x="228" d="M0 267T0 352T19 512T66 634Q123 728 168 762L188 777Q214 792 227 792T240 782T233 760T219 737T192 688T159 608T133 496T121 352T132 210T160 96Q194 2 219 -34L230 -49Q241 -64 241 -76T229
-88Q218 -88 188 -73Q164 -58 127 -16T66 70T21 191Z" />
<glyph unicode=")" glyph-name="parenright" horiz-adv-x="213" d="M213 437T213 352T194 192T146 70Q90 -24 44 -58L25 -73Q-1 -88 -14 -88T-28 -77Q-28 -64 -21 -54T-6 -33T21 16T54 96T80 208T92 352T81 494T54 608Q22 698 -6 738L-17 753Q-27 772 -27 782T-16
792T25 777Q49 762 86 720T147 634T192 513Z" />
<glyph unicode="*" glyph-name="asterisk" horiz-adv-x="286" d="M187 718L178 666Q178 653 189 653Q202 653 221 671T255 689T277 678T286 653Q286 629 258 622Q212 609 212 597Q212 577 255 563Q274 559 274 542T264 513T242 501T219 512Q192 543 178 543Q166
543 166 524T170 488T174 464Q174 438 140 438T105 466Q105 474 111 492T117 525T111 540Q99 540 58 509Q48 499 35 499T11 509T0 531Q0 556 26 564Q39 567 63 578T87 601Q87 614 26 637Q10 643 10 658T21 684T44 695T68 686Q97 655 111 655Q120 655 120 674L116
710Q116 743 151 744T187 718Z" />
<glyph unicode="+" glyph-name="plus" horiz-adv-x="470" d="M195 425L194 540Q194 556 204 565T224 576L234 578Q275 578 276 550Q274 528 274 421V393H307Q406 393 423 394Q456 394 460 355Q460 313 431 312Q409 314 303 314H274L276 160Q276 144 264 136T241
128T223 129T205 141T194 170Q194 236 195 313L42 312Q10 312 10 355Q10 380 32 390Q41 394 79 394T195 393V425Z" />
<glyph unicode="," glyph-name="comma" horiz-adv-x="194" d="M114 119Q179 119 179 53Q179 10 147 -44T74 -98Q59 -98 59 -86L62 -73Q77 -44 77 -28Q77 1 63 4L58 5Q16 12 16 43Q17 76 46 97T114 119Z" />
<glyph unicode="-" glyph-name="hyphen" horiz-adv-x="474" d="M407 209Q388 211 303 211L55 209Q42 209 35 219T28 246T37 276T64 291Q223 290 305 290T397 291Q415 290 425 277T435 248T428 221T407 209Z" />
<glyph unicode="." glyph-name="period" horiz-adv-x="189" d="M140 120T156 108T172 72T143 24T81 1T33 12T16 43Q16 74 46 97T108 120Z" />
<glyph unicode="/" glyph-name="slash" horiz-adv-x="297" d="M49 1Q38 -24 4 -24T-31 -5Q-31 4 -24 13L399 733Q408 750 441 750T475 732Q475 727 472 721L49 1Z" />
<glyph unicode="0" glyph-name="zero" horiz-adv-x="464" d="M256 720Q349 720 405 623T461 375Q461 239 412 124Q387 63 339 26T223 -12T108 34Q17 121 17 311Q17 412 44 504T128 658T256 720ZM237 589Q201 589 183 534T164 397T189 268T250 221T306 259T327
377T302 523T237 589Z" />
<glyph unicode="1" glyph-name="one" horiz-adv-x="226" d="M6 555Q-26 563 -26 588Q-26 623 48 670T160 718T197 685Q197 656 192 566Q188 444 188 291T199 80Q203 73 203 63Q203 27 153 5T65 -18T28 16L31 34Q55 212 55 375L50 507Q50 522 38 536T6 555Z" />
<glyph unicode="2" glyph-name="two" horiz-adv-x="363" d="M332 660Q349 633 349 601T346 546T331 499T313 463T287 420T261 379L172 219Q166 205 166 192Q166 170 199 170T254 179T282 196L289 205Q311 232 330 232Q358 232 358 190Q358 46 315 12Q298 -8 156
-8L37 -5Q-10 -3 -10 42Q-10 107 55 222L152 402Q199 487 199 535Q199 560 187 573T163 588L151 590Q130 590 113 579T90 556L83 545Q71 523 47 523Q18 523 18 580Q18 665 66 696T193 728Q291 728 332 660Z" />
<glyph unicode="3" glyph-name="three" horiz-adv-x="361" d="M106 341L86 340Q64 340 64 375L70 417Q74 435 84 446Q98 460 113 460Q144 460 167 485T191 540Q191 599 132 599Q105 599 88 582Q67 561 50 559Q22 563 22 603Q22 723 176 723Q207 723 239 714T291
691T326 649T342 583T331 517T306 472Q277 439 252 429L242 425Q235 422 235 415L241 406Q350 365 350 231Q350 164 331 115T288 43T232 5Q191 -13 157 -13T99 -10T50 5Q0 28 0 100Q0 142 6 173L9 185Q17 219 43 219Q58 219 68 207Q89 178 128 178T187 204T207
266T177 321T106 341Z" />
<glyph unicode="4" glyph-name="four" horiz-adv-x="426" d="M247 349L248 413L246 507Q243 516 237 516T225 506Q165 398 165 354Q165 340 175 337T216 333T247 349ZM384 344L406 346Q426 346 426 325Q426 224 381 193Q371 191 371 176L370 158Q370 117 382 72Q386
65 386 55Q386 22 342 5T254 -13Q218 -13 218 21L221 39Q239 91 239 160Q239 173 227 173Q207 172 170 172L72 174Q30 174 15 192T0 232L1 242Q21 330 78 440T182 618L228 684Q258 725 347 725Q391 725 391 695Q391 691 380 640T369 546T368 418V352Q368 344 384
344Z" />
<glyph unicode="5" glyph-name="five" horiz-adv-x="368" d="M125 374L60 365Q30 365 30 393Q30 585 45 669Q52 700 70 709T119 718L244 714Q279 714 299 720T323 726Q344 726 344 703Q344 618 309 592Q294 578 240 578L207 580Q167 580 157 562Q150 546 150 517L151
498Q153 483 166 483Q176 485 193 485T229 481T272 463T314 424T344 355T357 273T356 222T349 173T328 112T290 56T227 11T132 -6T34 22Q1 44 1 132T45 220Q53 220 74 204T127 187Q148 187 171 198Q214 218 214 283Q214 339 168 364Q149 374 125 374Z" />
<glyph unicode="6" glyph-name="six" horiz-adv-x="418" d="M271 255Q271 299 253 341T199 384Q174 384 162 363T149 305T169 227T225 186Q271 186 271 255ZM240 488Q324 488 365 423T407 268Q407 164 364 84Q342 43 302 19T209 -5T119 16T63 66T32 136Q15 196
15 250T18 349T30 452T58 556T105 644T179 708T283 731Q310 731 340 725Q381 717 381 651T352 585Q349 585 333 593T292 601Q243 601 212 564T180 491Q180 481 189 481Q190 481 197 482Q223 488 240 488Z" />
<glyph unicode="7" glyph-name="seven" horiz-adv-x="246" d="M289 728Q312 728 312 689T289 566T254 448L241 414Q178 235 178 128Q178 88 190 76Q197 63 197 51Q197 20 153 4T63 -12Q8 -12 8 36Q8 133 106 346Q174 493 180 551Q180 570 129 570Q105 570 87 565T49
542T14 523Q-10 523 -10 574T7 687Q11 698 22 706T53 715T106 717T168 714T210 707T231 703T243 708Q269 728 289 728Z" />
<glyph unicode="8" glyph-name="eight" horiz-adv-x="444" d="M333 419Q378 389 405 334T433 228Q433 146 390 76Q335 -15 215 -15Q122 -15 67 40T11 202Q11 218 18 247T36 299T69 348T120 392Q126 396 126 400Q126 408 116 414T94 431T72 458Q47 496 47 547Q47
581 62 616T97 672T153 710T235 726Q312 726 361 688T411 572Q411 558 408 541T387 491T335 436Q329 433 329 428T333 419ZM279 570T262 595T223 621T189 606T177 566T193 516T232 490T267 506T279 546ZM159 215T180 184T230 152T273 171T287 222T267 287T219 319T175
299T159 247Z" />
<glyph unicode="9" glyph-name="nine" horiz-adv-x="390" d="M220 420T235 446T251 512T232 578T190 605T152 580T136 516T154 449T196 420ZM203 721Q253 721 288 700T343 649T373 572Q389 505 389 420T377 268T338 136T258 30T131 -10Q83 -10 48 6L37 12Q1 36
1 113T36 190Q46 190 69 176T121 161T170 173T200 201T216 237Q223 264 223 276T214 288Q212 288 196 283T164 278Q87 278 44 327T1 459Q1 574 56 647T203 721Z" />
<glyph unicode=":" glyph-name="colon" horiz-adv-x="189" d="M173 425Q173 395 143 371T82 347T33 359T16 389Q16 420 45 443T107 467T156 455T173 425ZM140 120T156 108T172 72T143 24T81 1T33 12T16 43Q16 74 46 97T108 120Z" />
<glyph unicode=";" glyph-name="semicolon" horiz-adv-x="194" d="M174 422Q174 389 142 368T81 347T34 359T16 392Q16 425 49 446T111 467T157 455T174 422ZM114 119Q179 119 179 53Q179 10 147 -44T74 -98Q59 -98 59 -86L62 -73Q77 -44 77 -28Q77 1 63 4L58
5Q16 12 16 43Q17 76 46 97T114 119Z" />
<glyph unicode="&lt;" glyph-name="less" horiz-adv-x="313" d="M301 136Q301 120 247 120Q224 120 204 128T140 182T64 270L30 312Q20 322 20 336T32 366T68 409T139 488T203 543Q217 551 259 551T302 535Q302 525 285 511Q279 505 269 496T232 460T185 412Q132
355 132 338T170 277T246 197L284 161Q301 147 301 136Z" />
<glyph unicode="=" glyph-name="equal" horiz-adv-x="424" d="M383 401Q361 403 267 403L42 401Q10 401 10 444Q10 469 32 479Q41 483 52 483Q178 482 269 482T375 482T401 473T413 457T414 445T413 432T404 413T383 401ZM383 220Q361 222 267 222L42 220Q10 220
10 263Q10 288 32 298Q41 302 52 302Q178 301 269 301T375 301T401 292T413 276T414 264T413 251T404 232T383 220Z" />
<glyph unicode="&gt;" glyph-name="greater" horiz-adv-x="313" d="M157 282T173 304T190 338T152 394T76 474L37 511Q20 525 20 535Q20 551 68 551Q101 551 119 543Q136 538 179 493T257 405L292 362Q302 351 302 340Q302 324 292 312Q162 145 121 129Q99 120
79 120T40 122T21 136T38 161Q44 167 54 176T91 212T137 260Z" />
<glyph unicode="?" glyph-name="question" horiz-adv-x="261" d="M33 40Q36 76 70 99T136 122T188 109T207 76Q207 37 172 14T103 -9T52 4T33 40ZM-15 575Q-15 637 37 674T158 712T274 676T321 570T242 406Q191 355 191 304Q191 291 198 277T205 254Q205 224 171
208T101 192Q43 192 43 239Q43 297 100 371Q127 404 147 443T167 507Q167 513 166 521T152 544T116 558Q99 558 80 546T52 514Q43 500 27 500T2 516Q-15 545 -15 575Z" />
<glyph unicode="@" glyph-name="at" horiz-adv-x="942" d="M454 115Q482 115 501 146T520 200Q520 246 487 246Q458 246 440 218T422 157Q422 115 454 115ZM637 316L633 169Q633 14 706 14Q738 14 760 38T793 100Q811 170 811 225T805 321T779 409T726 491T634
548T495 572Q342 572 249 463T155 200T230 -39T462 -125Q513 -125 513 -157Q513 -210 376 -210Q212 -210 114 -97T15 189Q15 393 152 525T497 657Q720 657 829 530Q926 416 926 239Q926 129 864 30Q835 -18 787 -47T691 -77T614 -67T570 -42Q540 -11 534 12L532
23Q531 34 525 34L513 26Q475 -15 411 -15T316 25T285 133Q285 212 328 258Q370 304 415 318Q462 334 488 336L500 337L510 350Q509 384 457 384Q421 384 395 372T357 359Q333 359 333 399Q333 485 487 485Q596 485 624 411Q637 376 637 316Z" />
<glyph unicode="A" glyph-name="A" horiz-adv-x="516" d="M511 92Q528 80 528 61Q528 24 479 -1T387 -26Q354 -26 339 -11Q327 1 326 24T324 75T323 124T313 161T296 180Q287 184 247 184T184 175Q162 165 142 82Q137 62 136 60Q109 -31 5 -31Q-44 -31 -44 -2Q-44
19 -28 44L-22 53Q52 188 112 391T173 639Q173 656 168 668T162 688Q162 738 248 738Q301 738 339 718T388 653Q430 323 462 209Q485 110 511 92ZM264 465Q263 477 257 477Q254 477 247 468Q206 360 206 319Q206 307 214 304T244 301T275 306T285 325Q277 413 267
454L264 465Z" />
<glyph unicode="B" glyph-name="B" horiz-adv-x="452" d="M442 219Q442 103 362 40T173 -24Q133 -24 99 -16T49 2L34 11Q15 27 15 49Q32 225 32 329T24 496T8 576L-1 594Q-10 607 -10 626Q-10 659 24 683Q32 689 48 698T117 724T234 740T350 710T402 621Q402 520
319 455Q312 449 312 443T319 432Q362 402 389 366T427 297Q442 248 442 219ZM210 456T231 494T252 565T234 615T188 633T160 614Q160 523 170 464Q172 456 181 456Q210 456 231 494ZM273 284T255 316T217 349T182 318T167 254Q167 164 218 164Q244 164 258 186T273
246Z" />
<glyph unicode="C" glyph-name="C" horiz-adv-x="413" d="M413 174Q413 87 359 33T218 -21Q125 -21 78 42Q32 107 21 174Q10 245 10 289T13 377T26 474T52 572T95 655T159 716T237 738T293 733T318 728T343 736T386 744T412 723Q412 722 404 680T396 593T404 534T412
506Q412 481 389 467T339 453Q269 453 269 525Q269 541 275 568T281 603Q281 624 258 624Q226 624 194 566Q157 499 157 370Q157 314 169 270Q192 187 245 187Q291 187 316 237Q327 261 353 261T396 232T413 174Z" />
<glyph unicode="D" glyph-name="D" horiz-adv-x="443" d="M0 59L1 68Q31 252 31 407Q31 540 14 604L9 626Q4 636 4 650Q4 686 42 709Q81 737 163 737T299 706T383 621Q442 517 442 379Q442 252 404 155Q384 102 352 64T270 3T155 -21Q107 -21 70 -10T16 18T0 59ZM288
397Q288 562 242 609Q226 626 212 626Q187 626 184 601Q168 498 168 299Q168 230 173 167Q173 145 195 145Q288 145 288 397Z" />
<glyph unicode="E" glyph-name="E" horiz-adv-x="405" d="M280 474L326 475Q354 475 354 440T323 383T244 359Q183 359 179 335Q176 316 176 291T180 245T195 202Q219 152 285 152Q314 152 331 164T364 177T389 161T398 125Q398 61 344 20T221 -22Q31 -22 31 259L35
336Q1 336 1 369Q1 395 16 427T53 468Q57 511 73 562T119 655Q178 736 301 736Q377 736 391 701T405 642Q405 588 371 588Q362 588 342 598T294 608Q245 608 216 572T186 489Q186 476 214 475T280 474Z" />
<glyph unicode="F" glyph-name="F" horiz-adv-x="293" d="M255 474L295 475Q323 475 323 445Q323 405 295 384T225 359Q210 359 198 352T184 335Q177 262 177 165T187 -26Q190 -36 190 -48T184 -73Q165 -107 128 -128Q78 -155 40 -155T1 -127L5 -107Q44 53 44
318V330Q44 336 39 336Q1 336 1 370Q1 390 18 426T54 468Q55 481 55 500Q55 592 25 616Q15 628 15 646Q15 678 57 703Q137 746 244 746Q270 746 286 744T319 731T335 697Q335 660 281 644T208 600T189 522Q189 511 191 489Q192 474 255 474Z" />
<glyph unicode="G" glyph-name="G" horiz-adv-x="436" d="M416 436Q405 325 405 190T422 7Q426 -2 426 -14T416 -35T396 -44H385Q338 -43 303 -26T267 28Q267 79 258 79L251 73Q217 5 164 -13Q147 -19 132 -19Q95 -19 69 6T32 74Q11 149 11 218T15 337T28 445T57
554T104 645T175 711T274 735Q352 735 364 703Q371 686 371 654Q371 577 335 577Q323 577 307 593T264 609T212 583T176 517Q156 444 156 379Q156 260 186 216Q202 193 228 193T265 220T277 287T264 374T250 425Q250 443 267 456Q313 488 385 488Q418 488 418 463L416
436Z" />
<glyph unicode="H" glyph-name="H" horiz-adv-x="452" d="M275 121L279 306Q279 325 277 347Q275 377 237 377Q162 377 162 338Q162 120 173 60Q175 54 175 46Q175 10 127 -14T41 -38T3 -6L6 14Q31 195 31 391L26 546Q24 582 2 610Q-9 621 -9 637Q-9 672 44 703T137
734Q167 734 169 701Q170 689 170 667Q170 667 163 504Q163 485 173 479T221 473Q282 473 283 506L284 544L281 646Q281 683 327 709T414 736Q431 736 438 731T446 710T442 677Q412 528 412 340Q414 211 421 154T445 80T462 47Q462 16 416 -6T342 -28T301 -18T285
2L283 12Q275 48 275 121Z" />
<glyph unicode="I" glyph-name="I" horiz-adv-x="196" d="M186 9T136 -14T50 -38T13 -5L16 14Q41 195 41 391L36 546Q34 582 12 610Q1 621 1 637Q1 673 56 703T144 734T179 701Q180 689 180 652T175 549Q172 440 172 278T183 60Q186 54 186 45Q186 9 136 -14Z" />
<glyph unicode="J" glyph-name="J" horiz-adv-x="202" d="M177 283L181 92Q181 -11 165 -62T108 -145T18 -177T-63 -150T-94 -82Q-94 -63 -86 -52T-68 -39L-60 -37Q-28 -36 -7 -18T19 18L24 36Q45 106 45 341L41 550Q41 568 35 581T18 606T6 633Q6 668 61 701T149
734T185 701Q185 605 181 549Q177 415 177 283Z" />
<glyph unicode="K" glyph-name="K" horiz-adv-x="448" d="M399 180T421 137T462 82T482 51Q482 18 435 -6T361 -31T321 -22T297 13T264 121T230 272L216 340Q211 364 200 364T180 336T172 295Q172 128 185 60Q187 54 187 46Q187 9 137 -14T51 -38T14 -5L17 14Q42
195 42 393L37 550Q35 585 18 600Q1 616 1 632Q1 668 58 701T147 734T182 701Q171 591 171 514Q171 483 181 483Q186 483 190 490Q204 518 236 569T291 652T342 712T388 739Q418 739 437 706T456 642Q456 608 416 608T327 530Q315 516 315 493T319 452T329 411T350
331T383 227Z" />
<glyph unicode="L" glyph-name="L" horiz-adv-x="372" d="M372 68T335 26T158 -16Q94 -16 62 -9T22 6T15 31L17 46Q40 170 40 383L36 553Q34 589 13 618Q0 631 0 645Q0 678 60 710T155 742T189 714Q176 614 174 532T171 344T172 216T173 192T176 185T184 176Q196
167 221 167Q276 167 309 205Q325 221 341 221Q372 221 372 162Q372 68 335 26Z" />
<glyph unicode="M" glyph-name="M" horiz-adv-x="621" d="M136 298L138 139L135 52Q133 23 115 3T70 -25Q26 -39 2 -39T-23 -17L-21 -5Q-9 29 8 104L13 129Q41 287 41 503Q41 585 23 621Q11 634 11 650Q11 694 84 719T208 745T270 703Q283 658 291 608Q308 503
322 503Q332 503 338 515Q373 604 383 636T397 676T417 701T460 726Q499 741 548 741Q629 741 629 706Q629 695 620 677Q595 640 585 533T575 322Q575 113 604 93Q623 78 623 58T595 17T534 -13T478 -23T441 -13T426 7L424 17Q419 34 419 80Q419 154 429 274L432
310Q441 390 441 435T433 481Q413 481 360 294Q338 218 323 184L317 170Q303 134 268 134Q257 134 250 140T241 158Q223 204 180 400L166 464Q161 480 153 480Q136 480 136 298Z" />
<glyph unicode="N" glyph-name="N" horiz-adv-x="498" d="M51 474L49 533V539Q49 568 36 600L32 610Q21 624 21 643T43 681T97 712Q164 735 211 735T267 695Q279 655 293 587T314 495Q330 428 349 391Q352 388 356 388Q366 388 368 411Q368 501 365 550T361 626T364
662Q375 695 409 717T475 739T507 714Q507 708 493 638Q459 461 459 208Q459 124 465 31V27Q465 -5 431 -14Q405 -21 376 -21T308 -8T264 37Q236 205 191 374L176 431Q170 447 162 447Q145 447 145 237Q145 165 148 110T151 45Q151 18 133 0T87 -26Q42 -39 16 -39T-10
-15Q-10 -7 6 52T25 128Q51 258 51 443V474Z" />
<glyph unicode="O" glyph-name="O" horiz-adv-x="469" d="M245 746Q294 746 338 715Q459 630 459 341Q459 215 408 102Q383 45 336 10T233 -25T137 -1T74 61T35 146Q10 227 10 305T21 450T56 586T129 701T245 746ZM256 624Q225 624 199 571T159 449T145 319T162
225T208 192Q251 192 282 267T314 483T256 624Z" />
<glyph unicode="P" glyph-name="P" horiz-adv-x="379" d="M205 275Q192 268 185 256T175 225Q177 109 182 86T187 54Q187 18 138 -6T51 -30T13 6L15 22Q39 200 39 391L34 553Q34 579 18 604T1 647Q1 679 43 704T135 739T212 750T259 748T313 736T376 709T423 656T444
564T420 453T360 366Q289 302 230 283L205 275ZM276 504T279 528T282 571T278 607T267 633T253 647Q242 654 232 654Q209 654 195 632T181 586Q173 535 173 474T174 403Q174 386 188 386Q197 386 209 394Q240 414 258 459Z" />
<glyph unicode="Q" glyph-name="Q" horiz-adv-x="469" d="M245 746Q294 746 338 715Q459 630 459 341Q459 175 391 70Q407 54 423 53Q452 49 452 28Q452 -8 410 -34T331 -61Q314 -61 309 -58T302 -54T292 -44T275 -19Q252 -25 227 -25Q176 -25 137 -1T74 61T35
146Q10 227 10 305T21 450T56 586T129 701T245 746ZM256 624Q225 624 199 571T159 449T145 320Q145 179 206 179Q218 179 226 183V200Q226 230 231 253Q250 320 291 320Q297 320 300 319Q314 394 314 473Q314 624 256 624Z" />
<glyph unicode="R" glyph-name="R" horiz-adv-x="459" d="M215 449Q284 493 284 577Q284 606 271 628T229 650Q173 650 173 502Q173 488 175 458Q177 441 193 441Q203 441 215 449ZM369 433Q354 422 354 403Q354 397 355 394Q374 271 415 152Q428 114 453 99T478
61Q478 27 434 6T351 -16Q310 -16 294 18Q291 23 291 24Q263 78 245 238Q237 310 235 319Q235 330 221 330Q193 330 183 309Q175 288 175 206T180 93T186 54Q186 17 137 -7T44 -31Q10 -31 10 2L13 22Q38 208 38 406L34 553Q34 578 18 605T1 647Q1 694 85 723T239
752Q287 752 327 741T391 713T432 667T449 596Q449 497 369 433Z" />
<glyph unicode="S" glyph-name="S" horiz-adv-x="408" d="M356 349T374 301T392 200T379 106T343 43T298 5T249 -16Q210 -25 190 -25Q102 -25 52 26T1 159Q1 205 23 245T81 286Q93 286 100 277T110 246T119 204T134 174T152 158Q166 151 176 151Q201 151 215 168T229
215T210 278T165 344T111 408Q46 485 46 554Q46 644 106 692T261 741Q313 741 335 721T358 651T329 600Q319 600 303 607T265 615T230 598T216 556T234 501T278 444T330 382Z" />
<glyph unicode="T" glyph-name="T" horiz-adv-x="228" d="M89 732L184 727Q232 727 254 738Q267 743 279 743Q302 743 302 710Q302 684 290 650L287 639Q268 580 202 580Q188 580 188 564Q185 475 185 320T198 71Q200 65 200 57Q200 33 177 15Q125 -27 52 -27Q17
-27 17 6L20 25Q53 280 53 562Q53 569 50 572T30 575T-5 564T-34 553Q-55 553 -55 582T-41 652T-1 712T89 732Z" />
<glyph unicode="U" glyph-name="U" horiz-adv-x="453" d="M176 502L171 372Q171 228 221 228Q247 228 261 252Q278 282 281 308T287 352T290 395T291 439V483Q291 572 281 618Q277 627 277 641Q277 681 327 711T415 742T453 710Q453 702 446 667T433 570T426 464T425
355T423 235T404 127T362 48T306 4Q258 -21 201 -21T101 14T43 99T27 210L32 445V496L31 551Q31 591 13 615Q1 627 1 643Q1 682 59 712T156 742T195 714Q195 712 191 676Q177 554 176 502Z" />
<glyph unicode="V" glyph-name="V" horiz-adv-x="350" d="M429 693Q411 560 364 400T280 145L242 51Q208 -27 127 -27Q76 -27 73 9Q63 120 42 255T4 470L-13 549Q-23 594 -43 613T-63 649Q-63 683 -10 713T83 744T129 706Q143 640 155 494Q171 347 185 292Q189
282 194 282T207 295T226 336T256 432T275 557T251 649Q245 657 245 669Q245 701 293 722T381 744Q430 744 430 704Q430 697 429 693Z" />
<glyph unicode="W" glyph-name="W" horiz-adv-x="632" d="M356 9Q331 303 317 303Q312 303 307 292Q251 109 225 51Q208 16 177 -5T103 -27Q85 -27 73 -18T60 9Q52 120 31 255T-8 470L-25 549Q-35 595 -54 614T-74 649Q-74 682 -22 713T70 744T114 706Q128 640
140 494Q156 347 170 292Q174 282 180 282T191 293Q260 442 260 578Q260 622 251 642T241 677T260 707Q275 722 304 733T359 745T396 738T414 700T432 528Q452 347 465 292Q469 282 474 282T487 293Q513 353 533 426T553 557T529 649Q524 657 524 668Q524 700 571
722T662 744T706 704L705 693Q686 557 640 397T558 144L521 51Q487 -27 399 -27Q381 -27 369 -18T356 9Z" />
<glyph unicode="X" glyph-name="X" horiz-adv-x="506" d="M341 377Q363 302 402 228T473 138L487 132Q501 127 506 122T511 107Q511 66 457 21T363 -25Q345 -25 332 -16T314 4L310 14Q300 28 277 93T235 229Q232 239 228 239Q222 239 218 231Q188 174 149 72L137
41Q114 -15 41 -15T-33 15Q-33 28 -16 47Q17 79 63 163T140 315L169 383Q174 396 174 410L171 430Q138 570 75 617Q54 633 54 653Q54 687 102 715T187 744T237 706Q255 663 282 570Q286 559 292 559T302 568Q343 657 354 700L357 709Q359 715 372 727T409 747T470
756Q526 756 526 731Q526 719 515 707T488 676T428 583T345 422Q339 409 339 396T341 377Z" />
<glyph unicode="Y" glyph-name="Y" horiz-adv-x="289" d="M251 658L247 685Q247 708 279 729T375 751Q422 751 422 724Q422 712 413 690T323 512T231 329Q214 281 211 232L210 215Q214 72 216 62T219 44Q219 20 196 1Q148 -36 66 -36Q32 -36 32 -4L35 16Q36 21
42 48T50 88T56 129Q64 189 64 240Q64 316 58 342Q26 446 -2 521L-12 546Q-29 596 -64 623Q-83 639 -83 658Q-83 694 -31 718T62 742T110 709Q113 698 124 650Q149 534 171 482Q174 474 178 474T188 481Q207 510 229 568T251 658Z" />
<glyph unicode="Z" glyph-name="Z" horiz-adv-x="415" d="M414 168Q414 -7 311 -14Q237 -22 152 -22Q0 -22 0 31Q0 69 36 159T110 320L146 392Q241 575 241 591T216 607T163 594T122 566L109 553Q93 533 76 533Q52 533 52 595T75 694Q91 719 128 725Q192 733 264
733T361 731T394 727T414 715T426 686T408 639T366 570T297 421T232 226Q230 220 230 204Q230 176 278 176T364 216Q370 224 385 224T407 213T414 168Z" />
<glyph unicode="[" glyph-name="bracketleft" horiz-adv-x="181" d="M121 670V35Q121 20 134 -6Q180 -67 180 -88Q180 -100 166 -100L141 -94Q56 -62 24 -12Q17 -1 15 12V693Q15 700 23 714T43 741Q74 772 141 799Q156 805 168 805T181 793Q181 780 169 762Q143
723 134 711Q121 683 121 670Z" />
<glyph unicode="\" glyph-name="backslash" horiz-adv-x="374" d="M345 -23Q332 -23 322 -17T305 2L-118 722Q-121 728 -121 733Q-121 751 -86 751Q-72 751 -62 747T-45 734L378 14Q385 5 385 -4Q385 -23 345 -23Z" />
<glyph unicode="]" glyph-name="bracketright" horiz-adv-x="181" d="M60 35V670Q60 683 47 711Q0 774 0 789T14 805L40 799Q95 777 126 751T162 708L166 693V12Q166 5 158 -9T138 -36Q104 -70 40 -94Q26 -100 14 -100T1 -84T47 -6Q60 21 60 35Z" />
<glyph unicode="^" glyph-name="asciicircum" horiz-adv-x="409" d="M333 171Q233 263 209 263Q197 263 82 178Q69 167 61 167Q50 167 50 179T61 210T87 248T133 303T179 338Q180 338 180 338Q193 338 207 322Q209 320 210 320T216 325Q228 338 238 338H242Q257
338 283 307T328 244L346 213Q359 191 359 179T348 166Q340 166 333 171Z" />
<glyph unicode="_" glyph-name="underscore" horiz-adv-x="474" d="M333 -17L449 -16Q472 -16 485 -27T499 -51T489 -73T462 -82L327 -81L6 -82Q-11 -82 -20 -74T-30 -53T-18 -29T18 -16Q223 -17 333 -17Z" />
<glyph unicode="`" glyph-name="grave" horiz-adv-x="389" d="M159 600Q142 606 140 619Q140 636 156 655T188 675T224 653Q252 622 267 592Q281 569 281 557T270 545Q263 545 255 549Q190 590 159 600Z" />
<glyph unicode="a" glyph-name="a" horiz-adv-x="389" d="M143 162Q143 120 173 120T221 151T240 206Q240 251 208 251Q179 251 161 222T143 162ZM358 321L355 182Q355 99 376 86Q389 76 389 60Q389 31 351 6T272 -19Q252 -19 242 -11T232 8Q232 35 225 35Q224
35 213 24T179 1T122 -11T61 6T24 50Q6 95 6 134T18 207T48 262T90 299T135 323T178 336Q209 342 221 342L231 355Q230 389 182 389T102 370Q90 362 78 362Q54 362 54 398Q54 491 202 491Q316 491 345 415Q358 381 358 321Z" />
<glyph unicode="b" glyph-name="b" horiz-adv-x="400" d="M170 447Q203 483 245 483T315 459T358 396Q385 322 385 253T366 126T301 27T191 -15Q149 -15 118 1T70 43T42 106Q25 166 25 258L28 343Q35 428 35 489L31 572Q29 589 21 602T-2 625Q-15 637 -15 648Q-15
672 5 688L12 693Q24 705 65 724T137 744T168 716Q157 622 157 448Q159 441 162 441T170 447ZM189 148T214 148T253 171T267 230T247 307T194 349Q172 349 159 326T145 274T150 220T172 172Z" />
<glyph unicode="c" glyph-name="c" horiz-adv-x="363" d="M308 190Q362 190 362 124Q361 84 345 55T310 11T262 -12Q225 -23 181 -23T102 -2T47 55Q11 123 11 219Q11 324 58 404Q81 445 122 469T221 493T318 464T359 372Q359 298 292 298Q275 298 264 310T252
335T251 356T239 379T212 394Q149 394 149 268Q149 230 156 193Q171 123 212 123Q243 123 254 155Q257 169 273 179T308 190Z" />
<glyph unicode="d" glyph-name="d" horiz-adv-x="437" d="M394 210L395 186V182Q395 129 427 107Q442 95 442 81T435 57Q413 25 380 6Q336 -20 303 -20T267 12Q265 37 257 37L250 33Q216 -14 160 -14Q119 -14 90 7T45 64Q16 132 16 217Q16 308 62 392Q85 432 124
457T210 483Q232 483 246 477L260 471Q267 471 268 487T270 528T268 570T263 595T256 608Q250 616 236 625Q223 634 223 650Q223 683 279 713T373 743Q401 743 404 718Q406 708 406 678T400 556T393 380V280L394 229V210ZM186 164Q223 164 245 206T268 281Q268
359 225 359Q190 359 167 315T143 230Q143 168 186 164Z" />
<glyph unicode="e" glyph-name="e" horiz-adv-x="367" d="M146 300Q146 294 150 290Q154 285 160 285Q217 290 236 339Q241 350 243 365Q242 400 215 400Q184 400 168 370T146 300ZM281 492T318 458T356 355T302 241T164 196Q152 196 152 184Q152 160 169 143T217
125T272 153T315 181T345 165T356 120T342 61T307 16T262 -8Q225 -22 184 -22T106 -2T50 52Q11 120 11 202T31 346T99 449T214 492Z" />
<glyph unicode="f" glyph-name="f" horiz-adv-x="238" d="M5 -80Q36 68 36 319T10 598Q1 610 1 629Q1 664 40 694Q48 700 61 709T116 732T196 747Q267 747 267 708Q267 681 245 669T205 641T180 613L174 602Q160 577 160 542T163 479Q163 466 183 465Q214 466
228 466Q255 466 255 437T241 376T200 342Q171 342 164 332Q159 323 159 205T168 30T177 -38T173 -58Q157 -89 122 -108Q73 -133 38 -133T2 -100L5 -80Z" />
<glyph unicode="g" glyph-name="g" horiz-adv-x="427" d="M406 487Q388 325 388 158T371 -83T303 -203T182 -250Q141 -250 111 -228T81 -165Q81 -140 94 -126T122 -108L136 -106Q172 -104 196 -87T231 -45Q247 -5 247 32V40Q246 47 240 47L230 42Q217 23 198 13T164
0L151 -1Q108 -1 78 21T36 80Q15 143 15 197T25 298T56 391T118 464T202 492T269 472Q272 466 278 466T288 472Q325 519 375 519Q406 519 406 487ZM234 169T249 195T265 265T247 341T205 373T166 347T150 278T167 202T209 169Z" />
<glyph unicode="h" glyph-name="h" horiz-adv-x="408" d="M160 461L161 435Q163 428 167 428T175 432Q188 452 218 468T275 485Q316 485 337 453T365 380Q371 310 371 263T369 175Q369 104 401 84Q417 75 417 62T410 37Q394 13 363 -1T308 -16L285 -18Q255 -17
245 -1T235 49L244 221Q245 234 245 255Q245 337 208 337Q184 337 171 309T156 247T154 171L160 47Q160 14 137 -2Q102 -26 52 -26T1 7L4 25Q36 180 36 437Q37 473 37 516T36 575T26 603T3 626Q-10 636 -10 649Q-10 683 46 713T135 743Q172 743 172 687Q172 646
166 571T160 461Z" />
<glyph unicode="i" glyph-name="i" horiz-adv-x="216" d="M45 327Q45 343 38 357T18 382T6 406Q6 440 58 466T145 493T182 457Q182 432 178 368T173 248Q173 115 197 81Q211 73 211 56Q211 23 175 4T92 -15Q31 -15 31 26Q31 28 34 49Q48 129 48 228L45 327ZM192
645Q192 608 157 586T88 563T37 575T18 609Q18 647 54 670T122 694T173 681T192 645Z" />
<glyph unicode="j" glyph-name="j" horiz-adv-x="216" d="M177 90L178 11Q178 -65 165 -113Q148 -163 111 -192T31 -221T-34 -203T-62 -166L-67 -148Q-68 -143 -68 -130T-61 -107T-38 -94Q-12 -94 7 -77T32 -46T39 -28Q54 51 54 194L51 327Q50 343 43 357T23 382T11
406Q11 440 63 466T151 493T187 448Q187 423 182 349Q177 193 177 90ZM199 645Q196 608 162 586T96 563T45 576T25 612Q25 648 61 671T130 694T180 681T199 645Z" />
<glyph unicode="k" glyph-name="k" horiz-adv-x="417" d="M172 675L161 418Q161 388 162 377T167 365T176 369T216 418T273 482T318 500T365 480T389 436T361 411Q323 411 303 375Q299 368 299 353T310 287T346 176T400 109Q426 100 426 81Q426 46 384 16T313
-15T270 6T240 94T214 215L205 270Q202 285 194 285Q181 285 172 269T162 235T160 177T163 96T167 47Q167 14 144 -2Q110 -26 50 -26Q8 -26 8 8L11 25Q38 166 38 437Q39 473 39 516T37 575T27 603T5 625T-9 650Q-9 682 44 712T133 743T171 707Q172 695 172 675Z"
/>
<glyph unicode="l" glyph-name="l" horiz-adv-x="224" d="M182 707Q182 648 176 555T169 355T171 179T206 85Q223 75 223 54T197 15Q149 -18 89 -18Q48 -18 38 16Q35 30 35 49T36 94T40 159Q49 339 49 443T46 570Q42 606 21 621L14 626Q1 635 1 650Q1 683 57 713T146
743Q182 743 182 707Z" />
<glyph unicode="m" glyph-name="m" horiz-adv-x="638" d="M167 255L165 180Q165 110 168 83T171 48Q171 15 148 -1Q110 -27 53 -27Q12 -27 12 8L14 24Q40 146 40 330Q40 346 33 359T11 383Q0 393 0 405Q0 437 53 467T136 497T169 464Q171 450 172 435Q174 428
179 428Q180 428 185 431Q198 451 229 468T291 485Q358 485 378 419Q380 416 383 416T390 421Q428 485 505 485Q568 485 584 420Q596 372 596 306L591 179Q591 102 625 84Q642 75 642 58Q642 29 602 6T516 -18T464 16Q462 25 462 62L468 221Q469 231 469 248Q469
336 432 336Q408 336 396 308T382 254T381 190T382 122T386 76T388 54Q388 24 363 4T288 -16T238 16L242 39Q256 104 256 251Q256 339 218 339Q193 339 180 311T167 255Z" />
<glyph unicode="n" glyph-name="n" horiz-adv-x="440" d="M173 255L171 180Q171 150 174 99L177 48Q177 15 154 -1Q117 -27 59 -27Q18 -27 18 8L20 24Q45 141 45 222T41 330T18 375T1 406Q1 439 53 469T135 499T170 466Q172 422 181 422Q184 422 188 425Q192 432
200 442T237 468T303 485T364 455T393 384Q395 367 395 328L391 180Q391 112 422 87Q440 78 440 65T432 40Q394 -14 308 -14Q267 -13 260 19Q257 33 257 62T262 155T268 249Q268 338 228 338Q202 338 188 310T173 255Z" />
<glyph unicode="o" glyph-name="o" horiz-adv-x="393" d="M205 499Q292 499 337 423T383 237Q383 92 300 17Q254 -24 198 -24T106 -1T50 60Q11 134 11 218Q11 316 56 402Q78 445 117 472T205 499ZM263 316T251 340T212 364T159 326T133 232Q133 155 184 155Q212
155 237 190T263 286Q263 316 251 340Z" />
<glyph unicode="p" glyph-name="p" horiz-adv-x="430" d="M143 501Q176 501 176 442Q179 436 182 436T190 441T200 454T228 474T282 486T344 465T390 406Q420 337 420 238Q420 207 409 157T381 74T332 14T255 -12Q231 -12 212 -4T186 12L178 19Q175 22 172 22Q167
22 165 13Q162 -37 162 -85T164 -162T167 -198Q167 -231 144 -249Q91 -294 15 -294Q-15 -294 -15 -265L-12 -247Q15 -170 28 -73T44 94T47 235T46 328Q43 365 20 378L13 383Q0 395 0 407Q0 441 52 471T143 501ZM175 224T192 192T234 159T274 185T290 255T272 331T230
364T191 337T175 267Z" />
<glyph unicode="q" glyph-name="q" horiz-adv-x="440" d="M368 -34Q368 -163 389 -247Q390 -252 390 -259Q390 -293 356 -293Q283 -293 236 -249Q218 -232 218 -206L221 -186Q236 -110 241 13Q239 22 236 22T228 19Q207 -12 155 -12T68 22T22 100T10 193T19 289T49
384T107 462T195 492Q223 492 243 484T271 468L278 460Q282 454 286 454L296 460Q306 476 330 489T384 503T414 484Q414 479 408 456T392 372T380 274L374 196Q375 184 383 184Q386 184 396 188T421 193Q440 193 440 176Q440 164 422 130T398 82Q381 50 375 22L368
-34ZM142 225T160 192T202 159T241 185T257 255T239 331T197 364T158 338T142 268Z" />
<glyph unicode="r" glyph-name="r" d="M173 77L175 52Q175 19 152 3Q113 -24 53 -24Q15 -24 15 9L18 26Q42 144 42 315Q42 367 11 389Q0 396 0 412Q0 443 49 472T129 502T163 469Q167 446 167 435T175 423Q180 423 182 427T187 436T199 452T218 472Q244 495 276
495Q297 495 318 482Q357 458 357 387Q357 342 339 309T281 276Q231 276 231 331L232 346Q232 363 218 363Q165 363 165 210Q165 170 173 77Z" />
<glyph unicode="s" glyph-name="s" horiz-adv-x="350" d="M192 501Q324 501 324 423Q324 401 310 386T277 371T241 381T203 391Q152 391 152 362Q152 349 168 340Q286 281 310 244Q339 201 339 141Q339 119 329 88T302 36T248 -4T160 -22Q124 -22 83 -10Q0 14
0 89Q0 124 20 149T70 175T113 157Q114 156 119 148T128 136Q141 123 162 123T195 133T207 162T179 199T118 232T56 276T28 348Q28 418 73 459T192 501Z" />
<glyph unicode="t" glyph-name="t" horiz-adv-x="240" d="M164 633L162 585Q162 559 173 556T196 553T229 555Q250 555 250 528Q250 477 177 449Q167 445 163 431Q157 370 157 288T163 180Q168 156 199 151Q206 151 212 144Q223 131 223 119T221 95T212 63T193
25T158 -6T106 -19Q56 -19 34 40Q26 63 26 95L34 364Q34 413 29 444T-10 502Q-24 512 -24 530T-6 566Q49 600 95 673Q109 692 130 692Q164 692 164 633Z" />
<glyph unicode="u" glyph-name="u" horiz-adv-x="439" d="M28 142L31 304Q31 333 26 354T11 388T0 415Q0 446 50 472T127 499T163 488T173 448T168 357T163 281Q163 172 210 172Q244 172 256 243Q261 269 261 301Q261 365 250 396Q239 410 239 423Q239 453 284
473T363 494T398 460T392 352T385 237T386 177T396 125T422 80Q439 72 439 59T431 34Q394 -17 314 -17Q269 -14 263 17L256 51Q255 58 250 58L242 54Q206 -14 132 -14Q28 -12 28 142Z" />
<glyph unicode="v" glyph-name="v" horiz-adv-x="401" d="M373 506T387 470T401 391T388 301T354 216Q314 142 282 101L268 84Q187 -22 142 -22Q83 -22 48 237Q41 289 29 323T7 366L-2 374Q-19 387 -19 403Q-19 433 30 462T112 491T150 457Q159 421 169 321T201
182Q205 172 213 172T229 180Q277 234 277 318Q277 342 265 367T237 401Q222 411 222 424Q222 454 263 480T338 506Z" />
<glyph unicode="w" glyph-name="w" horiz-adv-x="628" d="M291 124Q186 -22 139 -22Q106 -22 84 58Q66 126 56 185T46 247Q37 295 25 327T6 366L-2 374Q-20 388 -20 404Q-20 433 29 462T110 491T147 457Q155 421 165 320T197 179Q204 169 212 169T226 178Q263
224 268 277Q266 345 251 379Q249 384 239 397T228 421Q228 446 272 471T351 497T387 462Q394 407 398 350Q411 219 432 179Q437 170 445 170T463 180Q507 232 507 322Q503 380 468 401Q453 411 453 424Q453 456 494 481T568 506T614 470T628 378T596 244T521 111T437
16T375 -22Q354 -22 340 2Q323 33 316 62T306 105T302 123Q299 128 297 128T291 124Z" />
<glyph unicode="x" glyph-name="x" horiz-adv-x="419" d="M198 122Q193 132 188 132Q179 132 172 121Q140 65 136 27Q131 -20 65 -20Q37 -20 9 -8T-20 29Q-20 42 -10 52Q15 73 38 102Q81 162 104 216L113 236Q120 250 120 266L117 282Q74 366 25 391Q5 402 5 418Q5
445 44 470T114 495T162 460Q181 429 210 370Q215 357 222 357T235 367Q264 411 276 454T358 497T427 464Q427 452 421 444T412 433T402 422L391 411Q334 345 299 266Q295 257 295 245T306 215T341 174T378 143T404 133T425 122T434 98Q434 66 398 27T317 -12L303
-11Q281 -8 257 25T198 122Z" />
<glyph unicode="y" glyph-name="y" horiz-adv-x="415" d="M28 143L31 309Q31 356 16 381T0 416Q0 445 53 472T135 499Q173 499 173 450Q173 414 168 365T163 273Q163 183 204 183H208Q258 183 258 327Q258 368 246 396Q235 410 235 423Q235 452 282 473T364 494T399
460Q399 424 394 388Q385 310 385 204L388 79Q388 -30 374 -93T310 -203T190 -251Q149 -251 118 -228T87 -163Q87 -139 100 -125T128 -109L141 -107Q199 -106 225 -61T251 56Q251 73 246 73L237 69Q200 1 131 1Q28 1 28 143Z" />
<glyph unicode="z" glyph-name="z" horiz-adv-x="357" d="M254 320Q254 318 259 318T272 312T279 287T260 249T218 225Q215 225 208 217T194 192T188 172Q188 152 234 152T305 172Q318 181 329 181Q352 181 352 146Q352 102 338 60L334 46Q327 26 309 13T276 -3L262
-6Q220 -12 159 -12L56 -7Q-4 -2 -4 42Q-4 60 5 78Q18 120 66 200L82 228Q58 234 58 257T83 303T139 327Q146 327 165 364L171 376Q173 380 173 385T170 394Q164 399 136 399Q79 399 60 384Q49 375 40 375Q19 375 19 405Q19 426 29 458Q41 488 87 492T192 497T273
495T303 490T324 479T337 449T304 392Q254 331 254 320Z" />
<glyph unicode="{" glyph-name="braceleft" horiz-adv-x="216" d="M163 590L167 500Q167 413 97 361Q91 358 91 353T97 344Q167 292 167 204L163 115L166 59Q168 34 192 -8T216 -58Q216 -69 201 -69Q170 -69 131 -48T74 -2T56 78L59 178Q59 305 6 343Q0 347 0
351Q0 358 6 362Q59 402 59 530L56 627Q56 682 74 708T131 754T200 774Q216 774 216 762Q216 756 192 713T166 650T163 590Z" />
<glyph unicode="|" glyph-name="bar" horiz-adv-x="174" d="M40 10V14Q54 676 54 734Q54 752 83 752Q134 752 134 722L120 2Q120 -24 88 -24Q70 -24 55 -15T40 10Z" />
<glyph unicode="}" glyph-name="braceright" horiz-adv-x="216" d="M53 115L49 205Q49 292 119 344Q125 347 125 352T119 361Q49 413 49 501L53 590L50 646Q48 671 24 713T0 763Q0 774 15 774Q46 774 85 753T142 707T160 627L157 527Q157 400 210 362Q216 358
216 354Q216 347 210 343Q157 303 157 175L160 78Q160 23 142 -3T85 -49T16 -69Q0 -69 0 -57Q0 -51 24 -8T50 55T53 115Z" />
<glyph unicode="~" glyph-name="asciitilde" horiz-adv-x="413" d="M106 304L299 292Q326 292 343 308Q350 311 357 311Q374 311 374 287T351 232T301 200Q286 200 204 213T99 227T63 222T44 216Q28 216 28 235T51 279T106 304Z" />
<glyph unicode="&#xa1;" glyph-name="exclamdown" horiz-adv-x="230" d="M220 471Q217 434 183 412T116 390T65 402T47 436Q47 475 82 498T150 521Q218 521 220 471ZM77 254L76 291Q76 322 129 322Q138 322 147 321T172 310T187 280V275Q183 223 183 161T189 40T202
-44L208 -68Q214 -84 214 -98Q214 -137 171 -159T82 -182Q10 -182 10 -139L16 -114Q77 35 77 254Z" />
<glyph unicode="&#xa2;" glyph-name="cent" horiz-adv-x="370" d="M180 -65V-22Q84 -18 44 58Q10 124 10 217T54 389T180 487V526Q180 537 188 545T212 553Q239 553 239 533V491Q283 488 318 463T358 377Q358 298 291 298Q273 298 262 310T250 335T249 356T237
379T207 393T171 370T151 322T147 272T149 226T158 180T177 140T210 124Q241 124 252 155Q255 168 271 179T306 191Q360 191 360 124Q355 5 239 -17V-59Q239 -69 229 -77T201 -86Q180 -86 180 -65Z" />
<glyph unicode="&#xa3;" glyph-name="sterling" horiz-adv-x="372" d="M372 68T335 26T158 -16Q94 -16 62 -9T22 6T15 31L17 46Q38 161 40 372H-15Q-34 375 -34 394T-27 421T-7 431H40L36 553Q34 589 13 618Q0 631 0 645Q0 678 60 710T155 742T189 714Q176 614
174 559T171 431H257Q279 431 279 412Q279 397 272 387T248 372H171V329Q171 202 172 196T176 185T184 176Q196 167 221 167Q276 167 309 205Q325 221 341 221Q372 221 372 162Q372 68 335 26Z" />
<glyph unicode="&#xa4;" glyph-name="currency" horiz-adv-x="742" d="M515 255Q583 161 583 151T561 136T520 130T491 147L450 210Q408 193 364 193T285 210L243 148Q230 132 202 132Q152 132 152 149Q152 152 156 162Q188 210 225 264Q207 295 207 336Q207 408
252 458Q180 556 180 569Q180 589 240 589Q264 589 270 576T316 505Q355 523 399 523T484 503L516 553Q526 571 554 571Q610 571 610 556Q610 553 606 543L541 447Q560 414 560 371Q560 303 515 255ZM419 262T448 287T477 357T451 427T388 452T320 425T290 353T316
285T381 262Z" />
<glyph unicode="&#xa5;" glyph-name="yen" horiz-adv-x="289" d="M251 658L247 685Q247 708 279 729T375 751Q422 751 422 724Q422 712 417 701Q402 661 309 486H339Q362 486 362 464Q360 449 353 440T331 427H278Q269 408 252 374H332Q362 374 362 353Q362 342
353 331T331 315H226Q212 277 210 230V215Q214 72 216 62T219 44Q219 20 196 1Q148 -36 66 -36Q32 -36 32 -4L35 16Q36 21 42 48T50 88T56 129Q64 189 64 240T62 315H-28Q-48 317 -48 337Q-48 350 -41 360Q-30 374 -20 374H48Q42 393 30 427H-28Q-35 427 -41 433T-48
450T-41 470Q-30 486 -20 486H10L-12 546Q-29 596 -64 623Q-83 639 -83 658Q-83 694 -31 718T62 742T110 709Q113 696 123 650Q146 543 169 486H191Q211 517 231 572T251 658Z" />
<glyph unicode="&#xa6;" glyph-name="brokenbar" horiz-adv-x="174" d="M49 459L50 516Q54 649 54 734Q54 752 83 752Q134 752 134 722L129 451Q129 425 97 425Q79 425 64 434T49 459ZM38 12L39 69Q40 126 41 193T43 287Q43 305 72 305Q123 305 123 275L118 4Q118
-22 86 -22Q68 -22 53 -13T38 12Z" />
<glyph unicode="&#xa7;" glyph-name="section" horiz-adv-x="495" d="M62 234T39 257T16 310T34 366T80 410Q136 448 178 462L196 469Q206 472 206 477L201 485Q103 522 103 587Q103 607 120 633T159 676T226 707T330 721Q409 721 409 686Q409 680 399 672T378
662T359 659T331 652T295 641T266 623T253 596T277 567T337 543T407 518T466 478T491 414Q491 336 353 268Q343 262 343 257T351 247T371 233T402 201T422 160Q422 109 378 70T279 12T188 -6Q104 -6 104 30Q104 50 149 60Q203 71 229 102Q240 115 240 132T217 166T161
194T95 220ZM335 381Q335 397 320 409T281 421T218 399T180 341Q180 319 196 308T239 297T300 325T335 381Z" />
<glyph unicode="&#xa8;" glyph-name="dieresis" horiz-adv-x="389" d="M330 648T343 637T356 604T333 562T287 542T251 553T237 587T261 628T307 648ZM149 648T162 637T175 604T152 562T106 542T70 553T56 587T80 628T126 648Z" />
<glyph unicode="&#xa9;" glyph-name="copyright" horiz-adv-x="620" d="M57 80Q16 137 16 225T64 387T186 499T345 537Q456 537 538 471T621 273T521 58T289 -26Q133 -26 57 80ZM400 29T467 88T534 254T475 419T327 477T170 414T101 245T162 85T312 29ZM401 218Q440
218 440 170Q439 141 428 120T402 88T368 72Q341 64 313 64Q245 64 216 114T186 242T223 379T336 438Q379 438 408 417T437 350Q437 296 389 296Q377 296 369 305T360 323T359 338T351 355T331 366Q286 366 286 268T331 170Q354 170 362 193Q370 218 401 218Z"
/>
<glyph unicode="&#xaa;" glyph-name="ordfeminine" horiz-adv-x="331" d="M160 474T147 453T133 404T155 376T191 399T205 448T181 474Q160 474 147 453ZM294 527L292 422Q292 360 307 350Q317 343 317 331Q317 309 288 291T234 272T204 282T198 302T196 312T184
304Q159 278 125 278T71 290T43 324Q30 357 30 392T47 459T86 506T134 530Q170 542 191 542Q199 544 199 550V552Q198 578 162 578T109 568T84 557Q66 557 66 584Q66 654 177 654Q238 654 266 623T294 527Z" />
<glyph unicode="&#xab;" glyph-name="guillemotleft" horiz-adv-x="558" d="M546 40Q546 24 492 24Q468 24 448 32T385 86T308 174L275 216Q265 226 265 240T277 270T313 313T384 392T448 447Q462 455 504 455T547 439Q547 429 530 415Q524 409 514 400T477 364T430
316Q377 259 377 242T415 181T491 101L529 65Q546 51 546 40ZM164 294T148 272T131 237T169 181T246 101L284 65Q301 51 301 44Q301 31 289 28Q273 24 252 24Q213 24 200 33Q183 38 141 83T64 172L29 216Q20 226 20 240T30 266Q165 434 202 447Q225 455 263 455T301
439Q301 429 284 415Q278 409 268 400T231 364T184 316Z" />
<glyph unicode="&#xac;" glyph-name="logicalnot" horiz-adv-x="474" d="M435 247L437 92Q437 76 425 68T402 60T384 61T366 73T355 102V211H303L55 209Q42 209 35 219T28 246T37 276T64 291Q223 290 305 290T397 291Q415 290 425 277T435 247Z" />
<glyph unicode="&#xae;" glyph-name="registered" horiz-adv-x="620" d="M57 80Q16 137 16 225T64 387T186 499T345 537Q456 537 538 471T621 273T521 58T289 -26Q133 -26 57 80ZM400 29T467 88T534 254T475 419T327 477T170 414T101 245T162 85T312 29ZM306 296Q342
316 342 353T314 390T285 321V301Q287 293 295 293Q298 293 306 296ZM386 288Q378 284 378 278T379 270Q389 213 410 158Q416 141 429 133T443 115Q443 99 420 89T382 79T360 83T350 93T345 98Q332 126 325 180T317 238T307 241T289 231Q285 220 285 182T288 130T291
112Q291 95 266 84T220 72T200 87L201 97Q215 186 215 276L212 345Q212 356 204 369T195 389Q195 411 238 424T308 438T349 436T383 427T415 404T427 365Q427 319 386 288Z" />
<glyph unicode="&#xaf;" glyph-name="overscore" horiz-adv-x="389" d="M336 534Q322 535 262 535L86 534Q67 534 67 560Q67 572 73 581T92 592H329Q356 592 356 564T336 534Z" />
<glyph unicode="&#xb0;" glyph-name="degree" horiz-adv-x="285" d="M152 720Q185 720 209 702T246 654Q270 598 270 529T237 398T140 337T46 384T15 508T53 652T152 720ZM142 651Q100 651 100 551Q100 505 115 482T149 459T181 477T193 537T179 615T142 651Z" />
<glyph unicode="&#xb1;" glyph-name="plusminus" horiz-adv-x="480" d="M239 578Q283 578 281 550Q279 506 279 443H312Q411 443 428 444Q459 444 465 405Q465 363 436 362Q414 364 308 364H279L281 260Q281 244 269 236T246 228T228 229T210 241T199 269T200
363L47 362Q15 362 15 405Q15 430 37 440Q46 444 84 444T200 443V475L199 540Q199 556 209 565T229 576L239 578ZM437 127Q418 129 333 129L43 127Q30 127 23 137T16 164T25 194T52 209Q253 208 335 208T427 209Q445 208 455 195T465 166T458 139T437 127Z" />
<glyph unicode="&#xb2;" glyph-name="twosuperior" horiz-adv-x="298" d="M260 687Q271 668 271 646T269 608T258 575T246 549Q236 529 210 490L148 378Q143 368 143 360Q143 344 166 344Q210 344 224 362Q244 388 258 388Q278 388 278 358Q278 258 248 234Q236
220 136 220L53 222Q20 223 20 255Q20 298 66 381Q68 385 91 425T127 488T153 546T166 598T158 626T134 637T106 630T85 607T60 591Q40 591 40 631Q40 691 73 713T162 735Q230 735 260 687Z" />
<glyph unicode="&#xb3;" glyph-name="threesuperior" horiz-adv-x="285" d="M95 469L81 468Q65 468 65 493L69 522Q76 552 99 552T138 569T154 608Q154 650 113 650Q96 650 78 634Q67 622 56 622Q36 622 36 653Q36 737 144 737Q221 737 249 684Q260 664 260 638T252
592T234 560Q212 536 190 528Q185 526 185 521L189 515Q265 486 265 392Q265 345 252 311T222 260T183 234Q154 221 117 221T50 236T20 300Q20 320 27 360Q32 384 51 384Q61 384 68 375Q82 355 109 355T151 373T165 416T144 455T95 469Z" />
<glyph unicode="&#xb4;" glyph-name="acute" horiz-adv-x="389" d="M299 675T315 655T331 621T315 601Q285 592 233 560L216 549Q207 545 201 545Q190 545 190 562T224 627T283 675Q299 675 315 655Z" />
<glyph unicode="&#xb5;" glyph-name="mu" horiz-adv-x="439" d="M30 153L28 333Q27 349 20 363T0 388T-12 412Q-12 446 40 472T128 499H134Q154 499 163 488T173 448T168 357T163 281Q163 172 210 172Q244 172 256 243Q261 269 261 301Q261 365 250 396Q239 410
239 423Q239 453 284 473T363 494T398 460T392 352T385 237T386 177T396 125T422 80Q439 72 439 59T431 34Q394 -17 314 -17Q269 -14 263 17L256 51Q255 58 250 58L242 54Q211 -3 154 -12Q152 -67 142 -107Q125 -157 88 -186T8 -215T-57 -197T-85 -160L-90 -142Q-91
-137 -91 -124T-84 -101T-61 -88Q-35 -88 -16 -71T9 -40T16 -22Q30 49 30 153Z" />
<glyph unicode="&#xb6;" glyph-name="paragraph" horiz-adv-x="428" d="M417 660L414 625Q394 472 394 225L395 122Q399 75 408 48Q415 35 415 26Q415 -6 365 -6Q348 -6 338 1T322 26T316 118T317 255T321 377T326 485Q332 595 332 599Q332 641 303 641Q291 641
285 633T274 599T265 432T259 168L258 45Q258 -9 228 -9Q171 -9 171 68Q171 88 177 149T184 245L182 276Q181 300 167 319T141 346T110 363Q0 420 0 531Q0 619 71 671T250 723Q417 723 417 660Z" />
<glyph unicode="&#xb7;" glyph-name="middot" horiz-adv-x="189" d="M140 320T156 308T172 272T143 224T81 201T33 212T16 243Q16 274 46 297T108 320Z" />
<glyph unicode="&#xb8;" glyph-name="cedilla" horiz-adv-x="361" d="M223 -21Q200 -29 200 -41Q200 -49 220 -60T240 -90T217 -121T173 -133T151 -127Q151 -118 165 -108T180 -88T163 -72T145 -53T166 -27T205 -13T223 -21Z" />
<glyph unicode="&#xb9;" glyph-name="onesuperior" horiz-adv-x="201" d="M43 619Q20 625 20 643Q20 668 72 701T150 734T176 710Q176 702 173 622T170 434T178 287Q181 282 181 275Q181 250 146 234T84 218T58 242L60 255Q77 374 77 493L74 586Q74 612 43 619Z" />
<glyph unicode="&#xba;" glyph-name="ordmasculine" horiz-adv-x="329" d="M176 652Q241 652 275 595T309 458T272 319T166 259T63 315T30 430T44 535T93 616T176 652ZM219 514T210 532T181 550T141 521T122 451Q122 394 160 394Q181 394 200 420T219 480Z" />
<glyph unicode="&#xbb;" glyph-name="guillemotright" horiz-adv-x="556" d="M142 186T158 208T175 242T137 298T60 378L22 415Q5 429 5 439Q5 455 53 455Q86 455 104 447Q121 442 164 397T242 309L277 266Q287 255 287 244Q287 228 277 216Q147 49 106 33Q84
24 64 24T25 26T6 40T23 65Q29 71 39 80T76 116T122 164ZM388 186T404 208T421 242T383 298T306 378L268 415Q251 429 251 439Q251 455 289 455T346 448T409 396T487 308L522 266Q532 253 532 244Q532 227 520 212T485 168T416 89T352 33Q341 24 316 24Q251 24
251 41Q251 51 268 65Q274 71 284 80T321 116T368 164Z" />
<glyph unicode="&#xbc;" glyph-name="onequarter" horiz-adv-x="653" d="M415 740L222 27Q217 0 189 -8Q176 -12 165 -12Q145 -12 145 5L340 726Q350 756 395 756Q415 756 415 740ZM43 619Q20 625 20 643Q20 668 72 701T150 734T176 710Q176 702 173 622T170 434T178
287Q181 282 181 275Q181 250 146 234T84 218T58 242L60 255Q77 374 77 493L74 586Q74 612 43 619ZM427 251Q427 236 456 236T485 247V292L484 358Q482 364 478 364T469 357Q427 281 427 251ZM581 244L596 245Q610 245 610 230Q610 161 579 138Q572 136 572 126L571
113Q571 85 579 53Q582 48 582 41Q582 18 551 6T492 -6T464 18L467 30Q479 68 479 115Q479 124 468 124T431 123L362 125Q312 125 312 165Q320 220 363 304T438 436L471 482Q493 510 555 510Q586 510 586 489Q586 486 578 451T570 385T569 295V249Q569 244 581
244Z" />
<glyph unicode="&#xbd;" glyph-name="onehalf" horiz-adv-x="653" d="M415 740L222 27Q217 0 189 -8Q176 -12 165 -12Q145 -12 145 5L340 726Q350 756 395 756Q415 756 415 740ZM43 619Q20 625 20 643Q20 668 72 701T150 734T176 710Q176 702 173 622T170 434T178
287Q181 282 181 275Q181 250 146 234T84 218T58 242L60 255Q77 374 77 493L74 586Q74 612 43 619ZM596 469Q607 450 607 428T605 390T594 357T582 331Q572 311 546 272L484 160Q479 150 479 142Q479 126 502 126Q546 126 560 144Q580 170 594 170Q614 170 614
140Q614 40 584 16Q572 2 472 2L389 4Q356 5 356 37Q356 80 402 163Q404 167 427 207T463 270T489 328T502 380T494 408T470 419T442 412T421 389T396 373Q376 373 376 413Q376 473 409 495T498 517Q566 517 596 469Z" />
<glyph unicode="&#xbe;" glyph-name="threequarters" horiz-adv-x="714" d="M476 740L283 27Q278 0 250 -8Q237 -12 226 -12Q206 -12 206 5L401 726Q411 756 456 756Q476 756 476 740ZM488 251Q488 236 517 236T546 247V292L545 358Q543 364 539 364T530 357Q488
281 488 251ZM642 244L657 245Q671 245 671 230Q671 161 640 138Q633 136 633 126L632 113Q632 85 640 53Q643 48 643 41Q643 18 612 6T553 -6T525 18L528 30Q540 68 540 115Q540 124 529 124T492 123L423 125Q373 125 373 165Q381 220 424 304T500 436L532 482Q554
510 616 510Q647 510 647 489Q647 486 639 451T631 385T630 295V249Q630 244 642 244ZM95 469L81 468Q65 468 65 493L69 522Q76 552 99 552T138 569T154 608Q154 650 113 650Q96 650 78 634Q67 622 56 622Q36 622 36 653Q36 737 144 737Q221 737 249 684Q260 664
260 638T252 592T234 560Q212 536 190 528Q185 526 185 521L189 515Q265 486 265 392Q265 345 252 311T222 260T183 234Q154 221 117 221T50 236T20 300Q20 320 27 360Q32 384 51 384Q61 384 68 375Q82 355 109 355T151 373T165 416T144 455T95 469Z" />
<glyph unicode="&#xbf;" glyph-name="questiondown" horiz-adv-x="273" d="M261 474Q258 438 224 415T158 392T106 405T87 438Q87 477 122 500T191 523T242 510T261 474ZM309 -61Q309 -123 257 -160T136 -198T20 -162T-27 -58Q-27 -18 -7 21T38 87Q103 160 103
210Q103 233 96 250T89 278Q89 318 170 318Q195 318 222 303T250 262Q250 216 194 143Q167 110 147 71T127 7Q127 1 128 -7T142 -30T178 -44Q195 -44 214 -32T242 0Q251 14 269 14T298 -12T309 -61Z" />
<glyph unicode="&#xc0;" glyph-name="Agrave" horiz-adv-x="516" d="M511 92Q528 80 528 61Q528 24 479 -1T387 -26Q354 -26 339 -11Q327 1 326 24T324 75T323 124T313 161T296 180Q287 184 247 184T184 175Q162 165 142 82Q137 62 136 60Q109 -31 5 -31Q-44 -31
-44 -2Q-44 19 -28 44L-22 53Q52 188 112 391T173 639Q173 656 168 668T162 688Q162 738 248 738Q301 738 339 718T388 653Q430 323 462 209Q485 110 511 92ZM264 465Q263 477 257 477Q254 477 247 468Q206 360 206 319Q206 307 214 304T244 301T275 306T285 325Q277
413 267 454L264 465ZM206 800Q189 806 187 819Q187 836 203 855T235 875T271 853Q299 822 314 792Q328 769 328 757T317 745Q310 745 302 749Q237 790 206 800Z" />
<glyph unicode="&#xc1;" glyph-name="Aacute" horiz-adv-x="516" d="M511 92Q528 80 528 61Q528 24 479 -1T387 -26Q354 -26 339 -11Q327 1 326 24T324 75T323 124T313 161T296 180Q287 184 247 184T184 175Q162 165 142 82Q137 62 136 60Q109 -31 5 -31Q-44 -31
-44 -2Q-44 19 -28 44L-22 53Q52 188 112 391T173 639Q173 656 168 668T162 688Q162 738 248 738Q301 738 339 718T388 653Q430 323 462 209Q485 110 511 92ZM264 465Q263 477 257 477Q254 477 247 468Q206 360 206 319Q206 307 214 304T244 301T275 306T285 325Q277
413 267 454L264 465ZM325 893T341 873T357 839T341 819Q311 810 259 778L242 767Q233 763 227 763Q216 763 216 780T250 845T309 893Q325 893 341 873Z" />
<glyph unicode="&#xc2;" glyph-name="Acircumflex" horiz-adv-x="516" d="M511 92Q528 80 528 61Q528 24 479 -1T387 -26Q354 -26 339 -11Q327 1 326 24T324 75T323 124T313 161T296 180Q287 184 247 184T184 175Q162 165 142 82Q137 62 136 60Q109 -31 5 -31Q-44
-31 -44 -2Q-44 19 -28 44L-22 53Q52 188 112 391T173 639Q173 656 168 668T162 688Q162 738 248 738Q301 738 339 718T388 653Q430 323 462 209Q485 110 511 92ZM264 465Q263 477 257 477Q254 477 247 468Q206 360 206 319Q206 307 214 304T244 301T275 306T285
325Q277 413 267 454L264 465ZM355 757Q277 808 258 808Q252 808 204 780T149 752Q138 752 138 764T147 792T164 822T192 859T228 883Q229 883 229 883Q242 883 256 867Q258 865 259 865T266 870Q277 883 288 883H291Q306 883 325 862T356 820L368 799Q381 777
381 765T370 752Q362 752 355 757Z" />
<glyph unicode="&#xc3;" glyph-name="Atilde" horiz-adv-x="516" d="M381 768Q362 752 343 752T286 768T220 784T176 779T152 773Q135 773 135 793T168 839T246 865Q264 865 295 858T350 851T394 866Q403 871 413 871Q429 871 429 854Q429 809 381 768ZM511 92Q528
80 528 61Q528 24 479 -1T387 -26Q354 -26 339 -11Q327 1 326 24T324 75T323 124T313 161T296 180Q287 184 247 184T184 175Q162 165 142 82Q137 62 136 60Q109 -31 5 -31Q-44 -31 -44 -2Q-44 19 -28 44L-22 53Q52 188 112 391T173 639Q173 656 168 668T162 688Q162
738 248 738Q301 738 339 718T388 653Q430 323 462 209Q485 110 511 92ZM264 465Q263 477 257 477Q254 477 247 468Q206 360 206 319Q206 307 214 304T244 301T275 306T285 325Q277 413 267 454L264 465Z" />
<glyph unicode="&#xc4;" glyph-name="Adieresis" horiz-adv-x="516" d="M511 92Q528 80 528 61Q528 24 479 -1T387 -26Q354 -26 339 -11Q327 1 326 24T324 75T323 124T313 161T296 180Q287 184 247 184T184 175Q162 165 142 82Q137 62 136 60Q109 -31 5 -31Q-44
-31 -44 -2Q-44 19 -28 44L-22 53Q52 188 112 391T173 639Q173 656 168 668T162 688Q162 738 248 738Q301 738 339 718T388 653Q430 323 462 209Q485 110 511 92ZM264 465Q263 477 257 477Q254 477 247 468Q206 360 206 319Q206 307 214 304T244 301T275 306T285
325Q277 413 267 454L264 465ZM382 868T395 857T408 824T385 782T339 762T303 773T289 807T313 848T359 868ZM201 868T214 857T227 824T204 782T158 762T122 773T108 807T132 848T178 868Z" />
<glyph unicode="&#xc5;" glyph-name="Aring" horiz-adv-x="516" d="M511 92Q528 80 528 61Q528 24 479 -1T387 -26Q354 -26 339 -11Q327 1 326 24T324 75T323 124T313 161T296 180Q287 184 247 184T184 175Q162 165 142 82Q137 62 136 60Q109 -31 5 -31Q-44 -31
-44 -2Q-44 19 -28 44L-22 53Q52 188 112 391T173 639Q173 656 168 668T162 688Q162 738 248 738Q301 738 339 718T388 653Q430 323 462 209Q485 110 511 92ZM264 465Q263 477 257 477Q254 477 247 468Q206 360 206 319Q206 307 214 304T244 301T275 306T285 325Q277
413 267 454L264 465ZM312 901T329 887T346 846T317 792T256 765T209 778T192 818T220 873T280 901ZM260 863T247 851T234 827Q234 803 260 803Q277 803 290 814T303 838Q303 863 277 863Q260 863 247 851Z" />
<glyph unicode="&#xc6;" glyph-name="AE" horiz-adv-x="683" d="M559 477L605 478Q633 478 633 443T602 386T523 362Q462 362 458 338Q455 319 455 294T459 248T474 204Q498 155 564 155Q593 155 610 167T643 180T668 164T677 128Q677 64 628 26T510 -12Q488 -12
465 -7Q422 -26 396 -26T357 -22T339 -11T330 10T326 37T324 75T323 124T313 161T296 180Q287 184 247 184T184 175Q162 165 142 82Q137 62 136 60Q109 -31 5 -31Q-44 -31 -44 -2Q-44 19 -28 44L-22 53Q52 188 112 391T173 639Q173 656 168 668T162 688Q162 738
248 738Q301 738 339 718T388 653V645L392 650Q428 699 473 719T587 739T670 704T684 645Q684 591 650 591Q641 591 621 601T573 611Q524 611 495 575T465 492Q465 479 493 478T559 477ZM285 325Q280 355 280 371L264 465Q263 477 257 477Q254 477 247 468Q206
360 206 319Q206 307 214 304T244 301T275 306T285 325Z" />
<glyph unicode="&#xc7;" glyph-name="Ccedilla" horiz-adv-x="413" d="M413 174Q413 97 370 45T256 -18Q247 -19 237 -25T227 -41T251 -65T275 -97Q275 -124 249 -139T195 -154T168 -145T188 -120Q204 -109 204 -100Q204 -88 183 -80T162 -60T177 -37T192 -19Q144
-14 109 13T55 75T26 154Q10 219 10 276T13 377T26 474T52 572T95 655T159 716T237 738T293 733T318 728T343 736T386 744T412 723Q412 722 404 680T396 593T404 534T412 506Q412 481 389 467T339 453Q269 453 269 525Q269 541 275 568T281 603Q281 624 258 624Q226
624 194 566Q157 499 157 370Q157 314 169 270Q192 187 245 187Q291 187 316 237Q327 261 353 261T396 232T413 174Z" />
<glyph unicode="&#xc8;" glyph-name="Egrave" horiz-adv-x="405" d="M280 474L326 475Q354 475 354 440T323 383T244 359Q183 359 179 335Q176 316 176 291T180 245T195 202Q219 152 285 152Q314 152 331 164T364 177T389 161T398 125Q398 61 344 20T221 -22Q31
-22 31 259L35 336Q1 336 1 369Q1 395 16 427T53 468Q57 511 73 562T119 655Q178 736 301 736Q377 736 391 701T405 642Q405 588 371 588Q362 588 342 598T294 608Q245 608 216 572T186 489Q186 476 214 475T280 474ZM188 818Q171 824 169 837Q169 854 185 873T217
893T253 871Q281 840 296 810Q310 787 310 775T299 763Q292 763 284 767Q219 808 188 818Z" />
<glyph unicode="&#xc9;" glyph-name="Eacute" horiz-adv-x="405" d="M280 474L326 475Q354 475 354 440T323 383T244 359Q183 359 179 335Q176 316 176 291T180 245T195 202Q219 152 285 152Q314 152 331 164T364 177T389 161T398 125Q398 61 344 20T221 -22Q31
-22 31 259L35 336Q1 336 1 369Q1 395 16 427T53 468Q57 511 73 562T119 655Q178 736 301 736Q377 736 391 701T405 642Q405 588 371 588Q362 588 342 598T294 608Q245 608 216 572T186 489Q186 476 214 475T280 474ZM313 875T329 855T345 821T329 801Q299 792
247 760L230 749Q221 745 215 745Q204 745 204 762T238 827T297 875Q313 875 329 855Z" />
<glyph unicode="&#xca;" glyph-name="Ecircumflex" horiz-adv-x="405" d="M280 474L326 475Q354 475 354 440T323 383T244 359Q183 359 179 335Q176 316 176 291T180 245T195 202Q219 152 285 152Q314 152 331 164T364 177T389 161T398 125Q398 61 344 20T221
-22Q31 -22 31 259L35 336Q1 336 1 369Q1 395 16 427T53 468Q57 511 73 562T119 655Q178 736 301 736Q377 736 391 701T405 642Q405 588 371 588Q362 588 342 598T294 608Q245 608 216 572T186 489Q186 476 214 475T280 474ZM344 765Q266 816 247 816Q241 816 193
788T138 760Q127 760 127 772T136 800T153 830T181 867T217 891Q218 891 218 891Q231 891 245 875Q247 873 248 873T254 878Q266 891 276 891H280Q295 891 314 870T345 828L357 807Q370 785 370 773T359 760Q352 760 344 765Z" />
<glyph unicode="&#xcb;" glyph-name="Edieresis" horiz-adv-x="405" d="M280 474L326 475Q354 475 354 440T323 383T244 359Q183 359 179 335Q176 316 176 291T180 245T195 202Q219 152 285 152Q314 152 331 164T364 177T389 161T398 125Q398 61 344 20T221 -22Q31
-22 31 259L35 336Q1 336 1 369Q1 395 16 427T53 468Q57 511 73 562T119 655Q178 736 301 736Q377 736 391 701T405 642Q405 588 371 588Q362 588 342 598T294 608Q245 608 216 572T186 489Q186 476 214 475T280 474ZM369 873T382 862T395 829T372 787T326 767T290
778T276 812T300 853T346 873ZM188 873T201 862T214 829T191 787T145 767T109 778T95 812T119 853T165 873Z" />
<glyph unicode="&#xcc;" glyph-name="Igrave" horiz-adv-x="196" d="M186 9T136 -14T50 -38T13 -5L16 14Q41 195 41 391L36 546Q34 582 12 610Q1 621 1 637Q1 673 56 703T144 734T179 701Q180 689 180 652T175 549Q172 440 172 278T183 60Q186 54 186 45Q186 9
136 -14ZM47 816Q30 822 28 835Q28 852 44 871T76 891T112 869Q140 838 155 808Q169 785 169 773T158 761Q151 761 143 765Q78 806 47 816Z" />
<glyph unicode="&#xcd;" glyph-name="Iacute" horiz-adv-x="196" d="M186 9T136 -14T50 -38T13 -5L16 14Q41 195 41 391L36 546Q34 582 12 610Q1 621 1 637Q1 673 56 703T144 734T179 701Q180 689 180 652T175 549Q172 440 172 278T183 60Q186 54 186 45Q186 9
136 -14ZM137 875T153 855T169 821T153 801Q123 792 71 760L54 749Q45 745 39 745Q28 745 28 762T62 827T121 875Q137 875 153 855Z" />
<glyph unicode="&#xce;" glyph-name="Icircumflex" horiz-adv-x="196" d="M186 9T136 -14T50 -38T13 -5L16 14Q41 195 41 391L36 546Q34 582 12 610Q1 621 1 637Q1 673 56 703T144 734T179 701Q180 689 180 652T175 549Q172 440 172 278T183 60Q186 54 186 45Q186
9 136 -14ZM194 744Q116 795 97 795Q91 795 43 767T-12 739Q-23 739 -23 751T-14 779T3 809T31 846T67 870Q68 870 68 870Q81 870 95 854Q97 852 98 852T104 857Q116 870 126 870H130Q145 870 164 849T195 807L207 786Q220 764 220 752T209 739Q201 739 194 744Z"
/>
<glyph unicode="&#xcf;" glyph-name="Idieresis" horiz-adv-x="196" d="M186 9T136 -14T50 -38T13 -5L16 14Q41 195 41 391L36 546Q34 582 12 610Q1 621 1 637Q1 673 56 703T144 734T179 701Q180 689 180 652T175 549Q172 440 172 278T183 60Q186 54 186 45Q186
9 136 -14ZM235 858T248 847T261 814T238 772T192 752T156 763T142 797T166 838T212 858ZM54 858T67 847T80 814T57 772T11 752T-25 763T-39 797T-15 838T31 858Z" />
<glyph unicode="&#xd0;" glyph-name="Eth" horiz-adv-x="443" d="M0 59L1 68Q24 207 29 332L-24 331Q-43 331 -43 370T-18 413Q3 412 31 412Q31 542 14 605L9 626Q4 636 4 650Q4 686 42 709Q81 737 163 737T299 706T383 621Q442 517 442 379Q442 252 404 155Q384
102 352 64T270 3T155 -21Q107 -21 70 -10T16 18T0 59ZM222 331Q200 333 168 333V299Q168 230 173 167Q173 145 195 145Q288 145 288 397Q288 562 242 609Q226 626 212 626Q187 626 184 601Q172 526 170 412Q209 412 215 413Q228 412 235 399T242 369Q242 334 222
331Z" />
<glyph unicode="&#xd1;" glyph-name="Ntilde" horiz-adv-x="498" d="M381 768Q362 752 343 752T286 768T220 784T176 779T152 773Q135 773 135 793T168 839T246 865Q264 865 295 858T350 851T394 866Q403 871 413 871Q429 871 429 854Q429 809 381 768ZM51 474L49
533V539Q49 568 36 600L32 610Q21 624 21 643T43 681T97 712Q164 735 211 735T267 695Q279 655 293 587T314 495Q330 428 349 391Q352 388 356 388Q366 388 368 411Q368 501 365 550T361 626T364 662Q375 695 409 717T475 739T507 714Q507 708 493 638Q459 461
459 208Q459 124 465 31V27Q465 -5 431 -14Q405 -21 376 -21T308 -8T264 37Q236 205 191 374L176 431Q170 447 162 447Q145 447 145 237Q145 165 148 110T151 45Q151 18 133 0T87 -26Q42 -39 16 -39T-10 -15Q-10 -7 6 52T25 128Q51 258 51 443V474Z" />
<glyph unicode="&#xd2;" glyph-name="Ograve" horiz-adv-x="469" d="M245 746Q294 746 338 715Q459 630 459 341Q459 215 408 102Q383 45 336 10T233 -25T137 -1T74 61T35 146Q10 227 10 305T21 450T56 586T129 701T245 746ZM256 624Q225 624 199 571T159 449T145
319T162 225T208 192Q251 192 282 267T314 483T256 624ZM183 828Q166 834 164 847Q164 865 180 884T212 903T248 881Q276 850 291 820Q305 797 305 785T294 773Q287 773 279 777Q214 818 183 828Z" />
<glyph unicode="&#xd3;" glyph-name="Oacute" horiz-adv-x="469" d="M245 746Q294 746 338 715Q459 630 459 341Q459 215 408 102Q383 45 336 10T233 -25T137 -1T74 61T35 146Q10 227 10 305T21 450T56 586T129 701T245 746ZM256 624Q225 624 199 571T159 449T145
319T162 225T208 192Q251 192 282 267T314 483T256 624ZM290 903T306 883T322 849T306 829Q276 820 224 788L207 777Q198 773 192 773Q181 773 181 790T215 855T274 903Q290 903 306 883Z" />
<glyph unicode="&#xd4;" glyph-name="Ocircumflex" horiz-adv-x="469" d="M245 746Q294 746 338 715Q459 630 459 341Q459 215 408 102Q383 45 336 10T233 -25T137 -1T74 61T35 146Q10 227 10 305T21 450T56 586T129 701T245 746ZM256 624Q225 624 199 571T159
449T145 319T162 225T208 192Q251 192 282 267T314 483T256 624ZM330 761Q252 812 233 812Q227 812 179 784T124 756Q113 756 113 768T122 796T139 826T167 863T203 887Q204 887 204 887Q217 887 231 871Q233 869 234 869T240 874Q252 887 262 887H266Q281 887
300 866T331 824L343 803Q356 781 356 769T345 756Q338 756 330 761Z" />
<glyph unicode="&#xd5;" glyph-name="Otilde" horiz-adv-x="469" d="M381 768Q362 752 343 752T286 768T220 784T176 779T152 773Q135 773 135 793T168 839T246 865Q264 865 295 858T350 851T394 866Q403 871 413 871Q429 871 429 854Q429 809 381 768ZM245 746Q294
746 338 715Q459 630 459 341Q459 215 408 102Q383 45 336 10T233 -25T137 -1T74 61T35 146Q10 227 10 305T21 450T56 586T129 701T245 746ZM256 624Q225 624 199 571T159 449T145 319T162 225T208 192Q251 192 282 267T314 483T256 624Z" />
<glyph unicode="&#xd6;" glyph-name="Odieresis" horiz-adv-x="469" d="M245 746Q294 746 338 715Q459 630 459 341Q459 215 408 102Q383 45 336 10T233 -25T137 -1T74 61T35 146Q10 227 10 305T21 450T56 586T129 701T245 746ZM256 624Q225 624 199 571T159 449T145
319T162 225T208 192Q251 192 282 267T314 483T256 624ZM365 876T378 865T391 832T368 790T322 770T286 781T272 815T296 856T342 876ZM184 876T197 865T210 832T187 790T141 770T105 781T91 815T115 856T161 876Z" />
<glyph unicode="&#xd7;" glyph-name="multiply" horiz-adv-x="379" d="M138 348Q66 451 45 482T24 526T42 544T77 551Q111 551 123 528Q128 518 190 425Q251 514 258 528Q272 552 315 552T359 531Q359 524 352 514L241 349L363 171Q369 161 369 151T356 135T328
128Q291 128 272 152Q234 206 189 272L108 152Q89 128 50 128T10 153Q10 161 17 171Q77 259 138 348Z" />
<glyph unicode="&#xd8;" glyph-name="Oslash" horiz-adv-x="469" d="M43 1Q32 -24 -2 -24T-37 -5Q-37 4 -30 13L40 132Q10 215 10 322Q10 452 56 586Q80 656 129 701T245 746T367 689L393 733Q402 750 435 750T469 732Q469 727 466 721L410 625Q459 521 459 341Q459
215 408 102Q383 45 336 10T227 -25Q132 -25 76 57L43 1ZM301 577Q286 624 256 624T199 571T159 449T145 320V311L301 577ZM208 192Q250 192 281 263T314 462L168 215Q184 192 208 192Z" />
<glyph unicode="&#xd9;" glyph-name="Ugrave" horiz-adv-x="453" d="M176 502L171 372Q171 228 221 228Q247 228 261 252Q278 282 281 308T287 352T290 395T291 439V483Q291 572 281 618Q277 627 277 641Q277 681 327 711T415 742T453 710Q453 702 446 667T433
570T426 464T425 355T423 235T404 127T362 48T306 4Q258 -21 201 -21T101 14T43 99T27 210L32 445V496L31 551Q31 591 13 615Q1 627 1 643Q1 682 59 712T156 742T195 714Q195 712 191 676Q177 554 176 502ZM170 813Q153 819 151 832Q151 850 167 869T199 888T235
866Q263 835 278 805Q292 782 292 770T281 758Q274 758 266 762Q201 803 170 813Z" />
<glyph unicode="&#xda;" glyph-name="Uacute" horiz-adv-x="453" d="M176 502L171 372Q171 228 221 228Q247 228 261 252Q278 282 281 308T287 352T290 395T291 439V483Q291 572 281 618Q277 627 277 641Q277 681 327 711T415 742T453 710Q453 702 446 667T433
570T426 464T425 355T423 235T404 127T362 48T306 4Q258 -21 201 -21T101 14T43 99T27 210L32 445V496L31 551Q31 591 13 615Q1 627 1 643Q1 682 59 712T156 742T195 714Q195 712 191 676Q177 554 176 502ZM291 910T307 890T323 856T307 836Q277 827 225 794L208
784Q199 780 193 780Q182 780 182 797T216 862T275 910Q291 910 307 890Z" />
<glyph unicode="&#xdb;" glyph-name="Ucircumflex" horiz-adv-x="453" d="M176 502L171 372Q171 228 221 228Q247 228 261 252Q278 282 281 308T287 352T290 395T291 439V483Q291 572 281 618Q277 627 277 641Q277 681 327 711T415 742T453 710Q453 702 446 667T433
570T426 464T425 355T423 235T404 127T362 48T306 4Q258 -21 201 -21T101 14T43 99T27 210L32 445V496L31 551Q31 591 13 615Q1 627 1 643Q1 682 59 712T156 742T195 714Q195 712 191 676Q177 554 176 502ZM335 774Q257 825 238 825Q232 825 184 797T129 769Q118
769 118 781T127 809T144 839T172 876T208 900Q209 900 209 900Q222 900 236 884Q238 882 239 882T246 887Q257 900 268 900H271Q286 900 305 879T336 837L348 816Q361 794 361 782T350 769Q342 769 335 774Z" />
<glyph unicode="&#xdc;" glyph-name="Udieresis" horiz-adv-x="453" d="M176 502L171 372Q171 228 221 228Q247 228 261 252Q278 282 281 308T287 352T290 395T291 439V483Q291 572 281 618Q277 627 277 641Q277 681 327 711T415 742T453 710Q453 702 446 667T433
570T426 464T425 355T423 235T404 127T362 48T306 4Q258 -21 201 -21T101 14T43 99T27 210L32 445V496L31 551Q31 591 13 615Q1 627 1 643Q1 682 59 712T156 742T195 714Q195 712 191 676Q177 554 176 502ZM357 881T370 870T383 837T360 795T314 775T278 786T264
820T288 861T334 881ZM176 881T189 870T202 837T179 795T133 775T97 786T83 820T107 861T153 881Z" />
<glyph unicode="&#xdd;" glyph-name="Yacute" horiz-adv-x="289" d="M251 658L247 685Q247 708 279 729T375 751Q422 751 422 724Q422 712 413 690T323 512T231 329Q214 281 211 232L210 215Q214 72 216 62T219 44Q219 20 196 1Q148 -36 66 -36Q32 -36 32 -4L35
16Q36 21 42 48T50 88T56 129Q64 189 64 240Q64 316 58 342Q26 446 -2 521L-12 546Q-29 596 -64 623Q-83 639 -83 658Q-83 694 -31 718T62 742T110 709Q113 698 124 650Q149 534 171 482Q174 474 178 474T188 481Q207 510 229 568T251 658ZM248 915T264 895T280
861T264 841Q234 832 182 800L165 789Q156 785 150 785Q139 785 139 802T173 867T232 915Q248 915 264 895Z" />
<glyph unicode="&#xde;" glyph-name="Thorn" horiz-adv-x="388" d="M174 149Q180 92 183 77T187 54Q187 18 138 -6T51 -30T13 6L15 22Q39 200 39 391Q39 485 34 528L32 546Q30 582 8 610Q-3 621 -3 637Q-3 673 52 703T140 734T175 701Q176 689 176 666T175 628Q184
629 214 629T279 621T350 594T406 538T427 446T405 341T354 260T284 204Q223 164 174 149ZM171 262Q180 262 192 270Q223 290 241 335Q265 395 265 430T261 483T250 509T236 523Q225 530 215 530Q184 530 169 491Q169 346 171 262Z" />
<glyph unicode="&#xdf;" glyph-name="germandbls" horiz-adv-x="473" d="M167 458L170 286L166 82Q166 45 143 21Q105 -19 27 -19Q-6 -19 -6 8Q-6 17 -1 32T14 110Q43 291 43 453Q43 526 33 575Q29 585 29 600Q29 645 75 673Q108 693 167 708T268 724T339 719T398
703T444 668T461 611Q461 548 398 494Q334 442 334 411Q334 388 362 363Q424 316 448 250Q459 222 459 180T443 97T404 38Q358 -1 321 -3L305 -4Q244 -4 224 29Q208 56 208 83T219 130T254 150Q278 153 292 168T310 198L312 212Q312 240 297 267T266 308L251 321Q210
351 210 385T255 465Q310 531 310 574Q310 601 295 618T256 636T215 626T192 604L186 594Q167 562 167 458Z" />
<glyph unicode="&#xe0;" glyph-name="agrave" horiz-adv-x="389" d="M143 162Q143 120 173 120T221 151T240 206Q240 251 208 251Q179 251 161 222T143 162ZM358 321L355 182Q355 99 376 86Q389 76 389 60Q389 31 351 6T272 -19Q252 -19 242 -11T232 8Q232 35
225 35Q224 35 213 24T179 1T122 -11T61 6T24 50Q6 95 6 134T18 207T48 262T90 299T135 323T178 336Q209 342 221 342L231 355Q230 389 182 389T102 370Q90 362 78 362Q54 362 54 398Q54 491 202 491Q316 491 345 415Q358 381 358 321ZM143 600Q126 606 124 619Q124
636 140 655T172 675T208 653Q236 622 251 592Q265 569 265 557T254 545Q247 545 239 549Q174 590 143 600Z" />
<glyph unicode="&#xe1;" glyph-name="aacute" horiz-adv-x="389" d="M143 162Q143 120 173 120T221 151T240 206Q240 251 208 251Q179 251 161 222T143 162ZM358 321L355 182Q355 99 376 86Q389 76 389 60Q389 31 351 6T272 -19Q252 -19 242 -11T232 8Q232 35
225 35Q224 35 213 24T179 1T122 -11T61 6T24 50Q6 95 6 134T18 207T48 262T90 299T135 323T178 336Q209 342 221 342L231 355Q230 389 182 389T102 370Q90 362 78 362Q54 362 54 398Q54 491 202 491Q316 491 345 415Q358 381 358 321ZM254 675T270 655T286 621T270
601Q240 592 188 560L171 549Q162 545 156 545Q145 545 145 562T179 627T238 675Q254 675 270 655Z" />
<glyph unicode="&#xe2;" glyph-name="acircumflex" horiz-adv-x="389" d="M143 162Q143 120 173 120T221 151T240 206Q240 251 208 251Q179 251 161 222T143 162ZM358 321L355 182Q355 99 376 86Q389 76 389 60Q389 31 351 6T272 -19Q252 -19 242 -11T232 8Q232
35 225 35Q224 35 213 24T179 1T122 -11T61 6T24 50Q6 95 6 134T18 207T48 262T90 299T135 323T178 336Q209 342 221 342L231 355Q230 389 182 389T102 370Q90 362 78 362Q54 362 54 398Q54 491 202 491Q316 491 345 415Q358 381 358 321ZM303 544Q225 595 206
595Q200 595 152 567T97 539Q86 539 86 551T95 579T112 609T140 646T176 670Q177 670 177 670Q190 670 204 654Q206 652 207 652T214 657Q225 670 236 670H239Q254 670 273 649T304 607L316 586Q329 564 329 552T318 539Q310 539 303 544Z" />
<glyph unicode="&#xe3;" glyph-name="atilde" horiz-adv-x="389" d="M143 162Q143 120 173 120T221 151T240 206Q240 251 208 251Q179 251 161 222T143 162ZM358 321L355 182Q355 99 376 86Q389 76 389 60Q389 31 351 6T272 -19Q252 -19 242 -11T232 8Q232 35
225 35Q224 35 213 24T179 1T122 -11T61 6T24 50Q6 95 6 134T18 207T48 262T90 299T135 323T178 336Q209 342 221 342L231 355Q230 389 182 389T102 370Q90 362 78 362Q54 362 54 398Q54 491 202 491Q316 491 345 415Q358 381 358 321ZM319 637Q336 637 336 613T313
558T263 526Q248 526 220 539T169 553T133 548T114 542Q98 542 98 561T121 605T172 630T224 624T268 618T305 634Q312 637 319 637Z" />
<glyph unicode="&#xe4;" glyph-name="adieresis" horiz-adv-x="389" d="M143 162Q143 120 173 120T221 151T240 206Q240 251 208 251Q179 251 161 222T143 162ZM358 321L355 182Q355 99 376 86Q389 76 389 60Q389 31 351 6T272 -19Q252 -19 242 -11T232 8Q232
35 225 35Q224 35 213 24T179 1T122 -11T61 6T24 50Q6 95 6 134T18 207T48 262T90 299T135 323T178 336Q209 342 221 342L231 355Q230 389 182 389T102 370Q90 362 78 362Q54 362 54 398Q54 491 202 491Q316 491 345 415Q358 381 358 321ZM319 648T332 637T345
604T322 562T276 542T240 553T226 587T250 628T296 648ZM138 648T151 637T164 604T141 562T95 542T59 553T45 587T69 628T115 648Z" />
<glyph unicode="&#xe5;" glyph-name="aring" horiz-adv-x="389" d="M143 162Q143 120 173 120T221 151T240 206Q240 251 208 251Q179 251 161 222T143 162ZM358 321L355 182Q355 99 376 86Q389 76 389 60Q389 31 351 6T272 -19Q252 -19 242 -11T232 8Q232 35 225
35Q224 35 213 24T179 1T122 -11T61 6T24 50Q6 95 6 134T18 207T48 262T90 299T135 323T178 336Q209 342 221 342L231 355Q230 389 182 389T102 370Q90 362 78 362Q54 362 54 398Q54 491 202 491Q316 491 345 415Q358 381 358 321ZM255 673T272 659T289 618T260
564T199 537T152 550T135 590T163 645T223 673ZM203 635T190 623T177 599Q177 575 203 575Q220 575 233 586T246 610Q246 635 220 635Q203 635 190 623Z" />
<glyph unicode="&#xe6;" glyph-name="ae" horiz-adv-x="589" d="M493 158Q514 185 535 185T567 168T578 129Q578 62 528 22T406 -18Q382 -18 359 -11T334 -3T315 -9T279 -16T251 -14T240 -6Q235 1 233 19T224 37Q220 37 211 26T180 4T144 -7L130 -8Q66 -8 36 33T6
141Q6 223 49 270Q98 322 178 339Q197 343 209 344H221Q230 346 230 355V358Q229 392 181 392T111 379T77 366Q53 366 53 406T89 470T196 494T313 461Q317 457 322 457T331 461Q375 496 437 496T539 463T578 363Q578 333 564 302T531 250T472 215T381 200Q373 200
373 192T375 173T393 146T438 130T493 158ZM174 123Q202 123 221 153T240 207Q240 254 210 254T161 225T142 160T174 123ZM435 404Q403 404 386 370T368 299Q368 289 381 289Q412 289 438 314T464 372Q464 385 456 394T435 404Z" />
<glyph unicode="&#xe7;" glyph-name="ccedilla" horiz-adv-x="361" d="M170 -22Q10 -3 10 219Q10 368 106 449Q156 492 226 492Q267 492 297 477Q353 448 357 377Q357 344 341 321T290 298Q273 298 262 310T250 335T248 356T236 379T210 393Q175 393 161 356T147
271Q147 124 210 124Q241 124 252 155Q255 168 269 179T299 191Q360 191 360 122T320 20T223 -21Q200 -29 200 -41Q200 -49 220 -60T240 -90T217 -121T173 -133T151 -127Q151 -118 165 -108T180 -88T163 -72T145 -56T158 -36T172 -24T170 -22Z" />
<glyph unicode="&#xe8;" glyph-name="egrave" horiz-adv-x="367" d="M146 300Q146 294 150 290Q154 285 160 285Q217 290 236 339Q241 350 243 365Q242 400 215 400Q184 400 168 370T146 300ZM281 492T318 458T356 355T302 241T164 196Q152 196 152 184Q152 160
169 143T217 125T272 153T315 181T345 165T356 120T342 61T307 16T262 -8Q225 -22 184 -22T106 -2T50 52Q11 120 11 202T31 346T99 449T214 492ZM132 600Q115 606 113 619Q113 636 129 655T161 675T197 653Q225 622 240 592Q254 569 254 557T243 545Q236 545 228
549Q163 590 132 600Z" />
<glyph unicode="&#xe9;" glyph-name="eacute" horiz-adv-x="367" d="M146 300Q146 294 150 290Q154 285 160 285Q217 290 236 339Q241 350 243 365Q242 400 215 400Q184 400 168 370T146 300ZM281 492T318 458T356 355T302 241T164 196Q152 196 152 184Q152 160
169 143T217 125T272 153T315 181T345 165T356 120T342 61T307 16T262 -8Q225 -22 184 -22T106 -2T50 52Q11 120 11 202T31 346T99 449T214 492ZM272 675T288 655T304 621T288 601Q258 592 206 560L189 549Q180 545 174 545Q163 545 163 562T197 627T256 675Q272
675 288 655Z" />
<glyph unicode="&#xea;" glyph-name="ecircumflex" horiz-adv-x="367" d="M146 300Q146 294 150 290Q154 285 160 285Q217 290 236 339Q241 350 243 365Q242 400 215 400Q184 400 168 370T146 300ZM281 492T318 458T356 355T302 241T164 196Q152 196 152 184Q152
160 169 143T217 125T272 153T315 181T345 165T356 120T342 61T307 16T262 -8Q225 -22 184 -22T106 -2T50 52Q11 120 11 202T31 346T99 449T214 492ZM290 544Q212 595 193 595Q187 595 139 567T84 539Q73 539 73 551T82 579T99 609T127 646T163 670Q164 670 164
670Q177 670 191 654Q193 652 194 652T200 657Q212 670 222 670H226Q241 670 260 649T291 607L303 586Q316 564 316 552T305 539Q298 539 290 544Z" />
<glyph unicode="&#xeb;" glyph-name="edieresis" horiz-adv-x="367" d="M146 300Q146 294 150 290Q154 285 160 285Q217 290 236 339Q241 350 243 365Q242 400 215 400Q184 400 168 370T146 300ZM281 492T318 458T356 355T302 241T164 196Q152 196 152 184Q152
160 169 143T217 125T272 153T315 181T345 165T356 120T342 61T307 16T262 -8Q225 -22 184 -22T106 -2T50 52Q11 120 11 202T31 346T99 449T214 492ZM322 648T335 637T348 604T325 562T279 542T243 553T229 587T253 628T299 648ZM141 648T154 637T167 604T144 562T98
542T62 553T48 587T72 628T118 648Z" />
<glyph unicode="&#xec;" glyph-name="igrave" horiz-adv-x="216" d="M45 327Q45 343 38 357T18 382T6 406Q6 440 58 466T145 493T182 457Q182 432 178 368T173 248Q173 115 197 81Q211 73 211 56Q211 23 175 4T92 -15Q31 -15 31 26Q31 28 34 49Q48 129 48 228L45
327ZM46 600Q29 606 27 619Q27 636 43 655T75 675T111 653Q139 622 154 592Q168 569 168 557T157 545Q150 545 142 549Q77 590 46 600Z" />
<glyph unicode="&#xed;" glyph-name="iacute" horiz-adv-x="216" d="M45 327Q45 343 38 357T18 382T6 406Q6 440 58 466T145 493T182 457Q182 432 178 368T173 248Q173 115 197 81Q211 73 211 56Q211 23 175 4T92 -15Q31 -15 31 26Q31 28 34 49Q48 129 48 228L45
327ZM158 675T174 655T190 621T174 601Q144 592 92 560L75 549Q66 545 60 545Q49 545 49 562T83 627T142 675Q158 675 174 655Z" />
<glyph unicode="&#xee;" glyph-name="icircumflex" horiz-adv-x="216" d="M45 327Q45 343 38 357T18 382T6 406Q6 440 58 466T145 493T182 457Q182 432 178 368T173 248Q173 115 197 81Q211 73 211 56Q211 23 175 4T92 -15Q31 -15 31 26Q31 28 34 49Q48 129 48
228L45 327ZM204 544Q126 595 107 595Q101 595 53 567T-2 539Q-13 539 -13 551T-4 579T13 609T41 646T77 670Q78 670 78 670Q91 670 105 654Q107 652 108 652T114 657Q126 670 136 670H140Q155 670 174 649T205 607L217 586Q230 564 230 552T219 539Q212 539 204
544Z" />
<glyph unicode="&#xef;" glyph-name="idieresis" horiz-adv-x="216" d="M45 327Q45 343 38 357T18 382T6 406Q6 440 58 466T145 493T182 457Q182 432 178 368T173 248Q173 115 197 81Q211 73 211 56Q211 23 175 4T92 -15Q31 -15 31 26Q31 28 34 49Q48 129 48 228L45
327ZM232 648T245 637T258 604T235 562T189 542T153 553T139 587T163 628T209 648ZM51 648T64 637T77 604T54 562T8 542T-28 553T-42 587T-18 628T28 648Z" />
<glyph unicode="&#xf0;" glyph-name="eth" horiz-adv-x="390" d="M175 525Q165 519 154 519T135 526T127 541Q127 552 136 563L206 618Q173 673 119 707Q114 713 114 720Q114 737 138 737Q209 737 272 669L330 714Q339 721 351 721T371 714T380 700Q380 687 369
676L304 625Q373 513 373 313Q373 206 336 112Q321 74 301 47T247 0T172 -19T99 -2T52 40T25 98Q10 149 10 199T19 291T46 373T100 441T182 477Q221 477 236 461Q241 456 245 456T250 464Q250 511 230 568L175 525ZM169 159T195 159T238 188T256 249T250 306T228
352T187 374T147 345T130 272T149 193Z" />
<glyph unicode="&#xf1;" glyph-name="ntilde" horiz-adv-x="440" d="M173 255L171 180Q171 150 174 99L177 48Q177 15 154 -1Q117 -27 59 -27Q18 -27 18 8L20 24Q45 141 45 222T41 330T18 375T1 406Q1 439 53 469T135 499T170 466Q172 422 181 422Q184 422 188
425Q192 432 200 442T237 468T303 485T364 455T393 384Q395 367 395 328L391 180Q391 112 422 87Q440 78 440 65T432 40Q394 -14 308 -14Q267 -13 260 19Q257 33 257 62T262 155T268 249Q268 338 228 338Q202 338 188 310T173 255ZM322 637Q339 637 339 613T316
558T266 526Q251 526 223 539T172 553T136 548T117 542Q101 542 101 561T124 605T175 630T227 624T271 618T308 634Q315 637 322 637Z" />
<glyph unicode="&#xf2;" glyph-name="ograve" horiz-adv-x="393" d="M205 499Q292 499 337 423T383 237Q383 92 300 17Q254 -24 198 -24T106 -1T50 60Q11 134 11 218Q11 316 56 402Q78 445 117 472T205 499ZM263 316T251 340T212 364T159 326T133 232Q133 155
184 155Q212 155 237 190T263 286Q263 316 251 340ZM145 600Q128 606 126 619Q126 636 142 655T174 675T210 653Q238 622 253 592Q267 569 267 557T256 545Q249 545 241 549Q176 590 145 600Z" />
<glyph unicode="&#xf3;" glyph-name="oacute" horiz-adv-x="393" d="M205 499Q292 499 337 423T383 237Q383 92 300 17Q254 -24 198 -24T106 -1T50 60Q11 134 11 218Q11 316 56 402Q78 445 117 472T205 499ZM263 316T251 340T212 364T159 326T133 232Q133 155
184 155Q212 155 237 190T263 286Q263 316 251 340ZM260 675T276 655T292 621T276 601Q246 592 194 560L177 549Q168 545 162 545Q151 545 151 562T185 627T244 675Q260 675 276 655Z" />
<glyph unicode="&#xf4;" glyph-name="ocircumflex" horiz-adv-x="393" d="M205 499Q292 499 337 423T383 237Q383 92 300 17Q254 -24 198 -24T106 -1T50 60Q11 134 11 218Q11 316 56 402Q78 445 117 472T205 499ZM263 316T251 340T212 364T159 326T133 232Q133
155 184 155Q212 155 237 190T263 286Q263 316 251 340ZM299 544Q221 595 202 595Q196 595 148 567T93 539Q82 539 82 551T91 579T108 609T136 646T172 670Q173 670 173 670Q186 670 200 654Q202 652 203 652T210 657Q221 670 232 670H235Q250 670 269 649T300
607L312 586Q325 564 325 552T314 539Q306 539 299 544Z" />
<glyph unicode="&#xf5;" glyph-name="otilde" horiz-adv-x="393" d="M205 499Q292 499 337 423T383 237Q383 92 300 17Q254 -24 198 -24T106 -1T50 60Q11 134 11 218Q11 316 56 402Q78 445 117 472T205 499ZM263 316T251 340T212 364T159 326T133 232Q133 155
184 155Q212 155 237 190T263 286Q263 316 251 340ZM299 637Q316 637 316 613T293 558T243 526Q228 526 200 539T149 553T113 548T94 542Q78 542 78 561T101 605T152 630T204 624T248 618T285 634Q292 637 299 637Z" />
<glyph unicode="&#xf6;" glyph-name="odieresis" horiz-adv-x="393" d="M205 499Q292 499 337 423T383 237Q383 92 300 17Q254 -24 198 -24T106 -1T50 60Q11 134 11 218Q11 316 56 402Q78 445 117 472T205 499ZM263 316T251 340T212 364T159 326T133 232Q133 155
184 155Q212 155 237 190T263 286Q263 316 251 340ZM321 648T334 637T347 604T324 562T278 542T242 553T228 587T252 628T298 648ZM140 648T153 637T166 604T143 562T97 542T61 553T47 587T71 628T117 648Z" />
<glyph unicode="&#xf7;" glyph-name="divide" horiz-adv-x="470" d="M423 394Q456 394 460 355Q460 313 432 312Q410 314 303 314L42 312Q10 312 10 355Q10 380 32 390Q41 394 52 394Q199 393 307 393L423 394ZM253 564Q306 564 306 518Q306 493 278 475T223 456T180
466T164 494Q164 525 193 544T253 564ZM253 252Q306 252 306 206Q306 181 278 163T223 144T180 154T164 182Q164 213 193 232T253 252Z" />
<glyph unicode="&#xf8;" glyph-name="oslash" horiz-adv-x="393" d="M72 -18Q64 -36 40 -36T15 -23L20 -10L55 50Q11 117 11 218Q11 316 56 402Q78 445 117 472T208 499T299 466L322 505Q328 517 352 517T376 504Q376 502 374 496L334 428Q383 355 383 237Q383
92 300 17Q254 -24 193 -24T89 11L72 -18ZM214 364Q184 364 159 326T133 232Q133 210 138 192L235 358Q226 364 214 364ZM184 155Q212 155 237 190T263 286Q263 298 262 305L174 156Q177 155 184 155Z" />
<glyph unicode="&#xf9;" glyph-name="ugrave" horiz-adv-x="439" d="M28 142L31 304Q31 333 26 354T11 388T0 415Q0 446 50 472T127 499T163 488T173 448T168 357T163 281Q163 172 210 172Q244 172 256 243Q261 269 261 301Q261 365 250 396Q239 410 239 423Q239
453 284 473T363 494T398 460T392 352T385 237T386 177T396 125T422 80Q439 72 439 59T431 34Q394 -17 314 -17Q269 -14 263 17L256 51Q255 58 250 58L242 54Q206 -14 132 -14Q28 -12 28 142ZM149 600Q132 606 130 619Q130 636 146 655T178 675T214 653Q242 622
257 592Q271 569 271 557T260 545Q253 545 245 549Q180 590 149 600Z" />
<glyph unicode="&#xfa;" glyph-name="uacute" horiz-adv-x="439" d="M28 142L31 304Q31 333 26 354T11 388T0 415Q0 446 50 472T127 499T163 488T173 448T168 357T163 281Q163 172 210 172Q244 172 256 243Q261 269 261 301Q261 365 250 396Q239 410 239 423Q239
453 284 473T363 494T398 460T392 352T385 237T386 177T396 125T422 80Q439 72 439 59T431 34Q394 -17 314 -17Q269 -14 263 17L256 51Q255 58 250 58L242 54Q206 -14 132 -14Q28 -12 28 142ZM286 675T302 655T318 621T302 601Q272 592 220 560L203 549Q194 545
188 545Q177 545 177 562T211 627T270 675Q286 675 302 655Z" />
<glyph unicode="&#xfb;" glyph-name="ucircumflex" horiz-adv-x="439" d="M28 142L31 304Q31 333 26 354T11 388T0 415Q0 446 50 472T127 499T163 488T173 448T168 357T163 281Q163 172 210 172Q244 172 256 243Q261 269 261 301Q261 365 250 396Q239 410 239
423Q239 453 284 473T363 494T398 460T392 352T385 237T386 177T396 125T422 80Q439 72 439 59T431 34Q394 -17 314 -17Q269 -14 263 17L256 51Q255 58 250 58L242 54Q206 -14 132 -14Q28 -12 28 142ZM315 544Q237 595 218 595Q212 595 164 567T109 539Q98 539
98 551T107 579T124 609T152 646T188 670Q189 670 189 670Q202 670 216 654Q218 652 219 652T226 657Q237 670 248 670H251Q266 670 285 649T316 607L328 586Q341 564 341 552T330 539Q322 539 315 544Z" />
<glyph unicode="&#xfc;" glyph-name="udieresis" horiz-adv-x="439" d="M28 142L31 304Q31 333 26 354T11 388T0 415Q0 446 50 472T127 499T163 488T173 448T168 357T163 281Q163 172 210 172Q244 172 256 243Q261 269 261 301Q261 365 250 396Q239 410 239 423Q239
453 284 473T363 494T398 460T392 352T385 237T386 177T396 125T422 80Q439 72 439 59T431 34Q394 -17 314 -17Q269 -14 263 17L256 51Q255 58 250 58L242 54Q206 -14 132 -14Q28 -12 28 142ZM343 648T356 637T369 604T346 562T300 542T264 553T250 587T274 628T320
648ZM162 648T175 637T188 604T165 562T119 542T83 553T69 587T93 628T139 648Z" />
<glyph unicode="&#xfd;" glyph-name="yacute" horiz-adv-x="415" d="M28 143L31 309Q31 356 16 381T0 416Q0 445 53 472T135 499Q173 499 173 450Q173 414 168 365T163 273Q163 183 204 183H208Q258 183 258 327Q258 368 246 396Q235 410 235 423Q235 452 282
473T364 494T399 460Q399 424 394 388Q385 310 385 204L388 79Q388 -30 374 -93T310 -203T190 -251Q149 -251 118 -228T87 -163Q87 -139 100 -125T128 -109L141 -107Q199 -106 225 -61T251 56Q251 73 246 73L237 69Q200 1 131 1Q28 1 28 143ZM274 675T290 655T306
621T290 601Q260 592 208 560L191 549Q182 545 176 545Q165 545 165 562T199 627T258 675Q274 675 290 655Z" />
<glyph unicode="&#xfe;" glyph-name="thorn" horiz-adv-x="418" d="M172 707Q172 648 168 585T161 448V442Q164 436 168 436T175 441T185 454T213 474T267 486T329 465T375 406Q405 337 405 238Q405 207 394 157T366 74T317 14T240 -12Q216 -12 197 -4T170 12L163
19Q160 22 158 22Q152 22 150 13Q147 -37 147 -85T149 -162T152 -198Q152 -231 129 -249Q76 -294 0 -294Q-30 -294 -30 -265L-27 -247Q26 -95 34 230Q39 412 39 480T36 570Q32 606 11 621L4 626Q-9 635 -9 650Q-9 683 47 713T136 743Q172 743 172 707ZM160 224T177
192T219 159T259 185T275 255T257 331T215 364T176 337T160 267Z" />
<glyph unicode="&#xff;" glyph-name="ydieresis" horiz-adv-x="415" d="M28 143L31 309Q31 356 16 381T0 416Q0 445 53 472T135 499Q173 499 173 450Q173 414 168 365T163 273Q163 183 204 183H208Q258 183 258 327Q258 368 246 396Q235 410 235 423Q235 452 282
473T364 494T399 460Q399 424 394 388Q385 310 385 204L388 79Q388 -30 374 -93T310 -203T190 -251Q149 -251 118 -228T87 -163Q87 -139 100 -125T128 -109L141 -107Q199 -106 225 -61T251 56Q251 73 246 73L237 69Q200 1 131 1Q28 1 28 143ZM338 648T351 637T364
604T341 562T295 542T259 553T245 587T269 628T315 648ZM157 648T170 637T183 604T160 562T114 542T78 553T64 587T88 628T134 648Z" />
<glyph unicode="&#x2013;" glyph-name="endash" horiz-adv-x="361" d="M303 209Q293 211 251 211L42 209Q28 209 28 248T46 291Q211 290 252 290T298 291Q317 290 317 251T303 209Z" />
<glyph unicode="&#x2014;" glyph-name="emdash" horiz-adv-x="649" d="M577 209Q558 211 473 211L55 209Q42 209 35 219T28 246T37 276T64 291Q393 290 475 290T567 291Q585 290 595 277T605 248T598 221T577 209Z" />
<glyph unicode="&#x2018;" glyph-name="quoteleft" horiz-adv-x="122" d="M57 557Q32 560 16 613T0 696T16 742T55 759Q102 759 102 717Q102 710 90 656T77 582T57 557Z" />
<glyph unicode="&#x2019;" glyph-name="quoteright" horiz-adv-x="112" d="M50 557Q34 561 32 581T20 655T10 717Q10 759 57 759Q80 759 96 742T112 697T94 615T50 557Z" />
<glyph unicode="&#x201a;" glyph-name="quotesinglbase" horiz-adv-x="194" d="M114 119Q179 119 179 53Q179 10 147 -44T74 -98Q59 -98 59 -86L62 -73Q77 -44 77 -28Q77 1 63 4L58 5Q16 12 16 43Q17 76 46 97T114 119Z" />
<glyph unicode="&#x201c;" glyph-name="quotedblleft" horiz-adv-x="271" d="M57 557Q32 560 16 613T0 696T16 742T55 759Q102 759 102 717Q102 710 90 656T77 582T57 557ZM206 557Q181 560 165 613T149 696T165 742T204 759Q251 759 251 718Q251 706 239 654T226
581T206 557Z" />
<glyph unicode="&#x201d;" glyph-name="quotedblright" horiz-adv-x="261" d="M199 557Q183 561 181 581T169 655T159 717Q159 759 206 759Q229 759 245 742T261 697T243 615T199 557ZM50 557Q31 561 30 580T20 652T10 718Q10 759 57 759Q80 759 96 742T112 697T94
615T50 557Z" />
<glyph unicode="&#x201e;" glyph-name="quotedblbase" horiz-adv-x="400" d="M114 119Q179 119 179 53Q179 10 147 -44T74 -98Q59 -98 59 -86L62 -73Q77 -44 77 -28Q77 1 63 4L58 5Q16 12 16 43Q17 76 46 97T114 119ZM320 119Q385 119 385 53Q385 10 353 -44T280
-98Q265 -98 265 -86L268 -73Q283 -44 283 -28Q283 1 269 4L264 5Q222 12 222 43Q223 76 252 97T320 119Z" />
<glyph unicode="&#x2022;" glyph-name="bullet" horiz-adv-x="189" d="M164 234T143 210T88 186T36 203T19 249T40 303T95 329T146 311T164 263Z" />
<glyph unicode="&#x2039;" glyph-name="guilsinglleft" horiz-adv-x="313" d="M301 40Q301 24 247 24Q224 24 204 32T140 86T64 174L30 216Q20 226 20 240T32 270T68 313T139 392T203 447Q217 455 259 455T302 439Q302 429 285 415Q279 409 269 400T232 364T185
316Q132 259 132 242T170 181T246 101L284 65Q301 51 301 40Z" />
<glyph unicode="&#x203a;" glyph-name="guilsinglright" horiz-adv-x="311" d="M142 186T158 208T175 242T137 298T60 378L22 415Q5 429 5 439Q5 455 53 455Q86 455 104 447Q121 442 164 397T242 309L277 266Q287 255 287 244Q287 228 277 216Q147 49 106 33Q84
24 64 24T25 26T6 40T23 65Q29 71 39 80T76 116T122 164Z" />
</font>
</defs>
</svg>
