<?xml version="1.0" standalone="no"?>
<!DOCTYPE svg PUBLIC "-//W3C//DTD SVG 1.1//EN" "http://www.w3.org/Graphics/SVG/1.1/DTD/svg11.dtd">
<svg xmlns="http://www.w3.org/2000/svg">
<defs >
<font id="Asap" horiz-adv-x="546" ><font-face
    font-family="Asap"
    units-per-em="1000"
    panose-1="2 15 8 4 3 2 2 13 2 3"
    ascent="934"
    descent="-212"
    alphabetic="0" />
<glyph unicode=" " glyph-name="space" horiz-adv-x="240" />
<glyph unicode="!" glyph-name="exclam" horiz-adv-x="294" d="M92 222T83 229T74 254L118 670Q121 702 181 702H224Q282 702 282 673Q282 654 222 406L187 254Q183 237 173 230T133 222H122Q92 222 83 229ZM57 -2T44 6T31 30L41 122Q44 154 104 154H136Q167 154
180 146T193 122L183 30Q180 -2 120 -2H88Q57 -2 44 6Z" />
<glyph unicode="&quot;" glyph-name="quotedbl" horiz-adv-x="319" d="M66 464T66 494V670Q66 702 129 702H136Q167 702 180 694T193 670Q193 663 163 541L152 494Q148 478 140 471T115 464H100Q66 464 66 494ZM212 464T212 494V670Q212 702 275 702H282Q313 702
326 694T339 670Q339 663 309 541L298 494Q294 478 286 471T261 464H246Q212 464 212 494Z" />
<glyph unicode="#" glyph-name="numbersign" horiz-adv-x="534" d="M40 -2T29 4T17 20Q17 28 28 62L64 183H21Q-4 183 -4 216V218Q-4 293 32 293H95L128 403H80Q66 403 60 411T54 437V439Q54 467 61 490T91 513H159L200 655Q209 686 260 686H273Q296 686 305 681T315
664Q315 659 310 641T301 612Q282 549 272 513H366L407 655Q416 686 467 686H480Q503 686 512 681T522 664Q522 659 517 641T508 612Q489 549 479 513H512Q538 513 538 479V477Q538 449 531 426T501 403H448L415 293H457Q483 293 483 259V257Q483 229 476 206T446
183H384L339 29Q330 -2 280 -2H267Q243 -2 234 3T225 21Q225 28 235 61Q255 125 271 183H177L132 29Q123 -2 73 -2H60Q40 -2 29 4ZM302 293L335 403H241L208 293H302Z" />
<glyph unicode="$" glyph-name="dollar" horiz-adv-x="496" d="M198 -75T195 -71T191 -55Q191 -47 196 -7Q153 -5 111 5T44 34Q24 51 24 70Q24 137 31 159T50 181Q56 181 76 168Q108 148 138 136T209 123L227 289Q170 313 135 333T73 390T47 483Q47 587 111 642T271
706L275 745Q276 765 297 765H314Q324 765 328 761T332 745L328 707Q369 706 402 697T456 674Q480 656 480 640Q480 627 469 606T443 568T416 551Q413 551 406 554T393 559Q354 575 314 576L298 420Q352 395 385 375T442 320T466 233Q466 118 405 61T253 -6L248
-55Q245 -75 226 -75H209Q198 -75 195 -71ZM256 571Q221 563 209 546T196 510Q196 474 243 447L256 571ZM317 151T317 203Q317 234 281 260L267 133Q317 151 317 203Z" />
<glyph unicode="%" glyph-name="percent" horiz-adv-x="765" d="M139 372T101 402T62 508Q62 620 113 664T232 708Q290 708 328 679T366 573Q366 461 316 417T197 372Q139 372 101 402ZM117 -2T117 10Q117 16 123 25L549 675Q566 702 595 702H639Q648 702 653
699T659 690Q659 684 653 675L227 25Q210 -2 181 -2H137Q117 -2 117 10ZM236 454T249 489T263 565Q263 622 223 622Q192 622 179 590T165 517Q165 454 205 454Q236 454 249 489ZM486 -8T448 21T410 127Q410 239 460 283T579 328Q637 328 675 298T714 191Q714 80
663 36T544 -8Q486 -8 448 21ZM582 74T596 108T610 182Q610 242 570 242Q538 242 525 209T512 134Q512 74 552 74Q582 74 596 108Z" />
<glyph unicode="&amp;" glyph-name="ampersand" horiz-adv-x="624" d="M536 309L519 142Q519 125 526 117T549 109Q562 109 573 112T587 115Q592 115 593 113T595 104Q595 85 588 44Q584 19 557 6T500 -8Q430 -8 397 32Q352 11 310 2T211 -8Q117 -8 62 41T6 177Q6
249 41 304T142 383V387Q106 403 85 435T64 512Q64 571 92 615T171 684T288 708Q334 708 364 701T394 669Q394 646 387 627T368 596T350 584Q346 584 332 587T302 591Q260 591 236 566T211 499Q211 465 236 446T306 426H400L409 501Q412 533 472 533H499Q527 533
541 524T556 502L548 426H607Q617 426 620 422T623 406V404Q623 373 607 341T565 309H536ZM156 153T180 131T246 109Q307 109 372 136L371 149L372 161Q376 207 381 250T388 309H285Q221 309 189 279T156 193Q156 153 180 131Z" />
<glyph unicode="&apos;" glyph-name="quotesingle" horiz-adv-x="183" d="M72 464T72 494V670Q72 702 135 702H142Q173 702 186 694T199 670Q199 663 169 541L158 494Q154 478 146 471T121 464H106Q72 464 72 494Z" />
<glyph unicode="(" glyph-name="parenleft" horiz-adv-x="301" d="M159 -208T149 -192Q98 -107 72 -7T46 200Q46 350 99 497T251 767Q264 783 280 783Q295 783 313 769T332 739Q332 729 325 717Q240 584 201 456T162 190Q162 107 178 29T233 -142Q236 -150 236
-156Q236 -174 215 -191T174 -208Q159 -208 149 -192Z" />
<glyph unicode=")" glyph-name="parenright" horiz-adv-x="301" d="M2 -208T-16 -194T-34 -164Q-34 -154 -27 -143Q58 -6 96 119T134 388Q134 472 118 547T63 717Q59 727 59 731Q59 749 80 766T122 783Q137 783 147 767Q198 681 224 582T251 378Q251 239 203 91T46
-192Q33 -208 17 -208Q2 -208 -16 -194Z" />
<glyph unicode="*" glyph-name="asterisk" horiz-adv-x="373" d="M107 411T97 420T86 439Q86 449 97 460L161 539L89 563Q70 569 70 585Q70 598 78 610T101 623Q105 623 115 621L189 596L198 678Q199 694 207 701T231 708Q247 708 252 701T258 678L249 596L327
621Q337 623 340 623Q350 623 357 615T365 592Q365 580 360 574T341 563L262 539L311 460Q317 451 317 443Q317 434 305 423T281 411Q268 411 259 426L209 509L141 426Q129 411 117 411Q107 411 97 420Z" />
<glyph unicode="+" glyph-name="plus" horiz-adv-x="560" d="M337 473T347 466T357 443L341 289H494Q508 289 514 281T520 253Q520 224 514 203T483 182H330L314 30Q313 14 300 7T261 0H247Q220 0 210 7T200 30L216 182H65Q51 182 45 190T39 216Q39 289 76 289H227L243
443Q244 459 257 466T296 473H310Q337 473 347 466Z" />
<glyph unicode="," glyph-name="comma" horiz-adv-x="198" d="M5 -125T-8 -120T-21 -105Q-21 -95 -13 -79Q-10 -72 3 -45T28 22T45 110Q48 154 109 154H128Q157 154 170 143T184 114Q184 74 154 17T84 -82T21 -125Q5 -125 -8 -120Z" />
<glyph unicode="-" glyph-name="hyphen" horiz-adv-x="320" d="M38 212T32 220T26 245V246Q26 319 63 319H267Q293 319 293 285V284Q293 257 286 235T256 212H52Q38 212 32 220Z" />
<glyph unicode="." glyph-name="period" horiz-adv-x="198" d="M22 -2T11 5T-1 30L8 122Q11 154 72 154H104Q135 154 147 146T160 122L151 30Q148 -2 87 -2H55Q22 -2 11 5Z" />
<glyph unicode="/" glyph-name="slash" horiz-adv-x="370" d="M-69 -79T-69 -64Q-69 -60 -63 -49L302 672Q317 702 367 702H391Q431 702 431 687Q431 682 426 672L60 -49Q45 -79 -4 -79H-28Q-69 -79 -69 -64Z" />
<glyph unicode="0" glyph-name="zero" horiz-adv-x="535" d="M132 -8T79 65T25 271Q25 404 61 503T160 655T304 708Q401 708 454 634T508 426Q508 294 472 196T373 45T229 -8Q132 -8 79 65ZM272 109T299 147T342 261T359 441Q359 515 342 553T292 591Q261 591
234 552T191 437T174 256Q174 183 191 146T241 109Q272 109 299 147Z" />
<glyph unicode="1" glyph-name="one" horiz-adv-x="535" d="M44 0T38 8T32 36V42Q34 117 70 117H203L250 566L112 546Q88 546 88 605Q88 631 93 643T118 658L371 704Q384 704 397 697T410 680L351 117H458Q472 117 478 109T484 81V77Q482 0 446 0H58Q44 0 38 8Z" />
<glyph unicode="2" glyph-name="two" horiz-adv-x="535" d="M23 0T15 29T6 85Q6 97 9 103L295 413Q316 435 329 464T343 518Q343 553 320 571T258 590Q228 590 206 581T161 558Q143 547 137 547Q117 547 102 568T87 611Q87 642 119 664T198 697T288 708Q350 708
397 685T469 623T494 537Q494 482 468 433T368 302L196 117H434Q448 117 454 109T460 81V76Q459 40 450 20T421 0H34Q23 0 15 29Z" />
<glyph unicode="3" glyph-name="three" horiz-adv-x="535" d="M152 -8T97 5T41 55Q41 104 48 126T65 149Q69 149 90 138T139 118T204 109Q254 109 284 139T314 224Q314 309 207 309H178Q164 309 158 317T152 345V347Q152 426 191 426H210Q263 426 293 452T323
522Q323 554 305 572T250 590Q217 590 194 584T150 567Q136 559 128 559Q114 559 100 584T86 632Q86 669 146 688T288 708Q376 708 426 667T476 554Q476 496 446 452T366 387V383Q415 363 439 324T464 231Q464 158 432 104T342 21T215 -8Q152 -8 97 5Z" />
<glyph unicode="4" glyph-name="four" horiz-adv-x="535" d="M302 -2T289 6T276 30L288 142H26Q15 142 7 172T-1 228Q-1 243 2 246L344 683Q353 695 367 698T407 702H434Q465 702 478 694T491 670L448 259H487Q501 259 507 251T513 223V220Q513 142 474 142H436L424
30Q421 -2 361 -2H333Q302 -2 289 6ZM300 259L316 416L324 488L320 489L150 259H300Z" />
<glyph unicode="5" glyph-name="five" horiz-adv-x="535" d="M137 -8T86 5T35 55Q35 104 42 126T59 149Q63 149 84 138T135 118T208 109Q263 109 294 142T326 233Q326 277 299 300T212 323H103Q84 323 77 329T69 352Q69 357 120 660Q124 681 134 690T167 700H462Q476
700 482 692T488 664V660Q486 583 449 583H247L222 440H248Q360 440 419 398T478 255Q478 161 437 102T332 18T196 -8Q137 -8 86 5Z" />
<glyph unicode="6" glyph-name="six" horiz-adv-x="535" d="M175 -8T128 14T50 84T20 209Q20 382 104 492T288 653T424 704Q445 704 455 678T465 627Q465 613 462 608T450 600Q370 576 307 524T212 403Q261 428 315 428Q354 428 395 410T464 351T492 246Q492 159
453 102T354 19T231 -8Q175 -8 128 14ZM284 109T312 143T341 229Q341 268 320 289T260 311Q224 311 178 287Q170 235 170 209Q170 157 190 133T244 109Q284 109 312 143Z" />
<glyph unicode="7" glyph-name="seven" horiz-adv-x="535" d="M71 -2T56 1T41 17Q41 25 48 36L353 583H92Q78 583 72 591T65 619V625Q67 700 104 700H500Q507 700 514 673T521 620Q521 605 518 597L199 18Q193 7 178 3T139 -2H97Q71 -2 56 1Z" />
<glyph unicode="8" glyph-name="eight" horiz-adv-x="535" d="M121 -8T66 43T11 174Q11 239 42 295T132 375Q103 396 88 425T72 496Q72 551 99 599T181 678T313 708Q372 708 415 688T480 632T503 552Q503 487 475 448T399 385Q491 342 491 226Q491 171 466 118T382
28T233 -8Q121 -8 66 43ZM324 451T340 477T357 532Q357 559 340 575T296 591Q265 591 242 571T219 513Q219 483 238 465T293 432Q324 451 340 477ZM267 109T289 122T326 158T340 212Q340 256 315 279T230 326Q162 281 162 193Q162 154 183 132T243 109Q267 109
289 122Z" />
<glyph unicode="9" glyph-name="nine" horiz-adv-x="535" d="M87 -4T77 22T67 73Q67 87 70 92T82 100Q162 124 225 176T320 297Q271 272 217 272Q178 272 137 290T68 349T40 454Q40 541 79 598T178 681T301 708Q357 708 404 686T482 616T512 491Q512 318 428 208T244
47T108 -4Q87 -4 77 22ZM308 389T354 413Q362 465 362 491Q362 543 342 567T288 591Q248 591 220 557T191 471Q191 432 212 411T272 389Q308 389 354 413Z" />
<glyph unicode=":" glyph-name="colon" horiz-adv-x="198" d="M62 369T49 377T36 401L46 493Q49 525 109 525H141Q172 525 185 517T198 493L188 401Q185 369 125 369H93Q62 369 49 377ZM23 -2T11 6T-2 30L7 122Q10 154 70 154H102Q133 154 146 146T159 122L149
30Q146 -2 86 -2H54Q23 -2 11 6Z" />
<glyph unicode=";" glyph-name="semicolon" horiz-adv-x="198" d="M68 369T55 377T42 401L52 493Q54 525 115 525H147Q178 525 191 517T204 493L194 401Q191 369 131 369H99Q68 369 55 377ZM-15 -125T-28 -120T-41 -105Q-41 -95 -33 -79Q-30 -72 -17 -45T8 22T25
110Q28 154 89 154H108Q137 154 150 143T164 114Q164 74 134 17T64 -82T1 -125Q-15 -125 -28 -120Z" />
<glyph unicode="&lt;" glyph-name="less" horiz-adv-x="560" d="M60 194Q48 199 42 207T36 227V235Q36 252 45 271T71 297L509 476Q517 478 520 478Q529 478 532 472T536 453V448Q534 375 497 361L193 245L473 129Q498 118 498 82V75Q494 11 472 11Q467 11 461
14L60 194Z" />
<glyph unicode="=" glyph-name="equal" horiz-adv-x="560" d="M59 267T53 275T47 301V310Q47 334 55 354T84 374H504Q518 374 524 366T530 340V331Q530 307 522 287T493 267H73Q59 267 53 275ZM40 86T34 94T28 120V129Q28 153 36 173T65 193H485Q499 193 505 185T511
159V150Q511 126 503 106T474 86H54Q40 86 34 94Z" />
<glyph unicode="&gt;" glyph-name="greater" horiz-adv-x="560" d="M36 12T33 12Q24 12 21 18T17 37V44Q19 115 56 129L360 245L80 361Q55 371 55 408V415Q57 479 82 479Q86 479 92 476L493 296Q505 291 511 283T517 263V257Q517 236 509 218T482 193L44 14Q36 12 33 12Z" />
<glyph unicode="?" glyph-name="question" horiz-adv-x="445" d="M134 222T125 228T115 251Q115 295 140 332T211 413Q257 455 277 479T298 528Q298 576 230 576Q204 576 183 570T138 553Q120 545 115 545Q102 545 90 559T69 593T60 625Q60 666 123 687T257 708Q351
708 403 667T456 552Q456 506 440 471T399 410T336 355Q291 319 270 298T240 249Q233 233 221 228T184 222H161Q134 222 125 228ZM99 -2T88 5T76 30L85 122Q88 154 149 154H181Q212 154 224 146T237 122L228 30Q225 -2 164 -2H132Q99 -2 88 5Z" />
<glyph unicode="@" glyph-name="at" horiz-adv-x="974" d="M634 708T709 668T825 554T867 383Q867 294 836 220T752 102T634 58Q586 58 559 76T520 122Q503 93 473 76T407 58Q345 58 309 105T272 239Q272 318 295 379T361 474T457 508Q489 508 515 494T559 463Q565
486 575 494T611 503H623Q670 503 670 477L661 396Q639 191 639 177Q639 141 674 141Q708 141 738 174T785 263T803 383Q803 464 770 525T675 620T534 654Q428 654 340 599T200 449T148 240Q148 149 181 79T273 -30T410 -69Q457 -69 487 -62T536 -46T559 -38Q565
-38 565 -50Q565 -61 562 -76Q557 -102 506 -112T410 -123Q314 -123 240 -78T125 50T84 240Q84 370 143 477T306 646T534 708Q634 708 709 668ZM524 307T540 387Q515 410 486 410Q444 410 421 368T397 247Q397 159 454 159Q488 159 519 207Q524 307 540 387Z" />
<glyph unicode="A" glyph-name="A" horiz-adv-x="613" d="M-37 -2T-37 18Q-37 26 -31 38L260 681Q269 702 319 702H371Q421 702 426 681L584 38Q587 29 587 21Q587 10 573 4T533 -2H489Q440 -2 435 19L406 141H164L109 19Q99 -2 61 -2H21Q-37 -2 -37 18ZM375 273L335
451Q329 477 327 515H323Q311 474 301 451L221 273H375Z" />
<glyph unicode="B" glyph-name="B" horiz-adv-x="593" d="M37 0T40 36L105 660Q107 681 117 690T149 700H347Q460 700 513 659T566 546Q566 488 531 441T441 371V367Q495 356 527 315T560 220Q560 115 488 58T288 0H76Q37 0 40 36ZM303 421Q350 421 377 445T404
507Q404 570 321 570H250L234 421H303ZM301 131Q347 131 374 154T402 221Q402 290 302 290H220L203 131H301Z" />
<glyph unicode="C" glyph-name="C" horiz-adv-x="619" d="M187 -8T115 61T42 276Q42 468 130 588T417 708Q462 708 510 699T587 675Q619 659 619 640Q619 627 606 604T574 562T544 544Q541 544 521 553T472 569T400 576Q303 576 252 506T201 298Q201 123 351 123Q406
123 448 136T529 169Q534 171 541 174T552 178Q564 178 564 163Q564 142 557 102T538 47Q516 19 455 6T337 -8Q187 -8 115 61Z" />
<glyph unicode="D" glyph-name="D" horiz-adv-x="695" d="M56 0T48 7T40 33L105 660Q107 681 117 690T149 700H373Q513 700 586 626T660 411Q660 280 616 188T491 48T300 0H76Q56 0 48 7ZM313 131Q400 131 450 200T501 397Q501 482 466 525T360 569H251L204 131H313Z" />
<glyph unicode="E" glyph-name="E" d="M56 0T48 7T40 32L105 660Q107 681 117 690T149 700H515Q529 700 535 691T541 660V651Q539 569 503 569H251L235 424H459Q473 424 479 415T485 384V376Q483 293 447 293H222L204 131H456Q470 131 476 122T482 91V82Q480 0
444 0H76Q56 0 48 7Z" />
<glyph unicode="F" glyph-name="F" horiz-adv-x="503" d="M42 -2T42 29L108 660Q110 681 120 690T152 700H487Q501 700 507 691T513 660V648Q511 610 503 590T475 569H254L238 423H451Q465 423 471 414T477 383V372Q475 292 439 292H225L197 30Q194 -2 134 -2H99Q42
-2 42 29Z" />
<glyph unicode="G" glyph-name="G" horiz-adv-x="672" d="M591 389T599 382T608 358L577 71Q572 26 495 9T336 -8Q186 -8 114 61T41 276Q41 491 137 599T416 708Q460 708 508 700T587 675T619 640Q619 627 606 604T574 562T544 544Q541 544 521 553T471 569T399
576Q302 576 251 506T200 298Q200 123 350 123Q390 123 428 130L442 258H355Q341 258 335 267T329 298L330 324Q331 354 340 371T367 389H571Q591 389 599 382Z" />
<glyph unicode="H" glyph-name="H" horiz-adv-x="733" d="M42 -2T42 29L109 670Q112 702 172 702H207Q264 702 264 671L238 423H508L534 670Q537 702 597 702H632Q689 702 689 671L622 30Q619 -2 559 -2H524Q467 -2 467 29L494 291H224L197 30Q194 -2 134 -2H99Q42
-2 42 29Z" />
<glyph unicode="I" glyph-name="I" horiz-adv-x="282" d="M30 -2T30 29L97 670Q100 702 160 702H195Q252 702 252 671L185 30Q182 -2 122 -2H87Q30 -2 30 29Z" />
<glyph unicode="J" glyph-name="J" horiz-adv-x="402" d="M-17 -8T-17 35Q-17 132 3 132Q7 132 21 128T66 123Q111 123 133 147T161 227L208 670Q211 702 271 702H306Q363 702 363 671L313 202Q302 103 245 48T79 -8Q-17 -8 -17 35Z" />
<glyph unicode="K" glyph-name="K" horiz-adv-x="576" d="M61 -2T48 6T35 30L102 670Q105 702 165 702H200Q231 702 244 694T257 670L229 402L233 401L436 683Q450 702 498 702H545Q572 702 586 698T600 688Q600 679 590 666L366 370L549 34Q555 22 555 16Q555
7 542 3T498 -2H440Q414 -2 400 2T381 17L224 321L220 320L190 30Q187 -2 127 -2H92Q61 -2 48 6Z" />
<glyph unicode="L" glyph-name="L" horiz-adv-x="484" d="M52 0T44 7T36 32L103 670Q106 702 166 702H201Q258 702 258 671L201 131H424Q438 131 444 122T450 91V85Q448 0 412 0H72Q52 0 44 7Z" />
<glyph unicode="M" glyph-name="M" horiz-adv-x="843" d="M368 167T355 186L255 405L237 445L233 444Q232 426 228 395L190 30Q187 -2 127 -2H98Q67 -2 54 6T41 30L108 670Q111 702 171 702H224Q273 702 285 675L413 394L428 362L449 394L639 675Q657 702 704
702H756Q787 702 800 694T813 670L746 30Q743 -2 683 -2H654Q623 -2 610 6T597 30L635 395L640 444L635 445Q625 428 614 412L464 186Q448 167 422 167H393Q368 167 355 186Z" />
<glyph unicode="N" glyph-name="N" horiz-adv-x="719" d="M61 -2T48 6T35 30L102 670Q105 702 165 702H208Q232 702 247 697T272 675L460 329Q479 294 488 269L494 270Q494 296 499 338L534 670Q537 702 597 702H626Q657 702 670 694T683 670L616 30Q613 -2 553
-2H515Q491 -2 476 3T451 25L259 376Q238 412 230 435L224 434Q224 408 219 366L184 30Q181 -2 121 -2H92Q61 -2 48 6Z" />
<glyph unicode="O" glyph-name="O" horiz-adv-x="731" d="M189 -8T115 67T41 284Q41 397 78 493T197 648T403 708Q542 708 615 633T689 414Q689 210 596 101T328 -8Q189 -8 115 67ZM429 123T480 195T531 400Q531 487 495 531T389 576Q301 576 251 504T200 298Q200
212 236 168T342 123Q429 123 480 195Z" />
<glyph unicode="P" glyph-name="P" horiz-adv-x="570" d="M60 -2T47 6T34 30L100 660Q102 681 112 690T144 700H361Q447 700 512 662T578 517Q578 414 533 358T431 282T325 262H212L188 30Q185 -2 125 -2H91Q60 -2 47 6ZM322 394Q361 394 390 416T419 496Q419
536 396 552T341 569H245L226 394H322Z" />
<glyph unicode="Q" glyph-name="Q" horiz-adv-x="731" d="M617 -162T409 -74Q247 -6 192 16Q118 47 80 115T41 286Q41 399 79 494T198 647T404 706Q543 706 616 632T689 414Q689 273 638 174T496 31L495 27L637 -27Q646 -31 650 -37T654 -54Q654 -120 646 -141T625
-162Q617 -162 409 -74ZM430 119T480 193T531 403Q531 488 496 532T390 576Q302 576 251 503T200 297Q200 210 236 165T342 119Q430 119 480 193Z" />
<glyph unicode="R" glyph-name="R" horiz-adv-x="610" d="M61 -2T48 6T35 30L101 660Q103 681 113 690T145 700H340Q571 700 571 537Q571 471 535 423T436 353V349Q453 342 470 316T498 257L563 37Q566 25 566 18Q563 -2 504 -2H463Q414 -2 407 19L348 214Q336
247 318 260T254 274H215L189 30Q186 -2 126 -2H92Q61 -2 48 6ZM324 407Q357 407 383 435T410 501Q410 533 390 551T334 569H246L229 407H324Z" />
<glyph unicode="S" glyph-name="S" horiz-adv-x="500" d="M175 -8T125 2T47 33Q26 49 26 70Q26 137 33 159T52 181Q57 181 76 169Q106 148 135 136T206 123Q247 123 277 140T307 200Q307 229 284 246T209 285Q181 297 167 304Q112 331 81 370T49 478Q49 599 125
653T309 708Q362 708 403 697T465 668Q482 654 482 640Q482 627 471 606T445 568T418 551Q414 551 406 554T391 561Q352 576 309 576Q252 576 231 557T210 513Q210 480 233 462T308 421L337 408Q397 381 432 343T468 238Q468 104 394 48T218 -8Q175 -8 125 2Z"
/>
<glyph unicode="T" glyph-name="T" horiz-adv-x="549" d="M162 -2T162 29L219 569H60Q46 569 40 578T34 609V625Q34 657 44 678T72 700H546Q560 700 566 691T572 660V651Q570 569 534 569H374L317 30Q314 -2 254 -2H219Q162 -2 162 29Z" />
<glyph unicode="U" glyph-name="U" horiz-adv-x="712" d="M238 -8T179 18T86 95T53 213Q53 222 55 242L98 670Q101 702 162 702H196Q227 702 239 694T252 670L209 252Q208 246 208 234Q208 181 242 152T331 123Q391 123 433 157T481 244L525 670Q528 702 589 702H622Q653
702 665 694T678 670L633 234Q621 119 538 56T317 -8Q238 -8 179 18Z" />
<glyph unicode="V" glyph-name="V" horiz-adv-x="617" d="M195 -2T190 19L43 650Q39 670 39 673Q39 690 57 696T102 702H135Q184 702 191 673L281 241L288 205H292L308 242L491 673Q503 702 553 702H584Q609 702 625 698T641 678Q641 670 637 662L354 19Q345 -2
296 -2H244Q195 -2 190 19Z" />
<glyph unicode="W" glyph-name="W" horiz-adv-x="882" d="M123 -2T121 19L32 651L30 670Q30 686 44 694T94 702H120Q180 702 184 671L225 349L241 205L290 349L407 681Q411 693 425 697T464 702H502Q527 702 540 698T555 681L599 349L618 198L667 349L779 671Q789
702 849 702H860Q920 702 920 677Q920 673 914 656L686 19Q682 9 666 4T629 -2H556Q533 -2 519 3T503 19L460 346L448 433L416 343L303 19Q299 9 284 4T246 -2H174Q123 -2 121 19Z" />
<glyph unicode="X" glyph-name="X" horiz-adv-x="611" d="M1 -2T-15 1T-31 18Q-31 28 -20 42L219 365L67 658Q61 670 61 678Q61 693 77 697T125 702H166Q190 702 204 698T224 683L319 497L458 683Q467 695 481 698T521 702H560Q587 702 603 699T619 682Q619 672
609 658L389 363L555 42Q560 30 560 23Q560 8 543 3T497 -2H458Q431 -2 418 2T400 17L289 232L129 17Q119 5 106 2T66 -2H28Q1 -2 -15 1Z" />
<glyph unicode="Y" glyph-name="Y" horiz-adv-x="559" d="M197 -2T184 6T171 30L203 336L38 657Q32 669 32 678Q32 693 48 697T96 702H139Q188 702 197 683L297 469L442 683Q455 702 504 702H540Q601 702 601 682Q601 673 590 657L357 333L325 30Q322 -2 262 -2H228Q197
-2 184 6Z" />
<glyph unicode="Z" glyph-name="Z" horiz-adv-x="616" d="M20 0T11 31T1 87Q1 99 4 102L385 569H107Q93 569 87 578T81 609V629Q81 656 91 678T119 700H572Q585 700 594 669T604 613Q604 601 601 598L219 131H524Q538 131 544 122T550 91V79Q550 45 541 23T512
0H33Q20 0 11 31Z" />
<glyph unicode="[" glyph-name="bracketleft" horiz-adv-x="291" d="M38 -138T30 -131T22 -106Q22 -97 74 391Q87 526 109 728Q111 749 121 758T153 768H280Q306 768 306 738V737Q306 713 298 693T269 673H218L143 -43H195Q221 -43 221 -73V-75Q221 -98 213 -118T184
-138H58Q38 -138 30 -131Z" />
<glyph unicode="\" glyph-name="backslash" horiz-adv-x="361" d="M206 -22T200 8L39 672Q37 678 37 681Q37 702 83 702H106Q157 702 162 672L324 8Q325 5 325 0Q325 -13 313 -17T280 -22H256Q206 -22 200 8Z" />
<glyph unicode="]" glyph-name="bracketright" horiz-adv-x="291" d="M9 -138T9 -108V-106Q9 -83 17 -63T46 -43H97L172 673H120Q94 673 94 703V704Q94 727 102 747T131 768H257Q277 768 285 761T293 736Q293 721 241 237Q229 115 206 -98Q204 -119 194 -128T162
-138H35Q9 -138 9 -108Z" />
<glyph unicode="^" glyph-name="asciicircum" horiz-adv-x="450" d="M418 342T418 333Q416 318 384 318H363Q323 318 314 348L250 555L142 348Q126 318 88 318H67Q37 318 37 332Q37 339 42 348L204 656Q219 686 249 686H280Q310 686 319 656L415 348Q418 342 418 333Z" />
<glyph unicode="_" glyph-name="underscore" horiz-adv-x="534" d="M-47 -143T-53 -135T-59 -109V-107Q-59 -80 -52 -58T-22 -36H493Q519 -36 519 -70V-72Q519 -98 511 -120T482 -143H-33Q-47 -143 -53 -135Z" />
<glyph unicode="`" glyph-name="grave" horiz-adv-x="256" d="M192 575T177 581T152 600Q127 632 98 665Q78 689 69 701T60 718Q60 727 74 730T122 734Q191 734 204 707L237 639Q257 599 257 591Q257 582 250 579T224 575Q192 575 177 581Z" />
<glyph unicode="a" glyph-name="a" horiz-adv-x="545" d="M529 115T530 113T532 104Q532 85 525 44Q521 19 494 6T437 -8Q342 -8 322 68Q300 34 264 13T186 -9Q112 -9 68 47T24 208Q24 303 52 376T130 489T246 530Q284 530 314 514T367 477Q373 498 378 506T395
519T432 524H444Q502 524 502 499L493 411Q465 151 465 141Q465 124 472 117T495 109Q504 109 512 112T524 115Q529 115 530 113ZM337 345T346 386Q315 413 280 413Q229 413 202 363T174 217Q174 112 242 112Q283 112 320 170L333 308Q337 345 346 386Z" />
<glyph unicode="b" glyph-name="b" horiz-adv-x="569" d="M425 531T474 475T524 314Q524 219 494 146T408 33T282 -8Q215 -8 161 44Q155 24 150 16T133 3T96 -2H84Q26 -2 26 23L100 722Q103 754 163 754H191Q219 754 233 745T248 723L221 474Q244 501 275 516T342
531Q425 531 474 475ZM308 109T341 159T374 305Q374 359 353 384T286 410Q246 410 209 354L195 223L183 135Q213 109 248 109Q308 109 341 159Z" />
<glyph unicode="c" glyph-name="c" horiz-adv-x="485" d="M145 -8T89 44T33 204Q33 349 99 440T313 531Q367 531 418 516T471 462Q471 452 462 434T439 401T416 386Q412 386 400 393Q382 403 365 408T318 414Q186 414 186 219Q186 163 208 136T279 109Q317 109
346 118T403 141Q419 149 424 149Q428 149 429 147T431 135Q431 64 414 42Q394 17 348 5T260 -8Q145 -8 89 44Z" />
<glyph unicode="d" glyph-name="d" horiz-adv-x="565" d="M541 115T542 113T544 104Q544 85 537 44Q533 19 506 6T449 -8Q402 -8 373 10T334 69Q312 34 277 13T198 -8Q119 -8 73 48T26 209Q26 304 55 377T137 490T258 531Q315 531 365 490L390 722Q393 754 453
754H481Q509 754 523 745T538 723Q528 634 507 436T477 142Q477 125 484 117T507 109Q516 109 524 112T536 115Q541 115 542 113ZM355 390Q325 414 292 414Q237 414 207 364T176 218Q176 113 254 113Q296 113 333 172L355 390Z" />
<glyph unicode="e" glyph-name="e" horiz-adv-x="539" d="M502 323T471 282T390 222T287 203Q232 203 183 210Q187 152 213 131T288 109Q348 109 423 145Q439 153 443 153Q447 153 449 151T451 139Q450 134 448 104T443 62Q432 25 378 9T269 -8Q150 -8 92 50T33
212Q33 375 110 453T308 531Q383 531 426 508T486 451T502 386Q502 323 471 282ZM238 302Q302 302 330 321T358 367Q358 391 342 402T298 414Q254 414 228 384T190 302H238Z" />
<glyph unicode="f" glyph-name="f" horiz-adv-x="325" d="M70 -2T56 7T41 29L80 406H60Q46 406 40 414T34 442V446Q36 523 72 523H93L100 598Q107 675 149 717T263 760Q359 760 359 714Q359 698 347 668T322 638Q317 638 309 640T289 643Q270 643 261 633T249
600L240 523H300Q310 523 313 519T316 503V495Q316 479 309 458T288 421T258 406H228L189 30Q186 -2 126 -2H98Q70 -2 56 7Z" />
<glyph unicode="g" glyph-name="g" d="M519 525T519 500L478 93Q462 -61 401 -136T223 -212Q145 -212 92 -192T38 -141Q38 -54 58 -54Q61 -54 82 -65T131 -86T193 -95Q250 -95 283 -62T323 33L326 63Q303 36 272 20T204 4Q125 4 79 58T32 213Q32 307 61 379T143
491T264 531Q301 531 332 515T384 479Q390 499 395 507T412 520T449 525H461Q519 525 519 500ZM354 325Q357 360 363 388Q331 414 298 414Q243 414 213 365T182 222Q182 125 260 125Q301 125 338 183L351 300L354 325Z" />
<glyph unicode="h" glyph-name="h" horiz-adv-x="565" d="M382 -8T352 22T321 119Q321 130 331 232L344 349Q347 378 333 393T290 409Q244 409 204 352L170 30Q167 -2 107 -2H79Q51 -2 37 7T22 29L95 722Q98 754 158 754H186Q214 754 228 745T243 723L216 463Q243
492 283 511T363 531Q430 531 462 500T495 404Q495 389 481 259Q470 156 470 142Q470 125 477 117T500 109Q509 109 517 112T529 115Q534 115 535 113T537 104Q537 85 530 44Q526 19 499 6T442 -8Q382 -8 352 22Z" />
<glyph unicode="i" glyph-name="i" horiz-adv-x="265" d="M113 587T97 596T81 625L89 695Q94 732 168 732Q206 732 222 723T238 695L230 625Q224 587 151 587Q113 587 97 596ZM90 -8T60 22T29 119L32 162Q34 176 35 189T37 214L67 493Q70 525 130 525H158Q186
525 200 516T215 494Q209 440 196 321T178 142Q178 125 185 117T208 109Q217 109 225 112T237 115Q242 115 243 113T245 104Q245 85 238 44Q234 19 207 6T150 -8Q90 -8 60 22Z" />
<glyph unicode="j" glyph-name="j" horiz-adv-x="276" d="M127 589T111 598T95 627L104 699Q107 737 181 737Q219 737 235 728T251 699L243 627Q237 589 165 589Q127 589 111 598ZM-25 -212T-47 -205T-69 -173Q-69 -129 -64 -110T-51 -90Q-48 -90 -39 -92T-16
-95Q3 -95 12 -85T24 -52L81 493Q84 525 144 525H172Q200 525 214 516T229 494L172 -50Q164 -127 122 -169T9 -212Q-25 -212 -47 -205Z" />
<glyph unicode="k" glyph-name="k" horiz-adv-x="521" d="M503 504T491 490L332 292L468 34Q473 24 473 16Q473 7 460 3T415 -2H373Q324 -2 315 17L200 247L196 246L173 30Q170 -2 110 -2H82Q51 -2 38 6T25 30L98 722Q101 754 161 754H189Q220 754 233 746T246
722L204 326L208 325L348 506Q357 518 371 521T411 525H448Q475 525 489 521T503 511Q503 504 491 490Z" />
<glyph unicode="l" glyph-name="l" horiz-adv-x="297" d="M86 -8T60 21T33 107Q33 133 35 148L96 725Q98 741 109 748T148 755H196Q224 755 233 750T243 731L242 721L180 158Q179 151 179 140Q179 124 186 117T212 109Q221 109 229 112T241 115Q246 115 247 113T249
104Q249 85 242 44Q238 19 211 6T154 -8Q86 -8 60 21Z" />
<glyph unicode="m" glyph-name="m" horiz-adv-x="848" d="M824 115T825 113T827 104Q827 85 820 44Q816 19 789 6T732 -8Q672 -8 642 22T611 119Q611 141 625 265Q634 350 634 359Q634 384 621 396T580 409Q555 409 533 393T494 352L463 30Q460 -2 400 -2H372Q343
-2 328 7T315 29L348 359Q350 383 337 396T294 409Q247 409 208 351L176 30Q173 -2 113 -2H85Q56 -2 41 7T28 29L60 344Q66 402 66 428L65 463Q64 470 64 484Q64 500 97 510T180 520Q209 520 213 455Q240 486 282 508T367 531Q471 531 493 454Q518 485 563 508T653
531Q720 531 752 500T785 404Q785 389 771 259Q760 156 760 142Q760 125 767 117T790 109Q799 109 807 112T819 115Q824 115 825 113Z" />
<glyph unicode="n" glyph-name="n" horiz-adv-x="557" d="M534 115T535 113T537 104Q537 85 530 44Q526 19 499 6T442 -8Q382 -8 352 22T321 119L323 145Q323 153 325 173L333 246Q337 283 340 314T344 359Q344 384 331 396T290 409Q263 409 241 391T202 348L170
30Q167 -2 107 -2H79Q51 -2 37 7T22 29L57 377Q60 406 60 428L59 463Q58 470 58 484Q58 500 91 510T174 520Q205 520 207 453Q233 485 276 508T363 531Q430 531 462 500T495 404Q495 389 481 259Q470 156 470 142Q470 125 477 117T500 109Q509 109 517 112T529
115Q534 115 535 113Z" />
<glyph unicode="o" glyph-name="o" horiz-adv-x="569" d="M143 -8T88 48T33 211Q33 350 97 440T307 531Q414 531 469 475T524 311Q524 159 451 76T250 -8Q143 -8 88 48ZM314 109T343 159T373 304Q373 359 354 386T295 414Q242 414 213 364T183 218Q183 109 262
109Q314 109 343 159Z" />
<glyph unicode="p" glyph-name="p" horiz-adv-x="573" d="M429 531T477 475T525 314Q525 219 495 146T411 33T288 -8Q232 -8 181 32L159 -174Q156 -206 96 -206H68Q40 -206 26 -197T11 -175L67 357Q71 396 71 428L70 463Q69 470 69 484Q69 500 102 510T185 520Q217
520 217 460Q239 492 273 511T348 531Q429 531 477 475ZM312 109T343 159T375 305Q375 410 292 410Q249 410 212 349L191 132Q219 109 254 109Q312 109 343 159Z" />
<glyph unicode="q" glyph-name="q" horiz-adv-x="566" d="M524 525T524 500L453 -174Q450 -206 390 -206H362Q334 -206 320 -197T305 -175L328 49Q305 22 275 7T208 -8Q127 -8 79 48T31 209Q31 304 61 377T145 490T268 531Q335 531 389 479Q395 500 402 510Q408
517 419 520T454 525H466Q524 525 524 500ZM367 388Q337 414 302 414Q244 414 213 364T181 218Q181 113 264 113Q304 113 341 169L355 300L367 388Z" />
<glyph unicode="r" glyph-name="r" horiz-adv-x="366" d="M375 531T375 485Q375 460 361 426T335 392Q331 392 320 396T294 401Q271 401 248 388T207 350L175 30Q172 -2 112 -2H84Q56 -2 42 7T27 29L61 357Q65 396 65 428L64 463Q63 470 63 484Q63 500 96 510T179
520Q208 520 212 457Q235 490 262 510T328 531Q375 531 375 485Z" />
<glyph unicode="s" glyph-name="s" horiz-adv-x="413" d="M121 -8T72 5T22 53Q22 143 44 143Q47 143 65 134T106 117T154 109Q187 109 203 121T220 156Q220 177 204 188T167 207T137 218Q93 236 68 264T42 349Q42 436 97 483T240 531Q294 531 340 517T386 470Q386
460 377 442T355 410T333 395Q329 395 307 405T251 415Q194 415 194 378Q194 355 209 344T246 324T276 311Q320 292 346 265T372 185Q372 95 315 44T166 -8Q121 -8 72 5Z" />
<glyph unicode="t" glyph-name="t" horiz-adv-x="342" d="M124 -8T90 24T56 125Q56 139 68 252T85 406H65Q51 406 45 414T39 442Q39 523 77 523H97L107 618Q110 650 170 650H198Q226 650 240 641T255 619L245 523H304Q314 523 317 519T320 503Q320 470 305 438T262
406H233L205 142Q205 125 212 117T235 109Q248 109 259 112T273 115Q278 115 279 113T281 104Q281 85 274 44Q270 19 243 6T186 -8Q124 -8 90 24Z" />
<glyph unicode="u" glyph-name="u" horiz-adv-x="557" d="M528 115T529 113T531 104Q531 85 524 44Q520 19 493 6T436 -8Q339 -8 320 72Q291 38 248 15T160 -8Q29 -8 29 119Q29 137 30 146L65 493Q68 525 128 525H156Q184 525 198 516T213 494L179 167Q177 143
191 129T233 114Q259 114 281 129T319 168L353 493Q356 525 416 525H444Q472 525 486 516T501 494L480 297Q478 276 476 254T471 208L464 142Q464 125 471 117T494 109Q503 109 511 112T523 115Q528 115 529 113Z" />
<glyph unicode="v" glyph-name="v" horiz-adv-x="485" d="M142 -2T137 19L27 485Q25 497 25 500Q25 525 88 525H121Q170 525 175 504L215 319Q216 313 223 255Q227 214 230 198H234Q259 281 275 319L353 504Q362 525 411 525H436Q461 525 477 521T493 502Q493
494 489 485L281 19Q272 -2 223 -2H191Q142 -2 137 19Z" />
<glyph unicode="w" glyph-name="w" horiz-adv-x="747" d="M119 -2T116 19L43 458Q38 488 38 499Q41 525 103 525H127Q148 525 163 520T180 504L218 240L224 178H228L243 241L335 504Q343 525 392 525H416Q438 525 453 520T469 504L506 230L509 172H512L526 231L624
504Q632 525 685 525H691Q744 524 744 501Q744 495 741 484L574 19Q570 9 555 4T517 -2H468Q420 -2 415 19L379 268L376 323H373L361 268L275 19Q271 9 256 4T218 -2H169Q119 -2 116 19Z" />
<glyph unicode="x" glyph-name="x" horiz-adv-x="485" d="M6 -2T-11 1T-28 18Q-28 26 -16 41L159 265L40 481Q32 494 32 505Q32 517 49 521T96 525H128Q154 525 167 522T187 506L237 408L248 384H253L267 406L342 506Q351 518 365 521T405 525H434Q461 525 477
522T494 506Q494 497 482 482L313 266L437 42Q444 29 444 20Q444 6 429 2T381 -2H349Q323 -2 310 1T290 17L231 130L223 148H220L209 131L125 17Q116 5 102 2T62 -2H32Q6 -2 -11 1Z" />
<glyph unicode="y" glyph-name="y" horiz-adv-x="481" d="M495 525T495 504Q495 497 490 485L190 -185Q181 -206 132 -206H115Q57 -206 57 -186Q57 -178 63 -167L144 1L31 478Q27 496 27 499Q27 525 91 525H123Q172 525 177 504L216 319Q220 300 232 198H236Q263
287 276 319L355 504Q364 525 413 525H437Q495 525 495 504Z" />
<glyph unicode="z" glyph-name="z" horiz-adv-x="489" d="M22 0T15 25T7 73Q7 88 11 92L272 406H84Q70 406 64 414T58 442V445Q58 523 96 523H448Q457 523 464 498T472 450Q472 435 468 431L207 117H414Q428 117 434 109T440 81V75Q440 41 431 21T402 0H31Q22 0 15 25Z" />
<glyph unicode="{" glyph-name="braceleft" horiz-adv-x="274" d="M105 -138T81 -111T57 -39Q57 -18 66 47Q68 61 73 106T78 182Q78 216 69 233T42 263Q28 273 22 280T16 303V305Q16 332 23 346T52 371Q79 385 92 409T111 484L129 652Q134 704 164 736T240 768H279Q306
768 306 739V737Q306 675 270 674H269Q256 674 250 666T242 638L225 468Q219 414 197 374T141 315Q194 283 194 195Q194 163 183 80Q181 62 178 28T174 -18Q174 -44 194 -44H195Q220 -44 220 -73V-75Q220 -104 212 -121T184 -138H145Q105 -138 81 -111Z" />
<glyph unicode="|" glyph-name="bar" horiz-adv-x="250" d="M159 768T171 761T183 738V-108Q183 -124 171 -131T133 -138H118Q92 -138 80 -131T68 -108V738Q68 754 80 761T118 768H133Q159 768 171 761Z" />
<glyph unicode="}" glyph-name="braceright" horiz-adv-x="274" d="M-27 -138T-27 -109V-107Q-27 -44 10 -44H11Q33 -44 37 -8L54 162Q59 216 81 256T138 315Q85 347 85 435Q85 468 96 550Q98 568 101 602T105 648Q105 674 86 674H85Q59 674 59 703V705Q59 768
95 768H134Q174 768 198 741T222 669Q222 648 213 583Q211 569 206 524T201 448Q201 417 209 400T232 371Q236 368 245 362T258 347T263 327V325Q263 298 256 284T227 259Q200 245 187 220T168 146L150 -22Q145 -74 115 -106T39 -138H0Q-27 -138 -27 -109Z" />
<glyph unicode="~" glyph-name="asciitilde" horiz-adv-x="547" d="M334 206T274 222Q253 227 231 231T192 236Q168 236 150 221Q147 218 141 213T129 205T119 202Q110 202 101 207L91 212Q78 219 78 233Q78 240 82 249Q95 279 122 298T188 318Q226 318 286 302Q307
297 329 293T368 288Q392 288 410 303Q413 306 419 311T431 319T441 322Q450 322 459 317L469 312Q482 306 482 291Q482 284 478 275Q465 245 438 226T372 206Q334 206 274 222Z" />
<glyph unicode="&#xa0;" glyph-name="uni00A0" horiz-adv-x="240" />
<glyph unicode="&#xa1;" glyph-name="exclamdown" horiz-adv-x="294" d="M127 369T114 377T101 401L111 493Q114 525 174 525H206Q237 525 250 517T263 493L253 401Q250 369 190 369H158Q127 369 114 377ZM12 -179T12 -150Q12 -139 30 -58T71 114L107 269Q111
286 121 293T161 301H172Q202 301 211 294T220 269L176 -147Q173 -179 113 -179H70Q12 -179 12 -150Z" />
<glyph unicode="&#xa2;" glyph-name="cent" horiz-adv-x="486" d="M385 401T372 406T336 413L304 110Q352 115 403 141Q419 149 424 149Q428 149 429 147T431 135Q431 64 414 42Q397 22 363 10T292 -6L287 -55Q286 -75 265 -75H248Q237 -75 234 -71T230 -55L235
-7Q133 -2 83 50T33 204Q33 344 94 433T292 530L296 571Q298 582 302 586T318 591H335Q345 591 349 587T353 571L349 529Q397 525 433 509T471 462Q471 452 462 434T439 401T416 386Q412 386 400 393Q385 401 372 406ZM186 173T201 147T248 112L279 409Q186 384
186 219Q186 173 201 147Z" />
<glyph unicode="&#xa3;" glyph-name="sterling" horiz-adv-x="491" d="M13 0T6 9T-1 40Q-1 46 1 59Q3 71 11 79T36 101Q59 117 72 133T89 175L103 311H68Q54 311 48 319T42 347V349Q42 428 80 428H115L123 502Q145 708 375 708Q480 708 480 667Q480 650 472 632T452
601T432 588Q429 588 412 592T369 596Q323 596 299 575T269 507L260 428H380Q390 428 393 424T396 408V406Q395 373 380 342T338 311H248L242 251Q233 160 187 117H410Q435 117 435 84L433 50Q432 25 422 13T397 0H34Q13 0 6 9Z" />
<glyph unicode="&#xa4;" glyph-name="currency" horiz-adv-x="534" d="M72 72T62 84L35 114Q25 126 25 136Q25 151 40 164L64 186Q47 223 47 266Q47 339 88 395L64 422Q55 433 55 444Q55 459 69 472L102 502Q115 514 129 514Q141 514 152 502L178 474Q228 500
281 500Q335 500 381 473L413 502Q427 514 440 514Q453 514 463 502L490 472Q500 460 500 450Q500 436 485 422L453 393Q471 355 471 312Q471 245 433 188L455 164Q464 154 464 142Q464 127 450 114L417 84Q404 72 390 72Q378 72 367 84L346 107Q296 78 237 78Q181
78 135 105L112 84Q99 72 85 72Q72 72 62 84ZM292 192T324 224T356 300Q356 337 331 361T269 386Q225 386 193 354T161 278Q161 241 186 217T249 192Q292 192 324 224Z" />
<glyph unicode="&#xa5;" glyph-name="yen" horiz-adv-x="559" d="M601 673T590 657L411 408H494Q520 408 520 384V380Q517 333 483 333H357L350 270H479Q505 270 505 246V241Q502 195 468 195H342L325 30Q322 -2 262 -2H228Q197 -2 184 6T171 30L188 195H52Q38
195 32 200T26 219V226Q28 270 63 270H196L203 333H67Q53 333 47 338T41 357V363Q44 408 78 408H166L38 657Q32 669 32 678Q32 693 48 697T96 702H139Q188 702 197 683L297 469L442 683Q455 702 504 702H540Q601 702 601 682Q601 673 590 657Z" />
<glyph unicode="&#xa6;" glyph-name="brokenbar" horiz-adv-x="250" d="M206 770T216 762T227 738Q227 732 212 588L193 412Q190 380 139 380H124Q77 380 77 407Q77 417 112 738Q115 770 165 770H180Q206 770 216 762ZM152 250T162 243T172 218Q170 198 166 155T156
62L138 -108Q135 -140 85 -140H70Q43 -140 33 -133T23 -108Q23 -94 39 45L57 218Q60 250 111 250H126Q152 250 162 243Z" />
<glyph unicode="&#xa7;" glyph-name="section" horiz-adv-x="429" d="M127 -7T84 4T40 47Q40 137 62 137Q64 137 93 123T162 109Q219 109 219 143Q219 158 206 167T162 189L136 200Q92 219 66 247T40 329Q40 367 53 400T90 459Q61 486 61 534Q61 614 116 661T262
708Q315 708 359 694T404 647Q404 637 395 619T373 587T351 572Q347 572 334 578T307 588T270 592Q213 592 213 558Q213 543 227 533T274 510L308 496Q347 477 369 449T392 372Q392 296 342 242Q371 211 371 166Q371 87 316 40T170 -7Q127 -7 84 4ZM259 316T259
341Q259 367 241 381T187 409Q180 399 177 385T173 359Q173 333 191 319T245 292Q259 316 259 341Z" />
<glyph unicode="&#xa8;" glyph-name="dieresis" horiz-adv-x="256" d="M33 578T20 586T7 610L14 670Q17 702 77 702Q108 702 121 694T134 670L127 610Q122 578 64 578Q33 578 20 586ZM213 578T200 586T187 610L194 670Q197 702 257 702Q288 702 301 694T314 670L307
610Q302 578 244 578Q213 578 200 586Z" />
<glyph unicode="&#xa9;" glyph-name="copyright" horiz-adv-x="739" d="M271 -8T189 40T58 170T10 350Q10 447 58 529T188 660T368 708Q465 708 547 660T678 530T726 350Q726 253 678 171T548 40T368 -8Q271 -8 189 40ZM448 56T515 95T622 202T662 350Q662 430
623 497T516 604T368 644Q288 644 221 605T114 498T74 350Q74 270 113 203T220 96T368 56Q448 56 515 95ZM287 152T242 201T197 353Q197 552 383 552Q424 552 462 541T500 513Q500 500 487 480T464 460Q462 460 442 469T382 478Q285 478 285 353Q285 225 381 225Q419
225 444 236T472 248Q484 248 494 229T505 199Q505 176 464 164T381 152Q287 152 242 201Z" />
<glyph unicode="&#xaa;" glyph-name="ordfeminine" horiz-adv-x="313" d="M87 437T67 467T46 545Q46 556 48 578Q57 643 87 675T163 708Q188 708 202 701T232 682Q237 696 243 700T268 705H275Q309 705 309 691Q309 687 305 655Q305 646 303 634L290 511Q290 505
297 505H304Q312 505 312 489Q312 467 298 453T257 438Q218 438 209 474Q178 437 133 437Q87 437 67 467ZM180 505T189 509T208 520L216 598L221 635Q208 642 185 642Q162 642 150 629T132 576Q130 556 130 548Q130 527 138 516T167 505Q180 505 189 509Z" />
<glyph unicode="&#xab;" glyph-name="guillemotleft" horiz-adv-x="471" d="M232 118Q238 108 238 99Q238 84 216 65T174 46Q160 46 149 61L38 214Q26 229 26 247Q26 265 30 277T47 302L190 455Q204 469 219 469Q234 469 253 454T273 422Q273 412 261 398L137
258L232 118ZM472 412T460 398L336 258L431 118Q437 110 437 99Q437 84 415 65T373 46Q358 46 348 61L237 214Q225 231 225 247Q225 265 229 277T246 302L389 455Q403 469 418 469Q433 469 452 454T472 422Q472 412 460 398Z" />
<glyph unicode="&#xac;" glyph-name="logicalnot" horiz-adv-x="560" d="M434 72T426 79T418 104L433 242H63Q37 242 37 276V281Q40 349 74 349H504Q525 349 532 340T540 309L518 104Q515 72 475 72H455Q434 72 426 79Z" />
<glyph unicode="&#xad;" glyph-name="uni00AD" horiz-adv-x="320" d="M38 212T32 220T26 245V246Q26 319 63 319H267Q293 319 293 285V284Q293 257 286 235T256 212H52Q38 212 32 220Z" />
<glyph unicode="&#xae;" glyph-name="registered" horiz-adv-x="739" d="M271 -8T189 40T58 170T10 350Q10 447 58 529T188 660T368 708Q465 708 547 660T678 530T726 350Q726 253 678 171T548 40T368 -8Q271 -8 189 40ZM448 56T515 95T622 202T662 350Q662 430
623 497T516 604T368 644Q288 644 221 605T114 498T74 350Q74 270 113 203T220 96T368 56Q448 56 515 95ZM241 156T241 174V526Q241 548 263 548H372Q511 548 511 443Q511 412 493 389T445 354V350Q456 345 467 332T486 301L535 178Q538 171 538 167Q538 156 505
156H482Q454 156 449 168L405 277Q396 295 385 302T349 310H327V174Q327 156 293 156H275Q241 156 241 174ZM380 384Q397 384 410 398T423 432Q423 452 411 463T376 475H327V384H380Z" />
<glyph unicode="&#xaf;" glyph-name="overscore" horiz-adv-x="255" d="M30 597T24 604T18 627V636Q20 692 55 692H271Q297 692 297 662V654Q296 632 288 615T260 597H44Q30 597 24 604Z" />
<glyph unicode="&#xb0;" glyph-name="degree" horiz-adv-x="345" d="M135 443T101 477T66 562Q66 599 84 632T135 687T213 708Q264 708 298 674T333 589Q333 549 315 516T263 463T186 443Q135 443 101 477ZM226 505T246 528T267 584Q267 610 250 628T207 646Q172
646 152 623T131 567Q131 541 148 523T192 505Q226 505 246 528Z" />
<glyph unicode="&#xb1;" glyph-name="plusminus" horiz-adv-x="560" d="M344 604T354 597T364 574L348 420H501Q515 420 521 412T527 384Q527 355 521 334T490 313H337L321 161Q320 145 307 138T268 131H254Q227 131 217 138T207 161L223 313H72Q58 313 52 321T46
347Q46 420 83 420H234L250 574Q251 590 264 597T303 604H317Q344 604 354 597ZM494 107T494 73Q494 46 487 23T457 0H40Q26 0 20 8T14 34Q14 107 51 107H468Q494 107 494 73Z" />
<glyph unicode="&#xb2;" glyph-name="uni00B2" horiz-adv-x="320" d="M53 298T48 315T42 347Q42 353 44 357L209 536Q221 549 229 565T237 596Q237 616 224 627T188 638Q170 638 157 633T133 621T118 613Q106 613 98 625T89 650Q89 677 126 691T205 706Q259 706
291 678T324 607Q324 576 309 548T251 472L152 365H289Q304 365 304 345V342Q303 321 298 310T281 298H59Q53 298 48 315Z" />
<glyph unicode="&#xb3;" glyph-name="uni00B3" horiz-adv-x="320" d="M111 288T78 295T45 325Q45 354 49 367T59 380Q61 380 83 369T141 357Q170 357 187 375T205 424Q205 474 143 474H125Q110 474 110 496V497Q110 543 133 543H144Q175 543 193 558T211 599Q211
618 200 628T168 639Q138 639 119 630T96 621Q88 621 80 636T71 664Q71 686 106 697T190 709Q242 709 271 685T300 618Q300 584 283 558T236 520V518Q293 495 293 429Q293 365 252 327T147 288Q111 288 78 295Z" />
<glyph unicode="&#xb4;" glyph-name="acute" horiz-adv-x="256" d="M59 575T53 578T47 588Q47 593 53 603T72 631Q102 673 124 707Q142 734 212 734Q242 734 256 731T270 721Q270 714 265 708T230 674L154 600Q143 589 126 582T76 575Q59 575 53 578Z" />
<glyph unicode="&#xb5;" glyph-name="uni00B5" horiz-adv-x="566" d="M551 115T552 113T554 104Q554 47 534 20T459 -8Q362 -8 343 72Q314 38 271 15T183 -8L165 -174Q162 -206 102 -206H74Q46 -206 32 -197T17 -175L88 493Q91 525 151 525H179Q207 525 221 516T236
494Q231 444 217 308T202 163Q202 114 256 114Q282 114 304 129T342 168L376 493Q379 525 439 525H467Q495 525 509 516T524 494Q525 488 499 256Q487 151 487 142Q487 125 494 117T517 109Q526 109 534 112T546 115Q551 115 552 113Z" />
<glyph unicode="&#xb6;" glyph-name="paragraph" horiz-adv-x="515" d="M206 -173T203 -168T199 -151L241 247Q189 253 148 281T84 353T61 450Q61 527 95 583T188 670T313 700H526Q537 700 541 696T544 680L542 658Q541 638 520 638H484L401 -151Q400 -161 394
-167T379 -173H357Q346 -173 343 -168T339 -151L422 638H344L261 -151Q260 -161 254 -167T239 -173H217Q206 -173 203 -168Z" />
<glyph unicode="&#xb7;" glyph-name="middot" horiz-adv-x="267" d="M106 289T88 306T70 350Q70 381 91 405T148 429Q175 429 193 411T211 366Q211 334 189 312T133 289Q106 289 88 306Z" />
<glyph unicode="&#xb8;" glyph-name="cedilla" horiz-adv-x="256" d="M235 -40T256 -59T277 -110Q277 -160 243 -186T148 -212Q112 -212 79 -202T45 -160Q45 -112 59 -112Q63 -112 79 -120T111 -133T148 -139Q161 -139 166 -135T173 -122Q173 -114 167 -109T149
-98Q137 -92 131 -87T125 -74Q125 -66 159 10H225L207 -35Q235 -40 256 -59Z" />
<glyph unicode="&#xb9;" glyph-name="uni00B9" horiz-adv-x="300" d="M140 293T140 312L173 624L93 611Q78 611 78 647Q78 661 81 668T96 678L244 704Q251 704 258 700T266 690L226 312Q224 293 189 293H173Q140 293 140 312Z" />
<glyph unicode="&#xba;" glyph-name="ordmasculine" horiz-adv-x="337" d="M100 441T73 468T45 548Q45 615 78 661T182 708Q235 708 262 681T289 600Q289 524 253 483T153 441Q100 441 73 468ZM185 499T199 524T214 596Q214 650 175 650Q149 650 135 625T120 552Q120
499 160 499Q185 499 199 524Z" />
<glyph unicode="&#xbb;" glyph-name="guillemotright" horiz-adv-x="471" d="M273 250T269 238T252 213L109 60Q95 46 80 46Q65 46 46 61T26 93Q26 103 38 117L162 257L67 397Q61 405 61 416Q61 431 83 450T125 469Q139 469 150 454L261 301Q273 285 273 268Q273
250 269 238ZM472 286T472 268Q472 250 468 238T451 213L308 60Q294 46 279 46Q264 46 245 61T225 93Q225 103 237 117L361 257L266 397Q260 408 260 416Q260 431 282 450T324 469Q339 469 349 454L460 301Q472 286 472 268Z" />
<glyph unicode="&#xbc;" glyph-name="onequarter" horiz-adv-x="671" d="M140 293T140 312L173 624L93 611Q78 611 78 647Q78 661 81 668T96 678L244 704Q251 704 258 700T266 690L226 312Q224 293 189 293H173Q140 293 140 312ZM76 0T76 9Q76 16 83 26L510 674Q527
700 558 700H575Q595 700 595 690Q595 684 587 674L160 26Q150 12 139 6T113 0H96Q76 0 76 9ZM504 -2T496 2T488 17L495 82H342Q336 82 331 99T326 132Q326 141 328 143L528 399Q538 410 565 410H581Q614 410 614 391L589 151H612Q627 151 627 129V128Q627 82 604
82H582L575 17Q574 -2 538 -2H522Q504 -2 496 2ZM502 151L512 242L517 284L514 285L415 151H502Z" />
<glyph unicode="&#xbd;" glyph-name="onehalf" horiz-adv-x="728" d="M140 293T140 312L173 624L93 611Q78 611 78 647Q78 661 81 668T96 678L244 704Q251 704 258 700T266 690L226 312Q224 293 189 293H173Q140 293 140 312ZM78 0T78 9Q78 16 85 26L512 674Q529
700 560 700H577Q597 700 597 690Q597 684 589 674L162 26Q152 12 141 6T115 0H98Q78 0 78 9ZM385 0T380 17T375 50Q375 58 376 60L543 241Q555 255 563 271T571 303Q571 323 558 334T522 345Q504 345 492 340T467 327T451 319Q439 319 431 331T422 357Q422 384
460 398T539 413Q594 413 626 385T659 314Q659 282 644 253T586 176L485 68H624Q640 68 640 47V44Q638 0 617 0H391Q385 0 380 17Z" />
<glyph unicode="&#xbe;" glyph-name="threequarters" horiz-adv-x="738" d="M111 288T78 295T45 325Q45 354 49 367T59 380Q61 380 83 369T141 357Q170 357 187 375T205 424Q205 474 143 474H125Q110 474 110 496V497Q110 543 133 543H144Q175 543 193 558T211
599Q211 618 200 628T168 639Q138 639 119 630T96 621Q88 621 80 636T71 664Q71 686 106 697T190 709Q242 709 271 685T300 618Q300 584 283 558T236 520V518Q293 495 293 429Q293 365 252 327T147 288Q111 288 78 295ZM116 0T116 9Q116 16 123 26L550 674Q567
700 598 700H615Q635 700 635 690Q635 684 627 674L200 26Q190 12 179 6T153 0H136Q116 0 116 9ZM543 -2T535 2T527 17L534 82H381Q375 82 370 99T365 132Q365 141 367 143L567 399Q577 410 604 410H620Q653 410 653 391L628 151H651Q666 151 666 129V128Q666 82
643 82H621L614 17Q613 -2 577 -2H561Q543 -2 535 2ZM541 151L551 242L556 284L553 285L454 151H541Z" />
<glyph unicode="&#xbf;" glyph-name="questiondown" horiz-adv-x="425" d="M360 525T371 518T383 493L374 401Q371 369 310 369H278Q247 369 235 377T222 401L231 493Q234 525 295 525H327Q360 525 371 518ZM325 301T334 295T344 272Q344 228 319 191T248 110Q202
68 182 44T161 -5Q161 -53 229 -53Q255 -53 276 -47T321 -30Q339 -22 344 -22Q357 -22 369 -36T390 -70T399 -102Q399 -143 336 -164T202 -185Q108 -185 56 -144T3 -29Q3 17 19 52T60 113T123 168Q168 204 189 225T219 274Q226 290 238 295T275 301H298Q325 301
334 295Z" />
<glyph unicode="&#xc0;" glyph-name="Agrave" horiz-adv-x="613" d="M-37 -2T-37 18Q-37 26 -31 38L260 681Q269 702 319 702H371Q421 702 426 681L584 38Q587 29 587 21Q587 10 573 4T533 -2H489Q440 -2 435 19L406 141H164L109 19Q99 -2 61 -2H21Q-37 -2 -37
18ZM375 273L335 451Q329 477 327 515H323Q311 474 301 451L221 273H375ZM345 752T330 758T305 777Q280 809 251 842Q231 866 222 878T213 895Q213 904 227 907T275 911Q344 911 357 884L390 816Q410 776 410 768Q410 759 403 756T377 752Q345 752 330 758Z" />
<glyph unicode="&#xc1;" glyph-name="Aacute" horiz-adv-x="613" d="M-37 -2T-37 18Q-37 26 -31 38L260 681Q269 702 319 702H371Q421 702 426 681L584 38Q587 29 587 21Q587 10 573 4T533 -2H489Q440 -2 435 19L406 141H164L109 19Q99 -2 61 -2H21Q-37 -2 -37
18ZM375 273L335 451Q329 477 327 515H323Q311 474 301 451L221 273H375ZM300 752T294 755T288 765Q288 770 294 780T313 808Q343 850 365 884Q383 911 453 911Q483 911 497 908T511 898Q511 891 506 885T471 851L395 777Q384 766 367 759T317 752Q300 752 294
755Z" />
<glyph unicode="&#xc2;" glyph-name="Acircumflex" horiz-adv-x="613" d="M-37 -2T-37 18Q-37 26 -31 38L260 681Q269 702 319 702H371Q421 702 426 681L584 38Q587 29 587 21Q587 10 573 4T533 -2H489Q440 -2 435 19L406 141H164L109 19Q99 -2 61 -2H21Q-37 -2
-37 18ZM375 273L335 451Q329 477 327 515H323Q311 474 301 451L221 273H375ZM209 749T209 759Q209 766 216 774L292 876Q301 888 315 891T355 895H366Q392 895 405 892T425 876L479 774Q482 767 482 762Q482 749 463 749H441Q417 749 402 754T377 773L352 813L321
774Q309 759 293 754T252 749H228Q209 749 209 759Z" />
<glyph unicode="&#xc3;" glyph-name="Atilde" horiz-adv-x="613" d="M-37 -2T-37 18Q-37 26 -31 38L260 681Q269 702 319 702H371Q421 702 426 681L584 38Q587 29 587 21Q587 10 573 4T533 -2H489Q440 -2 435 19L406 141H164L109 19Q99 -2 61 -2H21Q-37 -2 -37
18ZM375 273L335 451Q329 477 327 515H323Q311 474 301 451L221 273H375ZM193 786Q186 798 186 808Q186 819 196 829Q248 870 299 870Q320 870 335 867T368 857Q401 844 422 844Q450 844 476 859Q486 865 494 865Q509 865 520 851L522 848Q529 836 529 829Q529
819 512 799Q493 780 465 769T406 758Q369 758 335 770Q328 772 313 778T283 784Q268 784 258 781T233 770Q226 766 219 766Q214 766 207 771T195 783L193 786Z" />
<glyph unicode="&#xc4;" glyph-name="Adieresis" horiz-adv-x="613" d="M-37 -2T-37 18Q-37 26 -31 38L260 681Q269 702 319 702H371Q421 702 426 681L584 38Q587 29 587 21Q587 10 573 4T533 -2H489Q440 -2 435 19L406 141H164L109 19Q99 -2 61 -2H21Q-37 -2
-37 18ZM375 273L335 451Q329 477 327 515H323Q311 474 301 451L221 273H375ZM231 755T218 763T205 787L212 847Q215 879 275 879Q306 879 319 871T332 847L325 787Q320 755 262 755Q231 755 218 763ZM411 755T398 763T385 787L392 847Q395 879 455 879Q486 879
499 871T512 847L505 787Q500 755 442 755Q411 755 398 763Z" />
<glyph unicode="&#xc5;" glyph-name="Aring" horiz-adv-x="613" d="M-37 -2T-37 18Q-37 26 -31 38L260 681Q269 702 319 702H371Q421 702 426 681L584 38Q587 29 587 21Q587 10 573 4T533 -2H489Q440 -2 435 19L406 141H164L109 19Q99 -2 61 -2H21Q-37 -2 -37
18ZM375 273L335 451Q329 477 327 515H323Q311 474 301 451L221 273H375ZM309 727T284 752T258 816Q258 863 288 894T369 926Q408 926 433 901T458 837Q458 790 429 759T348 727Q309 727 284 752ZM371 789T383 800T395 828Q395 842 386 852T362 862Q346 862 334
850T322 821Q322 807 331 798T355 789Q371 789 383 800Z" />
<glyph unicode="&#xc6;" glyph-name="AE" horiz-adv-x="915" d="M-35 -2T-35 20Q-35 27 -27 38L360 673Q369 687 379 693T406 700H872Q886 700 892 691T898 660V655Q896 569 860 569H540L552 424H816Q830 424 836 415T842 384V377Q840 293 804 293H565L579 131H813Q827
131 833 122T839 91V84Q837 0 801 0H467Q451 0 444 7T435 30L426 141H183L110 19Q97 -2 62 -2H25Q-35 -2 -35 20ZM416 273L402 454L410 537H406L370 455L262 273H416Z" />
<glyph unicode="&#xc7;" glyph-name="Ccedilla" horiz-adv-x="619" d="M303 576T252 506T201 298Q201 123 351 123Q406 123 448 136T529 169Q534 171 541 174T552 178Q564 178 564 163Q564 142 557 102T538 47Q516 20 457 7T341 -8L330 -35Q358 -40 379 -59T400
-110Q400 -160 366 -186T271 -212Q235 -212 202 -202T168 -160Q168 -112 182 -112Q186 -112 202 -120T234 -133T271 -139Q284 -139 289 -135T296 -122Q296 -114 290 -109T272 -98Q260 -92 254 -87T248 -74Q248 -67 275 -5Q156 9 99 77T42 276Q42 468 130 588T417
708Q462 708 510 699T587 675Q619 659 619 640Q619 627 606 604T574 562T544 544Q541 544 521 553T472 569T400 576Q303 576 252 506Z" />
<glyph unicode="&#xc8;" glyph-name="Egrave" d="M56 0T48 7T40 32L105 660Q107 681 117 690T149 700H515Q529 700 535 691T541 660V651Q539 569 503 569H251L235 424H459Q473 424 479 415T485 384V376Q483 293 447 293H222L204 131H456Q470 131 476 122T482 91V82Q480
0 444 0H76Q56 0 48 7ZM328 752T313 758T288 777Q263 809 234 842Q214 866 205 878T196 895Q196 904 210 907T258 911Q327 911 340 884L373 816Q393 776 393 768Q393 759 386 756T360 752Q328 752 313 758Z" />
<glyph unicode="&#xc9;" glyph-name="Eacute" d="M56 0T48 7T40 32L105 660Q107 681 117 690T149 700H515Q529 700 535 691T541 660V651Q539 569 503 569H251L235 424H459Q473 424 479 415T485 384V376Q483 293 447 293H222L204 131H456Q470 131 476 122T482 91V82Q480
0 444 0H76Q56 0 48 7ZM283 752T277 755T271 765Q271 770 277 780T296 808Q326 850 348 884Q366 911 436 911Q466 911 480 908T494 898Q494 891 489 885T454 851L378 777Q367 766 350 759T300 752Q283 752 277 755Z" />
<glyph unicode="&#xca;" glyph-name="Ecircumflex" d="M56 0T48 7T40 32L105 660Q107 681 117 690T149 700H515Q529 700 535 691T541 660V651Q539 569 503 569H251L235 424H459Q473 424 479 415T485 384V376Q483 293 447 293H222L204 131H456Q470 131 476 122T482
91V82Q480 0 444 0H76Q56 0 48 7ZM192 749T192 759Q192 766 199 774L275 876Q284 888 298 891T338 895H349Q375 895 388 892T408 876L462 774Q465 767 465 762Q465 749 446 749H424Q400 749 385 754T360 773L335 813L304 774Q292 759 276 754T235 749H211Q192 749
192 759Z" />
<glyph unicode="&#xcb;" glyph-name="Edieresis" d="M56 0T48 7T40 32L105 660Q107 681 117 690T149 700H515Q529 700 535 691T541 660V651Q539 569 503 569H251L235 424H459Q473 424 479 415T485 384V376Q483 293 447 293H222L204 131H456Q470 131 476 122T482
91V82Q480 0 444 0H76Q56 0 48 7ZM214 755T201 763T188 787L195 847Q198 879 258 879Q289 879 302 871T315 847L308 787Q303 755 245 755Q214 755 201 763ZM394 755T381 763T368 787L375 847Q378 879 438 879Q469 879 482 871T495 847L488 787Q483 755 425 755Q394
755 381 763Z" />
<glyph unicode="&#xcc;" glyph-name="Igrave" horiz-adv-x="282" d="M30 -2T30 29L97 670Q100 702 160 702H195Q252 702 252 671L185 30Q182 -2 122 -2H87Q30 -2 30 29ZM181 752T166 758T141 777Q116 809 87 842Q67 866 58 878T49 895Q49 904 63 907T111 911Q180
911 193 884L226 816Q246 776 246 768Q246 759 239 756T213 752Q181 752 166 758Z" />
<glyph unicode="&#xcd;" glyph-name="Iacute" horiz-adv-x="282" d="M30 -2T30 29L97 670Q100 702 160 702H195Q252 702 252 671L185 30Q182 -2 122 -2H87Q30 -2 30 29ZM136 752T130 755T124 765Q124 770 130 780T149 808Q179 850 201 884Q219 911 289 911Q319
911 333 908T347 898Q347 891 342 885T307 851L231 777Q220 766 203 759T153 752Q136 752 130 755Z" />
<glyph unicode="&#xce;" glyph-name="Icircumflex" horiz-adv-x="282" d="M30 -2T30 29L97 670Q100 702 160 702H195Q252 702 252 671L185 30Q182 -2 122 -2H87Q30 -2 30 29ZM45 749T45 759Q45 766 52 774L128 876Q137 888 151 891T191 895H202Q228 895 241 892T261
876L315 774Q318 767 318 762Q318 749 299 749H277Q253 749 238 754T213 773L188 813L157 774Q145 759 129 754T88 749H64Q45 749 45 759Z" />
<glyph unicode="&#xcf;" glyph-name="Idieresis" horiz-adv-x="282" d="M30 -2T30 29L97 670Q100 702 160 702H195Q252 702 252 671L185 30Q182 -2 122 -2H87Q30 -2 30 29ZM67 755T54 763T41 787L48 847Q51 879 111 879Q142 879 155 871T168 847L161 787Q156 755
98 755Q67 755 54 763ZM247 755T234 763T221 787L228 847Q231 879 291 879Q322 879 335 871T348 847L341 787Q336 755 278 755Q247 755 234 763Z" />
<glyph unicode="&#xd0;" glyph-name="Eth" horiz-adv-x="695" d="M513 700T586 626T660 411Q660 280 616 188T491 48T300 0H76Q56 0 48 7T40 33L67 290H35Q21 290 15 299T9 330Q9 421 47 421H80L105 660Q107 681 117 690T149 700H373Q513 700 586 626ZM400 131T450
200T501 397Q501 482 466 525T360 569H251L235 421H292Q306 421 312 412T318 381Q318 290 280 290H221L204 131H313Q400 131 450 200Z" />
<glyph unicode="&#xd1;" glyph-name="Ntilde" horiz-adv-x="719" d="M61 -2T48 6T35 30L102 670Q105 702 165 702H208Q232 702 247 697T272 675L460 329Q479 294 488 269L494 270Q494 296 499 338L534 670Q537 702 597 702H626Q657 702 670 694T683 670L616 30Q613
-2 553 -2H515Q491 -2 476 3T451 25L259 376Q238 412 230 435L224 434Q224 408 219 366L184 30Q181 -2 121 -2H92Q61 -2 48 6ZM244 786Q237 798 237 808Q237 819 247 829Q299 870 350 870Q371 870 386 867T419 857Q452 844 473 844Q501 844 527 859Q537 865 545
865Q560 865 571 851L573 848Q580 836 580 829Q580 819 563 799Q544 780 516 769T457 758Q420 758 386 770Q379 772 364 778T334 784Q319 784 309 781T284 770Q277 766 270 766Q265 766 258 771T246 783L244 786Z" />
<glyph unicode="&#xd2;" glyph-name="Ograve" horiz-adv-x="731" d="M189 -8T115 67T41 284Q41 397 78 493T197 648T403 708Q542 708 615 633T689 414Q689 210 596 101T328 -8Q189 -8 115 67ZM429 123T480 195T531 400Q531 487 495 531T389 576Q301 576 251 504T200
298Q200 212 236 168T342 123Q429 123 480 195ZM396 752T381 758T356 777Q331 809 302 842Q282 866 273 878T264 895Q264 904 278 907T326 911Q395 911 408 884L441 816Q461 776 461 768Q461 759 454 756T428 752Q396 752 381 758Z" />
<glyph unicode="&#xd3;" glyph-name="Oacute" horiz-adv-x="731" d="M189 -8T115 67T41 284Q41 397 78 493T197 648T403 708Q542 708 615 633T689 414Q689 210 596 101T328 -8Q189 -8 115 67ZM429 123T480 195T531 400Q531 487 495 531T389 576Q301 576 251 504T200
298Q200 212 236 168T342 123Q429 123 480 195ZM351 752T345 755T339 765Q339 770 345 780T364 808Q394 850 416 884Q434 911 504 911Q534 911 548 908T562 898Q562 891 557 885T522 851L446 777Q435 766 418 759T368 752Q351 752 345 755Z" />
<glyph unicode="&#xd4;" glyph-name="Ocircumflex" horiz-adv-x="731" d="M189 -8T115 67T41 284Q41 397 78 493T197 648T403 708Q542 708 615 633T689 414Q689 210 596 101T328 -8Q189 -8 115 67ZM429 123T480 195T531 400Q531 487 495 531T389 576Q301 576 251
504T200 298Q200 212 236 168T342 123Q429 123 480 195ZM260 749T260 759Q260 766 267 774L343 876Q352 888 366 891T406 895H417Q443 895 456 892T476 876L530 774Q533 767 533 762Q533 749 514 749H492Q468 749 453 754T428 773L403 813L372 774Q360 759 344
754T303 749H279Q260 749 260 759Z" />
<glyph unicode="&#xd5;" glyph-name="Otilde" horiz-adv-x="731" d="M189 -8T115 67T41 284Q41 397 78 493T197 648T403 708Q542 708 615 633T689 414Q689 210 596 101T328 -8Q189 -8 115 67ZM429 123T480 195T531 400Q531 487 495 531T389 576Q301 576 251 504T200
298Q200 212 236 168T342 123Q429 123 480 195ZM244 786Q237 798 237 808Q237 819 247 829Q299 870 350 870Q371 870 386 867T419 857Q452 844 473 844Q501 844 527 859Q537 865 545 865Q560 865 571 851L573 848Q580 836 580 829Q580 819 563 799Q544 780 516
769T457 758Q420 758 386 770Q379 772 364 778T334 784Q319 784 309 781T284 770Q277 766 270 766Q265 766 258 771T246 783L244 786Z" />
<glyph unicode="&#xd6;" glyph-name="Odieresis" horiz-adv-x="731" d="M189 -8T115 67T41 284Q41 397 78 493T197 648T403 708Q542 708 615 633T689 414Q689 210 596 101T328 -8Q189 -8 115 67ZM429 123T480 195T531 400Q531 487 495 531T389 576Q301 576 251
504T200 298Q200 212 236 168T342 123Q429 123 480 195ZM282 755T269 763T256 787L263 847Q266 879 326 879Q357 879 370 871T383 847L376 787Q371 755 313 755Q282 755 269 763ZM462 755T449 763T436 787L443 847Q446 879 506 879Q537 879 550 871T563 847L556
787Q551 755 493 755Q462 755 449 763Z" />
<glyph unicode="&#xd7;" glyph-name="multiply" horiz-adv-x="560" d="M521 424T521 410Q521 398 510 390L346 242L479 95Q486 86 486 79Q486 63 459 39L454 34Q428 11 413 11Q402 11 396 20L264 167L101 20Q91 11 82 11Q67 11 47 34L42 39Q23 61 23 75Q23 85
34 95L197 242L65 390Q58 397 58 405Q58 422 85 446L90 451Q116 474 131 474Q141 474 148 465L279 318L443 465Q452 474 462 474Q477 474 497 451L502 446Q521 424 521 410Z" />
<glyph unicode="&#xd8;" glyph-name="Oslash" horiz-adv-x="731" d="M689 539T689 414Q689 210 596 101T328 -8Q206 -8 133 50L89 0Q79 -12 67 -12Q57 -12 38 5T19 34Q19 44 29 54L81 112Q41 179 41 284Q41 397 78 493T197 648T403 708Q505 708 572 667L612 712Q623
724 634 724Q644 724 663 707T682 678Q682 668 672 658L632 613Q689 539 689 414ZM200 272T203 251L471 553Q439 576 389 576Q301 576 251 504T200 298Q200 272 203 251ZM429 123T480 195T531 400Q531 450 519 486L237 167Q272 123 342 123Q429 123 480 195Z" />
<glyph unicode="&#xd9;" glyph-name="Ugrave" horiz-adv-x="712" d="M238 -8T179 18T86 95T53 213Q53 222 55 242L98 670Q101 702 162 702H196Q227 702 239 694T252 670L209 252Q208 246 208 234Q208 181 242 152T331 123Q391 123 433 157T481 244L525 670Q528
702 589 702H622Q653 702 665 694T678 670L633 234Q621 119 538 56T317 -8Q238 -8 179 18ZM396 752T381 758T356 777Q331 809 302 842Q282 866 273 878T264 895Q264 904 278 907T326 911Q395 911 408 884L441 816Q461 776 461 768Q461 759 454 756T428 752Q396
752 381 758Z" />
<glyph unicode="&#xda;" glyph-name="Uacute" horiz-adv-x="712" d="M238 -8T179 18T86 95T53 213Q53 222 55 242L98 670Q101 702 162 702H196Q227 702 239 694T252 670L209 252Q208 246 208 234Q208 181 242 152T331 123Q391 123 433 157T481 244L525 670Q528
702 589 702H622Q653 702 665 694T678 670L633 234Q621 119 538 56T317 -8Q238 -8 179 18ZM351 752T345 755T339 765Q339 770 345 780T364 808Q394 850 416 884Q434 911 504 911Q534 911 548 908T562 898Q562 891 557 885T522 851L446 777Q435 766 418 759T368
752Q351 752 345 755Z" />
<glyph unicode="&#xdb;" glyph-name="Ucircumflex" horiz-adv-x="712" d="M238 -8T179 18T86 95T53 213Q53 222 55 242L98 670Q101 702 162 702H196Q227 702 239 694T252 670L209 252Q208 246 208 234Q208 181 242 152T331 123Q391 123 433 157T481 244L525 670Q528
702 589 702H622Q653 702 665 694T678 670L633 234Q621 119 538 56T317 -8Q238 -8 179 18ZM260 749T260 759Q260 766 267 774L343 876Q352 888 366 891T406 895H417Q443 895 456 892T476 876L530 774Q533 767 533 762Q533 749 514 749H492Q468 749 453 754T428
773L403 813L372 774Q360 759 344 754T303 749H279Q260 749 260 759Z" />
<glyph unicode="&#xdc;" glyph-name="Udieresis" horiz-adv-x="712" d="M238 -8T179 18T86 95T53 213Q53 222 55 242L98 670Q101 702 162 702H196Q227 702 239 694T252 670L209 252Q208 246 208 234Q208 181 242 152T331 123Q391 123 433 157T481 244L525 670Q528
702 589 702H622Q653 702 665 694T678 670L633 234Q621 119 538 56T317 -8Q238 -8 179 18ZM282 755T269 763T256 787L263 847Q266 879 326 879Q357 879 370 871T383 847L376 787Q371 755 313 755Q282 755 269 763ZM462 755T449 763T436 787L443 847Q446 879 506
879Q537 879 550 871T563 847L556 787Q551 755 493 755Q462 755 449 763Z" />
<glyph unicode="&#xdd;" glyph-name="Yacute" horiz-adv-x="559" d="M197 -2T184 6T171 30L203 336L38 657Q32 669 32 678Q32 693 48 697T96 702H139Q188 702 197 683L297 469L442 683Q455 702 504 702H540Q601 702 601 682Q601 673 590 657L357 333L325 30Q322
-2 262 -2H228Q197 -2 184 6ZM268 752T262 755T256 765Q256 770 262 780T281 808Q311 850 333 884Q351 911 421 911Q451 911 465 908T479 898Q479 891 474 885T439 851L363 777Q352 766 335 759T285 752Q268 752 262 755Z" />
<glyph unicode="&#xde;" glyph-name="Thorn" horiz-adv-x="567" d="M60 -2T47 6T34 30L101 670Q104 702 164 702H198Q229 702 242 694T255 670L247 593H350Q436 593 501 554T567 408Q567 307 520 251T415 175T314 155H201L188 30Q185 -2 125 -2H91Q60 -2 47 6ZM311
287Q349 287 378 309T408 389Q408 429 385 445T329 462H233L215 287H311Z" />
<glyph unicode="&#xdf;" glyph-name="germandbls" horiz-adv-x="554" d="M49 -2T36 6T23 30L72 490Q79 555 113 604T203 681T324 708Q414 708 470 666T527 550Q527 494 499 451T418 387V383Q470 362 494 327T518 239Q518 172 487 118T397 32T261 0H238Q224 0 218
8T212 36V41Q214 117 250 117H265Q311 117 339 147T368 225Q368 265 344 287T273 311H270Q256 311 250 319T244 347V353Q246 428 282 428H284Q321 428 347 454T374 518Q374 544 359 563T309 583Q273 583 249 561T221 502L171 30Q168 -2 108 -2H80Q49 -2 36 6Z"
/>
<glyph unicode="&#xe0;" glyph-name="agrave" horiz-adv-x="545" d="M529 115T530 113T532 104Q532 85 525 44Q521 19 494 6T437 -8Q342 -8 322 68Q300 34 264 13T186 -9Q112 -9 68 47T24 208Q24 303 52 376T130 489T246 530Q284 530 314 514T367 477Q373 498
378 506T395 519T432 524H444Q502 524 502 499L493 411Q465 151 465 141Q465 124 472 117T495 109Q504 109 512 112T524 115Q529 115 530 113ZM337 345T346 386Q315 413 280 413Q229 413 202 363T174 217Q174 112 242 112Q283 112 320 170L333 308Q337 345 346
386ZM295 575T280 581T255 600Q230 632 201 665Q181 689 172 701T163 718Q163 727 177 730T225 734Q294 734 307 707L340 639Q360 599 360 591Q360 582 353 579T327 575Q295 575 280 581Z" />
<glyph unicode="&#xe1;" glyph-name="aacute" horiz-adv-x="545" d="M529 115T530 113T532 104Q532 85 525 44Q521 19 494 6T437 -8Q342 -8 322 68Q300 34 264 13T186 -9Q112 -9 68 47T24 208Q24 303 52 376T130 489T246 530Q284 530 314 514T367 477Q373 498
378 506T395 519T432 524H444Q502 524 502 499L493 411Q465 151 465 141Q465 124 472 117T495 109Q504 109 512 112T524 115Q529 115 530 113ZM337 345T346 386Q315 413 280 413Q229 413 202 363T174 217Q174 112 242 112Q283 112 320 170L333 308Q337 345 346
386ZM250 575T244 578T238 588Q238 593 244 603T263 631Q293 673 315 707Q333 734 403 734Q433 734 447 731T461 721Q461 714 456 708T421 674L345 600Q334 589 317 582T267 575Q250 575 244 578Z" />
<glyph unicode="&#xe2;" glyph-name="acircumflex" horiz-adv-x="545" d="M529 115T530 113T532 104Q532 85 525 44Q521 19 494 6T437 -8Q342 -8 322 68Q300 34 264 13T186 -9Q112 -9 68 47T24 208Q24 303 52 376T130 489T246 530Q284 530 314 514T367 477Q373
498 378 506T395 519T432 524H444Q502 524 502 499L493 411Q465 151 465 141Q465 124 472 117T495 109Q504 109 512 112T524 115Q529 115 530 113ZM337 345T346 386Q315 413 280 413Q229 413 202 363T174 217Q174 112 242 112Q283 112 320 170L333 308Q337 345
346 386ZM159 572T159 582Q159 589 166 597L242 699Q251 711 265 714T305 718H316Q342 718 355 715T375 699L429 597Q432 590 432 585Q432 572 413 572H391Q367 572 352 577T327 596L302 636L271 597Q259 582 243 577T202 572H178Q159 572 159 582Z" />
<glyph unicode="&#xe3;" glyph-name="atilde" horiz-adv-x="545" d="M529 115T530 113T532 104Q532 85 525 44Q521 19 494 6T437 -8Q342 -8 322 68Q300 34 264 13T186 -9Q112 -9 68 47T24 208Q24 303 52 376T130 489T246 530Q284 530 314 514T367 477Q373 498
378 506T395 519T432 524H444Q502 524 502 499L493 411Q465 151 465 141Q465 124 472 117T495 109Q504 109 512 112T524 115Q529 115 530 113ZM337 345T346 386Q315 413 280 413Q229 413 202 363T174 217Q174 112 242 112Q283 112 320 170L333 308Q337 345 346
386ZM143 609Q136 621 136 631Q136 642 146 652Q198 693 249 693Q270 693 285 690T318 680Q351 667 372 667Q400 667 426 682Q436 688 444 688Q459 688 470 674L472 671Q479 659 479 652Q479 642 462 622Q443 603 415 592T356 581Q319 581 285 593Q278 595 263
601T233 607Q218 607 208 604T183 593Q176 589 169 589Q164 589 157 594T145 606L143 609Z" />
<glyph unicode="&#xe4;" glyph-name="adieresis" horiz-adv-x="545" d="M529 115T530 113T532 104Q532 85 525 44Q521 19 494 6T437 -8Q342 -8 322 68Q300 34 264 13T186 -9Q112 -9 68 47T24 208Q24 303 52 376T130 489T246 530Q284 530 314 514T367 477Q373 498
378 506T395 519T432 524H444Q502 524 502 499L493 411Q465 151 465 141Q465 124 472 117T495 109Q504 109 512 112T524 115Q529 115 530 113ZM337 345T346 386Q315 413 280 413Q229 413 202 363T174 217Q174 112 242 112Q283 112 320 170L333 308Q337 345 346
386ZM181 578T168 586T155 610L162 670Q165 702 225 702Q256 702 269 694T282 670L275 610Q270 578 212 578Q181 578 168 586ZM361 578T348 586T335 610L342 670Q345 702 405 702Q436 702 449 694T462 670L455 610Q450 578 392 578Q361 578 348 586Z" />
<glyph unicode="&#xe5;" glyph-name="aring" horiz-adv-x="545" d="M529 115T530 113T532 104Q532 85 525 44Q521 19 494 6T437 -8Q342 -8 322 68Q300 34 264 13T186 -9Q112 -9 68 47T24 208Q24 303 52 376T130 489T246 530Q284 530 314 514T367 477Q373 498 378
506T395 519T432 524H444Q502 524 502 499L493 411Q465 151 465 141Q465 124 472 117T495 109Q504 109 512 112T524 115Q529 115 530 113ZM337 345T346 386Q315 413 280 413Q229 413 202 363T174 217Q174 112 242 112Q283 112 320 170L333 308Q337 345 346 386ZM259
550T234 575T208 639Q208 686 238 717T319 749Q358 749 383 724T408 660Q408 613 379 582T298 550Q259 550 234 575ZM321 612T333 623T345 651Q345 665 336 675T312 685Q296 685 284 673T272 644Q272 630 281 621T305 612Q321 612 333 623Z" />
<glyph unicode="&#xe6;" glyph-name="ae" horiz-adv-x="829" d="M787 323T756 282T675 222T572 203Q517 203 468 210Q472 152 498 131T573 109Q633 109 708 145Q724 153 728 153Q732 153 734 151T736 139Q735 134 733 104T728 62Q717 25 663 9T554 -8Q428 -8 368
58Q337 33 287 13T179 -8Q104 -8 65 26T25 122Q25 205 87 260T328 316Q337 358 352 389Q339 404 320 409T265 414Q218 414 156 389Q137 382 133 382Q119 382 105 410T90 458Q90 475 118 492T193 520T288 531Q394 531 446 494Q507 531 593 531Q668 531 711 508T771
451T787 386Q787 323 756 282ZM523 302Q587 302 615 321T643 367Q643 391 627 402T583 414Q539 414 513 384T475 302H523ZM247 109T276 120T323 152Q318 184 318 212V224Q174 222 174 147Q174 130 186 120T220 109Q247 109 276 120Z" />
<glyph unicode="&#xe7;" glyph-name="ccedilla" horiz-adv-x="485" d="M186 414T186 219Q186 163 208 136T279 109Q317 109 346 118T403 141Q419 149 424 149Q428 149 429 147T431 135Q431 64 414 42Q396 19 356 7T274 -8L263 -35Q291 -40 312 -59T333 -110Q333
-160 299 -186T204 -212Q168 -212 135 -202T101 -160Q101 -112 115 -112Q119 -112 135 -120T167 -133T204 -139Q217 -139 222 -135T229 -122Q229 -114 223 -109T205 -98Q193 -92 187 -87T181 -74Q181 -67 208 -5Q119 6 76 58T33 204Q33 349 99 440T313 531Q367
531 418 516T471 462Q471 452 462 434T439 401T416 386Q412 386 400 393Q382 403 365 408T318 414Q186 414 186 219Z" />
<glyph unicode="&#xe8;" glyph-name="egrave" horiz-adv-x="539" d="M502 323T471 282T390 222T287 203Q232 203 183 210Q187 152 213 131T288 109Q348 109 423 145Q439 153 443 153Q447 153 449 151T451 139Q450 134 448 104T443 62Q432 25 378 9T269 -8Q150
-8 92 50T33 212Q33 375 110 453T308 531Q383 531 426 508T486 451T502 386Q502 323 471 282ZM238 302Q302 302 330 321T358 367Q358 391 342 402T298 414Q254 414 228 384T190 302H238ZM304 575T289 581T264 600Q239 632 210 665Q190 689 181 701T172 718Q172
727 186 730T234 734Q303 734 316 707L349 639Q369 599 369 591Q369 582 362 579T336 575Q304 575 289 581Z" />
<glyph unicode="&#xe9;" glyph-name="eacute" horiz-adv-x="539" d="M502 323T471 282T390 222T287 203Q232 203 183 210Q187 152 213 131T288 109Q348 109 423 145Q439 153 443 153Q447 153 449 151T451 139Q450 134 448 104T443 62Q432 25 378 9T269 -8Q150
-8 92 50T33 212Q33 375 110 453T308 531Q383 531 426 508T486 451T502 386Q502 323 471 282ZM238 302Q302 302 330 321T358 367Q358 391 342 402T298 414Q254 414 228 384T190 302H238ZM259 575T253 578T247 588Q247 593 253 603T272 631Q302 673 324 707Q342
734 412 734Q442 734 456 731T470 721Q470 714 465 708T430 674L354 600Q343 589 326 582T276 575Q259 575 253 578Z" />
<glyph unicode="&#xea;" glyph-name="ecircumflex" horiz-adv-x="539" d="M502 323T471 282T390 222T287 203Q232 203 183 210Q187 152 213 131T288 109Q348 109 423 145Q439 153 443 153Q447 153 449 151T451 139Q450 134 448 104T443 62Q432 25 378 9T269 -8Q150
-8 92 50T33 212Q33 375 110 453T308 531Q383 531 426 508T486 451T502 386Q502 323 471 282ZM238 302Q302 302 330 321T358 367Q358 391 342 402T298 414Q254 414 228 384T190 302H238ZM168 572T168 582Q168 589 175 597L251 699Q260 711 274 714T314 718H325Q351
718 364 715T384 699L438 597Q441 590 441 585Q441 572 422 572H400Q376 572 361 577T336 596L311 636L280 597Q268 582 252 577T211 572H187Q168 572 168 582Z" />
<glyph unicode="&#xeb;" glyph-name="edieresis" horiz-adv-x="539" d="M502 323T471 282T390 222T287 203Q232 203 183 210Q187 152 213 131T288 109Q348 109 423 145Q439 153 443 153Q447 153 449 151T451 139Q450 134 448 104T443 62Q432 25 378 9T269 -8Q150
-8 92 50T33 212Q33 375 110 453T308 531Q383 531 426 508T486 451T502 386Q502 323 471 282ZM238 302Q302 302 330 321T358 367Q358 391 342 402T298 414Q254 414 228 384T190 302H238ZM190 578T177 586T164 610L171 670Q174 702 234 702Q265 702 278 694T291
670L284 610Q279 578 221 578Q190 578 177 586ZM370 578T357 586T344 610L351 670Q354 702 414 702Q445 702 458 694T471 670L464 610Q459 578 401 578Q370 578 357 586Z" />
<glyph unicode="&#xec;" glyph-name="igrave" horiz-adv-x="265" d="M90 -8T60 22T29 119L32 162Q34 176 35 189T37 214L67 493Q70 525 130 525H158Q186 525 200 516T215 494Q209 440 196 321T178 142Q178 125 185 117T208 109Q217 109 225 112T237 115Q242 115
243 113T245 104Q245 85 238 44Q234 19 207 6T150 -8Q90 -8 60 22ZM400 575T385 581T360 600Q335 632 306 665Q286 689 277 701T268 718Q268 727 282 730T330 734Q399 734 412 707L445 639Q465 599 465 591Q465 582 458 579T432 575Q400 575 385 581Z" />
<glyph unicode="&#xed;" glyph-name="iacute" horiz-adv-x="265" d="M90 -8T60 22T29 119L32 162Q34 176 35 189T37 214L67 493Q70 525 130 525H158Q186 525 200 516T215 494Q209 440 196 321T178 142Q178 125 185 117T208 109Q217 109 225 112T237 115Q242 115
243 113T245 104Q245 85 238 44Q234 19 207 6T150 -8Q90 -8 60 22ZM99 575T93 578T87 588Q87 593 93 603T112 631Q142 673 164 707Q182 734 252 734Q282 734 296 731T310 721Q310 714 305 708T270 674L194 600Q183 589 166 582T116 575Q99 575 93 578Z" />
<glyph unicode="&#xee;" glyph-name="icircumflex" horiz-adv-x="265" d="M90 -8T60 22T29 119L32 162Q34 176 35 189T37 214L67 493Q70 525 130 525H158Q186 525 200 516T215 494Q209 440 196 321T178 142Q178 125 185 117T208 109Q217 109 225 112T237 115Q242
115 243 113T245 104Q245 85 238 44Q234 19 207 6T150 -8Q90 -8 60 22ZM263 572T263 582Q263 589 270 597L346 699Q355 711 369 714T409 718H420Q446 718 459 715T479 699L533 597Q536 590 536 585Q536 572 517 572H495Q471 572 456 577T431 596L406 636L375 597Q363
582 347 577T306 572H282Q263 572 263 582Z" />
<glyph unicode="&#xef;" glyph-name="idieresis" horiz-adv-x="265" d="M90 -8T60 22T29 119L32 162Q34 176 35 189T37 214L67 493Q70 525 130 525H158Q186 525 200 516T215 494Q209 440 196 321T178 142Q178 125 185 117T208 109Q217 109 225 112T237 115Q242
115 243 113T245 104Q245 85 238 44Q234 19 207 6T150 -8Q90 -8 60 22ZM286 578T273 586T260 610L267 670Q270 702 330 702Q361 702 374 694T387 670L380 610Q375 578 317 578Q286 578 273 586ZM466 578T453 586T440 610L447 670Q450 702 510 702Q541 702 554 694T567
670L560 610Q555 578 497 578Q466 578 453 586Z" />
<glyph unicode="&#xf0;" glyph-name="eth" horiz-adv-x="569" d="M464 606Q493 553 512 478T531 322Q531 163 460 78T258 -8Q151 -8 96 48T40 213Q40 365 112 448T314 531Q333 531 365 527Q356 554 339 589Q283 581 277 581Q263 581 253 592T243 619Q243 635 266
639L309 645Q305 652 300 659T289 675Q282 687 282 695Q282 705 297 708Q320 711 359 715Q383 715 398 703T429 666L432 661L501 670Q513 670 523 658T533 631Q533 615 511 612L464 606ZM322 109T351 159T380 304Q380 359 361 386T302 414Q249 414 220 364T190
219Q190 109 270 109Q322 109 351 159Z" />
<glyph unicode="&#xf1;" glyph-name="ntilde" horiz-adv-x="557" d="M534 115T535 113T537 104Q537 85 530 44Q526 19 499 6T442 -8Q382 -8 352 22T321 119L323 145Q323 153 325 173L333 246Q337 283 340 314T344 359Q344 384 331 396T290 409Q263 409 241 391T202
348L170 30Q167 -2 107 -2H79Q51 -2 37 7T22 29L57 377Q60 406 60 428L59 463Q58 470 58 484Q58 500 91 510T174 520Q205 520 207 453Q233 485 276 508T363 531Q430 531 462 500T495 404Q495 389 481 259Q470 156 470 142Q470 125 477 117T500 109Q509 109 517
112T529 115Q534 115 535 113ZM142 609Q135 621 135 631Q135 642 145 652Q197 693 248 693Q269 693 284 690T317 680Q350 667 371 667Q399 667 425 682Q435 688 443 688Q458 688 469 674L471 671Q478 659 478 652Q478 642 461 622Q442 603 414 592T355 581Q318
581 284 593Q277 595 262 601T232 607Q217 607 207 604T182 593Q175 589 168 589Q163 589 156 594T144 606L142 609Z" />
<glyph unicode="&#xf2;" glyph-name="ograve" horiz-adv-x="569" d="M143 -8T88 48T33 211Q33 350 97 440T307 531Q414 531 469 475T524 311Q524 159 451 76T250 -8Q143 -8 88 48ZM314 109T343 159T373 304Q373 359 354 386T295 414Q242 414 213 364T183 218Q183
109 262 109Q314 109 343 159ZM294 575T279 581T254 600Q229 632 200 665Q180 689 171 701T162 718Q162 727 176 730T224 734Q293 734 306 707L339 639Q359 599 359 591Q359 582 352 579T326 575Q294 575 279 581Z" />
<glyph unicode="&#xf3;" glyph-name="oacute" horiz-adv-x="569" d="M143 -8T88 48T33 211Q33 350 97 440T307 531Q414 531 469 475T524 311Q524 159 451 76T250 -8Q143 -8 88 48ZM314 109T343 159T373 304Q373 359 354 386T295 414Q242 414 213 364T183 218Q183
109 262 109Q314 109 343 159ZM249 575T243 578T237 588Q237 593 243 603T262 631Q292 673 314 707Q332 734 402 734Q432 734 446 731T460 721Q460 714 455 708T420 674L344 600Q333 589 316 582T266 575Q249 575 243 578Z" />
<glyph unicode="&#xf4;" glyph-name="ocircumflex" horiz-adv-x="569" d="M143 -8T88 48T33 211Q33 350 97 440T307 531Q414 531 469 475T524 311Q524 159 451 76T250 -8Q143 -8 88 48ZM314 109T343 159T373 304Q373 359 354 386T295 414Q242 414 213 364T183
218Q183 109 262 109Q314 109 343 159ZM158 572T158 582Q158 589 165 597L241 699Q250 711 264 714T304 718H315Q341 718 354 715T374 699L428 597Q431 590 431 585Q431 572 412 572H390Q366 572 351 577T326 596L301 636L270 597Q258 582 242 577T201 572H177Q158
572 158 582Z" />
<glyph unicode="&#xf5;" glyph-name="otilde" horiz-adv-x="569" d="M143 -8T88 48T33 211Q33 350 97 440T307 531Q414 531 469 475T524 311Q524 159 451 76T250 -8Q143 -8 88 48ZM314 109T343 159T373 304Q373 359 354 386T295 414Q242 414 213 364T183 218Q183
109 262 109Q314 109 343 159ZM142 609Q135 621 135 631Q135 642 145 652Q197 693 248 693Q269 693 284 690T317 680Q350 667 371 667Q399 667 425 682Q435 688 443 688Q458 688 469 674L471 671Q478 659 478 652Q478 642 461 622Q442 603 414 592T355 581Q318
581 284 593Q277 595 262 601T232 607Q217 607 207 604T182 593Q175 589 168 589Q163 589 156 594T144 606L142 609Z" />
<glyph unicode="&#xf6;" glyph-name="odieresis" horiz-adv-x="569" d="M143 -8T88 48T33 211Q33 350 97 440T307 531Q414 531 469 475T524 311Q524 159 451 76T250 -8Q143 -8 88 48ZM314 109T343 159T373 304Q373 359 354 386T295 414Q242 414 213 364T183 218Q183
109 262 109Q314 109 343 159ZM180 578T167 586T154 610L161 670Q164 702 224 702Q255 702 268 694T281 670L274 610Q269 578 211 578Q180 578 167 586ZM360 578T347 586T334 610L341 670Q344 702 404 702Q435 702 448 694T461 670L454 610Q449 578 391 578Q360
578 347 586Z" />
<glyph unicode="&#xf7;" glyph-name="divide" horiz-adv-x="560" d="M250 318T239 325T227 350L234 421Q237 453 297 453H308Q339 453 352 445T365 421L358 350Q355 318 294 318H283Q250 318 239 325ZM41 172T35 180T29 206V215Q29 239 37 259T66 279H507Q533
279 533 245V236Q532 211 524 192T496 172H55Q41 172 35 180ZM219 -2T206 6T193 30L200 101Q203 133 264 133H275Q306 133 318 125T331 101L324 30Q321 -2 261 -2H250Q219 -2 206 6Z" />
<glyph unicode="&#xf8;" glyph-name="oslash" horiz-adv-x="569" d="M530 398T530 311Q530 159 457 76T256 -8Q179 -8 126 23L108 2Q96 -11 86 -11Q75 -11 65 -1L51 11Q38 21 38 33Q38 43 48 54L70 79Q39 131 39 211Q39 350 103 440T313 531Q387 531 435 504L459
532Q470 545 481 545Q489 545 502 535L516 523Q529 510 529 501Q529 492 519 480L494 451Q530 398 530 311ZM346 401Q330 414 301 414Q248 414 219 364T189 218L346 401ZM320 109T349 159T379 304V317L216 128Q235 109 268 109Q320 109 349 159Z" />
<glyph unicode="&#xf9;" glyph-name="ugrave" horiz-adv-x="557" d="M528 115T529 113T531 104Q531 85 524 44Q520 19 493 6T436 -8Q339 -8 320 72Q291 38 248 15T160 -8Q29 -8 29 119Q29 137 30 146L65 493Q68 525 128 525H156Q184 525 198 516T213 494L179 167Q177
143 191 129T233 114Q259 114 281 129T319 168L353 493Q356 525 416 525H444Q472 525 486 516T501 494L480 297Q478 276 476 254T471 208L464 142Q464 125 471 117T494 109Q503 109 511 112T523 115Q528 115 529 113ZM294 575T279 581T254 600Q229 632 200 665Q180
689 171 701T162 718Q162 727 176 730T224 734Q293 734 306 707L339 639Q359 599 359 591Q359 582 352 579T326 575Q294 575 279 581Z" />
<glyph unicode="&#xfa;" glyph-name="uacute" horiz-adv-x="557" d="M528 115T529 113T531 104Q531 85 524 44Q520 19 493 6T436 -8Q339 -8 320 72Q291 38 248 15T160 -8Q29 -8 29 119Q29 137 30 146L65 493Q68 525 128 525H156Q184 525 198 516T213 494L179 167Q177
143 191 129T233 114Q259 114 281 129T319 168L353 493Q356 525 416 525H444Q472 525 486 516T501 494L480 297Q478 276 476 254T471 208L464 142Q464 125 471 117T494 109Q503 109 511 112T523 115Q528 115 529 113ZM249 575T243 578T237 588Q237 593 243 603T262
631Q292 673 314 707Q332 734 402 734Q432 734 446 731T460 721Q460 714 455 708T420 674L344 600Q333 589 316 582T266 575Q249 575 243 578Z" />
<glyph unicode="&#xfb;" glyph-name="ucircumflex" horiz-adv-x="557" d="M528 115T529 113T531 104Q531 85 524 44Q520 19 493 6T436 -8Q339 -8 320 72Q291 38 248 15T160 -8Q29 -8 29 119Q29 137 30 146L65 493Q68 525 128 525H156Q184 525 198 516T213 494L179
167Q177 143 191 129T233 114Q259 114 281 129T319 168L353 493Q356 525 416 525H444Q472 525 486 516T501 494L480 297Q478 276 476 254T471 208L464 142Q464 125 471 117T494 109Q503 109 511 112T523 115Q528 115 529 113ZM158 572T158 582Q158 589 165 597L241
699Q250 711 264 714T304 718H315Q341 718 354 715T374 699L428 597Q431 590 431 585Q431 572 412 572H390Q366 572 351 577T326 596L301 636L270 597Q258 582 242 577T201 572H177Q158 572 158 582Z" />
<glyph unicode="&#xfc;" glyph-name="udieresis" horiz-adv-x="557" d="M528 115T529 113T531 104Q531 85 524 44Q520 19 493 6T436 -8Q339 -8 320 72Q291 38 248 15T160 -8Q29 -8 29 119Q29 137 30 146L65 493Q68 525 128 525H156Q184 525 198 516T213 494L179
167Q177 143 191 129T233 114Q259 114 281 129T319 168L353 493Q356 525 416 525H444Q472 525 486 516T501 494L480 297Q478 276 476 254T471 208L464 142Q464 125 471 117T494 109Q503 109 511 112T523 115Q528 115 529 113ZM180 578T167 586T154 610L161 670Q164
702 224 702Q255 702 268 694T281 670L274 610Q269 578 211 578Q180 578 167 586ZM360 578T347 586T334 610L341 670Q344 702 404 702Q435 702 448 694T461 670L454 610Q449 578 391 578Q360 578 347 586Z" />
<glyph unicode="&#xfd;" glyph-name="yacute" horiz-adv-x="481" d="M495 525T495 504Q495 497 490 485L190 -185Q181 -206 132 -206H115Q57 -206 57 -186Q57 -178 63 -167L144 1L31 478Q27 496 27 499Q27 525 91 525H123Q172 525 177 504L216 319Q220 300 232
198H236Q263 287 276 319L355 504Q364 525 413 525H437Q495 525 495 504ZM216 575T210 578T204 588Q204 593 210 603T229 631Q259 673 281 707Q299 734 369 734Q399 734 413 731T427 721Q427 714 422 708T387 674L311 600Q300 589 283 582T233 575Q216 575 210
578Z" />
<glyph unicode="&#xfe;" glyph-name="thorn" horiz-adv-x="571" d="M52 -206T38 -197T23 -175L118 722Q121 754 181 754H209Q237 754 251 745T266 723L240 475Q263 501 294 516T360 531Q434 531 478 475T522 314Q522 219 494 146T416 33T300 -8Q241 -8 193 32L171
-174Q168 -206 108 -206H80Q52 -206 38 -197ZM317 109T344 159T372 305Q372 410 304 410Q263 410 227 354L203 132Q231 109 266 109Q317 109 344 159Z" />
<glyph unicode="&#xff;" glyph-name="ydieresis" horiz-adv-x="481" d="M495 525T495 504Q495 497 490 485L190 -185Q181 -206 132 -206H115Q57 -206 57 -186Q57 -178 63 -167L144 1L31 478Q27 496 27 499Q27 525 91 525H123Q172 525 177 504L216 319Q220 300
232 198H236Q263 287 276 319L355 504Q364 525 413 525H437Q495 525 495 504ZM147 578T134 586T121 610L128 670Q131 702 191 702Q222 702 235 694T248 670L241 610Q236 578 178 578Q147 578 134 586ZM327 578T314 586T301 610L308 670Q311 702 371 702Q402 702
415 694T428 670L421 610Q416 578 358 578Q327 578 314 586Z" />
<glyph unicode="&#x2013;" glyph-name="endash" horiz-adv-x="500" d="M12 212T6 220T0 245V246Q0 319 37 319H478Q504 319 504 285V284Q504 257 497 235T467 212H26Q12 212 6 220Z" />
<glyph unicode="&#x2014;" glyph-name="emdash" horiz-adv-x="1000" d="M12 212T6 220T0 245V246Q0 319 37 319H974Q1000 319 1000 285V284Q1000 257 993 235T963 212H26Q12 212 6 220Z" />
<glyph unicode="&#x2018;" glyph-name="quoteleft" horiz-adv-x="212" d="M68 475T55 486T41 515Q41 555 71 612T141 711T204 754Q220 754 233 749T246 734Q246 723 234 699Q212 654 199 618T180 519Q177 475 116 475H97Q68 475 55 486Z" />
<glyph unicode="&#x2019;" glyph-name="quoteright" horiz-adv-x="212" d="M65 475T52 480T39 495Q39 503 44 515T56 540Q74 577 86 615T105 710Q108 754 169 754H188Q217 754 230 743T244 714Q244 674 214 617T144 518T81 475Q65 475 52 480Z" />
<glyph unicode="&#x201a;" glyph-name="quotesinglbase" horiz-adv-x="198" d="M0 -125T-13 -120T-26 -105Q-26 -97 -21 -85T-9 -60Q9 -23 21 15T40 110Q43 154 104 154H123Q152 154 165 143T179 114Q179 74 149 17T79 -82T16 -125Q0 -125 -13 -120Z" />
<glyph unicode="&#x201c;" glyph-name="quotedblleft" horiz-adv-x="350" d="M226 475T213 486T199 515Q199 555 229 612T299 711T362 754Q378 754 391 749T404 734Q404 723 392 699Q370 654 357 618T338 519Q335 475 274 475H255Q226 475 213 486ZM305 475T292
486T278 515Q278 555 308 612T378 711T441 754Q457 754 470 749T483 734Q483 723 471 699Q449 654 436 618T417 519Q414 475 353 475H334Q305 475 292 486Z" />
<glyph unicode="&#x201d;" glyph-name="quotedblright" horiz-adv-x="350" d="M223 475T210 480T197 495Q197 503 202 515T214 540Q232 577 244 615T263 710Q266 754 327 754H346Q375 754 388 743T402 714Q402 674 372 617T302 518T239 475Q223 475 210 480ZM302
475T289 480T276 495Q276 503 281 515T293 540Q311 577 323 615T342 710Q345 754 406 754H425Q454 754 467 743T481 714Q481 674 451 617T381 518T318 475Q302 475 289 480Z" />
<glyph unicode="&#x201e;" glyph-name="quotedblbase" horiz-adv-x="336" d="M160 -124T147 -119T134 -104Q134 -96 139 -84T151 -59Q169 -22 181 16T200 111Q203 155 264 155H283Q312 155 325 144T339 115Q339 75 309 18T239 -81T176 -124Q160 -124 147 -119ZM-17
-124T-30 -119T-43 -104Q-43 -96 -38 -84T-26 -59Q-8 -22 4 16T23 111Q26 155 87 155H106Q135 155 148 144T162 115Q162 75 132 18T62 -81T-1 -124Q-17 -124 -30 -119Z" />
<glyph unicode="&#x2022;" glyph-name="bullet" horiz-adv-x="336" d="M103 194T69 228T34 313Q34 350 53 383T105 438T181 459Q232 459 266 425T301 340Q301 301 282 268T229 214T154 194Q103 194 69 228Z" />
<glyph unicode="&#x2039;" glyph-name="guilsinglleft" horiz-adv-x="300" d="M160 46T149 61L38 214Q25 232 26 247Q26 265 30 277T47 302L190 455Q204 469 219 469Q234 469 253 454T273 422Q273 412 261 398L137 258L232 118Q238 108 238 99Q238 84 216 65T174
46Q160 46 149 61Z" />
<glyph unicode="&#x203a;" glyph-name="guilsinglright" horiz-adv-x="300" d="M62 46T43 61T23 93Q23 103 35 117L159 257L64 397Q58 408 58 416Q58 431 80 450T122 469Q137 469 147 454L258 301Q270 285 270 268Q270 250 266 238T249 213L106 60Q92 46 77 46Q62
46 43 61Z" />
</font>
</defs>
</svg>
