<?xml version="1.0" standalone="no"?>
<!DOCTYPE svg PUBLIC "-//W3C//DTD SVG 1.1//EN" "http://www.w3.org/Graphics/SVG/1.1/DTD/svg11.dtd">
<svg xmlns="http://www.w3.org/2000/svg">
<defs >
<font id="Spectral" horiz-adv-x="558" ><font-face
    font-family="Spectral SemiBold"
    units-per-em="1000"
    panose-1="2 2 7 2 6 0 0 0 0 0"
    ascent="1059"
    descent="-463"
    alphabetic="0" />
<glyph unicode=" " glyph-name="uni0020" horiz-adv-x="243" />
<glyph unicode="!" glyph-name="uni0021" horiz-adv-x="253" d="M97 213L126 660H250L122 213H97ZM75 -5Q21 -5 21 51Q21 80 40 102T90 124Q144 124 144 68Q144 38 125 17T75 -5Z" />
<glyph unicode="&quot;" glyph-name="uni0022" horiz-adv-x="450" d="M127 490L171 740H224L180 490H127ZM319 490L363 740H416L372 490H319Z" />
<glyph unicode="#" glyph-name="uni0023" horiz-adv-x="543" d="M32 0L117 208H37L44 250H134L198 408H104L111 450H215L301 660H349L263 450H377L463 660H511L425 450H504L497 408H408L344 250H437L430 208H327L242 0H194L279 208H165L80 0H32ZM182 250H296L360
408H246L182 250Z" />
<glyph unicode="$" glyph-name="uni0024" horiz-adv-x="543" d="M155 -80L169 0Q143 8 124 20T93 46Q60 82 60 122Q60 172 104 172H143L148 168L143 141Q133 76 177 50L221 309L218 311Q168 340 142 376T116 468Q116 537 164 589T281 661L295 740H333L321 668Q335
670 350 670Q364 670 377 669L389 740H427L414 663Q437 657 453 648T483 626Q521 593 521 555Q521 507 478 507H437L433 511L437 538Q446 589 405 609L364 367Q476 297 476 200Q476 122 427 69T301 -2L288 -80H249L261 -9Q246 -10 230 -10Q218 -10 206 -9L194 -80H155ZM337
622Q325 622 313 620L278 418Q298 405 329 388L368 620Q354 622 337 622ZM212 514Q212 474 244 444L273 608Q212 580 212 514ZM231 37Q251 37 270 40L306 256Q288 269 256 288L214 38Q222 37 231 37ZM374 156Q374 199 341 230L311 54Q374 86 374 156Z" />
<glyph unicode="%" glyph-name="uni0025" horiz-adv-x="753" d="M412 345Q358 345 329 384T299 491Q299 589 349 669T482 750Q537 750 566 711T596 603Q596 505 546 425T412 345ZM395 461Q395 422 401 398T427 374Q452 374 468 419T493 526T501 636Q501 673 495
697T469 721Q443 721 427 676T403 570T395 461ZM54 18L655 750L691 722L90 -10L54 18ZM531 -10Q477 -10 448 29T418 136Q418 234 468 314T601 395Q656 395 685 356T715 248Q715 150 665 70T531 -10ZM514 106Q514 67 520 43T546 19Q571 19 587 64T612 171T620 281Q620
318 614 342T588 366Q562 366 546 321T522 215T514 106Z" />
<glyph unicode="&amp;" glyph-name="uni0026" horiz-adv-x="771" d="M212 -10Q129 -10 80 32T30 145Q30 219 75 266T204 350Q177 388 164 420T150 491Q150 575 204 622T348 670Q422 670 469 636T516 546Q516 494 472 457T326 382Q333 374 340 364L482 178Q532
241 577 333L490 372L493 388H725L722 372L634 335Q601 281 569 235T504 150Q580 58 649 58Q683 58 710 79H712L723 67Q669 -10 578 -10Q529 -10 492 9T421 67Q324 -10 212 -10ZM255 534Q255 483 310 404Q364 437 387 476T410 553Q410 587 392 608T338 629Q302
629 279 603T255 534ZM141 179Q141 121 173 85T265 48Q332 48 397 95Q390 104 382 114L232 311Q225 320 220 328Q141 273 141 179Z" />
<glyph unicode="&apos;" glyph-name="uni0027" horiz-adv-x="250" d="M123 490L167 740H220L176 490H123Z" />
<glyph unicode="(" glyph-name="uni0028" horiz-adv-x="265" d="M167 -150Q68 7 68 204Q68 359 137 498T315 740H335V737Q242 616 187 474T131 174Q131 83 143 5T187 -147V-150H167Z" />
<glyph unicode=")" glyph-name="uni0029" horiz-adv-x="265" d="M-69 -149V-146Q24 -24 79 117T135 416Q135 508 123 585T79 738V741H99Q198 584 198 387Q198 231 129 92T-49 -149H-69Z" />
<glyph unicode="*" glyph-name="uni002A" horiz-adv-x="365" d="M80 472L200 574L66 594L99 663L212 599V740H283L235 599L369 663L381 594L239 574L323 471L257 430L216 555L133 429L80 472Z" />
<glyph unicode="+" glyph-name="uni002B" horiz-adv-x="543" d="M469 247H287L254 62H200L233 247H50L59 297H241L274 482H328L295 297H477L469 247Z" />
<glyph unicode="," glyph-name="uni002C" horiz-adv-x="247" d="M-4 -193V-169Q52 -140 74 -112T97 -52Q97 -10 62 12L34 30L33 42L70 89Q85 110 96 110Q104 110 118 101Q170 68 170 2Q170 -50 129 -101T-4 -193Z" />
<glyph unicode="-" glyph-name="uni002D" horiz-adv-x="353" d="M44 226L55 288H322L311 226H44Z" />
<glyph unicode="." glyph-name="uni002E" horiz-adv-x="247" d="M87 -5Q33 -5 33 51Q33 80 52 102T101 124Q155 124 155 68Q155 40 137 18T87 -5Z" />
<glyph unicode="/" glyph-name="uni002F" horiz-adv-x="284" d="M-60 -120L293 750H344L-9 -120H-60Z" />
<glyph unicode="0" glyph-name="uni0030" horiz-adv-x="543" d="M212 -10Q130 -10 87 51T43 221Q43 338 81 440T185 606T330 670Q412 670 456 609T500 438Q500 322 461 220T357 54T212 -10ZM231 37Q272 37 305 103T357 269T376 467Q376 541 362 582T312 623Q270
623 238 557T186 392T167 194Q167 120 181 79T231 37Z" />
<glyph unicode="1" glyph-name="uni0031" horiz-adv-x="543" d="M88 0L92 16L185 57L272 550L107 470L114 510L354 660H408L302 57L378 16L375 0H88Z" />
<glyph unicode="2" glyph-name="uni0032" horiz-adv-x="543" d="M9 0L16 34Q137 153 209 231T317 360T364 448T376 525Q376 568 351 594T287 620Q204 620 185 507L178 468L168 457H117Q98 457 90 461T86 494Q90 522 108 552T166 609Q204 635 239 652T337 670Q406
670 452 629T499 523Q499 471 471 422T365 298T140 98H376L446 202H462L419 0H9Z" />
<glyph unicode="3" glyph-name="uni0033" horiz-adv-x="543" d="M200 -10Q148 -10 111 3T52 36Q16 66 16 104Q16 155 53 155H114L120 145L115 111Q101 32 201 32Q262 32 300 78T339 200Q339 254 306 286T210 318H150L159 365H188Q267 365 315 414T364 535Q364
577 345 602T289 628Q206 628 193 541L186 499L176 489H122Q91 489 91 513Q91 572 164 621Q197 644 232 657T314 670Q394 670 440 629T487 530Q487 469 436 422T304 358Q464 331 464 203Q464 148 428 99T331 20T200 -10Z" />
<glyph unicode="4" glyph-name="uni0034" horiz-adv-x="543" d="M224 0L256 180H1L7 208L408 660H458L386 252H496L485 180H374L342 0H224ZM104 252H268L310 490L104 252Z" />
<glyph unicode="5" glyph-name="uni0035" horiz-adv-x="543" d="M177 -10Q98 -10 59 13T20 62Q22 78 43 92L95 128H107L116 103Q126 73 147 55T209 37Q266 37 305 77T345 190Q345 324 181 324Q142 324 90 315L153 660H480L463 570H185L159 429Q175 430 193 431T233
432Q346 432 401 380T457 244Q457 178 421 120T321 26T177 -10Z" />
<glyph unicode="6" glyph-name="uni0036" horiz-adv-x="543" d="M229 -10Q134 -10 84 46T34 194Q34 353 154 486T498 670L492 638Q355 593 279 503T173 309Q236 392 326 392Q400 392 436 347T473 231Q473 120 401 55T229 -10ZM154 164Q154 35 236 35Q287 35 321
84T355 217Q355 323 280 323Q208 323 161 254Q154 209 154 164Z" />
<glyph unicode="7" glyph-name="uni0037" horiz-adv-x="543" d="M70 0Q112 73 157 146T266 316T431 551H99L118 660H533L528 627Q436 491 348 347T189 0H70Z" />
<glyph unicode="8" glyph-name="uni0038" horiz-adv-x="543" d="M220 -10Q134 -10 79 29T23 136Q23 198 67 243T190 328Q141 365 122 399T102 477Q102 556 166 613T323 670Q402 670 450 628T498 523Q498 431 347 362Q413 316 436 275T459 186Q459 103 390 47T220
-10ZM216 521Q216 489 233 457T310 386Q364 421 384 450T404 528Q404 626 315 626Q265 626 241 595T216 521ZM122 145Q122 33 231 33Q284 33 315 64T347 147Q347 196 319 229T221 306Q161 262 142 230T122 145Z" />
<glyph unicode="9" glyph-name="uni0039" horiz-adv-x="543" d="M37 -10L43 22Q179 66 255 155T360 349Q298 268 208 268Q134 268 98 313T62 429Q62 540 134 605T305 670Q400 670 450 614T501 466Q501 307 380 174T37 -10ZM179 443Q179 337 255 337Q325 337 373
405Q380 450 380 496Q380 625 299 625Q248 625 214 576T179 443Z" />
<glyph unicode=":" glyph-name="uni003A" horiz-adv-x="247" d="M87 -5Q33 -5 33 51Q33 80 52 102T101 124Q155 124 155 68Q155 40 137 18T87 -5ZM146 327Q92 327 92 383Q92 412 111 434T160 456Q214 456 214 400Q214 372 196 350T146 327Z" />
<glyph unicode=";" glyph-name="uni003B" horiz-adv-x="247" d="M150 327Q96 327 96 383Q96 412 115 434T164 456Q218 456 218 400Q218 372 200 350T150 327ZM13 -193V-169Q69 -140 91 -112T114 -52Q114 -10 79 12L51 30L50 42L87 89Q102 110 113 110Q121 110
135 101Q187 68 187 2Q187 -50 146 -101T13 -193Z" />
<glyph unicode="&lt;" glyph-name="uni003C" horiz-adv-x="543" d="M432 62L45 247L53 297L505 482L495 424L118 270L441 115L432 62Z" />
<glyph unicode="=" glyph-name="uni003D" horiz-adv-x="543" d="M489 349H71L79 399H498L489 349ZM453 145H35L43 195H462L453 145Z" />
<glyph unicode="&gt;" glyph-name="uni003E" horiz-adv-x="543" d="M96 482L482 297L474 247L22 62L32 120L409 274L86 429L96 482Z" />
<glyph unicode="?" glyph-name="uni003F" horiz-adv-x="399" d="M159 208Q134 234 119 261T104 319Q104 375 138 402T217 442T296 471T331 517Q331 549 299 564T226 579Q216 579 200 578T173 574L131 566L117 571L94 625Q89 635 89 644Q89 655 101 662T150 670Q198
670 250 646T339 580T376 488Q376 428 344 402T269 362T195 330T162 268Q162 238 182 215L159 208ZM130 -5Q76 -5 76 51Q76 80 95 102T144 124Q198 124 198 68Q198 40 180 18T130 -5Z" />
<glyph unicode="@" glyph-name="uni0040" horiz-adv-x="798" d="M365 -118Q227 -118 142 -40T56 168Q56 274 109 364T253 508T453 562Q586 562 664 484T742 284Q742 220 715 160T637 60T516 21Q423 21 442 126Q370 21 296 21Q262 21 239 50T215 135Q215 214 250
281T341 388T456 429Q503 429 534 408L573 425H593L541 133Q534 96 539 82T565 68Q616 68 655 133T695 281Q695 387 623 460T431 533Q292 533 209 432T125 186Q125 57 199 -15T392 -87Q457 -87 507 -72T600 -27L611 -49Q558 -82 500 -100T365 -118ZM317 178Q317
94 358 94Q383 94 406 116T449 166L483 362Q458 391 428 391Q378 391 348 326T317 178Z" />
<glyph unicode="A" glyph-name="uni0041" horiz-adv-x="717" d="M-28 0L-24 16L34 48L385 665H454L583 52L642 16L638 0H364L367 16L455 52L421 225H195L97 49L173 16L170 0H-28ZM224 277H411L362 523L224 277Z" />
<glyph unicode="B" glyph-name="uni0042" horiz-adv-x="648" d="M-7 0L-4 16L81 57L177 603L106 644L109 660H367Q466 660 527 626T588 521Q588 468 546 421T428 355Q590 330 590 203Q590 128 517 64T300 0H-7ZM340 608H299L256 364H302Q379 364 419 403T459 501Q459
553 432 580T340 608ZM317 316H248L201 52H290Q376 52 417 95T458 202Q458 316 317 316Z" />
<glyph unicode="C" glyph-name="uni0043" horiz-adv-x="666" d="M324 -10Q196 -10 124 65T51 259Q51 370 105 463T249 613T448 670Q506 670 544 658T624 622L602 439H585L528 586Q490 623 435 623Q357 623 300 574T211 444T180 264Q180 159 226 99T349 39Q384
39 414 50T471 78L572 207H589L549 41Q506 17 452 4T324 -10Z" />
<glyph unicode="D" glyph-name="uni0044" horiz-adv-x="743" d="M-7 0L-4 16L79 56L175 604L106 644L109 660H359Q532 660 614 584T697 385Q697 292 649 204T507 58T283 0H-7ZM339 609H299L200 49H293Q421 49 494 141T568 383Q568 487 511 548T339 609Z" />
<glyph unicode="E" glyph-name="uni0045" horiz-adv-x="622" d="M-7 0L-4 16L81 57L177 603L106 644L109 660H596L565 487H550L506 608H300L257 365H400L469 451H485L446 232H430L392 317H248L201 52H440L533 198H549L514 0H-7Z" />
<glyph unicode="F" glyph-name="uni0046" horiz-adv-x="602" d="M-7 0L-4 16L81 57L177 603L106 644L109 660H591L561 487H545L501 608H300L257 365H393L462 451H478L439 232H423L385 317H248L202 57L297 16L294 0H-7Z" />
<glyph unicode="G" glyph-name="uni0047" horiz-adv-x="718" d="M314 -10Q193 -10 122 65T51 259Q51 372 109 465T259 615T456 671Q524 671 566 660T653 622L630 449H614L557 586Q515 623 449 623Q368 623 307 572T213 439T179 262Q179 160 227 104T351 47Q395
47 439 58L470 236L395 281L398 297H671L668 281L592 234L564 74Q514 36 444 13T314 -10Z" />
<glyph unicode="H" glyph-name="uni0048" horiz-adv-x="772" d="M-7 0L-4 16L77 57L173 603L101 644L104 660H377L374 644L295 603L253 366H529L571 603L503 644L506 660H779L776 644L693 603L597 57L671 16L668 0H395L398 16L475 57L520 314H244L198 57L269 16L266
0H-7Z" />
<glyph unicode="I" glyph-name="uni0049" horiz-adv-x="374" d="M-7 0L-4 16L77 57L173 603L101 644L104 660H382L379 644L295 603L198 57L274 16L271 0H-7Z" />
<glyph unicode="J" glyph-name="uni004A" horiz-adv-x="384" d="M-38 -173Q-83 -173 -67 -127L-50 -76H-44Q-17 -85 2 -85Q34 -85 56 -60T95 66L190 603L115 644L118 660H395L393 644L312 603L246 235Q226 126 186 44T95 -88Q42 -140 19 -156T-38 -173Z" />
<glyph unicode="K" glyph-name="uni004B" horiz-adv-x="715" d="M-7 0L-4 16L81 57L177 603L106 644L109 660H387L383 644L299 603L202 57L274 16L270 0H-7ZM471 0L253 335L554 609L491 644L494 660H705L701 644L639 619L365 373L585 52L644 16L641 0H471Z" />
<glyph unicode="L" glyph-name="uni004C" horiz-adv-x="586" d="M-7 0L-4 16L81 57L177 603L106 644L109 660H396L393 644L299 603L202 52H405L511 232H527L485 0H-7Z" />
<glyph unicode="M" glyph-name="uni004D" horiz-adv-x="930" d="M-7 0L-4 16L80 57L197 603L115 644L119 660H335L452 170L721 660H924L921 644L836 604L774 57L836 16L833 0H571L574 16L653 56L709 525L415 -5H367L240 534L142 56L215 16L212 0H-7Z" />
<glyph unicode="N" glyph-name="uni004E" horiz-adv-x="765" d="M-5 0L-2 16L84 57L180 602L109 644L112 660H275L550 192L622 604L525 644L529 660H775L772 644L688 604L581 -5H526L227 498L150 56L247 16L243 0H-5Z" />
<glyph unicode="O" glyph-name="uni004F" horiz-adv-x="772" d="M335 -10Q202 -10 127 70T51 277Q51 382 101 472T239 616T436 671Q569 671 644 591T720 383Q720 279 671 190T535 45T335 -10ZM358 40Q427 40 479 88T561 215T591 390Q591 493 546 557T417 622Q349
622 296 575T212 448T181 272Q181 169 228 105T358 40Z" />
<glyph unicode="P" glyph-name="uni0050" horiz-adv-x="632" d="M-7 0L-4 16L81 57L177 603L106 644L109 660H361Q612 660 612 500Q612 418 533 356T303 294H244L202 57L288 16L285 0H-7ZM299 608L252 342H322Q404 342 443 385T482 494Q482 608 341 608H299Z" />
<glyph unicode="Q" glyph-name="uni0051" horiz-adv-x="772" d="M606 -149Q551 -149 476 -123T309 -9Q188 -1 120 77T51 277Q51 382 101 472T239 616T436 671Q569 671 644 591T720 383Q720 256 647 151T452 8Q539 -65 585 -87T681 -109Q712 -109 735 -100L729
-122Q706 -133 675 -141T606 -149ZM358 40Q427 40 479 88T561 215T591 390Q591 493 546 557T417 622Q349 622 296 575T212 448T181 272Q181 169 228 105T358 40Z" />
<glyph unicode="R" glyph-name="uni0052" horiz-adv-x="667" d="M-7 0L-5 16L80 57L176 603L105 644L108 660H353Q462 660 523 621T584 509Q584 448 541 403T428 333L557 55L616 16L613 0H445L318 307H246L202 57L270 16L267 0H-7ZM334 608H299L254 355H316Q383
355 420 397T457 496Q457 608 334 608Z" />
<glyph unicode="S" glyph-name="uni0053" horiz-adv-x="525" d="M198 -10Q137 -10 95 3T13 39L31 207H48L97 80Q142 37 200 37Q263 37 300 72T337 165Q337 207 310 235T208 307Q152 340 127 375T101 463Q101 550 171 610T336 670Q425 670 493 625L476 465H459L412
584Q396 600 376 611T323 622Q277 622 244 589T211 504Q211 469 232 443T312 382Q386 339 418 302T451 206Q451 114 377 52T198 -10Z" />
<glyph unicode="T" glyph-name="uni0054" horiz-adv-x="641" d="M110 0L113 16L216 57L315 608H176L78 446H62L99 660H670L632 446H616L574 608H437L339 57L429 16L426 0H110Z" />
<glyph unicode="U" glyph-name="uni0055" horiz-adv-x="768" d="M345 -10Q240 -10 176 38T111 197Q111 230 119 276L176 603L105 644L108 660H387L383 644L298 603L242 279Q234 239 234 208Q234 126 275 92T383 58Q444 58 498 102T569 244L632 605L549 644L553
660H784L781 644L696 604L639 276Q612 118 535 54T345 -10Z" />
<glyph unicode="V" glyph-name="uni0056" horiz-adv-x="693" d="M270 -5L135 609L76 644L80 660H349L345 644L262 610L359 156H366L612 609L536 644L539 660H737L733 644L675 612L333 -5H270Z" />
<glyph unicode="W" glyph-name="uni0057" horiz-adv-x="950" d="M211 -5L141 607L76 644L80 660H353L350 644L263 608L307 191H312L549 665H606L687 193H692L872 610L795 644L798 660H1005L1002 644L934 611L660 -5H602L517 470H511L270 -5H211Z" />
<glyph unicode="X" glyph-name="uni0058" horiz-adv-x="710" d="M-34 0L-30 16L46 53L299 327L149 610L94 644L97 660H372L369 644L281 610V605L395 395L586 605V609L517 644L520 660H731L728 644L664 611L420 349L581 54L641 16L638 0H359L362 16L443 51L444
55L325 279L121 56L119 52L191 16L188 0H-34Z" />
<glyph unicode="Y" glyph-name="uni0059" horiz-adv-x="684" d="M153 0L156 16L246 57L290 306L132 610L79 644L83 660H346L342 644L262 610L261 606L391 360L590 605L591 609L522 644L526 660H735L732 644L668 613L412 309L367 57L444 16L441 0H153Z" />
<glyph unicode="Z" glyph-name="uni005A" horiz-adv-x="613" d="M16 0L22 36L441 608H215L121 462H105L141 660H595L589 624L170 56H416L513 208H529L491 0H16Z" />
<glyph unicode="[" glyph-name="uni005B" horiz-adv-x="265" d="M14 -150L166 740H336L332 717H224L81 -127H188L184 -150H14Z" />
<glyph unicode="\" glyph-name="uni005C" horiz-adv-x="328" d="M220 -120L60 750H108L268 -120H220Z" />
<glyph unicode="]" glyph-name="uni005D" horiz-adv-x="265" d="M-60 -150L-56 -127H52L195 717H88L92 740H262L110 -150H-60Z" />
<glyph unicode="^" glyph-name="uni005E" horiz-adv-x="543" d="M49 250L311 670H359L474 250H418L324 592L110 250H49Z" />
<glyph unicode="_" glyph-name="uni005F" horiz-adv-x="500" d="M25 -133L32 -97H468L461 -133H25Z" />
<glyph unicode="`" glyph-name="uni0060" horiz-adv-x="500" d="M323 530L184 644Q164 660 163 676T163 707H251L339 530H323Z" />
<glyph unicode="a" glyph-name="uni0061" horiz-adv-x="531" d="M132 -10Q91 -10 66 24T40 122Q40 214 80 292T184 417T318 464Q371 464 408 440L453 460H475L415 124Q407 74 432 74Q467 74 501 147L517 141Q461 -10 374 -10Q283 -10 300 106H298Q256 48 217 19T132
-10ZM156 172Q156 74 204 74Q232 74 259 99T308 157L349 388Q321 421 285 421Q227 421 192 345T156 172Z" />
<glyph unicode="b" glyph-name="uni0062" horiz-adv-x="508" d="M209 -10Q146 -10 103 20L40 -6H30L148 672L75 705V716L272 750H275L206 352H211Q248 402 283 433T369 464Q412 464 439 428T467 322Q467 235 432 160T337 37T209 -10ZM302 380Q278 380 250 358T196
298L158 77Q185 31 223 31Q275 31 313 104T352 286Q352 380 302 380Z" />
<glyph unicode="c" glyph-name="uni0063" horiz-adv-x="436" d="M197 -10Q39 -10 39 164Q39 238 76 306T175 419T304 464Q380 464 413 415Q422 402 422 389Q422 372 407 361L366 332H360L339 368Q322 396 309 408T269 420Q225 420 189 357T152 211Q152 82 252
82Q280 82 310 96T381 157H383L397 145Q358 77 309 34T197 -10Z" />
<glyph unicode="d" glyph-name="uni0064" horiz-adv-x="536" d="M133 -10Q92 -10 67 24T41 122Q41 214 82 292T186 417T320 464Q342 464 363 459L400 672L316 705V716L524 750H527L417 124Q408 74 433 74Q468 74 502 147L519 141Q461 -10 376 -10Q285 -10 302
106H299Q216 -10 133 -10ZM158 172Q158 118 169 96T205 74Q230 74 257 97T310 158L351 387Q324 421 286 421Q232 421 195 347T158 172Z" />
<glyph unicode="e" glyph-name="uni0065" horiz-adv-x="440" d="M195 -10Q115 -10 77 35T39 158Q39 234 74 304T170 419T309 464Q361 464 387 441T413 385Q413 339 361 303T154 234Q153 219 153 203Q153 148 180 115T255 82Q314 82 379 147H382L395 134Q361 75
309 33T195 -10ZM278 425Q236 425 203 383T159 270Q251 292 285 319T320 385Q320 425 278 425Z" />
<glyph unicode="f" glyph-name="uni0066" horiz-adv-x="327" d="M-68 -240Q-93 -240 -109 -230T-125 -208Q-125 -200 -119 -190L-94 -146H-88L-63 -167Q-49 -178 -28 -178Q31 -178 50 -46L120 410H46V454H126L132 490Q138 532 181 593T284 702T401 750Q414 750
425 748T445 742Q469 730 469 715Q469 707 462 695L432 644H425L403 660Q374 681 346 681Q276 681 254 543L240 454H345V410H233L171 11Q164 -28 127 -87T36 -193T-68 -240Z" />
<glyph unicode="g" glyph-name="uni0067" horiz-adv-x="462" d="M223 155Q181 155 149 169Q118 151 118 120Q118 94 147 83T219 65T305 47T377 10T406 -64Q406 -127 344 -183T159 -240Q72 -240 29 -212T-15 -140Q-15 -113 -6 -95T25 -54L95 -15V-13Q65 -3 46 15T26
68Q26 113 59 146L124 179V183Q72 220 72 287Q72 352 128 408T269 464Q302 464 334 454H493V410H403L398 406Q424 375 424 329Q424 269 370 212T223 155ZM238 195Q274 195 297 240T321 336Q321 425 259 425Q221 425 198 382T174 286Q174 245 190 220T238 195ZM69
-126Q69 -160 97 -183T176 -207Q238 -207 269 -178T301 -111Q301 -75 274 -59T208 -37T129 -22Q91 -46 80 -71T69 -126Z" />
<glyph unicode="h" glyph-name="uni0068" horiz-adv-x="541" d="M139 0H26L143 671L69 705V715L267 749H270L203 366H207Q256 420 289 442T368 464Q419 464 446 424T462 316L428 124Q419 74 444 74Q479 74 513 147L530 141Q472 -10 387 -10Q291 -10 314 115L349
312Q354 342 343 364T297 387Q271 387 244 365T195 319L139 0Z" />
<glyph unicode="i" glyph-name="uni0069" horiz-adv-x="297" d="M202 572Q174 572 154 592T133 641Q133 670 153 690T202 710Q231 710 251 690T271 641Q271 612 251 592T202 572ZM134 -10Q39 -10 61 115L109 386L35 420V430L233 464H236L175 124Q167 74 192 74Q227
74 261 147L277 141Q221 -10 134 -10Z" />
<glyph unicode="j" glyph-name="uni006A" horiz-adv-x="291" d="M202 572Q173 572 153 592T132 641Q132 670 152 690T202 710Q230 710 250 690T271 641Q271 612 251 592T202 572ZM-76 -230V-212Q-24 -177 2 -139T43 -10L108 386L34 420V430L232 464H235L160 17Q133
-144 -76 -230Z" />
<glyph unicode="k" glyph-name="uni006B" horiz-adv-x="502" d="M26 0L143 671L69 705V715L267 749H270L139 0H26ZM365 -10Q324 -10 305 16T267 81L185 256V261Q294 375 346 419T430 464Q451 464 464 455Q481 442 474 426L451 368L446 365L430 372Q424 374 415
376T389 378Q358 378 333 358L274 309L370 120Q395 74 415 74Q444 74 471 146L488 141Q462 60 434 25T365 -10Z" />
<glyph unicode="l" glyph-name="uni006C" horiz-adv-x="279" d="M120 -10Q25 -10 47 115L144 672L65 705V716L268 750H271L161 124Q152 74 177 74Q212 74 246 147L263 141Q205 -10 120 -10Z" />
<glyph unicode="m" glyph-name="uni006D" horiz-adv-x="803" d="M37 0L105 386L36 420V430L208 464H211V364H216Q266 420 296 442T375 464Q462 464 467 364H473Q523 420 554 442T633 464Q682 464 708 424T723 316L689 124Q680 74 705 74Q740 74 774 147L791 141Q733
-10 648 -10Q553 -10 575 115L610 312Q614 342 604 364T562 387Q536 387 511 366T465 320L464 316L409 0H295L351 312Q356 342 347 364T304 387Q277 387 252 364T205 318L151 0H37Z" />
<glyph unicode="n" glyph-name="uni006E" horiz-adv-x="553" d="M37 0L105 386L36 420V430L208 464H211V364H216Q266 420 299 442T380 464Q431 464 458 424T474 316L440 124Q431 74 456 74Q491 74 525 147L542 141Q484 -10 399 -10Q303 -10 326 115L360 312Q364
342 354 364T309 387Q282 387 254 364T205 318L151 0H37Z" />
<glyph unicode="o" glyph-name="uni006F" horiz-adv-x="508" d="M219 -10Q128 -10 84 47T39 190Q39 256 70 319T157 423T283 464Q378 464 423 408T468 265Q468 202 438 139T351 33T219 -10ZM232 34Q284 34 317 109T350 284Q350 421 277 421Q225 421 192 350T158
175Q158 109 174 72T232 34Z" />
<glyph unicode="p" glyph-name="uni0070" horiz-adv-x="525" d="M-43 -230V-214L16 -181L115 386L46 420V430L218 464H221V351H227Q268 408 304 436T386 464Q430 464 457 428T484 322Q484 235 449 160T355 37T227 -10Q192 -10 162 0L132 -180L213 -214V-230H-43ZM319
380Q290 380 262 354T213 297L175 77Q187 56 202 44T241 31Q296 31 333 107T370 286Q370 380 319 380Z" />
<glyph unicode="q" glyph-name="uni0071" horiz-adv-x="504" d="M172 -230V-214L247 -181L297 100H292Q253 45 215 18T132 -10Q91 -10 66 24T40 122Q40 214 80 292T184 417T318 464Q372 464 409 439L464 460H475L361 -178L428 -214V-230H172ZM156 172Q156 74 204
74Q232 74 258 98T307 155L348 388Q321 421 284 421Q226 421 191 346T156 172Z" />
<glyph unicode="r" glyph-name="uni0072" horiz-adv-x="371" d="M37 0L105 386L36 420V430L207 464H210V353H216Q262 429 287 446T338 464Q359 464 375 452T391 427Q391 420 387 411L355 346H349L337 354Q316 370 292 370Q269 370 250 357T202 296L151 0H37Z" />
<glyph unicode="s" glyph-name="uni0073" horiz-adv-x="373" d="M142 -10Q99 -10 71 2T27 31Q9 49 9 64Q9 79 20 86L53 109H60L77 84Q109 34 164 34Q238 34 238 97Q238 129 216 147T150 192Q100 222 80 248T60 321Q60 370 116 417T241 464Q280 464 302 452T336
424Q349 407 349 393Q349 378 340 373L307 350H300L276 380Q261 399 247 409T209 419Q184 419 168 404T152 366Q152 321 222 283Q269 257 296 230T324 149Q324 88 274 39T142 -10Z" />
<glyph unicode="t" glyph-name="uni0074" horiz-adv-x="335" d="M144 -10Q53 -10 53 91Q53 109 58 136L106 410H39L41 422L141 468L231 561H245L227 454H349V410H219L176 171Q172 143 172 129Q172 84 205 84Q228 84 252 107T297 179L315 173Q254 -10 144 -10Z" />
<glyph unicode="u" glyph-name="uni0075" horiz-adv-x="543" d="M154 -10Q114 -10 89 19T63 100Q63 117 66 138L110 386L40 420V430L232 464H235L182 157Q178 133 178 122Q178 99 189 83T225 67Q249 67 274 88T320 132L364 386L304 420V430L486 464H490L430 124Q421
74 447 74Q482 74 516 147L533 141Q475 -10 390 -10Q307 -10 314 89H312Q263 35 232 13T154 -10Z" />
<glyph unicode="v" glyph-name="uni0076" horiz-adv-x="457" d="M187 0L88 392L15 420V430L188 464H191L271 135H277L334 221Q362 264 369 290T376 332Q376 364 346 381L332 390V394L354 438Q368 464 388 464Q414 464 433 437T453 381Q453 352 438 319T383 229L221
0H187Z" />
<glyph unicode="w" glyph-name="uni0077" horiz-adv-x="673" d="M172 0L88 391L15 420V430L188 464H191L251 158H254L395 454H424L506 144H511L551 221Q575 266 583 291T592 332Q592 363 563 381L548 390V394L570 438Q584 464 604 464Q630 464 650 437T670 381Q670
352 652 320T599 229L461 0H428L351 273L206 0H172Z" />
<glyph unicode="x" glyph-name="uni0078" horiz-adv-x="474" d="M-7 0Q-7 16 9 35T67 95T185 221L117 390L47 420V430L208 464H211L280 288Q328 350 348 380T375 425T388 454H459Q458 440 444 423T395 370T292 258L366 70L436 40V30L278 -4H275L197 190Q140 118
116 83T83 32T67 0H-7Z" />
<glyph unicode="y" glyph-name="uni0079" horiz-adv-x="460" d="M3 -240Q-25 -240 -25 -211V-146L-18 -140H35Q70 -140 88 -135T122 -111T165 -48L189 -10L87 390L14 420V430L184 464H187L270 126H274L334 221Q361 264 368 290T376 332Q376 364 346 381L332 390V394L354
438Q368 464 388 464Q414 464 433 438T453 381Q453 352 437 320T383 229L184 -79Q162 -114 151 -133T112 -183Q64 -240 3 -240Z" />
<glyph unicode="z" glyph-name="uni007A" horiz-adv-x="430" d="M24 -5L6 12L286 360H120L81 290H65L91 454H390L399 434L159 137L311 100L360 181H376L341 -5L137 42Q112 47 101 47Q71 47 40 12L24 -5Z" />
<glyph unicode="{" glyph-name="uni007B" horiz-adv-x="265" d="M185 -150H164Q96 -150 65 -122T34 -47Q34 -2 55 44T97 135T118 222Q118 248 104 266T50 284H26L30 307H53Q110 307 131 342T152 421Q152 456 145 492T138 568Q138 645 179 692T312 740H333L329
717H307Q252 717 228 680T203 584Q204 547 209 514T215 448Q215 402 194 363T110 295Q149 279 163 256T177 199Q177 166 157 119T116 24T95 -60Q95 -127 167 -127H189L185 -150Z" />
<glyph unicode="|" glyph-name="uni007C" horiz-adv-x="250" d="M13 -250L189 750H237L61 -250H13Z" />
<glyph unicode="}" glyph-name="uni007D" horiz-adv-x="265" d="M-48 -150L-44 -127H-22Q34 -127 58 -90T82 6Q81 43 76 76T70 142Q70 188 92 227T175 295Q136 311 122 334T108 391Q108 424 128 471T169 566T190 650Q190 717 118 717H96L100 740H121Q189 740 220
712T251 637Q251 592 230 546T188 455T167 368Q167 342 181 324T235 306H259L255 283H232Q175 283 154 248T133 169Q133 134 140 98T147 22Q147 -55 106 -102T-27 -150H-48Z" />
<glyph unicode="~" glyph-name="uni007E" horiz-adv-x="543" d="M355 201Q306 201 278 224T227 270T169 293Q134 293 117 268T94 201H43Q65 343 174 343Q223 343 250 320T301 274T360 251Q394 251 411 276T435 343H486Q464 201 355 201Z" />
<glyph unicode="&#xa0;" glyph-name="uni00A0" horiz-adv-x="243" />
<glyph unicode="&#xa1;" glyph-name="uni00A1" horiz-adv-x="238" d="M127 332Q73 332 73 388Q73 418 91 439T141 461Q195 461 195 405Q195 377 176 355T127 332ZM-34 -204L94 244H119L90 -204H-34Z" />
<glyph unicode="&#xa2;" glyph-name="uni00A2" horiz-adv-x="543" d="M143 26L176 106Q90 140 90 267Q90 340 127 409T225 522T355 567Q360 567 364 567L392 635H435L404 560Q443 549 463 518Q472 504 472 491Q472 474 457 464L417 435H410L389 471Q386 477 383
482T376 492L256 198Q275 187 300 187Q334 187 363 203T427 261H430L447 246Q409 178 360 136T248 93Q230 93 213 95L185 26H143ZM205 314Q205 261 226 228L345 519Q336 522 325 522Q278 522 242 459T205 314Z" />
<glyph unicode="&#xa3;" glyph-name="uni00A3" horiz-adv-x="543" d="M26 0L34 48Q125 113 155 154T185 245Q185 260 182 277T173 313H75L83 355H160Q153 379 148 403T142 450Q142 536 212 603T377 670Q438 670 472 651T521 609Q532 592 532 580Q532 566 515 555L463
520H456L446 546Q436 574 417 598T358 623Q310 623 282 591T253 512Q253 477 266 436T290 355H444L436 313H299Q302 296 302 281Q302 222 266 179T146 95H400L448 192H481L437 0H26Z" />
<glyph unicode="&#xa4;" glyph-name="uni00A4" horiz-adv-x="543" d="M394 62L339 133Q301 110 250 110Q193 110 155 142L66 62L35 99L124 178Q105 214 105 256Q105 330 152 380L96 449L138 482L194 411Q232 434 283 434Q340 434 377 403L466 483L497 446L408
367Q428 332 428 289Q428 213 380 165L435 95L394 62ZM256 156Q310 156 343 192T377 285Q377 334 350 361T277 389Q223 389 189 353T155 260Q155 210 182 183T256 156Z" />
<glyph unicode="&#xa5;" glyph-name="uni00A5" horiz-adv-x="543" d="M90 0L93 16L180 57L212 246H80L88 288H219L238 396H106L114 438H216L119 621L78 644L81 660H316L314 644L250 619L249 616L337 440L467 612L468 616L411 644L414 660H596L593 644L538 622L386
438H491L482 396H351L350 395L332 288H465L457 246H325L293 57L366 16L363 0H90Z" />
<glyph unicode="&#xa6;" glyph-name="uni00A6" horiz-adv-x="250" d="M162 350L232 750H279L209 350H162ZM56 -250L126 150H173L103 -250H56Z" />
<glyph unicode="&#xa7;" glyph-name="uni00A7" horiz-adv-x="528" d="M139 -121Q96 -121 68 -108T25 -78Q14 -64 15 -53Q15 -41 32 -28L80 12L86 11L100 -8Q112 -25 133 -47T189 -69Q232 -69 256 -44T280 16Q280 59 242 78T155 111T68 152T30 239Q30 293 68 338T173
405Q140 435 140 484Q140 555 206 612T376 670Q418 670 442 658T481 630Q491 615 491 607Q490 598 474 582L427 544L421 545L408 563Q396 580 377 600T324 620Q284 620 259 598T234 538Q234 494 272 474T359 439T446 397T484 310Q484 254 446 212T342 148Q378 118
378 67Q378 18 344 -24T255 -94T139 -121ZM130 294Q130 254 157 234T223 202T298 174Q334 179 359 202T385 258Q385 300 356 320T285 352T206 382Q130 363 130 294Z" />
<glyph unicode="&#xa8;" glyph-name="uni00A8" horiz-adv-x="500" d="M159 567Q137 567 123 582T108 618Q108 638 122 653T159 668Q180 668 194 653T209 618Q209 597 195 582T159 567ZM341 567Q319 567 305 582T290 618Q290 638 304 653T341 668Q363 668 377 653T392
618Q392 597 378 582T341 567Z" />
<glyph unicode="&#xa9;" glyph-name="uni00A9" horiz-adv-x="806" d="M361 -10Q230 -10 147 75T64 287Q64 390 111 477T244 617T444 670Q575 670 658 586T742 374Q742 271 694 184T561 43T361 -10ZM365 24Q462 24 537 70T657 194T701 370Q701 483 629 559T441
635Q344 635 269 590T149 466T105 290Q105 176 177 100T365 24ZM378 129Q297 129 254 175T210 299Q210 392 278 466T451 540Q493 540 518 532T568 509L551 394H525L500 474Q472 495 443 495Q382 495 341 440T300 296Q300 175 392 175Q411 175 425 179T452 191L509
266H535L509 165Q479 148 449 139T378 129Z" />
<glyph unicode="&#xaa;" glyph-name="uni00AA" horiz-adv-x="400" d="M150 417Q102 417 102 491Q102 558 144 614T248 670Q283 670 303 654L337 670H350L316 489Q310 459 326 459Q340 459 360 498L373 493Q356 452 334 435T289 417Q258 417 249 435T242 476H239Q200
417 150 417ZM176 512Q176 468 195 468Q212 468 225 484T249 519L269 628Q260 646 241 646Q210 646 193 602T176 512ZM76 292L85 342H325L316 292H76Z" />
<glyph unicode="&#xab;" glyph-name="uni00AB" horiz-adv-x="438" d="M17 247L218 424H233L114 248L178 70H163L17 247ZM206 247L407 424H422L303 248L367 70H352L206 247Z" />
<glyph unicode="&#xac;" glyph-name="uni00AC" horiz-adv-x="543" d="M381 62L414 247H50L59 297H477L436 62H381Z" />
<glyph unicode="&#xad;" glyph-name="uni00AD" horiz-adv-x="356" d="M44 226L55 288H322L311 226H44Z" />
<glyph unicode="&#xae;" glyph-name="uni00AE" horiz-adv-x="500" d="M244 230Q159 230 105 285T51 422Q51 522 119 596T297 670Q382 670 436 616T490 479Q490 378 422 304T244 230ZM247 260Q336 260 396 321T456 477Q456 546 411 593T293 640Q204 640 145 579T85
423Q85 354 129 307T247 260ZM138 325L140 332L173 348L211 558L182 574L183 580H296Q373 580 373 523Q373 470 309 453L344 345L368 332L366 325H293L260 442H241L224 348L251 332L249 325H138ZM276 557H261L245 465H260Q320 465 320 521Q320 557 276 557Z" />
<glyph unicode="&#xaf;" glyph-name="uni00AF" horiz-adv-x="500" d="M107 590L117 644H392L382 590H107Z" />
<glyph unicode="&#xb0;" glyph-name="uni00B0" horiz-adv-x="500" d="M286 410Q230 410 193 449T156 540Q156 592 193 631T286 670Q342 670 379 631T416 540Q416 488 379 449T286 410ZM286 452Q320 452 344 476T369 540Q369 580 345 604T286 628Q251 628 227 604T202
540Q202 500 226 476T286 452Z" />
<glyph unicode="&#xb1;" glyph-name="uni00B1" horiz-adv-x="543" d="M275 482H329L304 337H486L477 287H295L271 152H217L241 287H58L67 337H250L275 482ZM437 62H19L27 112H446L437 62Z" />
<glyph unicode="&#xb2;" glyph-name="uni00B2" horiz-adv-x="337" d="M67 505L72 530Q163 621 206 672T263 756T277 820Q277 868 233 868Q188 868 177 800L173 774L166 767H125Q115 767 110 771T107 791Q111 809 123 827T164 864Q185 878 208 889T274 900Q318
900 345 877T373 814Q373 783 356 754T292 684T160 578H300L348 639H357L330 505H67Z" />
<glyph unicode="&#xb3;" glyph-name="uni00B3" horiz-adv-x="330" d="M181 495Q128 495 97 521Q72 541 72 568Q72 600 97 600H139L144 593L140 572Q130 523 183 523Q255 523 255 627Q255 689 183 689H148L153 718H171Q213 718 241 748T269 824Q267 872 235 872Q193
872 184 819L180 791L173 785H133Q115 785 115 800Q115 832 154 865Q177 882 200 891T254 900Q306 900 336 877T367 819Q367 776 332 749T244 715Q353 702 354 625Q354 569 302 532T181 495Z" />
<glyph unicode="&#xb4;" glyph-name="uni00B4" horiz-adv-x="500" d="M151 530L251 707H349Q346 692 338 678T306 644L167 530H151Z" />
<glyph unicode="&#xb5;" glyph-name="uni00B5" horiz-adv-x="561" d="M6 -230H4L123 454H236L182 142Q177 110 186 88T227 65Q252 65 277 87T323 133L378 454H490L424 71Q438 55 474 55H505L508 52L507 42Q491 22 465 6T399 -10Q359 -10 336 16T316 88H312Q265
34 238 12T169 -10Q129 -10 108 19L113 -210L6 -230Z" />
<glyph unicode="&#xb6;" glyph-name="uni00B6" horiz-adv-x="500" d="M171 -110L256 359H215Q144 359 101 395T58 491Q58 569 112 614T254 660H362L223 -110H171ZM279 -110L418 660H548L545 644L460 603L331 -110H279Z" />
<glyph unicode="&#xb7;" glyph-name="uni00B7" horiz-adv-x="250" d="M118 207Q64 207 64 263Q64 292 83 314T132 336Q186 336 186 280Q186 252 168 230T118 207Z" />
<glyph unicode="&#xb8;" glyph-name="uni00B8" horiz-adv-x="500" d="M232 -240Q183 -240 156 -215L159 -199H163Q189 -211 219 -211Q279 -211 279 -166Q279 -144 260 -129T193 -100L268 23H300L256 -50Q344 -78 344 -145Q344 -186 314 -213T232 -240Z" />
<glyph unicode="&#xb9;" glyph-name="uni00B9" horiz-adv-x="309" d="M107 505L109 514L166 539L216 825L119 781L124 807L267 896H320L258 539L307 514L305 505H107Z" />
<glyph unicode="&#xba;" glyph-name="uni00BA" horiz-adv-x="400" d="M211 417Q156 417 129 447T101 525Q101 582 140 626T245 670Q300 670 326 640T353 563Q353 508 315 463T211 417ZM215 441Q244 441 258 484T273 574Q273 605 267 626T242 647Q212 647 197 605T182
516Q182 484 189 463T215 441ZM64 292L73 342H313L304 292H64Z" />
<glyph unicode="&#xbb;" glyph-name="uni00BB" horiz-adv-x="438" d="M233 247L32 70H17L135 246L71 424H86L233 247ZM422 247L221 70H206L324 246L260 424H275L422 247Z" />
<glyph unicode="&#xbc;" glyph-name="uni00BC" horiz-adv-x="755" d="M335 355L337 364L394 389L444 675L347 631L352 657L495 746H548L486 389L535 364L533 355H335ZM46 18L647 750L683 722L82 -10L46 18ZM520 0L537 99H389L394 120L619 391H681L639 148H703L695
99H630L613 0H520ZM451 148H546L571 295L451 148Z" />
<glyph unicode="&#xbd;" glyph-name="uni00BD" horiz-adv-x="754" d="M333 355L335 364L392 389L442 675L345 631L350 657L493 746H546L484 389L533 364L531 355H333ZM44 18L645 750L681 722L80 -10L44 18ZM398 0L403 25Q494 116 537 167T594 251T608 315Q608
363 564 363Q519 363 508 295L504 269L497 262H456Q446 262 441 266T438 286Q442 304 454 322T495 359Q516 373 539 384T605 395Q649 395 676 372T704 309Q704 278 687 249T623 179T491 73H631L679 134H688L661 0H398Z" />
<glyph unicode="&#xbe;" glyph-name="uni00BE" horiz-adv-x="761" d="M401 345Q348 345 317 371Q292 391 292 418Q292 450 317 450H359L364 443L360 422Q350 373 403 373Q475 373 475 477Q475 539 403 539H368L373 568H391Q433 568 461 598T489 674Q487 722 455
722Q413 722 404 669L400 641L393 635H353Q335 635 335 650Q335 682 374 715Q397 732 420 741T474 750Q526 750 556 727T587 669Q587 626 552 599T464 565Q573 552 574 475Q574 419 522 382T401 345ZM59 18L660 750L696 722L95 -10L59 18ZM534 0L551 99H403L408
120L633 391H695L653 148H717L709 99H644L627 0H534ZM465 148H560L585 295L465 148Z" />
<glyph unicode="&#xbf;" glyph-name="uni00BF" horiz-adv-x="399" d="M220 336Q166 336 166 392Q166 420 184 442T234 465Q288 465 288 409Q288 380 269 358T220 336ZM214 -210Q166 -210 114 -186T25 -120T-12 -29Q-12 31 20 58T95 98T169 129T202 192Q202 220
183 245L205 252Q230 226 245 199T260 141Q260 85 226 58T147 18T68 -11T33 -57Q33 -90 65 -104T139 -119Q149 -119 164 -118T192 -114L233 -106L247 -111L270 -165Q275 -175 275 -184Q275 -195 263 -202T214 -210Z" />
<glyph unicode="&#xc0;" glyph-name="uni00C0" horiz-adv-x="717" d="M-28 0L-24 16L34 48L385 665H454L583 52L642 16L638 0H364L367 16L455 52L421 225H195L97 49L173 16L170 0H-28ZM224 277H411L362 523L224 277ZM418 710L279 799Q259 812 257 828T258 862H346L434
710H418Z" />
<glyph unicode="&#xc1;" glyph-name="uni00C1" horiz-adv-x="717" d="M-28 0L-24 16L34 48L385 665H454L583 52L642 16L638 0H364L367 16L455 52L421 225H195L97 49L173 16L170 0H-28ZM224 277H411L362 523L224 277ZM418 710L518 862H616Q613 847 606 831T573
799L434 710H418Z" />
<glyph unicode="&#xc2;" glyph-name="uni00C2" horiz-adv-x="717" d="M-28 0L-24 16L34 48L385 665H454L583 52L642 16L638 0H364L367 16L455 52L421 225H195L97 49L173 16L170 0H-28ZM224 277H411L362 523L224 277ZM275 710L432 862H471L569 710H553L439 783L291
710H275Z" />
<glyph unicode="&#xc3;" glyph-name="uni00C3" horiz-adv-x="717" d="M-28 0L-24 16L34 48L385 665H454L583 52L642 16L638 0H364L367 16L455 52L421 225H195L97 49L173 16L170 0H-28ZM224 277H411L362 523L224 277ZM275 723Q313 805 337 825T390 846Q430 846
456 817T515 788Q531 788 545 797T582 846H602Q565 764 541 744T488 723Q448 723 422 751T363 780Q347 780 332 771T295 723H275Z" />
<glyph unicode="&#xc4;" glyph-name="uni00C4" horiz-adv-x="717" d="M-28 0L-24 16L34 48L385 665H454L583 52L642 16L638 0H364L367 16L455 52L421 225H195L97 49L173 16L170 0H-28ZM224 277H411L362 523L224 277ZM349 735Q327 735 313 750T298 786Q298 807
312 822T349 837Q370 837 384 822T399 786Q399 765 385 750T349 735ZM531 735Q509 735 495 750T480 786Q480 807 494 822T531 837Q553 837 567 822T582 786Q582 765 568 750T531 735Z" />
<glyph unicode="&#xc5;" glyph-name="uni00C5" horiz-adv-x="717" d="M-28 0L-24 16L34 48L385 665H454L583 52L642 16L638 0H364L367 16L455 52L421 225H195L97 49L173 16L170 0H-28ZM224 277H411L362 523L224 277ZM429 710Q359 710 359 781Q359 820 385 849T454
879Q490 879 507 859T525 808Q525 769 499 740T429 710ZM433 733Q455 733 467 754T479 808Q479 856 450 856Q404 856 404 782Q404 733 433 733Z" />
<glyph unicode="&#xc6;" glyph-name="uni00C6" horiz-adv-x="956" d="M-28 0L-24 16L38 47L505 660H929L899 487H883L839 608H633L591 367H734L803 453H819L779 230H763L725 315H581L535 52H773L867 198H883L848 0H326L329 16L414 57L445 233H245L104 46L173 16L170
0H-28ZM284 285H454L505 578L284 285Z" />
<glyph unicode="&#xc7;" glyph-name="uni00C7" horiz-adv-x="666" d="M292 -240Q241 -240 216 -215L219 -199H222Q248 -211 278 -211Q338 -211 338 -166Q338 -144 319 -129T252 -100L308 -10Q187 -5 119 70T51 259Q51 370 105 463T249 613T448 670Q506 670 544
658T624 622L602 439H585L528 586Q490 623 435 623Q357 623 300 574T211 444T180 264Q180 159 226 99T349 39Q384 39 414 50T471 78L572 207H589L549 41Q508 18 457 5T339 -10L316 -50Q403 -78 403 -145Q403 -186 373 -213T292 -240Z" />
<glyph unicode="&#xc8;" glyph-name="uni00C8" horiz-adv-x="622" d="M-7 0L-4 16L81 57L177 603L106 644L109 660H596L565 487H550L506 608H300L257 365H400L469 451H485L446 232H430L392 317H248L201 52H440L533 198H549L514 0H-7ZM384 710L245 799Q225 812
223 828T224 862H312L400 710H384Z" />
<glyph unicode="&#xc9;" glyph-name="uni00C9" horiz-adv-x="622" d="M-7 0L-4 16L81 57L177 603L106 644L109 660H596L565 487H550L506 608H300L257 365H400L469 451H485L446 232H430L392 317H248L201 52H440L533 198H549L514 0H-7ZM385 710L485 862H583Q580
847 573 831T540 799L401 710H385Z" />
<glyph unicode="&#xca;" glyph-name="uni00CA" horiz-adv-x="622" d="M-7 0L-4 16L81 57L177 603L106 644L109 660H596L565 487H550L506 608H300L257 365H400L469 451H485L446 232H430L392 317H248L201 52H440L533 198H549L514 0H-7ZM242 710L399 862H438L536
710H520L406 783L258 710H242Z" />
<glyph unicode="&#xcb;" glyph-name="uni00CB" horiz-adv-x="622" d="M-7 0L-4 16L81 57L177 603L106 644L109 660H596L565 487H550L506 608H300L257 365H400L469 451H485L446 232H430L392 317H248L201 52H440L533 198H549L514 0H-7ZM316 735Q294 735 280 750T265
786Q265 807 279 822T316 837Q337 837 351 822T366 786Q366 765 352 750T316 735ZM498 735Q476 735 462 750T447 786Q447 807 461 822T498 837Q520 837 534 822T549 786Q549 765 535 750T498 735Z" />
<glyph unicode="&#xcc;" glyph-name="uni00CC" horiz-adv-x="374" d="M-7 0L-4 16L77 57L173 603L101 644L104 660H382L379 644L295 603L198 57L274 16L271 0H-7ZM243 710L104 799Q84 812 82 828T83 862H171L259 710H243Z" />
<glyph unicode="&#xcd;" glyph-name="uni00CD" horiz-adv-x="374" d="M-7 0L-4 16L77 57L173 603L101 644L104 660H382L379 644L295 603L198 57L274 16L271 0H-7ZM244 710L344 862H442Q439 847 432 831T399 799L260 710H244Z" />
<glyph unicode="&#xce;" glyph-name="uni00CE" horiz-adv-x="374" d="M-7 0L-4 16L77 57L173 603L101 644L104 660H382L379 644L295 603L198 57L274 16L271 0H-7ZM101 710L258 862H297L395 710H379L265 783L117 710H101Z" />
<glyph unicode="&#xcf;" glyph-name="uni00CF" horiz-adv-x="374" d="M-7 0L-4 16L77 57L173 603L101 644L104 660H382L379 644L295 603L198 57L274 16L271 0H-7ZM175 735Q153 735 139 750T124 786Q124 807 138 822T175 837Q196 837 210 822T225 786Q225 765 211
750T175 735ZM357 735Q335 735 321 750T306 786Q306 807 320 822T357 837Q379 837 393 822T408 786Q408 765 394 750T357 735Z" />
<glyph unicode="&#xd0;" glyph-name="uni00D0" horiz-adv-x="743" d="M-7 0L-4 16L79 56L125 319H50L59 365H133L175 604L106 644L109 660H359Q532 660 614 584T697 385Q697 292 649 204T507 58T283 0H-7ZM393 319H248L200 49H293Q421 49 494 141T568 383Q568
487 511 548T339 609H299L256 365H402L393 319Z" />
<glyph unicode="&#xd1;" glyph-name="uni00D1" horiz-adv-x="765" d="M-5 0L-2 16L84 57L180 602L109 644L112 660H275L550 192L622 604L525 644L529 660H775L772 644L688 604L581 -5H526L227 498L150 56L247 16L243 0H-5ZM312 723Q350 805 374 825T427 846Q467
846 493 817T552 788Q568 788 582 797T619 846H639Q602 764 578 744T525 723Q485 723 459 751T400 780Q384 780 369 771T332 723H312Z" />
<glyph unicode="&#xd2;" glyph-name="uni00D2" horiz-adv-x="772" d="M335 -10Q202 -10 127 70T51 277Q51 382 101 472T239 616T436 671Q569 671 644 591T720 383Q720 279 671 190T535 45T335 -10ZM358 40Q427 40 479 88T561 215T591 390Q591 493 546 557T417
622Q349 622 296 575T212 448T181 272Q181 169 228 105T358 40ZM444 710L305 799Q285 812 283 828T284 862H372L460 710H444Z" />
<glyph unicode="&#xd3;" glyph-name="uni00D3" horiz-adv-x="772" d="M335 -10Q202 -10 127 70T51 277Q51 382 101 472T239 616T436 671Q569 671 644 591T720 383Q720 279 671 190T535 45T335 -10ZM358 40Q427 40 479 88T561 215T591 390Q591 493 546 557T417
622Q349 622 296 575T212 448T181 272Q181 169 228 105T358 40ZM444 710L544 862H642Q639 847 632 831T599 799L460 710H444Z" />
<glyph unicode="&#xd4;" glyph-name="uni00D4" horiz-adv-x="772" d="M335 -10Q202 -10 127 70T51 277Q51 382 101 472T239 616T436 671Q569 671 644 591T720 383Q720 279 671 190T535 45T335 -10ZM358 40Q427 40 479 88T561 215T591 390Q591 493 546 557T417
622Q349 622 296 575T212 448T181 272Q181 169 228 105T358 40ZM301 710L458 862H497L595 710H579L465 783L317 710H301Z" />
<glyph unicode="&#xd5;" glyph-name="uni00D5" horiz-adv-x="772" d="M335 -10Q202 -10 127 70T51 277Q51 382 101 472T239 616T436 671Q569 671 644 591T720 383Q720 279 671 190T535 45T335 -10ZM358 40Q427 40 479 88T561 215T591 390Q591 493 546 557T417
622Q349 622 296 575T212 448T181 272Q181 169 228 105T358 40ZM301 723Q339 805 363 825T416 846Q456 846 482 817T541 788Q557 788 571 797T608 846H628Q591 764 567 744T514 723Q474 723 448 751T389 780Q373 780 358 771T321 723H301Z" />
<glyph unicode="&#xd6;" glyph-name="uni00D6" horiz-adv-x="772" d="M335 -10Q202 -10 127 70T51 277Q51 382 101 472T239 616T436 671Q569 671 644 591T720 383Q720 279 671 190T535 45T335 -10ZM358 40Q427 40 479 88T561 215T591 390Q591 493 546 557T417
622Q349 622 296 575T212 448T181 272Q181 169 228 105T358 40ZM375 735Q353 735 339 750T324 786Q324 807 338 822T375 837Q396 837 410 822T425 786Q425 765 411 750T375 735ZM557 735Q535 735 521 750T506 786Q506 807 520 822T557 837Q579 837 593 822T608
786Q608 765 594 750T557 735Z" />
<glyph unicode="&#xd7;" glyph-name="uni00D7" horiz-adv-x="543" d="M86 86L54 126L228 274L108 423L151 459L270 311L444 459L476 419L302 271L422 122L380 86L260 235L86 86Z" />
<glyph unicode="&#xd8;" glyph-name="uni00D8" horiz-adv-x="772" d="M-4 -10L105 95Q51 169 51 277Q51 382 102 472T240 616T436 671Q558 671 634 601L706 670H776L666 565Q720 491 720 383Q720 279 671 190T535 45T335 -10Q214 -10 138 59L66 -10H-4ZM181 272Q181
221 193 179L562 532Q516 622 417 622Q349 622 296 575T212 448T181 272ZM358 40Q427 40 479 88T561 215T591 390Q591 440 580 482L212 130Q260 40 358 40Z" />
<glyph unicode="&#xd9;" glyph-name="uni00D9" horiz-adv-x="768" d="M345 -10Q240 -10 176 38T111 197Q111 230 119 276L176 603L105 644L108 660H387L383 644L298 603L242 279Q234 239 234 208Q234 126 275 92T383 58Q444 58 498 102T569 244L632 605L549 644L553
660H784L781 644L696 604L639 276Q612 118 535 54T345 -10ZM475 710L336 799Q316 812 314 828T315 862H403L491 710H475Z" />
<glyph unicode="&#xda;" glyph-name="uni00DA" horiz-adv-x="768" d="M345 -10Q240 -10 176 38T111 197Q111 230 119 276L176 603L105 644L108 660H387L383 644L298 603L242 279Q234 239 234 208Q234 126 275 92T383 58Q444 58 498 102T569 244L632 605L549 644L553
660H784L781 644L696 604L639 276Q612 118 535 54T345 -10ZM476 710L576 862H674Q671 847 664 831T631 799L492 710H476Z" />
<glyph unicode="&#xdb;" glyph-name="uni00DB" horiz-adv-x="768" d="M345 -10Q240 -10 176 38T111 197Q111 230 119 276L176 603L105 644L108 660H387L383 644L298 603L242 279Q234 239 234 208Q234 126 275 92T383 58Q444 58 498 102T569 244L632 605L549 644L553
660H784L781 644L696 604L639 276Q612 118 535 54T345 -10ZM333 710L490 862H529L627 710H611L497 783L349 710H333Z" />
<glyph unicode="&#xdc;" glyph-name="uni00DC" horiz-adv-x="768" d="M345 -10Q240 -10 176 38T111 197Q111 230 119 276L176 603L105 644L108 660H387L383 644L298 603L242 279Q234 239 234 208Q234 126 275 92T383 58Q444 58 498 102T569 244L632 605L549 644L553
660H784L781 644L696 604L639 276Q612 118 535 54T345 -10ZM406 735Q384 735 370 750T355 786Q355 807 369 822T406 837Q427 837 441 822T456 786Q456 765 442 750T406 735ZM588 735Q566 735 552 750T537 786Q537 807 551 822T588 837Q610 837 624 822T639 786Q639
765 625 750T588 735Z" />
<glyph unicode="&#xdd;" glyph-name="uni00DD" horiz-adv-x="684" d="M153 0L156 16L246 57L290 306L132 610L79 644L83 660H346L342 644L262 610L261 606L391 360L590 605L591 609L522 644L526 660H735L732 644L668 613L412 309L367 57L444 16L441 0H153ZM432
710L532 862H630Q627 847 620 831T587 799L448 710H432Z" />
<glyph unicode="&#xde;" glyph-name="uni00DE" horiz-adv-x="623" d="M385 660L382 644L299 603L285 527H340Q461 527 526 488T591 367Q591 285 513 223T282 161H220L202 57L278 16L275 0H-7L-4 16L81 57L177 603L104 644L107 660H385ZM319 475H276L229 209H300Q382
209 421 252T460 361Q460 475 319 475Z" />
<glyph unicode="&#xdf;" glyph-name="uni00DF" horiz-adv-x="620" d="M413 32Q494 32 494 108Q494 145 467 168T403 223Q381 242 365 264T349 321Q349 367 374 400T431 465T488 533T513 624Q513 659 493 682T429 705Q368 705 335 662T288 545L197 11Q190 -30 152
-89T61 -194T-42 -240Q-66 -240 -82 -230T-99 -209Q-99 -200 -93 -190L-69 -146H-63L-37 -167Q-23 -178 0 -178Q54 -178 76 -46L151 409H69V454H158L162 479Q173 547 213 609T316 710T455 750Q531 750 569 716T607 633Q607 591 583 561T526 503T470 447T445 378Q445
343 466 322T521 268Q556 235 569 209T582 151Q582 84 531 37T395 -10Q352 -10 324 2T280 31Q261 49 261 64Q261 79 273 86L306 109H312L329 84Q364 32 413 32Z" />
<glyph unicode="&#xe0;" glyph-name="uni00E0" horiz-adv-x="531" d="M132 -10Q91 -10 66 24T40 122Q40 214 80 292T184 417T318 464Q371 464 408 440L453 460H475L415 124Q407 74 432 74Q467 74 501 147L517 141Q461 -10 374 -10Q283 -10 300 106H298Q256 48
217 19T132 -10ZM156 172Q156 74 204 74Q232 74 259 99T308 157L349 388Q321 421 285 421Q227 421 192 345T156 172ZM322 530L183 644Q163 660 162 676T162 707H250L338 530H322Z" />
<glyph unicode="&#xe1;" glyph-name="uni00E1" horiz-adv-x="531" d="M132 -10Q91 -10 66 24T40 122Q40 214 80 292T184 417T318 464Q371 464 408 440L453 460H475L415 124Q407 74 432 74Q467 74 501 147L517 141Q461 -10 374 -10Q283 -10 300 106H298Q256 48
217 19T132 -10ZM156 172Q156 74 204 74Q232 74 259 99T308 157L349 388Q321 421 285 421Q227 421 192 345T156 172ZM322 530L422 707H520Q517 692 509 678T477 644L338 530H322Z" />
<glyph unicode="&#xe2;" glyph-name="uni00E2" horiz-adv-x="531" d="M132 -10Q91 -10 66 24T40 122Q40 214 80 292T184 417T318 464Q371 464 408 440L453 460H475L415 124Q407 74 432 74Q467 74 501 147L517 141Q461 -10 374 -10Q283 -10 300 106H298Q256 48
217 19T132 -10ZM156 172Q156 74 204 74Q232 74 259 99T308 157L349 388Q321 421 285 421Q227 421 192 345T156 172ZM180 530L341 707H380L474 530H458L346 623L196 530H180Z" />
<glyph unicode="&#xe3;" glyph-name="uni00E3" horiz-adv-x="531" d="M132 -10Q91 -10 66 24T40 122Q40 214 80 292T184 417T318 464Q371 464 408 440L453 460H475L415 124Q407 74 432 74Q467 74 501 147L517 141Q461 -10 374 -10Q283 -10 300 106H298Q256 48
217 19T132 -10ZM156 172Q156 74 204 74Q232 74 259 99T308 157L349 388Q321 421 285 421Q227 421 192 345T156 172ZM182 552Q222 640 246 662T299 684Q325 684 344 668T382 636T421 619Q438 619 452 630T489 684H509Q468 596 445 574T392 552Q366 552 347 568T310
600T270 617Q254 617 240 606T202 552H182Z" />
<glyph unicode="&#xe4;" glyph-name="uni00E4" horiz-adv-x="531" d="M132 -10Q91 -10 66 24T40 122Q40 214 80 292T184 417T318 464Q371 464 408 440L453 460H475L415 124Q407 74 432 74Q467 74 501 147L517 141Q461 -10 374 -10Q283 -10 300 106H298Q256 48
217 19T132 -10ZM156 172Q156 74 204 74Q232 74 259 99T308 157L349 388Q321 421 285 421Q227 421 192 345T156 172ZM255 567Q233 567 219 582T204 618Q204 638 218 653T255 668Q276 668 290 653T305 618Q305 597 291 582T255 567ZM437 567Q415 567 401 582T386
618Q386 638 400 653T437 668Q459 668 473 653T488 618Q488 597 474 582T437 567Z" />
<glyph unicode="&#xe5;" glyph-name="uni00E5" horiz-adv-x="531" d="M132 -10Q91 -10 66 24T40 122Q40 214 80 292T184 417T318 464Q371 464 408 440L453 460H475L415 124Q407 74 432 74Q467 74 501 147L517 141Q461 -10 374 -10Q283 -10 300 106H298Q256 48
217 19T132 -10ZM156 172Q156 74 204 74Q232 74 259 99T308 157L349 388Q321 421 285 421Q227 421 192 345T156 172ZM333 534Q263 534 263 605Q263 644 289 673T358 702Q429 702 429 631Q429 592 403 563T333 534ZM337 557Q359 557 371 578T383 632Q383 680 354
680Q308 680 308 606Q308 557 337 557Z" />
<glyph unicode="&#xe6;" glyph-name="uni00E6" horiz-adv-x="715" d="M132 -10Q91 -10 66 24T40 122Q40 214 80 292T184 417T318 464Q395 464 449 420Q512 464 583 464Q635 464 661 440T687 385Q687 339 635 303T428 234Q427 219 427 203Q427 151 452 117T529
82Q588 82 653 147H656L669 134Q638 78 586 34T469 -10Q399 -10 362 24T316 121H310Q218 -10 132 -10ZM552 425Q508 425 476 381T433 270Q525 292 559 319T594 385Q594 425 552 425ZM204 74Q231 74 258 99T313 164Q313 164 313 167Q313 217 333 270T388 364Q343
421 291 421Q227 421 192 345T156 172Q156 74 204 74Z" />
<glyph unicode="&#xe7;" glyph-name="uni00E7" horiz-adv-x="436" d="M159 -240Q109 -240 84 -215L86 -199H90Q116 -211 146 -211Q206 -211 206 -166Q206 -144 187 -129T120 -100L175 -9Q39 3 39 164Q39 238 76 306T175 419T304 464Q380 464 413 415Q422 400 422
389Q422 372 407 361L366 332H360L339 368Q325 392 312 406T269 420Q225 420 189 357T152 211Q152 82 252 82Q280 82 310 96T381 157H383L397 145Q360 80 313 37T208 -10L184 -50Q271 -78 271 -145Q271 -186 241 -213T159 -240Z" />
<glyph unicode="&#xe8;" glyph-name="uni00E8" horiz-adv-x="440" d="M195 -10Q115 -10 77 35T39 158Q39 234 74 304T170 419T309 464Q361 464 387 441T413 385Q413 339 361 303T154 234Q153 219 153 203Q153 148 180 115T255 82Q314 82 379 147H382L395 134Q361
75 309 33T195 -10ZM278 425Q236 425 203 383T159 270Q251 292 285 319T320 385Q320 425 278 425ZM309 530L170 644Q150 660 149 676T149 707H237L325 530H309Z" />
<glyph unicode="&#xe9;" glyph-name="uni00E9" horiz-adv-x="440" d="M195 -10Q115 -10 77 35T39 158Q39 234 74 304T170 419T309 464Q361 464 387 441T413 385Q413 339 361 303T154 234Q153 219 153 203Q153 148 180 115T255 82Q314 82 379 147H382L395 134Q361
75 309 33T195 -10ZM278 425Q236 425 203 383T159 270Q251 292 285 319T320 385Q320 425 278 425ZM310 530L410 707H508Q505 692 497 678T465 644L326 530H310Z" />
<glyph unicode="&#xea;" glyph-name="uni00EA" horiz-adv-x="440" d="M195 -10Q115 -10 77 35T39 158Q39 234 74 304T170 419T309 464Q361 464 387 441T413 385Q413 339 361 303T154 234Q153 219 153 203Q153 148 180 115T255 82Q314 82 379 147H382L395 134Q361
75 309 33T195 -10ZM278 425Q236 425 203 383T159 270Q251 292 285 319T320 385Q320 425 278 425ZM168 530L329 707H368L462 530H446L334 623L184 530H168Z" />
<glyph unicode="&#xeb;" glyph-name="uni00EB" horiz-adv-x="440" d="M195 -10Q115 -10 77 35T39 158Q39 234 74 304T170 419T309 464Q361 464 387 441T413 385Q413 339 361 303T154 234Q153 219 153 203Q153 148 180 115T255 82Q314 82 379 147H382L395 134Q361
75 309 33T195 -10ZM278 425Q236 425 203 383T159 270Q251 292 285 319T320 385Q320 425 278 425ZM242 567Q220 567 206 582T191 618Q191 638 205 653T242 668Q263 668 277 653T292 618Q292 597 278 582T242 567ZM424 567Q402 567 388 582T373 618Q373 638 387
653T424 668Q446 668 460 653T475 618Q475 597 461 582T424 567Z" />
<glyph unicode="&#xec;" glyph-name="uni00EC" horiz-adv-x="297" d="M134 -10Q39 -10 61 115L109 386L35 420V430L233 464H236L175 124Q167 74 192 74Q227 74 261 147L277 141Q221 -10 134 -10ZM168 530L29 644Q9 660 8 676T8 707H96L184 530H168Z" />
<glyph unicode="&#xed;" glyph-name="uni00ED" horiz-adv-x="297" d="M134 -10Q39 -10 61 115L109 386L35 420V430L233 464H236L175 124Q167 74 192 74Q227 74 261 147L277 141Q221 -10 134 -10ZM168 530L268 707H366Q363 692 355 678T323 644L184 530H168Z" />
<glyph unicode="&#xee;" glyph-name="uni00EE" horiz-adv-x="297" d="M134 -10Q39 -10 61 115L109 386L35 420V430L233 464H236L175 124Q167 74 192 74Q227 74 261 147L277 141Q221 -10 134 -10ZM27 530L188 707H227L321 530H305L193 623L43 530H27Z" />
<glyph unicode="&#xef;" glyph-name="uni00EF" horiz-adv-x="297" d="M134 -10Q39 -10 61 115L109 386L35 420V430L233 464H236L175 124Q167 74 192 74Q227 74 261 147L277 141Q221 -10 134 -10ZM101 567Q79 567 65 582T50 618Q50 638 64 653T101 668Q122 668
136 653T151 618Q151 597 137 582T101 567ZM283 567Q261 567 247 582T232 618Q232 638 246 653T283 668Q305 668 319 653T334 618Q334 597 320 582T283 567Z" />
<glyph unicode="&#xf0;" glyph-name="uni00F0" horiz-adv-x="508" d="M213 -10Q132 -10 86 44T40 180Q40 296 114 380T296 464Q330 464 357 458Q346 534 311 591L228 523H159L285 627Q234 689 151 721L158 749Q256 721 329 664L422 741H491L362 634Q482 516 482
341Q482 244 448 165T353 38T213 -10ZM157 164Q157 107 172 71T223 34Q282 34 322 133T363 379Q363 383 363 386Q334 420 289 420Q232 420 195 350T157 164Z" />
<glyph unicode="&#xf1;" glyph-name="uni00F1" horiz-adv-x="553" d="M37 0L105 386L36 420V430L208 464H211V364H216Q266 420 299 442T380 464Q431 464 458 424T474 316L440 124Q431 74 456 74Q491 74 525 147L542 141Q484 -10 399 -10Q303 -10 326 115L360 312Q364
342 354 364T309 387Q282 387 254 364T205 318L151 0H37ZM166 552Q206 640 230 662T283 684Q309 684 328 668T366 636T405 619Q422 619 436 630T473 684H493Q452 596 429 574T376 552Q350 552 331 568T294 600T254 617Q238 617 224 606T186 552H166Z" />
<glyph unicode="&#xf2;" glyph-name="uni00F2" horiz-adv-x="508" d="M219 -10Q128 -10 84 47T39 190Q39 256 70 319T157 423T283 464Q378 464 423 408T468 265Q468 202 438 139T351 33T219 -10ZM232 34Q284 34 317 109T350 284Q350 421 277 421Q225 421 192 350T158
175Q158 109 174 72T232 34ZM296 530L157 644Q137 660 136 676T136 707H224L312 530H296Z" />
<glyph unicode="&#xf3;" glyph-name="uni00F3" horiz-adv-x="508" d="M219 -10Q128 -10 84 47T39 190Q39 256 70 319T157 423T283 464Q378 464 423 408T468 265Q468 202 438 139T351 33T219 -10ZM232 34Q284 34 317 109T350 284Q350 421 277 421Q225 421 192 350T158
175Q158 109 174 72T232 34ZM296 530L396 707H494Q491 692 483 678T451 644L312 530H296Z" />
<glyph unicode="&#xf4;" glyph-name="uni00F4" horiz-adv-x="508" d="M219 -10Q128 -10 84 47T39 190Q39 256 70 319T157 423T283 464Q378 464 423 408T468 265Q468 202 438 139T351 33T219 -10ZM232 34Q284 34 317 109T350 284Q350 421 277 421Q225 421 192 350T158
175Q158 109 174 72T232 34ZM154 530L315 707H354L448 530H432L320 623L170 530H154Z" />
<glyph unicode="&#xf5;" glyph-name="uni00F5" horiz-adv-x="508" d="M219 -10Q128 -10 84 47T39 190Q39 256 70 319T157 423T283 464Q378 464 423 408T468 265Q468 202 438 139T351 33T219 -10ZM232 34Q284 34 317 109T350 284Q350 421 277 421Q225 421 192 350T158
175Q158 109 174 72T232 34ZM156 552Q196 640 220 662T273 684Q299 684 318 668T356 636T395 619Q412 619 426 630T463 684H483Q442 596 419 574T366 552Q340 552 321 568T284 600T244 617Q228 617 214 606T176 552H156Z" />
<glyph unicode="&#xf6;" glyph-name="uni00F6" horiz-adv-x="508" d="M219 -10Q128 -10 84 47T39 190Q39 256 70 319T157 423T283 464Q378 464 423 408T468 265Q468 202 438 139T351 33T219 -10ZM232 34Q284 34 317 109T350 284Q350 421 277 421Q225 421 192 350T158
175Q158 109 174 72T232 34ZM229 567Q207 567 193 582T178 618Q178 638 192 653T229 668Q250 668 264 653T279 618Q279 597 265 582T229 567ZM411 567Q389 567 375 582T360 618Q360 638 374 653T411 668Q433 668 447 653T462 618Q462 597 448 582T411 567Z" />
<glyph unicode="&#xf7;" glyph-name="uni00F7" horiz-adv-x="543" d="M268 482H333L321 415H256L268 482ZM469 247H50L59 297H477L469 247ZM206 129H271L259 62H194L206 129Z" />
<glyph unicode="&#xf8;" glyph-name="uni00F8" horiz-adv-x="508" d="M4 -6L71 65Q39 115 39 190Q39 256 70 319T157 423T283 464Q361 464 408 423L443 460H503L436 389Q468 340 468 265Q468 202 438 139T351 33T219 -10Q146 -10 100 31L65 -6H4ZM158 175Q158
166 158 158L344 355Q330 421 277 421Q225 421 192 350T158 175ZM232 34Q284 34 317 109T350 284Q350 284 350 285T350 297L165 100Q179 34 232 34Z" />
<glyph unicode="&#xf9;" glyph-name="uni00F9" horiz-adv-x="543" d="M154 -10Q114 -10 89 19T63 100Q63 117 66 138L110 386L40 420V430L232 464H235L182 157Q178 133 178 122Q178 99 189 83T225 67Q249 67 274 88T320 132L364 386L304 420V430L486 464H490L430
124Q421 74 447 74Q482 74 516 147L533 141Q475 -10 390 -10Q307 -10 314 89H312Q263 35 232 13T154 -10ZM311 530L172 644Q152 660 151 676T151 707H239L327 530H311Z" />
<glyph unicode="&#xfa;" glyph-name="uni00FA" horiz-adv-x="543" d="M154 -10Q114 -10 89 19T63 100Q63 117 66 138L110 386L40 420V430L232 464H235L182 157Q178 133 178 122Q178 99 189 83T225 67Q249 67 274 88T320 132L364 386L304 420V430L486 464H490L430
124Q421 74 447 74Q482 74 516 147L533 141Q475 -10 390 -10Q307 -10 314 89H312Q263 35 232 13T154 -10ZM311 530L411 707H509Q506 692 498 678T466 644L327 530H311Z" />
<glyph unicode="&#xfb;" glyph-name="uni00FB" horiz-adv-x="543" d="M154 -10Q114 -10 89 19T63 100Q63 117 66 138L110 386L40 420V430L232 464H235L182 157Q178 133 178 122Q178 99 189 83T225 67Q249 67 274 88T320 132L364 386L304 420V430L486 464H490L430
124Q421 74 447 74Q482 74 516 147L533 141Q475 -10 390 -10Q307 -10 314 89H312Q263 35 232 13T154 -10ZM169 530L330 707H369L463 530H447L335 623L185 530H169Z" />
<glyph unicode="&#xfc;" glyph-name="uni00FC" horiz-adv-x="543" d="M154 -10Q114 -10 89 19T63 100Q63 117 66 138L110 386L40 420V430L232 464H235L182 157Q178 133 178 122Q178 99 189 83T225 67Q249 67 274 88T320 132L364 386L304 420V430L486 464H490L430
124Q421 74 447 74Q482 74 516 147L533 141Q475 -10 390 -10Q307 -10 314 89H312Q263 35 232 13T154 -10ZM244 567Q222 567 208 582T193 618Q193 638 207 653T244 668Q265 668 279 653T294 618Q294 597 280 582T244 567ZM426 567Q404 567 390 582T375 618Q375 638
389 653T426 668Q448 668 462 653T477 618Q477 597 463 582T426 567Z" />
<glyph unicode="&#xfd;" glyph-name="uni00FD" horiz-adv-x="460" d="M3 -240Q-25 -240 -25 -211V-146L-18 -140H35Q70 -140 88 -135T122 -111T165 -48L189 -10L87 390L14 420V430L184 464H187L270 126H274L334 221Q361 264 368 290T376 332Q376 364 346 381L332
390V394L354 438Q368 464 388 464Q414 464 433 438T453 381Q453 352 437 320T383 229L184 -79Q162 -114 151 -133T112 -183Q64 -240 3 -240ZM298 530L398 707H496Q493 692 485 678T453 644L314 530H298Z" />
<glyph unicode="&#xfe;" glyph-name="uni00FE" horiz-adv-x="525" d="M-43 -230V-214L16 -181L166 672L86 705V716L289 750H293L223 353H228Q268 409 304 436T386 464Q430 464 457 428T484 322Q484 235 449 160T355 37T227 -10Q192 -10 162 0L132 -180L213 -214V-230H-43ZM319
380Q290 380 263 355T214 298L175 77Q187 56 202 44T241 31Q296 31 333 107T370 286Q370 380 319 380Z" />
<glyph unicode="&#xff;" glyph-name="uni00FF" horiz-adv-x="460" d="M3 -240Q-25 -240 -25 -211V-146L-18 -140H35Q70 -140 88 -135T122 -111T165 -48L189 -10L87 390L14 420V430L184 464H187L270 126H274L334 221Q361 264 368 290T376 332Q376 364 346 381L332
390V394L354 438Q368 464 388 464Q414 464 433 438T453 381Q453 352 437 320T383 229L184 -79Q162 -114 151 -133T112 -183Q64 -240 3 -240ZM231 567Q209 567 195 582T180 618Q180 638 194 653T231 668Q252 668 266 653T281 618Q281 597 267 582T231 567ZM413 567Q391
567 377 582T362 618Q362 638 376 653T413 668Q435 668 449 653T464 618Q464 597 450 582T413 567Z" />
<glyph unicode="&#x2013;" glyph-name="uni2013" horiz-adv-x="500" d="M41 254L48 290H459L452 254H41Z" />
<glyph unicode="&#x2014;" glyph-name="uni2014" horiz-adv-x="1000" d="M50 254L57 290H950L943 254H50Z" />
<glyph unicode="&#x2018;" glyph-name="uni2018" horiz-adv-x="238" d="M180 485Q171 485 157 492Q107 524 107 583Q107 630 148 679T272 751V728Q174 696 174 630Q174 593 207 574L234 557L235 545L205 505Q192 485 180 485Z" />
<glyph unicode="&#x2019;" glyph-name="uni2019" horiz-adv-x="238" d="M86 485V508Q184 541 184 607Q184 642 150 663L124 679L123 691L153 731Q166 751 178 751Q188 751 200 744Q250 712 250 653Q250 606 209 557T86 485Z" />
<glyph unicode="&#x201a;" glyph-name="uni201A" horiz-adv-x="238" d="M-9 -200V-177Q89 -144 89 -78Q89 -43 55 -22L29 -6L28 6L58 46Q71 66 83 66Q93 66 105 59Q155 27 155 -32Q155 -79 114 -128T-9 -200Z" />
<glyph unicode="&#x201c;" glyph-name="uni201C" horiz-adv-x="436" d="M180 485Q171 485 157 492Q107 524 107 583Q107 630 148 679T272 751V728Q174 696 174 630Q174 593 207 574L234 557L235 545L205 505Q192 485 180 485ZM371 485Q362 485 348 492Q298 524
298 583Q298 630 339 679T463 751V728Q365 696 365 630Q365 593 398 574L425 557L426 545L396 505Q383 485 371 485Z" />
<glyph unicode="&#x201d;" glyph-name="uni201D" horiz-adv-x="436" d="M86 485V508Q184 541 184 607Q184 642 150 663L124 679L123 691L153 731Q166 751 178 751Q188 751 200 744Q250 712 250 653Q250 606 209 557T86 485ZM277 485V508Q375 541 375 607Q375 642
341 663L315 679L314 691L344 731Q357 751 369 751Q379 751 391 744Q441 712 441 653Q441 606 400 557T277 485Z" />
<glyph unicode="&#x201e;" glyph-name="uni201E" horiz-adv-x="436" d="M-9 -200V-177Q89 -144 89 -78Q89 -43 55 -22L29 -6L28 6L58 46Q71 66 83 66Q93 66 105 59Q155 27 155 -32Q155 -79 114 -128T-9 -200ZM182 -200V-177Q280 -144 280 -78Q280 -43 246 -22L220
-6L219 6L249 46Q262 66 274 66Q284 66 296 59Q346 27 346 -32Q346 -79 305 -128T182 -200Z" />
<glyph unicode="&#x2022;" glyph-name="uni2022" horiz-adv-x="500" d="M250 156Q199 156 167 189T134 272Q134 322 166 354T250 387Q299 387 332 355T365 272Q365 222 332 189T250 156Z" />
<glyph unicode="&#x2039;" glyph-name="uni2039" horiz-adv-x="250" d="M17 247L218 424H233L114 248L178 70H163L17 247Z" />
<glyph unicode="&#x203a;" glyph-name="uni203A" horiz-adv-x="250" d="M233 247L32 70H17L135 246L71 424H86L233 247Z" />
</font>
</defs>
</svg>
