<?xml version="1.0" standalone="no"?>
<!DOCTYPE svg PUBLIC "-//W3C//DTD SVG 1.1//EN" "http://www.w3.org/Graphics/SVG/1.1/DTD/svg11.dtd">
<svg xmlns="http://www.w3.org/2000/svg">
<defs >
<font id="EagleLake" horiz-adv-x="1164" ><font-face
    font-family="Eagle Lake"
    units-per-em="2048"
    panose-1="3 2 5 5 0 0 0 2 0 0"
    ascent="2420"
    descent="-925"
    alphabetic="0" />
<glyph unicode=" " glyph-name="space" horiz-adv-x="610" />
<glyph unicode="!" glyph-name="exclam" horiz-adv-x="688" d="M565 465Q488 406 432 373T339 323Q296 304 266 299Q218 293 199 321T182 416Q182 433 183 475T187 575T192 702T198 842T203 983T208 1109T212 1208T215 1266Q214 1289 202 1307Q191 1322 168 1332T100
1339Q133 1361 172 1389T252 1443T332 1487T403 1505Q429 1505 446 1492T463 1450Q463 1438 462 1396T460 1291T457 1154T453 1000T449 845T446 705T443 598T440 539Q438 518 451 501T483 474T525 461T565 465ZM621 88Q574 55 530 24T447 -32T378 -71T330 -86Q313
-84 287 -70Q264 -58 228 -34T137 39L373 207Q429 159 475 135T553 100Q591 88 621 88Z" />
<glyph unicode="&quot;" glyph-name="quotedbl" horiz-adv-x="942" d="M827 1372Q827 1354 823 1323T813 1254T797 1176T776 1099T752 1033T727 989Q671 933 623 879Q620 893 616 932T606 1023T591 1130T569 1232T538 1307T496 1337Q518 1358 550 1380T619 1421T696
1452T774 1464Q794 1464 804 1454T820 1429T826 1399T827 1372ZM434 1372Q434 1354 430 1323T419 1254T402 1176T380 1099T355 1033T328 989Q303 961 277 934T225 879Q223 893 220 932T211 1023T196 1130T174 1232T142 1307T98 1337Q121 1358 154 1380T224 1421T300
1452T375 1464Q396 1464 407 1454T425 1429T432 1399T434 1372Z" />
<glyph unicode="#" glyph-name="numbersign" horiz-adv-x="1507" d="M1247 1247Q1229 1162 1205 1072T1153 887H1434Q1414 885 1386 866T1327 824T1268 783T1219 764H1116Q1096 701 1076 640T1034 518H1305Q1285 516 1257 497T1198 455T1139 414T1090 395H991Q962
312 935 237T884 99T842 -13T811 -94Q808 -35 807 17T805 119Q805 196 809 263T821 395H578Q549 312 522 237T470 99T428 -13T397 -94Q391 26 391 123Q391 198 394 265T406 395H78Q90 405 121 425T189 466T256 502T297 518H424Q435 577 448 637T479 764H207Q219
774 250 794T318 835T385 871T426 887H512Q523 927 534 970T559 1061Q565 1082 574 1095T597 1118T628 1136T668 1155Q700 1168 730 1183Q756 1196 783 1212T831 1247Q813 1162 789 1072T737 887H928L975 1061Q981 1082 990 1095T1013 1118T1044 1136T1083 1155Q1115
1168 1145 1183Q1171 1196 1199 1212T1247 1247ZM621 518H840Q851 577 864 637T895 764H700L621 518Z" />
<glyph unicode="$" glyph-name="dollar" horiz-adv-x="1335" d="M635 1686Q634 1642 634 1604T633 1531T633 1460T633 1386Q656 1393 678 1397T723 1407Q726 1478 730 1547T739 1686Q739 1646 739 1611T739 1543T739 1478T741 1409Q825 1421 903 1421Q962 1421
1014 1416T1107 1403T1177 1387T1217 1372Q1229 1365 1223 1348T1197 1308T1149 1260T1086 1212T1016 1174T946 1153Q968 1175 964 1195T944 1231Q926 1249 897 1264Q868 1278 828 1289T741 1305L745 874Q797 864 848 855T946 836T1034 815T1106 791Q1177 759 1207
711T1237 608Q1237 576 1228 545T1203 484T1166 428T1120 381Q1039 313 946 264T752 182Q753 54 753 -22T754 -137V-199Q754 -216 744 -225T721 -234T698 -224T688 -193V-95Q688 -48 688 17T690 164Q673 159 657 155T623 147Q622 30 622 -38T621 -143V-199Q621
-216 611 -225T588 -234T566 -224T557 -193V-103Q557 -60 557 1T559 137Q522 131 485 129T410 127Q327 127 266 142T164 178T105 221T88 256Q92 287 159 326T375 426Q345 401 348 378T380 335T456 302T563 283Q565 386 567 501T575 743Q518 759 462 775T356 808T262
846T189 891T143 946T131 1014Q137 1070 175 1123T276 1224T425 1311T610 1380Q615 1458 621 1534T635 1686ZM750 285Q796 290 841 301T922 334T979 389T1001 471Q1001 512 982 544T928 604T847 652T748 692Q748 568 749 467T750 285ZM360 1100Q360 1065 377 1037T424
986T495 946T584 913Q589 1010 593 1109T604 1307Q559 1301 516 1285T438 1244T382 1183T360 1100ZM719 1309Q705 1311 692 1311T664 1311Q656 1311 648 1311T631 1309Q631 1197 630 1095T629 903Q647 898 666 893T705 885Q708 990 711 1095T719 1309ZM698 709Q681
715 663 719T627 729Q627 590 626 480T623 281H692Q694 378 694 484T698 709Z" />
<glyph unicode="%" glyph-name="percent" horiz-adv-x="1716" d="M807 948Q807 867 772 793T680 661T549 571T397 537Q327 537 273 564T181 637T124 741T104 862Q104 943 138 1018T230 1150T360 1243T510 1278Q580 1278 635 1250T729 1176T787 1071T807 948ZM397
1174Q360 1174 362 1176Q348 1167 330 1145T296 1091T268 1017T256 930Q256 874 274 824T324 734T402 672T504 649Q546 649 574 670T618 723T642 793T649 864Q649 923 633 979T586 1078T507 1148T397 1174ZM1221 1335Q1200 1214 1154 1082T1042 816T895 553T723
308T538 99T350 -59Q466 86 571 239T765 551T921 875T1026 1210Q1036 1229 1058 1250T1109 1289T1166 1319T1221 1335ZM1626 399Q1626 347 1610 296T1564 200T1496 115T1412 48T1317 4T1219 -12Q1149 -12 1095 16T1003 89T946 194T926 315Q926 395 961 470T1053
603T1182 696T1329 731Q1400 731 1455 703T1548 628T1606 522T1626 399ZM1214 627Q1180 627 1182 629Q1168 620 1150 598T1116 543T1088 471T1077 385Q1077 331 1095 280T1145 190T1222 126T1323 102Q1365 102 1393 123T1437 177T1459 247T1466 317Q1466 377 1451
433T1404 532T1325 601T1214 627Z" />
<glyph unicode="&amp;" glyph-name="ampersand" horiz-adv-x="1939" d="M1939 938Q1862 870 1762 821T1540 739Q1560 696 1567 654T1575 575Q1575 549 1573 528T1567 490Q1563 472 1559 457Q1493 346 1403 253T1202 91T965 -16T698 -55Q641 -55 579 -47T457 -22T341
24T245 92T179 185T154 305Q154 382 186 451T273 579T396 686T537 768Q499 784 467 807T411 859T374 926T360 1008Q360 1067 378 1117T428 1208T501 1285T588 1349T682 1403T774 1450Q822 1475 871 1490T966 1515T1054 1527T1130 1530Q1144 1530 1167 1528T1214
1521T1260 1509T1294 1491T1307 1467T1286 1436Q1269 1422 1237 1401Q1210 1383 1164 1354T1047 1284Q1067 1310 1056 1330T1013 1365T937 1387T846 1395Q820 1395 795 1393T747 1385T706 1371T676 1352Q650 1327 637 1285T623 1192Q623 1103 655 1044T740 949T862
898T1006 883Q1037 883 1069 886T1135 897Q1092 862 1044 832T944 780T839 744T731 731Q705 731 678 733T625 741Q587 734 561 727T518 713Q499 705 487 698Q472 688 456 665T426 610T404 540T395 461Q395 393 424 341T501 251T610 186T737 143T865 120T979 113Q1057
113 1126 129T1245 180Q1267 196 1284 219T1313 271T1331 332T1337 399Q1337 454 1321 509T1272 607T1188 678T1067 705Q1052 705 1037 703T1004 698Q1046 723 1090 753Q1128 779 1172 813T1255 887Q1442 887 1572 894T1784 912Q1880 923 1939 938Z" />
<glyph unicode="&apos;" glyph-name="quotesingle" horiz-adv-x="547" d="M434 1372Q434 1354 430 1323T419 1254T402 1176T380 1099T355 1033T328 989Q303 961 277 934T225 879Q223 893 220 932T211 1023T196 1130T174 1232T142 1307T98 1337Q121 1358 154 1380T224
1421T300 1452T375 1464Q396 1464 407 1454T425 1429T432 1399T434 1372Z" />
<glyph unicode="(" glyph-name="parenleft" horiz-adv-x="1071" d="M1092 -195Q1039 -233 1004 -264T946 -318Q920 -344 905 -365Q874 -407 832 -423T743 -440Q700 -440 659 -427T586 -391Q553 -368 503 -322T396 -209T283 -52T181 148T107 391T78 678Q78 837
113 984T214 1264T372 1512T576 1726T819 1900T1092 2032Q965 1977 866 1905T692 1749T562 1574T471 1392T412 1213T377 1048T362 908T358 803Q358 794 361 747T376 629T408 471T466 293T557 116T686 -38T862 -148T1092 -195Z" />
<glyph unicode=")" glyph-name="parenright" horiz-adv-x="1073" d="M-18 -440Q109 -386 208 -314T382 -158T511 16T602 198T661 377T696 542T711 683T715 788Q715 797 712 844T697 962T665 1120T607 1297T517 1474T387 1627T211 1737T-18 1784Q34 1822 69 1853T127
1907Q153 1933 168 1954Q197 1997 234 2013T313 2030Q357 2030 402 2016T487 1982Q524 1965 576 1922T684 1813T796 1656T896 1453T967 1207T995 920Q995 760 960 612T859 331T703 82T499 -132T256 -307T-18 -440Z" />
<glyph unicode="*" glyph-name="asterisk" horiz-adv-x="1090" d="M920 881Q915 883 903 870T874 834T840 787T805 739T776 703T758 692Q702 720 649 749T543 811Q511 708 485 640T449 551Q449 602 451 686T457 866Q452 871 444 874Q367 826 289 785T129 713Q210
767 274 814T397 907Q331 955 268 1007T145 1118Q191 1171 228 1213Q243 1231 258 1248T284 1278T303 1300T309 1309Q347 1272 386 1237T467 1169Q469 1231 470 1284T473 1377Q475 1424 477 1462L537 1473Q575 1482 612 1493T680 1518Q672 1409 656 1303T618 1098Q644
1123 664 1144T699 1180Q715 1198 727 1212Q742 1230 772 1242T840 1268T919 1297T999 1341Q978 1316 945 1282T869 1207T773 1121T662 1028Q783 948 920 881Z" />
<glyph unicode="+" glyph-name="plus" horiz-adv-x="1112" d="M672 240Q672 232 657 218T622 190T585 163T563 147Q558 142 541 130T505 104T470 76T453 55V428H80Q106 450 128 469Q147 485 164 500T188 520Q195 526 209 541T240 572T273 600T299 612H453V801Q480
824 502 843Q521 860 538 874T561 893Q565 897 582 909T619 935T654 962T672 983V612H1042Q1033 610 1018 598T986 569T956 538T936 518Q929 513 915 498T883 468T850 440T825 428H672V240Z" />
<glyph unicode="," glyph-name="comma" horiz-adv-x="659" d="M547 20Q547 -15 537 -50T511 -118T473 -179T430 -227Q399 -256 376 -272T327 -304T266 -341T180 -403Q219 -358 251 -310Q277 -269 299 -221T322 -125Q322 -86 300 -56T245 -1T177 41T117 76L313
213Q355 205 397 191T472 154T526 98T547 20Z" />
<glyph unicode="-" glyph-name="hyphen" horiz-adv-x="1253" d="M1110 612Q1101 612 1086 600T1054 571T1022 539T1001 518Q994 513 980 498T949 468T916 440T891 428H145Q171 450 193 469Q212 485 230 500T254 520Q261 526 275 541T306 572T339 600T365 612H1110Z" />
<glyph unicode="." glyph-name="period" horiz-adv-x="662" d="M520 115Q481 87 444 61T375 15T317 -18T276 -31Q264 -29 242 -18Q223 -8 193 13T117 76L313 213Q360 174 398 154T463 125Q495 114 520 115Z" />
<glyph unicode="/" glyph-name="slash" horiz-adv-x="1358" d="M1284 1636Q1175 1297 1003 963Q929 820 835 665T623 354T364 49T57 -231Q205 -71 319 82T520 376T668 645T770 885T837 1089T876 1251T896 1365T905 1427Q910 1449 930 1464T981 1491T1050 1516T1128
1543T1209 1581T1284 1636Z" />
<glyph unicode="0" glyph-name="zero" horiz-adv-x="1743" d="M1624 877Q1624 769 1599 676T1539 510T1465 384T1399 307Q1340 253 1260 197T1090 95T910 20T737 -10Q637 -10 553 16T400 89T280 200T192 342T139 504T121 680Q121 791 146 892T212 1077T304 1223T406
1321Q466 1362 516 1394T611 1451T698 1498T786 1538Q815 1550 870 1560T993 1571Q1093 1571 1179 1545T1335 1472T1459 1360T1549 1218T1605 1054T1624 877ZM735 1427Q689 1427 656 1421T608 1405Q577 1386 536 1335T459 1209T397 1039T371 836Q371 748 391 664T448
504T538 365T660 255T808 184T979 158Q1042 158 1090 170T1161 199Q1187 217 1221 256T1285 356T1335 499T1356 686Q1356 832 1318 966T1202 1202T1009 1366T735 1427Z" />
<glyph unicode="1" glyph-name="one" horiz-adv-x="825" d="M770 211Q694 150 625 108T495 38T386 -1T299 -14Q272 -14 258 0T237 41T231 105T231 186Q232 229 235 328Q236 370 237 428T240 565T244 743T248 967L57 881Q200 977 288 1035T424 1126Q480 1164 504
1180Q500 1006 497 872T492 636T488 462T485 342Q482 228 481 199Q481 182 502 175T557 168Q582 168 611 171T670 181T725 194T770 211Z" />
<glyph unicode="2" glyph-name="two" horiz-adv-x="1407" d="M1317 211Q1222 136 1124 93T924 28T715 0T498 -6Q388 -6 317 -5T197 -4Q147 -4 115 -6T55 -14Q90 38 128 87T204 180T279 262T349 333Q426 409 502 471Q555 512 610 562T716 667T813 781T893 900T947
1019T967 1135Q967 1198 937 1254T859 1353T752 1421T633 1446Q572 1446 531 1426T464 1371T427 1289T416 1186Q416 1160 422 1137T441 1097T478 1072T535 1065Q505 1040 472 1014T402 965T329 928T254 913Q225 913 207 927T178 963T163 1010T158 1059Q158 1124
192 1187T281 1308T406 1415T550 1500T692 1558T815 1581Q893 1583 965 1563T1092 1500T1181 1397T1214 1255Q1214 1158 1154 1045T954 793Q865 705 776 626T605 469T454 314T336 154Q438 159 527 160T684 162Q750 162 817 160T950 158Q1050 158 1143 167T1317
211Z" />
<glyph unicode="3" glyph-name="three" horiz-adv-x="1403" d="M1313 1102Q1245 1026 1180 959T1045 828T899 700T735 567Q746 569 755 569T776 569Q886 569 982 537T1149 447T1262 304T1303 117Q1303 62 1290 14T1254 -75T1201 -150T1139 -213Q1058 -281 976
-337T807 -434T629 -497T440 -520Q416 -520 380 -518T303 -511T221 -495T148 -468T95 -428T74 -371Q74 -347 91 -321T137 -270T199 -221T265 -177T325 -140T367 -115Q342 -136 334 -157T326 -197Q326 -231 350 -254T411 -292T493 -316T582 -328T662 -333T717 -334Q797
-334 865 -321T971 -276Q1016 -241 1039 -182T1063 -55Q1063 9 1042 66T985 171T901 259T797 325T682 366T565 381Q531 381 499 377T436 365Q479 404 549 476Q609 537 705 642T944 907Q895 903 846 901T752 898T666 896T594 895Q549 895 519 895T468 896T433 896T406
897Q370 897 330 896T252 893T184 887T137 877Q188 928 236 967T334 1035T439 1077T561 1092Q648 1092 744 1083T928 1069Q982 1067 1044 1070Q1098 1072 1167 1079T1313 1102Z" />
<glyph unicode="4" glyph-name="four" horiz-adv-x="1610" d="M1559 686Q1489 645 1435 614T1334 561T1242 524T1147 502Q1144 428 1143 382T1140 309Q1139 277 1139 262Q1137 231 1170 215T1253 199Q1295 199 1346 210T1448 246Q1362 176 1291 129T1162 52T1061
10T989 -6Q960 -9 940 -4T908 17T890 61T887 135Q887 152 889 196Q891 234 893 303T901 489Q822 490 729 492T542 497T358 502T199 504Q139 504 97 503T39 496Q72 525 121 572T230 679T356 808T490 948T621 1089T739 1223T834 1338T897 1425Q943 1446 993 1472Q1036
1494 1088 1523T1194 1585L1153 641H1178Q1277 641 1373 649T1559 686ZM930 1278Q803 1136 704 1032T529 856T401 738T315 666Q538 655 688 650T907 645L930 1278Z" />
<glyph unicode="5" glyph-name="five" horiz-adv-x="1319" d="M1210 106Q1210 38 1198 -9T1164 -91T1116 -150T1061 -197Q972 -257 895 -315T738 -420T570 -495T373 -524Q353 -524 326 -523T269 -517T210 -505T157 -484T119 -453T104 -410Q104 -390 119 -367T159
-319T213 -272T271 -228T324 -193T360 -168Q338 -196 340 -217T353 -254Q365 -272 389 -285Q406 -294 435 -302T500 -316T578 -326T662 -330Q815 -330 895 -261T975 -35Q975 62 933 138T822 266T669 346T496 373Q453 373 404 367T308 348T221 312T154 258Q173 341
184 428T202 595T209 744T211 858V889L129 893L377 1051Q544 1046 671 1044T893 1042Q988 1042 1051 1043T1154 1046Q1200 1048 1227 1051Q1135 1002 1064 970T924 918T784 891T618 883H475Q461 715 451 617T436 473Q487 496 538 509T630 528Q678 535 721 537Q827
532 916 504T1071 422T1173 290T1210 106Z" />
<glyph unicode="6" glyph-name="six" horiz-adv-x="1473" d="M1362 1448Q1362 1427 1346 1405T1305 1361T1249 1317T1189 1279T1135 1248T1098 1227Q1121 1246 1124 1262T1123 1291Q1117 1305 1102 1317Q1051 1343 983 1356T842 1370Q769 1370 703 1356T590 1309Q556
1286 520 1234T453 1108T403 945T383 758Q383 738 383 718T385 678Q437 731 498 775T625 851T760 900T901 918Q985 918 1064 892T1206 818T1305 700T1343 543Q1343 496 1334 458T1313 397Q1278 332 1172 245T897 55Q840 20 773 0T633 -20Q546 -20 475 8T347 84T248
196T177 332T135 480T121 629Q121 762 163 880T277 1098T448 1277T658 1411T891 1496T1130 1526Q1145 1526 1168 1526T1217 1523T1268 1516T1315 1502T1349 1480T1362 1448ZM897 145Q940 145 974 159T1032 197T1068 256T1081 332Q1081 426 1047 501T955 629T819
709T655 737Q606 737 565 727T495 694T449 637T432 553Q432 468 475 394T587 264T737 177T897 145Z" />
<glyph unicode="7" glyph-name="seven" horiz-adv-x="1190" d="M1159 1102Q1139 1079 1114 1035T1060 932T1003 808T946 674T893 544T848 430Q829 380 803 315T747 180T684 39T616 -94T548 -206T483 -281Q446 -312 398 -347Q356 -377 299 -415T168 -492Q208 -462
241 -426T299 -357Q327 -319 350 -281Q365 -257 383 -211T423 -103T468 30T514 178T561 329T606 471T647 594T682 686Q699 726 720 769Q738 806 763 850T817 938Q733 928 658 925T525 919Q457 917 399 918Q317 913 244 904Q213 900 181 895T119 884T64 871T23 856Q67
900 102 931T163 983Q193 1007 217 1022Q240 1037 264 1047T317 1064T380 1074T459 1077Q549 1077 619 1074T758 1071Q817 1071 876 1072T989 1078T1087 1087T1159 1102Z" />
<glyph unicode="8" glyph-name="eight" horiz-adv-x="1366" d="M1161 328Q1130 299 1082 261T978 181T867 101T764 33Q716 4 649 -14T508 -33Q433 -33 363 -11T238 52T150 154T117 293Q117 372 148 440T230 567T342 676T465 768L328 850Q286 874 258 902T213 961T189
1021T182 1081Q182 1140 201 1187T254 1272T331 1341T426 1401T528 1455T631 1509Q651 1521 677 1532T735 1553T801 1567T872 1573Q935 1573 996 1550T1105 1487T1182 1392T1212 1272Q1212 1207 1181 1148T1101 1036T992 938T874 856Q946 822 1014 785T1141 705Q1196
663 1219 615T1243 516Q1243 459 1219 409T1161 328ZM375 444Q375 370 409 316T496 228T614 177T741 160Q794 160 839 165T918 189T970 240T989 330Q989 357 984 385T966 440T935 490T887 528Q818 567 722 620T510 741Q480 714 455 679T413 605T385 525T375 444ZM948
1120Q948 1187 917 1240T836 1331T725 1389T606 1409Q568 1409 539 1397T491 1364T463 1313T453 1249Q453 1217 460 1184T484 1119T524 1059T584 1008Q636 974 699 943T829 879Q892 936 920 998T948 1120Z" />
<glyph unicode="9" glyph-name="nine" horiz-adv-x="1368" d="M1274 457Q1274 335 1237 217T1135 -7T982 -202T790 -357T574 -459T346 -496Q277 -496 219 -486T129 -461Q109 -452 101 -439T92 -412Q92 -393 108 -371T149 -327T205 -284T265 -245T319 -214T356
-193Q333 -213 330 -229T332 -257Q337 -271 352 -283Q362 -290 381 -296T425 -308T480 -316T545 -319Q659 -319 747 -279T896 -161T988 34T1020 303Q1020 339 1014 377Q986 351 952 325T874 270Q836 246 796 224T713 183T624 154T528 143Q449 143 375 168T244 240T152
353T117 500Q117 600 158 678T265 818T411 928T569 1018Q616 1043 675 1058T797 1073Q879 1073 946 1047T1067 975T1159 868T1223 739T1261 598T1274 457ZM569 922Q516 922 481 892T424 818T394 725T385 635Q385 553 412 495T488 399T600 345T739 328Q778 328 815
336T887 361T951 400T1004 453Q985 538 948 622T856 772T729 880T569 922Z" />
<glyph unicode=":" glyph-name="colon" horiz-adv-x="715" d="M557 115Q518 87 481 61T412 15T354 -18T313 -31Q300 -29 278 -18Q259 -8 229 13T154 76L350 213Q397 174 435 154T500 125Q532 114 557 115ZM557 913Q518 886 481 860T412 813T354 781T313 768Q300
770 278 781Q259 791 229 812T154 874L350 1012Q397 972 435 952T500 923Q532 912 557 913Z" />
<glyph unicode=";" glyph-name="semicolon" horiz-adv-x="754" d="M594 20Q594 -15 584 -50T558 -118T521 -179T477 -227Q456 -246 440 -259T407 -283T374 -304T336 -327T289 -358T227 -403Q266 -358 298 -310Q324 -269 346 -221T369 -125Q369 -86 347 -56T292
-1T224 41T164 76L360 213Q402 205 444 191T519 154T573 98T594 20ZM567 913Q528 886 491 860T422 813T365 781T324 768Q311 770 289 781Q270 791 240 812T164 874L360 1012Q407 972 445 952T510 923Q542 912 567 913Z" />
<glyph unicode="&lt;" glyph-name="less" horiz-adv-x="977" d="M852 86Q828 53 795 20Q766 -8 725 -39T627 -94Q473 49 370 136T203 271Q129 326 86 348Q99 375 118 408Q135 437 159 476T217 563Q269 572 323 597T432 659T539 738T638 824Q747 925 852 1049Q821
980 777 902T671 747T532 599T354 477Q383 455 424 424T513 356T611 282T706 207T790 140T852 86Z" />
<glyph unicode="=" glyph-name="equal" horiz-adv-x="1270" d="M1108 756Q1099 756 1084 744T1052 715T1020 683T999 662Q992 656 978 642T947 611T914 583T889 571H164Q190 594 212 612Q231 628 248 643T272 664Q279 670 293 685T324 716T357 744T383 756H1108ZM1108
469Q1099 469 1084 457T1052 428T1020 397T999 377Q992 371 978 356T947 325T914 297T889 285H164Q190 308 212 327Q231 344 248 359T272 379Q279 384 293 399T324 429T357 457T383 469H1108Z" />
<glyph unicode="&gt;" glyph-name="greater" horiz-adv-x="979" d="M891 606Q877 579 858 546Q841 517 817 479T760 393Q708 384 653 358T544 296T438 217T339 131Q230 29 125 -94Q156 -26 200 52T305 208T445 356T623 477Q594 499 553 530T464 598T366 673T271
748T187 815T125 868Q149 901 182 934Q211 962 252 993T350 1049Q504 905 607 818T774 684Q848 629 891 606Z" />
<glyph unicode="?" glyph-name="question" horiz-adv-x="1210" d="M1124 1231Q1124 1172 1099 1118T1033 1013T940 917T833 831T726 755T633 690Q604 669 602 650T615 613T659 582T716 558T772 543T811 537Q830 537 849 538T891 545Q850 518 808 489T723 435T636
395T545 379Q518 379 484 386T420 408T369 445T348 500Q348 524 366 552T426 608Q468 637 518 669T620 738T719 814T805 900T864 994T887 1098Q887 1168 852 1218T762 1301T643 1349T522 1364Q481 1364 447 1357T389 1333T350 1288T336 1219Q336 1191 343 1162T366
1107T407 1061T467 1030Q407 994 364 970T293 930Q260 912 238 903Q196 889 167 902T120 942T94 1004T86 1071Q86 1139 122 1198T218 1307T353 1396T505 1463T655 1504T780 1518Q849 1518 911 1501T1021 1448T1096 1358T1124 1231ZM844 88Q797 55 753 24T669 -32T600
-71T551 -86Q535 -84 509 -70Q486 -58 450 -34T360 39L596 207Q651 159 696 135T775 100Q814 88 844 88Z" />
<glyph unicode="@" glyph-name="at" horiz-adv-x="1722" d="M1032 442V713Q994 721 957 725T889 729Q863 729 830 720T768 685T719 614T698 498Q698 460 708 423T740 357T791 309T860 291Q897 291 925 303T975 335T1010 382T1032 442ZM1606 621Q1606 539 1585
474T1530 358T1452 271T1366 211T1282 177T1214 166Q1176 166 1143 174T1086 201T1047 248T1032 317Q999 287 964 260T891 211T816 178T741 166Q690 166 651 189T585 248T546 329T532 418Q532 483 557 539T623 641T716 724T823 785T930 823T1024 836Q1055 836 1103
832T1217 817Q1214 719 1211 646T1207 517T1205 417T1208 330Q1213 302 1231 281T1278 260Q1289 260 1314 268T1366 303T1412 377T1432 504Q1432 646 1405 760T1316 956T1152 1080T901 1124Q842 1124 776 1103T644 1043T520 951T415 833T342 695T315 543Q315 397
348 297T436 130T558 28T696 -26T830 -47T942 -51Q1105 -51 1257 25L1268 10Q1236 -29 1181 -60T1058 -113T919 -146T780 -158Q652 -158 535 -123T327 -15T183 167T129 426Q129 557 169 668T278 869T440 1028T639 1143T860 1213T1087 1237Q1177 1237 1250 1211T1381
1139T1481 1034T1551 905T1592 763T1606 621Z" />
<glyph unicode="A" glyph-name="A" horiz-adv-x="1604" d="M1325 670Q1305 651 1282 632T1233 592Q1258 531 1282 476T1328 374T1369 292T1403 236Q1424 207 1450 185Q1473 166 1503 151T1571 135Q1608 135 1651 160Q1615 122 1575 86T1490 20T1398 -27T1300 -45Q1262
-45 1230 -23T1167 57Q1156 75 1138 114T1097 208T1045 329T987 469Q924 450 851 439T692 428H397L315 236Q308 217 306 198T309 162T332 136T385 125Q405 125 430 129T487 141Q431 88 390 51T312 -9T237 -42T150 -53Q121 -53 109 -39T96 0Q96 32 112 78T154 180Q175
231 236 369Q262 428 299 512T387 710T503 974T653 1311L700 1350Q700 1381 705 1404T719 1444T742 1476T770 1503Q788 1518 813 1538Q855 1572 936 1640Q924 1617 920 1589T915 1532Q915 1503 918 1477T925 1430Q929 1406 936 1386Q947 1350 974 1272T1038 1093T1120
876T1208 651Q1237 655 1259 659T1296 665Q1313 668 1325 670ZM729 1159Q658 1004 595 869T475 600Q609 603 721 609T924 623Q892 701 863 778T808 926T762 1056T729 1159Z" />
<glyph unicode="B" glyph-name="B" horiz-adv-x="1409" d="M1311 537Q1300 446 1255 365T1141 215T988 91T813 -3T631 -63T461 -84Q422 -83 382 -79Q347 -75 304 -68T219 -45L264 1294Q222 1294 173 1297T66 1307L322 1452Q357 1446 390 1444T453 1442Q505 1442
554 1448T650 1463T743 1478T836 1485Q913 1485 977 1464T1088 1401T1159 1299T1182 1161Q1177 1111 1147 1057Q1134 1034 1115 1008T1068 955T1003 901T918 848Q936 850 953 851T985 852Q1050 852 1098 839T1182 803T1241 752T1278 694Q1311 624 1311 537ZM717
70Q799 70 862 93T968 159T1033 265T1055 408Q1055 476 1032 533T968 632T870 697T748 721Q723 721 698 716T647 698Q732 743 786 790T870 884T912 975T924 1057Q924 1114 904 1163T848 1249T765 1306T662 1327Q624 1327 590 1324T522 1315L477 109Q549 87 608
79T717 70Z" />
<glyph unicode="C" glyph-name="C" horiz-adv-x="1561" d="M1524 188Q1479 143 1426 108T1318 47T1208 2T1101 -30Q981 -60 860 -68Q689 -66 551 -17T316 123T167 343T115 635Q115 768 163 882T294 1089T484 1254T711 1375T952 1449T1186 1475Q1219 1475 1257
1474T1333 1468T1404 1457T1460 1436T1492 1405T1489 1360Q1474 1351 1440 1328Q1410 1308 1356 1273T1210 1180Q1236 1197 1248 1212T1260 1241Q1260 1263 1241 1280T1191 1309T1124 1328T1053 1340T991 1346T950 1348Q658 1348 509 1199T360 758Q360 604 410
483T548 276T757 138T1020 74Q1099 69 1184 80Q1257 89 1346 113T1524 188Z" />
<glyph unicode="D" glyph-name="D" horiz-adv-x="1720" d="M604 -78Q536 -78 440 -72T219 -47L266 1300Q235 1298 206 1298T152 1298Q130 1298 112 1298T78 1300L330 1434Q434 1433 499 1435T605 1442T671 1450T723 1459T785 1465T881 1468Q1050 1468 1184 1423T1412
1290T1556 1073T1606 776Q1606 647 1562 534T1443 326T1268 156T1057 29T829 -50T604 -78ZM829 68Q896 68 942 72T1018 83Q1052 89 1073 98Q1117 119 1165 165T1255 282T1323 444T1350 649Q1350 797 1307 922T1184 1138T989 1280T731 1331Q666 1331 615 1325T514
1315L471 98Q586 81 673 75T829 68Z" />
<glyph unicode="E" glyph-name="E" horiz-adv-x="1649" d="M1298 1249Q1322 1268 1320 1285T1306 1315Q1292 1330 1266 1343Q1218 1366 1142 1376T981 1386Q860 1386 753 1364T562 1284T424 1123T356 860Q418 858 478 858T598 858Q669 858 756 861T935 869T1115
879T1274 887T1392 891T1450 887Q1462 881 1455 868T1426 837T1373 799T1306 761T1236 727T1171 702Q1194 741 1180 757T1100 774Q1071 774 1047 773T992 770T915 764T796 755T615 742T352 725Q357 563 408 450T549 264T761 153T1034 102Q1120 98 1204 110Q1240
115 1279 124T1358 147T1436 183T1507 233Q1433 170 1353 119T1187 30T1013 -28T838 -49Q762 -49 678 -37T511 5T354 83T225 204T140 375T117 602Q124 751 173 877T303 1104T488 1283T712 1413T961 1491T1217 1518Q1273 1518 1320 1513T1404 1501T1469 1486T1511
1470Q1556 1450 1556 1423Q1556 1407 1540 1389T1498 1353T1442 1319T1383 1288T1331 1264T1298 1249Z" />
<glyph unicode="F" glyph-name="F" horiz-adv-x="1243" d="M1067 823Q1098 820 1111 814T1124 797Q1124 781 1106 763T1058 726T995 689T930 657T874 632T842 618Q855 632 855 641T847 657Q839 664 825 668Q814 670 782 669T704 665T602 656T485 647L469 135Q492
118 524 111T590 104Q624 104 657 108T716 119Q747 126 774 135Q734 101 684 66T576 1T457 -47T330 -66Q311 -66 292 -61T257 -44T233 -10T225 43Q225 62 227 132Q228 162 229 205T231 309T235 450T240 635H211L240 651L258 1319H248Q203 1319 161 1320T80 1323L352
1470Q390 1465 428 1464T504 1462Q548 1462 613 1464T752 1471T899 1479T1034 1487T1137 1492T1186 1493Q1201 1491 1197 1480T1177 1451T1134 1414T1079 1373T1020 1336T967 1307Q982 1354 879 1354Q788 1354 698 1346T508 1329L489 768Q667 791 779 802T956 819Q1031
824 1067 823Z" />
<glyph unicode="G" glyph-name="G" horiz-adv-x="1878" d="M1823 807Q1800 791 1777 777T1731 750V686Q1731 551 1717 463T1685 323Q1665 261 1640 229Q1613 200 1564 167T1452 101T1318 38T1174 -16T1035 -52T915 -66Q749 -66 604 -22T350 109T178 326T115 627Q115
734 145 829T230 1008T358 1161T518 1287T700 1387T894 1459T1088 1503T1272 1518Q1330 1518 1381 1514T1473 1502T1545 1487T1593 1470Q1642 1449 1642 1411Q1642 1388 1625 1367T1580 1325T1520 1286T1456 1254T1398 1229T1358 1212Q1377 1232 1377 1249T1371
1280Q1363 1295 1346 1307Q1331 1316 1304 1331T1236 1362T1143 1388T1028 1399Q939 1399 857 1379T704 1320T575 1225T476 1096T412 937T389 750Q389 571 445 443T602 232T838 110T1135 70Q1213 70 1278 82T1386 117Q1412 138 1428 177T1454 265T1468 368T1473
475T1474 572T1473 649Q1431 649 1391 651T1309 653Q1264 653 1219 647T1128 618Q1208 674 1264 707T1356 758Q1398 779 1425 788Q1457 797 1500 800T1594 805T1703 806T1823 807Z" />
<glyph unicode="H" glyph-name="H" horiz-adv-x="1896" d="M1749 846Q1717 815 1681 792T1606 748Q1604 626 1600 475T1593 137Q1647 126 1691 123T1772 119Q1801 119 1823 121T1861 125Q1879 128 1892 131Q1833 91 1777 58T1668 -1T1569 -41T1483 -61Q1443 -65
1413 -65T1364 -51T1335 -10T1325 68Q1325 91 1326 148T1329 285T1333 461T1339 657Q1275 644 1219 638T1119 630Q1069 627 1026 629Q917 634 830 636T674 639Q632 639 596 638T528 635L518 111Q553 100 586 96T651 92Q691 92 725 97T784 109T825 121T842 129Q795
89 741 56T633 -2T528 -42T438 -61Q398 -65 364 -65T305 -51T266 -10T252 68Q252 93 253 154T257 301T263 488T269 694T275 897T281 1077T286 1213T289 1284Q290 1319 260 1333T184 1348Q147 1348 108 1341T31 1325Q82 1359 131 1387T231 1437T334 1469T442 1481Q464
1481 483 1479T517 1471T540 1456T549 1434Q548 1413 546 1338Q545 1306 544 1259T541 1146T537 994T532 795Q591 801 652 804T774 807Q838 807 900 804T1023 797T1143 790T1262 786H1343L1362 1284Q1363 1302 1356 1314T1334 1333T1301 1344T1260 1348Q1222 1348
1182 1341T1104 1325Q1155 1359 1204 1387T1304 1437T1407 1469T1516 1481Q1559 1481 1590 1470T1622 1434Q1621 1413 1619 1340Q1618 1309 1617 1264T1615 1154T1612 1006T1608 813Q1643 819 1678 827T1749 846Z" />
<glyph unicode="I" glyph-name="I" horiz-adv-x="831" d="M838 131Q779 91 722 58T613 -1T514 -41T428 -61Q389 -65 360 -65T310 -51T280 -10T270 68Q270 93 270 154T271 301T273 488T275 694T277 897T279 1077T281 1213T283 1284Q284 1319 254 1333T178 1348Q141
1348 102 1341T25 1325Q76 1359 125 1387T225 1437T328 1469T436 1481Q458 1481 477 1479T511 1471T534 1456T543 1434Q543 1395 542 1245Q542 1181 542 1086T541 857T540 544T539 137Q593 126 637 123T717 119Q746 119 768 121T807 125Q825 128 838 131Z" />
<glyph unicode="J" glyph-name="J" horiz-adv-x="1323" d="M1128 1509Q1126 1268 1124 1108T1121 852Q1119 739 1118 676Q1117 604 1108 532T1064 385T958 235T766 78Q688 27 621 -7T496 -63T387 -93T291 -102Q272 -102 238 -99T167 -87T92 -67T30 -37T-3 4T8
55Q28 80 61 109Q89 134 133 166T242 236Q230 218 230 204T235 179Q240 167 252 158Q263 150 297 137T378 110T481 86T592 76Q664 76 712 99T792 161T839 251T863 358T871 472T872 582Q872 700 873 804T876 1004T877 1189T872 1366Q840 1371 811 1372T756 1374Q700
1374 658 1367T586 1352T540 1336T520 1327Q567 1367 611 1401T700 1460T794 1499T899 1513Q956 1513 1016 1510T1128 1509Z" />
<glyph unicode="K" glyph-name="K" horiz-adv-x="1733" d="M1884 145Q1808 81 1750 45T1649 -9Q1601 -30 1565 -35Q1515 -46 1455 -32T1328 16T1192 97T1056 199T927 312T812 423T719 520T655 594Q635 619 624 635T612 668Q612 683 626 702T674 754Q692 771 721
799T785 864T860 941T938 1026T1012 1112T1074 1193T1117 1263T1133 1317Q1133 1346 1071 1346Q1047 1346 1025 1347Q1006 1347 987 1347T956 1346Q1008 1376 1053 1402T1142 1448T1230 1479T1323 1491Q1345 1491 1367 1490T1415 1483Q1369 1402 1322 1337T1227
1216T1133 1115T1041 1028T954 947T874 866Q856 848 858 823T895 760Q948 701 1012 632T1150 492T1304 356T1469 239T1639 158T1812 127Q1857 127 1884 145ZM834 158Q775 118 718 84T609 25T510 -17T424 -37Q385 -40 355 -39T306 -25T276 15T266 92Q266 117 266
179T267 326T269 513T271 719T273 922T275 1103T277 1239T279 1311Q280 1329 272 1341T249 1360T214 1371T172 1374Q137 1374 97 1368T20 1352Q70 1384 119 1412T219 1462T321 1495T428 1507Q450 1507 470 1505T505 1497T530 1482T539 1458Q539 1420 538 1270Q538
1206 538 1111T537 882T536 570T535 162Q587 153 630 149T709 145Q740 145 763 147T802 151Q820 154 834 158Z" />
<glyph unicode="L" glyph-name="L" horiz-adv-x="1298" d="M1303 168Q1192 98 1086 56T873 -9T655 -37T424 -37Q385 -36 355 -34T306 -21T276 17T266 92Q266 117 266 179T267 326T269 513T271 719T273 922T275 1103T277 1239T279 1311Q280 1329 272 1341T249 1360T214
1371T172 1374Q137 1374 97 1368T20 1352Q71 1385 120 1413T220 1462T322 1495T430 1507Q452 1507 472 1505T507 1497T531 1482T539 1458Q539 1420 537 1268Q536 1203 535 1107T533 875T530 559T526 145Q620 134 703 130T860 125Q964 125 1046 131T1185 146Q1252
156 1303 168Z" />
<glyph unicode="M" glyph-name="M" horiz-adv-x="2238" d="M2208 158Q2165 116 2121 78T2032 12T1945 -30T1862 -39Q1821 -33 1799 -6T1766 65T1751 165T1743 285Q1738 339 1729 450Q1725 497 1720 561T1708 710T1692 900T1673 1137Q1622 1073 1565 1001T1453
850T1346 690T1254 526T1186 363T1153 207L930 -25Q932 10 928 44T918 106Q911 138 901 166Q855 283 802 396T691 620T576 840T461 1059Q438 959 420 876T388 730Q372 658 360 600Q278 221 309 182Q317 173 335 167T379 160Q410 160 447 172T528 217Q464 157 411
106T312 20T227 -30T150 -33Q122 -23 110 2T98 68Q98 125 117 210T160 408Q174 470 192 552T230 726T270 911T308 1091T341 1246T365 1360Q369 1372 395 1400Q406 1412 422 1428T462 1467T517 1517T590 1581Q582 1544 588 1502T604 1424Q615 1382 633 1341Q647
1309 679 1245T754 1100T846 926T940 743T1025 572T1087 434Q1131 513 1184 590T1294 744T1407 898T1514 1056T1607 1220T1677 1393Q1703 1424 1739 1459Q1769 1489 1813 1528T1913 1612Q1902 1581 1898 1541T1892 1465Q1890 1423 1892 1380Q1893 1352 1897 1292T1908
1153T1922 979T1939 789T1957 601T1974 432T1989 300T2001 223Q2006 198 2018 181T2046 153T2080 138T2118 133Q2145 133 2168 140T2208 158Z" />
<glyph unicode="N" glyph-name="N" horiz-adv-x="1882" d="M1722 1511Q1708 1504 1701 1492T1689 1468Q1685 1454 1683 1438Q1682 1427 1681 1386T1677 1283T1672 1143T1666 982T1661 816T1656 660T1652 530T1649 440Q1647 376 1643 336T1632 268T1615 222T1593
182Q1584 163 1566 129Q1550 100 1523 52T1452 -70Q1437 -26 1405 22T1338 112Q1298 160 1253 207Q1200 260 1088 370Q1040 417 975 480T824 628T630 818T389 1055Q387 933 386 835T383 660T381 525T380 425Q379 327 379 285Q378 253 385 227T407 181T446 150T504
139Q538 139 582 150T682 188Q633 140 590 105T508 45T437 4T378 -21Q316 -43 270 -39Q232 -31 221 -9T209 55Q209 370 220 680T231 1298Q231 1345 231 1376T229 1421Q237 1447 262 1480Q283 1509 322 1549T430 1640Q422 1619 419 1599T416 1561Q416 1532 421 1510T435
1471Q444 1453 455 1438Q489 1396 543 1340T668 1214T826 1058T1010 872Q1080 806 1158 729Q1225 663 1310 575T1485 385Q1487 569 1488 703T1489 936Q1489 1027 1489 1086T1487 1182Q1486 1223 1485 1247Q1485 1281 1475 1304T1450 1340T1414 1358T1374 1364Q1351
1364 1330 1359T1298 1346Q1340 1382 1381 1413T1464 1468T1553 1504T1653 1518Q1688 1518 1722 1511Z" />
<glyph unicode="O" glyph-name="O" horiz-adv-x="1913" d="M1798 788Q1798 654 1753 540T1630 333T1452 167T1240 46T1015 -28T797 -53Q645 -53 520 -3T304 138T165 352T115 623Q115 752 160 866T283 1076T463 1248T680 1376T914 1457T1145 1485Q1245 1485 1332
1460T1491 1388T1621 1277T1717 1135T1777 969T1798 788ZM897 1352Q767 1352 671 1305T510 1176T415 988T383 760Q383 609 436 483T581 266T800 125T1073 74Q1153 74 1218 100T1334 170T1422 274T1484 401T1520 538T1532 676Q1532 817 1486 940T1356 1154T1155
1299T897 1352Z" />
<glyph unicode="P" glyph-name="P" horiz-adv-x="1440" d="M825 115Q785 82 735 47T627 -18T508 -67T381 -86Q362 -86 343 -81T308 -64T284 -30T276 23Q276 59 280 208Q281 271 283 365T289 592T298 901T309 1305Q243 1297 180 1290T57 1278L313 1466Q350 1460
391 1458T473 1456Q532 1456 588 1460T697 1469T803 1479T909 1483Q995 1483 1079 1462T1229 1396T1337 1283T1378 1120Q1378 1049 1350 978T1273 839T1160 713T1026 610T882 539T743 510L713 530Q800 550 874 592T1002 693T1086 828T1116 991Q1116 1052 1098 1101T1048
1188T974 1253T882 1298T781 1324T676 1333Q647 1333 618 1332T559 1329L520 115Q543 98 575 91T641 84Q675 84 708 88T767 99Q798 106 825 115Z" />
<glyph unicode="Q" glyph-name="Q" horiz-adv-x="1913" d="M1798 788Q1798 682 1769 589T1690 415T1570 267T1421 145Q1517 51 1612 -34T1785 -187Q1875 -265 1958 -334Q2035 -383 2124 -421Q2162 -438 2206 -453T2298 -481T2399 -500T2505 -508Q2582 -508 2659
-490T2810 -426Q2738 -488 2664 -537T2511 -621T2352 -675T2183 -694Q2123 -694 2061 -683T1931 -646T1792 -574T1640 -459L1116 0Q949 -53 797 -53Q645 -53 520 -3T304 138T165 352T115 623Q115 758 166 880T305 1105T508 1285T750 1409Q779 1419 821 1432T915
1457T1025 1477T1145 1485Q1245 1485 1332 1460T1491 1388T1621 1277T1717 1135T1777 969T1798 788ZM897 1352Q767 1352 671 1305T510 1176T415 988T383 760Q383 609 436 483T581 266T800 125T1073 74Q1153 74 1218 100T1334 170T1422 274T1484 401T1520 538T1532
676Q1532 817 1486 940T1356 1154T1155 1299T897 1352Z" />
<glyph unicode="R" glyph-name="R" horiz-adv-x="1774" d="M825 115Q785 82 735 47T627 -18T508 -67T381 -86Q362 -86 343 -81T309 -64T285 -30T276 23Q276 60 280 209Q281 272 283 366T289 593T298 902T309 1307Q283 1304 258 1304T207 1303Q169 1303 122 1305T23
1313L276 1473Q354 1462 423 1458T537 1454Q587 1454 633 1457T725 1465T814 1473T903 1477Q991 1477 1072 1457T1214 1395T1311 1284T1348 1120Q1348 1069 1331 1016T1275 909T1172 803T1012 702Q1111 610 1192 537T1340 407T1457 309T1547 237Q1637 167 1686
141Q1711 129 1739 120Q1763 112 1793 106T1858 100Q1879 100 1899 103T1939 115Q1891 78 1845 45T1753 -12T1659 -51T1561 -66Q1533 -66 1507 -61T1454 -43T1400 -12T1341 35Q1300 69 1220 140Q1186 170 1140 212T1034 309T899 433T731 590Q803 617 867 655T978
742T1053 851T1081 985Q1081 1073 1045 1139T952 1249T821 1315T674 1337Q614 1337 559 1331L520 115Q543 98 575 91T641 84Q675 84 708 88T767 99Q798 106 825 115Z" />
<glyph unicode="S" glyph-name="S" horiz-adv-x="1341" d="M1204 1456Q1222 1448 1222 1432T1208 1395T1172 1351T1120 1303Q1097 1284 1067 1262Q1041 1242 1004 1217T918 1161Q945 1186 956 1206T967 1243Q967 1266 949 1283T903 1311T841 1330T774 1340T714
1345T674 1346Q621 1346 567 1336T470 1301T400 1236T373 1135Q373 1067 411 1019T511 934T651 871T810 820T966 770T1098 713Q1172 669 1204 611T1237 487Q1237 403 1193 328T1077 187T914 70T730 -19T550 -76T399 -96Q316 -96 253 -80T148 -40T86 7T68 47Q70
65 86 86T136 133T219 188T340 254Q311 226 314 202T342 159T409 126T497 102T591 87T674 82Q735 82 795 95T904 136T983 211T1014 324Q1014 363 998 404T944 485T840 558T678 618Q530 657 429 698T266 787T180 891T162 1018Q168 1099 211 1165T320 1284T469 1376T637
1440T804 1478T948 1491Q996 1491 1038 1487T1114 1478T1171 1467T1204 1456Z" />
<glyph unicode="T" glyph-name="T" horiz-adv-x="1475" d="M1114 115Q1074 82 1024 47T916 -18T797 -67T670 -86Q650 -86 631 -81T597 -64T573 -30T565 23Q565 61 569 211Q570 275 572 370T578 601T587 915T598 1327Q504 1316 412 1310T225 1303Q139 1303 82 1313T2
1348Q-11 1370 10 1403Q19 1417 36 1435T82 1475T155 1523T258 1579Q242 1559 243 1546T251 1523Q259 1512 274 1505Q303 1494 362 1486T528 1477Q644 1477 756 1486T978 1506T1196 1527T1413 1536Q1442 1536 1464 1535T1499 1528Q1518 1521 1512 1506T1484 1471T1428
1430T1360 1389T1293 1356T1243 1335Q1252 1366 1231 1378T1143 1386Q993 1374 848 1356L809 115Q832 98 864 91T930 84Q964 84 997 88T1056 99Q1087 106 1114 115Z" />
<glyph unicode="U" glyph-name="U" horiz-adv-x="1747" d="M1638 1434Q1637 1421 1635 1381T1627 1281T1613 1148T1592 994T1564 832T1528 675T1482 535T1425 424Q1362 332 1284 250T1120 105T948 3T782 -43Q704 -49 627 -31T486 37T377 168T315 373Q305 454 298
547T287 736T281 921T278 1086T276 1213T274 1284Q268 1348 186 1348Q154 1348 110 1337T8 1300Q56 1345 102 1382T197 1447T299 1489T414 1505Q435 1505 453 1502T485 1493T507 1476T514 1450Q513 1435 513 1394T514 1293T517 1161T521 1011T525 857T530 712T535
590T539 504Q545 396 583 322T678 201T803 134T936 113Q995 113 1044 127T1128 166Q1166 194 1198 264T1256 429T1303 636T1341 861T1370 1081T1391 1270Q1392 1290 1381 1306Q1372 1320 1352 1331T1290 1343Q1269 1343 1243 1340T1182 1327Q1226 1361 1269 1391T1357
1444T1448 1480T1546 1493Q1588 1493 1614 1481T1638 1434Z" />
<glyph unicode="V" glyph-name="V" horiz-adv-x="1563" d="M1491 1434Q1500 1402 1497 1353T1480 1244T1441 1116T1381 978T1300 839T1200 707Q1113 605 1047 520T934 364T856 235T811 129Q786 109 754 81Q727 57 690 22T610 -59Q587 104 550 273T464 604T359
914T242 1186Q205 1261 165 1289T82 1317Q43 1317 -2 1300Q29 1325 66 1358T145 1421T227 1472T307 1493Q345 1493 382 1473T442 1407Q453 1384 479 1326T540 1183T613 993T689 772T758 535T809 295Q851 358 887 410T951 501Q983 546 1008 582Q1066 668 1113 752T1193
914T1244 1062T1262 1192Q1262 1216 1259 1241T1245 1287T1219 1321T1176 1335Q1157 1335 1133 1326T1077 1292Q1114 1328 1152 1365T1231 1433T1313 1482T1401 1501Q1433 1501 1457 1486T1491 1434Z" />
<glyph unicode="W" glyph-name="W" horiz-adv-x="2406" d="M2310 1327Q2310 1281 2301 1219T2266 1081T2199 917T2093 731Q2047 661 1995 591T1892 446T1794 294T1712 129L1511 -78Q1513 -62 1514 -46T1516 -14Q1516 45 1506 102T1483 205Q1468 259 1450 307Q1424
371 1387 444T1310 597T1231 760T1161 924Q1135 878 1110 838T1064 768Q1040 733 1018 702Q941 593 884 487Q860 442 838 393T799 294T776 198T774 111L578 -78Q575 17 561 121T523 332T471 547T408 758T341 957T274 1135Q252 1186 222 1226Q209 1243 194 1259T159
1288T119 1309T74 1317Q48 1317 19 1307T-39 1272Q-8 1301 33 1340T120 1414T212 1473T301 1497Q333 1497 364 1483T424 1434Q442 1411 469 1355T529 1220T595 1042T660 836T716 618T758 401Q812 500 862 588T956 759T1040 919T1114 1077Q1106 1114 1102 1148T1098
1217Q1098 1279 1116 1335L1366 1536Q1351 1485 1345 1438T1339 1352Q1339 1284 1363 1201T1426 1027T1510 839T1598 647T1674 461T1720 293Q1744 332 1766 368T1806 433Q1826 466 1845 496Q1893 577 1937 664T2015 836T2070 1001T2091 1145Q2091 1175 2083 1205T2060
1261T2020 1301T1964 1317Q1947 1317 1927 1311T1884 1290Q1916 1320 1951 1354T2024 1418T2102 1467T2185 1487Q2221 1487 2245 1473T2283 1437T2304 1386T2310 1327Z" />
<glyph unicode="X" glyph-name="X" horiz-adv-x="1745" d="M1690 184Q1610 101 1541 58T1420 -6Q1359 -29 1309 -31Q1245 -30 1193 0T1094 83T1001 210T901 375L719 678Q659 599 560 475T315 180Q327 174 345 170Q360 166 381 163T430 160Q475 160 532 173T655
221Q565 126 484 75T340 0Q267 -28 203 -31Q178 -31 155 -26T117 -10T97 13T106 43L668 762Q627 830 588 895T515 1018T454 1121T410 1198Q390 1229 361 1254Q336 1275 299 1293T211 1311Q177 1311 137 1301T49 1264Q91 1301 137 1340T232 1410T335 1461T444 1481Q486
1481 520 1469T580 1434Q597 1418 626 1378T692 1280T772 1153T862 1006Q931 1087 992 1147T1108 1252T1212 1332T1309 1395Q1395 1449 1471 1480T1608 1511Q1626 1511 1647 1507T1687 1493T1717 1469T1729 1436Q1729 1419 1714 1399T1675 1357T1622 1316T1566
1279T1517 1248T1485 1229Q1508 1253 1502 1273T1471 1309T1411 1332T1339 1341Q1315 1341 1292 1338T1251 1323Q1225 1308 1188 1269T1106 1176T1011 1058T909 926L1030 721Q1094 610 1153 508T1268 327T1377 198T1483 143Q1523 140 1561 143Q1593 145 1628 154T1690
184Z" />
<glyph unicode="Y" glyph-name="Y" horiz-adv-x="1485" d="M1352 1481Q1367 1431 1352 1371T1298 1245T1203 1108T1081 966T944 823T803 686Q803 679 803 667T804 636T804 587T805 518Q805 458 805 372T801 164Q840 152 881 152Q915 152 946 159T1001 174T1040
189T1057 199Q1020 150 967 108T856 35T743 -13T647 -31Q593 -31 575 -8T557 57Q557 88 558 133T563 230T568 336T574 440T578 528T580 590Q580 600 565 632T523 712T464 817T394 935T320 1053T251 1160T194 1243T156 1290Q145 1299 130 1306Q117 1312 98 1317T53
1323Q22 1323 -18 1312T-109 1270Q-70 1312 -28 1351T60 1420T157 1469T264 1487Q298 1487 326 1479T371 1450Q384 1436 413 1392T479 1286T560 1151T645 1003T723 859T784 737Q843 792 902 856T1009 991T1086 1134T1116 1280Q1116 1338 1079 1348Q1067 1350 1052
1348Q1039 1346 1023 1340T987 1321Q1018 1351 1052 1386T1124 1450T1202 1500T1286 1520Q1312 1520 1328 1510T1352 1481Z" />
<glyph unicode="Z" glyph-name="Z" horiz-adv-x="1495" d="M1569 258Q1515 190 1455 130T1321 25T1152 -43T934 -63Q837 -60 733 -54T527 -40T335 -28T174 -23Q136 -23 106 -24T55 -31Q87 2 134 64T237 207T355 381T479 568T601 751T711 913Q808 1054 885 1154T1022
1321Q980 1308 937 1303T859 1295Q818 1292 780 1294Q671 1301 566 1315T365 1329Q284 1329 214 1312T86 1245Q152 1324 209 1380T327 1473T462 1527T633 1544Q702 1544 767 1537T897 1520T1025 1503T1153 1495Q1206 1495 1257 1500T1356 1520Q1303 1490 1257 1444T1175
1352Q1134 1300 1098 1245Q1072 1202 1023 1126T911 954T773 751T623 540T472 344T332 186H342Q447 186 549 179T753 164T953 148T1153 141Q1231 141 1294 146T1409 165T1499 201T1569 258Z" />
<glyph unicode="[" glyph-name="bracketleft" horiz-adv-x="860" d="M866 2036Q855 2036 834 2019T790 1980T747 1938T719 1911Q710 1903 690 1883T648 1842T604 1805T569 1788H498V10Q498 -4 493 -38T478 -107T453 -170T416 -197H846Q834 -197 813 -214T769 -252T727
-295T698 -324Q689 -332 670 -352T628 -393T584 -430T549 -446H135Q173 -398 187 -342T201 -231V1788Q201 1804 217 1822T260 1860T320 1901T386 1945T449 1990T498 2036H866Z" />
<glyph unicode="\" glyph-name="backslash" horiz-adv-x="1313" d="M1253 -231Q1152 -184 1061 -121T888 17T733 176T596 349T477 528T374 707Q209 1017 98 1364Q93 1380 101 1392T129 1416T175 1442T234 1475T303 1523T375 1591Q379 1575 386 1523T409 1390T453
1202T525 968T633 698T785 402T989 89T1253 -231Z" />
<glyph unicode="]" glyph-name="bracketright" horiz-adv-x="846" d="M715 2036Q689 1982 675 1942T655 1876Q647 1844 647 1823V-197Q643 -208 610 -238Q596 -251 575 -269T522 -313T449 -371T352 -446H-16Q-5 -446 16 -429T59 -391T102 -348T131 -319Q137 -314
148 -303T172 -279T201 -251T230 -224T257 -205T279 -197H352V1581Q352 1595 357 1629T372 1698T397 1761T434 1788H4Q16 1788 37 1805T80 1843T123 1885T152 1913Q161 1921 180 1941T221 1983T264 2020T299 2036H715Z" />
<glyph unicode="^" glyph-name="asciicircum" horiz-adv-x="932" d="M815 911Q815 901 799 886T758 853T705 816T652 780T612 749T596 727Q572 787 554 845T520 961T489 1073T457 1184L330 911Q320 891 294 871T237 830T175 789T125 748Q149 781 177 823T235 913T292
1011T345 1110T387 1204T416 1286Q451 1319 477 1344T522 1390T557 1428T588 1462Q606 1397 629 1329T680 1192T739 1057T805 930Q808 924 811 921T815 911Z" />
<glyph unicode="_" glyph-name="underscore" horiz-adv-x="1286" d="M1133 -221Q1124 -221 1109 -233T1076 -262T1045 -294T1024 -315Q1017 -321 1003 -335T971 -366T938 -394T913 -406H168Q194 -383 216 -364Q235 -347 252 -333T276 -313Q283 -307 297 -292T328
-261T361 -233T387 -221H1133Z" />
<glyph unicode="`" glyph-name="grave" horiz-adv-x="494" d="M494 1391Q487 1385 472 1373T438 1345T398 1314T357 1284T322 1262T299 1253Q205 1313 129 1393T0 1571Q0 1573 13 1584T47 1610T91 1642T137 1673T175 1696T195 1706Q197 1706 206 1692T227 1659T249
1625T262 1604Q310 1541 367 1485T494 1391Z" />
<glyph unicode="a" glyph-name="a" horiz-adv-x="1448" d="M1491 154Q1449 112 1401 78T1303 18T1208 -22T1124 -39Q1103 -41 1070 -39T1007 -21T954 26T932 117V236Q877 182 816 133T691 45T560 -16T430 -39Q348 -39 286 -3T182 92T119 222T98 365Q98 418 106
469T126 567T155 650T190 711Q223 756 274 798T385 877T514 944T649 996T781 1030T899 1042Q955 1042 1031 1037T1204 1014Q1200 899 1197 811T1192 654T1189 527T1188 416Q1188 361 1186 308T1194 213T1233 145T1325 119Q1362 119 1404 128T1491 154ZM934 870Q874
886 806 892T676 899Q642 899 612 897T556 892T512 885T483 874Q465 865 441 831T395 745T358 630T342 498Q342 433 361 368T416 250T506 166T629 133Q694 133 744 154T831 211T892 297T932 403Q932 445 932 492T932 597T932 721T934 870Z" />
<glyph unicode="b" glyph-name="b" horiz-adv-x="1413" d="M1319 596Q1319 508 1285 429T1194 282T1063 158T907 61T742 -4T586 -35Q554 -37 510 -34T420 -19T328 19T246 88T188 194T166 346Q166 412 167 500T171 688T175 896T181 1109T186 1311T190 1489T193
1627T193 1710Q190 1746 172 1771Q157 1792 127 1804T41 1802Q79 1822 118 1843T197 1882T277 1911T358 1923Q379 1923 398 1919T432 1905T456 1877T465 1835Q465 1817 464 1767T462 1643T458 1477T453 1285T448 1080T442 877Q495 913 549 943T659 995T774 1029T895
1042Q995 1042 1074 1005T1207 906T1290 764T1319 596ZM434 403Q434 353 464 298T546 195T663 117T801 86Q871 86 919 120T998 206T1041 322T1055 442Q1055 534 1025 616T941 761T810 860T643 897Q606 897 577 892T532 879Q517 871 504 849T478 796T456 727T438
649Q436 561 435 495T434 403Z" />
<glyph unicode="c" glyph-name="c" horiz-adv-x="1190" d="M1147 221Q1105 184 1044 142T908 64T749 2T578 -25Q528 -27 473 -17T364 17T262 75T176 161T118 277T96 422Q96 521 129 606T218 762T350 887T512 979T690 1035T870 1055Q881 1055 904 1055T955 1052T1012
1046T1066 1034T1106 1017T1122 991Q1122 974 1105 958T1065 928Q1047 916 1018 899Q993 885 955 863T860 811Q878 843 866 865T823 900T747 920T655 926Q624 926 595 924T540 918T495 909T463 899Q444 891 424 859T388 779T361 674T350 557Q350 467 384 389T476
253T613 162T778 129Q872 129 966 156T1147 221Z" />
<glyph unicode="d" glyph-name="d" horiz-adv-x="1552" d="M1579 139Q1444 47 1349 7T1188 -33Q1161 -33 1133 -25T1078 4T1031 59T997 147Q948 111 889 76T766 13T640 -32T518 -49Q420 -49 342 -10T210 95T126 243T96 414Q96 512 126 589T209 727T331 834T478
916T638 977T797 1026Q804 1027 814 1028Q822 1029 833 1029T860 1030Q888 1030 923 1027T999 1014L1020 1645Q1018 1700 1000 1739Q992 1755 980 1769T951 1792T909 1801T852 1792Q891 1810 935 1832T1022 1874T1107 1907T1184 1921Q1222 1921 1247 1901T1276
1839Q1279 1811 1279 1762T1280 1645Q1280 1564 1279 1465T1275 1257T1270 1037T1265 818T1262 615T1260 442Q1260 382 1267 324T1297 220T1360 146T1468 117Q1493 117 1520 122T1579 139ZM993 795Q958 825 918 845T836 877T751 895T668 901Q581 901 520 875T419
801T362 686T344 537Q344 449 371 371T449 233T570 139T729 104Q791 104 835 119T908 162T956 229T985 315Q985 354 985 406T987 520T990 651T993 795Z" />
<glyph unicode="e" glyph-name="e" horiz-adv-x="1210" d="M1399 954Q1284 898 1186 855T1012 781Q925 746 852 719Q807 700 753 681T639 643T519 606T397 569V549Q397 446 429 364T520 225T659 137T838 106Q889 106 939 114T1035 135T1121 168T1192 209Q1116
141 1036 95T875 21T716 -21T565 -35Q492 -37 422 -13T293 62T195 186T143 360Q138 395 138 427T145 492Q110 479 82 468T35 446Q64 466 93 483T150 516Q167 594 208 665T308 797T439 907T588 992T746 1046T901 1065Q951 1065 985 1050T1032 997Q1038 957 1003
911Q988 891 963 869T897 821T800 769T666 715L1399 954ZM606 711Q649 730 683 752T737 798T758 848T737 903Q722 925 696 933T641 942Q615 942 591 937T549 922Q537 915 516 892T473 831T432 744T403 635Q466 658 517 676T606 711Z" />
<glyph unicode="f" glyph-name="f" horiz-adv-x="1006" d="M1044 1098Q979 1052 912 1020T775 967T634 935T489 918Q488 837 488 754T488 593T487 444T487 319T487 227T487 178Q487 131 506 117T563 102Q625 102 683 118T795 154Q750 112 698 73T589 5T475 -41T358
-59Q295 -59 263 -30T231 39V911Q185 911 134 912T25 918Q54 935 78 952T121 983Q142 999 160 1014Q172 1026 185 1044Q196 1059 209 1082T236 1137Q242 1230 258 1318T305 1485Q332 1554 379 1613T487 1721T619 1806T764 1868T913 1906T1055 1919Q1096 1919 1133
1916T1202 1906T1257 1893T1296 1878Q1331 1858 1331 1835Q1331 1818 1316 1799T1278 1760T1225 1721T1169 1686T1120 1659T1087 1642Q1100 1653 1105 1663T1110 1683Q1110 1714 1085 1735T1019 1769T924 1787T813 1792Q764 1792 723 1787T664 1769Q641 1754 615
1720T565 1637T524 1527T502 1397Q499 1355 497 1269T492 1069Q526 1067 558 1067T621 1067Q716 1067 793 1071T927 1082Q992 1089 1044 1098Z" />
<glyph unicode="g" glyph-name="g" horiz-adv-x="1380" d="M1204 1006Q1201 878 1199 777T1196 595T1193 456T1192 353Q1191 253 1192 211Q1190 100 1189 16T1179 -134T1147 -250T1079 -344Q1001 -419 917 -493T742 -627T553 -723T350 -760Q287 -760 217 -742T88
-687T-10 -597T-49 -471Q-49 -414 -16 -361T84 -262Q122 -235 170 -201Q212 -172 270 -132T403 -43Q327 -37 270 1T175 96T117 221T98 358Q98 411 106 463T126 560T155 643T190 705Q225 753 276 796T389 876T517 942T650 991T778 1023T891 1034Q947 1034 1025 1029T1204
1006ZM934 866Q874 880 806 886T676 893Q592 893 530 876T426 814T363 691T342 492Q342 426 361 361T416 244T506 160T629 127Q696 127 746 148T833 205T892 289T930 391Q930 476 931 591T934 866ZM231 -233Q178 -285 178 -342Q178 -386 201 -420T262 -480T347
-523T441 -552T532 -568T604 -573Q670 -573 726 -561T813 -526Q847 -500 869 -431T904 -261T922 -35T930 227Q879 177 824 131T709 49T589 -12T467 -43Q407 -88 363 -122T289 -182Q255 -211 231 -233Z" />
<glyph unicode="h" glyph-name="h" horiz-adv-x="1495" d="M416 111L176 -61Q180 199 184 406T190 774T195 1055T198 1259Q201 1458 201 1538Q204 1660 167 1728T51 1796Q26 1796 -1 1790T-59 1767Q-20 1795 23 1824T110 1878T200 1917T291 1933Q331 1933 359
1918T405 1879T434 1823T448 1757T454 1689T455 1626Q455 1611 455 1572T453 1473T451 1338T447 1175T443 993T438 799Q487 856 552 905T688 990T831 1043T969 1053Q1013 1047 1061 1028T1150 970T1216 868T1239 709Q1236 597 1230 504T1223 338Q1223 295 1230
257T1254 190T1301 144T1376 127Q1417 127 1461 142T1550 190Q1477 125 1417 81T1305 10T1208 -28T1120 -39Q1078 -38 1049 -23T1001 25T976 109T971 236Q974 302 978 381T983 539Q983 628 972 692T929 797T842 859T698 879Q653 879 615 871T555 848Q537 835 516
789T475 654T439 432T416 111Z" />
<glyph unicode="i" glyph-name="i" horiz-adv-x="756" d="M510 1868Q510 1839 511 1813T512 1761Q512 1702 502 1660T455 1593Q433 1577 400 1556Q345 1520 223 1446Q235 1478 240 1523T248 1610Q250 1658 248 1710Q311 1743 359 1771T441 1822Q481 1847 510 1868ZM862
164Q748 89 669 46T532 -18T436 -42T365 -39Q336 -34 308 -24T258 12T221 89T207 225Q207 297 211 367T219 507T226 645T227 782Q225 848 203 878T137 909Q120 909 100 905T57 893Q93 918 131 943T208 989T286 1021T365 1034Q407 1034 438 1015T479 952Q482 935
483 902T485 825Q485 760 483 681T477 526T471 385T467 285Q466 252 479 219T517 160T580 117T666 100Q708 100 757 115T862 164Z" />
<glyph unicode="j" glyph-name="j" horiz-adv-x="655" d="M500 1868Q500 1837 501 1808T502 1753Q502 1697 492 1657T444 1593Q422 1577 389 1556Q360 1537 317 1510T213 1446Q225 1478 230 1523T238 1610Q240 1658 238 1710Q300 1743 348 1771T431 1822Q471 1847
500 1868ZM469 952Q474 934 475 874T477 727Q477 652 476 563T474 383T470 203T466 40T463 -88T461 -164Q458 -276 374 -397T117 -641Q46 -691 -22 -725T-152 -781T-269 -811T-371 -821Q-398 -821 -434 -815T-506 -796T-577 -768T-632 -733T-659 -694T-645 -653Q-625
-635 -590 -608Q-560 -585 -510 -550T-385 -463Q-399 -477 -404 -490T-410 -516Q-410 -543 -389 -562T-336 -595T-263 -617T-185 -631T-116 -637T-70 -639Q-7 -639 38 -619T113 -565T162 -486T191 -391T204 -289T209 -188Q209 -175 210 -124T212 3T214 169T215
351T216 528T217 676Q217 800 198 854T127 909Q110 909 90 905T47 893Q81 917 118 942T194 987T273 1021T354 1034Q396 1034 428 1015T469 952Z" />
<glyph unicode="k" glyph-name="k" horiz-adv-x="1350" d="M412 111L172 -61Q176 199 180 406T186 774T191 1055T194 1259Q197 1458 197 1538Q200 1660 163 1728T47 1796Q22 1796 -5 1790T-63 1767Q-24 1795 19 1824T106 1878T196 1917T287 1933Q327 1933 355
1918T401 1879T430 1823T444 1757T450 1689T451 1626L428 770Q482 831 550 883T693 973T841 1028T981 1038Q1020 1033 1054 1016T1113 970T1152 904T1167 823Q1167 752 1134 696T1050 598T936 529T815 487Q842 458 878 419T957 339T1045 257T1137 184T1229 133T1315
113Q1395 113 1477 164Q1405 113 1351 73T1249 5T1154 -35T1049 -43Q990 -39 935 -5T828 77T730 177T641 272Q623 293 601 311Q582 326 556 341T496 362Q531 391 566 413T631 453Q665 472 698 487Q732 502 769 522T838 568T890 629T911 709Q911 746 899 781T863
844T809 888T739 905Q701 905 666 893T608 868Q588 857 557 805T494 659T440 428T412 111ZM1477 164L1487 172L1477 164Z" />
<glyph unicode="l" glyph-name="l" horiz-adv-x="729" d="M846 184Q746 115 678 71T560 0T469 -37T383 -47Q344 -47 308 -29T243 39T197 175T180 399Q180 534 183 682T189 979T196 1271T199 1538Q199 1660 162 1728T49 1796Q26 1796 -2 1790T-61 1767Q-22 1795
21 1824T108 1878T198 1917T289 1933Q346 1933 378 1905T426 1834T445 1743T449 1651Q448 1587 447 1497T443 1304T439 1089T435 872T432 669T428 500Q426 402 442 331T488 213T560 145T653 123Q745 123 846 184Z" />
<glyph unicode="m" glyph-name="m" horiz-adv-x="2150" d="M1231 709Q1228 650 1223 564Q1218 490 1212 379T1194 115L938 -55Q949 11 956 85T969 236T976 386T979 526Q979 588 974 649T947 758T883 836T766 866Q700 866 654 829T574 704T520 472T483 111L244
-61Q253 132 258 268T265 492Q268 595 268 662Q273 783 235 851T119 920Q94 920 67 913T8 891Q47 919 90 948T178 1002T268 1041T358 1057Q400 1057 434 1040T487 983Q503 948 510 903T520 803Q563 854 617 901T730 984T848 1039T958 1053Q994 1048 1033 1035T1108
997T1173 934T1217 838Q1260 884 1312 925T1418 997T1525 1042T1624 1053Q1669 1047 1717 1029T1806 971T1871 868T1894 709Q1891 596 1884 501T1876 334Q1876 291 1883 253T1909 187T1957 143T2032 127Q2072 127 2116 142T2206 190Q2132 125 2072 81T1959 10T1863
-28T1776 -39Q1734 -38 1704 -23T1656 25T1631 109T1626 236Q1629 302 1633 381T1638 539Q1638 603 1633 662T1606 767T1544 839T1432 866Q1393 866 1362 855T1307 824T1264 776T1231 715V709Z" />
<glyph unicode="n" glyph-name="n" horiz-adv-x="1563" d="M483 111L244 -61Q253 132 258 268T265 492Q268 595 268 662Q273 783 235 851T119 920Q94 920 67 913T8 891Q47 919 90 948T178 1002T268 1041T358 1057Q400 1057 434 1040T487 983Q503 949 509 907T518
815Q569 869 632 916T765 996T904 1045T1036 1053Q1081 1047 1129 1028T1218 970T1284 868T1307 709Q1304 597 1297 504T1290 338Q1290 295 1297 257T1321 190T1369 144T1444 127Q1484 127 1528 142T1618 190Q1545 125 1485 81T1372 10T1275 -28T1188 -39Q1146
-38 1116 -23T1068 25T1043 109T1038 236Q1041 302 1046 381T1051 539Q1051 628 1039 692T996 797T909 859T766 879Q703 879 659 855T586 788T541 691T516 573T504 445T500 318T495 204T483 111Z" />
<glyph unicode="o" glyph-name="o" horiz-adv-x="1425" d="M1331 582Q1331 499 1308 431T1253 312T1188 227T1135 178Q1077 136 1016 96T891 25T758 -26T618 -45Q511 -45 416 -18T249 63T136 199T94 391Q94 488 127 573T217 731T350 860T511 958T686 1019T860
1040Q964 1040 1050 1006T1199 910T1296 764T1331 582ZM641 924Q590 924 548 906T474 856T418 783T379 696T356 604T348 516Q348 423 382 343T475 202T614 108T784 74Q840 74 892 95T985 163T1050 283T1075 461Q1075 552 1041 636T948 784T810 886T641 924Z" />
<glyph unicode="p" glyph-name="p" horiz-adv-x="1497" d="M727 -715Q646 -777 581 -816T465 -879T373 -913T303 -924Q272 -926 253 -912T222 -873T207 -811T205 -731Q206 -714 206 -666T208 -546T209 -385T211 -198T213 4T215 206T216 396T218 560T219 685T221
758Q224 833 202 870T129 907Q110 907 88 902T39 887Q75 914 115 944T197 1001T284 1044T373 1061Q396 1061 417 1053T454 1025T479 972T489 887V819Q605 928 743 988T1040 1049Q1124 1049 1191 1014T1305 922T1378 791T1403 641Q1403 533 1362 447T1253 291T1102
169T934 74Q891 52 836 33T720 0T596 -25T475 -39Q472 -194 471 -345T469 -651Q471 -702 495 -731T571 -760Q632 -760 727 -715ZM770 121Q840 121 893 132T982 158Q1024 174 1055 195Q1073 211 1088 241T1115 310T1134 395T1141 492Q1141 576 1115 650T1041 781T923
870T768 903Q696 903 643 860T555 728T502 501T479 172Q564 143 636 132T770 121Z" />
<glyph unicode="q" glyph-name="q" horiz-adv-x="1415" d="M1495 -711Q1436 -745 1380 -780T1267 -845T1153 -894T1036 -913Q1004 -913 981 -901T958 -858V262Q903 207 841 157T713 70T578 10T440 -12Q356 -12 293 23T187 116T122 246T100 391Q100 495 127 578T201
727T314 845T455 935T615 1003T786 1057Q801 1059 822 1062Q840 1064 866 1065T928 1067Q983 1067 1059 1061T1233 1038Q1231 780 1230 572T1227 198T1225 -95T1224 -316T1223 -476T1223 -584V-696Q1223 -725 1247 -737T1309 -750Q1352 -750 1402 -738T1495 -711ZM961
897Q899 913 828 919T690 926Q603 926 538 910T430 850T366 727T344 522Q344 453 365 388T425 271T521 189T649 158Q720 158 772 179T862 237T923 323T961 428V897Z" />
<glyph unicode="r" glyph-name="r" horiz-adv-x="1157" d="M498 809Q545 854 600 899T713 980T829 1040T938 1063Q973 1063 1006 1056T1072 1039T1137 1022T1202 1014Q1222 1014 1244 1017T1294 1028Q1231 980 1184 945T1096 888T1015 855T924 846Q875 847 832
856T753 874T691 888T649 885Q613 867 586 819T541 705T511 562T494 408T488 262T492 141Q417 93 368 58T290 0Q256 -27 238 -47Q239 13 241 98T244 278T247 464T248 631Q248 678 246 726T229 815T186 880T102 905Q81 905 59 901T14 885Q56 913 98 942T182 994T267
1032T354 1047Q407 1047 436 1024T479 966T495 889T498 809Z" />
<glyph unicode="s" glyph-name="s" horiz-adv-x="1110" d="M1016 403Q1016 334 980 275T884 165T751 77T599 13T450 -25T324 -33Q277 -31 226 -19T135 12T76 51T74 92Q92 111 113 130T163 169T232 213T328 264Q310 236 319 215T352 178T412 150T482 132T545 122T586
119Q622 119 657 122T721 138T766 173T784 238Q784 288 757 323T685 381T585 419T476 442T373 458T293 473Q243 486 210 507T156 555T126 612T117 672Q117 739 153 796T247 899T378 980T527 1039T674 1075T797 1087Q857 1087 903 1081T979 1065Q1007 1056 1014
1042T1015 1010T986 971T936 928Q913 910 887 894Q864 880 836 866T778 840Q793 859 791 874T772 901T729 921T669 935T600 943T528 946Q494 946 460 944T399 931T355 898T338 838Q338 807 352 774T393 711T462 658T557 625Q599 617 650 613T752 603T850 586T935
553T994 495T1016 403Z" />
<glyph unicode="t" glyph-name="t" horiz-adv-x="1006" d="M1061 229Q983 166 907 116T760 32T623 -18T500 -31Q442 -27 394 -3T310 69T256 192T240 373Q241 430 244 508Q246 575 248 674T252 905Q231 903 201 900T135 890T61 870T-14 838Q16 857 46 877T102 914Q131
933 158 952Q185 966 206 1003Q224 1035 239 1094T254 1253Q324 1288 372 1317T450 1366Q485 1390 506 1407L502 1071Q528 1070 553 1070T597 1069H639Q725 1067 802 1071Q835 1072 869 1075T936 1082T995 1094T1042 1110Q988 1056 924 1019T789 959T646 923T500
907Q498 764 497 626T496 354Q497 310 518 271T576 203T665 157T778 139Q841 139 913 160T1061 229Z" />
<glyph unicode="u" glyph-name="u" horiz-adv-x="1626" d="M1657 184Q1582 129 1526 89T1422 24T1330 -12T1235 -20Q1196 -18 1169 -4T1123 38T1096 106T1083 203Q1026 154 965 112T839 40T704 -8T561 -25Q461 -25 397 5T296 89T244 218T229 383Q229 442 231 499T233
610Q233 673 229 728T211 823T172 887T104 911Q69 911 20 893Q57 922 97 952T180 1006T267 1045T358 1061Q400 1061 424 1041T462 990T479 920T483 844Q483 745 481 655T479 475Q480 397 497 337T550 234T645 171T788 152Q851 153 898 162T981 194T1041 255T1083
354Q1086 487 1091 607T1096 846Q1095 870 1084 887Q1075 901 1055 909T997 907Q1026 929 1062 956T1135 1007T1209 1047T1278 1063Q1312 1063 1336 1043T1360 985Q1360 964 1360 911T1358 786T1355 635T1353 482T1352 348T1352 258Q1354 201 1396 174T1501 147Q1538
147 1578 156T1657 184Z" />
<glyph unicode="v" glyph-name="v" horiz-adv-x="1272" d="M745 152L524 -47Q501 47 471 145T412 326Q379 421 344 512Q315 605 284 673T217 785T141 850T55 872Q3 872 -55 848Q-24 873 20 909T112 979T208 1037T297 1061Q325 1061 352 1048T403 1004Q421 980
447 937T504 837T565 716T625 581T677 441T715 305Q750 349 779 389T831 462Q857 499 877 532Q928 617 956 687T985 813Q985 841 977 865T950 907L1188 1065Q1206 1046 1213 1023T1221 975Q1221 924 1200 869T1145 755T1067 638T978 522T889 411T813 310T761 222T745
152Z" />
<glyph unicode="w" glyph-name="w" horiz-adv-x="1901" d="M1808 1094Q1822 1052 1831 1015T1841 938Q1841 909 1834 877T1811 806T1769 721T1702 618Q1635 523 1582 448T1490 312T1427 206T1393 123Q1359 104 1323 78Q1292 55 1255 21T1180 -59Q1190 -13 1180
42T1148 158T1094 281T1031 407T969 528T920 641Q880 581 834 516T749 384T682 256T653 139Q625 124 592 98Q563 76 525 41T444 -47Q436 50 418 145T380 319Q357 409 332 492Q305 576 275 647T210 772T136 855T51 885Q26 885 2 876T-51 848Q-17 881 24 918T112
988T206 1042T303 1063Q335 1063 362 1048T408 1001Q427 968 459 902T525 747T588 552T633 334Q681 397 723 466T797 607T847 754T866 903L1094 1085Q1089 1058 1092 1028T1102 971Q1109 940 1120 911Q1128 888 1147 847T1191 754T1245 641T1302 521T1354 405T1395
305Q1433 362 1471 422T1540 544T1590 668T1610 791Q1610 820 1605 850T1587 911Q1643 948 1684 981T1753 1040Q1786 1069 1808 1094Z" />
<glyph unicode="x" glyph-name="x" horiz-adv-x="1376" d="M1337 190Q1263 133 1205 92T1100 24T1013 -17T938 -35Q884 -41 842 -3T752 104Q741 119 723 146T680 210T628 290T569 381Q513 298 457 216T349 60T249 -75T162 -176Q104 -240 41 -297Q14 -322 -17 -347T-83
-397T-153 -441T-225 -477L-233 -403Q-181 -385 -134 -357T-49 -303Q-6 -272 31 -240Q79 -197 130 -133T235 10T343 176T451 356Q465 381 481 407T516 463Q481 516 448 567T385 664T332 744T293 801Q258 850 217 870T133 891Q101 891 69 881T8 852Q47 890 89 928T177
997T271 1047T371 1067Q402 1067 430 1057T483 1022Q497 1007 519 977T570 905T630 814T698 711Q757 781 823 846T958 960T1098 1039T1239 1069Q1267 1069 1294 1065T1352 1051Q1349 1049 1332 1041T1286 1013T1217 959T1124 872Q1089 897 1060 906T1008 915Q988
915 961 895T899 837T826 750T743 639Q777 585 810 533T872 434T925 351T967 291Q1013 222 1067 183T1188 143Q1256 143 1337 190Z" />
<glyph unicode="y" glyph-name="y" horiz-adv-x="1245" d="M1165 942Q1165 898 1154 841T1112 715T1028 565T891 393Q784 276 671 158T455 -69T268 -273T135 -442Q86 -515 60 -571T22 -668T11 -738T16 -786Q19 -798 17 -808T8 -827T-7 -839T-25 -844Q-37 -844
-49 -833T-68 -795Q-75 -764 -61 -712T-17 -598T56 -471T152 -346Q217 -274 300 -181T471 16Q460 88 441 181T395 372T334 564T257 731T166 850T61 895Q38 895 14 887T-35 864Q-6 892 31 927T109 992T193 1042T279 1063Q308 1063 333 1048T381 999Q402 965 439
900T520 741T606 530T680 272Q734 342 780 409T860 538T914 651T934 745Q934 782 927 811T905 860T869 888T819 891Q842 919 872 953T937 1016T1009 1065T1085 1085Q1112 1085 1128 1070T1152 1033T1162 986T1165 942Z" />
<glyph unicode="z" glyph-name="z" horiz-adv-x="1247" d="M1319 238Q1257 163 1182 106T1025 9T854 -50T676 -70Q604 -70 536 -61T402 -41T270 -21T137 -12Q102 -12 66 -15T-2 -27Q35 -9 70 16T137 70T197 131T249 193Q304 263 350 342Q396 424 450 507T559 664T668
801T766 905Q746 903 725 903T682 903Q596 903 516 913T356 924Q324 924 286 921T208 910T127 887T53 848Q111 907 170 953T294 1032T429 1081T580 1098Q640 1098 698 1092T814 1079T928 1065T1042 1059Q1058 1059 1074 1059T1106 1061Q1049 1040 1003 1006T923
938Q883 899 852 856Q829 823 796 772T723 661T635 533T538 401T436 275T332 166Q347 168 362 168T395 168Q467 168 535 160T670 141T803 122T936 113Q1006 113 1064 123T1169 150T1253 189T1319 238Z" />
<glyph unicode="{" glyph-name="braceleft" horiz-adv-x="989" d="M1032 2042Q1023 2043 1003 2024T959 1980T915 1936T885 1915Q803 1906 741 1886T635 1827T570 1732T545 1593Q543 1495 537 1400T509 1216T447 1050T336 911Q377 888 414 860T478 797T522 719T539
625Q539 583 534 541T523 457T511 373T504 289Q500 161 525 68T598 -86T714 -176T866 -205Q895 -205 927 -202T991 -190Q956 -197 924 -229T862 -298T802 -368T741 -410Q727 -413 712 -415T682 -418Q636 -418 586 -404T487 -364T394 -300T318 -216T267 -115T252
0Q253 31 255 73T260 161T264 256T266 350Q266 413 261 455T244 526T213 572T167 605T104 635T20 674Q23 673 42 689T89 729T145 779T197 823Q234 885 245 953T256 1094Q256 1145 254 1195T252 1296Q252 1376 281 1463T362 1633T482 1790T632 1921T799 2011T973
2044Q987 2044 1002 2044T1032 2042Z" />
<glyph unicode="|" glyph-name="bar" horiz-adv-x="610" d="M424 1761Q423 1674 423 1605T421 1482T420 1388T419 1319Q418 1251 418 1223Q417 1130 415 1018T409 784T401 537T393 295T384 73T377 -112T373 -242T371 -301Q344 -222 322 -140T283 22T252 178T229
321Q206 478 195 625Q182 825 175 988T165 1269T162 1454T162 1528Q162 1555 169 1571T190 1600T224 1622T268 1645Q298 1662 327 1681Q352 1698 378 1718T424 1761Z" />
<glyph unicode="}" glyph-name="braceright" horiz-adv-x="991" d="M973 954Q971 955 951 939T904 899T848 849T797 805Q760 743 749 675T737 535Q737 484 739 434T741 332Q741 252 712 166T631 -3T511 -162T363 -294T197 -384T25 -418Q9 -418 -6 -417T-39 -414Q-33
-415 -21 -406T5 -383T35 -353T65 -323T91 -300T109 -289Q179 -282 224 -271T301 -245T355 -210T399 -164Q424 -97 436 -26T456 118T467 264T483 410Q490 453 506 495T544 577T595 651T657 715Q616 739 579 767T515 831T471 909T455 1004Q455 1046 460 1087T471
1170T482 1253T489 1337Q493 1465 469 1558T397 1712T282 1802T131 1831Q100 1831 68 1828T2 1817Q38 1826 69 1858T131 1928T190 1997T252 2038Q266 2041 281 2043T311 2046Q357 2046 407 2032T507 1992T599 1928T675 1844T726 1743T741 1628Q739 1596 737 1555T733
1467T729 1372T727 1278Q727 1214 732 1172T749 1102T780 1057T826 1024T889 994T973 954Z" />
<glyph unicode="~" glyph-name="asciitilde" horiz-adv-x="1255" d="M1128 954Q1106 873 1076 799T1003 669T903 579T770 545Q720 545 672 569T578 622T493 678T422 711Q401 713 382 703Q365 695 347 675T315 614Q307 590 289 578T250 557T205 534T162 492Q176
527 195 570T241 656T302 740T379 813T476 864T594 883Q625 883 655 873T716 847T774 813T830 780T881 754T926 743Q952 743 971 762T1004 831Q1007 845 1014 852T1031 865T1053 876T1077 890T1103 914T1128 954Z" />
<glyph unicode="&#xa0;" glyph-name="nbspace" horiz-adv-x="610" />
<glyph unicode="&#xa1;" glyph-name="exclamdown" horiz-adv-x="651" d="M102 559Q178 618 234 650T328 700Q371 719 401 725Q449 731 468 703T485 608Q485 591 484 549T480 449T475 322T470 182T465 41T460 -85T456 -184T453 -242Q454 -265 466 -283Q476 -298
499 -309T567 -315Q507 -353 466 -379T398 -423Q366 -442 346 -455Q326 -467 305 -474T264 -481Q238 -481 222 -468T205 -426Q205 -414 206 -372T208 -267T211 -130T214 24T218 179T222 319T225 426T227 485Q228 506 216 523T184 550T143 563T102 559ZM47 936Q94
969 138 1000T221 1056T290 1095T338 1110Q354 1108 380 1094Q403 1082 439 1057T530 985L295 817Q238 865 193 889T115 924Q77 936 47 936Z" />
<glyph unicode="&#xa2;" glyph-name="cent" horiz-adv-x="1126" d="M1022 315Q992 277 948 242T852 175T744 118T633 76Q634 10 634 -32T635 -98V-139Q635 -151 625 -157T603 -164T582 -157T573 -135Q572 -112 572 -81Q571 -55 571 -19T571 61H567Q542 56 499
57T404 67T299 97T201 153T128 241T94 367Q90 467 132 554T245 713T407 839T594 928Q599 991 604 1053T616 1178Q616 1142 616 1111T617 1052T619 995T621 936Q682 956 742 966T856 977Q875 977 901 976T952 968T993 949T1010 913Q1010 899 1001 885T971 858Q954
847 928 830Q905 816 870 794T782 739Q800 760 792 777T759 808T698 829T621 840L629 229Q668 223 709 223Q777 223 854 245T1022 315ZM590 842H584Q519 842 473 820T399 758T357 667T344 557Q344 498 361 448T408 358T480 290T571 244Q571 374 576 527T590 842Z"
/>
<glyph unicode="&#xa3;" glyph-name="sterling" horiz-adv-x="1473" d="M938 928Q945 928 949 917T954 893T951 869T938 858Q890 856 832 854Q782 852 716 851T571 850H514Q514 830 514 810T512 770Q586 773 643 774T745 777T820 780T873 782Q923 784 938 784Q945
785 950 775T955 751T952 727T938 715Q910 714 875 713Q845 712 804 712T713 711Q668 711 617 711T512 713Q510 641 508 572T503 443T495 339T485 272Q480 254 469 234Q460 216 445 193T406 143Q475 141 555 132T720 112T893 95T1063 92Q1124 95 1182 106Q1232
115 1285 133T1376 182Q1246 54 1101 -14T784 -82Q710 -82 638 -74T496 -56T355 -38T215 -29Q183 -29 152 -29T92 -35Q128 -27 154 -4T197 42Q217 69 231 102Q240 129 246 193T255 344T261 530T266 729Q220 734 175 740T86 754L266 760Q268 785 268 809T268 856Q222
858 177 861T86 870L268 883Q271 974 274 1046T285 1157Q291 1199 315 1240T374 1318T455 1390T549 1455T648 1510T745 1554Q814 1582 883 1593T1018 1604Q1031 1604 1055 1604T1109 1602T1169 1596T1224 1583T1264 1562T1280 1530Q1280 1510 1264 1487T1223 1439T1168
1392T1109 1349T1057 1314T1022 1292Q1039 1306 1050 1322T1061 1356Q1061 1376 1045 1391T1002 1418T945 1436T883 1448T828 1454T791 1456Q724 1456 673 1446T606 1425Q592 1416 578 1399T553 1350T533 1273T522 1161Q519 1119 519 1051T516 899Q589 904 646
908T746 915T821 920T874 924Q924 928 938 928ZM82 -37Q86 -35 92 -35Q86 -35 82 -37Z" />
<glyph unicode="&#xa4;" glyph-name="currency" horiz-adv-x="877" d="M328 807Q320 760 327 724T353 664T404 627T475 614Q491 614 506 616T539 623Q557 674 543 712T495 774T417 806T328 807ZM825 1114Q801 1076 759 1019T657 893Q702 848 702 784Q702 750 690
721T655 668Q689 639 723 611T795 557Q789 558 774 546T740 515T698 475T657 435T624 406T604 399Q566 427 528 456T455 516Q426 501 398 492T344 483Q319 483 298 488T256 504Q205 466 154 432T51 369Q99 412 140 451T219 528Q197 548 185 575T172 637Q172 672
182 700T213 754Q176 796 142 837T76 926L174 1004Q192 1019 209 1033T240 1058T262 1076T270 1083Q334 992 410 907Q442 926 473 937T532 948Q542 948 552 947T571 944L573 948Q585 967 613 983T677 1018T752 1059T825 1114Z" />
<glyph unicode="&#xa5;" glyph-name="yen" horiz-adv-x="1626" d="M1292 715Q1300 716 1304 705T1309 681T1306 656T1290 645Q1251 643 1203 641Q1161 639 1106 638T983 635Q985 622 985 603T985 559Q1088 563 1149 565T1242 569Q1279 571 1292 571Q1301 572 1305
562T1310 538T1307 514T1292 502Q1258 500 1217 499Q1181 497 1132 497T1022 496H985Q985 436 985 349T981 141Q1021 129 1061 129Q1095 129 1126 136T1181 151T1220 166T1237 176Q1200 128 1147 86T1037 13T924 -35T827 -53Q774 -53 756 -30T737 35Q737 83 741
140T751 257T760 380T760 500Q664 505 566 514T375 537L760 551V569Q760 576 752 593T731 635Q641 637 550 641T373 653Q425 656 470 659T556 665T635 670T711 676Q686 722 653 780T582 900T506 1022T434 1133T375 1220T336 1270Q326 1279 311 1286Q298 1292 280
1297T236 1303Q205 1303 164 1291T72 1247Q110 1289 152 1328T240 1398T337 1446T444 1464Q478 1464 506 1456T551 1427Q564 1413 593 1369T659 1264T740 1129T826 981T904 838T965 717Q1024 772 1083 836T1189 969T1266 1111T1296 1257Q1296 1285 1287 1303T1260
1327Q1248 1329 1233 1326Q1220 1324 1204 1318T1167 1298Q1198 1329 1232 1364T1304 1428T1381 1477T1464 1497Q1490 1497 1508 1487T1532 1458Q1547 1410 1533 1353T1484 1233T1396 1103T1281 966T1150 828T1014 694Q1105 700 1160 704T1244 711Q1278 714 1292
715Z" />
<glyph unicode="&#xa6;" glyph-name="brokenbar" horiz-adv-x="600" d="M418 1761Q417 1674 417 1605T415 1482T414 1388T413 1319Q412 1251 412 1223Q412 1148 409 1062T401 879Q341 838 282 815T176 778Q168 938 164 1073T158 1307T156 1464T156 1528Q156 1555
163 1571T184 1600T217 1622T260 1645Q291 1662 320 1681Q345 1698 371 1718T418 1761ZM393 600Q389 491 386 385T379 181T373 -1T368 -149T365 -253T365 -301Q338 -234 317 -163T278 -19T247 122T224 255Q201 402 190 545Q244 553 294 567T393 600Z" />
<glyph unicode="&#xa7;" glyph-name="section" horiz-adv-x="1384" d="M420 -250Q337 -250 274 -234T169 -194T107 -146T88 -106Q90 -88 106 -67T156 -21T239 34T360 100Q331 72 334 49T363 6T429 -28T518 -52T611 -67T694 -72Q754 -72 814 -60T924 -19T1003 56T1034
168Q1034 207 1018 248T964 330T860 404T698 465Q550 504 449 545T286 633T201 737T182 864Q188 943 231 1010T346 1133Q251 1186 213 1251T182 1403Q188 1473 221 1532T313 1643T451 1738T631 1819Q719 1851 806 1863T971 1876Q1019 1876 1060 1873T1135 1864T1192
1853T1225 1843Q1243 1835 1243 1819T1229 1781T1193 1736T1141 1688Q1118 1669 1088 1647Q1062 1628 1025 1603T940 1548Q966 1571 976 1591T987 1628Q987 1644 979 1656T962 1676Q951 1686 938 1692Q896 1709 830 1721T692 1733Q639 1733 586 1722T490 1686T420
1621T393 1520Q393 1488 404 1455T440 1392T502 1336T592 1290Q637 1273 701 1255T837 1213T982 1162T1118 1098Q1193 1054 1225 996T1257 872Q1257 826 1244 785T1210 706T1159 636T1096 575Q1131 554 1160 529T1211 474T1245 409T1257 334Q1257 246 1214 169T1101
27T942 -89T759 -176T577 -231T420 -250ZM1034 709Q1034 748 1018 789T964 870T860 943T698 1004Q617 1025 550 1047T428 1092Q411 1067 402 1039T393 979Q393 947 404 915T440 853T502 797T592 752Q631 737 681 723T788 693T902 658T1014 616Q1023 638 1028 660T1034
709Z" />
<glyph unicode="&#xa8;" glyph-name="dieresis" horiz-adv-x="803" d="M803 1380L608 1243L457 1386L651 1522L803 1380ZM346 1380L152 1243L0 1386L195 1522L346 1380Z" />
<glyph unicode="&#xa9;" glyph-name="copyright" horiz-adv-x="1155" d="M780 543Q750 512 712 495T640 469Q600 459 561 457Q509 455 465 469T389 511T337 578T313 666Q307 758 353 820T487 926Q541 952 586 960T666 969Q668 969 682 968T713 965T747 958T775
948T785 934T766 915H768Q763 912 752 905Q742 899 725 887T678 856L666 872Q679 884 670 890T643 901T608 906T590 907Q559 907 529 902T479 887Q468 880 454 864T429 822T413 762T414 686Q421 644 441 614T488 565T547 535T610 522Q636 520 662 523Q685 525 712
532T766 557L780 543ZM1008 764Q1009 697 986 639T922 531T829 442T716 376T597 334T481 319Q407 319 346 348T241 427T172 539T147 672Q147 739 172 798T238 906T333 994T445 1060T562 1101T672 1116Q748 1116 809 1087T914 1009T982 897T1008 764ZM866 897Q845
938 816 965T751 1009T679 1033T604 1040Q529 1040 466 1014T356 941T284 831T258 692Q258 621 285 566T358 474T463 418T586 399Q650 399 706 422T806 489T874 599T899 748Q899 783 891 821T866 897Z" />
<glyph unicode="&#xaa;" glyph-name="ordfeminine" horiz-adv-x="1165" d="M506 905Q544 905 572 917T621 951T655 1002T678 1063V1327Q640 1335 603 1339T535 1343Q487 1343 452 1333T392 1297T356 1227T344 1112Q344 1074 355 1037T386 971T437 924T506 905ZM1020
918Q999 885 972 860T915 817T858 791T805 780Q791 779 770 780T728 791T693 823T678 885V930Q646 899 611 872T539 825T464 792T387 780Q336 780 297 803T231 862T192 943T178 1032Q178 1132 221 1209T335 1340T493 1422T670 1450Q701 1450 749 1447T862 1432Q856
1276 854 1180T852 1030Q852 1000 853 975T862 933T884 905T924 895Q944 895 969 901T1020 918ZM1012 612Q1000 612 983 602T946 575T905 541T864 506T825 480T793 469H178Q186 476 203 489T243 518T289 550T335 581T374 603T397 612H1012Z" />
<glyph unicode="&#xab;" glyph-name="guillemotleft" horiz-adv-x="1352" d="M692 254Q668 220 642 184Q619 153 590 116T528 41Q415 133 335 191T201 285Q139 325 98 346Q110 373 126 406Q140 435 159 473T205 559Q247 578 288 605T368 663T442 726T507 790Q577
863 639 942Q613 864 580 805T507 697T420 604T317 510Q429 445 524 382T692 254ZM1241 254Q1217 220 1191 184Q1168 153 1139 116T1077 41Q964 133 884 191T750 285Q688 325 647 346Q659 373 675 406Q689 435 708 473T754 559Q796 578 837 605T917 663T991 726T1056
790Q1126 863 1188 942Q1162 864 1129 805T1056 697T969 604T866 510Q978 445 1073 382T1241 254Z" />
<glyph unicode="&#xac;" glyph-name="logicalnot" horiz-adv-x="1569" d="M1444 844Q1404 806 1386 779T1362 731Q1354 709 1349 675T1342 600T1338 517T1337 436Q1337 409 1337 387T1338 347Q1338 328 1339 311L1098 174V403Q1098 448 1102 489T1117 568T1149
641T1204 709H162Q169 714 184 726T218 754T258 785T298 814T332 835T354 844H1444Z" />
<glyph unicode="&#xad;" glyph-name="uni00AD" horiz-adv-x="1253" d="M1110 612Q1101 612 1086 600T1054 571T1022 539T1001 518Q994 513 980 498T949 468T916 440T891 428H145Q171 450 193 469Q212 485 230 500T254 520Q261 526 275 541T306 572T339 600T365 612H1110Z" />
<glyph unicode="&#xae;" glyph-name="registered" horiz-adv-x="1116" d="M991 1094Q992 1027 969 968T905 860T812 772T700 705T581 664T465 649Q391 649 330 678T224 757T156 869T131 1001Q131 1068 154 1127T216 1235T307 1324T417 1390T537 1431T655 1446Q731
1446 792 1417T897 1339T965 1227T991 1094ZM575 846Q562 835 546 823T510 801T470 785T428 778Q413 778 398 787T383 823Q383 836 384 884Q384 904 385 933T386 1004T388 1099T391 1223Q367 1223 303 1229Q275 1185 259 1132T242 1022Q242 950 269 896T341 804T446
748T569 729Q623 729 672 746T762 795Q754 798 746 804T729 819Q716 829 689 854Q666 875 625 912T518 1012Q557 1024 580 1039T617 1069Q632 1085 637 1102Q645 1144 624 1179T563 1231Q549 1234 532 1234T494 1233L481 858Q491 853 505 853T533 856Q549 859 565
864L575 846ZM588 1370Q529 1370 478 1357T399 1325Q379 1313 360 1295T322 1255L391 1298Q411 1295 430 1294T465 1292Q483 1291 498 1292Q522 1295 545 1297T592 1300Q622 1300 650 1293T700 1270T735 1231T748 1176Q748 1144 723 1107T645 1038Q685 1000 716
974T770 929T810 899T836 881Q857 921 870 969T883 1077Q883 1144 861 1198T799 1290T705 1349T588 1370Z" />
<glyph unicode="&#xaf;" glyph-name="overscore" horiz-adv-x="915" d="M915 1462Q908 1461 895 1451T864 1426T826 1393T787 1360T751 1335T723 1325H0Q7 1326 20 1336T52 1362T90 1395T129 1427T166 1452T195 1462H915Z" />
<glyph unicode="&#xb0;" glyph-name="degree" horiz-adv-x="762" d="M655 1235Q655 1189 633 1151T575 1085Q549 1064 516 1038T445 988T370 950T297 934Q263 934 232 944T177 975T139 1023T125 1087Q125 1138 147 1175T207 1245Q232 1266 266 1292T337 1342T413
1382T485 1399Q519 1399 549 1386T603 1351T641 1299T655 1235ZM281 1257Q273 1210 280 1175T306 1115T357 1078T428 1065Q444 1065 459 1067T492 1073Q510 1124 496 1162T448 1225T370 1257T281 1257Z" />
<glyph unicode="&#xb1;" glyph-name="plusminus" horiz-adv-x="1198" d="M700 301Q700 296 693 288T675 271T651 251T625 232T604 217T592 207Q587 203 570 191T534 165T498 138T481 117V428H109Q135 450 157 469Q176 485 193 500T217 520Q224 526 238 541T269
572T302 600T328 612H481V739Q508 762 530 781Q549 798 566 812T590 831Q594 835 611 847T647 873T682 901T700 922V612H1071Q1062 610 1047 598T1015 569T985 538T965 518Q958 513 943 498T912 468T879 440T854 428H700V301ZM965 -2Q958 -7 943 -22T912 -52T879
-80T854 -92H109Q135 -69 157 -50Q176 -33 193 -18T217 2Q224 7 238 22T269 52T302 80T328 92H1071Q1062 90 1047 78T1015 49T985 18T965 -2Z" />
<glyph unicode="&#xb2;" glyph-name="twosuperior" horiz-adv-x="928" d="M762 623Q723 568 675 540T573 499T462 486T346 485Q322 485 299 485T253 484T204 479T147 471Q183 533 228 580T322 666T415 739T496 811T553 893T575 997Q575 1022 562 1044T528 1082T484
1108T438 1118Q414 1118 399 1110T376 1089T364 1057T360 1018Q360 1002 379 992T449 985Q407 950 381 930T337 900Q318 889 307 885Q272 871 246 875T207 918Q194 958 204 995T239 1066T300 1128T376 1176T455 1208T524 1221Q566 1222 602 1211T667 1178T711 1123T727
1049Q727 994 701 945T635 854T551 775T469 711Q437 685 406 658T346 598Q383 599 418 599T482 600H545Q592 601 626 601T685 604T728 611T762 623Z" />
<glyph unicode="&#xb3;" glyph-name="threesuperior" horiz-adv-x="942" d="M756 1208Q724 1185 697 1158T643 1104T589 1049T532 997Q581 991 623 974T695 929T743 863T760 776Q760 728 740 688T685 615T607 557T517 515T424 490T340 481Q314 481 281 486T220
503T172 531T152 569Q152 597 173 615T222 646T280 665T326 676Q315 667 312 660T310 648Q311 642 315 637H313Q320 629 339 621T385 607T441 596T500 592Q557 592 583 621T610 702Q610 741 596 774T557 831T500 869T430 883Q419 883 402 882T367 878T332 873T303
868Q304 867 319 883T363 930T431 1001T520 1090Q477 1088 421 1091T311 1094Q271 1094 235 1091T172 1077Q209 1142 266 1179T391 1217Q460 1217 520 1210T641 1202Q694 1202 756 1208Z" />
<glyph unicode="&#xb4;" glyph-name="acute" horiz-adv-x="481" d="M559 1681Q532 1645 507 1612Q486 1584 464 1556T428 1513Q365 1444 293 1395T158 1314Q85 1277 12 1253Q11 1256 11 1259Q11 1265 12 1266Q63 1307 95 1340T153 1404T201 1469T256 1544Q280
1568 316 1583T394 1612T479 1641T559 1681Z" />
<glyph unicode="&#xb5;" glyph-name="mu" horiz-adv-x="1782" d="M848 152Q912 153 960 162T1043 195T1103 259T1145 360Q1152 546 1153 663T1155 846Q1154 870 1143 887Q1134 901 1114 909T1057 907Q1086 929 1121 956T1194 1007T1268 1047T1337 1063Q1371 1063
1395 1043T1419 985Q1419 964 1419 911T1417 786T1414 635T1412 482T1411 348T1411 258Q1413 201 1456 174T1561 147Q1637 147 1716 184Q1642 129 1586 89T1482 24T1390 -12T1294 -20Q1216 -16 1183 38T1143 203Q1086 154 1025 112T898 40T763 -8T621 -25Q573 -25
539 -18Q539 -121 537 -223T532 -424Q457 -472 409 -507T331 -565Q297 -592 279 -612Q281 -409 282 -251T285 27T288 233T290 379T291 477T292 539T293 577T293 602Q293 668 289 724T270 822T230 887T162 911Q129 911 80 893Q117 922 157 952T239 1006T327 1045T418
1061Q455 1061 478 1045T515 1001T534 940T541 872T542 805T541 750Q541 677 539 604T541 464T560 339T609 239T700 174T848 152Z" />
<glyph unicode="&#xb6;" glyph-name="paragraph" horiz-adv-x="1731" d="M985 115Q985 106 966 89T923 53T876 19T848 -2Q842 -7 823 -21T784 -54T747 -88T729 -113V494Q680 472 626 461T510 449Q426 449 351 481T218 569T128 698T94 854Q94 915 113 966T165 1062T237
1145T319 1219Q321 1220 341 1236T392 1275T459 1324T531 1375T596 1416T641 1438Q698 1452 753 1455T864 1458H1651Q1639 1456 1619 1440T1579 1405T1541 1367T1516 1341Q1507 1334 1495 1320T1470 1290T1442 1264T1415 1253V115Q1415 106 1396 89T1353 53T1306
19T1278 -2Q1272 -7 1253 -21T1214 -54T1177 -88T1159 -113V1229Q1159 1240 1169 1257Q1126 1257 1080 1258T985 1260V668Q1020 674 1053 682T1118 702Q1083 687 1050 672T985 637V115ZM434 1239Q412 1217 394 1189T363 1127T343 1059T336 987Q336 900 370 840T461
742T587 683T729 655V1085Q729 1108 753 1130T810 1174T881 1217T946 1260H942Q874 1260 805 1259T670 1256T544 1249T434 1239Z" />
<glyph unicode="&#xb7;" glyph-name="middot" horiz-adv-x="707" d="M557 537Q518 509 481 483T412 437T354 404T313 391Q300 393 278 404Q259 414 229 435T154 498L350 635Q397 595 435 575T500 547Q532 537 557 537Z" />
<glyph unicode="&#xb8;" glyph-name="cedilla" horiz-adv-x="483" d="M467 68Q426 25 401 -1T359 -44T334 -69T318 -86T301 -103T276 -129Q279 -126 286 -124T301 -120T316 -117T330 -115Q359 -111 386 -114T435 -127T468 -154T481 -195Q481 -228 463 -262T416
-328T349 -390T274 -444T201 -486T141 -512Q122 -522 98 -528T52 -538Q26 -542 0 -545Q26 -500 51 -467T102 -414Q117 -426 139 -432T182 -439T221 -440T244 -434Q262 -422 275 -394T289 -334Q289 -306 278 -289T250 -263T211 -251T168 -248Q148 -248 127 -250T86
-258Q157 -184 208 -134T296 -52T355 -1T393 27Q398 30 410 36T436 50Q451 58 467 68Z" />
<glyph unicode="&#xb9;" glyph-name="onesuperior" horiz-adv-x="651" d="M502 600Q473 559 444 533T388 490T336 468T293 461Q275 461 265 468T251 489T245 521T244 563Q244 565 244 571T244 593T244 641T244 724T243 855T242 1044L158 1016V1047Q224 1095 269
1128T344 1181Q377 1205 399 1219Q399 1111 399 1026T399 875T398 763T398 682Q397 605 397 578Q403 576 416 578T446 583T477 591T502 600Z" />
<glyph unicode="&#xba;" glyph-name="ordmasculine" horiz-adv-x="1112" d="M938 1163Q938 1109 919 1060T866 967T789 889T697 829T597 790T500 776Q434 776 375 794T272 846T202 932T176 1049Q176 1107 197 1159T254 1255T337 1335T436 1396T542 1434T645 1448Q710
1448 764 1427T856 1367T916 1277T938 1163ZM514 1358Q470 1358 439 1335T387 1276T358 1199T348 1122Q348 1068 368 1022T423 942T503 888T600 868Q643 868 674 889T725 942T754 1014T764 1090Q764 1143 745 1191T691 1277T612 1336T514 1358ZM934 612Q922 612
905 602T868 575T827 541T786 506T747 480T715 469H176Q184 476 201 489T241 518T287 550T333 581T372 603T395 612H934Z" />
<glyph unicode="&#xbb;" glyph-name="guillemotright" horiz-adv-x="1350" d="M657 729Q681 763 707 799Q730 830 759 867T821 942Q933 850 1014 792T1148 698Q1210 658 1251 637Q1239 610 1223 577Q1209 548 1190 509T1145 424Q1102 404 1061 377T982 320T908
257T843 193Q773 120 711 41Q737 119 769 178T842 286T929 379T1032 473Q921 538 826 601T657 729ZM109 729Q132 763 158 799Q181 830 210 867T272 942Q384 850 465 792T599 698Q661 658 702 637Q690 610 674 577Q660 548 641 509T596 424Q553 404 512 377T433
320T359 257T294 193Q224 120 162 41Q188 119 220 178T293 286T380 379T483 473Q372 538 277 601T109 729Z" />
<glyph unicode="&#xbc;" glyph-name="onequarter" horiz-adv-x="1356" d="M1014 1335Q993 1214 947 1082T835 816T688 553T516 308T331 99T143 -59Q259 86 365 239T559 551T714 875T819 1210Q829 1229 851 1250T902 1289T959 1319T1014 1335ZM483 600Q455 559
426 533T370 490T318 468T274 461Q256 461 246 468T232 489T226 521T225 563Q225 565 225 571T225 593T225 641T225 724T224 855T223 1044L139 1016V1047Q205 1095 251 1128T326 1181Q359 1205 381 1219Q381 1111 381 1026T381 875T380 763T380 682Q379 605 379
578Q384 576 397 578T427 583T458 591T483 600ZM739 283Q817 280 874 277T963 274V498Q891 422 836 370T739 283ZM1264 291Q1259 265 1244 245T1209 211T1164 187T1116 172V119Q1116 109 1149 109Q1189 109 1233 129Q1200 84 1170 55T1113 9T1065 -16T1028 -25Q994
-27 978 -10T961 59V162Q889 164 839 165T752 168T690 169T645 170Q617 170 597 170T569 166L549 197Q570 215 604 248T679 323T763 410T844 498T911 575T954 633Q974 642 1000 655Q1022 666 1053 683T1122 723L1116 274Q1164 276 1202 279T1264 291Z" />
<glyph unicode="&#xbd;" glyph-name="onehalf" horiz-adv-x="1421" d="M1014 1335Q993 1214 947 1082T835 816T688 553T516 308T331 99T143 -59Q259 86 365 239T559 551T714 875T819 1210Q829 1229 851 1250T902 1289T959 1319T1014 1335ZM483 600Q455 559 426
533T370 490T318 468T274 461Q256 461 246 468T232 489T226 521T225 563Q225 565 225 571T225 593T225 641T225 724T224 855T223 1044L139 1016V1047Q205 1095 251 1128T326 1181Q359 1205 381 1219Q381 1111 381 1026T381 875T380 763T380 682Q379 605 379 578Q384
576 397 578T427 583T458 591T483 600ZM1329 123Q1290 68 1242 40T1140 0T1029 -13T913 -14Q889 -14 867 -14T821 -15T772 -20T715 -29Q751 33 796 80T889 166T982 239T1063 312T1121 394T1143 498Q1143 522 1130 544T1096 582T1052 608T1006 618Q982 618 967 610T943
589T931 557T928 518Q928 503 946 493T1016 485Q974 450 948 430T904 400Q885 389 874 385Q839 371 813 376T774 418Q761 458 771 495T806 566T867 628T944 676T1023 708T1092 721Q1133 722 1170 711T1234 678T1278 623T1294 549Q1294 494 1268 445T1203 354T1119
275T1036 211Q1004 185 973 158T913 98Q950 99 986 99T1050 100H1112Q1159 101 1193 101T1252 104T1295 111T1329 123Z" />
<glyph unicode="&#xbe;" glyph-name="threequarters" horiz-adv-x="1565" d="M1223 1335Q1202 1214 1156 1082T1044 816T897 553T725 308T540 99T352 -59Q468 86 574 239T768 551T923 875T1028 1210Q1038 1229 1060 1250T1111 1289T1168 1319T1223 1335ZM948 283Q1026
280 1082 277T1171 274V498Q1100 422 1044 370T948 283ZM1473 291Q1468 265 1453 245T1417 211T1372 187T1325 172V119Q1325 109 1358 109Q1376 109 1397 113T1442 129Q1409 84 1379 55T1322 9T1274 -16T1237 -25Q1203 -27 1186 -10T1169 59V162Q1098 164 1047
165T960 168T899 169T854 170Q826 170 806 170T778 166L758 197Q779 215 813 248T888 323T972 410T1053 498T1120 575T1163 633Q1183 642 1209 655Q1231 666 1262 683T1331 723L1325 274Q1373 276 1411 279T1473 291ZM727 1208Q695 1185 668 1158T614 1104T561
1049T504 997Q553 991 594 974T666 929T714 863T731 776Q731 728 711 688T656 615T578 557T488 515T395 490T311 481Q285 481 253 486T191 503T143 531T123 569Q123 597 144 615T193 646T251 665T297 676Q286 667 284 660T282 648Q283 642 287 637H285Q292 629
311 621T356 607T412 596T471 592Q528 592 555 621T582 702Q582 741 568 774T529 831T471 869T401 883Q390 883 374 882T339 878T303 873T274 868Q275 867 290 883T334 930T402 1001T492 1090Q448 1088 393 1091T283 1094Q242 1094 206 1091T143 1077Q181 1142
237 1179T362 1217Q434 1217 496 1210T621 1202Q671 1202 727 1208Z" />
<glyph unicode="&#xbf;" glyph-name="questiondown" horiz-adv-x="1196" d="M78 -180Q78 -122 103 -68T169 37T263 134T370 220T477 296T569 360Q598 381 600 400T587 437T543 468T486 493T430 508T391 514Q373 514 353 513T311 506Q352 533 394 562T479 616T566
656T657 672Q684 672 718 665T782 643T833 605T854 551Q854 526 836 498T776 442Q734 413 684 381T582 313T483 237T397 151T338 57T315 -47Q315 -118 350 -168T440 -251T559 -298T680 -313Q720 -313 754 -306T813 -282T852 -238T866 -168Q866 -140 859 -111T836
-56T795 -10T735 20Q795 56 837 80T909 120Q942 138 965 147Q1006 161 1035 148T1082 108T1108 46T1116 -20Q1116 -46 1112 -73T1096 -126T1067 -176T1020 -221Q952 -271 881 -315T735 -394T582 -447T422 -467Q353 -467 291 -450T181 -397T106 -307T78 -180ZM358
963Q405 996 449 1027T533 1083T602 1122T651 1137Q666 1135 692 1121Q715 1109 751 1084T842 1012L606 844Q550 892 505 916T427 951Q388 963 358 963Z" />
<glyph unicode="&#xc0;" glyph-name="Agrave" horiz-adv-x="1610" d="M1331 670Q1311 651 1288 632T1239 592Q1264 531 1288 476T1334 374T1375 292T1409 236Q1430 207 1456 185Q1479 166 1509 151T1577 135Q1614 135 1657 160Q1621 122 1581 86T1496 20T1404
-27T1306 -45Q1268 -45 1236 -23T1173 57Q1162 75 1144 114T1103 208T1051 329T993 469Q930 450 857 439T698 428H403L321 236Q314 217 312 198T315 162T338 136T391 125Q411 125 436 129T493 141Q437 88 396 51T318 -9T243 -42T156 -53Q127 -53 115 -39T102 0Q102
32 118 78T160 180Q181 231 242 369Q268 428 305 512T393 710T509 974T659 1311L706 1350Q706 1381 711 1404T725 1444T748 1476T776 1503Q794 1518 819 1538Q861 1572 942 1640Q930 1617 926 1589T921 1532Q921 1503 924 1477T931 1430Q935 1406 942 1386Q953
1350 980 1272T1044 1093T1126 876T1214 651Q1243 655 1265 659T1302 665Q1319 668 1331 670ZM735 1159Q664 1004 601 869T481 600Q615 603 727 609T930 623Q898 701 869 778T814 926T768 1056T735 1159ZM832 1676Q825 1670 810 1658T776 1630T736 1599T695 1569T660
1547T637 1538Q543 1598 467 1678T338 1856Q338 1858 351 1869T385 1895T429 1927T475 1958T513 1981T533 1991Q535 1991 544 1977T565 1944T587 1910T600 1889Q648 1826 705 1770T832 1676Z" />
<glyph unicode="&#xc1;" glyph-name="Aacute" horiz-adv-x="1616" d="M1331 670Q1311 651 1288 632T1239 592Q1264 531 1288 476T1334 374T1375 292T1409 236Q1430 207 1456 185Q1479 166 1509 151T1577 135Q1614 135 1657 160Q1621 122 1581 86T1496 20T1404
-27T1306 -45Q1268 -45 1236 -23T1173 57Q1162 75 1144 114T1103 208T1051 329T993 469Q930 450 857 439T698 428H403L321 236Q314 217 312 198T315 162T338 136T391 125Q411 125 436 129T493 141Q437 88 396 51T318 -9T243 -42T156 -53Q127 -53 115 -39T102 0Q102
32 118 78T160 180Q181 231 242 369Q268 428 305 512T393 710T509 974T659 1311L706 1350Q706 1381 711 1404T725 1444T748 1476T776 1503Q794 1518 819 1538Q861 1572 942 1640Q930 1617 926 1589T921 1532Q921 1503 924 1477T931 1430Q935 1406 942 1386Q953
1350 980 1272T1044 1093T1126 876T1214 651Q1243 655 1265 659T1302 665Q1319 668 1331 670ZM735 1159Q664 1004 601 869T481 600Q615 603 727 609T930 623Q898 701 869 778T814 926T768 1056T735 1159ZM1296 2043Q1269 2007 1244 1974Q1223 1946 1201 1918T1165
1875Q1102 1806 1030 1757T895 1676Q822 1639 749 1615Q748 1618 748 1621Q748 1627 749 1628Q800 1669 832 1702T890 1766T938 1831T993 1906Q1017 1930 1053 1945T1131 1974T1216 2003T1296 2043Z" />
<glyph unicode="&#xc2;" glyph-name="Acircumflex" horiz-adv-x="1616" d="M1331 670Q1311 651 1288 632T1239 592Q1264 531 1288 476T1334 374T1375 292T1409 236Q1430 207 1456 185Q1479 166 1509 151T1577 135Q1614 135 1657 160Q1621 122 1581 86T1496 20T1404
-27T1306 -45Q1268 -45 1236 -23T1173 57Q1162 75 1144 114T1103 208T1051 329T993 469Q930 450 857 439T698 428H403L321 236Q314 217 312 198T315 162T338 136T391 125Q411 125 436 129T493 141Q437 88 396 51T318 -9T243 -42T156 -53Q127 -53 115 -39T102 0Q102
32 118 78T160 180Q181 231 242 369Q268 428 305 512T393 710T509 974T659 1311L706 1350Q706 1381 711 1404T725 1444T748 1476T776 1503Q794 1518 819 1538Q861 1572 942 1640Q930 1617 926 1589T921 1532Q921 1503 924 1477T931 1430Q935 1406 942 1386Q953
1350 980 1272T1044 1093T1126 876T1214 651Q1243 655 1265 659T1302 665Q1319 668 1331 670ZM735 1159Q664 1004 601 869T481 600Q615 603 727 609T930 623Q898 701 869 778T814 926T768 1056T735 1159ZM1201 1710Q1191 1701 1173 1685T1129 1648T1074 1608T1010
1572Q1002 1587 985 1610T946 1657T904 1700T867 1726Q838 1703 806 1683T741 1647T679 1619T625 1599L539 1576Q614 1626 678 1683T789 1814Q834 1851 878 1882T977 1947Q999 1935 1024 1915T1073 1872T1119 1823T1159 1775T1187 1735T1201 1710Z" />
<glyph unicode="&#xc3;" glyph-name="Atilde" horiz-adv-x="1604" d="M1325 670Q1305 651 1282 632T1233 592Q1258 531 1282 476T1328 374T1369 292T1403 236Q1424 207 1450 185Q1473 166 1503 151T1571 135Q1608 135 1651 160Q1615 122 1575 86T1490 20T1398
-27T1300 -45Q1262 -45 1230 -23T1167 57Q1156 75 1138 114T1097 208T1045 329T987 469Q924 450 851 439T692 428H397L315 236Q308 217 306 198T309 162T332 136T385 125Q405 125 430 129T487 141Q431 88 390 51T312 -9T237 -42T150 -53Q121 -53 109 -39T96 0Q96
32 112 78T154 180Q175 231 236 369Q262 428 299 512T387 710T503 974T653 1311L700 1350Q700 1381 705 1404T719 1444T742 1476T770 1503Q788 1518 813 1538Q855 1572 936 1640Q924 1617 920 1589T915 1532Q915 1503 918 1477T925 1430Q929 1406 936 1386Q947
1350 974 1272T1038 1093T1120 876T1208 651Q1237 655 1259 659T1296 665Q1313 668 1325 670ZM729 1159Q658 1004 595 869T475 600Q609 603 721 609T924 623Q892 701 863 778T808 926T762 1056T729 1159ZM1291 1909Q1264 1877 1223 1836T1129 1758T1014 1696T883
1670Q829 1670 796 1689T734 1731T673 1773T590 1792Q578 1792 563 1787T529 1772T492 1751T455 1727Q412 1699 365 1663Q416 1737 480 1796Q507 1821 540 1845T612 1888T693 1918T783 1930Q810 1930 833 1921T877 1898T919 1868T964 1838T1018 1815T1086 1805Q1113
1805 1139 1816T1191 1844T1242 1878T1291 1909Z" />
<glyph unicode="&#xc4;" glyph-name="Adieresis" horiz-adv-x="1616" d="M1331 670Q1311 651 1288 632T1239 592Q1264 531 1288 476T1334 374T1375 292T1409 236Q1430 207 1456 185Q1479 166 1509 151T1577 135Q1614 135 1657 160Q1621 122 1581 86T1496 20T1404
-27T1306 -45Q1268 -45 1236 -23T1173 57Q1162 75 1144 114T1103 208T1051 329T993 469Q930 450 857 439T698 428H403L321 236Q314 217 312 198T315 162T338 136T391 125Q411 125 436 129T493 141Q437 88 396 51T318 -9T243 -42T156 -53Q127 -53 115 -39T102 0Q102
32 118 78T160 180Q181 231 242 369Q268 428 305 512T393 710T509 974T659 1311L706 1350Q706 1381 711 1404T725 1444T748 1476T776 1503Q794 1518 819 1538Q861 1572 942 1640Q930 1617 926 1589T921 1532Q921 1503 924 1477T931 1430Q935 1406 942 1386Q953
1350 980 1272T1044 1093T1126 876T1214 651Q1243 655 1265 659T1302 665Q1319 668 1331 670ZM735 1159Q664 1004 601 869T481 600Q615 603 727 609T930 623Q898 701 869 778T814 926T768 1056T735 1159ZM1237 1714L1042 1577L891 1720L1085 1856L1237 1714ZM780
1714L586 1577L434 1720L629 1856L780 1714Z" />
<glyph unicode="&#xc5;" glyph-name="Aring" horiz-adv-x="1622" d="M1190 1767Q1190 1727 1168 1685T1109 1602T1026 1526T932 1466Q934 1449 937 1435T942 1409Q945 1397 948 1386Q959 1350 986 1272T1050 1093T1132 876T1221 651Q1250 655 1272 659T1308 665Q1325
668 1337 670Q1317 651 1294 632T1245 592Q1270 531 1294 476T1341 374T1381 292T1415 236Q1436 207 1462 185Q1485 166 1515 151T1583 135Q1620 135 1663 160Q1627 122 1587 86T1502 20T1411 -27T1313 -45Q1275 -45 1243 -23T1180 57Q1169 75 1151 114T1109 208T1057
329T999 469Q936 450 863 439T705 428H410L328 236Q321 217 318 198T321 162T344 136T397 125Q417 125 442 129T500 141Q444 88 403 51T324 -9T249 -42T162 -53Q133 -53 121 -39T109 0Q109 32 125 78T166 180Q187 231 248 369Q274 428 311 512T399 710T516 974T666
1311L713 1350Q713 1404 727 1436Q695 1444 669 1460T622 1500T591 1554T580 1620Q580 1659 599 1700T649 1780T722 1854T807 1915T896 1957T979 1972Q1021 1972 1059 1956T1127 1912T1173 1847T1190 1767ZM741 1159Q716 1104 697 1061T663 988Q646 953 633 926Q602
857 564 772T487 600Q622 603 733 609T936 623Q904 701 875 778T820 926T774 1056T741 1159ZM995 1630Q995 1665 983 1699T948 1760T896 1807T831 1833Q811 1837 800 1837T783 1831T776 1812T774 1776Q774 1731 789 1692T832 1624T898 1578T981 1559Q987 1576 991
1594T995 1630Z" />
<glyph unicode="&#xc6;" glyph-name="AE" horiz-adv-x="2537" d="M2187 1249Q2211 1268 2209 1285T2194 1315Q2180 1330 2154 1343Q2106 1366 2031 1376T1870 1386Q1749 1386 1642 1364T1451 1284T1313 1123T1245 860Q1307 858 1367 858T1487 858Q1557 858 1645
861T1824 869T2003 879T2162 887T2281 891T2339 887Q2351 881 2344 868T2315 837T2262 799T2195 761T2125 727T2060 702Q2083 741 2069 757T1989 774Q1960 774 1936 773T1881 770T1804 764T1685 755T1504 742T1241 725Q1245 563 1296 450T1437 264T1650 153T1923
102Q2009 98 2093 110Q2129 115 2168 124T2247 147T2325 183T2396 233Q2322 170 2242 119T2076 30T1902 -28T1726 -49Q1664 -49 1596 -41T1460 -14T1326 35T1205 111T1104 216T1034 356L985 471Q922 451 848 440T686 428H391L309 236Q302 217 300 198T303 162T326
136T379 125Q399 125 424 129T481 141Q425 88 384 51T305 -9T230 -42T143 -53Q114 -53 102 -39T90 0Q90 32 106 78T147 180Q169 231 230 369Q256 428 293 512T381 710T497 974T647 1311L694 1350Q694 1381 699 1404T713 1444T736 1476T764 1503Q782 1518 807 1538Q849
1572 930 1640Q917 1617 913 1589T909 1532Q909 1466 929 1386T977 1225T1037 1070T1090 940Q1135 1034 1200 1113T1344 1257T1514 1370T1703 1452T1903 1501T2105 1518Q2161 1518 2208 1513T2293 1501T2358 1486T2400 1470Q2445 1450 2445 1423Q2445 1407 2429
1389T2387 1353T2331 1319T2272 1288T2220 1264T2187 1249ZM723 1161Q688 1083 655 1011T590 869T528 734T469 600Q606 603 718 609T924 623Q892 702 862 780T805 928T757 1058T723 1161Z" />
<glyph unicode="&#xc7;" glyph-name="Ccedilla" horiz-adv-x="1563" d="M1524 188Q1474 138 1415 101T1295 37T1174 -9T1061 -39T964 -57T895 -66L834 -129Q840 -123 858 -120T887 -115Q916 -111 943 -114T992 -127T1025 -154T1038 -195Q1038 -228 1020 -262T973
-328T906 -390T831 -444T758 -486T698 -512Q679 -522 655 -528T609 -538Q583 -542 557 -545Q583 -500 608 -467T659 -414Q674 -426 696 -432T739 -439T778 -440T801 -434Q819 -422 832 -394T846 -334Q846 -306 835 -289T807 -263T768 -251T725 -248Q705 -248 684
-250T643 -258L827 -66Q663 -60 531 -9T307 132T165 350T115 635Q115 768 163 882T294 1089T484 1254T711 1375T952 1449T1186 1475Q1219 1475 1257 1474T1333 1468T1404 1457T1460 1436T1492 1405T1489 1360Q1475 1351 1442 1329Q1413 1310 1361 1276T1221 1186Q1241
1200 1250 1214T1260 1241Q1260 1263 1241 1280T1191 1309T1124 1328T1053 1340T991 1346T950 1348Q658 1348 509 1199T360 758Q360 604 410 483T548 276T757 138T1020 74Q1099 69 1184 80Q1257 89 1346 113T1524 188ZM1210 1180L1221 1186L1210 1180Z" />
<glyph unicode="&#xc8;" glyph-name="Egrave" horiz-adv-x="1649" d="M1298 1249Q1322 1268 1320 1285T1306 1315Q1292 1330 1266 1343Q1218 1366 1142 1376T981 1386Q860 1386 753 1364T562 1284T424 1123T356 860Q418 858 478 858T598 858Q669 858 756 861T935
869T1115 879T1274 887T1392 891T1450 887Q1462 881 1455 868T1426 837T1373 799T1306 761T1236 727T1171 702Q1194 741 1180 757T1100 774Q1071 774 1047 773T992 770T915 764T796 755T615 742T352 725Q357 563 408 450T549 264T761 153T1034 102Q1120 98 1204
110Q1240 115 1279 124T1358 147T1436 183T1507 233Q1433 170 1353 119T1187 30T1013 -28T838 -49Q762 -49 678 -37T511 5T354 83T225 204T140 375T117 602Q124 751 173 877T303 1104T488 1283T712 1413T961 1491T1217 1518Q1273 1518 1320 1513T1404 1501T1469
1486T1511 1470Q1556 1450 1556 1423Q1556 1407 1540 1389T1498 1353T1442 1319T1383 1288T1331 1264T1298 1249ZM893 1637Q886 1631 871 1619T837 1591T797 1560T756 1530T721 1508T698 1499Q604 1559 528 1639T399 1817Q399 1819 412 1830T446 1856T490 1888T536
1919T574 1942T594 1952Q596 1952 605 1938T626 1905T648 1871T661 1850Q709 1787 766 1731T893 1637Z" />
<glyph unicode="&#xc9;" glyph-name="Eacute" horiz-adv-x="1649" d="M1298 1249Q1322 1268 1320 1285T1306 1315Q1292 1330 1266 1343Q1218 1366 1142 1376T981 1386Q860 1386 753 1364T562 1284T424 1123T356 860Q418 858 478 858T598 858Q669 858 756 861T935
869T1115 879T1274 887T1392 891T1450 887Q1462 881 1455 868T1426 837T1373 799T1306 761T1236 727T1171 702Q1194 741 1180 757T1100 774Q1071 774 1047 773T992 770T915 764T796 755T615 742T352 725Q357 563 408 450T549 264T761 153T1034 102Q1120 98 1204
110Q1240 115 1279 124T1358 147T1436 183T1507 233Q1433 170 1353 119T1187 30T1013 -28T838 -49Q762 -49 678 -37T511 5T354 83T225 204T140 375T117 602Q124 751 173 877T303 1104T488 1283T712 1413T961 1491T1217 1518Q1273 1518 1320 1513T1404 1501T1469
1486T1511 1470Q1556 1450 1556 1423Q1556 1407 1540 1389T1498 1353T1442 1319T1383 1288T1331 1264T1298 1249ZM1319 1957Q1292 1921 1267 1888Q1246 1860 1224 1832T1188 1789Q1125 1720 1053 1671T918 1590Q845 1553 772 1529Q771 1532 771 1535Q771 1541 772
1542Q823 1583 855 1616T913 1680T961 1745T1016 1820Q1040 1844 1076 1859T1154 1888T1239 1917T1319 1957Z" />
<glyph unicode="&#xca;" glyph-name="Ecircumflex" horiz-adv-x="1649" d="M1298 1249Q1322 1268 1320 1285T1306 1315Q1292 1330 1266 1343Q1218 1366 1142 1376T981 1386Q860 1386 753 1364T562 1284T424 1123T356 860Q418 858 478 858T598 858Q669 858 756
861T935 869T1115 879T1274 887T1392 891T1450 887Q1462 881 1455 868T1426 837T1373 799T1306 761T1236 727T1171 702Q1194 741 1180 757T1100 774Q1071 774 1047 773T992 770T915 764T796 755T615 742T352 725Q357 563 408 450T549 264T761 153T1034 102Q1120
98 1204 110Q1240 115 1279 124T1358 147T1436 183T1507 233Q1433 170 1353 119T1187 30T1013 -28T838 -49Q762 -49 678 -37T511 5T354 83T225 204T140 375T117 602Q124 751 173 877T303 1104T488 1283T712 1413T961 1491T1217 1518Q1273 1518 1320 1513T1404 1501T1469
1486T1511 1470Q1556 1450 1556 1423Q1556 1407 1540 1389T1498 1353T1442 1319T1383 1288T1331 1264T1298 1249ZM1166 1676Q1156 1667 1138 1651T1094 1614T1039 1574T975 1538Q967 1553 950 1576T911 1623T869 1666T832 1692Q803 1669 771 1649T706 1613T644
1585T590 1565L504 1542Q579 1592 643 1649T754 1780Q799 1817 843 1848T942 1913Q964 1901 989 1881T1038 1838T1084 1789T1124 1741T1152 1701T1166 1676Z" />
<glyph unicode="&#xcb;" glyph-name="Edieresis" horiz-adv-x="1649" d="M1298 1249Q1322 1268 1320 1285T1306 1315Q1292 1330 1266 1343Q1218 1366 1142 1376T981 1386Q860 1386 753 1364T562 1284T424 1123T356 860Q418 858 478 858T598 858Q669 858 756 861T935
869T1115 879T1274 887T1392 891T1450 887Q1462 881 1455 868T1426 837T1373 799T1306 761T1236 727T1171 702Q1194 741 1180 757T1100 774Q1071 774 1047 773T992 770T915 764T796 755T615 742T352 725Q357 563 408 450T549 264T761 153T1034 102Q1120 98 1204
110Q1240 115 1279 124T1358 147T1436 183T1507 233Q1433 170 1353 119T1187 30T1013 -28T838 -49Q762 -49 678 -37T511 5T354 83T225 204T140 375T117 602Q124 751 173 877T303 1104T488 1283T712 1413T961 1491T1217 1518Q1273 1518 1320 1513T1404 1501T1469
1486T1511 1470Q1556 1450 1556 1423Q1556 1407 1540 1389T1498 1353T1442 1319T1383 1288T1331 1264T1298 1249ZM1237 1699L1042 1562L891 1705L1085 1841L1237 1699ZM780 1699L586 1562L434 1705L629 1841L780 1699Z" />
<glyph unicode="&#xcc;" glyph-name="Igrave" horiz-adv-x="831" d="M838 131Q779 91 722 58T613 -1T514 -41T428 -61Q389 -65 360 -65T310 -51T280 -10T270 68Q270 93 270 154T271 301T273 488T275 694T277 897T279 1077T281 1213T283 1284Q284 1319 254 1333T178
1348Q141 1348 102 1341T25 1325Q76 1359 125 1387T225 1437T328 1469T436 1481Q458 1481 477 1479T511 1471T534 1456T543 1434Q543 1395 542 1245Q542 1181 542 1086T541 857T540 544T539 137Q593 126 637 123T717 119Q746 119 768 121T807 125Q825 128 838 131ZM470
1672Q463 1666 448 1654T414 1626T374 1595T333 1565T298 1543T275 1534Q181 1594 105 1674T-24 1852Q-24 1854 -11 1865T23 1891T67 1923T113 1954T151 1977T171 1987Q173 1987 182 1973T203 1940T225 1906T238 1885Q286 1822 343 1766T470 1672Z" />
<glyph unicode="&#xcd;" glyph-name="Iacute" horiz-adv-x="831" d="M838 131Q779 91 722 58T613 -1T514 -41T428 -61Q389 -65 360 -65T310 -51T280 -10T270 68Q270 93 270 154T271 301T273 488T275 694T277 897T279 1077T281 1213T283 1284Q284 1319 254 1333T178
1348Q141 1348 102 1341T25 1325Q76 1359 125 1387T225 1437T328 1469T436 1481Q458 1481 477 1479T511 1471T534 1456T543 1434Q543 1395 542 1245Q542 1181 542 1086T541 857T540 544T539 137Q593 126 637 123T717 119Q746 119 768 121T807 125Q825 128 838 131ZM850
1955Q823 1919 798 1886Q777 1858 755 1830T719 1787Q656 1718 584 1669T449 1588Q376 1551 303 1527Q302 1530 302 1533Q302 1539 303 1540Q354 1581 386 1614T444 1678T492 1743T547 1818Q571 1842 607 1857T685 1886T770 1915T850 1955Z" />
<glyph unicode="&#xce;" glyph-name="Icircumflex" horiz-adv-x="831" d="M838 131Q779 91 722 58T613 -1T514 -41T428 -61Q389 -65 360 -65T310 -51T280 -10T270 68Q270 93 270 154T271 301T273 488T275 694T277 897T279 1077T281 1213T283 1284Q284 1319 254
1333T178 1348Q141 1348 102 1341T25 1325Q76 1359 125 1387T225 1437T328 1469T436 1481Q458 1481 477 1479T511 1471T534 1456T543 1434Q543 1395 542 1245Q542 1181 542 1086T541 857T540 544T539 137Q593 126 637 123T717 119Q746 119 768 121T807 125Q825
128 838 131ZM762 1667Q752 1658 734 1642T690 1605T635 1565T571 1529Q563 1544 546 1567T507 1614T465 1657T428 1683Q399 1660 367 1640T302 1604T240 1576T186 1556L100 1533Q175 1583 239 1640T350 1771Q395 1808 439 1839T538 1904Q560 1892 585 1872T634
1829T680 1780T720 1732T748 1692T762 1667Z" />
<glyph unicode="&#xcf;" glyph-name="Idieresis" horiz-adv-x="831" d="M838 131Q779 91 722 58T613 -1T514 -41T428 -61Q389 -65 360 -65T310 -51T280 -10T270 68Q270 93 270 154T271 301T273 488T275 694T277 897T279 1077T281 1213T283 1284Q284 1319 254 1333T178
1348Q141 1348 102 1341T25 1325Q76 1359 125 1387T225 1437T328 1469T436 1481Q458 1481 477 1479T511 1471T534 1456T543 1434Q543 1395 542 1245Q542 1181 542 1086T541 857T540 544T539 137Q593 126 637 123T717 119Q746 119 768 121T807 125Q825 128 838 131ZM832
1673L637 1536L486 1679L680 1815L832 1673ZM375 1673L181 1536L29 1679L224 1815L375 1673Z" />
<glyph unicode="&#xd0;" glyph-name="Eth" horiz-adv-x="1786" d="M670 -78Q602 -78 506 -72T285 -47L307 592H0Q8 598 25 614T65 651T111 694T157 734T195 764T219 776H313L332 1300Q300 1298 271 1298T217 1298Q195 1298 177 1298T143 1300L395 1434Q499 1433
564 1435T670 1442T737 1450T789 1459T850 1465T946 1468Q1115 1468 1249 1423T1477 1290T1621 1073T1671 776Q1671 647 1627 534T1508 326T1334 156T1123 29T895 -50T670 -78ZM895 68Q962 68 1008 72T1084 83Q1118 89 1139 98Q1182 119 1231 165T1320 282T1388
444T1415 649Q1415 797 1372 922T1249 1138T1055 1280T797 1331Q732 1331 681 1325T580 1315L561 776H963Q940 768 911 738T851 676T792 618T745 592H553L537 98Q651 81 739 75T895 68Z" />
<glyph unicode="&#xd1;" glyph-name="Ntilde" horiz-adv-x="1882" d="M1722 1511Q1708 1504 1701 1492T1689 1468Q1685 1454 1683 1438Q1682 1427 1681 1386T1677 1283T1672 1143T1666 982T1661 816T1656 660T1652 530T1649 440Q1647 376 1643 336T1632 268T1615
222T1593 182Q1584 163 1566 129Q1550 100 1523 52T1452 -70Q1437 -26 1405 22T1338 112Q1298 160 1253 207Q1200 260 1088 370Q1040 417 975 480T824 628T630 818T389 1055Q387 933 386 835T383 660T381 525T380 425Q379 327 379 285Q378 253 385 227T407 181T446
150T504 139Q538 139 582 150T682 188Q633 140 590 105T508 45T437 4T378 -21Q316 -43 270 -39Q232 -31 221 -9T209 55Q209 370 220 680T231 1298Q231 1345 231 1376T229 1421Q237 1447 262 1480Q283 1509 322 1549T430 1640Q422 1619 419 1599T416 1561Q416 1532
421 1510T435 1471Q444 1453 455 1438Q489 1396 543 1340T668 1214T826 1058T1010 872Q1080 806 1158 729Q1225 663 1310 575T1485 385Q1487 569 1488 703T1489 936Q1489 1027 1489 1086T1487 1182Q1486 1223 1485 1247Q1485 1281 1475 1304T1450 1340T1414 1358T1374
1364Q1351 1364 1330 1359T1298 1346Q1340 1382 1381 1413T1464 1468T1553 1504T1653 1518Q1688 1518 1722 1511ZM1430 1716Q1403 1684 1362 1643T1268 1565T1153 1503T1022 1477Q968 1477 935 1496T873 1538T812 1580T729 1599Q717 1599 702 1594T668 1579T631
1558T594 1534Q551 1506 504 1470Q555 1544 619 1603Q646 1628 679 1652T751 1695T832 1725T922 1737Q949 1737 972 1728T1016 1705T1058 1675T1103 1645T1157 1622T1225 1612Q1252 1612 1278 1623T1330 1651T1381 1685T1430 1716Z" />
<glyph unicode="&#xd2;" glyph-name="Ograve" horiz-adv-x="1911" d="M2053 788Q2053 654 2008 540T1885 333T1707 167T1495 46T1270 -28T1052 -53Q900 -53 775 -3T559 138T420 352T370 623Q370 752 415 866T538 1076T718 1248T935 1376T1169 1457T1400 1485Q1500
1485 1587 1460T1746 1388T1876 1277T1972 1135T2032 969T2053 788ZM1152 1352Q1022 1352 926 1305T765 1176T670 988T638 760Q638 609 691 483T836 266T1055 125T1328 74Q1408 74 1473 100T1589 170T1677 274T1739 401T1775 538T1787 676Q1787 817 1741 940T1611
1154T1410 1299T1152 1352ZM969 1622Q962 1616 947 1604T913 1576T873 1545T832 1515T797 1493T774 1484Q680 1544 604 1624T475 1802Q475 1804 488 1815T522 1841T566 1873T612 1904T650 1927T670 1937Q672 1937 681 1923T702 1890T724 1856T737 1835Q785 1772
842 1716T969 1622Z" />
<glyph unicode="&#xd3;" glyph-name="Oacute" horiz-adv-x="1913" d="M1798 788Q1798 654 1753 540T1630 333T1452 167T1240 46T1015 -28T797 -53Q645 -53 520 -3T304 138T165 352T115 623Q115 752 160 866T283 1076T463 1248T680 1376T914 1457T1145 1485Q1245
1485 1332 1460T1491 1388T1621 1277T1717 1135T1777 969T1798 788ZM897 1352Q767 1352 671 1305T510 1176T415 988T383 760Q383 609 436 483T581 266T800 125T1073 74Q1153 74 1218 100T1334 170T1422 274T1484 401T1520 538T1532 676Q1532 817 1486 940T1356
1154T1155 1299T897 1352ZM1345 1933Q1318 1897 1293 1864Q1272 1836 1250 1808T1214 1765Q1151 1696 1079 1647T944 1566Q871 1529 798 1505Q797 1508 797 1511Q797 1517 798 1518Q849 1559 881 1592T939 1656T987 1721T1042 1796Q1066 1820 1102 1835T1180 1864T1265
1893T1345 1933Z" />
<glyph unicode="&#xd4;" glyph-name="Ocircumflex" horiz-adv-x="1913" d="M1798 788Q1798 654 1753 540T1630 333T1452 167T1240 46T1015 -28T797 -53Q645 -53 520 -3T304 138T165 352T115 623Q115 752 160 866T283 1076T463 1248T680 1376T914 1457T1145 1485Q1245
1485 1332 1460T1491 1388T1621 1277T1717 1135T1777 969T1798 788ZM897 1352Q767 1352 671 1305T510 1176T415 988T383 760Q383 609 436 483T581 266T800 125T1073 74Q1153 74 1218 100T1334 170T1422 274T1484 401T1520 538T1532 676Q1532 817 1486 940T1356
1154T1155 1299T897 1352ZM1287 1680Q1277 1671 1259 1655T1215 1618T1160 1578T1096 1542Q1088 1557 1071 1580T1032 1627T990 1670T953 1696Q924 1673 892 1653T827 1617T765 1589T711 1569L625 1546Q700 1596 764 1653T875 1784Q920 1821 964 1852T1063 1917Q1085
1905 1110 1885T1159 1842T1205 1793T1245 1745T1273 1705T1287 1680Z" />
<glyph unicode="&#xd5;" glyph-name="Otilde" horiz-adv-x="1913" d="M1798 788Q1798 654 1753 540T1630 333T1452 167T1240 46T1015 -28T797 -53Q645 -53 520 -3T304 138T165 352T115 623Q115 752 160 866T283 1076T463 1248T680 1376T914 1457T1145 1485Q1245
1485 1332 1460T1491 1388T1621 1277T1717 1135T1777 969T1798 788ZM897 1352Q767 1352 671 1305T510 1176T415 988T383 760Q383 609 436 483T581 266T800 125T1073 74Q1153 74 1218 100T1334 170T1422 274T1484 401T1520 538T1532 676Q1532 817 1486 940T1356
1154T1155 1299T897 1352ZM1420 1802Q1393 1770 1352 1729T1258 1651T1143 1589T1012 1563Q958 1563 925 1582T863 1624T802 1666T719 1685Q707 1685 692 1680T658 1665T621 1644T584 1620Q541 1592 494 1556Q545 1630 609 1689Q636 1714 669 1738T741 1781T822
1811T912 1823Q939 1823 962 1814T1006 1791T1048 1761T1093 1731T1147 1708T1215 1698Q1242 1698 1268 1709T1320 1737T1371 1771T1420 1802Z" />
<glyph unicode="&#xd6;" glyph-name="Odieresis" horiz-adv-x="1913" d="M1798 788Q1798 654 1753 540T1630 333T1452 167T1240 46T1015 -28T797 -53Q645 -53 520 -3T304 138T165 352T115 623Q115 752 160 866T283 1076T463 1248T680 1376T914 1457T1145 1485Q1245
1485 1332 1460T1491 1388T1621 1277T1717 1135T1777 969T1798 788ZM897 1352Q767 1352 671 1305T510 1176T415 988T383 760Q383 609 436 483T581 266T800 125T1073 74Q1153 74 1218 100T1334 170T1422 274T1484 401T1520 538T1532 676Q1532 817 1486 940T1356
1154T1155 1299T897 1352ZM1358 1685L1163 1548L1012 1691L1206 1827L1358 1685ZM901 1685L707 1548L555 1691L750 1827L901 1685Z" />
<glyph unicode="&#xd7;" glyph-name="multiply" horiz-adv-x="1065" d="M920 854Q903 827 876 790T813 707T734 612T639 508Q699 451 761 399T889 297Q883 298 868 286T834 255T792 215T751 175T718 146T698 139Q635 186 576 234T461 336Q386 271 307 213T145
109Q230 184 296 250T418 377Q350 445 289 516T170 666L268 744Q286 759 304 773T335 798T357 816T365 823Q414 754 468 690T582 565Q602 593 618 615T646 654Q659 672 668 688Q679 707 707 723T771 758T846 799T920 854Z" />
<glyph unicode="&#xd8;" glyph-name="Oslash" horiz-adv-x="1915" d="M1571 1677Q1561 1644 1547 1602Q1534 1566 1515 1515T1470 1401Q1548 1356 1609 1291T1712 1147T1777 976T1800 788Q1800 654 1755 540T1632 333T1454 167T1242 46T1017 -28T799 -53Q664 -53
549 -12Q499 -59 449 -103T344 -190Q389 -141 431 -94T512 0Q420 37 347 98T223 240T145 417T117 623Q117 758 168 880T307 1105T510 1285T752 1409Q781 1419 823 1432T917 1457T1027 1477T1147 1485Q1159 1485 1171 1484T1198 1483Q1208 1501 1230 1513T1283 1537T1350
1560T1425 1587T1500 1624T1571 1677ZM899 1352Q769 1352 673 1305T512 1176T417 988T385 760Q385 669 404 587T460 434T547 303T664 199Q791 378 879 540T1025 843T1115 1097T1163 1294Q1104 1322 1038 1337T899 1352ZM1075 74Q1155 74 1220 100T1336 170T1424
274T1486 401T1522 538T1534 676Q1534 815 1489 936T1362 1149Q1311 1041 1246 920T1101 672T926 417T719 164Q796 119 885 97T1075 74Z" />
<glyph unicode="&#xd9;" glyph-name="Ugrave" horiz-adv-x="1747" d="M1638 1434Q1637 1421 1635 1381T1627 1281T1613 1148T1592 994T1564 832T1528 675T1482 535T1425 424Q1362 332 1284 250T1120 105T948 3T782 -43Q704 -49 627 -31T486 37T377 168T315 373Q305
454 298 547T287 736T281 921T278 1086T276 1213T274 1284Q268 1348 186 1348Q154 1348 110 1337T8 1300Q56 1345 102 1382T197 1447T299 1489T414 1505Q435 1505 453 1502T485 1493T507 1476T514 1450Q513 1435 513 1394T514 1293T517 1161T521 1011T525 857T530
712T535 590T539 504Q545 396 583 322T678 201T803 134T936 113Q995 113 1044 127T1128 166Q1166 194 1198 264T1256 429T1303 636T1341 861T1370 1081T1391 1270Q1392 1290 1381 1306Q1372 1320 1352 1331T1290 1343Q1269 1343 1243 1340T1182 1327Q1226 1361
1269 1391T1357 1444T1448 1480T1546 1493Q1588 1493 1614 1481T1638 1434ZM998 1600Q991 1594 976 1582T942 1554T902 1523T861 1493T826 1471T803 1462Q709 1522 633 1602T504 1780Q504 1782 517 1793T551 1819T595 1851T641 1882T679 1905T699 1915Q701 1915
710 1901T731 1868T753 1834T766 1813Q814 1750 871 1694T998 1600Z" />
<glyph unicode="&#xda;" glyph-name="Uacute" horiz-adv-x="1747" d="M1638 1434Q1637 1421 1635 1381T1627 1281T1613 1148T1592 994T1564 832T1528 675T1482 535T1425 424Q1362 332 1284 250T1120 105T948 3T782 -43Q704 -49 627 -31T486 37T377 168T315 373Q305
454 298 547T287 736T281 921T278 1086T276 1213T274 1284Q268 1348 186 1348Q154 1348 110 1337T8 1300Q56 1345 102 1382T197 1447T299 1489T414 1505Q435 1505 453 1502T485 1493T507 1476T514 1450Q513 1435 513 1394T514 1293T517 1161T521 1011T525 857T530
712T535 590T539 504Q545 396 583 322T678 201T803 134T936 113Q995 113 1044 127T1128 166Q1166 194 1198 264T1256 429T1303 636T1341 861T1370 1081T1391 1270Q1392 1290 1381 1306Q1372 1320 1352 1331T1290 1343Q1269 1343 1243 1340T1182 1327Q1226 1361
1269 1391T1357 1444T1448 1480T1546 1493Q1588 1493 1614 1481T1638 1434ZM1421 1884Q1394 1848 1369 1815Q1348 1787 1326 1759T1290 1716Q1227 1647 1155 1598T1020 1517Q947 1480 874 1456Q873 1459 873 1462Q873 1468 874 1469Q925 1510 957 1543T1015 1607T1063
1672T1118 1747Q1142 1771 1178 1786T1256 1815T1341 1844T1421 1884Z" />
<glyph unicode="&#xdb;" glyph-name="Ucircumflex" horiz-adv-x="1747" d="M1638 1434Q1637 1421 1635 1381T1627 1281T1613 1148T1592 994T1564 832T1528 675T1482 535T1425 424Q1362 332 1284 250T1120 105T948 3T782 -43Q704 -49 627 -31T486 37T377 168T315
373Q305 454 298 547T287 736T281 921T278 1086T276 1213T274 1284Q268 1348 186 1348Q154 1348 110 1337T8 1300Q56 1345 102 1382T197 1447T299 1489T414 1505Q435 1505 453 1502T485 1493T507 1476T514 1450Q513 1435 513 1394T514 1293T517 1161T521 1011T525
857T530 712T535 590T539 504Q545 396 583 322T678 201T803 134T936 113Q995 113 1044 127T1128 166Q1166 194 1198 264T1256 429T1303 636T1341 861T1370 1081T1391 1270Q1392 1290 1381 1306Q1372 1320 1352 1331T1290 1343Q1269 1343 1243 1340T1182 1327Q1226
1361 1269 1391T1357 1444T1448 1480T1546 1493Q1588 1493 1614 1481T1638 1434ZM1256 1614Q1246 1605 1228 1589T1184 1552T1129 1512T1065 1476Q1057 1491 1040 1514T1001 1561T959 1604T922 1630Q893 1607 861 1587T796 1551T734 1523T680 1503L594 1480Q669
1530 733 1587T844 1718Q889 1755 933 1786T1032 1851Q1054 1839 1079 1819T1128 1776T1174 1727T1214 1679T1242 1639T1256 1614Z" />
<glyph unicode="&#xdc;" glyph-name="Udieresis" horiz-adv-x="1747" d="M1638 1434Q1637 1421 1635 1381T1627 1281T1613 1148T1592 994T1564 832T1528 675T1482 535T1425 424Q1362 332 1284 250T1120 105T948 3T782 -43Q704 -49 627 -31T486 37T377 168T315
373Q305 454 298 547T287 736T281 921T278 1086T276 1213T274 1284Q268 1348 186 1348Q154 1348 110 1337T8 1300Q56 1345 102 1382T197 1447T299 1489T414 1505Q435 1505 453 1502T485 1493T507 1476T514 1450Q513 1435 513 1394T514 1293T517 1161T521 1011T525
857T530 712T535 590T539 504Q545 396 583 322T678 201T803 134T936 113Q995 113 1044 127T1128 166Q1166 194 1198 264T1256 429T1303 636T1341 861T1370 1081T1391 1270Q1392 1290 1381 1306Q1372 1320 1352 1331T1290 1343Q1269 1343 1243 1340T1182 1327Q1226
1361 1269 1391T1357 1444T1448 1480T1546 1493Q1588 1493 1614 1481T1638 1434ZM1350 1636L1155 1499L1004 1642L1198 1778L1350 1636ZM893 1636L699 1499L547 1642L742 1778L893 1636Z" />
<glyph unicode="&#xdd;" glyph-name="Yacute" horiz-adv-x="1485" d="M1352 1481Q1367 1431 1352 1371T1298 1245T1203 1108T1081 966T944 823T803 686Q803 679 803 667T804 636T804 587T805 518Q805 458 805 372T801 164Q840 152 881 152Q915 152 946 159T1001
174T1040 189T1057 199Q1020 150 967 108T856 35T743 -13T647 -31Q593 -31 575 -8T557 57Q557 88 558 133T563 230T568 336T574 440T578 528T580 590Q580 600 565 632T523 712T464 817T394 935T320 1053T251 1160T194 1243T156 1290Q145 1299 130 1306Q117 1312
98 1317T53 1323Q22 1323 -18 1312T-109 1270Q-70 1312 -28 1351T60 1420T157 1469T264 1487Q298 1487 326 1479T371 1450Q384 1436 413 1392T479 1286T560 1151T645 1003T723 859T784 737Q843 792 902 856T1009 991T1086 1134T1116 1280Q1116 1338 1079 1348Q1067
1350 1052 1348Q1039 1346 1023 1340T987 1321Q1018 1351 1052 1386T1124 1450T1202 1500T1286 1520Q1312 1520 1328 1510T1352 1481ZM1261 1812Q1234 1776 1209 1743Q1188 1715 1166 1687T1130 1644Q1067 1575 995 1526T860 1445Q787 1408 714 1384Q713 1387 713
1390Q713 1396 714 1397Q765 1438 797 1471T855 1535T903 1600T958 1675Q982 1699 1018 1714T1096 1743T1181 1772T1261 1812Z" />
<glyph unicode="&#xde;" glyph-name="Thorn" horiz-adv-x="1425" d="M836 8Q717 -73 611 -125T426 -186Q387 -190 358 -189T308 -175T278 -134T268 -57Q268 -35 268 23T268 163T269 346T270 554T272 770T274 977Q222 972 172 967T70 958L276 1090Q276 1144 276
1190T277 1272T279 1331T281 1364Q282 1399 252 1413T176 1427Q141 1427 101 1421T23 1405Q74 1439 123 1467T222 1517T323 1549T432 1561Q453 1561 473 1559T508 1551T532 1536T541 1513Q540 1483 540 1429Q539 1383 539 1306T539 1114Q639 1117 733 1127T922
1137Q972 1137 1026 1130T1133 1108T1231 1068T1313 1008T1368 927T1389 821Q1389 754 1358 690T1276 567T1159 460T1023 374T882 315T754 291L725 309Q804 323 877 356T1005 441T1094 560T1128 709Q1128 766 1108 810T1055 888T977 944T884 981T785 1002T690 1008Q652
1008 614 1006T539 1001Q538 916 538 815T537 592T537 326T537 12Q589 3 632 0T711 -4Q742 -4 765 -2T804 2Q822 5 836 8Z" />
<glyph unicode="&#xdf;" glyph-name="germandbls" horiz-adv-x="1628" d="M1384 1489Q1384 1429 1364 1379T1309 1286T1232 1205T1145 1131T1057 1060T980 985T926 902T905 805Q905 773 918 744T959 690T1027 647T1122 618Q1164 610 1215 604T1317 589T1415 564T1500
523T1559 459T1581 365Q1581 296 1545 236T1449 127T1316 39T1164 -26T1015 -64T889 -72Q842 -70 791 -58T700 -27T641 12T639 53Q657 72 678 91T728 130T797 174T893 225Q875 197 884 176T917 139T977 111T1047 93T1110 83T1151 80Q1187 80 1222 83T1286 99T1332
134T1350 199Q1350 249 1322 286T1250 351T1151 396T1041 428T938 450T858 467Q808 480 775 501T721 549T691 606T682 666Q682 726 716 776T801 875T911 975T1022 1087T1107 1224T1141 1399Q1141 1482 1113 1553T1033 1676T913 1758T762 1788Q717 1788 682 1769T620
1717T574 1643T542 1559T522 1473T512 1397Q510 1370 509 1308T506 1161T503 971T501 753T500 524T499 297T499 89T498 -85T498 -211T498 -272Q498 -301 505 -317T527 -340T563 -347T612 -346Q635 -344 664 -338Q689 -333 724 -324T805 -297Q760 -339 708 -378T599
-446T485 -492T369 -510Q318 -510 292 -489T256 -435T245 -363T244 -289Q244 -213 244 -120T244 76T243 289T243 506T242 717T242 911Q195 911 144 912T35 918Q74 942 106 965T164 1015T210 1072T246 1139Q252 1232 269 1319T315 1485Q336 1541 375 1593T464 1691T572
1775T692 1839T816 1881T934 1896Q1024 1896 1105 1865T1249 1780T1347 1651T1384 1489Z" />
<glyph unicode="&#xe0;" glyph-name="agrave" horiz-adv-x="1448" d="M1491 154Q1449 112 1401 78T1303 18T1208 -22T1124 -39Q1103 -41 1070 -39T1007 -21T954 26T932 117V236Q877 182 816 133T691 45T560 -16T430 -39Q348 -39 286 -3T182 92T119 222T98 365Q98
418 106 469T126 567T155 650T190 711Q223 756 274 798T385 877T514 944T649 996T781 1030T899 1042Q955 1042 1031 1037T1204 1014Q1200 899 1197 811T1192 654T1189 527T1188 416Q1188 361 1186 308T1194 213T1233 145T1325 119Q1362 119 1404 128T1491 154ZM934
870Q874 886 806 892T676 899Q642 899 612 897T556 892T512 885T483 874Q465 865 441 831T395 745T358 630T342 498Q342 433 361 368T416 250T506 166T629 133Q694 133 744 154T831 211T892 297T932 403Q932 445 932 492T932 597T932 721T934 870ZM775 1218Q768
1212 753 1200T719 1172T679 1141T638 1111T603 1089T580 1080Q486 1140 410 1220T281 1398Q281 1400 294 1411T328 1437T372 1469T418 1500T456 1523T476 1533Q478 1533 487 1519T508 1486T530 1452T543 1431Q591 1368 648 1312T775 1218Z" />
<glyph unicode="&#xe1;" glyph-name="aacute" horiz-adv-x="1448" d="M1491 154Q1449 112 1401 78T1303 18T1208 -22T1124 -39Q1103 -41 1070 -39T1007 -21T954 26T932 117V236Q877 182 816 133T691 45T560 -16T430 -39Q348 -39 286 -3T182 92T119 222T98 365Q98
418 106 469T126 567T155 650T190 711Q223 756 274 798T385 877T514 944T649 996T781 1030T899 1042Q955 1042 1031 1037T1204 1014Q1200 899 1197 811T1192 654T1189 527T1188 416Q1188 361 1186 308T1194 213T1233 145T1325 119Q1362 119 1404 128T1491 154ZM934
870Q874 886 806 892T676 899Q642 899 612 897T556 892T512 885T483 874Q465 865 441 831T395 745T358 630T342 498Q342 433 361 368T416 250T506 166T629 133Q694 133 744 154T831 211T892 297T932 403Q932 445 932 492T932 597T932 721T934 870ZM1067 1494Q1040
1458 1015 1425Q994 1397 972 1369T936 1326Q873 1257 801 1208T666 1127Q593 1090 520 1066Q519 1069 519 1072Q519 1078 520 1079Q571 1120 603 1153T661 1217T709 1282T764 1357Q788 1381 824 1396T902 1425T987 1454T1067 1494Z" />
<glyph unicode="&#xe2;" glyph-name="acircumflex" horiz-adv-x="1448" d="M1491 154Q1449 112 1401 78T1303 18T1208 -22T1124 -39Q1103 -41 1070 -39T1007 -21T954 26T932 117V236Q877 182 816 133T691 45T560 -16T430 -39Q348 -39 286 -3T182 92T119 222T98
365Q98 418 106 469T126 567T155 650T190 711Q223 756 274 798T385 877T514 944T649 996T781 1030T899 1042Q955 1042 1031 1037T1204 1014Q1200 899 1197 811T1192 654T1189 527T1188 416Q1188 361 1186 308T1194 213T1233 145T1325 119Q1362 119 1404 128T1491
154ZM934 870Q874 886 806 892T676 899Q642 899 612 897T556 892T512 885T483 874Q465 865 441 831T395 745T358 630T342 498Q342 433 361 368T416 250T506 166T629 133Q694 133 744 154T831 211T892 297T932 403Q932 445 932 492T932 597T932 721T934 870ZM1125
1261Q1115 1252 1097 1236T1053 1199T998 1159T934 1123Q926 1138 909 1161T870 1208T828 1251T791 1277Q762 1254 730 1234T665 1198T603 1170T549 1150L463 1127Q538 1177 602 1234T713 1365Q758 1402 802 1433T901 1498Q923 1486 948 1466T997 1423T1043 1374T1083
1326T1111 1286T1125 1261Z" />
<glyph unicode="&#xe3;" glyph-name="atilde" horiz-adv-x="1448" d="M1491 154Q1449 112 1401 78T1303 18T1208 -22T1124 -39Q1103 -41 1070 -39T1007 -21T954 26T932 117V236Q877 182 816 133T691 45T560 -16T430 -39Q348 -39 286 -3T182 92T119 222T98 365Q98
418 106 469T126 567T155 650T190 711Q223 756 274 798T385 877T514 944T649 996T781 1030T899 1042Q955 1042 1031 1037T1204 1014Q1200 899 1197 811T1192 654T1189 527T1188 416Q1188 361 1186 308T1194 213T1233 145T1325 119Q1362 119 1404 128T1491 154ZM934
870Q874 886 806 892T676 899Q642 899 612 897T556 892T512 885T483 874Q465 865 441 831T395 745T358 630T342 498Q342 433 361 368T416 250T506 166T629 133Q694 133 744 154T831 211T892 297T932 403Q932 445 932 492T932 597T932 721T934 870ZM1256 1387Q1229
1355 1188 1314T1094 1236T979 1174T848 1148Q794 1148 761 1167T699 1209T638 1251T555 1270Q543 1270 528 1265T494 1250T457 1229T420 1205Q377 1177 330 1141Q381 1215 445 1274Q472 1299 505 1323T577 1366T658 1396T748 1408Q775 1408 798 1399T842 1376T884
1346T929 1316T983 1293T1051 1283Q1078 1283 1104 1294T1156 1322T1207 1356T1256 1387Z" />
<glyph unicode="&#xe4;" glyph-name="adieresis" horiz-adv-x="1448" d="M1491 154Q1449 112 1401 78T1303 18T1208 -22T1124 -39Q1103 -41 1070 -39T1007 -21T954 26T932 117V236Q877 182 816 133T691 45T560 -16T430 -39Q348 -39 286 -3T182 92T119 222T98 365Q98
418 106 469T126 567T155 650T190 711Q223 756 274 798T385 877T514 944T649 996T781 1030T899 1042Q955 1042 1031 1037T1204 1014Q1200 899 1197 811T1192 654T1189 527T1188 416Q1188 361 1186 308T1194 213T1233 145T1325 119Q1362 119 1404 128T1491 154ZM934
870Q874 886 806 892T676 899Q642 899 612 897T556 892T512 885T483 874Q465 865 441 831T395 745T358 630T342 498Q342 433 361 368T416 250T506 166T629 133Q694 133 744 154T831 211T892 297T932 403Q932 445 932 492T932 597T932 721T934 870ZM1194 1270L999
1133L848 1276L1042 1412L1194 1270ZM737 1270L543 1133L391 1276L586 1412L737 1270Z" />
<glyph unicode="&#xe5;" glyph-name="aring" horiz-adv-x="1448" d="M1491 154Q1449 112 1401 78T1303 18T1208 -22T1124 -39Q1103 -41 1070 -39T1007 -21T954 26T932 117V236Q877 182 816 133T691 45T560 -16T430 -39Q348 -39 286 -3T182 92T119 222T98 365Q98
418 106 469T126 567T155 650T190 711Q223 756 274 798T385 877T514 944T649 996T781 1030T899 1042Q955 1042 1031 1037T1204 1014Q1200 899 1197 811T1192 654T1189 527T1188 416Q1188 361 1186 308T1194 213T1233 145T1325 119Q1362 119 1404 128T1491 154ZM934
870Q874 886 806 892T676 899Q642 899 612 897T556 892T512 885T483 874Q465 865 441 831T395 745T358 630T342 498Q342 433 361 368T416 250T506 166T629 133Q694 133 744 154T831 211T892 297T932 403Q932 445 932 492T932 597T932 721T934 870ZM1097 1438Q1097
1401 1078 1362T1027 1285T954 1213T868 1154T781 1113T700 1098Q658 1098 619 1111T551 1150T505 1210T487 1291Q487 1330 506 1371T556 1451T629 1525T714 1586T803 1628T886 1643Q928 1643 966 1627T1034 1583T1080 1518T1097 1438ZM903 1301Q903 1336 891 1370T856
1431T803 1478T739 1504Q719 1508 708 1508T691 1502T684 1483T682 1447Q682 1402 697 1363T740 1295T805 1248T888 1229Q895 1246 899 1265T903 1301Z" />
<glyph unicode="&#xe6;" glyph-name="ae" horiz-adv-x="2003" d="M426 -39Q344 -39 282 -3T178 92T115 222T94 365Q94 469 135 559T244 725T397 860T572 959T745 1021T895 1042Q951 1042 1036 1037T1219 1014Q1212 977 1207 940T1196 860Q1251 903 1313 937T1439
995T1568 1031T1694 1044Q1743 1044 1777 1029T1825 977Q1831 937 1796 891Q1781 871 1756 849T1690 801T1592 749T1458 694L2191 934Q2076 878 1978 834T1804 760Q1717 724 1645 698Q1600 679 1546 660T1432 621T1312 584T1190 547V528Q1190 425 1222 343T1312
204T1451 117T1630 86Q1681 86 1731 93T1828 114T1914 147T1985 188Q1909 120 1829 75T1668 1T1509 -41T1358 -55Q1293 -57 1229 -38T1111 21T1014 120T950 260Q894 202 831 148T701 53T564 -14T426 -39ZM961 862Q928 871 892 878T819 889T744 896T672 899Q645
899 610 892T537 868T464 821T400 746T355 640T338 498Q338 433 357 368T412 250T502 166T625 133Q694 133 744 154T828 213T883 301T917 408T935 527T944 648T950 763T961 862ZM1399 690Q1442 709 1476 731T1529 777T1550 827T1530 883Q1514 904 1488 913T1434
922Q1408 922 1384 916T1341 901Q1329 894 1309 871T1266 810T1225 723T1196 614Q1259 639 1310 656T1399 690Z" />
<glyph unicode="&#xe7;" glyph-name="ccedilla" horiz-adv-x="1182" d="M1147 221Q1107 186 1051 147T926 74T781 13T623 -20Q598 -46 585 -59T563 -81T545 -100T518 -129Q524 -123 542 -120T571 -115Q600 -111 627 -114T676 -127T710 -154T723 -195Q723 -228
705 -262T658 -328T591 -390T516 -444T443 -486T383 -512Q364 -522 340 -528T294 -538Q268 -542 242 -545Q268 -500 293 -467T344 -414Q359 -426 381 -432T424 -439T463 -440T485 -434Q504 -422 517 -394T530 -334Q530 -306 520 -289T492 -263T453 -251T410 -248Q390
-248 369 -250T328 -258Q415 -166 472 -111T567 -25Q517 -26 463 -15T357 19T258 78T174 164T117 278T96 422Q96 521 129 606T218 762T350 887T512 979T690 1035T870 1055Q881 1055 904 1055T955 1052T1012 1046T1066 1034T1106 1017T1122 991Q1122 974 1105 958T1065
928Q1047 916 1018 899Q993 885 955 863T860 811Q878 843 866 865T823 900T747 920T655 926Q570 926 512 911T417 854T366 741T350 557Q350 467 384 389T476 253T613 162T778 129Q872 129 966 156T1147 221Z" />
<glyph unicode="&#xe8;" glyph-name="egrave" horiz-adv-x="1210" d="M1399 954Q1284 898 1186 855T1012 781Q925 746 852 719Q807 700 753 681T639 643T519 606T397 569V549Q397 446 429 364T520 225T659 137T838 106Q889 106 939 114T1035 135T1121 168T1192
209Q1116 141 1036 95T875 21T716 -21T565 -35Q492 -37 422 -13T293 62T195 186T143 360Q138 395 138 427T145 492Q110 479 82 468T35 446Q64 466 93 483T150 516Q167 594 208 665T308 797T439 907T588 992T746 1046T901 1065Q951 1065 985 1050T1032 997Q1038
957 1003 911Q988 891 963 869T897 821T800 769T666 715L1399 954ZM606 711Q649 730 683 752T737 798T758 848T737 903Q722 925 696 933T641 942Q615 942 591 937T549 922Q537 915 516 892T473 831T432 744T403 635Q466 658 517 676T606 711ZM678 1169Q671 1163
656 1151T622 1123T582 1092T541 1062T506 1040T483 1031Q389 1091 313 1171T184 1349Q184 1351 197 1362T231 1388T275 1420T321 1451T359 1474T379 1484Q381 1484 390 1470T411 1437T433 1403T446 1382Q494 1319 551 1263T678 1169Z" />
<glyph unicode="&#xe9;" glyph-name="eacute" horiz-adv-x="1210" d="M1399 954Q1284 898 1186 855T1012 781Q925 746 852 719Q807 700 753 681T639 643T519 606T397 569V549Q397 446 429 364T520 225T659 137T838 106Q889 106 939 114T1035 135T1121 168T1192
209Q1116 141 1036 95T875 21T716 -21T565 -35Q492 -37 422 -13T293 62T195 186T143 360Q138 395 138 427T145 492Q110 479 82 468T35 446Q64 466 93 483T150 516Q167 594 208 665T308 797T439 907T588 992T746 1046T901 1065Q951 1065 985 1050T1032 997Q1038
957 1003 911Q988 891 963 869T897 821T800 769T666 715L1399 954ZM606 711Q649 730 683 752T737 798T758 848T737 903Q722 925 696 933T641 942Q615 942 591 937T549 922Q537 915 516 892T473 831T432 744T403 635Q466 658 517 676T606 711ZM991 1453Q964 1417
939 1384Q918 1356 896 1328T860 1285Q797 1216 725 1167T590 1086Q517 1049 444 1025Q443 1028 443 1031Q443 1037 444 1038Q495 1079 527 1112T585 1176T633 1241T688 1316Q712 1340 748 1355T826 1384T911 1413T991 1453Z" />
<glyph unicode="&#xea;" glyph-name="ecircumflex" horiz-adv-x="1210" d="M1399 954Q1284 898 1186 855T1012 781Q925 746 852 719Q807 700 753 681T639 643T519 606T397 569V549Q397 446 429 364T520 225T659 137T838 106Q889 106 939 114T1035 135T1121 168T1192
209Q1116 141 1036 95T875 21T716 -21T565 -35Q492 -37 422 -13T293 62T195 186T143 360Q138 395 138 427T145 492Q110 479 82 468T35 446Q64 466 93 483T150 516Q167 594 208 665T308 797T439 907T588 992T746 1046T901 1065Q951 1065 985 1050T1032 997Q1038
957 1003 911Q988 891 963 869T897 821T800 769T666 715L1399 954ZM606 711Q649 730 683 752T737 798T758 848T737 903Q722 925 696 933T641 942Q615 942 591 937T549 922Q537 915 516 892T473 831T432 744T403 635Q466 658 517 676T606 711ZM1047 1236Q1037 1227
1019 1211T975 1174T920 1134T856 1098Q848 1113 831 1136T792 1183T750 1226T713 1252Q684 1229 652 1209T587 1173T525 1145T471 1125L385 1102Q460 1152 524 1209T635 1340Q680 1377 724 1408T823 1473Q845 1461 870 1441T919 1398T965 1349T1005 1301T1033
1261T1047 1236Z" />
<glyph unicode="&#xeb;" glyph-name="edieresis" horiz-adv-x="1210" d="M1399 954Q1284 898 1186 855T1012 781Q925 746 852 719Q807 700 753 681T639 643T519 606T397 569V549Q397 446 429 364T520 225T659 137T838 106Q889 106 939 114T1035 135T1121 168T1192
209Q1116 141 1036 95T875 21T716 -21T565 -35Q492 -37 422 -13T293 62T195 186T143 360Q138 395 138 427T145 492Q110 479 82 468T35 446Q64 466 93 483T150 516Q167 594 208 665T308 797T439 907T588 992T746 1046T901 1065Q951 1065 985 1050T1032 997Q1038
957 1003 911Q988 891 963 869T897 821T800 769T666 715L1399 954ZM606 711Q649 730 683 752T737 798T758 848T737 903Q722 925 696 933T641 942Q615 942 591 937T549 922Q537 915 516 892T473 831T432 744T403 635Q466 658 517 676T606 711ZM1036 1236L841 1099L690
1242L884 1378L1036 1236ZM579 1236L385 1099L233 1242L428 1378L579 1236Z" />
<glyph unicode="&#xec;" glyph-name="igrave" horiz-adv-x="756" d="M862 164Q748 89 669 46T532 -18T436 -42T365 -39Q336 -34 308 -24T258 12T221 89T207 225Q207 297 211 367T219 507T226 645T227 782Q225 848 203 878T137 909Q120 909 100 905T57 893Q93 918
131 943T208 989T286 1021T365 1034Q411 1034 436 1014T471 963T483 896T485 825Q485 760 483 681T477 526T471 385T467 285Q466 252 479 219T517 160T580 117T666 100Q708 100 757 115T862 164ZM380 1242Q373 1236 358 1224T324 1196T284 1165T243 1135T208 1113T185
1104Q91 1164 15 1244T-114 1422Q-114 1424 -101 1435T-67 1461T-23 1493T23 1524T61 1547T81 1557Q83 1557 92 1543T113 1510T135 1476T148 1455Q196 1392 253 1336T380 1242Z" />
<glyph unicode="&#xed;" glyph-name="iacute" horiz-adv-x="756" d="M862 164Q748 89 669 46T532 -18T436 -42T365 -39Q336 -34 308 -24T258 12T221 89T207 225Q207 297 211 367T219 507T226 645T227 782Q225 848 203 878T137 909Q120 909 100 905T57 893Q93 918
131 943T208 989T286 1021T365 1034Q411 1034 436 1014T471 963T483 896T485 825Q485 760 483 681T477 526T471 385T467 285Q466 252 479 219T517 160T580 117T666 100Q708 100 757 115T862 164ZM733 1518Q706 1482 681 1449Q660 1421 638 1393T602 1350Q539 1281
467 1232T332 1151Q259 1114 186 1090Q185 1093 185 1096Q185 1102 186 1103Q237 1144 269 1177T327 1241T375 1306T430 1381Q454 1405 490 1420T568 1449T653 1478T733 1518Z" />
<glyph unicode="&#xee;" glyph-name="icircumflex" horiz-adv-x="756" d="M862 164Q748 89 669 46T532 -18T436 -42T365 -39Q336 -34 308 -24T258 12T221 89T207 225Q207 297 211 367T219 507T226 645T227 782Q225 848 203 878T137 909Q120 909 100 905T57 893Q93
918 131 943T208 989T286 1021T365 1034Q411 1034 436 1014T471 963T483 896T485 825Q485 760 483 681T477 526T471 385T467 285Q466 252 479 219T517 160T580 117T666 100Q708 100 757 115T862 164ZM703 1261Q693 1252 675 1236T631 1199T576 1159T512 1123Q504
1138 487 1161T448 1208T406 1251T369 1277Q340 1254 308 1234T243 1198T181 1170T127 1150L41 1127Q116 1177 180 1234T291 1365Q336 1402 380 1433T479 1498Q501 1486 526 1466T575 1423T621 1374T661 1326T689 1286T703 1261Z" />
<glyph unicode="&#xef;" glyph-name="idieresis" horiz-adv-x="756" d="M862 164Q748 89 669 46T532 -18T436 -42T365 -39Q336 -34 308 -24T258 12T221 89T207 225Q207 297 211 367T219 507T226 645T227 782Q225 848 203 878T137 909Q120 909 100 905T57 893Q93
918 131 943T208 989T286 1021T365 1034Q411 1034 436 1014T471 963T483 896T485 825Q485 760 483 681T477 526T471 385T467 285Q466 252 479 219T517 160T580 117T666 100Q708 100 757 115T862 164ZM997 1510L802 1373L651 1516L845 1652L997 1510ZM540 1510L346
1373L194 1516L389 1652L540 1510Z" />
<glyph unicode="&#xf0;" glyph-name="eth" horiz-adv-x="1436" d="M1362 1612Q1333 1581 1292 1545Q1257 1514 1203 1474T1075 1389Q1104 1334 1134 1269T1193 1134T1247 990T1292 845T1322 706T1333 582Q1333 496 1301 417T1215 268T1089 141T938 42T777 -22T621
-45Q513 -45 418 -18T251 63T138 199T96 391Q96 482 119 556T184 690T282 799T402 886T537 955T676 1010Q716 1024 763 1032T862 1040Q873 1040 884 1040T907 1038Q886 1095 868 1151T823 1260Q758 1232 688 1208T537 1161Q592 1186 658 1229T786 1321Q710 1440
604 1440Q550 1440 494 1415Q515 1432 541 1454T597 1499T658 1545T721 1584T783 1613T840 1624Q868 1624 896 1612T952 1571Q980 1539 1012 1493Q1044 1505 1084 1515T1170 1537T1265 1566T1362 1612ZM643 924Q608 924 578 918T524 901Q506 892 477 859T419 774T371
657T350 516Q350 423 384 343T477 202T616 108T786 74Q830 74 862 80T909 94Q926 103 954 134T1010 213T1057 324T1077 461Q1077 552 1043 636T950 784T812 886T643 924Z" />
<glyph unicode="&#xf1;" glyph-name="ntilde" horiz-adv-x="1563" d="M483 111L244 -61Q253 132 258 268T265 492Q268 595 268 662Q273 783 235 851T119 920Q94 920 67 913T8 891Q47 919 90 948T178 1002T268 1041T358 1057Q400 1057 434 1040T487 983Q503 949
509 907T518 815Q569 869 632 916T765 996T904 1045T1036 1053Q1081 1047 1129 1028T1218 970T1284 868T1307 709Q1304 597 1297 504T1290 338Q1290 295 1297 257T1321 190T1369 144T1444 127Q1484 127 1528 142T1618 190Q1545 125 1485 81T1372 10T1275 -28T1188
-39Q1146 -38 1116 -23T1068 25T1043 109T1038 236Q1041 302 1046 381T1051 539Q1051 628 1039 692T996 797T909 859T766 879Q703 879 659 855T586 788T541 691T516 573T504 445T500 318T495 204T483 111ZM1276 1400Q1249 1368 1208 1327T1114 1249T999 1187T868
1161Q814 1161 781 1180T719 1222T658 1264T575 1283Q563 1283 548 1278T514 1263T477 1242T440 1218Q397 1190 350 1154Q401 1228 465 1287Q492 1312 525 1336T597 1379T678 1409T768 1421Q795 1421 818 1412T862 1389T904 1359T949 1329T1003 1306T1071 1296Q1098
1296 1124 1307T1176 1335T1227 1369T1276 1400Z" />
<glyph unicode="&#xf2;" glyph-name="ograve" horiz-adv-x="1425" d="M1331 582Q1331 499 1308 431T1253 312T1188 227T1135 178Q1077 136 1016 96T891 25T758 -26T618 -45Q511 -45 416 -18T249 63T136 199T94 391Q94 488 127 573T217 731T350 860T511 958T686
1019T860 1040Q964 1040 1050 1006T1199 910T1296 764T1331 582ZM641 924Q590 924 548 906T474 856T418 783T379 696T356 604T348 516Q348 423 382 343T475 202T614 108T784 74Q840 74 892 95T985 163T1050 283T1075 461Q1075 552 1041 636T948 784T810 886T641
924ZM689 1189Q682 1183 667 1171T633 1143T593 1112T552 1082T517 1060T494 1051Q400 1111 324 1191T195 1369Q195 1371 208 1382T242 1408T286 1440T332 1471T370 1494T390 1504Q392 1504 401 1490T422 1457T444 1423T457 1402Q505 1339 562 1283T689 1189Z"
/>
<glyph unicode="&#xf3;" glyph-name="oacute" horiz-adv-x="1425" d="M1331 582Q1331 499 1308 431T1253 312T1188 227T1135 178Q1077 136 1016 96T891 25T758 -26T618 -45Q511 -45 416 -18T249 63T136 199T94 391Q94 488 127 573T217 731T350 860T511 958T686
1019T860 1040Q964 1040 1050 1006T1199 910T1296 764T1331 582ZM641 924Q590 924 548 906T474 856T418 783T379 696T356 604T348 516Q348 423 382 343T475 202T614 108T784 74Q840 74 892 95T985 163T1050 283T1075 461Q1075 552 1041 636T948 784T810 886T641
924ZM1026 1457Q999 1421 974 1388Q953 1360 931 1332T895 1289Q832 1220 760 1171T625 1090Q552 1053 479 1029Q478 1032 478 1035Q478 1041 479 1042Q530 1083 562 1116T620 1180T668 1245T723 1320Q747 1344 783 1359T861 1388T946 1417T1026 1457Z" />
<glyph unicode="&#xf4;" glyph-name="ocircumflex" horiz-adv-x="1425" d="M1331 582Q1331 499 1308 431T1253 312T1188 227T1135 178Q1077 136 1016 96T891 25T758 -26T618 -45Q511 -45 416 -18T249 63T136 199T94 391Q94 488 127 573T217 731T350 860T511 958T686
1019T860 1040Q964 1040 1050 1006T1199 910T1296 764T1331 582ZM641 924Q590 924 548 906T474 856T418 783T379 696T356 604T348 516Q348 423 382 343T475 202T614 108T784 74Q840 74 892 95T985 163T1050 283T1075 461Q1075 552 1041 636T948 784T810 886T641
924ZM1043 1245Q1033 1236 1015 1220T971 1183T916 1143T852 1107Q844 1122 827 1145T788 1192T746 1235T709 1261Q680 1238 648 1218T583 1182T521 1154T467 1134L381 1111Q456 1161 520 1218T631 1349Q676 1386 720 1417T819 1482Q841 1470 866 1450T915 1407T961
1358T1001 1310T1029 1270T1043 1245Z" />
<glyph unicode="&#xf5;" glyph-name="otilde" horiz-adv-x="1425" d="M1331 582Q1331 499 1308 431T1253 312T1188 227T1135 178Q1077 136 1016 96T891 25T758 -26T618 -45Q511 -45 416 -18T249 63T136 199T94 391Q94 488 127 573T217 731T350 860T511 958T686
1019T860 1040Q964 1040 1050 1006T1199 910T1296 764T1331 582ZM641 924Q590 924 548 906T474 856T418 783T379 696T356 604T348 516Q348 423 382 343T475 202T614 108T784 74Q840 74 892 95T985 163T1050 283T1075 461Q1075 552 1041 636T948 784T810 886T641
924ZM1176 1359Q1149 1327 1108 1286T1014 1208T899 1146T768 1120Q714 1120 681 1139T619 1181T558 1223T475 1242Q463 1242 448 1237T414 1222T377 1201T340 1177Q297 1149 250 1113Q301 1187 365 1246Q392 1271 425 1295T497 1338T578 1368T668 1380Q695 1380
718 1371T762 1348T804 1318T849 1288T903 1265T971 1255Q998 1255 1024 1266T1076 1294T1127 1328T1176 1359Z" />
<glyph unicode="&#xf6;" glyph-name="odieresis" horiz-adv-x="1425" d="M1331 582Q1331 499 1308 431T1253 312T1188 227T1135 178Q1077 136 1016 96T891 25T758 -26T618 -45Q511 -45 416 -18T249 63T136 199T94 391Q94 488 127 573T217 731T350 860T511 958T686
1019T860 1040Q964 1040 1050 1006T1199 910T1296 764T1331 582ZM641 924Q590 924 548 906T474 856T418 783T379 696T356 604T348 516Q348 423 382 343T475 202T614 108T784 74Q840 74 892 95T985 163T1050 283T1075 461Q1075 552 1041 636T948 784T810 886T641
924ZM1086 1242L891 1105L740 1248L934 1384L1086 1242ZM629 1242L435 1105L283 1248L478 1384L629 1242Z" />
<glyph unicode="&#xf7;" glyph-name="divide" horiz-adv-x="1184" d="M791 831Q752 804 714 779T644 733T587 701T547 688Q534 690 512 701Q493 711 463 732T387 793L584 932Q630 891 668 871T734 841Q766 830 791 831ZM1071 612Q1063 612 1047 600T1015 571T984
539T963 518Q956 513 941 498T910 468T877 440T852 428H106Q132 450 154 469Q173 485 191 500T215 520Q222 526 236 541T267 572T300 600T326 612H1071ZM791 254Q752 226 714 200T644 154T587 121T547 109Q534 111 512 122Q493 132 463 153T387 215L584 352Q630
313 668 293T734 264Q766 253 791 254Z" />
<glyph unicode="&#xf8;" glyph-name="oslash" horiz-adv-x="1425" d="M1325 1305Q1304 1263 1274 1211Q1248 1166 1211 1104T1126 967Q1222 907 1276 807T1331 582Q1331 499 1308 431T1253 312T1188 227T1135 178Q1077 136 1016 96T891 25T758 -26T618 -45Q532
-45 454 -29T311 23Q260 -21 207 -63T98 -145L266 49Q188 103 141 188T94 391Q94 488 127 573T217 731T350 860T511 958T686 1019T860 1040Q877 1040 893 1039T926 1036L946 1096Q951 1118 971 1133T1022 1160T1091 1184T1169 1212T1250 1250T1325 1305ZM784 74Q840
74 892 95T985 163T1050 283T1075 461Q1075 539 1049 613T977 748Q880 614 759 472T492 186Q549 132 624 103T784 74ZM641 924Q590 924 548 906T474 856T418 783T379 696T356 604T348 516Q348 442 370 375T430 254Q579 446 679 601T842 868Q797 894 746 909T641
924Z" />
<glyph unicode="&#xf9;" glyph-name="ugrave" horiz-adv-x="1626" d="M1677 184Q1602 129 1546 89T1442 24T1350 -12T1255 -20Q1216 -18 1189 -4T1143 38T1116 106T1103 203Q1046 154 985 112T859 40T724 -8T581 -25Q481 -25 417 5T316 89T264 218T249 383Q249
442 251 499T253 610Q253 673 249 728T231 823T192 887T124 911Q89 911 40 893Q77 922 117 952T200 1006T287 1045T378 1061Q420 1061 444 1041T482 990T499 920T503 844Q503 745 501 655T499 475Q500 397 517 337T570 234T665 171T808 152Q871 153 918 162T1001
194T1061 255T1103 354Q1106 487 1111 607T1116 846Q1115 870 1104 887Q1095 901 1075 909T1017 907Q1046 929 1082 956T1155 1007T1229 1047T1298 1063Q1332 1063 1356 1043T1380 985Q1380 964 1380 911T1378 786T1375 635T1373 482T1372 348T1372 258Q1374 201
1416 174T1521 147Q1558 147 1598 156T1677 184ZM908 1193Q901 1187 886 1175T852 1147T812 1116T771 1086T736 1064T713 1055Q619 1115 543 1195T414 1373Q414 1375 427 1386T461 1412T505 1444T551 1475T589 1498T609 1508Q611 1508 620 1494T641 1461T663 1427T676
1406Q724 1343 781 1287T908 1193Z" />
<glyph unicode="&#xfa;" glyph-name="uacute" horiz-adv-x="1626" d="M1677 184Q1602 129 1546 89T1442 24T1350 -12T1255 -20Q1216 -18 1189 -4T1143 38T1116 106T1103 203Q1046 154 985 112T859 40T724 -8T581 -25Q481 -25 417 5T316 89T264 218T249 383Q249
442 251 499T253 610Q253 673 249 728T231 823T192 887T124 911Q89 911 40 893Q77 922 117 952T200 1006T287 1045T378 1061Q420 1061 444 1041T482 990T499 920T503 844Q503 745 501 655T499 475Q500 397 517 337T570 234T665 171T808 152Q871 153 918 162T1001
194T1061 255T1103 354Q1106 487 1111 607T1116 846Q1115 870 1104 887Q1095 901 1075 909T1017 907Q1046 929 1082 956T1155 1007T1229 1047T1298 1063Q1332 1063 1356 1043T1380 985Q1380 964 1380 911T1378 786T1375 635T1373 482T1372 348T1372 258Q1374 201
1416 174T1521 147Q1558 147 1598 156T1677 184ZM1257 1465Q1230 1429 1205 1396Q1184 1368 1162 1340T1126 1297Q1063 1228 991 1179T856 1098Q783 1061 710 1037Q709 1040 709 1043Q709 1049 710 1050Q761 1091 793 1124T851 1188T899 1253T954 1328Q978 1352
1014 1367T1092 1396T1177 1425T1257 1465Z" />
<glyph unicode="&#xfb;" glyph-name="ucircumflex" horiz-adv-x="1626" d="M1677 184Q1602 129 1546 89T1442 24T1350 -12T1255 -20Q1216 -18 1189 -4T1143 38T1116 106T1103 203Q1046 154 985 112T859 40T724 -8T581 -25Q481 -25 417 5T316 89T264 218T249 383Q249
442 251 499T253 610Q253 673 249 728T231 823T192 887T124 911Q89 911 40 893Q77 922 117 952T200 1006T287 1045T378 1061Q420 1061 444 1041T482 990T499 920T503 844Q503 745 501 655T499 475Q500 397 517 337T570 234T665 171T808 152Q871 153 918 162T1001
194T1061 255T1103 354Q1106 487 1111 607T1116 846Q1115 870 1104 887Q1095 901 1075 909T1017 907Q1046 929 1082 956T1155 1007T1229 1047T1298 1063Q1332 1063 1356 1043T1380 985Q1380 964 1380 911T1378 786T1375 635T1373 482T1372 348T1372 258Q1374 201
1416 174T1521 147Q1558 147 1598 156T1677 184ZM1170 1253Q1160 1244 1142 1228T1098 1191T1043 1151T979 1115Q971 1130 954 1153T915 1200T873 1243T836 1269Q807 1246 775 1226T710 1190T648 1162T594 1142L508 1119Q583 1169 647 1226T758 1357Q803 1394 847
1425T946 1490Q968 1478 993 1458T1042 1415T1088 1366T1128 1318T1156 1278T1170 1253Z" />
<glyph unicode="&#xfc;" glyph-name="udieresis" horiz-adv-x="1626" d="M1677 184Q1602 129 1546 89T1442 24T1350 -12T1255 -20Q1216 -18 1189 -4T1143 38T1116 106T1103 203Q1046 154 985 112T859 40T724 -8T581 -25Q481 -25 417 5T316 89T264 218T249 383Q249
442 251 499T253 610Q253 673 249 728T231 823T192 887T124 911Q89 911 40 893Q77 922 117 952T200 1006T287 1045T378 1061Q420 1061 444 1041T482 990T499 920T503 844Q503 745 501 655T499 475Q500 397 517 337T570 234T665 171T808 152Q871 153 918 162T1001
194T1061 255T1103 354Q1106 487 1111 607T1116 846Q1115 870 1104 887Q1095 901 1075 909T1017 907Q1046 929 1082 956T1155 1007T1229 1047T1298 1063Q1332 1063 1356 1043T1380 985Q1380 964 1380 911T1378 786T1375 635T1373 482T1372 348T1372 258Q1374 201
1416 174T1521 147Q1558 147 1598 156T1677 184ZM1172 1256L977 1119L826 1262L1020 1398L1172 1256ZM715 1256L521 1119L369 1262L564 1398L715 1256Z" />
<glyph unicode="&#xfd;" glyph-name="yacute" horiz-adv-x="1245" d="M1165 942Q1165 898 1154 841T1112 715T1028 565T891 393Q784 276 671 158T455 -69T268 -273T135 -442Q86 -515 60 -571T22 -668T11 -738T16 -786Q19 -798 17 -808T8 -827T-7 -839T-25 -844Q-37
-844 -49 -833T-68 -795Q-75 -764 -61 -712T-17 -598T56 -471T152 -346Q217 -274 300 -181T471 16Q460 88 441 181T395 372T334 564T257 731T166 850T61 895Q38 895 14 887T-35 864Q-6 892 31 927T109 992T193 1042T279 1063Q308 1063 333 1048T381 999Q402 965
439 900T520 741T606 530T680 272Q734 342 780 409T860 538T914 651T934 745Q934 782 927 811T905 860T869 888T819 891Q842 919 872 953T937 1016T1009 1065T1085 1085Q1112 1085 1128 1070T1152 1033T1162 986T1165 942ZM1169 1483Q1142 1447 1117 1414Q1096
1386 1074 1358T1038 1315Q975 1246 903 1197T768 1116Q695 1079 622 1055Q621 1058 621 1061Q621 1067 622 1068Q673 1109 705 1142T763 1206T811 1271T866 1346Q890 1370 926 1385T1004 1414T1089 1443T1169 1483Z" />
<glyph unicode="&#xfe;" glyph-name="thorn" horiz-adv-x="1468" d="M700 -715Q619 -777 554 -816T438 -879T346 -913T276 -924Q246 -926 226 -912T195 -873T180 -811T178 -731Q179 -714 179 -641T181 -455T182 -197T184 109T186 440T188 772T190 1080T192 1342T193
1533T195 1630Q201 1780 102 1780Q84 1780 61 1775T12 1759Q48 1786 88 1816T170 1873T257 1916T346 1933Q369 1933 390 1925T428 1898T453 1844T463 1759Q463 1282 457 813Q574 925 713 987T1014 1049Q1098 1049 1165 1014T1279 922T1351 791T1376 641Q1376 536
1333 447T1218 284T1050 153T852 55T643 -9T444 -39Q442 -194 442 -345T442 -651Q444 -702 469 -731T545 -760Q605 -760 700 -715ZM743 121Q813 121 866 132T956 158Q998 174 1028 195Q1046 211 1061 241T1088 310T1107 395T1114 492Q1114 576 1088 650T1014 781T896
870T741 903Q707 903 676 897T621 879Q586 862 559 810T511 689T476 542T451 395L446 174Q533 145 607 133T743 121Z" />
<glyph unicode="&#xff;" glyph-name="ydieresis" horiz-adv-x="1245" d="M1165 942Q1165 898 1154 841T1112 715T1028 565T891 393Q784 276 671 158T455 -69T268 -273T135 -442Q86 -515 60 -571T22 -668T11 -738T16 -786Q19 -798 17 -808T8 -827T-7 -839T-25 -844Q-37
-844 -49 -833T-68 -795Q-75 -764 -61 -712T-17 -598T56 -471T152 -346Q217 -274 300 -181T471 16Q460 88 441 181T395 372T334 564T257 731T166 850T61 895Q38 895 14 887T-35 864Q-6 892 31 927T109 992T193 1042T279 1063Q308 1063 333 1048T381 999Q402 965
439 900T520 741T606 530T680 272Q734 342 780 409T860 538T914 651T934 745Q934 782 927 811T905 860T869 888T819 891Q842 919 872 953T937 1016T1009 1065T1085 1085Q1112 1085 1128 1070T1152 1033T1162 986T1165 942ZM1061 1313L866 1176L715 1319L909 1455L1061
1313ZM604 1313L410 1176L258 1319L453 1455L604 1313Z" />
<glyph unicode="&#x2013;" glyph-name="endash" horiz-adv-x="1112" d="M965 612Q956 612 941 600T908 571T877 539T856 518Q849 513 835 498T803 468T770 440T745 428H145Q171 450 193 469Q212 485 230 500T254 520Q261 526 275 541T306 572T339 600T365 612H965Z" />
<glyph unicode="&#x2014;" glyph-name="emdash" horiz-adv-x="1520" d="M1374 612Q1366 612 1350 600T1318 571T1287 539T1266 518Q1259 513 1244 498T1213 468T1180 440T1155 428H145Q171 450 193 469Q212 485 230 500T254 520Q261 526 275 541T306 572T339 600T365
612H1374Z" />
<glyph unicode="&#x2018;" glyph-name="quoteleft" horiz-adv-x="573" d="M137 971Q137 989 141 1020T152 1088T169 1166T191 1243T216 1309T244 1354Q268 1382 294 1409T346 1464Q348 1450 351 1411T361 1320T376 1213T398 1111T430 1035T473 1006Q450 985 418
963T348 922T272 891T197 879Q176 879 164 889T146 914T139 944T137 971Z" />
<glyph unicode="&#x2019;" glyph-name="quoteright" horiz-adv-x="547" d="M434 1372Q434 1354 430 1323T419 1254T402 1176T380 1099T355 1033T328 989Q303 961 277 934T225 879Q223 893 220 932T211 1023T196 1130T174 1232T142 1307T98 1337Q121 1358 154 1380T224
1421T300 1452T375 1464Q396 1464 407 1454T425 1429T432 1399T434 1372Z" />
<glyph unicode="&#x201a;" glyph-name="quotesinglbase" horiz-adv-x="575" d="M463 115Q463 97 459 66T448 -3T431 -81T409 -158T384 -224T356 -268Q332 -296 306 -323T254 -379Q252 -365 249 -325T239 -234T224 -128T202 -26T170 51T127 80Q150 101 182 123T252
164T328 195T403 207Q424 207 436 197T454 172T461 141T463 115Z" />
<glyph unicode="&#x201c;" glyph-name="quotedblleft" horiz-adv-x="969" d="M139 971Q139 989 143 1020T154 1088T170 1166T190 1243T214 1309T240 1354Q267 1382 293 1409T344 1464Q347 1450 351 1411T361 1320T376 1213T398 1111T429 1035T471 1006Q449 985
417 963T348 922T270 891T193 879Q173 879 162 889T146 914T140 944T139 971ZM532 971Q532 989 536 1020T547 1088T565 1166T587 1243T612 1309T639 1354Q664 1382 689 1409T741 1464Q743 1450 746 1411T756 1320T771 1213T793 1111T825 1035T868 1006Q845 985
813 963T743 922T667 891T592 879Q571 879 559 889T541 914T534 944T532 971Z" />
<glyph unicode="&#x201d;" glyph-name="quotedblright" horiz-adv-x="942" d="M827 1372Q827 1354 823 1323T813 1254T797 1176T776 1099T752 1033T727 989Q671 933 623 879Q620 893 616 932T606 1023T591 1130T569 1232T538 1307T496 1337Q518 1358 550 1380T619
1421T696 1452T774 1464Q794 1464 804 1454T820 1429T826 1399T827 1372ZM434 1372Q434 1354 430 1323T419 1254T402 1176T380 1099T355 1033T328 989Q303 961 277 934T225 879Q223 893 220 932T211 1023T196 1130T174 1232T142 1307T98 1337Q121 1358 154 1380T224
1421T300 1452T375 1464Q396 1464 407 1454T425 1429T432 1399T434 1372Z" />
<glyph unicode="&#x201e;" glyph-name="quotedblbase" horiz-adv-x="965" d="M850 119Q850 101 846 70T836 1T820 -77T799 -154T775 -220T750 -264Q694 -320 645 -375Q642 -361 638 -321T628 -230T613 -123T591 -21T560 55T518 84Q540 105 572 127T642 168T719
199T797 211Q817 211 827 201T843 176T849 145T850 119ZM457 119Q457 101 453 70T442 1T425 -77T403 -154T378 -220T350 -264Q300 -320 248 -375Q246 -361 243 -321T233 -230T218 -123T196 -21T164 55T121 84Q144 105 176 127T246 168T322 199T397 211Q418 211
430 201T448 176T455 145T457 119Z" />
<glyph unicode="&#x2022;" glyph-name="bullet" horiz-adv-x="854" d="M676 700L352 475L180 752L502 977L676 700Z" />
<glyph unicode="&#x2039;" glyph-name="guilsinglleft" horiz-adv-x="803" d="M692 254Q668 220 642 184Q619 153 590 116T528 41Q415 133 335 191T201 285Q139 325 98 346Q110 373 126 406Q140 435 159 473T205 559Q247 578 288 605T368 663T442 726T507 790Q577
863 639 942Q613 864 580 805T507 697T420 604T317 510Q429 445 524 382T692 254Z" />
<glyph unicode="&#x203a;" glyph-name="guilsinglright" horiz-adv-x="803" d="M111 727Q133 761 159 798Q181 829 210 867T272 942Q385 849 466 790T601 697Q663 657 705 637Q693 609 677 576Q663 547 644 508T598 422Q555 402 514 375T435 318T361 255T295 192Q224
120 162 41Q189 119 221 178T294 286T381 379T485 473Q373 538 278 600T111 727Z" />
</font>
</defs>
</svg>
