<?xml version="1.0" standalone="no"?>
<!DOCTYPE svg PUBLIC "-//W3C//DTD SVG 1.1//EN" "http://www.w3.org/Graphics/SVG/1.1/DTD/svg11.dtd">
<svg xmlns="http://www.w3.org/2000/svg">
<defs >
<font id="Timmana" horiz-adv-x="392" ><font-face
    font-family="Timmana"
    units-per-em="750"
    panose-1="0 0 0 0 0 0 0 0 0 0"
    ascent="668"
    descent="-554"
    alphabetic="0" />
<glyph unicode=" " glyph-name="space" horiz-adv-x="248" />
<glyph unicode="!" glyph-name="exclam" horiz-adv-x="198" d="M103 109T115 94T125 52T104 9T65 -7T30 9T20 51Q25 78 42 93T81 109Q103 109 115 94ZM133 183H51L82 488H186L133 183Z" />
<glyph unicode="&quot;" glyph-name="quotedbl" horiz-adv-x="236" d="M75 320H17L31 486H108L75 320ZM192 320H134L149 486H225L192 320Z" />
<glyph unicode="#" glyph-name="numbersign" horiz-adv-x="379" d="M177 269Q165 231 153 193H209L233 269H177ZM354 424Q346 401 339 379T324 334H371L354 269H302L278 193H335L317 127H257L220 18Q186 22 155 25L187 127H132L96 22Q79 24 63 25T30 29L63 127H17L34
193H84L109 269H53L71 334H131L163 435L231 428L200 334H255L286 432L354 424Z" />
<glyph unicode="$" glyph-name="dollar" horiz-adv-x="323" d="M294 340Q262 354 229 354Q166 354 162 319Q159 294 194 269Q210 258 228 246T260 219Q295 183 288 139Q275 45 179 26L172 -42H101L111 21Q56 25 17 47L42 115Q101 94 128 94Q178 94 184 133Q186
156 152 182Q138 194 121 206T89 233Q55 269 61 313T96 384T168 422L177 492H247Q243 476 241 460T235 426Q274 423 311 412L294 340Z" />
<glyph unicode="%" glyph-name="percent" horiz-adv-x="427" d="M123 281T132 299T146 350Q156 419 124 419Q92 419 82 351Q73 281 105 281Q123 281 132 299ZM348 104Q357 172 326 172Q293 172 285 104Q272 35 306 35Q324 35 333 53T348 104ZM204 351Q195 290
170 262T98 233Q52 233 35 261T25 351Q41 467 130 467T204 351ZM110 -4H33L321 458H396L110 -4ZM377 220T396 192T407 104T372 15T299 -14Q253 -14 236 14T226 104Q242 220 331 220Q377 220 396 192Z" />
<glyph unicode="&amp;" glyph-name="ampersand" horiz-adv-x="436" d="M171 203Q133 188 126 139Q122 107 134 87T173 66Q206 66 229 93L171 203ZM206 299Q243 323 250 359Q252 371 247 384T227 397T203 390T191 365T188 337T198 310L206 299ZM276 33Q224 -8 150
-8Q85 -8 50 25Q12 60 22 133Q33 218 125 262Q108 282 98 305T92 362Q99 415 137 441T232 468T320 444T344 371T309 293T240 241L302 157Q306 164 311 172T321 191Q327 203 333 227H424Q412 169 374 118Q363 104 353 94L424 0H301L276 33Z" />
<glyph unicode="&apos;" glyph-name="quotesingle" horiz-adv-x="124" d="M75 320H17L31 486H108L75 320Z" />
<glyph unicode="(" glyph-name="parenleft" horiz-adv-x="255" d="M241 474Q185 423 143 293Q128 247 121 193T115 94T124 12Q139 -58 163 -88L97 -129Q28 -64 20 78Q17 129 26 192T52 307T91 398Q132 472 189 516L241 474Z" />
<glyph unicode=")" glyph-name="parenright" horiz-adv-x="261" d="M17 -88Q49 -56 82 13Q148 148 144 294Q141 379 116 436Q105 462 96 474L161 516Q230 443 238 308Q241 257 233 195T207 82T167 -10Q123 -90 71 -129L17 -88Z" />
<glyph unicode="*" glyph-name="asterisk" horiz-adv-x="287" d="M261 412Q272 348 273 345L185 328L238 261L173 218L139 297L81 218Q64 231 29 261L99 327Q57 335 17 345L49 412L122 377L127 467H198L175 377L261 412Z" />
<glyph unicode="+" glyph-name="plus" horiz-adv-x="308" d="M201 246H297L287 173H191L176 65H99L114 173H17L27 246H123L138 353H215L201 246Z" />
<glyph unicode="," glyph-name="comma" horiz-adv-x="135" d="M47 46Q50 60 61 69T83 78Q119 75 113 40Q108 12 67 -32Q56 -43 47 -53L17 -39Q41 -12 47 9Q48 17 46 25T47 43V46Z" />
<glyph unicode="-" glyph-name="hyphen" horiz-adv-x="212" d="M188 156H17L28 230H197L188 156Z" />
<glyph unicode="." glyph-name="period" horiz-adv-x="120" d="M81 74T90 64T96 35T81 5T53 -6T27 5T19 34T35 63T64 74Z" />
<glyph unicode="/" glyph-name="slash" horiz-adv-x="383" d="M370 495Q327 415 234 209T100 -94H17Q139 184 205 324T287 495H370Z" />
<glyph unicode="0" glyph-name="zero" horiz-adv-x="371" d="M251 226Q261 305 254 348T212 391Q178 391 160 348T131 226T126 105T166 62T220 103T251 226ZM345 226Q336 164 320 119T279 46Q232 -9 157 -9T50 46T35 226T100 407T223 462Q299 462 330 406Q362
346 345 226Z" />
<glyph unicode="1" glyph-name="one" horiz-adv-x="258" d="M243 454L180 0H85L135 358Q113 342 92 326T51 297L17 356Q37 371 58 385T98 413T133 436T158 454H243Z" />
<glyph unicode="2" glyph-name="two" horiz-adv-x="341" d="M88 368Q86 402 82 433Q105 448 164 458Q184 462 205 462Q339 462 323 339Q311 242 194 129Q163 99 135 75Q171 76 208 78T292 80L281 0H17L25 66Q131 163 174 221Q214 275 224 319Q232 387 172 387Q156
387 133 382Q99 375 88 368Z" />
<glyph unicode="3" glyph-name="three" horiz-adv-x="357" d="M94 439Q112 450 151 456T213 462Q282 462 316 433T342 348Q332 278 263 241Q338 217 325 133Q316 61 265 24Q219 -9 144 -9Q86 -9 32 20Q21 25 17 26L51 93Q54 92 62 88T83 79Q116 68 145 68T197
83T224 133T213 181T170 195Q140 195 110 195L120 263H144Q174 263 200 271Q202 273 208 277T222 290Q237 308 241 334T229 373T191 386T155 384T130 378Q109 374 101 370L94 439Z" />
<glyph unicode="4" glyph-name="four" horiz-adv-x="354" d="M283 454L135 195H212L222 275L320 288L306 195H343L332 118H297L280 0H184L201 118H17L25 179L184 454H283Z" />
<glyph unicode="5" glyph-name="five" horiz-adv-x="348" d="M96 202Q84 208 71 210L125 454H337L326 378H186L164 279Q185 286 202 286Q261 286 291 250T311 142Q301 65 252 26Q207 -9 135 -9Q94 -9 54 8Q40 14 31 20T17 30L50 90Q77 77 103 71T142 65Q204 65
216 143Q226 218 160 218Q140 218 121 213T96 202Z" />
<glyph unicode="6" glyph-name="six" horiz-adv-x="332" d="M220 150Q230 227 176 227Q150 227 129 206Q120 181 116 144T122 84T158 60Q206 60 220 150ZM292 400Q251 383 215 354T153 276Q167 280 182 284T220 289T263 279T296 251Q322 215 314 156Q305 79 254
33Q208 -9 144 -9Q79 -9 46 34Q11 82 24 172Q38 282 114 363Q174 428 274 466L292 400Z" />
<glyph unicode="7" glyph-name="seven" horiz-adv-x="335" d="M320 395Q281 328 241 250Q152 75 117 0H17Q41 50 76 114L131 217Q152 256 170 288T201 346T219 380L49 375L60 454H328L320 395Z" />
<glyph unicode="8" glyph-name="eight" horiz-adv-x="348" d="M207 391Q173 391 164 340Q161 304 164 293Q171 267 203 267Q223 267 231 316Q233 328 236 345T232 377T207 391ZM165 195Q132 195 122 129Q118 95 128 79T161 62Q183 62 198 78T217 128T209 178T165
195ZM220 462Q282 462 312 433T335 348Q325 277 255 241Q331 217 318 133Q309 62 262 24Q221 -9 150 -9Q44 -9 24 68Q17 95 22 137T54 204T117 241Q55 278 65 348Q74 404 116 433T220 462Z" />
<glyph unicode="9" glyph-name="nine" horiz-adv-x="328" d="M115 303Q103 225 158 225Q184 225 205 248Q218 287 218 309Q224 348 213 370T178 393Q127 393 115 303ZM181 177Q150 164 122 164T73 173T40 200Q13 234 20 298Q31 376 81 420Q128 462 190 462Q255
462 288 420Q323 373 310 282Q295 168 221 90Q157 22 61 -13L42 53Q137 90 181 177Z" />
<glyph unicode=":" glyph-name="colon" horiz-adv-x="168" d="M101 122T113 106T122 63T102 22T64 7Q42 7 30 22T20 65Q25 89 41 105T79 122Q101 122 113 106ZM132 334T144 319T153 276T132 234T93 219Q71 219 59 234T50 276Q54 303 71 318T110 334Q132 334 144 319Z" />
<glyph unicode=";" glyph-name="semicolon" horiz-adv-x="191" d="M161 334T173 319T182 276T161 234T122 219Q100 219 88 234T79 276Q83 303 99 318T138 334ZM55 52Q60 74 74 88T104 103Q154 103 144 42Q136 8 116 -21Q88 -64 55 -104Q45 -98 35 -93T17 -82Q50
-36 55 -6Q57 7 54 19T55 49V52Z" />
<glyph unicode="&lt;" glyph-name="less" horiz-adv-x="272" d="M21 243L264 380L253 308L119 227L230 146L221 75L17 212L21 243Z" />
<glyph unicode="=" glyph-name="equal" horiz-adv-x="329" d="M287 105H17L26 177H297L287 105ZM306 241H37L46 314H316L306 241Z" />
<glyph unicode="&gt;" glyph-name="greater" horiz-adv-x="280" d="M260 212L17 75L26 146L162 227L49 308L59 380L263 243L260 212Z" />
<glyph unicode="?" glyph-name="question" horiz-adv-x="275" d="M122 50Q119 24 103 9T64 -6Q42 -6 30 9T21 50T42 92T81 108Q103 108 115 93T122 50ZM36 466Q58 480 90 487T148 494T197 487T236 466Q269 437 261 377Q252 311 192 264Q157 237 143 215T125 170Q119
170 109 169T88 166Q64 164 51 164Q51 168 51 172T52 179Q59 235 109 282Q157 326 161 365Q166 393 154 404T122 415T91 413T69 408Q57 404 42 397L36 466Z" />
<glyph unicode="@" glyph-name="at" horiz-adv-x="539" d="M252 48Q275 48 300 82L320 220Q314 226 306 233T284 241Q235 241 224 141Q210 48 252 48ZM334 271L340 296L397 287L369 88Q366 69 368 56T385 42Q406 42 422 74T447 166Q462 269 430 325T315 381T174
322T99 147T119 -28T248 -88Q270 -88 288 -86T316 -82L320 -142Q308 -143 283 -147T229 -151Q114 -151 60 -72Q8 6 26 141Q48 281 126 362Q207 444 325 444Q434 444 485 374Q539 300 520 178Q506 73 453 24Q415 -12 371 -12Q348 -12 329 0T307 37Q300 30 293 22T274
6Q231 -24 191 -4Q158 13 148 68Q144 96 150 136Q159 210 196 255Q229 294 269 294Q290 294 305 286T334 271Z" />
<glyph unicode="A" glyph-name="A" horiz-adv-x="398" d="M250 365Q243 348 234 322T214 267T192 206T168 144H266Q264 174 261 205T256 266T252 322T250 365ZM207 454H322L382 0H281L272 79H145L113 0H17L207 454Z" />
<glyph unicode="B" glyph-name="B" horiz-adv-x="365" d="M191 388Q191 388 162 387L145 255H167Q235 255 245 325Q247 355 237 371T191 388ZM117 66L139 65Q180 65 202 80T230 136Q239 199 164 199H150Q143 199 137 198L117 66ZM81 454L197 457Q280 457 314 432T338
341Q332 302 312 276T270 236Q335 217 325 131Q314 61 270 29T137 -4Q100 -4 68 -2T17 0L81 454Z" />
<glyph unicode="C" glyph-name="C" horiz-adv-x="373" d="M134 226Q122 143 138 106Q156 66 212 66Q237 66 258 73T291 83Q292 65 292 47T294 11Q269 1 238 -5T185 -11Q92 -11 55 47T34 226T105 405T252 462Q283 462 308 456T341 446T354 441L331 369Q320 372
301 379T258 386Q198 386 171 347T134 226Z" />
<glyph unicode="D" glyph-name="D" horiz-adv-x="395" d="M156 71Q204 71 230 109T269 226Q280 308 264 345T200 382Q200 382 183 382Q175 382 167 381L123 71Q140 71 156 71ZM81 454Q81 454 201 457Q249 457 284 448T342 412Q384 360 367 226Q342 37 222 6Q184
-4 140 -4T65 -2T17 0L81 454Z" />
<glyph unicode="E" glyph-name="E" horiz-adv-x="338" d="M17 0L81 454H326L314 376H167L152 271H264L254 198H141L124 78H273L263 0H17Z" />
<glyph unicode="F" glyph-name="F" horiz-adv-x="332" d="M256 178H139L114 0H17L81 454H318L307 376H167L149 252H266L256 178Z" />
<glyph unicode="G" glyph-name="G" horiz-adv-x="373" d="M320 11Q295 3 252 -4T185 -11Q92 -11 55 47T34 226T105 405T252 462Q280 462 311 456T352 446T366 441L343 369Q325 378 297 382T258 386Q198 386 171 347T134 226Q122 143 138 106Q156 66 212 66H232L249
187H201L212 263H355L320 11Z" />
<glyph unicode="H" glyph-name="H" horiz-adv-x="401" d="M331 0H236L263 187H139L113 0H17L81 454H177L150 263H273L299 454H395L331 0Z" />
<glyph unicode="I" glyph-name="I" horiz-adv-x="185" d="M113 0H17L81 454H177L113 0Z" />
<glyph unicode="J" glyph-name="J" horiz-adv-x="264" d="M205 89Q188 -31 146 -76Q126 -99 99 -107T52 -115Q52 -115 28 -115Q23 -115 17 -114Q21 -96 24 -78T32 -43Q54 -41 70 -20Q85 -10 93 9T106 68L161 454H257L205 89Z" />
<glyph unicode="K" glyph-name="K" horiz-adv-x="398" d="M81 454H177L149 255L287 454H394L237 248Q263 185 290 124T345 0H230L144 221L113 0H17L81 454Z" />
<glyph unicode="L" glyph-name="L" horiz-adv-x="271" d="M17 0L81 454H177L123 78H258L241 0H17Z" />
<glyph unicode="M" glyph-name="M" horiz-adv-x="490" d="M382 289L274 38H208Q206 54 195 119T180 210Q172 272 169 289L110 0H17L123 454H217Q218 444 222 423T230 375T240 317T249 258T256 205T261 167Q265 180 275 204T298 257T324 316T350 374T372 422T387
454H481L459 0H362Q363 11 364 33T367 82T371 140T375 198T379 250T382 289Z" />
<glyph unicode="N" glyph-name="N" horiz-adv-x="406" d="M167 454L270 169H271Q273 175 276 219L309 454H394L330 0H245L139 286Q138 279 137 265T133 235L101 0H17L81 454H167Z" />
<glyph unicode="O" glyph-name="O" horiz-adv-x="406" d="M226 67T249 108T282 226T281 344T230 386T167 345T133 227T133 109T185 67ZM324 462T361 405T381 227T311 48T174 -9Q1 -9 34 226Q51 348 104 405T240 462Z" />
<glyph unicode="P" glyph-name="P" horiz-adv-x="365" d="M193 385Q186 385 179 385T164 384L140 219H167Q215 219 234 263Q241 279 245 303Q256 385 193 385ZM81 454L200 457Q288 457 320 418T341 303Q330 222 279 182Q236 149 163 149Q155 149 147 149T131 150L110
0H17L81 454Z" />
<glyph unicode="Q" glyph-name="Q" horiz-adv-x="411" d="M226 67T249 108T282 226T281 344T230 386T167 345T133 227T133 109T185 67ZM268 14Q296 -14 337 -31L286 -95Q253 -88 208 -50Q190 -34 174 -9Q1 -9 34 226Q51 348 104 405T240 462T361 405T381 226Q358
65 268 14Z" />
<glyph unicode="R" glyph-name="R" horiz-adv-x="370" d="M142 243L184 241Q241 241 252 312Q264 385 200 385Q185 385 161 383L142 243ZM167 172L132 173L108 0H17L81 454Q81 454 203 457Q290 457 323 424Q358 391 348 310Q340 256 313 226T254 185L317 0H215L167 172Z" />
<glyph unicode="S" glyph-name="S" horiz-adv-x="362" d="M231 462Q279 462 302 453T334 439T349 432L316 363L303 370Q262 390 231 390Q205 390 185 372Q167 355 167 340Q164 319 174 304T202 276T239 250T276 220Q316 181 308 122T256 27T138 -9Q77 -9 32 16Q23
22 17 25L49 94Q54 92 62 87T82 78Q110 66 134 66Q178 66 200 96Q207 105 209 121T201 151T173 177T136 203T99 234Q60 273 68 332T119 427T231 462Z" />
<glyph unicode="T" glyph-name="T" horiz-adv-x="325" d="M299 376H207L154 0H58L110 376H17L27 454H311L299 376Z" />
<glyph unicode="U" glyph-name="U" horiz-adv-x="375" d="M60 454H156L122 212Q109 135 113 110T128 76T159 67Q213 67 226 148Q231 175 237 212L270 454H365L331 212Q315 92 274 42Q233 -9 149 -9Q67 -9 38 42Q9 93 25 212L60 454Z" />
<glyph unicode="V" glyph-name="V" horiz-adv-x="376" d="M80 0L17 454H116L139 141V73L156 141L269 454H368L178 0H80Z" />
<glyph unicode="W" glyph-name="W" horiz-adv-x="519" d="M512 454L354 0H263L241 289L137 0H48L17 454H113L126 147L224 417H298L319 147L418 454H512Z" />
<glyph unicode="X" glyph-name="X" horiz-adv-x="447" d="M222 159Q145 27 127 0H17L176 228L86 454H195Q199 441 212 397T232 331T241 297Q250 318 275 359Q307 410 331 454H441L287 227L383 0H270Q260 26 249 63T231 123T222 159Z" />
<glyph unicode="Y" glyph-name="Y" horiz-adv-x="390" d="M185 0H89L110 150L102 178Q81 247 60 315T17 454H119Q127 422 134 389T149 327T161 273T170 235Q170 235 189 273Q201 297 216 326T248 389L280 454H383Q342 383 302 315T222 178L206 150L185 0Z" />
<glyph unicode="Z" glyph-name="Z" horiz-adv-x="362" d="M348 392Q243 234 135 77H308L297 0H17L25 62L239 377H75L86 454H357L348 392Z" />
<glyph unicode="[" glyph-name="bracketleft" horiz-adv-x="271" d="M171 -99H17L105 524H258L250 462H174L104 -36H180L171 -99Z" />
<glyph unicode="\" glyph-name="backslash" horiz-adv-x="210" d="M100 495Q176 42 207 -94H123Q101 4 67 202T17 495H100Z" />
<glyph unicode="]" glyph-name="bracketright" horiz-adv-x="262" d="M170 -99H17L25 -36H101L172 462H95L103 524H257L170 -99Z" />
<glyph unicode="^" glyph-name="asciicircum" horiz-adv-x="273" d="M205 320Q195 331 138 392L51 320L17 361L136 466H161L251 361L205 320Z" />
<glyph unicode="_" glyph-name="underscore" horiz-adv-x="363" d="M331 -122H17L26 -53H342L331 -122Z" />
<glyph unicode="`" glyph-name="grave" horiz-adv-x="174" d="M76 547L156 432L110 394L17 497L76 547Z" />
<glyph unicode="a" glyph-name="a" horiz-adv-x="358" d="M246 287Q228 289 199 289T151 265T123 179T123 93T161 70Q178 70 194 80T221 103L246 287ZM221 42Q164 -9 110 -9Q32 -9 21 88Q17 122 24 172T48 259T88 318Q131 360 195 360Q271 360 348 345L299 0H221V42Z" />
<glyph unicode="b" glyph-name="b" horiz-adv-x="353" d="M154 260Q148 255 145 251L123 94Q133 86 142 80T163 73Q198 73 216 96T244 174Q252 235 242 259T206 283T154 260ZM86 496L181 509L154 314Q162 320 172 328T196 344Q225 362 251 362T296 352T327 319Q354
269 341 182Q327 90 284 42Q244 -4 190 -4Q145 -4 120 26Q114 34 109 41L95 0H17L86 496Z" />
<glyph unicode="c" glyph-name="c" horiz-adv-x="295" d="M266 279Q233 290 210 290Q175 290 155 263T127 175T131 90T170 65T215 72T241 82L254 24Q199 -9 149 -9Q5 -9 30 172Q55 362 207 362Q250 362 287 348L266 279Z" />
<glyph unicode="d" glyph-name="d" horiz-adv-x="377" d="M246 277Q224 289 204 289Q170 289 151 265T123 179T123 93T161 70Q178 70 194 80T221 103L246 277ZM111 340T139 350T196 360T255 345L276 496L370 509L299 0H221V42Q164 -9 110 -9Q32 -9 21 88Q17 122
24 172T48 259T88 317Z" />
<glyph unicode="e" glyph-name="e" horiz-adv-x="322" d="M223 258T213 277T185 296T148 277T122 207H216Q223 258 213 277ZM172 62Q216 62 260 87L270 25Q246 7 190 -4Q169 -9 142 -9T90 1T48 32Q11 80 24 167Q37 261 86 314Q132 362 194 362Q288 362 305 272Q314
225 298 164Q295 151 293 149H114Q107 103 124 83T172 62Z" />
<glyph unicode="f" glyph-name="f" horiz-adv-x="288" d="M264 437Q252 443 230 443T199 430T186 382L182 354H246L235 286H173L110 -157H17L80 286H42L51 354H88L94 395Q103 460 129 488T196 517Q248 517 276 503Q272 473 264 437Z" />
<glyph unicode="g" glyph-name="g" horiz-adv-x="356" d="M128 80T137 76T162 71T195 83T222 107L241 248Q225 268 214 275T188 282Q155 282 142 255T122 173Q113 121 124 92Q128 80 137 76ZM50 -81Q95 -96 137 -96Q165 -96 176 -88Q198 -70 202 -31L213 39H212Q196
23 170 7T116 -9T69 1T37 34Q11 81 24 164Q37 258 81 310Q122 359 174 359Q204 359 222 345T257 306L270 354H348L295 -29Q285 -99 249 -132T144 -166Q106 -166 77 -158T31 -145L50 -81Z" />
<glyph unicode="h" glyph-name="h" horiz-adv-x="347" d="M86 496L181 509L153 309H154Q158 312 167 321T189 339Q222 362 259 362Q309 362 325 332T332 239L300 0H207L236 216Q241 254 236 267T209 281Q190 281 175 270Q151 251 144 242L110 0H17L86 496Z" />
<glyph unicode="i" glyph-name="i" horiz-adv-x="193" d="M160 519T172 503T182 463T161 423T122 407T86 422T76 462Q81 487 98 503T137 519ZM110 0H17L65 348L161 361L110 0Z" />
<glyph unicode="j" glyph-name="j" horiz-adv-x="260" d="M257 462Q252 438 235 423T196 407Q174 407 161 422T151 462Q156 487 173 503T212 519Q234 519 247 503T257 462ZM142 348L236 361L183 -25Q173 -100 140 -132T51 -164Q37 -164 17 -159L31 -91Q61 -86
70 -76Q85 -57 91 -15L142 348Z" />
<glyph unicode="k" glyph-name="k" horiz-adv-x="355" d="M87 496L181 509L138 201L249 354H354L217 196L315 0H205L133 169L110 0H17L87 496Z" />
<glyph unicode="l" glyph-name="l" horiz-adv-x="194" d="M110 0H17L86 496L181 509L110 0Z" />
<glyph unicode="m" glyph-name="m" horiz-adv-x="485" d="M67 354H149L145 307Q150 311 158 320T179 339Q210 362 242 362T290 351T310 308Q330 337 374 356Q390 362 408 362Q453 362 469 334T476 240L444 0H351L382 232Q387 255 383 268T361 281Q346 281 333
270Q313 254 308 242L275 0H185L218 232Q222 255 218 268T195 281Q179 281 167 270Q147 252 143 242L109 0H17L67 354Z" />
<glyph unicode="n" glyph-name="n" horiz-adv-x="346" d="M67 354H149L145 309H147Q152 312 161 321T186 339Q223 362 259 362Q309 362 325 332T332 239L298 0H207L236 216Q241 254 235 267T208 281Q190 281 175 270Q147 248 144 242L110 0H17L67 354Z" />
<glyph unicode="o" glyph-name="o" horiz-adv-x="340" d="M189 59T206 87T232 177T231 267T192 294Q163 294 146 267T121 177T121 87T159 59ZM330 262Q336 227 329 177T306 92T267 34Q224 -9 150 -9Q40 -9 23 92Q17 127 25 178Q36 272 86 319Q131 362 201 362Q313
362 330 262Z" />
<glyph unicode="p" glyph-name="p" horiz-adv-x="378" d="M167 244L142 67Q158 59 181 59Q216 59 237 85T266 173T265 259T225 283T167 244ZM89 354H176L173 308H174Q186 322 206 336Q243 362 271 362T319 351T350 318Q375 269 364 182Q351 88 304 38Q262 -9 201
-9Q163 -9 133 5L109 -157H17L89 354Z" />
<glyph unicode="q" glyph-name="q" horiz-adv-x="358" d="M136 76Q146 71 157 71T177 74T195 83Q209 91 222 107L241 248Q229 263 216 274T182 286Q139 286 122 178Q108 89 136 76ZM251 306L263 354H348L276 -157H184L213 39H212Q195 19 176 10Q136 -9 112 -9T69
1T37 33Q11 81 24 171Q37 259 81 310Q122 359 177 359Q219 359 251 306Z" />
<glyph unicode="r" glyph-name="r" horiz-adv-x="268" d="M110 0H17L67 354H149L146 307H147Q162 331 185 347T225 363T247 361T258 356L239 275Q233 276 224 279T202 282T177 274T144 248L110 0Z" />
<glyph unicode="s" glyph-name="s" horiz-adv-x="289" d="M42 81Q45 80 53 76T72 68Q100 59 119 59T149 65T163 88T158 116T138 139T110 161T83 188Q55 221 61 265T101 335T194 362Q239 362 281 348L267 280Q259 281 240 287T198 293Q156 293 151 265Q149 252
157 242T179 221T208 199T237 173Q267 141 260 97Q256 53 222 22Q186 -9 124 -9Q83 -9 62 -1Q26 12 17 19L42 81Z" />
<glyph unicode="t" glyph-name="t" horiz-adv-x="240" d="M232 354L224 286H147L123 116Q119 93 123 82T143 71T172 75T188 81V15Q184 14 176 10T158 2Q133 -9 102 -9Q54 -9 37 16T28 103L55 286H17L26 354H64L76 439L171 454L156 354H232Z" />
<glyph unicode="u" glyph-name="u" horiz-adv-x="346" d="M292 0H211L212 48L190 31Q173 10 131 -4Q116 -9 99 -9Q49 -9 33 21T25 115L59 354H152L125 161Q117 108 120 95T130 78T148 73T169 77T187 88Q206 104 214 112L248 354H342L292 0Z" />
<glyph unicode="v" glyph-name="v" horiz-adv-x="329" d="M71 0L17 354H111L125 207L130 59L176 207L230 354H326L172 0H71Z" />
<glyph unicode="w" glyph-name="w" horiz-adv-x="488" d="M485 354L342 0H254L231 230L142 0H57L17 354H109L127 115L215 354H292L314 115L397 354H485Z" />
<glyph unicode="x" glyph-name="x" horiz-adv-x="372" d="M368 354Q290 240 248 180L324 0H225Q215 24 203 71T186 129Q180 118 171 99T150 61T129 24T115 0H17L143 184L73 354H173Q176 348 180 331T189 296T198 259T206 231L211 240Q216 249 222 262T237 291T253
320T264 344T270 354H368Z" />
<glyph unicode="y" glyph-name="y" horiz-adv-x="351" d="M42 -81Q87 -96 129 -96Q159 -96 168 -88Q187 -71 194 -31L206 45H204Q151 -8 100 -8T33 22T25 116L59 354H153L122 139Q118 97 121 88Q128 73 149 73Q173 73 204 102Q211 108 215 111L249 354H342L288
-29Q278 -99 242 -132T136 -166Q87 -166 24 -145L42 -81Z" />
<glyph unicode="z" glyph-name="z" horiz-adv-x="304" d="M288 296L129 71H258L250 0H17L25 59L182 283H65L75 354H297L288 296Z" />
<glyph unicode="{" glyph-name="braceleft" horiz-adv-x="265" d="M99 398Q106 445 116 473T146 516T191 535T256 540L247 481Q204 481 191 462Q184 451 182 436T176 397L161 289Q151 229 99 208Q146 185 138 126L122 15Q119 -10 118 -26T120 -52Q128 -69 169
-69L161 -128Q121 -128 96 -123T57 -101T41 -57T45 15L58 100Q63 143 54 158T17 175L27 241Q77 241 84 293L99 398Z" />
<glyph unicode="|" glyph-name="bar" horiz-adv-x="206" d="M92 -157H17L114 532H189L92 -157Z" />
<glyph unicode="}" glyph-name="braceright" horiz-adv-x="269" d="M246 173Q218 173 206 159Q192 143 187 104L173 11Q162 -77 126 -106Q107 -120 81 -124T17 -128L25 -69Q67 -69 81 -51Q88 -42 90 -27T97 11L112 126Q120 184 173 206Q127 229 135 289L150 397Q153
422 155 438T153 464Q145 481 103 481L111 540Q150 540 175 535T215 516Q242 488 228 401L216 310Q210 268 219 255T256 240L246 173Z" />
<glyph unicode="~" glyph-name="asciitilde" horiz-adv-x="337" d="M17 241Q77 308 127 308Q148 308 162 300T188 281T211 263T236 254Q269 254 298 283L326 241Q288 198 256 183Q240 176 221 176T188 184T162 202T139 220T114 228T90 224T70 215Q53 205 45 195Q29
224 17 241Z" />
<glyph unicode="&#xa0;" glyph-name="nbsp" horiz-adv-x="248" />
<glyph unicode="&#xa2;" glyph-name="cent" horiz-adv-x="299" d="M124 224Q109 119 171 119Q200 119 241 137L254 80Q249 78 242 74T224 65Q204 55 173 49L165 -18H96Q99 0 101 17T107 51Q8 74 27 220Q48 371 156 398L164 470H233Q232 461 223 401Q264 399 286
388Q280 371 276 355T264 322Q244 332 208 332T153 307T124 224Z" />
<glyph unicode="&#xa9;" glyph-name="copyright" horiz-adv-x="455" d="M192 181T201 164T236 147T277 154Q278 141 278 130T279 109Q271 106 258 102T219 97Q123 97 139 225Q159 352 255 352Q288 352 312 340L297 296Q292 297 281 300T257 303Q232 303 218 286T198
225Q192 181 201 164ZM378 226Q390 309 354 360Q319 410 254 410T140 360Q91 309 79 226Q67 143 104 92Q141 42 201 42Q264 42 316 92Q366 141 378 226ZM432 226Q425 173 404 130T350 55Q284 -10 195 -10Q152 -10 117 7T60 55Q10 124 25 226Q39 331 108 399Q173
463 262 463Q350 463 398 399Q448 334 432 226Z" />
<glyph unicode="&#xae;" glyph-name="registered" horiz-adv-x="389" d="M184 399L174 331Q192 331 208 339T227 367Q230 386 224 392T202 399H184ZM150 431Q150 431 204 433Q239 433 256 420T270 376T252 332T219 310L255 227H208L185 289Q182 291 178 292T170
297L160 227H122L150 431ZM320 329Q326 366 320 395T300 445Q271 486 216 486Q160 486 120 445Q79 403 69 330Q58 259 89 214Q118 173 172 173Q228 173 268 214Q310 257 320 329ZM366 330Q359 283 341 246T296 182Q239 127 167 127Q93 127 52 182Q9 238 25 330Q37
421 95 477Q151 531 224 531Q298 531 337 477Q378 421 366 330Z" />
<glyph unicode="&#xbc;" glyph-name="onequarter" horiz-adv-x="650" d="M215 8Q195 11 178 13T140 20L448 483L523 473L215 8ZM58 437Q143 502 170 519H235L184 163H105L144 434Q101 399 82 386L58 437ZM553 276L438 75H498L507 137L582 148L571 75H600L592 15H563L550
-77H476L490 15H346L353 64L476 276H553Z" />
<glyph unicode="&#xbd;" glyph-name="onehalf" horiz-adv-x="666" d="M577 -77H367L376 -18Q387 -7 410 15T458 64Q517 128 524 172Q533 217 484 217Q464 217 446 212T422 204L417 262Q427 266 452 274T511 283Q566 283 591 257T609 182Q601 130 560 80Q528 42
471 -8H587L577 -77ZM215 8Q195 11 178 13T140 20L448 483L523 473L215 8ZM58 437Q143 502 170 519H235L184 163H105L144 434Q101 399 82 386L58 437Z" />
<glyph unicode="&#xbe;" glyph-name="threequarters" horiz-adv-x="718" d="M283 8Q264 11 246 13T208 20L516 483L591 473L283 8ZM621 276L507 75H566L575 137L650 148L639 75H668L660 15H632L618 -77H545L558 15H415L422 64L545 276H621ZM101 504Q110 507 133
514T202 521T274 499T294 433Q287 379 231 348Q258 342 272 322T282 264Q273 206 235 181T140 155Q102 155 81 164Q47 177 42 182L69 235Q73 231 92 223T138 214Q197 214 204 268Q207 292 194 303T161 314T130 314T114 313L122 367H140Q168 367 178 371T200 387T216
420Q224 461 170 461Q148 461 129 456T106 449L101 504Z" />
<glyph unicode="&#xc4;" glyph-name="Adieresis" d="M250 365Q243 348 234 322T214 267T192 206T168 144H266Q264 174 261 205T256 266T252 322T250 365ZM207 454H322L382 0H281L272 79H145L113 0H17L207 454Z" />
<glyph unicode="&#xc5;" glyph-name="Aring" horiz-adv-x="390" d="M250 365Q243 348 234 322T214 267T192 206T168 144H266Q264 174 261 205T256 266T252 322T250 365ZM207 454H322L382 0H281L272 79H145L113 0H17L207 454Z" />
<glyph unicode="&#xc7;" glyph-name="Ccedilla" horiz-adv-x="367" d="M185 2Q184 -3 180 -9T177 -25Q177 -27 185 -30T200 -39T214 -52Q230 -73 225 -98Q220 -132 195 -148T135 -165Q112 -165 100 -158L82 -147Q77 -144 75 -142L99 -106Q103 -108 111 -114T132
-120Q159 -120 163 -95Q164 -86 157 -81T140 -71T123 -62T121 -50L144 2H185ZM134 226Q122 143 138 106Q156 66 212 66Q237 66 258 73T291 83Q292 65 292 47T294 11Q269 1 238 -5T185 -11Q92 -11 55 47T34 226T105 405T252 462Q283 462 308 456T341 446T354 441L331
369Q320 372 301 379T258 386Q198 386 171 347T134 226Z" />
<glyph unicode="&#xc9;" glyph-name="Eacute" horiz-adv-x="338" d="M17 0L81 454H326L314 376H167L152 271H264L254 198H141L124 78H273L263 0H17Z" />
<glyph unicode="&#xd1;" glyph-name="Ntilde" horiz-adv-x="398" d="M167 454L270 169H271Q273 175 276 219L309 454H394L330 0H245L139 286Q138 279 137 265T133 235L101 0H17L81 454H167ZM301 584Q326 584 350 608L382 581Q376 574 367 563T346 542Q319 516
291 516Q266 516 251 526Q220 544 208 544T188 542T173 534Q156 524 153 519L123 550Q130 557 139 567T160 588Q188 613 216 613Q236 613 254 603T281 588T301 584Z" />
<glyph unicode="&#xd7;" glyph-name="multiply" horiz-adv-x="444" d="M394 394Q322 288 261 201L345 0H235Q227 16 217 52L201 110Q195 131 192 144Q185 131 174 110T151 66Q130 28 112 0H4L144 204L66 394H178Q180 386 185 368T196 328Q209 276 213 257L218
267Q227 283 242 312T266 356T279 382T286 394H394Z" />
<glyph unicode="&#xf7;" glyph-name="divide" horiz-adv-x="322" d="M297 171H17L28 243H309L297 171ZM174 136T187 121T196 79T175 38T137 22Q116 22 103 37T94 79T115 120T153 136Q174 136 187 121ZM235 359Q230 332 213 317T176 302T143 317T134 358T154 400T191
416Q212 416 225 400T235 359Z" />
<glyph unicode="&#x2013;" glyph-name="endash" horiz-adv-x="321" d="M295 166H17L28 243H306L295 166Z" />
<glyph unicode="&#x2014;" glyph-name="emdash" horiz-adv-x="506" d="M484 167H17L27 242H495L484 167Z" />
</font>
</defs>
</svg>
