<?xml version="1.0" standalone="no"?>
<!DOCTYPE svg PUBLIC "-//W3C//DTD SVG 1.1//EN" "http://www.w3.org/Graphics/SVG/1.1/DTD/svg11.dtd">
<svg xmlns="http://www.w3.org/2000/svg">
<defs >
<font id="ProzaLibre" horiz-adv-x="1272" ><font-face
    font-family="Proza Libre"
    units-per-em="2048"
    panose-1="2 0 5 3 6 0 0 2 0 4"
    ascent="2030"
    descent="-750"
    alphabetic="0" />
<glyph unicode=" " glyph-name="space" horiz-adv-x="405" />
<glyph unicode="!" glyph-name="exclam" horiz-adv-x="747" d="M250 579L179 1465H556L486 579H250ZM370 -20Q328 -20 291 -5T225 39T181 104T165 186Q165 232 182 270T229 337T296 381T377 397Q419 397 456 381T522 337T566 271T582 189Q582 144 565 106T518
39T450 -4T370 -20Z" />
<glyph unicode="&quot;" glyph-name="quotedbl" horiz-adv-x="1276" d="M122 873Q200 960 253 1049T327 1227Q298 1257 252 1282T161 1319Q153 1339 149 1363T145 1410Q145 1455 162 1493T208 1559T276 1603T357 1619Q396 1619 433 1605T501 1560T549 1484T568
1374Q568 1319 552 1253T498 1114T396 962T237 801L122 873ZM698 873Q775 960 828 1049T902 1227Q873 1257 827 1282T736 1319Q728 1339 724 1363T720 1410Q720 1455 737 1493T783 1559T851 1603T932 1619Q971 1619 1008 1605T1076 1560T1124 1484T1143 1374Q1143
1319 1127 1253T1073 1114T972 962T812 801L698 873Z" />
<glyph unicode="#" glyph-name="numbersign" horiz-adv-x="1787" d="M398 316H142L184 538H439L512 926H256L298 1149H553L612 1465H837L778 1149H1163L1222 1465H1448L1389 1149H1644L1603 926H1348L1275 538H1531L1489 316H1234L1176 0H950L1008 316H623L565
0H340L398 316ZM665 538H1050L1122 926H737L665 538Z" />
<glyph unicode="$" glyph-name="dollar" horiz-adv-x="1377" d="M634 218Q682 218 726 228T803 258T855 310T875 385Q875 438 847 476T773 543T668 597T548 649T428 708T323 786T249 892T221 1037Q221 1119 247 1187T323 1308T442 1397T598 1451V1814H830V1465Q860
1465 898 1461T979 1450T1066 1434T1152 1413L1100 1178L1083 1170Q1036 1191 989 1205T899 1229T818 1243T754 1247Q710 1247 673 1237T608 1208T566 1161T550 1097Q550 1044 578 1007T652 940T758 886T878 834T999 775T1104 697T1179 591T1207 447Q1207 368 1182
300T1107 176T988 82T830 21V-350H598V0Q554 0 502 6T393 25T280 54T170 95L221 331L242 341Q354 287 449 253T634 218Z" />
<glyph unicode="%" glyph-name="percent" horiz-adv-x="2265" d="M1470 1465H1741L794 0H524L1470 1465ZM556 644Q468 644 396 673T273 756T193 882T165 1045Q165 1143 198 1224T289 1363T427 1453T598 1485Q686 1485 758 1456T882 1373T962 1245T990 1083Q990
986 957 905T866 766T728 676T556 644ZM580 849Q611 849 637 863T683 905T713 971T724 1058Q724 1107 713 1147T682 1217T634 1262T573 1279Q510 1279 470 1224T430 1071Q430 1022 441 981T472 911T519 866T580 849ZM1667 -20Q1578 -20 1506 9T1383 92T1303 218T1275
381Q1275 479 1308 560T1399 699T1537 789T1708 821Q1796 821 1868 792T1992 709T2072 581T2100 419Q2100 322 2067 241T1976 102T1839 12T1667 -20ZM1691 185Q1722 185 1748 199T1794 241T1824 306T1835 393Q1835 442 1824 483T1793 553T1745 598T1683 615Q1620
615 1580 560T1540 407Q1540 358 1551 317T1582 247T1630 202T1691 185Z" />
<glyph unicode="&amp;" glyph-name="ampersand" horiz-adv-x="1564" d="M1123 1178Q1123 1112 1097 1050T1028 933T929 830T811 746Q872 683 932 627T1065 509Q1087 547 1103 579T1130 642T1150 706T1168 782H1417Q1385 674 1342 577T1239 389Q1306 338 1366 299T1494
218L1333 -26Q1266 16 1200 62T1071 158Q1029 115 982 82T881 27T762 -8T623 -20Q506 -20 414 7T257 84T159 201T125 349Q125 421 151 481T220 592T320 684T439 762Q362 842 315 930T267 1114Q267 1196 303 1264T402 1382T550 1458T736 1485Q824 1485 896 1464T1018
1402T1095 1305T1123 1178ZM912 285Q868 324 827 360T745 435T664 515T581 603Q519 565 487 515T454 401Q454 355 471 318T521 254T599 213T698 198Q755 198 812 217T912 285ZM559 1123Q559 1091 570 1062T598 1005T637 949T681 895Q718 917 749 944T804 1001T841
1064T854 1131Q854 1161 844 1186T814 1229T768 1257T708 1267Q674 1267 647 1256T600 1226T570 1180T559 1123Z" />
<glyph unicode="&apos;" glyph-name="quotesingle" horiz-adv-x="700" d="M122 873Q200 960 253 1049T327 1227Q298 1257 252 1282T161 1319Q153 1339 149 1363T145 1410Q145 1455 162 1493T208 1559T276 1603T357 1619Q396 1619 433 1605T501 1560T549 1484T568
1374Q568 1319 552 1253T498 1114T396 962T237 801L122 873Z" />
<glyph unicode="(" glyph-name="parenleft" horiz-adv-x="881" d="M781 1500Q659 1338 589 1119T518 620Q518 342 588 124T781 -257L628 -373Q523 -278 443 -172T309 54T228 310T200 601Q200 913 308 1169T628 1617L781 1500Z" />
<glyph unicode=")" glyph-name="parenright" horiz-adv-x="882" d="M100 -257Q222 -94 292 125T363 624Q363 901 293 1120T100 1500L253 1617Q358 1522 438 1416T572 1190T654 934T682 643Q682 331 573 74T253 -373L100 -257Z" />
<glyph unicode="*" glyph-name="asterisk" horiz-adv-x="1167" d="M488 1052L478 1067L130 999L155 1218L480 1159L489 1174L246 1449L459 1537L574 1218H594L702 1537L921 1455L676 1174L685 1159L1037 1222L1012 1002L685 1062L675 1047L914 766L699 674L593
1004H573L466 681L246 763L488 1052Z" />
<glyph unicode="+" glyph-name="plus" horiz-adv-x="1304" d="M536 704V1102H768V704H1154V479H768V81H536V479H150V704H536Z" />
<glyph unicode="," glyph-name="comma" horiz-adv-x="743" d="M137 -350Q215 -262 268 -173T342 4Q313 34 267 60T176 97Q160 140 160 187Q160 232 177 270T223 337T291 381T372 397Q411 397 448 383T516 338T564 262T583 152Q583 96 567 31T513 -108T411 -261T252
-421L137 -350Z" />
<glyph unicode="-" glyph-name="hyphen" horiz-adv-x="986" d="M836 704V479H150V704H836Z" />
<glyph unicode="." glyph-name="period" horiz-adv-x="737" d="M365 -20Q323 -20 286 -5T220 39T176 104T160 186Q160 232 177 270T224 337T291 381T372 397Q414 397 451 381T517 337T561 271T577 189Q577 144 560 106T513 39T445 -4T365 -20Z" />
<glyph unicode="/" glyph-name="slash" horiz-adv-x="970" d="M626 1602H870L329 -308H85L626 1602Z" />
<glyph unicode="0" glyph-name="zero" horiz-adv-x="1473" d="M996 721Q996 845 980 946T930 1118T848 1228T732 1267Q668 1267 621 1230T541 1125T493 961T477 744Q477 620 494 519T544 347T626 237T742 198Q806 198 853 235T932 340T980 504T996 721ZM1361 757Q1361
565 1311 420T1173 177T966 30T711 -20Q576 -20 466 27T277 167T155 395T112 707Q112 899 162 1044T301 1288T507 1435T762 1485Q897 1485 1007 1437T1196 1297T1318 1069T1361 757Z" />
<glyph unicode="1" glyph-name="one" horiz-adv-x="977" d="M429 0V1134H67V1299Q164 1299 242 1310T384 1342T496 1394T584 1465H782V0H429Z" />
<glyph unicode="2" glyph-name="two" horiz-adv-x="1251" d="M91 91Q262 272 379 410T568 657T673 851T705 1013Q705 1079 684 1124T627 1197T545 1238T448 1251Q408 1251 369 1244T293 1226T224 1202T164 1174V1336Q207 1369 260 1396T373 1443T497 1474T629
1485Q731 1485 812 1459T951 1383T1040 1261T1071 1097Q1071 1005 1038 911T935 711T756 484T495 218H1136L1092 0H90L91 91Z" />
<glyph unicode="3" glyph-name="three" horiz-adv-x="1191" d="M1040 1192Q1040 1139 1019 1095T958 1010T858 932T722 852V835Q804 819 868 788T976 713T1043 612T1066 489Q1066 433 1048 375T986 263T872 160T697 77T451 21T125 0V218Q304 218 416 239T592 296T678
376T701 468Q701 528 671 568T589 633T468 665T322 668V838Q371 852 432 873T548 925T638 998T675 1097Q675 1137 655 1166T603 1214T529 1242T444 1251Q404 1251 364 1245T284 1227T209 1202T143 1172V1334Q187 1368 242 1395T358 1443T486 1474T618 1485Q719
1485 797 1461T930 1396T1012 1302T1040 1192Z" />
<glyph unicode="4" glyph-name="four" horiz-adv-x="1344" d="M62 517L593 1465H1054V608H1284L1243 391H1054V0H703V391H62V517ZM703 608V1049L711 1261H691L595 1054L346 608H703Z" />
<glyph unicode="5" glyph-name="five" horiz-adv-x="1109" d="M197 1465H976L939 1247H411L383 974Q524 974 635 944T824 859T943 726T984 553Q984 496 968 433T912 309T809 191T651 93T428 25T132 0V218Q267 218 359 241T507 305T588 397T612 506Q612 570 586
617T513 695T403 741T267 756H127L197 1465Z" />
<glyph unicode="6" glyph-name="six" horiz-adv-x="1348" d="M653 801Q674 815 700 829T755 854T817 873T883 880Q952 880 1017 853T1132 775T1213 654T1244 495Q1244 396 1204 303T1089 139T906 24T662 -20Q517 -20 412 28T238 156T137 341T104 559Q104 661 130
768T209 975T342 1165T528 1321T768 1426T1063 1465H1121V1247H1074Q904 1247 788 1197T601 1060T500 860T469 616Q469 529 482 453T524 320T595 231T696 198Q736 198 769 216T827 267T865 347T879 452Q879 502 869 543T838 614T786 660T712 677Q696 677 682 675T653
668V801Z" />
<glyph unicode="7" glyph-name="seven" horiz-adv-x="1117" d="M85 1247L123 1465H1037L1036 1365Q894 1018 772 679T546 0H183Q306 318 440 626T724 1247H85Z" />
<glyph unicode="8" glyph-name="eight" horiz-adv-x="1346" d="M426 736Q378 762 334 794T256 867T201 958T180 1073Q180 1160 219 1235T328 1366T495 1453T710 1485Q817 1485 903 1459T1051 1386T1145 1278T1178 1146Q1178 1087 1156 1037T1096 943T1009 864T905
797Q971 764 1029 729T1132 649T1202 550T1228 421Q1228 331 1188 251T1073 111T889 15T645 -20Q520 -20 422 10T256 91T153 209T117 350Q117 415 142 470T211 573T310 660T426 736ZM596 656Q520 608 478 546T437 414Q438 367 456 328T507 260T585 215T684 198Q734
198 776 212T848 251T895 312T912 390Q912 439 889 475T823 541T723 598T596 656ZM724 875Q802 926 836 982T870 1095Q869 1138 853 1170T809 1224T747 1256T675 1267Q638 1267 604 1257T544 1226T502 1175T486 1106Q486 1065 504 1033T553 973T628 923T724 875Z"
/>
<glyph unicode="9" glyph-name="nine" horiz-adv-x="1348" d="M695 664Q674 650 648 636T593 610T531 592T465 585Q396 585 331 612T216 689T135 811T104 970Q104 1069 144 1162T259 1326T442 1441T686 1485Q831 1485 936 1437T1110 1309T1211 1124T1244 906Q1244
804 1218 697T1139 490T1006 300T820 144T580 39T285 0H227V218H274Q444 218 560 268T747 404T848 605T879 849Q879 936 866 1012T824 1144T753 1234T652 1267Q612 1267 579 1249T521 1198T483 1117T469 1013Q469 963 479 922T510 851T562 805T636 788Q652 788
666 790T695 796V664Z" />
<glyph unicode=":" glyph-name="colon" horiz-adv-x="787" d="M390 -20Q348 -20 311 -5T245 39T201 104T185 186Q185 232 202 270T249 337T316 381T397 397Q439 397 476 381T542 337T586 271T602 189Q602 144 585 106T538 39T470 -4T390 -20ZM390 636Q348 636
311 651T245 695T201 760T185 842Q185 888 202 926T249 993T316 1037T397 1053Q439 1053 476 1037T542 993T586 927T602 845Q602 800 585 762T538 695T470 652T390 636Z" />
<glyph unicode=";" glyph-name="semicolon" horiz-adv-x="793" d="M388 636Q346 636 309 651T244 695T200 760T183 842Q183 888 200 926T247 993T315 1037T396 1053Q438 1053 475 1037T540 993T584 927T601 845Q601 800 584 762T537 695T469 652T388 636ZM162
-350Q240 -262 293 -173T367 4Q338 34 292 60T201 97Q185 140 185 187Q185 232 202 270T248 337T316 381T397 397Q436 397 473 383T541 338T589 262T608 152Q608 96 592 31T538 -108T436 -261T277 -421L162 -350Z" />
<glyph unicode="&lt;" glyph-name="less" horiz-adv-x="1170" d="M150 714L962 1164V908L413 602L962 296V40L150 490V714Z" />
<glyph unicode="=" glyph-name="equal" horiz-adv-x="1403" d="M1203 470V245H200V470H1203ZM1203 939V714H200V939H1203Z" />
<glyph unicode="&gt;" glyph-name="greater" horiz-adv-x="1170" d="M1020 490L207 40V296L756 602L207 908V1164L1020 714V490Z" />
<glyph unicode="?" glyph-name="question" horiz-adv-x="1076" d="M468 1269Q441 1269 405 1263T328 1245T247 1213T168 1169L150 1178L92 1369Q214 1434 333 1459T555 1485Q669 1485 749 1461T881 1396T957 1302T981 1190Q981 1137 964 1095T920 1018T857 953T784
895T711 838T648 776T603 704T586 617Q586 608 586 598T587 579H351Q346 601 344 620T341 663Q341 728 362 779T414 871T482 948T550 1015T602 1079T623 1149Q623 1177 611 1199T578 1236T529 1260T468 1269ZM479 -20Q437 -20 400 -5T334 39T290 104T274 186Q274
232 291 270T338 337T405 381T486 397Q528 397 565 381T631 338T675 272T691 190Q691 144 674 106T627 39T559 -4T479 -20Z" />
<glyph unicode="@" glyph-name="at" horiz-adv-x="2368" d="M1362 178Q1321 128 1284 91T1210 29T1135 -8T1054 -20Q979 -20 918 15T813 109T745 240T721 391Q721 489 760 585T875 757T1060 880T1311 926Q1378 926 1464 912T1654 864V232Q1727 263 1779 314T1864
429T1912 561T1927 697Q1927 832 1873 930T1730 1093T1524 1189T1281 1220Q1162 1220 1056 1194T859 1117T697 994T575 829T497 628T470 395Q470 235 516 103T656 -124T888 -271T1214 -324Q1284 -324 1363 -316T1523 -289T1685 -242T1836 -172V-329Q1763 -388 1676
-429T1498 -497T1314 -536T1136 -549Q1014 -549 896 -524T672 -449T477 -324T323 -147T222 82T185 364Q185 528 226 672T343 936T522 1150T750 1310T1016 1410T1307 1445Q1417 1445 1525 1426T1730 1367T1910 1270T2053 1133T2148 958T2183 744Q2183 604 2132 477T1981
246T1735 67T1400 -44L1362 178ZM1362 686Q1342 697 1308 704T1241 712Q1186 712 1145 688T1075 626T1032 539T1017 441Q1017 399 1027 359T1055 287T1100 236T1160 216Q1185 216 1212 228T1266 261T1317 310T1362 371V686Z" />
<glyph unicode="A" glyph-name="A" horiz-adv-x="1457" d="M938 339H440L345 0H50L516 1465H942L1407 0H1034L938 339ZM883 542L748 1024L698 1244H678L629 1024L494 542H883Z" />
<glyph unicode="B" glyph-name="B" horiz-adv-x="1446" d="M1024 814Q1081 799 1138 770T1240 698T1313 596T1341 463Q1341 375 1297 292T1168 144T960 40T677 0H182V1465H730Q865 1465 967 1441T1138 1373T1242 1271T1277 1145Q1277 1091 1257 1045T1202 958T1121
883T1024 814ZM535 218H705Q772 218 823 237T908 288T959 362T976 449Q976 504 955 543T896 607T806 643T694 655H535V218ZM825 858Q870 889 900 941T931 1060Q931 1103 915 1137T868 1196T794 1234T697 1247H535V858H825Z" />
<glyph unicode="C" glyph-name="C" horiz-adv-x="1438" d="M1323 135Q1275 95 1214 66T1087 18T951 -10T819 -20Q667 -20 538 30T314 174T166 398T112 691Q112 818 144 926T234 1122T371 1278T543 1392T739 1461T950 1485Q984 1485 1029 1483T1125 1474T1229 1458T1333
1434L1281 1198L1261 1190Q1169 1234 1086 1250T939 1267Q835 1267 750 1230T604 1124T510 961T476 750Q476 632 510 534T611 364T772 253T990 213Q1084 213 1165 235T1323 295V135Z" />
<glyph unicode="D" glyph-name="D" horiz-adv-x="1660" d="M182 1465H756Q949 1465 1096 1416T1344 1278T1496 1062T1548 783Q1548 691 1529 597T1467 416T1359 253T1200 120T986 32T712 -1L182 0V1465ZM535 218H750Q861 218 942 258T1077 370T1157 539T1183 750Q1183
1000 1065 1123T727 1247H535V218Z" />
<glyph unicode="E" glyph-name="E" horiz-adv-x="1270" d="M182 0V1465H1138L1099 1247H535V858H1027L991 655H535V218H1148L1109 0H182Z" />
<glyph unicode="F" glyph-name="F" horiz-adv-x="1231" d="M182 0V1465H1138L1099 1247H535V858H1027L991 655H535V0H182Z" />
<glyph unicode="G" glyph-name="G" horiz-adv-x="1571" d="M1407 82Q1263 28 1133 4T875 -20Q683 -20 540 30T302 171T160 391T112 675Q112 808 144 919T234 1121T372 1279T546 1393T747 1462T965 1485Q1001 1485 1048 1483T1147 1474T1254 1458T1360 1434L1309
1198L1289 1189Q1243 1211 1197 1226T1108 1250T1025 1263T953 1267Q844 1267 756 1230T606 1125T510 958T476 739Q476 623 506 525T595 353T736 239T923 198Q941 198 963 199T1009 203T1055 210T1096 221V729H1407V82Z" />
<glyph unicode="H" glyph-name="H" horiz-adv-x="1677" d="M182 0V1465H535V866H1142V1465H1495V0H1142V648H535V0H182Z" />
<glyph unicode="I" glyph-name="I" horiz-adv-x="717" d="M535 0H182V1465H535V0Z" />
<glyph unicode="J" glyph-name="J" horiz-adv-x="717" d="M-116 -349Q-30 -293 27 -235T119 -110T167 40T181 227V1465H535V311Q535 158 503 35T403 -187T229 -362T-25 -496L-116 -349Z" />
<glyph unicode="K" glyph-name="K" horiz-adv-x="1613" d="M535 0H182V1465H535V0ZM1130 0L624 740L1178 1465H1512L963 818L1558 0H1130Z" />
<glyph unicode="L" glyph-name="L" horiz-adv-x="1172" d="M182 0V1465H535V218H1084L1045 0H182Z" />
<glyph unicode="M" glyph-name="M" horiz-adv-x="2130" d="M148 0L264 1465H763L981 704L1038 432H1058L1120 704L1337 1465H1868L1984 0H1603L1555 986L1553 1250H1529L1467 994L1187 29H864L582 992L518 1250H495L493 988L447 0H148Z" />
<glyph unicode="N" glyph-name="N" horiz-adv-x="1724" d="M179 0V1465H659L1146 665L1255 447H1275L1264 692V1465H1545V0H1178L571 990L469 1198H449L460 968V0H179Z" />
<glyph unicode="O" glyph-name="O" horiz-adv-x="1750" d="M883 198Q976 198 1049 241T1172 356T1248 524T1274 724Q1274 836 1245 934T1163 1107T1034 1224T866 1267Q773 1267 701 1224T579 1108T503 940T477 740Q477 628 506 530T588 358T716 241T883 198ZM849
-20Q692 -20 558 28T324 169T169 396T112 701Q112 876 171 1020T336 1268T586 1428T902 1485Q1058 1485 1192 1437T1426 1297T1581 1070T1638 765Q1638 648 1611 545T1535 354T1414 197T1256 80T1066 6T849 -20Z" />
<glyph unicode="P" glyph-name="P" horiz-adv-x="1407" d="M535 0H182V1465H708Q853 1465 965 1433T1153 1339T1269 1192T1308 998Q1308 881 1266 786T1150 625T980 522T772 486Q756 486 741 487T706 491L723 691Q731 689 743 689T765 688Q815 688 852 709T914
768T951 854T964 959Q964 1037 945 1091T889 1180T801 1231T685 1247H535V0Z" />
<glyph unicode="Q" glyph-name="Q" horiz-adv-x="1746" d="M846 -20Q688 -20 554 29T322 172T168 399T112 702Q112 877 171 1021T336 1268T586 1428T902 1485Q1058 1485 1192 1437T1426 1297T1581 1070T1638 765Q1638 640 1607 531T1519 331T1383 172T1208 58L1937
-194L1752 -442L846 -20ZM883 198Q976 198 1049 241T1172 356T1248 524T1274 724Q1274 836 1245 934T1163 1107T1034 1224T866 1267Q773 1267 701 1224T579 1108T503 940T477 740Q477 629 506 530T588 358T716 241T883 198Z" />
<glyph unicode="R" glyph-name="R" horiz-adv-x="1449" d="M535 542V0H182V1465H708Q851 1465 957 1434T1133 1351T1239 1229T1274 1084Q1274 1015 1248 954T1181 841T1090 747T991 672L1401 0H991L721 542H535ZM535 745H788Q816 760 841 785T886 842T918 915T930
1002Q930 1054 914 1099T866 1177T787 1228T677 1247H535V745Z" />
<glyph unicode="S" glyph-name="S" horiz-adv-x="1217" d="M557 198Q604 198 647 208T723 241T776 297T796 378Q796 434 768 473T694 541T588 595T468 646T348 705T243 784T168 893T140 1045Q140 1146 179 1227T290 1366T463 1454T690 1485Q724 1485 769 1483T867
1474T974 1458T1082 1433L1031 1198L1013 1190Q966 1211 920 1225T830 1249T748 1263T681 1267Q585 1267 528 1226T470 1106Q470 1050 498 1012T572 943T678 889T798 837T919 778T1024 700T1099 592T1127 442Q1127 340 1087 256T973 110T793 14T555 -20Q506 -20
449 -15T332 2T209 31T89 75L141 311L161 321Q218 294 270 271T370 232T465 207T557 198Z" />
<glyph unicode="T" glyph-name="T" horiz-adv-x="1385" d="M866 0H513V1247H58L97 1465H1326L1287 1247H866V0Z" />
<glyph unicode="U" glyph-name="U" horiz-adv-x="1545" d="M525 1465V533Q525 448 547 385T609 281T699 219T810 198Q870 198 921 219T1011 281T1071 384T1093 528V1465H1373V565Q1373 443 1335 337T1219 151T1025 26T755 -20Q621 -20 513 16T330 123T213 299T172
545V1465H525Z" />
<glyph unicode="V" glyph-name="V" horiz-adv-x="1458" d="M1111 1465H1410L931 0H525L48 1465H424L708 480L758 269H778L828 480L1111 1465Z" />
<glyph unicode="W" glyph-name="W" horiz-adv-x="2183" d="M1318 1357L1520 482L1560 269H1580L1617 482L1828 1465H2119L1754 0H1330L1149 766L1105 1009H1085L1042 766L861 0H430L63 1465H431L644 482L680 269H700L740 482L941 1357H1318Z" />
<glyph unicode="X" glyph-name="X" horiz-adv-x="1497" d="M46 0L582 729L82 1465H493L680 1161L782 976H802L910 1164L1102 1465H1428L919 778L1450 0H1040L821 352L724 525H704L601 351L371 0H46Z" />
<glyph unicode="Y" glyph-name="Y" horiz-adv-x="1411" d="M879 637V0H526V628L35 1465H439L651 1046L736 847H756L843 1047L1056 1465H1376L879 637Z" />
<glyph unicode="Z" glyph-name="Z" horiz-adv-x="1345" d="M786 1233V1253L597 1247H144L183 1465H1217V1387L622 380L516 228V210L702 218H1258L1219 0H88V76L677 1080L786 1233Z" />
<glyph unicode="[" glyph-name="bracketleft" horiz-adv-x="954" d="M242 1602H839V1377H482V-133H839V-358H242V1602Z" />
<glyph unicode="\" glyph-name="backslash" horiz-adv-x="970" d="M885 -308H640L99 1602H344L885 -308Z" />
<glyph unicode="]" glyph-name="bracketright" horiz-adv-x="954" d="M711 -358H115V-133H471V1377H115V1602H711V-358Z" />
<glyph unicode="^" glyph-name="asciicircum" horiz-adv-x="1201" d="M728 1465L1096 665H848L601 1203L353 665H105L474 1465H728Z" />
<glyph unicode="_" glyph-name="underscore" horiz-adv-x="1057" d="M1022 0V-225H35V0H1022Z" />
<glyph unicode="`" glyph-name="grave" horiz-adv-x="946" d="M483 1240L200 1602H547L746 1240H483Z" />
<glyph unicode="a" glyph-name="a" horiz-adv-x="1225" d="M722 153Q692 128 654 98T571 42T475 -2T367 -20Q298 -20 246 6T160 76T108 173T90 281Q90 355 123 420T228 533T409 610T671 638H710V700Q710 781 660 823T526 865Q489 865 449 856T367 832T287 795T214
750L196 760L137 971Q266 1031 381 1055T607 1080Q702 1080 784 1062T927 1004T1023 898T1058 738V312Q1058 294 1061 277T1072 245T1094 222T1130 213Q1144 213 1157 215T1188 224V76Q1123 31 1058 6T932 -20Q853 -20 802 25T722 153ZM710 516H672Q593 516 542
505T460 472T417 422T405 355Q405 317 416 291T445 247T488 221T540 213Q577 213 619 228T710 284V516Z" />
<glyph unicode="b" glyph-name="b" horiz-adv-x="1352" d="M149 1602H496V912Q536 944 578 974T666 1028T761 1066T864 1080Q957 1080 1031 1038T1156 925T1236 763T1264 572Q1264 448 1220 340T1090 152T878 26T589 -20Q548 -20 497 -17T388 -6T270 14T149 46V1602ZM496
229Q538 211 576 203T646 195Q711 195 760 224T841 300T890 409T907 536Q907 600 892 656T846 755T773 821T672 846Q636 846 592 832T496 775V229Z" />
<glyph unicode="c" glyph-name="c" horiz-adv-x="1048" d="M963 111Q874 38 784 9T597 -20Q476 -20 381 17T221 120T122 277T87 479Q87 612 136 723T271 913T473 1036T722 1080Q770 1080 838 1072T976 1041L926 815L907 805Q891 815 869 826T821 845T766 859T708
865Q650 865 602 843T519 778T465 674T445 536Q445 452 468 391T532 291T631 232T758 213Q804 213 851 223T963 259V111Z" />
<glyph unicode="d" glyph-name="d" horiz-adv-x="1352" d="M855 833Q808 853 772 859T712 865Q644 865 594 837T510 762T460 651T443 518Q443 450 458 394T500 298T566 235T651 213Q703 213 757 239T855 312V833ZM855 1602H1203V0H906L867 164Q830 131 790 98T704
39T607 -3T498 -20Q402 -20 326 22T197 135T115 296T87 482Q87 566 108 643T168 786T261 907T382 999T525 1059T685 1080Q736 1080 782 1073T855 1058V1602Z" />
<glyph unicode="e" glyph-name="e" horiz-adv-x="1222" d="M1079 111Q1025 73 969 48T856 7T746 -14T642 -20Q514 -20 411 14T236 114T126 274T87 491Q87 629 135 738T263 923T450 1039T672 1080Q772 1080 856 1049T1002 958T1098 808T1132 601Q1132 563 1129
531T1120 478H444Q444 408 468 358T538 276T648 228T791 213Q819 213 853 215T925 222T1002 236T1079 259V111ZM817 600Q817 669 804 719T766 801T709 849T637 865Q594 865 559 847T498 795T458 712T444 600H817Z" />
<glyph unicode="f" glyph-name="f" horiz-adv-x="948" d="M234 845H21L43 995L235 1060V1094Q235 1204 268 1300T365 1467T524 1580T742 1622Q792 1622 847 1615T953 1592L905 1383L887 1373Q861 1389 828 1398T761 1407Q713 1407 679 1387T623 1330T591 1241T581
1122V1060H913L864 845H581V0H234V845Z" />
<glyph unicode="g" glyph-name="g" horiz-adv-x="1264" d="M466 -99Q449 -111 432 -124T402 -152T380 -184T371 -222Q371 -273 428 -307T597 -341Q663 -341 713 -329T796 -296T847 -249T864 -196Q864 -151 820 -125T697 -99H466ZM297 -78Q212 -49 168 -6T123 91Q123
126 143 156T195 212T267 262T350 309Q275 336 226 375T146 461T104 557T91 655Q91 749 132 827T246 962T414 1049T619 1080Q658 1080 697 1076T774 1063T844 1043T903 1014Q918 1022 937 1030T980 1045T1035 1056T1105 1060H1257L1208 845H1033Q1046 824 1061
786T1076 693Q1076 605 1034 531T922 402T759 318T567 287Q555 287 543 287T517 289Q505 282 492 273T468 253T449 228T441 199Q441 171 465 153T536 135H780Q852 135 923 120T1051 73T1143 -9T1179 -129Q1179 -201 1138 -277T1015 -415T808 -516T519 -556Q419
-556 334 -541T187 -496T89 -424T54 -328Q54 -284 76 -248T134 -181T212 -125T297 -78ZM400 689Q400 643 415 606T456 541T518 499T593 484Q631 484 664 497T723 536T763 598T778 679Q778 724 763 761T722 826T660 867T585 882Q547 882 514 869T455 830T415 770T400
689Z" />
<glyph unicode="h" glyph-name="h" horiz-adv-x="1354" d="M149 1602H496V891Q536 925 579 958T671 1019T771 1063T882 1080Q953 1080 1012 1054T1114 980T1181 865T1205 714V0H857V665Q857 709 845 743T812 800T761 834T698 846Q644 846 595 820T496 751V0H149V1602Z" />
<glyph unicode="i" glyph-name="i" horiz-adv-x="646" d="M149 1060H496V0H149V1060ZM318 1227Q273 1227 237 1240T176 1276T136 1330T122 1397Q122 1434 137 1466T180 1522T245 1560T328 1574Q372 1574 408 1561T470 1524T510 1470T524 1403Q524 1366 509 1334T466
1278T401 1241T318 1227Z" />
<glyph unicode="j" glyph-name="j" horiz-adv-x="645" d="M-53 -427Q5 -380 43 -323T105 -201T139 -67T149 73V1060H496V156Q496 50 477 -54T407 -251T269 -423T45 -557L-53 -427ZM318 1227Q273 1227 237 1240T176 1276T136 1330T122 1397Q122 1434 137 1466T180
1522T245 1560T328 1574Q372 1574 408 1561T470 1524T510 1470T524 1403Q524 1366 509 1334T466 1278T401 1241T318 1227Z" />
<glyph unicode="k" glyph-name="k" horiz-adv-x="1295" d="M149 1602H496V0H149V1602ZM853 0L536 546L917 1051H1238L864 604L1261 0H853Z" />
<glyph unicode="l" glyph-name="l" horiz-adv-x="645" d="M149 1602H496V0H149V1602Z" />
<glyph unicode="m" glyph-name="m" horiz-adv-x="2014" d="M149 1060H442L484 886Q520 918 562 952T651 1014T749 1061T854 1080Q909 1080 956 1064T1040 1021T1105 957T1149 880Q1190 914 1233 949T1323 1014T1422 1061T1535 1080Q1611 1080 1672 1051T1775 972T1840
855T1863 712V0H1515V664Q1515 706 1504 740T1473 797T1426 833T1366 846Q1314 846 1270 819T1177 750Q1179 741 1179 732T1179 712V0H832V664Q832 749 790 797T682 846Q632 846 588 819T496 751V0H149V1060Z" />
<glyph unicode="n" glyph-name="n" horiz-adv-x="1354" d="M149 1060H442L484 886Q518 916 560 950T652 1013T758 1061T875 1080Q949 1080 1009 1054T1113 979T1181 864T1205 714V0H857V664Q857 709 845 743T811 800T760 834T698 846Q643 846 594 819T496 751V0H149V1060Z"
/>
<glyph unicode="o" glyph-name="o" horiz-adv-x="1338" d="M632 -20Q495 -20 393 22T222 136T121 302T87 501Q87 622 131 728T255 912T450 1035T704 1080Q840 1080 942 1038T1113 925T1215 759T1250 557Q1250 433 1205 328T1079 145T884 24T632 -20ZM675 195Q722
195 761 215T830 275T875 376T892 516Q892 591 877 655T832 765T760 838T662 865Q614 865 574 844T506 781T461 680T445 542Q445 463 461 399T507 290T579 220T675 195Z" />
<glyph unicode="p" glyph-name="p" horiz-adv-x="1352" d="M496 226Q538 207 577 201T641 195Q707 195 757 223T840 300T891 410T908 538Q908 608 893 665T851 762T785 824T701 846Q648 846 594 820T496 748V226ZM484 895Q521 929 562 962T648 1021T744 1063T853
1080Q949 1080 1025 1038T1155 925T1236 764T1264 577Q1264 493 1243 416T1183 273T1090 152T969 60T825 1T665 -20Q642 -20 618 -19T572 -15T530 -8T496 1V-536H149V1060H444L484 895Z" />
<glyph unicode="q" glyph-name="q" horiz-adv-x="1352" d="M715 1080Q804 1080 876 1062T994 1020L1203 1086V-536H855V148Q815 116 772 86T684 32T589 -6T487 -20Q395 -20 321 22T195 133T115 293T87 481Q87 607 133 716T263 906T462 1033T715 1080ZM855 830Q775
865 704 865Q639 865 591 838T510 766T461 659T445 530Q445 462 460 404T504 304T577 237T678 213Q718 213 763 230T855 285V830Z" />
<glyph unicode="r" glyph-name="r" horiz-adv-x="1018" d="M149 1060H442L484 749Q500 778 516 808T547 863T573 908T590 936Q609 967 633 993T686 1039T751 1069T831 1080Q860 1080 894 1073T958 1048L920 736Q911 738 896 739T865 742T833 743T805 744Q704 744
625 705T496 605V0H149V1060Z" />
<glyph unicode="s" glyph-name="s" horiz-adv-x="1037" d="M130 280L148 290Q231 245 320 220T483 195Q524 195 554 203T603 226T632 258T642 297Q642 330 620 351T560 387T475 413T378 439T281 474T196 526T136 605T113 721Q113 800 145 866T241 979T398 1053T613
1080Q644 1080 683 1078T762 1072T841 1061T911 1045L860 820L841 809Q769 839 699 852T578 865Q537 865 508 857T461 836T435 805T426 767Q426 732 449 711T509 675T594 649T691 624T789 591T874 539T934 461T957 346Q957 273 928 207T838 90T687 10T471 -20Q424
-20 374 -16T273 -2T173 21T80 54L130 280Z" />
<glyph unicode="t" glyph-name="t" horiz-adv-x="1023" d="M234 845H21L43 992Q96 1011 135 1028T203 1064T255 1107T298 1161T340 1233T388 1327H560V1060H935L886 845H581V392Q581 293 632 253T780 213Q818 213 857 219T934 241V92Q856 35 763 8T576 -20Q484
-20 419 5T313 79T253 195T234 348V845Z" />
<glyph unicode="u" glyph-name="u" horiz-adv-x="1328" d="M149 1060H496V398Q496 356 507 322T538 263T585 226T646 213Q697 213 743 241T832 310V1060H1179V0H886L843 173Q807 141 766 107T678 44T581 -2T475 -20Q414 -20 356 3T251 71T177 186T149 347V1060Z" />
<glyph unicode="v" glyph-name="v" horiz-adv-x="1159" d="M37 1060H411L568 452L609 248H629L667 452L826 1060H1122L778 0H381L37 1060Z" />
<glyph unicode="w" glyph-name="w" horiz-adv-x="1819" d="M413 1060L533 450L567 247H585L622 449L762 1028H1138L1277 450L1316 247H1336L1367 449L1491 1060H1779L1489 0H1098L968 523L928 760H908L863 522L724 0H329L40 1060H413Z" />
<glyph unicode="x" glyph-name="x" horiz-adv-x="1187" d="M31 0L418 532L54 1060H455L555 891L633 718H650L728 891L829 1060H1134L768 567L1156 0H757L634 205L553 369H536L459 207L337 0H31Z" />
<glyph unicode="y" glyph-name="y" horiz-adv-x="1159" d="M37 1060H411L567 456L609 247H629L668 456L826 1060H1122L606 -536H303L532 0H381L37 1060Z" />
<glyph unicode="z" glyph-name="z" horiz-adv-x="1094" d="M72 76L463 693L567 831V851L383 845H108L157 1060H993V984L599 366L495 225V207L673 215H1021L972 0H72V76Z" />
<glyph unicode="{" glyph-name="braceleft" horiz-adv-x="1027" d="M100 705Q144 720 183 739T252 788T299 859T316 957V1142Q316 1253 350 1338T447 1482T600 1571T803 1602H912V1377H800Q682 1377 619 1313T556 1138V963Q556 832 501 748T327 622Q446 580 501
496T556 281V106Q556 -4 619 -68T800 -133H912V-358H803Q690 -358 600 -328T447 -240T350 -95T316 102V287Q316 344 299 385T253 455T184 503T100 538V705Z" />
<glyph unicode="|" glyph-name="bar" horiz-adv-x="695" d="M227 1602H467V-537H227V1602Z" />
<glyph unicode="}" glyph-name="braceright" horiz-adv-x="1027" d="M927 538Q883 523 844 504T776 455T729 385T711 287V102Q711 -9 677 -95T580 -239T427 -328T224 -358H115V-133H227Q286 -133 331 -116T408 -68T455 7T471 106V281Q471 412 526 496T700 622Q581
664 526 748T471 963V1138Q471 1193 455 1237T408 1312T332 1360T227 1377H115V1602H224Q337 1602 427 1572T580 1483T677 1339T711 1142V957Q711 900 728 859T775 789T844 740T927 705V538V538Z" />
<glyph unicode="~" glyph-name="asciitilde" horiz-adv-x="1481" d="M970 554Q1028 554 1060 624T1091 845H1316Q1317 695 1285 596T1199 438T1079 355T947 331Q881 331 833 352T748 406T683 476T628 546T574 600T511 622Q452 622 420 552T390 331H165Q163 480
196 579T282 737T400 820T531 845Q599 845 648 824T734 770T799 700T854 630T907 576T970 554Z" />
<glyph unicode="&#xa0;" glyph-name="uni00A0" horiz-adv-x="452" />
<glyph unicode="&#xa1;" glyph-name="exclamdown" horiz-adv-x="747" d="M497 481L568 -405H191L261 481H497ZM370 663Q328 663 291 678T225 722T181 787T165 869Q165 915 182 953T229 1020T297 1064T377 1080Q419 1080 456 1064T522 1020T566 954T582 872Q582
827 565 789T518 722T451 679T370 663Z" />
<glyph unicode="&#xa2;" glyph-name="cent" horiz-adv-x="1240" d="M594 177Q493 190 414 231T281 336T199 486T170 671Q170 777 201 869T288 1036T423 1165T594 1248V1606H819V1271H843Q861 1271 887 1269T942 1262T1001 1250T1059 1233L1008 1007L989 997Q973
1007 951 1018T903 1037T849 1051T791 1057Q733 1057 685 1035T601 970T547 866T527 728Q527 644 550 583T615 483T714 424T841 405Q886 405 933 415T1045 451V303Q991 258 935 231T819 189V-163H594V177Z" />
<glyph unicode="&#xa3;" glyph-name="sterling" horiz-adv-x="1429" d="M374 827V951Q374 1077 419 1176T544 1344T730 1449T960 1485Q986 1485 1019 1483T1087 1477T1157 1465T1223 1448L1169 1220L1147 1210Q1105 1237 1054 1252T958 1268Q848 1268 788 1197T727
978V827H1129L1090 632H727V545Q727 448 695 371T604 231V211L803 217H1229L1188 0H189V76Q247 122 283 169T340 265T367 363T374 462V632H186L218 827H374Z" />
<glyph unicode="&#xa4;" glyph-name="currency" horiz-adv-x="1613" d="M309 761Q309 836 329 901T385 1024L187 1222L347 1381L546 1182Q606 1220 674 1240T815 1260Q884 1260 948 1241T1070 1186L1266 1381L1425 1222L1230 1027Q1265 970 1284 905T1304 765Q1304
690 1284 624T1226 501L1425 303L1265 144L1066 343Q1006 305 938 286T797 266Q728 266 664 285T542 339L347 144L187 303L382 498Q347 554 328 620T309 761ZM544 761Q544 701 565 651T623 566T706 511T806 491Q858 491 905 510T989 566T1047 652T1069 764Q1069
824 1048 874T990 960T906 1015T806 1035Q754 1035 707 1015T623 959T566 873T544 761Z" />
<glyph unicode="&#xa5;" glyph-name="yen" horiz-adv-x="1656" d="M1111 821H1373V626H277V821H535L157 1465H562L774 1045L859 847H879L963 1042L1179 1465H1499L1111 821ZM1002 287V0H648V287H277V482H1373V287H1002Z" />
<glyph unicode="&#xa6;" glyph-name="brokenbar" horiz-adv-x="695" d="M227 702V1602H467V702H227ZM467 364V-537H227V364H467Z" />
<glyph unicode="&#xa7;" glyph-name="section" horiz-adv-x="1438" d="M271 -91L289 -82Q375 -121 471 -145T659 -170Q762 -170 818 -137T875 -44Q875 -2 847 28T772 80T666 122T545 161T424 208T319 270T244 356T215 476Q215 533 234 580T285 667T357 741T441
808Q399 827 362 852T298 913T256 993T240 1098Q240 1189 278 1261T388 1383T561 1459T789 1485Q824 1485 867 1483T956 1476T1049 1462T1138 1441L1087 1210L1068 1201Q987 1236 909 1251T762 1267Q718 1267 681 1261T618 1240T577 1205T562 1153Q562 1110 590
1081T665 1028T771 985T892 945T1013 898T1119 835T1194 748T1223 629Q1223 572 1204 524T1154 435T1084 359T1006 294Q1046 274 1081 249T1142 190T1183 113T1198 12Q1198 -79 1159 -152T1048 -278T872 -358T642 -387Q587 -387 530 -382T418 -368T312 -348T219
-323L271 -91ZM923 529Q923 578 897 611T828 669T729 711T614 747Q597 737 580 721T548 682T524 633T514 577Q514 528 540 495T611 437T711 394T827 357Q843 367 860 384T891 424T914 473T923 529Z" />
<glyph unicode="&#xa8;" glyph-name="dieresis" horiz-adv-x="1227" d="M200 1399Q200 1432 213 1462T250 1516T306 1553T375 1567Q410 1567 440 1554T493 1519T529 1468T542 1406Q542 1373 530 1343T494 1290T440 1254T370 1240Q335 1240 304 1252T250 1287T214
1337T200 1399ZM684 1399Q684 1432 697 1462T734 1516T790 1553T859 1567Q895 1567 925 1554T978 1519T1014 1468T1027 1406Q1027 1373 1014 1343T979 1290T924 1254T855 1240Q819 1240 788 1252T734 1287T698 1337T684 1399Z" />
<glyph unicode="&#xa9;" glyph-name="copyright" horiz-adv-x="2014" d="M200 725Q200 842 227 948T304 1144T427 1307T591 1431T791 1509T1021 1537Q1144 1537 1251 1509T1446 1430T1602 1306T1718 1145T1789 954T1814 741Q1814 565 1754 417T1586 160T1327 -10T992
-71Q806 -71 659 -9T410 161T254 414T200 725ZM413 741Q413 619 452 508T569 311T758 176T1017 125Q1162 125 1271 175T1454 308T1563 499T1600 725Q1600 848 1560 959T1444 1156T1255 1291T997 1342Q900 1342 819 1319T674 1255T560 1158T479 1035T430 894T413
741ZM1289 426Q1227 378 1156 354T1010 330Q932 330 862 356T740 431T658 552T627 714Q627 817 666 896T770 1028T918 1109T1090 1137Q1125 1137 1176 1131T1292 1103L1258 900L1248 896Q1198 920 1157 931T1079 942Q1039 942 1002 930T935 893T889 830T871 740Q871
693 886 654T929 587T997 543T1089 527Q1107 527 1130 529T1179 538T1234 554T1289 580V426Z" />
<glyph unicode="&#xaa;" glyph-name="ordfeminine" horiz-adv-x="1225" d="M697 685Q670 662 638 637T569 592T490 558T401 544Q338 544 292 568T216 629T172 712T157 801Q157 865 188 921T280 1019T431 1085T642 1109H683V1159Q683 1224 643 1257T537 1290Q505
1290 471 1282T401 1261T331 1229T266 1191L251 1200L196 1391Q308 1441 411 1463T614 1485Q696 1485 764 1469T880 1418T956 1325T983 1185V835Q983 802 996 778T1045 753Q1066 753 1087 760V628Q1036 592 984 568T874 544Q806 544 764 581T697 685ZM683 990H624Q514
990 468 958T422 866Q422 837 431 816T455 781T490 760T532 753Q574 753 612 771T683 818V990Z" />
<glyph unicode="&#xab;" glyph-name="guillemotleft" horiz-adv-x="1228" d="M92 626L419 1021L590 861L341 574L590 286L419 126L92 521V626ZM603 626L929 1021L1101 861L852 574L1101 286L929 126L603 521V626Z" />
<glyph unicode="&#xac;" glyph-name="logicalnot" horiz-adv-x="1433" d="M1233 812V202H1000V587H150V812H1233Z" />
<glyph unicode="&#xad;" glyph-name="uni00AD" horiz-adv-x="986" d="M836 704V479H150V704H836Z" />
<glyph unicode="&#xae;" glyph-name="registered" horiz-adv-x="2014" d="M200 725Q200 842 227 948T304 1144T427 1307T591 1431T791 1509T1021 1537Q1144 1537 1251 1509T1446 1430T1602 1306T1718 1145T1789 954T1814 741Q1814 565 1754 417T1586 160T1327
-10T992 -71Q806 -71 659 -9T410 161T254 414T200 725ZM413 741Q413 619 452 508T569 311T758 176T1017 125Q1162 125 1271 175T1454 308T1563 499T1600 725Q1600 848 1560 959T1444 1156T1255 1291T997 1342Q900 1342 819 1319T674 1255T560 1158T479 1035T430
894T413 741ZM704 329V1138H996Q1070 1138 1132 1122T1240 1074T1310 999T1336 898Q1336 856 1323 821T1289 756T1247 705T1205 666L1384 329H1120L1022 539H932V329H704ZM1047 734Q1067 750 1086 777T1106 845Q1106 891 1077 917T996 943H932V734H1047Z" />
<glyph unicode="&#xaf;" glyph-name="overscore" horiz-adv-x="1016" d="M200 1465H816V1240H200V1465Z" />
<glyph unicode="&#xb0;" glyph-name="degree" horiz-adv-x="1123" d="M155 1210Q155 1302 188 1378T277 1508T409 1592T568 1622Q650 1622 723 1593T850 1512T936 1385T968 1220Q968 1128 935 1053T845 923T713 839T554 809Q471 809 399 838T272 919T187 1046T155
1210ZM361 1219Q361 1170 377 1131T422 1063T488 1020T567 1004Q606 1004 641 1018T704 1059T746 1124T762 1210Q762 1259 745 1299T700 1367T634 1411T556 1427Q516 1427 481 1413T419 1371T377 1306T361 1219Z" />
<glyph unicode="&#xb1;" glyph-name="plusminus" horiz-adv-x="1404" d="M818 989H1204V764H818V404H586V764H200V989H586V1350H818V989ZM1204 225V0H200V225H1204Z" />
<glyph unicode="&#xb2;" glyph-name="twosuperior" horiz-adv-x="927" d="M81 587Q167 673 235 750T352 898T426 1030T452 1148Q452 1188 439 1215T403 1259T351 1283T288 1291Q243 1291 201 1281T133 1258V1391Q160 1409 197 1426T277 1456T367 1477T463 1485Q541
1485 599 1465T696 1409T754 1328T774 1229Q774 1166 748 1103T674 974T562 841T420 705H825L788 514H80L81 587Z" />
<glyph unicode="&#xb3;" glyph-name="threesuperior" horiz-adv-x="862" d="M745 1293Q745 1254 726 1223T677 1166T610 1121T536 1083V1066Q585 1055 626 1036T697 987T743 920T760 833Q760 776 732 719T629 617T428 543T102 514V704Q207 704 272 714T375 740T425
779T438 824Q438 854 421 876T374 911T300 930T203 933V1069Q234 1075 272 1085T343 1112T399 1152T422 1206Q422 1228 411 1244T379 1270T332 1286T275 1291Q230 1291 189 1281T115 1257V1386Q145 1407 184 1425T267 1457T360 1477T456 1485Q529 1485 583 1469T673
1425T727 1364T745 1293Z" />
<glyph unicode="&#xb4;" glyph-name="acute" horiz-adv-x="942" d="M200 1240L398 1602H742L458 1240H200Z" />
<glyph unicode="&#xb6;" glyph-name="paragraph" horiz-adv-x="1522" d="M661 487Q550 487 450 519T274 613T152 766T107 975Q107 1087 149 1177T273 1332T471 1430T738 1465H1337V-536H1105V1235H894V-536H661V487Z" />
<glyph unicode="&#xb7;" glyph-name="middot" horiz-adv-x="675" d="M335 346Q293 346 256 362T190 405T146 471T130 553Q130 599 147 637T194 704T261 747T342 763Q384 763 421 747T487 704T531 638T547 556Q547 510 530 472T483 405T415 362T335 346Z" />
<glyph unicode="&#xb8;" glyph-name="cedilla" horiz-adv-x="830" d="M570 6Q590 -20 606 -58T623 -151Q623 -210 599 -263T523 -357T389 -422T190 -446V-268Q253 -268 296 -257T366 -226T404 -177T416 -114Q416 -80 406 -53T376 6H570Z" />
<glyph unicode="&#xb9;" glyph-name="onesuperior" horiz-adv-x="709" d="M269 514V1204H50V1357Q178 1357 263 1385T399 1465H579V514H269Z" />
<glyph unicode="&#xba;" glyph-name="ordmasculine" horiz-adv-x="1302" d="M615 544Q498 544 412 581T269 680T185 822T157 987Q157 1090 194 1181T301 1339T467 1446T685 1485Q801 1485 887 1448T1031 1350T1116 1208T1145 1040Q1145 935 1106 845T997 687T830
582T615 544ZM656 739Q695 739 728 755T785 805T822 887T836 1003Q836 1064 824 1117T787 1208T727 1268T645 1290Q563 1290 514 1221T465 1024Q465 959 478 907T516 817T576 759T656 739Z" />
<glyph unicode="&#xbb;" glyph-name="guillemotright" horiz-adv-x="1228" d="M625 521L299 126L127 286L377 574L127 861L299 1021L625 626V521ZM1136 521L809 126L638 286L887 574L638 861L809 1021L1136 626V521Z" />
<glyph unicode="&#xbc;" glyph-name="onequarter" horiz-adv-x="2144" d="M1226 1465H1487L759 0H499L1226 1465ZM302 514V1204H82V1357Q210 1357 295 1385T432 1465H611V514H302ZM1152 336L1468 951H1882V426H2024L1994 236H1882V0H1585V236H1152V336ZM1585 426V660L1589
810H1571L1511 672L1384 426H1585Z" />
<glyph unicode="&#xbd;" glyph-name="onehalf" horiz-adv-x="2168" d="M1226 1465H1487L759 0H499L1226 1465ZM302 514V1204H82V1357Q210 1357 295 1385T432 1465H611V514H302ZM1289 73Q1375 159 1444 236T1561 384T1634 516T1660 634Q1660 674 1647 701T1612
745T1560 769T1497 777Q1452 777 1410 767T1341 744V877Q1368 895 1405 912T1485 942T1575 963T1671 971Q1749 971 1807 951T1905 895T1963 814T1983 715Q1983 652 1957 589T1883 460T1771 327T1628 191H2033L1996 0H1288L1289 73Z" />
<glyph unicode="&#xbe;" glyph-name="threequarters" horiz-adv-x="2215" d="M1297 1465H1558L830 0H570L1297 1465ZM1222 336L1539 951H1953V426H2095L2065 236H1953V0H1656V236H1222V336ZM1656 426V660L1660 810H1642L1582 672L1455 426H1656ZM778 1293Q778
1254 759 1223T710 1166T642 1121T569 1083V1066Q618 1055 659 1036T729 987T775 920T792 833Q792 776 764 719T662 617T461 543T135 514V704Q240 704 305 714T407 740T457 779T470 824Q470 854 453 876T406 911T332 930T236 933V1069Q266 1075 304 1085T375 1112T432
1152T455 1206Q455 1228 443 1244T411 1270T365 1286T308 1291Q262 1291 221 1281T147 1257V1386Q177 1407 216 1425T300 1457T392 1477T489 1485Q562 1485 616 1469T706 1425T760 1364T778 1293Z" />
<glyph unicode="&#xbf;" glyph-name="questiondown" horiz-adv-x="993" d="M570 -210Q597 -210 633 -204T710 -185T792 -153T871 -109L888 -118L946 -309Q824 -374 705 -399T483 -425Q369 -425 289 -401T157 -337T81 -243T57 -130Q57 -77 74 -35T118 42T181 107T254
165T327 222T390 284T435 356T452 443Q452 451 452 462T451 481H687Q692 459 694 439T697 396Q697 331 676 280T624 188T556 112T488 45T436 -20T415 -90Q415 -118 427 -140T460 -177T509 -201T570 -210ZM553 663Q510 663 473 678T407 722T363 787T347 869Q347
915 364 953T411 1020T479 1064T559 1080Q601 1080 638 1064T704 1020T748 954T764 872Q764 827 747 789T700 722T633 679T553 663Z" />
<glyph unicode="&#xc0;" glyph-name="Agrave" horiz-adv-x="1444" d="M1190 339H692L597 0H302L768 1465H1194L1659 0H1286L1190 339ZM1135 542L1000 1024L950 1244H930L881 1024L746 542H1135ZM659 1602L376 1955H724L922 1602H659Z" />
<glyph unicode="&#xc1;" glyph-name="Aacute" horiz-adv-x="1444" d="M1190 339H692L597 0H302L768 1465H1194L1659 0H1286L1190 339ZM1135 542L1000 1024L950 1244H930L881 1024L746 542H1135ZM516 1602L714 1955H1059L776 1602H516Z" />
<glyph unicode="&#xc2;" glyph-name="Acircumflex" horiz-adv-x="1444" d="M1190 339H692L597 0H302L768 1465H1194L1659 0H1286L1190 339ZM1135 542L1000 1024L950 1244H930L881 1024L746 542H1135ZM323 1602L557 1955H877L1111 1602H848L715 1805L582 1602H323Z" />
<glyph unicode="&#xc3;" glyph-name="Atilde" horiz-adv-x="1444" d="M1190 339H692L597 0H302L768 1465H1194L1659 0H1286L1190 339ZM1135 542L1000 1024L950 1244H930L881 1024L746 542H1135ZM848 1602Q806 1602 775 1613T720 1640T677 1676T642 1712T610 1740T575
1751Q545 1751 522 1717T498 1602H303Q303 1694 327 1759T390 1865T478 1926T577 1945Q618 1945 649 1934T705 1907T749 1871T785 1835T817 1807T850 1796Q881 1796 904 1831T928 1945H1123Q1123 1853 1099 1788T1036 1681T948 1621T848 1602Z" />
<glyph unicode="&#xc4;" glyph-name="Adieresis" horiz-adv-x="1444" d="M1190 339H692L597 0H302L768 1465H1194L1659 0H1286L1190 339ZM1135 542L1000 1024L950 1244H930L881 1024L746 542H1135ZM310 1761Q310 1794 323 1824T360 1878T416 1915T485 1929Q520
1929 550 1916T603 1881T639 1830T652 1768Q652 1735 640 1705T604 1652T550 1616T480 1602Q445 1602 414 1614T360 1649T324 1699T310 1761ZM794 1761Q794 1794 807 1824T844 1878T900 1915T969 1929Q1005 1929 1035 1916T1088 1881T1124 1830T1137 1768Q1137
1735 1124 1705T1089 1652T1034 1616T965 1602Q929 1602 898 1614T844 1649T808 1699T794 1761Z" />
<glyph unicode="&#xc5;" glyph-name="Aring" horiz-adv-x="1444" d="M938 339H440L345 0H50L516 1465H942L1407 0H1034L938 339ZM883 542L748 1024L698 1244H678L629 1024L494 542H883ZM630 1721Q630 1672 660 1642T732 1611Q775 1611 805 1641T836 1721Q836 1745
828 1765T806 1800T772 1823T732 1831Q711 1831 693 1823T660 1800T638 1765T630 1721ZM433 1718Q433 1777 457 1825T524 1906T622 1958T742 1977Q806 1977 859 1959T951 1907T1011 1827T1032 1725Q1032 1666 1008 1618T941 1536T843 1484T723 1465Q658 1465 605
1484T514 1536T454 1616T433 1718Z" />
<glyph unicode="&#xc6;" glyph-name="AE" horiz-adv-x="1974" d="M947 339H465L316 0H16L713 1465H1798L1759 1247H1208L1248 858H1752L1717 655H1267L1311 218H1852L1813 0H982L947 339ZM926 542L878 1024L868 1244H848L763 1024L551 542H926Z" />
<glyph unicode="&#xc7;" glyph-name="Ccedilla" horiz-adv-x="1438" d="M1323 135Q1260 82 1176 49T1003 -2Q1022 -31 1036 -66T1050 -150Q1050 -209 1026 -262T951 -356T817 -421T617 -446V-268Q680 -268 723 -257T792 -226T831 -177T843 -114Q843 -87 837 -65T817
-20Q666 -20 537 30T314 174T166 398T112 693Q112 819 144 927T234 1123T371 1278T543 1392T739 1461T950 1485Q984 1485 1029 1483T1125 1474T1229 1458T1333 1434L1281 1198L1261 1190Q1169 1234 1086 1250T939 1267Q835 1267 750 1230T604 1124T510 961T476
750Q476 632 510 534T611 364T772 253T990 213Q1084 213 1165 235T1323 295V135Z" />
<glyph unicode="&#xc8;" glyph-name="Egrave" horiz-adv-x="1269" d="M182 0V1465H1138L1099 1247H535V858H1027L991 655H535V218H1148L1109 0H182ZM565 1602L282 1955H630L828 1602H565Z" />
<glyph unicode="&#xc9;" glyph-name="Eacute" horiz-adv-x="1269" d="M182 0V1465H1138L1099 1247H535V858H1027L991 655H535V218H1148L1109 0H182ZM484 1602L682 1955H1027L744 1602H484Z" />
<glyph unicode="&#xca;" glyph-name="Ecircumflex" horiz-adv-x="1269" d="M182 0V1465H1138L1099 1247H535V858H1027L991 655H535V218H1148L1109 0H182ZM278 1602L512 1955H832L1066 1602H803L670 1805L537 1602H278Z" />
<glyph unicode="&#xcb;" glyph-name="Edieresis" horiz-adv-x="1269" d="M182 0V1465H1138L1099 1247H535V858H1027L991 655H535V218H1148L1109 0H182ZM243 1761Q243 1794 256 1824T293 1878T349 1915T418 1929Q453 1929 483 1916T536 1881T572 1830T585 1768Q585
1735 573 1705T537 1652T483 1616T413 1602Q378 1602 347 1614T293 1649T257 1699T243 1761ZM727 1761Q727 1794 740 1824T777 1878T833 1915T902 1929Q938 1929 968 1916T1021 1881T1057 1830T1070 1768Q1070 1735 1057 1705T1022 1652T967 1616T898 1602Q862
1602 831 1614T777 1649T741 1699T727 1761Z" />
<glyph unicode="&#xcc;" glyph-name="Igrave" horiz-adv-x="718" d="M535 0H182V1465H535V0ZM275 1602L-8 1955H340L538 1602H275Z" />
<glyph unicode="&#xcd;" glyph-name="Iacute" horiz-adv-x="718" d="M535 0H181V1465H535V0ZM257 1602L94 1955H442L520 1602H257Z" />
<glyph unicode="&#xce;" glyph-name="Icircumflex" horiz-adv-x="718" d="M535 0H182V1465H535V0ZM-34 1602L200 1955H520L754 1602H491L358 1805L225 1602H-34Z" />
<glyph unicode="&#xcf;" glyph-name="Idieresis" horiz-adv-x="718" d="M535 0H182V1465H535V0ZM-55 1761Q-55 1794 -42 1824T-5 1878T51 1915T120 1929Q155 1929 185 1916T238 1881T274 1830T287 1768Q287 1735 275 1705T239 1652T185 1616T115 1602Q80 1602
49 1614T-5 1649T-41 1699T-55 1761ZM429 1761Q429 1794 442 1824T479 1878T535 1915T604 1929Q640 1929 670 1916T723 1881T759 1830T772 1768Q772 1735 759 1705T724 1652T669 1616T600 1602Q564 1602 533 1614T479 1649T443 1699T429 1761Z" />
<glyph unicode="&#xd0;" glyph-name="Eth" horiz-adv-x="1677" d="M198 846V1465H772Q965 1465 1113 1416T1361 1278T1513 1062T1565 783Q1565 691 1546 597T1484 416T1375 253T1216 120T1002 32T728 -1L198 0V621H37V846H198ZM552 846H861V621H552V218H766Q877
218 959 258T1094 370T1174 539T1200 750Q1200 1000 1081 1123T743 1247H552V846Z" />
<glyph unicode="&#xd1;" glyph-name="Ntilde" horiz-adv-x="1715" d="M429 0V1465H909L1396 665L1505 447H1525L1514 692V1465H1795V0H1428L821 990L719 1198H699L710 968V0H429ZM1004 1602Q962 1602 931 1613T876 1640T833 1676T798 1712T766 1740T731 1751Q701
1751 678 1717T654 1602H459Q459 1694 483 1759T546 1865T634 1926T733 1945Q774 1945 805 1934T861 1907T905 1871T941 1835T973 1807T1006 1796Q1037 1796 1060 1831T1084 1945H1279Q1279 1853 1255 1788T1192 1681T1104 1621T1004 1602Z" />
<glyph unicode="&#xd2;" glyph-name="Ograve" horiz-adv-x="1751" d="M1136 198Q1229 198 1302 241T1425 356T1501 524T1527 724Q1527 836 1498 934T1416 1107T1287 1224T1119 1267Q1026 1267 954 1224T832 1108T756 940T730 740Q730 628 759 530T841 358T969
241T1136 198ZM1102 -20Q945 -20 811 28T577 169T422 396T365 701Q365 876 424 1020T589 1268T839 1428T1155 1485Q1311 1485 1445 1437T1679 1297T1834 1070T1891 765Q1891 648 1864 545T1788 354T1667 197T1509 80T1319 6T1102 -20ZM791 1602L508 1955H856L1054
1602H791Z" />
<glyph unicode="&#xd3;" glyph-name="Oacute" horiz-adv-x="1751" d="M1136 198Q1229 198 1302 241T1425 356T1501 524T1527 724Q1527 836 1498 934T1416 1107T1287 1224T1119 1267Q1026 1267 954 1224T832 1108T756 940T730 740Q730 628 759 530T841 358T969
241T1136 198ZM1102 -20Q945 -20 811 28T577 169T422 396T365 701Q365 876 424 1020T589 1268T839 1428T1155 1485Q1311 1485 1445 1437T1679 1297T1834 1070T1891 765Q1891 648 1864 545T1788 354T1667 197T1509 80T1319 6T1102 -20ZM736 1602L934 1955H1279L996
1602H736Z" />
<glyph unicode="&#xd4;" glyph-name="Ocircumflex" horiz-adv-x="1751" d="M1136 198Q1229 198 1302 241T1425 356T1501 524T1527 724Q1527 836 1498 934T1416 1107T1287 1224T1119 1267Q1026 1267 954 1224T832 1108T756 940T730 740Q730 628 759 530T841 358T969
241T1136 198ZM1102 -20Q945 -20 811 28T577 169T422 396T365 701Q365 876 424 1020T589 1268T839 1428T1155 1485Q1311 1485 1445 1437T1679 1297T1834 1070T1891 765Q1891 648 1864 545T1788 354T1667 197T1509 80T1319 6T1102 -20ZM475 1602L709 1955H1029L1263
1602H1000L867 1805L734 1602H475Z" />
<glyph unicode="&#xd5;" glyph-name="Otilde" horiz-adv-x="1751" d="M1136 198Q1229 198 1302 241T1425 356T1501 524T1527 724Q1527 836 1498 934T1416 1107T1287 1224T1119 1267Q1026 1267 954 1224T832 1108T756 940T730 740Q730 628 759 530T841 358T969
241T1136 198ZM1102 -20Q945 -20 811 28T577 169T422 396T365 701Q365 876 424 1020T589 1268T839 1428T1155 1485Q1311 1485 1445 1437T1679 1297T1834 1070T1891 765Q1891 648 1864 545T1788 354T1667 197T1509 80T1319 6T1102 -20ZM1003 1602Q961 1602 930 1613T875
1640T832 1676T797 1712T765 1740T730 1751Q700 1751 677 1717T653 1602H458Q458 1694 482 1759T545 1865T633 1926T732 1945Q773 1945 804 1934T860 1907T904 1871T940 1835T972 1807T1005 1796Q1036 1796 1059 1831T1083 1945H1278Q1278 1853 1254 1788T1191
1681T1103 1621T1003 1602Z" />
<glyph unicode="&#xd6;" glyph-name="Odieresis" horiz-adv-x="1751" d="M1136 198Q1229 198 1302 241T1425 356T1501 524T1527 724Q1527 836 1498 934T1416 1107T1287 1224T1119 1267Q1026 1267 954 1224T832 1108T756 940T730 740Q730 628 759 530T841 358T969
241T1136 198ZM1102 -20Q945 -20 811 28T577 169T422 396T365 701Q365 876 424 1020T589 1268T839 1428T1155 1485Q1311 1485 1445 1437T1679 1297T1834 1070T1891 765Q1891 648 1864 545T1788 354T1667 197T1509 80T1319 6T1102 -20ZM455 1761Q455 1794 468 1824T505
1878T561 1915T630 1929Q665 1929 695 1916T748 1881T784 1830T797 1768Q797 1735 785 1705T749 1652T695 1616T625 1602Q590 1602 559 1614T505 1649T469 1699T455 1761ZM939 1761Q939 1794 952 1824T989 1878T1045 1915T1114 1929Q1150 1929 1180 1916T1233 1881T1269
1830T1282 1768Q1282 1735 1269 1705T1234 1652T1179 1616T1110 1602Q1074 1602 1043 1614T989 1649T953 1699T939 1761Z" />
<glyph unicode="&#xd7;" glyph-name="multiply" horiz-adv-x="1213" d="M606 743L897 1034L1056 875L765 584L1056 295L897 136L606 425L316 136L157 294L447 584L157 875L316 1034L606 743Z" />
<glyph unicode="&#xd8;" glyph-name="Oslash" horiz-adv-x="1750" d="M344 151Q235 245 174 383T112 701Q112 876 171 1020T336 1268T586 1428T902 1485Q993 1485 1076 1468T1234 1418L1352 1585H1596L1406 1314Q1514 1221 1576 1083T1638 765Q1638 648 1611 545T1535
354T1414 197T1256 80T1066 6T849 -20Q666 -20 515 47L397 -120H153L344 151ZM477 740Q477 655 495 579T546 440L1078 1195Q1033 1230 980 1248T866 1267Q773 1267 701 1224T579 1108T503 940T477 740ZM883 198Q976 198 1049 241T1172 356T1248 524T1274 724Q1274
809 1255 885T1203 1025L671 269Q716 235 769 217T883 198Z" />
<glyph unicode="&#xd9;" glyph-name="Ugrave" horiz-adv-x="1551" d="M525 1465V533Q525 448 547 385T609 281T699 219T810 198Q870 198 921 219T1011 281T1071 384T1093 528V1465H1373V565Q1373 443 1335 337T1219 151T1025 26T755 -20Q621 -20 513 16T330 123T213
299T172 545V1465H525ZM714 1602L431 1955H779L977 1602H714Z" />
<glyph unicode="&#xda;" glyph-name="Uacute" horiz-adv-x="1551" d="M525 1465V533Q525 448 547 385T609 281T699 219T810 198Q870 198 921 219T1011 281T1071 384T1093 528V1465H1373V565Q1373 443 1335 337T1219 151T1025 26T755 -20Q621 -20 513 16T330 123T213
299T172 545V1465H525ZM630 1602L828 1955H1173L890 1602H630Z" />
<glyph unicode="&#xdb;" glyph-name="Ucircumflex" horiz-adv-x="1551" d="M525 1465V533Q525 448 547 385T609 281T699 219T810 198Q870 198 921 219T1011 281T1071 384T1093 528V1465H1373V565Q1373 443 1335 337T1219 151T1025 26T755 -20Q621 -20 513 16T330
123T213 299T172 545V1465H525ZM379 1602L613 1955H933L1167 1602H904L771 1805L638 1602H379Z" />
<glyph unicode="&#xdc;" glyph-name="Udieresis" horiz-adv-x="1551" d="M525 1465V533Q525 448 547 385T609 281T699 219T810 198Q870 198 921 219T1011 281T1071 384T1093 528V1465H1373V565Q1373 443 1335 337T1219 151T1025 26T755 -20Q621 -20 513 16T330
123T213 299T172 545V1465H525ZM363 1761Q363 1794 376 1824T413 1878T469 1915T538 1929Q573 1929 603 1916T656 1881T692 1830T705 1768Q705 1735 693 1705T657 1652T603 1616T533 1602Q498 1602 467 1614T413 1649T377 1699T363 1761ZM847 1761Q847 1794 860
1824T897 1878T953 1915T1022 1929Q1058 1929 1088 1916T1141 1881T1177 1830T1190 1768Q1190 1735 1177 1705T1142 1652T1087 1616T1018 1602Q982 1602 951 1614T897 1649T861 1699T847 1761Z" />
<glyph unicode="&#xdd;" glyph-name="Yacute" horiz-adv-x="1389" d="M1122 637V0H769V628L278 1465H682L894 1046L979 847H999L1086 1047L1299 1465H1619L1122 637ZM567 1602L765 1955H1110L827 1602H567Z" />
<glyph unicode="&#xde;" glyph-name="Thorn" horiz-adv-x="1415" d="M535 0H182V1465H535V1217H708Q853 1217 965 1185T1153 1091T1269 944T1308 750Q1308 633 1266 538T1150 377T980 274T772 238Q756 238 741 239T706 243L723 443Q731 441 743 441T765 440Q815
440 852 461T914 520T951 606T964 711Q964 789 945 843T889 932T801 983T685 999H535V0Z" />
<glyph unicode="&#xdf;" glyph-name="germandbls" horiz-adv-x="1394" d="M1021 316Q1021 366 996 400T933 464T851 522T769 588T706 677T680 803Q680 863 696 904T737 975T790 1029T843 1079T883 1137T900 1216Q900 1262 884 1298T842 1358T781 1394T712 1407Q673
1407 635 1391T565 1340T515 1250T496 1114V0H149V1074Q149 1190 190 1290T307 1464T493 1580T739 1622Q842 1622 932 1598T1089 1527T1194 1415T1233 1266Q1233 1208 1216 1166T1174 1091T1119 1032T1064 979T1021 925T1004 860Q1004 816 1028 784T1090 722T1170
662T1251 592T1312 497T1337 366Q1337 282 1306 212T1218 90T1080 9T899 -20Q870 -20 834 -18T759 -9T680 5T603 26L648 253L670 267Q733 232 793 214T896 195Q951 195 986 226T1021 316Z" />
<glyph unicode="&#xe0;" glyph-name="agrave" horiz-adv-x="1225" d="M722 153Q692 128 654 98T571 42T475 -2T367 -20Q298 -20 246 6T160 76T108 173T90 281Q90 355 123 420T228 533T409 610T671 638H710V700Q710 781 660 823T526 865Q489 865 449 856T367 832T287
795T214 750L196 760L137 971Q266 1031 381 1055T607 1080Q702 1080 784 1062T927 1004T1023 898T1058 738V312Q1058 294 1061 277T1072 245T1094 222T1130 213Q1144 213 1157 215T1188 224V76Q1123 31 1058 6T932 -20Q853 -20 802 25T722 153ZM710 516H672Q593
516 542 505T460 472T417 422T405 355Q405 317 416 291T445 247T488 221T540 213Q577 213 619 228T710 284V516ZM503 1240L220 1602H567L766 1240H503Z" />
<glyph unicode="&#xe1;" glyph-name="aacute" horiz-adv-x="1225" d="M722 153Q692 128 654 98T571 42T475 -2T367 -20Q298 -20 246 6T160 76T108 173T90 281Q90 355 123 420T228 533T409 610T671 638H710V700Q710 781 660 823T526 865Q489 865 449 856T367 832T287
795T214 750L196 760L137 971Q266 1031 381 1055T607 1080Q702 1080 784 1062T927 1004T1023 898T1058 738V312Q1058 294 1061 277T1072 245T1094 222T1130 213Q1144 213 1157 215T1188 224V76Q1123 31 1058 6T932 -20Q853 -20 802 25T722 153ZM710 516H672Q593
516 542 505T460 472T417 422T405 355Q405 317 416 291T445 247T488 221T540 213Q577 213 619 228T710 284V516ZM388 1240L586 1602H930L646 1240H388Z" />
<glyph unicode="&#xe2;" glyph-name="acircumflex" horiz-adv-x="1225" d="M722 153Q692 128 654 98T571 42T475 -2T367 -20Q298 -20 246 6T160 76T108 173T90 281Q90 355 123 420T228 533T409 610T671 638H710V700Q710 781 660 823T526 865Q489 865 449 856T367
832T287 795T214 750L196 760L137 971Q266 1031 381 1055T607 1080Q702 1080 784 1062T927 1004T1023 898T1058 738V312Q1058 294 1061 277T1072 245T1094 222T1130 213Q1144 213 1157 215T1188 224V76Q1123 31 1058 6T932 -20Q853 -20 802 25T722 153ZM710 516H672Q593
516 542 505T460 472T417 422T405 355Q405 317 416 291T445 247T488 221T540 213Q577 213 619 228T710 284V516ZM454 1240L687 1602H1007L1241 1240H978L845 1449L712 1240H454Z" />
<glyph unicode="&#xe3;" glyph-name="atilde" horiz-adv-x="1225" d="M722 153Q692 128 654 98T571 42T475 -2T367 -20Q298 -20 246 6T160 76T108 173T90 281Q90 355 123 420T228 533T409 610T671 638H710V700Q710 781 660 823T526 865Q489 865 449 856T367 832T287
795T214 750L196 760L137 971Q266 1031 381 1055T607 1080Q702 1080 784 1062T927 1004T1023 898T1058 738V312Q1058 294 1061 277T1072 245T1094 222T1130 213Q1144 213 1157 215T1188 224V76Q1123 31 1058 6T932 -20Q853 -20 802 25T722 153ZM710 516H672Q593
516 542 505T460 472T417 422T405 355Q405 317 416 291T445 247T488 221T540 213Q577 213 619 228T710 284V516ZM975 1240Q933 1240 902 1252T846 1281T804 1319T769 1357T736 1387T701 1399Q671 1399 648 1363T624 1240H429Q429 1335 453 1402T516 1511T604 1573T702
1593Q744 1593 775 1581T832 1552T876 1514T911 1476T943 1446T976 1434Q1007 1434 1030 1471T1054 1593H1249Q1249 1498 1225 1431T1161 1322T1073 1260T975 1240Z" />
<glyph unicode="&#xe4;" glyph-name="adieresis" horiz-adv-x="1225" d="M722 153Q692 128 654 98T571 42T475 -2T367 -20Q298 -20 246 6T160 76T108 173T90 281Q90 355 123 420T228 533T409 610T671 638H710V700Q710 781 660 823T526 865Q489 865 449 856T367
832T287 795T214 750L196 760L137 971Q266 1031 381 1055T607 1080Q702 1080 784 1062T927 1004T1023 898T1058 738V312Q1058 294 1061 277T1072 245T1094 222T1130 213Q1144 213 1157 215T1188 224V76Q1123 31 1058 6T932 -20Q853 -20 802 25T722 153ZM710 516H672Q593
516 542 505T460 472T417 422T405 355Q405 317 416 291T445 247T488 221T540 213Q577 213 619 228T710 284V516ZM441 1399Q441 1432 454 1462T491 1516T547 1553T616 1567Q651 1567 681 1554T734 1519T770 1468T783 1406Q783 1373 771 1343T735 1290T681 1254T611
1240Q576 1240 545 1252T491 1287T455 1337T441 1399ZM925 1399Q925 1432 938 1462T975 1516T1031 1553T1100 1567Q1136 1567 1166 1554T1219 1519T1255 1468T1268 1406Q1268 1373 1255 1343T1220 1290T1165 1254T1096 1240Q1060 1240 1029 1252T975 1287T939 1337T925
1399Z" />
<glyph unicode="&#xe5;" glyph-name="aring" horiz-adv-x="1225" d="M722 153Q692 128 654 98T571 42T475 -2T367 -20Q298 -20 246 6T160 76T108 173T90 281Q90 355 123 420T228 533T409 610T671 638H710V700Q710 781 660 823T526 865Q489 865 449 856T367 832T287
795T214 750L196 760L137 971Q266 1031 381 1055T607 1080Q702 1080 784 1062T927 1004T1023 898T1058 738V312Q1058 294 1061 277T1072 245T1094 222T1130 213Q1144 213 1157 215T1188 224V76Q1123 31 1058 6T932 -20Q853 -20 802 25T722 153ZM710 516H672Q593
516 542 505T460 472T417 422T405 355Q405 317 416 291T445 247T488 221T540 213Q577 213 619 228T710 284V516ZM472 1468Q472 1419 502 1389T574 1358Q617 1358 647 1388T678 1468Q678 1492 670 1512T648 1547T614 1570T574 1578Q553 1578 535 1570T502 1547T480
1512T472 1468ZM275 1465Q275 1524 299 1572T366 1653T464 1705T584 1724Q648 1724 701 1706T793 1654T853 1574T874 1472Q874 1413 850 1365T783 1283T685 1231T565 1212Q500 1212 447 1231T356 1283T296 1363T275 1465Z" />
<glyph unicode="&#xe6;" glyph-name="ae" horiz-adv-x="1835" d="M1693 111Q1638 73 1582 48T1470 7T1360 -14T1256 -20Q1097 -20 979 31T789 182Q755 151 713 116T620 50T511 0T388 -20Q316 -20 261 4T167 69T110 162T90 271Q90 343 124 406T229 517T409 592T671
620H710V700Q710 781 660 823T528 865Q491 865 451 857T369 833T289 796T214 750L196 760L137 971Q265 1031 381 1055T600 1080Q718 1080 806 1049T953 945Q1091 1080 1291 1080Q1388 1080 1471 1050T1615 960T1710 815T1745 619Q1745 582 1742 551T1734 498H1058Q1058
420 1082 366T1152 278T1261 229T1403 213Q1461 213 1539 222T1693 259V111ZM544 213Q595 213 642 234T732 293Q719 340 715 387T710 498H672Q594 498 543 487T461 456T418 408T405 346Q405 311 415 286T445 245T489 221T544 213ZM1430 620Q1430 681 1417 727T1380
804T1323 850T1251 865Q1208 865 1173 847T1112 797T1072 720T1058 620H1430Z" />
<glyph unicode="&#xe7;" glyph-name="ccedilla" horiz-adv-x="1048" d="M963 111Q864 31 758 1Q777 -25 792 -61T807 -150Q807 -209 783 -262T708 -357T574 -422T374 -446V-268Q437 -268 480 -257T550 -226T589 -177T601 -114Q601 -86 595 -65T576 -20Q460 -17
369 21T216 125T120 281T87 479Q87 612 136 723T271 913T473 1036T722 1080Q770 1080 838 1072T976 1041L926 815L907 805Q891 815 869 826T821 845T766 859T708 865Q650 865 602 843T519 778T465 674T445 536Q445 452 468 391T532 291T631 232T758 213Q804 213
851 223T963 259V111Z" />
<glyph unicode="&#xe8;" glyph-name="egrave" horiz-adv-x="1222" d="M1079 111Q1025 73 969 48T856 7T746 -14T642 -20Q514 -20 411 14T236 114T126 274T87 491Q87 629 135 738T263 923T450 1039T672 1080Q772 1080 856 1049T1002 958T1098 808T1132 601Q1132
563 1129 531T1120 478H444Q444 408 468 358T538 276T648 228T791 213Q819 213 853 215T925 222T1002 236T1079 259V111ZM817 600Q817 669 804 719T766 801T709 849T637 865Q594 865 559 847T498 795T458 712T444 600H817ZM546 1240L263 1602H610L809 1240H546Z"
/>
<glyph unicode="&#xe9;" glyph-name="eacute" horiz-adv-x="1222" d="M1079 111Q1025 73 969 48T856 7T746 -14T642 -20Q514 -20 411 14T236 114T126 274T87 491Q87 629 135 738T263 923T450 1039T672 1080Q772 1080 856 1049T1002 958T1098 808T1132 601Q1132
563 1129 531T1120 478H444Q444 408 468 358T538 276T648 228T791 213Q819 213 853 215T925 222T1002 236T1079 259V111ZM817 600Q817 669 804 719T766 801T709 849T637 865Q594 865 559 847T498 795T458 712T444 600H817ZM476 1240L674 1602H1018L734 1240H476Z"
/>
<glyph unicode="&#xea;" glyph-name="ecircumflex" horiz-adv-x="1222" d="M1079 111Q1025 73 969 48T856 7T746 -14T642 -20Q514 -20 411 14T236 114T126 274T87 491Q87 629 135 738T263 923T450 1039T672 1080Q772 1080 856 1049T1002 958T1098 808T1132 601Q1132
563 1129 531T1120 478H444Q444 408 468 358T538 276T648 228T791 213Q819 213 853 215T925 222T1002 236T1079 259V111ZM817 600Q817 669 804 719T766 801T709 849T637 865Q594 865 559 847T498 795T458 712T444 600H817ZM250 1240L483 1602H803L1037 1240H774L641
1449L508 1240H250Z" />
<glyph unicode="&#xeb;" glyph-name="edieresis" horiz-adv-x="1222" d="M1079 111Q1025 73 969 48T856 7T746 -14T642 -20Q514 -20 411 14T236 114T126 274T87 491Q87 629 135 738T263 923T450 1039T672 1080Q772 1080 856 1049T1002 958T1098 808T1132 601Q1132
563 1129 531T1120 478H444Q444 408 468 358T538 276T648 228T791 213Q819 213 853 215T925 222T1002 236T1079 259V111ZM817 600Q817 669 804 719T766 801T709 849T637 865Q594 865 559 847T498 795T458 712T444 600H817ZM230 1399Q230 1432 243 1462T280 1516T336
1553T405 1567Q440 1567 470 1554T523 1519T559 1468T572 1406Q572 1373 560 1343T524 1290T470 1254T400 1240Q365 1240 334 1252T280 1287T244 1337T230 1399ZM714 1399Q714 1432 727 1462T764 1516T820 1553T889 1567Q925 1567 955 1554T1008 1519T1044 1468T1057
1406Q1057 1373 1044 1343T1009 1290T954 1254T885 1240Q849 1240 818 1252T764 1287T728 1337T714 1399Z" />
<glyph unicode="&#xec;" glyph-name="igrave" horiz-adv-x="646" d="M226 1240L-57 1602H290L489 1240H226ZM149 1060H496V0H149V1060Z" />
<glyph unicode="&#xed;" glyph-name="iacute" horiz-adv-x="646" d="M404 1240L602 1602H946L662 1240H404ZM149 1060H496V0H149V1060Z" />
<glyph unicode="&#xee;" glyph-name="icircumflex" horiz-adv-x="646" d="M149 1060H496V0H149V1060ZM-65 1240L168 1602H488L722 1240H459L326 1449L193 1240H-65Z" />
<glyph unicode="&#xef;" glyph-name="idieresis" horiz-adv-x="646" d="M-87 1399Q-87 1432 -74 1462T-37 1516T19 1553T88 1567Q123 1567 153 1554T206 1519T242 1468T255 1406Q255 1373 243 1343T207 1290T153 1254T83 1240Q48 1240 17 1252T-37 1287T-73 1337T-87
1399ZM397 1399Q397 1432 410 1462T447 1516T503 1553T572 1567Q608 1567 638 1554T691 1519T727 1468T740 1406Q740 1373 727 1343T692 1290T637 1254T568 1240Q532 1240 501 1252T447 1287T411 1337T397 1399ZM149 1060H496V0H149V1060Z" />
<glyph unicode="&#xf0;" glyph-name="eth" horiz-adv-x="1342" d="M483 1324Q433 1349 379 1369T266 1407L358 1602Q589 1542 761 1438L1055 1562L1109 1434L896 1345Q986 1271 1053 1185T1166 1004T1233 805T1255 593Q1255 456 1209 343T1080 150T883 25T632
-20Q490 -20 387 25T218 146T119 317T87 514Q87 648 133 753T252 931T415 1042T593 1080Q645 1080 699 1064T793 1023L812 1025Q783 1085 736 1139T632 1236L314 1103L260 1231L483 1324ZM897 597Q897 645 892 690T876 788Q837 823 785 844T682 865Q630 865 587
845T513 785T465 687T448 554Q448 483 463 419T508 304T582 225T683 195Q783 195 840 294T897 597Z" />
<glyph unicode="&#xf1;" glyph-name="ntilde" horiz-adv-x="1354" d="M149 1060H442L484 886Q518 916 560 950T652 1013T758 1061T875 1080Q949 1080 1009 1054T1113 979T1181 864T1205 714V0H857V664Q857 709 845 743T811 800T760 834T698 846Q643 846 594 819T496
751V0H149V1060ZM801 1240Q759 1240 728 1252T672 1281T630 1319T595 1357T562 1387T527 1399Q497 1399 474 1363T450 1240H255Q255 1335 279 1402T342 1511T430 1573T528 1593Q570 1593 601 1581T658 1552T702 1514T737 1476T769 1446T802 1434Q833 1434 856 1471T880
1593H1075Q1075 1498 1051 1431T987 1322T899 1260T801 1240Z" />
<glyph unicode="&#xf2;" glyph-name="ograve" horiz-adv-x="1338" d="M632 -20Q495 -20 393 22T222 136T121 302T87 501Q87 622 131 728T255 912T450 1035T704 1080Q840 1080 942 1038T1113 925T1215 759T1250 557Q1250 433 1205 328T1079 145T884 24T632 -20ZM675
195Q722 195 761 215T830 275T875 376T892 516Q892 591 877 655T832 765T760 838T662 865Q614 865 574 844T506 781T461 680T445 542Q445 463 461 399T507 290T579 220T675 195ZM553 1240L270 1602H617L816 1240H553Z" />
<glyph unicode="&#xf3;" glyph-name="oacute" horiz-adv-x="1338" d="M632 -20Q495 -20 393 22T222 136T121 302T87 501Q87 622 131 728T255 912T450 1035T704 1080Q840 1080 942 1038T1113 925T1215 759T1250 557Q1250 433 1205 328T1079 145T884 24T632 -20ZM675
195Q722 195 761 215T830 275T875 376T892 516Q892 591 877 655T832 765T760 838T662 865Q614 865 574 844T506 781T461 680T445 542Q445 463 461 399T507 290T579 220T675 195ZM498 1240L696 1602H1040L756 1240H498Z" />
<glyph unicode="&#xf4;" glyph-name="ocircumflex" horiz-adv-x="1338" d="M632 -20Q495 -20 393 22T222 136T121 302T87 501Q87 622 131 728T255 912T450 1035T704 1080Q840 1080 942 1038T1113 925T1215 759T1250 557Q1250 433 1205 328T1079 145T884 24T632
-20ZM675 195Q722 195 761 215T830 275T875 376T892 516Q892 591 877 655T832 765T760 838T662 865Q614 865 574 844T506 781T461 680T445 542Q445 463 461 399T507 290T579 220T675 195ZM275 1240L508 1602H828L1062 1240H799L666 1449L533 1240H275Z" />
<glyph unicode="&#xf5;" glyph-name="otilde" horiz-adv-x="1338" d="M632 -20Q495 -20 393 22T222 136T121 302T87 501Q87 622 131 728T255 912T450 1035T704 1080Q840 1080 942 1038T1113 925T1215 759T1250 557Q1250 433 1205 328T1079 145T884 24T632 -20ZM675
195Q722 195 761 215T830 275T875 376T892 516Q892 591 877 655T832 765T760 838T662 865Q614 865 574 844T506 781T461 680T445 542Q445 463 461 399T507 290T579 220T675 195ZM802 1240Q760 1240 729 1252T673 1281T631 1319T596 1357T563 1387T528 1399Q498
1399 475 1363T451 1240H256Q256 1335 280 1402T343 1511T431 1573T529 1593Q571 1593 602 1581T659 1552T703 1514T738 1476T770 1446T803 1434Q834 1434 857 1471T881 1593H1076Q1076 1498 1052 1431T988 1322T900 1260T802 1240Z" />
<glyph unicode="&#xf6;" glyph-name="odieresis" horiz-adv-x="1338" d="M632 -20Q495 -20 393 22T222 136T121 302T87 501Q87 622 131 728T255 912T450 1035T704 1080Q840 1080 942 1038T1113 925T1215 759T1250 557Q1250 433 1205 328T1079 145T884 24T632 -20ZM675
195Q722 195 761 215T830 275T875 376T892 516Q892 591 877 655T832 765T760 838T662 865Q614 865 574 844T506 781T461 680T445 542Q445 463 461 399T507 290T579 220T675 195ZM258 1399Q258 1432 271 1462T308 1516T364 1553T433 1567Q468 1567 498 1554T551
1519T587 1468T600 1406Q600 1373 588 1343T552 1290T498 1254T428 1240Q393 1240 362 1252T308 1287T272 1337T258 1399ZM742 1399Q742 1432 755 1462T792 1516T848 1553T917 1567Q953 1567 983 1554T1036 1519T1072 1468T1085 1406Q1085 1373 1072 1343T1037
1290T982 1254T913 1240Q877 1240 846 1252T792 1287T756 1337T742 1399Z" />
<glyph unicode="&#xf7;" glyph-name="divide" horiz-adv-x="1304" d="M1154 704V479H150V704H1154ZM650 839Q618 839 590 851T540 884T507 933T494 995Q494 1030 507 1059T542 1109T594 1142T655 1154Q687 1154 715 1142T765 1109T798 1059T810 997Q810 962 797
933T762 883T710 851T650 839ZM650 28Q618 28 590 40T540 73T507 123T494 185Q494 219 507 248T542 299T594 332T655 344Q687 344 715 332T765 299T798 249T810 187Q810 152 797 123T762 73T710 40T650 28Z" />
<glyph unicode="&#xf8;" glyph-name="oslash" horiz-adv-x="1326" d="M257 100Q214 137 182 182T129 279T98 385T87 498Q87 618 131 724T255 909T449 1034T703 1080Q765 1080 818 1071T920 1043L1016 1180H1223L1068 959Q1154 885 1196 781T1238 560Q1238 437
1193 331T1067 147T872 25T621 -20Q559 -20 506 -11T406 16L311 -120H103L257 100ZM445 542Q445 504 451 468T469 401L768 827Q745 845 717 855T657 865Q608 865 569 843T503 778T460 677T445 542ZM668 195Q715 195 754 216T821 279T864 379T880 516Q880 554 874
589T856 656L558 232Q606 195 668 195Z" />
<glyph unicode="&#xf9;" glyph-name="ugrave" horiz-adv-x="1328" d="M149 1060H496V398Q496 356 507 322T538 263T585 226T646 213Q697 213 743 241T832 310V1060H1179V0H886L843 173Q807 141 766 107T678 44T581 -2T475 -20Q414 -20 356 3T251 71T177 186T149
347V1060ZM563 1240L280 1602H627L826 1240H563Z" />
<glyph unicode="&#xfa;" glyph-name="uacute" horiz-adv-x="1328" d="M149 1060H496V398Q496 356 507 322T538 263T585 226T646 213Q697 213 743 241T832 310V1060H1179V0H886L843 173Q807 141 766 107T678 44T581 -2T475 -20Q414 -20 356 3T251 71T177 186T149
347V1060ZM485 1240L683 1602H1027L743 1240H485Z" />
<glyph unicode="&#xfb;" glyph-name="ucircumflex" horiz-adv-x="1328" d="M149 1060H496V398Q496 356 507 322T538 263T585 226T646 213Q697 213 743 241T832 310V1060H1179V0H886L843 173Q807 141 766 107T678 44T581 -2T475 -20Q414 -20 356 3T251 71T177 186T149
347V1060ZM276 1240L509 1602H829L1063 1240H800L667 1449L534 1240H276Z" />
<glyph unicode="&#xfc;" glyph-name="udieresis" horiz-adv-x="1328" d="M149 1060H496V398Q496 356 507 322T538 263T585 226T646 213Q697 213 743 241T832 310V1060H1179V0H886L843 173Q807 141 766 107T678 44T581 -2T475 -20Q414 -20 356 3T251 71T177 186T149
347V1060ZM253 1399Q253 1432 266 1462T303 1516T359 1553T428 1567Q463 1567 493 1554T546 1519T582 1468T595 1406Q595 1373 583 1343T547 1290T493 1254T423 1240Q388 1240 357 1252T303 1287T267 1337T253 1399ZM737 1399Q737 1432 750 1462T787 1516T843 1553T912
1567Q948 1567 978 1554T1031 1519T1067 1468T1080 1406Q1080 1373 1067 1343T1032 1290T977 1254T908 1240Q872 1240 841 1252T787 1287T751 1337T737 1399Z" />
<glyph unicode="&#xfd;" glyph-name="yacute" horiz-adv-x="1159" d="M37 1060H411L567 456L609 247H629L668 456L826 1060H1122L606 -536H303L532 0H381L37 1060ZM440 1240L638 1602H982L698 1240H440Z" />
<glyph unicode="&#xfe;" glyph-name="thorn" horiz-adv-x="1352" d="M149 1602H496V898Q533 932 573 964T659 1022T754 1064T862 1080Q955 1080 1029 1038T1156 925T1236 764T1264 577Q1264 493 1243 416T1183 273T1090 152T969 60T825 1T665 -20Q642 -20 618
-19T572 -15T530 -8T496 1V-536H149V1602ZM496 226Q538 207 577 201T641 195Q707 195 757 223T840 300T891 410T908 538Q908 608 893 665T851 762T785 824T701 846Q648 846 594 820T496 748V226Z" />
<glyph unicode="&#xff;" glyph-name="ydieresis" horiz-adv-x="1159" d="M37 1060H411L567 456L609 247H629L668 456L826 1060H1122L606 -536H303L532 0H381L37 1060ZM442 1399Q442 1432 455 1462T492 1516T548 1553T617 1567Q652 1567 682 1554T735 1519T771
1468T784 1406Q784 1373 772 1343T736 1290T682 1254T612 1240Q577 1240 546 1252T492 1287T456 1337T442 1399ZM926 1399Q926 1432 939 1462T976 1516T1032 1553T1101 1567Q1137 1567 1167 1554T1220 1519T1256 1468T1269 1406Q1269 1373 1256 1343T1221 1290T1166
1254T1097 1240Q1061 1240 1030 1252T976 1287T940 1337T926 1399Z" />
<glyph unicode="&#x2013;" glyph-name="endash" horiz-adv-x="1037" d="M987 704V479H50V704H987Z" />
<glyph unicode="&#x2014;" glyph-name="emdash" horiz-adv-x="2107" d="M2057 704V479H50V704H2057Z" />
<glyph unicode="&#x2018;" glyph-name="quoteleft" horiz-adv-x="700" d="M578 1560Q500 1473 447 1384T374 1206Q388 1191 407 1177T448 1150T493 1129T539 1114Q547 1094 551 1070T555 1023Q555 978 538 940T492 874T425 830T343 814Q304 814 267 828T199 873T151
949T132 1059Q132 1114 148 1180T202 1319T304 1471T463 1632L578 1560Z" />
<glyph unicode="&#x2019;" glyph-name="quoteright" horiz-adv-x="700" d="M122 873Q200 960 253 1049T327 1227Q298 1257 252 1282T161 1319Q153 1339 149 1363T145 1410Q145 1455 162 1493T208 1559T276 1603T357 1619Q396 1619 433 1605T501 1560T549 1484T568
1374Q568 1319 552 1253T498 1114T396 962T237 801L122 873Z" />
<glyph unicode="&#x201a;" glyph-name="quotesinglbase" horiz-adv-x="700" d="M122 -350Q200 -262 253 -173T327 4Q298 34 252 60T161 97Q145 140 145 187Q145 232 162 270T208 337T276 381T357 397Q396 397 433 383T501 338T549 262T568 152Q568 96 552 31T498
-108T396 -261T237 -421L122 -350Z" />
<glyph unicode="&#x201c;" glyph-name="quotedblleft" horiz-adv-x="1276" d="M578 1560Q500 1473 447 1384T374 1206Q388 1191 407 1177T448 1150T493 1129T539 1114Q547 1094 551 1070T555 1023Q555 978 538 940T492 874T425 830T343 814Q304 814 267 828T199
873T151 949T132 1059Q132 1114 148 1180T202 1319T304 1471T463 1632L578 1560ZM1153 1560Q1075 1473 1022 1384T949 1206Q963 1191 982 1177T1023 1150T1068 1129T1114 1114Q1122 1094 1126 1070T1131 1023Q1131 978 1114 940T1068 874T1000 830T919 814Q880
814 842 828T775 873T727 949T708 1059Q708 1114 724 1180T778 1319T879 1471T1039 1632L1153 1560Z" />
<glyph unicode="&#x201d;" glyph-name="quotedblright" horiz-adv-x="1276" d="M122 873Q200 960 253 1049T327 1227Q298 1257 252 1282T161 1319Q153 1339 149 1363T145 1410Q145 1455 162 1493T208 1559T276 1603T357 1619Q396 1619 433 1605T501 1560T549 1484T568
1374Q568 1319 552 1253T498 1114T396 962T237 801L122 873ZM698 873Q775 960 828 1049T902 1227Q873 1257 827 1282T736 1319Q728 1339 724 1363T720 1410Q720 1455 737 1493T783 1559T851 1603T932 1619Q971 1619 1008 1605T1076 1560T1124 1484T1143 1374Q1143
1319 1127 1253T1073 1114T972 962T812 801L698 873Z" />
<glyph unicode="&#x201e;" glyph-name="quotedblbase" horiz-adv-x="1276" d="M122 -350Q200 -262 253 -173T327 4Q298 34 252 60T161 97Q145 140 145 187Q145 232 162 270T208 337T276 381T357 397Q396 397 433 383T501 338T549 262T568 152Q568 96 552 31T498
-108T396 -261T237 -421L122 -350ZM698 -350Q775 -262 828 -173T902 4Q873 34 827 60T736 97Q720 140 720 187Q720 232 737 270T783 337T851 381T932 397Q971 397 1008 383T1076 338T1124 262T1143 152Q1143 96 1127 31T1073 -108T972 -261T812 -421L698 -350Z"
/>
<glyph unicode="&#x2022;" glyph-name="bullet" horiz-adv-x="899" d="M200 573Q200 625 220 670T275 750T356 803T453 823Q504 823 549 804T627 750T679 671T699 573Q699 520 678 475T622 395T540 342T444 323Q393 323 349 342T271 395T219 474T200 573Z" />
<glyph unicode="&#x2039;" glyph-name="guilsinglleft" horiz-adv-x="718" d="M92 626L419 1021L590 861L341 574L590 286L419 126L92 521V626Z" />
<glyph unicode="&#x203a;" glyph-name="guilsinglright" horiz-adv-x="718" d="M625 521L299 126L127 286L377 574L127 861L299 1021L625 626V521Z" />
</font>
</defs>
</svg>
