<?xml version="1.0" standalone="no"?>
<!DOCTYPE svg PUBLIC "-//W3C//DTD SVG 1.1//EN" "http://www.w3.org/Graphics/SVG/1.1/DTD/svg11.dtd">
<svg xmlns="http://www.w3.org/2000/svg">
<defs >
<font id="Damion" horiz-adv-x="731" ><font-face
    font-family="Damion"
    units-per-em="2048"
    panose-1="2 0 0 0 0 0 0 0 0 0"
    ascent="2068"
    descent="-746"
    alphabetic="0" />
<glyph unicode=" " glyph-name="space" horiz-adv-x="480" />
<glyph unicode="!" glyph-name="exclam" horiz-adv-x="959" d="M639 139Q635 108 620 80T583 31T533 -3T475 -16Q430 -16 403 13T376 86Q376 119 390 149T427 202T481 240T543 254Q588 254 614 226T640 155Q640 151 640 148T639 139ZM1110 1200Q1055 1095 1010
1012T922 849T834 687T734 498Q719 469 691 455T639 440Q619 440 607 448T594 475Q594 487 599 498Q629 568 655 627T704 742T750 849T795 955T845 1070T901 1200Q909 1218 923 1232T957 1255T997 1269T1039 1274Q1071 1274 1093 1262T1116 1224Q1116 1213 1110
1200Z" />
<glyph unicode="&quot;" glyph-name="quotedbl" horiz-adv-x="852" d="M1059 1368Q1018 1297 972 1226T880 1083T788 943T700 809Q683 783 658 769T609 755Q592 755 581 762T570 785Q570 791 572 796T577 809Q614 884 651 959T724 1106T792 1244T851 1368Q859
1384 872 1396T903 1416T939 1427T978 1431Q1013 1431 1039 1420T1065 1386Q1065 1382 1064 1377T1059 1368ZM759 1368Q721 1298 681 1227T600 1084T518 944T440 809Q425 783 402 769T357 755Q340 755 330 762T320 784Q320 790 322 796T327 809Q358 884 389 959T451
1106T508 1244T559 1368Q574 1401 607 1416T678 1431Q713 1431 739 1420T765 1386Q765 1382 764 1377T759 1368Z" />
<glyph unicode="#" glyph-name="numbersign" horiz-adv-x="1381" d="M1067 823H809Q777 759 744 696T679 569H937Q969 633 1002 696T1067 823ZM1456 946Q1469 946 1474 940T1480 922Q1480 908 1473 891T1454 858T1430 833T1407 823H1189Q1156 759 1123 696T1056
569H1260Q1273 569 1278 562T1284 544Q1284 530 1277 514T1260 484T1238 461T1216 451H995Q966 395 936 335T875 217T816 103T760 0Q752 -15 729 -23T682 -31Q661 -31 649 -26T636 -8Q636 -6 638 0Q664 50 693 106T752 219T812 336T872 451H614Q585 395 554 333T493
211T433 97T380 0Q371 -15 350 -22T305 -29Q284 -29 272 -24T259 -8Q259 -6 261 0Q282 44 310 99T370 213T434 334T495 451H270Q254 451 254 471Q254 482 260 499T275 531T295 558T318 569H556Q590 633 623 696T690 823H469Q455 823 450 830T444 849Q444 863 451
880T468 911T491 936T514 946H751Q779 999 808 1054T865 1165T921 1271T972 1368Q980 1383 1003 1390T1049 1398Q1070 1398 1083 1392T1096 1375Q1096 1370 1095 1368Q1075 1326 1049 1275T993 1168T933 1056T874 946H1132Q1159 999 1188 1056T1246 1170T1301 1277T1349
1368Q1357 1383 1379 1391T1425 1399Q1446 1399 1459 1393T1472 1375Q1472 1371 1471 1368Q1449 1325 1423 1274T1367 1167T1309 1056T1251 946H1456Z" />
<glyph unicode="$" glyph-name="dollar" horiz-adv-x="1300" d="M807 942Q805 936 805 930T805 918Q805 886 824 855T886 795Q931 885 976 973T1066 1151Q1018 1132 974 1108T894 1057T835 1001T807 942ZM1034 391Q1035 394 1035 397T1035 404Q1035 424 1027 440T1002
472T960 506T898 547Q850 453 802 359T706 170Q767 176 823 195T923 243T997 309T1034 391ZM1421 1573Q1397 1525 1373 1478T1323 1383H1332Q1375 1383 1412 1375T1475 1348T1516 1300T1531 1231Q1531 1143 1473 1064T1304 918Q1259 891 1227 891Q1198 891 1182
909T1166 955Q1166 986 1187 1020T1257 1077Q1274 1085 1290 1096T1319 1121T1340 1148T1348 1175Q1348 1193 1334 1198T1300 1204Q1283 1204 1266 1202T1229 1197Q1108 962 991 730L1124 646Q1202 603 1238 551T1274 441Q1274 423 1271 407Q1257 327 1202 251T1059
114T858 17T613 -20H608L514 -205Q500 -238 479 -252T437 -267Q413 -267 395 -257T377 -226Q377 -216 383 -205L479 -12Q405 -3 352 15T266 60T217 119T201 187Q201 240 232 296T319 404T450 495T615 557H621Q641 557 650 540T659 501T655 466T641 440T612 418T564
397Q498 371 460 334T421 262Q421 230 456 206T572 172Q627 282 682 391T793 611Q739 644 703 676T644 739T613 804T603 874Q603 928 626 980T691 1080T787 1172T905 1251T1035 1315T1170 1360L1277 1573Q1291 1605 1314 1620T1361 1635Q1387 1635 1405 1624T1424
1590Q1424 1588 1424 1586T1423 1581L1421 1573Z" />
<glyph unicode="%" glyph-name="percent" horiz-adv-x="1769" d="M1530 427Q1530 472 1506 498T1435 525Q1393 525 1354 496T1285 421T1237 319T1218 210Q1218 187 1223 165T1239 126T1267 98T1308 87Q1353 87 1393 117T1464 196T1512 305T1530 427ZM701 857Q701
920 679 950T615 980Q567 980 526 952T455 878T408 774T390 657Q390 634 396 612T413 571T441 542T480 530Q526 530 566 559T637 636T684 741T701 857ZM529 -233Q520 -247 507 -253T477 -259Q462 -259 447 -254T419 -239T398 -216T390 -187Q390 -165 405 -143L1147
932Q1108 911 1072 896T997 871T917 853T828 841Q828 750 797 671T716 534T600 441T468 407Q414 407 375 427T310 483T272 565T259 665Q259 745 289 823T372 962T496 1061T648 1099Q720 1099 766 1057T828 939Q895 956 951 978T1059 1028T1163 1088T1275 1159Q1296
1176 1316 1184T1353 1192Q1383 1192 1402 1172T1422 1119Q1422 1091 1406 1060L702 22Q761 41 817 57T923 87T1013 111T1081 127Q1075 157 1075 189Q1075 277 1103 360T1181 507T1297 609T1440 648Q1489 648 1531 633T1603 590T1651 521T1669 431Q1669 338 1640
253T1559 102T1440 -1T1292 -40Q1234 -40 1190 -18T1118 42Q958 -11 847 -60T664 -148Q581 -193 529 -233Z" />
<glyph unicode="&amp;" glyph-name="ampersand" horiz-adv-x="1119" d="M479 361Q356 260 356 207Q356 178 379 167T432 155Q482 155 534 181Q551 189 589 214T687 282L566 442Q524 399 479 361ZM967 700Q951 687 935 682T902 676Q884 676 868 682T839 699T819
723T812 750Q812 762 828 781T862 824T897 874T913 927Q913 957 892 975T839 994Q799 994 753 972T667 916T601 839T574 757Q574 685 633 613L802 406Q826 436 845 466T879 521H1053Q1026 456 987 393T895 266Q911 241 925 220T954 177T987 128T1032 68Q1040 57
1044 45T1048 23Q1048 -9 1026 -31T971 -54Q949 -54 926 -41T879 2L776 142Q666 60 613 30Q509 -28 423 -28Q371 -28 326 -13T246 31T193 101T173 193Q173 230 198 279T264 379T354 476T451 553Q464 561 464 566Q430 619 415 669T399 767Q399 820 419 869T474 960T555
1036T654 1095T761 1133T869 1146Q945 1146 1007 1116T1101 1017Q1114 990 1114 958Q1114 922 1099 886T1062 817T1015 753T967 700Z" />
<glyph unicode="&apos;" glyph-name="quotesingle" horiz-adv-x="671" d="M858 1368Q821 1298 781 1227T698 1084T616 944T538 809Q523 783 499 769T451 755Q433 755 422 763T410 789Q410 794 411 799T415 809Q447 884 479 959T541 1106T599 1244T650 1368Q657
1384 669 1396T698 1416T734 1427T772 1431Q808 1431 835 1419T863 1385Q863 1381 862 1376T858 1368Z" />
<glyph unicode="(" glyph-name="parenleft" horiz-adv-x="914" d="M929 1535Q963 1577 994 1593T1051 1609Q1069 1609 1083 1603T1108 1589T1125 1570T1131 1550T1125 1535Q996 1386 894 1229T721 908T612 570T574 216Q574 160 575 118T580 39T591 -34T611 -115Q612
-119 612 -127Q612 -142 605 -154T587 -176T560 -191T529 -196Q502 -196 476 -178T439 -115Q430 -76 423 -30T410 64T401 162T398 257Q398 418 430 576T528 891T694 1209T929 1535Z" />
<glyph unicode=")" glyph-name="parenright" horiz-adv-x="680" d="M360 -115Q310 -172 271 -194T203 -217Q174 -217 159 -200T144 -161Q144 -149 148 -137T164 -115Q291 31 393 187T566 509T675 846T714 1196Q714 1364 678 1535Q675 1545 675 1554Q675 1587 699
1607T754 1628Q783 1628 811 1607T850 1535Q890 1339 890 1156Q890 991 857 835T758 523T593 209T360 -115Z" />
<glyph unicode="*" glyph-name="asterisk" horiz-adv-x="696" d="M966 1053L681 995L761 791L611 721L570 950L337 721L265 823L523 1008L299 1077L412 1217L601 1106L699 1368H854L698 1094L981 1192L966 1053Z" />
<glyph unicode="+" glyph-name="plus" horiz-adv-x="1277" d="M1226 640H842L658 256H530L714 640H330L390 768H774L958 1152H1086L902 768H1286L1226 640Z" />
<glyph unicode="," glyph-name="comma" horiz-adv-x="737" d="M602 233Q522 115 445 2T288 -229Q271 -253 252 -264T216 -275Q201 -275 191 -268T181 -246Q181 -236 185 -229Q228 -111 268 2T352 233Q360 255 376 271T413 297T457 313T504 318Q546 318 577 303T609
259Q609 246 602 233Z" />
<glyph unicode="-" glyph-name="hyphen" horiz-adv-x="985" d="M961 430Q978 430 988 416T998 382Q998 357 979 335T916 312H465Q448 312 440 324T431 353Q431 366 436 379T453 404T483 422T527 430H961Z" />
<glyph unicode="." glyph-name="period" horiz-adv-x="732" d="M580 139Q580 108 569 80T538 31T492 -3T437 -16Q413 -16 392 -7T356 19T331 56T322 102Q322 132 333 159T365 208T412 241T470 254Q519 254 549 221T580 139Z" />
<glyph unicode="/" glyph-name="slash" horiz-adv-x="892" d="M1244 1476Q1007 1072 771 668T297 -140Q283 -165 263 -175T221 -185Q192 -185 168 -170T144 -131Q144 -126 145 -120T149 -109Q384 298 616 700T1083 1510Q1097 1533 1118 1543T1164 1554Q1202 1554
1223 1536T1245 1491Q1245 1481 1244 1476Z" />
<glyph unicode="0" glyph-name="zero" horiz-adv-x="896" d="M769 601Q769 672 743 703T676 734Q611 734 551 698T443 601T368 462T339 302Q339 270 344 239T361 183T395 143T451 128Q503 128 547 151T626 214T688 303T733 405T760 509T769 601ZM957 601Q957 536
940 465T889 324T809 191T703 80T573 4T423 -25Q361 -25 312 -2T227 62T173 163T154 294Q154 357 172 427T223 564T304 694T411 802T539 877T686 905Q746 905 796 883T882 820T937 724T957 601Z" />
<glyph unicode="1" glyph-name="one" horiz-adv-x="736" d="M258 97Q286 142 309 183T352 264T392 340T433 416L570 665Q557 660 527 648T462 623T397 597T354 581Q351 579 347 579T340 578Q324 578 312 591T299 627Q299 646 311 669T354 717Q421 762 488 798Q516
813 547 827T608 853T668 872T723 879Q752 879 773 864T795 810Q795 798 793 783T783 750Q768 719 747 671T700 565T648 443T593 317T539 199T492 99Q477 69 457 46T414 8T367 -16T322 -24Q290 -24 268 -8T245 42Q245 53 247 68T258 97Z" />
<glyph unicode="2" glyph-name="two" horiz-adv-x="896" d="M859 167Q863 168 866 168T872 169Q893 169 907 153T921 114Q921 81 898 55T838 12T759 -15T677 -24Q645 -24 614 -21T546 -6T463 26T354 82Q295 45 262 24T210 -7T185 -19T173 -21Q161 -21 149 -14T125
6T107 33T100 66Q100 80 106 94T129 119Q195 155 263 195T394 280T512 372T608 466T672 561T696 655Q696 700 674 718T616 737Q587 737 554 727T486 702T419 669T357 636T306 610T272 600Q256 600 242 607T218 625T203 651T197 680Q197 705 220 731T281 783T368
830T468 869T570 895T663 905Q712 905 755 893T831 853T881 780T900 670Q900 615 883 560T819 447T695 326T494 195Q537 176 586 163T674 150Q703 150 726 151T770 154T812 160T859 167Z" />
<glyph unicode="3" glyph-name="three" horiz-adv-x="800" d="M552 238Q552 262 548 284T528 323T485 350T410 360Q394 360 377 358T339 355Q311 355 298 372T285 409Q285 435 310 455T384 484Q453 495 503 520T585 573T633 628T649 670Q649 699 629 717T579 736Q529
736 490 728T418 711T357 694T302 686Q273 686 251 704T229 750Q229 772 248 797Q276 818 315 837T400 870T493 894T589 903T678 893T751 858T801 796T820 700Q820 622 755 553T568 441Q619 429 652 408T704 362T731 308T739 253Q739 174 715 110T650 -6T554 -98T434
-168T301 -219T165 -254Q149 -257 137 -259T114 -261Q76 -261 58 -245T39 -207Q39 -184 59 -161T118 -126Q160 -117 208 -101T305 -60T397 -4T475 64T530 145T552 238Z" />
<glyph unicode="4" glyph-name="four" horiz-adv-x="976" d="M983 723Q962 677 939 629T894 532T850 438T809 351Q763 254 720 163H899Q919 163 930 148T941 111Q941 92 935 73T915 37T882 11T834 0H651L497 -341Q479 -376 454 -391T402 -406Q369 -406 346 -386T322
-335Q322 -328 324 -321T329 -306L461 0H194Q179 0 166 1T143 8T126 21T120 45Q120 62 127 85T154 143Q175 182 202 236T260 352T320 479T379 604T429 717T465 806Q480 848 511 865T574 883Q608 883 634 867T662 825Q661 820 661 816T658 806Q624 723 586 639T510
472T433 313T362 167Q388 168 409 168T448 168Q496 168 524 168L552 167L564 196Q576 224 598 271T649 381T709 509T772 643T832 768Q858 828 890 855T949 883Q972 883 988 864T1004 810Q1004 791 999 769T983 723Z" />
<glyph unicode="5" glyph-name="five" horiz-adv-x="884" d="M846 269Q846 190 822 125T757 6T661 -90T541 -164T408 -218T272 -254Q256 -257 244 -259T221 -261Q183 -261 165 -245T146 -207Q146 -184 166 -161T225 -126Q266 -117 313 -100T407 -58T497 -1T574
70T627 153T649 248Q649 279 638 301T606 338T559 359T500 366Q465 366 427 359T351 338Q333 332 320 324T295 308T274 295T254 290Q222 290 204 313T185 368Q185 391 195 412L364 789Q375 813 386 830T411 858T444 874T486 879H957Q985 879 1000 857T1016 805Q1016
787 1010 769T990 736T955 712T904 703H519Q494 653 470 607Q450 568 429 527T394 458Q448 492 500 507T599 523Q653 523 698 505T776 452T827 372T846 269Z" />
<glyph unicode="6" glyph-name="six" horiz-adv-x="980" d="M356 280Q356 222 394 185T495 148Q548 148 600 180T693 261T760 368T786 480Q786 527 757 547T679 568Q650 568 616 561T546 541T474 510T404 470Q356 365 356 280ZM171 300Q171 347 187 413T237 559T325
725T452 900T621 1073T836 1234Q850 1244 869 1244Q885 1244 900 1237T928 1218T948 1191T956 1159Q956 1142 948 1126T918 1095Q824 1032 755 970T635 850T553 745T500 663Q557 689 619 703T742 718Q789 718 831 706T905 666T955 594T974 488Q974 420 955 355T903
234T823 130T721 48T603 -5T474 -24Q406 -24 350 0T254 68T193 171T171 300Z" />
<glyph unicode="7" glyph-name="seven" horiz-adv-x="870" d="M822 880Q912 880 951 859T991 802Q991 767 959 721T870 621Q855 604 823 558T750 450T662 317T569 176T482 48T412 -48Q366 -107 327 -131T259 -156Q223 -156 203 -134T183 -82Q183 -51 206 -25Q228
5 259 49T326 144T403 252T483 366T561 476T631 575T689 654T728 706L506 705Q406 705 349 709T262 723T225 750T217 792Q217 821 230 838T264 865T309 878T354 881Q371 881 382 880T399 879L822 880Z" />
<glyph unicode="8" glyph-name="eight" horiz-adv-x="964" d="M698 282Q698 336 672 381T600 467Q544 423 496 387T413 319T358 262T338 215Q338 172 378 146T487 120Q530 120 568 132T635 165T681 216T698 282ZM934 907Q906 930 876 940T814 950Q765 950 718
930T635 879T576 814T553 751Q553 669 651 602Q711 624 765 658T860 729T926 804T951 870Q951 892 934 907ZM909 1089Q973 1071 1017 1049T1089 1002T1129 949T1141 893Q1141 851 1119 809T1063 726T987 649T904 585T828 539T774 515Q876 431 876 298Q876 226 845
167T759 65T629 -1T467 -25Q402 -25 346 -9T249 38T184 109T160 200Q160 288 229 362Q262 397 487 540Q430 592 402 648T373 761Q373 805 388 847T431 928T497 998T582 1054T681 1091T790 1105Q851 1105 909 1089Z" />
<glyph unicode="9" glyph-name="nine" horiz-adv-x="1037" d="M889 601Q889 605 889 608T890 617Q890 668 856 700T764 733Q726 733 687 716T612 669T543 602T486 522T448 438T434 357Q434 302 460 278T529 253Q558 253 593 261T665 285T741 322T816 371Q879 499
889 601ZM1072 581Q1062 489 1012 369T868 119T634 -143T303 -393Q295 -401 286 -402T269 -403Q238 -403 214 -380T190 -326Q190 -309 200 -289T235 -254Q335 -194 411 -134T543 -20T636 80T698 158Q638 132 574 118T450 103Q407 103 370 115T304 154T260 222T244
323Q244 399 266 471T327 609T419 728T535 821T665 883T803 905Q866 905 916 884T1001 826T1055 738T1074 625Q1074 614 1074 603T1072 581Z" />
<glyph unicode=":" glyph-name="colon" horiz-adv-x="815" d="M579 139Q573 108 558 80T520 31T470 -3T412 -16Q368 -16 342 12T316 82Q316 115 331 146T370 201T425 239T489 254Q534 254 557 230T581 164Q581 158 581 152T579 139ZM811 573Q806 544 790 517T751
470T700 438T641 426Q597 426 571 452T545 520Q545 553 560 584T600 639T656 677T721 692Q764 692 788 667T813 599Q813 593 813 587T811 573Z" />
<glyph unicode=";" glyph-name="semicolon" horiz-adv-x="711" d="M579 233L176 -279H73L329 233H579ZM705 573Q701 544 687 517T651 470T602 438T544 426Q499 426 473 454T446 525Q446 558 459 587T494 639T546 675T607 688Q652 688 679 663T706 590Q706 586
706 582T705 573Z" />
<glyph unicode="&lt;" glyph-name="less" horiz-adv-x="1329" d="M1124 184Q938 290 753 396T381 610Q348 628 348 665Q348 694 369 721T434 766Q694 872 951 978T1469 1192Q1482 1197 1491 1197Q1510 1197 1520 1184T1531 1149Q1531 1133 1524 1115T1502 1078T1464
1041T1406 1008Q1203 927 1003 848T600 688Q747 607 893 527T1186 365Q1215 348 1227 329T1240 290Q1240 269 1231 249T1207 214T1175 189T1143 179Q1130 179 1124 184Z" />
<glyph unicode="=" glyph-name="equal" horiz-adv-x="1510" d="M1337 494H501Q475 494 467 513T465 554T497 596T562 615H1397Q1425 615 1434 596T1435 555T1401 513T1337 494ZM1526 870H690Q659 870 643 889T630 930T663 972T750 991H1586Q1620 991 1629 972T1628
931T1590 889T1526 870Z" />
<glyph unicode="&gt;" glyph-name="greater" horiz-adv-x="1355" d="M1298 610Q1041 503 787 397T277 184Q268 181 259 181Q235 181 219 197T202 240Q202 270 231 305T332 365Q533 446 731 526T1130 688Q980 769 832 850T535 1012Q511 1025 501 1044T490 1087Q490
1106 496 1125T514 1160T540 1185T573 1195Q582 1195 591 1192L1347 766Q1369 753 1381 737T1393 705Q1393 681 1370 657T1298 610Z" />
<glyph unicode="?" glyph-name="question" horiz-adv-x="903" d="M481 139Q473 108 455 80T413 31T360 -3T302 -16Q260 -16 237 8T214 71Q214 105 230 138T273 197T333 238T400 254Q442 254 463 231T485 173Q485 155 481 139ZM733 640Q692 611 656 579T589 514T538
450T504 390Q496 373 474 365T434 357Q414 357 399 366T384 394Q384 397 386 405Q406 480 471 555T627 699Q666 724 710 755T792 819T859 883T894 942Q899 964 899 978Q899 1009 882 1023T836 1037T768 1025T687 989T606 933T536 860Q514 831 482 831Q469 831 456
834T433 844T417 860T410 881Q410 895 417 908T438 938Q487 998 547 1044T670 1123T795 1171T911 1188Q949 1188 981 1179T1036 1152T1072 1107T1085 1041Q1085 981 1066 934T1004 841T894 748T733 640Z" />
<glyph unicode="@" glyph-name="at" horiz-adv-x="1856" d="M1274 1008Q1190 1008 1103 977T938 888T801 751T711 573Q635 330 860 330Q946 330 1027 367T1183 485T1323 689T1443 987L1428 990Q1412 994 1388 997T1333 1004T1274 1008ZM825 -155Q605 -155 465
-96T255 63T178 297T217 578Q261 720 332 840T492 1057T685 1229T900 1354T1122 1430T1342 1456Q1450 1456 1546 1438T1721 1381T1856 1285T1942 1150T1971 974T1933 756Q1900 649 1854 566T1752 421T1639 317T1523 248T1414 211T1319 199Q1284 199 1268 208T1246
234T1244 271T1256 316L1328 548Q1298 489 1248 428T1132 315T982 232T803 199Q717 199 658 226T568 305T535 428T561 590Q581 655 620 720T714 845T836 956T977 1046T1133 1106T1295 1128Q1311 1128 1339 1126T1400 1121T1464 1113T1518 1104Q1547 1099 1560 1088T1578
1062T1585 1027T1591 987L1383 317Q1444 317 1499 341T1603 419T1694 556T1774 758Q1809 869 1809 953T1783 1100T1707 1203T1594 1270T1456 1306T1305 1317Q1154 1317 1011 1267T744 1122T526 890T376 578Q333 440 343 330T415 143T593 25T878 -16Q965 -16 1039
-5T1172 22T1276 58Q1322 78 1351 94T1396 122L1411 134L1474 42Q1419 -3 1348 -39T1193 -101T1016 -141T825 -155Z" />
<glyph unicode="A" glyph-name="A" horiz-adv-x="1323" d="M1076 285Q1071 266 1066 242T1060 195Q1060 175 1066 161T1092 147Q1119 147 1156 166T1237 218T1326 293T1417 381T1503 473T1576 559L1613 426Q1547 338 1477 257T1335 114T1189 15T1044 -22Q1002
-22 973 -9T925 28T899 82T890 147Q890 160 891 184T893 233T896 280T898 307L543 285L378 283Q336 192 295 122Q277 92 257 63T217 12T177 -24T138 -38Q108 -38 89 -29T59 -7T44 24T39 56Q39 82 46 107T66 156L198 378Q207 392 234 445T305 575T406 747T529 937T670
1125T823 1286T982 1399T1141 1442Q1215 1442 1286 1396T1423 1245Q1430 1231 1430 1221Q1430 1208 1423 1195T1405 1172T1379 1156T1350 1150Q1332 1150 1309 1158T1264 1192Q1233 1228 1200 1244T1133 1261Q1086 1261 1037 1235T939 1163T840 1058T745 932T656
797T575 665T506 549T450 460H633L942 483Q951 503 966 537T999 615T1040 708T1084 808T1129 908T1170 1000Q1183 1038 1208 1054T1263 1070Q1278 1070 1293 1066T1320 1052T1341 1028T1350 993Q1350 974 1334 928T1292 820T1235 686T1173 541T1116 402T1076 285Z"
/>
<glyph unicode="B" glyph-name="B" horiz-adv-x="1293" d="M874 924Q963 960 1030 998T1142 1073T1210 1146T1233 1210Q1233 1220 1223 1233T1193 1257T1141 1275T1069 1283Q959 1283 865 1257T694 1192T558 1113T459 1040Q434 1021 416 1003T380 970T342 946T294
937Q252 937 229 957T205 1013Q205 1056 239 1104T333 1201T474 1292T648 1369T843 1422T1047 1442Q1152 1442 1228 1425T1352 1378T1424 1307T1448 1218T1416 1118T1325 1014T1180 915T987 828Q1093 793 1159 755T1263 675T1314 589T1327 497Q1327 428 1289 361T1184
235T1024 125T822 38T592 -19T347 -40Q303 -40 258 -35T176 -17T115 18T91 75Q91 79 91 82T93 91Q97 99 102 110T125 133T181 151T292 159Q417 388 498 553T635 826T727 984T801 1035Q817 1035 832 1030T858 1017T877 996T884 968Q876 958 875 948T874 924ZM819
733Q774 631 735 550T660 402T594 276T532 161Q648 171 748 201T923 277T1040 378T1083 496Q1083 524 1071 555T1028 617T947 678T819 733Z" />
<glyph unicode="C" glyph-name="C" horiz-adv-x="1039" d="M1364 1263Q1364 1236 1356 1198T1331 1119T1293 1038T1241 965T1178 912T1105 892Q1096 892 1082 893T1053 900T1028 917T1017 946Q1017 958 1023 974T1047 1011Q1065 1031 1086 1058T1124 1116T1152
1175T1164 1227Q1164 1256 1151 1273T1104 1291Q1061 1291 1007 1263T894 1186T774 1072T656 932T549 777T461 618T402 467T380 335Q380 262 419 218T548 174Q590 174 673 206T811 271T923 343T1031 419T1124 485T1193 527Q1198 531 1205 531Q1220 531 1225 507T1231
451Q1231 434 1227 410T1198 353Q1187 340 1157 309T1082 239T979 158T854 81T680 12T494 -22Q401 -22 335 0T227 63T166 158T146 280Q146 362 171 456T240 647T346 841T481 1026T638 1191T808 1323T983 1411T1156 1443Q1198 1443 1236 1434T1302 1403T1347 1348T1364
1263Z" />
<glyph unicode="D" glyph-name="D" horiz-adv-x="1397" d="M928 901Q911 870 884 819T821 705T744 570T658 424T567 281T476 150Q584 161 684 205T871 314T1031 461T1155 630T1235 806T1264 972Q1264 1038 1248 1094T1198 1191T1112 1255T990 1278Q925 1278 860
1266T734 1232T624 1183T537 1121Q497 1077 467 1033T407 954T343 897T263 875Q177 875 177 951Q177 999 208 1054T294 1164T426 1269T595 1358T791 1420T1005 1443Q1133 1443 1228 1405T1385 1301T1478 1144T1509 950T1474 732T1370 508T1201 299T970 125T681
6T338 -38Q298 -38 275 -13T252 50Q252 79 262 106T288 156L699 973Q728 1018 756 1045T809 1087T853 1106T882 1111Q927 1111 946 1085T965 1023Q965 994 955 962T928 901Z" />
<glyph unicode="E" glyph-name="E" horiz-adv-x="1155" d="M1078 825Q1094 825 1109 821T1136 810T1155 794T1162 774Q1162 758 1142 742T1073 711T943 688T737 679Q670 679 604 661T486 606T402 518T369 399Q369 345 384 296T431 210T510 151T623 129Q754 129
841 144T986 183T1082 234T1152 284T1219 323T1306 339Q1348 339 1372 319T1396 260Q1396 234 1369 202T1291 137T1169 72T1011 17T824 -23T616 -38Q517 -38 430 -12T278 68T176 200T138 387Q138 479 180 554T294 687T463 781T669 832Q585 895 551 955T517 1075Q517
1133 546 1182T625 1273T743 1345T887 1398T1046 1431T1209 1443Q1291 1443 1364 1426T1496 1373T1591 1282T1636 1152Q1636 1131 1626 1109T1596 1069T1546 1039T1477 1027Q1456 1027 1444 1032T1425 1046T1417 1067T1415 1095Q1415 1142 1404 1176T1368 1231T1301
1263T1199 1274Q1126 1274 1047 1259T902 1214T794 1143T751 1051Q751 991 778 948T851 878T956 838T1078 825Z" />
<glyph unicode="F" glyph-name="F" horiz-adv-x="855" d="M1182 826Q1170 797 1159 780T1135 754T1106 741T1067 738Q973 746 906 750T786 754Q735 754 697 750T621 736Q606 712 576 660T510 542T435 400T365 256Q296 106 242 32T149 -42Q103 -42 83 -26T62 23Q62
61 89 129T166 296Q184 332 205 373T249 455T292 535T330 605T358 659T373 688Q376 696 377 699T379 703T380 705T381 710H363Q325 710 302 716T279 742Q279 753 288 770Q309 809 335 829T385 859T430 868T462 869Q489 924 516 979T570 1089Q621 1190 673 1258T788
1367T925 1425T1096 1443Q1184 1443 1236 1438T1310 1428Q1350 1417 1366 1391T1383 1332Q1383 1307 1375 1282T1352 1237T1319 1203T1281 1190Q1270 1190 1262 1194Q1240 1204 1223 1211T1187 1223T1147 1230T1091 1232Q1057 1232 1011 1231T897 1226Q870 1179
847 1139T801 1059T755 979T703 890Q740 903 783 913T872 931T964 942T1052 946Q1128 946 1161 934T1195 885Q1195 877 1194 862T1182 826Z" />
<glyph unicode="G" glyph-name="G" horiz-adv-x="1336" d="M1245 435Q1241 430 1231 404T1205 337T1173 248T1137 147T1101 46T1071 -44T1048 -111T1037 -143Q1032 -159 1021 -178T995 -215T962 -244T925 -256Q893 -256 879 -238T864 -172Q864 -165 864 -158T865
-143Q866 -127 880 -83T913 16T955 131T996 238Q943 188 881 139T754 50T623 -15T496 -40Q426 -40 376 -14T292 54T243 149T227 255Q227 262 227 268T228 280Q234 376 260 477T330 678T429 873T552 1054T694 1210T848 1333T1007 1414T1167 1443Q1258 1443 1343
1401T1502 1265Q1519 1244 1523 1223T1528 1182Q1528 1137 1503 1111T1442 1085Q1410 1085 1383 1113T1321 1195Q1289 1243 1251 1264T1167 1286Q1097 1286 1018 1237T860 1108T711 924T584 712T497 498T464 308Q464 280 468 251T485 197T519 158T574 142Q611 142
658 163T755 218T857 295T952 382T1030 466T1081 537L1174 772Q1191 810 1218 826T1275 842Q1289 842 1303 838T1328 826T1345 804T1352 772Q1352 724 1342 682T1317 600T1282 520T1245 435Z" />
<glyph unicode="H" glyph-name="H" horiz-adv-x="1467" d="M1401 405Q1396 405 1393 405T1385 404Q1336 294 1299 211T1241 91Q1224 60 1203 37T1157 -1T1109 -24T1063 -32Q1032 -32 1011 -17T990 28Q990 54 1006 89L1150 394Q1041 390 941 387T747 382Q700 286
646 202T532 54T407 -45T272 -82Q218 -82 172 -54Q158 -48 142 -32T111 8T88 58T78 113Q78 133 85 151T105 187Q111 194 119 205T138 226T161 244T189 251Q195 251 201 250T212 244Q222 238 231 217T252 174T278 133T311 115Q338 115 365 135T421 192T479 280T537
391Q505 401 492 419T479 458Q479 470 488 482T513 503T550 520T598 528Q634 616 667 711T730 897T785 1071T829 1221T860 1330T875 1384Q883 1415 905 1429T954 1443Q993 1443 1013 1418T1034 1325Q1034 1317 1034 1309T1033 1290Q1031 1264 1023 1220T1002 1117T970
990T928 845T876 689T814 530Q845 530 882 530T965 530T1071 528T1206 524Q1207 524 1208 524T1210 523Q1298 708 1377 871T1522 1157T1639 1351T1723 1422Q1758 1422 1775 1406T1793 1361Q1793 1346 1790 1335T1780 1309Q1754 1246 1714 1154T1627 956T1530 735T1432
513Q1462 507 1481 497T1501 469Q1501 447 1478 428T1401 405Z" />
<glyph unicode="I" glyph-name="I" horiz-adv-x="1075" d="M778 8Q712 15 661 17T564 20Q534 20 506 19T449 18T390 16T325 15Q292 15 274 34T256 81Q256 92 259 104Q262 114 282 125T336 147T415 166T511 178Q563 291 619 406T733 631T844 841T945 1023T1029
1167T1091 1260Q1040 1249 992 1237T884 1212Q872 1208 860 1208Q831 1208 815 1228T799 1278Q799 1291 822 1308T887 1344T985 1380T1108 1412T1248 1434T1397 1443Q1467 1443 1506 1429T1546 1379Q1546 1362 1536 1345T1510 1313T1470 1291T1422 1282Q1408 1282
1396 1283T1370 1285Q1333 1285 1301 1284T1240 1280Q1242 1270 1242 1265Q1242 1251 1237 1239T1227 1215Q1196 1150 1152 1059T1058 864T957 655T859 455T776 288T720 176Q776 171 823 163T903 142T956 112T975 74Q975 59 965 45T939 19T903 1T862 -6Q839 -6
819 0T778 8Z" />
<glyph unicode="J" glyph-name="J" horiz-adv-x="1257" d="M1264 636Q1202 499 1130 376T975 159T802 12T616 -43Q560 -43 503 -25T387 31T267 130T144 277Q129 294 123 311T117 348Q117 363 126 385T154 427T198 462T257 477Q277 477 294 470T325 446Q405 286
483 212T639 138Q695 138 750 174T861 280T971 450T1083 677L1370 1272Q1263 1273 1194 1273T1098 1273Q1080 1273 1066 1281T1041 1301T1024 1328T1018 1357Q1018 1385 1040 1402T1110 1420Q1119 1420 1128 1420T1147 1419Q1221 1419 1295 1423T1443 1431T1590
1440T1736 1444Q1793 1444 1829 1441T1887 1431T1916 1414T1924 1392Q1924 1376 1917 1359T1888 1328T1829 1304T1728 1295Q1699 1295 1665 1293T1589 1285L1264 636Z" />
<glyph unicode="K" glyph-name="K" horiz-adv-x="1596" d="M288 -54Q274 -48 259 -32T229 6T206 54T197 108Q197 148 225 187Q231 194 239 205T259 226T284 244T311 251Q317 251 323 250T334 244Q344 238 353 217T373 174T398 133T430 115Q464 115 502 148T579
240T658 375T736 541T811 723T879 907T939 1079T987 1225T1021 1332T1037 1385Q1046 1416 1068 1430T1117 1444Q1155 1444 1175 1421T1195 1335Q1195 1325 1195 1314T1193 1291Q1190 1262 1180 1211T1151 1092T1108 945T1052 779Q1195 901 1305 992T1499 1148T1642
1256T1741 1323T1806 1358T1844 1368Q1859 1368 1870 1360T1888 1341T1899 1319T1903 1300Q1903 1283 1895 1268T1869 1241Q1799 1192 1722 1133T1568 1012T1415 886T1274 767T1153 666T1061 593Q1114 522 1163 458T1258 334T1346 215T1427 98Q1440 78 1445 59T1451
23Q1451 -4 1439 -24T1411 -57T1377 -76T1347 -83Q1314 -83 1285 -60T1234 0Q1203 41 1183 70T1145 124T1112 177T1071 242T1010 335T920 469Q867 359 807 259T679 83T539 -37T389 -82Q362 -82 337 -75T288 -54Z" />
<glyph unicode="L" glyph-name="L" horiz-adv-x="1297" d="M326 209Q326 196 340 183T383 157T459 138T571 129Q541 145 511 162T452 194T401 218T362 228Q326 228 326 209ZM1215 1322Q1230 1352 1251 1375T1296 1413T1345 1435T1392 1443Q1424 1443 1446 1427T1468
1378Q1468 1353 1455 1324Q1399 1204 1341 1083T1225 845T1110 622T1002 422T905 257T822 136Q909 142 981 152T1120 175T1254 203T1400 235Q1405 237 1411 238T1422 239Q1453 239 1471 215T1489 159Q1489 140 1453 119T1355 76T1208 36T1025 2T820 -21T607 -30Q484
-30 395 -13T249 34T164 105T136 194Q136 241 153 273T201 326T273 355T363 364Q402 364 444 350T526 314T603 264T667 208Q690 268 722 342T793 497T873 664T957 833T1039 993T1113 1134T1173 1247T1215 1322Z" />
<glyph unicode="M" glyph-name="M" horiz-adv-x="1821" d="M1485 71Q1494 157 1507 270T1535 506T1565 755T1596 989Q1543 887 1489 784T1387 589T1298 421T1232 300Q1209 269 1186 241T1141 192T1096 159T1053 146Q1025 146 1009 158T992 194Q992 199 992 203T995
213Q989 355 986 499T983 784Q983 817 983 850T984 915Q944 825 897 728T799 537T694 355T586 196T480 74T379 3Q337 -14 306 -21T251 -29Q215 -29 198 -15T180 21Q180 46 201 73T260 115Q306 133 360 194T473 344T590 540T704 759T809 976T896 1169T958 1312T989
1384Q1003 1415 1028 1429T1079 1443Q1115 1443 1129 1424T1143 1354Q1151 1291 1156 1236T1166 1122T1171 996T1173 840Q1173 777 1171 701T1168 531Q1288 749 1380 915T1541 1194T1657 1364T1732 1422H1739Q1742 1422 1745 1422T1751 1423Q1775 1423 1789 1393T1803
1315Q1799 1266 1791 1193T1773 1033T1750 848T1726 656T1704 470T1686 307Q1684 294 1684 281T1684 253Q1684 227 1685 201T1686 148Q1686 118 1683 88T1667 33T1624 -7T1544 -23Q1517 -23 1501 -3T1485 71Z" />
<glyph unicode="N" glyph-name="N" horiz-adv-x="1527" d="M1065 1347Q1081 1278 1097 1196T1128 1026T1159 846T1190 666T1220 495T1250 342Q1351 541 1444 719T1619 1038T1766 1279T1880 1422Q1901 1442 1924 1450T1969 1458Q2001 1458 2023 1442T2046 1401Q2046
1386 2041 1376T2025 1354Q1984 1307 1948 1268T1878 1185T1809 1087T1737 958Q1692 875 1647 788T1560 614T1480 446T1409 297T1351 175T1308 91Q1279 29 1242 -1T1173 -32H1166Q1146 -31 1127 -24T1092 -3T1065 32T1049 83Q1033 146 1021 206T997 330T975 463T950
615T921 794T882 1009Q852 909 809 790T714 549T602 314T476 112T341 -29T201 -82Q189 -82 173 -77T143 -61T118 -35T108 -2Q108 12 113 23T129 51Q142 72 170 87T234 122T314 166T400 234Q424 257 457 316T528 457T608 636T690 833T766 1026T830 1196T877 1322T899
1384Q909 1414 931 1428T980 1443Q979 1443 978 1442Q981 1442 984 1442T991 1443Q1013 1443 1034 1422T1065 1347Z" />
<glyph unicode="O" glyph-name="O" horiz-adv-x="1341" d="M235 459Q235 605 278 734T395 973T565 1170T767 1317T981 1410T1188 1443Q1275 1443 1353 1423T1493 1362T1596 1259T1651 1112Q1652 1107 1652 1103T1652 1094Q1652 1055 1630 1035T1581 1014Q1552
1014 1527 1045T1479 1133Q1442 1203 1372 1235T1214 1267Q1137 1267 1053 1239T886 1160T728 1038T596 880T506 693T472 486Q472 397 494 336T552 237T633 182T724 165Q827 165 920 221T1085 381T1198 636T1240 976Q1240 995 1240 1013T1239 1052Q1239 1102 1257
1125T1298 1149Q1337 1149 1361 1128T1400 1071T1419 990T1425 896Q1425 760 1396 640T1316 417T1194 233T1041 95T869 8T686 -23Q601 -23 520 1T376 82T274 231T235 459Z" />
<glyph unicode="P" glyph-name="P" horiz-adv-x="1191" d="M763 537Q744 495 721 436T671 313T614 186T550 74T481 -7T408 -38Q377 -38 357 -29T326 -5T311 27T306 61Q306 85 313 110T332 156L715 861Q740 905 762 930T804 967T839 981T864 984Q882 984 897 972T912
926Q912 894 895 838T832 694Q910 700 986 720T1122 777T1220 864T1257 984Q1257 1044 1238 1098T1181 1194T1088 1260T961 1285Q863 1285 793 1267T672 1218T587 1149T529 1070T485 991T446 922T399 874T335 855Q286 855 263 880T239 951T264 1051T335 1161T446
1266T594 1356T772 1418T976 1442Q1076 1442 1168 1414T1332 1328T1445 1186T1488 985Q1488 880 1438 796T1302 653T1104 563T868 531Q842 531 816 532T763 537Z" />
<glyph unicode="Q" glyph-name="Q" horiz-adv-x="1315" d="M210 459Q210 605 253 734T370 973T540 1170T742 1317T956 1410T1163 1443Q1250 1443 1328 1423T1468 1362T1571 1259T1626 1112Q1627 1107 1627 1103T1627 1094Q1627 1055 1605 1035T1556 1014Q1527
1014 1502 1045T1454 1133Q1417 1203 1347 1235T1189 1267Q1112 1267 1028 1239T861 1160T703 1038T571 880T481 693T447 486Q447 397 469 336T527 237T608 182T699 165H704Q701 176 700 187T698 209Q698 231 705 247T725 275T754 293T788 299Q819 299 847 280T889
220Q979 280 1041 357T1142 535T1197 760T1214 1042Q1214 1097 1238 1123T1293 1149Q1326 1149 1346 1128T1379 1071T1395 990T1400 896Q1400 740 1362 604T1258 358T1104 166T916 37Q933 -43 960 -97T1022 -184T1094 -231T1174 -245Q1208 -245 1243 -238T1308
-218T1363 -192T1402 -163Q1408 -160 1412 -158T1423 -155Q1439 -155 1451 -170T1464 -208Q1464 -228 1453 -250T1416 -297Q1358 -363 1292 -395T1158 -427Q1096 -427 1036 -401T923 -324T824 -195T747 -16Q725 -19 704 -21T661 -23Q576 -23 495 1T351 82T249 231T210
459Z" />
<glyph unicode="R" glyph-name="R" horiz-adv-x="1219" d="M707 651Q713 650 719 650T733 650Q820 650 897 687T1033 783T1124 912T1158 1050Q1158 1098 1141 1141T1086 1216T990 1267T850 1286Q759 1286 694 1269T581 1225T501 1163T445 1091T402 1019T363 957T317
913T255 896Q205 896 180 921T155 993Q155 1036 178 1086T245 1186T352 1282T493 1364T665 1421T862 1443Q964 1443 1057 1417T1223 1340T1337 1210T1380 1028Q1380 958 1355 895T1286 776T1186 674T1063 591T930 530T797 494Q806 447 826 389T876 278T942 188T1018
148Q1026 147 1033 147T1047 147Q1120 147 1177 171T1272 224Q1317 257 1350 301Q1381 336 1413 336Q1433 336 1447 322T1461 284Q1461 261 1447 231T1397 167Q1294 70 1196 26T1009 -19Q937 -19 876 22T765 133T674 296T601 494Q583 453 564 398T523 283T477 167T424
64T362 -10T290 -38Q258 -38 238 -28T207 -3T192 30T187 64Q187 87 193 111T210 156L505 696Q543 764 581 827T656 940T725 1018T784 1048Q791 1048 801 1046T819 1037T833 1018T839 986T828 933T799 855T757 759T707 651Z" />
<glyph unicode="S" glyph-name="S" horiz-adv-x="1196" d="M535 557Q564 557 577 534T591 480Q591 465 588 454T576 434T552 416T513 397Q457 373 425 340T393 273Q393 252 407 233T451 200T528 177T643 168Q712 168 774 184T882 231T956 302T984 391Q984 427
954 466T859 547Q744 622 685 668T611 726Q536 792 499 853T462 980Q462 1041 491 1099T571 1208T686 1302T823 1377T967 1425T1105 1443Q1154 1443 1195 1432T1268 1398T1316 1337T1334 1248Q1334 1173 1291 1105T1160 978Q1121 951 1088 951Q1054 951 1034 975T1014
1033Q1014 1061 1030 1089T1084 1137Q1113 1152 1135 1177T1158 1227Q1158 1250 1143 1257T1105 1264Q1063 1264 1014 1254T915 1225T819 1182T737 1128T680 1067T658 1002Q658 980 667 961T693 923T736 884T794 839L1028 666Q1073 633 1108 602T1168 539T1205
475T1218 407Q1218 327 1177 251T1059 114T875 17T636 -20Q514 -20 429 -1T288 52T208 129T183 221Q183 271 208 322T280 420T392 502T535 557Z" />
<glyph unicode="T" glyph-name="T" horiz-adv-x="1015" d="M529 47Q514 17 493 -6T448 -44T399 -66T352 -74Q320 -74 298 -58T276 -9Q276 2 278 15T289 45Q365 202 440 347T586 618T720 847T834 1024T922 1138T976 1178Q1011 1178 1028 1158T1045 1111Q1045 1089
1034 1067Q1009 1016 978 952T911 815T838 665T763 511T691 363T625 230T570 122T529 47ZM1698 1217Q1698 1199 1685 1167T1647 1103T1588 1049T1511 1026Q1501 1026 1486 1027T1457 1035T1432 1052T1422 1081Q1422 1090 1431 1106T1450 1142T1470 1179T1479 1209Q1479
1243 1431 1258T1270 1274Q1157 1270 1066 1261T898 1237T754 1203T622 1163T491 1117T349 1067Q342 1065 336 1063T324 1061Q308 1061 295 1068T273 1087T258 1114T252 1145Q252 1171 294 1203T409 1269T581 1333T794 1389T1033 1428T1282 1443Q1389 1443 1467
1426T1596 1379T1672 1308T1698 1217Z" />
<glyph unicode="U" glyph-name="U" horiz-adv-x="1195" d="M575 1355Q601 1407 633 1425T697 1443Q714 1443 729 1440T757 1428T776 1405T783 1369Q783 1343 772 1309T736 1227Q636 1050 568 854T459 462Q455 437 454 414T453 370Q453 311 468 270T507 204T562
168T622 157Q735 157 839 238T1024 467T1157 824T1217 1289Q1218 1316 1227 1336T1250 1370T1282 1389T1320 1396Q1344 1396 1359 1379T1384 1332T1396 1265T1400 1184Q1400 1007 1368 849T1278 556T1144 314T975 131T785 15T585 -26Q523 -26 461 0T348 76T267
198T236 362Q236 379 237 397T241 435Q254 512 269 581T305 718T350 855T407 1000T481 1164T575 1355Z" />
<glyph unicode="V" glyph-name="V" horiz-adv-x="968" d="M1261 1219Q1259 1199 1242 1155T1197 1051T1132 917T1053 766T966 608T876 454Q801 330 731 228T602 57Q610 42 610 27Q610 4 591 -14T540 -44T468 -62T386 -69Q354 -69 338 -55T321 -17Q321 11 334 29T367
55Q364 76 357 118T342 215T325 334T308 463T293 590T283 704Q278 776 275 840T272 961Q272 1015 275 1060T283 1141Q289 1177 307 1210T351 1270T407 1312T466 1328Q499 1328 512 1301T526 1223Q526 1191 521 1151T510 1074Q504 1036 500 1012L495 989Q492 971
491 947T490 891Q490 827 495 744T508 575T526 406T548 262Q617 352 688 464T819 699Q870 800 919 906T1020 1113Q1112 1282 1188 1282Q1220 1282 1241 1272T1262 1233Q1262 1224 1261 1219Z" />
<glyph unicode="W" glyph-name="W" horiz-adv-x="1372" d="M1643 1191Q1595 923 1372 487Q1311 363 1263 269T1171 112T1083 16T984 -16Q947 -16 921 2T876 71T844 216T821 460L598 133Q568 89 542 59T490 10T437 -17T380 -25Q337 -25 309 0T280 73Q280 144 280
229T285 420T297 653T322 937Q287 896 263 878T224 860Q211 860 205 871T199 901Q199 934 216 985T265 1094T344 1209T454 1312Q466 1320 481 1320Q499 1320 515 1307T544 1273T564 1226T572 1175Q572 1151 569 1135Q564 1113 560 1096T550 1055T539 993T525 889Q515
807 510 724T500 557T493 386T485 212Q507 239 536 281T596 371T657 467T711 554Q736 592 750 616L764 641Q801 735 839 826T914 1007Q950 1095 990 1143T1077 1191Q1115 1191 1138 1178T1161 1143Q1161 1108 1144 1061T1103 959T1058 848T1024 739Q1019 652 1016
591T1013 479Q1013 416 1014 347T1023 215Q1063 273 1106 340T1193 480T1276 627T1350 778T1409 925T1447 1064L1460 1139Q1460 1143 1461 1147T1462 1155Q1468 1185 1475 1209T1493 1249T1522 1275T1566 1284Q1609 1284 1628 1275T1648 1235Q1648 1225 1647 1215T1643
1191Z" />
<glyph unicode="X" glyph-name="X" horiz-adv-x="1087" d="M1198 1367Q1219 1388 1244 1404T1295 1432T1346 1450T1391 1457Q1414 1457 1423 1449T1433 1427Q1433 1406 1415 1374T1371 1307T1318 1240T1272 1188Q1136 1036 1016 903T786 655Q809 573 829 512T868
402T906 310T948 226T998 136T1060 27Q1065 18 1065 9Q1065 -3 1057 -12T1036 -27T1008 -37T978 -41Q939 -41 901 -15T821 73T732 236T625 486Q515 371 431 287T282 142T169 44T83 -15T15 -45T-44 -53Q-67 -53 -84 -40T-102 7Q-102 38 -83 62T-36 104T18 136T61
161Q107 192 162 240T282 352T417 490T565 652Q517 793 486 904T432 1112Q417 1174 405 1222T393 1300Q393 1327 412 1361T461 1425T523 1476T583 1497Q614 1497 637 1465T660 1352Q660 1337 659 1329T654 1314T647 1302T638 1286Q637 1283 637 1273Q637 1235 662
1129T732 854Q732 852 734 846L794 917Q851 975 898 1032T992 1146T1087 1258T1198 1367Z" />
<glyph unicode="Y" glyph-name="Y" horiz-adv-x="969" d="M638 665Q578 735 530 818T461 997Q444 1055 438 1105T431 1198Q431 1255 445 1301T484 1378T541 1427T609 1444Q682 1444 682 1367Q682 1353 677 1332T665 1284T654 1229T648 1172Q648 1113 661 1054T698
941T752 841T815 760L889 808Q948 846 1006 887T1112 974Q1149 1018 1177 1060T1226 1139T1259 1206T1276 1256Q1285 1298 1294 1328T1320 1377T1367 1405T1450 1414Q1498 1414 1498 1346Q1498 1342 1494 1311T1471 1227T1411 1102T1297 945Q1250 900 1198 859T1089
781T974 708T859 639L815 613L613 231Q584 175 572 146T557 105Q557 52 542 14T503 -49T451 -87T398 -99Q361 -99 335 -77T308 -12Q308 4 309 14T316 40T335 83T374 164L638 665Z" />
<glyph unicode="Z" glyph-name="Z" horiz-adv-x="1646" d="M1496 1270Q1512 1282 1532 1282Q1558 1282 1580 1263T1602 1214Q1602 1197 1592 1178T1556 1141Q1515 1111 1475 1075T1397 1003Q1323 927 1249 842T1099 667T946 483T790 297Q828 288 864 268T937 229T1010
194T1085 179Q1168 179 1231 208T1346 286T1438 400T1518 538Q1531 556 1547 563T1581 571Q1600 571 1618 564T1650 545T1673 521T1682 497Q1682 493 1678 485Q1639 378 1576 286T1433 125T1256 18T1055 -21Q1032 -21 1009 -11T960 16T906 50T845 85T775 111T694
122Q677 122 656 119T613 109T574 96T546 81Q507 54 468 27T390 -28Q376 -37 363 -37Q349 -37 336 -29T313 -9T297 19T291 51Q291 65 295 76T313 99Q350 129 386 159T459 221Q478 234 494 246T530 275T575 319T637 386T722 485T839 626T995 818T1199 1070Q1179
1068 1160 1066T1121 1064Q1074 1064 1023 1075T919 1100T814 1125T714 1137Q682 1137 650 1121T587 1086T529 1051T482 1035Q464 1035 453 1046T442 1077Q442 1088 447 1103T464 1132Q493 1166 532 1197T614 1251T705 1289T797 1303Q816 1303 834 1300Q927 1287
991 1272T1102 1245T1186 1224T1259 1216Q1304 1216 1338 1218T1401 1226T1451 1242T1496 1270Z" />
<glyph unicode="[" glyph-name="bracketleft" horiz-adv-x="966" d="M1448 1573Q1472 1573 1484 1560T1496 1526Q1496 1511 1489 1495T1467 1465T1430 1443T1378 1434H1182Q990 1056 802 682T421 -70H618Q639 -70 649 -81T659 -110Q659 -125 652 -141T630 -172T595
-196T548 -205H180Q405 240 629 684T1080 1573H1448Z" />
<glyph unicode="\" glyph-name="backslash" horiz-adv-x="892" d="M1244 1476Q1007 1072 771 668T297 -140Q283 -165 263 -175T221 -185Q192 -185 168 -170T144 -131Q144 -126 145 -120T149 -109Q384 298 616 700T1083 1510Q1097 1533 1118 1543T1164 1554Q1202
1554 1223 1536T1245 1491Q1245 1481 1244 1476Z" />
<glyph unicode="]" glyph-name="bracketright" horiz-adv-x="784" d="M1232 1573Q1008 1128 783 684T334 -205H-38Q-64 -205 -76 -194T-88 -166Q-88 -151 -79 -134T-54 -103T-15 -79T36 -70H232Q611 684 990 1434H793Q762 1434 748 1447T733 1480Q733 1495 741
1511T766 1541T807 1564T863 1573H1232Z" />
<glyph unicode="^" glyph-name="asciicircum" horiz-adv-x="1070" d="M1124 815Q1125 812 1125 809T1125 802Q1125 783 1115 767T1090 738T1055 719T1018 712Q996 712 979 724T958 762Q929 883 901 1003T844 1245Q787 1185 737 1131T637 1025T536 918T428 804Q387
757 348 737T279 717Q259 717 246 726T233 751Q233 761 239 774T260 804Q331 880 396 950T525 1088T655 1226T791 1372H996Q1012 1296 1028 1228T1060 1094T1092 959T1124 815Z" />
<glyph unicode="_" glyph-name="underscore" horiz-adv-x="1024" d="M34 -143Q11 -143 1 -135T-9 -113Q-9 -100 -1 -86T23 -58T57 -37T98 -28H998Q1015 -28 1022 -36T1030 -58T1023 -86T1003 -113T973 -134T934 -143H34Z" />
<glyph unicode="`" glyph-name="grave" horiz-adv-x="1044" d="M631 942Q633 929 634 918T635 897Q635 860 620 843T585 826T544 843T508 894Q479 957 449 1019T390 1144Q378 1171 378 1196Q378 1220 387 1240T410 1275T443 1298T481 1307Q513 1307 542 1281T586
1192Q597 1129 608 1067T631 942Z" />
<glyph unicode="a" glyph-name="a" horiz-adv-x="984" d="M500 546Q453 546 409 522T331 459T277 372T257 274Q257 254 259 233T271 193T296 163T341 151Q363 151 392 170T453 220T515 287T569 359T608 422T623 463Q623 482 610 497T578 524T538 540T500 546ZM1193
288Q1175 271 1145 241T1077 176T995 106T906 41T816 -6T733 -25Q698 -25 673 -10T632 29T607 83T599 146Q599 167 602 187T612 226Q581 184 542 140T457 59T362 -1T261 -25Q235 -25 201 -15T135 20T83 82T62 175Q62 216 74 273T112 391T177 513T271 620T394 697T548
727Q592 727 625 716T681 692Q707 676 727 657Q744 666 762 674Q777 681 793 686T822 692Q860 692 884 671T908 625Q908 618 907 614Q902 595 892 566T868 502T842 428T817 352T799 283T792 227Q792 197 802 178T836 158Q851 158 871 167T916 193T965 229T1015
271Q1071 321 1134 385Q1150 398 1165 398Q1185 398 1198 379T1212 335Q1212 307 1193 288Z" />
<glyph unicode="b" glyph-name="b" horiz-adv-x="906" d="M607 561Q550 561 493 534T391 461T316 360T287 245Q287 229 290 213T302 182T330 159T378 150Q436 150 490 177T588 250T657 351T683 465Q683 480 681 497T670 528T647 551T607 561ZM691 158Q606 56 511
9T304 -39Q243 -39 201 -22T133 26T96 96T84 181Q84 232 97 286T131 392Q145 425 154 447T169 484T179 511T189 535T201 564T220 607L512 1256Q518 1269 529 1281T556 1302T588 1317T624 1323Q670 1323 688 1305T707 1261Q707 1241 697 1218T675 1174Q601 1032
535 886T395 596Q427 621 463 644T538 686T619 716T705 728Q736 728 768 716T826 681T869 625T886 547Q886 537 880 507T863 440T835 363T798 293Q805 282 816 280T841 277Q887 277 932 289T1018 318T1093 355T1150 388Q1162 401 1176 401Q1193 401 1205 386T1218
347Q1218 324 1209 302T1174 252Q1129 225 1084 201T991 160T896 132T797 121Q765 121 738 130T691 158Z" />
<glyph unicode="c" glyph-name="c" horiz-adv-x="645" d="M669 635Q669 604 662 567T639 496T598 441T536 419Q516 419 511 425T505 446Q505 455 505 472T506 506Q506 524 501 536T476 549Q453 549 425 532T368 486T312 423T264 351T230 280T217 222Q217 187 241
167T308 147Q353 147 404 162T505 200T603 250T688 301T753 343T787 365Q803 373 817 373Q829 373 837 368T851 355T858 339T860 324Q860 315 858 303T843 274Q838 268 811 244T740 186T640 116T519 47T385 -4T249 -25Q198 -25 159 -9T92 34T51 99T37 177Q37 222
58 280T116 400T203 520T311 625T433 699T562 727Q584 727 603 722T637 707T660 678T669 635Z" />
<glyph unicode="d" glyph-name="d" horiz-adv-x="967" d="M714 203Q713 201 713 198T712 193Q712 175 721 156T750 136Q758 136 762 138Q819 155 877 192T990 273T1089 363T1165 445Q1179 462 1196 462Q1211 462 1222 448T1234 410Q1234 391 1224 365T1189 309Q1130
244 1068 184T943 78T818 3T695 -25Q622 -25 580 16T538 141Q538 146 538 151T539 162Q516 120 480 86T401 27T312 -11T223 -25Q186 -25 155 -15T102 17T67 73T54 155Q54 239 80 314T149 453T247 567T362 653T481 708T589 727Q646 727 687 708Q707 698 724 681Q728
690 732 698Q742 722 750 739T761 765Q764 774 778 807T810 884T850 980T890 1076T921 1153T937 1195Q944 1220 956 1243T984 1284T1023 1312T1073 1323Q1111 1323 1136 1307T1161 1243Q1161 1224 1156 1204T1145 1165T1131 1128T1117 1093Q1067 993 1012 876T903
639T800 407T714 203ZM684 594Q624 592 558 568Q482 542 419 491T313 364T263 192Q263 152 297 152Q339 152 377 169T449 216T514 284T569 363T615 444T651 520Q656 531 665 551Q673 570 684 594Z" />
<glyph unicode="e" glyph-name="e" horiz-adv-x="704" d="M518 590Q513 591 509 591T500 591Q462 591 429 576T369 537T320 481T281 420T253 361T235 314Q270 332 307 355T378 399T435 437T470 460Q515 488 532 512T549 555Q549 570 540 579T518 590ZM554 728Q637
728 678 688T719 577Q719 535 697 489T621 396T477 299T250 199Q255 170 281 154T350 137Q396 137 448 150T552 185T653 230T741 277T807 315T843 335Q852 341 859 342T873 343Q885 343 893 338T906 325T914 309T916 294Q916 285 914 273T899 244Q894 239 866 217T792
165T688 102T562 40T423 -6T281 -25Q221 -25 175 -2T96 60T46 150T29 257Q29 300 46 351T95 455T173 556T278 644T405 705T554 728Z" />
<glyph unicode="f" glyph-name="f" horiz-adv-x="506" d="M795 568Q743 566 697 565T606 564T519 563T432 563Q406 512 374 445T306 303T235 154T167 11T109 -111T67 -198Q56 -221 40 -240T5 -274T-34 -295T-71 -303Q-95 -303 -114 -291T-133 -253Q-133 -240 -127
-223T-110 -182L243 566H190Q135 566 115 583T95 623Q95 647 120 669T193 692H311Q382 835 453 928T594 1075T728 1150T854 1171Q882 1171 907 1160T952 1127T984 1072T996 993Q996 950 984 898Q981 884 972 875T952 859T930 851T911 848Q891 848 874 857T857 887Q857
900 858 911T860 933Q860 975 845 993T803 1011Q772 1011 731 984T647 912T565 810T501 692H734Q765 692 792 691T839 685T871 669T883 635Q883 624 879 613T866 593T839 577T795 568Z" />
<glyph unicode="g" glyph-name="g" horiz-adv-x="944" d="M569 727Q613 727 646 716T702 692Q728 676 748 657Q762 666 778 674Q792 681 809 686T843 692Q887 692 911 674T935 631Q935 618 928 605L694 162L713 179Q831 248 907 287T1028 346T1092 369T1117 374Q1140
374 1152 357T1165 313Q1165 284 1149 254T1098 211Q1053 188 993 162T868 103T738 32T615 -56L421 -407Q397 -464 378 -500T339 -557T300 -586T254 -594Q215 -594 193 -567T170 -502Q170 -462 189 -409T242 -295T326 -166T435 -28L559 130Q521 95 484 70T413 30T350
7T298 0Q258 0 224 18T166 70T127 148T113 246Q113 356 155 445T264 596T411 693T569 727ZM531 551Q484 551 440 528T362 466T308 377T288 274Q288 258 290 240T301 205T326 179T372 168Q393 168 421 186T480 233T540 296T592 364T630 423T644 463Q644 485 632
501T603 529T566 545T531 551Z" />
<glyph unicode="h" glyph-name="h" horiz-adv-x="898" d="M9 158Q33 209 64 271T126 395T186 512T233 607L563 1256Q569 1269 581 1281T610 1302T644 1317T680 1323Q724 1323 741 1307T758 1266Q758 1244 747 1220T722 1174Q678 1099 638 1023T557 869T475 715T389
563Q417 590 448 619T517 672T598 711T696 727Q728 727 757 721T808 702T843 665T856 607Q856 562 843 525T808 454T762 390T715 328T676 262T655 188Q655 186 655 184T654 180Q654 160 667 155T702 150Q729 150 760 160T822 188T885 228T945 273T998 317T1039
355Q1048 363 1058 367T1077 371Q1095 371 1107 358T1120 321Q1120 300 1106 273T1056 219Q1001 171 944 127T829 49T714 -5T601 -25Q530 -25 487 7T444 110Q444 161 461 206T504 294T559 376T610 454Q622 471 628 485T635 517Q635 532 627 541T602 551Q543 551
493 522T401 448T323 350T256 247Q242 225 228 197T198 138T165 79T130 26T91 -11T48 -25Q13 -25 -6 -5T-25 47Q-25 70 -17 95T9 158Z" />
<glyph unicode="i" glyph-name="i" horiz-adv-x="480" d="M346 865Q346 888 354 912T380 957T422 990T483 1003Q541 1003 564 981T587 924Q587 905 580 882T557 840T518 807T461 794Q399 794 374 813T346 865ZM236 640Q253 668 275 680T320 692Q358 692 385 668T413
605Q412 596 411 587T404 569Q390 543 381 525T365 492T350 461T333 425Q321 400 306 371T278 310T255 249T245 194Q245 167 258 159T297 150Q325 150 355 162T417 193T478 236T534 286T583 334T621 375Q641 394 661 394Q679 394 690 378T702 337Q702 314 691 288T653
239Q602 187 549 140T441 56T329 -3T216 -25Q135 -25 89 16T42 146Q42 192 55 236T86 321T124 401T158 475Q163 488 175 515T202 570Q218 603 236 640Z" />
<glyph unicode="j" glyph-name="j" horiz-adv-x="486" d="M401 865Q402 888 411 912T439 957T483 990T544 1003Q599 1003 621 983T644 931Q644 911 637 888T614 843T573 808T513 794Q451 794 427 813T401 865ZM225 127Q285 178 378 242T606 388Q621 397 635 397Q657
397 671 379T686 335T666 279T599 224L261 -8Q239 -28 222 -42T187 -70T151 -97T109 -127Q60 -211 21 -269T-56 -364T-134 -418T-225 -435Q-272 -435 -290 -417T-309 -365Q-309 -334 -280 -303T-212 -238T-134 -167T-73 -85Q-46 -29 -16 35T46 165T108 296T168
421T222 532T267 619Q287 657 318 674T380 692Q412 692 435 674T458 623Q458 601 455 583T441 543T415 489T372 409T310 293T225 127Z" />
<glyph unicode="k" glyph-name="k" horiz-adv-x="960" d="M375 512Q413 551 455 589T544 658T642 708T749 727Q782 727 817 720T880 695T927 651T945 585Q945 521 916 469T839 376T735 304T622 250Q608 244 596 235T576 215T562 194T557 176Q557 164 564 156T591
147Q628 147 675 162T784 207T927 285T1113 396Q1130 406 1145 406Q1164 406 1175 392T1186 355Q1186 327 1166 292T1097 224Q1030 183 960 139T816 59T664 -1T504 -25Q362 -25 362 98Q362 163 389 212T456 299T539 362T613 410Q637 424 658 440T695 473T721 507T731
543Q731 572 704 572Q604 572 424 379Q383 335 349 294T286 212T229 135T176 63Q98 -25 37 -25Q8 -25 -5 -15T-18 25Q-18 29 -18 33T-17 42Q-15 62 0 103T37 196T87 307T142 422T193 528T233 611L549 1256Q555 1269 567 1281T595 1302T628 1317T664 1323Q709 1323
726 1306T744 1265Q744 1243 734 1219T709 1174Q667 1099 626 1015T543 843T460 672T375 512Z" />
<glyph unicode="l" glyph-name="l" horiz-adv-x="528" d="M273 289Q262 266 252 236T241 181Q241 166 247 157T270 148Q291 148 322 160T390 193T466 240T545 295T619 352T683 405Q691 412 702 415T721 418Q741 418 754 404T767 367Q767 346 753 320T704 269Q640
210 575 157T446 64T318 -1T194 -25Q153 -25 126 -14T82 16T58 61T51 116Q51 165 65 216T100 311Q135 389 171 466T237 607L540 1252Q558 1291 588 1307T650 1323T706 1306T732 1251Q732 1233 724 1213T702 1170Q677 1123 643 1055T569 907T488 741T407 572T333
417T273 289Z" />
<glyph unicode="m" glyph-name="m" horiz-adv-x="1312" d="M422 34Q422 82 443 132T498 235T570 342T644 454Q654 470 660 484T666 514Q666 530 657 540T631 551Q590 551 552 534T479 488T413 422T354 346T302 267T258 196Q240 163 225 124T193 52T153 -3T98 -26Q62
-26 41 -3T20 52Q20 70 33 108T66 196T113 304T164 417T212 522T250 607Q268 650 297 671T356 692Q381 692 400 674T420 620Q420 594 408 563Q435 588 466 617T533 670T615 711T716 727Q744 727 769 720T813 698T845 659T860 601Q883 624 910 646T968 687T1037
716T1119 727Q1152 727 1182 720T1235 697T1272 654T1286 590Q1286 530 1259 476T1194 377Q1182 362 1162 339T1123 290T1090 237T1076 185Q1076 163 1089 157T1125 151Q1167 151 1216 176T1311 236T1398 310T1463 375Q1469 382 1477 385T1493 388Q1511 388 1525
372T1540 330Q1540 310 1528 286T1487 239Q1433 187 1377 140T1263 56T1148 -3T1033 -25Q959 -25 914 10T868 121Q868 171 887 215T934 299T993 378T1047 454Q1057 470 1063 484T1069 514Q1069 530 1060 540T1034 551Q993 551 955 534T882 488T816 422T757 346T705
267T661 196Q643 163 628 124T596 52T556 -3T501 -26Q489 -26 475 -22T450 -9T431 10T422 34Z" />
<glyph unicode="n" glyph-name="n" horiz-adv-x="951" d="M265 607Q285 650 315 671T374 692Q398 692 417 675T436 623Q436 610 433 595T422 563Q444 591 485 620T575 673T677 712T777 727Q830 727 865 702T901 615Q901 579 890 540T862 462T823 386T780 315T742
255T714 209Q701 193 701 172Q701 164 706 158T722 152Q729 152 738 153T760 164Q814 184 870 214T979 277T1074 344T1147 405Q1155 412 1163 415T1178 418Q1195 418 1204 405T1214 372Q1214 341 1195 303T1133 232Q1076 191 1029 157T932 94T826 39T693 -9Q667
-17 646 -21T606 -25Q553 -25 529 4T504 87Q504 94 504 100T506 115Q508 146 522 183T557 259T601 336T643 409T676 471T689 515Q689 530 681 540T655 551Q591 551 534 513T426 420T334 302T260 191Q240 158 224 121T189 51T149 -3T92 -25Q57 -25 37 -3T17 51Q17
68 31 106T67 194T116 301T171 415T224 522T265 607Z" />
<glyph unicode="o" glyph-name="o" horiz-adv-x="848" d="M488 551Q441 551 398 528T321 466T267 379T247 279Q247 260 250 238T262 196T290 163T338 150Q384 150 427 174T505 238T559 328T579 429Q579 449 577 470T565 510T537 539T488 551ZM540 727Q578 727
621 717T702 683T763 620T788 522Q788 492 780 454T756 373Q766 361 779 356T807 351Q828 351 853 363T906 394T960 437T1011 485T1054 530T1087 567Q1094 574 1104 574Q1118 574 1129 560T1140 519T1125 459T1067 388Q1043 362 1012 328T946 264T873 213T797 192Q771
192 747 200T697 226Q661 170 615 124T513 45T391 -6T251 -25Q223 -25 186 -14T116 22T59 89T36 189Q36 229 49 285T88 400T155 518T252 623T380 698T540 727Z" />
<glyph unicode="p" glyph-name="p" horiz-adv-x="979" d="M1162 470Q1176 478 1188 483T1211 488Q1233 488 1244 472T1255 431Q1255 405 1242 378T1201 333Q1094 253 1010 187T852 74T706 0T554 -26Q478 -26 437 2T395 79Q395 83 395 86T396 95Q400 125 427 164T492
245T573 330T652 411T713 482T737 534Q737 546 727 553T694 560Q654 560 612 543T528 496T447 428T373 349T310 267T261 190Q255 179 244 159T220 114T193 63T166 13T145 -29T131 -55Q126 -64 115 -89T88 -147T57 -218T26 -288T0 -346T-14 -380Q-24 -406 -37 -429T-68
-469T-108 -497T-159 -508Q-195 -508 -218 -494T-242 -438Q-242 -418 -236 -397T-221 -356T-203 -316T-185 -278Q-131 -178 -75 -78T32 121T128 315T201 497Q209 515 223 548T255 613T295 668T344 692Q384 692 402 677T420 631Q420 625 418 612T413 585T407 557T400
538Q437 572 480 605T569 666T663 710T759 727Q792 727 824 719T882 696T924 657T940 602Q940 561 916 515T854 421T774 330T694 249T631 187T604 152Q604 140 613 133T643 125Q660 125 693 141T785 196T936 302T1162 470Z" />
<glyph unicode="q" glyph-name="q" horiz-adv-x="852" d="M645 502Q637 521 622 537Q609 551 588 562T535 573Q477 573 427 541T340 460T282 350T261 234Q261 190 275 171T315 152Q349 152 385 173T462 237T548 346T645 502ZM427 -264Q418 -286 405 -312T392 -360Q392
-383 414 -383Q430 -383 450 -361T494 -302T543 -217T594 -117T644 -12T690 87T727 170T755 226Q777 254 809 278T878 326T958 374T1043 428Q1056 434 1067 434Q1087 434 1097 415T1108 366Q1108 347 1104 327T1090 287T1066 251T1032 224L891 138Q869 122 848
82T803 -12T754 -131T697 -260T628 -385T546 -491T445 -566T323 -594Q293 -594 268 -585T223 -560T193 -520T182 -468Q182 -449 183 -436T189 -407T206 -366T239 -299L409 37Q377 8 343 -8T270 -25Q222 -25 187 -5T129 48T95 124T84 215Q84 301 110 373T177 501T271
600T376 671T474 713T552 727Q594 727 624 713T675 682Q699 662 714 637Q730 652 745 664Q758 675 771 683T795 692Q828 692 846 673T865 624Q865 601 852 575L427 -264Z" />
<glyph unicode="r" glyph-name="r" horiz-adv-x="843" d="M454 583Q493 607 534 627T615 661T689 684T753 693Q798 693 822 672T847 599Q847 588 846 576T842 549Q837 523 812 488T754 415T682 339T611 268T557 211T535 178Q535 170 536 167T545 164Q599 187 665
219T798 286T923 352T1023 409Q1032 414 1041 417T1059 421Q1077 421 1089 409T1101 377Q1101 354 1082 325T1016 263Q981 241 938 214T847 157T751 99T657 49T573 14T504 0Q435 0 401 33T366 118Q366 126 367 130Q374 174 393 215T436 293T486 363T533 426T569
481T583 527Q583 532 581 537T572 542Q560 542 533 533T474 509T415 475T375 433Q359 405 338 362T295 272T251 179T215 100Q203 71 184 48T141 9T94 -16T50 -25Q27 -25 14 -13T0 26Q0 37 3 53T18 90Q36 124 54 164T97 255T152 373T227 527Q213 539 204 556T194
600Q194 624 204 641T231 670T270 686T318 692Q344 692 370 688T416 674T450 652T463 622Q463 619 461 614T457 603T452 592T450 584Q450 582 451 582H452L454 583Z" />
<glyph unicode="s" glyph-name="s" horiz-adv-x="611" d="M392 563Q453 531 501 490T582 404T633 311T651 219Q651 162 619 117T534 40T414 -8T277 -25Q225 -25 176 -14T87 22T17 83T-24 173Q-26 181 -26 186Q-26 213 -7 232T35 252Q46 252 59 248T80 230Q93 206
116 187T169 155T230 134T294 126Q326 126 355 132T407 151T443 184T456 233Q456 284 433 327T374 406T291 474T198 535Q193 538 183 552T173 582Q173 594 179 601Q195 622 216 644T261 684T313 714T371 726Q393 726 412 720T444 705T464 684T472 662Q472 648 465
635T447 610T421 586T392 563Z" />
<glyph unicode="t" glyph-name="t" horiz-adv-x="528" d="M403 556Q366 484 333 416T271 289Q259 265 248 234T236 178Q236 164 242 156T264 148Q285 148 317 160T386 193T464 240T544 295T620 352T684 405Q700 416 714 416Q731 416 742 401T753 363T742 316T702
269Q637 210 571 157T439 64T309 -1T185 -25Q145 -25 118 -15T75 14T51 57T44 110Q44 160 61 214T99 311Q129 373 158 434T216 551H173Q117 551 96 569T75 610Q75 620 81 634T100 661T131 683T172 692H280L491 1111Q511 1149 540 1165T602 1182Q632 1182 657 1166T682
1113Q682 1094 674 1075T651 1029Q642 1012 629 989T602 939T572 883T541 827Q507 763 469 692H795Q819 692 839 690T873 680T896 659T904 624Q904 613 901 602T888 582T862 567T819 559L403 556Z" />
<glyph unicode="u" glyph-name="u" horiz-adv-x="928" d="M1170 239Q1126 189 1068 142T947 57T825 -2T717 -25T639 2T609 94Q609 140 625 201Q599 162 560 122T471 49T359 -4T224 -25Q191 -25 161 -18T107 6T70 51T56 123Q56 124 60 153T85 246T152 411T279 656Q300
694 327 710T387 727Q401 727 416 724T444 713T465 694T473 667Q473 657 470 648Q465 631 449 604T410 541T364 464T318 379T282 290T265 201Q265 183 275 168T308 153Q373 153 432 189T541 278T631 393T699 506Q718 540 732 579T764 651T803 706T858 728Q894 728
915 705T936 650Q936 632 923 601T889 529T844 442T800 349T766 256T752 171Q752 135 796 135Q827 135 873 153T969 203T1070 280T1160 375L1170 239Z" />
<glyph unicode="v" glyph-name="v" horiz-adv-x="800" d="M970 224Q895 167 820 135T654 102Q624 102 596 113T523 152Q457 65 391 20T252 -25Q217 -25 185 -13T129 25T91 87T76 173Q76 233 89 302T122 438T159 560T189 649Q209 691 239 709T299 728Q312 728 325
724T350 711T368 692T375 668Q375 657 371 649Q356 601 336 545T297 431T267 320T254 220Q254 213 256 202T261 180T269 162T280 154Q306 154 338 183T408 263Q441 298 470 345T526 443T577 541T625 628T672 690T719 714Q760 714 777 688T794 624Q794 582 781 547T744
475T690 392T621 283Q637 262 671 262Q707 262 745 271T822 296T897 336T970 388Q985 397 998 397Q1016 397 1027 381T1039 340Q1039 313 1023 282T970 224Z" />
<glyph unicode="w" glyph-name="w" horiz-adv-x="1139" d="M152 489Q183 558 203 600T239 666T272 698T314 706Q352 706 379 682T407 619Q407 610 405 601T398 583L228 181Q224 173 223 164T221 148Q221 135 226 129T238 122Q249 122 260 127T287 144T325 178T381
233Q412 266 445 312T509 410T568 514T615 612Q630 642 642 660T665 689T689 702T717 706Q778 706 778 653Q776 645 776 635T770 612L614 151Q614 126 639 126Q657 128 686 144T746 186T802 245T840 315Q862 381 884 448T932 569T987 659T1053 698Q1085 698 1105
678T1126 624Q1126 585 1116 540T1088 450T1048 363T999 287Q1006 266 1028 266Q1067 266 1101 272T1168 289T1233 317T1301 354Q1317 365 1333 365Q1353 365 1369 350T1385 311Q1385 289 1366 266T1314 221T1242 180T1160 147T1080 124T1012 115Q956 115 897 147Q827
63 752 19T598 -25Q526 -25 495 12T463 122Q388 46 323 11T188 -25Q144 -25 115 -15T67 15T42 59T34 115Q34 164 48 218T81 324T120 418T152 489Z" />
<glyph unicode="x" glyph-name="x" horiz-adv-x="723" d="M325 716Q350 716 368 712T398 695T416 659T422 600V485L644 671Q695 713 746 713Q776 713 796 699T816 662Q816 648 807 632T778 600L446 320L458 184Q458 135 493 135Q531 135 588 163T720 246L835 330Q853
341 872 341Q893 341 906 327T920 289Q920 264 902 231T835 165Q760 112 704 76T601 18T515 -15T435 -25Q345 -25 301 26T256 191L38 3Q19 -12 0 -18T-37 -25Q-69 -25 -91 -8T-113 34Q-113 62 -77 89L231 357V600Q231 645 245 669T276 703T308 715T325 716Z" />
<glyph unicode="y" glyph-name="y" horiz-adv-x="896" d="M709 634Q737 656 756 667T790 684T815 691T839 692Q860 692 869 677T878 644Q878 630 873 618L649 151Q697 187 759 221T879 283T978 328T1026 345Q1051 345 1070 326T1089 278Q1089 252 1070 223T1001
167Q931 128 879 101T787 51T716 11T658 -26T604 -66T546 -117Q523 -177 501 -232T460 -329T429 -397T416 -425Q335 -593 238 -593Q198 -593 173 -567T148 -495Q148 -453 158 -412T195 -320T265 -209T375 -64L575 341Q425 163 303 69T75 -25Q41 -25 17 -10T-7 42Q-7
92 17 155Q31 189 45 217T74 274T105 336T141 410T184 506T237 634Q257 673 289 690T351 708Q382 708 403 694T425 655Q425 643 421 634L238 253Q224 224 224 207Q224 192 236 192Q247 192 264 203T296 228L709 634Z" />
<glyph unicode="z" glyph-name="z" horiz-adv-x="847" d="M432 -84Q432 -76 432 -69T431 -53Q361 -89 307 -121T215 -180T158 -228T138 -263Q138 -289 157 -306T212 -324Q239 -324 276 -302T347 -244T405 -167T432 -84ZM1038 476Q1046 483 1054 484T1071 487Q1094
487 1112 469T1130 430Q1130 421 1127 414T1116 399Q1084 363 1040 326T935 247T795 156T614 47Q614 41 614 35T615 21Q615 -30 596 -84T543 -190T465 -288T371 -370T269 -425T169 -446T82 -435T14 -402T-29 -351T-44 -285Q-44 -252 -20 -214T56 -133T190 -39T387
71Q370 78 352 79T316 80Q293 80 263 79T202 78Q178 78 156 79T117 83T89 92T79 110Q79 131 90 153T130 207T210 283T340 392L553 549Q546 549 444 546T159 543Q133 543 121 557T109 584Q110 599 115 617T131 650T155 677T189 688Q209 688 254 688T356 689T475
690T591 691T684 691T735 692Q753 692 764 686T781 671T789 652T791 632Q791 614 784 596T760 558T716 516T651 465Q644 460 627 447T585 417T533 378T476 336Q409 287 329 228H350Q414 228 470 210T564 161Q649 208 719 250T847 330T952 405T1038 476Z" />
<glyph unicode="{" glyph-name="braceleft" horiz-adv-x="810" d="M1405 1509Q1419 1509 1426 1498T1434 1470Q1434 1454 1427 1435T1407 1400T1372 1372T1323 1361Q1254 1361 1211 1355T1139 1330T1087 1278T1037 1193L890 916Q851 845 823 803T769 736T712 701T638
684Q662 661 671 636T681 583Q681 548 668 512T634 438L418 29Q407 6 408 -3Q408 -32 448 -44T566 -57Q587 -57 597 -69T607 -98T599 -133T575 -168T536 -194T485 -205Q361 -205 298 -169T235 -59Q235 -48 236 -38T240 -16Q243 -2 246 10T257 40T277 86T314 159T371
270T456 430Q474 465 488 502T502 567Q502 590 489 604T444 618Q422 618 412 630T401 661Q401 676 408 693T430 725T467 748T519 758Q552 758 579 767T631 797T679 848T727 924L884 1226Q931 1314 971 1370T1060 1458T1171 1501T1328 1513L1405 1509Z" />
<glyph unicode="|" glyph-name="bar" horiz-adv-x="918" d="M992 1573L451 -205H295L828 1573H992Z" />
<glyph unicode="}" glyph-name="braceright" horiz-adv-x="1018" d="M37 -201Q22 -201 15 -190T7 -162Q7 -146 14 -127T34 -91T68 -64T117 -53Q185 -53 227 -47T299 -22T351 30T400 115L544 392Q583 462 610 505T663 572T719 607T793 624Q769 647 759 671T748
723Q748 755 761 793T794 870L1006 1279Q1015 1297 1015 1309Q1015 1339 975 1352T856 1365Q835 1365 825 1377T815 1406T823 1442T847 1476T885 1502T936 1513Q1060 1513 1123 1476T1187 1365Q1187 1343 1183 1324Q1180 1310 1177 1298T1167 1268T1148 1222T1113
1149T1056 1038T973 878Q955 843 941 807T927 743Q927 719 940 705T987 690Q1009 690 1019 677T1030 645Q1030 630 1023 613T1001 582T964 559T913 550Q848 550 802 511T707 384L553 82Q508 -7 468 -63T380 -150T269 -193T114 -205L37 -201Z" />
<glyph unicode="~" glyph-name="asciitilde" horiz-adv-x="1393" d="M1240 1391Q1168 1285 1091 1237T925 1188Q843 1188 717 1245Q589 1314 524 1321Q496 1321 472 1316T423 1299T375 1268T326 1220L243 1297Q315 1403 389 1449T553 1495Q629 1495 762 1431Q826
1394 878 1376T970 1358Q1016 1358 1057 1382T1153 1469L1240 1391Z" />
<glyph unicode="&#xa0;" glyph-name="space" horiz-adv-x="480" />
<glyph unicode="&#xa1;" glyph-name="exclamdown" horiz-adv-x="545" d="M476 1119Q483 1150 500 1178T542 1227T595 1261T654 1274Q696 1274 720 1248T745 1183Q745 1148 729 1116T686 1059T627 1019T561 1004Q519 1004 496 1028T472 1090Q472 1097 473 1104T476
1119ZM-96 58Q-32 163 21 246T124 409T228 571T347 760Q364 789 392 803T447 818Q465 818 476 810T488 786Q488 781 487 774T482 760Q426 655 382 572T297 409T212 247T112 58Q103 40 87 26T52 3T11 -11T-31 -16Q-62 -16 -83 -5T-104 29Q-104 37 -102 43T-96 58Z"
/>
<glyph unicode="&#xa2;" glyph-name="cent" horiz-adv-x="645" d="M213 153Q268 242 323 330T434 509Q389 479 344 436T261 349T201 264T177 200Q177 166 213 153ZM745 635Q736 604 719 567T677 496T621 441T553 419Q538 419 533 422T527 433Q527 435 530 446T538
471T547 502T551 529Q551 541 543 545L302 152Q343 160 389 178T482 218T571 265T649 311T708 346T739 365Q749 370 757 371T771 373Q790 373 796 362T803 338Q803 330 799 313T770 274Q763 268 735 246T663 194T563 130T445 64T319 10T194 -21L102 -173Q89 -193
70 -202T35 -212Q22 -212 13 -207T4 -190Q4 -186 5 -182T10 -173Q33 -135 56 -98T104 -22Q41 -12 11 26T-20 118Q-20 141 -15 165T0 213Q15 254 47 301T122 398T218 495T328 585T443 659T558 709L668 884Q681 904 700 914T734 925Q745 925 752 921T759 905Q759
895 752 884L655 727H663Q699 727 724 713T749 665Q749 650 745 635Z" />
<glyph unicode="&#xa3;" glyph-name="sterling" horiz-adv-x="912" d="M1109 727Q1081 674 1046 651T976 627Q952 627 932 638T912 669Q912 679 918 690Q949 749 963 793T978 868Q978 899 966 915T930 931Q920 931 903 926Q890 922 871 903T830 854T784 788T738
715Q684 628 626 520H777Q799 520 811 504T824 465Q824 450 818 435T797 408T760 389T708 381H560L433 147L534 135Q546 133 557 133T580 133Q642 133 699 144T814 167Q817 167 820 167T825 168Q851 168 865 153T879 115Q879 99 873 82T850 50T809 22T746 3Q686
-8 629 -14T515 -21Q443 -21 378 -11T253 25Q161 -20 64 -20Q-3 -20 -41 4T-79 74Q-79 101 -66 121T-30 154T20 173T76 180Q99 180 129 178T188 174Q221 171 255 168L377 381H262Q236 381 224 394T211 428Q211 443 218 459T239 489T275 511T327 520H446Q485 599
522 668Q538 697 554 727T587 784T617 833T642 870Q716 977 800 1025T976 1074Q1022 1074 1055 1059T1109 1017T1141 955T1151 882Q1151 843 1140 803T1109 727Z" />
<glyph unicode="&#xa4;" glyph-name="currency" horiz-adv-x="1323" d="M807 699Q864 699 916 723T1008 787T1073 879T1097 989T1075 1096T1016 1184T928 1244T820 1266T711 1242T619 1178T555 1085T531 975T553 868T613 780T701 721T807 699ZM456 742Q388 846
388 970Q388 1097 463 1208L269 1402L393 1526L587 1333Q699 1409 826 1409Q951 1409 1055 1341L1241 1526L1365 1402L1178 1215Q1239 1118 1239 993Q1239 869 1163 757L1365 555L1241 430L1038 633Q928 558 804 558Q679 558 582 619L393 430L269 555L456 742Z"
/>
<glyph unicode="&#xa5;" glyph-name="yen" horiz-adv-x="893" d="M1241 586H722L534 231Q505 175 493 146T478 105Q478 52 463 14T424 -49T372 -87T319 -99Q282 -99 256 -77T229 -12Q229 4 230 14T237 40T256 83T295 164L518 586H121L164 728H510Q488 757 469
788T434 854H197L239 996L383 997Q366 1045 360 1086T354 1163Q354 1219 368 1264T408 1340T465 1387T532 1404Q605 1404 605 1327Q605 1313 600 1292T588 1246T577 1192T571 1134Q571 1080 584 1027T621 925T674 834T737 760L811 808Q870 846 929 887T1034 974Q1071
1011 1100 1047T1149 1116T1182 1173T1199 1216L1206 1243Q1215 1277 1224 1302T1250 1343T1295 1366T1373 1374Q1421 1374 1421 1306Q1421 1301 1418 1277T1400 1213T1354 1118T1265 996H1359L1317 854H1113Q1068 820 1023 789T929 728H1284L1241 586Z" />
<glyph unicode="&#xa6;" glyph-name="brokenbar" horiz-adv-x="867" d="M991 1573L776 880H620L827 1573H991ZM661 488L450 -205H294L500 488H661Z" />
<glyph unicode="&#xa7;" glyph-name="section" horiz-adv-x="1100" d="M998 692Q1001 708 1001 722T997 749T981 777T952 808T907 844Q843 844 791 833T702 801T645 748T625 676Q625 637 650 604T729 541Q782 541 828 551T909 581T967 629T998 692ZM1491 1339Q1505
1336 1511 1325T1518 1300Q1518 1283 1511 1265T1489 1230T1456 1204T1413 1193Q1401 1193 1392 1196Q1289 1221 1172 1221Q1062 1221 1003 1190T943 1093Q943 1026 1061 921Q1173 821 1173 725Q1173 686 1157 641T1100 555T991 487T820 452Q852 412 870 373T888
293Q888 285 887 276T884 258Q871 194 836 145T746 61T618 10T456 -8Q374 -8 289 0T115 25Q92 30 83 41T74 67T83 99T107 129T142 152T187 161Q191 161 195 161T204 160Q269 150 336 145T482 139Q581 139 630 169T692 262Q693 265 693 272Q693 332 567 451Q451
561 451 663Q451 684 455 700Q479 816 570 876T804 947Q775 994 763 1025T751 1085Q751 1105 755 1122Q807 1372 1224 1372Q1290 1372 1356 1363T1491 1339Z" />
<glyph unicode="&#xa8;" glyph-name="dieresis" horiz-adv-x="1004" d="M921 1014Q916 989 902 966T869 926T825 898T775 887Q738 887 717 907T695 962Q695 993 708 1020T742 1068T790 1100T847 1112Q884 1112 903 1092T923 1037Q923 1032 923 1026T921 1014ZM1224
1014Q1219 989 1205 966T1172 926T1128 898T1078 887Q1041 887 1020 907T998 962Q998 993 1011 1020T1045 1068T1093 1100T1150 1112Q1187 1112 1206 1092T1226 1037Q1226 1032 1226 1026T1224 1014Z" />
<glyph unicode="&#xa9;" glyph-name="copyright" horiz-adv-x="1685" d="M904 1131Q976 1131 1052 1112T1206 1051V925Q1132 964 1059 983T919 1003Q863 1003 815 987T732 939T676 858T655 744T675 631T731 550T815 501T919 485Q986 485 1059 504T1206 563V437Q1128
395 1052 376T904 357Q814 357 736 387T601 470T511 593T478 744T511 894T601 1017T736 1100T904 1131ZM889 0Q794 0 702 23T527 91T374 200T253 347T173 529T144 743T174 956T257 1139T381 1287T535 1398T708 1466T889 1490Q980 1490 1070 1466T1244 1397T1398
1287T1521 1138T1604 956T1634 743Q1634 632 1606 534T1528 353T1408 205T1256 94T1080 24T889 0ZM1486 742Q1486 839 1462 922T1394 1075T1293 1199T1169 1289T1031 1345T889 1365Q817 1365 745 1346T607 1289T483 1198T383 1075T317 922T292 742Q292 614 335
502T456 305T645 173T889 124T1133 172T1321 305T1443 501T1486 742Z" />
<glyph unicode="&#xaa;" glyph-name="ordfeminine" horiz-adv-x="870" d="M546 1172Q506 1172 469 1152T403 1098T357 1024T340 941Q340 924 342 906T351 873T373 847T411 837Q430 837 455 853T506 895T559 952T605 1013T638 1067T651 1102Q651 1118 640 1131T613
1153T579 1167T546 1172ZM976 814Q954 793 923 771T856 729T784 698T717 686Q678 686 653 710T627 793Q627 814 630 845T641 900Q615 864 582 826T510 758T429 707T343 687Q321 687 292 696T237 725T192 778T174 857Q174 892 184 940T217 1041T272 1144T351 1235T456
1301T587 1326Q624 1326 652 1317T700 1296Q723 1283 739 1266Q754 1274 769 1281Q782 1286 795 1291T820 1296Q852 1296 872 1278T893 1239Q893 1233 892 1230Q884 1206 868 1163T835 1071T801 976T774 901Q765 872 765 854Q765 822 792 822Q812 822 845 840T926
896Q933 902 940 904T952 907Q969 907 980 891T992 854Q992 830 976 814Z" />
<glyph unicode="&#xab;" glyph-name="guillemotleft" horiz-adv-x="1333" d="M656 130Q575 176 507 216T387 287Q327 322 278 352Q250 369 250 400Q250 425 268 448T324 487Q415 527 498 562Q534 578 571 593T643 623T708 651T761 672Q772 677 780 677Q796 677
805 663T814 626Q814 613 813 599T806 570T785 543T743 520Q729 513 709 505T667 488T621 470T575 452Q523 432 468 411Q468 411 468 411Q468 410 525 382Q583 355 710 287Q735 273 745 256T756 222Q756 204 748 187T728 156T700 134T672 126Q661 126 656 130ZM1116
130Q1034 176 966 216T846 287Q787 322 738 352Q710 369 710 400Q710 425 728 448T784 487Q875 527 958 562Q994 578 1031 593T1102 623T1167 651T1220 672Q1232 677 1239 677Q1256 677 1265 663T1274 626Q1274 613 1273 599T1265 570T1244 543T1203 520Q1188 513
1168 505T1126 488T1081 470T1035 452Q983 432 928 411Q928 411 928 411Q928 410 985 382Q1043 355 1169 287Q1194 273 1205 256T1216 222Q1216 204 1208 187T1187 156T1160 134T1132 126Q1121 126 1116 130Z" />
<glyph unicode="&#xac;" glyph-name="logicalnot" horiz-adv-x="1636" d="M92 1018V1169H1446V338H1270V1018H92Z" />
<glyph unicode="&#xae;" glyph-name="registered" horiz-adv-x="1695" d="M1078 353L846 697H777V375H631V1169H826Q902 1169 974 1161T1102 1129T1193 1060T1227 942Q1227 890 1216 852T1178 785T1110 738T1006 706L1208 426L1078 353ZM777 1056V805L908 804Q962
804 996 815T1049 845T1076 886T1083 931Q1083 956 1077 978T1052 1018T1002 1046T917 1056H777ZM899 0Q804 0 712 23T537 91T384 200T263 347T183 529T154 743T184 956T267 1139T391 1287T545 1398T718 1466T899 1490Q990 1490 1080 1466T1254 1397T1408 1287T1531
1138T1614 956T1644 743Q1644 632 1616 534T1538 353T1418 205T1266 94T1090 24T899 0ZM1496 742Q1496 839 1472 922T1404 1075T1303 1199T1179 1289T1041 1345T899 1365Q827 1365 755 1346T617 1289T493 1198T393 1075T327 922T302 742Q302 614 345 502T466 305T655
173T899 124T1143 172T1331 305T1453 501T1496 742Z" />
<glyph unicode="&#xb0;" glyph-name="degree" horiz-adv-x="1221" d="M887 1122Q859 1122 836 1111T795 1081T767 1041T757 999Q757 976 772 961T823 945Q851 945 875 956T916 985T943 1024T953 1066Q953 1089 938 1105T887 1122ZM1042 1031Q1029 995 1002 963T939
906T865 867T789 852Q730 852 694 887T658 976Q658 1020 682 1063T745 1139T829 1193T920 1214Q950 1214 974 1205T1016 1179T1043 1140T1053 1090Q1053 1064 1042 1031Z" />
<glyph unicode="&#xb1;" glyph-name="plusminus" horiz-adv-x="1076" d="M659 577V233H518V577H205V710H518V1054H659V710H973V577H659ZM239 -56V83H940V-56H239Z" />
<glyph unicode="&#xb2;" glyph-name="twosuperior" horiz-adv-x="896" d="M859 167Q863 168 866 168T872 169Q893 169 907 153T921 114Q921 81 898 55T838 12T759 -15T677 -24Q645 -24 614 -21T546 -6T463 26T354 82Q295 45 262 24T210 -7T185 -19T173 -21Q161
-21 149 -14T125 6T107 33T100 66Q100 80 106 94T129 119Q195 155 263 195T394 280T512 372T608 466T672 561T696 655Q696 700 674 718T616 737Q587 737 554 727T486 702T419 669T357 636T306 610T272 600Q256 600 242 607T218 625T203 651T197 680Q197 705 220
731T281 783T368 830T468 869T570 895T663 905Q712 905 755 893T831 853T881 780T900 670Q900 615 883 560T819 447T695 326T494 195Q537 176 586 163T674 150Q703 150 726 151T770 154T812 160T859 167Z" />
<glyph unicode="&#xb3;" glyph-name="threesuperior" horiz-adv-x="800" d="M552 238Q552 262 548 284T528 323T485 350T410 360Q394 360 377 358T339 355Q311 355 298 372T285 409Q285 435 310 455T384 484Q453 495 503 520T585 573T633 628T649 670Q649 699
629 717T579 736Q529 736 490 728T418 711T357 694T302 686Q273 686 251 704T229 750Q229 772 248 797Q276 818 315 837T400 870T493 894T589 903T678 893T751 858T801 796T820 700Q820 622 755 553T568 441Q619 429 652 408T704 362T731 308T739 253Q739 174 715
110T650 -6T554 -98T434 -168T301 -219T165 -254Q149 -257 137 -259T114 -261Q76 -261 58 -245T39 -207Q39 -184 59 -161T118 -126Q160 -117 208 -101T305 -60T397 -4T475 64T530 145T552 238Z" />
<glyph unicode="&#xb4;" glyph-name="acute" horiz-adv-x="1044" d="M545 942Q581 1005 617 1067T689 1192Q727 1255 767 1281T839 1307Q869 1307 888 1288T907 1238Q907 1218 898 1194T866 1144Q812 1081 758 1019T649 894Q623 860 594 843T545 826Q514 826 514
858Q514 887 545 942Z" />
<glyph unicode="&#xb5;" glyph-name="mu" horiz-adv-x="928" d="M1170 239Q1126 189 1068 142T947 57T825 -2T717 -25T639 2T609 94Q609 140 625 201Q599 162 560 122T471 49T359 -4T224 -25Q198 -25 175 -21T130 -8L-16 -371Q-22 -384 -33 -396T-60 -417T-92
-432T-128 -438Q-174 -438 -192 -420T-211 -376Q-211 -356 -201 -333T-179 -289Q-118 -172 -74 -84T1 72T55 191T96 284T131 365T168 446T215 539T279 656Q300 694 327 710T387 727Q401 727 416 724T444 713T465 694T473 667Q473 657 470 648Q465 631 449 604T410
541T364 464T318 379T282 290T265 201Q265 183 275 168T308 153Q373 153 432 189T541 278T631 393T699 506Q718 540 732 579T764 651T803 706T858 728Q894 728 915 705T936 650Q936 632 923 601T889 529T844 442T800 349T766 256T752 171Q752 135 796 135Q827 135
873 153T969 203T1070 280T1160 375L1170 239Z" />
<glyph unicode="&#xb6;" glyph-name="paragraph" horiz-adv-x="1241" d="M1612 1368L1542 1233H1415L673 -201H525L1267 1233H1063L320 -201H173L611 647Q345 647 345 837Q345 900 370 963T443 1092Q498 1167 563 1219T704 1305T864 1353T1039 1368H1612Z" />
<glyph unicode="&#xb7;" glyph-name="middot" horiz-adv-x="732" d="M580 845Q580 814 569 786T538 737T492 703T437 690Q413 690 392 699T356 725T331 762T322 808Q322 838 333 865T365 914T412 947T470 960Q519 960 549 927T580 845Z" />
<glyph unicode="&#xb8;" glyph-name="cedilla" horiz-adv-x="1135" d="M627 -225Q627 -273 608 -315T557 -390T481 -440T389 -459Q338 -459 308 -442T277 -398Q277 -391 280 -382T290 -366T305 -353T325 -348Q342 -348 361 -354T397 -361Q422 -361 443 -352T479
-326T503 -288T512 -242Q512 -213 503 -201T471 -184Q454 -184 435 -188T397 -198T362 -207T333 -212Q313 -212 313 -195Q313 -177 339 -131L412 0H526L438 -131Q457 -125 478 -118T516 -111Q567 -111 597 -141T627 -225Z" />
<glyph unicode="&#xb9;" glyph-name="onesuperior" horiz-adv-x="736" d="M258 97Q286 142 309 183T352 264T392 340T433 416L570 665Q557 660 527 648T462 623T397 597T354 581Q351 579 347 579T340 578Q324 578 312 591T299 627Q299 646 311 669T354 717Q421
762 488 798Q516 813 547 827T608 853T668 872T723 879Q752 879 773 864T795 810Q795 798 793 783T783 750Q768 719 747 671T700 565T648 443T593 317T539 199T492 99Q477 69 457 46T414 8T367 -16T322 -24Q290 -24 268 -8T245 42Q245 53 247 68T258 97Z" />
<glyph unicode="&#xba;" glyph-name="ordmasculine" horiz-adv-x="848" d="M589 1174Q550 1174 513 1154T448 1102T403 1029T386 945Q386 929 388 910T399 875T422 847T463 836Q502 836 539 856T604 910T649 986T666 1071Q666 1088 664 1106T654 1140T631 1164T589
1174ZM843 1150Q843 1057 808 973T712 826T568 726T389 688Q366 688 335 697T275 728T228 784T208 869Q208 903 219 950T252 1047T308 1147T390 1236T498 1299T633 1323Q665 1323 702 1315T770 1286T822 1233T843 1150Z" />
<glyph unicode="&#xbb;" glyph-name="guillemotright" horiz-adv-x="1570" d="M468 132Q460 128 449 128Q430 128 417 144T403 186T421 239T491 288Q570 322 627 345T721 383T776 405L793 412L767 424Q741 436 706 453T633 489T572 520Q552 531 544 542T535 568Q535
586 542 605T561 639T587 665T614 676Q621 676 630 672Q648 663 672 651T723 624T780 594T838 562Q903 527 974 487Q994 477 1003 463T1013 432Q1013 407 997 386T952 353Q889 323 812 288Q746 258 658 218T468 132ZM921 132Q914 128 902 128Q883 128 870 144T857
186T875 239T945 288Q1024 322 1081 345T1175 383T1229 405L1246 412L1220 424Q1195 436 1160 453T1087 489T1026 520Q1005 531 997 542T989 568Q989 586 996 605T1014 639T1040 665T1067 676Q1075 676 1083 672Q1101 663 1125 651T1177 624T1234 594T1291 562Q1357
527 1427 487Q1447 477 1456 463T1466 432Q1466 407 1450 386T1406 353Q1342 323 1265 288Q1200 258 1112 218T921 132Z" />
<glyph unicode="&#xbc;" glyph-name="onequarter" horiz-adv-x="2423" d="M568 662Q596 707 619 748T662 829T702 905T743 981L880 1230Q867 1225 837 1213T772 1188T707 1162T664 1146Q661 1144 657 1144T650 1143Q634 1143 622 1156T609 1192Q609 1211 621 1234T664
1282Q731 1327 798 1363Q826 1378 857 1392T918 1418T978 1437T1033 1444Q1062 1444 1083 1429T1105 1375Q1105 1363 1103 1348T1093 1315Q1078 1284 1057 1236T1010 1130T958 1008T903 882T849 764T802 664Q787 634 767 611T724 573T677 549T632 541Q600 541 578
557T555 607Q555 618 557 633T568 662ZM1758 1476Q1521 1072 1285 668T811 -140Q797 -165 777 -175T735 -185Q706 -185 682 -170T658 -131Q658 -126 659 -120T663 -109Q898 298 1130 700T1597 1510Q1611 1533 1632 1543T1678 1554Q1716 1554 1737 1536T1759 1491Q1759
1481 1758 1476ZM2156 723Q2135 677 2112 629T2067 532T2023 438T1982 351Q1936 254 1893 163H2072Q2092 163 2103 148T2114 111Q2114 92 2108 73T2088 37T2055 11T2007 0H1824L1670 -341Q1652 -376 1627 -391T1575 -406Q1542 -406 1519 -386T1495 -335Q1495 -328
1497 -321T1502 -306L1634 0H1367Q1352 0 1339 1T1316 8T1299 21T1293 45Q1293 62 1300 85T1327 143Q1348 182 1375 236T1433 352T1493 479T1552 604T1602 717T1638 806Q1653 848 1684 865T1747 883Q1781 883 1807 867T1835 825Q1834 820 1834 816T1831 806Q1797
723 1759 639T1683 472T1606 313T1535 167Q1561 168 1582 168T1621 168Q1669 168 1697 168L1725 167L1737 196Q1749 224 1771 271T1822 381T1882 509T1945 643T2005 768Q2031 828 2063 855T2122 883Q2145 883 2161 864T2177 810Q2177 791 2172 769T2156 723Z" />
<glyph unicode="&#xbd;" glyph-name="onehalf" horiz-adv-x="2157" d="M454 660Q482 705 505 746T548 827T588 903T629 979L766 1228Q753 1223 723 1211T658 1186T593 1160T550 1144Q547 1142 543 1142T536 1141Q520 1141 508 1154T495 1190Q495 1209 507 1232T550
1280Q617 1325 684 1361Q712 1376 743 1390T804 1416T864 1435T919 1442Q948 1442 969 1427T991 1373Q991 1361 989 1346T979 1313Q964 1282 943 1234T896 1128T844 1006T789 880T735 762T688 662Q673 632 653 609T610 571T563 547T518 539Q486 539 464 555T441
605Q441 616 443 631T454 660ZM1570 1476Q1333 1072 1097 668T623 -140Q609 -165 589 -175T547 -185Q518 -185 494 -170T470 -131Q470 -126 471 -120T475 -109Q710 298 942 700T1409 1510Q1423 1533 1444 1543T1490 1554Q1528 1554 1549 1536T1571 1491Q1571 1481
1570 1476ZM1921 167Q1925 168 1928 168T1934 169Q1955 169 1969 153T1983 114Q1983 81 1960 55T1900 12T1821 -15T1739 -24Q1707 -24 1676 -21T1608 -6T1525 26T1416 82Q1357 45 1324 24T1272 -7T1247 -19T1235 -21Q1223 -21 1211 -14T1187 6T1169 33T1162 66Q1162
80 1168 94T1191 119Q1257 155 1325 195T1456 280T1574 372T1670 466T1734 561T1758 655Q1758 700 1736 718T1678 737Q1649 737 1616 727T1548 702T1481 669T1419 636T1368 610T1334 600Q1318 600 1304 607T1280 625T1265 651T1259 680Q1259 705 1282 731T1343
783T1430 830T1530 869T1632 895T1725 905Q1774 905 1817 893T1893 853T1943 780T1962 670Q1962 615 1945 560T1881 447T1757 326T1556 195Q1599 176 1648 163T1736 150Q1765 150 1788 151T1832 154T1874 160T1921 167Z" />
<glyph unicode="&#xbe;" glyph-name="threequarters" horiz-adv-x="2673" d="M996 776Q996 800 992 822T972 861T929 888T854 898Q838 898 821 896T783 893Q755 893 742 910T729 947Q729 973 754 993T828 1022Q897 1033 947 1058T1029 1111T1077 1166T1093 1208Q1093
1237 1073 1255T1023 1274Q973 1274 934 1266T862 1249T801 1232T746 1224Q717 1224 695 1242T673 1288Q673 1310 692 1335Q720 1356 759 1375T844 1408T937 1432T1033 1441T1122 1431T1195 1396T1245 1334T1264 1238Q1264 1160 1199 1091T1012 979Q1063 967 1096
946T1148 900T1175 846T1183 791Q1183 712 1159 648T1094 532T998 440T878 370T745 319T609 284Q593 281 581 279T558 277Q520 277 502 293T483 331Q483 354 503 377T562 412Q604 421 652 437T749 478T841 534T919 602T974 683T996 776ZM2085 1476Q1848 1072 1612
668T1138 -140Q1124 -165 1104 -175T1062 -185Q1033 -185 1009 -170T985 -131Q985 -126 986 -120T990 -109Q1225 298 1457 700T1924 1510Q1938 1533 1959 1543T2005 1554Q2043 1554 2064 1536T2086 1491Q2086 1481 2085 1476ZM2481 723Q2460 677 2437 629T2392
532T2348 438T2307 351Q2261 254 2218 163H2397Q2417 163 2428 148T2439 111Q2439 92 2433 73T2413 37T2380 11T2332 0H2149L1995 -341Q1977 -376 1952 -391T1900 -406Q1867 -406 1844 -386T1820 -335Q1820 -328 1822 -321T1827 -306L1959 0H1692Q1677 0 1664 1T1641
8T1624 21T1618 45Q1618 62 1625 85T1652 143Q1673 182 1700 236T1758 352T1818 479T1877 604T1927 717T1963 806Q1978 848 2009 865T2072 883Q2106 883 2132 867T2160 825Q2159 820 2159 816T2156 806Q2122 723 2084 639T2008 472T1931 313T1860 167Q1886 168
1907 168T1946 168Q1994 168 2022 168L2050 167L2062 196Q2074 224 2096 271T2147 381T2207 509T2270 643T2330 768Q2356 828 2388 855T2447 883Q2470 883 2486 864T2502 810Q2502 791 2497 769T2481 723Z" />
<glyph unicode="&#xbf;" glyph-name="questiondown" horiz-adv-x="943" d="M713 1024Q720 1055 736 1083T776 1132T828 1166T885 1179Q927 1179 952 1153T978 1087Q978 1053 963 1021T922 964T865 924T800 909Q757 909 734 933T710 996Q710 1009 713 1024ZM486
523Q525 552 559 584T622 649T671 713T702 773Q708 790 729 798T770 806Q791 806 806 796T822 767Q822 761 821 758Q805 683 744 608T594 464Q546 432 500 397T417 326T358 255T335 190Q335 157 353 142T402 126Q431 126 469 138T548 174T627 230T693 303Q713 332
746 332Q773 332 796 318T820 280Q820 266 814 253T795 225Q748 165 691 119T572 40T449 -8T334 -25Q295 -25 262 -16T204 13T167 62T153 133Q153 191 171 237T230 327T333 417T486 523Z" />
<glyph unicode="&#xc0;" glyph-name="Agrave" horiz-adv-x="1323" d="M1076 285Q1071 266 1066 242T1060 195Q1060 175 1066 161T1092 147Q1119 147 1156 166T1237 218T1326 293T1417 381T1503 473T1576 559L1613 426Q1547 338 1477 257T1335 114T1189 15T1044
-22Q1002 -22 973 -9T925 28T899 82T890 147Q890 160 891 184T893 233T896 280T898 307L543 285L378 283Q336 192 295 122Q277 92 257 63T217 12T177 -24T138 -38Q108 -38 89 -29T59 -7T44 24T39 56Q39 82 46 107T66 156L198 378Q207 392 234 445T305 575T406 747T529
937T670 1125T823 1286T982 1399T1141 1442Q1215 1442 1286 1396T1423 1245Q1430 1231 1430 1221Q1430 1208 1423 1195T1405 1172T1379 1156T1350 1150Q1332 1150 1309 1158T1264 1192Q1233 1228 1200 1244T1133 1261Q1086 1261 1037 1235T939 1163T840 1058T745
932T656 797T575 665T506 549T450 460H633L942 483Q951 503 966 537T999 615T1040 708T1084 808T1129 908T1170 1000Q1183 1038 1208 1054T1263 1070Q1278 1070 1293 1066T1320 1052T1341 1028T1350 993Q1350 974 1334 928T1292 820T1235 686T1173 541T1116 402T1076
285ZM1384 1631Q1386 1618 1387 1607T1388 1586Q1388 1549 1373 1532T1338 1515T1297 1532T1261 1583Q1232 1646 1202 1708T1143 1833Q1131 1860 1131 1885Q1131 1909 1140 1929T1163 1964T1196 1987T1234 1996Q1266 1996 1295 1970T1339 1881Q1350 1818 1361 1756T1384
1631Z" />
<glyph unicode="&#xc1;" glyph-name="Aacute" horiz-adv-x="1323" d="M1076 285Q1071 266 1066 242T1060 195Q1060 175 1066 161T1092 147Q1119 147 1156 166T1237 218T1326 293T1417 381T1503 473T1576 559L1613 426Q1547 338 1477 257T1335 114T1189 15T1044
-22Q1002 -22 973 -9T925 28T899 82T890 147Q890 160 891 184T893 233T896 280T898 307L543 285L378 283Q336 192 295 122Q277 92 257 63T217 12T177 -24T138 -38Q108 -38 89 -29T59 -7T44 24T39 56Q39 82 46 107T66 156L198 378Q207 392 234 445T305 575T406 747T529
937T670 1125T823 1286T982 1399T1141 1442Q1215 1442 1286 1396T1423 1245Q1430 1231 1430 1221Q1430 1208 1423 1195T1405 1172T1379 1156T1350 1150Q1332 1150 1309 1158T1264 1192Q1233 1228 1200 1244T1133 1261Q1086 1261 1037 1235T939 1163T840 1058T745
932T656 797T575 665T506 549T450 460H633L942 483Q951 503 966 537T999 615T1040 708T1084 808T1129 908T1170 1000Q1183 1038 1208 1054T1263 1070Q1278 1070 1293 1066T1320 1052T1341 1028T1350 993Q1350 974 1334 928T1292 820T1235 686T1173 541T1116 402T1076
285ZM1253 1664Q1289 1727 1325 1789T1397 1914Q1435 1977 1475 2003T1547 2029Q1577 2029 1596 2010T1615 1960Q1615 1940 1606 1916T1574 1866Q1520 1803 1466 1741T1357 1616Q1331 1582 1302 1565T1253 1548Q1222 1548 1222 1580Q1222 1609 1253 1664Z" />
<glyph unicode="&#xc2;" glyph-name="Acircumflex" horiz-adv-x="1323" d="M1076 285Q1071 266 1066 242T1060 195Q1060 175 1066 161T1092 147Q1119 147 1156 166T1237 218T1326 293T1417 381T1503 473T1576 559L1613 426Q1547 338 1477 257T1335 114T1189 15T1044
-22Q1002 -22 973 -9T925 28T899 82T890 147Q890 160 891 184T893 233T896 280T898 307L543 285L378 283Q336 192 295 122Q277 92 257 63T217 12T177 -24T138 -38Q108 -38 89 -29T59 -7T44 24T39 56Q39 82 46 107T66 156L198 378Q207 392 234 445T305 575T406 747T529
937T670 1125T823 1286T982 1399T1141 1442Q1215 1442 1286 1396T1423 1245Q1430 1231 1430 1221Q1430 1208 1423 1195T1405 1172T1379 1156T1350 1150Q1332 1150 1309 1158T1264 1192Q1233 1228 1200 1244T1133 1261Q1086 1261 1037 1235T939 1163T840 1058T745
932T656 797T575 665T506 549T450 460H633L942 483Q951 503 966 537T999 615T1040 708T1084 808T1129 908T1170 1000Q1183 1038 1208 1054T1263 1070Q1278 1070 1293 1066T1320 1052T1341 1028T1350 993Q1350 974 1334 928T1292 820T1235 686T1173 541T1116 402T1076
285ZM1037 1654Q1105 1713 1153 1755T1234 1827T1288 1873T1324 1899T1351 1911T1377 1914Q1404 1914 1420 1901T1454 1856T1494 1770T1559 1633Q1562 1625 1562 1618Q1562 1606 1555 1597T1535 1580T1508 1569T1478 1565Q1456 1565 1438 1572T1411 1597Q1404 1613
1392 1640T1368 1694Q1354 1725 1338 1758Q1302 1725 1269 1694Q1241 1668 1212 1641T1165 1597Q1139 1574 1110 1574Q1093 1574 1078 1578T1050 1590T1031 1608T1024 1628Q1024 1642 1037 1654Z" />
<glyph unicode="&#xc3;" glyph-name="Atilde" horiz-adv-x="1323" d="M1076 285Q1071 266 1066 242T1060 195Q1060 175 1066 161T1092 147Q1119 147 1156 166T1237 218T1326 293T1417 381T1503 473T1576 559L1613 426Q1547 338 1477 257T1335 114T1189 15T1044
-22Q1002 -22 973 -9T925 28T899 82T890 147Q890 160 891 184T893 233T896 280T898 307L543 285L378 283Q336 192 295 122Q277 92 257 63T217 12T177 -24T138 -38Q108 -38 89 -29T59 -7T44 24T39 56Q39 82 46 107T66 156L198 378Q207 392 234 445T305 575T406 747T529
937T670 1125T823 1286T982 1399T1141 1442Q1215 1442 1286 1396T1423 1245Q1430 1231 1430 1221Q1430 1208 1423 1195T1405 1172T1379 1156T1350 1150Q1332 1150 1309 1158T1264 1192Q1233 1228 1200 1244T1133 1261Q1086 1261 1037 1235T939 1163T840 1058T745
932T656 797T575 665T506 549T450 460H633L942 483Q951 503 966 537T999 615T1040 708T1084 808T1129 908T1170 1000Q1183 1038 1208 1054T1263 1070Q1278 1070 1293 1066T1320 1052T1341 1028T1350 993Q1350 974 1334 928T1292 820T1235 686T1173 541T1116 402T1076
285ZM1600 1721Q1582 1683 1562 1651T1518 1594T1466 1556T1403 1542Q1397 1542 1391 1542T1379 1544Q1367 1545 1342 1554T1288 1575T1228 1597T1174 1612Q1172 1612 1170 1612T1166 1613Q1157 1613 1151 1609T1141 1598T1133 1584T1127 1572Q1115 1549 1090 1539T1043
1529Q1020 1529 1003 1538T986 1562Q986 1569 988 1572Q1006 1611 1029 1644T1079 1700T1135 1736T1194 1749Q1214 1749 1239 1739T1292 1716T1349 1694T1409 1683Q1430 1683 1445 1693T1468 1721Q1479 1747 1502 1758T1548 1770T1587 1760T1603 1732V1730Q1603
1728 1602 1727T1600 1721Z" />
<glyph unicode="&#xc4;" glyph-name="Adieresis" horiz-adv-x="1323" d="M1076 285Q1071 266 1066 242T1060 195Q1060 175 1066 161T1092 147Q1119 147 1156 166T1237 218T1326 293T1417 381T1503 473T1576 559L1613 426Q1547 338 1477 257T1335 114T1189 15T1044
-22Q1002 -22 973 -9T925 28T899 82T890 147Q890 160 891 184T893 233T896 280T898 307L543 285L378 283Q336 192 295 122Q277 92 257 63T217 12T177 -24T138 -38Q108 -38 89 -29T59 -7T44 24T39 56Q39 82 46 107T66 156L198 378Q207 392 234 445T305 575T406 747T529
937T670 1125T823 1286T982 1399T1141 1442Q1215 1442 1286 1396T1423 1245Q1430 1231 1430 1221Q1430 1208 1423 1195T1405 1172T1379 1156T1350 1150Q1332 1150 1309 1158T1264 1192Q1233 1228 1200 1244T1133 1261Q1086 1261 1037 1235T939 1163T840 1058T745
932T656 797T575 665T506 549T450 460H633L942 483Q951 503 966 537T999 615T1040 708T1084 808T1129 908T1170 1000Q1183 1038 1208 1054T1263 1070Q1278 1070 1293 1066T1320 1052T1341 1028T1350 993Q1350 974 1334 928T1292 820T1235 686T1173 541T1116 402T1076
285ZM1285 1664Q1280 1639 1266 1616T1233 1576T1189 1548T1139 1537Q1102 1537 1081 1557T1059 1612Q1059 1643 1072 1670T1106 1718T1154 1750T1211 1762Q1248 1762 1267 1742T1287 1687Q1287 1682 1287 1676T1285 1664ZM1588 1664Q1583 1639 1569 1616T1536
1576T1492 1548T1442 1537Q1405 1537 1384 1557T1362 1612Q1362 1643 1375 1670T1409 1718T1457 1750T1514 1762Q1551 1762 1570 1742T1590 1687Q1590 1682 1590 1676T1588 1664Z" />
<glyph unicode="&#xc5;" glyph-name="Aring" horiz-adv-x="1323" d="M1076 285Q1071 266 1066 242T1060 195Q1060 175 1066 161T1092 147Q1119 147 1156 166T1237 218T1326 293T1417 381T1503 473T1576 559L1613 426Q1547 338 1477 257T1335 114T1189 15T1044
-22Q1002 -22 973 -9T925 28T899 82T890 147Q890 160 891 184T893 233T896 280T898 307L543 285L378 283Q336 192 295 122Q277 92 257 63T217 12T177 -24T138 -38Q108 -38 89 -29T59 -7T44 24T39 56Q39 82 46 107T66 156L198 378Q207 392 234 445T305 575T406 747T529
937T670 1125T823 1286T982 1399T1141 1442Q1215 1442 1286 1396T1423 1245Q1430 1231 1430 1221Q1430 1208 1423 1195T1405 1172T1379 1156T1350 1150Q1332 1150 1309 1158T1264 1192Q1233 1228 1200 1244T1133 1261Q1086 1261 1037 1235T939 1163T840 1058T745
932T656 797T575 665T506 549T450 460H633L942 483Q951 503 966 537T999 615T1040 708T1084 808T1129 908T1170 1000Q1183 1038 1208 1054T1263 1070Q1278 1070 1293 1066T1320 1052T1341 1028T1350 993Q1350 974 1334 928T1292 820T1235 686T1173 541T1116 402T1076
285ZM1298 1829Q1272 1829 1250 1819T1212 1791T1187 1754T1178 1713Q1178 1687 1195 1670T1249 1652Q1276 1652 1298 1662T1335 1689T1360 1726T1369 1766Q1369 1792 1353 1810T1298 1829ZM1461 1738Q1451 1702 1427 1670T1370 1613T1299 1574T1224 1559Q1193
1559 1167 1569T1121 1598T1092 1642T1081 1696Q1081 1739 1103 1779T1160 1851T1238 1902T1323 1921Q1354 1921 1380 1911T1426 1882T1456 1839T1467 1784Q1467 1762 1461 1738Z" />
<glyph unicode="&#xc6;" glyph-name="AE" horiz-adv-x="2029" d="M1817 825Q1874 825 1902 810T1931 774Q1931 754 1921 740T1893 716T1852 700T1803 688Q1777 683 1709 681T1536 679Q1494 605 1455 536T1381 399Q1350 341 1337 300T1323 229Q1323 194 1339 174T1382
144T1444 131T1519 128Q1537 128 1554 128T1590 129Q1713 129 1799 157T1947 227T2053 319T2134 410T2209 481T2296 509Q2334 509 2354 493T2374 446Q2374 405 2343 353T2255 247T2122 142T1954 51T1762 -13T1555 -38Q1502 -38 1446 -35T1337 -24T1236 0T1152 39T1095
96T1074 176Q1074 235 1111 309Q1092 309 1078 308T1060 307L732 285L566 283Q538 237 511 197T457 122Q434 92 410 63T361 12T315 -24T274 -38Q248 -38 232 -32T206 -14T192 10T188 37Q188 66 201 98T234 156L403 378Q414 392 451 447T544 581T674 757T829 952T1002
1144T1182 1309T1360 1425T1527 1469Q1561 1469 1596 1459T1663 1426T1720 1365T1759 1268Q1809 1324 1874 1368T2012 1442T2160 1488T2305 1504Q2390 1504 2459 1487T2579 1434T2656 1343T2684 1213L2682 1202Q2677 1176 2661 1151T2620 1105T2564 1071T2499 1058Q2468
1058 2458 1070T2447 1105Q2447 1129 2454 1162T2462 1228Q2462 1256 2447 1276T2406 1310T2345 1329T2267 1335Q2208 1335 2136 1318T1995 1269T1869 1195T1781 1099L1621 825H1817ZM1476 985Q1504 1030 1528 1067T1571 1134T1599 1184T1610 1214Q1610 1218 1609
1219Q1585 1256 1555 1272T1489 1288Q1442 1288 1389 1261T1278 1186T1161 1078T1045 948T932 808T829 672T739 552T668 460H851L1164 483Q1182 513 1218 572T1298 702T1390 848T1476 985Z" />
<glyph unicode="&#xc7;" glyph-name="Ccedilla" horiz-adv-x="1039" d="M1364 1263Q1364 1236 1356 1198T1331 1119T1293 1038T1241 965T1178 912T1105 892Q1096 892 1082 893T1053 900T1028 917T1017 946Q1017 958 1023 974T1047 1011Q1065 1031 1086 1058T1124
1116T1152 1175T1164 1227Q1164 1256 1151 1273T1104 1291Q1061 1291 1007 1263T894 1186T774 1072T656 932T549 777T461 618T402 467T380 335Q380 262 419 218T548 174Q590 174 673 206T811 271T923 343T1031 419T1124 485T1193 527Q1198 531 1205 531Q1220 531
1225 507T1231 451Q1231 434 1227 410T1198 353Q1187 340 1157 309T1082 239T979 158T854 81T680 12T494 -22Q401 -22 335 0T227 63T166 158T146 280Q146 362 171 456T240 647T346 841T481 1026T638 1191T808 1323T983 1411T1156 1443Q1198 1443 1236 1434T1302
1403T1347 1348T1364 1263ZM840 -225Q840 -273 821 -315T770 -390T694 -440T602 -459Q551 -459 521 -442T490 -398Q490 -391 493 -382T503 -366T518 -353T538 -348Q555 -348 574 -354T610 -361Q635 -361 656 -352T692 -326T716 -288T725 -242Q725 -213 716 -201T684
-184Q667 -184 648 -188T610 -198T575 -207T546 -212Q526 -212 526 -195Q526 -177 552 -131L625 0H739L651 -131Q670 -125 691 -118T729 -111Q780 -111 810 -141T840 -225Z" />
<glyph unicode="&#xc8;" glyph-name="Egrave" horiz-adv-x="1155" d="M1078 825Q1094 825 1109 821T1136 810T1155 794T1162 774Q1162 758 1142 742T1073 711T943 688T737 679Q670 679 604 661T486 606T402 518T369 399Q369 345 384 296T431 210T510 151T623 129Q754
129 841 144T986 183T1082 234T1152 284T1219 323T1306 339Q1348 339 1372 319T1396 260Q1396 234 1369 202T1291 137T1169 72T1011 17T824 -23T616 -38Q517 -38 430 -12T278 68T176 200T138 387Q138 479 180 554T294 687T463 781T669 832Q585 895 551 955T517
1075Q517 1133 546 1182T625 1273T743 1345T887 1398T1046 1431T1209 1443Q1291 1443 1364 1426T1496 1373T1591 1282T1636 1152Q1636 1131 1626 1109T1596 1069T1546 1039T1477 1027Q1456 1027 1444 1032T1425 1046T1417 1067T1415 1095Q1415 1142 1404 1176T1368
1231T1301 1263T1199 1274Q1126 1274 1047 1259T902 1214T794 1143T751 1051Q751 991 778 948T851 878T956 838T1078 825ZM1334 1677Q1336 1664 1337 1653T1338 1632Q1338 1595 1323 1578T1288 1561T1247 1578T1211 1629Q1182 1692 1152 1754T1093 1879Q1081 1906
1081 1931Q1081 1955 1090 1975T1113 2010T1146 2033T1184 2042Q1216 2042 1245 2016T1289 1927Q1300 1864 1311 1802T1334 1677Z" />
<glyph unicode="&#xc9;" glyph-name="Eacute" horiz-adv-x="1155" d="M1078 825Q1094 825 1109 821T1136 810T1155 794T1162 774Q1162 758 1142 742T1073 711T943 688T737 679Q670 679 604 661T486 606T402 518T369 399Q369 345 384 296T431 210T510 151T623 129Q754
129 841 144T986 183T1082 234T1152 284T1219 323T1306 339Q1348 339 1372 319T1396 260Q1396 234 1369 202T1291 137T1169 72T1011 17T824 -23T616 -38Q517 -38 430 -12T278 68T176 200T138 387Q138 479 180 554T294 687T463 781T669 832Q585 895 551 955T517
1075Q517 1133 546 1182T625 1273T743 1345T887 1398T1046 1431T1209 1443Q1291 1443 1364 1426T1496 1373T1591 1282T1636 1152Q1636 1131 1626 1109T1596 1069T1546 1039T1477 1027Q1456 1027 1444 1032T1425 1046T1417 1067T1415 1095Q1415 1142 1404 1176T1368
1231T1301 1263T1199 1274Q1126 1274 1047 1259T902 1214T794 1143T751 1051Q751 991 778 948T851 878T956 838T1078 825ZM1115 1659Q1151 1722 1187 1784T1259 1909Q1297 1972 1337 1998T1409 2024Q1439 2024 1458 2005T1477 1955Q1477 1935 1468 1911T1436 1861Q1382
1798 1328 1736T1219 1611Q1193 1577 1164 1560T1115 1543Q1084 1543 1084 1575Q1084 1604 1115 1659Z" />
<glyph unicode="&#xca;" glyph-name="Ecircumflex" horiz-adv-x="1155" d="M1078 825Q1094 825 1109 821T1136 810T1155 794T1162 774Q1162 758 1142 742T1073 711T943 688T737 679Q670 679 604 661T486 606T402 518T369 399Q369 345 384 296T431 210T510 151T623
129Q754 129 841 144T986 183T1082 234T1152 284T1219 323T1306 339Q1348 339 1372 319T1396 260Q1396 234 1369 202T1291 137T1169 72T1011 17T824 -23T616 -38Q517 -38 430 -12T278 68T176 200T138 387Q138 479 180 554T294 687T463 781T669 832Q585 895 551
955T517 1075Q517 1133 546 1182T625 1273T743 1345T887 1398T1046 1431T1209 1443Q1291 1443 1364 1426T1496 1373T1591 1282T1636 1152Q1636 1131 1626 1109T1596 1069T1546 1039T1477 1027Q1456 1027 1444 1032T1425 1046T1417 1067T1415 1095Q1415 1142 1404
1176T1368 1231T1301 1263T1199 1274Q1126 1274 1047 1259T902 1214T794 1143T751 1051Q751 991 778 948T851 878T956 838T1078 825ZM1061 1648Q1129 1707 1177 1749T1258 1821T1312 1867T1348 1893T1375 1905T1401 1908Q1428 1908 1444 1895T1478 1850T1518 1764T1583
1627Q1586 1619 1586 1612Q1586 1600 1579 1591T1559 1574T1532 1563T1502 1559Q1480 1559 1462 1566T1435 1591Q1428 1607 1416 1634T1392 1688Q1378 1719 1362 1752Q1326 1719 1293 1688Q1265 1662 1236 1635T1189 1591Q1163 1568 1134 1568Q1117 1568 1102 1572T1074
1584T1055 1602T1048 1622Q1048 1636 1061 1648Z" />
<glyph unicode="&#xcb;" glyph-name="Edieresis" horiz-adv-x="1155" d="M1078 825Q1094 825 1109 821T1136 810T1155 794T1162 774Q1162 758 1142 742T1073 711T943 688T737 679Q670 679 604 661T486 606T402 518T369 399Q369 345 384 296T431 210T510 151T623
129Q754 129 841 144T986 183T1082 234T1152 284T1219 323T1306 339Q1348 339 1372 319T1396 260Q1396 234 1369 202T1291 137T1169 72T1011 17T824 -23T616 -38Q517 -38 430 -12T278 68T176 200T138 387Q138 479 180 554T294 687T463 781T669 832Q585 895 551
955T517 1075Q517 1133 546 1182T625 1273T743 1345T887 1398T1046 1431T1209 1443Q1291 1443 1364 1426T1496 1373T1591 1282T1636 1152Q1636 1131 1626 1109T1596 1069T1546 1039T1477 1027Q1456 1027 1444 1032T1425 1046T1417 1067T1415 1095Q1415 1142 1404
1176T1368 1231T1301 1263T1199 1274Q1126 1274 1047 1259T902 1214T794 1143T751 1051Q751 991 778 948T851 878T956 838T1078 825ZM1272 1702Q1267 1677 1253 1654T1220 1614T1176 1586T1126 1575Q1089 1575 1068 1595T1046 1650Q1046 1681 1059 1708T1093 1756T1141
1788T1198 1800Q1235 1800 1254 1780T1274 1725Q1274 1720 1274 1714T1272 1702ZM1575 1702Q1570 1677 1556 1654T1523 1614T1479 1586T1429 1575Q1392 1575 1371 1595T1349 1650Q1349 1681 1362 1708T1396 1756T1444 1788T1501 1800Q1538 1800 1557 1780T1577
1725Q1577 1720 1577 1714T1575 1702Z" />
<glyph unicode="&#xcc;" glyph-name="Igrave" horiz-adv-x="1075" d="M778 8Q712 15 661 17T564 20Q534 20 506 19T449 18T390 16T325 15Q292 15 274 34T256 81Q256 92 259 104Q262 114 282 125T336 147T415 166T511 178Q563 291 619 406T733 631T844 841T945
1023T1029 1167T1091 1260Q1040 1249 992 1237T884 1212Q872 1208 860 1208Q831 1208 815 1228T799 1278Q799 1291 822 1308T887 1344T985 1380T1108 1412T1248 1434T1397 1443Q1467 1443 1506 1429T1546 1379Q1546 1362 1536 1345T1510 1313T1470 1291T1422 1282Q1408
1282 1396 1283T1370 1285Q1333 1285 1301 1284T1240 1280Q1242 1270 1242 1265Q1242 1251 1237 1239T1227 1215Q1196 1150 1152 1059T1058 864T957 655T859 455T776 288T720 176Q776 171 823 163T903 142T956 112T975 74Q975 59 965 45T939 19T903 1T862 -6Q839
-6 819 0T778 8ZM1378 1683Q1380 1670 1381 1659T1382 1638Q1382 1601 1367 1584T1332 1567T1291 1584T1255 1635Q1226 1698 1196 1760T1137 1885Q1125 1912 1125 1937Q1125 1961 1134 1981T1157 2016T1190 2039T1228 2048Q1260 2048 1289 2022T1333 1933Q1344
1870 1355 1808T1378 1683Z" />
<glyph unicode="&#xcd;" glyph-name="Iacute" horiz-adv-x="1075" d="M778 8Q712 15 661 17T564 20Q534 20 506 19T449 18T390 16T325 15Q292 15 274 34T256 81Q256 92 259 104Q262 114 282 125T336 147T415 166T511 178Q563 291 619 406T733 631T844 841T945
1023T1029 1167T1091 1260Q1040 1249 992 1237T884 1212Q872 1208 860 1208Q831 1208 815 1228T799 1278Q799 1291 822 1308T887 1344T985 1380T1108 1412T1248 1434T1397 1443Q1467 1443 1506 1429T1546 1379Q1546 1362 1536 1345T1510 1313T1470 1291T1422 1282Q1408
1282 1396 1283T1370 1285Q1333 1285 1301 1284T1240 1280Q1242 1270 1242 1265Q1242 1251 1237 1239T1227 1215Q1196 1150 1152 1059T1058 864T957 655T859 455T776 288T720 176Q776 171 823 163T903 142T956 112T975 74Q975 59 965 45T939 19T903 1T862 -6Q839
-6 819 0T778 8ZM1356 1663Q1392 1726 1428 1788T1500 1913Q1538 1976 1578 2002T1650 2028Q1680 2028 1699 2009T1718 1959Q1718 1939 1709 1915T1677 1865Q1623 1802 1569 1740T1460 1615Q1434 1581 1405 1564T1356 1547Q1325 1547 1325 1579Q1325 1608 1356
1663Z" />
<glyph unicode="&#xce;" glyph-name="Icircumflex" horiz-adv-x="1075" d="M778 8Q712 15 661 17T564 20Q534 20 506 19T449 18T390 16T325 15Q292 15 274 34T256 81Q256 92 259 104Q262 114 282 125T336 147T415 166T511 178Q563 291 619 406T733 631T844 841T945
1023T1029 1167T1091 1260Q1040 1249 992 1237T884 1212Q872 1208 860 1208Q831 1208 815 1228T799 1278Q799 1291 822 1308T887 1344T985 1380T1108 1412T1248 1434T1397 1443Q1467 1443 1506 1429T1546 1379Q1546 1362 1536 1345T1510 1313T1470 1291T1422 1282Q1408
1282 1396 1283T1370 1285Q1333 1285 1301 1284T1240 1280Q1242 1270 1242 1265Q1242 1251 1237 1239T1227 1215Q1196 1150 1152 1059T1058 864T957 655T859 455T776 288T720 176Q776 171 823 163T903 142T956 112T975 74Q975 59 965 45T939 19T903 1T862 -6Q839
-6 819 0T778 8ZM1085 1621Q1153 1680 1201 1722T1282 1794T1336 1840T1372 1866T1399 1878T1425 1881Q1452 1881 1468 1868T1502 1823T1542 1737T1607 1600Q1610 1592 1610 1585Q1610 1573 1603 1564T1583 1547T1556 1536T1526 1532Q1504 1532 1486 1539T1459
1564Q1452 1580 1440 1607T1416 1661Q1402 1692 1386 1725Q1350 1692 1317 1661Q1289 1635 1260 1608T1213 1564Q1187 1541 1158 1541Q1141 1541 1126 1545T1098 1557T1079 1575T1072 1595Q1072 1609 1085 1621Z" />
<glyph unicode="&#xcf;" glyph-name="Idieresis" horiz-adv-x="1075" d="M778 8Q712 15 661 17T564 20Q534 20 506 19T449 18T390 16T325 15Q292 15 274 34T256 81Q256 92 259 104Q262 114 282 125T336 147T415 166T511 178Q563 291 619 406T733 631T844 841T945
1023T1029 1167T1091 1260Q1040 1249 992 1237T884 1212Q872 1208 860 1208Q831 1208 815 1228T799 1278Q799 1291 822 1308T887 1344T985 1380T1108 1412T1248 1434T1397 1443Q1467 1443 1506 1429T1546 1379Q1546 1362 1536 1345T1510 1313T1470 1291T1422 1282Q1408
1282 1396 1283T1370 1285Q1333 1285 1301 1284T1240 1280Q1242 1270 1242 1265Q1242 1251 1237 1239T1227 1215Q1196 1150 1152 1059T1058 864T957 655T859 455T776 288T720 176Q776 171 823 163T903 142T956 112T975 74Q975 59 965 45T939 19T903 1T862 -6Q839
-6 819 0T778 8ZM1335 1689Q1330 1664 1316 1641T1283 1601T1239 1573T1189 1562Q1152 1562 1131 1582T1109 1637Q1109 1668 1122 1695T1156 1743T1204 1775T1261 1787Q1298 1787 1317 1767T1337 1712Q1337 1707 1337 1701T1335 1689ZM1638 1689Q1633 1664 1619
1641T1586 1601T1542 1573T1492 1562Q1455 1562 1434 1582T1412 1637Q1412 1668 1425 1695T1459 1743T1507 1775T1564 1787Q1601 1787 1620 1767T1640 1712Q1640 1707 1640 1701T1638 1689Z" />
<glyph unicode="&#xd0;" glyph-name="Eth" horiz-adv-x="1216" d="M911 735Q928 735 938 721T948 687Q948 662 929 640T866 617H718Q685 559 649 498T576 376T500 258T424 150Q532 161 632 205T819 314T979 461T1103 630T1183 806T1212 972Q1212 1038 1196 1094T1146
1191T1060 1255T938 1278Q873 1278 808 1266T682 1232T572 1183T485 1121Q445 1077 415 1033T355 954T291 897T211 875Q125 875 125 951Q125 999 156 1054T242 1164T374 1269T543 1358T739 1420T953 1443Q1081 1443 1176 1405T1333 1301T1426 1144T1457 950T1422
732T1318 508T1149 299T918 125T629 6T286 -38Q246 -38 223 -13T200 50Q200 79 210 106T236 156L468 617H271Q254 617 246 629T237 658Q237 671 242 684T259 709T289 727T333 735H527L647 973Q676 1018 704 1045T757 1087T801 1106T830 1111Q875 1111 894 1085T913
1023Q913 994 903 962T876 901L785 735H911Z" />
<glyph unicode="&#xd1;" glyph-name="Ntilde" horiz-adv-x="1527" d="M1065 1347Q1081 1278 1097 1196T1128 1026T1159 846T1190 666T1220 495T1250 342Q1351 541 1444 719T1619 1038T1766 1279T1880 1422Q1901 1442 1924 1450T1969 1458Q2001 1458 2023 1442T2046
1401Q2046 1386 2041 1376T2025 1354Q1984 1307 1948 1268T1878 1185T1809 1087T1737 958Q1692 875 1647 788T1560 614T1480 446T1409 297T1351 175T1308 91Q1279 29 1242 -1T1173 -32H1166Q1146 -31 1127 -24T1092 -3T1065 32T1049 83Q1033 146 1021 206T997 330T975
463T950 615T921 794T882 1009Q852 909 809 790T714 549T602 314T476 112T341 -29T201 -82Q189 -82 173 -77T143 -61T118 -35T108 -2Q108 12 113 23T129 51Q142 72 170 87T234 122T314 166T400 234Q424 257 457 316T528 457T608 636T690 833T766 1026T830 1196T877
1322T899 1384Q909 1414 931 1428T980 1443Q979 1443 978 1442Q981 1442 984 1442T991 1443Q1013 1443 1034 1422T1065 1347ZM1802 1695Q1784 1657 1764 1625T1720 1568T1668 1530T1605 1516Q1599 1516 1593 1516T1581 1518Q1569 1519 1544 1528T1490 1549T1430
1571T1376 1586Q1374 1586 1372 1586T1368 1587Q1359 1587 1353 1583T1343 1572T1335 1558T1329 1546Q1317 1523 1292 1513T1245 1503Q1222 1503 1205 1512T1188 1536Q1188 1543 1190 1546Q1208 1585 1231 1618T1281 1674T1337 1710T1396 1723Q1416 1723 1441 1713T1494
1690T1551 1668T1611 1657Q1632 1657 1647 1667T1670 1695Q1681 1721 1704 1732T1750 1744T1789 1734T1805 1706V1704Q1805 1702 1804 1701T1802 1695Z" />
<glyph unicode="&#xd2;" glyph-name="Ograve" horiz-adv-x="1341" d="M235 459Q235 605 278 734T395 973T565 1170T767 1317T981 1410T1188 1443Q1275 1443 1353 1423T1493 1362T1596 1259T1651 1112Q1652 1107 1652 1103T1652 1094Q1652 1055 1630 1035T1581
1014Q1552 1014 1527 1045T1479 1133Q1442 1203 1372 1235T1214 1267Q1137 1267 1053 1239T886 1160T728 1038T596 880T506 693T472 486Q472 397 494 336T552 237T633 182T724 165Q827 165 920 221T1085 381T1198 636T1240 976Q1240 995 1240 1013T1239 1052Q1239
1102 1257 1125T1298 1149Q1337 1149 1361 1128T1400 1071T1419 990T1425 896Q1425 760 1396 640T1316 417T1194 233T1041 95T869 8T686 -23Q601 -23 520 1T376 82T274 231T235 459ZM1319 1650Q1321 1637 1322 1626T1323 1605Q1323 1568 1308 1551T1273 1534T1232
1551T1196 1602Q1167 1665 1137 1727T1078 1852Q1066 1879 1066 1904Q1066 1928 1075 1948T1098 1983T1131 2006T1169 2015Q1201 2015 1230 1989T1274 1900Q1285 1837 1296 1775T1319 1650Z" />
<glyph unicode="&#xd3;" glyph-name="Oacute" horiz-adv-x="1341" d="M235 459Q235 605 278 734T395 973T565 1170T767 1317T981 1410T1188 1443Q1275 1443 1353 1423T1493 1362T1596 1259T1651 1112Q1652 1107 1652 1103T1652 1094Q1652 1055 1630 1035T1581
1014Q1552 1014 1527 1045T1479 1133Q1442 1203 1372 1235T1214 1267Q1137 1267 1053 1239T886 1160T728 1038T596 880T506 693T472 486Q472 397 494 336T552 237T633 182T724 165Q827 165 920 221T1085 381T1198 636T1240 976Q1240 995 1240 1013T1239 1052Q1239
1102 1257 1125T1298 1149Q1337 1149 1361 1128T1400 1071T1419 990T1425 896Q1425 760 1396 640T1316 417T1194 233T1041 95T869 8T686 -23Q601 -23 520 1T376 82T274 231T235 459ZM1266 1657Q1302 1720 1338 1782T1410 1907Q1448 1970 1488 1996T1560 2022Q1590
2022 1609 2003T1628 1953Q1628 1933 1619 1909T1587 1859Q1533 1796 1479 1734T1370 1609Q1344 1575 1315 1558T1266 1541Q1235 1541 1235 1573Q1235 1602 1266 1657Z" />
<glyph unicode="&#xd4;" glyph-name="Ocircumflex" horiz-adv-x="1341" d="M235 459Q235 605 278 734T395 973T565 1170T767 1317T981 1410T1188 1443Q1275 1443 1353 1423T1493 1362T1596 1259T1651 1112Q1652 1107 1652 1103T1652 1094Q1652 1055 1630 1035T1581
1014Q1552 1014 1527 1045T1479 1133Q1442 1203 1372 1235T1214 1267Q1137 1267 1053 1239T886 1160T728 1038T596 880T506 693T472 486Q472 397 494 336T552 237T633 182T724 165Q827 165 920 221T1085 381T1198 636T1240 976Q1240 995 1240 1013T1239 1052Q1239
1102 1257 1125T1298 1149Q1337 1149 1361 1128T1400 1071T1419 990T1425 896Q1425 760 1396 640T1316 417T1194 233T1041 95T869 8T686 -23Q601 -23 520 1T376 82T274 231T235 459ZM993 1641Q1061 1700 1109 1742T1190 1814T1244 1860T1280 1886T1307 1898T1333
1901Q1360 1901 1376 1888T1410 1843T1450 1757T1515 1620Q1518 1612 1518 1605Q1518 1593 1511 1584T1491 1567T1464 1556T1434 1552Q1412 1552 1394 1559T1367 1584Q1360 1600 1348 1627T1324 1681Q1310 1712 1294 1745Q1258 1712 1225 1681Q1197 1655 1168 1628T1121
1584Q1095 1561 1066 1561Q1049 1561 1034 1565T1006 1577T987 1595T980 1615Q980 1629 993 1641Z" />
<glyph unicode="&#xd5;" glyph-name="Otilde" horiz-adv-x="1341" d="M235 459Q235 605 278 734T395 973T565 1170T767 1317T981 1410T1188 1443Q1275 1443 1353 1423T1493 1362T1596 1259T1651 1112Q1652 1107 1652 1103T1652 1094Q1652 1055 1630 1035T1581
1014Q1552 1014 1527 1045T1479 1133Q1442 1203 1372 1235T1214 1267Q1137 1267 1053 1239T886 1160T728 1038T596 880T506 693T472 486Q472 397 494 336T552 237T633 182T724 165Q827 165 920 221T1085 381T1198 636T1240 976Q1240 995 1240 1013T1239 1052Q1239
1102 1257 1125T1298 1149Q1337 1149 1361 1128T1400 1071T1419 990T1425 896Q1425 760 1396 640T1316 417T1194 233T1041 95T869 8T686 -23Q601 -23 520 1T376 82T274 231T235 459ZM1642 1721Q1624 1683 1604 1651T1560 1594T1508 1556T1445 1542Q1439 1542 1433
1542T1421 1544Q1409 1545 1384 1554T1330 1575T1270 1597T1216 1612Q1214 1612 1212 1612T1208 1613Q1199 1613 1193 1609T1183 1598T1175 1584T1169 1572Q1157 1549 1132 1539T1085 1529Q1062 1529 1045 1538T1028 1562Q1028 1569 1030 1572Q1048 1611 1071 1644T1121
1700T1177 1736T1236 1749Q1256 1749 1281 1739T1334 1716T1391 1694T1451 1683Q1472 1683 1487 1693T1510 1721Q1521 1747 1544 1758T1590 1770T1629 1760T1645 1732V1730Q1645 1728 1644 1727T1642 1721Z" />
<glyph unicode="&#xd6;" glyph-name="Odieresis" horiz-adv-x="1341" d="M235 459Q235 605 278 734T395 973T565 1170T767 1317T981 1410T1188 1443Q1275 1443 1353 1423T1493 1362T1596 1259T1651 1112Q1652 1107 1652 1103T1652 1094Q1652 1055 1630 1035T1581
1014Q1552 1014 1527 1045T1479 1133Q1442 1203 1372 1235T1214 1267Q1137 1267 1053 1239T886 1160T728 1038T596 880T506 693T472 486Q472 397 494 336T552 237T633 182T724 165Q827 165 920 221T1085 381T1198 636T1240 976Q1240 995 1240 1013T1239 1052Q1239
1102 1257 1125T1298 1149Q1337 1149 1361 1128T1400 1071T1419 990T1425 896Q1425 760 1396 640T1316 417T1194 233T1041 95T869 8T686 -23Q601 -23 520 1T376 82T274 231T235 459ZM1257 1683Q1252 1658 1238 1635T1205 1595T1161 1567T1111 1556Q1074 1556 1053
1576T1031 1631Q1031 1662 1044 1689T1078 1737T1126 1769T1183 1781Q1220 1781 1239 1761T1259 1706Q1259 1701 1259 1695T1257 1683ZM1560 1683Q1555 1658 1541 1635T1508 1595T1464 1567T1414 1556Q1377 1556 1356 1576T1334 1631Q1334 1662 1347 1689T1381
1737T1429 1769T1486 1781Q1523 1781 1542 1761T1562 1706Q1562 1701 1562 1695T1560 1683Z" />
<glyph unicode="&#xd7;" glyph-name="multiply" horiz-adv-x="1261" d="M417 965L734 648L1051 965L1153 863L836 546L1153 229L1051 127L734 444L417 127L315 229L632 546L315 863L417 965Z" />
<glyph unicode="&#xd8;" glyph-name="Oslash" horiz-adv-x="1160" d="M396 214Q428 188 466 177T543 165Q643 165 735 218T897 372T1011 617T1059 943L396 214ZM312 339Q413 452 517 568T726 800T934 1031T1135 1255Q1088 1267 1033 1267Q956 1267 872 1239T705
1160T547 1038T415 880T325 693T291 486Q291 400 312 339ZM54 459Q54 605 97 734T214 973T384 1170T586 1317T800 1410T1007 1443Q1076 1443 1140 1431T1258 1392L1353 1498Q1379 1527 1419 1527Q1435 1527 1451 1522T1481 1507T1502 1485T1510 1458Q1510 1447
1506 1439L1503 1432L1383 1300Q1399 1281 1415 1258T1443 1208T1463 1153T1471 1094Q1471 1055 1449 1035T1400 1014Q1371 1014 1346 1045T1298 1133Q1287 1154 1269 1175L1203 1101Q1226 1065 1235 1011T1244 896Q1244 760 1215 640T1135 417T1013 233T860 95T688
8T505 -23Q435 -23 368 -7T243 46Q208 7 173 -31T104 -108Q77 -139 40 -139Q24 -139 9 -134T-18 -119T-37 -99T-44 -75Q-44 -67 -42 -60T-34 -47Q8 0 50 47T138 146Q99 202 77 279T54 459Z" />
<glyph unicode="&#xd9;" glyph-name="Ugrave" horiz-adv-x="1195" d="M575 1355Q601 1407 633 1425T697 1443Q714 1443 729 1440T757 1428T776 1405T783 1369Q783 1343 772 1309T736 1227Q636 1050 568 854T459 462Q455 437 454 414T453 370Q453 311 468 270T507
204T562 168T622 157Q735 157 839 238T1024 467T1157 824T1217 1289Q1218 1316 1227 1336T1250 1370T1282 1389T1320 1396Q1344 1396 1359 1379T1384 1332T1396 1265T1400 1184Q1400 1007 1368 849T1278 556T1144 314T975 131T785 15T585 -26Q523 -26 461 0T348
76T267 198T236 362Q236 379 237 397T241 435Q254 512 269 581T305 718T350 855T407 1000T481 1164T575 1355ZM1117 1558Q1119 1545 1120 1534T1121 1513Q1121 1476 1106 1459T1071 1442T1030 1459T994 1510Q965 1573 935 1635T876 1760Q864 1787 864 1812Q864
1836 873 1856T896 1891T929 1914T967 1923Q999 1923 1028 1897T1072 1808Q1083 1745 1094 1683T1117 1558Z" />
<glyph unicode="&#xda;" glyph-name="Uacute" horiz-adv-x="1195" d="M575 1355Q601 1407 633 1425T697 1443Q714 1443 729 1440T757 1428T776 1405T783 1369Q783 1343 772 1309T736 1227Q636 1050 568 854T459 462Q455 437 454 414T453 370Q453 311 468 270T507
204T562 168T622 157Q735 157 839 238T1024 467T1157 824T1217 1289Q1218 1316 1227 1336T1250 1370T1282 1389T1320 1396Q1344 1396 1359 1379T1384 1332T1396 1265T1400 1184Q1400 1007 1368 849T1278 556T1144 314T975 131T785 15T585 -26Q523 -26 461 0T348
76T267 198T236 362Q236 379 237 397T241 435Q254 512 269 581T305 718T350 855T407 1000T481 1164T575 1355ZM1025 1558Q1061 1621 1097 1683T1169 1808Q1207 1871 1247 1897T1319 1923Q1349 1923 1368 1904T1387 1854Q1387 1834 1378 1810T1346 1760Q1292 1697
1238 1635T1129 1510Q1103 1476 1074 1459T1025 1442Q994 1442 994 1474Q994 1503 1025 1558Z" />
<glyph unicode="&#xdb;" glyph-name="Ucircumflex" horiz-adv-x="1195" d="M575 1355Q601 1407 633 1425T697 1443Q714 1443 729 1440T757 1428T776 1405T783 1369Q783 1343 772 1309T736 1227Q636 1050 568 854T459 462Q455 437 454 414T453 370Q453 311 468
270T507 204T562 168T622 157Q735 157 839 238T1024 467T1157 824T1217 1289Q1218 1316 1227 1336T1250 1370T1282 1389T1320 1396Q1344 1396 1359 1379T1384 1332T1396 1265T1400 1184Q1400 1007 1368 849T1278 556T1144 314T975 131T785 15T585 -26Q523 -26 461
0T348 76T267 198T236 362Q236 379 237 397T241 435Q254 512 269 581T305 718T350 855T407 1000T481 1164T575 1355ZM850 1690Q918 1749 966 1791T1047 1863T1101 1909T1137 1935T1164 1947T1190 1950Q1217 1950 1233 1937T1267 1892T1307 1806T1372 1669Q1375
1661 1375 1654Q1375 1642 1368 1633T1348 1616T1321 1605T1291 1601Q1269 1601 1251 1608T1224 1633Q1217 1649 1205 1676T1181 1730Q1167 1761 1151 1794Q1115 1761 1082 1730Q1054 1704 1025 1677T978 1633Q952 1610 923 1610Q906 1610 891 1614T863 1626T844
1644T837 1664Q837 1678 850 1690Z" />
<glyph unicode="&#xdc;" glyph-name="Udieresis" horiz-adv-x="1195" d="M575 1355Q601 1407 633 1425T697 1443Q714 1443 729 1440T757 1428T776 1405T783 1369Q783 1343 772 1309T736 1227Q636 1050 568 854T459 462Q455 437 454 414T453 370Q453 311 468 270T507
204T562 168T622 157Q735 157 839 238T1024 467T1157 824T1217 1289Q1218 1316 1227 1336T1250 1370T1282 1389T1320 1396Q1344 1396 1359 1379T1384 1332T1396 1265T1400 1184Q1400 1007 1368 849T1278 556T1144 314T975 131T785 15T585 -26Q523 -26 461 0T348
76T267 198T236 362Q236 379 237 397T241 435Q254 512 269 581T305 718T350 855T407 1000T481 1164T575 1355ZM1068 1619Q1063 1594 1049 1571T1016 1531T972 1503T922 1492Q885 1492 864 1512T842 1567Q842 1598 855 1625T889 1673T937 1705T994 1717Q1031 1717
1050 1697T1070 1642Q1070 1637 1070 1631T1068 1619ZM1371 1619Q1366 1594 1352 1571T1319 1531T1275 1503T1225 1492Q1188 1492 1167 1512T1145 1567Q1145 1598 1158 1625T1192 1673T1240 1705T1297 1717Q1334 1717 1353 1697T1373 1642Q1373 1637 1373 1631T1371
1619Z" />
<glyph unicode="&#xdd;" glyph-name="Yacute" horiz-adv-x="969" d="M638 665Q578 735 530 818T461 997Q444 1055 438 1105T431 1198Q431 1255 445 1301T484 1378T541 1427T609 1444Q682 1444 682 1367Q682 1353 677 1332T665 1284T654 1229T648 1172Q648 1113
661 1054T698 941T752 841T815 760L889 808Q948 846 1006 887T1112 974Q1149 1018 1177 1060T1226 1139T1259 1206T1276 1256Q1285 1298 1294 1328T1320 1377T1367 1405T1450 1414Q1498 1414 1498 1346Q1498 1342 1494 1311T1471 1227T1411 1102T1297 945Q1250
900 1198 859T1089 781T974 708T859 639L815 613L613 231Q584 175 572 146T557 105Q557 52 542 14T503 -49T451 -87T398 -99Q361 -99 335 -77T308 -12Q308 4 309 14T316 40T335 83T374 164L638 665ZM985 1558Q1021 1621 1057 1683T1129 1808Q1167 1871 1207 1897T1279
1923Q1309 1923 1328 1904T1347 1854Q1347 1834 1338 1810T1306 1760Q1252 1697 1198 1635T1089 1510Q1063 1476 1034 1459T985 1442Q954 1442 954 1474Q954 1503 985 1558Z" />
<glyph unicode="&#xde;" glyph-name="Thorn" horiz-adv-x="1088" d="M1102 858Q1102 902 1092 943T1060 1021T1009 1085T938 1132Q903 1052 863 965T787 798T721 657T677 568Q755 574 831 594T967 651T1065 738T1102 858ZM608 411Q589 369 570 319T529 220T484
124T433 41T373 -16T304 -38Q273 -38 253 -29T222 -5T207 27T202 61Q202 85 209 110T228 156L756 1157Q669 1152 606 1131T498 1079T421 1010T367 933T326 858T287 793T242 747T180 729Q131 729 108 754T84 825T109 925T180 1035T291 1140T439 1230T617 1292T821
1316Q823 1316 826 1316T832 1315H839L842 1320Q867 1364 889 1389T931 1426T966 1440T991 1443Q1009 1443 1024 1431T1039 1385Q1039 1378 1030 1353T1005 1290Q1075 1269 1135 1232T1239 1141T1308 1017T1333 859Q1333 754 1283 670T1147 527T949 437T713 405Q687
405 661 406T608 411Z" />
<glyph unicode="&#xdf;" glyph-name="germandbls" horiz-adv-x="1044" d="M828 721Q896 700 925 658T954 560Q954 510 933 454T874 343T788 240T685 156Q725 168 756 178T819 200T882 226T956 261T1049 310T1171 378L1157 221Q1011 142 888 95T664 22T483 -12T343
-20Q300 -20 273 0T246 60Q246 84 256 103T284 135T323 156T367 164Q420 164 468 182T559 232T637 302T697 384T735 467T749 543Q749 585 734 600T695 616Q684 616 673 613T650 605T629 598T609 594Q588 594 574 612T560 653Q560 678 571 691T599 714T639 733T682
758Q765 820 828 882T935 1001T1000 1105T1022 1186Q1022 1210 1009 1223T967 1237Q928 1237 883 1210T790 1133T694 1013T600 856L140 -29Q100 -107 72 -165T22 -266T-17 -336T-52 -380T-90 -403T-137 -410Q-177 -410 -199 -388T-222 -334T-213 -271T-182 -198T-127
-98T-41 45Q13 136 59 214T148 365T229 504T307 641T386 784T472 942Q524 1039 583 1123T709 1269T847 1366T1000 1401Q1061 1401 1104 1387T1174 1348T1213 1289T1226 1212Q1226 1171 1210 1124T1166 1029T1100 935T1018 847T925 774T828 721Z" />
<glyph unicode="&#xe0;" glyph-name="agrave" horiz-adv-x="984" d="M524 546Q477 546 433 522T355 459T301 372T281 274Q281 254 283 233T295 193T320 163T365 151Q387 151 416 170T477 220T539 287T593 359T632 422T647 463Q647 482 634 497T602 524T562 540T524
546ZM1217 288Q1199 271 1169 241T1101 176T1019 106T930 41T840 -6T757 -25Q722 -25 697 -10T656 29T631 83T623 146Q623 167 626 187T636 226Q605 184 566 140T481 59T386 -1T285 -25Q259 -25 225 -15T159 20T107 82T86 175Q86 216 98 273T136 391T201 513T295
620T418 697T572 727Q616 727 649 716T705 692Q731 676 751 657Q768 666 786 674Q801 681 817 686T846 692Q884 692 908 671T932 625Q932 618 931 614Q926 595 916 566T892 502T866 428T841 352T823 283T816 227Q816 197 826 178T860 158Q875 158 895 167T940 193T989
229T1039 271Q1095 321 1158 385Q1174 398 1189 398Q1209 398 1222 379T1236 335Q1236 307 1217 288ZM873 942Q875 929 876 918T877 897Q877 860 862 843T827 826T786 843T750 894Q721 957 691 1019T632 1144Q620 1171 620 1196Q620 1220 629 1240T652 1275T685
1298T723 1307Q755 1307 784 1281T828 1192Q839 1129 850 1067T873 942Z" />
<glyph unicode="&#xe1;" glyph-name="aacute" horiz-adv-x="984" d="M524 546Q477 546 433 522T355 459T301 372T281 274Q281 254 283 233T295 193T320 163T365 151Q387 151 416 170T477 220T539 287T593 359T632 422T647 463Q647 482 634 497T602 524T562 540T524
546ZM1217 288Q1199 271 1169 241T1101 176T1019 106T930 41T840 -6T757 -25Q722 -25 697 -10T656 29T631 83T623 146Q623 167 626 187T636 226Q605 184 566 140T481 59T386 -1T285 -25Q259 -25 225 -15T159 20T107 82T86 175Q86 216 98 273T136 391T201 513T295
620T418 697T572 727Q616 727 649 716T705 692Q731 676 751 657Q768 666 786 674Q801 681 817 686T846 692Q884 692 908 671T932 625Q932 618 931 614Q926 595 916 566T892 502T866 428T841 352T823 283T816 227Q816 197 826 178T860 158Q875 158 895 167T940 193T989
229T1039 271Q1095 321 1158 385Q1174 398 1189 398Q1209 398 1222 379T1236 335Q1236 307 1217 288ZM704 942Q740 1005 776 1067T848 1192Q886 1255 926 1281T998 1307Q1028 1307 1047 1288T1066 1238Q1066 1218 1057 1194T1025 1144Q971 1081 917 1019T808 894Q782
860 753 843T704 826Q673 826 673 858Q673 887 704 942Z" />
<glyph unicode="&#xe2;" glyph-name="acircumflex" horiz-adv-x="984" d="M524 546Q477 546 433 522T355 459T301 372T281 274Q281 254 283 233T295 193T320 163T365 151Q387 151 416 170T477 220T539 287T593 359T632 422T647 463Q647 482 634 497T602 524T562
540T524 546ZM1217 288Q1199 271 1169 241T1101 176T1019 106T930 41T840 -6T757 -25Q722 -25 697 -10T656 29T631 83T623 146Q623 167 626 187T636 226Q605 184 566 140T481 59T386 -1T285 -25Q259 -25 225 -15T159 20T107 82T86 175Q86 216 98 273T136 391T201
513T295 620T418 697T572 727Q616 727 649 716T705 692Q731 676 751 657Q768 666 786 674Q801 681 817 686T846 692Q884 692 908 671T932 625Q932 618 931 614Q926 595 916 566T892 502T866 428T841 352T823 283T816 227Q816 197 826 178T860 158Q875 158 895 167T940
193T989 229T1039 271Q1095 321 1158 385Q1174 398 1189 398Q1209 398 1222 379T1236 335Q1236 307 1217 288ZM472 939Q540 998 588 1040T669 1112T723 1158T759 1184T786 1196T812 1199Q839 1199 855 1186T889 1141T929 1055T994 918Q997 910 997 903Q997 891
990 882T970 865T943 854T913 850Q891 850 873 857T846 882Q839 898 827 925T803 979Q789 1010 773 1043Q737 1010 704 979Q676 953 647 926T600 882Q574 859 545 859Q528 859 513 863T485 875T466 893T459 913Q459 927 472 939Z" />
<glyph unicode="&#xe3;" glyph-name="atilde" horiz-adv-x="984" d="M524 546Q477 546 433 522T355 459T301 372T281 274Q281 254 283 233T295 193T320 163T365 151Q387 151 416 170T477 220T539 287T593 359T632 422T647 463Q647 482 634 497T602 524T562 540T524
546ZM1217 288Q1199 271 1169 241T1101 176T1019 106T930 41T840 -6T757 -25Q722 -25 697 -10T656 29T631 83T623 146Q623 167 626 187T636 226Q605 184 566 140T481 59T386 -1T285 -25Q259 -25 225 -15T159 20T107 82T86 175Q86 216 98 273T136 391T201 513T295
620T418 697T572 727Q616 727 649 716T705 692Q731 676 751 657Q768 666 786 674Q801 681 817 686T846 692Q884 692 908 671T932 625Q932 618 931 614Q926 595 916 566T892 502T866 428T841 352T823 283T816 227Q816 197 826 178T860 158Q875 158 895 167T940 193T989
229T1039 271Q1095 321 1158 385Q1174 398 1189 398Q1209 398 1222 379T1236 335Q1236 307 1217 288ZM1048 986Q1030 948 1010 916T966 859T914 821T851 807Q845 807 839 807T827 809Q815 810 790 819T736 840T676 862T622 877Q620 877 618 877T614 878Q605 878
599 874T589 863T581 849T575 837Q563 814 538 804T491 794Q468 794 451 803T434 827Q434 834 436 837Q454 876 477 909T527 965T583 1001T642 1014Q662 1014 687 1004T740 981T797 959T857 948Q878 948 893 958T916 986Q927 1012 950 1023T996 1035T1035 1025T1051
997V995Q1051 993 1050 992T1048 986Z" />
<glyph unicode="&#xe4;" glyph-name="adieresis" horiz-adv-x="984" d="M524 546Q477 546 433 522T355 459T301 372T281 274Q281 254 283 233T295 193T320 163T365 151Q387 151 416 170T477 220T539 287T593 359T632 422T647 463Q647 482 634 497T602 524T562
540T524 546ZM1217 288Q1199 271 1169 241T1101 176T1019 106T930 41T840 -6T757 -25Q722 -25 697 -10T656 29T631 83T623 146Q623 167 626 187T636 226Q605 184 566 140T481 59T386 -1T285 -25Q259 -25 225 -15T159 20T107 82T86 175Q86 216 98 273T136 391T201
513T295 620T418 697T572 727Q616 727 649 716T705 692Q731 676 751 657Q768 666 786 674Q801 681 817 686T846 692Q884 692 908 671T932 625Q932 618 931 614Q926 595 916 566T892 502T866 428T841 352T823 283T816 227Q816 197 826 178T860 158Q875 158 895 167T940
193T989 229T1039 271Q1095 321 1158 385Q1174 398 1189 398Q1209 398 1222 379T1236 335Q1236 307 1217 288ZM681 923Q676 898 662 875T629 835T585 807T535 796Q498 796 477 816T455 871Q455 902 468 929T502 977T550 1009T607 1021Q644 1021 663 1001T683 946Q683
941 683 935T681 923ZM984 923Q979 898 965 875T932 835T888 807T838 796Q801 796 780 816T758 871Q758 902 771 929T805 977T853 1009T910 1021Q947 1021 966 1001T986 946Q986 941 986 935T984 923Z" />
<glyph unicode="&#xe5;" glyph-name="aring" horiz-adv-x="984" d="M524 546Q477 546 433 522T355 459T301 372T281 274Q281 254 283 233T295 193T320 163T365 151Q387 151 416 170T477 220T539 287T593 359T632 422T647 463Q647 482 634 497T602 524T562 540T524
546ZM1217 288Q1199 271 1169 241T1101 176T1019 106T930 41T840 -6T757 -25Q722 -25 697 -10T656 29T631 83T623 146Q623 167 626 187T636 226Q605 184 566 140T481 59T386 -1T285 -25Q259 -25 225 -15T159 20T107 82T86 175Q86 216 98 273T136 391T201 513T295
620T418 697T572 727Q616 727 649 716T705 692Q731 676 751 657Q768 666 786 674Q801 681 817 686T846 692Q884 692 908 671T932 625Q932 618 931 614Q926 595 916 566T892 502T866 428T841 352T823 283T816 227Q816 197 826 178T860 158Q875 158 895 167T940 193T989
229T1039 271Q1095 321 1158 385Q1174 398 1189 398Q1209 398 1222 379T1236 335Q1236 307 1217 288ZM1023 1363Q997 1363 975 1353T937 1325T912 1288T903 1247Q903 1221 920 1204T974 1186Q1001 1186 1023 1196T1060 1223T1085 1260T1094 1300Q1094 1326 1078
1344T1023 1363ZM1186 1272Q1176 1236 1152 1204T1095 1147T1024 1108T949 1093Q918 1093 892 1103T846 1132T817 1176T806 1230Q806 1273 828 1313T885 1385T963 1436T1048 1455Q1079 1455 1105 1445T1151 1416T1181 1373T1192 1318Q1192 1296 1186 1272Z" />
<glyph unicode="&#xe6;" glyph-name="ae" horiz-adv-x="1357" d="M1171 590Q1166 591 1162 591T1153 591Q1115 591 1082 576T1022 537T973 481T934 420T906 361T888 314Q923 332 960 355T1031 399T1088 437T1123 460Q1168 488 1185 512T1202 555Q1202 570 1193
579T1171 590ZM583 546Q536 546 492 522T414 459T360 372T340 274Q340 254 342 233T354 193T379 163T424 151Q447 151 477 171T540 224T604 296T660 372T700 439T716 483Q700 500 680 514Q663 526 639 536T583 546ZM1207 728Q1290 728 1331 688T1372 577Q1372 535
1350 489T1274 396T1130 299T903 199Q908 170 934 154T1003 137Q1049 137 1101 150T1205 185T1306 230T1394 277T1460 315T1496 335Q1505 341 1512 342T1526 343Q1538 343 1546 338T1559 325T1567 309T1569 294Q1569 285 1567 273T1552 244Q1547 239 1519 217T1445
165T1341 102T1215 40T1076 -6T934 -25Q885 -25 845 -7T776 44T728 120T705 212Q672 171 631 129T544 52T446 -3T344 -25Q318 -25 284 -15T218 20T166 82T145 175Q145 216 157 273T195 391T260 513T354 620T477 697T631 727Q707 727 764 696T877 604Q943 659 1025
693T1207 728Z" />
<glyph unicode="&#xe7;" glyph-name="ccedilla" horiz-adv-x="645" d="M669 635Q669 604 662 567T639 496T598 441T536 419Q516 419 511 425T505 446Q505 455 505 472T506 506Q506 524 501 536T476 549Q453 549 425 532T368 486T312 423T264 351T230 280T217 222Q217
187 241 167T308 147Q353 147 404 162T505 200T603 250T688 301T753 343T787 365Q803 373 817 373Q829 373 837 368T851 355T858 339T860 324Q860 315 858 303T843 274Q838 268 811 244T740 186T640 116T519 47T385 -4T249 -25Q198 -25 159 -9T92 34T51 99T37 177Q37
222 58 280T116 400T203 520T311 625T433 699T562 727Q584 727 603 722T637 707T660 678T669 635ZM436 -225Q436 -273 417 -315T366 -390T290 -440T198 -459Q147 -459 117 -442T86 -398Q86 -391 89 -382T99 -366T114 -353T134 -348Q151 -348 170 -354T206 -361Q231
-361 252 -352T288 -326T312 -288T321 -242Q321 -213 312 -201T280 -184Q263 -184 244 -188T206 -198T171 -207T142 -212Q122 -212 122 -195Q122 -177 148 -131L221 0H335L247 -131Q266 -125 287 -118T325 -111Q376 -111 406 -141T436 -225Z" />
<glyph unicode="&#xe8;" glyph-name="egrave" horiz-adv-x="704" d="M544 590Q539 591 535 591T526 591Q488 591 455 576T395 537T346 481T307 420T279 361T261 314Q296 332 333 355T404 399T461 437T496 460Q541 488 558 512T575 555Q575 570 566 579T544 590ZM580
728Q663 728 704 688T745 577Q745 535 723 489T647 396T503 299T276 199Q281 170 307 154T376 137Q422 137 474 150T578 185T679 230T767 277T833 315T869 335Q878 341 885 342T899 343Q911 343 919 338T932 325T940 309T942 294Q942 285 940 273T925 244Q920 239
892 217T818 165T714 102T588 40T449 -6T307 -25Q247 -25 201 -2T122 60T72 150T55 257Q55 300 72 351T121 455T199 556T304 644T431 705T580 728ZM746 942Q748 929 749 918T750 897Q750 860 735 843T700 826T659 843T623 894Q594 957 564 1019T505 1144Q493 1171
493 1196Q493 1220 502 1240T525 1275T558 1298T596 1307Q628 1307 657 1281T701 1192Q712 1129 723 1067T746 942Z" />
<glyph unicode="&#xe9;" glyph-name="eacute" horiz-adv-x="704" d="M544 590Q539 591 535 591T526 591Q488 591 455 576T395 537T346 481T307 420T279 361T261 314Q296 332 333 355T404 399T461 437T496 460Q541 488 558 512T575 555Q575 570 566 579T544 590ZM580
728Q663 728 704 688T745 577Q745 535 723 489T647 396T503 299T276 199Q281 170 307 154T376 137Q422 137 474 150T578 185T679 230T767 277T833 315T869 335Q878 341 885 342T899 343Q911 343 919 338T932 325T940 309T942 294Q942 285 940 273T925 244Q920 239
892 217T818 165T714 102T588 40T449 -6T307 -25Q247 -25 201 -2T122 60T72 150T55 257Q55 300 72 351T121 455T199 556T304 644T431 705T580 728ZM692 942Q728 1005 764 1067T836 1192Q874 1255 914 1281T986 1307Q1016 1307 1035 1288T1054 1238Q1054 1218 1045
1194T1013 1144Q959 1081 905 1019T796 894Q770 860 741 843T692 826Q661 826 661 858Q661 887 692 942Z" />
<glyph unicode="&#xea;" glyph-name="ecircumflex" horiz-adv-x="704" d="M544 590Q539 591 535 591T526 591Q488 591 455 576T395 537T346 481T307 420T279 361T261 314Q296 332 333 355T404 399T461 437T496 460Q541 488 558 512T575 555Q575 570 566 579T544
590ZM580 728Q663 728 704 688T745 577Q745 535 723 489T647 396T503 299T276 199Q281 170 307 154T376 137Q422 137 474 150T578 185T679 230T767 277T833 315T869 335Q878 341 885 342T899 343Q911 343 919 338T932 325T940 309T942 294Q942 285 940 273T925
244Q920 239 892 217T818 165T714 102T588 40T449 -6T307 -25Q247 -25 201 -2T122 60T72 150T55 257Q55 300 72 351T121 455T199 556T304 644T431 705T580 728ZM380 904Q448 963 496 1005T577 1077T631 1123T667 1149T694 1161T720 1164Q747 1164 763 1151T797
1106T837 1020T902 883Q905 875 905 868Q905 856 898 847T878 830T851 819T821 815Q799 815 781 822T754 847Q747 863 735 890T711 944Q697 975 681 1008Q645 975 612 944Q584 918 555 891T508 847Q482 824 453 824Q436 824 421 828T393 840T374 858T367 878Q367
892 380 904Z" />
<glyph unicode="&#xeb;" glyph-name="edieresis" horiz-adv-x="704" d="M544 590Q539 591 535 591T526 591Q488 591 455 576T395 537T346 481T307 420T279 361T261 314Q296 332 333 355T404 399T461 437T496 460Q541 488 558 512T575 555Q575 570 566 579T544
590ZM580 728Q663 728 704 688T745 577Q745 535 723 489T647 396T503 299T276 199Q281 170 307 154T376 137Q422 137 474 150T578 185T679 230T767 277T833 315T869 335Q878 341 885 342T899 343Q911 343 919 338T932 325T940 309T942 294Q942 285 940 273T925
244Q920 239 892 217T818 165T714 102T588 40T449 -6T307 -25Q247 -25 201 -2T122 60T72 150T55 257Q55 300 72 351T121 455T199 556T304 644T431 705T580 728ZM634 923Q629 898 615 875T582 835T538 807T488 796Q451 796 430 816T408 871Q408 902 421 929T455
977T503 1009T560 1021Q597 1021 616 1001T636 946Q636 941 636 935T634 923ZM937 923Q932 898 918 875T885 835T841 807T791 796Q754 796 733 816T711 871Q711 902 724 929T758 977T806 1009T863 1021Q900 1021 919 1001T939 946Q939 941 939 935T937 923Z" />
<glyph unicode="&#xec;" glyph-name="igrave" horiz-adv-x="480" d="M247 640Q264 668 286 680T331 692Q369 692 396 668T424 605Q423 596 422 587T415 569Q401 543 392 525T376 492T361 461T344 425Q332 400 317 371T289 310T266 249T256 194Q256 167 269 161T308
154Q350 154 397 178T489 238T571 311T632 375L664 239Q613 187 560 140T452 57T340 0T227 -22Q147 -22 100 18T53 146Q53 192 66 236T97 321T135 401T169 475Q174 488 186 515T213 570Q229 603 247 640ZM781 942Q783 929 784 918T785 897Q785 860 770 843T735
826T694 843T658 894Q629 957 599 1019T540 1144Q528 1171 528 1196Q528 1220 537 1240T560 1275T593 1298T631 1307Q663 1307 692 1281T736 1192Q747 1129 758 1067T781 942Z" />
<glyph unicode="&#xed;" glyph-name="iacute" horiz-adv-x="480" d="M247 640Q264 668 286 680T331 692Q369 692 396 668T424 605Q423 596 422 587T415 569Q401 543 392 525T376 492T361 461T344 425Q332 400 317 371T289 310T266 249T256 194Q256 167 269 161T308
154Q350 154 397 178T489 238T571 311T632 375L664 239Q613 187 560 140T452 57T340 0T227 -22Q147 -22 100 18T53 146Q53 192 66 236T97 321T135 401T169 475Q174 488 186 515T213 570Q229 603 247 640ZM725 942Q761 1005 797 1067T869 1192Q907 1255 947 1281T1019
1307Q1049 1307 1068 1288T1087 1238Q1087 1218 1078 1194T1046 1144Q992 1081 938 1019T829 894Q803 860 774 843T725 826Q694 826 694 858Q694 887 725 942Z" />
<glyph unicode="&#xee;" glyph-name="icircumflex" horiz-adv-x="480" d="M247 640Q264 668 286 680T331 692Q369 692 396 668T424 605Q423 596 422 587T415 569Q401 543 392 525T376 492T361 461T344 425Q332 400 317 371T289 310T266 249T256 194Q256 167 269
161T308 154Q350 154 397 178T489 238T571 311T632 375L664 239Q613 187 560 140T452 57T340 0T227 -22Q147 -22 100 18T53 146Q53 192 66 236T97 321T135 401T169 475Q174 488 186 515T213 570Q229 603 247 640ZM187 867Q255 926 303 968T384 1040T438 1086T474
1112T501 1124T527 1127Q554 1127 570 1114T604 1069T644 983T709 846Q712 838 712 831Q712 819 705 810T685 793T658 782T628 778Q606 778 588 785T561 810Q554 826 542 853T518 907Q504 938 488 971Q452 938 419 907Q391 881 362 854T315 810Q289 787 260 787Q243
787 228 791T200 803T181 821T174 841Q174 855 187 867Z" />
<glyph unicode="&#xef;" glyph-name="idieresis" horiz-adv-x="480" d="M247 640Q264 668 286 680T331 692Q369 692 396 668T424 605Q423 596 422 587T415 569Q401 543 392 525T376 492T361 461T344 425Q332 400 317 371T289 310T266 249T256 194Q256 167 269
161T308 154Q350 154 397 178T489 238T571 311T632 375L664 239Q613 187 560 140T452 57T340 0T227 -22Q147 -22 100 18T53 146Q53 192 66 236T97 321T135 401T169 475Q174 488 186 515T213 570Q229 603 247 640ZM427 919Q422 894 408 871T375 831T331 803T281
792Q244 792 223 812T201 867Q201 898 214 925T248 973T296 1005T353 1017Q390 1017 409 997T429 942Q429 937 429 931T427 919ZM730 919Q725 894 711 871T678 831T634 803T584 792Q547 792 526 812T504 867Q504 898 517 925T551 973T599 1005T656 1017Q693 1017
712 997T732 942Q732 937 732 931T730 919Z" />
<glyph unicode="&#xf0;" glyph-name="eth" horiz-adv-x="981" d="M749 278Q793 379 799 508Q754 562 694 594T574 626Q544 626 511 611T451 564T405 484T387 372Q387 328 398 288T431 216T483 165T553 146Q584 146 614 156T670 183T716 225T749 278ZM1044 1044Q1061
1044 1071 1030T1081 996Q1081 971 1062 949T999 926H936Q970 841 985 759T1000 597Q1000 512 985 437T943 298Q913 228 866 169T760 67T635 -1T501 -26Q427 -26 368 -2T268 66T205 168T182 299Q182 347 193 399T228 506Q259 579 299 630T385 713T479 761T575 776Q635
776 691 762T794 721Q786 757 771 810T720 926H548Q531 926 523 938T514 967Q514 980 519 993T536 1018T566 1036T610 1044H638Q627 1057 610 1073T576 1107T547 1140T535 1169Q535 1189 547 1209T579 1245T621 1272T664 1282Q672 1282 680 1281T693 1272Q752 1218
797 1161T878 1044H1044Z" />
<glyph unicode="&#xf1;" glyph-name="ntilde" horiz-adv-x="951" d="M265 607Q285 650 315 671T374 692Q398 692 417 675T436 623Q436 610 433 595T422 563Q444 591 485 620T575 673T677 712T777 727Q830 727 865 702T901 615Q901 579 890 540T862 462T823 386T780
315T742 255T714 209Q701 193 701 172Q701 164 706 158T722 152Q729 152 738 153T760 164Q814 184 870 214T979 277T1074 344T1147 405Q1155 412 1163 415T1178 418Q1195 418 1204 405T1214 372Q1214 341 1195 303T1133 232Q1076 191 1029 157T932 94T826 39T693
-9Q667 -17 646 -21T606 -25Q553 -25 529 4T504 87Q504 94 504 100T506 115Q508 146 522 183T557 259T601 336T643 409T676 471T689 515Q689 530 681 540T655 551Q591 551 534 513T426 420T334 302T260 191Q240 158 224 121T189 51T149 -3T92 -25Q57 -25 37 -3T17
51Q17 68 31 106T67 194T116 301T171 415T224 522T265 607ZM1212 986Q1194 948 1174 916T1130 859T1078 821T1015 807Q1009 807 1003 807T991 809Q979 810 954 819T900 840T840 862T786 877Q784 877 782 877T778 878Q769 878 763 874T753 863T745 849T739 837Q727
814 702 804T655 794Q632 794 615 803T598 827Q598 834 600 837Q618 876 641 909T691 965T747 1001T806 1014Q826 1014 851 1004T904 981T961 959T1021 948Q1042 948 1057 958T1080 986Q1091 1012 1114 1023T1160 1035T1199 1025T1215 997V995Q1215 993 1214 992T1212
986Z" />
<glyph unicode="&#xf2;" glyph-name="ograve" horiz-adv-x="848" d="M519 551Q472 551 429 528T352 466T298 379T278 279Q278 260 281 238T293 196T321 163T369 150Q415 150 458 174T536 238T590 328T610 429Q610 449 608 470T596 510T568 539T519 551ZM571 727Q609
727 652 717T733 683T794 620T819 522Q819 492 811 454T787 373Q797 361 810 356T838 351Q859 351 884 363T937 394T991 437T1042 485T1085 530T1118 567Q1125 574 1135 574Q1149 574 1160 560T1171 519T1156 459T1098 388Q1074 362 1043 328T977 264T904 213T828
192Q802 192 778 200T728 226Q692 170 646 124T544 45T422 -6T282 -25Q254 -25 217 -14T147 22T90 89T67 189Q67 229 80 285T119 400T186 518T283 623T411 698T571 727ZM782 942Q784 929 785 918T786 897Q786 860 771 843T736 826T695 843T659 894Q630 957 600
1019T541 1144Q529 1171 529 1196Q529 1220 538 1240T561 1275T594 1298T632 1307Q664 1307 693 1281T737 1192Q748 1129 759 1067T782 942Z" />
<glyph unicode="&#xf3;" glyph-name="oacute" horiz-adv-x="848" d="M519 551Q472 551 429 528T352 466T298 379T278 279Q278 260 281 238T293 196T321 163T369 150Q415 150 458 174T536 238T590 328T610 429Q610 449 608 470T596 510T568 539T519 551ZM571 727Q609
727 652 717T733 683T794 620T819 522Q819 492 811 454T787 373Q797 361 810 356T838 351Q859 351 884 363T937 394T991 437T1042 485T1085 530T1118 567Q1125 574 1135 574Q1149 574 1160 560T1171 519T1156 459T1098 388Q1074 362 1043 328T977 264T904 213T828
192Q802 192 778 200T728 226Q692 170 646 124T544 45T422 -6T282 -25Q254 -25 217 -14T147 22T90 89T67 189Q67 229 80 285T119 400T186 518T283 623T411 698T571 727ZM635 942Q671 1005 707 1067T779 1192Q817 1255 857 1281T929 1307Q959 1307 978 1288T997
1238Q997 1218 988 1194T956 1144Q902 1081 848 1019T739 894Q713 860 684 843T635 826Q604 826 604 858Q604 887 635 942Z" />
<glyph unicode="&#xf4;" glyph-name="ocircumflex" horiz-adv-x="848" d="M519 551Q472 551 429 528T352 466T298 379T278 279Q278 260 281 238T293 196T321 163T369 150Q415 150 458 174T536 238T590 328T610 429Q610 449 608 470T596 510T568 539T519 551ZM571
727Q609 727 652 717T733 683T794 620T819 522Q819 492 811 454T787 373Q797 361 810 356T838 351Q859 351 884 363T937 394T991 437T1042 485T1085 530T1118 567Q1125 574 1135 574Q1149 574 1160 560T1171 519T1156 459T1098 388Q1074 362 1043 328T977 264T904
213T828 192Q802 192 778 200T728 226Q692 170 646 124T544 45T422 -6T282 -25Q254 -25 217 -14T147 22T90 89T67 189Q67 229 80 285T119 400T186 518T283 623T411 698T571 727ZM420 901Q488 960 536 1002T617 1074T671 1120T707 1146T734 1158T760 1161Q787 1161
803 1148T837 1103T877 1017T942 880Q945 872 945 865Q945 853 938 844T918 827T891 816T861 812Q839 812 821 819T794 844Q787 860 775 887T751 941Q737 972 721 1005Q685 972 652 941Q624 915 595 888T548 844Q522 821 493 821Q476 821 461 825T433 837T414 855T407
875Q407 889 420 901Z" />
<glyph unicode="&#xf5;" glyph-name="otilde" horiz-adv-x="848" d="M519 551Q472 551 429 528T352 466T298 379T278 279Q278 260 281 238T293 196T321 163T369 150Q415 150 458 174T536 238T590 328T610 429Q610 449 608 470T596 510T568 539T519 551ZM571 727Q609
727 652 717T733 683T794 620T819 522Q819 492 811 454T787 373Q797 361 810 356T838 351Q859 351 884 363T937 394T991 437T1042 485T1085 530T1118 567Q1125 574 1135 574Q1149 574 1160 560T1171 519T1156 459T1098 388Q1074 362 1043 328T977 264T904 213T828
192Q802 192 778 200T728 226Q692 170 646 124T544 45T422 -6T282 -25Q254 -25 217 -14T147 22T90 89T67 189Q67 229 80 285T119 400T186 518T283 623T411 698T571 727ZM973 986Q955 948 935 916T891 859T839 821T776 807Q770 807 764 807T752 809Q740 810 715
819T661 840T601 862T547 877Q545 877 543 877T539 878Q530 878 524 874T514 863T506 849T500 837Q488 814 463 804T416 794Q393 794 376 803T359 827Q359 834 361 837Q379 876 402 909T452 965T508 1001T567 1014Q587 1014 612 1004T665 981T722 959T782 948Q803
948 818 958T841 986Q852 1012 875 1023T921 1035T960 1025T976 997V995Q976 993 975 992T973 986Z" />
<glyph unicode="&#xf6;" glyph-name="odieresis" horiz-adv-x="848" d="M519 551Q472 551 429 528T352 466T298 379T278 279Q278 260 281 238T293 196T321 163T369 150Q415 150 458 174T536 238T590 328T610 429Q610 449 608 470T596 510T568 539T519 551ZM571
727Q609 727 652 717T733 683T794 620T819 522Q819 492 811 454T787 373Q797 361 810 356T838 351Q859 351 884 363T937 394T991 437T1042 485T1085 530T1118 567Q1125 574 1135 574Q1149 574 1160 560T1171 519T1156 459T1098 388Q1074 362 1043 328T977 264T904
213T828 192Q802 192 778 200T728 226Q692 170 646 124T544 45T422 -6T282 -25Q254 -25 217 -14T147 22T90 89T67 189Q67 229 80 285T119 400T186 518T283 623T411 698T571 727ZM639 923Q634 898 620 875T587 835T543 807T493 796Q456 796 435 816T413 871Q413
902 426 929T460 977T508 1009T565 1021Q602 1021 621 1001T641 946Q641 941 641 935T639 923ZM942 923Q937 898 923 875T890 835T846 807T796 796Q759 796 738 816T716 871Q716 902 729 929T763 977T811 1009T868 1021Q905 1021 924 1001T944 946Q944 941 944
935T942 923Z" />
<glyph unicode="&#xf7;" glyph-name="divide" horiz-adv-x="815" d="M579 139Q573 108 558 80T520 31T470 -3T412 -16Q368 -16 342 12T316 82Q316 115 331 146T370 201T425 239T489 254Q534 254 557 230T581 164Q581 158 581 152T579 139ZM811 573Q806 544 790
517T751 470T700 438T641 426Q597 426 571 452T545 520Q545 553 560 584T600 639T656 677T721 692Q764 692 788 667T813 599Q813 593 813 587T811 573Z" />
<glyph unicode="&#xf8;" glyph-name="oslash" horiz-adv-x="848" d="M519 551Q472 551 429 528T352 466T298 379T278 279Q278 271 278 262T280 243L534 550Q530 550 527 550T519 551ZM603 490Q566 445 533 405T466 326T399 246T326 159Q342 150 369 150Q415 150
458 174T536 238T590 328T610 429Q610 444 609 460T603 490ZM571 727Q618 727 668 712L725 782Q735 793 747 799T770 805Q789 805 802 793T816 763Q816 757 812 749T808 736L752 669Q781 645 800 609T819 522Q819 492 811 454T787 373Q797 361 810 356T838 351Q864
351 894 364T957 398T1023 445T1085 497T1138 547T1178 587Q1185 594 1195 594Q1209 594 1220 580T1231 539T1216 479T1158 408Q1129 379 1092 342T1012 271T922 215T828 192Q802 192 778 200T728 226Q692 170 646 124T544 45T422 -6T282 -25Q262 -25 239 -20T190
-3L139 -64Q118 -89 95 -89Q77 -89 65 -77T52 -49Q52 -42 53 -36T62 -21L119 48Q96 74 82 108T67 189Q67 229 80 285T119 400T186 518T283 623T411 698T571 727Z" />
<glyph unicode="&#xf9;" glyph-name="ugrave" horiz-adv-x="928" d="M1194 239Q1150 189 1092 142T971 57T849 -2T741 -25T663 2T633 94Q633 140 649 201Q623 162 584 122T495 49T383 -4T248 -25Q215 -25 185 -18T131 6T94 51T80 123Q80 124 84 153T109 246T176
411T303 656Q324 694 351 710T411 727Q425 727 440 724T468 713T489 694T497 667Q497 657 494 648Q489 631 473 604T434 541T388 464T342 379T306 290T289 201Q289 183 299 168T332 153Q397 153 456 189T565 278T655 393T723 506Q742 540 756 579T788 651T827 706T882
728Q918 728 939 705T960 650Q960 632 947 601T913 529T868 442T824 349T790 256T776 171Q776 135 820 135Q851 135 897 153T993 203T1094 280T1184 375L1194 239ZM840 942Q842 929 843 918T844 897Q844 860 829 843T794 826T753 843T717 894Q688 957 658 1019T599
1144Q587 1171 587 1196Q587 1220 596 1240T619 1275T652 1298T690 1307Q722 1307 751 1281T795 1192Q806 1129 817 1067T840 942Z" />
<glyph unicode="&#xfa;" glyph-name="uacute" horiz-adv-x="928" d="M1194 239Q1150 189 1092 142T971 57T849 -2T741 -25T663 2T633 94Q633 140 649 201Q623 162 584 122T495 49T383 -4T248 -25Q215 -25 185 -18T131 6T94 51T80 123Q80 124 84 153T109 246T176
411T303 656Q324 694 351 710T411 727Q425 727 440 724T468 713T489 694T497 667Q497 657 494 648Q489 631 473 604T434 541T388 464T342 379T306 290T289 201Q289 183 299 168T332 153Q397 153 456 189T565 278T655 393T723 506Q742 540 756 579T788 651T827 706T882
728Q918 728 939 705T960 650Q960 632 947 601T913 529T868 442T824 349T790 256T776 171Q776 135 820 135Q851 135 897 153T993 203T1094 280T1184 375L1194 239ZM687 942Q723 1005 759 1067T831 1192Q869 1255 909 1281T981 1307Q1011 1307 1030 1288T1049 1238Q1049
1218 1040 1194T1008 1144Q954 1081 900 1019T791 894Q765 860 736 843T687 826Q656 826 656 858Q656 887 687 942Z" />
<glyph unicode="&#xfb;" glyph-name="ucircumflex" horiz-adv-x="928" d="M1194 239Q1150 189 1092 142T971 57T849 -2T741 -25T663 2T633 94Q633 140 649 201Q623 162 584 122T495 49T383 -4T248 -25Q215 -25 185 -18T131 6T94 51T80 123Q80 124 84 153T109 246T176
411T303 656Q324 694 351 710T411 727Q425 727 440 724T468 713T489 694T497 667Q497 657 494 648Q489 631 473 604T434 541T388 464T342 379T306 290T289 201Q289 183 299 168T332 153Q397 153 456 189T565 278T655 393T723 506Q742 540 756 579T788 651T827 706T882
728Q918 728 939 705T960 650Q960 632 947 601T913 529T868 442T824 349T790 256T776 171Q776 135 820 135Q851 135 897 153T993 203T1094 280T1184 375L1194 239ZM482 897Q550 956 598 998T679 1070T733 1116T769 1142T796 1154T822 1157Q849 1157 865 1144T899
1099T939 1013T1004 876Q1007 868 1007 861Q1007 849 1000 840T980 823T953 812T923 808Q901 808 883 815T856 840Q849 856 837 883T813 937Q799 968 783 1001Q747 968 714 937Q686 911 657 884T610 840Q584 817 555 817Q538 817 523 821T495 833T476 851T469 871Q469
885 482 897Z" />
<glyph unicode="&#xfc;" glyph-name="udieresis" horiz-adv-x="928" d="M1194 239Q1150 189 1092 142T971 57T849 -2T741 -25T663 2T633 94Q633 140 649 201Q623 162 584 122T495 49T383 -4T248 -25Q215 -25 185 -18T131 6T94 51T80 123Q80 124 84 153T109 246T176
411T303 656Q324 694 351 710T411 727Q425 727 440 724T468 713T489 694T497 667Q497 657 494 648Q489 631 473 604T434 541T388 464T342 379T306 290T289 201Q289 183 299 168T332 153Q397 153 456 189T565 278T655 393T723 506Q742 540 756 579T788 651T827 706T882
728Q918 728 939 705T960 650Q960 632 947 601T913 529T868 442T824 349T790 256T776 171Q776 135 820 135Q851 135 897 153T993 203T1094 280T1184 375L1194 239ZM711 919Q706 894 692 871T659 831T615 803T565 792Q528 792 507 812T485 867Q485 898 498 925T532
973T580 1005T637 1017Q674 1017 693 997T713 942Q713 937 713 931T711 919ZM1014 919Q1009 894 995 871T962 831T918 803T868 792Q831 792 810 812T788 867Q788 898 801 925T835 973T883 1005T940 1017Q977 1017 996 997T1016 942Q1016 937 1016 931T1014 919Z"
/>
<glyph unicode="&#xfd;" glyph-name="yacute" horiz-adv-x="896" d="M741 634Q769 656 788 667T822 684T847 691T871 692Q892 692 901 677T910 644Q910 630 905 618L681 151Q729 187 791 221T911 283T1010 328T1058 345Q1083 345 1102 326T1121 278Q1121 252 1102
223T1033 167Q963 128 911 101T819 51T748 11T690 -26T636 -66T578 -117Q555 -177 533 -232T492 -329T461 -397T448 -425Q367 -593 270 -593Q230 -593 205 -567T180 -495Q180 -453 190 -412T227 -320T297 -209T407 -64L607 341Q457 163 335 69T107 -25Q73 -25 49
-10T25 42Q25 92 49 155Q63 189 77 217T106 274T137 336T173 410T216 506T269 634Q289 673 321 690T383 708Q414 708 435 694T457 655Q457 643 453 634L270 253Q256 224 256 207Q256 192 268 192Q279 192 296 203T328 228L741 634ZM657 942Q693 1005 729 1067T801
1192Q839 1255 879 1281T951 1307Q981 1307 1000 1288T1019 1238Q1019 1218 1010 1194T978 1144Q924 1081 870 1019T761 894Q735 860 706 843T657 826Q626 826 626 858Q626 887 657 942Z" />
<glyph unicode="&#xfe;" glyph-name="thorn" horiz-adv-x="980" d="M684 561Q627 561 570 534T468 461T393 360T364 245Q364 229 367 213T379 182T407 159T455 150Q513 150 567 177T665 250T734 351T760 465Q760 480 758 497T747 528T724 551T684 561ZM-63 -164Q-21
-76 24 20T116 216T209 414T297 607L589 1256Q595 1269 606 1281T633 1302T665 1317T701 1323Q747 1323 765 1305T784 1261Q784 1241 774 1218T752 1174Q678 1032 612 886T472 596Q504 621 540 644T615 686T696 716T782 728Q813 728 845 716T903 681T946 625T963
547Q963 537 957 507T940 440T912 363T875 293Q882 282 893 280T918 277Q964 277 1009 289T1095 318T1170 355T1227 388Q1239 401 1253 401Q1270 401 1282 386T1295 347Q1295 324 1286 302T1251 252Q1206 225 1161 201T1068 160T973 132T874 121Q842 121 815 130T768
158Q683 56 588 9T381 -39Q324 -39 284 -24T218 17L100 -246Q94 -259 83 -271T56 -292T24 -307T-12 -313Q-58 -313 -76 -295T-95 -251Q-95 -231 -84 -208T-63 -164Z" />
<glyph unicode="&#xff;" glyph-name="ydieresis" horiz-adv-x="896" d="M741 634Q769 656 788 667T822 684T847 691T871 692Q892 692 901 677T910 644Q910 630 905 618L681 151Q729 187 791 221T911 283T1010 328T1058 345Q1083 345 1102 326T1121 278Q1121 252
1102 223T1033 167Q963 128 911 101T819 51T748 11T690 -26T636 -66T578 -117Q555 -177 533 -232T492 -329T461 -397T448 -425Q367 -593 270 -593Q230 -593 205 -567T180 -495Q180 -453 190 -412T227 -320T297 -209T407 -64L607 341Q457 163 335 69T107 -25Q73
-25 49 -10T25 42Q25 92 49 155Q63 189 77 217T106 274T137 336T173 410T216 506T269 634Q289 673 321 690T383 708Q414 708 435 694T457 655Q457 643 453 634L270 253Q256 224 256 207Q256 192 268 192Q279 192 296 203T328 228L741 634ZM701 930Q696 905 682
882T649 842T605 814T555 803Q518 803 497 823T475 878Q475 909 488 936T522 984T570 1016T627 1028Q664 1028 683 1008T703 953Q703 948 703 942T701 930ZM1004 930Q999 905 985 882T952 842T908 814T858 803Q821 803 800 823T778 878Q778 909 791 936T825 984T873
1016T930 1028Q967 1028 986 1008T1006 953Q1006 948 1006 942T1004 930Z" />
<glyph unicode="&#x2013;" glyph-name="endash" horiz-adv-x="889" d="M297 699H767V555H297V699Z" />
<glyph unicode="&#x2014;" glyph-name="emdash" horiz-adv-x="1406" d="M345 699H1285V555H345V699Z" />
<glyph unicode="&#x2018;" glyph-name="quoteleft" horiz-adv-x="529" d="M370 961Q410 1019 448 1073T523 1179T599 1285T677 1398Q693 1421 710 1431T743 1441T769 1433T779 1412Q779 1405 776 1398Q754 1339 735 1286T696 1180T658 1073T616 961Q609 940 593
925T556 900T511 885T464 880Q443 880 425 883T392 894T370 911T361 934Q361 946 370 961Z" />
<glyph unicode="&#x2019;" glyph-name="quoteright" horiz-adv-x="612" d="M796 1368Q755 1309 718 1256T643 1150T567 1043T489 931Q473 908 456 898T423 888T397 896T387 917Q387 923 390 931Q412 989 431 1043T470 1149T508 1255T550 1368Q557 1389 573 1404T610
1429T655 1444T702 1449Q723 1449 741 1446T774 1435T796 1418T805 1395Q805 1383 796 1368Z" />
<glyph unicode="&#x201a;" glyph-name="quotesinglbase" horiz-adv-x="872" d="M688 4Q647 -55 610 -108T535 -214T459 -321T381 -433Q365 -456 348 -466T315 -476T289 -468T279 -447Q279 -441 282 -433Q304 -375 323 -321T362 -215T400 -109T442 4Q449 25 465
40T502 65T547 80T594 85Q615 85 633 82T666 71T688 54T697 31Q697 19 688 4Z" />
<glyph unicode="&#x201c;" glyph-name="quotedblleft" horiz-adv-x="867" d="M328 961Q368 1019 406 1073T481 1179T557 1285T635 1398Q651 1421 668 1431T701 1441T727 1433T737 1412Q737 1405 734 1398Q712 1339 693 1286T654 1180T616 1073T574 961Q567 940
551 925T514 900T469 885T422 880Q401 880 383 883T350 894T328 911T319 934Q319 946 328 961ZM709 961Q749 1019 787 1073T862 1179T938 1285T1016 1398Q1032 1421 1049 1431T1082 1441T1108 1433T1118 1412Q1118 1405 1115 1398Q1093 1339 1074 1286T1035 1180T997
1073T955 961Q948 940 932 925T895 900T850 885T803 880Q782 880 764 883T731 894T709 911T700 934Q700 946 709 961Z" />
<glyph unicode="&#x201d;" glyph-name="quotedblright" horiz-adv-x="939" d="M755 1368Q714 1309 677 1256T602 1150T526 1043T448 931Q432 908 415 898T382 888T356 896T346 917Q346 923 349 931Q371 989 390 1043T429 1149T467 1255T509 1368Q516 1389 532
1404T569 1429T614 1444T661 1449Q682 1449 700 1446T733 1435T755 1418T764 1395Q764 1383 755 1368ZM1134 1368Q1093 1309 1056 1256T981 1150T905 1043T827 931Q811 908 794 898T761 888T735 896T725 917Q725 923 728 931Q750 989 769 1043T808 1149T846 1255T888
1368Q895 1389 911 1404T948 1429T993 1444T1040 1449Q1061 1449 1079 1446T1112 1435T1134 1418T1143 1395Q1143 1383 1134 1368Z" />
<glyph unicode="&#x201e;" glyph-name="quotedblbase" horiz-adv-x="1065" d="M507 4Q466 -55 429 -108T354 -214T278 -321T200 -433Q184 -456 167 -466T134 -476T108 -468T98 -447Q98 -441 101 -433Q123 -375 142 -321T181 -215T219 -109T261 4Q268 25 284 40T321
65T366 80T413 85Q434 85 452 82T485 71T507 54T516 31Q516 19 507 4ZM886 4Q845 -55 808 -108T733 -214T657 -321T579 -433Q563 -456 546 -466T513 -476T487 -468T477 -447Q477 -441 480 -433Q502 -375 521 -321T560 -215T598 -109T640 4Q647 25 663 40T700 65T745
80T792 85Q813 85 831 82T864 71T886 54T895 31Q895 19 886 4Z" />
<glyph unicode="&#x2022;" glyph-name="bullet" horiz-adv-x="1083" d="M660 358Q586 358 523 384T413 455T339 561T312 692T339 823T412 930T522 1002T660 1028Q733 1028 797 1002T907 931T981 824T1008 692T981 561T908 455T797 384T660 358Z" />
<glyph unicode="&#x2039;" glyph-name="guilsinglleft" horiz-adv-x="1060" d="M831 354Q737 407 658 453T520 535Q451 575 395 610Q362 630 362 665Q362 694 383 721T448 766Q553 812 649 853Q690 871 733 889T816 924T891 955T952 980Q965 985 974 985Q993 985
1003 969T1014 927Q1014 911 1013 895T1004 862T980 831T932 804Q915 796 892 787T844 768T791 747T738 726Q678 702 614 678Q614 678 614 678T614 678T614 678Q614 677 680 645Q747 613 893 535Q922 519 934 500T947 460Q947 439 938 419T914 384T882 359T850
349Q837 349 831 354Z" />
<glyph unicode="&#x203a;" glyph-name="guilsinglright" horiz-adv-x="1173" d="M560 354Q551 349 538 349Q516 349 501 368T485 416T506 477T587 535Q679 574 745 601T854 645T917 670L937 678L907 692Q877 706 836 726T752 768T681 804Q657 816 648 829T638
860Q638 880 646 902T668 942T698 973T729 985Q738 985 748 980Q769 970 797 956T857 924T923 889T989 853Q1065 812 1147 766Q1170 754 1181 738T1192 702Q1192 673 1173 649T1122 610Q1048 575 959 535Q883 500 781 454T560 354Z" />
</font>
</defs>
</svg>
