<?xml version="1.0" standalone="no"?>
<!DOCTYPE svg PUBLIC "-//W3C//DTD SVG 1.1//EN" "http://www.w3.org/Graphics/SVG/1.1/DTD/svg11.dtd">
<svg xmlns="http://www.w3.org/2000/svg">
<defs >
<font id="Heebo" horiz-adv-x="1116" ><font-face
    font-family="Heebo Black"
    units-per-em="2048"
    panose-1="0 0 10 0 0 0 0 0 0 0"
    ascent="2146"
    descent="-862"
    alphabetic="0" />
<glyph unicode=" " glyph-name="space" horiz-adv-x="510" />
<glyph unicode="!" glyph-name="exclam" horiz-adv-x="569" d="M152 476L105 1456H488L440 476H152ZM350 354T395 330T465 263T491 167Q491 114 466 72T395 5T293 -20Q236 -20 191 4T120 71T94 167Q94 220 119 262T190 329T293 354Q350 354 395 330Z" />
<glyph unicode="&quot;" glyph-name="quotedbl" horiz-adv-x="646" d="M206 949H9V1537H251V1397L206 949ZM569 949H373V1537H614V1397L569 949Z" />
<glyph unicode="#" glyph-name="numbersign" horiz-adv-x="1177" d="M864 846L826 604H1055V410H795L729 0H523L588 410H442L377 0H170L236 410H15V604H267L305 846H90V1040H336L403 1456H608L542 1040H689L756 1456H962L895 1040H1131V846H864ZM658 846H511L473
604H620L658 846Z" />
<glyph unicode="$" glyph-name="dollar" horiz-adv-x="1192" d="M810 809T901 753T1049 609T1106 390Q1106 275 1056 188T913 48T699 -17V-221H540V-17Q414 -4 310 50T143 211T79 478H438Q438 362 489 311T621 259Q684 259 715 296T747 388Q747 441 732 474T685
530T590 580Q423 652 333 706T188 845T132 1065Q132 1178 185 1267T336 1409T560 1474V1682H719V1470Q838 1452 928 1392T1067 1233T1116 1006H757Q757 1197 616 1197Q553 1197 522 1158T491 1062Q491 1021 505 992T552 938T648 883Q810 809 901 753Z" />
<glyph unicode="%" glyph-name="percent" horiz-adv-x="1524" d="M88 1260T125 1328T236 1437T415 1477Q523 1477 597 1437T707 1329T743 1176V1099Q743 1015 707 948T598 840T417 800Q311 800 237 840T125 947T88 1099V1176Q88 1260 125 1328ZM321 191L1032 1329L1196
1247L485 109L321 191ZM316 1057T342 1028T417 999Q465 999 490 1028T516 1099V1176Q516 1220 490 1249T415 1278Q368 1278 342 1249T316 1176V1099Q316 1057 342 1028ZM778 441T815 509T927 617T1106 657Q1214 657 1288 617T1398 510T1434 357V280Q1434 195 1398
128T1289 20T1108 -20Q1002 -20 928 20T816 128T778 280V357Q778 441 815 509ZM1005 240T1036 210T1108 179Q1169 179 1188 205T1207 280V357Q1207 400 1181 429T1106 458Q1058 458 1032 429T1005 357V280Q1005 240 1036 210Z" />
<glyph unicode="&amp;" glyph-name="ampersand" horiz-adv-x="1397" d="M959 0L895 72Q808 24 722 2T526 -21Q381 -21 273 31T107 176T49 390Q49 468 78 530T159 642T292 751L302 757Q241 846 211 921T181 1074Q181 1188 233 1280T380 1424T599 1477Q712 1477
800 1428T936 1297T984 1116Q984 1022 931 938T791 793L709 735L914 503Q972 614 972 744H1270Q1270 435 1133 254L1357 0H959ZM486 1040T503 1002T556 919L615 957Q669 991 684 1022T700 1084Q700 1124 672 1155T598 1187Q544 1187 515 1156T486 1077Q486 1040
503 1002ZM623 269T693 297L458 559L452 555Q430 526 420 496T409 420Q409 375 429 341T483 288T552 269Q623 269 693 297Z" />
<glyph unicode="&apos;" glyph-name="quotesingle" horiz-adv-x="309" d="M252 934H35V1536H287V1357L252 934Z" />
<glyph unicode="(" glyph-name="parenleft" horiz-adv-x="725" d="M119 851T188 1061T372 1407T618 1594L685 1417Q559 1327 479 1124T398 594V556Q398 230 478 27T685 -264L618 -444Q486 -393 372 -257T189 89T119 558V592Q119 851 188 1061Z" />
<glyph unicode=")" glyph-name="parenright" horiz-adv-x="722" d="M634 314T561 103T366 -251T108 -444L40 -264Q165 -172 246 29T327 556V594Q327 921 247 1122T40 1414L108 1594Q245 1544 366 1401T560 1047T634 592V558Q634 314 561 103Z" />
<glyph unicode="*" glyph-name="asterisk" horiz-adv-x="963" d="M27 1039L94 1237L416 1100L389 1456H611L582 1093L895 1227L963 1027L628 936L851 672L673 548L488 845L303 558L125 677L357 949L27 1039Z" />
<glyph unicode="+" glyph-name="plus" horiz-adv-x="1084" d="M1038 517H706V146H374V517H40V837H374V1206H706V837H1038V517Z" />
<glyph unicode="," glyph-name="comma" horiz-adv-x="575" d="M435 -96T376 -218T226 -421L47 -340Q54 -323 78 -275Q103 -226 118 -190T144 -105T155 6V263H437L435 30Q435 -96 376 -218Z" />
<glyph unicode="-" glyph-name="hyphen" horiz-adv-x="977" d="M170 486V777H789V486H170Z" />
<glyph unicode="." glyph-name="period" horiz-adv-x="630" d="M366 359T410 335T480 269T505 175Q505 122 480 80T411 14T309 -11Q252 -11 208 13T138 80T113 175Q113 227 138 269T207 335T309 359Q366 359 410 335Z" />
<glyph unicode="/" glyph-name="slash" horiz-adv-x="699" d="M-36 -125L445 1456H696L215 -125H-36Z" />
<glyph unicode="0" glyph-name="zero" horiz-adv-x="1192" d="M1111 391T1047 255T866 49T598 -20Q444 -20 328 49T147 254T82 586V867Q82 1063 146 1200T326 1406T596 1476Q748 1476 864 1406T1046 1199T1111 867V586Q1111 391 1047 255ZM752 1058T712 1122T596
1186Q519 1186 480 1123T440 912V543Q440 393 480 332T598 270Q673 270 712 332T752 543V912Q752 1058 712 1122Z" />
<glyph unicode="1" glyph-name="one" horiz-adv-x="1192" d="M493 0V1033L166 947V1227L820 1454H851V0H493Z" />
<glyph unicode="2" glyph-name="two" horiz-adv-x="1192" d="M86 0V244L552 725Q635 816 676 890T718 1014Q718 1103 681 1145T570 1187Q525 1187 490 1159T435 1083T415 977H55Q55 1113 122 1227T310 1409T580 1477Q825 1477 951 1366T1077 1045Q1077 943 1036
852T921 670T716 447L560 290H1110V0H86Z" />
<glyph unicode="3" glyph-name="three" horiz-adv-x="1192" d="M992 707T1055 622T1119 409Q1119 276 1047 179T849 31T563 -20Q434 -20 315 25T118 168T41 412H401Q401 374 425 342T490 290T576 270Q632 270 674 291T739 347T761 420Q761 519 712 562T568 605H398V788V883H568Q652
883 694 926T737 1050Q737 1084 719 1115T665 1167T576 1187Q539 1187 504 1175T447 1138T424 1083H65Q65 1206 134 1295T316 1430T563 1477Q722 1477 842 1429T1029 1287T1096 1060Q1096 959 1038 878T879 748Q992 707 1055 622Z" />
<glyph unicode="4" glyph-name="four" horiz-adv-x="1192" d="M1131 302H991V0H632V302H84L60 535L632 1450V1456H918H991V592H1131V302ZM632 592V969L610 931L398 592H632Z" />
<glyph unicode="5" glyph-name="five" horiz-adv-x="1192" d="M186 1456H1052V1170H477L445 908Q476 925 533 942T650 959Q869 959 985 834T1102 471Q1102 344 1046 232T874 50T591 -20Q458 -20 337 36T141 194T70 423H432Q435 355 478 313T589 270Q677 270 710
333T744 501Q744 604 698 656T548 709Q485 709 442 687T380 637L95 707L186 1456Z" />
<glyph unicode="6" glyph-name="six" horiz-adv-x="1192" d="M856 990T949 926T1091 748T1140 484Q1140 342 1073 227T888 46T623 -20Q467 -20 344 46T148 246T76 573V709Q76 961 186 1135T474 1396T852 1483H912V1189H893Q718 1189 595 1115T443 876Q495 928
567 959T728 990Q856 990 949 926ZM660 269T698 298T759 377T781 487Q781 592 730 647T598 703Q540 703 498 679T434 615V510Q434 385 477 327T613 269Q660 269 698 298Z" />
<glyph unicode="7" glyph-name="seven" horiz-adv-x="1192" d="M572 0H193L730 1166H48V1456H1107V1255L572 0Z" />
<glyph unicode="8" glyph-name="eight" horiz-adv-x="1192" d="M995 699T1052 610T1110 403Q1110 265 1045 170T865 28T598 -20Q447 -20 330 27T147 170T80 403Q80 521 139 610T303 751Q212 801 162 881T111 1064Q111 1196 172 1289T343 1429T595 1477Q739 1477
848 1430T1019 1289T1081 1064Q1081 961 1032 881T891 750Q995 699 1052 610ZM534 1187T503 1150T471 1042Q471 971 503 930T598 889Q660 889 691 930T723 1042Q723 1112 691 1149T595 1187Q534 1187 503 1150ZM666 270T708 315T750 436Q750 515 709 557T596 599Q525
599 483 557T440 436Q440 360 484 315T598 270Q666 270 708 315Z" />
<glyph unicode="9" glyph-name="nine" horiz-adv-x="1192" d="M732 1477T849 1411T1036 1211T1107 880V746Q1107 479 1001 306T719 54T330 -26H302V275H323Q503 275 611 333T742 544Q693 504 633 481T509 458Q378 458 281 516T130 686T77 952Q77 1094 144 1214T329
1406T592 1477Q732 1477 849 1411ZM660 725T694 745T749 798V952Q749 1074 709 1131T589 1188Q543 1188 508 1152T455 1060T436 949Q436 846 480 786T609 725Q660 725 694 745Z" />
<glyph unicode=":" glyph-name="colon" horiz-adv-x="631" d="M369 359T413 335T483 269T508 175Q508 122 483 80T414 14T312 -11Q255 -11 211 13T141 80T116 175Q116 227 141 269T210 335T312 359Q369 359 413 335ZM369 1134T413 1110T483 1044T508 950Q508 897
483 855T414 789T312 764Q255 764 211 788T141 855T116 950Q116 1002 141 1044T210 1110T312 1134Q369 1134 413 1110Z" />
<glyph unicode=";" glyph-name="semicolon" horiz-adv-x="613" d="M360 1134T404 1110T474 1044T499 950Q499 897 474 855T405 789T303 764Q246 764 202 788T132 855T107 950Q107 1002 132 1044T201 1110T303 1134Q360 1134 404 1110ZM462 -96T403 -218T253 -421L74
-340Q81 -323 105 -275Q130 -226 145 -190T171 -105T182 6V263H464L462 30Q462 -96 403 -218Z" />
<glyph unicode="&lt;" glyph-name="less" horiz-adv-x="1045" d="M938 770L400 600L938 433V96L42 451V711V750L938 1105V770Z" />
<glyph unicode="=" glyph-name="equal" horiz-adv-x="1212" d="M124 695V982H1065V695H124ZM124 249V536H1065V249H124Z" />
<glyph unicode="&gt;" glyph-name="greater" horiz-adv-x="1047" d="M990 749V488V449L107 95V432L631 601L107 766V1103L990 749Z" />
<glyph unicode="?" glyph-name="question" horiz-adv-x="1054" d="M342 610T372 701T478 849Q552 906 589 956T626 1058Q626 1127 597 1158T508 1189Q456 1189 422 1151T385 1034H25Q28 1262 159 1369T508 1476Q734 1476 860 1374T986 1076Q986 1003 962 948T898
851T786 742L747 707Q689 657 668 608T643 476H343Q342 610 372 701ZM552 361T597 337T667 270T692 175Q692 122 667 80T597 13T495 -12Q438 -12 393 12T322 79T296 175Q296 228 321 270T392 336T495 361Q552 361 597 337Z" />
<glyph unicode="@" glyph-name="at" horiz-adv-x="1835" d="M1215 1403T1394 1305T1666 1029T1759 617Q1759 583 1758 565Q1753 408 1703 276T1552 61T1302 -21Q1222 -21 1159 13T1059 109Q963 -16 796 -16Q708 -16 640 31T533 167T494 372Q494 394 498 442Q518
607 585 731T756 922T988 990Q1063 990 1118 975T1211 939T1307 879L1256 281Q1254 263 1254 256Q1254 210 1281 190T1349 169Q1402 169 1446 219T1517 356T1547 552Q1549 592 1549 610Q1549 794 1484 931T1287 1145T960 1221Q764 1221 616 1120T385 845T290 452Q289
431 289 390Q289 71 445 -87T895 -245Q978 -245 1069 -228T1226 -184L1264 -364Q1198 -407 1094 -430T891 -453Q490 -453 275 -241T60 392Q60 432 61 452Q73 726 187 942T501 1280T964 1403Q1215 1403 1394 1305ZM917 186T956 218T1025 340L1062 776Q1037 782 1007
782Q891 782 836 699T760 442Q758 421 758 384Q758 286 788 236T878 186Q917 186 956 218Z" />
<glyph unicode="A" glyph-name="A" horiz-adv-x="1402" d="M935 241H467L393 0H-8L523 1456H777H877L1411 0H1009L935 241ZM842 543L700 1003L559 543H842Z" />
<glyph unicode="B" glyph-name="B" horiz-adv-x="1328" d="M1140 707T1195 623T1250 434Q1250 0 693 0H245H102V1456H631Q912 1456 1066 1354T1220 1050Q1220 943 1173 860T1021 737Q1140 707 1195 623ZM475 1154V851H628Q749 851 798 885T847 995Q847 1080 796
1117T631 1154H475ZM789 301T833 340T878 441Q878 601 708 601H475V301H693Q789 301 833 340Z" />
<glyph unicode="C" glyph-name="C" horiz-adv-x="1346" d="M1290 346T1213 228T1000 45T686 -20Q490 -20 350 66T136 313T62 697V758Q62 978 138 1140T354 1390T678 1477Q866 1477 1001 1409T1210 1221T1298 943H926Q925 1061 868 1115T678 1170Q595 1170 544
1132T468 1004T442 760V697Q442 537 465 449T541 325T686 288Q801 288 862 339T924 502H1295Q1290 346 1213 228Z" />
<glyph unicode="D" glyph-name="D" horiz-adv-x="1322" d="M775 1456T929 1366T1171 1116T1259 755V700Q1259 499 1172 340T932 90T588 0H261H102V1456H475H579Q775 1456 929 1366ZM877 757Q877 953 801 1053T579 1154H475V301H588Q727 301 802 401T877 700V757Z" />
<glyph unicode="E" glyph-name="E" horiz-adv-x="1143" d="M475 1154V891H1016V601H475V301H1116V0H338H102V1456H475H1120V1154H475Z" />
<glyph unicode="F" glyph-name="F" horiz-adv-x="1119" d="M475 1154V864H1037V563H475V0H102V1456H475H1088V1154H475Z" />
<glyph unicode="G" glyph-name="G" horiz-adv-x="1397" d="M1267 129T1186 85T987 10T722 -20Q525 -20 380 62T156 305T77 690V765Q77 988 157 1149T380 1393T703 1477Q998 1477 1142 1342T1309 967H952Q937 1076 884 1126T717 1176Q597 1176 527 1074T456 767V690Q456
480 525 381T751 281Q818 281 865 295T937 330V528H706V792H1311V176Q1267 129 1186 85Z" />
<glyph unicode="H" glyph-name="H" horiz-adv-x="1436" d="M1333 1456V0H961V590H475V0H102V1456H475V891H961V1456H1333Z" />
<glyph unicode="I" glyph-name="I" horiz-adv-x="628" d="M128 0V1456H499V0H128Z" />
<glyph unicode="J" glyph-name="J" horiz-adv-x="1154" d="M1050 1456V467Q1050 324 983 213T800 41T543 -20Q391 -20 277 31T99 187T35 451H409Q409 383 423 346T466 295T543 281Q608 281 643 330T678 467V1456H1050Z" />
<glyph unicode="K" glyph-name="K" horiz-adv-x="1314" d="M865 809L1338 0H896L614 512L475 359V0H102V1456H475V833L593 1023L882 1456H1344L865 809Z" />
<glyph unicode="L" glyph-name="L" horiz-adv-x="1111" d="M1075 301V0H338H102V1456H475V301H1075Z" />
<glyph unicode="M" glyph-name="M" horiz-adv-x="1796" d="M1691 0H1317V275L1353 1015L1018 0H774L439 1015L476 275V0H102V1456H417H593L896 490L1199 1456H1691V0Z" />
<glyph unicode="N" glyph-name="N" horiz-adv-x="1435" d="M961 0L475 847V0H102V1456H475L960 610V1456H1332V0H961Z" />
<glyph unicode="O" glyph-name="O" horiz-adv-x="1414" d="M1351 482T1269 319T1041 68T708 -20Q518 -20 372 67T144 318T62 701V754Q62 973 143 1136T371 1388T706 1476Q893 1476 1039 1388T1268 1137T1351 754V701Q1351 482 1269 319ZM970 958T902 1064T706
1171Q443 1171 443 756V701Q443 499 509 392T708 284Q834 284 902 393T970 701V756Q970 958 902 1064Z" />
<glyph unicode="P" glyph-name="P" horiz-adv-x="1339" d="M861 1456T991 1391T1191 1210T1261 948Q1261 808 1191 700T992 532T689 472H475V0H102V1456H689Q861 1456 991 1391ZM787 775T835 821T883 946Q883 1036 834 1095T689 1154H475V775H689Q787 775 835 821Z" />
<glyph unicode="Q" glyph-name="Q" horiz-adv-x="1414" d="M1355 507T1290 356T1107 111L1333 -72L1104 -272L792 -16Q757 -20 712 -20Q523 -20 377 67T149 318T67 701V754Q67 973 148 1136T375 1388T710 1476Q897 1476 1043 1388T1272 1137T1355 754V701Q1355
507 1290 356ZM447 499T513 392T712 284Q838 284 906 393T975 701V756Q975 958 906 1064T710 1171Q447 1171 447 756V701Q447 499 513 392Z" />
<glyph unicode="R" glyph-name="R" horiz-adv-x="1349" d="M1293 16V0H893L648 492H475V0H102V1456H689Q859 1456 984 1406T1177 1256T1246 1016Q1246 848 1183 752T996 594L1293 16ZM475 795H689Q780 795 826 840T873 974Q873 1060 825 1107T689 1154H475V795Z" />
<glyph unicode="S" glyph-name="S" horiz-adv-x="1293" d="M457 637T350 695T175 845T106 1064Q106 1190 179 1283T383 1426T676 1476Q835 1476 959 1422T1153 1266T1224 1021H852Q852 1095 805 1138T667 1182Q607 1182 564 1165T499 1121T477 1060Q477 1005 540
966T735 884Q976 806 1099 690T1223 394Q1223 262 1156 169T967 28T680 -20Q519 -20 379 33T150 201T62 487H437Q437 406 463 359T543 293T680 273Q767 273 808 307T850 392Q850 435 832 464T762 523T605 587Q457 637 350 695Z" />
<glyph unicode="T" glyph-name="T" horiz-adv-x="1303" d="M1266 1154H832V0H458V1154H35V1456H832H1266V1154Z" />
<glyph unicode="U" glyph-name="U" horiz-adv-x="1367" d="M1261 515Q1261 345 1191 225T991 42T684 -20Q509 -20 378 42T174 225T101 515V1456H476V515Q476 392 528 337T684 281Q788 281 838 336T888 515V1456H1261V515Z" />
<glyph unicode="V" glyph-name="V" horiz-adv-x="1360" d="M1369 1456L886 0H617H471L-8 1456H407L679 430L951 1456H1369Z" />
<glyph unicode="W" glyph-name="W" horiz-adv-x="1775" d="M1750 1456L1448 0H1216H1057L881 790L710 0H513H319L16 1456H386L540 566L722 1456H898H1040L1227 563L1381 1456H1750Z" />
<glyph unicode="X" glyph-name="X" horiz-adv-x="1311" d="M877 1456H1302L903 734L1314 0H884L655 474L425 0H-4L406 734L7 1456H432L655 991L877 1456Z" />
<glyph unicode="Y" glyph-name="Y" horiz-adv-x="1295" d="M901 1456H1302L838 517V0H458V517L-7 1456H394L648 850L901 1456Z" />
<glyph unicode="Z" glyph-name="Z" horiz-adv-x="1253" d="M1209 0H144H64V195L733 1154H57V1456H1089H1206V1267L544 301H1209V0Z" />
<glyph unicode="[" glyph-name="bracketleft" horiz-adv-x="581" d="M463 1447V-90H570V-360H103V1719H570V1447H463Z" />
<glyph unicode="\" glyph-name="backslash" horiz-adv-x="878" d="M348 1456L956 -125H577L-30 1456H348Z" />
<glyph unicode="]" glyph-name="bracketright" horiz-adv-x="581" d="M482 1719V-360H15V-90H123V1447H15V1719H482Z" />
<glyph unicode="^" glyph-name="asciicircum" horiz-adv-x="926" d="M633 729L465 1177L297 729H32L331 1456H530H599L898 729H633Z" />
<glyph unicode="_" glyph-name="underscore" horiz-adv-x="901" d="M-2 -278V0H899V-278H-2Z" />
<glyph unicode="`" glyph-name="grave" horiz-adv-x="704" d="M341 1217L56 1536H430L630 1217H341Z" />
<glyph unicode="a" glyph-name="a" horiz-adv-x="1083" d="M1000 171T1011 117T1046 17V0H689Q672 35 659 93Q616 39 556 10T402 -20Q304 -20 220 21T86 136T36 306Q36 476 161 568T547 661H640V711Q640 776 613 810T524 844Q471 844 446 820T420 739H62Q62 846
121 928T289 1056T543 1102Q675 1102 778 1058T941 925T1000 709V284Q1000 171 1011 117ZM545 241T583 260T640 310V468H539Q461 468 428 425T394 321Q394 285 422 263T491 241Q545 241 583 260Z" />
<glyph unicode="b" glyph-name="b" horiz-adv-x="1153" d="M825 1102T919 1032T1059 839T1105 554V533Q1105 275 1001 128T685 -20Q525 -20 427 112L412 0H92V1536H450V998Q543 1102 683 1102Q825 1102 919 1032ZM746 678T715 746T593 814Q490 814 450 744V335Q470
300 505 284T595 267Q661 267 693 298T736 384T746 533V554Q746 678 715 746Z" />
<glyph unicode="c" glyph-name="c" horiz-adv-x="1063" d="M1017 399Q1018 272 959 177T795 31T557 -20Q392 -20 277 50T105 244T47 532V549Q47 712 104 837T276 1032T555 1102Q692 1102 797 1051T960 899T1017 656H681Q683 726 649 769T546 812Q486 812 456 779T415
691T405 549V532Q405 444 415 389T456 302T548 270Q615 270 649 303T681 399H1017Z" />
<glyph unicode="d" glyph-name="d" horiz-adv-x="1151" d="M1062 1536V0H740L722 120Q619 -20 464 -20Q329 -20 236 50T95 244T47 528V549Q47 716 94 840T235 1033T466 1102Q606 1102 702 988V1536H1062ZM606 268T643 289T702 349V730Q662 814 557 814Q405 814
405 549V528Q405 405 438 337T555 268Q606 268 643 289Z" />
<glyph unicode="e" glyph-name="e" horiz-adv-x="1119" d="M1083 421H426Q447 349 504 310T647 270Q719 270 783 294T893 372L1052 163Q1016 115 954 74T806 6T623 -20Q449 -20 320 52T124 244T56 506V543Q56 700 114 826T291 1027T585 1102Q737 1102 849 1039T1022
857T1083 574V421ZM738 812T582 812Q508 812 471 768T422 648H734V677Q738 812 582 812Z" />
<glyph unicode="f" glyph-name="f" horiz-adv-x="746" d="M520 1082H728V823H520V0H160V823H5V1082H160V1163Q160 1289 211 1377T358 1511T583 1557Q654 1557 746 1535L749 1260Q714 1269 668 1269Q597 1269 559 1242T520 1163V1082Z" />
<glyph unicode="g" glyph-name="g" horiz-adv-x="1183" d="M1091 1082V47Q1091 -102 1021 -208T824 -370T527 -426Q413 -426 302 -384T126 -272L273 -50Q377 -150 516 -150Q621 -150 676 -97T731 53V87Q637 -20 494 -20Q359 -20 259 50T104 245T50 528V549Q50
713 104 838T259 1033T496 1102Q663 1102 754 990L766 1082H1091ZM685 268T731 328V753Q686 814 587 814Q503 814 456 741T408 549V528Q408 412 454 340T585 268Q685 268 731 328Z" />
<glyph unicode="h" glyph-name="h" horiz-adv-x="1160" d="M880 1102T977 997T1074 661V0H714V663Q714 750 678 782T569 814Q478 814 438 766V0H80V1536H438V968Q489 1032 558 1067T709 1102Q880 1102 977 997Z" />
<glyph unicode="i" glyph-name="i" horiz-adv-x="572" d="M341 1540T386 1517T456 1453T482 1360Q482 1307 457 1266T387 1202T284 1179Q226 1179 181 1202T111 1266T85 1360Q85 1412 110 1453T181 1517T284 1540Q341 1540 386 1517ZM106 0V1082H466V0H106Z" />
<glyph unicode="j" glyph-name="j" horiz-adv-x="563" d="M346 1540T391 1517T461 1453T487 1360Q487 1307 462 1266T392 1202T289 1179Q231 1179 186 1202T116 1266T91 1360Q91 1412 116 1453T186 1517T289 1540Q346 1540 391 1517ZM476 -7Q476 -144 423 -240T272
-387T41 -437Q-8 -437 -45 -434T-126 -420V-136L-101 -139Q-53 -145 -29 -145Q42 -145 79 -110T116 -7V1082H476V-7Z" />
<glyph unicode="k" glyph-name="k" horiz-adv-x="1132" d="M541 386L450 297V0H91V1537H450V743L474 775L718 1082H1147L774 635L1168 0H759L541 386Z" />
<glyph unicode="l" glyph-name="l" horiz-adv-x="572" d="M106 0V1536H466V0H106Z" />
<glyph unicode="m" glyph-name="m" horiz-adv-x="1760" d="M1491 1102T1579 1003T1668 672V0H1308V671Q1308 730 1295 761T1258 803T1194 814Q1105 814 1059 738V722V0H700V669Q700 732 687 763T650 804T584 814Q543 814 509 794T450 736V0H92V1082H427L440 952Q494
1024 571 1063T748 1102Q949 1102 1020 939Q1072 1018 1151 1060T1334 1102Q1491 1102 1579 1003Z" />
<glyph unicode="n" glyph-name="n" horiz-adv-x="1159" d="M896 1102T985 1002T1074 672V0H714V673Q714 731 698 762T651 803T570 814Q482 814 440 754V0H81V1082H417L429 957Q484 1028 562 1065T736 1102Q896 1102 985 1002Z" />
<glyph unicode="o" glyph-name="o" horiz-adv-x="1147" d="M47 711T107 836T286 1031T572 1102Q741 1102 859 1032T1038 837T1099 551V530Q1099 369 1039 245T860 51T574 -20Q406 -20 287 50T108 245T47 530V551Q47 711 107 836ZM405 405T441 338T574 270Q667
270 704 338T741 530V551Q741 673 704 742T572 812Q479 812 442 742T405 551V530Q405 405 441 338Z" />
<glyph unicode="p" glyph-name="p" horiz-adv-x="1153" d="M819 1102T913 1035T1056 844T1105 555V534Q1105 374 1057 249T914 52T686 -20Q543 -20 450 89V-416H92V1082H427L438 984Q532 1102 684 1102Q819 1102 913 1035ZM747 555Q747 680 713 747T597 814Q541
814 505 796T450 741V347Q491 270 599 270Q681 270 714 340T747 534V555Z" />
<glyph unicode="q" glyph-name="q" horiz-adv-x="1148" d="M1062 1082V-416H702V91Q609 -20 463 -20Q330 -20 237 51T95 247T47 532V553Q47 719 95 842T237 1034T465 1102Q629 1102 727 962L753 1082H1062ZM663 270T702 345V738Q684 776 649 794T556 812Q474 812
440 745T405 553V532Q405 409 438 340T554 270Q663 270 702 345Z" />
<glyph unicode="r" glyph-name="r" horiz-adv-x="789" d="M732 1102T769 1091L763 739L735 741Q677 747 649 747Q569 747 521 726T450 659V0H92V1082H426L438 939Q478 1018 538 1060T674 1102Q732 1102 769 1091Z" />
<glyph unicode="s" glyph-name="s" horiz-adv-x="1048" d="M268 450T164 533T60 753Q60 848 113 927T269 1054T511 1102Q657 1102 766 1058T935 934T994 746H635Q635 808 608 834T510 861Q464 861 431 838T397 774Q397 695 568 668Q690 649 781 613T931 504T990
317Q990 221 931 145T763 24T510 -20Q360 -20 251 34T84 174T26 349H359Q361 286 403 254T520 222Q581 222 613 245T646 309Q646 333 628 349T566 380T439 413Q268 450 164 533Z" />
<glyph unicode="t" glyph-name="t" horiz-adv-x="708" d="M669 273T693 277V11Q604 -20 496 -20Q321 -20 232 63T142 323V823H14V1082H142V1354H501V1082H675V823H501V378Q501 337 510 315T542 283T609 273Q669 273 693 277Z" />
<glyph unicode="u" glyph-name="u" horiz-adv-x="1160" d="M1076 1082V0H741L730 119Q679 52 607 16T445 -20Q276 -20 179 78T82 382V1082H441V380Q441 328 473 298T568 268Q675 268 716 338V1082H1076Z" />
<glyph unicode="v" glyph-name="v" horiz-adv-x="1068" d="M1068 1082L719 0H496H346L-2 1082H378L532 432L689 1082H1068Z" />
<glyph unicode="w" glyph-name="w" horiz-adv-x="1480" d="M1456 1082L1211 0H994H906L740 589L570 0H393H266L20 1082H362L454 469L614 1082H838H861L1018 488L1114 1082H1456Z" />
<glyph unicode="x" glyph-name="x" horiz-adv-x="1060" d="M684 1082H1052L778 557L1067 0H695L536 297L380 0H8L297 557L24 1082H397L538 811L684 1082Z" />
<glyph unicode="y" glyph-name="y" horiz-adv-x="1076" d="M1088 1082L653 -160Q627 -235 591 -293T481 -394T290 -437Q240 -437 220 -434T145 -416V-150L189 -149Q262 -149 295 -131T342 -79L368 -14L-9 1082H375L535 506L704 1082H1088Z" />
<glyph unicode="z" glyph-name="z" horiz-adv-x="1060" d="M991 290V0H144H63V201L514 792H86V1082H869H983V887L531 290H991Z" />
<glyph unicode="{" glyph-name="braceleft" horiz-adv-x="661" d="M498 -1T525 -70T619 -166L552 -360Q358 -306 275 -186T192 106V309Q192 396 154 445T37 494V672V743Q116 743 154 792T192 929V1132Q192 1303 275 1423T552 1597L619 1404Q552 1377 525 1308T498
1132V929Q498 826 452 746T310 619Q405 573 451 493T498 309V106Q498 -1 525 -70Z" />
<glyph unicode="|" glyph-name="bar" horiz-adv-x="526" d="M172 -270V1456H360V-270H172Z" />
<glyph unicode="}" glyph-name="braceright" horiz-adv-x="661" d="M471 841T509 792T626 743V564V494Q547 494 509 445T471 309V106Q471 -65 388 -185T111 -360L44 -166Q111 -139 138 -70T165 106V309Q165 412 210 492T350 619Q256 665 211 745T165 929V1132Q165
1239 138 1308T44 1404L111 1597Q305 1543 388 1423T471 1132V929Q471 841 509 792Z" />
<glyph unicode="~" glyph-name="asciitilde" horiz-adv-x="1281" d="M1187 664T1145 563T1027 410T852 357Q776 357 716 386T588 485Q550 523 517 541T448 559Q417 559 392 537T352 477T337 396L89 402Q89 544 130 643T247 794T422 845Q497 845 562 815T690 719Q762
645 826 645Q873 645 903 692T934 806L1187 805Q1187 664 1145 563Z" />
<glyph unicode="&#xa1;" glyph-name="exclamdown" horiz-adv-x="632" d="M262 729T217 753T146 820T121 915Q121 968 146 1010T216 1077T319 1102Q376 1102 421 1078T491 1011T517 915Q517 862 492 820T421 754T319 729Q262 729 217 753ZM459 605L507 -375H124L171
605H459Z" />
<glyph unicode="&#xa2;" glyph-name="cent" horiz-adv-x="1223" d="M1069 399Q1070 289 1026 203T902 63T716 -11V-245H516V-14Q380 5 287 79T146 269T98 532V549Q98 696 145 813T286 1003T516 1096V1318H716V1093Q824 1074 904 1018T1027 870T1069 656H733Q735
726 701 769T597 812Q538 812 508 779T467 691T457 549V532Q457 444 466 389T507 302T600 270Q667 270 701 303T733 399H1069Z" />
<glyph unicode="&#xa3;" glyph-name="sterling" horiz-adv-x="1235" d="M1182 301V0H108V301H216Q244 308 255 324T269 363T272 432L269 544H105V833H260L254 1039Q254 1175 309 1273T467 1423T708 1475Q862 1475 971 1421T1136 1268T1192 1036H843Q843 1111 811
1142T721 1174Q626 1174 626 1039L635 833H941V544H648L652 461Q652 410 641 371T603 301H1182Z" />
<glyph unicode="&#xa4;" glyph-name="currency" horiz-adv-x="1388" d="M1289 512T1264 424T1191 259L1330 118L1188 -27L1056 108Q980 46 888 13T695 -20Q594 -20 502 12T334 106L205 -26L64 118L199 256Q151 332 125 421T99 608Q99 710 127 802T208 973L64 1120L205
1264L347 1119Q422 1175 510 1204T695 1234Q791 1234 880 1204T1044 1117L1188 1265L1330 1120L1182 970Q1233 893 1261 801T1289 608Q1289 512 1264 424ZM807 176T900 233T1049 388T1104 608Q1104 729 1049 827T901 982T695 1039Q582 1039 488 983T340 828T285
608Q285 487 339 388T488 233T695 176Q807 176 900 233Z" />
<glyph unicode="&#xa5;" glyph-name="yen" horiz-adv-x="1113" d="M809 742H1004V534H739V452H1004V245H739V0H367V245H65V452H367V534H65V742H305L9 1456H386L557 966L727 1456H1103L809 742Z" />
<glyph unicode="&#xa6;" glyph-name="brokenbar" horiz-adv-x="528" d="M115 698V1456H422V698H115ZM115 525H422V-270H115V525Z" />
<glyph unicode="&#xa7;" glyph-name="section" horiz-adv-x="1308" d="M1124 200T1157 129T1191 -41Q1191 -163 1125 -248T938 -376T654 -420Q413 -420 255 -326T96 -13L454 -14Q454 -63 481 -88T550 -120T654 -128Q744 -128 788 -108T832 -42Q832 -11 810 12T735
57T582 105Q419 147 314 199T151 329T94 521Q94 610 133 678T246 792Q177 844 142 915T107 1084Q107 1202 173 1290T362 1427T646 1476Q813 1476 933 1427T1119 1283T1184 1053H825Q825 1113 779 1149T646 1186Q554 1186 510 1159T466 1086Q466 1050 485 1027T556
984T713 938Q877 898 984 846T1147 714T1203 521Q1203 344 1056 252Q1124 200 1157 129ZM453 530T472 504T541 456T699 400Q764 383 807 369Q851 408 851 472Q851 509 828 536T751 588T596 642Q531 661 490 675Q453 638 453 573Q453 530 472 504Z" />
<glyph unicode="&#xa8;" glyph-name="dieresis" horiz-adv-x="1038" d="M827 1505T863 1487T920 1436T942 1365Q942 1326 921 1294T863 1244T785 1225Q743 1225 708 1243T651 1294T629 1365Q629 1404 650 1436T707 1486T785 1505Q827 1505 863 1487ZM294 1504T330
1486T387 1435T409 1364Q409 1325 388 1293T330 1243T252 1224Q210 1224 175 1242T118 1293T96 1364Q96 1403 117 1435T174 1485T252 1504Q294 1504 330 1486Z" />
<glyph unicode="&#xa9;" glyph-name="copyright" horiz-adv-x="1610" d="M988 1476T1151 1378T1410 1108T1506 729Q1506 522 1411 350T1152 79T795 -20Q601 -20 439 79T181 349T85 729Q85 937 180 1108T438 1377T795 1476Q988 1476 1151 1378ZM955 105T1089 187T1303
413T1382 729Q1382 902 1303 1044T1090 1269T795 1351Q634 1351 500 1269T286 1045T207 729Q207 556 286 413T500 188T795 105Q955 105 1089 187ZM1116 442T1028 362T781 282Q675 282 596 330T475 466T432 669V788Q432 902 474 990T596 1126T781 1175Q939 1175
1028 1095T1117 861H961Q961 955 917 997T781 1040Q688 1040 638 972T588 789V669Q588 554 637 486T781 417Q872 417 916 459T960 596H1116Q1116 442 1028 362Z" />
<glyph unicode="&#xaa;" glyph-name="ordfeminine" horiz-adv-x="902" d="M599 705Q588 739 582 773Q548 736 498 714T381 691Q263 691 198 752T132 919Q132 1031 217 1090T473 1150H575V1201Q575 1263 546 1295T459 1328Q394 1328 358 1303T321 1229L148 1243Q148
1310 186 1363T296 1446T459 1476Q593 1476 671 1405T750 1200V886Q750 784 776 705H599ZM307 881T336 858T424 835Q462 835 504 853T575 897V1033H474Q392 1033 350 1002T307 923Q307 881 336 858Z" />
<glyph unicode="&#xab;" glyph-name="guillemotleft" horiz-adv-x="1067" d="M572 505L800 106H585L316 496V509V515L585 905H800L572 505ZM741 505L969 106H754L485 496V509V515L754 905H969L741 505Z" />
<glyph unicode="&#xac;" glyph-name="logicalnot" horiz-adv-x="1122" d="M960 805V634V374H760V634H125V805H960Z" />
<glyph unicode="&#xad;" glyph-name="uni00AD" horiz-adv-x="600" d="M170 486V777H789V486H170Z" />
<glyph unicode="&#xae;" glyph-name="registered" horiz-adv-x="1610" d="M988 1476T1151 1378T1410 1108T1506 729Q1506 522 1411 350T1152 79T795 -20Q601 -20 439 79T181 349T85 729Q85 937 180 1108T438 1377T795 1476Q988 1476 1151 1378ZM955 105T1089 187T1303
413T1382 729Q1382 902 1303 1044T1090 1269T795 1351Q634 1351 500 1269T286 1045T207 729Q207 556 286 413T500 188T795 105Q955 105 1089 187ZM1103 459Q1103 371 1120 332V316H965Q952 350 952 460V514Q952 586 919 619T809 653H651V316H500V1166H781Q932 1166
1019 1097T1106 900Q1106 793 1004 734Q1103 674 1103 515V459ZM852 786T904 816T956 903Q956 952 940 980T885 1020T781 1033H651V787H775Q852 786 904 816Z" />
<glyph unicode="&#xaf;" glyph-name="overscore" horiz-adv-x="1083" d="M187 1282V1462H883V1282H187Z" />
<glyph unicode="&#xb0;" glyph-name="degree" horiz-adv-x="822" d="M485 1476T549 1437T651 1332T689 1189Q689 1112 652 1047T550 944T410 906Q333 906 268 944T164 1047T125 1189Q125 1266 163 1332T267 1437T410 1476Q485 1476 549 1437ZM461 1065T495 1100T530
1189Q530 1243 496 1280T410 1317Q376 1317 347 1300T301 1254T283 1189Q283 1154 300 1126T347 1082T410 1065Q461 1065 495 1100Z" />
<glyph unicode="&#xb1;" glyph-name="plusminus" horiz-adv-x="1104" d="M998 1009V704H693V375H382V704H82V1009H382V1301H693V1009H998ZM95 296H981V1H95V296Z" />
<glyph unicode="&#xb2;" glyph-name="uni00B2" horiz-adv-x="770" d="M68 667V824L353 1072Q396 1108 422 1150T449 1213Q449 1280 370 1280Q330 1280 307 1252T284 1185H50Q50 1262 88 1327T196 1430T357 1468Q514 1468 598 1403T682 1212Q682 1151 659 1104T586
1012T446 901L379 854H699V667H68Z" />
<glyph unicode="&#xb3;" glyph-name="uni00B3" horiz-adv-x="770" d="M633 1054T672 1011T712 889Q712 817 667 764T542 684T364 656Q283 656 210 681T88 764T39 913H274Q274 887 304 866T382 844Q432 844 455 866T478 918Q478 960 451 978T371 996H279V1088V1145H371Q417
1145 440 1164T463 1220Q463 1242 442 1261T372 1280Q337 1280 313 1270T288 1240H55Q55 1315 98 1366T211 1442T364 1468Q515 1468 605 1409T696 1241Q696 1180 660 1138T562 1072Q633 1054 672 1011Z" />
<glyph unicode="&#xb4;" glyph-name="acute" horiz-adv-x="697" d="M657 1536L378 1217H85L283 1536H657Z" />
<glyph unicode="&#xb6;" glyph-name="paragraph" horiz-adv-x="1000" d="M660 520H577Q422 520 311 580T143 746T85 988Q85 1123 142 1229T311 1395T577 1456H893V0H660V520Z" />
<glyph unicode="&#xb7;" glyph-name="middot" horiz-adv-x="676" d="M390 856T435 832T505 766T530 671Q530 619 505 577T435 510T334 486Q278 486 233 510T163 576T138 671Q138 723 163 765T233 832T334 856Q390 856 435 832Z" />
<glyph unicode="&#xb8;" glyph-name="cedilla" horiz-adv-x="579" d="M376 -51Q440 -62 483 -103T526 -224Q526 -303 482 -361T352 -451T141 -483L134 -275Q170 -275 191 -258T212 -203Q212 -169 182 -155T81 -136L112 13H386L376 -51Z" />
<glyph unicode="&#xb9;" glyph-name="uni00B9" horiz-adv-x="770" d="M317 667V1183L147 1152V1329L530 1452H549V667H317Z" />
<glyph unicode="&#xba;" glyph-name="ordmasculine" horiz-adv-x="939" d="M117 1224T159 1304T280 1430T463 1476Q569 1476 647 1431T768 1305T810 1121V1044Q810 941 768 861T648 735T465 690Q360 690 281 735T160 860T117 1044V1121Q117 1224 159 1304ZM292
951T336 894T465 836Q548 836 591 893T635 1044V1121Q635 1213 591 1270T463 1328Q380 1328 336 1271T292 1121V1044Q292 951 336 894Z" />
<glyph unicode="&#xbb;" glyph-name="guillemotright" horiz-adv-x="1067" d="M814 513V500V494L545 104H330L558 504L330 903H545L814 513ZM980 513V500V494L711 104H496L724 504L496 903H711L980 513Z" />
<glyph unicode="&#xbf;" glyph-name="questiondown" horiz-adv-x="1054" d="M525 730T480 754T409 821T384 916Q384 969 409 1011T479 1078T582 1103Q639 1103 684 1079T754 1012T780 916Q780 863 755 821T684 755T582 730Q525 730 480 754ZM721 477T695 391T593
249Q536 200 504 166T453 95T434 14Q434 -44 463 -71T540 -98Q666 -98 672 55H1032Q1029 -172 898 -278T549 -385Q325 -385 200 -282T74 16Q74 88 100 145T168 246T287 360L329 398Q368 432 387 460T412 522T420 615H721Q721 477 695 391Z" />
<glyph unicode="&#xc0;" glyph-name="Agrave" horiz-adv-x="1402" d="M935 241H467L393 0H-8L523 1456H777H877L1411 0H1009L935 241ZM842 543L700 1003L559 543H842ZM622 1527L337 1846H711L911 1527H622Z" />
<glyph unicode="&#xc1;" glyph-name="Aacute" horiz-adv-x="1402" d="M935 241H467L393 0H-8L523 1456H777H877L1411 0H1009L935 241ZM842 543L700 1003L559 543H842ZM1095 1846L817 1527H524L722 1846H1095Z" />
<glyph unicode="&#xc2;" glyph-name="Acircumflex" horiz-adv-x="1402" d="M935 241H467L393 0H-8L523 1456H777H877L1411 0H1009L935 241ZM842 543L700 1003L559 543H842ZM1146 1549H865L703 1676L542 1549H267V1568L601 1845H806L1146 1563V1549Z" />
<glyph unicode="&#xc3;" glyph-name="Atilde" horiz-adv-x="1402" d="M935 241H467L393 0H-8L523 1456H777H877L1411 0H1009L935 241ZM842 543L700 1003L559 543H842ZM1092 1771T1063 1707T980 1603T859 1563Q816 1563 782 1574T705 1607Q664 1627 638 1636T579
1645Q546 1645 526 1625T506 1561L310 1571Q310 1641 340 1705T423 1810T542 1850Q576 1850 607 1840T687 1809Q729 1790 759 1780T822 1770Q856 1770 877 1790T898 1854L1092 1844Q1092 1771 1063 1707Z" />
<glyph unicode="&#xc4;" glyph-name="Adieresis" horiz-adv-x="1402" d="M935 241H467L393 0H-8L523 1456H777H877L1411 0H1009L935 241ZM842 543L700 1003L559 543H842ZM1008 1815T1044 1797T1101 1746T1123 1675Q1123 1636 1102 1604T1044 1554T966 1535Q924
1535 889 1553T832 1604T810 1675Q810 1714 831 1746T888 1796T966 1815Q1008 1815 1044 1797ZM475 1814T511 1796T568 1745T590 1674Q590 1635 569 1603T511 1553T433 1534Q391 1534 356 1552T299 1603T277 1674Q277 1713 298 1745T355 1795T433 1814Q475 1814
511 1796Z" />
<glyph unicode="&#xc5;" glyph-name="Aring" horiz-adv-x="1402" d="M935 241H467L393 0H-8L523 1456H777H877L1411 0H1009L935 241ZM842 543L700 1003L559 543H842ZM769 1929T821 1902T902 1828T931 1728Q931 1674 902 1629T822 1558T705 1531Q641 1531 590 1557T509
1629T480 1728Q480 1782 509 1828T589 1901T705 1929Q769 1929 821 1902ZM752 1627T779 1655T807 1728Q807 1772 780 1801T705 1830Q658 1830 631 1801T604 1728Q604 1683 631 1655T705 1627Q752 1627 779 1655Z" />
<glyph unicode="&#xc6;" glyph-name="AE" horiz-adv-x="1926" d="M1845 295V0H1114H949L935 324H579L435 0H22L734 1456H960H1246H1785V1161H1258L1270 887H1704V592H1282L1295 295H1845ZM923 619L904 1055L710 619H923Z" />
<glyph unicode="&#xc7;" glyph-name="Ccedilla" horiz-adv-x="1346" d="M801 288T862 339T924 502H1295Q1291 367 1233 260T1069 83T824 -9L818 -48Q882 -59 925 -100T968 -221Q968 -300 924 -358T794 -448T583 -480L576 -272Q612 -272 633 -255T654 -200Q654
-166 624 -152T523 -133L549 -8Q394 20 285 112T119 353T62 697V758Q62 978 138 1140T354 1390T678 1477Q866 1477 1001 1409T1210 1221T1298 943H926Q925 1061 868 1115T678 1170Q595 1170 544 1132T468 1004T442 760V697Q442 537 465 449T541 325T686 288Q801
288 862 339Z" />
<glyph unicode="&#xc8;" glyph-name="Egrave" horiz-adv-x="1143" d="M475 1154V891H1016V601H475V301H1116V0H338H102V1456H475H1120V1154H475ZM567 1523L282 1842H656L856 1523H567Z" />
<glyph unicode="&#xc9;" glyph-name="Eacute" horiz-adv-x="1143" d="M475 1154V891H1016V601H475V301H1116V0H338H102V1456H475H1120V1154H475ZM1040 1842L762 1523H469L667 1842H1040Z" />
<glyph unicode="&#xca;" glyph-name="Ecircumflex" horiz-adv-x="1143" d="M475 1154V891H1016V601H475V301H1116V0H338H102V1456H475H1120V1154H475ZM1091 1545H810L648 1672L487 1545H212V1564L546 1841H751L1091 1559V1545Z" />
<glyph unicode="&#xcb;" glyph-name="Edieresis" horiz-adv-x="1143" d="M475 1154V891H1016V601H475V301H1116V0H338H102V1456H475H1120V1154H475ZM953 1811T989 1793T1046 1742T1068 1671Q1068 1632 1047 1600T989 1550T911 1531Q869 1531 834 1549T777 1600T755
1671Q755 1710 776 1742T833 1792T911 1811Q953 1811 989 1793ZM420 1810T456 1792T513 1741T535 1670Q535 1631 514 1599T456 1549T378 1530Q336 1530 301 1548T244 1599T222 1670Q222 1709 243 1741T300 1791T378 1810Q420 1810 456 1792Z" />
<glyph unicode="&#xcc;" glyph-name="Igrave" horiz-adv-x="628" d="M128 0V1456H499V0H128ZM232 1523L-53 1842H321L521 1523H232Z" />
<glyph unicode="&#xcd;" glyph-name="Iacute" horiz-adv-x="628" d="M128 0V1456H499V0H128ZM705 1842L427 1523H134L332 1842H705Z" />
<glyph unicode="&#xce;" glyph-name="Icircumflex" horiz-adv-x="628" d="M128 0V1456H499V0H128ZM756 1545H475L313 1672L152 1545H-123V1564L211 1841H416L756 1559V1545Z" />
<glyph unicode="&#xcf;" glyph-name="Idieresis" horiz-adv-x="628" d="M128 0V1456H499V0H128ZM618 1811T654 1793T711 1742T733 1671Q733 1632 712 1600T654 1550T576 1531Q534 1531 499 1549T442 1600T420 1671Q420 1710 441 1742T498 1792T576 1811Q618 1811
654 1793ZM85 1810T121 1792T178 1741T200 1670Q200 1631 179 1599T121 1549T43 1530Q1 1530 -34 1548T-91 1599T-113 1670Q-113 1709 -92 1741T-35 1791T43 1810Q85 1810 121 1792Z" />
<glyph unicode="&#xd0;" glyph-name="Eth" horiz-adv-x="1322" d="M775 1456T929 1366T1171 1116T1259 755V700Q1259 499 1172 340T932 90T588 0H261H102V627H-35V827H102V1456H475H579Q775 1456 929 1366ZM877 757Q877 953 801 1053T579 1154H475V827H709V627H475V301H588Q727
301 802 401T877 700V757Z" />
<glyph unicode="&#xd1;" glyph-name="Ntilde" horiz-adv-x="1435" d="M961 0L475 847V0H102V1456H475L960 610V1456H1332V0H961ZM1116 1771T1087 1707T1004 1603T883 1563Q840 1563 806 1574T729 1607Q688 1627 662 1636T603 1645Q570 1645 550 1625T530 1561L334
1571Q334 1641 364 1705T447 1810T566 1850Q600 1850 631 1840T711 1809Q753 1790 783 1780T846 1770Q880 1770 901 1790T922 1854L1116 1844Q1116 1771 1087 1707Z" />
<glyph unicode="&#xd2;" glyph-name="Ograve" horiz-adv-x="1414" d="M1351 482T1269 319T1041 68T708 -20Q518 -20 372 67T144 318T62 701V754Q62 973 143 1136T371 1388T706 1476Q893 1476 1039 1388T1268 1137T1351 754V701Q1351 482 1269 319ZM970 958T902
1064T706 1171Q443 1171 443 756V701Q443 499 509 392T708 284Q834 284 902 393T970 701V756Q970 958 902 1064ZM623 1527L338 1846H712L912 1527H623Z" />
<glyph unicode="&#xd3;" glyph-name="Oacute" horiz-adv-x="1414" d="M1351 482T1269 319T1041 68T708 -20Q518 -20 372 67T144 318T62 701V754Q62 973 143 1136T371 1388T706 1476Q893 1476 1039 1388T1268 1137T1351 754V701Q1351 482 1269 319ZM970 958T902
1064T706 1171Q443 1171 443 756V701Q443 499 509 392T708 284Q834 284 902 393T970 701V756Q970 958 902 1064ZM1096 1846L818 1527H525L723 1846H1096Z" />
<glyph unicode="&#xd4;" glyph-name="Ocircumflex" horiz-adv-x="1414" d="M1351 482T1269 319T1041 68T708 -20Q518 -20 372 67T144 318T62 701V754Q62 973 143 1136T371 1388T706 1476Q893 1476 1039 1388T1268 1137T1351 754V701Q1351 482 1269 319ZM970 958T902
1064T706 1171Q443 1171 443 756V701Q443 499 509 392T708 284Q834 284 902 393T970 701V756Q970 958 902 1064ZM1147 1549H866L704 1676L543 1549H268V1568L602 1845H807L1147 1563V1549Z" />
<glyph unicode="&#xd5;" glyph-name="Otilde" horiz-adv-x="1414" d="M1351 482T1269 319T1041 68T708 -20Q518 -20 372 67T144 318T62 701V754Q62 973 143 1136T371 1388T706 1476Q893 1476 1039 1388T1268 1137T1351 754V701Q1351 482 1269 319ZM970 958T902
1064T706 1171Q443 1171 443 756V701Q443 499 509 392T708 284Q834 284 902 393T970 701V756Q970 958 902 1064ZM1094 1771T1065 1707T982 1603T861 1563Q818 1563 784 1574T707 1607Q666 1627 640 1636T581 1645Q548 1645 528 1625T508 1561L312 1571Q312 1641
342 1705T425 1810T544 1850Q578 1850 609 1840T689 1809Q731 1790 761 1780T824 1770Q858 1770 879 1790T900 1854L1094 1844Q1094 1771 1065 1707Z" />
<glyph unicode="&#xd6;" glyph-name="Odieresis" horiz-adv-x="1414" d="M1351 482T1269 319T1041 68T708 -20Q518 -20 372 67T144 318T62 701V754Q62 973 143 1136T371 1388T706 1476Q893 1476 1039 1388T1268 1137T1351 754V701Q1351 482 1269 319ZM970 958T902
1064T706 1171Q443 1171 443 756V701Q443 499 509 392T708 284Q834 284 902 393T970 701V756Q970 958 902 1064ZM1009 1815T1045 1797T1102 1746T1124 1675Q1124 1636 1103 1604T1045 1554T967 1535Q925 1535 890 1553T833 1604T811 1675Q811 1714 832 1746T889
1796T967 1815Q1009 1815 1045 1797ZM476 1814T512 1796T569 1745T591 1674Q591 1635 570 1603T512 1553T434 1534Q392 1534 357 1552T300 1603T278 1674Q278 1713 299 1745T356 1795T434 1814Q476 1814 512 1796Z" />
<glyph unicode="&#xd7;" glyph-name="multiply" horiz-adv-x="1081" d="M738 687L1030 389L827 190L539 484L251 190L48 389L340 687L48 984L251 1183L539 889L827 1183L1030 984L738 687Z" />
<glyph unicode="&#xd8;" glyph-name="Oslash" horiz-adv-x="1409" d="M1253 1218T1308 1076T1364 754V701Q1364 482 1282 319T1054 68T721 -20Q562 -20 430 43L352 -95H136L276 152Q179 247 127 387T75 701V754Q75 973 156 1136T384 1388T719 1476Q868 1476 994
1419L1050 1518H1266L1151 1314Q1253 1218 1308 1076ZM456 592T476 506L836 1141Q787 1171 719 1171Q456 1171 456 756V701Q456 592 476 506ZM983 756Q983 883 956 971L588 322Q644 284 721 284Q847 284 915 393T983 701V756Z" />
<glyph unicode="&#xd9;" glyph-name="Ugrave" horiz-adv-x="1367" d="M1261 515Q1261 345 1191 225T991 42T684 -20Q509 -20 378 42T174 225T101 515V1456H476V515Q476 392 528 337T684 281Q788 281 838 336T888 515V1456H1261V515ZM595 1527L310 1846H684L884 1527H595Z" />
<glyph unicode="&#xda;" glyph-name="Uacute" horiz-adv-x="1367" d="M1261 515Q1261 345 1191 225T991 42T684 -20Q509 -20 378 42T174 225T101 515V1456H476V515Q476 392 528 337T684 281Q788 281 838 336T888 515V1456H1261V515ZM1068 1846L790 1527H497L695
1846H1068Z" />
<glyph unicode="&#xdb;" glyph-name="Ucircumflex" horiz-adv-x="1367" d="M1261 515Q1261 345 1191 225T991 42T684 -20Q509 -20 378 42T174 225T101 515V1456H476V515Q476 392 528 337T684 281Q788 281 838 336T888 515V1456H1261V515ZM1119 1549H838L676 1676L515
1549H240V1568L574 1845H779L1119 1563V1549Z" />
<glyph unicode="&#xdc;" glyph-name="Udieresis" horiz-adv-x="1367" d="M1261 515Q1261 345 1191 225T991 42T684 -20Q509 -20 378 42T174 225T101 515V1456H476V515Q476 392 528 337T684 281Q788 281 838 336T888 515V1456H1261V515ZM981 1815T1017 1797T1074
1746T1096 1675Q1096 1636 1075 1604T1017 1554T939 1535Q897 1535 862 1553T805 1604T783 1675Q783 1714 804 1746T861 1796T939 1815Q981 1815 1017 1797ZM448 1814T484 1796T541 1745T563 1674Q563 1635 542 1603T484 1553T406 1534Q364 1534 329 1552T272 1603T250
1674Q250 1713 271 1745T328 1795T406 1814Q448 1814 484 1796Z" />
<glyph unicode="&#xdd;" glyph-name="Yacute" horiz-adv-x="1295" d="M901 1456H1302L838 517V0H458V517L-7 1456H394L648 850L901 1456ZM1040 1846L762 1527H469L667 1846H1040Z" />
<glyph unicode="&#xde;" glyph-name="Thorn" horiz-adv-x="1275" d="M838 1208T967 1149T1162 983T1229 738Q1229 599 1163 493T967 328T657 268H470V0H110V1456H470V1208H657Q838 1208 967 1149ZM764 558T816 608T869 736Q869 815 817 866T657 918H470V558H657Q764
558 816 608Z" />
<glyph unicode="&#xdf;" glyph-name="germandbls" horiz-adv-x="1347" d="M134 0V1096Q134 1324 273 1443T666 1563Q789 1563 892 1517T1056 1382T1117 1171Q1117 1109 1106 1075T1071 1001Q1049 964 1038 931T1027 840Q1027 814 1048 786T1116 712Q1171 657 1206
614T1267 512T1293 383Q1293 260 1238 170T1073 30T802 -20Q723 -20 651 -9T538 25L600 305Q674 270 807 270Q862 270 898 299T935 382Q935 424 909 457T828 538Q777 583 746 617T692 701T669 816Q669 884 680 924T715 1008Q735 1045 745 1076T755 1158Q755 1189
738 1215T690 1258T621 1274Q559 1274 526 1234T493 1088V0H134Z" />
<glyph unicode="&#xe0;" glyph-name="agrave" horiz-adv-x="1083" d="M1000 171T1011 117T1046 17V0H689Q672 35 659 93Q616 39 556 10T402 -20Q304 -20 220 21T86 136T36 306Q36 476 161 568T547 661H640V711Q640 776 613 810T524 844Q471 844 446 820T420 739H62Q62
846 121 928T289 1056T543 1102Q675 1102 778 1058T941 925T1000 709V284Q1000 171 1011 117ZM545 241T583 260T640 310V468H539Q461 468 428 425T394 321Q394 285 422 263T491 241Q545 241 583 260ZM447 1217L162 1536H536L736 1217H447Z" />
<glyph unicode="&#xe1;" glyph-name="aacute" horiz-adv-x="1083" d="M1000 171T1011 117T1046 17V0H689Q672 35 659 93Q616 39 556 10T402 -20Q304 -20 220 21T86 136T36 306Q36 476 161 568T547 661H640V711Q640 776 613 810T524 844Q471 844 446 820T420 739H62Q62
846 121 928T289 1056T543 1102Q675 1102 778 1058T941 925T1000 709V284Q1000 171 1011 117ZM545 241T583 260T640 310V468H539Q461 468 428 425T394 321Q394 285 422 263T491 241Q545 241 583 260ZM920 1536L642 1217H349L547 1536H920Z" />
<glyph unicode="&#xe2;" glyph-name="acircumflex" horiz-adv-x="1083" d="M1000 171T1011 117T1046 17V0H689Q672 35 659 93Q616 39 556 10T402 -20Q304 -20 220 21T86 136T36 306Q36 476 161 568T547 661H640V711Q640 776 613 810T524 844Q471 844 446 820T420
739H62Q62 846 121 928T289 1056T543 1102Q675 1102 778 1058T941 925T1000 709V284Q1000 171 1011 117ZM545 241T583 260T640 310V468H539Q461 468 428 425T394 321Q394 285 422 263T491 241Q545 241 583 260ZM970 1239H689L527 1366L366 1239H91V1258L425 1535H630L970
1253V1239Z" />
<glyph unicode="&#xe3;" glyph-name="atilde" horiz-adv-x="1083" d="M1000 171T1011 117T1046 17V0H689Q672 35 659 93Q616 39 556 10T402 -20Q304 -20 220 21T86 136T36 306Q36 476 161 568T547 661H640V711Q640 776 613 810T524 844Q471 844 446 820T420 739H62Q62
846 121 928T289 1056T543 1102Q675 1102 778 1058T941 925T1000 709V284Q1000 171 1011 117ZM545 241T583 260T640 310V468H539Q461 468 428 425T394 321Q394 285 422 263T491 241Q545 241 583 260ZM917 1461T888 1397T805 1293T684 1253Q641 1253 607 1264T530
1297Q489 1317 463 1326T404 1335Q371 1335 351 1315T331 1251L135 1261Q135 1331 165 1395T248 1500T367 1540Q401 1540 432 1530T512 1499Q554 1480 584 1470T647 1460Q681 1460 702 1480T723 1544L917 1534Q917 1461 888 1397Z" />
<glyph unicode="&#xe4;" glyph-name="adieresis" horiz-adv-x="1083" d="M1000 171T1011 117T1046 17V0H689Q672 35 659 93Q616 39 556 10T402 -20Q304 -20 220 21T86 136T36 306Q36 476 161 568T547 661H640V711Q640 776 613 810T524 844Q471 844 446 820T420
739H62Q62 846 121 928T289 1056T543 1102Q675 1102 778 1058T941 925T1000 709V284Q1000 171 1011 117ZM545 241T583 260T640 310V468H539Q461 468 428 425T394 321Q394 285 422 263T491 241Q545 241 583 260ZM833 1505T869 1487T926 1436T948 1365Q948 1326 927
1294T869 1244T791 1225Q749 1225 714 1243T657 1294T635 1365Q635 1404 656 1436T713 1486T791 1505Q833 1505 869 1487ZM300 1504T336 1486T393 1435T415 1364Q415 1325 394 1293T336 1243T258 1224Q216 1224 181 1242T124 1293T102 1364Q102 1403 123 1435T180
1485T258 1504Q300 1504 336 1486Z" />
<glyph unicode="&#xe5;" glyph-name="aring" horiz-adv-x="1083" d="M1000 171T1011 117T1046 17V0H689Q672 35 659 93Q616 39 556 10T402 -20Q304 -20 220 21T86 136T36 306Q36 476 161 568T547 661H640V711Q640 776 613 810T524 844Q471 844 446 820T420 739H62Q62
846 121 928T289 1056T543 1102Q675 1102 778 1058T941 925T1000 709V284Q1000 171 1011 117ZM545 241T583 260T640 310V468H539Q461 468 428 425T394 321Q394 285 422 263T491 241Q545 241 583 260ZM594 1619T646 1592T727 1518T756 1418Q756 1364 727 1319T647
1248T530 1221Q466 1221 415 1247T334 1319T305 1418Q305 1472 334 1518T414 1591T530 1619Q594 1619 646 1592ZM577 1317T604 1345T632 1418Q632 1462 605 1491T530 1520Q483 1520 456 1491T429 1418Q429 1373 456 1345T530 1317Q577 1317 604 1345Z" />
<glyph unicode="&#xe6;" glyph-name="ae" horiz-adv-x="1730" d="M1690 418H1065Q1079 348 1133 309T1288 270Q1377 270 1438 283T1568 326L1652 101Q1585 47 1471 14T1235 -20Q1116 -20 1021 13T857 108Q797 51 706 16T493 -20Q355 -20 258 22T110 144T59 329Q59
489 194 575T589 661H713V695Q713 751 682 781T592 812Q527 812 492 791T457 734L99 753Q99 854 160 933T334 1057T597 1102Q794 1102 912 1018Q1039 1103 1229 1102Q1368 1102 1472 1043T1633 872T1690 612V418ZM1340 672Q1340 742 1311 777T1229 812Q1149 812
1112 770T1064 648H1340V672ZM417 234T560 234Q599 234 640 247T713 283V412L711 440H591Q536 440 497 424T437 382T417 325Q417 234 560 234Z" />
<glyph unicode="&#xe7;" glyph-name="ccedilla" horiz-adv-x="1063" d="M1017 399Q1018 298 980 217T872 80T709 -1L702 -48Q766 -59 809 -100T852 -221Q852 -300 808 -358T678 -448T467 -480L460 -272Q496 -272 517 -255T538 -200Q538 -166 508 -152T407 -133L433
-8Q307 16 221 90T91 278T47 532V549Q47 712 104 837T276 1032T555 1102Q692 1102 797 1051T960 899T1017 656H681Q683 726 649 769T546 812Q486 812 456 779T415 691T405 549V532Q405 444 415 389T456 302T548 270Q615 270 649 303T681 399H1017Z" />
<glyph unicode="&#xe8;" glyph-name="egrave" horiz-adv-x="1119" d="M1083 421H426Q447 349 504 310T647 270Q719 270 783 294T893 372L1052 163Q1016 115 954 74T806 6T623 -20Q449 -20 320 52T124 244T56 506V543Q56 700 114 826T291 1027T585 1102Q737 1102
849 1039T1022 857T1083 574V421ZM738 812T582 812Q508 812 471 768T422 648H734V677Q738 812 582 812ZM448 1218L163 1537H537L737 1218H448Z" />
<glyph unicode="&#xe9;" glyph-name="eacute" horiz-adv-x="1119" d="M1083 421H426Q447 349 504 310T647 270Q719 270 783 294T893 372L1052 163Q1016 115 954 74T806 6T623 -20Q449 -20 320 52T124 244T56 506V543Q56 700 114 826T291 1027T585 1102Q737 1102
849 1039T1022 857T1083 574V421ZM738 812T582 812Q508 812 471 768T422 648H734V677Q738 812 582 812ZM921 1537L643 1218H350L548 1537H921Z" />
<glyph unicode="&#xea;" glyph-name="ecircumflex" horiz-adv-x="1119" d="M1083 421H426Q447 349 504 310T647 270Q719 270 783 294T893 372L1052 163Q1016 115 954 74T806 6T623 -20Q449 -20 320 52T124 244T56 506V543Q56 700 114 826T291 1027T585 1102Q737
1102 849 1039T1022 857T1083 574V421ZM738 812T582 812Q508 812 471 768T422 648H734V677Q738 812 582 812ZM972 1240H691L529 1367L368 1240H93V1259L427 1536H632L972 1254V1240Z" />
<glyph unicode="&#xeb;" glyph-name="edieresis" horiz-adv-x="1119" d="M1083 421H426Q447 349 504 310T647 270Q719 270 783 294T893 372L1052 163Q1016 115 954 74T806 6T623 -20Q449 -20 320 52T124 244T56 506V543Q56 700 114 826T291 1027T585 1102Q737
1102 849 1039T1022 857T1083 574V421ZM738 812T582 812Q508 812 471 768T422 648H734V677Q738 812 582 812ZM834 1506T870 1488T927 1437T949 1366Q949 1327 928 1295T870 1245T792 1226Q750 1226 715 1244T658 1295T636 1366Q636 1405 657 1437T714 1487T792
1506Q834 1506 870 1488ZM301 1505T337 1487T394 1436T416 1365Q416 1326 395 1294T337 1244T259 1225Q217 1225 182 1243T125 1294T103 1365Q103 1404 124 1436T181 1486T259 1505Q301 1505 337 1487Z" />
<glyph unicode="&#xec;" glyph-name="igrave" horiz-adv-x="595" d="M119 0V1082H479V0H119ZM218 1190L-67 1509H307L507 1190H218Z" />
<glyph unicode="&#xed;" glyph-name="iacute" horiz-adv-x="595" d="M119 0V1082H479V0H119ZM691 1509L413 1190H120L318 1509H691Z" />
<glyph unicode="&#xee;" glyph-name="icircumflex" horiz-adv-x="595" d="M119 0V1082H479V0H119ZM742 1212H461L299 1339L138 1212H-137V1231L197 1508H402L742 1226V1212Z" />
<glyph unicode="&#xef;" glyph-name="idieresis" horiz-adv-x="595" d="M119 0V1082H479V0H119ZM604 1478T640 1460T697 1409T719 1338Q719 1299 698 1267T640 1217T562 1198Q520 1198 485 1216T428 1267T406 1338Q406 1377 427 1409T484 1459T562 1478Q604 1478
640 1460ZM71 1477T107 1459T164 1408T186 1337Q186 1298 165 1266T107 1216T29 1197Q-13 1197 -48 1215T-105 1266T-127 1337Q-127 1376 -106 1408T-49 1458T29 1477Q71 1477 107 1459Z" />
<glyph unicode="&#xf0;" glyph-name="eth" horiz-adv-x="1160" d="M997 1184T1064 1020T1132 662V610Q1132 426 1060 283T862 60T578 -20Q425 -20 306 44T122 220T56 468Q56 616 106 725T259 895T510 955Q635 955 732 899Q683 1030 577 1128L408 1026L330 1148L450
1221Q348 1280 224 1312L338 1578Q574 1532 756 1405L913 1499L989 1377L873 1307Q997 1184 1064 1020ZM677 270T724 349T772 558V637Q743 661 697 675T588 690Q499 690 457 633T415 468Q415 375 459 323T582 270Q677 270 724 349Z" />
<glyph unicode="&#xf1;" glyph-name="ntilde" horiz-adv-x="1159" d="M896 1102T985 1002T1074 672V0H714V673Q714 731 698 762T651 803T570 814Q482 814 440 754V0H81V1082H417L429 957Q484 1028 562 1065T736 1102Q896 1102 985 1002ZM969 1461T940 1397T857
1293T736 1253Q693 1253 659 1264T582 1297Q541 1317 515 1326T456 1335Q423 1335 403 1315T383 1251L187 1261Q187 1331 217 1395T300 1500T419 1540Q453 1540 484 1530T564 1499Q606 1480 636 1470T699 1460Q733 1460 754 1480T775 1544L969 1534Q969 1461 940
1397Z" />
<glyph unicode="&#xf2;" glyph-name="ograve" horiz-adv-x="1147" d="M47 711T107 836T286 1031T572 1102Q741 1102 859 1032T1038 837T1099 551V530Q1099 369 1039 245T860 51T574 -20Q406 -20 287 50T108 245T47 530V551Q47 711 107 836ZM405 405T441 338T574
270Q667 270 704 338T741 530V551Q741 673 704 742T572 812Q479 812 442 742T405 551V530Q405 405 441 338ZM495 1217L210 1536H584L784 1217H495Z" />
<glyph unicode="&#xf3;" glyph-name="oacute" horiz-adv-x="1147" d="M47 711T107 836T286 1031T572 1102Q741 1102 859 1032T1038 837T1099 551V530Q1099 369 1039 245T860 51T574 -20Q406 -20 287 50T108 245T47 530V551Q47 711 107 836ZM405 405T441 338T574
270Q667 270 704 338T741 530V551Q741 673 704 742T572 812Q479 812 442 742T405 551V530Q405 405 441 338ZM968 1536L690 1217H397L595 1536H968Z" />
<glyph unicode="&#xf4;" glyph-name="ocircumflex" horiz-adv-x="1147" d="M47 711T107 836T286 1031T572 1102Q741 1102 859 1032T1038 837T1099 551V530Q1099 369 1039 245T860 51T574 -20Q406 -20 287 50T108 245T47 530V551Q47 711 107 836ZM405 405T441 338T574
270Q667 270 704 338T741 530V551Q741 673 704 742T572 812Q479 812 442 742T405 551V530Q405 405 441 338ZM1019 1239H738L576 1366L415 1239H140V1258L474 1535H679L1019 1253V1239Z" />
<glyph unicode="&#xf5;" glyph-name="otilde" horiz-adv-x="1147" d="M47 711T107 836T286 1031T572 1102Q741 1102 859 1032T1038 837T1099 551V530Q1099 369 1039 245T860 51T574 -20Q406 -20 287 50T108 245T47 530V551Q47 711 107 836ZM405 405T441 338T574
270Q667 270 704 338T741 530V551Q741 673 704 742T572 812Q479 812 442 742T405 551V530Q405 405 441 338ZM966 1461T937 1397T854 1293T733 1253Q690 1253 656 1264T579 1297Q538 1317 512 1326T453 1335Q420 1335 400 1315T380 1251L184 1261Q184 1331 214 1395T297
1500T416 1540Q450 1540 481 1530T561 1499Q603 1480 633 1470T696 1460Q730 1460 751 1480T772 1544L966 1534Q966 1461 937 1397Z" />
<glyph unicode="&#xf6;" glyph-name="odieresis" horiz-adv-x="1147" d="M47 711T107 836T286 1031T572 1102Q741 1102 859 1032T1038 837T1099 551V530Q1099 369 1039 245T860 51T574 -20Q406 -20 287 50T108 245T47 530V551Q47 711 107 836ZM405 405T441 338T574
270Q667 270 704 338T741 530V551Q741 673 704 742T572 812Q479 812 442 742T405 551V530Q405 405 441 338ZM882 1505T918 1487T975 1436T997 1365Q997 1326 976 1294T918 1244T840 1225Q798 1225 763 1243T706 1294T684 1365Q684 1404 705 1436T762 1486T840 1505Q882
1505 918 1487ZM349 1504T385 1486T442 1435T464 1364Q464 1325 443 1293T385 1243T307 1224Q265 1224 230 1242T173 1293T151 1364Q151 1403 172 1435T229 1485T307 1504Q349 1504 385 1486Z" />
<glyph unicode="&#xf7;" glyph-name="divide" horiz-adv-x="1166" d="M639 1260T683 1238T753 1175T778 1082Q778 1030 753 989T684 926T582 903Q525 903 480 925T410 989T385 1082Q385 1134 410 1174T480 1237T582 1260Q639 1260 683 1238ZM58 554V813H1109V554H58ZM639
454T683 432T753 369T778 276Q778 224 753 184T684 120T582 97Q525 97 480 120T410 183T385 276Q385 328 410 368T480 431T582 454Q639 454 683 432Z" />
<glyph unicode="&#xf8;" glyph-name="oslash" horiz-adv-x="1149" d="M995 937T1047 819T1099 551V530Q1099 369 1039 245T860 51T574 -20Q484 -20 407 1L335 -148H151L256 70Q154 141 101 260T47 530V551Q47 711 107 836T286 1031T572 1102Q664 1102 744 1080L814
1222H998L895 1009Q995 937 1047 819ZM405 452T417 403L613 808Q597 812 572 812Q479 812 442 742T405 551V530Q405 452 417 403ZM741 551Q741 620 730 669L539 273Q556 270 574 270Q667 270 704 338T741 530V551Z" />
<glyph unicode="&#xf9;" glyph-name="ugrave" horiz-adv-x="1160" d="M1076 1082V0H741L730 119Q679 52 607 16T445 -20Q276 -20 179 78T82 382V1082H441V380Q441 328 473 298T568 268Q675 268 716 338V1082H1076ZM497 1217L212 1536H586L786 1217H497Z" />
<glyph unicode="&#xfa;" glyph-name="uacute" horiz-adv-x="1160" d="M1076 1082V0H741L730 119Q679 52 607 16T445 -20Q276 -20 179 78T82 382V1082H441V380Q441 328 473 298T568 268Q675 268 716 338V1082H1076ZM970 1536L692 1217H399L597 1536H970Z" />
<glyph unicode="&#xfb;" glyph-name="ucircumflex" horiz-adv-x="1160" d="M1076 1082V0H741L730 119Q679 52 607 16T445 -20Q276 -20 179 78T82 382V1082H441V380Q441 328 473 298T568 268Q675 268 716 338V1082H1076ZM1021 1239H740L578 1366L417 1239H142V1258L476
1535H681L1021 1253V1239Z" />
<glyph unicode="&#xfc;" glyph-name="udieresis" horiz-adv-x="1160" d="M1076 1082V0H741L730 119Q679 52 607 16T445 -20Q276 -20 179 78T82 382V1082H441V380Q441 328 473 298T568 268Q675 268 716 338V1082H1076ZM883 1505T919 1487T976 1436T998 1365Q998
1326 977 1294T919 1244T841 1225Q799 1225 764 1243T707 1294T685 1365Q685 1404 706 1436T763 1486T841 1505Q883 1505 919 1487ZM350 1504T386 1486T443 1435T465 1364Q465 1325 444 1293T386 1243T308 1224Q266 1224 231 1242T174 1293T152 1364Q152 1403 173
1435T230 1485T308 1504Q350 1504 386 1486Z" />
<glyph unicode="&#xfd;" glyph-name="yacute" horiz-adv-x="1076" d="M1088 1082L653 -160Q627 -235 591 -293T481 -394T290 -437Q240 -437 220 -434T145 -416V-150L189 -149Q262 -149 295 -131T342 -79L368 -14L-9 1082H375L535 506L704 1082H1088ZM924 1536L646
1217H353L551 1536H924Z" />
<glyph unicode="&#xfe;" glyph-name="thorn" horiz-adv-x="1143" d="M815 1102T909 1035T1052 844T1101 555V534Q1101 374 1053 249T909 52T681 -20Q541 -20 447 87V-416H87V1536H447V1000Q539 1102 680 1102Q815 1102 909 1035ZM742 555Q742 680 708 747T593
814Q537 814 502 797T447 744V345Q488 270 595 270Q676 270 709 340T742 534V555Z" />
<glyph unicode="&#xff;" glyph-name="ydieresis" horiz-adv-x="1076" d="M1088 1082L653 -160Q627 -235 591 -293T481 -394T290 -437Q240 -437 220 -434T145 -416V-150L189 -149Q262 -149 295 -131T342 -79L368 -14L-9 1082H375L535 506L704 1082H1088ZM837 1505T873
1487T930 1436T952 1365Q952 1326 931 1294T873 1244T795 1225Q753 1225 718 1243T661 1294T639 1365Q639 1404 660 1436T717 1486T795 1505Q837 1505 873 1487ZM304 1504T340 1486T397 1435T419 1364Q419 1325 398 1293T340 1243T262 1224Q220 1224 185 1242T128
1293T106 1364Q106 1403 127 1435T184 1485T262 1504Q304 1504 340 1486Z" />
<glyph unicode="&#x2013;" glyph-name="endash" horiz-adv-x="1254" d="M143 558V853H1206V558H143Z" />
<glyph unicode="&#x2014;" glyph-name="emdash" horiz-adv-x="1532" d="M77 558V853H1494V558H77Z" />
<glyph unicode="&#x2018;" glyph-name="quoteleft" horiz-adv-x="525" d="M110 1275T136 1345T205 1478T294 1582L447 1501Q407 1426 386 1362T364 1207V1035H110V1209Q110 1275 136 1345Z" />
<glyph unicode="&#x2019;" glyph-name="quoteright" horiz-adv-x="510" d="M406 1296T380 1226T311 1093T223 989L70 1070Q109 1144 130 1209T152 1364V1536H406V1362Q406 1296 380 1226Z" />
<glyph unicode="&#x201a;" glyph-name="quotesinglbase" horiz-adv-x="577" d="M428 -8T402 -78T333 -211T244 -315L91 -234Q124 -171 142 -103T161 60V270H429L428 58Q428 -8 402 -78Z" />
<glyph unicode="&#x201c;" glyph-name="quotedblleft" horiz-adv-x="895" d="M116 1275T142 1345T211 1478T300 1582L453 1501Q413 1426 392 1362T370 1207V1035H116V1209Q116 1275 142 1345ZM471 1275T497 1345T566 1478T655 1582L808 1501Q768 1426 747 1362T725
1207V1035H471V1209Q471 1275 497 1345Z" />
<glyph unicode="&#x201d;" glyph-name="quotedblright" horiz-adv-x="900" d="M420 1296T394 1226T325 1093T237 989L84 1070Q123 1144 144 1209T166 1364V1536H420V1362Q420 1296 394 1226ZM788 1296T762 1226T693 1093T605 989L452 1070Q491 1144 512 1209T534
1364V1536H788V1362Q788 1296 762 1226Z" />
<glyph unicode="&#x201e;" glyph-name="quotedblbase" horiz-adv-x="899" d="M428 -12T405 -86T342 -226T257 -335L91 -254Q124 -187 142 -114T161 60V275H429L428 58Q428 -12 405 -86ZM797 -11T771 -85T702 -225T614 -335L448 -254Q474 -201 490 -161T519 -64T531
60V275H799L797 58Q797 -11 771 -85Z" />
<glyph unicode="&#x2022;" glyph-name="bullet" horiz-adv-x="767" d="M474 1012T533 980T624 891T656 759V723Q656 650 625 594T534 506T396 474Q318 474 259 505T167 593T134 723V759Q134 832 166 890T257 980T393 1012Q474 1012 533 980Z" />
<glyph unicode="&#x2039;" glyph-name="guilsinglleft" horiz-adv-x="656" d="M364 505L592 106H377L108 496V509V515L377 905H592L364 505Z" />
<glyph unicode="&#x203a;" glyph-name="guilsinglright" horiz-adv-x="621" d="M559 513V500V494L290 104H75L303 504L75 903H290L559 513Z" />
</font>
</defs>
</svg>
