<?xml version="1.0" standalone="no"?>
<!DOCTYPE svg PUBLIC "-//W3C//DTD SVG 1.1//EN" "http://www.w3.org/Graphics/SVG/1.1/DTD/svg11.dtd">
<svg xmlns="http://www.w3.org/2000/svg">
<defs >
<font id="Exo2" horiz-adv-x="544" ><font-face
    font-family="Exo 2 Extra Light"
    units-per-em="1000"
    panose-1="0 0 3 0 0 0 0 0 0 0"
    ascent="992"
    descent="-208"
    alphabetic="0" />
<glyph unicode=" " glyph-name="space" horiz-adv-x="228" />
<glyph unicode="!" glyph-name="exclam" horiz-adv-x="257" d="M158 363L133 205H100L118 363L165 695H205L158 363ZM94 94H108Q125 94 122 76L114 16Q111 0 96 0H82Q64 0 66 18L75 78Q78 94 94 94Z" />
<glyph unicode="&quot;" glyph-name="quotedbl" horiz-adv-x="329" d="M139 480H109L136 690H172L139 480ZM271 480H241L267 690H303L271 480Z" />
<glyph unicode="#" glyph-name="numbersign" horiz-adv-x="667" d="M522 464L456 255H566L557 224H447L376 0H342L412 224H196L125 0H91L161 224H44L54 255H171L237 464H120L130 495H246L308 690H342L281 495H497L559 690H593L532 495H642L632 464H522ZM488 464H271L205
255H422L488 464Z" />
<glyph unicode="$" glyph-name="dollar" horiz-adv-x="563" d="M525 687L519 657Q426 663 370 663L311 362L369 338Q446 306 470 267T484 152Q477 109 463 79T429 31T378 4T315 -8T234 -11L210 -133H183L208 -11Q113 -9 39 2L44 33Q145 26 215 26L276 332L210
359Q138 389 114 430T99 542Q105 586 120 616T153 663T203 689T262 700T334 701H351L371 803H398L378 700Q458 697 525 687ZM344 664H320Q291 664 276 663T237 659T202 647T175 626T153 590T141 536Q135 480 151 451T222 398L286 372L344 664ZM242 26H244Q295 27
325 31T381 49T421 88T442 157Q450 218 433 246T357 299L301 322L242 26Z" />
<glyph unicode="%" glyph-name="percent" horiz-adv-x="882" d="M262 702Q347 702 375 654T389 496Q374 388 334 341T211 294Q126 294 98 343T84 500T138 655T262 702ZM180 0H145L713 690H748L180 0ZM264 674Q193 674 162 634T117 496Q104 402 124 362T208 322Q278
322 310 363T356 500Q368 596 349 635T264 674ZM687 401Q772 401 800 352T813 194Q798 87 758 40T635 -8Q550 -8 522 41T509 199Q524 307 563 354T687 401ZM689 373Q617 373 586 333T542 194Q529 100 548 60T633 20Q703 20 735 61T780 199Q793 295 774 334T689
373Z" />
<glyph unicode="&amp;" glyph-name="ampersand" horiz-adv-x="782" d="M735 341H599Q581 229 532 148Q481 63 410 27T240 -11Q125 -14 81 27T53 177Q67 266 114 310T248 356V360Q175 365 150 406T138 523Q156 627 211 663T386 699Q472 699 545 676L538 646Q467
663 385 663Q282 663 238 635T179 518Q164 434 200 404T339 374H566Q574 442 572 521H610Q611 448 603 374H743L735 341ZM561 341H336Q276 340 239 334T171 311T123 262T96 176Q80 86 113 56T225 26Q324 26 389 59T499 166Q544 239 561 341Z" />
<glyph unicode="&apos;" glyph-name="quotesingle" horiz-adv-x="197" d="M139 480H109L136 690H172L139 480Z" />
<glyph unicode="(" glyph-name="parenleft" horiz-adv-x="353" d="M376 790L382 766Q266 711 200 601T108 311Q83 136 118 27T252 -141L245 -165Q14 -55 67 318Q93 504 168 619T376 790Z" />
<glyph unicode=")" glyph-name="parenright" horiz-adv-x="353" d="M107 766L113 790Q230 736 274 618T292 306Q266 119 191 5T-18 -165L-23 -141Q92 -83 159 28T251 315Q276 489 242 600T107 766Z" />
<glyph unicode="*" glyph-name="asterisk" horiz-adv-x="449" d="M267 534L346 405L320 389L255 513L155 390L132 409L246 535L264 690H294L267 534ZM232 550L229 537L222 528L101 565L113 594L232 550ZM421 563L290 528L285 537L286 550L414 593L421 563Z" />
<glyph unicode="+" glyph-name="plus" horiz-adv-x="550" d="M484 281H290L263 97H231L256 281H61L67 314H261L287 498H321L294 314H489L484 281Z" />
<glyph unicode="," glyph-name="comma" horiz-adv-x="211" d="M72 94H88Q102 94 101 78L91 12Q84 -45 49 -120L27 -113Q45 -53 54 1Q41 1 43 16L52 78Q54 87 58 90T72 94Z" />
<glyph unicode="-" glyph-name="hyphen" horiz-adv-x="472" d="M383 235H74L78 268H387L383 235Z" />
<glyph unicode="." glyph-name="period" horiz-adv-x="210" d="M70 94H85Q103 94 100 76L92 16Q89 0 73 0H59Q40 0 43 18L52 78Q53 94 70 94Z" />
<glyph unicode="/" glyph-name="slash" horiz-adv-x="504" d="M26 -61H-13L484 690H523L26 -61Z" />
<glyph unicode="0" glyph-name="zero" horiz-adv-x="587" d="M349 702Q471 702 509 617T521 343Q495 155 435 72T254 -12Q132 -12 93 73T81 347Q107 535 167 618T349 702ZM349 665Q247 665 197 590T121 343Q98 173 126 99T253 25Q354 25 405 100T481 347Q505 517
476 591T349 665Z" />
<glyph unicode="1" glyph-name="one" horiz-adv-x="379" d="M215 0H174L259 601Q261 617 269 651L78 589L76 618L271 690H312L215 0Z" />
<glyph unicode="2" glyph-name="two" horiz-adv-x="550" d="M121 644L116 675Q231 702 318 702Q424 702 470 673T505 559Q496 493 458 435T335 293L76 37Q114 38 190 38H461L456 0H17L20 26Q24 40 29 45L296 309Q378 390 417 450T463 569Q469 630 435 647T321
665Q228 665 121 644Z" />
<glyph unicode="3" glyph-name="three" horiz-adv-x="546" d="M128 654L123 685Q225 702 305 702Q420 702 461 666T491 541Q471 388 361 368L360 364Q424 354 448 307T462 190Q449 106 390 50T215 -12Q118 -17 19 5L27 36Q122 20 210 25Q396 37 422 197Q446 348
282 348L152 349L156 380L284 382Q432 385 451 539Q460 613 429 639T300 665Q214 665 128 654Z" />
<glyph unicode="4" glyph-name="four" horiz-adv-x="595" d="M531 194L447 190L420 0H380L407 189H95Q59 189 45 217T52 277L323 690H368L92 270Q80 251 85 238T111 224H412L443 443L468 559H499L452 224H536L531 194Z" />
<glyph unicode="5" glyph-name="five" horiz-adv-x="527" d="M493 654H187L141 409L200 408Q274 407 320 399T401 369T447 307T451 203Q448 175 440 150T414 95T370 44T301 6T202 -12Q114 -15 25 15L33 47Q116 21 195 24Q303 29 352 82T411 208Q417 253 410 282T387
330T333 357T255 369T147 373L120 374Q111 375 106 381T102 397L157 690H499L493 654Z" />
<glyph unicode="6" glyph-name="six" horiz-adv-x="564" d="M512 689L503 659Q458 666 388 666Q326 666 288 655T216 608T161 508T124 335Q203 438 332 443Q434 448 471 395T491 216Q476 104 421 46T258 -12Q161 -12 117 26T69 143T83 339Q100 456 125 528T189
639T273 689T386 702T512 689ZM326 409Q268 406 222 382T118 295Q104 201 108 141T147 53T259 24Q347 24 392 74T451 222Q466 325 440 369T326 409Z" />
<glyph unicode="7" glyph-name="seven" horiz-adv-x="502" d="M95 690H475Q526 690 503 643L192 0H149L446 614Q457 636 469 654H93L95 690Z" />
<glyph unicode="8" glyph-name="eight" horiz-adv-x="610" d="M202 357L204 361Q106 373 127 520Q141 617 190 658T359 699Q482 699 520 657T546 516Q536 442 508 404T426 360L424 356Q485 349 504 304T512 170Q498 70 448 31T266 -9Q137 -10 94 32T64 174Q76
263 107 306T202 357ZM358 663Q256 663 217 631T166 514Q153 426 182 401T317 375T458 402T507 518Q519 602 490 632T358 663ZM314 341Q198 340 159 310T104 174Q92 91 125 60T267 28Q377 28 419 61T473 179Q488 283 458 312T314 341Z" />
<glyph unicode="9" glyph-name="nine" horiz-adv-x="565" d="M54 1L64 31Q115 24 184 24Q275 25 323 49T402 143T456 355L457 357Q411 299 363 274T250 247Q146 243 109 298T90 474Q106 589 161 645T329 702Q461 702 494 622T497 351Q482 257 463 194T421 90T364
26T290 -4T193 -12Q115 -12 54 1ZM255 281Q314 283 360 308T463 396Q484 542 457 604T327 666Q232 666 189 618T129 468Q114 362 144 320T255 281Z" />
<glyph unicode=":" glyph-name="colon" horiz-adv-x="213" d="M142 433H158Q175 433 172 414L164 354Q161 338 146 338H131Q112 338 115 357L124 416Q126 433 142 433ZM94 94H109Q127 94 124 76L116 16Q113 0 97 0H83Q64 0 67 18L76 78Q77 94 94 94Z" />
<glyph unicode=";" glyph-name="semicolon" horiz-adv-x="215" d="M119 433H135Q152 433 150 414L141 354Q140 338 123 338H108Q90 338 92 357L101 416Q103 433 119 433ZM74 94H89Q105 94 102 78L93 12Q85 -43 51 -120L29 -113Q44 -63 56 1Q42 1 45 16L54 78Q56
87 59 90T74 94Z" />
<glyph unicode="&lt;" glyph-name="less" horiz-adv-x="535" d="M480 457L98 295L434 137L430 103L58 279L63 313L485 493L480 457Z" />
<glyph unicode="=" glyph-name="equal" horiz-adv-x="590" d="M518 380H95L100 413H522L518 380ZM489 168H66L71 201H493L489 168Z" />
<glyph unicode="&gt;" glyph-name="greater" horiz-adv-x="533" d="M476 313L471 279L50 103L54 140L436 298L100 460L105 493L476 313Z" />
<glyph unicode="?" glyph-name="question" horiz-adv-x="498" d="M99 664L95 693Q101 694 125 698T155 703T182 706T216 709T253 711T304 712Q402 712 447 673T482 555Q477 520 459 489T417 436T366 389T314 340T270 281T245 204L209 206Q216 258 240 300T296
372T358 427T412 486T441 556Q449 620 416 648T300 677Q210 677 99 664ZM204 94H217Q234 94 233 76L224 17Q222 0 206 0H192Q174 0 177 18L185 78Q188 94 204 94Z" />
<glyph unicode="@" glyph-name="at" horiz-adv-x="747" d="M123 586L126 615Q243 619 421 621Q471 621 504 619T567 611T614 595T646 568T665 529T672 472T670 398T659 303Q633 114 601 52T483 -11Q386 -11 403 98L405 112Q297 -12 178 -12Q132 -12 104 7T66 61T57
135T67 224Q91 357 140 400T314 444Q383 444 491 429L441 90Q436 55 446 40T486 24Q549 24 573 76T622 307Q629 360 633 395T636 463T631 513T615 546T589 568T547 579T493 585T421 586H123ZM411 155L447 404Q373 409 325 409Q208 409 168 374T106 219Q97 160 96
117T116 48T184 23Q295 23 411 155Z" />
<glyph unicode="A" glyph-name="A" horiz-adv-x="604" d="M458 242H140L21 0H-24L313 678Q317 690 331 690H387Q402 690 404 676L550 0H508L458 242ZM450 279L383 600Q382 607 378 626T372 656H342L315 599L157 279H450Z" />
<glyph unicode="B" glyph-name="B" horiz-adv-x="612" d="M58 0L155 690Q228 698 356 698Q481 698 526 660T556 516Q545 441 513 404T417 360V356Q490 349 515 303T528 170Q513 65 462 29T292 -8Q140 -8 58 0ZM151 374H329Q422 375 462 404T515 518Q527 604 493
633T355 662L191 661L151 374ZM146 341L103 30Q181 28 288 28Q389 28 432 58T487 178Q500 272 466 305T327 341H146Z" />
<glyph unicode="C" glyph-name="C" horiz-adv-x="559" d="M478 38L483 7Q401 -12 291 -12Q147 -12 99 69T79 347Q107 544 175 623T385 702Q490 702 562 684L553 654Q476 665 386 665Q261 665 204 595T121 343Q96 165 133 95T290 25Q400 25 478 38Z" />
<glyph unicode="D" glyph-name="D" horiz-adv-x="659" d="M58 0L155 690Q276 699 383 699Q527 699 574 620T595 343Q567 141 500 66T287 -9Q180 -9 58 0ZM192 659L103 31Q187 28 286 28Q411 28 469 96T553 347Q578 526 541 594T382 662Q278 662 192 659Z" />
<glyph unicode="E" glyph-name="E" horiz-adv-x="551" d="M545 655H262Q184 655 173 575L146 385H467L462 352H142L109 112Q104 77 121 56T174 35H458V4Q362 0 167 0Q115 0 87 31T67 112L133 585Q140 633 172 661T255 690Q454 690 551 686L545 655Z" />
<glyph unicode="F" glyph-name="F" horiz-adv-x="532" d="M541 655H268Q189 655 177 575L149 379H462L457 346H145L96 0H55L137 584Q145 634 177 662T259 690Q453 690 547 685L541 655Z" />
<glyph unicode="G" glyph-name="G" horiz-adv-x="621" d="M586 684L577 654Q492 665 393 665Q262 665 204 596T121 343Q99 169 131 97T264 25Q322 25 372 55T484 142L520 400H560L503 0H474L482 104Q374 -12 256 -12Q137 -12 96 72T78 347Q105 546 175 624T390
702Q504 702 586 684Z" />
<glyph unicode="H" glyph-name="H" horiz-adv-x="659" d="M617 690L520 0H479L528 351H148L99 0H58L155 690H196L154 387H533L576 690H617Z" />
<glyph unicode="I" glyph-name="I" horiz-adv-x="239" d="M99 0H58L155 690H196L99 0Z" />
<glyph unicode="J" glyph-name="J" horiz-adv-x="326" d="M287 690L207 122Q190 -9 67 -7Q33 -7 -5 1L4 29H58Q153 29 167 124L246 690H287Z" />
<glyph unicode="K" glyph-name="K" horiz-adv-x="568" d="M284 361V358Q291 350 307 325L500 0H453L249 343H143Q142 301 134 259L98 0H58L155 690H195L163 458Q155 408 148 377H252L530 690H581L321 396Q302 375 284 361Z" />
<glyph unicode="L" glyph-name="L" horiz-adv-x="503" d="M193 690L112 112Q107 77 124 56T178 35H445L444 4Q352 0 169 0Q119 0 92 31T71 113L152 690H193Z" />
<glyph unicode="M" glyph-name="M" horiz-adv-x="860" d="M723 690H780Q801 690 799 668L735 0H693L757 655H734L446 78Q441 65 426 65H374Q358 65 355 80L228 655H204L84 0H43L167 671Q170 690 189 690H244Q260 690 262 674L370 191Q375 173 381 141T390 97H415L461
194L703 677Q710 690 723 690Z" />
<glyph unicode="N" glyph-name="N" horiz-adv-x="692" d="M649 690L555 19Q552 0 534 0H483Q467 0 461 17L240 580Q215 645 212 653H189Q183 601 179 571L99 0H58L152 671Q155 690 173 690H222Q238 690 244 673L460 123Q475 86 492 37H518Q529 123 530 126L608 690H649Z" />
<glyph unicode="O" glyph-name="O" horiz-adv-x="662" d="M386 702Q529 702 577 621T597 343Q570 145 503 67T292 -12T100 68T79 347Q107 544 174 623T386 702ZM385 665Q261 665 204 595T121 343Q97 165 134 95T292 25Q415 25 472 95T555 347Q581 527 544 596T385 665Z" />
<glyph unicode="P" glyph-name="P" horiz-adv-x="582" d="M58 0L155 690Q237 698 378 698Q493 698 533 653T557 490Q539 370 490 328T326 286Q218 286 140 292L99 0H58ZM144 322H325Q420 324 460 359T515 494Q529 592 499 627T378 662Q268 662 192 660L144 322Z" />
<glyph unicode="Q" glyph-name="Q" horiz-adv-x="662" d="M386 702Q529 702 577 621T597 343Q570 145 503 67T292 -12T100 68T79 347Q107 544 174 623T386 702ZM385 665Q261 665 204 595T121 343Q97 165 134 95T292 25Q415 25 472 95T555 347Q581 527 544 596T385
665ZM229 -73L246 -49Q335 -110 470 -132L455 -173Q317 -150 229 -73Z" />
<glyph unicode="R" glyph-name="R" horiz-adv-x="609" d="M58 0L155 690Q237 698 378 698Q491 698 532 656T559 500Q546 412 511 371T405 321V316Q456 300 471 219L516 0H473L429 219Q420 265 398 284T336 304Q301 305 257 305T186 306T142 308L98 0H58ZM146 341H329Q422
343 463 377T517 504Q530 596 500 629T378 662Q269 662 191 660L146 341Z" />
<glyph unicode="S" glyph-name="S" horiz-adv-x="555" d="M352 299L206 359Q134 389 110 430T94 542Q102 596 121 630T174 679T241 698T330 701Q436 699 520 687L515 657Q397 664 316 664Q281 664 263 663T219 656T180 636T154 598T136 536Q130 480 146 451T218
398L364 338Q442 306 466 267T480 152Q473 109 459 79T425 31T374 4T310 -8T229 -11Q127 -11 34 2L40 33Q156 25 240 26Q290 27 320 31T376 49T417 88T438 157Q446 218 429 246T352 299Z" />
<glyph unicode="T" glyph-name="T" horiz-adv-x="562" d="M590 654H352L260 0H219L311 654H74L79 690H595L590 654Z" />
<glyph unicode="U" glyph-name="U" horiz-adv-x="666" d="M629 690L568 256Q547 110 486 49T295 -12Q164 -12 117 50T89 259L149 690H191L130 256Q112 128 149 77T294 25Q403 25 456 78T527 259L587 690H629Z" />
<glyph unicode="V" glyph-name="V" horiz-adv-x="592" d="M625 690L300 12Q296 0 281 0H228Q213 0 211 14L76 690H118L231 107Q237 78 244 33H271Q275 44 281 57T294 85T305 110L581 690H625Z" />
<glyph unicode="W" glyph-name="W" horiz-adv-x="930" d="M954 690L687 13Q683 0 667 0H610Q595 0 593 16L535 581Q534 594 532 618T527 656H503L473 578L258 14Q253 0 238 0H181Q165 0 163 15L85 690H127L192 106Q194 82 198 32H226Q229 40 234 55T244 83T253
107L471 675Q476 690 490 690H544Q560 690 562 673L622 105Q622 101 628 32H656L683 107L911 690H954Z" />
<glyph unicode="X" glyph-name="X" horiz-adv-x="595" d="M359 359L521 0H478L325 343H291L41 0H-8L256 360L103 690H146L290 377H325L559 690H605L359 359Z" />
<glyph unicode="Y" glyph-name="Y" horiz-adv-x="543" d="M285 253L249 0H207L244 254L71 690H113L239 367Q257 320 265 295H272Q292 331 317 368L534 690H579L285 253Z" />
<glyph unicode="Z" glyph-name="Z" horiz-adv-x="555" d="M60 36H472L466 0H7L13 36L505 654H103L108 690H558L553 654L60 36Z" />
<glyph unicode="[" glyph-name="bracketleft" horiz-adv-x="312" d="M329 737H216Q201 737 199 723L81 -122Q80 -134 90 -134H207L202 -165H74Q58 -165 49 -155T42 -127L162 732Q169 768 203 768H333L329 737Z" />
<glyph unicode="\" glyph-name="backslash" horiz-adv-x="489" d="M410 -61H375L86 690H121L410 -61Z" />
<glyph unicode="]" glyph-name="bracketright" horiz-adv-x="312" d="M112 768H240Q256 768 265 757T273 730L152 -129Q150 -145 139 -155T112 -165H-19L-15 -134H99Q113 -134 115 -120L234 725Q236 737 224 737H108L112 768Z" />
<glyph unicode="^" glyph-name="asciicircum" horiz-adv-x="401" d="M391 380L371 367L250 546H242L68 367L49 381L233 582H263L391 380Z" />
<glyph unicode="_" glyph-name="underscore" horiz-adv-x="595" d="M473 -33H41L45 0H478L473 -33Z" />
<glyph unicode="`" glyph-name="grave" horiz-adv-x="287" d="M270 566L251 547L104 684L130 713L270 566Z" />
<glyph unicode="a" glyph-name="a" horiz-adv-x="566" d="M437 0H406L419 118Q365 57 300 23T181 -12Q93 -12 68 47T65 244Q89 396 138 445T313 494Q397 494 504 479L437 0ZM419 156L460 453Q346 459 321 459Q206 459 166 418T105 239Q85 122 101 73T185 24Q235
24 297 58T419 156Z" />
<glyph unicode="b" glyph-name="b" horiz-adv-x="564" d="M130 366Q268 494 364 494Q449 494 478 438T487 238Q473 133 446 79T376 7T258 -12Q166 -12 48 20L144 700H183L154 499Q142 420 130 366ZM132 335L91 41Q171 23 247 23Q353 23 390 65T446 243Q463 367
445 412T356 458Q313 458 260 428T132 335Z" />
<glyph unicode="c" glyph-name="c" horiz-adv-x="477" d="M395 35L399 7Q325 -12 247 -12Q124 -12 81 46T57 243Q76 381 134 437T312 494Q395 494 451 475L443 448Q398 458 319 458Q213 458 165 412T99 239Q81 114 115 69T253 24Q338 24 395 35Z" />
<glyph unicode="d" glyph-name="d" horiz-adv-x="565" d="M534 700L435 0H404L416 119Q297 -12 170 -12Q90 -12 67 49T63 244Q85 395 135 444T310 494Q384 494 467 483Q468 521 476 576L494 700H534ZM418 156L459 454Q362 459 320 459Q204 459 164 418T103 239Q85
128 100 76T178 24Q291 24 418 156Z" />
<glyph unicode="e" glyph-name="e" horiz-adv-x="529" d="M425 36L429 8Q361 -12 237 -12Q118 -12 78 47T58 247Q69 323 88 371T140 447T211 484T311 494Q411 494 453 461T477 344Q464 283 428 258T311 225L93 202Q83 98 118 61T248 23Q328 23 425 36ZM97 234L312
258Q374 265 400 283T438 347Q442 372 443 390T436 420T418 440T390 452T355 457T313 459Q259 459 227 452T168 421T126 356T99 244L97 234Z" />
<glyph unicode="f" glyph-name="f" horiz-adv-x="358" d="M424 680H318Q260 680 233 657T199 576L185 482H358L352 448H181L107 -73Q98 -142 66 -175T-31 -208Q-74 -208 -126 -203L-122 -173H-44Q10 -173 35 -150T68 -68L141 448H53L57 477L145 481L159 580Q168
648 202 681T305 715Q384 715 429 710L424 680Z" />
<glyph unicode="g" glyph-name="g" horiz-adv-x="571" d="M511 479L437 -2Q407 -203 204 -218Q111 -225 20 -212L25 -184Q120 -189 198 -183Q284 -175 333 -133T397 -5Q415 98 426 126Q371 61 304 25T180 -12Q94 -12 69 47T65 244Q89 396 138 445T311 494Q397
494 505 479H511ZM421 157L467 453Q345 459 321 459Q206 459 167 419T105 239Q85 123 101 74T186 24Q235 24 298 59T421 157Z" />
<glyph unicode="h" glyph-name="h" horiz-adv-x="570" d="M186 700L157 489Q149 431 135 368Q284 494 381 494Q444 494 473 460T494 361L443 0H403L454 355Q461 410 441 434T371 458Q322 458 268 428T135 333L87 0H48L147 700H186Z" />
<glyph unicode="i" glyph-name="i" horiz-adv-x="225" d="M158 683H176Q192 683 190 666L181 605Q180 591 165 591H148Q130 591 132 608L141 668Q142 683 158 683ZM91 0H52L120 482H159L91 0Z" />
<glyph unicode="j" glyph-name="j" horiz-adv-x="226" d="M158 683H176Q192 683 190 666L181 605Q180 591 165 591H148Q130 591 132 608L141 668Q142 683 158 683ZM159 482L86 -39Q73 -135 -10 -208L-31 -191Q35 -118 47 -36L120 482H159Z" />
<glyph unicode="k" glyph-name="k" horiz-adv-x="496" d="M429 482H470Q419 348 286 266L313 215L418 0H374L254 248Q197 218 115 191L87 0H48L147 700H186L135 323Q129 278 114 227Q358 305 429 482Z" />
<glyph unicode="l" glyph-name="l" horiz-adv-x="272" d="M187 700L104 105Q92 30 168 30H225L226 1Q204 -7 156 -7Q107 -7 82 21T63 101L148 700H187Z" />
<glyph unicode="m" glyph-name="m" horiz-adv-x="875" d="M146 482L134 368Q201 431 254 462T356 494Q417 494 446 463T470 373Q536 434 587 464T686 494Q750 494 779 460T799 361L748 0H709L759 355Q766 410 746 434T675 458Q632 458 587 430T465 336L418 0H379L429
355Q436 409 416 433T345 458Q301 458 255 430T134 335L87 0H48L116 482H146Z" />
<glyph unicode="n" glyph-name="n" horiz-adv-x="570" d="M147 482L134 368Q283 494 381 494Q444 494 473 460T494 361L443 0H403L454 355Q461 410 441 434T371 458Q323 458 269 429T134 335L87 0H48L116 482H147Z" />
<glyph unicode="o" glyph-name="o" horiz-adv-x="559" d="M305 494Q424 494 465 436T487 238Q467 100 412 44T240 -12Q121 -12 80 46T57 243Q77 381 132 437T305 494ZM305 458Q207 458 162 411T99 238Q82 116 113 70T240 23Q337 23 383 71T446 243Q463 365 432
411T305 458Z" />
<glyph unicode="p" glyph-name="p" horiz-adv-x="566" d="M147 482L135 363Q189 423 255 458T372 494Q460 494 484 436T488 238Q465 86 415 37T241 -12Q167 -12 84 -1Q83 -39 75 -94L57 -216H17L116 482H147ZM133 326L92 28Q208 22 231 22Q347 22 387 63T448 243Q467
360 451 409T367 458Q321 458 257 423T133 326Z" />
<glyph unicode="q" glyph-name="q" horiz-adv-x="565" d="M501 462L406 -216H366L396 -9Q409 74 421 124Q357 54 302 21T182 -12Q101 -12 72 44T63 244Q77 348 104 402T174 475T291 494Q385 494 501 462ZM419 155L459 441Q373 459 302 459Q197 459 159 417T103
239Q88 117 105 71T191 24Q246 24 293 52T419 155Z" />
<glyph unicode="r" glyph-name="r" horiz-adv-x="387" d="M394 494L383 456H364Q317 456 266 427T134 332L87 0H48L116 482H146L134 365Q273 494 373 494H394Z" />
<glyph unicode="s" glyph-name="s" horiz-adv-x="500" d="M310 197L157 257Q104 278 83 304T69 386Q80 455 123 475T264 494Q360 493 455 481L449 452Q332 458 265 459Q179 461 148 448T108 382Q102 343 116 325T171 290L325 230Q381 208 403 182T418 102Q413
64 397 41T351 6T290 -9T204 -12Q124 -12 30 1L35 30Q118 22 202 23Q299 25 335 40T379 107Q384 147 369 163T310 197Z" />
<glyph unicode="t" glyph-name="t" horiz-adv-x="350" d="M178 448L130 105Q118 30 194 30H280L281 1Q236 -7 190 -7Q133 -7 108 21T90 103L138 448H50L54 477L143 481L164 631H203L183 482H355L349 448H178Z" />
<glyph unicode="u" glyph-name="u" horiz-adv-x="559" d="M497 482L429 0H399L412 121Q279 -12 175 -12Q110 -12 81 22T61 121L112 482H152L101 127Q94 73 114 49T185 24Q235 24 286 55T412 157L458 482H497Z" />
<glyph unicode="v" glyph-name="v" horiz-adv-x="510" d="M453 482H494Q457 327 379 189Q316 80 274 30Q249 0 212 0H171Q157 0 155 13L55 482H97L187 33H205Q221 33 230 38T252 59Q295 113 346 206Q420 341 453 482Z" />
<glyph unicode="w" glyph-name="w" horiz-adv-x="823" d="M177 33H190Q211 33 229 58Q270 116 308 208Q354 315 391 471Q393 484 406 482H448Q461 482 463 470L527 33H539Q559 33 577 59Q634 143 665 207Q725 329 756 482H798Q758 311 696 189Q638 79 598 29Q572
0 539 0H511Q497 0 495 13L432 452H421Q392 314 342 198Q324 153 297 104T251 31Q228 0 189 0H161Q149 0 145 13L55 482H96L177 33Z" />
<glyph unicode="x" glyph-name="x" horiz-adv-x="507" d="M294 250L436 0H393L261 235H235L38 0H-10L203 251L72 482H114L234 268H263L445 482H491L294 250Z" />
<glyph unicode="y" glyph-name="y" horiz-adv-x="518" d="M455 482H496Q438 254 320 64Q241 -66 180 -129T45 -209L38 -182Q92 -165 139 -122T237 0H199Q180 0 167 11T150 39L53 482H95L184 57Q191 32 214 34H258L283 74Q394 257 455 482Z" />
<glyph unicode="z" glyph-name="z" horiz-adv-x="490" d="M459 447L63 34H404L399 0H9L14 34L409 447H76L80 482H464L459 447Z" />
<glyph unicode="{" glyph-name="braceleft" horiz-adv-x="303" d="M322 768L320 741Q264 741 238 716T204 637L177 439Q168 379 150 359T81 328Q128 311 142 290T149 218L114 -37Q106 -90 124 -114T199 -138L196 -165Q122 -166 94 -135T75 -36L112 232Q117 268
106 281T60 308Q56 309 54 310L60 348Q106 362 116 372Q130 386 136 431L166 641Q175 710 211 740T322 768Z" />
<glyph unicode="|" glyph-name="bar" horiz-adv-x="236" d="M70 -169H37L170 781H203L70 -169Z" />
<glyph unicode="}" glyph-name="braceright" horiz-adv-x="302" d="M110 741L112 768Q186 770 214 739T234 639L204 428Q198 382 207 371T258 346L252 308Q226 299 219 296T198 283T180 262T172 229L135 -38Q125 -107 90 -136T-20 -165L-18 -138Q38 -138 63 -113T96
-35L133 221Q140 273 158 292T230 328Q184 339 171 360T167 442L196 640Q203 694 185 717T110 741Z" />
<glyph unicode="~" glyph-name="asciitilde" horiz-adv-x="530" d="M100 236L76 239Q80 288 103 312T162 335Q205 332 264 302T362 269Q392 267 407 281T428 331L452 328Q448 282 425 258T366 236Q314 239 256 269T166 302Q109 308 100 236Z" />
<glyph unicode="&#xa0;" glyph-name="uni00A0" horiz-adv-x="228" />
<glyph unicode="&#xa1;" glyph-name="exclamdown" horiz-adv-x="236" d="M138 483H152Q168 483 167 465L158 407Q156 389 139 389H127Q108 389 111 407L119 467Q122 483 138 483ZM114 120L68 -203H28L74 120L100 278H133L114 120Z" />
<glyph unicode="&#xa2;" glyph-name="cent" horiz-adv-x="503" d="M467 583L459 556Q419 565 348 567L256 132H268Q340 132 411 144L415 115Q334 96 263 96L247 97L226 0H199L221 98Q124 107 90 166T74 352Q93 490 150 546T328 602H329L348 690H375L356 602Q427
598 467 583ZM229 134L321 567Q223 564 178 518T115 349Q99 236 125 189T229 134Z" />
<glyph unicode="&#xa3;" glyph-name="sterling" horiz-adv-x="560" d="M536 691L531 660Q433 665 357 665Q283 665 250 634T209 526L196 377H437L432 349H193L184 251Q177 173 155 120T82 35Q100 36 142 36H469L465 0H28L32 36Q86 66 111 118T144 249L153 349H71L75
377H156L169 527Q175 584 191 620T236 673T296 695T374 701Q445 701 536 691Z" />
<glyph unicode="&#xa4;" glyph-name="currency" horiz-adv-x="599" d="M546 550L468 482Q508 428 499 350Q490 271 441 221L510 142L489 124L421 203Q365 160 289 160Q211 160 162 207L84 138L65 159L144 228Q107 281 116 354Q125 437 177 487L108 566L129 585L198
506Q253 545 327 545Q403 545 449 502L528 572L546 550ZM283 187Q360 185 411 231T471 355Q478 426 440 472T327 518Q249 518 201 472T144 350Q136 279 174 234T283 187Z" />
<glyph unicode="&#xa5;" glyph-name="yen" horiz-adv-x="605" d="M343 310H517L513 282H323L319 277L309 200H502L497 172H305L280 0H239L263 172H75L79 200H267L278 278L276 282H91L94 310H264L102 690H145L272 391Q273 388 284 361T300 320H308Q326 350 355
391L565 690H611L343 310Z" />
<glyph unicode="&#xa6;" glyph-name="brokenbar" horiz-adv-x="236" d="M147 381H114L170 781H203L147 381ZM70 -169H37L93 231H126L70 -169Z" />
<glyph unicode="&#xa7;" glyph-name="section" horiz-adv-x="543" d="M368 332L196 439Q143 472 125 506T113 591Q123 659 168 681T308 702Q426 702 524 690L519 660Q424 666 315 667Q235 668 199 654T154 585Q144 515 213 474L383 369Q444 331 454 276T439 144L407
145Q426 212 419 258T368 332ZM101 409L133 407Q114 341 120 297T171 225L345 118Q396 87 415 52T427 -34Q421 -74 405 -98T361 -133T305 -146T231 -149Q125 -147 15 -137L20 -106Q149 -113 225 -114Q256 -114 273 -114T313 -109T348 -96T372 -70T386 -29Q394 42
328 83L158 187Q97 224 86 278T101 409Z" />
<glyph unicode="&#xa8;" glyph-name="dieresis" horiz-adv-x="402" d="M169 682H182Q196 682 195 667L187 614Q184 598 170 598H158Q144 598 145 613L153 667Q154 682 169 682ZM344 682H357Q372 682 370 667L362 614Q359 598 345 598H333Q319 598 320 613L328
667Q330 682 344 682Z" />
<glyph unicode="&#xa9;" glyph-name="copyright" horiz-adv-x="850" d="M479 702Q633 702 722 603T790 343Q769 185 661 87T387 -12Q233 -12 144 88T76 347Q96 504 204 603T479 702ZM479 677Q325 677 224 584T102 343Q83 195 164 104T386 13Q540 13 642 106T763
347Q782 494 702 585T479 677ZM550 156L553 132Q494 119 411 119Q300 119 263 170T243 350Q261 476 311 526T470 577Q545 577 601 564L594 542Q541 547 472 547Q378 547 336 504T276 345Q261 235 290 192T407 149Q502 149 550 156Z" />
<glyph unicode="&#xaa;" glyph-name="ordfeminine" horiz-adv-x="445" d="M355 270H329L336 342Q303 305 263 284T186 263Q123 263 100 297T90 434Q104 534 145 568T268 602Q319 602 400 591L355 270ZM338 371L366 571Q309 574 276 574Q200 574 168 547T123 431Q111
347 125 320T190 292Q257 292 338 371Z" />
<glyph unicode="&#xab;" glyph-name="guillemotleft" horiz-adv-x="458" d="M251 438L81 249L199 59L178 44L42 247L43 258L233 455L251 438ZM415 438L245 249L363 59L342 44L206 247L207 258L397 455L415 438Z" />
<glyph unicode="&#xac;" glyph-name="logicalnot" horiz-adv-x="590" d="M508 313L482 134H448L469 280H81L85 313H508Z" />
<glyph unicode="&#xad;" glyph-name="softhyphen" horiz-adv-x="473" d="M383 235H73L78 268H387L383 235Z" />
<glyph unicode="&#xae;" glyph-name="registered" horiz-adv-x="573" d="M334 701Q436 701 491 640T535 477Q523 381 458 319T293 256Q193 256 136 319T91 486Q102 587 169 644T334 701ZM514 482Q525 575 476 628T334 682Q239 682 180 628T111 482Q101 388 152
332T293 275Q384 275 443 333T514 482ZM191 341L230 617Q267 620 328 620T413 605T432 541Q428 506 413 490T362 469V467Q384 460 393 427L416 341H391L369 428Q360 461 325 461Q244 461 231 462L214 341H191ZM234 479H320Q366 480 385 492T409 544Q414 580 398
590T332 601L251 600L234 479Z" />
<glyph unicode="&#xaf;" glyph-name="overscore" horiz-adv-x="400" d="M386 621H121L125 654H390L386 621Z" />
<glyph unicode="&#xb0;" glyph-name="degree" horiz-adv-x="376" d="M239 702Q294 702 326 667T352 576Q346 520 307 487T215 453Q158 453 128 490T103 581Q109 635 147 668T239 702ZM281 675T238 675T166 648T132 577Q128 535 151 508T216 480T288 507T323 579Q328
621 305 648Z" />
<glyph unicode="&#xb1;" glyph-name="plusminus" horiz-adv-x="594" d="M518 366L513 334H319L298 190H266L286 334H91L96 366H290L310 510H344L323 366H518ZM61 120H484L479 88H56L61 120Z" />
<glyph unicode="&#xb2;" glyph-name="twosuperior" horiz-adv-x="429" d="M139 739L136 765Q209 781 271 781Q340 781 372 763T397 693Q391 654 367 620T289 537L125 392Q150 393 199 393H372L369 360H77L79 382Q81 393 86 397L255 548Q308 595 333 629T362 697Q365
730 344 740T271 750Q210 750 139 739Z" />
<glyph unicode="&#xb3;" glyph-name="threesuperior" horiz-adv-x="410" d="M142 744L139 771Q203 781 260 781Q336 781 364 759T386 684Q373 590 303 580L302 577Q384 566 370 474Q362 423 323 390T207 353Q144 350 76 363L82 390Q153 381 203 384Q322 392 336
480Q342 518 323 541T246 565H161L164 591L248 593Q287 593 311 608T342 640T353 681Q358 722 339 736T256 751Q214 751 142 744Z" />
<glyph unicode="&#xb4;" glyph-name="acute" horiz-adv-x="287" d="M301 683L120 547L103 567L278 714L301 683Z" />
<glyph unicode="&#xb6;" glyph-name="paragraph" horiz-adv-x="595" d="M211 -210L269 201Q37 227 72 467Q92 605 163 653T397 702Q476 702 546 685L449 0H413L507 663Q457 669 370 671L246 -210H211Z" />
<glyph unicode="&#xb7;" glyph-name="middot" horiz-adv-x="212" d="M100 304H115Q132 304 130 286L121 226Q120 210 103 210H88Q70 210 72 228L81 288Q84 304 100 304Z" />
<glyph unicode="&#xb8;" glyph-name="cedilla" horiz-adv-x="223" d="M53 -68L57 -47Q149 -41 136 -115Q128 -169 84 -199T-24 -222L-16 -199Q31 -201 65 -176T105 -112Q109 -87 98 -78T53 -68Z" />
<glyph unicode="&#xb9;" glyph-name="onesuperior" horiz-adv-x="283" d="M206 360H172L221 709Q224 728 228 741L104 706L102 731L230 774H265L206 360Z" />
<glyph unicode="&#xba;" glyph-name="ordmasculine" horiz-adv-x="445" d="M262 602Q348 602 378 564T394 430Q381 337 342 300T220 263Q135 263 106 301T89 435Q102 527 140 564T262 602ZM263 574Q195 574 165 543T123 430Q112 351 133 321T220 291T317 322T360
435Q371 515 350 544T263 574Z" />
<glyph unicode="&#xbb;" glyph-name="guillemotright" horiz-adv-x="457" d="M30 61L200 249L82 440L103 455L239 252L238 241L48 44L30 61ZM194 61L364 249L246 440L267 455L403 252L402 241L212 44L194 61Z" />
<glyph unicode="&#xbc;" glyph-name="onequarter" horiz-adv-x="839" d="M685 690L116 0H82L651 690H685ZM96 624L95 646L224 690H257L199 276H166L215 628Q220 653 222 660L96 624ZM767 114L720 111L704 0H673L688 110H470Q447 110 438 127T442 164L619 414H654L477
163Q470 153 474 145T491 137H692L710 266L726 336H751L724 137H771L767 114Z" />
<glyph unicode="&#xbd;" glyph-name="onehalf" horiz-adv-x="865" d="M114 0H80L648 690H682L114 0ZM198 276H165L214 628Q217 647 221 660L96 624L94 646L223 690H256L198 276ZM537 381L533 405Q608 421 669 421Q743 421 774 403T798 332Q793 295 768 261T687
177L518 29Q557 30 596 29H776L771 0H473L476 20Q477 28 484 35L655 186Q755 276 763 337Q767 372 745 382T671 392Q608 392 537 381Z" />
<glyph unicode="&#xbe;" glyph-name="threequarters" horiz-adv-x="931" d="M289 495L286 493Q369 481 359 386Q351 324 315 296T202 267Q149 267 61 277L65 302Q137 295 194 295Q257 295 287 318T325 394Q331 433 313 456T233 480H146L150 504L234 505Q332 507
344 596Q350 637 329 652T244 667Q190 667 126 661L123 685Q186 695 245 695Q327 695 356 674T377 597Q365 508 289 495ZM790 690L221 0H187L756 690H790ZM859 114L803 111L788 0H756L772 110H561Q539 110 530 127T533 164L711 414H745L568 163Q561 153 565 145T582
137H775L794 266L810 336H835L807 137H862L859 114Z" />
<glyph unicode="&#xbf;" glyph-name="questiondown" horiz-adv-x="497" d="M277 492H291Q309 492 306 475L298 415Q297 398 280 398H267Q250 398 251 416L260 477Q261 492 277 492ZM238 288L273 286Q266 234 242 192T187 120T126 65T71 7T42 -63Q33 -126 66 -155T182
-185Q276 -185 383 -172L387 -201Q375 -203 351 -207T315 -212T282 -216T235 -219T178 -220Q80 -220 35 -180T0 -62Q6 -21 30 14T85 77T148 132T205 200T238 288Z" />
<glyph unicode="&#xc0;" glyph-name="Agrave" horiz-adv-x="604" d="M392 734L245 871L271 900L410 753L392 734ZM458 242H140L21 0H-24L313 678Q317 690 331 690H387Q402 690 404 676L550 0H508L458 242ZM450 279L383 600Q382 607 378 626T372 656H342L315 599L157
279H450Z" />
<glyph unicode="&#xc1;" glyph-name="Aacute" horiz-adv-x="604" d="M333 734L316 755L491 901L514 870L333 734ZM458 242H140L21 0H-24L313 678Q317 690 331 690H387Q402 690 404 676L550 0H508L458 242ZM450 279L383 600Q382 607 378 626T372 656H342L315 599L157
279H450Z" />
<glyph unicode="&#xc2;" glyph-name="Acircumflex" horiz-adv-x="604" d="M234 745L221 765L372 884H401L522 763L505 746L389 847H380L234 745ZM458 242H140L21 0H-24L313 678Q317 690 331 690H387Q402 690 404 676L550 0H508L458 242ZM450 279L383 600Q382 607
378 626T372 656H342L315 599L157 279H450Z" />
<glyph unicode="&#xc3;" glyph-name="Atilde" horiz-adv-x="604" d="M511 866L534 863Q530 817 507 794T448 773Q411 776 373 805T314 838Q284 841 268 825T247 773L224 775Q228 823 252 848T311 870Q342 867 379 837T444 805Q502 799 511 866ZM458 242H140L21
0H-24L313 678Q317 690 331 690H387Q402 690 404 676L550 0H508L458 242ZM450 279L383 600Q382 607 378 626T372 656H342L315 599L157 279H450Z" />
<glyph unicode="&#xc4;" glyph-name="Adieresis" horiz-adv-x="604" d="M291 775H279Q265 775 266 790L274 844Q275 860 290 860H304Q317 860 316 844L308 791Q307 775 291 775ZM466 775H454Q440 775 441 790L449 844Q450 860 465 860H479Q492 860 491 844L483
791Q482 775 466 775ZM458 242H140L21 0H-24L313 678Q317 690 331 690H387Q402 690 404 676L550 0H508L458 242ZM450 279L383 600Q382 607 378 626T372 656H342L315 599L157 279H450Z" />
<glyph unicode="&#xc5;" glyph-name="Aring" horiz-adv-x="604" d="M370 718Q326 718 301 747T280 818Q285 857 314 885T386 913Q430 913 456 884T477 813Q472 774 443 746T370 718ZM307 814Q304 783 321 763T370 743T423 764T449 817Q453 847 436 867T386 888Q355
888 333 867T307 814ZM458 242H140L21 0H-24L313 678Q317 690 331 690H387Q402 690 404 676L550 0H508L458 242ZM450 279L383 600Q382 607 378 626T372 656H342L315 599L157 279H450Z" />
<glyph unicode="&#xc6;" glyph-name="AE" horiz-adv-x="906" d="M901 655H636Q601 655 577 634T546 575L520 385H822L817 351H515L482 112Q477 77 494 56T547 35H814L812 4Q720 0 539 0Q489 0 462 31T442 112L463 260H216L13 0H-33L435 600Q478 654 520 672T626
690Q803 690 906 686L901 655ZM468 295L508 581Q510 604 524 626T556 655H552Q511 639 469 584L244 295H468Z" />
<glyph unicode="&#xc7;" glyph-name="Ccedilla" horiz-adv-x="559" d="M478 38L483 7Q401 -12 291 -12Q147 -12 99 69T79 347Q107 544 175 623T385 702Q490 702 562 684L553 654Q476 665 386 665Q261 665 204 595T121 343Q96 165 133 95T290 25Q400 25 478 38ZM240
-80L245 -59Q337 -53 324 -127Q316 -181 272 -211T163 -234L171 -211Q219 -213 253 -188T293 -124Q296 -99 285 -90T240 -80Z" />
<glyph unicode="&#xc8;" glyph-name="Egrave" horiz-adv-x="551" d="M392 758L245 895L271 924L411 777L392 758ZM545 655H262Q184 655 173 575L146 385H467L462 352H142L109 112Q104 77 121 56T174 35H458V4Q362 0 167 0Q115 0 87 31T67 112L133 585Q140 633
172 661T255 690Q454 690 551 686L545 655Z" />
<glyph unicode="&#xc9;" glyph-name="Eacute" horiz-adv-x="551" d="M334 758L317 778L492 925L515 894L334 758ZM545 655H262Q184 655 173 575L146 385H467L462 352H142L109 112Q104 77 121 56T174 35H458V4Q362 0 167 0Q115 0 87 31T67 112L133 585Q140 633
172 661T255 690Q454 690 551 686L545 655Z" />
<glyph unicode="&#xca;" glyph-name="Ecircumflex" horiz-adv-x="551" d="M235 769L221 788L372 908H401L523 787L506 769L390 871H381L235 769ZM545 655H262Q184 655 173 575L146 385H467L462 352H142L109 112Q104 77 121 56T174 35H458V4Q362 0 167 0Q115 0
87 31T67 112L133 585Q140 633 172 661T255 690Q454 690 551 686L545 655Z" />
<glyph unicode="&#xcb;" glyph-name="Edieresis" horiz-adv-x="551" d="M292 799H280Q264 799 267 814L275 868Q276 883 291 883H304Q318 883 317 868L308 815Q307 799 292 799ZM467 799H455Q439 799 442 814L450 868Q451 883 466 883H479Q493 883 492 868L483
815Q482 799 467 799ZM545 655H262Q184 655 173 575L146 385H467L462 352H142L109 112Q104 77 121 56T174 35H458V4Q362 0 167 0Q115 0 87 31T67 112L133 585Q140 633 172 661T255 690Q454 690 551 686L545 655Z" />
<glyph unicode="&#xcc;" glyph-name="Igrave" horiz-adv-x="239" d="M224 753L206 734L59 871L85 900L224 753ZM99 0H58L155 690H196L99 0Z" />
<glyph unicode="&#xcd;" glyph-name="Iacute" horiz-adv-x="239" d="M328 870L147 734L130 755L305 901L328 870ZM99 0H58L155 690H196L99 0Z" />
<glyph unicode="&#xce;" glyph-name="Icircumflex" horiz-adv-x="239" d="M337 763L319 746L203 847H195L49 745L35 765L186 884H215L337 763ZM99 0H58L155 690H196L99 0Z" />
<glyph unicode="&#xcf;" glyph-name="Idieresis" horiz-adv-x="239" d="M104 860H118Q131 860 130 844L122 791Q121 775 106 775H93Q79 775 80 790L88 844Q91 860 104 860ZM279 860H293Q306 860 305 844L297 791Q296 775 280 775H268Q254 775 255 790L263 844Q266
860 279 860ZM99 0H58L155 690H196L99 0Z" />
<glyph unicode="&#xd0;" glyph-name="Eth" horiz-adv-x="659" d="M112 384L155 690Q276 699 383 699Q527 699 574 620T595 343Q567 141 500 66T287 -9Q180 -9 58 0L108 356H29L33 384H112ZM149 356L103 31Q187 28 286 28Q411 28 469 96T553 347Q578 526 541 594T382
662Q278 662 192 659L153 384H326L323 356H149Z" />
<glyph unicode="&#xd1;" glyph-name="Ntilde" horiz-adv-x="692" d="M297 773L274 775Q278 824 301 848T361 870Q391 867 428 837T494 805Q553 799 560 866L583 863Q579 817 556 794T497 773Q468 775 445 790T403 820T364 838Q306 844 297 773ZM649 690L555 19Q552
0 534 0H483Q467 0 461 17L240 580Q215 645 212 653H189Q183 601 179 571L99 0H58L152 671Q155 690 173 690H222Q238 690 244 673L460 123Q475 86 492 37H518Q529 123 530 126L608 690H649Z" />
<glyph unicode="&#xd2;" glyph-name="Ograve" horiz-adv-x="662" d="M441 753L422 734L275 871L301 900L441 753ZM386 702Q529 702 577 621T597 343Q570 145 503 67T292 -12T100 68T79 347Q107 544 174 623T386 702ZM385 665Q261 665 204 595T121 343Q97 165 134
95T292 25Q415 25 472 95T555 347Q581 527 544 596T385 665Z" />
<glyph unicode="&#xd3;" glyph-name="Oacute" horiz-adv-x="662" d="M545 870L364 734L347 755L522 901L545 870ZM386 702Q529 702 577 621T597 343Q570 145 503 67T292 -12T100 68T79 347Q107 544 174 623T386 702ZM385 665Q261 665 204 595T121 343Q97 165 134
95T292 25Q415 25 472 95T555 347Q581 527 544 596T385 665Z" />
<glyph unicode="&#xd4;" glyph-name="Ocircumflex" horiz-adv-x="662" d="M553 763L536 746L420 847H411L265 745L251 765L402 884H431L553 763ZM386 702Q529 702 577 621T597 343Q570 145 503 67T292 -12T100 68T79 347Q107 544 174 623T386 702ZM385 665Q261
665 204 595T121 343Q97 165 134 95T292 25Q415 25 472 95T555 347Q581 527 544 596T385 665Z" />
<glyph unicode="&#xd5;" glyph-name="Otilde" horiz-adv-x="662" d="M278 773L255 775Q259 824 282 848T342 870Q373 867 410 837T474 805Q534 799 541 866L564 863Q560 817 537 794T478 773Q449 775 426 790T384 820T345 838Q287 844 278 773ZM386 702Q529 702
577 621T597 343Q570 145 503 67T292 -12T100 68T79 347Q107 544 174 623T386 702ZM385 665Q261 665 204 595T121 343Q97 165 134 95T292 25Q415 25 472 95T555 347Q581 527 544 596T385 665Z" />
<glyph unicode="&#xd6;" glyph-name="Odieresis" horiz-adv-x="662" d="M321 860H334Q348 860 347 844L338 791Q337 775 322 775H310Q294 775 297 790L305 844Q306 860 321 860ZM496 860H509Q523 860 522 844L513 791Q512 775 497 775H484Q470 775 471 790L480
844Q481 860 496 860ZM386 702Q529 702 577 621T597 343Q570 145 503 67T292 -12T100 68T79 347Q107 544 174 623T386 702ZM385 665Q261 665 204 595T121 343Q97 165 134 95T292 25Q415 25 472 95T555 347Q581 527 544 596T385 665Z" />
<glyph unicode="&#xd7;" glyph-name="multiply" horiz-adv-x="526" d="M287 287L427 142L403 117L260 265L74 117L53 144L236 290L97 433L121 457L263 311L449 460L471 433L287 287Z" />
<glyph unicode="&#xd8;" glyph-name="Oslash" horiz-adv-x="662" d="M589 730L546 659Q591 621 603 544T597 343Q570 145 503 67T292 -12Q203 -12 154 16L112 -53L87 -39L131 32Q45 105 79 347Q107 544 174 623T386 702Q474 702 522 675L564 744L589 730ZM153
69L501 641Q461 665 385 665Q261 665 204 595T121 343Q106 237 113 170T153 69ZM524 623L175 51Q217 25 292 25Q415 25 472 95T555 347Q571 455 564 522T524 623Z" />
<glyph unicode="&#xd9;" glyph-name="Ugrave" horiz-adv-x="666" d="M440 753L421 734L274 871L300 900L440 753ZM629 690L568 256Q547 110 486 49T295 -12Q164 -12 117 50T89 259L149 690H191L130 256Q112 128 149 77T294 25Q403 25 456 78T527 259L587 690H629Z" />
<glyph unicode="&#xda;" glyph-name="Uacute" horiz-adv-x="666" d="M544 870L363 734L346 755L521 901L544 870ZM629 690L568 256Q547 110 486 49T295 -12Q164 -12 117 50T89 259L149 690H191L130 256Q112 128 149 77T294 25Q403 25 456 78T527 259L587 690H629Z" />
<glyph unicode="&#xdb;" glyph-name="Ucircumflex" horiz-adv-x="666" d="M552 763L535 746L419 847H410L264 745L250 765L401 884H430L552 763ZM629 690L568 256Q547 110 486 49T295 -12Q164 -12 117 50T89 259L149 690H191L130 256Q112 128 149 77T294 25Q403
25 456 78T527 259L587 690H629Z" />
<glyph unicode="&#xdc;" glyph-name="Udieresis" horiz-adv-x="666" d="M320 860H333Q347 860 346 844L337 791Q336 775 321 775H309Q293 775 296 790L304 844Q305 860 320 860ZM495 860H508Q522 860 521 844L512 791Q511 775 496 775H483Q469 775 470 790L479
844Q480 860 495 860ZM629 690L568 256Q547 110 486 49T295 -12Q164 -12 117 50T89 259L149 690H191L130 256Q112 128 149 77T294 25Q403 25 456 78T527 259L587 690H629Z" />
<glyph unicode="&#xdd;" glyph-name="Yacute" horiz-adv-x="543" d="M298 734L281 755L455 901L479 870L298 734ZM285 253L249 0H207L244 254L71 690H113L239 367Q257 320 265 295H272Q292 331 317 368L534 690H579L285 253Z" />
<glyph unicode="&#xde;" glyph-name="Thorn" horiz-adv-x="584" d="M197 690L178 554Q230 558 359 558Q473 558 514 513T537 349Q521 230 471 187T309 144Q212 144 121 151L100 0H58L136 549V550L155 690H197ZM125 181H306Q400 183 441 218T496 354Q509 453 480
487T359 522Q249 522 173 520L125 181Z" />
<glyph unicode="&#xdf;" glyph-name="germandbls" horiz-adv-x="653" d="M386 289L506 229Q554 205 572 179T584 103Q574 33 530 11T395 -11Q314 -11 240 0L245 30Q329 22 399 24Q470 25 503 41T544 109Q547 129 545 143T532 168T516 183T493 196Q488 199 486
200L366 260Q324 282 307 306T294 368Q295 380 298 390T305 408T317 424T329 437T346 448T363 458T384 468T405 476T429 485T454 494Q473 501 484 507T512 525T538 555T548 599Q550 627 539 643T493 670T391 680Q287 680 246 650T192 531L107 -73Q96 -146 64 -177T-37
-208Q-76 -208 -126 -203L-122 -173H-44Q10 -173 34 -150T68 -68L141 448H53L57 477L145 481L153 535Q160 583 175 616T209 669T258 698T314 711T381 714Q497 714 544 689T585 596Q581 545 553 517T470 467Q462 464 436 455T402 443T377 431T353 414T341 393T332
364Q330 338 342 322T386 289Z" />
<glyph unicode="&#xe0;" glyph-name="agrave" horiz-adv-x="566" d="M350 552L203 689L229 718L368 571L350 552ZM437 0H406L419 118Q365 57 300 23T181 -12Q93 -12 68 47T65 244Q89 396 138 445T313 494Q397 494 504 479L437 0ZM419 156L460 453Q346 459 321
459Q206 459 166 418T105 239Q85 122 101 73T185 24Q235 24 297 58T419 156Z" />
<glyph unicode="&#xe1;" glyph-name="aacute" horiz-adv-x="566" d="M292 552L274 573L449 719L473 688L292 552ZM437 0H406L419 118Q365 57 300 23T181 -12Q93 -12 68 47T65 244Q89 396 138 445T313 494Q397 494 504 479L437 0ZM419 156L460 453Q346 459 321
459Q206 459 166 418T105 239Q85 122 101 73T185 24Q235 24 297 58T419 156Z" />
<glyph unicode="&#xe2;" glyph-name="acircumflex" horiz-adv-x="566" d="M193 564L179 583L330 703H359L481 582L464 564L348 666H339L193 564ZM437 0H406L419 118Q365 57 300 23T181 -12Q93 -12 68 47T65 244Q89 396 138 445T313 494Q397 494 504 479L437 0ZM419
156L460 453Q346 459 321 459Q206 459 166 418T105 239Q85 122 101 73T185 24Q235 24 297 58T419 156Z" />
<glyph unicode="&#xe3;" glyph-name="atilde" horiz-adv-x="566" d="M469 684L492 682Q488 636 465 612T406 591Q369 594 331 624T273 656Q216 662 205 591L182 594Q187 643 210 667T269 688Q300 685 337 656T402 623Q433 621 448 635T469 684ZM437 0H406L419
118Q365 57 300 23T181 -12Q93 -12 68 47T65 244Q89 396 138 445T313 494Q397 494 504 479L437 0ZM419 156L460 453Q346 459 321 459Q206 459 166 418T105 239Q85 122 101 73T185 24Q235 24 297 58T419 156Z" />
<glyph unicode="&#xe4;" glyph-name="adieresis" horiz-adv-x="566" d="M250 594H237Q223 594 224 609L233 663Q234 678 249 678H262Q277 678 274 663L266 610Q265 594 250 594ZM425 594H412Q398 594 399 609L407 663Q410 678 424 678H437Q452 678 449 663L441
610Q440 594 425 594ZM437 0H406L419 118Q365 57 300 23T181 -12Q93 -12 68 47T65 244Q89 396 138 445T313 494Q397 494 504 479L437 0ZM419 156L460 453Q346 459 321 459Q206 459 166 418T105 239Q85 122 101 73T185 24Q235 24 297 58T419 156Z" />
<glyph unicode="&#xe5;" glyph-name="aring" horiz-adv-x="566" d="M328 536Q284 536 259 565T238 636Q243 676 272 704T345 732T414 703T435 632Q430 593 401 565T328 536ZM266 632Q262 602 280 582T329 562Q359 562 381 583T407 636Q411 665 394 685T345 706T291
685T266 632ZM437 0H406L419 118Q365 57 300 23T181 -12Q93 -12 68 47T65 244Q89 396 138 445T313 494Q397 494 504 479L437 0ZM419 156L460 453Q346 459 321 459Q206 459 166 418T105 239Q85 122 101 73T185 24Q235 24 297 58T419 156Z" />
<glyph unicode="&#xe6;" glyph-name="ae" horiz-adv-x="872" d="M766 36L770 8Q703 -12 579 -12Q494 -12 451 17T397 111Q292 -12 171 -12Q87 -12 65 50T63 244Q86 395 136 444T307 494Q400 494 520 472Q570 494 653 494Q753 494 795 461T819 344Q806 283 770
258T654 225L436 202Q425 98 460 61T590 23Q671 23 766 36ZM176 24Q280 24 393 145Q392 186 401 247Q421 390 481 446Q355 459 315 459Q256 459 221 450T162 415T126 349T103 239Q84 126 99 75T176 24ZM440 234L654 258Q716 265 742 283T780 347Q784 372 785 390T778
420T760 440T732 452T697 457T656 459Q602 459 570 452T510 421T468 356T441 244L440 234Z" />
<glyph unicode="&#xe7;" glyph-name="ccedilla" horiz-adv-x="477" d="M395 35L399 7Q325 -12 247 -12Q124 -12 81 46T57 243Q76 381 134 437T312 494Q395 494 451 475L443 448Q398 458 319 458Q213 458 165 412T99 239Q81 114 115 69T253 24Q338 24 395 35ZM195
-80L200 -59Q245 -56 265 -72T279 -127Q271 -181 227 -211T118 -234L126 -211Q174 -213 207 -188T247 -124Q251 -99 240 -90T195 -80Z" />
<glyph unicode="&#xe8;" glyph-name="egrave" horiz-adv-x="529" d="M340 552L193 689L219 718L359 571L340 552ZM425 36L429 8Q361 -12 237 -12Q118 -12 78 47T58 247Q69 323 88 371T140 447T211 484T311 494Q411 494 453 461T477 344Q464 283 428 258T311 225L93
202Q83 98 118 61T248 23Q328 23 425 36ZM97 234L312 258Q374 265 400 283T438 347Q442 372 443 390T436 420T418 440T390 452T355 457T313 459Q259 459 227 452T168 421T126 356T99 244L97 234Z" />
<glyph unicode="&#xe9;" glyph-name="eacute" horiz-adv-x="529" d="M282 552L265 573L439 719L463 688L282 552ZM425 36L429 8Q361 -12 237 -12Q118 -12 78 47T58 247Q69 323 88 371T140 447T211 484T311 494Q411 494 453 461T477 344Q464 283 428 258T311 225L93
202Q83 98 118 61T248 23Q328 23 425 36ZM97 234L312 258Q374 265 400 283T438 347Q442 372 443 390T436 420T418 440T390 452T355 457T313 459Q259 459 227 452T168 421T126 356T99 244L97 234Z" />
<glyph unicode="&#xea;" glyph-name="ecircumflex" horiz-adv-x="529" d="M183 564L169 583L320 703H349L471 582L454 564L338 666H329L183 564ZM425 36L429 8Q361 -12 237 -12Q118 -12 78 47T58 247Q69 323 88 371T140 447T211 484T311 494Q411 494 453 461T477
344Q464 283 428 258T311 225L93 202Q83 98 118 61T248 23Q328 23 425 36ZM97 234L312 258Q374 265 400 283T438 347Q442 372 443 390T436 420T418 440T390 452T355 457T313 459Q259 459 227 452T168 421T126 356T99 244L97 234Z" />
<glyph unicode="&#xeb;" glyph-name="edieresis" horiz-adv-x="529" d="M240 594H227Q213 594 214 609L223 663Q224 678 239 678H252Q266 678 265 663L256 610Q255 594 240 594ZM415 594H402Q388 594 389 609L398 663Q400 678 414 678H427Q442 678 439 663L431
610Q430 594 415 594ZM425 36L429 8Q361 -12 237 -12Q118 -12 78 47T58 247Q69 323 88 371T140 447T211 484T311 494Q411 494 453 461T477 344Q464 283 428 258T311 225L93 202Q83 98 118 61T248 23Q328 23 425 36ZM97 234L312 258Q374 265 400 283T438 347Q442
372 443 390T436 420T418 440T390 452T355 457T313 459Q259 459 227 452T168 421T126 356T99 244L97 234Z" />
<glyph unicode="&#xec;" glyph-name="igrave" horiz-adv-x="225" d="M192 571L174 552L27 689L53 718L192 571ZM91 0H52L120 482H160L91 0Z" />
<glyph unicode="&#xed;" glyph-name="iacute" horiz-adv-x="225" d="M296 688L115 552L98 573L273 719L296 688ZM91 0H52L120 482H160L91 0Z" />
<glyph unicode="&#xee;" glyph-name="icircumflex" horiz-adv-x="225" d="M305 582L287 564L171 666H163L17 564L3 583L154 703H183L305 582ZM91 0H52L120 482H160L91 0Z" />
<glyph unicode="&#xef;" glyph-name="idieresis" horiz-adv-x="225" d="M72 678H86Q100 678 98 663L90 610Q89 594 74 594H61Q47 594 48 609L56 663Q59 678 72 678ZM247 678H261Q274 678 273 663L265 610Q264 594 248 594H236Q222 594 223 609L231 663Q234 678
247 678ZM91 0H52L120 482H160L91 0Z" />
<glyph unicode="&#xf0;" glyph-name="eth" horiz-adv-x="548" d="M482 679L398 625Q504 521 470 278Q461 211 448 166T410 76T339 10T229 -12Q123 -12 81 44T55 223Q86 447 279 447Q385 447 439 376Q442 532 367 605L268 541L256 562L347 622Q283 669 169 669L177
698Q304 700 378 642L469 701L482 679ZM229 23Q328 23 371 88T432 289Q436 327 438 344Q384 412 281 412Q194 412 151 361T96 217Q81 112 113 68T229 23Z" />
<glyph unicode="&#xf1;" glyph-name="ntilde" horiz-adv-x="570" d="M459 684L482 682Q478 636 455 612T396 591Q359 594 321 624T263 656Q206 662 195 591L173 594Q177 643 200 667T260 688Q291 685 328 656T392 623Q423 621 438 635T459 684ZM147 482L134 368Q283
494 381 494Q444 494 473 460T494 361L443 0H403L454 355Q461 410 441 434T371 458Q323 458 269 429T134 335L87 0H48L116 482H147Z" />
<glyph unicode="&#xf2;" glyph-name="ograve" horiz-adv-x="559" d="M358 571L340 552L193 689L219 718L358 571ZM305 494Q424 494 465 436T487 238Q467 100 412 44T240 -12Q121 -12 80 46T57 243Q77 381 132 437T305 494ZM305 458Q207 458 162 411T99 238Q82
116 113 70T240 23Q337 23 383 71T446 243Q463 365 432 411T305 458Z" />
<glyph unicode="&#xf3;" glyph-name="oacute" horiz-adv-x="559" d="M462 688L281 552L264 573L439 719L462 688ZM305 494Q424 494 465 436T487 238Q467 100 412 44T240 -12Q121 -12 80 46T57 243Q77 381 132 437T305 494ZM305 458Q207 458 162 411T99 238Q82
116 113 70T240 23Q337 23 383 71T446 243Q463 365 432 411T305 458Z" />
<glyph unicode="&#xf4;" glyph-name="ocircumflex" horiz-adv-x="559" d="M471 582L453 564L337 666H329L183 564L169 583L320 703H349L471 582ZM305 494Q424 494 465 436T487 238Q467 100 412 44T240 -12Q121 -12 80 46T57 243Q77 381 132 437T305 494ZM305 458Q207
458 162 411T99 238Q82 116 113 70T240 23Q337 23 383 71T446 243Q463 365 432 411T305 458Z" />
<glyph unicode="&#xf5;" glyph-name="otilde" horiz-adv-x="559" d="M195 591L172 594Q176 642 200 666T259 688Q290 685 327 656T392 623Q450 619 459 684L482 682Q478 636 455 612T396 591Q359 594 321 624T263 656Q232 659 216 643T195 591ZM305 494Q424 494
465 436T487 238Q467 100 412 44T240 -12Q121 -12 80 46T57 243Q77 381 132 437T305 494ZM305 458Q207 458 162 411T99 238Q82 116 113 70T240 23Q337 23 383 71T446 243Q463 365 432 411T305 458Z" />
<glyph unicode="&#xf6;" glyph-name="odieresis" horiz-adv-x="559" d="M238 678H252Q266 678 264 663L256 610Q255 594 240 594H227Q213 594 214 609L222 663Q225 678 238 678ZM413 678H427Q440 678 439 663L431 610Q430 594 414 594H402Q388 594 389 609L397
663Q400 678 413 678ZM305 494Q424 494 465 436T487 238Q467 100 412 44T240 -12Q121 -12 80 46T57 243Q77 381 132 437T305 494ZM305 458Q207 458 162 411T99 238Q82 116 113 70T240 23Q337 23 383 71T446 243Q463 365 432 411T305 458Z" />
<glyph unicode="&#xf7;" glyph-name="divide" horiz-adv-x="583" d="M313 508H326Q345 507 342 490L334 431Q331 415 315 415H302Q284 415 286 433L295 491Q297 508 313 508ZM501 279H79L83 312H506L501 279ZM267 175H281Q299 175 296 157L287 98Q286 83 269 83H256Q239
83 240 101L249 158Q250 175 267 175Z" />
<glyph unicode="&#xf8;" glyph-name="oslash" horiz-adv-x="559" d="M469 533L430 468Q512 419 487 238Q467 100 412 44T240 -12Q184 -12 146 0L106 -65L83 -52L121 10Q74 35 59 91T57 243Q77 381 132 437T305 494Q366 494 406 479L446 545L469 533ZM141 43L386
447Q357 458 305 458Q207 458 162 411T99 238Q87 156 96 110T141 43ZM410 435L165 32Q196 23 240 23Q337 23 383 71T446 243Q457 321 449 367T410 435Z" />
<glyph unicode="&#xf9;" glyph-name="ugrave" horiz-adv-x="559" d="M338 553L191 690L217 719L356 572L338 553ZM497 482L429 0H399L412 121Q279 -12 175 -12Q110 -12 81 22T61 121L112 482H152L101 127Q94 73 114 49T185 24Q235 24 286 55T412 157L458 482H497Z" />
<glyph unicode="&#xfa;" glyph-name="uacute" horiz-adv-x="559" d="M279 553L262 574L437 720L460 689L279 553ZM497 482L429 0H399L412 121Q279 -12 175 -12Q110 -12 81 22T61 121L112 482H152L101 127Q94 73 114 49T185 24Q235 24 286 55T412 157L458 482H497Z" />
<glyph unicode="&#xfb;" glyph-name="ucircumflex" horiz-adv-x="559" d="M181 565L167 584L318 704H347L469 583L452 565L335 667H327L181 565ZM497 482L429 0H399L412 121Q279 -12 175 -12Q110 -12 81 22T61 121L112 482H152L101 127Q94 73 114 49T185 24Q235
24 286 55T412 157L458 482H497Z" />
<glyph unicode="&#xfc;" glyph-name="udieresis" horiz-adv-x="559" d="M238 595H225Q211 595 212 610L220 664Q223 679 236 679H250Q265 679 262 664L254 611Q253 595 238 595ZM413 595H400Q386 595 387 610L395 664Q398 679 411 679H425Q438 679 437 664L429
611Q428 595 413 595ZM497 482L429 0H399L412 121Q279 -12 175 -12Q110 -12 81 22T61 121L112 482H152L101 127Q94 73 114 49T185 24Q235 24 286 55T412 157L458 482H497Z" />
<glyph unicode="&#xfd;" glyph-name="yacute" horiz-adv-x="518" d="M248 552L231 573L406 719L429 688L248 552ZM455 482H496Q438 254 320 64Q241 -66 180 -129T45 -209L38 -182Q92 -165 139 -122T237 0H199Q180 0 167 11T150 39L53 482H95L184 57Q191 32 214
34H258L283 74Q394 257 455 482Z" />
<glyph unicode="&#xfe;" glyph-name="thorn" horiz-adv-x="566" d="M187 700L153 460Q144 394 137 366Q191 427 255 460T373 494Q460 494 484 436T488 238Q466 86 416 37T242 -12Q169 -12 87 -1Q86 -14 77 -87L59 -208H20L147 700H187ZM134 326L93 29Q181 23 232
23Q347 23 387 64T448 243Q467 360 451 409T368 458Q318 458 256 424T134 326Z" />
<glyph unicode="&#xff;" glyph-name="ydieresis" horiz-adv-x="518" d="M206 594H194Q180 594 181 609L189 663Q190 678 205 678H219Q232 678 231 663L223 610Q222 594 206 594ZM381 594H369Q355 594 356 609L364 663Q366 678 380 678H394Q408 678 406 663L398
610Q397 594 381 594ZM455 482H496Q438 254 320 64Q241 -66 180 -129T45 -209L38 -182Q92 -165 139 -122T237 0H199Q180 0 167 11T150 39L53 482H95L184 57Q191 32 214 34H258L283 74Q394 257 455 482Z" />
<glyph unicode="&#x2013;" glyph-name="endash" horiz-adv-x="613" d="M524 235H74L78 268H528L524 235Z" />
<glyph unicode="&#x2014;" glyph-name="emdash" horiz-adv-x="922" d="M832 235H74L78 268H837L832 235Z" />
<glyph unicode="&#x2018;" glyph-name="quoteleft" horiz-adv-x="200" d="M137 518H122Q107 518 110 534L119 599Q126 656 159 729L181 722Q165 668 155 609Q160 610 163 606T165 595L156 534Q154 525 151 522T137 518Z" />
<glyph unicode="&#x2019;" glyph-name="quoteright" horiz-adv-x="199" d="M154 720H169Q184 720 181 704L172 639Q165 584 132 509L111 517Q129 581 136 629Q131 628 128 632T126 643L135 705Q137 714 140 717T154 720Z" />
<glyph unicode="&#x201a;" glyph-name="quotesinglbase" horiz-adv-x="211" d="M72 92H88Q103 92 100 76L91 12Q82 -49 49 -118L27 -111Q45 -53 54 1Q41 1 43 15L52 77Q54 92 72 92Z" />
<glyph unicode="&#x201c;" glyph-name="quotedblleft" horiz-adv-x="324" d="M261 518H246Q231 518 234 534L243 599Q250 656 283 729L305 722Q289 668 279 609Q284 610 287 606T289 595L280 534Q278 525 275 522T261 518ZM137 518H122Q107 518 110 534L119 599Q126
656 159 729L181 722Q165 668 155 609Q160 610 163 606T165 595L156 534Q154 525 151 522T137 518Z" />
<glyph unicode="&#x201d;" glyph-name="quotedblright" horiz-adv-x="323" d="M154 720H169Q184 720 181 704L172 639Q165 584 132 509L111 517Q129 581 136 629Q131 628 128 632T126 643L135 705Q137 714 140 717T154 720ZM278 720H293Q308 720 305 704L296 639Q289
584 256 509L235 517Q253 581 260 629Q255 628 252 632T250 643L259 705Q261 714 264 717T278 720Z" />
<glyph unicode="&#x201e;" glyph-name="quotedblbase" horiz-adv-x="333" d="M70 92H85Q100 92 97 76L88 11Q81 -45 48 -119L27 -111Q44 -49 53 1Q47 0 44 4T42 15L51 77Q53 86 56 89T70 92ZM194 92H209Q224 92 221 76L212 11Q205 -45 172 -119L151 -111Q168 -49
177 1Q171 0 168 4T166 15L175 77Q177 86 180 89T194 92Z" />
<glyph unicode="&#x2022;" glyph-name="bullet" horiz-adv-x="354" d="M179 342H189Q227 342 240 326T250 272L248 258Q243 219 227 206T170 193H160Q120 193 106 208T98 264L100 278Q105 317 121 329T179 342Z" />
<glyph unicode="&#x2039;" glyph-name="guilsinglleft" horiz-adv-x="294" d="M251 438L81 249L199 59L178 44L42 247L43 258L233 455L251 438Z" />
<glyph unicode="&#x203a;" glyph-name="guilsinglright" horiz-adv-x="294" d="M240 254L239 243L48 44L30 61L202 252L84 441L104 455L240 254Z" />
</font>
</defs>
</svg>
