<?xml version="1.0" standalone="no"?>
<!DOCTYPE svg PUBLIC "-//W3C//DTD SVG 1.1//EN" "http://www.w3.org/Graphics/SVG/1.1/DTD/svg11.dtd">
<svg xmlns="http://www.w3.org/2000/svg">
<defs >
<font id="StardosStencil" horiz-adv-x="952" ><font-face
    font-family="Stardos Stencil"
    units-per-em="2048"
    panose-1="2 0 5 3 8 0 0 2 0 3"
    ascent="1994"
    descent="-831"
    alphabetic="0" />
<glyph unicode=" " glyph-name="space" horiz-adv-x="576" />
<glyph unicode="!" glyph-name="exclam" horiz-adv-x="682" d="M290 428Q270 592 231 810T178 1107T165 1234T175 1323T208 1392Q253 1452 341 1452Q514 1452 514 1235Q514 1174 482 998Q412 606 391 428H290ZM188 82Q175 114 175 151T187 221T222 277Q269 328
343 328Q417 328 464 277Q512 226 512 152Q512 77 464 26Q417 -25 343 -25Q229 -25 188 82Z" />
<glyph unicode="&quot;" glyph-name="quotedbl" horiz-adv-x="768" d="M524 868Q480 1163 480 1334Q480 1452 584 1452T689 1334T676 1099T655 923T643 852T632 830Q613 805 591 805T557 812T539 830Q527 848 524 868ZM121 868Q77 1163 77 1334Q77 1452 181 1452T286
1334T273 1099T252 923T240 852T228 830Q210 805 188 805T154 812T136 830Q124 848 121 868Z" />
<glyph unicode="#" glyph-name="numbersign" horiz-adv-x="1153" d="M1074 410H860L796 0H587L647 410H424L359 0H152L214 410H11V584H244L283 836H79V1010H311L373 1421H583L521 1010H745L809 1421H1017L955 1010H1141V836H926L887 584H1074V410ZM493 836L454
584H677L717 836H493Z" />
<glyph unicode="$" glyph-name="dollar" horiz-adv-x="1153" d="M425 1277Q371 1230 371 1149T408 1024T514 950V1563H633V907Q715 873 790 837T924 750Q1053 640 1053 461Q1053 314 964 196Q874 77 723 31L722 160Q805 222 805 340Q805 464 708 530Q676 551 633
569V-164H514V608Q344 676 276 735T173 860T138 1003T156 1138T210 1244Q286 1347 425 1391V1277ZM277 221Q290 139 425 116V15Q286 42 190 132Q92 227 92 342Q92 424 136 470Q175 511 233 511Q291 511 334 470Q379 426 379 371T366 295T336 260T302 239T277 221ZM779
1260Q767 1295 722 1313V1406Q906 1371 969 1239Q989 1197 989 1159T980 1094T953 1048Q914 1006 842 1006Q738 1006 711 1082Q703 1104 703 1128Q703 1190 779 1260Z" />
<glyph unicode="%" glyph-name="percent" horiz-adv-x="1579" d="M365 -31H237L1211 1452H1339L365 -31ZM1148 698Q1089 646 1089 381T1148 61V-11Q1014 4 940 120Q871 226 871 379Q871 533 940 638Q1014 753 1148 768V698ZM1237 61Q1296 116 1296 381T1237 698V768Q1371
753 1446 638Q1514 533 1514 379Q1514 226 1446 120Q1371 4 1237 -11V61ZM342 1383Q283 1331 283 1066T342 746V674Q208 689 134 804Q65 911 65 1064Q65 1218 134 1323Q208 1438 342 1453V1383ZM431 746Q490 801 490 1066T431 1383V1453Q565 1438 640 1323Q708
1218 708 1064Q708 911 640 804Q565 689 431 674V746Z" />
<glyph unicode="&amp;" glyph-name="ampersand" horiz-adv-x="1599" d="M701 -30L675 -31Q412 -31 251 72Q89 177 89 343Q89 526 246 651Q295 690 355 718L432 598Q415 539 415 402Q415 292 498 204Q583 113 701 97V-30ZM752 920Q899 1009 899 1178Q899 1233 868
1274T770 1324V1452Q912 1442 1003 1364Q1097 1284 1097 1163Q1097 989 918 888Q866 858 811 831L752 920ZM1519 129T1452 59T1255 -12T1012 99Q908 4 770 -22V97Q861 107 927 170Q900 200 859 241T770 332T670 439T567 559T471 688T391 822Q316 971 316 1071T343
1236T420 1348Q523 1442 701 1452V1324Q638 1314 607 1277T576 1182Q576 1068 692 898Q896 598 1118 387Q1156 488 1156 555T1138 645T1095 678T1041 692T994 709V782H1481V711Q1458 701 1435 695T1392 678Q1346 654 1324 594Q1254 400 1193 299Q1287 198 1316
186T1366 174T1403 180T1433 203Q1456 231 1476 307L1551 274Q1519 129 1452 59Z" />
<glyph unicode="&apos;" glyph-name="quotesingle" horiz-adv-x="512" d="M202 1440Q222 1452 255 1452T308 1441T340 1412Q359 1383 359 1300Q359 1141 319 868Q313 832 293 819T256 805T228 812T210 830Q197 847 194 868Q150 1163 150 1332Q150 1410 202 1440Z" />
<glyph unicode="(" glyph-name="parenleft" horiz-adv-x="1023" d="M901 1378Q671 1333 561 1090Q466 880 466 530Q466 -17 690 -220Q774 -295 901 -319V-401Q682 -393 512 -255Q273 -61 202 302Q180 415 180 533T203 766T269 980T376 1163T520 1310Q689 1441
901 1462V1378Z" />
<glyph unicode=")" glyph-name="parenright" horiz-adv-x="1023" d="M123 1462Q340 1452 510 1314Q749 1119 820 758Q842 646 842 496T791 184T646 -102T419 -305T123 -401V-319Q556 -234 556 530Q556 1077 334 1278Q250 1354 123 1378V1462Z" />
<glyph unicode="*" glyph-name="asterisk" horiz-adv-x="963" d="M923 1212L599 1044L923 874L835 719L540 958L564 569H400L424 958L129 719L40 874L365 1044L40 1212L129 1370L424 1128L400 1520H564L540 1128L835 1370L923 1212Z" />
<glyph unicode="+" glyph-name="plus" horiz-adv-x="1383" d="M570 981H812V598H1243V383H812V0H570V383H139V598H570V981Z" />
<glyph unicode="," glyph-name="comma" horiz-adv-x="577" d="M129 -319Q156 -286 187 -251T246 -178Q311 -92 321 -20Q215 -14 163 33T111 160Q111 231 158 282Q208 336 270 336T367 317T427 266Q475 200 475 123T456 -13T402 -133Q329 -260 210 -381L129 -319Z" />
<glyph unicode="-" glyph-name="hyphen" horiz-adv-x="638" d="M51 389V590H587V389H51Z" />
<glyph unicode="." glyph-name="period" horiz-adv-x="576" d="M119 158Q119 232 166 283Q214 334 288 334Q362 334 410 283Q457 232 457 158Q457 84 410 33Q362 -18 288 -18Q214 -18 166 33Q119 84 119 158Z" />
<glyph unicode="/" glyph-name="slash" horiz-adv-x="640" d="M127 -31H-111L514 1452H751L127 -31Z" />
<glyph unicode="0" glyph-name="zero" horiz-adv-x="1153" d="M533 -30Q311 -14 194 189Q83 381 83 711Q83 1036 195 1230Q312 1434 533 1452V1350Q467 1311 440 1151T413 713T440 274T533 72V-30ZM622 72Q686 112 713 271T740 711Q740 991 713 1149T622 1349V1452Q839
1432 956 1228Q1069 1032 1069 711Q1069 388 956 193Q838 -9 622 -29V72Z" />
<glyph unicode="1" glyph-name="one" horiz-adv-x="1152" d="M356 1169Q303 1161 212 1161V1245Q293 1282 356 1322V1169ZM445 1347Q582 1414 611 1434H759V219Q759 137 832 110Q864 99 900 93T965 74V0H237V74Q269 86 305 92T373 110Q445 138 445 219V1347Z" />
<glyph unicode="2" glyph-name="two" horiz-adv-x="1153" d="M92 0V250Q172 343 246 421T385 569T503 700T594 824Q673 952 673 1085Q673 1234 602 1308Q579 1332 549 1344V1452Q760 1448 887 1337T1014 1047Q1014 883 831 694Q751 611 597 470T340 228H448V0H92ZM540
228H640Q816 228 871 334Q886 363 898 392Q928 468 959 490H998V0H540V228ZM460 1355Q342 1346 294 1271Q280 1249 277 1225Q360 1220 402 1161Q435 1115 435 1068T424 992T392 943Q350 899 293 899T202 914T146 956Q99 1010 99 1087T124 1223T197 1330Q297 1430
460 1452V1355Z" />
<glyph unicode="3" glyph-name="three" horiz-adv-x="1153" d="M593 1361Q458 1361 424 1255Q442 1245 465 1236T510 1210Q562 1170 562 1095Q562 981 463 948Q433 938 398 938T333 950T280 986Q233 1037 233 1112T258 1241T331 1339Q431 1430 593 1452V1361ZM593
-31Q416 -25 306 63Q201 147 201 279Q201 373 264 427Q319 474 397 474T509 436T543 335T526 246T486 203T437 182T397 168Q407 117 455 92T572 66H582Q588 66 593 67V-31ZM798 1079Q798 1276 682 1334V1452Q876 1452 1004 1352Q1134 1250 1134 1094Q1134 944 1019
857Q937 795 788 764L786 760Q962 737 1056 664Q1176 574 1176 399Q1176 222 1038 104Q901 -15 682 -29V89Q821 153 821 381Q821 638 660 686Q609 702 544 702H482Q456 702 443 718T429 753Q429 772 442 789T482 807H548Q798 807 798 1079Z" />
<glyph unicode="4" glyph-name="four" horiz-adv-x="1152" d="M472 938L175 500H472V383H39V510L472 1136V938ZM973 500H1152V383H973V500ZM885 172Q885 118 934 98Q956 90 981 83T1030 57V0H389V74Q418 86 448 92T504 110Q561 135 561 207V1264L675 1430H885V172Z" />
<glyph unicode="5" glyph-name="five" horiz-adv-x="1153" d="M443 -20Q287 -8 192 80Q99 165 99 290Q99 422 206 466Q239 480 278 480T346 468T396 436Q436 396 436 331Q436 270 368 236Q325 215 313 202T300 169T311 132T341 100Q381 74 443 72V-20ZM758 1137Q529
1137 279 1147V682Q279 613 220 613T161 692L166 770L167 1425Q393 1401 612 1401T887 1456Q917 1456 938 1446Q938 1208 758 1137ZM610 759T568 781T470 803T368 775V884Q452 928 551 928T741 894T900 799Q1045 668 1045 463Q1045 255 902 124Q763 -6 532 -20V87Q616
117 659 205T703 408T687 594T640 712Z" />
<glyph unicode="6" glyph-name="six" horiz-adv-x="1153" d="M694 1169Q694 1267 787 1319Q787 1336 746 1351T636 1366V1452Q811 1448 913 1368Q1005 1294 1005 1196Q1005 1084 914 1042Q884 1028 846 1028T779 1040T732 1072Q694 1112 694 1169ZM525 875Q591
909 681 909T846 868T972 760Q1072 628 1072 434Q1072 256 956 127Q832 -12 636 -20V72Q689 91 712 182T735 404T727 602T702 712Q669 797 588 797Q550 797 525 784V875ZM547 1341Q436 1239 436 817V468Q436 274 454 208T493 112T547 71V-20Q321 7 200 198Q88 377
88 651Q88 954 206 1178Q285 1328 410 1402Q473 1440 547 1452V1341Z" />
<glyph unicode="7" glyph-name="seven" horiz-adv-x="1153" d="M157 1436Q294 1421 330 1421H979L775 1163H567Q378 1163 308 1061Q283 1025 257 968T209 887H157V1436ZM556 -21Q369 -21 369 195Q369 440 692 898Q785 1030 887 1163L1084 1421V1264Q912 1039 844
896T746 642T716 413L727 179Q727 -21 556 -21Z" />
<glyph unicode="8" glyph-name="eight" horiz-adv-x="1152" d="M717 905Q782 974 782 1109Q782 1261 686 1330Q653 1354 610 1360V1452Q786 1442 890 1352Q1000 1258 1000 1102Q1000 969 901 890Q870 866 832 844L717 905ZM393 560Q316 475 316 350Q316 190 426
109Q462 82 511 72V-20Q331 -12 210 86Q81 189 81 352Q81 508 277 629L393 560ZM509 590T468 609T368 663T256 745T170 842Q115 927 115 1026T143 1195T224 1320Q338 1436 521 1452V1361Q454 1350 413 1298T371 1168T404 1040T487 952T592 886T718 823T856 745T968
652Q1055 555 1055 410Q1055 233 929 114Q803 -4 600 -20V72Q683 85 731 150Q774 207 774 277T755 388T705 460T634 519T551 568Z" />
<glyph unicode="9" glyph-name="nine" horiz-adv-x="1153" d="M422 263Q422 158 332 113Q332 80 434 69Q463 66 493 66V-20Q308 -16 202 63Q106 135 106 234Q106 348 202 390Q233 404 272 404T338 392T384 360Q422 321 422 263ZM488 648Q516 629 550 629T618 638V548Q547
516 463 516T303 554T176 656Q71 787 71 977Q71 1158 192 1294Q320 1439 518 1452V1357Q408 1308 408 971Q408 704 488 648ZM707 1006Q707 1313 607 1360V1452Q826 1429 947 1230Q1058 1048 1058 768Q1058 465 937 246Q808 12 582 -20V76Q707 147 707 567V1006Z"
/>
<glyph unicode=":" glyph-name="colon" horiz-adv-x="576" d="M119 158Q119 232 166 283Q214 334 288 334Q362 334 410 283Q457 232 457 158Q457 84 410 33Q362 -18 288 -18Q214 -18 166 33Q119 84 119 158ZM119 782Q119 856 166 907Q214 958 288 958Q362 958
410 907Q457 856 457 782Q457 708 410 657Q362 606 288 606Q214 606 166 657Q119 708 119 782Z" />
<glyph unicode=";" glyph-name="semicolon" horiz-adv-x="577" d="M129 -319Q156 -286 187 -251T246 -178Q311 -92 321 -20Q215 -14 163 33T111 160Q111 231 158 282Q208 336 270 336T367 317T427 266Q475 200 475 123T456 -13T402 -133Q329 -260 210 -381L129
-319ZM120 782Q120 856 167 907Q214 958 289 958Q362 958 410 907Q457 856 457 782Q457 708 410 657Q362 606 289 606Q174 606 132 713Q120 745 120 782Z" />
<glyph unicode="&lt;" glyph-name="less" horiz-adv-x="1384" d="M225 381L139 412V569L1245 997V772L225 381ZM641 428L1245 207V-16L357 319L641 428Z" />
<glyph unicode="=" glyph-name="equal" horiz-adv-x="1383" d="M1243 594H139V809H1243V594ZM1243 170H139V385H1243V170Z" />
<glyph unicode="&gt;" glyph-name="greater" horiz-adv-x="1384" d="M1159 600L1245 569V412L139 -16V209L1159 600ZM743 553L139 774V997L1027 662L743 553Z" />
<glyph unicode="?" glyph-name="question" horiz-adv-x="1109" d="M467 1349Q366 1339 348 1274Q427 1263 457 1192Q468 1165 468 1112T425 1019T304 979Q233 979 189 1030Q147 1080 147 1146T171 1264T240 1352Q328 1429 467 1443V1349ZM556 1445Q844 1434 948
1254Q984 1190 984 1109T954 975T877 880T778 801T678 723Q571 628 571 510V420H457V516Q457 643 558 791T659 1090Q659 1291 555 1338L556 1445ZM360 82Q348 114 348 151T360 221T395 277Q442 328 517 328Q590 328 637 277Q684 226 684 152Q684 77 637 26Q590
-25 517 -25Q402 -25 360 82Z" />
<glyph unicode="@" glyph-name="at" horiz-adv-x="1844" d="M1016 129Q1257 132 1467 229L1489 102Q1241 -24 1016 -31V129ZM927 -29Q523 -9 290 230Q88 438 88 678Q88 896 204 1074Q314 1243 506 1344Q697 1443 927 1451V1291Q692 1278 542 1129Q374 962 374
672Q374 454 544 298Q704 153 927 132V-29ZM1280 508Q1280 412 1349 412Q1387 412 1427 447T1501 539Q1577 670 1577 815Q1577 992 1426 1129Q1265 1275 1017 1290L1016 1451Q1333 1437 1544 1258Q1644 1173 1700 1060T1757 817Q1757 637 1640 482Q1560 375 1441
332Q1380 309 1315 309T1208 328T1140 372Q1093 420 1093 463H1089Q1072 423 1017 385Q907 309 812 309Q660 309 600 454Q579 505 579 566T592 686T632 803T698 916T788 1011Q903 1102 1043 1102Q1102 1102 1155 1070L1117 959Q1095 973 1059 973T976 943T891 862Q801
743 801 592Q801 523 825 481T896 438T983 470T1054 552Q1110 639 1154 785L1241 1069H1423L1289 573Q1280 547 1280 508Z" />
<glyph unicode="A" glyph-name="A" horiz-adv-x="1343" d="M496 1205L352 1249Q358 1291 360 1324T368 1384Q455 1423 657 1448Q689 1452 713 1452Q738 1422 749 1395L1212 229Q1242 152 1281 116T1381 74V0H742V63Q767 78 793 85T842 100Q890 114 890 150Q890
170 871 219L496 1205ZM513 896L288 252Q272 207 272 177T289 131T331 105T386 88T440 68V0H-39V68Q-19 81 4 89T52 110Q108 143 136 219L447 1073L513 896ZM693 426H447L480 532H653L693 426Z" />
<glyph unicode="B" glyph-name="B" horiz-adv-x="1408" d="M621 801Q901 801 901 1065Q901 1254 758 1307Q709 1325 674 1325H632Q626 1325 621 1324V1421H793Q1031 1421 1144 1333T1258 1081Q1258 942 1154 858Q1062 784 906 764V760Q1093 754 1210 666Q1339
568 1339 397Q1339 223 1205 117Q1058 0 785 0H621V110Q638 106 673 106Q971 106 971 397T621 688V801ZM532 0H57V74Q84 85 109 90T156 106Q200 128 200 190V1229Q200 1292 156 1314Q135 1324 110 1329T57 1346V1421H532V0Z" />
<glyph unicode="C" glyph-name="C" horiz-adv-x="1282" d="M762 108Q887 110 964 188Q1063 286 1078 512L1193 473Q1165 139 954 26Q875 -16 762 -20V108ZM428 723Q428 162 673 108V-20Q395 -8 224 197Q57 399 57 709Q57 1030 232 1241Q315 1340 428 1396T673
1452V1324Q476 1293 440 958Q428 852 428 723ZM762 1452Q844 1440 900 1413T977 1375T1012 1364T1036 1380T1059 1421H1154V905H1078Q1053 940 1020 1021T966 1148T916 1230Q851 1313 762 1324V1452Z" />
<glyph unicode="D" glyph-name="D" horiz-adv-x="1515" d="M539 0H64V74Q91 85 116 90T162 106Q207 128 207 190V1229Q207 1292 162 1314Q142 1324 117 1329T64 1346V1421H539V0ZM937 1252T868 1288T728 1325T628 1321V1421H726Q1081 1421 1270 1201Q1438 1005
1438 711Q1438 406 1264 212Q1074 0 737 0H628V100Q660 96 728 96T865 126T980 229Q1067 368 1067 711Q1067 1030 981 1177Q937 1252 868 1288Z" />
<glyph unicode="E" glyph-name="E" horiz-adv-x="1344" d="M550 1421V0H77V74Q104 85 129 90T175 106Q220 128 220 190V1229Q220 1292 175 1314Q155 1324 130 1329T77 1346V1421H550ZM639 100Q689 96 766 96T904 120T1004 181T1065 265T1103 355T1135 437T1181
496H1249V0H639V100ZM914 1283T862 1304T739 1325T639 1322V1421H865Q1090 1421 1192 1436V952H1122Q1097 976 1080 1013T1046 1091T1006 1174T949 1249ZM639 846H972V590H639V846Z" />
<glyph unicode="F" glyph-name="F" horiz-adv-x="1238" d="M539 1421V244Q539 163 557 139T592 109T628 98T670 90T717 74V0H64V74Q91 85 116 90T162 106Q207 128 207 190V1184Q207 1263 191 1285T162 1314T132 1323Q86 1332 64 1346V1421H539ZM935 1421Q1105
1421 1183 1436V952H1113Q1083 977 1066 1014T1033 1093T997 1176T938 1250Q855 1325 687 1325Q655 1325 628 1322V1421H935ZM628 795L681 799Q784 806 815 873Q824 892 832 912Q855 966 881 991H955V496H881Q856 517 839 553T809 607T774 641Q726 675 628 680V795Z"
/>
<glyph unicode="G" glyph-name="G" horiz-adv-x="1408" d="M662 1324Q431 1272 431 709T662 108V-20H641Q512 -20 405 37T222 194Q60 405 60 711Q60 1015 226 1226Q334 1364 492 1420Q572 1449 662 1452V1324ZM751 1452Q884 1439 1002 1362Q1024 1348 1038 1348Q1061
1348 1092 1421H1182V901H1108Q1085 928 1055 1012T1004 1144T949 1231Q873 1320 751 1324V1452ZM751 108Q832 116 865 169T899 302T897 432T878 524Q842 614 728 614V692H1339Q1336 677 1333 664T1327 636T1321 610Q1267 586 1249 549T1231 457V336Q1231 37 935
-4Q848 -16 751 -20V108Z" />
<glyph unicode="H" glyph-name="H" horiz-adv-x="1537" d="M541 190Q541 129 584 106Q603 96 626 91T671 74V0H67V74Q94 85 119 90T165 106Q209 128 209 190V1180Q209 1263 194 1285T165 1313T135 1322Q85 1334 67 1346V1421H671V1346Q649 1335 626 1330T584 1314Q541
1291 541 1229V190ZM994 1229Q994 1292 951 1314Q932 1323 909 1329T865 1346V1421H1469V1346Q1442 1335 1417 1330T1370 1314Q1326 1292 1326 1229V240Q1326 157 1342 134T1371 105T1401 96Q1447 87 1469 74V0H865V74Q886 85 909 91T951 106Q994 128 994 190V1229ZM905
684H630V797H905V684Z" />
<glyph unicode="I" glyph-name="I" horiz-adv-x="767" d="M217 1180Q217 1262 202 1284T173 1313T143 1323T110 1331T74 1346V1421H689V1346Q671 1335 654 1331T621 1323T592 1313T569 1292Q548 1262 548 1180V240Q548 157 563 135T592 106T622 96Q670 86 689
74V0H74V74Q101 85 126 90T172 106Q217 128 217 190V1180Z" />
<glyph unicode="J" glyph-name="J" horiz-adv-x="1089" d="M358 -20Q206 -3 111 82Q7 174 7 320Q7 466 119 514Q154 529 193 529T262 519T316 488Q365 445 365 368Q365 278 268 215Q241 198 217 189Q223 163 259 139T358 108V-20ZM447 108Q571 133 571 271V1229Q571
1293 524 1314Q503 1323 474 1329T411 1346V1421H1051V1346Q1022 1335 995 1329T948 1314Q903 1293 903 1229V380Q903 79 640 6Q555 -17 447 -20V108Z" />
<glyph unicode="K" glyph-name="K" horiz-adv-x="1513" d="M682 858L1026 1188Q1079 1239 1079 1266T1068 1303T1039 1319T998 1331T949 1346V1421H1466V1348Q1449 1335 1427 1330T1380 1318Q1315 1300 1273 1262Q1241 1234 1211 1204L912 916L1349 252Q1432 126
1512 89Q1533 79 1556 66V0H916V74Q928 81 946 87T982 102Q1022 122 1022 146Q1022 183 980 246L682 706V858ZM593 190Q593 129 636 106Q654 96 676 91T718 74V0H118V74Q139 89 169 94T214 105T238 124Q261 153 261 231V1188Q261 1296 215 1314Q201 1320 185 1324Q136
1334 118 1346V1421H722V1346Q701 1335 678 1330T636 1317Q593 1299 593 1245V190Z" />
<glyph unicode="L" glyph-name="L" horiz-adv-x="1173" d="M648 97Q654 96 661 96T675 96Q901 96 980 266Q1001 312 1016 356T1047 439T1089 498H1157V0H648V97ZM558 0H83V74Q110 85 135 90T181 106Q226 128 226 190V1229Q226 1292 181 1314Q161 1324 136 1329T83
1346V1421H708V1346Q678 1335 651 1330T604 1314Q558 1292 558 1229V0Z" />
<glyph unicode="M" glyph-name="M" horiz-adv-x="1765" d="M407 673V221Q407 140 462 112Q485 99 512 92T565 70V0H121V70Q142 85 168 92T218 112Q273 140 273 221V1030L407 673ZM311 1180Q294 1222 280 1254Q254 1260 227 1266T172 1278Q114 1293 82 1306V1421H564L997
287L925 0H753L311 1180ZM969 607L1173 1421H1701V1346Q1674 1335 1649 1330T1604 1314Q1560 1292 1560 1229V190Q1560 128 1604 106Q1624 96 1649 91T1701 74V0H1092V74Q1119 85 1144 90T1190 106Q1235 128 1235 190V1206H1230L1037 431L969 607Z" />
<glyph unicode="N" glyph-name="N" horiz-adv-x="1449" d="M1143 668V1229Q1143 1291 1094 1314Q1072 1325 1044 1331T987 1350V1421H1431V1350Q1403 1338 1376 1332T1326 1314Q1277 1291 1277 1229V470L1143 668ZM345 966V215Q345 122 455 92Q484 84 510 72V0H53V72Q78
84 105 92T156 114Q211 145 211 215V1165L345 966ZM254 1260Q206 1269 169 1276Q85 1290 62 1296V1421H527L1277 311V0H1104L254 1260Z" />
<glyph unicode="O" glyph-name="O" horiz-adv-x="1473" d="M701 -20Q412 -7 238 210Q74 412 74 711T235 1217Q407 1438 691 1452V1324Q490 1292 455 926Q445 821 445 711T455 497T494 310Q557 130 701 108V-20ZM1025 711Q1025 1289 780 1324V1452Q1066 1437 1236
1217Q1397 1009 1397 711Q1397 414 1239 210Q1072 -5 790 -20V108Q983 134 1016 496Q1025 600 1025 711Z" />
<glyph unicode="P" glyph-name="P" horiz-adv-x="1238" d="M562 190Q562 128 608 106Q629 96 657 91T718 74V0H78V74Q108 85 135 90T184 106Q230 128 230 190V1229Q230 1292 184 1314Q163 1324 136 1329T78 1346V1421H562V190ZM651 739Q758 751 809 815Q864 884
864 1028Q864 1254 735 1304Q696 1319 651 1322V1421H746Q988 1421 1110 1312Q1220 1214 1220 1032Q1220 725 918 660Q817 639 684 639H651V739Z" />
<glyph unicode="Q" glyph-name="Q" horiz-adv-x="1473" d="M1239 -165T1282 -189T1360 -213T1444 -176L1515 -241Q1449 -336 1326 -369Q1281 -381 1212 -381T1077 -349T960 -267T867 -161T790 -56V108Q982 134 1016 498Q1025 602 1025 711Q1025 1289 780 1324V1452Q1066
1437 1236 1217Q1397 1009 1397 711Q1397 452 1272 258Q1139 52 914 -2Q1028 -35 1184 -132Q1239 -165 1282 -189ZM691 1324Q445 1285 445 716T701 108V-20Q413 -7 238 212Q74 415 74 711Q74 1010 235 1217Q407 1438 691 1452V1324Z" />
<glyph unicode="R" glyph-name="R" horiz-adv-x="1414" d="M1366 128Q1283 -21 1090 -21Q917 -21 845 142Q812 217 788 311T746 457Q705 574 638 625V772Q757 783 808 836Q868 900 868 1038Q868 1195 813 1258Q762 1318 638 1324V1421H756Q990 1421 1114 1314Q1226
1218 1226 1059Q1226 819 977 740Q897 714 795 709V700Q888 685 930 656Q1024 591 1076 463Q1094 420 1110 375T1143 287T1177 210Q1217 135 1259 135Q1280 135 1296 159T1324 195T1349 207T1366 206V128ZM549 1421V190Q549 128 594 106Q615 96 640 91T693 74V0H76V74Q103
85 128 90T174 106Q219 128 219 190V1229Q219 1292 174 1314Q154 1324 129 1329T76 1346V1421H549Z" />
<glyph unicode="S" glyph-name="S" horiz-adv-x="1217" d="M640 1452Q734 1437 836 1372Q854 1360 870 1360T902 1378T935 1421H1025V936H949Q921 966 889 1036T837 1148T789 1226Q728 1306 640 1324V1452ZM257 61Q220 61 195 1H94V524H161Q198 501 230 426T286
303T344 214Q423 120 551 108V-20Q458 -14 390 12T297 50T257 61ZM640 108Q737 119 792 172T848 305T816 430T730 511T609 574T470 631T331 693T210 773Q92 875 92 1032Q92 1193 210 1315Q342 1450 551 1452V1324Q470 1316 421 1272T371 1164T403 1058T489 984T610
925T748 870T887 807T1008 724Q1126 617 1126 455Q1126 265 1006 136Q873 -9 640 -20V108Z" />
<glyph unicode="T" glyph-name="T" horiz-adv-x="1283" d="M30 1436Q159 1421 173 1421H386V1320Q231 1305 186 1164Q174 1124 162 1086Q131 986 92 954H30V1436ZM808 248Q808 136 858 110Q881 99 910 95T972 74V0H308V74Q340 85 370 92T424 112Q475 140 475 203V1421H808V248ZM1110
1421Q1124 1421 1253 1436V954H1191Q1152 986 1131 1055T1096 1163T1060 1236Q1009 1309 897 1320V1421H1110Z" />
<glyph unicode="U" glyph-name="U" horiz-adv-x="1408" d="M854 108Q1004 118 1063 196Q1117 268 1117 432V1223Q1117 1293 1065 1316Q1042 1327 1015 1332T961 1350V1421H1399V1350Q1377 1339 1352 1334T1304 1320Q1254 1297 1254 1233V444Q1254 232 1166 122Q1072
5 854 -20V108ZM765 -20Q314 -20 214 192Q180 263 180 358V1233Q180 1296 130 1317Q109 1326 84 1331T35 1350V1421H671V1350Q643 1339 616 1335T568 1321Q521 1301 521 1239V399Q521 200 649 137Q696 114 765 108V-20Z" />
<glyph unicode="V" glyph-name="V" horiz-adv-x="1217" d="M752 469L994 1176Q1007 1215 1007 1248T992 1295T956 1315T912 1324T873 1343V1421H1287V1346Q1270 1334 1250 1328T1210 1312Q1162 1288 1146 1239L814 291L752 469ZM787 217L710 0H537L95 1241Q70
1311 -11 1330Q-32 1335 -51 1346V1421H585V1348Q562 1339 537 1333T490 1318Q440 1298 440 1255Q440 1230 468 1149L787 217Z" />
<glyph unicode="W" glyph-name="W" horiz-adv-x="1793" d="M693 260L609 0H451L71 1235Q51 1300 14 1322Q-2 1331 -17 1336T-46 1352V1421H535V1350Q515 1340 494 1334T456 1318Q415 1297 415 1260T428 1179T457 1085L693 260ZM1403 577L1577 1149Q1599 1223 1599
1251T1585 1292T1549 1314T1499 1330T1447 1348V1421H1869V1348Q1848 1336 1827 1327T1786 1304Q1743 1271 1717 1192L1459 386L1403 577ZM1421 268L1333 0H1179L901 889H897L732 374L674 574L839 1077Q828 1111 820 1152T797 1230Q762 1316 678 1325Q659 1341
659 1368V1421H1272V1343Q1250 1331 1226 1326T1180 1315Q1132 1301 1132 1257Q1132 1239 1139 1217T1151 1176L1421 268Z" />
<glyph unicode="X" glyph-name="X" horiz-adv-x="1344" d="M569 492L411 252Q365 183 365 157T379 118T414 99T461 87T508 70V0H9V70Q30 80 55 86T108 104Q171 130 214 193L497 610L569 492ZM790 991L929 1196Q961 1242 961 1267T949 1304T918 1322T879 1334T839
1350V1421H1305V1348Q1281 1339 1254 1334T1200 1318Q1134 1294 1097 1239L856 882L790 991ZM1185 199Q1231 121 1322 91Q1343 84 1360 74V0H706V72Q728 83 751 88T794 100Q839 115 839 150Q839 186 788 270L264 1139Q176 1285 152 1301T110 1323T74 1334T39 1346V1421H683V1350Q659
1340 635 1335T592 1324Q550 1311 550 1280Q550 1264 593 1192L1185 199Z" />
<glyph unicode="Y" glyph-name="Y" horiz-adv-x="1153" d="M757 665V180Q757 122 804 104Q826 95 854 90T915 74V0H262V74Q294 85 323 90T376 104Q425 123 425 178V614L115 1208Q62 1310 -18 1331Q-37 1336 -53 1346V1421H588V1346Q566 1337 542 1332T498 1320Q454
1306 454 1272Q454 1251 471 1219T510 1145L757 665ZM739 864L869 1120Q924 1228 924 1258T911 1300T876 1319T830 1331T781 1346V1421H1206V1350Q1190 1337 1173 1331T1138 1314Q1091 1288 1058 1223L803 730L739 864Z" />
<glyph unicode="Z" glyph-name="Z" horiz-adv-x="1153" d="M493 107L605 113Q842 126 924 266Q949 310 984 391T1049 508H1120V0H433L493 107ZM132 1436Q244 1421 385 1421H716L662 1325H636Q405 1325 315 1197Q274 1138 248 1067T203 958H132V1436ZM795 1421H1089V1315L353
0H77V150L795 1421Z" />
<glyph unicode="[" glyph-name="bracketleft" horiz-adv-x="1023" d="M563 -186Q563 -245 630 -268Q659 -279 694 -285T765 -301V-375H306V1438H765V1364Q730 1354 695 1348T630 1330Q563 1305 563 1247V-186Z" />
<glyph unicode="\" glyph-name="backslash" horiz-adv-x="640" d="M-111 1452H127L751 -31H512L-111 1452Z" />
<glyph unicode="]" glyph-name="bracketright" horiz-adv-x="1023" d="M717 -375H258V-301Q292 -291 328 -285T394 -268Q461 -244 461 -186V1247Q461 1324 328 1348Q292 1354 258 1364V1438H717V-375Z" />
<glyph unicode="^" glyph-name="asciicircum" horiz-adv-x="1383" d="M209 713L587 1421H794L1173 713H929L691 1184L451 713H209Z" />
<glyph unicode="_" glyph-name="underscore" horiz-adv-x="1153" d="M0 -256V-154H1153V-256H0Z" />
<glyph unicode="`" glyph-name="grave" horiz-adv-x="641" d="M367 1120L53 1303Q6 1330 -7 1343Q-30 1367 -30 1397T-21 1443T4 1470Q34 1493 67 1493Q135 1493 199 1427L491 1120H367Z" />
<glyph unicode="a" glyph-name="a" horiz-adv-x="1153" d="M887 -15Q736 -15 659 54V648Q659 776 648 814Q628 890 566 905V1025Q957 1011 957 673V225Q957 105 1013 105Q1059 105 1069 227L1141 209Q1116 40 994 0Q950 -15 887 -15ZM570 33Q513 -15 421 -15T267
2T162 54Q67 128 67 257Q67 405 205 491Q304 553 570 625V519Q392 449 392 273Q392 158 446 118Q465 105 501 105T570 128V33ZM359 841Q427 810 427 749Q427 672 338 648Q313 642 288 642Q215 642 177 683T139 780T161 877T226 950Q319 1017 477 1025V905Q398 900
359 841Z" />
<glyph unicode="b" glyph-name="b" horiz-adv-x="1152" d="M123 0Q134 158 134 192V1279Q134 1334 87 1354Q67 1362 45 1368T7 1386V1455H431V-1Q358 25 288 76Q264 59 205 0H123ZM570 105Q731 105 731 505T565 905Q541 905 520 895V994Q582 1025 661 1025T813
986T942 878Q1063 725 1063 508Q1063 287 942 142Q811 -15 588 -15Q568 -15 520 -9V113Q544 105 570 105Z" />
<glyph unicode="c" glyph-name="c" horiz-adv-x="1003" d="M748 868Q725 903 658 905V1025Q798 1013 886 936Q970 862 970 760Q970 696 941 662Q888 600 810 600Q739 600 694 642Q654 678 654 729Q654 818 748 868ZM658 105Q802 108 862 236Q881 276 893 323L986
281Q924 15 658 -15V105ZM569 -15Q345 -13 200 135Q62 277 62 491Q62 719 196 866Q335 1017 569 1025V905Q481 881 434 779T387 510Q387 262 486 156Q521 120 569 105V-15Z" />
<glyph unicode="d" glyph-name="d" horiz-adv-x="1152" d="M699 94V1281Q699 1334 652 1354Q632 1362 609 1367T567 1386V1455H996V168Q996 116 1042 97Q1061 89 1081 83T1117 64V0H712L699 94ZM610 15Q550 -15 465 -15T303 24T172 132Q57 273 57 484Q57 712 190
872Q319 1025 497 1025Q566 1025 610 1006V892Q589 905 548 905T475 873T424 788Q389 689 389 558T394 352T416 222Q451 105 546 105Q590 105 610 123V15Z" />
<glyph unicode="e" glyph-name="e" horiz-adv-x="1089" d="M625 105Q826 115 895 327L987 285Q912 10 625 -15V105ZM595 1025Q801 1010 904 861Q996 729 996 508H481V610H688Q688 738 669 812T595 905V1025ZM536 -15Q319 2 186 154Q62 295 62 501Q62 717 187 864Q311
1011 506 1025V905Q440 882 414 781T387 554T393 365T417 252Q452 147 536 105V-15Z" />
<glyph unicode="f" glyph-name="f" horiz-adv-x="747" d="M486 170Q486 116 544 100Q569 92 600 86T662 64V0H46V64Q68 77 93 83T140 97Q189 116 189 168V871H39V943Q51 956 70 959T112 965Q169 973 189 1001Q196 1223 252 1330Q319 1461 486 1487V170ZM596 1396Q585
1396 575 1394V1487Q722 1487 797 1432T873 1279Q873 1186 786 1154Q758 1143 708 1143T623 1176T587 1256T609 1327T659 1361Q649 1396 596 1396ZM575 981H717V871H575V981Z" />
<glyph unicode="g" glyph-name="g" horiz-adv-x="1102" d="M177 24Q76 56 76 134Q76 217 194 300L308 264Q269 234 269 154Q690 154 848 88Q928 55 959 4T990 -119T955 -249T859 -351Q734 -441 552 -449V-352Q695 -346 736 -246Q748 -217 748 -184Q748 -124 687
-85T536 -46Q396 -46 333 -55Q318 -92 318 -137V-196Q318 -261 349 -301T463 -350V-448Q228 -435 150 -267Q123 -209 123 -126T177 24ZM858 1085Q794 1085 794 1005Q794 965 804 953T826 932T868 894Q932 831 932 684Q932 523 820 422Q713 325 552 315V410Q603
427 622 492T642 675Q642 793 622 852T552 926V1025Q640 1022 697 1002Q697 1138 824 1184Q864 1199 913 1199T998 1187T1057 1152Q1101 1111 1101 1047T1067 951T976 919T886 950T851 1029Q851 1047 856 1060T862 1079T858 1085ZM463 313Q164 322 94 510Q69 575
69 663T97 815T178 924Q281 1013 463 1025V926Q404 916 381 859Q359 804 359 678T382 486T463 407V313Z" />
<glyph unicode="h" glyph-name="h" horiz-adv-x="1194" d="M704 880T686 892T629 905T555 888V977Q637 1025 719 1025T855 1006T946 950Q1025 871 1025 729V168Q1025 116 1073 97Q1093 89 1115 83T1155 64V0H680V63Q687 75 695 82T711 97Q728 116 728 154V715Q728
819 716 849ZM466 168Q466 115 508 97Q527 89 549 83T590 64V0H39V64Q56 77 78 83T121 97Q169 116 169 168V1281Q169 1333 121 1354Q101 1362 79 1367T39 1386V1455H466V168Z" />
<glyph unicode="i" glyph-name="i" horiz-adv-x="641" d="M468 168Q468 116 516 97Q536 89 559 83T602 64V0H39V64Q58 77 81 83T124 97Q171 116 171 168V831Q171 885 124 902Q104 910 81 915T39 935V1005H468V168ZM302 1124Q264 1124 233 1138T180 1176Q134 1226
134 1298Q134 1368 180 1420Q228 1473 302 1473Q377 1473 425 1420Q471 1368 471 1298Q471 1226 425 1176Q377 1124 302 1124Z" />
<glyph unicode="j" glyph-name="j" horiz-adv-x="641" d="M36 -254Q53 -304 97 -314V-420H89Q-34 -420 -113 -360T-193 -208Q-193 -146 -164 -115Q-115 -60 -45 -60Q49 -60 74 -133Q81 -155 81 -179Q81 -239 36 -254ZM186 -299Q224 -272 224 -212Q224 -180 218
-130Q205 -34 205 10V831Q205 883 158 900Q138 908 116 912T74 931V1005H502V54Q502 -364 186 -413V-299ZM433 1152T402 1138T333 1124T263 1138T210 1176Q163 1226 163 1298Q163 1369 210 1420Q259 1473 332 1473Q408 1473 454 1420Q500 1368 500 1316T488 1232T455
1176Z" />
<glyph unicode="k" glyph-name="k" horiz-adv-x="1152" d="M552 629L717 774Q754 806 772 826T791 865T780 892T751 906T714 916T678 935V1005H1137V954Q1137 931 1088 907Q980 853 955 831L773 671L1049 212Q1099 124 1174 88Q1191 79 1208 64V0H682L681 68Q681
82 709 87T751 97T765 110Q752 144 708 221T646 331L552 489V629ZM165 1237Q165 1328 138 1344Q120 1356 84 1364T35 1386V1455H463L462 180Q462 126 505 104Q524 95 548 88T596 68V0H24V64Q46 77 71 83T117 99Q165 120 165 180V1237Z" />
<glyph unicode="l" glyph-name="l" horiz-adv-x="641" d="M468 168Q468 116 516 97Q536 89 559 83T602 64V0H39V64Q58 77 81 83T124 97Q171 116 171 168V1281Q171 1334 124 1354Q104 1362 81 1367T39 1386V1455H468V168Z" />
<glyph unicode="m" glyph-name="m" horiz-adv-x="1708" d="M548 971Q618 1025 719 1025Q867 1025 935 959T1003 750V168Q1003 116 1039 98Q1055 90 1073 84T1109 64V0H705V715Q705 814 692 847Q667 905 610 905Q576 905 548 884V971ZM1093 984Q1165 1025 1248
1025T1385 1006T1473 946Q1544 863 1544 689V214Q1544 142 1559 123T1588 99T1616 91Q1652 83 1673 64V0H1247V715Q1247 817 1234 848Q1212 905 1153 905Q1121 905 1093 886V984ZM161 786Q161 861 145 880T116 902T89 908Q51 915 35 935V1005H459V180Q459 126 508
102Q530 92 557 84T613 64V0H21V64Q43 77 67 83T113 99Q161 120 161 180V786Z" />
<glyph unicode="n" glyph-name="n" horiz-adv-x="1194" d="M555 961Q634 1025 718 1025T855 1006T946 950Q1025 871 1025 729V210Q1025 110 1070 97Q1084 93 1098 90Q1137 82 1155 64V0H680V70Q680 92 696 106T720 130T728 164V719Q728 822 714 851Q690 905 639
905T555 880V961ZM466 210Q466 111 508 97Q521 93 535 90Q572 82 590 64V0H39V64Q56 77 78 83T121 97Q169 116 169 168V786Q169 857 136 889Q110 915 39 935V1005H466V210Z" />
<glyph unicode="o" glyph-name="o" horiz-adv-x="1130" d="M520 905Q399 861 399 504Q399 328 426 230T520 105V-15Q321 1 192 145Q62 290 62 501Q62 708 192 858Q325 1009 520 1025V905ZM731 504Q731 861 609 905V1025Q807 1009 937 858Q1067 708 1067 501Q1067
290 937 145Q808 1 609 -15V105Q675 130 703 228T731 504Z" />
<glyph unicode="p" glyph-name="p" horiz-adv-x="1153" d="M443 -218Q443 -272 492 -296Q514 -306 541 -314T597 -334V-398H5V-334Q27 -321 51 -315T97 -299Q145 -278 145 -218V831Q145 884 98 903Q78 911 56 916T14 935V1005H427L443 878V-218ZM591 905Q560 905
532 891V999Q584 1025 668 1025T829 983T962 868Q1081 713 1081 495Q1081 273 957 128Q834 -15 650 -15Q583 -15 532 5V116Q554 105 582 105Q750 105 750 505T591 905Z" />
<glyph unicode="q" glyph-name="q" horiz-adv-x="1153" d="M523 105T563 105T626 123V16Q564 -15 480 -15T319 22T185 126Q67 266 67 493Q67 729 204 881Q335 1025 515 1025Q575 1025 626 1013V895Q608 905 569 905T497 876T442 792Q399 683 399 536T409 314T441
194T492 126ZM1019 1005Q1012 954 1012 862V-218Q1012 -278 1060 -299Q1081 -308 1105 -314T1152 -334V-398H560V-334Q588 -322 616 -314T666 -296Q715 -272 715 -218V987Q760 968 792 949T847 916Q865 923 887 946L922 984Q934 997 943 1005H1019Z" />
<glyph unicode="r" glyph-name="r" horiz-adv-x="939" d="M645 831Q599 831 551 728L545 919Q627 1025 755 1025Q830 1025 883 970Q933 918 933 849Q933 776 891 726Q847 673 779 673Q710 673 674 724Q645 767 645 831ZM447 1005Q468 769 468 474V178Q468 125
517 103Q539 93 565 85T618 64V0H39V64Q58 77 81 83T124 97Q171 116 171 168V831Q171 886 124 904Q104 911 81 916T39 935V1005H447Z" />
<glyph unicode="s" glyph-name="s" horiz-adv-x="959" d="M439 905Q347 880 347 818Q347 718 522 651Q660 598 717 569T814 504Q901 424 901 305Q901 164 794 79Q690 -3 528 -15V105Q633 130 633 221Q633 315 461 382Q326 434 270 463T175 526Q90 602 90 713Q90
833 192 926Q295 1019 439 1025V905ZM713 884Q691 893 528 905V1025Q702 1018 800 942Q882 878 882 800Q882 703 808 672Q782 662 736 662T661 691T631 764Q631 837 713 884ZM267 133Q293 110 439 105V-15Q273 -2 178 73Q98 137 98 219Q98 273 128 307T219 342T309
315T339 245Q339 170 267 133Z" />
<glyph unicode="t" glyph-name="t" horiz-adv-x="767" d="M461 1345V-15H453Q306 -15 235 41T163 223V895H30V975Q45 991 68 999T116 1016Q175 1038 191 1088Q244 1234 274 1275T327 1343L461 1345ZM550 105Q631 105 664 157Q678 180 686 209T704 269L785 237Q760
121 723 78T647 14T550 -15V105ZM550 1005H730V895H550V1005Z" />
<glyph unicode="u" glyph-name="u" horiz-adv-x="1194" d="M639 20Q573 -15 441 -15T239 60T169 288V831Q169 884 121 903Q101 911 79 916T39 935V1005H466V261Q466 185 490 145T561 105T639 126V20ZM729 831Q729 884 681 903Q661 911 639 916T597 935V1005H1025V172Q1025
121 1073 102Q1093 94 1115 89T1155 70V0H729V831Z" />
<glyph unicode="v" glyph-name="v" horiz-adv-x="959" d="M615 432L733 770Q754 831 754 853T743 886T715 904T679 916T643 931V1005H1001V937Q987 928 969 921T934 905Q893 883 880 847L674 277L615 432ZM571 0H394L74 820Q46 891 -22 912Q-39 918 -55 929V1005H493V931Q477
920 457 914T418 901Q373 884 373 851Q373 823 474 555T627 145L571 0Z" />
<glyph unicode="w" glyph-name="w" horiz-adv-x="1408" d="M493 0H325L69 833Q50 895 -17 916Q-33 921 -46 929V1005H473V931Q461 923 444 918T410 906Q371 891 371 867Q371 838 389 774L556 178L493 0ZM553 509L674 920H899L1105 178L1042 0H871L699 640H693L606
329L553 509ZM1102 506L1197 789Q1210 829 1210 850T1198 884T1169 904T1131 917T1093 931V1005H1445V937Q1431 925 1416 920T1382 901Q1340 867 1305 763L1155 325L1102 506Z" />
<glyph unicode="x" glyph-name="x" horiz-adv-x="1153" d="M448 290L369 186Q347 156 347 134T358 103T387 89T424 78T461 62V0H21V70Q34 83 56 89T106 106Q182 135 245 214L380 383L448 290ZM177 824Q125 895 60 918Q44 923 31 933V1005H595V937Q581 928 566
923T537 910Q508 896 508 879T513 849T530 820Q541 801 592 731L999 162Q1045 96 1112 82Q1126 79 1137 70V0H563V64Q576 75 591 84T621 104Q654 129 654 157Q654 160 619 208T574 269L177 824ZM700 734L763 814Q790 848 790 867T780 894T755 908T726 918T701 933V1005H1109V933Q1071
933 1012 898T895 793L767 640L700 734Z" />
<glyph unicode="y" glyph-name="y" horiz-adv-x="1003" d="M416 75L108 807Q69 895 -1 915Q-19 920 -35 929V1005H535V931Q522 920 504 917T469 908Q428 894 428 850Q428 822 448 774L568 476L416 75ZM245 -263Q245 -294 277 -294T334 -276T381 -226Q418 -170
465 -46L770 755Q798 827 798 850T786 885T756 904T716 917T675 931V1005H1047V958Q1047 934 1032 924T995 905T952 879T917 828L556 -112Q498 -263 420 -341T226 -420Q119 -420 58 -358Q3 -300 3 -218Q3 -110 92 -70Q121 -58 152 -58T207 -67T248 -92Q284 -125
284 -158T278 -208T265 -234T251 -251T245 -263Z" />
<glyph unicode="z" glyph-name="z" horiz-adv-x="959" d="M484 99Q663 107 733 206Q753 235 770 266Q818 355 846 384H901V0H420L484 99ZM448 906Q295 903 238 816Q222 790 209 762T182 706T147 654H87V1005H512L448 906ZM620 1005H897V900L312 0H41V112L620 1005Z" />
<glyph unicode="{" glyph-name="braceleft" horiz-adv-x="1023" d="M352 285Q352 394 326 433T267 494T180 530Q283 559 320 616Q352 668 352 776V1159Q352 1346 454 1408Q543 1462 779 1462V1407Q674 1394 638 1332Q609 1281 609 1153V809Q609 684 582 639T518
570T424 532V528Q534 501 574 434Q609 374 609 252V-94Q609 -222 632 -263T689 -322T779 -346V-401Q541 -401 454 -348Q352 -284 352 -100V285Z" />
<glyph unicode="|" glyph-name="bar" horiz-adv-x="512" d="M134 1436H376V0H134V1436Z" />
<glyph unicode="}" glyph-name="braceright" horiz-adv-x="1023" d="M669 774Q669 665 695 626T754 566T842 530Q739 499 702 443Q669 393 669 285V-100Q669 -284 567 -348Q481 -401 242 -401V-346Q349 -335 384 -272Q413 -222 413 -94V252Q413 375 440 420T504
489T599 528V532Q441 569 420 705Q413 750 413 807V1153Q413 1281 390 1322T332 1381T242 1407V1462Q480 1462 567 1408Q669 1344 669 1159V774Z" />
<glyph unicode="~" glyph-name="asciitilde" horiz-adv-x="1383" d="M443 449Q325 449 253 305L163 496Q218 573 263 605Q351 666 451 666Q545 666 705 598T914 530T991 542T1043 576Q1075 603 1127 674L1219 485Q1141 399 1102 371Q1020 313 929 313Q855 313
794 338T696 381T620 414Q527 449 443 449Z" />
<glyph unicode="&#xa0;" glyph-name="uni00A0" horiz-adv-x="576" />
<glyph unicode="&#xa1;" glyph-name="exclamdown" horiz-adv-x="682" d="M392 575Q412 411 451 193T504 -104T517 -232T507 -320T474 -388Q429 -449 341 -449Q169 -449 169 -233Q169 -168 200 5Q270 406 291 575H392ZM173 852Q173 926 220 977Q267 1028 341 1028Q415
1028 462 977Q510 926 510 852Q510 778 462 727Q415 676 341 676Q227 676 186 783Q173 815 173 852Z" />
<glyph unicode="&#xa2;" glyph-name="cent" horiz-adv-x="1153" d="M634 348Q812 348 860 584L926 569Q898 363 756 294Q702 267 623 262V-16H548V262Q366 273 258 416Q161 543 161 717Q161 900 272 1030Q381 1156 548 1178V1401H623V1184Q769 1180 850 1108Q926
1042 926 936Q926 867 888 833T801 799T728 810T689 840Q660 875 660 915T667 979T689 1020Q721 1057 788 1057Q757 1114 662 1114Q636 1114 623 1110V350Q627 348 634 348ZM548 1081Q429 1005 429 711Q429 573 455 488T548 371V1081Z" />
<glyph unicode="&#xa3;" glyph-name="sterling" horiz-adv-x="1152" d="M491 139Q407 223 339 223Q297 223 273 205T249 154T285 99T369 76Q458 76 491 139ZM764 1315Q747 1354 692 1363V1451Q901 1435 972 1304Q995 1262 995 1220T984 1150T953 1104Q910 1065
843 1065T737 1102T698 1180T704 1240T719 1271T740 1294T764 1315ZM351 721Q236 876 236 1075Q236 1227 338 1331T603 1450V1359Q566 1344 542 1300T517 1190T534 1066T580 951Q610 892 732 721H1086V621H782Q809 576 830 528T851 420Q851 255 722 141Q798 94
860 94Q973 94 1063 260L1153 197Q1087 51 951 4Q905 -12 851 -12Q735 -12 618 66Q500 -31 349 -31Q215 -31 124 28Q30 90 30 186Q30 271 100 324Q167 375 281 375T565 233Q575 277 575 330T562 422T526 496Q504 532 427 621H55V721H351Z" />
<glyph unicode="&#xa4;" glyph-name="currency" horiz-adv-x="1153" d="M268 1106Q397 1192 577 1192T882 1106L1009 1221L1141 1104L1012 991Q1118 885 1118 711Q1118 540 1012 430L1141 315L1009 201L882 313Q754 229 578 229T268 313L141 201L11 315L139 430Q35
534 35 711Q35 891 139 991L11 1104L141 1221L268 1106ZM279 710Q279 655 301 606T364 519Q449 440 576 440Q702 440 787 519Q873 599 873 711Q873 821 787 901Q701 981 576 981Q450 981 364 901Q279 822 279 710Z" />
<glyph unicode="&#xa5;" glyph-name="yen" horiz-adv-x="1153" d="M781 729L737 641V584H1088V483H737V180Q737 122 783 104Q804 95 833 90T895 74V0H265V74Q296 85 325 90T376 104Q424 123 424 178V483H66V584H424V610L362 729H66V829H310L115 1208Q62 1310 -16
1331Q-35 1336 -51 1346V1421H556V1346Q533 1337 510 1332T466 1320Q422 1305 422 1274Q422 1241 486 1124L675 772L865 1145Q908 1231 908 1264Q908 1313 812 1332Q786 1337 763 1346V1421H1185V1350Q1169 1337 1152 1331T1116 1314Q1070 1288 1035 1223L834 829H1088V729H781Z"
/>
<glyph unicode="&#xa6;" glyph-name="brokenbar" horiz-adv-x="512" d="M134 535H376V0H134V535ZM134 1436H376V899H134V1436Z" />
<glyph unicode="&#xa7;" glyph-name="section" horiz-adv-x="1258" d="M765 1335Q765 1372 682 1379V1450Q822 1438 906 1374Q983 1315 983 1235Q983 1143 894 1110Q867 1100 835 1100T778 1109T734 1134Q695 1166 695 1204T706 1262T730 1295T754 1316T765 1335ZM473
-125Q473 -157 556 -169V-243Q405 -236 318 -164Q244 -102 244 -21Q244 36 272 63Q324 113 390 113T498 82T539 10T529 -47T506 -77T484 -101T473 -125ZM593 1373Q486 1346 486 1247Q486 1165 677 1034Q829 930 891 880T996 782Q1090 674 1090 561Q1090 411 958
338Q909 310 834 299Q912 238 940 203Q998 132 998 59T972 -65T899 -154Q804 -230 645 -242V-169Q698 -161 733 -131T769 -55T744 25T676 95T580 166T470 240T360 321T264 410Q171 516 171 627Q171 854 435 893Q265 1028 265 1169Q265 1291 358 1368Q445 1441 593
1451V1373ZM417 823T386 795T354 735T361 681T388 632Q426 580 514 513Q693 375 779 375Q858 375 890 436Q899 454 899 475T891 519T860 571Q815 630 741 686T632 765T568 800Q517 823 467 823Z" />
<glyph unicode="&#xa8;" glyph-name="dieresis" horiz-adv-x="641" d="M-113 1195T-124 1218T-135 1268T-124 1318T-94 1358Q-53 1395 -8 1395T63 1385T108 1358Q151 1321 151 1282T140 1219T108 1178Q66 1141 22 1141T-48 1151T-94 1178ZM510 1195T499 1218T488
1268T499 1318T529 1358Q570 1395 615 1395T686 1385T732 1358Q774 1321 774 1282T763 1219T732 1178Q689 1141 645 1141T575 1151T529 1178Z" />
<glyph unicode="&#xa9;" glyph-name="copyright" horiz-adv-x="1844" d="M886 -31Q548 -22 324 190Q184 323 130 514Q104 607 104 735T162 996T324 1228Q546 1439 886 1451V1322Q630 1310 466 1134Q306 960 306 709Q306 459 466 287Q631 111 886 99V-31ZM955 99Q1209
111 1372 288Q1533 461 1533 709Q1533 959 1372 1132Q1207 1308 955 1322V1451Q1297 1439 1516 1227Q1736 1015 1736 709Q1736 556 1678 424T1516 192Q1297 -18 955 -30V99ZM1219 907Q1148 1077 955 1087V1147Q1056 1145 1135 1129Q1278 1101 1278 1073V907H1219ZM955
367Q1150 373 1259 561H1314L1278 381Q1271 352 1064 319Q1007 310 955 308V367ZM886 1079Q747 1032 747 730T886 377V308Q568 320 478 556Q449 634 449 722T474 882T553 1009Q670 1133 886 1146V1079Z" />
<glyph unicode="&#xaa;" glyph-name="ordfeminine" horiz-adv-x="835" d="M285 1254Q285 1154 167 1154Q113 1154 84 1185T55 1259T72 1333T120 1389Q183 1437 294 1449V1380Q241 1369 230 1330Q285 1309 285 1254ZM457 1249Q453 1350 383 1374V1451Q591 1440
662 1306Q688 1256 688 1185V834Q688 799 695 780T722 760T750 762T764 773Q773 787 777 837L835 821Q822 736 789 703Q730 644 624 644T457 705V1249ZM368 1053Q252 997 252 874Q252 787 302 758Q318 748 336 748T368 751V661Q322 644 263 644T156 658T74 700Q0
758 0 857Q0 1023 230 1095Q296 1116 368 1135V1053Z" />
<glyph unicode="&#xab;" glyph-name="guillemotleft" horiz-adv-x="1152" d="M978 1069V922L763 600L978 279V131L556 516V684L978 1069ZM564 1069V922L348 600L564 279V131L142 516V684L564 1069Z" />
<glyph unicode="&#xac;" glyph-name="logicalnot" horiz-adv-x="1383" d="M1001 594H139V809H1243V170H1001V594Z" />
<glyph unicode="&#xad;" glyph-name="uni00AD" horiz-adv-x="638" d="M51 389V590H587V389H51Z" />
<glyph unicode="&#xae;" glyph-name="registered" horiz-adv-x="1844" d="M873 -30Q536 -15 320 194Q105 404 105 709T321 1224Q538 1435 873 1451V1321Q623 1305 464 1128Q307 955 307 709Q307 463 464 291Q623 116 873 100V-30ZM962 99Q1212 113 1376 290Q1534
462 1534 709Q1534 957 1376 1130Q1215 1306 962 1322L961 1451Q1300 1435 1519 1225Q1737 1015 1737 709T1519 194Q1300 -15 962 -30V99ZM1085 705Q1241 497 1356 362V334H1138Q1094 334 1028 456Q1008 491 988 529Q935 626 900 678H848V461Q848 412 859 401Q879
383 947 381V334H527V381Q598 383 612 396Q630 413 630 461V991Q630 1041 618 1052Q598 1071 527 1073V1122H1006Q1186 1122 1244 1006Q1264 967 1264 924T1252 848T1218 787Q1169 726 1085 705ZM892 737Q1027 737 1027 905Q1027 1033 963 1056Q942 1063 914 1063H848V737H892Z"
/>
<glyph unicode="&#xaf;" glyph-name="overscore" horiz-adv-x="640" d="M-28 1198V1331H666V1198H-28Z" />
<glyph unicode="&#xb0;" glyph-name="degree" horiz-adv-x="921" d="M460 1341Q420 1341 385 1326T324 1284Q266 1229 266 1157Q266 1084 324 1030Q382 975 459 975Q539 975 598 1030Q655 1084 655 1157Q655 1229 598 1284Q539 1341 460 1341ZM461 1452Q531 1452
590 1429T694 1366Q790 1282 790 1157Q790 1035 694 949Q600 864 462 864Q321 864 225 949Q129 1034 129 1157Q129 1282 225 1366Q322 1452 461 1452Z" />
<glyph unicode="&#xb1;" glyph-name="plusminus" horiz-adv-x="1383" d="M570 981H812V741H1243V526H812V287H570V526H139V741H570V981ZM139 215H1243V0H139V215Z" />
<glyph unicode="&#xb2;" glyph-name="twosuperior" horiz-adv-x="691" d="M163 1321Q260 1307 260 1213Q260 1175 232 1148T152 1121T69 1155T38 1236T59 1321T118 1389Q201 1452 333 1452Q462 1452 546 1390Q636 1323 636 1209Q636 1078 457 962Q407 929 355
896Q225 812 170 740H207V582H33Q33 655 46 687T71 740Q140 818 205 886T326 1018Q412 1119 412 1223Q412 1334 334 1376Q308 1391 281 1391T235 1385T200 1369Q165 1346 163 1321ZM277 740H379Q498 740 532 802Q541 819 549 836Q570 880 590 893H623V582H277V740Z"
/>
<glyph unicode="&#xb3;" glyph-name="threesuperior" horiz-adv-x="725" d="M288 1391Q237 1385 210 1350Q203 1341 203 1333Q245 1324 265 1297T286 1230T255 1167T177 1143T99 1171T67 1245T83 1321T128 1377Q190 1430 288 1446V1391ZM177 680Q197 630 288 626V564Q116
576 62 680Q46 712 46 759T81 837T168 868Q270 868 270 776Q270 695 206 683Q189 680 177 680ZM429 1036Q682 1010 682 821Q682 719 596 648Q511 578 377 566V640Q449 676 449 811Q449 931 393 969Q349 999 231 999Q211 999 202 1009T192 1032T201 1057T231 1068Q435
1068 435 1229Q435 1328 377 1368V1452Q496 1448 575 1388T655 1237Q655 1084 429 1040V1036Z" />
<glyph unicode="&#xb4;" glyph-name="acute" horiz-adv-x="641" d="M150 1120L443 1427Q507 1493 570 1493Q632 1493 662 1443Q671 1427 671 1407Q671 1370 654 1353Q632 1330 585 1303L273 1120H150Z" />
<glyph unicode="&#xb5;" glyph-name="mu" horiz-adv-x="1208" d="M466 -389H39V-326Q56 -313 78 -308T121 -294Q169 -275 169 -225V811Q169 864 121 882Q101 889 79 894T39 913V981H466V-389ZM592 104Q701 104 748 270V811Q748 864 701 882Q681 889 659 894T617
913V981H1045V168Q1045 118 1093 100Q1113 92 1135 87T1175 68V0H767V94Q669 -4 555 -22V109Q570 104 592 104Z" />
<glyph unicode="&#xb6;" glyph-name="paragraph" horiz-adv-x="1406" d="M733 -287H500V580Q333 580 228 692Q120 808 120 1011Q120 1421 594 1421H733V-287ZM1242 1364Q1054 1354 1054 1217V-287H822V1421H1242V1364Z" />
<glyph unicode="&#xb7;" glyph-name="middot" horiz-adv-x="576" d="M101 489Q101 558 156 606Q210 655 288 655Q365 655 420 606Q475 558 475 489Q475 421 420 372Q365 324 288 324Q210 324 156 372Q101 421 101 489Z" />
<glyph unicode="&#xb8;" glyph-name="cedilla" horiz-adv-x="641" d="M348 -245T319 -224T255 -203T171 -217L145 -201L244 -2H339L270 -135Q303 -125 344 -125T424 -133T490 -160Q550 -197 550 -268Q550 -352 465 -402Q384 -449 251 -449Q145 -449 35 -414L71
-340Q143 -371 207 -371Q348 -371 348 -283Q348 -245 319 -224Z" />
<glyph unicode="&#xb9;" glyph-name="onesuperior" horiz-adv-x="682" d="M53 1366Q84 1368 158 1383V1293Q139 1303 53 1307V1366ZM247 1400Q305 1415 362 1442H463V721Q463 658 574 644Q601 640 623 633V582H75V633Q100 640 130 644T186 656Q247 673 247 721V1400Z" />
<glyph unicode="&#xba;" glyph-name="ordmasculine" horiz-adv-x="964" d="M443 1372Q348 1321 348 1048T443 724V645Q276 659 168 772Q61 886 61 1047Q61 1206 170 1320Q278 1434 443 1450V1372ZM532 724Q626 776 626 1048T532 1372V1450Q697 1436 804 1322Q912
1209 912 1047Q912 886 804 772Q697 659 532 645V724Z" />
<glyph unicode="&#xbb;" glyph-name="guillemotright" horiz-adv-x="1152" d="M174 1069L596 684V516L174 131V279L389 600L174 922V1069ZM588 1069L1010 684V516L588 131V279L804 600L588 922V1069Z" />
<glyph unicode="&#xbc;" glyph-name="onequarter" horiz-adv-x="1729" d="M1205 496L1065 305H1205V225H959V305L1205 633V496ZM1598 305H1654V225H1598V305ZM1509 127Q1509 83 1544 70Q1559 65 1576 62T1609 51V0H1187V51Q1205 59 1224 63T1258 74Q1293 89 1293
131V753L1374 858H1509V127ZM497 -31H297L1256 1452H1454L497 -31ZM53 1366Q84 1368 158 1383V1293Q139 1303 53 1307V1366ZM247 1400Q305 1415 362 1442H463V721Q463 658 574 644Q601 640 623 633V582H75V633Q100 640 130 644T186 656Q247 673 247 721V1400Z"
/>
<glyph unicode="&#xbd;" glyph-name="onehalf" horiz-adv-x="1729" d="M1185 739Q1282 725 1282 631Q1282 593 1254 566T1174 539T1091 573T1060 654T1081 739T1140 807Q1223 870 1355 870Q1484 870 1568 808Q1658 741 1658 627Q1658 496 1479 380Q1429 347 1377
314Q1247 230 1192 158H1229V0H1055Q1055 73 1068 105T1093 158Q1162 236 1227 304T1348 436Q1434 537 1434 641Q1434 752 1356 794Q1330 809 1303 809T1257 803T1222 787Q1187 764 1185 739ZM1299 158H1401Q1520 158 1554 220Q1563 237 1571 254Q1592 298 1612
311H1645V0H1299V158ZM494 -31H292L1299 1452H1450L494 -31ZM3 1366Q34 1368 108 1383V1293Q89 1303 3 1307V1366ZM197 1400Q255 1415 312 1442H413V721Q413 658 524 644Q551 640 573 633V582H25V633Q50 640 80 644T136 656Q197 673 197 721V1400Z" />
<glyph unicode="&#xbe;" glyph-name="threequarters" horiz-adv-x="1729" d="M537 -31H337L1295 1452H1493L537 -31ZM177 680Q195 625 287 625V564Q177 572 110 624Q46 674 46 740T81 837T168 868Q270 868 270 776Q270 705 197 688Q182 684 177 680ZM287 1391Q232
1388 210 1356Q203 1346 203 1333Q247 1327 266 1298T286 1230T255 1167T177 1143T99 1171T67 1245T83 1321T128 1377Q188 1430 287 1446V1391ZM435 1229Q435 1330 375 1370V1452Q493 1448 574 1388Q655 1327 655 1237Q655 1084 429 1040V1036Q682 1010 682 821Q682
719 596 649T375 566V642Q449 679 449 811Q449 962 352 990Q321 999 280 999H231Q217 999 207 1011T197 1036Q197 1068 240 1068H303Q382 1068 420 1151Q435 1182 435 1229ZM1240 496L1100 305H1240V225H994V305L1240 633V496ZM1633 305H1689V225H1633V305ZM1544
127Q1544 83 1579 70Q1594 65 1611 62T1644 51V0H1222V51Q1240 59 1259 63T1293 74Q1328 89 1328 131V753L1409 858H1544V127Z" />
<glyph unicode="&#xbf;" glyph-name="questiondown" horiz-adv-x="1109" d="M664 -129Q765 -119 783 -54Q704 -43 674 28Q663 55 663 108T706 201T827 241Q898 241 942 190Q984 140 984 74T960 -44T891 -132Q803 -209 664 -223V-129ZM575 -225Q287 -214 183 -34Q147
30 147 111T177 245T254 340T353 419T453 497Q560 592 560 710V800H674V704Q674 577 573 429T472 130Q472 -71 576 -118L575 -225ZM771 1138Q783 1106 783 1069T771 999T736 943Q689 892 614 892Q541 892 494 943Q447 994 447 1068Q447 1143 494 1194Q541 1245
614 1245Q729 1245 771 1138Z" />
<glyph unicode="&#xc0;" glyph-name="Agrave" horiz-adv-x="1343" d="M496 1205L352 1249Q358 1291 360 1324T368 1384Q455 1423 657 1448Q689 1452 713 1452Q738 1422 749 1395L1212 229Q1242 152 1281 116T1381 74V0H742V63Q767 78 793 85T842 100Q890 114 890
150Q890 170 871 219L496 1205ZM513 896L288 252Q272 207 272 177T289 131T331 105T386 88T440 68V0H-39V68Q-19 81 4 89T52 110Q108 143 136 219L447 1073L513 896ZM693 426H447L480 532H653L693 426ZM808 1566L494 1749Q447 1776 434 1789Q411 1813 411 1843T420
1889T445 1916Q475 1939 508 1939Q576 1939 640 1873L932 1566H808Z" />
<glyph unicode="&#xc1;" glyph-name="Aacute" horiz-adv-x="1343" d="M496 1205L352 1249Q358 1291 360 1324T368 1384Q455 1423 657 1448Q689 1452 713 1452Q738 1422 749 1395L1212 229Q1242 152 1281 116T1381 74V0H742V63Q767 78 793 85T842 100Q890 114 890
150Q890 170 871 219L496 1205ZM513 896L288 252Q272 207 272 177T289 131T331 105T386 88T440 68V0H-39V68Q-19 81 4 89T52 110Q108 143 136 219L447 1073L513 896ZM693 426H447L480 532H653L693 426ZM411 1566L704 1873Q768 1939 831 1939Q893 1939 923 1889Q932
1873 932 1853Q932 1816 915 1799Q893 1776 846 1749L534 1566H411Z" />
<glyph unicode="&#xc2;" glyph-name="Acircumflex" horiz-adv-x="1343" d="M496 1205L352 1249Q358 1291 360 1324T368 1384Q455 1423 657 1448Q689 1452 713 1452Q738 1422 749 1395L1212 229Q1242 152 1281 116T1381 74V0H742V63Q767 78 793 85T842 100Q890
114 890 150Q890 170 871 219L496 1205ZM513 896L288 252Q272 207 272 177T289 131T331 105T386 88T440 68V0H-39V68Q-19 81 4 89T52 110Q108 143 136 219L447 1073L513 896ZM693 426H447L480 532H653L693 426ZM915 1566L673 1779L431 1566H311L574 1923H770L1032
1566H915Z" />
<glyph unicode="&#xc3;" glyph-name="Atilde" horiz-adv-x="1343" d="M496 1205L352 1249Q358 1291 360 1324T368 1384Q455 1423 657 1448Q689 1452 713 1452Q738 1422 749 1395L1212 229Q1242 152 1281 116T1381 74V0H742V63Q767 78 793 85T842 100Q890 114 890
150Q890 170 871 219L496 1205ZM513 896L288 252Q272 207 272 177T289 131T331 105T386 88T440 68V0H-39V68Q-19 81 4 89T52 110Q108 143 136 219L447 1073L513 896ZM693 426H447L480 532H653L693 426ZM1051 1857Q1025 1695 916 1634Q873 1609 816 1609T713 1625T628
1660T551 1696T475 1712T408 1681T370 1607H292Q321 1781 441 1838Q481 1857 529 1857Q593 1857 665 1822T775 1771T848 1755T900 1764T931 1788Q950 1809 969 1857H1051Z" />
<glyph unicode="&#xc4;" glyph-name="Adieresis" horiz-adv-x="1343" d="M496 1205L352 1249Q358 1291 360 1324T368 1384Q455 1423 657 1448Q689 1452 713 1452Q738 1422 749 1395L1212 229Q1242 152 1281 116T1381 74V0H742V63Q767 78 793 85T842 100Q890 114
890 150Q890 170 871 219L496 1205ZM513 896L288 252Q272 207 272 177T289 131T331 105T386 88T440 68V0H-39V68Q-19 81 4 89T52 110Q108 143 136 219L447 1073L513 896ZM693 426H447L480 532H653L693 426ZM239 1641T228 1664T217 1714T228 1764T258 1804Q299 1841
344 1841T415 1831T460 1804Q503 1767 503 1728T492 1665T460 1624Q418 1587 374 1587T304 1597T258 1624ZM862 1641T851 1664T840 1714T851 1764T881 1804Q922 1841 967 1841T1038 1831T1084 1804Q1126 1767 1126 1728T1115 1665T1084 1624Q1041 1587 997 1587T927
1597T881 1624Z" />
<glyph unicode="&#xc5;" glyph-name="Aring" horiz-adv-x="1343" d="M496 1205L352 1249Q358 1291 360 1324T368 1384Q455 1423 657 1448Q689 1452 713 1452Q738 1422 749 1395L1212 229Q1242 152 1281 116T1381 74V0H742V63Q767 78 793 85T842 100Q890 114 890
150Q890 170 871 219L496 1205ZM513 896L288 252Q272 207 272 177T289 131T331 105T386 88T440 68V0H-39V68Q-19 81 4 89T52 110Q108 143 136 219L447 1073L513 896ZM693 426H447L480 532H653L693 426ZM430 1782Q430 1826 449 1864T501 1932Q572 1994 672 1994Q772
1994 841 1932Q912 1869 912 1781Q912 1692 842 1629T672 1566Q573 1566 501 1629Q430 1691 430 1782ZM533 1781Q533 1731 573 1694Q614 1658 657 1658T725 1668T769 1694Q808 1730 808 1781Q808 1861 725 1892Q700 1902 672 1902T618 1893T573 1867Q533 1832 533
1781Z" />
<glyph unicode="&#xc6;" glyph-name="AE" horiz-adv-x="2687" d="M496 1205L352 1249Q358 1291 360 1324T368 1384Q455 1423 657 1448Q689 1452 713 1452Q738 1422 749 1395L1212 229Q1242 152 1281 116T1381 74V0H742V63Q767 78 793 85T842 100Q890 114 890 150Q890
170 871 219L496 1205ZM513 896L288 252Q272 207 272 177T289 131T331 105T386 88T440 68V0H-39V68Q-19 81 4 89T52 110Q108 143 136 219L447 1073L513 896ZM693 426H447L480 532H653L693 426ZM1893 1421V0H1420V74Q1447 85 1472 90T1518 106Q1563 128 1563 190V1229Q1563
1292 1518 1314Q1498 1324 1473 1329T1420 1346V1421H1893ZM1982 100Q2032 96 2109 96T2247 120T2347 181T2408 265T2446 355T2478 437T2524 496H2592V0H1982V100ZM2257 1283T2205 1304T2082 1325T1982 1322V1421H2208Q2433 1421 2535 1436V952H2465Q2440 976 2423
1013T2389 1091T2349 1174T2292 1249ZM1982 846H2315V590H1982V846Z" />
<glyph unicode="&#xc7;" glyph-name="Ccedilla" horiz-adv-x="1282" d="M762 108Q887 110 964 188Q1063 286 1078 512L1193 473Q1165 139 954 26Q875 -16 762 -20V108ZM428 723Q428 162 673 108V-20Q395 -8 224 197Q57 399 57 709Q57 1030 232 1241Q315 1340 428
1396T673 1452V1324Q476 1293 440 958Q428 852 428 723ZM762 1452Q844 1440 900 1413T977 1375T1012 1364T1036 1380T1059 1421H1154V905H1078Q1053 940 1020 1021T966 1148T916 1230Q851 1313 762 1324V1452ZM696 -245T667 -224T603 -203T519 -217L493 -201L592
-2H687L618 -135Q651 -125 692 -125T772 -133T838 -160Q898 -197 898 -268Q898 -352 813 -402Q732 -449 599 -449Q493 -449 383 -414L419 -340Q491 -371 555 -371Q696 -371 696 -283Q696 -245 667 -224Z" />
<glyph unicode="&#xc8;" glyph-name="Egrave" horiz-adv-x="1344" d="M550 1421V0H77V74Q104 85 129 90T175 106Q220 128 220 190V1229Q220 1292 175 1314Q155 1324 130 1329T77 1346V1421H550ZM639 100Q689 96 766 96T904 120T1004 181T1065 265T1103 355T1135
437T1181 496H1249V0H639V100ZM914 1283T862 1304T739 1325T639 1322V1421H865Q1090 1421 1192 1436V952H1122Q1097 976 1080 1013T1046 1091T1006 1174T949 1249ZM639 846H972V590H639V846ZM808 1566L494 1749Q447 1776 434 1789Q411 1813 411 1843T420 1889T445
1916Q475 1939 508 1939Q576 1939 640 1873L932 1566H808Z" />
<glyph unicode="&#xc9;" glyph-name="Eacute" horiz-adv-x="1344" d="M550 1421V0H77V74Q104 85 129 90T175 106Q220 128 220 190V1229Q220 1292 175 1314Q155 1324 130 1329T77 1346V1421H550ZM639 100Q689 96 766 96T904 120T1004 181T1065 265T1103 355T1135
437T1181 496H1249V0H639V100ZM914 1283T862 1304T739 1325T639 1322V1421H865Q1090 1421 1192 1436V952H1122Q1097 976 1080 1013T1046 1091T1006 1174T949 1249ZM639 846H972V590H639V846ZM411 1566L704 1873Q768 1939 831 1939Q893 1939 923 1889Q932 1873 932
1853Q932 1816 915 1799Q893 1776 846 1749L534 1566H411Z" />
<glyph unicode="&#xca;" glyph-name="Ecircumflex" horiz-adv-x="1344" d="M550 1421V0H77V74Q104 85 129 90T175 106Q220 128 220 190V1229Q220 1292 175 1314Q155 1324 130 1329T77 1346V1421H550ZM639 100Q689 96 766 96T904 120T1004 181T1065 265T1103 355T1135
437T1181 496H1249V0H639V100ZM914 1283T862 1304T739 1325T639 1322V1421H865Q1090 1421 1192 1436V952H1122Q1097 976 1080 1013T1046 1091T1006 1174T949 1249ZM639 846H972V590H639V846ZM915 1566L673 1779L431 1566H311L574 1923H770L1032 1566H915Z" />
<glyph unicode="&#xcb;" glyph-name="Edieresis" horiz-adv-x="1344" d="M550 1421V0H77V74Q104 85 129 90T175 106Q220 128 220 190V1229Q220 1292 175 1314Q155 1324 130 1329T77 1346V1421H550ZM639 100Q689 96 766 96T904 120T1004 181T1065 265T1103 355T1135
437T1181 496H1249V0H639V100ZM914 1283T862 1304T739 1325T639 1322V1421H865Q1090 1421 1192 1436V952H1122Q1097 976 1080 1013T1046 1091T1006 1174T949 1249ZM639 846H972V590H639V846ZM239 1641T228 1664T217 1714T228 1764T258 1804Q299 1841 344 1841T415
1831T460 1804Q503 1767 503 1728T492 1665T460 1624Q418 1587 374 1587T304 1597T258 1624ZM862 1641T851 1664T840 1714T851 1764T881 1804Q922 1841 967 1841T1038 1831T1084 1804Q1126 1767 1126 1728T1115 1665T1084 1624Q1041 1587 997 1587T927 1597T881
1624Z" />
<glyph unicode="&#xcc;" glyph-name="Igrave" horiz-adv-x="767" d="M217 1180Q217 1262 202 1284T173 1313T143 1323T110 1331T74 1346V1421H689V1346Q671 1335 654 1331T621 1323T592 1313T569 1292Q548 1262 548 1180V240Q548 157 563 135T592 106T622 96Q670
86 689 74V0H74V74Q101 85 126 90T172 106Q217 128 217 190V1180ZM520 1566L206 1749Q159 1776 146 1789Q123 1813 123 1843T132 1889T157 1916Q187 1939 220 1939Q288 1939 352 1873L644 1566H520Z" />
<glyph unicode="&#xcd;" glyph-name="Iacute" horiz-adv-x="767" d="M217 1180Q217 1262 202 1284T173 1313T143 1323T110 1331T74 1346V1421H689V1346Q671 1335 654 1331T621 1323T592 1313T569 1292Q548 1262 548 1180V240Q548 157 563 135T592 106T622 96Q670
86 689 74V0H74V74Q101 85 126 90T172 106Q217 128 217 190V1180ZM125 1566L418 1873Q482 1939 545 1939Q607 1939 637 1889Q646 1873 646 1853Q646 1816 629 1799Q607 1776 560 1749L248 1566H125Z" />
<glyph unicode="&#xce;" glyph-name="Icircumflex" horiz-adv-x="767" d="M217 1180Q217 1262 202 1284T173 1313T143 1323T110 1331T74 1346V1421H689V1346Q671 1335 654 1331T621 1323T592 1313T569 1292Q548 1262 548 1180V240Q548 157 563 135T592 106T622
96Q670 86 689 74V0H74V74Q101 85 126 90T172 106Q217 128 217 190V1180ZM627 1566L385 1779L143 1566H23L286 1923H482L744 1566H627Z" />
<glyph unicode="&#xcf;" glyph-name="Idieresis" horiz-adv-x="767" d="M217 1180Q217 1262 202 1284T173 1313T143 1323T110 1331T74 1346V1421H689V1346Q671 1335 654 1331T621 1323T592 1313T569 1292Q548 1262 548 1180V240Q548 157 563 135T592 106T622 96Q670
86 689 74V0H74V74Q101 85 126 90T172 106Q217 128 217 190V1180ZM-49 1641T-60 1664T-71 1714T-60 1764T-30 1804Q11 1841 56 1841T127 1831T172 1804Q215 1767 215 1728T204 1665T172 1624Q130 1587 86 1587T16 1597T-30 1624ZM574 1641T563 1664T552 1714T563
1764T593 1804Q634 1841 679 1841T750 1831T796 1804Q838 1767 838 1728T827 1665T796 1624Q753 1587 709 1587T639 1597T593 1624Z" />
<glyph unicode="&#xd0;" glyph-name="Eth" horiz-adv-x="1515" d="M64 0V74Q91 85 116 90T162 106Q207 128 207 190V675H0V776H207V1229Q207 1292 162 1314Q142 1324 117 1329T64 1346V1421H539V776H736V675H539V0H64ZM937 1252T868 1288T728 1325T628 1321V1421H726Q1081
1421 1270 1201Q1438 1005 1438 711Q1438 406 1264 212Q1074 0 737 0H628V100Q660 96 728 96T865 126T980 229Q1067 368 1067 711Q1067 1030 981 1177Q937 1252 868 1288Z" />
<glyph unicode="&#xd1;" glyph-name="Ntilde" horiz-adv-x="1449" d="M1143 668V1229Q1143 1291 1094 1314Q1072 1325 1044 1331T987 1350V1421H1431V1350Q1403 1338 1376 1332T1326 1314Q1277 1291 1277 1229V470L1143 668ZM345 966V215Q345 122 455 92Q484 84
510 72V0H53V72Q78 84 105 92T156 114Q211 145 211 215V1165L345 966ZM254 1260Q206 1269 169 1276Q85 1290 62 1296V1421H527L1277 311V0H1104L254 1260ZM1104 1857Q1078 1695 969 1634Q926 1609 869 1609T766 1625T681 1660T604 1696T528 1712T461 1681T423 1607H345Q374
1781 494 1838Q534 1857 582 1857Q646 1857 718 1822T828 1771T901 1755T953 1764T984 1788Q1003 1809 1022 1857H1104Z" />
<glyph unicode="&#xd2;" glyph-name="Ograve" horiz-adv-x="1473" d="M701 -20Q412 -7 238 210Q74 412 74 711T235 1217Q407 1438 691 1452V1324Q490 1292 455 926Q445 821 445 711T455 497T494 310Q557 130 701 108V-20ZM1025 711Q1025 1289 780 1324V1452Q1066
1437 1236 1217Q1397 1009 1397 711Q1397 414 1239 210Q1072 -5 790 -20V108Q983 134 1016 496Q1025 600 1025 711ZM873 1566L559 1749Q512 1776 499 1789Q476 1813 476 1843T485 1889T510 1916Q540 1939 573 1939Q641 1939 705 1873L997 1566H873Z" />
<glyph unicode="&#xd3;" glyph-name="Oacute" horiz-adv-x="1473" d="M701 -20Q412 -7 238 210Q74 412 74 711T235 1217Q407 1438 691 1452V1324Q490 1292 455 926Q445 821 445 711T455 497T494 310Q557 130 701 108V-20ZM1025 711Q1025 1289 780 1324V1452Q1066
1437 1236 1217Q1397 1009 1397 711Q1397 414 1239 210Q1072 -5 790 -20V108Q983 134 1016 496Q1025 600 1025 711ZM476 1566L769 1873Q833 1939 896 1939Q958 1939 988 1889Q997 1873 997 1853Q997 1816 980 1799Q958 1776 911 1749L599 1566H476Z" />
<glyph unicode="&#xd4;" glyph-name="Ocircumflex" horiz-adv-x="1473" d="M701 -20Q412 -7 238 210Q74 412 74 711T235 1217Q407 1438 691 1452V1324Q490 1292 455 926Q445 821 445 711T455 497T494 310Q557 130 701 108V-20ZM1025 711Q1025 1289 780 1324V1452Q1066
1437 1236 1217Q1397 1009 1397 711Q1397 414 1239 210Q1072 -5 790 -20V108Q983 134 1016 496Q1025 600 1025 711ZM980 1566L738 1779L496 1566H376L639 1923H835L1097 1566H980Z" />
<glyph unicode="&#xd5;" glyph-name="Otilde" horiz-adv-x="1473" d="M701 -20Q412 -7 238 210Q74 412 74 711T235 1217Q407 1438 691 1452V1324Q490 1292 455 926Q445 821 445 711T455 497T494 310Q557 130 701 108V-20ZM1025 711Q1025 1289 780 1324V1452Q1066
1437 1236 1217Q1397 1009 1397 711Q1397 414 1239 210Q1072 -5 790 -20V108Q983 134 1016 496Q1025 600 1025 711ZM1116 1857Q1090 1695 981 1634Q938 1609 881 1609T778 1625T693 1660T616 1696T540 1712T473 1681T435 1607H357Q386 1781 506 1838Q546 1857 594
1857Q658 1857 730 1822T840 1771T913 1755T965 1764T996 1788Q1015 1809 1034 1857H1116Z" />
<glyph unicode="&#xd6;" glyph-name="Odieresis" horiz-adv-x="1473" d="M701 -20Q412 -7 238 210Q74 412 74 711T235 1217Q407 1438 691 1452V1324Q490 1292 455 926Q445 821 445 711T455 497T494 310Q557 130 701 108V-20ZM1025 711Q1025 1289 780 1324V1452Q1066
1437 1236 1217Q1397 1009 1397 711Q1397 414 1239 210Q1072 -5 790 -20V108Q983 134 1016 496Q1025 600 1025 711ZM304 1641T293 1664T282 1714T293 1764T323 1804Q364 1841 409 1841T480 1831T525 1804Q568 1767 568 1728T557 1665T525 1624Q483 1587 439 1587T369
1597T323 1624ZM927 1641T916 1664T905 1714T916 1764T946 1804Q987 1841 1032 1841T1103 1831T1149 1804Q1191 1767 1191 1728T1180 1665T1149 1624Q1106 1587 1062 1587T992 1597T946 1624Z" />
<glyph unicode="&#xd7;" glyph-name="multiply" horiz-adv-x="1383" d="M139 827L311 981L691 643L1072 981L1243 827L863 489L1243 152L1072 0L691 338L311 0L139 152L521 489L139 827Z" />
<glyph unicode="&#xd8;" glyph-name="Oslash" horiz-adv-x="1473" d="M508 252Q569 114 701 97V-31Q523 -21 392 63L260 -154H129L303 132Q136 287 89 544Q74 626 74 716T92 896T146 1068T235 1217T356 1336Q501 1442 691 1452V1324Q445 1285 445 711Q445 522
467 400L953 1195Q887 1312 780 1324V1452Q934 1444 1060 1371L1175 1559H1305L1151 1307Q1331 1151 1381 884Q1397 799 1397 707T1379 525T1326 354T1239 205T1120 86Q977 -21 790 -31V97Q982 123 1016 494Q1025 600 1025 701Q1025 912 996 1053L508 252Z" />
<glyph unicode="&#xd9;" glyph-name="Ugrave" horiz-adv-x="1408" d="M854 108Q1004 118 1063 196Q1117 268 1117 432V1223Q1117 1293 1065 1316Q1042 1327 1015 1332T961 1350V1421H1399V1350Q1377 1339 1352 1334T1304 1320Q1254 1297 1254 1233V444Q1254 232
1166 122Q1072 5 854 -20V108ZM765 -20Q314 -20 214 192Q180 263 180 358V1233Q180 1296 130 1317Q109 1326 84 1331T35 1350V1421H671V1350Q643 1339 616 1335T568 1321Q521 1301 521 1239V399Q521 200 649 137Q696 114 765 108V-20ZM840 1566L526 1749Q479 1776
466 1789Q443 1813 443 1843T452 1889T477 1916Q507 1939 540 1939Q608 1939 672 1873L964 1566H840Z" />
<glyph unicode="&#xda;" glyph-name="Uacute" horiz-adv-x="1408" d="M854 108Q1004 118 1063 196Q1117 268 1117 432V1223Q1117 1293 1065 1316Q1042 1327 1015 1332T961 1350V1421H1399V1350Q1377 1339 1352 1334T1304 1320Q1254 1297 1254 1233V444Q1254 232
1166 122Q1072 5 854 -20V108ZM765 -20Q314 -20 214 192Q180 263 180 358V1233Q180 1296 130 1317Q109 1326 84 1331T35 1350V1421H671V1350Q643 1339 616 1335T568 1321Q521 1301 521 1239V399Q521 200 649 137Q696 114 765 108V-20ZM443 1566L736 1873Q800 1939
863 1939Q925 1939 955 1889Q964 1873 964 1853Q964 1816 947 1799Q925 1776 878 1749L566 1566H443Z" />
<glyph unicode="&#xdb;" glyph-name="Ucircumflex" horiz-adv-x="1408" d="M854 108Q1004 118 1063 196Q1117 268 1117 432V1223Q1117 1293 1065 1316Q1042 1327 1015 1332T961 1350V1421H1399V1350Q1377 1339 1352 1334T1304 1320Q1254 1297 1254 1233V444Q1254
232 1166 122Q1072 5 854 -20V108ZM765 -20Q314 -20 214 192Q180 263 180 358V1233Q180 1296 130 1317Q109 1326 84 1331T35 1350V1421H671V1350Q643 1339 616 1335T568 1321Q521 1301 521 1239V399Q521 200 649 137Q696 114 765 108V-20ZM947 1566L705 1779L463
1566H343L606 1923H802L1064 1566H947Z" />
<glyph unicode="&#xdc;" glyph-name="Udieresis" horiz-adv-x="1408" d="M854 108Q1004 118 1063 196Q1117 268 1117 432V1223Q1117 1293 1065 1316Q1042 1327 1015 1332T961 1350V1421H1399V1350Q1377 1339 1352 1334T1304 1320Q1254 1297 1254 1233V444Q1254
232 1166 122Q1072 5 854 -20V108ZM765 -20Q314 -20 214 192Q180 263 180 358V1233Q180 1296 130 1317Q109 1326 84 1331T35 1350V1421H671V1350Q643 1339 616 1335T568 1321Q521 1301 521 1239V399Q521 200 649 137Q696 114 765 108V-20ZM269 1641T258 1664T247
1714T258 1764T288 1804Q329 1841 374 1841T445 1831T490 1804Q533 1767 533 1728T522 1665T490 1624Q448 1587 404 1587T334 1597T288 1624ZM892 1641T881 1664T870 1714T881 1764T911 1804Q952 1841 997 1841T1068 1831T1114 1804Q1156 1767 1156 1728T1145 1665T1114
1624Q1071 1587 1027 1587T957 1597T911 1624Z" />
<glyph unicode="&#xdd;" glyph-name="Yacute" horiz-adv-x="1153" d="M757 665V180Q757 122 804 104Q826 95 854 90T915 74V0H262V74Q294 85 323 90T376 104Q425 123 425 178V614L115 1208Q62 1310 -18 1331Q-37 1336 -53 1346V1421H588V1346Q566 1337 542 1332T498
1320Q454 1306 454 1272Q454 1251 471 1219T510 1145L757 665ZM739 864L869 1120Q924 1228 924 1258T911 1300T876 1319T830 1331T781 1346V1421H1206V1350Q1190 1337 1173 1331T1138 1314Q1091 1288 1058 1223L803 730L739 864ZM316 1566L609 1873Q673 1939 736
1939Q798 1939 828 1889Q837 1873 837 1853Q837 1816 820 1799Q798 1776 751 1749L439 1566H316Z" />
<glyph unicode="&#xde;" glyph-name="Thorn" horiz-adv-x="1238" d="M845 741Q845 1024 632 1037V1135H669Q1082 1135 1172 913Q1201 840 1201 739T1167 563T1066 441Q939 352 665 352H632V454Q747 468 796 533Q845 599 845 741ZM543 223Q543 152 560 131T592
105T624 96Q678 84 699 74V0H59V74Q89 85 116 90T165 106Q211 128 211 190V1184Q211 1295 164 1314Q146 1322 112 1329T59 1346V1421H704V1346Q684 1335 647 1328T595 1316T568 1299Q543 1273 543 1206V223Z" />
<glyph unicode="&#xdf;" glyph-name="germandbls" horiz-adv-x="1343" d="M744 202Q744 101 841 76V-36Q648 -12 582 146Q560 200 560 247T570 313T596 344Q627 367 661 367T711 359T734 338Q746 315 746 272Q746 272 744 202ZM481 0H53V63Q72 76 94 81T137 95Q184
114 184 164V887Q184 1325 481 1421V0ZM570 1442Q612 1449 691 1449T852 1426T994 1360Q1120 1269 1120 1122Q1120 928 950 816Q875 768 780 746Q780 712 859 678Q895 662 940 645T1033 608T1125 561T1207 501Q1286 426 1286 333T1256 174T1175 64Q1077 -26 930
-37V77Q1009 98 1035 165Q1044 188 1044 228T1008 307T918 376T800 436T682 500Q556 580 556 682Q556 757 626 822Q655 849 689 875T754 932Q823 1005 823 1098Q823 1216 795 1267T734 1340T653 1362T570 1348V1442Z" />
<glyph unicode="&#xe0;" glyph-name="agrave" horiz-adv-x="1153" d="M887 -15Q736 -15 659 54V648Q659 776 648 814Q628 890 566 905V1025Q957 1011 957 673V225Q957 105 1013 105Q1059 105 1069 227L1141 209Q1116 40 994 0Q950 -15 887 -15ZM570 33Q513 -15
421 -15T267 2T162 54Q67 128 67 257Q67 405 205 491Q304 553 570 625V519Q392 449 392 273Q392 158 446 118Q465 105 501 105T570 128V33ZM359 841Q427 810 427 749Q427 672 338 648Q313 642 288 642Q215 642 177 683T139 780T161 877T226 950Q319 1017 477 1025V905Q398
900 359 841ZM713 1120L399 1303Q352 1330 339 1343Q316 1367 316 1397T325 1443T350 1470Q380 1493 413 1493Q481 1493 545 1427L837 1120H713Z" />
<glyph unicode="&#xe1;" glyph-name="aacute" horiz-adv-x="1153" d="M887 -15Q736 -15 659 54V648Q659 776 648 814Q628 890 566 905V1025Q957 1011 957 673V225Q957 105 1013 105Q1059 105 1069 227L1141 209Q1116 40 994 0Q950 -15 887 -15ZM570 33Q513 -15
421 -15T267 2T162 54Q67 128 67 257Q67 405 205 491Q304 553 570 625V519Q392 449 392 273Q392 158 446 118Q465 105 501 105T570 128V33ZM359 841Q427 810 427 749Q427 672 338 648Q313 642 288 642Q215 642 177 683T139 780T161 877T226 950Q319 1017 477 1025V905Q398
900 359 841ZM316 1120L609 1427Q673 1493 736 1493Q798 1493 828 1443Q837 1427 837 1407Q837 1370 820 1353Q798 1330 751 1303L439 1120H316Z" />
<glyph unicode="&#xe2;" glyph-name="acircumflex" horiz-adv-x="1153" d="M887 -15Q736 -15 659 54V648Q659 776 648 814Q628 890 566 905V1025Q957 1011 957 673V225Q957 105 1013 105Q1059 105 1069 227L1141 209Q1116 40 994 0Q950 -15 887 -15ZM570 33Q513
-15 421 -15T267 2T162 54Q67 128 67 257Q67 405 205 491Q304 553 570 625V519Q392 449 392 273Q392 158 446 118Q465 105 501 105T570 128V33ZM359 841Q427 810 427 749Q427 672 338 648Q313 642 288 642Q215 642 177 683T139 780T161 877T226 950Q319 1017 477
1025V905Q398 900 359 841ZM820 1120L578 1333L336 1120H216L479 1477H675L937 1120H820Z" />
<glyph unicode="&#xe3;" glyph-name="atilde" horiz-adv-x="1153" d="M887 -15Q736 -15 659 54V648Q659 776 648 814Q628 890 566 905V1025Q957 1011 957 673V225Q957 105 1013 105Q1059 105 1069 227L1141 209Q1116 40 994 0Q950 -15 887 -15ZM570 33Q513 -15
421 -15T267 2T162 54Q67 128 67 257Q67 405 205 491Q304 553 570 625V519Q392 449 392 273Q392 158 446 118Q465 105 501 105T570 128V33ZM359 841Q427 810 427 749Q427 672 338 648Q313 642 288 642Q215 642 177 683T139 780T161 877T226 950Q319 1017 477 1025V905Q398
900 359 841ZM956 1411Q930 1249 821 1188Q778 1163 721 1163T618 1179T533 1214T456 1250T380 1266T313 1235T275 1161H197Q226 1335 346 1392Q386 1411 434 1411Q498 1411 570 1376T680 1325T753 1309T805 1318T836 1342Q855 1363 874 1411H956Z" />
<glyph unicode="&#xe4;" glyph-name="adieresis" horiz-adv-x="1153" d="M887 -15Q736 -15 659 54V648Q659 776 648 814Q628 890 566 905V1025Q957 1011 957 673V225Q957 105 1013 105Q1059 105 1069 227L1141 209Q1116 40 994 0Q950 -15 887 -15ZM570 33Q513
-15 421 -15T267 2T162 54Q67 128 67 257Q67 405 205 491Q304 553 570 625V519Q392 449 392 273Q392 158 446 118Q465 105 501 105T570 128V33ZM359 841Q427 810 427 749Q427 672 338 648Q313 642 288 642Q215 642 177 683T139 780T161 877T226 950Q319 1017 477
1025V905Q398 900 359 841ZM144 1195T133 1218T122 1268T133 1318T163 1358Q204 1395 249 1395T320 1385T365 1358Q408 1321 408 1282T397 1219T365 1178Q323 1141 279 1141T209 1151T163 1178ZM767 1195T756 1218T745 1268T756 1318T786 1358Q827 1395 872 1395T943
1385T989 1358Q1031 1321 1031 1282T1020 1219T989 1178Q946 1141 902 1141T832 1151T786 1178Z" />
<glyph unicode="&#xe5;" glyph-name="aring" horiz-adv-x="1153" d="M887 -15Q736 -15 659 54V648Q659 776 648 814Q628 890 566 905V1025Q957 1011 957 673V225Q957 105 1013 105Q1059 105 1069 227L1141 209Q1116 40 994 0Q950 -15 887 -15ZM570 33Q513 -15
421 -15T267 2T162 54Q67 128 67 257Q67 405 205 491Q304 553 570 625V519Q392 449 392 273Q392 158 446 118Q465 105 501 105T570 128V33ZM359 841Q427 810 427 749Q427 672 338 648Q313 642 288 642Q215 642 177 683T139 780T161 877T226 950Q319 1017 477 1025V905Q398
900 359 841ZM335 1336Q335 1380 354 1418T406 1486Q477 1548 577 1548Q677 1548 746 1486Q817 1423 817 1335Q817 1246 747 1183T577 1120Q478 1120 406 1183Q335 1245 335 1336ZM438 1335Q438 1285 478 1248Q519 1212 562 1212T630 1222T674 1248Q713 1284 713
1335Q713 1415 630 1446Q605 1456 577 1456T523 1447T478 1421Q438 1386 438 1335Z" />
<glyph unicode="&#xe6;" glyph-name="ae" horiz-adv-x="1681" d="M1103 -25Q784 -25 659 58V633Q659 773 648 815Q628 900 566 916V1008Q754 1000 855 914Q965 996 1103 1006V902Q1037 882 1013 794T989 585T993 393T1010 266Q1037 146 1103 105V-25ZM570 34Q494
-23 411 -23T267 -5T162 47Q67 119 67 246Q67 391 205 477Q308 541 570 610V507Q392 437 392 262Q392 153 446 116Q465 104 501 104T570 127V34ZM1192 1006Q1398 991 1501 845Q1593 715 1593 496H1078V596H1285Q1285 734 1266 807T1192 900V1006ZM359 821Q427 792
427 731Q427 657 338 634Q313 627 288 627Q215 627 177 667T139 762T161 857T226 930Q321 1000 477 1008V922Q415 917 379 858Q368 840 359 821ZM1192 80Q1403 91 1472 334L1564 293Q1486 2 1192 -24V80Z" />
<glyph unicode="&#xe7;" glyph-name="ccedilla" horiz-adv-x="1003" d="M748 868Q725 903 658 905V1025Q798 1013 886 936Q970 862 970 760Q970 696 941 662Q888 600 810 600Q739 600 694 642Q654 678 654 729Q654 818 748 868ZM658 105Q802 108 862 236Q881 276
893 323L986 281Q924 15 658 -15V105ZM569 -15Q345 -13 200 135Q62 277 62 491Q62 719 196 866Q335 1017 569 1025V905Q481 881 434 779T387 510Q387 262 486 156Q521 120 569 105V-15ZM557 -245T528 -224T464 -203T380 -217L354 -201L453 -2H548L479 -135Q512
-125 553 -125T633 -133T699 -160Q759 -197 759 -268Q759 -352 674 -402Q593 -449 460 -449Q354 -449 244 -414L280 -340Q352 -371 416 -371Q557 -371 557 -283Q557 -245 528 -224Z" />
<glyph unicode="&#xe8;" glyph-name="egrave" horiz-adv-x="1089" d="M625 105Q826 115 895 327L987 285Q912 10 625 -15V105ZM595 1025Q801 1010 904 861Q996 729 996 508H481V610H688Q688 738 669 812T595 905V1025ZM536 -15Q319 2 186 154Q62 295 62 501Q62
717 187 864Q311 1011 506 1025V905Q440 882 414 781T387 554T393 365T417 252Q452 147 536 105V-15ZM681 1120L367 1303Q320 1330 307 1343Q284 1367 284 1397T293 1443T318 1470Q348 1493 381 1493Q449 1493 513 1427L805 1120H681Z" />
<glyph unicode="&#xe9;" glyph-name="eacute" horiz-adv-x="1089" d="M625 105Q826 115 895 327L987 285Q912 10 625 -15V105ZM595 1025Q801 1010 904 861Q996 729 996 508H481V610H688Q688 738 669 812T595 905V1025ZM536 -15Q319 2 186 154Q62 295 62 501Q62
717 187 864Q311 1011 506 1025V905Q440 882 414 781T387 554T393 365T417 252Q452 147 536 105V-15ZM284 1120L577 1427Q641 1493 704 1493Q766 1493 796 1443Q805 1427 805 1407Q805 1370 788 1353Q766 1330 719 1303L407 1120H284Z" />
<glyph unicode="&#xea;" glyph-name="ecircumflex" horiz-adv-x="1089" d="M625 105Q826 115 895 327L987 285Q912 10 625 -15V105ZM595 1025Q801 1010 904 861Q996 729 996 508H481V610H688Q688 738 669 812T595 905V1025ZM536 -15Q319 2 186 154Q62 295 62 501Q62
717 187 864Q311 1011 506 1025V905Q440 882 414 781T387 554T393 365T417 252Q452 147 536 105V-15ZM788 1120L546 1333L304 1120H184L447 1477H643L905 1120H788Z" />
<glyph unicode="&#xeb;" glyph-name="edieresis" horiz-adv-x="1089" d="M625 105Q826 115 895 327L987 285Q912 10 625 -15V105ZM595 1025Q801 1010 904 861Q996 729 996 508H481V610H688Q688 738 669 812T595 905V1025ZM536 -15Q319 2 186 154Q62 295 62 501Q62
717 187 864Q311 1011 506 1025V905Q440 882 414 781T387 554T393 365T417 252Q452 147 536 105V-15ZM112 1195T101 1218T90 1268T101 1318T131 1358Q172 1395 217 1395T288 1385T333 1358Q376 1321 376 1282T365 1219T333 1178Q291 1141 247 1141T177 1151T131
1178ZM735 1195T724 1218T713 1268T724 1318T754 1358Q795 1395 840 1395T911 1385T957 1358Q999 1321 999 1282T988 1219T957 1178Q914 1141 870 1141T800 1151T754 1178Z" />
<glyph unicode="&#xec;" glyph-name="igrave" horiz-adv-x="641" d="M468 164Q468 114 516 95Q536 87 559 82T602 63V0H39V63Q58 76 81 81T124 95Q171 114 171 164V811Q171 862 124 881Q104 889 81 894T39 913V981H468V164ZM457 1120L143 1303Q96 1330 83 1343Q60
1367 60 1397T69 1443T94 1470Q124 1493 157 1493Q225 1493 289 1427L581 1120H457Z" />
<glyph unicode="&#xed;" glyph-name="iacute" horiz-adv-x="641" d="M468 164Q468 114 516 95Q536 87 559 82T602 63V0H39V63Q58 76 81 81T124 95Q171 114 171 164V811Q171 862 124 881Q104 889 81 894T39 913V981H468V164ZM318 1120L611 1427Q675 1493 738 1493Q800
1493 830 1443Q839 1427 839 1407Q839 1370 822 1353Q800 1330 753 1303L441 1120H318Z" />
<glyph unicode="&#xee;" glyph-name="icircumflex" horiz-adv-x="641" d="M468 164Q468 114 516 95Q536 87 559 82T602 63V0H39V63Q58 76 81 81T124 95Q171 114 171 164V811Q171 862 124 881Q104 889 81 894T39 913V981H468V164ZM564 1120L322 1333L80 1120H-40L223
1477H419L681 1120H564Z" />
<glyph unicode="&#xef;" glyph-name="idieresis" horiz-adv-x="641" d="M468 164Q468 114 516 95Q536 87 559 82T602 63V0H39V63Q58 76 81 81T124 95Q171 114 171 164V811Q171 862 124 881Q104 889 81 894T39 913V981H468V164ZM-112 1195T-123 1218T-134 1268T-123
1318T-93 1358Q-52 1395 -7 1395T64 1385T109 1358Q152 1321 152 1282T141 1219T109 1178Q67 1141 23 1141T-47 1151T-93 1178ZM511 1195T500 1218T489 1268T500 1318T530 1358Q571 1395 616 1395T687 1385T733 1358Q775 1321 775 1282T764 1219T733 1178Q690 1141
646 1141T576 1151T530 1178Z" />
<glyph unicode="&#xf0;" glyph-name="eth" horiz-adv-x="1130" d="M399 463Q399 106 529 65V-26Q324 -12 190 137Q62 280 62 463Q62 647 190 788Q325 938 529 951V862Q460 843 430 745T399 463ZM353 1473Q510 1431 638 1339L862 1473L924 1395L724 1274Q884 1138
978 920Q1063 721 1067 520Q1063 272 926 124Q799 -13 598 -26V63Q731 99 731 462T598 862V951Q644 947 680 938Q651 1083 572 1184L345 1051L283 1128L500 1257Q472 1284 421 1319Q335 1379 321 1401L353 1473Z" />
<glyph unicode="&#xf1;" glyph-name="ntilde" horiz-adv-x="1194" d="M555 961Q634 1025 718 1025T855 1006T946 950Q1025 871 1025 729V210Q1025 110 1070 97Q1084 93 1098 90Q1137 82 1155 64V0H680V70Q680 92 696 106T720 130T728 164V719Q728 822 714 851Q690
905 639 905T555 880V961ZM466 210Q466 111 508 97Q521 93 535 90Q572 82 590 64V0H39V64Q56 77 78 83T121 97Q169 116 169 168V786Q169 857 136 889Q110 915 39 935V1005H466V210ZM976 1411Q950 1249 841 1188Q798 1163 741 1163T638 1179T553 1214T476 1250T400
1266T333 1235T295 1161H217Q246 1335 366 1392Q406 1411 454 1411Q518 1411 590 1376T700 1325T773 1309T825 1318T856 1342Q875 1363 894 1411H976Z" />
<glyph unicode="&#xf2;" glyph-name="ograve" horiz-adv-x="1130" d="M520 905Q399 861 399 504Q399 328 426 230T520 105V-15Q321 1 192 145Q62 290 62 501Q62 708 192 858Q325 1009 520 1025V905ZM731 504Q731 861 609 905V1025Q807 1009 937 858Q1067 708 1067
501Q1067 290 937 145Q808 1 609 -15V105Q675 130 703 228T731 504ZM701 1120L387 1303Q340 1330 327 1343Q304 1367 304 1397T313 1443T338 1470Q368 1493 401 1493Q469 1493 533 1427L825 1120H701Z" />
<glyph unicode="&#xf3;" glyph-name="oacute" horiz-adv-x="1130" d="M520 905Q399 861 399 504Q399 328 426 230T520 105V-15Q321 1 192 145Q62 290 62 501Q62 708 192 858Q325 1009 520 1025V905ZM731 504Q731 861 609 905V1025Q807 1009 937 858Q1067 708 1067
501Q1067 290 937 145Q808 1 609 -15V105Q675 130 703 228T731 504ZM304 1120L597 1427Q661 1493 724 1493Q786 1493 816 1443Q825 1427 825 1407Q825 1370 808 1353Q786 1330 739 1303L427 1120H304Z" />
<glyph unicode="&#xf4;" glyph-name="ocircumflex" horiz-adv-x="1130" d="M520 905Q399 861 399 504Q399 328 426 230T520 105V-15Q321 1 192 145Q62 290 62 501Q62 708 192 858Q325 1009 520 1025V905ZM731 504Q731 861 609 905V1025Q807 1009 937 858Q1067
708 1067 501Q1067 290 937 145Q808 1 609 -15V105Q675 130 703 228T731 504ZM808 1120L566 1333L324 1120H204L467 1477H663L925 1120H808Z" />
<glyph unicode="&#xf5;" glyph-name="otilde" horiz-adv-x="1130" d="M520 905Q399 861 399 504Q399 328 426 230T520 105V-15Q321 1 192 145Q62 290 62 501Q62 708 192 858Q325 1009 520 1025V905ZM731 504Q731 861 609 905V1025Q807 1009 937 858Q1067 708 1067
501Q1067 290 937 145Q808 1 609 -15V105Q675 130 703 228T731 504ZM944 1411Q918 1249 809 1188Q766 1163 709 1163T606 1179T521 1214T444 1250T368 1266T301 1235T263 1161H185Q214 1335 334 1392Q374 1411 422 1411Q486 1411 558 1376T668 1325T741 1309T793
1318T824 1342Q843 1363 862 1411H944Z" />
<glyph unicode="&#xf6;" glyph-name="odieresis" horiz-adv-x="1130" d="M520 905Q399 861 399 504Q399 328 426 230T520 105V-15Q321 1 192 145Q62 290 62 501Q62 708 192 858Q325 1009 520 1025V905ZM731 504Q731 861 609 905V1025Q807 1009 937 858Q1067 708
1067 501Q1067 290 937 145Q808 1 609 -15V105Q675 130 703 228T731 504ZM132 1195T121 1218T110 1268T121 1318T151 1358Q192 1395 237 1395T308 1385T353 1358Q396 1321 396 1282T385 1219T353 1178Q311 1141 267 1141T197 1151T151 1178ZM755 1195T744 1218T733
1268T744 1318T774 1358Q815 1395 860 1395T931 1385T977 1358Q1019 1321 1019 1282T1008 1219T977 1178Q934 1141 890 1141T820 1151T774 1178Z" />
<glyph unicode="&#xf7;" glyph-name="divide" horiz-adv-x="1383" d="M139 383V598H1243V383H139ZM512 66Q512 98 526 127T566 178Q618 225 691 225Q763 225 816 177Q869 130 869 65Q869 2 816 -45Q763 -93 691 -93Q618 -93 566 -46Q512 0 512 66ZM512 916Q512
948 526 977T566 1028Q618 1074 691 1074Q764 1074 816 1028Q869 981 869 916Q869 853 816 804Q764 756 691 756Q618 756 566 803Q512 851 512 916Z" />
<glyph unicode="&#xf8;" glyph-name="oslash" horiz-adv-x="1130" d="M520 884Q399 839 399 492Q399 407 405 340L692 792Q661 865 609 884V1006Q709 997 795 954L890 1104H996L871 906Q962 835 1014 728T1067 503T1033 295T937 136Q807 -9 609 -25V97Q675 121
703 220T731 432Q731 593 721 669L430 209Q461 119 520 97V-25Q410 -16 319 34L220 -123H111L244 86Q159 156 111 260T62 478T96 683T192 842Q323 988 520 1006V884Z" />
<glyph unicode="&#xf9;" glyph-name="ugrave" horiz-adv-x="1194" d="M639 20Q573 -15 441 -15T239 60T169 288V831Q169 884 121 903Q101 911 79 916T39 935V1005H466V261Q466 185 490 145T561 105T639 126V20ZM729 831Q729 884 681 903Q661 911 639 916T597 935V1005H1025V172Q1025
121 1073 102Q1093 94 1115 89T1155 70V0H729V831ZM733 1120L419 1303Q372 1330 359 1343Q336 1367 336 1397T345 1443T370 1470Q400 1493 433 1493Q501 1493 565 1427L857 1120H733Z" />
<glyph unicode="&#xfa;" glyph-name="uacute" horiz-adv-x="1194" d="M639 20Q573 -15 441 -15T239 60T169 288V831Q169 884 121 903Q101 911 79 916T39 935V1005H466V261Q466 185 490 145T561 105T639 126V20ZM729 831Q729 884 681 903Q661 911 639 916T597 935V1005H1025V172Q1025
121 1073 102Q1093 94 1115 89T1155 70V0H729V831ZM336 1120L629 1427Q693 1493 756 1493Q818 1493 848 1443Q857 1427 857 1407Q857 1370 840 1353Q818 1330 771 1303L459 1120H336Z" />
<glyph unicode="&#xfb;" glyph-name="ucircumflex" horiz-adv-x="1194" d="M639 20Q573 -15 441 -15T239 60T169 288V831Q169 884 121 903Q101 911 79 916T39 935V1005H466V261Q466 185 490 145T561 105T639 126V20ZM729 831Q729 884 681 903Q661 911 639 916T597
935V1005H1025V172Q1025 121 1073 102Q1093 94 1115 89T1155 70V0H729V831ZM840 1120L598 1333L356 1120H236L499 1477H695L957 1120H840Z" />
<glyph unicode="&#xfc;" glyph-name="udieresis" horiz-adv-x="1194" d="M639 20Q573 -15 441 -15T239 60T169 288V831Q169 884 121 903Q101 911 79 916T39 935V1005H466V261Q466 185 490 145T561 105T639 126V20ZM729 831Q729 884 681 903Q661 911 639 916T597
935V1005H1025V172Q1025 121 1073 102Q1093 94 1115 89T1155 70V0H729V831ZM164 1195T153 1218T142 1268T153 1318T183 1358Q224 1395 269 1395T340 1385T385 1358Q428 1321 428 1282T417 1219T385 1178Q343 1141 299 1141T229 1151T183 1178ZM787 1195T776 1218T765
1268T776 1318T806 1358Q847 1395 892 1395T963 1385T1009 1358Q1051 1321 1051 1282T1040 1219T1009 1178Q966 1141 922 1141T852 1151T806 1178Z" />
<glyph unicode="&#xfd;" glyph-name="yacute" horiz-adv-x="1003" d="M416 75L108 807Q69 895 -1 915Q-19 920 -35 929V1005H535V931Q522 920 504 917T469 908Q428 894 428 850Q428 822 448 774L568 476L416 75ZM245 -263Q245 -294 277 -294T334 -276T381 -226Q418
-170 465 -46L770 755Q798 827 798 850T786 885T756 904T716 917T675 931V1005H1047V958Q1047 934 1032 924T995 905T952 879T917 828L556 -112Q498 -263 420 -341T226 -420Q119 -420 58 -358Q3 -300 3 -218Q3 -110 92 -70Q121 -58 152 -58T207 -67T248 -92Q284
-125 284 -158T278 -208T265 -234T251 -251T245 -263ZM241 1120L534 1427Q598 1493 661 1493Q723 1493 753 1443Q762 1427 762 1407Q762 1370 745 1353Q723 1330 676 1303L364 1120H241Z" />
<glyph unicode="&#xfe;" glyph-name="thorn" horiz-adv-x="1153" d="M146 692L147 1080V1251Q147 1303 99 1322Q79 1330 56 1335T14 1354V1421H445L443 -213Q443 -265 492 -288Q514 -299 541 -306T597 -326V-389H5V-326Q27 -313 51 -307T97 -292Q145 -271 145
-213V218L146 692ZM513 955Q587 1008 666 1008T824 967T958 854Q1078 701 1078 483Q1078 266 954 120T647 -27Q602 -27 572 -14T513 15V106Q545 86 579 86Q747 86 747 483T588 881Q557 881 513 859V955Z" />
<glyph unicode="&#xff;" glyph-name="ydieresis" horiz-adv-x="1003" d="M416 75L108 807Q69 895 -1 915Q-19 920 -35 929V1005H535V931Q522 920 504 917T469 908Q428 894 428 850Q428 822 448 774L568 476L416 75ZM245 -263Q245 -294 277 -294T334 -276T381 -226Q418
-170 465 -46L770 755Q798 827 798 850T786 885T756 904T716 917T675 931V1005H1047V958Q1047 934 1032 924T995 905T952 879T917 828L556 -112Q498 -263 420 -341T226 -420Q119 -420 58 -358Q3 -300 3 -218Q3 -110 92 -70Q121 -58 152 -58T207 -67T248 -92Q284
-125 284 -158T278 -208T265 -234T251 -251T245 -263ZM69 1195T58 1218T47 1268T58 1318T88 1358Q129 1395 174 1395T245 1385T290 1358Q333 1321 333 1282T322 1219T290 1178Q248 1141 204 1141T134 1151T88 1178ZM692 1195T681 1218T670 1268T681 1318T711 1358Q752
1395 797 1395T868 1385T914 1358Q956 1321 956 1282T945 1219T914 1178Q871 1141 827 1141T757 1151T711 1178Z" />
<glyph unicode="&#x2013;" glyph-name="endash" horiz-adv-x="1153" d="M0 410V569H1153V410H0Z" />
<glyph unicode="&#x2014;" glyph-name="emdash" horiz-adv-x="2305" d="M0 410V569H2305V410H0Z" />
<glyph unicode="&#x2018;" glyph-name="quoteleft" horiz-adv-x="491" d="M371 1413Q270 1301 247 1255T222 1184Q248 1176 281 1168T344 1140Q415 1095 415 999Q415 934 385 896Q328 825 245 825Q153 825 103 896Q60 958 60 1031T76 1157T122 1262Q174 1351 293
1473L371 1413Z" />
<glyph unicode="&#x2019;" glyph-name="quoteright" horiz-adv-x="491" d="M117 864Q260 1012 270 1092Q244 1099 210 1108T146 1136Q74 1182 74 1276Q74 1342 104 1380Q162 1452 244 1452Q337 1452 387 1380Q429 1320 429 1247T413 1121T368 1015Q314 921 198
805L117 864Z" />
<glyph unicode="&#x201a;" glyph-name="quotesinglbase" horiz-adv-x="491" d="M117 -276Q260 -128 270 -47Q244 -40 210 -32T146 -4Q74 42 74 137Q74 201 104 239Q162 311 244 311Q337 311 387 240Q429 179 429 106T414 -20T368 -125Q315 -217 198 -336L117 -276Z" />
<glyph unicode="&#x201c;" glyph-name="quotedblleft" horiz-adv-x="939" d="M362 1413Q221 1265 209 1184Q235 1176 269 1168T333 1140Q405 1094 405 999Q405 933 374 896Q316 825 235 825Q143 825 93 896Q51 957 51 1030T66 1157T112 1262Q163 1353 281 1473L362
1413ZM832 1413Q726 1296 705 1252T680 1184Q706 1176 740 1168T804 1140Q876 1094 876 999Q876 935 846 897Q788 825 705 825Q613 825 563 896Q521 957 521 1030T536 1157T582 1262Q635 1354 752 1473L832 1413Z" />
<glyph unicode="&#x201d;" glyph-name="quotedblright" horiz-adv-x="939" d="M576 864Q718 1010 728 1092Q702 1099 669 1108T605 1136Q533 1182 533 1276Q533 1386 626 1435Q658 1452 705 1452T788 1432T845 1380Q887 1320 887 1219Q887 1031 657 805L576 864ZM106
864Q248 1010 258 1092Q232 1099 198 1108T134 1136Q62 1182 62 1276Q62 1342 92 1380Q150 1452 233 1452Q326 1452 376 1380Q418 1320 418 1247T402 1121T356 1015Q303 921 187 805L106 864Z" />
<glyph unicode="&#x201e;" glyph-name="quotedblbase" horiz-adv-x="939" d="M576 -276Q718 -130 728 -47Q702 -40 669 -32T605 -4Q533 42 533 137Q533 203 564 240Q622 311 703 311Q795 311 845 240Q887 179 887 106T872 -20T826 -125Q772 -221 657 -336L576
-276ZM106 -276Q248 -130 258 -47Q232 -40 198 -32T134 -4Q62 42 62 137Q62 201 92 239Q150 311 233 311Q326 311 376 240Q418 179 418 106T403 -20T357 -125Q304 -217 187 -336L106 -276Z" />
<glyph unicode="&#x2022;" glyph-name="bullet" horiz-adv-x="1153" d="M175 710Q175 784 206 848T292 961Q411 1065 576 1065Q742 1065 859 961Q975 858 975 711Q975 563 859 458Q743 354 576 354Q410 354 293 458T175 710Z" />
<glyph unicode="&#x2039;" glyph-name="guilsinglleft" horiz-adv-x="737" d="M564 1069V922L348 600L564 279V131L142 516V684L564 1069Z" />
<glyph unicode="&#x203a;" glyph-name="guilsinglright" horiz-adv-x="737" d="M174 1069L596 684V516L174 131V279L389 600L174 922V1069Z" />
</font>
</defs>
</svg>
