<?xml version="1.0" standalone="no"?>
<!DOCTYPE svg PUBLIC "-//W3C//DTD SVG 1.1//EN" "http://www.w3.org/Graphics/SVG/1.1/DTD/svg11.dtd">
<svg xmlns="http://www.w3.org/2000/svg">
<defs >
<font id="Ranga" horiz-adv-x="863" ><font-face
    font-family="Ranga"
    units-per-em="2218"
    panose-1="0 0 0 0 0 0 0 0 0 0"
    ascent="2218"
    descent="-1027"
    alphabetic="0" />
<glyph unicode=" " glyph-name="space" horiz-adv-x="530" />
<glyph unicode="!" glyph-name="exclam" horiz-adv-x="370" d="M78 365Q78 365 324 1456Q333 1501 385 1501H506Q565 1501 551 1454Q551 1454 182 362Q168 317 127 317H115Q95 317 84 329T78 365ZM-2 -39T-31 -5T-61 77T-30 159T51 193H74Q113 193 144 158T176
74T143 -6T59 -39H39Q-2 -39 -31 -5Z" />
<glyph unicode="&quot;" glyph-name="quotedbl" horiz-adv-x="880" d="M790 1612Q790 1487 740 1357T638 1150T545 1073Q522 1073 522 1105T561 1227T615 1396T631 1616Q631 1657 682 1657H741Q790 1665 790 1612ZM483 1612Q483 1487 433 1357T331 1150T238 1073Q215
1073 215 1105T254 1227T308 1396T324 1616Q324 1657 375 1657H434Q483 1665 483 1612Z" />
<glyph unicode="#" glyph-name="numbersign" horiz-adv-x="1652" d="M135 608Q135 608 448 608L540 963H260Q229 963 220 979T221 1036L227 1063Q233 1089 239 1096T260 1104H577L682 1509Q694 1554 743 1554H791Q847 1554 836 1507L733 1104H1130L1235 1509Q1247
1554 1296 1554H1343Q1400 1554 1389 1507L1286 1104H1559Q1621 1104 1606 1038Q1597 996 1576 980T1532 963H1250L1160 608H1434Q1495 608 1481 543L1477 524Q1473 501 1452 484T1407 467H1124L1016 45Q1004 0 954 0H920Q882 0 868 19T860 66L964 467H571L463
45Q451 0 401 0H367Q329 0 315 19T307 66L411 467H135Q104 467 95 484T96 541L102 567Q108 593 114 600T135 608ZM697 963L607 608H1001L1093 963H697Z" />
<glyph unicode="$" glyph-name="dollar" horiz-adv-x="827" d="M175 368Q175 174 254 174Q315 177 369 256T443 428T464 569Q466 666 303 698Q162 723 166 857T221 1120T364 1334Q416 1381 472 1402L504 1520Q516 1563 563 1563H608Q663 1563 651 1518L623 1409Q730
1377 740 1230Q746 1143 739 1022Q736 976 694 961L635 940Q610 937 599 945T588 974T594 1042T599 1125T596 1202Q586 1288 520 1286Q479 1278 444 1240T386 1149Q328 1014 328 919Q328 884 335 873T347 855T364 842T384 831T411 822T443 814T481 805Q639 770
623 586Q595 286 417 132Q355 79 282 61L256 -39Q244 -82 197 -82H162Q130 -82 118 -64T111 -18L135 70Q13 133 27 440Q30 493 70 524L111 549Q142 565 162 554T180 520L175 368Z" />
<glyph unicode="%" glyph-name="percent" horiz-adv-x="1626" d="M291 1116Q291 971 377 971Q427 971 467 1003T532 1086Q580 1191 580 1288T560 1415T489 1444T398 1413T336 1331Q291 1230 291 1116ZM232 1412Q276 1481 349 1524T520 1567T673 1493T727 1329T704
1160T637 1009T521 893T358 848T205 914T143 1126T232 1412ZM1065 250Q1065 105 1151 105Q1201 105 1241 137T1306 220Q1354 325 1354 422T1334 549T1263 578T1172 547T1110 465Q1065 364 1065 250ZM1006 546Q1050 615 1123 658T1294 701T1447 627T1501 463T1478
294T1411 143T1295 27T1132 -18T979 48T917 260T1006 546ZM29 -55Q29 -55 -53 -53Q-77 -53 -83 -34T-65 14L1432 1518Q1479 1565 1530 1565Q1530 1565 1610 1565Q1640 1565 1645 1544T1626 1497L115 -18Q91 -42 74 -48T29 -55Z" />
<glyph unicode="&amp;" glyph-name="ampersand" horiz-adv-x="1245" d="M364 723Q319 842 319 924T337 1071T394 1195T484 1298Q601 1394 772 1374Q807 1370 801 1333L791 1284Q787 1269 768 1262T728 1256T672 1251T596 1221T524 1160Q451 1075 467 918Q473 857
499 782Q564 594 724 354Q838 536 880 721H797Q764 721 762 736Q762 742 766 757T772 778L786 823Q793 848 817 848H1194Q1229 848 1212 803L1204 778Q1192 742 1183 732T1161 721H1021Q932 408 808 231Q902 100 1008 -27Q1057 -87 988 -106T860 -90Q779 -4 700
108Q528 -50 303 -20Q156 2 83 96T31 336Q48 472 138 562Q219 643 319 698Q334 706 364 723ZM621 226Q472 461 413 602Q341 565 272 494T193 309Q187 233 236 176T360 119Q511 119 621 226Z" />
<glyph unicode="&apos;" glyph-name="quotesingle" horiz-adv-x="380" d="M483 1612Q483 1487 433 1357T331 1150T238 1073Q215 1073 215 1105T254 1227T308 1396T324 1616Q324 1657 375 1657H434Q483 1665 483 1612Z" />
<glyph unicode="(" glyph-name="parenleft" horiz-adv-x="811" d="M346 -322Q201 -55 201 338Q201 800 460 1226Q608 1469 811 1661Q855 1702 893 1698L954 1692Q981 1689 986 1668T975 1634Q602 1308 432 845Q346 609 346 404T388 15T506 -270Q521 -289 514 -301T494
-317L403 -342Q365 -362 346 -322Z" />
<glyph unicode=")" glyph-name="parenright" horiz-adv-x="833" d="M633 975Q633 445 256 -60Q150 -201 27 -317Q-1 -343 -16 -349T-57 -354L-125 -348Q-141 -346 -148 -336Q-162 -314 -139 -293Q134 -55 310 284T487 954Q487 1147 448 1322T328 1614Q316 1631
320 1644T342 1661L428 1686Q465 1707 485 1665Q633 1393 633 975Z" />
<glyph unicode="*" glyph-name="asterisk" horiz-adv-x="780" d="M348 1108L150 1141Q127 1144 117 1164T115 1212L125 1241Q130 1262 148 1274T186 1280L389 1198L418 1427Q421 1452 442 1465T494 1479H520Q547 1479 564 1461T571 1411L494 1194L707 1266Q776
1288 776 1227V1196Q776 1171 765 1158T725 1139L487 1102L616 889Q628 871 624 850T598 815L567 799Q516 771 494 823L412 1034L246 836Q224 811 200 810T164 827L145 848Q123 876 129 894T152 928L348 1108Z" />
<glyph unicode="+" glyph-name="plus" horiz-adv-x="827" d="M590 954Q590 954 532 735H784Q802 735 812 723T819 688L809 637Q799 594 756 594H495L426 330Q414 285 365 285H313Q257 285 268 332L337 594H109Q61 594 72 641L90 713Q93 726 96 728T101 731T105
733T110 734T116 735Q245 735 374 735L432 956Q444 1001 494 1001H545Q601 1001 590 954Z" />
<glyph unicode="," glyph-name="comma" horiz-adv-x="464" d="M225 213Q225 2 78 -248Q29 -336 -25 -336Q-49 -336 -49 -310T-17 -197T21 -63T38 65T51 178T61 221T94 236L176 254Q225 263 225 213Z" />
<glyph unicode="-" glyph-name="hyphen" horiz-adv-x="784" d="M154 735Q154 735 666 735Q685 735 694 722T700 688L690 637Q682 594 637 594H145Q97 594 109 641L127 713Q133 735 154 735Z" />
<glyph unicode="." glyph-name="period" horiz-adv-x="399" d="M111 -39T81 -5T51 77T82 159T164 193H186Q225 193 257 158T289 74T256 -6T172 -39H152Q111 -39 81 -5Z" />
<glyph unicode="/" glyph-name="slash" horiz-adv-x="847" d="M879 1556Q879 1556 948 1556Q974 1556 981 1539T973 1493L205 45Q181 0 143 0H74Q49 0 43 20T49 63L817 1511Q839 1556 879 1556Z" />
<glyph unicode="0" glyph-name="zero" horiz-adv-x="858" d="M299 147Q397 126 490 250T653 641Q739 966 706 1146Q688 1249 633 1262Q395 1317 248 745Q184 509 196 338T299 147ZM24 377T36 506T92 811T224 1138T431 1365T678 1411Q1005 1332 811 604Q736 319
592 140Q522 52 434 13T254 -3T109 92T40 270Z" />
<glyph unicode="1" glyph-name="one" horiz-adv-x="622" d="M612 1393Q634 1394 642 1377T645 1337L315 45Q303 0 260 0H201Q176 0 165 18T160 63L440 1168L264 987Q219 942 180 942Q180 942 121 942Q84 942 75 975T100 1040L373 1278Q381 1285 398 1301L424 1325Q483
1381 504 1387T535 1393H612Z" />
<glyph unicode="2" glyph-name="two" horiz-adv-x="823" d="M134 140L641 147Q673 147 684 137T688 94L678 49Q674 27 654 14T608 0H23Q-18 0 -40 24T-61 82T-33 145L557 819Q624 895 661 979T699 1131T661 1245T540 1290T396 1218T332 1036Q332 1021 320 1007T293
989L225 975Q204 971 193 985T182 1044T207 1157T280 1284T403 1380T584 1417T762 1353T850 1192T822 972T678 739L134 140Z" />
<glyph unicode="3" glyph-name="three" horiz-adv-x="782" d="M293 649Q243 649 243 671Q243 681 244 694L252 737Q255 784 351 784T535 860T630 1046T606 1221T503 1286T378 1224T317 1047Q317 1028 303 1013T268 995L209 981Q180 977 172 991T166 1034Q177 1243
333 1354Q412 1411 512 1411Q647 1411 714 1321T777 1082T672 822Q600 743 512 709Q651 655 651 422Q651 259 544 118Q494 53 416 12T258 -29T128 1T54 82Q10 177 14 297Q14 349 47 362L111 391Q136 401 150 391T162 354L159 290Q159 175 196 136Q225 106 270 106Q346
106 412 190T495 388T463 575T293 649Z" />
<glyph unicode="4" glyph-name="four" horiz-adv-x="860" d="M727 330Q727 330 647 330L575 45Q563 0 514 0H455Q430 0 419 18T414 63L481 330H53Q-11 330 -24 381T0 485L594 1366Q616 1393 655 1393H731Q765 1393 771 1370T756 1317L174 469L516 470L588 756Q600
801 649 801H709Q734 801 745 782T750 737L683 471H758Q790 471 802 461T805 426L784 362Q778 343 767 337T727 330Z" />
<glyph unicode="5" glyph-name="five" horiz-adv-x="866" d="M342 873Q427 930 545 930Q665 930 710 858Q756 784 754 714Q743 355 538 132Q397 -21 264 -23Q179 -31 124 7T53 109T46 246T94 383Q111 413 150 401L193 387Q218 379 225 368T223 334Q166 215 216
140Q237 109 266 106Q326 100 408 205T540 447T590 684T537 793Q448 797 394 751Q346 711 297 633Q274 600 238 612L170 643Q149 651 144 661T145 702L328 1350Q339 1393 389 1393H899Q957 1393 944 1341L932 1286Q926 1259 919 1252T891 1245L450 1254L342 873Z"
/>
<glyph unicode="6" glyph-name="six" horiz-adv-x="837" d="M355 903Q429 941 516 936Q753 924 729 584Q716 398 600 194Q545 99 464 36T294 -27T146 23T57 171T48 428T133 764T280 1062T446 1257Q617 1405 741 1407L934 1384Q953 1382 963 1369T963 1342T905
1321T793 1292T656 1227Q465 1116 355 903ZM442 809Q372 809 296 763Q169 395 212 208Q237 104 305 104Q362 104 423 185T522 367T571 543Q605 809 442 809Z" />
<glyph unicode="7" glyph-name="seven" horiz-adv-x="851" d="M904 1281L905 1280L266 43Q244 -3 199 2L145 8Q109 9 101 32T109 84L732 1244L199 1241Q141 1241 156 1298L170 1352Q176 1379 183 1386T211 1393H852Q889 1393 915 1354Q943 1312 904 1281Z" />
<glyph unicode="8" glyph-name="eight" horiz-adv-x="843" d="M480 798Q552 834 619 919T690 1088Q701 1279 561 1292Q472 1298 405 1223T338 1049T372 899T480 798ZM433 657Q354 615 269 510T184 309Q184 106 330 106Q420 106 487 199T555 400T521 566T433 657ZM309
-27Q31 -27 31 270Q31 448 186 605Q244 663 319 720Q272 754 237 805Q178 891 178 997Q178 1119 248 1229Q371 1423 578 1423Q705 1423 779 1341T854 1126Q854 966 712 824Q651 763 584 725Q635 680 678 601T721 432T692 265T611 122T480 15T309 -27Z" />
<glyph unicode="9" glyph-name="nine" horiz-adv-x="884" d="M553 498Q514 477 486 466T398 455T291 478T216 540Q162 620 162 730T196 961T287 1181T431 1343T614 1407Q754 1407 816 1282Q917 1078 748 590Q529 -33 205 -33Q6 -33 6 274Q6 333 47 346L111 365Q133
373 148 365T164 340T162 284T161 220T167 164Q177 102 231 102Q262 102 283 112Q431 182 553 498ZM606 650Q722 1014 692 1176Q672 1280 594 1280Q528 1280 463 1201T359 1000T319 758Q319 580 446 580Q476 580 528 599T606 650Z" />
<glyph unicode=":" glyph-name="colon" horiz-adv-x="675" d="M316 842T286 876T256 958T287 1040T369 1074H391Q430 1074 462 1039T494 955T461 875T377 842H357Q316 842 286 876ZM111 -39T81 -5T51 77T82 159T164 193H186Q225 193 257 158T289 74T256 -6T172
-39H152Q111 -39 81 -5Z" />
<glyph unicode=";" glyph-name="semicolon" horiz-adv-x="471" d="M297 842T267 876T237 958T268 1040T350 1074H372Q411 1074 443 1039T475 955T442 875T358 842H338Q297 842 267 876ZM248 213Q248 2 101 -248Q52 -336 -2 -336Q-26 -336 -26 -310T6 -197T44 -63T61
65T74 178T84 221T117 236L199 254Q248 263 248 213Z" />
<glyph unicode="&lt;" glyph-name="less" horiz-adv-x="968" d="M216 626L752 420Q802 401 791 344L782 303Q776 271 762 264T719 270L63 547Q16 566 25 618L31 647Q39 693 92 711L877 979Q915 992 927 975T932 924L924 891Q910 840 870 829L216 626Z" />
<glyph unicode="=" glyph-name="equal" horiz-adv-x="921" d="M756 436Q756 436 109 436Q61 436 72 483L90 555Q94 572 102 575T141 578H784Q802 578 812 565T819 530L809 479Q800 436 756 436ZM842 766H195Q148 766 158 813L176 885Q181 905 198 906Q204 907
227 907H870Q888 907 898 895T905 860L895 809Q886 766 842 766Z" />
<glyph unicode="&gt;" glyph-name="greater" horiz-adv-x="968" d="M745 627L209 834Q160 852 170 909L178 948Q184 980 198 987T242 981L897 705Q946 686 936 633L930 604Q922 559 868 541L84 272Q46 259 34 277T29 328L37 362Q51 411 90 424L745 627Z" />
<glyph unicode="?" glyph-name="question" horiz-adv-x="653" d="M279 556T261 475T242 368T227 335T180 330L137 334Q71 338 119 512Q126 538 137 580Q162 670 213 711T346 762Q391 768 407 780T430 797T444 811T456 825T466 840Q476 858 481 868T487 881Q518
939 538 1069T552 1251T530 1321Q505 1351 475 1354Q445 1348 330 1233Q310 1217 299 1217T264 1229L229 1251Q211 1263 210 1284T217 1317Q259 1377 335 1437T459 1506T582 1478T680 1393Q752 1227 661 924Q613 766 546 694Q503 649 457 636T360 613T295 598Q279
556 261 475ZM68 -39T38 -5T8 77T39 159T121 193H143Q182 193 214 158T246 74T213 -6T129 -39H109Q68 -39 38 -5Z" />
<glyph unicode="@" glyph-name="at" horiz-adv-x="1800" d="M1093 841Q1073 856 1030 873T941 875T847 794T766 644Q694 458 698 350Q704 174 799 174Q859 174 900 239T983 435T1093 841ZM593 629T668 771T814 969T955 1024T1123 964Q1132 1004 1142 1018T1178
1032L1229 1034Q1298 1034 1284 969L1118 346Q1103 262 1125 212T1193 162T1279 187T1365 262Q1463 374 1516 579T1520 943T1334 1199T1004 1296Q749 1296 561 1120Q380 950 297 672Q244 495 280 282Q316 73 466 -78Q538 -149 650 -189T899 -225Q921 -223 930 -235T928
-270L911 -301Q901 -320 888 -326T848 -334Q704 -343 581 -300T372 -178T227 10T140 239Q83 494 150 712T344 1089T641 1330T1001 1413Q1373 1413 1567 1154Q1677 1008 1686 776Q1691 668 1661 555Q1601 312 1461 163T1181 14T979 127Q955 96 904 58T791 20T675
52T594 143Q529 289 561 459Z" />
<glyph unicode="A" glyph-name="A" horiz-adv-x="942" d="M249 444L51 41Q29 -5 -25 0L-72 4Q-108 5 -119 31T-115 82L567 1397Q610 1479 680 1479L762 1481Q799 1481 820 1456T838 1382L766 45Q764 0 705 0L635 2Q585 2 588 57L614 444H249ZM322 592H624L671
1304L322 592Z" />
<glyph unicode="B" glyph-name="B" horiz-adv-x="921" d="M345 837L512 834Q658 830 718 1024Q763 1168 716 1268Q682 1341 594 1341H474L345 837ZM307 1341H256Q229 1341 209 1357T195 1395L207 1442Q211 1460 226 1471T254 1483H594Q749 1483 831 1403T913 1154T819
868Q753 786 678 752Q728 722 759 666T778 481Q755 252 575 100Q460 0 238 0H23Q-2 0 -13 18T-18 63L307 1341ZM167 140L297 145Q401 148 491 234T608 449Q644 593 575 655Q549 679 496 685T308 692L167 140Z" />
<glyph unicode="C" glyph-name="C" horiz-adv-x="866" d="M833 1418T867 1329T906 1174T912 1097Q914 1070 870 1057L813 1040Q793 1035 771 1051T748 1096Q732 1253 678 1319Q651 1329 618 1329Q518 1334 417 1188T244 788Q150 467 204 262Q234 148 295 133Q445
146 543 354Q546 360 551 371T559 386T565 398T572 408T578 415T585 420T593 421T603 421T616 418T631 412L696 385Q715 378 715 354T702 303Q606 129 515 57T289 -16Q227 -16 158 27Q47 95 26 320T76 829Q122 1016 210 1168T414 1410T651 1499Q676 1499 718 1485T786
1452Q833 1418 867 1329Z" />
<glyph unicode="D" glyph-name="D" horiz-adv-x="858" d="M469 1354Q469 1354 158 137Q176 135 252 135Q381 135 491 284T668 688Q761 1048 681 1216Q670 1239 653 1268Q603 1349 469 1354ZM300 1349L195 1337Q156 1337 162 1384L170 1442Q175 1474 205 1481Q287
1497 438 1497Q648 1497 755 1384T871 1057Q883 765 742 428Q654 219 536 112Q405 -8 219 -8Q109 -8 54 0T-15 31T-16 102L300 1349Z" />
<glyph unicode="E" glyph-name="E" horiz-adv-x="817" d="M516 0Q516 0 25 0Q0 0 -11 18T-16 63L309 1341H227Q196 1341 189 1350T190 1395L203 1442Q210 1469 220 1476T258 1483H926Q955 1483 963 1473T965 1432L950 1380Q941 1341 899 1341H476L357 874H719Q737
874 745 861T748 827L733 776Q723 733 672 733H321L170 141H563Q581 141 589 128T592 94L578 43Q568 0 516 0Z" />
<glyph unicode="F" glyph-name="F" horiz-adv-x="808" d="M655 625Q655 625 293 625L145 45Q133 0 84 0H25Q0 0 -11 18T-16 63L309 1341H229Q198 1341 192 1350T193 1395L205 1442Q212 1469 222 1476T260 1483Q260 1483 928 1483Q957 1483 965 1473T967 1432L952
1380Q943 1341 901 1341H476L329 766H702Q720 766 728 753T731 719L717 668Q707 625 655 625Z" />
<glyph unicode="G" glyph-name="G" horiz-adv-x="880" d="M438 696Q438 696 811 696Q844 696 829 651L819 616Q817 609 807 576T765 462T702 314T628 181T540 76Q439 -12 301 -12Q223 -12 152 35Q20 122 20 442Q20 610 71 813T207 1168T407 1409T641 1499Q721
1499 777 1456T872 1299T911 1129T870 1057L799 1036Q778 1031 765 1042T748 1117T717 1248T641 1327Q546 1353 432 1204T244 788Q155 467 204 259Q231 141 287 137Q394 125 474 244Q565 378 612 557H416Q376 557 391 614L408 672Q412 687 418 691T438 696Z" />
<glyph unicode="H" glyph-name="H" horiz-adv-x="1091" d="M332 1438Q344 1483 393 1483H453Q478 1483 489 1464T494 1419L353 868H840L985 1438Q997 1483 1047 1483H1106Q1131 1483 1142 1464T1147 1419L797 45Q785 0 735 0H676Q651 0 640 18T635 63L804 727H317L143
45Q131 0 82 0H23Q-2 0 -13 18T-18 63L332 1438Z" />
<glyph unicode="I" glyph-name="I" horiz-adv-x="454" d="M328 1438Q340 1483 389 1483H449Q474 1483 484 1464T489 1419L139 45Q127 0 78 0H18Q-7 0 -18 18T-23 63L328 1438Z" />
<glyph unicode="J" glyph-name="J" horiz-adv-x="468" d="M401 1483Q401 1483 463 1483Q488 1483 499 1465T504 1421L162 76Q118 -95 14 -178Q-71 -246 -154 -268Q-191 -280 -203 -256L-227 -209Q-247 -172 -212 -156T-151 -124T-94 -78Q-31 -19 0 98L342 1438Q354
1483 401 1483Z" />
<glyph unicode="K" glyph-name="K" horiz-adv-x="872" d="M328 1438Q340 1483 389 1483H449Q474 1483 484 1464T489 1419L344 851L836 1450Q862 1483 903 1483H989Q1016 1483 1024 1465T1016 1425L457 762L666 61Q685 0 631 0H555Q526 0 516 10T498 51L305 698L139
45Q127 0 78 0H18Q-7 0 -18 18T-23 63L328 1438Z" />
<glyph unicode="L" glyph-name="L" horiz-adv-x="788" d="M578 0Q578 0 18 0Q-7 0 -18 18T-23 63L328 1438Q340 1483 389 1483H449Q474 1483 484 1464T489 1419L163 141H627Q646 141 654 128T657 94L643 43Q633 0 578 0Z" />
<glyph unicode="M" glyph-name="M" horiz-adv-x="1171" d="M328 1438Q340 1482 387 1483H453Q496 1483 502 1436Q558 842 537 570L1061 1444Q1083 1483 1122 1483H1190V1483Q1212 1481 1222 1463T1227 1419L877 45Q865 0 815 0H756Q731 0 720 18T715 63L951 989Q880
864 752 663T590 406Q538 323 487 326L446 328Q390 331 395 410Q409 627 383 1003L139 45Q127 0 78 0H18Q-7 0 -18 18T-23 63L328 1438Z" />
<glyph unicode="N" glyph-name="N" horiz-adv-x="1058" d="M328 1438Q340 1482 387 1483H449Q490 1483 502 1419L683 382L952 1438Q964 1483 1014 1483H1073Q1098 1483 1109 1464T1114 1419L764 45Q752 0 702 0H629Q603 0 596 24Q592 39 591 49T588 63L407 1096L139
45Q127 0 78 0H18Q-7 0 -18 18T-23 63L328 1438Z" />
<glyph unicode="O" glyph-name="O" horiz-adv-x="913" d="M206 246Q240 129 315 129Q424 129 506 236Q606 375 698 674Q785 957 762 1146Q751 1232 718 1281T633 1331Q520 1331 432 1217Q325 1075 236 764T206 246ZM14 444Q14 720 144 1023Q287 1353 490 1460Q564
1499 642 1499T819 1442Q884 1403 908 1318T932 1071T860 635Q734 154 470 28Q392 -10 305 -10Q236 -10 162 29Q14 107 14 444Z" />
<glyph unicode="P" glyph-name="P" horiz-adv-x="919" d="M324 754L438 760Q601 766 664 883Q704 957 724 1052T745 1212Q745 1333 606 1339Q561 1341 474 1342L324 754ZM308 1343Q274 1343 244 1343T201 1360T195 1401L207 1442Q211 1460 226 1471T254 1483H575Q740
1483 825 1414T911 1188Q911 1072 862 932T743 739Q709 713 696 704T631 670T530 636Q425 615 288 613L143 45Q131 0 82 0H23Q-2 0 -13 18T-18 63L308 1343Z" />
<glyph unicode="Q" glyph-name="Q" horiz-adv-x="942" d="M156 -100Q156 -100 170 -53Q175 -30 194 -17T237 3Q199 13 166 31Q94 68 57 177T20 458Q20 720 150 1023Q293 1353 496 1460Q570 1499 648 1499T825 1442Q890 1403 914 1318T938 1071T866 635Q740 154
476 28Q442 11 406 2Q421 -3 436 -10Q550 -62 682 -10Q703 -1 714 -18T719 -63L707 -115Q704 -136 696 -145T652 -171T558 -190T434 -164Q316 -104 186 -164Q163 -173 156 -155T156 -100ZM212 246Q248 129 322 129Q430 129 512 236Q614 377 705 674Q792 957 768
1146Q758 1232 725 1281T639 1331Q526 1331 438 1217Q331 1075 242 763T212 246Z" />
<glyph unicode="R" glyph-name="R" horiz-adv-x="921" d="M333 789L461 795Q600 801 674 915Q745 1024 745 1212Q745 1265 710 1301T611 1338T474 1340L333 789ZM307 1341Q275 1341 245 1341T203 1358T197 1399L207 1442Q211 1460 226 1471T254 1483H602Q743 1483
828 1413T913 1204T861 945T746 773T650 705T578 675L672 70Q683 0 627 0H557Q530 0 519 16T502 72L425 650L297 648L143 45Q131 0 82 0H23Q-2 0 -13 18T-18 63L307 1341Z" />
<glyph unicode="S" glyph-name="S" horiz-adv-x="899" d="M670 1505Q803 1505 858 1396T913 1083Q913 1032 879 1022L807 999Q790 994 774 1005T758 1042Q758 1313 670 1354Q629 1375 572 1348T456 1216T393 977Q391 923 411 895T489 846L573 817Q694 776 732
717Q766 663 766 543T702 284T527 57T297 -33Q55 -33 55 360V367Q55 445 86 453L162 477Q182 485 195 474T209 438Q209 277 228 196T291 92Q322 85 371 106Q454 143 520 259Q601 399 598 576Q597 630 538 662Q508 677 453 694L367 721Q309 738 267 786T225 916T258
1102T348 1297T490 1446T670 1505Z" />
<glyph unicode="T" glyph-name="T" horiz-adv-x="911" d="M1004 1335Q1004 1335 690 1335L360 45Q348 0 299 0H240Q215 0 204 18T199 63L523 1335H199Q141 1335 154 1382L168 1442Q174 1468 186 1475T229 1483H1028Q1090 1483 1077 1425L1067 1378Q1059 1335 1004 1335Z" />
<glyph unicode="U" glyph-name="U" horiz-adv-x="1013" d="M141 59Q-2 211 92 571L313 1438Q325 1483 375 1483H434Q459 1483 470 1464T475 1419L244 506Q145 119 383 119Q482 119 557 200T684 483L928 1438Q940 1483 989 1483H1040Q1065 1483 1075 1464T1079
1419L840 469Q762 151 586 46Q485 -14 349 -14T141 59Z" />
<glyph unicode="V" glyph-name="V" horiz-adv-x="919" d="M326 1479Q380 1479 373 1423L290 180L909 1440Q931 1486 987 1481L1032 1477Q1100 1472 1075 1399L391 82Q352 3 268 0L205 -2Q164 -3 142 28T123 111L195 1434Q200 1479 256 1479H326Z" />
<glyph unicode="W" glyph-name="W" horiz-adv-x="1433" d="M461 1483Q515 1483 477 1403Q421 1303 366 1090T289 651T300 260Q441 414 582 713T774 1262L778 1265Q795 1354 811 1407T843 1471T889 1483H963Q1011 1483 989 1421Q909 1185 883 908T872 478T909 238Q990
328 1072 473T1216 790Q1347 1155 1360 1434Q1362 1467 1372 1475T1401 1483H1483Q1517 1483 1525 1473T1531 1385T1496 1154T1405 832T1268 509T1084 218T860 0H836Q799 0 784 41Q708 259 715 664Q641 490 515 307T276 0H225Q189 0 174 41Q130 173 120 359T129
738Q173 1157 315 1454Q330 1483 371 1483H461Z" />
<glyph unicode="X" glyph-name="X" horiz-adv-x="823" d="M523 684L657 66Q663 38 654 19T621 0H545Q523 0 505 17T479 70L394 581L127 47Q106 0 53 0H-23Q-57 0 -67 21T-55 86L333 782L199 1403Q176 1485 252 1485H301Q335 1485 353 1469T379 1415L472 881L762
1450Q773 1468 786 1476T829 1485H895Q927 1485 940 1472Q964 1449 934 1399L523 684Z" />
<glyph unicode="Y" glyph-name="Y" horiz-adv-x="819" d="M428 769Q714 1194 838 1456Q851 1486 899 1483L963 1475Q987 1473 995 1453T987 1401Q747 980 458 596L317 45Q305 0 256 0H197Q172 0 161 18T156 63L299 628Q299 763 268 1012T213 1344T204 1453T248
1481L305 1489Q334 1491 346 1482T365 1440Q429 1061 428 769Z" />
<glyph unicode="Z" glyph-name="Z" horiz-adv-x="937" d="M317 1483Q317 1483 985 1483Q1012 1483 1019 1472T1024 1440L1012 1380Q1006 1354 993 1345T954 1335H946L162 147H649Q709 147 696 92L686 45Q678 0 618 0H16Q-19 0 -37 14T-56 49T-47 94L769 1335H311Q253
1335 266 1389L285 1454Q289 1472 296 1477T317 1483Z" />
<glyph unicode="[" glyph-name="bracketleft" horiz-adv-x="518" d="M518 1622L48 -193H238Q299 -193 285 -258L281 -279Q277 -302 256 -319T211 -336H-57Q-102 -336 -115 -314T-117 -244L387 1702Q404 1765 471 1765H774Q835 1765 821 1700L817 1679Q813 1656
792 1639T748 1622H518Z" />
<glyph unicode="\" glyph-name="backslash" horiz-adv-x="614" d="M309 41Q309 41 182 1493Q177 1556 233 1556H281Q331 1556 334 1511Q334 1511 459 45Q460 25 448 13T414 0H356Q314 0 309 41Z" />
<glyph unicode="]" glyph-name="bracketright" horiz-adv-x="593" d="M43 -193L506 1620H317Q255 1620 270 1686L274 1708Q278 1731 299 1748T344 1765H614Q659 1765 672 1743T674 1673L176 -272Q159 -336 92 -336H-213Q-275 -336 -260 -270L-256 -250Q-252 -227
-231 -210T-186 -193H43Z" />
<glyph unicode="^" glyph-name="asciicircum" horiz-adv-x="860" d="M639 1303H662Q691 1303 711 1282T735 1223L795 532Q795 498 735 498H692Q639 498 639 535L599 1153L172 526Q162 509 155 504T129 498H35Q10 498 4 510T8 535L479 1212Q515 1267 552 1285T639 1303Z" />
<glyph unicode="_" glyph-name="underscore" horiz-adv-x="1087" d="M-61 -88Q-61 -88 840 -88Q856 -88 867 -99T875 -135L864 -186Q855 -229 811 -229H-70Q-117 -229 -106 -182L-88 -110Q-83 -88 -61 -88Z" />
<glyph unicode="`" glyph-name="grave" horiz-adv-x="493" d="M252 1430Q293 1430 315 1395L432 1206Q441 1189 433 1178T406 1167H373Q342 1167 313 1196L131 1386Q116 1406 121 1418T143 1430H252Z" />
<glyph unicode="a" glyph-name="a" horiz-adv-x="770" d="M573 885Q474 941 415 902T302 744Q210 544 174 350Q158 264 161 228T192 176T263 197T356 306T451 498T573 885ZM604 1000Q615 1047 651 1047L698 1049Q735 1049 750 1029T754 975L509 156Q572 202 635
291Q657 323 686 305L735 272Q767 251 745 221Q662 122 591 69T424 -8Q411 -11 401 -4T387 14L348 128Q316 82 269 38T186 -6H182Q166 -6 132 17T78 65T51 99T34 124T21 155T14 190Q8 225 16 293Q38 460 119 674T279 962T475 1036Q544 1036 604 1000Z" />
<glyph unicode="b" glyph-name="b" horiz-adv-x="759" d="M522 1507Q522 1507 344 808L375 860Q418 931 473 982T563 1034H567Q583 1034 618 1011T685 948T731 866T728 695T630 351T471 64T274 -8Q205 -8 144 29Q128 0 88 0H53Q16 0 2 18T-6 66L369 1509Q381 1554
430 1554H477Q533 1554 522 1507ZM176 144Q276 87 335 126T448 285Q540 484 575 678Q591 764 588 800T558 852T486 831T393 722T297 528T182 162L176 144Z" />
<glyph unicode="c" glyph-name="c" horiz-adv-x="604" d="M330 1018T376 1035T466 1048T552 1016Q610 981 650 936T666 862L631 823Q596 788 569 813Q566 816 545 837T510 872Q466 909 430 903Q357 889 276 746T157 451T139 195Q143 171 177 151T229 133Q292 168
367 256Q384 274 397 274T432 260L463 240Q487 226 481 206Q464 149 371 73T237 -15T114 16T12 98Q-30 193 -12 333T53 605T143 800T217 902T288 979Z" />
<glyph unicode="d" glyph-name="d" horiz-adv-x="794" d="M901 1507Q901 1507 512 157Q571 201 635 291Q657 323 686 305L735 272Q767 251 745 221Q662 122 591 69T424 -8Q411 -11 401 -4T387 14L348 127Q316 82 269 38T186 -6H182Q142 -6 79 61T12 207Q8 365
102 626T278 962T475 1036Q544 1036 604 1000L741 1509Q753 1554 803 1554H856Q915 1554 901 1507ZM573 885Q474 941 408 897Q305 827 208 486Q139 239 181 185Q203 156 240 180Q336 242 412 409T573 885Z" />
<glyph unicode="e" glyph-name="e" horiz-adv-x="638" d="M175 416Q383 506 458 660Q496 739 496 815T452 891Q356 891 287 741T175 416ZM149 281Q134 195 151 161T205 117Q281 145 391 270Q410 289 432 274L471 250Q483 243 488 229T489 205Q451 131 346 48T176
-23Q31 12 6 129Q-13 222 13 378T112 700Q217 943 355 1007Q464 1058 554 1018T645 819Q645 727 600 638Q519 479 314 359Q234 312 149 281Z" />
<glyph unicode="f" glyph-name="f" horiz-adv-x="587" d="M164 0Q164 0 111 0Q85 0 73 13T66 47L289 897H174Q153 897 147 907T147 946L162 1001Q170 1040 207 1040H327L352 1135Q427 1417 576 1524Q613 1550 656 1562T717 1571T745 1565L870 1532Q936 1515 903
1456L877 1407Q863 1378 805 1397L673 1442Q569 1358 510 1135L485 1040H633Q656 1040 663 1030T664 995L649 942Q636 897 594 897H447L223 45Q211 0 164 0Z" />
<glyph unicode="g" glyph-name="g" horiz-adv-x="739" d="M645 1038Q645 1038 705 1040Q756 1042 745 987Q654 631 549 265T444 -102Q391 -293 283 -352Q234 -378 217 -384Q176 -400 96 -354L-113 -236Q-140 -224 -142 -201T-129 -162L-98 -119Q-65 -83 -31 -102L197
-242Q244 -263 264 -186L363 173Q317 97 262 46T172 -6H168Q152 -6 117 17T50 80T4 162T7 333T105 677T264 964T461 1036Q531 1036 591 998Q600 1024 608 1031T645 1038ZM559 884Q459 941 400 902T286 743Q195 544 160 350Q144 264 147 228T177 176T249 197T342
306T438 500T553 866L559 884Z" />
<glyph unicode="h" glyph-name="h" horiz-adv-x="864" d="M80 0H55Q18 0 4 18T-4 66L371 1509Q383 1554 432 1554H479Q535 1554 524 1507L270 508L457 817Q523 928 595 984T719 1040H762Q849 1040 844 956Q842 922 831 864L602 29Q596 0 569 0H463Q452 0 446 12T446
49L662 752Q677 806 677 824T663 842T630 823T576 756Q535 695 471 591T287 297T143 66T115 20T109 12T103 7T97 4Q90 0 80 0Z" />
<glyph unicode="i" glyph-name="i" horiz-adv-x="391" d="M304 1153T277 1182T250 1252T279 1322T350 1352H369Q403 1352 432 1321T461 1251T431 1182T356 1153H340Q304 1153 277 1182ZM387 997L139 45Q127 0 78 0H18Q-38 0 -27 47L223 999Q234 1040 281 1040H348Q375
1040 384 1031T387 997Z" />
<glyph unicode="j" glyph-name="j" horiz-adv-x="411" d="M324 1153T297 1182T270 1252T299 1322T371 1352H389Q423 1352 452 1321T481 1251T451 1182T377 1153H360Q324 1153 297 1182ZM303 1040H367Q416 1040 406 997L156 45Q99 -170 -76 -295Q-155 -351 -233
-375Q-275 -387 -297 -358L-313 -334Q-326 -317 -323 -296T-297 -266Q-207 -231 -119 -142T6 84L248 999Q259 1040 303 1040Z" />
<glyph unicode="k" glyph-name="k" horiz-adv-x="745" d="M512 1507Q512 1507 288 628L598 1018Q616 1040 653 1040H729Q761 1040 763 1019T741 969L390 556L549 55Q558 25 549 13T506 0H451Q420 0 409 8T389 45L256 502L139 45Q127 0 78 0H43Q6 0 -8 18T-16 66L358
1509Q370 1554 420 1554H467Q523 1554 512 1507Z" />
<glyph unicode="l" glyph-name="l" horiz-adv-x="378" d="M512 1507Q512 1507 139 45Q127 0 78 0H43Q6 0 -8 18T-16 66L358 1509Q370 1554 420 1554H467Q523 1554 512 1507Z" />
<glyph unicode="m" glyph-name="m" horiz-adv-x="1333" d="M679 842T665 842T632 823T578 756Q537 695 483 608T345 391Q192 153 156 89T117 20T111 12T105 7T99 4T94 1T88 0Q52 0 28 0Q-20 0 -6 53L242 987Q243 989 244 996T246 1005Q250 1019 251 1020T254 1026T257
1031T262 1034T268 1038Q274 1040 283 1040H367Q393 1040 400 1028T399 981L246 465L459 817Q521 920 596 980T721 1040H764Q877 1040 834 864L728 480L926 819Q989 929 1062 984T1188 1040H1231Q1318 1040 1313 956Q1311 922 1300 864L1071 29Q1065 0 1038 0H932Q921
0 915 12T915 49L1130 752Q1145 806 1145 824T1130 842T1081 804T981 657T841 435T740 276Q650 131 604 29Q592 0 569 0H465Q440 0 449 49L664 752Q679 806 679 824Z" />
<glyph unicode="n" glyph-name="n" horiz-adv-x="866" d="M679 842T665 842T632 823T578 756Q537 695 483 608T345 391Q192 153 156 89T117 20T111 12T105 7T99 4T94 1T88 0Q52 0 28 0Q-20 0 -6 53L242 987Q247 1015 255 1027T283 1040H367Q393 1040 400 1028T399
981L246 465L459 817Q525 928 597 984T721 1040H764Q877 1040 834 864L604 29Q598 0 571 0H465Q440 0 449 49L664 752Q679 806 679 824Z" />
<glyph unicode="o" glyph-name="o" horiz-adv-x="686" d="M354 215Q495 437 502 705Q505 825 490 866T428 908T345 866T272 748Q179 556 172 317Q168 132 236 127Q296 125 354 215ZM6 297Q16 573 120 772Q165 860 194 899T264 978Q349 1059 469 1057Q572 1052
629 954Q671 887 666 731T613 425T506 175Q388 -22 205 -16Q138 -13 84 41Q48 75 26 141T6 297Z" />
<glyph unicode="p" glyph-name="p" horiz-adv-x="745" d="M381 995Q381 995 335 814L362 860Q405 931 460 982T551 1034H555Q571 1034 606 1011T673 948T719 866T716 695T618 351T459 64T262 -8Q193 -8 134 28L33 -365Q21 -410 -29 -410H-66Q-99 -410 -112 -391T-119
-344L225 997Q236 1040 281 1040H340Q392 1040 381 995ZM164 144Q264 87 323 126T436 285Q528 484 563 678Q579 764 576 800T546 852T474 831T381 722T285 528T170 162L164 144Z" />
<glyph unicode="q" glyph-name="q" horiz-adv-x="743" d="M596 999Q606 1040 651 1040H711Q761 1040 750 993L401 -365Q389 -410 340 -410H303Q270 -410 257 -391T250 -344L393 211L367 168Q324 97 269 46T178 -6H174Q158 -6 123 17T56 80T10 162T13 333T111 677T270
964T467 1036Q536 1036 596 999ZM565 885Q463 940 405 901T292 743Q201 544 166 350Q150 264 153 228T183 176T255 197T348 306T444 500T559 866L565 885Z" />
<glyph unicode="r" glyph-name="r" horiz-adv-x="577" d="M341 765Q474 981 547 1030Q571 1047 633 1047H653Q712 1047 694 1001Q685 976 644 940T535 817T467 705Q467 651 518 604Q530 594 526 582T504 567L426 553Q393 548 376 560T333 622L316 653L158 45Q146
0 96 0H37Q-19 0 -8 47L242 999Q253 1040 299 1040H362Q389 1040 398 1031T401 997L341 765Z" />
<glyph unicode="s" glyph-name="s" horiz-adv-x="655" d="M403 1053Q403 1053 434 1053Q503 1053 562 1000T659 868Q666 855 664 834T645 803L584 768Q567 755 549 757T525 771T505 816T482 864T450 898T399 920Q349 910 304 852T258 690Q258 645 279 627T356
598L414 586Q539 559 539 379Q539 273 458 133Q419 67 354 22T211 -23H197Q119 -23 58 31T-28 142T-29 227L16 264Q38 285 62 283T94 246T144 165T221 115Q283 125 328 187T373 330T357 434T289 469L244 479Q163 498 131 545T98 674T141 846T256 994T403 1053Z"
/>
<glyph unicode="t" glyph-name="t" horiz-adv-x="475" d="M508 1356Q508 1356 427 1040H535Q558 1040 565 1030T565 995L551 942Q538 897 498 897H391L174 45Q162 0 113 0H74Q41 0 28 19T20 66L232 897H152Q131 897 125 907T125 946L141 1001Q152 1040 186 1040H269L350
1358Q362 1403 412 1403H463Q519 1403 508 1356Z" />
<glyph unicode="u" glyph-name="u" horiz-adv-x="827" d="M570 538L383 223Q317 110 250 55T131 0H119Q56 0 20 69T14 250L223 1012Q229 1040 256 1040H362Q373 1040 379 1028T379 991L172 281Q151 197 178 194Q208 191 280 299T520 714T693 1025T701 1034T711
1038T719 1040H811Q823 1040 831 1025T834 987L586 53Q581 25 573 13T545 0H461Q435 0 428 12T428 59L570 538Z" />
<glyph unicode="v" glyph-name="v" horiz-adv-x="743" d="M299 193Q485 502 614 1010Q624 1053 672 1049L729 1044Q753 1041 765 1027T772 993Q609 445 399 117Q321 -3 266 0L209 4Q182 6 166 31T152 104Q175 477 145 965Q140 1040 195 1040H252Q297 1040 301
993Q331 544 299 193Z" />
<glyph unicode="w" glyph-name="w" horiz-adv-x="1206" d="M290 190Q346 278 418 434T544 756T602 1001Q605 1040 651 1040H717Q756 1040 762 993Q795 569 760 191Q948 500 1077 1010Q1087 1053 1135 1049L1192 1044Q1216 1042 1228 1028T1235 993Q1072 445 862
117Q787 -3 733 0L672 4Q645 6 628 31T614 104Q625 349 623 570Q547 374 391 117Q319 -3 266 0L203 4Q176 6 159 31T145 104Q171 594 154 995Q151 1018 165 1029T203 1040H264Q308 1040 311 993Q325 574 290 190Z" />
<glyph unicode="x" glyph-name="x" horiz-adv-x="724" d="M-92 51Q138 331 279 524Q228 735 160 965Q133 1040 193 1040H250Q295 1040 309 993Q362 808 402 650Q495 789 565 907T639 1029Q650 1040 684 1040H754Q809 1040 764 967Q655 780 441 484Q488 278 524
43Q530 3 492 0L430 -6Q401 -10 391 2T371 57Q349 198 318 349Q159 147 123 103T78 49T68 35T58 25T46 14T33 7Q19 0 0 0H-59Q-88 0 -97 17T-92 51Z" />
<glyph unicode="y" glyph-name="y" horiz-adv-x="831" d="M726 1040H815Q827 1040 835 1025T838 987Q762 699 652 309T528 -136T470 -257Q425 -327 361 -360Q323 -381 304 -386Q263 -398 188 -354L-20 -236Q-47 -224 -49 -200T-37 -162L-6 -119Q12 -100 26 -96T61
-102L289 -242Q308 -252 326 -240T356 -186L555 516L508 426L387 223Q321 110 254 55T135 0H123Q80 0 51 31Q-20 110 18 250L227 1012Q235 1040 260 1040H367Q392 1040 383 991L176 281Q155 198 182 195Q213 192 284 300T524 714T697 1025T706 1034Q712 1040 726
1040Z" />
<glyph unicode="z" glyph-name="z" horiz-adv-x="749" d="M130 131H425L459 262Q468 303 522 307L565 311Q592 313 604 300T610 262L553 45Q541 0 492 0H6Q-35 0 -54 22T-71 74T-45 129L597 909H310L276 778Q267 737 213 733L168 729Q141 727 129 740T123 778L182
999Q194 1040 242 1040H702Q734 1040 760 1019T789 961T752 877L130 131Z" />
<glyph unicode="{" glyph-name="braceleft" horiz-adv-x="569" d="M322 -332L231 -336Q128 -337 63 -276T-14 -115Q-33 -24 41 120Q72 181 108 246T170 370T207 481Q229 594 106 641L59 659Q11 678 25 739L39 799Q49 841 111 852L193 868Q289 888 327 934T363
1059T352 1240T343 1422T364 1565T423 1676Q502 1772 696 1774H840Q902 1774 887 1708L879 1669Q875 1646 855 1631T811 1616H670Q546 1616 512 1534Q479 1452 504 1160Q511 1079 511 1045T502 958T470 877T426 829T378 797T334 776T283 757T233 739Q310 703 344
628T364 483T315 340T236 181T172 51Q128 -49 148 -111T250 -174H365Q426 -174 412 -236L403 -274Q398 -297 378 -314T334 -332H322Z" />
<glyph unicode="|" glyph-name="bar" horiz-adv-x="362" d="M481 1507Q481 1507 2 -365Q-10 -410 -59 -410H-86Q-119 -410 -132 -391T-139 -344L336 1509Q348 1554 397 1554H436Q492 1554 481 1507Z" />
<glyph unicode="}" glyph-name="braceright" horiz-adv-x="657" d="M336 1769L426 1774Q529 1775 594 1713T672 1552Q691 1462 617 1317Q586 1256 550 1191T487 1068T450 957Q428 844 551 797L598 778Q647 759 633 698L618 639Q608 597 547 586L465 569Q369 549
331 503T294 378T305 197T314 15T293 -128T234 -238Q155 -334 -39 -336H-182Q-244 -336 -229 -270L-221 -231Q-217 -208 -197 -193T-154 -178H-12Q112 -178 146 -96Q179 -13 155 259Q139 438 154 487T190 563T231 608T279 640T323 661T374 680T424 698Q347 734
313 809T295 964T396 1209T485 1386Q529 1486 509 1549T408 1612H293Q232 1612 246 1673L254 1712Q258 1735 279 1752T324 1769H336Z" />
<glyph unicode="~" glyph-name="asciitilde" horiz-adv-x="886" d="M111 793Q111 793 123 827Q140 895 304 902Q396 905 478 876Q629 822 795 877Q822 886 836 867T842 817L831 776Q827 754 817 744T760 716T637 695T475 723Q321 789 150 723Q121 713 111 733T111 793Z" />
<glyph unicode="&#xa0;" glyph-name="nbspace" horiz-adv-x="530" />
<glyph unicode="&#xa1;" glyph-name="exclamdown" horiz-adv-x="540" d="M524 1114Q524 1114 279 23Q270 -23 217 -23H96Q37 -23 51 25L420 1116Q434 1161 475 1161H487Q507 1161 518 1150T524 1114ZM483 1288T452 1320T420 1398T452 1475T537 1507H559Q599 1507
632 1473T666 1394T631 1319T545 1288H526Q483 1288 452 1320Z" />
<glyph unicode="&#xa2;" glyph-name="cent" horiz-adv-x="675" d="M158 -195Q126 -195 113 -177T106 -131L157 53Q87 82 42 173Q-20 297 6 450T85 718Q185 938 342 1020Q376 1037 409 1045L469 1268Q481 1311 528 1311H573Q628 1311 616 1266L558 1040Q598 1025
626 991Q717 875 631 612Q622 584 573 592L524 604Q495 609 487 622T487 664Q525 771 524 863T481 956Q410 956 318 824Q171 614 158 368Q153 285 172 223T236 152Q329 172 404 314Q414 334 425 358T440 387Q455 413 483 406L551 377Q597 357 575 307Q469 80 305
46L252 -152Q240 -195 193 -195H158Z" />
<glyph unicode="&#xa3;" glyph-name="sterling" horiz-adv-x="933" d="M-156 53Q-156 53 -139 104Q-135 129 -119 140T-62 189T35 288Q182 453 227 590H127Q82 590 94 647L104 690Q108 716 114 723T135 731H243Q219 1040 297 1205Q408 1438 628 1444Q777 1447
854 1354Q928 1265 914 1110Q908 1037 895 998T880 956T875 945T867 934Q852 923 840 920L772 901Q741 893 731 910T729 952Q816 1179 740 1266Q707 1303 638 1306Q559 1310 494 1246Q393 1147 388 860Q386 801 391 731H664Q688 731 697 722T700 684L690 631Q682
590 637 590H386Q364 479 313 404Q251 311 164 209Q270 213 342 188T445 154T522 140Q597 132 727 176Q749 182 762 168T766 125L754 68Q747 44 731 34T680 13T627 -1T568 -11T496 -12Q410 -1 336 28T209 60T109 52T20 27Q-93 -11 -121 -13T-157 0T-156 53Z" />
<glyph unicode="&#xa4;" glyph-name="currency" horiz-adv-x="1048" d="M596 330Q742 512 749 737Q752 837 736 871T672 907T586 872T510 774Q413 618 406 415Q402 261 472 257Q534 255 596 330ZM508 969Q601 1032 715 1030Q771 1028 808 1010L911 1165Q944 1215
981 1192L1032 1161Q1066 1140 1069 1122T1049 1075L906 892Q921 839 917 734T865 507T749 295L819 78Q829 49 819 34T776 0L741 -20Q658 -63 639 25L603 171Q527 136 459 138T348 164L258 14Q257 13 252 7T245 -2T237 -9T227 -15T216 -18Q204 -20 188 -10L127
31Q96 49 92 64T109 115L242 307Q232 348 235 433Q244 628 372 823L293 1077Q288 1091 286 1102T283 1122T283 1137T287 1149T295 1159T304 1167T316 1176T330 1186L371 1206Q398 1224 421 1208T455 1153L508 969Z" />
<glyph unicode="&#xa5;" glyph-name="yen" horiz-adv-x="983" d="M70 700Q70 700 918 700Q966 700 955 655L947 614Q943 594 923 583T879 571H60Q-1 571 15 625L25 659Q32 686 40 693T70 700ZM14 442Q14 442 862 442Q910 442 899 397L891 356Q887 336 867 325T823
313H4Q-57 313 -41 367L-31 401Q-24 428 -16 435T14 442ZM504 769Q790 1194 914 1456Q927 1486 975 1483L1039 1475Q1063 1473 1071 1453T1063 1401Q823 980 534 596L393 45Q381 0 332 0H273Q248 0 237 18T232 63L375 628Q375 763 344 1012T289 1344T280 1453T324
1481L381 1489Q410 1491 422 1482T441 1440Q505 1061 504 769Z" />
<glyph unicode="&#xa6;" glyph-name="brokenbar" horiz-adv-x="366" d="M485 1513Q485 1513 283 735Q271 690 221 690H182Q126 690 137 737L340 1516Q352 1561 401 1561H440Q497 1561 485 1513ZM207 412L4 -367Q-8 -412 -57 -412H-96Q-152 -412 -141 -365L61 414Q73
459 123 459H162Q218 459 207 412Z" />
<glyph unicode="&#xa7;" glyph-name="section" horiz-adv-x="854" d="M477 916Q456 919 434 915Q376 901 329 812T281 653Q281 620 309 591T388 533T457 489Q494 510 530 554Q594 633 598 750Q601 796 590 816T575 843T561 859T547 873T529 886T511 897Q503 901
477 916ZM537 365Q543 339 543 292T527 178T479 48T402 -64Q305 -172 168 -172Q-31 -172 -31 160Q-31 217 8 236L68 266Q94 280 111 271T129 248T128 207T126 163T125 115T129 65T139 24Q151 -21 182 -25Q248 -20 312 58T381 254Q384 300 373 320T358 347T344 363T330
377T312 390T294 401Q272 412 254 424Q115 506 115 601T145 782Q201 940 323 1020Q336 1029 349 1036Q332 1070 332 1131T362 1277T438 1420T540 1515T647 1552T747 1532T830 1470Q909 1380 895 1198Q893 1162 856 1147L784 1126Q761 1121 751 1129T741 1163Q755
1405 651 1411Q593 1397 546 1308T498 1149Q498 1116 526 1087T631 1014Q760 940 760 807Q760 668 696 544Q632 419 537 365Z" />
<glyph unicode="&#xa8;" glyph-name="dieresis" horiz-adv-x="1071" d="M679 1235T652 1264T625 1334T654 1404T725 1434H743Q777 1434 806 1403T836 1333T806 1264T731 1235H715Q679 1235 652 1264ZM351 1235T324 1264T297 1334T326 1404T397 1434H416Q450 1434
479 1403T508 1333T478 1264T403 1235H387Q351 1235 324 1264Z" />
<glyph unicode="&#xa9;" glyph-name="copyright" horiz-adv-x="1593" d="M698 348Q753 362 809 441T893 600Q902 626 926 616L1001 586Q1031 571 1020 543Q966 414 881 330T694 246Q629 246 582 275T509 351T470 458Q429 658 528 894Q599 1063 726 1154Q839 1236
961 1221Q1080 1207 1114 1114Q1149 1016 1065 825Q1054 798 1022 803L958 815Q917 821 930 858Q1000 1042 971 1094Q949 1133 888 1120Q828 1107 762 1033Q685 945 631 752Q556 481 651 374Q673 350 698 348ZM280 818Q251 699 251 592T285 393T378 236Q501 96
723 96Q949 96 1108 261Q1258 417 1319 655Q1366 835 1330 1004Q1295 1169 1183 1275Q1068 1384 889 1384Q665 1384 500 1218Q338 1054 280 818ZM141 868Q215 1134 420 1312Q517 1397 637 1446T883 1495Q1177 1495 1348 1290Q1424 1199 1459 1074Q1525 838 1451
570T1181 143T710 -16T254 166Q142 279 113 474T141 868Z" />
<glyph unicode="&#xaa;" glyph-name="ordfeminine" horiz-adv-x="604" d="M454 1189Q368 1190 305 1141T231 1004Q227 971 245 950T294 928T356 966T393 1019T412 1068T430 1115T442 1151T454 1189ZM476 931Q553 977 592 1042Q605 1065 625 1055L655 1040Q679
1028 668 1010Q628 940 567 886T440 819Q430 817 414 820T393 831L371 870Q291 795 197 831Q103 872 100 971T162 1151T315 1265T478 1292Q479 1299 480 1305T487 1334T496 1382Q509 1454 477 1475Q421 1472 318 1354Q303 1337 296 1330T274 1333L238 1368Q229
1372 226 1382T225 1399Q251 1451 333 1514T477 1573Q512 1571 557 1544T614 1468Q632 1390 582 1212T476 931Z" />
<glyph unicode="&#xab;" glyph-name="guillemotleft" horiz-adv-x="821" d="M615 549L723 215Q740 166 694 166H662Q618 166 602 213L488 535Q473 583 504 623L778 938Q799 963 842 963H875Q897 963 904 952T895 918L615 549ZM576 549L684 215Q701 166 655 166H623Q579
166 563 213L449 535Q434 583 465 623L739 938Q760 963 803 963H836Q858 963 865 952T856 918L576 549Z" />
<glyph unicode="&#xac;" glyph-name="logicalnot" horiz-adv-x="1720" d="M1269 772H291Q260 772 251 789T252 846L258 866Q268 903 284 913T334 924H1386Q1467 924 1444 836L1337 442Q1325 397 1276 397H1225Q1169 397 1180 444L1269 772Z" />
<glyph unicode="&#xae;" glyph-name="registered" horiz-adv-x="1593" d="M280 818Q251 699 251 592T285 393T378 236Q501 96 723 96Q1052 96 1234 438Q1389 726 1330 1004Q1295 1169 1183 1275Q1068 1384 889 1384Q665 1384 500 1218Q338 1054 280 818ZM141 868Q215
1134 420 1312Q517 1397 637 1446T883 1495Q1177 1495 1348 1290Q1424 1199 1459 1074Q1525 838 1451 570T1181 143T710 -16T254 166Q142 279 113 474T141 868ZM721 754L784 756Q867 759 903 788Q979 848 985 965Q987 1002 973 1027T919 1074T814 1099L721 754ZM674
1090Q653 1087 632 1083T599 1091T592 1120L608 1180Q612 1198 647 1208Q767 1237 881 1219T1060 1140T1124 987T1079 817T992 712T909 669L985 340Q991 315 982 302T956 289H883Q854 289 844 328L781 651H694L606 322Q597 291 557 291H504Q484 291 475 303T471
334L674 1090Z" />
<glyph unicode="&#xaf;" glyph-name="overscore" horiz-adv-x="815" d="M131 1329Q131 1329 850 1329Q865 1329 870 1321Q876 1310 862 1261T819 1212H115Q82 1212 80 1227Q80 1234 84 1249T90 1270L100 1305Q106 1329 131 1329Z" />
<glyph unicode="&#xb0;" glyph-name="degree" horiz-adv-x="942" d="M490 1552T425 1489T360 1352T403 1235T518 1190T657 1251T725 1391T684 1510T566 1552ZM361 1573T437 1611T605 1649T762 1583T827 1428T797 1277T718 1176Q617 1094 504 1094T324 1162T258
1327T309 1498Z" />
<glyph unicode="&#xb1;" glyph-name="plusminus" horiz-adv-x="972" d="M35 184Q35 184 678 184Q715 184 709 143L700 94Q694 57 659 57Q659 57 31 57Q-3 57 2 94L14 162Q19 184 35 184ZM776 606H504L446 385Q434 342 387 342H346Q291 342 303 387L360 606H111Q78
606 84 637L100 702Q104 721 113 727T145 733H394L444 926Q456 969 504 969H545Q600 969 588 924L538 733H803Q820 733 828 724T834 700L819 639Q812 606 776 606Z" />
<glyph unicode="&#xb2;" glyph-name="twosuperior" horiz-adv-x="604" d="M230 782H557Q604 782 592 739L580 692Q576 677 560 666T526 655H98Q56 655 39 690T61 772L463 1194Q518 1252 540 1313T540 1415T457 1456T348 1410T299 1292Q299 1280 286 1270T258 1257L203
1249Q174 1245 170 1266Q168 1272 168 1284Q168 1403 257 1485T481 1567Q562 1567 613 1524T675 1414T655 1264T547 1104L230 782Z" />
<glyph unicode="&#xb3;" glyph-name="threesuperior" horiz-adv-x="614" d="M517 1121Q612 1094 612 965T519 737T295 637Q155 634 114 796Q104 837 104 879T131 934L190 958Q221 968 228 961T236 926Q223 743 324 743Q413 743 460 860Q470 884 473 901Q488 976
462 1015T352 1055Q314 1055 311 1076Q310 1082 311 1090L315 1135Q319 1169 368 1168T473 1204T546 1307T536 1417T456 1460T359 1416T313 1315T279 1253L223 1247Q194 1243 190 1266Q188 1274 188 1288Q188 1403 272 1487T462 1570T623 1509T678 1353T601 1180Q562
1141 517 1121Z" />
<glyph unicode="&#xb4;" glyph-name="acute" horiz-adv-x="573" d="M418 1430Q440 1430 446 1417T432 1378L254 1192Q231 1167 197 1167H154Q137 1167 133 1178T135 1196L262 1395Q284 1430 326 1430H418Z" />
<glyph unicode="&#xb5;" glyph-name="mu" horiz-adv-x="854" d="M283 1040Q283 1040 389 1040Q400 1040 406 1028T406 991L199 281Q179 198 204 194Q234 190 307 301Q378 408 546 714T720 1025T728 1034T738 1038T746 1040H838Q850 1040 858 1025T860 987L612
53Q607 25 599 13T571 0H487Q461 0 454 12T455 59L596 538L410 223Q344 110 277 55T158 0H117Q115 -30 96 -104L23 -365Q11 -410 -39 -410H-66Q-100 -410 -113 -391T-119 -344L250 1012Q256 1040 283 1040Z" />
<glyph unicode="&#xb6;" glyph-name="paragraph" horiz-adv-x="1384" d="M899 1337L467 -365Q455 -410 406 -410H356Q323 -410 310 -391T303 -344L573 717Q434 723 339 807T244 1032Q244 1233 401 1358T803 1483H1470Q1495 1483 1503 1472T1505 1434L1493 1378Q1484
1337 1436 1337H1284L852 -365Q840 -410 791 -410H741Q708 -410 695 -391T688 -344L1115 1337H899Z" />
<glyph unicode="&#xb7;" glyph-name="middot" horiz-adv-x="434" d="M242 580T210 614T178 695T211 776T295 811H317Q356 811 390 775T424 693T389 614T303 580H283Q242 580 210 614Z" />
<glyph unicode="&#xb8;" glyph-name="cedilla" horiz-adv-x="604" d="M377 -80Q377 -80 436 -96Q472 -105 460 -153T431 -234T380 -301Q314 -369 164 -375Q133 -375 127 -348L121 -324Q113 -285 147 -283Q230 -277 278 -231T326 -113Q326 -87 345 -80T377 -80Z" />
<glyph unicode="&#xb9;" glyph-name="onesuperior" horiz-adv-x="389" d="M502 1561Q523 1562 527 1552T524 1522L276 686Q267 655 240 655H162Q144 655 138 667T137 696L344 1386L254 1298Q226 1270 199 1270H137Q113 1270 109 1291T127 1333L311 1489Q319 1496
334 1509T357 1530T378 1546Q400 1561 420 1561H502Z" />
<glyph unicode="&#xba;" glyph-name="ordmasculine" horiz-adv-x="665" d="M291 1116Q291 971 377 971Q427 971 467 1003T532 1086Q580 1191 580 1288T560 1415T489 1444T398 1413T336 1331Q291 1230 291 1116ZM232 1412Q276 1481 349 1524T520 1567T673 1493T727
1329T704 1160T637 1009T521 893T358 848T205 914T143 1126T232 1412Z" />
<glyph unicode="&#xbb;" glyph-name="guillemotright" horiz-adv-x="735" d="M643 580L535 913Q518 963 563 963H596Q638 963 655 915L770 594Q785 546 754 506L479 190Q458 166 416 166H383Q361 166 354 177T362 211L643 580ZM596 580L488 913Q471 963 516 963H549Q591
963 608 915L723 594Q738 546 707 506L432 190Q411 166 369 166H336Q314 166 307 177T315 211L596 580Z" />
<glyph unicode="&#xbc;" glyph-name="onequarter" horiz-adv-x="1871" d="M1573 197Q1573 197 1510 197L1461 29Q1451 0 1414 0H1358Q1339 0 1331 12T1328 41L1373 197H1139Q1091 197 1067 218T1044 270T1072 332L1496 877Q1522 906 1551 906H1604Q1625 906 1633
888T1629 850L1200 312H1407L1463 504Q1473 533 1510 533H1565Q1583 533 1592 521T1596 492L1544 312H1608Q1655 315 1643 273L1627 234Q1612 197 1573 197ZM154 -55Q154 -55 72 -53Q48 -53 42 -34T60 14L1557 1518Q1604 1565 1655 1565Q1655 1565 1735 1565Q1765
1565 1770 1544T1751 1497L240 -18Q216 -42 199 -48T154 -55ZM639 1524Q660 1525 664 1515T661 1485L413 649Q404 618 377 618H299Q281 618 275 630T274 659L481 1349L391 1261Q363 1233 336 1233H274Q250 1233 246 1254T264 1296L448 1452Q456 1459 471 1472T494
1493T515 1509Q537 1524 557 1524H639Z" />
<glyph unicode="&#xbd;" glyph-name="onehalf" horiz-adv-x="1892" d="M1307 127H1634Q1681 127 1669 84L1657 37Q1653 22 1637 11T1603 0H1175Q1133 0 1116 35T1138 117L1540 539Q1595 597 1617 658T1617 760T1534 801T1425 755T1376 637Q1376 625 1363 615T1335
602L1280 594Q1251 590 1247 611Q1245 617 1245 629Q1245 748 1334 830T1558 912Q1639 912 1690 869T1752 759T1732 609T1624 449L1307 127ZM154 -55Q154 -55 72 -53Q48 -53 42 -34T60 14L1557 1518Q1604 1565 1655 1565Q1655 1565 1735 1565Q1765 1565 1770 1544T1751
1497L240 -18Q216 -42 199 -48T154 -55ZM639 1524Q660 1525 664 1515T661 1485L413 649Q404 618 377 618H299Q281 618 275 630T274 659L481 1349L391 1261Q363 1233 336 1233H274Q250 1233 246 1254T264 1296L448 1452Q456 1459 471 1472T494 1493T515 1509Q537
1524 557 1524H639Z" />
<glyph unicode="&#xbe;" glyph-name="threequarters" horiz-adv-x="1853" d="M1573 197Q1573 197 1510 197L1461 29Q1451 0 1414 0H1358Q1339 0 1331 12T1328 41L1373 197H1139Q1091 197 1067 218T1044 270T1072 332L1496 877Q1522 906 1551 906H1604Q1625 906
1633 888T1629 850L1200 312H1407L1463 504Q1473 533 1510 533H1565Q1583 533 1592 521T1596 492L1544 312H1608Q1655 315 1643 273L1627 234Q1612 197 1573 197ZM154 -55Q154 -55 72 -53Q48 -53 42 -34T60 14L1557 1518Q1604 1565 1655 1565Q1655 1565 1735 1565Q1765
1565 1770 1544T1751 1497L240 -18Q216 -42 199 -48T154 -55ZM548 1340Q643 1313 643 1184T550 956T326 856Q186 853 145 1015Q135 1056 135 1098T162 1153L221 1177Q252 1187 259 1180T267 1145Q254 962 355 962Q444 962 491 1079Q501 1103 504 1120Q519 1195
493 1234T383 1274Q345 1274 342 1295Q341 1301 342 1309L346 1354Q350 1388 399 1387T504 1423T577 1526T567 1636T487 1679T390 1635T344 1534T310 1472L254 1466Q225 1462 221 1485Q219 1493 219 1507Q219 1622 303 1706T493 1789T654 1728T709 1572T632 1399Q593
1360 548 1340Z" />
<glyph unicode="&#xbf;" glyph-name="questiondown" horiz-adv-x="677" d="M647 1483T679 1449T711 1367T678 1286T594 1251H571Q532 1251 499 1287T465 1369T500 1449T586 1483H606Q647 1483 679 1449ZM449 909T465 993T481 1110T496 1150T543 1155L590 1149Q635
1140 634 1072T592 905T502 766T375 724T269 696T215 600T170 406T156 231Q166 140 236 127Q273 138 356 232Q368 245 376 254Q398 275 434 250L473 225Q491 213 491 194T481 164Q430 101 363 44T251 -21T128 7T29 97T3 231T12 391Q36 546 66 618T109 716T142 773T185
817T241 846Q296 869 424 877Q449 909 465 993Z" />
<glyph unicode="&#xc0;" glyph-name="Agrave" horiz-adv-x="942" d="M653 1876Q694 1876 716 1841L833 1652Q842 1635 834 1624T807 1613H774Q743 1613 714 1642L532 1832Q517 1852 522 1864T544 1876H653ZM249 444L51 41Q29 -5 -25 0L-72 4Q-108 5 -119 31T-115
82L567 1397Q610 1479 680 1479L762 1481Q799 1481 820 1456T838 1382L766 45Q764 0 705 0L635 2Q585 2 588 57L614 444H249ZM322 592H624L671 1304L322 592Z" />
<glyph unicode="&#xc1;" glyph-name="Aacute" horiz-adv-x="944" d="M971 1846Q993 1846 999 1833T985 1794L807 1608Q784 1583 750 1583H707Q690 1583 686 1594T688 1612L815 1811Q837 1846 879 1846H971ZM249 444L51 41Q29 -5 -25 0L-72 4Q-108 5 -119 31T-115
82L567 1397Q610 1479 680 1479L762 1481Q799 1481 820 1456T838 1382L766 45Q764 0 705 0L635 2Q585 2 588 57L614 444H249ZM322 592H624L671 1304L322 592Z" />
<glyph unicode="&#xc2;" glyph-name="Acircumflex" horiz-adv-x="935" d="M758 1755L629 1624Q614 1609 604 1606T572 1602H522Q499 1602 495 1617T510 1649L717 1835Q752 1866 768 1864L787 1862Q809 1859 828 1825L936 1636Q945 1623 940 1613T916 1602H856Q835
1602 827 1606T813 1624L758 1755ZM249 444L51 41Q29 -5 -25 0L-72 4Q-108 5 -119 31T-115 82L567 1397Q610 1479 680 1479L762 1481Q799 1481 820 1456T838 1382L766 45Q764 0 705 0L635 2Q585 2 588 57L614 444H249ZM322 592H624L671 1304L322 592Z" />
<glyph unicode="&#xc3;" glyph-name="Atilde" horiz-adv-x="942" d="M414 1682Q414 1682 426 1721Q434 1752 459 1762Q499 1782 579 1782T732 1756T864 1731T976 1746T1042 1751T1049 1712L1037 1663Q1031 1639 1020 1628T983 1610Q847 1571 729 1614Q578 1666
457 1628Q427 1617 416 1630T414 1682ZM249 444L51 41Q29 -5 -25 0L-72 4Q-108 5 -119 31T-115 82L567 1397Q610 1479 680 1479L762 1481Q799 1481 820 1456T838 1382L766 45Q764 0 705 0L635 2Q585 2 588 57L614 444H249ZM322 592H624L671 1304L322 592Z" />
<glyph unicode="&#xc4;" glyph-name="Adieresis" horiz-adv-x="935" d="M847 1665T820 1694T793 1764T822 1834T893 1864H911Q945 1864 974 1833T1004 1763T974 1694T899 1665H883Q847 1665 820 1694ZM519 1665T492 1694T465 1764T494 1834T565 1864H584Q618 1864
647 1833T676 1763T646 1694T571 1665H555Q519 1665 492 1694ZM249 444L51 41Q29 -5 -25 0L-72 4Q-108 5 -119 31T-115 82L567 1397Q610 1479 680 1479L762 1481Q799 1481 820 1456T838 1382L766 45Q764 0 705 0L635 2Q585 2 588 57L614 444H249ZM322 592H624L671
1304L322 592Z" />
<glyph unicode="&#xc5;" glyph-name="Aring" horiz-adv-x="948" d="M693 1624T646 1588T577 1481T575 1351T655 1281T762 1308T829 1415T828 1541T750 1611ZM485 1233Q414 1314 430 1445T531 1652T735 1724T921 1645T974 1442T869 1226Q849 1208 827 1194L768
45Q765 0 707 0L637 2Q587 2 590 57L616 444H251L53 41Q31 -5 -23 0L-70 4Q-103 7 -116 28T-113 82L485 1233ZM663 1158Q632 1159 605 1165L324 592H626L663 1158Z" />
<glyph unicode="&#xc6;" glyph-name="AE" horiz-adv-x="1335" d="M240 444L-14 39Q-30 14 -42 6T-82 0L-154 4Q-182 5 -190 29T-184 76L686 1397Q745 1483 807 1483H844Q851 1484 858 1483H1456Q1485 1483 1493 1472T1495 1432L1481 1380Q1470 1341 1430 1341H917L837
874H1249Q1264 874 1274 862T1278 827L1264 776Q1253 733 1202 733H813L712 141H1094Q1112 141 1119 128T1122 94L1108 43Q1098 0 1042 0H582Q528 0 535 55L603 444H240ZM333 592H629L744 1246L333 592Z" />
<glyph unicode="&#xc7;" glyph-name="Ccedilla" horiz-adv-x="868" d="M488 -80Q488 -80 547 -96Q583 -105 571 -153T542 -234T491 -301Q425 -369 275 -375Q244 -375 238 -348L232 -324Q224 -285 258 -283Q341 -277 389 -231T437 -113Q437 -87 456 -80T488 -80ZM835
1418T869 1329T908 1174T914 1097Q916 1070 872 1057L815 1040Q795 1035 773 1051T750 1096Q734 1253 680 1319Q653 1329 620 1329Q520 1334 419 1188T246 788Q152 467 206 262Q236 148 297 133Q447 146 545 354Q548 360 553 371T561 386T567 398T574 408T580 415T587
420T595 421T605 421T618 418T633 412L698 385Q717 378 717 354T704 303Q608 129 517 57T291 -16Q229 -16 160 27Q49 95 28 320T78 829Q124 1016 212 1168T416 1410T653 1499Q678 1499 720 1485T788 1452Q835 1418 869 1329Z" />
<glyph unicode="&#xc8;" glyph-name="Egrave" horiz-adv-x="817" d="M385 1876Q426 1876 448 1841L565 1652Q574 1635 566 1624T539 1613H506Q475 1613 446 1642L264 1832Q249 1852 254 1864T276 1876H385ZM516 0Q516 0 25 0Q0 0 -11 18T-16 63L309 1341H227Q196
1341 189 1350T190 1395L203 1442Q210 1469 220 1476T258 1483H926Q955 1483 963 1473T965 1432L950 1380Q941 1341 899 1341H476L357 874H719Q737 874 745 861T748 827L733 776Q723 733 672 733H321L170 141H563Q581 141 589 128T592 94L578 43Q568 0 516 0Z"
/>
<glyph unicode="&#xc9;" glyph-name="Eacute" horiz-adv-x="817" d="M873 1876Q895 1876 901 1863T887 1824L709 1638Q686 1613 652 1613H609Q592 1613 588 1624T590 1642L717 1841Q739 1876 781 1876H873ZM516 0Q516 0 25 0Q0 0 -11 18T-16 63L309 1341H227Q196
1341 189 1350T190 1395L203 1442Q210 1469 220 1476T258 1483H926Q955 1483 963 1473T965 1432L950 1380Q941 1341 899 1341H476L357 874H719Q737 874 745 861T748 827L733 776Q723 733 672 733H321L170 141H563Q581 141 589 128T592 94L578 43Q568 0 516 0Z"
/>
<glyph unicode="&#xca;" glyph-name="Ecircumflex" horiz-adv-x="817" d="M696 1818L567 1687Q552 1672 542 1669T510 1665H460Q437 1665 433 1680T448 1712L655 1898Q690 1929 706 1927L725 1925Q747 1922 766 1888L874 1699Q883 1686 878 1676T854 1665H794Q773
1665 765 1669T751 1687L696 1818ZM516 0Q516 0 25 0Q0 0 -11 18T-16 63L309 1341H227Q196 1341 189 1350T190 1395L203 1442Q210 1469 220 1476T258 1483H926Q955 1483 963 1473T965 1432L950 1380Q941 1341 899 1341H476L357 874H719Q737 874 745 861T748 827L733
776Q723 733 672 733H321L170 141H563Q581 141 589 128T592 94L578 43Q568 0 516 0Z" />
<glyph unicode="&#xcb;" glyph-name="Edieresis" horiz-adv-x="817" d="M740 1681T713 1710T686 1780T715 1850T786 1880H804Q838 1880 867 1849T897 1779T867 1710T792 1681H776Q740 1681 713 1710ZM412 1681T385 1710T358 1780T387 1850T458 1880H477Q511 1880
540 1849T569 1779T539 1710T464 1681H448Q412 1681 385 1710ZM516 0Q516 0 25 0Q0 0 -11 18T-16 63L309 1341H227Q196 1341 189 1350T190 1395L203 1442Q210 1469 220 1476T258 1483H926Q955 1483 963 1473T965 1432L950 1380Q941 1341 899 1341H476L357 874H719Q737
874 745 861T748 827L733 776Q723 733 672 733H321L170 141H563Q581 141 589 128T592 94L578 43Q568 0 516 0Z" />
<glyph unicode="&#xcc;" glyph-name="Igrave" horiz-adv-x="481" d="M354 1438Q366 1483 416 1483H475Q500 1483 511 1464T516 1419L166 45Q154 0 104 0H45Q20 0 9 18T4 63L354 1438ZM352 1876Q394 1876 416 1841L532 1653Q541 1636 533 1625T506 1614H473Q441
1614 414 1642L231 1833Q216 1853 221 1864T244 1876H352Z" />
<glyph unicode="&#xcd;" glyph-name="Iacute" horiz-adv-x="440" d="M328 1438Q340 1483 389 1483H449Q474 1483 484 1464T489 1419L139 45Q127 0 78 0H18Q-7 0 -18 18T-23 63L328 1438ZM676 1876Q698 1876 704 1863T690 1825L512 1638Q491 1614 455 1614H412Q395
1614 391 1625T393 1642L520 1841Q542 1876 584 1876H676Z" />
<glyph unicode="&#xce;" glyph-name="Icircumflex" horiz-adv-x="454" d="M328 1438Q340 1483 389 1483H449Q474 1483 484 1464T489 1419L139 45Q127 0 78 0H18Q-7 0 -18 18T-23 63L328 1438ZM454 1755L326 1624Q311 1609 301 1606T268 1602H219Q196 1602 192
1617T207 1649L414 1835Q449 1866 465 1864L483 1862Q505 1859 524 1825L633 1636Q642 1622 636 1612T612 1602H553Q532 1602 524 1606T510 1624L454 1755Z" />
<glyph unicode="&#xcf;" glyph-name="Idieresis" horiz-adv-x="454" d="M328 1438Q340 1483 389 1483H449Q474 1483 484 1464T489 1419L139 45Q127 0 78 0H18Q-7 0 -18 18T-23 63L328 1438ZM525 1663T498 1692T471 1762T500 1832T571 1862H590Q624 1862 653 1831T682
1761T652 1692T578 1663H561Q525 1663 498 1692ZM253 1663T226 1692T199 1762T228 1832T299 1862H317Q351 1862 380 1831T410 1761T380 1692T305 1663H289Q253 1663 226 1692Z" />
<glyph unicode="&#xd0;" glyph-name="Eth" horiz-adv-x="946" d="M154 735Q154 735 809 735Q830 735 839 722T844 688L834 637Q825 594 780 594H145Q98 594 109 641L127 713Q133 735 154 735Z" />
<glyph unicode="&#xd1;" glyph-name="Ntilde" horiz-adv-x="1058" d="M790 1810L822 1798Q930 1757 960 1757T1003 1759T1022 1764T1044 1776T1082 1797T1122 1799T1129 1755L1098 1673Q1090 1646 1059 1632Q1001 1603 945 1603T845 1620T769 1654Q711 1683 671
1683T582 1656T519 1647T516 1706L527 1740Q541 1784 572 1800Q630 1830 675 1830Q735 1830 790 1810ZM328 1438Q340 1482 387 1483H449Q490 1483 502 1419L683 382L952 1438Q964 1483 1014 1483H1073Q1098 1483 1109 1464T1114 1419L764 45Q752 0 702 0H629Q603
0 596 24Q592 39 591 49T588 63L407 1096L139 45Q127 0 78 0H18Q-7 0 -18 18T-23 63L328 1438Z" />
<glyph unicode="&#xd2;" glyph-name="Ograve" horiz-adv-x="913" d="M602 1876Q643 1876 665 1841L782 1652Q791 1635 783 1624T756 1613H723Q692 1613 663 1642L481 1832Q466 1852 471 1864T493 1876H602ZM206 246Q240 129 315 129Q424 129 506 236Q606 375 698
674Q785 957 762 1146Q751 1232 718 1281T633 1331Q520 1331 432 1217Q325 1075 236 764T206 246ZM14 444Q14 720 144 1023Q287 1353 490 1460Q564 1499 642 1499T819 1442Q884 1403 908 1318T932 1071T860 635Q734 154 470 28Q392 -10 305 -10Q236 -10 162 29Q14
107 14 444Z" />
<glyph unicode="&#xd3;" glyph-name="Oacute" horiz-adv-x="913" d="M959 1876Q981 1876 987 1863T973 1824L795 1638Q772 1613 738 1613H695Q678 1613 674 1624T676 1642L803 1841Q825 1876 867 1876H959ZM206 246Q240 129 315 129Q424 129 506 236Q606 375 698
674Q785 957 762 1146Q751 1232 718 1281T633 1331Q520 1331 432 1217Q325 1075 236 764T206 246ZM14 444Q14 720 144 1023Q287 1353 490 1460Q564 1499 642 1499T819 1442Q884 1403 908 1318T932 1071T860 635Q734 154 470 28Q392 -10 305 -10Q236 -10 162 29Q14
107 14 444Z" />
<glyph unicode="&#xd4;" glyph-name="Ocircumflex" horiz-adv-x="915" d="M723 1755L594 1624Q579 1609 569 1606T537 1602H487Q464 1602 460 1617T475 1649L682 1835Q717 1866 733 1864L752 1862Q774 1859 793 1825L901 1636Q910 1623 905 1613T881 1602H821Q800
1602 792 1606T778 1624L723 1755ZM206 246Q240 129 315 129Q424 129 506 236Q606 375 698 674Q785 957 762 1146Q751 1232 718 1281T633 1331Q520 1331 432 1217Q325 1075 236 764T206 246ZM14 444Q14 720 144 1023Q287 1353 490 1460Q564 1499 642 1499T819 1442Q884
1403 908 1318T932 1071T860 635Q734 154 470 28Q392 -10 305 -10Q236 -10 162 29Q14 107 14 444Z" />
<glyph unicode="&#xd5;" glyph-name="Otilde" horiz-adv-x="913" d="M362 1682Q362 1682 374 1721Q382 1752 407 1762Q447 1782 527 1782T680 1756T812 1731T924 1746T990 1751T997 1712L985 1663Q979 1639 968 1628T931 1610Q795 1571 677 1614Q526 1666 405
1628Q375 1617 364 1630T362 1682ZM206 246Q240 129 315 129Q424 129 506 236Q606 375 698 674Q785 957 762 1146Q751 1232 718 1281T633 1331Q520 1331 432 1217Q325 1075 236 764T206 246ZM14 444Q14 720 144 1023Q287 1353 490 1460Q564 1499 642 1499T819 1442Q884
1403 908 1318T932 1071T860 635Q734 154 470 28Q392 -10 305 -10Q236 -10 162 29Q14 107 14 444Z" />
<glyph unicode="&#xd6;" glyph-name="Odieresis" horiz-adv-x="915" d="M788 1665T761 1694T734 1764T763 1834T834 1864H852Q886 1864 915 1833T945 1763T915 1694T840 1665H824Q788 1665 761 1694ZM460 1665T433 1694T406 1764T435 1834T506 1864H525Q559 1864
588 1833T617 1763T587 1694T512 1665H496Q460 1665 433 1694ZM206 246Q240 129 315 129Q424 129 506 236Q606 375 698 674Q785 957 762 1146Q751 1232 718 1281T633 1331Q520 1331 432 1217Q325 1075 236 764T206 246ZM14 444Q14 720 144 1023Q287 1353 490 1460Q564
1499 642 1499T819 1442Q884 1403 908 1318T932 1071T860 635Q734 154 470 28Q392 -10 305 -10Q236 -10 162 29Q14 107 14 444Z" />
<glyph unicode="&#xd7;" glyph-name="multiply" horiz-adv-x="874" d="M511 620L690 139Q700 110 690 95T647 61L623 49Q547 6 520 94L399 477L115 84Q83 36 45 59L-6 92Q-37 110 -41 125T-25 176L339 640L168 1118Q163 1132 161 1143T158 1163T158 1178T162 1190T170
1200T179 1208T191 1217T205 1227L236 1243Q263 1261 285 1245T319 1190L461 769L772 1196Q805 1246 842 1223L883 1198Q917 1177 919 1158T899 1112L511 620Z" />
<glyph unicode="&#xd8;" glyph-name="Oslash" horiz-adv-x="921" d="M1106 1395Q1106 1395 936 1190Q940 1141 940 1083Q940 908 868 635Q742 154 478 28Q400 -10 313 -10Q244 -10 176 26T72 143L27 88Q-16 34 -43 55L-84 88Q-107 106 -107 121T-82 172L31 310Q23
372 23 444Q23 722 152 1023Q295 1353 498 1460Q572 1499 650 1499T827 1442Q870 1416 895 1370L975 1468Q1000 1497 1016 1497T1051 1485L1081 1464Q1135 1429 1106 1395ZM760 1204Q727 1331 641 1331Q528 1331 440 1217Q333 1075 250 788Q209 643 196 513L760
1204ZM202 300Q220 201 254 165T324 129Q432 129 514 236Q616 377 707 674Q758 841 771 989L202 300Z" />
<glyph unicode="&#xd9;" glyph-name="Ugrave" horiz-adv-x="1013" d="M860 1876Q901 1876 923 1841L1040 1652Q1049 1635 1041 1624T1014 1613H981Q950 1613 921 1642L739 1832Q724 1852 729 1864T751 1876H860ZM141 59Q-2 211 92 571L313 1438Q325 1483 375 1483H434Q459
1483 470 1464T475 1419L244 506Q145 119 383 119Q482 119 557 200T684 483L928 1438Q940 1483 989 1483H1040Q1065 1483 1075 1464T1079 1419L840 469Q762 151 586 46Q485 -14 349 -14T141 59Z" />
<glyph unicode="&#xda;" glyph-name="Uacute" horiz-adv-x="1013" d="M926 1876Q948 1876 954 1863T940 1824L762 1638Q739 1613 705 1613H662Q645 1613 641 1624T643 1642L770 1841Q792 1876 834 1876H926ZM141 59Q-2 211 92 571L313 1438Q325 1483 375 1483H434Q459
1483 470 1464T475 1419L244 506Q145 119 383 119Q482 119 557 200T684 483L928 1438Q940 1483 989 1483H1040Q1065 1483 1075 1464T1079 1419L840 469Q762 151 586 46Q485 -14 349 -14T141 59Z" />
<glyph unicode="&#xdb;" glyph-name="Ucircumflex" horiz-adv-x="1013" d="M754 1755L625 1624Q610 1609 600 1606T568 1602H518Q495 1602 491 1617T506 1649L713 1835Q748 1866 764 1864L783 1862Q805 1859 824 1825L932 1636Q941 1623 936 1613T912 1602H852Q831
1602 823 1606T809 1624L754 1755ZM141 59Q-2 211 92 571L313 1438Q325 1483 375 1483H434Q459 1483 470 1464T475 1419L244 506Q145 119 383 119Q482 119 557 200T684 483L928 1438Q940 1483 989 1483H1040Q1065 1483 1075 1464T1079 1419L840 469Q762 151 586
46Q485 -14 349 -14T141 59Z" />
<glyph unicode="&#xdc;" glyph-name="Udieresis" horiz-adv-x="1013" d="M839 1665T812 1694T785 1764T814 1834T885 1864H903Q937 1864 966 1833T996 1763T966 1694T891 1665H875Q839 1665 812 1694ZM511 1665T484 1694T457 1764T486 1834T557 1864H576Q610 1864
639 1833T668 1763T638 1694T563 1665H547Q511 1665 484 1694ZM141 59Q-2 211 92 571L313 1438Q325 1483 375 1483H434Q459 1483 470 1464T475 1419L244 506Q145 119 383 119Q482 119 557 200T684 483L928 1438Q940 1483 989 1483H1040Q1065 1483 1075 1464T1079
1419L840 469Q762 151 586 46Q485 -14 349 -14T141 59Z" />
<glyph unicode="&#xdd;" glyph-name="Yacute" horiz-adv-x="819" d="M824 1876Q846 1876 852 1863T838 1824L660 1638Q637 1613 603 1613H560Q543 1613 539 1624T541 1642L668 1841Q690 1876 732 1876H824ZM428 769Q714 1194 838 1456Q851 1486 899 1483L963 1475Q987
1473 995 1453T987 1401Q747 980 458 596L317 45Q305 0 256 0H197Q172 0 161 18T156 63L299 628Q299 763 268 1012T213 1344T204 1453T248 1481L305 1489Q334 1491 346 1482T365 1440Q429 1061 428 769Z" />
<glyph unicode="&#xde;" glyph-name="Thorn" horiz-adv-x="915" d="M586 1341Q934 1341 922 1047Q917 912 872 787T754 598Q605 465 254 471L145 45Q133 0 84 0H25Q0 0 -11 18T-16 63L334 1438Q346 1483 395 1483H455Q480 1483 491 1464T496 1419L476 1341H586ZM289
610L449 618Q613 627 674 741Q704 791 730 887T756 1055T722 1161T621 1198T441 1202L289 610Z" />
<glyph unicode="&#xdf;" glyph-name="germandbls" horiz-adv-x="931" d="M53 0Q53 0 2 0Q-24 0 -36 13T-43 47L244 1126Q290 1302 388 1415Q494 1540 666 1540Q790 1540 868 1449Q942 1362 934 1233Q927 1099 817 979Q801 962 769 930T723 882T689 838Q655 791
655 747T676 673T729 614T792 552Q866 472 866 362T828 165T712 23T528 -33Q388 -33 338 106Q315 166 314 219T318 289T342 311L397 328Q460 347 457 307Q449 166 502 118Q523 98 555 98Q619 98 665 165T713 336Q713 420 656 476Q632 501 603 527T550 577Q477 645
500 770Q515 849 576 924Q613 971 647 1007T708 1073T758 1157T780 1253T764 1333Q731 1409 653 1409T505 1331T399 1118L113 45Q101 0 53 0Z" />
<glyph unicode="&#xe0;" glyph-name="agrave" horiz-adv-x="770" d="M784 1418Q825 1418 847 1383L964 1194Q973 1177 965 1166T938 1155H905Q874 1155 845 1184L663 1374Q648 1394 653 1406T675 1418H784ZM573 885Q474 941 415 902T302 744Q210 544 174 350Q158
264 161 228T192 176T263 197T356 306T451 498T573 885ZM604 1000Q615 1047 651 1047L698 1049Q735 1049 750 1029T754 975L509 156Q572 202 635 291Q657 323 686 305L735 272Q767 251 745 221Q662 122 591 69T424 -8Q411 -11 401 -4T387 14L348 128Q316 82 269
38T186 -6H182Q166 -6 132 17T78 65T51 99T34 124T21 155T14 190Q8 225 16 293Q38 460 119 674T279 962T475 1036Q544 1036 604 1000Z" />
<glyph unicode="&#xe1;" glyph-name="aacute" horiz-adv-x="770" d="M774 1418Q796 1418 802 1405T788 1366L610 1180Q587 1155 553 1155H510Q493 1155 489 1166T491 1184L618 1383Q640 1418 682 1418H774ZM573 885Q474 941 415 902T302 744Q210 544 174 350Q158
264 161 228T192 176T263 197T356 306T451 498T573 885ZM604 1000Q615 1047 651 1047L698 1049Q735 1049 750 1029T754 975L509 156Q572 202 635 291Q657 323 686 305L735 272Q767 251 745 221Q662 122 591 69T424 -8Q411 -11 401 -4T387 14L348 128Q316 82 269
38T186 -6H182Q166 -6 132 17T78 65T51 99T34 124T21 155T14 190Q8 225 16 293Q38 460 119 674T279 962T475 1036Q544 1036 604 1000Z" />
<glyph unicode="&#xe2;" glyph-name="acircumflex" horiz-adv-x="788" d="M549 1542L420 1411Q405 1396 395 1393T363 1389H313Q290 1389 286 1404T301 1436L508 1622Q543 1653 559 1651L578 1649Q600 1646 619 1612L727 1423Q736 1410 731 1400T707 1389H647Q626
1389 618 1393T604 1411L549 1542ZM573 885Q474 941 415 902T302 744Q210 544 174 350Q158 264 161 228T192 176T263 197T356 306T451 498T573 885ZM604 1000Q615 1047 651 1047L698 1049Q735 1049 750 1029T754 975L509 156Q572 202 635 291Q657 323 686 305L735
272Q767 251 745 221Q662 122 591 69T424 -8Q411 -11 401 -4T387 14L348 128Q316 82 269 38T186 -6H182Q166 -6 132 17T78 65T51 99T34 124T21 155T14 190Q8 225 16 293Q38 460 119 674T279 962T475 1036Q544 1036 604 1000Z" />
<glyph unicode="&#xe3;" glyph-name="atilde" horiz-adv-x="790" d="M461 1252Q461 1252 473 1291Q481 1322 506 1332Q546 1352 626 1352T779 1326T911 1301T1023 1316T1089 1321T1096 1282L1084 1233Q1078 1209 1067 1198T1030 1180Q894 1141 776 1184Q625 1236
504 1198Q474 1187 463 1200T461 1252ZM573 885Q474 941 415 902T302 744Q210 544 174 350Q158 264 161 228T192 176T263 197T356 306T451 498T573 885ZM604 1000Q615 1047 651 1047L698 1049Q735 1049 750 1029T754 975L509 156Q572 202 635 291Q657 323 686 305L735
272Q767 251 745 221Q662 122 591 69T424 -8Q411 -11 401 -4T387 14L348 128Q316 82 269 38T186 -6H182Q166 -6 132 17T78 65T51 99T34 124T21 155T14 190Q8 225 16 293Q38 460 119 674T279 962T475 1036Q544 1036 604 1000Z" />
<glyph unicode="&#xe4;" glyph-name="adieresis" horiz-adv-x="770" d="M573 885Q474 941 415 902T302 744Q210 544 174 350Q158 264 161 228T192 176T263 197T356 306T451 498T573 885ZM604 1000Q615 1047 651 1047L698 1049Q735 1049 750 1029T754 975L509 156Q572
202 635 291Q657 323 686 305L735 272Q767 251 745 221Q662 122 591 69T424 -8Q411 -11 401 -4T387 14L348 128Q316 82 269 38T186 -6H182Q166 -6 132 17T78 65T51 99T34 124T21 155T14 190Q8 225 16 293Q38 460 119 674T279 962T475 1036Q544 1036 604 1000ZM886
1444T859 1473T832 1543T861 1613T932 1643H950Q984 1643 1013 1612T1043 1542T1013 1473T938 1444H922Q886 1444 859 1473ZM558 1444T531 1473T504 1543T533 1613T604 1643H623Q657 1643 686 1612T715 1542T685 1473T610 1444H594Q558 1444 531 1473Z" />
<glyph unicode="&#xe5;" glyph-name="aring" horiz-adv-x="796" d="M424 1155T363 1236T318 1427T414 1612T603 1687T782 1608T837 1427T773 1260Q684 1140 530 1149Q424 1155 363 1236ZM571 1587T523 1551T454 1447T455 1323T530 1255T630 1278T700 1382T700
1507T624 1575ZM573 885Q474 941 415 902T302 744Q210 544 174 350Q158 264 161 228T192 176T263 197T356 306T451 498T573 885ZM604 1000Q615 1047 651 1047L698 1049Q735 1049 750 1029T754 975L509 156Q572 202 635 291Q657 323 686 305L735 272Q767 251 745
221Q662 122 591 69T424 -8Q411 -11 401 -4T387 14L348 128Q316 82 269 38T186 -6H182Q166 -6 132 17T78 65T51 99T34 124T21 155T14 190Q8 225 16 293Q38 460 119 674T279 962T475 1036Q544 1036 604 1000Z" />
<glyph unicode="&#xe6;" glyph-name="ae" horiz-adv-x="1034" d="M562 413Q776 502 853 660Q891 739 891 815T843 891T741 844T652 711Q596 575 562 413ZM536 279Q523 205 543 165T600 117Q676 145 786 270Q805 289 827 274L866 250Q878 243 884 229T885 205Q847
131 741 48T571 -23Q435 10 404 115Q346 23 268 -8T113 -8Q-31 54 -31 203Q-31 315 45 424T235 607T469 713Q471 722 473 731Q499 855 432 909Q406 903 341 840T250 739Q244 732 231 731T209 735L162 764Q150 771 144 785T143 809Q179 879 287 968T453 1048T564
968Q594 930 606 891Q695 1014 844 1033Q899 1040 948 1018Q1040 978 1040 819Q1040 727 995 638Q914 479 710 359Q626 310 536 279ZM442 586Q384 567 314 517T186 386T129 233T149 137T217 115Q291 115 352 266Q392 366 442 586Z" />
<glyph unicode="&#xe7;" glyph-name="ccedilla" horiz-adv-x="622" d="M201 -62Q201 -62 260 -78Q296 -87 284 -135T255 -216T204 -283Q138 -351 -12 -357Q-43 -357 -49 -330L-55 -306Q-63 -267 -29 -265Q54 -259 102 -213T150 -95Q150 -69 169 -62T201 -62ZM336
1018T382 1035T472 1048T558 1016Q616 981 656 936T672 862L637 823Q602 788 575 813Q572 816 551 837T516 872Q472 909 436 903Q363 889 282 746T163 451T145 195Q149 171 183 151T235 133Q298 168 373 256Q390 274 403 274T438 260L469 240Q493 226 487 206Q470
149 377 73T243 -15T120 16T18 98Q-24 193 -6 333T59 605T149 800T223 902T294 979Z" />
<glyph unicode="&#xe8;" glyph-name="egrave" horiz-adv-x="638" d="M682 1418Q723 1418 745 1383L862 1194Q871 1177 863 1166T836 1155H803Q772 1155 743 1184L561 1374Q546 1394 551 1406T573 1418H682ZM175 416Q383 506 458 660Q496 739 496 815T452 891Q356
891 287 741T175 416ZM149 281Q134 195 151 161T205 117Q281 145 391 270Q410 289 432 274L471 250Q483 243 488 229T489 205Q451 131 346 48T176 -23Q31 12 6 129Q-13 222 13 378T112 700Q217 943 355 1007Q464 1058 554 1018T645 819Q645 727 600 638Q519 479
314 359Q234 312 149 281Z" />
<glyph unicode="&#xe9;" glyph-name="eacute" horiz-adv-x="636" d="M748 1418Q770 1418 776 1405T762 1366L584 1180Q561 1155 527 1155H484Q467 1155 463 1166T465 1184L592 1383Q614 1418 656 1418H748ZM175 416Q383 506 458 660Q496 739 496 815T452 891Q356
891 287 741T175 416ZM149 281Q134 195 151 161T205 117Q281 145 391 270Q410 289 432 274L471 250Q483 243 488 229T489 205Q451 131 346 48T176 -23Q31 12 6 129Q-13 222 13 378T112 700Q217 943 355 1007Q464 1058 554 1018T645 819Q645 727 600 638Q519 479
314 359Q234 312 149 281Z" />
<glyph unicode="&#xea;" glyph-name="ecircumflex" horiz-adv-x="636" d="M531 1542L402 1411Q387 1396 377 1393T345 1389H295Q272 1389 268 1404T283 1436L490 1622Q525 1653 541 1651L560 1649Q582 1646 601 1612L709 1423Q718 1410 713 1400T689 1389H629Q608
1389 600 1393T586 1411L531 1542ZM175 416Q383 506 458 660Q496 739 496 815T452 891Q356 891 287 741T175 416ZM149 281Q134 195 151 161T205 117Q281 145 391 270Q410 289 432 274L471 250Q483 243 488 229T489 205Q451 131 346 48T176 -23Q31 12 6 129Q-13
222 13 378T112 700Q217 943 355 1007Q464 1058 554 1018T645 819Q645 727 600 638Q519 479 314 359Q234 312 149 281Z" />
<glyph unicode="&#xeb;" glyph-name="edieresis" horiz-adv-x="636" d="M175 416Q383 506 458 660Q496 739 496 815T452 891Q356 891 287 741T175 416ZM149 281Q134 195 151 161T205 117Q281 145 391 270Q410 289 432 274L471 250Q483 243 488 229T489 205Q451
131 346 48T176 -23Q31 12 6 129Q-13 222 13 378T112 700Q217 943 355 1007Q464 1058 554 1018T645 819Q645 727 600 638Q519 479 314 359Q234 312 149 281ZM898 1444T871 1473T844 1543T873 1613T944 1643H962Q996 1643 1025 1612T1055 1542T1025 1473T950 1444H934Q898
1444 871 1473ZM570 1444T543 1473T516 1543T545 1613T616 1643H635Q669 1643 698 1612T727 1542T697 1473T622 1444H606Q570 1444 543 1473Z" />
<glyph unicode="&#xec;" glyph-name="igrave" horiz-adv-x="391" d="M492 1674Q533 1674 555 1639L672 1450Q681 1433 673 1422T646 1411H613Q582 1411 553 1440L371 1630Q356 1650 361 1662T383 1674H492ZM399 997Q399 997 151 45Q139 0 90 0H30Q-26 0 -15 47Q-15
47 235 999Q246 1040 293 1040H360Q387 1040 396 1031T399 997Z" />
<glyph unicode="&#xed;" glyph-name="iacute" horiz-adv-x="382" d="M559 1418Q581 1418 587 1405T573 1366L395 1180Q372 1155 338 1155H295Q278 1155 274 1166T276 1184L403 1383Q425 1418 467 1418H559ZM387 997Q387 997 139 45Q127 0 78 0H18Q-38 0 -27 47Q-27
47 223 999Q234 1040 281 1040H348Q375 1040 384 1031T387 997Z" />
<glyph unicode="&#xee;" glyph-name="icircumflex" horiz-adv-x="382" d="M615 1542L486 1411Q471 1396 461 1393T429 1389H379Q356 1389 352 1404T367 1436L574 1622Q609 1653 625 1651L644 1649Q666 1646 685 1612L793 1423Q802 1410 797 1400T773 1389H713Q692
1389 684 1393T670 1411L615 1542ZM387 997Q387 997 139 45Q127 0 78 0H18Q-38 0 -27 47Q-27 47 223 999Q234 1040 281 1040H348Q375 1040 384 1031T387 997Z" />
<glyph unicode="&#xef;" glyph-name="idieresis" horiz-adv-x="401" d="M431 1188T404 1217T377 1287T406 1357T477 1386H496Q530 1386 559 1356T588 1286T558 1217T483 1188H467Q431 1188 404 1217ZM159 1188T132 1217T104 1287T133 1357T205 1386H223Q257 1386
286 1356T315 1286T285 1217T211 1188H195Q159 1188 132 1217ZM410 997L162 45Q150 0 100 0H41Q-15 0 -4 47L246 999Q257 1040 303 1040H371Q398 1040 407 1031T410 997Z" />
<glyph unicode="&#xf0;" glyph-name="eth" horiz-adv-x="679" d="M508 705Q511 767 508 812Q503 907 428 907Q381 907 344 863T270 743Q179 550 172 317Q168 130 236 127Q298 124 354 215Q491 435 508 705ZM502 1051Q488 1151 460 1241L283 1204Q247 1197 236
1227L211 1284Q200 1316 225 1323L419 1363Q393 1431 360 1507Q351 1528 362 1542T397 1556H492Q535 1556 551 1505Q575 1430 585 1397L745 1430Q773 1434 786 1411L813 1360Q821 1343 815 1329T795 1311L617 1274Q685 987 664 718Q649 430 498 166Q446 75 370
28T216 -16T93 32Q0 125 5 283T42 563T119 771T195 900T267 981Q358 1067 469 1057Q487 1055 502 1051Z" />
<glyph unicode="&#xf1;" glyph-name="ntilde" horiz-adv-x="866" d="M264 1252Q264 1252 276 1291Q284 1322 309 1332Q349 1352 429 1352T582 1326T714 1301T826 1316T892 1321T899 1282L887 1233Q881 1209 870 1198T833 1180Q697 1141 579 1184Q428 1236 307
1198Q277 1187 266 1200T264 1252ZM679 842T665 842T632 823T578 756Q537 695 483 608T345 391Q192 153 156 89T117 20T111 12T105 7T99 4T94 1T88 0Q52 0 28 0Q-20 0 -6 53L242 987Q247 1015 255 1027T283 1040H367Q393 1040 400 1028T399 981L246 465L459 817Q525
928 597 984T721 1040H764Q877 1040 834 864L604 29Q598 0 571 0H465Q440 0 449 49L664 752Q679 806 679 824Z" />
<glyph unicode="&#xf2;" glyph-name="ograve" horiz-adv-x="686" d="M639 1418Q680 1418 702 1383L819 1194Q828 1177 820 1166T793 1155H760Q729 1155 700 1184L518 1374Q503 1394 508 1406T530 1418H639ZM354 215Q495 437 502 705Q505 825 490 866T428 908T345
866T272 748Q179 556 172 317Q168 132 236 127Q296 125 354 215ZM6 297Q16 573 120 772Q165 860 194 899T264 978Q349 1059 469 1057Q572 1052 629 954Q671 887 666 731T613 425T506 175Q388 -22 205 -16Q138 -13 84 41Q48 75 26 141T6 297Z" />
<glyph unicode="&#xf3;" glyph-name="oacute" horiz-adv-x="686" d="M719 1418Q741 1418 747 1405T733 1366L555 1180Q532 1155 498 1155H455Q438 1155 434 1166T436 1184L563 1383Q585 1418 627 1418H719ZM354 215Q495 437 502 705Q505 825 490 866T428 908T345
866T272 748Q179 556 172 317Q168 132 236 127Q296 125 354 215ZM6 297Q16 573 120 772Q165 860 194 899T264 978Q349 1059 469 1057Q572 1052 629 954Q671 887 666 731T613 425T506 175Q388 -22 205 -16Q138 -13 84 41Q48 75 26 141T6 297Z" />
<glyph unicode="&#xf4;" glyph-name="ocircumflex" horiz-adv-x="686" d="M510 1532L381 1401Q366 1386 356 1383T324 1379H274Q251 1379 247 1394T262 1426L469 1612Q504 1643 520 1641L539 1639Q561 1636 580 1602L688 1413Q697 1400 692 1390T668 1379H608Q587
1379 579 1383T565 1401L510 1532ZM354 215Q495 437 502 705Q505 825 490 866T428 908T345 866T272 748Q179 556 172 317Q168 132 236 127Q296 125 354 215ZM6 297Q16 573 120 772Q165 860 194 899T264 978Q349 1059 469 1057Q572 1052 629 954Q671 887 666 731T613
425T506 175Q388 -22 205 -16Q138 -13 84 41Q48 75 26 141T6 297Z" />
<glyph unicode="&#xf5;" glyph-name="otilde" horiz-adv-x="686" d="M198 1287T204 1297T247 1328T334 1350T483 1317Q559 1280 611 1280T682 1286T728 1306T766 1312T772 1274L760 1219Q754 1193 717 1171T609 1149Q532 1149 450 1186Q431 1194 422 1197L398
1205Q371 1214 332 1214T253 1194T202 1181T195 1221L197 1264Q198 1287 204 1297ZM354 215Q495 437 502 705Q505 825 490 866T428 908T345 866T272 748Q179 556 172 317Q168 132 236 127Q296 125 354 215ZM6 297Q16 573 120 772Q165 860 194 899T264 978Q349 1059
469 1057Q572 1052 629 954Q671 887 666 731T613 425T506 175Q388 -22 205 -16Q138 -13 84 41Q48 75 26 141T6 297Z" />
<glyph unicode="&#xf6;" glyph-name="odieresis" horiz-adv-x="686" d="M354 215Q495 437 502 705Q505 825 490 866T428 908T345 866T272 748Q179 556 172 317Q168 132 236 127Q296 125 354 215ZM6 297Q16 573 120 772Q165 860 194 899T264 978Q349 1059 469 1057Q572
1052 629 954Q671 887 666 731T613 425T506 175Q388 -22 205 -16Q138 -13 84 41Q48 75 26 141T6 297ZM865 1444T838 1473T811 1543T840 1613T911 1643H929Q963 1643 992 1612T1022 1542T992 1473T917 1444H901Q865 1444 838 1473ZM537 1444T510 1473T483 1543T512
1613T583 1643H602Q636 1643 665 1612T694 1542T664 1473T589 1444H573Q537 1444 510 1473Z" />
<glyph unicode="&#xf7;" glyph-name="divide" horiz-adv-x="980" d="M318 780Q318 780 1219 780Q1235 780 1246 769T1254 733L1243 682Q1234 639 1190 639H309Q262 639 273 686L291 758Q296 780 318 780ZM525 991T495 1025T465 1107T496 1189T578 1223H600Q639
1223 671 1188T703 1104T670 1024T586 991H566Q525 991 495 1025ZM318 102T288 136T258 218T289 300T371 334H393Q432 334 464 299T496 215T463 135T379 102H359Q318 102 288 136Z" />
<glyph unicode="&#xf8;" glyph-name="oslash" horiz-adv-x="702" d="M885 958Q885 958 681 770Q681 590 631 433T522 175Q404 -22 221 -16Q154 -13 110 31Q52 88 32 179L-74 82Q-125 37 -147 59L-176 92Q-191 110 -196 120Q-211 147 -172 184L27 367Q47 600 158
813Q284 1060 485 1057Q598 1051 653 940L770 1049Q790 1066 805 1068T844 1053L870 1030Q918 986 885 958ZM371 215Q488 399 512 619L188 324Q181 132 252 127Q311 123 371 215ZM516 815Q512 848 506 866Q490 907 444 908T362 866T288 748Q246 661 217 541L516
815Z" />
<glyph unicode="&#xf9;" glyph-name="ugrave" horiz-adv-x="827" d="M643 1418Q684 1418 706 1383L823 1194Q832 1177 824 1166T797 1155H764Q733 1155 704 1184L522 1374Q507 1394 512 1406T534 1418H643ZM570 538L383 223Q317 110 250 55T131 0H119Q56 0 20
69T14 250L223 1012Q229 1040 256 1040H362Q373 1040 379 1028T379 991L172 281Q151 197 178 194Q208 191 280 299T520 714T693 1025T701 1034T711 1038T719 1040H811Q823 1040 831 1025T834 987L586 53Q581 25 573 13T545 0H461Q435 0 428 12T428 59L570 538Z"
/>
<glyph unicode="&#xfa;" glyph-name="uacute" horiz-adv-x="827" d="M750 1418Q772 1418 778 1405T764 1366L586 1180Q563 1155 529 1155H486Q469 1155 465 1166T467 1184L594 1383Q616 1418 658 1418H750ZM570 538L383 223Q317 110 250 55T131 0H119Q56 0 20
69T14 250L223 1012Q229 1040 256 1040H362Q373 1040 379 1028T379 991L172 281Q151 197 178 194Q208 191 280 299T520 714T693 1025T701 1034T711 1038T719 1040H811Q823 1040 831 1025T834 987L586 53Q581 25 573 13T545 0H461Q435 0 428 12T428 59L570 538Z"
/>
<glyph unicode="&#xfb;" glyph-name="ucircumflex" horiz-adv-x="827" d="M545 1534L416 1403Q401 1388 391 1385T359 1381H309Q286 1381 282 1396T297 1428L504 1614Q539 1645 555 1643L574 1641Q596 1638 615 1604L723 1415Q732 1402 727 1392T703 1381H643Q622
1381 614 1385T600 1403L545 1534ZM570 538L383 223Q317 110 250 55T131 0H119Q56 0 20 69T14 250L223 1012Q229 1040 256 1040H362Q373 1040 379 1028T379 991L172 281Q151 197 178 194Q208 191 280 299T520 714T693 1025T701 1034T711 1038T719 1040H811Q823
1040 831 1025T834 987L586 53Q581 25 573 13T545 0H461Q435 0 428 12T428 59L570 538Z" />
<glyph unicode="&#xfc;" glyph-name="udieresis" horiz-adv-x="835" d="M570 538L383 223Q317 110 250 55T131 0H119Q56 0 20 69T14 250L223 1012Q229 1040 256 1040H362Q373 1040 379 1028T379 991L172 281Q151 197 178 194Q208 191 280 299T520 714T693 1025T701
1034T711 1038T719 1040H811Q823 1040 831 1025T834 987L586 53Q581 25 573 13T545 0H461Q435 0 428 12T428 59L570 538ZM925 1444T898 1473T871 1543T900 1613T971 1643H989Q1023 1643 1052 1612T1082 1542T1052 1473T977 1444H961Q925 1444 898 1473ZM597 1444T570
1473T543 1543T572 1613T643 1643H662Q696 1643 725 1612T754 1542T724 1473T649 1444H633Q597 1444 570 1473Z" />
<glyph unicode="&#xfd;" glyph-name="yacute" horiz-adv-x="841" d="M768 1418Q790 1418 796 1405T782 1366L604 1180Q581 1155 547 1155H504Q487 1155 483 1166T485 1184L612 1383Q634 1418 676 1418H768ZM736 1040H825Q837 1040 845 1025T848 987Q772 699 662
309T538 -136T480 -257Q435 -327 371 -360Q333 -381 314 -386Q273 -398 198 -354L-10 -236Q-37 -224 -39 -200T-27 -162L4 -119Q22 -100 36 -96T71 -102L299 -242Q318 -252 336 -240T366 -186L565 516L518 426L397 223Q331 110 264 55T145 0H133Q90 0 61 31Q-10
110 28 250L237 1012Q245 1040 270 1040H377Q402 1040 393 991L186 281Q165 198 192 195Q223 192 294 300T534 714T707 1025T716 1034Q722 1040 736 1040Z" />
<glyph unicode="&#xfe;" glyph-name="thorn" horiz-adv-x="749" d="M516 1507Q516 1507 338 812L367 860Q410 931 465 982T555 1034H559Q575 1034 610 1011T677 948T723 866T720 695T622 351T463 64T266 -8Q197 -8 138 28L37 -365Q25 -410 -25 -410H-66Q-99 -410
-112 -391T-119 -344L356 1509Q368 1554 418 1554H471Q527 1554 516 1507ZM168 144Q268 87 327 126T440 285Q532 484 567 678Q583 764 580 800T550 852T478 831T385 722T289 528T174 162L168 144Z" />
<glyph unicode="&#xff;" glyph-name="ydieresis" horiz-adv-x="831" d="M929 1444T902 1473T875 1543T904 1613T975 1643H993Q1027 1643 1056 1612T1086 1542T1056 1473T981 1444H965Q929 1444 902 1473ZM601 1444T574 1473T547 1543T576 1613T647 1643H666Q700
1643 729 1612T758 1542T728 1473T653 1444H637Q601 1444 574 1473ZM726 1040H815Q827 1040 835 1025T838 987Q762 699 652 309T528 -136T470 -257Q425 -327 361 -360Q323 -381 304 -386Q263 -398 188 -354L-20 -236Q-47 -224 -49 -200T-37 -162L-6 -119Q12 -100
26 -96T61 -102L289 -242Q308 -252 326 -240T356 -186L555 516L508 426L387 223Q321 110 254 55T135 0H123Q80 0 51 31Q-20 110 18 250L227 1012Q235 1040 260 1040H367Q392 1040 383 991L176 281Q155 198 182 195Q213 192 284 300T524 714T697 1025T706 1034Q712
1040 726 1040Z" />
<glyph unicode="&#x2013;" glyph-name="endash" horiz-adv-x="1241" d="M154 735Q154 735 1055 735Q1071 735 1082 724T1090 688L1079 637Q1070 594 1026 594H145Q98 594 109 641L127 713Q132 735 154 735Z" />
<glyph unicode="&#x2014;" glyph-name="emdash" horiz-adv-x="1705" d="M154 735Q154 735 1647 735Q1666 735 1675 722T1681 688L1671 639Q1662 594 1618 594H145Q97 594 109 641L127 713Q132 735 154 735Z" />
<glyph unicode="&#x2018;" glyph-name="quoteleft" horiz-adv-x="464" d="M160 1094Q160 1304 307 1554Q355 1642 410 1642Q434 1642 434 1617T402 1503T364 1369T347 1241T334 1128T324 1086T291 1071L209 1053Q160 1044 160 1094Z" />
<glyph unicode="&#x2019;" glyph-name="quoteright" horiz-adv-x="421" d="M461 1647Q461 1436 314 1186Q265 1098 211 1098Q187 1098 187 1124T219 1237T257 1371T274 1499T287 1612T297 1655T330 1670L412 1688Q461 1697 461 1647Z" />
<glyph unicode="&#x201a;" glyph-name="quotesinglbase" horiz-adv-x="589" d="M225 213Q225 2 78 -248Q29 -336 -25 -336Q-49 -336 -49 -310T-17 -197T21 -63T38 65T51 178T61 221T94 236L176 254Q225 263 225 213Z" />
<glyph unicode="&#x201c;" glyph-name="quotedblleft" horiz-adv-x="636" d="M455 1094Q455 1304 602 1554Q650 1642 705 1642Q729 1642 729 1617T697 1503T659 1369T642 1241T629 1128T619 1086T586 1071L504 1053Q455 1044 455 1094ZM404 1094Q404 1304 551
1554Q599 1642 654 1642Q678 1642 678 1617T646 1503T608 1369T591 1241T578 1128T568 1086T535 1071L453 1053Q404 1044 404 1094Z" />
<glyph unicode="&#x201d;" glyph-name="quotedblright" horiz-adv-x="653" d="M719 1647Q719 1436 572 1186Q523 1098 469 1098Q445 1098 445 1124T477 1237T515 1371T532 1499T545 1612T555 1655T588 1670L670 1688Q719 1697 719 1647ZM411 1647Q411 1436 264
1186Q215 1098 161 1098Q137 1098 137 1124T169 1237T207 1371T224 1499T237 1612T247 1655T280 1670L362 1688Q411 1697 411 1647Z" />
<glyph unicode="&#x201e;" glyph-name="quotedblbase" horiz-adv-x="753" d="M532 213Q532 2 385 -248Q336 -336 282 -336Q258 -336 258 -310T290 -197T328 -63T345 65T358 178T368 221T401 236L483 254Q532 263 532 213ZM225 213Q225 2 78 -248Q29 -336 -25 -336Q-49
-336 -49 -310T-17 -197T21 -63T38 65T51 178T61 221T94 236L176 254Q225 263 225 213Z" />
<glyph unicode="&#x2022;" glyph-name="bullet" horiz-adv-x="966" d="M488 305T416 376T344 548T416 720T588 791T759 720T831 540T763 368T591 305Z" />
<glyph unicode="&#x2039;" glyph-name="guilsinglleft" horiz-adv-x="518" d="M324 549L432 215Q449 166 403 166H371Q327 166 311 213L197 535Q182 583 213 623L487 938Q508 963 551 963H584Q606 963 613 952T604 918L324 549Z" />
<glyph unicode="&#x203a;" glyph-name="guilsinglright" horiz-adv-x="518" d="M344 580L236 913Q219 963 264 963H297Q339 963 356 915L471 594Q486 546 455 506L180 190Q159 166 117 166H84Q62 166 55 177T63 211L344 580Z" />
</font>
</defs>
</svg>
