<?xml version="1.0" standalone="no"?>
<!DOCTYPE svg PUBLIC "-//W3C//DTD SVG 1.1//EN" "http://www.w3.org/Graphics/SVG/1.1/DTD/svg11.dtd">
<svg xmlns="http://www.w3.org/2000/svg">
<defs >
<font id="Bentham" horiz-adv-x="423" ><font-face
    font-family="Bentham"
    units-per-em="1024"
    panose-1="2 0 5 3 0 0 0 0 0 0"
    ascent="879"
    descent="-260"
    alphabetic="0" />
<glyph unicode=" " glyph-name="space" horiz-adv-x="204" />
<glyph unicode="!" glyph-name="exclam" horiz-adv-x="425" d="M190 197Q159 569 160 569Q160 598 227 598Q259 598 271 591T283 570Q283 528 227 198Q227 198 227 197H190ZM207 112Q236 112 252 95T268 50Q268 24 251 6T210 -12Q182 -12 164 2T146 48Q147 112 207 112Z" />
<glyph unicode="&quot;" glyph-name="quotedbl" horiz-adv-x="223" d="M52 645Q68 645 77 633T86 605Q86 534 60 440Q51 436 47 440L31 508Q14 576 13 602Q13 645 52 645ZM175 645Q191 645 200 633T209 605Q209 536 182 440Q176 437 170 440L154 508Q137 576 136
602Q136 645 175 645Z" />
<glyph unicode="#" glyph-name="numbersign" horiz-adv-x="512" d="M286 538L204 532V420L286 425V538ZM89 544L163 550V623L204 626V553L286 558V632L327 635V561L400 567V547L327 541V428L400 434V414L327 408V335L286 332V404L204 399V326L163 323V396L89 390V411L163
417V529L89 523V544Z" />
<glyph unicode="$" glyph-name="dollar" horiz-adv-x="587" d="M471 314Q471 287 450 262T407 237Q382 237 367 252T352 295Q352 318 366 330T393 342Q421 342 440 319Q440 366 406 390T328 417V203Q475 147 475 59Q475 31 468 7T445 -41T398 -80T328 -101V-180H280V-103Q253
-101 227 -94T174 -72T131 -31T115 29Q115 61 136 78T178 96Q202 96 221 79T240 41Q240 16 228 0T196 -16Q163 -16 145 11Q153 -31 193 -53T279 -77L278 137Q226 161 187 202T148 283Q148 344 180 385T276 437L275 539H328V439Q350 437 373 429T418 407T456 368T471
314ZM278 226L276 409Q249 398 234 373T218 314Q219 263 278 226ZM328 114V-72Q366 -61 381 -32T397 32Q398 78 328 114Z" />
<glyph unicode="%" glyph-name="percent" horiz-adv-x="512" d="M8 340Q8 394 43 426T127 458Q172 458 207 428T243 340Q243 295 207 264T126 233T45 264T8 340ZM127 447Q95 447 77 418T58 340Q58 297 77 271T126 245T175 271T194 340Q194 447 127 447ZM267 67Q267
121 302 152T386 184Q431 184 466 154T502 67Q502 22 466 -9T385 -41T304 -10T267 67ZM386 174Q354 174 336 145T317 67Q317 24 336 -2T385 -29T434 -2T453 67Q453 174 386 174ZM432 485L464 463L69 -90L37 -68L432 485Z" />
<glyph unicode="&amp;" glyph-name="ampersand" horiz-adv-x="627" d="M229 381Q288 412 306 431T324 503Q324 549 303 575T245 602Q211 602 190 571T169 495Q169 450 229 381ZM437 24L398 67Q322 -11 227 -11Q106 -11 62 51Q53 64 46 74T33 104T28 156Q28 156
28 157Q28 212 49 247T118 318Q138 332 165 348Q141 375 123 415T105 494Q105 557 150 591T243 625Q309 625 348 598T388 515Q388 468 356 434T249 356Q314 268 425 137Q444 162 450 185T457 245Q457 263 444 281Q425 308 388 307L385 323H580L579 304Q527 304
515 293Q498 276 498 243Q498 214 479 176T443 119L468 88Q472 81 481 71T499 52T520 37T544 30Q575 30 585 48T595 102L615 99Q615 -11 534 -10Q466 -10 437 24ZM260 31Q299 31 323 41T381 83Q330 146 259 233T186 321Q154 306 136 280T112 234T106 195Q106 149
141 99Q190 31 260 31Z" />
<glyph unicode="&apos;" glyph-name="quotesingle" horiz-adv-x="204" d="M105 645Q133 645 133 605Q133 574 126 521T112 443Q111 438 103 438Q100 438 96 438T90 438Q89 438 86 439T83 440L78 508Q72 577 72 603Q71 645 105 645Z" />
<glyph unicode="(" glyph-name="parenleft" horiz-adv-x="304" d="M318 733L345 701Q333 689 294 655T227 591T181 525Q155 476 147 427T138 290Q138 88 170 8Q194 -50 234 -98T310 -173L282 -211Q205 -159 128 -24T50 260Q50 325 72 391T120 503T191 601T258
676T318 733Z" />
<glyph unicode=")" glyph-name="parenright" horiz-adv-x="304" d="M-14 733Q23 699 46 677T113 602T183 503T232 391T254 260Q254 110 177 -24T23 -211L-6 -173Q29 -146 70 -98T134 8Q166 87 166 290Q166 378 157 427T123 525Q106 560 78 590T11 655T-41 701L-14 733Z" />
<glyph unicode="*" glyph-name="asterisk" horiz-adv-x="569" d="M247 548Q263 548 273 537T284 511Q284 453 257 361L233 422Q210 481 211 508Q211 525 217 534T230 546T247 548ZM254 165Q244 165 237 167T224 178T218 205Q218 232 238 293L257 354Q258 349 268
318T284 256T291 202Q291 188 281 177T254 165ZM86 443Q97 461 118 462Q128 462 136 457Q193 424 254 359L190 369Q125 379 102 392Q78 405 79 423Q79 431 86 443ZM421 258Q410 239 394 239Q383 239 369 247Q346 260 303 308L259 356Q273 354 326 340T408 308Q426
298 426 276Q426 267 421 258ZM97 254Q92 263 92 272Q92 294 111 304Q161 333 254 356L236 333Q219 309 193 281T150 243Q136 235 124 234Q108 235 97 254ZM425 452Q432 441 432 431Q432 414 409 400Q385 387 323 373L260 359Q264 362 286 387T331 432T375 465Q384
470 394 470Q415 470 425 452Z" />
<glyph unicode="+" glyph-name="plus" horiz-adv-x="512" d="M230 23V206H46V267H229V452H291V267H475V206H292V23H230Z" />
<glyph unicode="," glyph-name="comma" horiz-adv-x="254" d="M117 -9Q94 -9 77 11T59 56Q59 89 80 107T126 126Q151 126 174 104T197 46Q197 -7 162 -55T93 -108L87 -92Q112 -81 135 -50T160 5Q136 -9 117 -9Z" />
<glyph unicode="-" glyph-name="hyphen" horiz-adv-x="472" d="M82 333H417L412 264L74 266L82 333Z" />
<glyph unicode="." glyph-name="period" horiz-adv-x="253" d="M127 131Q153 131 174 115T196 65Q196 29 177 13T127 -4Q102 -4 82 17T61 65Q61 96 82 113T127 131Z" />
<glyph unicode="/" glyph-name="slash" horiz-adv-x="309" d="M243 726L296 712L67 -145L13 -131L243 726Z" />
<glyph unicode="0" glyph-name="zero" horiz-adv-x="512" d="M14 197Q14 305 84 367T250 430Q339 430 408 370T478 197Q478 108 408 46T247 -16Q159 -16 87 45T14 197ZM250 409Q188 409 151 350T113 197Q113 111 151 59T247 6Q306 6 344 59T382 197Q382 409 250 409Z" />
<glyph unicode="1" glyph-name="one" horiz-adv-x="512" d="M108 25Q108 25 244 36V369L98 319L90 356L336 428V36Q349 31 406 29T476 25V1Q416 5 315 5Q173 5 111 -2L108 25Z" />
<glyph unicode="2" glyph-name="two" horiz-adv-x="512" d="M237 426Q287 426 333 409T411 358T442 279Q442 235 416 206T319 131Q283 108 229 86L174 65Q174 65 206 65Q378 65 419 70L454 151H480L431 0H53L44 34L225 115Q263 132 299 180T336 274Q336 335 310
369T238 404Q201 404 169 382T131 331Q157 329 173 315T190 272Q190 245 171 232T126 219Q104 219 85 241T65 298Q65 342 113 384T237 426Z" />
<glyph unicode="3" glyph-name="three" horiz-adv-x="512" d="M228 123L222 143Q274 161 283 166Q313 180 341 208T369 264Q369 322 338 359T254 397Q177 397 152 332Q178 330 198 314T218 270Q218 210 160 210Q127 210 109 233T90 288Q90 333 142 378T262 423Q336
423 392 384T449 290Q449 245 420 218T328 160Q378 149 424 106T470 6Q470 -102 399 -163T215 -225Q161 -225 107 -183T40 -71L63 -65Q71 -118 114 -158T215 -199Q291 -199 329 -144T368 -22Q368 36 326 79T228 123Z" />
<glyph unicode="4" glyph-name="four" horiz-adv-x="512" d="M364 -4Q364 -4 365 -190H281Q282 -190 282 -4H41L9 26L349 427L371 410Q371 410 367 268Q364 126 364 44Q364 32 364 20H429L457 56Q486 92 495 109L510 96Q505 86 494 65T474 28T461 -5Q442 -5 419
-5T364 -4ZM284 307Q278 299 178 179T55 22H282Q282 269 284 307Z" />
<glyph unicode="5" glyph-name="five" horiz-adv-x="512" d="M440 329L180 330Q180 330 115 139Q176 202 265 203Q347 203 395 150T444 7Q444 -82 369 -151T206 -221Q132 -221 78 -179T23 -90Q23 -14 86 -14Q112 -14 124 -32T137 -70Q137 -93 120 -107T83 -124Q87
-154 128 -176T208 -198Q258 -198 301 -136T344 -3Q344 70 318 121T241 172Q148 172 105 90Q99 90 86 98L74 106L171 396L438 397L466 459H492L440 329Z" />
<glyph unicode="6" glyph-name="six" horiz-adv-x="512" d="M135 262Q172 307 204 330T282 354Q284 354 286 354Q332 354 374 334T447 268T478 161Q478 80 417 29T260 -23Q221 -23 184 -11T112 26T55 103T33 225Q33 262 47 307T93 401T166 488T268 552T395 578Q427
578 469 564T529 532L516 514Q491 534 452 546T377 559Q336 559 297 541T223 489T165 396T135 262ZM266 316Q200 316 166 271T131 154Q131 92 169 44T265 -4Q316 -4 346 43T377 160Q377 251 349 283T266 316Z" />
<glyph unicode="7" glyph-name="seven" horiz-adv-x="512" d="M444 406L471 436H494L122 -227L82 -209L392 325Q238 329 103 329L88 225L68 233L78 409L444 406Z" />
<glyph unicode="8" glyph-name="eight" horiz-adv-x="512" d="M467 160Q467 -18 248 -18Q157 -18 96 25T35 158Q35 224 98 266T217 315Q171 324 128 360T85 451Q85 496 115 527T183 570T260 582Q300 582 336 571T399 528T427 451Q427 394 382 359T287 317Q320
311 359 293T432 238T467 160ZM353 449Q353 499 326 533T257 567Q217 567 190 536T161 455Q161 449 161 443Q161 341 252 322Q304 332 328 366T353 449ZM379 164Q379 234 345 265T253 307Q226 303 209 298T168 278T132 234T120 163Q120 103 154 53T248 2Q379 2
379 164Z" />
<glyph unicode="9" glyph-name="nine" horiz-adv-x="512" d="M366 193Q366 230 365 250T357 304T338 356T301 389T240 403Q182 403 155 358T127 209Q127 132 154 91T229 49Q283 49 324 88T366 193ZM223 28Q150 28 91 77T31 210Q31 308 88 367T244 426Q282 426
319 413T391 372T448 292T470 169Q470 -4 378 -121T130 -238Q84 -238 35 -204T-41 -127L-17 -100Q7 -141 55 -173T152 -205Q205 -205 245 -185T308 -137T345 -63T366 20T377 111Q355 79 307 54T223 28Z" />
<glyph unicode=":" glyph-name="colon" horiz-adv-x="254" d="M126 415Q153 415 175 400T197 350Q197 314 178 292T122 270Q92 270 76 293T59 347T80 396T126 415ZM126 123Q153 123 175 108T197 59T177 7T122 -12Q98 -12 79 9T59 55Q59 86 80 104T126 123Z" />
<glyph unicode=";" glyph-name="semicolon" horiz-adv-x="254" d="M122 -6Q99 -6 79 17T59 61Q59 92 80 110T126 129Q151 129 174 108T197 52Q197 -2 164 -43T96 -88Q96 -87 96 -86Q96 -82 93 -77L89 -71Q114 -66 136 -42T160 7Q137 -6 122 -6ZM126 411Q153 411
175 396T197 346Q197 309 178 288T122 266Q87 266 71 288T54 344Q54 375 77 393T126 411Z" />
<glyph unicode="&lt;" glyph-name="less" horiz-adv-x="510" d="M397 446V425L174 236V218L386 25V-3L62 213V246L397 446Z" />
<glyph unicode="=" glyph-name="equal" horiz-adv-x="512" d="M46 339H475V278H46V339ZM46 185H475V124H46V185Z" />
<glyph unicode="&gt;" glyph-name="greater" horiz-adv-x="510" d="M62 446L397 236V203L74 -3V25L286 208V225L62 425V446Z" />
<glyph unicode="?" glyph-name="question" horiz-adv-x="512" d="M381 272L403 258Q368 166 272 166Q238 166 202 193T166 256Q166 316 220 349Q237 358 259 373T299 403T329 442T342 494Q342 554 311 590T229 627Q195 627 165 594T129 530Q194 526 194 477Q194
450 177 433T129 416Q96 416 79 441T62 496Q62 540 113 594T237 648Q261 648 285 644T337 628T388 599T424 553T438 486Q438 444 416 415T362 369T298 339T243 304T220 253Q220 186 274 186Q315 186 342 210T381 272ZM211 37Q211 64 228 79T271 94T313 80T329 37Q329
10 312 -6T269 -22T227 -7T211 37Z" />
<glyph unicode="@" glyph-name="at" horiz-adv-x="608" d="M456 2Q456 2 384 -7Q384 -7 397 68Q391 59 379 46T354 21T321 1T279 -7Q233 -7 204 27T175 124Q175 171 191 207T233 263T281 290T325 299Q390 299 424 269L428 299H497Q487 228 464 35Q499 39 529 75T559
182Q559 211 557 232T543 286T510 340T447 378T345 395Q287 395 242 371T171 307T133 224T120 137Q120 82 127 42T155 -35T217 -90T321 -109Q360 -109 390 -101T438 -80T471 -54T497 -27L517 -55Q513 -58 488 -80T450 -109T401 -126T318 -135Q200 -135 125 -60T50
123Q50 214 95 283T210 385T355 418Q470 418 529 347T588 184Q588 127 546 68T456 2ZM402 98L423 248Q371 282 331 282Q300 282 277 241T253 135Q253 85 264 64T308 42Q337 42 364 60T402 98Z" />
<glyph unicode="A" glyph-name="A" horiz-adv-x="706" d="M429 276H228L133 53Q130 48 130 43Q130 29 152 21T196 12L197 -4L0 -5V15Q1 15 2 15Q21 15 43 23T78 47Q95 67 219 350L343 632H376L595 113Q623 46 656 30Q665 26 675 25T694 23T707 22L705 -3Q638 0
554 0Q478 0 431 -3L432 16Q432 15 450 15Q486 15 500 32Q507 40 507 54Q507 67 501 83L496 98L429 276ZM240 300H421L332 516L240 300Z" />
<glyph unicode="B" glyph-name="B" horiz-adv-x="583" d="M236 616V344L301 348Q334 350 355 363T386 399T398 438T401 478Q401 518 381 556T325 612Q312 618 288 618Q280 618 262 617T236 616ZM537 162Q537 135 525 108T488 55T418 13T314 -3Q307 -3 274 -3T182
-2T54 -1V15L72 18Q90 20 109 28T131 48Q131 98 131 241T131 450Q131 555 131 593Q129 604 98 612L68 622V639Q127 639 212 639T323 638Q361 638 398 620T464 565T492 480Q492 479 492 478Q491 425 455 381T353 334Q537 317 537 162ZM233 317L234 68Q234 35 244
27T279 18Q362 18 399 49T436 153Q436 303 300 316L233 317Z" />
<glyph unicode="C" glyph-name="C" horiz-adv-x="696" d="M395 641Q453 641 505 623T574 586Q586 594 592 603T600 619T605 648H637L634 441H614Q601 522 545 567T387 613Q289 613 239 532T187 313Q187 8 401 8Q450 8 487 21T550 62T592 116T626 184L649 166Q571
-22 399 -23Q247 -23 151 63T55 306Q55 381 78 441T137 537T219 598T309 632T395 641Z" />
<glyph unicode="D" glyph-name="D" horiz-adv-x="671" d="M635 296Q635 242 616 191T558 95T456 24T310 -3Q303 -3 270 -3T177 -2T49 -1V15Q130 22 137 61V565Q136 578 130 587T110 601T89 607T62 611V629Q121 629 216 630T336 631Q385 631 434 614T530 560T606
455T635 296ZM526 290Q526 293 526 296Q526 375 517 428T482 522T412 583T297 603Q267 603 234 600Q234 574 234 510Q234 455 234 322T234 142Q234 84 234 68Q234 49 249 34T289 18Q362 18 408 33T480 83T515 166T526 290Z" />
<glyph unicode="E" glyph-name="E" horiz-adv-x="583" d="M513 0H49V16Q49 15 77 15Q126 15 131 39Q140 93 140 425Q140 571 136 585Q134 596 98 604L62 611V629Q168 626 298 626T511 629L514 484H495Q490 509 480 532T446 579T391 603H234V331H382Q428 331 432
410H456V230H436Q431 308 379 308H234V69Q234 21 269 20H420Q446 21 470 64T500 152H522L513 0Z" />
<glyph unicode="F" glyph-name="F" horiz-adv-x="563" d="M317 -4Q267 0 190 0T49 -4V12Q74 12 102 17T131 35Q133 59 136 198T139 443Q139 568 136 585Q134 596 98 604L62 611V629Q166 625 297 625T511 629L514 484H495Q490 509 480 532T446 579T391 603H234V331H372Q418
331 422 410H445V230H426Q421 308 369 308H234V65Q234 20 269 15Q277 14 291 14L317 15Q317 15 317 10Q317 5 317 2Q317 -2 317 -4Z" />
<glyph unicode="G" glyph-name="G" horiz-adv-x="747" d="M402 642Q439 642 477 627T537 597T575 571Q589 577 600 597T613 638H639L636 431H605Q576 613 399 613Q295 613 239 540T182 295Q182 219 202 157T270 52T386 10Q435 10 481 31T553 88Q556 127 556 169Q556
206 553 227Q514 250 459 253V275H726V253Q671 247 655 227Q651 219 651 139Q651 73 653 -3H636L631 12Q627 28 610 44T569 61Q547 28 494 3T385 -23Q238 -23 145 64T51 296Q51 373 73 434T130 533T213 596T306 632T402 642Z" />
<glyph unicode="H" glyph-name="H" horiz-adv-x="755" d="M512 584Q512 606 446 608L444 623Q478 621 528 621Q629 621 685 626V611Q685 611 649 604Q612 596 611 585Q610 576 610 487Q610 66 616 35Q620 12 694 12H698L700 -1Q652 3 574 3Q485 3 436 -2L437 15Q513
15 513 44V308H234V44Q234 15 310 15L311 -1Q279 0 234 0Q135 0 59 -4V12Q59 12 63 12Q126 12 131 35Q133 47 135 218T137 502Q137 579 136 585Q133 596 102 604L73 611V626Q120 622 193 622Q269 622 312 626V606Q235 601 234 583V331H513L512 584Z" />
<glyph unicode="I" glyph-name="I" horiz-adv-x="376" d="M245 583Q245 582 245 527T244 390T243 239Q243 103 245 45Q246 16 321 16L322 0Q290 1 243 1Q135 1 59 -3V13Q59 13 63 13Q137 13 141 36Q146 66 146 585Q146 596 110 604L73 611V626Q120 622 194 622Q271
622 314 626V606Q245 601 245 583Z" />
<glyph unicode="J" glyph-name="J" horiz-adv-x="385" d="M253 583Q249 523 249 265Q249 233 249 180T250 104Q250 11 240 -45T201 -143Q150 -214 54 -214Q-11 -214 -43 -190T-75 -131Q-75 -104 -57 -85T-10 -65Q21 -65 39 -82T57 -126Q57 -166 17 -191Q30 -198
51 -198T93 -192T121 -172Q138 -144 144 -118T154 -27Q159 65 159 313Q159 554 155 585Q153 596 117 604L81 611V626Q128 622 201 622Q277 622 321 626V606Q310 606 298 605T276 602T260 595T253 583Z" />
<glyph unicode="K" glyph-name="K" horiz-adv-x="670" d="M471 545Q472 548 476 557T480 569Q479 588 463 597T429 608L427 623Q461 621 500 621Q569 621 624 626V611L609 610Q595 608 574 601T541 582Q493 537 448 483T350 360Q391 307 430 253T499 159T577 66Q600
40 623 31T686 18L684 -1Q540 5 539 5Q507 5 479 2Q353 205 287 297L236 231L234 44Q234 15 310 15L311 -1Q279 0 234 0Q135 0 59 -4V12Q59 12 63 12Q124 12 131 35Q138 65 138 433Q138 574 136 585Q133 596 98 604L62 611V626Q109 622 186 622Q268 622 312 626V606Q238
601 234 583V259L350 394Q465 530 471 545Z" />
<glyph unicode="L" glyph-name="L" horiz-adv-x="587" d="M245 68Q245 23 281 23Q281 23 410 22Q445 22 471 61T504 152H526L510 -3H49V13L72 14Q96 16 119 23T143 41Q148 95 148 386Q148 551 146 585Q145 598 104 604L62 611V629L319 630V614Q249 610 247 585Q244
346 244 297Q244 272 244 201T245 68Z" />
<glyph unicode="M" glyph-name="M" horiz-adv-x="881" d="M208 627Q455 151 468 121L689 623L861 630V610Q848 609 830 606T789 595T766 574V59L774 45Q782 31 796 23Q811 15 835 14L859 16V-2Q802 0 724 0Q637 0 591 -3V13Q593 13 615 15T648 23Q675 35 675 55V508L440
-14H424L161 502Q161 502 161 239Q161 126 161 70Q161 52 163 46T172 35T185 25Q207 17 239 16Q240 16 242 16T245 16V-2Q196 1 139 1Q76 1 28 -3V13L68 18Q108 24 120 35Q127 41 131 51L134 61Q136 61 136 530Q131 560 94 581T20 605V623L208 627Z" />
<glyph unicode="N" glyph-name="N" horiz-adv-x="687" d="M667 604Q653 603 636 601T598 591T578 573Q576 540 575 389L578 -11H543L352 250Q162 511 151 522Q150 437 150 383Q150 315 152 253T155 99Q155 81 155 59Q155 18 190 18Q247 18 248 16V-2Q199 1 137
1Q68 1 20 -3V13Q20 13 26 13Q108 13 113 36Q118 334 118 385Q118 462 116 563Q114 574 69 593L24 611V629L209 628Q268 546 403 370L540 194L541 573Q540 587 516 595T459 604Q452 604 444 604L442 627Q484 622 546 622Q603 622 667 626V604Z" />
<glyph unicode="O" glyph-name="O" horiz-adv-x="792" d="M416 8Q510 8 569 93T629 312Q629 470 571 552T408 634Q358 634 319 620T243 573T188 474T168 311Q168 275 174 238T199 158T243 84T315 30T416 8ZM416 651Q452 651 491 643T577 612T659 552T719 454T743
312Q743 235 713 172T633 70T527 9T414 -12Q263 -12 156 74T49 304Q49 386 72 449T133 549T220 610T318 642T416 651Z" />
<glyph unicode="P" glyph-name="P" horiz-adv-x="562" d="M534 447Q534 372 477 328T321 284Q286 284 266 289L246 295L245 47Q245 29 266 20T317 11Q325 11 334 12V-3Q334 -1 60 -1V15Q60 15 65 15Q140 15 142 38Q145 68 145 299T142 585Q141 598 108 604L74
611V629Q133 629 226 628T344 627Q412 627 473 578T534 447ZM433 447Q433 478 431 499T420 544T392 581T342 601Q325 604 300 604Q291 604 273 604T246 603V310Q246 305 313 305Q371 305 401 347T433 447Z" />
<glyph unicode="Q" glyph-name="Q" horiz-adv-x="739" d="M650 -139Q686 -139 700 -117T715 -54Q715 -52 715 -49L743 -43Q743 -49 743 -55Q743 -122 717 -169T638 -216Q594 -216 554 -200T486 -160T430 -114T375 -75T317 -58Q295 -58 278 -79T254 -119T246 -146L227
-142Q227 -124 239 -93T270 -44Q281 -34 306 -27T354 -19Q354 -19 355 -19Q396 -19 448 -49T552 -109T650 -139ZM381 -12Q233 -12 135 75T37 306Q37 388 59 450T117 550T202 611T297 643T393 651Q429 651 467 643T549 611T628 551T685 452T708 312Q708 179 606
84T381 -12ZM385 634Q335 634 297 621T225 574T174 475T156 313Q156 276 160 240T179 161T216 85T280 30T375 8Q410 8 438 13T488 27T526 51T553 79T572 115T584 155T590 200T592 246T593 295Q593 354 588 402T568 495T530 569T470 616T385 634Z" />
<glyph unicode="R" glyph-name="R" horiz-adv-x="636" d="M630 -2L449 1Q449 5 449 9Q449 46 422 147Q376 315 300 316L233 317L234 69Q234 54 236 45T246 27T269 19Q313 18 313 17L312 -2Q256 2 163 2Q89 2 49 -1V16Q127 16 131 39Q135 55 135 74Q139 175 139
329Q139 558 135 582Q133 593 98 601L62 609V627Q121 625 202 625Q235 625 285 625T349 626Q387 626 425 609T490 554T518 470Q518 419 469 378T353 334Q384 331 410 317T452 286T484 240T507 192T527 139Q558 57 567 45Q589 14 630 12V-2ZM344 600Q322 605 289
605Q259 605 234 602V341Q302 340 303 340Q359 340 388 379T418 472Q418 518 398 555T344 600Z" />
<glyph unicode="S" glyph-name="S" horiz-adv-x="587" d="M301 653Q378 653 432 596Q457 599 472 638H486L483 444Q483 444 464 444Q461 479 456 510T434 565Q387 634 299 634Q252 634 219 598T186 522Q186 480 226 443T332 382Q423 348 478 295T534 176Q534 91
478 38T292 -15Q264 -15 238 -9T196 6T164 24T141 40Q121 31 104 -1H83L85 181H105Q122 99 163 54T288 9Q428 9 428 144Q428 232 280 284Q200 312 154 363T108 473Q107 653 301 653Z" />
<glyph unicode="T" glyph-name="T" horiz-adv-x="600" d="M232 37Q254 65 254 94L255 605Q151 606 150 606Q126 606 107 588T78 544T62 492T54 443H35L39 629Q151 626 324 626Q487 626 575 629L578 443H558Q549 603 475 604L358 605L359 94Q359 59 378 37Q393
19 460 18V-1H153V18Q155 18 159 18T165 18Q218 19 232 37Z" />
<glyph unicode="U" glyph-name="U" horiz-adv-x="762" d="M240 218Q240 164 250 125T277 64T317 30T363 14T412 10Q451 10 479 20T532 53T568 119T581 227Q581 238 581 254T581 299Q581 437 577 585Q575 596 534 604L493 611V626Q540 622 602 622Q668 622 712
626V606Q665 603 624 583Q621 520 621 430L624 239Q624 118 566 52T394 -19Q359 -19 325 -13T255 11T193 54T149 124T131 223Q131 226 132 255T136 340T138 462Q138 523 136 585Q134 596 93 604L52 611V626Q99 622 183 622Q273 622 317 626V606Q258 601 240 583Q239
517 239 423L240 218Z" />
<glyph unicode="V" glyph-name="V" horiz-adv-x="700" d="M208 551Q293 340 390 124Q572 547 572 573Q572 587 552 595L492 611V626Q539 622 597 622Q656 622 700 626V606Q659 604 634 589Q625 583 609 559L594 536Q567 457 489 270T380 -14L340 -15Q290 107 213
283T116 508Q89 576 56 592Q31 604 0 611V626Q47 622 143 622Q246 622 291 626V606Q223 600 217 589Q212 579 210 565L208 551Z" />
<glyph unicode="W" glyph-name="W" horiz-adv-x="1013" d="M367 -11H328Q328 -11 139 509Q114 575 80 592Q55 604 24 611V626Q71 622 176 622Q291 622 335 626V606Q322 605 289 597T253 583Q248 572 248 552Q248 524 258 494Q277 439 300 378T348 251T384 158Q432
289 504 519L540 636L566 635Q583 568 656 385T751 138Q758 161 796 272T861 470T888 571Q888 585 867 593L807 609V624Q854 620 912 620Q971 620 1016 624V604Q975 602 949 587Q940 581 925 557L909 534Q889 471 853 361T788 161T735 -11H701Q681 51 650 129T577
302T519 438Q508 402 449 234T367 -11Z" />
<glyph unicode="X" glyph-name="X" horiz-adv-x="735" d="M565 545L417 337Q417 337 481 240Q544 143 588 82Q622 35 637 29Q662 19 710 8V-6Q663 -2 566 -2Q463 -2 419 -6V13Q478 18 483 29Q486 35 486 44Q486 60 481 69Q448 121 395 200T341 279Q304 229 273
186T226 121T198 84T183 63T178 55T177 50Q177 31 197 25L257 8V-6Q210 -2 152 -2Q93 -2 48 -6V13Q89 15 115 31Q124 37 141 55L160 75L329 299L162 549Q146 571 102 598Q96 602 83 604T55 609T38 611V626Q85 622 186 622Q295 622 339 626V606Q283 601 275 589Q272
582 272 573Q272 565 274 558L276 551L396 355Q510 511 529 537T548 569Q548 588 528 595L468 611V626Q515 622 573 622Q632 622 677 626V606Q636 604 610 589Q601 583 584 563L565 545Z" />
<glyph unicode="Y" glyph-name="Y" horiz-adv-x="645" d="M286 247Q218 406 115 549Q92 581 70 592Q45 604 13 611V626Q60 622 152 622Q250 622 294 626V606Q238 601 230 589Q225 579 223 565L221 553Q289 421 360 301Q505 560 506 574Q506 588 483 595L423 611V626Q470
622 528 622Q587 622 632 626V606Q591 604 565 589Q556 583 541 567L526 551Q408 347 381 289Q381 251 385 35Q385 10 467 10V-9H195V7Q198 7 206 7Q280 7 281 30Q283 147 286 247Z" />
<glyph unicode="Z" glyph-name="Z" horiz-adv-x="600" d="M51 7Q257 314 424 607L188 603Q169 603 154 594T129 573T112 541T102 512T95 484H76L79 629Q171 623 286 623Q376 623 548 629V607L248 111Q209 42 209 16Q209 6 217 6Q395 6 442 12Q468 15 499 62T537
152H559L536 -9Q421 -7 309 -7Q242 -7 51 -9V7Z" />
<glyph unicode="[" glyph-name="bracketleft" horiz-adv-x="282" d="M103 684H262V662H166V-104H262V-131H103V684Z" />
<glyph unicode="\" glyph-name="backslash" horiz-adv-x="309" d="M67 726L296 -131L243 -145L13 712L67 726Z" />
<glyph unicode="]" glyph-name="bracketright" horiz-adv-x="282" d="M190 684V-131H32V-104H128V662H32V684H190Z" />
<glyph unicode="^" glyph-name="asciicircum" horiz-adv-x="421" d="M72 453L210 604L333 456L319 444L207 548L86 444L72 453Z" />
<glyph unicode="_" glyph-name="underscore" horiz-adv-x="531" d="M45 -19H479V-69H45V-19Z" />
<glyph unicode="`" glyph-name="grave" horiz-adv-x="421" d="M101 587L130 621L287 477L264 462L101 587Z" />
<glyph unicode="a" glyph-name="a" horiz-adv-x="467" d="M453 83L468 74Q455 -7 372 -7Q338 -7 321 15T301 69Q281 46 271 36T231 9T173 -9Q123 -9 87 19T51 108Q51 135 62 155T94 187T136 208T185 219T231 224T272 225T297 226Q300 226 300 300Q300 395 213
395Q183 395 165 382T143 351Q172 351 172 307Q172 280 154 269T119 257Q100 257 85 274T70 313Q70 350 117 385Q155 414 222 414Q285 414 334 375T383 269Q383 236 381 177T379 92Q379 25 410 26Q428 26 437 39T453 83ZM297 94V212Q262 209 233 206T182 195T149
169T137 119Q137 76 158 56T213 36Q265 36 297 94Z" />
<glyph unicode="b" glyph-name="b" horiz-adv-x="522" d="M492 205Q492 109 435 50T305 -10Q244 -10 176 63Q163 49 149 23T132 -7Q124 -8 117 -8L103 -7Q106 125 106 312Q106 486 103 596Q103 613 31 617V630Q135 635 187 659L183 328Q202 355 215 369T256 398T315
413Q392 413 442 362T492 205ZM397 208Q397 239 393 266T378 320T346 365T293 382Q266 382 242 362T206 323L195 303L187 211L190 86L199 72Q207 57 230 42T284 27Q334 27 365 78T397 208Z" />
<glyph unicode="c" glyph-name="c" horiz-adv-x="434" d="M257 415Q314 415 363 382T413 299Q413 260 393 240T353 220Q297 220 297 274Q297 296 310 311T339 327Q357 327 373 313Q353 397 255 397Q207 397 174 338T141 190Q141 123 176 71T264 18Q296 18 319
28T356 58T374 88T386 118L414 98Q399 59 359 22T255 -15Q161 -15 106 42T51 210Q51 264 72 305T126 369T192 403T257 415Z" />
<glyph unicode="d" glyph-name="d" horiz-adv-x="501" d="M450 656Q445 487 444 265Q444 113 447 33Q447 26 455 22T471 16T489 13T502 12V0Q398 -4 374 -10L366 63Q344 35 309 15T239 -6Q160 -6 111 49T61 195Q61 290 117 351T260 412Q287 412 309 402T341 381T358
360L364 350V599Q360 619 292 620L293 637Q395 637 450 656ZM357 131L364 223L359 313L354 326Q348 337 338 352T307 378T261 390Q163 390 163 204Q163 27 264 27Q300 27 328 62T357 131Z" />
<glyph unicode="e" glyph-name="e" horiz-adv-x="450" d="M151 232L331 233Q332 250 332 265Q332 296 327 315Q319 347 295 367T234 388Q197 388 176 346T151 232ZM150 217V195Q150 123 176 65T253 7Q311 7 345 41T392 112L420 92Q405 54 362 19T249 -17Q164 -17
108 36T51 190Q51 249 70 293T122 361T188 396T256 407Q310 407 356 378T417 284Q421 264 421 244Q421 233 420 218L150 217Z" />
<glyph unicode="f" glyph-name="f" horiz-adv-x="389" d="M333 0Q274 4 199 4T75 0V18Q160 18 161 44L165 378H81V400H165Q165 411 165 422Q165 671 339 671Q385 671 433 647T481 584Q481 558 467 537T424 515Q404 515 391 530T378 563Q378 576 387 588T406 604L415
609Q414 634 390 644T336 655Q292 655 269 621Q245 584 246 495Q246 453 247 434T248 400H343V378H248L254 44Q255 31 270 24T303 17Q313 17 333 18V0Z" />
<glyph unicode="g" glyph-name="g" horiz-adv-x="477" d="M442 338Q430 338 415 357T395 376Q370 376 357 360L369 351Q379 342 389 318T399 263Q399 193 348 153T240 112Q213 112 185 121L158 129L147 125Q137 120 127 110T116 89Q117 56 181 56Q269 56 305 49Q368
38 401 13T434 -72Q434 -147 369 -190T205 -234Q122 -234 82 -203T41 -128Q41 -92 70 -68T157 -23Q156 -23 152 -23T147 -23Q118 -23 92 -2T66 57Q66 77 79 95T104 121T137 139Q133 142 123 154T101 180T81 216T73 260Q73 316 118 360T231 404Q264 404 292 397T333
383L345 376Q391 417 425 417Q472 417 472 379Q472 338 442 338ZM325 261Q325 320 297 353T236 387Q206 387 179 351T152 263Q152 207 175 168T239 129Q276 129 300 161T325 261ZM368 -118Q368 -61 330 -43T185 -25L168 -33Q150 -40 132 -64T113 -121Q113 -157
140 -187T222 -217Q292 -217 330 -188T368 -118Z" />
<glyph unicode="h" glyph-name="h" horiz-adv-x="563" d="M61 635H62Q143 635 207 657L205 307Q220 332 228 342T254 370T292 397T342 406Q378 406 406 389T448 347T468 299T475 258Q475 228 475 156T475 61Q475 38 475 37Q475 28 489 23T511 18T543 16V0Q501
4 435 4Q366 4 328 0V16Q334 17 342 17T360 18T376 21T388 27T393 36Q393 36 393 37V275Q393 367 325 368Q284 368 261 349T205 282V37Q205 27 217 22T245 17T274 16V0Q229 4 163 4Q100 4 61 0V16Q79 16 102 22T125 37Q125 74 126 192T128 378Q128 521 125 598Q118
605 108 609T91 614T61 618V635Z" />
<glyph unicode="i" glyph-name="i" horiz-adv-x="313" d="M170 641Q193 641 212 625T231 586Q231 559 214 542T170 524Q151 524 133 540T115 580Q115 605 132 623T170 641ZM216 422Q214 249 214 37Q218 17 284 16V0Q243 3 175 3Q110 3 71 0V16Q131 18 134 37V373Q103
383 71 383V399Q161 404 216 422Z" />
<glyph unicode="j" glyph-name="j" horiz-adv-x="317" d="M223 422Q221 249 221 -14Q221 -98 170 -153T68 -209Q35 -209 2 -189T-32 -138Q-32 -99 -16 -81T25 -62Q43 -62 55 -76T68 -108Q68 -147 36 -155Q39 -166 52 -172T79 -179Q119 -179 134 -151Q141 -138
141 -14V373Q131 377 122 378T100 381T78 383V399Q127 399 223 422ZM193 641Q212 641 228 623T244 586Q244 567 227 545T190 522Q160 522 143 538T125 586Q125 611 147 626T193 641Z" />
<glyph unicode="k" glyph-name="k" horiz-adv-x="533" d="M199 197L184 180Q182 148 182 102Q182 73 183 52Q184 40 193 32Q201 24 210 21T254 16V0Q216 3 150 3Q79 3 31 0V16Q104 20 104 37Q107 130 108 340Q108 511 104 608Q92 626 31 629V645Q33 645 36 645Q90
645 186 668L183 206L284 321Q298 338 298 353Q298 370 275 374Q275 377 275 384T276 395H444V376Q361 368 328 336L248 238Q281 204 316 164T390 83Q430 43 453 28T498 12Q500 12 503 12V-2L365 -4Q353 19 322 57T259 130T199 197Z" />
<glyph unicode="l" glyph-name="l" horiz-adv-x="272" d="M195 657Q191 561 190 441Q190 393 191 262T193 37Q195 27 220 22T262 16V0Q218 5 157 5Q86 5 41 0V16Q107 19 109 37Q112 132 112 300Q112 479 109 598Q84 618 41 618V635Q94 638 195 657Z" />
<glyph unicode="m" glyph-name="m" horiz-adv-x="813" d="M327 406Q430 406 453 309Q473 341 487 358T527 391T583 406Q715 406 715 247V42Q715 29 727 24T758 18T782 16V0Q753 3 689 3Q620 3 567 0V16Q633 22 633 37Q634 37 634 265Q634 320 619 344T565 368Q537
368 511 349T473 311L461 292V37Q461 29 485 23T530 16V0Q488 3 421 3Q348 3 305 0V16Q371 19 371 37V266Q371 322 359 345T309 368Q284 368 252 340T205 271V37Q205 19 274 16V0Q218 3 154 3Q97 3 61 0V16Q77 15 101 18T125 37Q128 170 128 245Q128 328 125 373Q124
384 88 384Q75 384 61 383V399Q72 398 84 398Q146 398 196 419L209 312Q218 325 226 338T245 363T267 385T294 400T327 406Z" />
<glyph unicode="n" glyph-name="n" horiz-adv-x="575" d="M66 389Q75 388 85 388Q141 388 203 408L211 309Q274 405 346 406Q380 406 406 395T448 368T472 329T485 288T489 248V43Q489 33 513 25T555 16V0Q454 4 430 4Q379 4 340 0V16Q360 17 383 25T406 42Q407
42 407 245Q407 300 388 334T329 368Q297 368 260 337T209 261V38Q209 22 279 16V0Q238 3 170 3Q105 3 66 0V16Q86 16 107 24T129 42Q131 103 131 203Q131 298 129 359Q110 369 66 373V389Z" />
<glyph unicode="o" glyph-name="o" horiz-adv-x="486" d="M264 8Q318 8 348 58T378 202Q378 280 346 338T262 397Q227 397 202 378T166 327T149 262T143 195Q143 112 175 60T264 8ZM253 417Q342 417 404 355T466 213Q466 116 414 50T261 -17Q51 -17 51 212Q51
301 113 359T253 417Z" />
<glyph unicode="p" glyph-name="p" horiz-adv-x="520" d="M197 292L188 188L189 67Q229 22 297 22Q339 22 361 67T383 194Q383 276 362 323T303 371Q236 371 197 292ZM31 398Q109 398 181 417L195 325Q222 368 252 392T327 416Q392 416 440 355T489 212Q489 124
438 59T291 -6Q232 -6 188 40L189 -180Q196 -191 225 -198T278 -205L276 -219Q226 -216 149 -216T33 -219V-205Q103 -203 103 -180Q107 -61 108 140Q108 280 105 362Q64 381 31 383V398Z" />
<glyph unicode="q" glyph-name="q" horiz-adv-x="520" d="M362 309Q321 392 256 392Q216 392 192 337T168 197Q168 117 189 71T252 24Q278 24 301 36T335 61T356 91L368 108V221L362 309ZM453 406Q453 300 451 87T449 -180Q449 -202 520 -204V-218Q411 -213 391
-213Q343 -213 300 -218L303 -204Q361 -204 367 -180L368 71Q307 -14 233 -14Q155 -14 108 44T61 199Q61 231 73 266T108 336T171 392T261 414Q290 414 322 386T375 327Q387 336 403 360T419 401L453 406Z" />
<glyph unicode="r" glyph-name="r" horiz-adv-x="432" d="M339 416Q377 416 397 394T418 329Q418 304 401 283T362 262Q346 262 329 276T311 309Q311 331 340 351Q337 360 330 369T306 378Q278 378 253 348T216 287L205 256L207 42Q208 22 276 16V0Q234 3 167
3Q104 3 63 0V16Q78 17 102 26T127 42V373Q114 381 63 383L61 399Q118 399 197 419L208 299Q224 342 257 379T339 416Z" />
<glyph unicode="s" glyph-name="s" horiz-adv-x="399" d="M199 -13Q179 -13 151 -3T104 16L87 27L82 -2H63L61 138L78 136Q83 87 114 47T199 6Q293 6 293 82Q293 137 174 180Q123 198 96 223T68 291Q68 351 109 385T217 420Q246 420 269 410T302 391L311 381L314
411H333L331 285H313Q311 299 310 306T305 331T294 359T276 380T247 397T207 403Q176 403 157 384T137 334Q137 317 144 304T165 281T192 266T225 253T255 242Q365 193 365 122Q365 50 325 19T199 -13Z" />
<glyph unicode="t" glyph-name="t" horiz-adv-x="387" d="M324 386H218Q218 386 218 114Q218 71 231 45T268 19Q294 19 311 40T344 103L366 92Q357 68 350 55T330 25T298 1T252 -7Q192 -7 162 27Q148 42 142 69T136 150V386H52V399Q76 399 110 412T158 442Q171
459 184 490T197 553H220Q216 521 216 455Q216 448 216 433T216 410L330 412L324 386Z" />
<glyph unicode="u" glyph-name="u" horiz-adv-x="555" d="M61 395Q149 395 206 406L204 132Q206 17 258 17Q287 17 314 37T358 82T385 127L395 147V367Q376 379 336 379V395Q430 395 483 406L475 207Q475 185 475 157L476 28Q488 18 537 16V4Q461 0 400 -15L393
94L381 78Q369 62 350 42T302 6T246 -11Q177 -11 149 25T121 130L120 371Q104 379 61 379V395Z" />
<glyph unicode="v" glyph-name="v" horiz-adv-x="552" d="M260 395L258 381Q204 381 204 352Q204 346 207 338L315 72L414 338Q417 346 417 353Q417 364 407 371T387 379T360 381L362 395Q388 392 437 392Q490 392 522 395L520 381Q486 381 472 369T444 326L317
-10H264L109 340Q99 363 83 371T31 381L33 395Q133 390 169 390Q221 390 260 395Z" />
<glyph unicode="w" glyph-name="w" horiz-adv-x="791" d="M470 396L492 322L570 72L663 339Q664 343 664 347Q664 363 644 373T605 384L607 398Q641 393 687 393Q734 393 766 398L764 384Q735 382 714 366T685 329L568 -10H521L412 289L296 -10H250L134 322Q117
375 37 379L39 395Q106 392 171 392Q234 392 274 395L272 381Q271 381 270 381Q255 381 238 370T220 344Q220 341 221 338L299 72L397 324L420 396H470Z" />
<glyph unicode="x" glyph-name="x" horiz-adv-x="540" d="M307 -2V12Q331 12 344 19T357 34Q357 38 355 42T350 51T344 60L266 169L189 74Q174 56 174 40Q174 12 227 12L225 -2Q188 1 136 1T45 -2L47 12Q78 12 104 27T159 75L256 186L145 338Q138 349 127 358L116
369Q102 377 95 378T66 381V395Q114 390 173 390Q234 390 274 395L272 381Q249 381 240 375T230 361Q230 354 233 346L238 338L307 234L384 330Q393 341 393 354Q393 381 346 381L348 395Q383 392 425 392Q472 392 500 395L498 381Q470 381 455 374Q436 365 417
342L319 221L426 76Q444 49 467 33Q494 14 526 12L522 -2Q465 1 403 1Q342 1 307 -2Z" />
<glyph unicode="y" glyph-name="y" horiz-adv-x="548" d="M260 395L258 381Q234 381 225 376T215 355Q215 346 221 328L322 72L430 322Q437 339 437 351Q437 362 432 369T414 378T392 381T366 382L368 396Q403 392 458 392Q513 392 538 397L536 383Q497 383 488
375Q474 362 456 315L276 -113Q254 -166 219 -197Q180 -230 128 -229Q94 -229 63 -207T31 -152T47 -105T85 -89Q110 -89 130 -101T150 -138Q150 -173 110 -189Q124 -200 152 -201Q168 -201 202 -171Q241 -134 280 -17L127 336Q117 362 92 371Q75 377 35 381V395Q78
392 140 392Q215 392 260 395Z" />
<glyph unicode="z" glyph-name="z" horiz-adv-x="465" d="M89 399L438 401L442 381Q183 77 167 28L330 31Q363 32 386 64T413 157H431L420 0H70L67 41Q106 86 226 230T348 377L152 374Q133 374 123 354T111 310T105 263H84L89 399Z" />
<glyph unicode="{" glyph-name="braceleft" horiz-adv-x="282" d="M103 264H23V303H103V684H262V662H166V-104H262V-131H103V264Z" />
<glyph unicode="|" glyph-name="bar" horiz-adv-x="309" d="M127 734H182V-154H127V734Z" />
<glyph unicode="}" glyph-name="braceright" horiz-adv-x="282" d="M190 684V303H267V264H190V-131H32V-104H128V662H32V684H190Z" />
<glyph unicode="&#xa0;" glyph-name="nbspace" horiz-adv-x="276" />
<glyph unicode="&#xa1;" glyph-name="exclamdown" horiz-adv-x="425" d="M242 389Q242 389 272 18Q272 17 272 16Q272 -13 205 -12Q173 -12 162 -6T150 15Q150 62 205 387Q205 387 205 389H242ZM225 474Q197 474 181 494T164 536Q164 556 181 577T222 598Q282
598 283 536Q282 474 225 474Z" />
<glyph unicode="&#xa3;" glyph-name="sterling" horiz-adv-x="512" d="M146 73T133 73T109 61T98 23Q98 -22 147 -23Q192 -23 214 6Q183 43 168 55Q146 73 133 73ZM137 217H55V250L120 251Q110 277 110 305Q110 383 164 423T288 463Q359 463 402 429T450 333L417
328Q399 431 294 431Q248 431 222 403T195 321Q195 291 224 253L412 256V216H255Q278 190 288 175L412 176V136L303 137Q304 132 304 127Q304 97 298 76T281 45T259 18Q302 -17 357 -16Q402 -16 432 9T462 80Q462 83 462 87T462 96T461 102L493 111Q493 105 495
94T497 76Q497 -94 375 -94Q316 -94 225 -9Q203 -35 179 -48Q152 -62 128 -62Q88 -62 67 -35T46 16Q46 51 68 77T134 104Q184 104 236 38Q246 53 246 77Q246 100 240 113T219 138L55 140V173L176 174Q152 195 137 217Z" />
<glyph unicode="&#xa4;" glyph-name="currency" horiz-adv-x="512" d="M224 59Q224 10 259 10Q259 10 348 10Q374 11 405 60T442 152H465L441 -9H39V7L80 13Q120 19 121 30Q125 61 128 203H39V248H129Q129 276 129 302H39V347H130Q130 356 130 365Q130 490 126
503Q124 514 88 522L52 529V547Q158 544 257 544T439 547L442 402H423Q418 427 408 450T374 497T319 521H224V347H403V302H224V248H403V203H224V59Z" />
<glyph unicode="&#xa6;" glyph-name="brokenbar" horiz-adv-x="309" d="M127 734H182V385H127V734ZM182 210V-154H127V210H182Z" />
<glyph unicode="&#xa7;" glyph-name="section" horiz-adv-x="372" d="M146 189Q103 202 75 234T46 311Q46 371 87 405T196 440Q225 440 247 431T279 412L288 401L291 431H321L312 305H290Q288 324 287 332T279 362T262 393T232 414T185 424Q115 424 116 354Q116
337 121 324T140 304T162 292T193 282T222 272Q287 249 318 223T350 148Q350 42 253 15Q301 -4 325 -30T350 -97Q350 -239 177 -240Q157 -240 130 -230T87 -209L71 -199L59 -227H43L39 -88L62 -89Q67 -138 98 -178T182 -219Q276 -219 276 -143Q276 -94 150 -57Q105
-44 76 -12T46 66Q46 114 72 146T146 189ZM276 102Q276 146 182 178Q150 177 133 158T116 109Q116 89 124 75T145 54T176 41T210 31Q276 40 276 102Z" />
<glyph unicode="&#xa8;" glyph-name="dieresis" horiz-adv-x="421" d="M98 524Q98 539 107 549T129 559Q142 559 152 550T162 525T153 500T131 490Q118 490 108 500T98 524ZM251 524Q251 539 260 549T282 559T304 550T313 525T304 500T283 490Q270 490 261 500T251 524Z" />
<glyph unicode="&#xa9;" glyph-name="copyright" horiz-adv-x="512" d="M265 356Q293 356 318 348T351 330Q362 336 366 359H381L380 260H365Q355 335 259 335T163 199Q163 136 185 99T264 61Q309 61 328 78T365 136L384 128Q346 38 264 38Q191 38 145 79T99 196Q99
254 129 292T194 343T265 356ZM155 447T254 447T423 377T494 208T424 39T254 -32T85 38T14 208T84 377ZM343 423T254 423T102 360T39 208T102 56T254 -7T406 56T469 208T406 360Z" />
<glyph unicode="&#xab;" glyph-name="guillemotleft" horiz-adv-x="503" d="M458 380V362L307 201V187L449 43V20L233 183V209L458 380ZM327 380V362L147 201V187L317 43V20L58 183V209L327 380Z" />
<glyph unicode="&#xae;" glyph-name="registered" horiz-adv-x="512" d="M155 447T254 447T423 377T494 208T424 39T254 -32T85 38T14 208T84 377ZM343 423T254 423T102 360T39 208T102 56T254 -7T406 56T469 208T406 360ZM387 55H315Q309 113 305 129Q288 201
254 202L222 203L223 103Q223 85 240 80Q240 80 261 73L260 55Q237 57 198 57T134 55V73L154 78Q172 82 173 89Q173 89 174 94Q175 98 175 105V330Q174 335 158 340L140 345V358Q169 358 217 357T278 356Q308 356 333 336T359 281Q358 257 335 235T280 212Q295
211 305 206T322 190T333 172T342 147T350 123Q358 101 363 92T373 80T387 74V55ZM310 281Q310 307 302 324T275 342Q271 342 263 343T249 344T235 344T223 344V216L255 215Q285 215 297 236T310 281Z" />
<glyph unicode="&#xb4;" glyph-name="acute" horiz-adv-x="421" d="M118 475L287 620L318 572L129 457L118 475Z" />
<glyph unicode="&#xbb;" glyph-name="guillemotright" horiz-adv-x="503" d="M58 380L283 209V183L68 20V43L209 187V201L58 362V380ZM189 380L458 209V183L199 20V43L369 187V201L189 362V380Z" />
<glyph unicode="&#xbf;" glyph-name="questiondown" horiz-adv-x="512" d="M120 354L97 369Q132 461 228 461Q262 461 298 434T335 371Q335 311 281 278Q264 269 242 254T202 224T171 185T159 133Q159 73 190 37T271 0Q305 0 336 33T372 96Q307 100 307 150Q307
177 324 194T372 211Q405 211 421 186T438 131Q438 88 386 33T264 -22Q234 -22 202 -14T137 11T83 62T62 141Q62 221 157 268Q159 269 177 277T210 292T242 312T270 340T281 374Q281 441 226 440Q185 440 159 416T120 354ZM290 590Q290 563 273 548T230 532T188
547T172 590Q172 617 189 632T232 648T274 633T290 590Z" />
<glyph unicode="&#xc0;" glyph-name="Agrave" horiz-adv-x="734" d="M271 792L300 826L457 682L434 667L271 792ZM429 276H228L133 53Q130 48 130 43Q130 29 152 21T196 12L197 -4L0 -5V15Q1 15 2 15Q21 15 43 23T78 47Q95 67 219 350L343 632H376L595 113Q623
46 656 30Q665 26 675 25T694 23T707 22L705 -3Q638 0 554 0Q478 0 431 -3L432 16Q432 15 450 15Q486 15 500 32Q507 40 507 54Q507 67 501 83L496 98L429 276ZM240 300H421L332 516L240 300Z" />
<glyph unicode="&#xc1;" glyph-name="Aacute" horiz-adv-x="734" d="M270 684L439 829L470 781L281 666L270 684ZM429 276H228L133 53Q130 48 130 43Q130 29 152 21T196 12L197 -4L0 -5V15Q1 15 2 15Q21 15 43 23T78 47Q95 67 219 350L343 632H376L595 113Q623
46 656 30Q665 26 675 25T694 23T707 22L705 -3Q638 0 554 0Q478 0 431 -3L432 16Q432 15 450 15Q486 15 500 32Q507 40 507 54Q507 67 501 83L496 98L429 276ZM240 300H421L332 516L240 300Z" />
<glyph unicode="&#xc2;" glyph-name="Acircumflex" horiz-adv-x="734" d="M234 673L372 824L495 676L481 664L369 768L248 664L234 673ZM429 276H228L133 53Q130 48 130 43Q130 29 152 21T196 12L197 -4L0 -5V15Q1 15 2 15Q21 15 43 23T78 47Q95 67 219 350L343
632H376L595 113Q623 46 656 30Q665 26 675 25T694 23T707 22L705 -3Q638 0 554 0Q478 0 431 -3L432 16Q432 15 450 15Q486 15 500 32Q507 40 507 54Q507 67 501 83L496 98L429 276ZM240 300H421L332 516L240 300Z" />
<glyph unicode="&#xc3;" glyph-name="Atilde" horiz-adv-x="734" d="M277 673L265 674Q265 702 284 735T333 768Q351 768 368 753T404 722T443 706Q474 706 483 722T493 767H509Q509 753 507 738T497 704T475 671T437 658Q418 658 402 669T375 692T353 714T329
725Q310 725 294 708T277 673ZM429 276H228L133 53Q130 48 130 43Q130 29 152 21T196 12L197 -4L0 -5V15Q1 15 2 15Q21 15 43 23T78 47Q95 67 219 350L343 632H376L595 113Q623 46 656 30Q665 26 675 25T694 23T707 22L705 -3Q638 0 554 0Q478 0 431 -3L432 16Q432
15 450 15Q486 15 500 32Q507 40 507 54Q507 67 501 83L496 98L429 276ZM240 300H421L332 516L240 300Z" />
<glyph unicode="&#xc4;" glyph-name="Adieresis" horiz-adv-x="734" d="M259 704Q259 719 268 729T290 739Q303 739 313 730T323 705T314 680T292 670Q279 670 269 680T259 704ZM412 704Q412 719 421 729T443 739T465 730T474 705T465 680T444 670Q431 670 422
680T412 704ZM429 276H228L133 53Q130 48 130 43Q130 29 152 21T196 12L197 -4L0 -5V15Q1 15 2 15Q21 15 43 23T78 47Q95 67 219 350L343 632H376L595 113Q623 46 656 30Q665 26 675 25T694 23T707 22L705 -3Q638 0 554 0Q478 0 431 -3L432 16Q432 15 450 15Q486
15 500 32Q507 40 507 54Q507 67 501 83L496 98L429 276ZM240 300H421L332 516L240 300Z" />
<glyph unicode="&#xc5;" glyph-name="Aring" horiz-adv-x="734" d="M330 878T366 878T426 855T450 796Q450 760 426 735T366 710T306 735T282 795T306 854ZM315 794Q315 766 329 752T366 737Q415 737 415 794Q415 822 402 837T365 853T329 838T315 794ZM429 276H228L133
53Q130 48 130 43Q130 29 152 21T196 12L197 -4L0 -5V15Q1 15 2 15Q21 15 43 23T78 47Q95 67 219 350L343 632H376L595 113Q623 46 656 30Q665 26 675 25T694 23T707 22L705 -3Q638 0 554 0Q478 0 431 -3L432 16Q432 15 450 15Q486 15 500 32Q507 40 507 54Q507
67 501 83L496 98L429 276ZM240 300H421L332 516L240 300Z" />
<glyph unicode="&#xc6;" glyph-name="AE" horiz-adv-x="911" d="M467 321L469 596Q445 555 411 500T309 321H467ZM377 0V16L396 18Q415 19 436 26T459 45Q463 67 467 297H298L168 74Q167 73 162 62T156 50Q156 20 260 17L259 -1L38 -5V15Q89 15 116 47Q136 72
454 626Q528 624 597 624Q712 624 828 629L831 484H812Q807 509 797 532T763 579T709 603H562Q562 438 564 321H699Q745 321 750 399H773V220H754Q749 298 696 298H564L563 27Q667 21 689 20Q715 20 749 23Q773 33 793 73T817 152H840L830 0Q759 3 656 3Q605 3
377 0Z" />
<glyph unicode="&#xc7;" glyph-name="Ccedilla" horiz-adv-x="696" d="M385 -1L408 -2L388 -53Q442 -53 460 -66T478 -105Q478 -138 438 -165T339 -193L341 -171Q388 -171 410 -160T433 -118Q433 -87 348 -87L385 -1ZM395 641Q453 641 505 623T574 586Q586 594
592 603T600 619T605 648H637L634 441H614Q601 522 545 567T387 613Q289 613 239 532T187 313Q187 8 401 8Q450 8 487 21T550 62T592 116T626 184L649 166Q571 -22 399 -23Q247 -23 151 63T55 306Q55 381 78 441T137 537T219 598T309 632T395 641ZM395 641Q453
641 505 623T574 586Q586 594 592 603T600 619T605 648H637L634 441H614Q601 522 545 567T387 613Q289 613 239 532T187 313Q187 8 401 8Q450 8 487 21T550 62T592 116T626 184L649 166Q571 -22 399 -23Q247 -23 151 63T55 306Q55 381 78 441T137 537T219 598T309
632T395 641Z" />
<glyph unicode="&#xc8;" glyph-name="Egrave" horiz-adv-x="583" d="M193 782L222 816L379 672L356 657L193 782ZM513 0H49V16Q49 15 77 15Q126 15 131 39Q140 93 140 425Q140 571 136 585Q134 596 98 604L62 611V629Q168 626 298 626T511 629L514 484H495Q490
509 480 532T446 579T391 603H234V331H382Q428 331 432 410H456V230H436Q431 308 379 308H234V69Q234 21 269 20H420Q446 21 470 64T500 152H522L513 0Z" />
<glyph unicode="&#xc9;" glyph-name="Eacute" horiz-adv-x="583" d="M186 668L355 813L386 765L197 650L186 668ZM513 0H49V16Q49 15 77 15Q126 15 131 39Q140 93 140 425Q140 571 136 585Q134 596 98 604L62 611V629Q168 626 298 626T511 629L514 484H495Q490
509 480 532T446 579T391 603H234V331H382Q428 331 432 410H456V230H436Q431 308 379 308H234V69Q234 21 269 20H420Q446 21 470 64T500 152H522L513 0Z" />
<glyph unicode="&#xca;" glyph-name="Ecircumflex" horiz-adv-x="583" d="M183 656L321 807L444 659L430 647L318 751L197 647L183 656ZM513 0H49V16Q49 15 77 15Q126 15 131 39Q140 93 140 425Q140 571 136 585Q134 596 98 604L62 611V629Q168 626 298 626T511
629L514 484H495Q490 509 480 532T446 579T391 603H234V331H382Q428 331 432 410H456V230H436Q431 308 379 308H234V69Q234 21 269 20H420Q446 21 470 64T500 152H522L513 0Z" />
<glyph unicode="&#xcb;" glyph-name="Edieresis" horiz-adv-x="583" d="M204 703Q204 718 213 728T235 738Q248 738 258 729T268 704T259 679T237 669Q224 669 214 679T204 703ZM357 703Q357 718 366 728T388 738T410 729T419 704T410 679T389 669Q376 669 367
679T357 703ZM513 0H49V16Q49 15 77 15Q126 15 131 39Q140 93 140 425Q140 571 136 585Q134 596 98 604L62 611V629Q168 626 298 626T511 629L514 484H495Q490 509 480 532T446 579T391 603H234V331H382Q428 331 432 410H456V230H436Q431 308 379 308H234V69Q234
21 269 20H420Q446 21 470 64T500 152H522L513 0Z" />
<glyph unicode="&#xcc;" glyph-name="Igrave" horiz-adv-x="376" d="M113 773L142 807L299 663L276 648L113 773ZM245 583Q245 582 245 527T244 390T243 239Q243 103 245 45Q246 16 321 16L322 0Q290 1 243 1Q135 1 59 -3V13Q59 13 63 13Q137 13 141 36Q146 66
146 585Q146 596 110 604L73 611V626Q120 622 194 622Q271 622 314 626V606Q245 601 245 583Z" />
<glyph unicode="&#xcd;" glyph-name="Iacute" horiz-adv-x="376" d="M118 664L287 809L318 761L129 646L118 664ZM245 583Q245 582 245 527T244 390T243 239Q243 103 245 45Q246 16 321 16L322 0Q290 1 243 1Q135 1 59 -3V13Q59 13 63 13Q137 13 141 36Q146 66
146 585Q146 596 110 604L73 611V626Q120 622 194 622Q271 622 314 626V606Q245 601 245 583Z" />
<glyph unicode="&#xce;" glyph-name="Icircumflex" horiz-adv-x="376" d="M64 650L202 801L325 653L311 641L199 745L78 641L64 650ZM245 583Q245 582 245 527T244 390T243 239Q243 103 245 45Q246 16 321 16L322 0Q290 1 243 1Q135 1 59 -3V13Q59 13 63 13Q137
13 141 36Q146 66 146 585Q146 596 110 604L73 611V626Q120 622 194 622Q271 622 314 626V606Q245 601 245 583Z" />
<glyph unicode="&#xcf;" glyph-name="Idieresis" horiz-adv-x="376" d="M94 700Q94 715 103 725T125 735Q138 735 148 726T158 701T149 676T127 666Q114 666 104 676T94 700ZM247 700Q247 715 256 725T278 735T300 726T309 701T300 676T279 666Q266 666 257 676T247
700ZM245 583Q245 582 245 527T244 390T243 239Q243 103 245 45Q246 16 321 16L322 0Q290 1 243 1Q135 1 59 -3V13Q59 13 63 13Q137 13 141 36Q146 66 146 585Q146 596 110 604L73 611V626Q120 622 194 622Q271 622 314 626V606Q245 601 245 583Z" />
<glyph unicode="&#xd0;" glyph-name="Eth" horiz-adv-x="671" />
<glyph unicode="&#xd1;" glyph-name="Ntilde" horiz-adv-x="687" d="M231 669L219 670Q219 698 238 731T287 764Q305 764 322 749T358 718T397 702Q428 702 437 718T447 763H463Q463 749 461 734T451 700T429 667T391 654Q372 654 356 665T329 688T307 710T283
721Q264 721 248 704T231 669ZM667 604Q653 603 636 601T598 591T578 573Q576 540 575 389L578 -11H543L352 250Q162 511 151 522Q150 437 150 383Q150 315 152 253T155 99Q155 81 155 59Q155 18 190 18Q247 18 248 16V-2Q199 1 137 1Q68 1 20 -3V13Q20 13 26 13Q108
13 113 36Q118 334 118 385Q118 462 116 563Q114 574 69 593L24 611V629L209 628Q268 546 403 370L540 194L541 573Q540 587 516 595T459 604Q452 604 444 604L442 627Q484 622 546 622Q603 622 667 626V604Z" />
<glyph unicode="&#xd2;" glyph-name="Ograve" horiz-adv-x="792" d="M334 787L363 821L520 677L497 662L334 787ZM416 8Q510 8 569 93T629 312Q629 470 571 552T408 634Q358 634 319 620T243 573T188 474T168 311Q168 275 174 238T199 158T243 84T315 30T416 8ZM416
651Q452 651 491 643T577 612T659 552T719 454T743 312Q743 235 713 172T633 70T527 9T414 -12Q263 -12 156 74T49 304Q49 386 72 449T133 549T220 610T318 642T416 651Z" />
<glyph unicode="&#xd3;" glyph-name="Oacute" horiz-adv-x="792" d="M313 681L482 826L513 778L324 663L313 681ZM416 8Q510 8 569 93T629 312Q629 470 571 552T408 634Q358 634 319 620T243 573T188 474T168 311Q168 275 174 238T199 158T243 84T315 30T416 8ZM416
651Q452 651 491 643T577 612T659 552T719 454T743 312Q743 235 713 172T633 70T527 9T414 -12Q263 -12 156 74T49 304Q49 386 72 449T133 549T220 610T318 642T416 651Z" />
<glyph unicode="&#xd4;" glyph-name="Ocircumflex" horiz-adv-x="792" d="M275 663L413 814L536 666L522 654L410 758L289 654L275 663ZM416 8Q510 8 569 93T629 312Q629 470 571 552T408 634Q358 634 319 620T243 573T188 474T168 311Q168 275 174 238T199 158T243
84T315 30T416 8ZM416 651Q452 651 491 643T577 612T659 552T719 454T743 312Q743 235 713 172T633 70T527 9T414 -12Q263 -12 156 74T49 304Q49 386 72 449T133 549T220 610T318 642T416 651Z" />
<glyph unicode="&#xd5;" glyph-name="Otilde" horiz-adv-x="792" d="M337 667L325 668Q325 696 344 729T393 762Q411 762 428 747T464 716T503 700Q534 700 543 716T553 761H569Q569 747 567 732T557 698T535 665T497 652Q478 652 462 663T435 686T413 708T389
719Q370 719 354 702T337 667ZM416 8Q510 8 569 93T629 312Q629 470 571 552T408 634Q358 634 319 620T243 573T188 474T168 311Q168 275 174 238T199 158T243 84T315 30T416 8ZM416 651Q452 651 491 643T577 612T659 552T719 454T743 312Q743 235 713 172T633
70T527 9T414 -12Q263 -12 156 74T49 304Q49 386 72 449T133 549T220 610T318 642T416 651Z" />
<glyph unicode="&#xd6;" glyph-name="Odieresis" horiz-adv-x="792" d="M303 699Q303 714 312 724T334 734Q347 734 357 725T367 700T358 675T336 665Q323 665 313 675T303 699ZM456 699Q456 714 465 724T487 734T509 725T518 700T509 675T488 665Q475 665 466
675T456 699ZM416 8Q510 8 569 93T629 312Q629 470 571 552T408 634Q358 634 319 620T243 573T188 474T168 311Q168 275 174 238T199 158T243 84T315 30T416 8ZM416 651Q452 651 491 643T577 612T659 552T719 454T743 312Q743 235 713 172T633 70T527 9T414 -12Q263
-12 156 74T49 304Q49 386 72 449T133 549T220 610T318 642T416 651Z" />
<glyph unicode="&#xd7;" glyph-name="multiply" horiz-adv-x="512" d="M390 63L260 194L131 63L87 106L217 237L87 367L131 410L260 280L390 410L434 367L304 237L434 106L390 63Z" />
<glyph unicode="&#xd8;" glyph-name="Oslash" horiz-adv-x="792" d="M416 8Q510 8 569 93T629 312Q629 470 571 552T408 634Q358 634 319 620T243 573T188 474T168 311Q168 275 174 238T199 158T243 84T315 30T416 8ZM416 651Q452 651 491 643T577 612T659 552T719
454T743 312Q743 235 713 172T633 70T527 9T414 -12Q263 -12 156 74T49 304Q49 386 72 449T133 549T220 610T318 642T416 651Z" />
<glyph unicode="&#xd9;" glyph-name="Ugrave" horiz-adv-x="762" d="M287 776L316 810L473 666L450 651L287 776ZM240 218Q240 164 250 125T277 64T317 30T363 14T412 10Q451 10 479 20T532 53T568 119T581 227Q581 238 581 254T581 299Q581 437 577 585Q575 596
534 604L493 611V626Q540 622 602 622Q668 622 712 626V606Q665 603 624 583Q621 520 621 430L624 239Q624 118 566 52T394 -19Q359 -19 325 -13T255 11T193 54T149 124T131 223Q131 226 132 255T136 340T138 462Q138 523 136 585Q134 596 93 604L52 611V626Q99
622 183 622Q273 622 317 626V606Q258 601 240 583Q239 517 239 423L240 218Z" />
<glyph unicode="&#xda;" glyph-name="Uacute" horiz-adv-x="762" d="M345 668L514 813L545 765L356 650L345 668ZM240 218Q240 164 250 125T277 64T317 30T363 14T412 10Q451 10 479 20T532 53T568 119T581 227Q581 238 581 254T581 299Q581 437 577 585Q575 596
534 604L493 611V626Q540 622 602 622Q668 622 712 626V606Q665 603 624 583Q621 520 621 430L624 239Q624 118 566 52T394 -19Q359 -19 325 -13T255 11T193 54T149 124T131 223Q131 226 132 255T136 340T138 462Q138 523 136 585Q134 596 93 604L52 611V626Q99
622 183 622Q273 622 317 626V606Q258 601 240 583Q239 517 239 423L240 218Z" />
<glyph unicode="&#xdb;" glyph-name="Ucircumflex" horiz-adv-x="762" d="M275 664L413 815L536 667L522 655L410 759L289 655L275 664ZM240 218Q240 164 250 125T277 64T317 30T363 14T412 10Q451 10 479 20T532 53T568 119T581 227Q581 238 581 254T581 299Q581
437 577 585Q575 596 534 604L493 611V626Q540 622 602 622Q668 622 712 626V606Q665 603 624 583Q621 520 621 430L624 239Q624 118 566 52T394 -19Q359 -19 325 -13T255 11T193 54T149 124T131 223Q131 226 132 255T136 340T138 462Q138 523 136 585Q134 596
93 604L52 611V626Q99 622 183 622Q273 622 317 626V606Q258 601 240 583Q239 517 239 423L240 218Z" />
<glyph unicode="&#xdc;" glyph-name="Udieresis" horiz-adv-x="762" d="M303 699Q303 714 312 724T334 734Q347 734 357 725T367 700T358 675T336 665Q323 665 313 675T303 699ZM456 699Q456 714 465 724T487 734T509 725T518 700T509 675T488 665Q475 665 466
675T456 699ZM240 218Q240 164 250 125T277 64T317 30T363 14T412 10Q451 10 479 20T532 53T568 119T581 227Q581 238 581 254T581 299Q581 437 577 585Q575 596 534 604L493 611V626Q540 622 602 622Q668 622 712 626V606Q665 603 624 583Q621 520 621 430L624
239Q624 118 566 52T394 -19Q359 -19 325 -13T255 11T193 54T149 124T131 223Q131 226 132 255T136 340T138 462Q138 523 136 585Q134 596 93 604L52 611V626Q99 622 183 622Q273 622 317 626V606Q258 601 240 583Q239 517 239 423L240 218Z" />
<glyph unicode="&#xdd;" glyph-name="Yacute" horiz-adv-x="645" d="M284 678L453 823L484 775L295 660L284 678ZM286 247Q218 406 115 549Q92 581 70 592Q45 604 13 611V626Q60 622 152 622Q250 622 294 626V606Q238 601 230 589Q225 579 223 565L221 553Q289
421 360 301Q505 560 506 574Q506 588 483 595L423 611V626Q470 622 528 622Q587 622 632 626V606Q591 604 565 589Q556 583 541 567L526 551Q408 347 381 289Q381 251 385 35Q385 10 467 10V-9H195V7Q198 7 206 7Q280 7 281 30Q283 147 286 247Z" />
<glyph unicode="&#xe0;" glyph-name="agrave" horiz-adv-x="435" d="M119 587L148 621L305 477L282 462L119 587ZM453 83L468 74Q455 -7 372 -7Q338 -7 321 15T301 69Q281 46 271 36T231 9T173 -9Q123 -9 87 19T51 108Q51 135 62 155T94 187T136 208T185 219T231
224T272 225T297 226Q300 226 300 300Q300 395 213 395Q183 395 165 382T143 351Q172 351 172 307Q172 280 154 269T119 257Q100 257 85 274T70 313Q70 350 117 385Q155 414 222 414Q285 414 334 375T383 269Q383 236 381 177T379 92Q379 25 410 26Q428 26 437
39T453 83ZM297 94V212Q262 209 233 206T182 195T149 169T137 119Q137 76 158 56T213 36Q265 36 297 94Z" />
<glyph unicode="&#xe1;" glyph-name="aacute" horiz-adv-x="435" d="M453 83L468 74Q455 -7 372 -7Q338 -7 321 15T301 69Q281 46 271 36T231 9T173 -9Q123 -9 87 19T51 108Q51 135 62 155T94 187T136 208T185 219T231 224T272 225T297 226Q300 226 300 300Q300
395 213 395Q183 395 165 382T143 351Q172 351 172 307Q172 280 154 269T119 257Q100 257 85 274T70 313Q70 350 117 385Q155 414 222 414Q285 414 334 375T383 269Q383 236 381 177T379 92Q379 25 410 26Q428 26 437 39T453 83ZM297 94V212Q262 209 233 206T182
195T149 169T137 119Q137 76 158 56T213 36Q265 36 297 94ZM136 475L305 620L336 572L147 457L136 475Z" />
<glyph unicode="&#xe2;" glyph-name="acircumflex" horiz-adv-x="435" d="M90 453L228 604L351 456L337 444L225 548L104 444L90 453ZM453 83L468 74Q455 -7 372 -7Q338 -7 321 15T301 69Q281 46 271 36T231 9T173 -9Q123 -9 87 19T51 108Q51 135 62 155T94 187T136
208T185 219T231 224T272 225T297 226Q300 226 300 300Q300 395 213 395Q183 395 165 382T143 351Q172 351 172 307Q172 280 154 269T119 257Q100 257 85 274T70 313Q70 350 117 385Q155 414 222 414Q285 414 334 375T383 269Q383 236 381 177T379 92Q379 25 410
26Q428 26 437 39T453 83ZM297 94V212Q262 209 233 206T182 195T149 169T137 119Q137 76 158 56T213 36Q265 36 297 94Z" />
<glyph unicode="&#xe3;" glyph-name="atilde" horiz-adv-x="435" d="M140 461L128 462Q128 490 147 523T196 556Q214 556 231 541T267 510T306 494Q337 494 346 510T356 555H372Q372 541 370 526T360 492T338 459T300 446Q281 446 265 457T238 480T216 502T192
513Q173 513 157 496T140 461ZM453 83L468 74Q455 -7 372 -7Q338 -7 321 15T301 69Q281 46 271 36T231 9T173 -9Q123 -9 87 19T51 108Q51 135 62 155T94 187T136 208T185 219T231 224T272 225T297 226Q300 226 300 300Q300 395 213 395Q183 395 165 382T143 351Q172
351 172 307Q172 280 154 269T119 257Q100 257 85 274T70 313Q70 350 117 385Q155 414 222 414Q285 414 334 375T383 269Q383 236 381 177T379 92Q379 25 410 26Q428 26 437 39T453 83ZM297 94V212Q262 209 233 206T182 195T149 169T137 119Q137 76 158 56T213
36Q265 36 297 94Z" />
<glyph unicode="&#xe4;" glyph-name="adieresis" horiz-adv-x="435" d="M135 524Q135 539 144 549T166 559Q179 559 189 550T199 525T190 500T168 490Q155 490 145 500T135 524ZM288 524Q288 539 297 549T319 559T341 550T350 525T341 500T320 490Q307 490 298
500T288 524ZM453 83L468 74Q455 -7 372 -7Q338 -7 321 15T301 69Q281 46 271 36T231 9T173 -9Q123 -9 87 19T51 108Q51 135 62 155T94 187T136 208T185 219T231 224T272 225T297 226Q300 226 300 300Q300 395 213 395Q183 395 165 382T143 351Q172 351 172 307Q172
280 154 269T119 257Q100 257 85 274T70 313Q70 350 117 385Q155 414 222 414Q285 414 334 375T383 269Q383 236 381 177T379 92Q379 25 410 26Q428 26 437 39T453 83ZM297 94V212Q262 209 233 206T182 195T149 169T137 119Q137 76 158 56T213 36Q265 36 297 94Z"
/>
<glyph unicode="&#xe5;" glyph-name="aring" horiz-adv-x="435" d="M196 657T232 657T292 634T316 575Q316 539 292 514T232 489T172 514T148 574T172 633ZM181 573Q181 545 195 531T232 516Q281 516 281 573Q281 601 268 616T231 632T195 617T181 573ZM453 83L468
74Q455 -7 372 -7Q338 -7 321 15T301 69Q281 46 271 36T231 9T173 -9Q123 -9 87 19T51 108Q51 135 62 155T94 187T136 208T185 219T231 224T272 225T297 226Q300 226 300 300Q300 395 213 395Q183 395 165 382T143 351Q172 351 172 307Q172 280 154 269T119 257Q100
257 85 274T70 313Q70 350 117 385Q155 414 222 414Q285 414 334 375T383 269Q383 236 381 177T379 92Q379 25 410 26Q428 26 437 39T453 83ZM297 94V212Q262 209 233 206T182 195T149 169T137 119Q137 76 158 56T213 36Q265 36 297 94Z" />
<glyph unicode="&#xe6;" glyph-name="ae" horiz-adv-x="696" d="M389 232L566 233Q567 250 567 265Q567 296 562 315Q554 347 530 367T470 388Q397 388 389 232ZM317 73Q302 39 256 11T163 -18Q114 -18 78 14T41 108Q41 132 51 150T76 182T114 204T157 219T203
227T245 231T281 233L302 234Q303 234 303 300Q303 342 277 368T203 395Q173 395 155 382T133 351Q162 351 162 304Q162 286 145 272T109 257Q90 257 75 274T59 313Q59 350 106 385Q144 414 212 414Q252 414 290 398T350 352Q407 406 492 407Q546 407 592 378T652
284Q656 264 656 244Q656 233 655 218L388 217Q388 208 388 202T388 193T388 189Q388 142 398 102T431 35T488 7Q546 7 580 41T628 112L655 92Q640 54 598 19T484 -17Q378 -17 317 73ZM306 84Q306 103 304 139T302 204Q302 212 302 220Q282 218 263 216T227 211T194
204T166 192T145 175T132 152T127 119Q127 73 147 50T203 27Q233 27 264 45T306 84Z" />
<glyph unicode="&#xe7;" glyph-name="ccedilla" horiz-adv-x="434" d="M239 -1L261 -2L242 -53Q296 -53 314 -66T332 -105Q332 -138 292 -165T193 -193L195 -171Q242 -171 264 -160T287 -118Q287 -87 202 -87L239 -1ZM257 415Q314 415 363 382T413 299Q413 260
393 240T353 220Q297 220 297 274Q297 296 310 311T339 327Q357 327 373 313Q353 397 255 397Q207 397 174 338T141 190Q141 123 176 71T264 18Q296 18 319 28T356 58T374 88T386 118L414 98Q399 59 359 22T255 -15Q161 -15 106 42T51 210Q51 264 72 305T126 369T192
403T257 415Z" />
<glyph unicode="&#xe8;" glyph-name="egrave" horiz-adv-x="421" d="M101 587L130 621L287 477L264 462L101 587ZM151 232L331 233Q332 250 332 265Q332 296 327 315Q319 347 295 367T234 388Q197 388 176 346T151 232ZM150 217V195Q150 123 176 65T253 7Q311
7 345 41T392 112L420 92Q405 54 362 19T249 -17Q164 -17 108 36T51 190Q51 249 70 293T122 361T188 396T256 407Q310 407 356 378T417 284Q421 264 421 244Q421 233 420 218L150 217Z" />
<glyph unicode="&#xe9;" glyph-name="eacute" horiz-adv-x="421" d="M151 232L331 233Q332 250 332 265Q332 296 327 315Q319 347 295 367T234 388Q197 388 176 346T151 232ZM150 217V195Q150 123 176 65T253 7Q311 7 345 41T392 112L420 92Q405 54 362 19T249
-17Q164 -17 108 36T51 190Q51 249 70 293T122 361T188 396T256 407Q310 407 356 378T417 284Q421 264 421 244Q421 233 420 218L150 217ZM148 475L317 620L348 572L159 457L148 475Z" />
<glyph unicode="&#xea;" glyph-name="ecircumflex" horiz-adv-x="421" d="M97 453L235 604L358 456L344 444L232 548L111 444L97 453ZM151 232L331 233Q332 250 332 265Q332 296 327 315Q319 347 295 367T234 388Q197 388 176 346T151 232ZM150 217V195Q150 123
176 65T253 7Q311 7 345 41T392 112L420 92Q405 54 362 19T249 -17Q164 -17 108 36T51 190Q51 249 70 293T122 361T188 396T256 407Q310 407 356 378T417 284Q421 264 421 244Q421 233 420 218L150 217Z" />
<glyph unicode="&#xeb;" glyph-name="edieresis" horiz-adv-x="421" d="M134 524Q134 539 143 549T165 559Q178 559 188 550T198 525T189 500T167 490Q154 490 144 500T134 524ZM287 524Q287 539 296 549T318 559T340 550T349 525T340 500T319 490Q306 490 297
500T287 524ZM151 232L331 233Q332 250 332 265Q332 296 327 315Q319 347 295 367T234 388Q197 388 176 346T151 232ZM150 217V195Q150 123 176 65T253 7Q311 7 345 41T392 112L420 92Q405 54 362 19T249 -17Q164 -17 108 36T51 190Q51 249 70 293T122 361T188
396T256 407Q310 407 356 378T417 284Q421 264 421 244Q421 233 420 218L150 217Z" />
<glyph unicode="&#xec;" glyph-name="igrave" horiz-adv-x="262" d="M283 587L312 621L469 477L446 462L283 587ZM185 422Q183 249 183 37Q187 17 253 16V0Q212 3 144 3Q79 3 40 0V16Q100 18 103 37V373Q72 383 40 383V399Q130 404 185 422Z" />
<glyph unicode="&#xed;" glyph-name="iacute" horiz-adv-x="262" d="M185 422Q183 249 183 37Q187 17 253 16V0Q212 3 144 3Q79 3 40 0V16Q100 18 103 37V373Q72 383 40 383V399Q130 404 185 422ZM295 475L464 620L495 572L306 457L295 475Z" />
<glyph unicode="&#xee;" glyph-name="icircumflex" horiz-adv-x="262" d="M256 453L394 604L517 456L503 444L391 548L270 444L256 453ZM185 422Q183 249 183 37Q187 17 253 16V0Q212 3 144 3Q79 3 40 0V16Q100 18 103 37V373Q72 383 40 383V399Q130 404 185 422Z" />
<glyph unicode="&#xef;" glyph-name="idieresis" horiz-adv-x="262" d="M276 524Q276 539 285 549T307 559Q320 559 330 550T340 525T331 500T309 490Q296 490 286 500T276 524ZM429 524Q429 539 438 549T460 559T482 550T491 525T482 500T461 490Q448 490 439
500T429 524ZM185 422Q183 249 183 37Q187 17 253 16V0Q212 3 144 3Q79 3 40 0V16Q100 18 103 37V373Q72 383 40 383V399Q130 404 185 422Z" />
<glyph unicode="&#xf1;" glyph-name="ntilde" horiz-adv-x="524" d="M66 389Q75 388 85 388Q141 388 203 408L211 309Q274 405 346 406Q380 406 406 395T448 368T472 329T485 288T489 248V43Q489 33 513 25T555 16V0Q454 4 430 4Q379 4 340 0V16Q360 17 383 25T406
42Q407 42 407 245Q407 300 388 334T329 368Q297 368 260 337T209 261V38Q209 22 279 16V0Q238 3 170 3Q105 3 66 0V16Q86 16 107 24T129 42Q131 103 131 203Q131 298 129 359Q110 369 66 373V389ZM188 454L176 455Q176 483 195 516T244 549Q262 549 279 534T315
503T354 487Q385 487 394 503T404 548H420Q420 534 418 519T408 485T386 452T348 439Q329 439 313 450T286 473T264 495T240 506Q221 506 205 489T188 454Z" />
<glyph unicode="&#xf2;" glyph-name="ograve" horiz-adv-x="476" d="M264 8Q318 8 348 58T378 202Q378 280 346 338T262 397Q227 397 202 378T166 327T149 262T143 195Q143 112 175 60T264 8ZM253 417Q342 417 404 355T466 213Q466 116 414 50T261 -17Q51 -17
51 212Q51 301 113 359T253 417ZM162 587L191 621L348 477L325 462L162 587Z" />
<glyph unicode="&#xf3;" glyph-name="oacute" horiz-adv-x="476" d="M264 8Q318 8 348 58T378 202Q378 280 346 338T262 397Q227 397 202 378T166 327T149 262T143 195Q143 112 175 60T264 8ZM253 417Q342 417 404 355T466 213Q466 116 414 50T261 -17Q51 -17
51 212Q51 301 113 359T253 417ZM174 475L343 620L374 572L185 457L174 475Z" />
<glyph unicode="&#xf4;" glyph-name="ocircumflex" horiz-adv-x="476" d="M264 8Q318 8 348 58T378 202Q378 280 346 338T262 397Q227 397 202 378T166 327T149 262T143 195Q143 112 175 60T264 8ZM253 417Q342 417 404 355T466 213Q466 116 414 50T261 -17Q51
-17 51 212Q51 301 113 359T253 417ZM144 453L282 604L405 456L391 444L279 548L158 444L144 453Z" />
<glyph unicode="&#xf5;" glyph-name="otilde" horiz-adv-x="476" d="M264 8Q318 8 348 58T378 202Q378 280 346 338T262 397Q227 397 202 378T166 327T149 262T143 195Q143 112 175 60T264 8ZM253 417Q342 417 404 355T466 213Q466 116 414 50T261 -17Q51 -17
51 212Q51 301 113 359T253 417ZM188 452L176 453Q176 481 195 514T244 547Q262 547 279 532T315 501T354 485Q385 485 394 501T404 546H420Q420 532 418 517T408 483T386 450T348 437Q329 437 313 448T286 471T264 493T240 504Q221 504 205 487T188 452Z" />
<glyph unicode="&#xf6;" glyph-name="odieresis" horiz-adv-x="476" d="M264 8Q318 8 348 58T378 202Q378 280 346 338T262 397Q227 397 202 378T166 327T149 262T143 195Q143 112 175 60T264 8ZM253 417Q342 417 404 355T466 213Q466 116 414 50T261 -17Q51 -17
51 212Q51 301 113 359T253 417ZM167 524Q167 539 176 549T198 559Q211 559 221 550T231 525T222 500T200 490Q187 490 177 500T167 524ZM320 524Q320 539 329 549T351 559T373 550T382 525T373 500T352 490Q339 490 330 500T320 524Z" />
<glyph unicode="&#xf7;" glyph-name="divide" horiz-adv-x="512" d="M244 395Q291 395 291 352Q291 302 244 302Q224 302 213 317T201 350Q201 369 215 382T244 395ZM46 250H475V188H46V250ZM244 144Q291 144 291 101Q291 51 244 51Q224 51 213 66T201 99Q201
118 215 131T244 144Z" />
<glyph unicode="&#xf9;" glyph-name="ugrave" horiz-adv-x="509" d="M61 395Q149 395 206 406L204 132Q206 17 258 17Q287 17 314 37T358 82T385 127L395 147V367Q376 379 336 379V395Q430 395 483 406L475 207Q475 185 475 157L476 28Q488 18 537 16V4Q461 0
400 -15L393 94L381 78Q369 62 350 42T302 6T246 -11Q177 -11 149 25T121 130L120 371Q104 379 61 379V395ZM204 587L233 621L390 477L367 462L204 587Z" />
<glyph unicode="&#xfa;" glyph-name="uacute" horiz-adv-x="509" d="M61 395Q149 395 206 406L204 132Q206 17 258 17Q287 17 314 37T358 82T385 127L395 147V367Q376 379 336 379V395Q430 395 483 406L475 207Q475 185 475 157L476 28Q488 18 537 16V4Q461 0
400 -15L393 94L381 78Q369 62 350 42T302 6T246 -11Q177 -11 149 25T121 130L120 371Q104 379 61 379V395ZM217 475L386 620L417 572L228 457L217 475Z" />
<glyph unicode="&#xfb;" glyph-name="ucircumflex" horiz-adv-x="509" d="M61 395Q149 395 206 406L204 132Q206 17 258 17Q287 17 314 37T358 82T385 127L395 147V367Q376 379 336 379V395Q430 395 483 406L475 207Q475 185 475 157L476 28Q488 18 537 16V4Q461
0 400 -15L393 94L381 78Q369 62 350 42T302 6T246 -11Q177 -11 149 25T121 130L120 371Q104 379 61 379V395ZM161 453L299 604L422 456L408 444L296 548L175 444L161 453Z" />
<glyph unicode="&#xfc;" glyph-name="udieresis" horiz-adv-x="509" d="M61 395Q149 395 206 406L204 132Q206 17 258 17Q287 17 314 37T358 82T385 127L395 147V367Q376 379 336 379V395Q430 395 483 406L475 207Q475 185 475 157L476 28Q488 18 537 16V4Q461
0 400 -15L393 94L381 78Q369 62 350 42T302 6T246 -11Q177 -11 149 25T121 130L120 371Q104 379 61 379V395ZM175 524Q175 539 184 549T206 559Q219 559 229 550T239 525T230 500T208 490Q195 490 185 500T175 524ZM328 524Q328 539 337 549T359 559T381 550T390
525T381 500T360 490Q347 490 338 500T328 524Z" />
<glyph unicode="&#xfd;" glyph-name="yacute" horiz-adv-x="548" d="M203 475L372 620L403 572L214 457L203 475ZM260 395L258 381Q234 381 225 376T215 355Q215 346 221 328L322 72L430 322Q437 339 437 351Q437 362 432 369T414 378T392 381T366 382L368 396Q403
392 458 392Q513 392 538 397L536 383Q497 383 488 375Q474 362 456 315L276 -113Q254 -166 219 -197Q180 -230 128 -229Q94 -229 63 -207T31 -152T47 -105T85 -89Q110 -89 130 -101T150 -138Q150 -173 110 -189Q124 -200 152 -201Q168 -201 202 -171Q241 -134
280 -17L127 336Q117 362 92 371Q75 377 35 381V395Q78 392 140 392Q215 392 260 395Z" />
<glyph unicode="&#xff;" glyph-name="ydieresis" horiz-adv-x="524" d="M260 395L258 381Q234 381 225 376T215 355Q215 346 221 328L322 72L430 322Q437 339 437 351Q437 362 432 369T414 378T392 381T366 382L368 396Q403 392 458 392Q513 392 538 397L536 383Q497
383 488 375Q474 362 456 315L276 -113Q254 -166 219 -197Q180 -230 128 -229Q94 -229 63 -207T31 -152T47 -105T85 -89Q110 -89 130 -101T150 -138Q150 -173 110 -189Q124 -200 152 -201Q168 -201 202 -171Q241 -134 280 -17L127 336Q117 362 92 371Q75 377 35
381V395Q78 392 140 392Q215 392 260 395ZM221 524Q221 539 230 549T252 559Q265 559 275 550T285 525T276 500T254 490Q241 490 231 500T221 524ZM374 524Q374 539 383 549T405 559T427 550T436 525T427 500T406 490Q393 490 384 500T374 524Z" />
<glyph unicode="&#x2013;" glyph-name="endash" horiz-adv-x="532" d="M35 246H498V193H35V246Z" />
<glyph unicode="&#x2014;" glyph-name="emdash" horiz-adv-x="1044" d="M34 248H1010V195H34V248Z" />
<glyph unicode="&#x2018;" glyph-name="quoteleft" horiz-adv-x="254" d="M140 575Q170 575 190 552T210 500Q210 466 186 446T136 425T83 448T57 510Q57 569 95 612T173 662L181 646Q158 637 129 611T97 560Q122 575 140 575Z" />
<glyph unicode="&#x2019;" glyph-name="quoteright" horiz-adv-x="254" d="M127 511Q97 511 77 534T57 587Q57 621 81 641T132 662T184 638T210 577Q210 518 172 474T94 425L86 440Q109 449 138 475T170 526Q145 511 127 511Z" />
<glyph unicode="&#x201a;" glyph-name="quotesinglbase" horiz-adv-x="254" d="M127 -13Q97 -13 77 10T57 62Q57 96 81 116T132 137T184 114T210 52Q210 -7 172 -50T94 -99L86 -84Q109 -75 138 -49T170 2Q145 -13 127 -13Z" />
<glyph unicode="&#x201c;" glyph-name="quotedblleft" horiz-adv-x="466" d="M346 575Q376 575 396 552T416 500Q416 466 392 446T341 425T289 448T263 510Q263 569 301 612T379 662L387 646Q364 637 335 611T303 560Q328 575 346 575ZM140 575Q170 575 190 552T210
500Q210 466 186 446T136 425T83 448T57 510Q57 569 95 612T173 662L181 646Q158 637 129 611T97 560Q122 575 140 575Z" />
<glyph unicode="&#x201d;" glyph-name="quotedblright" horiz-adv-x="466" d="M127 511Q97 511 77 534T57 587Q57 621 81 641T132 662T184 638T210 577Q210 518 172 474T94 425L86 440Q109 449 138 475T170 526Q145 511 127 511ZM333 511Q303 511 283 534T263
587Q263 621 287 641T338 662T390 638T416 577Q416 518 378 474T300 425L292 440Q315 449 344 475T376 526Q351 511 333 511Z" />
<glyph unicode="&#x201e;" glyph-name="quotedblbase" horiz-adv-x="466" d="M123 -12Q93 -12 73 11T53 63Q53 97 77 117T128 138T180 115T206 53Q206 -6 168 -49T90 -98L82 -83Q105 -74 134 -48T166 3Q141 -12 123 -12ZM329 -12Q299 -12 279 11T259 63Q259 97
283 117T333 138T386 115T412 53Q412 -6 374 -49T296 -98L288 -83Q311 -74 340 -48T372 3Q347 -12 329 -12Z" />
</font>
</defs>
</svg>
