<?xml version="1.0" standalone="no"?>
<!DOCTYPE svg PUBLIC "-//W3C//DTD SVG 1.1//EN" "http://www.w3.org/Graphics/SVG/1.1/DTD/svg11.dtd">
<svg xmlns="http://www.w3.org/2000/svg">
<defs >
<font id="HomemadeApple" horiz-adv-x="567" ><font-face
    font-family="Homemade Apple"
    units-per-em="1024"
    panose-1="2 0 0 0 0 0 0 0 0 0"
    ascent="1327"
    descent="-866"
    alphabetic="0" />
<glyph unicode=" " glyph-name="space" horiz-adv-x="358" />
<glyph unicode="!" glyph-name="exclam" horiz-adv-x="421" d="M430 881Q432 870 430 858T424 834T419 809T418 783L402 762L409 757Q395 751 391 737T384 708T378 680T358 660Q356 636 346 614T325 570Q321 564 317 558T310 545Q306 534 304 525T296 506Q291
494 284 484T271 462Q269 457 267 451T262 440Q253 422 245 406T234 368Q220 356 213 340T199 308T185 279T166 256Q158 260 154 267T149 283T147 300T144 316Q158 323 162 335T166 360T166 387T173 412Q176 417 179 419T186 425Q198 436 205 454T219 494T230 537T243
573L265 595L258 601Q268 615 274 630T286 661T301 690T325 714Q320 736 323 754T336 790T357 823T382 856Q377 876 390 889Q396 888 402 890T414 893T424 892T430 881ZM135 73L140 68Q134 61 127 53T112 39T94 29T74 28Q61 26 51 35T41 57Q42 70 48 77T61 93L58
97Q58 105 60 108T64 118Q67 134 78 141T103 149T128 140T141 116Q144 111 143 105T138 93Q141 90 149 86L135 73Z" />
<glyph unicode="&quot;" glyph-name="quotedbl" horiz-adv-x="274" d="M345 631Q347 620 341 617T325 611Q323 610 323 610T320 609Q312 586 308 563T298 516T282 471T251 429L235 425Q227 433 225 440T222 454T223 468T224 485H238Q240 491 236 499T235 515Q237
520 238 525T241 536Q246 557 252 577T268 618Q263 633 265 644T281 666Q281 666 284 669L294 666Q292 675 295 678T308 685L321 675Q318 670 320 664T327 652T336 641T345 631ZM205 653Q200 646 192 628T177 588T164 548T160 519L159 517Q155 509 155 498T156
475T152 454T134 438L128 440Q123 441 119 440T109 442Q107 443 105 445T101 448Q99 458 99 464T103 481Q99 480 95 481T87 483Q93 502 99 530T114 586T132 640T154 679Q155 679 160 680T170 681T179 683T184 684Q195 681 197 671T205 653Z" />
<glyph unicode="#" glyph-name="numbersign" horiz-adv-x="677" d="M780 485Q777 483 775 481T770 476Q761 466 754 466T734 469Q735 470 736 473T736 477Q667 475 599 471T461 456Q451 432 435 412T410 367Q467 359 524 361L530 368Q548 364 563 366T592 370T621
373T654 364V340Q631 332 606 330T556 326T508 322T463 310H439Q422 312 418 309T405 291Q404 293 401 297T396 304Q389 302 385 300T373 298Q365 293 360 285T349 268T338 250T322 234Q317 222 308 208T289 179T271 152T260 127Q252 125 249 120T243 108T237 95T226
85Q217 81 207 84T189 95T182 114T190 139L191 140V141Q223 173 244 212T289 290Q274 286 256 284T219 278T186 267T161 243Q159 240 158 239Q135 218 122 194T95 146T62 103T9 74Q-3 97 1 111T14 135T33 156T43 181Q54 201 67 217T90 254H89L77 242L72 254Q69
260 61 256T44 250T28 253T21 284Q45 301 74 306T131 315Q153 347 178 376T220 442Q198 447 180 436Q172 445 160 447T133 451T105 457T81 477H57Q51 494 56 500T72 518L76 517Q93 513 110 513T144 512T178 511T212 503Q216 505 224 506T237 505Q240 507 246 506T255
502Q281 532 297 567T328 637Q336 657 345 675T363 714L365 719H373L375 725Q377 730 378 732T381 739Q395 747 401 740T411 721L414 718Q407 689 398 662T376 608Q374 604 369 592T359 567T349 542T345 527Q343 525 339 516T331 502Q352 499 371 504T412 507Q439
537 460 570T501 639Q511 656 521 673T543 707Q548 715 554 722T565 737L568 742Q575 739 579 741Q589 741 595 739T604 726Q591 688 572 653T534 583Q525 566 517 551T500 519Q512 516 522 517T544 521T566 523T590 518Q597 521 603 522T615 518Q643 525 671 524T727
523H728Q746 523 757 511T780 485ZM354 443Q335 443 317 443T290 422Q290 421 288 419Q272 402 261 384T237 346Q240 346 251 346T274 346T296 347T309 350Q325 351 334 361T350 386T360 416T370 443H354Z" />
<glyph unicode="$" glyph-name="dollar" d="M608 711Q608 698 603 691T589 678T573 669T560 658Q556 653 553 647T547 635Q540 623 532 612T516 589Q500 566 480 535T455 476V474Q453 473 448 466T438 449T428 432T422 422Q425 417 432 415T448 411T463 403T471
384Q483 377 485 365T496 344Q490 320 477 295T446 248T405 213T354 195Q352 199 351 202T347 210Q342 199 337 189T325 169Q325 160 321 151T313 134T306 119T308 105Q319 111 329 117T349 129L369 110Q356 98 344 81T318 51T288 31T250 32Q235 53 237 71T247
105T261 139T261 176Q280 189 287 203T297 231T302 261T314 294Q314 310 324 328T341 362T346 390T319 404Q312 402 304 403T288 406T274 410T264 411Q262 410 262 403T262 394Q256 389 251 383Q251 373 248 363T239 344Q235 314 229 285T210 229Q200 208 190 185T177
138L183 141L196 124Q185 113 177 101T159 81T139 74T109 94Q115 126 123 157T146 219Q125 236 121 263T116 314L121 317V335Q138 337 147 335T159 326T164 310T166 286Q171 296 173 307T176 329T180 352T189 374Q191 388 199 397T208 421Q193 432 174 436T137
442Q115 445 93 451T54 475Q50 480 48 483T43 490Q42 492 41 493Q41 506 47 515T62 532T82 545T103 556H104L105 557Q134 566 165 572T223 596Q226 594 229 591T236 586Q247 601 259 604T289 612Q297 632 310 650T335 688T357 726T366 766Q372 775 380 782T400
791Q411 791 415 787T426 779Q426 774 429 768T438 756T449 745T458 736L454 729Q451 724 445 719T432 709T420 700T415 692Q414 687 414 683T412 673L396 687Q387 676 381 664T370 638T358 612T342 589Q342 580 338 573T330 558T322 544T318 527Q315 520 309 511T298
491T292 472T296 455Q311 455 326 455T356 447Q377 473 393 502T427 560Q453 608 483 651T552 732Q557 727 565 719T581 710L590 719L608 711ZM429 342Q422 347 416 353T402 365Q388 335 380 303T358 239Q366 249 379 260T405 285T425 312T429 342ZM241 515Q241
517 241 519T238 523Q235 525 225 524T203 520T180 515T163 513Q155 507 143 507T126 502Q144 493 161 491T199 489H205Q207 487 210 483T217 477Q222 487 226 498T241 515ZM355 223Q354 223 354 223T353 224Q353 223 351 219L355 223Z" />
<glyph unicode="%" glyph-name="percent" horiz-adv-x="904" d="M859 278Q859 264 856 259T847 242Q847 215 838 200T814 173T784 150T752 120Q749 123 746 125T739 131L735 129L733 125L736 116Q725 114 721 114T708 118Q706 114 704 111T699 102Q697 107 695
110T690 118V117Q685 112 678 107T665 110Q659 106 652 107T640 114V113L629 95L622 114Q614 115 610 115T597 116V127L596 125Q582 125 577 131T568 147T563 167T555 185L561 196Q557 203 557 208T559 216T562 222T564 228L562 233Q563 235 563 236T565 239Q590
274 628 307T705 362Q705 373 714 383T735 390Q746 402 759 402T787 399Q786 397 785 395T784 390Q790 388 796 390T808 393T822 391T835 378Q835 367 841 357T853 335T863 310T859 278ZM784 249Q784 262 784 274T783 300Q775 304 772 307T768 321Q732 312 705
285L701 284Q695 282 692 278T685 269T678 260T667 252Q667 240 662 232T649 218T635 206T626 191Q633 189 636 185T645 176Q653 181 663 180T682 173L683 174L686 175Q707 182 725 188T763 207Q760 216 762 223T770 234T779 242T784 249ZM743 133L739 131H742L743
132V133ZM671 663L670 664H671V663ZM353 791Q353 802 346 805T330 809T311 804T297 795Q295 792 293 789T288 782Q281 774 273 768T256 756Q240 744 227 730T214 693Q196 682 187 670T172 642T163 611T153 577Q156 572 158 563T164 545T171 529T181 522Q195 536
210 541T245 546Q249 550 256 553T269 561T278 570T279 583L273 595Q288 597 296 600T309 608T318 623T329 645Q323 666 331 683T348 715T358 745T341 773L352 784Q353 785 353 787T353 791ZM250 50Q252 56 253 59T253 66T251 73T247 83Q249 85 251 88T256 93V94Q252
100 253 106T258 117T265 128T271 138Q270 142 269 146T268 155Q268 167 275 178T290 198T303 216T306 232V237Q307 241 317 256T340 289T364 321T380 341V365H395L392 373Q396 374 400 378Q401 379 407 387T419 404T431 421T439 432Q433 437 428 443L444 449Q458
453 463 461T475 481Q482 494 489 502T508 520Q511 523 514 531T517 545Q523 549 526 550Q531 556 540 562T558 576T575 590T583 604L584 605Q584 608 580 614Q546 609 515 617T455 641Q447 645 440 649T426 656Q425 656 425 656T423 657Q422 661 419 669T414 680Q393
663 386 644T379 598Q353 572 331 546T291 489L283 498Q260 478 229 469T168 462Q160 463 154 464T139 468Q120 472 114 479T103 506Q101 517 100 522T87 534Q84 541 83 550T82 566Q82 583 87 599T100 630T113 657T119 679V699H130Q141 720 154 740T181 780L188
778Q192 777 194 780T200 789T208 799T219 806Q229 827 247 836T284 852T320 863T348 883L360 877L374 885L381 880Q389 888 397 887T414 879T429 865T441 852Q440 851 436 848T430 844Q433 838 436 833T441 821Q444 808 441 794T434 766T427 741T426 725Q429 720
438 719T453 716Q463 708 472 699T493 681L498 685Q510 677 523 674T549 670T577 670T605 671L608 669Q615 664 622 665T636 669T652 672T671 664Q677 659 681 652T687 636Q688 634 688 628Q688 607 676 595T646 570T613 544T589 504L584 486Q582 489 579 492T572
498Q552 480 537 458T507 413T476 369T439 330Q432 310 421 291T400 253L319 94L321 90Q324 84 320 79T312 68L310 65Q302 51 292 53T268 53L250 50Z" />
<glyph unicode="&amp;" glyph-name="ampersand" horiz-adv-x="441" d="M401 268Q406 255 405 247T393 228Q391 227 389 226T386 223L379 211Q377 213 375 215T371 219Q357 211 343 209T315 200Q308 204 302 203T289 199Q279 195 273 195T256 195H248L245 196L240
185L230 190Q221 195 211 184T188 163T160 153T125 183Q132 191 133 197T134 212Q117 224 99 235T73 267Q50 283 39 305T23 353T21 406T26 458Q29 482 38 499T61 530T92 555T128 579L131 581Q136 579 145 576T159 574Q174 577 185 570T210 561Q212 544 221 531T234
500Q241 491 241 477T237 452L241 447Q254 462 260 479T273 513T290 545T321 570Q340 559 343 537T336 497L334 494L331 492V482Q328 477 326 473T320 463Q313 453 308 440T310 415L307 411Q302 403 297 397T286 384Q275 370 267 359T264 330Q244 321 240 305T228
271Q241 266 248 261T260 252T271 250T289 262Q290 260 293 254T299 246Q302 246 308 251T321 259T336 262T351 248Q356 245 358 245T366 251Q375 261 381 263T401 268ZM176 398Q176 400 172 403T163 410T153 418T146 428L142 436Q149 441 156 449T172 460V492Q170
495 167 497T161 503L152 494L145 498Q142 499 137 497T125 490T114 482T106 476Q96 466 92 455T85 431T80 407T75 382Q79 349 101 326T149 284L152 286Q150 288 148 289T144 293Q146 295 154 299T162 308Q162 314 160 319T156 328T152 338T154 351L150 355L151
360Q154 377 165 383T176 398Z" />
<glyph unicode="&apos;" glyph-name="quotesingle" horiz-adv-x="149" d="M209 635Q212 624 206 621T190 615Q186 613 185 613Q177 590 173 567T163 520T147 474T116 433L100 429Q92 437 90 444T87 458T88 472T89 489H103Q105 495 101 502T100 519Q102 524 103
529T106 540Q111 561 117 581T133 621Q127 636 130 647T146 669Q147 670 147 671T149 673L159 670Q155 679 159 682T172 689L186 679Q183 674 185 668T191 656T201 645T209 635Z" />
<glyph unicode="(" glyph-name="parenleft" horiz-adv-x="555" d="M605 905Q608 879 604 865T582 831L574 834Q563 837 554 834T537 824T521 810T507 796Q507 796 505 795Q489 787 477 779T453 760Q439 748 425 738T393 720Q391 706 383 701T364 690Q344 682 331
668T307 637T284 605T255 579Q240 569 231 551T213 517Q200 515 194 504T183 479T172 450T153 425Q147 405 137 387T120 349Q114 334 104 321Q100 315 96 308T91 294Q91 289 94 284T101 273Q95 268 94 265T92 258T92 251T93 240Q95 237 98 231T104 218T111 207T116
202H121Q126 197 130 191T140 178Q156 159 171 144T212 124L217 123Q225 109 239 107T267 109Q268 106 269 103T272 97Q279 100 283 103T291 107T299 107T312 101L310 94L312 92Q322 96 330 96T349 95L350 94L359 100L361 99Q375 92 389 91T417 90T445 87T472 77Q481
83 490 84T508 85T525 83T538 85L545 78L556 89L575 70Q567 55 558 51T541 46T526 45T517 38Q516 37 516 37T515 35Q504 18 494 17T467 26Q460 30 457 31T449 24L438 7Q436 11 434 14T430 23Q425 18 419 18T408 23Q400 23 392 27T377 35T364 40T353 34L344 20L335
34V35L332 34Q318 26 307 37Q298 34 290 35T275 38T260 40T245 33Q234 40 222 43T196 50T172 57T151 73Q140 71 132 78T119 85Q104 92 90 108T63 145T41 185T25 221L29 225Q25 231 26 237Q27 256 24 272T20 307Q20 315 22 322T27 338Q27 348 30 354T38 364T47 372T51
380Q51 384 50 387T47 394L74 421Q75 422 78 429T85 443T91 458T95 468Q103 489 113 508T139 543Q145 563 156 574T178 594T199 615T212 646Q229 652 239 662T257 683T273 706T296 728Q300 738 305 743T317 751T328 758T337 769Q350 772 371 785T414 816T457 850T488
876H489Q497 881 504 882T518 884T531 890T543 906Q545 904 547 903T551 899Q561 905 577 905T605 905Z" />
<glyph unicode=")" glyph-name="parenright" horiz-adv-x="512" d="M490 466Q479 455 477 444T475 418L476 417Q476 395 471 380T458 351T443 323T431 290Q422 282 412 264T394 233H396L410 202L393 185Q388 187 383 189T373 195Q361 176 347 159T315 128Q314
113 303 102T275 90Q275 88 277 81T280 71Q272 69 266 66T251 65Q250 63 246 61T238 55T231 50T227 46L224 26Q222 27 213 29T202 31Q200 29 200 27T197 23Q192 12 183 5T162 -4Q160 -5 157 -5T152 -6Q142 -11 133 -19T116 -33Q108 -29 104 -26Q99 -37 87 -44T62
-50Q48 -58 41 -58T24 -71Q18 -73 11 -73T-2 -73V-84Q-10 -86 -15 -86T-24 -87T-32 -87T-44 -86Q-46 -86 -55 -85T-67 -86Q-69 -88 -70 -89T-73 -93Q-88 -91 -104 -91T-135 -90Q-141 -96 -149 -96T-165 -93L-167 -96Q-179 -90 -188 -89T-210 -85L-213 -90Q-215
-88 -216 -86T-220 -82Q-243 -75 -247 -62T-256 -28Q-251 -28 -243 -28T-225 -27T-207 -27T-193 -31Q-189 -23 -187 -18Q-177 -24 -173 -27T-165 -32T-156 -33T-139 -33V-24Q-120 -28 -96 -32T-52 -29L-59 -22Q-54 -21 -45 -18T-27 -13T-8 -8T7 -6V-5Q11 -1 20
4T34 6Q43 14 55 20T79 31T102 41T118 55L131 76Q134 73 137 71T143 65Q149 69 158 73Q172 89 189 101T217 133Q238 144 249 160T278 190Q278 209 294 215Q292 220 291 225T288 237Q294 237 299 237T311 236L305 239L325 258Q334 267 342 285T364 318Q362 328 363
337T364 355L368 353Q368 356 368 362T370 375T372 388T374 398Q378 394 382 390T391 382Q393 387 393 398T391 415Q397 419 400 421T403 426T404 431T407 442Q406 446 406 453T408 468T410 481T410 487L397 497Q401 507 404 514T408 532Q408 540 406 545T402 556Q400
576 402 598Q403 607 401 615T396 633Q395 635 395 636T394 639L377 654Q380 656 383 658T389 665Q380 683 377 705T370 748Q362 791 353 827T316 899L321 909V911L319 912Q307 922 302 926T294 948Q287 959 276 968T256 986Q262 988 268 991T280 997Q280 1001
280 1005T281 1013Q294 1018 304 1017T325 1004Q336 1005 341 1003T354 992L355 990H370Q371 986 372 983T373 975Q379 968 382 965T388 957T392 948T394 934L391 932Q398 913 404 901T421 872Q424 852 434 834T450 796H460Q455 776 455 761T461 725Q465 707 467
689T475 653Q481 630 484 608T485 562Q489 553 490 541T491 515T491 489T490 466Z" />
<glyph unicode="*" glyph-name="asterisk" horiz-adv-x="395" d="M357 704Q362 695 367 688T372 670L360 668L362 620Q354 622 348 616T336 601Q365 608 394 607T446 595Q444 585 443 577T433 561L423 568L391 532Q385 542 372 540T343 530Q372 510 393 479T420
415Q409 413 402 410T383 408L384 421L337 428Q341 437 336 445T320 461T299 476T279 490Q273 477 269 465T256 438Q244 433 240 422T233 401T224 385T201 382Q204 374 200 368T190 357Q176 365 169 378T169 408Q174 418 178 427T188 447Q191 455 194 463T201 480Q198
479 195 478T188 476Q176 480 166 476T146 466T127 461T109 475Q107 467 99 466T84 464Q80 480 83 495T105 516Q116 520 125 523T146 531Q160 536 173 542T202 555Q190 562 181 571Q178 583 169 589T150 601T136 614T138 637Q130 635 125 641T116 652Q127 664 141
669T171 662Q179 655 187 649T205 636Q218 627 231 618T259 598Q272 632 299 662T357 704Z" />
<glyph unicode="+" glyph-name="plus" horiz-adv-x="370" d="M360 349Q355 340 352 332T340 317L332 327L294 297Q290 307 278 307T252 305T223 298T199 295Q197 292 194 290Q188 264 178 239T147 190L129 183Q120 192 118 200T115 216T115 232T115 251Q117 252
122 252T130 253Q131 259 127 267T125 286L126 287Q117 285 107 283T84 279Q73 285 62 282T41 276T22 275T6 292Q2 285 -5 285T-20 286Q-21 302 -16 316T9 333Q20 335 30 336T52 340Q73 345 95 350T141 359Q145 371 148 382T157 404Q150 421 152 433T168 460Q169
462 169 462T171 465L182 462Q179 472 182 475T196 484L212 473Q209 468 211 462T219 448T231 435T240 425Q243 414 237 410T219 401Q215 399 214 399Q212 391 211 383T207 366Q225 372 245 373T286 373T326 365T360 349Z" />
<glyph unicode="," glyph-name="comma" horiz-adv-x="312" d="M117 71Q119 62 118 57T113 47T106 39T99 28L108 18Q83 -30 54 -75T4 -173Q-17 -176 -34 -189T-68 -218T-100 -251T-136 -278Q-150 -270 -153 -253T-145 -225Q-137 -225 -130 -224T-119 -216Q-125
-208 -123 -199T-115 -181T-102 -163T-92 -146Q-80 -143 -71 -133T-56 -111T-46 -84T-40 -59Q-29 -45 -15 -29T9 4T24 41T21 80Q28 89 39 96T63 106T88 108T108 94Q113 88 114 83T117 71Z" />
<glyph unicode="-" glyph-name="hyphen" horiz-adv-x="339" d="M319 349Q314 340 311 332T299 317L291 327L253 297Q249 307 237 307T211 305T182 298T158 295Q154 288 146 288T131 289Q117 292 107 291T86 288T66 283T43 279Q32 285 21 282T0 276T-19 275T-35
292Q-39 285 -46 285T-61 286Q-62 302 -57 316T-32 333Q-21 335 -11 336T11 340Q44 347 81 356T154 360Q172 369 193 372T237 374T281 366T319 349Z" />
<glyph unicode="." glyph-name="period" horiz-adv-x="276" d="M81 72Q80 57 77 37T66 0T45 -29T11 -39Q-1 -38 -8 -32T-21 -17T-28 2T-31 23V44Q-28 58 -15 75T13 101T40 101T53 57Q60 63 66 69T81 72Z" />
<glyph unicode="/" glyph-name="slash" horiz-adv-x="396" d="M606 939Q590 923 587 907T581 876T573 845T545 817Q548 802 539 791T520 770T501 751T496 730Q458 679 421 627T352 521Q317 499 296 466T255 399T213 332T153 279L158 269Q130 261 118 243T96 204T75
163T38 130Q9 70 -33 9T-138 -96Q-148 -89 -147 -78T-142 -56T-139 -34T-154 -17L-141 -9Q-144 -6 -146 -2T-144 8L-132 17Q-138 22 -137 29T-132 43Q-121 52 -110 55T-88 70Q-93 72 -93 76T-91 85T-87 95T-83 104Q-57 120 -51 147Q-31 150 -23 161T-10 188T0 218T19
244Q28 246 31 239T38 226Q48 235 51 248T57 272T67 293T92 304Q92 321 99 331T116 348T139 363T163 382Q157 390 160 398T170 414T183 432T188 452Q209 471 224 493T253 537T283 579T326 617Q333 641 350 662T384 702T415 741T428 782Q446 803 467 822T509 861T547
902T574 948Q578 947 584 948T595 949T603 947T606 939Z" />
<glyph unicode="0" glyph-name="zero" horiz-adv-x="537" d="M521 490Q515 477 510 467T507 441H500Q494 417 485 395T465 351T443 308T422 263L415 270Q409 262 405 250T395 227T382 206T365 193L358 200Q334 173 303 153T245 108Q229 115 216 111T190 100T165
92T137 100Q128 89 119 93T101 105T84 114T67 100Q58 109 49 118T25 122Q21 129 15 137T4 156T-3 175T-4 193Q-17 205 -16 217T-8 241T7 267T17 292Q34 318 52 341T86 390Q93 401 98 412T110 434Q117 447 127 453T148 464T166 476T173 498Q185 518 205 532T245
561T282 592T301 633Q335 662 377 666T458 647Q471 628 487 611T516 576T531 537T521 490ZM472 555Q458 555 449 563T433 582T419 601T400 611Q382 597 368 580T340 547T308 517T265 498Q274 485 270 477T255 463T234 451T216 434Q204 414 195 402T176 379T154
359T124 335Q122 317 114 302T96 271T77 241T67 207Q84 196 103 187T137 164Q162 165 183 175T224 197T264 220T308 236V249Q320 251 328 257T342 273T353 291T366 309Q370 313 371 314T372 316T374 316T379 321Q403 340 414 369T433 431T449 496T472 555Z" />
<glyph unicode="1" glyph-name="one" horiz-adv-x="372" d="M367 664Q367 653 363 642T354 618T345 594T341 568L323 550L329 544Q314 539 308 526T297 499T286 472T265 455Q259 431 246 411T219 371Q214 365 210 359T202 347Q197 338 193 329T182 310Q175 300
167 291T152 270Q149 265 146 261T139 251Q127 233 117 219T100 182Q85 172 75 158T57 129T40 101T18 81Q10 86 8 94T5 110T5 127T5 144Q20 150 25 161T32 185T37 211T47 234Q51 239 54 241T62 246Q75 255 85 272T105 310T121 350T138 385L164 403L158 411Q170
423 177 437T193 465T212 492T240 512Q238 534 244 552T262 586T287 616T315 645Q313 667 329 677Q334 675 340 676T353 678T363 676T367 664Z" />
<glyph unicode="2" glyph-name="two" horiz-adv-x="617" d="M591 620Q581 616 579 609T577 593T578 577T572 563Q581 558 579 549T579 531Q573 527 569 519T562 502T557 484T553 468Q549 455 543 447T529 432T516 418T509 398Q502 399 496 391V379Q482 378 475
370T463 352T453 332T439 315Q435 313 432 312T425 308Q413 299 406 285T388 259Q390 251 399 252T414 252Q412 248 415 245T420 240L414 233Q422 222 431 218T452 208Q447 191 450 176T452 144Q446 146 442 141T432 132Q444 127 445 115T439 94Q427 124 405 151T357
196Q349 191 340 196T323 206T310 212T304 202Q304 199 304 196T305 188Q291 187 280 179T255 164L249 170Q239 149 223 143T188 135T154 129T128 106Q119 110 110 108T94 103T79 100T65 113Q58 97 51 92T35 88T17 93T-1 99T-19 100T-37 87Q-49 87 -57 91T-70 103T-79
120T-87 138Q-87 149 -87 160T-75 176Q-80 179 -80 184T-81 196Q-69 195 -62 203T-49 219T-36 231T-17 227Q-13 227 -7 227T4 228T9 233T1 246Q20 262 40 267T81 275T123 280T166 290Q177 279 187 282T206 290T224 296T243 284Q255 295 268 294T294 291T319 290T344
309Q353 309 359 315T369 329T378 346T388 360L394 353Q413 361 424 374T442 403T457 433T477 462Q482 477 490 493T506 527T518 560T521 594Q516 593 512 590T502 584T493 581T484 588Q453 576 423 565T363 538Q355 544 344 536T325 524V512Q310 503 294 497T261
486Q259 482 255 481T244 479T233 479T223 480Q218 477 214 472T204 468Q205 489 214 507T236 541T264 571T293 601L305 588Q321 614 351 634T407 671Q412 671 417 671T426 665Q434 668 442 666T459 659T476 649T490 639L496 645Q499 640 504 640T515 639L528 665Q531
659 536 658T547 657L553 665Q570 660 576 646T591 620ZM470 633Q466 635 462 641T452 645Q446 643 446 636T452 626Q457 626 462 626T470 633ZM154 202Q145 200 136 203T122 214Q115 217 112 216T106 212T100 206T90 202Q77 200 62 198T31 191T3 178T-17 157L1
151Q6 168 13 173T28 177T45 171T64 164T81 164T97 182Q99 180 102 177T103 170L110 176Q114 177 121 182T135 193T147 200T154 199V202Z" />
<glyph unicode="3" glyph-name="three" horiz-adv-x="539" d="M496 614Q481 606 482 595T486 571T488 550T469 539Q470 528 465 520T453 506T437 495T421 484L414 492L400 478Q407 475 411 468T418 455T427 445T441 443Q441 433 446 426T459 411T471 396T475 376Q474
365 475 352T476 326T474 301T462 281Q461 260 454 241T434 205Q431 200 428 196T421 188Q411 179 400 172T378 159T356 144T339 124Q316 122 291 124T244 117Q242 115 239 112T237 103Q224 111 206 111T175 103Q168 96 169 89Q119 106 73 125T-15 178Q-20 187
-26 199T-34 223T-34 245T-15 260Q-5 263 1 259T12 247T24 233T39 225Q44 232 49 232T61 230T73 225T87 225Q88 219 87 211T94 199Q112 201 133 197T175 188T216 185T251 199Q258 200 266 199T282 198T298 198T312 205Q320 217 333 224T360 239T383 257T393 287Q403
292 408 299T416 314T421 331T428 348Q415 351 406 357T388 370T369 382T346 389Q331 406 315 409T281 411T246 405T210 402Q204 410 199 410T188 406T176 401T162 402Q163 412 158 420T148 436T139 452T141 471Q150 487 165 490T197 493T232 492T264 499Q277 494
290 496T316 503T341 513T367 518Q368 531 376 536T393 544T409 553T414 573Q391 582 370 581T328 575T287 562T244 553Q233 543 218 545T189 546L182 539Q177 547 168 554T151 568T143 585T155 607L149 614Q158 620 169 620T191 621T213 622T230 635Q234 629 240
629T251 628Q254 639 263 640T282 642T303 642T318 655L326 648Q329 650 332 653T333 662Q347 660 362 661T392 663T421 665T449 662Q452 668 458 669T469 669Q482 656 493 642T503 607L496 614Z" />
<glyph unicode="4" glyph-name="four" horiz-adv-x="620" d="M624 327Q627 319 625 316T617 310T607 306T600 297Q588 308 581 307T568 300T553 292T532 295Q514 290 498 293T466 300T434 307T401 301Q405 288 399 280T385 266T373 254T377 236Q362 218 350 198T323
158Q317 128 302 100T258 57Q254 64 248 69T237 81T229 94T229 111Q246 124 253 141T265 177T275 214T293 247Q292 259 294 270T296 292T291 311T270 325Q261 318 253 321T236 330T219 337T199 331Q181 345 168 341T143 327T117 306T85 295Q78 290 73 284T63 270T52
255T38 242Q36 246 34 246T28 246T22 244T15 242Q4 253 -2 269T-4 301Q1 321 18 339T56 376T97 412T127 450Q140 474 155 494T194 531Q201 537 208 541T222 550Q225 552 229 556Q242 551 244 544T245 527T239 509T234 490Q221 489 215 480T205 459T195 435T180
414Q191 406 204 405T231 405T260 407T288 401Q294 398 298 392T305 380T312 373T323 378V384Q327 376 334 377T347 378Q364 390 375 407T395 443Q391 451 403 477T433 534T468 591T490 626Q501 643 513 658T539 688Q539 693 539 698T545 706Q548 703 550 701T557
700L562 724Q566 719 572 718T584 715T595 710T604 700Q600 689 596 682T587 667T580 651T575 629Q573 619 567 611T554 593T544 576T545 557Q537 552 527 546T521 527L528 522Q522 521 516 514T502 498T489 480T477 467Q477 455 470 445T456 426T446 406T448 384Q441
381 442 374T443 360Q449 357 455 352T468 342T481 337T496 342Q511 341 521 336T542 327T562 323T588 333L624 327ZM418 499Q418 509 418 503T417 494L418 497V499Z" />
<glyph unicode="5" glyph-name="five" horiz-adv-x="606" d="M639 680Q643 668 640 660T632 644T621 628T614 610Q593 608 576 598T541 575T507 553T468 541L455 527L449 535Q439 529 428 525T405 516T383 505T367 489Q383 481 399 471T429 448T452 419T462 382Q454
356 455 335T455 287Q452 284 447 281T437 275T433 266T443 255Q440 243 432 233T415 213T402 192T399 167Q390 166 387 161T384 148T383 134T379 122Q372 112 361 107T338 98T315 88T297 72Q294 75 289 74T279 69T268 63T259 59Q250 65 242 64T225 60T210 59T196
72Q191 64 183 61T166 58T148 60T132 66Q97 80 64 97T-7 122Q-7 137 -16 144T-36 158T-58 172T-70 193L-96 217Q-95 227 -96 237T-97 257T-95 276T-84 294Q-81 303 -73 307T-56 312T-37 312T-20 306Q-22 300 -17 296T-7 287L25 294Q50 275 77 260T131 230T186 200T240
167Q250 173 259 169T276 158T294 145T316 141Q326 159 334 179T361 211Q364 231 372 253T386 298T392 343T381 385Q377 391 372 397T361 408Q353 413 344 413T325 412T306 405T290 395L284 401Q267 390 251 377T214 356L202 370Q200 368 197 365T189 364L182 370Q190
374 190 379T186 389T182 398T189 408L182 414Q205 431 216 452T220 503Q226 500 230 501T236 506T241 513T246 521L259 509Q257 525 262 535T278 559Q281 571 287 576T300 584T317 587T335 591Q342 587 342 582T338 572T334 562T341 553Q348 555 355 558T367 566L373
559Q394 567 413 578T455 591L462 585Q463 601 472 608T492 620T516 629T538 642Q546 651 557 656T580 667T600 679T614 699Q626 705 629 696T639 680ZM196 147Q191 138 183 144T170 154Q158 141 149 145T132 156T115 168T94 161Q83 170 72 179T49 199Q45 202 40
204T30 210Q13 220 -6 232T-46 243L5 185Q11 183 17 178T30 169T43 164T55 167Q62 159 67 156T79 153T91 154T107 154Q115 149 117 141T126 129Q133 124 144 123T167 121T190 124T208 129L196 147Z" />
<glyph unicode="6" glyph-name="six" horiz-adv-x="532" d="M444 278Q445 273 443 271T439 265Q437 257 434 246T431 226L430 227Q428 216 427 207T419 187Q416 183 412 180T403 174T395 168T392 160Q388 156 378 150T365 141Q364 140 364 139T364 137Q363 136
359 133T350 127T341 122T335 118Q328 114 322 109T309 98L307 100Q299 94 291 90T272 81Q264 78 254 78T233 77V76Q225 74 216 74T198 75Q184 75 172 73T145 70Q140 69 136 71T127 73Q122 65 115 72T105 84Q100 87 96 89T87 93Q80 97 70 103T51 116T33 131T20
146Q17 152 15 166T11 194T8 219T5 232Q5 239 8 244Q8 246 7 248T5 252Q5 256 6 259T9 267Q11 275 12 283T16 300Q18 305 19 308T23 316Q25 325 29 332T37 348Q41 356 43 366T50 385Q53 390 59 393Q62 399 64 405T72 417Q74 420 77 422T82 428Q85 433 85 439T90
451Q95 459 102 464T115 477Q117 480 119 484T123 492Q125 497 129 499T137 505Q140 509 142 514T148 523Q151 525 155 526T161 529L159 532Q167 542 176 550T191 569Q194 574 195 579T201 588Q205 592 209 593T218 597Q224 602 229 609T239 623Q244 629 250 634T262
645Q265 648 266 651T269 658T274 665T287 670H289Q305 675 318 682Q326 686 336 689T353 684Q354 684 359 684T369 685T378 683T384 675Q386 664 376 661T358 652Q352 646 347 640T335 628Q329 623 321 618T308 604Q303 596 297 591T286 578Q280 570 275 562T262
546H263Q258 536 255 532T250 526T245 522T238 514Q236 512 237 510T237 506Q232 501 226 496T215 486Q212 481 209 477T200 468Q196 464 194 457Q191 453 188 450T181 443Q178 439 175 432T168 418T162 406T154 398Q155 397 154 396T155 391Q150 385 143 380T128
365Q125 360 120 350T112 338Q110 336 108 336Q104 330 100 322T91 304T84 287T82 271Q80 264 75 259Q72 251 72 242L74 240L70 238Q70 229 72 221T73 205Q76 191 85 180T109 167Q112 165 116 163T123 159Q125 157 126 155T130 151Q149 154 164 143Q169 142 179
142T193 141Q206 141 218 144T243 148Q248 149 252 148T261 148Q264 149 267 153T274 160T282 166T293 165L290 170Q298 175 307 171Q312 173 314 177T321 184Q329 190 336 193T351 203Q355 206 359 209T367 217Q370 222 371 223Q371 228 371 232T372 242Q373 246
374 249T377 256Q378 257 376 257T374 260L378 262Q378 274 373 275T366 282Q364 283 363 283T359 282Q354 287 352 288T342 289Q335 288 326 286T310 282Q305 280 301 273T283 264Q263 250 246 232T218 191Q216 187 214 183T211 175Q210 172 209 167T203 160Q199
151 193 152T186 164Q181 164 178 173T177 185V186Q173 190 173 193T174 201L173 203H175Q175 205 172 208L174 212Q175 216 175 221T177 231Q179 237 179 238Q179 243 179 246T181 254Q183 258 187 256T196 255V258Q196 267 199 276T210 290L209 291Q226 299 242
310Q248 315 256 321T273 334T291 343T310 346L309 349Q313 350 317 349Q334 356 354 359T391 355Q393 355 392 354T393 351Q393 351 395 351Q403 346 407 340T413 327T417 315T422 306Q424 301 426 295T433 285Q436 283 439 283T444 278Z" />
<glyph unicode="7" glyph-name="seven" horiz-adv-x="443" d="M479 641Q478 615 471 591T447 546Q440 537 436 531T427 518T419 504T410 486Q399 467 389 449T362 415Q350 412 343 404T331 385T320 367T304 356L302 354Q291 326 276 301T238 257Q231 252 229 245T226
230T224 215T218 205Q214 202 210 202T201 205H199L186 193Q195 189 196 188T197 177Q196 175 196 171Q170 169 157 149T134 108Q132 102 130 97T125 87Q118 90 112 91T101 95T94 101T91 117L87 121Q104 132 107 145T110 171T114 197T137 218V220Q137 236 145 245T164
264Q174 273 187 291T214 331T239 372T256 404Q259 410 265 414T279 424T293 436T302 451V454Q302 465 311 479T328 502Q333 508 342 508T355 517Q357 519 357 523T355 531L354 532Q354 534 354 535T353 537Q352 541 355 546T360 556T362 567T353 580V581H352Q342
582 334 579T318 571T304 563T292 561Q283 565 281 574Q273 572 266 570T253 562Q244 574 232 574T207 571T180 566T156 573Q147 571 145 577T141 592T135 609T117 620Q115 624 117 627T122 634T129 640T135 646Q141 644 151 646T164 641H170Q177 658 185 663T203
666T221 657T241 646T260 641T280 652Q289 648 297 649T315 652T333 657T351 659Q370 657 390 657T425 672Q436 671 443 668T455 661T465 651T479 641Z" />
<glyph unicode="8" glyph-name="eight" horiz-adv-x="488" d="M565 600Q566 592 563 591T554 589T544 588T537 583V548Q519 536 504 521T474 491T444 461T410 438Q402 419 386 404T352 375T314 348T280 320T256 286T249 243Q237 235 234 224T229 200T224 178T208
162Q215 151 215 142T212 123T200 106T187 88Q185 85 183 82T179 76Q170 62 158 60T134 58T109 57T87 41Q84 50 77 46T63 41Q54 48 44 52T25 61T6 71T-11 87Q-22 92 -30 96T-46 111Q-39 129 -40 149T-41 189T-35 226T-5 254Q21 254 47 268T98 300T148 338T197 370Q192
388 189 410T190 451Q188 458 189 466T191 483T188 497T173 508Q166 520 167 532T171 558T173 582T163 605L168 600Q173 604 172 609T169 619T167 630T173 640Q173 652 178 660T190 675T207 687T225 698Q238 694 250 699T273 709T295 716T317 710Q331 712 337 705T346
686Q351 691 354 698T364 710L375 692Q378 699 385 698T398 698Q401 690 406 688T418 686T432 686T444 681Q454 672 458 663T466 644T473 625T484 606Q494 609 499 617T507 636T512 656T518 674T531 684T554 681Q574 673 574 666T570 650T560 632T565 611Q560 612
554 606Q552 602 555 599T560 594L565 600ZM416 600L410 606Q400 614 384 619T349 627T313 630T283 629Q260 626 237 610T208 571Q220 569 225 561T234 543T239 521T249 502Q247 497 249 492T253 483T255 475T249 468Q252 462 253 454T256 439T263 426T278 422Q314
454 350 485T421 548Q422 553 422 558T416 565Q424 571 424 576T424 587T422 598T426 610L416 600ZM168 254Q143 241 121 224T70 203Q52 180 24 185Q19 183 13 179T2 169T-5 158T-3 146Q0 143 1 142T6 139Q17 131 26 126T43 119T62 117T87 122Q89 120 91 118T93
111Q105 112 114 117T130 130T145 146T162 162Q162 174 167 186T176 209T180 232T168 254Z" />
<glyph unicode="9" glyph-name="nine" horiz-adv-x="472" d="M451 616Q460 613 467 605T470 585Q467 577 462 578T452 581T441 585T431 579Q430 571 435 566T438 553Q434 555 431 552T425 547Q425 542 425 536T431 527Q425 520 424 510T422 490T416 471T399 458Q392
438 388 418T381 376Q367 384 353 381T330 364Q343 358 343 350T340 335T337 320T349 306Q352 289 343 277T323 253T307 228T311 199Q289 193 283 178T276 146T270 111T248 84Q251 68 245 53T222 34Q221 44 214 53T200 71T187 92T184 116Q200 127 201 141T203 170T205
196T228 217Q229 230 234 243T244 268T254 292T260 318Q262 322 266 325T275 333T281 341T280 350Q276 356 271 356T260 356Q247 344 230 338T193 326T156 315T121 300Q104 306 88 308T57 325Q68 336 62 340T45 344Q50 376 26 395Q40 412 52 431T83 465Q75 468
76 475T77 489Q82 492 87 494T97 500T103 508T102 521Q114 521 121 528T133 543T146 559T165 566Q188 591 213 613T254 668Q252 660 257 656T267 648Q273 662 281 663T297 664T312 664T324 680Q343 694 365 708T413 724L438 699L451 712Q454 704 462 705T476 706Q476
696 479 688T484 671T487 654T482 636L451 616ZM407 623Q403 629 401 634T396 644T389 649T375 648Q371 650 370 649T368 645T366 640T361 636Q353 633 348 638T337 648L330 636Q324 633 320 626T310 612T298 602T280 604Q280 601 280 595T280 583T276 573T267
572Q267 567 266 562T260 553Q239 557 222 548T189 522T161 489T134 458Q117 454 115 445T114 425T113 406T95 395L102 388L95 382Q103 372 114 366T140 364Q148 378 160 377T183 372T204 371T216 395Q223 393 230 394T242 388Q266 425 293 456T355 515Q357 545
371 573T407 623Z" />
<glyph unicode=":" glyph-name="colon" horiz-adv-x="334" d="M197 314Q194 308 194 302T192 290T187 279T175 268Q169 260 165 258T158 253T156 246T160 230H135L136 231L116 241L117 242Q111 245 108 247T99 254Q91 274 99 294T123 327Q143 341 162 338T201
324L197 314ZM81 71Q73 54 65 38T40 11Q36 9 33 8T25 5Q22 3 19 -1T12 -9T0 -15T-18 -12Q-33 9 -31 26T-18 58T4 88T23 121Q47 126 62 120T91 94L81 71Z" />
<glyph unicode=";" glyph-name="semicolon" horiz-adv-x="328" d="M180 314Q177 308 177 302T175 290T170 279T159 268Q153 260 149 258T142 253T139 246T143 230H119L120 231L99 241L100 242Q95 245 91 247T82 254Q75 274 83 295T106 327Q127 341 146 338T184
324L180 314ZM117 71Q119 62 118 57T113 47T106 39T99 28L108 18Q83 -30 54 -75T4 -173Q-17 -176 -34 -189T-68 -218T-100 -251T-136 -278Q-150 -270 -153 -253T-145 -225Q-137 -225 -130 -224T-119 -216Q-125 -208 -123 -199T-115 -181T-102 -163T-92 -146Q-80
-143 -71 -133T-56 -111T-46 -84T-40 -59Q-29 -45 -15 -29T9 4T24 41T21 80Q28 89 39 96T63 106T88 108T108 94Q113 88 114 83T117 71Z" />
<glyph unicode="&lt;" glyph-name="less" horiz-adv-x="413" d="M312 215Q303 210 297 206T279 200L276 211L227 205Q227 214 217 220T191 230T161 237T137 246Q130 242 123 245T110 253Q98 262 88 266T67 272T47 277T23 285Q19 290 20 296T26 309Q22 320 25 329T41
344Q51 348 60 352T80 361Q109 375 141 392T209 414Q223 426 243 434T285 446T329 451T372 447Q371 438 371 431T365 416L354 421L329 387Q321 394 310 391T285 382T260 369T238 361Q237 354 230 352T215 349Q200 347 190 344T172 337T155 327T134 318Q129 319
119 317Q130 314 141 309T163 297Q183 295 205 288T247 270T285 245T312 215Z" />
<glyph unicode="=" glyph-name="equal" horiz-adv-x="399" d="M326 423Q329 412 322 406T309 391Q300 393 276 393T225 390T175 383T143 375H141Q133 375 124 370T105 360T85 354T63 362V370Q61 375 59 378T56 387Q56 389 57 392T58 396Q66 402 71 406T87 409Q85
411 84 415T82 423Q101 426 132 432T197 443T261 450T309 446Q311 444 318 434T326 423ZM319 248Q312 249 305 244T292 232T280 217T270 204Q258 197 251 202T236 215Q234 217 233 217T231 219Q197 216 170 210T117 200T64 196T3 209L-10 223Q-2 235 6 240T24 249T44
254T67 261Q68 259 69 254T73 247Q81 249 89 256T111 263Q119 263 126 264T142 267Q157 269 165 271T181 274T197 275T221 275Q239 288 255 290T291 285Q293 284 294 284T297 283V271Q308 279 314 277T328 266L319 248Z" />
<glyph unicode="&gt;" glyph-name="greater" horiz-adv-x="382" d="M40 432Q48 437 54 441T72 447L76 437L124 442Q124 433 134 428T160 418T190 410T214 401Q221 405 229 402T242 394Q254 385 264 381T285 375T305 370T329 362Q332 357 331 351T326 338Q329 327
327 318T310 304Q300 299 291 296T272 287Q243 273 210 256T142 233Q128 221 109 213T67 200T22 195T-20 200Q-19 209 -20 216T-14 232L-3 226L22 261Q30 254 42 256T66 265T91 278T113 287Q115 294 122 296T137 299Q152 300 161 303T179 311T196 320T217 330Q226
328 232 330Q221 334 210 338T188 350Q168 351 146 358T104 377T67 402T40 432Z" />
<glyph unicode="?" glyph-name="question" horiz-adv-x="466" d="M579 850Q579 802 562 761T516 685T449 626T367 585Q344 577 326 570T291 555T257 537T220 513L218 515Q214 510 211 504T204 493Q189 470 178 447T174 395Q183 387 192 379T208 363T219 344T220
319Q208 315 200 316T183 329Q175 328 165 331T146 341T128 354T116 368Q106 383 104 400T103 436T112 471T127 504V505Q128 505 129 506Q137 513 145 520T162 534Q191 556 223 572T287 603Q312 615 338 628T388 656T435 690T474 732Q481 741 486 754T496 783T502
812T506 838Q503 843 497 843T486 840Q490 833 489 829T486 819Q476 814 467 816T451 822T437 830T425 835Q423 835 422 831T419 824L399 822Q393 831 384 826T371 813L374 809L379 792L361 795Q356 796 351 795T341 796L336 791Q334 793 332 794T328 797Q323 800
312 798T288 792T263 789T243 796Q234 806 236 820T241 846Q249 852 259 855T280 862T298 871T313 885Q329 882 333 886T345 902L352 894L353 895Q361 897 364 894T374 890Q381 891 404 894T453 900T500 905T526 907L534 900L536 902Q555 899 563 890T576 862Q577
859 578 856T579 850ZM225 73L231 68Q225 61 218 53T202 39T184 29T164 28Q152 26 141 35T131 57Q132 70 138 77T152 93L149 97Q149 105 150 108T154 118Q157 134 168 141T193 149T218 140T232 116Q235 111 234 105T228 93Q231 91 234 90T239 86L225 73Z" />
<glyph unicode="@" glyph-name="at" horiz-adv-x="809" d="M778 687Q778 649 777 612T770 536V535Q759 507 752 479T736 421Q732 407 732 394T726 367L725 366Q720 366 718 360T711 351Q711 337 705 326T690 306T671 289T651 271Q652 266 646 252T635 233Q620
224 598 214T558 202Q550 207 543 209T530 220H519L525 229Q514 252 511 283Q507 288 502 294T489 298Q477 280 462 270T436 246Q431 240 434 233T433 219Q427 210 417 208T395 204T375 195T359 172Q348 179 336 178T312 174T289 173T268 190Q255 185 244 192T223
212T205 238T188 258Q184 274 190 285T204 306T215 327T209 353Q219 367 228 383T246 415T265 445T289 470Q284 477 285 483T289 496T296 509T302 522L330 533L325 558Q339 554 344 560T353 575T359 592T374 604Q396 619 417 637T461 673T507 706T556 731Q585 724
600 713T621 688T628 661T628 634T628 611T638 596Q624 573 613 547T603 494Q604 468 599 446T569 408Q567 401 567 393T567 377T563 362T552 352Q559 342 559 332T560 313T560 296T571 282Q588 297 609 318T638 362Q643 375 646 388T655 414Q663 436 672 457T689
500Q690 502 691 509T692 518Q696 544 696 568T707 618V619Q719 645 711 671T692 722Q690 724 686 733T681 745Q679 752 679 758T676 771Q667 778 657 784T638 798Q634 801 632 804T624 809Q620 811 612 812T596 813T579 812T566 810Q561 808 557 807T547 805L539
796Q522 801 510 796T488 783T472 767T462 759Q455 756 452 752T446 743T441 733T432 724Q420 713 408 713T381 707Q379 693 371 688T351 677Q332 668 319 654T295 624T271 592T242 565Q226 554 218 538T200 504Q188 502 182 491T170 466T159 436T140 412Q136 398
133 385T126 359Q124 353 123 347T119 335Q117 326 123 318T125 302Q120 293 117 289T112 280T113 270T122 255Q116 250 114 247T112 240T113 232T114 221Q115 219 118 213T124 201T131 189T136 184H141Q154 173 160 162T172 142T188 126T217 116Q225 104 239 102T268
104Q269 98 273 93Q280 97 284 99T292 103T300 103T313 98L311 91L313 89Q322 93 331 93T350 94L351 93L360 99Q375 92 386 96T409 106T431 118T458 119Q464 128 473 131T490 136T506 139T519 145L528 140L535 154L559 141Q556 125 548 118T533 108T519 103T512
94Q512 92 511 90Q504 70 495 67T477 66T461 69T450 61Q449 56 448 52T445 42Q442 45 439 48T433 55Q430 49 424 47T411 48Q398 44 390 44T376 45T363 39T348 19L338 32V33Q329 30 324 28T310 34Q302 31 294 32T278 34T263 35T248 27Q237 34 227 37T205 42T184
49T164 63Q153 61 146 67T132 74Q116 81 103 96T79 130T60 168T45 203L49 207Q46 213 46 218Q46 236 44 253T41 289Q41 305 47 320Q47 331 48 342T50 365Q50 369 49 372T46 380L73 406Q74 408 75 414T78 429T80 444T83 455Q90 475 100 495T127 530Q133 549 143
560T165 581T186 602T199 633Q216 639 226 648T244 669T261 693T283 715Q287 724 292 729T304 738T315 745T324 756Q337 759 353 769T387 792T419 818T446 840H447Q455 845 462 846T476 849T489 855T500 871L508 863Q519 870 535 870T562 869L563 867Q592 872 619
871T671 852Q674 857 676 853T683 849Q689 841 696 835T712 823Q725 812 737 796T758 762T772 724T778 687ZM559 616L528 626Q519 618 506 613T479 601T456 585T443 563Q422 561 414 548T402 517T390 483T365 455Q360 452 356 452Q342 444 333 433T318 408T306
379T295 351Q268 348 266 338T271 312T284 281T281 252Q289 244 297 244T315 249T332 260T348 269Q369 263 384 271T411 292T434 322T459 348L452 357Q474 362 483 381T498 425T508 472T525 510Q526 530 531 542T542 565T553 586T559 616Z" />
<glyph unicode="A" glyph-name="A" horiz-adv-x="913" d="M1005 257Q1003 230 995 217T977 192T958 167T943 125Q910 112 895 95T870 62T845 39T797 36Q792 42 787 47T774 57Q766 36 754 29T726 20T695 13T664 -7Q626 -2 604 10T568 36T548 67T532 99T513 126T479
146Q469 149 463 147T451 140T442 129T431 117L420 128Q411 104 394 91T354 71T307 63T260 61Q249 37 233 25T198 7T157 -2T114 -11Q105 -9 95 -12T74 -18T53 -24T35 -22Q26 -17 26 -10T21 3H19Q-2 5 -15 16T-37 44T-54 78T-68 111Q-68 133 -70 159T-71 212T-60
262T-30 299L-27 301L-38 310Q-25 321 -23 331T-21 357Q-14 368 -6 376T12 393Q37 419 57 447T77 513Q77 518 77 522T76 531Q90 535 102 544T127 563T152 579T179 582Q177 588 175 593T173 604Q173 621 185 634T208 657Q216 665 226 676T241 693L235 699Q250 700
257 708T270 726T285 742T309 750H312Q320 766 336 778T369 803T404 828T430 860Q445 865 456 873T477 889T500 903T531 910Q536 915 544 923T557 931Q562 931 563 928T567 921Q573 926 583 925T605 918T626 907T642 898Q667 836 648 771Q643 771 637 771T625 770Q625
774 630 779T637 786Q625 792 619 802T608 823T596 842T572 853Q550 856 531 846T496 823T466 800T439 791Q433 779 426 771T412 755T402 737T402 711Q366 677 329 646T259 575L248 586Q248 579 244 574T235 562T229 549T229 532Q221 527 216 521T205 506Q199 497
193 490T176 475L175 474Q176 464 176 455T176 435Q165 418 149 403T118 373T92 339T78 299Q61 293 54 279T43 250T36 221T24 200L33 191Q7 176 -5 154T-9 102L-8 101V100Q21 75 51 73T116 76Q132 78 146 78T175 79H177Q191 93 207 96T242 100Q258 100 273 102T299
117Q303 121 305 125T310 133Q312 135 314 137T318 141Q340 136 359 146T395 172T430 202T466 224Q489 247 496 274T506 331Q507 346 508 359T513 383T524 405T544 427L546 429Q544 437 542 443T540 458Q540 477 547 494T562 528T578 566T585 611Q599 635 616 660T653
708T696 749T746 777Q759 776 772 775T798 771Q792 757 792 739T791 703T782 671T756 651Q758 648 758 640T759 627Q759 597 746 570T717 517T685 463T663 408Q660 395 650 384T629 362T612 339T610 311Q602 298 592 290T573 273T562 252T566 221H567V220Q578 203
584 185T597 150T617 119T653 98Q655 109 662 109T677 110Q682 105 687 101T697 91Q741 91 767 94T811 105T848 128T895 169Q922 192 949 214T1005 257ZM673 542Q668 553 656 553T634 552Q642 544 648 534T661 515Q666 520 671 527T673 542Z" />
<glyph unicode="B" glyph-name="B" horiz-adv-x="812" d="M925 260Q921 236 905 218T868 189H867Q843 175 819 161T768 136Q739 124 714 110T663 79L660 77L670 69Q664 61 651 57T626 47T606 32T603 7Q549 -32 485 -41T355 -41Q327 -37 295 -29T229 -11T165 13T109
40Q104 43 99 47T89 55L32 96L30 95Q12 86 2 72T-14 41T-27 9T-41 -18T-64 -33T-101 -31Q-104 -9 -101 13T-95 58T-90 100T-92 137Q-73 145 -70 158T-66 186T-60 212T-33 230Q-33 252 -26 270T-11 305T3 341T9 382Q41 428 66 478T114 580Q138 634 164 687T223 787T300
871T403 932Q409 934 419 937T442 944T464 949T480 952Q485 952 492 951T505 948Q521 945 537 943T567 935T593 919T612 892V891Q614 883 617 874T624 856Q631 833 638 802T646 746Q646 681 626 619T577 500L578 499Q629 424 662 341T696 166Q725 171 751 184T803
211Q832 226 862 239T925 260ZM458 455Q455 463 449 464T434 465Q430 464 428 464T421 465Q404 466 392 460T371 442T355 418T341 392L345 387Q365 391 383 399T419 417Q428 422 438 426T458 435V455ZM639 170Q632 203 625 239T608 311T581 378T539 435Q532 420
518 406T487 380T452 357T420 339Q404 340 384 335T344 326T307 324T279 345V346Q273 350 267 352T256 361Q253 368 257 377T267 397T276 420T272 445Q278 474 296 485T337 501T385 508T429 520Q448 512 473 512T517 521L536 563Q551 594 562 620T580 673T588 727T585
792V794H584Q570 801 569 813T568 839Q560 852 548 867T522 888Q510 893 494 895T462 897T430 892T402 881L400 879Q392 866 383 860T361 846Q352 841 342 836T323 824T308 808T302 786V749Q302 748 300 742T294 729T287 716T283 707Q269 677 254 648T218 593V592Q206
559 194 526T170 459Q145 385 118 312T47 173Q79 152 112 130T181 94Q197 89 213 84T243 71L244 70Q260 70 278 66T314 58T349 54T381 62Q389 59 395 62T408 67T419 70T430 60Q448 73 467 77T508 85Q519 87 529 89T551 94H552L553 95Q561 106 570 110T590 119Q598
122 606 126T621 135T627 148T621 167L624 168Q629 173 631 173T639 170Z" />
<glyph unicode="C" glyph-name="C" horiz-adv-x="810" d="M943 359Q943 339 922 314T867 261T794 206T714 154T641 112T588 83Q567 72 545 63T503 42Q493 37 485 31T469 18Q452 6 437 3T411 -4T393 -18T387 -54Q361 -54 336 -50T286 -45Q270 -45 256 -49T227 -59T198
-68T167 -73H122Q115 -63 107 -57T91 -47T74 -38T57 -27Q46 -16 34 -1T11 28Q-9 52 -22 82T-44 144T-57 210T-61 274Q-61 281 -56 300T-43 342T-27 384T-15 412Q-15 415 -8 427T11 457T35 494T60 533T81 565T94 586Q100 595 115 616T152 663T197 716T243 764T284
797T313 805Q355 861 419 887T551 914Q574 914 597 916T643 905Q653 887 664 857T685 794T701 729T707 677Q707 653 697 632T671 591T641 552T615 512Q607 496 596 467T569 410T536 360T497 339Q486 339 473 352T460 376Q460 417 473 454T505 525T547 593T589 661T621
730T634 805Q634 819 632 835T615 860H569Q543 860 514 857T465 833Q457 825 450 816T434 798Q432 796 428 792T420 782T411 773T404 768Q400 766 396 764T387 760Q379 756 371 753T355 744Q334 730 318 711T286 672T253 634T213 604Q187 561 156 514T96 416T49
314T30 211Q30 190 34 163T48 109T73 63T113 37Q120 35 127 35T142 36T155 35T167 28H222Q241 28 257 31T288 39T318 51T350 65Q360 68 368 71T385 77Q407 83 428 87T469 101Q493 113 514 128T560 156Q567 159 577 160T599 161T619 163T633 168Q642 177 650 186T669
205Q686 208 701 218T733 231Q738 233 742 235T752 241Q766 249 779 258T805 275Q869 318 934 359H943V359Z" />
<glyph unicode="D" glyph-name="D" horiz-adv-x="807" d="M858 222Q855 208 845 200T823 187T797 178T773 166Q755 172 740 168T711 159T682 154T651 167L648 162Q639 146 622 136T590 118Q579 112 566 102T542 80T523 55T515 29V25Q486 11 462 -10T409 -47H408V-48Q400
-57 392 -59T376 -62T359 -62T341 -66Q333 -54 323 -50T300 -44T275 -42T250 -39Q202 -28 172 -2T112 63Q118 101 102 135T65 199Q48 185 34 173T7 148T-19 123T-47 95L-49 93Q-44 78 -48 70T-62 55T-83 43T-101 28L-106 36Q-120 25 -127 10T-143 -20T-162 -46T-192
-61Q-196 -55 -202 -53T-214 -49T-225 -47T-234 -43Q-235 -41 -235 -38T-235 -33Q-234 -6 -220 18T-190 62Q-177 80 -167 98T-149 137Q-128 152 -110 172T-72 212T-30 246T19 264H23Q26 276 36 285T61 302T89 319T114 340T127 368T121 407L120 408V409Q102 436
96 467T92 530T100 594T112 656Q114 670 116 683T122 710Q124 719 126 727T129 745Q143 752 150 763T163 787T172 813T183 836T199 853T228 860V861Q266 899 312 920T413 935H414Q437 935 459 922T502 899L510 904L516 895L526 901Q544 874 565 847T606 792T639
733T652 668Q652 665 651 658T649 643T647 630T646 624L664 597L665 598Q663 586 663 573T662 545T661 518T655 496H654L652 484Q651 479 651 476T651 470Q651 453 654 439T658 412T657 386T642 357Q650 351 648 345T642 332T636 317T639 298Q631 291 630 282T629
261T632 239T634 217Q662 210 690 210T746 211T802 217T858 222ZM606 466Q594 486 592 503T591 537T592 569T585 603Q591 606 596 609T607 617Q592 633 587 646T578 680Q576 688 574 696T570 713Q569 720 568 726T565 738Q554 769 532 789T483 827Q467 839 452
849T426 877Q425 875 416 869T397 856T377 843T365 836Q354 841 344 840T325 835T309 830T299 830H298L297 831Q285 835 280 831T273 820T268 808T259 803Q259 802 259 801T258 799Q255 778 252 764T244 737T232 712T213 681Q203 664 195 650T180 622T171 591T167
555Q181 531 180 510T173 463V462L181 457Q201 476 216 499T246 545T275 589T308 627Q335 608 340 588T336 547T310 504T274 457T243 407T229 353L230 352Q268 307 314 287T415 253L435 266Q448 267 459 257T480 239Q487 244 499 247T523 252T548 256T570 260L562
271L573 280Q570 282 567 285T563 292Q566 298 570 302T576 310T578 318T574 331Q589 346 589 363T586 398T585 432T609 461L606 466ZM506 128Q497 155 481 163T445 172T404 169T364 171Q357 181 348 183T330 184T313 182T300 184Q295 188 295 192T294 201L292
203Q287 205 282 205T273 205T266 209T262 219Q241 212 226 216T198 232T176 259T157 289L156 290L155 289L146 287V285Q149 261 153 231T165 170T182 111T206 63Q206 63 208 61Q215 63 224 56T245 42T268 33T294 43Q304 33 310 26T333 19H334Q361 30 383 40T425
63T464 90T504 126L506 128Z" />
<glyph unicode="E" glyph-name="E" horiz-adv-x="761" d="M710 223Q711 220 708 214T699 202T688 191T680 185Q675 183 671 180T665 171Q654 139 620 131Q614 130 611 126T605 117T599 108T591 100Q577 93 560 93T530 81Q521 73 517 62T502 44Q492 38 480 40T458
35Q454 33 450 28T444 18Q441 14 436 12T425 9Q413 10 402 5T380 -2L367 -4L366 -6Q350 -9 336 -15T306 -24Q293 -26 281 -28T255 -34Q244 -37 233 -44T210 -52Q199 -53 188 -51T165 -45Q160 -43 155 -45T145 -49T135 -54T123 -54Q114 -51 103 -46Q98 -44 92 -42T81
-40Q77 -40 69 -37T51 -30T35 -20T25 -11Q19 -2 12 4T-1 22Q-2 24 -5 28T-11 32Q-13 32 -14 36T-16 45T-17 55T-18 60Q-20 68 -21 77T-23 95Q-23 107 -23 115T-29 133Q-32 137 -30 142T-25 151Q-20 156 -19 161T-17 171T-15 180T-8 189Q-3 193 -1 199T0 211Q0 222
11 228T28 243Q34 251 37 262T45 283Q48 290 56 295T74 306T91 320T102 341Q103 343 101 347T96 354Q93 356 89 358T82 362Q73 367 69 375T56 390Q48 396 38 400T26 415Q24 422 20 430T16 444Q16 452 15 458T14 472Q12 485 17 496T17 521Q20 536 24 558T37 593Q39
597 43 602T52 609Q62 615 67 626Q72 635 80 641Q88 646 93 658T101 680Q104 692 115 696Q121 698 123 703T128 712T132 721T137 726Q143 728 142 732Q146 735 154 735Q158 735 168 740T183 749L191 755Q200 762 204 772T218 788Q228 794 237 799T254 812Q259 816
264 819T274 825Q289 835 305 839T338 849Q345 851 350 861T370 873Q375 874 379 874T388 874Q392 874 395 877T399 885T402 894T406 900Q407 901 407 901T409 902Q424 905 433 906T457 918Q467 924 477 922T497 930Q506 939 515 936Q523 934 541 937T568 942Q576
940 583 940T599 937Q616 930 628 929Q633 928 638 928T649 927Q655 922 658 921T664 917T669 912T676 902Q677 900 680 897T688 890T694 883T693 880Q691 879 691 874T693 862T695 850T697 842Q698 837 697 830T693 819Q687 807 687 794T681 768Q679 761 674 754T665
740Q660 732 659 723T654 705Q653 702 654 698T653 693Q650 691 648 691T643 688Q641 686 642 674T641 654Q638 647 633 641T624 629T617 616T617 601Q618 597 615 594T607 589T597 586T589 583Q585 581 580 576T569 565T558 552T550 543Q544 535 534 533T515 525Q507
519 497 517Q492 516 487 518T476 523Q468 529 464 536Q461 540 461 548T461 565T464 582T468 595Q470 603 470 616T470 637Q470 642 473 646T480 654T488 664T493 677Q494 682 499 685T509 689Q515 690 521 691T532 698Q540 706 542 716T553 735Q561 743 571 745T590
756Q601 767 611 778T620 807Q620 812 620 817T622 827Q622 828 624 833T627 843T629 853T625 857Q617 865 607 868T591 879Q589 882 584 884Q576 880 576 876T570 866Q565 861 559 863Q554 865 542 861T521 855Q513 853 507 853T495 854T481 854T466 847Q459 841
453 834Q447 826 438 822T422 810Q418 806 413 806T403 805T393 806T383 800Q380 797 373 792T358 783T342 774T330 768Q319 764 312 755T299 744Q293 742 291 740Q288 738 277 738T258 731Q255 729 252 724T247 716Q239 697 225 682T190 660Q182 658 178 653T170
640T164 625T156 611L142 597Q134 589 131 581T122 563Q117 553 112 545T99 528Q95 524 93 519T88 509Q86 504 86 499T87 488Q87 463 92 447T126 426Q137 424 145 416T166 408Q177 408 187 403Q191 402 197 403T206 409Q213 416 221 421T237 432Q244 437 255 436T276
442Q284 448 292 446Q306 446 319 450T342 453Q351 451 353 445T356 430T354 414T349 399Q348 397 350 396T355 395Q356 395 357 394T357 392Q357 390 356 390T354 387Q346 377 341 373T331 367T321 362T307 354Q302 351 298 349T288 344Q282 342 277 343T265 347T254
350T243 350Q240 349 235 345T228 339Q217 332 209 332Q204 332 200 328T193 319Q190 314 186 312T177 309T168 304T161 294Q156 280 146 267T123 246Q115 241 103 235T85 222Q80 214 81 202T76 179Q72 171 63 162Q58 157 58 153T57 143T57 133T51 123Q46 117 51
111T60 98Q63 88 61 76Q60 71 64 64T74 51T88 41T101 39Q106 41 109 37T115 30Q121 19 130 19T151 23Q161 25 171 20T192 14Q196 14 200 14T208 15Q214 15 217 16Q228 16 235 21T249 33Q253 37 258 37T269 38T280 38T290 44Q294 49 298 49T308 47Q314 45 319 47T328
53T337 58T348 60Q361 58 368 69Q374 78 385 78T405 86Q413 92 419 100Q423 105 429 106T441 105Q446 104 453 104T464 109Q472 116 478 123T496 135Q507 140 514 143T529 157Q535 167 548 163Q553 161 557 163T565 169T573 175T582 180Q598 184 605 199Q618 200
624 204T638 209Q641 209 647 212T659 219T670 226T678 230Q683 231 687 231T697 233Q702 235 705 231T710 223Z" />
<glyph unicode="F" glyph-name="F" horiz-adv-x="630" d="M671 938Q664 932 663 922T662 903Q667 898 669 895Q645 863 623 831T580 765Q574 756 568 747T558 727Q559 725 560 724T562 720Q562 715 558 708T550 692T546 675T554 658Q514 611 481 560T416 456L419
453Q434 434 447 431T484 426Q502 425 518 422T543 400Q536 383 526 379T499 370Q491 368 484 366T468 361Q459 359 449 361T427 364T406 365T385 354Q384 353 377 340T360 305T337 259T313 212T293 174T283 154Q285 151 288 148T293 142Q287 122 284 101T279 58Q277
39 277 19T273 -21T263 -59T241 -92Q230 -91 222 -84T208 -66T197 -46T185 -28Q199 -8 200 12T200 53T202 92T223 128Q216 147 211 162T223 194H222Q227 196 236 204T250 218Q235 227 236 232T244 243T259 257T268 280L262 287L265 290Q276 295 278 300T281 317H280V318Q274
333 264 340T243 351T219 358T195 368Q190 363 185 359T178 349Q167 352 157 357T136 366T115 369T92 359L90 357Q80 344 67 346T39 351T9 354T-18 335Q-42 326 -65 328T-112 336T-158 348T-205 356Q-192 371 -185 385T-169 407T-147 416T-109 404L-99 413Q-87
403 -79 406T-64 416T-51 424T-35 415Q-35 414 -35 414T-34 413Q-33 413 -33 413T-31 412Q-25 411 -14 412T4 416Q29 421 40 418T68 393Q72 397 78 403T86 414Q100 412 111 415T133 422T155 423T180 408Q189 425 201 428T227 430T255 422T281 417T302 424T316 458Q347
474 359 495T377 548Q380 565 383 576T392 596T407 611T431 629Q432 630 433 630T435 632Q435 635 435 637T434 643Q433 653 438 663T451 685T464 707T470 730Q470 744 462 754T445 772L442 771Q415 762 388 756T335 737Q297 720 251 711T162 713Q162 719 157 726T146
737L140 734Q128 727 119 727T103 729T87 738T67 746Q72 758 79 763T97 772Q117 759 135 756T170 756T205 767T241 785Q251 791 265 797T294 807T324 813T351 812L355 811Q367 823 386 831T427 848T471 865T510 890L516 882H519Q544 882 555 890T581 918Q585 924
593 934T611 955T631 973T649 980Q653 980 656 975T662 962T667 948T671 938Z" />
<glyph unicode="G" glyph-name="G" horiz-adv-x="758" d="M871 307Q854 277 835 254T792 214T739 187T673 171H670Q661 155 651 145T629 129T602 121T568 119Q550 119 536 115T508 107T479 99T442 99V92Q442 77 431 71T405 59T380 44T368 14Q357 10 340 17T310
26Q304 6 293 0T266 -7T235 -4T202 -2Q188 18 170 25T132 35T93 44T58 65L36 53L35 56Q34 67 31 73T15 82L12 75L15 74Q10 69 6 64T-4 53Q-19 47 -28 42T-46 31T-61 17T-77 -5Q-93 -29 -110 -50T-155 -83Q-162 -86 -165 -92T-171 -104T-174 -116T-180 -124Q-183
-126 -191 -122T-202 -115Q-210 -123 -217 -130T-232 -145Q-250 -133 -254 -120T-253 -85Q-235 -70 -215 -57T-175 -31Q-160 -21 -149 -13T-136 13Q-135 17 -135 22T-132 31Q-126 44 -109 53T-76 73T-51 96T-50 130Q-61 133 -69 140T-89 151Q-86 160 -89 172T-96
196T-102 219T-101 236Q-98 241 -92 242T-80 245L-65 236Q-14 203 17 213T71 281Q78 298 84 310T105 336L107 338Q107 361 116 382T138 423T159 464T169 509Q169 532 158 547T132 578Q124 586 117 599T103 628T95 658T94 686L104 698Q89 717 89 737T96 778T108
817T110 855Q124 868 134 889T154 930T177 968T207 991Q221 995 242 990T277 976Q279 974 282 970T288 963Q304 940 309 914T313 859Q312 833 312 807T313 755Q292 731 285 707T274 658T265 611T244 566Q256 549 273 542T309 535T347 539T382 554H383V555Q413 577
448 595T516 636T572 687T602 758Q610 772 622 783T643 807T656 835T652 871Q658 877 663 887T673 906T684 923T697 934Q703 925 708 923T720 921T732 924T746 924Q741 913 736 904T726 885Q733 880 744 874Q739 870 737 865T735 855T734 844T730 833L739 827Q711
800 699 769T677 699Q672 679 668 663T656 632T639 604T610 578Q609 577 608 575V572Q604 543 595 511T573 444T548 378T523 318Q510 286 498 253T472 186Q487 184 498 183T519 181T541 183T565 190Q578 195 597 197T630 203Q633 215 643 218T666 222T693 220T720
219T742 227T754 252Q772 258 785 266T812 282T839 297T871 307ZM247 869Q243 871 244 874T246 882Q251 898 248 903T227 914Q227 891 220 876T203 849T184 823T169 788L171 786Q185 768 183 751T176 716T174 681T201 646Q215 650 219 659T224 679T226 700T237
715L242 718Q233 738 236 757T245 795T254 831T251 867L247 869ZM540 551Q519 557 503 553T474 537T453 509T442 473Q434 472 429 472T418 481Q416 480 416 479T413 477Q397 466 375 462T329 457T282 462T241 472Q230 450 221 429T200 386Q182 351 166 316T135
243L127 248Q103 224 93 194T72 132Q74 131 76 131T81 130Q98 127 112 125T142 117Q173 108 202 103T264 103H263Q271 103 275 107T283 113T290 115T301 105Q303 108 307 112Q313 117 324 119T345 124T361 133T363 152Q386 181 404 214T437 282Q439 286 444 297T455
321T466 344T474 356Q466 377 474 401T495 451T522 500T539 544L540 551Z" />
<glyph unicode="H" glyph-name="H" horiz-adv-x="799" d="M963 371Q912 348 859 334T751 306Q749 306 741 304T723 300T707 296T699 294Q687 298 676 295T653 286T628 279T599 283Q596 284 588 282T572 275T558 266T551 256L557 250Q558 247 554 239T545 221T535
203T526 193Q527 184 522 172T510 145T498 116T492 88Q492 84 493 80T493 73L492 71Q482 63 478 51T471 25T465 -2T453 -25V-26L452 -27Q439 -33 431 -29T416 -17T404 1T391 20Q387 33 388 42T397 62L399 63Q393 71 395 77T401 90T406 102T400 118L402 120Q415
133 416 149T415 183T412 217T421 248L422 249Q423 255 414 265T400 280Q394 265 385 265T364 267T341 272T321 265L316 261L314 265Q310 274 304 274T289 274Q277 273 267 273T245 272Q239 277 232 276T217 274T202 273T187 282Q180 279 165 259T134 213T103 165T83
132Q79 126 74 117T62 99T51 81T43 66L44 63Q44 53 41 48T34 39T25 33T18 27Q10 27 6 23T-1 14T-8 5T-23 1Q-27 -4 -28 -6T-31 -14Q-33 -21 -34 -24T-37 -28T-41 -31T-45 -36Q-51 -37 -54 -34T-60 -27T-65 -18T-72 -11L-71 -8Q-51 51 -23 104T37 211Q39 215 40
219T43 227Q48 240 53 252T67 275Q74 286 79 296T90 317L88 319Q56 345 33 372T-12 435Q-17 444 -22 453T-32 471L-33 472Q-33 492 -30 512T-12 547L-11 548V549Q-6 559 0 564T12 572T26 577T40 586V587Q63 597 85 604T132 598L134 599Q143 604 156 604T179 605Q185
602 191 598T204 589T218 583T231 584H232V585Q242 595 248 613T260 653T275 694T297 730Q297 733 301 743T309 767T316 794T316 817L325 816Q329 820 330 823L329 826Q325 830 326 836T329 847H328L327 851Q330 852 338 855T356 862T372 869T381 872Q395 864 396
854T395 830Q394 823 394 819T395 808Q395 798 390 784T379 753T364 723T350 700V694Q350 673 344 651T329 606T310 563T289 523Q282 511 274 496T259 464T246 432T238 402V401L213 354Q217 349 225 346T243 339T262 335T279 333Q290 333 297 332T313 321L315 319H317Q325
321 331 321T345 321Q353 319 360 320T376 322L375 315Q380 310 383 308Q388 316 395 324Q399 318 402 315Q405 317 409 323T416 329L417 330L418 329Q436 323 451 325T484 327Q487 334 492 338T502 346T508 356T503 370L502 372Q502 372 505 378T513 391T520 405T525
413Q545 446 560 480T575 554V561Q577 562 579 562Q594 568 595 578T594 601T594 625T615 646L617 647L618 649Q624 664 628 679T639 710Q658 755 667 807Q669 819 676 828T692 847T706 867T713 891Q713 899 711 902V905L713 906Q733 916 744 931T755 969Q755 972
755 980T752 990Q761 996 771 1006L773 1005Q792 991 796 977T799 947T791 916T786 883L785 882Q770 856 761 823T752 759Q741 759 739 754T735 742T731 726T718 712L720 709Q720 707 720 706T721 703Q721 697 718 693T712 684T709 674T713 663Q717 657 718 656H707Q691
625 678 593T654 528Q645 500 635 473T611 420V417Q620 400 613 390T597 373T585 358T599 340Q612 353 623 349T650 341Q653 344 655 346T664 347Q665 346 666 346T668 344Q674 353 679 354T689 353T699 349T709 350Q712 352 713 356T716 365Q731 350 741 350T761
356T780 367T803 366Q814 366 825 368T848 373Q877 378 905 381T962 379L963 371ZM194 563Q185 563 178 562T164 555Q163 556 162 556Q123 567 87 552T25 509L23 501Q22 498 22 495T22 489Q22 470 31 454Q37 442 45 434T64 419T85 405T105 388Q125 388 132 398T143
423T151 453T168 477Q169 477 169 477T170 478Q166 488 170 498T181 518T192 539T194 563Z" />
<glyph unicode="I" glyph-name="I" horiz-adv-x="1107" d="M1199 466Q1194 448 1183 438T1157 420T1127 405T1101 385L1095 392L1093 391Q1079 386 1072 381T1057 362Q1049 348 1043 346T1019 344Q1008 344 1000 341T985 332T972 320T956 309Q948 312 939 312T921
315Q916 310 910 306T898 296Q894 300 890 299T880 296Q876 294 874 294T866 294Q854 291 851 285T847 270T846 253T840 241H839V240Q832 220 816 203T787 167T771 129T787 85V84H788Q805 72 810 53T821 14L822 13Q840 -1 855 -16T885 -48Q907 -74 929 -93T984
-124Q982 -132 982 -140T982 -156Q970 -158 960 -156T939 -150T919 -142T897 -137Q876 -111 852 -92T802 -50Q799 -31 791 -18T771 10Q766 16 762 24T751 38Q745 43 737 53T728 71Q728 80 730 88T732 106Q732 119 726 126T709 139L707 140L706 139Q692 129 686
118T673 91Q667 77 661 66T647 48T626 40T597 45H595Q590 40 585 35T573 25Q565 34 553 31T531 24V23Q525 11 512 10T483 10T449 13T418 7Q410 14 403 14T388 13T372 6T356 1Q345 7 326 14T285 28T246 44T221 60H220Q198 60 184 66T151 86Q138 94 127 100T100 112L98
113Q93 103 88 107T76 117Q81 122 81 128T82 141Q70 152 61 155T43 160T27 167T13 184H12Q-3 188 -7 201T-15 229T-25 255T-52 271Q-60 287 -70 303T-87 336T-92 370T-77 404Q-62 412 -47 404T-18 380T8 347T31 323H32Q58 315 84 302T133 274Q140 269 146 265T158
256Q159 256 160 255L162 256Q177 263 189 262T211 256T230 247T251 244Q262 234 274 234T297 238T320 241T341 233V232Q367 229 384 230T420 251L427 243Q438 250 451 252T477 255T504 260T528 276Q533 271 540 270T553 269Q555 271 556 271T559 274Q563 268 568
268T578 270T589 276T597 282Q603 275 608 275T619 276T631 281T643 282L644 281L682 287Q676 303 676 324T690 358Q690 359 688 364T683 375T678 385T676 391Q678 399 679 408T682 425Q685 443 686 461T689 499Q691 528 691 555T692 612Q693 628 701 646T719 683T737
724T745 769Q751 775 758 780T770 790T778 803T778 821Q804 837 821 854T849 901Q867 899 879 901T906 905Q921 877 939 847T961 786Q953 782 953 773T952 756L951 754Q967 738 979 723Q955 707 949 684T962 638Q960 619 954 601T943 563L906 418Q911 414 908 404T899
381T886 359T876 344L880 339Q900 350 921 361T964 383Q990 395 1016 408T1065 438Q1077 429 1083 433T1094 445T1107 456T1129 451Q1130 452 1130 454Q1141 475 1161 474T1199 466ZM890 751Q883 757 883 768T881 789T873 808T848 816L847 814Q839 799 828 775T805
726T786 677T778 638Q785 621 778 604T762 568T749 529T756 487Q739 465 739 445T744 405T757 364T765 321Q787 326 797 336T812 358T818 385T822 411T832 434T855 450Q849 463 854 487T866 540T878 595T878 642Q886 661 887 676T888 711Q888 719 889 732T890 751ZM679
217Q670 212 659 207T636 199T612 195T591 201Q591 174 582 171T558 172T527 178T499 164Q484 165 468 160T435 153T404 153T378 172L375 167Q365 151 352 149T323 147T294 150T268 142Q254 140 243 146T219 160L214 156H213Q214 158 216 160Q213 161 207 163T196
167Q188 170 181 173T165 176Q154 176 141 184T119 199Q113 204 106 208T90 214L86 209Q92 197 99 190T115 177T132 166T149 152Q154 135 171 128T209 116T253 107T290 91Q299 85 311 83T335 80T357 75T372 62L391 61Q392 62 392 63Q403 78 417 77T445 71T474 66T500
87Q512 83 527 88T556 101T582 113T600 114Q602 118 612 126T626 138Q641 150 648 157T659 172T667 190T679 217Z" />
<glyph unicode="J" glyph-name="J" horiz-adv-x="539" d="M508 214Q498 190 483 185T452 179Q438 180 423 182T393 183Q364 163 350 135T327 74T311 9T287 -52Q276 -72 269 -94T255 -139T237 -182T207 -218Q212 -226 209 -233T201 -245L197 -250L191 -256Q194
-278 182 -296T157 -332Q152 -337 149 -343T141 -357Q119 -350 109 -360L102 -392L95 -381Q87 -400 74 -410T45 -425T12 -433T-22 -443Q-32 -448 -39 -454T-55 -472Q-89 -473 -109 -454T-143 -410Q-136 -385 -133 -359T-125 -308T-113 -258T-91 -210Q-94 -200 -93
-191T-87 -174T-78 -159T-69 -143Q-64 -134 -67 -123Q-51 -99 -37 -77T-8 -32T24 10T65 49L68 65Q90 79 107 98T145 134Q182 165 218 186T302 216Q311 221 311 229T309 247T310 266T326 280Q327 286 330 296T334 316T335 334T324 343Q316 344 310 345T301 354Q272
358 242 366T180 378Q176 391 166 398T142 411T116 422T94 436Q79 450 64 466T37 500T17 538T8 582L-10 609L-3 613Q-8 620 -10 625T-9 639L-3 642Q-6 652 -4 660T2 676T7 691T4 708Q6 725 14 738T31 768Q39 781 44 793T47 821Q72 846 101 880T164 940T234 974T315
957Q328 967 332 960T339 944Q340 940 341 938T348 937Q371 922 380 904T395 866T407 827T429 793Q431 745 432 699T442 606Q433 549 425 494T413 382Q423 370 429 352T435 317L426 301Q428 294 422 292T414 299L413 301Q413 305 408 305Q400 304 396 299T390 287T387
272T383 259Q378 248 381 241T387 223Q407 225 429 221T469 207L489 226Q490 224 492 221T497 215Q498 213 499 213T508 214ZM371 682Q366 709 359 736T350 795L297 899Q280 894 263 896T231 894Q225 888 219 888T207 889T194 887T181 870Q176 860 174 850T164
829Q150 822 142 813T131 793T127 768T126 737Q114 740 111 738T102 726Q99 719 94 713T77 711Q72 700 67 689T60 666Q58 653 62 643T83 622Q76 611 76 605T79 588Q80 581 80 573T71 558Q75 554 87 553Q102 514 130 493T193 457T263 431T331 401Q335 409 339 416T347
430T351 445T346 463Q358 471 362 479T367 498T364 518T360 540Q357 554 362 571Q375 602 375 629T371 682ZM272 142Q259 145 247 141T225 126Q227 124 230 121T238 110Q228 109 217 109T197 104Q189 101 185 96T178 78Q159 77 149 67T132 45T118 23T95 10Q89 -10
77 -25T52 -55T30 -86T20 -126Q18 -128 23 -129Q32 -133 32 -143Q21 -150 13 -155T-3 -166Q-9 -170 -9 -172T-6 -180Q-4 -182 3 -193L-22 -209L-2 -249Q-6 -251 -9 -253T-16 -258Q-18 -260 -25 -262Q-23 -289 -30 -315T-35 -368Q3 -366 33 -343T90 -292Q91 -281
95 -273T111 -259Q117 -232 132 -207T174 -168Q171 -162 173 -156T179 -144Q182 -138 182 -134T177 -123Q181 -115 185 -112T195 -100Q198 -96 198 -93T190 -82Q201 -75 202 -69T206 -51Q208 -43 211 -35T226 -23Q228 -13 229 -2T232 20T240 40T255 55Q256 61 257
64T258 69T256 74T246 81Q268 89 270 98T271 128Q271 131 271 134T272 142Z" />
<glyph unicode="K" glyph-name="K" horiz-adv-x="600" d="M702 947Q687 940 685 930T683 909T683 890T672 879L664 877Q666 851 664 832T657 787Q636 779 628 762T615 726T600 695T569 684L552 685L561 671Q572 654 568 646T552 630T528 613T509 587Q490 587 477
579T455 559T438 533T421 509T399 493T368 493L357 496Q356 491 356 487T355 478Q354 470 359 458T372 430T385 399T391 364Q404 337 412 306T426 242T434 176T443 113Q427 103 423 86T418 50T417 16T407 -7Q400 -12 387 -10T367 -6Q347 0 344 14T343 44T351 78T356
110Q355 119 351 128T344 146T340 164T346 182L348 185L319 369L309 366Q299 363 296 368T289 380T278 394T254 401Q245 386 230 380T202 368T180 352T177 318Q152 310 144 294T131 259T122 223T100 194Q95 172 86 157T67 129T49 102T38 70Q27 61 15 52T-8 33T-26
10T-34 -18Q-34 -23 -34 -26T-29 -33Q-45 -48 -60 -66T-98 -86Q-107 -57 -99 -33T-78 15T-52 61T-41 109Q-42 112 -42 115T-42 122Q-42 130 -37 134T-24 144T-9 156T2 176Q6 194 17 213T41 251T66 290T83 331Q81 333 81 335Q69 353 55 353T23 347Q10 342 2 342T-17
353L-24 362Q-26 360 -31 355T-38 349Q-40 349 -44 352T-55 360T-67 369T-79 374Q-82 384 -89 399T-96 422Q-96 427 -94 431T-88 439Q-74 458 -58 472T-23 498T15 519T57 539Q62 541 68 544T81 549Q88 544 96 543T113 541T131 541T148 541Q161 563 170 586T186
634T199 682T213 730Q234 737 238 751T240 780T233 808T234 827Q236 830 243 832T256 835Q259 843 263 851T273 867Q281 883 288 894T314 911Q316 901 321 890T332 867T342 844T347 823Q347 810 341 804T324 790L316 783Q323 774 327 763T316 744Q315 744 315 744T313
743Q307 724 305 707T300 673T289 643T263 614L270 607Q272 605 272 599T270 587T268 573T267 563Q267 559 263 557T256 553T250 550T252 545L245 526Q257 526 271 527T300 532T327 541T349 557Q358 568 366 575T392 577Q425 587 444 611T479 663T515 717T570 758Q566
775 572 790T588 821T606 853T615 887Q628 887 633 894T640 910T644 928T653 941L664 948Q654 956 652 962T649 974T649 987T646 1004Q649 1005 655 1008T667 1014T678 1019T685 1022Q692 1002 697 985T702 947ZM137 473Q126 473 117 473T103 485Q101 484 99 484T94
483Q81 480 64 475T30 460T0 440T-16 416L-18 408Q8 400 30 400T71 407T109 427T145 459L137 473Z" />
<glyph unicode="L" glyph-name="L" horiz-adv-x="761" d="M810 886Q809 883 808 878T809 869Q809 856 814 843T821 817T820 793T796 773Q794 771 794 770Q786 743 777 724T756 690T727 662T690 632L689 631Q690 626 686 622T675 615T663 609T655 601Q654 599 654
598T652 594Q650 596 648 598T643 602L641 601Q622 588 602 572T564 536T533 496T513 453V452Q503 439 500 423T495 391T487 358T468 329Q468 319 467 312T465 300T466 288T476 274H477Q512 268 532 250T566 206T591 152T617 99L618 97Q617 55 616 13T613 -73Q608
-78 599 -81T589 -87Q593 -97 594 -102Q592 -101 589 -101T584 -99Q580 -104 575 -108T565 -116L563 -109Q560 -97 548 -90T523 -81Q523 -73 523 -65T520 -48Q522 -48 523 -47Q539 -36 540 -19T540 16Q540 21 540 27T538 38Q543 43 548 46T553 57Q553 65 549 72T540
88T534 104T541 122L532 130L540 132L543 135Q543 140 541 148Q526 156 514 166T488 187Q484 191 477 197T461 211T444 222T430 226Q427 223 424 220T418 212Q415 215 412 217T405 223Q406 218 408 210T410 195T405 182T392 178V176Q379 152 358 125T314 80Q302
70 291 59T268 36Q249 36 236 25T209 3L215 -3Q191 -23 163 -40T103 -57Q99 -64 95 -70T86 -82Q74 -82 59 -86Q47 -89 38 -90T16 -88H15Q6 -88 -2 -91T-17 -97T-31 -104T-45 -106Q-47 -103 -54 -99T-69 -90T-84 -77T-94 -60Q-105 -65 -117 -65T-138 -55L-139 -54Q-149
-45 -163 -39T-177 -15Q-177 -11 -176 -8T-176 -1Q-181 -1 -186 -1T-196 -2Q-196 1 -195 3T-195 9Q-196 15 -197 22T-195 35Q-195 35 -197 36Q-204 42 -204 48T-203 62T-198 77T-195 90Q-195 92 -196 94T-197 99Q-192 104 -187 109T-177 120Q-168 131 -159 140T-135
157L-133 158Q-127 168 -124 171T-110 179Q-99 183 -97 186T-89 198Q-87 196 -86 195T-82 191Q-62 222 -34 230T29 239H30Q41 249 51 258T72 278Q75 275 77 272T83 267Q90 281 101 284T124 287T148 290T166 307Q168 306 170 306Q180 304 192 301T216 298T237 303T252
322Q256 317 259 314T267 308Q270 311 273 314T278 322Q283 321 291 317Q293 308 301 306T318 305T334 308T344 311V312Q352 325 362 324T383 315Q397 336 402 362T412 413T429 460T467 495Q459 506 447 509T422 517L421 518Q404 519 389 516T358 512T329 513T300
531Q289 536 276 547T258 570Q258 572 258 574T257 578Q256 591 256 593T246 602Q255 611 259 617T278 621H281Q289 612 294 602T306 582L312 588Q314 586 314 585T316 581Q330 558 349 558T391 561Q394 562 404 563T417 565Q425 569 432 572T448 578Q462 581 476
586T490 609Q490 611 489 612Q489 614 489 618T488 624Q489 633 497 647T515 675T529 703T528 722Q531 724 533 730T538 742T544 754T551 761Q551 774 555 785T565 808Q569 815 571 823T577 839L583 837L587 841Q587 844 587 847T586 853Q599 866 601 882T613 909V910Q624
916 631 920T646 932Q642 946 651 952T667 970Q676 961 682 962T693 967T705 976T721 980Q728 978 731 975T739 967H775Q776 967 777 966Q791 956 793 943T795 916Q795 906 800 901T811 889L810 886ZM765 843Q756 851 753 861T747 880T740 898T727 912Q708 912
691 902T670 871V869Q672 867 674 862T676 855Q677 847 671 842T657 831T645 819T644 804L641 803Q621 793 616 778T610 744T605 708T588 676L587 675Q586 669 587 663T588 650Q598 659 608 658T626 655T641 653T650 667V668Q654 675 660 683T674 695Q682 700 685
703T689 717Q694 721 702 732T716 749Q734 769 749 791T765 843ZM335 228Q323 226 315 227T300 231T287 236T271 239L269 240Q267 230 262 229T249 229T236 233T226 234H225V233Q213 220 197 220T166 220T140 220T125 200Q123 193 117 190Q111 189 106 193T96 199Q94
184 89 180T78 178T65 184T51 191Q48 180 39 176T19 170T-4 170T-24 172V171Q-55 145 -82 116T-132 53Q-128 51 -127 49Q-127 46 -127 41T-127 31L-128 29L-87 -5L-86 -4Q-65 0 -53 -7T-25 -19Q-19 -10 -14 -8T-2 -5T10 -8T25 -10H28Q26 8 38 11T64 15T90 16T103
33Q106 34 109 34T115 37Q122 32 126 35T135 43T144 53T161 59L162 60Q178 80 190 89T225 111Q231 113 240 118T253 127Q259 143 269 155T292 178T315 201T335 228Z" />
<glyph unicode="M" glyph-name="M" horiz-adv-x="1106" d="M1239 305Q1240 293 1233 281T1220 260Q1217 257 1209 252T1191 241T1173 231T1162 222Q1157 214 1151 201T1139 180Q1125 162 1112 152T1084 135T1053 120T1018 100L1010 75Q989 77 981 74T969 63T963
47T952 29Q948 24 939 19T924 13Q916 13 911 14T902 15T896 13T894 2H892Q881 2 872 -3T854 -14T836 -20T816 -15H815Q815 9 807 20T787 41T767 63T755 99Q753 122 760 146T768 193Q768 207 763 217T758 238Q758 248 763 255T774 268T781 282T775 302V303Q775 312
779 325T785 348Q791 373 796 397T806 446Q812 483 818 518T836 589L837 590L830 600H833Q847 604 851 617T857 645T858 673T867 693Q862 698 858 703T848 714Q847 713 847 711Q838 682 820 662T782 622T746 580T725 523Q708 494 695 463T666 401T634 342T592 290Q592
288 592 285T593 280Q593 271 589 265T580 254T569 243T559 231Q559 215 551 202T534 176T516 152T508 128Q508 103 499 91T478 71T452 56T429 34V33Q426 34 422 32T413 33Q408 35 407 43T404 62T402 80T398 90Q402 93 409 110T422 148T434 188T442 213Q446 226
449 239T458 265Q460 270 462 276T466 288Q467 296 467 305T469 323L471 324Q479 324 482 331T487 348T488 368T488 383Q496 431 509 482T522 582V597Q523 613 525 630T527 664T522 698T507 728V729Q475 729 448 710T399 662T359 602T331 546L329 544L323 553L322
552Q305 540 299 527T286 494Q280 474 272 456T243 430L242 429Q242 406 235 395T220 374T204 354T197 318L196 317Q176 302 168 285T152 246Q145 229 139 214T121 185L122 183Q128 180 127 172T126 158Q116 141 106 127T89 98T76 67T71 30V29H69Q52 27 45 17T35
-8T30 -36T25 -58T10 -66T-20 -49L-47 -29Q-36 -5 -27 19T-10 70Q-3 96 5 121T29 169V170Q29 174 31 183T37 204T43 224T49 239Q57 256 63 272T70 308Q79 322 84 338T93 372T104 405T123 434Q123 435 126 447T134 473T141 500T146 516Q157 552 164 584T172 655Q172
663 171 671T171 688Q188 714 200 745T217 806V807Q214 813 208 823T197 836Q186 841 174 837T149 828T124 826T102 846V848Q89 843 80 837T53 836L52 837Q52 848 46 856T35 874Q30 868 23 868T8 870T-7 875T-20 881L-22 882Q-25 895 -33 901T-50 913T-65 924T-72
944Q-72 959 -65 970T-46 987T-22 990T2 977V976Q7 971 17 964T37 950T58 937T76 932Q80 935 83 934T89 929T95 923T101 919Q108 921 110 928L111 927Q120 924 130 929T152 940T176 946T201 934Q203 937 209 939T219 941Q232 941 242 929Q265 900 270 864T275 793V764V763Q267
748 262 733T256 701Q256 698 256 693T258 683T259 673T260 667Q257 649 251 631T239 596Q228 565 220 534T210 469Q230 499 230 538L231 539Q256 559 272 582T303 633Q320 663 340 692T395 734Q406 745 415 756T439 772L440 773L446 763Q450 766 452 769T458 775Q468
785 470 788T472 806Q487 818 499 819T522 815T544 800T567 784V783Q575 732 581 682T588 580Q588 553 587 532T582 490T573 448T560 402V401Q574 386 585 391T607 409T625 438T642 462H643Q642 472 649 486T665 516T681 544T687 564Q707 593 723 621T754 681Q759
677 762 681T768 688H769Q773 712 785 727T813 755T846 780T877 808Q899 808 916 800T936 765Q931 749 931 733T930 699T927 666T918 634Q918 632 915 621T909 597T901 571T896 556Q882 513 874 475T866 389Q862 385 859 381T851 374L852 373Q856 363 856 355Q856
344 851 331T841 306T836 281T848 258Q848 242 843 224T835 187T831 150T841 117L842 116Q858 116 866 119T879 123T892 122T914 108L971 147Q983 156 992 166T1012 184T1034 196T1063 197L1064 199Q1078 219 1099 233T1145 258T1194 280T1239 305Z" />
<glyph unicode="N" glyph-name="N" horiz-adv-x="730" d="M740 194Q740 168 729 154T704 128T675 105T653 74Q651 69 643 64T625 53T606 45T593 41L543 13L536 18Q518 1 496 -8H494L486 -3L485 -4Q477 -7 470 -6T455 -1T440 7T426 14L425 15Q408 32 399 49T390
91Q390 119 397 147T415 201Q417 204 418 207T421 215Q425 225 426 235T429 257Q431 282 437 302T464 339L466 340L464 341Q456 350 458 355T464 364T470 373T466 390L475 391L476 392Q484 405 486 422T491 457T499 494T521 528V529Q516 540 518 549T524 566T532
582T536 601Q536 608 533 612T528 623Q537 632 540 642T544 664T547 687T557 709H558Q557 716 558 724T560 739Q561 754 562 769T571 798H572Q570 804 570 809T569 821T566 833T556 844V845Q554 844 548 844T539 843Q521 826 506 806T478 766T451 725T421 686H420Q420
684 420 682T421 678Q422 657 400 657Q365 613 356 556Q354 558 352 559T348 563L347 561Q332 537 314 513T277 464T244 413T221 359V358L220 357Q209 350 203 345T191 334T182 321T173 302Q166 288 158 275T138 251Q132 231 125 211T106 174Q103 169 98 161T89
143T81 125T79 110Q71 102 67 92T60 70Q56 54 52 45T34 24L33 23L34 22Q40 1 35 -10T20 -30T-3 -47T-25 -69Q-37 -61 -45 -45T-58 -14Q-68 13 -58 31T-33 64T-7 94T-2 131Q5 131 12 134T25 144T35 157T40 172Q41 180 32 187T15 198L16 200Q17 219 25 229T43 248T61
266T69 294Q75 311 81 328T96 362Q103 376 113 397T123 433Q123 468 131 496T171 546L172 547L171 548Q166 567 167 579T174 610Q179 630 179 646Q179 649 179 652T178 658Q181 662 188 666T201 675T208 685T200 697L199 699Q198 704 204 719T219 750T236 781T249
798L247 799Q238 803 227 801T205 792T184 780T165 770L164 769Q158 750 148 747T127 744T104 748T84 743L81 742L76 745L75 744Q74 739 69 737Q62 734 56 735T45 738T36 737T28 725Q11 731 -7 729T-44 724T-83 725T-121 748H-122L-133 780Q-113 786 -94 778T-58
763T-26 756T4 776L5 778H8Q22 778 34 782T59 791T85 798T112 796L113 795Q120 801 126 809T132 826Q140 826 151 828T168 825H169Q177 834 188 840T211 851T235 861T257 873Q267 880 268 888T270 903T273 917T291 925Q298 926 307 931T325 938T341 939T352 923V922Q356
916 355 911T352 902T350 895T354 889H356Q356 888 358 881T360 870Q360 859 354 851T342 835T331 818T329 796L330 795L284 702V701Q290 690 284 683T271 670T259 658T263 644Q263 644 265 643Q257 620 244 599T230 553Q230 550 231 545T232 538L231 536Q224 525
223 518T220 499Q220 493 218 479T211 460Q215 456 217 456Q219 455 225 459T234 465V466Q238 487 250 504T275 538T300 569T314 601V604Q327 604 331 609T336 622T337 637T342 647H343Q353 649 356 655T361 668T365 683T374 697H375L376 698Q389 702 394 712T404
733T414 755T434 768H435Q434 773 442 783T452 803L459 797Q460 798 460 800Q471 833 497 859T548 909Q552 908 558 912T572 920T589 925T608 921Q612 916 619 907T633 887T646 867T650 851Q645 848 643 833T640 800T636 767T630 749Q632 738 634 728T628 709L626
708Q630 704 630 698T632 687Q624 687 622 686T620 681T620 674T614 664L609 550Q601 551 596 544T586 531Q586 500 578 475T559 421Q556 414 552 402T543 377T536 352T534 333H532Q529 326 521 304T505 258T489 212T482 183H483L486 179Q486 177 487 176Q487 171
484 167T478 157Q478 135 470 116T462 76Q470 71 477 65T493 54Q496 62 502 65T514 70T525 77T530 90L532 91Q538 94 547 96T565 101T584 107T598 113Q612 121 634 131T672 146Q685 149 689 160T698 181T710 196T738 195L740 194V194Z" />
<glyph unicode="O" glyph-name="O" horiz-adv-x="753" d="M916 365Q909 342 901 328T881 304T854 287T817 272L816 271H815Q804 258 789 244T752 229Q747 231 744 234T736 240Q735 235 735 232T732 224Q727 219 720 219T706 218T691 215T680 204L678 205Q662 217
653 213T637 203T622 194T601 207Q600 208 600 208T599 210L596 208Q588 203 583 205T572 210T561 214T550 209Q549 210 549 212Q545 222 539 223T522 223H508Q501 215 496 210T490 191Q490 189 491 186T492 181L490 180Q471 167 463 156T442 124Q432 105 424 92T396
68Q402 57 399 47Q399 46 399 45T400 42Q396 32 389 29T375 25T361 21T350 9Q347 12 344 15T336 19Q332 20 329 18T322 12T315 5T309 -1Q310 -18 298 -24T276 -39Q258 -19 236 -38Q218 -40 200 -43T163 -46T128 -42T95 -27Q90 -32 86 -32T75 -32Q69 -24 62 -19T46
-6Q33 5 19 19T-4 48Q-14 68 -17 99T-20 153Q-20 193 -15 231T-4 309V310Q7 338 18 366T38 424Q43 439 47 455T56 486L57 487Q64 487 67 487T75 493Q75 521 89 548T124 596V597Q128 618 141 635T168 669T196 702T214 741L215 742Q221 749 228 754T243 766Q261 782
278 797T312 830Q325 845 335 856T357 878T380 898T410 919L411 920L417 913Q428 920 438 925T460 937Q468 942 478 948T500 960T522 967T545 968Q560 964 566 955T583 936Q596 933 604 926T616 908T623 886T628 862Q629 857 630 853T631 843Q627 835 617 836T599
837L597 836Q598 848 592 859T575 879T554 896T532 908Q525 906 523 897T521 882L531 871Q533 873 534 874T537 877Q543 879 547 874T556 870H557Q565 859 574 842T586 811Q588 797 591 784T606 761Q605 750 608 735T612 708Q612 689 613 673T618 638V637Q616 632
614 624T611 609Q611 593 617 578T627 549T630 521T613 493Q616 485 611 477T606 461Q606 457 609 455T614 449Q598 444 596 434T594 411T594 388T577 370Q577 367 578 365Q578 360 575 358T568 353T561 349T558 341Q558 334 558 325T557 308T561 293T573 282H577Q589
284 596 283T614 278Q622 275 630 273T646 275Q654 274 661 275T674 277T688 278T706 273L707 272Q719 271 726 276T740 286T754 296T771 298L772 297Q787 304 802 310T833 319Q843 322 846 324T850 330T854 339T864 351Q878 355 890 358T916 365ZM560 668Q551
686 545 705T535 744Q531 763 527 780T515 813T495 840T462 859L459 860Q455 853 455 844T461 827L462 825Q461 825 461 825T460 824Q434 803 417 775T389 715T371 650T358 585L357 584Q359 579 361 575T364 565Q364 556 363 550T360 537T361 524T370 511Q371 507
370 503T368 493Q368 483 371 469T378 439T385 412T388 395Q411 375 433 355T485 325L488 324Q495 345 505 364T524 401T540 440T548 486H549Q550 495 553 500T557 511T557 521T548 535L549 536Q562 549 562 566T560 601T554 636T559 667L560 668ZM449 243Q448
254 439 260T419 272T398 284T385 302Q380 307 375 313T364 324Q359 328 353 334T341 346T333 360T330 376L329 377Q317 384 313 393T308 410T304 427T294 442Q285 460 281 479T276 520T273 561T269 601V602Q276 613 276 628T275 654Q246 600 210 550T145 443L152
437L151 436Q138 419 133 399T123 358T112 316T90 279V278H89Q68 267 65 254T65 226T73 196T72 164V163Q56 132 60 107T78 51V50Q83 43 95 44T113 51L115 50Q122 41 133 38T156 33T181 32T204 33L293 89Q306 97 315 102T337 117Q348 126 354 133T371 152L439 220Q441
222 445 231T449 243Z" />
<glyph unicode="P" glyph-name="P" horiz-adv-x="720" d="M751 632Q751 627 750 626T745 621Q745 616 744 611T744 601L745 600Q750 578 745 562H746Q746 551 737 536T723 509Q718 496 714 482T700 457Q685 435 664 414Q653 403 641 397T617 381Q603 369 591 356T560
337Q558 338 557 338T553 341Q541 333 520 326T483 316Q472 314 460 315T438 312Q434 307 433 302T421 307Q401 315 381 313T339 308Q331 306 326 306Q325 304 324 304T322 302Q317 301 313 295T304 280T296 263T291 251Q296 248 296 242Q296 240 291 229T280 205T269
180T262 165Q257 153 249 143T234 122Q228 110 223 98T212 74Q192 37 168 14T109 -33Q105 -35 102 -37T95 -39Q95 -43 94 -44Q94 -49 91 -55T84 -63T74 -62T65 -44Q57 -46 50 -43T35 -36Q23 -41 15 -36T12 -26V-23Q10 -20 7 -19T0 -15H-1Q-15 -4 -24 6T-33 36Q-44
43 -46 51T-47 68T-45 85T-46 99Q-46 111 -46 122T-45 145Q-47 147 -49 148T-51 153Q-51 164 -46 174T-37 195Q-37 200 -40 204T-43 213Q-43 215 -44 220T-45 231T-46 241T-45 248Q-44 250 -42 256T-39 264Q-40 266 -40 272L-39 273Q-40 275 -41 279T-43 284Q-49
290 -48 294T-44 301T-37 305T-32 308Q-28 312 -28 326T-29 346Q-33 349 -32 357T-27 374T-20 391T-13 403L-11 404Q-11 412 -12 416T-14 426Q-14 446 -6 461T8 495Q14 515 19 531T35 567Q38 573 42 580T47 594Q51 624 72 646Q74 655 77 669T86 692Q91 700 97 706T106
722Q102 726 102 728Q107 739 117 743T134 758Q140 767 146 778T160 798Q174 816 189 835T223 869Q233 877 244 881T267 891Q277 896 287 901T307 911Q318 916 328 920T350 929Q361 933 371 939T393 948Q405 950 417 950T440 949Q453 949 464 945T486 938Q489 937
493 937T500 937Q528 935 548 924Q558 926 567 922T586 914Q590 914 592 907L593 905Q604 897 613 889T633 870Q644 859 653 850T670 828Q681 811 690 799T713 772Q717 768 712 763Q714 761 714 760Q721 746 726 731T733 700Q735 684 736 672T746 644Q749 640 750
639T751 632ZM666 643Q664 646 663 649T660 654Q658 664 658 674T657 695Q652 705 645 713T633 731Q628 741 625 752T616 772Q612 779 607 783T597 792T587 802T579 814Q575 820 579 826L578 828Q570 827 561 834T549 848Q541 856 530 859T507 863L504 865Q497
863 489 863T474 865Q474 861 473 857T467 850Q465 848 462 850T455 857T448 865T443 871V872H441Q431 863 428 861T410 861Q405 862 402 862T397 866Q395 866 394 867T390 869L389 868Q377 863 364 859T338 848Q325 841 312 838T286 827Q274 819 266 808T249 787Q245
769 231 754T202 728Q201 726 200 726T196 725Q196 717 193 704T185 683Q180 674 173 667T159 652L156 648Q151 643 146 639T136 630Q133 626 133 621T132 611Q133 609 135 608T137 603Q133 595 128 588T121 572Q116 556 111 539T96 508Q96 508 94 499T90 480T87
459T84 445Q81 431 76 419T67 391Q63 376 63 361T62 332Q60 320 53 316Q51 316 49 315T46 312Q47 308 45 304T43 296Q45 290 46 286T47 273L46 271Q46 264 47 258T46 246Q46 238 44 231T41 215Q40 209 40 204T39 191Q32 156 37 127T53 63Q64 61 71 53T81 35Q90
43 99 50T116 68Q124 78 128 90T140 114Q156 135 168 156T189 204Q185 208 185 210L186 211V212Q184 215 189 219T196 226Q203 233 206 238T212 249T216 260T221 275Q221 285 229 285Q233 287 232 297T238 315Q229 318 221 321T205 327Q175 335 163 348T137 388Q132
388 130 391T132 398Q126 405 118 410T113 427Q117 433 125 433Q124 436 123 441T122 449Q118 453 121 456T127 461H128Q131 465 137 472T148 480Q156 481 167 476T179 461Q186 459 193 455T205 442V440Q203 436 199 435Q207 433 210 429Q218 426 224 422T236 412T248
403T265 397Q271 413 279 432T295 471T308 510T314 547Q310 554 316 558Q316 563 316 567T315 577Q316 580 319 580V581Q317 583 317 585T318 589L321 593Q321 596 324 599Q324 604 332 604V605L331 607Q331 612 332 614T335 621Q333 625 332 629T329 637Q327 639
327 641T330 645V648Q315 655 321 660T333 671Q331 672 331 676T331 683Q331 689 328 701T331 714L330 718Q330 727 330 730T333 741Q337 761 349 763T369 742Q375 750 384 748T400 739T412 723T414 707Q414 703 411 703Q409 698 406 695Q414 691 418 683T423 665T425
645T424 627L423 625Q423 621 425 615T426 605Q426 602 424 600Q424 596 424 585T427 571V560Q425 556 421 551T411 541T403 531T400 523Q405 518 411 517T418 506Q418 496 412 496T399 489Q379 470 375 450T367 406Q365 398 365 391T360 378V377Q368 377 384 379T406
387Q407 390 411 390Q429 391 446 393T481 398Q499 401 509 404T526 411T542 421T566 438Q578 447 591 453T615 471Q619 487 627 498T647 520Q641 526 646 537T657 554Q657 560 660 565T663 580Q662 581 662 585Q659 588 661 590T666 594H667Q665 596 659 599T658
607L657 608L658 609Q659 615 659 619T663 629Q663 630 666 632T670 635L666 643Z" />
<glyph unicode="Q" glyph-name="Q" horiz-adv-x="712" d="M630 9Q625 0 627 -8T629 -26Q629 -33 626 -37T618 -48Q612 -62 607 -64T598 -65T588 -57T577 -49Q572 -47 572 -44T571 -37Q573 -34 572 -31T570 -26Q566 -14 565 -3T558 19Q553 32 544 43T527 66Q517
81 511 90T499 106T485 120T461 138Q459 140 457 141T451 145L450 143Q436 125 421 107T388 73Q378 64 368 58T346 43Q336 35 331 29T321 18T309 7T285 -5Q266 -13 258 -20T236 -37Q232 -39 229 -35Q225 -37 221 -38T213 -41Q210 -42 201 -44T181 -50T162 -58T153
-66Q149 -73 144 -72T138 -63L137 -61Q125 -68 115 -69T91 -62Q63 -70 44 -66T9 -50T-20 -22T-51 12Q-58 8 -62 13Q-62 17 -61 18T-56 22Q-57 38 -65 53Q-67 61 -73 67T-82 80Q-82 84 -78 84Q-78 95 -78 109T-73 135Q-71 140 -63 140L-60 141Q-58 143 -57 147T-54
153L-56 156V160Q-51 167 -46 169T-35 176Q-42 178 -45 182V187Q-42 194 -36 194H-35Q-34 194 -33 195Q-32 195 -31 196Q-19 207 -8 217T16 239Q46 264 85 276Q90 278 94 279T104 283Q118 289 130 294T157 303Q184 309 213 309Q218 309 218 304Q222 306 223 303Q234
296 245 297T269 299T292 300T316 289Q323 290 333 287T352 281T368 274T377 272Q381 274 384 278T392 279Q397 276 396 273T395 266L393 262H394V261Q397 265 406 265T420 265Q428 277 429 290T436 316Q441 329 447 341T456 368Q461 391 470 415T494 461Q486 470
489 483T497 507Q499 511 501 514T505 521Q504 523 502 525T500 530Q500 537 501 542T505 553Q507 558 507 564T506 577Q507 578 507 582Q503 583 503 589Q503 593 504 593T507 596Q516 607 517 622T518 651Q513 662 510 667T516 682Q514 682 512 685T508 689H510Q508
697 508 701Q506 703 503 707T504 713Q504 724 504 724T512 732Q512 736 512 739T510 748H509Q505 745 504 745T500 748Q500 752 501 752T505 754Q503 757 500 762T494 773T488 784T485 793Q483 809 479 825T456 846Q452 844 447 842T438 844Q435 849 437 853T442
862V863Q439 865 441 872Q435 866 430 869Q428 864 426 860T421 853H419L422 850V852V850Q421 847 419 843T412 834T402 826T392 825Q387 827 386 830Q383 835 387 843T392 857Q389 860 380 859T366 862Q353 851 342 839T317 817Q308 811 299 807T280 795Q271 788
264 780T249 764Q244 748 234 733T213 705Q217 705 219 706Q222 706 227 706T238 707T245 703T245 693Q238 680 227 680T204 673Q180 657 164 635Q159 628 156 620T151 603Q145 585 138 568T126 531Q123 517 117 505T108 478Q108 477 108 476T109 474V471Q109 455
118 435T142 407Q145 405 150 406T159 403V404Q163 412 166 413T173 414T180 408T187 400H188L189 399Q197 401 201 404T213 408Q226 421 241 433T272 459T301 486T325 516Q333 530 337 541T345 568Q347 572 350 572L351 573Q358 582 365 590T383 602Q389 603 394
606Q398 608 405 607T413 600L414 598Q420 593 425 587T431 571Q431 568 429 567T425 563Q427 561 430 558T429 551Q429 549 425 545Q424 543 424 542T422 538Q422 537 420 531Q420 516 415 503T401 475Q398 469 394 468T387 461L386 460L387 459Q387 457 379 448T369
435Q355 417 342 407T310 382Q282 361 251 348T184 331Q170 320 155 324T125 334Q111 340 97 339Q93 338 92 339T89 343Q87 343 83 345Q72 352 62 365T42 393T28 423T22 452Q17 454 18 457T24 460Q27 469 27 481T30 505Q33 514 40 526T53 549Q58 560 63 571T74
593Q79 604 82 616T91 639Q96 649 101 660T112 682Q110 685 111 687T118 688Q125 704 135 717T153 745Q156 752 159 758T167 770Q175 780 187 786T207 802Q215 813 223 824T240 846Q243 853 250 854Q253 853 254 850Q261 858 268 864T286 876Q296 882 303 891T322
906Q328 909 335 913T347 922Q351 924 354 924Q368 923 379 927T403 934T428 938T460 928Q462 931 463 935T470 938Q475 937 475 934T477 926Q489 918 500 912T519 895Q534 877 543 860T559 826T573 792T590 755Q590 751 590 750T586 746H587Q591 742 591 740Q588
734 585 727T581 713Q581 696 586 681T595 651T599 621T589 588Q596 572 595 564T589 549T579 537T574 520Q574 518 574 516T575 512Q575 507 575 503T580 494Q577 489 575 488H574Q572 477 568 467T561 446Q553 419 546 392T527 338Q522 324 519 310T508 283Q508
279 505 276L504 274Q504 267 503 257T497 241Q494 238 494 237T493 231Q495 229 495 227T498 223Q503 215 507 210T517 199Q527 188 538 181T558 162Q567 151 573 140T588 117Q596 106 598 94T607 70Q613 58 619 46T628 20L629 19L630 16L629 15Q630 13 630 9ZM365
177Q361 182 358 186T353 195V196Q342 197 332 202T312 213Q309 215 306 218T299 224Q287 226 275 225T251 224Q238 225 227 227T203 227Q195 227 183 223T158 212T134 199T118 186Q116 184 116 183T112 181Q110 180 105 180Q103 182 101 182T96 183L91 182Q85
180 82 180T73 180Q68 169 63 158T49 136Q38 123 28 109T17 78Q17 75 22 68T29 56Q34 42 40 37T55 29T72 27T93 25Q101 23 114 18T133 12Q144 17 154 20T176 25Q181 26 186 29T196 35Q204 37 212 39T228 46Q240 54 250 60T274 68Q284 87 297 97L294 99Q294 106
302 109T315 114Q324 117 328 125T335 141T341 155T349 162L351 164H352Q354 166 355 166T358 167Q360 167 364 169Q364 171 364 173T365 177Z" />
<glyph unicode="R" glyph-name="R" horiz-adv-x="591" d="M621 91Q617 83 609 79T594 71Q589 68 579 68T561 65Q553 62 547 56T533 45Q524 40 515 36T500 22Q500 17 502 15T507 11L508 9Q500 10 490 12T473 13Q465 11 459 8T444 2Q437 0 430 -2T416 -6Q408 -8
402 -13T388 -22Q384 -24 381 -24T373 -24Q362 -24 350 -27T328 -34Q319 -37 312 -46T300 -56Q292 -58 284 -56T268 -54Q260 -55 253 -50T237 -45Q227 -46 220 -51T206 -57Q199 -57 191 -55T175 -50Q167 -48 159 -50T142 -51Q135 -49 131 -40T118 -28Q104 -23 90
-18T64 -6L65 -3Q63 2 60 0T55 -4H54Q41 9 38 15T35 25T39 34T41 53Q41 58 33 66T21 79Q16 87 13 90T3 101L1 103L-13 157Q-15 155 -17 149T-22 136T-26 122T-30 115Q-35 110 -31 98T-31 79Q-42 62 -47 56T-53 45T-53 32T-52 4Q-54 4 -55 3Q-61 -2 -67 -2T-80 0T-95
1T-116 -5Q-120 -5 -122 -11Q-122 -5 -132 3T-143 20Q-144 28 -135 36T-122 53Q-119 62 -120 73T-117 92Q-115 95 -113 96T-107 99Q-95 107 -94 114T-91 133Q-90 138 -90 139T-95 143Q-90 150 -84 153T-74 165Q-71 173 -72 180T-71 196Q-69 203 -63 208T-53 222Q-52
225 -51 230T-48 243T-45 255T-44 264Q-44 269 -44 276T-43 287Q-40 295 -36 302T-29 317Q-26 325 -26 333T-22 350Q-20 357 -10 362T5 376Q7 380 7 384T9 392Q11 400 15 416T24 441Q27 448 35 454T49 468Q49 477 46 484T43 500Q45 506 49 512T56 524Q59 530 61
537T67 550Q73 560 83 566T98 583Q98 588 97 588T93 590Q88 590 86 594Q91 601 99 604T111 615Q116 625 115 634T118 651Q123 659 128 666T138 681Q142 687 149 690T162 702Q166 711 165 719T167 734Q172 742 179 745T192 756Q196 763 195 772T197 787Q201 795
203 802T211 816Q213 819 216 822T222 828Q238 846 252 864Q257 870 261 877T271 890Q277 895 283 900T295 910Q301 915 309 918T324 926Q327 929 327 931T328 936Q330 932 331 929T335 921L339 925Q344 930 347 931T356 935Q359 936 364 939T374 945T384 950T391
953Q398 953 405 948T420 940Q431 936 439 938T459 934Q465 930 472 926T484 915Q490 910 496 898T507 884Q509 868 511 853T517 821Q519 813 519 806T519 790Q520 782 517 774T515 758Q516 749 523 742T530 726Q530 718 527 711T523 694Q523 686 523 678T521 662Q520
654 521 646T522 630Q522 611 516 597T505 567Q503 559 504 551T505 535Q505 532 500 520T494 504Q490 496 485 490T476 476Q474 470 475 462T477 447Q477 445 477 444T476 440Q471 433 464 428T453 416Q449 409 441 405T428 394Q423 388 420 381T412 367Q406 359
405 349T398 334Q392 328 382 328T363 319Q363 317 364 317T366 314Q359 311 352 311T338 310Q330 308 323 301T308 293Q305 293 298 295T282 299T265 303T254 307L244 311Q232 316 226 321T205 333Q201 335 197 336T189 333Q183 338 176 343T162 354Q154 359 148
365T133 376Q128 379 124 380T116 383T108 386T99 394L97 388Q95 386 90 385T83 379Q81 373 86 363T89 345Q87 338 89 328T86 312V310Q83 305 79 301T74 289Q73 282 76 275T79 260Q79 253 79 247T78 232Q78 222 72 211T67 193Q71 184 78 177T85 160Q85 148 85 142T86
130T89 119T96 102Q100 94 107 92T120 82Q122 80 122 76T123 69Q125 51 133 45T155 30H156Q165 30 173 33T189 35Q198 34 203 27T219 18Q236 16 251 17T283 20Q291 22 299 21T315 22Q324 23 331 24T347 27Q364 30 379 32T412 40Q420 42 425 51T437 62Q444 65 453
63T471 63Q479 67 486 70T501 78Q507 82 516 83T533 88Q541 93 544 101T554 115Q559 118 567 124T585 134T602 138T616 132Q613 127 614 121T618 109T621 99T621 91ZM450 729Q450 731 445 733T437 736Q439 739 444 746T445 757Q444 768 439 778T427 797T416 813T410
828Q412 830 414 833T417 840Q417 846 411 860T397 876Q391 878 380 874T358 864T336 851T320 840Q314 835 307 834T294 826Q290 812 288 801T277 776Q274 771 273 767T267 758Q262 750 256 745T245 732Q240 724 238 716T231 699Q230 697 228 691T223 679T221 667T225
659L228 656Q223 651 218 648T207 638Q202 632 197 626T188 612Q185 604 182 598T175 584Q172 576 173 567T172 552Q169 545 167 539T161 524Q158 517 155 511T147 497Q144 489 136 480T125 465Q128 461 133 460T143 459T154 458T162 454Q167 449 171 443T180 432Q186
427 189 419T205 399Q210 395 213 391T221 384Q228 379 236 379T253 375Q261 372 268 366T285 361Q293 362 298 369T310 379Q312 381 315 381T322 382Q328 383 330 384T335 386T340 390T348 396Q353 400 356 403T364 411Q369 417 371 424T378 437Q383 444 383 452T389
468Q394 475 402 480T417 492Q409 508 411 515T421 538Q425 546 425 554T430 570Q436 581 438 590T440 611Q446 611 451 613T445 620Q453 636 453 643T449 668Q447 674 445 680T441 692Q441 696 443 699T448 706T450 714T442 725Q444 725 446 725T449 728L450 729Z"
/>
<glyph unicode="S" glyph-name="S" horiz-adv-x="633" d="M725 240Q722 210 705 189T663 152T611 125T559 104Q559 89 553 85T537 81T518 80T499 74L489 82Q486 78 483 76T476 69Q472 64 469 60T458 55Q445 60 432 57T406 48T378 37T350 31L349 30Q338 22 333
16T321 -2Q313 -13 306 -21T282 -28Q279 -25 274 -22T265 -17Q254 -12 254 -10T246 -2Q238 -7 219 -12T179 -22T137 -31T106 -36Q101 -31 97 -28T88 -19H87Q62 -24 39 -25T-8 -27T-54 -27T-101 -28Q-116 -3 -131 -3T-161 -10T-190 -27T-220 -28L-221 -29Q-246 -40
-266 -54T-305 -83T-346 -110T-396 -128Q-412 -116 -426 -121T-453 -134T-479 -146T-502 -137H-503V-136Q-509 -132 -514 -133T-523 -136T-531 -142T-537 -144Q-541 -144 -543 -139Q-538 -128 -526 -122T-500 -111T-472 -98T-449 -76Q-426 -64 -403 -54T-360 -27Q-343
-30 -320 -23T-279 -10L-276 -8Q-273 -1 -268 3T-256 10T-242 19T-229 34L-228 35L-229 36Q-235 55 -244 70T-263 99T-280 130T-287 167Q-282 173 -277 181T-266 196T-253 209T-237 215L-226 205Q-216 216 -201 216T-168 213T-133 206T-101 206Q-85 198 -72 187T-46
168T-17 158T19 165L22 166V168Q24 183 34 191T57 207T79 221T91 242Q118 265 138 284T176 322T210 364T247 416L248 417Q246 424 253 434T268 458T277 486T267 518Q274 532 276 546T288 573L290 577Q281 581 281 590T281 612T283 636T276 658Q296 673 301 693T309
735Q311 754 314 764T326 793L325 794Q313 822 323 841T351 876T388 909T415 948Q432 960 453 956Q471 952 486 939T512 910Q514 908 517 904T520 899Q524 886 523 873T519 846T515 820T517 794Q505 774 500 752T490 708T478 666T454 629V628Q440 604 427 584T399
543T372 500T347 453L346 452Q354 437 348 424T335 397T327 368T344 334Q339 328 339 318T339 299T339 281T331 268Q334 266 336 263T342 258Q342 251 342 244T340 229Q339 218 339 207T338 185Q338 183 337 181T336 175Q336 167 339 160T346 147T349 133T341 119L342
117Q352 102 361 101T380 102T400 106T421 97Q448 111 476 121T532 139Q569 149 603 161T668 199Q680 209 695 223T725 240ZM467 880Q462 881 458 879T450 874T443 871T436 878L429 876Q431 852 424 831T407 791T384 752T364 711T354 667T361 616L362 614Q379 614
385 622T392 641T396 658T408 665Q408 679 415 689T430 710T440 731T435 759Q442 772 442 788T443 820T448 850T468 872L467 880ZM286 96Q286 117 278 135T269 175Q269 181 270 184Q276 203 276 220Q276 237 274 253T272 287Q269 290 274 295T282 302Q279 304 272
311T261 321L255 318Q255 311 249 307T236 298T225 287T224 269Q201 252 182 232T145 192T107 153T66 119L96 89L99 90Q110 94 118 90T134 82T149 75T164 80Q170 76 172 73Q187 72 201 69T230 65T258 67T284 83H285Q285 86 285 89T286 96ZM19 70H18Q12 83 -1 79Q-3
78 -9 77T-21 75T-32 71T-36 65L-65 49L61 41L19 70ZM-72 119Q-82 122 -93 131T-112 148Q-124 142 -134 144T-153 151T-170 159T-188 156Q-192 158 -194 160T-199 165Q-211 148 -204 136T-187 113T-169 93T-171 71L-168 65H-139Q-137 67 -131 72T-123 81Q-119 84
-113 90T-100 103T-86 115T-72 119Z" />
<glyph unicode="T" glyph-name="T" horiz-adv-x="1173" d="M1234 435Q1217 402 1195 380T1147 338T1095 300T1046 256Q1032 255 1018 250T989 237T962 221T937 205V204L932 197Q925 204 919 203T906 196T895 186T884 179L883 178V177Q861 139 831 113T767 64T698
21T633 -29Q616 -12 601 -15T569 -31Q554 -42 544 -44T514 -38L512 -37Q502 -43 492 -40T472 -32T452 -27T430 -39Q424 -37 418 -34T404 -28T390 -26T376 -33Q373 -25 367 -23T359 -14L358 -13Q329 -13 294 -3T232 24Q227 28 222 32T211 42L204 32Q179 47 158 66T118
106T79 148T37 188Q31 232 8 268T-37 339T-74 412T-77 499Q-53 506 -39 483L-31 494Q-19 480 -16 459T-8 417T7 383T43 369Q47 346 57 329T82 297T113 269T147 244Q163 232 185 216T217 183L218 181Q259 181 287 172T352 145L356 143Q357 148 361 154T370 163Q380
167 394 161T422 150T449 147T467 169Q482 167 499 166T534 167T565 176T591 195Q607 181 618 187T638 203T657 215T679 198Q690 203 704 208T730 218Q756 229 788 239T848 250Q854 255 862 264T877 284T890 305T895 323Q902 333 909 341T922 359T932 377T936 401Q956
424 966 454T972 516Q979 525 988 542T1005 578T1018 614T1024 641Q1024 652 1021 657T1007 669Q994 676 987 670T974 657T964 646T952 654Q952 652 949 651Q931 633 908 618T858 589T804 567T752 552H751Q746 545 741 538T730 523Q716 533 714 550T708 582Q717
601 727 612T748 631T772 647T800 665Q811 656 817 658T828 666T836 680T846 690Q864 681 876 687T900 704T924 723T955 724L957 723Q970 736 990 748T1032 768T1075 775T1111 758Q1111 681 1097 613T1045 477V476Q1043 467 1039 458T1029 440Q1023 428 1019 418T1013
398T1010 377T1009 352Q997 344 996 329T990 300L991 299Q1000 290 1006 290T1016 294T1025 306T1033 321H1034Q1052 339 1073 351T1116 374T1159 397T1200 427Q1209 429 1218 428T1231 437L1234 435ZM787 168Q781 171 757 164T703 146T648 126T614 117Q603 117
597 117T580 121Q581 119 581 115T582 108Q580 101 571 98T556 103Q556 114 563 120T570 135Q564 134 559 136T547 132Q542 128 541 120T539 103T535 89T524 83Q516 83 509 84T494 86Q477 87 461 85T427 80Q422 79 416 79T404 76Q402 81 398 87T385 93Q381 93 378
90T373 82T368 73T362 69Q360 68 353 77T344 89Q336 75 328 74T303 78L211 113Q229 101 246 90T281 68Q284 66 286 63T293 58Q303 53 321 49T350 50Q361 55 366 55T381 45L388 55Q392 53 396 49Q403 51 410 52T420 59Q444 41 465 20Q473 32 475 33T489 24Q495 38
504 38T522 35T542 32T562 45Q567 47 572 52T584 62T595 67T606 58Q611 63 616 66T626 73Q631 76 643 78T667 84T688 91T698 104Q720 116 743 134T787 168Z" />
<glyph unicode="U" glyph-name="U" horiz-adv-x="752" d="M864 273Q863 273 861 271T858 268H857V264V263Q857 253 855 247T849 234T841 221T830 201Q825 193 817 190T803 178Q799 171 796 165T788 152Q783 144 777 136T766 121Q764 118 759 116T749 111T738 106T730
100Q721 87 712 74T689 51Q682 46 676 43T662 35Q654 30 650 21T641 8Q638 6 633 6T621 5T608 3T598 0Q590 -4 584 -8T570 -16Q564 -19 556 -19T541 -18L539 -19Q538 -22 538 -26H537Q538 -23 538 -17Q526 -11 516 -12T493 -12Q485 -11 479 -9T464 -4Q456 -1 449
-1T435 7L438 10L441 15Q435 18 424 21T410 29Q404 37 405 46T402 63Q397 71 393 77T385 91Q381 101 379 111T375 133Q369 123 365 110T352 89Q344 81 332 81T312 73Q306 66 305 57T298 43Q274 18 252 -4T195 -37Q186 -39 178 -37T161 -36Q157 -36 154 -37T148
-39Q144 -40 137 -41T121 -44T105 -46T94 -47Q93 -45 93 -41L92 -40V-38Q86 -32 82 -26T72 -13Q67 -8 60 -2T49 11Q45 18 43 26T37 42Q34 50 27 56T18 71Q15 79 14 88T10 106Q10 109 11 114T14 122Q15 125 16 132T19 146T20 161T21 171Q21 179 17 186T12 201Q12
209 16 216T22 231Q23 239 24 246T26 262Q27 270 26 277T27 293Q29 301 32 309T37 328Q38 332 36 341T33 356H36Q38 364 44 371T50 384Q50 385 50 389T49 397Q48 401 48 407Q50 417 54 423T62 439Q64 447 64 454T66 468Q68 474 73 481T80 494Q83 503 86 512T91
531Q92 535 89 546T86 564Q89 572 95 580T103 597Q104 608 103 620Q103 625 104 638T108 658Q110 667 117 672T126 685Q128 693 126 702T124 719Q127 727 132 732T141 745Q145 753 152 756T165 768Q169 775 172 782T180 797Q177 800 175 802T170 809Q168 810 166
810T162 810Q162 815 172 816T188 820Q190 827 188 829T184 838H180Q180 840 180 840T179 843Q181 843 186 842T194 840Q196 845 200 852T209 861Q214 863 224 864T239 863Q243 861 245 860T252 860H253Q255 854 255 850L260 853L261 852Q261 847 267 843T274 831Q274
822 266 814T254 797Q250 788 250 777T246 758Q239 747 228 729T217 696L220 695L223 693Q223 679 216 670T200 651L199 650Q200 645 192 638T181 625Q180 620 176 606T172 587Q172 582 172 577T174 567Q174 565 174 564T173 560Q170 552 168 545T162 529Q157 516
152 500L148 486Q144 474 141 462T133 437Q131 429 132 420T131 403Q129 395 125 388T119 373Q117 361 111 354T103 328Q102 319 102 312T100 297Q99 294 103 284T107 268Q107 262 97 255T85 242Q84 232 88 225T93 210Q93 201 89 193T87 175L91 176L94 173V172Q86
163 86 145T91 117Q104 97 104 78L106 75L109 72V71L110 70Q109 68 109 68T107 65Q115 57 127 44T150 27L151 26Q158 30 163 35T175 45Q182 49 191 48T206 52Q213 57 215 65T223 78Q230 83 238 83T253 90Q259 96 259 105T264 121L284 144Q289 150 295 155T306 166Q311
172 319 176T331 186Q336 194 340 202T349 217Q355 225 357 233T366 250Q371 257 376 264T387 279Q387 297 389 305T394 318T400 325T405 338Q407 346 405 354T404 371Q406 379 412 385T420 399Q422 407 426 414T432 429Q434 437 437 444T442 459Q444 464 443 471T442
484Q442 491 447 503T455 521Q455 529 454 538T455 555Q457 563 463 569T472 583Q474 591 478 597T485 611Q488 620 486 628T485 645Q487 653 492 660T500 675Q503 683 501 691T501 709Q504 717 513 721T525 734Q529 742 532 749T539 764Q541 769 543 779Q545 787
548 794T553 809Q560 829 567 847T583 886Q586 894 586 902T590 918H591L592 919Q595 915 601 911Q602 913 603 914T606 918Q621 932 627 931T647 915Q652 911 658 908T666 898L669 899V898L670 899V898H671Q673 896 674 896Q674 894 673 891T669 883T664 874T661
867Q656 855 655 836T650 802Q646 785 639 771T627 740Q625 732 624 724T620 708Q615 692 610 677T600 645Q598 638 598 630T596 613Q594 605 588 599T579 584Q579 575 581 567T583 550Q580 542 574 536T564 521Q564 511 568 503T572 484Q567 476 561 470Q559 468
556 462T549 449T542 436T537 426Q535 421 536 413T538 399Q538 397 538 396T537 392Q534 384 531 377T524 361Q521 353 516 347T507 333Q504 325 504 317T501 300Q499 295 497 293T490 287Q488 286 484 280T474 267T464 253T459 245L458 244Q458 232 457 220T455
197Q455 189 462 184T468 172Q467 166 467 160T466 147Q466 140 467 134T470 121Q471 113 471 105T477 90Q479 87 480 85T482 79Q484 74 487 68T495 60V59Q510 57 522 56T547 68Q550 71 552 73T559 78Q563 79 567 77T575 71T584 66T592 66Q600 71 601 72T609 78Q617
83 630 94T651 111Q659 117 666 124T682 136V137Q687 142 694 145T707 153Q712 157 712 167T717 183Q719 186 725 187T738 189T751 192T761 198Q768 205 769 214T776 231Q778 233 783 233T795 234T807 234T813 237Q811 239 810 241T808 246Q812 248 820 254T836
267T852 278T863 279V275L864 273V273Z" />
<glyph unicode="V" glyph-name="V" horiz-adv-x="543" d="M942 792Q932 793 928 794T920 805Q911 795 904 794T889 795T873 801T855 805Q850 809 848 812T844 818T837 822T825 824L818 817Q807 834 785 842T745 839Q740 846 732 846T716 847Q712 842 708 839T698
830L690 839H689Q652 834 629 811T584 760T540 710T479 681H477V679Q474 667 468 654T453 627T435 602T418 581Q399 558 384 535T359 482Q326 474 317 452T303 400Q300 382 296 364T276 332Q273 328 269 326T261 322Q260 321 259 319Q259 317 259 314T260 309Q260
301 257 292T252 274T249 256T254 239Q243 239 230 240T210 229Q210 201 204 174T190 120T172 66T156 12Q154 12 154 12T151 11Q140 9 130 9T112 11T99 20T90 40Q85 62 89 75T101 109Q109 126 111 137T114 168L113 169V170Q102 180 104 191T110 213T117 236T109
260Q118 279 119 296T119 331T114 367T111 404Q111 411 113 421T115 435Q113 449 106 464T98 493Q98 508 109 516Q109 519 109 529T107 550T104 573T102 589Q100 618 97 652T80 713Q80 725 81 737T80 761T72 782T53 800H51Q19 795 10 825Q11 827 11 829Q15 847
20 864T35 895T58 918T93 929Q110 922 119 905T135 867T149 826T168 791Q158 768 161 746T171 702T187 659T195 615Q195 604 192 596T186 578L188 577Q196 567 196 551T185 526L184 524L185 522Q191 507 192 492T196 462T206 436T232 416Q238 432 246 446T263 474T277
503T285 537Q305 552 320 571T349 611Q360 628 373 644T401 675Q405 678 409 680T418 686L420 688Q420 690 420 693T419 699Q419 712 429 720T449 735T467 751T470 777Q497 785 516 802T553 836T592 867T645 880H646Q658 883 665 891T678 907T691 915T711 903Q716
909 722 909T735 904T746 894T754 884L757 885Q783 894 810 890T861 872T907 839T942 797V792V792Z" />
<glyph unicode="W" glyph-name="W" horiz-adv-x="914" d="M1272 727Q1272 718 1269 711Q1248 726 1231 746T1194 783T1152 808T1098 806Q1083 814 1070 806T1046 790V784Q1037 784 1028 786T1010 787T996 778T990 753Q970 756 957 745T934 720T915 695T895 685Q895
684 893 682Q885 670 875 660T855 638Q813 583 779 523T717 400Q694 390 683 375T668 342T662 306T657 270T644 238T615 213L619 196Q629 200 634 195T640 181T640 163T636 147Q614 125 613 102T615 55T617 11T592 -30Q583 -25 575 -25T556 -29Q548 -31 544 -31T534
-24Q529 -18 527 -9T525 11T524 31T522 48Q547 80 552 114T558 183T558 253T576 322Q576 333 574 336T567 347L575 351Q570 386 572 414T581 477L582 483L578 487Q571 494 571 502T575 518T582 533T584 549Q581 561 578 573T572 599Q565 628 559 652T536 701Q517
696 498 688T463 667T433 639T414 604L413 601Q414 600 414 598Q415 591 411 585T400 571T389 554T385 531Q386 521 382 508T372 482T359 457T345 437V436Q333 414 326 390T313 342T299 294T274 249Q285 221 281 194T266 139T245 84T234 28Q234 23 234 19T235 10Q230
2 222 1T203 1T184 8T169 17Q156 27 155 39T157 65T162 91T158 115Q165 142 174 167T192 219T207 272T215 328Q227 343 232 361T240 397T247 433T260 468Q261 469 261 469T262 471Q268 497 267 518T263 566Q263 571 263 579T262 596T262 612T260 623Q260 626 259
629T258 635Q258 654 265 672T272 711Q272 728 263 743T238 767Q236 768 232 768Q218 768 210 763T196 749T189 730T184 708Q184 704 183 696T179 686Q174 676 166 665T150 644Q131 617 118 590T94 530Q82 531 75 528T62 519T52 505T40 490L33 483L38 478Q21 467
14 449T4 411Q2 396 0 386T-8 371T-22 364T-48 364H-51L-53 362Q-69 354 -71 344T-74 323T-73 305T-87 296Q-100 294 -115 295T-142 303Q-142 312 -143 317Q-145 358 -129 396T-91 467V468H-90V470Q-83 497 -72 526T-45 582T-12 633T29 674Q26 682 26 686T27 693T33
698T46 705Q50 714 59 725T79 749T100 773T118 792Q142 816 160 838T195 892Q212 887 232 884T270 886Q272 874 279 866T298 854Q301 838 311 820T331 783T346 746T348 713Q345 703 345 697T343 687T339 678T329 667Q338 660 349 654T371 652Q380 656 384 664T390
681T395 698T404 713Q421 728 436 744T467 774T502 798T545 811Q563 805 571 791T586 761T598 729T618 701Q616 684 617 669T639 649Q641 627 641 610T642 578T649 546T665 508L674 522Q680 532 688 540T703 556T717 573T726 595Q740 597 745 604T758 620Q757 633
765 653T786 696T810 739T827 776Q855 785 877 806T922 847T970 881T1029 888Q1056 888 1076 885T1116 875T1154 860T1196 838Q1197 838 1202 836T1212 830T1221 825T1226 822Q1240 802 1256 778T1272 727Z" />
<glyph unicode="X" glyph-name="X" horiz-adv-x="526" d="M516 926Q503 912 502 897T502 867T500 838T479 812L476 810Q482 794 476 784T461 766T445 749T443 727Q440 720 436 714T428 701Q403 661 380 621T338 537Q308 520 291 487Q293 483 294 480T297 473Q299
468 302 463T308 453Q326 414 327 373Q327 368 327 364T329 354Q331 347 337 328T350 289T362 252T367 231V230Q371 224 375 210T383 186Q394 159 403 133T412 78Q412 56 417 36T425 -7Q423 -8 422 -8T419 -9Q408 -13 401 -16T387 -19T376 -14T364 3Q357 15 354
24T351 41T351 59T352 81Q352 95 344 108T330 136Q328 140 327 143T324 151Q307 159 307 169T306 194Q306 202 303 207T297 220Q293 233 281 242Q284 257 281 275T270 311T255 346T240 377Q228 356 214 342T178 316Q180 314 181 312T184 307Q161 303 153 287T139
250T125 211T95 184H94L93 182Q82 153 71 125T44 70T8 22T-39 -18Q-47 -10 -47 0T-46 20T-47 41T-61 61L-52 68Q-62 81 -61 83T-46 94Q-52 98 -53 101T-55 106T-53 112T-53 119Q-48 123 -44 124T-34 126T-24 131T-11 141Q-18 143 -19 147T-20 155T-17 165T-15 174Q6
186 9 212Q27 213 34 224T43 249T48 278T59 300Q66 300 70 291T80 276Q91 282 92 294T94 318T99 340T120 350H125Q119 368 125 378T142 394T165 407T182 423L180 425Q174 432 175 438T179 451T188 463T195 476Q186 485 188 494T194 512Q191 516 186 526T177 548T168
571T161 588Q149 619 133 654T94 713Q90 729 87 742T77 765T61 783T34 797L31 798Q22 786 6 791T-17 808Q-17 827 -17 847T-15 884T-1 916T32 941Q51 938 66 924T95 890T123 852T154 821Q154 791 165 769T190 728T220 689T243 645Q248 630 248 616Q248 612 248
609T247 602Q250 600 253 599T258 594Q267 608 276 617T300 636Q302 638 302 639Q304 659 318 678T346 717T371 756T375 793Q390 809 407 825T441 859T471 895T490 936Q497 934 505 934T516 926Z" />
<glyph unicode="Y" glyph-name="Y" horiz-adv-x="627" d="M602 393Q594 373 585 360T563 335T536 307T503 266L501 265Q492 247 478 230Q468 217 466 212T463 202T457 192T437 176Q429 169 421 162T406 146Q406 143 405 137T403 124T399 109T396 98Q391 79 388
59T386 19Q387 17 388 11T390 2L389 0Q372 -35 363 -74T353 -154H352Q342 -177 335 -204T327 -257Q324 -260 322 -263T314 -269Q310 -272 305 -277T305 -289Q310 -301 313 -311Q302 -315 300 -321T297 -333T296 -346T289 -358V-360Q289 -376 284 -386T271 -405T259
-423T253 -446V-450L254 -452L253 -454Q234 -491 204 -524Q191 -538 176 -558T158 -598Q157 -598 156 -598T153 -597Q142 -597 131 -605T108 -622T83 -635T54 -630L53 -629L51 -630Q36 -638 20 -637T-11 -630T-41 -614T-67 -594Q-85 -579 -94 -557T-105 -511Q-107
-503 -106 -495T-106 -478L-116 -475L-110 -463H-111Q-112 -463 -113 -462Q-124 -453 -123 -441T-117 -417T-108 -393T-110 -371Q-108 -369 -108 -368Q-98 -354 -91 -339T-77 -309Q-74 -303 -69 -292T-57 -269T-44 -247T-34 -233Q-29 -228 -28 -222T-24 -210Q-21
-196 -16 -185T6 -171H8L9 -169Q31 -136 58 -104T118 -49H119V-48Q125 -35 136 -21T160 6T182 31T195 50Q202 48 207 55T217 72T230 88T249 94Q261 118 274 132T307 161Q309 163 309 163Q311 174 317 180T328 190T336 201T332 219Q343 239 328 260Q314 247 302
233T267 219Q260 214 257 209T249 200T239 194T221 191V199L217 201Q210 197 198 189Q172 174 150 164T96 153Q96 169 79 172Q77 165 75 161T68 151Q55 163 45 176T26 206Q24 209 20 217T10 233T-1 247T-10 255Q-10 283 -10 307T-9 354T-4 401T8 453Q9 454 7 457Q6
463 7 472T11 490T18 508T25 523Q28 546 31 570T35 617Q39 616 42 615T49 611Q57 649 69 685T96 756Q104 775 113 794T127 834V835Q130 839 138 843T152 845Q158 843 162 838T168 826T173 813T181 805L192 801Q190 799 187 798T182 795Q169 785 166 765T163 728L162
727Q155 698 144 674T123 625T106 576T101 518Q102 505 99 493T92 469T85 444T81 418Q78 409 74 405T72 384Q74 374 75 361T70 338V337H69Q63 314 65 288T84 244Q94 233 101 234T116 241T133 252T157 256H159L160 257Q174 268 187 272T213 282T237 295T258 322Q270
316 277 319T291 328T304 340T324 346Q323 355 331 378T351 429T373 481T388 519L391 520Q404 523 403 536L398 556Q397 562 398 565T402 573Q408 587 411 604T417 635Q420 654 424 673T437 709L439 713L430 717Q445 732 451 746T459 774T464 802T476 830Q479 834
479 836L483 834Q486 846 491 852T504 863T518 871T533 883Q541 881 548 881T563 879Q566 873 566 866T566 852T565 838T569 827Q573 825 574 824Q565 815 560 794T553 760Q551 748 550 736T544 713Q542 708 540 705T536 697Q525 662 515 625T480 559V558Q469 535
459 513T454 465Q455 462 455 460T456 454L448 453V451L446 447V445L445 443Q452 438 451 433T447 422T439 412T435 403V401L436 400Q435 386 433 370T426 339L425 338Q429 329 429 321T428 306T425 290T423 273L435 279Q435 294 444 301T466 312T490 321T506 334H507Q510
340 512 346T518 358Q526 358 536 365T556 383T575 405T591 423L592 424Q599 425 602 422T605 414T605 404T603 394L602 393ZM294 48Q280 34 270 22T249 -2T225 -25T193 -45L191 -46Q191 -56 187 -60T178 -69T169 -77T165 -89Q163 -91 161 -95T156 -102T150 -106T142
-106Q134 -114 124 -127T106 -151Q83 -177 60 -204T20 -263L13 -261Q8 -266 6 -269T-5 -276H-7L-41 -368L-40 -370Q-39 -381 -42 -389T-48 -406T-51 -424T-46 -445L-47 -447Q-52 -458 -53 -468T-53 -485T-50 -498T-48 -505Q-44 -506 -38 -510Q-39 -516 -43 -521Q-43
-532 -37 -537T-23 -546T-7 -552T4 -559L5 -558Q23 -554 42 -554T76 -539H77V-538Q82 -521 91 -517T113 -506Q112 -498 120 -488T134 -473Q142 -466 146 -462T153 -447L154 -445L155 -444Q164 -435 168 -425T174 -402Q177 -388 180 -379T197 -359Q199 -357 199
-357Q213 -320 228 -283T251 -208Q253 -203 253 -199T256 -189Q258 -184 260 -179T261 -169Q261 -165 256 -162Q256 -155 261 -143T271 -117T281 -89T283 -62Q283 -60 283 -56T280 -50L281 -48Q287 -35 289 -21T291 8Q291 19 292 28T294 48Z" />
<glyph unicode="Z" glyph-name="Z" horiz-adv-x="538" d="M425 352Q426 339 423 327T417 303Q415 292 416 280T415 256Q412 242 411 227T407 197Q405 186 409 174T412 151Q410 139 409 128T406 104Q405 99 401 94T391 86Q389 76 385 68T378 50Q376 42 375 35T371
19Q378 16 378 12T379 1Q376 -4 374 -12T370 -27Q368 -33 365 -39T359 -53Q356 -67 350 -78T340 -103Q336 -117 335 -130T328 -156Q325 -164 321 -172T313 -189L311 -193L314 -196V-208H319Q310 -220 305 -230T296 -251T286 -271T268 -294Q270 -298 266 -307T255
-325T243 -343T233 -354Q229 -359 227 -365T223 -376Q217 -389 210 -400T196 -426Q191 -434 187 -441T178 -457Q169 -469 156 -476T132 -496Q122 -507 116 -520T98 -545Q87 -556 75 -564T51 -582Q43 -589 28 -603T3 -623Q2 -623 2 -623T0 -624Q-24 -632 -42 -639T-86
-646H-99Q-115 -647 -128 -650T-157 -643H-158L-159 -642Q-169 -632 -179 -623T-197 -601Q-202 -593 -203 -584T-205 -564Q-206 -547 -210 -532T-216 -499Q-217 -494 -217 -489T-220 -479Q-222 -471 -223 -463T-225 -445Q-223 -440 -222 -437T-215 -431Q-212 -422
-212 -409T-211 -386Q-210 -372 -202 -357T-190 -328Q-188 -317 -188 -307T-186 -285Q-183 -265 -175 -254T-156 -228Q-154 -226 -154 -225T-151 -222Q-153 -217 -148 -208Q-141 -202 -135 -193T-124 -175L-108 -152Q-98 -138 -88 -127T-69 -101Q-67 -99 -67 -99T-65
-96Q-54 -86 -48 -74T-31 -53Q-20 -45 -9 -38T13 -23Q24 -15 34 -6T55 12Q67 20 79 26T103 39Q115 45 126 52T148 66Q160 72 173 77T198 87Q213 95 227 105T258 121L266 114Q266 114 271 114T283 115T296 116T305 116Q316 123 329 121Q329 132 329 142T330 164Q330
165 330 165T331 166Q332 168 332 177T332 190Q333 207 335 221T339 253Q340 258 341 263T342 273Q343 286 348 297T356 321Q350 331 349 345T348 372T345 395T337 411Q328 412 314 409T291 400Q286 397 279 388T266 374Q264 372 261 366T255 359Q244 352 232 345T210
329Q200 318 193 308T175 287Q166 277 156 268T136 249Q126 239 114 232T91 217Q75 205 57 195T22 174Q19 180 19 187Q11 187 4 190T-10 196Q-6 204 -3 210T4 221T12 231T23 243Q26 246 30 250T37 258Q43 268 43 281T55 309Q63 318 72 328T87 348Q93 357 98 365T112
381L124 396Q132 408 137 422T152 450Q158 459 167 472T179 496Q182 506 187 513T198 529Q200 531 202 534T206 540Q209 546 209 560T212 585Q220 595 225 604T233 626Q236 637 242 654T257 679Q268 720 288 753Q292 759 295 768T300 780Q300 784 302 792T308 808T314
824T319 836Q319 842 318 844Q292 830 276 818T246 777Q235 769 219 761T195 743Q186 734 182 719T169 692Q161 680 149 672T128 650Q121 639 116 628T104 606Q99 595 99 583T93 558Q90 550 85 545T74 532Q71 529 68 526T62 517Q58 506 54 492T47 467Q36 459 29
455T7 453Q6 453 5 453T2 454L-26 452L-14 479Q-9 491 -7 504T1 529Q6 543 15 554T29 578Q34 591 36 604T45 631Q52 643 58 656T73 682Q81 696 93 703T115 722Q118 726 120 730T125 740Q128 746 135 757T150 778T167 798T181 810H180Q191 820 202 828T223 846Q234
856 242 868T262 889Q274 897 287 903T314 918Q315 918 315 918T317 919Q334 924 344 922T362 913T372 893T379 868Q382 854 383 844T385 825T381 807T369 785Q366 781 363 775T357 765Q354 751 354 739T350 713Q347 706 342 699T332 686T322 676T317 668Q315 666
315 661T314 649T313 638T311 630L313 624Q311 614 308 610T301 597Q297 588 293 580T284 562Q282 558 279 555T274 548Q267 535 264 521T253 493Q246 481 241 470T231 445Q221 420 206 399Q200 391 198 386Q202 391 208 394T219 401Q231 412 239 424T261 445Q275
456 288 466T316 487Q332 485 346 481T376 475Q399 453 411 418T425 352ZM303 47Q299 45 291 43T275 37T259 32T249 26L250 27Q236 20 222 21T196 16Q184 10 174 0T153 -19Q141 -27 129 -31T104 -44Q82 -59 60 -73T16 -105Q7 -113 2 -124T-12 -145Q-29 -164 -46
-181T-76 -222Q-82 -233 -83 -246T-89 -270Q-94 -282 -105 -293T-120 -312Q-122 -319 -122 -328T-124 -344Q-125 -348 -126 -352T-128 -360Q-128 -363 -130 -369T-135 -383T-139 -395T-141 -402Q-140 -408 -140 -416T-139 -434T-138 -451T-139 -465Q-140 -470 -141
-475T-143 -486Q-145 -495 -141 -513T-134 -540Q-128 -556 -111 -566V-567H-110Q-104 -572 -97 -573T-82 -574Q-74 -574 -64 -574T-48 -570Q-37 -563 -27 -554T-6 -537Q5 -528 16 -522T38 -507Q43 -503 45 -498T51 -487Q59 -474 68 -464T85 -441Q88 -436 91 -431T99
-420Q107 -409 119 -401T139 -382Q146 -372 149 -358T160 -333Q167 -321 174 -310T187 -288Q194 -275 204 -266T220 -245Q221 -242 224 -234T232 -216T239 -199T242 -188Q242 -177 243 -166T248 -144Q255 -123 263 -103T279 -60Q273 -55 273 -45L274 -43V-40Q292
-12 302 17Q304 22 303 31T303 47Z" />
<glyph unicode="[" glyph-name="bracketleft" horiz-adv-x="459" d="M294 -28L285 -46Q277 -44 270 -48T255 -59T242 -73T232 -85Q219 -91 212 -86T198 -71Q197 -69 196 -69T194 -66Q160 -66 133 -70T79 -76T26 -75T-34 -57L-43 -45L-47 -48Q-55 -40 -55 -29T-54
-6T-54 17T-67 35L-58 42Q-60 46 -62 50T-62 60L-54 68Q-59 73 -59 80T-56 95Q-53 99 -49 101T-41 104T-33 108T-26 116Q-30 119 -30 123T-30 132T-28 142T-26 152Q-8 164 -6 192Q9 192 14 203T21 228T26 258T37 282Q43 283 46 275T53 262Q59 270 60 282T62 307T68
327T86 335Q84 353 88 362T99 378T114 390T131 406Q125 416 127 424T133 439T141 455T143 475Q157 492 166 513T183 555T202 595T230 628Q233 652 243 671T265 708T284 744T290 785Q302 804 316 821T343 856T367 893T383 937Q390 935 398 936T408 924L407 923H415Q411
929 411 937Q430 938 462 941T528 947T592 949T639 941Q640 940 642 936T646 928T651 920T653 916Q655 905 647 900T634 886Q625 889 601 890T550 892T500 890T468 884H466Q458 885 450 881T432 874T414 869T395 873Q395 854 393 837T374 806Q378 791 373 780T360
760T348 743T346 723Q323 674 300 626T259 526Q235 507 222 476T198 412T173 348T134 301L138 291Q118 286 111 269T99 232T88 192T63 163Q49 113 29 64T-24 -24Q-11 -18 3 -17T34 -10Q35 -12 36 -17T39 -25Q47 -24 55 -18T78 -12Q86 -13 94 -12T110 -11Q125 -10
133 -9T149 -8T165 -7T189 -9Q224 11 259 -6L265 -9L264 -20Q275 -14 281 -17T294 -28Z" />
<glyph unicode="\" glyph-name="backslash" horiz-adv-x="437" d="M178 988Q183 999 190 995T206 991Q202 967 204 945T213 901T226 858T237 816Q227 796 228 776T233 735T239 693T236 648Q247 629 250 607T253 563T253 517T261 473Q255 464 255 455T257 437T257
420T247 405Q251 393 257 385T267 368T271 349T264 322Q276 317 277 308T275 288T269 264T268 242Q273 246 278 252T290 255Q295 244 292 229T285 200T282 173T297 155Q289 129 301 111Q298 103 298 92T288 78Q290 66 297 62T309 46Q308 39 306 32T297 23L302 12Q303
7 299 3T291 -3L297 -13Q284 -16 279 -25T270 -46T263 -67T248 -83Q223 -33 220 30T223 153Q209 168 210 189T214 231T217 270T199 300L207 308Q189 333 188 366T187 434T188 503T172 563Q174 617 170 670T162 778Q170 787 169 797T164 818T159 841T167 866Q157
881 159 895T167 925T177 955T178 988Z" />
<glyph unicode="]" glyph-name="bracketright" horiz-adv-x="453" d="M146 -19L136 -37Q131 -36 127 -37Q120 -45 114 -52T100 -65Q99 -64 99 -63T97 -61Q92 -66 89 -70T83 -76Q70 -82 64 -77T50 -62Q49 -60 48 -60T46 -58Q11 -58 -16 -61T-70 -67T-123 -66T-183
-48L-195 -33Q-186 -22 -177 -18T-158 -11T-138 -7T-115 -2Q-114 -4 -113 -9T-110 -16Q-101 -15 -93 -9T-71 -3Q-63 -4 -55 -3T-39 -2Q-24 -2 -15 -1T1 1T17 2T41 -1Q67 14 89 10Q86 15 81 18L89 25Q87 29 85 33T85 43L94 51Q89 56 89 63T91 78Q99 86 107 87T122
99Q114 104 117 115T121 135Q139 146 142 175Q157 175 162 186T169 211T173 241T184 265Q191 266 194 258T200 245Q206 253 207 265T210 290T216 310T233 318Q231 335 235 344T247 361T262 373T279 389Q273 399 275 407T281 422T288 438T290 458Q304 475 313 495T330
537T349 577T377 611Q380 635 390 654T412 691T431 727T437 768Q457 799 482 827T522 892Q507 895 479 896T420 898T365 897T330 892H327Q317 893 306 889T282 881T258 877T233 888L234 895Q232 900 229 904T227 913Q227 915 228 918T230 922Q239 927 246 930T265
931Q263 934 262 938T260 946Q283 947 321 950T400 954T477 955T534 946Q535 945 537 941T543 933T549 925T552 921V915Q555 913 555 907Q544 893 543 877T542 845T539 815T521 789Q525 774 520 763T507 743T495 726T494 705Q471 657 448 609T406 508Q382 490 370
459T346 395T320 331T281 284L285 274Q265 269 258 252T246 215T235 174T210 145Q198 103 182 62T142 -15L146 -19Z" />
<glyph unicode="^" glyph-name="asciicircum" horiz-adv-x="345" d="M311 393Q297 406 286 425T268 466T257 511T255 554Q246 578 243 600Q240 594 240 586Q234 575 228 567T216 552T205 535T196 511Q194 505 191 498T180 490Q177 481 168 470T151 448T138 425T139
405L101 387L104 374Q96 369 89 371T72 373Q70 393 74 415T87 459T106 499T132 528Q143 562 165 591T207 646Q213 655 219 664T230 682Q238 694 247 695T267 691Q284 696 292 690Q295 676 295 666T296 645T299 623T308 599Q310 593 312 585T310 570Q313 561 314
546T316 515T322 488T335 475L321 428L331 423Q329 412 323 407T311 393Z" />
<glyph unicode="_" glyph-name="underscore" horiz-adv-x="533" d="M464 17Q455 11 443 8T418 3T393 -2T370 -11L344 -6L342 -14Q330 -4 316 -5T287 -11T258 -16T232 -7Q209 -15 185 -14T137 -12Q130 -13 123 -12T108 -11Q97 -11 88 -12T67 -13Q54 -13 42 -11T16
-9Q10 -9 5 -9T-7 -9Q-28 -8 -46 -7T-86 -12Q-103 -5 -120 -4T-154 -4T-186 -5T-215 4Q-215 13 -210 19T-197 31T-182 39T-168 48Q-156 39 -144 40T-119 46T-94 57T-70 60Q-63 59 -60 57T-52 53Q-37 47 -17 47T25 51T68 59T106 63L135 51L138 60Q154 56 170 57T203
58T236 57T267 44Q286 57 305 61T343 65T381 60T421 51Q438 63 455 56Q456 51 460 46T468 37T471 27T464 17Z" />
<glyph unicode="`" glyph-name="grave" horiz-adv-x="138" d="M97 904Q106 896 102 888T90 868Q88 866 88 865T86 862Q92 833 101 806T117 752T127 694T121 628L108 610Q96 611 90 616T79 628T72 643T63 660Q65 662 69 666T76 672Q74 680 66 684T56 699Q55 706
54 712T50 725Q42 750 37 775T29 827Q15 838 12 851T14 885Q15 887 15 888T15 891L27 897Q18 903 19 909T29 927L48 928Q48 921 53 917T67 911T83 907T97 904Z" />
<glyph unicode="a" glyph-name="a" horiz-adv-x="664" d="M694 105Q680 81 673 67T658 43T641 26T614 7Q603 -3 592 -10Q583 -17 575 -22T561 -27Q559 -27 557 -27T553 -26Q547 -26 542 -26T532 -19Q529 -22 527 -26T523 -33T518 -39T508 -39L503 -33L488 -46Q460
-32 435 -23T389 0T355 33T335 90Q330 96 324 100T310 103Q300 86 286 74T258 48Q253 43 250 37T242 26Q234 17 223 14T201 7T181 -3T167 -27Q155 -20 143 -23Q134 -25 124 -27T105 -30T86 -28T70 -15Q56 -21 44 -15T22 3T1 28T-18 47Q-24 63 -18 74T-4 96T7 117T-2
143Q8 158 16 174T32 207T50 239T74 266Q68 273 68 279T71 292T78 305T84 318L113 332L106 356Q117 354 122 357T130 366T134 379T139 393Q144 402 154 406Q175 422 195 440T236 475T279 507T327 534Q345 531 355 523T371 504T380 480T386 453Q391 436 398 424T422
404Q408 380 411 357T417 307Q420 283 417 260T387 219Q385 212 386 204T387 188T384 173T373 162Q382 151 382 140T383 119T388 101T410 89Q413 76 415 70T421 59T431 52T447 41Q455 39 465 41T481 35Q486 40 493 40T506 40L519 18Q530 26 544 32T571 42Q586 46
601 49L694 105ZM310 447Q301 439 288 431T263 414T241 395T230 370Q207 366 198 351T183 318T170 283T145 255Q139 251 134 251Q135 251 128 247Q117 239 109 227T96 201T86 173T77 146Q63 144 56 140T48 132T48 121T54 108Q58 102 62 94T70 78T73 62T69 47Q83
36 96 42T120 57Q124 60 128 63T138 69Q161 64 180 72T215 94T246 124T276 152L268 160Q286 165 293 173T303 193T303 216T300 243Q299 251 299 258T303 274Q295 297 300 318T315 358T334 398T343 440L310 447Z" />
<glyph unicode="b" glyph-name="b" horiz-adv-x="626" d="M708 270Q699 222 677 193T616 133Q623 130 624 127T626 117L624 112Q615 119 607 119T592 117T578 108T564 96Q542 96 518 90T472 80T430 83T399 116Q391 119 383 121T366 126Q349 94 325 65T270 10T207
-36T140 -67L137 -68Q133 -62 130 -60T124 -59T116 -61T104 -63L97 -75Q83 -65 80 -53T65 -35L56 -46L53 -43Q35 -25 22 4T1 65T-9 130T-9 186Q-17 194 -28 200T-41 218L-40 219Q-38 231 -29 235T-8 240T13 241T26 245Q26 251 22 257T13 268Q13 278 18 283T29 292T40
299T45 307Q45 311 43 314T39 322Q54 324 57 332T70 349Q64 357 68 366T77 385T84 403T79 419Q78 419 78 419T77 420Q98 482 118 544T162 668T213 788T276 903Q277 916 283 923T299 933T319 940T339 948T354 963T360 989Q376 985 390 985T417 984T443 978T468 958L469
957Q470 953 469 946T467 933Q467 913 470 892T473 851T464 813T434 782Q444 756 435 736T409 696T379 657T364 612Q348 604 339 590T322 559T303 530T272 510Q263 474 239 446T190 391T146 335T126 268Q98 241 90 206T81 134Q81 123 82 112T83 90Q75 95 69 86L68
84Q76 63 86 44T113 7Q139 15 164 24T217 41Q223 65 239 74T272 91T302 108T315 144H317Q332 147 340 157T352 181T358 210T361 237Q358 242 359 251T362 271T364 293T358 313V315L359 317Q364 327 369 335T378 354Q388 381 401 396T446 411Q466 399 469 385T469
355T460 322T458 287L460 284Q454 283 449 278T439 267T430 255T422 245Q429 234 430 223T432 202T440 185T464 176Q482 174 501 171T538 168T574 171T607 188Q607 201 612 205T625 210T641 211T654 219Q648 221 647 223T638 220L635 234L641 238Q648 232 655 234T668
242T681 254T694 264L700 273L708 270ZM406 906Q403 905 399 903Q385 896 369 887T340 867T317 841T308 808Q308 805 308 799T310 790Q306 788 303 782T295 768T284 754T267 745Q276 732 276 719T271 692T258 667T241 643L237 646Q242 626 239 609T229 575T214
542T201 508Q209 517 215 527T229 547Q231 545 236 542T244 538Q241 543 238 549T232 560V562Q245 584 264 600T300 634Q300 662 311 679T337 711T363 740T375 777Q375 782 374 790T371 804L374 805Q393 811 399 822T405 847T405 876T406 906Z" />
<glyph unicode="c" glyph-name="c" horiz-adv-x="625" d="M748 280Q739 255 721 234T681 193T640 154T605 113Q596 116 590 111T578 98Q567 94 556 90T534 79T515 65T502 45Q483 44 469 38T442 24T414 13T378 11Q374 -4 368 -4T354 0T340 4T329 -10Q322 -10 315
-10T301 -9T289 -13T280 -24Q251 -24 219 -28T156 -32T95 -25T42 6Q34 14 29 22T18 40Q15 45 12 49T6 60Q-2 78 -3 97T-4 135T-3 172T-10 209Q-10 226 -3 239T14 266T31 292T40 322Q33 339 41 355T57 385Q60 390 62 395T68 407Q71 413 76 419T85 430Q98 448 111
465T137 500Q146 512 154 524T171 549Q175 555 179 562T187 575Q192 581 204 588T223 600Q243 610 266 614T309 615T344 597T365 555Q367 542 367 530T367 505T374 483T392 463Q381 446 374 428T357 392Q367 389 366 381T365 365Q351 354 346 338T338 306T331 275T314
251Q320 219 294 209Q276 202 270 206T262 219T255 236T238 244Q240 256 241 268T246 293T255 316T272 336Q263 341 265 351T265 371Q272 391 286 413T311 457T325 503T314 548Q310 554 303 558T288 562T276 557T272 541L280 534Q261 528 247 514T219 484T194 450T167
421Q160 393 146 369T117 321Q109 306 106 296T96 272Q94 267 92 263T87 253Q81 231 77 210T53 174Q56 166 58 159T68 145Q57 139 56 131T56 113T63 94T68 75Q80 74 90 66T110 50T131 38T153 40Q161 38 168 39T182 40T195 38T209 26Q216 41 228 44T253 47T279 48T301
60Q313 50 322 52T340 61T358 75T378 82Q402 82 420 89T455 105T489 124T530 137Q540 152 553 158T581 170T609 184T634 212Q654 211 667 223T692 250T716 275T748 280Z" />
<glyph unicode="d" glyph-name="d" horiz-adv-x="690" d="M772 218Q750 168 732 141T693 95T643 62T574 18Q557 17 537 11T503 -7Q473 -4 448 6T401 38Q396 43 392 49T383 60Q372 73 369 83T364 109Q360 132 352 142T321 132L312 140L310 138Q301 131 296 126T285
116T274 104T262 89Q250 74 236 58T202 36Q199 33 197 31T190 27Q184 25 176 28T163 36Q152 36 144 31T128 17T114 -1T99 -16Q83 -10 70 -14T43 -21T17 -25T-9 -9Q-15 21 -19 46Q-23 67 -26 86T-29 109Q-24 114 -24 122T-27 137Q-29 138 -29 139T-31 141Q-26 145
-24 151T-16 161Q-19 169 -23 179T-27 199Q-24 207 -22 208T-10 211Q-11 216 -12 220T-13 230Q-13 240 -9 247T1 262T10 279T14 300V305Q29 305 34 313T40 333T41 355T47 371Q51 375 54 375T63 374Q69 381 71 384T70 398Q77 398 81 401T87 409T92 419T99 428Q99
453 112 463T141 479T174 495T199 527Q212 519 221 525T238 539T256 549T281 536Q287 555 305 556T339 548V547H340Q356 544 364 532T377 504T389 473T408 449Q414 475 419 502T438 553Q447 542 457 549L456 551Q456 567 462 580T475 605T483 631T474 662Q491 667
498 681T510 711T520 745T538 774Q538 777 538 780T537 786Q538 794 543 800T554 812T564 825T568 844Q578 857 586 878T603 919T624 947T655 946Q659 934 658 925T647 905Q653 899 656 895Q653 864 645 834T628 774Q630 772 632 770T636 766Q619 742 609 718T590
666Q587 655 585 643T578 621Q573 611 566 600T554 577Q543 554 535 531T518 483Q508 454 498 426T472 371V355Q471 344 465 340T452 332T437 322T427 300V299L428 298Q438 276 433 258T420 222T411 187T424 152Q423 132 432 121T453 101T477 87T496 70Q506 80
517 85T540 94T563 99T586 106Q612 113 622 123T632 136Q633 150 642 154T664 159T689 164T708 179Q719 178 727 186T743 204T757 219T772 218ZM361 372Q345 384 340 399T331 431T322 461T300 486L298 487Q297 487 287 485T275 482Q283 475 285 470T286 460T281
450T275 436Q273 434 267 437T258 443Q244 422 219 416T170 403Q172 398 174 394T178 385Q148 365 135 337T111 278T86 219T41 170Q46 162 48 154T61 142Q64 131 64 120T61 97T59 75T61 51L63 49Q94 38 111 47T142 70T172 96T217 102L221 108Q219 113 218 117T217
126Q218 137 223 143T236 158Q243 166 249 175T262 194Q268 203 276 209T297 211L316 283Q317 288 325 292T340 301T348 314T337 335Q339 339 340 345T343 356T348 364T358 365L361 372Z" />
<glyph unicode="e" glyph-name="e" horiz-adv-x="608" d="M741 306Q732 297 728 292T720 283T712 273T698 258Q690 250 683 241T667 225Q655 228 649 222T637 209T627 195T615 189Q591 176 567 167T521 139L513 147L409 97Q404 95 399 91T389 84Q367 72 344 63T297
45L284 41Q292 21 284 13T261 2T228 -3T200 -10Q188 -8 176 -8T150 -11Q136 -13 124 -13T98 -10H96Q79 -18 67 -14T44 1T26 26T8 53Q2 61 -7 76T-22 108T-30 142T-23 173Q-14 186 -9 201T-3 236Q-3 243 -3 249T-4 262Q1 262 7 262T18 261T27 265T31 278Q31 283
28 286T23 292Q29 301 34 306T44 317T50 330T49 351Q61 372 77 388T112 419T149 448T185 478Q204 470 215 478T236 495T254 511T278 506L280 504Q307 531 334 528T381 510T407 476T396 449Q407 438 407 423Q407 408 399 397Q390 385 384 373T370 346Q360 323 348
303T314 268Q296 273 290 264T280 245T273 228T256 232L254 234L252 232Q244 224 240 214T227 199Q218 202 208 204T189 208Q189 187 181 175T161 156T132 144T101 133T72 117T50 90Q60 79 75 78T106 77T137 79T165 71L166 70L167 71Q191 74 213 82T257 100T301
118T348 131Q353 123 361 122T378 123L379 125Q381 132 383 137T389 150Q396 161 406 167T427 176T452 180T478 183H480L481 186Q485 198 491 202T505 209T521 212T538 218Q556 212 568 222T591 243L599 233L602 237Q617 251 624 258T639 270T655 281T682 298Q696
307 709 316T736 336Q741 334 741 329T741 318Q740 316 740 312T741 306ZM327 431Q326 432 326 432T324 433Q303 444 289 444T264 436T243 417T223 396T198 381T164 382Q161 366 159 351T155 319Q138 313 129 302T113 278T101 251T86 223L90 218Q94 220 99 215T106
208Q117 224 135 235T173 255T211 276T238 305Q270 314 286 341T313 397Q315 403 320 414T327 431Z" />
<glyph unicode="f" glyph-name="f" horiz-adv-x="604" d="M696 877Q695 839 689 803T666 734L667 733Q678 716 677 700T670 667T655 634T643 601Q624 593 621 580T618 552T612 524T585 503L579 501Q596 484 595 472T583 449T557 429T532 409Q535 407 538 405T543
400Q532 390 520 381T496 361T477 338T468 308Q464 303 458 301T445 298T433 294T424 285L423 284Q423 277 425 267Q406 265 392 258T367 239T344 215T319 191H318V193Q316 195 314 196T310 199Q305 200 295 193T282 182Q277 171 269 161T255 140T249 117T264 91Q257
77 260 61T268 31T275 4T267 -17Q268 -25 269 -31T280 -42H290Q288 -59 288 -85T288 -138T284 -189T273 -226Q281 -234 289 -240T298 -259Q298 -270 293 -281T282 -302T274 -323T279 -343Q261 -353 255 -367T249 -401Q249 -414 250 -435T246 -468Q240 -480 234
-492T221 -516Q209 -541 200 -566T180 -618Q178 -625 176 -631T171 -644Q156 -641 150 -646T140 -657T130 -670T108 -677V-680Q104 -703 84 -721T38 -755T-14 -787T-56 -819H-57Q-75 -817 -91 -828T-123 -848T-157 -860T-198 -845V-844Q-203 -845 -205 -845T-208
-845T-210 -847T-216 -853V-852Q-233 -842 -245 -828T-262 -794Q-260 -792 -258 -790T-253 -785Q-267 -777 -272 -763T-279 -731T-281 -698T-287 -669Q-272 -667 -263 -656T-243 -635Q-245 -633 -246 -625T-248 -615Q-249 -596 -243 -578T-228 -544T-210 -511T-195
-476Q-174 -459 -163 -441T-140 -398Q-137 -391 -132 -380T-119 -358T-104 -339T-88 -327Q-89 -325 -89 -318Q-89 -301 -78 -290T-55 -267T-39 -243T-45 -209Q-17 -184 0 -154T30 -92T58 -31T97 23L99 25Q95 44 90 52T76 63T57 66T34 69T6 80T-26 108Q-40 116 -45
123T-54 139T-61 155T-72 175Q-54 186 -55 199T-64 225T-79 249T-81 266Q-77 275 -66 278T-47 284Q-49 293 -46 301T-36 315T-21 326T-5 334Q4 332 9 334T19 339T26 345T32 350L31 358Q48 363 61 356T86 338Q100 327 111 321T140 317H141Q146 312 151 309T162 301Q167
304 170 307T180 308L172 300L214 267L239 301L234 302L227 309Q227 317 232 322T238 335Q236 339 234 340L236 342Q257 340 261 348T266 367T270 390T292 410Q276 425 279 432T291 443T312 454T323 473Q323 478 322 481T321 490Q321 512 332 530T357 565T381 600T389
642Q389 645 387 651Q396 673 409 693T434 733T456 774T472 818Q476 819 482 820T490 827Q489 832 489 836T488 844H489Q497 843 500 845T508 853Q510 855 512 857T516 862Q518 894 534 912T571 952Q619 966 649 943T696 877ZM636 790Q631 793 629 804T624 828T616
851T599 863L597 861Q583 844 570 823T545 778T521 732T500 690Q498 685 489 668T470 632T451 597T441 580V579Q438 560 432 539T416 498T394 461T367 431Q366 430 366 430T364 429L366 427Q382 405 377 392T361 367T337 343T327 309Q327 298 333 288H351Q365 301
373 318T392 351T416 376T455 387L453 404Q485 436 505 477T528 563Q544 569 549 579T557 603T564 629T583 653L585 655Q585 660 584 664T583 674Q583 691 588 706T602 734T620 761T636 790ZM157 184Q147 194 145 205T142 226T138 244T121 258L120 259Q113 256
103 255T81 255T59 260T42 267L41 266Q15 249 8 227T4 174Q4 172 4 169T6 161Q7 156 8 150Q23 134 36 134T61 141T85 159T110 175H111Q139 158 157 184ZM214 -239Q212 -232 212 -225T220 -214Q212 -207 210 -201T208 -189T208 -178T205 -164Q209 -145 209 -126T206
-89T200 -51T197 -13Q181 -7 177 -10T173 -20T170 -33T153 -39V-43Q158 -52 151 -62T134 -83T115 -105T106 -130Q91 -140 86 -154T77 -183T67 -210T43 -229Q41 -231 41 -232Q36 -248 31 -259T21 -280T9 -300T-8 -323Q-28 -349 -41 -373T-58 -431Q-83 -435 -92 -450T-106
-484T-113 -522T-129 -556H-130Q-144 -577 -159 -598T-186 -642T-205 -689T-213 -740Q-201 -754 -185 -760T-153 -774L-152 -773Q-132 -770 -118 -763T-91 -746T-66 -727T-37 -707Q-16 -708 -1 -703T27 -687T50 -662T70 -632Q79 -615 94 -595T126 -566Q127 -566
127 -566T129 -565Q126 -561 123 -553T120 -539Q119 -515 132 -498T159 -465T177 -432T165 -389Q183 -376 188 -359T195 -323T200 -286T221 -250L224 -247L214 -239Z" />
<glyph unicode="g" glyph-name="g" horiz-adv-x="661" d="M712 286Q701 272 695 255T681 223T660 198T625 189Q609 183 602 168T587 137T569 112T536 109Q508 97 486 78T443 37Q436 30 427 20T410 4Q403 0 396 3T383 9T372 13T362 4Q369 -10 365 -15T352 -24T333
-29T317 -36Q305 -47 300 -63T291 -95T280 -125T255 -148Q265 -155 264 -162T258 -176T253 -191T260 -205Q245 -224 234 -246T211 -290T188 -334T156 -373L159 -397Q144 -393 141 -398T137 -412T137 -430T131 -445Q128 -449 125 -451T118 -456Q86 -480 74 -517Q72
-523 71 -529T68 -542Q63 -556 52 -571T28 -602T3 -635T-16 -671Q-32 -669 -41 -674T-57 -689T-67 -710T-77 -729T-94 -742T-122 -742L-167 -783Q-179 -776 -190 -780T-213 -791T-236 -802T-261 -799Q-268 -807 -273 -807T-285 -799L-300 -815Q-312 -805 -329 -797T-362
-778T-386 -754T-389 -719Q-391 -713 -395 -706T-403 -692T-407 -677T-403 -663Q-412 -646 -410 -629T-402 -594T-394 -560T-400 -526Q-388 -517 -383 -503T-373 -474T-363 -445T-346 -422L-347 -406Q-300 -356 -248 -315T-129 -253Q-116 -230 -95 -220T-53 -201T-13
-180T14 -140Q19 -151 24 -150T34 -145T45 -140T55 -148Q65 -118 87 -100T137 -69T193 -43T242 -12T275 32T280 101Q289 107 292 116T296 136T301 154T314 165Q307 176 297 175T277 169T257 159T242 157Q239 143 230 137T209 127T186 117T167 101Q158 105 151 98T136
82T119 69T98 77Q92 61 79 56T49 51T17 53T-13 52L-30 69Q-32 64 -36 61T-46 60Q-54 77 -61 96T-71 135T-68 173T-44 206Q-16 257 29 286Q34 282 40 283T52 288T65 296T76 302Q79 313 87 323T106 341T128 355T150 367Q169 376 185 389T219 415T254 437T295 446L313
430Q296 420 284 406T258 377T230 350T193 334Q175 299 145 275T82 229Q82 214 73 205T52 189T28 177T9 163T1 142T14 109Q26 115 43 117T76 122T104 133T122 157Q136 169 152 172T185 173Q218 209 251 239T315 302T370 370T415 455Q435 461 451 450T474 422Q472
410 468 400T460 380T455 359T458 334Q450 336 446 329T436 317Q439 304 435 294T425 274T415 253T412 229Q398 203 392 175T383 117L401 101Q414 120 433 128T473 141T512 154T545 181Q551 210 570 222T610 244T650 264T678 302H703Q701 297 705 293T712 286ZM159
-157Q149 -163 137 -168T113 -179T91 -193T76 -213Q65 -207 56 -212T37 -225T19 -238T-2 -237Q-21 -249 -38 -263T-74 -290T-111 -315T-153 -333Q-164 -351 -182 -361T-218 -382T-252 -406T-271 -445Q-302 -465 -313 -496T-326 -563T-323 -635T-319 -702Q-306 -717
-293 -723T-266 -729T-238 -726T-206 -719Q-202 -704 -192 -700T-170 -693T-149 -688T-138 -671L-129 -679Q-128 -663 -120 -653T-101 -633T-78 -616T-56 -598Q-58 -579 -49 -566T-29 -542T-10 -518T-3 -485Q7 -481 11 -472T19 -455T29 -443T50 -445Q36 -434 38
-428T48 -418T61 -407T61 -389Q85 -379 92 -360T102 -320T113 -278T144 -245Q142 -227 150 -214T167 -188T179 -163T172 -132L159 -157Z" />
<glyph unicode="h" glyph-name="h" horiz-adv-x="592" d="M633 119Q612 74 593 48T551 5T494 -28T411 -66Q391 -61 372 -63T336 -67T302 -64T273 -39H258Q259 -26 256 -12T236 5Q246 16 249 29T253 57T258 84T273 106Q261 122 263 138T274 171T292 204T302 238Q293
244 286 254T265 260Q238 234 211 211T159 162T111 110T69 49Q52 46 43 33T27 6T12 -22T-12 -39Q-17 -55 -22 -71T-33 -104Q-39 -101 -48 -99T-67 -94T-83 -87T-92 -75Q-93 -73 -93 -67T-92 -58Q-90 -30 -78 -6T-51 42T-25 90T-12 143Q3 143 7 152T14 171T21 189T39
195Q30 207 31 221T39 250T54 278T69 303Q68 317 71 331T84 356Q93 367 100 377T114 398Q118 403 120 409T126 420Q135 433 138 447T144 476T154 502T178 521Q178 532 181 541T189 561T196 580T200 601Q203 606 209 611T220 621T228 631T229 645Q230 658 229 672T236
696Q234 709 239 717T253 731T270 742T287 755Q282 762 285 771T293 788T306 805T316 819Q322 831 326 843T337 865T351 885T374 900Q370 920 376 931T394 950T419 965T440 987Q451 990 464 993T490 998T515 998T537 987Q541 983 542 982T543 981T543 979T548 973Q552
969 556 966T564 957Q565 950 564 942T563 925T565 910T578 900Q570 871 571 838T572 772T567 707T541 652L534 601Q521 600 516 593T509 575T506 554T498 536Q490 526 482 513T465 489T445 471T418 463Q416 457 410 449T397 434T381 421T367 413Q359 410 353 409T338
402Q329 397 320 389T301 375T280 367T258 369Q245 353 229 350T197 345T168 338T147 313Q145 311 144 305T142 296Q142 285 141 269T149 245Q185 262 217 285T287 325L294 317Q297 339 313 339T346 339H353Q355 339 356 339T360 340Q379 340 385 325T396 296Q385
284 379 268T367 233T355 198T337 165Q346 160 345 154T342 142T340 131T353 122Q343 115 340 106T334 86T328 66T316 49Q320 40 322 32T323 12Q337 -6 351 -8T380 -6T409 2T440 0Q468 19 479 23T496 29T512 38T546 69Q571 76 590 92T633 119ZM484 936Q485 924
479 918T464 906T449 895T440 878Q427 872 423 862T417 842T409 821T389 805L396 798Q363 768 344 727T309 645Q295 630 289 612T278 575T264 540T236 514Q246 501 244 490T233 469T217 449T207 427Q226 423 244 428T281 442T315 464T346 485L353 478Q398 503 427
538T484 616Q475 623 476 631Q478 636 481 643T486 655Q496 685 501 711Q514 765 519 819T527 929L484 936Z" />
<glyph unicode="i" glyph-name="i" horiz-adv-x="386" d="M264 624Q246 617 244 603T242 574T241 546T221 529Q214 541 204 551T183 572T167 595T163 624L213 682Q225 678 232 672T244 658T253 642T264 624ZM458 176Q459 154 455 145T444 131T434 119T429 96Q406
71 392 60T365 41T336 24T292 -4L285 -5Q282 -20 275 -22T258 -25T239 -27T224 -44Q207 -49 195 -48T164 -47Q158 -47 149 -46T133 -47Q129 -48 125 -52T115 -60T105 -63T96 -54Q84 -57 74 -54T55 -44T39 -28T24 -10Q19 -4 13 1T2 11Q-9 22 -14 39T-20 74T-19 110T-13
142Q-4 151 -1 162T5 186T11 209T24 230Q24 243 28 254T40 275T57 293T75 310Q83 310 91 310T106 310T118 304T126 289Q133 262 123 246T99 214T78 183T82 142Q71 142 68 136T63 123T58 108T46 98Q52 92 52 77T55 49T64 27T89 26Q102 15 120 17T155 18Q169 27 179
27T198 26T217 21T241 24Q245 41 255 44T275 47T293 51T305 71Q313 81 324 82T346 86T367 94T381 120Q398 133 405 139T418 150T431 159T458 176Z" />
<glyph unicode="j" glyph-name="j" horiz-adv-x="318" d="M100 605Q87 602 83 592T77 569T75 545T70 526T57 519T28 532Q14 535 8 543T-1 562T-6 584T-13 605L44 671Q57 666 65 659T78 643T88 625T100 605ZM411 128Q384 102 361 78T313 32T264 -12T207 -52Q192
-62 177 -70T145 -85Q140 -87 135 -89T125 -93Q119 -96 105 -106T83 -122Q61 -136 38 -152T-5 -189T-35 -233T-45 -288Q-62 -297 -70 -312T-81 -346T-85 -382T-90 -417Q-92 -427 -95 -434T-102 -450Q-104 -453 -104 -455T-105 -459Q-112 -472 -118 -481T-119 -507Q-131
-509 -133 -516T-136 -534T-135 -554T-142 -571Q-151 -571 -155 -575T-163 -586T-168 -600T-175 -612Q-178 -638 -189 -659T-214 -702T-240 -744T-256 -791Q-265 -804 -274 -818T-295 -842T-321 -859T-354 -864Q-383 -861 -409 -845T-457 -804T-496 -753T-524 -701Q-517
-694 -517 -686T-519 -670T-526 -653T-532 -637Q-515 -612 -512 -582T-500 -523Q-480 -509 -467 -484T-460 -434Q-445 -414 -424 -396T-381 -360T-341 -323T-313 -280Q-296 -282 -286 -275T-267 -258T-249 -241T-224 -230Q-219 -221 -211 -212T-193 -196T-173 -190T-151
-199Q-138 -202 -131 -194T-117 -176T-105 -161T-86 -166Q-77 -160 -75 -151T-78 -133Q-55 -70 -37 -8T1 119L26 204Q28 212 30 221T36 240Q39 248 43 256T53 272Q61 285 70 296T89 311T111 312T133 289Q129 265 125 239T113 186T96 137T69 94Q77 75 75 59T68 28T57
-2T52 -36Q47 -41 41 -46T36 -60Q45 -68 66 -59T111 -36T157 -7T191 10Q188 13 185 17T183 27Q208 40 225 46T259 57T291 73T330 104Q345 120 367 125T411 128ZM-97 -247Q-118 -244 -132 -252T-157 -272T-178 -296T-203 -312Q-210 -314 -218 -313T-234 -312T-248
-314T-259 -329Q-274 -338 -284 -351T-303 -377T-325 -401T-356 -418Q-371 -450 -390 -479T-427 -537T-454 -599T-462 -670Q-451 -681 -441 -694T-421 -720T-398 -743T-369 -757Q-366 -758 -359 -759T-348 -759Q-335 -757 -327 -748T-313 -725T-303 -699T-292 -677Q-274
-666 -264 -652T-247 -622T-235 -589T-219 -556L-226 -548L-203 -523Q-217 -506 -213 -497T-199 -479T-181 -461T-178 -434Q-164 -431 -160 -424T-155 -408T-159 -388T-162 -368T-157 -350T-137 -336Q-145 -320 -141 -308T-127 -285T-109 -266T-97 -247Z" />
<glyph unicode="k" glyph-name="k" horiz-adv-x="646" d="M738 272Q736 245 724 224T693 186T654 153T616 120Q619 99 610 95T589 91T564 88T547 67Q533 67 524 58T506 40T486 24T456 20Q451 10 443 7T426 3T409 0T394 -10L379 12Q336 -7 296 -4T210 5Q204 16
197 25T182 43T168 61T157 82L172 97L157 112Q157 120 158 130T159 149T155 167T141 181Q118 159 102 133T70 78T37 23T-4 -26Q1 -41 -7 -46T-27 -56Q-46 -37 -49 -17T-48 26T-34 69T-16 111Q-11 123 -9 134T-4 158Q-2 166 0 173T5 189Q9 206 12 221T18 254Q28
313 37 372T70 487Q74 540 96 584T147 671Q143 682 148 695T163 722T183 748T200 770Q188 786 196 797T219 819T244 842T250 871Q256 884 270 891T299 904T326 917T340 939Q366 940 384 931T417 901Q416 894 417 885T418 866T417 848T409 833Q417 827 416 818T410
798T400 778T395 760Q394 732 381 704T348 655Q336 605 317 559T264 472Q268 463 263 457T251 444T242 431T249 418Q278 463 322 487T417 525Q424 518 431 516T447 510Q453 522 461 522T477 517T493 504T509 495Q524 484 528 469T532 438T532 404T539 373Q521 337
494 306T440 243L432 250Q404 223 368 202T295 166Q281 173 269 178T240 181Q217 164 212 136T218 82Q225 65 235 61T256 57T279 58T302 51L310 58Q317 49 323 50T337 54T350 59T363 51Q373 64 388 65T419 66T449 68T471 89Q486 86 494 92T510 105T525 120T547
127Q563 138 577 151T604 178T631 205T662 227Q672 228 680 237T696 255T715 270T738 272ZM289 825Q284 819 277 808T263 785T254 760T253 739Q246 734 237 723T219 698T206 671T202 648Q186 641 184 629T182 604T177 581T151 567L163 548Q164 540 163 537T159
531T153 526T146 518Q156 510 152 504T140 491T127 474T131 449Q114 434 107 408T95 351T88 289T78 233Q116 310 157 383T233 534Q228 551 236 563T254 587T271 609T271 633Q276 638 281 643T295 648Q293 657 296 670T306 697T319 722T335 739Q332 752 340 767T355
798T363 827T348 851L289 825ZM456 426Q450 434 444 441T432 457Q421 470 415 466T403 453T387 438T363 441Q340 422 315 402T266 360T224 313T196 256Q206 240 219 236T246 232T270 235T287 234Q299 244 312 250T340 261T368 273T394 288Q427 312 443 349T456
426Z" />
<glyph unicode="l" glyph-name="l" horiz-adv-x="536" d="M658 328Q659 313 653 299T641 274L609 240L590 183Q579 175 567 168T544 152Q533 143 525 132T506 113Q496 105 483 100T458 87Q438 75 421 62T384 37Q379 35 377 33T369 28Q366 26 343 20T293 7T241
-7T214 -13Q196 -15 177 -15T139 -16L124 -25Q113 -17 100 -10T78 5Q68 14 58 25T40 47Q35 61 30 74T22 101L17 139Q15 158 14 176T10 213Q27 260 40 307T74 401Q79 412 83 423T93 446Q99 458 106 468T118 490Q123 502 126 514T134 538Q137 544 144 555T159 579T174
604T187 623Q195 633 203 642T216 662Q226 679 235 705T255 751Q267 773 283 792T314 833Q329 854 343 879L387 911L407 891L455 899L485 854Q483 839 481 820T477 782T475 744T476 711Q471 693 462 674T440 640L436 586L396 550L391 499L357 459Q354 445 351 431T343
403Q338 391 331 379T317 353Q297 336 276 315T238 273Q229 262 222 250T206 226Q180 193 150 164T91 104L113 65Q134 58 156 52T200 41Q210 43 223 45T250 51T277 59T300 67Q320 75 346 90T390 118Q422 138 455 159T518 203Q538 218 560 241T601 284T636 318T658
328ZM386 801Q365 766 342 734T298 666Q291 654 286 642T273 617Q266 606 258 595T244 571Q232 548 223 523T202 473Q190 449 174 428T145 383L129 351Q127 346 125 344T121 336Q117 325 117 312T114 288Q111 276 105 265T94 243Q89 232 86 221T79 198Q87 206 96
212T115 227Q124 236 132 246T150 264Q159 272 169 278T190 292Q206 314 218 337Q224 348 228 362T240 387Q246 398 255 408T272 429Q280 440 285 452T298 475Q312 497 329 517L334 580L370 622L375 660L400 695L403 751L386 801Z" />
<glyph unicode="m" glyph-name="m" horiz-adv-x="1053" d="M1104 174Q1095 166 1080 154T1059 131Q1053 121 1050 113T1042 100T1030 91T1009 88Q1009 85 999 76T976 56T954 36T944 23L935 28Q933 29 924 28T902 22T877 9T858 -12L854 -11Q839 -7 824 -9T793 -12Q761
-14 746 -3T714 41Q710 48 707 56T702 72V76Q716 84 717 97T716 126T714 155T724 178Q718 194 725 208T740 236T747 261T725 286Q702 277 682 264T641 236T600 207T556 184Q535 161 512 145T468 110T429 70T402 14Q397 20 392 22T379 26Q368 29 363 32T350 43L351
45Q360 71 372 98T384 152Q384 162 382 170T380 189Q380 207 386 222T399 250T413 275T420 302Q420 313 415 324T402 343Q387 344 374 340T348 329T321 319T291 315Q270 294 248 274T204 233Q158 192 115 148T45 48Q40 37 37 26T28 3Q28 1 26 -1H21Q10 -1 7 -7T2
-20T-2 -35T-11 -44Q-19 -46 -26 -41T-39 -31L-40 -30Q-50 -14 -51 3T-48 36T-35 69T-18 99Q-6 120 4 142T15 190Q15 201 13 209T8 227L30 242Q25 249 25 254T24 265T25 274T24 284V287L32 296Q30 329 30 358T18 419Q32 432 45 426T71 411V410L72 409Q80 397 86
380T95 345T101 308T103 276Q103 272 103 269T102 261L96 255Q101 250 107 245T120 241Q126 259 139 264T165 273T189 281T200 305Q200 309 199 311L201 313Q229 341 258 363T320 397T388 406T465 384L467 383L478 342L471 335Q481 321 479 303T470 266T459 233T460
210Q465 203 478 204T500 206Q508 217 522 225T551 240T577 254T589 271Q605 268 615 272T631 286T642 305T653 325T670 340T697 343Q720 366 751 376T815 388Q838 389 847 375T856 340Q856 314 844 290T817 241T790 189T778 129Q778 126 778 119T779 104T781 90T786
81Q790 79 793 78L788 74Q811 71 829 66T868 69Q874 71 880 72T893 75Q902 76 904 82T911 95T929 107T971 113V129Q991 135 1005 144T1032 162T1062 174T1104 174Z" />
<glyph unicode="n" glyph-name="n" horiz-adv-x="599" d="M538 36Q539 24 534 18T521 9T502 5T485 -1Q456 2 429 7T379 24T338 55T306 103Q319 124 315 149T308 199T308 243T343 275Q341 286 343 299T336 321Q301 309 275 287T226 239T179 187T127 140Q114 139
100 141T75 133Q76 126 80 121T86 111T89 101T82 88Q72 78 61 72T39 58T21 40T14 13Q8 16 3 15T-6 9T-15 0T-23 -8Q-25 -13 -22 -16T-15 -24Q-19 -35 -25 -37T-39 -38T-54 -32T-68 -24Q-71 -11 -72 6T-71 39T-63 71T-45 96Q-41 99 -40 99T-39 100Q-39 100 -38 100T-34
104Q-26 113 -23 123T-18 145T-13 166T0 185Q-4 201 0 213T12 237T27 260T37 286Q38 291 38 295T37 305Q35 321 40 329T54 343T72 355T89 373Q118 359 123 336T127 283Q110 272 101 253T89 215Q91 209 94 209T102 209T111 213T119 215Q155 240 190 271T246 342Q275
356 301 374T358 402L381 425Q386 417 393 421T407 432T420 439T433 425Q443 399 438 375T423 327T401 279T388 230Q388 224 388 218T387 204Q385 183 382 159T384 114Q389 96 405 82T433 54Q440 55 447 53T460 49T473 47T485 54Q492 57 498 54T511 45T523 37T538
36Z" />
<glyph unicode="o" glyph-name="o" horiz-adv-x="552" d="M673 314Q677 299 670 289T652 270T627 256T604 241Q559 231 523 227T442 215Q429 213 418 215T394 217Q387 217 381 217T369 217Q346 215 339 202T328 171T317 138T289 116Q287 111 290 107T296 100Q279
95 274 82T264 56T253 34T224 28Q193 -5 151 -25T64 -52Q56 -48 49 -42T34 -31T18 -24T-2 -23Q-3 -2 -10 16T-30 50Q-32 68 -26 83T-12 114T-1 144T-2 180Q8 186 11 194T16 210T21 226T35 239Q27 263 37 274T63 295T91 315T101 348Q107 354 115 358T130 365T145
373T158 384Q151 389 151 394T154 404T158 416T158 428Q185 424 205 435T244 459T282 476T326 464Q328 457 332 444T341 416T350 389T355 370Q355 365 355 354T355 331T355 307T355 290Q384 273 413 270T471 283Q482 273 492 277T511 288T531 294T551 278Q565 291
580 294T611 298T642 301T673 314ZM289 297Q289 312 294 329T302 362T302 394T282 421Q271 415 264 405T250 384T234 366T209 362Q204 350 209 343T221 329T234 315T239 297Q243 294 250 292T264 289T279 290T289 297ZM282 217Q262 217 248 226T219 248T189 270T151
283Q142 271 130 261T109 238T97 212T101 180Q78 169 70 149T60 104T55 56T42 13L64 28Q68 26 70 22T71 13Q79 21 89 25T109 32T130 37T151 43Q176 29 187 37T205 61T220 94T246 116L239 123Q256 144 269 166T282 217Z" />
<glyph unicode="p" glyph-name="p" horiz-adv-x="688" d="M750 245Q748 220 737 200T708 164T671 135T632 111Q623 115 615 110T597 100T579 92T559 98Q551 81 540 81T516 84T492 86T475 63L468 71Q450 60 433 43T398 9T359 -17T315 -22Q309 -34 299 -34T277 -27T256
-11T241 4Q236 -4 231 -3T219 2T207 12T194 16Q180 58 158 86T107 145Q104 134 99 125T88 108T78 90T72 69L66 61Q77 45 74 35T61 15T44 -4T38 -31Q31 -37 28 -47T23 -70T18 -94T9 -115Q12 -127 7 -133T-6 -146T-21 -161T-26 -184Q-25 -194 -25 -194T-24 -203Q-24
-217 -31 -230T-55 -246Q-45 -271 -47 -284T-57 -306T-78 -320T-100 -334T-117 -355T-119 -392Q-115 -418 -126 -432T-150 -458T-171 -486T-170 -529Q-173 -541 -178 -543T-190 -543T-203 -536T-216 -532Q-216 -524 -220 -517T-228 -503T-232 -489T-226 -473Q-235
-464 -235 -452T-233 -427T-225 -400T-219 -376Q-209 -364 -205 -351T-198 -323T-192 -294T-179 -268Q-186 -246 -180 -231T-165 -202T-147 -175T-141 -139Q-121 -92 -93 -48T-47 47Q-24 70 -10 100T6 162Q19 171 24 183T35 208T49 231T74 249Q70 263 71 271T78
294Q87 297 88 303T89 317T88 333T94 347Q98 351 98 351T99 352Q99 352 100 352T104 357Q110 365 115 375T126 395T140 409T163 412Q169 407 173 399T180 383T189 370T203 367Q207 367 212 370Q225 379 237 389T262 410Q270 401 276 402T289 409T303 421T321 428Q364
432 395 421T456 377Q461 371 467 364T478 348Q486 333 487 310T488 262T484 212T482 169L517 141Q582 152 641 176T750 245ZM429 180Q417 197 418 213T424 245T432 276T427 308Q420 322 413 334T398 358Q372 374 350 370T307 353T263 329T215 317Q207 306 198
299T180 285T160 274T139 260Q131 232 143 217T175 190T216 166T246 132Q265 142 282 138T315 128T347 122T378 140Q388 132 396 135T409 146T419 164T429 180ZM370 65Q365 65 359 65T349 71L343 63Q334 60 326 63T309 69Q299 64 288 65T265 72T242 83T222 93Q224
76 231 71T249 62T269 55T285 37Q310 31 331 36T370 65Z" />
<glyph unicode="q" glyph-name="q" horiz-adv-x="597" d="M669 120Q650 101 633 74T604 24Q594 17 583 11T562 -4Q553 -12 544 -21T525 -37Q520 -41 519 -42T516 -45T512 -49T505 -54Q505 -54 500 -55T490 -58T479 -61T473 -63Q472 -65 467 -69T455 -79T442 -89T434
-96Q428 -94 422 -93T409 -90Q407 -94 405 -98T400 -106Q395 -106 390 -107T380 -109L377 -121L379 -122L380 -130L382 -127Q387 -152 387 -179T382 -230Q380 -243 377 -255T371 -281Q369 -293 368 -306T364 -332Q364 -334 362 -342T356 -359T351 -375T349 -383Q344
-394 339 -406T328 -429Q323 -440 319 -453T310 -478Q307 -485 300 -497T284 -523T267 -548T254 -565Q246 -574 235 -582T215 -599Q195 -616 175 -632T132 -662L76 -658L22 -633Q24 -625 26 -616T30 -598Q25 -588 22 -573T15 -543T10 -514T5 -488Q9 -476 13 -464T22
-439Q26 -427 28 -415T36 -390Q41 -379 47 -368T58 -345Q58 -344 59 -337T63 -319Q65 -308 67 -294Q72 -283 77 -271T87 -248Q92 -237 98 -226T110 -204Q114 -193 116 -180T121 -156Q123 -145 128 -134T137 -112Q133 -101 129 -90T121 -68Q122 -56 122 -43T124
-18Q126 -7 130 5T139 28Q151 33 162 39T186 50Q190 58 194 65T204 79Q196 75 186 72T168 62Q150 48 127 31T83 5Q72 0 59 -3T34 -9L-17 -4Q-23 4 -33 18T-47 41Q-51 50 -54 68T-61 97Q-53 109 -46 120T-29 142L-8 190Q-8 192 -3 197T9 209T21 222T28 230L50 278Q59
286 71 294T91 311Q99 321 106 333T122 354Q122 354 129 359T143 370T158 381T165 387Q187 401 211 410T259 429Q264 431 272 434T289 442T305 450T317 457Q322 459 330 461T347 467T363 473T375 479L433 462L461 399Q445 396 430 394T399 388Q393 374 389 363T380
342T370 320T357 294Q352 283 348 269T337 245Q334 232 331 219T324 194Q323 192 318 178T306 148T293 117T283 98Q281 87 278 76T273 54Q282 49 290 43T307 32Q318 13 328 -6T345 -45Q366 -40 388 -35T433 -27Q450 -14 458 -10T484 3Q485 4 492 8T507 17T521 27T529
32Q539 40 548 49T568 66Q590 82 615 98T664 128L669 120ZM311 375Q311 383 311 392T309 410Q295 396 281 384T252 357H251Q215 337 187 318T133 265Q126 256 120 246T105 227Q98 219 89 212T73 196Q67 187 61 174T50 151Q39 130 34 122T27 107T24 93T18 66Q35
68 50 70T83 74Q93 84 104 92T125 112Q145 131 165 151T210 185Q212 192 222 206T243 234T264 260T275 274Q284 299 292 325T311 375ZM301 -60Q299 -53 298 -47T294 -33Q289 -32 285 -31T275 -29Q267 -28 260 -30T244 -33Q242 -41 238 -50T231 -68Q240 -67 248
-67T265 -66Q275 -64 283 -63T301 -60ZM328 -185Q326 -172 324 -160T319 -133Q292 -137 264 -140T207 -150Q197 -171 187 -192T169 -237Q165 -248 163 -261T155 -285Q150 -296 143 -306T129 -328Q125 -335 120 -350T113 -374Q106 -397 99 -420T86 -467Q84 -478
82 -490T78 -515Q76 -526 73 -538T67 -562Q74 -570 80 -577T94 -593Q117 -586 134 -578Q145 -572 154 -566T175 -554Q186 -531 199 -513Q201 -512 208 -507T222 -497T235 -488T242 -482Q250 -473 255 -462T267 -439L293 -396Q299 -385 304 -374T314 -350Q316 -325
320 -296T333 -244L328 -185Z" />
<glyph unicode="r" glyph-name="r" horiz-adv-x="661" d="M711 198Q688 187 680 171T668 138T657 106T629 80Q624 62 610 55T579 43T551 28T538 -3Q518 -14 495 -23T446 -36T395 -40T348 -30Q333 -23 319 -12Q314 -8 310 -6T300 2Q288 14 280 30T267 64T259 100T254
134L291 234Q262 257 244 287T200 344Q195 337 187 332T181 316L191 307Q158 271 125 226T72 134Q50 135 41 124T26 98T11 71T-19 61Q-24 50 -29 38T-41 14T-58 -4T-83 -12Q-91 -4 -92 5T-90 23T-82 42T-75 61Q-67 90 -46 113T-4 160T32 210T44 271Q57 272 70 276T95
288T113 307T118 335Q110 339 109 346T109 362Q131 369 144 386T169 424T190 464T218 500Q232 492 246 487T273 472Q264 460 262 449T260 427T260 404T254 381Q270 367 281 348T309 316Q321 325 336 325T366 326T396 327T419 344Q423 340 431 340T447 340T461 338T468
328Q469 320 468 317T464 307Q462 299 463 299T461 292Q456 279 445 270T422 253T401 234T391 207Q369 199 360 184T348 149T344 109T337 71L346 61L354 71Q368 51 387 46T428 43Q438 58 451 67T480 82T512 93T544 105Q556 111 564 118T583 134Q613 162 642 189T702
244Q708 244 710 238T712 225T712 210T711 198Z" />
<glyph unicode="s" glyph-name="s" horiz-adv-x="592" d="M684 250Q679 219 672 203T655 176T628 156T590 128Q582 122 575 117T561 105Q541 99 512 86T453 59T395 35T350 27Q344 19 329 17T306 15Q293 15 280 13T256 1Q254 -1 254 -1T253 -2T254 -2T251 -6Q240
-19 229 -20T206 -17T184 -5T161 5T137 7T113 -10Q106 8 91 11T61 14T31 17T12 36V37L-9 55L-12 52Q-17 47 -20 41T-27 30Q-35 18 -44 7T-64 -13T-89 -26T-117 -29Q-117 -5 -104 15T-78 54T-62 94T-78 138Q-79 152 -90 165T-112 192T-123 219T-106 245Q-115 247
-118 252Q-118 257 -116 262T-111 273Q-105 273 -99 275T-87 279T-77 280T-68 270Q-65 264 -63 257T-58 243Q-50 223 -38 206T-11 173L-8 170Q-8 171 -4 175T5 183T14 192T20 198Q32 209 43 219T62 239T75 263T80 295Q111 316 141 341T202 391T266 434T339 460Q348
444 360 435T383 417T404 395T418 359Q426 316 419 278T397 199Q389 175 383 150T376 99L383 97Q392 109 403 112T427 116T450 119T470 134Q483 129 494 133T517 146T539 163T562 175L561 183Q579 195 592 200T616 210T638 224T663 254Q668 256 674 256T684 250ZM335
349Q330 351 325 352T314 357Q305 363 297 366T278 364V362H277Q226 323 183 277T91 186L82 195Q75 186 75 176T74 157T72 140T60 125L57 123Q61 109 68 106T84 102T101 104T114 101Q117 99 118 95T119 88Q124 88 129 88T141 89Q152 91 164 90T179 74Q199 82 220
91T254 120L261 113Q262 113 262 113T264 114Q289 129 303 158T325 221T333 289T335 349Z" />
<glyph unicode="t" glyph-name="t" horiz-adv-x="478" d="M711 723Q697 708 680 708T647 710T615 713T588 696Q572 700 555 698T520 691T484 682T448 679L431 696Q424 685 412 683T387 688Q366 674 345 675T304 676T267 669T237 627Q228 604 220 581T204 534Q182
474 160 416T109 300Q107 255 111 209T120 118Q116 106 117 93T124 67T136 43T151 22L169 39L194 4Q204 17 217 31T246 58T277 79T311 91Q318 98 324 106T337 119T352 127T373 126Q405 144 430 171T480 226T532 277T597 309Q573 251 536 197T453 99Q441 85 423
74Q415 69 406 64T389 53Q362 35 337 15T289 -31Q286 -25 281 -23T270 -21T257 -22T245 -22Q226 -36 196 -44T141 -48Q134 -46 122 -41T104 -31Q65 -5 46 33T24 118L16 126Q29 138 32 150T35 174T30 200T25 228Q24 237 25 243T29 257Q37 289 44 319T59 381Q79 457
105 531T161 679Q145 685 129 686T97 688T64 689T31 696Q24 699 24 699T16 700Q11 700 2 699T-16 697T-32 699T-41 708V718Q-40 734 -34 739T-19 746T1 748T22 755Q50 749 75 747T123 747T169 760T214 790Q230 821 238 856T256 926T284 990T336 1040Q352 1042 364
1036T388 1023Q383 1009 380 994T374 964T365 935T350 909Q363 904 365 897T363 882T353 865T346 849Q335 848 328 835T312 815Q304 798 315 786T335 763Q344 760 353 762T369 768T384 771T397 763Q407 774 417 773T437 768T457 764T476 780Q488 786 498 783T518
776T535 769T553 772Q568 770 586 771T623 775T660 782T694 790Q709 781 712 774T714 760T710 745T711 723Z" />
<glyph unicode="u" glyph-name="u" horiz-adv-x="732" d="M690 50Q678 50 672 50T660 48T649 44T633 35Q629 24 623 19T608 10T590 3T573 -9Q497 -21 439 25Q432 30 427 36T414 47Q409 51 409 51T404 55Q397 65 396 79T391 107T380 130T350 139Q340 118 322 97T280
58T232 30T183 19Q175 -4 156 -15T114 -33Q112 -34 106 -35T99 -37Q85 -38 77 -32T62 -19T47 -6T25 0Q14 26 3 51T-13 102Q-4 107 -4 114T-3 130Q-19 135 -19 142T-17 158T-10 173T-13 186Q-5 247 22 304T99 399Q93 418 102 428T125 439T151 433T164 409Q165 402
163 395T159 382Q153 352 141 324T115 269T87 215T62 159Q50 151 54 142T64 125T71 108T53 93Q47 79 56 69T71 47Q79 46 86 47T99 56Q111 48 120 53T140 65T163 78T192 75Q199 82 203 92T213 111T225 126T247 130Q261 155 284 171T330 203T372 235T396 279Q415
309 434 346T480 409Q483 417 490 421T505 427T521 427T535 418Q537 400 531 385T517 356T505 325T508 288Q494 280 481 274T456 261T436 243T424 214Q451 204 456 189T461 157T463 121T489 84Q493 81 494 80T501 76Q511 73 519 76T534 83T550 86T570 73Q585 92
598 73Q610 95 620 98T639 100T659 102T681 127L690 118Q696 134 704 134T721 131T735 130T741 154Q750 154 756 158T769 167T784 175T803 179L777 116L690 50Z" />
<glyph unicode="v" glyph-name="v" horiz-adv-x="595" d="M748 384Q744 363 732 345T702 313T664 290T624 276Q594 263 569 257T517 248T463 247T400 250Q391 247 388 240T384 225T384 209T384 193Q375 194 370 187T359 175Q360 154 353 144T337 126T316 110T296
85Q292 79 291 74T288 60Q285 46 275 43T253 39T233 33T223 11Q201 5 180 -8T138 -35T96 -54T50 -53Q45 -51 37 -47T24 -39Q22 -37 19 -32T13 -24Q3 -8 -2 11T-9 49T-11 89T-10 127Q-5 125 -1 128T7 135L-2 160Q4 158 8 161T15 168Q0 176 0 184T4 202T16 222T24
243Q25 267 29 288T40 331T53 373T65 417Q82 419 96 432T124 458T153 473T189 458Q193 434 186 414T168 375T151 336T148 292Q110 275 99 243T83 174Q82 163 80 151T73 127Q79 113 75 100T68 73T65 49T81 28Q147 47 194 84T280 176Q302 207 320 237T351 300T367
367T363 441Q373 442 381 451T397 466T413 473T430 458Q445 451 445 442T443 422T437 402T446 383Q443 381 439 375T432 360T427 344T426 333Q435 317 446 317T469 320T493 325T517 316Q542 319 562 322T600 330T638 339T683 351Q696 367 712 373T748 384Z" />
<glyph unicode="w" glyph-name="w" horiz-adv-x="1063" d="M990 364Q991 347 986 332T975 301T964 270T958 237Q947 238 941 231T930 212T922 190T916 172Q896 134 866 100T799 36T722 -18T642 -59L641 -60Q623 -60 602 -59T565 -44Q551 -46 534 -42T507 -27L506
-26Q498 -12 489 -2T469 19Q455 34 443 48T423 82Q415 105 409 128T392 175Q374 153 355 138T318 107T285 73T257 25L256 23Q226 23 205 8T163 -22T122 -42T72 -28H38L37 -26Q19 11 3 52T-23 135T-31 220T-14 304Q-7 321 1 336T21 366Q22 367 22 368Q28 363 34
371T44 382V416Q47 417 52 417T63 417T72 417T77 422Q78 423 77 425T76 429Q76 441 82 448T98 462T116 472T129 482Q137 482 144 482T157 476Q163 471 165 462T168 444T170 424T174 407L175 406Q175 392 169 383T154 365T137 349T125 330V329Q114 315 103 301T78
273Q89 264 86 258T76 246T67 236T77 225Q74 216 67 208T54 190T45 172T50 152L52 151Q49 146 50 133T55 104T63 74T68 52Q76 39 87 35T109 31T127 37T135 49L142 52Q144 45 148 45T157 49Q162 51 164 52T171 54Q189 58 208 71T245 101T274 138T292 175V177H294Q314
185 327 200T351 230T375 258T408 275Q411 283 417 289T428 302T438 315T443 330Q443 334 442 340T440 348Q444 352 456 361T480 382T504 403T517 418L519 416Q530 405 534 394T538 371T535 347T530 322L529 321Q523 311 518 304T504 288Q491 275 480 256Q483 241
480 226T474 197T471 168T481 140Q472 135 472 130T474 118T482 106T488 93Q502 75 521 65T561 51T603 47T646 46H674Q706 46 725 61T758 97T788 140T827 176Q827 192 834 200T848 214T860 227T859 250Q871 254 879 265T893 289T905 316T918 340Q915 351 916 361T919
380T917 399T902 418L901 419V420Q896 432 899 440T909 455T921 468T926 482Q957 482 970 472T988 445T991 407T990 364Z" />
<glyph unicode="x" glyph-name="x" horiz-adv-x="406" d="M475 246Q467 222 462 210T450 189T434 171T407 144Q399 136 392 131T376 118Q362 105 350 93T325 70T297 52T260 42Q252 25 237 19T204 10T170 6T144 -3L141 -2Q134 -1 123 3T99 12T75 18T57 17Q53 14
51 7Q56 -6 55 -19T35 -33Q34 -38 28 -50T14 -77T-1 -105T-12 -122L-13 -125Q-15 -130 -15 -136T-18 -148Q-20 -156 -26 -161T-36 -174Q-38 -180 -40 -185T-45 -198Q-43 -200 -40 -203T-33 -208L-36 -210L-35 -220Q-39 -228 -43 -234T-50 -248L-73 -243Q-73 -232
-73 -222T-72 -200L-68 -202Q-72 -195 -73 -187T-82 -175Q-71 -146 -62 -115T-44 -53Q-45 -61 -43 -61T-39 -57T-33 -50T-30 -45Q-31 -42 -31 -36Q-32 -16 -30 -4T-24 18T-14 39T-1 67Q12 99 23 133T32 203Q31 214 29 225T23 248L25 251Q30 259 31 265T33 281Q33
291 33 309T35 346T38 383T43 410Q57 418 70 411T95 396Q103 381 103 367T104 338T103 309T109 281Q148 335 179 394T250 509Q250 523 253 532T261 548T273 562T285 580L296 600Q300 584 303 567T307 532T303 499T288 468Q277 437 267 406T243 346Q229 316 212
288T176 232Q156 201 137 169T99 105Q102 91 112 82T135 66Q189 69 230 86T310 142Q321 146 333 139Q349 155 358 161T374 168T383 169T390 171T399 183T413 215Q419 213 426 220T441 237T457 251T477 252L475 246Z" />
<glyph unicode="y" glyph-name="y" horiz-adv-x="662" d="M575 22Q581 18 580 15T576 9T567 5T559 2L529 -4Q491 -12 457 -26T388 -55Q384 -50 378 -48T366 -52Q367 -55 367 -61Q367 -73 366 -80T363 -94T355 -105T342 -119Q332 -129 345 -129Q338 -138 330 -139Q328
-140 324 -140Q322 -140 320 -141Q319 -143 322 -149T326 -158Q326 -159 323 -163T317 -171T312 -180T312 -188V-196Q317 -198 313 -199T307 -201Q306 -201 301 -205T296 -211Q294 -213 292 -213T286 -216Q285 -216 284 -219T281 -227T279 -235T279 -240Q279 -253
277 -262T271 -284Q267 -300 260 -306T244 -318T229 -331T217 -354Q216 -358 215 -361Q214 -363 214 -366V-368Q210 -375 208 -379T203 -388T200 -397T199 -409Q201 -412 200 -418T195 -430T189 -442T183 -451Q180 -456 176 -461T168 -471Q147 -500 133 -528Q112
-570 82 -608Q76 -615 69 -623T57 -639V-646Q57 -666 46 -676T19 -695Q14 -699 8 -703T-2 -713Q-8 -721 -18 -733T-38 -750Q-40 -750 -51 -749T-64 -748Q-66 -749 -70 -752T-80 -758T-90 -763T-96 -764Q-102 -761 -106 -761Q-108 -761 -110 -763T-115 -768Q-123
-766 -127 -766Q-129 -766 -133 -762T-142 -753T-150 -742T-155 -735Q-162 -724 -163 -709T-163 -678T-158 -645T-152 -617Q-147 -597 -143 -577T-139 -536Q-139 -531 -137 -528T-133 -522Q-131 -520 -132 -518T-134 -513Q-135 -510 -132 -501T-125 -482T-116 -462T-109
-449Q-89 -413 -73 -373T-30 -301Q-15 -283 0 -265T29 -227Q35 -219 39 -215Q45 -207 57 -202T80 -199Q81 -199 89 -193T99 -186Q103 -173 112 -159T130 -133Q136 -126 146 -123T167 -117T190 -110T210 -94Q217 -86 228 -75T251 -60Q261 -62 278 -57T302 -43Q307
-36 307 -20Q307 -12 313 0T324 18Q329 26 332 34T338 50Q340 55 341 59T343 69Q344 70 347 76T353 88T359 99T361 106Q361 107 355 108T343 109T330 110T323 111Q319 111 312 108T296 101T281 93T274 86Q242 75 210 74T146 61Q127 54 105 51T61 48Q60 48 55 49T44
53T33 58T27 60Q22 62 18 67T10 79T3 92T-2 103Q-7 114 -10 125T-16 147Q-17 147 -17 155Q-17 159 -18 162Q-22 189 -23 222T-10 279Q-6 286 -1 294T9 309Q13 314 16 317T23 325Q24 327 27 329T30 333Q41 344 50 356T67 380Q69 383 73 387T81 396T91 403T100 404Q105
404 109 404T119 403Q124 395 126 390T129 380T130 368T129 352Q124 348 118 344T106 336Q104 334 100 323T91 299T83 273T78 257Q72 231 58 205T25 160L24 157Q31 150 36 144T48 131Q60 131 71 134Q76 130 81 126T91 117Q104 117 114 117T134 118T154 122T175
132Q179 134 187 139T200 145L236 151Q245 155 253 160T270 171Q275 174 281 176T293 181Q324 195 346 218T393 264Q412 282 429 305T458 352Q465 369 474 386T494 418Q502 427 517 433T544 441Q552 443 559 436T566 421Q567 402 565 389T558 366T545 345T525 319L502
289Q501 287 502 286T505 283Q506 281 505 277T502 266T498 255T495 249Q494 249 493 247T490 242L486 236Q473 217 465 199T458 157Q458 148 454 141T443 127T431 109T423 82Q422 78 422 75Q422 73 422 72T421 70V68Q416 48 410 34T396 -1Q397 -1 402 4T415 14T431
23T448 24Q454 22 462 22T477 25T490 28T496 30Q505 30 513 30T529 29Q530 28 535 28T548 27T563 25T575 22ZM273 -114Q270 -117 262 -125T245 -142T226 -156T213 -160L205 -164Q195 -169 192 -178T187 -197T181 -216T166 -230Q153 -224 148 -221T138 -219T129
-226T112 -246Q84 -278 56 -309T-2 -373Q-9 -393 -19 -414T-41 -455Q-53 -476 -62 -503T-77 -558T-88 -616T-96 -670Q-95 -672 -89 -672T-77 -670T-64 -667T-56 -664Q-55 -664 -51 -660T-43 -651T-35 -642T-31 -636Q-27 -634 -17 -630T-3 -626Q-1 -626 -1 -618T0
-608V-591Q-2 -589 -2 -580T-1 -569Q10 -564 20 -559T42 -548Q45 -539 49 -530T58 -511Q78 -473 96 -436T137 -360Q154 -332 169 -304T202 -246Q203 -244 206 -238T214 -226T223 -216T231 -211Q236 -211 237 -204T238 -193Q238 -189 243 -177T255 -151T267 -126T273
-114Z" />
<glyph unicode="z" glyph-name="z" horiz-adv-x="467" d="M368 429Q364 412 358 406T344 385L340 387Q332 377 326 368T312 348Q306 339 302 330T291 311Q296 300 298 287T303 263Q306 249 308 236T312 209Q313 195 311 183T308 156Q306 129 309 102T308 47Q305
24 293 -1T271 -47Q279 -53 290 -54T310 -63Q316 -68 320 -74T329 -86Q334 -91 343 -94T351 -109Q350 -114 347 -114T340 -111T331 -106T322 -103Q317 -103 314 -104T307 -108T301 -112T292 -114Q280 -114 269 -110T246 -105Q243 -113 242 -121T239 -137Q237 -145
232 -152T225 -167H227Q217 -190 209 -214T190 -262L187 -261Q182 -269 179 -277T173 -295Q171 -298 171 -302T169 -308Q162 -319 156 -330T144 -352Q138 -364 132 -375T119 -397Q114 -405 109 -411T97 -425Q95 -428 92 -430T87 -436Q80 -445 75 -458T65 -482Q64
-482 64 -482T63 -483Q53 -491 47 -502T30 -521Q22 -529 10 -538T-9 -553Q-17 -562 -26 -570T-44 -588Q-55 -597 -62 -606T-81 -624Q-93 -631 -105 -632T-129 -638L-130 -637Q-142 -639 -153 -639T-177 -642Q-185 -643 -190 -646T-201 -651T-213 -655T-227 -655Q-244
-652 -251 -646T-272 -630Q-294 -613 -309 -590T-333 -540Q-338 -521 -338 -513T-336 -485Q-336 -476 -332 -459T-322 -435Q-322 -432 -320 -425T-315 -409T-309 -395T-304 -386Q-302 -385 -299 -386T-294 -389Q-290 -381 -288 -372T-284 -354Q-283 -351 -283 -348T-282
-342Q-273 -318 -259 -297T-223 -262Q-215 -249 -215 -238T-205 -215Q-197 -205 -187 -199T-169 -183Q-160 -172 -154 -162T-136 -141Q-119 -127 -99 -122T-62 -103Q-54 -98 -53 -92T-41 -81Q-35 -78 -29 -77T-15 -74Q2 -69 16 -64T48 -54Q58 -52 67 -50T86 -43Q89
-41 92 -40T100 -37Q114 -34 127 -32T154 -29Q167 -27 178 -30T199 -32Q204 -19 210 -7T220 18Q223 29 224 40T230 63Q230 75 232 87T236 112Q237 119 239 126T243 140L249 158Q250 168 249 180T250 202Q246 208 242 213T233 225Q225 221 214 219T196 213Q194 213
188 209T173 200T158 191T149 185Q143 180 139 175T128 166Q121 162 111 158T88 149T65 142T47 137Q38 135 30 135T14 135Q9 135 5 133T-4 129T-13 127T-22 133Q-25 138 -24 142T-19 150T-12 157T-6 166Q-2 177 -4 184T2 202Q7 210 13 210T27 216Q35 222 35 230T46
243Q56 247 66 248T87 251Q90 251 93 251T100 251Q110 262 115 271T138 291Q155 300 166 297T186 296Q194 304 202 311T220 327Q228 335 236 343T254 358Q258 369 263 379T274 399Q279 408 285 415T297 430Q287 434 277 436T258 444Q245 442 233 442T208 440Q190
438 172 434Q169 433 165 432T157 431Q144 429 132 428T106 426Q91 425 81 427T56 432Q39 436 29 436T4 446Q-6 454 -6 459T-12 473Q-14 476 -18 480T-25 488T-29 496T-27 504Q-20 511 -13 512T1 514T15 513T31 515Q43 511 57 503T76 492Q78 491 91 491T121 490T152
490T172 490Q181 494 194 494T219 494Q239 509 265 512Q283 514 290 511T315 504Q324 502 331 502T344 502T355 498T366 485Q376 468 374 458T368 429ZM179 -96Q127 -96 76 -119Q68 -120 61 -122T45 -126L-8 -137Q-19 -145 -29 -151Q-37 -156 -44 -160T-53 -166Q-54
-166 -58 -171T-68 -183T-78 -195T-84 -203Q-97 -209 -109 -214T-134 -226Q-136 -229 -140 -235T-150 -247T-160 -259T-166 -266Q-167 -268 -171 -273T-181 -285T-191 -297T-199 -305Q-201 -321 -205 -334T-211 -364Q-225 -374 -229 -387T-232 -418Q-240 -434 -248
-445T-271 -469Q-273 -483 -274 -496T-275 -524Q-267 -535 -258 -545T-239 -564Q-229 -566 -218 -568T-197 -574Q-195 -573 -189 -572T-176 -570T-162 -567T-153 -566Q-144 -563 -133 -562T-113 -559Q-93 -542 -75 -522T-39 -482Q-30 -472 -21 -462T-2 -441Q6 -430
13 -419T29 -397Q37 -386 44 -374T60 -351Q62 -349 67 -343T79 -330T90 -318T96 -310Q102 -298 107 -286T119 -261Q121 -258 124 -251T130 -235T136 -220T141 -211Q145 -201 153 -186T164 -162Q166 -152 166 -145T165 -132T167 -117T179 -96Z" />
<glyph unicode="{" glyph-name="braceleft" horiz-adv-x="429" d="M147 460Q139 467 131 464T116 458T102 457T90 474Q88 467 82 467T71 468Q70 484 74 498T93 515Q101 517 108 518T124 522Q136 526 142 529T154 533T166 535T186 533Q208 548 218 558T235 579T251
600T282 628Q285 652 289 673T298 715T305 756T306 800Q318 818 326 828T341 847T353 869T364 906Q367 905 376 910T394 920T410 927T418 924L417 923H424Q423 925 422 929T421 937Q440 938 469 941T528 947T585 949T630 941Q631 940 633 936T637 928T642 920T644
916Q646 905 638 900T625 886Q616 889 592 890T541 892T490 890T458 884H456Q433 886 426 881T415 865T404 839T375 806Q378 791 378 780T376 760T374 743T378 723Q365 695 358 668T344 613Q342 602 326 589T292 560T257 531T236 505Q228 499 230 490T238 471T246
450T243 429Q230 408 221 390T204 355T184 326T155 301L159 291Q139 286 129 269T110 232T91 192T63 163Q58 147 54 137T45 117T33 98T18 73Q3 49 2 33T4 7T18 -6T33 -7Q34 -9 35 -14T38 -22Q47 -20 55 -14T77 -8Q85 -9 93 -9T109 -7Q124 -7 131 -7T145 -6T158
-6T180 -9Q199 2 214 2T250 -6L256 -9L255 -20Q266 -14 272 -17T285 -28L275 -46Q268 -44 261 -48T246 -59T233 -73T222 -85Q209 -91 203 -86T189 -71Q188 -69 187 -69T185 -66Q151 -66 125 -70T74 -76T25 -75T-34 -57L-43 -45L-47 -48Q-55 -40 -55 -29T-54 -6T-54
17T-67 35L-58 42Q-60 46 -62 50T-62 60L-54 68Q-59 73 -59 80T-56 95Q-53 99 -49 101T-41 104T-33 108T-26 116Q-30 119 -29 123T-25 132T-19 142T-16 152Q-6 158 -2 168T5 192Q20 192 26 203T37 228T45 258T58 282Q65 283 68 275T74 262Q80 270 84 282T94 307T107
327T128 335Q126 353 130 362T141 378T156 390T173 406Q173 418 173 429T173 447T166 458T147 460Z" />
<glyph unicode="|" glyph-name="bar" horiz-adv-x="329" d="M380 936Q371 921 371 905T372 873T372 842T356 815Q361 800 357 789T346 769T336 750T336 730Q317 679 299 629T266 526Q244 505 234 473T216 407T196 342T161 291L166 281Q146 275 140 258T131 219T124
178T102 147Q91 87 70 28T11 -73Q2 -65 2 -54T1 -31T-1 -8T-15 9L-8 16Q-10 20 -12 24T-13 34L-6 43Q-11 48 -11 55T-10 69Q-7 73 -3 75T4 80T11 85T18 93Q10 98 12 109T15 129Q32 142 32 170Q47 171 51 182T55 209T57 239T66 264Q73 265 76 258T84 245Q90 254
90 266T90 291T93 311T110 321Q107 338 110 348T120 365T134 378T149 396Q143 405 144 413T148 429T155 445T155 465Q168 483 175 505T188 548T203 590T228 626Q229 650 238 670T256 708T272 746T275 787Q285 806 297 824T321 862T342 902T354 947Q361 945 369
946T380 936Z" />
<glyph unicode="}" glyph-name="braceright" horiz-adv-x="393" d="M303 396Q311 389 319 392T334 398T348 400T359 382Q362 390 368 390T379 388Q379 372 375 358T357 341Q349 339 342 338T326 334Q314 330 308 327T296 323T283 321T264 323Q242 308 232 298T215
277T199 256T168 228Q165 204 161 183T152 141T145 99T144 56Q132 38 124 28T108 9T96 -13T86 -50Q83 -49 74 -54T56 -64T40 -72T32 -68L33 -67H25Q29 -73 29 -81Q10 -83 -19 -86T-78 -91T-136 -93T-180 -85Q-181 -84 -183 -80T-187 -72T-192 -64T-194 -60Q-196
-49 -188 -44T-175 -30Q-166 -33 -142 -34T-91 -36T-40 -34T-8 -28H-6Q17 -30 24 -25T35 -9T45 17T75 50Q71 65 71 76T73 96T75 113T72 133Q85 161 92 188T106 243Q108 253 124 267T158 296T193 325T214 351Q221 357 219 366T212 385T204 406T207 427Q220 448 229
466T246 500T266 529T295 555L290 565Q310 569 321 586T340 624T358 664T386 693Q391 709 395 719T405 739T416 758T432 783Q447 807 448 823T445 849T432 862T416 863Q416 865 415 870T411 878Q403 876 394 870T372 865Q364 865 356 865T340 863Q325 863 318 863T305
862T292 862T270 865Q251 854 236 854T200 862Q198 864 197 864T194 865L195 876Q184 870 178 873T165 884L175 902Q182 900 189 904T204 915T217 929T227 941Q241 947 247 942T261 927Q262 925 263 925T265 922Q299 922 325 926T376 932T425 931T484 913L493 901L497
904Q505 896 505 885T504 862T503 839T516 821L508 814Q510 810 512 806T512 796L504 788Q509 783 509 776T506 761Q498 753 490 752T476 740Q480 737 479 733T475 724T469 714T466 704Q456 698 452 688T445 664Q430 664 424 653T413 628T405 598T392 574Q385 573
382 581T376 594Q370 586 366 574T356 549T343 529T322 521Q323 503 319 494T309 478T293 466T277 450Q277 438 277 427T277 409T284 398T303 396Z" />
<glyph unicode="~" glyph-name="asciitilde" horiz-adv-x="460" d="M213 249Q202 258 195 268T183 287T172 306T159 322Q155 327 147 328T129 329T112 321T101 305Q100 302 98 298T87 295Q82 286 70 281T46 262L16 245L21 238Q13 236 5 237T-12 241Q-20 265 -7
289T32 323Q39 342 49 349T77 369Q83 374 96 380T115 391Q122 397 131 397T152 392Q169 394 178 388Q181 383 189 375T199 362Q221 343 229 333T239 305Q257 285 274 289T297 315Q299 319 301 323T311 325Q314 330 319 333T331 339T343 347T352 362L382 376L377
383Q385 385 393 384T411 380Q419 356 406 332T367 297Q359 279 349 269T321 245Q316 241 303 238T284 229Q277 223 267 223T246 228Q229 226 220 232Q215 240 213 249Z" />
<glyph unicode="&#xa0;" glyph-name="uni00A0" horiz-adv-x="358" />
<glyph unicode="&#xa1;" glyph-name="exclamdown" horiz-adv-x="462" d="M72 39Q70 50 72 62T78 86T84 111T85 136L100 158L94 163Q108 169 112 182T118 211T125 239T144 259Q146 284 156 306T178 349Q182 356 186 362T192 375Q196 385 199 394T207 414Q212 425
218 435T231 458Q234 463 236 468T240 479Q249 498 258 514T269 552Q283 564 290 580T304 611T318 641T337 664Q345 659 348 652T353 637T355 619T358 603Q344 596 341 585T337 560T336 533T329 508Q326 503 323 501T316 495Q304 484 297 465T283 425T272 383T260
346L237 325L244 319Q234 305 229 290T217 259T202 230T178 206Q182 184 179 166T166 130T145 97T121 64Q126 43 112 31Q107 32 101 30T89 27T79 28T72 39ZM367 847L362 852Q368 858 375 866T391 881T409 891T429 892Q441 894 452 885T462 862Q461 850 454 843T441
826L444 822Q444 814 443 811T439 802Q436 786 424 779T399 771T374 780T361 804Q358 809 359 815T364 826Q362 829 359 830T354 834L367 847Z" />
<glyph unicode="&#xa2;" glyph-name="cent" horiz-adv-x="391" d="M361 263Q357 250 346 240T319 220T289 202T263 185Q259 182 253 182T242 182T231 182T224 175Q201 175 178 171T132 169L127 165Q122 142 116 118T102 70T81 25T53 -15Q45 -9 45 0T44 19T42 38T31
52L37 58Q27 71 39 80Q34 84 34 90T35 101Q40 108 46 110T58 121Q51 125 53 134T55 150Q63 156 66 165T69 184Q78 186 82 190Q73 198 67 206T55 223Q42 242 40 258T38 290T39 320T32 353Q32 366 38 376T51 397T65 417T72 440Q67 451 76 470T99 510T127 548T150
576Q157 585 163 594T177 614Q180 619 183 624T190 634Q196 641 205 646T226 656T249 663T269 666Q271 680 268 689Q277 706 287 721T306 751T323 783T333 820Q340 818 346 819T354 811Q347 799 347 786T349 759T348 734T335 712Q339 701 336 693T329 677T320 664T317
649Q329 636 330 623T332 596T336 570T353 548Q344 535 339 522T326 494Q333 492 332 485T331 473Q320 464 317 452T311 428T305 404T291 385Q298 361 275 353Q261 348 256 351T249 361T244 374T230 380Q234 399 237 418T258 451Q250 455 251 463T252 477Q257 490
268 508T289 546T301 584T288 617H259L258 608L263 602Q248 597 237 587T215 564T195 538T174 516Q168 494 157 476T134 439Q129 430 126 421T117 402Q115 398 114 395T110 387Q107 379 106 371T102 354T95 339T83 326Q85 321 87 315T94 304Q85 299 84 293T85 279T90
265T94 250Q103 249 111 243T128 231T145 221T162 223Q169 221 175 222T186 223T197 222T207 212Q212 224 220 226T239 228T258 229T274 239Q284 231 295 234T318 243T341 256T361 263Z" />
<glyph unicode="&#xa3;" glyph-name="sterling" horiz-adv-x="414" d="M411 587Q416 582 413 572T409 555V552L407 550Q399 544 399 538T399 526T400 515T391 504Q396 489 386 484T364 478Q353 478 351 481T349 489T347 498T333 504Q334 521 335 532T343 560Q342
565 342 570T341 579Q345 592 352 604T363 629T366 654T351 680L327 686Q321 687 314 683T299 673T285 661T275 651Q268 643 261 637T246 625Q243 611 236 600T220 577T205 551T196 516Q195 507 195 497T189 479L192 463L194 461L201 444Q212 445 226 447T256 449T285
449T310 445Q314 439 318 432T327 420Q330 408 322 402T309 387Q302 388 290 388T265 389T240 388T220 387Q222 382 224 377T231 367V365Q229 357 231 350T237 337T244 323T246 308Q245 291 245 279T236 252Q236 244 243 238T259 227T278 215T294 201Q314 197 332
189T370 179Q371 165 366 162T354 158T339 158T326 149Q320 151 315 151T303 152Q290 151 279 154T257 162Q245 169 225 179T194 199Q161 173 129 157T54 136L53 138Q43 136 36 132T17 127Q-17 127 -27 135T-38 156T-36 181T-39 206L-41 209Q-21 229 -3 245T35
272T77 290T130 297Q139 297 144 297T158 290L165 298L171 290Q179 291 188 284Q193 294 194 306T193 331T184 353T168 370L163 380Q157 379 149 378T135 373Q124 373 114 368T94 357T74 352T51 361V369Q46 378 44 382T46 397Q54 403 60 406T76 409Q73 416 71 424Q88
426 105 429T140 435Q138 440 137 443T138 452Q136 457 135 466T134 485T133 504T133 519Q134 533 139 543T142 570Q142 573 145 579T152 593T161 606T168 616Q172 624 175 628Q177 633 180 635T187 641Q194 649 199 656T211 672Q217 678 223 684T234 697Q236 701
238 705T245 712Q249 716 258 719T276 724T296 727T312 728Q328 728 344 725T374 713T397 691T408 660Q408 651 411 644Q414 635 414 616T411 587ZM142 234Q127 239 113 242T82 248Q49 229 23 197Q28 197 33 196T43 195Q58 202 75 204Q81 204 91 207T111 214T130
224T142 234Z" />
<glyph unicode="&#xa4;" glyph-name="currency" horiz-adv-x="469" d="M510 589Q506 576 506 569T495 551L480 552L439 502Q433 504 425 502T409 495T393 486T381 478L382 476L372 440Q354 425 348 406Q374 385 400 356T439 295Q429 293 423 291T405 292L402 304L352
317Q354 328 343 338T324 353Q295 323 273 287L267 294Q249 278 224 271T175 265Q169 266 164 267T152 270Q138 273 133 277T127 287T124 300T119 315Q111 309 102 301T83 287T63 279T41 281Q38 273 26 267T6 257Q-6 275 4 288T29 313Q49 326 68 339T108 366Q112
383 123 404T136 439V455H145L157 476L156 477Q150 490 139 497T116 511T98 526T94 549Q86 548 79 555T67 567Q78 582 91 582T119 571Q138 557 156 544T194 519Q199 521 202 529T216 541Q224 558 238 565T268 577T297 586T319 602L329 597L340 604L346 600Q352
606 359 605T372 600T384 589T394 578L385 571Q388 565 391 561T395 549Q422 562 451 573T510 589ZM323 523Q326 533 321 538T308 543T291 540T278 532Q275 526 271 522Q264 513 254 506T234 492T219 474T212 450Q188 436 181 417T167 373Q170 357 177 345L169
340Q171 335 174 324T186 313Q197 324 209 328T237 332Q243 338 249 340T259 346T263 354T259 372Q271 373 278 376T289 383T296 395T304 412Q299 428 306 442T320 468T328 491T314 514L323 523Z" />
<glyph unicode="&#xa5;" glyph-name="yen" horiz-adv-x="516" d="M485 621Q471 607 469 588T458 552Q456 549 455 547T452 543Q441 521 434 499T409 459H410Q402 448 395 435T389 407V394H383Q388 386 384 381T374 370L375 369Q373 359 372 349T365 329Q367 319
364 309Q373 317 386 319T403 326Q407 330 409 334T414 343Q420 342 426 346T440 356T453 368T464 379Q479 381 479 371T476 351L475 350Q463 328 443 312T406 277L405 276Q397 265 389 257Q383 250 381 247T378 240T373 234T360 225Q355 222 351 219T341 211Q339
200 336 190T328 169T323 147T324 125Q320 117 316 110T308 94Q324 94 340 94T372 91Q379 86 385 81T399 71Q401 66 398 63T390 56T380 50T372 45Q353 47 334 47T294 45Q292 35 292 30L291 29Q286 21 282 12T275 -6Q317 0 360 -11V-20Q375 -15 385 -15T409 -24L396
-40Q378 -38 361 -47T330 -67Q327 -69 324 -72T317 -76Q303 -83 288 -79T259 -66L260 -68Q252 -70 250 -72T247 -78T246 -86T241 -94Q240 -103 235 -110T225 -124T216 -135T215 -147Q207 -160 198 -171T177 -192Q166 -202 157 -212T146 -237Q144 -237 142 -237T137
-236Q132 -235 126 -240T111 -249T94 -255T74 -250Q53 -258 33 -246T-1 -220Q-16 -205 -19 -186T-20 -146L-28 -143L-23 -134Q-29 -127 -29 -121T-25 -107T-19 -94T-15 -82Q-21 -82 -35 -81T-66 -79T-95 -76T-112 -72L-133 -60Q-120 -50 -105 -45T-74 -38T-42 -33T-10
-28Q-8 -31 -6 -34T0 -40L7 -39Q15 -27 22 -14T40 8Q43 11 45 18Q28 14 12 14T-22 21V27Q-27 33 -31 36T-30 49Q-17 55 -8 57T16 59Q13 61 12 64T8 71L101 80Q111 90 122 98T144 113Q155 130 173 144T197 173L202 171Q204 172 206 176T213 184T222 192T234 196Q248
218 273 232Q275 238 278 241T285 246T289 252T288 263Q294 271 292 278Q284 270 276 265T256 260Q250 255 247 252T241 248T234 246T219 246V250Q196 239 181 233T140 229Q140 231 140 234T139 240Q137 235 134 233T127 227Q119 237 112 247T100 269Q97 276 93
286T80 300Q83 318 84 332T87 361T92 390T103 424Q101 440 108 450T117 469Q126 499 129 531Q133 530 139 528Q155 575 181 619Q182 621 184 627T190 639T195 650T199 656Q202 660 209 662T221 662Q225 661 228 657T232 649T235 641T237 636L251 629Q243 622 238
619T231 612T227 602T224 582L223 581Q219 569 213 557T201 534Q190 514 184 498T175 459Q174 450 172 442T165 426Q162 418 160 407T152 390Q149 386 149 381T149 370T149 358T144 346Q138 339 139 321T148 295Q150 290 153 290Q158 289 166 296T189 300Q199 306
207 308T223 313T238 320T253 337Q261 332 265 332T272 336T280 342T292 346Q298 371 314 397T342 448Q343 448 344 448T347 449Q349 449 350 450Q351 452 350 457T349 465Q348 472 353 479Q364 497 367 518T381 558L373 562Q386 573 392 583T401 604T406 622T415
635V643L420 640Q426 651 436 654T454 666Q460 663 466 662T478 659Q483 649 480 641T479 627L485 621ZM253 144Q239 130 228 121T197 103Q195 96 192 94T184 87Q198 89 213 89T243 92V96L240 97Q249 112 249 120T253 144ZM224 43Q201 41 177 40T130 35Q115 21
102 7T77 -24Q71 -22 71 -22T67 -27Q102 -25 137 -21T208 -16Q208 -15 210 -9T216 6T221 20T224 27L221 29Q221 35 224 43ZM182 -68Q146 -72 110 -76T38 -82Q38 -89 36 -94T31 -103T28 -113T30 -126Q25 -136 24 -142T25 -159Q28 -160 32 -164Q30 -171 27 -175Q27
-182 36 -185T50 -192Q59 -191 71 -192T90 -186Q94 -178 100 -175T114 -168Q116 -162 121 -157T131 -148Q139 -142 139 -139T144 -132Q150 -127 152 -122T157 -110Q160 -100 163 -94T175 -82L182 -68Z" />
<glyph unicode="&#xa6;" glyph-name="brokenbar" horiz-adv-x="326" d="M167 373Q171 367 170 357T167 334T164 311T167 292L155 276L163 275Q149 267 148 258T147 240T146 222T130 206Q132 192 127 177T113 146Q111 141 108 137T103 128Q101 121 101 115T97 102Q93
94 88 86T79 70Q78 63 74 56Q68 42 63 31T58 6Q46 -5 42 -16T34 -37T27 -57T11 -76Q1 -76 -4 -73T-13 -66T-19 -57T-26 -49Q-13 -41 -11 -34T-11 -19T-16 -4T-15 12Q-13 16 -10 18T-3 24Q7 34 11 46T17 72T20 99T25 123L45 142L36 143Q44 153 47 163T53 184T63
205T84 225Q74 236 74 247T80 271T95 295T114 321Q109 326 109 331T116 342Q122 343 129 350T144 363T157 373T167 373ZM389 947Q393 942 392 931T387 908T383 883T386 865L373 850L382 849Q368 841 367 833T365 816T364 798T348 782Q350 768 345 754T331 725Q329
720 326 716T322 707Q320 700 319 695T315 682Q311 674 306 667T298 651Q296 647 292 637Q286 624 281 614T277 590Q265 579 260 569T252 548T245 528T229 510Q219 510 214 513T205 520T200 528T193 536Q206 544 207 551T207 566T202 581T203 596Q205 599 208 601T215
607Q225 616 229 628T235 654T238 679T243 702L263 720L254 722Q262 732 265 742T271 762T281 781T302 801Q292 811 292 822T298 845T313 869T332 893Q323 903 334 914Q340 915 348 922T364 936T379 947T389 947Z" />
<glyph unicode="&#xa7;" glyph-name="section" horiz-adv-x="545" d="M635 853Q620 843 621 833T625 813T630 793T618 775Q638 748 604 737Q583 731 577 735T569 746T563 761T540 768Q538 793 537 809T542 852Q539 860 539 868T534 883Q537 906 545 927T556 969T552
1008T519 1048Q508 1049 497 1050T475 1052Q473 1052 467 1050T458 1047Q442 1041 432 1031T414 1009T398 986T377 965Q377 939 365 918T343 874Q338 863 337 852T332 830Q330 825 329 822T326 813Q324 804 325 793T328 769T330 745T325 721L336 693L341 690L378
633Q413 619 433 589T461 524Q459 514 461 508T467 497T474 486T480 471Q469 460 476 446T495 425Q494 414 488 405T475 387T466 369T467 346Q459 345 457 341T455 330T457 317T456 306Q451 297 442 293T421 284T400 275T384 261Q376 266 367 260T351 250Q354 239
356 227T360 203Q362 198 363 193T365 183Q366 170 365 161T362 143T360 124T365 99Q366 97 363 87T354 64T343 41T337 27Q337 26 334 17T330 6Q327 0 323 -5T314 -15Q308 -24 306 -32T298 -50Q290 -61 283 -72T269 -95Q266 -101 264 -107T256 -119Q251 -125 238
-131T216 -141Q191 -150 162 -154T104 -156T50 -139T9 -102Q0 -88 -2 -74T-13 -45Q-16 -39 -19 -27T-25 -1T-28 25T-27 45Q-34 46 -35 52T-36 67T-34 83T-34 95Q-20 105 -20 115T-25 135T-30 155T-17 173Q-37 200 -4 211Q18 217 24 213T32 202T38 187T61 180Q63
155 63 139T59 97Q62 89 62 81T67 65Q64 42 56 21T45 -21T49 -61T82 -100Q93 -101 104 -102T126 -104Q128 -104 134 -102T142 -99Q159 -92 169 -81T189 -57T206 -31T229 -8Q228 18 240 39T262 83Q267 94 269 104T273 127Q275 131 276 135T279 144Q281 153 280 164T277
188T275 212T280 236L269 264L264 267L228 323Q193 338 173 368T144 433Q145 443 143 449T138 460T130 471T125 486Q136 497 129 511T110 532Q111 543 117 552T130 570T139 588T138 611Q146 612 148 616T150 627T148 639T149 651Q153 660 163 664T184 673T205 682T221
696Q229 691 238 697T254 707Q252 718 250 730T245 754Q244 759 242 764T240 774Q239 787 240 796T243 814T245 833T240 858Q239 860 242 870T251 893T261 916T268 930Q268 931 271 939T275 950Q278 957 282 962T291 972Q294 977 295 980T297 985T299 990T303 998Q311
1009 318 1020T332 1043Q335 1049 337 1055T345 1067Q350 1073 363 1079T385 1089Q410 1098 439 1102T497 1104T551 1087T592 1050Q600 1037 603 1022T614 994Q617 988 620 976T626 949T629 923T628 903Q635 902 636 896T637 881T635 865T635 853ZM408 398Q407
418 408 434T409 467T402 498T381 531Q376 536 370 541T356 551L287 632Q273 628 258 626T229 622Q221 606 218 588T197 559Q198 539 197 523T196 490T203 459T224 426Q229 421 235 416T249 406L318 325Q332 329 347 331T376 335Q384 351 387 369T408 398Z" />
<glyph unicode="&#xa8;" glyph-name="dieresis" horiz-adv-x="337" d="M112 993Q111 978 108 959T97 922T76 893T42 883Q30 884 22 889T10 904T3 923T0 944V966Q3 979 16 996T44 1022T71 1023T84 979Q90 984 96 990T112 993ZM306 993Q305 978 302 959T291 922T270
893T237 883Q225 884 217 889T205 904T198 923T195 944Q194 947 194 955T195 966Q198 979 211 996T239 1022T266 1023T279 979Q285 984 291 990T306 993Z" />
<glyph unicode="&#xa9;" glyph-name="copyright" horiz-adv-x="598" d="M618 503Q615 502 607 501T596 495Q594 492 596 487T600 475T601 463T590 453Q591 448 589 441T583 426T578 411T576 400Q575 397 571 391T563 378T553 366T545 359Q540 354 538 352T536
348T537 344T540 335Q532 329 527 326T518 320T510 312T501 298Q495 287 489 279T471 264Q474 259 474 253Q476 251 476 249Q473 240 467 238T454 234T441 231T431 221Q418 229 414 230T398 220Q400 208 388 203T367 192Q357 198 349 199T330 194Q295 191 263 189T195
200Q190 197 185 197T175 197Q154 212 129 221T85 249Q72 262 64 281T52 320T45 360T42 399Q42 404 42 409T41 419Q41 420 44 429T50 450T57 474T62 491Q64 502 65 512T70 533L73 535Q75 535 79 535T85 536Q81 555 91 572T115 601Q116 616 125 627T146 648T166
668T176 693Q196 709 216 721T256 750Q275 767 293 780T334 807Q335 807 337 809L344 805Q353 808 361 811T378 818Q397 827 416 834T456 838Q472 836 479 831T498 818Q521 814 532 803T554 771Q556 767 558 763T563 754Q559 745 548 745T529 745L522 743Q520 754
513 761T496 774T474 783T454 790Q452 789 452 787T452 782L458 779Q459 779 461 781Q466 782 471 781T481 777H485Q495 769 507 759T525 737Q530 725 534 719T552 706Q554 696 559 688T567 670Q570 658 574 647T585 625Q581 615 582 608Q584 599 592 590T606 572T614
552T604 532Q606 527 604 523T601 514Q610 510 618 503ZM543 535Q545 548 544 549T526 559Q529 561 533 565Q542 572 538 581T527 601T513 622T510 643Q497 654 482 672T451 708T417 738T381 751Q375 751 363 746T338 732T314 716T298 704L226 632Q223 630 220
624T215 614Q208 603 202 593T187 573Q175 556 164 540T143 505L154 499Q141 489 140 476T138 448T137 420T120 393L118 392Q102 386 103 380T111 365T126 346T131 324V323Q123 304 136 287T163 259Q168 255 179 255T195 261Q197 260 198 260T201 259Q220 248 247
248T295 248L374 283Q384 288 393 291T413 301Q421 306 426 311T439 322L494 365Q495 366 500 374T511 391T522 409T527 419Q530 435 536 454Q544 477 546 493T540 535H543ZM450 596Q442 586 438 577T429 557Q432 552 431 547T431 536Q423 529 420 521T416 505T412
488T403 472Q405 458 396 450T374 441Q367 441 364 444T359 452T356 459T351 463H341Q344 478 346 495T360 524Q358 529 359 533T358 543Q362 553 369 565T383 590T391 615T388 638L376 640L361 621Q350 618 348 609T340 592Q330 577 319 566Q315 553 309 541T295
516T282 491T272 463Q270 454 267 446T257 430Q259 424 261 422T269 414Q261 409 259 407T256 402T259 395T263 383Q268 381 273 377T283 370T292 364T302 365Q310 363 318 364T334 361Q340 367 346 368T359 369T371 369T380 373L386 380Q389 377 392 375T399 372Q403
372 410 374T423 378T433 377T438 365Q438 352 421 342T382 324T336 312T301 308Q283 308 266 313T236 332Q231 337 228 342T221 352Q210 369 209 381T208 412Q208 421 208 430T204 449V451Q204 462 208 470T217 485T226 499T232 514Q229 524 235 539T251 569T271
598T288 620Q296 630 302 642T317 663Q326 674 346 681T380 689Q409 689 420 672T432 630Q432 621 433 614T443 601L450 596Z" />
<glyph unicode="&#xaa;" glyph-name="ordfeminine" horiz-adv-x="418" d="M674 427Q661 405 654 392T641 371T626 356T601 339L581 323Q573 317 566 313T554 308Q552 308 551 308T547 309Q542 309 537 309T528 315Q522 310 520 302T506 297L502 303L488 291Q463
304 440 312T399 332T369 362T351 413Q346 419 341 423T329 425Q320 410 307 400T282 376Q277 371 274 366T267 355Q260 347 250 345T231 339T212 330T199 308Q193 312 188 312T178 312Q169 310 161 308T144 305T127 306T112 318Q100 313 89 319T69 335T50 357T33
375Q28 389 33 399T46 419T55 438T47 461Q56 474 63 489T77 519T94 547T116 572Q111 578 111 584T113 596T119 607T125 619L151 631L144 653Q154 651 159 653T167 661T170 673T175 686Q178 694 188 697Q207 712 225 728T261 759T300 789T343 812Q359 809 368 802T383
786T391 764T397 740Q401 725 407 715T429 696Q416 674 419 653T424 609Q427 586 424 566T398 529Q396 523 397 516T398 501T395 488T385 478Q393 469 393 459T394 440T398 424T418 412Q420 401 422 395T428 386T437 379T451 369Q459 367 468 369T482 364Q487 368
493 368T505 368L517 349Q526 357 539 361T563 370Q576 374 590 377L674 427ZM329 735Q320 727 308 720T285 705T266 687T256 665Q235 662 227 649T214 619T202 587T179 562Q175 558 170 558Q171 558 164 554Q144 540 135 513T118 464Q105 462 99 459T92 451T92
441T98 429Q104 418 112 403T111 375Q117 370 123 369T135 370T146 376T157 384Q161 386 165 389T174 394Q195 390 211 397T242 417T270 443T297 469L291 476Q307 481 313 488T321 506T322 527T319 551Q318 558 318 565T322 579Q315 600 320 618T333 655T350 691T358
729L329 735Z" />
<glyph unicode="&#xab;" glyph-name="guillemotleft" horiz-adv-x="607" d="M199 31Q191 26 185 21T167 16L163 26L114 21Q114 30 104 35T78 45T48 53T25 62Q18 58 10 61T-3 69Q-15 78 -25 82T-46 88T-66 93T-90 101Q-93 106 -92 112T-87 125Q-90 136 -88 145T-71
159Q-61 164 -52 167T-33 176Q-4 190 28 207T96 230Q110 242 130 250T172 262T216 267T259 263Q258 254 258 247T253 231L241 237L216 202Q208 209 197 207T173 198T148 185T126 176Q124 169 117 167T102 164Q87 163 78 160T60 152T42 142T21 133Q13 135 7 133Q18
129 28 125T50 113Q71 111 93 104T135 86T172 61T199 31ZM476 31Q467 26 461 21T443 16L440 26L391 21Q391 30 381 35T355 45T325 53T301 62Q294 58 286 61T273 69Q261 78 251 82T231 88T211 93T187 101Q183 106 184 112T189 125Q186 136 188 145T205 159Q215 164
224 167T244 176Q273 190 305 207T373 230Q386 242 406 250T448 262T493 267T536 263Q535 254 535 247T529 231L518 237L493 202Q485 209 473 207T449 198T424 185T402 176Q401 169 393 167T379 164Q364 163 354 160T336 152T319 142T298 133Q290 134 283 133Q294
129 305 125T327 113Q347 111 369 104T411 86T448 61T476 31Z" />
<glyph unicode="&#xac;" glyph-name="logicalnot" horiz-adv-x="539" d="M463 337Q468 323 466 313T449 294Q447 270 438 250T421 207Q418 197 412 196T403 188L414 180Q408 174 405 169T399 159T390 151T373 146L362 158Q356 182 358 202T368 240T384 277T400
317Q399 320 395 324Q389 315 379 313T358 311T334 312T311 304Q284 300 260 301T207 292Q200 290 191 288T175 291Q167 289 150 289T115 288T83 284T65 271L15 288L8 278Q-3 281 -8 287T-20 301Q-3 314 20 324T70 341T121 349T169 348Q210 361 252 361T337 363Q350
364 362 365T389 367Q400 368 409 365T425 352Q428 353 431 355T435 362L452 361Q457 356 459 351T453 341L463 337Z" />
<glyph unicode="&#xad;" glyph-name="sfthyphen" horiz-adv-x="339" d="M319 349Q314 340 311 332T299 317L291 327L253 297Q249 307 237 307T211 305T182 298T158 295Q154 288 146 288T131 289Q117 292 107 291T86 288T66 283T43 279Q32 285 21 282T0 276T-19
275T-35 292Q-39 285 -46 285T-61 286Q-62 302 -57 316T-32 333Q-21 335 -11 336T11 340Q44 347 81 356T154 360Q172 369 193 372T237 374T281 366T319 349Z" />
<glyph unicode="&#xae;" glyph-name="registered" horiz-adv-x="514" d="M544 503Q541 502 534 500T524 495Q523 492 525 487T528 475T528 463T519 453Q520 448 518 441T513 425T508 410T506 399Q505 397 502 391T494 378T485 365T478 358Q473 353 471 351T469
348T470 344T473 335Q472 334 472 333T469 331Q463 327 461 324T459 316T458 307T454 296Q449 285 435 277T412 263Q414 257 414 253Q416 251 416 248Q413 239 408 237T396 234T385 231T376 221Q374 222 373 223T369 225Q367 227 372 228T376 230Q371 230 368 227T362
220Q364 208 353 203T335 192Q326 198 318 199T301 194Q269 191 240 189T180 200Q175 197 171 197T161 197Q142 212 120 221T81 249Q69 262 62 281T50 320T45 361T42 399Q42 404 41 409T41 419V420Q46 438 51 455T60 491Q62 502 63 512T67 533L70 535Q72 535 75
535T81 536Q78 555 86 572T108 601Q109 616 117 627T135 648T153 668T163 693Q180 709 198 721T234 750Q251 767 267 780T304 807Q305 807 307 809L314 805Q322 808 329 811T345 818Q361 827 378 834T415 838Q429 836 435 831T452 818Q474 814 484 802T503 771Q505
767 507 763T510 754Q507 745 498 745T480 745L474 743Q471 764 451 774T412 790Q410 789 410 787T411 782L416 779L418 781Q423 782 427 781T437 777H440Q450 769 460 759T476 737Q481 726 485 719T501 706Q502 696 507 688T514 670Q517 658 520 647T530 625Q527
608 529 603T541 583Q547 575 544 566T540 549Q539 540 531 532Q533 527 532 523T529 514Q533 511 536 509T544 503ZM368 561Q370 566 366 572T364 586L363 603L364 604Q361 613 356 617T349 635L351 637Q344 635 339 631T326 623Q324 611 320 605T313 594T306
581T303 559Q296 552 293 548T286 535Q287 526 284 518T276 501Q284 497 289 488T302 474Q307 472 310 472T318 468Q323 473 327 473T333 475Q341 482 341 483T345 491Q345 496 348 501T355 509Q353 518 358 527T364 545L362 546L364 551V561H368ZM477 534Q479
551 478 568T476 603Q471 611 465 621T463 643Q451 654 438 672T410 707T379 738T347 751Q342 751 331 746T308 732T286 716T272 704L207 632Q204 628 202 623T197 613Q184 591 172 573Q161 556 151 540T133 505L143 499Q131 489 130 476T128 448T127 420T112 393L111
392Q94 385 97 378T108 360Q114 352 119 344T122 324V323Q118 313 120 304T126 287T138 272T151 259Q156 254 165 255T179 261Q181 260 182 260T185 259Q202 248 226 248T269 248Q291 259 311 269T354 290Q357 291 357 292T357 294T356 297T360 301Q356 301 353
300T347 298Q344 295 342 292T334 289Q329 288 322 289T309 293Q301 288 297 288T284 291Q274 290 270 291T259 300Q255 302 251 303T243 306L241 304Q239 306 236 308T230 313Q223 320 222 324T223 338Q219 341 216 345Q214 342 213 340T209 334Q210 324 208 314Q197
303 189 303T167 307L154 327Q153 333 156 336T162 344Q162 352 162 357T171 367L165 370Q168 375 170 379T178 387Q178 395 179 398T185 408Q186 409 187 413T187 420Q187 431 189 433T193 444Q194 446 194 449T195 455Q196 460 199 462T205 467Q207 476 208 484T218
499Q217 503 217 510Q219 517 223 526T232 539L230 544Q233 549 234 551T241 557Q241 566 246 575T259 589Q259 597 260 601T269 610Q269 623 277 633Q283 642 295 656T317 675Q319 679 323 683T329 689L334 681Q345 688 349 689T366 683Q367 683 368 683T370 684Q381
684 389 677T402 661L406 659Q408 646 411 633T412 607Q414 603 416 600T418 593Q418 589 417 587T416 581Q414 575 415 569T416 557Q417 549 415 544T410 531Q410 529 410 526T411 521Q412 516 408 509T401 496Q402 492 402 489T402 482Q398 477 393 472T382 461Q380
459 379 456T376 451Q375 446 373 441T366 434Q358 430 356 429T345 427Q338 420 331 420Q319 420 304 427T278 437Q273 441 268 445T258 452Q258 449 258 444T257 435V434Q256 432 255 431T253 427Q253 425 254 423Q254 421 254 420T255 418Q255 410 255 406T252
395Q256 390 257 387T259 380T260 373T263 364Q271 360 272 357T275 345L279 343Q287 345 291 344T303 338Q318 337 335 339T368 346Q374 353 377 354T390 355Q396 357 400 359T411 363Q415 370 425 377T443 383Q444 385 447 390T453 401T459 412T462 419Q465 435
469 448T476 475T479 503T474 534H477Z" />
<glyph unicode="&#xaf;" glyph-name="overscore" horiz-adv-x="366" d="M43 904Q53 912 70 915T104 915Q105 913 109 911Q138 911 164 914T216 919T270 917T332 898L346 882Q342 870 336 865T323 857T306 853T288 847Q286 850 284 855T279 863Q275 863 272 861T266
855T259 850T249 849Q242 849 236 849T223 847Q197 845 171 845T118 849Q104 837 91 836T58 846Q56 847 55 847T52 848L49 860Q41 853 36 856T20 869L23 887Q37 884 38 889T43 904Z" />
<glyph unicode="&#xb0;" glyph-name="degree" horiz-adv-x="274" d="M322 611Q320 604 318 599T319 585H316Q314 559 305 537T291 490L286 493Q282 484 280 470T267 452L263 456Q252 442 238 431T211 406Q202 410 195 408T182 402T170 398T154 403Q150 397 145
399T135 405T125 410T117 403Q112 408 106 412T92 414Q87 422 78 432T70 452Q62 458 62 464T63 478T69 491T72 505Q79 519 86 531T99 557Q102 563 104 569T108 581Q110 588 115 591T126 597T134 603T136 615Q140 626 149 634T168 649T184 665T191 687Q206 703 228
705T274 695Q283 685 293 676T311 657T323 636T322 611ZM263 614Q258 614 254 617T247 625T240 632T232 636Q226 631 222 625T213 612T203 600T188 592Q192 587 191 584T187 579T179 575T173 568Q167 553 162 547T144 530Q145 523 143 517T138 505T133 493T131
480Q139 476 146 473T161 464Q171 464 178 468T192 476T206 485T222 491L221 497Q230 499 232 506T239 520Q241 523 241 523T244 524Q251 531 253 542T257 566T258 591T263 614Z" />
<glyph unicode="&#xb1;" glyph-name="plusminus" horiz-adv-x="390" d="M360 349Q355 340 352 332T340 317L332 327L294 297Q290 307 278 307T252 305T223 298T199 295Q197 292 194 290Q188 264 178 239T147 190L129 183Q120 192 118 200T115 216T115 232T115
251Q117 252 122 252T130 253Q131 259 127 267T125 286L126 287Q117 285 107 283T84 279Q73 285 62 282T41 276T22 275T6 292Q2 285 -5 285T-20 286Q-21 302 -16 316T9 333Q20 335 30 336T52 340Q73 345 95 350T141 359Q145 371 148 382T157 404Q150 421 152 433T168
460Q169 462 169 462T171 465L182 462Q179 472 182 475T196 484L212 473Q209 468 211 462T219 448T231 435T240 425Q243 414 237 410T219 401Q215 399 214 399Q212 391 211 383T207 366Q225 372 245 373T286 373T326 365T360 349ZM279 114Q274 105 271 97T259 82L251
92L213 62Q209 72 197 72T171 70T142 63T118 60Q114 53 106 53T91 54Q77 57 67 56T46 53T26 48T3 44Q-8 50 -19 47T-40 41T-59 40T-75 57Q-79 50 -86 50T-101 51Q-102 67 -97 81T-72 98Q-61 100 -51 101T-29 105Q4 112 41 121T114 125Q132 134 153 137T197 139T241
131T279 114Z" />
<glyph unicode="&#xb2;" glyph-name="twosuperior" horiz-adv-x="417" d="M458 362Q449 353 443 350T429 347T414 346T396 346Q386 373 373 398T340 445Q302 410 261 381T167 341L165 343Q159 342 153 338T139 331Q123 326 110 325T79 325Q74 325 67 325T55 325Q54
325 54 325T52 326Q35 334 31 349T29 381Q30 393 29 399T20 416Q69 475 125 511T260 551Q267 551 271 549T282 542V541L289 551L296 544Q304 548 309 545T323 538Q330 550 330 563T341 590Q341 610 342 629T338 669Q322 676 305 676T271 673T238 661T207 645Q199
630 187 615T156 597Q152 597 150 598Q129 606 129 618T137 647Q142 657 144 663T149 673T157 679T176 684V685L177 687V691L188 689V709Q214 712 239 723T290 743T339 750T388 724L389 723Q406 702 411 678T414 627T404 576T387 527Q385 522 384 518T380 510Q381
496 390 485T408 461T424 436T426 407Q434 395 442 384T458 362ZM278 480Q255 485 230 484T180 483Q135 450 106 402Q116 404 125 403T144 402Q153 409 162 412T182 417Q193 419 200 421T215 429Q222 433 231 438T250 450T267 464T278 480Z" />
<glyph unicode="&#xb3;" glyph-name="threesuperior" horiz-adv-x="372" d="M406 698Q398 693 399 685T402 669T403 654T389 645Q389 630 376 622T351 605L347 610L341 604Q346 601 348 597T352 589Q355 584 358 583T370 583Q370 572 373 568T382 557Q387 552
391 546T393 530Q392 522 393 513T394 494T392 476T384 461Q382 442 376 428T359 399Q353 391 344 386T326 375T309 363T295 346Q278 345 260 346T226 342L224 340Q221 338 221 336T223 329Q211 337 198 337T176 332Q174 330 173 328T174 319Q137 333 102 347T36
386Q33 393 29 402T22 420T22 437T37 450Q45 453 51 449T60 439L64 434Q70 426 76 425Q81 430 85 430T94 427L98 425Q107 422 114 426Q115 420 114 417Q114 414 114 411T117 406Q130 407 145 404T175 398T203 396T228 406Q239 407 251 405T272 409Q278 418 288
423T307 433T323 446T330 468Q344 476 345 486T353 509Q337 514 327 525T297 538Q281 556 264 555T226 549Q219 547 213 547T199 547Q194 553 190 552T181 548Q172 544 163 548Q164 554 162 557T157 566L153 572Q149 578 147 585T149 600Q156 613 167 615T190 618T215
617T239 622Q248 618 257 619T275 624T292 631T310 635Q311 644 317 647T329 653T340 659T344 671Q329 677 314 676T284 671T255 662T225 655Q217 648 207 650T186 650L179 643Q177 648 174 651T168 656L162 663Q153 670 150 678T157 697L152 702Q161 709 168 709T186
709Q195 708 202 710T215 722Q220 714 227 714Q230 722 237 723T252 724Q260 724 266 725T278 736L284 730Q287 733 285 739Q297 737 307 738T331 740Q352 743 371 739Q374 743 378 743T388 743Q398 733 406 722T413 691L406 698Z" />
<glyph unicode="&#xb4;" glyph-name="acute" horiz-adv-x="146" d="M207 807Q204 796 195 796T172 797H165Q142 779 123 758T82 718T36 683T-26 658L-48 662Q-53 674 -52 681T-46 695T-36 709T-25 725Q-22 723 -16 721T-8 718Q-2 723 -2 732T7 748Q13 752 17 756T27
766Q46 784 65 801T108 832Q111 849 121 858T153 872Q155 872 156 872T158 873L169 866Q171 877 177 878T196 877L206 861Q200 858 199 851T199 836T203 820T207 807Z" />
<glyph unicode="&#xb5;" glyph-name="mu" horiz-adv-x="732" d="M30 203Q39 254 63 300T129 378Q123 395 131 404T152 414T176 408T188 387Q188 381 187 375T183 363Q178 340 170 318T150 275V270L145 266L136 247L137 246Q136 245 134 245Q123 225 113 205T95
162Q84 155 88 147T97 132T104 117T87 103Q82 89 90 81T104 61Q110 61 117 62T129 70Q139 62 148 66T166 78T187 89T212 86Q218 93 222 102T231 119T243 133T262 136Q275 158 295 173T337 201T374 230T396 270Q413 298 430 331T471 387Q478 401 494 404T521 395Q523
379 517 366T505 339T494 312T496 278Q484 271 472 266T449 255T431 238T421 212Q437 206 444 198T453 181T455 161T455 139T461 117T480 95Q483 92 484 91T491 87Q500 84 507 87T521 94T535 96T553 84Q566 103 577 84Q588 104 597 107T614 109T632 110T652 133L660
125Q666 139 673 139T688 137T701 136T706 157Q714 157 720 160T732 168T745 176T763 180L739 123L660 64Q649 64 644 64T634 62T624 59T610 50Q606 40 600 36T587 28T571 22T555 11Q489 -1 435 41Q429 46 424 51T412 61Q407 65 407 65T403 69Q397 78 396 91T391
116T381 136T354 144Q345 125 329 106T292 72T248 47T204 37Q196 16 179 6T142 -10Q141 -11 136 -12T129 -14Q117 -15 110 -10T96 2T82 14T62 19Q55 35 48 50T35 83L28 73Q23 67 19 61T10 49Q5 40 1 31T-9 12Q-16 2 -24 -7T-40 -28Q-43 -33 -46 -37T-52 -47Q-65
-65 -75 -79T-91 -116Q-106 -126 -116 -140T-134 -169T-151 -197T-173 -217Q-181 -212 -183 -204T-186 -188T-186 -171T-186 -154Q-171 -148 -166 -137T-159 -113T-154 -87T-144 -63Q-140 -58 -137 -57T-129 -52Q-116 -43 -106 -26T-87 12T-70 52T-53 87L-28 105L-34
113Q-24 123 -17 135T-3 159T11 182T30 203Z" />
</font>
</defs>
</svg>
