<?xml version="1.0" standalone="no"?>
<!DOCTYPE svg PUBLIC "-//W3C//DTD SVG 1.1//EN" "http://www.w3.org/Graphics/SVG/1.1/DTD/svg11.dtd">
<svg xmlns="http://www.w3.org/2000/svg">
<defs >
<font id="Taviraj" horiz-adv-x="569" ><font-face
    font-family="Taviraj Light"
    units-per-em="1000"
    panose-1="0 0 4 0 0 0 0 0 0 0"
    ascent="1172"
    descent="-534"
    alphabetic="0" />
<glyph unicode=" " glyph-name="space" horiz-adv-x="257" />
<glyph unicode="!" glyph-name="exclam" horiz-adv-x="266" d="M92 634L91 651Q91 682 99 696T134 710Q159 710 167 696T176 651L175 634L152 122H116L92 634ZM111 -10T98 2T85 37Q85 59 98 72T134 85Q156 85 169 72T182 37Q182 15 169 3T134 -10Q111 -10 98 2Z" />
<glyph unicode="&quot;" glyph-name="quotedbl" horiz-adv-x="382" d="M74 651Q74 688 81 706T114 724Q137 724 145 707T154 655L129 440H97L74 651ZM228 651Q228 688 235 706T268 724Q292 724 300 707T308 655L283 440H251L228 651Z" />
<glyph unicode="#" glyph-name="numbersign" horiz-adv-x="831" d="M616 474L558 224H730V189H550L503 -10H448L494 189H265L219 -10H163L210 189H34V224H218L276 474H98V509H285L328 694H383L340 509H569L612 694H668L625 509H793V474H616ZM561 474H332L274 224H503L561
474Z" />
<glyph unicode="$" glyph-name="dollar" horiz-adv-x="563" d="M523 94T461 43T298 -10V-95H260V-8Q213 -3 177 12T105 49Q84 62 79 62Q70 62 70 45V1H39V186H63Q68 141 98 104T175 46T269 25Q350 25 398 64T446 171Q446 213 421 244T360 296T260 345Q192 375
152 398T83 459T54 548Q54 624 110 665T260 710V788H298V709Q340 706 371 694T436 663Q453 653 456 653Q463 653 463 664V706H494V521H470Q463 591 414 632T291 674Q214 674 172 642T130 556Q130 519 153 492T210 446T304 402Q376 371 419 347T492 282T523 181Q523
94 461 43Z" />
<glyph unicode="%" glyph-name="percent" horiz-adv-x="882" d="M140 8L711 717L741 692L168 -16L140 8ZM127 326T81 376T34 515Q34 604 81 654T216 705Q304 705 350 655T397 515Q397 426 351 376T216 326Q127 326 81 376ZM276 363T304 409T332 515Q332 575 304
621T216 668Q156 668 128 622T100 515Q100 455 128 409T216 363Q276 363 304 409ZM579 -11T532 40T484 180Q484 268 531 318T667 369Q755 369 801 319T848 180Q848 91 802 40T667 -11Q579 -11 532 40ZM727 27T754 73T782 180Q782 240 755 286T667 332Q607 332 579
286T551 180Q551 120 579 74T667 27Q727 27 754 73Z" />
<glyph unicode="&amp;" glyph-name="ampersand" horiz-adv-x="721" d="M172 -10T109 38T45 169Q45 218 69 256T129 323T221 384Q175 430 149 480T122 569Q122 636 167 672T290 709Q361 709 404 676T448 576Q448 516 408 474T296 388Q355 324 470 210L535 145Q594
222 609 324H650Q633 204 560 119Q588 92 645 33L677 0H589L512 78Q466 36 406 13T275 -10Q172 -10 109 38ZM338 452T371 488T405 576Q405 623 377 649T299 675Q250 675 222 649T193 575Q193 503 275 413Q338 452 371 488ZM343 24T394 44T486 104Q388 202 337 254T250
349Q188 307 153 267T118 172Q118 101 166 63T284 24Q343 24 394 44Z" />
<glyph unicode="&apos;" glyph-name="quotesingle" horiz-adv-x="228" d="M74 651Q74 688 81 706T114 724Q137 724 145 707T154 655L129 440H97L74 651Z" />
<glyph unicode="(" glyph-name="parenleft" horiz-adv-x="259" d="M119 -61T78 48T36 286Q36 415 78 527T203 723L231 716Q96 534 96 287Q96 45 230 -139L203 -145Q119 -61 78 48Z" />
<glyph unicode=")" glyph-name="parenright" horiz-adv-x="259" d="M29 -139Q163 43 163 287Q163 536 28 716L56 723Q139 639 181 527T223 286Q223 158 181 49T56 -145L29 -139Z" />
<glyph unicode="*" glyph-name="asterisk" horiz-adv-x="520" d="M242 320T231 332T219 365Q219 389 231 411Q239 428 243 446T249 496Q221 481 205 466T173 430Q159 412 150 405T122 398Q108 398 96 409T84 437Q84 453 95 466T122 481Q129 482 149 485T191 495T238
516Q174 548 130 548Q112 548 98 562T84 595Q84 611 96 622T123 634Q141 634 150 627T172 604Q185 585 201 569T248 536Q248 570 244 588T230 622Q224 633 222 642T219 666Q219 687 230 699T260 712Q278 712 289 700T301 666Q301 652 299 644T289 621Q280 602 276
585T271 536Q301 553 317 569T347 604Q359 620 368 627T396 634Q411 634 423 623T436 595Q436 577 422 563T389 548Q366 548 341 541T282 516Q312 500 334 494T373 485T397 481Q413 479 424 466T436 437Q436 421 424 410T397 398Q379 398 369 405T346 430Q331 450
315 465T271 496Q272 462 276 444T289 410Q295 400 298 390T301 365Q301 345 290 333T260 320Q242 320 231 332Z" />
<glyph unicode="+" glyph-name="plus" horiz-adv-x="574" d="M251 320H59V362H251V563H324V362H515V320H324V120H251V320Z" />
<glyph unicode="," glyph-name="comma" horiz-adv-x="237" d="M75 -115Q96 -90 105 -69T115 -19Q115 -11 99 -4Q84 5 76 14T67 44Q67 64 81 77T117 90Q146 90 161 70T177 17Q177 -18 154 -61T100 -133L75 -115Z" />
<glyph unicode="-" glyph-name="hyphen" horiz-adv-x="360" d="M41 299H319V254H41V299Z" />
<glyph unicode="." glyph-name="period" horiz-adv-x="237" d="M95 -10T81 4T67 41Q67 64 81 77T119 91Q142 91 156 78T170 41Q170 18 156 4T119 -10Q95 -10 81 4Z" />
<glyph unicode="/" glyph-name="slash" horiz-adv-x="367" d="M292 709H336L75 0H31L292 709Z" />
<glyph unicode="0" glyph-name="zero" horiz-adv-x="565" d="M157 -10T101 84T44 350Q44 710 282 710Q520 710 520 350Q520 178 464 84T282 -10Q157 -10 101 84ZM369 24T407 109T445 350Q445 506 407 591T282 676Q196 676 158 591T120 350Q120 194 158 109T282
24Q369 24 407 109Z" />
<glyph unicode="1" glyph-name="one" horiz-adv-x="565" d="M154 22H190Q249 22 249 57V656L118 598V638L325 722V57Q325 39 339 31T384 22H420V0H154V22Z" />
<glyph unicode="2" glyph-name="two" horiz-adv-x="565" d="M48 49Q61 101 91 144T158 219T247 293Q301 335 336 368T396 445T420 538Q420 599 385 637T270 676Q211 676 176 651T140 582Q140 568 131 558T103 548Q86 548 76 557T65 586Q65 619 92 647T168 693T276
710Q374 710 433 667T493 531Q493 476 466 431T401 352T297 271Q224 219 178 173T114 68V50H427Q450 50 463 74T485 141H505L494 0H48V49Z" />
<glyph unicode="3" glyph-name="three" horiz-adv-x="565" d="M208 -10T160 6T83 50T55 111Q55 130 66 140T94 151Q112 151 121 141T130 118Q130 75 167 50T264 24Q338 24 382 72T427 198Q427 266 381 310T264 354H189V390H264Q314 390 348 413T398 473T414 546Q414
604 378 640T272 676Q213 676 178 651T142 582Q142 568 133 558T105 548Q88 548 78 558T67 588Q67 623 94 650T170 694T278 710Q366 710 426 669T486 539Q486 480 448 434T352 375V371Q410 359 455 316T501 200Q501 93 434 42T267 -10Q208 -10 160 6Z" />
<glyph unicode="4" glyph-name="four" horiz-adv-x="565" d="M259 22H295Q325 22 339 30T354 57V173H33V220L349 702H430V216H536L525 173H430V57Q430 22 490 22H525V0H259V22ZM354 216V643L77 216H354Z" />
<glyph unicode="5" glyph-name="five" horiz-adv-x="565" d="M205 -10T158 6T84 48T58 101Q58 122 67 133T91 144Q117 144 122 112Q127 69 165 47T259 24Q337 24 380 78T424 215Q424 294 387 347T273 401Q179 401 107 327L79 338L118 700H403Q421 700 431 708T445
737H467L459 651H153L124 384Q190 436 284 436Q395 436 447 373T499 215Q499 153 474 102T397 21T267 -10Q205 -10 158 6Z" />
<glyph unicode="6" glyph-name="six" horiz-adv-x="565" d="M53 -10T53 305Q53 504 116 607T300 710Q358 710 400 692T463 645T485 586Q485 566 476 556T449 545Q416 545 416 582Q416 627 386 651T298 676Q222 676 175 592T126 325Q148 385 198 414T305 444Q366
444 413 417T486 340T513 222Q513 115 454 53T283 -10Q53 -10 53 305ZM358 24T398 76T438 212Q438 299 400 354T289 410Q245 410 211 385T157 317T137 218Q137 137 176 81T285 24Q358 24 398 76Z" />
<glyph unicode="7" glyph-name="seven" horiz-adv-x="565" d="M183 -3T173 6T163 32Q163 180 239 347T431 651H121Q102 651 91 629T78 577H55V700H505V673Q365 493 308 347T243 40Q242 19 232 8T198 -3Q183 -3 173 6Z" />
<glyph unicode="8" glyph-name="eight" horiz-adv-x="565" d="M435 340T474 300T514 188Q514 100 455 45T280 -10Q167 -10 109 43T50 184Q50 249 88 299T186 374Q132 402 103 440T73 540Q73 620 130 665T284 710Q378 710 435 667T492 544Q492 487 457 440T364
370Q435 340 474 300ZM140 503T164 473T224 426T322 385Q378 406 408 449T439 545Q439 608 396 642T289 676Q223 676 182 644T140 550Q140 503 164 473ZM318 24T357 41T421 94T445 177Q445 220 422 249T365 297T273 337L228 355Q176 334 142 286T107 181Q107 130
130 95T192 42T274 24Q318 24 357 41Z" />
<glyph unicode="9" glyph-name="nine" horiz-adv-x="565" d="M206 -10T164 8T101 55T79 114Q79 134 88 144T115 154Q148 154 148 117Q148 73 178 49T266 24Q342 24 389 107T438 374Q416 314 363 283T252 251Q160 251 106 313T51 478Q51 585 110 647T281 710Q511
710 511 394Q511 195 448 93T264 -10Q206 -10 164 8ZM315 287T350 312T406 382T427 481Q427 562 388 618T279 675Q206 675 166 623T126 487Q126 399 162 343T271 287Q315 287 350 312Z" />
<glyph unicode=":" glyph-name="colon" horiz-adv-x="237" d="M95 400T81 414T67 451Q67 473 81 487T119 501Q142 501 156 487T170 451Q170 428 156 414T119 400Q95 400 81 414ZM95 -10T81 4T67 41Q67 64 81 77T119 91Q142 91 156 78T170 41Q170 18 156 4T119
-10Q95 -10 81 4Z" />
<glyph unicode=";" glyph-name="semicolon" horiz-adv-x="237" d="M95 400T81 414T67 451Q67 473 81 487T119 501Q142 501 156 487T170 451Q170 428 156 414T119 400Q95 400 81 414ZM75 -115Q96 -90 105 -69T115 -19Q115 -11 99 -4Q84 5 76 14T67 44Q67 64 81
77T117 90Q146 90 161 70T177 17Q177 -18 154 -61T100 -133L75 -115Z" />
<glyph unicode="&lt;" glyph-name="less" horiz-adv-x="574" d="M46 317V346L523 592V543L117 331L523 119V71L46 317Z" />
<glyph unicode="=" glyph-name="equal" horiz-adv-x="574" d="M52 435H522V393H52V435ZM52 244H522V202H52V244Z" />
<glyph unicode="&gt;" glyph-name="greater" horiz-adv-x="574" d="M49 119L454 331L49 543V592L527 346V317L49 71V119Z" />
<glyph unicode="?" glyph-name="question" horiz-adv-x="453" d="M168 174T168 194Q168 237 181 271T214 331T267 392Q309 437 329 470T350 546Q350 605 319 640T218 676Q165 676 132 650T98 582Q98 568 90 558T64 548Q28 548 28 586Q28 618 52 646T121 692T222
710Q309 710 365 670T422 542Q422 507 408 477T374 425T320 370Q285 336 265 313T230 258T215 189Q215 175 217 161H171Q168 174 168 194ZM169 -10T156 3T143 38Q143 60 156 73T191 86Q213 86 226 73T240 38Q240 16 227 3T191 -10Q169 -10 156 3Z" />
<glyph unicode="@" glyph-name="at" horiz-adv-x="793" d="M273 -56T195 -13T76 107T35 285Q35 393 81 480T214 618T415 669Q513 669 590 630T710 518T753 349Q753 289 734 239T681 158T602 128Q567 128 538 149T505 209Q488 169 448 149T367 128Q297 128 257
170T217 287Q217 343 240 390T308 464T412 492Q447 492 484 484T551 461L532 227Q530 197 551 179T602 161Q632 161 657 185T697 252T712 350Q712 435 675 499T571 599T420 635Q318 635 241 591T123 469T81 288Q81 145 158 62T388 -21Q493 -21 585 17V-20Q488 -56
383 -56Q273 -56 195 -13ZM420 162T449 193T483 276L496 438Q457 454 414 454Q354 454 316 407T278 285Q278 226 303 194T375 162Q420 162 449 193Z" />
<glyph unicode="A" glyph-name="A" horiz-adv-x="714" d="M709 22V0H478V22H493Q514 22 532 29T546 47L485 217H200L144 66Q142 58 142 56Q142 41 159 32T195 22H212V0H5V22H20Q40 22 61 32T88 57L325 686L381 712L628 57Q634 41 653 32T692 22H709ZM473 252L345
608L213 252H473Z" />
<glyph unicode="B" glyph-name="B" horiz-adv-x="590" d="M20 22H48Q78 22 92 30T107 57V642Q107 660 93 668T48 677H20V700H313Q412 700 465 658T518 534Q518 476 485 431T392 370V367Q486 353 523 304T560 188Q560 98 504 49T342 0H20V22ZM293 383Q361 383 402
424T444 533Q444 601 404 633T281 665H183V383H293ZM304 35Q396 35 441 75T487 191Q487 271 441 310T296 349H183V35H304Z" />
<glyph unicode="C" glyph-name="C" horiz-adv-x="658" d="M211 -10T128 84T45 350Q45 463 84 544T197 667T374 710Q437 710 484 692T564 650Q572 645 573 645Q582 645 582 662V705H613V519H589Q582 591 526 632T387 674Q258 674 190 587T121 350Q121 200 185 113T378
25Q448 25 510 61T594 170H627Q609 85 539 38T365 -10Q211 -10 128 84Z" />
<glyph unicode="D" glyph-name="D" horiz-adv-x="669" d="M19 22H48Q107 22 107 57V642Q107 677 48 677H19V700H324Q475 700 551 610T628 350Q628 179 551 90T323 0H19V22ZM321 33Q436 33 494 116T552 350Q552 500 495 583T323 666H183V33H321Z" />
<glyph unicode="E" glyph-name="E" horiz-adv-x="591" d="M553 175L537 0H17V22H45Q105 22 105 57V642Q105 677 45 677H17V700H538V533H516Q512 585 496 625T435 665H181V387H370Q400 387 409 411T422 486H443V253H422Q418 304 409 328T370 352H181V35H446Q487
35 506 78T531 175H553Z" />
<glyph unicode="F" glyph-name="F" horiz-adv-x="559" d="M538 700V533H516Q512 585 496 625T435 665H181V361H352Q382 361 391 385T404 460H425V227H404Q400 278 391 302T352 326H181V57Q181 39 195 31T240 22H268V0H17V22H46Q105 22 105 57V642Q105 677 46 677H17V700H538Z"
/>
<glyph unicode="G" glyph-name="G" horiz-adv-x="698" d="M211 -10T128 84T45 350Q45 463 84 544T198 667T376 710Q433 710 485 692T565 650Q569 646 576 646Q585 646 585 662V705H616V519H592Q584 591 527 632T388 674Q260 674 191 586T121 350Q121 200 185 113T378
25Q425 25 474 37T557 79V281Q557 309 533 319T460 331V351H689V333H681Q658 333 648 326T634 301T630 244V70Q580 31 519 11T365 -10Q211 -10 128 84Z" />
<glyph unicode="H" glyph-name="H" horiz-adv-x="757" d="M674 677T660 669T645 642V57Q645 39 659 31T704 22H732V0H481V22H509Q569 22 569 57V354H188V57Q188 22 247 22H276V0H25V22H53Q83 22 97 30T112 57V642Q112 660 98 668T53 677H25V700H276V677H247Q188
677 188 642V389H569V642Q569 677 509 677H481V700H732V677H704Q674 677 660 669Z" />
<glyph unicode="I" glyph-name="I" horiz-adv-x="307" d="M28 22H57Q116 22 116 57V642Q116 677 57 677H28V700H279V677H251Q221 677 207 669T192 642V57Q192 39 206 31T251 22H279V0H28V22Z" />
<glyph unicode="J" glyph-name="J" horiz-adv-x="349" d="M31 -95Q92 -84 124 -39T157 79V642Q157 660 143 668T98 677H70V700H321V677H292Q233 677 233 642V79Q233 -13 179 -63T35 -114L31 -95Z" />
<glyph unicode="K" glyph-name="K" horiz-adv-x="674" d="M657 22V0H519L190 333L188 331V57Q188 22 247 22H276V0H25V22H53Q83 22 97 30T112 57V642Q112 660 98 668T53 677H25V700H276V677H247Q188 677 188 642V385L485 645Q491 653 491 658Q491 677 452 677H437V700H626V677H608Q588
677 576 671T549 652L240 378L553 62Q573 42 588 32T628 22H657Z" />
<glyph unicode="L" glyph-name="L" horiz-adv-x="573" d="M26 22H54Q114 22 114 57V642Q114 677 54 677H26V700H277V677H249Q219 677 205 669T190 642V73Q190 35 250 35H444Q484 35 504 82T530 179H553L537 0H26V22Z" />
<glyph unicode="M" glyph-name="M" horiz-adv-x="884" d="M25 22H53Q83 22 97 30T112 57V642Q112 660 98 668T53 677H25V700H197L438 151L681 700H859V677H831Q801 677 787 669T772 642V57Q772 39 786 31T831 22H859V0H608V22H636Q696 22 696 57V627L448 77H402L156
628V57Q156 22 215 22H244V0H25V22Z" />
<glyph unicode="N" glyph-name="N" horiz-adv-x="746" d="M25 22H53Q83 22 97 30T112 57V642Q112 660 98 668T53 677H25V700H201L589 101V642Q589 660 575 668T530 677H502V700H721V677H692Q633 677 633 642V0H584L156 655V57Q156 22 215 22H244V0H25V22Z" />
<glyph unicode="O" glyph-name="O" horiz-adv-x="739" d="M210 -10T124 84T38 350Q38 521 124 615T370 710Q529 710 615 616T701 350Q701 178 615 84T370 -10Q210 -10 124 84ZM496 26T560 113T625 350Q625 500 561 587T369 674Q244 674 179 587T114 350Q114 200
179 113T369 26Q496 26 560 113Z" />
<glyph unicode="P" glyph-name="P" horiz-adv-x="582" d="M25 22H53Q83 22 97 30T112 57V642Q112 660 98 668T53 677H25V700H353Q563 700 563 488Q563 389 513 333T353 276H188V57Q188 22 247 22H276V0H25V22ZM341 311Q417 311 453 358T489 488Q489 572 453 618T341
665H188V311H341Z" />
<glyph unicode="Q" glyph-name="Q" horiz-adv-x="739" d="M605 -109T629 -87T664 -26H683Q683 -42 682 -49Q677 -95 642 -127T553 -159Q513 -159 481 -145T399 -103Q364 -82 341 -71T294 -60Q252 -60 199 -95L191 -81Q221 -56 247 -38T305 -6Q176 13 107 105T38
350Q38 521 124 615T370 710Q529 710 615 616T701 350Q701 178 615 84T370 -10H350Q327 -22 311 -34H323Q351 -34 378 -43T444 -71Q487 -90 514 -99T571 -109Q605 -109 629 -87ZM114 200T179 113T369 26Q496 26 560 113T625 350Q625 500 561 587T369 674Q244 674
179 587T114 350Q114 200 179 113Z" />
<glyph unicode="R" glyph-name="R" horiz-adv-x="649" d="M509 124T521 94T555 43T613 22V0H546Q502 0 476 26T435 103L423 150Q410 204 398 238T363 292H348H188V57Q188 22 247 22H276V0H25V22H53Q83 22 97 30T112 57V642Q112 660 98 668T53 677H25V700H348Q460
700 510 647T560 496Q560 333 425 300Q453 285 466 256T495 174Q509 124 521 94ZM486 327T486 496Q486 665 336 665H188V327H336Q486 327 486 496Z" />
<glyph unicode="S" glyph-name="S" horiz-adv-x="563" d="M234 -10T192 6T104 49Q85 62 79 62Q70 62 70 45V1H39V186H63Q68 141 98 104T175 46T269 25Q350 25 398 64T446 171Q446 213 421 244T360 296T260 345Q192 375 152 398T83 459T54 548Q54 627 114 668T276
710Q326 710 362 697T436 663Q453 653 456 653Q463 653 463 664V706H494V521H470Q463 591 414 632T291 674Q214 674 172 642T130 556Q130 519 153 492T210 446T304 402Q376 371 419 347T492 282T523 181Q523 122 493 79T410 13T291 -10Q234 -10 192 6Z" />
<glyph unicode="T" glyph-name="T" horiz-adv-x="631" d="M190 22H218Q278 22 278 57V665H136Q96 665 82 620T64 521H42V700H589V521H567Q564 574 550 619T495 665H354V57Q354 39 368 31T413 22H441V0H190V22Z" />
<glyph unicode="U" glyph-name="U" horiz-adv-x="724" d="M239 -10T173 38T107 200V642Q107 660 92 668T53 677H32V700H258V677H237Q213 677 198 669T183 642V194Q183 99 235 62T382 25Q464 25 518 63T573 194V642Q573 660 558 668T519 677H499V700H692V677H671Q647
677 632 669T617 642V200Q617 89 553 40T365 -10Q239 -10 173 38Z" />
<glyph unicode="V" glyph-name="V" horiz-adv-x="701" d="M90 643Q84 658 65 667T26 677H10V700H240V677H224Q203 677 185 668T171 643L362 88L554 641Q559 657 539 667T499 677H484V700H691V677H676Q656 677 635 666T608 640L379 -4H322L90 643Z" />
<glyph unicode="W" glyph-name="W" horiz-adv-x="977" d="M967 700V677H952Q931 677 910 667T884 642L704 -4H656L494 495L325 -4H270L90 643Q86 658 66 667T26 677H10V700H240V677H224Q199 677 183 667T171 642L310 92L471 567L446 643Q441 658 422 667T383 677H366V700H589V677H573Q553
677 534 668T519 645L689 92L831 643Q835 658 816 667T777 677H760V700H967Z" />
<glyph unicode="X" glyph-name="X" horiz-adv-x="683" d="M677 22V0H445V22H460Q483 22 497 30T511 51Q511 60 505 69L339 317L144 56Q139 48 139 44Q139 33 155 28T196 22H212V0H6V22H21Q39 22 59 32T89 57L314 355L121 643Q112 657 94 667T57 677H41V700H273V677H256Q235
677 220 669T204 650Q204 645 207 640L358 414L528 640Q533 648 533 653Q533 664 521 670T493 677H460V700H666V677H651Q632 677 613 667T583 642L384 376L597 57Q607 42 625 32T660 22H677Z" />
<glyph unicode="Y" glyph-name="Y" horiz-adv-x="674" d="M204 22H232Q292 22 292 57V294L90 643Q70 677 40 677H10V700H236V677H203Q185 677 175 671T164 654Q164 649 167 643L341 332L527 641Q531 646 531 653Q531 664 521 670T494 677H457V700H664V677H636Q603
677 581 642L368 293V57Q368 39 382 31T427 22H455V0H204V22Z" />
<glyph unicode="Z" glyph-name="Z" horiz-adv-x="556" d="M24 21L439 665H167Q122 665 106 625T86 533H64V700H522V682L108 35H412Q453 35 472 77T498 173H520L504 0H24V21Z" />
<glyph unicode="[" glyph-name="bracketleft" horiz-adv-x="288" d="M60 701H243V668H121V-90H243V-125H60V701Z" />
<glyph unicode="\" glyph-name="backslash" horiz-adv-x="367" d="M30 709H73L335 0H291L30 709Z" />
<glyph unicode="]" glyph-name="bracketright" horiz-adv-x="288" d="M44 -90H166V668H44V701H226V-125H44V-90Z" />
<glyph unicode="^" glyph-name="asciicircum" horiz-adv-x="546" d="M240 720H305L498 312H439L273 676L106 312H47L240 720Z" />
<glyph unicode="_" glyph-name="underscore" horiz-adv-x="449" d="M-4 -79H453V-114H-4V-79Z" />
<glyph unicode="`" glyph-name="grave" horiz-adv-x="485" d="M180 662Q152 678 152 698Q152 708 159 715T178 722Q198 722 218 702L330 602L316 582L180 662Z" />
<glyph unicode="a" glyph-name="a" horiz-adv-x="484" d="M98 -10T66 19T33 96Q33 168 108 215T342 285V340Q342 393 309 419T221 446Q183 446 149 431T115 398Q115 392 116 385T118 370Q118 357 111 347T85 336Q70 336 61 347T51 378Q51 427 106 453T236 480Q322
480 369 442T416 337V52Q416 36 421 29T437 21Q450 21 472 29V15Q458 3 439 -3T400 -10Q377 -10 360 0T343 34V70Q301 24 252 7T157 -10Q98 -10 66 19ZM233 24T277 50T342 110V255Q230 235 168 194T105 101Q105 63 128 44T192 24Q233 24 277 50Z" />
<glyph unicode="b" glyph-name="b" horiz-adv-x="563" d="M249 -10T205 12T139 73L118 0H82V649Q82 667 64 667Q54 667 32 658L26 677L132 717H154V393Q177 435 222 457T316 480Q415 480 472 419T530 242Q530 108 474 49T312 -10Q249 -10 205 12ZM385 23T421 81T458
237Q458 338 418 392T297 446Q263 446 230 428T175 378T154 305V173Q154 135 171 101T223 45T302 23Q385 23 421 81Z" />
<glyph unicode="c" glyph-name="c" horiz-adv-x="490" d="M150 -10T90 54T29 235Q29 349 91 414T263 480Q309 480 352 466T422 417L433 480H454V321H433Q423 383 383 415T282 447Q197 447 150 389T103 234Q103 137 148 79T266 21Q332 21 375 56T430 166H456Q448
86 399 38T258 -10Q150 -10 90 54Z" />
<glyph unicode="d" glyph-name="d" horiz-adv-x="566" d="M142 -10T87 51T31 245Q31 321 58 374T132 453T240 480Q354 480 406 406V649Q406 667 389 667Q377 667 357 658L351 677L456 717H479V63Q479 29 520 29H541V11L419 -3L414 75Q363 -10 240 -10Q142 -10
87 51ZM305 23T338 43T389 97T407 167V322Q407 357 386 385T332 430T265 446Q187 446 145 394T103 242Q103 141 139 82T259 23Q305 23 338 43Z" />
<glyph unicode="e" glyph-name="e" horiz-adv-x="497" d="M104 261Q103 252 103 234Q103 170 124 122T183 47T269 21Q335 21 379 56T436 166H462Q454 86 403 38T261 -10Q153 -10 91 54T29 235Q29 350 91 415T261 480Q361 480 413 425T466 282V261H104ZM200 447T161
406T108 295H401Q399 355 366 401T264 447Q200 447 161 406Z" />
<glyph unicode="f" glyph-name="f" horiz-adv-x="379" d="M324 722T359 696T395 625Q395 605 385 596T360 586Q344 586 335 593T326 616Q326 623 332 633T338 648Q338 667 316 678T269 689Q185 689 185 586V470H328V437H185V51Q185 36 200 29T238 21H255V0H43V21H59Q83
21 98 28T113 51V437H23V470H113V581Q113 650 151 686T259 722Q324 722 359 696Z" />
<glyph unicode="g" glyph-name="g" horiz-adv-x="486" d="M472 480T487 470T502 444Q502 430 495 423T473 415Q464 415 459 418T449 429Q444 437 438 441T419 445Q406 445 378 430Q421 390 421 323Q421 250 369 209T227 167Q167 167 122 187Q88 163 88 137Q88
116 108 103T164 90H316Q373 90 412 65T452 -10Q452 -80 390 -115T223 -150Q135 -150 83 -120T30 -33Q30 25 100 56Q70 65 55 83T40 124Q40 166 95 202Q35 245 35 323Q35 396 86 438T227 480Q309 480 358 446Q397 480 446 480Q472 480 487 470ZM287 199T318 234T349
323Q349 377 318 412T227 448Q168 448 138 413T107 323Q107 269 137 234T227 199Q287 199 318 234ZM84 19T84 -33Q84 -75 123 -96T228 -118Q302 -118 345 -93T388 -22Q388 11 368 27T299 44H137Q84 19 84 -33Z" />
<glyph unicode="h" glyph-name="h" horiz-adv-x="596" d="M571 21V0H363V21H377Q399 21 414 28T429 51V334Q429 389 400 417T318 445Q280 445 246 427T189 374T167 291V51Q167 36 182 29T219 21H233V0H25V21H41Q64 21 79 28T94 51V649Q94 667 76 667Q65 667 45
658L38 677L144 717H167V394Q188 429 233 454T336 480Q416 480 459 444T502 345V51Q502 36 517 29T555 21H571Z" />
<glyph unicode="i" glyph-name="i" horiz-adv-x="273" d="M107 563T94 576T80 610Q80 632 93 645T129 658Q151 658 164 645T178 610Q178 589 165 576T129 563Q107 563 94 576ZM31 21H47Q70 21 85 28T100 51V406Q100 416 95 420T82 425Q76 425 65 421T51 416L44
435L150 474H173V51Q173 36 188 29T226 21H242V0H31V21Z" />
<glyph unicode="j" glyph-name="j" horiz-adv-x="277" d="M134 563T121 576T107 610Q107 632 120 645T156 658Q178 658 191 645T205 610Q205 589 192 576T156 563Q134 563 121 576ZM32 -105Q74 -86 93 -59T118 3T123 101V404Q123 422 105 422Q95 422 73 413L67
432L173 472H195V104Q195 7 162 -49T37 -126L32 -105Z" />
<glyph unicode="k" glyph-name="k" horiz-adv-x="559" d="M546 21V0H413L175 214L166 206V51Q166 36 181 29T219 21H234V0H24V21H40Q64 21 79 28T94 51V649Q94 667 76 667Q67 667 44 658L38 677L144 717H166V251L364 419Q372 427 372 432Q372 439 362 444T337
449H319V470H496V449H478Q465 449 450 443T423 426L222 254L451 48Q466 35 486 28T520 21H546Z" />
<glyph unicode="l" glyph-name="l" horiz-adv-x="284" d="M37 21H53Q77 21 92 28T107 51V649Q107 667 89 667Q79 667 57 658L51 677L157 717H179V51Q179 36 194 29T232 21H247V0H37V21Z" />
<glyph unicode="m" glyph-name="m" horiz-adv-x="857" d="M832 21V0H622V21H638Q661 21 676 28T691 51V334Q691 388 665 416T596 445Q538 445 501 405T464 291V51Q464 36 479 29T517 21H527V0H329V21H340Q364 21 379 28T394 51V334Q394 388 368 416T298 445Q240
445 204 405T167 291V51Q167 36 182 29T220 21H235V0H25V21H41Q64 21 79 28T94 51V404Q94 422 77 422Q65 422 45 413L39 432L144 472H167V398Q186 432 224 456T316 480Q375 480 411 456T459 387Q475 424 515 452T613 480Q686 480 725 444T764 345V51Q764 36 779
29T817 21H832Z" />
<glyph unicode="n" glyph-name="n" horiz-adv-x="596" d="M571 21V0H363V21H377Q399 21 414 28T429 51V334Q429 389 400 417T318 445Q280 445 246 427T189 374T167 291V51Q167 36 182 29T219 21H233V0H25V21H41Q64 21 79 28T94 51V404Q94 422 76 422Q65 422 45
413L38 432L144 472H167V394Q188 429 233 454T336 480Q416 480 459 444T502 345V51Q502 36 517 29T555 21H571Z" />
<glyph unicode="o" glyph-name="o" horiz-adv-x="544" d="M158 -10T94 54T29 235Q29 351 93 415T272 480Q386 480 450 416T514 235Q514 119 450 55T272 -10Q158 -10 94 54ZM351 23T397 78T443 235Q443 335 397 390T272 446Q192 446 147 391T101 235Q101 134 146
79T272 23Q351 23 397 78Z" />
<glyph unicode="p" glyph-name="p" horiz-adv-x="573" d="M26 -204H42Q65 -204 80 -197T96 -174V404Q96 422 78 422Q68 422 46 413L40 432L146 472H168V390Q196 437 241 458T337 480Q434 480 489 420T544 247Q544 113 487 52T317 -10Q267 -10 225 12T168 65V-173Q168
-189 183 -196T221 -204H236V-225H26V-204ZM399 23T435 82T472 242Q472 343 434 394T314 446Q283 446 249 428T191 376T168 299V160Q168 102 207 63T316 23Q399 23 435 82Z" />
<glyph unicode="q" glyph-name="q" horiz-adv-x="574" d="M407 61Q358 -10 240 -10Q140 -10 86 52T31 247Q31 361 88 420T238 480Q297 480 342 460T412 401L430 472H479V-182Q479 -200 497 -200Q507 -200 529 -191L535 -210L429 -250H407V61ZM305 23T338 42T389
93T407 162V308Q407 352 384 383T327 430T257 446Q188 446 146 394T103 242Q103 142 141 83T259 23Q305 23 338 42Z" />
<glyph unicode="r" glyph-name="r" horiz-adv-x="371" d="M328 480T346 471T364 443Q364 427 356 419T334 410Q325 410 320 413T309 423Q303 430 298 433T282 437Q238 437 209 395T178 281V51Q178 36 193 29T231 21H246V0H36V21H52Q75 21 90 28T105 51V404Q105
422 88 422Q76 422 56 413L50 432L157 472H178V389Q193 428 225 454T300 480Q328 480 346 471Z" />
<glyph unicode="s" glyph-name="s" horiz-adv-x="438" d="M179 -10T138 4T73 53L62 -9H41V139H62Q73 85 111 54T208 23Q269 23 301 45T334 110Q334 133 319 149T281 176T216 204Q164 223 131 240T74 287T50 363Q50 420 93 450T211 480Q255 480 296 465T359 420L370
480H391V337H369Q357 386 322 416T231 446Q182 446 152 426T122 370Q122 342 139 323T181 291T250 263Q301 245 332 230T384 187T406 118Q406 54 357 22T228 -10Q179 -10 138 4Z" />
<glyph unicode="t" glyph-name="t" horiz-adv-x="379" d="M362 84Q357 36 323 13T241 -10Q171 -10 136 20T101 121V437H19V470H101V556L153 602H174V470H316V437H174V124Q174 71 192 46T251 21Q282 21 304 36T331 84H362Z" />
<glyph unicode="u" glyph-name="u" horiz-adv-x="581" d="M523 21T545 29V15Q516 -10 473 -10Q447 -10 432 4T416 46V77Q395 42 350 16T246 -10Q166 -10 123 26T80 124V404Q80 422 63 422Q51 422 31 413L25 432L130 472H153V135Q153 80 182 52T264 24Q302 24 337
42T394 95T416 178V404Q416 422 398 422Q388 422 366 413L360 432L468 472H488V52Q488 21 510 21Q523 21 545 29Z" />
<glyph unicode="v" glyph-name="v" horiz-adv-x="522" d="M85 399Q74 429 63 439T28 449H14V470H201V449H187Q146 449 146 429L148 421L271 69L393 419Q395 425 395 428Q395 440 383 444T354 449H340V470H508V449H495Q478 449 463 443T443 424L290 0H231L85 399Z" />
<glyph unicode="w" glyph-name="w" horiz-adv-x="736" d="M720 470V449H708Q691 449 676 443T658 424L539 0H482L367 400L246 0H189L77 405Q72 425 62 437T24 449H15V470H194V449H180Q133 449 140 421L229 69L347 470H403L521 66L611 419Q618 449 572 449H559V470H720Z" />
<glyph unicode="x" glyph-name="x" horiz-adv-x="525" d="M512 21V0H327V21H341Q357 21 370 26T383 40Q383 45 379 49L257 207L131 51Q126 46 126 40Q126 31 138 26T164 21H178V0H13V21H25Q40 21 54 27T79 45L235 236L88 425Q70 449 41 449H27V470H209V449H193Q178
449 168 445T158 432Q158 428 163 421L271 281L384 419Q389 426 389 430Q389 439 376 444T348 449H335V470H496V449H484Q470 449 456 443T432 424L293 252L453 45Q462 33 475 27T502 21H512Z" />
<glyph unicode="y" glyph-name="y" horiz-adv-x="539" d="M525 470V449H512Q470 449 457 414L262 -91Q243 -140 211 -164T129 -188Q88 -188 63 -172T38 -137Q38 -109 61 -109Q72 -109 77 -114T88 -129Q94 -140 101 -145T122 -151Q160 -151 184 -133T224 -74L253
3L76 425Q71 438 57 443T28 449H14V470H201V449H187Q168 449 155 443T147 423L281 77L410 422Q415 436 402 442T371 449H357V470H525Z" />
<glyph unicode="z" glyph-name="z" horiz-adv-x="433" d="M20 21L337 437H112Q96 437 87 408T75 351H55V470H412V442L98 32H334Q368 32 383 118H403L393 0H20V21Z" />
<glyph unicode="{" glyph-name="braceleft" horiz-adv-x="361" d="M244 -129T206 -115T152 -69T136 17V184Q136 231 109 258T21 293V319Q83 328 109 353T136 428V590Q136 646 151 678T204 725T313 740V715Q252 710 223 686T194 600V428Q194 318 71 306V304Q131
299 162 269T194 188V11Q194 -32 208 -56T247 -90T314 -104V-129Q244 -129 206 -115Z" />
<glyph unicode="|" glyph-name="bar" horiz-adv-x="433" d="M185 755H248V-191H185V755Z" />
<glyph unicode="}" glyph-name="braceright" horiz-adv-x="361" d="M46 -104Q88 -100 113 -90T152 -56T166 11V188Q166 239 197 269T289 304V306Q166 318 166 428V600Q166 662 137 686T47 715V740Q118 740 156 725T209 678T224 590V428Q224 379 250 354T339 319V293Q279
286 252 259T224 184V17Q224 -38 208 -69T154 -114T46 -129V-104Z" />
<glyph unicode="~" glyph-name="asciitilde" horiz-adv-x="575" d="M380 266T348 276T272 305Q236 321 212 329T165 337Q106 337 69 294L52 323Q70 346 99 361T166 376Q192 376 219 367T286 341Q327 323 356 314T414 305Q473 305 509 349L526 320Q508 296 480
281T415 266Q380 266 348 276Z" />
<glyph unicode="&#xa0;" glyph-name="uni00A0" horiz-adv-x="257" />
<glyph unicode="&#xa1;" glyph-name="exclamdown" horiz-adv-x="266" d="M110 384T97 397T84 432Q84 454 97 467T132 480Q154 480 167 467T181 432Q181 410 168 397T132 384Q110 384 97 397ZM107 -239T99 -225T90 -180L91 -164L114 347H150L174 -164L175 -180Q175
-211 167 -225T132 -239Q107 -239 99 -225Z" />
<glyph unicode="&#xa2;" glyph-name="cent" horiz-adv-x="491" d="M449 92T407 45T285 -9V-89H247V-10Q144 -6 87 57T29 235Q29 345 86 410T247 480V561H285V479Q326 477 362 462T422 417L433 480H454V321H433Q423 383 383 415T282 447Q197 447 150 389T103 234Q103
137 148 79T266 21Q332 21 375 56T430 166H456Q449 92 407 45Z" />
<glyph unicode="&#xa3;" glyph-name="sterling" horiz-adv-x="564" d="M32 33H105Q136 65 136 131V341H37V373H136V495Q136 599 180 653T330 708Q383 708 421 693T483 656Q490 649 495 649Q503 649 503 664V705H534V524H510Q502 595 461 634T350 673Q280 673 245
636T209 517V373H424V341H209V137Q209 74 168 33H397Q430 33 447 41T473 71T490 136H511L499 0H32V33Z" />
<glyph unicode="&#xa4;" glyph-name="currency" horiz-adv-x="575" d="M74 111L140 175Q97 230 97 296Q97 363 139 416L73 480L103 510L169 445Q219 486 287 486Q356 486 406 444L472 510L501 480L435 415Q455 390 466 360T478 296Q478 228 434 176L500 112L471
82L405 147Q356 106 287 106Q220 106 169 146L104 82L74 111ZM328 144T362 164T417 218T437 295Q437 338 417 373T362 428T287 449Q246 449 213 429T159 374T139 295Q139 253 158 219T212 164T287 144Q328 144 362 164Z" />
<glyph unicode="&#xa5;" glyph-name="yen" horiz-adv-x="674" d="M664 700V677H636Q603 677 581 642L435 402H582V370H415L368 293V191H582V159H368V57Q368 39 382 31T427 22H455V0H204V22H232Q292 22 292 57V159H96V191H292V294L248 370H96V402H229L90 643Q70
677 40 677H10V700H236V677H203Q185 677 175 671T164 654Q164 649 167 643L302 402H383L527 641Q531 646 531 653Q531 664 521 670T494 677H457V700H664ZM364 370H320L341 332L364 370Z" />
<glyph unicode="&#xa6;" glyph-name="brokenbar" horiz-adv-x="433" d="M185 755H248V341H185V755ZM185 236H248V-191H185V236Z" />
<glyph unicode="&#xa7;" glyph-name="section" horiz-adv-x="563" d="M523 36T523 -47Q523 -106 493 -149T410 -216T291 -239Q232 -239 185 -220T109 -184T78 -166Q75 -166 73 -171T70 -186V-228H39V-42H63Q68 -88 98 -124T174 -182T269 -203Q349 -203 397 -165T446
-58Q446 -15 421 16T359 68T259 117Q192 147 151 171T82 231T54 320Q54 368 78 403T145 457Q101 485 78 519T54 602Q54 681 114 722T275 763Q325 763 363 749T426 721T453 707Q462 707 462 721V760H493V575H469Q462 645 413 686T290 728Q213 728 171 696T129 610Q129
571 152 543T211 496T307 450Q377 420 419 396T492 332T522 235Q522 190 504 154T452 92Q523 36 523 -47ZM130 289T153 261T213 213T308 168Q374 140 404 123Q446 162 446 224Q446 267 421 297T360 349T261 398L197 428Q130 398 130 328Q130 289 153 261Z" />
<glyph unicode="&#xa8;" glyph-name="dieresis" horiz-adv-x="485" d="M120 581T109 592T97 622Q97 641 108 652T137 664Q156 664 167 653T179 622Q179 603 168 592T137 581Q120 581 109 592ZM329 581T318 592T306 622Q306 641 317 652T347 664Q365 664 376 653T388
622Q388 603 377 592T347 581Q329 581 318 592Z" />
<glyph unicode="&#xa9;" glyph-name="copyright" horiz-adv-x="817" d="M305 -10T222 37T93 167T46 356Q46 461 92 545T222 676T409 723Q512 723 594 676T724 545T771 356Q771 251 724 168T595 37T409 -10Q305 -10 222 37ZM501 27T574 69T688 187T730 356Q730
449 689 524T574 642T409 685Q317 685 244 643T129 525T87 356Q87 263 128 188T243 70T409 27Q501 27 574 69ZM319 129T266 188T213 354Q213 458 265 518T413 579Q456 579 490 567T539 538L545 577H568V457H546Q534 547 428 547Q350 547 312 494T274 354Q274 269
309 215T425 161Q473 161 509 185T556 258H580Q572 200 528 165T415 129Q319 129 266 188Z" />
<glyph unicode="&#xaa;" glyph-name="ordfeminine" horiz-adv-x="385" d="M23 358T23 439Q23 486 75 522T254 564V609Q254 647 231 662T166 678Q141 678 116 669T91 647Q91 642 92 637T94 626Q94 616 87 610T66 603Q54 603 47 612T39 635Q39 669 79 689T176 709Q319
709 319 604V417Q319 388 338 388Q352 388 370 395V382Q345 358 306 358Q286 358 272 368T258 398V417Q239 388 201 373T127 358Q23 358 23 439ZM175 392T206 407T254 451V536Q156 533 121 506T86 445Q86 420 101 406T143 392Q175 392 206 407Z" />
<glyph unicode="&#xab;" glyph-name="guillemotleft" horiz-adv-x="464" d="M37 255V270L218 475L238 448L111 262L238 77L218 50L37 255ZM220 255V270L401 475L421 448L294 262L421 77L401 50L220 255Z" />
<glyph unicode="&#xac;" glyph-name="logicalnot" horiz-adv-x="474" d="M380 337H42V370H421V182H380V337Z" />
<glyph unicode="&#xad;" glyph-name="uni00AD" horiz-adv-x="360" d="M40 299H320V254H40V299Z" />
<glyph unicode="&#xae;" glyph-name="registered" horiz-adv-x="817" d="M512 723T594 676T724 545T771 356Q771 251 724 168T595 37T409 -10Q305 -10 222 37T93 167T46 356Q46 461 92 545T222 676T409 723Q512 723 594 676ZM501 27T574 69T688 187T730 356Q730
449 689 524T574 642T409 685Q317 685 244 643T129 525T87 356Q87 263 128 188T243 70T409 27Q501 27 574 69ZM561 156T602 154V135H514L411 324H344V185Q344 168 351 161T382 154H402V135H231V154H251Q274 154 282 161T290 185V524Q290 552 259 552H238V572H436Q506
572 540 540T574 450Q574 397 547 365T466 325L550 178Q561 156 602 154ZM344 353H425Q475 353 497 377T519 450Q519 497 497 520T425 543H344V353Z" />
<glyph unicode="&#xaf;" glyph-name="overscore" horiz-adv-x="485" d="M58 771H427V733H58V771Z" />
<glyph unicode="&#xb0;" glyph-name="degree" horiz-adv-x="306" d="M98 468T63 504T27 593Q27 646 62 681T153 717Q209 717 244 682T279 593Q279 540 244 504T153 468Q98 468 63 504ZM191 501T216 528T241 593Q241 631 216 658T153 685Q115 685 90 658T64 593Q64
555 89 528T153 501Q191 501 216 528Z" />
<glyph unicode="&#xb1;" glyph-name="plusminus" horiz-adv-x="574" d="M252 335H60V377H252V573H325V377H516V335H325V140H252V335ZM50 47H524V5H50V47Z" />
<glyph unicode="&#xb2;" glyph-name="uni00B2" horiz-adv-x="365" d="M37 312Q50 355 77 385T152 454Q202 494 226 524T251 598Q251 632 230 654T170 677Q126 677 111 660T91 612Q89 601 83 594T62 586Q50 586 43 593T36 615Q36 656 76 682T177 709Q239 709 278
681T318 594Q318 548 290 516T208 442Q161 405 137 381T103 323H275Q300 323 308 375H325L317 278H37V312Z" />
<glyph unicode="&#xb3;" glyph-name="uni00B3" horiz-adv-x="365" d="M109 272T72 296T35 362Q35 394 62 394Q77 394 83 386T90 367Q90 305 166 305Q211 305 234 329T258 396Q258 432 234 458T170 484H120V516H168Q209 516 229 542T250 602Q250 636 231 656T174
677Q130 677 112 660T94 612Q94 601 87 593T66 585Q54 585 47 593T39 617Q39 658 77 683T176 709Q234 709 274 682T314 602Q314 568 296 539T246 500Q280 491 301 465T323 398Q323 334 281 303T172 272Q109 272 72 296Z" />
<glyph unicode="&#xb4;" glyph-name="acute" horiz-adv-x="485" d="M167 602L279 702Q302 722 319 722Q331 722 338 715T345 697Q345 677 317 661L181 582L167 602Z" />
<glyph unicode="&#xb6;" glyph-name="paragraph" horiz-adv-x="481" d="M157 21H173Q196 21 210 28T224 51V311Q134 314 85 367T36 514Q36 700 232 700H445V679H429Q406 679 392 672T378 648V51Q378 35 392 28T429 21H445V0H330V668H272V0H157V21ZM224 668Q77
666 77 515Q77 432 118 389T224 344V668Z" />
<glyph unicode="&#xb7;" glyph-name="middot" horiz-adv-x="275" d="M105 281T88 300T71 351Q71 383 88 402T136 421Q167 421 185 402T203 351Q203 320 185 301T136 281Q105 281 88 300Z" />
<glyph unicode="&#xb8;" glyph-name="cedilla" horiz-adv-x="485" d="M193 -205T171 -199L178 -173Q189 -175 218 -175Q295 -175 295 -124Q295 -101 273 -95T218 -88L202 -68L244 9H282L248 -59Q290 -59 318 -73T347 -123Q347 -165 312 -185T217 -205Q193 -205 171 -199Z" />
<glyph unicode="&#xb9;" glyph-name="uni00B9" horiz-adv-x="365" d="M61 300H96Q153 300 153 334V656L74 623V656L223 712V334Q223 300 281 300H315V278H61V300Z" />
<glyph unicode="&#xba;" glyph-name="ordmasculine" horiz-adv-x="347" d="M99 358T57 405T14 533Q14 614 56 661T173 709Q248 709 290 662T333 533Q333 452 291 405T173 358Q99 358 57 405ZM219 396T245 433T272 533Q272 596 246 633T174 671Q128 671 101 634T74
533Q74 470 101 433T174 396Q219 396 245 433Z" />
<glyph unicode="&#xbb;" glyph-name="guillemotright" horiz-adv-x="464" d="M42 77L170 262L42 448L62 475L244 270V255L62 50L42 77ZM225 77L353 262L225 448L245 475L427 270V255L245 50L225 77Z" />
<glyph unicode="&#xbc;" glyph-name="onequarter" horiz-adv-x="855" d="M56 300H90Q148 300 148 334V656L68 623V656L217 712V334Q217 300 275 300H309V278H56V300ZM638 709H679L250 0H209L638 709ZM470 132L659 426H733V138H799L796 105H733V56Q733 22 791 22H820V0H576V22H605Q663
22 663 56V105H470V132ZM663 138V367L514 138H663Z" />
<glyph unicode="&#xbd;" glyph-name="onehalf" horiz-adv-x="855" d="M56 300H90Q148 300 148 334V656L68 623V656L217 712V334Q217 300 275 300H309V278H56V300ZM633 709H674L245 0H204L633 709ZM533 34Q546 76 573 106T648 175Q698 215 723 245T748 320Q748
354 727 376T667 398Q637 398 621 389T599 368T588 336Q584 321 579 313T559 305Q547 305 540 313T532 336Q532 378 572 404T673 430Q735 430 774 402T814 316Q814 283 799 257T763 212T705 163Q660 129 635 103T600 44H771Q785 44 792 58T805 96H821L814 0H533V34Z"
/>
<glyph unicode="&#xbe;" glyph-name="threequarters" horiz-adv-x="855" d="M43 377T50 385T70 394Q85 394 91 386T98 367Q98 305 175 305Q219 305 242 329T266 396Q266 432 242 458T178 484H128V516H176Q218 516 238 542T259 602Q259 635 239 656T182 677Q102
677 102 612Q102 601 95 593T75 585Q62 585 55 593T47 617Q47 658 86 683T186 709Q245 709 283 683T322 602Q322 568 304 539T254 500Q288 491 310 465T332 398Q332 334 290 303T183 272Q120 272 82 296T43 362Q43 377 50 385ZM633 709H674L245 0H204L633 709ZM466
132L656 426H729V138H796L792 105H729V56Q729 22 787 22H816V0H573V22H602Q660 22 660 56V105H466V132ZM660 138V367L511 138H660Z" />
<glyph unicode="&#xbf;" glyph-name="questiondown" horiz-adv-x="453" d="M240 384T227 397T213 432Q213 454 226 467T262 480Q284 480 297 467T310 432Q310 410 297 397T262 384Q240 384 227 397ZM143 -240T88 -202T33 -75Q33 -25 58 11T133 95Q168 129 189
153T224 209T239 281Q239 288 236 309H282Q286 292 286 276Q286 231 272 194T236 130T181 64Q141 20 122 -10T103 -76Q103 -135 135 -170T236 -206Q288 -206 321 -180T355 -112Q355 -98 363 -88T389 -78Q425 -78 425 -116Q425 -148 401 -176T332 -222T231 -240Q143
-240 88 -202Z" />
<glyph unicode="&#xc0;" glyph-name="Agrave" horiz-adv-x="714" d="M284 869T277 878T269 899Q269 910 277 917T295 924Q312 924 334 904L446 804L432 784L295 863Q284 869 277 878ZM709 22V0H478V22H493Q514 22 532 29T546 47L485 217H200L144 66Q142 58 142
56Q142 41 159 32T195 22H212V0H5V22H20Q40 22 61 32T88 57L325 686L381 712L628 57Q634 41 653 32T692 22H709ZM473 252L345 608L213 252H473Z" />
<glyph unicode="&#xc1;" glyph-name="Aacute" horiz-adv-x="714" d="M283 784L269 804L382 904Q405 924 422 924Q434 924 440 917T447 899Q447 879 419 863L283 784ZM709 22V0H478V22H493Q514 22 532 29T546 47L485 217H200L144 66Q142 58 142 56Q142 41 159 32T195
22H212V0H5V22H20Q40 22 61 32T88 57L325 686L381 712L628 57Q634 41 653 32T692 22H709ZM473 252L345 608L213 252H473Z" />
<glyph unicode="&#xc2;" glyph-name="Acircumflex" horiz-adv-x="714" d="M236 784L219 803L335 921H378L495 803L477 784L376 866Q363 875 357 875Q350 875 337 866L236 784ZM709 22V0H478V22H493Q514 22 532 29T546 47L485 217H200L144 66Q142 58 142 56Q142
41 159 32T195 22H212V0H5V22H20Q40 22 61 32T88 57L325 686L381 712L628 57Q634 41 653 32T692 22H709ZM473 252L345 608L213 252H473Z" />
<glyph unicode="&#xc3;" glyph-name="Atilde" horiz-adv-x="714" d="M260 842T245 827T220 782L201 792Q209 833 232 857T291 882Q308 882 324 875T366 854Q389 841 405 834T436 827Q459 827 473 842T499 890L518 880Q509 837 486 812T426 786Q410 786 394 793T354
814Q330 828 314 835T283 842Q260 842 245 827ZM709 22V0H478V22H493Q514 22 532 29T546 47L485 217H200L144 66Q142 58 142 56Q142 41 159 32T195 22H212V0H5V22H20Q40 22 61 32T88 57L325 686L381 712L628 57Q634 41 653 32T692 22H709ZM473 252L345 608L213
252H473Z" />
<glyph unicode="&#xc4;" glyph-name="Adieresis" horiz-adv-x="714" d="M228 782T217 793T206 823Q206 842 217 853T247 865Q266 865 277 854T288 823Q288 805 277 794T247 782Q228 782 217 793ZM437 782T426 793T415 823Q415 842 426 853T456 865Q475 865 486
854T497 823Q497 805 486 794T456 782Q437 782 426 793ZM709 22V0H478V22H493Q514 22 532 29T546 47L485 217H200L144 66Q142 58 142 56Q142 41 159 32T195 22H212V0H5V22H20Q40 22 61 32T88 57L325 686L381 712L628 57Q634 41 653 32T692 22H709ZM473 252L345
608L213 252H473Z" />
<glyph unicode="&#xc5;" glyph-name="Aring" horiz-adv-x="714" d="M318 757T293 780T268 841Q268 878 293 901T357 925Q395 925 420 902T445 841Q445 804 420 781T357 757Q318 757 293 780ZM334 895T319 881T304 841Q304 817 319 802T357 787Q380 787 395 802T410
841Q410 865 395 880T357 895Q334 895 319 881ZM709 22V0H478V22H493Q514 22 532 29T546 47L485 217H200L144 66Q142 58 142 56Q142 41 159 32T195 22H212V0H5V22H20Q40 22 61 32T88 57L325 686L381 712L628 57Q634 41 653 32T692 22H709ZM473 252L345 608L213
252H473Z" />
<glyph unicode="&#xc6;" glyph-name="AE" horiz-adv-x="961" d="M10 22H25Q57 24 74 40T111 88L454 652Q457 658 457 664Q457 677 443 677H413V700H908V533H886Q880 665 805 665H574V387H744Q773 387 782 411T796 486H816V253H796Q792 303 783 327T744 352H574V35H817Q858
35 877 78T902 175H924L908 0H423V22H444Q468 22 483 30T498 57V217H241L146 58Q144 55 144 50Q144 38 161 30T200 22H216V0H10V22ZM498 252V639L261 252H498Z" />
<glyph unicode="&#xc7;" glyph-name="Ccedilla" horiz-adv-x="658" d="M610 89T544 42T380 -10L354 -61Q396 -61 424 -75T453 -125Q453 -167 418 -187T323 -207Q300 -207 277 -201L284 -175Q295 -177 324 -177Q401 -177 401 -126Q401 -103 379 -97T324 -90L308
-70L341 -9Q198 -2 122 91T45 350Q45 463 84 544T197 667T374 710Q437 710 484 692T564 650Q572 645 573 645Q582 645 582 662V705H613V519H589Q582 591 526 632T387 674Q258 674 190 587T121 350Q121 200 185 113T378 25Q448 25 510 61T594 170H627Q610 89 544
42Z" />
<glyph unicode="&#xc8;" glyph-name="Egrave" horiz-adv-x="591" d="M244 869T237 878T229 899Q229 910 237 917T255 924Q271 924 294 904L406 804L392 784L255 863Q244 869 237 878ZM553 175L537 0H17V22H45Q105 22 105 57V642Q105 677 45 677H17V700H538V533H516Q512
585 496 625T435 665H181V387H370Q400 387 409 411T422 486H443V253H422Q418 304 409 328T370 352H181V35H446Q487 35 506 78T531 175H553Z" />
<glyph unicode="&#xc9;" glyph-name="Eacute" horiz-adv-x="591" d="M247 784L233 804L346 904Q369 924 386 924Q398 924 404 917T411 899Q411 879 383 863L247 784ZM553 175L537 0H17V22H45Q105 22 105 57V642Q105 677 45 677H17V700H538V533H516Q512 585 496
625T435 665H181V387H370Q400 387 409 411T422 486H443V253H422Q418 304 409 328T370 352H181V35H446Q487 35 506 78T531 175H553Z" />
<glyph unicode="&#xca;" glyph-name="Ecircumflex" horiz-adv-x="591" d="M196 784L179 803L295 921H338L455 803L437 784L336 866Q323 875 317 875Q310 875 297 866L196 784ZM553 175L537 0H17V22H45Q105 22 105 57V642Q105 677 45 677H17V700H538V533H516Q512
585 496 625T435 665H181V387H370Q400 387 409 411T422 486H443V253H422Q418 304 409 328T370 352H181V35H446Q487 35 506 78T531 175H553Z" />
<glyph unicode="&#xcb;" glyph-name="Edieresis" horiz-adv-x="591" d="M197 782T186 793T175 823Q175 842 186 853T216 865Q235 865 246 854T257 823Q257 805 246 794T216 782Q197 782 186 793ZM406 782T395 793T384 823Q384 842 395 853T425 865Q444 865 455
854T466 823Q466 805 455 794T425 782Q406 782 395 793ZM553 175L537 0H17V22H45Q105 22 105 57V642Q105 677 45 677H17V700H538V533H516Q512 585 496 625T435 665H181V387H370Q400 387 409 411T422 486H443V253H422Q418 304 409 328T370 352H181V35H446Q487 35
506 78T531 175H553Z" />
<glyph unicode="&#xcc;" glyph-name="Igrave" horiz-adv-x="307" d="M91 863Q80 869 73 878T65 899Q65 910 73 917T91 924Q107 924 130 904L242 804L228 784L91 863ZM28 22H57Q116 22 116 57V642Q116 677 57 677H28V700H279V677H251Q221 677 207 669T192 642V57Q192
39 206 31T251 22H279V0H28V22Z" />
<glyph unicode="&#xcd;" glyph-name="Iacute" horiz-adv-x="307" d="M66 804L179 904Q202 924 219 924Q231 924 237 917T244 899Q244 879 216 863L80 784L66 804ZM28 22H57Q116 22 116 57V642Q116 677 57 677H28V700H279V677H251Q221 677 207 669T192 642V57Q192
39 206 31T251 22H279V0H28V22Z" />
<glyph unicode="&#xce;" glyph-name="Icircumflex" horiz-adv-x="307" d="M15 803L131 921H174L291 803L273 784L172 866Q159 875 153 875Q146 875 133 866L32 784L15 803ZM28 22H57Q116 22 116 57V642Q116 677 57 677H28V700H279V677H251Q221 677 207 669T192
642V57Q192 39 206 31T251 22H279V0H28V22Z" />
<glyph unicode="&#xcf;" glyph-name="Idieresis" horiz-adv-x="307" d="M29 782T18 793T7 823Q7 842 18 853T48 865Q67 865 78 854T89 823Q89 805 78 794T48 782Q29 782 18 793ZM238 782T227 793T216 823Q216 842 227 853T257 865Q276 865 287 854T298 823Q298
805 287 794T257 782Q238 782 227 793ZM28 22H57Q116 22 116 57V642Q116 677 57 677H28V700H279V677H251Q221 677 207 669T192 642V57Q192 39 206 31T251 22H279V0H28V22Z" />
<glyph unicode="&#xd0;" glyph-name="Eth" horiz-adv-x="669" d="M475 700T551 610T628 350Q628 179 551 90T323 0H19V22H48Q107 22 107 57V334H30V372H107V642Q107 677 48 677H19V700H324Q475 700 551 610ZM436 33T494 116T552 350Q552 500 495 583T323 666H183V372H399V334H183V33H321Q436
33 494 116Z" />
<glyph unicode="&#xd1;" glyph-name="Ntilde" horiz-adv-x="746" d="M223 792Q231 833 254 857T313 882Q330 882 346 875T388 854Q411 841 427 834T458 827Q481 827 495 842T521 890L540 880Q531 837 508 812T448 786Q432 786 416 793T376 814Q352 828 336 835T305
842Q282 842 267 827T242 782L223 792ZM25 22H53Q83 22 97 30T112 57V642Q112 660 98 668T53 677H25V700H201L589 101V642Q589 660 575 668T530 677H502V700H721V677H692Q633 677 633 642V0H584L156 655V57Q156 22 215 22H244V0H25V22Z" />
<glyph unicode="&#xd2;" glyph-name="Ograve" horiz-adv-x="739" d="M290 863Q279 869 272 878T264 899Q264 910 272 917T290 924Q306 924 329 904L441 804L427 784L290 863ZM210 -10T124 84T38 350Q38 521 124 615T370 710Q529 710 615 616T701 350Q701 178 615
84T370 -10Q210 -10 124 84ZM496 26T560 113T625 350Q625 500 561 587T369 674Q244 674 179 587T114 350Q114 200 179 113T369 26Q496 26 560 113Z" />
<glyph unicode="&#xd3;" glyph-name="Oacute" horiz-adv-x="739" d="M281 804L394 904Q417 924 434 924Q446 924 452 917T459 899Q459 879 431 863L295 784L281 804ZM210 -10T124 84T38 350Q38 521 124 615T370 710Q529 710 615 616T701 350Q701 178 615 84T370
-10Q210 -10 124 84ZM496 26T560 113T625 350Q625 500 561 587T369 674Q244 674 179 587T114 350Q114 200 179 113T369 26Q496 26 560 113Z" />
<glyph unicode="&#xd4;" glyph-name="Ocircumflex" horiz-adv-x="739" d="M232 803L348 921H391L508 803L490 784L389 866Q376 875 370 875Q363 875 350 866L249 784L232 803ZM210 -10T124 84T38 350Q38 521 124 615T370 710Q529 710 615 616T701 350Q701 178
615 84T370 -10Q210 -10 124 84ZM496 26T560 113T625 350Q625 500 561 587T369 674Q244 674 179 587T114 350Q114 200 179 113T369 26Q496 26 560 113Z" />
<glyph unicode="&#xd5;" glyph-name="Otilde" horiz-adv-x="739" d="M209 792Q217 833 240 857T299 882Q316 882 332 875T374 854Q397 841 413 834T444 827Q467 827 481 842T507 890L526 880Q517 837 494 812T434 786Q418 786 402 793T362 814Q338 828 322 835T291
842Q268 842 253 827T228 782L209 792ZM210 -10T124 84T38 350Q38 521 124 615T370 710Q529 710 615 616T701 350Q701 178 615 84T370 -10Q210 -10 124 84ZM496 26T560 113T625 350Q625 500 561 587T369 674Q244 674 179 587T114 350Q114 200 179 113T369 26Q496
26 560 113Z" />
<glyph unicode="&#xd6;" glyph-name="Odieresis" horiz-adv-x="739" d="M246 782T235 793T224 823Q224 842 235 853T265 865Q284 865 295 854T306 823Q306 805 295 794T265 782Q246 782 235 793ZM455 782T444 793T433 823Q433 842 444 853T474 865Q493 865 504
854T515 823Q515 805 504 794T474 782Q455 782 444 793ZM210 -10T124 84T38 350Q38 521 124 615T370 710Q529 710 615 616T701 350Q701 178 615 84T370 -10Q210 -10 124 84ZM496 26T560 113T625 350Q625 500 561 587T369 674Q244 674 179 587T114 350Q114 200 179
113T369 26Q496 26 560 113Z" />
<glyph unicode="&#xd7;" glyph-name="multiply" horiz-adv-x="574" d="M71 163L246 340L71 516L109 556L287 377L465 556L503 516L327 340L503 163L465 124L287 303L109 124L71 163Z" />
<glyph unicode="&#xd8;" glyph-name="Oslash" horiz-adv-x="739" d="M651 582T676 512T701 350Q701 178 615 84T370 -10Q239 -10 155 55L98 -18L64 4L125 83Q38 176 38 350Q38 521 124 615T370 710Q491 710 570 655L624 724L659 702L602 629Q651 582 676 512ZM114
217T165 134L537 613Q473 674 369 674Q244 674 179 587T114 350Q114 217 165 134ZM496 26T560 113T625 350Q625 496 565 581L190 100Q256 26 369 26Q496 26 560 113Z" />
<glyph unicode="&#xd9;" glyph-name="Ugrave" horiz-adv-x="724" d="M308 863Q297 869 290 878T282 899Q282 910 290 917T308 924Q324 924 347 904L459 804L445 784L308 863ZM239 -10T173 38T107 200V642Q107 660 92 668T53 677H32V700H258V677H237Q213 677 198
669T183 642V194Q183 99 235 62T382 25Q464 25 518 63T573 194V642Q573 660 558 668T519 677H499V700H692V677H671Q647 677 632 669T617 642V200Q617 89 553 40T365 -10Q239 -10 173 38Z" />
<glyph unicode="&#xda;" glyph-name="Uacute" horiz-adv-x="724" d="M283 804L396 904Q419 924 436 924Q448 924 454 917T461 899Q461 879 433 863L297 784L283 804ZM239 -10T173 38T107 200V642Q107 660 92 668T53 677H32V700H258V677H237Q213 677 198 669T183
642V194Q183 99 235 62T382 25Q464 25 518 63T573 194V642Q573 660 558 668T519 677H499V700H692V677H671Q647 677 632 669T617 642V200Q617 89 553 40T365 -10Q239 -10 173 38Z" />
<glyph unicode="&#xdb;" glyph-name="Ucircumflex" horiz-adv-x="724" d="M233 803L349 921H392L509 803L491 784L390 866Q377 875 371 875Q364 875 351 866L250 784L233 803ZM239 -10T173 38T107 200V642Q107 660 92 668T53 677H32V700H258V677H237Q213 677 198
669T183 642V194Q183 99 235 62T382 25Q464 25 518 63T573 194V642Q573 660 558 668T519 677H499V700H692V677H671Q647 677 632 669T617 642V200Q617 89 553 40T365 -10Q239 -10 173 38Z" />
<glyph unicode="&#xdc;" glyph-name="Udieresis" horiz-adv-x="724" d="M247 782T236 793T225 823Q225 842 236 853T266 865Q285 865 296 854T307 823Q307 805 296 794T266 782Q247 782 236 793ZM456 782T445 793T434 823Q434 842 445 853T475 865Q494 865 505
854T516 823Q516 805 505 794T475 782Q456 782 445 793ZM239 -10T173 38T107 200V642Q107 660 92 668T53 677H32V700H258V677H237Q213 677 198 669T183 642V194Q183 99 235 62T382 25Q464 25 518 63T573 194V642Q573 660 558 668T519 677H499V700H692V677H671Q647
677 632 669T617 642V200Q617 89 553 40T365 -10Q239 -10 173 38Z" />
<glyph unicode="&#xdd;" glyph-name="Yacute" horiz-adv-x="674" d="M262 825L375 925Q398 945 415 945Q427 945 433 938T440 920Q440 900 412 884L276 805L262 825ZM204 22H232Q292 22 292 57V294L90 643Q70 677 40 677H10V700H236V677H203Q185 677 175 671T164
654Q164 649 167 643L341 332L527 641Q531 646 531 653Q531 664 521 670T494 677H457V700H664V677H636Q603 677 581 642L368 293V57Q368 39 382 31T427 22H455V0H204V22Z" />
<glyph unicode="&#xde;" glyph-name="Thorn" horiz-adv-x="582" d="M25 22H53Q83 22 97 30T112 57V642Q112 660 98 668T53 677H25V700H188V587H353Q563 587 563 375Q563 276 513 220T353 163H188V57Q188 22 247 22H276V0H25V22ZM341 198Q417 198 453 245T489 375Q489
459 453 505T341 552H188V198H341Z" />
<glyph unicode="&#xdf;" glyph-name="germandbls" horiz-adv-x="675" d="M384 343T400 323T442 289T509 260Q556 241 584 226T632 185T652 120Q652 58 609 24T490 -10Q441 -10 400 4T335 53L323 -9H302V139H324Q335 84 369 54T461 23Q520 23 550 46T580 110Q580
133 566 149T530 176T469 204Q420 223 388 240T334 287T312 363Q312 422 358 449T469 482Q469 571 438 629T312 688Q260 688 226 659T192 571V51Q192 36 207 29T245 21H261V0H50V21H66Q89 21 104 28T119 51V437H48V470H119V559Q119 637 173 679T309 722Q450 722
493 647T536 488V453Q384 453 384 372Q384 343 400 323Z" />
<glyph unicode="&#xe0;" glyph-name="agrave" horiz-adv-x="484" d="M176 626Q165 632 158 641T150 662Q150 673 158 680T176 687Q192 687 215 667L327 567L313 547L176 626ZM98 -10T66 19T33 96Q33 168 108 215T342 285V340Q342 393 309 419T221 446Q183 446
149 431T115 398Q115 392 116 385T118 370Q118 357 111 347T85 336Q70 336 61 347T51 378Q51 427 106 453T236 480Q322 480 369 442T416 337V52Q416 36 421 29T437 21Q450 21 472 29V15Q458 3 439 -3T400 -10Q377 -10 360 0T343 34V70Q301 24 252 7T157 -10Q98
-10 66 19ZM233 24T277 50T342 110V255Q230 235 168 194T105 101Q105 63 128 44T192 24Q233 24 277 50Z" />
<glyph unicode="&#xe1;" glyph-name="aacute" horiz-adv-x="484" d="M160 567L273 667Q296 687 313 687Q325 687 331 680T338 662Q338 642 310 626L174 547L160 567ZM98 -10T66 19T33 96Q33 168 108 215T342 285V340Q342 393 309 419T221 446Q183 446 149 431T115
398Q115 392 116 385T118 370Q118 357 111 347T85 336Q70 336 61 347T51 378Q51 427 106 453T236 480Q322 480 369 442T416 337V52Q416 36 421 29T437 21Q450 21 472 29V15Q458 3 439 -3T400 -10Q377 -10 360 0T343 34V70Q301 24 252 7T157 -10Q98 -10 66 19ZM233
24T277 50T342 110V255Q230 235 168 194T105 101Q105 63 128 44T192 24Q233 24 277 50Z" />
<glyph unicode="&#xe2;" glyph-name="acircumflex" horiz-adv-x="484" d="M102 566L218 684H261L378 566L360 547L259 629Q246 638 240 638Q233 638 220 629L119 547L102 566ZM98 -10T66 19T33 96Q33 168 108 215T342 285V340Q342 393 309 419T221 446Q183 446
149 431T115 398Q115 392 116 385T118 370Q118 357 111 347T85 336Q70 336 61 347T51 378Q51 427 106 453T236 480Q322 480 369 442T416 337V52Q416 36 421 29T437 21Q450 21 472 29V15Q458 3 439 -3T400 -10Q377 -10 360 0T343 34V70Q301 24 252 7T157 -10Q98
-10 66 19ZM233 24T277 50T342 110V255Q230 235 168 194T105 101Q105 63 128 44T192 24Q233 24 277 50Z" />
<glyph unicode="&#xe3;" glyph-name="atilde" horiz-adv-x="484" d="M84 560Q92 601 115 625T174 650Q191 650 207 643T249 622Q272 609 288 602T319 595Q342 595 356 610T382 658L401 648Q392 605 369 580T309 554Q293 554 277 561T237 582Q213 596 197 603T166
610Q143 610 128 595T103 550L84 560ZM98 -10T66 19T33 96Q33 168 108 215T342 285V340Q342 393 309 419T221 446Q183 446 149 431T115 398Q115 392 116 385T118 370Q118 357 111 347T85 336Q70 336 61 347T51 378Q51 427 106 453T236 480Q322 480 369 442T416
337V52Q416 36 421 29T437 21Q450 21 472 29V15Q458 3 439 -3T400 -10Q377 -10 360 0T343 34V70Q301 24 252 7T157 -10Q98 -10 66 19ZM233 24T277 50T342 110V255Q230 235 168 194T105 101Q105 63 128 44T192 24Q233 24 277 50Z" />
<glyph unicode="&#xe4;" glyph-name="adieresis" horiz-adv-x="484" d="M114 545T103 556T92 586Q92 605 103 616T133 628Q152 628 163 617T174 586Q174 568 163 557T133 545Q114 545 103 556ZM323 545T312 556T301 586Q301 605 312 616T342 628Q361 628 372 617T383
586Q383 568 372 557T342 545Q323 545 312 556ZM98 -10T66 19T33 96Q33 168 108 215T342 285V340Q342 393 309 419T221 446Q183 446 149 431T115 398Q115 392 116 385T118 370Q118 357 111 347T85 336Q70 336 61 347T51 378Q51 427 106 453T236 480Q322 480 369
442T416 337V52Q416 36 421 29T437 21Q450 21 472 29V15Q458 3 439 -3T400 -10Q377 -10 360 0T343 34V70Q301 24 252 7T157 -10Q98 -10 66 19ZM233 24T277 50T342 110V255Q230 235 168 194T105 101Q105 63 128 44T192 24Q233 24 277 50Z" />
<glyph unicode="&#xe5;" glyph-name="aring" horiz-adv-x="484" d="M203 544T178 567T153 628Q153 665 178 688T242 712Q280 712 305 689T330 628Q330 591 305 568T242 544Q203 544 178 567ZM265 574T280 589T295 628Q295 652 280 667T242 682Q219 682 204 668T189
628Q189 604 204 589T242 574Q265 574 280 589ZM98 -10T66 19T33 96Q33 168 108 215T342 285V340Q342 393 309 419T221 446Q183 446 149 431T115 398Q115 392 116 385T118 370Q118 357 111 347T85 336Q70 336 61 347T51 378Q51 427 106 453T236 480Q322 480 369
442T416 337V52Q416 36 421 29T437 21Q450 21 472 29V15Q458 3 439 -3T400 -10Q377 -10 360 0T343 34V70Q301 24 252 7T157 -10Q98 -10 66 19ZM233 24T277 50T342 110V255Q230 235 168 194T105 101Q105 63 128 44T192 24Q233 24 277 50Z" />
<glyph unicode="&#xe6;" glyph-name="ae" horiz-adv-x="790" d="M99 -10T66 18T33 96Q33 166 104 212T325 282Q329 318 342 349Q339 397 307 421T221 446Q183 446 149 431T115 398Q115 392 116 385T118 370Q118 358 110 349T83 339Q68 339 60 349T51 378Q51 427
106 453T236 480Q290 480 329 462T387 411Q416 445 458 462T554 480Q654 480 706 425T759 282V261H396Q395 252 395 234Q395 170 416 122T475 47T562 21Q628 21 672 56T728 166H755Q747 86 696 38T554 -10Q491 -10 443 13T365 81Q324 32 270 11T164 -10Q99 -10
66 18ZM693 295Q692 355 659 401T557 447Q492 447 452 406T400 295H693ZM234 24T279 49T348 106Q322 158 322 250Q218 228 162 190T105 101Q105 63 128 44T192 24Q234 24 279 49Z" />
<glyph unicode="&#xe7;" glyph-name="ccedilla" horiz-adv-x="490" d="M448 87T401 39T264 -10L237 -63Q279 -63 307 -77T336 -127Q336 -169 301 -189T206 -209Q182 -209 160 -203L167 -177Q178 -179 207 -179Q284 -179 284 -128Q284 -105 262 -99T207 -92L191
-72L226 -8Q132 1 81 64T29 235Q29 349 91 414T263 480Q309 480 352 466T422 417L433 480H454V321H433Q423 383 383 415T282 447Q197 447 150 389T103 234Q103 137 148 79T266 21Q332 21 375 56T430 166H456Q448 87 401 39Z" />
<glyph unicode="&#xe8;" glyph-name="egrave" horiz-adv-x="497" d="M182 632T175 641T167 662Q167 673 175 680T193 687Q209 687 232 667L344 567L330 547L193 626Q182 632 175 641ZM104 261Q103 252 103 234Q103 170 124 122T183 47T269 21Q335 21 379 56T436
166H462Q454 86 403 38T261 -10Q153 -10 91 54T29 235Q29 350 91 415T261 480Q361 480 413 425T466 282V261H104ZM200 447T161 406T108 295H401Q399 355 366 401T264 447Q200 447 161 406Z" />
<glyph unicode="&#xe9;" glyph-name="eacute" horiz-adv-x="497" d="M188 547L174 567L287 667Q310 687 327 687Q339 687 345 680T352 662Q352 642 324 626L188 547ZM104 261Q103 252 103 234Q103 170 124 122T183 47T269 21Q335 21 379 56T436 166H462Q454 86
403 38T261 -10Q153 -10 91 54T29 235Q29 350 91 415T261 480Q361 480 413 425T466 282V261H104ZM200 447T161 406T108 295H401Q399 355 366 401T264 447Q200 447 161 406Z" />
<glyph unicode="&#xea;" glyph-name="ecircumflex" horiz-adv-x="497" d="M134 547L117 566L233 684H276L393 566L375 547L274 629Q261 638 255 638Q248 638 235 629L134 547ZM104 261Q103 252 103 234Q103 170 124 122T183 47T269 21Q335 21 379 56T436 166H462Q454
86 403 38T261 -10Q153 -10 91 54T29 235Q29 350 91 415T261 480Q361 480 413 425T466 282V261H104ZM200 447T161 406T108 295H401Q399 355 366 401T264 447Q200 447 161 406Z" />
<glyph unicode="&#xeb;" glyph-name="edieresis" horiz-adv-x="497" d="M134 545T123 556T112 586Q112 605 123 616T153 628Q172 628 183 617T194 586Q194 568 183 557T153 545Q134 545 123 556ZM343 545T332 556T321 586Q321 605 332 616T362 628Q381 628 392
617T403 586Q403 568 392 557T362 545Q343 545 332 556ZM104 261Q103 252 103 234Q103 170 124 122T183 47T269 21Q335 21 379 56T436 166H462Q454 86 403 38T261 -10Q153 -10 91 54T29 235Q29 350 91 415T261 480Q361 480 413 425T466 282V261H104ZM200 447T161
406T108 295H401Q399 355 366 401T264 447Q200 447 161 406Z" />
<glyph unicode="&#xec;" glyph-name="igrave" horiz-adv-x="287" d="M81 626Q70 632 63 641T55 662Q55 673 63 680T81 687Q97 687 120 667L232 567L218 547L81 626ZM38 21H54Q77 21 92 28T107 51V406Q107 416 102 420T89 425Q83 425 72 421T58 416L51 435L157
474H180V51Q180 36 195 29T233 21H249V0H38V21Z" />
<glyph unicode="&#xed;" glyph-name="iacute" horiz-adv-x="287" d="M54 567L167 667Q190 687 207 687Q219 687 225 680T232 662Q232 642 204 626L68 547L54 567ZM38 21H54Q77 21 92 28T107 51V406Q107 416 102 420T89 425Q83 425 72 421T58 416L51 435L157 474H180V51Q180
36 195 29T233 21H249V0H38V21Z" />
<glyph unicode="&#xee;" glyph-name="icircumflex" horiz-adv-x="287" d="M5 566L121 684H164L281 566L263 547L162 629Q149 638 143 638Q136 638 123 629L22 547L5 566ZM38 21H54Q77 21 92 28T107 51V406Q107 416 102 420T89 425Q83 425 72 421T58 416L51 435L157
474H180V51Q180 36 195 29T233 21H249V0H38V21Z" />
<glyph unicode="&#xef;" glyph-name="idieresis" horiz-adv-x="287" d="M19 545T8 556T-3 586Q-3 605 8 616T38 628Q57 628 68 617T79 586Q79 568 68 557T38 545Q19 545 8 556ZM228 545T217 556T206 586Q206 605 217 616T247 628Q266 628 277 617T288 586Q288
568 277 557T247 545Q228 545 217 556ZM38 21H54Q77 21 92 28T107 51V406Q107 416 102 420T89 425Q83 425 72 421T58 416L51 435L157 474H180V51Q180 36 195 29T233 21H249V0H38V21Z" />
<glyph unicode="&#xf0;" glyph-name="eth" horiz-adv-x="581" d="M436 597T484 495T533 293Q533 150 469 70T279 -10Q206 -10 154 25T74 119T47 248Q47 310 73 368T153 464T285 502Q333 502 377 483T449 422Q432 482 397 541T309 650L150 559L137 596L279 678Q223
723 169 746L192 776Q259 748 319 701L362 727Q437 772 443 776L467 741L351 674Q436 597 484 495ZM337 23T377 56T437 145T458 270Q458 322 436 367T376 440T289 468Q240 468 202 440T142 362T120 248Q120 187 139 136T194 54T281 23Q337 23 377 56Z" />
<glyph unicode="&#xf1;" glyph-name="ntilde" horiz-adv-x="596" d="M196 605T181 590T156 545L137 555Q145 596 168 620T227 645Q244 645 260 638T302 617Q325 604 341 597T372 590Q395 590 409 605T435 653L454 643Q445 600 422 575T362 549Q346 549 330 556T290
577Q266 591 250 598T219 605Q196 605 181 590ZM571 21V0H363V21H377Q399 21 414 28T429 51V334Q429 389 400 417T318 445Q280 445 246 427T189 374T167 291V51Q167 36 182 29T219 21H233V0H25V21H41Q64 21 79 28T94 51V404Q94 422 76 422Q65 422 45 413L38 432L144
472H167V394Q188 429 233 454T336 480Q416 480 459 444T502 345V51Q502 36 517 29T555 21H571Z" />
<glyph unicode="&#xf2;" glyph-name="ograve" horiz-adv-x="544" d="M209 626Q198 632 191 641T183 662Q183 673 191 680T209 687Q226 687 248 667L360 567L346 547L209 626ZM158 -10T94 54T29 235Q29 351 93 415T272 480Q386 480 450 416T514 235Q514 119 450
55T272 -10Q158 -10 94 54ZM351 23T397 78T443 235Q443 335 397 390T272 446Q192 446 147 391T101 235Q101 134 146 79T272 23Q351 23 397 78Z" />
<glyph unicode="&#xf3;" glyph-name="oacute" horiz-adv-x="544" d="M182 567L295 667Q318 687 335 687Q347 687 353 680T360 662Q360 642 332 626L196 547L182 567ZM158 -10T94 54T29 235Q29 351 93 415T272 480Q386 480 450 416T514 235Q514 119 450 55T272
-10Q158 -10 94 54ZM351 23T397 78T443 235Q443 335 397 390T272 446Q192 446 147 391T101 235Q101 134 146 79T272 23Q351 23 397 78Z" />
<glyph unicode="&#xf4;" glyph-name="ocircumflex" horiz-adv-x="544" d="M133 566L249 684H292L409 566L391 547L290 629Q277 638 271 638Q264 638 251 629L150 547L133 566ZM158 -10T94 54T29 235Q29 351 93 415T272 480Q386 480 450 416T514 235Q514 119 450
55T272 -10Q158 -10 94 54ZM351 23T397 78T443 235Q443 335 397 390T272 446Q192 446 147 391T101 235Q101 134 146 79T272 23Q351 23 397 78Z" />
<glyph unicode="&#xf5;" glyph-name="otilde" horiz-adv-x="544" d="M112 555Q120 596 143 620T202 645Q219 645 235 638T277 617Q300 604 316 597T347 590Q370 590 384 605T410 653L429 643Q420 600 397 575T337 549Q321 549 305 556T265 577Q241 591 225 598T194
605Q171 605 156 590T131 545L112 555ZM158 -10T94 54T29 235Q29 351 93 415T272 480Q386 480 450 416T514 235Q514 119 450 55T272 -10Q158 -10 94 54ZM351 23T397 78T443 235Q443 335 397 390T272 446Q192 446 147 391T101 235Q101 134 146 79T272 23Q351 23
397 78Z" />
<glyph unicode="&#xf6;" glyph-name="odieresis" horiz-adv-x="544" d="M147 545T136 556T125 586Q125 605 136 616T166 628Q185 628 196 617T207 586Q207 568 196 557T166 545Q147 545 136 556ZM356 545T345 556T334 586Q334 605 345 616T375 628Q394 628 405
617T416 586Q416 568 405 557T375 545Q356 545 345 556ZM158 -10T94 54T29 235Q29 351 93 415T272 480Q386 480 450 416T514 235Q514 119 450 55T272 -10Q158 -10 94 54ZM351 23T397 78T443 235Q443 335 397 390T272 446Q192 446 147 391T101 235Q101 134 146 79T272
23Q351 23 397 78Z" />
<glyph unicode="&#xf7;" glyph-name="divide" horiz-adv-x="574" d="M263 454T250 467T236 502Q236 524 249 537T285 551Q307 551 320 538T334 502Q334 481 321 468T285 454Q263 454 250 467ZM58 362H515V320H58V362ZM261 131T248 144T234 180Q234 201 247 214T283
228Q306 228 319 215T333 180Q333 158 320 145T283 131Q261 131 248 144Z" />
<glyph unicode="&#xf8;" glyph-name="oslash" horiz-adv-x="544" d="M514 367T514 235Q514 119 450 55T272 -10Q199 -10 145 17L110 -34L79 -12L113 37Q72 69 51 119T29 235Q29 351 93 415T272 480Q346 480 398 453L437 510L470 488L431 432Q514 367 514 235ZM101
137T144 82L372 415Q330 446 272 446Q192 446 147 391T101 235Q101 137 144 82ZM351 23T397 78T443 235Q443 332 400 387L171 55Q212 23 272 23Q351 23 397 78Z" />
<glyph unicode="&#xf9;" glyph-name="ugrave" horiz-adv-x="581" d="M214 632T207 641T199 662Q199 673 207 680T225 687Q241 687 264 667L376 567L362 547L225 626Q214 632 207 641ZM523 21T545 29V15Q516 -10 473 -10Q447 -10 432 4T416 46V77Q395 42 350 16T246
-10Q166 -10 123 26T80 124V404Q80 422 63 422Q51 422 31 413L25 432L130 472H153V135Q153 80 182 52T264 24Q302 24 337 42T394 95T416 178V404Q416 422 398 422Q388 422 366 413L360 432L468 472H488V52Q488 21 510 21Q523 21 545 29Z" />
<glyph unicode="&#xfa;" glyph-name="uacute" horiz-adv-x="581" d="M225 547L211 567L324 667Q347 687 364 687Q376 687 382 680T389 662Q389 642 361 626L225 547ZM523 21T545 29V15Q516 -10 473 -10Q447 -10 432 4T416 46V77Q395 42 350 16T246 -10Q166 -10
123 26T80 124V404Q80 422 63 422Q51 422 31 413L25 432L130 472H153V135Q153 80 182 52T264 24Q302 24 337 42T394 95T416 178V404Q416 422 398 422Q388 422 366 413L360 432L468 472H488V52Q488 21 510 21Q523 21 545 29Z" />
<glyph unicode="&#xfb;" glyph-name="ucircumflex" horiz-adv-x="581" d="M166 547L149 566L265 684H308L425 566L407 547L306 629Q293 638 287 638Q280 638 267 629L166 547ZM523 21T545 29V15Q516 -10 473 -10Q447 -10 432 4T416 46V77Q395 42 350 16T246 -10Q166
-10 123 26T80 124V404Q80 422 63 422Q51 422 31 413L25 432L130 472H153V135Q153 80 182 52T264 24Q302 24 337 42T394 95T416 178V404Q416 422 398 422Q388 422 366 413L360 432L468 472H488V52Q488 21 510 21Q523 21 545 29Z" />
<glyph unicode="&#xfc;" glyph-name="udieresis" horiz-adv-x="581" d="M163 545T152 556T141 586Q141 605 152 616T182 628Q201 628 212 617T223 586Q223 568 212 557T182 545Q163 545 152 556ZM372 545T361 556T350 586Q350 605 361 616T391 628Q410 628 421
617T432 586Q432 568 421 557T391 545Q372 545 361 556ZM523 21T545 29V15Q516 -10 473 -10Q447 -10 432 4T416 46V77Q395 42 350 16T246 -10Q166 -10 123 26T80 124V404Q80 422 63 422Q51 422 31 413L25 432L130 472H153V135Q153 80 182 52T264 24Q302 24 337
42T394 95T416 178V404Q416 422 398 422Q388 422 366 413L360 432L468 472H488V52Q488 21 510 21Q523 21 545 29Z" />
<glyph unicode="&#xfd;" glyph-name="yacute" horiz-adv-x="539" d="M203 547L189 567L302 667Q325 687 342 687Q354 687 360 680T367 662Q367 642 339 626L203 547ZM525 470V449H512Q470 449 457 414L262 -91Q243 -140 211 -164T129 -188Q88 -188 63 -172T38
-137Q38 -109 61 -109Q72 -109 77 -114T88 -129Q94 -140 101 -145T122 -151Q160 -151 184 -133T224 -74L253 3L76 425Q71 438 57 443T28 449H14V470H201V449H187Q168 449 155 443T147 423L281 77L410 422Q415 436 402 442T371 449H357V470H525Z" />
<glyph unicode="&#xfe;" glyph-name="thorn" horiz-adv-x="573" d="M26 -204H42Q65 -204 80 -197T96 -174V644Q96 654 91 658T78 663Q72 663 62 659T46 654L40 673L146 712H168V390Q196 437 241 458T337 480Q434 480 489 420T544 247Q544 113 487 52T317 -10Q267
-10 225 12T168 65V-173Q168 -189 183 -196T221 -204H236V-225H26V-204ZM399 23T435 82T472 242Q472 343 434 394T314 446Q283 446 249 428T191 376T168 299V160Q168 102 207 63T316 23Q399 23 435 82Z" />
<glyph unicode="&#xff;" glyph-name="ydieresis" horiz-adv-x="539" d="M161 545T150 556T139 586Q139 605 150 616T180 628Q199 628 210 617T221 586Q221 568 210 557T180 545Q161 545 150 556ZM370 545T359 556T348 586Q348 605 359 616T389 628Q408 628 419
617T430 586Q430 568 419 557T389 545Q370 545 359 556ZM525 470V449H512Q470 449 457 414L262 -91Q243 -140 211 -164T129 -188Q88 -188 63 -172T38 -137Q38 -109 61 -109Q72 -109 77 -114T88 -129Q94 -140 101 -145T122 -151Q160 -151 184 -133T224 -74L253 3L76
425Q71 438 57 443T28 449H14V470H201V449H187Q168 449 155 443T147 423L281 77L410 422Q415 436 402 442T371 449H357V470H525Z" />
<glyph unicode="&#x2013;" glyph-name="endash" horiz-adv-x="603" d="M41 299H562V254H41V299Z" />
<glyph unicode="&#x2014;" glyph-name="emdash" horiz-adv-x="917" d="M41 299H876V254H41V299Z" />
<glyph unicode="&#x2018;" glyph-name="quoteleft" horiz-adv-x="235" d="M94 501T81 515T67 561Q67 603 91 641T156 712L170 698Q124 652 124 608Q124 597 128 591T140 573Q148 564 152 557T156 540Q156 523 145 512T114 501Q94 501 81 515Z" />
<glyph unicode="&#x2019;" glyph-name="quoteright" horiz-adv-x="235" d="M63 513Q109 557 109 602Q109 613 105 620T93 638Q85 647 81 654T77 671Q77 688 88 699T119 710Q139 710 152 695T166 650Q166 608 142 569T77 498L63 513Z" />
<glyph unicode="&#x201a;" glyph-name="quotesinglbase" horiz-adv-x="235" d="M63 -21Q109 23 109 68Q109 79 105 86T93 104Q85 113 81 120T77 137Q77 154 88 165T119 176Q139 176 152 161T166 116Q166 74 142 35T77 -36L63 -21Z" />
<glyph unicode="&#x201c;" glyph-name="quotedblleft" horiz-adv-x="373" d="M94 501T81 515T67 561Q67 603 91 641T156 712L170 698Q124 652 124 608Q124 597 128 591T140 573Q148 564 152 557T156 540Q156 523 145 512T114 501Q94 501 81 515ZM232 501T219 515T205
561Q205 603 229 641T294 712L308 698Q262 652 262 608Q262 597 266 591T278 573Q286 564 290 557T294 540Q294 523 283 512T252 501Q232 501 219 515Z" />
<glyph unicode="&#x201d;" glyph-name="quotedblright" horiz-adv-x="373" d="M63 513Q109 557 109 602Q109 613 105 620T93 638Q85 647 81 654T77 671Q77 688 88 699T119 710Q139 710 152 695T166 650Q166 608 142 569T77 498L63 513ZM201 513Q247 557 247 602Q247
613 243 620T231 638Q223 647 219 654T215 671Q215 688 226 699T257 710Q277 710 290 695T304 650Q304 608 280 569T215 498L201 513Z" />
<glyph unicode="&#x201e;" glyph-name="quotedblbase" horiz-adv-x="373" d="M63 -21Q109 23 109 68Q109 79 105 86T93 104Q85 113 81 120T77 137Q77 154 88 165T119 176Q139 176 152 161T166 116Q166 74 142 35T77 -36L63 -21ZM201 -21Q247 23 247 68Q247 79
243 86T231 104Q223 113 219 120T215 137Q215 154 226 165T257 176Q277 176 290 161T304 116Q304 74 280 35T215 -36L201 -21Z" />
<glyph unicode="&#x2022;" glyph-name="bullet" horiz-adv-x="262" d="M102 283T84 302T66 353Q66 385 83 403T132 422Q161 422 178 404T195 353Q195 321 178 302T132 283Q102 283 84 302Z" />
<glyph unicode="&#x2039;" glyph-name="guilsinglleft" horiz-adv-x="284" d="M39 255V270L221 475L241 448L114 262L241 77L221 50L39 255Z" />
<glyph unicode="&#x203a;" glyph-name="guilsinglright" horiz-adv-x="284" d="M42 77L170 262L42 448L62 475L244 270V255L62 50L42 77Z" />
</font>
</defs>
</svg>
