<?xml version="1.0" standalone="no"?>
<!DOCTYPE svg PUBLIC "-//W3C//DTD SVG 1.1//EN" "http://www.w3.org/Graphics/SVG/1.1/DTD/svg11.dtd">
<svg xmlns="http://www.w3.org/2000/svg">
<defs >
<font id="Michroma" horiz-adv-x="1289" ><font-face
    font-family="Michroma"
    units-per-em="2048"
    panose-1="0 0 0 0 0 0 0 0 0 0"
    ascent="2368"
    descent="-544"
    alphabetic="0" />
<glyph unicode=" " glyph-name="space" horiz-adv-x="448" />
<glyph unicode="!" glyph-name="exclam" horiz-adv-x="448" d="M128 1536H320L272 448H176L128 1536ZM320 0H128V192H320V0Z" />
<glyph unicode="&quot;" glyph-name="quotedbl" horiz-adv-x="768" d="M128 1536H320L288 1152H160L128 1536ZM448 1536H640L608 1152H480L448 1536Z" />
<glyph unicode="#" glyph-name="numbersign" horiz-adv-x="1536" d="M835 320H526L415 -128L255 -80L354 320H128V480H393L489 864H192V1024H528L640 1472L800 1424L700 1024H1009L1121 1472L1281 1424L1181 1024H1408V864H1142L1046 480H1344V320H1007L896 -128L736
-80L835 320ZM565 480H874L970 864H661L565 480Z" />
<glyph unicode="$" glyph-name="dollar" horiz-adv-x="2018" d="M913 -36H832Q688 -36 580 -25T394 8T265 65T184 146T141 252T129 384H321Q321 294 347 243T433 167T590 135T832 128H913V704H896Q720 704 595 717T384 754T248 815T171 899T136 1003T128 1128Q128
1198 140 1258T187 1366T280 1453T431 1516T654 1555Q766 1566 913 1568V1664H1105V1568H1152Q1296 1568 1404 1558T1590 1525T1719 1469T1801 1389T1844 1283T1856 1152H1664Q1664 1242 1638 1293T1552 1369T1394 1401T1152 1408H1105V864H1160Q1318 864 1431
851T1621 813T1745 749T1816 663T1848 554T1856 424Q1856 354 1844 293T1799 180T1712 89T1572 21T1367 -21Q1254 -35 1105 -36V-128H913V-36ZM913 864V1408Q752 1406 644 1394Q520 1381 448 1349T348 1263T320 1128Q320 1078 327 1039T355 971T416 921T519 888T675
870T896 864H913ZM1105 704V128Q1262 129 1367 144Q1478 160 1544 195T1637 286T1664 424Q1664 505 1646 559T1573 645T1419 690T1160 704H1105Z" />
<glyph unicode="%" glyph-name="percent" horiz-adv-x="1023" d="M64 0H256L960 1536H768L64 0Z" />
<glyph unicode="&amp;" glyph-name="ampersand" horiz-adv-x="2432" d="M1760 768H1952V704Q1952 550 1942 438T1899 248T1808 122T1653 46T1419 10T1088 0Q912 0 773 2T527 19T344 64T220 152T150 296T128 512Q128 608 149 678T205 799T280 880T360 929T431 953T480
960Q444 984 415 1009T364 1064T332 1131T320 1216Q320 1312 351 1375T436 1478T560 1536T709 1562T868 1569T1024 1568Q1184 1568 1303 1564T1508 1544T1648 1500T1735 1421T1779 1298T1792 1120H1600Q1600 1192 1593 1241T1565 1323T1504 1372T1401 1397T1245
1406T1024 1408Q880 1408 782 1405T624 1384T538 1327T512 1216Q512 1190 520 1166T546 1117T595 1070T672 1024L2304 192L2240 32L640 833Q568 833 509 815T408 759T343 659T320 512Q320 432 332 377T377 287T464 232T604 204T809 194T1088 192Q1216 192 1315
193T1489 203T1615 231T1699 285T1745 376T1760 512V768Z" />
<glyph unicode="&apos;" glyph-name="quotesingle" horiz-adv-x="448" d="M128 1536H320L288 1152H160L128 1536Z" />
<glyph unicode="(" glyph-name="parenleft" horiz-adv-x="768" d="M640 -64Q512 -64 425 -29T280 66T192 208T147 381T131 573T128 768Q128 864 130 963T147 1154T192 1328T280 1469T424 1565T640 1600V1440Q559 1440 504 1422T414 1366T359 1272T332 1142T322
974T320 768Q320 656 321 563T331 395T359 264T413 171T504 115T640 96V-64Z" />
<glyph unicode=")" glyph-name="parenright" horiz-adv-x="768" d="M128 96Q208 96 263 114T354 170T409 264T436 394T446 562T448 768Q448 880 447 973T437 1141T409 1272T355 1365T264 1421T128 1440V1600Q256 1600 343 1565T488 1470T576 1328T621 1155T637
963T640 768Q640 672 638 573T621 382T576 208T488 67T344 -29T128 -64V96Z" />
<glyph unicode="*" glyph-name="asterisk" horiz-adv-x="1415" d="M420 384L264 495L628 896L128 1072L228 1250L660 992L612 1536H804L756 992L1187 1250L1287 1072L788 896L1152 495L996 384L708 834L420 384Z" />
<glyph unicode="+" glyph-name="plus" horiz-adv-x="1344" d="M128 960H576V1408H768V960H1216V800H768V320H576V800H128V960Z" />
<glyph unicode="," glyph-name="comma" horiz-adv-x="448" d="M128 128H320L192 -256H64L128 128Z" />
<glyph unicode="-" glyph-name="hyphen" horiz-adv-x="1024" d="M128 672H896V512H128V672Z" />
<glyph unicode="." glyph-name="period" horiz-adv-x="448" d="M320 0H128V192H320V0Z" />
<glyph unicode="/" glyph-name="slash" horiz-adv-x="1023" d="M768 1536H960L256 0H64L768 1536Z" />
<glyph unicode="0" glyph-name="zero" horiz-adv-x="2048" d="M1217 1568Q1393 1568 1513 1547T1712 1482T1832 1372T1893 1217T1916 1016T1920 768Q1920 632 1917 520T1894 319T1832 164T1712 55T1514 -10T1217 -32H832Q656 -32 536 -11T337 54T217 164T155 319T132
520T129 768Q129 904 132 1016T154 1217T216 1372T337 1481T535 1546T832 1568H1217ZM1217 128Q1345 128 1432 135T1576 166T1664 232T1709 346T1725 520T1728 768Q1728 912 1726 1015T1709 1190T1664 1304T1577 1370T1433 1400T1217 1408H832Q704 1408 617 1401T472
1370T384 1304T339 1190T323 1016T321 768Q321 624 323 521T340 346T384 232T472 166T616 136T832 128H1217Z" />
<glyph unicode="1" glyph-name="one" horiz-adv-x="992" d="M608 1536H864V0H672V1376L224 992L128 1120L608 1536Z" />
<glyph unicode="2" glyph-name="two" horiz-adv-x="1984" d="M128 192Q128 252 131 311T144 425T175 528T231 612T320 673T448 704L1472 800Q1520 804 1556 814T1615 852T1651 936T1663 1087Q1663 1167 1651 1222T1611 1313T1536 1368T1417 1396T1249 1406T1024
1408Q848 1408 728 1402T529 1378T408 1332T347 1257T324 1145T320 992H128Q128 1136 154 1234T232 1397T360 1496T535 1547T757 1565T1024 1568Q1168 1568 1285 1564T1495 1543T1656 1496T1768 1412T1834 1279T1856 1088Q1856 992 1842 914T1792 777T1694 684T1536
640L512 544Q439 537 400 517T343 454T323 339T320 160H1824V0H128V192Z" />
<glyph unicode="3" glyph-name="three" horiz-adv-x="1984" d="M1472 864Q1520 864 1556 872T1615 903T1651 971T1663 1087Q1663 1167 1651 1222T1611 1313T1536 1368T1417 1396T1249 1406T1024 1408Q848 1408 728 1404T529 1387T408 1352T347 1295T324 1208T320
1088H128Q128 1209 154 1292T232 1428T360 1510T535 1551T757 1566T1024 1568Q1168 1568 1285 1564T1495 1543T1656 1496T1768 1412T1834 1279T1856 1088Q1856 1016 1847 966T1818 882T1768 825T1696 784Q1738 766 1768 738T1817 670T1846 575T1856 448Q1856 336
1835 257T1769 125T1656 40T1496 -7T1286 -27T1024 -32Q880 -32 758 -30T536 -14T360 30T233 118T155 263T128 480H320Q320 404 324 349T347 254T408 191T528 152T727 133T1024 128Q1152 128 1249 129T1417 140T1535 168T1611 223T1651 314T1663 449Q1663 533 1651
583T1616 661T1556 696T1472 704H768V864H1472Z" />
<glyph unicode="4" glyph-name="four" horiz-adv-x="2048" d="M1664 320V0H1472V320H128V512L1408 1536H1664V480H1920V320H1664ZM1472 480V1408L320 480H1472Z" />
<glyph unicode="5" glyph-name="five" horiz-adv-x="1984" d="M1280 1056Q1408 1056 1500 1043T1657 1001T1760 928T1820 824T1849 686T1856 512Q1856 387 1835 298T1769 148T1656 52T1496 -2T1286 -26T1024 -32Q880 -32 758 -30T536 -14T360 30T233 118T155 263T128
480H320Q320 404 323 349T346 254T408 191T528 152T727 133T1024 128Q1152 128 1249 130T1417 143T1536 177T1611 244T1652 352T1664 513Q1664 641 1649 717T1592 832T1475 884T1280 896H768Q636 896 554 885T424 852T354 802T320 736H128V1536H1792V1376H320V896Q321
898 328 910T354 941T404 979T485 1016T604 1044T768 1056H1280Z" />
<glyph unicode="6" glyph-name="six" horiz-adv-x="1984" d="M960 1408Q805 1408 698 1403T519 1380T408 1324T349 1223T325 1064T320 832Q398 879 522 903T832 928H1153Q1369 928 1506 898T1720 808T1827 658T1856 448Q1856 328 1827 238T1721 88T1506 -2T1153
-32H832Q656 -32 536 -11T337 54T216 164T155 319T132 520T128 768Q128 912 132 1027T159 1231T232 1384T374 1488T609 1548T960 1568Q1136 1568 1266 1555T1488 1516T1640 1452T1732 1364T1778 1253T1791 1120H1632Q1632 1160 1627 1197T1600 1266T1536 1324T1419
1369T1232 1398T960 1408ZM832 768Q727 768 648 766T513 754T419 728T360 683T329 612T320 512Q320 432 329 373T359 271T418 200T512 156T648 134T832 128H1153Q1265 128 1346 134T1484 154T1576 192T1631 251T1657 335T1664 448Q1664 512 1657 560T1631 644T1576
704T1484 742T1346 762T1153 768H832Z" />
<glyph unicode="7" glyph-name="seven" horiz-adv-x="1984" d="M704 0H448L1632 1376H128V1536H1856V1344L704 0Z" />
<glyph unicode="8" glyph-name="eight" horiz-adv-x="1984" d="M1121 1568Q1337 1568 1474 1541T1688 1462T1795 1332T1824 1152Q1824 1095 1814 1045T1779 952T1710 876T1600 816Q1676 788 1726 749T1804 661T1844 555T1856 432Q1856 357 1844 294T1802 179T1721
88T1591 22T1405 -18T1152 -32H831Q615 -32 478 -2T264 88T157 233T128 432Q128 497 139 554T179 661T257 749T384 816Q317 841 274 875T205 952T170 1044T160 1152Q160 1254 189 1331T295 1461T510 1541T863 1568H1121ZM1152 128Q1264 128 1345 134T1483 155T1575
193T1630 250T1657 329T1664 432Q1664 488 1658 532T1632 610T1577 668T1484 707T1346 729T1152 736H831Q719 736 638 729T500 707T408 668T353 611T327 533T320 432Q320 374 327 329T353 250T408 193T500 156T638 135T831 128H1152ZM1152 896Q1309 896 1403 907T1548
948T1615 1026T1632 1152Q1632 1202 1626 1240T1600 1307T1545 1355T1452 1386T1314 1403T1120 1408H863Q751 1408 670 1403T532 1386T440 1355T385 1308T359 1241T352 1152Q352 1100 359 1061T385 994T440 946T532 916T670 901T863 896H1152Z" />
<glyph unicode="9" glyph-name="nine" horiz-adv-x="1984" d="M1024 128Q1179 128 1286 133T1465 156T1576 212T1635 313T1659 472T1664 704Q1586 657 1462 633T1152 608H831Q615 608 478 638T264 728T157 878T128 1088Q128 1208 157 1298T263 1448T478 1538T831
1568H1152Q1328 1568 1448 1547T1647 1482T1768 1372T1829 1217T1852 1016T1856 768Q1856 624 1852 509T1825 305T1752 152T1610 48T1375 -12T1024 -32Q848 -32 718 -19T496 20T344 84T252 172T206 283T193 416H352Q352 376 358 339T384 270T448 212T565 167T752
138T1024 128ZM1152 768Q1309 768 1409 775T1565 808T1643 885T1664 1024Q1664 1144 1643 1219T1566 1336T1409 1393T1152 1408H831Q719 1408 638 1402T500 1382T408 1344T353 1285T327 1201T320 1088Q320 1024 327 976T353 892T408 832T500 794T638 774T831 768H1152Z"
/>
<glyph unicode=":" glyph-name="colon" horiz-adv-x="448" d="M320 768H128V960H320V768ZM320 192H128V384H320V192Z" />
<glyph unicode=";" glyph-name="semicolon" horiz-adv-x="448" d="M128 512H320L192 128H64L128 512ZM320 768H128V960H320V768Z" />
<glyph unicode="&lt;" glyph-name="less" horiz-adv-x="1152" d="M1024 1472V1216L272 832L1024 448V192L128 736V928L1024 1472Z" />
<glyph unicode="=" glyph-name="equal" horiz-adv-x="1472" d="M128 1024H1344V864H128V1024ZM128 480H1344V320H128V480Z" />
<glyph unicode="&gt;" glyph-name="greater" horiz-adv-x="1152" d="M1024 928V736L128 192V448L880 832L128 1216V1472L1024 928Z" />
<glyph unicode="?" glyph-name="question" horiz-adv-x="1856" d="M704 321V387Q704 447 706 508T723 626T768 732T856 817T1000 875T1216 896Q1288 896 1347 904T1447 938T1512 1015T1535 1152Q1535 1246 1509 1298T1424 1374T1266 1403T1024 1408Q848 1408 728
1404T529 1388T408 1356T347 1304T324 1228T320 1122H128Q128 1234 154 1310T232 1435T360 1512T535 1551T757 1566T1024 1568Q1136 1568 1232 1564T1406 1546T1544 1505T1645 1432T1707 1318T1728 1153Q1728 1064 1703 988T1624 855T1485 768T1280 736Q1184 736
1118 728T1010 700T944 649T911 571T898 463T896 321H704ZM896 0H704V192H896V0Z" />
<glyph unicode="@" glyph-name="at" horiz-adv-x="2240" d="M1117 288Q1224 288 1298 295T1417 331T1483 417T1504 573Q1504 674 1484 732T1418 819T1298 856T1117 864Q1022 864 954 861T841 847T768 816T727 764T708 686T704 576Q704 512 708 466T726 388T768
336T840 306T954 292T1117 288ZM2112 480Q2112 384 2100 317T2053 208T1956 147T1791 128Q1718 128 1674 147T1606 195T1575 257T1567 320Q1542 266 1486 224Q1462 206 1429 189T1350 158T1247 136T1117 128Q990 128 896 137T734 168T624 223T556 307T522 423T512
576Q512 662 521 728T556 845T624 929T734 984T895 1014T1117 1024Q1179 1024 1228 1017T1317 999T1385 974T1435 944Q1483 909 1504 864V992H1696V480Q1696 418 1699 381T1711 323T1740 295T1791 288Q1833 288 1858 295T1897 322T1915 380T1920 480V768Q1920 864
1908 934T1863 1055T1776 1136T1635 1185T1431 1209T1152 1216Q976 1216 846 1211T624 1186T472 1124T380 1012T334 835T321 576Q321 432 334 329T380 154T473 40T624 -26T846 -56T1791 -64V-224H1152Q928 -224 765 -203T489 -138T304 -28T194 127T142 328T128
576Q128 736 141 857T194 1068T304 1216T488 1310T765 1361T1152 1376Q1344 1376 1490 1362T1742 1318T1920 1240T2033 1125T2112 480Z" />
<glyph unicode="A" glyph-name="A" horiz-adv-x="2176" d="M1696 352H480L288 0H64L960 1536H1216L2112 0H1888L1696 352ZM1600 512L1088 1408L576 512H1600Z" />
<glyph unicode="B" glyph-name="B" horiz-adv-x="2112" d="M192 0V1536H1473Q1617 1536 1705 1513T1840 1444T1904 1330T1920 1174Q1920 1110 1909 1061T1880 976T1839 916T1792 875Q1736 837 1664 832Q1754 827 1824 788Q1854 771 1882 746T1933 683T1970 595T1984
478Q1984 398 1977 332T1946 212T1880 119T1766 53T1591 13T1343 0H192ZM1279 160Q1391 160 1473 163T1612 178T1704 211T1758 268T1785 355T1792 478Q1792 534 1785 575T1759 645T1704 691T1612 719T1473 732T1279 736H384V160H1279ZM1279 896Q1377 896 1448 900T1569
915T1650 945T1698 996T1722 1070T1728 1174Q1728 1238 1714 1278T1664 1339T1567 1368T1409 1376H384V896H1279Z" />
<glyph unicode="C" glyph-name="C" horiz-adv-x="2111" d="M1791 1056Q1791 1176 1765 1246T1679 1352T1522 1398T1280 1408H831Q703 1408 616 1401T471 1370T383 1304T338 1190T322 1016T320 768Q320 624 322 521T339 346T383 232T471 166T615 136T831 128H1280Q1392
128 1473 134T1611 156T1703 200T1757 270T1784 372T1791 512H1983Q1983 416 1971 339T1929 201T1847 96T1718 24T1532 -18T1280 -32H831Q655 -32 535 -11T336 54T216 164T154 319T131 520T128 768Q128 904 131 1016T153 1217T215 1372T336 1481T534 1546T831 1568H1280Q1424
1568 1532 1555T1718 1514T1847 1444T1928 1345T1971 1216T1983 1056H1791Z" />
<glyph unicode="D" glyph-name="D" horiz-adv-x="2176" d="M1343 160Q1470 160 1558 167T1703 195T1791 258T1836 366T1853 532T1856 768Q1856 905 1854 1003T1837 1169T1791 1278T1703 1340T1559 1369T1343 1376H384V160H1343ZM192 0V1536H1343Q1519 1536 1639
1516T1838 1453T1959 1348T2021 1200T2044 1007T2048 768Q2048 637 2045 530T2022 337T1960 188T1839 83T1640 21T1343 0H192Z" />
<glyph unicode="E" glyph-name="E" horiz-adv-x="1792" d="M192 0V1536H1728V1376H384V864H1664V704H384V160H1728V0H192Z" />
<glyph unicode="F" glyph-name="F" horiz-adv-x="1728" d="M192 0V1536H1664V1376H384V864H1600V704H384V0H192Z" />
<glyph unicode="G" glyph-name="G" horiz-adv-x="2177" d="M1857 1056Q1857 1176 1831 1246T1745 1352T1587 1398T1345 1408H831Q703 1408 616 1401T471 1370T383 1304T338 1190T322 1016T320 768Q320 624 322 521T339 346T383 232T471 166T615 136T831 128H1346Q1458
128 1539 134T1677 156T1769 200T1823 270T1850 372T1857 512V608H1087V768H2049V512Q2049 416 2037 339T1995 201T1913 96T1784 24T1598 -18T1346 -32H831Q655 -32 535 -11T336 54T216 164T154 319T131 520T128 768Q128 904 131 1016T153 1217T215 1372T336 1481T534
1546T831 1568H1345Q1489 1568 1597 1555T1783 1514T1912 1444T1994 1345T2037 1216T2049 1056H1857Z" />
<glyph unicode="H" glyph-name="H" horiz-adv-x="2176" d="M1792 1536H1984V0H1792V704H384V0H192V1536H384V864H1792V1536Z" />
<glyph unicode="I" glyph-name="I" horiz-adv-x="576" d="M192 1536H384V0H192V1536Z" />
<glyph unicode="J" glyph-name="J" horiz-adv-x="1715" d="M576 0Q432 0 344 26T208 112T144 270T128 512V576H320V512Q320 392 333 322T376 214T455 167T576 156H1024Q1120 156 1182 173T1280 227T1330 318T1344 448V1536H1536V448Q1536 328 1510 243T1424 104T1266
25T1024 0H576Z" />
<glyph unicode="K" glyph-name="K" horiz-adv-x="2016" d="M1632 1536H1920L832 784L1952 0H1664L640 704H384V0H192V1536H384V864H640L1632 1536Z" />
<glyph unicode="L" glyph-name="L" horiz-adv-x="1664" d="M192 0V1536H384V160H1600V0H192Z" />
<glyph unicode="M" glyph-name="M" horiz-adv-x="2800" d="M384 1408V0H192V1536H512L1407 192L2302 1536H2608V0H2416V1387L1504 0H1310L384 1408Z" />
<glyph unicode="N" glyph-name="N" horiz-adv-x="2321" d="M384 0H192V1536H529L1937 192V1536H2129V0H1873L384 1376V0Z" />
<glyph unicode="O" glyph-name="O" horiz-adv-x="2240" d="M1409 1568Q1585 1568 1705 1547T1904 1482T2024 1372T2085 1217T2108 1016T2112 768Q2112 632 2109 520T2086 319T2024 164T1904 55T1706 -10T1409 -32H831Q655 -32 535 -11T336 54T216 164T154 319T131
520T128 768Q128 904 131 1016T153 1217T215 1372T336 1481T534 1546T831 1568H1409ZM1409 128Q1536 128 1623 135T1768 166T1856 232T1901 346T1917 520T1920 768Q1920 912 1918 1015T1901 1190T1856 1304T1769 1370T1625 1400T1409 1408H831Q703 1408 616 1401T471
1370T383 1304T338 1190T322 1016T320 768Q320 624 322 521T339 346T383 232T471 166T615 136T831 128H1409Z" />
<glyph unicode="P" glyph-name="P" horiz-adv-x="1984" d="M192 1536H1346Q1489 1536 1587 1524T1750 1486T1848 1424T1899 1337T1917 1225T1920 1088Q1920 1010 1917 944T1894 825T1832 731T1711 663T1512 622T1215 608H384V0H192V1536ZM384 768H1215Q1343 768
1430 772T1575 789T1663 823T1708 881T1725 967T1728 1088Q1728 1153 1726 1200T1709 1279T1663 1330T1575 1359T1431 1373T1215 1376H384V768Z" />
<glyph unicode="Q" glyph-name="Q" horiz-adv-x="2352" d="M832 1568Q656 1568 536 1547T337 1482T217 1372T155 1217T132 1016T129 768Q129 632 132 520T154 319T216 164T337 55T535 -10T832 -32H1410Q1586 -32 1706 -11T1905 54T2025 164Q2027 167 2028 170L2144
96L2224 224L2085 313Q2086 316 2086 319Q2106 408 2109 520T2113 768Q2113 904 2110 1016T2087 1217T2025 1372T1905 1481T1707 1546T1410 1568H832ZM832 128Q704 128 617 135T472 166T385 232T340 346T324 520T321 768Q321 912 323 1015T339 1190T384 1304T472
1370T616 1400T832 1408H1410Q1538 1408 1625 1401T1769 1370T1857 1304T1902 1190T1918 1016T1921 768Q1921 624 1918 520Q1917 468 1913 424L1328 800L1247 671L1877 267Q1868 247 1857 232Q1826 189 1769 166T1625 136T1410 128H832Z" />
<glyph unicode="R" glyph-name="R" horiz-adv-x="2112" d="M1952 0H1760V288Q1760 358 1758 408T1741 495T1695 553T1607 587T1463 603T1247 608H384V0H192V1536H1279Q1455 1536 1575 1524T1774 1486T1895 1424T1957 1337T1980 1225T1984 1088Q1984 992 1971 920T1925
796T1840 715T1707 672Q1787 660 1835 630T1909 552T1943 438T1952 288V0ZM384 768H1279Q1407 768 1494 772T1639 789T1727 823T1772 881T1789 967T1792 1088Q1792 1153 1790 1200T1773 1279T1727 1330T1639 1359T1495 1373T1279 1376H384V768Z" />
<glyph unicode="S" glyph-name="S" horiz-adv-x="1984" d="M1160 864Q1318 864 1431 851T1621 813T1745 749T1816 663T1848 554T1856 424Q1856 354 1844 293T1799 180T1712 89T1572 21T1368 -21T1088 -36H832Q688 -36 580 -25T394 8T265 65T184 146T141 252T129
384H321Q321 294 347 243T433 167T590 135T832 128H1088Q1256 128 1367 144T1544 195T1637 286T1664 424Q1664 505 1646 559T1573 645T1419 690T1160 704H896Q720 704 595 717T384 754T248 815T171 899T136 1003T128 1128Q128 1198 140 1258T187 1366T280 1453T431
1516T654 1555T960 1568H1152Q1296 1568 1404 1558T1590 1525T1719 1469T1801 1389T1844 1283T1856 1152H1664Q1664 1242 1638 1293T1552 1369T1394 1401T1152 1408H960Q768 1408 644 1395T448 1349T348 1263T320 1128Q320 1078 327 1039T355 971T416 921T519 888T675
870T896 864H1160Z" />
<glyph unicode="T" glyph-name="T" horiz-adv-x="1984" d="M1856 1536V1376H1088V0H896V1376H128V1536H1856Z" />
<glyph unicode="U" glyph-name="U" horiz-adv-x="2113" d="M1985 1536V768Q1985 632 1982 520T1959 319T1897 164T1777 55T1579 -10T1282 -32H832Q656 -32 536 -11T337 54T217 164T155 319T132 520T129 768V1536H321V768Q321 624 323 521T340 346T384 232T472
166T616 136T832 128H1282Q1409 128 1497 135T1641 166T1729 232T1774 346T1791 520T1793 768L1792 1536H1985Z" />
<glyph unicode="V" glyph-name="V" horiz-adv-x="2048" d="M1760 1536H1984L1152 0H896L64 1536H288L1024 128L1760 1536Z" />
<glyph unicode="W" glyph-name="W" horiz-adv-x="3328" d="M1584 1536H1808L2432 160L3040 1536H3264L2560 0H2304L1696 1344L1088 0H832L64 1536H288L960 160L1584 1536Z" />
<glyph unicode="X" glyph-name="X" horiz-adv-x="2176" d="M1209 810L2112 0H1840L1075 686L336 0H64L937 810L128 1536H400L1070 934L1719 1536H1991L1209 810Z" />
<glyph unicode="Y" glyph-name="Y" horiz-adv-x="2200" d="M128 1536H384L1088 784L1792 1536H2048L1184 640V0H992V640L128 1536Z" />
<glyph unicode="Z" glyph-name="Z" horiz-adv-x="2046" d="M128 0V160L1614 1376H192V1536H1888V1376L394 160H1920V0H128Z" />
<glyph unicode="[" glyph-name="bracketleft" horiz-adv-x="832" d="M128 1536H704V1376H320V160H704V0H128V1536Z" />
<glyph unicode="\" glyph-name="backslash" horiz-adv-x="1023" d="M960 0H768L64 1536H256L960 0Z" />
<glyph unicode="]" glyph-name="bracketright" horiz-adv-x="832" d="M704 0H128V160H512V1376H128V1536H704V0Z" />
<glyph unicode="^" glyph-name="asciicircum" horiz-adv-x="1088" d="M544 1408L192 896L64 992L448 1536H640L1024 992L896 896L544 1408Z" />
<glyph unicode="_" glyph-name="underscore" horiz-adv-x="1088" d="M0 0H1088V-160H0V0Z" />
<glyph unicode="`" glyph-name="grave" horiz-adv-x="960" d="M128 1664L256 1856L832 1376L768 1280L128 1664Z" />
<glyph unicode="a" glyph-name="a" horiz-adv-x="1595" d="M1275 158Q1272 146 1230 98Q1200 62 1150 35T1017 -8T797 -24Q616 -24 488 -6T279 51T161 150T123 293Q123 380 143 440T203 542T299 606T426 641T583 656T764 659Q901 659 993 648T1143 619T1232 581T1275
544Q1275 656 1266 735T1235 867T1179 951T1096 999T980 1019T829 1024Q697 1024 610 1018T472 992T400 940T379 852H187Q187 943 219 1006T327 1108T526 1166T829 1184Q1005 1184 1127 1155T1324 1053T1433 857T1467 544V0H1275V158ZM829 128Q956 128 1041 140T1179
176T1253 236T1275 320Q1275 368 1250 401T1165 456T1007 486T765 496Q621 496 533 491T396 468T332 415T315 320Q315 260 332 223T404 164T559 136T829 128Z" />
<glyph unicode="b" glyph-name="b" horiz-adv-x="1632" d="M832 -22Q694 -22 603 -4T453 36T365 104T320 177V0H128V1536H320V1043Q333 1064 363 1088T452 1134T603 1170T832 1184Q1024 1184 1158 1155T1376 1056T1498 869T1536 574Q1536 400 1498 285T1376 102T1158
6T832 -22ZM832 128Q944 128 1025 135T1164 160T1256 210T1311 291T1337 410T1344 574Q1344 668 1338 738T1312 857T1257 939T1164 990T1026 1016T832 1023Q736 1023 661 1019T529 998T433 952T368 872T332 748T320 571Q320 469 331 397T368 275T432 197T529 152T661
133T832 128Z" />
<glyph unicode="c" glyph-name="c" horiz-adv-x="1569" d="M96 574Q96 694 108 786T150 946T232 1059T362 1133T549 1173T801 1185Q993 1185 1117 1162T1313 1090T1413 967T1441 789H1249Q1249 826 1247 858T1233 916T1193 962T1116 997T990 1018T801 1025Q673
1025 586 1016T441 987T353 932T308 847T292 730T289 574Q289 488 291 422T308 306T353 222T441 167T585 137T801 128Q913 128 989 136T1116 159T1193 196T1232 246T1247 309T1249 384H1441Q1441 279 1413 202T1313 76T1117 2T801 -22Q657 -22 549 -10T363 29T233
102T151 213T108 368T96 574Z" />
<glyph unicode="d" glyph-name="d" horiz-adv-x="1632" d="M800 -22Q608 -22 474 6T256 102T134 285T96 574Q96 754 134 872T256 1059T474 1156T800 1184Q936 1184 1028 1170T1178 1135T1267 1090T1312 1044V1536H1504V0H1312V171Q1312 171 1264 114Q1222 73 1171
48T1028 1T800 -22ZM800 128Q896 128 971 132T1103 152T1199 196T1264 275T1300 396T1312 571Q1312 677 1301 751T1264 876T1200 956T1103 1000T971 1020T800 1024Q688 1024 607 1017T468 992T376 942T321 860T295 740T288 574Q288 480 294 411T320 292T375 210T468
160T606 135T800 128Z" />
<glyph unicode="e" glyph-name="e" horiz-adv-x="1568" d="M800 -22Q608 -22 474 4T256 96T134 270T96 544Q96 733 134 856T256 1053T474 1155T800 1184Q937 1184 1037 1164T1209 1106T1325 1014T1395 901T1430 761T1440 592L1424 528H288Q288 396 314 312T400
188T558 139T800 128Q932 128 1018 135T1156 164T1227 222T1248 320H1440Q1440 227 1408 162T1300 56T1103 -3T800 -22ZM800 1024Q704 1024 629 1020T497 1003T400 964T336 904T300 807T288 656H1248Q1248 773 1223 839T1144 949T1005 1008T800 1024Z" />
<glyph unicode="f" glyph-name="f" horiz-adv-x="1056" d="M512 1006V0H320V1006H128V1152H320V1162Q320 1279 346 1357T432 1482T590 1548T833 1568H1056V1408H832Q741 1408 680 1404T582 1377T528 1304T512 1162V1152H1056V1006H512Z" />
<glyph unicode="g" glyph-name="g" horiz-adv-x="1632" d="M800 1024Q688 1024 607 1017T468 992T376 942T321 860T295 740T288 574Q288 480 294 411T320 292T375 210T468 160T606 135T800 128Q896 128 971 132T1103 152T1199 197T1264 276T1300 399T1312 577Q1312
681 1301 755T1264 878T1200 957T1103 1001T971 1020T800 1024ZM1504 160Q1504 -8 1466 -119T1344 -298T1126 -394T800 -421Q620 -421 498 -405T300 -355T193 -266T160 -133H352Q352 -172 372 -197T444 -236T581 -255T800 -261Q944 -261 1042 -251T1200 -201T1286
-83T1312 128Q1298 104 1268 76T1179 24T1028 -16T800 -32Q608 -32 474 -4T256 94T134 280T96 574Q96 754 134 872T256 1059T474 1156T800 1184Q936 1184 1028 1170T1178 1135T1267 1090T1312 1045V1152H1504V160Z" />
<glyph unicode="h" glyph-name="h" horiz-adv-x="1601" d="M1280 0V650Q1280 754 1264 825T1200 941T1064 1004T832 1024Q676 1024 577 1002T420 939T342 841T320 714V0H128V1536H320V970Q340 1017 377 1051T462 1109T567 1147T680 1170T793 1181T896 1184Q1024
1184 1116 1169T1273 1123T1377 1047T1437 943T1466 810T1473 650L1472 0H1280Z" />
<glyph unicode="i" glyph-name="i" horiz-adv-x="576" d="M192 1152H384V0H192V1152ZM384 1344H192V1536H384V1344Z" />
<glyph unicode="j" glyph-name="j" horiz-adv-x="672" d="M480 -64Q480 -138 470 -197T424 -297T318 -361T128 -384V-224Q176 -224 207 -217T256 -192T281 -143T288 -64V1152H480V-64ZM480 1344H288V1536H480V1344Z" />
<glyph unicode="k" glyph-name="k" horiz-adv-x="1408" d="M128 1536H320V696H384L1088 1152H1376L560 616L1408 0H1120L384 552H320V0H128V1536Z" />
<glyph unicode="l" glyph-name="l" horiz-adv-x="576" d="M192 1536H384V0H192V1536Z" />
<glyph unicode="m" glyph-name="m" horiz-adv-x="2496" d="M1344 0H1152V650Q1152 754 1139 825T1084 941T967 1004T768 1024Q633 1024 546 1002T409 939T340 841T320 714V0H128V1152H320V970Q321 973 329 990T357 1030T413 1081T505 1131T642 1169T832 1184Q940
1184 1019 1171T1155 1131T1247 1065T1304 974Q1321 1001 1357 1037T1457 1106T1619 1161T1856 1184Q1971 1184 2053 1169T2193 1123T2284 1047T2337 943T2362 810T2368 650V0H2176V650Q2176 754 2163 825T2108 941T1991 1004T1792 1024Q1657 1024 1570 1002T1433
939T1364 841T1344 714V0Z" />
<glyph unicode="n" glyph-name="n" horiz-adv-x="1601" d="M1280 0V640Q1280 747 1264 820T1200 939T1064 1004T832 1024Q676 1024 577 1001T420 936T342 835T320 704V0H128V1152H320V960Q341 1009 380 1044T468 1105T574 1145T688 1169T798 1181T896 1184Q1024
1184 1116 1168T1273 1121T1377 1044T1437 938T1466 803T1473 640L1472 0H1280Z" />
<glyph unicode="o" glyph-name="o" horiz-adv-x="1600" d="M96 584Q96 761 134 877T256 1061T474 1156T800 1184Q992 1184 1126 1157T1344 1061T1466 877T1504 584Q1504 407 1466 290T1344 104T1126 7T800 -22Q608 -22 474 6T256 104T134 290T96 584ZM288 584Q288
488 295 417T321 295T376 212T468 161T606 135T800 128Q896 128 971 132T1103 153T1200 198T1264 279T1300 404T1312 584Q1312 687 1301 759T1265 881T1200 958T1104 1001T972 1020T800 1024Q704 1024 629 1020T497 1002T400 959T336 881T300 760T288 584Z" />
<glyph unicode="p" glyph-name="p" horiz-adv-x="1632" d="M832 1184Q1024 1184 1158 1155T1376 1056T1498 869T1536 574Q1536 400 1498 285T1376 102T1158 6T832 -22Q695 -22 603 -7T453 30T364 79T320 128V-384H128V1152H320V1045Q333 1065 363 1089T452 1135T603
1170T832 1184ZM832 1024Q736 1024 661 1019T529 999T433 954T368 875T332 752T320 577Q320 474 331 400T368 277T432 198T529 153T661 133T832 128Q944 128 1025 135T1164 160T1256 210T1311 291T1337 410T1344 574Q1344 668 1338 738T1312 858T1257 940T1164
991T1026 1017T832 1024Z" />
<glyph unicode="q" glyph-name="q" horiz-adv-x="1632" d="M800 1184Q936 1184 1028 1169T1178 1132T1267 1083T1312 1035V1152H1504V-384H1312V128Q1298 105 1268 79T1179 31T1028 -7T800 -22Q608 -22 474 6T256 104T134 290T96 584Q96 761 134 877T256 1061T474
1156T800 1184ZM800 1024Q688 1024 607 1018T468 995T376 948T321 869T295 750T288 584Q288 488 294 417T320 295T375 212T468 161T606 135T800 128Q896 128 971 132T1103 153T1199 199T1264 280T1300 406T1312 587Q1312 691 1301 764T1264 885T1200 962T1103 1003T971
1020T800 1024Z" />
<glyph unicode="r" glyph-name="r" horiz-adv-x="1280" d="M1120 777Q1120 849 1110 896T1060 972T945 1012T736 1024Q607 1024 526 1002T399 938T337 840T320 713V0H128V1152H320V969Q330 1000 357 1037T439 1107T581 1162T800 1184Q950 1184 1044 1158T1190
1080T1261 952T1280 777H1120Z" />
<glyph unicode="s" glyph-name="s" horiz-adv-x="1600" d="M800 525Q912 525 991 522T1123 510T1208 488T1255 450T1275 399T1280 340Q1280 304 1276 275T1254 221T1204 180T1114 151T973 134T768 128Q636 128 550 135T412 164T341 222T320 320H128Q128 229 160
166T268 64T465 6T768 -12Q912 -12 1020 -4T1207 22T1336 68T1418 136T1460 227T1472 344Q1472 409 1460 458T1419 544T1340 612T1216 658T1039 679T800 685Q688 685 609 685T477 691T392 708T345 740T325 793T320 860Q320 918 346 951T432 1000T590 1020T832 1024Q964
1024 1050 1017T1188 990T1259 936T1280 848H1472Q1472 935 1443 998T1342 1102T1146 1164T832 1184Q640 1184 506 1167T288 1112T166 1012T128 860Q128 794 140 738T181 643T259 581T383 546T561 529T800 525Z" />
<glyph unicode="t" glyph-name="t" horiz-adv-x="1376" d="M1248 512Q1248 365 1224 267T1144 109T995 25T768 0Q637 0 548 20T404 88T325 216T301 416V994H64V1152H301V1467H493V1152H1216V994H493V416Q493 320 507 268T554 192T638 164T767 160Q827 160 874
162T957 174T1018 206T1058 267T1081 365T1088 512H1248Z" />
<glyph unicode="u" glyph-name="u" horiz-adv-x="1601" d="M321 1152V512Q321 405 337 332T401 213T537 148T769 128Q925 128 1024 151T1181 216T1259 317T1281 448V1152H1473V0H1281V192Q1267 161 1234 124T1135 54T965 0T705 -22Q576 -22 484 -7T327 39T223
115T163 219T135 352T128 512L129 1152H321Z" />
<glyph unicode="v" glyph-name="v" horiz-adv-x="1600" d="M672 0H928L1536 1152H1312L800 128L288 1152H64L672 0Z" />
<glyph unicode="w" glyph-name="w" horiz-adv-x="2240" d="M2176 1152H1952L1596 144L1216 1152H1024L640 144L288 1152H64L512 0H768L1120 944L1472 0H1728L2176 1152Z" />
<glyph unicode="x" glyph-name="x" horiz-adv-x="1628" d="M1276 0H1532L942 587L1504 1152H1248L819 707L380 1152H124L686 586L96 0H352L814 482L1276 0Z" />
<glyph unicode="y" glyph-name="y" horiz-adv-x="1568" d="M672 0H736Q720 -32 708 -61T677 -115T632 -160T561 -194T450 -216T288 -224V-384Q400 -384 482 -374T623 -344T724 -296T795 -233T848 -155T896 -64L928 0L1504 1152H1280L800 128L288 1152H64L672 0Z" />
<glyph unicode="z" glyph-name="z" horiz-adv-x="1472" d="M192 1152V1011H1104L128 160V0H1344V143H382L1344 992V1152H192Z" />
<glyph unicode="{" glyph-name="braceleft" horiz-adv-x="960" d="M320 536Q320 470 322 401T339 264T384 138T472 33T616 -38T832 -64V96Q751 96 696 109T606 148T551 212T524 299T514 407T512 536Q512 565 510 596T496 657T458 715T384 768Q432 792 458 820T496
879T510 940T512 1000Q512 1069 513 1128T523 1237T551 1324T605 1387T696 1426T832 1440V1600Q704 1600 617 1574T472 1503T384 1399T339 1272T323 1135T320 1000Q320 964 317 936T296 888T239 858T128 848V688Q200 688 239 679T296 650T317 603T320 536Z" />
<glyph unicode="|" glyph-name="bar" horiz-adv-x="448" d="M128 -128H320V1600H128V-128Z" />
<glyph unicode="}" glyph-name="braceright" horiz-adv-x="960" d="M640 536Q640 574 643 602T664 650T721 678T832 688V848Q760 848 721 858T664 887T643 935T640 1000Q640 1065 637 1135T621 1272T576 1398T488 1503T344 1574T128 1600V1440Q208 1440 263 1427T354
1388T409 1324T436 1237T446 1129T448 1000Q448 971 450 940T464 879T502 821T576 768Q528 744 502 716T464 657T450 596T448 536Q448 467 447 408T437 299T409 212T355 149T264 110T128 96V-64Q256 -64 343 -38T488 33T576 137T621 264T637 401T640 536Z" />
<glyph unicode="~" glyph-name="asciitilde" horiz-adv-x="1152" d="M384 928Q429 928 467 913T549 880T644 847T768 832Q804 832 848 844T932 886T997 965T1024 1088H832Q832 1058 828 1039T816 1010T796 996T768 992Q723 992 685 1007T603 1040T508 1073T384
1088Q348 1088 304 1077T220 1037T155 958T128 832H320Q320 863 324 882T336 911T356 924T384 928Z" />
<glyph unicode="&#xa0;" glyph-name="uni00A0" horiz-adv-x="0" />
<glyph unicode="&#xa1;" glyph-name="exclamdown" horiz-adv-x="448" d="M128 0H320L272 1088H176L128 0ZM320 1536H128V1344H320V1536Z" />
<glyph unicode="&#xa2;" glyph-name="cent" horiz-adv-x="1601" d="M128 544Q128 432 140 346T182 196T264 88T394 18T581 -20T833 -32Q1025 -32 1149 -8T1345 68T1445 197T1473 384H1281Q1281 344 1279 310T1265 247T1225 196T1148 159T1022 136T833 128Q705
128 618 136T473 164T385 216T340 294T324 402T321 544Q321 624 323 686T340 794T385 872T473 923T617 951T833 960Q945 960 1021 952T1148 929T1225 892T1264 842T1279 779T1281 704H1473Q1473 812 1445 890T1345 1020T1149 1095T833 1120Q689 1120 581 1109T395
1071T265 1000T183 892T140 742T128 544Z" />
<glyph unicode="&#xa3;" glyph-name="sterling" horiz-adv-x="1663" d="M64 800H256V958Q256 1078 268 1170T310 1330T391 1443T521 1517T708 1557T960 1569Q1131 1569 1242 1546T1419 1474T1510 1351T1536 1173H1344Q1344 1210 1342 1242T1329 1300T1294 1346T1228
1381T1120 1402T960 1409Q832 1409 745 1400T600 1371T512 1316T467 1231T451 1114T448 958V800H1280V640H448V160H1472V0H256V640H64V800Z" />
<glyph unicode="&#xa4;" glyph-name="currency" horiz-adv-x="1280" d="M640 928Q553 928 479 909T346 848L196 977L112 880L256 756Q225 708 209 648T192 512Q192 436 208 376T256 268L112 144L196 47L346 176Q404 134 478 115T640 96Q726 96 800 115T933 175L1084
47L1168 144L1023 268Q1054 316 1071 376T1088 512Q1088 587 1072 647T1023 756L1168 880L1084 977L934 848Q875 889 801 908T640 928ZM640 256Q586 256 539 269T458 312T404 391T384 512Q384 584 403 633T457 712T539 755T640 768Q694 768 740 755T821 712T876
633T896 512Q896 440 876 391T822 312T741 269T640 256Z" />
<glyph unicode="&#xa5;" glyph-name="yen" horiz-adv-x="2048" d="M416 416H928V640H416V800H773L64 1536H320L1024 768L1728 1536H1984L1274 800H1632V640H1120V416H1632V256H1120V0H928V256H416V416Z" />
<glyph unicode="&#xa6;" glyph-name="brokenbar" horiz-adv-x="448" d="M128 896H320V1600H128V896ZM128 -128H320V576H128V-128Z" />
<glyph unicode="&#xa7;" glyph-name="section" horiz-adv-x="1504" d="M704 480Q816 480 895 477T1027 466T1112 446T1159 416T1179 375T1184 320Q1184 287 1180 261T1158 213T1108 175T1018 149T877 133T672 128Q570 128 503 135T396 164T340 222T324 320H132Q132
224 159 157T250 48T416 -13T672 -32Q816 -32 924 -24T1111 2T1240 48T1322 116T1364 207T1376 324Q1376 404 1357 459T1286 551Q1329 611 1351 662T1374 757Q1374 807 1341 845T1237 908T1059 947T800 960Q688 960 609 963T477 974T393 994T346 1024T326 1065T321
1120Q321 1152 325 1179T347 1227T397 1265T487 1291T628 1307T833 1312Q935 1312 1002 1305T1109 1276T1165 1218T1181 1120H1373Q1373 1216 1346 1283T1255 1392T1089 1453T833 1472Q689 1472 581 1464T394 1438T265 1392T183 1324T141 1233T129 1116Q129 1035
149 980T220 887Q177 835 153 788T128 699Q128 666 135 637T164 583T225 540T329 507T485 487T704 480ZM704 640Q584 640 509 644T393 658T336 686T321 733Q321 752 330 776T352 832Q426 815 536 808T801 800Q907 800 980 796T1100 782T1166 754T1186 708Q1186
688 1178 664T1153 607Q1076 625 966 632T704 640Z" />
<glyph unicode="&#xa8;" glyph-name="dieresis" horiz-adv-x="1088" d="M256 1536H64V1344H256V1536ZM1024 1536H832V1344H1024V1536Z" />
<glyph unicode="&#xa9;" glyph-name="copyright" horiz-adv-x="1920" d="M960 1664Q784 1664 654 1643T432 1578T280 1468T187 1313T141 1112T128 864Q128 728 140 616T187 415T280 260T431 151T654 86T960 64Q1136 64 1266 85T1488 150T1640 260T1733 415T1779
616T1792 864Q1792 1000 1780 1112T1733 1313T1640 1468T1489 1577T1266 1642T960 1664ZM960 224Q832 224 735 231T567 262T448 328T373 442T332 616T320 864Q320 1008 332 1111T372 1286T448 1400T566 1466T735 1496T960 1504Q1088 1504 1185 1497T1353 1466T1472
1400T1547 1286T1588 1112T1600 864Q1600 720 1588 617T1548 442T1472 328T1354 262T1185 232T960 224ZM448 893Q448 752 469 659T546 511T702 433T959 410Q1111 410 1210 430T1367 493T1449 602T1472 759H1312Q1312 725 1310 697T1298 644T1266 602T1205 570T1105
551T959 544Q872 544 813 551T714 574T654 618T623 683T612 774T610 893Q610 960 611 1012T623 1102T654 1167T714 1210T812 1234T959 1241Q1045 1241 1105 1235T1204 1216T1265 1185T1297 1142T1310 1089T1312 1027H1472Q1472 1117 1449 1183T1368 1291T1210 1354T959
1375Q802 1375 703 1353T547 1275T469 1127T448 893Z" />
<glyph unicode="&#xaa;" glyph-name="ordfeminine" horiz-adv-x="1600" d="M1280 158Q1277 146 1235 98Q1205 62 1155 35T1022 -8T802 -24Q621 -24 493 -6T284 51T166 150T128 293Q128 380 148 440T208 542T304 606T431 641T588 656T769 659Q906 659 998 648T1148
619T1237 581T1280 544Q1280 656 1271 735T1240 867T1184 951T1101 999T985 1019T834 1024Q702 1024 615 1018T477 992T405 940T384 852H192Q192 943 224 1006T332 1108T531 1166T834 1184Q1010 1184 1132 1155T1329 1053T1438 857T1472 544V0H1280V158ZM834 128Q961
128 1046 140T1184 176T1258 236T1280 320Q1280 368 1255 401T1170 456T1012 486T770 496Q626 496 538 491T401 468T337 415T320 320Q320 260 337 223T409 164T564 136T834 128Z" />
<glyph unicode="&#xab;" glyph-name="guillemotleft" horiz-adv-x="1344" d="M768 256L672 128L128 512V704L672 1088L768 960L256 608L768 256ZM1216 256L1120 128L576 512V704L1120 1088L1216 960L704 608L1216 256Z" />
<glyph unicode="&#xac;" glyph-name="logicalnot" horiz-adv-x="1216" d="M1088 640H896V928H128V1088H1088V640Z" />
<glyph unicode="&#xae;" glyph-name="registered" horiz-adv-x="1920" d="M1405 536Q1405 606 1397 662T1362 758T1288 824T1160 860Q1240 865 1288 889T1362 947T1396 1018T1404 1088Q1403 1158 1381 1212T1299 1302T1134 1357T860 1376H573V384H733V800H828Q923
800 991 796T1105 782T1178 753T1220 705T1239 634T1244 536V384H1405V536ZM733 1248H860Q980 1248 1055 1240T1172 1212T1229 1163T1244 1088Q1244 1042 1229 1012T1172 963T1055 936T860 928H733V1248ZM960 1664Q784 1664 654 1643T432 1578T280 1468T187 1313T141
1112T128 864Q128 728 140 616T187 415T280 260T431 151T654 86T960 64Q1136 64 1266 85T1488 150T1640 260T1733 415T1779 616T1792 864Q1792 1000 1780 1112T1733 1313T1640 1468T1489 1577T1266 1642T960 1664ZM960 224Q832 224 735 231T567 262T448 328T373
442T332 616T320 864Q320 1008 332 1111T372 1286T448 1400T566 1466T735 1496T960 1504Q1088 1504 1185 1497T1353 1466T1472 1400T1547 1286T1588 1112T1600 864Q1600 720 1588 617T1548 442T1472 328T1354 262T1185 232T960 224Z" />
<glyph unicode="&#xaf;" glyph-name="overscore" horiz-adv-x="1024" d="M128 1344H896V1504H128V1344Z" />
<glyph unicode="&#xb0;" glyph-name="degree" horiz-adv-x="1280" d="M640 928Q544 928 462 904T320 828T226 699T192 512Q192 404 226 326T320 196T462 121T640 96Q736 96 818 120T960 196T1054 325T1088 512Q1088 620 1054 698T960 828T818 903T640 928ZM640
256Q586 256 539 269T458 312T404 391T384 512Q384 584 403 633T457 712T539 755T640 768Q694 768 740 755T821 712T876 633T896 512Q896 440 876 391T822 312T741 269T640 256Z" />
<glyph unicode="&#xb1;" glyph-name="plusminus" horiz-adv-x="1344" d="M128 960H576V1408H768V960H1216V800H768V320H576V800H128V960Z" />
<glyph unicode="&#xb2;" glyph-name="twosuperior" horiz-adv-x="1344" d="M128 448H1186V608H320Q320 648 321 676T332 723T360 757T415 782T505 805T640 833L898 884Q991 902 1052 931T1150 1004T1201 1106T1216 1243Q1216 1359 1183 1424T1082 1522T912 1561T673
1568Q584 1568 509 1566T373 1555T267 1527T190 1472T144 1382T128 1248H320Q320 1281 321 1306T331 1349T360 1378T419 1396T520 1405T673 1408Q775 1408 842 1405T950 1385T1007 1336T1024 1242Q1024 1182 1012 1146T975 1088T916 1055T834 1035L448 962Q338
941 275 913T179 849T137 769T128 672V448Z" />
<glyph unicode="&#xb3;" glyph-name="threesuperior" horiz-adv-x="1471" d="M768 1056V896H959Q975 896 995 896T1037 895T1078 884T1115 857T1140 809T1150 734Q1150 674 1133 642T1074 595T957 578T769 576Q658 576 582 577T455 581T378 593T338 615T323 651T320
703H128Q128 625 146 573T201 490T292 443T418 421T577 415T769 416Q917 416 1025 423T1203 460T1308 555T1343 733Q1343 794 1334 833T1305 899T1255 942T1183 976Q1225 989 1255 1007T1304 1054T1333 1122T1343 1218Q1343 1299 1328 1354T1282 1445T1204 1499T1093
1526T948 1535T769 1536Q665 1536 577 1537T418 1532T293 1509T202 1456T147 1363T128 1218H320Q320 1256 322 1283T338 1327T378 1355T455 1369T581 1375T769 1376Q883 1376 957 1377T1073 1365T1133 1319T1150 1217Q1150 1167 1138 1136T1103 1087T1043 1063T959
1056H768Z" />
<glyph unicode="&#xb4;" glyph-name="acute" horiz-adv-x="960" d="M832 1664L704 1856L128 1376L192 1280L832 1664Z" />
<glyph unicode="&#xb5;" glyph-name="mu" horiz-adv-x="1601" d="M129 -384Q129 -226 129 -104T129 117T128 293T128 442T128 580T128 722T129 886T129 1088H321V512Q321 405 337 332T401 213T537 148T769 128Q925 128 1024 151T1181 216T1259 317T1281 448V1088H1473V0H1281V191Q1280
189 1272 172T1241 129T1179 76T1076 24T921 -16T705 -32Q573 -32 480 -16T321 33V-384H129Z" />
<glyph unicode="&#xb6;" glyph-name="paragraph" horiz-adv-x="1984" d="M1088 1376H1472V0H1664V1376H1856V1536H833Q673 1536 559 1524T366 1486T240 1424T168 1337T136 1225T128 1088Q128 1010 135 944T168 825T240 731T365 663T558 622T833 608H896V0H1088V1376Z" />
<glyph unicode="&#xb7;" glyph-name="middot" horiz-adv-x="448" d="M320 896H128V704H320V896Z" />
<glyph unicode="&#xb8;" glyph-name="cedilla" horiz-adv-x="640" d="M128 -384Q176 -384 212 -383T272 -372T308 -344T320 -288Q320 -276 317 -265T296 -244T239 -230T128 -224V64H256V-128Q304 -128 350 -135T432 -160T490 -209T512 -288Q512 -372 479 -422T392
-500T269 -535T128 -544V-384Z" />
<glyph unicode="&#xb9;" glyph-name="onesuperior" horiz-adv-x="896" d="M64 1120L160 992L576 1376V448H768V1536H512L64 1120Z" />
<glyph unicode="&#xba;" glyph-name="ordmasculine" horiz-adv-x="1664" d="M128 961Q128 1129 166 1240T288 1417T506 1510T832 1537Q1024 1537 1158 1510T1376 1417T1498 1240T1536 961Q1536 793 1498 682T1376 505T1158 412T832 385Q640 385 506 412T288 505T166
682T128 961ZM320 961Q320 873 327 808T353 697T408 621T500 575T638 552T832 545Q976 545 1074 556T1232 609T1318 734T1344 961Q1344 1105 1318 1188T1232 1313T1074 1366T832 1377Q688 1377 590 1366T432 1313T346 1188T320 961Z" />
<glyph unicode="&#xbb;" glyph-name="guillemotright" horiz-adv-x="1344" d="M640 608L128 960L224 1088L768 704V512L224 128L128 256L640 608ZM1088 608L576 960L672 1088L1216 704V512L672 128L576 256L1088 608Z" />
<glyph unicode="&#xbc;" glyph-name="onequarter" horiz-adv-x="2848" d="M128 1120L224 992L640 1376V448H832V1536H576L128 1120ZM1600 1536H1792L1088 0H896L1600 1536ZM2720 192V352H2528V1088H2272L1504 384V192H2336V0H2528V192H2720ZM1696 352L2336 960V352H1696Z" />
<glyph unicode="&#xbd;" glyph-name="onehalf" horiz-adv-x="2880" d="M128 1120L224 992L640 1376V448H832V1536H576L128 1120ZM1569 1536H1761L1057 0H865L1569 1536ZM1664 4H2722V164H1856Q1856 204 1857 232T1868 279T1896 313T1951 338T2041 361T2176 389L2434
440Q2527 458 2588 487T2686 560T2737 662T2752 799Q2752 915 2719 980T2618 1078T2448 1117T2209 1124Q2120 1124 2045 1122T1909 1111T1803 1083T1726 1028T1680 938T1664 804H1856Q1856 837 1857 862T1867 905T1896 934T1955 952T2056 961T2209 964Q2311 964
2378 961T2486 941T2543 892T2560 798Q2560 738 2548 702T2511 644T2452 611T2370 591L1984 518Q1874 497 1811 469T1715 405T1673 325T1664 228V4Z" />
<glyph unicode="&#xbe;" glyph-name="threequarters" horiz-adv-x="3072" d="M768 1056V896H959Q975 896 995 896T1037 895T1078 884T1115 857T1140 809T1150 734Q1150 674 1133 642T1074 595T957 578T769 576Q658 576 582 577T455 581T378 593T338 615T323 651T320
703H128Q128 625 146 573T201 490T292 443T418 421T577 415T769 416Q917 416 1025 423T1203 460T1308 555T1343 733Q1343 794 1334 833T1305 899T1255 942T1183 976Q1225 989 1255 1007T1304 1054T1333 1122T1343 1218Q1343 1299 1328 1354T1282 1445T1204 1499T1093
1526T948 1535T769 1536Q665 1536 577 1537T418 1532T293 1509T202 1456T147 1363T128 1218H320Q320 1256 322 1283T338 1327T378 1355T455 1369T581 1375T769 1376Q883 1376 957 1377T1073 1365T1133 1319T1150 1217Q1150 1167 1138 1136T1103 1087T1043 1063T959
1056H768ZM1920 1536H2112L1408 0H1216L1920 1536ZM2944 192V352H2752V1088H2496L1728 384V192H2560V0H2752V192H2944ZM1920 352L2560 960V352H1920Z" />
<glyph unicode="&#xbf;" glyph-name="questiondown" horiz-adv-x="1856" d="M704 321V387Q704 447 706 508T723 626T768 732T856 817T1000 875T1216 896Q1288 896 1347 904T1447 938T1512 1015T1535 1152Q1535 1246 1509 1298T1424 1374T1266 1403T1024 1408Q848
1408 728 1404T529 1388T408 1356T347 1304T324 1228T320 1122H128Q128 1234 154 1310T232 1435T360 1512T535 1551T757 1566T1024 1568Q1136 1568 1232 1564T1406 1546T1544 1505T1645 1432T1707 1318T1728 1153Q1728 1064 1703 988T1624 855T1485 768T1280 736Q1184
736 1118 728T1010 700T944 649T911 571T898 463T896 321H704ZM896 0H704V192H896V0Z" />
<glyph unicode="&#xc0;" glyph-name="Agrave" horiz-adv-x="2304" d="M1760 352H544L352 0H128L1024 1536H1280L2176 0H1952L1760 352ZM1664 512L1152 1408L640 512H1664ZM800 2112L928 2304L1504 1824L1440 1728L800 2112Z" />
<glyph unicode="&#xc1;" glyph-name="Aacute" horiz-adv-x="2304" d="M1760 352H544L352 0H128L1024 1536H1280L2176 0H1952L1760 352ZM1664 512L1152 1408L640 512H1664ZM1504 2112L1376 2304L800 1824L864 1728L1504 2112Z" />
<glyph unicode="&#xc2;" glyph-name="Acircumflex" horiz-adv-x="2304" d="M1760 352H544L352 0H128L1024 1536H1280L2176 0H1952L1760 352ZM1664 512L1152 1408L640 512H1664ZM1440 1728L1568 1824L1248 2304H1056L736 1824L864 1728L1152 2176L1440 1728Z" />
<glyph unicode="&#xc3;" glyph-name="Atilde" horiz-adv-x="2304" d="M1760 352H544L352 0H128L1024 1536H1280L2176 0H1952L1760 352ZM1664 512L1152 1408L640 512H1664ZM960 1888Q1005 1888 1043 1873T1125 1840T1220 1807T1344 1792Q1380 1792 1424 1804T1508
1846T1573 1925T1600 2048H1408Q1408 2018 1404 1999T1392 1970T1372 1956T1344 1952Q1299 1952 1261 1967T1179 2000T1084 2034T960 2049Q924 2049 880 2038T796 1997T731 1918T704 1792H896Q896 1823 900 1842T912 1871T932 1884T960 1888Z" />
<glyph unicode="&#xc4;" glyph-name="Adieresis" horiz-adv-x="2304" d="M1760 352H544L352 0H128L1024 1536H1280L2176 0H1952L1760 352ZM1664 512L1152 1408L640 512H1664ZM864 1984H672V1792H864V1984ZM1632 1984H1440V1792H1632V1984Z" />
<glyph unicode="&#xc5;" glyph-name="Aring" horiz-adv-x="2304" d="M1760 352H544L352 0H128L1024 1536H1280L2176 0H1952L1760 352ZM1664 512L1152 1408L640 512H1664ZM1152 2368Q1056 2368 989 2341T880 2268T819 2166T800 2048Q800 1988 819 1931T880 1828T989
1756T1152 1728Q1248 1728 1315 1755T1424 1828T1485 1930T1504 2048Q1504 2108 1485 2165T1424 2268T1315 2340T1152 2368ZM1152 1856Q1092 1856 1055 1872T996 1916T968 1977T960 2048Q960 2084 967 2118T996 2180T1054 2223T1152 2240Q1212 2240 1249 2224T1308
2180T1336 2119T1344 2048Q1344 2012 1337 1978T1308 1916T1250 1873T1152 1856Z" />
<glyph unicode="&#xc6;" glyph-name="AE" horiz-adv-x="3072" d="M1472 0V352H582L256 0H0L1408 1536H2944V1376H1664V864H2880V704H1664V160H2944V0H1472ZM1472 512V1376L704 512H1472Z" />
<glyph unicode="&#xc7;" glyph-name="Ccedilla" horiz-adv-x="2111" d="M959 -384Q1007 -384 1043 -383T1103 -372T1139 -344T1151 -288Q1151 -276 1148 -265T1127 -244T1070 -230T959 -224V-32H831Q655 -32 535 -11T336 54T216 164T154 319T131 520T128 768Q128
904 131 1016T153 1217T215 1372T336 1481T534 1546T831 1568H1280Q1424 1568 1532 1555T1718 1514T1847 1444T1928 1345T1971 1216T1983 1056H1791Q1791 1176 1765 1246T1679 1352T1522 1398T1280 1408H831Q703 1408 616 1401T471 1370T383 1304T338 1190T322
1016T320 768Q320 624 322 521T339 346T383 232T471 166T615 136T831 128H1280Q1392 128 1473 134T1611 156T1703 200T1757 270T1784 372T1791 512H1983Q1983 416 1971 339T1929 201T1847 96T1718 24T1532 -18T1280 -32H1087V-128Q1135 -128 1181 -135T1263 -160T1321
-209T1343 -288Q1343 -372 1310 -422T1223 -500T1100 -535T959 -544V-384Z" />
<glyph unicode="&#xc8;" glyph-name="Egrave" horiz-adv-x="1792" d="M192 0V1536H1728V1376H384V864H1664V704H384V160H1728V0H192ZM608 2112L736 2304L1312 1824L1248 1728L608 2112Z" />
<glyph unicode="&#xc9;" glyph-name="Eacute" horiz-adv-x="1792" d="M192 0V1536H1728V1376H384V864H1664V704H384V160H1728V0H192ZM1312 2112L1184 2304L608 1824L672 1728L1312 2112Z" />
<glyph unicode="&#xca;" glyph-name="Ecircumflex" horiz-adv-x="1792" d="M192 0V1536H1728V1376H384V864H1664V704H384V160H1728V0H192ZM1248 1728L1376 1824L1056 2304H864L544 1824L672 1728L960 2176L1248 1728Z" />
<glyph unicode="&#xcb;" glyph-name="Edieresis" horiz-adv-x="1792" d="M192 0V1536H1728V1376H384V864H1664V704H384V160H1728V0H192ZM672 1984H480V1792H672V1984ZM1440 1984H1248V1792H1440V1984Z" />
<glyph unicode="&#xcc;" glyph-name="Igrave" horiz-adv-x="448" d="M385 1536H577V0H385V1536ZM-125 2112L3 2304L579 1824L515 1728L-125 2112Z" />
<glyph unicode="&#xcd;" glyph-name="Iacute" horiz-adv-x="448" d="M385 1536H577V0H385V1536ZM579 2112L451 2304L-125 1824L-61 1728L579 2112Z" />
<glyph unicode="&#xce;" glyph-name="Icircumflex" horiz-adv-x="448" d="M385 1536H577V0H385V1536ZM515 1728L643 1824L323 2304H131L-189 1824L-61 1728L227 2176L515 1728Z" />
<glyph unicode="&#xcf;" glyph-name="Idieresis" horiz-adv-x="448" d="M385 1536H577V0H385V1536ZM-61 1984H-253V1792H-61V1984ZM707 1984H515V1792H707V1984Z" />
<glyph unicode="&#xd0;" glyph-name="Eth" horiz-adv-x="2112" d="M0 704H128V0H1279Q1455 0 1575 20T1774 83T1895 188T1957 336T1980 529T1984 768Q1984 899 1981 1006T1958 1199T1896 1348T1775 1453T1576 1515T1279 1536H128V864H0V704ZM320 160V704H768V864H320V1376H1279Q1407
1376 1494 1369T1639 1341T1727 1278T1772 1170T1789 1004T1792 768Q1792 631 1790 533T1773 367T1727 258T1639 196T1494 167T1279 160H320Z" />
<glyph unicode="&#xd1;" glyph-name="Ntilde" horiz-adv-x="2193" d="M577 0H385V1536H722L2130 192V1536H2322V0H2066L577 1376V0ZM904 1888Q949 1888 987 1873T1069 1840T1164 1807T1288 1792Q1324 1792 1368 1804T1452 1846T1517 1925T1544 2048H1352Q1352
2018 1348 1999T1336 1970T1316 1956T1288 1952Q1243 1952 1205 1967T1123 2000T1028 2034T904 2049Q868 2049 824 2038T740 1997T675 1918T648 1792H840Q840 1823 844 1842T856 1871T876 1884T904 1888Z" />
<glyph unicode="&#xd2;" glyph-name="Ograve" horiz-adv-x="2240" d="M1409 1568Q1585 1568 1705 1547T1904 1482T2024 1372T2085 1217T2108 1016T2112 768Q2112 632 2109 520T2086 319T2024 164T1904 55T1706 -10T1409 -32H831Q655 -32 535 -11T336 54T216 164T154
319T131 520T128 768Q128 904 131 1016T153 1217T215 1372T336 1481T534 1546T831 1568H1409ZM1409 128Q1536 128 1623 135T1768 166T1856 232T1901 346T1917 520T1920 768Q1920 912 1918 1015T1901 1190T1856 1304T1769 1370T1625 1400T1409 1408H831Q703 1408
616 1401T471 1370T383 1304T338 1190T322 1016T320 768Q320 624 322 521T339 346T383 232T471 166T615 136T831 128H1409ZM767 2112L895 2304L1471 1824L1407 1728L767 2112Z" />
<glyph unicode="&#xd3;" glyph-name="Oacute" horiz-adv-x="2240" d="M1409 1568Q1585 1568 1705 1547T1904 1482T2024 1372T2085 1217T2108 1016T2112 768Q2112 632 2109 520T2086 319T2024 164T1904 55T1706 -10T1409 -32H831Q655 -32 535 -11T336 54T216 164T154
319T131 520T128 768Q128 904 131 1016T153 1217T215 1372T336 1481T534 1546T831 1568H1409ZM1409 128Q1536 128 1623 135T1768 166T1856 232T1901 346T1917 520T1920 768Q1920 912 1918 1015T1901 1190T1856 1304T1769 1370T1625 1400T1409 1408H831Q703 1408
616 1401T471 1370T383 1304T338 1190T322 1016T320 768Q320 624 322 521T339 346T383 232T471 166T615 136T831 128H1409ZM1471 2112L1343 2304L767 1824L831 1728L1471 2112Z" />
<glyph unicode="&#xd4;" glyph-name="Ocircumflex" horiz-adv-x="2240" d="M1409 1568Q1585 1568 1705 1547T1904 1482T2024 1372T2085 1217T2108 1016T2112 768Q2112 632 2109 520T2086 319T2024 164T1904 55T1706 -10T1409 -32H831Q655 -32 535 -11T336 54T216
164T154 319T131 520T128 768Q128 904 131 1016T153 1217T215 1372T336 1481T534 1546T831 1568H1409ZM1409 128Q1536 128 1623 135T1768 166T1856 232T1901 346T1917 520T1920 768Q1920 912 1918 1015T1901 1190T1856 1304T1769 1370T1625 1400T1409 1408H831Q703
1408 616 1401T471 1370T383 1304T338 1190T322 1016T320 768Q320 624 322 521T339 346T383 232T471 166T615 136T831 128H1409ZM1407 1728L1535 1824L1215 2304H1023L703 1824L831 1728L1119 2176L1407 1728Z" />
<glyph unicode="&#xd5;" glyph-name="Otilde" horiz-adv-x="2240" d="M1409 1568Q1585 1568 1705 1547T1904 1482T2024 1372T2085 1217T2108 1016T2112 768Q2112 632 2109 520T2086 319T2024 164T1904 55T1706 -10T1409 -32H831Q655 -32 535 -11T336 54T216 164T154
319T131 520T128 768Q128 904 131 1016T153 1217T215 1372T336 1481T534 1546T831 1568H1409ZM1409 128Q1536 128 1623 135T1768 166T1856 232T1901 346T1917 520T1920 768Q1920 912 1918 1015T1901 1190T1856 1304T1769 1370T1625 1400T1409 1408H831Q703 1408
616 1401T471 1370T383 1304T338 1190T322 1016T320 768Q320 624 322 521T339 346T383 232T471 166T615 136T831 128H1409ZM927 1888Q972 1888 1010 1873T1092 1840T1187 1807T1311 1792Q1347 1792 1391 1804T1475 1846T1540 1925T1567 2048H1375Q1375 2018 1371
1999T1359 1970T1339 1956T1311 1952Q1266 1952 1228 1967T1146 2000T1051 2034T927 2049Q891 2049 847 2038T763 1997T698 1918T671 1792H863Q863 1823 867 1842T879 1871T899 1884T927 1888Z" />
<glyph unicode="&#xd6;" glyph-name="Odieresis" horiz-adv-x="2240" d="M1409 1568Q1585 1568 1705 1547T1904 1482T2024 1372T2085 1217T2108 1016T2112 768Q2112 632 2109 520T2086 319T2024 164T1904 55T1706 -10T1409 -32H831Q655 -32 535 -11T336 54T216
164T154 319T131 520T128 768Q128 904 131 1016T153 1217T215 1372T336 1481T534 1546T831 1568H1409ZM1409 128Q1536 128 1623 135T1768 166T1856 232T1901 346T1917 520T1920 768Q1920 912 1918 1015T1901 1190T1856 1304T1769 1370T1625 1400T1409 1408H831Q703
1408 616 1401T471 1370T383 1304T338 1190T322 1016T320 768Q320 624 322 521T339 346T383 232T471 166T615 136T831 128H1409ZM831 1984H639V1792H831V1984ZM1599 1984H1407V1792H1599V1984Z" />
<glyph unicode="&#xd7;" glyph-name="multiply" horiz-adv-x="1344" d="M1125 1181L989 1317L672 1000L355 1317L219 1181L536 864L219 547L355 411L672 728L989 411L1125 547L808 864L1125 1181Z" />
<glyph unicode="&#xd8;" glyph-name="Oslash" horiz-adv-x="2241" d="M1410 1568H1414L1504 1792L1664 1728L1596 1561Q1656 1555 1706 1546Q1827 1525 1905 1482T2025 1372T2086 1217T2109 1016T2113 768Q2113 632 2110 520T2087 319T2025 164T1905 55T1707 -10T1410
-32H954L864 -256L704 -192L769 -31Q634 -28 535 -10Q415 11 337 54T217 164T155 319T132 520T129 768Q129 904 132 1016T154 1217T216 1372T337 1481T535 1546T832 1568H1410ZM616 1400Q529 1393 472 1370T384 1304T339 1190T323 1016T321 768Q321 624 323 521T340
346T384 232T472 166T616 136T832 128H833L1349 1408H832Q704 1408 616 1400ZM1410 128Q1537 128 1624 135T1769 166T1857 232T1902 346T1918 520T1921 768Q1921 912 1919 1015T1902 1190T1857 1304T1770 1370T1625 1400Q1584 1404 1534 1406L1019 128H1410Z" />
<glyph unicode="&#xd9;" glyph-name="Ugrave" horiz-adv-x="2113" d="M1985 1536V768Q1985 632 1982 520T1959 319T1897 164T1777 55T1579 -10T1282 -32H832Q656 -32 536 -11T337 54T217 164T155 319T132 520T129 768V1536H321V768Q321 624 323 521T340 346T384
232T472 166T616 136T832 128H1282Q1409 128 1497 135T1641 166T1729 232T1774 346T1791 520T1793 768L1792 1536H1985ZM704 2112L832 2304L1408 1824L1344 1728L704 2112Z" />
<glyph unicode="&#xda;" glyph-name="Uacute" horiz-adv-x="2113" d="M1985 1536V768Q1985 632 1982 520T1959 319T1897 164T1777 55T1579 -10T1282 -32H832Q656 -32 536 -11T337 54T217 164T155 319T132 520T129 768V1536H321V768Q321 624 323 521T340 346T384
232T472 166T616 136T832 128H1282Q1409 128 1497 135T1641 166T1729 232T1774 346T1791 520T1793 768L1792 1536H1985ZM1408 2112L1280 2304L704 1824L768 1728L1408 2112Z" />
<glyph unicode="&#xdb;" glyph-name="Ucircumflex" horiz-adv-x="2113" d="M1985 1536V768Q1985 632 1982 520T1959 319T1897 164T1777 55T1579 -10T1282 -32H832Q656 -32 536 -11T337 54T217 164T155 319T132 520T129 768V1536H321V768Q321 624 323 521T340 346T384
232T472 166T616 136T832 128H1282Q1409 128 1497 135T1641 166T1729 232T1774 346T1791 520T1793 768L1792 1536H1985ZM1344 1728L1472 1824L1152 2304H960L640 1824L768 1728L1056 2176L1344 1728Z" />
<glyph unicode="&#xdc;" glyph-name="Udieresis" horiz-adv-x="2113" d="M1985 1536V768Q1985 632 1982 520T1959 319T1897 164T1777 55T1579 -10T1282 -32H832Q656 -32 536 -11T337 54T217 164T155 319T132 520T129 768V1536H321V768Q321 624 323 521T340 346T384
232T472 166T616 136T832 128H1282Q1409 128 1497 135T1641 166T1729 232T1774 346T1791 520T1793 768L1792 1536H1985ZM768 1984H576V1792H768V1984ZM1536 1984H1344V1792H1536V1984Z" />
<glyph unicode="&#xdd;" glyph-name="Yacute" horiz-adv-x="2176" d="M128 1536H384L1088 784L1792 1536H2048L1184 640V0H992V640L128 1536ZM1452 2112L1324 2304L748 1824L812 1728L1452 2112Z" />
<glyph unicode="&#xde;" glyph-name="Thorn" horiz-adv-x="1920" d="M128 0H320V416H1151Q1327 416 1447 430T1646 471T1767 538T1829 632T1852 752T1856 896Q1856 971 1854 1033T1835 1145T1785 1232T1686 1294T1524 1331T1282 1344H320V1536H128V0ZM320 1184H1151Q1279
1184 1366 1181T1511 1168T1599 1138T1644 1087T1661 1008T1664 896Q1664 826 1662 776T1645 689T1599 631T1511 597T1367 581T1151 576H320V1184Z" />
<glyph unicode="&#xdf;" glyph-name="germandbls" horiz-adv-x="2048" d="M769 1536Q625 1536 522 1523T347 1484T232 1417T166 1324T136 1205T128 1058V-128H320V1058Q320 1129 327 1180T353 1267T408 1324T500 1357T639 1372T833 1376H1216Q1312 1376 1384 1369T1504
1340T1576 1278T1600 1174Q1600 1085 1586 1031T1531 946T1414 906T1215 896H512V736H1215Q1327 736 1409 733T1548 719T1640 692T1694 646T1721 576T1728 478Q1728 406 1721 355T1695 269T1640 212T1548 179T1409 164T1215 160H512V0H1279Q1423 0 1526 13T1701
52T1816 119T1882 212T1912 331T1920 478Q1920 544 1906 594T1870 682T1819 745T1760 788Q1690 827 1600 832Q1654 837 1696 875Q1714 891 1731 915T1761 976T1783 1061T1792 1174Q1792 1262 1766 1330T1680 1443T1522 1512T1280 1536H769Z" />
<glyph unicode="&#xe0;" glyph-name="agrave" horiz-adv-x="1600" d="M1280 158Q1277 146 1235 98Q1205 62 1155 35T1022 -8T802 -24Q621 -24 493 -6T284 51T166 150T128 293Q128 380 148 440T208 542T304 606T431 641T588 656T769 659Q906 659 998 648T1148 619T1237
581T1280 544Q1280 656 1271 735T1240 867T1184 951T1101 999T985 1019T834 1024Q702 1024 615 1018T477 992T405 940T384 852H192Q192 943 224 1006T332 1108T531 1166T834 1184Q1010 1184 1132 1155T1329 1053T1438 857T1472 544V0H1280V158ZM834 128Q961 128
1046 140T1184 176T1258 236T1280 320Q1280 368 1255 401T1170 456T1012 486T770 496Q626 496 538 491T401 468T337 415T320 320Q320 260 337 223T409 164T564 136T834 128ZM448 1664L576 1856L1152 1376L1088 1280L448 1664Z" />
<glyph unicode="&#xe1;" glyph-name="aacute" horiz-adv-x="1600" d="M1280 158Q1277 146 1235 98Q1205 62 1155 35T1022 -8T802 -24Q621 -24 493 -6T284 51T166 150T128 293Q128 380 148 440T208 542T304 606T431 641T588 656T769 659Q906 659 998 648T1148 619T1237
581T1280 544Q1280 656 1271 735T1240 867T1184 951T1101 999T985 1019T834 1024Q702 1024 615 1018T477 992T405 940T384 852H192Q192 943 224 1006T332 1108T531 1166T834 1184Q1010 1184 1132 1155T1329 1053T1438 857T1472 544V0H1280V158ZM834 128Q961 128
1046 140T1184 176T1258 236T1280 320Q1280 368 1255 401T1170 456T1012 486T770 496Q626 496 538 491T401 468T337 415T320 320Q320 260 337 223T409 164T564 136T834 128ZM1152 1664L1024 1856L448 1376L512 1280L1152 1664Z" />
<glyph unicode="&#xe2;" glyph-name="acircumflex" horiz-adv-x="1600" d="M1280 158Q1277 146 1235 98Q1205 62 1155 35T1022 -8T802 -24Q621 -24 493 -6T284 51T166 150T128 293Q128 380 148 440T208 542T304 606T431 641T588 656T769 659Q906 659 998 648T1148
619T1237 581T1280 544Q1280 656 1271 735T1240 867T1184 951T1101 999T985 1019T834 1024Q702 1024 615 1018T477 992T405 940T384 852H192Q192 943 224 1006T332 1108T531 1166T834 1184Q1010 1184 1132 1155T1329 1053T1438 857T1472 544V0H1280V158ZM834 128Q961
128 1046 140T1184 176T1258 236T1280 320Q1280 368 1255 401T1170 456T1012 486T770 496Q626 496 538 491T401 468T337 415T320 320Q320 260 337 223T409 164T564 136T834 128ZM1088 1280L1216 1376L896 1856H704L384 1376L512 1280L800 1728L1088 1280Z" />
<glyph unicode="&#xe3;" glyph-name="atilde" horiz-adv-x="1600" d="M1280 158Q1277 146 1235 98Q1205 62 1155 35T1022 -8T802 -24Q621 -24 493 -6T284 51T166 150T128 293Q128 380 148 440T208 542T304 606T431 641T588 656T769 659Q906 659 998 648T1148 619T1237
581T1280 544Q1280 656 1271 735T1240 867T1184 951T1101 999T985 1019T834 1024Q702 1024 615 1018T477 992T405 940T384 852H192Q192 943 224 1006T332 1108T531 1166T834 1184Q1010 1184 1132 1155T1329 1053T1438 857T1472 544V0H1280V158ZM834 128Q961 128
1046 140T1184 176T1258 236T1280 320Q1280 368 1255 401T1170 456T1012 486T770 496Q626 496 538 491T401 468T337 415T320 320Q320 260 337 223T409 164T564 136T834 128ZM608 1440Q653 1440 691 1425T773 1392T868 1359T992 1344Q1028 1344 1072 1356T1156 1398T1221
1477T1248 1600H1056Q1056 1570 1052 1551T1040 1522T1020 1508T992 1504Q947 1504 909 1519T827 1552T732 1586T608 1601Q572 1601 528 1590T444 1549T379 1470T352 1344H544Q544 1375 548 1394T560 1423T580 1436T608 1440Z" />
<glyph unicode="&#xe4;" glyph-name="adieresis" horiz-adv-x="1600" d="M1280 158Q1277 146 1235 98Q1205 62 1155 35T1022 -8T802 -24Q621 -24 493 -6T284 51T166 150T128 293Q128 380 148 440T208 542T304 606T431 641T588 656T769 659Q906 659 998 648T1148
619T1237 581T1280 544Q1280 656 1271 735T1240 867T1184 951T1101 999T985 1019T834 1024Q702 1024 615 1018T477 992T405 940T384 852H192Q192 943 224 1006T332 1108T531 1166T834 1184Q1010 1184 1132 1155T1329 1053T1438 857T1472 544V0H1280V158ZM834 128Q961
128 1046 140T1184 176T1258 236T1280 320Q1280 368 1255 401T1170 456T1012 486T770 496Q626 496 538 491T401 468T337 415T320 320Q320 260 337 223T409 164T564 136T834 128ZM512 1536H320V1344H512V1536ZM1280 1536H1088V1344H1280V1536Z" />
<glyph unicode="&#xe5;" glyph-name="aring" horiz-adv-x="1600" d="M1280 158Q1277 146 1235 98Q1205 62 1155 35T1022 -8T802 -24Q621 -24 493 -6T284 51T166 150T128 293Q128 380 148 440T208 542T304 606T431 641T588 656T769 659Q906 659 998 648T1148 619T1237
581T1280 544Q1280 656 1271 735T1240 867T1184 951T1101 999T985 1019T834 1024Q702 1024 615 1018T477 992T405 940T384 852H192Q192 943 224 1006T332 1108T531 1166T834 1184Q1010 1184 1132 1155T1329 1053T1438 857T1472 544V0H1280V158ZM834 128Q961 128
1046 140T1184 176T1258 236T1280 320Q1280 368 1255 401T1170 456T1012 486T770 496Q626 496 538 491T401 468T337 415T320 320Q320 260 337 223T409 164T564 136T834 128ZM800 1920Q704 1920 637 1893T528 1820T467 1718T448 1600Q448 1540 467 1483T528 1380T637
1308T800 1280Q896 1280 963 1307T1072 1380T1133 1482T1152 1600Q1152 1660 1133 1717T1072 1820T963 1892T800 1920ZM800 1408Q740 1408 703 1424T644 1468T616 1529T608 1600Q608 1636 615 1670T644 1732T702 1775T800 1792Q860 1792 897 1776T956 1732T984
1671T992 1600Q992 1564 985 1530T956 1468T898 1425T800 1408Z" />
<glyph unicode="&#xe6;" glyph-name="ae" horiz-adv-x="2752" d="M1984 -32Q1869 -32 1776 -23T1608 7T1477 61T1382 145Q1354 108 1309 78Q1277 57 1232 37T1126 0T984 -26T802 -36Q621 -36 493 -17T284 42T166 145T128 293Q128 380 148 440T208 542T304 606T431
641T588 656T769 659Q853 659 919 654T1038 641T1128 623T1193 601Q1256 575 1280 544Q1280 640 1271 708T1240 822T1184 896T1101 937T985 956T834 960Q702 960 615 953T477 924T405 866T384 768H192Q192 864 224 931T332 1040T531 1101T834 1120Q939 1120 1023
1112T1175 1080T1293 1012T1382 896Q1416 968 1471 1012T1602 1080T1773 1112T1984 1120Q2121 1120 2221 1102T2393 1049T2509 966T2579 857T2614 726T2624 576L2608 512H1472V486Q1474 363 1501 292T1589 184T1746 138T1984 128Q2116 128 2202 135T2340 164T2411
222T2432 320H2624Q2624 224 2592 157T2484 48T2287 -13T1984 -32ZM834 128Q961 128 1046 140T1184 176T1258 236T1280 320Q1280 368 1255 401T1170 456T1012 486T770 496Q626 496 538 491T401 468T337 415T320 320Q320 260 337 223T409 164T564 136T834 128ZM1984
960Q1840 960 1742 951T1584 908T1498 812T1472 640H2432Q2432 736 2407 798T2328 896T2189 946T1984 960Z" />
<glyph unicode="&#xe7;" glyph-name="ccedilla" horiz-adv-x="1601" d="M704 -544Q776 -544 845 -536T968 -500T1055 -423T1088 -288Q1088 -240 1066 -209T1008 -160T926 -135T832 -128V-32H833Q1025 -32 1149 -8T1345 68T1445 197T1473 384H1281Q1281 344 1279
310T1265 247T1225 196T1148 159T1022 136T833 128Q705 128 618 136T473 164T385 216T340 294T324 402T321 544Q321 624 323 686T340 794T385 872T473 923T617 951T833 960Q945 960 1021 952T1148 929T1225 892T1264 842T1279 779T1281 704H1473Q1473 812 1445
890T1345 1020T1149 1095T833 1120Q689 1120 581 1109T395 1071T265 1000T183 892T140 742T128 544T140 346T182 196T264 88T394 18T581 -20Q637 -26 704 -29V-224Q776 -224 815 -229T872 -244T893 -264T896 -288Q896 -324 884 -343T848 -372T788 -382T704 -384V-544Z"
/>
<glyph unicode="&#xe8;" glyph-name="egrave" horiz-adv-x="1600" d="M832 -22Q640 -22 506 4T288 96T166 270T128 544Q128 733 166 856T288 1053T506 1155T832 1184Q969 1184 1069 1164T1241 1106T1357 1014T1427 901T1462 761T1472 592L1456 528H320Q320 396
346 312T432 188T590 139T832 128Q964 128 1050 135T1188 164T1259 222T1280 320H1472Q1472 227 1440 162T1332 56T1135 -3T832 -22ZM832 1024Q736 1024 661 1020T529 1003T432 964T368 904T332 807T320 656H1280Q1280 773 1255 839T1176 949T1037 1008T832 1024ZM448
1664L576 1856L1152 1376L1088 1280L448 1664Z" />
<glyph unicode="&#xe9;" glyph-name="eacute" horiz-adv-x="1600" d="M832 -22Q640 -22 506 4T288 96T166 270T128 544Q128 733 166 856T288 1053T506 1155T832 1184Q969 1184 1069 1164T1241 1106T1357 1014T1427 901T1462 761T1472 592L1456 528H320Q320 396
346 312T432 188T590 139T832 128Q964 128 1050 135T1188 164T1259 222T1280 320H1472Q1472 227 1440 162T1332 56T1135 -3T832 -22ZM832 1024Q736 1024 661 1020T529 1003T432 964T368 904T332 807T320 656H1280Q1280 773 1255 839T1176 949T1037 1008T832 1024ZM1152
1664L1024 1856L448 1376L512 1280L1152 1664Z" />
<glyph unicode="&#xea;" glyph-name="ecircumflex" horiz-adv-x="1600" d="M832 -22Q640 -22 506 4T288 96T166 270T128 544Q128 733 166 856T288 1053T506 1155T832 1184Q969 1184 1069 1164T1241 1106T1357 1014T1427 901T1462 761T1472 592L1456 528H320Q320
396 346 312T432 188T590 139T832 128Q964 128 1050 135T1188 164T1259 222T1280 320H1472Q1472 227 1440 162T1332 56T1135 -3T832 -22ZM832 1024Q736 1024 661 1020T529 1003T432 964T368 904T332 807T320 656H1280Q1280 773 1255 839T1176 949T1037 1008T832
1024ZM1088 1280L1216 1376L896 1856H704L384 1376L512 1280L800 1728L1088 1280Z" />
<glyph unicode="&#xeb;" glyph-name="edieresis" horiz-adv-x="1600" d="M832 -22Q640 -22 506 4T288 96T166 270T128 544Q128 733 166 856T288 1053T506 1155T832 1184Q969 1184 1069 1164T1241 1106T1357 1014T1427 901T1462 761T1472 592L1456 528H320Q320
396 346 312T432 188T590 139T832 128Q964 128 1050 135T1188 164T1259 222T1280 320H1472Q1472 227 1440 162T1332 56T1135 -3T832 -22ZM832 1024Q736 1024 661 1020T529 1003T432 964T368 904T332 807T320 656H1280Q1280 773 1255 839T1176 949T1037 1008T832
1024ZM512 1536H320V1344H512V1536ZM1280 1536H1088V1344H1280V1536Z" />
<glyph unicode="&#xec;" glyph-name="igrave" horiz-adv-x="448" d="M128 0H320V1088H128V0ZM-125 1664L3 1856L579 1376L515 1280L-125 1664Z" />
<glyph unicode="&#xed;" glyph-name="iacute" horiz-adv-x="448" d="M128 0H320V1088H128V0ZM579 1664L451 1856L-125 1376L-61 1280L579 1664Z" />
<glyph unicode="&#xee;" glyph-name="icircumflex" horiz-adv-x="448" d="M128 0H320V1088H128V0ZM515 1280L643 1376L323 1856H131L-189 1376L-61 1280L227 1728L515 1280Z" />
<glyph unicode="&#xef;" glyph-name="idieresis" horiz-adv-x="448" d="M128 0H320V1088H128V0ZM-61 1536H-253V1344H-61V1536ZM707 1536H515V1344H707V1536Z" />
<glyph unicode="&#xf0;" glyph-name="eth" horiz-adv-x="1984" d="M1324 1026L1631 1136Q1664 1020 1664 832Q1638 848 1606 861T1528 885T1422 904T1277 917T1083 925T831 928Q615 928 478 898T264 808T157 658T128 448Q128 328 157 238T263 88T478 -2T831 -32H1152Q1328
-32 1448 -11T1647 54T1768 164T1829 319T1852 520T1856 768Q1856 899 1842 1005T1796 1196L2047 1286L2004 1406L1739 1311Q1694 1378 1630 1427T1478 1507T1278 1553T1024 1568Q848 1568 718 1555T496 1516T344 1452T252 1364T206 1253T193 1120H352Q352 1160
357 1197T384 1266T448 1324T565 1369T752 1398T1024 1408Q1129 1408 1215 1404T1371 1384T1491 1337T1579 1253L1281 1146L1324 1026ZM831 768Q1016 768 1150 766T1376 754T1525 728T1613 683T1654 612T1664 512Q1664 392 1643 317T1566 200T1409 143T1152 128H831Q719
128 638 134T500 154T408 192T353 251T327 335T320 448Q320 512 327 560T353 644T408 704T500 742T638 762T831 768Z" />
<glyph unicode="&#xf1;" glyph-name="ntilde" horiz-adv-x="1602" d="M1280 0V640Q1280 747 1264 820T1200 939T1064 1004T832 1024Q676 1024 577 1001T420 936T342 835T320 704V0H128V1152H320V960Q341 1009 380 1044T468 1105T574 1145T688 1169T798 1181T896
1184Q1024 1184 1116 1168T1273 1121T1377 1044T1437 938T1466 803T1473 640L1472 0H1280ZM609 1440Q654 1440 692 1425T774 1392T869 1359T993 1344Q1029 1344 1073 1356T1157 1398T1222 1477T1249 1600H1057Q1057 1570 1053 1551T1041 1522T1021 1508T993 1504Q948
1504 910 1519T828 1552T733 1586T609 1601Q573 1601 529 1590T445 1549T380 1470T353 1344H545Q545 1375 549 1394T561 1423T581 1436T609 1440Z" />
<glyph unicode="&#xf2;" glyph-name="ograve" horiz-adv-x="1664" d="M128 584Q128 761 166 877T288 1061T506 1156T832 1184Q1024 1184 1158 1157T1376 1061T1498 877T1536 584Q1536 407 1498 290T1376 104T1158 7T832 -22Q640 -22 506 6T288 104T166 290T128
584ZM320 584Q320 488 327 417T353 295T408 212T500 161T638 135T832 128Q928 128 1003 132T1135 153T1232 198T1296 279T1332 404T1344 584Q1344 687 1333 759T1297 881T1232 958T1136 1001T1004 1020T832 1024Q736 1024 661 1020T529 1002T432 959T368 881T332
760T320 584ZM480 1664L608 1856L1184 1376L1120 1280L480 1664Z" />
<glyph unicode="&#xf3;" glyph-name="oacute" horiz-adv-x="1664" d="M128 584Q128 761 166 877T288 1061T506 1156T832 1184Q1024 1184 1158 1157T1376 1061T1498 877T1536 584Q1536 407 1498 290T1376 104T1158 7T832 -22Q640 -22 506 6T288 104T166 290T128
584ZM320 584Q320 488 327 417T353 295T408 212T500 161T638 135T832 128Q928 128 1003 132T1135 153T1232 198T1296 279T1332 404T1344 584Q1344 687 1333 759T1297 881T1232 958T1136 1001T1004 1020T832 1024Q736 1024 661 1020T529 1002T432 959T368 881T332
760T320 584ZM1184 1664L1056 1856L480 1376L544 1280L1184 1664Z" />
<glyph unicode="&#xf4;" glyph-name="ocircumflex" horiz-adv-x="1664" d="M128 584Q128 761 166 877T288 1061T506 1156T832 1184Q1024 1184 1158 1157T1376 1061T1498 877T1536 584Q1536 407 1498 290T1376 104T1158 7T832 -22Q640 -22 506 6T288 104T166 290T128
584ZM320 584Q320 488 327 417T353 295T408 212T500 161T638 135T832 128Q928 128 1003 132T1135 153T1232 198T1296 279T1332 404T1344 584Q1344 687 1333 759T1297 881T1232 958T1136 1001T1004 1020T832 1024Q736 1024 661 1020T529 1002T432 959T368 881T332
760T320 584ZM1120 1280L1248 1376L928 1856H736L416 1376L544 1280L832 1728L1120 1280Z" />
<glyph unicode="&#xf5;" glyph-name="otilde" horiz-adv-x="1664" d="M128 584Q128 761 166 877T288 1061T506 1156T832 1184Q1024 1184 1158 1157T1376 1061T1498 877T1536 584Q1536 407 1498 290T1376 104T1158 7T832 -22Q640 -22 506 6T288 104T166 290T128
584ZM320 584Q320 488 327 417T353 295T408 212T500 161T638 135T832 128Q928 128 1003 132T1135 153T1232 198T1296 279T1332 404T1344 584Q1344 687 1333 759T1297 881T1232 958T1136 1001T1004 1020T832 1024Q736 1024 661 1020T529 1002T432 959T368 881T332
760T320 584ZM640 1440Q685 1440 723 1425T805 1392T900 1359T1024 1344Q1060 1344 1104 1356T1188 1398T1253 1477T1280 1600H1088Q1088 1570 1084 1551T1072 1522T1052 1508T1024 1504Q979 1504 941 1519T859 1552T764 1586T640 1601Q604 1601 560 1590T476 1549T411
1470T384 1344H576Q576 1375 580 1394T592 1423T612 1436T640 1440Z" />
<glyph unicode="&#xf6;" glyph-name="odieresis" horiz-adv-x="1664" d="M128 584Q128 761 166 877T288 1061T506 1156T832 1184Q1024 1184 1158 1157T1376 1061T1498 877T1536 584Q1536 407 1498 290T1376 104T1158 7T832 -22Q640 -22 506 6T288 104T166 290T128
584ZM320 584Q320 488 327 417T353 295T408 212T500 161T638 135T832 128Q928 128 1003 132T1135 153T1232 198T1296 279T1332 404T1344 584Q1344 687 1333 759T1297 881T1232 958T1136 1001T1004 1020T832 1024Q736 1024 661 1020T529 1002T432 959T368 881T332
760T320 584ZM544 1536H352V1344H544V1536ZM1312 1536H1120V1344H1312V1536Z" />
<glyph unicode="&#xf7;" glyph-name="divide" horiz-adv-x="1280" d="M128 512H1152V672H128V512ZM768 960H576V768H768V960ZM768 384H576V192H768V384Z" />
<glyph unicode="&#xf8;" glyph-name="oslash" horiz-adv-x="1664" d="M128 544Q128 712 166 823T288 1000T506 1093T832 1120Q908 1120 975 1115L1056 1312L1216 1248L1152 1094Q1155 1093 1158 1093Q1292 1066 1376 1000T1498 823T1536 544Q1536 376 1498 265T1376
88T1158 -5T832 -32Q756 -32 689 -27L608 -224L448 -160L511 -6Q509 -5 506 -5Q372 22 288 88T166 265T128 544ZM320 544Q320 456 327 391T353 280T408 204T500 158Q532 148 572 141L910 959Q873 960 832 960Q688 960 590 949T432 896T346 771T320 544ZM832 128Q976
128 1074 139T1232 192T1318 317T1344 544Q1344 688 1318 771T1232 896Q1177 934 1091 946L753 128Q791 128 832 128Z" />
<glyph unicode="&#xf9;" glyph-name="ugrave" horiz-adv-x="1602" d="M321 1152V512Q321 405 337 332T401 213T537 148T769 128Q925 128 1024 151T1181 216T1259 317T1281 448V1152H1473V0H1281V192Q1267 161 1234 124T1135 54T965 0T705 -22Q576 -22 484 -7T327
39T223 115T163 219T135 352T128 512L129 1152H321ZM449 1664L577 1856L1153 1376L1089 1280L449 1664Z" />
<glyph unicode="&#xfa;" glyph-name="uacute" horiz-adv-x="1602" d="M321 1152V512Q321 405 337 332T401 213T537 148T769 128Q925 128 1024 151T1181 216T1259 317T1281 448V1152H1473V0H1281V192Q1267 161 1234 124T1135 54T965 0T705 -22Q576 -22 484 -7T327
39T223 115T163 219T135 352T128 512L129 1152H321ZM1153 1664L1025 1856L449 1376L513 1280L1153 1664Z" />
<glyph unicode="&#xfb;" glyph-name="ucircumflex" horiz-adv-x="1602" d="M321 1152V512Q321 405 337 332T401 213T537 148T769 128Q925 128 1024 151T1181 216T1259 317T1281 448V1152H1473V0H1281V192Q1267 161 1234 124T1135 54T965 0T705 -22Q576 -22 484
-7T327 39T223 115T163 219T135 352T128 512L129 1152H321ZM1089 1280L1217 1376L897 1856H705L385 1376L513 1280L801 1728L1089 1280Z" />
<glyph unicode="&#xfc;" glyph-name="udieresis" horiz-adv-x="1602" d="M321 1152V512Q321 405 337 332T401 213T537 148T769 128Q925 128 1024 151T1181 216T1259 317T1281 448V1152H1473V0H1281V192Q1267 161 1234 124T1135 54T965 0T705 -22Q576 -22 484 -7T327
39T223 115T163 219T135 352T128 512L129 1152H321ZM513 1536H321V1344H513V1536ZM1281 1536H1089V1344H1281V1536Z" />
<glyph unicode="&#xfd;" glyph-name="yacute" horiz-adv-x="1568" d="M672 0H736Q720 -32 708 -61T677 -115T632 -160T561 -194T450 -216T288 -224V-384Q400 -384 482 -374T623 -344T724 -296T795 -233T848 -155T896 -64L928 0L1504 1152H1280L800 128L288 1152H64L672
0ZM1136 1664L1008 1856L432 1376L496 1280L1136 1664Z" />
<glyph unicode="&#xfe;" glyph-name="thorn" horiz-adv-x="1600" d="M832 1120Q748 1120 682 1113T563 1095T473 1070T408 1040Q345 1005 320 961V1536H128V-384H320V128Q345 83 408 48Q435 33 473 19T563 -7T681 -25T832 -32Q1024 -32 1158 -5T1376 88T1498 265T1536
544Q1536 712 1498 823T1376 1000T1158 1093T832 1120ZM832 960Q944 960 1025 954T1164 930T1256 884T1311 809T1337 697T1344 544Q1344 456 1338 391T1312 280T1257 204T1164 158T1026 135T832 128Q736 128 661 132T529 150T433 192T368 266T332 381T320 547Q320
642 331 710T368 823T432 896T529 937T661 956T832 960Z" />
<glyph unicode="&#xff;" glyph-name="ydieresis" horiz-adv-x="1568" d="M672 0H736Q720 -32 708 -61T677 -115T632 -160T561 -194T450 -216T288 -224V-384Q400 -384 482 -374T623 -344T724 -296T795 -233T848 -155T896 -64L928 0L1504 1152H1280L800 128L288
1152H64L672 0ZM496 1536H304V1344H496V1536ZM1264 1536H1072V1344H1264V1536Z" />
<glyph unicode="&#x2013;" glyph-name="endash" horiz-adv-x="1088" d="M128 512H960V672H128V512Z" />
<glyph unicode="&#x2014;" glyph-name="emdash" horiz-adv-x="1088" d="M0 512H1088V672H0V512Z" />
<glyph unicode="&#x2018;" glyph-name="quoteleft" horiz-adv-x="512" d="M128 1152H256L384 1536H192L128 1152Z" />
<glyph unicode="&#x2019;" glyph-name="quoteright" horiz-adv-x="512" d="M128 1152H256L384 1536H192L128 1152Z" />
<glyph unicode="&#x201a;" glyph-name="quotesinglbase" horiz-adv-x="448" d="M64 -256H192L320 128H128L64 -256Z" />
<glyph unicode="&#x201c;" glyph-name="quotedblleft" horiz-adv-x="768" d="M384 1152H512L640 1536H448L384 1152ZM128 1152H256L384 1536H192L128 1152Z" />
<glyph unicode="&#x201d;" glyph-name="quotedblright" horiz-adv-x="832" d="M128 1152H256L384 1536H192L128 1152ZM448 1152H576L704 1536H512L448 1152Z" />
<glyph unicode="&#x201e;" glyph-name="quotedblbase" horiz-adv-x="832" d="M128 -192H256L384 192H192L128 -192ZM448 -192H576L704 192H512L448 -192Z" />
<glyph unicode="&#x2022;" glyph-name="bullet" horiz-adv-x="1280" d="M640 256Q694 256 740 269T821 312T876 391T896 512Q896 584 876 633T822 712T741 755T640 768Q586 768 539 755T458 712T404 633T384 512Q384 440 403 391T457 312T539 269T640 256Z" />
<glyph unicode="&#x2039;" glyph-name="guilsinglleft" horiz-adv-x="896" d="M256 608L768 960L672 1088L128 704V512L672 128L768 256L256 608Z" />
<glyph unicode="&#x203a;" glyph-name="guilsinglright" horiz-adv-x="896" d="M128 256L224 128L768 512V704L224 1088L128 960L640 608L128 256Z" />
</font>
</defs>
</svg>
