<?xml version="1.0" standalone="no"?>
<!DOCTYPE svg PUBLIC "-//W3C//DTD SVG 1.1//EN" "http://www.w3.org/Graphics/SVG/1.1/DTD/svg11.dtd">
<svg xmlns="http://www.w3.org/2000/svg">
<defs >
<font id="JosefinSans" horiz-adv-x="610" ><font-face
    font-family="Josefin Sans"
    units-per-em="1000"
    panose-1="0 0 8 0 0 0 0 0 0 0"
    ascent="750"
    descent="-250"
    alphabetic="0" />
<glyph unicode=" " glyph-name="space" horiz-adv-x="300" />
<glyph unicode="!" glyph-name="exclam" horiz-adv-x="202" d="M237 765L167 199H42L112 765H237ZM44 -14T22 4T0 53Q0 85 25 107T86 130Q121 130 142 111T163 61Q163 27 140 7T81 -14Q44 -14 22 4Z" />
<glyph unicode="&quot;" glyph-name="quotedbl" horiz-adv-x="366" d="M272 699T259 612L241 481H123L154 734H276Q272 699 259 612ZM408 699T395 612L377 481H259L290 734H412Q408 699 395 612Z" />
<glyph unicode="#" glyph-name="numbersign" horiz-adv-x="582" d="M330 509Q326 489 323 479H385L415 602L429 656H556L518 509Q514 489 511 479H595L586 436L568 358H483Q477 336 467 292H552L541 248Q534 222 522 170H437Q430 135 417 85L396 0H270L291 85Q304
135 311 170H250L232 96Q216 32 209 0H82L103 85Q115 135 123 170H44L55 214Q62 240 74 292H153Q159 314 161 325L169 358H90Q100 398 104 419L118 479H197Q200 489 204 509L242 656H368L330 509ZM285 314T279 292H341L356 358H295Q285 314 279 292Z" />
<glyph unicode="$" glyph-name="dollar" horiz-adv-x="587" d="M460 385T499 343T538 225Q538 202 536 189Q529 136 498 92T414 22T290 -7L283 -68H199L207 0Q99 19 16 88L94 197Q120 174 154 156T223 129L246 324Q182 357 145 399T108 507Q108 575 138 626T223
705T347 737L355 804H439L430 729Q484 719 523 700T600 652L531 545Q470 585 414 601L392 416Q460 385 499 343ZM255 495T313 458L331 606Q268 595 261 538Q255 495 313 458ZM390 244T326 284L306 124Q338 130 359 148T385 198Q390 244 326 284Z" />
<glyph unicode="%" glyph-name="percent" horiz-adv-x="850" d="M142 294T105 338T67 456Q67 481 69 494Q79 575 122 624T240 673Q315 673 353 629T391 511Q391 500 389 474Q379 393 335 344T218 294Q142 294 105 338ZM234 -2L97 0L663 673H802L234 -2ZM241 392T251
414T267 482Q271 518 271 527Q271 551 263 562T237 574Q216 574 206 554T190 486Q188 472 188 447Q188 420 195 406T220 392Q241 392 251 414ZM560 -28T523 16T485 134Q485 159 487 172Q497 253 540 302T658 351Q733 351 771 307T809 189Q809 178 807 152Q797 71
753 22T636 -28Q560 -28 523 16ZM659 70T669 92T685 160Q689 196 689 205Q689 229 681 240T655 252Q634 252 624 232T608 164Q606 150 606 125Q606 98 613 84T638 70Q659 70 669 92Z" />
<glyph unicode="&amp;" glyph-name="ampersand" horiz-adv-x="720" d="M547 194L668 0H500L467 53Q398 -13 285 -13Q216 -13 161 14T75 90T44 199Q44 279 98 341T233 430L230 436Q214 462 200 498T186 571Q186 615 211 659T284 733T399 763Q466 763 517 736T598
664L513 567Q483 604 458 622T407 641Q373 641 354 620T335 570Q335 553 343 531T359 498L476 309L547 448H679L547 194ZM368 116T404 155L295 331Q254 323 225 289T195 214Q195 170 228 143T311 116Q368 116 404 155Z" />
<glyph unicode="&apos;" glyph-name="quotesingle" horiz-adv-x="175" d="M238 699T225 612L207 481H87L118 734H242Q238 699 225 612Z" />
<glyph unicode="(" glyph-name="parenleft" horiz-adv-x="409" d="M104 448T167 568T310 758L417 698Q346 630 297 529T231 296Q225 245 225 200Q225 101 249 20T317 -122L196 -169Q146 -103 113 -3T80 213Q80 259 86 305Q104 448 167 568Z" />
<glyph unicode=")" glyph-name="parenright" horiz-adv-x="409" d="M324 144T261 24T118 -166L11 -106Q82 -38 131 63T197 296Q203 347 203 392Q203 491 179 572T111 714L232 761Q282 695 315 595T348 379Q348 334 342 287Q324 144 261 24Z" />
<glyph unicode="*" glyph-name="asterisk" horiz-adv-x="335" d="M151 483L125 469L92 542L158 576L102 613L149 682L208 645L217 720H301L291 645L359 681Q369 658 391 612L356 594Q345 587 321 575L380 539L329 466L300 485L271 503L262 434H182L190 504L151 483Z" />
<glyph unicode="+" glyph-name="plus" horiz-adv-x="554" d="M386 419L371 295H491L476 174H356L341 52H214L229 174H109L124 295H244L259 419H386Z" />
<glyph unicode="," glyph-name="comma" horiz-adv-x="205" d="M-20 -166Q-3 -150 7 -120T17 -59Q17 -44 14 -29L136 -30Q138 -44 138 -52Q138 -95 114 -142T52 -214L-20 -166Z" />
<glyph unicode="-" glyph-name="hyphen" horiz-adv-x="306" d="M278 290L263 168H75L90 290H278Z" />
<glyph unicode="." glyph-name="period" horiz-adv-x="167" d="M23 97T48 121T105 145Q129 145 147 126T166 79Q166 45 141 23T87 0Q61 0 42 18T23 64Q23 97 48 121Z" />
<glyph unicode="/" glyph-name="slash" horiz-adv-x="421" d="M141 -19H15L394 751H520L141 -19Z" />
<glyph unicode="0" glyph-name="zero" horiz-adv-x="657" d="M206 1T133 66T60 272Q60 336 80 424T171 591T377 669Q438 669 495 641T589 555T626 411Q626 399 624 369Q618 264 582 181T478 50T314 1Q206 1 133 66ZM380 139T411 177T457 272T471 386Q471 469 439
500T354 531Q306 531 275 493T229 398T214 284Q214 201 247 170T332 139Q380 139 411 177Z" />
<glyph unicode="1" glyph-name="one" horiz-adv-x="373" d="M329 663L247 0H101L165 523H112L130 663H329Z" />
<glyph unicode="2" glyph-name="two" horiz-adv-x="586" d="M558 416T540 368T482 267T367 140H526L509 0H30Q196 151 274 230T379 353T405 437Q405 483 379 507T308 531Q262 531 235 505T207 440Q207 390 235 356L136 275Q109 302 87 352T65 453Q65 505 94 555T182
638T326 671Q440 671 499 617T558 472Q558 416 540 368Z" />
<glyph unicode="3" glyph-name="three" horiz-adv-x="513" d="M392 408T435 359T478 239Q478 175 452 119T370 28T231 -7Q180 -7 123 16T33 80L121 196Q138 168 169 150T231 132Q275 132 301 160T328 232Q328 278 294 304T206 330Q186 330 167 326T136 317L133
321L266 523H108L125 663H486L331 421Q392 408 435 359Z" />
<glyph unicode="4" glyph-name="four" horiz-adv-x="522" d="M500 255L487 145H408L390 0H244L262 145H-16V146L471 671H472L421 255H500ZM275 255L286 343L209 255H275Z" />
<glyph unicode="5" glyph-name="five" horiz-adv-x="515" d="M317 449T365 429T446 362T480 239Q480 175 453 119T371 27T235 -8Q187 -8 127 16T33 80L122 192Q140 164 170 149T230 134Q278 134 304 162T330 232Q330 331 207 331Q141 331 77 291H76L157 663H479L463
523H248L229 447Q251 449 270 449Q317 449 365 429Z" />
<glyph unicode="6" glyph-name="six" horiz-adv-x="586" d="M410 434T451 415T522 351T552 236Q552 182 524 126T438 31T294 -8Q225 -8 171 22T87 110T56 248Q56 366 136 478T393 679L477 568Q396 543 338 497T247 396Q296 434 374 434Q410 434 451 415ZM350 122T375
156T401 230Q401 270 374 292T304 315Q248 315 224 285T199 216Q199 177 226 150T295 122Q350 122 375 156Z" />
<glyph unicode="7" glyph-name="seven" horiz-adv-x="503" d="M543 663L218 0H52L313 523H77L95 663H543Z" />
<glyph unicode="8" glyph-name="eight" horiz-adv-x="573" d="M36 279T75 328T175 408Q154 434 145 454T135 503Q135 540 154 579T217 644T326 671Q378 671 421 652T491 600T517 528Q517 483 500 454T445 392Q485 360 511 322T538 227Q538 185 512 130T427 33T277
-8Q206 -8 151 22T66 101T36 207Q36 279 75 328ZM275 477T289 463T322 449Q345 449 360 464T375 500Q375 521 362 535T329 549Q303 549 289 534T275 496Q275 477 289 463ZM185 170T209 142T279 114Q330 114 362 147T394 228Q394 270 367 299T298 328Q261 328 236
310T198 266T185 214Q185 170 209 142Z" />
<glyph unicode="9" glyph-name="nine" horiz-adv-x="573" d="M387 652T442 622T529 541T561 427Q561 345 526 274T407 134T183 -5L99 106Q242 152 325 223Q289 210 250 210Q207 210 163 233T89 301T60 408Q60 461 88 517T174 613T318 652Q387 652 442 622ZM212
373T238 351T308 329Q356 329 381 352T412 423Q415 448 404 471T370 508T317 522Q262 522 237 488T212 413Q212 373 238 351Z" />
<glyph unicode=":" glyph-name="colon" horiz-adv-x="179" d="M58 382T83 406T140 430Q164 430 182 411T201 364Q201 330 176 308T122 285Q96 285 77 303T58 349Q58 382 83 406ZM23 97T48 121T105 145Q129 145 147 126T166 79Q166 45 141 23T87 0Q61 0 42 18T23
64Q23 97 48 121Z" />
<glyph unicode=";" glyph-name="semicolon" horiz-adv-x="205" d="M92 352T117 376T172 400Q196 400 215 381T234 334Q234 300 209 278T154 255Q129 255 111 273T92 319Q92 352 117 376ZM71 -122H-41L17 -6L64 88H185L71 -122Z" />
<glyph unicode="&lt;" glyph-name="less" horiz-adv-x="555" d="M23 243L499 499L478 328L322 243L458 158L436 -14L23 243Z" />
<glyph unicode="=" glyph-name="equal" horiz-adv-x="722" d="M668 412L653 290H137L152 412H668ZM644 214L629 92H113L128 214H644Z" />
<glyph unicode="&gt;" glyph-name="greater" horiz-adv-x="556" d="M241 243L104 328L125 499Q168 473 332 371L539 243L62 -14L83 158L241 243Z" />
<glyph unicode="?" glyph-name="question" horiz-adv-x="444" d="M113 301T126 324T158 361T209 396Q216 401 224 406T241 417Q336 482 336 558Q336 588 320 606T273 625Q237 625 217 617T185 591T158 538Q96 562 54 579Q73 623 94 656T164 718T288 747Q338 747
378 723T442 658T465 568Q465 506 434 458T341 368Q335 364 306 345T257 301T232 247L222 167H97L109 266Q113 301 126 324ZM109 -14T90 4T71 50Q71 83 97 106T153 130Q177 130 195 111T214 64Q214 30 190 8T135 -14Q109 -14 90 4Z" />
<glyph unicode="@" glyph-name="at" horiz-adv-x="1052" d="M761 172Q760 166 760 155Q760 120 788 120Q813 120 837 144T877 213T893 312Q893 384 860 442T760 536T594 571Q430 571 334 503T201 346T163 182Q163 79 205 12T319 -86T480 -118Q536 -118 592 -101T698
-52L754 -131Q697 -178 616 -202T459 -226Q345 -226 249 -182T95 -46T37 178Q37 299 98 414T288 604T614 680Q743 680 835 632T974 500T1022 312Q1022 225 988 152T893 36T752 -8Q709 -8 675 13T625 72Q593 38 545 13T447 -12Q391 -12 347 12T278 82T252 191Q252
267 284 328T373 424T506 459Q565 459 595 441T648 390L664 437H798L761 172ZM542 102T567 118T616 168L631 275Q623 307 597 326T530 345Q494 345 465 326T418 276T401 210Q401 164 429 133T503 102Q542 102 567 118Z" />
<glyph unicode="A" glyph-name="A" horiz-adv-x="696" d="M446 144H202L124 0H-19L407 765H415L653 0H485L446 144ZM413 266L364 445L267 266H413Z" />
<glyph unicode="B" glyph-name="B" horiz-adv-x="638" d="M523 362T555 325T587 227Q587 150 548 99T446 24T310 0H65L155 736H371Q595 736 595 570Q595 505 566 451T475 376Q523 362 555 325ZM391 435T416 463T442 531Q442 565 420 583T357 601H289L268 435H346Q391
435 416 463ZM369 135T404 160T440 234Q440 275 408 292T326 309H253L232 135H315Q369 135 404 160Z" />
<glyph unicode="C" glyph-name="C" horiz-adv-x="700" d="M601 25T544 6T420 -13Q334 -13 254 20T121 129T68 329Q68 439 109 532T236 683T448 741Q523 741 584 719T689 663L615 530Q584 559 542 580T446 601Q379 601 328 568T249 476T220 340Q220 245 275 187T426
128Q481 128 515 142T584 177L628 43Q601 25 544 6Z" />
<glyph unicode="D" glyph-name="D" horiz-adv-x="767" d="M155 736H415Q528 736 600 691T704 573T737 411Q737 384 734 355Q722 249 667 168T529 44T353 0H65L155 736ZM345 140Q445 140 509 198T586 365Q589 386 589 405Q589 478 558 520T483 580T401 597H283L227
140H345Z" />
<glyph unicode="E" glyph-name="E" horiz-adv-x="667" d="M657 736L641 601H289L269 437H580L563 299H252L232 139H598L581 0H65L155 736H657Z" />
<glyph unicode="F" glyph-name="F" horiz-adv-x="600" d="M615 736L598 598H288L268 428H536L518 289H250L215 0H65L155 736H615Z" />
<glyph unicode="G" glyph-name="G" horiz-adv-x="772" d="M650 31T576 10T436 -11Q380 -11 295 15T139 116T67 328Q67 422 108 516T238 675T462 739Q530 739 598 722T719 671L655 539Q617 564 566 578T468 593Q377 593 321 553T242 453T219 333Q219 253 263 209T362
149T459 133Q510 131 541 147L552 243H425L442 382H717L678 56Q650 31 576 10Z" />
<glyph unicode="H" glyph-name="H" horiz-adv-x="810" d="M684 0H534L571 299H252L215 0H65L155 736H305L269 441H588L624 736H774L684 0Z" />
<glyph unicode="I" glyph-name="I" horiz-adv-x="341" d="M305 736L215 0H65L155 736H305Z" />
<glyph unicode="J" glyph-name="J" horiz-adv-x="404" d="M286 61T240 -7T122 -113T-40 -153L-23 -12Q132 -3 152 158L222 736H368L297 155Q286 61 240 -7Z" />
<glyph unicode="K" glyph-name="K" horiz-adv-x="701" d="M261 437L287 465L560 736H748L404 406L659 0H475L286 314L246 278L212 0H65L155 736H302L270 474L261 437Z" />
<glyph unicode="L" glyph-name="L" horiz-adv-x="638" d="M300 736L227 140H573L556 0H65L155 736H300Z" />
<glyph unicode="M" glyph-name="M" horiz-adv-x="948" d="M916 766L822 0H677L720 351L438 10H436L244 330L204 0H64L158 766H159L468 236L914 766H916Z" />
<glyph unicode="N" glyph-name="N" horiz-adv-x="853" d="M817 736L723 -30H719L261 435L211 0H64L158 765H164L620 292L671 736H817Z" />
<glyph unicode="O" glyph-name="O" horiz-adv-x="852" d="M332 -7T251 31T119 147T68 343Q68 437 113 529T250 682T468 743Q557 743 638 705T770 589T821 393Q821 299 776 207T639 54T421 -7Q332 -7 251 31ZM508 133T564 171T645 267T671 385Q671 443 644 493T569
573T462 603Q377 603 322 565T243 469T218 351Q218 293 244 243T317 163T423 133Q508 133 564 171Z" />
<glyph unicode="P" glyph-name="P" horiz-adv-x="618" d="M501 736T567 678T633 519Q633 449 604 384T509 276T343 233H244L215 0H65L155 736H378Q501 736 567 678ZM398 374T426 394T468 444T481 498Q481 534 460 565T382 596H288L261 374H354Q398 374 426 394Z" />
<glyph unicode="Q" glyph-name="Q" horiz-adv-x="945" d="M888 0H542Q507 -7 462 -7Q373 -7 292 31T160 147T109 343Q109 437 154 529T291 682T509 743Q598 743 679 705T811 589T862 393Q862 322 835 250T757 119L905 142L888 0ZM259 293T285 243T358 163T464
133Q549 133 605 171T686 267T712 385Q712 443 685 493T610 573T503 603Q418 603 363 565T284 469T259 351Q259 293 285 243Z" />
<glyph unicode="R" glyph-name="R" horiz-adv-x="687" d="M628 420T593 361T493 267L631 0H462L335 234H239L210 0H65L155 736H378Q504 736 571 680T638 524Q638 514 636 488Q628 420 593 361ZM256 374H359Q418 374 449 408T485 483Q486 488 486 502Q486 539 465
567T387 596H283L256 374Z" />
<glyph unicode="S" glyph-name="S" horiz-adv-x="587" d="M433 608T360 608Q270 608 261 538Q256 503 291 474T388 418Q458 386 498 343T538 224Q538 201 536 189Q529 135 497 91T410 20T282 -7Q211 -7 142 17T16 88L94 197Q131 164 182 143T273 122Q317 122 348
139T385 198Q391 255 290 303Q235 329 199 352T135 413T108 507Q108 516 110 536Q121 631 190 685T365 737Q446 732 498 711T600 652L531 545Q433 608 360 608Z" />
<glyph unicode="T" glyph-name="T" horiz-adv-x="586" d="M601 736L583 593H407L334 0H184L257 593H87L105 736H601Z" />
<glyph unicode="U" glyph-name="U" horiz-adv-x="787" d="M247 267T247 257Q247 225 264 197T311 151T378 133Q418 133 454 153T515 205T544 272L601 736H751L694 269Q684 190 637 127T516 28T361 -8Q285 -8 225 22T130 108T96 234Q96 245 98 269L155 736H305L248
272Q247 267 247 257Z" />
<glyph unicode="V" glyph-name="V" horiz-adv-x="744" d="M772 736L345 -28H340L100 736H274L391 321L600 736H772Z" />
<glyph unicode="W" glyph-name="W" horiz-adv-x="1031" d="M680 -32L559 404L301 -34L99 731H269L361 306L508 586L468 731H612L727 322L902 731H1058L680 -32Z" />
<glyph unicode="X" glyph-name="X" horiz-adv-x="681" d="M459 370L655 0H468L334 253L160 0H-20L268 380L80 736H265L395 492L562 736H738L459 370Z" />
<glyph unicode="Y" glyph-name="Y" horiz-adv-x="722" d="M771 736L433 229L405 0H260L288 229L79 736H258L385 396L592 736H771Z" />
<glyph unicode="Z" glyph-name="Z" horiz-adv-x="676" d="M271 140H641L624 0H-2L439 596H221Q187 596 158 617T132 668L145 773H278L277 759Q276 746 282 741T306 736H715L271 140Z" />
<glyph unicode="[" glyph-name="bracketleft" horiz-adv-x="350" d="M371 761L356 639H267L185 -31H274L259 -152H46L158 761H371Z" />
<glyph unicode="\" glyph-name="backslash" horiz-adv-x="430" d="M413 -19H271L82 751H224L413 -19Z" />
<glyph unicode="]" glyph-name="bracketright" horiz-adv-x="357" d="M325 761L213 -152H0L15 -31H104L186 639H97L112 761H325Z" />
<glyph unicode="^" glyph-name="asciicircum" horiz-adv-x="479" d="M302 534L259 489H174L319 673L345 625L419 489H334L302 534Z" />
<glyph unicode="_" glyph-name="underscore" horiz-adv-x="612" d="M525 121L510 0H102L117 121H525Z" />
<glyph unicode="`" glyph-name="grave" horiz-adv-x="205" d="M247 489H162L30 624H185L247 489Z" />
<glyph unicode="a" glyph-name="a" horiz-adv-x="618" d="M572 437L519 0H379L385 54Q313 -12 216 -10Q172 -11 131 14T64 89T38 203Q38 268 70 327T158 422T284 459Q342 459 374 441T427 392L442 437H572ZM412 275Q404 307 377 326T310 345Q267 345 239 326T197
278T183 220Q183 166 213 134T295 102Q325 102 352 118T399 168L412 275Z" />
<glyph unicode="b" glyph-name="b" horiz-adv-x="626" d="M441 459T487 435T561 361T589 238Q589 172 556 115T464 23T331 -12Q283 -12 250 2T191 44L185 0H45L142 789H281L235 407Q262 430 301 444T386 459Q441 459 487 435ZM357 106T387 125T431 172T446 229Q446
286 416 317T335 349Q296 349 267 331T220 279L207 178Q238 106 314 106Q357 106 387 125Z" />
<glyph unicode="c" glyph-name="c" horiz-adv-x="485" d="M393 9T351 -2T269 -13Q222 -13 169 5T77 70T37 197Q37 258 64 315T147 410T282 447Q400 447 469 378L390 293Q349 332 291 332Q261 332 235 316T194 272T178 207Q178 161 209 131T294 100Q334 100 363
120L422 28Q393 9 351 -2Z" />
<glyph unicode="d" glyph-name="d" horiz-adv-x="626" d="M624 789L527 0H387L393 46Q356 17 324 3T253 -12Q192 -12 143 17T66 94T38 200Q38 264 68 323T158 421T300 459Q342 459 378 446T439 412L485 789H624ZM422 279Q414 311 385 330T314 349Q254 349 218
315T182 221Q182 169 213 138T297 106Q364 106 409 172L422 279Z" />
<glyph unicode="e" glyph-name="e" horiz-adv-x="555" d="M324 107T369 131L418 23Q385 7 348 -2T278 -11Q167 -11 103 46T39 215Q39 271 66 327T152 420T298 457Q388 457 450 408T528 231L201 150Q217 127 241 117T293 107Q324 107 369 131ZM236 348T208 314T179
231V228L378 280Q370 312 347 330T293 348Q236 348 208 314Z" />
<glyph unicode="f" glyph-name="f" horiz-adv-x="436" d="M122 315H48L64 439H138L156 591Q167 679 224 732T373 786Q403 786 436 777T492 750L420 649Q404 671 374 671Q343 671 322 650T296 587L278 439H410L394 315H262L224 0H84L122 315Z" />
<glyph unicode="g" glyph-name="g" horiz-adv-x="636" d="M591 437L533 -23Q526 -85 489 -129T393 -197T267 -220Q208 -220 166 -207T98 -178T40 -134L134 -38Q164 -66 196 -82T280 -98Q325 -98 359 -72T398 2L405 59Q382 27 344 8T253 -12Q192 -12 144 15T67
93T39 217Q39 270 68 326T155 421T294 459Q349 459 388 444T448 404L462 437H591ZM431 275Q420 308 391 326T319 345Q273 345 242 325T197 276T182 217Q182 162 213 132T302 102Q336 102 366 119T418 168L431 275Z" />
<glyph unicode="h" glyph-name="h" horiz-adv-x="595" d="M468 458T504 422T536 327L496 0H356L389 275Q394 339 333 339Q285 339 251 294T208 178L186 0H46L142 789H279L229 373Q258 412 303 435T406 458Q468 458 504 422Z" />
<glyph unicode="i" glyph-name="i" horiz-adv-x="284" d="M239 437L185 0H45L99 437H239ZM108 623T130 645T188 667Q217 667 240 651T263 602Q263 570 241 548T183 526Q154 526 131 542T108 591Q108 623 130 645Z" />
<glyph unicode="j" glyph-name="j" horiz-adv-x="297" d="M49 -77T59 8L112 437H252L198 0Q180 -148 50 -211L-20 -124Q49 -77 59 8ZM120 623T142 645T200 667Q229 667 252 651T275 602Q275 570 253 548T195 526Q166 526 143 542T120 591Q120 623 142 645Z" />
<glyph unicode="k" glyph-name="k" horiz-adv-x="547" d="M355 256L495 0H332L247 182L205 152L186 0H46L142 789H282L222 295L449 448L524 373L355 256Z" />
<glyph unicode="l" glyph-name="l" horiz-adv-x="285" d="M282 789L186 0H46L142 789H282Z" />
<glyph unicode="m" glyph-name="m" horiz-adv-x="864" d="M738 459T772 428T806 344Q806 334 805 328L765 0H626L659 270Q660 277 660 289Q660 312 652 324T621 338Q572 338 539 291T498 179L476 0H336L369 270L370 287Q370 310 361 323T328 338Q281 338 248 291T208
181L186 0H46L99 437H226L228 368Q291 459 397 459Q509 459 520 373Q554 412 595 435T678 459Q738 459 772 428Z" />
<glyph unicode="n" glyph-name="n" horiz-adv-x="595" d="M468 458T504 422T536 327L496 0H356L390 275Q392 306 379 322T333 339Q285 339 251 294T208 178L186 0H46L99 437H226L228 372Q257 412 303 435T406 458Q468 458 504 422Z" />
<glyph unicode="o" glyph-name="o" horiz-adv-x="573" d="M223 -12T168 11T75 83T38 204Q38 263 64 321T148 418T297 457Q357 457 412 432T501 357T536 241Q536 189 513 131T432 31T279 -12Q223 -12 168 11ZM340 103T367 144T394 235Q394 296 361 319T292 343Q254
343 229 323T191 272T179 211Q179 151 212 127T283 103Q340 103 367 144Z" />
<glyph unicode="p" glyph-name="p" horiz-adv-x="612" d="M430 459T476 435T550 365T577 261Q577 188 544 126T448 26T302 -12Q272 -12 240 -2T184 25L158 -210H19L102 447H222L224 409Q314 459 375 459Q430 459 476 435ZM340 105T371 123T418 173T435 239Q435
287 402 317T325 348Q291 348 264 332T212 282L199 175Q227 105 298 105Q340 105 371 123Z" />
<glyph unicode="q" glyph-name="q" horiz-adv-x="617" d="M572 437L492 -210H352L382 31Q319 -11 242 -10Q193 -11 146 14T68 89T38 203Q38 268 70 327T158 422T284 459Q340 459 374 442T429 396L442 437H572ZM317 100T345 116T397 166L413 273Q400 306 374 324T310
343Q268 343 237 325T190 275T173 209Q173 161 206 131T283 100Q317 100 345 116Z" />
<glyph unicode="r" glyph-name="r" horiz-adv-x="414" d="M221 340Q243 376 276 403T344 445T405 459L381 319Q375 320 364 320Q322 320 288 298T232 242T206 171L185 0H46L99 437H225L221 340Z" />
<glyph unicode="s" glyph-name="s" horiz-adv-x="448" d="M158 -9T105 8T14 75L81 148Q115 108 143 98T198 87Q225 87 236 98T247 124Q247 141 232 150T181 173L162 180Q112 199 89 231T65 305Q65 337 80 371T133 431T237 456Q288 456 332 444T414 399L351 320Q308
363 259 363Q232 363 220 352T208 324Q208 307 224 297T274 275Q291 270 302 265Q390 228 390 153Q390 110 369 73T304 14T201 -9Q158 -9 105 8Z" />
<glyph unicode="t" glyph-name="t" horiz-adv-x="394" d="M299 629L276 439H382L369 330H263L223 0H83L123 330H55L68 439H136L159 629H299Z" />
<glyph unicode="u" glyph-name="u" horiz-adv-x="584" d="M539 437L485 0H358L357 67Q328 26 284 3T184 -21Q128 -21 93 12T58 97L59 110L99 437H239L205 162Q203 131 215 115T256 98Q302 98 335 143T377 259L399 437H539Z" />
<glyph unicode="v" glyph-name="v" horiz-adv-x="534" d="M547 437L245 -9H241L33 437H199L276 229L391 437H547Z" />
<glyph unicode="w" glyph-name="w" horiz-adv-x="684" d="M697 437L449 -10H441L339 272L181 -9H173L33 437H169L228 258L305 387L288 437H407L466 250L561 437H697Z" />
<glyph unicode="x" glyph-name="x" horiz-adv-x="517" d="M343 228L489 0H320L235 131L127 0H-12L178 220L37 437H209L290 311L380 437H519L343 228Z" />
<glyph unicode="y" glyph-name="y" horiz-adv-x="540" d="M564 437L202 -210H67L201 23L50 437H207L290 179L438 437H564Z" />
<glyph unicode="z" glyph-name="z" horiz-adv-x="522" d="M228 114H448L434 0H-9L252 323H150Q116 323 94 345T71 405Q71 414 72 419L79 479H184L183 465Q182 461 182 454Q182 442 188 440T213 437H490L228 114Z" />
<glyph unicode="{" glyph-name="braceleft" horiz-adv-x="384" d="M325 639T314 633T295 607T282 540L268 420Q263 382 239 353T188 303Q206 289 223 261T240 201Q240 192 239 188L224 69Q220 40 220 17Q220 -13 230 -22T266 -31H303L288 -153H209Q202 -153 162
-153T101 -135T80 -77Q80 -71 82 -53L102 105Q104 127 104 140Q104 183 89 212T38 243L52 359Q96 361 119 402T150 497L168 641Q176 701 196 726T241 756T321 761H400L385 639H348Q325 639 314 633Z" />
<glyph unicode="|" glyph-name="bar" horiz-adv-x="306" d="M302 714L185 -237H59L176 714H302Z" />
<glyph unicode="}" glyph-name="braceright" horiz-adv-x="375" d="M80 -31T91 -25T109 2T122 69L134 167Q141 218 165 252T217 303Q164 353 164 407Q164 415 165 420L180 540Q184 569 184 593Q184 622 175 630T139 639H102L117 761H196Q203 761 243 761T303 741T322
676Q322 654 320 641L300 476Q299 468 299 453Q299 413 316 387T367 359L353 243Q314 242 289 209T257 126L238 -32Q231 -92 211 -118T164 -148T84 -153H5L20 -31H57Q80 -31 91 -25Z" />
<glyph unicode="~" glyph-name="asciitilde" horiz-adv-x="451" d="M308 417T284 432T228 477Q212 493 201 500T177 508Q155 508 144 485T133 431L48 437Q49 485 67 526T121 592T201 613Q228 612 248 598T294 556Q316 534 327 526T351 517Q371 517 379 541T389
599L474 593Q476 544 459 504T413 440T348 417Q308 417 284 432Z" />
<glyph unicode="&#xa0;" glyph-name="uni00A0" horiz-adv-x="300" />
<glyph unicode="&#xa1;" glyph-name="exclamdown" horiz-adv-x="202" d="M172 565T194 547T216 498Q216 466 191 444T130 421Q95 421 74 440T53 490Q53 524 76 544T135 565Q172 565 194 547ZM-21 -214L49 352H174L104 -214H-21Z" />
<glyph unicode="&#xa2;" glyph-name="cent" horiz-adv-x="485" d="M422 28Q397 12 364 2T295 -12L288 -68H204L211 -7Q140 8 89 56T37 197Q37 256 63 312T141 405T267 447L274 506H358L350 440Q422 425 469 378L390 293Q366 315 336 325L309 101Q342 104 363 120L422
28ZM178 179T191 155T227 117L252 324Q219 311 199 280T178 207Q178 179 191 155Z" />
<glyph unicode="&#xa3;" glyph-name="sterling" horiz-adv-x="585" d="M492 212L618 213L608 132Q600 71 560 36T450 0H30L47 140H92Q114 140 125 144T143 163T154 213L162 278H96L113 418H179L196 560Q202 608 237 648T329 713T456 737Q530 737 581 708T653 627L539
555Q500 597 442 597Q393 597 367 575T335 504L324 418H468L451 278H307L302 234L299 217Q289 162 273 140H439Q484 140 488 179L492 212Z" />
<glyph unicode="&#xa4;" glyph-name="currency" horiz-adv-x="507" d="M433 401T433 370Q433 357 432 351Q428 310 400 272L420 246L355 191Q349 197 344 204T332 217Q298 202 258 202Q215 202 176 226L148 203L96 265L123 288Q110 317 110 350Q110 404 142 447L122
473L187 528L208 503Q251 519 281 519Q327 519 366 493L393 515L445 453L420 432Q433 401 433 370ZM194 326T215 305T266 283Q299 283 324 307T350 364Q350 394 329 416T278 438Q244 438 219 414T194 355Q194 326 215 305Z" />
<glyph unicode="&#xa5;" glyph-name="yen" horiz-adv-x="722" d="M448 315H576L562 202H430L427 177H559L545 64H413L405 0H260L268 64H157L171 177H282L285 202H173L187 315H295L79 736H258L394 467L592 736H771L448 315Z" />
<glyph unicode="&#xa6;" glyph-name="brokenbar" horiz-adv-x="219" d="M265 714L221 357H95L139 714H265ZM192 119L148 -238H22L66 119H192Z" />
<glyph unicode="&#xa7;" glyph-name="section" horiz-adv-x="580" d="M453 451T497 416T541 315Q541 263 514 219T437 151Q488 113 488 43Q488 29 487 21Q480 -39 445 -87T355 -161T235 -184Q93 -175 12 -94L99 22Q144 -20 179 -37T252 -54Q287 -54 310 -36T333
15Q333 41 307 58T234 91Q165 112 117 153T68 256Q68 269 69 275Q75 326 102 359T171 406Q118 452 118 522Q118 574 141 623T215 704T342 736Q472 736 559 644L484 541Q451 575 423 590T364 608Q318 611 296 596T274 554Q274 528 301 511T380 476Q453 451 497 416ZM328
213T359 229T395 273Q400 298 371 320T310 347Q304 348 291 348Q260 348 239 335T214 303Q213 300 213 293Q213 267 236 246T291 213Q328 213 359 229Z" />
<glyph unicode="&#xa8;" glyph-name="dieresis" horiz-adv-x="378" d="M51 576T75 598T128 621Q153 621 172 601T192 552Q192 519 169 498T117 476Q90 476 71 495T51 544Q51 576 75 598ZM250 576T273 598T326 621Q351 621 371 601T391 552Q391 519 368 498T316
476Q289 476 270 495T250 543Q250 576 273 598Z" />
<glyph unicode="&#xa9;" glyph-name="copyright" horiz-adv-x="881" d="M327 -71T243 -24T110 106T61 289Q61 312 64 336Q77 439 136 521T284 650T474 696Q577 696 661 649T794 520T843 337Q843 314 840 288Q827 186 768 104T620 -24T430 -71Q327 -71 243 -24ZM509
41T570 73T670 164T719 296Q722 316 722 335Q722 406 689 463T598 552T466 584Q395 584 334 552T232 461T183 328Q181 316 181 291Q181 220 214 163T305 74T438 41Q509 41 570 73ZM577 145T534 127T441 108Q389 108 347 134T280 203T255 299Q255 306 257 324Q268
413 325 467T470 521Q507 521 552 508T620 470L551 366Q539 382 522 389T483 398Q447 399 424 371T401 306Q401 275 419 255T472 234Q494 234 516 243T555 270L607 172Q577 145 534 127Z" />
<glyph unicode="&#xaa;" glyph-name="ordfeminine" horiz-adv-x="389" d="M400 724L365 434H259L263 466Q224 427 175 427Q126 427 97 457T67 547Q67 557 69 579Q74 625 95 661T147 716T210 736Q243 736 261 726T292 697L300 724H400ZM281 611Q273 651 236 651Q211
651 193 628T175 570Q175 545 187 529T220 512Q237 512 249 521T273 550L281 611Z" />
<glyph unicode="&#xab;" glyph-name="guillemotleft" horiz-adv-x="613" d="M348 448L331 306L282 244L315 181L298 39L149 244L348 448ZM523 448L506 307L456 244L490 181L473 39L323 244L523 448Z" />
<glyph unicode="&#xac;" glyph-name="logicalnot" horiz-adv-x="467" d="M431 329L401 91H256L268 189H46L64 329H431Z" />
<glyph unicode="&#xad;" glyph-name="uni00AD" horiz-adv-x="600" d="M278 290L263 168H75L90 290H278Z" />
<glyph unicode="&#xae;" glyph-name="registered" horiz-adv-x="567" d="M398 735T454 705T542 620T574 499Q574 488 572 466Q564 399 525 345T427 261T301 230Q233 230 178 261T90 347T57 467Q57 476 59 498Q67 566 106 620T205 705T331 735Q398 735 454 705ZM493
543T472 580T412 639T326 660Q275 660 232 636T164 567T139 468Q139 422 160 385T220 326T305 305Q356 305 399 329T467 398T493 496Q493 543 472 580ZM387 611T407 590T427 534Q427 506 416 482T379 448L402 369H319L303 441H295L285 369H211L241 611H346Q387
611 407 590ZM302 498H319Q333 497 339 502T347 520Q349 550 325 551H308L302 498Z" />
<glyph unicode="&#xaf;" glyph-name="overscore" horiz-adv-x="408" d="M390 556L381 479H146L155 556H390Z" />
<glyph unicode="&#xb0;" glyph-name="degree" horiz-adv-x="287" d="M22 599T39 627T85 671T147 687Q194 687 225 656T256 579Q256 545 239 517T194 472T134 455Q86 455 54 487T22 565Q22 599 39 627ZM155 529T168 540T183 567Q185 584 174 597T146 612Q127 613
114 600T100 567Q100 551 111 540T138 529Q155 529 168 540Z" />
<glyph unicode="&#xb1;" glyph-name="plusminus" horiz-adv-x="535" d="M406 582L391 458H511L496 337H376L361 215H234L249 337H129L144 458H264L279 582H406ZM477 183L462 61H95L110 183H477Z" />
<glyph unicode="&#xb2;" glyph-name="uni00B2" horiz-adv-x="408" d="M406 515T374 470T288 381H398L384 265H68L78 346Q139 374 193 417T254 509Q255 515 255 526Q255 575 210 575Q189 575 163 562T123 531L95 623Q117 652 164 671T260 691Q327 691 366 658T406
567Q406 515 374 470Z" />
<glyph unicode="&#xb3;" glyph-name="uni00B3" horiz-adv-x="375" d="M304 508T326 479T349 415Q349 407 348 403Q343 363 319 331T255 279T167 260Q126 260 97 275T51 311L99 392Q114 373 128 360T160 350Q187 355 202 368T222 407Q226 435 209 452T164 470Q156
470 145 468T128 462L122 474L199 580H100L113 680H371L273 524Q304 508 326 479Z" />
<glyph unicode="&#xb4;" glyph-name="acute" horiz-adv-x="312" d="M187 489H102L180 624H335L187 489Z" />
<glyph unicode="&#xb5;" glyph-name="uni00B5" horiz-adv-x="584" d="M539 437L485 0H358L357 71Q328 28 284 4T184 -21Q175 -21 159 -19L137 -201H22L59 110L99 437H239L205 162Q203 131 215 115T256 98Q302 98 335 143T377 259L399 437H539Z" />
<glyph unicode="&#xb6;" glyph-name="paragraph" horiz-adv-x="592" d="M216 431T183 451T130 505T111 581Q111 630 137 672T206 740T299 765H590L496 0H372L451 644H409L330 0H205L258 431Q216 431 183 451Z" />
<glyph unicode="&#xb7;" glyph-name="middot" horiz-adv-x="242" d="M58 314T83 338T140 362Q164 362 182 343T201 296Q201 262 176 240T122 217Q96 217 77 235T58 281Q58 314 83 338Z" />
<glyph unicode="&#xb8;" glyph-name="cedilla" horiz-adv-x="461" d="M264 -40T293 -63T322 -122Q322 -178 277 -206T166 -235Q82 -235 42 -183L91 -130Q99 -144 115 -152T151 -161Q171 -161 188 -152T206 -124Q206 -92 150 -92Q126 -92 96 -99L85 -32L149 3H255L217
-35Q264 -40 293 -63Z" />
<glyph unicode="&#xb9;" glyph-name="uni00B9" horiz-adv-x="284" d="M280 680L230 265H100L135 555H67L82 680H280Z" />
<glyph unicode="&#xba;" glyph-name="ordmasculine" horiz-adv-x="374" d="M69 615T91 653T152 713T239 735Q310 735 351 696T393 593Q393 520 347 473T225 426Q155 426 112 464T69 566Q69 615 91 653ZM177 550T191 534T227 518Q252 518 269 538T286 587Q286 611
273 627T236 643Q212 643 195 623T177 574Q177 550 191 534Z" />
<glyph unicode="&#xbb;" glyph-name="guillemotright" horiz-adv-x="613" d="M115 39L98 181L132 244L82 307L65 448L265 244L115 39ZM290 39L273 181L306 244L257 306L240 448L439 244L290 39Z" />
<glyph unicode="&#xbc;" glyph-name="onequarter" horiz-adv-x="934" d="M280 680L230 265H100L135 555H67L82 680H280ZM355 0H229L608 770H734L355 0ZM880 104H832L820 10H700L711 104H533L535 138L784 432H872L841 182H889L880 104ZM721 182L730 252L673 182H721Z" />
<glyph unicode="&#xbd;" glyph-name="onehalf" horiz-adv-x="956" d="M305 680L255 265H125L160 555H92L107 680H305ZM320 0H194L573 770H699L320 0ZM876 248T844 203T758 114H868L854 -2H538L548 79Q609 107 663 150T724 242Q725 248 725 259Q725 308 680 308Q659
308 633 295T593 264L565 356Q587 385 634 404T730 424Q797 424 836 391T876 300Q876 248 844 203Z" />
<glyph unicode="&#xbe;" glyph-name="threequarters" horiz-adv-x="974" d="M314 508T336 479T359 415Q359 407 358 403Q353 363 329 331T265 279T177 260Q136 260 107 275T61 311L109 392Q124 373 138 360T170 350Q197 355 212 368T232 407Q236 435 219 452T174
470Q166 470 155 468T138 462L132 474L209 580H110L123 680H381L283 524Q314 508 336 479ZM387 0H261L640 770H766L387 0ZM919 94H871L859 0H739L750 94H572L574 128L823 422H911L880 172H928L919 94ZM760 172L769 242L712 172H760Z" />
<glyph unicode="&#xbf;" glyph-name="questiondown" horiz-adv-x="444" d="M337 553T356 535T375 489Q375 456 349 433T293 409Q269 409 251 428T232 475Q232 509 256 531T311 553Q337 553 356 535ZM333 238T320 215T288 178T237 143Q230 138 222 133T205 122Q110
57 110 -19Q110 -49 126 -67T173 -86Q209 -86 229 -78T261 -52T288 1Q350 -23 392 -40Q373 -84 352 -117T282 -179T158 -208Q108 -208 68 -184T4 -119T-19 -29Q-19 33 12 81T105 171Q111 175 140 194T189 238T214 292L224 372H349L337 273Q333 238 320 215Z" />
<glyph unicode="&#xc0;" glyph-name="Agrave" horiz-adv-x="696" d="M446 144H202L124 0H-19L407 765H415L653 0H485L446 144ZM413 266L364 445L267 266H413ZM455 797H370L238 932H393L455 797Z" />
<glyph unicode="&#xc1;" glyph-name="Aacute" horiz-adv-x="696" d="M446 144H202L124 0H-19L407 765H415L653 0H485L446 144ZM413 266L364 445L267 266H413ZM465 797H380L458 932H613L465 797Z" />
<glyph unicode="&#xc2;" glyph-name="Acircumflex" horiz-adv-x="696" d="M446 144H202L124 0H-19L407 765H415L653 0H485L446 144ZM413 266L364 445L267 266H413ZM483 797L425 859L360 797H234L441 981H442L609 797H483Z" />
<glyph unicode="&#xc3;" glyph-name="Atilde" horiz-adv-x="696" d="M446 144H202L124 0H-19L407 765H415L653 0H485L446 144ZM413 266L364 445L267 266H413ZM456 763T432 778T376 823Q360 839 349 846T325 854Q303 854 292 831T281 777L196 783Q197 831 215 872T269
938T349 959Q376 958 396 944T442 902Q464 880 475 872T499 863Q519 863 527 887T537 945L622 939Q624 890 607 850T561 786T496 763Q456 763 432 778Z" />
<glyph unicode="&#xc4;" glyph-name="Adieresis" horiz-adv-x="696" d="M446 144H202L124 0H-19L407 765H415L653 0H485L446 144ZM413 266L364 445L267 266H413ZM253 884T277 906T330 929Q355 929 374 909T394 860Q394 827 371 806T319 784Q292 784 273 803T253
852Q253 884 277 906ZM452 884T475 906T528 929Q553 929 573 909T593 860Q593 827 570 806T518 784Q491 784 472 803T452 851Q452 884 475 906Z" />
<glyph unicode="&#xc5;" glyph-name="Aring" horiz-adv-x="696" d="M446 144H202L124 0H-19L407 765H415L653 0H485L446 144ZM413 266L364 445L267 266H413ZM319 918T351 948T435 978Q481 978 511 952T542 881Q542 831 509 800T426 769Q379 769 349 796T319 867Q319
918 351 948ZM392 851T401 842T426 831Q446 830 458 843T470 878Q470 911 436 914Q416 915 404 903T392 867Q392 851 401 842Z" />
<glyph unicode="&#xc6;" glyph-name="AE" horiz-adv-x="971" d="M677 596L657 437H883L866 297H640L621 140H902L885 0H459L479 161H264L146 0H-22L549 736H961L944 596H677ZM493 276L522 512L349 276H493Z" />
<glyph unicode="&#xc7;" glyph-name="Ccedilla" horiz-adv-x="700" d="M609 30T570 15T484 -8L457 -35Q504 -40 533 -63T562 -122Q562 -178 517 -206T406 -235Q322 -235 282 -183L331 -130Q339 -144 355 -152T391 -161Q411 -161 428 -152T446 -124Q446 -92 390
-92Q366 -92 336 -99L325 -32L366 -10Q288 0 221 37T111 147T68 329Q68 439 109 532T236 683T448 741Q523 741 584 719T689 663L615 530Q584 559 542 580T446 601Q379 601 328 568T249 476T220 340Q220 245 275 187T426 128Q481 128 515 142T584 177L628 43Q609
30 570 15Z" />
<glyph unicode="&#xc8;" glyph-name="Egrave" horiz-adv-x="667" d="M657 736L641 601H289L269 437H580L563 299H252L232 139H598L581 0H65L155 736H657ZM444 782H359L227 917H382L444 782Z" />
<glyph unicode="&#xc9;" glyph-name="Eacute" horiz-adv-x="667" d="M657 736L641 601H289L269 437H580L563 299H252L232 139H598L581 0H65L155 736H657ZM454 782H369L447 917H602L454 782Z" />
<glyph unicode="&#xca;" glyph-name="Ecircumflex" horiz-adv-x="667" d="M657 736L641 601H289L269 437H580L563 299H252L232 139H598L581 0H65L155 736H657ZM472 782L414 844L349 782H223L430 966H431L598 782H472Z" />
<glyph unicode="&#xcb;" glyph-name="Edieresis" horiz-adv-x="667" d="M657 736L641 601H289L269 437H580L563 299H252L232 139H598L581 0H65L155 736H657ZM242 869T266 891T319 914Q344 914 363 894T383 845Q383 812 360 791T308 769Q281 769 262 788T242 837Q242
869 266 891ZM441 869T464 891T517 914Q542 914 562 894T582 845Q582 812 559 791T507 769Q480 769 461 788T441 836Q441 869 464 891Z" />
<glyph unicode="&#xcc;" glyph-name="Igrave" horiz-adv-x="341" d="M305 736L215 0H65L155 736H305ZM274 782H189L57 917H212L274 782Z" />
<glyph unicode="&#xcd;" glyph-name="Iacute" horiz-adv-x="341" d="M305 736L215 0H65L155 736H305ZM284 782H199L277 917H432L284 782Z" />
<glyph unicode="&#xce;" glyph-name="Icircumflex" horiz-adv-x="341" d="M305 736L215 0H65L155 736H305ZM302 782L244 844L179 782H53L260 966H261L428 782H302Z" />
<glyph unicode="&#xcf;" glyph-name="Idieresis" horiz-adv-x="341" d="M305 736L215 0H65L155 736H305ZM72 869T96 891T149 914Q174 914 193 894T213 845Q213 812 190 791T138 769Q111 769 92 788T72 837Q72 869 96 891ZM271 869T294 891T347 914Q372 914 392
894T412 845Q412 812 389 791T337 769Q310 769 291 788T271 836Q271 869 294 891Z" />
<glyph unicode="&#xd0;" glyph-name="Eth" horiz-adv-x="767" d="M528 736T600 691T704 573T737 411Q737 384 734 355Q722 249 667 168T529 44T353 0H65L99 281H39L57 421H116L155 736H415Q528 736 600 691ZM589 386T589 405Q589 478 558 520T483 580T401 597H283L261
421H332L314 281H244L227 140H345Q445 140 509 198T586 365Q589 386 589 405Z" />
<glyph unicode="&#xd1;" glyph-name="Ntilde" horiz-adv-x="853" d="M817 736L723 -30H719L261 435L211 0H64L158 765H164L620 292L671 736H817ZM521 718T497 733T441 778Q425 794 414 801T390 809Q368 809 357 786T346 732L261 738Q262 786 280 827T334 893T414
914Q441 913 461 899T507 857Q529 835 540 827T564 818Q584 818 592 842T602 900L687 894Q689 845 672 805T626 741T561 718Q521 718 497 733Z" />
<glyph unicode="&#xd2;" glyph-name="Ograve" horiz-adv-x="852" d="M332 -7T251 31T119 147T68 343Q68 437 113 529T250 682T468 743Q557 743 638 705T770 589T821 393Q821 299 776 207T639 54T421 -7Q332 -7 251 31ZM508 133T564 171T645 267T671 385Q671 443
644 493T569 573T462 603Q377 603 322 565T243 469T218 351Q218 293 244 243T317 163T423 133Q508 133 564 171ZM510 782H425L293 917H448L510 782Z" />
<glyph unicode="&#xd3;" glyph-name="Oacute" horiz-adv-x="852" d="M332 -7T251 31T119 147T68 343Q68 437 113 529T250 682T468 743Q557 743 638 705T770 589T821 393Q821 299 776 207T639 54T421 -7Q332 -7 251 31ZM508 133T564 171T645 267T671 385Q671 443
644 493T569 573T462 603Q377 603 322 565T243 469T218 351Q218 293 244 243T317 163T423 133Q508 133 564 171ZM520 782H435L513 917H668L520 782Z" />
<glyph unicode="&#xd4;" glyph-name="Ocircumflex" horiz-adv-x="852" d="M332 -7T251 31T119 147T68 343Q68 437 113 529T250 682T468 743Q557 743 638 705T770 589T821 393Q821 299 776 207T639 54T421 -7Q332 -7 251 31ZM508 133T564 171T645 267T671 385Q671
443 644 493T569 573T462 603Q377 603 322 565T243 469T218 351Q218 293 244 243T317 163T423 133Q508 133 564 171ZM538 782L480 844L415 782H289L496 966H497L664 782H538Z" />
<glyph unicode="&#xd5;" glyph-name="Otilde" horiz-adv-x="852" d="M332 -7T251 31T119 147T68 343Q68 437 113 529T250 682T468 743Q557 743 638 705T770 589T821 393Q821 299 776 207T639 54T421 -7Q332 -7 251 31ZM508 133T564 171T645 267T671 385Q671 443
644 493T569 573T462 603Q377 603 322 565T243 469T218 351Q218 293 244 243T317 163T423 133Q508 133 564 171ZM511 748T487 763T431 808Q415 824 404 831T380 839Q358 839 347 816T336 762L251 768Q252 816 270 857T324 923T404 944Q431 943 451 929T497 887Q519
865 530 857T554 848Q574 848 582 872T592 930L677 924Q679 875 662 835T616 771T551 748Q511 748 487 763Z" />
<glyph unicode="&#xd6;" glyph-name="Odieresis" horiz-adv-x="852" d="M332 -7T251 31T119 147T68 343Q68 437 113 529T250 682T468 743Q557 743 638 705T770 589T821 393Q821 299 776 207T639 54T421 -7Q332 -7 251 31ZM508 133T564 171T645 267T671 385Q671
443 644 493T569 573T462 603Q377 603 322 565T243 469T218 351Q218 293 244 243T317 163T423 133Q508 133 564 171ZM308 869T332 891T385 914Q410 914 429 894T449 845Q449 812 426 791T374 769Q347 769 328 788T308 837Q308 869 332 891ZM507 869T530 891T583
914Q608 914 628 894T648 845Q648 812 625 791T573 769Q546 769 527 788T507 836Q507 869 530 891Z" />
<glyph unicode="&#xd7;" glyph-name="multiply" horiz-adv-x="528" d="M347 318L412 376Q421 367 458 322L503 268Q451 222 418 190L462 139Q478 119 487 109L363 0Q356 8 322 45L291 79L241 34L206 2Q173 38 111 108L161 153Q187 175 200 187L127 269L249 380L323
296L347 318Z" />
<glyph unicode="&#xd8;" glyph-name="Oslash" horiz-adv-x="858" d="M769 589Q821 506 821 393Q821 299 776 207T639 54T421 -7Q317 -7 229 42L165 -23L101 40L158 98Q116 142 92 203T68 343Q68 437 113 529T250 682T468 743Q535 743 598 722T711 657L792 739L854
675L769 589ZM218 311T230 275T267 208L603 547Q544 603 462 603Q377 603 322 565T243 469T218 351Q218 311 230 275ZM671 430T654 472L337 152Q378 133 423 133Q508 133 564 171T645 267T671 385Q671 430 654 472Z" />
<glyph unicode="&#xd9;" glyph-name="Ugrave" horiz-adv-x="787" d="M247 267T247 257Q247 225 264 197T311 151T378 133Q418 133 454 153T515 205T544 272L601 736H751L694 269Q684 190 637 127T516 28T361 -8Q285 -8 225 22T130 108T96 234Q96 245 98 269L155
736H305L248 272Q247 267 247 257ZM503 782H418L286 917H441L503 782Z" />
<glyph unicode="&#xda;" glyph-name="Uacute" horiz-adv-x="787" d="M247 267T247 257Q247 225 264 197T311 151T378 133Q418 133 454 153T515 205T544 272L601 736H751L694 269Q684 190 637 127T516 28T361 -8Q285 -8 225 22T130 108T96 234Q96 245 98 269L155
736H305L248 272Q247 267 247 257ZM513 782H428L506 917H661L513 782Z" />
<glyph unicode="&#xdb;" glyph-name="Ucircumflex" horiz-adv-x="787" d="M247 267T247 257Q247 225 264 197T311 151T378 133Q418 133 454 153T515 205T544 272L601 736H751L694 269Q684 190 637 127T516 28T361 -8Q285 -8 225 22T130 108T96 234Q96 245 98 269L155
736H305L248 272Q247 267 247 257ZM531 782L473 844L408 782H282L489 966H490L657 782H531Z" />
<glyph unicode="&#xdc;" glyph-name="Udieresis" horiz-adv-x="787" d="M247 267T247 257Q247 225 264 197T311 151T378 133Q418 133 454 153T515 205T544 272L601 736H751L694 269Q684 190 637 127T516 28T361 -8Q285 -8 225 22T130 108T96 234Q96 245 98 269L155
736H305L248 272Q247 267 247 257ZM301 869T325 891T378 914Q403 914 422 894T442 845Q442 812 419 791T367 769Q340 769 321 788T301 837Q301 869 325 891ZM500 869T523 891T576 914Q601 914 621 894T641 845Q641 812 618 791T566 769Q539 769 520 788T500 836Q500
869 523 891Z" />
<glyph unicode="&#xdd;" glyph-name="Yacute" horiz-adv-x="722" d="M771 736L433 229L405 0H260L288 229L79 736H258L385 396L592 736H771ZM465 788H380L458 923H613L465 788Z" />
<glyph unicode="&#xde;" glyph-name="Thorn" horiz-adv-x="617" d="M486 616T552 558T618 399Q618 330 588 265T493 156T327 113H228L214 0H64L152 714H302L290 616H363Q486 616 552 558ZM382 254T411 274T453 324T466 378Q466 414 445 445T366 476H272L245 254H338Q382
254 411 274Z" />
<glyph unicode="&#xdf;" glyph-name="germandbls" horiz-adv-x="638" d="M338 -7T303 6T252 39L311 126Q321 115 338 107T369 98Q415 98 431 145T447 238Q447 282 428 305T372 330L366 331L380 452Q410 449 425 466T441 509Q441 533 427 544T384 556Q336 556 311
523T272 419L191 0H51L114 327H49L71 441H136L143 484Q158 576 229 623T405 670Q486 670 535 631T584 519Q584 480 563 446T505 395Q546 371 566 332T587 224Q587 169 569 116T503 27T374 -7Q338 -7 303 6Z" />
<glyph unicode="&#xe0;" glyph-name="agrave" horiz-adv-x="618" d="M572 437L519 0H379L385 54Q313 -12 216 -10Q172 -11 131 14T64 89T38 203Q38 268 70 327T158 422T284 459Q342 459 374 441T427 392L442 437H572ZM412 275Q404 307 377 326T310 345Q267 345
239 326T197 278T183 220Q183 166 213 134T295 102Q325 102 352 118T399 168L412 275ZM404 522H319L187 657H342L404 522Z" />
<glyph unicode="&#xe1;" glyph-name="aacute" horiz-adv-x="618" d="M572 437L519 0H379L385 54Q313 -12 216 -10Q172 -11 131 14T64 89T38 203Q38 268 70 327T158 422T284 459Q342 459 374 441T427 392L442 437H572ZM412 275Q404 307 377 326T310 345Q267 345
239 326T197 278T183 220Q183 166 213 134T295 102Q325 102 352 118T399 168L412 275ZM414 522H329L407 657H562L414 522Z" />
<glyph unicode="&#xe2;" glyph-name="acircumflex" horiz-adv-x="618" d="M572 437L519 0H379L385 54Q313 -12 216 -10Q172 -11 131 14T64 89T38 203Q38 268 70 327T158 422T284 459Q342 459 374 441T427 392L442 437H572ZM412 275Q404 307 377 326T310 345Q267
345 239 326T197 278T183 220Q183 166 213 134T295 102Q325 102 352 118T399 168L412 275ZM432 522L374 584L309 522H183L390 706H391L558 522H432Z" />
<glyph unicode="&#xe3;" glyph-name="atilde" horiz-adv-x="618" d="M572 437L519 0H379L385 54Q313 -12 216 -10Q172 -11 131 14T64 89T38 203Q38 268 70 327T158 422T284 459Q342 459 374 441T427 392L442 437H572ZM412 275Q404 307 377 326T310 345Q267 345
239 326T197 278T183 220Q183 166 213 134T295 102Q325 102 352 118T399 168L412 275ZM405 488T381 503T325 548Q309 564 298 571T274 579Q252 579 241 556T230 502L145 508Q146 556 164 597T218 663T298 684Q325 683 345 669T391 627Q413 605 424 597T448 588Q468
588 476 612T486 670L571 664Q573 615 556 575T510 511T445 488Q405 488 381 503Z" />
<glyph unicode="&#xe4;" glyph-name="adieresis" horiz-adv-x="618" d="M572 437L519 0H379L385 54Q313 -12 216 -10Q172 -11 131 14T64 89T38 203Q38 268 70 327T158 422T284 459Q342 459 374 441T427 392L442 437H572ZM412 275Q404 307 377 326T310 345Q267
345 239 326T197 278T183 220Q183 166 213 134T295 102Q325 102 352 118T399 168L412 275ZM202 609T226 631T279 654Q304 654 323 634T343 585Q343 552 320 531T268 509Q241 509 222 528T202 577Q202 609 226 631ZM401 609T424 631T477 654Q502 654 522 634T542
585Q542 552 519 531T467 509Q440 509 421 528T401 576Q401 609 424 631Z" />
<glyph unicode="&#xe5;" glyph-name="aring" horiz-adv-x="618" d="M572 437L519 0H379L385 54Q313 -12 216 -10Q172 -11 131 14T64 89T38 203Q38 268 70 327T158 422T284 459Q342 459 374 441T427 392L442 437H572ZM412 275Q404 307 377 326T310 345Q267 345
239 326T197 278T183 220Q183 166 213 134T295 102Q325 102 352 118T399 168L412 275ZM268 643T300 673T384 703Q430 703 460 677T491 606Q491 556 458 525T375 494Q328 494 298 521T268 592Q268 643 300 673ZM341 576T350 567T375 556Q395 555 407 568T419 603Q419
636 385 639Q365 640 353 628T341 592Q341 576 350 567Z" />
<glyph unicode="&#xe6;" glyph-name="ae" horiz-adv-x="836" d="M608 107T651 130L700 23Q666 7 628 -2T555 -12Q512 -12 461 2T373 54Q306 -11 195 -11Q156 -11 117 3T53 48T27 121Q27 154 46 187T109 242T221 264Q281 264 312 254L313 259Q314 265 314 275Q314
345 226 345Q194 345 166 328T118 288L59 380Q148 458 259 458Q296 458 342 446T420 401Q456 428 499 443T590 458Q671 458 735 411T809 231L465 183Q475 139 507 123T569 107Q608 107 651 130ZM532 349T505 325T467 258L659 285Q642 349 570 349Q532 349 505 325ZM268
84T292 95T332 123Q326 143 325 154Q287 171 244 171Q209 171 196 157T182 125Q182 102 199 93T244 83Q268 84 292 95Z" />
<glyph unicode="&#xe7;" glyph-name="ccedilla" horiz-adv-x="468" d="M364 -9T285 -12Q284 -29 289 -37T306 -51T321 -62Q349 -87 349 -133Q349 -166 334 -198T287 -250T213 -271Q173 -271 143 -249T104 -184L174 -148Q176 -162 186 -171T213 -180Q236 -180 247
-165T259 -128Q259 -117 254 -110T238 -94Q223 -81 216 -70T208 -38Q208 -30 209 -25L212 -2Q148 18 109 72T69 196Q69 263 106 321T204 414T334 449Q415 449 478 398L393 311Q366 335 320 335Q261 335 224 299T186 206Q186 161 214 132T291 102Q337 102 370 127Q383
110 405 76L430 39Q364 -9 285 -12Z" />
<glyph unicode="&#xe8;" glyph-name="egrave" horiz-adv-x="555" d="M324 107T369 131L418 23Q385 7 348 -2T278 -11Q167 -11 103 46T39 215Q39 271 66 327T152 420T298 457Q388 457 450 408T528 231L201 150Q217 127 241 117T293 107Q324 107 369 131ZM236 348T208
314T179 231V228L378 280Q370 312 347 330T293 348Q236 348 208 314ZM348 532H263L131 667H286L348 532Z" />
<glyph unicode="&#xe9;" glyph-name="eacute" horiz-adv-x="451" d="M324 107T369 131L418 23Q385 7 348 -2T278 -11Q167 -11 103 46T39 215Q39 271 66 327T152 420T298 457Q388 457 450 408T528 231L201 150Q217 127 241 117T293 107Q324 107 369 131ZM236 348T208
314T179 231V228L378 280Q370 312 347 330T293 348Q236 348 208 314ZM270 489H185L263 624H418L270 489Z" />
<glyph unicode="&#xea;" glyph-name="ecircumflex" horiz-adv-x="555" d="M324 107T369 131L418 23Q385 7 348 -2T278 -11Q167 -11 103 46T39 215Q39 271 66 327T152 420T298 457Q388 457 450 408T528 231L201 150Q217 127 241 117T293 107Q324 107 369 131ZM236
348T208 314T179 231V228L378 280Q370 312 347 330T293 348Q236 348 208 314ZM376 532L318 594L253 532H127L334 716H335L502 532H376Z" />
<glyph unicode="&#xeb;" glyph-name="edieresis" horiz-adv-x="555" d="M324 107T369 131L418 23Q385 7 348 -2T278 -11Q167 -11 103 46T39 215Q39 271 66 327T152 420T298 457Q388 457 450 408T528 231L201 150Q217 127 241 117T293 107Q324 107 369 131ZM236
348T208 314T179 231V228L378 280Q370 312 347 330T293 348Q236 348 208 314ZM146 619T170 641T223 664Q248 664 267 644T287 595Q287 562 264 541T212 519Q185 519 166 538T146 587Q146 619 170 641ZM345 619T368 641T421 664Q446 664 466 644T486 595Q486 562
463 541T411 519Q384 519 365 538T345 586Q345 619 368 641Z" />
<glyph unicode="&#xec;" glyph-name="igrave" horiz-adv-x="284" d="M239 437L185 0H45L99 437H239ZM468 489H383L251 624H406L468 489Z" />
<glyph unicode="&#xed;" glyph-name="iacute" horiz-adv-x="284" d="M239 437L185 0H45L99 437H239ZM222 489H137L215 624H370L222 489Z" />
<glyph unicode="&#xee;" glyph-name="icircumflex" horiz-adv-x="284" d="M239 437L185 0H45L99 437H239ZM496 489L438 551L373 489H247L454 673H455L622 489H496Z" />
<glyph unicode="&#xef;" glyph-name="idieresis" horiz-adv-x="284" d="M239 437L185 0H45L99 437H239ZM266 576T290 598T343 621Q368 621 387 601T407 552Q407 519 384 498T332 476Q305 476 286 495T266 544Q266 576 290 598ZM465 576T488 598T541 621Q566 621
586 601T606 552Q606 519 583 498T531 476Q504 476 485 495T465 543Q465 576 488 598Z" />
<glyph unicode="&#xf0;" glyph-name="eth" horiz-adv-x="571" d="M543 482T543 332Q543 246 515 168T425 40T266 -11Q222 -11 169 8T76 83T41 241Q43 293 69 343T145 427T262 460Q299 460 334 445T394 401Q384 480 342 551L245 501L211 597L280 632Q254 662 210
704L325 790Q375 746 412 700L508 749L542 654L469 616Q543 482 543 332ZM390 298T356 321T286 344Q248 344 223 321T187 267T175 208Q175 151 208 127T278 103Q327 104 358 143T390 240Q390 298 356 321Z" />
<glyph unicode="&#xf1;" glyph-name="ntilde" horiz-adv-x="595" d="M468 458T504 422T536 327L496 0H356L390 275Q392 306 379 322T333 339Q285 339 251 294T208 178L186 0H46L99 437H226L228 372Q257 412 303 435T406 458Q468 458 504 422ZM381 518T357 533T301
578Q285 594 274 601T250 609Q228 609 217 586T206 532L121 538Q122 586 140 627T194 693T274 714Q301 713 321 699T367 657Q389 635 400 627T424 618Q444 618 452 642T462 700L547 694Q549 645 532 605T486 541T421 518Q381 518 357 533Z" />
<glyph unicode="&#xf2;" glyph-name="ograve" horiz-adv-x="573" d="M223 -12T168 11T75 83T38 204Q38 263 64 321T148 418T297 457Q357 457 412 432T501 357T536 241Q536 189 513 131T432 31T279 -12Q223 -12 168 11ZM340 103T367 144T394 235Q394 296 361 319T292
343Q254 343 229 323T191 272T179 211Q179 151 212 127T283 103Q340 103 367 144ZM345 502H260L128 637H283L345 502Z" />
<glyph unicode="&#xf3;" glyph-name="oacute" horiz-adv-x="573" d="M223 -12T168 11T75 83T38 204Q38 263 64 321T148 418T297 457Q357 457 412 432T501 357T536 241Q536 189 513 131T432 31T279 -12Q223 -12 168 11ZM340 103T367 144T394 235Q394 296 361 319T292
343Q254 343 229 323T191 272T179 211Q179 151 212 127T283 103Q340 103 367 144ZM355 502H270L348 637H503L355 502Z" />
<glyph unicode="&#xf4;" glyph-name="ocircumflex" horiz-adv-x="573" d="M223 -12T168 11T75 83T38 204Q38 263 64 321T148 418T297 457Q357 457 412 432T501 357T536 241Q536 189 513 131T432 31T279 -12Q223 -12 168 11ZM340 103T367 144T394 235Q394 296 361
319T292 343Q254 343 229 323T191 272T179 211Q179 151 212 127T283 103Q340 103 367 144ZM373 502L315 564L250 502H124L331 686H332L499 502H373Z" />
<glyph unicode="&#xf5;" glyph-name="otilde" horiz-adv-x="573" d="M223 -12T168 11T75 83T38 204Q38 263 64 321T148 418T297 457Q357 457 412 432T501 357T536 241Q536 189 513 131T432 31T279 -12Q223 -12 168 11ZM340 103T367 144T394 235Q394 296 361 319T292
343Q254 343 229 323T191 272T179 211Q179 151 212 127T283 103Q340 103 367 144ZM602 468T578 483T522 528Q506 544 495 551T471 559Q449 559 438 536T427 482L342 488Q343 536 361 577T415 643T495 664Q522 663 542 649T588 607Q610 585 621 577T645 568Q665
568 673 592T683 650L768 644Q770 595 753 555T707 491T642 468Q602 468 578 483Z" />
<glyph unicode="&#xf6;" glyph-name="odieresis" horiz-adv-x="573" d="M223 -12T168 11T75 83T38 204Q38 263 64 321T148 418T297 457Q357 457 412 432T501 357T536 241Q536 189 513 131T432 31T279 -12Q223 -12 168 11ZM340 103T367 144T394 235Q394 296 361
319T292 343Q254 343 229 323T191 272T179 211Q179 151 212 127T283 103Q340 103 367 144ZM143 589T167 611T220 634Q245 634 264 614T284 565Q284 532 261 511T209 489Q182 489 163 508T143 557Q143 589 167 611ZM342 589T365 611T418 634Q443 634 463 614T483
565Q483 532 460 511T408 489Q381 489 362 508T342 556Q342 589 365 611Z" />
<glyph unicode="&#xf7;" glyph-name="divide" horiz-adv-x="510" d="M237 454T262 478T318 502Q342 502 361 483T380 436Q380 402 355 380T300 357Q274 357 256 375T237 421Q237 454 262 478ZM477 329L462 208H95L110 329H477ZM198 139T223 163T279 187Q303 187
322 168T341 121Q341 87 316 65T262 42Q236 42 217 60T198 106Q198 139 223 163Z" />
<glyph unicode="&#xf8;" glyph-name="oslash" horiz-adv-x="546" d="M495 366Q536 312 536 241Q536 189 513 131T432 31T279 -12Q207 -12 147 21Q147 21 89 -37L38 14L90 66Q38 120 38 204Q38 263 64 321T148 418T297 457Q378 457 442 415L500 474L555 426L495
366ZM179 184T187 163L352 326Q325 343 292 343Q254 343 229 323T191 272T179 211Q179 184 187 163ZM394 251T391 264L238 112Q259 103 283 103Q340 103 367 144T394 235Q394 251 391 264Z" />
<glyph unicode="&#xf9;" glyph-name="ugrave" horiz-adv-x="584" d="M539 437L485 0H358L357 67Q328 26 284 3T184 -21Q128 -21 93 12T58 97L59 110L99 437H239L205 162Q203 131 215 115T256 98Q302 98 335 143T377 259L399 437H539ZM374 552H289L157 687H312L374 552Z" />
<glyph unicode="&#xfa;" glyph-name="uacute" horiz-adv-x="584" d="M539 437L485 0H358L357 67Q328 26 284 3T184 -21Q128 -21 93 12T58 97L59 110L99 437H239L205 162Q203 131 215 115T256 98Q302 98 335 143T377 259L399 437H539ZM384 552H299L377 687H532L384 552Z" />
<glyph unicode="&#xfb;" glyph-name="ucircumflex" horiz-adv-x="584" d="M539 437L485 0H358L357 67Q328 26 284 3T184 -21Q128 -21 93 12T58 97L59 110L99 437H239L205 162Q203 131 215 115T256 98Q302 98 335 143T377 259L399 437H539ZM402 552L344 614L279
552H153L360 736H361L528 552H402Z" />
<glyph unicode="&#xfc;" glyph-name="udieresis" horiz-adv-x="584" d="M539 437L485 0H358L357 67Q328 26 284 3T184 -21Q128 -21 93 12T58 97L59 110L99 437H239L205 162Q203 131 215 115T256 98Q302 98 335 143T377 259L399 437H539ZM172 639T196 661T249 684Q274
684 293 664T313 615Q313 582 290 561T238 539Q211 539 192 558T172 607Q172 639 196 661ZM371 639T394 661T447 684Q472 684 492 664T512 615Q512 582 489 561T437 539Q410 539 391 558T371 606Q371 639 394 661Z" />
<glyph unicode="&#xfd;" glyph-name="yacute" horiz-adv-x="572" d="M564 437L202 -210H67L201 23L50 437H207L290 179L438 437H564ZM328 489H243L321 624H476L328 489Z" />
<glyph unicode="&#xfe;" glyph-name="thorn" horiz-adv-x="583" d="M440 449T493 397T546 250Q546 166 513 107T420 18T285 -12Q246 -12 213 0T165 28L136 -210H19L142 789H259L211 401Q277 449 348 449Q440 449 493 397ZM351 102T384 139T418 236Q418 281 394
308T322 335Q264 335 226 299T188 206Q188 161 216 132T293 102Q351 102 384 139Z" />
<glyph unicode="&#xff;" glyph-name="ydieresis" horiz-adv-x="488" d="M564 437L202 -210H67L201 23L50 437H207L290 179L438 437H564ZM122 576T146 598T199 621Q224 621 243 601T263 552Q263 519 240 498T188 476Q161 476 142 495T122 544Q122 576 146 598ZM321
576T344 598T397 621Q422 621 442 601T462 552Q462 519 439 498T387 476Q360 476 341 495T321 543Q321 576 344 598Z" />
<glyph unicode="&#x2013;" glyph-name="endash" horiz-adv-x="519" d="M444 286L429 165H122L137 286H444Z" />
<glyph unicode="&#x2014;" glyph-name="emdash" horiz-adv-x="714" d="M648 286L633 165H121L136 286H648Z" />
<glyph unicode="&#x2018;" glyph-name="quoteleft" horiz-adv-x="167" d="M172 586T140 574Q106 614 106 671Q106 697 115 725L186 718Q179 697 179 675Q179 631 206 602Q172 586 140 574Z" />
<glyph unicode="&#x2019;" glyph-name="quoteright" horiz-adv-x="167" d="M96 602Q120 623 133 653T144 718L217 725Q220 683 203 644T154 574L96 602Z" />
<glyph unicode="&#x201a;" glyph-name="quotesinglbase" horiz-adv-x="149" d="M15 -30Q40 -8 53 22T63 87L136 94Q139 52 122 12T74 -58L15 -30Z" />
<glyph unicode="&#x201c;" glyph-name="quotedblleft" horiz-adv-x="253" d="M177 586T145 574Q111 614 111 671Q111 697 120 725L191 718Q184 697 184 675Q184 631 211 602Q177 586 145 574ZM283 586T251 574Q217 614 217 671Q217 697 226 725L297 718Q290 697
290 675Q290 631 317 602Q283 586 251 574Z" />
<glyph unicode="&#x201d;" glyph-name="quotedblright" horiz-adv-x="253" d="M66 602Q90 623 103 653T114 718L187 725Q190 683 173 644T124 574L66 602ZM172 602Q196 623 209 653T220 718L293 725Q296 683 279 644T230 574L172 602Z" />
<glyph unicode="&#x201e;" glyph-name="quotedblbase" horiz-adv-x="410" d="M15 -30Q40 -8 53 22T63 87L136 94Q139 52 122 12T74 -58L15 -30ZM121 -30Q146 -8 159 22T169 87L242 94Q245 52 228 12T180 -58L121 -30Z" />
<glyph unicode="&#x2022;" glyph-name="bullet" horiz-adv-x="488" d="M116 338T142 380T211 448T302 473Q344 473 377 453T430 399T449 323Q449 274 423 233T354 167T261 142Q198 142 157 184T116 289Q116 338 142 380Z" />
<glyph unicode="&#x2039;" glyph-name="guilsinglleft" horiz-adv-x="399" d="M348 448L331 306L282 244L315 181L298 39L149 244L348 448Z" />
<glyph unicode="&#x203a;" glyph-name="guilsinglright" horiz-adv-x="400" d="M115 39L98 181L131 244L82 306L65 448L264 244L115 39Z" />
</font>
</defs>
</svg>
