<?xml version="1.0" standalone="no"?>
<!DOCTYPE svg PUBLIC "-//W3C//DTD SVG 1.1//EN" "http://www.w3.org/Graphics/SVG/1.1/DTD/svg11.dtd">
<svg xmlns="http://www.w3.org/2000/svg">
<defs >
<font id="Zeyada" horiz-adv-x="415" ><font-face
    font-family="Zeyada"
    units-per-em="1024"
    panose-1="2 0 0 0 0 0 0 0 0 0"
    ascent="934"
    descent="-680"
    alphabetic="0" />
<glyph unicode=" " glyph-name="space" horiz-adv-x="384" />
<glyph unicode="!" glyph-name="exclam" horiz-adv-x="190" d="M84 574V604Q84 625 84 648T85 693V722Q88 730 92 731T102 732Q107 732 112 731T119 722Q119 713 119 694T118 650V549Q118 525 118 506T119 478Q120 439 126 397L138 315Q144 274 149 234T154 154Q154
149 154 145T146 137Q139 141 135 149T128 163Q100 267 92 367T84 574ZM119 26Q119 40 128 47T151 54Q172 54 172 31Q172 27 171 22T166 12T159 4T151 0Q139 0 129 7T119 26Z" />
<glyph unicode="&quot;" glyph-name="quotedbl" horiz-adv-x="270" d="M25 720V766Q25 781 25 796T26 826V846Q27 867 37 885T71 903Q71 856 66 811T61 721Q61 697 61 676T64 634T75 595T96 558Q97 556 100 550T104 541Q103 540 97 533T88 523H83Q64 523 54 538T37
574T29 615T26 646V659Q26 672 26 688T25 720ZM173 832V845Q173 853 175 859T182 869T196 874Q201 874 206 855T216 807T227 741T236 668T242 600T244 549Q244 544 244 540T235 532Q222 539 212 560T195 610T184 672T178 736T174 793T173 832Z" />
<glyph unicode="#" glyph-name="numbersign" horiz-adv-x="742" d="M228 490Q213 490 200 485T169 479Q157 479 148 481T139 498Q139 499 139 502T139 506Q165 517 182 521T211 531T227 547T232 583Q208 583 184 579T134 568T85 557T35 550Q32 551 26 558T18 568Q17
568 17 569V571Q17 579 33 584T74 595T128 605T182 616T225 629T244 646Q245 652 245 666T246 698T248 734T254 768T264 793T280 803Q281 803 284 800T288 794V657Q298 657 311 657T337 661T357 670T367 690Q367 702 369 723L372 765Q373 786 374 802T376 820Q376
826 376 838T377 862T384 882T402 891Q412 891 417 884T425 867T427 846T427 829V742Q427 737 428 730T431 715T434 703T436 698H445L707 760H715Q717 759 720 756T724 750L715 742L480 672Q458 666 449 660T438 645T438 623T440 589H619Q622 589 632 585T646 576V574Q646
574 646 573T646 571Q646 571 646 570T646 568Q624 558 593 558T531 560T471 559T427 541Q427 537 428 526T431 502T434 478T436 462Q438 451 445 436T460 405T474 379T481 367Q481 355 475 352T457 349Q442 349 432 359T415 386T404 423T397 462T391 498T384 523Q382
511 380 492T373 451T363 409T347 370T326 342T297 331Q283 331 275 342T263 372T256 410T251 448T243 478T228 490ZM287 458Q287 456 287 444T287 418T292 393T306 382Q317 382 325 400T340 443T349 490T353 526H336Q327 526 318 524T301 518T288 506V497Q288
490 288 483T287 468V458ZM358 628Q343 626 329 623T304 613T285 595T278 566Q282 566 294 567T321 570T347 575T358 585V628Z" />
<glyph unicode="$" glyph-name="dollar" horiz-adv-x="410" d="M248 175Q244 175 237 175T227 174Q223 174 209 173T179 170T149 167T131 166Q72 166 45 200T17 288Q17 320 21 346T43 402V388Q43 363 39 339T34 289Q34 241 61 220T133 199Q147 199 169 200T211
208T247 227T262 262Q262 265 261 272T258 288T256 303T253 314Q218 331 177 354T100 407T40 476T16 561Q16 590 28 618T59 671T104 714T157 742Q160 742 171 744T196 750T223 758T244 768Q245 773 246 787T248 816T251 845T253 864Q254 871 257 883T266 906T279
926T297 934Q303 934 307 933T314 925Q307 908 302 894T294 867T289 840T287 807V798Q287 791 287 783T288 769V760Q333 721 354 668T376 554Q376 547 375 540T362 532Q344 532 333 547T315 581T304 619T297 646L288 628Q288 626 288 616T287 593T287 566T286 544V499Q286
474 287 448T290 397T297 349Q304 335 319 330T352 322T381 313T394 288Q394 286 394 280T393 270Q388 265 377 255T353 232T330 208T314 192Q313 190 310 184T306 174V0Q300 4 295 12T288 26L262 174H256Q254 174 252 174T248 175ZM52 558Q52 526 71 492T121 429T187
383T255 364V394Q255 416 255 440T254 485T253 514Q253 528 253 547T251 586T249 626T247 662T245 688L244 698L235 706Q234 708 224 708T210 709Q181 709 153 696T102 663T66 615T52 558ZM314 306Q313 306 310 302T306 296Q306 295 305 289T304 277T302 265T301
257Q307 257 314 258T327 263T338 271T342 283L341 284V286Q340 286 340 288Q339 289 336 292T328 297T320 302T314 306Z" />
<glyph unicode="%" glyph-name="percent" horiz-adv-x="472" d="M61 34Q61 61 64 82T79 130L253 568L288 690Q289 691 295 697T306 706Q307 706 308 707L310 708Q316 708 319 704T323 696T324 685V676Q324 659 320 642T308 608T294 573T280 541Q271 522 258 488T228
415T195 334T163 256T137 193T122 157Q121 153 116 139T106 108T95 75T88 52Q88 50 87 44T84 30T81 16T79 8L74 4Q71 1 70 0Q64 1 62 5T60 16T60 28T61 34ZM331 130Q331 133 331 137T331 148T330 158V166Q330 184 335 213T350 270T378 317T422 337Q422 321 427
308T438 281T449 255T454 226Q454 208 449 189T432 153T405 125T367 114Q356 114 347 118T331 130ZM18 511Q18 522 21 539T31 577T47 617T67 653T92 680T121 691Q142 691 150 679T158 645Q158 621 151 593T130 539T94 497T43 480Q33 480 26 490T18 511ZM406 262Q396
262 388 249T374 219T365 183T362 155Q376 155 386 161T404 178T416 200T420 226V235Q420 241 419 247T415 257T406 262ZM105 619Q94 613 86 602T73 578T64 552T61 526Q73 526 82 534T96 554T103 579T106 602Q106 604 106 610T105 619Z" />
<glyph unicode="&amp;" glyph-name="ampersand" horiz-adv-x="392" d="M253 157Q252 157 249 157T244 158Q223 158 204 152T165 140T125 127T83 121H75Q69 121 63 121H51Q45 122 43 122Q27 130 22 138T16 160Q16 179 29 197T61 231T98 259T130 280Q124 279 104
277T63 275T24 284T7 311Q7 331 25 354T69 398T118 436T157 462Q162 466 175 475T204 493T233 511T253 523Q253 527 254 537T256 558T259 579T262 594Q262 598 265 609T270 633T275 656T279 672Q280 675 283 681T288 690H289L292 691Q297 691 301 687T308 677T312
665T314 654Q314 640 311 628T305 602T298 576T295 549V535Q295 528 305 523Q307 523 313 524L318 526V565Q319 550 325 541Q332 531 339 523T352 506T358 485Q358 478 357 474T353 467T350 459T348 446Q348 427 351 409T357 371T364 334T367 296Q367 277 357 263T336
237T315 212T305 184V0H296Q294 0 290 8T282 27T274 48T270 61Q268 67 266 80T261 109T256 137T253 157ZM61 322Q61 321 64 318T70 314Q77 315 96 317T135 322T174 327T200 331Q204 332 211 333T225 335T237 338T244 340Q246 341 249 344T253 349V480Q244 476 227
465T188 439T144 407T103 374T73 344T61 322ZM235 280Q234 280 221 273T190 256T153 236T122 218Q113 213 103 207T85 193T70 176T64 155Q70 155 86 157T122 162T166 170T209 181T240 195T253 210V280H235ZM315 328Q315 307 308 286T296 244Q297 244 300 244T305
244Q312 244 317 247T326 256T334 268T340 280V290Q340 298 340 307T341 324V353Q341 367 341 383T339 416T334 448T326 472T314 481Q306 481 301 478T296 462V366Q296 359 299 355T305 347T312 339T315 328Z" />
<glyph unicode="&apos;" glyph-name="quotesingle" horiz-adv-x="104" d="M7 576V629Q7 649 10 668T22 702T47 716Q61 716 65 711T70 694Q70 675 66 662T52 628V430Q41 430 33 440T21 467T13 503T9 542T7 576Z" />
<glyph unicode="(" glyph-name="parenleft" horiz-adv-x="418" d="M18 248Q18 274 26 325T51 436T89 560T139 676T197 761T262 794Q263 794 266 791T271 786V776Q269 774 266 768T262 760Q259 755 246 740T218 707T191 674T175 654Q146 613 124 563T86 458T61
349T52 244Q52 198 67 163T108 104T168 63T240 38T317 27T393 26L402 18Q397 9 385 5T367 0H353Q344 0 334 0T313 -1H301Q247 -1 196 15T106 63T42 141T18 248Z" />
<glyph unicode=")" glyph-name="parenright" horiz-adv-x="314" d="M246 388Q246 415 244 445T235 506T219 566T192 619Q184 631 174 644T151 671T127 695T105 715Q100 719 86 724T56 735T29 750T17 769Q17 776 21 780T32 785T45 787H58Q77 787 98 775T139 745T175
709T201 680Q224 653 242 618T272 545T290 467T297 392Q297 338 283 289T243 195T182 113T105 43Q101 40 92 33T71 19T47 5T26 -1Q25 -1 22 -1T18 0Q26 10 31 14T40 20T51 27T70 43Q111 81 143 118T199 197T234 284T246 388Z" />
<glyph unicode="*" glyph-name="asterisk" horiz-adv-x="488" d="M174 174Q173 176 170 179L166 184H157Q153 183 139 182T109 179T79 176T61 174H31Q25 174 20 176T11 181T7 192Q7 199 12 203T25 211T40 215T52 218Q60 220 81 225T125 235T170 246T200 253Q217
265 225 282T240 318T255 354T279 384Q295 378 298 364T302 334T307 307T330 295Q346 295 360 299T388 309T416 319T445 324Q455 324 463 322T471 306Q471 297 455 279T411 237T349 186T278 133T206 81T142 37T95 7T74 -5Q74 -3 75 2T78 8Q79 10 84 14T95 25T107
36T113 43Q114 44 115 51T117 65T120 79T122 88Q125 96 132 108T146 132T162 156L174 174ZM262 188Q231 188 212 170T192 118V114Q193 115 200 118T209 122Q215 127 224 135T241 152T256 167T262 174V188ZM340 254Q321 254 321 232Q330 232 336 239T349 253Q348
253 345 253T340 254Z" />
<glyph unicode="+" glyph-name="plus" horiz-adv-x="331" d="M148 297Q119 297 92 292T35 280Q30 283 24 291T18 306Q18 307 21 310T26 314Q33 316 50 319T87 326T124 334T148 340Q151 341 157 344T166 349Q165 359 165 372T169 397T180 420T201 436L214 427V349H318Q318
341 311 337T297 331Q292 330 282 328T258 322T234 317T218 314Q216 302 214 294T212 277T211 262T210 244Q210 213 215 182T220 120Q207 120 196 126T184 148L166 296H159Q156 296 153 296T148 297Z" />
<glyph unicode="," glyph-name="comma" horiz-adv-x="151" d="M117 -78Q117 -64 110 -47T92 -12T72 19T55 43Q55 45 55 50T55 57Q55 67 59 77T76 88Q84 88 93 79T111 55T130 22T145 -14T156 -47T160 -70Q160 -90 154 -109T136 -145T107 -170T67 -179Q67 -164 75
-153T92 -131T109 -108T117 -78Z" />
<glyph unicode="-" glyph-name="hyphen" horiz-adv-x="352" d="M40 330Q40 340 43 345T58 356Q90 354 118 353T176 353T235 358T301 366H305Q313 366 324 360T335 345Q335 334 333 324T319 313Q310 313 303 318T287 323H283Q253 316 236 313T207 309T187 307T166
309T134 311T85 312H77Q73 312 67 312T56 313H49Q42 316 41 320T40 330Z" />
<glyph unicode="." glyph-name="period" horiz-adv-x="143" d="M64 23Q64 33 69 43T87 53Q98 53 108 45T118 26Q118 12 109 6T88 -1Q74 -1 69 4T64 23Z" />
<glyph unicode="/" glyph-name="slash" horiz-adv-x="392" d="M8 26Q19 80 33 132T70 235L296 760L358 820H378Q378 804 371 784T352 740T326 693T298 646T272 603T253 568Q196 442 143 316T43 61V50Q43 42 42 32T37 13T26 0Q25 -1 24 -1H19Q18 -1 17 0Q16 1 13
7T8 18V26Z" />
<glyph unicode="0" glyph-name="zero" horiz-adv-x="384" d="M18 204Q18 220 20 256T28 335T44 424T70 508T108 570T160 595Q192 595 219 573T267 514T306 434T335 346T352 262T358 198Q358 157 343 121T302 58T239 16T161 0Q121 0 94 19T50 69T26 135T18 204ZM52
225Q52 193 56 161T74 102T110 59T171 42Q208 42 236 54T284 89T314 141T324 205Q324 229 323 256T315 307T297 352T262 384Q256 386 252 397T242 424T231 457T219 489T205 513T188 523Q166 523 150 510T122 480L114 488Q100 481 91 463T74 419T63 365T56 309T53
260T52 225Z" />
<glyph unicode="1" glyph-name="one" horiz-adv-x="96" d="M52 542Q54 542 57 542T61 541Q67 520 68 506T70 472Q70 460 70 451T69 433T66 415T61 392V78Q62 74 65 65T71 44T77 21T79 0H61Q60 0 57 6T49 20T41 37T34 52Q34 55 33 60T30 70T27 81T26 88V514Q26
524 34 533T52 542Z" />
<glyph unicode="2" glyph-name="two" horiz-adv-x="410" d="M69 34Q69 46 69 52T79 70Q106 108 137 148T194 232T237 323T254 420Q254 468 228 487T159 507Q130 507 115 496T88 471T66 447T35 436Q23 436 20 442T17 459Q17 484 34 501T74 530T124 545T169 550Q195
550 218 541T259 516T287 476T297 424Q297 371 280 324T237 232T180 145T122 61Q121 59 118 52T114 43Q122 37 126 36T139 34Q141 34 144 34T148 34L349 78H389Q389 67 371 58T326 40T267 24T205 11T155 2T127 -1H118Q113 -1 107 -1T95 0H88Q73 4 71 13T69 34Z"
/>
<glyph unicode="3" glyph-name="three" horiz-adv-x="480" d="M17 78Q17 80 17 83T18 88Q42 78 61 68T99 51T139 39T188 34Q222 34 261 43T333 71T388 120T410 192Q410 214 403 233T383 266T352 288T313 297Q293 297 277 289T245 270T213 252T179 244Q172 244
165 245T157 257Q157 268 170 281T203 310T245 345T287 386T320 434T333 488Q333 507 327 518T310 534T285 541T254 542Q213 542 184 526T139 472Q124 474 119 486T113 511Q113 535 134 549T183 571T239 581T280 584Q325 584 350 558T376 488Q376 469 372 451T360
417T343 384T323 349Q350 340 374 324T415 285T443 235T454 179Q454 134 429 101T366 45T285 11T205 -1Q189 -1 158 4T96 18T41 43T17 78Z" />
<glyph unicode="4" glyph-name="four" horiz-adv-x="402" d="M296 322Q298 326 295 333T288 340Q282 342 263 334T218 314T163 286T106 258T58 235T26 226Q12 226 10 232T7 249Q7 259 11 267T20 284T31 299T43 314Q48 323 57 339T77 371T95 401T104 418Q107 424
115 441T135 483T159 536T185 591T209 642T226 680Q231 691 234 703T243 726T256 744T279 751Q281 751 288 751T296 750Q312 730 326 709T351 665T368 618T375 568Q375 550 372 535T364 505L355 475Q350 461 349 445Q346 418 345 394T342 347T340 301T340 252V212Q340
196 341 181T343 148T349 104Q351 90 355 77T365 51T374 24T378 -2Q357 -2 344 16T322 58T310 107T305 148Q304 158 303 183T300 235T297 288T296 322ZM87 306H96Q97 306 113 312T151 326T196 343T235 358Q244 361 253 366T271 379T284 395T289 416Q289 420 289
427T288 436Q287 442 286 455T284 482T282 508T279 523Q277 532 275 547T270 575T265 599T262 610L253 619Q251 618 248 613T240 603T232 592T226 584Q224 580 218 568T204 538T187 502T171 466T157 435T148 418Q145 412 136 397T118 366T100 334T87 314V306ZM313
600Q313 591 312 575T311 543T316 513T331 498Q339 509 344 525T349 554V558Q348 563 346 573T340 595T334 616T331 628Q330 631 327 637T322 646Q313 637 313 623V600Z" />
<glyph unicode="5" glyph-name="five" horiz-adv-x="436" d="M77 96Q77 98 77 102T78 110T81 118T88 122Q102 115 107 100T118 71T138 45T184 34Q223 34 257 55T318 108T360 180T376 257Q376 281 363 298T331 327T290 344T248 350Q224 350 201 346T155 336T109
327T61 322Q43 322 34 327T21 343T17 366T17 396Q17 423 19 447T31 491T58 523T105 541Q112 545 126 552T158 569T196 589T234 609T266 626T288 637Q300 643 309 646T326 651T343 654T363 655Q374 655 385 654T402 637Q403 634 395 630T373 621T343 612T311 602T282
593T262 584Q255 580 242 570T212 548T178 521T145 496T119 478T105 472Q103 472 101 474T96 479T91 484T88 488H85H84Q83 488 83 489Q82 489 81 489T79 488Q73 476 69 467T63 449T61 431T61 411Q61 409 60 404T59 393T62 381T70 376Q73 376 85 375T100 374Q136
374 170 379T241 385Q274 385 304 378T359 354T397 312T412 250Q412 207 396 163T351 82T283 22T196 -1Q175 -1 154 5T116 23T88 54T77 96Z" />
<glyph unicode="6" glyph-name="six" horiz-adv-x="402" d="M17 166Q17 182 23 219T40 302T68 398T106 487T154 554T210 580V550Q210 550 205 544T193 529T179 512T166 498Q139 468 118 427T83 341T60 251T52 166Q52 160 52 151T53 133T58 117T70 104Q89 118 108
139T145 182T183 227T225 268T272 296T327 307Q331 307 342 307T358 306Q368 299 373 290T381 271T384 250T385 229Q385 201 374 173T343 120T298 72T245 34T188 9T133 -1Q100 -1 78 14T42 54T23 107T17 166ZM95 64Q95 48 107 41T135 34Q168 34 206 52T275 98T328
162T350 231Q350 235 350 246T349 262Q347 263 340 266T331 270H327Q313 270 298 265T268 252T240 235T218 218Q211 212 195 197T160 163T127 128T105 104Q99 93 97 85T95 64Z" />
<glyph unicode="7" glyph-name="seven" horiz-adv-x="384" d="M200 114Q200 117 201 126T203 147T206 168T209 184L305 619V652Q279 652 256 650T209 644T163 633T113 619Q92 613 72 603T30 593Q19 593 13 596T7 610Q7 622 30 634T88 657T166 677T247 693T317
704T359 709Q359 673 351 641T331 576L235 122Q235 121 235 112T237 90T241 64T244 43Q244 42 245 37T248 26T251 15T253 8Q253 1 246 0T234 -1Q227 -1 223 6T216 22T212 40T209 52Q208 58 207 67T204 87T201 104T200 114Z" />
<glyph unicode="8" glyph-name="eight" horiz-adv-x="392" d="M25 148Q25 178 32 208T48 266T63 320T70 371Q70 385 66 395T57 417T48 441T43 469Q43 483 47 505T59 552T78 601T103 646T134 678T169 691Q183 691 188 686T193 667Q193 666 193 661T192 654Q170
634 150 615T113 573T87 525T77 467Q77 445 90 432T124 418Q150 418 173 430T213 463T240 508T253 558Q253 559 253 569T252 590T247 613T235 628H231Q217 628 201 620T174 602Q174 603 174 606T173 610Q173 620 179 629T195 647T216 659T236 664Q251 664 261 653T277
627T286 595T289 568Q289 520 268 479T218 402Q257 407 287 393T336 353T366 293T376 226Q376 176 360 134T314 62T242 16T148 -1Q112 -1 89 10T51 40T31 87T25 148ZM70 96Q80 67 96 51T142 34Q190 34 226 49T288 92T327 157T341 238Q341 265 336 288T319 330T288
358T241 369Q227 369 215 369T192 366T171 357T148 340Q140 343 138 351T136 366H114Q112 366 108 354T99 326T88 292T78 262Q70 232 70 208T69 153Q69 149 69 141T69 124T70 107T70 96Z" />
<glyph unicode="9" glyph-name="nine" horiz-adv-x="340" d="M113 19Q113 23 126 40T156 79T189 119T210 148Q246 210 264 272T282 406Q282 410 282 421T281 446T280 472T280 488Q274 510 267 530T244 568Q240 572 233 579T219 594T207 605T201 610H194Q194 593
200 577T215 545T229 512T236 475Q236 451 228 428T205 388T167 359T118 348Q98 348 80 353T48 368T26 393T18 431V436Q20 448 24 468T32 507T40 541T43 558Q44 560 48 568T58 588T69 611T79 628Q82 635 88 645T103 666T121 683T139 690Q142 690 152 686T166 680Q211
656 241 628T289 566T316 492T324 402Q324 349 313 300T282 206T235 118T175 34Q171 31 166 25T154 13T141 4T127 0Q118 0 116 5T113 19ZM61 439Q61 413 78 402T119 391Q155 391 178 413T202 474Q202 487 198 509T184 552T161 588T127 603Q126 603 125 603T122
602Q93 568 77 526T61 439Z" />
<glyph unicode=":" glyph-name="colon" horiz-adv-x="88" d="M16 130Q16 142 26 149T47 157Q57 157 63 153T70 140Q70 127 63 115T43 103Q32 103 24 111T16 130ZM7 366Q7 378 14 381T31 385Q34 385 38 385T46 383T52 377T52 366Q49 355 42 352T26 348Q7 348 7 366Z" />
<glyph unicode=";" glyph-name="semicolon" horiz-adv-x="96" d="M52 -192Q54 -174 47 -164T31 -147T15 -132T7 -113Q7 -102 13 -99T30 -95Q44 -95 56 -102T77 -120T91 -146T96 -174Q96 -191 91 -212T75 -252T49 -285T14 -298Q14 -284 19 -271T32 -246T45 -220T52
-192ZM25 83Q25 102 35 105T64 108Q64 100 65 91T65 73T58 58T42 52Q30 52 28 62T25 83Z" />
<glyph unicode="&lt;" glyph-name="less" horiz-adv-x="376" d="M17 69Q17 81 34 105T78 160T137 221T199 278T253 320T288 337V306Q281 300 269 287T240 258T205 223T171 189T141 159T122 139Q120 137 114 130T100 114T87 99T79 88Q79 86 78 85T77 83Q77 82 78
80Q78 79 79 78Q81 76 87 73T96 70Q157 57 221 47T349 34Q351 34 354 31T358 26V25Q358 24 358 23T358 22Q358 21 358 21T358 19V18Q357 16 354 13T349 8Q346 7 336 6T315 4T294 1T280 0H271Q260 0 237 1T186 6T128 15T74 29T33 46T17 69Z" />
<glyph unicode="=" glyph-name="equal" horiz-adv-x="506" d="M61 166Q64 166 73 166T94 166T114 166T127 166Q141 166 168 166T227 163T294 159T356 152T402 144T420 135Q420 134 420 134T419 133V130Q418 129 415 126T410 122H11Q11 134 15 141T26 153T42 160T61
166ZM34 304Q34 315 41 321T59 330T80 336T96 340Q104 343 118 345T146 351T170 356T184 358H463Q465 358 471 355T480 349V347Q480 346 480 346T481 345Q481 344 481 344T480 343V340Q479 339 476 336T472 331Q397 320 324 319T175 314Q160 308 149 302T127 290T103
282T73 278Q67 278 60 279T48 284T38 292T34 304Z" />
<glyph unicode="&gt;" glyph-name="greater" horiz-adv-x="523" d="M113 13Q113 16 120 24T139 43T165 67T191 90T213 110T227 122Q231 125 243 136T272 161T306 191T340 222T368 247T384 262Q390 267 399 276T416 293T430 307T436 314V340Q436 341 424 344T391
352T345 362T293 373T243 384T201 392Q196 393 175 396T131 402T87 407T61 410Q51 412 43 413T29 418T20 428T17 446Q17 458 28 460T49 463Q51 463 56 463T61 462L463 376Q467 374 474 372T488 367T501 360T507 350Q507 337 502 327T489 306Q484 301 474 291T452
267T425 239T397 212T374 189T358 174Q352 169 339 158T309 132T274 102T238 71T206 44T184 26Q182 25 176 22T163 14T149 6T139 0H135H131Q128 1 122 4T114 8Q113 10 113 10V13Z" />
<glyph unicode="?" glyph-name="question" horiz-adv-x="392" d="M182 23Q182 30 187 38T199 53T215 65T231 70Q241 70 243 60T245 43Q245 26 232 13T200 -1Q189 -1 186 5T182 23ZM147 319Q147 349 161 374T195 422T239 466T284 511T318 561T332 618Q332 646 323
664T299 694T261 711T214 716Q184 716 153 714T96 698Q93 697 83 690T70 680Q69 679 67 677T61 671T56 666T52 664Q46 662 38 663T23 667T12 676T7 691Q7 702 21 711T58 728T106 742T157 752T201 758T227 760Q262 760 289 749T336 718T365 670T376 608Q376 580
362 553T326 499T279 449T233 401T197 356T183 314Q183 298 188 283T193 250Q180 250 171 256T157 273T149 295T147 319Z" />
<glyph unicode="@" glyph-name="at" horiz-adv-x="690" d="M17 166Q17 220 41 277T107 387T201 487T311 570T427 625T536 646Q566 646 591 635T634 605T662 560T673 504Q673 446 655 396T604 308T523 248T415 226Q412 226 406 226T391 226T377 226T367 226Q364
228 358 231T349 235Q348 236 344 238T336 244T328 250T323 253Q312 253 302 249T280 240T258 231T235 226Q226 226 217 228T201 235T188 248T183 266Q183 285 199 311T242 366T301 423T367 473T430 510T480 524Q487 524 500 523T526 519T549 509T559 493Q559 477
546 457T514 415T471 371T429 331T396 298T383 278Q383 271 387 268T397 263T411 261T422 261Q472 261 512 278T581 325T623 396T638 484Q638 502 635 524T624 566T600 597T559 610Q509 610 452 592T339 541T230 465T139 373T76 272T52 170Q52 128 65 106T99 68T143
39T184 0Q181 -1 173 -1T161 -2Q133 -2 107 14T60 55T29 109T17 166ZM467 481Q456 481 440 474T407 456T372 432T338 405T308 379T288 358Q282 351 274 340T256 317T241 297T235 288V267Q263 267 279 270T305 280T319 297T328 319T339 345T358 376Q371 393 386
405T415 429T444 452T472 480Q471 480 470 480T467 481ZM454 402Q446 400 436 393T416 376T400 360T393 349V340Q396 343 402 347T414 358T427 368T436 376Q440 378 446 384T454 392V394Q454 395 454 395T454 397Q454 397 454 399T454 402Z" />
<glyph unicode="A" glyph-name="A" horiz-adv-x="672" d="M87 26Q87 28 87 31T88 34Q103 63 119 90T153 143T187 197T218 253Q214 262 198 269T160 284T112 302T66 327T31 361T17 407Q17 434 35 454T79 488T134 509T184 516Q228 516 261 501T331 462Q343 471 351
482T367 506Q370 513 380 531T401 571T422 610T436 637Q444 643 449 644T463 646Q464 646 467 646T472 646Q482 604 487 560T494 472T499 384T506 296Q509 296 517 296T529 295Q543 295 557 298T585 304T613 311T643 314H646Q647 313 650 310T655 306Q649 295 636
289T606 278T571 271T539 263T516 252T506 235Q506 215 508 195T514 155T521 114T524 72Q524 67 524 58T522 40T516 24T502 17Q492 17 484 32T471 70T463 120T457 173T451 218T445 244Q437 245 416 246T371 248T326 251T297 253H287Q267 253 250 235T218 188T189
127T162 66T135 18T105 -1Q94 -1 91 7T87 26ZM288 296Q296 291 307 289T331 286T353 286T372 286Q376 286 382 286T394 287T404 287T410 288L419 296Q421 298 412 314T390 347T363 379T345 394Q344 394 343 393T340 392Q325 370 312 346T288 296ZM61 408Q61 382
79 363T123 330T178 311T229 305Q243 305 258 319T285 353T306 392T315 423Q315 435 299 445T262 464T219 476T188 481Q173 481 152 477T110 463T75 441T61 408ZM375 441Q375 428 385 409T409 372T438 341T466 328Q466 333 466 343T465 365T464 387T463 402Q461
416 459 439T454 484T449 523T445 541L436 558Q435 557 432 554T427 550Q424 544 417 531T402 502T386 473T376 454Q376 452 376 447T375 441Z" />
<glyph unicode="B" glyph-name="B" horiz-adv-x="576" d="M18 157Q42 130 68 108T123 69T184 43T253 34Q298 34 343 50T424 96T484 167T507 256Q507 283 494 303T461 338T415 359T364 367Q351 367 332 364T290 355T245 342T202 325T168 307T148 288Q148 283 147
271T144 245T141 218T139 200Q139 194 137 186T133 169T126 152T114 139Q100 145 94 158T87 188T86 221T87 249Q87 259 87 282T89 336T94 403T104 476T119 546T141 606T171 648T211 664Q237 664 257 652T292 622T315 580T324 532Q324 513 317 496T303 462T288 430T281
397Q305 397 335 396T396 391T456 378T509 352T545 310T559 249Q559 213 546 181T511 120T459 70T396 32T328 8T261 -1Q244 -1 219 4T166 19T113 43T65 74T31 111T18 153V157ZM223 620Q210 620 200 607T183 574T171 529T163 481T158 438T157 410Q157 407 157 400T157
384T157 369T157 358Q181 374 203 393T242 433T270 480T281 537Q281 551 278 566T269 593T251 612T223 620Z" />
<glyph unicode="C" glyph-name="C" horiz-adv-x="462" d="M25 188Q25 211 28 247T38 326T59 411T90 489T134 546T192 568Q232 568 260 545T307 489T336 417T349 349Q347 337 338 330T319 322H314Q313 324 310 327T306 331Q306 334 306 338T305 349T305 359T304
366Q304 385 309 400T314 431V436Q302 450 290 465T265 494T235 515T199 524Q174 524 154 506T118 459T92 395T74 325T64 261T61 214Q61 175 70 142T99 85T148 48T219 34Q240 34 263 38T308 49T352 66T392 88Q394 88 399 92T409 100T420 108T427 114Q428 114 431
114T436 115Q438 115 441 115T445 114Q440 93 426 77T393 47T349 25T301 10T256 2T217 -1Q174 -1 139 12T78 49T39 108T25 188Z" />
<glyph unicode="D" glyph-name="D" horiz-adv-x="514" d="M148 8Q142 13 126 25T91 52T57 79T35 96Q26 103 21 108T15 127Q30 127 41 120T62 104T84 88T111 81Q111 91 111 116T112 171T113 225T114 262Q114 266 113 281T110 314T107 347T105 366Q105 368 106 377T109
397T112 416T114 427V449V472Q114 474 113 484T109 506T106 528T105 541Q105 545 106 555T108 576T110 597T114 610Q129 623 137 626T160 629Q202 629 243 614T321 571T388 508T441 432T477 350T490 268Q490 223 472 175T421 88T347 24T256 -1Q242 -1 229 1T203
5T176 8T148 8ZM175 52Q175 51 178 48T184 43Q186 42 192 40T207 34T224 29T235 26H241Q266 26 292 38T342 71T386 117T421 172T445 228T454 280Q454 309 442 343T410 411T362 476T305 532T243 570T181 585Q174 585 167 585T154 582T144 575T139 561Q139 544 139
527T140 493T145 459T157 427L175 52Z" />
<glyph unicode="E" glyph-name="E" horiz-adv-x="584" d="M88 184Q74 191 68 198T61 218Q61 225 63 230T69 239T76 249T79 261Q79 273 79 289T78 321T71 352T52 376Q55 377 61 383T70 392V394Q70 394 70 395T70 397Q70 410 64 415T49 422T31 426T18 436Q29 451
54 462T110 481T176 496T244 506T303 512T344 514H367Q376 514 390 513T419 510T443 507T454 506L463 498L454 488Q367 485 287 477T122 445Q121 443 120 437T118 424T115 411T114 402Q114 400 114 396T114 386T115 377T115 370Q197 370 277 377T439 385Q445 385
451 385T461 384T469 378T472 365Q472 360 448 351T386 331T306 305T225 276T164 245T139 214V211Q139 211 139 210Q140 209 144 206T148 200Q148 199 149 199V197Q149 196 150 196Q150 196 150 196T149 194Q148 193 148 192Q148 191 144 188T139 184Q138 181 135
174T131 166Q131 133 142 110T173 72T217 50T271 43Q310 43 342 54T402 84T455 128T506 184Q507 184 509 189T515 199T520 210T523 218Q523 219 523 222T524 228Q524 234 521 237T512 243T502 245T490 246Q490 260 503 265T529 270Q544 270 551 260T559 235Q559
207 544 179T505 124T450 75T385 36T320 9T262 -1Q218 -1 189 13T140 53T109 112T88 184ZM112 352Q112 331 114 316Q115 302 116 291T122 280H131Q132 280 144 284T172 296T206 310T235 322Q238 323 242 326T253 331T263 337T271 340Q253 345 232 347T190 351T148
352T112 352Z" />
<glyph unicode="F" glyph-name="F" horiz-adv-x="462" d="M96 244Q93 244 85 244T66 244T47 244T35 244Q23 246 20 249T17 261Q17 269 27 277T50 292T77 307T96 322V333Q96 340 96 348T97 364V407Q97 422 96 436T92 465Q91 475 89 487V482Q88 477 85 475T78 471T67
470Q55 470 45 478T35 502Q35 522 53 539T100 570T164 596T234 614T298 625T345 629H358Q367 629 377 629T397 628H410Q446 617 446 582V572Q446 565 445 558T442 546T433 540Q431 540 430 540T427 541Q424 553 420 564Q416 573 412 581T402 594H392Q385 594 378
594T363 595H353Q332 595 300 592T235 580T175 555T139 514V500Q139 490 139 478T139 456V441Q139 409 139 377T148 314Q150 314 155 314T161 313Q188 313 215 319T268 332T322 344T377 350Q381 350 391 351T411 351T430 345T439 331Q439 330 438 327T436 322Q430
322 417 321T388 319T360 317T340 314Q337 313 323 310T293 303T260 294T235 288Q230 286 219 283T195 275T171 267T157 262Q156 261 153 258L148 253V246Q148 241 148 236T148 225V218Q148 199 148 177T150 132T158 89T175 52Q175 52 179 49T187 44T196 38T201
34V30Q201 28 201 27T202 23Q202 9 197 4T178 -1Q161 -1 150 13T132 50T121 101T114 157T107 207T96 244Z" />
<glyph unicode="G" glyph-name="G" horiz-adv-x="654" d="M468 182Q400 128 333 81T189 -2Q181 0 174 -1T161 -4T147 -9T132 -11Q112 -11 94 -3T61 18T39 50T31 88Q31 148 56 204T119 312T202 410T285 496L258 514L267 522Q289 521 307 526T341 539T373 552T410
558Q416 558 422 558T432 557T439 551T442 540Q442 537 426 526T384 496T323 452T254 396T185 330T124 256T81 175T65 90Q65 73 72 63T89 45T113 36T140 33Q184 33 232 56T325 112T409 183T477 252Q483 258 484 264T486 278Q486 280 486 283T485 286Q455 280 429
273T378 257T328 239T276 217Q275 217 274 217Q274 216 271 216Q263 216 260 222T257 234Q257 245 273 256T312 277T356 294T389 304Q392 305 406 309T437 317T467 325T485 330Q493 332 499 336T511 345T523 353T538 357Q543 357 547 356T555 348H712Q713 348 717
347T725 345T733 342T738 340Q738 339 739 338Q739 337 739 337T739 335Q739 334 739 334T739 332Q738 331 738 330Q737 328 734 325T730 322Q722 322 704 321T664 318T625 315T599 313Q577 310 565 304T546 278Q535 241 529 210T521 148T518 86T518 16Q518 10
518 -8T518 -45T519 -82T520 -106Q521 -112 525 -127T533 -158T541 -190T546 -211Q547 -213 547 -221T548 -233Q532 -233 521 -221T501 -190T489 -148T482 -103T478 -63T477 -36Q476 -24 476 5T475 68T475 131T477 173L468 182Z" />
<glyph unicode="H" glyph-name="H" horiz-adv-x="488" d="M376 454Q348 439 319 427T261 402T204 378T148 349Q148 347 148 342T148 330T148 318T148 310Q148 263 151 215T166 122Q166 121 169 114T175 104Q175 103 175 100T175 96Q175 90 172 84T161 77Q151 77
144 90T131 122T122 164T117 206T115 239T114 253Q112 261 111 272T108 295T106 314T105 322L96 335H26L18 358Q32 366 45 369T67 378T82 392T88 418Q88 439 83 460T71 502T58 544T52 584Q52 591 53 599T58 613T65 624T79 629Q92 629 99 612T110 570T116 515T121
461T130 418T148 401Q158 401 164 403T184 410Q196 415 215 421T257 436T301 455T343 479T375 508T393 541Q394 550 394 568T398 606T409 639T433 654Q440 654 444 648T451 634T454 617T454 604Q454 602 454 598T454 589T454 581T454 576Q453 560 451 528T447 456T442
370T436 285T431 213T427 166Q427 161 428 149T431 122T434 96T436 78Q438 67 443 58T452 38T461 18T466 -4Q451 -4 437 10T413 44T395 83T388 114V454H376Z" />
<glyph unicode="I" glyph-name="I" horiz-adv-x="130" d="M35 166Q28 262 23 352T17 537Q17 539 17 546T17 560T18 575T18 584Q19 591 25 601T39 612Q46 612 50 606T57 592T60 577T61 568Q62 560 63 544T66 509T68 475T70 454Q70 447 70 427T70 380T70 323T70
265T70 219T70 192Q70 166 77 142T93 93T108 44T115 -6Q103 -6 93 5T74 32T59 69T47 108T39 142T35 166Z" />
<glyph unicode="J" glyph-name="J" horiz-adv-x="550" d="M244 -301Q244 -279 245 -254T250 -204T264 -155T288 -113Q298 -102 320 -84T367 -44T409 -4T428 31Q428 34 428 42T427 53Q415 55 392 58T340 65T279 74T217 83T165 91T130 96Q124 97 108 98T74 101T40
104T17 105Q10 107 9 112T7 124Q7 133 10 134T26 139Q31 142 51 148T95 161T139 175T166 184Q181 189 203 197T250 217T298 242T341 272T373 305T385 341Q385 366 382 390T375 438T368 487T365 535Q365 545 367 554T384 568Q403 556 412 539T425 500T433 458T445
419L475 18H532Q528 11 520 7T502 -1T487 -9T480 -21Q480 -63 482 -105T488 -190T495 -274T498 -359Q498 -371 498 -389T498 -425T497 -456T497 -471Q496 -485 495 -505T491 -547T481 -593T466 -634T443 -666T410 -680Q367 -648 336 -604T284 -510T254 -407T244
-301ZM277 -293Q277 -338 284 -384T306 -476T347 -560T410 -629Q411 -629 412 -629T414 -629Q424 -629 431 -617T442 -589T449 -557T454 -533Q454 -527 455 -515T458 -490T461 -467T462 -454Q462 -452 462 -439T462 -409T463 -375T463 -347Q463 -274 462 -200T445
-53Q444 -50 441 -43T436 -35H435Q434 -35 433 -35T431 -34Q405 -34 384 -48T345 -84T316 -136T295 -193T282 -248T277 -293ZM174 124Q200 124 226 121T277 115T328 108T380 105Q392 105 399 106T418 114Q418 117 418 126T419 139Q419 145 419 154T418 166Q417
177 415 193T409 224T404 251T401 262H384Q334 227 282 197T174 139V124Z" />
<glyph unicode="K" glyph-name="K" horiz-adv-x="506" d="M26 523Q26 535 30 538T43 542Q55 542 60 534T70 514Q70 502 70 477T69 421T69 354T69 287T69 230T70 192Q70 187 71 172T73 141T75 109T78 88Q79 85 82 78T88 70Q88 69 89 69H91Q97 69 111 92T144 151T185
231T230 318T274 397T314 454Q315 454 316 454T319 454Q328 454 330 447T332 431Q332 406 318 380T288 323T257 257T243 179Q243 176 243 170T243 155T244 140T244 130Q251 105 272 89T322 64T381 51T439 45T482 40T499 31Q499 28 498 26Q474 17 452 17T406 17Q353
17 320 23T264 45T225 91T192 166Q180 159 172 144T158 111T146 72T132 36T112 10T83 -1Q67 -1 57 15T42 51T36 90T34 114L26 523Z" />
<glyph unicode="L" glyph-name="L" horiz-adv-x="514" d="M25 246Q25 321 31 394T52 541Q55 553 58 560T65 572T77 578T97 580Q97 576 97 565T96 550Q95 543 93 522T86 471T78 410T71 349T64 299T61 270V262Q61 214 73 173T112 100T176 52T265 34Q295 34 324 40T383
55T440 71T498 78H506L498 61Q497 61 490 58T473 51T453 42T436 34Q393 18 350 9T259 -1Q199 -1 155 16T82 65T39 142T25 246Z" />
<glyph unicode="M" glyph-name="M" horiz-adv-x="760" d="M607 454Q596 450 593 444T585 427Q583 423 577 409T563 374T546 332T528 290T514 255T506 235Q499 219 489 198T464 158T432 126T393 113Q360 113 340 138T310 204T295 295T289 394T283 484T271 550Q269
550 268 550T266 550Q265 550 265 550T264 550H262Q252 544 244 532T228 507T217 481T210 462L96 96Q95 93 93 88T88 79T80 71T70 70Q67 70 63 74T54 84T47 95T43 104Q28 205 26 310T26 514Q25 516 22 523T18 532Q18 539 22 546T33 561T47 572T61 577Q71 577 75
572T79 556Q79 502 74 449T69 341Q69 334 69 321T69 296T70 273T70 262L79 226Q80 228 83 231T88 235Q90 239 95 250T105 273T116 297T122 314Q124 319 129 332T141 365T156 406T172 446T184 479T192 498Q196 506 204 526T225 567T252 604T283 620Q298 620 306
600T318 548T325 474T328 388T333 303T344 229T363 176T397 156Q403 156 410 162T425 178T437 196T445 210Q452 223 465 251T494 314T529 388T563 462T592 526T611 568Q616 580 624 601T637 637Q649 635 661 630T673 612Q673 610 673 607T672 602Q658 520 652 443T645
283Q645 276 645 259T645 221T646 183T646 157Q651 116 675 82T724 18V-5Q715 -5 702 4T676 29T651 63T629 100T613 133T607 157V454Z" />
<glyph unicode="N" glyph-name="N" horiz-adv-x="576" d="M114 392Q114 392 112 375T107 334T101 286T96 244V235Q94 226 91 203T83 153T75 103T70 70Q67 58 59 51T38 43Q32 43 30 47T26 59T25 72T25 82Q25 136 30 194T44 312T66 429T96 541Q97 546 100 548T108
550T117 550T124 550Q126 550 128 550T133 550H139Q139 550 140 546T143 535T146 524T148 514Q154 487 166 442T196 345T238 238T290 141T351 70T418 43Q435 43 449 55T473 86T491 130T504 176T512 218T515 248Q515 327 499 401T454 550Q448 558 436 565T418 576Q421
583 426 584T437 585Q456 585 471 562T499 504T522 427T538 346T547 276T550 234Q550 202 545 162T524 85T483 24T414 -1Q376 -1 344 23T284 86T233 172T189 265T153 349T122 410L114 392Z" />
<glyph unicode="O" glyph-name="O" horiz-adv-x="472" d="M17 170Q17 199 23 235T42 307T74 378T119 439T176 482T244 498Q276 498 303 484T352 447T392 394T421 333T439 271T446 215Q446 180 434 150T402 96T354 54T295 24T232 5T167 -1Q124 -1 96 11T50 45T25
99T17 170ZM52 148Q52 120 61 100T86 67T124 49T173 43Q215 43 258 52T335 83T390 138T412 220Q412 250 401 292T368 372T317 436T249 463Q232 463 221 462T192 454V449V445Q192 444 193 440T197 432T200 423T201 418Q201 409 196 405T185 398T171 395T157 392Q124
378 104 350T72 288T56 216T52 148Z" />
<glyph unicode="P" glyph-name="P" horiz-adv-x="418" d="M79 226Q72 229 61 234T40 247T23 262T15 281Q30 281 42 276T68 271Q68 343 65 414T61 558Q61 562 61 572T61 593T61 614T61 628Q67 664 90 682T150 700Q173 700 200 688T256 657T310 613T357 560T389
505T402 454Q402 387 383 343T329 272T246 231T139 210Q142 187 144 168T147 130T149 93T150 54Q150 49 150 40T147 22T141 6T127 -1Q123 -1 119 2T112 9T107 18T105 26L79 226ZM121 379Q121 363 119 341T119 300T131 266T165 252Q205 252 240 266T301 306T343
367T358 442Q358 464 349 489T323 539T286 586T241 626T193 654T148 664Q130 664 118 653T99 626T90 590T87 557Q87 535 94 526T109 513T125 504T132 489Q132 478 130 471T122 454Q122 449 122 439T122 417T121 395T121 379Z" />
<glyph unicode="Q" glyph-name="Q" horiz-adv-x="628" d="M433 192Q424 192 413 187T390 174T369 159T349 148Q331 140 315 135T284 127T252 123T214 121Q174 121 145 128T98 151T70 195T61 265Q61 296 65 324T70 382Q70 396 62 410T44 437T26 466T18 498Q18 538
32 570T70 628T126 671T193 702T265 719T335 725Q393 725 435 702T506 642T547 555T561 454Q561 418 551 388T529 329T507 270T497 206Q497 175 500 145T523 88Q528 82 539 73T564 54T587 35T602 18V16V13Q602 13 603 13Q603 12 603 12T602 10V8Q601 7 598 4T594
0H589Q564 0 544 14T508 49T480 96T459 142T444 177T433 192ZM87 267Q87 237 97 216T126 182T167 162T218 156Q241 156 276 164T345 187T403 223T428 270Q428 294 427 313T419 358Q416 358 408 358T397 358Q360 358 324 353T249 348Q229 348 213 348T180 349T149
354T114 366Q106 349 101 337T93 315T88 293T87 267ZM499 460Q499 442 495 426T486 395T478 362T474 322H489Q496 322 503 340T514 382T521 427T524 454Q524 493 516 534T489 611T439 668T362 691Q352 691 342 690T323 680Q336 676 348 669T371 651T387 627T393
598V594Q391 592 388 589T384 584L331 637H330Q329 637 329 637T327 638Q309 638 289 626T251 596T217 558T192 523Q188 517 180 503T161 471T143 439T131 418Q131 418 131 417T130 415Q130 401 147 393T187 382T229 377T256 376Q259 376 272 377T303 379T343 383T382
388T411 394T423 402V514Q423 519 428 521T438 523T449 524T454 524Q468 524 476 519T490 504T497 483T499 460ZM52 498Q52 492 55 482T64 461T77 444T92 436H94Q95 436 96 436Q97 437 100 440T105 445Q125 477 144 508T183 570T227 627T280 680Q277 680 271 680T262
681Q226 681 189 667T121 628T72 570T52 498Z" />
<glyph unicode="R" glyph-name="R" horiz-adv-x="514" d="M114 184Q113 184 112 178T110 163T107 145T104 130Q103 126 102 114T100 87T97 61T96 43Q95 42 92 39T88 34Q86 34 85 34H83H80Q79 34 78 34Q76 36 69 43T61 52Q59 60 56 80T48 122T40 164T34 192V200Q34
207 34 227T32 274T30 331T29 388T27 435T26 462V468Q26 508 40 547T80 619T141 671T219 691Q242 691 264 682T303 658T330 622T341 577Q341 542 324 510T282 450T227 397T172 350T129 308T112 270Q112 256 124 239T156 203T200 167T247 134T291 106T322 88Q326
85 338 79T364 66T391 53T410 43Q419 40 433 39T463 35T488 29T499 13Q499 12 499 12T498 10V8Q496 7 493 4T488 0Q487 0 483 0T473 0T464 -1T457 -1Q411 -1 365 17T276 63T194 123T122 184H114ZM95 526Q95 505 94 482T93 435T98 390T114 349Q123 355 141 369T180
403T224 446T265 491T295 535T307 571Q307 594 298 608T275 631T243 643T206 646Q149 646 122 613T95 526Z" />
<glyph unicode="S" glyph-name="S" horiz-adv-x="514" d="M18 226Q18 249 30 264T61 289T100 302T139 306Q143 306 153 302T166 296V295Q166 294 166 293Q166 284 159 280T139 274T114 269T88 262T69 248T61 223Q61 201 82 178T135 135T208 98T286 68T355 49T402
43Q405 43 412 45T428 51T443 57T454 61Q454 63 454 69T455 78Q455 90 452 98T444 114T430 129T410 148Q401 157 383 175T342 215T294 262T244 309T202 349T175 376Q146 413 130 449T113 532Q113 574 129 608T184 664Q186 664 192 664T205 664T218 664T227 664Q255
664 286 654T343 624T386 578T403 519Q403 515 402 507T393 498Q378 498 367 507T345 532T324 563T302 595T273 619T235 629Q219 629 203 620T175 596T156 565T148 533Q148 511 154 488T171 443T196 402T227 366L463 139Q478 126 488 104T499 62Q499 46 492 34T474
15T449 4T419 0H410Q402 1 385 5T350 14T317 21T297 26Q281 31 255 41T197 66T134 99T77 139T35 182T18 226Z" />
<glyph unicode="T" glyph-name="T" horiz-adv-x="594" d="M340 43Q340 55 339 80T338 137T336 204T334 272T332 329T331 366Q331 375 331 389T330 415T322 436T302 445Q265 445 229 442T157 429T88 405T26 366Q22 367 16 373T8 384Q4 400 23 415T76 443T151 466T230
483T298 495T340 499Q349 499 353 497T366 488H579Q579 481 572 477T554 469T535 464T523 462Q516 461 497 460T458 458T419 455T392 454Q385 451 378 447T366 436Q367 431 368 419T371 393T374 367T375 349Q375 343 375 322T375 273T375 213T375 154T375 106T375
78Q375 76 376 67T378 48T381 29T384 18V12Q384 4 379 2T366 -1Q358 -1 353 3T346 15T342 29T340 43Z" />
<glyph unicode="U" glyph-name="U" horiz-adv-x="392" d="M39 446Q44 446 48 442T55 431T59 419T61 410V184Q61 161 70 137T94 91T129 57T173 43Q204 43 228 58T270 97T302 152T324 215T336 277T340 331Q340 340 340 360T338 406T331 459T319 507T300 540T271
550Q271 550 270 551T269 554Q269 565 278 571T297 577Q310 577 320 568T338 546T351 515T359 481T364 450T367 427Q367 426 367 415T367 388T367 357T367 331Q367 325 367 312T367 283T367 255T367 235Q358 200 343 159T305 83T248 24T170 0Q138 0 110 17T62 62T30
121T18 184V427Q18 429 24 435T35 445H37Q37 445 37 445T39 446Z" />
<glyph unicode="V" glyph-name="V" horiz-adv-x="436" d="M18 462Q18 469 20 479T26 500T37 517T52 524Q58 524 62 523T70 514Q64 470 67 432T79 358T102 285T131 210Q132 209 132 206T131 200Q133 196 139 185T152 161T165 138T175 122Q180 113 186 101T201 78T219
60T241 52Q254 52 264 63T283 90T296 122T306 148Q322 193 334 235T355 319T371 406T384 498L393 506Q406 500 408 495T410 481V472Q409 462 406 436T398 381T390 325T384 288Q382 277 377 251T362 193T341 126T314 64T280 18T241 -1Q221 -1 200 19T159 70T120
140T85 215T59 283T43 331Q42 337 39 354T31 390T23 428T18 454V462Z" />
<glyph unicode="W" glyph-name="W" horiz-adv-x="646" d="M280 262Q278 256 275 241T267 210T258 178T253 157Q247 141 241 120T224 79T198 47T160 34Q129 34 107 51T69 96T46 159T33 229T27 297T25 353Q25 367 24 391T25 440T38 482T72 500Q72 494 72 478T71
443T70 408T70 384Q70 382 69 375T66 358T63 342T61 331Q61 325 63 306T68 264T73 222T78 192Q80 178 86 159T102 121T125 90T158 77Q181 77 194 100T214 156T226 230T236 304T250 361T275 384H280Q281 383 284 380T288 376Q303 331 323 285T368 194T426 112T498
43Q499 43 504 43T511 43Q529 43 536 56T550 88Q552 96 556 113T565 148T572 181T576 200Q576 201 576 212T576 239T577 270T577 295Q577 307 577 325T577 361T576 394T576 410Q575 432 574 444T568 466T555 482T532 498V501Q532 514 535 523T552 533Q571 533 580
525T594 498Q595 488 597 472T602 435T608 395T613 356T617 324T619 306Q619 304 619 298T619 285T620 270T620 257Q620 242 618 217T612 164T600 106T580 53T550 14T511 -1Q508 -1 500 -1T488 0Q452 34 426 62T378 121T335 184T288 262H280Z" />
<glyph unicode="X" glyph-name="X" horiz-adv-x="514" d="M356 169Q356 196 361 223T374 275T386 327T392 379V392Q379 376 364 348T334 287T301 220T264 158T225 113T183 95Q170 95 167 102T164 121Q164 157 179 188T216 248T265 300T314 349Q314 352 314 359T315
371Q315 400 306 425T279 469T238 497T182 508Q157 508 133 497T88 472T49 447T22 436Q13 436 10 442T7 454Q7 475 30 492T84 522T145 542T192 550Q236 550 260 537T300 503T327 456T358 402Q358 401 359 401H361Q376 401 387 410T407 433T423 462T437 492T453
515T471 524Q478 524 483 521T488 511V506Q475 466 459 428T427 350T402 270T391 187Q391 154 396 130T413 87T442 51T488 18V-4Q452 -4 427 12T386 54T363 109T356 169ZM270 253Q257 245 249 230T235 200Q247 210 255 224T270 253Z" />
<glyph unicode="Y" glyph-name="Y" horiz-adv-x="445" d="M244 -45Q244 -19 248 7T257 58T266 109T271 161V166Q217 176 171 196T90 250T37 328T17 435Q17 444 17 459T19 489T29 513T52 524Q66 524 72 521T79 503Q79 490 76 478T70 455T64 431T61 406Q61 370 76
336T116 275T175 233T244 217Q247 217 251 217T262 217T272 218T280 218Q298 230 308 259T326 325T338 402T351 474T370 528T402 550Q403 550 406 547T410 541Q411 540 412 534T414 519T416 502T419 488V484Q419 436 409 391T383 302T349 216T316 130T290 41T279
-53Q279 -89 284 -123T290 -194Q277 -194 268 -185T254 -162T247 -131T244 -97T243 -66T244 -45Z" />
<glyph unicode="Z" glyph-name="Z" horiz-adv-x="619" d="M175 83Q175 119 196 156T249 230T319 306T388 383T442 463T463 544Q463 573 448 588T411 610T362 618T314 619Q296 619 275 618T231 614T188 606T148 594Q146 592 139 588T122 580T106 572T96 568Q95
567 91 567T82 566T70 565T61 565Q59 565 54 565T44 565T33 566T26 568Q19 570 18 574T17 584Q17 598 37 608T88 626T156 639T229 648T292 653T332 655Q363 655 394 650T450 632T491 596T507 536Q507 493 486 453T432 375T362 300T292 226T238 155T217 83Q217 70
218 60T235 43Q238 43 242 43T251 43T260 43T266 43Q283 43 295 44T317 47T341 55T376 70Q382 73 397 79T431 94T471 112T511 130T545 146T568 157H604Q604 151 602 147T594 139L323 8Q322 8 316 7T301 5T284 2T271 0H257Q219 0 197 22T175 83Z" />
<glyph unicode="[" glyph-name="bracketleft" horiz-adv-x="628" d="M70 498Q79 504 100 517T148 546T204 580T260 615T308 644T340 664Q343 665 349 668T360 673T370 678T376 680Q388 682 391 677T394 664Q394 647 372 628T317 588T245 549T171 511T111 478T79
454Q76 448 73 432T65 397T57 363T52 340V321Q52 298 52 270T55 212T64 155T83 104T116 65T166 43Q171 43 185 43T214 43T242 42T262 42Q304 42 345 49T426 65T506 81T589 88Q592 88 600 88T611 88Q597 70 571 56T510 32T438 16T364 6T295 1T241 -1Q235 -1 221
-1T190 -1T160 0T139 0Q109 5 86 23T48 66T26 123T18 184V454Q18 466 22 474T33 487T50 494T70 498Z" />
<glyph unicode="\" glyph-name="backslash" horiz-adv-x="270" d="M248 61Q256 47 263 28T271 -8Q255 -8 243 5T221 37T205 73T196 103Q141 275 88 446T-23 788V793Q-23 802 -12 808T10 815Q12 815 15 815T19 813L248 61Z" />
<glyph unicode="]" glyph-name="bracketright" horiz-adv-x="602" d="M4 90Q7 90 15 89T26 88Q68 76 103 68T174 54T246 46T327 43Q333 43 348 43T381 43T414 43T436 43Q452 46 466 48T491 54T508 68T515 95Q515 115 514 132T510 167T505 204T497 244V610Q497
612 494 615T488 619Q443 634 393 636T296 638Q247 638 199 633T100 628Q97 628 92 628T80 628T69 628T61 628Q58 630 51 636T43 646Q42 646 42 647V650Q42 661 48 665T64 671T82 673T96 672Q101 672 118 672T159 674T209 676T258 678T299 679T322 680Q327 680
343 679T379 676T415 673T436 672Q443 672 459 672T493 671T527 671T550 672Q554 671 556 668T558 661T559 653T559 646Q559 608 556 570T550 494T543 417T540 340Q540 327 540 307T540 268T541 234T541 218Q541 213 545 193T553 148T562 104T567 78Q567 76 567
70T568 59Q568 36 550 24T508 7T459 0T418 -1Q414 -1 406 -1T389 -1T374 0T366 0Q358 1 333 3T278 7T222 13T183 18Q178 19 162 22T127 31T86 44T46 59T16 75T4 90Z" />
<glyph unicode="^" glyph-name="asciicircum" horiz-adv-x="402" d="M216 622Q214 622 210 616T199 603T189 589T184 581Q158 550 145 540T127 532T126 550T136 582T154 621T173 658T190 682T200 685Q205 694 214 698T231 703H235Q247 673 253 658T262 637T268
628T274 618T283 594T302 544Q287 529 278 525T262 523T251 537T242 561T231 591T216 622Z" />
<glyph unicode="_" glyph-name="underscore" horiz-adv-x="942" d="M8 8Q15 19 24 29T45 47T69 59T96 61Q164 64 228 68T356 77T482 88T610 104Q643 109 678 116T748 131T818 143T886 148Q889 148 895 146T906 140T915 132T916 122Q911 109 901 102T879 93T853
92T829 96L305 34H270Q257 34 236 33T194 30T157 27T139 26Q135 25 121 22T91 14T61 5T43 0Q42 0 39 0T34 -1Q26 -1 21 0T8 8Z" />
<glyph unicode="`" glyph-name="grave" horiz-adv-x="145" d="M53 571Q46 577 35 587T14 610T1 635T7 657Q15 664 20 664T33 658Q43 647 57 633T78 603L121 541Q112 531 102 532T84 540T67 556T53 571Z" />
<glyph unicode="a" glyph-name="a" horiz-adv-x="458" d="M244 122Q229 104 210 84T168 47T121 19T70 7Q17 7 17 58Q17 79 34 113T80 186T142 259T210 318T272 348T319 331Q319 304 315 277T307 224T299 171T295 118Q295 112 296 100T301 75T311 53T327 43Q351
43 366 49T393 63T413 83T431 105T453 126T484 142Q484 142 484 139T484 134Q484 109 469 85T431 41T380 11T324 -1Q301 -1 287 12T265 43T252 82T244 122ZM262 253Q272 286 270 298T255 308T224 291T183 256T139 210T98 163T67 122T52 96Q46 73 50 61T64 45T85
43T105 52Q122 67 148 92T198 147T241 204T262 253Z" />
<glyph unicode="b" glyph-name="b" horiz-adv-x="334" d="M37 8Q29 16 28 23T27 39Q27 42 27 47T28 52Q37 101 45 144T60 228T69 313T72 406Q72 412 72 428T72 464T71 500T71 523Q70 532 63 532T50 533Q35 533 25 532T6 527T-8 517T-23 503Q-26 503 -32 503T-41
502Q-49 502 -58 503T-68 516Q-68 517 -68 518T-67 520Q-52 539 -39 552T-10 572T24 582T68 585Q85 585 94 577T108 557T114 529T115 498Q115 491 115 477T115 444T115 406T114 368T113 336T112 314H124Q127 318 137 328T159 349T185 368T211 376Q227 376 241 364T267
331T288 285T304 236T313 192T317 160Q317 127 299 98T254 47T193 12T129 -1Q116 -1 106 -1T85 0T63 3T37 8ZM202 331Q172 305 149 270T110 194T87 112T79 31Q107 31 141 38T204 60T254 101T274 165Q274 185 270 209T258 257T236 301T202 331Z" />
<glyph unicode="c" glyph-name="c" horiz-adv-x="260" d="M17 100Q17 108 19 132T26 186T38 250T55 312T79 358T109 376Q130 376 142 360T160 323T169 279T172 243Q151 243 145 250T137 267T131 287T114 306Q91 292 79 267T61 211T53 152T52 100Q52 72 62 53T105
34Q130 34 153 44T197 69T236 103T271 139H290Q290 139 290 136T288 130Q274 101 253 77T207 36T153 9T91 -1Q68 -1 54 6T31 27T20 59T17 100Z" />
<glyph unicode="d" glyph-name="d" horiz-adv-x="322" d="M78 61Q59 61 46 73T25 102T12 138T7 171Q7 202 18 235T49 299T94 353T148 392Q160 398 169 398T186 399T196 405T200 427V594Q200 602 209 610T226 619Q231 619 234 615T240 604T243 591T244 581Q244
468 241 359T238 133Q246 133 254 136T271 143T288 151T305 157Q305 156 305 153T306 148Q306 134 297 126T275 110T251 96T235 78Q234 76 233 64T229 37T220 11T205 -1Q191 -1 187 7T183 26T186 47T189 61H78ZM42 171Q42 138 63 117T117 95Q124 95 133 95T153
96T171 102T183 114Q181 141 182 165T186 214T190 263T192 315Q192 327 188 334T170 341Q143 341 120 324T79 280T52 224T42 171Z" />
<glyph unicode="e" glyph-name="e" horiz-adv-x="358" d="M26 125Q19 121 15 123T10 129T8 138T7 146Q7 166 12 170T25 176T42 181T59 200Q71 225 80 252T104 304T139 343T199 358Q205 358 212 357T226 354T237 346T242 331Q242 310 232 294T206 264T172 238T139
215T114 192T103 166V70Q103 59 111 53T131 42T154 36T172 34Q196 34 220 42T266 64T309 92T347 122Q353 127 357 132T366 143T376 151T391 157Q391 156 391 153T391 148Q391 140 390 134T382 122Q360 97 335 75T282 36T223 9T157 -1Q122 -1 103 9T74 38T59 83T50
139L26 125ZM155 280Q155 282 152 280T144 273T137 266T137 262Q142 261 149 268T155 280Z" />
<glyph unicode="f" glyph-name="f" horiz-adv-x="450" d="M49 -232Q49 -198 52 -162T59 -90T70 -17T84 52L23 -8Q22 -9 22 -9Q21 -10 19 -10Q17 -10 16 -9Q16 -9 14 -8Q13 -8 10 -4T5 0Q4 0 -1 -1T-12 -3T-23 -6T-29 -8H-34Q-40 -8 -42 -6T-46 1T-47 10T-47 19Q-47
29 -46 38T-29 52Q-29 52 -24 52T-12 52T-1 52T5 52Q18 55 38 71T78 110T109 157T119 200Q122 212 130 241T148 305T167 368T180 410Q182 415 187 429T201 459T220 487T246 499Q255 499 259 494T266 482T268 467T268 454Q268 450 268 440T267 427Q263 416 254 387T233
327T212 267T197 226Q196 223 193 216T185 201T177 185T171 174H175H180Q184 175 197 180T227 192T258 203T276 210Q277 210 284 210T296 211Q332 211 358 197T401 159T426 104T434 40Q434 27 432 4T426 -49T415 -110T401 -170T383 -220T363 -254L259 -358Q250
-367 237 -372T211 -380T183 -384T158 -385Q124 -385 103 -373T70 -339T54 -291T49 -232ZM83 -224Q83 -249 84 -272T92 -312T116 -339T163 -350Q205 -350 239 -332T299 -282T344 -212T375 -130T393 -47T399 27Q399 53 397 79T384 127T356 161T306 175Q254 175 218
156T156 106T117 34T96 -51T86 -140T83 -224ZM206 376Q204 376 200 368T193 347T185 320T179 293T177 272T178 264Q181 264 184 272T191 292T198 319T204 346T207 367T206 376Z" />
<glyph unicode="g" glyph-name="g" horiz-adv-x="306" d="M-27 -170Q-27 -159 -27 -146T-24 -120T-16 -96T0 -78Q0 -86 1 -106T3 -148T6 -190T8 -218Q10 -239 18 -261T37 -306T59 -349T78 -384Q85 -395 98 -399T123 -403Q145 -403 162 -386T193 -341T216 -281T232
-217T241 -160T244 -122Q244 -121 244 -111T244 -88T245 -61T245 -39Q245 8 244 55T227 148Q226 148 225 148T223 149Q216 149 200 135T162 105T115 75T64 61Q47 61 38 68T24 86T18 110T17 137Q17 168 31 203T68 270T122 321T187 341Q200 341 210 336T231 331Q237
331 240 334T247 340T255 347T265 350Q283 350 285 342T288 317Q288 256 286 197T282 78T279 -42T280 -166Q276 -182 271 -209T257 -266T236 -326T209 -381T173 -421T127 -437Q103 -437 82 -423T44 -385T13 -333T-9 -275T-22 -218T-27 -170ZM52 130Q52 112 56 108T79
103Q100 103 125 117T174 152T212 197T228 243Q228 268 221 283T187 298Q160 298 135 282T92 240T63 185T52 130Z" />
<glyph unicode="h" glyph-name="h" horiz-adv-x="325" d="M21 37Q21 91 29 143T47 248T66 353T74 458Q74 461 74 468T74 482T73 497T73 506Q74 517 69 521T56 525Q55 525 52 524T47 523Q43 518 40 516T34 512T27 508T18 502Q11 496 2 494T-17 491V519L47 576Q53
582 60 583T74 585Q91 585 100 571T113 537T118 498T118 469Q118 465 118 458T118 445T118 433T118 427Q117 423 115 408T109 372T101 328T93 284T87 248T83 226V223V218Q85 219 88 222T91 226Q93 229 99 239T113 262T126 284T135 296Q139 301 148 311T169 332T190
352T205 366Q206 366 213 366T222 367Q245 367 253 346T263 292T262 222T260 152T269 99T301 77Q312 77 320 83T336 96T352 109T373 115Q373 100 365 85T345 58T318 40T288 33Q259 33 246 51T228 94T223 146T222 192Q221 204 220 223T218 261T215 292T214 306L205
314Q178 290 157 264T121 208T95 146T73 78Q70 66 70 56T67 36T61 18T47 0Q28 9 25 16T21 37Z" />
<glyph unicode="i" glyph-name="i" horiz-adv-x="237" d="M84 140Q84 166 87 191T93 242T100 293T103 346Q103 352 101 359T88 367Q75 367 71 365T66 360T61 353T45 345H40Q19 345 19 367Q19 373 32 386T64 410T98 430T119 436Q121 436 125 433T133 425T140 416T145
410Q145 408 145 402T145 389T146 376T146 366Q146 337 142 309T133 251T123 193T119 135Q119 130 120 115T124 84T135 56T154 43Q178 43 190 49T211 64T230 78T260 85Q260 43 229 21T150 -1Q125 -1 112 15T93 53T85 100T84 140ZM94 558Q94 569 97 575T114 581Q123
581 126 575T130 558Q130 549 127 543T114 536Q101 536 98 541T94 558Z" />
<glyph unicode="j" glyph-name="j" horiz-adv-x="226" d="M-281 -143Q-281 -125 -280 -111T-271 -79Q-268 -133 -258 -179T-227 -266T-178 -341T-105 -410Q-84 -426 -58 -436T-5 -446Q26 -446 48 -427T86 -376T111 -306T126 -230T134 -158T139 -105Q139 -100 142
-78T148 -31T154 15T157 43Q157 46 157 59T157 89T158 122T158 147Q158 153 158 164T158 186T157 207T157 218L148 235Q136 229 122 218T94 194T66 173T40 164Q32 164 25 166T17 179Q17 194 33 210T71 239T116 262T152 271Q154 271 158 271T168 271T177 270T183
270Q190 265 193 258T200 244Q200 239 200 226T201 199T202 171T202 152Q202 144 202 130T202 100T201 74T200 61Q199 52 196 28T188 -30T178 -101T167 -175T156 -241T148 -288Q143 -317 136 -349T114 -409T76 -455T16 -473Q-50 -473 -104 -446T-198 -372T-259
-266T-281 -143ZM143 410Q143 421 147 427T163 433Q172 433 175 426T179 410Q179 400 176 394T163 388Q151 388 147 394T143 410Z" />
<glyph unicode="k" glyph-name="k" horiz-adv-x="317" d="M26 8Q26 13 26 23T26 46T25 68T25 83Q25 190 31 294T34 506Q35 509 37 516T43 532T48 548T52 558Q53 560 56 563T61 568H63Q64 568 64 568T65 568Q72 568 74 565T78 558T79 548T79 538Q79 526 79 517T77
497T74 477T70 454Q69 441 69 413T67 350T65 275T63 201T62 138T61 96V88V78Q86 123 104 164T141 245T182 326T235 410Q241 418 246 422T258 429T271 432T290 433Q290 413 284 396T267 363T245 329T223 292T206 248T199 192Q199 171 200 154T208 123T228 102T265
95Q286 95 302 99T333 110T361 128T392 148Q394 148 397 145T402 139V137V136Q402 135 403 135Q403 134 403 133T402 130Q373 96 340 74T262 52Q229 52 211 63T182 93T164 136T148 184Q142 175 136 157T121 119T105 78T87 39T66 11T43 -1Q38 -1 34 0T26 8Z" />
<glyph unicode="l" glyph-name="l" horiz-adv-x="284" d="M-10 74Q-10 80 3 84T32 94T65 108T88 130Q86 178 89 221T99 306T116 390T140 480Q138 490 144 511T162 552T186 587T211 603Q223 603 228 590T236 560T237 526T236 499Q236 448 230 401T212 308T181 219T140
130Q140 130 140 127T139 122Q140 86 160 72T207 56T264 62T313 78L322 70Q317 61 308 52T287 35T266 23T249 18Q223 18 204 20T169 28T138 46T105 78H97Q88 70 81 66T63 59T41 57T12 56Q1 56 -4 59T-10 74ZM201 514Q181 487 168 453T146 383T134 310T130 239Q130
237 130 230T131 216T131 201T132 192Q133 193 136 196T140 200V210Q155 243 166 274T186 336T198 401T202 472Q202 474 202 480T202 493T202 506T201 514Z" />
<glyph unicode="m" glyph-name="m" horiz-adv-x="589" d="M104 270L95 306L77 296L-27 192Q-28 191 -34 194T-44 200Q-46 202 -49 205T-53 210V214Q-53 220 -45 233T-22 262T9 295T44 326T78 349T105 358Q124 358 133 341T146 300T149 253T148 218Q151 223 161
235T182 262T203 289T217 306Q220 309 230 320T253 344T280 366T304 376Q322 376 330 366T340 340T342 309T341 281Q341 243 336 206T331 130V122Q352 146 367 175T399 232T433 287T479 331Q481 332 485 332T492 333Q503 333 508 327T515 311T516 291T515 274Q515
231 510 190T505 105Q505 82 515 75T549 68Q560 68 568 71T585 79T601 87T620 91Q620 76 612 64T592 43T565 30T537 25Q526 25 515 28T494 37T478 54T471 78V270Q460 262 447 241T419 193T390 136T361 82T334 42T310 25Q299 25 294 35T288 57T286 81T286 96Q286
120 289 144T296 192T303 241T306 289Q306 292 306 298T305 309T300 319T292 324Q291 324 291 324T289 323Q289 322 287 322Q286 322 283 319T279 314Q268 300 250 278T215 235T186 199T173 184Q170 178 163 155T147 106T131 56T121 26Q116 10 108 4T84 -2Q84 32
87 65T94 131T101 198T104 267V270Z" />
<glyph unicode="n" glyph-name="n" horiz-adv-x="399" d="M78 70Q80 78 84 96T92 138T101 187T110 236T118 278T122 306Q123 310 122 318T120 336T118 354T117 366Q114 366 107 368T93 371T79 374T70 376Q46 367 35 354T14 327T-9 305T-47 295Q-56 295 -60 302T-64
318V322Q-42 347 -23 365T19 395T67 414T127 420Q142 420 149 415T161 401T165 381T166 357Q166 330 161 304T149 251T136 198T130 143V139Q133 147 143 165T164 205T185 244T200 270Q201 271 207 278T221 296T238 315T253 331Q259 339 267 348T285 365T305 378T327
384Q336 384 340 377T347 360T349 340T349 322Q349 292 342 262T327 203T312 143T304 83Q304 70 308 61T326 52Q344 52 359 62T387 83T414 105T445 115V96Q445 95 440 90T428 78T414 64T401 52Q393 45 383 37T363 23T340 12T317 7Q302 7 293 15T278 36T271 63T269
88Q269 118 274 147T286 205T297 263T302 322H296Q295 322 289 316T275 302T258 285T244 270Q239 264 233 256T221 237T210 218T200 200Q197 193 190 179T175 147T157 109T139 71T123 39T113 18Q112 14 105 8T96 0Q94 -1 94 -1H91H89Q88 -1 87 0Q85 1 82 4T78 8V70Z"
/>
<glyph unicode="o" glyph-name="o" horiz-adv-x="270" d="M8 34Q8 37 8 44T8 60T7 76T7 88Q7 116 11 148T23 210T44 269T78 319T126 354T188 367Q211 367 223 354T239 320T244 278T245 239Q245 200 237 158T211 80T162 22T83 -1Q69 -1 59 0T41 5T25 16T8 34ZM43
52Q52 43 64 43T87 43Q125 43 149 62T186 111T205 174T211 239Q211 253 211 269T209 300T196 324T169 334Q169 318 165 310T155 299T140 296T122 292T103 283T87 262Q71 217 57 176T42 88Q42 85 42 81T42 70T43 60T43 52Z" />
<glyph unicode="p" glyph-name="p" horiz-adv-x="369" d="M-17 -231Q1 -176 13 -136T32 -61T44 7T54 80T68 173T90 297Q90 319 88 332T78 348T57 348T22 331H17Q9 331 2 334T-5 348Q-5 355 -4 358T4 366Q19 376 40 389T80 406T114 401T133 358Q144 371 156 385T183
411T213 430T250 437Q281 437 301 417T332 368T346 307T350 250Q350 192 330 147T276 69T193 20T89 0Q81 -26 79 -38T75 -58T73 -77T67 -107T49 -165T15 -264Q3 -264 -7 -253T-17 -231ZM97 52Q96 46 99 43T106 37T115 35T123 34Q149 34 178 46T233 77T277 121T298
174Q313 211 314 248T309 317T286 369T251 394T207 382T159 322L97 52Z" />
<glyph unicode="q" glyph-name="q" horiz-adv-x="306" d="M173 -141Q173 -92 177 -46T182 49Q169 49 157 43T130 28T101 14T69 7Q39 7 28 25T17 73Q17 95 25 127T48 193T82 262T124 323T171 368T220 385Q238 385 249 372T268 341T277 304T280 273Q280 222 269
174T245 77T221 -21T209 -122Q209 -132 209 -151T212 -190T224 -222T249 -236Q250 -236 255 -236T262 -236Q292 -213 310 -193T343 -150T373 -103T410 -44Q412 -41 418 -35T427 -26Q427 -28 427 -33T428 -40Q428 -59 419 -84T395 -137T360 -189T318 -235T274 -267T231
-280Q210 -280 199 -264T181 -224T174 -178T173 -141ZM52 52Q61 46 65 45T79 43Q106 43 128 56T167 92T198 143T219 200T232 255T236 301Q236 312 232 322T218 340Q185 331 155 303T102 238T66 162T52 91Q52 89 52 84T52 72T52 61T52 52Z" />
<glyph unicode="r" glyph-name="r" horiz-adv-x="370" d="M44 34Q54 74 58 106T64 170T66 235T65 312Q49 312 42 310T31 306T27 300T24 295T14 290T-8 288Q-17 288 -21 295T-25 311Q-25 319 -15 328T10 346T40 361T67 367Q71 367 78 364T93 355T104 343T109 331V192Q119
207 141 233T190 284T245 329T295 348Q325 348 337 329T349 280Q337 280 330 284T318 293T306 301T290 305Q258 299 230 273T179 212T137 138T104 67T82 15T71 -1Q61 -1 53 8T44 31V34Z" />
<glyph unicode="s" glyph-name="s" horiz-adv-x="262" d="M17 170Q17 172 17 176T17 185T18 194T18 200Q19 203 25 207T35 210Q41 208 46 196T56 167T67 130T84 92T110 61T148 43Q155 42 159 43T164 48T166 56T166 64Q165 82 152 101T121 143T85 191T55 245T40
306T52 376Q52 385 61 400T84 428T113 452T139 462Q155 462 169 456T192 436Q202 423 215 402T239 359T253 321T244 301Q230 301 221 309T205 329T194 355T183 382T169 402T148 411Q130 411 117 400T95 373T83 339T79 306Q79 281 88 260T112 219T144 180T176 142T201
101T211 56Q211 46 207 37T195 19T177 5T157 0Q129 0 104 17T60 60T29 115T17 170Z" />
<glyph unicode="t" glyph-name="t" horiz-adv-x="306" d="M122 34Q122 37 122 44T122 60T121 76T121 88Q121 117 126 144T137 199T149 255T154 312Q142 312 126 301T91 276T58 248T34 226Q34 226 31 226T26 226Q7 226 7 244Q7 256 19 269T50 296T90 322T130 344T161
363T174 376Q183 418 182 446T175 491T157 514T133 520T107 511T85 491Q78 499 76 504T74 517Q97 540 119 546T162 546T198 523T222 486T231 440T218 392Q220 393 226 396T239 401T252 406T262 410H265H270Q271 410 272 404T276 389T281 374T283 366L209 331Q208
330 203 310T190 262T176 205T166 157Q164 153 163 142T160 118T158 94T157 78Q157 72 158 64T161 50T169 39T182 34Q211 34 233 45T273 71T303 97T328 109Q330 109 333 109T337 107Q334 78 321 58T288 24T242 5T186 -1Q177 -1 166 0T146 5T131 16T122 34Z" />
<glyph unicode="u" glyph-name="u" horiz-adv-x="451" d="M82 410Q62 410 54 402T42 385T33 368T18 360Q6 360 -1 364T-9 382Q-8 395 1 407T23 428T52 443T82 446Q96 446 108 444T129 436T143 420T148 392V61L165 78Q166 79 174 94T194 131T216 174T235 210Q258
256 272 299T296 392Q298 400 305 401T318 403Q319 403 324 403T331 402Q331 394 331 378T333 342T335 301T337 259T339 224T340 200Q340 194 341 179T347 147T360 117T383 104Q397 112 411 123T439 145T468 166T499 181Q507 176 505 166T494 143T471 117T440 92T406
74T373 69Q344 69 329 87T307 130T299 184T298 232Q287 232 277 215T255 171T232 115T206 60T177 17T143 -1Q130 -1 122 6T110 24T105 47T104 70V384Q104 387 102 391T97 400T90 407T82 410Z" />
<glyph unicode="v" glyph-name="v" horiz-adv-x="358" d="M122 34Q112 56 96 91T62 164T31 235T8 288Q9 292 15 298T26 306Q37 308 49 293T73 252T98 196T122 139T144 95T161 77Q162 77 163 77T166 78Q166 81 169 87T174 101T179 114T183 122Q184 124 189 134T201
157T212 179T218 192Q220 196 224 209T235 239T249 275T262 311T272 340T279 358Q286 390 300 410T325 435T336 426T314 376Q312 368 306 350T292 310T279 271T270 244Q266 232 260 210T245 160T226 104T205 53T181 14T157 -1Q151 -1 146 3T136 12T128 23T122 34Z"
/>
<glyph unicode="w" glyph-name="w" horiz-adv-x="494" d="M220 324Q219 324 219 324T217 323Q217 322 215 322Q212 321 206 314T198 306L102 104Q102 103 97 95T83 77T67 60T54 52H52Q51 52 50 52Q48 53 45 56T40 61Q40 64 40 70T40 82T40 95T40 104Q40 134 43
163T49 222T56 281T59 340Q59 343 59 350T59 366T58 382T58 392Q61 406 53 408T37 411Q17 411 10 408T-1 400T-13 393T-41 389Q-59 389 -59 409Q-59 422 -46 432T-14 448T22 458T50 462Q62 462 74 455T93 436Q93 430 93 416T94 386T94 356T94 335Q94 293 90 254T85
174V157Q112 215 142 276T206 392Q207 394 210 397T215 402H220Q229 402 236 397T247 384T254 367T259 349Q259 345 261 331T266 298T271 258T277 218T282 185T285 166Q286 159 290 143T301 109T312 75T320 52Q326 55 334 59T346 70Q353 82 363 101T383 138T400
169T407 184V200L451 384Q451 384 450 390T449 404T451 419T460 427L469 418Q469 417 469 412T469 401T470 389T471 379Q471 319 461 265T434 148Q428 136 417 111T392 61T360 17T325 -2Q301 -2 286 22T260 82T246 161T237 239T230 300T220 324Z" />
<glyph unicode="x" glyph-name="x" horiz-adv-x="409" d="M247 210Q245 209 242 206T237 200Q227 188 209 168T173 126T141 89T124 70Q120 65 116 58T107 43T95 31T81 25Q71 25 66 29T55 43Q73 69 93 91T131 134T162 178T179 225T177 280T148 346Q121 346 102
337T66 318T32 298T-10 289V326Q-10 327 -4 331T12 342T33 354T55 366Q74 376 96 385T141 394Q169 394 182 378T195 333Q201 316 204 300T211 270T218 249T229 244Q239 256 247 272T265 304T286 330T316 341Q319 341 323 341T331 341T338 338T343 331Q319 289 304
242T289 143Q289 132 290 115T298 80T314 49T343 34Q361 33 376 37T406 46T437 57T471 62Q471 46 458 35T425 15T387 3T355 -1Q313 -1 291 19T258 71T247 140T247 210Z" />
<glyph unicode="y" glyph-name="y" horiz-adv-x="417" d="M-55 -454Q-61 -416 -65 -374T-72 -277Q-72 -268 -72 -248T-69 -202T-63 -149T-54 -97T-40 -54T-20 -27V-35Q-20 -65 -24 -94T-33 -152T-42 -212T-47 -272Q-47 -284 -46 -306T-41 -356T-32 -411T-16 -463T8
-500T41 -515Q67 -515 93 -498T144 -454T190 -392T229 -322T259 -256T277 -201Q283 -168 289 -132T300 -57T309 20T313 96Q313 97 313 102T313 112T312 123T312 130Q298 115 283 97T249 62T211 35T166 24Q147 24 134 36T112 65T99 103T94 139Q93 148 92 171T90
221T87 271T85 305L76 314Q69 310 58 302T35 287T10 275T-11 269Q-23 269 -30 277T-38 296Q-38 301 -29 310T-5 328T28 348T64 366T95 379T115 385Q119 385 128 384T137 375V139Q137 133 139 122T145 98T156 78T172 69Q177 69 185 72T200 79T214 87T224 96Q258
126 286 163T329 244Q330 247 332 257T337 280T343 304T346 322Q347 329 347 338T350 355T357 370T373 376Q388 376 389 367T391 346Q391 333 389 320T385 295T381 270T382 244Q371 56 336 -92T252 -341T150 -495T49 -542Q32 -542 16 -535T-15 -514T-39 -486T-55
-454Z" />
<glyph unicode="z" glyph-name="z" horiz-adv-x="314" d="M131 174Q136 189 145 204T162 236T177 269T184 301Q184 307 182 316T175 335T164 351T148 358H35Q31 358 29 362T25 373Q23 381 23 390Q34 390 42 392T59 396T76 401T95 403Q123 403 147 399T189 384T217
353T227 301Q227 265 210 228T168 157T114 93T61 43Q63 43 67 43T76 43T86 42T92 42Q129 42 156 56T204 91T238 136T262 181T280 216T295 230Q295 165 273 120T213 48T124 8T13 -4Q13 1 13 10T14 28T18 46T26 61L131 174Z" />
<glyph unicode="{" glyph-name="braceleft" horiz-adv-x="314" d="M148 -14Q148 32 161 73T190 152T219 224T232 292H114Q109 292 106 295T100 303T96 314T95 323V328Q95 330 96 331L184 423H43Q43 423 37 431T26 445Q25 448 22 454T18 462Q18 500 36 532T80 592T134
647T184 698Q194 711 194 720T197 734T208 741T247 744Q247 715 234 692T202 649T160 610T116 572T80 530T61 480Q61 477 64 470T70 462Q72 462 79 462T94 462T108 461T118 461Q137 461 156 464T193 471T229 478T267 481Q280 481 284 476T289 457Q289 447 288 445T280
436Q273 430 257 417T223 388T189 360T166 340Q169 339 179 335T192 331Q194 331 204 332T226 335T248 338T262 340Q281 340 294 334T307 310Q307 298 303 288T291 270T276 254T262 235Q244 208 230 177T205 114T189 48T183 -18Q183 -47 200 -65T241 -92T294 -103T345
-106Q348 -106 353 -106T363 -106T372 -105T376 -105L585 -53H601Q601 -65 585 -76T542 -97T484 -115T422 -128T367 -137T330 -140Q297 -140 265 -135T206 -116T164 -78T148 -14Z" />
<glyph unicode="|" glyph-name="bar" horiz-adv-x="130" d="M70 43Q65 160 59 275T43 506Q43 514 41 538T37 594T31 663T25 732T21 788T18 820V826Q18 829 19 834T24 844T30 853T39 856Q40 856 40 856T42 856H43Q48 853 54 846T61 838L105 114Q112 92 113 78T115
43Q115 38 115 31T114 16T109 4T97 -1Q88 -1 83 3T76 14T72 29T70 43Z" />
<glyph unicode="}" glyph-name="braceright" horiz-adv-x="314" d="M-158 -96Q-151 -93 -137 -87T-106 -72T-69 -54T-33 -35T-3 -19T18 -8Q55 13 96 43T173 110T231 191T254 280Q254 360 221 402T114 463Q107 464 91 471T59 487T29 505T16 523Q16 535 26 545T51
566T83 587T115 610T139 637T149 671Q149 685 147 696T127 708Q116 708 109 703T97 690T86 677T73 671Q68 671 64 675T58 685T54 697T52 707Q52 721 58 730T75 744T98 751T122 753Q124 753 129 753T139 752T150 751T157 751Q175 739 179 721T184 684Q184 680 184
672T184 664Q179 642 175 624T166 589T152 556T130 523Q130 523 130 522V519Q130 518 130 517T130 515Q176 494 207 474T259 429T288 367T297 276Q297 232 277 192T225 117T152 51T68 -5T-15 -51T-88 -87Q-103 -95 -121 -99T-158 -104H-166L-158 -96Z" />
<glyph unicode="~" glyph-name="asciitilde" horiz-adv-x="278" d="M284 625Q285 613 283 592T277 549T266 511T253 493Q237 496 220 509T184 538T148 572T111 601T75 616T40 609Q29 568 16 546T-5 527T-10 559T14 648Q37 666 60 665T104 653T145 623T182 586T215
555T243 541Q245 541 247 552T251 579T253 609T253 632L284 625Z" />
<glyph unicode="&#xa0;" glyph-name="nbspace" horiz-adv-x="384" />
<glyph unicode="&#xa1;" glyph-name="exclamdown" horiz-adv-x="190" d="M72 75V48Q72 29 72 8T73 -31V-57Q76 -65 80 -65T89 -66Q94 -66 99 -66T106 -57Q106 -49 106 -32T105 7V97Q105 119 105 136T106 161Q107 196 113 233L124 306Q130 343 135 379T140 450Q140
455 140 459T132 466Q125 462 121 455T115 442Q87 349 80 260T72 75ZM106 565Q106 552 115 546T137 540Q158 540 158 560Q158 564 157 569T152 578T145 585T137 588Q125 588 116 582T106 565Z" />
<glyph unicode="&#xa2;" glyph-name="cent" horiz-adv-x="260" d="M17 100Q17 108 18 129T24 179T34 237T49 291T72 332T102 349H109Q109 367 110 381Q111 412 114 421T124 403Q129 384 135 346Q148 344 160 340Q184 330 195 315T205 282T188 250Q180 255 178
262T175 277T173 292T166 304T148 310Q145 310 141 310Q141 309 142 307Q152 238 167 114Q173 92 175 77Q176 67 177 55Q187 62 197 70Q218 85 236 103T271 139H290Q290 139 290 136T288 130Q274 101 253 77T207 36Q193 26 177 18Q178 5 176 -9Q175 -26 172 -38T160
-51Q152 -51 147 -39T138 -11Q136 -3 136 4Q114 -1 91 -1Q68 -1 54 6T31 27T20 59T17 100ZM132 43Q127 70 123 115T115 208T111 304Q91 290 79 266Q67 241 61 211T53 152T52 100Q52 72 62 53T105 34Q119 34 133 37Q132 40 132 43Z" />
<glyph unicode="&#xa3;" glyph-name="sterling" horiz-adv-x="485" d="M90 34Q86 67 88 91T94 138T102 182T109 235Q87 235 73 226T43 202Q42 202 39 202T34 202Q16 202 16 220Q16 238 34 250T73 271T112 286T130 298Q119 358 129 404T161 481T215 530T277 549T338
539T385 499Q382 502 376 492T365 469T356 446T352 440Q346 469 328 480T286 489T237 471T194 433T169 379T173 316Q175 316 181 319T195 325T208 330T217 333H226Q226 333 228 326T232 312T236 297T238 289L164 255Q163 256 158 242T148 206T138 155T132 102T135
58T150 34Q164 44 186 54T236 71T292 81T349 83T400 72T440 45Q441 45 442 40T446 28T449 15L451 10Q453 8 438 12T398 21T341 30T275 35T210 26T154 -1Q145 -1 134 0T114 5T98 16T90 34Z" />
<glyph unicode="&#xa4;" glyph-name="currency" horiz-adv-x="556" d="M212 88Q199 88 189 89T171 94T156 103T139 121Q137 118 130 110T115 93T99 77T88 70Q78 70 73 74T61 88Q67 95 77 108T99 135T120 162T136 181Q136 208 140 238T151 297T171 352T200 401Q195
414 185 430Q159 430 142 423T113 412T97 414T92 450Q112 459 134 468T179 478Q203 478 216 465T232 430Q249 442 270 449T317 456Q335 456 346 448T363 424Q366 424 380 432T409 450T438 467T452 471Q467 469 470 463T469 450T452 433T427 417T398 404T371 397Q374
380 374 361V328Q374 288 366 244T335 162Q341 145 352 133T380 118Q398 117 413 121T444 130T475 141T508 146Q508 130 495 118T463 99T425 87T393 83Q361 83 341 95T309 127Q291 109 268 99T212 88ZM169 133Q178 124 190 124H214Q252 124 276 143T313 192T332
256T337 321Q337 375 328 398T306 425T277 418T248 390T224 360T214 343Q198 298 184 257T169 169V161Q169 157 169 151T169 140V133Z" />
<glyph unicode="&#xa5;" glyph-name="yen" horiz-adv-x="458" d="M133 45H143Q151 45 159 45T175 46H184Q196 46 217 45Q234 44 253 43Q256 51 257 58Q262 84 266 109L269 129Q231 127 193 125Q181 119 173 113T155 102T136 94T112 91Q103 91 93 96T82 115Q82
125 88 131T101 141T117 146T130 150Q137 152 148 154L169 160Q181 163 189 164T199 166H266Q215 177 171 196Q124 217 90 250T37 328T17 435Q17 444 17 459T19 489T29 513T52 524Q66 524 72 521T79 503Q79 490 76 478T70 455T64 431T61 406Q61 370 76 336T116
275T175 233T244 217H251Q256 217 262 217T272 218H280Q298 230 311 258T337 321T359 395T382 464T410 515T445 535Q446 535 449 532T453 526Q454 525 455 519T457 504T459 487T462 474V470Q455 422 437 379T396 294T349 212Q337 190 325 166H420Q421 166 426 163T433
158V157L434 154L433 152V150Q433 148 430 145L427 142Q368 131 310 130H307Q289 88 280 43Q280 41 280 40Q298 40 317 38Q344 36 366 33T402 25T416 16Q416 16 416 15T415 13V12Q415 10 412 7T408 4H275Q274 -23 279 -53Q279 -89 284 -123T290 -194Q277 -194 268
-185T254 -162T247 -131T244 -97T243 -66T244 -45Q244 -20 247 4H94Q94 16 97 23T105 34T118 40T133 45Z" />
<glyph unicode="&#xa6;" glyph-name="brokenbar" horiz-adv-x="93" d="M20 333L22 571Q22 581 30 590T49 599Q50 599 53 599T57 598Q68 562 69 498T61 330L20 333ZM58 291Q59 232 61 189T65 115T69 66T72 33T75 13T76 0L32 -4Q29 -4 27 9T25 57T24 148V292L58 291Z" />
<glyph unicode="&#xa7;" glyph-name="section" horiz-adv-x="340" d="M59 109Q59 113 59 124T60 139Q61 142 67 146T77 149Q83 148 89 139T103 116T120 86T143 56T173 32T213 17Q220 16 223 17T229 22T231 29V37Q236 57 223 79T188 127T138 181T89 239T55 303T49
370Q49 379 56 391T75 417V421Q76 423 80 425T88 430Q103 445 119 451Q103 483 98 519T109 597Q109 607 118 621T141 650T170 673T197 683Q213 683 227 677T250 658Q259 644 273 623T297 580T310 543T301 522Q287 522 278 530T263 550T251 577T241 604T227 624T205
632Q187 632 174 621T153 594T140 559T136 526Q136 506 143 488T161 453Q198 435 219 414T251 370T265 323T268 277Q268 268 264 258T252 240T235 227T215 221Q209 221 198 225T173 233T145 243T119 252Q141 233 168 208T219 153T259 93T275 29Q275 19 271 10T259
-8T242 -22T222 -27Q193 -27 165 -15T113 16T74 60T59 109ZM205 265Q227 274 235 288T241 317T230 348T207 376T178 396T148 405Q147 405 146 405L145 406Q127 406 112 393Q94 379 95 359T112 319T151 285T205 265Z" />
<glyph unicode="&#xa8;" glyph-name="dieresis" horiz-adv-x="380" d="M84 546Q84 556 88 566T106 576Q118 576 127 568T137 549Q137 535 128 529T107 522Q94 522 89 527T84 546ZM227 546Q227 556 232 566T250 576Q261 576 271 568T281 549Q281 535 272 529T251
522Q237 522 232 527T227 546Z" />
<glyph unicode="&#xa9;" glyph-name="copyright" horiz-adv-x="479" d="M14 178Q14 208 20 243T40 315T72 386T116 446T173 489T242 505Q274 505 301 491T350 454T389 401T419 340T437 278T444 223Q444 169 418 129T352 61T262 21T165 7Q122 7 93 19T47 53T22
107T14 178ZM49 156Q49 127 58 107T83 75T122 57T171 51Q213 51 255 60T332 91T388 145T409 227Q409 248 404 274T390 327T366 380T334 426T294 458T247 471Q230 471 219 470T190 461V453Q190 451 191 448T194 440T197 431T199 426Q199 416 194 412T182 406T168
404T155 400Q122 386 102 358T70 295T54 224T49 156ZM131 168Q131 173 132 188T138 223T147 264T159 304T177 333T199 345Q214 345 223 335T237 310T244 282T246 259Q230 259 225 263T219 274T215 288T202 299Q186 290 177 274T163 239T158 201T157 168Q157 149
164 138T196 126Q215 126 232 132T265 149T294 170T319 193H333Q333 190 331 187Q310 150 272 127T186 103Q169 103 159 108T142 121T134 142T131 168Z" />
<glyph unicode="&#xaa;" glyph-name="ordfeminine" horiz-adv-x="317" d="M143 214Q134 204 122 194T96 174T67 159T36 153Q3 153 3 180Q3 191 14 209T42 247T80 286T122 317T160 333T189 324Q189 310 187 296T182 267T177 240T174 211Q174 208 175 202T178 189T184
177T194 172Q209 172 218 175T235 182T247 193T258 204T271 215T290 224Q290 224 290 223T290 220Q290 207 281 194T258 171T227 155T192 148Q178 148 170 155T156 171T148 192T143 214ZM154 283Q160 300 159 306T150 312T131 303T106 284T79 260T54 235T35 214T25
200Q21 188 24 182T32 173T45 171T57 176Q68 184 84 197T115 226T141 257T154 283Z" />
<glyph unicode="&#xab;" glyph-name="guillemotleft" horiz-adv-x="612" d="M205 197Q209 208 234 225T294 262T370 300T448 333T513 354T552 358L541 328Q529 323 499 309T435 279T370 249T328 229Q325 227 317 222T300 212T282 201T271 194Q270 193 269 192T268
190V186Q269 184 274 178T281 171Q334 138 392 108T508 53Q509 52 511 48T512 42V37L511 36Q510 35 510 34Q508 33 505 31L499 28Q495 29 485 31T465 36T444 40T430 43Q429 43 427 44T422 47Q412 51 391 60T345 81T293 109T246 140T213 170T205 197ZM19 207Q23
218 47 235T107 272T182 309T260 342T326 363T364 367L353 339Q345 335 329 327T291 309T247 288T203 268T166 250L142 238Q138 236 130 232T112 222T95 211T83 202Q83 202 82 200L81 199Q80 199 80 196Q80 195 81 194Q82 193 87 188T94 181Q146 148 204 117T320
62Q322 61 323 57T325 52V50Q325 49 325 48T324 46L323 44Q322 43 322 43Q321 41 317 40T311 37Q307 38 297 40T276 45T256 50T243 53Q242 54 239 55T234 57Q224 60 203 69T157 91T105 119T58 149T26 180T19 207Z" />
<glyph unicode="&#xac;" glyph-name="logicalnot" horiz-adv-x="492" d="M427 211L379 217L381 340Q379 341 372 343T363 346Q331 352 298 354T230 357T163 359T98 364Q97 365 97 366Q97 367 97 367T97 370V372Q97 373 97 373Q97 374 96 378T93 388T90 397T89
401Q99 408 130 410T202 412T288 407T369 395T427 377T442 355L427 211Z" />
<glyph unicode="&#xad;" glyph-name="uni00AD" horiz-adv-x="352" d="M40 330Q40 340 43 345T58 356Q90 354 118 353T176 353T235 358T301 366H305Q313 366 324 360T335 345Q335 334 333 324T319 313Q310 313 303 318T287 323H283Q253 316 236 313T207 309T187
307T166 309T134 311T85 312H77Q73 312 67 312T56 313H49Q42 316 41 320T40 330Z" />
<glyph unicode="&#xae;" glyph-name="registered" horiz-adv-x="527" d="M53 216Q53 245 59 280T78 352T110 423T155 484T212 527T280 543Q312 543 339 529T388 492T428 439T457 378T475 316T482 260Q482 207 456 167T390 99T300 58T203 44Q160 44 132 56T86 90T61
144T53 216ZM88 193Q88 165 97 145T122 113T160 94T210 88Q259 88 307 101T391 145Q365 140 340 144T292 159T251 187T223 225H220Q219 225 218 217T215 202Q214 197 214 187T215 165T214 144T210 132L195 131H192Q190 132 187 134T184 139Q183 142 183 155T182
184T181 212T180 229V232Q180 237 179 253T177 289T176 326T175 347V349Q175 367 181 387T200 424T230 454T268 466Q280 466 293 459T319 442T338 420T346 397Q351 380 347 365T332 337T309 313T281 292T256 274T238 260Q238 250 248 239T272 216T301 196T325 183Q328
182 334 180T347 174T360 167T370 163Q376 161 387 161T406 157Q425 178 436 204T448 265Q448 286 443 311T428 364T404 418T372 464T332 496T285 508Q268 508 257 507T228 499V490Q202 467 177 436T132 368T100 286T88 193ZM211 375Q211 356 210 335T220 297Q226
301 242 313T275 340T304 370T317 394Q317 414 302 420T266 427Q238 427 225 413T211 375Z" />
<glyph unicode="&#xaf;" glyph-name="overscore" horiz-adv-x="352" d="M35 533Q35 544 38 549T54 559Q85 557 113 557T171 557T230 561T296 569H301Q308 569 319 563T331 548Q331 538 329 528T314 517Q305 517 298 521T283 526H279Q250 520 232 517T202 512T182
510T161 512T130 514T80 515H73Q68 515 63 515T52 516H45Q37 519 36 523T35 533Z" />
<glyph unicode="&#xb0;" glyph-name="degree" horiz-adv-x="165" d="M1 152Q1 153 1 156T1 164T0 171T0 177Q0 190 3 204T11 233T24 260T46 283T76 299T116 305Q131 305 138 299T149 284T152 264T152 246Q152 228 147 209T131 173T99 147T49 136Q40 136 34 136T22
138T12 144T1 152ZM23 160Q29 156 36 156T52 156Q76 156 91 165T115 187T127 216T131 246Q131 253 131 260T129 274T121 285T104 290Q104 283 102 279T95 274T85 273T74 271T62 267T52 257Q41 236 32 217T23 177Q23 175 23 173T23 169T23 164T23 160Z" />
<glyph unicode="&#xb1;" glyph-name="plusminus" horiz-adv-x="331" d="M53 129Q53 139 56 144T71 155Q101 153 128 152T183 152L166 296H159Q156 296 153 296T148 297Q119 297 92 292T35 280Q30 283 24 291T18 306Q18 307 21 310T26 314Q33 316 50 319T87 326T124
334T148 340Q151 341 157 344T166 349Q165 359 165 372T169 397T180 420T201 436L214 427V349H318Q318 341 311 337T297 331Q292 330 282 328T258 322T234 317T218 314Q216 302 214 294T212 277T211 262T210 244Q210 222 213 200T218 154Q241 156 264 158T314 165H318Q325
165 337 159T349 143Q349 133 347 123T331 112Q322 112 316 117T300 122H296Q267 115 250 112T220 108T199 106T178 107T147 109T97 110H90Q85 110 80 110T69 111H62Q55 115 54 119T53 129Z" />
<glyph unicode="&#xb2;" glyph-name="twosuperior" horiz-adv-x="229" d="M40 153Q40 159 40 162T45 170Q59 188 75 207T104 246T127 289T136 335Q136 357 123 366T87 376Q72 376 64 371T50 359T39 348T22 342Q16 342 15 345T13 353Q13 365 21 373T42 386T68 394T92
396Q105 396 117 392T138 380T153 361T158 337Q158 312 149 290T127 246T98 205T67 166Q67 165 66 162T63 157Q67 154 69 154T76 153Q77 153 79 153T81 153L185 174H206Q206 169 197 165T173 156T143 149T111 142T84 138T70 137H65Q63 137 60 137T53 137H50Q42
139 41 143T40 153Z" />
<glyph unicode="&#xb3;" glyph-name="threesuperior" horiz-adv-x="271" d="M13 184Q13 185 13 186T13 189Q25 184 35 179T54 171T75 165T100 163Q117 163 137 167T174 181T202 205T213 240Q213 251 210 260T200 276T184 287T164 291Q153 291 145 287T129 278T113
269T95 265Q92 265 88 266T84 272Q84 277 91 283T108 298T129 315T150 335T167 358T174 385Q174 394 171 399T162 407T149 410T133 411Q113 411 98 404T75 377Q67 378 65 384T62 396Q62 408 72 415T97 425T126 430T147 432Q170 432 183 419T196 385Q196 376 194
367T187 350T179 334T169 317Q182 312 194 304T216 285T230 261T235 234Q235 212 222 196T190 168T149 152T108 146Q100 146 85 148T53 155T25 167T13 184Z" />
<glyph unicode="&#xb4;" glyph-name="acute" horiz-adv-x="145" d="M73 568Q67 562 61 553T48 537T32 529T16 537L52 599Q57 614 68 628T90 653Q100 667 111 652Q119 643 116 631T105 607T88 585T73 568Z" />
<glyph unicode="&#xb5;" glyph-name="mu" horiz-adv-x="435" d="M93 527Q88 415 92 346T105 241T129 200T161 210T195 259T228 333T258 420T280 507Q282 515 289 516T301 517Q303 517 308 517T315 516Q315 508 315 493T317 457T319 416T321 374T322 338T324 315Q323
256 325 224T331 176Q332 164 334 161Q331 163 324 164Q316 165 301 155Q292 165 292 187T293 237T293 294T282 346Q284 334 278 312T260 263T229 211T188 165T140 136T88 134Q74 13 61 -39T40 -81T33 3T49 205V519L93 527Z" />
<glyph unicode="&#xb6;" glyph-name="paragraph" horiz-adv-x="379" d="M88 311Q64 311 50 316T27 333T15 360T12 399Q12 437 27 463T69 505T127 530T193 541T258 545H311Q313 545 316 545T319 544Q323 532 325 519T329 484T330 432T329 353T325 239T319 82Q321
78 324 68T330 47T336 24T339 3H319Q319 3 316 9T308 23T300 40T293 55Q292 58 291 63T288 73T286 84T285 91V496Q277 490 268 484T249 472V456Q249 448 249 433T248 394T246 328T243 226T238 78Q240 74 243 65T250 44T255 21T258 0H238Q238 0 235 6L227 20Q223
28 219 37T213 52Q212 55 211 60T208 70T205 81T204 88V367Q189 342 161 327T88 311Z" />
<glyph unicode="&#xb7;" glyph-name="middot" horiz-adv-x="178" d="M39 221Q39 229 41 237T47 252T59 263T77 268Q87 268 96 265T113 256T126 243T131 226Q131 204 115 194T79 184Q56 184 48 191T39 221Z" />
<glyph unicode="&#xb8;" glyph-name="cedilla" horiz-adv-x="262" d="M46 -151V-145Q46 -141 46 -136T46 -126V-121Q48 -118 54 -114T64 -111Q74 -113 78 -122T91 -142T116 -163T167 -179Q181 -182 183 -175T186 -158Q184 -141 171 -131T138 -113T99 -96T66 -73T50
-36T61 24Q62 39 68 43T82 46T97 36T108 20T107 1T90 -15Q90 -40 100 -54T126 -77T160 -92T193 -106T218 -129T229 -167Q229 -176 225 -186T213 -204T196 -217T177 -223Q148 -223 124 -221T83 -212T56 -190T46 -151Z" />
<glyph unicode="&#xb9;" glyph-name="onesuperior" horiz-adv-x="96" d="M51 368Q53 368 55 368T59 367Q65 358 66 352T68 338Q68 332 68 329T67 321T64 313T59 303V167Q60 165 63 161T69 152T75 142T77 133H59Q58 133 55 135T48 141T40 149T34 156Q34 157 33
159T30 163T27 168T26 171V356Q26 360 34 364T51 368Z" />
<glyph unicode="&#xba;" glyph-name="ordmasculine" horiz-adv-x="165" d="M1 152Q1 153 1 156T1 164T0 171T0 177Q0 190 3 204T11 233T24 260T46 283T76 299T116 305Q131 305 138 299T149 284T152 264T152 246Q152 228 147 209T131 173T99 147T49 136Q40 136
34 136T22 138T12 144T1 152ZM23 160Q29 156 36 156T52 156Q76 156 91 165T115 187T127 216T131 246Q131 253 131 260T129 274T121 285T104 290Q104 283 102 279T95 274T85 273T74 271T62 267T52 257Q41 236 32 217T23 177Q23 175 23 173T23 169T23 164T23 160Z"
/>
<glyph unicode="&#xbb;" glyph-name="guillemotright" horiz-adv-x="556" d="M277 127Q277 130 287 145T310 179T334 213T349 233Q353 238 367 258T399 301T430 345T449 370Q453 376 458 384T469 400T478 415L482 421V446Q482 447 465 453T424 468T375 484T333
498L288 507Q273 510 260 512T244 514Q230 517 223 522T216 550Q216 562 222 564T235 567Q237 567 240 567T244 566L500 481Q502 480 506 478T515 474T523 467T527 456Q527 443 524 433T516 412Q511 404 500 386T475 347T450 309T433 284Q427 277 412 257T379 213T345
169T322 139L316 133Q313 130 309 127T300 119T294 114H289Q286 115 282 118T277 122Q277 124 277 124V127ZM136 91Q136 94 146 109T169 143T193 177T209 197Q213 202 227 222T259 265T290 308T309 334Q313 339 318 347T329 364T338 379L342 385V410Q342 411 325
417T284 432T235 448T193 461Q189 463 175 465L148 471Q133 474 120 476T103 478Q90 481 83 486T75 514Q75 526 82 528T95 531Q97 531 100 531T103 530L359 445Q361 444 366 442T375 438T383 431T387 420Q387 407 384 397T376 376Q371 368 360 350T334 311L309
273Q297 255 292 248Q286 241 271 221T239 177T205 133T181 103L176 97Q173 94 169 91T160 83T154 77H148Q146 79 142 82T136 86Q136 88 136 88V91Z" />
<glyph unicode="&#xbc;" glyph-name="onequarter" horiz-adv-x="553" d="M81 463Q83 463 86 463T90 462Q96 450 97 443T99 423Q99 417 99 412T98 402T95 391T90 378V202Q91 200 94 195T100 183T106 170T108 158H90Q89 158 86 161T78 169T70 179T63 187Q63 189
62 192T59 198T56 203T55 207V447Q55 453 63 458T81 463ZM33 167Q44 221 58 273T95 376L321 901L383 961H403Q403 945 396 925T377 881T351 834T323 787T297 744T278 709Q221 583 168 457T68 202V191Q68 183 67 173T62 154T51 141Q50 140 49 140H44Q43 140 42 141Q41
142 38 148T33 159V167ZM388 188Q390 191 387 195T382 199Q378 200 364 196T329 184T287 167T245 150T208 136T184 131Q173 131 171 134T169 145Q169 151 172 156T179 165T188 174T197 184Q200 189 207 198T222 218T236 236T243 246Q245 250 251 260T266 285T285
317T304 350T322 381T335 403Q339 410 341 417T348 431T358 441T375 446Q377 446 382 446T388 445Q400 433 410 421T429 394T443 366T448 336Q448 325 446 316T440 298L433 280Q429 272 428 262Q426 246 425 232T423 204T421 176T421 146V122Q421 113 422 104T424
84T428 57Q430 49 433 41T440 25T447 10T450 -6Q434 -6 424 4T408 29T399 59T395 84Q394 90 393 105T391 136T389 168T388 188ZM230 179H237Q237 179 249 182T278 191T313 201T342 210Q349 212 356 215T369 222T379 232T383 245Q383 247 383 251T382 257Q381 260
381 268T379 285T377 300T375 309Q374 314 372 323T368 340T364 355T362 361L356 367Q354 366 352 363T346 357T340 350T335 346Q334 343 330 336T319 318T306 297T293 275T283 256T276 246Q274 242 267 233T253 215T240 196T230 184V179ZM401 355Q401 350 401
341T400 321T403 303T415 294Q421 301 424 310T428 328V330Q428 333 426 339T422 352T417 364T415 372Q414 374 412 377T408 383Q401 377 401 369V355Z" />
<glyph unicode="&#xbd;" glyph-name="onehalf" horiz-adv-x="567" d="M311 483Q314 483 317 483T321 483Q328 469 329 460T331 437Q331 429 331 423T330 411T327 398T321 383V173Q322 170 325 164T332 150T338 135T341 121H321Q320 121 317 125T309 134T300 146T292
156Q292 158 291 161T287 168T284 175T283 180V465Q283 471 292 477T311 483ZM16 -128Q27 -74 41 -22T78 81L304 606L366 666H386Q386 650 379 630T360 586T334 539T306 492T280 449T261 414Q204 288 151 162T51 -93V-104Q51 -112 50 -122T45 -141T34 -154Q33 -155
32 -155H27Q26 -155 25 -154Q24 -153 21 -147T16 -136V-128ZM240 15Q240 22 240 25T249 36Q272 58 298 81T346 130T382 183T397 240Q397 267 375 278T316 290Q292 290 279 284T257 270T238 256T212 249Q201 249 199 252T196 262Q196 277 210 287T245 303T287 312T325
315Q347 315 366 310T401 295T424 272T433 242Q433 211 418 184T382 130T334 79T285 31Q284 29 282 25T278 20Q285 17 289 16T300 15Q301 15 304 15T307 15L477 40H511Q511 34 496 29T458 18T408 9T356 1T313 -4T289 -6H282Q278 -6 273 -6T262 -5H256Q244 -3 242
2T240 15Z" />
<glyph unicode="&#xbe;" glyph-name="threequarters" horiz-adv-x="799" d="M16 186Q16 187 16 188T17 192Q33 186 46 180T73 169T101 161T136 158Q160 158 187 163T237 181T276 212T292 256Q292 270 287 282T273 302T251 316T223 322Q209 322 198 317T176 305T154
294T130 289Q125 289 120 290T114 297Q114 304 123 312T146 330T176 351T205 377T228 407T238 441Q238 452 233 459T221 469T204 473T182 474Q153 474 133 464T101 431Q91 432 87 439T83 455Q83 470 98 478T132 492T171 498T200 500Q232 500 250 484T268 441Q268
429 265 418T256 396T245 376T230 354Q249 349 266 339T295 314T315 283T322 248Q322 220 305 200T261 165T204 144T148 136Q137 136 115 139T71 148T33 163T16 186ZM232 -83Q243 -29 257 23T294 126L520 651L582 711H602Q602 695 595 675T576 631T550 584T522
537T496 494T477 459Q420 333 367 207T267 -48V-59Q267 -67 266 -77T261 -96T250 -109Q249 -110 248 -110H243Q242 -110 241 -109Q240 -108 237 -102T232 -91V-83ZM622 204Q623 207 620 211T615 216Q610 218 594 213T555 199T506 180T457 161T415 146T388 140Q375
140 373 144T371 156Q371 162 374 168T382 179T392 189T402 199Q407 205 415 215T431 237T447 257T455 269Q458 273 465 284T482 312T503 347T526 384T546 418T561 444Q565 451 568 459T575 475T587 486T607 491Q609 491 615 491T622 491Q636 477 648 463T669 434T684
402T690 369Q690 357 687 347T681 327L673 307Q669 297 668 287Q665 269 664 253T661 221T660 190T660 158V131Q660 120 661 110T663 88T668 59Q669 49 673 41T681 23T689 5T693 -12Q675 -12 663 0T644 28T633 61T630 88Q629 95 628 111T625 146T623 181T622 204ZM440
194H448Q449 194 463 198T496 207T535 218T569 228Q577 230 585 234T600 242T611 253T616 267Q616 270 616 275T615 281Q614 285 613 294T611 312T609 329T607 339Q605 345 603 355T599 374T595 390T592 397L584 403Q583 402 580 399T573 392T566 385T561 380Q559
377 554 369T542 349T527 325T513 301T501 280T493 269Q491 265 483 255T467 233T452 212T440 199V194ZM636 390Q636 384 636 374T635 352T639 332T652 322Q659 329 663 340T668 359V362Q667 365 665 372T660 387T655 401T652 409Q651 411 649 415T644 421Q636
415 636 406V390Z" />
<glyph unicode="&#xbf;" glyph-name="questiondown" horiz-adv-x="392" d="M168 513Q168 507 173 501T185 488T201 478T216 474Q226 474 228 482T230 496Q230 510 217 521T186 533Q175 533 172 528T168 513ZM134 266Q134 241 147 221T181 181T224 143T268 106T301
65T315 17Q315 -6 306 -21T282 -46T246 -60T200 -65Q170 -65 140 -63T84 -50Q81 -49 71 -43T59 -35Q58 -34 56 -32T50 -28T45 -23T41 -21Q35 -20 27 -20T13 -24T2 -31T-3 -44Q-3 -53 11 -61T46 -75T94 -86T144 -94T186 -99T212 -101Q247 -101 273 -92T319 -66T348
-26T358 25Q358 49 344 72T309 116T264 158T218 198T183 235T169 270Q169 284 174 296T179 324Q166 324 158 319T144 305T136 286T134 266Z" />
<glyph unicode="&#xc0;" glyph-name="Agrave" horiz-adv-x="672" d="M87 26Q87 28 87 31T88 34Q103 63 119 90T153 143T187 197T218 253Q214 262 198 269T160 284T112 302T66 327T31 361T17 407Q17 434 35 454T79 488T134 509T184 516Q228 516 261 501T331 462Q343
471 351 482T367 506Q370 513 380 531T401 571T422 610T436 637Q444 643 449 644T463 646Q464 646 467 646T472 646Q482 604 487 560T494 472T499 384T506 296Q509 296 517 296T529 295Q543 295 557 298T585 304T613 311T643 314H646Q647 313 650 310T655 306Q649
295 636 289T606 278T571 271T539 263T516 252T506 235Q506 215 508 195T514 155T521 114T524 72Q524 67 524 58T522 40T516 24T502 17Q492 17 484 32T471 70T463 120T457 173T451 218T445 244Q437 245 416 246T371 248T326 251T297 253H287Q267 253 250 235T218
188T189 127T162 66T135 18T105 -1Q94 -1 91 7T87 26ZM288 296Q296 291 307 289T331 286T353 286T372 286Q376 286 382 286T394 287T404 287T410 288L419 296Q421 298 412 314T390 347T363 379T345 394Q344 394 343 393T340 392Q325 370 312 346T288 296ZM61 408Q61
382 79 363T123 330T178 311T229 305Q243 305 258 319T285 353T306 392T315 423Q315 435 299 445T262 464T219 476T188 481Q173 481 152 477T110 463T75 441T61 408ZM375 441Q375 428 385 409T409 372T438 341T466 328Q466 333 466 343T465 365T464 387T463 402Q461
416 459 439T454 484T449 523T445 541L436 558Q435 557 432 554T427 550Q424 544 417 531T402 502T386 473T376 454Q376 452 376 447T375 441ZM416 748Q409 754 398 764T377 787T364 812T370 834Q378 841 383 841T396 835Q406 824 420 810T441 780L484 718Q475
708 465 709T447 717T430 733T416 748Z" />
<glyph unicode="&#xc1;" glyph-name="Aacute" horiz-adv-x="672" d="M87 26Q87 28 87 31T88 34Q103 63 119 90T153 143T187 197T218 253Q214 262 198 269T160 284T112 302T66 327T31 361T17 407Q17 434 35 454T79 488T134 509T184 516Q228 516 261 501T331 462Q343
471 351 482T367 506Q370 513 380 531T401 571T422 610T436 637Q444 643 449 644T463 646Q464 646 467 646T472 646Q482 604 487 560T494 472T499 384T506 296Q509 296 517 296T529 295Q543 295 557 298T585 304T613 311T643 314H646Q647 313 650 310T655 306Q649
295 636 289T606 278T571 271T539 263T516 252T506 235Q506 215 508 195T514 155T521 114T524 72Q524 67 524 58T522 40T516 24T502 17Q492 17 484 32T471 70T463 120T457 173T451 218T445 244Q437 245 416 246T371 248T326 251T297 253H287Q267 253 250 235T218
188T189 127T162 66T135 18T105 -1Q94 -1 91 7T87 26ZM288 296Q296 291 307 289T331 286T353 286T372 286Q376 286 382 286T394 287T404 287T410 288L419 296Q421 298 412 314T390 347T363 379T345 394Q344 394 343 393T340 392Q325 370 312 346T288 296ZM61 408Q61
382 79 363T123 330T178 311T229 305Q243 305 258 319T285 353T306 392T315 423Q315 435 299 445T262 464T219 476T188 481Q173 481 152 477T110 463T75 441T61 408ZM375 441Q375 428 385 409T409 372T438 341T466 328Q466 333 466 343T465 365T464 387T463 402Q461
416 459 439T454 484T449 523T445 541L436 558Q435 557 432 554T427 550Q424 544 417 531T402 502T386 473T376 454Q376 452 376 447T375 441ZM479 753Q473 747 467 738T454 722T438 714T422 722L458 784Q463 799 474 813T496 838Q506 852 517 837Q525 828 522
816T511 792T494 770T479 753Z" />
<glyph unicode="&#xc2;" glyph-name="Acircumflex" horiz-adv-x="672" d="M87 26Q87 28 87 31T88 34Q103 63 119 90T153 143T187 197T218 253Q214 262 198 269T160 284T112 302T66 327T31 361T17 407Q17 434 35 454T79 488T134 509T184 516Q228 516 261 501T331
462Q343 471 351 482T367 506Q370 513 380 531T401 571T422 610T436 637Q444 643 449 644T463 646Q464 646 467 646T472 646Q482 604 487 560T494 472T499 384T506 296Q509 296 517 296T529 295Q543 295 557 298T585 304T613 311T643 314H646Q647 313 650 310T655
306Q649 295 636 289T606 278T571 271T539 263T516 252T506 235Q506 215 508 195T514 155T521 114T524 72Q524 67 524 58T522 40T516 24T502 17Q492 17 484 32T471 70T463 120T457 173T451 218T445 244Q437 245 416 246T371 248T326 251T297 253H287Q267 253 250
235T218 188T189 127T162 66T135 18T105 -1Q94 -1 91 7T87 26ZM288 296Q296 291 307 289T331 286T353 286T372 286Q376 286 382 286T394 287T404 287T410 288L419 296Q421 298 412 314T390 347T363 379T345 394Q344 394 343 393T340 392Q325 370 312 346T288 296ZM61
408Q61 382 79 363T123 330T178 311T229 305Q243 305 258 319T285 353T306 392T315 423Q315 435 299 445T262 464T219 476T188 481Q173 481 152 477T110 463T75 441T61 408ZM375 441Q375 428 385 409T409 372T438 341T466 328Q466 333 466 343T465 365T464 387T463
402Q461 416 459 439T454 484T449 523T445 541L436 558Q435 557 432 554T427 550Q424 544 417 531T402 502T386 473T376 454Q376 452 376 447T375 441ZM447 776Q445 776 441 770T430 757T420 743T415 735Q389 704 376 694T358 686T357 704T367 736T385 775T404
812T421 836T431 839Q436 848 445 852T462 857H466Q478 827 484 812T493 791T499 782T505 772T514 748T533 698Q518 683 509 679T493 677T482 691T473 715T462 745T447 776Z" />
<glyph unicode="&#xc3;" glyph-name="Atilde" horiz-adv-x="672" d="M87 26Q87 28 87 31T88 34Q103 63 119 90T153 143T187 197T218 253Q214 262 198 269T160 284T112 302T66 327T31 361T17 407Q17 434 35 454T79 488T134 509T184 516Q228 516 261 501T331 462Q343
471 351 482T367 506Q370 513 380 531T401 571T422 610T436 637Q444 643 449 644T463 646Q464 646 467 646T472 646Q482 604 487 560T494 472T499 384T506 296Q509 296 517 296T529 295Q543 295 557 298T585 304T613 311T643 314H646Q647 313 650 310T655 306Q649
295 636 289T606 278T571 271T539 263T516 252T506 235Q506 215 508 195T514 155T521 114T524 72Q524 67 524 58T522 40T516 24T502 17Q492 17 484 32T471 70T463 120T457 173T451 218T445 244Q437 245 416 246T371 248T326 251T297 253H287Q267 253 250 235T218
188T189 127T162 66T135 18T105 -1Q94 -1 91 7T87 26ZM288 296Q296 291 307 289T331 286T353 286T372 286Q376 286 382 286T394 287T404 287T410 288L419 296Q421 298 412 314T390 347T363 379T345 394Q344 394 343 393T340 392Q325 370 312 346T288 296ZM61 408Q61
382 79 363T123 330T178 311T229 305Q243 305 258 319T285 353T306 392T315 423Q315 435 299 445T262 464T219 476T188 481Q173 481 152 477T110 463T75 441T61 408ZM375 441Q375 428 385 409T409 372T438 341T466 328Q466 333 466 343T465 365T464 387T463 402Q461
416 459 439T454 484T449 523T445 541L436 558Q435 557 432 554T427 550Q424 544 417 531T402 502T386 473T376 454Q376 452 376 447T375 441ZM603 786Q604 774 602 753T596 710T585 672T572 654Q556 657 539 670T503 699T467 733T430 762T394 777T359 770Q348
729 335 707T314 688T309 720T333 809Q356 827 379 826T423 814T464 784T501 747T534 716T562 702Q564 702 566 713T570 740T572 770T572 793L603 786Z" />
<glyph unicode="&#xc4;" glyph-name="Adieresis" horiz-adv-x="672" d="M87 26Q87 28 87 31T88 34Q103 63 119 90T153 143T187 197T218 253Q214 262 198 269T160 284T112 302T66 327T31 361T17 407Q17 434 35 454T79 488T134 509T184 516Q228 516 261 501T331
462Q343 471 351 482T367 506Q370 513 380 531T401 571T422 610T436 637Q444 643 449 644T463 646Q464 646 467 646T472 646Q482 604 487 560T494 472T499 384T506 296Q509 296 517 296T529 295Q543 295 557 298T585 304T613 311T643 314H646Q647 313 650 310T655
306Q649 295 636 289T606 278T571 271T539 263T516 252T506 235Q506 215 508 195T514 155T521 114T524 72Q524 67 524 58T522 40T516 24T502 17Q492 17 484 32T471 70T463 120T457 173T451 218T445 244Q437 245 416 246T371 248T326 251T297 253H287Q267 253 250
235T218 188T189 127T162 66T135 18T105 -1Q94 -1 91 7T87 26ZM288 296Q296 291 307 289T331 286T353 286T372 286Q376 286 382 286T394 287T404 287T410 288L419 296Q421 298 412 314T390 347T363 379T345 394Q344 394 343 393T340 392Q325 370 312 346T288 296ZM61
408Q61 382 79 363T123 330T178 311T229 305Q243 305 258 319T285 353T306 392T315 423Q315 435 299 445T262 464T219 476T188 481Q173 481 152 477T110 463T75 441T61 408ZM375 441Q375 428 385 409T409 372T438 341T466 328Q466 333 466 343T465 365T464 387T463
402Q461 416 459 439T454 484T449 523T445 541L436 558Q435 557 432 554T427 550Q424 544 417 531T402 502T386 473T376 454Q376 452 376 447T375 441ZM351 708Q351 718 355 728T373 738Q385 738 394 730T404 711Q404 697 395 691T374 684Q361 684 356 689T351
708ZM494 708Q494 718 499 728T517 738Q528 738 538 730T548 711Q548 697 539 691T518 684Q504 684 499 689T494 708Z" />
<glyph unicode="&#xc5;" glyph-name="Aring" horiz-adv-x="672" d="M373 634Q373 637 373 646T373 658Q373 676 378 697T398 737T434 767T492 779Q507 779 515 773T526 759T529 740V724Q529 707 525 689T508 655T475 630Q483 595 487 559Q492 516 494 472T499
384T506 296Q509 296 517 296T529 295Q543 295 557 298T585 304T613 311T643 314H646Q647 313 650 310L655 306Q649 295 636 289T606 278T571 271T539 263T516 252T506 235Q506 215 508 195T514 155T521 114T524 72Q524 67 524 58T522 40T516 24T502 17Q492 17
484 32T471 70T463 120T457 173T451 218T445 244Q437 245 416 246T371 248T326 251T297 253H287Q267 253 250 235T218 188T189 127T162 66T135 18T105 -1Q94 -1 91 7T87 26Q87 28 87 31T88 34Q103 63 119 90T153 143T187 197T218 253Q214 262 198 269T160 284T112
302T66 327T31 361T17 407Q17 434 35 454T79 488T134 509T184 516Q228 516 261 501T331 462Q343 471 351 482T367 506Q370 513 380 531T401 571T422 610Q425 615 427 619H423Q404 619 395 622T373 634ZM61 408Q61 382 79 363T123 330T178 311T229 305Q243 305 258
319T285 353T306 392T315 423Q315 435 299 445T262 464T219 476T188 481Q173 481 152 477T110 463T75 441T61 408ZM375 441Q375 428 385 409T409 372T438 341T466 328Q466 333 466 343T465 365T464 387T463 402Q461 416 459 439T454 484T449 523T445 541L436 558Q435
557 432 554T427 550Q424 544 417 531T402 502T386 473T376 454Q376 452 376 447T375 441ZM396 642Q402 638 410 638H438Q444 643 449 644T463 646Q463 646 465 646H466Q482 655 491 667T503 695T507 724Q507 730 507 737T506 750T498 761T479 765Q479 754 474
751T460 748T442 745T425 733Q415 714 406 696T396 658V642ZM288 296Q296 291 307 289T331 286T353 286T372 286Q376 286 382 286T394 287T404 287T410 288L419 296Q421 298 412 314T390 347T363 379T345 394Q344 394 343 393T340 392Q325 370 312 346T288 296Z"
/>
<glyph unicode="&#xc6;" glyph-name="AE" horiz-adv-x="994" d="M87 26Q87 28 87 31T88 34Q103 63 119 90T153 143T187 197T218 253Q214 262 198 269T160 284T112 302T66 327T31 361T17 407Q17 434 35 454T79 488T134 509T184 516Q228 516 261 501T331 462Q343
471 351 482T367 506Q370 513 380 531T401 571T422 610T436 637Q444 643 449 644T463 646Q464 646 467 646T472 646Q481 609 485 571T493 495Q524 506 563 514T640 528T709 535T758 538H781Q790 538 804 537T833 534T857 531L868 530L877 521L868 512Q823 511 782
508T701 501T619 489T536 469Q535 467 534 461T532 448T529 435T527 425V418Q527 415 528 410T529 400T529 394Q611 394 691 401T853 409H865Q871 409 875 408T883 402T886 389Q886 384 864 376T807 357T732 333T655 306Q646 292 627 285T583 273Q569 263 561 255T553
237V235Q553 234 553 233Q554 232 558 229T562 224Q562 223 563 223V221L564 220L563 218Q562 217 562 216L553 207Q552 204 549 198T545 190Q545 157 556 134T587 96T631 74T685 67Q724 67 756 78T816 108T869 152T920 207Q921 208 923 212T929 223T934 234T937
242Q937 243 937 246T938 252Q938 258 935 261T926 266T916 268T904 269Q904 283 917 288T942 294Q957 294 965 284T973 259Q973 231 958 203T919 148T864 99T799 60T734 33T676 23Q639 23 613 33T567 62T536 105T514 160Q517 138 520 116T524 72Q524 67 524 58T522
40T516 24T502 17Q492 17 484 32T471 70T463 120T457 173T451 218T445 244L297 253H287Q267 253 250 235T218 188T189 127T162 66T135 18T105 -1Q94 -1 91 7T87 26ZM61 408Q61 382 79 363T123 330T178 311T229 305Q243 305 258 319T285 353T306 392T315 423Q315
435 299 445T262 464T219 476T188 481Q173 481 152 477T110 463T75 441T61 408ZM375 441Q375 428 385 409T409 372T438 341T466 328Q466 333 466 343T465 365T464 387T463 402Q460 403 460 415T462 443T464 479T464 515T455 544T436 558Q435 557 432 554T427 550L376
454Q376 452 376 447T375 441ZM288 296Q296 291 307 289T331 286T353 286T372 286Q376 286 382 286T394 287T404 287T410 288L419 296Q421 298 412 314T390 347T363 379T345 394Q344 394 343 393T340 392Q325 370 312 346T288 296ZM526 376Q526 355 527 339Q529
325 530 314T536 303H545Q546 303 558 308T586 319T620 333T649 346L684 364Q667 369 646 371T603 374T561 376H526Z" />
<glyph unicode="&#xc7;" glyph-name="Ccedilla" horiz-adv-x="462" d="M160 -151V-145Q160 -141 160 -136T161 -126V-121Q163 -118 169 -114T179 -111Q189 -113 193 -122T206 -142T231 -163T282 -179Q296 -182 298 -175T301 -158Q299 -141 285 -131T253 -113T214
-96T181 -73T164 -35Q162 -20 169 4Q153 7 138 12Q103 25 78 49T39 108T25 188Q25 211 28 247T38 326T59 411T90 489T134 546T192 568Q232 568 260 545T307 489T336 417T349 349Q347 337 338 330T319 322H314L310 327Q307 330 306 331Q306 334 306 338T305 349T305
359T304 366Q304 385 309 400T314 431V436Q302 450 290 465T265 494T235 515T199 524Q174 524 154 506T118 459T92 395T74 325T64 261T61 214Q61 175 70 142T99 85T148 47Q163 40 178 37Q180 41 183 43Q189 48 197 46T212 36L214 34H219Q240 34 263 38T308 49T352
66T392 88Q394 88 399 92T409 100T420 108T427 114Q428 114 431 114T436 115Q438 115 441 115T445 114Q440 93 426 77T393 47T349 25T301 10T256 1Q236 0 221 -1Q217 -9 205 -15Q205 -40 215 -54T241 -77T274 -92T307 -106T333 -129T344 -167Q344 -176 340 -186T328
-204T311 -217T292 -223Q263 -223 239 -221T198 -212T170 -190T160 -151Z" />
<glyph unicode="&#xc8;" glyph-name="Egrave" horiz-adv-x="584" d="M88 184Q74 191 68 198T61 218Q61 225 63 230T69 239T76 249T79 261Q79 273 79 289T78 321T71 352T52 376Q55 377 61 383T70 392V394Q70 394 70 395T70 397Q70 410 64 415T49 422T31 426T18
436Q29 451 54 462T110 481T176 496T244 506T303 512T344 514H367Q376 514 390 513T419 510T443 507T454 506L463 498L454 488Q367 485 287 477T122 445Q121 443 120 437T118 424T115 411T114 402Q114 400 114 396T114 386T115 377T115 370Q197 370 277 377T439
385Q445 385 451 385T461 384T469 378T472 365Q472 360 448 351T386 331T306 305T225 276T164 245T139 214V211Q139 211 139 210Q140 209 144 206T148 200Q148 199 149 199V197Q149 196 150 196Q150 196 150 196T149 194Q148 193 148 192Q148 191 144 188T139 184Q138
181 135 174T131 166Q131 133 142 110T173 72T217 50T271 43Q310 43 342 54T402 84T455 128T506 184Q507 184 509 189T515 199T520 210T523 218Q523 219 523 222T524 228Q524 234 521 237T512 243T502 245T490 246Q490 260 503 265T529 270Q544 270 551 260T559
235Q559 207 544 179T505 124T450 75T385 36T320 9T262 -1Q218 -1 189 13T140 53T109 112T88 184ZM112 352Q112 331 114 316Q115 302 116 291T122 280H131Q132 280 144 284T172 296T206 310T235 322Q238 323 242 326T253 331T263 337T271 340Q253 345 232 347T190
351T148 352T112 352ZM294 725Q287 731 276 741T255 764T242 789T248 811Q256 818 261 818T274 812Q284 801 298 787T319 757L362 695Q353 685 343 686T325 694T308 710T294 725Z" />
<glyph unicode="&#xc9;" glyph-name="Eacute" horiz-adv-x="584" d="M88 184Q74 191 68 198T61 218Q61 225 63 230T69 239T76 249T79 261Q79 273 79 289T78 321T71 352T52 376Q55 377 61 383T70 392V394Q70 394 70 395T70 397Q70 410 64 415T49 422T31 426T18
436Q29 451 54 462T110 481T176 496T244 506T303 512T344 514H367Q376 514 390 513T419 510T443 507T454 506L463 498L454 488Q367 485 287 477T122 445Q121 443 120 437T118 424T115 411T114 402Q114 400 114 396T114 386T115 377T115 370Q197 370 277 377T439
385Q445 385 451 385T461 384T469 378T472 365Q472 360 448 351T386 331T306 305T225 276T164 245T139 214V211Q139 211 139 210Q140 209 144 206T148 200Q148 199 149 199V197Q149 196 150 196Q150 196 150 196T149 194Q148 193 148 192Q148 191 144 188T139 184Q138
181 135 174T131 166Q131 133 142 110T173 72T217 50T271 43Q310 43 342 54T402 84T455 128T506 184Q507 184 509 189T515 199T520 210T523 218Q523 219 523 222T524 228Q524 234 521 237T512 243T502 245T490 246Q490 260 503 265T529 270Q544 270 551 260T559
235Q559 207 544 179T505 124T450 75T385 36T320 9T262 -1Q218 -1 189 13T140 53T109 112T88 184ZM112 352Q112 331 114 316Q115 302 116 291T122 280H131Q132 280 144 284T172 296T206 310T235 322Q238 323 242 326T253 331T263 337T271 340Q253 345 232 347T190
351T148 352T112 352ZM290 722Q284 716 278 707T265 691T249 683T233 691L269 753Q274 768 285 782T307 807Q317 821 328 806Q336 797 333 785T322 761T305 739T290 722Z" />
<glyph unicode="&#xca;" glyph-name="Ecircumflex" horiz-adv-x="584" d="M88 184Q74 191 68 198T61 218Q61 225 63 230T69 239T76 249T79 261Q79 273 79 289T78 321T71 352T52 376Q55 377 61 383T70 392V394Q70 394 70 395T70 397Q70 410 64 415T49 422T31 426T18
436Q29 451 54 462T110 481T176 496T244 506T303 512T344 514H367Q376 514 390 513T419 510T443 507T454 506L463 498L454 488Q367 485 287 477T122 445Q121 443 120 437T118 424T115 411T114 402Q114 400 114 396T114 386T115 377T115 370Q197 370 277 377T439
385Q445 385 451 385T461 384T469 378T472 365Q472 360 448 351T386 331T306 305T225 276T164 245T139 214V211Q139 211 139 210Q140 209 144 206T148 200Q148 199 149 199V197Q149 196 150 196Q150 196 150 196T149 194Q148 193 148 192Q148 191 144 188T139 184Q138
181 135 174T131 166Q131 133 142 110T173 72T217 50T271 43Q310 43 342 54T402 84T455 128T506 184Q507 184 509 189T515 199T520 210T523 218Q523 219 523 222T524 228Q524 234 521 237T512 243T502 245T490 246Q490 260 503 265T529 270Q544 270 551 260T559
235Q559 207 544 179T505 124T450 75T385 36T320 9T262 -1Q218 -1 189 13T140 53T109 112T88 184ZM112 352Q112 331 114 316Q115 302 116 291T122 280H131Q132 280 144 284T172 296T206 310T235 322Q238 323 242 326T253 331T263 337T271 340Q253 345 232 347T190
351T148 352T112 352ZM333 776Q331 776 327 770T316 757T306 743T301 735Q275 704 262 694T244 686T243 704T253 736T271 775T290 812T307 836T317 839Q322 848 331 852T348 857H352Q364 827 370 812T379 791T385 782T391 772T400 748T419 698Q404 683 395 679T379
677T368 691T359 715T348 745T333 776Z" />
<glyph unicode="&#xcb;" glyph-name="Edieresis" horiz-adv-x="584" d="M88 184Q74 191 68 198T61 218Q61 225 63 230T69 239T76 249T79 261Q79 273 79 289T78 321T71 352T52 376Q55 377 61 383T70 392V394Q70 394 70 395T70 397Q70 410 64 415T49 422T31 426T18
436Q29 451 54 462T110 481T176 496T244 506T303 512T344 514H367Q376 514 390 513T419 510T443 507T454 506L463 498L454 488Q367 485 287 477T122 445Q121 443 120 437T118 424T115 411T114 402Q114 400 114 396T114 386T115 377T115 370Q197 370 277 377T439
385Q445 385 451 385T461 384T469 378T472 365Q472 360 448 351T386 331T306 305T225 276T164 245T139 214V211Q139 211 139 210Q140 209 144 206T148 200Q148 199 149 199V197Q149 196 150 196Q150 196 150 196T149 194Q148 193 148 192Q148 191 144 188T139 184Q138
181 135 174T131 166Q131 133 142 110T173 72T217 50T271 43Q310 43 342 54T402 84T455 128T506 184Q507 184 509 189T515 199T520 210T523 218Q523 219 523 222T524 228Q524 234 521 237T512 243T502 245T490 246Q490 260 503 265T529 270Q544 270 551 260T559
235Q559 207 544 179T505 124T450 75T385 36T320 9T262 -1Q218 -1 189 13T140 53T109 112T88 184ZM112 352Q112 331 114 316Q115 302 116 291T122 280H131Q132 280 144 284T172 296T206 310T235 322Q238 323 242 326T253 331T263 337T271 340Q253 345 232 347T190
351T148 352T112 352ZM193 700Q193 710 197 720T215 730Q227 730 236 722T246 703Q246 689 237 683T216 676Q203 676 198 681T193 700ZM336 700Q336 710 341 720T359 730Q370 730 380 722T390 703Q390 689 381 683T360 676Q346 676 341 681T336 700Z" />
<glyph unicode="&#xcc;" glyph-name="Igrave" horiz-adv-x="130" d="M35 166Q28 262 23 352T17 537Q17 539 17 546T17 560T18 575T18 584Q19 591 25 601T39 612Q46 612 50 606T57 592T60 577T61 568Q62 560 63 544T66 509T68 475T70 454Q70 447 70 427T70 380T70
323T70 265T70 219T70 192Q70 166 77 142T93 93T108 44T115 -6Q103 -6 93 5T74 32T59 69T47 108T39 142T35 166ZM66 725Q59 731 48 741T27 764T14 789T20 811Q28 818 33 818T46 812Q56 801 70 787T91 757L134 695Q125 685 115 686T97 694T80 710T66 725Z" />
<glyph unicode="&#xcd;" glyph-name="Iacute" horiz-adv-x="130" d="M35 166Q28 262 23 352T17 537Q17 539 17 546T17 560T18 575T18 584Q19 591 25 601T39 612Q46 612 50 606T57 592T60 577T61 568Q62 560 63 544T66 509T68 475T70 454Q70 447 70 427T70 380T70
323T70 265T70 219T70 192Q70 166 77 142T93 93T108 44T115 -6Q103 -6 93 5T74 32T59 69T47 108T39 142T35 166ZM66 722Q60 716 54 707T41 691T25 683T9 691L45 753Q50 768 61 782T83 807Q93 821 104 806Q112 797 109 785T98 761T81 739T66 722Z" />
<glyph unicode="&#xce;" glyph-name="Icircumflex" horiz-adv-x="130" d="M35 166Q28 262 23 352T17 537Q17 539 17 546T17 560T18 575T18 584Q19 591 25 601T39 612Q46 612 50 606T57 592T60 577T61 568Q62 560 63 544T66 509T68 475T70 454Q70 447 70 427T70
380T70 323T70 265T70 219T70 192Q70 166 77 142T93 93T108 44T115 -6Q103 -6 93 5T74 32T59 69T47 108T39 142T35 166ZM108 776Q106 776 102 770T91 757T81 743T76 735Q50 704 37 694T19 686T18 704T28 736T46 775T65 812T82 836T92 839Q97 848 106 852T123 857H127Q139
827 145 812T154 791T160 782T166 772T175 748T194 698Q179 683 170 679T154 677T143 691T134 715T123 745T108 776Z" />
<glyph unicode="&#xcf;" glyph-name="Idieresis" horiz-adv-x="130" d="M35 166Q28 262 23 352T17 537Q17 539 17 546T17 560T18 575T18 584Q19 591 25 601T39 612Q46 612 50 606T57 592T60 577T61 568Q62 560 63 544T66 509T68 475T70 454Q70 447 70 427T70 380T70
323T70 265T70 219T70 192Q70 166 77 142T93 93T108 44T115 -6Q103 -6 93 5T74 32T59 69T47 108T39 142T35 166ZM-31 700Q-31 710 -27 720T-9 730Q3 730 12 722T22 703Q22 689 13 683T-8 676Q-21 676 -26 681T-31 700ZM112 700Q112 710 117 720T135 730Q146 730
156 722T166 703Q166 689 157 683T136 676Q122 676 117 681T112 700Z" />
<glyph unicode="&#xd0;" glyph-name="Eth" horiz-adv-x="514" d="M13 288Q13 298 16 303T31 314Q36 314 44 314T62 315T85 316L109 318V326Q109 328 109 344T108 383T107 433T106 483T106 523T105 541Q105 545 106 555T108 576T110 597T114 610Q129 623 137 626T160
629Q202 629 243 614T321 571T388 508T441 432T477 350T490 268Q490 223 472 175T421 88T347 24T256 -1Q242 -1 229 1T203 5T176 8T148 8Q142 13 126 25T91 52T57 79T35 96Q26 103 21 108T15 127Q30 127 41 120T62 104T84 88T111 81Q114 119 114 148T113 200T110
239T108 268Q99 268 87 268T58 269H50Q46 269 40 269T29 270H22Q15 274 14 278T13 288ZM139 561Q139 547 139 518T139 454T140 383T145 320L162 322Q178 325 187 324T205 321T222 318T249 321H253Q260 321 271 315T283 299Q283 289 281 279T266 268Q257 268 251
273T235 278H231Q196 270 180 267T155 263L175 52Q175 51 178 48T184 43Q186 42 192 40T207 34T224 29T235 26H241Q266 26 292 38T342 71T386 117T421 172T445 228T454 280Q454 309 442 343T410 411T362 476T305 532T243 570T181 585Q174 585 167 585T154 582T144
575T139 561Z" />
<glyph unicode="&#xd1;" glyph-name="Ntilde" horiz-adv-x="576" d="M114 392Q114 392 112 375T107 334T101 286T96 244V235Q94 226 91 203T83 153T75 103T70 70Q67 58 59 51T38 43Q32 43 30 47T26 59T25 72T25 82Q25 136 30 194T44 312T66 429T96 541Q97 546
100 548T108 550T117 550T124 550Q126 550 128 550T133 550H139Q139 550 140 546T143 535T146 524T148 514Q154 487 166 442T196 345T238 238T290 141T351 70T418 43Q435 43 449 55T473 86T491 130T504 176T512 218T515 248Q515 327 499 401T454 550Q448 558 436
565T418 576Q421 583 426 584T437 585Q456 585 471 562T499 504T522 427T538 346T547 276T550 234Q550 202 545 162T524 85T483 24T414 -1Q376 -1 344 23T284 86T233 172T189 265T153 349T122 410L114 392ZM449 779Q450 767 448 746T442 703T431 665T418 647Q402
650 385 663T349 692T313 726T276 755T240 770T205 763Q194 722 181 700T160 681T155 713T179 802Q202 820 225 819T269 807T310 777T347 740T380 709T408 695Q410 695 412 706T416 733T418 763T418 786L449 779Z" />
<glyph unicode="&#xd2;" glyph-name="Ograve" horiz-adv-x="472" d="M17 170Q17 199 23 235T42 307T74 378T119 439T176 482T244 498Q276 498 303 484T352 447T392 394T421 333T439 271T446 215Q446 180 434 150T402 96T354 54T295 24T232 5T167 -1Q124 -1 96
11T50 45T25 99T17 170ZM52 148Q52 120 61 100T86 67T124 49T173 43Q215 43 258 52T335 83T390 138T412 220Q412 250 401 292T368 372T317 436T249 463Q232 463 221 462T192 454V449V445Q192 444 193 440T197 432T200 423T201 418Q201 409 196 405T185 398T171
395T157 392Q124 378 104 350T72 288T56 216T52 148ZM245 583Q238 589 227 599T206 622T193 647T199 669Q207 676 212 676T225 670Q235 659 249 645T270 615L313 553Q304 543 294 544T276 552T259 568T245 583Z" />
<glyph unicode="&#xd3;" glyph-name="Oacute" horiz-adv-x="472" d="M17 170Q17 199 23 235T42 307T74 378T119 439T176 482T244 498Q276 498 303 484T352 447T392 394T421 333T439 271T446 215Q446 180 434 150T402 96T354 54T295 24T232 5T167 -1Q124 -1 96
11T50 45T25 99T17 170ZM52 148Q52 120 61 100T86 67T124 49T173 43Q215 43 258 52T335 83T390 138T412 220Q412 250 401 292T368 372T317 436T249 463Q232 463 221 462T192 454V449V445Q192 444 193 440T197 432T200 423T201 418Q201 409 196 405T185 398T171
395T157 392Q124 378 104 350T72 288T56 216T52 148ZM218 588Q212 582 206 573T193 557T177 549T161 557L197 619Q202 634 213 648T235 673Q245 687 256 672Q264 663 261 651T250 627T233 605T218 588Z" />
<glyph unicode="&#xd4;" glyph-name="Ocircumflex" horiz-adv-x="472" d="M17 170Q17 199 23 235T42 307T74 378T119 439T176 482T244 498Q276 498 303 484T352 447T392 394T421 333T439 271T446 215Q446 180 434 150T402 96T354 54T295 24T232 5T167 -1Q124 -1
96 11T50 45T25 99T17 170ZM52 148Q52 120 61 100T86 67T124 49T173 43Q215 43 258 52T335 83T390 138T412 220Q412 250 401 292T368 372T317 436T249 463Q232 463 221 462T192 454V449V445Q192 444 193 440T197 432T200 423T201 418Q201 409 196 405T185 398T171
395T157 392Q124 378 104 350T72 288T56 216T52 148ZM245 647Q243 647 239 641T228 628T218 614T213 606Q187 575 174 565T156 557T155 575T165 607T183 646T202 683T219 707T229 710Q234 719 243 723T260 728H264Q276 698 282 683T291 662T297 653T303 643T312
619T331 569Q316 554 307 550T291 548T280 562T271 586T260 616T245 647Z" />
<glyph unicode="&#xd5;" glyph-name="Otilde" horiz-adv-x="472" d="M17 170Q17 199 23 235T42 307T74 378T119 439T176 482T244 498Q276 498 303 484T352 447T392 394T421 333T439 271T446 215Q446 180 434 150T402 96T354 54T295 24T232 5T167 -1Q124 -1 96
11T50 45T25 99T17 170ZM52 148Q52 120 61 100T86 67T124 49T173 43Q215 43 258 52T335 83T390 138T412 220Q412 250 401 292T368 372T317 436T249 463Q232 463 221 462T192 454V449V445Q192 444 193 440T197 432T200 423T201 418Q201 409 196 405T185 398T171
395T157 392Q124 378 104 350T72 288T56 216T52 148ZM384 626Q385 614 383 593T377 550T366 512T353 494Q337 497 320 510T284 539T248 573T211 602T175 617T140 610Q129 569 116 547T95 528T90 560T114 649Q137 667 160 666T204 654T245 624T282 587T315 556T343
542Q345 542 347 553T351 580T353 610T353 633L384 626Z" />
<glyph unicode="&#xd6;" glyph-name="Odieresis" horiz-adv-x="472" d="M17 170Q17 199 23 235T42 307T74 378T119 439T176 482T244 498Q276 498 303 484T352 447T392 394T421 333T439 271T446 215Q446 180 434 150T402 96T354 54T295 24T232 5T167 -1Q124 -1
96 11T50 45T25 99T17 170ZM52 148Q52 120 61 100T86 67T124 49T173 43Q215 43 258 52T335 83T390 138T412 220Q412 250 401 292T368 372T317 436T249 463Q232 463 221 462T192 454V449V445Q192 444 193 440T197 432T200 423T201 418Q201 409 196 405T185 398T171
395T157 392Q124 378 104 350T72 288T56 216T52 148ZM137 555Q137 565 141 575T159 585Q171 585 180 577T190 558Q190 544 181 538T160 531Q147 531 142 536T137 555ZM280 555Q280 565 285 575T303 585Q314 585 324 577T334 558Q334 544 325 538T304 531Q290 531
285 536T280 555Z" />
<glyph unicode="&#xd7;" glyph-name="multiply" horiz-adv-x="327" d="M142 206Q121 187 105 164T74 115Q68 113 58 115T43 121Q42 122 42 126T43 132Q47 138 57 153T77 185T97 216T111 237Q112 238 115 245T118 256Q110 262 101 272T86 293T78 317T82 343L96
346L152 289L226 363Q231 358 229 350T223 337Q220 332 214 323T202 302T189 281T180 268Q193 248 200 237T223 213Q244 191 270 173T319 132Q309 123 297 120T273 127L155 219Q153 217 150 214L142 206Z" />
<glyph unicode="&#xd8;" glyph-name="Oslash" horiz-adv-x="472" d="M73 -57Q82 -21 91 13Q66 25 49 46Q32 68 25 99T17 170Q17 199 23 235T42 307T74 378T119 439T176 482T244 498Q276 498 303 484L306 482L313 496L364 542H380Q380 529 374 514T358 481Q352
469 343 455L352 446Q375 424 392 394T421 333T439 271T446 215Q446 180 434 150T402 96T354 54T295 24T232 5T167 -1Q139 -1 116 4L102 -30V-38Q102 -45 101 -52T97 -67T88 -77H87H82Q82 -77 81 -77Q80 -75 78 -71T73 -63V-57ZM173 43Q215 43 258 52T335 83T390
138T412 220Q412 250 401 292T368 372Q350 404 325 428Q319 419 313 411Q302 394 292 379T277 352Q229 257 185 162Q159 104 133 46Q152 43 173 43ZM52 148Q52 120 61 100T85 67Q94 60 104 55Q113 78 124 101L292 453Q271 463 249 463Q232 463 221 462T192 454V445Q192
444 193 440T197 432T200 423T201 418Q201 409 196 405T185 398T171 395T157 392Q124 378 104 350T72 288T56 216T52 148Z" />
<glyph unicode="&#xd9;" glyph-name="Ugrave" horiz-adv-x="392" d="M39 446Q44 446 48 442T55 431T59 419T61 410V184Q61 161 70 137T94 91T129 57T173 43Q204 43 228 58T270 97T302 152T324 215T336 277T340 331Q340 340 340 360T338 406T331 459T319 507T300
540T271 550Q271 550 270 551T269 554Q269 565 278 571T297 577Q310 577 320 568T338 546T351 515T359 481T364 450T367 427Q367 426 367 415T367 388T367 357T367 331Q367 325 367 312T367 283T367 255T367 235Q358 200 343 159T305 83T248 24T170 0Q138 0 110
17T62 62T30 121T18 184V427Q18 429 24 435T35 445H37Q37 445 37 445T39 446ZM198 725Q191 731 180 741T159 764T146 789T152 811Q160 818 165 818T178 812Q188 801 202 787T223 757L266 695Q257 685 247 686T229 694T212 710T198 725Z" />
<glyph unicode="&#xda;" glyph-name="Uacute" horiz-adv-x="392" d="M39 446Q44 446 48 442T55 431T59 419T61 410V184Q61 161 70 137T94 91T129 57T173 43Q204 43 228 58T270 97T302 152T324 215T336 277T340 331Q340 340 340 360T338 406T331 459T319 507T300
540T271 550Q271 550 270 551T269 554Q269 565 278 571T297 577Q310 577 320 568T338 546T351 515T359 481T364 450T367 427Q367 426 367 415T367 388T367 357T367 331Q367 325 367 312T367 283T367 255T367 235Q358 200 343 159T305 83T248 24T170 0Q138 0 110
17T62 62T30 121T18 184V427Q18 429 24 435T35 445H37Q37 445 37 445T39 446ZM194 722Q188 716 182 707T169 691T153 683T137 691L173 753Q178 768 189 782T211 807Q221 821 232 806Q240 797 237 785T226 761T209 739T194 722Z" />
<glyph unicode="&#xdb;" glyph-name="Ucircumflex" horiz-adv-x="392" d="M39 446Q44 446 48 442T55 431T59 419T61 410V184Q61 161 70 137T94 91T129 57T173 43Q204 43 228 58T270 97T302 152T324 215T336 277T340 331Q340 340 340 360T338 406T331 459T319 507T300
540T271 550Q271 550 270 551T269 554Q269 565 278 571T297 577Q310 577 320 568T338 546T351 515T359 481T364 450T367 427Q367 426 367 415T367 388T367 357T367 331Q367 325 367 312T367 283T367 255T367 235Q358 200 343 159T305 83T248 24T170 0Q138 0 110
17T62 62T30 121T18 184V427Q18 429 24 435T35 445H37Q37 445 37 445T39 446ZM432 720Q430 720 426 714T415 701T405 687T400 679Q374 648 361 638T343 630T342 648T352 680T370 719T389 756T406 780T416 783Q421 792 430 796T447 801H451Q463 771 469 756T478
735T484 726T490 716T499 692T518 642Q503 627 494 623T478 621T467 635T458 659T447 689T432 720Z" />
<glyph unicode="&#xdc;" glyph-name="Udieresis" horiz-adv-x="392" d="M39 446Q44 446 48 442T55 431T59 419T61 410V184Q61 161 70 137T94 91T129 57T173 43Q204 43 228 58T270 97T302 152T324 215T336 277T340 331Q340 340 340 360T338 406T331 459T319 507T300
540T271 550Q271 550 270 551T269 554Q269 565 278 571T297 577Q310 577 320 568T338 546T351 515T359 481T364 450T367 427Q367 426 367 415T367 388T367 357T367 331Q367 325 367 312T367 283T367 255T367 235Q358 200 343 159T305 83T248 24T170 0Q138 0 110
17T62 62T30 121T18 184V427Q18 429 24 435T35 445H37Q37 445 37 445T39 446ZM97 700Q97 710 101 720T119 730Q131 730 140 722T150 703Q150 689 141 683T120 676Q107 676 102 681T97 700ZM240 700Q240 710 245 720T263 730Q274 730 284 722T294 703Q294 689 285
683T264 676Q250 676 245 681T240 700Z" />
<glyph unicode="&#xdd;" glyph-name="Yacute" horiz-adv-x="445" d="M244 -45Q244 -19 248 7T257 58T266 109T271 161V166Q217 176 171 196T90 250T37 328T17 435Q17 444 17 459T19 489T29 513T52 524Q66 524 72 521T79 503Q79 490 76 478T70 455T64 431T61 406Q61
370 76 336T116 275T175 233T244 217Q247 217 251 217T262 217T272 218T280 218Q298 230 308 259T326 325T338 402T351 474T370 528T402 550Q403 550 406 547T410 541Q411 540 412 534T414 519T416 502T419 488V484Q419 436 409 391T383 302T349 216T316 130T290
41T279 -53Q279 -89 284 -123T290 -194Q277 -194 268 -185T254 -162T247 -131T244 -97T243 -66T244 -45ZM221 722Q215 716 209 707T196 691T180 683T164 691L200 753Q205 768 216 782T238 807Q248 821 259 806Q267 797 264 785T253 761T236 739T221 722Z" />
<glyph unicode="&#xde;" glyph-name="Thorn" horiz-adv-x="334" d="M77 100Q64 31 51 3T28 -18T17 34T22 152Q32 201 38 245T47 334T51 423T52 517Q49 572 60 606T85 652T107 651T109 598V576Q109 562 109 544T109 506T108 468T107 436T106 414H118Q122 418 132
428T154 449T179 468T205 476Q222 476 236 464T262 431T283 385T298 336T308 292T312 260Q312 227 294 198T248 147T187 112T124 99Q111 99 108 98T102 97T96 96T77 100ZM197 431Q167 405 144 370T105 294T81 212T73 131Q102 131 135 138T198 160T248 201T268 265Q268
285 264 309T252 358T231 401T197 431Z" />
<glyph unicode="&#xdf;" glyph-name="germandbls" horiz-adv-x="576" d="M157 410Q154 392 153 355T150 270T147 167T144 60T139 -36T133 -110Q132 -116 130 -125T125 -142T118 -158T106 -170Q97 -167 93 -137T86 -62T83 34T84 130T86 208T87 249Q87 259 87 282T89
336T94 403T104 476T119 546T141 606T171 648T211 664Q237 664 257 652T292 622T315 580T324 532Q324 513 317 496T303 462T288 430T281 397Q305 397 335 396T396 391T456 378T509 352T545 310T559 249Q559 213 546 181T511 120T459 70T396 32T328 8T261 -1L253
34Q298 34 343 50T424 96T484 167T507 256Q507 283 494 303T461 338T415 359T364 367Q350 367 330 364T287 354T241 340T196 322L187 379Q205 394 222 411T252 447T273 489T281 537Q281 551 278 566T269 593T251 612T223 620Q210 620 200 607T183 574T171 529T163
481T158 438T157 410Z" />
<glyph unicode="&#xe0;" glyph-name="agrave" horiz-adv-x="458" d="M244 122Q229 104 210 84T168 47T121 19T70 7Q17 7 17 58Q17 79 34 113T80 186T142 259T210 318T272 348T319 331Q319 304 315 277T307 224T299 171T295 118Q295 112 296 100T301 75T311 53T327
43Q351 43 366 49T393 63T413 83T431 105T453 126T484 142Q484 142 484 139T484 134Q484 109 469 85T431 41T380 11T324 -1Q301 -1 287 12T265 43T252 82T244 122ZM262 253Q272 286 270 298T255 308T224 291T183 256T139 210T98 163T67 122T52 96Q46 73 50 61T64
45T85 43T105 52Q122 67 148 92T198 147T241 204T262 253ZM251 459Q244 465 233 475T212 498T199 523T205 545Q213 552 218 552T231 546Q241 535 255 521T276 491L319 429Q310 419 300 420T282 428T265 444T251 459Z" />
<glyph unicode="&#xe1;" glyph-name="aacute" horiz-adv-x="458" d="M244 122Q229 104 210 84T168 47T121 19T70 7Q17 7 17 58Q17 79 34 113T80 186T142 259T210 318T272 348T319 331Q319 304 315 277T307 224T299 171T295 118Q295 112 296 100T301 75T311 53T327
43Q351 43 366 49T393 63T413 83T431 105T453 126T484 142Q484 142 484 139T484 134Q484 109 469 85T431 41T380 11T324 -1Q301 -1 287 12T265 43T252 82T244 122ZM262 253Q272 286 270 298T255 308T224 291T183 256T139 210T98 163T67 122T52 96Q46 73 50 61T64
45T85 43T105 52Q122 67 148 92T198 147T241 204T262 253ZM227 448Q221 442 215 433T202 417T186 409T170 417L206 479Q211 494 222 508T244 533Q254 547 265 532Q273 523 270 511T259 487T242 465T227 448Z" />
<glyph unicode="&#xe2;" glyph-name="acircumflex" horiz-adv-x="458" d="M244 122Q229 104 210 84T168 47T121 19T70 7Q17 7 17 58Q17 79 34 113T80 186T142 259T210 318T272 348T319 331Q319 304 315 277T307 224T299 171T295 118Q295 112 296 100T301 75T311
53T327 43Q351 43 366 49T393 63T413 83T431 105T453 126T484 142Q484 142 484 139T484 134Q484 109 469 85T431 41T380 11T324 -1Q301 -1 287 12T265 43T252 82T244 122ZM262 253Q272 286 270 298T255 308T224 291T183 256T139 210T98 163T67 122T52 96Q46 73
50 61T64 45T85 43T105 52Q122 67 148 92T198 147T241 204T262 253ZM266 491Q264 491 260 485T249 472T239 458T234 450Q208 419 195 409T177 401T176 419T186 451T204 490T223 527T240 551T250 554Q255 563 264 567T281 572H285Q297 542 303 527T312 506T318 497T324
487T333 463T352 413Q337 398 328 394T312 392T301 406T292 430T281 460T266 491Z" />
<glyph unicode="&#xe3;" glyph-name="atilde" horiz-adv-x="458" d="M244 122Q229 104 210 84T168 47T121 19T70 7Q17 7 17 58Q17 79 34 113T80 186T142 259T210 318T272 348T319 331Q319 304 315 277T307 224T299 171T295 118Q295 112 296 100T301 75T311 53T327
43Q351 43 366 49T393 63T413 83T431 105T453 126T484 142Q484 142 484 139T484 134Q484 109 469 85T431 41T380 11T324 -1Q301 -1 287 12T265 43T252 82T244 122ZM262 253Q272 286 270 298T255 308T224 291T183 256T139 210T98 163T67 122T52 96Q46 73 50 61T64
45T85 43T105 52Q122 67 148 92T198 147T241 204T262 253ZM399 477Q400 465 398 444T392 401T381 363T368 345Q352 348 335 361T299 390T263 424T226 453T190 468T155 461Q144 420 131 398T110 379T105 411T129 500Q152 518 175 517T219 505T260 475T297 438T330
407T358 393Q360 393 362 404T366 431T368 461T368 484L399 477Z" />
<glyph unicode="&#xe4;" glyph-name="adieresis" horiz-adv-x="458" d="M244 122Q229 104 210 84T168 47T121 19T70 7Q17 7 17 58Q17 79 34 113T80 186T142 259T210 318T272 348T319 331Q319 304 315 277T307 224T299 171T295 118Q295 112 296 100T301 75T311
53T327 43Q351 43 366 49T393 63T413 83T431 105T453 126T484 142Q484 142 484 139T484 134Q484 109 469 85T431 41T380 11T324 -1Q301 -1 287 12T265 43T252 82T244 122ZM262 253Q272 286 270 298T255 308T224 291T183 256T139 210T98 163T67 122T52 96Q46 73
50 61T64 45T85 43T105 52Q122 67 148 92T198 147T241 204T262 253ZM139 678Q139 688 143 698T161 708Q173 708 182 700T192 681Q192 667 183 661T162 654Q149 654 144 659T139 678ZM282 678Q282 688 287 698T305 708Q316 708 326 700T336 681Q336 667 327 661T306
654Q292 654 287 659T282 678Z" />
<glyph unicode="&#xe5;" glyph-name="aring" horiz-adv-x="458" d="M181 348Q181 351 181 359T180 371Q180 390 185 411T205 451T242 481T299 493Q314 493 322 487T333 472T337 454V437Q337 421 332 403T314 368Q305 357 292 349Q307 346 319 331Q319 304 315
277T307 224T299 171T295 118Q295 112 296 100T301 75T311 53T327 43Q351 43 366 49T393 63T413 83T431 105T453 126T484 142Q484 142 484 139T484 134Q484 109 469 85T431 41T380 11T324 -1Q301 -1 287 12T265 43T252 82T244 122Q229 104 210 84T168 47T121 19T70
7Q17 7 17 58Q17 79 34 113T80 186T142 259T210 319Q221 327 232 333H230Q211 333 202 335T181 348ZM262 253Q272 286 270 298T255 308T224 291T183 256T139 210T98 163T67 122T52 96Q46 73 50 61T64 45T85 43T105 52Q122 67 148 92T198 147T241 204T262 253ZM203
355Q209 352 217 352H232Q257 352 273 360T298 381T310 409T314 437Q314 443 314 450T313 463T305 474T286 478Q286 467 281 465T267 461T250 459T232 447Q222 427 213 409T203 371V355Z" />
<glyph unicode="&#xe6;" glyph-name="ae" horiz-adv-x="634" d="M244 122Q229 104 210 84T168 47T121 19T70 7Q17 7 17 58Q17 79 34 113T80 186T142 259T210 318T272 348T319 331Q319 323 319 316T317 301Q324 315 332 327T353 347T381 361T418 366Q424 366 431
365T445 361T456 353T461 340Q461 319 451 303T425 272T392 246T359 223T333 199T322 173V77Q322 68 328 62T345 52T365 45T384 42H391Q416 42 439 50T485 71T528 100T567 130Q573 135 577 140T586 150T596 159T610 165Q610 163 610 160T611 156Q611 148 609 142T601
130Q579 104 562 85T528 51T494 27T453 10T399 2T324 -1Q301 -1 287 12T265 43T252 82T244 122ZM262 253Q272 286 270 298T255 308T224 291T183 256T139 210T98 163T67 122T52 96Q46 73 50 61T64 45T85 43T105 52Q122 67 148 92T198 147T241 204T262 253ZM375 287Q375
289 371 287T363 281T357 273T357 269Q361 268 368 275T375 287Z" />
<glyph unicode="&#xe7;" glyph-name="ccedilla" horiz-adv-x="260" d="M64 -173V-167Q64 -164 64 -159T64 -149V-143Q66 -140 72 -137T82 -134Q92 -136 96 -145T109 -165T134 -186T185 -202Q199 -205 201 -197T204 -181Q202 -164 189 -154T156 -135T117 -119T84
-96T67 -58Q64 -36 79 0Q64 1 53 7Q39 14 31 27T20 59T17 100Q17 108 19 132T26 186T38 250T55 312T79 358T109 376Q130 376 142 360T160 323T169 279T172 243Q151 243 145 250T137 267T131 287T114 306Q91 292 79 267T61 211T53 152T52 100Q52 72 62 53T105 34Q130
34 153 44T197 69T236 103T271 139H290Q290 139 290 136T288 130Q274 101 253 77T207 36T152 9Q139 4 124 1Q125 0 126 -2Q129 -12 125 -22T108 -38Q108 -62 118 -76T144 -100T178 -114T211 -128T236 -151T247 -189Q247 -199 243 -208T231 -226T214 -240T195 -245Q166
-245 142 -244T101 -235T74 -213T64 -173Z" />
<glyph unicode="&#xe8;" glyph-name="egrave" horiz-adv-x="358" d="M26 125Q19 121 15 123T10 129T8 138T7 146Q7 166 12 170T25 176T42 181T59 200Q71 225 80 252T104 304T139 343T199 358Q205 358 212 357T226 354T237 346T242 331Q242 310 232 294T206 264T172
238T139 215T114 192T103 166V70Q103 59 111 53T131 42T154 36T172 34Q196 34 220 42T266 64T309 92T347 122Q353 127 357 132T366 143T376 151T391 157Q391 156 391 153T391 148Q391 140 390 134T382 122Q360 97 335 75T282 36T223 9T157 -1Q122 -1 103 9T74 38T59
83T50 139L26 125ZM155 280Q155 282 152 280T144 273T137 266T137 262Q142 261 149 268T155 280ZM126 719Q119 725 108 735T87 758T74 783T80 805Q88 812 93 812T106 806Q116 795 130 781T151 751L194 689Q185 679 175 680T157 688T140 704T126 719Z" />
<glyph unicode="&#xe9;" glyph-name="eacute" horiz-adv-x="358" d="M26 125Q19 121 15 123T10 129T8 138T7 146Q7 166 12 170T25 176T42 181T59 200Q71 225 80 252T104 304T139 343T199 358Q205 358 212 357T226 354T237 346T242 331Q242 310 232 294T206 264T172
238T139 215T114 192T103 166V70Q103 59 111 53T131 42T154 36T172 34Q196 34 220 42T266 64T309 92T347 122Q353 127 357 132T366 143T376 151T391 157Q391 156 391 153T391 148Q391 140 390 134T382 122Q360 97 335 75T282 36T223 9T157 -1Q122 -1 103 9T74 38T59
83T50 139L26 125ZM155 280Q155 282 152 280T144 273T137 266T137 262Q142 261 149 268T155 280ZM155 704Q149 698 143 689T130 673T114 665T98 673L134 735Q139 750 150 764T172 789Q182 803 193 788Q201 779 198 767T187 743T170 721T155 704Z" />
<glyph unicode="&#xea;" glyph-name="ecircumflex" horiz-adv-x="358" d="M26 125Q19 121 15 123T10 129T8 138T7 146Q7 166 12 170T25 176T42 181T59 200Q71 225 80 252T104 304T139 343T199 358Q205 358 212 357T226 354T237 346T242 331Q242 310 232 294T206
264T172 238T139 215T114 192T103 166V70Q103 59 111 53T131 42T154 36T172 34Q196 34 220 42T266 64T309 92T347 122Q353 127 357 132T366 143T376 151T391 157Q391 156 391 153T391 148Q391 140 390 134T382 122Q360 97 335 75T282 36T223 9T157 -1Q122 -1 103
9T74 38T59 83T50 139L26 125ZM155 280Q155 282 152 280T144 273T137 266T137 262Q142 261 149 268T155 280ZM446 766Q444 766 440 760T429 747T419 733T414 725Q388 694 375 684T357 676T356 694T366 726T384 765T403 802T420 826T430 829Q435 838 444 842T461
847H465Q477 817 483 802T492 781T498 772T504 762T513 738T532 688Q517 673 508 669T492 667T481 681T472 705T461 735T446 766Z" />
<glyph unicode="&#xeb;" glyph-name="edieresis" horiz-adv-x="358" d="M26 125Q19 121 15 123T10 129T8 138T7 146Q7 166 12 170T25 176T42 181T59 200Q71 225 80 252T104 304T139 343T199 358Q205 358 212 357T226 354T237 346T242 331Q242 310 232 294T206
264T172 238T139 215T114 192T103 166V70Q103 59 111 53T131 42T154 36T172 34Q196 34 220 42T266 64T309 92T347 122Q353 127 357 132T366 143T376 151T391 157Q391 156 391 153T391 148Q391 140 390 134T382 122Q360 97 335 75T282 36T223 9T157 -1Q122 -1 103
9T74 38T59 83T50 139L26 125ZM155 280Q155 282 152 280T144 273T137 266T137 262Q142 261 149 268T155 280ZM330 714Q330 724 334 734T352 744Q364 744 373 736T383 717Q383 703 374 697T353 690Q340 690 335 695T330 714ZM473 714Q473 724 478 734T496 744Q507
744 517 736T527 717Q527 703 518 697T497 690Q483 690 478 695T473 714Z" />
<glyph unicode="&#xec;" glyph-name="igrave" horiz-adv-x="237" d="M84 140Q84 166 87 191T93 242T100 293T103 346Q103 352 101 359T88 367Q75 367 71 365T66 360T61 353T45 345H40Q19 345 19 367Q19 373 32 386T64 410T98 430T119 436Q121 436 125 433T133
425T140 416T145 410V402Q145 396 145 389T146 375V366Q146 337 142 309T133 251T123 193T119 135Q119 130 120 115T124 84T135 56T154 43Q178 43 190 49T211 64T230 78T260 85Q260 43 229 21T150 -1Q125 -1 112 15T93 53T85 100T84 140ZM113 533Q106 539 95 549T74
572T61 597T67 619Q75 626 80 626T93 619Q103 609 117 595T138 565L181 502Q172 493 162 494T144 502T127 518T113 533Z" />
<glyph unicode="&#xed;" glyph-name="iacute" horiz-adv-x="237" d="M84 140Q84 166 87 191T93 242T100 293T103 346Q103 352 101 359T88 367Q75 367 71 365T66 360T61 353T45 345H40Q19 345 19 367Q19 373 32 386T64 410T98 430T119 436Q121 436 125 433T133
425T140 416T145 410V402Q145 396 145 389T146 375V366Q146 337 142 309T133 251T123 193T119 135Q119 130 120 115T124 84T135 56T154 43Q178 43 190 49T211 64T230 78T260 85Q260 43 229 21T150 -1Q125 -1 112 15T93 53T85 100T84 140ZM116 568Q111 562 105 553T91
537T75 529T60 537L96 599Q100 614 112 628T133 653Q143 667 154 652Q163 643 160 631T149 607T131 585T116 568Z" />
<glyph unicode="&#xee;" glyph-name="icircumflex" horiz-adv-x="237" d="M84 140Q84 166 87 191T93 242T100 293T103 346Q103 352 101 359T88 367Q75 367 71 365T66 360T61 353T45 345H40Q19 345 19 367Q19 373 32 386T64 410T98 430T119 436Q121 436 125 433T133
425T140 416T145 410V402Q145 396 145 389T146 375V366Q146 337 142 309T133 251T123 193T119 135Q119 130 120 115T124 84T135 56T154 43Q178 43 190 49T211 64T230 78T260 85Q260 43 229 21T150 -1Q125 -1 112 15T93 53T85 100T84 140ZM121 580Q120 579 115 573T105
560T95 546T89 538Q64 508 51 498T33 490T31 507T42 540T59 579T79 615T95 639T106 643Q111 650 119 655T136 661H141Q152 630 158 616T167 594T173 585T180 575T190 551T208 502Q186 478 175 478T156 494T142 533T121 580Z" />
<glyph unicode="&#xef;" glyph-name="idieresis" horiz-adv-x="237" d="M84 140Q84 166 87 191T93 242T100 293T103 346Q103 352 101 359T88 367Q75 367 71 365T66 360T61 353T45 345H40Q19 345 19 367Q19 373 32 386T64 410T98 430T119 436Q121 436 125 433T133
425T140 416T145 410V402Q145 396 145 389T146 375V366Q146 337 142 309T133 251T123 193T119 135Q119 130 120 115T124 84T135 56T154 43Q178 43 190 49T211 64T230 78T260 85Q260 43 229 21T150 -1Q125 -1 112 15T93 53T85 100T84 140ZM163 546Q163 556 168 566T186
576Q197 576 207 568T217 549Q217 535 208 529T187 522Q173 522 168 527T163 546ZM20 546Q20 556 24 566T42 576Q54 576 63 568T73 549Q73 535 64 529T43 522Q30 522 25 527T20 546Z" />
<glyph unicode="&#xf0;" glyph-name="eth" horiz-adv-x="337" d="M91 469Q91 472 94 475T102 481T112 486T122 488Q129 488 133 485T140 476T145 466T152 457Q163 446 173 435T193 414L253 443L285 405Q286 403 277 399T256 392T235 385T226 379Q238 362 249 341T269
297T283 249T289 201Q289 163 290 131T283 72T253 23T187 -20Q172 -26 160 -25T137 -17T117 0T100 22Q97 27 92 35T81 53T71 69T66 77Q65 79 62 90T54 117T46 149T40 178Q40 195 48 207T69 228T101 240T139 244Q179 244 207 226T247 181Q248 187 248 191V198Q248
217 242 239T226 282T207 322T188 355L146 330Q133 336 127 349T117 369Q115 371 123 374T140 380T156 388T157 397Q147 408 135 419T113 441T97 458T91 469ZM82 171Q82 136 98 103T143 43Q176 32 196 33T229 43T244 65T245 93T237 122T223 145Q213 155 206 166T190
187T170 203T140 209Q116 209 99 201T82 171Z" />
<glyph unicode="&#xf1;" glyph-name="ntilde" horiz-adv-x="399" d="M78 70Q80 78 84 96T92 138T101 187T110 236T118 278T122 306Q123 310 122 318T120 336T118 354T117 366Q114 366 107 368T93 371T79 374T70 376Q46 367 35 354T14 327T-9 305T-47 295Q-56 295
-60 302T-64 318V322Q-42 347 -23 365T19 395T67 414T127 420Q142 420 149 415T161 401T165 381T166 357Q166 330 161 304T149 251T136 198T130 143V139Q133 147 143 165T164 205T185 244T200 270Q201 271 207 278T221 296T238 315T253 331Q259 339 267 348T285
365T305 378T327 384Q336 384 340 377T347 360T349 340T349 322Q349 292 342 262T327 203T312 143T304 83Q304 70 308 61T326 52Q344 52 359 62T387 83T414 105T445 115V96Q445 95 440 90T428 78T414 64T401 52Q393 45 383 37T363 23T340 12T317 7Q302 7 293 15T278
36T271 63T269 88Q269 118 274 147T286 205T297 263T302 322H296Q295 322 289 316T275 302T258 285T244 270Q239 264 233 256T221 237T210 218T200 200Q197 193 190 179T175 147T157 109T139 71T123 39T113 18Q112 14 105 8T96 0Q94 -1 94 -1H91H89Q88 -1 87 0Q85
1 82 4T78 8V70ZM360 625Q361 613 359 592T353 549T342 511T329 493Q313 496 296 509T260 538T224 572T187 601T151 616T116 609Q105 568 92 546T71 527T66 559T90 648Q113 666 136 665T180 653T221 623T258 586T291 555T319 541Q321 541 323 552T327 579T329 609T329
632L360 625Z" />
<glyph unicode="&#xf2;" glyph-name="ograve" horiz-adv-x="270" d="M8 34Q8 37 8 44T8 60T7 76T7 88Q7 116 11 148T23 210T44 269T78 319T126 354T188 367Q211 367 223 354T239 320T244 278T245 239Q245 200 237 158T211 80T162 22T83 -1Q69 -1 59 0T41 5T25
16T8 34ZM43 52Q52 43 64 43T87 43Q125 43 149 62T186 111T205 174T211 239Q211 253 211 269T209 300T196 324T169 334Q169 318 165 310T155 299T140 296T122 292T103 283T87 262Q71 217 57 176T42 88Q42 85 42 81T42 70T43 60T43 52ZM148 738Q141 744 130 754T109
777T96 802T102 824Q110 831 115 831T128 825Q138 814 152 800T173 770L216 708Q207 698 197 699T179 707T162 723T148 738Z" />
<glyph unicode="&#xf3;" glyph-name="oacute" horiz-adv-x="270" d="M8 34Q8 37 8 44T8 60T7 76T7 88Q7 116 11 148T23 210T44 269T78 319T126 354T188 367Q211 367 223 354T239 320T244 278T245 239Q245 200 237 158T211 80T162 22T83 -1Q69 -1 59 0T41 5T25
16T8 34ZM43 52Q52 43 64 43T87 43Q125 43 149 62T186 111T205 174T211 239Q211 253 211 269T209 300T196 324T169 334Q169 318 165 310T155 299T140 296T122 292T103 283T87 262Q71 217 57 176T42 88Q42 85 42 81T42 70T43 60T43 52ZM137 732Q131 726 125 717T112
701T96 693T80 701L116 763Q121 778 132 792T154 817Q164 831 175 816Q183 807 180 795T169 771T152 749T137 732Z" />
<glyph unicode="&#xf4;" glyph-name="ocircumflex" horiz-adv-x="270" d="M8 34Q8 37 8 44T8 60T7 76T7 88Q7 116 11 148T23 210T44 269T78 319T126 354T188 367Q211 367 223 354T239 320T244 278T245 239Q245 200 237 158T211 80T162 22T83 -1Q69 -1 59 0T41
5T25 16T8 34ZM43 52Q52 43 64 43T87 43Q125 43 149 62T186 111T205 174T211 239Q211 253 211 269T209 300T196 324T169 334Q169 318 165 310T155 299T140 296T122 292T103 283T87 262Q71 217 57 176T42 88Q42 85 42 81T42 70T43 60T43 52ZM438 797Q436 797 432
791T421 778T411 764T406 756Q380 725 367 715T349 707T348 725T358 757T376 796T395 833T412 857T422 860Q427 869 436 873T453 878H457Q469 848 475 833T484 812T490 803T496 793T505 769T524 719Q509 704 500 700T484 698T473 712T464 736T453 766T438 797Z"
/>
<glyph unicode="&#xf5;" glyph-name="otilde" horiz-adv-x="270" d="M8 34Q8 37 8 44T8 60T7 76T7 88Q7 116 11 148T23 210T44 269T78 319T126 354T188 367Q211 367 223 354T239 320T244 278T245 239Q245 200 237 158T211 80T162 22T83 -1Q69 -1 59 0T41 5T25
16T8 34ZM43 52Q52 43 64 43T87 43Q125 43 149 62T186 111T205 174T211 239Q211 253 211 269T209 300T196 324T169 334Q169 318 165 310T155 299T140 296T122 292T103 283T87 262Q71 217 57 176T42 88Q42 85 42 81T42 70T43 60T43 52ZM304 800Q305 788 303 767T297
724T286 686T273 668Q257 671 240 684T204 713T168 747T131 776T95 791T60 784Q49 743 36 721T15 702T10 734T34 823Q57 841 80 840T124 828T165 798T202 761T235 730T263 716Q265 716 267 727T271 754T273 784T273 807L304 800Z" />
<glyph unicode="&#xf6;" glyph-name="odieresis" horiz-adv-x="270" d="M8 34Q8 37 8 44T8 60T7 76T7 88Q7 116 11 148T23 210T44 269T78 319T126 354T188 367Q211 367 223 354T239 320T244 278T245 239Q245 200 237 158T211 80T162 22T83 -1Q69 -1 59 0T41 5T25
16T8 34ZM43 52Q52 43 64 43T87 43Q125 43 149 62T186 111T205 174T211 239Q211 253 211 269T209 300T196 324T169 334Q169 318 165 310T155 299T140 296T122 292T103 283T87 262Q71 217 57 176T42 88Q42 85 42 81T42 70T43 60T43 52ZM312 731Q312 742 316 753T333
764Q345 764 354 755T363 734Q363 718 355 711T334 704Q322 704 317 709T312 731ZM450 731Q450 742 455 753T472 764Q483 764 492 755T502 734Q502 718 493 711T473 704Q460 704 455 709T450 731Z" />
<glyph unicode="&#xf7;" glyph-name="divide" horiz-adv-x="385" d="M37 249Q37 259 40 264T55 275Q87 273 115 272T173 272T232 276T298 285H301Q310 285 321 279T332 263Q332 253 330 243T316 232Q306 232 299 237T284 242H280Q250 235 233 232T204 228T183
226T162 227T131 229T82 230H74Q69 230 64 230T52 231H46Q39 234 38 239T37 249ZM139 130Q139 142 149 149T170 157Q180 157 186 153T193 140Q193 127 186 115T166 103Q155 103 147 111T139 130ZM130 366Q130 378 136 381T154 385Q157 385 161 385T169 383T174
377T175 366Q172 355 165 352T149 348Q130 348 130 366Z" />
<glyph unicode="&#xf8;" glyph-name="oslash" horiz-adv-x="270" d="M-5 -95Q3 -57 13 -22Q18 -3 25 16V16Q17 23 8 34V45Q8 52 8 60T7 76V88Q7 116 11 148T23 210T44 269T78 319T126 354Q151 366 184 367L204 409L248 451H263Q263 440 258 426T244 396T225 364Q223
360 220 355L223 353Q235 340 239 320T244 278T245 239Q245 200 237 158T211 80T162 22T83 -1Q69 -1 59 0Q53 1 48 2Q34 -34 19 -71V-78Q19 -83 19 -90T16 -104T7 -113Q7 -113 6 -113H2H1Q1 -112 -2 -108T-5 -100V-95ZM87 43Q125 43 149 62T186 111T205 174T211
239Q211 253 211 269T208 301Q205 313 199 322Q192 311 186 301Q177 288 172 277Q131 192 92 105Q79 73 65 43H87ZM139 295Q131 295 122 292T103 283T87 262Q71 217 57 176T42 88V80Q42 76 42 70T43 59V58L153 298Q147 296 139 295ZM169 332V334V334V332Z" />
<glyph unicode="&#xf9;" glyph-name="ugrave" horiz-adv-x="451" d="M82 410Q62 410 54 402T42 385T33 368T18 360Q6 360 -1 364T-9 382Q-8 395 1 407T23 428T52 443T82 446Q96 446 108 444T129 436T143 420T148 392V61L165 78Q166 79 174 94T194 131T216 174T235
210Q258 256 272 299T296 392Q298 400 305 401T318 403Q319 403 324 403T331 402Q331 394 331 378T333 342T335 301T337 259T339 224T340 200Q340 194 341 179T347 147T360 117T383 104Q397 112 411 123T439 145T468 166T499 181Q507 176 505 166T494 143T471 117T440
92T406 74T373 69Q344 69 329 87T307 130T299 184T298 232Q287 232 277 215T255 171T232 115T206 60T177 17T143 -1Q130 -1 122 6T110 24T105 47T104 70V384Q104 387 102 391T97 400T90 407T82 410ZM227 571Q220 577 209 587T188 610T175 635T181 657Q189 664 194
664T207 658Q217 647 231 633T252 603L295 541Q286 531 276 532T258 540T241 556T227 571Z" />
<glyph unicode="&#xfa;" glyph-name="uacute" horiz-adv-x="451" d="M82 410Q62 410 54 402T42 385T33 368T18 360Q6 360 -1 364T-9 382Q-8 395 1 407T23 428T52 443T82 446Q96 446 108 444T129 436T143 420T148 392V61L165 78Q166 79 174 94T194 131T216 174T235
210Q258 256 272 299T296 392Q298 400 305 401T318 403Q319 403 324 403T331 402Q331 394 331 378T333 342T335 301T337 259T339 224T340 200Q340 194 341 179T347 147T360 117T383 104Q397 112 411 123T439 145T468 166T499 181Q507 176 505 166T494 143T471 117T440
92T406 74T373 69Q344 69 329 87T307 130T299 184T298 232Q287 232 277 215T255 171T232 115T206 60T177 17T143 -1Q130 -1 122 6T110 24T105 47T104 70V384Q104 387 102 391T97 400T90 407T82 410ZM224 568Q218 562 212 553T199 537T183 529T167 537L203 599Q208
614 219 628T241 653Q251 667 262 652Q270 643 267 631T256 607T239 585T224 568Z" />
<glyph unicode="&#xfb;" glyph-name="ucircumflex" horiz-adv-x="451" d="M82 410Q62 410 54 402T42 385T33 368T18 360Q6 360 -1 364T-9 382Q-8 395 1 407T23 428T52 443T82 446Q96 446 108 444T129 436T143 420T148 392V61L165 78Q166 79 174 94T194 131T216
174T235 210Q258 256 272 299T296 392Q298 400 305 401T318 403Q319 403 324 403T331 402Q331 394 331 378T333 342T335 301T337 259T339 224T340 200Q340 194 341 179T347 147T360 117T383 104Q397 112 411 123T439 145T468 166T499 181Q507 176 505 166T494 143T471
117T440 92T406 74T373 69Q344 69 329 87T307 130T299 184T298 232Q287 232 277 215T255 171T232 115T206 60T177 17T143 -1Q130 -1 122 6T110 24T105 47T104 70V384Q104 387 102 391T97 400T90 407T82 410ZM266 622Q264 622 260 616T249 603T239 589T234 581Q208
550 195 540T177 532T176 550T186 582T204 621T223 658T240 682T250 685Q255 694 264 698T281 703H285Q297 673 303 658T312 637T318 628T324 618T333 594T352 544Q337 529 328 525T312 523T301 537T292 561T281 591T266 622Z" />
<glyph unicode="&#xfc;" glyph-name="udieresis" horiz-adv-x="451" d="M82 410Q62 410 54 402T42 385T33 368T18 360Q6 360 -1 364T-9 382Q-8 395 1 407T23 428T52 443T82 446Q96 446 108 444T129 436T143 420T148 392V61L165 78Q166 79 174 94T194 131T216 174T235
210Q258 256 272 299T296 392Q298 400 305 401T318 403Q319 403 324 403T331 402Q331 394 331 378T333 342T335 301T337 259T339 224T340 200Q340 194 341 179T347 147T360 117T383 104Q397 112 411 123T439 145T468 166T499 181Q507 176 505 166T494 143T471 117T440
92T406 74T373 69Q344 69 329 87T307 130T299 184T298 232Q287 232 277 215T255 171T232 115T206 60T177 17T143 -1Q130 -1 122 6T110 24T105 47T104 70V384Q104 387 102 391T97 400T90 407T82 410ZM127 546Q127 556 131 566T149 576Q161 576 170 568T180 549Q180
535 171 529T150 522Q137 522 132 527T127 546ZM270 546Q270 556 275 566T293 576Q304 576 314 568T324 549Q324 535 315 529T294 522Q280 522 275 527T270 546Z" />
<glyph unicode="&#xfd;" glyph-name="yacute" horiz-adv-x="417" d="M-55 -454Q-61 -416 -65 -374T-72 -277Q-72 -268 -72 -248T-69 -202T-63 -149T-54 -97T-40 -54T-20 -27V-35Q-20 -65 -24 -94T-33 -152T-42 -212T-47 -272Q-47 -284 -46 -306T-41 -356T-32 -411T-16
-463T8 -500T41 -515Q67 -515 93 -498T144 -454T190 -392T229 -322T259 -256T277 -201Q283 -168 289 -132T300 -57T309 20T313 96Q313 97 313 102T313 112T312 123T312 130Q298 115 283 97T249 62T211 35T166 24Q147 24 134 36T112 65T99 103T94 139Q93 148 92
171T90 221T87 271T85 305L76 314Q69 310 58 302T35 287T10 275T-11 269Q-23 269 -30 277T-38 296Q-38 301 -29 310T-5 328T28 348T64 366T95 379T115 385Q119 385 128 384T137 375V139Q137 133 139 122T145 98T156 78T172 69Q177 69 185 72T200 79T214 87T224
96Q258 126 286 163T329 244Q330 247 332 257T337 280T343 304T346 322Q347 329 347 338T350 355T357 370T373 376Q388 376 389 367T391 346Q391 333 389 320T385 295T381 270T382 244Q371 56 336 -92T252 -341T150 -495T49 -542Q32 -542 16 -535T-15 -514T-39
-486T-55 -454ZM206 568Q200 562 194 553T181 537T165 529T149 537L185 599Q190 614 201 628T223 653Q233 667 244 652Q252 643 249 631T238 607T221 585T206 568Z" />
<glyph unicode="&#xfe;" glyph-name="thorn" horiz-adv-x="346" d="M26 -7Q28 50 31 116T37 252T43 394T46 536T45 670T38 790Q66 805 80 801T100 780T106 734T105 672T102 603T106 538Q117 552 129 566T156 591T186 610T223 617Q255 617 274 597T305 548T319
487T323 430Q323 372 305 326T255 248T176 197T73 175L71 0Q73 -11 66 -18T50 -27T34 -25T26 -7ZM91 246Q89 239 91 236T98 231T107 229T116 228Q142 228 168 237T216 263T253 303T271 355Q286 391 287 428T282 497T259 549T224 575T180 563T132 503L91 246Z" />
<glyph unicode="&#xff;" glyph-name="ydieresis" horiz-adv-x="417" d="M-55 -454Q-61 -416 -65 -374T-72 -277Q-72 -268 -72 -248T-69 -202T-63 -149T-54 -97T-40 -54T-20 -27V-35Q-20 -65 -24 -94T-33 -152T-42 -212T-47 -272Q-47 -284 -46 -306T-41 -356T-32
-411T-16 -463T8 -500T41 -515Q67 -515 93 -498T144 -454T190 -392T229 -322T259 -256T277 -201Q283 -168 289 -132T300 -57T309 20T313 96Q313 97 313 102T313 112T312 123T312 130Q298 115 283 97T249 62T211 35T166 24Q147 24 134 36T112 65T99 103T94 139Q93
148 92 171T90 221T87 271T85 305L76 314Q69 310 58 302T35 287T10 275T-11 269Q-23 269 -30 277T-38 296Q-38 301 -29 310T-5 328T28 348T64 366T95 379T115 385Q119 385 128 384T137 375V139Q137 133 139 122T145 98T156 78T172 69Q177 69 185 72T200 79T214
87T224 96Q258 126 286 163T329 244Q330 247 332 257T337 280T343 304T346 322Q347 329 347 338T350 355T357 370T373 376Q388 376 389 367T391 346Q391 333 389 320T385 295T381 270T382 244Q371 56 336 -92T252 -341T150 -495T49 -542Q32 -542 16 -535T-15 -514T-39
-486T-55 -454ZM110 546Q110 556 114 566T132 576Q144 576 153 568T163 549Q163 535 154 529T133 522Q120 522 115 527T110 546ZM253 546Q253 556 258 566T276 576Q287 576 297 568T307 549Q307 535 298 529T277 522Q263 522 258 527T253 546Z" />
<glyph unicode="&#x2013;" glyph-name="endash" horiz-adv-x="385" d="M40 330Q40 340 43 345T58 356Q121 352 190 349T331 357H334Q343 357 354 351T365 335Q365 325 363 315T349 304Q340 304 333 309T317 314H313Q284 307 264 305T229 302T201 302T173 306T136
310T85 312Q82 312 78 312T67 312T57 313T49 313Q42 316 41 320T40 330Z" />
<glyph unicode="&#x2014;" glyph-name="emdash" horiz-adv-x="463" d="M40 330Q40 340 43 345T58 356Q90 354 134 353T226 351T320 353T403 360H406Q410 360 415 359T425 354T433 347T437 339Q437 328 435 318T420 307Q411 307 404 312T388 317H385Q340 307 306
305T237 304T167 309T85 312Q82 312 78 312T67 312T57 313T49 313Q42 316 41 320T40 330Z" />
<glyph unicode="&#x2018;" glyph-name="quoteleft" horiz-adv-x="104" d="M7 576V629Q7 649 10 668T22 702T47 716Q61 716 65 711T70 694Q70 675 66 662T52 628V430Q41 430 33 440T21 467T13 503T9 542T7 576Z" />
<glyph unicode="&#x2019;" glyph-name="quoteright" horiz-adv-x="104" d="M7 576V629Q7 649 10 668T22 702T47 716Q61 716 65 711T70 694Q70 675 66 662T52 628V430Q41 430 33 440T21 467T13 503T9 542T7 576Z" />
<glyph unicode="&#x201a;" glyph-name="quotesinglbase" horiz-adv-x="207" d="M73 174Q73 185 73 205T76 244T87 278T113 292Q126 292 131 288T136 269Q136 251 132 237T118 204V7Q100 7 91 29T78 80T74 136T73 174Z" />
<glyph unicode="&#x201c;" glyph-name="quotedblleft" horiz-adv-x="270" d="M25 720V766Q25 781 25 796T26 826V846Q27 867 37 885T71 903Q71 856 66 811T61 721Q61 697 61 676T64 634T75 595T96 558Q97 556 100 550T104 541Q103 540 97 533T88 523H83Q64 523
54 538T37 574T29 615T26 646V659Q26 672 26 688T25 720ZM173 832V845Q173 853 175 859T182 869T196 874Q201 874 206 855T216 807T227 741T236 668T242 600T244 549Q244 544 244 540T235 532Q222 539 212 560T195 610T184 672T178 736T174 793T173 832Z" />
<glyph unicode="&#x201d;" glyph-name="quotedblright" horiz-adv-x="270" d="M25 720V766Q25 781 25 796T26 826V846Q27 867 37 885T71 903Q71 856 66 811T61 721Q61 697 61 676T64 634T75 595T96 558Q97 556 100 550T104 541Q103 540 97 533T88 523H83Q64 523
54 538T37 574T29 615T26 646V659Q26 672 26 688T25 720ZM173 832V845Q173 853 175 859T182 869T196 874Q201 874 206 855T216 807T227 741T236 668T242 600T244 549Q244 544 244 540T235 532Q222 539 212 560T195 610T184 672T178 736T174 793T173 832Z" />
<glyph unicode="&#x201e;" glyph-name="quotedblbase" horiz-adv-x="320" d="M49 228Q49 233 49 247T49 278T50 308T50 328Q51 349 61 367T95 385Q95 338 90 293T85 202Q85 178 85 157T88 115T99 77T120 40Q121 37 124 31T128 23Q127 22 121 15T111 5H106Q88 5
77 20T61 56T53 96T50 127Q50 129 50 141T50 169T49 201T49 228ZM197 314Q197 319 197 326T199 340T206 350T220 355Q225 355 230 337T240 289T251 222T259 149T265 82T268 31Q268 25 267 21T259 13Q246 20 236 41T219 92T208 154T201 218T198 275T197 314Z" />
<glyph unicode="&#x2022;" glyph-name="bullet" horiz-adv-x="256" d="M49 249Q49 262 52 276T62 302T83 322T115 330Q132 330 149 325T179 309T201 285T209 257Q209 238 202 224T182 201T153 188T120 184Q99 184 86 187T64 197T52 217T49 249Z" />
<glyph unicode="&#x2039;" glyph-name="guilsinglleft" horiz-adv-x="376" d="M17 69Q17 81 34 105T78 160T137 221T199 278T253 320T288 337V306Q281 300 269 287T239 257L205 223Q187 205 171 189T141 158L122 139Q120 137 114 130T100 114T87 99T79 88Q79 86
78 85T77 83Q77 82 78 80Q78 79 79 78Q81 76 87 73T96 70Q157 57 221 47T349 34Q351 34 354 31T358 26V25Q358 24 358 23T358 22V19V18Q357 16 354 13T349 8Q346 7 336 6T315 4T294 1T280 0H271Q260 0 237 1T186 6T128 15T74 29T33 46T17 69Z" />
<glyph unicode="&#x203a;" glyph-name="guilsinglright" horiz-adv-x="430" d="M136 91Q136 94 146 109T169 143T193 177T209 197Q213 202 227 222T259 265T290 308T309 334Q313 339 318 347T329 364T338 379L342 385V410Q342 411 325 417T284 432T235 448T193
461Q189 463 175 465L148 471Q133 474 120 476T103 478Q90 481 83 486T75 514Q75 526 82 528T95 531Q97 531 100 531T103 530L359 445Q361 444 366 442T375 438T383 431T387 420Q387 407 384 397T376 376Q371 368 360 350T334 311L309 273Q297 255 292 248Q286
241 271 221T239 177T205 133T181 103L176 97Q173 94 169 91T160 83T154 77H148Q146 79 142 82T136 86Q136 88 136 88V91Z" />
</font>
</defs>
</svg>
