<?xml version="1.0" standalone="no"?>
<!DOCTYPE svg PUBLIC "-//W3C//DTD SVG 1.1//EN" "http://www.w3.org/Graphics/SVG/1.1/DTD/svg11.dtd">
<svg xmlns="http://www.w3.org/2000/svg">
<defs >
<font id="Cuprum" horiz-adv-x="451" ><font-face
    font-family="Cuprum"
    units-per-em="1000"
    panose-1="0 0 5 0 0 0 0 0 0 0"
    ascent="895"
    descent="-260"
    alphabetic="0" />
<glyph unicode=" " glyph-name="space" horiz-adv-x="250" />
<glyph unicode="!" glyph-name="exclam" horiz-adv-x="230" d="M105 185L183 700H293L185 185H105ZM67 -5L86 105H176L157 -5H67Z" />
<glyph unicode="&quot;" glyph-name="quotedbl" horiz-adv-x="330" d="M146 465L163 700H263L196 465H146ZM296 465L313 700H413L346 465H296Z" />
<glyph unicode="#" glyph-name="numbersign" horiz-adv-x="570" d="M85 0L150 200H55L67 270H172L225 430H125L138 500H253L318 700H408L343 500H453L518 700H608L543 500H638L625 430H515L462 270H567L555 200H440L375 0H285L350 200H240L175 0H85ZM257 270H377L430
430H310L257 270Z" />
<glyph unicode="$" glyph-name="dollar" horiz-adv-x="445" d="M188 -10H183Q141 -10 101 -4T36 10L44 55H199L246 319Q207 338 182 356T140 405T123 481Q123 500 128 530Q142 612 188 656T314 708L329 790H389L375 709Q410 708 443 703T496 690L488 645H363L317
385Q360 363 384 347T427 301T445 226Q445 203 441 180Q426 94 381 50T248 -6L234 -90H174L188 -10ZM302 636Q233 614 218 530Q215 515 215 503Q215 474 227 454T263 417L302 636ZM300 79T321 107T351 180Q353 188 353 204Q353 233 340 252T300 289L261 66Q300
79 321 107Z" />
<glyph unicode="%" glyph-name="percent" horiz-adv-x="680" d="M124 410T124 519Q124 540 128 560Q141 634 184 672T295 710Q352 710 382 683T412 603Q412 580 408 560Q395 486 353 448T242 410Q124 410 124 519ZM100 0L613 700H703L190 0H100ZM318 470T333 560Q336
578 336 593Q336 650 284 650Q220 650 203 560Q200 542 200 528Q200 470 252 470Q318 470 333 560ZM390 -10T390 99Q390 120 394 140Q407 214 450 252T561 290Q618 290 648 263T678 183Q678 160 674 140Q661 66 619 28T508 -10Q390 -10 390 99ZM584 50T599 140Q602
158 602 173Q602 230 550 230Q486 230 469 140Q466 122 466 108Q466 50 518 50Q584 50 599 140Z" />
<glyph unicode="&amp;" glyph-name="ampersand" horiz-adv-x="515" d="M129 -10T95 23T60 122Q60 149 66 180Q74 223 87 265T113 330H183L156 180Q151 147 151 130Q151 88 166 72T204 55Q234 55 258 76T323 160Q259 280 234 350T208 475Q208 500 213 530Q229 619
280 664T415 710Q457 710 497 704T561 690L553 645H423Q377 645 345 615T303 530Q298 502 298 476Q298 435 315 384T374 255L453 390H543L414 170L505 0H405L364 80Q326 31 291 11T193 -10Q129 -10 95 23Z" />
<glyph unicode="&apos;" glyph-name="quotesingle" horiz-adv-x="180" d="M146 465L163 700H263L196 465H146Z" />
<glyph unicode="(" glyph-name="parenleft" horiz-adv-x="246" d="M86 -27T86 137Q86 209 99 280Q142 521 322 750L372 720Q304 614 263 510T199 280Q181 175 181 87Q181 -37 217 -160L156 -190Q86 -27 86 137Z" />
<glyph unicode=")" glyph-name="parenright" horiz-adv-x="246" d="M-28 -160Q40 -54 81 50T145 280Q163 385 163 472Q163 597 126 720L188 750Q258 587 258 423Q258 352 245 280Q202 39 22 -190L-28 -160Z" />
<glyph unicode="*" glyph-name="asterisk" horiz-adv-x="430" d="M202 325L143 360L236 490L110 515L139 585L272 555L298 700H378L352 555L497 585L500 515L366 490L413 360L342 325L295 455L202 325Z" />
<glyph unicode="+" glyph-name="plus" horiz-adv-x="430" d="M192 100L221 265H76L89 335H234L263 500H343L314 335H459L446 265H301L272 100H192Z" />
<glyph unicode="," glyph-name="comma" horiz-adv-x="170" d="M19 -115L58 105H153L84 -115H19Z" />
<glyph unicode="-" glyph-name="hyphen" horiz-adv-x="360" d="M76 265L89 335H389L376 265H76Z" />
<glyph unicode="." glyph-name="period" horiz-adv-x="170" d="M39 -5L58 105H148L129 -5H39Z" />
<glyph unicode="/" glyph-name="slash" horiz-adv-x="390" d="M0 0L423 700H513L90 0H0Z" />
<glyph unicode="0" glyph-name="zero" horiz-adv-x="510" d="M176 -10T136 35T95 190Q95 258 111 350Q147 549 213 629T380 710Q457 710 497 665T538 512Q538 449 521 350Q486 151 420 71T253 -10Q176 -10 136 35ZM312 50T357 118T431 350Q447 442 447 505Q447
583 425 616T369 650Q320 650 275 582T201 350Q185 258 185 196Q185 117 206 84T263 50Q312 50 357 118Z" />
<glyph unicode="1" glyph-name="one" horiz-adv-x="280" d="M231 630H121L129 680Q155 688 198 694T283 700H333L210 0H120L231 630Z" />
<glyph unicode="2" glyph-name="two" horiz-adv-x="390" d="M24 80L100 157Q208 268 253 318T324 410T358 500Q363 532 363 551Q363 645 273 645H133L141 690Q167 698 210 704T295 710Q377 710 416 677T455 570Q455 546 448 500Q438 445 410 397T336 297T193 148L117
70H372L360 0H10L24 80Z" />
<glyph unicode="3" glyph-name="three" horiz-adv-x="415" d="M121 -10T81 -4T16 10L24 55H154Q229 55 267 86T318 190Q323 218 323 236Q323 286 295 308T203 330H133L145 400H205Q272 400 309 430T357 525Q360 543 360 559Q360 601 337 623T268 645H138L146 690Q172
698 215 704T300 710Q452 710 452 578Q452 557 447 525Q437 469 408 432T330 372L329 368Q372 357 392 323T413 240Q413 218 408 190Q389 84 332 37T163 -10Q121 -10 81 -4Z" />
<glyph unicode="4" glyph-name="four" horiz-adv-x="470" d="M290 0L321 180H61L75 260L403 700H503L424 250H484L471 180H411L380 0H290ZM159 250H334L387 555H383L159 250Z" />
<glyph unicode="5" glyph-name="five" horiz-adv-x="445" d="M151 -10T111 -4T46 10L54 55H184Q259 55 297 88T350 200Q355 230 355 248Q355 300 327 322T235 345H120L183 700H508L496 635H261L222 410H267Q361 410 404 377T447 268Q447 244 440 200Q420 87 363
39T193 -10Q151 -10 111 -4Z" />
<glyph unicode="6" glyph-name="six" horiz-adv-x="455" d="M155 -10T117 23T78 129Q78 164 85 200L124 420Q151 573 212 641T370 710Q412 710 452 704T516 690L508 645H378Q318 645 276 589T210 400Q236 408 271 414T334 420Q463 420 463 280Q463 248 455 200Q435
89 382 40T233 -10Q155 -10 117 23ZM287 50T319 86T365 200Q371 235 371 261Q371 314 346 337T268 360H203L175 200Q169 167 169 142Q169 95 188 73T243 50Q287 50 319 86Z" />
<glyph unicode="7" glyph-name="seven" horiz-adv-x="410" d="M204 285T401 630H131L143 700H503L489 620Q297 293 200 0H110Q204 285 401 630Z" />
<glyph unicode="8" glyph-name="eight" horiz-adv-x="480" d="M150 -10T108 23T66 125Q66 155 71 180Q83 247 126 294T224 363V367Q191 379 169 413T146 498Q146 516 149 535Q179 710 365 710Q523 710 523 581Q523 558 519 535Q508 471 468 427T384 367V363Q423
344 448 307T474 217Q474 200 471 180Q454 82 398 36T238 -10Q150 -10 108 23ZM411 440T429 535Q432 552 432 566Q432 606 411 628T354 650Q311 650 280 620T239 535Q236 520 236 506Q236 434 311 405Q411 440 429 535ZM358 50T381 180Q384 195 384 209Q384 249
362 276T297 325Q239 300 205 267T161 180Q157 160 157 139Q157 50 248 50Q358 50 381 180Z" />
<glyph unicode="9" glyph-name="nine" horiz-adv-x="455" d="M166 -10T126 -4T61 10L69 55H199Q259 55 301 111T367 300Q342 292 307 286T244 280Q181 280 148 313T115 419Q115 460 123 500Q142 611 196 660T345 710Q424 710 462 677T500 570Q500 536 493 500L454
280Q427 127 366 59T208 -10Q166 -10 126 -4ZM374 340L403 500Q408 526 408 556Q408 650 334 650Q290 650 259 614T213 500Q207 464 207 438Q207 385 232 363T309 340H374Z" />
<glyph unicode=":" glyph-name="colon" horiz-adv-x="170" d="M108 390L128 500H218L198 390H108ZM39 -5L58 105H148L129 -5H39Z" />
<glyph unicode=";" glyph-name="semicolon" horiz-adv-x="165" d="M108 390L128 500H218L198 390H108ZM19 -115L58 105H153L84 -115H19Z" />
<glyph unicode="&lt;" glyph-name="less" horiz-adv-x="400" d="M361 10L77 210L92 295L447 495L430 400L175 256L173 249L378 105L361 10Z" />
<glyph unicode="=" glyph-name="equal" horiz-adv-x="430" d="M91 350L104 425H474L461 350H91ZM60 175L74 250H444L430 175H60Z" />
<glyph unicode="&gt;" glyph-name="greater" horiz-adv-x="400" d="M41 10L58 105L313 249L315 256L110 400L127 495L412 295L397 210L41 10Z" />
<glyph unicode="?" glyph-name="question" horiz-adv-x="370" d="M148 246T175 286T249 373Q290 414 312 445T341 520Q345 548 345 557Q345 645 253 645H123L131 690Q157 698 199 704T285 710Q361 710 399 678T437 577Q437 552 431 520Q420 461 393 423T317 338Q272
295 249 264T217 185H137Q148 246 175 286ZM99 -5L118 105H208L189 -5H99Z" />
<glyph unicode="@" glyph-name="at" horiz-adv-x="830" d="M93 -90T93 196Q93 246 104 310Q140 510 250 610T535 710Q689 710 770 641T851 445Q851 404 844 365Q826 260 790 201T690 116T520 90L521 120H516Q493 101 464 91T404 80Q350 80 317 115T284 223Q284
246 291 290Q308 385 338 439T418 517T545 540Q574 540 611 534T671 520L607 155Q644 155 671 173T718 236T754 365Q761 401 761 439Q761 542 700 596T524 650Q391 650 309 571T194 310Q183 244 183 199Q183 80 247 28T445 -25H575L567 -70Q541 -78 499 -84T414
-90Q93 -90 93 196ZM462 140T483 146T518 160L574 480H534Q492 480 463 464T414 406T381 290Q375 257 375 232Q375 184 393 162T444 140Q462 140 483 146Z" />
<glyph unicode="A" glyph-name="A" horiz-adv-x="510" d="M20 0L313 700H443L490 0H400L386 180H186L110 0H20ZM214 250H384L362 600H358L214 250Z" />
<glyph unicode="B" glyph-name="B" horiz-adv-x="500" d="M135 -10T71 10L191 690Q262 710 355 710Q444 710 485 678T527 577Q527 557 522 525Q503 420 416 377L415 373Q498 348 498 246Q498 223 493 190Q480 118 450 75T367 11T228 -10Q135 -10 71 10ZM290 400Q350
400 385 431T432 525Q435 543 435 558Q435 645 333 645H273L230 400H290ZM239 55Q314 55 352 86T403 190Q408 222 408 240Q408 291 380 313T289 335H219L169 55H239Z" />
<glyph unicode="C" glyph-name="C" horiz-adv-x="435" d="M182 -10T139 35T95 192Q95 260 111 350Q135 486 174 565T264 677T385 710Q428 710 468 704T531 690L523 645H393Q327 645 279 580T201 350Q186 265 186 208Q186 124 215 90T299 55H429L421 10Q396 2 354
-4T268 -10Q182 -10 139 35Z" />
<glyph unicode="D" glyph-name="D" horiz-adv-x="520" d="M135 -10T71 10L191 690Q262 710 355 710Q453 710 500 664T547 507Q547 440 531 350Q507 212 467 134T370 23T228 -10Q135 -10 71 10ZM239 55Q313 55 362 119T441 350Q456 437 456 493Q456 577 427 611T343
645H273L169 55H239Z" />
<glyph unicode="E" glyph-name="E" horiz-adv-x="450" d="M70 0L193 700H533L521 630H271L230 400H450L438 330H218L172 70H422L410 0H70Z" />
<glyph unicode="F" glyph-name="F" horiz-adv-x="430" d="M70 0L193 700H533L521 630H271L227 385H437L425 315H215L160 0H70Z" />
<glyph unicode="G" glyph-name="G" horiz-adv-x="500" d="M190 -10T143 36T95 195Q95 261 111 350Q135 487 174 566T267 677T395 710Q438 710 478 704T541 690L533 645H403Q329 645 280 581T201 350Q187 272 187 211Q187 124 219 90T319 55H359L417 380H507L441
10Q416 2 374 -4T288 -10Q190 -10 143 36Z" />
<glyph unicode="H" glyph-name="H" horiz-adv-x="530" d="M70 0L193 700H283L228 390H438L493 700H583L460 0H370L426 320H216L160 0H70Z" />
<glyph unicode="I" glyph-name="I" horiz-adv-x="230" d="M70 0L193 700H283L160 0H70Z" />
<glyph unicode="J" glyph-name="J" horiz-adv-x="350" d="M49 -10T1 10L9 55H99Q155 55 189 95T242 240L323 700H413L332 240Q315 145 285 91T208 14T88 -10Q49 -10 1 10Z" />
<glyph unicode="K" glyph-name="K" horiz-adv-x="490" d="M70 0L193 700H283L223 360L478 700H583L317 355L480 0H375L221 350L160 0H70Z" />
<glyph unicode="L" glyph-name="L" horiz-adv-x="420" d="M70 0L193 700H283L172 70H422L410 0H70Z" />
<glyph unicode="M" glyph-name="M" horiz-adv-x="740" d="M55 0L218 700H328L406 220H410L658 700H768L685 0H595L656 520H651L430 90H340L271 520H266L145 0H55Z" />
<glyph unicode="N" glyph-name="N" horiz-adv-x="540" d="M70 0L193 700H293L411 205H416L503 700H593L470 0H370L252 495H247L160 0H70Z" />
<glyph unicode="O" glyph-name="O" horiz-adv-x="530" d="M180 -10T138 35T95 191Q95 260 111 350Q135 486 174 565T266 677T390 710Q473 710 515 665T558 510Q558 447 541 350Q517 214 478 135T387 23T263 -10Q180 -10 138 35ZM399 50T451 350Q467 440 467 503Q467
650 379 650Q255 650 201 350Q185 260 185 198Q185 50 273 50Q399 50 451 350Z" />
<glyph unicode="P" glyph-name="P" horiz-adv-x="490" d="M191 690Q262 710 355 710Q454 710 497 676T541 557Q541 522 531 460Q514 363 484 308T409 229T296 205Q274 205 246 208T197 215L160 0H70L191 690ZM278 275Q325 275 356 291T407 348T441 460Q449 510
449 540Q449 598 424 621T343 645H273L208 275H278Z" />
<glyph unicode="Q" glyph-name="Q" horiz-adv-x="540" d="M180 -10T138 35T95 191Q95 260 111 350Q135 486 174 565T266 677T390 710Q473 710 515 665T558 510Q558 447 541 350Q521 237 491 165T418 50Q479 50 535 30L528 -10H263Q180 -10 138 35ZM399 50T451
350Q467 440 467 503Q467 650 379 650Q255 650 201 350Q185 260 185 198Q185 50 273 50Q399 50 451 350Z" />
<glyph unicode="R" glyph-name="R" horiz-adv-x="505" d="M191 690Q262 710 355 710Q453 710 497 676T541 560Q541 521 532 470Q515 372 482 321T394 250L470 0H370L300 230H200L160 0H70L191 690ZM282 300Q351 300 388 337T442 470Q450 515 450 543Q450 599 424
622T343 645H273L212 300H282Z" />
<glyph unicode="S" glyph-name="S" horiz-adv-x="445" d="M141 -10T101 -4T36 10L44 55H174Q258 55 298 85T351 180Q353 189 353 204Q353 233 340 252T307 285T252 316Q210 337 185 355T141 403T123 481Q123 500 128 530Q144 621 198 665T350 710Q393 710 433
704T496 690L488 645H358Q298 645 263 616T218 530Q215 515 215 503Q215 473 229 452T263 416T319 385Q360 364 385 347T427 300T445 225Q445 203 441 180Q423 81 364 36T183 -10Q141 -10 101 -4Z" />
<glyph unicode="T" glyph-name="T" horiz-adv-x="430" d="M170 0L281 630H121L133 700H543L531 630H371L260 0H170Z" />
<glyph unicode="U" glyph-name="U" horiz-adv-x="520" d="M172 -10T132 24T92 141Q92 186 102 240L183 700H273L192 240Q183 188 183 151Q183 95 204 73T268 50Q324 50 358 91T412 240L493 700H583L502 240Q485 145 455 91T378 14T258 -10Q172 -10 132 24Z" />
<glyph unicode="V" glyph-name="V" horiz-adv-x="490" d="M180 0L143 700H233L259 95H263L503 700H593L310 0H180Z" />
<glyph unicode="W" glyph-name="W" horiz-adv-x="720" d="M135 0L143 700H233L228 160H233L415 570H505L543 160H548L733 700H823L585 0H475L436 420H432L245 0H135Z" />
<glyph unicode="X" glyph-name="X" horiz-adv-x="460" d="M15 0L228 360L153 700H243L304 420L463 700H553L358 360L445 0H355L282 300L105 0H15Z" />
<glyph unicode="Y" glyph-name="Y" horiz-adv-x="450" d="M180 0L218 220L133 700H223L285 345L473 700H563L308 220L270 0H180Z" />
<glyph unicode="Z" glyph-name="Z" horiz-adv-x="405" d="M20 0L31 65L391 630H136L148 700H508L496 635L137 70H392L380 0H20Z" />
<glyph unicode="[" glyph-name="bracketleft" horiz-adv-x="260" d="M38 -180L200 740H390L379 680H279L138 -120H238L228 -180H38Z" />
<glyph unicode="\" glyph-name="backslash" horiz-adv-x="390" d="M300 0L123 700H213L390 0H300Z" />
<glyph unicode="]" glyph-name="bracketright" horiz-adv-x="260" d="M-31 -180L-21 -120H78L219 680H119L130 740H320L158 -180H-31Z" />
<glyph unicode="^" glyph-name="asciicircum" horiz-adv-x="445" d="M167 410L109 450L303 700H388L494 450L422 410L332 610H327L167 410Z" />
<glyph unicode="_" glyph-name="underscore" horiz-adv-x="300" d="M-12 -70L0 0H300L287 -70H-12Z" />
<glyph unicode="`" glyph-name="grave" horiz-adv-x="170" d="M181 560L133 690H228L241 560H181Z" />
<glyph unicode="a" glyph-name="a" horiz-adv-x="465" d="M143 -10T110 24T77 138Q77 184 89 250Q106 349 136 405T213 486T329 510Q415 510 484 480L400 0H325V30H320Q298 11 268 1T208 -10Q143 -10 110 24ZM266 50T287 56T322 70L389 450H319Q266 450 233 407T179
250Q168 187 168 152Q168 96 188 73T248 50Q266 50 287 56Z" />
<glyph unicode="b" glyph-name="b" horiz-adv-x="470" d="M144 -10T73 20L193 700H283L245 485Q272 497 296 503T349 510Q414 510 447 476T480 360Q480 318 469 250Q451 151 421 95T344 14T228 -10Q144 -10 73 20ZM238 50Q291 50 324 93T379 250Q389 306 389 347Q389
404 369 427T309 450Q291 450 270 444T235 430L168 50H238Z" />
<glyph unicode="c" glyph-name="c" horiz-adv-x="375" d="M155 -10T117 24T78 142Q78 192 89 250Q106 349 136 405T210 486T319 510Q347 510 380 504T436 490L429 450H329Q289 450 262 433T214 372T179 250Q169 196 169 155Q169 96 193 73T268 50H368L361 10Q336
2 301 -4T238 -10Q155 -10 117 24Z" />
<glyph unicode="d" glyph-name="d" horiz-adv-x="470" d="M143 -10T110 24T77 138Q77 184 89 250Q114 394 165 452T299 510Q350 510 395 485L433 700H523L400 0H325V30H320Q298 11 268 1T208 -10Q143 -10 110 24ZM266 50T287 56T322 70L385 430Q375 438 356 444T319
450Q266 450 233 407T179 250Q168 187 168 152Q168 96 188 73T248 50Q266 50 287 56Z" />
<glyph unicode="e" glyph-name="e" horiz-adv-x="430" d="M161 -10T120 24T78 144Q78 186 89 250Q106 349 136 405T210 486T319 510Q393 510 431 478T470 388Q470 376 466 350Q454 280 406 245T267 210H172Q165 170 165 148Q165 95 193 73T283 50H383L376 10Q351
2 316 -4T253 -10Q161 -10 120 24ZM277 270Q325 270 351 298T378 376Q378 412 359 433T310 455Q265 455 233 414T182 270H277Z" />
<glyph unicode="f" glyph-name="f" horiz-adv-x="320" d="M-29 -210T-62 -204T-113 -190L-106 -150H-16Q12 -150 37 -126T72 -40L154 425H94L106 490H166L173 530Q190 628 233 664T343 700Q365 700 398 694T449 680L442 640H352Q324 640 299 616T263 530L256 490H396L388
445Q362 437 327 431T264 425H244L162 -40Q145 -137 103 -173T-7 -210Q-29 -210 -62 -204Z" />
<glyph unicode="g" glyph-name="g" horiz-adv-x="465" d="M134 -210T102 -204T46 -190L53 -150H153Q222 -150 259 -114T312 15Q259 -10 208 -10Q143 -10 110 24T77 138Q77 184 89 250Q106 349 136 405T213 486T329 510Q415 510 484 480L407 40Q390 -55 360 -109T282
-186T162 -210Q134 -210 102 -204ZM266 50T287 56T322 70L389 450H319Q266 450 233 407T179 250Q168 187 168 152Q168 96 188 73T248 50Q266 50 287 56Z" />
<glyph unicode="h" glyph-name="h" horiz-adv-x="480" d="M193 700H283L245 485Q300 510 359 510Q419 510 450 487T482 407Q482 383 478 360L415 0H325L388 360Q390 369 390 385Q390 420 369 435T309 450Q291 450 270 444T235 430L160 0H70L193 700Z" />
<glyph unicode="i" glyph-name="i" horiz-adv-x="230" d="M170 570L189 680H279L260 570H170ZM70 0L158 500H248L160 0H70Z" />
<glyph unicode="j" glyph-name="j" horiz-adv-x="240" d="M180 570L199 680H289L270 570H180ZM-47 -210T-93 -190L-86 -150H-16Q12 -150 37 -126T72 -40L168 500H258L162 -40Q145 -137 103 -173T-7 -210Q-47 -210 -93 -190Z" />
<glyph unicode="k" glyph-name="k" horiz-adv-x="435" d="M70 0L193 700H283L207 270L393 500H493L296 265L425 0H325L205 260L160 0H70Z" />
<glyph unicode="l" glyph-name="l" horiz-adv-x="230" d="M70 0L193 700H283L160 0H70Z" />
<glyph unicode="m" glyph-name="m" horiz-adv-x="690" d="M153 500H228L227 470H232Q256 490 281 500T339 510Q416 510 444 466Q471 486 508 498T574 510Q630 510 661 487T692 407Q692 383 688 360L625 0H535L598 360Q600 369 600 385Q600 420 582 435T534 450Q513
450 491 444T455 430Q457 416 457 405Q457 383 453 360L390 0H300L363 360Q365 369 365 385Q365 420 347 435T299 450Q282 450 263 444T230 430L155 0H65L153 500Z" />
<glyph unicode="n" glyph-name="n" horiz-adv-x="475" d="M153 500H228L227 470H232Q255 489 284 499T344 510Q410 510 443 487T477 406Q477 383 473 360L410 0H320L383 360Q385 369 385 385Q385 420 364 435T304 450Q286 450 265 444T230 430L155 0H65L153 500Z" />
<glyph unicode="o" glyph-name="o" horiz-adv-x="460" d="M153 -10T116 26T78 147Q78 189 89 250Q114 391 169 450T319 510Q394 510 431 473T469 351Q469 306 459 250Q434 109 378 50T228 -10Q153 -10 116 26ZM279 45T314 92T369 250Q379 304 379 346Q379 455
310 455Q268 455 233 408T179 250Q169 194 169 153Q169 45 237 45Q279 45 314 92Z" />
<glyph unicode="p" glyph-name="p" horiz-adv-x="465" d="M153 500H228L227 470H232Q255 489 284 499T344 510Q409 510 442 476T475 360Q475 318 464 250Q438 106 387 48T253 -10Q225 -10 203 -4T157 15L119 -200H29L153 500ZM286 50T319 93T374 250Q384 306 384
347Q384 404 364 427T304 450Q286 450 265 444T230 430L167 70Q177 62 196 56T233 50Q286 50 319 93Z" />
<glyph unicode="q" glyph-name="q" horiz-adv-x="465" d="M312 15Q259 -10 208 -10Q143 -10 110 24T77 138Q77 184 89 250Q106 349 136 405T213 486T329 510Q415 510 484 480L364 -200H274L312 15ZM266 50T287 56T322 70L389 450H319Q266 450 233 407T179 250Q168
187 168 152Q168 96 188 73T248 50Q266 50 287 56Z" />
<glyph unicode="r" glyph-name="r" horiz-adv-x="335" d="M153 500H229L227 460H232Q286 500 363 500H413L399 425H299Q257 425 226 405L155 0H65L153 500Z" />
<glyph unicode="s" glyph-name="s" horiz-adv-x="395" d="M130 -10T98 -4T41 10L48 50H148Q217 50 251 68T292 130Q293 135 293 145Q293 174 273 189T210 225Q175 240 153 254T115 291T99 349Q99 364 102 380Q114 453 162 481T304 510Q332 510 365 504T421 490L414
450H314Q191 450 191 365Q191 336 211 321T274 285Q309 270 331 256T369 219T385 161Q385 147 382 130Q373 75 347 45T276 3T158 -10Q130 -10 98 -4Z" />
<glyph unicode="t" glyph-name="t" horiz-adv-x="345" d="M162 -10T132 13T102 99Q102 126 108 160L154 425H94L106 490H166L187 610H277L256 490H396L388 445Q362 437 327 431T264 425H244L198 160Q194 140 194 120Q194 82 209 66T248 50H338L331 10Q312 3 277
-3T218 -10Q162 -10 132 13Z" />
<glyph unicode="u" glyph-name="u" horiz-adv-x="475" d="M152 -10T119 13T85 94Q85 117 89 140L153 500H243L179 140Q177 131 177 115Q177 80 198 65T258 50Q276 50 297 56T332 70L408 500H498L410 0H335V30H330Q308 11 278 1T218 -10Q152 -10 119 13Z" />
<glyph unicode="v" glyph-name="v" horiz-adv-x="430" d="M150 0L103 500H188L227 85H231L418 500H503L280 0H150Z" />
<glyph unicode="w" glyph-name="w" horiz-adv-x="610" d="M105 0L103 500H188L190 120H195L335 400H415L457 120H462L598 500H683L505 0H395L354 270H350L215 0H105Z" />
<glyph unicode="x" glyph-name="x" horiz-adv-x="400" d="M15 0L184 255L107 500H197L255 315L379 500H469L304 255L385 0H295L234 195L105 0H15Z" />
<glyph unicode="y" glyph-name="y" horiz-adv-x="475" d="M144 -210T112 -204T56 -190L63 -150H163Q232 -150 269 -114T322 15Q269 -10 218 -10Q152 -10 119 13T85 94Q85 117 89 140L153 500H243L179 140Q177 131 177 115Q177 80 198 65T258 50Q276 50 297 56T332
70L408 500H498L417 40Q400 -55 370 -109T292 -186T172 -210Q144 -210 112 -204Z" />
<glyph unicode="z" glyph-name="z" horiz-adv-x="370" d="M20 0L30 60L321 435H106L118 500H438L427 440L137 65H356L345 0H20Z" />
<glyph unicode="{" glyph-name="braceleft" horiz-adv-x="290" d="M170 -180T131 -157T92 -68Q92 -43 98 -10L121 120Q125 143 125 164Q125 201 110 220T64 250L74 310Q117 322 141 351T177 440L200 570Q212 639 238 675T308 726T420 740L409 680Q359 680 330
657T290 570L271 460Q261 407 247 375T212 324T159 282V278Q188 253 201 230T214 166Q214 136 207 100L188 -10Q184 -29 184 -48Q184 -89 205 -104T268 -120L258 -180Q170 -180 131 -157Z" />
<glyph unicode="|" glyph-name="bar" horiz-adv-x="230" d="M34 -200L193 700H283L124 -200H34Z" />
<glyph unicode="}" glyph-name="braceright" horiz-adv-x="290" d="M-21 -120Q28 -120 57 -97T98 -10L117 100Q127 153 141 185T176 236T229 278V282Q200 307 187 330T174 394Q174 424 181 460L200 570Q204 589 204 608Q204 649 183 664T119 680L130 740Q218 740
257 717T296 628Q296 603 290 570L267 440Q263 417 263 396Q263 359 278 340T324 310L314 250Q271 238 247 209T211 120L188 -10Q176 -79 150 -115T81 -166T-31 -180L-21 -120Z" />
<glyph unicode="~" glyph-name="asciitilde" horiz-adv-x="450" d="M133 195T110 220T86 296Q86 320 93 360H163Q160 345 160 333Q160 285 200 285Q213 285 224 292T253 315Q280 338 304 351T364 365Q415 365 438 340T461 263Q461 235 455 200H385Q388 215 388
227Q388 275 348 275Q335 275 324 268T295 245Q268 222 244 209T184 195Q133 195 110 220Z" />
<glyph unicode="&#xa0;" glyph-name="uni00A0" horiz-adv-x="250" />
<glyph unicode="&#xa1;" glyph-name="exclamdown" horiz-adv-x="230" d="M172 595L192 705H282L262 595H172ZM60 0L163 515H243L170 0H60Z" />
<glyph unicode="&#xa2;" glyph-name="cent" horiz-adv-x="375" d="M203 -8Q138 -2 108 32T77 141Q77 187 89 250Q112 386 161 444T294 509L305 570H365L354 508Q401 502 436 490L429 450H344L273 50H368L361 10Q316 -4 263 -9L254 -60H194L203 -8ZM283 443Q245
430 220 385T179 250Q169 194 169 154Q169 113 180 91T215 58L283 443Z" />
<glyph unicode="&#xa3;" glyph-name="sterling" horiz-adv-x="415" d="M53 50Q81 66 100 102T132 210L151 320H91L103 390H163L183 500Q198 589 226 634T299 694T420 710Q460 710 506 690L498 645H408Q369 645 344 634T302 592T273 500L253 390H403L391 320H241L226
234Q213 163 194 127T148 74L147 70H407L395 0H45L53 50Z" />
<glyph unicode="&#xa4;" glyph-name="currency" horiz-adv-x="520" d="M62 185L144 255Q133 282 133 317Q133 334 136 350Q140 375 151 400T178 445L120 515L179 565L238 500Q259 518 291 529T354 540Q385 540 414 529T458 500L539 565L580 515L498 445Q509 418
509 385Q509 368 506 350Q502 324 491 299T464 255L522 185L463 135L405 200Q383 182 351 171T287 160Q257 160 229 171T185 200L103 135L62 185ZM339 225T369 257T411 350Q415 378 415 388Q415 431 396 453T343 475Q303 475 273 443T231 350Q227 322 227 312Q227
269 246 247T299 225Q339 225 369 257Z" />
<glyph unicode="&#xa5;" glyph-name="yen" horiz-adv-x="450" d="M180 0L216 205H96L108 275H208L198 335H119L131 405H185L133 700H223L285 345L473 700H563L406 405H461L449 335H369L337 275H438L426 205H306L270 0H180Z" />
<glyph unicode="&#xa6;" glyph-name="brokenbar" horiz-adv-x="230" d="M126 320L189 680H279L216 320H126ZM34 -200L98 160H188L124 -200H34Z" />
<glyph unicode="&#xa7;" glyph-name="section" horiz-adv-x="435" d="M107 -210T71 -204T11 -190L18 -150H133Q278 -150 296 -50Q298 -38 298 -33Q298 1 275 21T203 68Q163 89 139 106T98 150T81 216Q81 232 84 250Q93 304 127 342T208 402Q178 422 161 449T143
516Q143 532 146 550Q160 627 215 668T370 710Q405 710 441 704T501 690L494 650H379Q317 650 281 624T236 550Q234 538 234 533Q234 498 256 477T326 431Q364 409 386 393T425 350T442 284Q442 268 439 250Q429 197 396 159T317 100Q351 78 370 51T389 -17Q389
-32 386 -50Q372 -128 314 -169T142 -210Q107 -210 71 -204ZM333 164T349 250Q351 264 351 270Q351 306 328 327T260 372Q188 337 174 250Q172 236 172 230Q172 195 194 174T263 128Q333 164 349 250Z" />
<glyph unicode="&#xa8;" glyph-name="dieresis" horiz-adv-x="290" d="M122 580L141 690H231L212 580H122ZM282 580L301 690H391L372 580H282Z" />
<glyph unicode="&#xa9;" glyph-name="copyright" horiz-adv-x="810" d="M258 -20T178 55T98 264Q98 302 106 350Q126 464 185 547T333 675T531 720Q674 720 754 646T834 437Q834 400 826 350Q806 236 748 153T600 25T401 -20Q258 -20 178 55ZM492 40T559 76T673
182T736 350Q744 396 744 431Q744 541 685 600T521 660Q440 660 373 624T260 518T196 350Q189 309 189 269Q189 159 248 100T412 40Q492 40 559 76ZM389 130T359 139T313 176T296 256Q296 288 306 350Q322 442 349 489T416 553T515 570Q570 570 626 550L619 510H524Q485
510 460 499T417 453T386 350Q379 309 379 277Q379 225 400 208T468 190H573L566 150Q540 142 505 136T437 130Q389 130 359 139Z" />
<glyph unicode="&#xaa;" glyph-name="ordfeminine" horiz-adv-x="285" d="M155 395T135 412T114 466Q114 472 116 490Q124 539 155 562T228 585Q244 585 265 583T292 580L295 600Q297 612 297 616Q297 637 284 646T240 655H170L177 693Q193 698 216 701T259 705Q311
705 337 689T363 632Q363 618 360 600L325 400H265L264 420Q226 395 184 395Q155 395 135 412ZM245 445T271 460L284 535H239Q213 535 197 521T180 480Q180 463 191 454T223 445Q245 445 271 460Z" />
<glyph unicode="&#xab;" glyph-name="guillemotleft" horiz-adv-x="435" d="M182 45L64 250L255 455L313 415L164 252L163 248L254 85L182 45ZM347 45L229 250L420 455L478 415L329 252L328 248L419 85L347 45Z" />
<glyph unicode="&#xac;" glyph-name="logicalnot" horiz-adv-x="420" d="M367 240L376 340H89L102 410H462L432 240H367Z" />
<glyph unicode="&#xad;" glyph-name="uni00AD" horiz-adv-x="360" d="M75 260L89 340H389L375 260H75Z" />
<glyph unicode="&#xae;" glyph-name="registered" horiz-adv-x="810" d="M258 -20T178 55T98 264Q98 302 106 350Q126 464 185 547T333 675T531 720Q674 720 754 646T834 437Q834 400 826 350Q806 236 748 153T600 25T401 -20Q258 -20 178 55ZM492 40T559 76T673
182T736 350Q744 396 744 431Q744 541 685 600T521 660Q440 660 373 624T260 518T196 350Q189 309 189 269Q189 159 248 100T412 40Q492 40 559 76ZM361 550Q396 559 428 564T500 570Q569 570 604 548T639 471Q639 450 635 430Q626 377 602 351T544 310L594 140H509L466
290H396L369 140H289L361 550ZM461 350Q495 350 521 369T555 430Q557 444 557 450Q557 481 538 495T489 510H434L406 350H461Z" />
<glyph unicode="&#xaf;" glyph-name="overscore" horiz-adv-x="270" d="M132 640L143 700H373L362 640H132Z" />
<glyph unicode="&#xb0;" glyph-name="degree" horiz-adv-x="380" d="M199 390T166 422T133 513Q133 531 136 550Q149 624 198 667T315 710Q374 710 407 678T440 589Q440 578 436 550Q423 476 375 433T258 390Q199 390 166 422ZM301 450T324 475T356 550Q359 570
359 584Q359 617 345 633T304 650Q272 650 249 625T216 550Q213 532 213 518Q213 484 228 467T269 450Q301 450 324 475Z" />
<glyph unicode="&#xb1;" glyph-name="plusminus" horiz-adv-x="430" d="M201 150L228 305H83L96 375H241L268 530H348L321 375H466L453 305H308L281 150H201ZM38 50L51 120H421L408 50H38Z" />
<glyph unicode="&#xb2;" glyph-name="uni00B2" horiz-adv-x="255" d="M110 455Q184 507 222 541T267 610Q270 629 258 642T220 655H155L162 694Q201 705 244 705Q289 705 311 687T334 633Q334 585 299 544T184 450H304L295 400H100L110 455Z" />
<glyph unicode="&#xb3;" glyph-name="uni00B3" horiz-adv-x="255" d="M136 395T101 406L108 445H183Q212 445 229 458T246 495Q246 512 235 521T203 530H158L167 580H207Q251 580 259 620Q261 636 251 645T214 655H145L152 694Q189 705 234 705Q279 705 302 691T326
641Q326 636 324 620Q321 599 304 582T272 560Q289 557 300 542T312 504Q312 499 310 485Q301 435 268 415T174 395Q136 395 101 406Z" />
<glyph unicode="&#xb4;" glyph-name="acute" horiz-adv-x="170" d="M118 560L176 690H271L178 560H118Z" />
<glyph unicode="&#xb5;" glyph-name="uni00B5" horiz-adv-x="475" d="M153 500H243L183 160Q180 145 180 131Q180 93 201 72T258 50Q276 50 297 56T332 70L408 500H498L410 0H335V30H330Q282 -10 228 -10Q201 -10 182 1T158 20L119 -200H29L153 500Z" />
<glyph unicode="&#xb6;" glyph-name="paragraph" horiz-adv-x="530" d="M268 330Q196 330 156 367T116 472Q116 495 120 515Q129 563 159 605T234 674T333 700H633L621 630H551L404 -200H324L471 630H401L254 -200H174L268 330Z" />
<glyph unicode="&#xb7;" glyph-name="middot" horiz-adv-x="250" d="M132 295L151 405H241L222 295H132Z" />
<glyph unicode="&#xb8;" glyph-name="cedilla" horiz-adv-x="200" d="M45 -165T29 -162T5 -155T-6 -150L-1 -120H63Q78 -120 87 -114T98 -95Q100 -83 94 -77T72 -70H17L32 15H82L75 -25H90Q126 -25 145 -40T164 -82Q164 -118 137 -141T65 -165Q45 -165 29 -162Z" />
<glyph unicode="&#xb9;" glyph-name="uni00B9" horiz-adv-x="185" d="M204 650H144L151 688Q167 693 194 696T248 700H278L225 400H160L204 650Z" />
<glyph unicode="&#xba;" glyph-name="ordmasculine" horiz-adv-x="300" d="M173 395T148 422T122 504Q122 527 126 550Q140 626 179 665T274 705Q319 705 345 678T371 598Q371 578 366 550Q353 474 314 435T219 395Q173 395 148 422ZM283 445T301 550Q306 580
306 596Q306 655 265 655Q211 655 191 550Q187 527 187 505Q187 445 228 445Q283 445 301 550Z" />
<glyph unicode="&#xbb;" glyph-name="guillemotright" horiz-adv-x="435" d="M102 45L44 85L193 248L194 252L103 415L175 455L294 250L102 45ZM267 45L209 85L358 248L359 252L268 415L340 455L459 250L267 45Z" />
<glyph unicode="&#xbc;" glyph-name="onequarter" horiz-adv-x="560" d="M40 0L553 700H633L120 0H40ZM219 650H159L166 688Q182 693 209 696T263 700H298L245 400H175L219 650ZM410 0L421 65H276L285 115L457 300H527L495 115H525L516 65H486L475 0H410ZM355
115H430L447 213L355 115Z" />
<glyph unicode="&#xbd;" glyph-name="onehalf" horiz-adv-x="590" d="M50 0L563 700H643L130 0H50ZM229 650H169L176 688Q192 693 219 696T273 700H308L255 400H185L229 650ZM344 55Q418 106 457 141T502 210Q505 229 493 242T454 255H389L396 294Q435 305 478
305Q523 305 546 286T569 232Q569 184 534 144T418 50H538L530 0H335L344 55Z" />
<glyph unicode="&#xbe;" glyph-name="threequarters" horiz-adv-x="565" d="M146 395T111 406L118 445H193Q222 445 239 458T256 495Q256 512 245 521T213 530H168L177 580H217Q261 580 269 620Q271 636 261 645T224 655H155L162 694Q199 705 244 705Q289 705
312 691T336 641Q336 636 334 620Q331 599 314 582T282 560Q299 557 310 542T322 504Q322 499 320 485Q311 435 278 415T184 395Q146 395 111 406ZM45 0L558 700H638L125 0H45ZM415 0L426 65H281L290 115L462 300H532L500 115H530L521 65H491L480 0H415ZM360 115H435L452
213L360 115Z" />
<glyph unicode="&#xbf;" glyph-name="questiondown" horiz-adv-x="370" d="M284 595L304 705H394L374 595H284ZM132 -10T94 23T56 124Q56 154 61 180Q72 239 99 277T175 362Q219 403 243 435T275 515H355Q344 454 317 413T243 327Q202 285 181 255T151 180Q147
152 147 143Q147 55 239 55H369L361 10Q336 2 294 -4T208 -10Q132 -10 94 23Z" />
<glyph unicode="&#xc0;" glyph-name="Agrave" horiz-adv-x="510" d="M362 750L315 880H410L422 750H362ZM20 0L313 700H443L490 0H400L386 180H186L110 0H20ZM214 250H384L362 600H358L214 250Z" />
<glyph unicode="&#xc1;" glyph-name="Aacute" horiz-adv-x="510" d="M352 750L410 880H505L412 750H352ZM20 0L313 700H443L490 0H400L386 180H186L110 0H20ZM214 250H384L362 600H358L214 250Z" />
<glyph unicode="&#xc2;" glyph-name="Acircumflex" horiz-adv-x="510" d="M265 750L363 880H458L510 750H450L400 824L325 750H265ZM20 0L313 700H443L490 0H400L386 180H186L110 0H20ZM214 250H384L362 600H358L214 250Z" />
<glyph unicode="&#xc3;" glyph-name="Atilde" horiz-adv-x="510" d="M20 0L313 700H443L490 0H400L386 180H186L110 0H20ZM214 250H384L362 600H358L214 250ZM406 765T396 774T375 803Q370 814 365 819T353 825Q341 825 332 814T318 780H268Q280 836 304 860T371
885Q390 885 400 876T421 847Q426 836 431 831T443 825Q455 825 464 836T477 870H527Q516 814 492 790T425 765Q406 765 396 774Z" />
<glyph unicode="&#xc4;" glyph-name="Adieresis" horiz-adv-x="510" d="M264 760L283 870H373L354 760H264ZM424 760L443 870H533L514 760H424ZM20 0L313 700H443L490 0H400L386 180H186L110 0H20ZM214 250H384L362 600H358L214 250Z" />
<glyph unicode="&#xc5;" glyph-name="Aring" horiz-adv-x="510" d="M350 730T331 747T311 794Q311 804 312 810Q319 847 346 868T411 890Q444 890 464 874T484 827Q484 783 455 757T383 730Q350 730 331 747ZM407 775T418 783T432 810Q433 813 433 820Q433 845
403 845Q369 845 362 810L361 802Q361 775 391 775Q407 775 418 783ZM20 0L313 700H443L490 0H400L386 180H186L110 0H20ZM214 250H384L362 600H358L214 250Z" />
<glyph unicode="&#xc6;" glyph-name="AE" horiz-adv-x="731" d="M0 0L363 700H814L802 630H552L511 400H731L719 330H499L453 70H703L691 0H351L382 180H183L90 0H0ZM220 250H395L462 630H417L220 250Z" />
<glyph unicode="&#xc7;" glyph-name="Ccedilla" horiz-adv-x="435" d="M225 -165T209 -162T184 -155T173 -150L178 -120H243Q283 -120 288 -95Q290 -83 284 -77T262 -70H207L218 -6Q157 5 126 51T95 191Q95 260 111 350Q135 486 174 565T264 677T385 710Q428 710
468 704T531 690L523 645H393Q327 645 279 580T201 350Q186 265 186 208Q186 124 215 90T299 55H429L421 10Q396 2 354 -4T268 -10L265 -25H280Q316 -25 335 -40T354 -82Q354 -119 326 -142T245 -165Q225 -165 209 -162Z" />
<glyph unicode="&#xc8;" glyph-name="Egrave" horiz-adv-x="450" d="M352 750L305 880H400L412 750H352ZM70 0L193 700H533L521 630H271L230 400H450L438 330H218L172 70H422L410 0H70Z" />
<glyph unicode="&#xc9;" glyph-name="Eacute" horiz-adv-x="450" d="M342 750L400 880H495L402 750H342ZM70 0L193 700H533L521 630H271L230 400H450L438 330H218L172 70H422L410 0H70Z" />
<glyph unicode="&#xca;" glyph-name="Ecircumflex" horiz-adv-x="450" d="M247 750L345 880H440L492 750H432L382 824L307 750H247ZM70 0L193 700H533L521 630H271L230 400H450L438 330H218L172 70H422L410 0H70Z" />
<glyph unicode="&#xcb;" glyph-name="Edieresis" horiz-adv-x="450" d="M245 770L265 880H355L335 770H245ZM405 770L425 880H515L495 770H405ZM70 0L193 700H533L521 630H271L230 400H450L438 330H218L172 70H422L410 0H70Z" />
<glyph unicode="&#xcc;" glyph-name="Igrave" horiz-adv-x="225" d="M217 750L170 880H265L277 750H217ZM65 0L188 700H278L155 0H65Z" />
<glyph unicode="&#xcd;" glyph-name="Iacute" horiz-adv-x="230" d="M217 750L275 880H370L277 750H217ZM70 0L193 700H283L160 0H70Z" />
<glyph unicode="&#xce;" glyph-name="Icircumflex" horiz-adv-x="215" d="M117 750L215 880H310L362 750H302L252 824L177 750H117ZM60 0L183 700H273L150 0H60Z" />
<glyph unicode="&#xcf;" glyph-name="Idieresis" horiz-adv-x="230" d="M125 770L145 880H235L215 770H125ZM285 770L305 880H395L375 770H285ZM70 0L193 700H283L160 0H70Z" />
<glyph unicode="&#xd0;" glyph-name="Eth" horiz-adv-x="540" d="M155 -10T91 10L146 320H66L78 390H158L211 690Q282 710 375 710Q473 710 520 664T567 507Q567 440 551 350Q527 212 487 134T390 23T248 -10Q155 -10 91 10ZM259 55Q333 55 382 119T461 350Q476
437 476 493Q476 577 447 611T363 645H293L248 390H358L346 320H236L189 55H259Z" />
<glyph unicode="&#xd1;" glyph-name="Ntilde" horiz-adv-x="540" d="M316 750T301 765T286 815Q286 835 290 855H340Q338 843 338 838Q338 810 357 810Q368 810 390 832Q410 851 424 860T458 870Q488 870 503 855T518 806Q518 786 514 765H464Q466 779 466 783Q466
810 447 810Q436 810 414 788Q396 770 381 760T347 750Q316 750 301 765ZM70 0L193 700H293L411 205H416L503 700H593L470 0H370L252 495H247L160 0H70Z" />
<glyph unicode="&#xd2;" glyph-name="Ograve" horiz-adv-x="530" d="M374 760L326 890H421L434 760H374ZM180 -10T138 35T95 191Q95 260 111 350Q135 486 174 565T266 677T390 710Q473 710 515 665T558 510Q558 447 541 350Q517 214 478 135T387 23T263 -10Q180
-10 138 35ZM399 50T451 350Q467 440 467 503Q467 650 379 650Q255 650 201 350Q185 260 185 198Q185 50 273 50Q399 50 451 350Z" />
<glyph unicode="&#xd3;" glyph-name="Oacute" horiz-adv-x="530" d="M364 760L421 890H516L424 760H364ZM180 -10T138 35T95 191Q95 260 111 350Q135 486 174 565T266 677T390 710Q473 710 515 665T558 510Q558 447 541 350Q517 214 478 135T387 23T263 -10Q180
-10 138 35ZM399 50T451 350Q467 440 467 503Q467 650 379 650Q255 650 201 350Q185 260 185 198Q185 50 273 50Q399 50 451 350Z" />
<glyph unicode="&#xd4;" glyph-name="Ocircumflex" horiz-adv-x="530" d="M279 760L376 890H471L524 760H464L414 834L339 760H279ZM180 -10T138 35T95 191Q95 260 111 350Q135 486 174 565T266 677T390 710Q473 710 515 665T558 510Q558 447 541 350Q517 214
478 135T387 23T263 -10Q180 -10 138 35ZM399 50T451 350Q467 440 467 503Q467 650 379 650Q255 650 201 350Q185 260 185 198Q185 50 273 50Q399 50 451 350Z" />
<glyph unicode="&#xd5;" glyph-name="Otilde" horiz-adv-x="530" d="M180 -10T138 35T95 191Q95 260 111 350Q135 486 174 565T266 677T390 710Q473 710 515 665T558 510Q558 447 541 350Q517 214 478 135T387 23T263 -10Q180 -10 138 35ZM399 50T451 350Q467
440 467 503Q467 650 379 650Q255 650 201 350Q185 260 185 198Q185 50 273 50Q399 50 451 350ZM420 765T410 774T389 803Q384 814 379 819T367 825Q355 825 346 814T332 780H282Q294 836 318 860T385 885Q404 885 414 876T435 847Q440 836 445 831T457 825Q469
825 478 836T491 870H541Q530 814 506 790T439 765Q420 765 410 774Z" />
<glyph unicode="&#xd6;" glyph-name="Odieresis" horiz-adv-x="530" d="M275 770L295 880H385L365 770H275ZM435 770L455 880H545L525 770H435ZM180 -10T138 35T95 191Q95 260 111 350Q135 486 174 565T266 677T390 710Q473 710 515 665T558 510Q558 447 541 350Q517
214 478 135T387 23T263 -10Q180 -10 138 35ZM399 50T451 350Q467 440 467 503Q467 650 379 650Q255 650 201 350Q185 260 185 198Q185 50 273 50Q399 50 451 350Z" />
<glyph unicode="&#xd7;" glyph-name="multiply" horiz-adv-x="400" d="M124 170L79 225L203 330L116 435L181 490L267 385L391 490L436 435L313 330L399 225L334 170L248 275L124 170Z" />
<glyph unicode="&#xd8;" glyph-name="Oslash" horiz-adv-x="540" d="M212 -10T176 9T119 73L73 20L38 50L105 126Q100 159 100 193Q100 260 116 350Q140 486 179 565T271 677T395 710Q450 710 487 691T543 627L589 680L624 650L558 574Q562 549 562 511Q562 442
546 350Q522 214 483 135T392 23T268 -10Q212 -10 176 9ZM469 543Q459 650 384 650Q260 650 206 350Q192 265 191 225L469 543ZM404 50T456 350Q467 412 471 475L192 156Q204 50 278 50Q404 50 456 350Z" />
<glyph unicode="&#xd9;" glyph-name="Ugrave" horiz-adv-x="520" d="M365 740L318 870H413L425 740H365ZM172 -10T132 24T92 141Q92 186 102 240L183 700H273L192 240Q183 188 183 151Q183 95 204 73T268 50Q324 50 358 91T412 240L493 700H583L502 240Q485 145
455 91T378 14T258 -10Q172 -10 132 24Z" />
<glyph unicode="&#xda;" glyph-name="Uacute" horiz-adv-x="520" d="M355 740L413 870H508L415 740H355ZM172 -10T132 24T92 141Q92 186 102 240L183 700H273L192 240Q183 188 183 151Q183 95 204 73T268 50Q324 50 358 91T412 240L493 700H583L502 240Q485 145
455 91T378 14T258 -10Q172 -10 132 24Z" />
<glyph unicode="&#xdb;" glyph-name="Ucircumflex" horiz-adv-x="520" d="M268 740L366 870H461L513 740H453L403 814L328 740H268ZM172 -10T132 24T92 141Q92 186 102 240L183 700H273L192 240Q183 188 183 151Q183 95 204 73T268 50Q324 50 358 91T412 240L493
700H583L502 240Q485 145 455 91T378 14T258 -10Q172 -10 132 24Z" />
<glyph unicode="&#xdc;" glyph-name="Udieresis" horiz-adv-x="520" d="M267 750L286 860H376L357 750H267ZM427 750L446 860H536L517 750H427ZM172 -10T132 24T92 141Q92 186 102 240L183 700H273L192 240Q183 188 183 151Q183 95 204 73T268 50Q324 50 358 91T412
240L493 700H583L502 240Q485 145 455 91T378 14T258 -10Q172 -10 132 24Z" />
<glyph unicode="&#xdd;" glyph-name="Yacute" horiz-adv-x="450" d="M320 740L378 870H473L380 740H320ZM180 0L218 220L133 700H223L285 345L473 700H563L308 220L270 0H180Z" />
<glyph unicode="&#xde;" glyph-name="Thorn" horiz-adv-x="500" d="M195 710H285L271 630Q528 617 528 419Q528 394 521 350Q498 217 412 147T172 70L158 -10H68L195 710ZM395 143T431 350Q437 382 437 409Q437 559 259 565L183 135Q395 143 431 350Z" />
<glyph unicode="&#xdf;" glyph-name="germandbls" horiz-adv-x="530" d="M284 -10T226 10L233 50H313Q361 50 390 69T428 135Q429 140 429 150Q429 175 414 194T370 238Q336 267 319 289T302 344Q302 384 321 409T378 467Q406 490 421 508T441 550Q443 564 443
569Q443 603 422 624T368 645Q268 645 242 495L155 0H65L152 495Q172 610 226 660T380 710Q457 710 496 679T535 588Q535 576 531 550Q525 516 506 493T454 442Q427 420 413 403T394 365Q393 362 393 355Q393 336 405 322T445 285Q481 257 501 231T521 163Q521
150 518 135Q504 53 458 22T323 -10Q284 -10 226 10Z" />
<glyph unicode="&#xe0;" glyph-name="agrave" horiz-adv-x="464" d="M327 560L280 690H375L387 560H327ZM143 -10T110 24T77 138Q77 184 89 250Q106 349 136 405T213 486T329 510Q415 510 484 480L400 0H325V30H320Q298 11 268 1T208 -10Q143 -10 110 24ZM266
50T287 56T322 70L389 450H319Q266 450 233 407T179 250Q168 187 168 152Q168 96 188 73T248 50Q266 50 287 56Z" />
<glyph unicode="&#xe1;" glyph-name="aacute" horiz-adv-x="465" d="M308 560L366 690H461L368 560H308ZM143 -10T110 24T77 138Q77 184 89 250Q106 349 136 405T213 486T329 510Q415 510 484 480L400 0H325V30H320Q298 11 268 1T208 -10Q143 -10 110 24ZM266
50T287 56T322 70L389 450H319Q266 450 233 407T179 250Q168 187 168 152Q168 96 188 73T248 50Q266 50 287 56Z" />
<glyph unicode="&#xe2;" glyph-name="acircumflex" horiz-adv-x="464" d="M220 550L318 680H413L465 550H405L356 624L280 550H220ZM142 -10T109 24T76 138Q76 184 88 250Q105 349 135 405T212 486T328 510Q414 510 483 480L399 0H324V30H319Q297 11 267 1T207
-10Q142 -10 109 24ZM265 50T286 56T321 70L388 450H318Q265 450 232 407T178 250Q167 187 167 152Q167 96 187 73T247 50Q265 50 286 56Z" />
<glyph unicode="&#xe3;" glyph-name="atilde" horiz-adv-x="465" d="M143 -10T110 24T77 138Q77 184 89 250Q106 349 136 405T213 486T329 510Q415 510 484 480L400 0H325V30H320Q298 11 268 1T208 -10Q143 -10 110 24ZM266 50T287 56T322 70L389 450H319Q266
450 233 407T179 250Q168 187 168 152Q168 96 188 73T248 50Q266 50 287 56ZM376 565T366 574T345 603Q340 614 335 619T323 625Q311 625 302 614T288 580H238Q250 636 274 660T341 685Q360 685 370 676T391 647Q396 636 401 631T413 625Q425 625 434 636T447 670H497Q486
614 462 590T395 565Q376 565 366 574Z" />
<glyph unicode="&#xe4;" glyph-name="adieresis" horiz-adv-x="464" d="M219 570L238 680H328L309 570H219ZM379 570L398 680H488L469 570H379ZM142 -10T109 24T76 138Q76 184 88 250Q105 349 135 405T212 486T328 510Q414 510 483 480L399 0H324V30H319Q297 11
267 1T207 -10Q142 -10 109 24ZM265 50T286 56T321 70L388 450H318Q265 450 232 407T178 250Q167 187 167 152Q167 96 187 73T247 50Q265 50 286 56Z" />
<glyph unicode="&#xe5;" glyph-name="aring" horiz-adv-x="465" d="M307 540T287 556T267 603Q267 608 269 620Q276 657 303 678T368 700Q401 700 421 684T441 637Q441 632 439 620Q432 583 405 562T340 540Q307 540 287 556ZM382 585T389 620L390 628Q390 655
360 655Q344 655 333 647T319 620Q318 617 318 610Q318 585 348 585Q382 585 389 620ZM143 -10T110 24T77 138Q77 184 89 250Q106 349 136 405T213 486T329 510Q415 510 484 480L400 0H325V30H320Q298 11 268 1T208 -10Q143 -10 110 24ZM266 50T287 56T322 70L389
450H319Q266 450 233 407T179 250Q168 187 168 152Q168 96 188 73T248 50Q266 50 287 56Z" />
<glyph unicode="&#xe6;" glyph-name="ae" horiz-adv-x="685" d="M130 -10T98 13T65 94Q65 117 69 140Q83 221 127 253T245 285Q285 285 343 275L354 340Q358 359 358 378Q358 419 335 434T264 450H164L171 490Q197 498 231 504T294 510Q340 510 374 492T422 440Q473
510 569 510Q721 510 721 396Q721 380 718 360Q706 291 658 256T518 220H423Q416 184 416 152Q416 96 444 73T533 50H633L626 10Q601 2 566 -4T503 -10Q443 -10 409 6T355 60Q296 -10 193 -10Q130 -10 98 13ZM529 280Q576 280 603 308T630 384Q630 418 612 436T560
455Q515 455 483 415T434 280H529ZM245 50T264 56T294 70T309 80L334 225H264Q175 225 159 140Q157 131 157 115Q157 80 175 65T223 50Q245 50 264 56Z" />
<glyph unicode="&#xe7;" glyph-name="ccedilla" horiz-adv-x="375" d="M185 -165T169 -162T144 -155T133 -150L138 -120H203Q243 -120 248 -95Q250 -83 244 -77T222 -70H167L179 -4Q128 6 103 40T78 142Q78 184 89 250Q106 349 136 405T210 486T319 510Q347 510
380 504T436 490L429 450H329Q289 450 262 433T214 372T179 250Q169 196 169 155Q169 96 193 73T268 50H368L361 10Q336 2 301 -4T238 -10H228L225 -25H240Q276 -25 295 -40T314 -82Q314 -119 286 -142T205 -165Q185 -165 169 -162Z" />
<glyph unicode="&#xe8;" glyph-name="egrave" horiz-adv-x="435" d="M293 560L246 690H341L353 560H293ZM161 -10T120 24T78 144Q78 186 89 250Q106 349 136 405T210 486T319 510Q393 510 431 478T470 388Q470 376 466 350Q454 280 406 245T267 210H172Q165 170
165 148Q165 95 193 73T283 50H383L376 10Q351 2 316 -4T253 -10Q161 -10 120 24ZM277 270Q325 270 351 298T378 376Q378 412 359 433T310 455Q265 455 233 414T182 270H277Z" />
<glyph unicode="&#xe9;" glyph-name="eacute" horiz-adv-x="435" d="M283 560L341 690H436L343 560H283ZM161 -10T120 24T78 144Q78 186 89 250Q106 349 136 405T210 486T319 510Q393 510 431 478T470 388Q470 376 466 350Q454 280 406 245T267 210H172Q165 170
165 148Q165 95 193 73T283 50H383L376 10Q351 2 316 -4T253 -10Q161 -10 120 24ZM277 270Q325 270 351 298T378 376Q378 412 359 433T310 455Q265 455 233 414T182 270H277Z" />
<glyph unicode="&#xea;" glyph-name="ecircumflex" horiz-adv-x="435" d="M196 550L294 680H389L441 550H381L332 624L256 550H196ZM161 -10T120 24T78 144Q78 186 89 250Q106 349 136 405T210 486T319 510Q393 510 431 478T470 388Q470 376 466 350Q454 280 406
245T267 210H172Q165 170 165 148Q165 95 193 73T283 50H383L376 10Q351 2 316 -4T253 -10Q161 -10 120 24ZM277 270Q325 270 351 298T378 376Q378 412 359 433T310 455Q265 455 233 414T182 270H277Z" />
<glyph unicode="&#xeb;" glyph-name="edieresis" horiz-adv-x="435" d="M195 570L214 680H304L285 570H195ZM355 570L374 680H464L445 570H355ZM161 -10T120 24T78 144Q78 186 89 250Q106 349 136 405T210 486T319 510Q393 510 431 478T470 388Q470 376 466 350Q454
280 406 245T267 210H172Q165 170 165 148Q165 95 193 73T283 50H383L376 10Q351 2 316 -4T253 -10Q161 -10 120 24ZM277 270Q325 270 351 298T378 376Q378 412 359 433T310 455Q265 455 233 414T182 270H277Z" />
<glyph unicode="&#xec;" glyph-name="igrave" horiz-adv-x="230" d="M183 560L136 690H231L243 560H183ZM70 0L158 500H248L160 0H70Z" />
<glyph unicode="&#xed;" glyph-name="iacute" horiz-adv-x="230" d="M183 560L241 690H336L243 560H183ZM70 0L158 500H248L160 0H70Z" />
<glyph unicode="&#xee;" glyph-name="icircumflex" horiz-adv-x="215" d="M81 550L179 680H274L326 550H266L217 624L141 550H81ZM63 0L151 500H241L153 0H63Z" />
<glyph unicode="&#xef;" glyph-name="idieresis" horiz-adv-x="230" d="M90 570L109 680H199L180 570H90ZM250 570L269 680H359L340 570H250ZM70 0L158 500H248L160 0H70Z" />
<glyph unicode="&#xf0;" glyph-name="eth" horiz-adv-x="455" d="M145 -10T107 24T69 134Q69 167 77 215Q99 336 151 388T292 440Q324 440 347 434T393 415Q397 438 397 463Q397 510 381 545L320 485L281 520L351 589Q300 643 193 670L205 710Q333 698 404 641L469
705L508 670L439 603Q482 543 482 451Q482 410 473 360L447 215Q426 94 373 42T223 -10Q145 -10 107 24ZM277 45T309 84T357 215L383 360Q372 368 353 374T312 380Q253 380 218 343T167 215Q160 174 160 142Q160 90 179 68T232 45Q277 45 309 84Z" />
<glyph unicode="&#xf1;" glyph-name="ntilde" horiz-adv-x="475" d="M264 565T249 580T234 629Q234 649 238 670H288Q286 656 286 652Q286 625 305 625Q316 625 338 647Q356 665 371 675T405 685Q436 685 451 670T466 620Q466 600 462 580H412Q414 592 414 597Q414
625 395 625Q384 625 362 603Q342 584 328 575T294 565Q264 565 249 580ZM153 500H228L227 470H232Q255 489 284 499T344 510Q410 510 443 487T477 406Q477 383 473 360L410 0H320L383 360Q385 369 385 385Q385 420 364 435T304 450Q286 450 265 444T230 430L155
0H65L153 500Z" />
<glyph unicode="&#xf2;" glyph-name="ograve" horiz-adv-x="470" d="M308 560L261 690H356L368 560H308ZM158 -10T121 26T83 147Q83 189 94 250Q119 391 174 450T324 510Q399 510 436 473T474 351Q474 306 464 250Q439 109 383 50T233 -10Q158 -10 121 26ZM284
45T319 92T374 250Q384 304 384 346Q384 455 315 455Q273 455 238 408T184 250Q174 194 174 153Q174 45 242 45Q284 45 319 92Z" />
<glyph unicode="&#xf3;" glyph-name="oacute" horiz-adv-x="470" d="M298 560L356 690H451L358 560H298ZM158 -10T121 26T83 147Q83 189 94 250Q119 391 174 450T324 510Q399 510 436 473T474 351Q474 306 464 250Q439 109 383 50T233 -10Q158 -10 121 26ZM284
45T319 92T374 250Q384 304 384 346Q384 455 315 455Q273 455 238 408T184 250Q174 194 174 153Q174 45 242 45Q284 45 319 92Z" />
<glyph unicode="&#xf4;" glyph-name="ocircumflex" horiz-adv-x="460" d="M204 550L302 680H397L449 550H389L340 624L264 550H204ZM153 -10T116 26T78 147Q78 189 89 250Q114 391 169 450T319 510Q394 510 431 473T469 351Q469 306 459 250Q434 109 378 50T228
-10Q153 -10 116 26ZM279 45T314 92T369 250Q379 304 379 346Q379 455 310 455Q268 455 233 408T179 250Q169 194 169 153Q169 45 237 45Q279 45 314 92Z" />
<glyph unicode="&#xf5;" glyph-name="otilde" horiz-adv-x="460" d="M153 -10T116 26T78 147Q78 189 89 250Q114 391 169 450T319 510Q394 510 431 473T469 351Q469 306 459 250Q434 109 378 50T228 -10Q153 -10 116 26ZM279 45T314 92T369 250Q379 304 379 346Q379
455 310 455Q268 455 233 408T179 250Q169 194 169 153Q169 45 237 45Q279 45 314 92ZM348 565T338 574T317 603Q312 614 307 619T295 625Q283 625 274 614T260 580H210Q222 636 246 660T313 685Q332 685 342 676T363 647Q368 636 373 631T385 625Q397 625 406
636T419 670H469Q458 614 434 590T367 565Q348 565 338 574Z" />
<glyph unicode="&#xf6;" glyph-name="odieresis" horiz-adv-x="470" d="M210 570L229 680H319L300 570H210ZM370 570L389 680H479L460 570H370ZM158 -10T121 26T83 147Q83 189 94 250Q119 391 174 450T324 510Q399 510 436 473T474 351Q474 306 464 250Q439 109
383 50T233 -10Q158 -10 121 26ZM284 45T319 92T374 250Q384 304 384 346Q384 455 315 455Q273 455 238 408T184 250Q174 194 174 153Q174 45 242 45Q284 45 319 92Z" />
<glyph unicode="&#xf7;" glyph-name="divide" horiz-adv-x="430" d="M248 415L264 505H344L328 415H248ZM75 260L89 340H459L445 260H75ZM191 95L207 185H287L271 95H191Z" />
<glyph unicode="&#xf8;" glyph-name="oslash" horiz-adv-x="480" d="M188 -10T156 5T106 55L68 20L40 60L91 107Q88 127 88 148Q88 189 99 250Q124 391 179 450T329 510Q429 510 461 445L499 480L527 440L476 393Q478 367 478 350Q478 307 469 250Q444 109 388
50T238 -10Q188 -10 156 5ZM386 377Q377 455 320 455Q278 455 243 408T189 250Q183 214 180 188L386 377ZM289 45T324 92T379 250Q384 281 386 311L180 123Q189 45 247 45Q289 45 324 92Z" />
<glyph unicode="&#xf9;" glyph-name="ugrave" horiz-adv-x="475" d="M313 560L266 690H361L373 560H313ZM152 -10T119 13T85 94Q85 117 89 140L153 500H243L179 140Q177 131 177 115Q177 80 198 65T258 50Q276 50 297 56T332 70L408 500H498L410 0H335V30H330Q308
11 278 1T218 -10Q152 -10 119 13Z" />
<glyph unicode="&#xfa;" glyph-name="uacute" horiz-adv-x="475" d="M303 560L361 690H456L363 560H303ZM152 -10T119 13T85 94Q85 117 89 140L153 500H243L179 140Q177 131 177 115Q177 80 198 65T258 50Q276 50 297 56T332 70L408 500H498L410 0H335V30H330Q308
11 278 1T218 -10Q152 -10 119 13Z" />
<glyph unicode="&#xfb;" glyph-name="ucircumflex" horiz-adv-x="475" d="M213 550L311 680H406L458 550H398L349 624L273 550H213ZM152 -10T119 13T85 94Q85 117 89 140L153 500H243L179 140Q177 131 177 115Q177 80 198 65T258 50Q276 50 297 56T332 70L408
500H498L410 0H335V30H330Q308 11 278 1T218 -10Q152 -10 119 13Z" />
<glyph unicode="&#xfc;" glyph-name="udieresis" horiz-adv-x="475" d="M215 570L234 680H324L305 570H215ZM375 570L394 680H484L465 570H375ZM152 -10T119 13T85 94Q85 117 89 140L153 500H243L179 140Q177 131 177 115Q177 80 198 65T258 50Q276 50 297 56T332
70L408 500H498L410 0H335V30H330Q308 11 278 1T218 -10Q152 -10 119 13Z" />
<glyph unicode="&#xfd;" glyph-name="yacute" horiz-adv-x="475" d="M303 560L361 690H456L363 560H303ZM144 -210T112 -204T56 -190L63 -150H163Q232 -150 269 -114T322 15Q269 -10 218 -10Q152 -10 119 13T85 94Q85 117 89 140L153 500H243L179 140Q177 131
177 115Q177 80 198 65T258 50Q276 50 297 56T332 70L408 500H498L417 40Q400 -55 370 -109T292 -186T172 -210Q144 -210 112 -204Z" />
<glyph unicode="&#xfe;" glyph-name="thorn" horiz-adv-x="470" d="M193 700H283L245 485Q272 497 296 503T349 510Q414 510 447 476T480 360Q480 318 469 250Q443 106 392 48T258 -10Q230 -10 208 -4T162 15L124 -200H34L193 700ZM291 50T324 93T379 250Q389
306 389 347Q389 404 369 427T309 450Q291 450 270 444T235 430L172 70Q182 62 201 56T238 50Q291 50 324 93Z" />
<glyph unicode="&#xff;" glyph-name="ydieresis" horiz-adv-x="475" d="M215 570L234 680H324L305 570H215ZM375 570L394 680H484L465 570H375ZM144 -210T112 -204T56 -190L63 -150H163Q232 -150 269 -114T322 15Q269 -10 218 -10Q152 -10 119 13T85 94Q85 117
89 140L153 500H243L179 140Q177 131 177 115Q177 80 198 65T258 50Q276 50 297 56T332 70L408 500H498L417 40Q400 -55 370 -109T292 -186T172 -210Q144 -210 112 -204Z" />
<glyph unicode="&#x2013;" glyph-name="endash" horiz-adv-x="460" d="M73 245L85 315H485L473 245H73Z" />
<glyph unicode="&#x2014;" glyph-name="emdash" horiz-adv-x="640" d="M73 245L85 315H665L653 245H73Z" />
<glyph unicode="&#x2018;" glyph-name="quoteleft" horiz-adv-x="170" d="M124 480L193 700H258L219 480H124Z" />
<glyph unicode="&#x2019;" glyph-name="quoteright" horiz-adv-x="170" d="M124 480L163 700H258L189 480H124Z" />
<glyph unicode="&#x201a;" glyph-name="quotesinglbase" horiz-adv-x="170" d="M19 -115L58 105H153L84 -115H19Z" />
<glyph unicode="&#x201c;" glyph-name="quotedblleft" horiz-adv-x="320" d="M119 480L188 700H253L214 480H119ZM269 480L338 700H403L364 480H269Z" />
<glyph unicode="&#x201d;" glyph-name="quotedblright" horiz-adv-x="320" d="M124 480L163 700H258L189 480H124ZM274 480L313 700H408L339 480H274Z" />
<glyph unicode="&#x201e;" glyph-name="quotedblbase" horiz-adv-x="320" d="M19 -115L58 105H153L84 -115H19ZM169 -115L208 105H303L234 -115H169Z" />
<glyph unicode="&#x2022;" glyph-name="bullet" horiz-adv-x="250" d="M92 270L120 429H280L252 270H92Z" />
<glyph unicode="&#x2039;" glyph-name="guilsinglleft" horiz-adv-x="295" d="M201 10L64 250L286 490L344 450L164 252L163 248L273 50L201 10Z" />
<glyph unicode="&#x203a;" glyph-name="guilsinglright" horiz-adv-x="295" d="M96 10L38 50L218 248L219 252L109 450L181 490L319 250L96 10Z" />
</font>
</defs>
</svg>
