<?xml version="1.0" standalone="no"?>
<!DOCTYPE svg PUBLIC "-//W3C//DTD SVG 1.1//EN" "http://www.w3.org/Graphics/SVG/1.1/DTD/svg11.dtd">
<svg xmlns="http://www.w3.org/2000/svg">
<defs >
<font id="FiraSansCondensed" horiz-adv-x="516" ><font-face
    font-family="Fira Sans Condensed Medium"
    units-per-em="1000"
    panose-1="2 11 6 3 5 0 0 2 0 4"
    ascent="935"
    descent="-265"
    alphabetic="0" />
<glyph unicode=" " glyph-name="space" horiz-adv-x="221" />
<glyph unicode="!" glyph-name="exclam" horiz-adv-x="229" d="M181 691L165 243H64L47 691H181ZM148 143T170 120T193 64Q193 32 171 9T114 -15Q81 -15 59 8T36 64Q36 97 58 120T114 143Q148 143 170 120Z" />
<glyph unicode="&quot;" glyph-name="quotedbl" horiz-adv-x="406" d="M65 421L50 691H165L149 421H65ZM257 421L242 691H357L341 421H257Z" />
<glyph unicode="#" glyph-name="numbersign" horiz-adv-x="491" d="M477 444H414L387 240H444V154H376L356 0H254L274 154H166L146 0H45L65 154H13V240H76L103 444H46V530H114L133 673H235L216 530H324L343 673H444L425 530H477V444ZM286 240L313 444H205L178 240H286Z" />
<glyph unicode="$" glyph-name="dollar" horiz-adv-x="490" d="M463 119T419 66T297 -4V-158H204V-10Q89 -2 11 80L75 150Q110 118 146 102T227 85Q277 85 305 112T334 186Q334 228 310 252T217 301Q121 335 79 381T36 500Q36 570 82 619T204 680V827H297V679Q381
667 446 602L385 533Q354 561 323 574T254 588Q212 588 188 567T163 508Q163 483 173 466T210 433T286 401Q376 368 419 323T463 193Q463 119 419 66Z" />
<glyph unicode="%" glyph-name="percent" horiz-adv-x="772" d="M557 715L635 668L217 -35L139 12L557 715ZM259 685T302 639T346 510Q346 429 303 383T190 336Q123 336 79 382T35 510Q35 592 79 638T190 685Q259 685 302 639ZM155 607T141 582T127 510Q127 465
141 439T190 413Q225 413 238 438T252 510Q252 556 239 581T190 607Q155 607 141 582ZM650 334T693 288T737 159Q737 78 694 32T582 -15Q514 -15 470 31T425 159Q425 241 469 287T582 334Q650 334 693 288ZM547 256T533 231T519 159Q519 114 533 89T582 63Q616
63 630 88T644 159Q644 205 630 230T582 256Q547 256 533 231Z" />
<glyph unicode="&amp;" glyph-name="ampersand" horiz-adv-x="678" d="M366 706T416 662T467 548Q467 490 435 447T343 363L479 216Q509 290 526 370L630 341Q597 230 548 149L655 43L555 -15L476 71Q393 -15 277 -15Q214 -15 165 9T89 76T62 176Q62 237 92 282T187
373Q138 423 118 460T98 545Q98 614 145 660T281 706Q366 706 416 662ZM252 621T235 602T218 545Q218 513 231 488T276 426Q313 456 330 482T347 545Q347 583 331 602T283 621Q252 621 235 602ZM223 278T208 249T192 181Q192 132 220 105T296 78Q363 78 413 134L256
305Q223 278 208 249Z" />
<glyph unicode="&apos;" glyph-name="quotesingle" horiz-adv-x="215" d="M65 421L50 691H165L149 421H65Z" />
<glyph unicode="(" glyph-name="parenleft" horiz-adv-x="296" d="M275 798Q208 691 179 594T149 350Q149 205 178 107T275 -98L195 -152Q139 -69 104 -3T46 151T23 350Q23 461 46 548T104 702T195 852L275 798Z" />
<glyph unicode=")" glyph-name="parenright" horiz-adv-x="296" d="M159 765T193 700T250 548T273 350Q273 239 251 152T194 0T101 -152L21 -98Q87 10 117 108T147 350Q147 494 117 592T21 798L101 852Q159 765 193 700Z" />
<glyph unicode="*" glyph-name="asterisk" horiz-adv-x="413" d="M397 548L266 521L361 411L270 350L206 477L143 350L53 410L147 520L16 548L50 646L170 588L152 741H261L243 587L363 647L397 548Z" />
<glyph unicode="+" glyph-name="plus" horiz-adv-x="470" d="M287 532V381H423V282H287V131H182V282H47V381H182V532H287Z" />
<glyph unicode="," glyph-name="comma" horiz-adv-x="223" d="M145 144T166 122T188 65Q188 48 183 29T163 -24L104 -171H31L70 -1Q53 10 44 27T35 65Q35 99 56 121T111 144Q145 144 166 122Z" />
<glyph unicode="-" glyph-name="hyphen" horiz-adv-x="371" d="M47 263V363H324V263H47Z" />
<glyph unicode="." glyph-name="period" horiz-adv-x="226" d="M146 143T168 120T191 64Q191 32 169 9T112 -15Q79 -15 57 8T35 64Q35 97 57 120T112 143Q146 143 168 120Z" />
<glyph unicode="/" glyph-name="slash" horiz-adv-x="468" d="M288 812L394 788L181 -108L74 -84L288 812Z" />
<glyph unicode="0" glyph-name="zero" horiz-adv-x="533" d="M376 685T432 597T488 336Q488 161 432 73T267 -15Q158 -15 102 73T45 336Q45 510 101 597T267 685Q376 685 432 597ZM234 590T214 567T184 488T174 336Q174 238 184 183T214 104T267 80Q300 80 320
103T350 182T360 336Q360 434 350 489T320 567T267 590Q234 590 214 567Z" />
<glyph unicode="1" glyph-name="one" horiz-adv-x="409" d="M326 673V0H203V547L70 457L15 539L215 673H326Z" />
<glyph unicode="2" glyph-name="two" horiz-adv-x="455" d="M270 685T315 661T385 594T409 499Q409 442 387 390T314 272T162 99H422L409 0H25V92Q136 218 187 283T259 395T280 491Q280 537 258 561T196 586Q163 586 138 570T82 518L7 576Q84 685 207 685Q270
685 315 661Z" />
<glyph unicode="3" glyph-name="three" horiz-adv-x="463" d="M271 685T315 662T383 600T407 514Q407 452 374 413T279 356Q346 348 386 307T427 192Q427 135 400 88T323 13T203 -15Q140 -15 91 9T1 82L72 145Q104 112 132 97T196 82Q243 82 271 112T299 197Q299
256 271 281T187 307H141L155 396H186Q232 396 259 423T287 500Q287 543 263 566T197 590Q133 590 79 534L15 599Q99 685 211 685Q271 685 315 662Z" />
<glyph unicode="4" glyph-name="four" horiz-adv-x="500" d="M479 251V155H408V0H288L287 155H28V241L203 686L309 647L155 251H288L302 421H408V251H479Z" />
<glyph unicode="5" glyph-name="five" horiz-adv-x="476" d="M401 580H175V410Q222 435 268 435Q346 435 394 378T442 219Q442 150 414 97T333 15T212 -15Q149 -15 102 9T16 79L87 144Q114 113 142 98T207 82Q258 82 286 117T314 219Q314 346 222 346Q202 346
184 341T144 322H57V673H416L401 580Z" />
<glyph unicode="6" glyph-name="six" horiz-adv-x="510" d="M357 447T396 422T457 348T480 229Q480 156 454 101T379 16T268 -15Q154 -15 100 70T45 311Q45 425 76 509T164 639T300 685Q376 685 434 642L388 566Q346 592 303 592Q246 592 212 536T173 374Q225
447 309 447Q357 447 396 422ZM355 299T335 328T276 358Q248 358 222 339T173 285Q175 173 196 126T268 78Q312 78 333 117T355 231Q355 299 335 328Z" />
<glyph unicode="7" glyph-name="seven" horiz-adv-x="415" d="M396 673V585L172 -13L60 24L269 576H15V673H396Z" />
<glyph unicode="8" glyph-name="eight" horiz-adv-x="515" d="M422 329T453 285T485 181Q485 124 457 80T377 10T255 -15Q186 -15 136 10T58 78T31 178Q31 239 61 280T152 349Q101 379 78 418T55 508Q55 563 81 603T154 664T257 685Q346 685 403 640T461 513Q461
465 436 428T355 361Q422 329 453 285ZM175 598T175 506Q175 465 195 442T261 399L278 392Q313 416 327 443T341 507Q341 552 320 575T258 598Q175 598 175 506ZM308 78T334 104T360 181Q360 228 337 254T253 305L227 316Q156 274 156 182Q156 130 182 104T258
78Q308 78 334 104Z" />
<glyph unicode="9" glyph-name="nine" horiz-adv-x="501" d="M352 685T408 616T464 423Q464 286 426 200T309 61T101 -25L75 64Q195 98 256 153T331 306Q281 239 203 239Q156 239 116 265T53 341T29 457Q29 528 57 579T135 658T246 685Q352 685 408 616ZM297 329T336
400Q337 507 317 550T246 593Q203 593 179 560T155 459Q155 392 177 361T238 329Q297 329 336 400Z" />
<glyph unicode=":" glyph-name="colon" horiz-adv-x="226" d="M146 143T168 120T191 64Q191 32 169 9T112 -15Q79 -15 57 8T35 64Q35 97 57 120T112 143Q146 143 168 120ZM146 499T168 476T191 420Q191 388 169 365T112 341Q79 341 57 364T35 420Q35 453 57 476T112
499Q146 499 168 476Z" />
<glyph unicode=";" glyph-name="semicolon" horiz-adv-x="226" d="M145 144T166 122T188 65Q188 48 183 29T163 -24L104 -171H31L70 -1Q53 10 44 27T35 65Q35 99 56 121T111 144Q145 144 166 122ZM146 499T168 476T191 420Q191 388 169 365T112 341Q79 341 57
364T35 420Q35 453 57 476T112 499Q146 499 168 476Z" />
<glyph unicode="&lt;" glyph-name="less" horiz-adv-x="462" d="M385 560L428 470L136 333L428 197L385 106L34 276V390L385 560Z" />
<glyph unicode="=" glyph-name="equal" horiz-adv-x="462" d="M47 383V481H415V383H47ZM47 437V535H415V437H47Z" />
<glyph unicode="&gt;" glyph-name="greater" horiz-adv-x="462" d="M77 560L428 390V276L77 106L34 197L326 333L34 470L77 560Z" />
<glyph unicode="?" glyph-name="question" horiz-adv-x="434" d="M284 706T327 684T391 625T413 545Q413 506 401 479T371 433T325 393Q288 365 270 341T251 278V243H135V283Q135 327 147 357T178 406T224 447Q255 470 270 489T285 538Q285 570 266 588T211 606Q150
606 98 542L20 603Q98 706 223 706Q284 706 327 684ZM229 143T251 120T273 64Q273 32 251 9T195 -15Q162 -15 140 8T117 64Q117 97 139 120T195 143Q229 143 251 120Z" />
<glyph unicode="@" glyph-name="at" horiz-adv-x="924" d="M559 497T629 454V202Q629 139 640 115T677 91Q758 91 758 310Q758 453 687 532T477 611Q380 611 310 565T204 435T167 241Q167 69 247 -26T477 -122Q523 -122 569 -113T653 -88L683 -176Q584 -217 476
-217Q348 -217 252 -162T104 -3T52 241Q52 375 106 480T257 646T477 706Q600 706 689 653T825 510T872 312Q872 225 849 156T782 46T681 6Q633 6 603 35T563 105Q546 63 514 36T434 9Q355 9 313 69T271 232Q271 359 325 428T476 497Q559 497 629 454ZM493 92T522
147V406Q497 416 474 416Q430 416 408 373T386 232Q386 156 401 124T450 92Q493 92 522 147Z" />
<glyph unicode="A" glyph-name="A" horiz-adv-x="535" d="M404 0L366 161H166L128 0H-3L189 691H347L538 0H404ZM188 259H344L266 592L188 259Z" />
<glyph unicode="B" glyph-name="B" horiz-adv-x="554" d="M444 352T485 314T526 199Q526 95 455 48T258 0H69V691H234Q362 691 430 648T499 515Q499 455 465 418T376 366Q444 352 485 314ZM199 596V406H258Q312 406 340 431T368 504Q368 553 339 574T246 596H199ZM324
97T358 121T392 204Q392 316 267 316H199V97H259Q324 97 358 121Z" />
<glyph unicode="C" glyph-name="C" horiz-adv-x="517" d="M371 706T414 688T500 634L436 559Q380 606 321 606Q253 606 214 545T175 347Q175 213 214 151T322 89Q358 89 385 102T445 142L507 68Q472 32 424 9T316 -15Q233 -15 171 25T74 147T39 347Q39 463 75
544T173 665T314 706Q371 706 414 688Z" />
<glyph unicode="D" glyph-name="D" horiz-adv-x="589" d="M324 691T393 664T506 562T550 349Q550 155 465 78T245 0H69V691H230Q324 691 393 664ZM199 594V97H254Q331 97 373 151T416 349Q416 449 395 503T338 575T251 594H199Z" />
<glyph unicode="E" glyph-name="E" horiz-adv-x="476" d="M438 691L424 595H199V399H396V304H199V97H440V0H69V691H438Z" />
<glyph unicode="F" glyph-name="F" horiz-adv-x="441" d="M69 0V691H428L415 595H199V385H387V289H199V0H69Z" />
<glyph unicode="G" glyph-name="G" horiz-adv-x="582" d="M391 706T439 686T531 625L464 556Q430 584 401 596T333 608Q261 608 218 547T174 346Q174 248 189 191T236 109T315 84Q367 84 410 110V294H320L307 390H535V53Q487 21 431 3T317 -15Q39 -15 39 346Q39
463 77 544T181 665T329 706Q391 706 439 686Z" />
<glyph unicode="H" glyph-name="H" horiz-adv-x="606" d="M407 0V310H199V0H69V691H199V413H407V691H537V0H407Z" />
<glyph unicode="I" glyph-name="I" horiz-adv-x="268" d="M199 691V0H69V691H199Z" />
<glyph unicode="J" glyph-name="J" horiz-adv-x="283" d="M218 101Q218 -9 169 -65T28 -153L-6 -61Q34 -43 54 -22T81 28T88 106V691H218V101Z" />
<glyph unicode="K" glyph-name="K" horiz-adv-x="561" d="M199 691V0H69V691H199ZM551 691L339 378L567 0H420L203 369L415 691H551Z" />
<glyph unicode="L" glyph-name="L" horiz-adv-x="456" d="M199 691V106H445L431 0H69V691H199Z" />
<glyph unicode="M" glyph-name="M" horiz-adv-x="717" d="M674 0H550L535 291Q527 459 527 530L528 572L419 75H298L183 573Q184 542 184 480Q184 375 180 287L166 0H43L91 691H256L361 205L459 691H626L674 0Z" />
<glyph unicode="N" glyph-name="N" horiz-adv-x="605" d="M536 0H370L168 563L171 536Q185 396 185 287V0H69V691H233L437 128Q431 167 426 232T420 363V691H536V0Z" />
<glyph unicode="O" glyph-name="O" horiz-adv-x="628" d="M444 706T517 615T590 346Q590 171 517 78T314 -15Q185 -15 112 77T39 345Q39 519 112 612T314 706Q444 706 517 615ZM245 607T210 546T175 345Q175 206 210 145T314 84Q385 84 419 144T454 346Q454 485
420 546T314 607Q245 607 210 546Z" />
<glyph unicode="P" glyph-name="P" horiz-adv-x="534" d="M377 691T445 636T514 471Q514 357 446 300T257 242H199V0H69V691H248Q377 691 445 636ZM316 339T348 368T380 471Q380 536 348 566T249 596H199V339H249Q316 339 348 368Z" />
<glyph unicode="Q" glyph-name="Q" horiz-adv-x="628" d="M499 41T542 25T626 -24L545 -125Q495 -67 442 -40T307 -12Q226 -12 166 28T72 149T39 345Q39 518 112 612T314 706Q444 706 517 614T590 346Q590 225 551 154T441 42Q499 41 542 25ZM175 206T210 145T314
84Q385 84 419 144T454 346Q454 486 420 546T314 607Q245 607 210 546T175 345Q175 206 210 145Z" />
<glyph unicode="R" glyph-name="R" horiz-adv-x="555" d="M270 278H199V0H69V691H251Q512 691 512 488Q512 422 481 375T388 302L549 0H406L270 278ZM258 371Q320 371 349 399T378 488Q378 544 348 570T250 596H199V371H258Z" />
<glyph unicode="S" glyph-name="S" horiz-adv-x="507" d="M321 706T370 685T462 621L400 550Q367 579 334 593T263 607Q221 607 196 585T170 524Q170 498 180 480T218 447T296 413Q389 379 434 332T480 197Q480 136 451 88T368 13T240 -15Q103 -15 11 79L77 152Q115
119 152 102T235 85Q286 85 315 113T345 190Q345 234 320 259T225 309Q125 344 81 392T37 515Q37 570 65 613T143 681T255 706Q321 706 370 685Z" />
<glyph unicode="T" glyph-name="T" horiz-adv-x="480" d="M477 691L463 589H304V0H175V589H9V691H477Z" />
<glyph unicode="U" glyph-name="U" horiz-adv-x="590" d="M531 208Q531 144 504 94T424 14T295 -15Q180 -15 120 46T59 208V691H189V214Q189 149 214 118T295 86Q349 86 375 118T401 214V691H531V208Z" />
<glyph unicode="V" glyph-name="V" horiz-adv-x="518" d="M521 691L340 0H183L-3 691H131L264 114L391 691H521Z" />
<glyph unicode="W" glyph-name="W" horiz-adv-x="762" d="M747 691L636 0H468L380 554L289 0H124L15 691H142L217 103L313 691H450L544 103L626 691H747Z" />
<glyph unicode="X" glyph-name="X" horiz-adv-x="512" d="M331 373L513 0H374L253 286L133 0H-2L176 368L13 691H152L255 449L362 691H496L331 373Z" />
<glyph unicode="Y" glyph-name="Y" horiz-adv-x="523" d="M526 691L326 262V0H196V261L-3 691H136L264 368L392 691H526Z" />
<glyph unicode="Z" glyph-name="Z" horiz-adv-x="481" d="M452 691V591L163 106H455L442 0H19V99L310 588H48V691H452Z" />
<glyph unicode="[" glyph-name="bracketleft" horiz-adv-x="292" d="M262 819V723H158V-24H262V-120H40V819H262Z" />
<glyph unicode="\" glyph-name="backslash" horiz-adv-x="468" d="M180 810L394 -84L287 -108L74 787L180 810Z" />
<glyph unicode="]" glyph-name="bracketright" horiz-adv-x="292" d="M252 819V-120H30V-24H135V723H30V819H252Z" />
<glyph unicode="^" glyph-name="asciicircum" horiz-adv-x="499" d="M306 842L476 527H352L248 743L148 527H23L193 842H306Z" />
<glyph unicode="_" glyph-name="underscore" horiz-adv-x="471" d="M12 -156V-55H459V-156H12Z" />
<glyph unicode="`" glyph-name="grave" horiz-adv-x="301" d="M84 815L274 693L239 630L33 720L84 815Z" />
<glyph unicode="a" glyph-name="a" horiz-adv-x="495" d="M428 105T436 92T462 70L436 -13Q393 -8 367 9T327 62Q278 -15 185 -15Q114 -15 72 30T30 148Q30 234 87 279T252 325H305V358Q305 408 285 429T220 450Q168 450 92 423L63 506Q154 544 240 544Q428 544
428 365V133Q428 105 436 92ZM274 76T305 141V251H265Q155 251 155 157Q155 117 172 97T219 76Q274 76 305 141Z" />
<glyph unicode="b" glyph-name="b" horiz-adv-x="539" d="M406 544T452 472T498 265Q498 181 475 118T410 20T310 -15Q233 -15 184 52L177 0H66V740L191 754V471Q214 505 248 524T322 544Q406 544 452 472ZM368 79T368 265Q368 369 346 409T283 449Q230 449 191
379V137Q207 110 229 95T276 79Q368 79 368 265Z" />
<glyph unicode="c" glyph-name="c" horiz-adv-x="433" d="M313 544T351 529T423 483L368 410Q323 446 274 446Q223 446 197 403T170 262Q170 166 196 126T274 86Q299 86 320 94T367 121L423 46Q354 -15 268 -15Q160 -15 99 56T38 260Q38 346 66 410T145 509T266
544Q313 544 351 529Z" />
<glyph unicode="d" glyph-name="d" horiz-adv-x="542" d="M476 741V0H365L358 64Q306 -15 223 -15Q135 -15 88 59T41 264Q41 347 65 410T132 509T233 544Q303 544 351 488V754L476 741ZM287 79T309 95T351 145V394Q332 422 312 436T265 450Q221 450 196 406T171
265Q171 166 193 123T258 79Q287 79 309 95Z" />
<glyph unicode="e" glyph-name="e" horiz-adv-x="501" d="M468 268T465 226H166Q172 146 200 113T278 80Q310 80 338 91T398 125L450 54Q371 -15 269 -15Q158 -15 98 58T38 261Q38 389 95 466T256 544Q356 544 412 475T468 277Q468 268 465 226ZM345 313Q345 385
324 420T257 456Q215 456 193 422T166 307H345V313Z" />
<glyph unicode="f" glyph-name="f" horiz-adv-x="318" d="M235 659T221 644T207 593V529H319L305 439H207V0H82V439H6V529H82V592Q82 665 126 709T254 754Q320 754 380 724L345 641Q306 659 268 659Q235 659 221 644Z" />
<glyph unicode="g" glyph-name="g" horiz-adv-x="486" d="M487 502Q441 483 350 483Q395 463 417 430T439 348Q439 268 386 219T243 170Q210 170 187 178Q178 171 173 161T167 138Q167 120 179 110T224 99H291Q375 99 424 57T473 -50Q473 -127 411 -172T232 -217Q109
-217 60 -176T10 -52H122Q122 -94 145 -112T233 -130Q296 -130 322 -112T348 -58Q348 7 265 7H209Q133 7 97 35T61 108Q61 136 76 161T118 204Q74 230 54 266T33 354Q33 440 88 491T235 543Q310 543 356 557T455 600L487 502ZM198 459T178 433T157 356Q157 306
178 279T237 251Q278 251 298 276T318 357Q318 459 237 459Q198 459 178 433Z" />
<glyph unicode="h" glyph-name="h" horiz-adv-x="525" d="M391 544T427 502T464 388V0H339V371Q339 413 326 430T286 448Q236 448 191 369V0H66V740L191 753V466Q219 505 252 524T329 544Q391 544 427 502Z" />
<glyph unicode="i" glyph-name="i" horiz-adv-x="257" d="M191 529V0H66V529H191ZM163 795T184 774T206 719Q206 686 185 665T129 643Q95 643 74 664T52 719Q52 752 73 773T129 795Q163 795 184 774Z" />
<glyph unicode="j" glyph-name="j" horiz-adv-x="257" d="M190 35Q190 -37 169 -84T109 -160T10 -217L-31 -126Q4 -108 24 -91T54 -45T65 30V529H190V35ZM162 795T183 774T205 719Q205 686 184 665T128 643Q94 643 73 664T51 719Q51 752 72 773T128 795Q162 795 183 774Z" />
<glyph unicode="k" glyph-name="k" horiz-adv-x="489" d="M191 754V0H66V741L191 754ZM480 529L324 296L494 0H356L196 289L354 529H480Z" />
<glyph unicode="l" glyph-name="l" horiz-adv-x="270" d="M126 -15T94 19T61 114V741L186 754V118Q186 86 213 86Q226 86 238 90L263 4Q230 -15 184 -15Q126 -15 94 19Z" />
<glyph unicode="m" glyph-name="m" horiz-adv-x="767" d="M635 544T670 502T705 388V0H581V372Q581 449 534 449Q509 449 488 430T447 372V0H324V372Q324 449 277 449Q251 449 230 429T190 372V0H66V529H175L184 461Q239 544 321 544Q362 544 392 521T436 455Q464
498 498 521T578 544Q635 544 670 502Z" />
<glyph unicode="n" glyph-name="n" horiz-adv-x="525" d="M392 544T428 502T464 388V0H339V371Q339 413 326 430T286 448Q259 448 236 428T191 369V0H66V529H175L184 460Q213 501 248 522T329 544Q392 544 428 502Z" />
<glyph unicode="o" glyph-name="o" horiz-adv-x="532" d="M373 544T433 472T493 265Q493 135 433 60T266 -15Q159 -15 99 58T38 265Q38 396 98 470T266 544Q373 544 433 472ZM217 449T193 406T169 265Q169 167 193 124T266 80Q315 80 339 124T363 265Q363 363
339 406T266 449Q217 449 193 406Z" />
<glyph unicode="p" glyph-name="p" horiz-adv-x="539" d="M411 544T454 472T498 266Q498 138 448 62T310 -15Q237 -15 191 42V-203L66 -217V529H176L182 465Q238 544 323 544Q411 544 454 472ZM320 81T344 124T368 265Q368 365 347 407T284 449Q230 449 191 380V134Q225
81 275 81Q320 81 344 124Z" />
<glyph unicode="q" glyph-name="q" horiz-adv-x="542" d="M476 529V-217L351 -203V57Q303 -15 223 -15Q135 -15 88 58T41 264Q41 347 65 410T132 509T234 544Q307 544 361 478L367 529H476ZM287 79T308 96T351 147V394Q332 421 312 435T265 450Q222 450 197 405T171
265Q171 164 193 122T258 79Q287 79 308 96Z" />
<glyph unicode="r" glyph-name="r" horiz-adv-x="359" d="M332 543T358 536L337 415Q316 421 295 421Q253 421 229 388T191 288V0H66V529H175L185 431Q204 486 236 514T311 543Q332 543 358 536Z" />
<glyph unicode="s" glyph-name="s" horiz-adv-x="433" d="M321 544T394 481L345 410Q286 452 228 452Q195 452 177 437T159 396Q159 377 167 365T197 342T260 316Q336 291 373 254T410 152Q410 74 352 30T204 -15Q145 -15 96 4T11 59L73 128Q135 78 200 78Q238
78 259 95T281 143Q281 166 273 180T242 206T175 232Q101 257 68 295T34 389Q34 433 57 468T123 524T222 544Q321 544 394 481Z" />
<glyph unicode="t" glyph-name="t" horiz-adv-x="342" d="M348 25Q322 5 291 -5T226 -15Q153 -15 115 27T76 144V439H5V529H76V646L201 661V529H312L299 439H201V145Q201 115 212 101T249 86Q276 86 304 103L348 25Z" />
<glyph unicode="u" glyph-name="u" horiz-adv-x="521" d="M455 0H347L340 70Q313 27 279 6T197 -15Q133 -15 98 27T62 140V529H187V151Q187 114 199 97T239 80Q291 80 330 152V529H455V0Z" />
<glyph unicode="v" glyph-name="v" horiz-adv-x="461" d="M459 529L306 0H158L2 529H133L233 100L334 529H459Z" />
<glyph unicode="w" glyph-name="w" horiz-adv-x="673" d="M661 529L560 0H405L337 416L268 0H116L12 529H135L198 93L276 529H404L477 93L543 529H661Z" />
<glyph unicode="x" glyph-name="x" horiz-adv-x="457" d="M302 283L461 0H323L225 212L130 0H-3L154 279L13 529H148L229 347L308 529H438L302 283Z" />
<glyph unicode="y" glyph-name="y" horiz-adv-x="465" d="M309 -2Q281 -99 220 -154T54 -218L41 -127Q109 -116 142 -88T196 0H151L2 529H131L232 83L337 529H463L309 -2Z" />
<glyph unicode="z" glyph-name="z" horiz-adv-x="408" d="M385 529V438L154 98H389L377 0H15V90L246 431H35V529H385Z" />
<glyph unicode="{" glyph-name="braceleft" horiz-adv-x="292" d="M263 748Q222 748 206 734T189 684V471Q189 414 169 388T103 349Q148 337 169 312T190 229V16Q190 -20 206 -34T263 -48V-138Q190 -138 149 -121T91 -71T74 18V222Q74 264 62 281T14 298V401Q48
401 61 418T74 478V682Q74 737 91 770T149 821T263 838V748Z" />
<glyph unicode="|" glyph-name="bar" horiz-adv-x="345" d="M231 809V-104H115V809H231Z" />
<glyph unicode="}" glyph-name="braceright" horiz-adv-x="292" d="M101 838T142 821T200 771T217 682V478Q217 436 230 419T277 401V298Q243 298 230 281T217 222V18Q217 -37 200 -70T142 -121T28 -138V-48Q69 -48 85 -34T102 16V229Q102 286 122 311T189 349Q143
363 123 388T102 471V684Q102 720 86 734T29 748L28 838Q101 838 142 821Z" />
<glyph unicode="~" glyph-name="asciitilde" horiz-adv-x="459" d="M274 243T253 252T206 279Q186 291 176 296T152 302Q131 302 118 289T88 251L21 285Q45 334 77 364T158 395Q185 395 206 386T252 361Q271 349 283 343T308 337Q328 337 341 349T371 384L437
349Q386 243 303 243Q274 243 253 252Z" />
<glyph unicode="&#xa0;" glyph-name="uni00A0" horiz-adv-x="221" />
<glyph unicode="&#xa1;" glyph-name="exclamdown" horiz-adv-x="229" d="M148 502T170 479T193 423Q193 390 171 367T115 344Q81 344 59 367T36 423Q36 455 58 478T115 502Q148 502 170 479ZM165 243L182 -206H49L65 243H165Z" />
<glyph unicode="&#xa2;" glyph-name="cent" horiz-adv-x="433" d="M423 46Q370 -1 306 -12V-158H213V-10Q130 8 84 77T38 260Q38 373 85 446T214 538V688H306V541Q371 531 423 483L368 410Q323 446 274 446Q223 446 197 403T170 262Q170 166 196 126T274 86Q299
86 320 94T367 121L423 46Z" />
<glyph unicode="&#xa3;" glyph-name="sterling" horiz-adv-x="482" d="M226 174T213 147T163 98H448L434 0H28V93Q61 105 77 120T98 157T103 218V316H42V387H103V493Q103 578 152 631T289 685Q345 685 388 663T465 594L389 537Q368 564 348 576T301 589Q226 589
226 494V387H398V316H226V222Q226 174 213 147Z" />
<glyph unicode="&#xa4;" glyph-name="currency" horiz-adv-x="504" d="M426 83L358 159Q311 129 251 129Q191 129 146 160L76 83L16 141L89 221Q58 272 58 341Q58 408 88 460L14 543L78 600L147 523Q193 553 251 553Q312 553 359 523L428 600L489 543L416 462Q447
411 447 341Q447 273 417 221L490 140L426 83ZM346 217T346 342Q346 467 252 467Q158 467 158 342Q158 217 252 217Q346 217 346 342Z" />
<glyph unicode="&#xa5;" glyph-name="yen" horiz-adv-x="503" d="M506 673L341 349H435V277H314V196H435V125H314V0H189V125H69V196H189V277H69V349H162L-3 673H127L254 384L380 673H506Z" />
<glyph unicode="&#xa6;" glyph-name="brokenbar" horiz-adv-x="345" d="M231 809V443H115V809H231ZM231 262V-104H115V262H231Z" />
<glyph unicode="&#xa7;" glyph-name="section" horiz-adv-x="491" d="M394 157T406 133T418 76Q418 7 366 -35T228 -77Q129 -77 59 -25L103 50Q158 13 222 13Q258 13 278 28T299 70Q299 90 291 102T260 127T190 156Q118 182 85 214T52 304Q52 342 71 373T125 427Q99
447 87 472T75 531Q75 599 126 641T260 683Q357 683 428 628L384 557Q326 594 268 594Q232 594 213 579T193 537Q193 517 201 504T231 478T301 448Q372 422 405 390T439 302Q439 227 367 177Q394 157 406 133ZM277 226T301 215Q329 250 329 284Q329 314 310 331T237
370Q200 384 188 390Q163 359 163 323Q163 291 179 274T242 239Q277 226 301 215Z" />
<glyph unicode="&#xa8;" glyph-name="dieresis" horiz-adv-x="397" d="M129 783T148 764T167 716Q167 687 148 668T100 648Q71 648 52 667T33 716Q33 744 52 763T100 783Q129 783 148 764ZM332 783T351 764T370 716Q370 687 351 668T303 648Q274 648 255 667T235
716Q235 744 255 763T303 783Q332 783 351 764Z" />
<glyph unicode="&#xa9;" glyph-name="copyright" horiz-adv-x="729" d="M448 757T515 717T622 602T662 433Q662 338 623 265T516 151T365 110Q283 110 215 150T107 264T67 433Q67 528 106 602T214 716T365 757Q448 757 515 717ZM301 691T251 660T171 570T142 433Q142
356 171 298T250 209T365 177Q429 177 479 208T559 298T588 433Q588 511 559 569T480 659T365 691Q301 691 251 660ZM431 627T481 582L442 530Q424 543 409 548T375 554Q343 554 324 526T304 434Q304 316 376 316Q396 316 412 323T447 344L484 290Q434 240 368
240Q297 240 255 290T213 434Q213 525 256 576T369 627Q431 627 481 582Z" />
<glyph unicode="&#xaa;" glyph-name="ordfeminine" horiz-adv-x="455" d="M265 527V548Q265 581 251 594T201 607Q162 607 101 586L74 662Q146 691 219 691Q376 691 376 556V389Q376 370 382 361T402 346L379 269Q311 275 286 324Q267 295 238 281T174 267Q116
267 82 302T47 392Q47 457 93 492T225 527H265ZM244 350T265 388V462H234Q196 462 179 448T162 401Q162 350 206 350Q244 350 265 388ZM51 99H413V1H51V99Z" />
<glyph unicode="&#xab;" glyph-name="guillemotleft" horiz-adv-x="563" d="M209 545L285 495L164 286L285 77L209 26L42 245V326L209 545ZM445 545L521 495L400 286L521 77L445 26L278 245V326L445 545Z" />
<glyph unicode="&#xac;" glyph-name="logicalnot" horiz-adv-x="470" d="M423 374V128H318V277H47V374H423Z" />
<glyph unicode="&#xad;" glyph-name="uni00AD" horiz-adv-x="371" d="M47 263V363H324V263H47Z" />
<glyph unicode="&#xae;" glyph-name="registered" horiz-adv-x="575" d="M356 754T411 720T497 626T529 489Q529 413 498 353T411 259T287 225Q219 225 164 258T78 352T46 488Q46 565 77 625T164 720T287 754Q356 754 411 720ZM367 283T416 339T465 489Q465 552
443 598T380 670T287 696Q236 696 196 671T133 598T110 488Q110 426 132 380T195 308T287 283Q367 283 416 339ZM388 521T373 502T334 472L400 355H331L279 460H257V355H197V634H271Q388 634 388 548Q388 521 373 502ZM257 511H284Q303 511 314 520T326 549Q326
586 283 586H257V511Z" />
<glyph unicode="&#xaf;" glyph-name="overscore" horiz-adv-x="326" d="M299 662H33V750H299V662Z" />
<glyph unicode="&#xb0;" glyph-name="degree" horiz-adv-x="469" d="M156 376T120 395T62 452T40 541Q40 593 62 630T120 686T196 706Q237 706 273 687T331 631T353 541Q353 489 331 452T273 395T196 376Q156 376 120 395ZM227 452T245 474T264 541Q264 585 246
607T196 630Q166 630 148 608T129 541Q129 497 147 475T196 452Q227 452 245 474Z" />
<glyph unicode="&#xb1;" glyph-name="plusminus" horiz-adv-x="470" d="M51 0V98H419V0H51ZM287 582V431H423V332H287V181H182V332H47V431H182V582H287Z" />
<glyph unicode="&#xb2;" glyph-name="uni00B2" horiz-adv-x="362" d="M240 748T277 713T314 626Q314 593 301 563T254 495T156 396H322L312 321H52V391Q123 464 156 502T202 566T216 620Q216 645 203 659T166 674Q145 674 128 664T93 632L38 676Q92 748 177 748Q240
748 277 713Z" />
<glyph unicode="&#xb3;" glyph-name="uni00B3" horiz-adv-x="362" d="M242 749T277 718T312 639Q312 564 227 543Q272 539 299 514T326 441Q326 385 285 348T172 310Q87 310 34 374L86 423Q106 403 125 394T166 384Q194 384 210 401T227 447Q227 478 211 492T161
506H130L141 573H162Q189 573 204 587T219 627Q219 651 205 664T167 678Q129 678 89 643L43 692Q99 749 178 749Q242 749 277 718Z" />
<glyph unicode="&#xb4;" glyph-name="acute" horiz-adv-x="301" d="M223 815L274 720L68 630L33 693L223 815Z" />
<glyph unicode="&#xb5;" glyph-name="uni00B5" horiz-adv-x="528" d="M364 -15Q355 7 351 29T342 76Q323 37 296 14T235 -10Q209 -10 190 1T155 37Q171 4 178 -27T185 -106V-204L66 -217V529H191V158Q191 86 244 86Q297 86 332 165V529H457V181Q457 77 479 0L364 -15Z" />
<glyph unicode="&#xb6;" glyph-name="paragraph" horiz-adv-x="695" d="M585 691V-203L476 -219V600H386V-203L277 -219V273Q173 277 119 333T65 482Q65 581 126 636T300 691H585Z" />
<glyph unicode="&#xb7;" glyph-name="middot" horiz-adv-x="226" d="M146 387T168 364T191 308Q191 276 169 253T112 229Q79 229 57 252T35 308Q35 341 57 364T112 387Q146 387 168 364Z" />
<glyph unicode="&#xb8;" glyph-name="cedilla" horiz-adv-x="283" d="M165 -54Q210 -60 233 -83T256 -145Q256 -194 221 -222T129 -251Q72 -251 33 -224L63 -165Q95 -179 120 -179Q140 -179 151 -171T163 -145Q163 -125 144 -116T81 -106L95 16H165V-54Z" />
<glyph unicode="&#xb9;" glyph-name="uni00B9" horiz-adv-x="362" d="M263 740V321H169V647L85 592L42 654L177 740H263Z" />
<glyph unicode="&#xba;" glyph-name="ordmasculine" horiz-adv-x="454" d="M316 691T365 637T414 479Q414 380 365 324T228 267Q140 267 90 322T40 480Q40 579 90 635T227 691Q316 691 365 637ZM192 607T175 578T157 480Q157 410 174 381T228 352Q264 352 281
381T298 479Q298 550 281 578T228 607Q192 607 175 578ZM43 0V98H411V0H43Z" />
<glyph unicode="&#xbb;" glyph-name="guillemotright" horiz-adv-x="561" d="M119 545L285 326V245L119 26L42 77L163 286L42 495L119 545ZM353 545L519 326V245L353 26L276 77L397 286L276 495L353 545Z" />
<glyph unicode="&#xbc;" glyph-name="onequarter" horiz-adv-x="866" d="M263 691V272H169V598L85 543L42 605L177 691H263ZM580 755L655 720L287 -82L212 -47L580 755ZM838 162V90H794V0H704L703 90H532V156L642 428L723 397L628 162H704L720 263H794V162H838Z" />
<glyph unicode="&#xbd;" glyph-name="onehalf" horiz-adv-x="866" d="M263 691V272H169V598L85 543L42 605L177 691H263ZM580 755L655 720L287 -82L212 -47L580 755ZM744 427T781 392T818 305Q818 272 805 242T758 174T660 75H826L816 0H556V70Q627 143 660 181T706
245T720 299Q720 324 707 338T670 353Q649 353 632 343T597 311L542 355Q596 427 681 427Q744 427 781 392Z" />
<glyph unicode="&#xbe;" glyph-name="threequarters" horiz-adv-x="866" d="M242 700T277 669T312 590Q312 515 227 494Q272 490 299 465T326 392Q326 336 285 299T172 261Q87 261 34 325L86 374Q106 354 125 345T166 335Q194 335 210 352T227 398Q227 429 211
443T161 457H130L141 524H162Q189 524 204 538T219 578Q219 602 205 615T167 629Q129 629 89 594L43 643Q99 700 178 700Q242 700 277 669ZM580 755L655 720L287 -82L212 -47L580 755ZM838 162V90H794V0H704L703 90H532V156L642 428L723 397L628 162H704L720 263H794V162H838Z"
/>
<glyph unicode="&#xbf;" glyph-name="questiondown" horiz-adv-x="434" d="M205 343T183 366T160 422Q160 455 182 478T239 501Q272 501 294 478T316 422Q316 390 294 367T239 343Q205 343 183 366ZM150 -219T107 -197T42 -138T20 -58Q20 -19 32 8T62 54T109 94Q146
122 164 146T183 209V241H298V203Q298 159 286 129T256 81T210 42Q179 18 164 -1T149 -51Q149 -84 168 -102T223 -120Q282 -120 336 -56L413 -117Q334 -219 211 -219Q150 -219 107 -197Z" />
<glyph unicode="&#xc0;" glyph-name="Agrave" horiz-adv-x="535" d="M404 0L366 161H166L128 0H-3L189 691H347L538 0H404ZM188 259H344L266 592L188 259ZM192 932L384 817L352 753L143 835L192 932Z" />
<glyph unicode="&#xc1;" glyph-name="Aacute" horiz-adv-x="535" d="M404 0L366 161H166L128 0H-3L189 691H347L538 0H404ZM188 259H344L266 592L188 259ZM339 932L388 836L179 753L147 817L339 932Z" />
<glyph unicode="&#xc2;" glyph-name="Acircumflex" horiz-adv-x="535" d="M404 0L366 161H166L128 0H-3L189 691H347L538 0H404ZM188 259H344L266 592L188 259ZM149 759L103 810L229 931H306L432 810L385 759L267 841L149 759Z" />
<glyph unicode="&#xc3;" glyph-name="Atilde" horiz-adv-x="535" d="M404 0L366 161H166L128 0H-3L189 691H347L538 0H404ZM188 259H344L266 592L188 259ZM303 774T290 780T256 800Q233 818 217 818Q202 818 192 808T169 774L105 805Q123 851 151 878T215 906Q234
906 248 899T281 880Q283 878 291 873T307 865T321 862Q335 862 345 872T368 905L432 874Q415 826 387 800T322 774Q303 774 290 780Z" />
<glyph unicode="&#xc4;" glyph-name="Adieresis" horiz-adv-x="535" d="M404 0L366 161H166L128 0H-3L189 691H347L538 0H404ZM188 259H344L266 592L188 259ZM198 909T217 890T236 842Q236 813 217 794T169 774Q140 774 121 793T102 842Q102 870 121 889T169 909Q198
909 217 890ZM401 909T420 890T439 842Q439 813 420 794T372 774Q343 774 324 793T304 842Q304 870 324 889T372 909Q401 909 420 890Z" />
<glyph unicode="&#xc5;" glyph-name="Aring" horiz-adv-x="535" d="M404 0L366 161H166L128 0H-3L189 691H347L538 0H404ZM188 259H344L266 592L188 259ZM322 977T354 944T387 859Q387 807 355 774T268 740Q215 740 183 773T150 859Q150 911 182 944T268 977Q322
977 354 944ZM225 913T225 859Q225 805 268 805Q288 805 300 818T312 859Q312 913 268 913Q225 913 225 859Z" />
<glyph unicode="&#xc6;" glyph-name="AE" horiz-adv-x="753" d="M512 97H719V0H404L377 161H169L119 0H-17L228 691H684L670 595H417L455 398H676V302H473L512 97ZM199 258H360L303 594L199 258Z" />
<glyph unicode="&#xc7;" glyph-name="Ccedilla" horiz-adv-x="517" d="M440 -2T347 -13V-54Q392 -60 415 -83T438 -145Q438 -194 403 -222T311 -251Q254 -251 215 -224L245 -165Q277 -179 302 -179Q322 -179 333 -171T345 -145Q345 -125 326 -116T263 -106L274
-12Q165 3 102 94T39 347Q39 463 75 544T173 665T314 706Q371 706 414 688T500 634L436 559Q380 606 321 606Q253 606 214 545T175 347Q175 213 214 151T322 89Q358 89 385 102T445 142L507 68Q440 -2 347 -13Z" />
<glyph unicode="&#xc8;" glyph-name="Egrave" horiz-adv-x="476" d="M438 691L424 595H199V399H396V304H199V97H440V0H69V691H438ZM179 932L371 817L339 753L130 835L179 932Z" />
<glyph unicode="&#xc9;" glyph-name="Eacute" horiz-adv-x="476" d="M438 691L424 595H199V399H396V304H199V97H440V0H69V691H438ZM326 932L375 836L166 753L134 817L326 932Z" />
<glyph unicode="&#xca;" glyph-name="Ecircumflex" horiz-adv-x="476" d="M438 691L424 595H199V399H396V304H199V97H440V0H69V691H438ZM136 759L90 810L216 931H293L419 810L372 759L254 841L136 759Z" />
<glyph unicode="&#xcb;" glyph-name="Edieresis" horiz-adv-x="476" d="M438 691L424 595H199V399H396V304H199V97H440V0H69V691H438ZM185 909T204 890T223 842Q223 813 204 794T156 774Q127 774 108 793T89 842Q89 870 108 889T156 909Q185 909 204 890ZM388
909T407 890T426 842Q426 813 407 794T359 774Q330 774 311 793T291 842Q291 870 311 889T359 909Q388 909 407 890Z" />
<glyph unicode="&#xcc;" glyph-name="Igrave" horiz-adv-x="268" d="M199 691V0H69V691H199ZM57 932L249 817L217 753L8 835L57 932Z" />
<glyph unicode="&#xcd;" glyph-name="Iacute" horiz-adv-x="268" d="M199 691V0H69V691H199ZM204 932L253 836L44 753L12 817L204 932Z" />
<glyph unicode="&#xce;" glyph-name="Icircumflex" horiz-adv-x="268" d="M199 691V0H69V691H199ZM14 759L-32 810L94 931H171L297 810L250 759L132 841L14 759Z" />
<glyph unicode="&#xcf;" glyph-name="Idieresis" horiz-adv-x="268" d="M199 691V0H69V691H199ZM63 909T82 890T101 842Q101 813 82 794T34 774Q5 774 -14 793T-33 842Q-33 870 -14 889T34 909Q63 909 82 890ZM266 909T285 890T304 842Q304 813 285 794T237 774Q208
774 189 793T169 842Q169 870 189 889T237 909Q266 909 285 890Z" />
<glyph unicode="&#xd0;" glyph-name="Eth" horiz-adv-x="604" d="M339 691T408 664T521 562T565 349Q565 155 480 78T260 0H84V311H17V395H84V691H245Q339 691 408 664ZM346 97T388 151T431 349Q431 449 410 503T353 575T266 594H214V395H332V311H214V97H269Q346
97 388 151Z" />
<glyph unicode="&#xd1;" glyph-name="Ntilde" horiz-adv-x="605" d="M536 0H370L168 563L171 536Q185 396 185 287V0H69V691H233L437 128Q431 167 426 232T420 363V691H536V0ZM343 774T330 780T296 800Q273 818 257 818Q242 818 232 808T209 774L145 805Q163 851
191 878T255 906Q274 906 288 899T321 880Q323 878 331 873T347 865T361 862Q375 862 385 872T408 905L472 874Q455 826 427 800T362 774Q343 774 330 780Z" />
<glyph unicode="&#xd2;" glyph-name="Ograve" horiz-adv-x="628" d="M444 706T517 615T590 346Q590 171 517 78T314 -15Q185 -15 112 77T39 345Q39 519 112 612T314 706Q444 706 517 615ZM245 607T210 546T175 345Q175 206 210 145T314 84Q385 84 419 144T454
346Q454 485 420 546T314 607Q245 607 210 546ZM238 932L430 817L398 753L189 835L238 932Z" />
<glyph unicode="&#xd3;" glyph-name="Oacute" horiz-adv-x="628" d="M444 706T517 615T590 346Q590 171 517 78T314 -15Q185 -15 112 77T39 345Q39 519 112 612T314 706Q444 706 517 615ZM245 607T210 546T175 345Q175 206 210 145T314 84Q385 84 419 144T454
346Q454 485 420 546T314 607Q245 607 210 546ZM385 932L434 836L225 753L193 817L385 932Z" />
<glyph unicode="&#xd4;" glyph-name="Ocircumflex" horiz-adv-x="628" d="M444 706T517 615T590 346Q590 171 517 78T314 -15Q185 -15 112 77T39 345Q39 519 112 612T314 706Q444 706 517 615ZM245 607T210 546T175 345Q175 206 210 145T314 84Q385 84 419 144T454
346Q454 485 420 546T314 607Q245 607 210 546ZM195 759L149 810L275 931H352L478 810L431 759L313 841L195 759Z" />
<glyph unicode="&#xd5;" glyph-name="Otilde" horiz-adv-x="628" d="M444 706T517 615T590 346Q590 171 517 78T314 -15Q185 -15 112 77T39 345Q39 519 112 612T314 706Q444 706 517 615ZM245 607T210 546T175 345Q175 206 210 145T314 84Q385 84 419 144T454
346Q454 485 420 546T314 607Q245 607 210 546ZM349 774T336 780T302 800Q279 818 263 818Q248 818 238 808T215 774L151 805Q169 851 197 878T261 906Q280 906 294 899T327 880Q329 878 337 873T353 865T367 862Q381 862 391 872T414 905L478 874Q461 826 433
800T368 774Q349 774 336 780Z" />
<glyph unicode="&#xd6;" glyph-name="Odieresis" horiz-adv-x="628" d="M444 706T517 615T590 346Q590 171 517 78T314 -15Q185 -15 112 77T39 345Q39 519 112 612T314 706Q444 706 517 615ZM245 607T210 546T175 345Q175 206 210 145T314 84Q385 84 419 144T454
346Q454 485 420 546T314 607Q245 607 210 546ZM244 909T263 890T282 842Q282 813 263 794T215 774Q186 774 167 793T148 842Q148 870 167 889T215 909Q244 909 263 890ZM447 909T466 890T485 842Q485 813 466 794T418 774Q389 774 370 793T350 842Q350 870 370
889T418 909Q447 909 466 890Z" />
<glyph unicode="&#xd7;" glyph-name="multiply" horiz-adv-x="462" d="M338 498L411 433L300 308L411 181L338 116L232 241L124 116L50 181L161 306L50 433L124 498L230 372L338 498Z" />
<glyph unicode="&#xd8;" glyph-name="Oslash" horiz-adv-x="628" d="M521 628T555 547T590 346Q590 171 517 78T314 -15Q286 -15 266 -11L234 -131L135 -104L171 23Q107 64 73 145T39 345Q39 519 112 612T314 706Q339 706 362 703L395 823L494 797L457 668Q521
628 555 547ZM243 608T208 547T172 345Q172 257 184 203T221 120L347 605Q332 608 314 608Q243 608 208 547ZM456 515T408 571L281 86Q298 83 314 83Q388 83 422 145T456 356Q456 515 408 571Z" />
<glyph unicode="&#xd9;" glyph-name="Ugrave" horiz-adv-x="590" d="M531 208Q531 144 504 94T424 14T295 -15Q180 -15 120 46T59 208V691H189V214Q189 149 214 118T295 86Q349 86 375 118T401 214V691H531V208ZM219 932L411 817L379 753L170 835L219 932Z" />
<glyph unicode="&#xda;" glyph-name="Uacute" horiz-adv-x="590" d="M531 208Q531 144 504 94T424 14T295 -15Q180 -15 120 46T59 208V691H189V214Q189 149 214 118T295 86Q349 86 375 118T401 214V691H531V208ZM366 932L415 836L206 753L174 817L366 932Z" />
<glyph unicode="&#xdb;" glyph-name="Ucircumflex" horiz-adv-x="590" d="M531 208Q531 144 504 94T424 14T295 -15Q180 -15 120 46T59 208V691H189V214Q189 149 214 118T295 86Q349 86 375 118T401 214V691H531V208ZM176 759L130 810L256 931H333L459 810L412
759L294 841L176 759Z" />
<glyph unicode="&#xdc;" glyph-name="Udieresis" horiz-adv-x="590" d="M531 208Q531 144 504 94T424 14T295 -15Q180 -15 120 46T59 208V691H189V214Q189 149 214 118T295 86Q349 86 375 118T401 214V691H531V208ZM225 909T244 890T263 842Q263 813 244 794T196
774Q167 774 148 793T129 842Q129 870 148 889T196 909Q225 909 244 890ZM428 909T447 890T466 842Q466 813 447 794T399 774Q370 774 351 793T331 842Q331 870 351 889T399 909Q428 909 447 890Z" />
<glyph unicode="&#xdd;" glyph-name="Yacute" horiz-adv-x="523" d="M526 691L326 262V0H196V261L-3 691H136L264 368L392 691H526ZM332 932L381 836L172 753L140 817L332 932Z" />
<glyph unicode="&#xde;" glyph-name="Thorn" horiz-adv-x="534" d="M378 578T446 522T514 355Q514 237 447 179T260 121H199V0H69V691H199V578H252Q378 578 446 522ZM316 217T348 248T381 355Q381 422 348 452T250 483H199V217H250Q316 217 348 248Z" />
<glyph unicode="&#xdf;" glyph-name="germandbls" horiz-adv-x="544" d="M325 754T365 735T427 683T448 610Q448 572 434 548T394 495Q375 474 367 461T358 429Q358 408 372 392T416 351Q449 324 470 302T506 246T522 164Q522 110 499 69T435 7T347 -15Q288 -15
245 10L282 94Q304 83 330 83Q360 83 377 104T395 165Q395 205 377 231T321 290Q285 321 267 347T248 413Q248 444 259 464T291 508Q311 530 321 549T332 597Q332 628 314 645T267 663Q230 663 211 636T191 555V0H66V551Q66 644 119 699T269 754Q325 754 365 735Z"
/>
<glyph unicode="&#xe0;" glyph-name="agrave" horiz-adv-x="495" d="M428 105T436 92T462 70L436 -13Q393 -8 367 9T327 62Q278 -15 185 -15Q114 -15 72 30T30 148Q30 234 87 279T252 325H305V358Q305 408 285 429T220 450Q168 450 92 423L63 506Q154 544 240
544Q428 544 428 365V133Q428 105 436 92ZM274 76T305 141V251H265Q155 251 155 157Q155 117 172 97T219 76Q274 76 305 141ZM180 815L370 693L335 630L129 720L180 815Z" />
<glyph unicode="&#xe1;" glyph-name="aacute" horiz-adv-x="495" d="M428 105T436 92T462 70L436 -13Q393 -8 367 9T327 62Q278 -15 185 -15Q114 -15 72 30T30 148Q30 234 87 279T252 325H305V358Q305 408 285 429T220 450Q168 450 92 423L63 506Q154 544 240
544Q428 544 428 365V133Q428 105 436 92ZM274 76T305 141V251H265Q155 251 155 157Q155 117 172 97T219 76Q274 76 305 141ZM306 815L357 720L151 630L116 693L306 815Z" />
<glyph unicode="&#xe2;" glyph-name="acircumflex" horiz-adv-x="495" d="M428 105T436 92T462 70L436 -13Q393 -8 367 9T327 62Q278 -15 185 -15Q114 -15 72 30T30 148Q30 234 87 279T252 325H305V358Q305 408 285 429T220 450Q168 450 92 423L63 506Q154 544
240 544Q428 544 428 365V133Q428 105 436 92ZM274 76T305 141V251H265Q155 251 155 157Q155 117 172 97T219 76Q274 76 305 141ZM123 629L77 680L203 807H280L406 680L359 629L241 717L123 629Z" />
<glyph unicode="&#xe3;" glyph-name="atilde" horiz-adv-x="495" d="M428 105T436 92T462 70L436 -13Q393 -8 367 9T327 62Q278 -15 185 -15Q114 -15 72 30T30 148Q30 234 87 279T252 325H305V358Q305 408 285 429T220 450Q168 450 92 423L63 506Q154 544 240
544Q428 544 428 365V133Q428 105 436 92ZM274 76T305 141V251H265Q155 251 155 157Q155 117 172 97T219 76Q274 76 305 141ZM275 648T262 654T228 674Q205 692 189 692Q174 692 164 682T141 648L77 679Q95 725 123 752T187 780Q206 780 220 773T253 754Q255 752
263 747T279 739T293 736Q307 736 317 746T340 779L404 748Q387 700 359 674T294 648Q275 648 262 654Z" />
<glyph unicode="&#xe4;" glyph-name="adieresis" horiz-adv-x="495" d="M428 105T436 92T462 70L436 -13Q393 -8 367 9T327 62Q278 -15 185 -15Q114 -15 72 30T30 148Q30 234 87 279T252 325H305V358Q305 408 285 429T220 450Q168 450 92 423L63 506Q154 544 240
544Q428 544 428 365V133Q428 105 436 92ZM274 76T305 141V251H265Q155 251 155 157Q155 117 172 97T219 76Q274 76 305 141ZM168 783T187 764T206 716Q206 687 187 668T139 648Q110 648 91 667T72 716Q72 744 91 763T139 783Q168 783 187 764ZM371 783T390 764T409
716Q409 687 390 668T342 648Q313 648 294 667T274 716Q274 744 294 763T342 783Q371 783 390 764Z" />
<glyph unicode="&#xe5;" glyph-name="aring" horiz-adv-x="495" d="M428 105T436 92T462 70L436 -13Q393 -8 367 9T327 62Q278 -15 185 -15Q114 -15 72 30T30 148Q30 234 87 279T252 325H305V358Q305 408 285 429T220 450Q168 450 92 423L63 506Q154 544 240 544Q428
544 428 365V133Q428 105 436 92ZM274 76T305 141V251H265Q155 251 155 157Q155 117 172 97T219 76Q274 76 305 141ZM295 851T327 818T360 733Q360 681 328 648T241 614Q188 614 156 647T123 733Q123 785 155 818T241 851Q295 851 327 818ZM198 787T198 733Q198
679 241 679Q261 679 273 692T285 733Q285 787 241 787Q198 787 198 733Z" />
<glyph unicode="&#xe6;" glyph-name="ae" horiz-adv-x="772" d="M739 268T736 226H437Q443 148 472 114T552 80Q582 80 609 91T668 125L721 56Q642 -15 541 -15Q480 -15 433 9T357 78Q324 29 283 7T190 -15Q117 -15 74 30T30 148Q30 233 88 278T257 323H309V355Q309
407 289 428T223 450Q172 450 97 422L68 506Q159 544 243 544Q297 544 332 526T388 471Q442 544 536 544Q630 544 684 475T739 277Q739 268 736 226ZM616 313Q616 384 595 419T529 455Q488 455 465 421T437 307H616V313ZM255 76T278 95T323 155Q312 197 311 246V248H271Q215
248 188 226T161 156Q161 76 225 76Q255 76 278 95Z" />
<glyph unicode="&#xe7;" glyph-name="ccedilla" horiz-adv-x="433" d="M362 -7T290 -14V-54Q335 -60 358 -83T381 -145Q381 -194 346 -222T254 -251Q197 -251 158 -224L188 -165Q220 -179 245 -179Q265 -179 276 -171T288 -145Q288 -125 269 -116T206 -106L217
-10Q132 6 85 75T38 260Q38 346 66 410T145 509T266 544Q313 544 351 529T423 483L368 410Q323 446 274 446Q223 446 197 403T170 262Q170 166 196 126T274 86Q299 86 320 94T367 121L423 46Q362 -7 290 -14Z" />
<glyph unicode="&#xe8;" glyph-name="egrave" horiz-adv-x="501" d="M468 268T465 226H166Q172 146 200 113T278 80Q310 80 338 91T398 125L450 54Q371 -15 269 -15Q158 -15 98 58T38 261Q38 389 95 466T256 544Q356 544 412 475T468 277Q468 268 465 226ZM345
313Q345 385 324 420T257 456Q215 456 193 422T166 307H345V313ZM196 815L386 693L351 630L145 720L196 815Z" />
<glyph unicode="&#xe9;" glyph-name="eacute" horiz-adv-x="501" d="M468 268T465 226H166Q172 146 200 113T278 80Q310 80 338 91T398 125L450 54Q371 -15 269 -15Q158 -15 98 58T38 261Q38 389 95 466T256 544Q356 544 412 475T468 277Q468 268 465 226ZM345
313Q345 385 324 420T257 456Q215 456 193 422T166 307H345V313ZM322 815L373 720L167 630L132 693L322 815Z" />
<glyph unicode="&#xea;" glyph-name="ecircumflex" horiz-adv-x="501" d="M468 268T465 226H166Q172 146 200 113T278 80Q310 80 338 91T398 125L450 54Q371 -15 269 -15Q158 -15 98 58T38 261Q38 389 95 466T256 544Q356 544 412 475T468 277Q468 268 465 226ZM345
313Q345 385 324 420T257 456Q215 456 193 422T166 307H345V313ZM139 629L93 680L219 807H296L422 680L375 629L257 717L139 629Z" />
<glyph unicode="&#xeb;" glyph-name="edieresis" horiz-adv-x="501" d="M468 268T465 226H166Q172 146 200 113T278 80Q310 80 338 91T398 125L450 54Q371 -15 269 -15Q158 -15 98 58T38 261Q38 389 95 466T256 544Q356 544 412 475T468 277Q468 268 465 226ZM345
313Q345 385 324 420T257 456Q215 456 193 422T166 307H345V313ZM184 783T203 764T222 716Q222 687 203 668T155 648Q126 648 107 667T88 716Q88 744 107 763T155 783Q184 783 203 764ZM387 783T406 764T425 716Q425 687 406 668T358 648Q329 648 310 667T290 716Q290
744 310 763T358 783Q387 783 406 764Z" />
<glyph unicode="&#xec;" glyph-name="igrave" horiz-adv-x="257" d="M191 529V0H66V529H191ZM68 815L258 693L223 630L17 720L68 815Z" />
<glyph unicode="&#xed;" glyph-name="iacute" horiz-adv-x="257" d="M191 529V0H66V529H191ZM194 815L245 720L39 630L4 693L194 815Z" />
<glyph unicode="&#xee;" glyph-name="icircumflex" horiz-adv-x="257" d="M191 529V0H66V529H191ZM11 629L-35 680L91 807H168L294 680L247 629L129 717L11 629Z" />
<glyph unicode="&#xef;" glyph-name="idieresis" horiz-adv-x="257" d="M191 529V0H66V529H191ZM56 783T75 764T94 716Q94 687 75 668T27 648Q-2 648 -21 667T-40 716Q-40 744 -21 763T27 783Q56 783 75 764ZM259 783T278 764T297 716Q297 687 278 668T230 648Q201
648 182 667T162 716Q162 744 182 763T230 783Q259 783 278 764Z" />
<glyph unicode="&#xf0;" glyph-name="eth" horiz-adv-x="525" d="M408 598T445 503T482 272Q482 187 455 122T377 21T256 -15Q194 -15 145 14T67 99T38 234Q38 302 61 357T127 445T223 477Q262 477 292 464T347 423Q335 478 313 519T251 595L193 532L113 571L176
641Q136 658 85 669L110 754Q177 740 243 712L309 787L377 732L320 667Q408 598 445 503ZM305 79T330 123T355 258L354 328Q316 386 255 386Q165 386 165 237Q165 79 257 79Q305 79 330 123Z" />
<glyph unicode="&#xf1;" glyph-name="ntilde" horiz-adv-x="525" d="M392 544T428 502T464 388V0H339V371Q339 413 326 430T286 448Q259 448 236 428T191 369V0H66V529H175L184 460Q213 501 248 522T329 544Q392 544 428 502ZM301 648T288 654T254 674Q231 692
215 692Q200 692 190 682T167 648L103 679Q121 725 149 752T213 780Q232 780 246 773T279 754Q281 752 289 747T305 739T319 736Q333 736 343 746T366 779L430 748Q413 700 385 674T320 648Q301 648 288 654Z" />
<glyph unicode="&#xf2;" glyph-name="ograve" horiz-adv-x="532" d="M373 544T433 472T493 265Q493 135 433 60T266 -15Q159 -15 99 58T38 265Q38 396 98 470T266 544Q373 544 433 472ZM217 449T193 406T169 265Q169 167 193 124T266 80Q315 80 339 124T363 265Q363
363 339 406T266 449Q217 449 193 406ZM205 815L395 693L360 630L154 720L205 815Z" />
<glyph unicode="&#xf3;" glyph-name="oacute" horiz-adv-x="532" d="M373 544T433 472T493 265Q493 135 433 60T266 -15Q159 -15 99 58T38 265Q38 396 98 470T266 544Q373 544 433 472ZM217 449T193 406T169 265Q169 167 193 124T266 80Q315 80 339 124T363 265Q363
363 339 406T266 449Q217 449 193 406ZM331 815L382 720L176 630L141 693L331 815Z" />
<glyph unicode="&#xf4;" glyph-name="ocircumflex" horiz-adv-x="532" d="M373 544T433 472T493 265Q493 135 433 60T266 -15Q159 -15 99 58T38 265Q38 396 98 470T266 544Q373 544 433 472ZM217 449T193 406T169 265Q169 167 193 124T266 80Q315 80 339 124T363
265Q363 363 339 406T266 449Q217 449 193 406ZM148 629L102 680L228 807H305L431 680L384 629L266 717L148 629Z" />
<glyph unicode="&#xf5;" glyph-name="otilde" horiz-adv-x="532" d="M373 544T433 472T493 265Q493 135 433 60T266 -15Q159 -15 99 58T38 265Q38 396 98 470T266 544Q373 544 433 472ZM217 449T193 406T169 265Q169 167 193 124T266 80Q315 80 339 124T363 265Q363
363 339 406T266 449Q217 449 193 406ZM300 648T287 654T253 674Q230 692 214 692Q199 692 189 682T166 648L102 679Q120 725 148 752T212 780Q231 780 245 773T278 754Q280 752 288 747T304 739T318 736Q332 736 342 746T365 779L429 748Q412 700 384 674T319
648Q300 648 287 654Z" />
<glyph unicode="&#xf6;" glyph-name="odieresis" horiz-adv-x="532" d="M373 544T433 472T493 265Q493 135 433 60T266 -15Q159 -15 99 58T38 265Q38 396 98 470T266 544Q373 544 433 472ZM217 449T193 406T169 265Q169 167 193 124T266 80Q315 80 339 124T363
265Q363 363 339 406T266 449Q217 449 193 406ZM193 783T212 764T231 716Q231 687 212 668T164 648Q135 648 116 667T97 716Q97 744 116 763T164 783Q193 783 212 764ZM396 783T415 764T434 716Q434 687 415 668T367 648Q338 648 319 667T299 716Q299 744 319 763T367
783Q396 783 415 764Z" />
<glyph unicode="&#xf7;" glyph-name="divide" horiz-adv-x="462" d="M264 176T286 153T309 97Q309 65 287 42T230 18Q197 18 175 41T153 97Q153 130 175 153T230 176Q264 176 286 153ZM264 645T286 622T309 566Q309 534 287 511T230 487Q197 487 175 510T153 566Q153
599 175 622T230 645Q264 645 286 622ZM47 283V381H415V283H47Z" />
<glyph unicode="&#xf8;" glyph-name="oslash" horiz-adv-x="532" d="M440 476T466 414T493 265Q493 135 433 60T266 -15Q254 -15 232 -13L197 -132L104 -106L142 20Q92 53 65 115T38 265Q38 396 98 470T266 544Q278 544 302 542L336 661L429 634L391 509Q440 476
466 414ZM212 450T186 407T159 265Q159 149 190 111L287 449Q281 450 266 450Q212 450 186 407ZM320 79T346 123T373 265Q373 324 366 361T342 419L247 80Q253 79 266 79Q320 79 346 123Z" />
<glyph unicode="&#xf9;" glyph-name="ugrave" horiz-adv-x="521" d="M455 0H347L340 70Q313 27 279 6T197 -15Q133 -15 98 27T62 140V529H187V151Q187 114 199 97T239 80Q291 80 330 152V529H455V0ZM198 815L388 693L353 630L147 720L198 815Z" />
<glyph unicode="&#xfa;" glyph-name="uacute" horiz-adv-x="521" d="M455 0H347L340 70Q313 27 279 6T197 -15Q133 -15 98 27T62 140V529H187V151Q187 114 199 97T239 80Q291 80 330 152V529H455V0ZM324 815L375 720L169 630L134 693L324 815Z" />
<glyph unicode="&#xfb;" glyph-name="ucircumflex" horiz-adv-x="521" d="M455 0H347L340 70Q313 27 279 6T197 -15Q133 -15 98 27T62 140V529H187V151Q187 114 199 97T239 80Q291 80 330 152V529H455V0ZM141 629L95 680L221 807H298L424 680L377 629L259 717L141 629Z" />
<glyph unicode="&#xfc;" glyph-name="udieresis" horiz-adv-x="521" d="M455 0H347L340 70Q313 27 279 6T197 -15Q133 -15 98 27T62 140V529H187V151Q187 114 199 97T239 80Q291 80 330 152V529H455V0ZM186 783T205 764T224 716Q224 687 205 668T157 648Q128 648
109 667T90 716Q90 744 109 763T157 783Q186 783 205 764ZM389 783T408 764T427 716Q427 687 408 668T360 648Q331 648 312 667T292 716Q292 744 312 763T360 783Q389 783 408 764Z" />
<glyph unicode="&#xfd;" glyph-name="yacute" horiz-adv-x="465" d="M309 -2Q281 -99 220 -154T54 -218L41 -127Q109 -116 142 -88T196 0H151L2 529H131L232 83L337 529H463L309 -2ZM297 815L348 720L142 630L107 693L297 815Z" />
<glyph unicode="&#xfe;" glyph-name="thorn" horiz-adv-x="539" d="M410 544T454 472T498 266Q498 138 448 62T310 -15Q236 -15 191 45V-201L66 -217V741L191 754V474Q242 544 322 544Q410 544 454 472ZM320 81T344 124T368 265Q368 366 347 407T283 449Q230 449
191 380V134Q225 81 275 81Q320 81 344 124Z" />
<glyph unicode="&#xff;" glyph-name="ydieresis" horiz-adv-x="465" d="M309 -2Q281 -99 220 -154T54 -218L41 -127Q109 -116 142 -88T196 0H151L2 529H131L232 83L337 529H463L309 -2ZM159 783T178 764T197 716Q197 687 178 668T130 648Q101 648 82 667T63 716Q63
744 82 763T130 783Q159 783 178 764ZM362 783T381 764T400 716Q400 687 381 668T333 648Q304 648 285 667T265 716Q265 744 285 763T333 783Q362 783 381 764Z" />
<glyph unicode="&#x2013;" glyph-name="endash" horiz-adv-x="475" d="M25 263V363H449V263H25Z" />
<glyph unicode="&#x2014;" glyph-name="emdash" horiz-adv-x="722" d="M25 263V363H696V263H25Z" />
<glyph unicode="&#x2018;" glyph-name="quoteleft" horiz-adv-x="222" d="M79 477T60 497T40 547Q40 563 45 579T62 625L121 760H187L150 607Q181 584 181 548Q181 518 161 498T110 477Q79 477 60 497Z" />
<glyph unicode="&#x2019;" glyph-name="quoteright" horiz-adv-x="222" d="M143 759T162 739T182 689Q182 673 177 657T160 611L101 476H35L72 629Q41 652 41 688Q41 718 61 738T112 759Q143 759 162 739Z" />
<glyph unicode="&#x201a;" glyph-name="quotesinglbase" horiz-adv-x="222" d="M143 124T162 104T182 54Q182 38 177 22T160 -24L101 -159H35L72 -6Q41 17 41 53Q41 83 61 103T112 124Q143 124 162 104Z" />
<glyph unicode="&#x201c;" glyph-name="quotedblleft" horiz-adv-x="415" d="M79 477T60 497T40 547Q40 563 45 579T62 625L121 760H187L150 607Q181 584 181 548Q181 518 161 498T110 477Q79 477 60 497ZM272 477T253 497T233 547Q233 563 238 579T255 625L314
760H380L343 607Q374 584 374 548Q374 518 354 498T303 477Q272 477 253 497Z" />
<glyph unicode="&#x201d;" glyph-name="quotedblright" horiz-adv-x="415" d="M143 759T162 739T182 689Q182 673 177 657T160 611L101 476H35L72 629Q41 652 41 688Q41 718 61 738T112 759Q143 759 162 739ZM336 759T355 739T375 689Q375 673 370 657T353 611L294
476H228L265 629Q234 652 234 688Q234 718 254 738T305 759Q336 759 355 739Z" />
<glyph unicode="&#x201e;" glyph-name="quotedblbase" horiz-adv-x="415" d="M143 124T162 104T182 54Q182 38 177 22T160 -24L101 -159H35L72 -6Q41 17 41 53Q41 83 61 103T112 124Q143 124 162 104ZM336 124T355 104T375 54Q375 38 370 22T353 -24L294 -159H228L265
-6Q234 17 234 53Q234 83 254 103T305 124Q336 124 355 104Z" />
<glyph unicode="&#x2022;" glyph-name="bullet" horiz-adv-x="323" d="M215 466T249 431T284 341Q284 288 250 253T162 218Q108 218 74 253T39 342Q39 396 73 431T162 466Q215 466 249 431Z" />
<glyph unicode="&#x2039;" glyph-name="guilsinglleft" horiz-adv-x="327" d="M209 545L285 495L164 286L285 77L209 26L42 245V326L209 545Z" />
<glyph unicode="&#x203a;" glyph-name="guilsinglright" horiz-adv-x="327" d="M119 545L285 326V245L119 26L42 77L163 286L42 495L119 545Z" />
</font>
</defs>
</svg>
