<?xml version="1.0" standalone="no"?>
<!DOCTYPE svg PUBLIC "-//W3C//DTD SVG 1.1//EN" "http://www.w3.org/Graphics/SVG/1.1/DTD/svg11.dtd">
<svg xmlns="http://www.w3.org/2000/svg">
<defs >
<font id="Pridi" horiz-adv-x="556" ><font-face
    font-family="Pridi"
    units-per-em="1000"
    panose-1="0 0 5 0 0 0 0 0 0 0"
    ascent="1100"
    descent="-450"
    alphabetic="0" />
<glyph unicode=" " glyph-name="space" horiz-adv-x="350" />
<glyph unicode="!" glyph-name="exclam" horiz-adv-x="203" d="M45 647H159L152 180H51L45 647ZM43 91H160V0H43V91Z" />
<glyph unicode="&quot;" glyph-name="quotedbl" horiz-adv-x="345" d="M43 721H145L133 525H55L43 721ZM200 721H302L290 525H213L200 721Z" />
<glyph unicode="#" glyph-name="numbersign" horiz-adv-x="748" d="M155 174H43V248H171L209 416H72V490H225L259 647H353L319 490H506L540 647H634L599 490H705V416H583L545 248H676V174H529L491 0H398L435 174H248L211 0H117L155 174ZM452 248L489 416H302L265
248H452Z" />
<glyph unicode="$" glyph-name="dollar" horiz-adv-x="554" d="M225 -11Q173 -4 126 14T43 59V156H149V92Q174 77 211 68T286 59Q346 59 377 84T408 157Q408 190 392 212T345 250T262 287Q188 316 143 342T74 403T49 490Q49 562 97 604T225 657V767H323V659Q375
654 420 637T499 593V501H393V562Q349 588 276 588Q218 588 185 565T152 493Q152 459 173 436T221 400T305 364Q381 334 422 311T487 253T511 161Q511 91 462 44T323 -12V-120H225V-11Z" />
<glyph unicode="%" glyph-name="percent" horiz-adv-x="771" d="M155 354T120 374T64 430T43 508Q43 550 63 585T119 641T197 662Q239 662 274 642T330 586T351 508Q351 466 331 431T275 375T197 354Q155 354 120 374ZM523 647H629L252 0H146L523 647ZM231 427T254
450T278 508Q278 542 255 565T197 589Q163 589 140 566T116 508Q116 474 139 451T197 427Q231 427 254 450ZM532 -15T497 5T441 61T420 139Q420 181 440 216T496 272T574 293Q616 293 651 273T707 217T728 139Q728 97 708 62T652 6T574 -15Q532 -15 497 5ZM608
58T631 81T655 139Q655 173 632 196T574 220Q540 220 517 197T493 139Q493 105 516 82T574 58Q608 58 631 81Z" />
<glyph unicode="&amp;" glyph-name="ampersand" horiz-adv-x="682" d="M170 -15T107 31T43 161Q43 230 75 275T178 360Q139 398 115 434T91 513Q91 587 137 624T262 662Q347 662 391 620T435 510V478H330V519Q330 553 313 571T263 589Q228 589 211 572T193 513Q193
485 207 464T260 402L290 370L464 186Q482 228 482 292V372H639V300H605Q588 300 582 294T575 269Q575 167 537 105L638 0H518L473 47Q431 12 386 -1T275 -15Q170 -15 107 31ZM323 58T356 68T419 104L238 297Q189 271 168 240T147 161Q147 111 185 85T275 58Q323
58 356 68Z" />
<glyph unicode="&apos;" glyph-name="quotesingle" horiz-adv-x="196" d="M43 721H153L141 525H55L43 721Z" />
<glyph unicode="(" glyph-name="parenleft" horiz-adv-x="351" d="M43 66T43 316Q43 566 185 707H308Q226 637 186 538T146 316Q146 60 308 -75H185Q43 66 43 316Z" />
<glyph unicode=")" glyph-name="parenright" horiz-adv-x="351" d="M125 -5T165 94T205 316Q205 572 43 707H166Q308 566 308 316Q308 66 166 -75H43Q125 -5 165 94Z" />
<glyph unicode="*" glyph-name="asterisk" horiz-adv-x="417" d="M77 456L149 547L43 575L71 657L165 617L161 721H257L251 617L346 657L374 575L267 547L340 456L266 407L208 499L150 407L77 456Z" />
<glyph unicode="+" glyph-name="plus" horiz-adv-x="412" d="M161 270H43V343H161V449H249V343H369V270H249V164H161V270Z" />
<glyph unicode="," glyph-name="comma" horiz-adv-x="226" d="M75 88H183L120 -118H43L75 88Z" />
<glyph unicode="-" glyph-name="hyphen" horiz-adv-x="375" d="M43 339H332V266H43V339Z" />
<glyph unicode="." glyph-name="period" horiz-adv-x="179" d="M43 88H136V0H43V88Z" />
<glyph unicode="/" glyph-name="slash" horiz-adv-x="443" d="M294 676H400L150 0H43L294 676Z" />
<glyph unicode="0" glyph-name="zero" horiz-adv-x="621" d="M169 -15T101 69T33 324Q33 493 101 577T310 661Q452 661 520 577T588 324Q588 154 520 70T310 -15Q169 -15 101 69ZM394 59T439 121T484 324Q484 464 439 525T310 587Q226 587 182 526T137 324Q137
184 181 122T310 59Q394 59 439 121Z" />
<glyph unicode="1" glyph-name="one" horiz-adv-x="406" d="M72 73H131Q153 73 161 82T170 111V545L73 486L33 552L184 647H275V111Q275 91 284 82T315 73H373V0H72V73Z" />
<glyph unicode="2" glyph-name="two" horiz-adv-x="536" d="M43 53Q43 144 98 209T258 325Q332 361 360 394T389 488Q389 539 357 563T265 588Q198 588 150 564V505H46V599Q88 627 146 644T264 662Q368 662 430 619T493 488Q493 435 474 396T412 325T295 256Q223
221 187 178T150 73H486V0H43V53Z" />
<glyph unicode="3" glyph-name="three" horiz-adv-x="553" d="M202 -15T144 4T43 59V153H148V93Q202 59 273 59Q344 59 375 89T407 191Q407 301 284 301H204V375H287Q400 375 400 489Q400 539 367 563T276 588Q212 588 161 565V505H56V598Q96 627 155 644T275
662Q377 662 440 620T504 492Q504 391 417 339Q510 296 510 194Q510 85 452 35T270 -15Q202 -15 144 4Z" />
<glyph unicode="4" glyph-name="four" horiz-adv-x="554" d="M228 73H279Q301 73 309 82T318 111V171H23V239L322 647H421V245H531V171H421V111Q421 91 430 82T461 73H511V0H228V73ZM324 245V513L128 245H324Z" />
<glyph unicode="5" glyph-name="five" d="M203 -15T147 3T43 59V153H148V92Q172 76 206 68T280 59Q348 59 379 99T410 217Q410 294 374 325T259 356H66V411L86 647H492V573H181L169 431H273Q386 431 449 381T513 217Q513 105 455 45T276 -15Q203 -15 147 3Z" />
<glyph unicode="6" glyph-name="six" horiz-adv-x="564" d="M174 -15T109 56T43 279Q43 485 122 573T319 662Q377 662 417 649T496 608L456 544Q426 564 398 572T327 581Q249 581 206 532T144 383Q179 422 217 439T313 456Q423 456 482 398T541 231Q541 109 478
47T289 -15Q174 -15 109 56ZM368 59T403 98T438 231Q438 310 403 347T293 385Q232 385 190 347T147 240Q147 59 289 59Q368 59 403 98Z" />
<glyph unicode="7" glyph-name="seven" horiz-adv-x="511" d="M373 573H129V503H23V647H488V596L248 0H142L373 573Z" />
<glyph unicode="8" glyph-name="eight" horiz-adv-x="581" d="M169 -15T106 33T43 182Q43 237 68 276T137 337Q93 363 73 400T53 485Q53 571 118 616T290 662Q398 662 463 617T528 485Q528 436 509 400T444 337Q488 315 513 276T538 182Q538 82 475 34T290 -15Q169
-15 106 33ZM300 372Q364 372 394 399T424 485Q424 537 389 562T290 588Q227 588 192 563T157 485Q157 426 187 399T281 372H300ZM364 59T399 89T434 186Q434 242 400 272T299 303H282Q215 303 181 273T146 186Q146 120 181 90T290 59Q364 59 399 89Z" />
<glyph unicode="9" glyph-name="nine" horiz-adv-x="584" d="M215 -15T172 -3T91 35L133 103Q163 82 192 74T261 65Q338 65 380 112T440 260Q407 223 368 207T272 191Q162 191 103 250T43 418Q43 539 108 600T298 662Q412 662 476 591T541 368Q541 161 465 73T273
-15Q215 -15 172 -3ZM354 262T395 300T437 409Q437 504 401 546T298 588Q219 588 183 548T146 416Q146 337 181 300T292 262Q354 262 395 300Z" />
<glyph unicode=":" glyph-name="colon" horiz-adv-x="181" d="M43 494H138V396H43V494ZM43 99H138V0H43V99Z" />
<glyph unicode=";" glyph-name="semicolon" horiz-adv-x="222" d="M72 494H175V396H72V494ZM74 88H179L116 -118H43L74 88Z" />
<glyph unicode="&lt;" glyph-name="less" horiz-adv-x="624" d="M43 294V355L581 592V501L164 325L581 148V57L43 294Z" />
<glyph unicode="=" glyph-name="equal" horiz-adv-x="410" d="M43 416H367V343H43V416ZM43 263H367V189H43V263Z" />
<glyph unicode="&gt;" glyph-name="greater" horiz-adv-x="624" d="M43 148L460 325L43 501V592L581 355V294L43 57V148Z" />
<glyph unicode="?" glyph-name="question" horiz-adv-x="535" d="M174 186Q174 251 201 295T294 374Q346 399 367 424T389 494Q389 588 262 588Q228 588 196 580T139 558V500H43V596Q83 626 141 644T264 662Q371 662 431 620T492 494Q492 449 478 419T435 365T351
312Q307 289 294 261T280 182V156H174V186ZM166 95H287V0H166V95Z" />
<glyph unicode="@" glyph-name="at" horiz-adv-x="860" d="M238 -110T141 -6T43 278Q43 391 90 475T226 606T434 652Q629 652 723 558T817 292Q817 186 779 125T656 63Q620 63 592 82T555 130Q532 97 492 79T396 60Q327 60 291 89T254 172Q254 228 288 258T386
294L511 302V333Q511 370 496 385T444 401Q421 401 406 398T374 387V359H282V422Q314 444 356 455T444 467Q528 467 567 432T607 327V191Q607 137 650 137Q686 137 704 174T723 294Q723 387 695 447T604 537T434 567Q290 567 214 493T137 278Q137 123 213 48T434
-28Q491 -28 551 -19T662 10V-71Q605 -91 551 -100T434 -110Q238 -110 141 -6ZM454 126T482 146T511 208V237L408 230Q375 228 360 216T344 173Q344 148 360 137T408 126Q454 126 482 146Z" />
<glyph unicode="A" glyph-name="A" horiz-adv-x="719" d="M33 73H64Q87 73 99 81T119 109L310 647H411L600 109Q607 89 620 81T656 73H686V0H458V73H508L464 201H256L212 73H262V0H33V73ZM444 264L361 508L276 264H444Z" />
<glyph unicode="B" glyph-name="B" horiz-adv-x="591" d="M33 73H62Q82 73 90 82T99 111V537Q99 556 91 564T62 573H33V647H369Q455 647 501 602T547 475Q547 426 524 388T457 329Q507 312 532 274T558 179Q558 101 512 51T385 0H33V73ZM334 363Q385 363 414 391T443
470Q443 523 419 548T339 574H205V363H334ZM356 73Q402 73 428 100T454 182Q454 238 426 263T340 288H205V73H356Z" />
<glyph unicode="C" glyph-name="C" horiz-adv-x="599" d="M258 -15T184 27T71 145T33 320Q33 420 68 497T174 618T351 662Q422 662 474 649T566 606V504H461V568Q416 588 351 588Q249 588 193 517T136 320Q136 197 197 128T367 59Q415 59 452 68T525 99L564 37Q520
8 474 -3T363 -15Q258 -15 184 27Z" />
<glyph unicode="D" glyph-name="D" horiz-adv-x="628" d="M33 72H56Q76 72 84 81T93 110V538Q93 557 85 565T56 574H33V647H321Q460 647 527 562T595 321Q595 175 526 88T321 0H33V72ZM307 72Q405 72 448 134T491 321Q491 449 448 512T307 575H199V72H307Z" />
<glyph unicode="E" glyph-name="E" horiz-adv-x="545" d="M33 73H62Q82 73 90 82T99 111V537Q99 556 91 564T62 573H33V647H512V518H416V538Q416 557 407 565T378 574H205V361H378V287H205V73H378Q398 73 407 81T416 110V130H512V0H33V73Z" />
<glyph unicode="F" glyph-name="F" horiz-adv-x="545" d="M33 73H62Q82 73 90 82T99 111V537Q99 556 91 564T62 573H33V647H512V518H416V538Q416 557 407 565T378 574H205V361H378V287H205V110Q205 90 213 82T241 73H271V0H33V73Z" />
<glyph unicode="G" glyph-name="G" horiz-adv-x="618" d="M250 -15T178 27T70 145T33 320Q33 420 67 497T171 618T347 662Q419 662 471 649T564 606V504H458V566Q415 588 347 588Q247 588 192 517T137 320Q137 197 195 128T357 59Q427 59 480 80V267H341V341H585V48Q536
15 480 0T353 -15Q250 -15 178 27Z" />
<glyph unicode="H" glyph-name="H" horiz-adv-x="682" d="M33 73H62Q82 73 90 82T99 111V537Q99 556 91 564T62 573H33V647H266V573H241Q222 573 214 565T205 537V361H477V536Q477 556 469 564T441 573H415V647H649V573H620Q600 573 592 565T583 537V111Q583 91
591 82T620 73H649V0H415V73H441Q460 73 468 82T477 111V288H205V111Q205 91 213 82T241 73H266V0H33V73Z" />
<glyph unicode="I" glyph-name="I" horiz-adv-x="303" d="M33 73H62Q82 73 90 82T99 111V537Q99 556 91 564T62 573H33V647H270V573H241Q222 573 214 565T205 537V110Q205 90 213 82T241 73H270V0H33V73Z" />
<glyph unicode="J" glyph-name="J" horiz-adv-x="496" d="M71 -15T3 61V141H99V93Q132 59 192 59Q244 59 268 85T292 166V537Q292 556 283 564T255 573H225V647H463V573H434Q415 573 406 565T397 537V181Q397 88 346 37T199 -15Q71 -15 3 61Z" />
<glyph unicode="K" glyph-name="K" horiz-adv-x="648" d="M33 74H62Q82 74 90 82T99 110V538Q99 557 91 565T62 574H39V647H256V574H238Q220 574 213 565T205 538V326L436 574H385V647H605V570H568Q549 570 538 564T513 543L351 372L528 104Q539 88 551 81T582
74H615V0H385V74H441L288 306L205 217V110Q205 92 212 83T240 74H262V0H33V74Z" />
<glyph unicode="L" glyph-name="L" horiz-adv-x="509" d="M33 72H54Q76 72 84 81T93 110V538Q93 557 85 565T56 574H33V647H259V574H235Q216 574 208 566T199 538V72H372Q392 72 401 80T410 109V141H506V0H33V72Z" />
<glyph unicode="M" glyph-name="M" horiz-adv-x="775" d="M33 73H62Q82 73 90 82T99 111V536Q99 556 91 565T62 574H33V647H212L388 240L563 647H742V574H712Q693 574 685 565T676 536V111Q676 91 684 82T712 73H742V0H505V73H535Q554 73 562 81T571 110V472L428
139H347L203 472V110Q203 91 212 82T240 73H270V0H33V73Z" />
<glyph unicode="N" glyph-name="N" horiz-adv-x="691" d="M33 74H62Q82 74 90 82T99 110V537Q99 556 91 564T62 573H33V647H182L487 174V537Q487 556 478 564T450 573H420V647H658V573H628Q609 573 601 565T592 537V0H509L204 472V110Q204 91 213 83T241 74H270V0H33V74Z" />
<glyph unicode="O" glyph-name="O" horiz-adv-x="659" d="M179 -15T106 68T33 321Q33 492 104 577T330 662Q483 662 554 577T626 321Q626 152 553 69T330 -15Q179 -15 106 68ZM428 59T475 120T522 321Q522 464 476 526T330 588Q230 588 184 526T137 321Q137 181
184 120T330 59Q428 59 475 120Z" />
<glyph unicode="P" glyph-name="P" horiz-adv-x="622" d="M33 73H60Q82 73 90 82T99 110V537Q99 556 91 564T60 573H33V647H376Q476 647 532 596T589 448Q589 352 532 297T375 241H205V110Q205 91 213 82T244 73H270V0H33V73ZM361 315Q424 315 454 347T485 448Q485
517 456 545T361 573H205V315H361Z" />
<glyph unicode="Q" glyph-name="Q" horiz-adv-x="659" d="M378 -145T338 -108T288 -13Q161 -2 97 85T33 321Q33 482 105 571T330 661Q481 661 553 572T626 321Q626 174 563 87T373 -13Q378 -45 397 -58T451 -71Q476 -71 491 -67T518 -51V-24H600V-83Q555 -145
450 -145Q378 -145 338 -108ZM522 59T522 321Q522 587 330 587Q137 587 137 321Q137 59 330 59Q522 59 522 321Z" />
<glyph unicode="R" glyph-name="R" horiz-adv-x="622" d="M33 73H60Q82 73 90 82T99 110V537Q99 556 91 564T60 573H33V647H360Q461 647 517 598T573 457Q573 382 532 333T416 269L504 105Q514 87 527 80T562 73H589V0H370V73H418L318 259H205V108Q205 89 212
81T240 73H263V0H33V73ZM344 333Q407 333 438 365T470 457Q470 519 440 546T344 573H205V333H344Z" />
<glyph unicode="S" glyph-name="S" horiz-adv-x="534" d="M204 -15T141 5T33 59V157H140V92Q165 77 201 68T276 59Q336 59 367 84T398 157Q398 190 382 212T335 250T252 287Q178 316 133 342T64 403T39 490Q39 575 104 618T271 662Q338 662 393 643T489 593V500H382V562Q338
588 266 588Q208 588 175 565T142 493Q142 459 163 436T211 400T295 364Q371 334 412 311T477 253T501 161Q501 110 475 71T397 8T274 -15Q204 -15 141 5Z" />
<glyph unicode="T" glyph-name="T" horiz-adv-x="569" d="M166 74H193Q215 74 223 82T232 110V572H140Q120 572 111 564T102 536V504H23V646H546V504H467V536Q467 556 459 564T429 572H338V110Q338 91 346 83T377 74H404V0H166V74Z" />
<glyph unicode="U" glyph-name="U" horiz-adv-x="661" d="M207 -15T145 38T83 182V539Q83 558 75 566T46 575H23V647H244V575H225Q206 575 198 566T189 537V176Q189 116 224 87T330 58Q471 58 471 176V537Q471 557 463 566T434 575H415V647H638V575H614Q595 575
586 567T577 539V182Q577 91 515 38T330 -15Q207 -15 145 38Z" />
<glyph unicode="V" glyph-name="V" horiz-adv-x="707" d="M115 534Q106 559 94 567T54 575H33V647H187L354 139L519 647H674V575H653Q625 575 613 567T592 534L405 0H304L115 534Z" />
<glyph unicode="W" glyph-name="W" horiz-adv-x="871" d="M112 532Q107 556 95 564T54 573H33V647H187L285 183L393 538H477L586 183L685 647H838V573H816Q787 573 775 565T758 532L639 0H552L435 368L320 0H232L112 532Z" />
<glyph unicode="X" glyph-name="X" horiz-adv-x="675" d="M33 74H64Q91 74 106 81T135 109L282 325L138 538Q124 559 109 566T67 573H40V647H266V573H220L337 391L455 573H408V647H634V573H607Q580 573 566 566T537 538L392 325L540 109Q554 89 568 82T610 74H642V0H411V73H458L337
259L217 73H263V0H33V74Z" />
<glyph unicode="Y" glyph-name="Y" horiz-adv-x="666" d="M221 72H244Q264 72 272 81T281 109V237L119 535Q106 558 93 566T56 575H33V647H251V575H237Q215 575 215 562Q215 553 223 539L334 324L444 539Q451 552 451 562Q451 575 430 575H415V647H633V575H610Q586
575 573 567T547 535L386 237V109Q386 90 395 81T423 72H446V0H221V72Z" />
<glyph unicode="Z" glyph-name="Z" horiz-adv-x="562" d="M33 62L395 575H179Q158 575 150 567T141 539V519H45V647H514V585L157 72H395Q415 72 424 80T433 109V128H529V0H33V62Z" />
<glyph unicode="[" glyph-name="bracketleft" horiz-adv-x="297" d="M53 750H254V676H159V-10H254V-83H53V750Z" />
<glyph unicode="\" glyph-name="backslash" horiz-adv-x="442" d="M43 676H149L399 0H293L43 676Z" />
<glyph unicode="]" glyph-name="bracketright" horiz-adv-x="297" d="M43 -10H138V676H43V750H244V-83H43V-10Z" />
<glyph unicode="^" glyph-name="asciicircum" horiz-adv-x="596" d="M254 719H342L553 364H443L298 618L153 364H43L254 719Z" />
<glyph unicode="_" glyph-name="underscore" horiz-adv-x="467" d="M43 0H424V-74H43V0Z" />
<glyph unicode="`" glyph-name="grave" horiz-adv-x="297" d="M43 713H168L254 525H163L43 713Z" />
<glyph unicode="a" glyph-name="a" horiz-adv-x="523" d="M106 -15T65 20T23 119Q23 191 68 224T200 264L340 273V334Q340 381 320 402T252 423Q219 423 198 418T158 400V364H65V443Q149 495 254 495Q446 495 446 325V106Q446 86 453 77T478 68H500V0H385L372
63Q340 22 298 4T186 -15Q106 -15 65 20ZM270 57T305 83T340 162V210L208 200Q159 197 140 180T121 124Q121 91 142 74T210 57Q270 57 305 83Z" />
<glyph unicode="b" glyph-name="b" horiz-adv-x="588" d="M220 -15T170 68L162 0H80V545Q80 568 73 578T42 589H23V662H183V422Q209 459 252 477T349 495Q450 495 502 430T555 240Q555 120 497 53T338 -15Q220 -15 170 68ZM391 63T421 105T451 242Q451 338 421
378T318 418Q261 418 224 379T186 269V211Q186 146 224 105T324 63Q391 63 421 105Z" />
<glyph unicode="c" glyph-name="c" horiz-adv-x="516" d="M218 -15T160 14T67 100T33 236Q33 362 100 428T287 495Q352 495 396 481T481 436V340H388V395Q365 408 344 413T287 418Q220 418 179 374T137 236Q137 148 184 106T306 63Q352 63 384 71T446 98L483 37Q441
8 398 -3T290 -15Q218 -15 160 14Z" />
<glyph unicode="d" glyph-name="d" horiz-adv-x="584" d="M144 -15T89 49T33 232Q33 357 88 426T247 495Q308 495 344 480T405 430V545Q405 569 397 579T366 589H349V662H508V107Q508 85 515 77T541 68H561V0H427L418 70Q388 25 347 5T243 -15Q144 -15 89 49ZM331
63T367 104T403 216V267Q403 340 369 379T271 418Q200 418 169 374T137 233Q137 141 167 102T267 63Q331 63 367 104Z" />
<glyph unicode="e" glyph-name="e" horiz-adv-x="539" d="M170 -15T102 48T33 234Q33 364 96 429T277 495Q390 495 448 431T506 258V212H139Q139 131 178 93T285 54Q323 54 349 59T396 78V114H489V44Q447 14 399 0T284 -15Q170 -15 102 48ZM403 277Q403 423 276
423Q209 423 174 384T139 277H403Z" />
<glyph unicode="f" glyph-name="f" horiz-adv-x="418" d="M38 74H63Q83 74 92 82T101 111V407H23V480H101V506Q101 586 146 631T279 677Q382 677 443 624V547H355V585Q330 605 286 605Q247 605 227 582T207 516V480H351V407H207V111Q207 91 215 83T243 74H267V0H38V74Z" />
<glyph unicode="g" glyph-name="g" horiz-adv-x="584" d="M189 -200T116 -130V-61H208V-97Q227 -111 248 -116T301 -122Q405 -122 405 -17V63Q378 26 339 9T246 -8Q144 -8 89 57T33 246Q33 365 91 430T250 495Q308 495 348 475T418 409L427 481H561V412H540Q522
412 515 403T508 371V-1Q508 -91 454 -145T308 -200Q189 -200 116 -130ZM335 70T368 107T402 218V264Q402 335 368 376T270 418Q200 418 169 378T137 246Q137 151 168 111T271 70Q335 70 368 107Z" />
<glyph unicode="h" glyph-name="h" horiz-adv-x="604" d="M33 74H58Q78 74 86 82T95 111V551Q95 570 87 579T58 588H38V662H192V430Q228 466 265 480T360 495Q438 495 477 452T517 329V111Q517 91 525 83T553 74H581V0H408V328Q408 378 386 401T319 424Q268 424
235 395T202 313V111Q202 91 209 83T235 74H262V0H33V74Z" />
<glyph unicode="i" glyph-name="i" horiz-adv-x="285" d="M86 648H199V556H86V648ZM23 74H52Q72 74 80 83T89 112V369Q89 388 81 396T52 405H23V480H196V111Q196 92 205 83T233 74H262V0H23V74Z" />
<glyph unicode="j" glyph-name="j" horiz-adv-x="373" d="M210 648H323V556H210V648ZM88 -173T47 -159T-27 -115V-32H63V-76Q79 -90 95 -95T136 -101Q175 -101 194 -81T213 -12V369Q213 388 205 396T176 405H147V480H320V0Q320 -86 275 -129T142 -173Q88 -173 47 -159Z" />
<glyph unicode="k" glyph-name="k" horiz-adv-x="579" d="M33 71H60Q80 71 87 78T95 105V559Q95 578 88 585T62 593H39V662H254V593H226Q208 593 201 586T194 559V265L356 410H307V480H535V410H489Q473 410 465 406T443 390L344 303L465 98Q475 82 484 77T514
71H556V0H422L274 245L194 174V105Q194 86 201 79T229 71H260V0H33V71Z" />
<glyph unicode="l" glyph-name="l" horiz-adv-x="295" d="M33 74H62Q82 74 90 83T99 112V551Q99 570 91 578T62 587H33V662H206V111Q206 92 215 83T243 74H272V0H33V74Z" />
<glyph unicode="m" glyph-name="m" horiz-adv-x="856" d="M33 74H58Q78 74 86 82T95 111V369Q95 388 87 396T58 405H38V480H163L170 412Q197 454 237 474T336 495Q380 495 412 475T460 418Q485 458 521 476T613 495Q695 495 731 454T768 331V111Q768 92 777 83T805
74H833V0H663V331Q663 381 644 402T580 423Q534 423 508 397T481 321V111Q481 91 488 83T515 74H542V0H382V328Q382 377 363 400T303 423Q253 423 226 395T199 313V111Q199 91 206 83T233 74H260V0H33V74Z" />
<glyph unicode="n" glyph-name="n" horiz-adv-x="603" d="M33 74H58Q78 74 86 82T95 111V368Q95 388 87 396T59 405H38V480H166L172 413Q206 456 249 475T355 495Q515 495 515 329V111Q515 91 523 83T552 74H580V0H408V328Q408 378 387 400T319 423Q268 423 235
394T202 313V111Q202 91 209 83T236 74H262V0H33V74Z" />
<glyph unicode="o" glyph-name="o" horiz-adv-x="558" d="M157 -15T95 52T33 239Q33 360 94 427T279 495Q402 495 463 428T525 239Q525 119 463 52T279 -15Q157 -15 95 52ZM351 60T386 104T421 239Q421 331 386 375T279 420Q207 420 173 376T138 239Q138 148 172
104T279 60Q351 60 386 104Z" />
<glyph unicode="p" glyph-name="p" horiz-adv-x="588" d="M23 -136H40Q63 -136 71 -126T80 -91V370Q80 390 72 399T44 409H23V480H161L171 408Q231 495 342 495Q442 495 498 430T555 245Q555 121 500 53T343 -15Q289 -15 253 1T183 56V-91Q183 -115 191 -125T223
-136H240V-208H23V-136ZM388 63T419 105T451 244Q451 337 421 377T321 418Q258 418 222 377T186 266V210Q186 139 222 101T317 63Q388 63 419 105Z" />
<glyph unicode="q" glyph-name="q" horiz-adv-x="588" d="M405 56Q372 17 336 1T245 -15Q142 -15 88 48T33 233Q33 313 59 372T135 463T250 495Q308 495 347 474T417 408L427 480H565V409H544Q525 409 517 400T508 370V-91Q508 -115 516 -125T548 -136H565V-208H405V56ZM330
63T366 101T402 210V266Q402 335 366 376T267 418Q199 418 168 372T137 232Q137 168 150 132T193 79T271 63Q330 63 366 101Z" />
<glyph unicode="r" glyph-name="r" horiz-adv-x="386" d="M33 74H58Q78 74 86 82T95 111V369Q95 388 87 397T60 406H39V480H177L191 425Q211 456 242 468T317 480H363V406H307Q250 406 226 381T202 302V111Q202 91 210 83T237 74H262V0H33V74Z" />
<glyph unicode="s" glyph-name="s" horiz-adv-x="462" d="M113 -15T33 43V121H131V81Q172 57 231 57Q276 57 298 71T321 117Q321 138 310 151T278 174T199 208Q140 232 109 249T58 294T38 362Q38 428 89 461T228 495Q284 495 333 481T418 439V364H322V401Q286
423 236 423Q191 423 169 409T146 362Q146 332 170 316T244 281Q258 277 275 270Q327 250 358 233T409 188T429 117Q429 53 381 19T234 -15Q113 -15 33 43Z" />
<glyph unicode="t" glyph-name="t" horiz-adv-x="435" d="M185 -15T143 26T101 146V408H23V480H101V588L207 622V480H351V408H207V139Q207 95 223 76T274 57Q318 57 341 76V119H432V43Q399 15 360 0T268 -15Q185 -15 143 26Z" />
<glyph unicode="u" glyph-name="u" horiz-adv-x="588" d="M172 -15T130 28T88 151V369Q88 388 80 397T52 406H23V480H195V152Q195 55 289 55Q340 55 371 85T402 171V369Q402 388 395 397T369 406H341V480H508V111Q508 92 517 84T545 75H565V0H438L432 65Q400 23
358 4T254 -15Q172 -15 130 28Z" />
<glyph unicode="v" glyph-name="v" horiz-adv-x="572" d="M93 384Q88 400 79 405T44 411H23V480H162L286 105L410 480H549V411H527Q503 411 494 406T478 384L341 0H231L93 384Z" />
<glyph unicode="w" glyph-name="w" horiz-adv-x="767" d="M92 383Q88 399 79 405T48 411H23V480H162L246 120L344 437H422L520 120L606 480H744V411H719Q698 411 689 405T675 383L583 0H479L384 305L288 0H184L92 383Z" />
<glyph unicode="x" glyph-name="x" horiz-adv-x="568" d="M23 62H52Q75 62 87 68T114 93L227 242L117 387Q104 405 92 411T56 418H30V480H237V418H195L284 297L373 418H331V480H538V418H512Q489 418 477 412T451 387L340 242L454 93Q468 75 480 69T516 62H545V0H335V61H377L284
186L191 61H233V0H23V62Z" />
<glyph unicode="y" glyph-name="y" horiz-adv-x="566" d="M189 -200T117 -131V-59H210V-95Q243 -131 307 -131Q359 -131 385 -101T412 -13V58Q384 30 350 18T271 5Q185 5 137 49T89 175V369Q89 388 80 397T52 406H23V480H195V172Q195 74 292 74Q344 74 375 103T406
189V369Q406 389 399 397T372 406H346V480H513V9Q513 -86 459 -143T311 -200Q189 -200 117 -131Z" />
<glyph unicode="z" glyph-name="z" horiz-adv-x="496" d="M33 57L326 407H154Q134 407 125 399T116 371V351H44V480H453V422L161 73H353Q374 73 382 81T391 109V129H463V0H33V57Z" />
<glyph unicode="{" glyph-name="braceleft" horiz-adv-x="342" d="M168 -85T135 -42T102 96V228Q102 268 82 283T23 298V372Q62 372 82 387T102 441V569Q102 663 135 706T257 750H299V676H273Q237 676 222 659T207 603V436Q207 403 191 376T146 334Q175 320 191
294T207 233V62Q207 24 222 7T273 -11H299V-85H257Q168 -85 135 -42Z" />
<glyph unicode="|" glyph-name="bar" horiz-adv-x="192" d="M43 767H149V-120H43V767Z" />
<glyph unicode="}" glyph-name="braceright" horiz-adv-x="342" d="M43 -11H69Q105 -11 120 6T135 62V233Q135 267 151 293T196 334Q168 348 152 375T135 436V603Q135 641 120 658T69 676H43V750H85Q174 750 207 707T240 569V441Q240 402 260 387T319 372V298Q280
298 260 283T240 228V96Q240 2 207 -41T85 -85H43V-11Z" />
<glyph unicode="~" glyph-name="asciitilde" horiz-adv-x="563" d="M43 307T75 345T173 384Q204 384 228 375T284 349Q313 333 332 326T375 318Q410 318 423 334T436 384H520Q520 235 392 235Q358 235 332 245T271 273Q242 288 226 294T189 301Q155 301 141 285T127
235H43Q43 307 75 345Z" />
<glyph unicode="&#xa0;" glyph-name="uni00A0" horiz-adv-x="350" />
<glyph unicode="&#xa1;" glyph-name="exclamdown" horiz-adv-x="203" d="M43 495H160V404H43V495ZM51 315H152L159 -152H45L51 315Z" />
<glyph unicode="&#xa2;" glyph-name="cent" horiz-adv-x="520" d="M235 -9Q144 5 89 68T33 236Q33 346 86 411T235 490V570H333V492Q380 488 417 475T487 436V340H394V395Q372 407 349 412T290 418Q223 418 180 374T137 236Q137 148 184 106T306 63Q352 63 384
71T446 98L483 37Q447 13 413 2T333 -13V-90H235V-9Z" />
<glyph unicode="&#xa3;" glyph-name="sterling" horiz-adv-x="503" d="M45 74H70Q122 74 122 148V349H43V422H122V496Q122 574 171 618T310 662Q410 662 474 608V530H385V568Q360 590 318 590Q276 590 252 568T228 503V422H391V349H228V153Q228 126 223 107T202
74H480V0H45V74Z" />
<glyph unicode="&#xa4;" glyph-name="currency" horiz-adv-x="621" d="M53 120L136 196Q90 255 90 330Q90 398 127 452L43 529L104 592L188 513Q245 552 311 552Q375 552 433 514L517 592L578 529L494 452Q532 398 532 330Q532 254 485 196L569 120L508 57L419
138Q372 109 311 109Q251 109 202 139L113 57L53 120ZM348 194T378 212T426 262T444 330Q444 387 406 426T311 466Q254 466 216 427T178 330Q178 293 195 262T243 213T311 194Q348 194 378 212Z" />
<glyph unicode="&#xa5;" glyph-name="yen" horiz-adv-x="666" d="M221 72H244Q264 72 272 81T281 109V132H135V205H281V236H135V309H242L119 535Q106 558 93 566T56 575H33V647H251V575H237Q216 575 216 562Q216 552 223 539L334 319L444 539Q451 552 451 562Q451
575 430 575H415V647H633V575H610Q586 575 573 567T547 535L425 309H532V236H386V205H532V132H386V109Q386 90 395 81T423 72H446V0H221V72Z" />
<glyph unicode="&#xa6;" glyph-name="brokenbar" horiz-adv-x="191" d="M43 767H148V418H43V767ZM43 228H148V-120H43V228Z" />
<glyph unicode="&#xa7;" glyph-name="section" horiz-adv-x="514" d="M194 -156T131 -136T23 -82V15H129V-49Q154 -64 191 -73T266 -82Q324 -82 356 -57T389 17Q389 50 375 70T338 104T270 135L242 146Q166 178 122 203T54 264T29 349Q29 406 61 444Q29 482 29
540Q29 625 94 668T261 712Q328 712 383 693T479 643V551H373V612Q329 638 256 638Q198 638 165 615T132 543Q132 509 152 487T198 451T285 414Q361 384 402 361T467 303T491 211Q491 156 461 117Q491 80 491 20Q491 -31 465 -70T387 -133T264 -156Q194 -156 131
-136ZM392 184T394 193T396 217Q396 245 377 265T329 300T251 334Q180 362 142 385Q126 372 126 347Q126 318 145 297T195 260T279 221Q343 196 386 172Q392 184 394 193Z" />
<glyph unicode="&#xa8;" glyph-name="dieresis" horiz-adv-x="398" d="M43 656H133V560H43V656ZM264 656H355V560H264V656Z" />
<glyph unicode="&#xa9;" glyph-name="copyright" horiz-adv-x="803" d="M303 -14T221 34T91 164T43 343Q43 441 91 523T221 653T402 701Q499 701 581 653T712 523T760 343Q760 246 712 164T582 34T401 -14Q303 -14 221 34ZM483 53T548 91T649 195T685 343Q685
424 649 490T548 595T401 634Q319 634 255 596T154 491T118 343Q118 261 154 195T254 91T401 53Q483 53 548 91ZM335 96T282 125T197 209T166 337Q166 453 229 518T399 584Q460 584 500 571T578 529V443H497V493Q476 505 454 510T399 516Q337 516 297 472T256 337Q256
252 300 208T411 164Q452 164 483 174T542 205L575 152Q540 124 498 110T400 96Q335 96 282 125Z" />
<glyph unicode="&#xaa;" glyph-name="ordfeminine" horiz-adv-x="395" d="M95 335T69 357T43 422Q43 510 157 518L241 524V559Q241 586 230 596T189 606Q170 606 159 603T133 592V568H69V628Q123 662 191 662Q255 662 286 633T318 553V420Q318 406 322 401T338
395H352V345H275L264 383Q243 358 216 347T145 335Q95 335 69 357ZM241 390T241 452V477L167 471Q141 469 130 459T119 427Q119 390 168 390Q241 390 241 452Z" />
<glyph unicode="&#xab;" glyph-name="guillemotleft" horiz-adv-x="599" d="M43 298V351L329 593V486L144 324L329 163V56L43 298ZM270 298V351L556 593V486L370 324L556 163V56L270 298Z" />
<glyph unicode="&#xac;" glyph-name="logicalnot" horiz-adv-x="505" d="M373 269H43V343H462V136H373V269Z" />
<glyph unicode="&#xad;" glyph-name="uni00AD" horiz-adv-x="375" d="M43 339H332V266H43V339Z" />
<glyph unicode="&#xae;" glyph-name="registered" horiz-adv-x="803" d="M303 -14T221 34T91 164T43 343Q43 441 91 523T221 653T402 701Q499 701 581 653T712 523T760 343Q760 246 712 164T582 34T401 -14Q303 -14 221 34ZM483 53T548 91T649 195T685 343Q685
424 649 490T548 595T401 634Q319 634 255 596T154 491T118 343Q118 261 154 195T254 91T401 53Q483 53 548 91ZM219 192H233Q248 192 253 198T259 220V273V470Q259 485 254 491T233 497H219V556H431Q500 556 538 524T577 436Q577 388 550 356T473 316L519 228Q538
192 568 192H592V137H402V192H455L397 310H332V220Q332 204 337 198T357 192H372V137H219V192ZM424 366Q498 366 498 435Q498 469 480 483T424 497H340V366H424Z" />
<glyph unicode="&#xaf;" glyph-name="overscore" horiz-adv-x="428" d="M43 635H385V566H43V635Z" />
<glyph unicode="&#xb0;" glyph-name="degree" horiz-adv-x="346" d="M137 409T108 426T61 473T43 538Q43 574 60 604T107 651T172 669Q207 669 237 652T285 604T303 538Q303 503 286 474T238 427T172 409Q137 409 108 426ZM200 476T217 494T235 538Q235 566 218
584T172 602Q146 602 128 584T110 538Q110 512 128 494T172 476Q200 476 217 494Z" />
<glyph unicode="&#xb1;" glyph-name="plusminus" horiz-adv-x="412" d="M161 278H43V351H161V457H249V351H369V278H249V172H161V278ZM43 102H369V29H43V102Z" />
<glyph unicode="&#xb2;" glyph-name="uni00B2" horiz-adv-x="331" d="M43 377Q43 416 67 441T144 498Q184 521 198 534T212 571Q212 592 200 601T160 611Q130 611 110 600V572H43V628Q64 643 98 652T164 662Q221 662 253 639T286 572Q286 538 268 517T197 465Q157
440 143 428T128 400H288V345H43V377Z" />
<glyph unicode="&#xb3;" glyph-name="uni00B3" horiz-adv-x="342" d="M128 335T96 346T43 377V430H109V401Q129 386 164 386Q195 386 211 397T227 434Q227 459 214 468T170 478H133V528H171Q199 528 210 538T222 574Q222 611 169 611Q139 611 115 598V570H49V626Q68
641 100 651T165 662Q228 662 260 640T293 576Q293 553 284 533T252 503Q299 486 299 435Q299 335 165 335Q128 335 96 346Z" />
<glyph unicode="&#xb4;" glyph-name="acute" horiz-adv-x="297" d="M129 713H254L134 525H43L129 713Z" />
<glyph unicode="&#xb6;" glyph-name="paragraph" horiz-adv-x="658" d="M166 -82H193Q215 -82 223 -73T232 -45V306Q142 306 93 351T43 469Q43 647 255 647H609V576H588Q566 576 558 567T549 538V-45Q549 -64 557 -73T588 -82H615V-156H444V576H337V-156H166V-82Z" />
<glyph unicode="&#xb7;" glyph-name="middot" horiz-adv-x="179" d="M43 351H136V263H43V351Z" />
<glyph unicode="&#xb8;" glyph-name="cedilla" horiz-adv-x="297" d="M78 -228T43 -215V-153Q74 -166 108 -166Q165 -166 165 -130Q165 -104 147 -93T74 -82L86 0H181L174 -46Q217 -53 235 -74T254 -133Q254 -179 220 -203T118 -228Q78 -228 43 -215Z" />
<glyph unicode="&#xb9;" glyph-name="uni00B9" horiz-adv-x="280" d="M57 399H90Q108 399 113 404T118 425V588L63 552L33 599L124 657H187V425Q187 409 192 404T214 399H247V345H57V399Z" />
<glyph unicode="&#xba;" glyph-name="ordmasculine" horiz-adv-x="402" d="M124 335T84 378T43 498Q43 575 83 618T201 662Q278 662 318 619T359 498Q359 421 318 378T201 335Q124 335 84 378ZM242 393T262 418T282 498Q282 553 262 578T201 604Q159 604 140 579T120
498Q120 444 139 419T201 393Q242 393 262 418Z" />
<glyph unicode="&#xbb;" glyph-name="guillemotright" horiz-adv-x="599" d="M43 163L228 324L43 486V593L329 351V298L43 56V163ZM270 163L455 324L270 486V593L556 351V298L270 56V163Z" />
<glyph unicode="&#xbc;" glyph-name="onequarter" horiz-adv-x="632" d="M67 399H100Q118 399 123 404T128 425V588L73 552L43 599L134 657H197V425Q197 409 202 404T224 399H257V345H67V399ZM483 647H581L184 0H85L483 647ZM426 47H449Q460 47 464 51T468 65V85H322V132L462
312H536V135H589V85H536V65Q536 55 540 51T556 47H579V0H426V47ZM475 135V242L392 135H475Z" />
<glyph unicode="&#xbd;" glyph-name="onehalf" horiz-adv-x="677" d="M67 399H100Q118 399 123 404T128 425V588L73 552L43 599L134 657H197V425Q197 409 202 404T224 399H257V345H67V399ZM483 647H581L184 0H85L483 647ZM389 32Q389 71 413 96T489 153Q529 176
543 189T557 226Q557 247 545 256T505 266Q475 266 456 255V227H389V283Q410 298 444 307T510 317Q567 317 599 294T632 227Q632 193 614 172T543 120Q503 95 489 83T474 55H634V0H389V32Z" />
<glyph unicode="&#xbe;" glyph-name="threequarters" horiz-adv-x="642" d="M128 335T96 346T43 377V430H109V401Q129 386 164 386Q195 386 211 397T227 434Q227 459 214 468T170 478H133V528H171Q199 528 210 538T222 574Q222 611 169 611Q139 611 115 598V570H49V626Q68
641 100 651T165 662Q228 662 260 640T293 576Q293 553 284 533T252 503Q299 486 299 435Q299 335 165 335Q128 335 96 346ZM492 647H591L193 0H95L492 647ZM435 47H459Q469 47 473 51T478 65V85H331V132L472 312H546V135H599V85H546V65Q546 55 550 51T565 47H588V0H435V47ZM484
135V242L401 135H484Z" />
<glyph unicode="&#xbf;" glyph-name="questiondown" horiz-adv-x="535" d="M248 495H369V400H248V495ZM165 -167T104 -125T43 1Q43 46 57 76T101 130T185 183Q229 206 242 234T256 313V339H361V309Q361 244 334 200T241 121Q189 96 168 71T146 1Q146 -93 274 -93Q308
-93 340 -85T396 -63V-5H492V-101Q452 -131 394 -149T272 -167Q165 -167 104 -125Z" />
<glyph unicode="&#xc0;" glyph-name="Agrave" horiz-adv-x="719" d="M196 880H322L402 701H310L196 880ZM33 73H64Q87 73 99 81T119 109L310 647H411L600 109Q607 89 620 81T656 73H686V0H458V73H508L464 201H256L212 73H262V0H33V73ZM444 264L361 508L276 264H444Z" />
<glyph unicode="&#xc1;" glyph-name="Aacute" horiz-adv-x="719" d="M383 880H508L394 701H303L383 880ZM33 73H64Q87 73 99 81T119 109L310 647H411L600 109Q607 89 620 81T656 73H686V0H458V73H508L464 201H256L212 73H262V0H33V73ZM444 264L361 508L276 264H444Z" />
<glyph unicode="&#xc2;" glyph-name="Acircumflex" horiz-adv-x="719" d="M310 889H413L538 701H438L361 827L284 701H185L310 889ZM33 73H64Q87 73 99 81T119 109L310 647H411L600 109Q607 89 620 81T656 73H686V0H458V73H508L464 201H256L212 73H262V0H33V73ZM444
264L361 508L276 264H444Z" />
<glyph unicode="&#xc3;" glyph-name="Atilde" horiz-adv-x="719" d="M166 771T192 804T275 838Q301 838 323 830T370 807Q392 795 405 790T434 784Q457 784 467 796T478 838H556Q556 766 530 734T449 701Q423 701 402 709T356 731Q335 742 320 748T289 754Q266
754 255 742T244 701H166Q166 771 192 804ZM33 73H64Q87 73 99 81T119 109L310 647H411L600 109Q607 89 620 81T656 73H686V0H458V73H508L464 201H256L212 73H262V0H33V73ZM444 264L361 508L276 264H444Z" />
<glyph unicode="&#xc4;" glyph-name="Adieresis" horiz-adv-x="719" d="M208 816H300V720H208V816ZM421 816H514V720H421V816ZM33 73H64Q87 73 99 81T119 109L310 647H411L600 109Q607 89 620 81T656 73H686V0H458V73H508L464 201H256L212 73H262V0H33V73ZM444
264L361 508L276 264H444Z" />
<glyph unicode="&#xc5;" glyph-name="Aring" horiz-adv-x="719" d="M686 73V0H458V73H508L464 201H256L212 73H262V0H33V73H64Q87 73 99 81T119 109L300 619Q276 634 262 659T248 714Q248 761 281 794T361 828Q408 828 441 795T475 714Q475 684 461 659T421 618L600
109Q607 89 620 81T656 73H686ZM339 768T324 753T308 714Q308 692 323 677T361 661Q384 661 399 676T414 714Q414 737 399 752T361 768Q339 768 324 753ZM444 264L361 508L276 264H444Z" />
<glyph unicode="&#xc6;" glyph-name="AE" horiz-adv-x="838" d="M33 73H64Q87 73 99 81T119 109L323 647H805V518H709V537Q709 557 700 565T671 574H504V361H671V287H504V73H671Q691 73 700 81T709 110V130H805V0H336V73H365Q385 73 393 82T402 111V201H259L212
73H262V0H33V73ZM402 274V573H395L282 274H402Z" />
<glyph unicode="&#xc7;" glyph-name="Ccedilla" horiz-adv-x="599" d="M461 504V568Q416 588 351 588Q249 588 193 517T136 320Q136 197 197 128T367 59Q415 59 452 68T525 99L564 37Q525 11 486 0T395 -14L389 -46Q432 -53 451 -74T470 -133Q470 -179 436 -203T334
-228Q292 -228 259 -215V-153Q288 -166 324 -166Q381 -166 381 -130Q381 -104 363 -93T289 -82L300 -11Q172 7 103 96T33 320Q33 420 68 497T174 618T351 662Q422 662 474 649T566 606V504H461Z" />
<glyph unicode="&#xc8;" glyph-name="Egrave" horiz-adv-x="545" d="M120 880H246L326 701H234L120 880ZM33 73H62Q82 73 90 82T99 111V537Q99 556 91 564T62 573H33V647H512V518H416V538Q416 557 407 565T378 574H205V361H378V287H205V73H378Q398 73 407 81T416
110V130H512V0H33V73Z" />
<glyph unicode="&#xc9;" glyph-name="Eacute" horiz-adv-x="545" d="M285 880H410L296 701H205L285 880ZM33 73H62Q82 73 90 82T99 111V537Q99 556 91 564T62 573H33V647H512V518H416V538Q416 557 407 565T378 574H205V361H378V287H205V73H378Q398 73 407 81T416
110V130H512V0H33V73Z" />
<glyph unicode="&#xca;" glyph-name="Ecircumflex" horiz-adv-x="545" d="M207 889H310L435 701H335L258 827L181 701H82L207 889ZM33 73H62Q82 73 90 82T99 111V537Q99 556 91 564T62 573H33V647H512V518H416V538Q416 557 407 565T378 574H205V361H378V287H205V73H378Q398
73 407 81T416 110V130H512V0H33V73Z" />
<glyph unicode="&#xcb;" glyph-name="Edieresis" horiz-adv-x="545" d="M107 816H199V720H107V816ZM320 816H413V720H320V816ZM33 73H62Q82 73 90 82T99 111V537Q99 556 91 564T62 573H33V647H512V518H416V538Q416 557 407 565T378 574H205V361H378V287H205V73H378Q398
73 407 81T416 110V130H512V0H33V73Z" />
<glyph unicode="&#xcc;" glyph-name="Igrave" horiz-adv-x="303" d="M-1 880H125L205 701H113L-1 880ZM33 73H62Q82 73 90 82T99 111V537Q99 556 91 564T62 573H33V647H270V573H241Q222 573 214 565T205 537V110Q205 90 213 82T241 73H270V0H33V73Z" />
<glyph unicode="&#xcd;" glyph-name="Iacute" horiz-adv-x="303" d="M185 880H310L196 701H105L185 880ZM33 73H62Q82 73 90 82T99 111V537Q99 556 91 564T62 573H33V647H270V573H241Q222 573 214 565T205 537V110Q205 90 213 82T241 73H270V0H33V73Z" />
<glyph unicode="&#xce;" glyph-name="Icircumflex" horiz-adv-x="303" d="M100 889H203L328 701H228L151 827L74 701H-25L100 889ZM33 73H62Q82 73 90 82T99 111V537Q99 556 91 564T62 573H33V647H270V573H241Q222 573 214 565T205 537V110Q205 90 213 82T241
73H270V0H33V73Z" />
<glyph unicode="&#xcf;" glyph-name="Idieresis" horiz-adv-x="303" d="M-2 826H90V730H-2V826ZM211 826H304V730H211V826ZM33 73H62Q82 73 90 82T99 111V537Q99 556 91 564T62 573H33V647H270V573H241Q222 573 214 565T205 537V110Q205 90 213 82T241 73H270V0H33V73Z" />
<glyph unicode="&#xd0;" glyph-name="Eth" horiz-adv-x="628" d="M33 72H56Q76 72 84 81T93 110V286H33V360H93V538Q93 557 85 565T56 574H33V647H321Q460 647 527 562T595 321Q595 175 526 88T321 0H33V72ZM307 72Q405 72 448 134T491 321Q491 449 448 512T307
575H199V360H336V286H199V72H307Z" />
<glyph unicode="&#xd1;" glyph-name="Ntilde" horiz-adv-x="691" d="M153 771T179 804T262 838Q288 838 310 830T357 807Q379 795 392 790T421 784Q444 784 454 796T465 838H543Q543 766 517 734T436 701Q410 701 389 709T343 731Q322 742 307 748T276 754Q253
754 242 742T231 701H153Q153 771 179 804ZM33 74H62Q82 74 90 82T99 110V537Q99 556 91 564T62 573H33V647H182L487 174V537Q487 556 478 564T450 573H420V647H658V573H628Q609 573 601 565T592 537V0H509L204 472V110Q204 91 213 83T241 74H270V0H33V74Z" />
<glyph unicode="&#xd2;" glyph-name="Ograve" horiz-adv-x="659" d="M164 880H290L370 701H278L164 880ZM179 -15T106 68T33 321Q33 492 104 577T330 662Q483 662 554 577T626 321Q626 152 553 69T330 -15Q179 -15 106 68ZM428 59T475 120T522 321Q522 464 476
526T330 588Q230 588 184 526T137 321Q137 181 184 120T330 59Q428 59 475 120Z" />
<glyph unicode="&#xd3;" glyph-name="Oacute" horiz-adv-x="659" d="M340 880H465L351 701H260L340 880ZM179 -15T106 68T33 321Q33 492 104 577T330 662Q483 662 554 577T626 321Q626 152 553 69T330 -15Q179 -15 106 68ZM428 59T475 120T522 321Q522 464 476
526T330 588Q230 588 184 526T137 321Q137 181 184 120T330 59Q428 59 475 120Z" />
<glyph unicode="&#xd4;" glyph-name="Ocircumflex" horiz-adv-x="659" d="M277 889H380L505 701H405L328 827L251 701H152L277 889ZM179 -15T106 68T33 321Q33 492 104 577T330 662Q483 662 554 577T626 321Q626 152 553 69T330 -15Q179 -15 106 68ZM428 59T475
120T522 321Q522 464 476 526T330 588Q230 588 184 526T137 321Q137 181 184 120T330 59Q428 59 475 120Z" />
<glyph unicode="&#xd5;" glyph-name="Otilde" horiz-adv-x="659" d="M133 771T159 804T242 838Q268 838 290 830T337 807Q359 795 372 790T401 784Q424 784 434 796T445 838H523Q523 766 497 734T416 701Q390 701 369 709T323 731Q302 742 287 748T256 754Q233
754 222 742T211 701H133Q133 771 159 804ZM179 -15T106 68T33 321Q33 492 104 577T330 662Q483 662 554 577T626 321Q626 152 553 69T330 -15Q179 -15 106 68ZM428 59T475 120T522 321Q522 464 476 526T330 588Q230 588 184 526T137 321Q137 181 184 120T330 59Q428
59 475 120Z" />
<glyph unicode="&#xd6;" glyph-name="Odieresis" horiz-adv-x="659" d="M176 816H268V720H176V816ZM389 816H482V720H389V816ZM179 -15T106 68T33 321Q33 492 104 577T330 662Q483 662 554 577T626 321Q626 152 553 69T330 -15Q179 -15 106 68ZM428 59T475 120T522
321Q522 464 476 526T330 588Q230 588 184 526T137 321Q137 181 184 120T330 59Q428 59 475 120Z" />
<glyph unicode="&#xd7;" glyph-name="multiply" horiz-adv-x="367" d="M44 226L124 306L43 388L103 446L183 365L265 446L324 388L243 306L324 226L264 167L184 247L103 166L44 226Z" />
<glyph unicode="&#xd8;" glyph-name="Oslash" horiz-adv-x="659" d="M180 14Q105 48 69 124T33 321Q33 492 104 577T330 662Q377 662 416 653L430 689H485L466 639Q548 606 587 527T626 321Q626 152 553 69T330 -15Q273 -15 228 -3L214 -43H159L180 14ZM390 581Q358
588 330 588Q230 588 184 526T137 321Q137 235 155 180T210 96L390 581ZM428 59T475 120T522 321Q522 417 501 475T437 561L255 70Q285 59 330 59Q428 59 475 120Z" />
<glyph unicode="&#xd9;" glyph-name="Ugrave" horiz-adv-x="661" d="M159 880H285L365 701H273L159 880ZM207 -15T145 38T83 182V539Q83 558 75 566T46 575H23V647H244V575H225Q206 575 198 566T189 537V176Q189 116 224 87T330 58Q471 58 471 176V537Q471 557
463 566T434 575H415V647H638V575H614Q595 575 586 567T577 539V182Q577 91 515 38T330 -15Q207 -15 145 38Z" />
<glyph unicode="&#xda;" glyph-name="Uacute" horiz-adv-x="661" d="M339 880H464L350 701H259L339 880ZM207 -15T145 38T83 182V539Q83 558 75 566T46 575H23V647H244V575H225Q206 575 198 566T189 537V176Q189 116 224 87T330 58Q471 58 471 176V537Q471 557
463 566T434 575H415V647H638V575H614Q595 575 586 567T577 539V182Q577 91 515 38T330 -15Q207 -15 145 38Z" />
<glyph unicode="&#xdb;" glyph-name="Ucircumflex" horiz-adv-x="661" d="M279 889H382L507 701H407L330 827L253 701H154L279 889ZM207 -15T145 38T83 182V539Q83 558 75 566T46 575H23V647H244V575H225Q206 575 198 566T189 537V176Q189 116 224 87T330 58Q471
58 471 176V537Q471 557 463 566T434 575H415V647H638V575H614Q595 575 586 567T577 539V182Q577 91 515 38T330 -15Q207 -15 145 38Z" />
<glyph unicode="&#xdc;" glyph-name="Udieresis" horiz-adv-x="662" d="M178 816H270V720H178V816ZM391 816H484V720H391V816ZM207 -15T145 38T83 182V539Q83 558 75 566T46 575H23V647H244V575H225Q206 575 198 566T189 537V176Q189 116 224 87T330 58Q471 58
471 176V537Q471 557 463 566T434 575H415V647H638V575H614Q595 575 586 567T577 539V182Q577 91 515 38T330 -15Q207 -15 145 38Z" />
<glyph unicode="&#xdd;" glyph-name="Yacute" horiz-adv-x="666" d="M356 880H481L367 701H276L356 880ZM221 72H244Q264 72 272 81T281 109V237L119 535Q106 558 93 566T56 575H33V647H251V575H237Q215 575 215 562Q215 553 223 539L334 324L444 539Q451 552
451 562Q451 575 430 575H415V647H633V575H610Q586 575 573 567T547 535L386 237V109Q386 90 395 81T423 72H446V0H221V72Z" />
<glyph unicode="&#xde;" glyph-name="Thorn" horiz-adv-x="621" d="M33 73H60Q79 73 87 81T97 101T99 139V537Q99 556 91 565T60 574H33V647H205V542H361Q476 542 532 494T588 343Q588 248 533 193T375 137H205V109Q205 90 213 82T244 73H270V0H33V73ZM361 211Q424
211 454 243T485 343Q485 412 456 440T361 468H205V211H361Z" />
<glyph unicode="&#xdf;" glyph-name="germandbls" horiz-adv-x="637" d="M317 -15T260 20L295 81Q320 68 344 63T397 57Q446 57 473 89T500 188Q500 253 471 284T374 316H316V386H367Q485 386 485 516Q485 638 344 638Q205 638 205 506V0H33V73H62Q82 73 90 82T99
111V499Q99 597 159 654T342 712Q464 712 526 659T589 516Q589 462 567 417T500 353Q556 333 580 291T604 187Q604 94 553 40T403 -15Q317 -15 260 20Z" />
<glyph unicode="&#xe0;" glyph-name="agrave" horiz-adv-x="523" d="M88 705H214L294 526H202L88 705ZM106 -15T65 20T23 119Q23 191 68 224T200 264L340 273V334Q340 381 320 402T252 423Q219 423 198 418T158 400V364H65V443Q149 495 254 495Q446 495 446 325V106Q446
86 453 77T478 68H500V0H385L372 63Q340 22 298 4T186 -15Q106 -15 65 20ZM270 57T305 83T340 162V210L208 200Q159 197 140 180T121 124Q121 91 142 74T210 57Q270 57 305 83Z" />
<glyph unicode="&#xe1;" glyph-name="aacute" horiz-adv-x="523" d="M263 705H388L274 526H183L263 705ZM106 -15T65 20T23 119Q23 191 68 224T200 264L340 273V334Q340 381 320 402T252 423Q219 423 198 418T158 400V364H65V443Q149 495 254 495Q446 495 446
325V106Q446 86 453 77T478 68H500V0H385L372 63Q340 22 298 4T186 -15Q106 -15 65 20ZM270 57T305 83T340 162V210L208 200Q159 197 140 180T121 124Q121 91 142 74T210 57Q270 57 305 83Z" />
<glyph unicode="&#xe2;" glyph-name="acircumflex" horiz-adv-x="523" d="M184 713H287L412 525H312L235 651L158 525H59L184 713ZM106 -15T65 20T23 119Q23 191 68 224T200 264L340 273V334Q340 381 320 402T252 423Q219 423 198 418T158 400V364H65V443Q149
495 254 495Q446 495 446 325V106Q446 86 453 77T478 68H500V0H385L372 63Q340 22 298 4T186 -15Q106 -15 65 20ZM270 57T305 83T340 162V210L208 200Q159 197 140 180T121 124Q121 91 142 74T210 57Q270 57 305 83Z" />
<glyph unicode="&#xe3;" glyph-name="atilde" horiz-adv-x="523" d="M54 596T80 629T163 663Q189 663 211 655T258 632Q280 620 293 615T322 609Q345 609 355 621T366 663H444Q444 591 418 559T337 526Q311 526 290 534T244 556Q223 567 208 573T177 579Q154 579
143 567T132 526H54Q54 596 80 629ZM106 -15T65 20T23 119Q23 191 68 224T200 264L340 273V334Q340 381 320 402T252 423Q219 423 198 418T158 400V364H65V443Q149 495 254 495Q446 495 446 325V106Q446 86 453 77T478 68H500V0H385L372 63Q340 22 298 4T186 -15Q106
-15 65 20ZM270 57T305 83T340 162V210L208 200Q159 197 140 180T121 124Q121 91 142 74T210 57Q270 57 305 83Z" />
<glyph unicode="&#xe4;" glyph-name="adieresis" horiz-adv-x="523" d="M88 641H180V545H88V641ZM301 641H394V545H301V641ZM106 -15T65 20T23 119Q23 191 68 224T200 264L340 273V334Q340 381 320 402T252 423Q219 423 198 418T158 400V364H65V443Q149 495 254
495Q446 495 446 325V106Q446 86 453 77T478 68H500V0H385L372 63Q340 22 298 4T186 -15Q106 -15 65 20ZM270 57T305 83T340 162V210L208 200Q159 197 140 180T121 124Q121 91 142 74T210 57Q270 57 305 83Z" />
<glyph unicode="&#xe5;" glyph-name="aring" horiz-adv-x="523" d="M197 525T164 558T131 638Q131 685 164 718T244 752Q291 752 324 719T358 638Q358 591 325 558T244 525Q197 525 164 558ZM267 585T282 600T297 638Q297 661 282 676T244 692Q222 692 207 677T191
638Q191 616 206 601T244 585Q267 585 282 600ZM106 -15T65 20T23 119Q23 191 68 224T200 264L340 273V334Q340 381 320 402T252 423Q219 423 198 418T158 400V364H65V443Q149 495 254 495Q446 495 446 325V106Q446 86 453 77T478 68H500V0H385L372 63Q340 22 298
4T186 -15Q106 -15 65 20ZM270 57T305 83T340 162V210L208 200Q159 197 140 180T121 124Q121 91 142 74T210 57Q270 57 305 83Z" />
<glyph unicode="&#xe6;" glyph-name="ae" horiz-adv-x="846" d="M106 -15T65 20T23 119Q23 191 68 224T200 264L340 273V334Q340 381 320 402T252 423Q222 423 200 418T158 400V364H65V443Q149 495 252 495Q313 495 349 476T407 417Q435 456 482 475T587 495Q700
495 756 433T813 258V212H449Q449 134 491 94T595 54Q632 54 658 60T706 78V115H796V45Q757 14 709 0T594 -15Q529 -15 480 9T403 82Q374 32 318 9T186 -15Q106 -15 65 20ZM713 277Q713 354 682 388T586 423Q519 423 484 386T449 277H713ZM270 57T305 83T340 163V211L208
201Q159 198 140 181T121 125Q121 92 142 75T210 57Q270 57 305 83Z" />
<glyph unicode="&#xe7;" glyph-name="ccedilla" horiz-adv-x="516" d="M374 -53T393 -74T412 -133Q412 -179 378 -203T276 -228Q234 -228 201 -215V-153Q230 -166 266 -166Q323 -166 323 -130Q323 -104 305 -93T231 -82L242 -12Q149 2 91 66T33 236Q33 362 100
428T287 495Q352 495 396 481T481 436V340H388V395Q365 407 343 412T287 418Q220 418 179 374T137 236Q137 148 184 106T306 63Q352 63 384 71T446 98L483 37Q449 14 415 2T337 -13L331 -46Q374 -53 393 -74Z" />
<glyph unicode="&#xe8;" glyph-name="egrave" horiz-adv-x="539" d="M128 705H254L334 526H242L128 705ZM170 -15T102 48T33 234Q33 364 96 429T277 495Q390 495 448 431T506 258V212H139Q139 131 178 93T285 54Q323 54 349 59T396 78V114H489V44Q447 14 399 0T284
-15Q170 -15 102 48ZM403 277Q403 423 276 423Q209 423 174 384T139 277H403Z" />
<glyph unicode="&#xe9;" glyph-name="eacute" horiz-adv-x="539" d="M282 705H407L293 526H202L282 705ZM170 -15T102 48T33 234Q33 364 96 429T277 495Q390 495 448 431T506 258V212H139Q139 131 178 93T285 54Q323 54 349 59T396 78V114H489V44Q447 14 399 0T284
-15Q170 -15 102 48ZM403 277Q403 423 276 423Q209 423 174 384T139 277H403Z" />
<glyph unicode="&#xea;" glyph-name="ecircumflex" horiz-adv-x="539" d="M214 713H317L442 525H342L265 651L188 525H89L214 713ZM170 -15T102 48T33 234Q33 364 96 429T277 495Q390 495 448 431T506 258V212H139Q139 131 178 93T285 54Q323 54 349 59T396 78V114H489V44Q447
14 399 0T284 -15Q170 -15 102 48ZM403 277Q403 423 276 423Q209 423 174 384T139 277H403Z" />
<glyph unicode="&#xeb;" glyph-name="edieresis" horiz-adv-x="539" d="M112 633H204V537H112V633ZM325 633H418V537H325V633ZM170 -15T102 48T33 234Q33 364 96 429T277 495Q390 495 448 431T506 258V212H139Q139 131 178 93T285 54Q323 54 349 59T396 78V114H489V44Q447
14 399 0T284 -15Q170 -15 102 48ZM403 277Q403 423 276 423Q209 423 174 384T139 277H403Z" />
<glyph unicode="&#xec;" glyph-name="igrave" horiz-adv-x="285" d="M-16 705H110L190 526H98L-16 705ZM23 74H52Q72 74 80 83T89 112V369Q89 388 81 396T52 405H23V480H196V111Q196 92 205 83T233 74H262V0H23V74Z" />
<glyph unicode="&#xed;" glyph-name="iacute" horiz-adv-x="285" d="M157 705H282L168 526H77L157 705ZM23 74H52Q72 74 80 83T89 112V369Q89 388 81 396T52 405H23V480H196V111Q196 92 205 83T233 74H262V0H23V74Z" />
<glyph unicode="&#xee;" glyph-name="icircumflex" horiz-adv-x="285" d="M73 714H176L301 526H201L124 652L47 526H-52L73 714ZM23 74H52Q72 74 80 83T89 112V369Q89 388 81 396T52 405H23V480H196V111Q196 92 205 83T233 74H262V0H23V74Z" />
<glyph unicode="&#xef;" glyph-name="idieresis" horiz-adv-x="285" d="M-36 641H56V545H-36V641ZM177 641H270V545H177V641ZM23 74H52Q72 74 80 83T89 112V369Q89 388 81 396T52 405H23V480H196V111Q196 92 205 83T233 74H262V0H23V74Z" />
<glyph unicode="&#xf0;" glyph-name="eth" horiz-adv-x="578" d="M154 -15T94 37T33 199Q33 281 65 342T158 436T300 469Q345 469 380 453T440 404Q435 508 399 550L302 496L295 543L358 578Q339 588 302 588Q234 588 168 553L136 619Q209 662 320 662Q396 662
445 628L521 672L528 624L481 597Q544 524 544 373Q544 183 473 84T261 -15Q154 -15 94 37ZM337 59T379 107T428 256Q433 325 398 359T305 394Q229 394 189 355T139 240Q136 215 136 192Q136 182 138 162Q144 110 173 85T266 59Q337 59 379 107Z" />
<glyph unicode="&#xf1;" glyph-name="ntilde" horiz-adv-x="603" d="M93 596T119 629T202 663Q228 663 250 655T297 632Q319 620 332 615T361 609Q384 609 394 621T405 663H483Q483 591 457 559T376 526Q350 526 329 534T283 556Q262 567 247 573T216 579Q193
579 182 567T171 526H93Q93 596 119 629ZM33 74H58Q78 74 86 82T95 111V368Q95 388 87 396T59 405H38V480H166L172 413Q206 456 249 475T355 495Q515 495 515 329V111Q515 91 523 83T552 74H580V0H408V328Q408 378 387 400T319 423Q268 423 235 394T202 313V111Q202
91 209 83T236 74H262V0H33V74Z" />
<glyph unicode="&#xf2;" glyph-name="ograve" horiz-adv-x="558" d="M126 705H252L332 526H240L126 705ZM157 -15T95 52T33 239Q33 360 94 427T279 495Q402 495 463 428T525 239Q525 119 463 52T279 -15Q157 -15 95 52ZM351 60T386 104T421 239Q421 331 386 375T279
420Q207 420 173 376T138 239Q138 148 172 104T279 60Q351 60 386 104Z" />
<glyph unicode="&#xf3;" glyph-name="oacute" horiz-adv-x="558" d="M292 705H417L303 526H212L292 705ZM157 -15T95 52T33 239Q33 360 94 427T279 495Q402 495 463 428T525 239Q525 119 463 52T279 -15Q157 -15 95 52ZM351 60T386 104T421 239Q421 331 386 375T279
420Q207 420 173 376T138 239Q138 148 172 104T279 60Q351 60 386 104Z" />
<glyph unicode="&#xf4;" glyph-name="ocircumflex" horiz-adv-x="558" d="M216 713H319L444 525H344L267 651L190 525H91L216 713ZM157 -15T95 52T33 239Q33 360 94 427T279 495Q402 495 463 428T525 239Q525 119 463 52T279 -15Q157 -15 95 52ZM351 60T386 104T421
239Q421 331 386 375T279 420Q207 420 173 376T138 239Q138 148 172 104T279 60Q351 60 386 104Z" />
<glyph unicode="&#xf5;" glyph-name="otilde" horiz-adv-x="558" d="M73 596T99 629T182 663Q208 663 230 655T277 632Q299 620 312 615T341 609Q364 609 374 621T385 663H463Q463 591 437 559T356 526Q330 526 309 534T263 556Q242 567 227 573T196 579Q173 579
162 567T151 526H73Q73 596 99 629ZM157 -15T95 52T33 239Q33 360 94 427T279 495Q402 495 463 428T525 239Q525 119 463 52T279 -15Q157 -15 95 52ZM351 60T386 104T421 239Q421 331 386 375T279 420Q207 420 173 376T138 239Q138 148 172 104T279 60Q351 60 386
104Z" />
<glyph unicode="&#xf6;" glyph-name="odieresis" horiz-adv-x="558" d="M115 641H207V545H115V641ZM328 641H421V545H328V641ZM157 -15T95 52T33 239Q33 360 94 427T279 495Q402 495 463 428T525 239Q525 119 463 52T279 -15Q157 -15 95 52ZM351 60T386 104T421
239Q421 331 386 375T279 420Q207 420 173 376T138 239Q138 148 172 104T279 60Q351 60 386 104Z" />
<glyph unicode="&#xf7;" glyph-name="divide" horiz-adv-x="412" d="M166 462H245V386H166V462ZM43 343H369V270H43V343ZM166 227H245V151H166V227Z" />
<glyph unicode="&#xf8;" glyph-name="oslash" horiz-adv-x="558" d="M168 3Q101 29 67 89T33 239Q33 360 94 427T279 495Q304 495 344 489L361 535H415L393 475Q459 448 492 388T525 239Q525 119 463 52T279 -15Q250 -15 217 -10L202 -52H147L168 3ZM318 416Q294
420 279 420Q207 420 173 376T138 239Q138 126 197 85L318 416ZM351 60T386 104T421 239Q421 349 363 392L243 63Q260 60 279 60Q351 60 386 104Z" />
<glyph unicode="&#xf9;" glyph-name="ugrave" horiz-adv-x="588" d="M116 705H242L322 526H230L116 705ZM172 -15T130 28T88 151V369Q88 388 80 397T52 406H23V480H195V152Q195 55 289 55Q340 55 371 85T402 171V369Q402 388 395 397T369 406H341V480H508V111Q508
92 517 84T545 75H565V0H438L432 65Q400 23 358 4T254 -15Q172 -15 130 28Z" />
<glyph unicode="&#xfa;" glyph-name="uacute" horiz-adv-x="588" d="M294 705H419L305 526H214L294 705ZM172 -15T130 28T88 151V369Q88 388 80 397T52 406H23V480H195V152Q195 55 289 55Q340 55 371 85T402 171V369Q402 388 395 397T369 406H341V480H508V111Q508
92 517 84T545 75H565V0H438L432 65Q400 23 358 4T254 -15Q172 -15 130 28Z" />
<glyph unicode="&#xfb;" glyph-name="ucircumflex" horiz-adv-x="588" d="M218 713H321L446 525H346L269 651L192 525H93L218 713ZM172 -15T130 28T88 151V369Q88 388 80 397T52 406H23V480H195V152Q195 55 289 55Q340 55 371 85T402 171V369Q402 388 395 397T369
406H341V480H508V111Q508 92 517 84T545 75H565V0H438L432 65Q400 23 358 4T254 -15Q172 -15 130 28Z" />
<glyph unicode="&#xfc;" glyph-name="udieresis" horiz-adv-x="588" d="M116 641H208V545H116V641ZM329 641H422V545H329V641ZM172 -15T130 28T88 151V369Q88 388 80 397T52 406H23V480H195V152Q195 55 289 55Q340 55 371 85T402 171V369Q402 388 395 397T369
406H341V480H508V111Q508 92 517 84T545 75H565V0H438L432 65Q400 23 358 4T254 -15Q172 -15 130 28Z" />
<glyph unicode="&#xfd;" glyph-name="yacute" horiz-adv-x="566" d="M289 705H414L300 526H209L289 705ZM189 -200T117 -131V-59H210V-95Q243 -131 307 -131Q359 -131 385 -101T412 -13V58Q384 30 350 18T271 5Q185 5 137 49T89 175V369Q89 388 80 397T52 406H23V480H195V172Q195
74 292 74Q344 74 375 103T406 189V369Q406 389 399 397T372 406H346V480H513V9Q513 -86 459 -143T311 -200Q189 -200 117 -131Z" />
<glyph unicode="&#xfe;" glyph-name="thorn" horiz-adv-x="598" d="M33 -136H50Q73 -136 81 -126T90 -91V550Q90 589 54 589H33V662H186V415Q215 456 255 475T352 495Q452 495 508 430T565 245Q565 121 510 53T353 -15Q299 -15 263 1T193 56V-91Q193 -115 201
-125T233 -136H250V-208H33V-136ZM398 63T429 105T461 244Q461 337 431 377T331 418Q268 418 232 377T196 266V210Q196 139 232 101T327 63Q398 63 429 105Z" />
<glyph unicode="&#xff;" glyph-name="ydieresis" horiz-adv-x="566" d="M119 641H211V545H119V641ZM332 641H425V545H332V641ZM189 -200T117 -131V-59H210V-95Q243 -131 307 -131Q359 -131 385 -101T412 -13V58Q384 30 350 18T271 5Q185 5 137 49T89 175V369Q89
388 80 397T52 406H23V480H195V172Q195 74 292 74Q344 74 375 103T406 189V369Q406 389 399 397T372 406H346V480H513V9Q513 -86 459 -143T311 -200Q189 -200 117 -131Z" />
<glyph unicode="&#x2013;" glyph-name="endash" horiz-adv-x="534" d="M43 339H491V266H43V339Z" />
<glyph unicode="&#x2014;" glyph-name="emdash" horiz-adv-x="688" d="M43 339H645V266H43V339Z" />
<glyph unicode="&#x2018;" glyph-name="quoteleft" horiz-adv-x="260" d="M128 662H217L163 456H43L128 662Z" />
<glyph unicode="&#x2019;" glyph-name="quoteright" horiz-adv-x="260" d="M97 662H217L132 456H43L97 662Z" />
<glyph unicode="&#x201a;" glyph-name="quotesinglbase" horiz-adv-x="260" d="M97 90H217L132 -116H43L97 90Z" />
<glyph unicode="&#x201c;" glyph-name="quotedblleft" horiz-adv-x="410" d="M128 662H206L152 456H43L128 662ZM289 662H367L313 456H204L289 662Z" />
<glyph unicode="&#x201d;" glyph-name="quotedblright" horiz-adv-x="410" d="M97 662H206L121 456H43L97 662ZM258 662H367L282 456H204L258 662Z" />
<glyph unicode="&#x201e;" glyph-name="quotedblbase" horiz-adv-x="426" d="M97 90H213L128 -116H43L97 90ZM266 90H383L298 -116H213L266 90Z" />
<glyph unicode="&#x2022;" glyph-name="bullet" horiz-adv-x="315" d="M110 222T77 255T43 337Q43 384 76 417T157 451Q205 451 238 418T272 337Q272 289 239 256T157 222Q110 222 77 255Z" />
<glyph unicode="&#x2039;" glyph-name="guilsinglleft" horiz-adv-x="356" d="M43 298V351L313 568V458L145 324L313 191V81L43 298Z" />
<glyph unicode="&#x203a;" glyph-name="guilsinglright" horiz-adv-x="356" d="M43 191L212 324L43 458V568L313 351V298L43 81V191Z" />
</font>
</defs>
</svg>
