<?xml version="1.0" standalone="no"?>
<!DOCTYPE svg PUBLIC "-//W3C//DTD SVG 1.1//EN" "http://www.w3.org/Graphics/SVG/1.1/DTD/svg11.dtd">
<svg xmlns="http://www.w3.org/2000/svg">
<defs >
<font id="AmaticSC" horiz-adv-x="717" ><font-face
    font-family="Amatic SC"
    units-per-em="2048"
    panose-1="0 0 8 0 0 0 0 0 0 0"
    ascent="2081"
    descent="-501"
    alphabetic="0" />
<glyph unicode=" " glyph-name="space" horiz-adv-x="375" />
<glyph unicode="!" glyph-name="exclam" horiz-adv-x="424" d="M204 306T187 356Q169 406 169 507Q169 546 173 654Q177 755 177 821Q177 909 172 1157Q167 1405 167 1493Q167 1525 193 1548T254 1572Q275 1572 289 1558T304 1522Q304 1358 283 1032Q261 714 261
543Q261 436 258 387T248 322T225 306Q204 306 187 356ZM163 -46T142 -24T120 33Q120 69 145 97T205 125Q243 125 266 97T289 26Q289 -46 188 -46Q163 -46 142 -24Z" />
<glyph unicode="&quot;" glyph-name="quotedbl" horiz-adv-x="682" d="M218 1193T215 1318T212 1531Q212 1551 224 1564T253 1578Q294 1578 302 1525Q302 1521 303 1518V1511Q303 1451 292 1376T263 1247T228 1193H221Q218 1193 215 1318ZM418 1193T408 1319T398
1531Q398 1550 417 1564T459 1578Q484 1578 493 1531Q490 1438 473 1313Q457 1193 434 1193H427Q418 1193 408 1319Z" />
<glyph unicode="#" glyph-name="numbersign" horiz-adv-x="862" d="M462 -81T462 -37Q462 77 493 279Q524 480 527 581Q486 585 385 585L335 582Q331 558 327 479Q313 261 297 128Q287 36 267 -22Q248 -80 224 -80Q202 -80 184 -68T166 -36Q166 207 237 576Q187
571 177 571Q92 571 92 637Q92 683 188 683Q209 683 224 682L250 681Q269 786 281 948L230 945Q133 945 133 1004V1014L163 1047H195Q209 1046 226 1046Q257 1046 289 1049L307 1175Q321 1266 327 1331T334 1457V1475Q333 1483 333 1494Q333 1530 344 1548T386
1567H401L424 1520Q424 1440 406 1287Q389 1138 387 1058Q403 1054 442 1054H478Q531 1054 566 1062Q592 1187 618 1386L621 1410L640 1535Q664 1566 693 1566Q709 1566 725 1553T741 1525Q741 1448 706 1294Q669 1140 668 1067H734L777 1020Q773 1001 768 990T752
969Q741 959 723 959L656 962Q632 851 631 698L641 699H652Q737 699 737 637H738Q737 586 660 586H654L624 587Q618 513 603 390Q586 250 577 149T568 -39L533 -81Q462 -81 462 -37ZM473 685T524 691Q556 876 557 952Q520 960 461 960Q410 960 375 954Q349 858
343 686Q348 685 368 685Q473 685 524 691Z" />
<glyph unicode="$" glyph-name="dollar" horiz-adv-x="846" d="M421 -258T421 -195V-179L417 -43Q401 -45 380 -45Q306 -45 254 -18Q221 -2 221 24Q221 48 233 63T267 79Q291 79 328 64Q364 48 380 48Q401 48 414 52L392 774Q304 893 259 963T190 1102T166 1245Q166
1331 220 1411T369 1535L367 1608Q367 1662 394 1662Q411 1662 425 1640T439 1586V1559Q502 1574 564 1574Q601 1574 636 1553T685 1500L650 1456Q631 1456 577 1464Q529 1471 499 1471Q467 1471 443 1464L472 822Q523 756 552 713T614 608Q680 486 680 342Q680
232 637 134T516 -10V-165Q516 -258 457 -258Q421 -258 421 -195ZM382 1046T372 1433Q321 1402 293 1353T265 1258Q265 1178 295 1102T387 937Q382 1046 372 1433ZM541 159T563 226T586 345Q586 481 480 647L504 113Q541 159 563 226Z" />
<glyph unicode="%" glyph-name="percent" horiz-adv-x="1179" d="M197 700T158 754Q136 784 122 813T100 881Q90 930 85 960T78 1033Q75 1094 75 1163Q75 1260 108 1392Q126 1463 162 1508T244 1553Q473 1553 473 1147V1140L472 1141Q461 1110 458 1060T454 924Q453
858 439 809T387 731Q346 700 270 700Q197 700 158 754ZM357 15T357 52Q357 180 455 566Q535 885 626 1220L686 1438L687 1437Q688 1473 703 1504T744 1536Q766 1536 782 1522T798 1487Q798 1343 617 663Q538 365 526 308Q525 305 523 293T516 251Q506 199 498
164T476 87Q444 -7 396 -8Q357 15 357 52ZM379 800T379 1092Q379 1449 251 1449Q236 1449 218 1395T187 1270T174 1165Q174 1118 179 1043Q185 958 205 881Q214 844 230 822T267 800Q379 800 379 1092ZM803 2T772 30T722 103Q705 143 693 195T676 293Q672 332 672
370Q672 438 675 499Q677 541 682 573T697 654Q705 693 719 723T755 783Q795 838 867 838Q909 838 943 821T999 774Q1045 708 1057 631Q1069 554 1069 478V378Q1069 312 1059 253T1027 136Q1003 74 955 38T840 2Q803 2 772 30ZM969 116T969 386V467Q969 535 951
624Q941 674 918 703T861 733Q831 733 812 687Q784 623 773 452Q770 404 770 366Q770 335 782 273T811 164T845 116Q969 116 969 386Z" />
<glyph unicode="&amp;" glyph-name="ampersand" horiz-adv-x="990" d="M308 -12T241 39T137 170Q102 248 102 324Q102 403 118 510Q122 543 141 596L166 669Q173 689 198 742T239 826Q248 846 284 915Q284 966 277 1054Q270 1141 270 1196V1366Q270 1439 305 1476T398
1514Q448 1514 497 1489T577 1421T608 1330Q608 1210 568 1111T442 914Q433 899 423 885Q390 839 390 816Q390 758 426 625T512 368T595 208Q659 352 659 570V579Q651 579 647 580T640 586Q638 589 637 590T635 593Q633 595 630 604L625 614V666Q680 666 752 673T857
692Q915 680 915 638Q915 609 884 596T808 582Q806 582 805 583H802H751Q751 256 667 145Q729 82 797 82Q811 82 839 85Q866 88 880 88L918 57Q918 18 892 4T814 -11Q723 -11 616 66Q501 -12 385 -12Q308 -12 241 39ZM423 1035T469 1123T516 1261Q516 1287 500
1325T461 1392T415 1420Q386 1420 363 1370V1261L365 1124Q366 1063 366 986V963Q423 1035 469 1123ZM437 73T484 90T553 128Q363 402 305 759Q197 590 197 359Q197 254 243 169Q267 125 308 99T403 73Q437 73 484 90Z" />
<glyph unicode="&apos;" glyph-name="quotesingle" horiz-adv-x="538" d="M232 1193T222 1319T212 1531Q212 1550 231 1564T273 1578Q310 1578 327 1531L322 1525Q322 1521 323 1518V1511Q323 1451 312 1376T283 1247T248 1193H241Q232 1193 222 1319Z" />
<glyph unicode="(" glyph-name="parenleft" horiz-adv-x="596" d="M404 -361T355 -249Q310 -146 278 7T218 366Q196 534 184 673T172 881Q172 937 187 1057T229 1310Q254 1445 300 1549Q344 1651 393 1651H402L438 1621Q438 1589 428 1558T394 1478Q385 1460 365
1416Q321 1308 298 1165T274 879Q274 583 312 313T428 -130Q440 -155 459 -188Q502 -267 516 -319L514 -318Q496 -361 458 -361Q404 -361 355 -249Z" />
<glyph unicode=")" glyph-name="parenright" horiz-adv-x="626" d="M112 -303T96 -289T80 -255Q80 -227 137 -125Q162 -80 166 -71Q215 36 254 194T317 519T340 816Q340 978 317 1143T249 1416Q242 1434 220 1475Q197 1518 186 1549T175 1610V1621L212 1650Q271
1650 317 1542Q389 1377 429 1007Q441 894 443 817V815Q443 745 418 570T353 196Q312 -5 253 -152Q193 -303 134 -303Q112 -303 96 -289Z" />
<glyph unicode="*" glyph-name="asterisk" horiz-adv-x="934" d="M207 736L206 745Q209 786 281 927Q352 1069 362 1096H121Q86 1096 73 1106T59 1150Q59 1169 72 1182T105 1196H348L325 1243Q286 1317 253 1388Q234 1427 223 1459Q212 1489 212 1501Q212 1521
228 1534T268 1547Q293 1547 324 1489Q353 1432 384 1349Q409 1280 419 1258Q424 1270 436 1312Q465 1409 492 1474Q510 1518 531 1542T572 1567Q594 1567 611 1551T629 1512Q629 1462 549 1288Q541 1271 506 1194Q549 1189 598 1189Q604 1189 657 1194Q710 1199
733 1199Q837 1199 837 1137Q837 1085 766 1085Q731 1085 633 1090Q554 1094 499 1094Q506 1074 578 935Q651 792 651 752Q651 730 636 715T599 700Q563 700 544 736T521 821L434 1011Q426 991 398 911Q368 829 347 779T300 690H251L207 736Z" />
<glyph unicode="+" glyph-name="plus" horiz-adv-x="900" d="M413 333T393 348T372 385Q372 418 366 485Q359 547 359 584V599Q342 599 306 595Q261 590 245 590Q158 590 158 655Q158 677 171 692T204 708Q225 708 265 705Q301 701 325 701Q353 701 372 705L366
777Q360 828 360 855Q360 968 426 968Q449 968 463 951T478 909V884L480 834Q480 813 481 800Q481 767 488 732Q491 715 495 709Q500 701 505 701Q520 701 557 705Q593 709 624 709Q730 709 730 647Q730 623 713 607T672 591Q652 591 612 597Q567 602 551 602Q486
602 486 553Q486 523 496 472Q505 417 505 389Q505 365 485 349T438 333Q413 333 393 348Z" />
<glyph unicode="," glyph-name="comma" horiz-adv-x="563" d="M173 -202T165 -195T156 -175Q156 -151 181 -130Q205 -103 222 -48T247 64Q254 116 274 150T327 185Q398 185 398 77Q398 28 367 -36T286 -151Q235 -202 186 -202Q173 -202 165 -195Z" />
<glyph unicode="-" glyph-name="hyphen" horiz-adv-x="772" d="M204 656T184 673T164 715Q164 740 213 758Q286 785 454 795Q505 798 538 798Q565 798 585 781T606 739Q606 714 558 696Q488 669 316 659Q265 656 231 656Q204 656 184 673Z" />
<glyph unicode="." glyph-name="period" horiz-adv-x="592" d="M254 -32T233 -10T212 41Q212 72 235 96T289 120Q318 120 340 97T362 43Q362 10 340 -11T281 -32Q254 -32 233 -10Z" />
<glyph unicode="/" glyph-name="slash" horiz-adv-x="754" d="M170 -54T163 -42T156 -9Q156 8 162 30Q172 64 340 743Q507 1419 548 1553Q553 1567 568 1567Q583 1567 594 1554T605 1520L603 1503Q574 1354 491 1011T323 361T200 -31Q195 -54 180 -54Q170 -54 163 -42Z" />
<glyph unicode="0" glyph-name="zero" horiz-adv-x="658" d="M90 7T90 1158V1222Q90 1299 98 1356T124 1462Q142 1512 177 1537T264 1563Q558 1563 558 521Q558 7 338 7Q90 7 90 1158ZM388 100T410 161Q445 252 459 463Q463 523 463 568Q463 713 450 931Q438 1135
388 1320Q364 1407 326 1459T241 1518Q209 1492 199 1466T188 1395Q188 1313 192 1193Q196 1073 196 990Q196 959 207 890Q217 827 217 790Q217 727 224 566Q231 406 262 257Q276 184 301 142T357 100Q388 100 410 161Z" />
<glyph unicode="1" glyph-name="one" horiz-adv-x="550" d="M180 -9T166 2T152 47Q152 71 162 78T205 86Q250 86 250 120Q250 328 219 719Q188 1110 188 1308L190 1344Q191 1361 191 1383Q191 1479 120 1479L98 1478Q87 1477 73 1477Q15 1477 15 1521Q15 1575
180 1575Q266 1575 285 1541Q273 1486 273 1455Q273 1388 289 1267Q304 1143 304 1079Q304 910 326 595Q348 278 348 109V96Q354 97 367 98T400 101Q408 102 423 102V103Q510 103 510 52Q510 -8 277 -8H244Q233 -9 216 -9Q180 -9 166 2Z" />
<glyph unicode="2" glyph-name="two" horiz-adv-x="702" d="M145 -15T123 2T100 47V55Q125 84 143 123T183 220Q202 276 213 299Q334 568 389 783T444 1236Q444 1492 346 1500Q329 1491 318 1463T301 1402Q296 1370 281 1349T240 1327Q190 1327 190 1390Q190 1434
204 1476T248 1552Q279 1586 322 1586V1587Q388 1587 439 1557Q471 1538 504 1478Q522 1446 534 1371Q539 1330 542 1256V1201Q542 1062 509 899T428 608Q370 453 321 332Q262 186 229 86Q354 107 471 107Q514 76 514 49Q514 27 487 4Q435 4 331 -5Q232 -15 175
-15Q145 -15 123 2Z" />
<glyph unicode="3" glyph-name="three" horiz-adv-x="684" d="M254 -20T208 20Q181 43 181 76Q181 97 187 103T215 110Q232 110 243 99Q259 82 274 73T316 64Q441 64 441 294Q441 395 439 449T425 580Q403 742 316 849Q308 847 295 847Q269 847 251 858T232 889Q232
907 250 933T298 992Q324 1021 343 1064T363 1150Q363 1226 345 1337Q335 1399 311 1438T256 1477Q233 1477 216 1460T191 1419Q183 1395 165 1378T121 1360Q98 1360 81 1376T60 1416Q89 1488 141 1530T260 1573Q307 1573 345 1543T407 1464Q427 1418 441 1356T461
1236Q465 1187 465 1124Q465 1097 457 1068T437 1021L404 972L373 927Q420 899 456 829T511 667Q544 498 544 361Q544 277 534 197Q528 151 514 116T476 47Q454 14 417 -3T332 -20Q254 -20 208 20Z" />
<glyph unicode="4" glyph-name="four" horiz-adv-x="620" d="M384 -38T366 -8T348 59V66Q359 105 359 140Q359 178 352 240Q344 310 344 339Q344 364 345 384Q346 403 346 428Q346 466 342 491L289 485Q246 480 230 480V479Q192 479 150 512Q150 558 159 591Q150
639 150 706Q150 780 166 917Q181 1058 181 1124V1503Q181 1517 183 1524T194 1537Q203 1543 220 1543Q244 1543 262 1529T281 1492Q281 1460 277 1413Q272 1355 272 1333V1315Q271 1306 271 1296Q271 1274 275 1259V1252Q281 1198 281 1143Q281 1062 267 883Q252
709 252 622Q252 599 255 576Q294 578 330 587Q330 693 340 877Q349 1071 349 1160Q349 1180 366 1193T402 1206L434 1170V1072Q434 736 430 596L455 599Q483 601 489 601Q550 601 550 557Q550 507 468 507Q435 507 435 489Q435 405 441 291T456 155Q452 134 452
117Q452 91 461 76V39Q461 6 449 -16T413 -38Q384 -38 366 -8Z" />
<glyph unicode="5" glyph-name="five" horiz-adv-x="675" d="M245 -37T245 21Q245 43 263 55T308 67Q338 67 361 50Q392 61 416 108T453 216T467 328Q467 431 464 502Q462 553 458 586T445 668Q437 711 426 739T396 802Q379 832 357 849T302 880Q269 891 234 891Q210
891 194 901T171 930Q159 963 159 1008Q159 1026 165 1060Q170 1098 170 1112Q170 1198 159 1287L134 1457L120 1540L155 1576H322Q407 1576 407 1524V1513L369 1482H318V1488H231Q235 1375 271 1002Q273 1001 311 998Q344 995 358 993T397 983Q420 976 437 965Q481
935 513 829T556 610Q565 511 565 434Q565 387 565 353T561 278Q558 235 553 210T533 142Q521 107 504 81T456 22Q428 -8 392 -36H376Q368 -37 357 -37Q245 -37 245 21Z" />
<glyph unicode="6" glyph-name="six" horiz-adv-x="580" d="M268 -14T232 18T172 110Q148 173 133 239T112 391Q100 550 100 706Q100 763 101 802V880Q101 1586 321 1586Q337 1586 353 1573T369 1545Q369 1519 346 1500T291 1475Q267 1452 246 1343T214 1117Q205
1018 202 949Q219 952 234 952Q281 952 320 921T386 839Q409 793 428 724T458 586Q466 527 472 451T479 327Q480 298 480 236Q480 187 478 159T467 97Q457 60 440 38T392 1Q361 -14 315 -14Q268 -14 232 18ZM384 73T384 212Q384 346 360 576Q346 700 317 786Q287
874 246 882Q220 863 211 838T201 770Q201 727 204 605Q207 503 219 372Q229 262 258 164Q271 120 289 97T331 73Q384 73 384 212Z" />
<glyph unicode="7" glyph-name="seven" horiz-adv-x="615" d="M150 24Q150 68 172 134L187 182Q267 486 315 831T371 1494Q343 1498 323 1498Q301 1498 206 1487L123 1479Q103 1489 89 1505T75 1539Q75 1558 136 1570T333 1582H371Q403 1582 419 1579T451 1563Q467
1550 475 1523Q438 1343 388 810Q368 607 336 416T268 119Q269 116 269 101Q269 60 246 25T189 -11L150 24Z" />
<glyph unicode="8" glyph-name="eight" horiz-adv-x="644" d="M283 -82T249 -54T197 22Q165 105 165 198Q165 313 213 542Q261 772 261 863Q261 918 241 991T191 1135Q161 1204 141 1281T120 1421Q120 1501 157 1554T262 1607H305Q369 1568 394 1530Q410 1506
417 1488T428 1440Q433 1388 433 1313Q433 1256 428 1211Q424 1183 422 1163Q419 1136 405 1062Q392 995 384 962L372 910L361 862Q432 697 477 491T523 119Q523 111 524 104V90L522 70Q521 66 521 61V60Q458 -82 327 -82Q283 -82 249 -54ZM342 1166T342 1312Q342
1344 336 1393T317 1479T291 1516L269 1515H248V1516Q220 1485 220 1413Q220 1348 245 1219T297 1007Q342 1166 342 1312ZM380 6T404 42T429 140Q429 272 403 409T318 750Q290 656 275 501T260 190V188Q260 138 286 81V71Q289 47 300 27T329 6Q380 6 404 42Z" />
<glyph unicode="9" glyph-name="nine" horiz-adv-x="575" d="M278 4Q310 102 310 686L308 819L306 931Q230 948 171 993T79 1103T45 1243Q45 1291 49 1334T66 1428Q79 1484 100 1522T157 1587Q194 1614 243 1614Q309 1614 346 1594T399 1532T415 1420Q415 1224
403 829Q391 435 391 237Q391 211 384 165Q377 119 377 90Q377 80 378 71V49Q378 13 361 -10T310 -34L278 4ZM317 1165T317 1427Q317 1478 302 1502T244 1527Q217 1527 196 1494T164 1408Q145 1310 145 1247Q145 1203 152 1166Q153 1150 161 1135Q163 1131 172
1110Q177 1099 188 1089Q202 1075 206 1072Q211 1067 226 1057T252 1041Q258 1037 279 1026L308 1009Q317 1165 317 1427Z" />
<glyph unicode=":" glyph-name="colon" horiz-adv-x="592" d="M266 951T246 973T225 1024Q225 1054 248 1078T301 1103Q330 1103 352 1080T374 1026Q374 993 352 972T293 951Q266 951 246 973ZM246 177T225 199T204 250Q204 281 227 305T281 329Q310 329 331 306T353
252Q353 219 330 198T273 177Q246 177 225 199Z" />
<glyph unicode=";" glyph-name="semicolon" horiz-adv-x="610" d="M305 952T285 974T264 1025Q264 1055 287 1079T340 1104Q369 1104 391 1081T413 1027Q413 994 391 973T332 952Q305 952 285 974ZM205 -28T197 -21T188 -1Q188 23 213 44Q239 82 252 163Q264 239
281 302Q295 359 329 359Q400 359 400 251Q400 202 374 138T304 23Q261 -28 218 -28Q205 -28 197 -21Z" />
<glyph unicode="&lt;" glyph-name="less" horiz-adv-x="774" d="M517 -22T467 38T367 199Q294 349 206 579Q169 675 158 698Q159 719 190 814T271 1035T372 1272Q451 1447 481 1447H484Q485 1446 488 1446L533 1411Q525 1344 485 1241T394 1037Q343 938 309 847T275
702Q275 687 412 401T586 49H612Q610 20 596 -1T558 -22Q517 -22 467 38Z" />
<glyph unicode="=" glyph-name="equal" horiz-adv-x="882" d="M474 764T426 766Q407 767 368 770H359L324 769Q288 767 281 767Q158 767 158 826Q158 847 170 859T204 872H571Q730 872 730 818Q730 764 514 764Q474 764 426 766ZM616 579T456 584Q296 589 240
589Q158 589 158 634Q158 655 170 667T204 680H511Q720 680 720 626Q720 605 707 592T672 579Q616 579 456 584Z" />
<glyph unicode="&gt;" glyph-name="greater" horiz-adv-x="774" d="M183 -23T171 -10T158 24Q158 59 225 194T401 533Q482 683 482 702Q482 756 458 829T392 982Q376 1014 367 1030Q322 1119 297 1171T253 1279Q227 1353 225 1411L280 1446V1444Q318 1427 395
1265T538 917Q599 743 600 698L239 -19Q236 -19 220 -21Q204 -23 201 -23Q183 -23 171 -10Z" />
<glyph unicode="?" glyph-name="question" horiz-adv-x="545" d="M222 223T210 269Q210 386 228 520T281 865Q287 897 297 959Q325 1128 325 1258Q325 1447 264 1447Q225 1447 225 1356Q225 1343 239 1245Q239 1243 229 1233Q218 1222 203 1213T178 1203Q120 1203
120 1340V1359Q120 1412 132 1450T175 1517Q208 1547 260 1547Q304 1547 338 1530T391 1484Q408 1459 419 1419T433 1340Q435 1294 435 1260Q435 1164 417 1061T373 867Q347 781 329 646T310 366Q310 254 311 229Q275 229 270 226Q264 223 260 223Q222 223 210
269ZM231 -8T210 16Q188 38 188 68Q188 97 213 122T268 148Q285 148 302 136T331 105T343 70Q343 31 321 12T260 -8Q231 -8 210 16Z" />
<glyph unicode="@" glyph-name="at" horiz-adv-x="1170" d="M90 -120T90 956Q90 1055 92 1106T103 1240Q112 1326 128 1384T180 1514Q213 1581 261 1622T385 1691Q457 1719 553 1719Q640 1719 713 1687T841 1598Q891 1545 931 1467T996 1303Q1018 1223 1033 1127T1055
941Q1060 846 1060 767Q1060 697 1055 643Q1051 603 1045 574T1025 511Q1012 478 994 457T948 421Q920 406 884 406Q834 406 781 519Q747 424 687 365T562 306Q493 306 442 352Q403 387 373 470Q363 498 355 541T342 625Q339 656 337 702T334 782Q333 799 333 851Q333
933 336 993Q338 1036 342 1067T355 1140Q363 1179 374 1206T404 1265Q421 1293 443 1310T498 1340Q531 1351 566 1351Q613 1351 653 1328T721 1265Q747 1229 769 1172T805 1054Q827 951 842 796L853 671Q860 587 863 565V556L892 510Q912 521 925 576T943 687Q945
749 945 776Q945 936 926 1080Q914 1169 895 1242T846 1382Q814 1454 773 1503T674 1582Q614 1612 543 1612Q480 1612 427 1594T339 1545Q307 1517 282 1471T242 1377Q230 1336 223 1274T213 1161Q211 1099 211 1050V930Q211 814 215 712Q218 633 223 571T240 431Q252
349 266 288T303 165Q327 102 355 61T423 -5Q463 -31 509 -31Q588 -31 657 -13T770 33Q810 57 845 86Q884 119 908 134T951 150Q969 150 969 130Q969 105 939 65T856 -16Q799 -61 705 -90T505 -120Q90 -120 90 956ZM605 410T636 445T690 527T713 605V759Q713 881
686 1044Q670 1134 639 1190T566 1246Q509 1246 474 1120Q440 996 440 825Q440 655 476 533Q512 410 578 410Q605 410 636 445Z" />
<glyph unicode="A" glyph-name="A" horiz-adv-x="716" d="M495 1T480 13T465 54V321Q438 340 366 354T226 373Q206 339 192 269L186 238Q170 156 157 105T125 23Q46 23 35 64Q55 91 86 256Q113 397 153 631Q199 903 237 1088T317 1401Q363 1543 407 1543Q451 1543
473 1525Q473 1449 513 1130Q553 811 553 710Q553 614 575 400Q596 180 596 70Q596 1 528 1Q495 1 480 13ZM439 441T463 447Q460 491 442 670Q395 1144 395 1236Q395 1251 396 1254Q376 1234 340 1069T273 715T239 464Q326 441 421 441Q439 441 463 447Z" />
<glyph unicode="B" glyph-name="B" horiz-adv-x="643" d="M124 -17T124 34Q124 99 129 286Q134 473 134 538Q134 695 127 954Q120 1213 120 1370V1382Q120 1412 122 1433T131 1480Q137 1507 154 1522T197 1537Q293 1537 363 1495T470 1376T507 1201Q507 1140 485
1073T424 948T341 859Q460 779 516 652T573 374Q573 300 525 197Q495 135 457 90T362 15Q300 -17 228 -17H220Q124 -17 124 34ZM265 894T288 917T330 977Q360 1036 387 1117Q400 1157 407 1173V1246Q407 1286 386 1327T331 1394T260 1421Q231 1421 231 1357Q231
1257 235 1117Q239 977 239 888Q265 894 288 917ZM315 100T364 139T440 237T467 369Q467 463 452 541T412 661Q389 699 366 726T327 762L311 769H238Q248 499 248 90Q315 100 364 139Z" />
<glyph unicode="C" glyph-name="C" horiz-adv-x="691" d="M347 -33T299 -7T217 66Q187 107 163 173T124 313Q111 376 103 462T93 630Q90 702 90 792Q90 867 91 922Q92 977 92 1037Q92 1151 106 1226Q100 1259 100 1290Q100 1372 142 1434T259 1531T426 1565Q459
1565 492 1552T547 1517T569 1465Q569 1444 553 1432T512 1419Q491 1419 468 1426T439 1444V1443H411V1448Q334 1448 285 1415Q266 1401 251 1377T227 1327Q220 1306 216 1270T210 1206Q209 1189 209 1140Q209 1116 212 1069Q215 1023 215 999Q215 975 206 928Q197
880 197 856V807Q197 703 202 588Q204 523 210 472T229 354Q240 296 256 253T299 169Q347 93 432 93Q467 93 519 130Q572 166 596 166Q625 166 656 135Q656 98 641 68T599 19Q574 1 540 -11T472 -28Q435 -33 405 -33Q347 -33 299 -7Z" />
<glyph unicode="D" glyph-name="D" horiz-adv-x="777" d="M186 -5T157 13T127 65Q172 112 172 306Q172 426 153 645Q134 864 134 982Q134 1018 137 1093Q140 1168 140 1206Q140 1263 118 1352Q95 1446 95 1481Q95 1552 252 1552H283Q340 1552 389 1534T476 1484Q509
1456 537 1412T586 1319Q603 1277 616 1221T638 1115Q643 1075 647 1022T652 933V868V773Q647 765 647 755Q647 745 650 731L652 711Q652 645 632 555T575 369Q532 262 482 182T368 50Q300 -5 227 -5Q186 -5 157 13ZM345 163T402 251T491 449Q547 651 547 854Q547
966 526 1095Q504 1221 431 1326Q397 1375 343 1402T221 1429V1427Q221 1235 246 870Q270 498 270 310V114Q345 163 402 251Z" />
<glyph unicode="E" glyph-name="E" horiz-adv-x="569" d="M215 -12T202 -11T172 -3Q138 9 138 55V1245Q138 1277 124 1349Q110 1421 110 1454V1461Q145 1517 161 1533Q186 1533 237 1542Q288 1551 313 1551Q346 1551 376 1532T407 1484Q407 1423 314 1423Q298
1423 285 1424Q272 1425 255 1425Q238 1425 233 1424Q233 1375 241 1255Q249 1135 249 1086Q249 1054 244 967Q239 879 239 852Q238 852 269 859Q308 870 335 870Q359 870 377 853T395 813Q395 787 380 769T341 750Q329 750 318 751Q306 752 290 752Q260 752 248
737V105L362 111Q479 111 479 57V50Q466 24 434 9T371 -10Q337 -12 304 -12H240Q215 -12 202 -11Z" />
<glyph unicode="F" glyph-name="F" horiz-adv-x="542" d="M172 -2T172 129Q172 268 162 585T138 1161T110 1440Q110 1470 122 1492T155 1528Q172 1539 201 1545T255 1553Q269 1554 308 1554Q354 1554 374 1539T395 1484Q395 1463 379 1452T338 1440L318 1441Q306
1442 288 1442Q231 1442 231 1419Q231 1324 246 1141Q260 964 262 869Q264 870 307 880T376 891Q399 891 415 872T432 828Q432 799 406 787Q389 779 377 775T347 768Q314 763 285 762L262 761Q262 656 282 428Q301 212 301 94L299 87L296 81Q300 70 300 56Q300
30 281 14T231 -2Q172 -2 172 129Z" />
<glyph unicode="G" glyph-name="G" horiz-adv-x="759" d="M395 -54T348 -36T264 14Q232 41 204 86T156 183Q139 225 127 285T107 402Q101 449 97 513T92 619Q91 645 91 711V781Q90 815 90 862Q90 960 97 1073Q104 1180 130 1287Q144 1343 161 1385T206 1467Q233
1507 266 1533T344 1576Q387 1591 441 1591Q526 1591 526 1533Q526 1512 510 1499T472 1485Q465 1485 443 1490Q421 1495 413 1495Q375 1495 344 1472T292 1403Q269 1353 253 1302T229 1187Q217 1105 212 1053T204 938Q200 845 200 744V688Q199 660 199 617Q199
555 200 511T208 411Q214 349 224 302T253 206Q271 156 297 124T361 72Q399 51 446 51Q537 51 597 137Q596 205 588 275T564 371L532 367Q504 363 484 363Q414 363 414 421Q414 440 435 454T489 476Q550 489 591 489Q632 489 655 458T678 380Q678 319 699 197Q719
72 719 15Q719 -9 705 -25T669 -41Q617 -41 601 2V4Q592 1 556 -19Q522 -38 498 -46T450 -54Q395 -54 348 -36Z" />
<glyph unicode="H" glyph-name="H" horiz-adv-x="676" d="M455 -31T442 -12T429 37Q429 427 411 759Q358 769 343 769Q258 769 222 753Q222 646 239 408Q256 170 256 59Q256 38 244 22T212 5Q185 5 164 99Q144 183 132 331T111 682Q99 939 96 1329Q95 1392 95
1510Q95 1547 130 1547Q148 1547 170 1537T202 1514Q195 1445 195 1360Q195 1280 202 1150Q209 1018 209 939Q209 918 208 901Q207 884 207 862Q207 830 211 809Q259 811 310 817Q366 822 410 824Q410 951 406 1152Q402 1352 402 1496V1550Q428 1550 448 1541T480
1517Q489 1505 494 1482T501 1439Q502 1428 502 1393Q502 1180 522 718Q541 278 541 43Q541 15 524 -8T481 -31Q455 -31 442 -12Z" />
<glyph unicode="I" glyph-name="I" horiz-adv-x="527" d="M75 3T75 64Q75 113 137 113Q151 113 161 112L180 110Q196 110 203 120T210 158Q210 324 191 632Q172 939 172 1105L174 1210L176 1314Q176 1375 171 1428Q144 1419 123 1419Q75 1419 75 1468Q75 1492
105 1510T183 1538Q266 1553 328 1553Q352 1553 370 1537T388 1497Q388 1475 375 1459T340 1442Q328 1442 320 1443H304Q283 1443 274 1434T265 1401Q265 1193 290 802Q315 411 315 203V124Q336 127 357 127Q442 127 442 55V43L391 8L337 6Q288 3 252 3Q75 3 75
64Z" />
<glyph unicode="J" glyph-name="J" horiz-adv-x="548" d="M113 -194T93 -178T72 -131Q72 -108 96 -85T152 -48Q183 -7 208 74T234 241L236 341Q237 385 237 441L235 525L226 732Q210 1129 181 1445L154 1439Q115 1429 92 1429Q71 1429 56 1444T40 1481Q40 1553
285 1553H311Q340 1553 356 1550T388 1534Q403 1521 403 1497Q403 1444 318 1444Q316 1444 315 1445H312H284V1429Q284 1376 296 1271Q308 1165 308 1112Q308 973 327 714Q345 449 345 315V234Q344 197 344 152Q344 28 292 -66T146 -194Q113 -194 93 -178Z" />
<glyph unicode="K" glyph-name="K" horiz-adv-x="730" d="M595 -48T580 -44Q565 -40 557 -40Q502 274 447 484T307 880Q291 852 265 800Q245 761 243 739Q242 734 240 709T237 650Q237 578 244 460Q250 334 250 270V102Q250 -7 180 -7Q120 -7 120 108Q120 193
134 384Q147 562 147 660L149 836Q150 926 150 1049Q150 1152 135 1285Q120 1419 120 1476Q120 1503 137 1522T178 1541Q254 1541 254 1375L245 954Q250 965 284 1054Q349 1223 424 1395Q463 1484 498 1540Q533 1596 552 1596Q576 1596 593 1581T610 1542Q610 1522
499 1288Q386 1054 373 991V955Q405 875 537 456T670 11Q670 -13 650 -30T605 -48Q595 -48 580 -44Z" />
<glyph unicode="L" glyph-name="L" horiz-adv-x="513" d="M190 -23T169 -4T148 42Q148 60 155 88Q161 117 161 132Q161 353 141 831Q120 1296 120 1529Q120 1547 134 1559T170 1571Q195 1571 213 1554T232 1512Q232 1401 243 1143Q253 909 253 775L255 750Q256
739 256 725Q256 713 255 710V701Q263 511 263 167V115H419Q463 85 463 54Q463 31 448 14T411 -4Q401 -4 390 0L380 3Q365 -1 341 -1L308 1Q293 2 275 2Q254 -23 217 -23Q190 -23 169 -4Z" />
<glyph unicode="M" glyph-name="M" horiz-adv-x="928" d="M692 -54T680 -33T667 27Q667 202 663 458Q659 714 659 889V993Q645 913 596 717Q547 519 533 414V401L527 363Q523 333 519 314T505 271Q487 222 442 222Q369 222 369 413Q369 519 348 641T278 942Q230
1116 218 1172Q214 1027 214 925Q214 785 223 504Q231 205 231 83Q231 38 200 6Q150 6 130 38T110 132Q110 176 115 299Q120 421 120 464Q120 597 117 861Q113 1096 113 1257Q113 1390 116 1522L173 1554Q203 1553 241 1463Q296 1327 374 954Q403 816 427 686Q453
545 457 528Q465 569 487 664Q493 692 498 717T509 764Q550 949 568 1039T607 1262Q627 1396 635 1517V1529Q639 1555 659 1571T708 1587Q726 1587 741 1571T756 1535Q756 1277 775 801Q793 312 793 67Q793 36 781 8T750 -37T712 -54Q692 -54 680 -33Z" />
<glyph unicode="N" glyph-name="N" horiz-adv-x="843" d="M586 -30T461 392Q330 836 214 1298V626Q214 528 229 334Q243 133 243 42Q243 24 221 11T171 -2Q126 -2 126 30Q126 38 131 91Q136 144 136 177Q136 291 123 521Q110 751 110 812V1073Q110 1145 117 1261Q124
1377 124 1449V1462Q124 1564 169 1564Q197 1564 238 1475Q306 1327 409 947Q467 730 549 377L581 235L583 225Q583 370 587 582Q591 794 591 939V1545Q603 1596 658 1596Q713 1596 713 1516V1504Q701 1479 701 1444Q701 1320 695 1066Q688 829 688 687V61Q688
29 671 0T629 -30Q586 -30 461 392Z" />
<glyph unicode="O" glyph-name="O" horiz-adv-x="728" d="M337 -57T291 -20T213 79Q184 136 161 218T125 382Q113 454 106 539T95 691Q93 767 93 799Q93 855 92 909L90 1038Q90 1160 100 1256Q110 1364 142 1449Q159 1493 181 1521T236 1568Q270 1585 309 1585Q362
1585 406 1563T481 1499Q514 1453 537 1402T574 1285Q590 1206 599 1145T611 1009Q618 858 618 736V618Q618 573 609 487Q600 402 600 359V350Q587 295 587 215Q587 158 563 97T494 -9Q448 -57 391 -57Q337 -57 291 -20ZM436 55T465 132Q490 200 502 300T521 517Q525
588 525 653Q525 745 522 842Q517 951 498 1118Q481 1255 437 1368Q416 1421 386 1449T319 1477Q271 1477 243 1397Q212 1306 203 1213Q190 1090 188 1006L187 968Q185 872 185 861V852Q185 716 212 515Q229 384 251 288T310 126Q348 55 395 55Q436 55 465 132Z"
/>
<glyph unicode="P" glyph-name="P" horiz-adv-x="590" d="M169 -11T156 9T143 58Q143 123 148 401Q153 678 153 789Q153 1269 100 1520Q131 1566 179 1566Q253 1566 316 1533T419 1442Q458 1385 479 1316T500 1175Q500 1023 434 901T244 712Q244 623 252 397Q260
170 260 74Q260 35 243 12T192 -11Q169 -11 156 9ZM320 886T357 969T395 1158V1159Q395 1214 384 1278Q380 1303 364 1327T345 1355Q331 1373 269 1420L215 1459Q216 1351 227 1135Q237 919 239 811Q320 886 357 969Z" />
<glyph unicode="Q" glyph-name="Q" horiz-adv-x="816" d="M558 -282T508 -253V-252Q452 -226 431 -161Q421 -129 415 -103T404 -37Q397 7 394 20H310Q256 55 215 104T149 208Q126 256 112 320T94 446Q90 495 90 574Q90 618 95 741Q100 864 100 908L99 972Q98 1004
98 1052Q98 1166 107 1249Q113 1307 123 1350T150 1436Q168 1481 191 1510T248 1558Q282 1576 324 1576Q380 1576 427 1554T507 1492Q537 1457 560 1401T597 1281Q609 1226 617 1151T627 1009Q629 925 629 868Q629 805 628 758Q627 711 627 659V567Q627 442 618
363T582 214T501 70L509 29Q521 -46 536 -96Q545 -130 559 -149T588 -169H596Q612 -169 625 -170T653 -175Q684 -184 684 -219Q684 -282 593 -282Q558 -282 508 -253ZM382 82Q397 108 438 108V107Q515 178 515 327V878Q515 934 514 985T508 1097Q503 1164 495 1212T472
1312Q456 1365 435 1398T381 1453Q348 1474 307 1474Q271 1474 245 1369Q222 1275 211 1129T195 839Q191 744 191 653Q191 566 201 451Q211 329 254 208Q274 152 307 118T382 80V82Z" />
<glyph unicode="R" glyph-name="R" horiz-adv-x="591" d="M463 -21T427 34V41Q421 148 390 281T299 604Q245 776 224 859V52Q224 19 212 3T167 -13Q144 -13 130 3T115 44V60Q115 305 119 661Q123 1017 123 1261V1513Q123 1538 133 1547T177 1557Q227 1557 270
1537T345 1482Q374 1448 395 1404T426 1311Q435 1265 435 1217Q435 1172 421 1102Q414 1066 385 988L361 929L340 876Q341 802 364 689T418 481Q445 393 491 257L551 76V71Q551 54 550 41T545 13Q538 -21 501 -21Q463 -21 427 34ZM255 985T288 1030L320 1207Q322
1225 322 1234Q322 1295 298 1372Q286 1409 268 1434T228 1463Q228 1413 223 1258Q217 1119 217 1045Q217 993 219 951Q255 985 288 1030Z" />
<glyph unicode="S" glyph-name="S" horiz-adv-x="629" d="M165 -45T113 -18Q80 -2 80 24Q80 48 92 63T126 79Q150 79 187 64Q223 48 239 48Q277 48 309 82T361 170Q379 220 388 269T398 355Q398 442 370 539T295 729L266 786Q217 881 187 946T135 1085Q105 1183
105 1275Q105 1349 130 1414T207 1526Q259 1574 333 1574Q370 1574 405 1553T454 1500L419 1456Q368 1456 339 1476Q303 1472 275 1441T234 1368Q222 1328 222 1290Q222 1211 243 1130T299 979L314 949Q410 760 442 692Q477 619 498 527T519 342Q519 278 502 212T452
88Q418 27 362 -9T239 -45Q165 -45 113 -18Z" />
<glyph unicode="T" glyph-name="T" horiz-adv-x="537" d="M245 -14T228 16T211 89Q211 136 219 253Q227 370 227 416Q227 514 213 735Q199 956 199 1054L201 1132Q202 1173 202 1233Q202 1382 183 1424L130 1418Q88 1413 72 1413Q45 1413 25 1429T5 1469Q5 1493
54 1511Q128 1537 296 1547Q349 1550 381 1550Q407 1550 427 1533T447 1492Q447 1468 430 1453T385 1438L348 1440L312 1442Q296 1442 291 1441Q305 1318 305 1189L303 1058L301 925Q301 845 310 690Q319 536 319 454Q319 392 328 270Q336 140 336 86Q336 -14 277
-14Q245 -14 228 16Z" />
<glyph unicode="U" glyph-name="U" horiz-adv-x="821" d="M417 -37T366 -9T278 73Q239 129 211 196T166 350Q147 446 136 532T118 722Q108 902 108 1115Q108 1212 109 1284Q110 1356 110 1435Q95 1452 95 1477Q95 1502 112 1521T154 1540Q228 1540 228 1394Q228
1265 238 1039Q247 801 247 682Q258 657 267 577T276 444Q276 399 291 333T331 199Q358 128 401 82T492 35Q521 35 540 53T566 107Q573 141 575 163T577 219V619Q577 689 564 812Q551 935 551 1005V1019L549 1079L547 1138Q547 1204 540 1313Q532 1438 532 1489Q532
1513 556 1529T609 1545L659 1497V1463Q659 1440 652 1402Q644 1357 644 1338Q644 1158 663 823Q681 480 681 288Q681 232 677 192T662 109Q650 62 629 33T570 -17Q530 -37 479 -37Q417 -37 366 -9Z" />
<glyph unicode="V" glyph-name="V" horiz-adv-x="716" d="M330 -34T311 -12Q260 199 165 788Q71 1367 40 1523Q52 1563 97 1563Q130 1563 182 1301Q231 1058 286 702L343 339Q361 491 393 709Q432 982 450 1171T468 1528Q500 1569 543 1569L586 1546Q582 1522
556 1269Q535 1065 503 808Q462 476 441 333Q406 94 383 13Q369 -34 359 -34Q330 -34 311 -12Z" />
<glyph unicode="W" glyph-name="W" horiz-adv-x="1012" d="M252 -29T252 127Q252 188 210 511T122 1145T60 1491Q85 1540 131 1540Q180 1540 219 1327Q256 1114 285 811L288 778Q312 506 313 503L334 676Q349 804 360 905T381 1112Q391 1221 391 1286V1325Q391
1347 408 1367T445 1388Q518 1388 518 1328V1297Q518 1181 541 1046T611 724Q648 574 667 461Q675 552 707 789Q739 1023 754 1191T770 1506Q770 1553 785 1572T844 1592Q869 1592 888 1576T907 1536Q907 1510 886 1489Q886 1340 864 1143T809 767Q776 590 754
392T731 43Q731 11 715 -8T670 -28Q646 -28 617 55Q574 185 520 521Q502 634 484 759L464 893Q435 686 423 579T399 324Q386 169 386 28Q386 6 368 -11T327 -29Q252 -29 252 127Z" />
<glyph unicode="X" glyph-name="X" horiz-adv-x="622" d="M106 -13T88 -2T70 26Q70 32 71 33Q163 396 203 578Q243 754 243 819Q243 867 229 938T167 1227L122 1428Q117 1453 117 1465Q117 1493 130 1506T163 1520Q192 1520 209 1470Q225 1421 257 1252L265 1214Q270
1184 274 1166L280 1134Q284 1112 309 987Q337 1117 359 1227Q388 1373 398 1415Q414 1490 429 1522Q442 1550 462 1550Q484 1550 498 1538T512 1505Q512 1475 496 1404T442 1186Q401 1027 380 933T359 796Q359 777 400 569T465 248Q470 226 480 191Q490 150 494
126T499 80Q499 26 463 26Q413 26 403 75Q396 109 357 336Q320 542 300 628Q196 168 176 97Q147 -13 126 -13Q106 -13 88 -2Z" />
<glyph unicode="Y" glyph-name="Y" horiz-adv-x="543" d="M248 -25T233 -11T217 25Q217 76 222 223Q227 370 227 421Q227 484 208 599Q188 719 188 776Q188 854 165 954T109 1146Q76 1235 53 1335T30 1513Q30 1527 47 1538T82 1549Q102 1549 125 1502Q144 1460
161 1395T198 1236L226 1095Q241 1020 245 1006Q249 1021 255 1092Q268 1259 287 1374Q299 1447 320 1493Q341 1539 369 1539Q423 1539 423 1517Q423 1400 374 1174Q325 948 325 828Q325 817 322 794Q318 770 319 757V726Q319 635 325 455Q330 253 330 183Q330
163 334 135Q337 104 337 87V35Q337 9 317 -8T269 -25Q248 -25 233 -11Z" />
<glyph unicode="Z" glyph-name="Z" horiz-adv-x="534" d="M70 -19T50 31Q94 101 152 401T252 1028Q290 1320 297 1451L223 1443Q193 1441 180 1441Q69 1441 69 1506V1515L97 1549V1550Q122 1543 155 1543Q184 1543 252 1554Q313 1564 348 1564Q372 1564 388 1547T404
1505Q404 970 177 85Q186 85 221 89Q256 93 285 93Q393 93 393 30V21L361 -11Q310 -11 235 -15Q159 -19 108 -19Q70 -19 50 31Z" />
<glyph unicode="[" glyph-name="bracketleft" horiz-adv-x="645" d="M339 -112T262 -101Q214 -95 185 -77T156 -35Q156 52 178 218Q199 386 199 470Q199 639 226 975Q252 1318 252 1480Q252 1492 251 1501L250 1519Q250 1543 258 1555T291 1577H369Q420 1577 477
1567Q513 1561 534 1546T555 1511Q555 1491 538 1478T499 1465Q477 1465 442 1472Q405 1478 384 1478Q346 1478 346 1458Q346 1214 306 747Q266 279 266 48V6H287Q469 6 469 -68Q469 -91 451 -101T403 -112Q339 -112 262 -101Z" />
<glyph unicode="\" glyph-name="backslash" horiz-adv-x="736" d="M493 -31T448 89Q407 197 366 369T280 764Q239 967 212 1112Q183 1268 174 1312L165 1348Q158 1374 158 1372Q132 1457 132 1505Q132 1526 148 1540T187 1555Q228 1555 297 1331Q406 978 529 311Q573
68 573 31Q573 -2 527 -30V-31Q493 -31 448 89Z" />
<glyph unicode="]" glyph-name="bracketright" horiz-adv-x="654" d="M176 -112T176 -68Q176 -41 196 -27Q210 -17 219 -13T244 -5L273 1L304 4Q334 6 332 6H359H379V48Q373 261 336 727Q298 1207 298 1458V1476Q281 1476 233 1471Q188 1465 164 1465Q90 1465
90 1511Q90 1528 105 1541T145 1562Q165 1568 194 1571T246 1576Q259 1577 283 1577Q297 1577 306 1578H325Q353 1578 367 1571T388 1544T394 1481Q394 1312 422 995Q450 678 450 510Q450 418 471 237Q491 51 491 -35Q491 -59 462 -77T385 -101Q307 -112 243 -112Q176
-112 176 -68Z" />
<glyph unicode="^" glyph-name="asciicircum" horiz-adv-x="744" d="M563 346T548 365T522 421Q510 460 496 532Q491 562 489 567Q446 733 384 1149Q370 1089 351 942Q339 848 333 814Q309 662 249 368L210 352Q193 356 182 366T171 389Q171 433 202 568Q207 588
230 742Q248 865 255 906T286 1039Q304 1115 311 1153Q314 1177 315 1199Q319 1264 333 1328Q343 1369 365 1390T418 1410L450 1383Q450 1314 458 1224Q462 1170 477 1070Q486 998 499 915Q514 814 568 601L585 538Q586 535 604 468L611 443Q623 396 623 386Q623
372 610 359T582 346Q563 346 548 365ZM405 1173V1293L375 1233L405 1173Z" />
<glyph unicode="_" glyph-name="underscore" horiz-adv-x="1078" d="M292 -94T268 -80T244 -50Q244 -29 258 -15T294 0H953Q980 0 1002 1Q1023 2 1050 2Q1074 2 1087 -8T1100 -36Q1100 -54 1084 -68T1044 -82Q993 -82 955 -84Q874 -84 639 -89Q404 -94 323 -94Q292
-94 268 -80Z" />
<glyph unicode="`" glyph-name="grave" horiz-adv-x="774" d="M611 1380T516 1408T338 1467T255 1509Q255 1524 265 1543T291 1576T323 1589Q336 1589 420 1546T576 1456T648 1394Q648 1380 633 1380Q611 1380 516 1408Z" />
<glyph unicode="a" glyph-name="a" horiz-adv-x="612" d="M482 -19T460 -4T437 49Q437 114 415 258L407 302L205 332Q188 273 171 142Q158 41 132 9Q115 -11 90 -11Q65 -11 45 5T25 44Q25 47 28 54L30 62Q167 591 235 1100Q239 1144 242 1183Q247 1259 255 1304T279
1373H348Q378 1373 398 1360T418 1321Q418 1166 460 858Q501 547 501 416Q501 399 512 353Q523 307 523 290Q523 268 543 168Q562 73 562 41V39Q562 -6 528 -19Q482 -19 460 -4ZM388 405T388 451Q388 548 380 654T355 922Q341 1043 333 1134Q240 620 213 408Q247
386 394 375Q388 405 388 451Z" />
<glyph unicode="b" glyph-name="b" horiz-adv-x="586" d="M140 -20T129 18Q123 35 122 49T120 88Q120 167 130 306Q140 445 140 524Q140 607 145 849Q149 1041 149 1173Q149 1188 144 1228L138 1279V1290Q138 1336 152 1359T205 1383Q239 1383 280 1370T357 1331T413
1274Q474 1173 474 1028Q474 917 455 843T391 705Q446 652 466 570T486 360Q486 233 443 143Q394 40 300 1Q248 -20 184 -20Q140 -20 129 18ZM357 766T357 1012Q357 1278 273 1288Q249 1236 249 1068V763Q357 766 357 1012ZM304 99T340 162T376 308Q376 354 375
384T366 458Q358 508 345 543T309 607Q285 636 252 643Q243 511 243 333Q243 304 240 256Q236 212 236 186Q236 183 237 181Q238 179 238 176V84Q304 99 340 162Z" />
<glyph unicode="c" glyph-name="c" horiz-adv-x="572" d="M355 -29T304 -16T227 14Q91 102 91 495V550Q90 577 90 615V664Q90 762 92 817T100 951Q106 1030 119 1081T159 1195Q184 1253 219 1286T313 1342Q367 1364 440 1364Q471 1364 487 1350T503 1312Q503 1291
490 1275T459 1258H363Q323 1258 292 1207T247 1073Q221 921 221 827V817Q221 736 217 620Q212 473 212 422Q212 352 219 295Q224 257 231 229T254 172Q268 142 288 123T338 92Q367 79 406 79Q431 79 450 97Q476 97 494 86T512 52Q512 -29 399 -29Q355 -29 304
-16Z" />
<glyph unicode="d" glyph-name="d" horiz-adv-x="711" d="M138 -12T138 256Q138 365 141 579Q144 794 144 901Q144 967 132 1103Q120 1238 120 1286Q120 1312 142 1332T192 1353Q263 1353 330 1321T448 1232Q499 1176 536 1106T592 959Q611 884 611 808L609 759L607
705V592Q607 523 606 481T598 386Q592 331 581 290T550 202Q530 157 503 122T433 50Q390 15 338 -12H190Q138 -12 138 256ZM321 92T356 114T415 172Q436 205 453 253T480 352Q488 396 494 449T502 541Q503 565 503 612Q503 1230 265 1258Q250 1177 250 1045Q250
885 266 593Q281 292 281 141V92Q321 92 356 114Z" />
<glyph unicode="e" glyph-name="e" horiz-adv-x="581" d="M192 -27T171 -9T148 36V90Q148 112 147 131L145 174Q145 207 140 305Q135 402 135 436Q135 549 142 735Q149 921 149 1034Q149 1056 144 1121Q138 1178 138 1207Q138 1352 224 1352Q263 1352 322 1340T425
1307T469 1261Q469 1240 452 1224T409 1197Q315 1228 254 1236Q257 1193 257 1148Q257 1088 253 1001Q248 893 248 854L254 822L287 824Q304 825 327 825Q426 825 426 769Q426 747 408 731T361 714Q331 714 303 718H251Q257 640 257 563Q257 489 253 378Q248 240
248 192Q248 77 252 77L319 80L403 82Q481 82 481 32Q481 3 456 -12T393 -27H220Q192 -27 171 -9Z" />
<glyph unicode="f" glyph-name="f" horiz-adv-x="506" d="M135 -18T95 13Q112 204 121 534Q128 858 135 975V1025Q143 1183 143 1303Q143 1331 166 1347T222 1364Q293 1364 375 1352Q428 1344 459 1326T491 1281Q491 1223 387 1223Q345 1243 280 1243H256V1219Q256
1153 247 1016Q237 885 237 808V753L254 754H275Q374 754 374 700Q374 674 353 657T302 640Q259 640 221 652V72Q221 -18 168 -18Q135 -18 95 13Z" />
<glyph unicode="g" glyph-name="g" horiz-adv-x="709" d="M335 -16T287 5T207 61Q180 90 159 143T124 252Q114 293 108 365T101 491Q100 520 100 611V692Q100 810 105 887Q108 941 114 983T131 1081Q141 1131 156 1168T195 1243Q218 1279 247 1302T316 1340Q356
1354 402 1354Q489 1354 489 1302Q489 1279 470 1263T424 1247Q415 1247 402 1250L381 1252Q346 1252 319 1215T274 1112Q240 980 230 835Q222 717 222 629Q222 534 228 438Q232 378 239 335T262 242Q276 193 296 163T347 112Q379 91 417 91Q516 91 516 417V511Q500
519 468 519H450Q441 518 428 518Q357 518 357 565Q357 593 376 608T427 624V623H455Q639 623 639 560Q639 537 628 485Q617 433 617 411Q617 385 622 303Q627 221 627 194Q627 129 595 82T510 9T392 -16Q335 -16 287 5Z" />
<glyph unicode="h" glyph-name="h" horiz-adv-x="677" d="M416 0T416 337L417 426Q418 435 418 455L419 548V556Q419 567 420 575Q422 607 422 615Q422 618 416 625Q410 631 410 634V636Q395 632 373 632Q351 632 307 641Q267 649 241 651V416Q241 361 247 248Q253
136 253 79Q253 48 238 27T195 5Q154 5 139 80Q123 151 123 283Q123 340 126 448Q129 555 129 595Q129 615 130 630V659Q130 690 126 702V712L129 751L134 832Q134 919 127 1063Q120 1207 120 1294Q120 1318 137 1336T178 1355Q243 1355 243 1233Q243 1129 239
978Q235 826 235 722Q271 712 347 712H421Q426 722 426 738Q426 843 413 1029Q399 1230 399 1320Q399 1343 416 1358T458 1374Q474 1374 499 1363Q517 1356 518 1356Q518 1104 538 579L557 62Q557 34 536 17T486 0Q416 0 416 337Z" />
<glyph unicode="i" glyph-name="i" horiz-adv-x="462" d="M50 3T50 64Q50 113 112 113Q126 113 136 112L155 110Q171 110 178 120T185 158Q185 208 183 235T180 267Q171 361 166 442Q147 749 147 915L149 1020L151 1124Q151 1185 146 1238Q119 1229 98 1229Q50
1229 50 1278Q50 1302 80 1320T158 1348Q241 1363 303 1363Q327 1363 345 1347T363 1307Q363 1285 350 1269T315 1252Q303 1252 295 1253H279Q258 1253 249 1244T240 1211Q240 1003 265 612Q273 486 281 392Q285 343 287 301T290 203V124Q311 127 332 127Q417 127
417 55V43L366 8L312 6Q263 3 227 3Q50 3 50 64Z" />
<glyph unicode="j" glyph-name="j" horiz-adv-x="520" d="M-5 -193T-5 -168Q-5 -159 -4 -151Q-3 -144 -3 -134Q-3 -124 26 -113Q71 -98 105 -83T159 -46Q218 19 218 187Q218 345 207 710Q195 1051 195 1233V1242L169 1244L145 1246Q111 1248 86 1256Q55 1264 44
1276Q38 1284 38 1292Q38 1311 60 1325T105 1339Q207 1339 338 1326T470 1293Q470 1272 454 1259T414 1245H309Q309 1117 320 814Q330 537 330 382V164Q330 129 328 103T319 42Q311 3 299 -27T263 -89Q239 -122 207 -143T127 -179Q76 -193 19 -193Q-5 -193 -5 -168Z"
/>
<glyph unicode="k" glyph-name="k" horiz-adv-x="716" d="M561 -35T508 67Q462 158 422 295T351 573Q328 673 314 752Q240 604 240 396V17Q240 -31 198 -31Q167 -31 149 -14T130 34V656Q130 762 150 988Q169 1203 169 1318Q187 1357 230 1357Q256 1357 274 1339T293
1294V1288Q266 1242 266 915V842L341 992Q413 1138 473 1241Q533 1344 557 1344Q589 1344 612 1330T636 1289Q636 1286 587 1207Q432 951 416 919L414 858L412 797Q412 741 445 605T524 334T600 149L627 112Q648 83 657 63T666 19Q666 -4 649 -19T608 -35Q561 -35
508 67Z" />
<glyph unicode="l" glyph-name="l" horiz-adv-x="548" d="M366 -9T258 -9Q226 -28 188 -28Q165 -28 148 -7T130 39Q130 202 143 497Q156 790 156 954V969Q144 1097 144 1161Q144 1355 215 1355Q236 1355 251 1340T267 1304Q267 1275 260 1226Q253 1177 253 1148Q253
1066 256 902Q259 739 259 656Q247 628 247 570V545Q247 478 243 383Q239 288 239 219Q239 78 308 78L346 80Q365 81 393 81Q503 81 503 21Q503 0 485 -15T441 -33Q366 -9 258 -9Z" />
<glyph unicode="m" glyph-name="m" horiz-adv-x="1149" d="M886 -107T886 21Q886 93 887 152V283Q887 375 872 550Q857 726 857 806Q857 857 861 933Q865 1008 865 1059Q856 1031 796 776Q731 504 674 317Q612 114 573 114Q534 114 511 138T488 202Q488 262 453
424T368 770T282 1065L270 834Q261 675 257 571T248 347Q243 189 243 89L245 58Q246 44 246 28Q246 -7 231 -23T178 -40Q157 -40 139 -26T120 9Q120 211 152 635Q183 1045 183 1261Q171 1281 171 1301Q171 1326 194 1338T250 1351Q277 1351 348 1159T491 723T584
370Q595 406 622 522Q693 827 753 1041Q792 1179 829 1262Q868 1348 898 1348Q927 1348 950 1333T973 1292Q973 1133 986 850Q999 567 999 423L997 315Q994 243 994 207V206Q994 188 1006 61L1010 20Q1019 -3 1019 -19Q1019 -53 1000 -80T950 -107Q886 -107 886
21Z" />
<glyph unicode="n" glyph-name="n" horiz-adv-x="981" d="M659 -6T647 7T628 53Q621 82 616 93L617 97V102Q617 149 549 355T393 799T257 1145V114Q257 114 265 100Q278 79 278 66Q278 40 260 21T216 2Q149 2 149 127L147 478L145 829Q145 893 151 1020Q157 1148
157 1211Q157 1307 232 1362V1349Q240 1354 247 1354Q295 1354 367 1189Q423 1060 471 907T583 531L613 426Q669 228 684 189Q725 623 725 1228Q725 1242 724 1255L722 1283Q722 1344 773 1344Q801 1344 816 1321T831 1264V1109Q829 928 820 680T794 238T757 11Q700
-6 685 -6Q659 -6 647 7Z" />
<glyph unicode="o" glyph-name="o" horiz-adv-x="738" d="M310 -38T265 -5T193 87Q135 208 118 359Q101 499 101 626Q101 651 102 667Q103 683 103 704Q103 714 100 714V751Q100 767 102 839Q102 871 103 894Q104 949 107 992T119 1104Q125 1160 136 1203T165
1294Q180 1335 203 1356T254 1378Q336 1378 402 1348T512 1265Q553 1214 581 1140T622 980Q634 896 634 798V783L636 667L638 551Q638 -38 365 -38Q310 -38 265 -5ZM393 47T423 76T472 158Q508 261 519 382Q528 490 528 564Q528 651 515 804Q501 969 501 1041V1077Q499
1127 477 1171T417 1242T332 1269Q262 1269 239 1190Q228 1153 224 1116T220 1027Q220 988 221 961Q222 934 222 906Q222 881 217 811Q212 741 212 717Q212 643 220 498Q228 344 260 199Q275 128 300 88T357 47Q393 47 423 76Z" />
<glyph unicode="p" glyph-name="p" horiz-adv-x="575" d="M169 -14Q144 96 144 287Q144 362 148 470Q152 578 152 652Q140 679 140 702V709Q160 751 160 885L162 979Q163 1023 163 1080Q163 1207 147 1270Q153 1299 167 1320T202 1342H292Q350 1342 393 1316T458
1244Q500 1156 500 1044Q500 963 497 915Q495 881 491 861T478 807Q470 780 460 763T429 721Q412 700 390 685T334 655Q303 640 265 628V409Q265 353 273 215Q281 77 281 21Q281 -3 260 -21T212 -39L169 -14ZM388 730T388 1059Q388 1093 387 1110T380 1151Q374
1176 364 1191T333 1217Q313 1228 284 1228Q284 1231 262 1231V1115L264 900L266 716V713Q388 730 388 1059Z" />
<glyph unicode="q" glyph-name="q" horiz-adv-x="733" d="M553 -432Q439 -432 395 -385Q395 -335 390 -291Q386 -266 384 -247Q379 -208 369 -155L359 -107L350 -62Q240 -38 186 50Q158 95 141 143T115 255Q106 317 103 374T100 509L102 634Q103 689 103 754Q103
843 115 979Q121 1052 137 1115T178 1242Q202 1302 243 1335T334 1369Q346 1364 382 1355Q411 1348 427 1341Q523 1303 567 1208Q590 1157 603 1111T623 1010Q633 913 633 812Q633 712 630 615Q628 548 623 490T609 346Q601 275 588 216T555 95Q517 -20 450 -49Q450
-88 458 -131T484 -240Q498 -288 506 -326Q601 -326 601 -384Q601 -405 588 -419T553 -434V-432ZM373 18T404 18Q426 18 454 115T503 334T524 511V869Q524 1288 322 1288Q288 1288 262 1211Q239 1142 227 1045T208 830Q202 746 202 699Q202 686 204 604Q204 570
205 546Q207 456 220 313Q230 202 262 101Q292 6 344 6Q373 18 404 18Z" />
<glyph unicode="r" glyph-name="r" horiz-adv-x="604" d="M440 -35T401 64Q362 159 337 282L323 351Q266 642 248 686H223Q223 626 222 577Q221 528 221 464Q221 193 260 37L237 -18H180L153 12L155 149Q155 322 138 708Q120 1083 120 1268Q120 1365 188 1365Q260
1365 317 1340T408 1266T441 1149V1005Q441 976 430 937T407 870L368 796L336 736L375 541Q403 388 430 289T495 107L508 81Q519 60 524 46T529 17Q529 -5 516 -20T483 -35Q440 -35 401 64ZM262 803T286 857T325 978T339 1098Q339 1136 336 1162T324 1221Q314 1253
291 1270T231 1289L228 1277Q224 1266 224 1260Q224 1158 228 1018Q232 877 232 787Q262 803 286 857Z" />
<glyph unicode="s" glyph-name="s" horiz-adv-x="506" d="M124 -22T99 -2T70 51L93 86Q123 80 131 78Q159 71 178 71Q216 71 245 104T289 190Q316 287 316 367Q316 435 293 508T230 651L211 684Q169 756 142 809T96 925Q71 1003 71 1086Q71 1179 113 1273Q134
1322 171 1351T256 1381Q294 1381 325 1358T357 1300Q357 1282 342 1272T307 1261Q285 1261 264 1273Q241 1272 222 1250T192 1193Q171 1126 171 1075Q171 1016 188 955T235 845Q310 712 353 628Q381 572 398 496T416 342Q416 218 359 105Q330 47 278 13T162 -23V-28Q124
-22 99 -2Z" />
<glyph unicode="t" glyph-name="t" horiz-adv-x="525" d="M239 33L237 112L235 190L238 260Q230 284 206 712T179 1255Q61 1258 26 1281Q5 1295 5 1316Q5 1334 26 1347T70 1360Q116 1360 209 1351Q298 1341 348 1341Q357 1341 364 1342H381Q445 1342 445 1293Q445
1269 425 1253T377 1237Q356 1237 324 1244L283 1251L281 1242L279 1230Q279 1030 313 649Q347 268 347 67Q347 43 326 25T277 6L239 33Z" />
<glyph unicode="u" glyph-name="u" horiz-adv-x="739" d="M295 -31T256 -9T193 53Q168 95 152 141T128 247Q114 350 114 473Q109 718 109 1013Q109 1084 104 1212L100 1306Q119 1349 144 1349Q168 1349 187 1312T206 1232V675Q206 602 221 458Q235 309 235 241Q235
91 365 91Q511 91 511 1192V1307V1325Q510 1332 510 1341Q510 1366 522 1377T566 1389Q592 1389 608 1374T627 1338Q629 1314 629 1290Q629 1250 622 1186Q615 1122 615 1084Q615 1050 611 999Q606 936 606 913Q606 903 607 896Q608 888 608 878Q608 -31 344 -31Q295
-31 256 -9Z" />
<glyph unicode="v" glyph-name="v" horiz-adv-x="721" d="M283 7Q283 242 239 493T101 1110Q94 1137 82 1173Q45 1284 45 1319Q45 1338 60 1352T95 1366Q124 1366 152 1314Q178 1266 201 1183T250 977Q280 829 321 539Q331 470 346 357Q356 274 360 247Q406 477
471 900Q532 1302 548 1396H594Q612 1396 626 1383T641 1351Q641 1279 624 1195T572 989Q544 887 535 837T517 673Q507 544 495 439T464 229Q443 111 407 44T321 -24L283 7Z" />
<glyph unicode="w" glyph-name="w" horiz-adv-x="878" d="M233 -43T203 80Q176 188 159 345T123 756Q111 924 94 1098Q77 1254 60 1293Q77 1329 119 1329Q185 1329 185 1195Q185 1029 228 728Q271 424 276 283Q308 502 322 611T349 875Q363 1051 363 1186L418
1210Q444 1210 461 1197T479 1160V1143Q513 1030 534 895T572 572Q586 411 601 307Q639 594 639 984Q639 1039 655 1138Q670 1240 670 1292Q663 1309 663 1327Q663 1377 726 1377Q750 1377 764 1365T778 1329V1298Q778 1268 773 1245V1234Q745 1150 745 1046V896Q745
763 714 511Q682 249 682 139V102Q682 56 672 22Q658 -19 613 -19Q581 -19 563 3T544 57Q544 149 534 272T509 488Q494 591 472 727L438 942Q431 879 431 826Q431 714 414 524T362 155Q323 -43 274 -43Q233 -43 203 80Z" />
<glyph unicode="x" glyph-name="x" horiz-adv-x="497" d="M117 -7T99 6T80 40Q80 107 97 185T148 389L167 461Q196 572 196 660Q196 698 171 827T115 1077T69 1219V1241Q50 1260 50 1292Q50 1311 68 1322T111 1334Q133 1334 152 1298Q169 1266 183 1216T214 1087L219
1062Q230 1007 236 971L249 894Q251 908 258 945Q259 952 260 957T262 966Q272 1021 275 1050Q283 1116 283 1158V1193Q282 1208 282 1225Q282 1282 301 1312T374 1357L412 1309Q397 1286 388 1254T378 1197Q377 1182 377 1133V1109Q353 1045 326 882T299 646Q299
586 325 491T401 244L410 216Q447 105 447 54Q447 33 431 18T392 3Q375 3 359 22T329 75Q300 150 284 231Q263 336 255 384L246 433Q241 403 228 280Q215 163 194 93Q195 88 195 69Q195 -7 142 -7Q117 -7 99 6Z" />
<glyph unicode="y" glyph-name="y" horiz-adv-x="579" d="M255 -28T236 17Q259 63 259 364Q259 415 248 520Q236 635 235 664V717Q214 768 160 908T73 1141Q35 1252 35 1288V1299L81 1333Q116 1331 155 1243Q178 1190 203 1109T246 962T269 877Q278 903 301 1030Q324
1157 357 1261Q389 1362 429 1362Q448 1362 463 1350T479 1319Q479 1215 421 1023Q361 824 360 726V109Q360 -28 293 -28Q255 -28 236 17Z" />
<glyph unicode="z" glyph-name="z" horiz-adv-x="599" d="M133 -4T117 9T100 42Q100 165 147 362T288 863Q371 1129 403 1256L323 1250Q268 1244 236 1244Q215 1244 199 1261T183 1301Q183 1359 408 1359Q509 1359 509 1302Q509 1231 465 1107Q419 980 412 933Q387
776 305 458Q222 135 216 105H251Q266 105 294 108Q323 111 337 111V112Q420 112 420 62Q420 39 399 26T349 12Q330 12 289 15Q248 18 228 18Q216 18 192 7Q167 -4 155 -4Q133 -4 117 9Z" />
<glyph unicode="{" glyph-name="braceleft" horiz-adv-x="655" d="M330 -48T285 12T239 198V621Q239 664 226 688T190 717Q177 720 150 722Q100 722 100 766Q100 814 150 816Q176 817 194 823T225 849Q239 872 239 916Q239 935 235 986Q235 1002 234 1011Q229
1096 229 1130Q229 1204 242 1226Q237 1259 237 1280Q237 1376 291 1435T442 1495Q507 1495 555 1471Q585 1456 585 1435Q585 1414 568 1402T528 1389Q508 1389 477 1399Q444 1408 427 1408Q329 1408 329 1157Q329 1127 333 1062Q337 997 337 947Q337 815 301 768Q335
727 335 622V182Q335 39 427 39Q448 39 488 51Q529 62 548 62Q555 62 560 46T565 16Q565 -6 543 -22T492 -43Q464 -48 442 -48Q330 -48 285 12Z" />
<glyph unicode="|" glyph-name="bar" horiz-adv-x="357" d="M134 -80T134 114Q134 378 127 813Q120 1247 120 1510Q120 1584 191 1584Q208 1584 220 1568T233 1533L235 956L237 379V-29Q237 -50 222 -65T185 -80Q134 -80 134 114Z" />
<glyph unicode="}" glyph-name="braceright" horiz-adv-x="645" d="M148 -48T100 -24Q70 -9 70 12Q70 33 87 45T127 58Q144 58 177 49Q208 39 228 39Q326 39 326 289Q326 304 321 399Q316 494 316 534Q316 680 354 729Q317 775 317 875L322 977Q327 1075 327 1127Q327
1408 228 1408Q209 1408 168 1397Q128 1385 107 1385Q100 1385 95 1401T90 1431Q90 1453 112 1469T164 1491Q187 1495 213 1495Q323 1495 368 1435T415 1249L416 876Q416 839 425 816T450 786Q477 773 512 773Q527 772 536 762T545 731Q545 706 533 694T500 681Q474
680 458 675T430 649Q416 626 416 581Q416 555 420 474Q424 393 424 330Q424 240 413 221Q417 198 417 166Q417 70 364 11T213 -48Q148 -48 100 -24Z" />
<glyph unicode="~" glyph-name="asciitilde" horiz-adv-x="972" d="M582 1038T509 1050T402 1080Q359 1102 333 1113T285 1125Q270 1119 265 1109T261 1086Q263 1074 256 1063T232 1046Q200 1046 179 1061T158 1105Q158 1155 198 1189T306 1224Q355 1224 483 1183Q609
1141 649 1141Q668 1141 679 1153T693 1182Q696 1199 707 1211T738 1223Q770 1223 787 1208T805 1170Q805 1135 787 1105T739 1056T673 1038Q582 1038 509 1050Z" />
<glyph unicode="&#xa0;" glyph-name="uni00A0" horiz-adv-x="375" />
<glyph unicode="&#xa1;" glyph-name="exclamdown" horiz-adv-x="444" d="M201 1211T178 1239T155 1310Q155 1382 256 1382Q281 1382 302 1360T324 1303Q324 1267 299 1239T239 1211Q201 1211 178 1239ZM169 -236T155 -222T140 -186Q140 -16 162 304Q183 630 183
793Q183 820 182 842Q181 863 181 890Q181 936 186 968T201 1016Q209 1030 219 1030Q240 1030 258 980Q275 929 275 854Q275 783 271 682Q267 581 267 515Q267 427 272 179Q277 -69 277 -157Q277 -189 251 -212T190 -236Q169 -236 155 -222Z" />
<glyph unicode="&#xa2;" glyph-name="cent" horiz-adv-x="846" d="M408 15Q412 35 412 65Q412 93 408 134Q404 175 404 203L401 202Q401 224 405 257Q409 290 409 313Q321 345 275 393Q247 421 231 444T205 498Q192 541 187 564T178 626Q174 683 174 777Q174 838
175 871T181 952Q186 1003 196 1041T225 1123Q259 1205 337 1254L334 1284Q326 1364 326 1368Q326 1456 378 1456H385L415 1436Q410 1394 410 1371Q410 1328 420 1254L454 1245Q503 1231 531 1220Q554 1210 568 1200T592 1175Q603 1158 604 1140H602V1135Q602 1117
590 1101T560 1084Q539 1084 520 1100T492 1140L434 1169H429Q430 1056 461 804Q490 552 490 428Q490 421 489 416Q488 410 488 403L490 391Q518 392 540 401T582 432Q601 452 610 464T642 511Q701 511 701 451Q701 417 668 384T586 328T497 301Q489 245 489 222Q489
185 496 125Q503 65 503 28Q503 8 489 -6T455 -20H446L408 15ZM395 835T338 1125Q305 1078 289 985T273 790Q273 445 396 424Q395 835 338 1125Z" />
<glyph unicode="&#xa3;" glyph-name="sterling" horiz-adv-x="811" d="M188 6Q164 8 147 20T130 53Q130 82 150 100T209 134Q246 148 259 158Q288 180 304 248T321 382Q321 459 307 538T257 739Q227 845 214 894Q120 894 120 918V924Q120 938 124 945T145 959Q162
966 197 966Q195 1013 184 1099Q172 1191 172 1238Q172 1281 175 1321T190 1416Q202 1480 221 1524T275 1599Q309 1632 357 1632H382Q417 1632 458 1591T525 1493Q549 1439 549 1403Q549 1380 543 1370T517 1359Q489 1359 470 1376T442 1421L427 1473Q420 1501
404 1518T363 1535Q341 1535 322 1505T292 1428Q271 1338 271 1270V1243Q271 1065 290 976L393 978Q438 979 495 979Q516 979 531 964T547 928Q547 922 538 919Q523 913 457 909Q405 906 389 905L311 900Q320 846 351 736Q384 622 401 536T418 378Q418 335 407
291Q397 252 384 209Q377 190 371 169Q407 166 499 146Q587 125 636 125Q654 125 692 136Q726 146 746 146Q769 146 785 131T801 96Q801 67 763 47Q723 27 653 27Q589 27 500 46Q413 63 372 68V71Q349 70 288 47T188 2V6Z" />
<glyph unicode="&#xa4;" glyph-name="currency" horiz-adv-x="1008" d="M769 195T747 210T722 251V248L697 293Q599 205 458 205Q362 205 276 290Q251 236 233 218Q213 201 190 201Q160 201 143 222T126 276Q126 305 182 359Q204 381 212 392Q180 453 180 567Q180
972 252 1078Q247 1089 201 1136Q155 1181 155 1209Q155 1228 169 1241T203 1255Q219 1255 232 1250L244 1244Q255 1237 256 1237Q259 1235 267 1227L276 1217Q282 1211 294 1195L303 1183Q307 1178 308 1176T311 1172Q318 1181 331 1196T357 1226Q370 1239 386
1254T415 1277Q429 1285 441 1285Q556 1285 663 1216Q675 1233 694 1267Q718 1311 740 1331T792 1351H802L845 1304Q841 1260 773 1178Q750 1149 750 1141Q750 1081 795 960Q840 839 840 772Q840 708 807 585Q773 462 773 396Q773 365 812 322Q850 278 850 247Q850
226 836 211T800 195Q769 195 747 210ZM546 305T588 340T656 431Q679 481 694 548T716 676Q721 736 721 779Q721 843 702 943T660 1071Q639 1075 625 1092T608 1132Q563 1181 485 1181Q469 1181 432 1152T378 1100L393 1086Q393 1009 346 1009Q335 1009 322 952T300
818T290 696H293L295 669L293 628Q290 600 290 585Q290 467 344 421Q344 362 384 334T494 305Q546 305 588 340Z" />
<glyph unicode="&#xa5;" glyph-name="yen" horiz-adv-x="990" d="M444 -8T425 5T405 40V45Q421 85 434 347T448 773H441Q418 773 346 768Q281 762 251 762H237L206 763Q170 783 152 823L168 875Q292 875 457 883Q459 915 459 954L458 958L398 953Q335 948 305
948Q173 948 173 1010V1017L198 1056L278 1054L356 1052Q413 1052 458 1059V1071Q412 1117 370 1184T293 1325L282 1349Q244 1431 216 1485T151 1593Q105 1659 53 1705V1764L56 1759Q90 1774 106 1774Q138 1774 200 1700T322 1525L436 1330Q489 1236 507 1207Q517
1231 548 1343L558 1379Q595 1510 622 1592T685 1746Q727 1832 760 1832Q784 1832 801 1817T818 1778L816 1768L724 1502Q673 1356 644 1238Q638 1212 612 1150Q587 1090 580 1059L605 1056L642 1059Q648 1059 670 1061Q732 1066 760 1066Q887 1066 887 1005Q887
948 774 948H765L574 950V887Q587 887 634 891Q681 895 722 895Q882 895 882 820Q882 798 864 782T822 766H714L735 776H569Q569 673 554 461Q538 256 538 142Q538 130 539 119V94Q539 44 524 18T470 -8Q444 -8 425 5Z" />
<glyph unicode="&#xa6;" glyph-name="brokenbar" horiz-adv-x="356" d="M128 826T128 1020Q128 1121 124 1266Q120 1411 120 1510Q120 1584 191 1584Q236 1584 236 1393Q236 1354 235 1329L234 1285L231 877Q231 856 216 841T179 826Q128 826 128 1020ZM164 -80T149
-65T133 -29L130 339L131 644Q131 663 143 679T173 695Q234 695 234 621L236 -16Q236 -80 185 -80Q164 -80 149 -65Z" />
<glyph unicode="&#xa7;" glyph-name="section" horiz-adv-x="540" d="M202 1T171 24T139 82Q139 100 154 110T189 121Q211 121 232 109Q259 109 280 132T313 190T325 257Q325 301 308 347T262 432Q198 515 144 599Q115 642 98 700T80 820Q80 879 104 932T171 1018Q113
1137 113 1275Q113 1443 280 1443Q315 1443 348 1429T381 1392Q381 1352 316 1352Q310 1352 286 1352T244 1346T214 1330Q195 1312 195 1277Q195 1225 212 1173T259 1077Q333 962 377 887Q405 837 422 770T440 634Q440 582 417 537T351 465Q425 349 425 246Q425
186 405 132T342 41Q299 1 240 1Q202 1 171 24ZM340 591T340 649Q340 672 330 724Q327 740 317 761Q319 757 303 794Q299 804 287 826T266 860Q264 863 259 871T244 894Q237 906 224 925Q180 869 180 795Q180 754 197 708T237 627Q257 597 291 549Q340 591 340
649Z" />
<glyph unicode="&#xa8;" glyph-name="dieresis" horiz-adv-x="720" d="M149 1372T128 1394T107 1445Q107 1476 130 1500T184 1524Q213 1524 235 1501T257 1447Q257 1414 235 1393T176 1372Q149 1372 128 1394ZM479 1362T458 1384T437 1435Q437 1466 460 1490T514
1514Q543 1514 565 1491T587 1437Q587 1404 565 1383T506 1362Q479 1362 458 1384Z" />
<glyph unicode="&#xa9;" glyph-name="copyright" horiz-adv-x="1296" d="M448 -20T351 43T212 217T156 502Q152 549 147 646Q146 652 146 660Q134 872 134 924Q134 1002 138 1071T153 1224Q166 1320 185 1398T238 1551Q274 1633 319 1688T428 1777Q495 1812 575
1812Q668 1812 749 1773T891 1664Q947 1598 993 1507T1068 1319Q1095 1225 1114 1120T1140 925Q1147 842 1147 757Q1147 671 1141 599T1121 449Q1105 366 1080 300T1015 175Q974 113 920 71T792 5Q717 -20 624 -20Q448 -20 351 43ZM786 81T882 187Q928 239 959
305T1012 464Q1009 473 1009 483Q1009 500 1021 537Q1033 575 1033 589V894Q1033 953 1010 1051Q1000 1091 994 1121Q968 1254 941 1336T860 1505Q801 1598 717 1658Q711 1662 696 1673T670 1690T644 1703Q621 1713 599 1713Q527 1713 469 1673T373 1561Q296 1413
273 1237Q251 1067 251 940H252Q252 852 264 702L271 595Q281 433 297 342T362 183T509 91Q548 81 598 81Q786 81 882 187ZM633 225T604 234T530 265L472 291Q414 401 389 469T356 609T347 813V825Q347 915 351 992Q353 1047 358 1088T373 1189Q382 1244 396 1284T432
1369Q454 1411 481 1438T547 1482Q586 1499 630 1499Q681 1499 738 1465T833 1378T871 1275Q871 1254 857 1239T821 1223Q795 1223 774 1239T739 1281Q730 1297 714 1329Q683 1387 639 1387Q605 1387 576 1360T531 1291Q516 1253 504 1195T487 1090L482 1029L479
991L473 921L477 911H476Q467 874 467 809V758Q467 699 470 656T483 554Q495 485 514 441T568 365Q606 332 654 332Q685 332 712 348T757 386Q774 409 795 424T836 440Q861 440 875 420T890 372Q890 333 850 298T755 243Q704 225 664 225Q633 225 604 234Z" />
<glyph unicode="&#xaa;" glyph-name="ordfeminine" horiz-adv-x="612" d="M432 759T403 768T373 797Q373 837 361 901L356 926L244 942Q239 923 230 877L225 849L220 826Q216 806 213 794T203 775Q194 764 180 764Q104 764 104 794Q104 797 106 800L107 804L141
934Q191 1124 216 1229T241 1381L244 1427Q248 1471 252 1495T265 1533H323Q360 1533 376 1526T392 1504Q392 1468 397 1412T405 1339Q416 1239 415 1247Q418 1215 435 1105Q436 1098 442 1061T448 1001Q448 990 454 966Q461 938 461 931Q461 920 472 863Q482 812
482 793V792Q482 766 463 759Q432 759 403 768ZM346 1014T346 1040Q346 1087 343 1129T330 1258L327 1282Q318 1360 315 1400L286 1240Q254 1064 248 1016Q267 1003 349 997Q346 1014 346 1040Z" />
<glyph unicode="&#xab;" glyph-name="guillemotleft" horiz-adv-x="916" d="M492 -59T391 111Q288 286 198 470T108 697Q108 719 164 860Q242 1055 289 1167L325 1254L369 1361Q372 1388 390 1425T430 1483V1485L439 1487L449 1489Q474 1489 493 1476T513 1440Q462
1321 374 1075Q281 819 219 687Q229 637 284 529T410 305Q467 211 525 107Q576 13 576 -13Q576 -34 557 -46T512 -59Q492 -59 391 111ZM744 -22T733 -18Q701 -7 373 698Q374 751 479 980Q586 1213 597 1255L605 1289Q617 1342 638 1390Q662 1447 696 1447H699Q700
1446 703 1446L748 1411Q740 1344 700 1241T609 1037Q558 938 524 847T490 702Q490 688 625 414T801 69L827 49Q825 20 811 -1T773 -22Q744 -22 733 -18Z" />
<glyph unicode="&#xac;" glyph-name="logicalnot" horiz-adv-x="1098" d="M809 475T809 592Q809 614 810 629L811 659Q811 697 806 727Q796 727 770 730Q745 733 730 733Q645 733 449 722Q253 711 169 711Q148 711 133 726T118 763Q118 835 336 835Q383 835 447
832Q504 828 519 828Q580 828 687 838Q793 848 854 848Q879 848 900 831T921 790Q921 752 902 720Q902 612 926 537Q923 512 908 494T872 475Q809 475 809 592Z" />
<glyph unicode="&#xad;" glyph-name="uni00AD" horiz-adv-x="580" d="M164 686T151 697T138 725Q138 742 170 754Q217 772 331 779Q377 781 387 781Q405 781 418 770T432 741Q432 725 400 713Q372 702 331 697T239 688Q193 686 182 686Q164 686 151 697Z" />
<glyph unicode="&#xae;" glyph-name="registered" horiz-adv-x="1212" d="M545 -190T476 -171T355 -117Q306 -86 265 -36T195 73Q170 124 150 194T117 334Q107 392 101 471T92 619Q90 701 90 757V917Q90 1000 92 1059T100 1197Q106 1281 117 1350T148 1497Q168
1576 195 1637T263 1756Q304 1815 354 1853T472 1915Q541 1938 620 1938Q705 1938 787 1888T930 1755Q971 1730 1007 1605T1063 1311Q1081 1155 1091 1019T1102 807V739Q1102 637 1097 547Q1093 460 1085 401T1060 254Q1044 174 1022 118T960 -5Q924 -67 879 -103T766
-165Q703 -190 624 -190Q545 -190 476 -171ZM618 -83T675 -66T776 -18Q815 9 849 52T906 145Q926 187 942 246T968 364Q976 412 981 479T987 597Q988 628 988 706Q988 750 989 786V866Q989 1140 963 1321T862 1655Q846 1688 804 1730T714 1802T635 1832Q210 1832
210 954Q210 182 350 27Q373 2 416 -25Q460 -54 473 -64L533 -76L552 -84Q618 -83 675 -66ZM456 143T434 162T412 208Q412 221 413 232V256Q413 379 404 470Q403 484 390 563Q378 637 378 676V1075Q378 1138 366 1264Q353 1385 353 1454Q353 1523 376 1562T446
1618T569 1635Q627 1635 671 1613T742 1554Q765 1520 780 1470T801 1372Q805 1331 805 1270Q805 1203 792 1151T758 1068Q727 1025 683 991Q667 978 664 969Q667 903 846 314H853Q853 292 868 256Q883 219 883 199Q883 181 863 162T826 143Q784 143 739 249Q704
329 680 421T619 667L601 747Q569 883 556 914L501 891L499 859L496 796Q496 702 519 503Q541 312 541 210Q541 180 527 162T485 143Q456 143 434 162ZM683 1075T683 1272V1280Q683 1319 679 1378Q676 1408 670 1430T650 1478Q639 1501 620 1513T575 1525Q515 1525
491 1496T467 1407Q467 1381 471 1337Q475 1293 475 1263Q475 1092 498 1000Q683 1075 683 1272Z" />
<glyph unicode="&#xaf;" glyph-name="overscore" horiz-adv-x="900" d="M156 1421T156 1486Q156 1507 168 1519T202 1532H503Q529 1532 566 1536Q608 1539 629 1539Q728 1539 728 1478Q728 1455 712 1443T670 1431Q614 1431 454 1426Q292 1421 238 1421Q156 1421
156 1486Z" />
<glyph unicode="&#xb0;" glyph-name="degree" horiz-adv-x="882" d="M340 998T292 1026T218 1103Q174 1190 174 1291Q174 1360 203 1414T285 1499T406 1530Q472 1530 526 1514T613 1472Q643 1448 664 1416T693 1352Q700 1324 700 1293Q700 1222 667 1154Q645 1108
614 1076T532 1021Q475 998 407 998Q340 998 292 1026ZM465 1075T506 1091T571 1133Q592 1155 606 1185T627 1244Q632 1271 632 1289Q632 1344 590 1398Q568 1426 523 1444Q475 1461 416 1461Q358 1461 318 1425T264 1336Q251 1288 251 1225Q251 1193 275 1158T337
1099T415 1075Q465 1075 506 1091Z" />
<glyph unicode="&#xb1;" glyph-name="plusminus" horiz-adv-x="900" d="M413 333T393 348T372 385Q372 418 375 485Q378 551 378 584L360 599Q344 599 308 595Q263 590 246 590Q158 590 158 655Q158 677 171 692T204 708Q225 708 265 705Q301 701 326 701Q353
701 372 705L366 777Q360 828 360 855Q360 968 426 968Q450 968 468 951T486 909V904L478 884L480 834Q480 790 484 763Q490 723 496 709Q501 701 506 701Q521 701 557 705Q593 709 624 709Q730 709 730 647Q730 623 713 607T672 591Q652 591 612 597Q567 602 552
602Q486 602 486 553Q486 524 496 471Q506 418 506 389Q506 365 486 349T438 333Q413 333 393 348ZM158 135T158 200Q158 221 170 233T204 246H506Q532 246 569 250Q611 253 632 253Q730 253 730 192Q730 169 714 157T672 145Q616 145 456 140Q294 135 240 135Q158
135 158 200Z" />
<glyph unicode="&#xb2;" glyph-name="uni00B2" horiz-adv-x="540" d="M75 677T75 711V716Q98 742 121 807Q134 845 137 851Q204 1002 234 1121T265 1372Q265 1441 248 1478T203 1518Q186 1509 178 1464Q175 1447 163 1435T136 1422Q122 1422 108 1435T93 1465Q93
1492 105 1516T141 1547L174 1555Q215 1566 226 1566V1567Q261 1567 291 1550Q302 1544 313 1531T331 1506Q341 1488 348 1447Q352 1423 352 1383V1352Q352 1271 337 1179T297 1023Q276 966 237 869Q221 829 205 801Q192 779 186 761Q249 772 341 772Q368 754 364
721Q361 697 350 687Q290 687 243 682Q195 677 156 677Q75 677 75 711Z" />
<glyph unicode="&#xb3;" glyph-name="uni00B3" horiz-adv-x="552" d="M197 688T170 698T124 727T105 771Q105 780 119 791T146 803Q151 803 154 800Q165 790 172 776Q178 764 185 759T211 753Q244 753 262 794T280 902Q280 968 276 1002T258 1068T211 1141Q208
1140 199 1140Q184 1140 174 1146T164 1163Q164 1171 170 1182T192 1214Q213 1243 225 1265T237 1308Q237 1339 231 1390T210 1481T172 1521Q158 1521 152 1509T138 1469Q132 1443 125 1429T102 1415Q74 1415 64 1428T50 1460Q67 1502 105 1537T179 1573Q273 1573
303 1493T333 1323Q333 1300 326 1284T311 1256T299 1239L282 1214Q332 1184 354 1088T377 900Q377 847 354 798T294 718T219 688Q197 688 170 698Z" />
<glyph unicode="&#xb4;" glyph-name="acute" horiz-adv-x="702" d="M229 1312T219 1320T209 1339Q209 1349 220 1360Q266 1403 367 1489Q462 1569 488 1594Q499 1598 505 1598Q529 1598 550 1573T572 1521Q572 1500 557 1489Q475 1429 259 1316Q252 1312 242 1312Q229
1312 219 1320Z" />
<glyph unicode="&#xb5;" glyph-name="uni00B5" horiz-adv-x="739" d="M629 1314T629 1290Q629 1250 622 1186Q615 1122 615 1084Q615 1050 611 999Q606 936 606 913Q606 903 607 896Q608 888 608 878Q608 -31 344 -31Q261 -31 210 29V-251Q210 -272 195 -287T158
-302Q107 -302 107 -108Q107 156 100 591Q93 1025 93 1288Q93 1362 164 1362Q181 1362 193 1346T206 1311L208 734Q208 645 209 603Q212 544 221 458Q235 309 235 241Q235 91 365 91Q511 91 511 1192V1307V1325Q510 1332 510 1341Q510 1366 522 1377T566 1389Q592
1389 608 1374T627 1338Q629 1314 629 1290Z" />
<glyph unicode="&#xb6;" glyph-name="paragraph" horiz-adv-x="979" d="M650 -20T650 103Q650 299 660 640Q669 999 669 1177Q669 1261 662 1400Q654 1558 654 1623L656 1655Q657 1670 657 1689Q657 1769 595 1769Q586 1769 586 1689Q586 1578 600 1334Q613 1107
613 980Q613 819 594 522Q575 225 575 64Q575 27 562 10T516 -8Q489 -8 472 10T454 56Q454 215 476 510Q497 812 497 964L495 1037L493 1098Q427 1098 380 1102T274 1119Q210 1133 167 1156T88 1220Q52 1262 38 1321Q38 1322 34 1349Q29 1373 25 1384Q25 1476 38
1544T81 1661Q111 1712 149 1745T246 1799Q304 1820 367 1833T520 1854Q542 1876 582 1876Q596 1876 628 1868L662 1859L661 1858L717 1865L726 1854Q756 1853 800 1840Q822 1833 835 1820T849 1790Q849 1768 832 1753T792 1738Q786 1738 781 1739H769Q769 1631
776 1445Q783 1259 783 1142Q783 997 777 704Q771 412 771 265Q771 228 777 151Q783 75 783 36Q783 12 766 -4T725 -20Q650 -20 650 103ZM483 1196T491 1199L495 1200Q495 1290 485 1449Q475 1606 475 1697L477 1740Q448 1748 395 1748Q327 1748 268 1705T173 1594T138
1454L137 1455Q137 1391 154 1342T201 1264Q227 1238 273 1222T369 1201Q419 1196 480 1196Q483 1196 491 1199Z" />
<glyph unicode="&#xb7;" glyph-name="middot" horiz-adv-x="592" d="M254 633T233 655T212 706Q212 737 235 761T289 785Q318 785 340 762T362 708Q362 675 340 654T281 633Q254 633 233 655Z" />
<glyph unicode="&#xb8;" glyph-name="cedilla" horiz-adv-x="774" d="M286 -449T258 -434T230 -394Q230 -373 252 -373Q265 -373 285 -383Q307 -394 318 -394Q353 -394 375 -351T398 -251Q398 -184 367 -160Q358 -160 340 -163Q323 -167 312 -167Q282 -167 256
-126Q273 -86 273 -9V14L332 22Q324 -28 324 -81Q473 -92 473 -287Q473 -319 451 -357T393 -422T318 -449Q286 -449 258 -434Z" />
<glyph unicode="&#xb9;" glyph-name="uni00B9" horiz-adv-x="487" d="M126 691T126 733Q126 750 134 767T160 784Q185 784 185 803Q185 848 181 910T171 1051L168 1095L161 1185Q150 1326 150 1383L152 1403Q153 1409 153 1415T152 1424Q152 1478 113 1478L100
1477H95Q73 1477 64 1486T54 1524Q54 1541 79 1556T146 1571Q175 1571 206 1566T242 1552Q236 1522 236 1504Q236 1459 245 1400Q253 1326 253 1295Q253 1206 265 1027L268 982Q277 849 277 797V789Q295 792 306 792Q311 793 319 793Q339 793 348 791T362 776T367
736Q367 718 333 705T238 692H178Q171 691 162 691Q126 691 126 733Z" />
<glyph unicode="&#xba;" glyph-name="ordmasculine" horiz-adv-x="598" d="M252 771T209 791T151 840Q122 902 110 991Q100 1066 100 1140L101 1163V1183Q101 1189 100 1189V1209L101 1289Q102 1333 110 1405Q116 1459 136 1511Q144 1532 174 1545T225 1558Q275
1558 330 1540T408 1495Q432 1466 448 1425T470 1336Q476 1290 476 1235V1227Q476 1191 477 1163Q478 1134 478 1098Q478 930 434 851T287 771Q252 771 209 791ZM303 858T319 874T346 920Q370 988 372 1004Q377 1043 377 1105Q377 1156 370 1239Q367 1278 366 1308T363
1346L362 1360Q361 1403 335 1435T268 1467Q231 1467 217 1423Q211 1404 208 1386T206 1363Q207 1356 207 1344T207 1326V1295Q207 1266 205 1243Q202 1207 202 1190Q202 1129 206 1069Q208 1035 211 1018T222 968L228 943Q248 858 282 858Q303 858 319 874Z" />
<glyph unicode="&#xbb;" glyph-name="guillemotright" horiz-adv-x="934" d="M383 -56T364 -44T344 -10Q344 16 396 110Q447 205 510 308Q582 427 637 533T702 689Q641 816 567 1068Q539 1163 497 1262T406 1433Q408 1458 426 1474T471 1490Q477 1490 482 1488L486
1486H489V1484L490 1485Q511 1464 529 1428T552 1363Q626 1184 632 1169Q687 1038 757 862Q812 724 812 700Q812 659 723 475T530 114Q429 -56 409 -56Q383 -56 364 -44ZM122 -23T108 -2T92 49L117 69Q168 164 297 426T427 702Q427 756 403 829T337 982Q321 1014
312 1030Q267 1119 242 1171T198 1279Q172 1353 170 1411L215 1446L225 1444Q267 1425 285 1382Q301 1343 311 1297Q318 1264 321 1255Q334 1208 439 981Q544 755 545 698L188 -19H184L165 -21L146 -23Q122 -23 108 -2Z" />
<glyph unicode="&#xbc;" glyph-name="onequarter" horiz-adv-x="1337" d="M126 691T126 733Q126 750 134 767T160 784Q185 784 185 803Q185 848 181 910T171 1051L168 1095L161 1185Q150 1326 150 1383L152 1403Q153 1409 153 1415T152 1424Q152 1478 113 1478L100
1477H95Q73 1477 64 1486T54 1524Q54 1541 79 1556T146 1571Q175 1571 206 1566T242 1552Q236 1522 236 1504Q236 1459 245 1400Q253 1326 253 1295Q253 1206 265 1027L268 982Q277 849 277 797V789Q295 792 306 792Q311 793 319 793Q339 793 348 791T362 776T367
736Q367 718 333 705T238 692H178Q171 691 162 691Q126 691 126 733ZM403 -7T403 30Q403 154 461 404T621 1017Q706 1322 732 1453Q732 1457 740 1493Q747 1524 756 1534Q771 1553 789 1553Q811 1553 827 1539T844 1503Q844 1475 838 1445T819 1370Q810 1343 802
1311Q664 720 571 292Q564 259 561 238Q550 181 542 145T521 68Q506 21 488 -5T449 -31H441Q403 -7 403 30ZM1149 -38T1131 -30T1099 -9T1085 16V20Q1091 41 1091 61Q1091 84 1087 116Q1083 149 1083 171V186L1084 221Q1084 234 1082 256L1050 255Q1008 255 992
253Q971 250 959 250V249Q921 249 904 253T875 268Q875 285 876 309T880 341Q875 371 875 405Q875 422 878 443Q881 464 884 493Q892 576 892 608V818Q892 828 893 832T899 837L937 840Q952 840 970 832T988 812Q988 804 987 793T985 768L983 724V714Q982 709 982
703Q982 695 984 683V679Q988 652 988 618Q988 559 980 474Q976 433 974 407T972 359Q972 341 973 333L997 334Q1066 337 1075 339Q1075 381 1080 470Q1085 560 1085 628Q1085 638 1112 645T1155 653L1173 633V579Q1173 433 1170 344L1184 346L1203 347Q1206 347
1217 347T1233 338T1237 306Q1237 290 1225 278T1192 265Q1173 265 1173 255Q1173 210 1176 146T1185 69Q1183 60 1183 48Q1183 33 1188 25V5Q1188 -13 1181 -25T1161 -38Q1149 -38 1131 -30Z" />
<glyph unicode="&#xbd;" glyph-name="onehalf" horiz-adv-x="1354" d="M126 691T126 733Q126 750 134 767T160 784Q185 784 185 803Q185 848 181 910T171 1051L168 1095L161 1185Q150 1326 150 1383L152 1403Q153 1409 153 1415T152 1424Q152 1478 113 1478L100
1477H95Q73 1477 64 1486T54 1524Q54 1541 79 1556T146 1571Q175 1571 206 1566T242 1552Q236 1522 236 1504Q236 1459 245 1400Q253 1326 253 1295Q253 1206 265 1027L268 982Q277 849 277 797V789Q295 792 306 792Q311 793 319 793Q339 793 348 791T362 776T367
736Q367 718 333 705T238 692H178Q171 691 162 691Q126 691 126 733ZM914 -5T914 29V34Q937 60 960 125Q973 163 976 169Q1043 320 1073 439T1104 690Q1104 759 1087 796T1042 836Q1025 827 1017 782Q1014 765 1002 753T975 740Q961 740 947 753T932 783Q932 810
944 834T980 865L1013 873Q1054 884 1065 884V885Q1100 885 1130 868Q1141 862 1152 849T1170 824Q1180 806 1187 765Q1191 741 1191 701V670Q1191 589 1176 497T1136 341Q1115 284 1076 187Q1060 147 1044 119Q1031 97 1025 79Q1088 90 1180 90Q1207 72 1203 39Q1200
15 1189 5Q1129 5 1082 0Q1034 -5 995 -5Q914 -5 914 29ZM418 -7T418 30Q418 154 476 404T636 1017Q721 1322 747 1453Q747 1457 755 1493Q762 1524 771 1534Q786 1553 804 1553Q826 1553 842 1539T859 1503Q859 1475 853 1445T834 1370Q825 1343 817 1311Q679
720 586 292Q579 259 576 238Q565 181 557 145T536 68Q521 21 503 -5T464 -31H456Q418 -7 418 30Z" />
<glyph unicode="&#xbe;" glyph-name="threequarters" horiz-adv-x="1337" d="M197 688T170 698T124 727T105 771Q105 780 119 791T146 803Q151 803 154 800Q165 790 172 776Q178 764 185 759T211 753Q244 753 262 794T280 902Q280 968 276 1002T258 1068T211 1141Q208
1140 199 1140Q184 1140 174 1146T164 1163Q164 1171 170 1182T192 1214Q213 1243 225 1265T237 1308Q237 1339 231 1390T210 1481T172 1521Q158 1521 152 1509T138 1469Q132 1443 125 1429T102 1415Q74 1415 64 1428T50 1460Q67 1502 105 1537T179 1573Q273 1573
303 1493T333 1323Q333 1300 326 1284T311 1256T299 1239L282 1214Q332 1184 354 1088T377 900Q377 847 354 798T294 718T219 688Q197 688 170 698ZM373 -7T373 30Q373 154 431 404T591 1017Q676 1322 702 1453Q702 1457 710 1493Q717 1524 726 1534Q741 1553 759
1553Q781 1553 797 1539T814 1503Q814 1475 808 1445T789 1370Q780 1343 772 1311Q634 720 541 292Q534 259 531 238Q520 181 512 145T491 68Q476 21 458 -5T419 -31H411Q373 -7 373 30ZM1149 -38T1131 -30T1099 -9T1085 16V20Q1091 41 1091 61Q1091 84 1087 116Q1083
149 1083 171V186L1084 221Q1084 234 1082 256L1050 255Q1008 255 992 253Q971 250 959 250V249Q921 249 904 253T875 268Q875 285 876 309T880 341Q875 371 875 405Q875 422 878 443Q881 464 884 493Q892 576 892 608V818Q892 828 893 832T899 837L937 840Q952
840 970 832T988 812Q988 804 987 793T985 768L983 724V714Q982 709 982 703Q982 695 984 683V679Q988 652 988 618Q988 559 980 474Q976 433 974 407T972 359Q972 341 973 333L997 334Q1066 337 1075 339Q1075 381 1080 470Q1085 560 1085 628Q1085 638 1112 645T1155
653L1173 633V579Q1173 433 1170 344L1184 346L1203 347Q1206 347 1217 347T1233 338T1237 306Q1237 290 1225 278T1192 265Q1173 265 1173 255Q1173 210 1176 146T1185 69Q1183 60 1183 48Q1183 33 1188 25V5Q1188 -13 1181 -25T1161 -38Q1149 -38 1131 -30Z"
/>
<glyph unicode="&#xbf;" glyph-name="questiondown" horiz-adv-x="545" d="M270 1229T253 1241T224 1272T212 1307Q212 1346 234 1365T295 1385Q323 1385 346 1362Q367 1338 367 1309Q367 1280 342 1255T287 1229Q270 1229 253 1241ZM251 -170T217 -153T164 -106Q147
-81 136 -41T123 38Q120 73 120 117Q120 214 138 317T183 510Q209 597 227 732T245 1011Q245 1123 244 1148Q280 1148 286 1151Q290 1154 295 1154Q333 1154 345 1108Q345 988 327 848T273 501L259 418Q230 242 230 119Q230 -70 291 -70Q330 -70 330 21Q330 34
316 132Q316 134 326 144Q337 155 352 164T377 174Q435 174 435 37V18Q435 -35 423 -73T380 -140Q347 -170 295 -170Q251 -170 217 -153Z" />
<glyph unicode="&#xc0;" glyph-name="Agrave" horiz-adv-x="716" d="M495 1T480 13T465 54V321Q438 340 366 354T226 373Q206 339 192 269L186 238Q170 156 157 105T125 23Q46 23 35 64Q55 91 86 256Q113 397 153 631Q199 903 237 1088T317 1401Q363 1543 407
1543Q451 1543 473 1525Q473 1449 513 1130Q553 811 553 710Q553 614 575 400Q596 180 596 70Q596 1 528 1Q495 1 480 13ZM439 441T463 447Q460 491 442 670Q395 1144 395 1236Q395 1251 396 1254Q376 1234 340 1069T273 715T239 464Q326 441 421 441Q439 441 463
447ZM467 1595T372 1623T194 1682T111 1724Q111 1739 121 1758T147 1791T179 1804Q192 1804 276 1761T432 1671T504 1609Q504 1595 489 1595Q467 1595 372 1623Z" />
<glyph unicode="&#xc1;" glyph-name="Aacute" horiz-adv-x="716" d="M495 1T480 13T465 54V321Q438 340 366 354T226 373Q206 339 192 269L186 238Q170 156 157 105T125 23Q46 23 35 64Q55 91 86 256Q113 397 153 631Q199 903 237 1088T317 1401Q363 1543 407
1543Q451 1543 473 1525Q473 1449 513 1130Q553 811 553 710Q553 614 575 400Q596 180 596 70Q596 1 528 1Q495 1 480 13ZM439 441T463 447Q460 491 442 670Q395 1144 395 1236Q395 1251 396 1254Q376 1234 340 1069T273 715T239 464Q326 441 421 441Q439 441 463
447ZM359 1587T349 1595T339 1614Q339 1624 350 1635Q396 1679 497 1764Q592 1844 618 1869Q629 1873 635 1873Q659 1873 680 1848T702 1796Q702 1775 687 1764Q605 1704 389 1591Q382 1587 372 1587Q359 1587 349 1595Z" />
<glyph unicode="&#xc2;" glyph-name="Acircumflex" horiz-adv-x="716" d="M495 1T480 13T465 54V321Q438 340 366 354T226 373Q206 339 192 269L186 238Q170 156 157 105T125 23Q46 23 35 64Q55 91 86 256Q113 397 153 631Q199 903 237 1088T317 1401Q363 1543
407 1543Q451 1543 473 1525Q473 1449 513 1130Q553 811 553 710Q553 614 575 400Q596 180 596 70Q596 1 528 1Q495 1 480 13ZM439 441T463 447Q460 491 442 670Q395 1144 395 1236Q395 1251 396 1254Q376 1234 340 1069T273 715T239 464Q326 441 421 441Q439 441
463 447ZM548 1585T543 1599L463 1875L360 1613Q354 1599 331 1599Q310 1599 295 1610T279 1639Q279 1650 283 1658Q319 1744 337 1791L356 1839Q389 1920 405 1947Q429 1986 452 1996Q465 2001 480 2001Q495 2001 509 1981Q532 1948 561 1843L587 1744Q597 1704
613 1646Q616 1636 616 1628Q616 1608 602 1597T569 1585Q548 1585 543 1599Z" />
<glyph unicode="&#xc3;" glyph-name="Atilde" horiz-adv-x="716" d="M495 1T480 13T465 54V321Q438 340 366 354T226 373Q206 339 192 269L186 238Q170 156 157 105T125 23Q46 23 35 64Q55 91 86 256Q113 397 153 631Q199 903 237 1088T317 1401Q363 1543 407
1543Q451 1543 473 1525Q473 1449 513 1130Q553 811 553 710Q553 614 575 400Q596 180 596 70Q596 1 528 1Q495 1 480 13ZM439 441T463 447Q460 491 442 670Q395 1144 395 1236Q395 1251 396 1254Q376 1234 340 1069T273 715T239 464Q326 441 421 441Q439 441 463
447ZM454 1594T418 1607T366 1638Q331 1681 286 1681Q271 1675 266 1665T262 1642Q264 1630 257 1619T233 1602Q201 1602 180 1617T159 1661Q159 1711 199 1745T307 1780Q331 1780 396 1739Q461 1697 480 1697Q499 1697 510 1709T524 1738Q527 1755 538 1767T569
1779Q601 1779 618 1764T636 1726Q636 1691 618 1661T570 1612T504 1594Q454 1594 418 1607Z" />
<glyph unicode="&#xc4;" glyph-name="Adieresis" horiz-adv-x="716" d="M495 1T480 13T465 54V321Q438 340 366 354T226 373Q206 339 192 269L186 238Q170 156 157 105T125 23Q46 23 35 64Q55 91 86 256Q113 397 153 631Q199 903 237 1088T317 1401Q363 1543 407
1543Q451 1543 473 1525Q473 1449 513 1130Q553 811 553 710Q553 614 575 400Q596 180 596 70Q596 1 528 1Q495 1 480 13ZM439 441T463 447Q460 491 442 670Q395 1144 395 1236Q395 1251 396 1254Q376 1234 340 1069T273 715T239 464Q326 441 421 441Q439 441 463
447ZM250 1605T229 1627T208 1678Q208 1709 231 1733T285 1757Q314 1757 336 1734T358 1680Q358 1647 336 1626T277 1605Q250 1605 229 1627ZM580 1595T559 1617T538 1668Q538 1699 561 1723T615 1747Q644 1747 666 1724T688 1670Q688 1637 666 1616T607 1595Q580
1595 559 1617Z" />
<glyph unicode="&#xc5;" glyph-name="Aring" horiz-adv-x="716" d="M495 1T480 13T465 54V321Q438 340 366 354T226 373Q206 339 192 269L186 238Q170 156 157 105T125 23Q46 23 35 64Q55 91 86 256Q113 397 153 631Q199 903 237 1088T317 1401Q363 1543 407 1543Q451
1543 473 1525Q473 1449 513 1130Q553 811 553 710Q553 614 575 400Q596 180 596 70Q596 1 528 1Q495 1 480 13ZM439 441T463 447Q460 491 442 670Q395 1144 395 1236Q395 1251 396 1254Q376 1234 340 1069T273 715T239 464Q326 441 421 441Q439 441 463 447ZM352
1552T318 1571T267 1625Q236 1687 236 1757Q236 1805 256 1843T314 1902T398 1924Q444 1924 481 1913T543 1884Q564 1867 578 1844T599 1799Q604 1776 604 1758Q604 1708 581 1661Q566 1628 544 1606T485 1568Q449 1552 398 1552Q352 1552 318 1571ZM442 1631T469
1644T509 1679Q531 1718 531 1753Q531 1793 501 1821T409 1850Q361 1850 338 1813T314 1716Q314 1698 327 1678T362 1645T407 1631Q442 1631 469 1644Z" />
<glyph unicode="&#xc6;" glyph-name="AE" horiz-adv-x="1006" d="M512 2L514 3Q531 184 531 253Q531 301 526 443Q521 585 521 633Q515 632 499 632L478 631Q431 629 389 622Q359 617 344 611L243 226Q242 222 240 211T233 172Q221 113 214 86T190 31Q171 1 148
1Q132 1 120 15T108 48Q108 150 164 372Q213 573 287 819L321 931Q369 1094 414 1235L460 1380Q462 1388 467 1407T477 1439Q485 1459 488 1468Q495 1487 504 1498L522 1521Q541 1544 576 1544Q597 1544 655 1549Q713 1554 734 1554Q821 1554 821 1498V1492L800
1450Q693 1450 606 1440Q608 1377 614 1308Q620 1217 620 1166Q620 1091 617 941Q614 791 614 716Q630 717 684 727Q737 735 762 735H772L814 687Q814 621 701 621H692L613 622Q613 545 616 363Q619 180 619 82Q652 82 732 93Q803 103 846 103Q872 103 893 89T914
53Q914 -12 670 -12H638Q622 -12 596 -26Q569 -42 557 -43L512 2ZM461 694T517 706L522 912Q525 1068 525 1153Q525 1225 523 1283Q411 909 364 688Q461 694 517 706Z" />
<glyph unicode="&#xc7;" glyph-name="Ccedilla" horiz-adv-x="691" d="M625 166T656 135Q656 98 641 68T599 19Q574 1 540 -11T472 -28Q435 -33 405 -33Q387 -33 370 -30Q368 -64 368 -81Q517 -92 517 -287Q517 -319 495 -357T437 -422T362 -449Q330 -449 302
-434T274 -394Q274 -373 296 -373Q309 -373 329 -383Q351 -394 362 -394Q397 -394 419 -351T442 -251Q442 -184 411 -160Q402 -160 384 -163Q367 -167 356 -167Q326 -167 300 -126Q317 -87 317 -15Q259 10 217 66Q187 107 163 173T124 313Q111 376 103 462T93 630Q90
702 90 792Q90 867 91 922Q92 977 92 1037Q92 1151 106 1226Q100 1259 100 1290Q100 1372 142 1434T259 1531T426 1565Q459 1565 492 1552T547 1517T569 1465Q569 1444 553 1432T512 1419Q491 1419 468 1426T439 1444V1443H411V1448Q334 1448 285 1415Q266 1401
251 1377T227 1327Q220 1306 216 1270T210 1206Q209 1189 209 1140Q209 1116 212 1069Q215 1023 215 999Q215 975 206 928Q197 880 197 856V807Q197 703 202 588Q204 523 210 472T229 354Q240 296 256 253T299 169Q347 93 432 93Q467 93 519 130Q572 166 596 166Q625
166 656 135Z" />
<glyph unicode="&#xc8;" glyph-name="Egrave" horiz-adv-x="569" d="M215 -12T202 -11T172 -3Q138 9 138 55V1245Q138 1277 124 1349Q110 1421 110 1454V1461Q145 1517 161 1533Q186 1533 237 1542Q288 1551 313 1551Q346 1551 376 1532T407 1484Q407 1423 314
1423Q298 1423 285 1424Q272 1425 255 1425Q238 1425 233 1424Q233 1375 241 1255Q249 1135 249 1086Q249 1054 244 967Q239 879 239 852Q238 852 269 859Q308 870 335 870Q359 870 377 853T395 813Q395 787 380 769T341 750Q329 750 318 751Q306 752 290 752Q260
752 248 737V105L362 111Q479 111 479 57V50Q466 24 434 9T371 -10Q337 -12 304 -12H240Q215 -12 202 -11ZM314 1625T219 1653T41 1712T-42 1754Q-42 1769 -32 1788T-6 1821T26 1834Q39 1834 123 1791T279 1701T351 1639Q351 1625 336 1625Q314 1625 219 1653Z"
/>
<glyph unicode="&#xc9;" glyph-name="Eacute" horiz-adv-x="569" d="M215 -12T202 -11T172 -3Q138 9 138 55V1245Q138 1277 124 1349Q110 1421 110 1454V1461Q145 1517 161 1533Q186 1533 237 1542Q288 1551 313 1551Q346 1551 376 1532T407 1484Q407 1423 314
1423Q298 1423 285 1424Q272 1425 255 1425Q238 1425 233 1424Q233 1375 241 1255Q249 1135 249 1086Q249 1054 244 967Q239 879 239 852Q238 852 269 859Q308 870 335 870Q359 870 377 853T395 813Q395 787 380 769T341 750Q329 750 318 751Q306 752 290 752Q260
752 248 737V105L362 111Q479 111 479 57V50Q466 24 434 9T371 -10Q337 -12 304 -12H240Q215 -12 202 -11ZM206 1617T196 1625T186 1644Q186 1654 197 1665Q243 1709 344 1794Q439 1874 465 1899Q476 1903 482 1903Q506 1903 527 1878T549 1826Q549 1805 534 1794Q452
1734 236 1621Q229 1617 219 1617Q206 1617 196 1625Z" />
<glyph unicode="&#xca;" glyph-name="Ecircumflex" horiz-adv-x="569" d="M215 -12T202 -11T172 -3Q138 9 138 55V1245Q138 1277 124 1349Q110 1421 110 1454V1461Q145 1517 161 1533Q186 1533 237 1542Q288 1551 313 1551Q346 1551 376 1532T407 1484Q407 1423
314 1423Q298 1423 285 1424Q272 1425 255 1425Q238 1425 233 1424Q233 1375 241 1255Q249 1135 249 1086Q249 1054 244 967Q239 879 239 852Q238 852 269 859Q308 870 335 870Q359 870 377 853T395 813Q395 787 380 769T341 750Q329 750 318 751Q306 752 290 752Q260
752 248 737V105L362 111Q479 111 479 57V50Q466 24 434 9T371 -10Q337 -12 304 -12H240Q215 -12 202 -11ZM395 1615T390 1629L310 1905L207 1643Q201 1629 178 1629Q157 1629 142 1640T126 1669Q126 1680 130 1688Q166 1774 184 1821L203 1869Q236 1950 252 1977Q276
2016 299 2026Q312 2031 327 2031Q342 2031 356 2011Q379 1978 408 1873L434 1774Q444 1734 460 1676Q463 1666 463 1658Q463 1638 449 1627T416 1615Q395 1615 390 1629Z" />
<glyph unicode="&#xcb;" glyph-name="Edieresis" horiz-adv-x="569" d="M215 -12T202 -11T172 -3Q138 9 138 55V1245Q138 1277 124 1349Q110 1421 110 1454V1461Q145 1517 161 1533Q186 1533 237 1542Q288 1551 313 1551Q346 1551 376 1532T407 1484Q407 1423
314 1423Q298 1423 285 1424Q272 1425 255 1425Q238 1425 233 1424Q233 1375 241 1255Q249 1135 249 1086Q249 1054 244 967Q239 879 239 852Q238 852 269 859Q308 870 335 870Q359 870 377 853T395 813Q395 787 380 769T341 750Q329 750 318 751Q306 752 290 752Q260
752 248 737V105L362 111Q479 111 479 57V50Q466 24 434 9T371 -10Q337 -12 304 -12H240Q215 -12 202 -11ZM97 1635T76 1657T55 1708Q55 1739 78 1763T132 1787Q161 1787 183 1764T205 1710Q205 1677 183 1656T124 1635Q97 1635 76 1657ZM427 1625T406 1647T385
1698Q385 1729 408 1753T462 1777Q491 1777 513 1754T535 1700Q535 1667 513 1646T454 1625Q427 1625 406 1647Z" />
<glyph unicode="&#xcc;" glyph-name="Igrave" horiz-adv-x="527" d="M75 3T75 64Q75 113 137 113Q151 113 161 112L180 110Q196 110 203 120T210 158Q210 324 191 632Q172 939 172 1105L174 1210L176 1314Q176 1375 171 1428Q144 1419 123 1419Q75 1419 75 1468Q75
1492 105 1510T183 1538Q266 1553 328 1553Q352 1553 370 1537T388 1497Q388 1475 375 1459T340 1442Q328 1442 320 1443H304Q283 1443 274 1434T265 1401Q265 1193 290 802Q315 411 315 203V124Q336 127 357 127Q442 127 442 55V43L391 8L337 6Q288 3 252 3Q75
3 75 64ZM263 1615T168 1643T-10 1702T-93 1744Q-93 1759 -83 1778T-57 1811T-25 1824Q-12 1824 72 1781T228 1691T300 1629Q300 1615 285 1615Q263 1615 168 1643Z" />
<glyph unicode="&#xcd;" glyph-name="Iacute" horiz-adv-x="527" d="M75 3T75 64Q75 113 137 113Q151 113 161 112L180 110Q196 110 203 120T210 158Q210 324 191 632Q172 939 172 1105L174 1210L176 1314Q176 1375 171 1428Q144 1419 123 1419Q75 1419 75 1468Q75
1492 105 1510T183 1538Q266 1553 328 1553Q352 1553 370 1537T388 1497Q388 1475 375 1459T340 1442Q328 1442 320 1443H304Q283 1443 274 1434T265 1401Q265 1193 290 802Q315 411 315 203V124Q336 127 357 127Q442 127 442 55V43L391 8L337 6Q288 3 252 3Q75
3 75 64ZM155 1607T145 1615T135 1634Q135 1644 146 1655Q192 1699 293 1784Q388 1864 414 1889Q425 1893 431 1893Q455 1893 476 1868T498 1816Q498 1795 483 1784Q401 1724 185 1611Q178 1607 168 1607Q155 1607 145 1615Z" />
<glyph unicode="&#xce;" glyph-name="Icircumflex" horiz-adv-x="527" d="M75 3T75 64Q75 113 137 113Q151 113 161 112L180 110Q196 110 203 120T210 158Q210 324 191 632Q172 939 172 1105L174 1210L176 1314Q176 1375 171 1428Q144 1419 123 1419Q75 1419 75
1468Q75 1492 105 1510T183 1538Q266 1553 328 1553Q352 1553 370 1537T388 1497Q388 1475 375 1459T340 1442Q328 1442 320 1443H304Q283 1443 274 1434T265 1401Q265 1193 290 802Q315 411 315 203V124Q336 127 357 127Q442 127 442 55V43L391 8L337 6Q288 3
252 3Q75 3 75 64ZM344 1605T339 1619L259 1895L156 1633Q150 1619 127 1619Q106 1619 91 1630T75 1659Q75 1670 79 1678Q115 1764 133 1811L152 1859Q185 1940 201 1967Q225 2006 248 2016Q261 2021 276 2021Q291 2021 305 2001Q328 1968 357 1863L383 1764Q393
1724 409 1666Q412 1656 412 1648Q412 1628 398 1617T365 1605Q344 1605 339 1619Z" />
<glyph unicode="&#xcf;" glyph-name="Idieresis" horiz-adv-x="527" d="M75 3T75 64Q75 113 137 113Q151 113 161 112L180 110Q196 110 203 120T210 158Q210 324 191 632Q172 939 172 1105L174 1210L176 1314Q176 1375 171 1428Q144 1419 123 1419Q75 1419 75
1468Q75 1492 105 1510T183 1538Q266 1553 328 1553Q352 1553 370 1537T388 1497Q388 1475 375 1459T340 1442Q328 1442 320 1443H304Q283 1443 274 1434T265 1401Q265 1193 290 802Q315 411 315 203V124Q336 127 357 127Q442 127 442 55V43L391 8L337 6Q288 3
252 3Q75 3 75 64ZM46 1625T25 1647T4 1698Q4 1729 27 1753T81 1777Q110 1777 132 1754T154 1700Q154 1667 132 1646T73 1625Q46 1625 25 1647ZM376 1615T355 1637T334 1688Q334 1719 357 1743T411 1767Q440 1767 462 1744T484 1690Q484 1657 462 1636T403 1615Q376
1615 355 1637Z" />
<glyph unicode="&#xd0;" glyph-name="Eth" horiz-adv-x="862" d="M680 1075T684 1022T689 933V868V773Q684 765 684 755Q684 745 687 731L689 711Q689 645 669 555T612 369Q569 262 519 182T405 50Q337 -5 264 -5Q223 -5 194 13T164 65Q209 112 209 306Q209 426
190 645L188 668L182 743Q164 741 155 741Q104 738 70 738Q43 738 23 755T3 797Q3 822 52 840Q101 858 174 866Q171 935 171 982Q171 1018 174 1093Q177 1168 177 1206Q177 1263 155 1352Q132 1446 132 1481Q132 1552 289 1552H320Q377 1552 426 1534T513 1484Q546
1456 574 1412T623 1319Q640 1277 653 1221T675 1115Q680 1075 684 1022ZM584 651T584 854Q584 966 563 1095Q541 1221 468 1326Q434 1375 380 1402T258 1429V1427Q258 1236 283 876Q286 877 293 877Q344 880 377 880Q404 880 424 863T445 821Q445 796 397 778Q358
763 290 753Q307 459 307 310V114Q382 163 439 251T528 449Q584 651 584 854Z" />
<glyph unicode="&#xd1;" glyph-name="Ntilde" horiz-adv-x="843" d="M586 -30T461 392Q330 836 214 1298V626Q214 528 229 334Q243 133 243 42Q243 24 221 11T171 -2Q126 -2 126 30Q126 38 131 91Q136 144 136 177Q136 291 123 521Q110 751 110 812V1073Q110 1145
117 1261Q124 1377 124 1449V1462Q124 1564 169 1564Q197 1564 238 1475Q306 1327 409 947Q467 730 549 377L581 235L583 225Q583 370 587 582Q591 794 591 939V1545Q603 1596 658 1596Q713 1596 713 1516V1504Q701 1479 701 1444Q701 1320 695 1066Q688 829 688
687V61Q688 29 671 0T629 -30Q586 -30 461 392ZM478 1594T442 1607T390 1638Q355 1681 310 1681Q295 1675 290 1665T286 1642Q288 1630 281 1619T257 1602Q225 1602 204 1617T183 1661Q183 1711 223 1745T331 1780Q355 1780 420 1739Q485 1697 504 1697Q523 1697
534 1709T548 1738Q551 1755 562 1767T593 1779Q625 1779 642 1764T660 1726Q660 1691 642 1661T594 1612T528 1594Q478 1594 442 1607Z" />
<glyph unicode="&#xd2;" glyph-name="Ograve" horiz-adv-x="728" d="M337 -57T291 -20T213 79Q184 136 161 218T125 382Q113 454 106 539T95 691Q93 767 93 799Q93 855 92 909L90 1038Q90 1160 100 1256Q110 1364 142 1449Q159 1493 181 1521T236 1568Q270 1585
309 1585Q362 1585 406 1563T481 1499Q514 1453 537 1402T574 1285Q590 1206 599 1145T611 1009Q618 858 618 736V618Q618 573 609 487Q600 402 600 359V350Q587 295 587 215Q587 158 563 97T494 -9Q448 -57 391 -57Q337 -57 291 -20ZM436 55T465 132Q490 200 502
300T521 517Q525 588 525 653Q525 745 522 842Q517 951 498 1118Q481 1255 437 1368Q416 1421 386 1449T319 1477Q271 1477 243 1397Q212 1306 203 1213Q190 1090 188 1006L187 968Q185 872 185 861V852Q185 716 212 515Q229 384 251 288T310 126Q348 55 395 55Q436
55 465 132ZM383 1625T288 1653T110 1712T27 1754Q27 1769 37 1788T63 1821T95 1834Q108 1834 192 1791T348 1701T420 1639Q420 1625 405 1625Q383 1625 288 1653Z" />
<glyph unicode="&#xd3;" glyph-name="Oacute" horiz-adv-x="728" d="M337 -57T291 -20T213 79Q184 136 161 218T125 382Q113 454 106 539T95 691Q93 767 93 799Q93 855 92 909L90 1038Q90 1160 100 1256Q110 1364 142 1449Q159 1493 181 1521T236 1568Q270 1585
309 1585Q362 1585 406 1563T481 1499Q514 1453 537 1402T574 1285Q590 1206 599 1145T611 1009Q618 858 618 736V618Q618 573 609 487Q600 402 600 359V350Q587 295 587 215Q587 158 563 97T494 -9Q448 -57 391 -57Q337 -57 291 -20ZM436 55T465 132Q490 200 502
300T521 517Q525 588 525 653Q525 745 522 842Q517 951 498 1118Q481 1255 437 1368Q416 1421 386 1449T319 1477Q271 1477 243 1397Q212 1306 203 1213Q190 1090 188 1006L187 968Q185 872 185 861V852Q185 716 212 515Q229 384 251 288T310 126Q348 55 395 55Q436
55 465 132ZM275 1617T265 1625T255 1644Q255 1654 266 1665Q312 1709 413 1794Q508 1874 534 1899Q545 1903 551 1903Q575 1903 596 1878T618 1826Q618 1805 603 1794Q521 1734 305 1621Q298 1617 288 1617Q275 1617 265 1625Z" />
<glyph unicode="&#xd4;" glyph-name="Ocircumflex" horiz-adv-x="728" d="M337 -57T291 -20T213 79Q184 136 161 218T125 382Q113 454 106 539T95 691Q93 767 93 799Q93 855 92 909L90 1038Q90 1160 100 1256Q110 1364 142 1449Q159 1493 181 1521T236 1568Q270
1585 309 1585Q362 1585 406 1563T481 1499Q514 1453 537 1402T574 1285Q590 1206 599 1145T611 1009Q618 858 618 736V618Q618 573 609 487Q600 402 600 359V350Q587 295 587 215Q587 158 563 97T494 -9Q448 -57 391 -57Q337 -57 291 -20ZM436 55T465 132Q490
200 502 300T521 517Q525 588 525 653Q525 745 522 842Q517 951 498 1118Q481 1255 437 1368Q416 1421 386 1449T319 1477Q271 1477 243 1397Q212 1306 203 1213Q190 1090 188 1006L187 968Q185 872 185 861V852Q185 716 212 515Q229 384 251 288T310 126Q348 55
395 55Q436 55 465 132ZM464 1615T459 1629L379 1905L276 1643Q270 1629 247 1629Q226 1629 211 1640T195 1669Q195 1680 199 1688Q235 1774 253 1821L272 1869Q305 1950 321 1977Q345 2016 368 2026Q381 2031 396 2031Q411 2031 425 2011Q448 1978 477 1873L503
1774Q513 1734 529 1676Q532 1666 532 1658Q532 1638 518 1627T485 1615Q464 1615 459 1629Z" />
<glyph unicode="&#xd5;" glyph-name="Otilde" horiz-adv-x="728" d="M337 -57T291 -20T213 79Q184 136 161 218T125 382Q113 454 106 539T95 691Q93 767 93 799Q93 855 92 909L90 1038Q90 1160 100 1256Q110 1364 142 1449Q159 1493 181 1521T236 1568Q270 1585
309 1585Q362 1585 406 1563T481 1499Q514 1453 537 1402T574 1285Q590 1206 599 1145T611 1009Q618 858 618 736V618Q618 573 609 487Q600 402 600 359V350Q587 295 587 215Q587 158 563 97T494 -9Q448 -57 391 -57Q337 -57 291 -20ZM436 55T465 132Q490 200 502
300T521 517Q525 588 525 653Q525 745 522 842Q517 951 498 1118Q481 1255 437 1368Q416 1421 386 1449T319 1477Q271 1477 243 1397Q212 1306 203 1213Q190 1090 188 1006L187 968Q185 872 185 861V852Q185 716 212 515Q229 384 251 288T310 126Q348 55 395 55Q436
55 465 132ZM370 1624T334 1637T282 1668Q247 1711 202 1711Q187 1705 182 1695T178 1672Q180 1660 173 1649T149 1632Q117 1632 96 1647T75 1691Q75 1741 115 1775T223 1810Q247 1810 312 1769Q377 1727 396 1727Q415 1727 426 1739T440 1768Q443 1785 454 1797T485
1809Q517 1809 534 1794T552 1756Q552 1721 534 1691T486 1642T420 1624Q370 1624 334 1637Z" />
<glyph unicode="&#xd6;" glyph-name="Odieresis" horiz-adv-x="728" d="M337 -57T291 -20T213 79Q184 136 161 218T125 382Q113 454 106 539T95 691Q93 767 93 799Q93 855 92 909L90 1038Q90 1160 100 1256Q110 1364 142 1449Q159 1493 181 1521T236 1568Q270
1585 309 1585Q362 1585 406 1563T481 1499Q514 1453 537 1402T574 1285Q590 1206 599 1145T611 1009Q618 858 618 736V618Q618 573 609 487Q600 402 600 359V350Q587 295 587 215Q587 158 563 97T494 -9Q448 -57 391 -57Q337 -57 291 -20ZM436 55T465 132Q490
200 502 300T521 517Q525 588 525 653Q525 745 522 842Q517 951 498 1118Q481 1255 437 1368Q416 1421 386 1449T319 1477Q271 1477 243 1397Q212 1306 203 1213Q190 1090 188 1006L187 968Q185 872 185 861V852Q185 716 212 515Q229 384 251 288T310 126Q348 55
395 55Q436 55 465 132ZM166 1635T145 1657T124 1708Q124 1739 147 1763T201 1787Q230 1787 252 1764T274 1710Q274 1677 252 1656T193 1635Q166 1635 145 1657ZM496 1625T475 1647T454 1698Q454 1729 477 1753T531 1777Q560 1777 582 1754T604 1700Q604 1667 582
1646T523 1625Q496 1625 475 1647Z" />
<glyph unicode="&#xd7;" glyph-name="multiply" horiz-adv-x="828" d="M549 412Q529 432 506 458L441 528Q408 561 403 562Q393 561 369 528Q296 430 251 430Q228 430 209 449T189 490Q189 506 212 531T278 594Q311 623 323 638L265 685Q210 729 184 761T158 823Q158
846 176 863T218 880Q230 880 268 848Q305 817 353 772Q399 727 407 721Q434 735 487 805Q506 831 531 848T580 866Q601 866 617 849T634 811Q634 791 614 768T565 727Q536 709 516 686T496 643Q496 624 519 603T576 561Q609 541 632 517T655 473Q655 444 633 422T582
399L549 412Z" />
<glyph unicode="&#xd8;" glyph-name="Oslash" horiz-adv-x="729" d="M123 -224L185 143Q136 269 115 448T93 799Q93 855 92 909Q92 931 91 941L90 1039Q90 1161 100 1257Q110 1366 142 1449Q159 1493 181 1521T236 1568Q270 1585 309 1585Q382 1585 435 1545L480
1799H559L495 1481Q576 1363 601 1131Q612 1025 615 939T619 734V674Q618 648 618 618Q618 573 609 487Q600 402 600 359V350Q587 295 587 215Q587 158 563 97T494 -9Q448 -57 391 -57Q344 -57 309 -32T240 47L168 -280L123 -224ZM412 1415Q371 1477 319 1477Q271
1477 243 1397Q212 1306 203 1213Q190 1090 188 1006L187 968Q185 872 185 861V852Q185 778 197 645T230 396L412 1415ZM436 55T465 132Q490 200 502 300T521 517Q525 588 525 653Q525 1082 461 1299L266 239Q318 55 395 55Q436 55 465 132Z" />
<glyph unicode="&#xd9;" glyph-name="Ugrave" horiz-adv-x="821" d="M417 -37T366 -9T278 73Q239 129 211 196T166 350Q147 446 136 532T118 722Q108 902 108 1115Q108 1212 109 1284Q110 1356 110 1435Q95 1452 95 1477Q95 1502 112 1521T154 1540Q228 1540 228
1394Q228 1265 238 1039Q247 801 247 682Q258 657 267 577T276 444Q276 399 291 333T331 199Q358 128 401 82T492 35Q521 35 540 53T566 107Q573 141 575 163T577 219V619Q577 689 564 812Q551 935 551 1005V1019L549 1079L547 1138Q547 1204 540 1313Q532 1438
532 1489Q532 1513 556 1529T609 1545L659 1497V1463Q659 1440 652 1402Q644 1357 644 1338Q644 1158 663 823Q681 480 681 288Q681 232 677 192T662 109Q650 62 629 33T570 -17Q530 -37 479 -37Q417 -37 366 -9ZM440 1595T345 1623T167 1682T84 1724Q84 1739 94
1758T120 1791T152 1804Q165 1804 249 1761T405 1671T477 1609Q477 1595 462 1595Q440 1595 345 1623Z" />
<glyph unicode="&#xda;" glyph-name="Uacute" horiz-adv-x="821" d="M417 -37T366 -9T278 73Q239 129 211 196T166 350Q147 446 136 532T118 722Q108 902 108 1115Q108 1212 109 1284Q110 1356 110 1435Q95 1452 95 1477Q95 1502 112 1521T154 1540Q228 1540 228
1394Q228 1265 238 1039Q247 801 247 682Q258 657 267 577T276 444Q276 399 291 333T331 199Q358 128 401 82T492 35Q521 35 540 53T566 107Q573 141 575 163T577 219V619Q577 689 564 812Q551 935 551 1005V1019L549 1079L547 1138Q547 1204 540 1313Q532 1438
532 1489Q532 1513 556 1529T609 1545L659 1497V1463Q659 1440 652 1402Q644 1357 644 1338Q644 1158 663 823Q681 480 681 288Q681 232 677 192T662 109Q650 62 629 33T570 -17Q530 -37 479 -37Q417 -37 366 -9ZM332 1587T322 1595T312 1614Q312 1624 323 1635Q369
1679 470 1764Q565 1844 591 1869Q602 1873 608 1873Q632 1873 653 1848T675 1796Q675 1775 660 1764Q578 1704 362 1591Q355 1587 345 1587Q332 1587 322 1595Z" />
<glyph unicode="&#xdb;" glyph-name="Ucircumflex" horiz-adv-x="821" d="M417 -37T366 -9T278 73Q239 129 211 196T166 350Q147 446 136 532T118 722Q108 902 108 1115Q108 1212 109 1284Q110 1356 110 1435Q95 1452 95 1477Q95 1502 112 1521T154 1540Q228 1540
228 1394Q228 1265 238 1039Q247 801 247 682Q258 657 267 577T276 444Q276 399 291 333T331 199Q358 128 401 82T492 35Q521 35 540 53T566 107Q573 141 575 163T577 219V619Q577 689 564 812Q551 935 551 1005V1019L549 1079L547 1138Q547 1204 540 1313Q532
1438 532 1489Q532 1513 556 1529T609 1545L659 1497V1463Q659 1440 652 1402Q644 1357 644 1338Q644 1158 663 823Q681 480 681 288Q681 232 677 192T662 109Q650 62 629 33T570 -17Q530 -37 479 -37Q417 -37 366 -9ZM521 1585T516 1599L436 1875L333 1613Q327
1599 304 1599Q283 1599 268 1610T252 1639Q252 1650 256 1658Q292 1744 310 1791L329 1839Q362 1920 378 1947Q402 1986 425 1996Q438 2001 453 2001Q468 2001 482 1981Q505 1948 534 1843L560 1744Q570 1704 586 1646Q589 1636 589 1628Q589 1608 575 1597T542
1585Q521 1585 516 1599Z" />
<glyph unicode="&#xdc;" glyph-name="Udieresis" horiz-adv-x="821" d="M417 -37T366 -9T278 73Q239 129 211 196T166 350Q147 446 136 532T118 722Q108 902 108 1115Q108 1212 109 1284Q110 1356 110 1435Q95 1452 95 1477Q95 1502 112 1521T154 1540Q228 1540
228 1394Q228 1265 238 1039Q247 801 247 682Q258 657 267 577T276 444Q276 399 291 333T331 199Q358 128 401 82T492 35Q521 35 540 53T566 107Q573 141 575 163T577 219V619Q577 689 564 812Q551 935 551 1005V1019L549 1079L547 1138Q547 1204 540 1313Q532
1438 532 1489Q532 1513 556 1529T609 1545L659 1497V1463Q659 1440 652 1402Q644 1357 644 1338Q644 1158 663 823Q681 480 681 288Q681 232 677 192T662 109Q650 62 629 33T570 -17Q530 -37 479 -37Q417 -37 366 -9ZM223 1605T202 1627T181 1678Q181 1709 204
1733T258 1757Q287 1757 309 1734T331 1680Q331 1647 309 1626T250 1605Q223 1605 202 1627ZM553 1595T532 1617T511 1668Q511 1699 534 1723T588 1747Q617 1747 639 1724T661 1670Q661 1637 639 1616T580 1595Q553 1595 532 1617Z" />
<glyph unicode="&#xdd;" glyph-name="Yacute" horiz-adv-x="543" d="M248 -25T233 -11T217 25Q217 76 222 223Q227 370 227 421Q227 484 208 599Q188 719 188 776Q188 854 165 954T109 1146Q76 1235 53 1335T30 1513Q30 1527 47 1538T82 1549Q102 1549 125 1502Q144
1460 161 1395T198 1236L226 1095Q241 1020 245 1006Q249 1021 255 1092Q268 1259 287 1374Q299 1447 320 1493Q341 1539 369 1539Q423 1539 423 1517Q423 1400 374 1174Q325 948 325 828Q325 817 322 794Q318 770 319 757V726Q319 635 325 455Q330 253 330 183Q330
163 334 135Q337 104 337 87V35Q337 9 317 -8T269 -25Q248 -25 233 -11ZM233 1587T223 1595T213 1614Q213 1624 224 1635Q270 1679 371 1764Q466 1844 492 1869Q503 1873 509 1873Q533 1873 554 1848T576 1796Q576 1775 561 1764Q479 1704 263 1591Q256 1587 246
1587Q233 1587 223 1595Z" />
<glyph unicode="&#xde;" glyph-name="Thorn" horiz-adv-x="536" d="M145 -11T132 9T119 58Q119 245 108 677Q97 1109 97 1297L95 1487Q95 1548 146 1548Q216 1548 216 1424Q216 1401 215 1385L214 1353Q296 1342 358 1280T450 1132Q476 1049 476 965Q476 813 410
691T220 502Q220 443 228 291Q236 139 236 74Q236 -11 168 -11Q145 -11 132 9ZM295 677T332 760T370 948Q370 1032 358 1079T316 1161Q284 1196 217 1249H211L213 925L215 601Q295 677 332 760Z" />
<glyph unicode="&#xdf;" glyph-name="germandbls" horiz-adv-x="662" d="M100 -47T100 4Q100 73 105 271Q110 469 110 538Q110 672 103 893Q95 1146 95 1249Q95 1339 117 1422Q130 1471 151 1505T209 1562Q247 1585 293 1585Q347 1585 387 1551T448 1460Q483 1359
483 1249Q483 1066 357 859Q431 803 470 747T526 619T542 444Q542 328 494 223T360 49L356 48Q349 45 345 45Q327 45 312 55T296 81Q296 105 370 201Q400 241 421 298T443 409Q443 510 426 589T380 709Q357 743 328 772Q321 778 302 796T274 827T265 854Q265 870
295 940Q331 1028 357 1118T383 1274Q383 1322 365 1391Q355 1427 336 1450T293 1473Q267 1473 247 1454T215 1404Q195 1347 195 1294Q195 1074 211 671Q226 256 226 46Q226 0 212 -23T160 -47Q100 -47 100 4Z" />
<glyph unicode="&#xe0;" glyph-name="agrave" horiz-adv-x="612" d="M482 -19T460 -4T437 49Q437 114 415 258L407 302L205 332Q188 273 171 142Q158 41 132 9Q115 -11 90 -11Q65 -11 45 5T25 44Q25 47 28 54L30 62Q167 591 235 1100Q239 1144 242 1183Q247 1259
255 1304T279 1373H348Q378 1373 398 1360T418 1321Q418 1166 460 858Q501 547 501 416Q501 399 512 353Q523 307 523 290Q523 268 543 168Q562 73 562 41V39Q562 -6 528 -19Q482 -19 460 -4ZM388 405T388 451Q388 548 380 654T355 922Q341 1043 333 1134Q240 620
213 408Q247 386 394 375Q388 405 388 451ZM404 1470T309 1498T131 1557T48 1599Q48 1614 58 1633T84 1666T116 1679Q129 1679 213 1636T369 1546T441 1484Q441 1470 426 1470Q404 1470 309 1498Z" />
<glyph unicode="&#xe1;" glyph-name="aacute" horiz-adv-x="612" d="M482 -19T460 -4T437 49Q437 114 415 258L407 302L205 332Q188 273 171 142Q158 41 132 9Q115 -11 90 -11Q65 -11 45 5T25 44Q25 47 28 54L30 62Q167 591 235 1100Q239 1144 242 1183Q247 1259
255 1304T279 1373H348Q378 1373 398 1360T418 1321Q418 1166 460 858Q501 547 501 416Q501 399 512 353Q523 307 523 290Q523 268 543 168Q562 73 562 41V39Q562 -6 528 -19Q482 -19 460 -4ZM388 405T388 451Q388 548 380 654T355 922Q341 1043 333 1134Q240 620
213 408Q247 386 394 375Q388 405 388 451ZM324 1462T314 1470T304 1489Q304 1499 315 1510Q361 1554 462 1639Q557 1719 583 1744Q594 1748 600 1748Q624 1748 645 1723T667 1671Q667 1650 652 1639Q570 1579 354 1466Q347 1462 337 1462Q324 1462 314 1470Z"
/>
<glyph unicode="&#xe2;" glyph-name="acircumflex" horiz-adv-x="612" d="M482 -19T460 -4T437 49Q437 114 415 258L407 302L205 332Q188 273 171 142Q158 41 132 9Q115 -11 90 -11Q65 -11 45 5T25 44Q25 47 28 54L30 62Q167 591 235 1100Q239 1144 242 1183Q247
1259 255 1304T279 1373H348Q378 1373 398 1360T418 1321Q418 1166 460 858Q501 547 501 416Q501 399 512 353Q523 307 523 290Q523 268 543 168Q562 73 562 41V39Q562 -6 528 -19Q482 -19 460 -4ZM388 405T388 451Q388 548 380 654T355 922Q341 1043 333 1134Q240
620 213 408Q247 386 394 375Q388 405 388 451ZM456 1390T451 1404L371 1680L268 1418Q262 1404 239 1404Q218 1404 203 1415T187 1444Q187 1455 191 1463Q227 1549 245 1596L264 1644Q297 1725 313 1752Q337 1791 360 1801Q373 1806 388 1806Q403 1806 417 1786Q440
1753 469 1648L495 1549Q505 1509 521 1451Q524 1441 524 1433Q524 1413 510 1402T477 1390Q456 1390 451 1404Z" />
<glyph unicode="&#xe3;" glyph-name="atilde" horiz-adv-x="612" d="M482 -19T460 -4T437 49Q437 114 415 258L407 302L205 332Q188 273 171 142Q158 41 132 9Q115 -11 90 -11Q65 -11 45 5T25 44Q25 47 28 54L30 62Q167 591 235 1100Q239 1144 242 1183Q247 1259
255 1304T279 1373H348Q378 1373 398 1360T418 1321Q418 1166 460 858Q501 547 501 416Q501 399 512 353Q523 307 523 290Q523 268 543 168Q562 73 562 41V39Q562 -6 528 -19Q482 -19 460 -4ZM388 405T388 451Q388 548 380 654T355 922Q341 1043 333 1134Q240 620
213 408Q247 386 394 375Q388 405 388 451ZM412 1469T376 1482T324 1513Q289 1556 244 1556Q229 1550 224 1540T220 1517Q222 1505 215 1494T191 1477Q159 1477 138 1492T117 1536Q117 1586 157 1620T265 1655Q289 1655 354 1614Q419 1572 438 1572Q457 1572 468
1584T482 1613Q485 1630 496 1642T527 1654Q559 1654 576 1639T594 1601Q594 1566 576 1536T528 1487T462 1469Q412 1469 376 1482Z" />
<glyph unicode="&#xe4;" glyph-name="adieresis" horiz-adv-x="612" d="M482 -19T460 -4T437 49Q437 114 415 258L407 302L205 332Q188 273 171 142Q158 41 132 9Q115 -11 90 -11Q65 -11 45 5T25 44Q25 47 28 54L30 62Q167 591 235 1100Q239 1144 242 1183Q247
1259 255 1304T279 1373H348Q378 1373 398 1360T418 1321Q418 1166 460 858Q501 547 501 416Q501 399 512 353Q523 307 523 290Q523 268 543 168Q562 73 562 41V39Q562 -6 528 -19Q482 -19 460 -4ZM388 405T388 451Q388 548 380 654T355 922Q341 1043 333 1134Q240
620 213 408Q247 386 394 375Q388 405 388 451ZM158 1512T137 1534T116 1585Q116 1616 139 1640T193 1664Q222 1664 244 1641T266 1587Q266 1554 244 1533T185 1512Q158 1512 137 1534ZM488 1502T467 1524T446 1575Q446 1606 469 1630T523 1654Q552 1654 574 1631T596
1577Q596 1544 574 1523T515 1502Q488 1502 467 1524Z" />
<glyph unicode="&#xe5;" glyph-name="aring" horiz-adv-x="612" d="M482 -19T460 -4T437 49Q437 114 415 258L407 302L205 332Q188 273 171 142Q158 41 132 9Q115 -11 90 -11Q65 -11 45 5T25 44Q25 47 28 54L30 62Q167 591 235 1100Q239 1144 242 1183Q247 1259
255 1304T279 1373H348Q378 1373 398 1360T418 1321Q418 1166 460 858Q501 547 501 416Q501 399 512 353Q523 307 523 290Q523 268 543 168Q562 73 562 41V39Q562 -6 528 -19Q482 -19 460 -4ZM388 405T388 451Q388 548 380 654T355 922Q341 1043 333 1134Q240 620
213 408Q247 386 394 375Q388 405 388 451ZM288 1452T254 1471T203 1525Q172 1587 172 1657Q172 1705 192 1743T250 1802T334 1824Q380 1824 417 1813T479 1784Q500 1767 514 1744T535 1699Q540 1676 540 1658Q540 1608 517 1561Q502 1528 480 1506T421 1468Q385
1452 334 1452Q288 1452 254 1471ZM378 1531T405 1544T445 1579Q467 1618 467 1653Q467 1693 437 1721T345 1750Q297 1750 274 1713T250 1616Q250 1598 263 1578T298 1545T343 1531Q378 1531 405 1544Z" />
<glyph unicode="&#xe6;" glyph-name="ae" horiz-adv-x="898" d="M512 2L514 3Q531 184 531 253Q531 301 526 443Q521 585 521 633Q515 632 499 632L478 631Q431 629 389 622Q359 617 344 611L243 226Q242 222 240 211T233 172Q221 113 214 86T190 31Q171 1 148
1Q132 1 120 15T108 48Q108 150 164 372Q213 573 287 819L321 931Q369 1094 414 1235L460 1380Q462 1388 467 1407T477 1439Q485 1459 488 1468Q495 1487 504 1498L522 1521Q541 1544 576 1544Q597 1544 655 1549Q713 1554 734 1554Q821 1554 821 1498V1492L800
1450Q693 1450 606 1440Q608 1377 614 1308Q620 1217 620 1166Q620 1091 617 941Q614 791 614 716Q630 717 684 727Q737 735 762 735H772L814 687Q814 621 701 621H692L613 622Q613 545 616 363Q619 180 619 82Q652 82 732 93Q803 103 846 103Q872 103 893 89T914
53Q914 -12 670 -12H638Q622 -12 596 -26Q569 -42 557 -43L512 2ZM461 694T517 706L522 912Q525 1068 525 1153Q525 1225 523 1283Q411 909 364 688Q461 694 517 706Z" />
<glyph unicode="&#xe7;" glyph-name="ccedilla" horiz-adv-x="572" d="M369 -29T339 -23Q337 -55 337 -72Q486 -83 486 -278Q486 -310 464 -348T406 -413T331 -440Q299 -440 271 -425T243 -385Q243 -364 265 -364Q278 -364 298 -374Q320 -385 331 -385Q366 -385
388 -342T411 -242Q411 -175 380 -151Q371 -151 353 -154Q336 -158 325 -158Q295 -158 269 -117Q285 -80 286 -11Q244 3 227 14Q91 102 91 495V550Q90 577 90 615V664Q90 762 92 817T100 951Q106 1030 119 1081T159 1195Q184 1253 219 1286T313 1342Q367 1364 440
1364Q471 1364 487 1350T503 1312Q503 1291 490 1275T459 1258H363Q323 1258 292 1207T247 1073Q221 921 221 827V817Q221 736 217 620Q212 473 212 422Q212 352 219 295Q224 257 231 229T254 172Q268 142 288 123T338 92Q367 79 406 79Q431 79 450 97Q476 97 494
86T512 52Q512 -29 399 -29Q369 -29 339 -23Z" />
<glyph unicode="&#xe8;" glyph-name="egrave" horiz-adv-x="581" d="M192 -27T171 -9T148 36V90Q148 112 147 131L145 174Q145 207 140 305Q135 402 135 436Q135 549 142 735Q149 921 149 1034Q149 1056 144 1121Q138 1178 138 1207Q138 1352 224 1352Q263 1352
322 1340T425 1307T469 1261Q469 1240 452 1224T409 1197Q315 1228 254 1236Q257 1193 257 1148Q257 1088 253 1001Q248 893 248 854L254 822L287 824Q304 825 327 825Q426 825 426 769Q426 747 408 731T361 714Q331 714 303 718H251Q257 640 257 563Q257 489 253
378Q248 240 248 192Q248 77 252 77L319 80L403 82Q481 82 481 32Q481 3 456 -12T393 -27H220Q192 -27 171 -9ZM319 1430T224 1458T46 1517T-37 1559Q-37 1574 -27 1593T-1 1626T31 1639Q44 1639 128 1596T284 1506T356 1444Q356 1430 341 1430Q319 1430 224 1458Z"
/>
<glyph unicode="&#xe9;" glyph-name="eacute" horiz-adv-x="581" d="M192 -27T171 -9T148 36V90Q148 112 147 131L145 174Q145 207 140 305Q135 402 135 436Q135 549 142 735Q149 921 149 1034Q149 1056 144 1121Q138 1178 138 1207Q138 1352 224 1352Q263 1352
322 1340T425 1307T469 1261Q469 1240 452 1224T409 1197Q315 1228 254 1236Q257 1193 257 1148Q257 1088 253 1001Q248 893 248 854L254 822L287 824Q304 825 327 825Q426 825 426 769Q426 747 408 731T361 714Q331 714 303 718H251Q257 640 257 563Q257 489 253
378Q248 240 248 192Q248 77 252 77L319 80L403 82Q481 82 481 32Q481 3 456 -12T393 -27H220Q192 -27 171 -9ZM239 1422T229 1430T219 1449Q219 1459 230 1470Q276 1514 377 1599Q472 1679 498 1704Q509 1708 515 1708Q539 1708 560 1683T582 1631Q582 1610 567
1599Q485 1539 269 1426Q262 1422 252 1422Q239 1422 229 1430Z" />
<glyph unicode="&#xea;" glyph-name="ecircumflex" horiz-adv-x="581" d="M192 -27T171 -9T148 36V90Q148 112 147 131L145 174Q145 207 140 305Q135 402 135 436Q135 549 142 735Q149 921 149 1034Q149 1056 144 1121Q138 1178 138 1207Q138 1352 224 1352Q263
1352 322 1340T425 1307T469 1261Q469 1240 452 1224T409 1197Q315 1228 254 1236Q257 1193 257 1148Q257 1088 253 1001Q248 893 248 854L254 822L287 824Q304 825 327 825Q426 825 426 769Q426 747 408 731T361 714Q331 714 303 718H251Q257 640 257 563Q257
489 253 378Q248 240 248 192Q248 77 252 77L319 80L403 82Q481 82 481 32Q481 3 456 -12T393 -27H220Q192 -27 171 -9ZM371 1350T366 1364L286 1640L183 1378Q177 1364 154 1364Q133 1364 118 1375T102 1404Q102 1415 106 1423Q142 1509 160 1556L179 1604Q212
1685 228 1712Q252 1751 275 1761Q288 1766 303 1766Q318 1766 332 1746Q355 1713 384 1608L410 1509Q420 1469 436 1411Q439 1401 439 1393Q439 1373 425 1362T392 1350Q371 1350 366 1364Z" />
<glyph unicode="&#xeb;" glyph-name="edieresis" horiz-adv-x="581" d="M192 -27T171 -9T148 36V90Q148 112 147 131L145 174Q145 207 140 305Q135 402 135 436Q135 549 142 735Q149 921 149 1034Q149 1056 144 1121Q138 1178 138 1207Q138 1352 224 1352Q263
1352 322 1340T425 1307T469 1261Q469 1240 452 1224T409 1197Q315 1228 254 1236Q257 1193 257 1148Q257 1088 253 1001Q248 893 248 854L254 822L287 824Q304 825 327 825Q426 825 426 769Q426 747 408 731T361 714Q331 714 303 718H251Q257 640 257 563Q257
489 253 378Q248 240 248 192Q248 77 252 77L319 80L403 82Q481 82 481 32Q481 3 456 -12T393 -27H220Q192 -27 171 -9ZM73 1472T52 1494T31 1545Q31 1576 54 1600T108 1624Q137 1624 159 1601T181 1547Q181 1514 159 1493T100 1472Q73 1472 52 1494ZM403 1462T382
1484T361 1535Q361 1566 384 1590T438 1614Q467 1614 489 1591T511 1537Q511 1504 489 1483T430 1462Q403 1462 382 1484Z" />
<glyph unicode="&#xec;" glyph-name="igrave" horiz-adv-x="462" d="M50 3T50 64Q50 113 112 113Q126 113 136 112L155 110Q171 110 178 120T185 158Q185 208 183 235T180 267Q171 361 166 442Q147 749 147 915L149 1020L151 1124Q151 1185 146 1238Q119 1229
98 1229Q50 1229 50 1278Q50 1302 80 1320T158 1348Q241 1363 303 1363Q327 1363 345 1347T363 1307Q363 1285 350 1269T315 1252Q303 1252 295 1253H279Q258 1253 249 1244T240 1211Q240 1003 265 612Q273 486 281 392Q285 343 287 301T290 203V124Q311 127 332
127Q417 127 417 55V43L366 8L312 6Q263 3 227 3Q50 3 50 64ZM259 1464T164 1492T-14 1551T-97 1593Q-97 1608 -87 1627T-61 1660T-29 1673Q-16 1673 68 1630T224 1540T296 1478Q296 1464 281 1464Q259 1464 164 1492Z" />
<glyph unicode="&#xed;" glyph-name="iacute" horiz-adv-x="462" d="M50 3T50 64Q50 113 112 113Q126 113 136 112L155 110Q171 110 178 120T185 158Q185 208 183 235T180 267Q171 361 166 442Q147 749 147 915L149 1020L151 1124Q151 1185 146 1238Q119 1229
98 1229Q50 1229 50 1278Q50 1302 80 1320T158 1348Q241 1363 303 1363Q327 1363 345 1347T363 1307Q363 1285 350 1269T315 1252Q303 1252 295 1253H279Q258 1253 249 1244T240 1211Q240 1003 265 612Q273 486 281 392Q285 343 287 301T290 203V124Q311 127 332
127Q417 127 417 55V43L366 8L312 6Q263 3 227 3Q50 3 50 64ZM179 1456T169 1464T159 1483Q159 1493 170 1504Q216 1548 317 1633Q412 1713 438 1738Q449 1742 455 1742Q479 1742 500 1717T522 1665Q522 1644 507 1633Q425 1573 209 1460Q202 1456 192 1456Q179
1456 169 1464Z" />
<glyph unicode="&#xee;" glyph-name="icircumflex" horiz-adv-x="462" d="M50 3T50 64Q50 113 112 113Q126 113 136 112L155 110Q171 110 178 120T185 158Q185 208 183 235T180 267Q171 361 166 442Q147 749 147 915L149 1020L151 1124Q151 1185 146 1238Q119
1229 98 1229Q50 1229 50 1278Q50 1302 80 1320T158 1348Q241 1363 303 1363Q327 1363 345 1347T363 1307Q363 1285 350 1269T315 1252Q303 1252 295 1253H279Q258 1253 249 1244T240 1211Q240 1003 265 612Q273 486 281 392Q285 343 287 301T290 203V124Q311 127
332 127Q417 127 417 55V43L366 8L312 6Q263 3 227 3Q50 3 50 64ZM311 1384T306 1398L226 1674L123 1412Q117 1398 94 1398Q73 1398 58 1409T42 1438Q42 1449 46 1457Q82 1543 100 1590L119 1638Q152 1719 168 1746Q192 1785 215 1795Q228 1800 243 1800Q258 1800
272 1780Q295 1747 324 1642L350 1543Q360 1503 376 1445Q379 1435 379 1427Q379 1407 365 1396T332 1384Q311 1384 306 1398Z" />
<glyph unicode="&#xef;" glyph-name="idieresis" horiz-adv-x="462" d="M50 3T50 64Q50 113 112 113Q126 113 136 112L155 110Q171 110 178 120T185 158Q185 208 183 235T180 267Q171 361 166 442Q147 749 147 915L149 1020L151 1124Q151 1185 146 1238Q119 1229
98 1229Q50 1229 50 1278Q50 1302 80 1320T158 1348Q241 1363 303 1363Q327 1363 345 1347T363 1307Q363 1285 350 1269T315 1252Q303 1252 295 1253H279Q258 1253 249 1244T240 1211Q240 1003 265 612Q273 486 281 392Q285 343 287 301T290 203V124Q311 127 332
127Q417 127 417 55V43L366 8L312 6Q263 3 227 3Q50 3 50 64ZM13 1506T-8 1528T-29 1579Q-29 1610 -6 1634T48 1658Q77 1658 99 1635T121 1581Q121 1548 99 1527T40 1506Q13 1506 -8 1528ZM343 1496T322 1518T301 1569Q301 1600 324 1624T378 1648Q407 1648 429
1625T451 1571Q451 1538 429 1517T370 1496Q343 1496 322 1518Z" />
<glyph unicode="&#xf0;" glyph-name="eth" horiz-adv-x="588" d="M200 -15T163 40Q144 67 133 96T117 165Q111 203 110 232T108 305Q105 340 105 400Q105 474 109 536T126 673Q140 760 162 817T224 915Q265 956 319 956L345 954Q319 1143 297 1251Q213 1242 128
1242Q120 1242 116 1252T111 1272Q111 1319 277 1340Q249 1450 221 1473Q188 1479 164 1496T139 1539Q139 1556 155 1569T192 1582Q319 1582 386 1351Q451 1355 496 1355Q504 1355 508 1346T513 1326Q513 1287 408 1267Q460 1028 460 641Q460 569 456 462Q451 329
451 283Q451 231 449 200T438 126Q428 80 411 53T360 5Q325 -15 279 -15Q200 -15 163 40ZM291 72T304 79T325 96Q331 105 335 122T341 152Q342 159 342 167T343 184Q343 206 344 211Q365 489 365 681Q365 849 306 885Q207 860 207 390V364Q206 349 206 325Q206
72 274 72Q291 72 304 79Z" />
<glyph unicode="&#xf1;" glyph-name="ntilde" horiz-adv-x="981" d="M659 -6T647 7T628 53Q621 82 616 93L617 97V102Q617 149 549 355T393 799T257 1145V114Q257 114 265 100Q278 79 278 66Q278 40 260 21T216 2Q149 2 149 127L147 478L145 829Q145 893 151 1020Q157
1148 157 1211Q157 1307 232 1362V1349Q240 1354 247 1354Q295 1354 367 1189Q423 1060 471 907T583 531L613 426Q669 228 684 189Q725 623 725 1228Q725 1242 724 1255L722 1283Q722 1344 773 1344Q801 1344 816 1321T831 1264V1109Q829 928 820 680T794 238T757
11Q700 -6 685 -6Q659 -6 647 7ZM547 1429T511 1442T459 1473Q424 1516 379 1516Q364 1510 359 1500T355 1477Q357 1465 350 1454T326 1437Q294 1437 273 1452T252 1496Q252 1546 292 1580T400 1615Q424 1615 489 1574Q554 1532 573 1532Q592 1532 603 1544T617
1573Q620 1590 631 1602T662 1614Q694 1614 711 1599T729 1561Q729 1526 711 1496T663 1447T597 1429Q547 1429 511 1442Z" />
<glyph unicode="&#xf2;" glyph-name="ograve" horiz-adv-x="738" d="M310 -38T265 -5T193 87Q135 208 118 359Q101 499 101 626Q101 651 102 667Q103 683 103 704Q103 714 100 714V751Q100 767 102 839Q102 871 103 894Q104 949 107 992T119 1104Q125 1160 136
1203T165 1294Q180 1335 203 1356T254 1378Q336 1378 402 1348T512 1265Q553 1214 581 1140T622 980Q634 896 634 798V783L636 667L638 551Q638 -38 365 -38Q310 -38 265 -5ZM393 47T423 76T472 158Q508 261 519 382Q528 490 528 564Q528 651 515 804Q501 969 501
1041V1077Q499 1127 477 1171T417 1242T332 1269Q262 1269 239 1190Q228 1153 224 1116T220 1027Q220 988 221 961Q222 934 222 906Q222 881 217 811Q212 741 212 717Q212 643 220 498Q228 344 260 199Q275 128 300 88T357 47Q393 47 423 76ZM367 1440T272 1468T94
1527T11 1569Q11 1584 21 1603T47 1636T79 1649Q92 1649 176 1606T332 1516T404 1454Q404 1440 389 1440Q367 1440 272 1468Z" />
<glyph unicode="&#xf3;" glyph-name="oacute" horiz-adv-x="738" d="M310 -38T265 -5T193 87Q135 208 118 359Q101 499 101 626Q101 651 102 667Q103 683 103 704Q103 714 100 714V751Q100 767 102 839Q102 871 103 894Q104 949 107 992T119 1104Q125 1160 136
1203T165 1294Q180 1335 203 1356T254 1378Q336 1378 402 1348T512 1265Q553 1214 581 1140T622 980Q634 896 634 798V783L636 667L638 551Q638 -38 365 -38Q310 -38 265 -5ZM393 47T423 76T472 158Q508 261 519 382Q528 490 528 564Q528 651 515 804Q501 969 501
1041V1077Q499 1127 477 1171T417 1242T332 1269Q262 1269 239 1190Q228 1153 224 1116T220 1027Q220 988 221 961Q222 934 222 906Q222 881 217 811Q212 741 212 717Q212 643 220 498Q228 344 260 199Q275 128 300 88T357 47Q393 47 423 76ZM287 1432T277 1440T267
1459Q267 1469 278 1480Q324 1524 425 1609Q520 1689 546 1714Q557 1718 563 1718Q587 1718 608 1693T630 1641Q630 1620 615 1609Q533 1549 317 1436Q310 1432 300 1432Q287 1432 277 1440Z" />
<glyph unicode="&#xf4;" glyph-name="ocircumflex" horiz-adv-x="738" d="M310 -38T265 -5T193 87Q135 208 118 359Q101 499 101 626Q101 651 102 667Q103 683 103 704Q103 714 100 714V751Q100 767 102 839Q102 871 103 894Q104 949 107 992T119 1104Q125 1160
136 1203T165 1294Q180 1335 203 1356T254 1378Q336 1378 402 1348T512 1265Q553 1214 581 1140T622 980Q634 896 634 798V783L636 667L638 551Q638 -38 365 -38Q310 -38 265 -5ZM393 47T423 76T472 158Q508 261 519 382Q528 490 528 564Q528 651 515 804Q501 969
501 1041V1077Q499 1127 477 1171T417 1242T332 1269Q262 1269 239 1190Q228 1153 224 1116T220 1027Q220 988 221 961Q222 934 222 906Q222 881 217 811Q212 741 212 717Q212 643 220 498Q228 344 260 199Q275 128 300 88T357 47Q393 47 423 76ZM419 1360T414
1374L334 1650L231 1388Q225 1374 202 1374Q181 1374 166 1385T150 1414Q150 1425 154 1433Q190 1519 208 1566L227 1614Q260 1695 276 1722Q300 1761 323 1771Q336 1776 351 1776Q366 1776 380 1756Q403 1723 432 1618L458 1519Q468 1479 484 1421Q487 1411 487
1403Q487 1383 473 1372T440 1360Q419 1360 414 1374Z" />
<glyph unicode="&#xf5;" glyph-name="otilde" horiz-adv-x="738" d="M310 -38T265 -5T193 87Q135 208 118 359Q101 499 101 626Q101 651 102 667Q103 683 103 704Q103 714 100 714V751Q100 767 102 839Q102 871 103 894Q104 949 107 992T119 1104Q125 1160 136
1203T165 1294Q180 1335 203 1356T254 1378Q336 1378 402 1348T512 1265Q553 1214 581 1140T622 980Q634 896 634 798V783L636 667L638 551Q638 -38 365 -38Q310 -38 265 -5ZM393 47T423 76T472 158Q508 261 519 382Q528 490 528 564Q528 651 515 804Q501 969 501
1041V1077Q499 1127 477 1171T417 1242T332 1269Q262 1269 239 1190Q228 1153 224 1116T220 1027Q220 988 221 961Q222 934 222 906Q222 881 217 811Q212 741 212 717Q212 643 220 498Q228 344 260 199Q275 128 300 88T357 47Q393 47 423 76ZM375 1439T339 1452T287
1483Q252 1526 207 1526Q192 1520 187 1510T183 1487Q185 1475 178 1464T154 1447Q122 1447 101 1462T80 1506Q80 1556 120 1590T228 1625Q252 1625 317 1584Q382 1542 401 1542Q420 1542 431 1554T445 1583Q448 1600 459 1612T490 1624Q522 1624 539 1609T557
1571Q557 1536 539 1506T491 1457T425 1439Q375 1439 339 1452Z" />
<glyph unicode="&#xf6;" glyph-name="odieresis" horiz-adv-x="738" d="M310 -38T265 -5T193 87Q135 208 118 359Q101 499 101 626Q101 651 102 667Q103 683 103 704Q103 714 100 714V751Q100 767 102 839Q102 871 103 894Q104 949 107 992T119 1104Q125 1160
136 1203T165 1294Q180 1335 203 1356T254 1378Q336 1378 402 1348T512 1265Q553 1214 581 1140T622 980Q634 896 634 798V783L636 667L638 551Q638 -38 365 -38Q310 -38 265 -5ZM393 47T423 76T472 158Q508 261 519 382Q528 490 528 564Q528 651 515 804Q501 969
501 1041V1077Q499 1127 477 1171T417 1242T332 1269Q262 1269 239 1190Q228 1153 224 1116T220 1027Q220 988 221 961Q222 934 222 906Q222 881 217 811Q212 741 212 717Q212 643 220 498Q228 344 260 199Q275 128 300 88T357 47Q393 47 423 76ZM121 1482T100
1504T79 1555Q79 1586 102 1610T156 1634Q185 1634 207 1611T229 1557Q229 1524 207 1503T148 1482Q121 1482 100 1504ZM451 1472T430 1494T409 1545Q409 1576 432 1600T486 1624Q515 1624 537 1601T559 1547Q559 1514 537 1493T478 1472Q451 1472 430 1494Z" />
<glyph unicode="&#xf7;" glyph-name="divide" horiz-adv-x="900" d="M414 789T391 811T368 862Q368 889 390 909T441 930Q471 930 491 907T512 853Q512 827 491 808T443 789Q414 789 391 811ZM158 590T158 655Q158 676 170 688T204 701H505Q531 701 568 705Q610
708 631 708Q730 708 730 647Q730 624 714 612T672 600Q616 600 456 595Q294 590 240 590Q158 590 158 655ZM414 369T393 389T371 439Q371 468 391 489T440 510Q469 510 490 485T512 428Q512 401 494 385T445 369Q414 369 393 389Z" />
<glyph unicode="&#xf8;" glyph-name="oslash" horiz-adv-x="748" d="M190 -227L228 32Q190 78 163 154T123 321Q101 482 101 626Q101 651 102 667Q103 683 103 704Q103 714 100 714V751Q100 767 102 839Q102 871 103 894Q104 949 107 992T119 1104Q125 1160 136
1203T165 1294Q180 1335 203 1356T254 1378Q353 1378 424 1338L460 1560H521L481 1296Q634 1155 634 798V783L636 667L638 551Q638 -38 365 -38Q320 -38 284 -17L240 -274L190 -227ZM410 1247Q375 1269 332 1269Q262 1269 239 1190Q228 1153 224 1116T220 1027Q220
988 221 961Q222 934 222 906Q222 881 217 811Q212 741 212 717Q212 417 256 215L410 1247ZM393 47T423 76T472 158Q508 261 519 382Q528 490 528 564Q528 651 515 804Q501 969 501 1041V1077Q500 1139 466 1192L300 89Q326 47 357 47Q393 47 423 76Z" />
<glyph unicode="&#xf9;" glyph-name="ugrave" horiz-adv-x="739" d="M295 -31T256 -9T193 53Q168 95 152 141T128 247Q114 350 114 473Q109 718 109 1013Q109 1084 104 1212L100 1306Q119 1349 144 1349Q168 1349 187 1312T206 1232V675Q206 602 221 458Q235 309
235 241Q235 91 365 91Q511 91 511 1192V1307V1325Q510 1332 510 1341Q510 1366 522 1377T566 1389Q592 1389 608 1374T627 1338Q629 1314 629 1290Q629 1250 622 1186Q615 1122 615 1084Q615 1050 611 999Q606 936 606 913Q606 903 607 896Q608 888 608 878Q608
-31 344 -31Q295 -31 256 -9ZM388 1470T293 1498T115 1557T32 1599Q32 1614 42 1633T68 1666T100 1679Q113 1679 197 1636T353 1546T425 1484Q425 1470 410 1470Q388 1470 293 1498Z" />
<glyph unicode="&#xfa;" glyph-name="uacute" horiz-adv-x="739" d="M295 -31T256 -9T193 53Q168 95 152 141T128 247Q114 350 114 473Q109 718 109 1013Q109 1084 104 1212L100 1306Q119 1349 144 1349Q168 1349 187 1312T206 1232V675Q206 602 221 458Q235 309
235 241Q235 91 365 91Q511 91 511 1192V1307V1325Q510 1332 510 1341Q510 1366 522 1377T566 1389Q592 1389 608 1374T627 1338Q629 1314 629 1290Q629 1250 622 1186Q615 1122 615 1084Q615 1050 611 999Q606 936 606 913Q606 903 607 896Q608 888 608 878Q608
-31 344 -31Q295 -31 256 -9ZM308 1462T298 1470T288 1489Q288 1499 299 1510Q345 1554 446 1639Q541 1719 567 1744Q578 1748 584 1748Q608 1748 629 1723T651 1671Q651 1650 636 1639Q554 1579 338 1466Q331 1462 321 1462Q308 1462 298 1470Z" />
<glyph unicode="&#xfb;" glyph-name="ucircumflex" horiz-adv-x="739" d="M295 -31T256 -9T193 53Q168 95 152 141T128 247Q114 350 114 473Q109 718 109 1013Q109 1084 104 1212L100 1306Q119 1349 144 1349Q168 1349 187 1312T206 1232V675Q206 602 221 458Q235
309 235 241Q235 91 365 91Q511 91 511 1192V1307V1325Q510 1332 510 1341Q510 1366 522 1377T566 1389Q592 1389 608 1374T627 1338Q629 1314 629 1290Q629 1250 622 1186Q615 1122 615 1084Q615 1050 611 999Q606 936 606 913Q606 903 607 896Q608 888 608 878Q608
-31 344 -31Q295 -31 256 -9ZM440 1390T435 1404L355 1680L252 1418Q246 1404 223 1404Q202 1404 187 1415T171 1444Q171 1455 175 1463Q211 1549 229 1596L248 1644Q281 1725 297 1752Q321 1791 344 1801Q357 1806 372 1806Q387 1806 401 1786Q424 1753 453 1648L479
1549Q489 1509 505 1451Q508 1441 508 1433Q508 1413 494 1402T461 1390Q440 1390 435 1404Z" />
<glyph unicode="&#xfc;" glyph-name="udieresis" horiz-adv-x="739" d="M295 -31T256 -9T193 53Q168 95 152 141T128 247Q114 350 114 473Q109 718 109 1013Q109 1084 104 1212L100 1306Q119 1349 144 1349Q168 1349 187 1312T206 1232V675Q206 602 221 458Q235
309 235 241Q235 91 365 91Q511 91 511 1192V1307V1325Q510 1332 510 1341Q510 1366 522 1377T566 1389Q592 1389 608 1374T627 1338Q629 1314 629 1290Q629 1250 622 1186Q615 1122 615 1084Q615 1050 611 999Q606 936 606 913Q606 903 607 896Q608 888 608 878Q608
-31 344 -31Q295 -31 256 -9ZM142 1512T121 1534T100 1585Q100 1616 123 1640T177 1664Q206 1664 228 1641T250 1587Q250 1554 228 1533T169 1512Q142 1512 121 1534ZM472 1502T451 1524T430 1575Q430 1606 453 1630T507 1654Q536 1654 558 1631T580 1577Q580 1544
558 1523T499 1502Q472 1502 451 1524Z" />
<glyph unicode="&#xfd;" glyph-name="yacute" horiz-adv-x="579" d="M255 -28T236 17Q259 63 259 364Q259 415 248 520Q236 635 235 664V717Q214 768 160 908T73 1141Q35 1252 35 1288V1299L81 1333Q116 1331 155 1243Q178 1190 203 1109T246 962T269 877Q278
903 301 1030Q324 1157 357 1261Q389 1362 429 1362Q448 1362 463 1350T479 1319Q479 1215 421 1023Q361 824 360 726V109Q360 -28 293 -28Q255 -28 236 17ZM258 1422T248 1430T238 1449Q238 1459 249 1470Q295 1514 396 1599Q491 1679 517 1704Q528 1708 534 1708Q558
1708 579 1683T601 1631Q601 1610 586 1599Q504 1539 288 1426Q281 1422 271 1422Q258 1422 248 1430Z" />
<glyph unicode="&#xfe;" glyph-name="thorn" horiz-adv-x="581" d="M170 -11T157 9T144 58Q144 228 133 619Q122 1010 122 1178L120 1487Q120 1548 171 1548Q246 1548 246 1380Q246 1344 243 1293Q239 1246 239 1233Q321 1222 383 1160T475 1012Q501 929 501 845Q501
717 434 621T245 472Q245 417 253 276Q261 134 261 74Q261 -11 193 -11Q170 -11 157 9ZM319 625T357 686T395 828Q395 900 390 936T366 1005Q348 1037 325 1059T242 1129H236L238 850L240 571Q319 625 357 686Z" />
<glyph unicode="&#xff;" glyph-name="ydieresis" horiz-adv-x="579" d="M255 -28T236 17Q259 63 259 364Q259 415 248 520Q236 635 235 664V717Q214 768 160 908T73 1141Q35 1252 35 1288V1299L81 1333Q116 1331 155 1243Q178 1190 203 1109T246 962T269 877Q278
903 301 1030Q324 1157 357 1261Q389 1362 429 1362Q448 1362 463 1350T479 1319Q479 1215 421 1023Q361 824 360 726V109Q360 -28 293 -28Q255 -28 236 17ZM92 1472T71 1494T50 1545Q50 1576 73 1600T127 1624Q156 1624 178 1601T200 1547Q200 1514 178 1493T119
1472Q92 1472 71 1494ZM422 1462T401 1484T380 1535Q380 1566 403 1590T457 1614Q486 1614 508 1591T530 1537Q530 1504 508 1483T449 1462Q422 1462 401 1484Z" />
<glyph unicode="&#x2013;" glyph-name="endash" horiz-adv-x="952" d="M704 636T496 641Q288 646 214 646Q132 646 132 691Q132 712 144 724T178 737H349L425 739Q517 741 544 741Q825 741 825 683Q825 662 812 649T777 636Q704 636 496 641Z" />
<glyph unicode="&#x2014;" glyph-name="emdash" horiz-adv-x="1096" d="M786 673T731 677L661 680L293 677L259 676L215 674Q92 674 92 733Q92 754 104 766T138 779H615L674 781Q709 782 767 782Q1006 782 1006 725Q1006 673 834 673Q786 673 731 677Z" />
<glyph unicode="&#x2018;" glyph-name="quoteleft" horiz-adv-x="610" d="M196 1081T196 1126Q196 1208 231 1318T314 1504Q360 1577 388 1577Q410 1577 410 1536Q410 1494 396 1421T359 1271Q335 1189 296 1135T217 1081Q196 1081 196 1126Z" />
<glyph unicode="&#x2019;" glyph-name="quoteright" horiz-adv-x="592" d="M196 1086T196 1119Q196 1161 219 1265T280 1464Q321 1568 365 1568Q402 1568 402 1523Q402 1436 372 1332T297 1154Q252 1081 214 1081Q196 1086 196 1119Z" />
<glyph unicode="&#x201a;" glyph-name="quotesinglbase" horiz-adv-x="664" d="M244 -329T244 -295Q244 -253 267 -149T328 50Q369 154 413 154Q450 154 450 109Q450 22 420 -82T345 -260Q300 -333 262 -333Q244 -329 244 -295Z" />
<glyph unicode="&#x201c;" glyph-name="quotedblleft" horiz-adv-x="772" d="M428 1091T428 1136Q428 1222 458 1327T534 1505Q579 1578 617 1578Q635 1574 635 1541Q635 1499 612 1395T552 1196Q510 1091 466 1091Q428 1091 428 1136ZM172 1081T172 1126Q172
1208 207 1318T290 1504Q336 1577 364 1577Q386 1577 386 1536Q386 1494 372 1421T335 1271Q311 1189 272 1135T193 1081Q172 1081 172 1126Z" />
<glyph unicode="&#x201d;" glyph-name="quotedblright" horiz-adv-x="790" d="M431 1082T431 1123Q449 1199 476 1355Q484 1403 496 1448T523 1518Q539 1546 564 1562T624 1578Q645 1578 645 1533Q645 1451 610 1342T527 1156Q480 1082 453 1082Q431 1082 431
1123ZM172 1086T172 1119Q172 1161 195 1265T256 1464Q297 1568 341 1568Q378 1568 378 1523Q378 1436 348 1332T273 1154Q228 1081 190 1081Q172 1086 172 1119Z" />
<glyph unicode="&#x201e;" glyph-name="quotedblbase" horiz-adv-x="790" d="M385 -370T385 -329Q385 -287 399 -214T436 -63Q460 18 499 72T578 126Q599 126 599 81Q599 -1 564 -110T481 -296Q434 -370 407 -370Q385 -370 385 -329ZM116 -367T116 -333Q116 -291
139 -187T200 12Q241 116 285 116Q322 116 322 71Q322 -16 292 -120T217 -298Q172 -371 134 -371Q116 -367 116 -333Z" />
<glyph unicode="&#x2022;" glyph-name="bullet" horiz-adv-x="754" d="M310 485T263 513T186 584T157 665V696Q156 709 156 727Q156 822 225 920Q231 934 256 956T310 994T352 1011Q417 1011 467 988T542 927Q588 855 588 779Q588 710 563 640Q546 594 522 562T457
508Q414 485 361 485Q310 485 263 513Z" />
<glyph unicode="&#x2039;" glyph-name="guilsinglleft" horiz-adv-x="754" d="M524 -20L504 -18Q443 75 385 189T251 474Q168 658 148 698Q149 751 254 980Q361 1213 372 1255L380 1289Q392 1342 413 1390Q437 1447 471 1447H474Q475 1446 478 1446L523 1411Q515
1344 475 1241T384 1037Q333 938 299 847T265 702Q265 688 400 414T576 69L602 49Q600 20 586 -1T548 -22L524 -20Z" />
<glyph unicode="&#x203a;" glyph-name="guilsinglright" horiz-adv-x="754" d="M170 -23T156 -2T140 49L165 69Q216 164 345 426T475 702Q475 756 451 829T385 982Q369 1014 360 1030Q315 1119 290 1171T246 1279Q220 1353 218 1411L263 1446L273 1444Q315 1425
333 1382Q349 1343 359 1297Q366 1264 369 1255Q382 1208 487 981Q592 755 593 698L236 -19H232L213 -21L194 -23Q170 -23 156 -2Z" />
</font>
</defs>
</svg>
