<?xml version="1.0" standalone="no"?>
<!DOCTYPE svg PUBLIC "-//W3C//DTD SVG 1.1//EN" "http://www.w3.org/Graphics/SVG/1.1/DTD/svg11.dtd">
<svg xmlns="http://www.w3.org/2000/svg">
<defs >
<font id="Manuale" horiz-adv-x="517" ><font-face
    font-family="Manuale Medium"
    units-per-em="1000"
    panose-1="2 4 6 4 5 4 5 6 2 4"
    ascent="980"
    descent="-236"
    alphabetic="0" />
<glyph unicode=" " glyph-name="space" horiz-adv-x="193" />
<glyph unicode="!" glyph-name="exclam" horiz-adv-x="214" d="M136 187H81L50 612H167L136 187ZM48 76T65 93T107 110Q132 110 149 93T167 50Q167 25 150 8T107 -9Q82 -9 65 8T48 50Q48 76 65 93Z" />
<glyph unicode="&quot;" glyph-name="quotedbl" horiz-adv-x="312" d="M37 698H135L100 467H71L37 698ZM178 698H275L240 467H213L178 698Z" />
<glyph unicode="#" glyph-name="numbersign" horiz-adv-x="557" d="M398 226H512L495 166H382L334 -9H270L319 166H187L139 -9H76L124 166H0L16 226H140L169 330H44L61 390H185L234 564H298L249 390H380L428 564H492L444 390H557L540 330H427L398 226ZM203 226H335L364
330H232L203 226Z" />
<glyph unicode="$" glyph-name="dollar" horiz-adv-x="513" d="M233 2Q135 4 60 32L74 150H116L134 67Q188 53 239 53Q299 53 334 79T369 147Q369 184 348 209T281 252L172 294Q123 312 97 347T71 446Q71 521 117 564T248 613V715H298V614Q367 610 438 587L428
460H388L366 553Q353 557 327 559T282 562Q226 562 192 539T158 470Q158 431 180 409T249 367L355 325Q408 305 433 268T459 169Q459 100 414 57T283 4V-117H233V2Z" />
<glyph unicode="%" glyph-name="percent" horiz-adv-x="889" d="M372 283T328 230T209 177Q134 177 89 231T43 402Q43 521 88 574T209 628Q284 628 328 575T372 402Q372 283 328 230ZM365 0H301L525 612H588L365 0ZM255 252T288 286T321 406Q321 489 288 521T209
554Q162 554 130 521T97 401Q97 318 129 285T209 252Q255 252 288 286ZM845 99T801 46T682 -8Q607 -8 562 46T516 218Q516 336 561 389T682 443Q757 443 801 390T845 218Q845 99 801 46ZM729 66T761 101T794 221Q794 304 762 336T683 369Q636 369 604 336T571 216Q571
133 603 100T683 66Q729 66 761 101Z" />
<glyph unicode="&amp;" glyph-name="ampersand" horiz-adv-x="600" d="M365 24T323 7T223 -11Q134 -11 89 34T43 146Q43 216 78 260T173 337Q145 377 128 418T110 490Q110 564 159 594T269 625Q333 625 372 595T412 509Q412 469 395 439T350 386T280 338Q333 272
420 170Q441 223 445 286L396 301V335H574V303L499 286Q490 205 456 133L533 52L606 35V0H461L402 61Q365 24 323 7ZM197 473T210 444T249 379Q290 403 313 430T337 495Q337 574 266 574Q233 574 215 555T197 501Q197 473 210 444ZM326 48T372 96Q349 122 331 142Q300
177 265 217T204 293Q167 266 153 240T138 172Q138 108 166 78T251 48Q326 48 372 96Z" />
<glyph unicode="&apos;" glyph-name="quotesingle" horiz-adv-x="176" d="M39 698H137L103 467H74L39 698Z" />
<glyph unicode="(" glyph-name="parenleft" horiz-adv-x="296" d="M151 145T157 72T193 -61T286 -150L275 -181Q181 -155 137 -106T78 25T63 264Q63 421 77 504T136 636T275 712L286 680Q223 652 194 591T158 457T151 264Q151 145 157 72Z" />
<glyph unicode=")" glyph-name="parenright" horiz-adv-x="296" d="M145 384T138 457T102 591T8 680L19 712Q113 685 158 637T217 505T232 264Q232 109 218 26T158 -106T19 -181L8 -150Q72 -122 101 -62T138 72T145 264Q145 384 138 457Z" />
<glyph unicode="*" glyph-name="asterisk" horiz-adv-x="342" d="M112 426L41 477L126 564L124 571L6 589L30 673L141 618L147 621L128 743H213L195 621L202 617L311 673L336 589L217 571L214 564L299 477L231 426L174 533H168L112 426Z" />
<glyph unicode="+" glyph-name="plus" horiz-adv-x="509" d="M224 110V275H58V336H224V502H284V336H452V275H284V110H224Z" />
<glyph unicode="," glyph-name="comma" horiz-adv-x="177" d="M68 -118L37 -112L52 99L135 118L155 98L68 -118Z" />
<glyph unicode="-" glyph-name="hyphen" horiz-adv-x="281" d="M273 209H9V266H273V209Z" />
<glyph unicode="." glyph-name="period" horiz-adv-x="196" d="M165 29T145 10T98 -9Q71 -9 51 10T30 56Q30 83 50 103T98 123Q125 123 145 104T165 56Q165 29 145 10Z" />
<glyph unicode="/" glyph-name="slash" horiz-adv-x="352" d="M347 697L75 -138H6L277 697H347Z" />
<glyph unicode="0" glyph-name="zero" horiz-adv-x="504" d="M468 141T409 65T252 -11Q155 -11 96 66T37 312Q37 480 97 556T255 633Q468 633 468 312Q468 141 409 65ZM312 77T353 130T394 317Q394 446 354 496T253 547Q193 547 152 495T111 309Q111 179 152 128T253
77Q312 77 353 130Z" />
<glyph unicode="1" glyph-name="one" horiz-adv-x="504" d="M469 38V0H66V38L229 65V537H71V577L326 616V65L469 38Z" />
<glyph unicode="2" glyph-name="two" horiz-adv-x="504" d="M24 56L234 265Q284 314 308 359T332 456Q332 503 302 532T217 561Q179 561 144 552T69 525L47 575Q143 628 240 628Q329 628 383 588T437 462Q437 399 401 342T295 222L124 67L384 71L424 151H467L453
0H42L24 56Z" />
<glyph unicode="3" glyph-name="three" horiz-adv-x="504" d="M319 628T365 594T412 493Q412 437 379 398T290 335Q360 324 401 281T443 173Q443 81 386 36T218 -10Q119 -10 37 23L51 78Q129 51 189 51Q256 51 297 81T338 173Q338 250 289 274T158 299L155 347Q311
363 311 478Q311 518 286 540T209 563Q182 563 147 554T74 527L51 574Q89 597 142 612T245 628Q319 628 365 594Z" />
<glyph unicode="4" glyph-name="four" horiz-adv-x="504" d="M293 0V138H13L-2 182L311 621L385 613V200H467V138H385V0H293ZM87 200H293V494L87 200Z" />
<glyph unicode="5" glyph-name="five" horiz-adv-x="504" d="M419 541H161L148 386Q274 385 341 355T430 281T452 181Q452 93 394 42T226 -10Q131 -10 43 24L60 78Q138 51 197 51Q264 51 306 85T348 180Q348 260 288 291T100 323L78 346L103 612H419V541Z" />
<glyph unicode="6" glyph-name="six" horiz-adv-x="504" d="M201 379T297 379Q387 379 429 329T472 201Q472 119 422 53T240 -13Q125 -13 81 57T37 244Q37 381 84 467T200 590T341 628Q381 628 426 618L419 568Q376 573 356 573Q301 573 253 544T174 456T139 315Q201
379 297 379ZM137 148T162 97T246 45Q309 45 341 82T373 180Q373 244 351 281T274 318Q233 318 196 294T137 234Q137 148 162 97Z" />
<glyph unicode="7" glyph-name="seven" horiz-adv-x="504" d="M48 465L40 612H451L466 559L234 -10L132 1L388 544H114L93 465H48Z" />
<glyph unicode="8" glyph-name="eight" horiz-adv-x="504" d="M45 -12T45 136Q45 188 77 234T174 313Q120 344 92 382T63 474Q63 541 112 584T257 628Q352 628 396 591T441 495Q441 393 309 337Q355 312 384 291T431 239T449 166Q449 85 394 37T238 -12Q45 -12
45 136ZM307 387T330 414T353 479Q353 524 329 549T257 575Q210 575 182 553T153 485Q153 448 180 418T259 361Q307 387 330 414ZM290 41T324 66T358 142Q358 185 334 212T249 271L217 287Q181 261 157 225T133 146Q133 92 161 67T236 41Q290 41 324 66Z" />
<glyph unicode="9" glyph-name="nine" horiz-adv-x="504" d="M134 48T185 48Q272 48 318 105T365 277Q284 235 213 235Q131 235 84 287T36 422Q36 501 83 564T254 628Q372 628 419 545T466 336Q466 143 394 66T206 -12Q161 -12 125 -6T51 15L65 69Q134 48 185
48ZM367 459T342 514T248 569Q197 569 167 533T136 436Q136 365 165 331T240 297Q270 297 303 310T367 346Q367 459 342 514Z" />
<glyph unicode=":" glyph-name="colon" horiz-adv-x="199" d="M166 371T146 352T99 333Q72 333 52 352T31 398Q31 425 51 444T99 464Q126 464 146 445T166 398Q166 371 146 352ZM166 29T146 10T99 -9Q72 -9 52 10T31 56Q31 83 51 103T99 123Q126 123 146 104T166
56Q166 29 146 10Z" />
<glyph unicode=";" glyph-name="semicolon" horiz-adv-x="190" d="M162 371T142 352T94 333Q67 333 47 352T27 398Q27 425 47 444T94 464Q122 464 142 445T162 398Q162 371 142 352ZM63 -118L32 -112L47 99L131 118L150 98L63 -118Z" />
<glyph unicode="&lt;" glyph-name="less" horiz-adv-x="509" d="M410 112L48 306L410 499L444 443L173 306L444 168L410 112Z" />
<glyph unicode="=" glyph-name="equal" horiz-adv-x="509" d="M56 359V421H449V359H56ZM56 192V252H449V192H56Z" />
<glyph unicode="&gt;" glyph-name="greater" horiz-adv-x="509" d="M93 112L60 168L331 306L60 443L93 499L455 306L93 112Z" />
<glyph unicode="?" glyph-name="question" horiz-adv-x="386" d="M277 628T322 590T367 489Q367 423 327 368T176 257L165 169H118L104 284Q189 328 228 373T268 484Q268 572 174 572Q152 572 118 564L98 477H59L46 591Q75 606 117 617T198 628Q277 628 322 590ZM166
110T183 93T200 50Q200 25 183 8T141 -9Q116 -9 99 8T82 50Q82 75 99 92T141 110Q166 110 183 93Z" />
<glyph unicode="@" glyph-name="at" horiz-adv-x="733" d="M124 100T186 36T360 -29Q412 -29 464 -18T583 16L595 -22Q471 -81 343 -81Q239 -81 170 -37T69 80T37 244Q37 327 71 398T179 513T367 557Q548 557 622 475T696 271Q696 207 671 158T601 82T499 55Q474
55 452 66T424 97Q369 53 318 53Q274 53 251 80T227 146Q227 220 314 242L421 267V318Q421 346 409 358T366 371Q320 371 253 348L240 382Q313 420 383 420Q440 420 469 401T499 337V130Q499 120 506 112T523 104Q612 104 612 285Q612 347 587 397T509 477T378
507Q246 507 185 434T124 239Q124 100 186 36ZM327 203T317 190T306 155Q306 129 317 119T354 108Q383 108 421 129V225L356 210Q327 203 317 190Z" />
<glyph unicode="A" glyph-name="A" horiz-adv-x="594" d="M134 57L205 37V0H-3V36L69 57L256 612L320 625L520 57L592 37V0H356V37L417 55L383 152H166L134 57ZM272 471L181 201H367L272 471Z" />
<glyph unicode="B" glyph-name="B" horiz-adv-x="569" d="M439 308T477 269T515 169Q515 92 455 46T288 0H37V37L126 58V554L37 575V612H287Q395 612 445 573T496 465Q496 407 461 371T360 323Q439 308 477 269ZM325 341T360 369T395 458Q395 510 364 536T283
563Q262 563 225 555V341H266Q325 341 360 369ZM249 48T281 48Q339 48 375 78T411 174Q411 235 372 265T261 296H225V55Q249 48 281 48Z" />
<glyph unicode="C" glyph-name="C" horiz-adv-x="551" d="M463 6T422 -2T326 -10Q180 -10 109 79T38 310Q38 452 108 540T326 628Q382 628 420 621T507 598L497 463H457L432 560Q386 572 343 572Q232 572 188 500T144 310Q144 199 189 123T339 46Q386 46 432 61L457
145H499L507 22Q463 6 422 -2Z" />
<glyph unicode="D" glyph-name="D" horiz-adv-x="644" d="M460 612T533 535T606 319Q606 177 536 89T320 0H37V37L126 58V554L37 575V612H303Q460 612 533 535ZM255 560T225 554V61Q244 55 274 51T330 46Q427 46 463 125T500 319Q500 429 446 494T296 560Q255
560 225 554Z" />
<glyph unicode="E" glyph-name="E" horiz-adv-x="544" d="M381 391H423V207H381L359 276H229V60H434L460 152H504V0H38V37L130 58V554L38 575V612H481V476H436L415 555H229V325H362L381 391Z" />
<glyph unicode="F" glyph-name="F" horiz-adv-x="503" d="M481 612V476H436L415 555H229V315H362L381 381H423V197H381L359 266H229V60L340 39V0H37V37L129 58V554L37 575V612H481Z" />
<glyph unicode="G" glyph-name="G" horiz-adv-x="606" d="M408 572T350 572Q235 572 190 494T144 310Q144 201 188 123T342 45Q394 45 428 61V230L340 251V288H594V250L527 231V32Q492 12 444 1T341 -10Q182 -10 110 78T38 310Q38 452 113 540T350 628Q395 628
446 620T530 598L516 463H473L449 560Q408 572 350 572Z" />
<glyph unicode="H" glyph-name="H" horiz-adv-x="727" d="M38 0V37L126 58V555L38 575V612H312V575L225 555V331H503V555L415 575V612H690V575L602 555V58L691 37V0H415V37L503 58V279H225V58L312 37V0H38Z" />
<glyph unicode="I" glyph-name="I" horiz-adv-x="350" d="M37 0V37L126 58V554L37 575V612H313V575L225 554V58L313 37V0H37Z" />
<glyph unicode="J" glyph-name="J" horiz-adv-x="310" d="M3 -149T-40 -121L-36 -90H36Q80 -90 95 -59T110 33V554L22 575V612H296V575L209 554V63Q209 -55 173 -102T63 -149Q3 -149 -40 -121Z" />
<glyph unicode="K" glyph-name="K" horiz-adv-x="587" d="M586 0H430L224 294V58L307 37V0H37V37L125 58V554L37 575V612H307V575L224 554V331L428 557L366 575V612H570V576L500 555L307 340L505 59L586 37V0Z" />
<glyph unicode="L" glyph-name="L" horiz-adv-x="482" d="M472 0H37V37L125 58V554L37 575V612H313V575L224 554V60H403L429 152H472V0Z" />
<glyph unicode="M" glyph-name="M" horiz-adv-x="800" d="M250 0H21V37L103 58L120 555L39 575V612H231L400 129L561 612H760V575L671 554L691 58L781 37V0H508V37L596 58L580 486L412 0L355 -10L177 487L162 58L250 37V0Z" />
<glyph unicode="N" glyph-name="N" horiz-adv-x="700" d="M449 612H678V575L595 555V0L518 -10L179 478V58L264 37V0H36V37L117 58V555L36 575V612H202L534 140V555L449 575V612Z" />
<glyph unicode="O" glyph-name="O" horiz-adv-x="660" d="M480 627T551 539T622 309Q622 168 551 80T331 -9Q183 -9 111 79T38 309Q38 450 109 538T331 627Q480 627 551 539ZM515 414T473 493T325 572Q223 572 184 494T145 309Q145 203 186 125T334 46Q438 46
476 124T515 309Q515 414 473 493Z" />
<glyph unicode="P" glyph-name="P" horiz-adv-x="530" d="M384 612T446 568T509 440Q509 377 480 334T404 269T299 247Q261 247 226 255V58L331 38V0H38V37L127 58V552L38 574V612H284Q384 612 446 568ZM243 290T276 290Q334 290 368 325T403 432Q403 497 372
530T287 563Q255 563 226 555V297Q243 290 276 290Z" />
<glyph unicode="Q" glyph-name="Q" horiz-adv-x="659" d="M660 -135T629 -144T573 -153Q543 -153 516 -144T438 -105L265 0Q156 23 97 107T38 309Q38 450 109 538T331 627Q480 627 551 539T622 309Q622 182 561 98T379 -2Q472 -46 527 -70T601 -94H678L681 -125Q660
-135 629 -144ZM144 206T187 127T334 48Q435 48 475 126T516 309Q516 414 474 493T325 572Q223 572 184 494T144 309Q144 206 187 127Z" />
<glyph unicode="R" glyph-name="R" horiz-adv-x="570" d="M396 85Q350 189 333 223T303 266T262 276H228V58L315 37V0H39V37L129 58V554L38 575V612H294Q404 612 457 569T511 459Q511 402 476 357T366 293Q391 285 405 274T430 243T463 174Q505 84 518 58L592
37V0H434L396 85ZM342 320T374 355T406 450Q406 504 375 534T286 564Q260 564 228 555V320H283Q342 320 374 355Z" />
<glyph unicode="S" glyph-name="S" horiz-adv-x="466" d="M44 535T97 581T247 627Q333 627 413 600L403 466H361L339 561Q325 565 300 568T255 571Q199 571 166 547T133 475Q133 436 155 412T224 369L326 327Q382 305 408 267T434 168Q434 84 377 37T209 -10Q167
-10 119 -2T33 21L47 146H90L108 60Q159 46 212 46Q271 46 305 71T340 141Q340 180 320 206T253 251L148 293Q101 311 73 350T44 453Q44 535 97 581Z" />
<glyph unicode="T" glyph-name="T" horiz-adv-x="521" d="M9 612H513L507 466H462L443 555H311V58L410 37V0H112V37L212 58V555H78L59 466H17L9 612Z" />
<glyph unicode="U" glyph-name="U" horiz-adv-x="654" d="M561 143T512 67T331 -10Q236 -10 185 26T115 121T97 264V554L8 575V612H285V575L196 554V264Q196 161 225 105T340 48Q423 48 460 99T498 239V555L413 575V612H642V575L561 555V236Q561 143 512 67Z" />
<glyph unicode="V" glyph-name="V" horiz-adv-x="595" d="M271 -10L74 554L2 575V612H238V575L177 555L317 147L322 125L327 147L458 554L388 575V612H597V576L525 554L338 2L271 -10Z" />
<glyph unicode="W" glyph-name="W" horiz-adv-x="764" d="M577 612H788V576L716 554L582 2L520 -9L386 412L268 2L207 -9L54 554L-18 575V612H220V575L159 555L253 164L355 552L439 568L559 156L648 554L577 575V612Z" />
<glyph unicode="X" glyph-name="X" horiz-adv-x="580" d="M216 37V0H3V37L71 57L235 306L76 555L9 575V612H251V574L189 555L307 371L426 555L357 574V612H570V575L502 555L343 315L508 56L579 37V0H335V38L395 56L271 248L147 57L216 37Z" />
<glyph unicode="Y" glyph-name="Y" horiz-adv-x="569" d="M361 575V612H572V576L500 554L340 234V58L441 37V0H142V37L242 58V234L80 554L11 575V612H254V575L193 554L312 311L432 555L361 575Z" />
<glyph unicode="Z" glyph-name="Z" horiz-adv-x="512" d="M473 152L463 0H54L36 33L357 554H132L110 476H66L56 612H469L474 580L157 59H392L429 152H473Z" />
<glyph unicode="[" glyph-name="bracketleft" horiz-adv-x="296" d="M273 -166H70V697H273V659L155 652V-120L273 -128V-166Z" />
<glyph unicode="\" glyph-name="backslash" horiz-adv-x="352" d="M76 697L347 -138H278L6 697H76Z" />
<glyph unicode="]" glyph-name="bracketright" horiz-adv-x="296" d="M23 697H225V-166H23V-128L140 -120V652L23 659V697Z" />
<glyph unicode="^" glyph-name="asciicircum" horiz-adv-x="491" d="M40 251L219 611H274L451 251H376L247 519L116 251H40Z" />
<glyph unicode="_" glyph-name="underscore" horiz-adv-x="441" d="M441 -65H0V-19H441V-65Z" />
<glyph unicode="`" glyph-name="grave" horiz-adv-x="255" d="M229 558L8 663L10 682L93 714L246 582L229 558Z" />
<glyph unicode="a" glyph-name="a" horiz-adv-x="511" d="M185 440T141 426L118 341H79L62 464Q162 501 255 501Q331 501 371 476T411 387V66L497 45V12Q441 -4 390 -4Q362 -4 341 10T314 50Q273 20 233 5T149 -11Q97 -11 68 25T38 112Q38 160 65 200T165 253L312
280V360Q312 401 295 420T232 440Q185 440 141 426ZM139 200T139 127Q139 57 206 57Q249 57 312 91V232L221 216Q139 200 139 127Z" />
<glyph unicode="b" glyph-name="b" horiz-adv-x="554" d="M202 485T232 493T287 501Q398 501 458 439T518 249Q518 137 463 64T273 -10Q231 -10 172 -2T79 18V649L-6 659V690L148 728H179V474Q202 485 232 493ZM193 51T217 46T269 41Q348 41 378 90T409 247Q409
350 380 398T272 447Q245 447 224 442T179 425V58Q193 51 217 46Z" />
<glyph unicode="c" glyph-name="c" horiz-adv-x="442" d="M144 -10T90 60T36 243Q36 359 89 430T256 501Q303 501 340 494T421 469L402 341H362L339 432Q300 445 262 445Q195 445 170 394T144 246Q144 146 171 98T268 50Q343 50 417 73L423 37Q382 14 342 2T256
-10Q144 -10 90 60Z" />
<glyph unicode="d" glyph-name="d" horiz-adv-x="568" d="M338 19T298 5T210 -10Q154 -10 115 24T56 116T36 243Q36 364 95 432T259 501Q285 501 310 496T354 485T373 477V649L287 659V690L440 728H472V66L558 45V12Q503 -4 450 -4Q425 -4 403 10T376 47Q338 19
298 5ZM289 55T320 67T373 93V418Q328 447 271 447Q209 447 177 394T144 246Q144 158 172 107T257 55Q289 55 320 67Z" />
<glyph unicode="e" glyph-name="e" horiz-adv-x="474" d="M146 -11T90 55T34 243Q34 372 91 436T253 501Q352 501 398 455T445 311Q445 285 442 256H142V227Q142 139 179 94T286 49Q350 49 432 72L439 37Q399 12 358 1T264 -11Q146 -11 90 55ZM341 308V330Q341
388 322 416T259 445Q199 445 174 411T144 297L341 308Z" />
<glyph unicode="f" glyph-name="f" horiz-adv-x="366" d="M31 35L116 58V435H36V469L116 495Q116 604 172 666T322 728Q347 728 377 722T421 708L406 584H361L347 653Q326 663 301 663Q252 663 234 630T216 527V491H366V426L216 435V59L332 36V0H31V35Z" />
<glyph unicode="g" glyph-name="g" horiz-adv-x="512" d="M106 -177T68 -151T30 -80Q30 -23 92 25Q75 32 67 47T58 82Q58 105 75 130T122 186Q57 229 57 332Q57 378 78 416T141 478T244 502Q306 502 357 475L497 513V438H390Q410 419 420 390T431 332Q431 259
384 211T236 163Q213 163 192 166T166 171Q144 138 144 122Q144 110 152 100T175 90H328Q404 90 443 68T483 -14Q483 -55 454 -92T365 -153T215 -177Q106 -177 68 -151ZM294 215T313 245T333 332Q333 450 243 450Q196 450 177 419T157 332Q157 275 177 245T246
215Q294 215 313 245ZM311 -122T353 -97T395 -28Q395 0 380 9T328 18H150Q119 -20 119 -58Q119 -92 141 -107T221 -122Q311 -122 353 -97Z" />
<glyph unicode="h" glyph-name="h" horiz-adv-x="619" d="M339 0V36L415 58V371Q415 397 408 410T381 429T325 434Q257 434 207 419V58L283 36V0H21V38L107 58V649L21 659V690L176 728H207V461Q243 476 292 488T384 501Q441 501 477 475T514 393V58L600 36V0H339Z" />
<glyph unicode="i" glyph-name="i" horiz-adv-x="317" d="M135 576T115 594T95 640Q95 667 115 687T163 707Q189 707 209 687T230 640Q230 613 210 595T163 576Q135 576 115 594ZM28 0V38L114 58V422L28 432V463L182 501H213V58L299 38V0H28Z" />
<glyph unicode="j" glyph-name="j" horiz-adv-x="308" d="M230 613T211 595T164 576Q137 576 118 594T98 640Q98 667 118 687T164 707Q191 707 210 687T230 640Q230 613 211 595ZM182 501H214V57Q214 -167 83 -167Q67 -167 43 -161T-7 -142L-2 -107H44Q80 -107
97 -81T114 -20V422L29 432V463L182 501Z" />
<glyph unicode="k" glyph-name="k" horiz-adv-x="561" d="M268 0H21V38L108 58V649L21 659V690L176 728H207V58L268 38V0ZM573 0H339V38L383 55L220 258L365 437L285 456V491H542V456L447 436L319 282L501 57L573 37V0Z" />
<glyph unicode="l" glyph-name="l" horiz-adv-x="305" d="M16 0V38L103 58V649L16 659V690L169 728H202V58L288 38V0H16Z" />
<glyph unicode="m" glyph-name="m" horiz-adv-x="906" d="M27 33L113 58V422L27 432V464L180 501H212V461Q246 476 293 488T381 501Q414 501 442 491T487 459Q597 501 674 501Q734 501 767 475T800 393V58L888 33V0H631V33L701 58V371Q701 396 694 409T667 428T611
434Q550 434 503 419Q506 409 506 391V58L576 33V0H337V33L407 58V371Q407 397 400 410T373 429T314 434Q288 434 260 430T212 419V58L281 33V0H27V33Z" />
<glyph unicode="n" glyph-name="n" horiz-adv-x="626" d="M248 475T298 488T392 501Q449 501 485 476T522 393V58L609 33V0H348V33L423 58V371Q423 397 416 410T389 429T333 434Q267 434 214 419V58L289 33V0H29V33L115 58V422L29 432V464L182 501H214V461Q248
475 298 488Z" />
<glyph unicode="o" glyph-name="o" horiz-adv-x="546" d="M395 501T452 430T510 243Q510 131 452 61T273 -10Q153 -10 95 60T36 243Q36 358 94 429T273 501Q395 501 452 430ZM402 342T373 394T270 447Q200 447 172 394T144 246Q144 150 173 97T276 44Q348 44 375
96T402 246Q402 342 373 394Z" />
<glyph unicode="p" glyph-name="p" horiz-adv-x="576" d="M17 -133L103 -108V423L13 432V464Q75 479 149 490T283 501Q424 501 482 434T540 243Q540 133 483 67T320 0Q278 0 238 13L250 54Q277 51 286 51Q373 51 402 102T431 247Q431 336 403 391T289 446Q247
446 202 432V-106L305 -131V-167H17V-133Z" />
<glyph unicode="q" glyph-name="q" horiz-adv-x="555" d="M557 -133V-167H285V-133L377 -107V47Q334 16 301 3T211 -10Q128 -10 83 61T37 243Q37 357 93 429T257 501Q333 501 405 463L441 494H473V-108L557 -133ZM324 447T268 447Q209 447 178 395T146 258Q146
149 175 103T259 56Q293 56 323 66T374 94V414Q324 447 268 447Z" />
<glyph unicode="r" glyph-name="r" horiz-adv-x="407" d="M256 430T212 412V58L326 36V0H27V35L113 59V421L27 432V463L172 501H210V455Q244 477 285 490T363 503Q382 503 390 502L373 347H328L307 430Q256 430 212 412Z" />
<glyph unicode="s" glyph-name="s" horiz-adv-x="429" d="M181 445T156 428T131 379Q131 350 145 335T195 306L280 277Q341 256 364 226T388 143Q388 72 339 31T196 -10Q160 -10 118 -3T42 16L56 139H95L116 56Q156 44 198 44Q301 44 301 125Q301 149 285 164T226
195L149 221Q96 241 72 272T48 354Q48 424 93 462T228 501Q299 501 369 470L354 357H316L295 430Q282 436 263 440T226 445Q181 445 156 428Z" />
<glyph unicode="t" glyph-name="t" horiz-adv-x="352" d="M297 4T249 -2T174 -9Q93 -9 93 72V434H20V473L102 502L146 602H191V491H340V426L191 434V66L326 46V12Q297 4 249 -2Z" />
<glyph unicode="u" glyph-name="u" horiz-adv-x="604" d="M527 -4T477 -4Q451 -4 429 10T402 48Q350 21 307 6T218 -10Q156 -10 128 23T100 108V422L15 432V463L168 501H200V126Q200 90 215 74T275 58Q299 58 334 67T397 90V422L311 432V463L464 501H497V66L584
45V12Q527 -4 477 -4Z" />
<glyph unicode="v" glyph-name="v" horiz-adv-x="500" d="M436 435L269 -4L212 -14L40 436L-17 455L-18 491H207V454L146 436L257 123L369 435L290 454V491H501V455L436 435Z" />
<glyph unicode="w" glyph-name="w" horiz-adv-x="734" d="M685 435L541 -4L478 -14L371 300L269 -4L206 -14L51 436L-4 455V491H212V454L153 436L253 123L356 445L419 454L526 123L619 435L540 454V491H748V455L685 435Z" />
<glyph unicode="x" glyph-name="x" horiz-adv-x="502" d="M513 0H282V39L331 54L239 185L153 55L210 39V0H2V38L75 58L199 241L62 440L9 454V491H212V451L168 443L261 310L347 440L291 452V491H484V452L428 442L300 255L438 57L513 39V0Z" />
<glyph unicode="y" glyph-name="y" horiz-adv-x="492" d="M213 459L160 436L271 138L370 435L299 454V491H500V455L436 435L293 34Q256 -68 216 -117T114 -167Q70 -167 23 -142L30 -106H79Q131 -106 161 -77T221 22L53 436L-3 459V491H213V459Z" />
<glyph unicode="z" glyph-name="z" horiz-adv-x="466" d="M305 432H119L100 352H60L46 491H414L432 454L158 57H355L387 140H427L417 0H53L35 38L305 432Z" />
<glyph unicode="{" glyph-name="braceleft" horiz-adv-x="296" d="M103 675L269 712L280 680L189 643L212 291L118 259L212 228L189 -125L280 -162L269 -192L103 -157L125 217L53 252V267L125 303L103 675Z" />
<glyph unicode="|" glyph-name="bar" horiz-adv-x="363" d="M225 697V-138H139V697H225Z" />
<glyph unicode="}" glyph-name="braceright" horiz-adv-x="296" d="M27 -192L16 -162L107 -125L84 228L178 259L84 291L107 643L16 680L27 712L191 675L170 303L242 267V252L170 217L191 -157L27 -192Z" />
<glyph unicode="~" glyph-name="asciitilde" horiz-adv-x="511" d="M141 273T124 261T87 220L52 242Q100 337 166 337Q187 337 207 331T256 311Q286 298 304 292T342 285Q369 285 385 296T421 338L459 316Q405 219 338 219Q319 219 299 226T251 246Q218 260 200
266T162 273Q141 273 124 261Z" />
<glyph unicode="&#xa0;" glyph-name="uni00A0" horiz-adv-x="193" />
<glyph unicode="&#xa1;" glyph-name="exclamdown" horiz-adv-x="214" d="M49 467T65 484T107 501Q132 501 149 484T167 443Q167 417 150 400T107 382Q82 382 66 399T49 443Q49 467 65 484ZM167 -120H50L81 305H136L167 -120Z" />
<glyph unicode="&#xa2;" glyph-name="cent" horiz-adv-x="513" d="M155 47T107 117T58 305Q58 430 115 498T268 575V695H321V575Q358 573 396 564T461 542L451 413H402L379 508Q335 522 296 522Q162 522 162 309Q162 200 193 144T303 88Q344 88 384 95T456 115L464
80Q429 59 388 46T306 31V-89H252V34Q155 47 107 117Z" />
<glyph unicode="&#xa3;" glyph-name="sterling" horiz-adv-x="513" d="M229 130T205 101T147 54L419 65L469 113L490 98L460 0H52L39 43Q39 41 66 58T115 101T137 160V263H36L44 312H137Q137 421 151 487T203 586T308 620Q388 620 459 592L449 463H405L383 555Q353
564 324 564Q283 564 263 538T236 468T230 350V312H423L414 263H230L229 160Q229 130 205 101Z" />
<glyph unicode="&#xa4;" glyph-name="currency" horiz-adv-x="544" d="M108 131Q71 184 71 249Q71 311 108 366L55 419L105 468L157 414Q209 452 274 452Q339 452 391 414L444 467L492 419L439 366Q477 310 477 249Q477 181 439 131L492 80L445 30L391 83Q342
47 274 47Q209 47 157 83L102 29L55 79L108 131ZM141 212T159 182T207 134T274 116Q310 116 341 134T390 182T408 248Q408 285 390 316T341 365T274 383Q238 383 208 365T159 316T141 248Q141 212 159 182Z" />
<glyph unicode="&#xa5;" glyph-name="yen" horiz-adv-x="513" d="M44 331V376H144L61 552L-4 575V612H230V575L173 552L278 311L385 552L320 575V612H519V575L449 552L368 376H468V331H346L318 270H468V224H304V59L398 37V0H115V37L208 59V224H44V270H195L165 331H44Z" />
<glyph unicode="&#xa6;" glyph-name="brokenbar" horiz-adv-x="373" d="M225 697V374H139V697H225ZM225 184V-138H139V184H225Z" />
<glyph unicode="&#xa7;" glyph-name="section" horiz-adv-x="350" d="M226 587T192 587Q154 587 132 575T110 527Q110 504 135 477T214 404Q272 354 301 322T331 259Q331 232 323 214Q249 282 166 355Q107 406 83 430T47 476T36 526Q36 580 79 609T187 639Q223
639 254 634T304 622T328 614L313 498H274L255 578Q226 587 192 587ZM91 53Q127 42 161 42Q201 42 226 59T251 110Q251 132 226 158T149 227Q88 278 58 310T27 375Q27 401 35 416Q119 337 207 262Q261 215 284 193T317 153T328 112Q328 58 284 25T171 -9Q102 -9
62 1T21 12L34 136H69L91 53Z" />
<glyph unicode="&#xa8;" glyph-name="dieresis" horiz-adv-x="255" d="M87 614T69 597T25 579Q0 579 -19 596T-38 639Q-38 665 -19 683T25 702Q50 702 68 684T87 639Q87 614 69 597ZM293 614T275 597T231 579Q205 579 187 596T168 639Q168 665 186 683T231 702Q255
702 274 684T293 639Q293 614 275 597Z" />
<glyph unicode="&#xa9;" glyph-name="copyright" horiz-adv-x="494" d="M4 519T37 575T126 664T247 697Q313 697 369 664T457 575T490 453Q490 388 457 332T369 242T247 209Q182 209 126 242T37 331T4 453Q4 519 37 575ZM39 395T67 347T142 270T248 242Q306 242
353 270T429 346T457 453Q457 511 429 559T354 635T248 664Q190 664 143 636T67 559T39 453Q39 395 67 347ZM322 304T301 300T251 295Q174 295 140 336T106 454Q106 527 141 570T251 614Q292 614 344 599L338 530H311L300 577Q276 583 259 583Q210 583 191 550T172
454Q172 397 190 361T257 325Q273 325 300 331L313 373H340L344 314Q322 304 301 300Z" />
<glyph unicode="&#xaa;" glyph-name="ordfeminine" horiz-adv-x="404" d="M147 604T118 595L100 529H67L55 625Q126 653 205 653Q263 653 293 634T324 566V332L386 314V287Q338 274 304 274Q281 274 263 285T241 317Q208 293 180 281T116 269Q81 269 59 297T36
363Q36 451 133 469L239 488V544Q239 575 226 589T182 604Q147 604 118 595ZM120 429T120 376Q120 349 133 338T167 326Q183 326 202 333T239 350V450L178 439Q120 429 120 376Z" />
<glyph unicode="&#xab;" glyph-name="guillemotleft" horiz-adv-x="391" d="M25 245L162 424L202 397L122 245L202 94L162 68L25 245ZM324 68L187 245L324 424L364 397L284 245L364 94L324 68Z" />
<glyph unicode="&#xac;" glyph-name="logicalnot" horiz-adv-x="522" d="M400 131V276H64V338H458V131H400Z" />
<glyph unicode="&#xad;" glyph-name="uni00AD" horiz-adv-x="281" d="M273 209H9V262H273V209Z" />
<glyph unicode="&#xae;" glyph-name="registered" horiz-adv-x="494" d="M182 209T126 242T37 331T4 453Q4 519 37 575T126 664T247 697Q313 697 369 664T457 575T490 453Q490 388 457 332T369 242T247 209Q182 209 126 242ZM306 242T354 270T430 346T458 453Q458
511 430 559T354 635T248 664Q190 664 142 636T66 559T38 453Q38 395 66 347T142 270T248 242Q306 242 354 270ZM123 324L156 332V583L123 590V611H250Q302 611 327 589T353 537Q353 509 338 485T285 451Q297 447 304 437T328 394L361 332L391 324V305H308Q275
379 263 404T242 436T219 443H213V332L247 324V305H123V324ZM236 465Q263 465 277 483T292 530Q292 556 277 570T231 585H213V465H236Z" />
<glyph unicode="&#xaf;" glyph-name="overscore" horiz-adv-x="255" d="M15 668H240V608H15V668Z" />
<glyph unicode="&#xb0;" glyph-name="degree" horiz-adv-x="442" d="M379 515T358 479T300 422T220 401Q178 401 142 422T84 479T63 558Q63 600 84 636T142 694T220 716Q263 716 299 695T357 637T379 558Q379 515 358 479ZM173 676T146 642T118 558Q118 507 145
474T220 440Q268 440 295 473T323 558Q323 608 296 642T220 676Q173 676 146 642Z" />
<glyph unicode="&#xb1;" glyph-name="plusminus" horiz-adv-x="509" d="M224 110V275H58V336H224V502H284V336H452V275H284V110H224ZM58 21V81H452V21H58Z" />
<glyph unicode="&#xb2;" glyph-name="uni00B2" horiz-adv-x="396" d="M133 670T67 640L49 680Q77 697 115 707T191 718Q257 718 296 690T336 601Q336 562 308 521T231 433L123 332H285L312 387L353 382L345 278H44L32 319L179 464Q214 499 232 531T250 600Q250
632 232 651T182 670Q133 670 67 640Z" />
<glyph unicode="&#xb3;" glyph-name="uni00B3" horiz-adv-x="396" d="M253 716T288 692T323 621Q323 583 301 556T242 510Q290 499 317 470T344 398Q344 334 302 302T180 269Q109 269 47 295L57 338Q118 316 159 316Q204 316 230 336T256 398Q256 448 222 464T131
480L128 519Q185 525 211 550T237 612Q237 638 221 652T174 667Q141 667 77 636L59 676Q88 694 125 705T199 716Q253 716 288 692Z" />
<glyph unicode="&#xb4;" glyph-name="acute" horiz-adv-x="255" d="M28 558L8 582L163 714L246 682V663L28 558Z" />
<glyph unicode="&#xb5;" glyph-name="uni00B5" horiz-adv-x="541" d="M463 -4T419 -4Q395 -4 376 8T351 42Q317 20 281 6T212 -9Q171 -9 154 12L175 -214H87V375L12 383V410L150 442H178V113Q178 81 190 67T241 52Q294 52 348 80V374L277 383V410L410 442H439V59L515
40V11Q463 -4 419 -4Z" />
<glyph unicode="&#xb6;" glyph-name="paragraph" horiz-adv-x="525" d="M248 230T227 230Q164 230 119 257T49 330T25 434Q25 491 49 537T118 610T227 637Q247 637 256 635V233Q248 230 227 230ZM484 36V0H188V37L297 59V637H484V600L393 577V58L484 36Z" />
<glyph unicode="&#xb7;" glyph-name="middot" horiz-adv-x="230" d="M183 225T165 207T120 189Q94 189 76 207T58 252Q58 280 76 297T120 315Q148 315 165 298T183 252Q183 225 165 207Z" />
<glyph unicode="&#xb8;" glyph-name="cedilla" horiz-adv-x="255" d="M168 -46T194 -66T221 -117Q221 -144 203 -167T153 -205T86 -219Q55 -219 33 -210L41 -181Q59 -187 74 -187Q107 -187 127 -169T147 -126Q147 -106 130 -94T77 -81L72 -69L99 7H133L117 -46Q168
-46 194 -66Z" />
<glyph unicode="&#xb9;" glyph-name="uni00B9" horiz-adv-x="396" d="M63 647V681L259 710V279H177V647H63Z" />
<glyph unicode="&#xba;" glyph-name="ordmasculine" horiz-adv-x="433" d="M310 653T353 601T396 461Q396 377 353 324T217 270Q125 270 81 323T36 461Q36 547 80 600T217 653Q310 653 353 601ZM306 533T287 571T215 610Q165 610 147 572T128 463Q128 391 147
353T219 315Q270 315 288 353T306 463Q306 533 287 571Z" />
<glyph unicode="&#xbb;" glyph-name="guillemotright" horiz-adv-x="391" d="M204 245L66 68L27 94L107 245L27 397L66 424L204 245ZM229 424L366 245L229 68L190 94L269 245L190 397L229 424Z" />
<glyph unicode="&#xbc;" glyph-name="onequarter" horiz-adv-x="889" d="M323 -22H256L483 622H549L323 -22ZM33 540V574L229 603V172H146V540H33ZM689 0V91H487L474 126L704 436L769 430V141H827V91H769V0H689ZM553 141H689V326L553 141Z" />
<glyph unicode="&#xbd;" glyph-name="onehalf" horiz-adv-x="889" d="M306 -22H239L466 622H532L306 -22ZM29 540V573L224 603V171H142V540H29ZM588 390T524 361L506 402Q533 419 571 429T648 440Q715 440 754 412T794 323Q794 284 765 242T688 154L582 53H742L769
108L811 104L802 0H501L490 40L636 186Q671 221 689 253T707 321Q707 353 690 371T638 390Q588 390 524 361Z" />
<glyph unicode="&#xbe;" glyph-name="threequarters" horiz-adv-x="928" d="M388 -22H322L548 622H614L388 -22ZM247 611T282 587T317 516Q317 478 295 450T236 404Q283 395 310 366T338 294Q338 229 296 196T174 163Q105 163 41 189L51 232Q116 210 153 210Q197
210 223 231T250 294Q250 344 216 360T125 376L121 414Q178 420 204 445T231 506Q231 532 215 547T168 562Q133 562 71 530L53 571Q83 588 119 599T193 611Q247 611 282 587ZM728 0V91H526L513 126L742 436L808 430V141H866V91H808V0H728ZM591 141H728V326L591
141Z" />
<glyph unicode="&#xbf;" glyph-name="questiondown" horiz-adv-x="386" d="M217 382T200 399T182 443Q182 467 199 484T241 501Q266 501 283 484T301 443Q301 417 284 400T241 382Q217 382 200 399ZM107 -136T61 -98T15 2Q15 69 56 124T207 236L219 323H265L279
208Q194 164 154 119T114 8Q114 -80 209 -80Q222 -80 240 -77T265 -72L285 15H323L336 -99Q309 -114 266 -125T186 -136Q107 -136 61 -98Z" />
<glyph unicode="&#xc0;" glyph-name="Agrave" horiz-adv-x="594" d="M365 644L144 749L146 768L229 798L382 668L365 644ZM134 57L205 37V0H-3V36L69 57L256 612L320 625L520 57L592 37V0H356V37L417 55L383 152H166L134 57ZM272 471L181 201H367L272 471Z" />
<glyph unicode="&#xc1;" glyph-name="Aacute" horiz-adv-x="594" d="M213 645L193 669L348 799L431 769V750L213 645ZM134 57L205 37V0H-3V36L69 57L256 612L320 625L520 57L592 37V0H356V37L417 55L383 152H166L134 57ZM272 471L181 201H367L272 471Z" />
<glyph unicode="&#xc2;" glyph-name="Acircumflex" horiz-adv-x="594" d="M404 648L284 728L169 648L149 668L252 800H320L424 668L404 648ZM134 57L205 37V0H-3V36L69 57L256 612L320 625L520 57L592 37V0H356V37L417 55L383 152H166L134 57ZM272 471L181 201H367L272
471Z" />
<glyph unicode="&#xc3;" glyph-name="Atilde" horiz-adv-x="594" d="M427 717T409 692T369 667Q347 667 289 687Q234 706 216 706Q206 706 197 698T181 682T173 671L138 685Q174 782 216 782Q236 782 294 762Q347 743 368 743Q379 743 388 750T404 766T411 777L446
763Q427 717 409 692ZM134 57L205 37V0H-3V36L69 57L256 612L320 625L520 57L592 37V0H356V37L417 55L383 152H166L134 57ZM272 471L181 201H367L272 471Z" />
<glyph unicode="&#xc4;" glyph-name="Adieresis" horiz-adv-x="594" d="M248 696T230 679T186 661Q161 661 142 678T122 721Q122 747 141 765T186 784Q211 784 229 766T248 721Q248 696 230 679ZM454 696T436 679T392 661Q366 661 347 678T328 721Q328 747 347
765T392 784Q416 784 435 766T454 721Q454 696 436 679ZM134 57L205 37V0H-3V36L69 57L256 612L320 625L520 57L592 37V0H356V37L417 55L383 152H166L134 57ZM272 471L181 201H367L272 471Z" />
<glyph unicode="&#xc5;" glyph-name="Aring" horiz-adv-x="594" d="M238 631T211 657T183 726Q183 767 210 794T287 821Q337 821 364 794T392 726Q392 684 365 658T287 631Q238 631 211 657ZM316 670T325 684T335 726Q335 753 326 768T287 783Q259 783 250 768T240
726Q240 698 249 684T287 670Q316 670 325 684ZM-3 0V36L69 57L256 612L320 625L520 57L592 37V0H356V37L417 55L383 152H166L134 57L205 37V0H-3ZM181 201H367L272 471L181 201Z" />
<glyph unicode="&#xc6;" glyph-name="AE" horiz-adv-x="725" d="M-26 0V36L46 58L311 560L245 575V612H652V476H608L586 555H433L450 312H545L564 378H606V193H564L543 262H453L467 60H620L646 152H690V0H281V37L371 58L357 260H219L115 58L183 37V0H-26ZM244
310H354L341 498L244 310Z" />
<glyph unicode="&#xc7;" glyph-name="Ccedilla" horiz-adv-x="533" d="M323 -10L312 -46Q363 -46 390 -66T417 -117Q417 -144 398 -167T348 -205T281 -219Q251 -219 229 -210L237 -181Q254 -187 270 -187Q302 -187 322 -169T342 -126Q342 -106 325 -94T272 -81L268
-69L289 -8Q161 3 100 90T38 310Q38 452 108 540T326 628Q382 628 420 621T507 598L497 463H457L432 560Q386 572 343 572Q232 572 188 500T144 310Q144 199 189 123T339 46Q386 46 432 61L457 145H499L507 22Q462 6 421 -2T324 -10H323Z" />
<glyph unicode="&#xc8;" glyph-name="Egrave" horiz-adv-x="544" d="M383 645L162 750L163 769L246 799L399 669L383 645ZM38 0V37L130 58V554L38 575V612H481V476H436L415 555H229V325H362L381 391H423V207H381L359 276H229V60H434L460 152H504V0H38Z" />
<glyph unicode="&#xc9;" glyph-name="Eacute" horiz-adv-x="544" d="M207 645L187 669L342 799L425 769V750L207 645ZM38 0V37L130 58V554L38 575V612H481V476H436L415 555H229V325H362L381 391H423V207H381L359 276H229V60H434L460 152H504V0H38Z" />
<glyph unicode="&#xca;" glyph-name="Ecircumflex" horiz-adv-x="544" d="M399 648L279 728L164 648L144 668L247 800H315L419 668L399 648ZM381 391H423V207H381L359 276H229V60H434L460 152H504V0H38V37L130 58V554L38 575V612H481V476H436L415 555H229V325H362L381
391Z" />
<glyph unicode="&#xcb;" glyph-name="Edieresis" horiz-adv-x="544" d="M242 696T223 679T179 661Q154 661 135 678T116 721Q116 747 135 765T179 784Q204 784 223 766T242 721Q242 696 223 679ZM448 696T429 679T385 661Q359 661 341 678T322 721Q322 747 340
765T385 784Q410 784 429 766T448 721Q448 696 429 679ZM381 391H423V207H381L359 276H229V60H434L460 152H504V0H38V37L130 58V554L38 575V612H481V476H436L415 555H229V325H362L381 391Z" />
<glyph unicode="&#xcc;" glyph-name="Igrave" horiz-adv-x="350" d="M276 645L55 750L56 769L140 799L293 669L276 645ZM37 0V37L126 58V554L37 575V612H313V575L225 554V58L313 37V0H37Z" />
<glyph unicode="&#xcd;" glyph-name="Iacute" horiz-adv-x="350" d="M77 645L58 669L213 799L296 769V750L77 645ZM37 0V37L126 58V554L37 575V612H313V575L225 554V58L313 37V0H37Z" />
<glyph unicode="&#xce;" glyph-name="Icircumflex" horiz-adv-x="350" d="M57 648L37 668L140 800H208L312 668L292 648L172 728L57 648ZM37 0V37L126 58V554L37 575V612H313V575L225 554V58L313 37V0H37Z" />
<glyph unicode="&#xcf;" glyph-name="Idieresis" horiz-adv-x="350" d="M48 661T29 678T10 721Q10 747 29 765T73 784Q98 784 117 766T136 721Q136 696 117 679T73 661Q48 661 29 678ZM253 661T235 678T216 721Q216 747 234 765T279 784Q304 784 323 766T342 721Q342
696 323 679T279 661Q253 661 235 678ZM37 0V37L126 58V554L37 575V612H313V575L225 554V58L313 37V0H37Z" />
<glyph unicode="&#xd0;" glyph-name="Eth" horiz-adv-x="645" d="M38 37L126 58V276H41V325H126V554L38 575V612H304Q461 612 534 535T607 319Q607 177 537 89T321 0H38V37ZM427 46T464 125T501 319Q501 429 447 494T296 560Q257 560 225 554V325H338V276H225V61Q244
55 274 51T330 46Q427 46 464 125Z" />
<glyph unicode="&#xd1;" glyph-name="Ntilde" horiz-adv-x="702" d="M495 716T478 692T438 667Q425 667 403 673T358 687Q305 706 286 706Q276 706 266 698T250 682T242 671L207 685Q225 731 243 756T285 782Q306 782 364 762Q417 743 437 743Q448 743 457 750T473
766T480 777L515 763Q495 716 478 692ZM448 612H676V575L594 555V0L517 -10L177 478V58L263 37V0H35V37L116 58V555L34 575V612H200L533 140V555L448 575V612Z" />
<glyph unicode="&#xd2;" glyph-name="Ograve" horiz-adv-x="660" d="M420 645L199 750L200 769L284 799L437 669L420 645ZM480 627T551 539T622 309Q622 168 551 80T331 -9Q183 -9 111 79T38 309Q38 450 109 538T331 627Q480 627 551 539ZM515 414T473 493T325
572Q223 572 184 494T145 309Q145 203 186 125T334 46Q438 46 476 124T515 309Q515 414 473 493Z" />
<glyph unicode="&#xd3;" glyph-name="Oacute" horiz-adv-x="660" d="M480 627T551 539T622 309Q622 168 551 80T331 -9Q183 -9 111 79T38 309Q38 450 109 538T331 627Q480 627 551 539ZM515 414T473 493T325 572Q223 572 184 494T145 309Q145 203 186 125T334
46Q438 46 476 124T515 309Q515 414 473 493ZM287 645L267 669L422 799L505 769V750L287 645Z" />
<glyph unicode="&#xd4;" glyph-name="Ocircumflex" horiz-adv-x="660" d="M448 648L328 728L213 648L193 668L296 800H364L468 668L448 648ZM480 627T551 539T622 309Q622 168 551 80T331 -9Q183 -9 111 79T38 309Q38 450 109 538T331 627Q480 627 551 539ZM515
414T473 493T325 572Q223 572 184 494T145 309Q145 203 186 125T334 46Q438 46 476 124T515 309Q515 414 473 493Z" />
<glyph unicode="&#xd5;" glyph-name="Otilde" horiz-adv-x="660" d="M465 717T447 692T407 667Q385 667 327 687Q272 706 254 706Q244 706 235 698T219 682T211 671L176 685Q212 782 254 782Q274 782 332 762Q385 743 406 743Q417 743 426 750T442 766T449 777L484
763Q465 717 447 692ZM480 627T551 539T622 309Q622 168 551 80T331 -9Q183 -9 111 79T38 309Q38 450 109 538T331 627Q480 627 551 539ZM515 414T473 493T325 572Q223 572 184 494T145 309Q145 203 186 125T334 46Q438 46 476 124T515 309Q515 414 473 493Z" />
<glyph unicode="&#xd6;" glyph-name="Odieresis" horiz-adv-x="660" d="M290 697T272 680T228 662Q202 662 183 679T164 722Q164 748 183 766T228 784Q253 784 271 766T290 722Q290 697 272 680ZM496 697T477 680T433 662Q408 662 389 679T370 722Q370 748 389
766T433 784Q458 784 477 766T496 722Q496 697 477 680ZM480 627T551 539T622 309Q622 168 551 80T331 -9Q183 -9 111 79T38 309Q38 450 109 538T331 627Q480 627 551 539ZM515 414T473 493T325 572Q223 572 184 494T145 309Q145 203 186 125T334 46Q438 46 476
124T515 309Q515 414 473 493Z" />
<glyph unicode="&#xd7;" glyph-name="multiply" horiz-adv-x="509" d="M123 132L80 177L211 308L80 440L124 483L255 352L385 482L429 439L297 308L429 178L387 134L255 265L123 132Z" />
<glyph unicode="&#xd8;" glyph-name="Oslash" horiz-adv-x="660" d="M192 19Q114 55 76 131T38 309Q38 450 109 538T331 627Q368 627 398 621L428 708H496L460 604Q543 570 582 492T622 309Q622 168 551 80T331 -9Q290 -9 252 -1L220 -95H153L192 19ZM380 567Q356
574 325 574Q223 574 184 495T145 309Q145 243 161 184T216 89L380 567ZM438 44T476 122T515 309Q515 377 497 438T436 534L271 54Q298 44 334 44Q438 44 476 122Z" />
<glyph unicode="&#xd9;" glyph-name="Ugrave" horiz-adv-x="654" d="M402 645L182 750L183 769L266 799L419 669L402 645ZM561 143T512 67T331 -10Q236 -10 185 26T115 121T97 264V554L8 575V612H285V575L196 554V264Q196 161 225 105T340 48Q423 48 460 99T498
239V555L413 575V612H642V575L561 555V236Q561 143 512 67Z" />
<glyph unicode="&#xda;" glyph-name="Uacute" horiz-adv-x="654" d="M251 645L231 669L386 799L469 769V750L251 645ZM561 143T512 67T331 -10Q236 -10 185 26T115 121T97 264V554L8 575V612H285V575L196 554V264Q196 161 225 105T340 48Q423 48 460 99T498 239V555L413
575V612H642V575L561 555V236Q561 143 512 67Z" />
<glyph unicode="&#xdb;" glyph-name="Ucircumflex" horiz-adv-x="654" d="M463 648L343 728L227 648L208 668L311 800H378L483 668L463 648ZM561 143T512 67T331 -10Q236 -10 185 26T115 121T97 264V554L8 575V612H285V575L196 554V264Q196 161 225 105T340 48Q423
48 460 99T498 239V555L413 575V612H642V575L561 555V236Q561 143 512 67Z" />
<glyph unicode="&#xdc;" glyph-name="Udieresis" horiz-adv-x="654" d="M306 696T288 679T243 661Q218 661 199 678T180 721Q180 747 199 765T243 784Q269 784 287 766T306 721Q306 696 288 679ZM512 696T493 679T449 661Q423 661 405 678T386 721Q386 747 404
765T449 784Q474 784 493 766T512 721Q512 696 493 679ZM561 143T512 67T331 -10Q236 -10 185 26T115 121T97 264V554L8 575V612H285V575L196 554V264Q196 161 225 105T340 48Q423 48 460 99T498 239V555L413 575V612H642V575L561 555V236Q561 143 512 67Z" />
<glyph unicode="&#xdd;" glyph-name="Yacute" horiz-adv-x="569" d="M214 645L195 669L349 799L432 769V750L214 645ZM356 575V612H566V576L495 554L335 234V58L435 37V0H137V37L237 58V234L74 554L6 575V612H248V575L187 554L306 311L427 555L356 575Z" />
<glyph unicode="&#xde;" glyph-name="Thorn" horiz-adv-x="513" d="M37 37L126 58V554L37 575V612H313V575L225 554V485H269Q371 485 431 442T491 317Q491 256 463 214T389 150T287 129Q252 129 225 135V58L313 37V0H37V37ZM321 172T355 206T390 309Q390 372 357
404T268 437Q260 437 225 432V176Q241 172 264 172Q321 172 355 206Z" />
<glyph unicode="&#xdf;" glyph-name="germandbls" horiz-adv-x="611" d="M389 -10T360 -4T298 16L309 135H347L368 52Q396 40 432 40Q468 40 485 57T502 104Q502 139 477 166T403 230Q352 268 326 297T300 363Q300 387 311 404T345 443Q373 471 387 494T401 553Q401
590 380 618T309 646Q253 646 233 614T213 520V58L267 40V0H29V35L114 58V435H34V469L114 495Q114 603 169 653T314 703Q367 703 410 683T476 630T500 561Q500 530 486 509T443 463Q418 442 406 425T393 385Q393 368 410 351T465 304Q505 274 531 250T575 194T594
123Q594 61 550 26T426 -10Q389 -10 360 -4Z" />
<glyph unicode="&#xe0;" glyph-name="agrave" horiz-adv-x="511" d="M322 558L101 663L102 682L185 714L339 582L322 558ZM185 440T141 426L118 341H79L62 464Q162 501 255 501Q331 501 371 476T411 387V66L497 45V12Q441 -4 390 -4Q362 -4 341 10T314 50Q273
20 233 5T149 -11Q97 -11 68 25T38 112Q38 160 65 200T165 253L312 280V360Q312 401 295 420T232 440Q185 440 141 426ZM139 200T139 127Q139 57 206 57Q249 57 312 91V232L221 216Q139 200 139 127Z" />
<glyph unicode="&#xe1;" glyph-name="aacute" horiz-adv-x="511" d="M185 440T141 426L118 341H79L62 464Q162 501 255 501Q331 501 371 476T411 387V66L497 45V12Q441 -4 390 -4Q362 -4 341 10T314 50Q273 20 233 5T149 -11Q97 -11 68 25T38 112Q38 160 65 200T165
253L312 280V360Q312 401 295 420T232 440Q185 440 141 426ZM139 200T139 127Q139 57 206 57Q249 57 312 91V232L221 216Q139 200 139 127ZM176 558L156 582L311 714L394 682V663L176 558Z" />
<glyph unicode="&#xe2;" glyph-name="acircumflex" horiz-adv-x="511" d="M342 554L231 643L121 554L95 576L197 715H265L368 576L342 554ZM185 440T141 426L118 341H79L62 464Q162 501 255 501Q331 501 371 476T411 387V66L497 45V12Q441 -4 390 -4Q362 -4 341
10T314 50Q273 20 233 5T149 -11Q97 -11 68 25T38 112Q38 160 65 200T165 253L312 280V360Q312 401 295 420T232 440Q185 440 141 426ZM139 200T139 127Q139 57 206 57Q249 57 312 91V232L221 216Q139 200 139 127Z" />
<glyph unicode="&#xe3;" glyph-name="atilde" horiz-adv-x="511" d="M374 632T356 607T316 582Q294 582 236 602Q181 621 163 621Q153 621 144 614T128 598T120 587L85 601Q103 647 121 672T163 698Q183 698 241 678Q294 659 315 659Q326 659 335 666T351 682T358
693L393 679Q374 632 356 607ZM185 440T141 426L118 341H79L62 464Q162 501 255 501Q331 501 371 476T411 387V66L497 45V12Q441 -4 390 -4Q362 -4 341 10T314 50Q273 20 233 5T149 -11Q97 -11 68 25T38 112Q38 160 65 200T165 253L312 280V360Q312 401 295 420T232
440Q185 440 141 426ZM139 200T139 127Q139 57 206 57Q249 57 312 91V232L221 216Q139 200 139 127Z" />
<glyph unicode="&#xe4;" glyph-name="adieresis" horiz-adv-x="511" d="M197 614T179 597T135 579Q110 579 91 596T72 639Q72 665 91 683T135 702Q160 702 178 684T197 639Q197 614 179 597ZM404 614T385 597T341 579Q315 579 297 596T278 639Q278 665 296 683T341
702Q366 702 385 684T404 639Q404 614 385 597ZM185 440T141 426L118 341H79L62 464Q162 501 255 501Q331 501 371 476T411 387V66L497 45V12Q441 -4 390 -4Q362 -4 341 10T314 50Q273 20 233 5T149 -11Q97 -11 68 25T38 112Q38 160 65 200T165 253L312 280V360Q312
401 295 420T232 440Q185 440 141 426ZM139 200T139 127Q139 57 206 57Q249 57 312 91V232L221 216Q139 200 139 127Z" />
<glyph unicode="&#xe5;" glyph-name="aring" horiz-adv-x="511" d="M341 591T314 563T235 535Q183 535 156 563T128 636Q128 682 155 710T235 739Q286 739 313 711T341 636Q341 591 314 563ZM207 699T198 683T188 636Q188 607 197 591T235 575Q262 575 271 591T281
636Q281 666 272 682T235 699Q207 699 198 683ZM185 440T141 426L118 341H79L62 464Q162 501 255 501Q331 501 371 476T411 387V66L497 45V12Q441 -4 390 -4Q362 -4 341 10T314 50Q273 20 233 5T149 -11Q97 -11 68 25T38 112Q38 160 65 200T165 253L312 280V360Q312
401 295 420T232 440Q185 440 141 426ZM139 200T139 127Q139 57 206 57Q249 57 312 91V232L221 216Q139 200 139 127Z" />
<glyph unicode="&#xe6;" glyph-name="ae" horiz-adv-x="695" d="M85 -10T58 25T30 112Q30 157 62 190T164 237L289 262V361Q289 402 273 421T212 440Q173 440 131 426L109 342H69L52 464Q101 482 144 491T235 501Q284 501 316 488T366 446Q418 501 495 501Q574
501 624 457T674 316Q674 300 671 283L383 231Q383 135 412 93T511 50Q578 50 652 72L660 37Q621 13 580 1T486 -11Q420 -11 383 8T317 65Q270 27 233 9T142 -10Q85 -10 58 25ZM570 316Q570 372 554 408T492 444Q439 444 414 403T385 277L570 316ZM219 55T241 64T289
93V214L211 199Q165 191 147 174T129 126Q129 93 146 74T195 55Q219 55 241 64Z" />
<glyph unicode="&#xe7;" glyph-name="ccedilla" horiz-adv-x="442" d="M186 -219T164 -210L172 -181Q189 -187 204 -187Q237 -187 257 -169T277 -126Q277 -106 260 -94T207 -81L203 -69L224 -8Q128 2 82 70T35 243Q35 359 88 430T255 501Q301 501 338 494T420
469L401 341H361L338 432Q299 445 260 445Q193 445 168 394T143 246Q143 145 170 98T266 50Q343 50 415 73L422 37Q340 -9 259 -10L247 -46Q298 -46 325 -66T352 -117Q352 -144 333 -167T283 -205T216 -219Q186 -219 164 -210Z" />
<glyph unicode="&#xe8;" glyph-name="egrave" horiz-adv-x="474" d="M331 558L110 663L111 682L194 714L348 582L331 558ZM146 -11T90 55T34 243Q34 372 91 436T253 501Q352 501 398 455T445 311Q445 285 442 256H142V227Q142 139 179 94T286 49Q350 49 432 72L439
37Q399 12 358 1T264 -11Q146 -11 90 55ZM341 308V330Q341 388 322 416T259 445Q199 445 174 411T144 297L341 308Z" />
<glyph unicode="&#xe9;" glyph-name="eacute" horiz-adv-x="474" d="M171 558L152 582L306 714L389 682V663L171 558ZM146 -11T90 55T34 243Q34 372 91 436T253 501Q352 501 398 455T445 311Q445 285 442 256H142V227Q142 139 179 94T286 49Q350 49 432 72L439
37Q399 12 358 1T264 -11Q146 -11 90 55ZM341 308V330Q341 388 322 416T259 445Q199 445 174 411T144 297L341 308Z" />
<glyph unicode="&#xea;" glyph-name="ecircumflex" horiz-adv-x="474" d="M141 554L115 576L217 715H284L387 576L362 554L251 643L141 554ZM146 -11T90 55T34 243Q34 372 91 436T253 501Q352 501 398 455T445 311Q445 285 442 256H142V227Q142 139 179 94T286
49Q350 49 432 72L439 37Q399 12 358 1T264 -11Q146 -11 90 55ZM341 308V330Q341 388 322 416T259 445Q199 445 174 411T144 297L341 308Z" />
<glyph unicode="&#xeb;" glyph-name="edieresis" horiz-adv-x="474" d="M122 579T103 596T83 639Q83 665 102 683T147 702Q172 702 190 684T209 639Q209 614 191 597T147 579Q122 579 103 596ZM327 579T308 596T289 639Q289 665 308 683T353 702Q377 702 396 684T415
639Q415 614 397 597T353 579Q327 579 308 596ZM146 -11T90 55T34 243Q34 372 91 436T253 501Q352 501 398 455T445 311Q445 285 442 256H142V227Q142 139 179 94T286 49Q350 49 432 72L439 37Q399 12 358 1T264 -11Q146 -11 90 55ZM341 308V330Q341 388 322 416T259
445Q199 445 174 411T144 297L341 308Z" />
<glyph unicode="&#xec;" glyph-name="igrave" horiz-adv-x="319" d="M217 558L-3 663L-2 682L81 714L234 582L217 558ZM299 38V0H28V38L114 58V422L28 432V463L182 501H213V58L299 38Z" />
<glyph unicode="&#xed;" glyph-name="iacute" horiz-adv-x="319" d="M56 558L37 582L192 714L275 682V663L56 558ZM299 38V0H28V38L114 58V422L28 432V463L182 501H213V58L299 38Z" />
<glyph unicode="&#xee;" glyph-name="icircumflex" horiz-adv-x="319" d="M251 554L140 643L30 554L4 576L106 715H174L276 576L251 554ZM299 38V0H28V38L114 58V422L28 432V463L182 501H213V58L299 38Z" />
<glyph unicode="&#xef;" glyph-name="idieresis" horiz-adv-x="319" d="M107 614T89 597T44 579Q19 579 0 596T-19 639Q-19 665 0 683T44 702Q70 702 88 684T107 639Q107 614 89 597ZM313 614T294 597T250 579Q224 579 206 596T187 639Q187 665 205 683T250 702Q275
702 294 684T313 639Q313 614 294 597ZM299 38V0H28V38L114 58V422L28 432V463L182 501H213V58L299 38Z" />
<glyph unicode="&#xf0;" glyph-name="eth" horiz-adv-x="544" d="M152 -10T94 60T36 243Q36 358 93 429T272 501Q303 501 331 492T380 466Q358 532 314 594L184 519L160 561L284 633Q243 679 188 727L214 761Q288 723 346 668L474 742L499 700L380 631Q447 551
478 452T510 260Q510 139 454 65T272 -10Q152 -10 94 60ZM349 44T375 98T402 247Q402 340 374 393T269 447Q199 447 172 393T145 247Q145 155 173 100T275 44Q349 44 375 98Z" />
<glyph unicode="&#xf1;" glyph-name="ntilde" horiz-adv-x="626" d="M446 632T429 607T389 582Q365 582 308 603Q287 610 268 615T237 621Q227 621 217 614T201 598T193 587L158 601Q177 648 195 673T236 698Q257 698 315 678Q368 659 388 659Q399 659 408 666T424
682T431 693L466 679Q446 632 429 607ZM246 475T296 488T390 501Q447 501 483 476T520 393V58L607 33V0H346V33L421 58V371Q421 397 414 410T387 429T331 434Q265 434 212 419V58L287 33V0H27V33L113 58V422L27 432V464L179 501H212V461Q246 475 296 488Z" />
<glyph unicode="&#xf2;" glyph-name="ograve" horiz-adv-x="546" d="M361 558L140 663L142 682L225 714L378 582L361 558ZM395 501T452 430T510 243Q510 131 452 61T273 -10Q153 -10 95 60T36 243Q36 358 94 429T273 501Q395 501 452 430ZM402 342T373 394T270
447Q200 447 172 394T144 246Q144 150 173 97T276 44Q348 44 375 96T402 246Q402 342 373 394Z" />
<glyph unicode="&#xf3;" glyph-name="oacute" horiz-adv-x="546" d="M395 501T452 430T510 243Q510 131 452 61T273 -10Q153 -10 95 60T36 243Q36 358 94 429T273 501Q395 501 452 430ZM402 342T373 394T270 447Q200 447 172 394T144 246Q144 150 173 97T276 44Q348
44 375 96T402 246Q402 342 373 394ZM197 558L177 582L332 714L415 682V663L197 558Z" />
<glyph unicode="&#xf4;" glyph-name="ocircumflex" horiz-adv-x="546" d="M384 554L273 643L163 554L137 576L239 715H307L409 576L384 554ZM395 501T452 430T510 243Q510 131 452 61T273 -10Q153 -10 95 60T36 243Q36 358 94 429T273 501Q395 501 452 430ZM402
342T373 394T270 447Q200 447 172 394T144 246Q144 150 173 97T276 44Q348 44 375 96T402 246Q402 342 373 394Z" />
<glyph unicode="&#xf5;" glyph-name="otilde" horiz-adv-x="546" d="M409 632T391 607T351 582Q329 582 271 602Q216 621 198 621Q188 621 179 614T163 598T155 587L120 601Q138 647 156 672T198 698Q218 698 276 678Q329 659 350 659Q361 659 370 666T386 682T393
693L428 679Q409 632 391 607ZM395 501T452 430T510 243Q510 131 452 61T273 -10Q153 -10 95 60T36 243Q36 358 94 429T273 501Q395 501 452 430ZM402 342T373 394T270 447Q200 447 172 394T144 246Q144 150 173 97T276 44Q348 44 375 96T402 246Q402 342 373 394Z"
/>
<glyph unicode="&#xf6;" glyph-name="odieresis" horiz-adv-x="546" d="M232 614T214 597T170 579Q145 579 126 596T107 639Q107 665 126 683T170 702Q195 702 213 684T232 639Q232 614 214 597ZM438 614T420 597T376 579Q350 579 332 596T313 639Q313 665 331
683T376 702Q400 702 419 684T438 639Q438 614 420 597ZM395 501T452 430T510 243Q510 131 452 61T273 -10Q153 -10 95 60T36 243Q36 358 94 429T273 501Q395 501 452 430ZM402 342T373 394T270 447Q200 447 172 394T144 246Q144 150 173 97T276 44Q348 44 375
96T402 246Q402 342 373 394Z" />
<glyph unicode="&#xf7;" glyph-name="divide" horiz-adv-x="509" d="M230 384T212 401T194 444Q194 469 212 487T255 505Q280 505 298 487T316 444Q316 419 298 402T255 384Q230 384 212 401ZM58 276V338H452V276H58ZM230 108T212 125T194 167Q194 192 212 210T255
228Q280 228 298 210T316 167Q316 142 298 125T255 108Q230 108 212 125Z" />
<glyph unicode="&#xf8;" glyph-name="oslash" horiz-adv-x="546" d="M162 11Q99 39 68 100T36 243Q36 358 94 429T273 501Q298 501 319 498L348 586H411L378 482Q446 455 478 393T510 243Q510 131 452 61T273 -10Q246 -10 218 -5L190 -93H129L162 11ZM303 444Q288
447 270 447Q200 447 172 394T144 246Q144 129 185 83L303 444ZM348 44T375 96T402 246Q402 370 355 414L236 50Q254 44 276 44Q348 44 375 96Z" />
<glyph unicode="&#xf9;" glyph-name="ugrave" horiz-adv-x="608" d="M376 558L155 663L156 682L239 714L393 582L376 558ZM526 -4T476 -4Q450 -4 428 10T401 48Q351 22 307 6T218 -10Q155 -10 128 23T100 108V422L14 432V463L168 501H199V126Q199 90 214 74T274
58Q298 58 333 67T396 90V422L310 432V463L464 501H496V66L583 45V12Q526 -4 476 -4Z" />
<glyph unicode="&#xfa;" glyph-name="uacute" horiz-adv-x="608" d="M207 558L188 582L342 714L425 682V663L207 558ZM526 -4T476 -4Q450 -4 428 10T401 48Q351 22 307 6T218 -10Q155 -10 128 23T100 108V422L14 432V463L168 501H199V126Q199 90 214 74T274 58Q298
58 333 67T396 90V422L310 432V463L464 501H496V66L583 45V12Q526 -4 476 -4Z" />
<glyph unicode="&#xfb;" glyph-name="ucircumflex" horiz-adv-x="608" d="M399 554L288 643L178 554L152 576L254 715H322L424 576L399 554ZM526 -4T476 -4Q450 -4 428 10T401 48Q351 22 307 6T218 -10Q155 -10 128 23T100 108V422L14 432V463L168 501H199V126Q199
90 214 74T274 58Q298 58 333 67T396 90V422L310 432V463L464 501H496V66L583 45V12Q526 -4 476 -4Z" />
<glyph unicode="&#xfc;" glyph-name="udieresis" horiz-adv-x="608" d="M251 614T233 597T189 579Q164 579 145 596T126 639Q126 665 145 683T189 702Q214 702 232 684T251 639Q251 614 233 597ZM458 614T439 597T395 579Q369 579 351 596T332 639Q332 665 350
683T395 702Q420 702 439 684T458 639Q458 614 439 597ZM526 -4T476 -4Q450 -4 428 10T401 48Q351 22 307 6T218 -10Q155 -10 128 23T100 108V422L14 432V463L168 501H199V126Q199 90 214 74T274 58Q298 58 333 67T396 90V422L310 432V463L464 501H496V66L583 45V12Q526
-4 476 -4Z" />
<glyph unicode="&#xfd;" glyph-name="yacute" horiz-adv-x="513" d="M186 558L166 582L321 714L404 682V663L186 558ZM228 459L175 436L286 138L385 435L314 454V491H515V455L451 435L308 34Q271 -68 231 -117T129 -167Q85 -167 39 -142L45 -106H94Q146 -106 176
-77T236 22L68 436L13 459V491H228V459Z" />
<glyph unicode="&#xfe;" glyph-name="thorn" horiz-adv-x="567" d="M9 -133L95 -108V649L9 659V690L162 728H193V496Q241 501 283 501Q416 501 473 433T531 243Q531 133 474 67T311 0Q274 0 229 13L241 54Q268 51 277 51Q364 51 393 102T422 247Q422 305 413 347T371
417T276 446Q228 446 193 432V-106L296 -131V-167H9V-133Z" />
<glyph unicode="&#xff;" glyph-name="ydieresis" horiz-adv-x="513" d="M239 614T221 597T177 579Q152 579 133 596T114 639Q114 665 133 683T177 702Q202 702 220 684T239 639Q239 614 221 597ZM445 614T427 597T383 579Q357 579 339 596T320 639Q320 665 338
683T383 702Q407 702 426 684T445 639Q445 614 427 597ZM228 459L175 436L286 138L385 435L314 454V491H515V455L451 435L308 34Q271 -68 231 -117T129 -167Q85 -167 39 -142L45 -106H94Q146 -106 176 -77T236 22L68 436L13 459V491H228V459Z" />
<glyph unicode="&#x2013;" glyph-name="endash" horiz-adv-x="717" d="M717 209H0V266H717V209Z" />
<glyph unicode="&#x2014;" glyph-name="emdash" horiz-adv-x="831" d="M830 209H0V266H830V209Z" />
<glyph unicode="&#x2018;" glyph-name="quoteleft" horiz-adv-x="171" d="M106 663L137 657L122 446L38 427L20 447L106 663Z" />
<glyph unicode="&#x2019;" glyph-name="quoteright" horiz-adv-x="171" d="M65 427L34 434L48 643L133 663L151 643L65 427Z" />
<glyph unicode="&#x201a;" glyph-name="quotesinglbase" horiz-adv-x="194" d="M72 -119L42 -112L57 94L139 114L156 93L72 -119Z" />
<glyph unicode="&#x201c;" glyph-name="quotedblleft" horiz-adv-x="325" d="M104 663L135 657L120 446L36 427L17 447L104 663ZM261 663L292 657L277 446L193 427L175 447L261 663Z" />
<glyph unicode="&#x201d;" glyph-name="quotedblright" horiz-adv-x="325" d="M64 427L33 434L47 643L131 663L150 643L64 427ZM221 427L190 434L204 643L288 663L307 643L221 427Z" />
<glyph unicode="&#x201e;" glyph-name="quotedblbase" horiz-adv-x="348" d="M68 -119L38 -112L53 94L135 114L152 93L68 -119ZM229 -119L199 -112L213 94L295 114L313 93L229 -119Z" />
<glyph unicode="&#x2022;" glyph-name="bullet" horiz-adv-x="466" d="M379 309T359 276T306 223T233 203Q194 203 161 222T108 275T88 348Q88 388 107 421T160 473T233 493Q272 493 306 474T359 421T379 348Q379 309 359 276Z" />
<glyph unicode="&#x2039;" glyph-name="guilsinglleft" horiz-adv-x="243" d="M24 245L161 424L201 397L121 245L201 94L161 68L24 245Z" />
<glyph unicode="&#x203a;" glyph-name="guilsinglright" horiz-adv-x="243" d="M82 424L218 245L82 68L43 94L123 245L43 397L82 424Z" />
</font>
</defs>
</svg>
