<?xml version="1.0" standalone="no"?>
<!DOCTYPE svg PUBLIC "-//W3C//DTD SVG 1.1//EN" "http://www.w3.org/Graphics/SVG/1.1/DTD/svg11.dtd">
<svg xmlns="http://www.w3.org/2000/svg">
<defs >
<font id="Trirong" horiz-adv-x="562" ><font-face
    font-family="Trirong ExtraLight"
    units-per-em="1000"
    panose-1="0 0 3 0 0 0 0 0 0 0"
    ascent="1200"
    descent="-534"
    alphabetic="0" />
<glyph unicode=" " glyph-name="space" horiz-adv-x="260" />
<glyph unicode="!" glyph-name="exclam" horiz-adv-x="249" d="M94 643V656Q94 684 100 697T125 710Q143 710 149 697T156 656V643L137 109H113L94 643ZM105 -10T95 0T84 30Q84 49 94 59T124 70Q143 70 154 60T165 30Q165 11 154 1T124 -10Q105 -10 95 0Z" />
<glyph unicode="&quot;" glyph-name="quotedbl" horiz-adv-x="367" d="M82 657V662Q82 694 88 710T112 727Q129 727 135 711T142 663V657L123 449H101L82 657ZM225 657V662Q225 694 231 710T255 727Q272 727 278 711T285 663V657L265 449H244L225 657Z" />
<glyph unicode="#" glyph-name="numbersign" horiz-adv-x="837" d="M613 481L551 220H730V192H544L496 -10H458L506 192H262L214 -10H176L224 192H39V220H231L293 481H104V509H299L344 697H382L337 509H581L626 697H664L619 509H796V481H613ZM575 481H331L269
220H513L575 481Z" />
<glyph unicode="$" glyph-name="dollar" horiz-adv-x="508" d="M492 96T437 46T291 -10V-93H261V-10Q191 -8 138 17T53 80L60 210H74Q83 187 90 93Q117 58 160 38T262 17Q309 17 350 35T417 87T442 168Q442 217 417 251T354 308T255 361Q193 389 156 411T93 469T67
553Q67 626 119 666T261 710V785H291V710Q408 707 467 640L460 535H446Q441 549 437 579T430 635Q380 683 295 683Q205 683 161 650T117 557Q117 520 139 493T193 447T282 402Q350 370 391 345T462 278T492 176Q492 96 437 46Z" />
<glyph unicode="%" glyph-name="percent" horiz-adv-x="880" d="M142 11L715 713L738 694L163 -7L142 11ZM130 330T84 380T37 519Q37 607 83 657T215 708Q299 708 345 657T392 519Q392 432 346 381T215 330Q130 330 84 380ZM284 357T315 406T347 519Q347 582 316
631T215 681Q146 681 114 632T82 519Q82 456 114 407T215 357Q284 357 315 406ZM580 -10T534 40T488 179Q488 267 534 317T665 367Q750 367 796 317T843 179Q843 91 797 41T665 -10Q580 -10 534 40ZM734 17T766 66T798 179Q798 242 766 291T665 341Q596 341 565
292T533 179Q533 116 564 67T665 17Q734 17 766 66Z" />
<glyph unicode="&amp;" glyph-name="ampersand" horiz-adv-x="722" d="M671 0H609L525 85Q477 40 413 15T274 -10Q173 -10 112 37T51 168Q51 217 75 255T136 320T230 382Q179 440 153 486T126 572Q126 637 169 673T289 710Q362 710 402 675T443 577Q443 533 422
499T368 438T284 382Q312 352 361 304T440 228Q472 198 534 138Q598 216 614 320H645Q626 199 556 117L671 0ZM173 537T195 496T265 403Q335 444 372 483T410 577Q410 627 378 655T293 683Q237 683 205 655T173 576Q173 537 195 496ZM345 17T402 40T504 105L429
179Q305 299 249 361Q177 316 138 274T99 171Q99 97 151 57T280 17Q345 17 402 40Z" />
<glyph unicode="&apos;" glyph-name="quotesingle" horiz-adv-x="225" d="M82 657V662Q82 694 88 710T112 727Q129 727 135 711T142 663V657L123 449H101L82 657Z" />
<glyph unicode="(" glyph-name="parenleft" horiz-adv-x="244" d="M39 29T39 280Q39 406 76 514T187 708H215Q145 614 114 510T82 280Q82 36 214 -142H187Q39 29 39 280Z" />
<glyph unicode=")" glyph-name="parenright" horiz-adv-x="244" d="M99 -49T130 54T162 280Q162 529 29 708H57Q130 622 167 514T205 280Q205 30 57 -142H30Q99 -49 130 54Z" />
<glyph unicode="*" glyph-name="asterisk" horiz-adv-x="524" d="M373 361T360 372T339 394L262 503L186 394Q179 384 165 373T139 362Q130 362 125 368T119 382Q119 393 127 405T147 428L240 515L130 546Q110 551 91 560T71 586Q71 606 95 606Q110 606 130 598L250
536L237 660Q236 666 236 680Q237 698 243 709T263 721Q276 721 282 709T289 680Q289 669 288 661L273 536L387 596Q406 606 429 606Q453 606 453 587Q453 562 394 546L284 515L378 428Q402 404 406 384Q406 375 400 368T385 361Q373 361 360 372Z" />
<glyph unicode="+" glyph-name="plus" horiz-adv-x="576" d="M263 332H66V364H263V569H312V364H509V332H312V129H263V332Z" />
<glyph unicode="," glyph-name="comma" horiz-adv-x="234" d="M87 -109Q119 -68 124 -18L126 -3Q120 -6 108 -6Q93 -6 83 4T72 32Q72 50 84 62T115 75Q141 75 154 57T168 12Q168 -20 151 -61T109 -126L87 -109Z" />
<glyph unicode="-" glyph-name="hyphen" horiz-adv-x="343" d="M41 292H302V259H41V292Z" />
<glyph unicode="." glyph-name="period" horiz-adv-x="234" d="M98 -10T87 1T75 32Q75 51 86 62T117 74Q136 74 147 63T159 32Q159 13 148 2T117 -10Q98 -10 87 1Z" />
<glyph unicode="/" glyph-name="slash" horiz-adv-x="372" d="M303 712H337L71 0H37L303 712Z" />
<glyph unicode="0" glyph-name="zero" horiz-adv-x="559" d="M158 -10T104 83T50 350Q50 523 104 616T279 710Q400 710 454 617T508 350Q508 177 454 84T279 -10Q158 -10 104 83ZM375 17T416 103T457 350Q457 510 416 596T279 683Q183 683 142 597T101 350Q101
190 142 104T279 17Q375 17 416 103Z" />
<glyph unicode="1" glyph-name="one" horiz-adv-x="559" d="M125 11Q192 25 258 25V673L123 615V644L307 719V25Q382 23 440 12V0H125V11Z" />
<glyph unicode="2" glyph-name="two" horiz-adv-x="559" d="M55 42Q71 97 102 141T168 216T259 292Q317 337 350 368T405 441T428 536Q428 575 410 608T357 662T269 683Q223 683 176 664T100 618L86 639Q118 668 168 689T276 710Q362 710 420 667T478 535Q478
477 453 431T390 351T289 268Q232 226 197 195T135 124T99 35H455Q456 51 465 81T481 126H495L485 0H55V42Z" />
<glyph unicode="3" glyph-name="three" horiz-adv-x="559" d="M206 -10T151 10T65 60L79 81Q107 55 159 36T258 17Q339 17 385 66T432 197Q432 242 411 278T351 336T264 358H197V387H264Q315 387 350 411T404 471T422 545Q422 605 382 644T264 683Q217 683 171
665T95 618L81 639Q112 669 162 689T271 710Q358 710 415 670T473 544Q473 483 434 435T335 376V371Q369 365 402 344T458 287T480 199Q480 127 450 80T370 12T266 -10Q206 -10 151 10Z" />
<glyph unicode="4" glyph-name="four" horiz-adv-x="559" d="M263 11Q317 24 367 24V179H38V217L357 700H416V213H525L516 179H416V25Q471 24 519 11V0H263V11ZM367 213V658H363L69 213H367Z" />
<glyph unicode="5" glyph-name="five" horiz-adv-x="559" d="M205 -10T151 10T67 60L81 81Q109 54 159 36T257 17Q315 17 356 44T418 116T440 213Q440 295 399 350T273 406Q223 406 182 388T101 334L82 343L119 700H455L449 665H146L115 380Q183 434 279 434Q387
434 438 371T490 214Q490 155 464 104T387 21T264 -10Q205 -10 151 10Z" />
<glyph unicode="6" glyph-name="six" horiz-adv-x="559" d="M59 -10T59 305Q59 508 125 609T313 710Q416 710 487 639L473 618Q445 646 402 664T313 683Q233 683 172 604T105 313Q124 374 176 406T288 438Q347 438 396 413T473 338T502 220Q502 114 444 52T280
-10Q59 -10 59 305ZM364 17T408 71T453 211Q453 299 409 355T283 411Q234 411 197 387T138 318T117 217Q117 163 136 118T193 45T282 17Q364 17 408 71Z" />
<glyph unicode="7" glyph-name="seven" horiz-adv-x="559" d="M197 208T273 381T436 665H91Q90 659 86 625T74 574H59V700H491V681Q427 608 368 486T268 231T217 0H164Q197 208 273 381Z" />
<glyph unicode="8" glyph-name="eight" horiz-adv-x="559" d="M163 -10T109 46T55 188Q55 262 94 308T200 372Q148 387 112 435T76 542Q76 622 131 666T279 710Q371 710 426 666T482 542Q482 483 446 435T358 372Q425 353 464 308T503 188Q503 103 449 47T279
-10Q163 -10 109 46ZM327 384T362 406T415 465T433 545Q433 612 388 647T279 683Q212 683 169 648T125 545Q125 502 143 466T196 407T279 384Q327 384 362 406ZM323 17T363 36T428 94T453 185Q453 266 407 311T279 357Q197 357 151 312T104 185Q104 131 129 93T193
36T278 17Q323 17 363 36Z" />
<glyph unicode="9" glyph-name="nine" horiz-adv-x="559" d="M142 -10T72 60L86 81Q114 53 156 35T245 17Q326 17 389 96T454 386Q444 346 415 318T348 275T272 260Q211 260 162 285T85 360T57 479Q57 585 115 647T279 710Q502 710 502 394Q502 192 435 91T246
-10Q142 -10 72 60ZM351 288T396 341T442 481Q442 535 423 581T366 655T276 683Q195 683 151 629T106 487Q106 399 150 344T277 288Q351 288 396 341Z" />
<glyph unicode=":" glyph-name="colon" horiz-adv-x="234" d="M98 418T87 429T75 460Q75 479 86 490T117 502Q136 502 147 491T159 460Q159 441 148 430T117 418Q98 418 87 429ZM98 -10T87 1T75 32Q75 51 86 62T117 74Q136 74 147 63T159 32Q159 13 148 2T117
-10Q98 -10 87 1Z" />
<glyph unicode=";" glyph-name="semicolon" horiz-adv-x="234" d="M98 418T87 429T75 460Q75 479 86 490T117 502Q136 502 147 491T159 460Q159 441 148 430T117 418Q98 418 87 429ZM87 -109Q119 -68 124 -18L126 -3Q120 -6 108 -6Q93 -6 83 5T72 32Q72 50 84
62T115 75Q141 75 154 57T168 12Q168 -20 151 -61T109 -126L87 -109Z" />
<glyph unicode="&lt;" glyph-name="less" horiz-adv-x="576" d="M49 318V345L525 589V552L99 332L525 111V74L49 318Z" />
<glyph unicode="=" glyph-name="equal" horiz-adv-x="576" d="M55 437H521V405H55V437ZM55 247H521V215H55V247Z" />
<glyph unicode="&gt;" glyph-name="greater" horiz-adv-x="576" d="M51 111L476 332L51 552V589L527 345V318L51 74V111Z" />
<glyph unicode="?" glyph-name="question" horiz-adv-x="445" d="M168 210T183 251T220 321T276 386Q319 433 339 466T360 547Q360 607 323 645T208 683Q163 683 121 665T47 618L34 639Q67 670 114 690T218 710Q300 710 353 671T407 546Q407 496 384 459T312 372Q276
334 254 307T217 242T202 157H168Q168 210 183 251ZM166 -10T156 1T145 31Q145 50 155 60T185 71Q204 71 215 61T226 31Q226 12 215 1T185 -10Q166 -10 156 1Z" />
<glyph unicode="@" glyph-name="at" horiz-adv-x="798" d="M276 -56T198 -14T79 104T38 283Q38 393 85 481T219 619T419 670Q518 670 595 631T715 520T758 351Q758 291 739 241T686 161T609 131Q575 131 548 153T514 215H510Q494 176 455 154T374 131Q304 131
266 174T227 292Q227 348 250 393T317 465T417 491Q448 491 484 484T550 463Q538 263 536 250T534 237Q534 200 558 179T612 158Q644 158 669 182T710 250T725 352Q725 439 687 505T580 606T425 642Q320 642 241 598T117 472T73 285Q73 138 153 56T387 -27Q488
-27 579 7V-22Q482 -56 385 -56Q276 -56 198 -14ZM431 159T463 196T500 304L510 444Q470 460 418 460Q352 460 311 414T269 288Q269 225 298 192T379 159Q431 159 463 196Z" />
<glyph unicode="A" glyph-name="A" horiz-adv-x="687" d="M648 20T680 8V0H472V8Q497 18 555 24L498 184H177L120 24Q178 18 203 7V0H7V8Q40 20 85 26L328 704H359L602 25Q648 20 680 8ZM488 211L338 632L187 211H488Z" />
<glyph unicode="B" glyph-name="B" horiz-adv-x="580" d="M45 8Q75 19 127 24V675Q76 682 45 691V700H305Q417 700 466 661T515 534Q515 477 483 430T384 373V369Q472 357 508 307T545 189Q545 95 496 48T336 0H45V8ZM299 382Q382 382 424 422T467 534Q467 606
428 639T303 673H177V382H299ZM334 26Q418 26 458 67T498 190Q498 269 452 312T321 355H177V26H334Z" />
<glyph unicode="C" glyph-name="C" horiz-adv-x="589" d="M207 -10T130 85T53 350Q53 518 132 614T356 710Q414 710 461 694T542 647L535 541H521Q513 563 504 640Q484 657 448 670T369 683Q232 683 168 592T103 350Q103 198 165 108T367 17Q402 17 448 30T533
66L541 49Q509 21 461 6T355 -10Q207 -10 130 85Z" />
<glyph unicode="D" glyph-name="D" horiz-adv-x="638" d="M46 8Q82 19 127 24V675Q75 683 46 692V700H326Q468 700 533 612T599 350Q599 178 534 89T325 0H46V8ZM323 26Q446 26 497 110T549 350Q549 506 498 589T325 673H177V26H323Z" />
<glyph unicode="E" glyph-name="E" horiz-adv-x="581" d="M46 8Q82 19 128 24V675Q82 680 46 692V700H517V575H504Q498 588 493 619T485 673H178V368H410Q416 422 427 449H437V260H427Q416 289 410 341H178V26H486Q487 44 497 76T515 124H528L517 0H46V8Z" />
<glyph unicode="F" glyph-name="F" horiz-adv-x="542" d="M514 700V575H501Q495 588 490 619T482 673H178V368H410Q416 422 427 449H437V260H427Q416 289 410 341H178V24Q232 16 260 7V0H46V8Q82 19 128 24V675Q72 683 46 692V700H514Z" />
<glyph unicode="G" glyph-name="G" horiz-adv-x="637" d="M194 -10T117 85T39 350Q39 461 76 542T183 666T350 710Q411 710 474 693T568 647L561 541H547Q538 560 535 597T530 640Q512 656 460 669T363 683Q225 683 157 591T89 350Q89 198 151 108T354 17Q387
17 431 26T508 55V313Q461 321 427 331V338H626V331Q597 318 555 313V50Q519 21 461 6T342 -10Q194 -10 117 85Z" />
<glyph unicode="H" glyph-name="H" horiz-adv-x="767" d="M685 680T640 675V24Q694 16 721 7V0H512V7Q530 14 546 17T590 24V342H177V24Q226 17 256 7V0H46V8Q82 19 127 24V675Q75 683 46 692V700H256V692Q238 685 222 682T177 675V369H590V675Q541 682 512 692V700H721V691Q685
680 640 675Z" />
<glyph unicode="I" glyph-name="I" horiz-adv-x="315" d="M51 7Q80 17 132 24V675Q79 683 51 692V700H264V692Q235 682 182 675V24Q234 17 264 7V0H51V7Z" />
<glyph unicode="J" glyph-name="J" horiz-adv-x="441" d="M77 -10T23 33L32 48Q84 21 144 21Q263 21 263 135V674Q215 680 183 690V700H394V691Q358 680 313 675V131Q313 65 273 28T159 -10Q77 -10 23 33Z" />
<glyph unicode="K" glyph-name="K" horiz-adv-x="690" d="M46 7Q82 18 128 24V675Q76 682 46 692V700H260V692Q231 682 178 675V318L491 667Q489 676 477 679T442 686Q424 688 418 690V700H599V690Q591 688 577 686T552 680T531 666L292 401L597 24Q656 13 678
7V0H559L262 369L178 275V24Q231 17 260 7V0H46V7Z" />
<glyph unicode="L" glyph-name="L" d="M47 8Q83 19 129 24V675Q77 682 47 692V700H260V692Q231 683 179 675V26H474Q475 44 485 76T504 124H517L505 0H47V8Z" />
<glyph unicode="M" glyph-name="M" horiz-adv-x="879" d="M46 7Q80 18 128 23V675Q76 682 46 692V700H196L437 131L686 700H832V692Q804 682 751 674V23Q798 18 832 7V0H620V7Q649 17 701 24V662L444 78H415L162 664V24Q212 17 243 7V0H46V7Z" />
<glyph unicode="N" glyph-name="N" horiz-adv-x="773" d="M46 7Q80 18 128 23V675Q76 682 46 692V700H192L611 69V676Q562 681 530 692V700H726V692Q698 683 645 675V0H609L162 669V24Q212 17 243 7V0H46V7Z" />
<glyph unicode="O" glyph-name="O" horiz-adv-x="681" d="M195 -10T117 85T39 350Q39 519 117 614T340 710Q485 710 563 615T642 350Q642 181 564 86T340 -10Q195 -10 117 85ZM464 17T527 108T591 350Q591 501 528 592T340 683Q216 683 153 592T90 350Q90 198
153 108T340 17Q464 17 527 108Z" />
<glyph unicode="P" glyph-name="P" horiz-adv-x="585" d="M45 7Q82 19 127 24V675Q78 682 47 692V700H332Q444 700 496 645T548 491Q548 395 497 338T340 281H177V24Q230 17 258 7V0H45V7ZM334 307Q418 307 458 357T499 491Q499 575 458 624T334 673H177V307H334Z" />
<glyph unicode="Q" glyph-name="Q" horiz-adv-x="681" d="M393 -61T439 -95T559 -137V-159Q461 -151 406 -113T338 -10Q194 -9 117 86T39 350Q39 519 117 614T340 710Q485 710 563 615T642 350Q642 195 576 101T385 -7Q393 -61 439 -95ZM90 199T153 108T340 17Q463
17 527 108T591 350Q591 500 527 591T340 683Q217 683 154 592T90 350Q90 199 153 108Z" />
<glyph unicode="R" glyph-name="R" horiz-adv-x="633" d="M537 23T563 19T603 8V0H495L323 302H178V24Q230 17 259 7V0H46V7Q82 18 128 24V675Q79 682 48 692V700H343Q550 700 550 501Q550 412 506 361T370 303L532 24Q537 23 563 19ZM178 328H335Q420 328 460
373T501 501Q501 583 461 628T335 673H178V328Z" />
<glyph unicode="S" glyph-name="S" horiz-adv-x="508" d="M180 -10T124 15T34 80L41 210H55Q64 187 71 93Q98 58 141 38T243 17Q290 17 331 35T398 87T423 168Q423 218 397 253T334 311T234 363Q172 392 136 414T74 470T48 553Q48 630 105 670T261 710Q386 710
448 640L441 535H427Q422 549 418 579T411 635Q361 683 276 683Q185 683 142 650T98 557Q98 519 120 492T174 445T264 399Q331 368 372 343T443 276T473 176Q473 121 445 79T367 13T254 -10Q180 -10 124 15Z" />
<glyph unicode="T" glyph-name="T" horiz-adv-x="613" d="M198 7Q228 17 281 24V673H78Q76 649 71 617T59 571H46V700H566V571H553Q547 584 542 616T534 673H331V24Q385 16 414 7V0H198V7Z" />
<glyph unicode="U" glyph-name="U" horiz-adv-x="749" d="M127 -10T127 209V675Q75 683 46 692V700H258V692Q228 682 177 675V201Q177 101 232 59T387 17Q480 17 534 60T588 201V676Q540 681 506 692V700H703V692Q667 681 620 674V209Q620 95 558 43T374 -10Q127
-10 127 209Z" />
<glyph unicode="V" glyph-name="V" horiz-adv-x="684" d="M93 673Q50 680 19 692V700H227V692Q197 680 143 676L348 35L553 676Q496 682 468 692V700H665V692Q627 678 590 673L365 -9H319L93 673Z" />
<glyph unicode="W" glyph-name="W" horiz-adv-x="992" d="M97 673Q56 679 19 692V700H227V691Q202 681 145 675L298 68L478 662H511L713 53L883 676Q854 681 821 691V700H972V692Q938 678 915 675L730 -9H688L490 592L308 -9H274L97 673Z" />
<glyph unicode="X" glyph-name="X" horiz-adv-x="670" d="M624 19T655 8V0H446V7Q478 19 535 25L330 344L105 22Q133 18 168 7V0H18V8Q41 17 70 22L314 369L119 673Q75 681 49 691V700H257V691Q225 680 168 674L340 405L531 676Q494 681 468 692V700H619V692Q594
681 563 676L356 381L584 25Q624 19 655 8Z" />
<glyph unicode="Y" glyph-name="Y" horiz-adv-x="676" d="M235 7Q272 19 316 24V298L94 673Q51 680 19 691V700H228V691Q192 679 143 674L348 325L567 676Q536 681 503 692V700H656V691Q634 682 605 677L366 298V24Q418 17 448 7V0H235V7Z" />
<glyph unicode="Z" glyph-name="Z" horiz-adv-x="551" d="M28 17L457 673H93Q91 650 86 619T74 575H61V700H513V685L84 26H463Q464 43 474 75T492 124H506L494 0H28V17Z" />
<glyph unicode="[" glyph-name="bracketleft" horiz-adv-x="286" d="M72 701H233V674H114V-97H233V-126H72V701Z" />
<glyph unicode="\" glyph-name="backslash" horiz-adv-x="322" d="M11 712H44L311 0H277L11 712Z" />
<glyph unicode="]" glyph-name="bracketright" horiz-adv-x="286" d="M53 -97H172V674H53V701H214V-126H53V-97Z" />
<glyph unicode="^" glyph-name="asciicircum" horiz-adv-x="548" d="M248 720H300L493 313H449L274 686L98 313H55L248 720Z" />
<glyph unicode="_" glyph-name="underscore" horiz-adv-x="450" d="M-3 -86H452V-114H-3V-86Z" />
<glyph unicode="`" glyph-name="grave" horiz-adv-x="486" d="M184 661Q162 673 162 690Q162 698 168 703T182 709Q200 709 214 693L324 600L314 585L184 661Z" />
<glyph unicode="a" glyph-name="a" horiz-adv-x="507" d="M120 -10T78 26T36 132Q36 207 89 240T222 274H386V362Q386 421 349 450T243 480Q205 480 166 469T92 440L86 465Q122 484 168 495T261 507Q341 507 387 470T434 368V33Q484 24 504 18V12L386 0V79Q302
-10 193 -10Q120 -10 78 26ZM257 17T309 47T386 116V248H235Q159 248 122 218T85 133Q85 75 119 46T208 17Q257 17 309 47Z" />
<glyph unicode="b" glyph-name="b" horiz-adv-x="564" d="M250 -10T201 12T127 80Q124 40 112 0H83V675Q33 683 12 691V696L131 709V425Q178 474 225 490T321 507Q418 507 476 444T534 261Q534 123 475 57T312 -10Q250 -10 201 12ZM400 16T443 81T486 256Q486
367 442 423T301 480Q250 480 207 455T131 389V167Q131 127 151 93T211 37T305 16Q400 16 443 81Z" />
<glyph unicode="c" glyph-name="c" horiz-adv-x="462" d="M201 -10T146 22T60 113T30 248Q30 330 61 388T147 476T277 507Q377 507 439 453L433 354H421Q411 377 406 448Q353 480 294 480Q187 480 133 418T79 240Q79 182 101 131T171 48T289 16Q329 16 368 28T436
61L441 41Q415 19 372 5T274 -10Q201 -10 146 22Z" />
<glyph unicode="d" glyph-name="d" horiz-adv-x="555" d="M145 -10T88 54T30 254Q30 335 58 392T137 478T253 507Q301 507 346 492T433 427V675Q383 683 362 691V696L481 709V33Q531 25 552 18V13L447 -2Q440 26 436 85Q410 37 360 14T248 -10Q145 -10 88 54ZM312
16T351 37T412 93T433 171V390Q397 432 359 456T271 480Q175 480 127 420T79 253Q79 144 122 80T259 16Q312 16 351 37Z" />
<glyph unicode="e" glyph-name="e" horiz-adv-x="502" d="M78 254V251Q78 148 133 82T292 16Q332 16 372 28T441 61L446 41Q420 19 376 5T278 -10Q205 -10 149 22T61 113T29 248Q29 371 92 439T264 507Q365 507 416 441T468 273V254H78ZM179 480T133 425T79 281H423Q423
361 385 420T266 480Q179 480 133 425Z" />
<glyph unicode="f" glyph-name="f" horiz-adv-x="366" d="M173 685T173 561V498H327V471H173V24Q229 16 256 7V0H43V7Q80 19 125 24V471H28V498H125V554Q125 631 158 671T258 712Q294 712 338 698L332 672Q296 685 268 685Q173 685 173 561Z" />
<glyph unicode="g" glyph-name="g" horiz-adv-x="497" d="M383 100T423 72T464 -8Q464 -80 401 -114T234 -148Q146 -148 93 -116T39 -25Q39 36 99 70Q74 81 62 99T49 139Q49 182 104 217Q43 261 43 343Q43 419 95 463T237 507Q285 507 323 494T387 455Q405 468
417 490T430 526H474Q469 501 451 477T403 436Q431 397 431 343Q431 267 379 224T237 180Q173 180 127 203Q88 175 88 147Q88 123 106 112T167 100H327Q383 100 423 72ZM166 480T129 442T91 343Q91 283 128 245T237 206Q308 206 345 244T382 343Q382 403 345 441T237
480Q166 480 129 442ZM321 -119T370 -93T419 -19Q419 22 393 39T306 57H167Q144 57 124 62Q98 41 89 22T79 -22Q79 -70 122 -94T239 -119Q321 -119 370 -93Z" />
<glyph unicode="h" glyph-name="h" horiz-adv-x="620" d="M570 17T600 7V0H389V7Q424 18 470 24V357Q470 421 437 450T352 480Q304 480 253 457T165 397V24Q218 16 245 7V0H35V7Q77 20 117 24V675Q67 683 46 691V696L165 709V425Q200 459 253 483T367 507Q436
507 477 469T518 367V24Q570 17 600 7Z" />
<glyph unicode="i" glyph-name="i" horiz-adv-x="269" d="M109 557T98 568T86 597Q86 616 97 627T128 638Q147 638 158 627T169 597Q169 579 158 568T128 557Q109 557 98 568ZM28 7Q57 17 110 24V469Q67 476 39 485V490L158 503V24Q209 17 240 7V0H28V7Z" />
<glyph unicode="j" glyph-name="j" horiz-adv-x="274" d="M134 557T123 568T112 597Q112 616 123 627T153 638Q172 638 183 627T194 597Q194 579 183 568T153 557Q134 557 123 568ZM25 -120T-8 -102L-3 -77Q24 -91 59 -91Q98 -91 117 -71T136 -7V469Q91 477 64
485V490L184 503V-5Q184 -120 71 -120Q25 -120 -8 -102Z" />
<glyph unicode="k" glyph-name="k" horiz-adv-x="582" d="M525 19T563 7V0H454L238 251L165 173V24Q219 16 247 7V0H35V7Q72 19 117 24V675Q67 683 46 691V696L165 709V214L394 460Q398 462 400 469Q396 473 364 481Q357 483 349 485T333 491V498H519V491Q509
487 500 485T483 480Q447 472 438 465L267 283L486 24Q525 19 563 7Z" />
<glyph unicode="l" glyph-name="l" horiz-adv-x="283" d="M35 7Q72 18 117 24V675Q67 683 46 691V696L165 709V24Q219 16 247 7V0H35V7Z" />
<glyph unicode="m" glyph-name="m" horiz-adv-x="883" d="M834 17T863 7V0H654V7Q687 18 734 24V357Q734 421 701 450T615 480Q573 480 535 457T470 400Q473 385 473 367V24Q524 17 552 7V0H345V7Q380 18 425 24V357Q425 421 393 450T308 480Q267 480 231 456T165
398V24Q217 17 247 7V0H35V7Q69 17 117 24V470Q67 478 46 486V491L165 504V427Q190 457 231 482T322 507Q374 507 411 485T463 422Q491 456 534 481T631 507Q699 507 740 469T782 367V24Q834 17 863 7Z" />
<glyph unicode="n" glyph-name="n" horiz-adv-x="620" d="M571 17T600 7V0H390V7Q423 18 470 24V357Q470 421 437 450T352 480Q304 480 253 457T165 397V24Q217 17 247 7V0H35V7Q69 17 117 24V470Q67 478 46 486V491L165 504V425Q200 459 253 483T367 507Q436
507 477 469T518 367V24Q571 17 600 7Z" />
<glyph unicode="o" glyph-name="o" horiz-adv-x="548" d="M160 -10T94 58T28 248Q28 369 94 438T274 507Q387 507 453 438T519 248Q519 127 453 59T274 -10Q160 -10 94 58ZM365 16T417 77T470 248Q470 356 417 418T274 480Q183 480 130 418T77 248Q77 139 130
78T274 16Q365 16 417 77Z" />
<glyph unicode="p" glyph-name="p" horiz-adv-x="566" d="M4 -241Q41 -229 85 -224V470Q35 479 15 485V491L133 504V425Q208 507 321 507Q422 507 479 445T537 261Q537 123 479 57T314 -10Q255 -10 207 11T133 76V-223Q180 -230 214 -241V-248H4V-241ZM402 16T445
81T488 256Q488 368 445 424T304 480Q253 480 209 454T133 388V167Q133 127 154 93T214 37T307 16Q402 16 445 81Z" />
<glyph unicode="q" glyph-name="q" horiz-adv-x="566" d="M350 -241Q384 -230 432 -223V76Q407 31 359 11T251 -10Q147 -10 88 55T28 259Q28 380 86 443T242 507Q357 507 432 425V504L551 491V486Q525 477 480 470V-224Q531 -231 562 -241V-248H350V-241ZM312
16T351 37T411 92T432 167V389Q400 429 356 454T262 480Q166 480 122 424T77 256Q77 147 120 82T258 16Q312 16 351 37Z" />
<glyph unicode="r" glyph-name="r" horiz-adv-x="358" d="M20 7Q48 17 101 24V470Q51 479 31 486V491L143 504L148 424H152Q166 456 198 481T270 507Q309 507 339 488L329 458Q308 475 276 475Q208 475 149 386V24Q201 17 230 7V0H20V7Z" />
<glyph unicode="s" glyph-name="s" horiz-adv-x="432" d="M158 -10T116 4T44 46L50 173H63Q68 160 72 121T78 55Q101 35 130 26T203 16Q272 16 308 46T344 126Q344 155 326 175T280 209T206 240Q151 261 119 278T63 323T40 393Q40 451 88 479T210 507Q309 507
366 459L358 360H344Q338 374 335 400T331 449Q305 466 281 473T219 480Q158 480 123 460T88 397Q88 366 107 344T155 308T232 275Q285 254 317 238T371 194T393 128Q393 64 345 27T219 -10Q158 -10 116 4Z" />
<glyph unicode="t" glyph-name="t" horiz-adv-x="361" d="M332 3Q292 -10 252 -10Q187 -10 153 27T119 137V471H25V498H119V575Q141 591 146 633H167V498H321V471H167V137Q167 73 191 45T262 17Q288 17 326 29L332 3Z" />
<glyph unicode="u" glyph-name="u" horiz-adv-x="597" d="M549 18T570 11V5L451 -7V66Q415 34 362 12T251 -10Q181 -10 140 28T98 129V470Q48 478 27 486V491L146 504V139Q146 76 178 46T264 16Q311 16 363 38T451 95V470Q401 479 381 486V491L499 504V26Q549 18 570 11Z" />
<glyph unicode="v" glyph-name="v" horiz-adv-x="533" d="M77 476Q34 481 9 491V498H202V490Q182 481 156 478T125 474L270 49L420 474Q367 482 343 490V498H524V491Q503 483 456 476L284 0H245L77 476Z" />
<glyph unicode="w" glyph-name="w" horiz-adv-x="760" d="M77 476Q32 481 9 491V498H203V489Q168 479 126 474L233 57L367 447H403L538 51L646 474Q595 482 570 491V498H751V490Q734 483 712 480T683 476L554 0H517L380 397L242 0H206L77 476Z" />
<glyph unicode="x" glyph-name="x" horiz-adv-x="535" d="M506 16T534 7V0H340V7Q371 17 415 23L264 229L107 23Q149 17 183 7V0H1V6Q24 14 69 21L245 254L82 476Q78 477 54 480T13 491V498H206V490Q192 485 171 481T134 474L271 287L413 475Q397 477 375 481T340
491V498H522V491Q504 484 480 481T452 476L289 262L465 21Q506 16 534 7Z" />
<glyph unicode="y" glyph-name="y" horiz-adv-x="533" d="M525 498V491Q504 482 456 476L261 -68Q245 -111 229 -136T187 -176T120 -190Q75 -190 42 -180L49 -151Q81 -159 113 -159Q158 -159 184 -137T231 -57L252 3L76 477Q69 478 46 481T8 491V498H201V490Q178
481 124 474L272 58L419 475Q369 481 345 490V498H525Z" />
<glyph unicode="z" glyph-name="z" horiz-adv-x="443" d="M24 19L369 471H91Q85 402 75 380H60V498H419V472L76 26H367Q369 43 378 73T394 117H409L399 0H24V19Z" />
<glyph unicode="{" glyph-name="braceleft" horiz-adv-x="372" d="M241 -122T205 -104T157 -50T146 57V177Q146 226 119 248T28 272V317Q90 318 118 339T146 406V566Q146 619 160 650T212 695T318 710V684Q275 682 249 674T207 643T191 574V402Q191 354 159 327T70
295Q191 280 191 186V14Q191 -31 206 -54T249 -86T318 -95V-122Q241 -122 205 -104Z" />
<glyph unicode="|" glyph-name="bar" horiz-adv-x="434" d="M195 758H238V-189H195V758Z" />
<glyph unicode="}" glyph-name="braceright" horiz-adv-x="372" d="M54 -95Q96 -94 123 -86T165 -55T181 14V186Q181 280 302 295Q245 299 213 326T181 402V574Q181 619 166 642T124 674T54 684V710Q123 710 160 696T211 651T226 566V411Q226 362 253 340T344
317V272Q280 271 253 249T226 177V22Q226 -31 212 -62T160 -107T54 -122V-95Z" />
<glyph unicode="~" glyph-name="asciitilde" horiz-adv-x="576" d="M52 330Q107 383 171 383Q200 383 227 376T293 353Q330 339 356 332T411 324Q439 324 468 339T524 383V346Q474 293 407 293Q377 293 349 300T281 323Q245 337 219 344T166 352Q140 352 109 336T52
293V330Z" />
<glyph unicode="&#xa0;" glyph-name="uni00A0" horiz-adv-x="260" />
<glyph unicode="&#xa1;" glyph-name="exclamdown" horiz-adv-x="249" d="M105 424T95 434T84 464Q84 483 94 493T124 504Q143 504 154 494T165 464Q165 445 154 435T124 424Q105 424 95 434ZM106 -216T100 -202T93 -157L94 -141L113 385H137L156 -141V-157Q156
-188 150 -202T125 -216Q106 -216 100 -202Z" />
<glyph unicode="&#xa2;" glyph-name="cent" horiz-adv-x="462" d="M417 21T379 7T291 -10V-92H261V-10Q191 -7 139 26T59 116T30 248Q30 366 92 434T261 507V584H291V507Q380 503 439 453L433 354H421Q411 377 406 448Q353 480 294 480Q187 480 133 418T79 240Q79
182 101 131T171 48T289 16Q329 16 368 28T436 61L441 41Q417 21 379 7Z" />
<glyph unicode="&#xa3;" glyph-name="sterling" horiz-adv-x="559" d="M37 26H111Q144 60 144 130V345H42V372H144V534Q144 617 198 663T345 710Q451 710 521 640L508 620Q480 648 439 666T353 684Q275 684 234 646T192 523V372H416V345H192V133Q192 102 183 76T150
26H461Q462 44 472 76T491 124H504L492 0H37V26Z" />
<glyph unicode="&#xa4;" glyph-name="currency" horiz-adv-x="577" d="M76 111L144 175Q99 228 99 297Q99 366 143 418L75 482L100 507L167 441Q221 485 288 485Q355 485 409 441L477 507L501 482L433 417Q476 364 476 297Q476 228 432 176L501 111L476 86L408
152Q356 108 288 108Q221 108 167 151L100 86L76 111ZM332 141T368 161T425 217T446 296Q446 340 425 376T367 433T289 454Q246 454 210 434T153 377T132 296Q132 253 152 218T209 162T289 141Q332 141 368 161Z" />
<glyph unicode="&#xa5;" glyph-name="yen" horiz-adv-x="679" d="M656 700V691Q634 682 605 677L432 402H578V377H416L366 298V186H578V161H366V24Q418 17 448 7V0H235V7Q272 19 316 24V161H104V186H316V298L269 377H104V402H254L94 673Q51 680 19 691V700H228V691Q192
679 143 674L303 402H396L567 676Q536 681 503 692V700H656ZM380 377H317L348 325L380 377Z" />
<glyph unicode="&#xa6;" glyph-name="brokenbar" horiz-adv-x="434" d="M195 758H238V344H195V758ZM195 231H238V-189H195V231Z" />
<glyph unicode="&#xa7;" glyph-name="section" horiz-adv-x="510" d="M435 68T454 34T474 -47Q474 -130 413 -179T255 -228Q181 -228 125 -203T34 -138L42 -8H55Q61 -22 65 -60T71 -125Q99 -160 142 -180T244 -201Q291 -201 332 -185T398 -135T424 -55Q424 -6
399 28T336 85T236 135Q173 164 136 186T74 242T48 325Q48 377 76 412T154 465Q104 493 76 527T48 610Q48 686 105 724T262 762Q385 762 449 692L442 587H428Q417 610 412 687Q362 735 276 735Q98 735 98 614Q98 577 120 551T174 506T263 462Q331 431 373 406T444
339T474 239Q474 193 455 157T400 96Q435 68 454 34ZM96 291T118 264T174 217T266 170Q337 137 370 117Q396 136 411 165T426 230Q426 280 400 316T334 375T231 427L193 445Q144 432 120 402T96 329Q96 291 118 264Z" />
<glyph unicode="&#xa8;" glyph-name="dieresis" horiz-adv-x="486" d="M124 584T115 593T106 619Q106 635 115 644T139 654Q154 654 163 645T173 619Q173 603 164 594T139 584Q124 584 115 593ZM331 584T322 593T312 619Q312 635 321 644T346 654Q361 654 370
645T380 619Q380 603 371 594T346 584Q331 584 322 593Z" />
<glyph unicode="&#xa9;" glyph-name="copyright" horiz-adv-x="830" d="M310 -10T227 37T96 168T48 357Q48 462 95 545T226 676T415 724Q520 724 603 677T734 546T782 357Q782 252 735 169T604 38T415 -10Q310 -10 227 37ZM511 21T587 64T706 184T749 357Q749
452 706 528T587 648T415 692Q319 692 243 649T123 529T80 357Q80 261 123 185T242 65T415 21Q511 21 587 64ZM333 130T280 191T226 357Q226 464 277 523T427 583Q460 583 490 573T541 546L536 469H526Q520 481 517 529Q505 540 482 549T431 558Q343 558 304 504T264
357Q264 270 303 214T431 157Q452 157 482 165T534 187L538 167Q518 150 489 140T425 130Q333 130 280 191Z" />
<glyph unicode="&#xaa;" glyph-name="ordfeminine" horiz-adv-x="345" d="M77 390T51 416T24 480Q24 521 51 547T130 574H245V613Q245 652 221 669T152 686Q102 686 54 665L50 688Q97 710 158 710Q281 710 281 611V424Q296 422 332 413V407L245 395V450Q196 390
126 390Q77 390 51 416ZM197 414T245 480V552H138Q97 552 79 533T61 482Q61 453 79 434T137 414Q197 414 245 480Z" />
<glyph unicode="&#xab;" glyph-name="guillemotleft" horiz-adv-x="442" d="M137 177T39 254V270Q140 351 211 461L232 432Q208 390 171 345T91 262Q134 226 171 180T232 92L211 64Q137 177 39 254ZM311 175T210 254V270Q311 351 382 461L403 432Q379 390 343
345T263 262Q305 225 342 180T403 92L382 64Q311 175 210 254Z" />
<glyph unicode="&#xac;" glyph-name="logicalnot" horiz-adv-x="475" d="M387 341H47V368H417V185H387V341Z" />
<glyph unicode="&#xad;" glyph-name="uni00AD" horiz-adv-x="343" d="M41 292H302V259H41V292Z" />
<glyph unicode="&#xae;" glyph-name="registered" horiz-adv-x="830" d="M520 724T603 677T734 546T782 357Q782 252 735 169T604 38T415 -10Q310 -10 227 37T96 168T48 357Q48 462 95 545T226 676T415 724Q520 724 603 677ZM511 21T587 64T706 184T749 357Q749
452 706 528T587 648T415 692Q319 692 243 649T123 529T80 357Q80 261 123 185T242 65T415 21Q511 21 587 64ZM565 150Q596 148 608 141V133H533L425 325H338V150Q367 148 389 141V133H248V141Q270 148 300 150V550Q269 551 246 562V573H438Q507 573 541 541T576
450Q576 394 547 362T459 325L565 150ZM338 350H432Q487 350 512 375T537 450Q537 500 512 524T432 548H338V350Z" />
<glyph unicode="&#xaf;" glyph-name="overscore" horiz-adv-x="486" d="M66 770H420V744H66V770Z" />
<glyph unicode="&#xb0;" glyph-name="degree" horiz-adv-x="299" d="M97 477T64 511T30 595Q30 646 63 680T149 714Q202 714 235 680T269 595Q269 545 236 511T149 477Q97 477 64 511ZM189 502T216 529T243 595Q243 634 216 661T149 689Q110 689 83 662T56 595Q56
556 83 529T149 502Q189 502 216 529Z" />
<glyph unicode="&#xb1;" glyph-name="plusminus" horiz-adv-x="576" d="M263 340H66V372H263V574H312V372H509V340H312V139H263V340ZM50 34H524V2H50V34Z" />
<glyph unicode="&#xb2;" glyph-name="uni00B2" horiz-adv-x="348" d="M33 313Q46 358 74 388T151 457Q185 483 205 501T238 545T251 601Q251 635 229 659T164 684Q138 684 110 672T62 641L49 662Q67 681 100 695T171 710Q224 710 260 682T296 600Q296 567 282
540T246 493T189 443Q144 407 117 379T76 313H271Q274 326 279 342T290 367H306L300 282H33V313Z" />
<glyph unicode="&#xb3;" glyph-name="uni00B3" horiz-adv-x="348" d="M128 276T95 290T41 325L54 345Q74 325 104 314T161 302Q208 302 233 328T258 401Q258 440 233 465T166 491H118V517H163Q209 517 231 543T253 606Q253 639 230 661T162 684Q138 684 110 672T63
643L50 664Q70 683 102 696T172 710Q226 710 261 685T297 607Q297 586 285 564T256 526T227 503Q261 496 282 470T304 403Q304 338 267 307T166 276Q128 276 95 290Z" />
<glyph unicode="&#xb4;" glyph-name="acute" horiz-adv-x="486" d="M174 600L283 693Q299 709 315 709Q324 709 329 704T335 690Q335 673 314 661L184 585L174 600Z" />
<glyph unicode="&#xb6;" glyph-name="paragraph" horiz-adv-x="495" d="M163 7Q192 17 245 24V311Q153 313 103 366T52 515Q52 609 102 654T248 700H460V693Q423 680 378 675V24Q431 17 459 7V0H342V674H280V0H163V7ZM245 674Q167 674 126 635T84 516Q84 428 129
383T245 338V674Z" />
<glyph unicode="&#xb7;" glyph-name="middot" horiz-adv-x="273" d="M106 284T90 302T73 352Q73 384 89 402T135 421Q165 421 182 402T200 352Q200 321 183 303T135 284Q106 284 90 302Z" />
<glyph unicode="&#xb8;" glyph-name="cedilla" horiz-adv-x="486" d="M210 -197T180 -187L192 -166Q217 -172 245 -172Q277 -172 296 -160T315 -122Q315 -105 299 -98T261 -90Q251 -90 237 -92L217 -67L252 4H283L250 -68Q258 -66 275 -66Q308 -67 328 -81T349
-123Q349 -159 320 -178T245 -197Q210 -197 180 -187Z" />
<glyph unicode="&#xb9;" glyph-name="uni00B9" horiz-adv-x="348" d="M77 296Q110 304 156 306V670L76 636V663L201 712V305Q244 305 279 296V282H77V296Z" />
<glyph unicode="&#xba;" glyph-name="ordmasculine" horiz-adv-x="334" d="M96 390T56 433T15 550Q15 624 55 667T167 710Q237 710 278 667T319 550Q319 476 279 433T167 390Q96 390 56 433ZM218 416T247 452T277 550Q277 612 248 647T167 683Q116 683 86 647T56
550Q56 488 86 452T167 416Q218 416 247 452Z" />
<glyph unicode="&#xbb;" glyph-name="guillemotright" horiz-adv-x="442" d="M39 92Q63 134 100 179T179 262Q136 300 100 345T39 432L60 461Q128 353 232 270V254Q133 177 60 64L39 92ZM210 92Q234 134 271 179T350 262Q307 300 271 345T210 432L231 461Q302
351 403 270V254Q305 177 231 64L210 92Z" />
<glyph unicode="&#xbc;" glyph-name="onequarter" horiz-adv-x="828" d="M73 296Q105 304 152 306V670L72 636V663L199 712V305Q241 305 277 296V282H73V296ZM630 712H662L226 0H195L630 712ZM580 14Q612 23 642 23V107H444V131L637 423H689V133H754V107H689V24Q721
23 750 14V0H580V14ZM642 133V379L477 133H642Z" />
<glyph unicode="&#xbd;" glyph-name="onehalf" horiz-adv-x="828" d="M73 296Q105 304 152 306V670L72 636V663L199 712V305Q241 305 277 296V282H73V296ZM630 712H662L226 0H195L630 712ZM516 31Q529 76 557 106T634 175Q668 202 687 220T720 263T733 319Q733
353 711 377T646 401Q620 401 593 390T544 359L531 379Q549 398 582 412T653 427Q706 427 742 400T779 318Q779 286 765 259T729 212T671 161Q625 123 599 96T559 31H754Q757 44 762 60T772 85H789L783 0H516V31Z" />
<glyph unicode="&#xbe;" glyph-name="threequarters" horiz-adv-x="828" d="M630 712H662L226 0H194L630 712ZM139 277T106 291T52 326L65 346Q85 326 115 315T172 303Q219 303 244 329T269 401Q269 440 244 465T176 491H129V518H174Q219 518 241 544T263 606Q263
639 240 661T173 684Q148 684 121 672T74 643L61 664Q81 683 113 696T182 710Q237 710 272 685T308 607Q308 573 289 544T238 505Q272 497 293 471T314 403Q314 339 277 308T177 277Q139 277 106 291ZM580 14Q612 23 642 23V107H444V131L637 423H689V133H754V107H689V23Q725
21 750 14V0H580V14ZM642 133V379L477 133H642Z" />
<glyph unicode="&#xbf;" glyph-name="questiondown" horiz-adv-x="445" d="M240 408T230 419T219 449Q219 468 229 478T259 489Q278 489 288 479T299 449Q299 430 289 419T259 408Q240 408 230 419ZM144 -230T91 -191T37 -66Q37 -16 60 20T132 106Q168 144 189
171T226 237T242 322H276Q276 269 261 228T224 158T168 93Q138 61 122 41T95 -7T84 -67Q84 -127 121 -165T237 -203Q282 -203 325 -185T397 -139L410 -159Q378 -190 331 -210T226 -230Q144 -230 91 -191Z" />
<glyph unicode="&#xc0;" glyph-name="Agrave" horiz-adv-x="687" d="M216 874T216 891Q216 899 221 904T236 910Q252 910 268 894L378 801L368 786L238 862Q216 874 216 891ZM648 20T680 8V0H472V8Q497 18 555 24L498 184H177L120 24Q178 18 203 7V0H7V8Q40 20
85 26L328 704H359L602 25Q648 20 680 8ZM488 211L338 632L187 211H488Z" />
<glyph unicode="&#xc1;" glyph-name="Aacute" horiz-adv-x="687" d="M327 786L317 801L427 894Q443 910 459 910Q468 910 473 905T479 891Q479 874 457 862L327 786ZM648 20T680 8V0H472V8Q497 18 555 24L498 184H177L120 24Q178 18 203 7V0H7V8Q40 20 85 26L328
704H359L602 25Q648 20 680 8ZM488 211L338 632L187 211H488Z" />
<glyph unicode="&#xc2;" glyph-name="Acircumflex" horiz-adv-x="687" d="M301 823T238 778L217 800Q289 852 332 910H355Q398 852 470 800L449 778Q386 823 346 873H341Q301 823 238 778ZM648 20T680 8V0H472V8Q497 18 555 24L498 184H177L120 24Q178 18 203
7V0H7V8Q40 20 85 26L328 704H359L602 25Q648 20 680 8ZM488 211L338 632L187 211H488Z" />
<glyph unicode="&#xc3;" glyph-name="Atilde" horiz-adv-x="687" d="M250 846T234 830T211 786H193Q199 832 220 854T275 876Q292 876 308 868T348 845Q369 832 383 825T411 818Q458 818 474 882H492Q485 837 464 812T409 787Q394 787 378 794T339 817Q317 831
302 838T273 846Q250 846 234 830ZM648 20T680 8V0H472V8Q497 18 555 24L498 184H177L120 24Q178 18 203 7V0H7V8Q40 20 85 26L328 704H359L602 25Q648 20 680 8ZM488 211L338 632L187 211H488Z" />
<glyph unicode="&#xc4;" glyph-name="Adieresis" horiz-adv-x="687" d="M222 785T213 794T204 820Q204 836 213 845T237 855Q252 855 261 846T271 820Q271 804 262 795T237 785Q222 785 213 794ZM429 785T420 794T410 820Q410 836 419 845T444 855Q459 855 468
846T477 820Q477 804 468 795T444 785Q429 785 420 794ZM648 20T680 8V0H472V8Q497 18 555 24L498 184H177L120 24Q178 18 203 7V0H7V8Q40 20 85 26L328 704H359L602 25Q648 20 680 8ZM488 211L338 632L187 211H488Z" />
<glyph unicode="&#xc5;" glyph-name="Aring" horiz-adv-x="687" d="M307 735T284 757T260 814Q260 849 283 871T343 893Q379 893 402 871T425 814Q425 779 402 757T343 735Q307 735 284 757ZM318 869T302 854T286 814Q286 789 302 774T343 759Q368 759 383 774T399
814Q399 839 384 854T343 869Q318 869 302 854ZM648 20T680 8V0H472V8Q497 18 555 24L498 184H177L120 24Q178 18 203 7V0H7V8Q40 20 85 26L328 704H359L602 25Q648 20 680 8ZM488 211L338 632L187 211H488Z" />
<glyph unicode="&#xc6;" glyph-name="AE" horiz-adv-x="974" d="M7 8Q38 20 79 26L480 680Q473 682 459 684T434 692V700H909V575H896Q890 588 885 619T877 673H570V373H802Q808 427 819 454H830V265H819Q808 294 802 346H570V26H878Q879 43 889 75T907 124H920L909
0H439V8Q473 19 520 24V184H217L120 24Q179 18 205 7V0H7V8ZM520 211V673H510L233 211H520Z" />
<glyph unicode="&#xc7;" glyph-name="Ccedilla" horiz-adv-x="589" d="M509 21T461 6T357 -10L331 -69Q336 -68 348 -68Q384 -68 406 -82T429 -124Q429 -160 400 -179T325 -198Q290 -198 261 -188L272 -167Q299 -173 325 -173Q358 -173 376 -161T395 -123Q395
-106 380 -99T342 -91Q331 -91 317 -93L297 -68L326 -9Q192 1 123 94T53 350Q53 518 132 614T356 710Q414 710 461 694T542 647L535 541H521Q513 563 504 640Q484 657 448 670T369 683Q232 683 168 592T103 350Q103 198 165 108T367 17Q402 17 448 30T533 66L541
49Q509 21 461 6Z" />
<glyph unicode="&#xc8;" glyph-name="Egrave" horiz-adv-x="581" d="M261 862Q239 874 239 891Q239 899 244 904T259 910Q275 910 291 894L401 801L391 786L261 862ZM46 8Q82 19 128 24V675Q82 680 46 692V700H517V575H504Q498 588 493 619T485 673H178V368H410Q416
422 427 449H437V260H427Q416 289 410 341H178V26H486Q487 44 497 76T515 124H528L517 0H46V8Z" />
<glyph unicode="&#xc9;" glyph-name="Eacute" horiz-adv-x="581" d="M216 801L326 894Q342 910 358 910Q367 910 372 905T378 891Q378 874 356 862L226 786L216 801ZM46 8Q82 19 128 24V675Q82 680 46 692V700H517V575H504Q498 588 493 619T485 673H178V368H410Q416
422 427 449H437V260H427Q416 289 410 341H178V26H486Q487 44 497 76T515 124H528L517 0H46V8Z" />
<glyph unicode="&#xca;" glyph-name="Ecircumflex" horiz-adv-x="581" d="M196 800Q268 852 311 910H334Q377 852 449 800L428 778Q365 823 325 873H320Q280 823 217 778L196 800ZM46 8Q82 19 128 24V675Q82 680 46 692V700H517V575H504Q498 588 493 619T485 673H178V368H410Q416
422 427 449H437V260H427Q416 289 410 341H178V26H486Q487 44 497 76T515 124H528L517 0H46V8Z" />
<glyph unicode="&#xcb;" glyph-name="Edieresis" horiz-adv-x="581" d="M200 785T191 794T182 820Q182 836 191 845T215 855Q230 855 239 846T249 820Q249 804 240 795T215 785Q200 785 191 794ZM407 785T398 794T388 820Q388 836 397 845T422 855Q437 855 446
846T455 820Q455 804 446 795T422 785Q407 785 398 794ZM46 8Q82 19 128 24V675Q82 680 46 692V700H517V575H504Q498 588 493 619T485 673H178V368H410Q416 422 427 449H437V260H427Q416 289 410 341H178V26H486Q487 44 497 76T515 124H528L517 0H46V8Z" />
<glyph unicode="&#xcc;" glyph-name="Igrave" horiz-adv-x="315" d="M97 862Q75 874 75 891Q75 899 80 904T95 910Q111 910 127 894L237 801L227 786L97 862ZM51 7Q80 17 132 24V675Q79 683 51 692V700H264V692Q235 682 182 675V24Q234 17 264 7V0H51V7Z" />
<glyph unicode="&#xcd;" glyph-name="Iacute" horiz-adv-x="315" d="M75 801L185 894Q201 910 217 910Q226 910 231 905T237 891Q237 874 215 862L85 786L75 801ZM51 7Q80 17 132 24V675Q79 683 51 692V700H264V692Q235 682 182 675V24Q234 17 264 7V0H51V7Z" />
<glyph unicode="&#xce;" glyph-name="Icircumflex" horiz-adv-x="315" d="M30 800Q102 852 145 910H168Q211 852 283 800L262 778Q199 823 159 873H154Q114 823 51 778L30 800ZM51 7Q80 17 132 24V675Q79 683 51 692V700H264V692Q235 682 182 675V24Q234 17 264
7V0H51V7Z" />
<glyph unicode="&#xcf;" glyph-name="Idieresis" horiz-adv-x="315" d="M38 785T29 794T20 820Q20 836 29 845T53 855Q68 855 77 846T87 820Q87 804 78 795T53 785Q38 785 29 794ZM245 785T236 794T226 820Q226 836 235 845T260 855Q275 855 284 846T293 820Q293
804 284 795T260 785Q245 785 236 794ZM51 7Q80 17 132 24V675Q79 683 51 692V700H264V692Q235 682 182 675V24Q234 17 264 7V0H51V7Z" />
<glyph unicode="&#xd0;" glyph-name="Eth" horiz-adv-x="638" d="M468 700T533 612T599 350Q599 178 534 89T325 0H46V8Q82 19 127 24V319H49V346H127V675Q75 683 46 692V700H326Q468 700 533 612ZM446 26T497 110T549 350Q549 506 498 589T325 673H177V346H360V319H177V26H323Q446
26 497 110Z" />
<glyph unicode="&#xd1;" glyph-name="Ntilde" horiz-adv-x="773" d="M244 832T265 854T320 876Q337 876 353 868T393 845Q414 832 428 825T456 818Q503 818 519 882H537Q530 837 509 812T454 787Q439 787 423 794T384 817Q362 831 347 838T318 846Q295 846 279
830T256 786H238Q244 832 265 854ZM46 7Q80 18 128 23V675Q76 682 46 692V700H192L611 69V676Q562 681 530 692V700H726V692Q698 683 645 675V0H609L162 669V24Q212 17 243 7V0H46V7Z" />
<glyph unicode="&#xd2;" glyph-name="Ograve" horiz-adv-x="681" d="M279 862Q257 874 257 891Q257 899 262 904T277 910Q293 910 309 894L419 801L409 786L279 862ZM195 -10T117 85T39 350Q39 519 117 614T340 710Q485 710 563 615T642 350Q642 181 564 86T340
-10Q195 -10 117 85ZM464 17T527 108T591 350Q591 501 528 592T340 683Q216 683 153 592T90 350Q90 198 153 108T340 17Q464 17 527 108Z" />
<glyph unicode="&#xd3;" glyph-name="Oacute" horiz-adv-x="681" d="M259 801L369 894Q385 910 401 910Q410 910 415 905T421 891Q421 874 399 862L269 786L259 801ZM195 -10T117 85T39 350Q39 519 117 614T340 710Q485 710 563 615T642 350Q642 181 564 86T340
-10Q195 -10 117 85ZM464 17T527 108T591 350Q591 501 528 592T340 683Q216 683 153 592T90 350Q90 198 153 108T340 17Q464 17 527 108Z" />
<glyph unicode="&#xd4;" glyph-name="Ocircumflex" horiz-adv-x="681" d="M213 800Q285 852 328 910H351Q394 852 466 800L445 778Q382 823 342 873H337Q297 823 234 778L213 800ZM195 -10T117 85T39 350Q39 519 117 614T340 710Q485 710 563 615T642 350Q642
181 564 86T340 -10Q195 -10 117 85ZM464 17T527 108T591 350Q591 501 528 592T340 683Q216 683 153 592T90 350Q90 198 153 108T340 17Q464 17 527 108Z" />
<glyph unicode="&#xd5;" glyph-name="Otilde" horiz-adv-x="681" d="M196 832T217 854T272 876Q289 876 305 868T345 845Q366 832 380 825T408 818Q455 818 471 882H489Q482 837 461 812T406 787Q391 787 375 794T336 817Q314 831 299 838T270 846Q247 846 231
830T208 786H190Q196 832 217 854ZM195 -10T117 85T39 350Q39 519 117 614T340 710Q485 710 563 615T642 350Q642 181 564 86T340 -10Q195 -10 117 85ZM464 17T527 108T591 350Q591 501 528 592T340 683Q216 683 153 592T90 350Q90 198 153 108T340 17Q464 17 527
108Z" />
<glyph unicode="&#xd6;" glyph-name="Odieresis" horiz-adv-x="681" d="M221 785T212 794T203 820Q203 836 212 845T236 855Q251 855 260 846T270 820Q270 804 261 795T236 785Q221 785 212 794ZM428 785T419 794T409 820Q409 836 418 845T443 855Q458 855 467
846T476 820Q476 804 467 795T443 785Q428 785 419 794ZM195 -10T117 85T39 350Q39 519 117 614T340 710Q485 710 563 615T642 350Q642 181 564 86T340 -10Q195 -10 117 85ZM464 17T527 108T591 350Q591 501 528 592T340 683Q216 683 153 592T90 350Q90 198 153
108T340 17Q464 17 527 108Z" />
<glyph unicode="&#xd7;" glyph-name="multiply" horiz-adv-x="576" d="M77 166L259 347L77 528L104 557L289 375L472 556L499 528L316 347L499 166L471 138L288 319L104 138L77 166Z" />
<glyph unicode="&#xd8;" glyph-name="Oslash" horiz-adv-x="681" d="M587 597T614 523T642 350Q642 181 564 86T340 -10Q232 -10 161 44L117 -26L93 -10L138 62Q89 108 64 181T39 350Q39 519 117 614T340 710Q441 710 512 662L547 718L572 702L535 643Q587 597
614 523ZM90 271T107 207T160 98L492 631Q432 683 340 683Q216 683 153 592T90 350Q90 271 107 207ZM464 17T527 108T591 350Q591 432 572 498T514 609L181 76Q242 17 340 17Q464 17 527 108Z" />
<glyph unicode="&#xd9;" glyph-name="Ugrave" horiz-adv-x="749" d="M315 862Q293 874 293 891Q293 899 298 904T313 910Q329 910 345 894L455 801L445 786L315 862ZM127 -10T127 209V675Q75 683 46 692V700H258V692Q228 682 177 675V201Q177 101 232 59T387 17Q480
17 534 60T588 201V676Q540 681 506 692V700H703V692Q667 681 620 674V209Q620 95 558 43T374 -10Q127 -10 127 209Z" />
<glyph unicode="&#xda;" glyph-name="Uacute" horiz-adv-x="749" d="M301 801L411 894Q427 910 443 910Q452 910 457 905T463 891Q463 874 441 862L311 786L301 801ZM127 -10T127 209V675Q75 683 46 692V700H258V692Q228 682 177 675V201Q177 101 232 59T387 17Q480
17 534 60T588 201V676Q540 681 506 692V700H703V692Q667 681 620 674V209Q620 95 558 43T374 -10Q127 -10 127 209Z" />
<glyph unicode="&#xdb;" glyph-name="Ucircumflex" horiz-adv-x="749" d="M247 800Q319 852 362 910H385Q428 852 500 800L479 778Q416 823 376 873H371Q331 823 268 778L247 800ZM127 -10T127 209V675Q75 683 46 692V700H258V692Q228 682 177 675V201Q177 101
232 59T387 17Q480 17 534 60T588 201V676Q540 681 506 692V700H703V692Q667 681 620 674V209Q620 95 558 43T374 -10Q127 -10 127 209Z" />
<glyph unicode="&#xdc;" glyph-name="Udieresis" horiz-adv-x="749" d="M259 785T250 794T241 820Q241 836 250 845T274 855Q289 855 298 846T308 820Q308 804 299 795T274 785Q259 785 250 794ZM466 785T457 794T447 820Q447 836 456 845T481 855Q496 855 505
846T514 820Q514 804 505 795T481 785Q466 785 457 794ZM127 -10T127 209V675Q75 683 46 692V700H258V692Q228 682 177 675V201Q177 101 232 59T387 17Q480 17 534 60T588 201V676Q540 681 506 692V700H703V692Q667 681 620 674V209Q620 95 558 43T374 -10Q127
-10 127 209Z" />
<glyph unicode="&#xdd;" glyph-name="Yacute" horiz-adv-x="676" d="M264 801L374 894Q390 910 406 910Q415 910 420 905T426 891Q426 874 404 862L274 786L264 801ZM235 7Q272 19 316 24V298L94 673Q51 680 19 691V700H228V691Q192 679 143 674L348 325L567 676Q536
681 503 692V700H656V691Q634 682 605 677L366 298V24Q418 17 448 7V0H235V7Z" />
<glyph unicode="&#xde;" glyph-name="Thorn" horiz-adv-x="583" d="M46 7Q83 19 128 24V675Q81 682 48 692V700H177V553H341Q448 553 498 497T549 345Q549 248 498 191T341 134H177V24Q229 17 259 7V0H46V7ZM335 161Q419 161 459 211T499 345Q499 430 458 478T331
527H177V161H335Z" />
<glyph unicode="&#xdf;" glyph-name="germandbls" horiz-adv-x="654" d="M347 367T365 345T409 309T479 276Q530 254 559 238T608 194T629 128Q629 62 585 26T465 -10Q410 -10 372 4T303 46L310 173H323Q328 160 332 121T338 55Q361 35 388 26T452 16Q518 16 549
45T580 124Q580 153 563 174T521 208T452 241Q402 262 372 279T321 324T300 393Q300 448 346 475T460 504Q460 583 429 649T298 715Q245 715 209 681T172 584V24Q224 17 254 7V0H42V7Q78 19 123 24V471H27V498H123V573Q123 651 171 696T299 741Q430 741 468 661T506
491V480Q432 480 390 460T347 397Q347 367 365 345Z" />
<glyph unicode="&#xe0;" glyph-name="agrave" horiz-adv-x="507" d="M192 660Q170 672 170 689Q170 697 175 702T190 708Q206 708 222 692L332 599L322 584L192 660ZM120 -10T78 26T36 132Q36 207 89 240T222 274H386V362Q386 421 349 450T243 480Q205 480 166
469T92 440L86 465Q122 484 168 495T261 507Q341 507 387 470T434 368V33Q484 24 504 18V12L386 0V79Q302 -10 193 -10Q120 -10 78 26ZM257 17T309 47T386 116V248H235Q159 248 122 218T85 133Q85 75 119 46T208 17Q257 17 309 47Z" />
<glyph unicode="&#xe1;" glyph-name="aacute" horiz-adv-x="507" d="M175 599L285 692Q301 708 317 708Q326 708 331 703T337 689Q337 672 315 660L185 584L175 599ZM120 -10T78 26T36 132Q36 207 89 240T222 274H386V362Q386 421 349 450T243 480Q205 480 166
469T92 440L86 465Q122 484 168 495T261 507Q341 507 387 470T434 368V33Q484 24 504 18V12L386 0V79Q302 -10 193 -10Q120 -10 78 26ZM257 17T309 47T386 116V248H235Q159 248 122 218T85 133Q85 75 119 46T208 17Q257 17 309 47Z" />
<glyph unicode="&#xe2;" glyph-name="acircumflex" horiz-adv-x="507" d="M125 598Q197 650 240 708H263Q306 650 378 598L357 576Q294 621 254 671H249Q209 621 146 576L125 598ZM120 -10T78 26T36 132Q36 207 89 240T222 274H386V362Q386 421 349 450T243 480Q205
480 166 469T92 440L86 465Q122 484 168 495T261 507Q341 507 387 470T434 368V33Q484 24 504 18V12L386 0V79Q302 -10 193 -10Q120 -10 78 26ZM257 17T309 47T386 116V248H235Q159 248 122 218T85 133Q85 75 119 46T208 17Q257 17 309 47Z" />
<glyph unicode="&#xe3;" glyph-name="atilde" horiz-adv-x="507" d="M108 630T129 652T184 674Q201 674 217 666T257 643Q278 630 292 623T320 616Q367 616 383 680H401Q394 635 373 610T318 585Q303 585 287 592T248 615Q226 629 211 636T182 644Q159 644 143
628T120 584H102Q108 630 129 652ZM120 -10T78 26T36 132Q36 207 89 240T222 274H386V362Q386 421 349 450T243 480Q205 480 166 469T92 440L86 465Q122 484 168 495T261 507Q341 507 387 470T434 368V33Q484 24 504 18V12L386 0V79Q302 -10 193 -10Q120 -10 78
26ZM257 17T309 47T386 116V248H235Q159 248 122 218T85 133Q85 75 119 46T208 17Q257 17 309 47Z" />
<glyph unicode="&#xe4;" glyph-name="adieresis" horiz-adv-x="507" d="M133 583T124 592T115 618Q115 634 124 643T148 653Q163 653 172 644T182 618Q182 602 173 593T148 583Q133 583 124 592ZM340 583T331 592T321 618Q321 634 330 643T355 653Q370 653 379
644T388 618Q388 602 379 593T355 583Q340 583 331 592ZM120 -10T78 26T36 132Q36 207 89 240T222 274H386V362Q386 421 349 450T243 480Q205 480 166 469T92 440L86 465Q122 484 168 495T261 507Q341 507 387 470T434 368V33Q484 24 504 18V12L386 0V79Q302 -10
193 -10Q120 -10 78 26ZM257 17T309 47T386 116V248H235Q159 248 122 218T85 133Q85 75 119 46T208 17Q257 17 309 47Z" />
<glyph unicode="&#xe5;" glyph-name="aring" horiz-adv-x="507" d="M217 564T194 586T170 643Q170 678 193 700T253 722Q289 722 312 700T335 643Q335 608 312 586T253 564Q217 564 194 586ZM278 588T293 603T309 643Q309 668 294 683T253 698Q228 698 212 683T196
643Q196 618 212 603T253 588Q278 588 293 603ZM120 -10T78 26T36 132Q36 207 89 240T222 274H386V362Q386 421 349 450T243 480Q205 480 166 469T92 440L86 465Q122 484 168 495T261 507Q341 507 387 470T434 368V33Q484 24 504 18V12L386 0V79Q302 -10 193 -10Q120
-10 78 26ZM257 17T309 47T386 116V248H235Q159 248 122 218T85 133Q85 75 119 46T208 17Q257 17 309 47Z" />
<glyph unicode="&#xe6;" glyph-name="ae" horiz-adv-x="847" d="M123 -10T80 26T36 132Q36 208 91 244T224 281H375Q377 303 386 354Q386 480 243 480Q205 480 166 469T92 440L86 465Q122 484 168 495T261 507Q323 507 364 483T420 415Q450 460 498 483T610 507Q711
507 762 441T814 273V254H422Q423 185 448 132T522 47T640 16Q680 16 719 28T786 61L791 41Q765 19 722 5T625 -10Q558 -10 504 19T418 101Q370 38 309 14T195 -10Q123 -10 80 26ZM770 282Q769 362 731 421T612 481Q522 481 476 425T423 282H770ZM262 17T318 48T403
125Q376 182 374 254H237Q162 254 124 221T85 133Q85 75 119 46T209 17Q262 17 318 48Z" />
<glyph unicode="&#xe7;" glyph-name="ccedilla" horiz-adv-x="462" d="M317 -67T339 -81T362 -123Q362 -159 333 -178T258 -197Q223 -197 194 -187L205 -166Q232 -172 258 -172Q291 -172 309 -160T328 -122Q328 -105 313 -98T275 -90Q264 -90 250 -92L230 -67L258
-10Q189 -6 138 27T58 117T30 248Q30 330 61 388T147 476T277 507Q377 507 439 453L433 354H421Q411 377 406 448Q353 480 294 480Q187 480 133 418T79 240Q79 182 101 131T171 48T289 16Q329 16 368 28T436 61L441 41Q416 20 378 6T290 -10L264 -68Q269 -67 281
-67Q317 -67 339 -81Z" />
<glyph unicode="&#xe8;" glyph-name="egrave" horiz-adv-x="502" d="M171 672T171 689Q171 697 176 702T191 708Q207 708 223 692L333 599L323 584L193 660Q171 672 171 689ZM78 254V251Q78 148 133 82T292 16Q332 16 372 28T441 61L446 41Q420 19 376 5T278 -10Q205
-10 149 22T61 113T29 248Q29 371 92 439T264 507Q365 507 416 441T468 273V254H78ZM179 480T133 425T79 281H423Q423 361 385 420T266 480Q179 480 133 425Z" />
<glyph unicode="&#xe9;" glyph-name="eacute" horiz-adv-x="502" d="M185 584L175 599L285 692Q301 708 317 708Q326 708 331 703T337 689Q337 672 315 660L185 584ZM78 254V251Q78 148 133 82T292 16Q332 16 372 28T441 61L446 41Q420 19 376 5T278 -10Q205 -10
149 22T61 113T29 248Q29 371 92 439T264 507Q365 507 416 441T468 273V254H78ZM179 480T133 425T79 281H423Q423 361 385 420T266 480Q179 480 133 425Z" />
<glyph unicode="&#xea;" glyph-name="ecircumflex" horiz-adv-x="502" d="M210 621T147 576L126 598Q198 650 241 708H264Q307 650 379 598L358 576Q295 621 255 671H250Q210 621 147 576ZM78 254V251Q78 148 133 82T292 16Q332 16 372 28T441 61L446 41Q420 19
376 5T278 -10Q205 -10 149 22T61 113T29 248Q29 371 92 439T264 507Q365 507 416 441T468 273V254H78ZM179 480T133 425T79 281H423Q423 361 385 420T266 480Q179 480 133 425Z" />
<glyph unicode="&#xeb;" glyph-name="edieresis" horiz-adv-x="502" d="M134 583T125 592T116 618Q116 634 125 643T149 653Q164 653 173 644T183 618Q183 602 174 593T149 583Q134 583 125 592ZM341 583T332 592T322 618Q322 634 331 643T356 653Q371 653 380
644T389 618Q389 602 380 593T356 583Q341 583 332 592ZM78 254V251Q78 148 133 82T292 16Q332 16 372 28T441 61L446 41Q420 19 376 5T278 -10Q205 -10 149 22T61 113T29 248Q29 371 92 439T264 507Q365 507 416 441T468 273V254H78ZM179 480T133 425T79 281H423Q423
361 385 420T266 480Q179 480 133 425Z" />
<glyph unicode="&#xec;" glyph-name="igrave" horiz-adv-x="289" d="M52 660Q30 672 30 689Q30 697 35 702T50 708Q66 708 82 692L192 599L182 584L52 660ZM38 7Q67 17 120 24V469Q77 476 49 485V490L168 503V24Q219 17 250 7V0H38V7Z" />
<glyph unicode="&#xed;" glyph-name="iacute" horiz-adv-x="289" d="M57 599L167 692Q183 708 199 708Q208 708 213 703T219 689Q219 672 197 660L67 584L57 599ZM38 7Q67 17 120 24V469Q77 476 49 485V490L168 503V24Q219 17 250 7V0H38V7Z" />
<glyph unicode="&#xee;" glyph-name="icircumflex" horiz-adv-x="289" d="M17 598Q89 650 132 708H155Q198 650 270 598L249 576Q186 621 146 671H141Q101 621 38 576L17 598ZM38 7Q67 17 120 24V469Q77 476 49 485V490L168 503V24Q219 17 250 7V0H38V7Z" />
<glyph unicode="&#xef;" glyph-name="idieresis" horiz-adv-x="289" d="M25 583T16 592T7 618Q7 634 16 643T40 653Q55 653 64 644T74 618Q74 602 65 593T40 583Q25 583 16 592ZM232 583T223 592T213 618Q213 634 222 643T247 653Q262 653 271 644T280 618Q280
602 271 593T247 583Q232 583 223 592ZM38 7Q67 17 120 24V469Q77 476 49 485V490L168 503V24Q219 17 250 7V0H38V7Z" />
<glyph unicode="&#xf0;" glyph-name="eth" horiz-adv-x="582" d="M430 605T478 501T527 293Q527 151 465 71T281 -10Q211 -10 160 25T82 120T55 248Q55 309 81 367T159 464T286 502Q342 502 392 477T472 400Q455 470 416 539T315 665L157 575L147 601L293 684Q244
724 180 753L196 775Q265 747 321 701Q408 751 444 774L461 748L344 682Q430 605 478 501ZM344 16T388 50T455 142T478 270Q478 324 454 371T386 446T290 475Q236 475 194 446T127 365T103 248Q103 185 124 132T186 48T283 16Q344 16 388 50Z" />
<glyph unicode="&#xf1;" glyph-name="ntilde" horiz-adv-x="620" d="M214 644T198 628T175 584H157Q163 630 184 652T239 674Q256 674 272 666T312 643Q333 630 347 623T375 616Q422 616 438 680H456Q449 635 428 610T373 585Q358 585 342 592T303 615Q281 629
266 636T237 644Q214 644 198 628ZM571 17T600 7V0H390V7Q423 18 470 24V357Q470 421 437 450T352 480Q304 480 253 457T165 397V24Q217 17 247 7V0H35V7Q69 17 117 24V470Q67 478 46 486V491L165 504V425Q200 459 253 483T367 507Q436 507 477 469T518 367V24Q571
17 600 7Z" />
<glyph unicode="&#xf2;" glyph-name="ograve" horiz-adv-x="548" d="M213 660Q191 672 191 689Q191 697 196 702T211 708Q227 708 243 692L353 599L343 584L213 660ZM160 -10T94 58T28 248Q28 369 94 438T274 507Q387 507 453 438T519 248Q519 127 453 59T274
-10Q160 -10 94 58ZM365 16T417 77T470 248Q470 356 417 418T274 480Q183 480 130 418T77 248Q77 139 130 78T274 16Q365 16 417 77Z" />
<glyph unicode="&#xf3;" glyph-name="oacute" horiz-adv-x="548" d="M193 599L303 692Q319 708 335 708Q344 708 349 703T355 689Q355 672 333 660L203 584L193 599ZM160 -10T94 58T28 248Q28 369 94 438T274 507Q387 507 453 438T519 248Q519 127 453 59T274
-10Q160 -10 94 58ZM365 16T417 77T470 248Q470 356 417 418T274 480Q183 480 130 418T77 248Q77 139 130 78T274 16Q365 16 417 77Z" />
<glyph unicode="&#xf4;" glyph-name="ocircumflex" horiz-adv-x="548" d="M147 598Q219 650 262 708H285Q328 650 400 598L379 576Q316 621 276 671H271Q231 621 168 576L147 598ZM160 -10T94 58T28 248Q28 369 94 438T274 507Q387 507 453 438T519 248Q519 127
453 59T274 -10Q160 -10 94 58ZM365 16T417 77T470 248Q470 356 417 418T274 480Q183 480 130 418T77 248Q77 139 130 78T274 16Q365 16 417 77Z" />
<glyph unicode="&#xf5;" glyph-name="otilde" horiz-adv-x="548" d="M130 630T151 652T206 674Q223 674 239 666T279 643Q300 630 314 623T342 616Q389 616 405 680H423Q416 635 395 610T340 585Q325 585 309 592T270 615Q248 629 233 636T204 644Q181 644 165
628T142 584H124Q130 630 151 652ZM160 -10T94 58T28 248Q28 369 94 438T274 507Q387 507 453 438T519 248Q519 127 453 59T274 -10Q160 -10 94 58ZM365 16T417 77T470 248Q470 356 417 418T274 480Q183 480 130 418T77 248Q77 139 130 78T274 16Q365 16 417 77Z"
/>
<glyph unicode="&#xf6;" glyph-name="odieresis" horiz-adv-x="548" d="M155 583T146 592T137 618Q137 634 146 643T170 653Q185 653 194 644T204 618Q204 602 195 593T170 583Q155 583 146 592ZM362 583T353 592T343 618Q343 634 352 643T377 653Q392 653 401
644T410 618Q410 602 401 593T377 583Q362 583 353 592ZM160 -10T94 58T28 248Q28 369 94 438T274 507Q387 507 453 438T519 248Q519 127 453 59T274 -10Q160 -10 94 58ZM365 16T417 77T470 248Q470 356 417 418T274 480Q183 480 130 418T77 248Q77 139 130 78T274
16Q365 16 417 77Z" />
<glyph unicode="&#xf7;" glyph-name="divide" horiz-adv-x="576" d="M269 467T259 478T248 508Q248 526 258 537T288 548Q307 548 318 537T329 508Q329 489 318 478T288 467Q269 467 259 478ZM66 364H511V332H66V364ZM267 149T257 160T246 189Q246 208 256 219T286
230Q305 230 316 219T327 189Q327 171 316 160T286 149Q267 149 257 160Z" />
<glyph unicode="&#xf8;" glyph-name="oslash" horiz-adv-x="548" d="M472 427T495 373T519 248Q519 127 453 59T274 -10Q199 -10 145 20L111 -33L87 -16L120 36Q75 69 52 123T28 248Q28 369 94 438T274 507Q348 507 402 477L432 523L458 507L428 460Q472 427 495
373ZM77 189T93 143T140 67L384 448Q338 480 274 480Q183 480 130 418T77 248Q77 189 93 143ZM365 16T417 77T470 248Q470 306 454 352T408 429L163 48Q209 16 274 16Q365 16 417 77Z" />
<glyph unicode="&#xf9;" glyph-name="ugrave" horiz-adv-x="597" d="M208 672T208 689Q208 697 213 702T228 708Q244 708 260 692L370 599L360 584L230 660Q208 672 208 689ZM549 18T570 11V5L451 -7V66Q415 34 362 12T251 -10Q181 -10 140 28T98 129V470Q48 478
27 486V491L146 504V139Q146 76 178 46T264 16Q311 16 363 38T451 95V470Q401 479 381 486V491L499 504V26Q549 18 570 11Z" />
<glyph unicode="&#xfa;" glyph-name="uacute" horiz-adv-x="597" d="M224 584L214 599L324 692Q340 708 356 708Q365 708 370 703T376 689Q376 672 354 660L224 584ZM549 18T570 11V5L451 -7V66Q415 34 362 12T251 -10Q181 -10 140 28T98 129V470Q48 478 27 486V491L146
504V139Q146 76 178 46T264 16Q311 16 363 38T451 95V470Q401 479 381 486V491L499 504V26Q549 18 570 11Z" />
<glyph unicode="&#xfb;" glyph-name="ucircumflex" horiz-adv-x="597" d="M247 621T184 576L163 598Q235 650 278 708H301Q344 650 416 598L395 576Q332 621 292 671H287Q247 621 184 576ZM549 18T570 11V5L451 -7V66Q415 34 362 12T251 -10Q181 -10 140 28T98
129V470Q48 478 27 486V491L146 504V139Q146 76 178 46T264 16Q311 16 363 38T451 95V470Q401 479 381 486V491L499 504V26Q549 18 570 11Z" />
<glyph unicode="&#xfc;" glyph-name="udieresis" horiz-adv-x="597" d="M171 583T162 592T153 618Q153 634 162 643T186 653Q201 653 210 644T220 618Q220 602 211 593T186 583Q171 583 162 592ZM378 583T369 592T359 618Q359 634 368 643T393 653Q408 653 417
644T426 618Q426 602 417 593T393 583Q378 583 369 592ZM549 18T570 11V5L451 -7V66Q415 34 362 12T251 -10Q181 -10 140 28T98 129V470Q48 478 27 486V491L146 504V139Q146 76 178 46T264 16Q311 16 363 38T451 95V470Q401 479 381 486V491L499 504V26Q549 18
570 11Z" />
<glyph unicode="&#xfd;" glyph-name="yacute" horiz-adv-x="533" d="M187 584L177 599L287 692Q303 708 319 708Q328 708 333 703T339 689Q339 672 317 660L187 584ZM525 498V491Q504 482 456 476L261 -68Q245 -111 229 -136T187 -176T120 -190Q75 -190 42 -180L49
-151Q81 -159 113 -159Q158 -159 184 -137T231 -57L252 3L76 477Q69 478 46 481T8 491V498H201V490Q178 481 124 474L272 58L419 475Q369 481 345 490V498H525Z" />
<glyph unicode="&#xfe;" glyph-name="thorn" horiz-adv-x="566" d="M4 -241Q41 -229 85 -224V672Q42 679 15 688V693L134 706V425Q209 507 321 507Q422 507 479 445T537 261Q537 123 479 57T314 -10Q255 -10 207 10T134 76V-223Q181 -230 215 -241V-248H4V-241ZM402
16T445 81T488 256Q488 368 445 424T304 480Q253 480 210 455T134 388V167Q134 127 154 93T214 37T307 16Q402 16 445 81Z" />
<glyph unicode="&#xff;" glyph-name="ydieresis" horiz-adv-x="533" d="M148 583T139 592T130 618Q130 634 139 643T163 653Q178 653 187 644T197 618Q197 602 188 593T163 583Q148 583 139 592ZM355 583T346 592T336 618Q336 634 345 643T370 653Q385 653 394
644T403 618Q403 602 394 593T370 583Q355 583 346 592ZM525 498V491Q504 482 456 476L261 -68Q245 -111 229 -136T187 -176T120 -190Q75 -190 42 -180L49 -151Q81 -159 113 -159Q158 -159 184 -137T231 -57L252 3L76 477Q69 478 46 481T8 491V498H201V490Q178
481 124 474L272 58L419 475Q369 481 345 490V498H525Z" />
<glyph unicode="&#x2013;" glyph-name="endash" horiz-adv-x="586" d="M41 292H545V259H41V292Z" />
<glyph unicode="&#x2014;" glyph-name="emdash" horiz-adv-x="900" d="M41 292H859V259H41V292Z" />
<glyph unicode="&#x2018;" glyph-name="quoteleft" horiz-adv-x="233" d="M99 509T86 527T72 572Q72 604 89 645T130 710L153 694Q135 671 125 643T114 587Q119 590 131 590Q146 590 157 580T168 552Q168 534 156 522T125 509Q99 509 86 527Z" />
<glyph unicode="&#x2019;" glyph-name="quoteright" horiz-adv-x="233" d="M87 525Q119 566 124 617L126 632Q120 628 108 628Q93 628 83 639T72 666Q72 685 84 697T115 710Q141 710 154 692T168 647Q168 615 151 574T109 508L87 525Z" />
<glyph unicode="&#x201a;" glyph-name="quotesinglbase" horiz-adv-x="233" d="M87 -15Q119 26 124 77L126 92Q120 89 108 89Q93 89 83 99T72 126Q72 145 84 157T115 170Q141 170 154 152T168 107Q168 75 151 34T109 -32L87 -15Z" />
<glyph unicode="&#x201c;" glyph-name="quotedblleft" horiz-adv-x="359" d="M99 509T86 527T72 572Q72 604 89 645T130 710L153 694Q135 671 125 643T114 587Q119 590 131 590Q146 590 157 580T168 552Q168 534 156 522T125 509Q99 509 86 527ZM224 509T211 527T198
572Q198 604 215 645T256 710L278 694Q261 671 251 643T240 587Q245 590 257 590Q272 590 282 580T293 552Q293 534 281 522T250 509Q224 509 211 527Z" />
<glyph unicode="&#x201d;" glyph-name="quotedblright" horiz-adv-x="359" d="M87 525Q119 566 124 617L126 632Q120 628 108 628Q93 628 83 639T72 666Q72 685 84 697T115 710Q141 710 154 692T168 647Q168 615 151 574T109 508L87 525ZM216 525Q248 566 253
617L255 632Q249 628 237 628Q222 628 212 639T201 666Q201 685 213 697T244 710Q270 710 283 692T297 647Q297 615 280 574T238 508L216 525Z" />
<glyph unicode="&#x201e;" glyph-name="quotedblbase" horiz-adv-x="359" d="M87 -15Q115 19 124 77L126 92Q120 89 108 89Q93 89 83 99T72 126Q72 145 84 157T115 170Q141 170 154 152T168 107Q168 75 151 34T109 -32L87 -15ZM216 -15Q244 19 253 77L255 92Q249
89 237 89Q222 89 212 99T201 126Q201 145 213 157T244 170Q270 170 283 152T297 107Q297 75 280 34T238 -32L216 -15Z" />
<glyph unicode="&#x2022;" glyph-name="bullet" horiz-adv-x="260" d="M104 297T90 313T75 359Q75 389 89 405T131 421Q157 421 171 405T185 359Q185 330 171 314T131 297Q104 297 90 313Z" />
<glyph unicode="&#x2039;" glyph-name="guilsinglleft" horiz-adv-x="271" d="M137 177T39 254V270Q140 351 211 461L232 432Q208 390 171 345T91 262Q134 226 171 180T232 92L211 64Q137 177 39 254Z" />
<glyph unicode="&#x203a;" glyph-name="guilsinglright" horiz-adv-x="271" d="M39 92Q63 134 100 179T179 262Q136 300 100 345T39 432L60 461Q128 353 232 270V254Q133 177 60 64L39 92Z" />
</font>
</defs>
</svg>
