<?xml version="1.0" standalone="no"?>
<!DOCTYPE svg PUBLIC "-//W3C//DTD SVG 1.1//EN" "http://www.w3.org/Graphics/SVG/1.1/DTD/svg11.dtd">
<svg xmlns="http://www.w3.org/2000/svg">
<defs >
<font id="JustMeAgainDownHere" horiz-adv-x="311" ><font-face
    font-family="Just Me Again Down Here"
    units-per-em="1000"
    panose-1="2 0 5 0 0 0 0 0 0 0"
    ascent="1069"
    descent="-429"
    alphabetic="0" />
<glyph unicode=" " glyph-name="space" horiz-adv-x="377" />
<glyph unicode="!" glyph-name="exclam" horiz-adv-x="127" d="M45 679Q72 668 72 647Q80 363 95 237Q85 212 66 212Q29 212 29 331Q20 375 14 650Q14 675 45 679ZM51 -9Q60 22 83 22T116 -9Q105 -38 85 -38H82Q62 -38 51 -9Z" />
<glyph unicode="&quot;" glyph-name="quotedbl" horiz-adv-x="234" d="M101 605H104Q124 605 135 576Q135 565 95 524Q82 494 82 470V449Q82 433 101 392Q101 371 70 361Q32 361 22 457V461Q22 556 101 605ZM182 551H185Q206 551 210 520Q210 505 170 480L164
455V449L172 411Q172 393 141 380Q104 392 104 451Q104 522 182 551Z" />
<glyph unicode="#" glyph-name="numbersign" horiz-adv-x="559" d="M331 435Q363 435 377 307L387 304L421 310Q444 310 450 276Q450 256 387 241V222L390 220V216L490 232Q506 232 519 201Q519 170 421 164Q394 161 394 154Q402 66 415 10Q405 -15 384 -15Q349
-15 337 135Q337 147 331 147Q281 147 281 122V60Q281 26 250 26Q221 26 221 60V126H219Q182 126 109 89H102Q81 96 81 116Q81 160 225 189V201L162 195Q96 195 96 229V235Q96 243 119 257L162 254Q208 254 227 264Q225 332 212 401Q222 426 246 426Q284 426 284
282V276L321 285L300 416Q310 435 331 435ZM321 222L284 214V201H287L327 207V222H321Z" />
<glyph unicode="$" glyph-name="dollar" horiz-adv-x="464" d="M230 920Q250 920 257 886L255 736V714L251 676H255L317 682Q385 682 414 632L420 617Q420 595 386 589Q376 589 351 617L326 624H317Q249 624 249 599L236 305Q430 216 430 124Q430 29 276 -74Q211
-100 211 -105L207 -326V-351Q207 -399 174 -399Q150 -399 149 -368H145L149 -318L151 -89Q67 -46 67 74Q67 157 105 157H107Q130 146 130 132L126 70Q126 8 155 -18H157L174 267Q1 350 1 455Q1 568 192 657L195 767V870Q195 920 230 920ZM61 464V449Q61 387 176
332L189 589Q61 532 61 464ZM232 239H230L217 -36H220Q308 2 364 89L367 111V126Q367 184 232 239Z" />
<glyph unicode="%" glyph-name="percent" horiz-adv-x="475" d="M364 644Q391 634 391 612Q304 518 276 341Q170 -1 170 -84L166 -88Q166 -119 129 -119Q107 -109 107 -94Q107 -12 220 360Q259 526 297 587Q339 644 364 644ZM154 547Q212 547 222 450V441Q222
306 126 266L101 262Q42 262 26 341L22 362V372Q22 475 120 541Q132 547 154 547ZM82 387V354Q82 330 97 322H114Q164 361 164 425V460Q164 484 151 487H147Q82 439 82 387ZM397 287Q432 287 441 175V150Q429 16 379 16L366 12Q281 12 266 147Q266 236 329 269L345
272L370 269Q380 287 397 287ZM326 144Q330 72 364 72Q382 92 382 147V172L376 225H370Q326 214 326 144Z" />
<glyph unicode="&amp;" glyph-name="ampersand" horiz-adv-x="380" d="M111 715L127 719Q164 719 202 644L211 590Q211 528 146 312V309Q150 254 234 90L236 87L246 81Q277 155 277 227V281Q277 350 217 375L211 396Q211 412 236 425Q280 425 324 344Q335 304
340 250Q340 169 290 25Q290 17 346 -19L349 -29Q340 -60 315 -60Q306 -60 259 -31Q187 -116 117 -116Q65 -116 36 -48Q27 -26 27 15V21Q27 114 80 306V309Q42 487 42 565Q54 715 111 715ZM121 656Q102 630 102 568T115 434H117Q149 496 149 571V609Q141 656 121
656ZM117 196H115Q86 112 86 27V2Q86 -40 109 -54H124Q180 -54 215 15Q157 100 121 194L117 196Z" />
<glyph unicode="&apos;" glyph-name="quotesingle" horiz-adv-x="144" d="M64 592Q95 592 104 517V511Q104 477 73 477T41 542Q34 542 32 565Q42 592 64 592Z" />
<glyph unicode="(" glyph-name="parenleft" horiz-adv-x="287" d="M202 687Q225 687 231 654Q102 504 102 266V260Q102 26 231 -38Q275 -49 275 -75Q275 -91 246 -103Q159 -79 112 -9Q44 97 44 244V266Q44 499 165 662Q190 687 202 687Z" />
<glyph unicode=")" glyph-name="parenright" horiz-adv-x="241" d="M97 629Q145 611 191 482Q206 405 206 351V345Q206 121 91 -43L75 -49Q44 -42 44 -18Q147 145 147 351Q147 502 66 591V607Q81 629 97 629Z" />
<glyph unicode="*" glyph-name="asterisk" horiz-adv-x="640" d="M277 620Q306 611 306 582Q306 516 275 399Q321 339 337 339L346 342Q466 342 512 251L515 236Q515 209 469 199Q412 199 309 280H302Q287 280 287 274L300 114V82Q297 49 271 49Q237 49 237 124Q212
220 202 220Q137 101 107 101T71 161Q71 239 169 295L171 299V301Q115 408 115 417Q115 437 144 442V451Q106 484 106 501Q115 526 137 526Q150 526 209 467H212Q216 467 231 557Q249 620 277 620ZM202 386L187 401V399Q194 380 200 380H202V386Z" />
<glyph unicode="+" glyph-name="plus" horiz-adv-x="521" d="M234 432Q248 432 261 407L259 370V354Q259 294 280 260Q422 310 449 310Q470 310 474 279Q474 252 392 239L299 204V201Q324 111 324 82Q315 60 296 60H286Q270 60 249 166L236 185Q188 172 155 172H140Q74
172 74 214Q74 225 92 239H99L134 232H167Q217 234 217 245V247Q199 325 199 360Q199 432 234 432Z" />
<glyph unicode="," glyph-name="comma" horiz-adv-x="245" d="M135 182Q187 159 197 41Q197 -68 112 -159L100 -165Q69 -155 69 -134L110 -68Q135 -17 135 35V72Q135 97 104 147V151Q111 182 135 182Z" />
<glyph unicode="-" glyph-name="hyphen" horiz-adv-x="419" d="M136 275L317 287Q342 287 346 256Q346 225 252 225Q183 215 130 215Q65 223 65 252Q65 272 92 284L130 275H136Z" />
<glyph unicode="." glyph-name="period" horiz-adv-x="182" d="M100 59Q121 59 125 25Q119 -10 90 -10Q70 -10 62 25Q74 59 100 59Z" />
<glyph unicode="/" glyph-name="slash" horiz-adv-x="355" d="M342 605Q371 597 371 576Q354 528 254 326T105 1L84 -5Q55 0 55 24Q55 56 311 580Q320 605 342 605Z" />
<glyph unicode="0" glyph-name="zero" horiz-adv-x="366" d="M115 575Q146 627 177 627T221 590L219 577V575Q346 493 346 269T215 -29L181 -35Q78 -35 40 84Q27 137 27 187V200Q27 304 77 487Q53 487 46 521Q46 540 115 575ZM87 206V181Q87 25 175 25H177Q259
25 284 221L287 281Q280 480 194 519L175 521H159Q135 497 102 352Q87 272 87 206Z" />
<glyph unicode="1" glyph-name="one" horiz-adv-x="155" d="M36 484Q42 509 72 509T102 381L105 327L96 12Q89 -19 65 -19Q36 -8 36 12L46 321L36 484Z" />
<glyph unicode="2" glyph-name="two" horiz-adv-x="359" d="M187 540Q264 540 277 431Q277 330 119 40V34Q160 34 294 106H296Q316 106 327 77Q327 26 52 -48Q36 -48 25 -19Q64 70 177 281Q215 383 215 419V450Q215 470 194 481H181Q142 481 106 387L109 375Q109
356 81 344Q44 351 44 381Q44 438 131 521Q156 540 187 540Z" />
<glyph unicode="3" glyph-name="three" horiz-adv-x="345" d="M159 535Q222 535 237 454Q230 405 215 370V366Q279 366 312 276L315 239Q305 118 181 -21Q125 -59 100 -59Q19 -38 19 -3Q23 11 40 22H59Q82 4 94 4H96Q174 4 252 210L256 239V245Q256 307 212 307Q165
307 144 264Q100 214 77 207Q64 207 46 235Q46 275 137 351Q177 421 177 457Q171 475 159 479Q116 479 69 366L46 360Q19 366 19 385Q67 535 159 535Z" />
<glyph unicode="4" glyph-name="four" horiz-adv-x="500" d="M334 667Q346 667 362 645V636Q362 621 346 611Q315 584 315 236V195H327Q378 195 440 251H444Q475 244 475 220Q449 171 390 149Q355 136 325 136H319L325 -208Q325 -228 296 -239Q269 -239 265 -205L259
142Q134 180 121 180H109Q99 174 84 145L65 132Q34 144 34 170Q34 181 77 261Q127 413 127 474V511Q127 525 106 564Q113 595 137 595Q190 572 190 489Q190 431 134 239L256 205V214Q256 655 309 655Q309 661 334 667Z" />
<glyph unicode="5" glyph-name="five" horiz-adv-x="372" d="M219 446H225Q290 446 290 412Q287 398 269 384L221 387H215Q167 387 65 359L81 240H87Q172 302 225 302Q319 302 337 177V171Q337 65 194 9L144 0Q65 9 65 37Q77 69 100 69L134 59H159Q220 59 269
134Q277 152 277 165V184Q270 244 221 244H219Q157 244 71 137H65Q25 137 25 240L0 390Q0 421 81 421Q175 446 219 446Z" />
<glyph unicode="6" glyph-name="six" horiz-adv-x="359" d="M139 470Q167 460 167 439L126 372Q99 286 99 191V154H107Q166 229 230 229Q326 214 326 135V129Q326 29 211 -43L164 -49Q57 -49 39 157V197Q39 359 107 451Q126 470 139 470ZM124 45V41Q139 10 167
10H174Q237 10 267 126V135Q267 167 230 170Q157 170 124 45Z" />
<glyph unicode="7" glyph-name="seven" horiz-adv-x="440" d="M371 605H377Q405 595 405 574Q400 552 346 482Q311 420 246 39L221 -89L199 -105Q167 -94 167 -76Q167 -31 261 424H259Q164 384 115 382Q17 396 17 439Q17 465 67 470L105 442H115Q212 442 315 542Q321
567 371 605Z" />
<glyph unicode="8" glyph-name="eight" horiz-adv-x="345" d="M289 532Q317 532 322 491Q322 435 191 232Q191 226 247 179Q291 126 291 66Q291 -31 170 -86H154Q82 -86 66 16V29Q66 84 114 216Q22 291 22 360V364Q22 460 147 507L179 510Q217 510 245 479V470Q245
450 216 439Q189 451 176 451H170Q82 429 82 366V357Q82 309 145 270Q264 449 264 485L257 491V504Q257 529 289 532ZM166 172H164Q126 84 126 26V10Q126 -16 147 -28H154Q198 -28 229 47L232 64V79Q232 124 166 172Z" />
<glyph unicode="9" glyph-name="nine" horiz-adv-x="410" d="M367 555Q387 555 392 526V520Q392 503 351 374Q317 213 317 61Q317 -11 326 -76Q315 -105 295 -105Q257 -105 257 49V67Q257 144 270 261Q265 261 224 211Q146 139 101 139Q48 139 20 217V239Q20 350
189 486Q266 536 301 536L317 532H336Q336 551 367 555ZM80 249V226Q80 210 95 201H105Q181 201 305 439Q314 456 314 470V474H299Q222 474 105 314Q80 267 80 249Z" />
<glyph unicode=":" glyph-name="colon" horiz-adv-x="155" d="M86 221Q112 221 117 186Q117 165 86 155Q62 155 57 196Q70 221 86 221ZM89 109Q120 97 120 71Q120 50 92 46Q67 46 57 80Q68 109 89 109Z" />
<glyph unicode=";" glyph-name="semicolon" horiz-adv-x="171" d="M76 190Q107 183 107 159Q89 119 57 119Q31 119 30 150Q30 171 76 190ZM76 90Q134 90 142 6Q135 -88 111 -88L101 -91Q84 -91 74 -63Q82 -13 82 15Q82 33 57 34Q45 48 45 59Q52 90 76 90Z" />
<glyph unicode="&lt;" glyph-name="less" horiz-adv-x="317" d="M232 291Q249 291 264 270V260Q264 231 139 154L135 151V141Q142 141 272 35Q289 27 289 9T260 -21Q247 -21 116 89Q47 120 47 126Q41 126 41 145Q41 161 182 251Q220 289 232 291Z" />
<glyph unicode="=" glyph-name="equal" horiz-adv-x="377" d="M115 214L162 201L287 211Q321 205 321 176Q321 160 300 151L165 142Q96 142 84 186Q94 214 115 214ZM159 120L315 136Q329 131 334 120V107Q334 74 262 74Q234 65 162 57Q81 57 81 101Q81 114 100
126H106L140 120H159Z" />
<glyph unicode="&gt;" glyph-name="greater" horiz-adv-x="326" d="M87 319Q108 319 119 290L112 252Q136 214 275 162L290 140Q290 120 169 0Q132 -60 125 -60L112 -63Q84 -59 84 -38Q86 5 194 102Q209 120 209 127H206Q52 190 52 262Q60 319 87 319Z" />
<glyph unicode="?" glyph-name="question" horiz-adv-x="352" d="M221 714Q312 699 312 624Q312 522 181 376Q198 331 221 132Q231 122 231 107H234Q234 81 196 76Q156 76 140 314Q129 364 109 364Q87 386 87 405Q94 430 119 430L144 424Q252 536 252 630Q246
648 231 655H219Q154 655 96 526Q96 461 71 461L69 457H65Q37 457 37 505V507Q37 596 144 686Q181 714 221 714ZM246 -1Q290 -21 290 -55Q280 -80 259 -80Q212 -53 212 -31T246 -1Z" />
<glyph unicode="@" glyph-name="at" horiz-adv-x="589" d="M302 637H312Q462 637 521 437L527 369V362L521 297Q537 266 537 222Q537 79 371 -44Q313 -75 271 -75Q94 -75 46 169L44 225V241Q44 470 194 604Q252 637 302 637ZM102 247V231Q102 38 227 -9L269 -15Q390
-15 471 172L477 219H475Q436 204 420 204T371 229H369Q316 137 269 137H265Q201 137 190 229Q190 338 319 435Q346 450 375 450H384Q425 450 425 400L409 306V300Q415 262 425 262H431Q455 262 469 360Q469 519 359 569L325 579H290Q191 579 125 391Q102 325 102
247ZM256 266L250 241V212Q256 197 271 197Q350 267 350 381Q307 381 256 266Z" />
<glyph unicode="A" glyph-name="A" horiz-adv-x="472" d="M227 594L252 602Q286 602 286 512L317 281L321 277L436 319Q459 319 461 284Q461 258 334 221L330 219V215Q330 194 396 -4V-6Q396 -25 365 -38Q336 -38 327 31Q304 81 271 196H267Q136 169 136 150Q64
-6 27 -6Q6 -6 2 21Q2 45 55 115L71 150H46L27 146Q-10 155 -10 184Q5 219 34 219L59 209Q115 209 115 250Q166 370 227 594ZM236 412L177 234Q259 250 259 265Q244 412 236 412Z" />
<glyph unicode="B" glyph-name="B" horiz-adv-x="377" d="M147 609T194 609T250 537V534Q250 498 209 377L256 387Q342 387 356 277V262Q356 130 190 21Q136 0 112 0Q31 0 0 94Q2 105 25 125Q36 577 44 577Q61 594 75 594Q102 584 102 562H106Q147 609 194 609ZM96
287H100Q182 442 187 527V550H177Q156 550 121 437Q96 330 96 287ZM134 225L119 219L94 221V219L90 206V102L87 65L109 59Q194 59 277 187Q300 244 300 281Q300 327 256 327H252Q204 327 134 225Z" />
<glyph unicode="C" glyph-name="C" horiz-adv-x="500" d="M146 519Q214 519 225 421Q225 340 187 319H181Q152 321 152 340L156 415V452L150 459H140Q108 459 65 281L59 206V184Q59 80 152 62H194Q298 62 446 196H450Q477 196 481 162Q458 102 427 102Q284 0 170
0T9 125L0 196V209Q0 364 87 494Q115 519 146 519Z" />
<glyph unicode="D" glyph-name="D" horiz-adv-x="447" d="M115 584Q256 584 387 434Q427 355 427 281Q427 107 250 25Q193 0 127 0H102Q65 1 65 31H62Q62 58 96 59H119V65H121Q59 328 59 456H56L31 440Q5 440 0 475Q0 530 62 571Q87 584 115 584ZM127 525H119V477Q119
313 181 65H184Q369 115 369 281Q369 459 162 519Q150 525 127 525Z" />
<glyph unicode="E" glyph-name="E" horiz-adv-x="430" d="M319 577Q337 577 344 546Q344 528 281 496Q203 428 165 262V244Q252 287 290 296Q302 296 319 275V256Q319 245 231 212Q165 176 165 171V162Q165 106 237 65L271 59Q304 59 369 100H381Q402 90 402 71V65Q340
0 265 0Q158 0 109 144L46 131Q0 138 0 161T27 194L50 190Q102 205 102 212Q102 382 231 527Q296 577 319 577Z" />
<glyph unicode="F" glyph-name="F" horiz-adv-x="407" d="M321 626Q372 626 381 589Q381 574 352 557L319 566H315Q259 566 187 407Q177 368 177 332V291H181Q303 320 337 320Q381 312 381 285Q372 257 352 257L334 260Q232 251 184 229V222L196 60Q196 -55 150
-55Q134 -55 121 -30Q137 11 137 73T125 216L77 210Q12 216 12 251Q22 279 44 279L69 272H87L119 276V332Q119 487 256 604Q287 626 321 626Z" />
<glyph unicode="G" glyph-name="G" horiz-adv-x="480" d="M316 751Q332 751 345 720Q345 696 272 680Q180 629 130 502T79 251Q79 52 207 -5L239 -11Q346 -11 391 176L395 217Q395 297 341 351H335Q314 327 251 182L229 167Q201 167 197 201Q292 426 326 426H332Q454
355 454 217Q454 61 326 -43Q305 -61 241 -70Q120 -70 41 105Q20 180 20 242V257Q20 471 157 661Q246 751 316 751Z" />
<glyph unicode="H" glyph-name="H" horiz-adv-x="422" d="M99 557Q134 557 134 435L140 279H142L302 341Q326 545 346 545L359 547Q376 547 390 520Q355 348 355 222V179Q355 87 399 4Q389 -24 367 -24Q319 -24 296 170V272H290Q140 219 140 204Q140 -34 96 -34H92Q71
-34 65 1Q80 110 80 170L36 147L27 145Q2 154 2 176T80 245V247Q77 419 67 532Q67 554 99 557Z" />
<glyph unicode="I" glyph-name="I" horiz-adv-x="177" d="M66 554Q90 554 97 529L91 470V451Q116 244 122 129Q133 22 145 22Q145 1 110 -5Q60 -5 60 197L32 457V466Q32 554 66 554Z" />
<glyph unicode="J" glyph-name="J" horiz-adv-x="410" d="M312 637H329Q360 631 360 606Q360 599 341 577V527Q341 455 375 90Q375 -50 291 -50Q221 -50 85 146Q41 146 29 177L22 202Q31 240 56 240Q112 217 219 62Q272 9 291 9H297Q312 16 312 56V119L281 494L279
559Q279 637 312 637Z" />
<glyph unicode="K" glyph-name="K" horiz-adv-x="530" d="M129 647Q147 647 157 622Q114 508 114 325V216H116Q172 272 289 562Q319 600 335 600H339Q356 600 366 581V562Q338 545 229 279L147 156V154Q260 37 382 37H420Q457 37 470 44Q497 33 497 12V4Q497 -21
410 -21H395Q252 -21 122 97H116V-19Q116 -53 85 -53Q57 -53 57 -19V100Q20 128 20 160Q20 187 54 187V329Q54 523 104 637Q117 647 129 647Z" />
<glyph unicode="L" glyph-name="L" horiz-adv-x="315" d="M66 511Q90 511 97 436L101 382Q101 321 79 64H85V61L89 64H97L214 55H222L272 70H279Q295 60 301 42Q301 4 216 -5L114 5H95L47 -8Q20 2 20 24L41 367V382L35 482Q35 507 66 511Z" />
<glyph unicode="M" glyph-name="M" horiz-adv-x="435" d="M307 730H310Q335 717 335 701L310 511Q310 407 372 80L422 -45Q422 -58 401 -74H382Q362 -68 322 49Q296 143 270 339H264Q206 167 182 161L166 157Q145 157 114 239H107Q95 -8 60 -8H57Q25 -8 22 42Q47
138 47 242L20 507V526Q20 564 47 564Q86 564 116 411Q160 272 170 261Q193 297 216 389Q234 436 251 536L247 539L251 555V561Q260 730 307 730Z" />
<glyph unicode="N" glyph-name="N" horiz-adv-x="432" d="M95 552Q142 537 274 187L289 169V225Q289 448 399 540Q424 540 430 506Q355 394 355 325Q350 325 349 262V209Q349 140 364 12Q355 -13 332 -13T267 81Q216 162 155 327H151V321L157 194Q157 -3 82 -60L57
-63Q26 -63 5 -6Q12 25 36 25H42L61 9H64Q99 56 99 187T61 521Q61 548 95 552Z" />
<glyph unicode="O" glyph-name="O" horiz-adv-x="440" d="M146 541L171 545H181Q201 545 225 520Q269 520 350 410Q419 280 419 179Q419 41 319 -5L256 -18Q106 -18 40 207Q25 266 25 322V332Q25 501 146 541ZM137 445L115 454Q84 417 84 347V320Q84 135 209 51L237
45H275Q327 45 350 110L356 154V185Q356 335 237 454L196 466H194Q174 466 137 445Z" />
<glyph unicode="P" glyph-name="P" horiz-adv-x="455" d="M204 657H220Q383 657 429 539L432 507V497Q432 381 291 282Q257 272 257 260Q297 107 297 10V-3Q297 -43 264 -43Q239 -40 239 -18V7Q239 122 197 257Q116 264 107 301V307Q107 325 135 335L179 320V322Q145
470 145 522Q145 551 179 551Q210 551 210 445L239 326Q311 350 351 420Q372 460 372 491V504Q372 586 232 597H191Q54 582 54 532V526Q54 511 70 479Q70 457 35 451Q-5 470 -5 529Q-5 639 204 657Z" />
<glyph unicode="Q" glyph-name="Q" horiz-adv-x="580" d="M320 644Q465 644 524 369Q530 353 530 304V297Q530 192 464 56Q490 47 544 47T670 85Q691 85 699 50Q699 7 532 -13H530L417 4Q345 -53 280 -53Q144 -53 67 135Q42 209 42 291V306Q42 540 161 606L220
622L242 619Q280 644 320 644ZM195 366V335Q195 159 401 75Q470 171 470 300V306Q470 462 370 569Q339 585 324 585H314Q270 585 226 519Q195 451 195 366ZM101 310V279Q101 76 245 12Q257 6 280 6H286Q326 6 349 29V35Q136 137 136 350V366Q136 456 174 541H167Q101
480 101 310Z" />
<glyph unicode="R" glyph-name="R" horiz-adv-x="520" d="M190 569H194Q315 547 315 452V434Q315 329 181 225V221Q398 27 481 27Q496 16 496 0Q496 -23 462 -29Q379 -29 152 171L109 194H106Q134 82 134 21Q134 -5 102 -16Q56 -16 44 209Q12 313 12 375V384Q12
475 52 475L71 465H77Q125 569 190 569ZM109 302L106 265Q199 265 256 419V456Q256 500 196 509H190Q127 509 109 302Z" />
<glyph unicode="S" glyph-name="S" horiz-adv-x="455" d="M322 592H332Q360 592 364 559Q364 530 285 530Q158 482 114 390L107 361V355Q107 311 166 311L276 317Q387 317 426 209L432 174Q432 70 264 -16Q214 -30 176 -35Q74 -35 32 80Q20 119 20 159Q20 171
39 184H51Q82 184 82 105Q108 27 164 27H191Q272 27 351 121Q372 151 372 186Q372 235 295 255H291L160 252Q51 265 51 342L47 355Q47 458 201 555Q268 592 322 592Z" />
<glyph unicode="T" glyph-name="T" horiz-adv-x="425" d="M214 631L514 650Q527 650 539 625Q539 587 451 587L276 577L272 575Q297 412 297 -44Q292 -88 266 -88T235 -48V184Q235 416 214 571Q35 554 35 531L26 527Q-5 536 -5 559Q-5 614 214 631Z" />
<glyph unicode="U" glyph-name="U" horiz-adv-x="407" d="M247 594T291 594T335 431L322 284Q322 96 372 -6V-10Q372 -30 345 -35H341Q304 -33 276 106H272Q220 -50 139 -50T35 81L32 140V159L47 387V431Q47 451 70 462H79Q107 462 107 425V419L91 152V115Q91
35 129 9H147Q198 40 245 219L260 287L247 450Q247 594 291 594Z" />
<glyph unicode="V" glyph-name="V" horiz-adv-x="380" d="M422 597Q441 597 447 566Q447 548 385 519Q331 485 289 356Q239 147 239 -13Q222 -28 207 -28Q182 -28 160 72Q7 454 7 494Q7 514 39 519Q65 519 89 416L185 169H189Q195 169 207 269Q245 427 282 487Q365
597 422 597Z" />
<glyph unicode="W" glyph-name="W" horiz-adv-x="637" d="M255 716Q336 716 455 610Q617 422 617 221T420 -55L392 -59Q286 -59 226 95H224Q189 -30 130 -30H124Q46 -30 17 264V322Q19 426 76 441Q92 441 105 410Q76 370 76 316V307Q76 122 130 32Q170 61 189
270Q189 439 214 439L224 441Q257 441 257 376L251 266Q251 155 320 35Q354 1 389 1Q446 1 511 72Q557 133 557 226Q557 432 376 604Q329 642 232 666L224 685Q231 716 255 716Z" />
<glyph unicode="X" glyph-name="X" horiz-adv-x="477" d="M185 231Q252 514 372 652L391 656Q416 647 416 627V621Q289 463 229 144Q281 62 335 62H366L410 71H416Q432 64 432 46V40Q432 9 354 0Q290 0 222 62H216Q206 -49 195 -238Q178 -254 166 -254Q139 -244
139 -223Q140 -68 166 131Q100 238 20 494Q20 504 41 521H57Q74 521 166 252L182 231H185Z" />
<glyph unicode="Y" glyph-name="Y" horiz-adv-x="412" d="M166 652Q184 652 197 621Q157 511 157 415V381Q157 269 214 269Q287 269 314 525Q314 644 335 644L351 646Q372 646 376 612V275Q376 -40 270 -94Q250 -105 210 -113Q122 -113 10 -10L7 2Q7 25 41 31L120
-25Q166 -50 189 -50H216Q316 -50 316 259V271H307Q269 212 210 212Q137 212 107 306Q97 343 97 381V390Q113 652 166 652Z" />
<glyph unicode="Z" glyph-name="Z" horiz-adv-x="470" d="M135 464L345 470H366Q426 470 426 436Q406 344 257 174Q170 91 170 82Q322 -55 354 -58L401 -64Q438 -64 476 -49Q504 -59 504 -80Q504 -117 404 -124H391Q298 -124 147 30L116 49Q60 17 47 17Q25 17
20 49Q20 100 91 117L104 114Q234 219 320 342Q354 398 354 411H345L135 405L132 401H129Q70 401 70 432V436Q70 464 104 464H135Z" />
<glyph unicode="[" glyph-name="bracketleft" horiz-adv-x="345" d="M129 586L241 614Q254 614 270 592V582Q270 551 160 536Q126 511 126 326V245L116 82V67Q204 -11 289 -11Q304 -28 304 -39Q304 -63 270 -70Q210 -70 110 -1L89 -11Q60 -11 57 26V89L66 245V326Q66
547 129 586Z" />
<glyph unicode="\" glyph-name="backslash" horiz-adv-x="355" d="M335 574Q364 566 364 546Q345 497 229 259Q146 98 97 -29L76 -35Q47 -30 47 -8Q47 24 304 549Q311 574 335 574Z" />
<glyph unicode="]" glyph-name="bracketright" horiz-adv-x="292" d="M141 600Q178 576 251 556L260 535Q216 300 216 169V150L222 31Q222 5 60 -78Q39 -78 32 -44Q32 -27 160 44L157 179Q157 261 195 512H191Q107 545 107 572Q107 594 141 600Z" />
<glyph unicode="^" glyph-name="asciicircum" horiz-adv-x="634" d="M280 695L299 705Q335 705 449 464L492 374Q492 354 465 349H461Q434 349 361 511Q315 601 305 611Q195 389 167 382L155 380Q121 390 121 417Q121 431 155 449L280 695Z" />
<glyph unicode="_" glyph-name="underscore" horiz-adv-x="507" d="M150 54L436 66Q473 66 480 35Q480 4 332 4Q220 -5 140 -5Q37 2 37 32Q37 50 81 64L140 54H150Z" />
<glyph unicode="`" glyph-name="grave" horiz-adv-x="450" d="M310 424Q306 396 285 394Q237 407 226 421Q85 480 85 513Q85 519 89 524Q92 552 115 554Q161 541 284 454Q308 447 310 424Z" />
<glyph unicode="a" glyph-name="a" horiz-adv-x="292" d="M206 386Q250 386 250 351L241 332L235 149Q235 25 285 -5L287 -20Q284 -49 260 -49H254Q179 2 179 107H172Q132 -5 75 -5Q22 10 22 74Q22 215 135 355Q173 386 206 386ZM85 114L81 86V67H91Q166 254 166
295H162Q104 230 85 114Z" />
<glyph unicode="b" glyph-name="b" horiz-adv-x="315" d="M27 475Q79 475 94 271L100 240Q146 334 175 334Q175 338 196 340H200Q266 340 284 237V234Q284 146 196 40Q159 0 115 0Q65 11 65 50L15 409L0 446Q0 464 27 475ZM131 69H134Q186 90 225 212V250Q216
281 202 281H194Q150 255 131 69Z" />
<glyph unicode="c" glyph-name="c" horiz-adv-x="315" d="M121 339L162 345Q187 345 190 314Q190 287 125 279Q84 247 84 197V164Q104 54 152 54H162Q190 54 246 107H252Q272 107 284 79Q270 36 194 1Q180 -5 159 -5Q56 -5 25 157V179Q25 296 121 339Z" />
<glyph unicode="d" glyph-name="d" horiz-adv-x="320" d="M254 549Q271 549 285 517L241 239V161Q241 39 279 39Q304 27 304 7Q304 -16 264 -20Q220 -20 195 61H185Q148 -20 95 -20Q33 -20 20 74Q20 183 166 305Q195 305 195 386Q217 549 254 549ZM79 82V55L95
39H101Q133 39 176 232H170Q79 141 79 82Z" />
<glyph unicode="e" glyph-name="e" horiz-adv-x="315" d="M109 359Q149 358 244 219L246 202Q246 174 109 159L106 156V152Q127 62 150 62H162Q194 62 259 131H265Q285 131 296 102Q296 78 212 19Q190 6 159 0Q78 0 46 152Q0 159 0 190Q0 212 34 219V215L44 219V244Q44
359 109 359ZM115 287H106L102 250V219H106Q162 221 162 231Q136 270 115 287Z" />
<glyph unicode="f" glyph-name="f" horiz-adv-x="270" d="M175 450Q222 450 240 350V346Q240 323 209 319Q184 319 175 381L171 384H159Q137 352 137 300L140 250Q180 250 227 271Q246 271 262 244Q262 203 150 190L175 27Q175 6 140 0Q109 0 109 96L90 181L25
171Q4 171 0 202Q0 232 81 240L77 302Q93 450 175 450Z" />
<glyph unicode="g" glyph-name="g" horiz-adv-x="270" d="M180 384Q226 384 226 340Q232 340 232 325H236L232 296L236 94L230 -66Q320 -66 351 -198Q351 -225 314 -229Q297 -229 276 -154Q256 -125 230 -125H226Q194 -338 170 -338Q141 -391 86 -391Q5 -372 5
-310V-304Q5 -210 139 -100L170 -81L174 27V52H170Q136 9 105 9H99Q30 9 20 115V137Q20 265 114 359Q143 384 180 384ZM80 150V102Q84 69 95 69H105Q133 69 174 275V325Q114 325 80 150ZM64 -306Q68 -331 92 -331Q140 -331 161 -160H155Q64 -239 64 -306Z" />
<glyph unicode="h" glyph-name="h" horiz-adv-x="292" d="M61 552Q89 552 89 484L101 312H105L155 331Q239 331 257 159Q264 110 264 15V-66Q264 -104 236 -104H232Q205 -100 205 -75V19Q205 245 161 269H155Q125 269 111 177V121Q111 -29 86 -29L67 -31Q39 -31
39 52Q42 140 51 196L30 525Q30 551 61 552Z" />
<glyph unicode="i" glyph-name="i" horiz-adv-x="147" d="M31 521Q69 513 69 487Q59 459 37 459Q0 466 0 496Q10 521 31 521ZM69 381Q85 381 96 352L87 281V234Q87 152 115 19Q105 0 81 0Q40 0 27 240V275Q27 381 69 381Z" />
<glyph unicode="j" glyph-name="j" horiz-adv-x="147" d="M71 342Q102 332 102 296Q102 275 74 271H71Q42 271 40 309V315Q40 341 71 342ZM77 236Q91 236 109 209Q99 182 99 136L124 -116V-145Q124 -276 61 -310L40 -314Q-29 -314 -66 -176L-73 -123V-120Q-73
-85 -41 -85Q-14 -85 -14 -140T34 -251L42 -254Q65 -213 65 -158V-116L40 134Q40 236 77 236Z" />
<glyph unicode="k" glyph-name="k" horiz-adv-x="380" d="M70 529H76Q89 529 101 507L97 439V401L101 226L104 216H107Q150 256 182 357L204 364Q232 360 232 339Q232 274 139 164V157Q262 14 301 14H307L332 29H341Q362 29 372 1Q372 -31 301 -43Q230 -43 116
101H107L110 47V-5Q104 -36 79 -36Q51 -30 51 -5V1L47 116Q36 116 32 147L45 172L39 397V441Q39 529 70 529Z" />
<glyph unicode="l" glyph-name="l" horiz-adv-x="167" d="M76 551Q104 541 104 520L114 139V16Q114 -18 85 -18H72Q54 -6 54 10V126L45 522Q45 547 76 551Z" />
<glyph unicode="m" glyph-name="m" horiz-adv-x="442" d="M35 350Q42 375 67 375T100 325H104L150 335Q182 335 212 275H216Q260 344 306 344Q404 326 404 216L406 181L397 -21V-40Q397 -65 366 -69Q335 -69 335 4L347 185Q347 285 300 285Q273 285 235 154Q216
4 204 4Q187 4 187 -3Q156 1 156 29L169 150Q166 275 144 275H141Q116 256 116 200V147L112 -6Q105 -31 81 -31Q60 -31 54 4L50 122L56 219Q50 294 35 350Z" />
<glyph unicode="n" glyph-name="n" horiz-adv-x="277" d="M149 337Q234 330 234 254L236 241L234 85Q234 58 265 12V10Q257 -19 236 -19Q174 7 174 91V104L171 106L174 110V112L177 250Q177 279 152 279H140Q90 259 90 60Q90 -9 55 -9Q28 -9 27 25V125Q27 319
61 319L71 322L92 319Q119 337 149 337Z" />
<glyph unicode="o" glyph-name="o" horiz-adv-x="320" d="M179 377Q253 377 291 267L295 246Q295 139 195 27Q155 -10 114 -10Q54 -10 29 59Q20 91 20 115V127Q20 285 135 367Q155 377 179 377ZM79 117Q79 49 114 49Q187 49 235 236V255Q218 317 172 317Q154 317
154 292Q154 275 114 265Q79 206 79 117Z" />
<glyph unicode="p" glyph-name="p" horiz-adv-x="295" d="M142 297Q248 297 267 164Q267 46 157 -5Q145 -11 124 -11H117L95 -9V-11L99 -278Q92 -309 67 -309Q39 -300 39 -280L30 264Q30 290 61 291L82 282Q110 297 142 297ZM92 191L89 160L92 54L120 47Q187 47
207 145V160Q200 239 151 239H136Q92 239 92 191Z" />
<glyph unicode="q" glyph-name="q" horiz-adv-x="382" d="M199 346Q261 331 261 312Q239 190 239 69V6Q239 -147 267 -188Q311 -138 311 -48V-38Q311 9 280 25Q272 25 267 46Q276 75 301 75Q370 55 370 -56Q356 -220 274 -254H267Q180 -254 180 15V44H176Q132
-16 101 -16Q45 -16 30 77Q30 182 120 306Q157 346 199 346ZM95 131L89 81V59L101 46Q130 46 189 250L195 287H186Q142 265 95 131Z" />
<glyph unicode="r" glyph-name="r" horiz-adv-x="365" d="M151 394Q214 394 226 306V297Q226 200 126 119Q184 62 329 62Q351 55 351 31Q351 4 316 4Q218 4 110 54V25Q110 -78 66 -78Q35 -78 35 41V119L32 147L39 179L32 275V279Q32 306 60 316Q99 394 151 394ZM101
175Q130 175 166 279V322L154 335H145Q101 305 101 175Z" />
<glyph unicode="s" glyph-name="s" horiz-adv-x="307" d="M220 405Q247 405 257 314Q247 289 224 289Q208 292 192 326L174 332Q127 332 89 270V261Q89 246 230 211Q289 176 289 126Q289 44 157 -14L120 -20Q36 -11 36 64V67Q36 91 67 95Q91 95 99 45L107 39H124Q181
39 230 117V130Q230 160 99 186Q30 214 30 264Q30 329 139 386Q187 392 220 405Z" />
<glyph unicode="t" glyph-name="t" horiz-adv-x="355" d="M137 607Q165 601 165 579L159 535V522Q159 478 169 429H171Q287 464 315 464Q344 456 344 435Q344 401 275 401L171 364Q171 229 200 -3Q194 -30 171 -30H169Q134 -30 134 60Q121 127 112 351H94Q0 357
0 395Q0 406 21 422H31L77 410H109L100 535Q100 607 137 607Z" />
<glyph unicode="u" glyph-name="u" horiz-adv-x="327" d="M59 301L77 311Q101 311 112 282Q96 208 96 130Q96 91 119 45H125Q154 45 194 274Q208 286 221 286Q252 286 252 176Q265 55 281 55L296 61Q325 50 325 30Q307 -8 275 -8Q239 -8 206 64Q166 -20 125 -20Q64
-20 40 107L37 139V149Q37 229 59 301Z" />
<glyph unicode="v" glyph-name="v" horiz-adv-x="275" d="M34 337Q57 337 84 227Q122 139 127 134Q132 134 164 234T225 334Q252 324 252 302Q169 88 169 19L150 0H131Q95 26 9 275L0 312Q7 337 34 337Z" />
<glyph unicode="w" glyph-name="w" horiz-adv-x="400" d="M302 314Q371 268 371 172Q371 42 284 -5L246 -11Q212 -11 174 22H167Q136 -18 109 -18Q38 -18 27 116V170Q34 297 80 297Q105 297 109 266Q86 226 86 154V135Q90 45 105 45T136 97L134 166Q134 235 167
235Q205 235 205 160H209L199 97Q216 47 246 47H252Q296 47 309 141V197Q309 229 271 276L267 285Q267 306 302 314Z" />
<glyph unicode="x" glyph-name="x" horiz-adv-x="260" d="M154 289H156Q176 289 181 257Q156 156 156 101Q182 57 231 57Q244 45 244 32V20Q235 1 204 1Q176 3 150 24H141Q130 -83 112 -83H94Q72 -71 72 -55L91 95V99Q22 226 22 257Q22 281 56 282Q80 282 100
205L104 201H110Q120 289 154 289Z" />
<glyph unicode="y" glyph-name="y" horiz-adv-x="265" d="M51 300Q86 300 99 146Q116 75 124 75H130Q155 138 155 200L149 269Q160 296 180 296Q217 296 217 165Q239 29 239 -88V-135Q239 -350 117 -425L95 -429Q38 -429 -11 -323L-20 -263V-260Q-20 -194 17 -194L42
-210L39 -273Q39 -319 86 -366H99Q154 -366 180 -156L182 -98Q181 3 174 31Q134 -4 111 -4Q60 -4 20 269L17 271Q17 294 51 300Z" />
<glyph unicode="z" glyph-name="z" horiz-adv-x="312" d="M172 302Q191 302 200 274Q111 48 106 24L110 21H141Q189 21 272 65Q300 65 300 30Q244 -39 125 -39L79 -33Q56 -48 47 -48Q16 -48 16 9Q16 21 50 46L119 230V234H116L31 227Q-3 234 -3 261Q-3 286 25
286Q79 286 172 302Z" />
<glyph unicode="{" glyph-name="braceleft" horiz-adv-x="430" d="M344 726L371 732Q392 732 396 701Q396 679 346 661Q290 602 290 511Q296 439 336 439T377 405Q377 384 309 361Q272 339 265 326V324H269L281 326Q301 322 309 305V286Q231 132 231 1V-43Q231
-216 390 -286L396 -295V-314L377 -333H371Q277 -305 221 -218Q171 -127 171 -14T225 249V251H221L177 249Q150 260 150 280Q164 324 271 407Q231 460 231 520Q231 649 344 726Z" />
<glyph unicode="|" glyph-name="bar" horiz-adv-x="167" d="M76 551Q104 541 104 520L114 139V16Q114 -18 85 -18H72Q54 -6 54 10V126L45 522Q45 547 76 551Z" />
<glyph unicode="}" glyph-name="braceright" horiz-adv-x="394" d="M217 744Q272 728 292 587V581Q292 495 224 344Q317 316 317 287V277Q284 246 284 215V209Q284 162 330 -69L334 -110Q334 -219 236 -263L167 -275Q146 -268 146 -244Q146 -217 230 -204Q274
-178 274 -110Q274 -71 224 181V202L236 275V277Q155 300 155 334Q234 496 234 571V596Q234 649 184 702V712Q192 744 217 744Z" />
<glyph unicode="~" glyph-name="asciitilde" horiz-adv-x="634" d="M542 537Q540 528 520 534T479 547Q462 586 391 606L380 607Q362 607 314 537Q272 510 215 510Q117 510 54 579L49 599Q57 622 78 622T127 607L119 602V595Q114 566 204 540H219H220Q255 540
292 604Q329 636 384 636Q462 636 525 579Q530 553 542 537Z" />
<glyph unicode="&#xa0;" glyph-name="nbspace" horiz-adv-x="377" />
<glyph unicode="&#xa1;" glyph-name="exclamdown" horiz-adv-x="127" d="M57 43Q26 46 26 65Q32 268 41 300Q41 388 78 388Q98 388 108 370Q92 270 84 67Q84 50 57 43ZM129 552Q120 529 96 529T63 552Q74 573 94 573H98Q118 573 129 552Z" />
<glyph unicode="&#xa2;" glyph-name="cent" horiz-adv-x="315" d="M170 490Q178 478 186 399L227 404Q238 389 238 378T227 358T191 342Q200 243 205 117Q229 130 262 162H269Q287 162 300 134Q287 91 209 56Q208 55 206 55Q204 -25 179 -25H166Q151 36 149 52Q68
72 40 212V234Q40 351 137 394H140L139 461Q139 486 170 490ZM100 252V219Q115 132 147 114V181L142 334H140Q100 303 100 252Z" />
<glyph unicode="&#xa3;" glyph-name="sterling" horiz-adv-x="521" d="M248 464Q166 464 166 351Q166 316 174 271L270 277Q295 277 299 246Q299 215 205 215Q176 211 170 210L157 64H164L306 86L455 79H461Q476 69 484 51Q484 24 411 24Q375 24 320 31L192 5H174L126
-8Q99 3 99 24L110 205H82Q17 213 17 242Q17 262 45 274L82 265H89L114 266L124 439Q130 519 215 519Q230 519 247 517Q428 493 423 445Q421 429 401 411Q305 464 248 464Z" />
<glyph unicode="&#xa4;" glyph-name="currency" horiz-adv-x="579" d="M92 140Q64 188 64 240V252Q64 339 99 404Q60 455 15 506Q15 518 36 534H52Q66 534 137 457Q153 473 179 492L256 499Q261 500 271 500H289Q313 497 329 490Q345 505 399 567L417 571Q442
562 442 542V536Q416 504 370 451Q388 418 388 359T365 207L476 106L520 115H526Q542 108 542 90V84Q542 52 464 44Q389 99 315 156L305 150Q178 115 141 112L121 91Q59 26 49 26Q-14 39 82 119L92 140ZM120 249Q120 180 155 180Q157 180 159 180Q296 180 342 365V384Q325
446 280 446Q271 446 263 446Q195 446 195 424L155 396Q120 338 120 249Z" />
<glyph unicode="&#xa5;" glyph-name="yen" horiz-adv-x="437" d="M357 680Q376 680 382 649Q382 630 320 601Q253 451 230 395Q233 398 235 387L241 326L291 331Q325 325 325 296Q325 280 304 271L245 267Q245 256 246 249L319 256Q332 252 337 240V227Q337 194
266 194Q256 190 249 189Q252 132 252 92T251 25Q234 10 220 10Q202 10 189 179Q184 179 166 177Q85 177 85 221Q85 234 104 246H110L144 240H162L184 242L181 262H169Q101 262 87 306Q97 334 119 334L166 321H177Q176 348 176 356T176 367Q49 614 49 654Q49 675
80 679Q106 679 130 576L191 457H195Q200 457 249 568T357 680Z" />
<glyph unicode="&#xa6;" glyph-name="brokenbar" horiz-adv-x="155" d="M47 251H104L96 12Q89 -19 65 -19Q36 -8 36 12L47 251ZM111 291L49 287L47 375L37 537Q44 562 72 562Q104 562 104 435L106 381L111 291Z" />
<glyph unicode="&#xa7;" glyph-name="section" horiz-adv-x="349" d="M245 611Q272 611 282 520Q272 495 249 495Q233 500 217 532L199 539Q152 539 114 476V467Q114 452 255 417Q314 384 314 327T240 222L245 221Q304 186 304 136Q304 54 172 -4L135 -10Q51 -1
51 74V77Q51 101 82 105Q106 105 114 55L122 49H139Q196 49 245 127V140Q245 164 152 187L145 186Q101 190 79 214Q45 239 45 274Q45 335 140 389L124 392Q55 420 55 470Q55 535 164 592Q213 600 245 611ZM111 291L135 251L155 245Q200 250 237 299L207 336L189
342Q146 342 111 291Z" />
<glyph unicode="&#xa8;" glyph-name="dieresis" horiz-adv-x="344" d="M232 445Q211 446 204 479Q205 504 247 504Q270 488 270 475Q270 447 232 445ZM119 451Q96 451 95 481Q96 504 131 512Q159 500 157 479Q144 451 119 451Z" />
<glyph unicode="&#xa9;" glyph-name="copyright" horiz-adv-x="944" d="M434 519Q501 519 512 421Q512 340 475 319H469Q440 321 440 340L444 415V452L437 459H427Q395 459 352 281L346 206V184Q346 80 440 62H481Q585 62 734 196H737Q765 196 769 162Q746 102
715 102Q571 0 458 0T296 125L287 196V209Q287 364 375 494Q401 519 434 519ZM299 651L352 655H372Q417 655 469 621Q565 621 740 470Q890 292 890 152Q890 -35 672 -100L536 -118Q211 -118 67 192Q32 276 32 351V364Q32 596 299 651ZM235 565Q133 501 133 353Q133
323 137 290Q163 92 400 -35L539 -58Q690 -31 752 44L825 147Q736 571 334 571Q287 571 235 565Z" />
<glyph unicode="&#xaa;" glyph-name="ordfeminine" horiz-adv-x="216" d="M89 528Q118 545 144 545T171 526L165 515L160 416Q160 350 196 333L198 325Q196 310 178 310H174Q120 337 120 394H115Q87 333 46 333Q8 341 8 376Q8 452 89 528ZM53 398L50 382V372H57Q111
472 111 495H108Q66 459 53 398Z" />
<glyph unicode="&#xab;" glyph-name="guillemotleft" horiz-adv-x="474" d="M236 356Q252 356 267 334V325Q267 294 142 219L139 215V206Q146 206 276 100Q292 91 292 73T264 44Q250 44 120 152Q51 185 51 190Q45 190 45 209Q45 225 186 315Q225 354 236 356ZM391
365Q407 365 422 344V334Q422 304 297 227L295 225V215Q302 215 432 109Q447 102 447 83T420 52Q407 52 276 162Q207 194 207 200Q201 200 201 219Q201 235 341 325Q381 364 391 365Z" />
<glyph unicode="&#xac;" glyph-name="logicalnot" horiz-adv-x="590" d="M66 332Q71 361 94 361L187 355H202L526 372Q546 372 556 347L545 304V286L552 192Q544 115 507 115Q492 120 481 135V141L496 187V195L489 301V310L491 312H489V319Q243 300 216 300T187
300L137 304Q66 312 66 332Z" />
<glyph unicode="&#xad;" glyph-name="hyphen_" horiz-adv-x="419" d="M136 275L317 287Q342 287 346 256Q346 225 252 225Q183 215 130 215Q65 223 65 252Q65 272 92 284L130 275H136Z" />
<glyph unicode="&#xae;" glyph-name="registered" horiz-adv-x="952" d="M297 746L352 750H372Q418 750 467 716Q562 716 740 565Q889 386 889 247Q889 60 671 -5L536 -23Q211 -23 66 287Q32 368 32 446V459Q32 691 297 746ZM195 644Q109 582 109 409Q109 385
111 360Q124 186 327 105Q308 159 301 294Q274 377 274 430V437Q274 512 309 512L325 505H331Q371 590 429 590H432Q539 572 539 495V479Q539 391 421 306V304Q609 144 684 144Q697 135 697 120Q697 102 667 97Q594 97 396 262L359 280H355Q380 189 380 139Q380
120 359 94Q391 82 434 72L495 64H576Q690 64 749 135L774 204L782 247Q733 653 326 653Q265 653 195 644ZM359 371L355 340Q436 340 486 466V497Q486 534 435 541H429Q376 541 359 371Z" />
<glyph unicode="&#xaf;" glyph-name="overscore" horiz-adv-x="447" d="M156 625L337 637Q362 637 366 606Q366 575 272 575Q203 565 150 565Q85 573 85 602Q85 622 112 634L150 625H156Z" />
<glyph unicode="&#xb0;" glyph-name="degree" horiz-adv-x="305" d="M166 532Q230 532 261 477L264 466Q264 412 180 355Q146 336 105 336T40 371Q32 390 32 400V406Q32 486 130 527Q148 532 166 532ZM111 476Q82 445 82 406T111 366Q173 366 214 461V471Q201
502 161 502Q146 502 146 490Q146 481 111 476Z" />
<glyph unicode="&#xb1;" glyph-name="plusminus" horiz-adv-x="467" d="M270 85L392 129Q416 129 421 97Q421 66 285 29Q215 19 162 19Q97 27 97 56Q97 77 125 87L162 79H169L216 81Q206 106 195 166L182 185L122 169H107Q41 169 41 210Q41 222 60 235H66L101
229L114 232Q164 234 164 245V247Q145 323 145 360Q145 432 180 432Q194 432 207 407L205 370V354Q205 294 226 260Q326 295 352 295Q373 295 377 264Q377 238 296 224L245 204V201Q268 116 270 85Z" />
<glyph unicode="&#xb2;" glyph-name="twosuperior" horiz-adv-x="226" d="M115 540Q158 540 166 490Q166 443 77 309V307Q102 307 175 340H177Q188 340 194 326Q194 304 39 269Q30 269 24 282Q47 326 110 420Q131 466 131 484V498Q131 507 119 513H112Q90 513
70 469L71 464Q71 455 56 449Q35 454 35 467Q35 494 84 531Q98 540 115 540Z" />
<glyph unicode="&#xb3;" glyph-name="threesuperior" horiz-adv-x="217" d="M92 535Q125 535 133 500Q128 475 122 464V462Q155 462 173 423L174 407Q168 355 104 295Q75 278 61 278Q19 288 19 303Q22 309 30 314H40Q51 306 58 306H59Q100 306 141 395L143 407V410Q143
437 120 437Q94 437 84 418Q61 397 49 394Q44 394 33 406Q33 423 81 456Q102 486 102 502Q99 510 92 511Q70 511 45 462L33 460Q19 462 19 471Q44 535 92 535Z" />
<glyph unicode="&#xb4;" glyph-name="acute" horiz-adv-x="372" d="M35 541Q37 570 65 579Q228 657 266 657Q268 657 269 657Q294 656 297 620L290 592Q154 544 127 537Q116 520 64 504Q40 506 35 541Z" />
<glyph unicode="&#xb5;" glyph-name="mu" horiz-adv-x="327" d="M59 301L77 311Q101 311 112 282Q96 208 96 130Q96 91 119 45H125Q154 45 194 274Q208 286 221 286Q252 286 252 176Q265 55 281 55L296 61Q325 50 325 30Q307 -8 275 -8Q239 -8 206 64Q175 0 120
0Q102 0 82 7Q80 -101 50 -101Q40 -101 25 -86L37 139V149Q37 229 59 301Z" />
<glyph unicode="&#xb6;" glyph-name="paragraph" horiz-adv-x="485" d="M412 675Q427 675 427 596T407 316V52Q400 21 376 21Q347 32 347 52L366 592Q305 589 296 491Q262 331 262 179Q262 106 271 41Q260 12 240 12Q202 12 202 166V185Q202 261 215 379Q210 379
182 350T109 320Q55 320 27 399V420Q27 530 134 604Q212 654 312 672Q351 672 394 671Q401 675 412 675Z" />
<glyph unicode="&#xb7;" glyph-name="middot" horiz-adv-x="182" d="M104 331Q135 331 139 285Q130 239 91 239Q61 239 52 285Q68 331 104 331Z" />
<glyph unicode="&#xb8;" glyph-name="cedilla" horiz-adv-x="361" d="M111 21L167 17L139 -34V-41Q139 -56 242 -84Q286 -111 286 -154Q286 -220 190 -270L161 -275Q100 -268 100 -205V-203Q100 -183 122 -179Q142 -179 146 -221L152 -226H164Q206 -226 242 -161V-151Q242
-125 146 -104Q95 -80 95 -39Q95 14 111 21Z" />
<glyph unicode="&#xb9;" glyph-name="onesuperior" horiz-adv-x="155" d="M40 508T62 508T84 444L86 416L80 258Q76 242 57 242Q36 247 36 258L43 413L36 495Q40 508 62 508Z" />
<glyph unicode="&#xba;" glyph-name="ordmasculine" horiz-adv-x="205" d="M107 538Q160 538 186 479L189 468Q189 410 119 350Q90 330 62 330Q21 330 2 367Q-4 384 -4 397V403Q-4 490 77 533Q92 538 107 538ZM62 478Q37 447 37 404T62 361Q112 361 147 462V472Q135
506 102 506Q90 506 90 492Q90 482 62 478Z" />
<glyph unicode="&#xbb;" glyph-name="guillemotright" horiz-adv-x="521" d="M107 349Q133 311 270 257L286 236Q286 215 164 95Q126 36 120 36L107 32Q80 39 80 57Q81 100 189 199Q205 215 205 224H201Q70 294 70 326Q70 343 107 349ZM272 376Q298 338 435 286L451
264Q451 244 329 124Q291 64 285 64L272 61Q245 66 245 86Q247 127 354 226Q370 243 370 251H366Q236 322 236 354Q236 370 272 376Z" />
<glyph unicode="&#xbc;" glyph-name="onequarter" horiz-adv-x="600" d="M40 509T58 509T76 440L78 411L73 242Q69 226 54 226Q37 231 37 242L43 408L37 495Q40 509 58 509ZM321 605Q350 597 350 576Q333 528 233 326T84 1L63 -5Q34 0 34 24Q34 56 290 580Q299
605 321 605ZM434 356Q434 358 446 359T470 352V348Q470 344 459 339Q438 328 438 195V180H446Q481 180 523 201H525Q546 198 546 189Q530 171 496 164T445 157H441L445 25Q445 17 425 14Q408 14 404 27L400 159Q318 174 307 174H299Q293 172 282 160L269 156Q248
160 248 170Q248 173 277 205Q311 261 311 286V301Q311 305 297 321Q302 333 318 333Q354 324 354 292Q354 270 316 196L398 183V187Q398 356 434 356Z" />
<glyph unicode="&#xbd;" glyph-name="onehalf" horiz-adv-x="479" d="M36 495Q41 509 62 509T84 440L86 411L80 242Q76 226 57 226Q36 230 36 242L43 408L36 495ZM333 594Q362 586 362 565Q345 517 245 315T96 -10L75 -16Q46 -11 46 13Q46 45 302 569Q311 594
333 594ZM347 317Q396 317 403 259Q403 206 305 51V48Q329 48 413 86H414Q426 86 434 71Q434 45 264 4Q254 4 247 20Q270 66 341 179Q365 233 365 253V269Q365 280 352 286H344Q320 286 297 236L299 229Q299 219 282 213Q259 218 259 233Q259 264 313 307Q327 317
347 317Z" />
<glyph unicode="&#xbe;" glyph-name="threequarters" horiz-adv-x="665" d="M141 614Q182 614 191 568Q187 540 177 521V519Q218 519 239 469L241 448Q233 379 155 302Q120 281 104 281Q52 293 52 312Q55 321 66 326H78Q91 316 100 316H101Q151 316 201 432L203
448V451Q203 486 175 486T132 462Q105 435 89 430Q81 430 69 446Q69 468 127 511Q153 551 153 570Q148 579 141 582Q114 582 84 519L69 516Q52 519 52 530Q83 614 141 614ZM426 621Q455 613 455 592Q438 544 338 342T189 17L168 11Q139 16 139 40Q139 72 395 596Q404
621 426 621ZM550 470Q557 470 566 459V454Q566 446 557 442Q539 428 539 251V230H546Q575 230 612 259H614Q632 254 632 243Q619 218 582 207Q562 200 544 200H541L544 25Q544 15 527 10Q512 10 509 27L506 203Q436 222 425 222H418Q414 221 403 205L392 198Q374
204 374 217Q374 223 399 264Q428 342 428 372V391Q428 398 416 418Q420 433 434 433Q465 423 465 380Q465 350 432 252L504 235V240Q504 464 535 464Q535 467 550 470Z" />
<glyph unicode="&#xbf;" glyph-name="questiondown" horiz-adv-x="352" d="M205 25Q166 25 132 44Q31 106 31 167V169Q31 202 57 202H61L63 199Q87 199 87 154Q143 65 203 65H214Q229 71 234 82Q234 147 132 225L109 220Q86 220 78 238Q78 251 99 266Q118 266
128 300Q143 465 181 465Q217 460 217 443H214Q214 434 205 426Q184 291 167 258Q291 158 291 87Q291 36 205 25ZM229 518Q196 522 196 538T241 572Q259 572 270 555Q270 532 229 518Z" />
<glyph unicode="&#xc0;" glyph-name="Agrave" horiz-adv-x="472" d="M227 594L252 602Q286 602 286 512L317 281L321 277L436 319Q459 319 461 284Q461 258 334 221L330 219V215Q330 194 396 -4V-6Q396 -25 365 -38Q336 -38 327 31Q304 81 271 196H267Q136 169
136 150Q64 -6 27 -6Q6 -6 2 21Q2 45 55 115L71 150H46L27 146Q-10 155 -10 184Q5 219 34 219L59 209Q115 209 115 250Q166 370 227 594ZM236 412L177 234Q259 250 259 265Q244 412 236 412ZM350 704Q346 676 325 674Q277 687 266 701Q125 760 125 793Q125 799
129 804Q132 832 155 834Q201 821 324 734Q348 727 350 704Z" />
<glyph unicode="&#xc1;" glyph-name="Aacute" horiz-adv-x="472" d="M227 594L252 602Q286 602 286 512L317 281L321 277L436 319Q459 319 461 284Q461 258 334 221L330 219V215Q330 194 396 -4V-6Q396 -25 365 -38Q336 -38 327 31Q304 81 271 196H267Q136 169
136 150Q64 -6 27 -6Q6 -6 2 21Q2 45 55 115L71 150H46L27 146Q-10 155 -10 184Q5 219 34 219L59 209Q115 209 115 250Q166 370 227 594ZM236 412L177 234Q259 250 259 265Q244 412 236 412ZM87 687Q89 716 117 725Q280 803 318 803Q320 803 321 803Q346 802 349
766L342 738Q206 690 179 683Q168 666 116 650Q92 652 87 687Z" />
<glyph unicode="&#xc2;" glyph-name="Acircumflex" horiz-adv-x="472" d="M227 594L252 602Q286 602 286 512L317 281L321 277L436 319Q459 319 461 284Q461 258 334 221L330 219V215Q330 194 396 -4V-6Q396 -25 365 -38Q336 -38 327 31Q304 81 271 196H267Q136
169 136 150Q64 -6 27 -6Q6 -6 2 21Q2 45 55 115L71 150H46L27 146Q-10 155 -10 184Q5 219 34 219L59 209Q115 209 115 250Q166 370 227 594ZM236 412L177 234Q259 250 259 265Q244 412 236 412ZM224 787L240 794Q270 794 366 650L404 596Q404 584 380 581L354
579Q354 582 282 667Q262 716 249 716Q245 716 242 711Q154 606 146 585L119 600Q90 606 90 622Q90 630 119 641L224 787Z" />
<glyph unicode="&#xc3;" glyph-name="Atilde" horiz-adv-x="472" d="M227 594L252 602Q286 602 286 512L317 281L321 277L436 319Q459 319 461 284Q461 258 334 221L330 219V215Q330 194 396 -4V-6Q396 -25 365 -38Q336 -38 327 31Q304 81 271 196H267Q136 169
136 150Q64 -6 27 -6Q6 -6 2 21Q2 45 55 115L71 150H46L27 146Q-10 155 -10 184Q5 219 34 219L59 209Q115 209 115 250Q166 370 227 594ZM236 412L177 234Q259 250 259 265Q244 412 236 412ZM442 681Q441 674 433 674T394 696Q383 755 331 785L322 786Q309 786
273 681Q242 640 200 640Q199 640 198 640Q127 645 82 744L78 774Q84 808 102 808Q116 808 137 786L129 779V767Q128 725 193 685H203H204Q231 685 258 781Q286 830 326 830Q327 830 328 830Q384 827 429 744Q432 705 442 681Z" />
<glyph unicode="&#xc4;" glyph-name="Adieresis" horiz-adv-x="472" d="M227 594L252 602Q286 602 286 512L317 281L321 277L436 319Q459 319 461 284Q461 258 334 221L330 219V215Q330 194 396 -4V-6Q396 -25 365 -38Q336 -38 327 31Q304 81 271 196H267Q136
169 136 150Q64 -6 27 -6Q6 -6 2 21Q2 45 55 115L71 150H46L27 146Q-10 155 -10 184Q5 219 34 219L59 209Q115 209 115 250Q166 370 227 594ZM236 412L177 234Q259 250 259 265Q244 412 236 412ZM281 632Q260 633 253 666Q254 691 296 691Q319 675 319 662Q319
634 281 632ZM168 638Q145 638 144 668Q145 691 180 699Q208 687 206 666Q193 638 168 638Z" />
<glyph unicode="&#xc5;" glyph-name="Aring" horiz-adv-x="472" d="M262 774Q326 774 357 719L360 707Q360 654 276 596Q273 595 270 592Q286 575 286 512L317 281L321 277L436 319Q459 319 461 284Q461 258 334 221L330 219V215Q330 194 396 -4V-6Q396 -25 365
-38Q336 -38 327 31Q304 81 271 196H267Q136 169 136 150Q64 -6 27 -6Q6 -6 2 21Q2 45 55 115L71 150H46L27 146Q-10 155 -10 184Q5 219 34 219L59 209Q115 209 115 250Q166 374 222 577H207Q159 577 136 612Q129 629 129 641V647Q129 727 226 769Q246 774 262
774ZM179 642Q179 607 207 607Q269 607 310 702V712Q296 744 257 744Q242 744 242 731Q242 722 207 717Q179 688 179 642ZM236 412L177 234Q259 250 259 265Q244 412 236 412Z" />
<glyph unicode="&#xc6;" glyph-name="AE" horiz-adv-x="631" d="M517 629Q536 629 542 597Q542 579 480 547Q402 481 364 314V295Q451 338 489 347Q500 347 517 326V307Q517 296 456 274Q442 257 381 236Q364 225 364 222V214Q364 156 436 116L470 110Q503 110
567 151H580Q601 140 601 122V116Q539 51 464 51Q406 51 362 95Q368 76 396 -4V-6Q396 -25 365 -38Q336 -38 327 31Q303 81 272 187L245 182L225 186Q136 165 136 150Q64 -6 27 -6Q6 -6 2 21Q2 45 55 115L71 150H46L27 146Q-10 155 -10 184Q5 219 34 219L59 209Q115
209 115 250Q166 370 227 594L252 602Q286 602 286 512L309 345Q331 468 430 579Q495 629 517 629ZM236 412L177 234Q259 250 259 265Q244 412 236 412Z" />
<glyph unicode="&#xc7;" glyph-name="Ccedilla" horiz-adv-x="500" d="M146 519Q214 519 225 421Q225 340 187 319H181Q152 321 152 340L156 415V452L150 459H140Q108 459 65 281L59 206V184Q59 80 152 62H194Q298 62 446 196H450Q477 196 481 162Q458 102 427
102Q314 21 219 4L197 -34V-41Q197 -55 301 -84Q345 -111 345 -154Q345 -220 249 -270L220 -275Q159 -268 159 -205V-203Q159 -183 181 -179Q200 -179 205 -221L211 -226H222Q265 -226 301 -161V-151Q301 -125 205 -104Q154 -80 154 -39Q154 -18 156 0Q52 11 9
125L0 196V209Q0 364 87 494Q115 519 146 519Z" />
<glyph unicode="&#xc8;" glyph-name="Egrave" horiz-adv-x="430" d="M319 577Q337 577 344 546Q344 528 281 496Q203 428 165 262V244Q252 287 290 296Q302 296 319 275V256Q319 245 231 212Q165 176 165 171V162Q165 106 237 65L271 59Q304 59 369 100H381Q402
90 402 71V65Q340 0 265 0Q158 0 109 144L46 131Q0 138 0 161T27 194L50 190Q102 205 102 212Q102 382 231 527Q296 577 319 577ZM404 638Q400 610 379 608Q331 621 320 635Q179 694 179 727Q179 733 183 738Q186 766 209 768Q255 755 378 668Q402 661 404 638Z"
/>
<glyph unicode="&#xc9;" glyph-name="Eacute" horiz-adv-x="430" d="M319 577Q337 577 344 546Q344 528 281 496Q203 428 165 262V244Q252 287 290 296Q302 296 319 275V256Q319 245 231 212Q165 176 165 171V162Q165 106 237 65L271 59Q304 59 369 100H381Q402
90 402 71V65Q340 0 265 0Q158 0 109 144L46 131Q0 138 0 161T27 194L50 190Q102 205 102 212Q102 382 231 527Q296 577 319 577ZM171 655Q173 684 201 693Q364 771 402 771Q404 771 405 771Q430 770 433 734L426 706Q290 658 263 651Q252 634 200 618Q176 620
171 655Z" />
<glyph unicode="&#xca;" glyph-name="Ecircumflex" horiz-adv-x="430" d="M319 577Q337 577 344 546Q344 528 281 496Q203 428 165 262V244Q252 287 290 296Q302 296 319 275V256Q319 245 231 212Q165 176 165 171V162Q165 106 237 65L271 59Q304 59 369 100H381Q402
90 402 71V65Q340 0 265 0Q158 0 109 144L46 131Q0 138 0 161T27 194L50 190Q102 205 102 212Q102 382 231 527Q296 577 319 577ZM231 804L247 811Q277 811 373 667L411 613Q411 601 387 598L361 596Q361 598 289 684Q269 733 256 733Q252 733 249 728Q160 623
153 602L126 617Q97 623 97 639Q97 647 126 658L231 804Z" />
<glyph unicode="&#xcb;" glyph-name="Edieresis" horiz-adv-x="430" d="M319 577Q337 577 344 546Q344 528 281 496Q203 428 165 262V244Q252 287 290 296Q302 296 319 275V256Q319 245 231 212Q165 176 165 171V162Q165 106 237 65L271 59Q304 59 369 100H381Q402
90 402 71V65Q340 0 265 0Q158 0 109 144L46 131Q0 138 0 161T27 194L50 190Q102 205 102 212Q102 382 231 527Q296 577 319 577ZM263 624Q242 625 235 658Q236 683 278 683Q301 667 301 654Q301 626 263 624ZM150 630Q127 630 126 660Q127 683 162 691Q190 679
188 658Q175 630 150 630Z" />
<glyph unicode="&#xcc;" glyph-name="Igrave" horiz-adv-x="177" d="M66 554Q90 554 97 529L91 470V451Q116 244 122 129Q133 22 145 22Q145 1 110 -5Q60 -5 60 197L32 457V466Q32 554 66 554ZM270 595Q266 567 245 565Q197 578 186 592Q45 651 45 684Q45 690
49 695Q52 723 75 725Q121 712 244 625Q268 618 270 595Z" />
<glyph unicode="&#xcd;" glyph-name="Iacute" horiz-adv-x="177" d="M66 554Q90 554 97 529L91 470V451Q116 244 122 129Q133 22 145 22Q145 1 110 -5Q60 -5 60 197L32 457V466Q32 554 66 554ZM-59 693Q-57 722 -29 731Q134 809 172 809Q174 809 175 809Q200 808
203 772L196 744Q60 696 33 689Q22 672 -30 656Q-54 658 -59 693Z" />
<glyph unicode="&#xce;" glyph-name="Icircumflex" horiz-adv-x="177" d="M66 554Q90 554 97 529L91 470V451Q116 244 122 129Q133 22 145 22Q145 1 110 -5Q60 -5 60 197L32 457V466Q32 554 66 554ZM55 784L71 791Q101 791 197 647L235 593Q235 581 211 578L185
576Q185 578 113 664Q93 713 80 713Q76 713 73 708Q-16 603 -23 582L-50 597Q-79 603 -79 619Q-79 627 -50 638L55 784Z" />
<glyph unicode="&#xcf;" glyph-name="Idieresis" horiz-adv-x="177" d="M66 554Q90 554 97 529L91 470V451Q116 244 122 129Q133 22 145 22Q145 1 110 -5Q60 -5 60 197L32 457V466Q32 554 66 554ZM126 581Q105 582 98 615Q99 640 141 640Q164 624 164 611Q164
583 126 581ZM13 587Q-10 587 -11 617Q-10 640 25 648Q53 636 51 615Q38 587 13 587Z" />
<glyph unicode="&#xd0;" glyph-name="Eth" horiz-adv-x="459" d="M11 475Q11 530 74 571Q99 584 126 584Q268 584 399 434Q439 355 439 281Q439 107 261 25Q207 2 147 0L87 7Q76 15 76 31H74Q74 45 82 51Q75 142 71 267H52Q-41 274 -41 311Q-41 322 -20 339H-10L36
326H67L59 450L42 440Q16 440 11 475ZM139 525H130L120 474L117 451V439Q117 394 127 345H130Q246 380 274 380Q302 374 302 351Q302 317 234 317L130 280Q130 195 141 65H195Q380 115 380 281Q380 459 174 519Q161 525 139 525Z" />
<glyph unicode="&#xd1;" glyph-name="Ntilde" horiz-adv-x="432" d="M95 552Q142 537 274 187L289 169V225Q289 448 399 540Q424 540 430 506Q355 394 355 325Q350 325 349 262V209Q349 140 364 12Q355 -13 332 -13T267 81Q216 162 155 327H151V321L157 194Q157
-3 82 -60L57 -63Q26 -63 5 -6Q12 25 36 25H42L61 9H64Q99 56 99 187T61 521Q61 548 95 552ZM481 660Q480 653 472 653T433 675Q422 734 370 764L361 765Q348 765 312 660Q281 619 239 619Q238 619 237 619Q166 624 121 723L117 753Q123 787 141 787Q155 787 176
765L168 758V746Q167 704 232 664H242H243Q270 664 297 760Q325 809 365 809Q366 809 367 809Q423 806 468 723Q471 684 481 660Z" />
<glyph unicode="&#xd2;" glyph-name="Ograve" horiz-adv-x="440" d="M146 541L171 545H181Q201 545 225 520Q269 520 350 410Q419 280 419 179Q419 41 319 -5L256 -18Q106 -18 40 207Q25 266 25 322V332Q25 501 146 541ZM137 445L115 454Q84 417 84 347V320Q84
135 209 51L237 45H275Q327 45 350 110L356 154V185Q356 335 237 454L196 466H194Q174 466 137 445ZM324 660Q320 632 299 630Q251 643 240 657Q99 716 99 749Q99 755 103 760Q106 788 129 790Q175 777 298 690Q322 683 324 660Z" />
<glyph unicode="&#xd3;" glyph-name="Oacute" horiz-adv-x="440" d="M146 541L171 545H181Q201 545 225 520Q269 520 350 410Q419 280 419 179Q419 41 319 -5L256 -18Q106 -18 40 207Q25 266 25 322V332Q25 501 146 541ZM137 445L115 454Q84 417 84 347V320Q84
135 209 51L237 45H275Q327 45 350 110L356 154V185Q356 335 237 454L196 466H194Q174 466 137 445ZM-8 655Q-6 684 22 693Q185 771 223 771Q225 771 226 771Q251 770 254 734L247 706Q111 658 84 651Q74 634 21 618Q-3 620 -8 655Z" />
<glyph unicode="&#xd4;" glyph-name="Ocircumflex" horiz-adv-x="440" d="M146 541L171 545H181Q201 545 225 520Q269 520 350 410Q419 280 419 179Q419 41 319 -5L256 -18Q106 -18 40 207Q25 266 25 322V332Q25 501 146 541ZM137 445L115 454Q84 417 84 347V320Q84
135 209 51L237 45H275Q327 45 350 110L356 154V185Q356 335 237 454L196 466H194Q174 466 137 445ZM141 793L157 800Q187 800 283 656L321 602Q321 590 297 587L271 585Q271 588 199 673Q179 722 166 722Q162 722 159 717Q70 612 63 591L36 606Q7 612 7 628Q7
636 36 647L141 793Z" />
<glyph unicode="&#xd5;" glyph-name="Otilde" horiz-adv-x="440" d="M146 541L171 545H181Q201 545 225 520Q269 520 350 410Q419 280 419 179Q419 41 319 -5L256 -18Q106 -18 40 207Q25 266 25 322V332Q25 501 146 541ZM137 445L115 454Q84 417 84 347V320Q84
135 209 51L237 45H275Q327 45 350 110L356 154V185Q356 335 237 454L196 466H194Q174 466 137 445ZM359 643Q358 636 350 636T311 658Q300 717 248 747L239 748Q226 748 190 643Q159 602 117 602Q116 602 115 602Q44 607 -1 706L-5 736Q1 770 19 770Q33 770 54
748L46 741V729Q45 687 110 647H120H121Q148 647 175 743Q203 792 243 792Q244 792 245 792Q301 789 346 706Q349 667 359 643Z" />
<glyph unicode="&#xd6;" glyph-name="Odieresis" horiz-adv-x="440" d="M146 541L171 545H181Q201 545 225 520Q269 520 350 410Q419 280 419 179Q419 41 319 -5L256 -18Q106 -18 40 207Q25 266 25 322V332Q25 501 146 541ZM137 445L115 454Q84 417 84 347V320Q84
135 209 51L237 45H275Q327 45 350 110L356 154V185Q356 335 237 454L196 466H194Q174 466 137 445ZM222 567Q201 568 194 601Q195 626 237 626Q260 610 260 597Q260 569 222 567ZM109 573Q86 573 85 603Q86 626 121 634Q149 622 147 601Q134 573 109 573Z" />
<glyph unicode="&#xd7;" glyph-name="multiply" horiz-adv-x="260" d="M152 392H155Q176 392 180 361Q155 260 155 205Q181 161 230 161Q242 149 242 136V124Q235 105 202 105Q175 107 149 127H140Q130 21 111 21H92Q71 32 71 49L90 199V202Q21 331 21 361Q21
385 55 386Q79 386 99 309L102 305H109Q120 392 152 392Z" />
<glyph unicode="&#xd8;" glyph-name="Oslash" horiz-adv-x="440" d="M86 92Q25 207 25 322V332Q25 501 146 541L171 545H181Q201 545 225 520Q246 520 275 494L317 580Q326 605 349 605Q377 598 377 576Q366 548 320 447L350 410Q419 280 419 179Q419 41 319 -5L256
-18Q180 -18 126 39L111 1L90 -5Q61 0 61 24Q61 35 86 92ZM209 51L237 45H275Q327 45 350 110L356 154V185Q356 294 291 389L242 289Q191 187 152 100Q175 73 209 51ZM137 445L115 454Q84 417 84 347V320Q84 225 115 157Q159 255 250 440L237 454L196 466H194Q174
466 137 445Z" />
<glyph unicode="&#xd9;" glyph-name="Ugrave" horiz-adv-x="407" d="M247 594T291 594T335 431L322 284Q322 96 372 -6V-10Q372 -30 345 -35H341Q304 -33 276 106H272Q220 -50 139 -50T35 81L32 140V159L47 387V431Q47 451 70 462H79Q107 462 107 425V419L91 152V115Q91
35 129 9H147Q198 40 245 219L260 287L247 450Q247 594 291 594ZM296 729Q292 701 271 699Q223 712 212 726Q71 785 71 818Q71 824 75 829Q78 857 101 859Q147 846 270 759Q294 752 296 729Z" />
<glyph unicode="&#xda;" glyph-name="Uacute" horiz-adv-x="407" d="M247 594T291 594T335 431L322 284Q322 96 372 -6V-10Q372 -30 345 -35H341Q304 -33 276 106H272Q220 -50 139 -50T35 81L32 140V159L47 387V431Q47 451 70 462H79Q107 462 107 425V419L91 152V115Q91
35 129 9H147Q198 40 245 219L260 287L247 450Q247 594 291 594ZM24 625Q26 654 54 663Q217 741 255 741Q257 741 258 741Q283 740 286 704L279 676Q143 628 116 621Q106 604 53 588Q29 590 24 625Z" />
<glyph unicode="&#xdb;" glyph-name="Ucircumflex" horiz-adv-x="407" d="M247 594T291 594T335 431L322 284Q322 96 372 -6V-10Q372 -30 345 -35H341Q304 -33 276 106H272Q220 -50 139 -50T35 81L32 140V159L47 387V431Q47 451 70 462H79Q107 462 107 425V419L91
152V115Q91 35 129 9H147Q198 40 245 219L260 287L247 450Q247 594 291 594ZM169 831L185 838Q215 838 311 694L349 640Q349 628 325 625L299 623Q299 626 227 711Q207 760 194 760Q190 760 187 755Q98 650 91 629L64 644Q35 650 35 666Q35 674 64 685L169 831Z"
/>
<glyph unicode="&#xdc;" glyph-name="Udieresis" horiz-adv-x="407" d="M247 594T291 594T335 431L322 284Q322 96 372 -6V-10Q372 -30 345 -35H341Q304 -33 276 106H272Q220 -50 139 -50T35 81L32 140V159L47 387V431Q47 451 70 462H79Q107 462 107 425V419L91
152V115Q91 35 129 9H147Q198 40 245 219L260 287L247 450Q247 594 291 594ZM239 629Q218 630 211 663Q212 688 254 688Q277 672 277 659Q277 631 239 629ZM126 635Q103 635 102 665Q103 688 138 696Q166 684 164 663Q151 635 126 635Z" />
<glyph unicode="&#xdd;" glyph-name="Yacute" horiz-adv-x="412" d="M166 652Q184 652 197 621Q157 511 157 415V381Q157 269 214 269Q287 269 314 525Q314 644 335 644L351 646Q372 646 376 612V275Q376 -40 270 -94Q250 -105 210 -113Q122 -113 10 -10L7 2Q7
25 41 31L120 -25Q166 -50 189 -50H216Q316 -50 316 259V271H307Q269 212 210 212Q137 212 107 306Q97 343 97 381V390Q113 652 166 652ZM122 762Q124 791 152 800Q315 878 353 878Q355 878 356 878Q381 877 384 841L377 813Q241 765 214 758Q204 742 151 725Q127
727 122 762Z" />
<glyph unicode="&#xde;" glyph-name="Thorn" horiz-adv-x="315" d="M78 -8Q64 -8 46 14L52 540L37 577Q37 596 65 606Q100 606 100 481Q100 422 92 336Q140 430 167 430Q167 435 189 436H192Q260 436 276 334V330Q276 244 189 136Q152 96 107 96Q106 -8 78 -8ZM124
165H126Q180 186 217 309V346Q210 377 195 377H186Q143 351 124 165Z" />
<glyph unicode="&#xdf;" glyph-name="germandbls" horiz-adv-x="367" d="M119 60Q194 73 267 187Q290 244 290 281Q290 327 246 327H242Q194 327 124 225L110 320Q172 449 176 512Q171 532 163 532Q146 532 117 455L111 437Q86 330 80 102L55 -61Q39 -69 29 -69T16
-64T13 -36T34 111Q38 597 184 609Q231 609 240 537V534Q240 498 199 377L246 387Q332 387 346 277V262Q346 130 180 21Q173 18 166 18Q140 18 119 60Z" />
<glyph unicode="&#xe0;" glyph-name="agrave" horiz-adv-x="292" d="M206 386Q250 386 250 351L241 332L235 149Q235 25 285 -5L287 -20Q284 -49 260 -49H254Q179 2 179 107H172Q132 -5 75 -5Q22 10 22 74Q22 215 135 355Q173 386 206 386ZM85 114L81 86V67H91Q166
254 166 295H162Q104 230 85 114ZM340 424Q336 396 315 394Q267 407 256 421Q115 480 115 513Q115 519 119 524Q122 552 145 554Q191 541 314 454Q338 447 340 424Z" />
<glyph unicode="&#xe1;" glyph-name="aacute" horiz-adv-x="292" d="M206 386Q250 386 250 351L241 332L235 149Q235 25 285 -5L287 -20Q284 -49 260 -49H254Q179 2 179 107H172Q132 -5 75 -5Q22 10 22 74Q22 215 135 355Q173 386 206 386ZM85 114L81 86V67H91Q166
254 166 295H162Q104 230 85 114ZM35 498Q37 527 65 536Q228 614 266 614Q268 614 269 614Q294 613 297 577L290 549Q154 501 127 494Q116 478 64 461Q40 463 35 498Z" />
<glyph unicode="&#xe2;" glyph-name="acircumflex" horiz-adv-x="292" d="M206 386Q250 386 250 351L241 332L235 149Q235 25 285 -5L287 -20Q284 -49 260 -49H254Q179 2 179 107H172Q132 -5 75 -5Q22 10 22 74Q22 215 135 355Q173 386 206 386ZM85 114L81 86V67H91Q166
254 166 295H162Q104 230 85 114ZM125 631L141 638Q171 638 267 494L305 440Q305 428 281 425L255 423Q255 425 183 511Q163 560 150 560Q146 560 143 555Q54 450 47 429L20 444Q-9 450 -9 466Q-9 474 20 485L125 631Z" />
<glyph unicode="&#xe3;" glyph-name="atilde" horiz-adv-x="292" d="M206 386Q250 386 250 351L241 332L235 149Q235 25 285 -5L287 -20Q284 -49 260 -49H254Q179 2 179 107H172Q132 -5 75 -5Q22 10 22 74Q22 215 135 355Q173 386 206 386ZM85 114L81 86V67H91Q166
254 166 295H162Q104 230 85 114ZM342 452Q341 446 334 446T301 467Q290 526 247 554L239 555Q227 555 196 452Q171 412 135 412Q73 412 32 514L28 544Q34 577 49 577Q61 577 79 555L72 549V537Q71 497 127 456H136H137L160 479Q172 503 184 551Q207 599 242 599Q291
599 331 514Q334 480 342 452Z" />
<glyph unicode="&#xe4;" glyph-name="adieresis" horiz-adv-x="292" d="M206 386Q250 386 250 351L241 332L235 149Q235 25 285 -5L287 -20Q284 -49 260 -49H254Q179 2 179 107H172Q132 -5 75 -5Q22 10 22 74Q22 215 135 355Q173 386 206 386ZM85 114L81 86V67H91Q166
254 166 295H162Q104 230 85 114ZM197 445Q176 446 169 479Q170 504 212 504Q235 488 235 475Q235 447 197 445ZM84 451Q61 451 60 481Q61 504 96 512Q124 500 122 479Q109 451 84 451Z" />
<glyph unicode="&#xe5;" glyph-name="aring" horiz-adv-x="292" d="M224 566Q275 566 299 507L301 495Q301 439 237 379Q250 370 250 351L241 332L235 149Q235 25 285 -5L287 -20Q284 -49 260 -49H254Q179 2 179 107H172Q132 -5 75 -5Q22 10 22 74Q22 215 135
355L147 365Q132 374 125 392T117 425V431Q117 516 195 561Q210 566 224 566ZM180 506Q157 474 157 432T180 389Q229 389 261 490V500Q251 534 220 534Q207 534 207 520Q207 510 180 506ZM85 114L81 86V67H91Q166 254 166 295H162Q104 230 85 114Z" />
<glyph unicode="&#xe6;" glyph-name="ae" horiz-adv-x="509" d="M284 346Q325 344 419 206L421 190Q421 161 284 146L281 144V140Q302 50 325 50H337Q370 50 434 119H440Q460 119 471 90Q471 64 387 6Q365 -6 334 -13Q275 -13 242 65Q256 11 285 -5L287 -20Q284
-49 260 -49H254Q179 2 179 107H172Q132 -5 75 -5Q22 10 22 74Q22 215 135 355Q173 386 206 386Q250 386 250 351L241 332V326Q256 346 284 346ZM85 114L81 86V67H91Q166 254 166 295H162Q104 230 85 114ZM290 275H281L277 237V206H281Q337 209 337 219Q311 257
290 275Z" />
<glyph unicode="&#xe7;" glyph-name="ccedilla" horiz-adv-x="315" d="M121 339L162 345Q187 345 190 314Q190 287 125 279Q84 247 84 197V164Q104 54 152 54H162Q190 54 246 107H252Q272 107 284 79Q270 36 194 1Q180 -4 161 -5L145 -34V-41Q145 -55 249 -84Q292
-111 292 -154Q292 -220 196 -270L167 -275Q106 -268 106 -205V-203Q106 -184 129 -179Q148 -179 152 -221L159 -226H170Q211 -226 249 -161V-151Q249 -125 152 -104Q101 -80 101 -39Q101 -8 106 7Q48 42 25 157V179Q25 296 121 339Z" />
<glyph unicode="&#xe8;" glyph-name="egrave" horiz-adv-x="315" d="M109 359Q149 358 244 219L246 202Q246 174 109 159L106 156V152Q127 62 150 62H162Q194 62 259 131H265Q285 131 296 102Q296 78 212 19Q190 6 159 0Q78 0 46 152Q0 159 0 190Q0 212 34 219V215L44
219V244Q44 359 109 359ZM115 287H106L102 250V219H106Q162 221 162 231Q136 270 115 287ZM185 459Q182 438 172 437Q145 448 140 457Q65 499 65 523Q65 527 67 531Q68 550 81 552Q105 544 171 480Q185 475 185 459Z" />
<glyph unicode="&#xe9;" glyph-name="eacute" horiz-adv-x="315" d="M109 359Q149 358 244 219L246 202Q246 174 109 159L106 156V152Q127 62 150 62H162Q194 62 259 131H265Q285 131 296 102Q296 78 212 19Q190 6 159 0Q78 0 46 152Q0 159 0 190Q0 212 34 219V215L44
219V244Q44 359 109 359ZM115 287H106L102 250V219H106Q162 221 162 231Q136 270 115 287ZM45 449Q47 473 66 480Q176 541 203 541Q224 541 225 512L220 490Q115 448 108 446Q101 434 65 420Q48 422 45 449Z" />
<glyph unicode="&#xea;" glyph-name="ecircumflex" horiz-adv-x="315" d="M109 359Q149 358 244 219L246 202Q246 174 109 159L106 156V152Q127 62 150 62H162Q194 62 259 131H265Q285 131 296 102Q296 78 212 19Q190 6 159 0Q78 0 46 152Q0 159 0 190Q0 212 34
219V215L44 219V244Q44 359 109 359ZM115 287H106L102 250V219H106Q162 221 162 231Q136 270 115 287ZM99 549L113 554Q139 554 222 459L255 424Q255 416 234 414L211 412Q211 414 149 470Q132 502 121 502Q118 502 115 499Q38 430 32 416L8 426Q-17 430 -17 441Q-17
446 8 453L99 549Z" />
<glyph unicode="&#xeb;" glyph-name="edieresis" horiz-adv-x="315" d="M109 359Q149 358 244 219L246 202Q246 174 109 159L106 156V152Q127 62 150 62H162Q194 62 259 131H265Q285 131 296 102Q296 78 212 19Q190 6 159 0Q78 0 46 152Q0 159 0 190Q0 212 34
219V215L44 219V244Q44 359 109 359ZM115 287H106L102 250V219H106Q162 221 162 231Q136 270 115 287ZM173 389Q152 390 145 423Q146 448 188 448Q211 432 211 419Q211 391 173 389ZM60 395Q37 395 36 425Q37 448 72 456Q100 444 98 423Q85 395 60 395Z" />
<glyph unicode="&#xec;" glyph-name="igrave" horiz-adv-x="147" d="M69 381Q85 381 96 352L87 281V234Q87 152 115 19Q105 0 81 0Q40 0 27 240V275Q27 381 69 381ZM164 452Q160 432 146 431Q111 442 104 450Q3 492 3 514Q3 518 6 521Q9 541 25 542Q58 534 145
472Q162 467 164 452Z" />
<glyph unicode="&#xed;" glyph-name="iacute" horiz-adv-x="147" d="M69 381Q85 381 96 352L87 281V234Q87 152 115 19Q105 0 81 0Q40 0 27 240V275Q27 381 69 381ZM-3 485Q-3 509 17 517Q133 586 159 586Q176 586 181 554L175 529L61 481Q55 466 17 451Q0 454 -3 485Z" />
<glyph unicode="&#xee;" glyph-name="icircumflex" horiz-adv-x="147" d="M69 381Q85 381 96 352L87 281V234Q87 152 115 19Q105 0 81 0Q40 0 27 240V275Q27 381 69 381ZM56 564L67 567Q86 567 154 466L180 427Q180 418 164 417L145 415Q145 418 96 479Q81 513
74 513Q71 513 69 509Q6 434 2 420L-16 430Q-36 435 -36 446Q-36 451 -16 460L56 564Z" />
<glyph unicode="&#xef;" glyph-name="idieresis" horiz-adv-x="147" d="M69 381Q85 381 96 352L87 281V234Q87 152 115 19Q105 0 81 0Q40 0 27 240V275Q27 381 69 381ZM122 445Q101 446 94 479Q95 504 137 504Q160 488 160 475Q160 447 122 445ZM9 451Q-14 451
-15 481Q-14 504 21 512Q49 500 47 479Q34 451 9 451Z" />
<glyph unicode="&#xf0;" glyph-name="eth" horiz-adv-x="414" d="M210 346L259 342Q253 362 249 372L205 429Q205 447 235 456Q247 456 269 440Q306 397 326 337L391 332H397Q405 312 405 298Q405 267 365 267Q354 267 340 269Q342 239 342 221V186Q322 9 209
9L157 14Q35 76 35 161V167Q35 235 137 247Q208 247 269 184H279V216Q279 244 274 277Q181 277 181 311Q186 346 210 346ZM251 86V90Q215 197 137 197Q97 196 97 167V160Q130 59 199 59H205Q234 59 251 86Z" />
<glyph unicode="&#xf1;" glyph-name="ntilde" horiz-adv-x="277" d="M149 337Q234 330 234 254L236 241L234 85Q234 58 265 12V10Q257 -19 236 -19Q174 7 174 91V104L171 106L174 110V112L177 250Q177 279 152 279H140Q90 259 90 60Q90 -9 55 -9Q28 -9 27 25V125Q27
319 61 319L71 322L92 319Q119 337 149 337ZM337 433Q336 426 328 426T289 448Q278 507 226 537L217 538Q204 538 168 433Q137 392 95 392Q94 392 93 392Q22 397 -23 496L-27 526Q-21 560 -3 560Q11 560 32 538L24 531V519Q23 477 88 437H98H99Q126 437 153 533Q181
582 221 582Q222 582 223 582Q279 579 324 496Q327 457 337 433Z" />
<glyph unicode="&#xf2;" glyph-name="ograve" horiz-adv-x="320" d="M179 377Q253 377 291 267L295 246Q295 139 195 27Q155 -10 114 -10Q54 -10 29 59Q20 91 20 115V127Q20 285 135 367Q155 377 179 377ZM79 117Q79 49 114 49Q187 49 235 236V255Q218 317 172
317Q154 317 154 292Q154 275 114 265Q79 206 79 117ZM276 445Q272 417 251 415Q203 428 192 442Q51 501 51 534Q51 540 55 545Q58 573 81 575Q127 562 250 475Q274 468 276 445Z" />
<glyph unicode="&#xf3;" glyph-name="oacute" horiz-adv-x="320" d="M179 377Q253 377 291 267L295 246Q295 139 195 27Q155 -10 114 -10Q54 -10 29 59Q20 91 20 115V127Q20 285 135 367Q155 377 179 377ZM79 117Q79 49 114 49Q187 49 235 236V255Q218 317 172
317Q154 317 154 292Q154 275 114 265Q79 206 79 117ZM9 502Q11 531 39 540Q202 618 240 618Q242 618 243 618Q268 617 271 581L264 553Q128 505 101 498Q90 482 38 465Q14 467 9 502Z" />
<glyph unicode="&#xf4;" glyph-name="ocircumflex" horiz-adv-x="320" d="M179 377Q253 377 291 267L295 246Q295 139 195 27Q155 -10 114 -10Q54 -10 29 59Q20 91 20 115V127Q20 285 135 367Q155 377 179 377ZM79 117Q79 49 114 49Q187 49 235 236V255Q218 317
172 317Q154 317 154 292Q154 275 114 265Q79 206 79 117ZM139 627L155 634Q185 634 281 490L319 436Q319 424 295 421L269 419Q269 422 197 507Q177 556 164 556Q160 556 157 551Q68 446 61 425L34 440Q5 446 5 462Q5 470 34 481L139 627Z" />
<glyph unicode="&#xf5;" glyph-name="otilde" horiz-adv-x="320" d="M179 377Q253 377 291 267L295 246Q295 139 195 27Q155 -10 114 -10Q54 -10 29 59Q20 91 20 115V127Q20 285 135 367Q155 377 179 377ZM79 117Q79 49 114 49Q187 49 235 236V255Q218 317 172
317Q154 317 154 292Q154 275 114 265Q79 206 79 117ZM372 468Q371 462 363 462T325 481Q315 533 263 560L254 561Q240 561 206 468Q176 432 134 432Q63 432 18 524L14 550Q20 581 37 581Q51 581 72 561L64 555V544Q63 507 127 471H137H138Q163 471 191 556Q217
600 258 600Q259 600 260 600Q316 597 359 524Q362 489 372 468Z" />
<glyph unicode="&#xf6;" glyph-name="odieresis" horiz-adv-x="320" d="M179 377Q253 377 291 267L295 246Q295 139 195 27Q155 -10 114 -10Q54 -10 29 59Q20 91 20 115V127Q20 285 135 367Q155 377 179 377ZM79 117Q79 49 114 49Q187 49 235 236V255Q218 317
172 317Q154 317 154 292Q154 275 114 265Q79 206 79 117ZM211 445Q190 446 183 479Q184 504 226 504Q249 488 249 475Q249 447 211 445ZM98 451Q75 451 74 481Q75 504 110 512Q138 500 136 479Q123 451 98 451Z" />
<glyph unicode="&#xf7;" glyph-name="divide" horiz-adv-x="304" d="M137 315Q164 315 169 280Q169 260 137 249Q112 249 109 290Q122 315 137 315ZM141 109Q172 97 172 74T145 46Q120 46 110 80Q121 109 141 109ZM82 219L264 231Q288 231 292 200Q292 169 199
169Q129 159 76 159Q11 167 11 196Q11 217 39 227L76 219H82Z" />
<glyph unicode="&#xf8;" glyph-name="oslash" horiz-adv-x="320" d="M286 501Q315 493 315 472Q308 452 254 339Q276 313 291 267L295 246Q295 139 195 27Q155 -10 114 -10Q98 -10 89 -6Q64 -62 49 -103L27 -109Q-1 -105 -1 -80Q-1 -65 42 30Q36 39 28 65T20 115V127Q20
285 135 367Q155 377 173 377T205 374Q238 440 255 476Q264 501 286 501ZM112 49H114Q187 49 235 236V255L226 280L112 49ZM79 117V110Q111 182 177 317H172Q154 317 154 292Q154 275 114 265Q79 206 79 117Z" />
<glyph unicode="&#xf9;" glyph-name="ugrave" horiz-adv-x="327" d="M59 301L77 311Q101 311 112 282Q96 208 96 130Q96 91 119 45H125Q154 45 194 274Q208 286 221 286Q252 286 252 176Q265 55 281 55L296 61Q325 50 325 30Q307 -8 275 -8Q239 -8 206 64Q166
-20 125 -20Q64 -20 40 107L37 139V149Q37 229 59 301ZM253 406Q249 378 230 376Q187 389 178 403Q52 461 52 494Q52 500 56 505Q59 533 79 535Q118 523 230 435Q252 428 253 406Z" />
<glyph unicode="&#xfa;" glyph-name="uacute" horiz-adv-x="327" d="M59 301L77 311Q101 311 112 282Q96 208 96 130Q96 91 119 45H125Q154 45 194 274Q208 286 221 286Q252 286 252 176Q265 55 281 55L296 61Q325 50 325 30Q307 -8 275 -8Q239 -8 206 64Q166
-20 125 -20Q64 -20 40 107L37 139V149Q37 229 59 301ZM85 404Q86 426 105 433Q214 494 239 494Q257 494 259 465L254 443Q156 404 146 401Q139 389 104 375Q88 376 85 404Z" />
<glyph unicode="&#xfb;" glyph-name="ucircumflex" horiz-adv-x="327" d="M59 301L77 311Q101 311 112 282Q96 208 96 130Q96 91 119 45H125Q154 45 194 274Q208 286 221 286Q252 286 252 176Q265 55 281 55L296 61Q325 50 325 30Q307 -8 275 -8Q239 -8 206 64Q166
-20 125 -20Q64 -20 40 107L37 139V149Q37 229 59 301ZM150 473L163 477Q186 477 261 393L290 362Q290 354 272 353L251 352Q251 353 195 403Q179 432 169 432Q166 432 131 399T89 355L68 364Q46 368 46 377Q46 382 68 388L150 473Z" />
<glyph unicode="&#xfc;" glyph-name="udieresis" horiz-adv-x="327" d="M59 301L77 311Q101 311 112 282Q96 208 96 130Q96 91 119 45H125Q154 45 194 274Q208 286 221 286Q252 286 252 176Q265 55 281 55L296 61Q325 50 325 30Q307 -8 275 -8Q239 -8 206 64Q166
-20 125 -20Q64 -20 40 107L37 139V149Q37 229 59 301ZM214 359Q193 360 186 393Q187 418 229 418Q252 402 252 389Q252 361 214 359ZM101 365Q78 365 77 395Q78 418 113 426Q141 414 139 393Q126 365 101 365Z" />
<glyph unicode="&#xfd;" glyph-name="yacute" horiz-adv-x="265" d="M51 300Q86 300 99 146Q116 75 124 75H130Q155 138 155 200L149 269Q160 296 180 296Q217 296 217 165Q239 29 239 -88V-135Q239 -350 117 -425L95 -429Q38 -429 -11 -323L-20 -263V-260Q-20
-194 17 -194L42 -210L39 -273Q39 -319 86 -366H99Q154 -366 180 -156L182 -98Q181 3 174 31Q134 -4 111 -4Q60 -4 20 269L17 271Q17 294 51 300ZM52 432Q54 452 71 459Q173 515 200 515Q218 515 220 488L215 468Q123 433 111 429Q105 415 71 405Q57 406 52 432Z"
/>
<glyph unicode="&#xfe;" glyph-name="thorn" horiz-adv-x="262" d="M116 385Q221 385 241 251Q241 135 131 82Q119 76 97 76H91L69 79V76L71 25Q64 -6 40 -6Q11 2 11 22V455Q22 487 33 487T56 461V370Q84 385 116 385ZM66 279L62 247L66 141L94 135Q162 135 181
232V247Q174 326 125 326H110Q66 326 66 279Z" />
<glyph unicode="&#xff;" glyph-name="ydieresis" horiz-adv-x="265" d="M51 300Q86 300 99 146Q116 75 124 75H130Q155 138 155 200L149 269Q160 296 180 296Q217 296 217 165Q239 29 239 -88V-135Q239 -350 117 -425L95 -429Q38 -429 -11 -323L-20 -263V-260Q-20
-194 17 -194L42 -210L39 -273Q39 -319 86 -366H99Q154 -366 180 -156L182 -98Q181 3 174 31Q134 -4 111 -4Q60 -4 20 269L17 271Q17 294 51 300ZM174 355Q153 356 146 389Q147 414 189 414Q212 398 212 385Q212 357 174 355ZM61 361Q38 361 37 391Q38 414 73 422Q101
410 99 389Q86 361 61 361Z" />
<glyph unicode="&#x2013;" glyph-name="endash" horiz-adv-x="419" d="M136 275L317 287Q342 287 346 256Q346 225 252 225Q183 215 130 215Q65 223 65 252Q65 272 92 284L130 275H136Z" />
<glyph unicode="&#x2014;" glyph-name="emdash" horiz-adv-x="539" d="M136 275L459 289Q482 289 487 257Q487 226 394 226Q169 215 130 215Q65 223 65 252Q65 272 92 284L130 275H136Z" />
<glyph unicode="&#x2018;" glyph-name="quoteleft" horiz-adv-x="144" d="M64 592Q95 592 104 517V511Q104 477 73 477T41 542Q34 542 32 565Q42 592 64 592Z" />
<glyph unicode="&#x2019;" glyph-name="quoteright" horiz-adv-x="144" d="M64 592Q95 592 104 517V511Q104 477 73 477T41 542Q34 542 32 565Q42 592 64 592Z" />
<glyph unicode="&#x201a;" glyph-name="quotesinglbase" horiz-adv-x="144" d="M61 132Q92 132 101 57V51Q101 17 70 17T39 82Q32 82 30 105Q40 132 61 132Z" />
<glyph unicode="&#x201c;" glyph-name="quotedblleft" horiz-adv-x="234" d="M101 605H104Q124 605 135 576Q135 565 95 524Q82 494 82 470V449Q82 433 101 392Q101 371 70 361Q32 361 22 457V461Q22 556 101 605ZM182 551H185Q206 551 210 520Q210 505 170 480L164
455V449L172 411Q172 393 141 380Q104 392 104 451Q104 522 182 551Z" />
<glyph unicode="&#x201d;" glyph-name="quotedblright" horiz-adv-x="234" d="M101 605H104Q124 605 135 576Q135 565 95 524Q82 494 82 470V449Q82 433 101 392Q101 371 70 361Q32 361 22 457V461Q22 556 101 605ZM182 551H185Q206 551 210 520Q210 505 170 480L164
455V449L172 411Q172 393 141 380Q104 392 104 451Q104 522 182 551Z" />
<glyph unicode="&#x201e;" glyph-name="quotedblbase" horiz-adv-x="234" d="M111 221H115Q134 221 146 194Q146 184 105 140Q92 110 92 87V65Q92 48 111 9Q111 -11 80 -23Q45 -23 34 75V77Q34 171 111 221ZM192 169H196Q216 169 221 137Q221 125 180 96L174 71V65L184
27Q184 10 152 -4Q115 9 115 69Q115 140 192 169Z" />
<glyph unicode="&#x2022;" glyph-name="bullet" horiz-adv-x="262" d="M145 331Q200 331 207 249Q191 167 121 167Q67 167 52 249Q80 331 145 331Z" />
<glyph unicode="&#x2039;" glyph-name="guilsinglleft" horiz-adv-x="317" d="M230 347Q246 347 261 325V316Q261 285 136 210L132 206V197Q140 197 270 91Q286 82 286 64T257 35Q244 35 114 144Q45 176 45 181Q39 181 39 200Q39 216 180 306Q219 346 230 347Z" />
<glyph unicode="&#x203a;" glyph-name="guilsinglright" horiz-adv-x="326" d="M107 349Q133 311 270 257L286 236Q286 215 164 95Q126 36 120 36L107 32Q80 39 80 57Q81 100 189 199Q205 215 205 224H201Q70 294 70 326Q70 343 107 349Z" />
</font>
</defs>
</svg>
