<?xml version="1.0" standalone="no"?>
<!DOCTYPE svg PUBLIC "-//W3C//DTD SVG 1.1//EN" "http://www.w3.org/Graphics/SVG/1.1/DTD/svg11.dtd">
<svg xmlns="http://www.w3.org/2000/svg">
<defs >
<font id="MerriweatherSans" horiz-adv-x="1169" ><font-face
    font-family="Merriweather Sans"
    units-per-em="2048"
    panose-1="0 0 5 0 0 0 0 0 0 0"
    ascent="2014"
    descent="-560"
    alphabetic="0" />
<glyph unicode=" " glyph-name="space" horiz-adv-x="485" />
<glyph unicode="!" glyph-name="exclam" horiz-adv-x="686" d="M627 1778L404 488H246L402 1778H627ZM368 250T398 221T428 146Q428 132 427 125Q418 59 368 19T250 -22Q199 -22 165 7T130 86Q130 130 155 168T222 228T308 250Q368 250 398 221Z" />
<glyph unicode="&quot;" glyph-name="quotedbl" horiz-adv-x="1003" d="M528 1687L364 966H224L301 1687H528ZM1007 1687L843 966H703L780 1687H1007Z" />
<glyph unicode="#" glyph-name="numbersign" horiz-adv-x="1405" d="M111 365L119 493H345L409 898H189L197 1025H429L482 1357H647L596 1025H907L963 1357H1128L1074 1025H1306L1298 898H1054L989 493H1216L1208 365H969L912 0H752L803 365H491L429 0H267L325
365H111ZM887 898H576L511 493H823L887 898Z" />
<glyph unicode="$" glyph-name="dollar" horiz-adv-x="1204" d="M1002 1523T1091 1460L1028 1309Q985 1353 908 1373T761 1394Q649 1394 568 1349T481 1188Q478 1109 500 1055T572 954T715 844Q808 781 872 724T978 589T1021 412Q1021 289 968 198T819 53T598
-17L563 -230H383L417 -19Q322 -10 241 16T129 68L184 228Q203 207 254 185T371 147T497 132Q582 132 654 157T770 236T815 373Q815 460 767 533T598 686Q504 748 437 809T327 955T283 1146Q283 1258 332 1342T469 1477T673 1541L703 1729H884L853 1539Q1002 1523
1091 1460Z" />
<glyph unicode="%" glyph-name="percent" horiz-adv-x="1911" d="M1502 1530L555 0H396L1343 1530H1502ZM201 1161T255 1259T404 1419T614 1480Q756 1480 823 1401T891 1185Q891 1074 840 973T694 808T479 745Q390 745 328 785T233 895T201 1055Q201 1161 255
1259ZM721 1261T686 1309T586 1358Q515 1358 465 1310T388 1192T362 1057Q362 971 400 920T508 868Q577 868 625 918T697 1041T721 1177Q721 1261 686 1309ZM1592 799T1659 720T1727 504Q1727 393 1676 292T1530 127T1315 64Q1226 64 1164 104T1069 214T1037 374Q1037
480 1091 578T1240 738T1450 799Q1592 799 1659 720ZM1413 187T1461 237T1533 360T1557 496Q1557 580 1522 628T1422 677Q1351 677 1301 629T1224 511T1198 376Q1198 290 1236 239T1344 187Q1413 187 1461 237Z" />
<glyph unicode="&amp;" glyph-name="ampersand" horiz-adv-x="1534" d="M1430 684H1278Q1290 639 1290 586Q1290 453 1251 346T1137 161Q1188 134 1246 123T1380 114H1406L1385 -6Q1320 -20 1236 -20Q1176 -20 1107 -1T985 53Q840 -17 641 -17Q494 -17 371 22T171
147T94 368Q94 460 137 534T252 664T424 778Q385 863 360 956T335 1128Q335 1247 388 1342T535 1492T749 1546Q859 1546 940 1499T1063 1380T1105 1237Q1105 1121 1045 1034T898 888T669 751L644 737Q730 590 819 471T1009 259Q1109 370 1109 542Q1109 614 1087
682Q1021 677 987 661L997 795Q1012 810 1051 820T1152 830L1439 829L1430 684ZM515 990T576 860Q686 919 757 967T874 1077T919 1216Q919 1305 873 1359T742 1413Q673 1413 622 1375T543 1272T515 1134Q515 990 576 860ZM298 282T349 227T482 147T657 123Q773
123 862 160Q776 243 713 321T606 467T494 650Q400 588 349 522T298 372Q298 282 349 227Z" />
<glyph unicode="&apos;" glyph-name="quotesingle" horiz-adv-x="524" d="M528 1687L364 966H224L301 1687H528Z" />
<glyph unicode="(" glyph-name="parenleft" horiz-adv-x="854" d="M253 985T373 1204T625 1563T827 1741L914 1682Q858 1646 760 1524T567 1207T431 773Q411 622 411 512Q411 311 456 149T562 -114T668 -255L560 -319H543Q487 -281 409 -180T267 97T203 505Q203
609 218 724Q253 985 373 1204Z" />
<glyph unicode=")" glyph-name="parenright" horiz-adv-x="854" d="M622 443T502 224T250 -135T48 -313L-39 -254Q17 -218 115 -96T308 221T444 655Q464 806 464 916Q464 1117 419 1279T313 1542T207 1683L315 1747H332Q388 1709 466 1608T608 1331T672 923Q672
820 657 704Q622 443 502 224Z" />
<glyph unicode="*" glyph-name="asterisk" horiz-adv-x="1366" d="M510 1102L652 1150L520 1197L265 1318L380 1484L598 1314L698 1219L685 1361L687 1653H879L820 1361L777 1219L897 1314L1154 1485L1231 1318L952 1197L810 1149L942 1102L1197 982L1082 816L863
986L762 1084L778 939L779 647L582 648L641 939L683 1084L565 986L308 815L231 982L510 1102Z" />
<glyph unicode="+" glyph-name="plus" horiz-adv-x="1366" d="M607 700L466 693H241L259 851H485L623 840L636 1005L663 1235H841L815 1005L786 841L901 851H1156L1138 693H883L771 700Q770 652 765 602L761 536L733 295H554L581 536L607 700Z" />
<glyph unicode="," glyph-name="comma" horiz-adv-x="526" d="M76 137L182 265Q286 226 329 140T373 -41Q373 -150 334 -242T224 -401T61 -501L-12 -412L-9 -391Q68 -353 116 -277T165 -108Q165 -40 139 15T69 83L76 137Z" />
<glyph unicode="-" glyph-name="hyphen" horiz-adv-x="1266" d="M1073 851L1055 693H218L236 851H1073Z" />
<glyph unicode="." glyph-name="period" horiz-adv-x="526" d="M306 250T335 218T365 138Q365 64 323 21T208 -22Q158 -22 124 9T89 90Q89 132 108 168T164 227T246 250Q306 250 335 218Z" />
<glyph unicode="/" glyph-name="slash" horiz-adv-x="854" d="M768 1597H942L79 -362H-93L768 1597Z" />
<glyph unicode="0" glyph-name="zero" horiz-adv-x="1278" d="M882 1156T978 1097T1120 933T1165 691Q1165 504 1083 342T858 82T539 -16Q393 -16 295 48T150 217T103 450Q103 647 189 808T420 1063T734 1156Q882 1156 978 1097ZM699 124T786 204T915 409T958
671Q958 837 899 927T709 1017Q566 1017 477 930T349 716T310 466Q310 371 339 294T427 170T571 124Q699 124 786 204Z" />
<glyph unicode="1" glyph-name="one" horiz-adv-x="930" d="M320 854T198 833L176 960Q272 981 384 1039T592 1162L676 1142L516 0H315L437 892Q320 854 198 833Z" />
<glyph unicode="2" glyph-name="two" horiz-adv-x="1249" d="M266 230T439 347T717 584T822 805Q822 905 771 953T615 1001Q460 1001 278 850L205 964Q250 1012 320 1057T481 1132T671 1162Q795 1162 879 1116T1003 994T1043 826Q1043 631 852 462T346 134L1065
173L1038 0H95L62 130Q266 230 439 347Z" />
<glyph unicode="3" glyph-name="three" horiz-adv-x="1104" d="M321 -174T437 -135T624 -21T696 159Q696 382 418 385L276 351L293 522Q718 609 718 842Q718 904 670 940T544 976Q453 976 379 943T222 850L160 998Q198 1035 265 1072T423 1136T614 1162Q703 1162
777 1132T896 1038T941 881Q941 794 889 715T753 575T573 482Q684 482 764 440T886 329T927 176Q927 29 822 -86T549 -264T203 -327Q135 -327 43 -315L59 -164Q141 -174 189 -174Q321 -174 437 -135Z" />
<glyph unicode="4" glyph-name="four" horiz-adv-x="1264" d="M769 1256L911 1167L315 230L236 131L691 148L749 614L942 649L879 159L1130 174L1109 0H859L812 -375H623L672 0H56L20 94Q199 365 363 637T722 1256H769Z" />
<glyph unicode="5" glyph-name="five" horiz-adv-x="1116" d="M302 -196T433 -155T645 -32T725 170Q725 297 664 361T487 426Q431 426 357 412T225 373L152 448L313 1146H860L882 1162H1050L1012 977H466L350 551Q398 564 463 572T578 580Q773 580 864 481T956
208Q956 49 853 -77T572 -275T175 -346Q94 -346 45 -329L68 -189Q111 -196 147 -196Q302 -196 433 -155Z" />
<glyph unicode="6" glyph-name="six" horiz-adv-x="1263" d="M1046 1456Q898 1402 773 1313T558 1109T420 869Q554 989 761 989Q882 989 960 936T1074 796T1110 605Q1110 453 1045 310T854 76T558 -16Q426 -16 333 52T192 237T145 493Q145 745 255 966T561 1345T1002
1571L1046 1456ZM708 122T777 194T878 371T911 576Q911 708 856 772T713 836Q584 836 503 791T369 687Q354 621 348 574T342 474Q342 322 405 222T604 122Q708 122 777 194Z" />
<glyph unicode="7" glyph-name="seven" horiz-adv-x="1096" d="M102 984L136 1146H1028L1060 1103L457 -320L279 -254L834 988L102 984Z" />
<glyph unicode="8" glyph-name="eight" horiz-adv-x="1270" d="M397 896T347 975T297 1161Q297 1289 357 1381T523 1521T764 1569Q872 1569 959 1529T1097 1414T1148 1240Q1148 1142 1101 1052T975 897T811 803Q937 715 1010 619T1084 407Q1084 278 1014 182T824
35T557 -16Q449 -16 350 26T187 151T123 352Q123 455 173 546T306 708T490 821Q397 896 347 975ZM951 1293T923 1341T847 1415T742 1440Q673 1440 617 1408T530 1319T498 1197Q498 1101 552 1027T709 879Q816 927 883 1019T951 1225Q951 1293 923 1341ZM670 120T733
152T832 241T868 369Q868 476 799 566T593 748Q483 694 411 595T335 377Q335 302 367 244T457 153T592 120Q670 120 733 152Z" />
<glyph unicode="9" glyph-name="nine" horiz-adv-x="1263" d="M707 148T518 148Q387 148 302 202T178 346T139 542Q139 694 204 837T395 1071T691 1163Q823 1163 916 1095T1057 910T1104 654Q1104 402 994 180T688 -201T247 -428L203 -313Q351 -259 476 -169T691
37T829 278Q707 148 518 148ZM684 301T757 349T880 460Q895 526 901 573T907 673Q907 825 844 925T645 1025Q541 1025 472 953T371 776T338 571Q338 434 401 368T566 301Q684 301 757 349Z" />
<glyph unicode=":" glyph-name="colon" horiz-adv-x="526" d="M541 250T570 218T600 138Q600 64 558 21T443 -22Q393 -22 359 9T324 90Q324 132 343 168T399 227T481 250Q541 250 570 218ZM378 1059T407 1027T437 947Q437 873 395 830T280 787Q230 787 196 818T161
899Q161 941 180 977T236 1036T318 1059Q378 1059 407 1027Z" />
<glyph unicode=";" glyph-name="semicolon" horiz-adv-x="526" d="M76 137L182 265Q286 226 329 140T373 -41Q373 -150 334 -242T224 -401T61 -501L-12 -412L-9 -391Q68 -353 116 -277T165 -108Q165 -40 139 15T69 83L76 137ZM381 1059T410 1027T440 947Q440 873
398 830T283 787Q233 787 199 818T164 899Q164 941 183 977T239 1036T321 1059Q381 1059 410 1027Z" />
<glyph unicode="&lt;" glyph-name="less" horiz-adv-x="1368" d="M1220 1324L1196 1130L420 741L1105 353L1085 176L195 686L211 814L1220 1324Z" />
<glyph unicode="=" glyph-name="equal" horiz-adv-x="1063" d="M999 1005L981 848H166L184 1005H999ZM929 496L911 339H96L114 496H929Z" />
<glyph unicode="&gt;" glyph-name="greater" horiz-adv-x="1368" d="M250 179L274 373L1050 762L365 1150L385 1327L1275 817L1259 689L250 179Z" />
<glyph unicode="?" glyph-name="question" horiz-adv-x="1020" d="M269 778T338 848T558 1000Q663 1054 731 1107T812 1221Q821 1258 821 1317Q821 1413 773 1481T648 1584T487 1619Q423 1619 376 1612T270 1586L298 1726Q319 1748 380 1763T501 1779Q675 1779
787 1718T951 1560T1002 1348Q1002 1222 954 1136T839 1000T667 892Q595 853 554 825T486 760T459 673Q459 646 467 617T490 552Q501 522 503 513L376 463L359 464Q322 496 296 560T269 692Q269 778 338 848ZM551 250T580 218T610 138Q610 64 568 21T453 -22Q403
-22 369 9T334 90Q334 132 353 168T409 227T491 250Q551 250 580 218Z" />
<glyph unicode="@" glyph-name="at" horiz-adv-x="1968" d="M1395 1545T1549 1465T1786 1236T1869 889Q1869 625 1775 425T1539 118T1257 11Q1215 11 1196 38T1172 106T1167 225Q1167 256 1170 290T1175 332L1179 371Q1108 204 1013 106T811 7Q741 7 678 52T574
189T533 417Q533 575 592 731T774 989T1073 1092Q1124 1092 1189 1078T1293 1038L1458 1068Q1429 954 1396 753T1349 400Q1343 339 1343 283L1344 213Q1344 185 1358 185Q1440 185 1524 286T1662 544T1716 859Q1716 1164 1561 1289T1147 1414Q887 1414 688 1269T381
889T273 398Q273 155 360 -1T591 -229T913 -301Q999 -301 1118 -277T1291 -227L1324 -324Q1254 -377 1140 -408T898 -440Q672 -440 496 -344T221 -63T121 374Q121 727 262 992T646 1401T1185 1545Q1395 1545 1549 1465ZM907 160T996 289T1157 595T1245 892Q1222
927 1168 947T1065 967Q957 967 877 888T755 688T712 447Q712 160 842 160Q907 160 996 289Z" />
<glyph unicode="A" glyph-name="A" horiz-adv-x="1265" d="M911 396H317L135 0H-76L670 1530H889L1175 0H977L911 396ZM885 547L770 1236L757 1352L387 547H885Z" />
<glyph unicode="B" glyph-name="B" horiz-adv-x="1240" d="M920 791T987 750T1093 641T1134 490Q1138 230 956 108T457 -14Q427 -14 384 -11T324 -7Q247 0 202 0H110L303 1530H390Q438 1530 534 1538Q636 1546 692 1546Q938 1546 1040 1451T1142 1208Q1142 1055
1061 953T838 802Q920 791 987 750ZM944 1299T875 1353T646 1408Q614 1408 565 1406T484 1398L417 864Q461 862 489 862L587 863Q687 863 768 900T896 1011T944 1187Q944 1299 875 1353ZM923 127T923 458Q923 592 841 657T603 723Q494 723 398 716L326 146Q353
137 407 132T500 127Q923 127 923 458Z" />
<glyph unicode="C" glyph-name="C" horiz-adv-x="1141" d="M904 1546T961 1534T1088 1497L1142 1479L1072 1315Q1068 1317 1037 1335T945 1366T810 1380Q633 1380 521 1268T359 992T309 665Q309 516 345 398T457 211T646 142Q728 142 802 161T928 205T1005 250L1035
84Q988 48 886 16T610 -16Q429 -16 317 80T156 327T107 652Q107 914 200 1117T456 1433T817 1546Q904 1546 961 1534Z" />
<glyph unicode="D" glyph-name="D" horiz-adv-x="1377" d="M1298 640T1200 429T925 98T522 -16Q458 -14 409 -9Q367 -5 309 -3T211 0H110L303 1530H397Q441 1530 553 1538Q671 1546 721 1546Q1020 1546 1159 1374T1298 898Q1298 640 1200 429ZM738 140T857 250T1035
530T1093 887Q1093 1080 1050 1191T913 1351T662 1400Q622 1400 567 1394T482 1381L329 163Q374 148 438 140T564 134Q738 140 857 250Z" />
<glyph unicode="E" glyph-name="E" horiz-adv-x="1138" d="M1070 1530L1063 1373L482 1381L415 854L853 861L841 695L398 710L326 149L1026 165L1012 0H110L303 1530H1070Z" />
<glyph unicode="F" glyph-name="F" horiz-adv-x="1057" d="M1093 1530L1079 1373L482 1381L416 854L886 862L874 694L398 710L308 0H110L303 1530H1093Z" />
<glyph unicode="G" glyph-name="G" horiz-adv-x="1340" d="M802 729H1229L1147 94Q1121 91 1091 84T1010 61L983 53Q880 21 793 3T608 -16Q440 -16 329 76T165 314T109 627Q104 895 200 1104T467 1430T845 1546Q966 1546 1050 1530T1206 1490L1244 1479L1182 1300Q1139
1333 1050 1359T842 1386Q661 1386 541 1275T366 997T310 664Q310 526 342 408T448 215T644 139Q714 139 801 158T969 213L1014 570H782L802 729Z" />
<glyph unicode="H" glyph-name="H" horiz-adv-x="1410" d="M1352 1530L1159 0H961L1049 694H396L308 0H110L303 1530H501L414 844H1067L1154 1530H1352Z" />
<glyph unicode="I" glyph-name="I" horiz-adv-x="580" d="M518 1530L325 0H127L320 1530H518Z" />
<glyph unicode="J" glyph-name="J" horiz-adv-x="582" d="M517 1530Q462 1021 404 583T323 75Q282 -55 215 -135T62 -255T-135 -315L-170 -227Q-93 -202 -30 -154T74 -43T131 86Q174 281 207 536T281 1179Q310 1453 319 1530H517Z" />
<glyph unicode="K" glyph-name="K" horiz-adv-x="1245" d="M744 763T803 661T915 462Q928 438 945 408T983 340Q1107 120 1187 0H949Q928 29 793 287Q788 295 765 339Q627 599 566 707L370 489L308 0H110L303 1530H501L404 758L1075 1530H1307L692 847Q744 763 803 661Z" />
<glyph unicode="L" glyph-name="L" horiz-adv-x="978" d="M501 1530L329 165L899 170L877 0H110L303 1530H501Z" />
<glyph unicode="M" glyph-name="M" horiz-adv-x="1791" d="M682 1530L843 470L858 301L908 470L1335 1530H1622L1586 0H1385L1435 1020L1459 1403L1323 1068L886 -3L746 -18L585 1043L549 1402L486 1033L248 0H48L428 1530H682Z" />
<glyph unicode="N" glyph-name="N" horiz-adv-x="1400" d="M509 1530L949 468L1012 261L1031 510L1154 1530H1342L1149 0H956L501 1075L448 1307L421 1009L295 0H110L303 1530H509Z" />
<glyph unicode="O" glyph-name="O" horiz-adv-x="1378" d="M108 891T200 1099T453 1426T814 1546Q974 1546 1084 1460T1250 1227T1305 898Q1305 644 1216 435T965 105T599 -16Q439 -16 329 70T163 304T108 635Q108 891 200 1099ZM1095 1146T1018 1267T782 1389Q645
1389 537 1285T369 1010T314 648Q319 383 396 260T631 136Q769 136 877 238T1043 512T1099 883Q1095 1146 1018 1267Z" />
<glyph unicode="P" glyph-name="P" horiz-adv-x="1180" d="M419 1530Q465 1530 559 1538Q657 1546 714 1546Q938 1546 1054 1446T1171 1141Q1171 953 1093 812T876 596T557 520Q433 520 375 530L308 0H110L303 1530H419ZM765 676T865 793T970 1139Q975 1398 682
1398Q642 1398 583 1392T481 1377L395 690Q421 685 467 681T552 676Q765 676 865 793Z" />
<glyph unicode="Q" glyph-name="Q" horiz-adv-x="1378" d="M723 -80T766 -117T872 -165T1024 -176Q1063 -176 1120 -169T1217 -148V-302Q1181 -327 1089 -343T908 -360Q817 -360 742 -327T621 -228T575 -67Q575 -43 578 -16Q424 -10 318 78T160 312T108 635Q108
891 200 1099T453 1426T814 1546Q974 1546 1084 1460T1250 1227T1305 898Q1305 670 1232 477T1026 157T719 -4Q723 -80 766 -117ZM319 383T396 260T631 136Q769 136 877 238T1043 512T1099 883Q1095 1146 1018 1267T782 1389Q645 1389 537 1285T369 1010T314 648Q319
383 396 260Z" />
<glyph unicode="R" glyph-name="R" horiz-adv-x="1270" d="M863 641T904 563T966 418Q1050 215 1091 126T1160 -1L933 1Q886 75 804 306Q756 462 706 554T592 651Q570 651 511 652T388 653L306 0H108L301 1530H403Q459 1530 555 1538Q651 1546 712 1546Q943 1546
1062 1451T1182 1178Q1182 1059 1141 959T1019 785T827 678Q863 641 904 563ZM746 809T822 857T934 991T967 1185Q964 1286 894 1340T690 1394Q648 1394 580 1389T481 1378L408 812Q459 809 631 809Q746 809 822 857Z" />
<glyph unicode="S" glyph-name="S" horiz-adv-x="1044" d="M103 214T154 192T271 154T397 139Q532 139 623 195T715 373Q715 460 667 533T498 686Q405 747 338 809T227 955T183 1147Q183 1271 242 1361T407 1498T648 1546Q773 1546 858 1521T991 1461L928 1310Q885
1354 808 1374T661 1395Q549 1395 468 1350T381 1189Q378 1110 400 1055T472 954T615 844Q708 781 772 724T878 589T921 412Q921 272 853 176T666 32T394 -16Q316 -16 241 -2T109 34T29 75L84 235Q103 214 154 192Z" />
<glyph unicode="T" glyph-name="T" horiz-adv-x="1122" d="M129 1373L151 1530H1195L1174 1373L754 1384L579 0H381L556 1384L129 1373Z" />
<glyph unicode="U" glyph-name="U" horiz-adv-x="1363" d="M277 1530H475L361 628Q349 513 349 451Q349 299 421 222T630 145Q794 145 889 263T1017 644L1129 1530H1322L1208 627Q1178 394 1101 253T901 48T602 -16Q379 -16 263 103T146 437Q146 474 156 562L159
593L277 1530Z" />
<glyph unicode="V" glyph-name="V" d="M326 1530L489 429L514 207L600 429L1076 1530H1286L589 0H380L128 1530H326Z" />
<glyph unicode="W" glyph-name="W" horiz-adv-x="1773" d="M1888 1530L1259 -10H1057L961 850L948 1023L892 850L562 -10H358L126 1530H324L464 436L496 220L557 435L900 1313L876 1530H1066L1182 436L1197 220L1271 435L1688 1530H1888Z" />
<glyph unicode="X" glyph-name="X" horiz-adv-x="1157" d="M181 1530H399L628 932L1017 1530H1241L704 753L1051 0H823L575 620L181 0H-59L499 793L181 1530Z" />
<glyph unicode="Y" glyph-name="Y" horiz-adv-x="1083" d="M83 1530H295L543 838L575 762L613 838L1025 1530H1237L644 590L568 0H380L456 590L83 1530Z" />
<glyph unicode="Z" glyph-name="Z" horiz-adv-x="1157" d="M794 1217L928 1376L238 1362L260 1530H1158L1183 1444L403 303L279 158L1031 170L1003 0H42L15 89L794 1217Z" />
<glyph unicode="[" glyph-name="bracketleft" horiz-adv-x="854" d="M394 1582T417 1635T486 1712T611 1735Q650 1735 708 1725T812 1703T871 1688L858 1601H583L360 -55L498 -56Q545 -57 635 -57Q631 -83 625 -143Q538 -168 482 -179T352 -190Q287 -190 250 -177T197
-133T180 -47Q180 10 184 63Q193 219 221 424T301 948Q359 1318 381 1483Q394 1582 417 1635Z" />
<glyph unicode="\" glyph-name="backslash" horiz-adv-x="854" d="M199 1597H26L602 -362H776L199 1597Z" />
<glyph unicode="]" glyph-name="bracketright" horiz-adv-x="854" d="M522 -26T499 -79T430 -156T305 -179Q266 -179 208 -169T104 -147T45 -132L58 -45H333L556 1611L418 1612Q371 1613 281 1613Q285 1639 291 1699Q378 1724 434 1735T564 1746Q629 1746 666
1733T719 1689T736 1603Q736 1546 732 1493Q723 1337 695 1132T615 608Q557 238 535 73Q522 -26 499 -79Z" />
<glyph unicode="^" glyph-name="asciicircum" horiz-adv-x="1364" d="M884 1530L1141 510H970L768 1338L351 510H176L687 1530H884Z" />
<glyph unicode="_" glyph-name="underscore" horiz-adv-x="1335" d="M1267 -338H-111L-91 -187H1287L1267 -338Z" />
<glyph unicode="`" glyph-name="grave" horiz-adv-x="541" d="M222 1733L510 1331L425 1261Q384 1278 311 1338T169 1470T69 1596L222 1733Z" />
<glyph unicode="a" glyph-name="a" horiz-adv-x="1145" d="M1058 1156L902 0H730L746 190Q683 103 591 44T391 -16Q237 -16 159 99T81 416Q81 586 150 757T363 1042T719 1156Q769 1156 831 1147T945 1122L1058 1156ZM521 136T608 210T757 384L843 988Q768 1013
688 1013Q554 1013 463 924T327 702T283 440Q283 284 320 210T426 136Q521 136 608 210Z" />
<glyph unicode="b" glyph-name="b" horiz-adv-x="1163" d="M914 1156T992 1041T1070 724Q1070 555 999 384T781 98T422 -16Q371 -16 310 -6T197 18L83 -16L302 1638H487L432 1147L396 954Q462 1039 556 1097T760 1156Q914 1156 992 1041ZM587 127T681 216T821
439T868 700Q868 856 831 930T725 1004Q628 1004 536 930T380 760L300 151Q370 127 453 127Q587 127 681 216Z" />
<glyph unicode="c" glyph-name="c" horiz-adv-x="905" d="M727 1156T786 1147T885 1118L834 951Q797 982 751 995T648 1009Q562 1009 478 937T339 737T284 454Q284 281 335 207T492 133Q557 133 618 165T755 272L820 166Q790 126 739 84T616 13T462 -16Q279 -16
182 102T85 434Q85 600 152 767T352 1045T665 1156Q727 1156 786 1147Z" />
<glyph unicode="d" glyph-name="d" horiz-adv-x="1161" d="M1133 1638L912 0H738L754 194Q688 105 593 45T389 -16Q235 -16 157 99T79 416Q79 585 150 756T368 1042T727 1156Q790 1156 870 1141L938 1638H1133ZM521 136T613 213T768 389L850 988Q781 1013 696
1013Q562 1013 468 924T328 701T281 440Q281 284 318 210T424 136Q521 136 613 213Z" />
<glyph unicode="e" glyph-name="e" horiz-adv-x="1035" d="M777 1156T840 1124T934 1035T965 906Q965 752 853 647T584 488T292 425L291 398Q291 290 338 214T502 138Q579 138 664 178T834 297L889 186Q857 142 796 95T652 16T479 -16Q344 -16 255 47T124 212T86
434Q91 634 167 799T378 1060T684 1156Q777 1156 840 1124ZM769 953T735 980T641 1008Q546 1008 472 938T353 764T297 564Q385 568 497 610T689 725T769 889Q769 953 735 980Z" />
<glyph unicode="f" glyph-name="f" horiz-adv-x="695" d="M142 984L170 1140H302L316 1234Q344 1442 451 1561T738 1681Q781 1681 817 1676T886 1655L836 1496Q815 1512 787 1520T712 1528Q633 1527 582 1459T518 1291L497 1140H708L696 984H476L343 0H148L281 984H142Z" />
<glyph unicode="g" glyph-name="g" horiz-adv-x="1157" d="M1070 1156L900 -93Q877 -241 796 -333T608 -464T390 -504Q324 -504 238 -493T121 -469L171 -304Q218 -326 287 -341T428 -356Q550 -356 614 -291T703 -96L752 191Q686 104 592 44T389 -16Q235 -16 157
99T79 416Q79 585 150 756T368 1042T727 1156Q778 1156 840 1146T954 1122L1070 1156ZM519 136T609 210T764 382L849 989Q779 1013 696 1013Q562 1013 468 924T328 701T281 440Q281 284 318 210T424 136Q519 136 609 210Z" />
<glyph unicode="h" glyph-name="h" horiz-adv-x="1198" d="M960 1156T1014 1088T1069 866Q1069 792 1029 515Q1005 345 982 198L952 0H756Q784 208 811 378L831 514Q850 645 860 726T870 854Q870 905 858 931T824 966T765 975Q711 975 642 940T503 846T381 719L283
0H88L296 1638H491L439 1159L399 909Q490 1018 609 1087T847 1156Q960 1156 1014 1088Z" />
<glyph unicode="i" glyph-name="i" horiz-adv-x="584" d="M474 1140L319 0H124L279 1140H474ZM307 1545T327 1579T381 1634T452 1655Q506 1655 540 1623T574 1545Q574 1506 553 1471T497 1414T422 1392Q375 1392 341 1426T307 1507Q307 1545 327 1579Z" />
<glyph unicode="j" glyph-name="j" horiz-adv-x="579" d="M472 1140L318 4Q297 -154 240 -271T96 -451T-96 -514Q-174 -514 -230 -475L-178 -364Q-171 -370 -153 -374T-124 -378Q-40 -378 10 -320T86 -167T131 69L277 1140H472ZM282 1545T302 1579T356 1634T427
1655Q481 1655 515 1623T549 1545Q549 1506 528 1471T472 1414T397 1392Q350 1392 316 1426T282 1507Q282 1545 302 1579Z" />
<glyph unicode="k" glyph-name="k" horiz-adv-x="1041" d="M491 1638L283 0H88L296 1638H491ZM854 771T772 704T620 601L984 4H757L402 634L403 635H402Q563 725 681 854Q744 923 787 989T862 1140H1048Q1041 1062 1009 995T920 855Q854 771 772 704Z" />
<glyph unicode="l" glyph-name="l" horiz-adv-x="584" d="M543 1638L320 4H125L348 1638H543Z" />
<glyph unicode="m" glyph-name="m" horiz-adv-x="1769" d="M1533 1156T1587 1088T1642 866Q1642 792 1602 515Q1587 403 1554 191L1526 4H1330Q1342 99 1387 397L1404 514Q1423 645 1433 726T1443 854Q1443 905 1431 931T1397 966T1338 975Q1273 975 1187 919T1026
776Q1016 677 992 515Q977 403 944 191L916 4H720Q732 99 777 397L794 514Q813 645 823 726T833 854Q833 905 821 931T786 966T727 975Q677 975 614 941T488 848T376 723L278 4H83L238 1140H423L403 926Q488 1029 595 1092T809 1156Q906 1156 960 1106T1028 946Q1112
1040 1215 1098T1420 1156Q1533 1156 1587 1088Z" />
<glyph unicode="n" glyph-name="n" horiz-adv-x="1194" d="M957 1156T1011 1088T1066 866Q1066 792 1026 515Q1011 403 978 191L950 4H754Q766 99 811 397L828 514Q847 645 857 726T867 854Q867 905 855 931T821 966T762 975Q707 975 637 939T498 843T375 714L278
4H83L238 1140H423L402 916Q494 1022 611 1089T844 1156Q957 1156 1011 1088Z" />
<glyph unicode="o" glyph-name="o" horiz-adv-x="1135" d="M851 1156T946 1033T1041 682Q1041 502 969 341T769 82T479 -16Q288 -16 189 108T89 458Q89 637 163 798T369 1057T661 1156Q851 1156 946 1033ZM614 131T688 213T799 421T836 678Q836 842 788 925T630
1009Q524 1009 448 927T332 719T292 463Q292 303 345 217T509 131Q614 131 688 213Z" />
<glyph unicode="p" glyph-name="p" d="M912 1156T990 1041T1068 724Q1068 555 997 384T779 98T420 -16Q358 -16 278 -1L210 -513H15L235 1140H410L393 953Q458 1038 553 1097T758 1156Q912 1156 990 1041ZM585 127T679 216T819 439T866 700Q866 856 829 930T723
1004Q626 1004 534 930T378 760L298 151Q368 127 451 127Q585 127 679 216Z" />
<glyph unicode="q" glyph-name="q" horiz-adv-x="1159" d="M1064 1162L844 -506H649L717 4L752 191Q686 104 592 44T389 -16Q235 -16 157 99T79 416Q79 585 150 756T368 1042T727 1156Q774 1156 831 1148T941 1126L1064 1162ZM846 990Q774 1013 696 1013Q562 1013
468 924T328 701T281 440Q281 284 318 210T424 136Q519 136 609 210T763 382L846 990Z" />
<glyph unicode="r" glyph-name="r" horiz-adv-x="786" d="M802 1156T815 1143L771 935Q743 949 673 949Q629 949 573 916T462 820T369 673L277 0H82L238 1140H423L404 937Q434 986 484 1035T603 1120T754 1156Q802 1156 815 1143Z" />
<glyph unicode="s" glyph-name="s" horiz-adv-x="872" d="M207 131T348 131Q431 131 484 163T538 273Q538 316 522 349T477 410T394 484L376 500Q306 560 265 604T197 708T170 843Q170 942 221 1012T359 1119T550 1156Q636 1156 705 1144T806 1117L768 934Q760
945 732 962T658 994T551 1009Q467 1009 413 974T358 868Q358 819 377 782T424 717T511 641Q583 583 626 540T700 435T732 295Q732 195 682 125T543 20T338 -16Q243 -16 157 2T44 43L81 214Q207 131 348 131Z" />
<glyph unicode="t" glyph-name="t" horiz-adv-x="741" d="M249 984H133L175 1140H280L342 1420H507L471 1140H733L710 984H449L373 394L365 338Q364 329 360 300T356 248Q356 198 367 169T412 139Q447 139 517 173T625 237L650 129Q626 99 572 65T453 7T336 -16Q253
-16 203 25T153 163Q153 204 165 296L249 984Z" />
<glyph unicode="u" glyph-name="u" horiz-adv-x="1173" d="M1083 1140L932 0H750L772 218Q690 111 585 46T364 -20Q230 -20 166 48T102 270Q102 333 123 498Q159 782 213 1140H409Q390 1002 368 849Q335 611 320 497Q301 351 301 282Q301 206 333 179T436 151Q519
151 618 227T792 413L888 1140H1083Z" />
<glyph unicode="v" glyph-name="v" horiz-adv-x="1007" d="M102 1140H320L387 359L397 154L541 342Q608 450 644 515T712 662T771 854Q783 902 796 992T809 1126L808 1140H994Q996 1100 996 1078Q996 1041 993 1005Q974 791 866 578T606 184L445 -4L270 -16L212
359L102 1140Z" />
<glyph unicode="w" glyph-name="w" horiz-adv-x="1662" d="M1627 1125T1627 1100Q1627 1065 1623 1024Q1611 875 1556 720T1421 427T1249 178L1098 -4L923 -16L865 359L832 591Q717 316 606 184L455 -4L280 -16L222 359L108 1140H326L397 359L407 154L541 342Q631
487 692 622T786 917L754 1140H968L1041 359L1053 154L1184 336Q1249 440 1285 508T1350 660T1399 854Q1436 1059 1436 1125Q1436 1136 1435 1140H1626Q1627 1125 1627 1100Z" />
<glyph unicode="x" glyph-name="x" horiz-adv-x="953" d="M559 568L834 4H605L437 434L155 4H-54L372 591L118 1140H352L495 729L769 1140H981L559 568Z" />
<glyph unicode="y" glyph-name="y" horiz-adv-x="1050" d="M1003 1102T1003 1081Q1003 1045 1000 1007Q974 651 750 229Q637 15 501 -154Q489 -169 488 -170Q410 -268 343 -335T175 -451T-53 -501Q-80 -501 -122 -493T-195 -474L-139 -312Q-135 -314 -119 -322T-78
-336T-20 -342Q48 -342 112 -314T249 -215T411 -16H289L224 359L115 1140H331L415 359L455 57L558 239Q758 560 802 1006Q807 1066 809 1140H1001Q1003 1102 1003 1081Z" />
<glyph unicode="z" glyph-name="z" horiz-adv-x="965" d="M225 156H822L807 0H30L-28 59L551 815L711 984H172L194 1140H917L965 1088L368 306L225 156Z" />
<glyph unicode="{" glyph-name="braceleft" horiz-adv-x="1024" d="M377 595T364 612T325 646Q293 667 249 685T160 714L178 838Q305 869 370 903Q430 934 435 966L512 1483Q528 1585 552 1638T622 1713T747 1735Q787 1735 844 1725T948 1703T1007 1688Q1005 1677
1000 1645T994 1601H718L622 970Q616 932 592 903T524 846Q506 835 452 810T379 776Q487 719 521 684Q563 640 563 591Q563 581 562 575L467 -55H742Q739 -75 735 -103T730 -143Q644 -168 587 -179T455 -190Q391 -190 355 -177T302 -133T287 -47Q288 -29 325 228T377
579Q377 595 364 612Z" />
<glyph unicode="|" glyph-name="bar" horiz-adv-x="854" d="M527 1780V-186H354V1780H527Z" />
<glyph unicode="}" glyph-name="braceright" horiz-adv-x="1024" d="M696 951T709 934T748 900Q780 879 824 861T913 832L895 708Q768 677 703 643Q643 612 638 580L561 63Q545 -39 521 -92T451 -167T326 -189Q286 -189 229 -179T125 -157T66 -142Q68 -131 73
-99T79 -55H355L451 576Q457 614 481 643T549 700Q567 711 621 736T694 770Q586 827 552 862Q510 906 510 955Q510 965 511 971L606 1601H331Q334 1621 338 1649T343 1689Q429 1714 486 1725T618 1736Q682 1736 718 1723T771 1679T786 1593Q785 1575 748 1318T696
967Q696 951 709 934Z" />
<glyph unicode="~" glyph-name="asciitilde" horiz-adv-x="1137" d="M149 898T195 946T306 1026T444 1058Q498 1058 541 1034T642 962Q688 924 719 905T786 886Q909 886 988 1003L1059 930Q1044 876 999 828T887 750T747 720Q692 720 650 744T551 815Q504 854
473 873T405 892Q282 892 203 775L132 848Q149 898 195 946Z" />
<glyph unicode="&#xa1;" glyph-name="exclamdown" horiz-adv-x="686" d="M352 1094T322 1123T292 1198Q292 1212 293 1219Q302 1285 352 1325T470 1366Q521 1366 555 1337T590 1258Q590 1214 565 1176T498 1116T412 1094Q352 1094 322 1123ZM93 -434L316 856H474L318
-434H93Z" />
<glyph unicode="&#xa2;" glyph-name="cent" horiz-adv-x="1057" d="M614 1009T530 937T391 737T336 454Q336 281 387 207T544 133Q609 133 670 165T807 272L872 166Q826 105 741 50T548 -15L511 -215H361L400 -2Q272 32 205 144T137 434Q137 580 190 731T349 996T601
1143L655 1358H805L754 1155Q806 1153 854 1144T937 1118L886 951Q849 982 803 995T700 1009Q614 1009 530 937Z" />
<glyph unicode="&#xa3;" glyph-name="sterling" horiz-adv-x="1368" d="M1202 550T1241 479T1280 329Q1280 -20 822 -20Q699 -20 595 6T357 81L297 102Q257 49 193 15T68 -20Q-10 -20 -10 51Q-10 58 -8 74Q-3 108 35 146T127 208T227 233Q273 269 300 343T338
493L380 744H203L221 875H403L418 966Q439 1122 505 1253T688 1464T970 1545Q1065 1545 1125 1529T1231 1463L1138 1323Q1132 1337 1106 1356T1038 1389T941 1404Q876 1404 813 1363T698 1224T620 968L604 875H914L897 744H580L572 696Q548 551 531 476T488 345T416
217Q461 202 502 187Q594 154 659 138T796 121Q947 121 1010 172T1074 321Q1074 362 1048 411T983 481L1140 600Q1202 550 1241 479Z" />
<glyph unicode="&#xa4;" glyph-name="currency" horiz-adv-x="1540" d="M1222 622T1202 559T1145 442L1339 248L1225 135L1031 329Q919 252 782 252Q716 252 654 270T540 324L346 130L232 243L424 435Q384 490 363 555T342 690Q342 759 363 823T422 942L229 1135L342
1249L536 1054Q648 1128 782 1128Q852 1128 917 1107T1038 1047L1228 1236L1341 1122L1150 931Q1185 878 1203 817T1222 690Q1222 622 1202 559ZM862 385T929 426T1035 538T1074 690Q1074 772 1035 842T929 953T782 995Q702 995 635 954T529 842T490 690Q490 608
529 538T635 427T782 385Q862 385 929 426Z" />
<glyph unicode="&#xa5;" glyph-name="yen" horiz-adv-x="1483" d="M942 862H1299L1282 731H860L834 506H1252L1235 376H818L774 0H597L642 376H230L247 506H657L684 731H277L294 862H642L324 1530H517L771 975L812 864L878 983L1246 1530H1440L942 862Z" />
<glyph unicode="&#xa6;" glyph-name="brokenbar" horiz-adv-x="854" d="M527 1780V886H354V1780H527ZM527 708V-186H354V708H527Z" />
<glyph unicode="&#xa7;" glyph-name="section" horiz-adv-x="1194" d="M1053 304T1053 199Q1053 76 981 -11T783 -142T496 -186Q419 -186 343 -167T211 -120T131 -65L186 85Q204 58 255 31T372 -13T499 -31Q847 -31 847 160Q847 215 787 268T590 378Q205 538 205
821Q205 901 250 958T383 1060Q245 1186 245 1350Q245 1444 305 1517T480 1632T750 1673Q875 1673 960 1642T1093 1568L1030 1417Q1001 1454 947 1478T836 1512T733 1522Q656 1522 594 1501T494 1444T453 1366Q448 1291 479 1243T565 1160T747 1062Q900 987 996
891T1093 661Q1093 572 1060 506T961 389Q1053 304 1053 199ZM408 770T439 720T528 634T707 536Q763 514 825 481Q887 537 887 631Q887 680 868 722T792 810T630 904Q558 938 500 972Q461 949 439 917T413 845Q408 770 439 720Z" />
<glyph unicode="&#xa8;" glyph-name="dieresis" horiz-adv-x="809" d="M60 1541T80 1575T134 1630T205 1651Q259 1651 293 1619T327 1541Q327 1502 306 1467T250 1410T175 1388Q128 1388 94 1422T60 1503Q60 1541 80 1575ZM480 1541T500 1575T554 1630T625 1651Q679
1651 713 1619T747 1541Q747 1502 726 1467T670 1410T595 1388Q548 1388 514 1422T480 1503Q480 1541 500 1575Z" />
<glyph unicode="&#xa9;" glyph-name="copyright" horiz-adv-x="2129" d="M1303 1840T1503 1723T1819 1404T1935 963Q1935 723 1819 521T1503 201T1064 82Q825 82 626 200T310 521T194 963Q194 1202 310 1403T625 1722T1064 1840Q1303 1840 1503 1723ZM1269 211T1435
312T1697 585T1792 963Q1792 1168 1697 1340T1436 1613T1064 1714Q859 1714 693 1613T431 1340T336 963Q336 758 431 586T692 312T1064 211Q1269 211 1435 312ZM1257 1450T1355 1394L1323 1230Q1227 1293 1098 1293Q1009 1293 945 1251T848 1136T815 971Q815 865
849 790T945 675T1088 636Q1160 636 1225 654T1335 697L1380 573Q1330 531 1244 505T1061 479Q927 479 827 545T674 720T621 956Q621 1098 678 1210T848 1386T1117 1450Q1257 1450 1355 1394Z" />
<glyph unicode="&#xaa;" glyph-name="ordfeminine" horiz-adv-x="854" d="M873 1574L727 743H560L584 870Q536 814 476 779T333 743Q216 743 155 821T94 1040Q94 1168 160 1292T342 1497T598 1577Q641 1577 689 1569T773 1548L873 1574ZM476 861T592 975L669 1437Q650
1455 624 1465T573 1475Q482 1475 413 1411T306 1249T268 1055Q268 959 298 910T403 861Q476 861 592 975Z" />
<glyph unicode="&#xab;" glyph-name="guillemotleft" horiz-adv-x="1878" d="M959 1086L997 971L487 615L901 264L831 152L245 530L267 690L959 1086ZM1635 1086L1673 971L1163 615L1577 264L1507 152L921 530L943 690L1635 1086Z" />
<glyph unicode="&#xac;" glyph-name="logicalnot" horiz-adv-x="1370" d="M1188 853L1126 322H949L994 701H211L228 853H1188Z" />
<glyph unicode="&#xae;" glyph-name="registered" horiz-adv-x="2129" d="M1303 1840T1503 1723T1819 1404T1935 963Q1935 723 1819 521T1503 201T1064 82Q825 82 626 200T310 521T194 963Q194 1202 310 1403T625 1722T1064 1840Q1303 1840 1503 1723ZM1269 211T1435
312T1697 585T1792 963Q1792 1168 1697 1340T1436 1613T1064 1714Q859 1714 693 1613T431 1340T336 963Q336 758 431 586T692 312T1064 211Q1269 211 1435 312ZM815 1441Q848 1441 876 1442T928 1444Q1020 1448 1073 1448Q1195 1448 1275 1412T1394 1314T1432 1174Q1432
1058 1387 982T1239 874Q1276 847 1302 806T1365 693L1392 639Q1409 609 1455 540L1495 479L1291 480Q1269 509 1252 539T1212 618L1198 649Q1172 708 1153 744T1105 809T1039 849Q1013 848 915 848V479H738V1441H815ZM1149 976T1198 1016T1248 1151Q1248 1232
1204 1274T1042 1316Q998 1316 971 1314T915 1305V980Q955 976 1045 976Q1149 976 1198 1016Z" />
<glyph unicode="&#xaf;" glyph-name="overscore" horiz-adv-x="614" d="M595 1544L590 1395H81L85 1544H595Z" />
<glyph unicode="&#xb0;" glyph-name="degree" horiz-adv-x="899" d="M144 1364T188 1439T309 1557T482 1600Q572 1600 645 1558T761 1443T804 1284Q804 1191 760 1116T637 998T463 955Q373 955 300 997T186 1113T144 1272Q144 1364 188 1439ZM664 1336T639 1381T572
1452T477 1479Q422 1479 378 1452T309 1379T284 1274Q284 1220 308 1175T375 1103T470 1076Q525 1076 569 1103T639 1177T664 1282Q664 1336 639 1381Z" />
<glyph unicode="&#xb1;" glyph-name="plusminus" horiz-adv-x="1366" d="M607 700L466 693H241L259 851H484L623 840L630 925Q633 950 637 1005L663 1235H841L815 1005L786 841L901 851H1156L1138 693H883L771 700Q770 671 766 618L760 536L733 295H554L581 536L607
700ZM1058 180L1041 30H172L189 180H1058Z" />
<glyph unicode="&#xb4;" glyph-name="acute" horiz-adv-x="559" d="M376 1733L528 1596Q509 1561 440 1488T289 1349T152 1261L69 1332L376 1733Z" />
<glyph unicode="&#xb5;" glyph-name="uni00B5" horiz-adv-x="1364" d="M121 -372L302 851Q306 875 306 904Q306 967 280 967Q255 967 233 953T186 914L122 1029Q134 1047 167 1076T256 1129T379 1154Q436 1154 474 1114T512 995Q512 975 509 952Q491 813 465 620T427
346Q425 322 425 311Q425 228 469 192T582 156Q652 156 726 210T852 331L960 1140H1154L1038 238Q1037 231 1037 217Q1037 189 1047 172T1071 155Q1098 155 1125 172T1190 227L1252 120Q1238 100 1204 68T1116 9T999 -18Q936 -18 894 17T845 122Q791 71 757 45T666
-1T527 -20Q488 -19 438 2T370 56L306 -372H121Z" />
<glyph unicode="&#xb6;" glyph-name="paragraph" horiz-adv-x="1364" d="M350 778T256 870T161 1129Q161 1337 295 1454T716 1571Q774 1571 829 1568T933 1560Q1039 1552 1090 1552H1349L1338 1449L1171 1416Q1152 1257 1123 1027T1081 702Q1018 221 992 0H802L977
1414H783L606 0H414L516 774Q350 778 256 870Z" />
<glyph unicode="&#xb7;" glyph-name="middot" horiz-adv-x="686" d="M425 896T454 864T484 784Q484 710 442 667T327 624Q277 624 243 655T208 736Q208 778 227 814T283 873T365 896Q425 896 454 864Z" />
<glyph unicode="&#xb8;" glyph-name="cedilla" horiz-adv-x="479" d="M385 30Q406 0 418 -50T430 -165Q430 -323 353 -393T152 -464Q111 -464 66 -456T4 -436L29 -285Q55 -299 100 -299Q172 -299 215 -260T259 -119L260 -46Q260 9 255 30L332 34L385 30Z" />
<glyph unicode="&#xba;" glyph-name="ordmasculine" horiz-adv-x="854" d="M98 1252T162 1362T327 1530T532 1589Q629 1589 704 1541T821 1408T863 1214Q863 1066 802 957T641 791T430 733Q341 733 265 779T144 909T98 1105Q98 1252 162 1362ZM677 1321T639 1396T525
1471Q438 1471 384 1416T306 1281T282 1123Q282 1044 301 984T355 891T435 858Q570 858 623 958T677 1196Q677 1321 639 1396Z" />
<glyph unicode="&#xbb;" glyph-name="guillemotright" horiz-adv-x="1878" d="M256 152L218 267L728 623L314 974L384 1086L970 708L948 548L256 152ZM932 152L894 267L1404 623L990 974L1060 1086L1646 708L1624 548L932 152Z" />
<glyph unicode="&#xbc;" glyph-name="onequarter" horiz-adv-x="2560" d="M793 1624L658 636H473L575 1395L314 1343L308 1466Q374 1483 462 1517T624 1588T724 1645L793 1624ZM1546 1530L865 0H706L1387 1530H1546ZM2269 166H2005L1959 -177H1756L1804 166H1312L1275
261L1881 1112H1929L2062 1009L1571 400L1492 308L1826 322L1861 575L2063 598L2027 330L2289 341L2269 166Z" />
<glyph unicode="&#xbd;" glyph-name="onehalf" horiz-adv-x="2560" d="M314 1343L308 1466Q374 1483 462 1517T624 1588T724 1645L793 1624L658 636H473L575 1395L314 1343ZM1545 1530L864 0H705L1386 1530H1545ZM1523 81T1672 179T1940 397T2058 618Q2058 705
2005 742T1864 779Q1779 779 1699 744T1553 641L1483 735Q1516 780 1576 825T1719 901T1891 932Q2003 932 2084 894T2208 795T2250 673Q2250 539 2180 436T2002 253T1692 48L2234 81L2227 -78H1449L1404 18Q1523 81 1672 179Z" />
<glyph unicode="&#xbe;" glyph-name="threequarters" horiz-adv-x="2560" d="M897 775T823 694T633 574T391 534Q330 534 247 553T111 606L128 714Q177 690 243 677T363 663Q439 663 512 683T637 752T690 876Q694 947 646 990T515 1036L354 1001L375 1146Q507
1172 597 1229T688 1390Q688 1447 653 1474T543 1502Q405 1502 262 1408L216 1520Q395 1644 605 1644Q698 1644 767 1616T873 1540T910 1434Q910 1328 837 1248T647 1124Q740 1124 796 1088T874 1000T897 892Q897 775 823 694ZM1545 1530L864 0H705L1386 1530H1545ZM2269
166H2005L1959 -177H1756L1804 166H1312L1275 261L1881 1112H1929L2062 1009L1571 400L1492 308L1826 322L1861 575L2063 598L2027 330L2289 341L2269 166Z" />
<glyph unicode="&#xbf;" glyph-name="questiondown" horiz-adv-x="1028" d="M479 1350T521 1393T636 1436Q686 1436 720 1405T755 1324Q755 1282 736 1246T680 1187T598 1164Q538 1164 509 1196T479 1276Q479 1350 521 1393ZM666 -205T713 -198T819 -172L791 -312Q770
-334 709 -349T588 -365Q414 -365 302 -304T138 -146T87 66Q87 192 135 278T250 414T422 522Q494 561 535 589T603 654T630 741Q630 768 622 797T599 862Q588 892 586 901L713 951L730 950Q767 918 793 854T820 722Q820 636 751 566T531 414Q426 360 358 307T277
193Q268 156 268 97Q268 1 316 -67T441 -170T602 -205Q666 -205 713 -198Z" />
<glyph unicode="&#xc0;" glyph-name="Agrave" horiz-adv-x="1265" d="M911 396H317L135 0H-76L670 1530H889L1175 0H977L911 396ZM885 547L770 1236L757 1352L387 547H885ZM615 2000L891 1658L818 1593Q770 1611 704 1657T580 1761T491 1872L615 2000Z" />
<glyph unicode="&#xc1;" glyph-name="Aacute" horiz-adv-x="1265" d="M911 396H317L135 0H-76L670 1530H889L1175 0H977L911 396ZM885 547L770 1236L757 1352L387 547H885ZM1025 2000L1149 1872Q1119 1819 1061 1761T936 1657T822 1593L749 1658L1025 2000Z" />
<glyph unicode="&#xc2;" glyph-name="Acircumflex" horiz-adv-x="1265" d="M911 396H317L135 0H-76L670 1530H889L1175 0H977L911 396ZM885 547L770 1236L757 1352L387 547H885ZM788 2006H966L1156 1662L1062 1594L851 1828L538 1585L461 1662L788 2006Z" />
<glyph unicode="&#xc3;" glyph-name="Atilde" horiz-adv-x="1265" d="M911 396H317L135 0H-76L670 1530H889L1175 0H977L911 396ZM885 547L770 1236L757 1352L387 547H885ZM451 1843T497 1882T599 1946T707 1970Q764 1970 802 1949T883 1887Q914 1858 935 1844T984
1830Q1025 1830 1052 1852T1110 1917L1128 1940L1213 1851Q1196 1801 1155 1759T1057 1693T945 1668Q903 1668 872 1679T819 1706T769 1748Q736 1778 711 1793T652 1808Q616 1808 592 1791T535 1737L517 1717L430 1801Q451 1843 497 1882Z" />
<glyph unicode="&#xc4;" glyph-name="Adieresis" horiz-adv-x="1265" d="M911 396H317L135 0H-76L670 1530H889L1175 0H977L911 396ZM885 547L770 1236L757 1352L387 547H885ZM478 1848T499 1882T554 1938T621 1959Q676 1959 709 1927T743 1847Q743 1808 722 1773T665
1717T591 1696Q545 1696 512 1730T478 1810Q478 1848 499 1882ZM895 1852T917 1885T974 1938T1041 1959Q1095 1959 1128 1927T1162 1849Q1162 1810 1141 1775T1085 1718T1010 1696Q963 1696 929 1731T895 1815Q895 1852 917 1885Z" />
<glyph unicode="&#xc5;" glyph-name="Aring" horiz-adv-x="1265" d="M911 396H317L135 0H-76L649 1488Q574 1515 534 1575T494 1725Q494 1813 545 1875T676 1968T841 2000Q968 2000 1042 1930T1117 1735Q1117 1634 1057 1570T898 1481L1175 0H977L911 396ZM745
1892T689 1852T633 1719Q633 1679 653 1646T708 1593T786 1573Q874 1573 924 1611T975 1752Q975 1813 934 1852T825 1892Q745 1892 689 1852ZM885 547L770 1236L757 1352L387 547H885Z" />
<glyph unicode="&#xc6;" glyph-name="AE" horiz-adv-x="1763" d="M1107 1381L1040 854L1478 861L1466 695L1023 710L951 149L1651 165L1637 0H735L787 416H304L85 0H-128L641 1408L350 1430L364 1530H1695L1688 1373L1107 1381ZM807 567L910 1387L820 1393L384 567H807Z" />
<glyph unicode="&#xc7;" glyph-name="Ccedilla" horiz-adv-x="1141" d="M633 1380T521 1268T359 992T309 665Q309 516 345 398T457 211T646 142Q728 142 802 161T928 205T1005 250L1035 84Q996 54 918 26T710 -12Q732 -73 732 -163Q732 -321 655 -391T454 -462Q413
-462 368 -454T306 -434L331 -283Q357 -297 402 -297Q474 -297 517 -258T561 -117V-49V-14Q398 0 297 98T151 341T107 652Q107 914 200 1117T456 1433T817 1546Q904 1546 961 1534T1088 1497L1142 1479L1072 1315Q1068 1317 1037 1335T945 1366T810 1380Q633 1380
521 1268Z" />
<glyph unicode="&#xc8;" glyph-name="Egrave" horiz-adv-x="1138" d="M523 2000L799 1658L726 1593Q678 1611 612 1657T488 1761T399 1872L523 2000ZM1070 1530L1063 1373L482 1381L415 854L853 861L841 695L398 710L326 149L1026 165L1012 0H110L303 1530H1070Z" />
<glyph unicode="&#xc9;" glyph-name="Eacute" horiz-adv-x="1138" d="M933 2000L1057 1872Q1027 1819 969 1761T844 1657T730 1593L657 1658L933 2000ZM1070 1530L1063 1373L482 1381L415 854L853 861L841 695L398 710L326 149L1026 165L1012 0H110L303 1530H1070Z" />
<glyph unicode="&#xca;" glyph-name="Ecircumflex" horiz-adv-x="1138" d="M1070 1530L1063 1373L482 1381L415 854L853 861L841 695L398 710L326 149L1026 165L1012 0H110L303 1530H1070ZM696 2006H874L1064 1662L970 1594L759 1828L446 1585L369 1662L696 2006Z" />
<glyph unicode="&#xcb;" glyph-name="Edieresis" horiz-adv-x="1138" d="M386 1848T407 1882T462 1938T529 1959Q584 1959 617 1927T651 1847Q651 1808 630 1773T573 1717T499 1696Q453 1696 420 1730T386 1810Q386 1848 407 1882ZM803 1852T825 1885T882 1938T949
1959Q1003 1959 1036 1927T1070 1849Q1070 1810 1049 1775T993 1718T918 1696Q871 1696 837 1731T803 1815Q803 1852 825 1885ZM1070 1530L1063 1373L482 1381L415 854L853 861L841 695L398 710L326 149L1026 165L1012 0H110L303 1530H1070Z" />
<glyph unicode="&#xcc;" glyph-name="Igrave" horiz-adv-x="580" d="M518 1530L325 0H127L320 1530H518ZM254 2000L530 1658L457 1593Q409 1611 343 1657T219 1761T130 1872L254 2000Z" />
<glyph unicode="&#xcd;" glyph-name="Iacute" horiz-adv-x="580" d="M518 1530L325 0H127L320 1530H518ZM664 2000L788 1872Q758 1819 700 1761T575 1657T461 1593L388 1658L664 2000Z" />
<glyph unicode="&#xce;" glyph-name="Icircumflex" horiz-adv-x="580" d="M518 1530L325 0H127L320 1530H518ZM427 2006H605L795 1662L701 1594L490 1828L177 1585L100 1662L427 2006Z" />
<glyph unicode="&#xcf;" glyph-name="Idieresis" horiz-adv-x="580" d="M518 1530L325 0H127L320 1530H518ZM117 1848T138 1882T193 1938T260 1959Q315 1959 348 1927T382 1847Q382 1808 361 1773T304 1717T230 1696Q184 1696 151 1730T117 1810Q117 1848 138
1882ZM534 1852T556 1885T613 1938T680 1959Q734 1959 767 1927T801 1849Q801 1810 780 1775T724 1718T649 1696Q602 1696 568 1731T534 1815Q534 1852 556 1885Z" />
<glyph unicode="&#xd0;" glyph-name="Eth" horiz-adv-x="1377" d="M1298 640T1200 429T925 98T522 -16Q458 -14 409 -9Q367 -5 309 -3T211 0H110L201 722H42L58 852H217L303 1530H397Q441 1530 553 1538Q671 1546 721 1546Q1020 1546 1159 1374T1298 898Q1298
640 1200 429ZM738 140T857 250T1035 530T1093 887Q1093 1080 1050 1191T913 1351T662 1400Q622 1400 567 1394T482 1381L415 852H797L781 722H399L329 163Q374 148 438 140T564 134Q738 140 857 250Z" />
<glyph unicode="&#xd1;" glyph-name="Ntilde" horiz-adv-x="1400" d="M512 1843T558 1882T660 1946T768 1970Q825 1970 863 1949T944 1887Q975 1858 996 1844T1045 1830Q1086 1830 1113 1852T1171 1917L1189 1940L1274 1851Q1257 1801 1216 1759T1118 1693T1006
1668Q964 1668 933 1679T880 1706T830 1748Q797 1778 772 1793T713 1808Q677 1808 653 1791T596 1737L578 1717L491 1801Q512 1843 558 1882ZM509 1530L949 468L1012 261L1031 510L1154 1530H1342L1149 0H956L501 1075L448 1307L421 1009L295 0H110L303 1530H509Z"
/>
<glyph unicode="&#xd2;" glyph-name="Ograve" horiz-adv-x="1378" d="M648 2000L924 1658L851 1593Q803 1611 737 1657T613 1761T524 1872L648 2000ZM108 891T200 1099T453 1426T814 1546Q974 1546 1084 1460T1250 1227T1305 898Q1305 644 1216 435T965 105T599
-16Q439 -16 329 70T163 304T108 635Q108 891 200 1099ZM1095 1146T1018 1267T782 1389Q645 1389 537 1285T369 1010T314 648Q319 383 396 260T631 136Q769 136 877 238T1043 512T1099 883Q1095 1146 1018 1267Z" />
<glyph unicode="&#xd3;" glyph-name="Oacute" horiz-adv-x="1378" d="M1058 2000L1182 1872Q1152 1819 1094 1761T969 1657T855 1593L782 1658L1058 2000ZM108 891T200 1099T453 1426T814 1546Q974 1546 1084 1460T1250 1227T1305 898Q1305 644 1216 435T965 105T599
-16Q439 -16 329 70T163 304T108 635Q108 891 200 1099ZM1095 1146T1018 1267T782 1389Q645 1389 537 1285T369 1010T314 648Q319 383 396 260T631 136Q769 136 877 238T1043 512T1099 883Q1095 1146 1018 1267Z" />
<glyph unicode="&#xd4;" glyph-name="Ocircumflex" horiz-adv-x="1378" d="M108 891T200 1099T453 1426T814 1546Q974 1546 1084 1460T1250 1227T1305 898Q1305 644 1216 435T965 105T599 -16Q439 -16 329 70T163 304T108 635Q108 891 200 1099ZM1095 1146T1018
1267T782 1389Q645 1389 537 1285T369 1010T314 648Q319 383 396 260T631 136Q769 136 877 238T1043 512T1099 883Q1095 1146 1018 1267ZM821 2006H999L1189 1662L1095 1594L884 1828L571 1585L494 1662L821 2006Z" />
<glyph unicode="&#xd5;" glyph-name="Otilde" horiz-adv-x="1378" d="M484 1843T530 1882T632 1946T740 1970Q797 1970 835 1949T916 1887Q947 1858 968 1844T1017 1830Q1058 1830 1085 1852T1143 1917L1161 1940L1246 1851Q1229 1801 1188 1759T1090 1693T978
1668Q936 1668 905 1679T852 1706T802 1748Q769 1778 744 1793T685 1808Q649 1808 625 1791T568 1737L550 1717L463 1801Q484 1843 530 1882ZM108 891T200 1099T453 1426T814 1546Q974 1546 1084 1460T1250 1227T1305 898Q1305 644 1216 435T965 105T599 -16Q439
-16 329 70T163 304T108 635Q108 891 200 1099ZM1095 1146T1018 1267T782 1389Q645 1389 537 1285T369 1010T314 648Q319 383 396 260T631 136Q769 136 877 238T1043 512T1099 883Q1095 1146 1018 1267Z" />
<glyph unicode="&#xd6;" glyph-name="Odieresis" horiz-adv-x="1378" d="M511 1848T532 1882T587 1938T654 1959Q709 1959 742 1927T776 1847Q776 1808 755 1773T698 1717T624 1696Q578 1696 545 1730T511 1810Q511 1848 532 1882ZM928 1852T950 1885T1007 1938T1074
1959Q1128 1959 1161 1927T1195 1849Q1195 1810 1174 1775T1118 1718T1043 1696Q996 1696 962 1731T928 1815Q928 1852 950 1885ZM108 891T200 1099T453 1426T814 1546Q974 1546 1084 1460T1250 1227T1305 898Q1305 644 1216 435T965 105T599 -16Q439 -16 329 70T163
304T108 635Q108 891 200 1099ZM1095 1146T1018 1267T782 1389Q645 1389 537 1285T369 1010T314 648Q319 383 396 260T631 136Q769 136 877 238T1043 512T1099 883Q1095 1146 1018 1267Z" />
<glyph unicode="&#xd7;" glyph-name="multiply" horiz-adv-x="1370" d="M614 765L313 1092L445 1215L726 865L1095 1215L1197 1092L814 765L1115 438L983 315L702 665L333 315L231 438L614 765Z" />
<glyph unicode="&#xd8;" glyph-name="Oslash" horiz-adv-x="1378" d="M1232 1301T1268 1174T1305 898Q1305 644 1216 435T965 105T599 -16Q420 -16 297 96L146 -132L57 -83L229 175Q169 262 139 380T108 635Q108 891 200 1099T453 1426T814 1546Q972 1546 1085
1460L1224 1670L1313 1621L1159 1389Q1232 1301 1268 1174ZM647 1389T541 1288T374 1021T314 668Q314 474 356 346L979 1317Q906 1389 782 1389Q647 1389 541 1288ZM767 136T873 235T1039 500T1099 862Q1099 1096 1040 1226L409 241Q484 136 631 136Q767 136 873
235Z" />
<glyph unicode="&#xd9;" glyph-name="Ugrave" horiz-adv-x="1363" d="M635 2000L911 1658L838 1593Q790 1611 724 1657T600 1761T511 1872L635 2000ZM277 1530H475L361 628Q349 513 349 451Q349 299 421 222T630 145Q794 145 889 263T1017 644L1129 1530H1322L1208
627Q1178 394 1101 253T901 48T602 -16Q379 -16 263 103T146 437Q146 474 156 562L159 593L277 1530Z" />
<glyph unicode="&#xda;" glyph-name="Uacute" horiz-adv-x="1363" d="M1045 2000L1169 1872Q1139 1819 1081 1761T956 1657T842 1593L769 1658L1045 2000ZM277 1530H475L361 628Q349 513 349 451Q349 299 421 222T630 145Q794 145 889 263T1017 644L1129 1530H1322L1208
627Q1178 394 1101 253T901 48T602 -16Q379 -16 263 103T146 437Q146 474 156 562L159 593L277 1530Z" />
<glyph unicode="&#xdb;" glyph-name="Ucircumflex" horiz-adv-x="1363" d="M277 1530H475L361 628Q349 513 349 451Q349 299 421 222T630 145Q794 145 889 263T1017 644L1129 1530H1322L1208 627Q1178 394 1101 253T901 48T602 -16Q379 -16 263 103T146 437Q146
474 156 562L159 593L277 1530ZM808 2006H986L1176 1662L1082 1594L871 1828L558 1585L481 1662L808 2006Z" />
<glyph unicode="&#xdc;" glyph-name="Udieresis" horiz-adv-x="1363" d="M498 1848T519 1882T574 1938T641 1959Q696 1959 729 1927T763 1847Q763 1808 742 1773T685 1717T611 1696Q565 1696 532 1730T498 1810Q498 1848 519 1882ZM915 1852T937 1885T994 1938T1061
1959Q1115 1959 1148 1927T1182 1849Q1182 1810 1161 1775T1105 1718T1030 1696Q983 1696 949 1731T915 1815Q915 1852 937 1885ZM277 1530H475L361 628Q349 513 349 451Q349 299 421 222T630 145Q794 145 889 263T1017 644L1129 1530H1322L1208 627Q1178 394 1101
253T901 48T602 -16Q379 -16 263 103T146 437Q146 474 156 562L159 593L277 1530Z" />
<glyph unicode="&#xdd;" glyph-name="Yacute" horiz-adv-x="1083" d="M83 1530H295L543 838L575 762L613 838L1025 1530H1237L644 590L568 0H380L456 590L83 1530ZM915 2000L1039 1872Q1009 1819 951 1761T826 1657T712 1593L639 1658L915 2000Z" />
<glyph unicode="&#xde;" glyph-name="Thorn" horiz-adv-x="1210" d="M1139 703T1061 562T844 346T525 270Q401 270 343 280L308 0H110L303 1530H501L470 1283Q487 1284 528 1288Q537 1289 585 1293T682 1297Q906 1297 1022 1197T1139 891Q1139 703 1061 562ZM943
1148T650 1148Q610 1148 552 1142T450 1127L363 440Q390 435 436 431T520 426Q733 426 833 543T938 889Q943 1148 650 1148Z" />
<glyph unicode="&#xdf;" glyph-name="germandbls" horiz-adv-x="1180" d="M229 1209T322 1354T529 1544T779 1589Q871 1589 942 1556T1054 1457T1095 1297Q1095 1223 1073 1166T1020 1069T940 979Q890 927 867 894T844 819Q844 794 863 764T921 682Q941 658 961
630Q1016 552 1050 476T1085 312Q1085 217 1038 143T899 26T679 -16Q616 -16 539 -1T428 31L454 218Q486 188 543 162T659 136Q741 136 788 151T857 203T879 302Q879 352 853 413T790 527Q736 591 696 664T656 797Q656 862 681 909T760 1013Q826 1083 859 1147T893
1291Q893 1359 849 1403T722 1448Q636 1448 572 1400T459 1226T380 871L271 4H77L194 931Q229 1209 322 1354Z" />
<glyph unicode="&#xe0;" glyph-name="agrave" horiz-adv-x="1145" d="M1058 1156L902 0H730L746 190Q683 103 591 44T391 -16Q237 -16 159 99T81 416Q81 586 150 757T363 1042T719 1156Q769 1156 831 1147T945 1122L1058 1156ZM521 136T608 210T757 384L843 988Q768
1013 688 1013Q554 1013 463 924T327 702T283 440Q283 284 320 210T426 136Q521 136 608 210ZM492 1737L780 1335L695 1265Q654 1282 581 1342T439 1474T339 1600L492 1737Z" />
<glyph unicode="&#xe1;" glyph-name="aacute" horiz-adv-x="1145" d="M1058 1156L902 0H730L746 190Q683 103 591 44T391 -16Q237 -16 159 99T81 416Q81 586 150 757T363 1042T719 1156Q769 1156 831 1147T945 1122L1058 1156ZM521 136T608 210T757 384L843 988Q768
1013 688 1013Q554 1013 463 924T327 702T283 440Q283 284 320 210T426 136Q521 136 608 210ZM924 1737L1076 1600Q1057 1565 988 1492T837 1353T700 1265L617 1336L924 1737Z" />
<glyph unicode="&#xe2;" glyph-name="acircumflex" horiz-adv-x="1145" d="M1058 1156L902 0H730L746 190Q683 103 591 44T391 -16Q237 -16 159 99T81 416Q81 586 150 757T363 1042T719 1156Q769 1156 831 1147T945 1122L1058 1156ZM521 136T608 210T757 384L843
988Q768 1013 688 1013Q554 1013 463 924T327 702T283 440Q283 284 320 210T426 136Q521 136 608 210ZM709 1694H887L1077 1320L983 1252L772 1516L459 1243L382 1320L709 1694Z" />
<glyph unicode="&#xe3;" glyph-name="atilde" horiz-adv-x="1145" d="M1058 1156L902 0H730L746 190Q683 103 591 44T391 -16Q237 -16 159 99T81 416Q81 586 150 757T363 1042T719 1156Q769 1156 831 1147T945 1122L1058 1156ZM521 136T608 210T757 384L843 988Q768
1013 688 1013Q554 1013 463 924T327 702T283 440Q283 284 320 210T426 136Q521 136 608 210ZM344 1527T390 1566T492 1630T600 1654Q657 1654 695 1633T776 1571Q807 1542 828 1528T877 1514Q918 1514 945 1536T1003 1601L1021 1624L1106 1535Q1089 1485 1048
1443T950 1377T838 1352Q796 1352 765 1363T712 1390T662 1432Q629 1462 604 1477T545 1492Q509 1492 485 1475T428 1421L410 1401L323 1485Q344 1527 390 1566Z" />
<glyph unicode="&#xe4;" glyph-name="adieresis" horiz-adv-x="1145" d="M1058 1156L902 0H730L746 190Q683 103 591 44T391 -16Q237 -16 159 99T81 416Q81 586 150 757T363 1042T719 1156Q769 1156 831 1147T945 1122L1058 1156ZM521 136T608 210T757 384L843
988Q768 1013 688 1013Q554 1013 463 924T327 702T283 440Q283 284 320 210T426 136Q521 136 608 210ZM387 1545T407 1579T461 1634T532 1655Q586 1655 620 1623T654 1545Q654 1506 633 1471T577 1414T502 1392Q455 1392 421 1426T387 1507Q387 1545 407 1579ZM807
1545T827 1579T881 1634T952 1655Q1006 1655 1040 1623T1074 1545Q1074 1506 1053 1471T997 1414T922 1392Q875 1392 841 1426T807 1507Q807 1545 827 1579Z" />
<glyph unicode="&#xe5;" glyph-name="aring" horiz-adv-x="1145" d="M1058 1156L902 0H730L746 190Q683 103 591 44T391 -16Q237 -16 159 99T81 416Q81 586 150 757T363 1042T719 1156Q769 1156 831 1147T945 1122L1058 1156ZM521 136T608 210T757 384L843 988Q768
1013 688 1013Q554 1013 463 924T327 702T283 440Q283 284 320 210T426 136Q521 136 608 210ZM442 1603T493 1665T624 1758T789 1790Q916 1790 990 1720T1065 1525Q1065 1438 1020 1378T898 1287T729 1257Q592 1257 517 1324T442 1515Q442 1603 493 1665ZM923 1603T882
1642T773 1682Q693 1682 637 1642T581 1509Q581 1469 601 1436T656 1383T734 1363Q822 1363 872 1401T923 1542Q923 1603 882 1642Z" />
<glyph unicode="&#xe6;" glyph-name="ae" horiz-adv-x="1633" d="M1177 138T1262 178T1432 297L1487 186Q1455 142 1394 95T1250 16T1077 -16Q929 -16 836 58T706 256Q647 138 564 61T371 -16Q81 -16 81 416Q81 586 150 757T363 1042T719 1156Q772 1156 810 1152T897
1132T1006 1079Q1132 1156 1282 1156Q1375 1156 1438 1124T1532 1035T1563 906Q1563 752 1451 647T1182 488T890 425L889 398Q889 290 936 214T1100 138Q1177 138 1262 178ZM688 590T736 727T870 963Q778 1013 688 1013Q554 1013 463 924T327 702T283 440Q283 281
316 209T416 136Q546 136 684 412V434Q688 590 736 727ZM1367 953T1333 980T1239 1008Q1144 1008 1070 938T951 764T895 564Q983 568 1095 610T1287 725T1367 889Q1367 953 1333 980Z" />
<glyph unicode="&#xe7;" glyph-name="ccedilla" horiz-adv-x="905" d="M562 1009T478 937T339 737T284 454Q284 281 335 207T492 133Q557 133 618 165T755 272L820 166Q779 111 704 60T535 -9Q558 -69 558 -161Q558 -319 481 -389T280 -460Q239 -460 194 -452T132
-432L157 -281Q183 -295 228 -295Q300 -295 343 -256T387 -115V-46V-10Q240 13 163 128T85 434Q85 600 152 767T352 1045T665 1156Q727 1156 786 1147T885 1118L834 951Q797 982 751 995T648 1009Q562 1009 478 937Z" />
<glyph unicode="&#xe8;" glyph-name="egrave" horiz-adv-x="1035" d="M777 1156T840 1124T934 1035T965 906Q965 752 853 647T584 488T292 425L291 398Q291 290 338 214T502 138Q579 138 664 178T834 297L889 186Q857 142 796 95T652 16T479 -16Q344 -16 255 47T124
212T86 434Q91 634 167 799T378 1060T684 1156Q777 1156 840 1124ZM769 953T735 980T641 1008Q546 1008 472 938T353 764T297 564Q385 568 497 610T689 725T769 889Q769 953 735 980ZM430 1737L718 1335L633 1265Q592 1282 519 1342T377 1474T277 1600L430 1737Z"
/>
<glyph unicode="&#xe9;" glyph-name="eacute" horiz-adv-x="1035" d="M862 1733L1014 1596Q995 1561 926 1488T775 1349T638 1261L555 1332L862 1733ZM777 1156T840 1124T934 1035T965 906Q965 752 853 647T584 488T292 425L291 398Q291 290 338 214T502 138Q579
138 664 178T834 297L889 186Q857 142 796 95T652 16T479 -16Q344 -16 255 47T124 212T86 434Q91 634 167 799T378 1060T684 1156Q777 1156 840 1124ZM769 953T735 980T641 1008Q546 1008 472 938T353 764T297 564Q385 568 497 610T689 725T769 889Q769 953 735
980Z" />
<glyph unicode="&#xea;" glyph-name="ecircumflex" horiz-adv-x="1035" d="M647 1690H825L1015 1316L921 1248L710 1512L397 1239L320 1316L647 1690ZM777 1156T840 1124T934 1035T965 906Q965 752 853 647T584 488T292 425L291 398Q291 290 338 214T502 138Q579
138 664 178T834 297L889 186Q857 142 796 95T652 16T479 -16Q344 -16 255 47T124 212T86 434Q91 634 167 799T378 1060T684 1156Q777 1156 840 1124ZM769 953T735 980T641 1008Q546 1008 472 938T353 764T297 564Q385 568 497 610T689 725T769 889Q769 953 735
980Z" />
<glyph unicode="&#xeb;" glyph-name="edieresis" horiz-adv-x="1035" d="M325 1541T345 1575T399 1630T470 1651Q524 1651 558 1619T592 1541Q592 1502 571 1467T515 1410T440 1388Q393 1388 359 1422T325 1503Q325 1541 345 1575ZM745 1541T765 1575T819 1630T890
1651Q944 1651 978 1619T1012 1541Q1012 1502 991 1467T935 1410T860 1388Q813 1388 779 1422T745 1503Q745 1541 765 1575ZM777 1156T840 1124T934 1035T965 906Q965 752 853 647T584 488T292 425L291 398Q291 290 338 214T502 138Q579 138 664 178T834 297L889
186Q857 142 796 95T652 16T479 -16Q344 -16 255 47T124 212T86 434Q91 634 167 799T378 1060T684 1156Q777 1156 840 1124ZM769 953T735 980T641 1008Q546 1008 472 938T353 764T297 564Q385 568 497 610T689 725T769 889Q769 953 735 980Z" />
<glyph unicode="&#xec;" glyph-name="igrave" horiz-adv-x="584" d="M474 1140L319 0H124L279 1140H474ZM453 1737L741 1335L656 1265Q615 1282 542 1342T400 1474T300 1600L453 1737Z" />
<glyph unicode="&#xed;" glyph-name="iacute" horiz-adv-x="584" d="M629 1733L781 1596Q762 1561 693 1488T542 1349T405 1261L322 1332L629 1733ZM474 1140L319 0H124L279 1140H474Z" />
<glyph unicode="&#xee;" glyph-name="icircumflex" horiz-adv-x="584" d="M670 1690H848L1038 1316L944 1248L733 1512L420 1239L343 1316L670 1690ZM474 1140L319 0H124L279 1140H474Z" />
<glyph unicode="&#xef;" glyph-name="idieresis" horiz-adv-x="584" d="M92 1541T112 1575T166 1630T237 1651Q291 1651 325 1619T359 1541Q359 1502 338 1467T282 1410T207 1388Q160 1388 126 1422T92 1503Q92 1541 112 1575ZM512 1541T532 1575T586 1630T657
1651Q711 1651 745 1619T779 1541Q779 1502 758 1467T702 1410T627 1388Q580 1388 546 1422T512 1503Q512 1541 532 1575ZM474 1140L319 0H124L279 1140H474Z" />
<glyph unicode="&#xf0;" glyph-name="eth" horiz-adv-x="1182" d="M943 1411T1015 1243T1088 869Q1088 624 1019 423T816 103T495 -16Q364 -16 273 52T135 226T89 446Q89 663 168 824T375 1070T648 1156Q725 1156 797 1128T904 1042Q882 1177 834 1268T690 1447L540
1278L434 1366L591 1529Q448 1638 350 1662L393 1781Q449 1766 531 1726T686 1638Q725 1681 774 1739T839 1816L937 1727L789 1558Q943 1411 1015 1243ZM892 817T864 873T780 971T642 1014Q528 1014 451 929T337 711T300 434Q300 352 326 281T403 166T524 122Q605
122 676 186T797 359T867 598L874 642Q892 750 892 779Q892 817 864 873Z" />
<glyph unicode="&#xf1;" glyph-name="ntilde" horiz-adv-x="1194" d="M957 1156T1011 1088T1066 866Q1066 792 1026 515Q1011 403 978 191L950 4H754Q766 99 811 397L828 514Q847 645 857 726T867 854Q867 905 855 931T821 966T762 975Q707 975 637 939T498 843T375
714L278 4H83L238 1140H423L402 916Q494 1022 611 1089T844 1156Q957 1156 1011 1088ZM296 1527T342 1566T444 1630T552 1654Q609 1654 647 1633T728 1571Q759 1542 780 1528T829 1514Q870 1514 897 1536T955 1601L973 1624L1058 1535Q1041 1485 1000 1443T902
1377T790 1352Q748 1352 717 1363T664 1390T614 1432Q581 1462 556 1477T497 1492Q461 1492 437 1475T380 1421L362 1401L275 1485Q296 1527 342 1566Z" />
<glyph unicode="&#xf2;" glyph-name="ograve" horiz-adv-x="1135" d="M851 1156T946 1033T1041 682Q1041 502 969 341T769 82T479 -16Q288 -16 189 108T89 458Q89 637 163 798T369 1057T661 1156Q851 1156 946 1033ZM614 131T688 213T799 421T836 678Q836 842
788 925T630 1009Q524 1009 448 927T332 719T292 463Q292 303 345 217T509 131Q614 131 688 213ZM434 1737L722 1335L637 1265Q596 1282 523 1342T381 1474T281 1600L434 1737Z" />
<glyph unicode="&#xf3;" glyph-name="oacute" horiz-adv-x="1135" d="M866 1733L1018 1596Q999 1561 930 1488T779 1349T642 1261L559 1332L866 1733ZM851 1156T946 1033T1041 682Q1041 502 969 341T769 82T479 -16Q288 -16 189 108T89 458Q89 637 163 798T369
1057T661 1156Q851 1156 946 1033ZM614 131T688 213T799 421T836 678Q836 842 788 925T630 1009Q524 1009 448 927T332 719T292 463Q292 303 345 217T509 131Q614 131 688 213Z" />
<glyph unicode="&#xf4;" glyph-name="ocircumflex" horiz-adv-x="1135" d="M651 1690H829L1019 1316L925 1248L714 1512L401 1239L324 1316L651 1690ZM851 1156T946 1033T1041 682Q1041 502 969 341T769 82T479 -16Q288 -16 189 108T89 458Q89 637 163 798T369
1057T661 1156Q851 1156 946 1033ZM614 131T688 213T799 421T836 678Q836 842 788 925T630 1009Q524 1009 448 927T332 719T292 463Q292 303 345 217T509 131Q614 131 688 213Z" />
<glyph unicode="&#xf5;" glyph-name="otilde" horiz-adv-x="1135" d="M851 1156T946 1033T1041 682Q1041 502 969 341T769 82T479 -16Q288 -16 189 108T89 458Q89 637 163 798T369 1057T661 1156Q851 1156 946 1033ZM614 131T688 213T799 421T836 678Q836 842
788 925T630 1009Q524 1009 448 927T332 719T292 463Q292 303 345 217T509 131Q614 131 688 213ZM286 1527T332 1566T434 1630T542 1654Q599 1654 637 1633T718 1571Q749 1542 770 1528T819 1514Q860 1514 887 1536T945 1601L963 1624L1048 1535Q1031 1485 990
1443T892 1377T780 1352Q738 1352 707 1363T654 1390T604 1432Q571 1462 546 1477T487 1492Q451 1492 427 1475T370 1421L352 1401L265 1485Q286 1527 332 1566Z" />
<glyph unicode="&#xf6;" glyph-name="odieresis" horiz-adv-x="1135" d="M329 1541T349 1575T403 1630T474 1651Q528 1651 562 1619T596 1541Q596 1502 575 1467T519 1410T444 1388Q397 1388 363 1422T329 1503Q329 1541 349 1575ZM749 1541T769 1575T823 1630T894
1651Q948 1651 982 1619T1016 1541Q1016 1502 995 1467T939 1410T864 1388Q817 1388 783 1422T749 1503Q749 1541 769 1575ZM851 1156T946 1033T1041 682Q1041 502 969 341T769 82T479 -16Q288 -16 189 108T89 458Q89 637 163 798T369 1057T661 1156Q851 1156 946
1033ZM614 131T688 213T799 421T836 678Q836 842 788 925T630 1009Q524 1009 448 927T332 719T292 463Q292 303 345 217T509 131Q614 131 688 213Z" />
<glyph unicode="&#xf7;" glyph-name="divide" horiz-adv-x="1338" d="M589 1180T616 1217T684 1276T765 1298Q826 1298 856 1269T887 1191Q887 1145 861 1107T794 1048T712 1026Q661 1026 625 1056T589 1136Q589 1180 616 1217ZM1128 853L1110 696H241L259 853H1128ZM493
405T519 442T587 502T669 524Q729 524 759 494T790 417Q790 370 765 333T699 274T616 252Q564 252 529 282T493 362Q493 405 519 442Z" />
<glyph unicode="&#xf8;" glyph-name="oslash" horiz-adv-x="1135" d="M1042 936T1042 684Q1042 504 970 343T770 84T480 -14Q343 -14 251 52L123 -132L34 -83L178 125Q90 248 90 460Q90 639 164 800T370 1059T662 1158Q769 1158 847 1118L977 1303L1066 1254L928
1057Q1042 936 1042 684ZM525 1011T449 929T333 721T293 465Q293 372 311 304L741 980Q696 1011 631 1011Q525 1011 449 929ZM615 133T689 215T800 423T837 680Q837 817 805 894L362 197Q415 133 510 133Q615 133 689 215Z" />
<glyph unicode="&#xf9;" glyph-name="ugrave" horiz-adv-x="1173" d="M1083 1140L932 0H750L772 218Q690 111 585 46T364 -20Q230 -20 166 48T102 270Q102 333 123 498Q159 782 213 1140H409Q390 1002 368 849Q335 611 320 497Q301 351 301 282Q301 206 333 179T436
151Q519 151 618 227T792 413L888 1140H1083ZM463 1737L751 1335L666 1265Q625 1282 552 1342T410 1474T310 1600L463 1737Z" />
<glyph unicode="&#xfa;" glyph-name="uacute" horiz-adv-x="1173" d="M895 1733L1047 1596Q1028 1561 959 1488T808 1349T671 1261L588 1332L895 1733ZM1083 1140L932 0H750L772 218Q690 111 585 46T364 -20Q230 -20 166 48T102 270Q102 333 123 498Q159 782 213
1140H409Q390 1002 368 849Q335 611 320 497Q301 351 301 282Q301 206 333 179T436 151Q519 151 618 227T792 413L888 1140H1083Z" />
<glyph unicode="&#xfb;" glyph-name="ucircumflex" horiz-adv-x="1173" d="M680 1690H858L1048 1316L954 1248L743 1512L430 1239L353 1316L680 1690ZM1083 1140L932 0H750L772 218Q690 111 585 46T364 -20Q230 -20 166 48T102 270Q102 333 123 498Q159 782 213
1140H409Q390 1002 368 849Q335 611 320 497Q301 351 301 282Q301 206 333 179T436 151Q519 151 618 227T792 413L888 1140H1083Z" />
<glyph unicode="&#xfc;" glyph-name="udieresis" horiz-adv-x="1173" d="M358 1541T378 1575T432 1630T503 1651Q557 1651 591 1619T625 1541Q625 1502 604 1467T548 1410T473 1388Q426 1388 392 1422T358 1503Q358 1541 378 1575ZM778 1541T798 1575T852 1630T923
1651Q977 1651 1011 1619T1045 1541Q1045 1502 1024 1467T968 1410T893 1388Q846 1388 812 1422T778 1503Q778 1541 798 1575ZM1083 1140L932 0H750L772 218Q690 111 585 46T364 -20Q230 -20 166 48T102 270Q102 333 123 498Q159 782 213 1140H409Q390 1002 368
849Q335 611 320 497Q301 351 301 282Q301 206 333 179T436 151Q519 151 618 227T792 413L888 1140H1083Z" />
<glyph unicode="&#xfd;" glyph-name="yacute" horiz-adv-x="1050" d="M1003 1102T1003 1081Q1003 1045 1000 1007Q974 651 750 229Q637 15 501 -154Q489 -169 488 -170Q410 -268 343 -335T175 -451T-53 -501Q-80 -501 -122 -493T-195 -474L-139 -312Q-135 -314
-119 -322T-78 -336T-20 -342Q48 -342 112 -314T249 -215T411 -16H289L224 359L115 1140H331L415 359L455 57L558 239Q758 560 802 1006Q807 1066 809 1140H1001Q1003 1102 1003 1081ZM787 1737L939 1600Q920 1565 851 1492T700 1353T563 1265L480 1336L787 1737Z"
/>
<glyph unicode="&#xfe;" glyph-name="thorn" horiz-adv-x="1163" d="M914 1156T992 1041T1070 724Q1070 555 999 384T781 98T422 -16Q358 -16 278 -1L258 -136L202 -516H12L83 -16L302 1638H487L432 1147L396 954Q462 1039 556 1097T760 1156Q914 1156 992 1041ZM587
127T681 216T821 439T868 700Q868 856 831 930T725 1004Q628 1004 536 930T380 760L300 151Q370 127 453 127Q587 127 681 216Z" />
<glyph unicode="&#xff;" glyph-name="ydieresis" horiz-adv-x="1050" d="M1003 1102T1003 1081Q1003 1045 1000 1007Q974 651 750 229Q637 15 501 -154Q489 -169 488 -170Q410 -268 343 -335T175 -451T-53 -501Q-80 -501 -122 -493T-195 -474L-139 -312Q-135 -314
-119 -322T-78 -336T-20 -342Q48 -342 112 -314T249 -215T411 -16H289L224 359L115 1140H331L415 359L455 57L558 239Q758 560 802 1006Q807 1066 809 1140H1001Q1003 1102 1003 1081ZM250 1545T270 1579T324 1634T395 1655Q449 1655 483 1623T517 1545Q517 1506
496 1471T440 1414T365 1392Q318 1392 284 1426T250 1507Q250 1545 270 1579ZM670 1545T690 1579T744 1634T815 1655Q869 1655 903 1623T937 1545Q937 1506 916 1471T860 1414T785 1392Q738 1392 704 1426T670 1507Q670 1545 690 1579Z" />
<glyph unicode="&#x2013;" glyph-name="endash" horiz-adv-x="1538" d="M1345 851L1315 694H218L248 851H1345Z" />
<glyph unicode="&#x2014;" glyph-name="emdash" horiz-adv-x="2031" d="M1838 851L1808 694H218L247 851H1838Z" />
<glyph unicode="&#x2018;" glyph-name="quoteleft" horiz-adv-x="682" d="M189 1381T238 1480T357 1642T503 1741L578 1630L576 1608Q539 1589 500 1543T433 1432T406 1291Q406 1230 429 1177T498 1084L493 1043L371 927Q328 945 286 992T217 1106T189 1250Q189
1381 238 1480Z" />
<glyph unicode="&#x2019;" glyph-name="quoteright" horiz-adv-x="682" d="M603 1276T554 1177T435 1015T289 916L214 1027L216 1049Q253 1068 292 1114T359 1225T386 1366Q386 1427 363 1480T294 1573L299 1614L421 1730Q464 1712 506 1665T575 1551T603 1407Q603
1276 554 1177Z" />
<glyph unicode="&#x201a;" glyph-name="quotesinglbase" horiz-adv-x="682" d="M489 -163T440 -262T321 -424T175 -523L100 -412L102 -390Q139 -371 178 -325T245 -214T272 -73Q272 -12 249 41T180 134L185 175L307 291Q350 273 392 226T461 112T489 -32Q489 -163
440 -262Z" />
<glyph unicode="&#x201c;" glyph-name="quotedblleft" horiz-adv-x="1161" d="M668 1381T717 1480T836 1642T982 1741L1057 1630L1055 1608Q1018 1589 979 1543T912 1432T885 1291Q885 1230 908 1177T977 1084L972 1043L850 927Q807 945 765 992T696 1106T668
1250Q668 1381 717 1480ZM189 1381T238 1480T357 1642T503 1741L578 1630L576 1608Q539 1589 500 1543T433 1432T406 1291Q406 1230 429 1177T498 1084L493 1043L371 927Q328 945 286 992T217 1106T189 1250Q189 1381 238 1480Z" />
<glyph unicode="&#x201d;" glyph-name="quotedblright" horiz-adv-x="1161" d="M673 1276T624 1177T505 1015T359 916L284 1027L286 1049Q323 1068 362 1114T429 1225T456 1366Q456 1427 433 1480T364 1573L369 1614L491 1730Q534 1712 576 1665T645 1551T673
1407Q673 1276 624 1177ZM1152 1276T1103 1177T984 1015T838 916L763 1027L765 1049Q802 1068 841 1114T908 1225T935 1366Q935 1427 912 1480T843 1573L848 1614L970 1730Q1013 1712 1055 1665T1124 1551T1152 1407Q1152 1276 1103 1177Z" />
<glyph unicode="&#x201e;" glyph-name="quotedblbase" horiz-adv-x="1161" d="M489 -163T440 -262T321 -424T175 -523L100 -412L102 -390Q139 -371 178 -325T245 -214T272 -73Q272 -12 249 41T180 134L185 175L307 291Q350 273 392 226T461 112T489 -32Q489 -163
440 -262ZM968 -163T919 -262T800 -424T654 -523L579 -412L581 -390Q618 -371 657 -325T724 -214T751 -73Q751 -12 728 41T659 134L664 175L786 291Q829 273 871 226T940 112T968 -32Q968 -163 919 -262Z" />
<glyph unicode="&#x2022;" glyph-name="bullet" horiz-adv-x="858" d="M233 743T266 803T358 901T484 939Q534 939 574 917T637 855T660 767Q660 706 629 646T540 546T409 507Q360 507 320 530T256 594T233 683Q233 743 266 803Z" />
<glyph unicode="&#x2039;" glyph-name="guilsinglleft" horiz-adv-x="1190" d="M948 1086L986 971L476 615L890 264L820 152L234 530L256 690L948 1086Z" />
<glyph unicode="&#x203a;" glyph-name="guilsinglright" horiz-adv-x="1190" d="M213 152L175 267L685 623L271 974L341 1086L927 708L905 548L213 152Z" />
</font>
</defs>
</svg>
