<?xml version="1.0" standalone="no"?>
<!DOCTYPE svg PUBLIC "-//W3C//DTD SVG 1.1//EN" "http://www.w3.org/Graphics/SVG/1.1/DTD/svg11.dtd">
<svg xmlns="http://www.w3.org/2000/svg">
<defs >
<font id="Kreon" horiz-adv-x="462" ><font-face
    font-family="Kreon Light"
    units-per-em="1000"
    panose-1="2 0 5 6 0 0 0 2 0 3"
    ascent="974"
    descent="-286"
    alphabetic="0" />
<glyph unicode=" " glyph-name="space" horiz-adv-x="240" />
<glyph unicode="!" glyph-name="exclam" horiz-adv-x="253" d="M95 228L77 679L159 691L180 653L153 228H95ZM102 -3T87 12T72 48T87 85T123 101T160 86T176 49T161 12T124 -3Z" />
<glyph unicode="&quot;" glyph-name="quotedbl" horiz-adv-x="284" d="M60 500L43 689L118 694L127 672L105 501L60 500ZM175 501L158 689L233 694L243 672L221 501H175Z" />
<glyph unicode="#" glyph-name="numbersign" horiz-adv-x="593" d="M37 251L30 291L37 303H173L210 423H92L85 463L92 476H227L288 670H339L347 656L290 476H379L440 670H489L497 656L441 476H554Q560 476 560 469V423H424L387 303H509Q515 303 515 296V251H371L308
48H259L250 61L309 251H219L155 48H106L97 61L156 251H37ZM235 303H325L363 423H273L235 303Z" />
<glyph unicode="$" glyph-name="dollar" horiz-adv-x="474" d="M214 -108V-4Q121 -2 56 29L45 183H103L130 84Q168 66 214 64V334Q130 372 102 397T59 451T45 517T58 584T95 634Q141 678 214 688V770H272V690Q328 687 402 659L415 505H360L318 611Q295 620 272
623V386L287 380Q409 323 430 240Q437 215 437 183T424 118T389 62Q346 15 272 0V-108H214ZM310 80T338 107T366 176T349 248T280 304Q274 306 272 308V70Q310 80 338 107ZM124 565Q116 549 116 527T124 487T146 456Q170 431 214 411V622Q147 611 124 565Z" />
<glyph unicode="%" glyph-name="percent" horiz-adv-x="636" d="M124 0H77L74 13L516 692H559L558 677L124 0ZM406 171V167Q406 91 440 60Q453 48 473 48T507 60T528 92Q542 126 542 171Q542 248 508 280Q494 292 473 292Q419 292 410 209Q407 188 406 171ZM348
171V177Q348 243 377 289Q411 344 473 344Q538 344 572 287Q599 240 599 171Q599 59 532 12Q508 -4 472 -4T413 12T375 55Q350 101 348 171ZM96 518V514Q96 438 130 407Q143 395 163 395T197 407T218 438Q232 472 232 518Q232 595 198 626Q184 638 163 638Q126
638 109 595Q99 569 96 518ZM38 518V524Q38 588 67 636Q101 691 163 691Q227 691 261 634Q289 587 289 518Q289 404 223 358Q199 342 163 342T103 359T65 402Q40 446 38 518Z" />
<glyph unicode="&amp;" glyph-name="ampersand" horiz-adv-x="602" d="M400 558Q400 458 274 364L313 312Q342 264 410 183Q447 248 465 341H424L411 398H533L540 386Q531 313 496 217Q483 183 468 155L455 131Q514 65 536 65Q547 65 571 77Q576 42 588 6Q568
-1 548 -1Q495 -1 419 77Q351 -4 243 -4Q147 -4 90 52Q35 104 35 178Q35 242 82 302Q119 351 179 388L172 401Q163 417 153 433T134 466Q115 506 115 535T123 589T150 636Q193 690 266 690Q319 690 358 654Q400 616 400 558ZM373 128Q323 189 238 309Q222 328 214
340Q165 304 146 277Q108 227 108 173Q108 121 151 88Q190 59 235 59Q317 59 373 128ZM242 407Q336 482 336 551Q336 581 322 599Q298 632 268 632T223 625T198 604Q180 581 180 547T198 479T242 407Z" />
<glyph unicode="&apos;" glyph-name="quotesingle" horiz-adv-x="170" d="M61 501L44 689L119 694L128 672L106 501H61Z" />
<glyph unicode="(" glyph-name="parenleft" horiz-adv-x="258" d="M164 -162Q54 68 54 290Q54 437 92 572Q120 668 164 742H224Q160 622 134 438Q125 369 125 290T136 142T162 14Q181 -55 224 -162H164Z" />
<glyph unicode=")" glyph-name="parenright" horiz-adv-x="259" d="M205 290Q205 68 95 -162H35Q78 -55 95 8Q134 154 134 291Q134 499 68 667Q51 712 35 742H95Q166 622 194 443Q205 372 205 290Z" />
<glyph unicode="*" glyph-name="asterisk" horiz-adv-x="332" d="M188 691L196 681L176 576L260 649L290 611L286 600L187 558L291 519L272 476L259 472L175 541L192 429L145 425L136 435L155 539L72 467L44 505L46 517L146 558L41 597L61 640L72 644L156 575L140
687L188 691ZM159 558L163 552H170L173 558L169 564H163L159 558Z" />
<glyph unicode="+" glyph-name="plus" horiz-adv-x="438" d="M244 547V378H404V315H244V134H193L181 142V315H32V365L40 378H181V547H244Z" />
<glyph unicode="," glyph-name="comma" horiz-adv-x="199" d="M131 128Q140 92 140 65T135 13T119 -35Q96 -88 69 -113L33 -95V-81L76 -1L53 115L131 128Z" />
<glyph unicode="-" glyph-name="hyphen" horiz-adv-x="377" d="M63 251V306L71 314H308Q314 314 314 307V251H63Z" />
<glyph unicode="." glyph-name="period" horiz-adv-x="206" d="M81 -3T66 12T51 48T66 85T102 101T139 86T155 49T140 12T103 -3Z" />
<glyph unicode="/" glyph-name="slash" horiz-adv-x="437" d="M75 0H27L24 13L363 692H414L413 677L75 0Z" />
<glyph unicode="0" glyph-name="zero" horiz-adv-x="567" d="M53 344Q53 488 107 583Q169 692 284 692Q398 692 460 583Q514 488 514 344Q514 200 460 105Q398 -4 284 -4Q169 -4 107 105Q53 200 53 344ZM122 344Q122 158 207 88Q238 63 284 63Q367 63 410 154Q445
229 445 344Q445 529 360 600Q330 625 284 625Q200 625 157 534Q122 460 122 344Z" />
<glyph unicode="1" glyph-name="one" horiz-adv-x="327" d="M41 49L146 68V601L43 581L34 638L192 692L214 682V68L308 55V0H48L41 49Z" />
<glyph unicode="2" glyph-name="two" horiz-adv-x="504" d="M48 0L38 58Q60 83 93 114T163 180T236 256T302 338Q368 433 368 513Q368 574 323 605Q289 628 248 628Q189 628 155 609L154 607Q153 606 148 598Q141 583 107 521L34 566Q72 629 123 660T234 692T329
678T389 638Q438 588 438 508Q438 437 377 340Q335 273 250 181Q207 135 143 75L131 63H374L408 171H457L437 0H48Z" />
<glyph unicode="3" glyph-name="three" horiz-adv-x="515" d="M71 112Q142 59 235 59Q298 59 342 92Q389 127 389 188Q389 267 311 298Q257 319 162 319H147V382Q245 382 286 398T350 442T372 518Q372 567 332 598Q293 628 242 628Q187 628 157 607L111 521L37
566Q72 629 123 660T250 692Q325 692 382 647Q445 598 445 520Q445 464 413 417Q382 371 328 353Q384 342 422 302Q464 256 464 197T444 101T392 40Q330 -4 232 -4Q123 -4 36 55L71 112Z" />
<glyph unicode="4" glyph-name="four" horiz-adv-x="508" d="M382 73Q444 59 462 59V2H162V56L314 72V200H39L8 264L314 691H382V268H467V200H382V73ZM314 268V592L85 268H314Z" />
<glyph unicode="5" glyph-name="five" horiz-adv-x="502" d="M172 390Q133 390 80 382V657L111 690H442V623H143V451Q159 453 174 453H203Q318 453 386 393Q456 331 456 231Q456 126 387 60Q319 -4 214 -4Q103 -4 29 55L65 112Q94 86 134 73T213 59T282 71T336
106Q384 155 384 226Q384 318 317 358Q264 390 172 390Z" />
<glyph unicode="6" glyph-name="six" horiz-adv-x="563" d="M153 378T199 404T297 430T388 415T456 371Q515 313 515 219Q515 123 456 60Q395 -4 298 -4Q230 -4 183 28T107 108Q51 202 51 329Q51 463 110 568Q153 644 228 676Q266 692 311 692T391 682T450 658Q492
634 511 612L438 541L386 613Q354 629 308 629T226 599T166 524Q124 440 124 336Q153 378 199 404ZM301 59Q336 59 363 73T408 110Q443 155 443 219T404 325T296 367Q234 367 186 321Q140 276 140 211Q150 147 191 104Q234 59 301 59Z" />
<glyph unicode="7" glyph-name="seven" horiz-adv-x="427" d="M102 625L72 513H30V690H399L417 665L196 0H126L121 14L345 625H102Z" />
<glyph unicode="8" glyph-name="eight" horiz-adv-x="513" d="M174 692T255 692T383 651T430 533Q430 486 401 450T321 373Q438 303 459 228Q466 202 466 171T453 109T414 52Q355 -4 254 -4Q153 -4 96 52Q47 102 47 172Q47 265 138 334Q163 353 188 369Q143 400
112 438T80 539T127 647ZM139 250T127 227T115 174T126 124T157 88Q196 59 254 59Q314 59 354 88Q397 121 397 173Q397 247 298 302Q248 330 243 335Q222 320 200 304T158 269ZM346 485T354 502T362 542T352 581T326 608Q295 629 254 629Q219 629 195 615T160 584T148
543T156 500T179 465Q198 445 265 405Q315 447 330 466Z" />
<glyph unicode="9" glyph-name="nine" horiz-adv-x="535" d="M380 294T339 276T251 257T167 275T104 323Q51 385 51 473Q51 558 98 618Q155 691 256 691Q460 691 478 406Q480 365 480 308T463 190T413 85Q347 -4 240 -4Q126 -4 46 64L89 124Q130 83 192 65Q212
59 238 59T294 71T350 115Q403 183 407 329Q380 294 339 276ZM316 614Q291 628 261 628T207 618T164 588Q124 546 124 478Q124 413 158 368Q193 321 259 321Q307 321 348 355Q391 390 401 444Q385 576 316 614Z" />
<glyph unicode=":" glyph-name="colon" horiz-adv-x="230" d="M94 177T79 192T63 228T78 265T115 281T152 266T167 229T152 192T116 177ZM94 387T79 402T63 438T78 475T115 491T152 476T167 439T152 402T116 387Z" />
<glyph unicode=";" glyph-name="semicolon" horiz-adv-x="228" d="M56 -95L92 -113Q119 -88 136 -50Q163 13 163 61Q163 92 154 128L76 115L99 -1L56 -81V-95ZM87 207T72 222T56 258T71 295T108 311T145 296T160 259T145 222T109 207Z" />
<glyph unicode="&lt;" glyph-name="less" horiz-adv-x="401" d="M326 484L120 339L326 195V124L29 332V348L326 553V484Z" />
<glyph unicode="=" glyph-name="equal" horiz-adv-x="438" d="M68 310H370V247H68V310ZM68 434H370V371H68V434Z" />
<glyph unicode="&gt;" glyph-name="greater" horiz-adv-x="401" d="M75 553L372 348V332L75 124V195L281 339L75 484V553Z" />
<glyph unicode="?" glyph-name="question" horiz-adv-x="397" d="M161 251L162 238L104 237Q102 247 102 274T116 327T151 370T196 405T242 440Q291 483 291 543Q291 578 275 594Q244 627 192 627Q156 627 125 618L98 522H47L66 665Q143 690 193 690T274 679T326
648Q365 610 365 547Q365 453 270 384Q242 364 210 343Q161 310 161 251ZM118 -3T103 12T87 48T102 85T139 101T176 86T191 49T176 12T140 -3Z" />
<glyph unicode="@" glyph-name="at" horiz-adv-x="807" d="M498 28Q460 -4 397 -4Q317 -4 267 50Q214 106 214 202Q214 315 282 368Q332 408 400 408Q445 408 485 389L528 409L550 403V85Q550 59 582 59Q623 59 656 115Q687 169 687 231T668 345T614 434Q540 512
417 512Q285 512 197 426Q110 340 110 215Q110 154 132 98T194 -2T287 -71T405 -97T525 -75L538 -79L521 -143Q462 -160 393 -160T258 -129T144 -46T69 74T42 218T72 358T155 472T275 547T419 575Q568 575 662 478Q755 384 755 230Q755 141 710 72Q660 -4 579 -4Q522
-4 498 28ZM482 325Q447 345 405 345Q329 345 295 278Q281 251 281 206T293 132T324 87Q356 59 401 59T482 84V325Z" />
<glyph unicode="A" glyph-name="A" horiz-adv-x="570" d="M364 0V44L445 65L392 241H169L117 62L205 45V0H11L-2 47L52 65L243 691H327L519 65L566 47L555 0H364ZM279 616L188 304H373L279 616Z" />
<glyph unicode="B" glyph-name="B" horiz-adv-x="557" d="M181 314V68H309Q378 68 411 108Q439 142 439 195Q439 246 398 280T293 314H181ZM409 505Q409 587 330 614Q301 623 261 623H181V377H276Q341 377 378 417Q409 451 409 505ZM480 510Q480 401 392 354Q445
330 466 306Q510 257 510 187Q510 94 449 46Q391 0 289 0H62L55 56L112 68V627L55 632V691H263Q366 691 424 638Q480 589 480 510Z" />
<glyph unicode="C" glyph-name="C" horiz-adv-x="556" d="M378 64Q445 64 500 99L525 38Q499 20 457 8T373 -4Q224 -4 130 96Q40 192 40 346Q40 416 64 479T133 589Q228 691 375 691Q429 691 492 678L510 520H453L429 618Q421 619 412 621T377 623Q258 623 183
539Q113 461 111 348Q113 225 180 148Q253 64 378 64Z" />
<glyph unicode="D" glyph-name="D" horiz-adv-x="605" d="M55 56L112 69V627L55 632V691H198Q361 691 456 608Q561 516 561 349Q561 175 466 86Q376 0 211 0H62L55 56ZM490 353Q490 409 471 459T416 546Q341 623 208 623H181V68H225Q369 68 436 156Q490 228 490 353Z" />
<glyph unicode="E" glyph-name="E" horiz-adv-x="523" d="M55 632V691H453L473 520H425L391 623H181V377H343V314H181V68H401L436 171H483L464 0H62L55 56L112 68V627L55 632Z" />
<glyph unicode="F" glyph-name="F" horiz-adv-x="492" d="M328 0H61L55 56L112 68V627L55 632V691H453L474 520H426L391 624H181V377H343V314H181V72L333 51L328 0Z" />
<glyph unicode="G" glyph-name="G" horiz-adv-x="607" d="M226 104T277 84T386 64T475 71V238L352 252L370 313H544V17Q473 -4 392 -4T248 21T138 92Q40 189 40 340Q40 496 134 592Q231 691 386 691Q453 691 525 673L536 519H473L450 618Q412 623 381 623Q255
623 180 541Q111 464 111 343Q111 219 189 141Q226 104 277 84Z" />
<glyph unicode="H" glyph-name="H" horiz-adv-x="656" d="M476 64V324H180V64L238 60V0H62L57 56L112 64V627L54 631V691H231L235 635L180 627V387H476V627L418 631V691H594L599 635L544 627V64L602 60V0H425L421 56L476 64Z" />
<glyph unicode="I" glyph-name="I" horiz-adv-x="293" d="M112 64V627L55 631V691H231L235 635L181 627V64L238 60V0H62L58 56L112 64Z" />
<glyph unicode="J" glyph-name="J" horiz-adv-x="358" d="M50 102Q90 62 138 62Q159 62 174 75T189 123V627L116 635L122 691H315V631L257 627V144Q257 51 207 16Q178 -4 139 -4Q66 -4 11 44L50 102Z" />
<glyph unicode="K" glyph-name="K" horiz-adv-x="594" d="M112 64V627L55 631V691H231L235 635L181 627V286L461 631L382 637V691H572V635L538 628L338 381L517 66L577 57V0H471L291 323L181 187V64L238 60V0H62L58 56L112 64Z" />
<glyph unicode="L" glyph-name="L" horiz-adv-x="496" d="M54 631V691H240L244 635L180 627V68H400L435 171H482L463 0H61L54 56L111 64V627L54 631Z" />
<glyph unicode="M" glyph-name="M" horiz-adv-x="831" d="M226 691L421 87L608 691H766L772 631L720 626V67L780 55V0H600L595 55L651 68V636L458 15H371L175 623V66L238 56V0H62L54 56L112 68V627L55 632V691H226Z" />
<glyph unicode="N" glyph-name="N" horiz-adv-x="659" d="M174 629V66L241 56V0H62L54 56L112 68V627L54 632V691H221L491 75V625L427 635V691H605L615 635L554 623V0H449L174 629Z" />
<glyph unicode="O" glyph-name="O" horiz-adv-x="645" d="M323 -4Q190 -4 116 106Q50 203 50 343Q50 483 116 580Q149 629 200 660T323 691Q394 691 445 660T530 580Q595 482 595 343Q595 204 530 106Q497 57 446 27T323 -4ZM121 341Q121 227 167 152Q220 64 323
64Q425 64 478 152Q524 227 524 341Q524 456 478 533Q424 623 323 623Q221 623 167 533Q121 456 121 341Z" />
<glyph unicode="P" glyph-name="P" horiz-adv-x="520" d="M235 332Q344 332 388 378Q423 413 423 480Q423 551 372 588Q325 623 245 623H181V332H235ZM55 55L112 68V627L55 632V691H219Q368 691 438 623Q494 569 494 481Q494 372 416 315Q346 264 238 264H181V70L321
51V0H62L55 55Z" />
<glyph unicode="Q" glyph-name="Q" horiz-adv-x="649" d="M417 -191Q334 -124 260 -56L283 -29L496 -102L501 -130L417 -191ZM325 -4Q192 -4 116 106Q50 203 50 343Q50 483 116 580Q150 629 202 660T325 691Q396 691 448 660T534 580Q600 481 600 343Q600 205
534 106Q500 57 448 27T325 -4ZM123 341Q123 227 169 152Q222 64 325 64Q427 64 480 152Q526 227 526 341Q526 456 480 534Q426 624 325 624Q223 624 169 534Q123 456 123 341Z" />
<glyph unicode="R" glyph-name="R" horiz-adv-x="544" d="M272 266Q250 264 228 264H181V70L259 51V0H62L55 55L112 68V627L55 632V691H229Q416 691 474 576Q494 536 494 488T483 408T450 352Q410 303 343 282L445 65L510 51V0H392L272 266ZM235 332Q423 332 423
480Q423 552 374 590Q331 623 255 623H181V332H235Z" />
<glyph unicode="S" glyph-name="S" horiz-adv-x="491" d="M112 183L139 84Q181 64 220 64T284 71T330 92Q375 125 375 181Q375 219 358 248T295 300T208 341T132 382T76 437T54 515T70 591T115 645Q174 691 257 691Q326 691 411 659L424 505H369L327 611Q296 624
261 624T204 618T164 600Q125 573 125 534T141 473T181 434T236 406T304 376T370 336T416 289Q446 246 446 195T429 107T382 46Q322 -4 233 -4Q135 -4 65 29L54 183H112Z" />
<glyph unicode="T" glyph-name="T" horiz-adv-x="547" d="M127 0V52L240 70V623H103L64 526H18L41 691H506L529 526H483L444 623H308V70L423 52V0H127Z" />
<glyph unicode="U" glyph-name="U" horiz-adv-x="628" d="M417 631V691H587L591 635L536 627V202Q536 106 471 50Q409 -4 313 -4T157 52Q96 109 96 202V627L38 631V691H215L219 635L164 627V213Q164 141 205 102T319 63Q426 63 462 144Q474 172 474 213V627L417 631Z" />
<glyph unicode="V" glyph-name="V" horiz-adv-x="562" d="M205 691V647L117 626L284 111L455 629L364 646V691H560V644L520 626L312 0H247L44 626L8 644V691H205Z" />
<glyph unicode="W" glyph-name="W" horiz-adv-x="856" d="M201 691V647L123 626L236 88L391 668H476L628 82L742 629L664 646V691H846V644L806 626L673 0H582L431 576L281 0H181L52 626L13 644V691H201Z" />
<glyph unicode="X" glyph-name="X" horiz-adv-x="566" d="M20 0V54L65 61L240 347L69 627L22 638V691H217V648L146 633L288 401L417 633L358 643V691H537V637L492 630L325 341L490 75L554 52V0H356V52L418 58L276 289L139 58L197 48V0H20Z" />
<glyph unicode="Y" glyph-name="Y" horiz-adv-x="539" d="M189 691V638L126 628L278 330L418 629L357 637V691H529V631L486 621L305 243V70L420 52L411 0H131L121 52L237 70V257L50 622L7 631V691H189Z" />
<glyph unicode="Z" glyph-name="Z" horiz-adv-x="542" d="M487 604L127 68H426L446 170H493V0H56L47 75L415 623H119L99 521H52V691H477L487 604Z" />
<glyph unicode="[" glyph-name="bracketleft" horiz-adv-x="306" d="M88 669H294Q300 669 300 661V607H149V-117H300V-171Q300 -179 294 -179H94L81 -163V655L88 669Z" />
<glyph unicode="\" glyph-name="backslash" horiz-adv-x="453" d="M23 681L24 691H90L429 13L426 0H365L23 681Z" />
<glyph unicode="]" glyph-name="bracketright" horiz-adv-x="306" d="M225 655V-163L212 -179H12Q6 -179 6 -171V-117H157V607H6V661Q6 669 12 669H218L225 655Z" />
<glyph unicode="^" glyph-name="asciicircum" horiz-adv-x="352" d="M52 582L169 724H184L300 584L297 577H242L176 646L110 577H56L52 582Z" />
<glyph unicode="_" glyph-name="underscore" horiz-adv-x="573" d="M10 -63V-13L22 0H557Q563 0 563 -7V-63H10Z" />
<glyph unicode="`" glyph-name="grave" horiz-adv-x="284" d="M195 553L55 673L99 726H125L229 586L195 553Z" />
<glyph unicode="a" glyph-name="a" horiz-adv-x="448" d="M308 40Q260 -4 190 -4Q128 -4 86 31Q41 68 41 123T68 210T136 258Q200 285 303 288V352Q303 384 279 403T215 422Q167 422 146 409L130 356L48 371Q65 423 112 452Q154 479 209 479Q292 479 329 441T366
337V79Q366 50 389 50Q398 50 410 55L421 17Q400 -4 366 -4Q320 -4 308 40ZM128 184Q107 164 107 130T131 75T192 53Q267 53 303 108V232Q178 232 128 184Z" />
<glyph unicode="b" glyph-name="b" horiz-adv-x="484" d="M127 22Q96 0 91 0H75V661L14 657L6 709L111 727L138 697V442Q183 479 240 479T333 460T394 408Q442 342 442 242Q442 140 392 72Q336 -4 235 -4Q172 -4 127 22ZM138 85Q178 53 225 53T300 69T345 112Q376
160 376 237Q376 359 305 405Q279 422 246 422T183 408T138 371V85Z" />
<glyph unicode="c" glyph-name="c" horiz-adv-x="405" d="M377 31Q332 -4 248 -4Q147 -4 92 68Q43 133 43 233Q43 400 155 458Q194 479 244 479Q333 479 383 442L339 373L280 420Q272 422 261 422H244Q170 422 136 361Q109 312 109 232Q109 110 186 68Q214 53
264 53T360 80L377 31Z" />
<glyph unicode="d" glyph-name="d" horiz-adv-x="495" d="M249 479Q301 479 346 459V661L285 657L277 709L382 727L409 697V79Q409 50 432 50Q440 50 453 55L464 15Q445 -4 405 -4T352 37Q307 -4 248 -4T152 17T90 72Q42 138 42 235Q42 340 94 407Q149 479 249
479ZM346 387Q315 422 254 422Q180 422 140 364Q108 316 108 239Q108 117 182 70Q208 53 242 53Q313 53 346 104V387Z" />
<glyph unicode="e" glyph-name="e" horiz-adv-x="443" d="M398 34Q346 -4 259 -4Q154 -4 96 65Q42 129 42 232Q42 338 97 406Q155 479 252 479Q315 479 357 444Q401 408 401 351T374 262T303 213Q232 185 111 185Q121 127 157 90T263 52T381 88L398 34ZM125 244Q214
244 252 256T312 289T335 348Q335 385 308 405Q285 422 251 422T190 408T146 368Q110 317 108 244H125Z" />
<glyph unicode="f" glyph-name="f" horiz-adv-x="311" d="M230 670L212 671Q171 671 166 631Q164 620 164 608V479H274Q279 479 279 473V422H164V61L274 45V0H50L42 44L101 58V422H38L24 468L31 479H101V596Q101 654 129 690T223 727Q273 727 335 690L286 622L230 670Z" />
<glyph unicode="g" glyph-name="g" horiz-adv-x="476" d="M118 159Q47 208 47 303Q47 382 97 430Q148 479 223 479T346 438L437 483L456 480L466 412L379 401Q406 359 406 312T393 233T355 177Q304 128 226 128Q198 128 174 134L153 103L156 82Q177 76 195 71T231
61L261 54Q337 34 366 13T408 -33T421 -97T404 -169T358 -222Q301 -265 217 -265Q137 -265 82 -224Q22 -180 22 -105Q22 -36 81 10Q97 23 114 31Q81 53 81 86T118 159ZM141 -7T113 -34T85 -95T98 -147T132 -178Q172 -202 209 -202T272 -195T318 -176Q364 -148 364
-102Q364 -52 302 -27Q275 -16 242 -9T178 6Q141 -7 113 -34ZM226 422Q172 422 143 389T113 304Q113 253 142 219T226 185Q280 185 310 219T340 304Q340 355 310 388T226 422Z" />
<glyph unicode="h" glyph-name="h" horiz-adv-x="498" d="M266 422Q200 422 151 379V58L207 45V0H35L30 44L88 58V661H33L24 710L122 727L151 697V441Q206 479 273 479T377 443T414 334V58L475 44V0H295L291 44L351 58V327Q351 422 266 422Z" />
<glyph unicode="i" glyph-name="i" horiz-adv-x="249" d="M160 451V59L221 44V0H46L37 43L97 58V416L43 412L34 463L133 481L160 451ZM59 671Q59 693 74 708T111 724Q133 724 148 709T164 671Q164 649 149 634T111 619Q89 619 74 634T59 671Z" />
<glyph unicode="j" glyph-name="j" horiz-adv-x="228" d="M53 671Q53 693 68 708T105 724Q127 724 142 709T158 671Q158 649 143 634T105 619Q83 619 68 634T53 671ZM7 -190Q34 -217 58 -217T87 -199T92 -156V416L23 411L15 462L128 481L155 451V-166Q155 -213
140 -234Q111 -273 59 -273Q9 -273 -26 -238L7 -190Z" />
<glyph unicode="k" glyph-name="k" horiz-adv-x="458" d="M151 697V271L327 434H286L278 481H416L430 454L262 297L385 55L437 44V0H338L210 250L151 194V58L207 45V0H35L30 44L88 58V661H33L24 710L124 727L151 697Z" />
<glyph unicode="l" glyph-name="l" horiz-adv-x="241" d="M152 697V57L213 44V0H30L25 44L89 58V661H34L25 710L123 727L152 697Z" />
<glyph unicode="m" glyph-name="m" horiz-adv-x="767" d="M395 429Q459 479 533 479Q683 479 683 334V58L744 44V0H564L560 44L620 58V327Q620 422 535 422Q512 422 481 414T418 372Q421 354 421 334V58L482 44V0H302L298 44L358 58V327Q358 422 273 422Q206 422
158 380V59L219 44V0H46L40 43L95 58V420L41 416L32 463L133 481L155 440Q183 459 217 469T278 479Q358 479 395 429Z" />
<glyph unicode="n" glyph-name="n" horiz-adv-x="505" d="M273 422Q206 422 158 380V59L219 44V0H46L40 43L95 58V420L41 416L32 463L133 481L155 440Q211 479 279 479T384 443T421 334V58L482 44V0H302L298 44L358 58V327Q358 422 273 422Z" />
<glyph unicode="o" glyph-name="o" horiz-adv-x="489" d="M42 241Q42 288 55 332T94 409Q149 481 244 481Q345 481 398 407Q447 340 447 240Q447 140 398 72Q345 -4 244 -4Q147 -4 91 72Q42 139 42 241ZM122 325T115 291T108 226T115 165T140 110Q177 54 244 54Q315
54 351 112Q381 161 381 235Q381 356 308 406Q282 423 244 423T179 403T138 354Z" />
<glyph unicode="p" glyph-name="p" horiz-adv-x="500" d="M249 -4Q194 -4 154 16V-208L275 -229V-273H41L32 -229L91 -215V416L30 412L22 463L127 481L154 445Q201 479 257 479T349 460T410 408Q458 342 458 242Q458 140 408 72Q352 -4 249 -4ZM154 85Q194 53
241 53T316 69T361 112Q392 160 392 237Q392 359 321 405Q295 422 262 422T199 408T154 371V85Z" />
<glyph unicode="q" glyph-name="q" horiz-adv-x="483" d="M351 451L374 480L409 470V-215L468 -229V-273H232L225 -229L346 -202V32Q304 -4 237 -4Q152 -4 99 58Q42 125 42 234Q42 364 116 431Q171 481 238 481T351 451ZM336 399T311 411T258 423T204 415T157
386Q108 339 108 239Q108 140 154 92Q190 54 235 54T307 70T346 104V387Q336 399 311 411Z" />
<glyph unicode="r" glyph-name="r" horiz-adv-x="386" d="M159 440Q204 481 260 481Q329 481 377 415L301 378L267 424Q231 424 199 398Q159 367 159 312V64L299 44V0H46L37 44L96 58V415H42L34 463L132 480L159 440Z" />
<glyph unicode="s" glyph-name="s" horiz-adv-x="397" d="M201 481Q232 481 259 472T306 448Q344 422 361 384L283 355L260 406Q240 423 199 423Q171 423 153 412Q118 389 118 356Q118 324 142 306Q168 289 231 269T322 215T351 139T337 72T301 30Q256 -4 194
-4Q134 -4 87 29Q53 53 32 92L110 122L133 70Q160 54 200 54Q230 54 249 67Q285 92 285 124Q285 160 262 180Q241 197 176 220Q52 259 52 350Q52 411 96 446Q139 481 201 481Z" />
<glyph unicode="t" glyph-name="t" horiz-adv-x="303" d="M99 139L101 424H21L7 468L14 479H102L103 647L159 661L165 650Q164 626 164 603V479H270Q275 479 275 473V424H163V101Q163 74 174 64T211 54T272 80L289 29Q277 20 255 8T188 -4T121 27T99 106V139Z" />
<glyph unicode="u" glyph-name="u" horiz-adv-x="490" d="M348 37Q298 -4 231 -4Q129 -4 94 80Q82 110 82 156V415H28L19 463L120 481L145 453V159Q145 92 182 68Q204 54 238 54T302 68T344 101V415H290L283 463L383 482L407 453V73Q407 51 430 51L448 54L456
19Q450 12 435 4T399 -4Q359 -4 348 37Z" />
<glyph unicode="v" glyph-name="v" horiz-adv-x="439" d="M192 0L48 426H10L2 474L102 481L232 92L359 426H314L309 474L409 481L428 444L256 0H192Z" />
<glyph unicode="w" glyph-name="w" horiz-adv-x="665" d="M366 445L485 76L566 426H521L512 475L620 480L634 454L523 0H437L337 328L238 0H142L57 426H15L7 475L117 480L195 71L313 445H366Z" />
<glyph unicode="x" glyph-name="x" horiz-adv-x="456" d="M40 0L30 52H72L186 243L72 421H30V479H113L236 289L350 479H420V426H387L271 235L386 58H428V0H343L221 188L109 0H40Z" />
<glyph unicode="y" glyph-name="y" horiz-adv-x="449" d="M42 -185Q72 -215 100 -215Q136 -215 162 -152Q168 -135 173 -120L199 -47L45 425H11L3 474L98 480L235 54L367 425H331L323 474L419 480L436 445Q388 314 333 164T245 -74T202 -185T178 -228Q146 -273
99 -273Q57 -273 11 -237L42 -185Z" />
<glyph unicode="z" glyph-name="z" horiz-adv-x="428" d="M379 420L126 58H316L332 152H379V0H47V58L293 420H110L94 337H47V479H379V420Z" />
<glyph unicode="{" glyph-name="braceleft" horiz-adv-x="309" d="M125 27L126 106V131Q126 182 96 207T14 232V316Q59 316 92 342Q126 370 126 417V440L125 512V540Q125 699 248 699Q267 699 309 694L288 617L231 634L222 632Q191 619 191 527L193 426Q193 320
130 290Q111 280 78 276V272Q137 265 165 231T193 118L191 21Q191 -80 222 -93L231 -96L288 -79L309 -155Q275 -161 243 -161T188 -148T150 -113Q125 -74 125 -1V27Z" />
<glyph unicode="|" glyph-name="bar" horiz-adv-x="221" d="M139 666V-166H82V666H139Z" />
<glyph unicode="}" glyph-name="braceright" horiz-adv-x="310" d="M184 512L183 440V417Q183 370 218 342Q250 316 296 316V232Q244 232 214 207T183 131V106L184 27V-1Q184 -161 61 -161Q34 -161 0 -155L21 -79L78 -96L88 -93Q107 -85 112 -53T118 21L116 118Q116
197 144 231Q172 265 231 272V276Q170 284 144 316Q116 353 116 426L118 527Q118 564 113 594T88 632L78 634L21 617L0 694Q42 699 61 699Q184 699 184 540V512Z" />
<glyph unicode="~" glyph-name="asciitilde" horiz-adv-x="387" d="M359 601Q314 563 265 563Q246 563 230 569T198 581T166 594T131 600T96 586T74 554L31 580Q43 621 73 642T130 663T174 657T209 642Q251 621 266 621L322 663L359 601Z" />
<glyph unicode="&#xa0;" glyph-name="uni00A0" horiz-adv-x="0" />
<glyph unicode="&#xa1;" glyph-name="exclamdown" horiz-adv-x="239" d="M146 260L173 -165L152 -203L70 -191L88 260H146ZM95 387T80 402T65 439T80 476T116 491T153 476T169 440T154 403T117 387Z" />
<glyph unicode="&#xa2;" glyph-name="cent" horiz-adv-x="408" d="M371 31Q332 1 270 -3V-158H212V-2Q123 10 76 78Q32 142 32 233Q32 382 132 448Q165 471 212 477V609H270V478Q336 471 377 442L333 373L274 420L270 421V53Q316 57 354 80L371 31ZM98 233Q98
203 104 175T124 122Q153 70 212 57V420Q153 409 122 351Q98 304 98 233Z" />
<glyph unicode="&#xa3;" glyph-name="sterling" horiz-adv-x="487" d="M454 34Q404 -4 365 -4T298 3T244 18Q176 41 148 41T103 27T81 -4L27 14Q34 39 51 56T88 90T121 134T141 191Q151 235 151 329H81V383L88 392H151V527Q151 614 201 656Q242 691 305 691Q342
691 368 678Q407 657 425 642L377 576L318 626Q308 628 298 628T274 625T248 612Q219 588 219 532V392H357Q363 392 363 384V329H219Q217 261 211 203T174 103Q222 98 264 83T326 61T362 54L418 96L454 34Z" />
<glyph unicode="&#xa4;" glyph-name="currency" horiz-adv-x="257" d="M168 800V356H89V800H168ZM89 -214V265H168V-214H89Z" />
<glyph unicode="&#xa5;" glyph-name="yen" horiz-adv-x="551" d="M121 210H242V239H121V302H242V313L68 627L28 636V691H196V644L141 633L281 384L420 633L363 642V691H523V635L491 625L310 311V302H424V239H310V210H424V147H310V70L424 52L416 0H142L133 52L242
70V147H121V210Z" />
<glyph unicode="&#xa6;" glyph-name="brokenbar" horiz-adv-x="231" d="M84 290V670H147V290H84ZM84 -173V201H147V-173H84Z" />
<glyph unicode="&#xa7;" glyph-name="section" horiz-adv-x="495" d="M107 422Q53 466 53 533Q53 602 110 647Q165 691 250 691Q331 691 409 659L421 505H367L325 615Q295 628 260 628T203 622T162 604Q125 579 125 547T140 496T180 461T233 433T292 409Q373 374
411 334T449 231T395 109Q439 65 439 3Q439 -75 374 -120Q315 -161 227 -161Q146 -161 64 -128L54 24H112L132 -82Q164 -98 231 -98Q320 -98 354 -44Q366 -24 366 3T351 50T313 85T263 112Q147 164 102 206T57 310T107 422ZM347 147Q375 184 375 218T363 272T330
306Q301 329 257 346Q198 370 160 389Q130 354 130 327T139 284T166 253Q194 229 245 203Q319 165 347 147Z" />
<glyph unicode="&#xa8;" glyph-name="dieresis" horiz-adv-x="355" d="M80 478T66 492T52 527T66 562T100 577T136 563T151 528T136 493T101 478ZM234 478T219 492T204 527T219 562T254 577T289 563T303 528T289 493T255 478Z" />
<glyph unicode="&#xa9;" glyph-name="copyright" horiz-adv-x="728" d="M478 198Q430 168 377 168T289 182T227 222Q171 278 171 365Q171 458 228 516Q282 572 370 572Q424 572 450 565L460 456H420L407 512Q397 514 368 514T314 505T270 478Q230 437 230 370T267
265T370 226Q394 226 418 232Q454 242 463 251L478 198ZM41 372Q41 507 132 600Q225 695 364 695Q434 695 493 670T596 600Q687 507 687 372Q687 237 596 144Q553 100 494 75T364 49T234 74T132 144Q41 237 41 372ZM99 372Q99 257 174 182T364 107Q479 107 554
182T629 372Q629 487 554 562T364 637Q249 637 174 562T99 372Z" />
<glyph unicode="&#xaa;" glyph-name="ordfeminine" horiz-adv-x="297" d="M43 504Q43 583 177 589V611Q177 635 158 644Q150 649 136 649Q122 649 112 642L105 613L43 622Q51 672 106 687Q120 691 134 691T166 687T197 674Q230 653 230 610V491Q230 478 238 478L250
481L260 450Q241 434 218 434T184 451Q161 433 136 433T97 437T70 451Q43 471 43 504ZM177 547Q99 547 99 505Q99 498 105 487T131 475Q163 475 176 501L177 506V547Z" />
<glyph unicode="&#xab;" glyph-name="guillemotleft" horiz-adv-x="454" d="M264 512L91 338L264 164L223 123L10 337L223 553L264 512ZM408 491L256 338L408 185L367 144L175 337L367 532L408 491Z" />
<glyph unicode="&#xac;" glyph-name="logicalnot" horiz-adv-x="600" d="M465 417H53V471L60 480H519L528 472V267Q528 260 520 260H465V417Z" />
<glyph unicode="&#xad;" glyph-name="uni00AD" horiz-adv-x="377" d="M328 262H48V353H328V262Z" />
<glyph unicode="&#xae;" glyph-name="registered" horiz-adv-x="728" d="M41 372Q41 507 132 600Q225 695 364 695Q434 695 493 670T596 600Q687 507 687 372Q687 237 596 144Q553 100 494 75T364 49T234 74T132 144Q41 237 41 372ZM99 372Q99 257 174 182T364
107Q479 107 554 182T629 372Q629 487 554 562T364 637Q249 637 174 562T99 372ZM234 224L260 231V523L234 526V577H325Q416 577 459 543T502 448Q502 407 479 379T417 336L489 229L523 222V178H448L360 323Q352 322 345 322H318V232L369 222V178H238L234 224ZM334
380Q439 380 439 448Q439 488 410 504T341 520H318V380H334Z" />
<glyph unicode="&#xaf;" glyph-name="overscore" horiz-adv-x="365" d="M57 630V684L64 693H301Q308 693 308 685V630H57Z" />
<glyph unicode="&#xb0;" glyph-name="degree" horiz-adv-x="264" d="M38 630Q38 675 61 704T132 734Q180 734 203 705T226 630Q226 585 203 555T132 525Q84 525 61 555T38 630ZM111 687T101 668T91 629T101 591T132 572Q153 572 163 590T174 629T164 668T132 687Q111
687 101 668Z" />
<glyph unicode="&#xb1;" glyph-name="plusminus" horiz-adv-x="481" d="M271 560V449H409V386H271V273H216L208 286V386H70V434L83 449H208V560H271ZM409 169H70V227L78 239H409V169Z" />
<glyph unicode="&#xb2;" glyph-name="twosuperior" horiz-adv-x="265" d="M100 639Q100 639 89 608L42 622Q52 660 79 675T135 691T188 672T211 623T204 575T185 540Q170 517 139 486L129 476H175L189 508H220L209 434H53L50 462Q158 555 158 610Q158 644 125
644Q112 644 100 639Z" />
<glyph unicode="&#xb3;" glyph-name="threesuperior" horiz-adv-x="264" d="M166 568Q225 557 225 508Q225 471 197 453T132 434Q76 434 39 468L68 507Q79 497 92 489T129 481T162 491T172 512Q172 542 104 542V586Q159 586 159 618Q159 627 153 635T129 644T104
638L92 607L43 622Q52 652 75 671T134 691Q180 691 203 652Q210 640 210 623T200 589T166 568Z" />
<glyph unicode="&#xb4;" glyph-name="acute" horiz-adv-x="279" d="M52 585L156 724H183L227 672L87 552L52 585Z" />
<glyph unicode="&#xb5;" glyph-name="mu" horiz-adv-x="513" d="M156 -4L157 -58V-274H94V415H40L31 463L130 481L157 449V146Q157 89 200 67Q226 54 255 54T313 66T356 100V415H302L295 463L395 482L419 453V73Q419 51 442 51L460 54L468 19Q448 -4 410 -4T360
36Q316 -4 257 -4T157 25Q156 18 156 11V-4Z" />
<glyph unicode="&#xb6;" glyph-name="paragraph" horiz-adv-x="523" d="M63 384T47 420T31 494T42 566T80 628Q138 691 250 691H462V632H420V0H363V632H331V125Q331 84 324 77Q290 39 241 -8L188 66L263 109V299Q157 301 93 358Q63 384 47 420Z" />
<glyph unicode="&#xb7;" glyph-name="middot" horiz-adv-x="230" d="M63 399H158L167 390V255H63V399Z" />
<glyph unicode="&#xb8;" glyph-name="cedilla" horiz-adv-x="398" d="M155 -106L137 -87L175 15H243L221 -49Q289 -56 316 -112Q326 -132 326 -158Q326 -209 292 -241T187 -273Q150 -273 124 -264T72 -246L115 -164L189 -210Q216 -210 234 -197T252 -162T233 -124T164
-106H155Z" />
<glyph unicode="&#xb9;" glyph-name="onesuperior" horiz-adv-x="220" d="M51 468L89 476V635L50 629L41 664L134 693L143 688V479L178 470V434H54L51 468Z" />
<glyph unicode="&#xba;" glyph-name="ordmasculine" horiz-adv-x="296" d="M39 563Q39 657 106 684Q125 692 147 692Q193 692 225 661T257 563Q257 497 225 465T148 433T71 465T39 563ZM122 640T109 618T95 561T108 505T148 484T187 505T201 560T188 617T148 640Z" />
<glyph unicode="&#xbb;" glyph-name="guillemotright" horiz-adv-x="455" d="M190 164L363 338L190 512L231 553L444 339L231 123L190 164ZM46 185L198 338L46 491L87 532L279 339L87 144L46 185Z" />
<glyph unicode="&#xbc;" glyph-name="onequarter" horiz-adv-x="598" d="M380 37L464 48V117H317V181L464 376H517V164H566V117H517V47L553 41V0H382L380 37ZM127 -21H79L76 -8L425 691H477L476 677L127 -21ZM51 350L94 357V635L44 629L36 664L139 693L148 688V360L183
352V315H54L51 350ZM464 164V300L361 164H464Z" />
<glyph unicode="&#xbd;" glyph-name="onehalf" horiz-adv-x="625" d="M344 0L339 31Q346 39 363 54T401 89T444 132T486 178Q529 232 529 269Q529 309 502 326Q485 337 466 337Q439 337 416 327L387 267L333 301Q351 332 384 355T465 379T547 352T581 269Q581
187 462 80Q436 56 422 42H533L552 93H590L578 0H344ZM50 350L93 357V635L43 629L35 664L138 693L147 688V360L182 352V315H53L50 350ZM125 -21H77L74 -8L423 691H475L474 677L125 -21Z" />
<glyph unicode="&#xbe;" glyph-name="threequarters" horiz-adv-x="654" d="M436 37L520 48V117H373V181L520 376H573V164H622V117H573V47L609 41V0H438L436 37ZM182 -21H134L130 -8L480 691H532L530 677L182 -21ZM225 413Q225 484 105 484V526Q164 526 183 534Q222
549 222 591Q222 616 196 633Q176 647 155 647T123 642L106 635L79 589L35 617Q58 664 112 682Q132 689 156 689T200 683T235 664Q269 636 269 590Q269 560 251 534T198 503Q238 497 256 471T275 417T264 368T233 333Q194 304 152 304Q79 304 34 336L62 379Q97
346 144 346Q174 346 192 358Q225 380 225 413ZM520 164V300L417 164H520Z" />
<glyph unicode="&#xbf;" glyph-name="questiondown" horiz-adv-x="383" d="M230 229L229 241L286 243Q289 232 289 205T275 153T240 109T195 75T149 40Q100 -3 100 -63Q100 -98 116 -114Q147 -147 198 -147Q230 -147 265 -139L293 -42H343L324 -189Q267 -208 187
-208T67 -168T26 -67Q26 25 120 93Q147 113 170 129T204 158T220 184Q230 205 230 229ZM273 483T288 468T303 431T288 394T252 379T215 394T199 431T214 468T251 483Z" />
<glyph unicode="&#xc0;" glyph-name="Agrave" horiz-adv-x="570" d="M372 717L168 818L205 890L235 897L403 764L372 717ZM364 0V44L445 65L392 241H169L117 62L205 45V0H11L-2 47L52 65L243 691H327L519 65L566 47L555 0H364ZM279 616L188 304H373L279 616Z" />
<glyph unicode="&#xc1;" glyph-name="Aacute" horiz-adv-x="570" d="M176 764L334 897L364 890L401 818L208 717L176 764ZM364 0V44L445 65L392 241H169L117 62L205 45V0H11L-2 47L52 65L243 691H327L519 65L566 47L555 0H364ZM279 616L188 304H373L279 616Z" />
<glyph unicode="&#xc2;" glyph-name="Acircumflex" horiz-adv-x="570" d="M273 884H289L429 727H356L280 790L205 727H131L273 884ZM364 0V44L445 65L392 241H169L117 62L205 45V0H11L-2 47L52 65L243 691H327L519 65L566 47L555 0H364ZM279 616L188 304H373L279 616Z" />
<glyph unicode="&#xc3;" glyph-name="Atilde" horiz-adv-x="570" d="M466 770Q417 727 382 727Q359 727 343 735T312 752T281 770T238 778T195 763T168 729L131 760V776Q151 816 196 834Q216 842 249 842T308 825T367 786L429 836L466 770ZM364 0V44L445 65L392
241H169L117 62L205 45V0H11L-2 47L52 65L243 691H327L519 65L566 47L555 0H364ZM279 616L188 304H373L279 616Z" />
<glyph unicode="&#xc4;" glyph-name="Adieresis" horiz-adv-x="570" d="M364 0V44L445 65L392 241H169L117 62L205 45V0H11L-2 47L52 65L243 691H327L519 65L566 47L555 0H364ZM279 616L188 304H373L279 616ZM127 772Q127 796 143 812T183 829T224 813T242 772Q242
748 225 731T184 714T144 731T127 772ZM303 772Q303 796 320 812T362 829T402 813T418 772Q418 748 402 731T362 714T321 731T303 772Z" />
<glyph unicode="&#xc5;" glyph-name="Aring" horiz-adv-x="567" d="M380 751Q380 697 333 668L518 65L565 47L554 0H363V44L444 65L391 241H168L116 62L204 45V0H10L-3 47L51 65L235 670Q215 682 203 703T191 747T198 787T218 818Q246 845 286 845Q325 845 352
818T380 751ZM278 616L187 304H372L278 616ZM248 751Q248 734 258 724T286 713Q303 713 313 723T323 751Q323 768 313 778T286 789Q269 789 259 779T248 751Z" />
<glyph unicode="&#xc6;" glyph-name="AE" horiz-adv-x="720" d="M1 0L-12 47L41 65L278 691H650L670 520H622L588 623H399V364H541V301H399V68H598L633 171H680L661 0H291L283 56L331 68V298H196L107 62L193 45V0H1ZM331 627L320 628L219 361H331V627Z" />
<glyph unicode="&#xc7;" glyph-name="Ccedilla" horiz-adv-x="559" d="M375 -4L363 -3L351 -41Q413 -49 435 -96Q443 -113 443 -136Q443 -180 413 -208T321 -236Q280 -236 233 -216L221 -212L258 -141L323 -181Q347 -181 362 -169T378 -139T361 -106T301 -90H293L278
-74L306 2Q186 24 114 118Q42 211 42 346Q42 416 66 479T135 589Q230 691 377 691Q431 691 494 678L512 520H455L431 618Q423 619 414 621T379 623Q260 623 184 539Q113 461 113 348Q113 226 182 148Q256 64 374 64Q447 64 502 99L527 38Q501 20 459 8T375 -4Z"
/>
<glyph unicode="&#xc8;" glyph-name="Egrave" horiz-adv-x="523" d="M328 717L124 818L161 890L191 897L359 764L328 717ZM55 632V691H453L473 520H425L391 623H181V377H343V314H181V68H401L436 171H483L464 0H62L55 56L112 68V627L55 632Z" />
<glyph unicode="&#xc9;" glyph-name="Eacute" horiz-adv-x="523" d="M173 764L331 897L361 890L398 818L205 717L173 764ZM55 632V691H453L473 520H425L391 623H181V377H343V314H181V68H401L436 171H483L464 0H62L55 56L112 68V627L55 632Z" />
<glyph unicode="&#xca;" glyph-name="Ecircumflex" horiz-adv-x="523" d="M251 884H267L408 727H334L258 790L183 727H109L251 884ZM55 632V691H453L473 520H425L391 623H181V377H343V314H181V68H401L436 171H483L464 0H62L55 56L112 68V627L55 632Z" />
<glyph unicode="&#xcb;" glyph-name="Edieresis" horiz-adv-x="523" d="M55 632V691H453L473 520H425L391 623H181V377H343V314H181V68H401L436 171H483L464 0H62L55 56L112 68V627L55 632ZM119 793Q119 817 135 833T175 850T216 834T234 793Q234 769 217 752T176
735T136 752T119 793ZM295 793Q295 817 312 833T354 850T394 834T410 793Q410 769 394 752T354 735T313 752T295 793Z" />
<glyph unicode="&#xcc;" glyph-name="Igrave" horiz-adv-x="293" d="M243 717L40 818L76 890L107 897L275 764L243 717ZM112 64V627L55 631V691H231L235 635L181 627V64L238 60V0H62L58 56L112 64Z" />
<glyph unicode="&#xcd;" glyph-name="Iacute" horiz-adv-x="293" d="M37 764L194 897L225 890L261 818L68 717L37 764ZM112 64V627L55 631V691H231L235 635L181 627V64L238 60V0H62L58 56L112 64Z" />
<glyph unicode="&#xce;" glyph-name="Icircumflex" horiz-adv-x="293" d="M141 884H157L297 727H224L148 790L73 727H-1L141 884ZM112 64V627L55 631V691H231L235 635L181 627V64L238 60V0H62L58 56L112 64Z" />
<glyph unicode="&#xcf;" glyph-name="Idieresis" horiz-adv-x="293" d="M52 735T36 752T20 792T36 833T76 850Q100 850 117 833T134 793T117 752T76 735Q52 735 36 752ZM199 735T182 752T165 792T182 833T223 850Q247 850 263 833T279 793T263 752T223 735Q199
735 182 752ZM112 64V627L55 631V691H231L235 635L181 627V64L238 60V0H62L58 56L112 64Z" />
<glyph unicode="&#xd0;" glyph-name="Eth" horiz-adv-x="606" d="M56 56L113 69V314H23V369L30 377H113V627L56 632V691H199Q362 691 458 608Q562 516 562 349Q562 175 467 86Q377 0 212 0H63L56 56ZM491 353Q491 409 472 459T417 546Q342 623 209 623H182V377H350Q357
377 357 370V314H182V68H226Q370 68 437 156Q491 228 491 353Z" />
<glyph unicode="&#xd1;" glyph-name="Ntilde" horiz-adv-x="659" d="M504 770Q455 727 420 727Q397 727 381 735T350 752T319 770T276 778T233 763T206 729L169 760V776Q189 816 234 834Q254 842 287 842T346 825T405 786L467 836L504 770ZM174 629V66L241 56V0H62L54
56L112 68V627L54 632V691H221L491 75V625L427 635V691H605L615 635L554 623V0H449L174 629Z" />
<glyph unicode="&#xd2;" glyph-name="Ograve" horiz-adv-x="645" d="M415 717L212 818L248 890L279 897L447 764L415 717ZM323 -4Q190 -4 116 106Q50 203 50 343Q50 483 116 580Q149 629 200 660T323 691Q394 691 445 660T530 580Q595 482 595 343Q595 204 530
106Q497 57 446 27T323 -4ZM121 341Q121 227 167 152Q220 64 323 64Q425 64 478 152Q524 227 524 341Q524 456 478 533Q424 623 323 623Q221 623 167 533Q121 456 121 341Z" />
<glyph unicode="&#xd3;" glyph-name="Oacute" horiz-adv-x="645" d="M208 764L366 897L396 890L433 818L240 717L208 764ZM323 -4Q190 -4 116 106Q50 203 50 343Q50 483 116 580Q149 629 200 660T323 691Q394 691 445 660T530 580Q595 482 595 343Q595 204 530
106Q497 57 446 27T323 -4ZM121 341Q121 227 167 152Q220 64 323 64Q425 64 478 152Q524 227 524 341Q524 456 478 533Q424 623 323 623Q221 623 167 533Q121 456 121 341Z" />
<glyph unicode="&#xd4;" glyph-name="Ocircumflex" horiz-adv-x="645" d="M307 884H323L464 727H390L314 790L239 727H165L307 884ZM323 -4Q190 -4 116 106Q50 203 50 343Q50 483 116 580Q149 629 200 660T323 691Q394 691 445 660T530 580Q595 482 595 343Q595
204 530 106Q497 57 446 27T323 -4ZM121 341Q121 227 167 152Q220 64 323 64Q425 64 478 152Q524 227 524 341Q524 456 478 533Q424 623 323 623Q221 623 167 533Q121 456 121 341Z" />
<glyph unicode="&#xd5;" glyph-name="Otilde" horiz-adv-x="645" d="M499 770Q450 727 415 727Q392 727 376 735T345 752T314 770T271 778T228 763T201 729L164 760V776Q184 816 229 834Q249 842 282 842T341 825T400 786L462 836L499 770ZM323 -4Q190 -4 116
106Q50 203 50 343Q50 483 116 580Q149 629 200 660T323 691Q394 691 445 660T530 580Q595 482 595 343Q595 204 530 106Q497 57 446 27T323 -4ZM121 341Q121 227 167 152Q220 64 323 64Q425 64 478 152Q524 227 524 341Q524 456 478 533Q424 623 323 623Q221 623
167 533Q121 456 121 341Z" />
<glyph unicode="&#xd6;" glyph-name="Odieresis" horiz-adv-x="645" d="M323 -4Q190 -4 116 106Q50 203 50 343Q50 483 116 580Q149 629 200 660T323 691Q394 691 445 660T530 580Q595 482 595 343Q595 204 530 106Q497 57 446 27T323 -4ZM121 341Q121 227 167
152Q220 64 323 64Q425 64 478 152Q524 227 524 341Q524 456 478 533Q424 623 323 623Q221 623 167 533Q121 456 121 341ZM187 793Q187 817 203 833T243 850T284 834T302 793Q302 769 285 752T244 735T204 752T187 793ZM363 793Q363 817 380 833T422 850T462 834T478
793Q478 769 462 752T422 735T381 752T363 793Z" />
<glyph unicode="&#xd7;" glyph-name="multiply" horiz-adv-x="513" d="M54 186L212 340L59 498L103 542L257 383L415 537L459 492L301 338L454 181L410 136L256 295L98 142L54 186Z" />
<glyph unicode="&#xd8;" glyph-name="Oslash" horiz-adv-x="645" d="M149 629T200 660T317 691T433 666L472 745H539L538 731L488 629Q543 578 569 501T595 352T579 218T530 107T446 27T322 -4T193 30L158 -42H94L91 -29L141 73Q94 124 72 196T50 337T66 468T115
579ZM224 92Q264 64 321 64T416 88T478 152Q524 227 524 341Q524 485 456 564L224 92ZM403 605Q365 623 317 623T230 598T167 533Q121 456 121 341Q121 218 174 140L403 605Z" />
<glyph unicode="&#xd9;" glyph-name="Ugrave" horiz-adv-x="628" d="M392 717L189 818L225 890L256 897L424 764L392 717ZM417 631V691H587L591 635L536 627V202Q536 106 471 50Q409 -4 313 -4T157 52Q96 109 96 202V627L38 631V691H215L219 635L164 627V213Q164
141 205 102T319 63Q426 63 462 144Q474 172 474 213V627L417 631Z" />
<glyph unicode="&#xda;" glyph-name="Uacute" horiz-adv-x="628" d="M219 764L377 897L407 890L444 818L251 717L219 764ZM417 631V691H587L591 635L536 627V202Q536 106 471 50Q409 -4 313 -4T157 52Q96 109 96 202V627L38 631V691H215L219 635L164 627V213Q164
141 205 102T319 63Q426 63 462 144Q474 172 474 213V627L417 631Z" />
<glyph unicode="&#xdb;" glyph-name="Ucircumflex" horiz-adv-x="628" d="M303 884H319L460 727H386L310 790L235 727H161L303 884ZM417 631V691H587L591 635L536 627V202Q536 106 471 50Q409 -4 313 -4T157 52Q96 109 96 202V627L38 631V691H215L219 635L164
627V213Q164 141 205 102T319 63Q426 63 462 144Q474 172 474 213V627L417 631Z" />
<glyph unicode="&#xdc;" glyph-name="Udieresis" horiz-adv-x="628" d="M417 631V691H587L591 635L536 627V202Q536 106 471 50Q409 -4 313 -4T157 52Q96 109 96 202V627L38 631V691H215L219 635L164 627V213Q164 141 205 102T319 63Q426 63 462 144Q474 172 474
213V627L417 631ZM164 793Q164 817 180 833T220 850T261 834T279 793Q279 769 262 752T221 735T181 752T164 793ZM340 793Q340 817 357 833T399 850T439 834T455 793Q455 769 439 752T399 735T358 752T340 793Z" />
<glyph unicode="&#xdd;" glyph-name="Yacute" horiz-adv-x="539" d="M168 764L326 897L356 890L393 818L200 717L168 764ZM189 691V638L126 628L278 330L418 629L357 637V691H529V631L486 621L305 243V70L420 52L411 0H131L121 52L237 70V257L50 622L7 631V691H189Z" />
<glyph unicode="&#xde;" glyph-name="Thorn" horiz-adv-x="500" d="M112 64V627L55 631V691H232L236 635L181 627V561H224Q399 561 454 462Q475 425 475 371Q475 270 398 218Q333 175 221 175H181V64L291 51V0H63L58 56L112 64ZM217 244Q349 244 388 308Q402 332
402 369T388 431T349 468Q305 492 218 492H181V244H217Z" />
<glyph unicode="&#xdf;" glyph-name="germandbls" horiz-adv-x="511" d="M232 670Q150 670 150 559V0H35V44L87 55V558Q87 641 128 686Q167 727 232 727T338 690T380 585Q380 526 330 468Q312 447 297 432T281 407T283 390T291 375Q303 360 341 343T407 309T452
270Q483 232 483 166Q483 89 421 40Q366 -4 302 -4Q256 -4 190 20L214 87L302 53Q357 53 387 86T417 165T392 238T318 290T247 338T223 394T237 446T268 486T300 529T314 577T309 617T292 644Q270 670 232 670Z" />
<glyph unicode="&#xe0;" glyph-name="agrave" horiz-adv-x="448" d="M308 40Q260 -4 190 -4Q128 -4 86 31Q41 68 41 123T68 210T136 258Q200 285 303 288V352Q303 384 279 403T215 422Q167 422 146 409L130 356L48 371Q65 423 112 452Q154 479 209 479Q292 479
329 441T366 337V79Q366 50 389 50Q398 50 410 55L421 17Q400 -4 366 -4Q320 -4 308 40ZM128 184Q107 164 107 130T131 75T192 53Q267 53 303 108V232Q178 232 128 184ZM270 554L130 674L174 727H200L304 587L270 554Z" />
<glyph unicode="&#xe1;" glyph-name="aacute" horiz-adv-x="448" d="M308 40Q260 -4 190 -4Q128 -4 86 31Q41 68 41 123T68 210T136 258Q200 285 303 288V352Q303 384 279 403T215 422Q167 422 146 409L130 356L48 371Q65 423 112 452Q154 479 209 479Q292 479
329 441T366 337V79Q366 50 389 50Q398 50 410 55L421 17Q400 -4 366 -4Q320 -4 308 40ZM128 184Q107 164 107 130T131 75T192 53Q267 53 303 108V232Q178 232 128 184ZM149 586L253 725H280L324 673L184 553L149 586Z" />
<glyph unicode="&#xe2;" glyph-name="acircumflex" horiz-adv-x="448" d="M87 548L203 691H219L335 550L332 544H277L211 602L145 544H91L87 548ZM308 40Q260 -4 190 -4Q128 -4 86 31Q41 68 41 123T68 210T136 258Q200 285 303 288V352Q303 384 279 403T215 422Q167
422 146 409L130 356L48 371Q65 423 112 452Q154 479 209 479Q292 479 329 441T366 337V79Q366 50 389 50Q398 50 410 55L421 17Q400 -4 366 -4Q320 -4 308 40ZM128 184Q107 164 107 130T131 75T192 53Q267 53 303 108V232Q178 232 128 184Z" />
<glyph unicode="&#xe3;" glyph-name="atilde" horiz-adv-x="448" d="M173 600Q132 596 115 554L72 580L73 597Q87 621 108 642T166 663Q188 663 212 652T249 633T275 622L328 663L365 601Q345 584 327 574T287 563T250 569T224 581T199 594T173 600ZM308 40Q260
-4 190 -4Q128 -4 86 31Q41 68 41 123T68 210T136 258Q200 285 303 288V352Q303 384 279 403T215 422Q167 422 146 409L130 356L48 371Q65 423 112 452Q154 479 209 479Q292 479 329 441T366 337V79Q366 50 389 50Q398 50 410 55L421 17Q400 -4 366 -4Q320 -4 308
40ZM128 184Q107 164 107 130T131 75T192 53Q267 53 303 108V232Q178 232 128 184Z" />
<glyph unicode="&#xe4;" glyph-name="adieresis" horiz-adv-x="448" d="M117 570T103 585T89 619T103 653T137 668T171 654T186 620T172 585T137 570ZM256 570T243 585T229 619T242 653T276 668T310 654T324 620T310 585T276 570ZM308 40Q260 -4 190 -4Q128 -4
86 31Q41 68 41 123T68 210T136 258Q200 285 303 288V352Q303 384 279 403T215 422Q167 422 146 409L130 356L48 371Q65 423 112 452Q154 479 209 479Q292 479 329 441T366 337V79Q366 50 389 50Q398 50 410 55L421 17Q400 -4 366 -4Q320 -4 308 40ZM128 184Q107
164 107 130T131 75T192 53Q267 53 303 108V232Q178 232 128 184Z" />
<glyph unicode="&#xe5;" glyph-name="aring" horiz-adv-x="448" d="M176 510T150 536T124 600T150 665T214 691Q252 691 278 665T304 601T278 536T214 510Q176 510 150 536ZM197 638T187 628T176 601T186 573T214 563Q231 563 241 573T252 600T242 628T214 638Q197
638 187 628ZM308 40Q260 -4 190 -4Q128 -4 86 31Q41 68 41 123T68 210T136 258Q200 285 303 288V352Q303 384 279 403T215 422Q167 422 146 409L130 356L48 371Q65 423 112 452Q154 479 209 479Q292 479 329 441T366 337V79Q366 50 389 50Q398 50 410 55L421 17Q400
-4 366 -4Q320 -4 308 40ZM128 184Q107 164 107 130T131 75T192 53Q267 53 303 108V232Q178 232 128 184Z" />
<glyph unicode="&#xe6;" glyph-name="ae" horiz-adv-x="698" d="M617 91L635 36Q612 18 583 8T507 -2Q402 -2 346 79Q344 74 341 71T336 63Q311 34 291 22Q248 -4 203 -4T129 7T80 36Q41 72 41 121T62 199T117 243Q171 267 279 267H303V352Q303 373 286 390Q252
422 206 422Q161 422 146 409L130 356L48 371Q55 421 106 452Q152 479 202 479Q318 479 353 399Q382 438 423 459T511 481Q580 481 622 448T664 359T640 273T577 230Q520 209 406 209H369Q374 128 426 86Q464 56 522 56T617 91ZM371 267L427 266Q598 266 598 346Q598
384 571 403T514 423T462 414T420 385Q379 344 371 267ZM136 191T122 176T107 129T133 76T198 54T264 71T303 107V211H270Q193 211 165 201Z" />
<glyph unicode="&#xe7;" glyph-name="ccedilla" horiz-adv-x="406" d="M186 68Q214 53 264 53T360 80L377 31Q338 1 276 -3L266 -32Q296 -34 312 -49Q343 -75 343 -111T318 -172T241 -196Q214 -196 195 -190T157 -176L188 -116L243 -150Q263 -150 276 -140T289
-115T275 -86T224 -73H218L205 -60L225 -3Q136 4 86 75Q43 137 43 233Q43 400 155 458Q194 479 244 479Q333 479 383 442L339 373L280 420Q272 422 261 422H244Q170 422 136 361Q109 312 109 232Q109 110 186 68Z" />
<glyph unicode="&#xe8;" glyph-name="egrave" horiz-adv-x="443" d="M398 34Q346 -4 259 -4Q154 -4 96 65Q42 129 42 232Q42 338 97 406Q155 479 252 479Q315 479 357 444Q401 408 401 351T374 262T303 213Q232 185 111 185Q121 127 157 90T263 52T381 88L398
34ZM125 244Q214 244 252 256T312 289T335 348Q335 385 308 405Q285 422 251 422T190 408T146 368Q110 317 108 244H125ZM269 553L129 673L173 726H199L303 586L269 553Z" />
<glyph unicode="&#xe9;" glyph-name="eacute" horiz-adv-x="443" d="M398 34Q346 -4 259 -4Q154 -4 96 65Q42 129 42 232Q42 338 97 406Q155 479 252 479Q315 479 357 444Q401 408 401 351T374 262T303 213Q232 185 111 185Q121 127 157 90T263 52T381 88L398
34ZM125 244Q214 244 252 256T312 289T335 348Q335 385 308 405Q285 422 251 422T190 408T146 368Q110 317 108 244H125ZM177 586L281 725H308L352 673L212 553L177 586Z" />
<glyph unicode="&#xea;" glyph-name="ecircumflex" horiz-adv-x="443" d="M120 548L236 691H252L368 550L365 544H310L244 602L178 544H124L120 548ZM398 34Q346 -4 259 -4Q154 -4 96 65Q42 129 42 232Q42 338 97 406Q155 479 252 479Q315 479 357 444Q401 408
401 351T374 262T303 213Q232 185 111 185Q121 127 157 90T263 52T381 88L398 34ZM125 244Q214 244 252 256T312 289T335 348Q335 385 308 405Q285 422 251 422T190 408T146 368Q110 317 108 244H125Z" />
<glyph unicode="&#xeb;" glyph-name="edieresis" horiz-adv-x="443" d="M150 570T136 585T122 619T136 653T170 668T204 654T219 620T205 585T170 570ZM289 570T276 585T262 619T275 653T309 668T343 654T357 620T343 585T309 570ZM398 34Q346 -4 259 -4Q154 -4
96 65Q42 129 42 232Q42 338 97 406Q155 479 252 479Q315 479 357 444Q401 408 401 351T374 262T303 213Q232 185 111 185Q121 127 157 90T263 52T381 88L398 34ZM125 244Q214 244 252 256T312 289T335 348Q335 385 308 405Q285 422 251 422T190 408T146 368Q110
317 108 244H125Z" />
<glyph unicode="&#xec;" glyph-name="igrave" horiz-adv-x="249" d="M160 451V59L221 44V0H46L37 43L97 58V416L43 412L34 463L133 481L160 451ZM174 554L34 674L78 727H104L208 587L174 554Z" />
<glyph unicode="&#xed;" glyph-name="iacute" horiz-adv-x="249" d="M160 451V59L221 44V0H46L37 43L97 58V416L43 412L34 463L133 481L160 451ZM39 585L143 724H170L214 672L74 552L39 585Z" />
<glyph unicode="&#xee;" glyph-name="icircumflex" horiz-adv-x="249" d="M-11 548L105 691H121L237 550L233 544H179L113 602L46 544H-7L-11 548ZM160 451V59L221 44V0H46L37 43L97 58V416L43 412L34 463L133 481L160 451Z" />
<glyph unicode="&#xef;" glyph-name="idieresis" horiz-adv-x="249" d="M31 570T17 585T3 619T17 653T51 668T85 654T99 620T85 585T51 570ZM159 570T146 585T132 619T145 653T179 668T213 654T227 620T213 585T179 570ZM160 451V59L221 44V0H46L37 43L97 58V416L43
412L34 463L133 481L160 451Z" />
<glyph unicode="&#xf0;" glyph-name="eth" horiz-adv-x="511" d="M370 574Q459 451 459 298Q459 99 357 25Q317 -4 259 -4T161 14T96 65Q43 128 43 231Q43 330 96 394Q150 458 237 458Q324 458 378 411Q358 485 314 544L197 482L169 528L275 589Q226 638 159 675L188
728Q267 690 331 622L450 692L483 633L370 574ZM237 401Q209 401 185 388T144 352Q111 305 111 230Q111 140 156 92Q192 53 242 53T320 74T362 128Q388 183 390 275Q384 334 337 370Q296 401 237 401Z" />
<glyph unicode="&#xf1;" glyph-name="ntilde" horiz-adv-x="505" d="M216 600Q175 596 158 554L115 580L116 597Q130 621 151 642T209 663Q231 663 255 652T292 633T318 622L371 663L408 601Q388 584 370 574T330 563T293 569T267 581T242 594T216 600ZM273 422Q206
422 158 380V59L219 44V0H46L40 43L95 58V420L41 416L32 463L133 481L155 440Q211 479 279 479T384 443T421 334V58L482 44V0H302L298 44L358 58V327Q358 422 273 422Z" />
<glyph unicode="&#xf2;" glyph-name="ograve" horiz-adv-x="489" d="M42 241Q42 288 55 332T94 409Q149 481 244 481Q345 481 398 407Q447 340 447 240Q447 140 398 72Q345 -4 244 -4Q147 -4 91 72Q42 139 42 241ZM122 325T115 291T108 226T115 165T140 110Q177
54 244 54Q315 54 351 112Q381 161 381 235Q381 356 308 406Q282 423 244 423T179 403T138 354ZM317 553L177 673L221 726H247L351 586L317 553Z" />
<glyph unicode="&#xf3;" glyph-name="oacute" horiz-adv-x="489" d="M42 241Q42 288 55 332T94 409Q149 481 244 481Q345 481 398 407Q447 340 447 240Q447 140 398 72Q345 -4 244 -4Q147 -4 91 72Q42 139 42 241ZM122 325T115 291T108 226T115 165T140 110Q177
54 244 54Q315 54 351 112Q381 161 381 235Q381 356 308 406Q282 423 244 423T179 403T138 354ZM170 586L274 725H301L345 673L205 553L170 586Z" />
<glyph unicode="&#xf4;" glyph-name="ocircumflex" horiz-adv-x="489" d="M122 548L238 691H254L369 550L366 544H312L245 602L179 544H126L122 548ZM42 241Q42 288 55 332T94 409Q149 481 244 481Q345 481 398 407Q447 340 447 240Q447 140 398 72Q345 -4 244
-4Q147 -4 91 72Q42 139 42 241ZM122 325T115 291T108 226T115 165T140 110Q177 54 244 54Q315 54 351 112Q381 161 381 235Q381 356 308 406Q282 423 244 423T179 403T138 354Z" />
<glyph unicode="&#xf5;" glyph-name="otilde" horiz-adv-x="489" d="M195 600Q154 596 137 554L94 580L95 597Q109 621 130 642T188 663Q210 663 234 652T271 633T297 622L350 663L387 601Q367 584 349 574T309 563T272 569T246 581T221 594T195 600ZM42 241Q42
288 55 332T94 409Q149 481 244 481Q345 481 398 407Q447 340 447 240Q447 140 398 72Q345 -4 244 -4Q147 -4 91 72Q42 139 42 241ZM122 325T115 291T108 226T115 165T140 110Q177 54 244 54Q315 54 351 112Q381 161 381 235Q381 356 308 406Q282 423 244 423T179
403T138 354Z" />
<glyph unicode="&#xf6;" glyph-name="odieresis" horiz-adv-x="489" d="M160 570T146 585T132 619T146 653T180 668T214 654T229 620T215 585T180 570ZM299 570T286 585T272 619T285 653T319 668T353 654T367 620T353 585T319 570ZM42 241Q42 288 55 332T94 409Q149
481 244 481Q345 481 398 407Q447 340 447 240Q447 140 398 72Q345 -4 244 -4Q147 -4 91 72Q42 139 42 241ZM122 325T115 291T108 226T115 165T140 110Q177 54 244 54Q315 54 351 112Q381 161 381 235Q381 356 308 406Q282 423 244 423T179 403T138 354Z" />
<glyph unicode="&#xf7;" glyph-name="divide" horiz-adv-x="414" d="M56 360H358V297H56V360ZM188 130T173 145T157 181T172 218T209 234T246 219T261 182T246 145T210 130ZM188 420T173 435T157 471T172 508T209 524T246 509T261 472T246 435T210 420Z" />
<glyph unicode="&#xf8;" glyph-name="oslash" horiz-adv-x="489" d="M119 442T156 461T240 481T330 463L399 602H450L449 587L373 435Q411 401 429 349T447 245T435 150T398 72Q345 -4 244 -4Q200 -4 162 12L111 -90H63L60 -77L119 41Q79 76 61 129T42 235T55
332T93 409ZM302 408Q276 423 241 423T179 403T138 354Q108 299 108 228Q108 149 148 99L302 408ZM189 66Q213 54 247 54T308 70T351 112Q381 161 381 235Q381 316 342 373L189 66Z" />
<glyph unicode="&#xf9;" glyph-name="ugrave" horiz-adv-x="490" d="M348 37Q298 -4 231 -4Q129 -4 94 80Q82 110 82 156V415H28L19 463L120 481L145 453V159Q145 92 182 68Q204 54 238 54T302 68T344 101V415H290L283 463L383 482L407 453V73Q407 51 430 51L448
54L456 19Q450 12 435 4T399 -4Q359 -4 348 37ZM266 553L126 673L170 726H196L300 586L266 553Z" />
<glyph unicode="&#xfa;" glyph-name="uacute" horiz-adv-x="490" d="M348 37Q298 -4 231 -4Q129 -4 94 80Q82 110 82 156V415H28L19 463L120 481L145 453V159Q145 92 182 68Q204 54 238 54T302 68T344 101V415H290L283 463L383 482L407 453V73Q407 51 430 51L448
54L456 19Q450 12 435 4T399 -4Q359 -4 348 37ZM170 586L274 725H301L345 673L205 553L170 586Z" />
<glyph unicode="&#xfb;" glyph-name="ucircumflex" horiz-adv-x="490" d="M114 548L230 691H246L362 550L358 544H304L238 602L171 544H118L114 548ZM348 37Q298 -4 231 -4Q129 -4 94 80Q82 110 82 156V415H28L19 463L120 481L145 453V159Q145 92 182 68Q204 54
238 54T302 68T344 101V415H290L283 463L383 482L407 453V73Q407 51 430 51L448 54L456 19Q450 12 435 4T399 -4Q359 -4 348 37Z" />
<glyph unicode="&#xfc;" glyph-name="udieresis" horiz-adv-x="490" d="M158 570T144 585T130 619T144 653T178 668T212 654T226 620T212 585T178 570ZM296 570T283 585T269 619T282 653T316 668T350 654T365 620T351 585T316 570ZM348 37Q298 -4 231 -4Q129 -4
94 80Q82 110 82 156V415H28L19 463L120 481L145 453V159Q145 92 182 68Q204 54 238 54T302 68T344 101V415H290L283 463L383 482L407 453V73Q407 51 430 51L448 54L456 19Q450 12 435 4T399 -4Q359 -4 348 37Z" />
<glyph unicode="&#xfd;" glyph-name="yacute" horiz-adv-x="449" d="M42 -185Q72 -215 100 -215Q136 -215 162 -152Q168 -135 173 -120L199 -47L45 425H11L3 474L98 480L235 54L367 425H331L323 474L419 480L436 445Q388 314 333 164T245 -74T202 -185T178 -228Q146
-273 99 -273Q57 -273 11 -237L42 -185ZM176 586L280 725H307L351 673L211 553L176 586Z" />
<glyph unicode="&#xfe;" glyph-name="thorn" horiz-adv-x="486" d="M135 24L138 -49V-208L259 -229V-273H25L16 -229L75 -215V670L14 666L6 717L111 735L138 706V444Q181 481 248 481Q331 481 386 418Q444 351 444 243Q444 111 370 46Q339 18 303 7T239 -4Q178
-4 135 24ZM149 76T174 65T227 54T281 61T328 90Q377 137 377 237T331 385Q295 423 242 423Q208 423 180 409T138 371V87Q149 76 174 65Z" />
<glyph unicode="&#xff;" glyph-name="ydieresis" horiz-adv-x="449" d="M138 570T124 585T110 619T124 653T158 668T192 654T206 620T192 585T158 570ZM276 570T263 585T249 619T262 653T296 668T330 654T345 620T331 585T296 570ZM42 -185Q72 -215 100 -215Q136
-215 162 -152Q168 -135 173 -120L199 -47L45 425H11L3 474L98 480L235 54L367 425H331L323 474L419 480L436 445Q388 314 333 164T245 -74T202 -185T178 -228Q146 -273 99 -273Q57 -273 11 -237L42 -185Z" />
<glyph unicode="&#x2013;" glyph-name="endash" horiz-adv-x="495" d="M61 363H432V301H61V363Z" />
<glyph unicode="&#x2014;" glyph-name="emdash" horiz-adv-x="725" d="M61 363H662V301H61V363Z" />
<glyph unicode="&#x2018;" glyph-name="quoteleft" horiz-adv-x="187" d="M57 449Q46 488 46 531Q46 617 102 700L145 675V665L112 578L135 462L57 449Z" />
<glyph unicode="&#x2019;" glyph-name="quoteright" horiz-adv-x="181" d="M129 701Q140 657 140 616Q140 533 84 450L41 475V485L74 572L51 688L129 701Z" />
<glyph unicode="&#x201a;" glyph-name="quotesinglbase" horiz-adv-x="207" d="M129 136Q153 88 153 54T145 -5T126 -51Q108 -84 81 -115L45 -93V-79L84 9L45 108L129 136Z" />
<glyph unicode="&#x201c;" glyph-name="quotedblleft" horiz-adv-x="295" d="M170 475Q159 514 159 557Q159 643 215 726L258 701V691L225 604L248 488L170 475ZM147 691L114 604L137 475L59 459Q58 462 57 472T53 495Q48 528 48 564Q48 643 104 726L147 701V691Z" />
<glyph unicode="&#x201d;" glyph-name="quotedblright" horiz-adv-x="292" d="M129 701Q140 657 140 616Q140 533 84 450L41 475V485L74 572L51 688L129 701ZM152 485L185 572L162 701L240 717Q251 673 251 624Q251 533 195 450L152 475V485Z" />
<glyph unicode="&#x201e;" glyph-name="quotedblbase" horiz-adv-x="321" d="M125 136Q149 88 149 54T141 -5T122 -51Q104 -84 77 -115L41 -93V-79L80 9L41 108L125 136ZM159 -79L198 9L159 131L243 156Q255 132 261 96T267 40T259 -5T240 -51Q222 -84 195 -115L159
-93V-79Z" />
<glyph unicode="&#x2022;" glyph-name="bullet" horiz-adv-x="252" d="M49 383Q49 415 71 438T126 461Q158 461 181 438T204 383Q204 351 181 329T126 306Q94 306 72 328T49 383Z" />
<glyph unicode="&#x2039;" glyph-name="guilsinglleft" horiz-adv-x="351" d="M14 314L287 530L292 528V458L94 301L292 145V73L286 70L14 288V314Z" />
<glyph unicode="&#x203a;" glyph-name="guilsinglright" horiz-adv-x="351" d="M337 288L65 70L59 73V145L257 301L59 458V528L64 530L337 314V288Z" />
</font>
</defs>
</svg>
