<?xml version="1.0" standalone="no"?>
<!DOCTYPE svg PUBLIC "-//W3C//DTD SVG 1.1//EN" "http://www.w3.org/Graphics/SVG/1.1/DTD/svg11.dtd">
<svg xmlns="http://www.w3.org/2000/svg">
<defs >
<font id="Volkhov" horiz-adv-x="553" ><font-face
    font-family="Volkhov"
    units-per-em="1000"
    panose-1="2 0 5 3 0 0 0 2 0 4"
    ascent="971"
    descent="-319"
    alphabetic="0" />
<glyph unicode=" " glyph-name="space" horiz-adv-x="231" />
<glyph unicode="!" glyph-name="exclam" horiz-adv-x="284" d="M79 700H205L185 208H99L79 700ZM74 54Q74 82 94 102T142 122Q170 122 189 102T209 54Q209 27 189 7T142 -14Q114 -14 94 6T74 54Z" />
<glyph unicode="&quot;" glyph-name="quotedbl" horiz-adv-x="363" d="M42 715H148L118 480H72L42 715ZM215 715H321L291 480H245L215 715Z" />
<glyph unicode="#" glyph-name="numbersign" horiz-adv-x="590" d="M46 201V265H139L175 456H72V520H188L224 715H290L253 520H387L424 715H490L452 520H545V456H441L404 265H518V201H392L355 0H290L327 201H193L155 0H90L128 201H46ZM204 265H339L376 456H240L204 265Z" />
<glyph unicode="$" glyph-name="dollar" horiz-adv-x="598" d="M60 32V216H106L157 63Q205 48 271 48V316Q228 333 196 350T132 392T82 454T64 534Q64 612 121 659T271 714V777H336V714Q427 710 505 684V500H459L411 646Q373 653 336 654V415Q444 374 496 322T550
195Q550 103 491 51T336 -12V-83H271V-15Q157 -14 60 32ZM172 548Q172 513 197 488T271 441V651Q225 645 199 616T172 548ZM336 53Q437 76 437 169Q437 209 412 236T336 288V53Z" />
<glyph unicode="%" glyph-name="percent" horiz-adv-x="759" d="M80 419Q40 468 40 543Q40 579 50 610T79 665T127 702T191 715Q227 715 254 702T301 665T330 610T340 543Q340 507 330 476T302 421T255 384T191 370Q120 370 80 419ZM129 543Q129 409 191 409Q252
409 252 543Q252 675 191 675Q129 675 129 543ZM169 0L526 715H596L240 0H169ZM459 34Q419 83 419 158Q419 194 429 225T458 280T505 316T569 330Q604 330 632 317T679 280T709 226T719 158Q719 122 709 90T680 35T633 -1T569 -15Q499 -15 459 34ZM508 158Q508
24 569 24Q631 24 631 158Q631 290 569 290Q508 290 508 158Z" />
<glyph unicode="&amp;" glyph-name="ampersand" horiz-adv-x="767" d="M51 166Q51 287 208 370Q113 473 113 560Q113 637 169 676T309 715Q390 715 447 675T504 563Q504 450 350 371L513 209Q537 262 547 323L487 345V390H692V345L606 323Q595 238 559 166L660
69L760 45V0H590L504 82Q417 -15 284 -15Q185 -15 118 31T51 166ZM164 166Q164 117 196 81T289 45Q392 45 460 125L253 323Q164 252 164 166ZM221 561Q221 537 233 510T276 451T308 417Q346 440 370 479T395 562Q395 607 370 632T307 658Q272 658 247 633T221 561Z"
/>
<glyph unicode="&apos;" glyph-name="quotesingle" horiz-adv-x="200" d="M42 715H158L128 480H72L42 715Z" />
<glyph unicode="(" glyph-name="parenleft" horiz-adv-x="332" d="M34 250Q34 426 111 571T309 799L333 770Q238 678 186 540T133 250Q133 97 185 -41T333 -270L309 -299Q188 -218 111 -73T34 250Z" />
<glyph unicode=")" glyph-name="parenright" horiz-adv-x="332" d="M-1 -270Q95 -179 147 -41T199 250Q199 402 147 540T-1 770L23 799Q144 717 221 572T298 250Q298 73 221 -72T23 -299L-1 -270Z" />
<glyph unicode="*" glyph-name="asterisk" horiz-adv-x="471" d="M44 591L70 670L211 604L193 760H277L259 604L401 669L427 591L274 557L380 443L313 394L235 529L159 393L90 444L196 558L44 591Z" />
<glyph unicode="+" glyph-name="plus" horiz-adv-x="543" d="M42 323V390H237V585H304V390H501V323H304V127H237V323H42Z" />
<glyph unicode="," glyph-name="comma" horiz-adv-x="238" d="M19 -140Q79 -77 109 -2L43 49Q43 82 65 103T116 125Q151 125 171 104T191 42Q191 -8 146 -74T56 -173L19 -140Z" />
<glyph unicode="-" glyph-name="hyphen" horiz-adv-x="343" d="M62 312H281V235H62V312Z" />
<glyph unicode="." glyph-name="period" horiz-adv-x="228" d="M46 53Q46 81 66 100T114 120Q142 120 161 101T181 53Q181 26 161 6T114 -15Q86 -15 66 5T46 53Z" />
<glyph unicode="/" glyph-name="slash" horiz-adv-x="444" d="M29 0L340 700H416L106 0H29Z" />
<glyph unicode="0" glyph-name="zero" horiz-adv-x="632" d="M316 715Q438 715 509 614T581 350Q581 190 510 88T316 -15Q194 -15 123 87T51 350Q51 511 122 613T316 715ZM316 656Q251 656 215 567T179 350Q179 222 215 133T316 44Q381 44 417 133T453 350Q453
478 417 567T316 656Z" />
<glyph unicode="1" glyph-name="one" horiz-adv-x="407" d="M25 589L236 700H283V62L368 43V0H46V43L161 63V599L41 548L25 589Z" />
<glyph unicode="2" glyph-name="two" horiz-adv-x="538" d="M29 0V60L115 152Q145 185 185 236T255 334T306 436T328 534Q328 594 299 630T219 666L101 558Q47 598 44 665Q141 715 256 715Q342 715 398 674T455 551Q455 493 428 430T350 303T257 195T157 97H396L450
205H494L466 0H29Z" />
<glyph unicode="3" glyph-name="three" horiz-adv-x="539" d="M20 26L41 75Q118 47 192 47Q270 47 317 87T364 191Q364 260 310 300T156 340V396Q235 397 281 439T328 546Q328 600 296 634T213 668L101 566Q83 578 66 609T48 667Q87 690 137 702T239 715Q349 715
401 670T454 553Q454 496 414 449T300 378Q394 364 442 314T491 193Q491 94 414 40T223 -15Q113 -15 20 26Z" />
<glyph unicode="4" glyph-name="four" horiz-adv-x="568" d="M8 138V181L393 700H442V208H521V138H442V-15H335V138H8ZM116 208H335V500L116 208Z" />
<glyph unicode="5" glyph-name="five" horiz-adv-x="528" d="M22 27L44 74Q107 46 173 46Q253 46 304 92T356 224Q356 292 315 336T193 381Q158 381 98 368L76 381L105 700H402L444 740L484 722L438 604H162L147 433Q198 446 250 446Q307 446 352 427T425 376T467
307T481 232Q481 119 399 52T205 -15Q93 -15 24 26L22 27Z" />
<glyph unicode="6" glyph-name="six" horiz-adv-x="569" d="M52 300Q52 477 162 596T461 715L460 657Q341 656 267 578T172 375Q239 436 327 436Q426 436 480 373T535 214Q535 117 475 51T305 -15Q183 -15 118 71T52 300ZM165 291Q165 183 200 112T299 40Q349
40 380 87T411 197Q411 267 377 312T282 357Q219 357 165 318V291Z" />
<glyph unicode="7" glyph-name="seven" horiz-adv-x="476" d="M25 495L53 700H475V656Q377 506 316 336T238 0H118Q136 143 211 316T364 603H120L69 495H25Z" />
<glyph unicode="8" glyph-name="eight" horiz-adv-x="591" d="M66 169Q66 278 209 366Q150 406 117 448T84 550Q84 628 146 671T295 715Q380 715 440 673T501 556Q501 462 393 385Q456 344 491 297T527 180Q527 90 456 38T293 -15Q203 -15 135 34T66 169ZM167
169Q167 109 204 76T292 42Q341 42 376 74T412 162Q412 190 401 213T364 259T319 295T261 333Q213 297 190 253T167 169ZM198 565Q198 546 207 528T226 497T259 467T296 442L341 416Q371 445 386 482T401 548Q401 599 370 627T294 656Q255 656 227 632T198 565Z"
/>
<glyph unicode="9" glyph-name="nine" horiz-adv-x="569" d="M34 485Q34 583 94 649T264 715Q386 715 451 629T517 400Q517 223 408 104T108 -15V43Q228 44 302 122T397 325Q330 264 242 264Q143 264 89 326T34 485ZM158 502Q158 433 192 388T287 343Q352 343
404 381V409Q404 517 369 588T270 660Q220 660 189 613T158 502Z" />
<glyph unicode=":" glyph-name="colon" horiz-adv-x="260" d="M62 53Q62 81 82 100T130 120Q158 120 177 101T197 53Q197 26 177 6T130 -15Q102 -15 82 5T62 53ZM62 393Q62 421 82 440T130 460Q158 460 177 441T197 393Q197 366 177 346T130 325Q102 325 82 345T62 393Z" />
<glyph unicode=";" glyph-name="semicolon" horiz-adv-x="275" d="M40 -140Q100 -77 130 -2L64 49Q64 82 86 103T137 125Q172 125 192 104T212 42Q212 -8 167 -74T77 -173L40 -140ZM68 393Q68 421 88 440T136 460Q164 460 183 441T203 393Q203 366 183 346T136
325Q108 325 88 345T68 393Z" />
<glyph unicode="&lt;" glyph-name="less" horiz-adv-x="540" d="M38 330V385L467 616V539L132 357L467 177V100L38 330Z" />
<glyph unicode="=" glyph-name="equal" horiz-adv-x="597" d="M69 241V308H528V241H69ZM69 406V473H528V406H69Z" />
<glyph unicode="&gt;" glyph-name="greater" horiz-adv-x="540" d="M502 385V330L73 99V176L408 358L73 538V615L502 385Z" />
<glyph unicode="?" glyph-name="question" horiz-adv-x="491" d="M35 667Q76 689 129 702T235 715Q333 715 386 670T439 544Q439 505 426 471T382 403T325 346T250 285L235 192H184L169 314Q236 377 274 433T312 548Q312 603 282 633T200 663L82 570Q40 606 35
667ZM141 53Q141 81 161 101T209 121Q237 121 256 101T276 53Q276 26 256 6T209 -15Q181 -15 161 5T141 53Z" />
<glyph unicode="@" glyph-name="at" horiz-adv-x="909" d="M53 287Q53 471 179 593T497 715Q662 715 765 627T868 402Q868 336 837 276T759 175T656 114T551 99Q502 106 502 142L507 182Q437 99 352 99Q311 99 282 129T253 221Q253 351 334 443T528 535Q609 535
680 496L592 155Q681 154 743 231T805 410Q805 518 718 590T499 662Q353 662 249 556T144 286Q144 203 173 137T252 30T364 -32T498 -54Q595 -54 684 -17L704 -51Q603 -110 472 -110Q393 -110 320 -86T186 -14T89 111T53 287ZM351 240Q351 204 363 184T399 163Q429
163 465 194T530 270L587 488Q566 495 544 495Q465 495 408 415T351 240Z" />
<glyph unicode="A" glyph-name="A" horiz-adv-x="717" d="M-10 0V46L84 68L327 705H399L627 67L719 46V0H425V46L499 63L451 198H206L154 66L242 46V0H-10ZM228 257H429L331 530L228 257Z" />
<glyph unicode="B" glyph-name="B" horiz-adv-x="679" d="M44 0V46L136 68V632L44 654V700H331Q575 700 575 530Q575 475 543 434T454 375V373Q536 358 580 312T625 197Q625 107 558 54T377 0H44ZM259 61H346Q419 61 459 96T499 197Q499 258 458 295T341 332H259V61ZM259
395H316Q374 395 411 428T449 521Q449 581 412 610T310 639H259V395Z" />
<glyph unicode="C" glyph-name="C" horiz-adv-x="671" d="M413 715Q529 715 608 680V491H562L516 639Q477 648 426 648Q177 648 177 350Q177 52 406 52Q440 52 467 54T516 60L574 218H620L613 29Q599 21 573 13T517 -1T454 -11T394 -15Q225 -15 138 79T51 350Q51
527 141 621T413 715Z" />
<glyph unicode="D" glyph-name="D" horiz-adv-x="749" d="M44 0V46L136 68V632L44 654V700H304Q488 700 593 612T699 350Q699 193 590 97T304 0H44ZM259 67H299Q432 67 502 134T573 350Q573 488 501 560T299 633H259V67Z" />
<glyph unicode="E" glyph-name="E" horiz-adv-x="641" d="M44 0V46L136 68V632L44 654V700H565V495H518L475 633L259 641V384L475 403V314L259 332V59L494 67L545 216H592L584 0H44Z" />
<glyph unicode="F" glyph-name="F" horiz-adv-x="590" d="M44 0V46L136 68V632L44 654V700H560V495H514L472 633L259 641V385L475 403V314L259 331V68L371 46V0H44Z" />
<glyph unicode="G" glyph-name="G" horiz-adv-x="726" d="M51 350Q51 524 148 619T429 715Q545 715 623 681V491H577L530 640Q480 648 446 648Q318 648 248 572T177 350Q177 203 241 128T426 52Q470 52 505 59V268L391 289V324H702V289L628 268V34Q536 -15 413
-15Q237 -15 144 80T51 350Z" />
<glyph unicode="H" glyph-name="H" horiz-adv-x="827" d="M44 0V46L136 68V632L44 654V700H351V654L259 632V387H568V632L476 654V700H783V654L691 632V68L783 46V0H476V46L568 68V320H259V68L351 46V0H44Z" />
<glyph unicode="I" glyph-name="I" horiz-adv-x="395" d="M44 0V46L137 68V632L44 654V700H351V654L259 632V68L351 46V0H44Z" />
<glyph unicode="J" glyph-name="J" horiz-adv-x="375" d="M8 -112Q128 -25 128 150V632L36 654V700H343V654L251 632V150Q251 47 187 -36T43 -154L8 -112Z" />
<glyph unicode="K" glyph-name="K" horiz-adv-x="723" d="M44 0V46L136 63V637L44 654V700H351V654L259 637V63L351 46V0H44ZM281 359L528 637L456 654V700H696V654L607 632L392 393L627 78L722 46V0H529L281 359Z" />
<glyph unicode="L" glyph-name="L" horiz-adv-x="618" d="M44 0V46L136 68V632L44 654V700H351V654L259 632V67H494L548 216H594L584 0H44Z" />
<glyph unicode="M" glyph-name="M" horiz-adv-x="1010" d="M30 0V46L125 69L157 633L69 654L70 700H284L509 178L736 700H942V654L852 633L886 68L982 46V0H678V46L766 67L739 541L502 -5H458L218 542L193 67L282 46V0H30Z" />
<glyph unicode="N" glyph-name="N" horiz-adv-x="822" d="M44 0V46L136 68V632L44 654V700H206L623 205V632L531 654V700H788V654L696 632V0H636L206 507V68L298 46V0H44Z" />
<glyph unicode="O" glyph-name="O" horiz-adv-x="771" d="M386 715Q467 715 529 688T634 613T699 498T721 351Q721 270 700 203T636 88T531 12T386 -15Q299 -15 236 14T131 92T71 209T51 353Q51 428 71 493T132 608T236 686T386 715ZM386 656Q284 656 232 571T179
350Q179 207 234 126T386 44Q482 44 537 125T593 350Q593 485 541 570T386 656Z" />
<glyph unicode="P" glyph-name="P" horiz-adv-x="634" d="M259 328Q274 326 289 325T318 324Q352 324 381 334T432 364T466 413T478 481Q478 559 432 598T310 637H259V328ZM44 0V46L136 68V632L44 654V700H310Q604 700 604 481Q604 370 528 316T326 261Q291 261
259 266V68L381 46V0H44Z" />
<glyph unicode="Q" glyph-name="Q" horiz-adv-x="767" d="M51 350Q51 510 135 612T384 715T632 613T716 350Q716 273 696 208T637 93T533 13Q518 7 502 2Q538 -43 601 -66Q671 -92 758 -92H782L770 -135Q724 -140 700 -141T658 -142Q600 -141 549 -131T453 -88Q413
-59 387 -15H384Q299 -15 235 13T131 92T71 208T51 350ZM386 656Q284 656 232 571T179 350Q179 207 234 125T386 42Q494 42 541 124T588 350Q588 487 536 571T386 656Z" />
<glyph unicode="R" glyph-name="R" horiz-adv-x="697" d="M44 0V46L136 68V632L44 654V700H327Q381 700 426 692T513 663T580 602T605 504Q605 371 467 324L606 67L694 45V0H512L347 309H259V68L351 46V0H44ZM259 369H317Q390 369 434 405T479 506Q479 570 435
603T317 637H259V369Z" />
<glyph unicode="S" glyph-name="S" horiz-adv-x="589" d="M61 540Q61 623 127 669T298 715Q410 715 503 692L498 500H453L403 644Q361 652 318 652Q249 652 210 625T170 550Q170 509 205 482T329 417Q376 398 406 382T472 338T524 273T542 188Q542 88 468 34Q399
-16 295 -15Q267 -15 203 -10T63 17V214H109L160 64Q202 51 258 51Q336 51 384 78T432 165Q432 210 389 243T263 312Q149 361 105 407T61 540Z" />
<glyph unicode="T" glyph-name="T" horiz-adv-x="655" d="M30 488V700H625V488H578L533 633L389 641V68L481 46V0H174V46L266 68V641L121 633L77 488H30Z" />
<glyph unicode="U" glyph-name="U" horiz-adv-x="790" d="M22 654V700H329V654L237 632V262Q237 162 286 112T420 62Q503 62 554 112T605 262V632L512 654V700H768V654L676 632V262Q676 196 656 144T598 57T510 4T397 -15Q335 -15 283 3T194 56T135 143T114 262V632L22
654Z" />
<glyph unicode="V" glyph-name="V" horiz-adv-x="702" d="M-7 654V700H296V654L214 637L384 157L544 632L465 654V700H706V654L614 632L394 -7H315L82 632L-7 654Z" />
<glyph unicode="W" glyph-name="W" horiz-adv-x="1025" d="M-11 654V700H289V654L205 636L348 182L492 700H577L744 184L862 632L781 654V700H1023V654L931 632L761 -7H682L508 515L361 -7H284L76 633L-11 654Z" />
<glyph unicode="X" glyph-name="X" horiz-adv-x="732" d="M14 0V46L106 68L303 340L100 631L11 654V700H302V654L238 639L389 425L541 634L472 654V700H713V654L621 632L429 369L644 65L726 46V0H435V46L499 59L340 286L186 66L256 46V0H14Z" />
<glyph unicode="Y" glyph-name="Y" horiz-adv-x="695" d="M-9 654V700H279V654L214 641L379 398L527 634L453 654V700H698V654L606 632L412 323V68L504 46V0H197V46L289 68V320L72 634L-9 654Z" />
<glyph unicode="Z" glyph-name="Z" horiz-adv-x="643" d="M51 0V62L442 641L144 633L101 490H55V700H587V638L199 62L497 67L546 216H592L586 0H51Z" />
<glyph unicode="[" glyph-name="bracketleft" horiz-adv-x="333" d="M86 -128V760H314V705H200V-73H314V-128H86Z" />
<glyph unicode="\" glyph-name="backslash" horiz-adv-x="444" d="M415 0L104 700H28L338 0H415Z" />
<glyph unicode="]" glyph-name="bracketright" horiz-adv-x="333" d="M19 -73H133V705H19V760H247V-128H19V-73Z" />
<glyph unicode="^" glyph-name="asciicircum" horiz-adv-x="574" d="M51 267L261 715H311L522 267H447L285 623L125 267H51Z" />
<glyph unicode="_" glyph-name="underscore" horiz-adv-x="755" d="M148 -78H607V-142H148V-78Z" />
<glyph unicode="`" glyph-name="grave" horiz-adv-x="221" d="M-44 716Q-9 759 50 769L151 591L109 562L-44 716Z" />
<glyph unicode="a" glyph-name="a" horiz-adv-x="552" d="M35 124Q35 297 342 297V332Q342 419 318 442T241 466L124 366Q100 381 84 408T66 467Q108 490 158 502T257 515Q462 515 462 343V65H540V32Q517 10 489 -2T434 -15Q375 -15 347 36Q280 -15 196 -15Q130
-15 83 20T35 124ZM161 128Q161 91 185 73T248 55Q303 55 342 89V246Q252 246 207 214T161 128Z" />
<glyph unicode="b" glyph-name="b" horiz-adv-x="593" d="M-11 719V762L149 800H193V468Q258 515 335 515Q428 515 489 451T550 269Q550 139 467 62T261 -15Q160 -15 74 36V719H-11ZM193 48Q221 41 252 41Q329 41 377 98T426 265Q426 352 388 396T290 440Q247
440 193 414V48Z" />
<glyph unicode="c" glyph-name="c" horiz-adv-x="490" d="M43 248Q43 367 115 441T291 515Q380 515 451 473Q450 439 431 411T388 369L292 460H286Q235 451 200 396T165 250Q165 147 212 99T338 51Q399 51 450 79L467 30Q383 -15 296 -15Q188 -15 116 54T43 248Z" />
<glyph unicode="d" glyph-name="d" horiz-adv-x="617" d="M43 232Q43 367 126 441T327 515Q369 515 400 506V719H315V762L475 800H520V65H598V32L582 19Q572 11 545 -2T491 -15Q480 -15 470 -13T451 -6T436 3T425 14T416 25T409 35T404 44L402 48Q342 -15 254
-15Q167 -15 105 48T43 232ZM166 236Q166 150 204 105T296 60Q352 60 400 97V450Q369 460 336 460Q260 460 213 403T166 236Z" />
<glyph unicode="e" glyph-name="e" horiz-adv-x="536" d="M42 256Q42 366 105 440T279 515Q337 515 380 494T449 434T487 349T499 247H161Q168 165 216 108T347 50Q400 50 462 73L479 26Q386 -15 302 -15Q181 -15 112 64T42 256ZM161 296L375 312Q372 372 347
416T276 460Q226 460 195 413T161 296Z" />
<glyph unicode="f" glyph-name="f" horiz-adv-x="416" d="M32 0V43L117 63V446H33V493L117 499V574Q117 815 311 815Q353 815 397 807T465 790L488 782Q487 748 470 722T427 683L329 760Q287 760 262 721T236 574V507L388 518V446H236V63L369 43V0H32Z" />
<glyph unicode="g" glyph-name="g" horiz-adv-x="610" d="M18 -152Q18 -66 121 -16Q91 0 69 26T43 85L159 186Q111 208 85 247T58 334Q58 406 123 456T288 507Q377 507 440 466L595 525Q607 501 607 472Q607 448 603 431H482Q520 387 520 334Q520 260 458 211T288
161Q251 161 218 167L160 99Q175 76 204 67T303 57H368Q459 57 511 19T564 -95T484 -229T268 -287Q18 -287 18 -152ZM140 -135Q140 -184 178 -208T278 -232Q366 -232 419 -200T472 -122Q472 -82 442 -64T341 -45H178Q140 -90 140 -135ZM405 334Q405 388 375 421T288
455Q233 455 203 422T173 334Q173 280 202 248T288 215Q343 215 374 247T405 334Z" />
<glyph unicode="h" glyph-name="h" horiz-adv-x="652" d="M21 0V43L106 63V719H21V762L181 800H226V452Q302 515 387 515Q465 515 510 471T555 358V63L640 43V0H371V43L436 63V340Q436 442 349 442Q290 442 226 396V63L291 43V0H21Z" />
<glyph unicode="i" glyph-name="i" horiz-adv-x="346" d="M257 652Q257 621 236 600T183 578Q152 578 131 599T109 652Q109 683 130 704T183 726Q214 726 235 705T257 652ZM36 0V43L121 63V419H36V462L196 500H240V63L325 43V0H36Z" />
<glyph unicode="j" glyph-name="j" horiz-adv-x="303" d="M-15 -260Q106 -175 106 0V419H21V462L181 500H225V0Q225 -53 208 -101T161 -189T94 -259T17 -306L-15 -260ZM242 652Q242 621 221 600T168 578Q137 578 116 599T94 652Q94 683 115 704T168 726Q199 726
220 705T242 652Z" />
<glyph unicode="k" glyph-name="k" horiz-adv-x="616" d="M21 0V43L106 63V719H21V762L181 800H226V63L291 43V0H21ZM243 241L426 440L359 457V500H585V457L497 437L358 285L523 62L605 43V0H419L243 241Z" />
<glyph unicode="l" glyph-name="l" horiz-adv-x="332" d="M21 0V43L106 63V719H21V762L181 800H226V63L311 43V0H21Z" />
<glyph unicode="m" glyph-name="m" horiz-adv-x="986" d="M36 0V43L121 63V419H36V462L196 500H240V455Q317 515 398 515Q501 515 544 439Q632 515 723 515Q800 515 844 471T889 358V63L974 43V0H705V43L770 63V345Q770 392 748 417T684 442Q625 442 561 396Q565
372 565 358V63L630 43V0H380V43L445 63V345Q445 392 423 417T359 442Q303 442 240 400V63L305 43V0H36Z" />
<glyph unicode="n" glyph-name="n" horiz-adv-x="667" d="M36 0V43L121 63V419H36V462L196 500H241V452Q317 515 402 515Q480 515 525 471T570 358V63L655 43V0H386V43L451 63V340Q451 442 364 442Q305 442 241 396V63L306 43V0H36Z" />
<glyph unicode="o" glyph-name="o" horiz-adv-x="593" d="M297 515Q407 515 479 441T551 251Q551 135 479 60T297 -15Q187 -15 115 60T42 251Q42 366 114 440T297 515ZM297 460Q235 460 202 403T168 251Q168 156 201 98T297 40Q359 40 392 98T426 251Q426 346
393 403T297 460Z" />
<glyph unicode="p" glyph-name="p" horiz-adv-x="625" d="M21 -257L106 -237V419H21V462L181 500H226V454Q287 515 376 515Q461 515 521 452T582 269Q582 134 499 60T298 -15Q257 -15 226 -7V-237L331 -257V-300H21V-257ZM226 50Q256 40 289 40Q364 40 411 98T458
265Q458 349 422 391T328 434Q272 434 226 399V50Z" />
<glyph unicode="q" glyph-name="q" horiz-adv-x="593" d="M43 232Q43 367 128 441T332 515Q436 515 519 464V-237L604 -257V-300H294V-257L399 -237V42Q345 -15 254 -15Q168 -15 106 48T43 232ZM166 236Q166 153 205 110T302 66Q354 66 399 97V452Q367 460 341
460Q261 460 214 403T166 236Z" />
<glyph unicode="r" glyph-name="r" horiz-adv-x="452" d="M36 0V43L121 63V419H36V462L196 500H240V438Q321 515 428 515Q434 496 434 473Q434 436 425 407L298 418Q268 404 240 384V63L345 43V0H36Z" />
<glyph unicode="s" glyph-name="s" horiz-adv-x="479" d="M49 8V151H95L133 46Q168 40 211 40Q275 40 301 56T328 113Q328 144 299 164T199 213Q132 241 95 279T58 377Q58 444 114 479T262 515Q341 515 405 496V360H363L330 454Q301 462 262 462Q208 462 187 446T165
396Q165 377 179 362T210 338T267 311Q358 273 397 235T437 135Q437 62 378 24T224 -15Q130 -15 49 8Z" />
<glyph unicode="t" glyph-name="t" horiz-adv-x="375" d="M35 440V470L177 591H207V494L351 500V440H207V134Q207 45 278 45Q308 45 350 63L367 17Q305 -15 239 -15Q167 -15 128 19T88 139V440H35Z" />
<glyph unicode="u" glyph-name="u" horiz-adv-x="647" d="M13 457V500H217V155Q217 55 303 55Q371 55 431 106V437L366 457V500H550V65H628V32Q604 11 575 -2T516 -15Q493 -15 476 -7T449 15T436 36T431 51Q352 -15 261 -15Q181 -15 140 28T98 142V437L13 457Z" />
<glyph unicode="v" glyph-name="v" horiz-adv-x="575" d="M2 457V500H268V457L197 441L321 148L437 438L367 457V500H574V457L494 435L319 -7H259L69 438L2 457Z" />
<glyph unicode="w" glyph-name="w" horiz-adv-x="821" d="M3 457V500H261V457L194 440L292 167L405 500H476L592 172L683 437L601 457V500H818V457L741 437L593 -7H529L408 333L293 -7H230L66 439L3 457Z" />
<glyph unicode="x" glyph-name="x" horiz-adv-x="628" d="M23 457V500H303V457L241 445L339 317L438 440L369 457V500H590V457L508 437L372 274L536 62L620 43V0H340V43L404 53L287 203L167 59L232 43V0H16V43L97 61L253 247L105 438L23 457Z" />
<glyph unicode="y" glyph-name="y" horiz-adv-x="601" d="M1 457V500H274V457L197 442L339 125L459 437L379 457V500H600V457L521 436L238 -299Q193 -299 171 -286T136 -254L279 -27L69 438L1 457Z" />
<glyph unicode="z" glyph-name="z" horiz-adv-x="510" d="M39 0V50L318 446H137L89 345H53L64 500H463V451L184 55H371L423 166H462L452 0H39Z" />
<glyph unicode="{" glyph-name="braceleft" horiz-adv-x="378" d="M11 293V340Q67 343 98 366T129 445V617Q129 686 165 723T273 760H359V712H329Q286 712 267 686T247 607V441Q247 336 136 318V317Q247 298 247 193V25Q247 -80 329 -80H359V-128H273Q204 -128
167 -89T129 16V187Q129 245 99 268T11 293Z" />
<glyph unicode="|" glyph-name="bar" horiz-adv-x="235" d="M85 -240V760H150V-240H85Z" />
<glyph unicode="}" glyph-name="braceright" horiz-adv-x="377" d="M19 -80H49Q93 -80 112 -54T131 25V193Q131 298 242 317V318Q131 336 131 441V607Q131 660 112 686T49 712H19V760H105Q176 760 212 723T249 617V445Q249 389 280 366T367 340V293Q310 291 280
268T249 187V16Q249 -48 203 -88T85 -128H19V-80Z" />
<glyph unicode="~" glyph-name="asciitilde" horiz-adv-x="549" d="M49 282Q67 444 179 444Q206 444 236 428T288 394T336 359T382 343Q430 343 443 444L506 432Q486 269 377 269Q344 269 306 294L234 345Q200 370 175 370Q148 370 133 347T112 269L49 282Z" />
<glyph unicode="&#xa1;" glyph-name="exclamdown" horiz-adv-x="267" d="M72 -199H198L178 293H92L72 -199ZM67 447Q67 419 87 399T135 379Q163 379 182 399T202 447Q202 474 182 494T135 515Q107 515 87 495T67 447Z" />
<glyph unicode="&#xa2;" glyph-name="cent" horiz-adv-x="512" d="M48 250Q48 362 105 430T257 512V648H322V514Q400 510 466 473Q466 446 449 415T408 368L322 459V50Q389 49 455 68L467 19Q394 -11 322 -15V-140H257V-12Q164 2 106 71T48 250ZM170 250Q170 112
257 68V446Q170 406 170 250Z" />
<glyph unicode="&#xa3;" glyph-name="sterling" horiz-adv-x="559" d="M49 0V55Q193 161 193 267Q193 294 179 333H57V380L155 386Q151 394 123 446Q118 455 103 492T87 564Q87 642 145 678T291 715Q408 715 503 665Q501 635 485 605T445 558L329 666Q271 666
243 633T214 545Q214 533 216 520T221 496T231 470T241 446Q263 399 265 395L413 405L402 333H287Q296 303 296 274Q296 185 190 97H415L468 205H512L484 0H49Z" />
<glyph unicode="&#xa4;" glyph-name="currency" horiz-adv-x="609" d="M64 546L118 600L185 532Q242 569 305 569Q366 569 424 531L492 599L545 545L478 478Q516 418 516 359Q516 297 478 239L545 172L492 119L425 185Q369 148 305 148Q240 148 185 185L119 118L65
172L132 239Q94 295 94 359Q94 420 131 478L64 546ZM173 359Q173 304 211 266T305 227Q359 227 398 265T437 359Q437 413 398 451T305 490Q250 490 212 452T173 359Z" />
<glyph unicode="&#xa5;" glyph-name="yen" horiz-adv-x="770" d="M31 654V700H319V654L254 641L419 398L567 634L493 654V700H738V654L646 632L483 374L625 381L615 310H452V256L625 266L615 193H452V68L544 46V0H237V46L329 68V193H159V240L329 250V310H159V356L299
364L112 634L31 654Z" />
<glyph unicode="&#xa6;" glyph-name="brokenbar" horiz-adv-x="241" d="M88 160H153V-240H88V160ZM88 360V760H153V360H88Z" />
<glyph unicode="&#xa7;" glyph-name="section" horiz-adv-x="534" d="M62 359Q62 434 143 477Q67 528 67 612Q67 680 124 719T267 759Q359 759 434 733V576H393L352 698Q315 705 288 705Q233 705 201 683T169 625Q169 584 198 560T286 512Q321 498 342 489T392
461T439 425T468 379T481 319Q481 242 413 194Q475 144 475 72Q475 -2 413 -42T255 -83Q159 -83 79 -43V113H119L162 -14Q200 -26 232 -26Q365 -26 365 65Q365 101 336 125T241 176Q157 209 110 251T62 359ZM147 372Q147 351 156 335T187 305T226 284T275 264Q333
242 363 226Q388 254 388 298Q388 341 355 368T251 423Q194 447 192 448Q147 420 147 372Z" />
<glyph unicode="&#xa8;" glyph-name="dieresis" horiz-adv-x="400" d="M51 620Q32 638 32 667Q32 694 51 713T98 732Q125 732 144 713T163 667Q163 639 144 620T98 601Q69 601 51 620ZM251 620Q232 638 232 667Q232 694 251 713T298 732Q325 732 344 713T363 667Q363
639 344 620T298 601Q269 601 251 620Z" />
<glyph unicode="&#xa9;" glyph-name="copyright" horiz-adv-x="831" d="M416 725Q491 725 558 696T675 616T754 499T783 357Q783 282 754 216T676 99T559 20T416 -10Q340 -10 273 19T156 98T77 214T48 357Q48 433 77 500T156 617T273 696T416 725ZM108 357Q108
293 132 237T198 139T296 73T416 49Q479 49 535 73T633 140T699 238T724 357Q724 421 700 477T633 576T535 642T416 666Q352 666 296 642T198 576T132 478T108 357ZM436 576Q500 576 549 553V442H514L488 526Q473 528 462 529T443 530Q301 530 301 357Q301 185
441 185Q453 185 462 185T478 187L523 278H556L541 167Q485 138 426 138Q324 138 271 194T218 357Q218 463 272 519T436 576Z" />
<glyph unicode="&#xaa;" glyph-name="ordfeminine" horiz-adv-x="392" d="M42 479Q42 584 230 584V605Q230 646 218 665T171 684L104 617Q89 625 76 646T60 687Q113 715 182 715Q313 715 313 611V445H354V423Q329 394 289 394Q253 394 233 426Q197 394 144 394Q105
394 74 415T42 479ZM128 481Q128 463 141 451T177 438Q210 438 230 460V551Q188 550 158 534T128 481Z" />
<glyph unicode="&#xab;" glyph-name="guillemotleft" horiz-adv-x="477" d="M362 99L244 256V284L362 441H411L350 270L411 99H362ZM201 80L48 254V286L201 460H256L165 270L256 80H201Z" />
<glyph unicode="&#xac;" glyph-name="logicalnot" horiz-adv-x="557" d="M55 326V391H484V123H419V326H55Z" />
<glyph unicode="&#xad;" glyph-name="uni00AD" horiz-adv-x="402" d="M71 317V397H331V317H71Z" />
<glyph unicode="&#xae;" glyph-name="registered" horiz-adv-x="831" d="M416 725Q491 725 558 696T675 616T754 499T783 357Q783 282 754 216T676 99T559 20T416 -10Q340 -10 273 19T156 98T77 214T48 357Q48 433 77 500T156 617T273 696T416 725ZM416 49Q480
49 536 73T633 140T699 238T723 357Q723 420 699 476T633 575T535 641T416 666Q352 666 296 642T198 575T132 477T107 357Q107 294 131 238T197 140T295 74T416 49ZM227 150V178L283 191V529L227 542V570H397Q564 570 564 454Q564 409 538 380T467 342L560 190L613
177V150H500L396 335H356V191L412 178V150H227ZM356 372H391Q436 372 462 393T488 454Q488 492 462 512T391 532H356V372Z" />
<glyph unicode="&#xaf;" glyph-name="overscore" horiz-adv-x="459" d="M459 636H0V700H459V636Z" />
<glyph unicode="&#xb0;" glyph-name="degree" horiz-adv-x="369" d="M184 462Q123 462 81 505T38 609Q38 669 80 712T184 755Q244 755 287 712T331 609Q331 548 288 505T184 462ZM268 609Q268 643 243 667T184 692Q150 692 126 668T101 609Q101 575 125 550T184
525Q218 525 243 550T268 609Z" />
<glyph unicode="&#xb1;" glyph-name="plusminus" horiz-adv-x="557" d="M54 0V67H503V0H54ZM54 323V390H239V585H306V390H503V323H306V127H239V323H54Z" />
<glyph unicode="&#xb2;" glyph-name="twosuperior" horiz-adv-x="384" d="M46 285V321Q67 339 90 364T146 430T201 521T223 613Q223 676 166 676L104 599Q85 609 71 632T54 679Q116 710 192 710Q244 710 278 687T313 611Q313 496 138 354H277L307 415H337L319 285H46Z" />
<glyph unicode="&#xb3;" glyph-name="threesuperior" horiz-adv-x="384" d="M38 301L52 337Q99 319 150 319Q196 319 224 341T253 401Q253 441 220 463T124 486V523Q173 523 202 550T231 612Q231 638 212 656T161 679L102 606Q86 617 72 639T56 681Q105 710 177
710Q248 710 284 683T320 613Q320 580 295 553T223 512Q283 503 313 474T343 401Q343 340 294 308T167 276Q99 276 38 301Z" />
<glyph unicode="&#xb4;" glyph-name="acute" horiz-adv-x="234" d="M18 588L122 770Q180 760 215 717L61 559L18 588Z" />
<glyph unicode="&#xb5;" glyph-name="mu" horiz-adv-x="658" d="M98 -204V500H217V160Q217 55 307 55Q369 55 428 102V500H547V143Q547 97 568 81T613 64H625V32Q620 27 611 19T574 -2T516 -15Q452 -15 429 47Q363 -15 281 -15Q211 -15 174 32Q174 -110 238 -217Q198
-250 151 -250Q128 -250 113 -239T98 -204Z" />
<glyph unicode="&#xb6;" glyph-name="paragraph" horiz-adv-x="638" d="M36 582Q36 760 261 760H587V717L502 697V-112H430V692H341V-112H269V386Q36 383 36 582Z" />
<glyph unicode="&#xb7;" glyph-name="middot" horiz-adv-x="258" d="M52 299Q52 332 76 354T129 376Q158 376 182 354T206 299Q206 265 182 244T129 222Q101 222 77 243T52 299Z" />
<glyph unicode="&#xb8;" glyph-name="cedilla" horiz-adv-x="343" d="M60 -173Q98 -181 122 -181Q151 -181 167 -167T184 -127Q184 -74 111 -69L132 9H185L174 -34Q224 -36 251 -61T279 -126Q279 -179 242 -209T137 -240Q113 -240 60 -229V-173Z" />
<glyph unicode="&#xb9;" glyph-name="onesuperior" horiz-adv-x="308" d="M43 640L175 710H216V327L268 315V285H56V315L128 327V644L52 611L43 640Z" />
<glyph unicode="&#xba;" glyph-name="ordmasculine" horiz-adv-x="390" d="M40 556Q40 590 50 619T81 670T130 703T195 715Q231 715 260 703T309 670T339 620T350 556Q350 521 340 492T309 440T260 406T195 394Q159 394 130 406T81 440T51 491T40 556ZM126 556Q126
499 143 464T195 429Q229 429 247 464T265 556Q265 613 247 647T195 681Q161 681 144 647T126 556Z" />
<glyph unicode="&#xbb;" glyph-name="guillemotright" horiz-adv-x="477" d="M66 99L127 270L66 441H115L233 284V256L115 99H66ZM221 80L312 270L221 460H276L429 286V254L276 80H221Z" />
<glyph unicode="&#xbc;" glyph-name="onequarter" horiz-adv-x="768" d="M43 640L175 710H216V327L268 315V285H56V315L128 327V644L52 611L43 640ZM391 86V120L628 425H676V133H725V86H676V1H596V86H391ZM462 133H595V303L462 133ZM191 0L548 715H618L262 0H191Z" />
<glyph unicode="&#xbd;" glyph-name="onehalf" horiz-adv-x="837" d="M43 640L175 710H216V327L268 315V285H56V315L128 327V644L52 611L43 640ZM504 0V36Q525 54 548 79T604 145T659 236T681 328Q681 391 624 391L562 314Q543 324 529 347T512 394Q574 425 650
425Q702 425 736 402T771 326Q771 211 596 69H735L765 130H795L777 0H504ZM192 0L549 715H619L263 0H192Z" />
<glyph unicode="&#xbe;" glyph-name="threequarters" horiz-adv-x="820" d="M442 86V120L679 425H727V133H776V86H727V1H647V86H442ZM513 133H646V303L513 133ZM40 301L54 337Q101 319 152 319Q198 319 226 341T255 401Q255 441 222 463T126 486V523Q175 523 204
550T233 612Q233 638 214 656T163 679L104 606Q88 617 74 639T58 681Q107 710 179 710Q250 710 286 683T322 613Q322 580 297 553T225 512Q285 503 315 474T345 401Q345 340 296 308T169 276Q101 276 40 301ZM243 0L600 715H670L314 0H243Z" />
<glyph unicode="&#xbf;" glyph-name="questiondown" horiz-adv-x="481" d="M450 -167Q409 -189 356 -202T250 -215Q152 -215 99 -170T46 -44Q46 -5 59 29T103 97T160 154T235 215L250 308H301L316 186Q249 123 211 67T173 -48Q173 -103 203 -133T285 -163L403
-70Q445 -106 450 -167ZM344 447Q344 419 324 399T276 379Q248 379 229 399T209 447Q209 474 229 494T276 515Q304 515 324 495T344 447Z" />
<glyph unicode="&#xc0;" glyph-name="Agrave" horiz-adv-x="717" d="M-10 0V46L84 68L327 705H399L627 67L719 46V0H425V46L499 63L451 198H206L154 66L242 46V0H-10ZM228 257H429L331 530L228 257ZM193 826Q206 852 228 874T276 904L434 767L407 735L193 826Z" />
<glyph unicode="&#xc1;" glyph-name="Aacute" horiz-adv-x="717" d="M-10 0V46L84 68L327 705H399L627 67L719 46V0H425V46L499 63L451 198H206L154 66L242 46V0H-10ZM228 257H429L331 530L228 257ZM262 767L420 904Q470 887 503 826L289 735L262 767Z" />
<glyph unicode="&#xc2;" glyph-name="Acircumflex" horiz-adv-x="717" d="M-10 0V46L84 68L327 705H399L627 67L719 46V0H425V46L499 63L451 198H206L154 66L242 46V0H-10ZM228 257H429L331 530L228 257ZM183 758L318 904H402L532 758L482 735L360 827L229 734L183 758Z" />
<glyph unicode="&#xc3;" glyph-name="Atilde" horiz-adv-x="717" d="M-10 0V46L84 68L327 705H399L627 67L719 46V0H425V46L499 63L451 198H206L154 66L242 46V0H-10ZM228 257H429L331 530L228 257ZM178 814Q206 858 233 880T302 905Q338 905 375 877T439 848Q470
848 518 890L548 861Q532 826 499 797T425 768Q396 768 360 796T287 825Q261 825 209 783L178 814Z" />
<glyph unicode="&#xc4;" glyph-name="Adieresis" horiz-adv-x="717" d="M-10 0V46L84 68L327 705H399L627 67L719 46V0H425V46L499 63L451 198H206L154 66L242 46V0H-10ZM228 257H429L331 530L228 257ZM253 888Q280 888 299 869T318 823Q318 795 299 776T253 757Q226
757 207 776T188 823Q188 851 207 869T253 888ZM468 888Q495 888 514 869T533 823Q533 795 514 776T468 757Q441 757 422 776T402 823Q402 850 421 869T468 888Z" />
<glyph unicode="&#xc5;" glyph-name="Aring" horiz-adv-x="718" d="M364 873Q407 873 440 842T473 764Q473 718 440 686Q427 674 413 667L628 67L720 46V0H426V46L500 63L452 198H207L155 66L243 46V0H-9V46L85 68L313 667Q300 674 287 686Q255 718 255 764Q255
810 288 841T364 873ZM229 257H430L332 530L229 257ZM309 764Q309 741 325 725T364 709Q387 709 403 725T419 764Q419 786 403 802T364 819Q342 819 326 803T309 764Z" />
<glyph unicode="&#xc6;" glyph-name="AE" horiz-adv-x="1040" d="M-11 0V46L81 68L533 700H967V495H921L878 633H656V383L877 403V314L656 333V67H878L951 216H997L967 0H441V46L533 68V237H286L165 67L254 46V0H-11ZM331 301H533V584L331 301Z" />
<glyph unicode="&#xc7;" glyph-name="Ccedilla" horiz-adv-x="671" d="M285 -193Q323 -201 347 -201Q376 -201 392 -187T409 -147Q409 -94 336 -89L356 -13Q215 -4 138 79Q51 173 51 350Q51 527 141 621T413 715Q529 715 608 680V491H562L516 639Q477 648 426
648Q177 648 177 350Q177 52 406 52Q440 52 467 54T516 60L574 218H620L613 29Q599 21 573 13T517 -1T453 -11Q429 -14 409 -15L399 -54Q449 -56 476 -81T504 -146Q504 -199 467 -229T362 -260Q338 -260 285 -249V-193Z" />
<glyph unicode="&#xc8;" glyph-name="Egrave" horiz-adv-x="641" d="M44 0V46L136 68V632L44 654V700H565V495H518L475 633L259 641V384L475 403V314L259 332V59L494 67L545 216H592L584 0H44ZM164 826Q177 852 199 874T247 904L405 767L378 735L164 826Z" />
<glyph unicode="&#xc9;" glyph-name="Eacute" horiz-adv-x="641" d="M44 0V46L136 68V632L44 654V700H565V495H518L475 633L259 641V384L475 403V314L259 332V59L494 67L545 216H592L584 0H44ZM262 767L420 904Q470 887 503 826L289 735L262 767Z" />
<glyph unicode="&#xca;" glyph-name="Ecircumflex" horiz-adv-x="641" d="M44 0V46L136 68V632L44 654V700H565V495H518L475 633L259 641V384L475 403V314L259 332V59L494 67L545 216H592L584 0H44ZM163 767L298 913H382L512 767L462 744L340 836L209 743L163 767Z" />
<glyph unicode="&#xcb;" glyph-name="Edieresis" horiz-adv-x="641" d="M44 0V46L136 68V632L44 654V700H565V495H518L475 633L259 641V384L475 403V314L259 332V59L494 67L545 216H592L584 0H44ZM243 892Q270 892 289 873T308 827Q308 799 289 780T243 761Q216
761 197 780T178 827Q178 855 197 873T243 892ZM458 892Q485 892 504 873T523 827Q523 799 504 780T458 761Q431 761 412 780T392 827Q392 854 411 873T458 892Z" />
<glyph unicode="&#xcc;" glyph-name="Igrave" horiz-adv-x="395" d="M44 0V46L137 68V632L44 654V700H351V654L259 632V68L351 46V0H44ZM-1 826Q12 852 34 874T82 904L240 767L213 735L-1 826Z" />
<glyph unicode="&#xcd;" glyph-name="Iacute" horiz-adv-x="395" d="M44 0V46L137 68V632L44 654V700H351V654L259 632V68L351 46V0H44ZM131 767L289 904Q339 887 372 826L158 735L131 767Z" />
<glyph unicode="&#xce;" glyph-name="Icircumflex" horiz-adv-x="395" d="M44 0V46L137 68V632L44 654V700H351V654L259 632V68L351 46V0H44ZM23 767L158 913H242L372 767L322 744L200 836L69 743L23 767Z" />
<glyph unicode="&#xcf;" glyph-name="Idieresis" horiz-adv-x="395" d="M44 0V46L137 68V632L44 654V700H351V654L259 632V68L351 46V0H44ZM98 892Q125 892 144 873T163 827Q163 799 144 780T98 761Q71 761 52 780T33 827Q33 855 52 873T98 892ZM313 892Q340 892
359 873T378 827Q378 799 359 780T313 761Q286 761 267 780T247 827Q247 854 266 873T313 892Z" />
<glyph unicode="&#xd0;" glyph-name="Eth" horiz-adv-x="749" d="M44 0V46L136 68V329H44V375H136V632L44 654V700H304Q395 700 468 678T593 612T671 503T699 350Q699 263 672 197T593 88T469 22T304 0H44ZM259 67H299Q353 67 402 81T490 129T550 217T573 350Q573
429 551 483T490 570T403 618T299 633H259V375H412V329H259V67Z" />
<glyph unicode="&#xd1;" glyph-name="Ntilde" horiz-adv-x="822" d="M44 0V46L136 68V632L44 654V700H206L623 205V632L531 654V700H788V654L696 632V0H636L206 507V68L298 46V0H44ZM225 809Q253 853 280 875T349 900Q385 900 422 872T486 843Q517 843 565 885L595
856Q579 821 546 792T472 763Q443 763 407 791T334 820Q308 820 256 778L225 809Z" />
<glyph unicode="&#xd2;" glyph-name="Ograve" horiz-adv-x="771" d="M386 715Q467 715 529 688T634 613T699 498T721 351Q721 270 700 203T636 88T531 12T386 -15Q299 -15 236 14T131 92T71 209T51 353Q51 428 71 493T132 608T236 686T386 715ZM386 656Q284 656
232 571T179 350Q179 207 234 126T386 44Q482 44 537 125T593 350Q593 485 541 570T386 656ZM246 826Q259 852 281 874T329 904L487 767L460 735L246 826Z" />
<glyph unicode="&#xd3;" glyph-name="Oacute" horiz-adv-x="771" d="M386 715Q467 715 529 688T634 613T699 498T721 351Q721 270 700 203T636 88T531 12T386 -15Q299 -15 236 14T131 92T71 209T51 353Q51 428 71 493T132 608T236 686T386 715ZM386 656Q284 656
232 571T179 350Q179 207 234 126T386 44Q482 44 537 125T593 350Q593 485 541 570T386 656ZM314 767L472 904Q522 887 555 826L341 735L314 767Z" />
<glyph unicode="&#xd4;" glyph-name="Ocircumflex" horiz-adv-x="771" d="M386 715Q467 715 529 688T634 613T699 498T721 351Q721 270 700 203T636 88T531 12T386 -15Q299 -15 236 14T131 92T71 209T51 353Q51 428 71 493T132 608T236 686T386 715ZM386 656Q284
656 232 571T179 350Q179 207 234 126T386 44Q482 44 537 125T593 350Q593 485 541 570T386 656ZM211 767L346 913H430L560 767L510 744L388 836L257 743L211 767Z" />
<glyph unicode="&#xd5;" glyph-name="Otilde" horiz-adv-x="771" d="M386 715Q467 715 529 688T634 613T699 498T721 351Q721 270 700 203T636 88T531 12T386 -15Q299 -15 236 14T131 92T71 209T51 353Q51 428 71 493T132 608T236 686T386 715ZM386 656Q284 656
232 571T179 350Q179 207 234 126T386 44Q482 44 537 125T593 350Q593 485 541 570T386 656ZM201 823Q229 867 256 889T325 914Q361 914 398 886T462 857Q493 857 541 899L571 870Q555 835 522 806T448 777Q419 777 383 805T310 834Q284 834 232 792L201 823Z"
/>
<glyph unicode="&#xd6;" glyph-name="Odieresis" horiz-adv-x="771" d="M386 715Q467 715 529 688T634 613T699 498T721 351Q721 270 700 203T636 88T531 12T386 -15Q299 -15 236 14T131 92T71 209T51 353Q51 428 71 493T132 608T236 686T386 715ZM386 656Q284
656 232 571T179 350Q179 207 234 126T386 44Q482 44 537 125T593 350Q593 485 541 570T386 656ZM286 892Q313 892 332 873T351 827Q351 799 332 780T286 761Q259 761 240 780T221 827Q221 855 240 873T286 892ZM501 892Q528 892 547 873T566 827Q566 799 547 780T501
761Q474 761 455 780T435 827Q435 854 454 873T501 892Z" />
<glyph unicode="&#xd7;" glyph-name="multiply" horiz-adv-x="549" d="M59 190L227 357L59 525L107 572L274 405L443 573L490 525L322 357L490 189L443 142L275 310L107 143L59 190Z" />
<glyph unicode="&#xd8;" glyph-name="Oslash" horiz-adv-x="771" d="M51 350Q51 427 71 492T131 607T236 686T386 715Q466 715 527 689L554 739H618L577 663Q648 617 684 535T721 350Q721 190 636 88T386 -15Q303 -15 236 13L209 -40H144L186 42Q119 89 85 169T51
350ZM179 350Q179 212 233 130L492 623Q446 656 386 656Q284 656 232 571T179 350ZM273 83Q318 44 386 44Q488 44 540 129T593 350Q593 494 533 580L273 83Z" />
<glyph unicode="&#xd9;" glyph-name="Ugrave" horiz-adv-x="790" d="M22 654V700H329V654L237 632V262Q237 162 286 112T420 62Q503 62 554 112T605 262V632L512 654V700H768V654L676 632V262Q676 196 656 144T598 57T510 4T397 -15Q335 -15 283 3T194 56T135
143T114 262V632L22 654ZM218 826Q231 852 253 874T301 904L459 767L432 735L218 826Z" />
<glyph unicode="&#xda;" glyph-name="Uacute" horiz-adv-x="790" d="M22 654V700H329V654L237 632V262Q237 162 286 112T420 62Q503 62 554 112T605 262V632L512 654V700H768V654L676 632V262Q676 196 656 144T598 57T510 4T397 -15Q335 -15 283 3T194 56T135
143T114 262V632L22 654ZM346 767L504 904Q554 887 587 826L373 735L346 767Z" />
<glyph unicode="&#xdb;" glyph-name="Ucircumflex" horiz-adv-x="790" d="M22 654V700H329V654L237 632V262Q237 162 286 112T420 62Q503 62 554 112T605 262V632L512 654V700H768V654L676 632V262Q676 196 656 144T598 57T510 4T397 -15Q335 -15 283 3T194 56T135
143T114 262V632L22 654ZM247 767L382 913H466L596 767L546 744L424 836L293 743L247 767Z" />
<glyph unicode="&#xdc;" glyph-name="Udieresis" horiz-adv-x="790" d="M22 654V700H329V654L237 632V262Q237 162 286 112T420 62Q503 62 554 112T605 262V632L512 654V700H768V654L676 632V262Q676 196 656 144T598 57T510 4T397 -15Q335 -15 283 3T194 56T135
143T114 262V632L22 654ZM317 892Q344 892 363 873T382 827Q382 799 363 780T317 761Q290 761 271 780T252 827Q252 855 271 873T317 892ZM532 892Q559 892 578 873T597 827Q597 799 578 780T532 761Q505 761 486 780T466 827Q466 854 485 873T532 892Z" />
<glyph unicode="&#xdd;" glyph-name="Yacute" horiz-adv-x="695" d="M-9 654V700H279V654L214 641L379 398L527 634L453 654V700H698V654L606 632L412 323V68L504 46V0H197V46L289 68V320L72 634L-9 654ZM283 767L441 904Q491 887 524 826L310 735L283 767Z" />
<glyph unicode="&#xde;" glyph-name="Thorn" horiz-adv-x="634" d="M44 0V46L136 68V632L44 654V700H351V654L259 632V546H327Q605 546 605 350Q605 152 327 152H259V68L351 46V0H44ZM259 212H312Q387 212 433 247T479 350Q479 483 312 483H259V212Z" />
<glyph unicode="&#xdf;" glyph-name="germandbls" horiz-adv-x="665" d="M21 0V43L106 63V538Q106 639 163 699T331 760Q446 760 505 700T565 538V466H469Q376 466 376 397Q376 367 401 346T481 302Q556 272 597 233T638 129Q638 61 583 23T438 -15Q363 -15 288
8V151H334L376 42Q396 40 403 40Q524 40 524 118Q524 136 517 150T490 176T455 196T405 218Q278 270 278 377Q278 442 324 480T446 519V543Q446 705 339 705Q288 705 257 665T225 538V0H21Z" />
<glyph unicode="&#xe0;" glyph-name="agrave" horiz-adv-x="552" d="M35 124Q35 297 342 297V332Q342 419 318 442T241 466L124 366Q100 381 84 408T66 467Q108 490 158 502T257 515Q462 515 462 343V65H540V32Q517 10 489 -2T434 -15Q375 -15 347 36Q280 -15
196 -15Q130 -15 83 20T35 124ZM161 128Q161 91 185 73T248 55Q303 55 342 89V246Q252 246 207 214T161 128ZM104 716Q139 759 198 769L299 591L257 562L104 716Z" />
<glyph unicode="&#xe1;" glyph-name="aacute" horiz-adv-x="552" d="M35 124Q35 297 342 297V332Q342 419 318 442T241 466L124 366Q100 381 84 408T66 467Q108 490 158 502T257 515Q462 515 462 343V65H540V32Q517 10 489 -2T434 -15Q375 -15 347 36Q280 -15
196 -15Q130 -15 83 20T35 124ZM161 128Q161 91 185 73T248 55Q303 55 342 89V246Q252 246 207 214T161 128ZM229 588L333 770Q391 760 426 717L272 559L229 588Z" />
<glyph unicode="&#xe2;" glyph-name="acircumflex" horiz-adv-x="552" d="M35 124Q35 297 342 297V332Q342 419 318 442T241 466L124 366Q100 381 84 408T66 467Q108 490 158 502T257 515Q462 515 462 343V65H540V32Q517 10 489 -2T434 -15Q375 -15 347 36Q280
-15 196 -15Q130 -15 83 20T35 124ZM161 128Q161 91 185 73T248 55Q303 55 342 89V246Q252 246 207 214T161 128ZM112 581L227 766H311L428 581L382 557L269 684L157 557L112 581Z" />
<glyph unicode="&#xe3;" glyph-name="atilde" horiz-adv-x="552" d="M35 124Q35 297 342 297V332Q342 419 318 442T241 466L124 366Q100 381 84 408T66 467Q108 490 158 502T257 515Q462 515 462 343V65H540V32Q517 10 489 -2T434 -15Q375 -15 347 36Q280 -15
196 -15Q130 -15 83 20T35 124ZM161 128Q161 91 185 73T248 55Q303 55 342 89V246Q252 246 207 214T161 128ZM82 643Q111 684 147 708T216 733Q256 733 287 706T347 679Q389 679 436 719L467 692Q440 650 405 626T334 602Q294 602 262 629T202 656Q167 656 113
615L82 643Z" />
<glyph unicode="&#xe4;" glyph-name="adieresis" horiz-adv-x="552" d="M35 124Q35 297 342 297V332Q342 419 318 442T241 466L124 366Q100 381 84 408T66 467Q108 490 158 502T257 515Q462 515 462 343V65H540V32Q517 10 489 -2T434 -15Q375 -15 347 36Q280 -15
196 -15Q130 -15 83 20T35 124ZM161 128Q161 91 185 73T248 55Q303 55 342 89V246Q252 246 207 214T161 128ZM128 620Q109 638 109 667Q109 694 128 713T175 732Q202 732 221 713T240 667Q240 639 221 620T175 601Q146 601 128 620ZM328 620Q309 638 309 667Q309
694 328 713T375 732Q402 732 421 713T440 667Q440 639 421 620T375 601Q346 601 328 620Z" />
<glyph unicode="&#xe5;" glyph-name="aring" horiz-adv-x="552" d="M35 124Q35 297 342 297V332Q342 419 318 442T241 466L124 366Q100 381 84 408T66 467Q108 490 158 502T257 515Q462 515 462 343V65H540V32Q517 10 489 -2T434 -15Q375 -15 347 36Q280 -15 196
-15Q130 -15 83 20T35 124ZM161 128Q161 91 185 73T248 55Q303 55 342 89V246Q252 246 207 214T161 128ZM280 780Q323 780 356 749T389 671Q389 625 356 594T280 562Q236 562 204 593T171 671Q171 717 204 748T280 780ZM225 671Q225 648 241 632T280 616Q303 616
319 632T335 671Q335 693 319 709T280 726Q258 726 242 710T225 671Z" />
<glyph unicode="&#xe6;" glyph-name="ae" horiz-adv-x="833" d="M34 124Q34 297 339 297V332Q339 401 319 434T234 468L122 366Q100 384 85 412T69 467Q77 472 92 480T154 501T250 515Q373 515 420 449Q484 515 581 515Q693 515 744 440T796 247H459Q465 163 513
107T644 50Q697 50 759 73L774 26Q681 -15 599 -15Q541 -15 481 9T387 88L379 77Q374 70 356 52T317 21T262 -4T189 -15Q126 -15 80 20T34 124ZM160 128Q160 94 179 73T231 52Q296 52 335 110L339 116V246Q250 246 205 212T160 128ZM459 293L673 307Q671 347 664
378T635 434T580 460Q527 460 496 413T459 293Z" />
<glyph unicode="&#xe7;" glyph-name="ccedilla" horiz-adv-x="490" d="M170 -173Q208 -181 232 -181Q261 -181 277 -167T294 -127Q294 -74 221 -69L237 -9Q167 5 115 54Q43 124 43 248Q43 367 115 441T291 515Q380 515 451 473Q450 439 431 411T388 369L292 460H286Q235
451 200 396T165 250Q165 147 212 99T338 51Q399 51 450 79L467 30Q383 -15 296 -15H289L284 -34Q334 -36 361 -61T389 -126Q389 -179 352 -209T247 -240Q223 -240 170 -229V-173Z" />
<glyph unicode="&#xe8;" glyph-name="egrave" horiz-adv-x="536" d="M42 256Q42 366 105 440T279 515Q337 515 380 494T449 434T487 349T499 247H161Q168 165 216 108T347 50Q400 50 462 73L479 26Q386 -15 302 -15Q181 -15 112 64T42 256ZM161 296L375 312Q372
372 347 416T276 460Q226 460 195 413T161 296ZM133 716Q168 759 227 769L328 591L286 562L133 716Z" />
<glyph unicode="&#xe9;" glyph-name="eacute" horiz-adv-x="536" d="M42 256Q42 366 105 440T279 515Q337 515 380 494T449 434T487 349T499 247H161Q168 165 216 108T347 50Q400 50 462 73L479 26Q386 -15 302 -15Q181 -15 112 64T42 256ZM161 296L375 312Q372
372 347 416T276 460Q226 460 195 413T161 296ZM258 588L362 770Q420 760 455 717L301 559L258 588Z" />
<glyph unicode="&#xea;" glyph-name="ecircumflex" horiz-adv-x="536" d="M42 256Q42 366 105 440T279 515Q337 515 380 494T449 434T487 349T499 247H161Q168 165 216 108T347 50Q400 50 462 73L479 26Q386 -15 302 -15Q181 -15 112 64T42 256ZM161 296L375 312Q372
372 347 416T276 460Q226 460 195 413T161 296ZM122 581L237 766H321L438 581L392 557L279 684L167 557L122 581Z" />
<glyph unicode="&#xeb;" glyph-name="edieresis" horiz-adv-x="536" d="M42 256Q42 366 105 440T279 515Q337 515 380 494T449 434T487 349T499 247H161Q168 165 216 108T347 50Q400 50 462 73L479 26Q386 -15 302 -15Q181 -15 112 64T42 256ZM161 296L375 312Q372
372 347 416T276 460Q226 460 195 413T161 296ZM133 620Q114 638 114 667Q114 694 133 713T180 732Q207 732 226 713T245 667Q245 639 226 620T180 601Q151 601 133 620ZM333 620Q314 638 314 667Q314 694 333 713T380 732Q407 732 426 713T445 667Q445 639 426
620T380 601Q351 601 333 620Z" />
<glyph unicode="&#xec;" glyph-name="igrave" horiz-adv-x="347" d="M36 0V43L121 63V419H36V462L196 500H241V63L326 43V0H36ZM10 716Q45 759 104 769L205 591L163 562L10 716Z" />
<glyph unicode="&#xed;" glyph-name="iacute" horiz-adv-x="347" d="M36 0V43L121 63V419H36V462L196 500H241V63L326 43V0H36ZM130 588L234 770Q292 760 327 717L173 559L130 588Z" />
<glyph unicode="&#xee;" glyph-name="icircumflex" horiz-adv-x="347" d="M36 0V43L121 63V419H36V462L196 500H241V63L326 43V0H36ZM266 581L381 766H465L582 581L536 557L423 684L311 557L266 581Z" />
<glyph unicode="&#xef;" glyph-name="idieresis" horiz-adv-x="347" d="M36 0V43L121 63V419H36V462L196 500H241V63L326 43V0H36ZM292 620Q273 638 273 667Q273 694 292 713T339 732Q366 732 385 713T404 667Q404 639 385 620T339 601Q310 601 292 620ZM492 620Q473
638 473 667Q473 694 492 713T539 732Q566 732 585 713T604 667Q604 639 585 620T539 601Q510 601 492 620Z" />
<glyph unicode="&#xf0;" glyph-name="eth" horiz-adv-x="615" d="M45 240Q45 342 105 410T266 478Q352 478 412 426Q397 537 319 610L177 523V591L269 647Q215 681 147 692V757Q257 746 344 693L462 766V697L396 657Q548 533 548 310Q548 241 535 185T493 82T412
10T288 -16Q164 -16 105 53T45 240ZM171 236Q171 183 182 140T222 68T292 39Q420 39 420 274Q420 294 415 372Q366 408 312 408Q249 408 210 366T171 236Z" />
<glyph unicode="&#xf1;" glyph-name="ntilde" horiz-adv-x="667" d="M36 0V43L121 63V419H36V462L196 500H241V452Q317 515 402 515Q480 515 525 471T570 358V63L655 43V0H386V43L451 63V340Q451 442 364 442Q305 442 241 396V63L306 43V0H36ZM149 643Q178 684
214 708T283 733Q323 733 354 706T414 679Q456 679 503 719L534 692Q507 650 472 626T401 602Q361 602 329 629T269 656Q234 656 180 615L149 643Z" />
<glyph unicode="&#xf2;" glyph-name="ograve" horiz-adv-x="593" d="M297 515Q407 515 479 441T551 251Q551 135 479 60T297 -15Q187 -15 115 60T42 251Q42 366 114 440T297 515ZM297 460Q235 460 202 403T168 251Q168 156 201 98T297 40Q359 40 392 98T426 251Q426
346 393 403T297 460ZM155 716Q190 759 249 769L350 591L308 562L155 716Z" />
<glyph unicode="&#xf3;" glyph-name="oacute" horiz-adv-x="593" d="M297 515Q407 515 479 441T551 251Q551 135 479 60T297 -15Q187 -15 115 60T42 251Q42 366 114 440T297 515ZM297 460Q235 460 202 403T168 251Q168 156 201 98T297 40Q359 40 392 98T426 251Q426
346 393 403T297 460ZM271 588L375 770Q433 760 468 717L314 559L271 588Z" />
<glyph unicode="&#xf4;" glyph-name="ocircumflex" horiz-adv-x="593" d="M297 515Q407 515 479 441T551 251Q551 135 479 60T297 -15Q187 -15 115 60T42 251Q42 366 114 440T297 515ZM297 460Q235 460 202 403T168 251Q168 156 201 98T297 40Q359 40 392 98T426
251Q426 346 393 403T297 460ZM139 581L254 766H338L455 581L409 557L296 684L184 557L139 581Z" />
<glyph unicode="&#xf5;" glyph-name="otilde" horiz-adv-x="593" d="M297 515Q407 515 479 441T551 251Q551 135 479 60T297 -15Q187 -15 115 60T42 251Q42 366 114 440T297 515ZM297 460Q235 460 202 403T168 251Q168 156 201 98T297 40Q359 40 392 98T426 251Q426
346 393 403T297 460ZM104 643Q133 684 169 708T238 733Q278 733 309 706T369 679Q411 679 458 719L489 692Q462 650 427 626T356 602Q316 602 284 629T224 656Q189 656 135 615L104 643Z" />
<glyph unicode="&#xf6;" glyph-name="odieresis" horiz-adv-x="593" d="M297 515Q407 515 479 441T551 251Q551 135 479 60T297 -15Q187 -15 115 60T42 251Q42 366 114 440T297 515ZM297 460Q235 460 202 403T168 251Q168 156 201 98T297 40Q359 40 392 98T426
251Q426 346 393 403T297 460ZM150 620Q131 638 131 667Q131 694 150 713T197 732Q224 732 243 713T262 667Q262 639 243 620T197 601Q168 601 150 620ZM350 620Q331 638 331 667Q331 694 350 713T397 732Q424 732 443 713T462 667Q462 639 443 620T397 601Q368
601 350 620Z" />
<glyph unicode="&#xf7;" glyph-name="divide" horiz-adv-x="543" d="M204 187Q204 215 224 234T272 254Q300 254 319 235T339 187Q339 160 319 140T272 119Q244 119 224 139T204 187ZM204 526Q204 554 224 573T272 593Q300 593 319 574T339 526Q339 499 319 479T272
458Q244 458 224 478T204 526ZM47 323V390H497V323H47Z" />
<glyph unicode="&#xf8;" glyph-name="oslash" horiz-adv-x="593" d="M42 251Q42 367 114 441T297 515Q353 515 405 493L446 569H502L447 469Q551 394 551 251Q551 135 479 60T297 -15Q242 -15 194 5L152 -71H95L150 29Q42 106 42 251ZM168 251Q168 165 195 111L370
431Q339 460 297 460Q235 460 202 403T168 251ZM227 66Q256 40 297 40Q359 40 392 98T426 251Q426 330 401 385L227 66Z" />
<glyph unicode="&#xf9;" glyph-name="ugrave" horiz-adv-x="647" d="M13 457V500H217V155Q217 55 303 55Q371 55 431 106V437L366 457V500H550V65H628V32Q604 11 575 -2T516 -15Q493 -15 476 -7T449 15T436 36T431 51Q352 -15 261 -15Q181 -15 140 28T98 142V437L13
457ZM176 716Q211 759 270 769L371 591L329 562L176 716Z" />
<glyph unicode="&#xfa;" glyph-name="uacute" horiz-adv-x="647" d="M13 457V500H217V155Q217 55 303 55Q371 55 431 106V437L366 457V500H550V65H628V32Q604 11 575 -2T516 -15Q493 -15 476 -7T449 15T436 36T431 51Q352 -15 261 -15Q181 -15 140 28T98 142V437L13
457ZM267 588L371 770Q429 760 464 717L310 559L267 588Z" />
<glyph unicode="&#xfb;" glyph-name="ucircumflex" horiz-adv-x="647" d="M13 457V500H217V155Q217 55 303 55Q371 55 431 106V437L366 457V500H550V65H628V32Q604 11 575 -2T516 -15Q493 -15 476 -7T449 15T436 36T431 51Q352 -15 261 -15Q181 -15 140 28T98
142V437L13 457ZM160 581L275 766H359L476 581L430 557L317 684L205 557L160 581Z" />
<glyph unicode="&#xfc;" glyph-name="udieresis" horiz-adv-x="647" d="M13 457V500H217V155Q217 55 303 55Q371 55 431 106V437L366 457V500H550V65H628V32Q604 11 575 -2T516 -15Q493 -15 476 -7T449 15T436 36T431 51Q352 -15 261 -15Q181 -15 140 28T98 142V437L13
457ZM176 620Q157 638 157 667Q157 694 176 713T223 732Q250 732 269 713T288 667Q288 639 269 620T223 601Q194 601 176 620ZM376 620Q357 638 357 667Q357 694 376 713T423 732Q450 732 469 713T488 667Q488 639 469 620T423 601Q394 601 376 620Z" />
<glyph unicode="&#xfd;" glyph-name="yacute" horiz-adv-x="601" d="M1 457V500H274V457L197 442L339 125L459 437L379 457V500H600V457L521 436L238 -299Q193 -299 171 -286T136 -254L279 -27L69 438L1 457ZM259 588L363 770Q421 760 456 717L302 559L259 588Z" />
<glyph unicode="&#xfe;" glyph-name="thorn" horiz-adv-x="587" d="M-7 -232L78 -212V719H-7V762L153 800H195V474Q255 515 327 515Q420 515 482 453T544 268Q544 132 464 59T265 -15Q226 -15 195 -7V-212L300 -232V-275H-7V-232ZM195 48Q222 40 256 40Q331 40
374 97T418 264Q418 348 382 394T284 440Q241 440 195 418V48Z" />
<glyph unicode="&#xff;" glyph-name="ydieresis" horiz-adv-x="601" d="M1 457V500H274V457L197 442L339 125L459 437L379 457V500H600V457L521 436L238 -299Q193 -299 171 -286T136 -254L279 -27L69 438L1 457ZM173 620Q154 638 154 667Q154 694 173 713T220
732Q247 732 266 713T285 667Q285 639 266 620T220 601Q191 601 173 620ZM373 620Q354 638 354 667Q354 694 373 713T420 732Q447 732 466 713T485 667Q485 639 466 620T420 601Q391 601 373 620Z" />
<glyph unicode="&#x2013;" glyph-name="endash" horiz-adv-x="656" d="M72 241V305H582V241H72Z" />
<glyph unicode="&#x2014;" glyph-name="emdash" horiz-adv-x="1156" d="M72 241V305H1082V241H72Z" />
<glyph unicode="&#x2018;" glyph-name="quoteleft" horiz-adv-x="238" d="M213 709Q153 646 123 571L189 520Q189 487 167 466T116 444Q81 444 61 465T41 527Q41 577 86 643T176 742L213 709Z" />
<glyph unicode="&#x2019;" glyph-name="quoteright" horiz-adv-x="240" d="M38 456Q98 519 128 594L62 645Q62 678 84 699T135 721Q170 721 190 700T210 638Q210 588 165 522T75 423L38 456Z" />
<glyph unicode="&#x201a;" glyph-name="quotesinglbase" horiz-adv-x="238" d="M19 -140Q79 -77 109 -2L43 49Q43 82 65 103T116 125Q151 125 171 104T191 42Q191 -8 146 -74T56 -173L19 -140Z" />
<glyph unicode="&#x201c;" glyph-name="quotedblleft" horiz-adv-x="417" d="M213 711Q153 648 123 573L189 522Q189 489 167 468T116 446Q81 446 61 467T41 529Q41 579 86 645T176 744L213 711ZM393 711Q333 648 303 573L369 522Q369 489 347 468T296 446Q261
446 241 467T221 529Q221 579 266 645T356 744L393 711Z" />
<glyph unicode="&#x201d;" glyph-name="quotedblright" horiz-adv-x="421" d="M38 456Q98 519 128 594L62 645Q62 678 84 699T135 721Q170 721 190 700T210 638Q210 588 165 522T75 423L38 456ZM219 456Q279 519 309 594L243 645Q243 678 265 699T316 721Q351
721 371 700T391 638Q391 588 346 522T256 423L219 456Z" />
<glyph unicode="&#x201e;" glyph-name="quotedblbase" horiz-adv-x="419" d="M19 -140Q79 -77 109 -2L43 49Q43 82 65 103T116 125Q151 125 171 104T191 42Q191 -8 146 -74T56 -173L19 -140ZM199 -140Q259 -77 289 -2L223 49Q223 82 245 103T296 125Q331 125 351
104T371 42Q371 -8 326 -74T236 -173L199 -140Z" />
<glyph unicode="&#x2022;" glyph-name="bullet" horiz-adv-x="442" d="M71 357Q71 423 117 465T221 507Q278 507 324 464T371 357Q371 293 325 250T221 207Q166 207 119 249T71 357Z" />
<glyph unicode="&#x2039;" glyph-name="guilsinglleft" horiz-adv-x="304" d="M209 70L46 254V286L209 470L254 450L163 270L254 90L209 70Z" />
<glyph unicode="&#x203a;" glyph-name="guilsinglright" horiz-adv-x="304" d="M50 90L141 270L50 450L95 470L258 286V254L95 70L50 90Z" />
</font>
</defs>
</svg>
