<?xml version="1.0" standalone="no"?>
<!DOCTYPE svg PUBLIC "-//W3C//DTD SVG 1.1//EN" "http://www.w3.org/Graphics/SVG/1.1/DTD/svg11.dtd">
<svg xmlns="http://www.w3.org/2000/svg">
<defs >
<font id="Puritan" horiz-adv-x="482" ><font-face
    font-family="Puritan"
    units-per-em="1024"
    panose-1="0 0 7 0 0 0 0 0 0 0"
    ascent="896"
    descent="-256"
    alphabetic="0" />
<glyph unicode=" " glyph-name="space" horiz-adv-x="279" />
<glyph unicode="!" glyph-name="exclam" horiz-adv-x="240" d="M41 176L96 702H224L169 176H41ZM7 45Q11 78 35 101T94 125Q127 125 148 102T166 45Q163 11 137 -11T77 -34Q45 -34 25 -11T7 45Z" />
<glyph unicode="&quot;" glyph-name="quotedbl" horiz-adv-x="336" d="M207 660L205 435H240L304 660H207ZM62 660L60 435H94L159 660H62Z" />
<glyph unicode="#" glyph-name="numbersign" horiz-adv-x="548" d="M386 542L382 507L456 514L446 429L373 421L362 332L271 322L283 412L245 408L234 318L143 308L154 398L58 388L68 473L163 483L167 519L73 509L81 594L176 604L183 674L274 683L266 614L305
617L312 687L403 698L395 628L470 635L461 550L386 542ZM254 494L291 497L295 532L258 528L254 494Z" />
<glyph unicode="$" glyph-name="dollar" horiz-adv-x="548" d="M293 -102H173L183 -10Q94 7 50 82L126 163Q180 86 248 86Q282 86 308 112T339 178Q343 221 285 247Q179 294 172 298Q111 341 111 422Q111 436 112 452Q119 510 158 555Q195 597 249 615L259 707H379L369
618Q420 604 479 550L408 471Q352 526 304 526Q275 526 256 505T231 446Q227 409 286 388Q377 354 396 341Q456 298 457 210Q457 196 455 179Q441 33 303 -7L293 -102Z" />
<glyph unicode="%" glyph-name="percent" horiz-adv-x="548" d="M182 666Q234 666 265 628T290 530Q283 465 246 430T155 394Q106 394 76 424T46 509Q46 571 83 616Q122 666 182 666ZM-33 -47L417 649L514 610L72 -84L-33 -47ZM260 134Q266 192 305 231T398 271Q450
271 481 232T506 134Q499 66 462 30T370 -6Q320 -6 290 24T259 111Q259 122 260 134ZM142 527Q138 485 164 485Q189 485 193 527Q198 572 172 572Q147 572 142 527ZM357 130Q353 87 379 87Q404 87 408 130Q413 176 387 176Q362 176 357 130Z" />
<glyph unicode="&amp;" glyph-name="ampersand" horiz-adv-x="568" d="M119 190Q115 148 135 116Q159 77 206 77Q248 77 296 123Q198 227 170 299Q128 270 119 190ZM359 61Q337 32 292 12T201 -9Q108 -9 56 41Q9 87 9 160Q9 222 45 281Q78 337 133 372Q105 428
112 486Q119 559 174 607T300 655Q343 655 371 642Q404 626 436 582L372 518Q338 565 273 565Q231 565 224 501Q221 472 236 424Q280 440 349 442L357 360Q305 360 275 352Q324 270 365 218Q371 233 372 248Q376 282 371 322L463 338Q466 282 463 259Q458 207 433
148Q452 129 522 89L447 0Q414 12 359 61Z" />
<glyph unicode="&apos;" glyph-name="quotesingle" horiz-adv-x="198" d="M63 662L69 423H98L160 662H63Z" />
<glyph unicode="(" glyph-name="parenleft" horiz-adv-x="325" d="M216 808L294 762Q174 512 155 331Q150 285 150 241Q150 161 167 70Q173 37 206 -102L116 -146Q42 39 42 231Q42 534 216 808Z" />
<glyph unicode=")" glyph-name="parenright" horiz-adv-x="323" d="M30 -102Q104 65 119 106Q159 217 171 327Q176 375 176 423Q176 570 123 763L211 807Q282 639 282 443Q282 136 111 -146L30 -102Z" />
<glyph unicode="*" glyph-name="asterisk" horiz-adv-x="281" d="M166 512L162 457H85L93 512L46 473L10 545L76 583L19 622L68 693L109 653L113 711L189 709L180 655L226 694L260 622L198 584L254 545L204 473L166 512Z" />
<glyph unicode="+" glyph-name="plus" horiz-adv-x="509" d="M302 98H208V272H53V369H208V534H302V369H457V272H302V98Z" />
<glyph unicode="," glyph-name="comma" horiz-adv-x="260" d="M99 -110L33 -96Q58 -54 70 -1Q72 9 84 87H191Q187 50 157 -14Q127 -75 99 -110Z" />
<glyph unicode="-" glyph-name="hyphen" horiz-adv-x="389" d="M56 369H343L333 273H46L56 369Z" />
<glyph unicode="." glyph-name="period" horiz-adv-x="249" d="M37 79Q41 116 70 142T135 168Q172 168 195 142T215 79Q211 42 182 17T117 -9Q81 -9 57 16T37 79Z" />
<glyph unicode="/" glyph-name="slash" horiz-adv-x="394" d="M-59 -153L350 724L471 699L62 -177L-59 -153Z" />
<glyph unicode="0" glyph-name="zero" horiz-adv-x="512" d="M36 105Q4 171 4 259Q4 289 7 323Q22 470 90 564Q168 672 291 672Q400 672 456 587Q507 512 507 387Q507 355 503 323Q491 200 422 105Q337 -13 219 -12Q93 -13 36 105ZM229 87Q304 87 347 173Q377
233 386 323Q391 372 391 407Q391 573 281 572Q199 572 160 481Q138 429 127 323Q124 292 124 262Q124 87 229 87Z" />
<glyph unicode="1" glyph-name="one" horiz-adv-x="512" d="M451 102L440 0H70L80 102H216L263 547H136L146 652H384L327 102H451Z" />
<glyph unicode="2" glyph-name="two" horiz-adv-x="512" d="M61 101L266 302Q358 391 366 466Q371 513 350 546T283 579Q224 579 163 488L91 540Q179 674 291 674Q379 674 434 623T489 490Q489 416 437 341Q398 284 321 216Q321 216 196 114H468L456 0H50L61 101Z" />
<glyph unicode="3" glyph-name="three" horiz-adv-x="512" d="M89 148Q157 69 222 70Q280 70 315 108Q344 140 349 187Q353 233 329 264Q300 299 245 299H181L190 387H254Q297 387 330 418T369 494Q373 530 348 558T284 586Q251 586 225 567Q209 556 174 518L117
577Q204 676 293 676Q366 676 419 630Q478 579 470 501Q464 447 428 410Q404 385 355 359Q404 333 433 288Q467 237 461 178Q454 111 394 50Q325 -20 234 -19Q94 -19 29 71L89 148Z" />
<glyph unicode="4" glyph-name="four" horiz-adv-x="512" d="M130 236H282L307 475L130 236ZM369 0H257L272 144H-3L5 222L342 667H438L393 236H482L473 144H384L369 0Z" />
<glyph unicode="5" glyph-name="five" horiz-adv-x="512" d="M-1 66L56 141Q111 62 203 62Q260 62 307 116Q348 163 353 212Q354 223 354 232Q354 330 249 331Q229 331 194 310Q155 288 132 260L50 281L90 659H469L457 546H160L140 355Q163 384 199 406Q243 433
286 432Q365 432 416 381Q469 327 469 239Q469 124 386 50T186 -25Q45 -24 -1 66Z" />
<glyph unicode="6" glyph-name="six" horiz-adv-x="512" d="M127 198Q121 141 148 102Q179 59 240 59Q295 59 338 116Q377 168 377 225Q377 277 350 305T275 334Q219 334 178 299Q133 261 127 198ZM11 276Q29 448 99 550Q183 672 334 672Q405 672 495 626L444
541Q399 578 323 578Q243 578 191 503Q149 443 133 343Q161 389 224 415Q269 432 303 432Q383 432 433 387Q488 338 488 250Q488 235 486 218Q476 119 407 50Q334 -23 230 -23Q134 -23 76 33Q8 96 8 222Q8 247 11 276Z" />
<glyph unicode="7" glyph-name="seven" horiz-adv-x="512" d="M159 -33L50 -2L385 548H61L74 659H506L495 556L159 -33Z" />
<glyph unicode="8" glyph-name="eight" horiz-adv-x="512" d="M128 183Q121 121 157 87Q186 59 226 59Q274 59 310 94T353 183Q362 274 257 318Q136 260 128 183ZM197 509Q202 439 266 411Q362 447 369 507Q373 544 351 570T293 597Q261 597 234 575Q205 551 197
509ZM22 181Q34 290 180 360Q80 431 88 506Q97 591 165 636Q222 674 301 674Q369 674 414 640Q465 603 465 535Q465 441 349 367Q470 298 470 203Q470 98 397 33Q328 -28 221 -29Q133 -29 80 15Q21 63 20 153Q21 166 22 181Z" />
<glyph unicode="9" glyph-name="nine" horiz-adv-x="512" d="M-2 57L68 136Q107 97 138 83T217 68Q289 68 335 151Q371 216 381 309Q299 223 224 223Q146 223 91 276T36 414Q36 522 110 597T294 672Q381 672 439 613Q507 546 507 423Q507 398 504 372Q488 219
430 118Q347 -26 199 -27Q77 -27 -2 57ZM147 442Q142 390 171 348Q201 303 249 303Q312 303 351 348T390 458Q390 511 367 546Q338 586 285 586Q231 586 193 545T147 442Z" />
<glyph unicode=":" glyph-name="colon" horiz-adv-x="249" d="M55 430Q59 467 88 492T154 518Q191 518 214 493T233 430Q229 393 200 367T135 341Q99 341 75 367T55 430ZM18 79Q22 116 51 142T117 168Q154 168 177 142T197 79Q193 42 164 17T98 -9Q62 -9 38 16T18 79Z" />
<glyph unicode=";" glyph-name="semicolon" horiz-adv-x="260" d="M93 428Q102 516 173 516Q241 516 231 428Q222 340 155 340Q84 340 93 428ZM77 -110L10 -96Q35 -54 47 -1Q49 9 61 87H169Q165 50 134 -14Q105 -75 77 -110Z" />
<glyph unicode="&lt;" glyph-name="less" horiz-adv-x="374" d="M368 47L243 43L0 296L242 542L368 538L162 292L368 47Z" />
<glyph unicode="=" glyph-name="equal" horiz-adv-x="451" d="M91 360H420V260H91V360ZM91 228H420V128H91V228Z" />
<glyph unicode="&gt;" glyph-name="greater" horiz-adv-x="373" d="M-14 47L191 292L-16 538L110 542L351 296L110 43L-14 47Z" />
<glyph unicode="?" glyph-name="question" horiz-adv-x="559" d="M158 61Q161 92 186 114T243 137Q277 137 298 115T316 61Q312 29 287 8T227 -13Q194 -13 174 8T158 61ZM393 365Q334 324 304 257Q297 242 291 182H190Q188 201 194 232Q197 252 201 274Q206 327
232 360Q252 387 323 439Q375 478 380 521Q384 559 363 589T308 620Q226 620 178 512L86 552Q131 637 181 672T314 708Q406 708 457 662Q502 620 502 546Q502 534 501 521Q495 468 467 430Q444 401 393 365Z" />
<glyph unicode="@" glyph-name="at" horiz-adv-x="1034" d="M641 481L649 522H741Q734 438 716 328Q699 231 682 132Q682 132 690 83Q696 66 736 66Q779 66 825 133T871 275Q871 432 775 535T525 638Q371 638 262 516Q156 398 156 244Q156 80 244 -36Q337 -161
484 -161Q590 -161 658 -131Q721 -102 806 -22L867 -92Q765 -185 712 -210Q632 -248 484 -248Q275 -248 151 -102Q34 35 34 244Q34 439 178 577T525 715T850 594T973 275Q973 163 885 71T685 -22Q624 -22 591 78Q521 -20 434 -20Q255 -20 255 204Q255 322 331 421Q415
533 542 532Q573 532 598 516L641 481ZM539 446Q488 446 442 399Q381 337 381 217Q381 151 393 122Q412 72 470 72Q501 72 545 117T597 204L632 396Q619 413 589 429T539 446Z" />
<glyph unicode="A" glyph-name="A" horiz-adv-x="581" d="M371 152H159L94 -12L-11 2L272 670H377L522 7L401 -12L371 152ZM197 247H353L304 513L197 247Z" />
<glyph unicode="B" glyph-name="B" horiz-adv-x="513" d="M30 2L99 656Q107 656 196 658Q261 660 298 660Q374 660 416 623T459 517Q459 506 458 494Q449 409 351 359Q404 355 439 307T468 197Q456 79 367 32Q302 -2 180 -2Q152 -2 101 0T30 2ZM212 583L191 389H237Q283
389 313 418Q341 445 345 484Q354 584 270 585Q249 585 212 583ZM183 311L160 83H228Q282 83 315 116Q346 146 351 198Q356 241 331 274Q302 311 250 311H183Z" />
<glyph unicode="C" glyph-name="C" horiz-adv-x="570" d="M356 676Q443 676 551 605L500 525Q440 563 437 565Q402 582 364 583Q281 583 224 490Q178 416 169 326Q167 309 167 291Q167 207 208 153T309 98Q345 98 379 111Q405 120 462 151L502 71Q429 27 389 11Q338
-8 280 -8Q154 -8 88 81Q30 160 30 285Q30 438 115 551Q208 676 356 676Z" />
<glyph unicode="D" glyph-name="D" horiz-adv-x="578" d="M30 2L99 658Q181 662 266 663Q549 663 549 392Q549 362 546 331Q531 174 441 88Q349 -2 193 -2Q168 -2 120 0T30 2ZM266 583Q259 583 243 583Q227 582 216 582L164 89H220Q299 89 356 164Q407 231 417
321Q420 354 420 383Q420 583 266 583Z" />
<glyph unicode="E" glyph-name="E" horiz-adv-x="473" d="M190 400H423L414 309L181 310L159 91H404L394 0H30L99 655H467L458 568H209L190 400Z" />
<glyph unicode="F" glyph-name="F" horiz-adv-x="474" d="M190 400H425L416 309H181L148 0H30L99 655H468L459 568H209L190 400Z" />
<glyph unicode="G" glyph-name="G" horiz-adv-x="595" d="M273 -6Q152 -6 87 84Q29 164 29 286Q29 309 32 331Q43 455 119 556Q210 676 342 676Q389 676 446 658Q513 636 550 604L500 526Q424 582 354 583Q278 583 222 489Q176 412 167 326Q165 306 165 286Q165
203 199 149T288 94Q350 94 386 111L408 311H273L283 400H539L503 67Q432 26 391 12Q339 -6 273 -6Z" />
<glyph unicode="H" glyph-name="H" horiz-adv-x="595" d="M409 309H184L152 0H30L99 655H221L194 400H418L445 655H566L497 0H376L409 309Z" />
<glyph unicode="I" glyph-name="I" horiz-adv-x="250" d="M99 656H221L152 0H30L99 656Z" />
<glyph unicode="J" glyph-name="J" horiz-adv-x="252" d="M-31 -191Q-87 -191 -124 -171Q-146 -158 -189 -114L-120 -37Q-97 -67 -82 -78Q-60 -93 -29 -93Q31 -93 48 61L110 655H232L171 69Q144 -191 -31 -191Z" />
<glyph unicode="K" glyph-name="K" horiz-adv-x="555" d="M214 261L173 211L152 0H30L98 656H220L189 359L430 689L531 635Q437 522 288 338Q319 277 395 173Q457 90 521 8L374 -24Q288 114 214 261Z" />
<glyph unicode="L" glyph-name="L" horiz-adv-x="513" d="M99 656H219L159 87H423L414 0H30L99 656Z" />
<glyph unicode="M" glyph-name="M" horiz-adv-x="812" d="M613 437L412 -1H305L196 441L148 0H40L110 657H265L392 174L626 657H771L701 0H567L613 437Z" />
<glyph unicode="N" glyph-name="N" horiz-adv-x="595" d="M180 411L136 0H31L100 659H199L419 245L462 655H566L500 15L398 -15Q317 169 180 411Z" />
<glyph unicode="O" glyph-name="O" horiz-adv-x="659" d="M34 330Q48 473 143 567T370 662Q489 662 560 582T631 375Q631 353 629 330Q612 167 513 73Q422 -16 291 -16Q174 -16 104 58Q30 136 31 273Q31 301 34 330ZM159 283Q159 196 197 137Q237 76 301 76Q391
76 451 177Q502 263 502 360Q502 450 465 509Q425 571 358 571Q266 571 208 469Q159 382 159 283Z" />
<glyph unicode="P" glyph-name="P" horiz-adv-x="486" d="M176 265L148 0H30L99 656L292 659Q370 660 421 611T473 484Q473 395 394 328Q319 263 228 263Q217 263 176 265ZM210 583L184 335H217Q268 335 308 372T353 459Q354 470 354 480Q354 575 255 585Q248
586 233 585T210 583Z" />
<glyph unicode="Q" glyph-name="Q" horiz-adv-x="673" d="M449 42Q363 -19 295 -19Q178 -19 106 58T33 273Q33 300 36 329Q51 473 146 567T374 662Q494 662 565 583T637 378Q637 213 536 125L654 6L568 -80L449 42ZM162 283Q162 196 199 136Q239 74 302 74Q345
74 385 103L313 168L402 253L467 189Q494 226 504 323Q506 343 506 364Q506 452 470 509Q430 570 362 570Q270 570 212 469Q162 382 162 283Z" />
<glyph unicode="R" glyph-name="R" horiz-adv-x="534" d="M200 269H177L150 0H31L99 656Q128 656 206 658Q261 659 297 659Q470 658 470 501Q470 486 468 469Q460 398 414 346Q373 300 316 283Q385 170 522 16L370 -11Q321 45 275 123Q255 159 200 269ZM211 583L185
341H227Q340 341 353 470Q357 513 344 543Q324 587 266 585L211 583Z" />
<glyph unicode="S" glyph-name="S" horiz-adv-x="464" d="M-2 84L61 163Q115 91 195 91Q301 91 312 196Q317 248 253 276T127 333Q58 378 58 466Q58 481 60 498Q69 582 141 635Q201 680 268 680Q374 680 454 607L403 521Q341 587 279 587Q237 587 216 570Q188
550 183 497Q178 451 242 423Q355 374 365 368Q433 321 432 228Q432 214 430 198Q419 93 344 37Q281 -10 193 -10Q54 -10 -2 84Z" />
<glyph unicode="T" glyph-name="T" horiz-adv-x="548" d="M305 0H183L244 571H57L67 654H551L542 571H366L305 0Z" />
<glyph unicode="U" glyph-name="U" horiz-adv-x="625" d="M269 -17Q181 -17 123 34Q54 93 54 202Q54 221 56 241L100 655H222L178 241Q177 228 177 215Q177 145 216 105Q250 72 292 73Q337 73 376 113Q423 160 431 241L475 655H597L553 241Q540 113 446 42Q368
-17 269 -17Z" />
<glyph unicode="V" glyph-name="V" horiz-adv-x="555" d="M197 -10L41 641L171 673L279 191L477 674L580 640L286 -10H197Z" />
<glyph unicode="W" glyph-name="W" horiz-adv-x="807" d="M507 -6L425 406L250 -6H160L44 637L182 664L250 213L409 651H514L581 214L734 665L834 636L587 -6H507Z" />
<glyph unicode="X" glyph-name="X" horiz-adv-x="565" d="M273 250L103 -31L-6 10L220 325L71 636L194 678L300 417L464 680L555 635L343 337L527 10L395 -26L273 250Z" />
<glyph unicode="Y" glyph-name="Y" horiz-adv-x="515" d="M283 0H162L190 278L43 636L172 670L274 380L443 670L535 636L311 278L283 0Z" />
<glyph unicode="Z" glyph-name="Z" horiz-adv-x="557" d="M466 101L455 0H28L9 76L375 563L94 561L104 654H517L531 568L175 101H466Z" />
<glyph unicode="[" glyph-name="bracketleft" horiz-adv-x="230" d="M120 758H280L270 669H211L139 -9H206L195 -117H28L120 758Z" />
<glyph unicode="\" glyph-name="backslash" horiz-adv-x="394" d="M51 699L165 724L358 -153L245 -177L51 699Z" />
<glyph unicode="]" glyph-name="bracketright" horiz-adv-x="272" d="M16 -9H83L155 669H96L105 758H261L169 -117H5L16 -9Z" />
<glyph unicode="^" glyph-name="asciicircum" horiz-adv-x="548" d="M156 454L102 527L287 702L437 527L368 454L273 575L156 454Z" />
<glyph unicode="_" glyph-name="underscore" horiz-adv-x="548" d="M8 -51H546L540 -112H2L8 -51Z" />
<glyph unicode="`" glyph-name="grave" horiz-adv-x="336" d="M331 641L120 732L48 652L259 567L331 641Z" />
<glyph unicode="a" glyph-name="a" horiz-adv-x="502" d="M303 228Q272 228 227 220Q178 212 161 201Q134 186 129 140Q126 111 142 90T183 68Q244 68 291 117L303 228ZM296 55Q249 17 231 6Q194 -17 161 -16Q105 -16 67 19T29 118Q29 128 30 139Q39 224 92 260Q126
282 221 300Q269 309 309 313L315 367Q317 390 301 409T260 429Q167 429 101 359L63 422Q96 468 163 498Q221 525 270 524Q343 524 387 477T425 357L397 100Q397 94 404 86T419 78Q452 78 463 88L467 23Q400 -11 364 -11Q348 -11 326 7Q300 28 296 55Z" />
<glyph unicode="b" glyph-name="b" horiz-adv-x="527" d="M135 47L122 -1H29L103 717H214L185 444Q209 479 258 506Q304 531 336 530Q409 530 450 467Q486 411 485 328Q485 310 483 292Q450 -10 251 -10Q215 -10 135 47ZM175 343L153 131Q167 113 197 98T252 82Q310
82 338 151Q354 192 364 278Q367 302 367 323Q367 440 290 439Q232 439 175 343Z" />
<glyph unicode="c" glyph-name="c" horiz-adv-x="490" d="M39 248Q53 385 141 460Q215 525 309 523Q368 523 459 458L418 387Q357 441 292 441Q227 441 188 355Q156 285 157 211Q157 146 185 108T260 69Q320 69 400 134L439 74Q356 -12 252 -12Q131 -12 77 74Q38
134 38 220Q38 236 39 248Z" />
<glyph unicode="d" glyph-name="d" horiz-adv-x="523" d="M328 -1L325 50Q292 31 258 11Q213 -14 189 -13Q106 -13 62 56Q25 116 26 210Q26 311 75 411Q134 531 223 530Q275 530 302 518Q316 511 361 473L386 714H497L422 -1H328ZM252 439Q168 439 150 265Q148
239 147 215Q147 77 223 77Q254 77 325 130L348 350Q319 398 310 409Q285 439 252 439Z" />
<glyph unicode="e" glyph-name="e" horiz-adv-x="502" d="M262 70Q329 69 402 134L441 72Q383 21 344 5T247 -12Q127 -12 75 76Q38 136 38 223Q38 239 40 253Q52 369 121 443Q195 522 306 522Q377 522 423 478Q473 430 473 349Q473 335 472 321L464 244H161Q159
219 159 200Q159 71 262 70ZM361 331Q363 346 364 359Q364 442 291 442Q257 442 226 416Q192 385 177 331H361Z" />
<glyph unicode="f" glyph-name="f" horiz-adv-x="331" d="M270 673Q234 674 221 608Q221 608 211 510H338L329 418H202L158 0H50L94 418H23L32 510H103L110 564Q130 764 279 764Q326 764 349 750Q353 747 394 707L338 638Q302 672 270 673Z" />
<glyph unicode="g" glyph-name="g" horiz-adv-x="523" d="M458 331Q450 249 390 195T248 140Q221 140 191 150Q173 134 154 106Q151 74 197 69Q204 68 270 68Q372 68 400 58Q460 39 461 -36Q461 -48 460 -61Q450 -152 340 -205Q256 -245 173 -245Q96 -245 53 -212T15
-120Q20 -65 118 -6Q78 -6 55 18Q35 40 38 70Q40 90 80 124Q131 169 135 174Q60 237 71 328Q78 404 140 460T286 516Q382 516 423 457L563 517L551 401H450Q460 351 458 331ZM182 328Q178 289 196 256Q218 218 256 218Q293 218 320 252T353 333Q357 368 335 403T275
438Q237 438 210 400Q186 368 182 328ZM178 -16Q168 -19 149 -45T127 -95Q126 -105 126 -114Q126 -171 206 -171Q256 -171 303 -136T353 -65Q357 -34 336 -24Q321 -17 274 -16H178Z" />
<glyph unicode="h" glyph-name="h" horiz-adv-x="524" d="M348 334Q349 347 349 359Q349 430 301 430Q255 430 210 382Q173 343 171 327L136 0H27L102 713H212L180 416Q249 524 316 523Q371 523 414 481Q460 436 460 368Q460 358 459 347L422 0H312L348 334Z" />
<glyph unicode="i" glyph-name="i" horiz-adv-x="238" d="M76 673Q79 706 103 727T159 749Q190 749 209 728T226 673Q222 640 198 618T143 596Q112 596 92 618T76 673ZM79 507H188L135 0H26L79 507Z" />
<glyph unicode="j" glyph-name="j" horiz-adv-x="238" d="M242 674Q239 641 214 620T159 598Q127 598 107 619T90 674Q94 707 118 728T174 750Q205 750 225 729T242 674ZM76 -175Q37 -201 -43 -228L-73 -135Q16 -109 30 -66Q31 -61 36 -13L90 507H201L141 -56Q133
-137 76 -175Z" />
<glyph unicode="k" glyph-name="k" horiz-adv-x="487" d="M193 227L158 182L138 -1H29L103 714H213L169 296L378 549L468 482L258 282L454 32L349 -32L193 227Z" />
<glyph unicode="l" glyph-name="l" horiz-adv-x="239" d="M103 715H212L136 0H28L103 715Z" />
<glyph unicode="m" glyph-name="m" horiz-adv-x="794" d="M625 347Q626 358 626 369Q626 430 578 430Q553 430 512 395Q463 353 458 304L426 0H311L346 332Q350 370 334 398T296 426Q265 426 224 383T179 313L146 0H37L90 508H200L190 417Q266 519 333 519Q370
519 403 490T449 422Q537 524 604 524Q674 524 713 468Q747 418 739 352L702 0H588L625 347Z" />
<glyph unicode="n" glyph-name="n" horiz-adv-x="524" d="M357 328Q358 341 358 352Q358 431 309 431Q272 431 227 388T179 310L146 0H37L90 508H200L190 417Q263 523 328 523Q387 523 428 479T469 364Q469 353 468 340L432 0H323L357 328Z" />
<glyph unicode="o" glyph-name="o" horiz-adv-x="559" d="M40 258Q54 389 144 463Q219 524 310 524Q393 524 453 472Q522 410 521 298Q521 279 519 258Q510 168 456 93Q381 -11 254 -11Q131 -11 77 71Q38 130 38 220Q38 240 40 258ZM157 220Q157 155 181 115Q208
69 258 69Q328 69 369 148Q403 214 402 292Q402 357 380 397Q353 443 306 443Q233 443 191 365Q157 299 157 220Z" />
<glyph unicode="p" glyph-name="p" horiz-adv-x="529" d="M160 29L136 -202H27L101 508H211L202 424Q219 464 264 494T351 525Q506 524 506 324Q506 297 503 267Q472 -24 259 -24Q229 -23 160 29ZM190 317L169 117Q227 70 270 70Q317 70 349 133Q376 184 382 254Q386
290 386 314Q386 431 306 431Q281 431 241 387Q203 348 190 317Z" />
<glyph unicode="q" glyph-name="q" horiz-adv-x="523" d="M378 461L383 508H493L418 -202H308L334 44Q231 -24 198 -24Q123 -24 82 42Q45 101 45 202Q45 230 48 258Q57 346 106 426Q164 520 241 520Q288 520 318 505Q338 496 378 461ZM280 432Q217 431 185 349Q162
291 163 212Q163 150 183 110Q205 67 240 67Q255 67 288 95Q340 138 344 141L366 349Q360 377 334 404T280 432Z" />
<glyph unicode="r" glyph-name="r" horiz-adv-x="346" d="M270 393Q240 392 209 361Q182 334 180 319L146 0H37L91 508H201L191 425Q207 457 234 485Q265 518 290 518Q328 518 352 508L327 381Q310 391 300 393Q296 394 270 393Z" />
<glyph unicode="s" glyph-name="s" horiz-adv-x="447" d="M28 68L93 144Q139 72 205 73Q238 73 260 91T285 138Q290 189 177 223Q121 239 96 265Q65 299 71 357Q80 440 138 486Q189 526 257 526H259Q327 526 409 471L360 395Q306 437 257 437Q224 437 204 420T182
380Q179 352 201 343Q235 329 267 318Q409 274 399 169Q390 80 327 30Q271 -14 191 -14Q81 -14 28 68Z" />
<glyph unicode="t" glyph-name="t" horiz-adv-x="359" d="M78 158L105 420H34L43 504H115L126 611H242L230 504H333L324 419L221 420L193 146Q186 80 223 81Q255 81 265 85Q283 94 302 104L319 34Q264 5 246 0Q218 -8 163 -8Q76 -8 76 118Q76 136 78 158Z" />
<glyph unicode="u" glyph-name="u" horiz-adv-x="523" d="M332 0Q331 28 329 73Q249 -18 193 -18Q136 -18 96 26T55 143Q55 156 56 170L92 507H202L167 173Q165 158 165 145Q165 76 210 77Q247 77 295 124Q339 167 342 194L375 507H484L431 0H332Z" />
<glyph unicode="v" glyph-name="v" horiz-adv-x="475" d="M173 -12L41 485L155 517L228 124L379 517L483 485L251 -12H173Z" />
<glyph unicode="w" glyph-name="w" horiz-adv-x="752" d="M463 -9L385 314L238 -9H148L47 486L163 515L217 122L360 505H457L524 123L654 515L761 486L550 -9H463Z" />
<glyph unicode="x" glyph-name="x" horiz-adv-x="499" d="M243 187L72 -32L-16 33L181 252L47 465L157 526L263 325L417 525L502 473L316 257L471 32L369 -34L243 187Z" />
<glyph unicode="y" glyph-name="y" horiz-adv-x="491" d="M79 -201Q50 -201 -17 -176L26 -79Q62 -99 95 -99Q147 -100 197 33L58 484L178 515L259 140L410 513L510 487L247 -80Q223 -128 184 -161Q136 -201 79 -201Z" />
<glyph unicode="z" glyph-name="z" horiz-adv-x="493" d="M36 79L273 364Q284 379 319 418H81L90 506H464L456 424L234 156Q218 134 185 94H433L423 0H28L36 79Z" />
<glyph unicode="{" glyph-name="braceleft" horiz-adv-x="548" d="M384 742Q351 742 340 722T319 629Q316 603 314 558T311 499Q303 422 220 347L219 340Q285 273 285 174Q285 162 284 150Q282 127 272 69T259 -10Q254 -66 256 -77Q259 -92 279 -92Q323 -92 353
-67L371 -188Q321 -204 264 -202Q142 -195 142 -41Q142 -7 150 62Q151 76 157 117T166 181Q174 258 114 317L121 374Q162 417 172 430Q196 463 200 502Q203 527 205 571T209 636Q232 854 393 854Q420 854 480 839L447 724Q397 742 384 742Z" />
<glyph unicode="|" glyph-name="bar" horiz-adv-x="234" d="M116 702H247L148 -225H17L116 702Z" />
<glyph unicode="}" glyph-name="braceright" horiz-adv-x="548" d="M350 62Q337 -59 314 -110Q275 -197 181 -202Q123 -205 77 -188L120 -67Q146 -93 189 -92Q206 -92 212 -84T221 -50Q221 -50 225 -10Q228 12 230 69T236 150Q242 208 275 264Q303 310 339 340L340
347Q273 422 282 499Q283 513 295 594Q304 651 304 689Q304 722 295 732T260 742Q247 742 193 724L184 839Q246 854 273 854Q414 854 415 684Q415 661 413 636Q411 617 404 572T393 502Q389 463 406 430Q413 417 445 374L440 317Q367 258 359 181Q357 157 354 117T350
62Z" />
<glyph unicode="~" glyph-name="asciitilde" horiz-adv-x="404" d="M211 413Q187 430 177 430Q164 430 150 417Q141 409 104 369L85 464Q135 509 187 509Q221 509 252 491T288 472Q299 471 322 493Q333 505 345 516L361 427Q311 388 271 388Q245 388 211 413Z" />
<glyph unicode="&#xa0;" glyph-name="nbspace" horiz-adv-x="279" />
<glyph unicode="&#xa1;" glyph-name="exclamdown" horiz-adv-x="240" d="M197 513L131 -105H4L70 513H197ZM232 665Q229 632 204 609T144 585Q112 585 92 608T74 665Q78 698 103 720T162 743Q195 743 215 721T232 665Z" />
<glyph unicode="&#xa2;" glyph-name="cent" horiz-adv-x="490" d="M38 248Q50 364 111 435Q162 497 241 517L250 604H371L361 518Q413 506 469 458L411 380Q363 422 349 430Q324 446 295 446Q233 446 190 358Q155 285 156 214Q156 149 184 109T253 69Q284 69 316
88Q340 101 388 143L440 71Q373 9 306 -10L297 -91H176L185 -11Q100 8 63 84Q35 138 36 213Q36 232 38 248Z" />
<glyph unicode="&#xa3;" glyph-name="sterling" horiz-adv-x="487" d="M268 27Q220 27 38 -18L33 84Q51 88 71 93Q95 99 105 110Q133 136 138 183Q145 248 141 300H73L83 395H138Q134 450 137 478Q145 560 194 613Q246 671 329 672Q391 672 459 630L406 547Q339
582 325 582Q293 582 268 549T239 474Q238 459 243 395H372L361 300H253Q253 256 247 201Q242 154 206 117Q245 122 293 122Q355 122 432 100L398 -12Q385 -8 327 13Q291 27 268 27Z" />
<glyph unicode="&#xa4;" glyph-name="currency" horiz-adv-x="500" d="M253 357L248 311H414L406 231H240L227 112L407 113L394 0H95L120 231H27L35 311H128L133 358H40L49 447H142L165 655H467L456 548H273L262 447H428L419 357H253Z" />
<glyph unicode="&#xa5;" glyph-name="yen" horiz-adv-x="543" d="M194 294L56 656H183L271 426L409 656H536L322 294H399L391 209H310L305 159H386L377 74H296L288 2H166L174 74H90L99 159H183L188 209H104L113 294H194Z" />
<glyph unicode="&#xa6;" glyph-name="brokenbar" horiz-adv-x="186" d="M55 285H134V-18H55V285ZM55 672H134V369H55V672Z" />
<glyph unicode="&#xa7;" glyph-name="section" horiz-adv-x="401" d="M29 -24L87 57Q128 3 175 3Q192 3 205 16T220 39Q222 56 208 63Q205 65 179 73Q161 77 128 89Q63 115 71 187Q77 238 110 273Q83 301 88 348Q94 411 139 447Q178 478 227 477Q277 476 341 432L298
349Q242 390 216 390Q194 390 188 384T178 354Q177 343 244 328Q339 296 331 212Q325 159 295 126Q319 98 313 51Q307 -18 260 -55Q218 -89 161 -89Q86 -90 29 -24ZM162 194Q161 187 195 176L215 170Q235 183 238 200Q239 216 224 224Q219 227 190 236Q166 232
162 194Z" />
<glyph unicode="&#xa8;" glyph-name="dieresis" horiz-adv-x="313" d="M189 643Q192 671 211 691Q234 717 269 717Q303 717 321 691Q336 669 333 643Q330 615 310 594Q286 569 253 569Q219 569 202 594Q186 614 189 643ZM-26 643Q-23 670 -3 691Q20 717 54 717T105
691Q120 669 118 643Q115 615 95 594Q72 569 38 569T-13 594Q-29 614 -26 643Z" />
<glyph unicode="&#xa9;" glyph-name="copyright" horiz-adv-x="815" d="M406 104Q317 104 266 173Q222 233 222 326Q222 413 267 473Q318 542 408 543Q469 543 531 507L507 455Q447 492 411 492Q345 492 309 429Q281 380 282 317Q282 247 317 202T406 157Q460
157 510 185L536 142Q464 104 406 104ZM135 324Q135 211 215 131T408 51Q521 51 600 131T680 324Q680 437 600 516T408 596Q295 596 215 517T135 324ZM69 324Q69 464 168 563T408 663Q548 663 647 564T746 324Q746 184 647 85T408 -15Q268 -15 169 84T69 324Z"
/>
<glyph unicode="&#xab;" glyph-name="guillemotleft" horiz-adv-x="399" d="M429 129L319 125L160 296L319 462L429 458L295 293L429 129ZM267 129L158 125L-1 296L158 462L267 458L134 293L267 129Z" />
<glyph unicode="&#xac;" glyph-name="logicalnot" horiz-adv-x="627" d="M454 230H90V351H571V29H454V230Z" />
<glyph unicode="&#xad;" glyph-name="minus" horiz-adv-x="509" d="M53 356H457V292H53V356Z" />
<glyph unicode="&#xae;" glyph-name="registered" horiz-adv-x="815" d="M136 324H135Q135 211 215 131T408 51Q521 51 600 131T680 324Q680 437 600 516T408 596Q295 596 216 517T136 324ZM69 324Q69 464 168 563T408 663Q548 663 647 564T746 324Q746 184 647
85T408 -15Q268 -15 169 84T69 324ZM503 111Q468 146 425 207Q397 247 360 307L331 306V117H272V537Q371 539 404 539Q519 538 518 423Q517 330 418 311Q453 263 488 216Q513 184 575 124L503 111ZM388 499L331 498V350H374Q426 350 447 371Q464 389 465 430Q465
500 388 499Z" />
<glyph unicode="&#xaf;" glyph-name="overscore" horiz-adv-x="415" d="M111 675H350L344 608H104L111 675Z" />
<glyph unicode="&#xb0;" glyph-name="degree" horiz-adv-x="279" d="M285 596Q279 537 233 495T126 453Q65 453 27 495T-5 596Q1 655 47 697T157 739Q218 739 254 697T285 596ZM70 596Q67 565 84 545T134 524Q164 524 185 544T210 596Q213 627 196 647T148 668Q117
668 95 648T70 596Z" />
<glyph unicode="&#xb1;" glyph-name="plusminus" horiz-adv-x="513" d="M302 91H207V266H53V364H207V529H302V364H457V266H302V91ZM67 50H452V-39H67V50Z" />
<glyph unicode="&#xb4;" glyph-name="acute" horiz-adv-x="336" d="M47 641L276 732L301 652L74 567L47 641Z" />
<glyph unicode="&#xb5;" glyph-name="mu" horiz-adv-x="520" d="M343 30L333 19Q280 -33 231 -33Q191 -33 159 -10L138 -201H33L106 498H212L175 147Q167 72 258 73Q287 73 315 101T346 153L383 499H496L456 120Q448 50 474 32Q492 19 513 -7L420 -74Q357 -35 343 30Z" />
<glyph unicode="&#xb6;" glyph-name="paragraph" horiz-adv-x="519" d="M346 0V657H447V0H346ZM216 0V325Q50 325 51 495Q51 583 93 622Q132 658 214 657H317V0H216Z" />
<glyph unicode="&#xb7;" glyph-name="middot" horiz-adv-x="241" d="M42 423Q46 464 75 494T141 524Q179 524 201 495T219 423Q215 382 187 352T121 322Q83 322 61 352T42 423Z" />
<glyph unicode="&#xb8;" glyph-name="cedilla" horiz-adv-x="209" d="M5 -180L50 -151Q77 -187 106 -186Q114 -186 124 -171T135 -145Q137 -132 131 -121T118 -109Q88 -109 79 -125L23 -108L41 4L123 5L116 -37H119Q162 -37 184 -69Q203 -97 201 -133Q197 -173
174 -205Q145 -245 99 -245Q27 -245 5 -180Z" />
<glyph unicode="&#xbb;" glyph-name="guillemotright" horiz-adv-x="402" d="M144 129L280 293L144 458L256 462L414 296L256 125L144 129ZM-17 129L118 293L-16 458L94 462L252 296L94 125L-17 129Z" />
<glyph unicode="&#xbf;" glyph-name="questiondown" horiz-adv-x="470" d="M175 341Q194 399 196 501H305Q306 482 306 462Q306 265 202 177Q154 136 153 136Q125 108 122 82Q118 45 137 25T187 4Q261 4 306 112L398 60Q355 -26 306 -65Q253 -106 180 -105Q94
-105 47 -44Q5 11 12 83Q23 187 108 247Q153 280 175 341ZM337 623Q333 591 310 569T257 547Q227 547 208 569T193 623Q196 654 219 675T272 697Q303 697 321 676T337 623Z" />
<glyph unicode="&#xc0;" glyph-name="Agrave" horiz-adv-x="593" d="M359 172H174L99 -12L-14 2L267 670H372L518 7L397 -12L359 172ZM212 267H342L301 495L212 267ZM403 702L199 795L254 861L459 763L403 702Z" />
<glyph unicode="&#xc1;" glyph-name="Aacute" horiz-adv-x="581" d="M359 172H174L99 -12L-14 2L267 670H372L518 7L397 -12L359 172ZM212 267H342L302 495L212 267ZM185 764L416 855L470 775L243 690L185 764Z" />
<glyph unicode="&#xc2;" glyph-name="Acircumflex" horiz-adv-x="581" d="M358 172H173L98 -12L-16 2L266 670H371L517 7L396 -12L358 172ZM211 267H341L300 495L211 267ZM175 677L185 777L337 886L471 777L461 678L326 767L175 677Z" />
<glyph unicode="&#xc3;" glyph-name="Atilde" horiz-adv-x="593" d="M360 172H175L100 -12L-14 2L268 670H373L519 7L398 -12L360 172ZM213 267H343L302 495L213 267ZM319 736Q284 760 276 760Q250 760 204 712L173 792Q218 843 286 845Q318 846 354 819T400 791Q414
791 457 822L486 744Q468 728 439 717T394 706Q363 705 319 736Z" />
<glyph unicode="&#xc4;" glyph-name="Adieresis" horiz-adv-x="593" d="M360 172H175L100 -12L-14 2L268 670H373L519 7L398 -12L360 172ZM212 267H342L302 495L212 267ZM372 776Q374 804 393 824Q416 850 451 850Q485 850 502 824Q517 802 515 776Q512 748 492
727Q469 702 435 702Q400 702 383 727Q369 747 372 776ZM157 776Q159 804 178 824Q201 850 236 850Q270 850 288 824Q302 802 300 776Q297 748 276 727Q253 702 220 702Q185 702 168 727Q154 747 157 776Z" />
<glyph unicode="&#xc5;" glyph-name="Aring" horiz-adv-x="593" d="M358 172H173L98 -12L-15 2L266 670H371L517 7L396 -12L358 172ZM211 267H341L300 495L211 267ZM329 702Q287 702 264 727T245 792Q249 830 277 855T347 880Q388 880 411 855T431 792Q427 753
399 728T329 702ZM342 836Q308 836 304 792Q299 747 333 746Q367 746 372 792Q376 836 342 836Z" />
<glyph unicode="&#xc6;" glyph-name="AE" horiz-adv-x="882" d="M227 278H354L313 505L227 278ZM586 400H831L821 299H575L555 101H815L804 -1H410L374 172H183L108 -12L-11 2L279 670H385L452 317L487 656H877L866 558H603L586 400Z" />
<glyph unicode="&#xc7;" glyph-name="Ccedilla" horiz-adv-x="583" d="M309 -224Q242 -224 225 -175L266 -140Q292 -173 315 -173Q351 -173 355 -138Q359 -98 326 -98Q312 -98 288 -114L243 -92L257 -6Q152 7 96 94Q47 171 47 285Q47 438 130 550Q221 675 370
676Q463 677 567 611L503 500Q470 524 438 546Q397 573 365 572Q281 572 225 485Q179 414 170 326Q168 308 168 290Q168 205 207 151T306 97Q360 97 471 156L517 59Q443 21 410 10Q366 -6 315 -8L308 -48Q318 -44 334 -44Q377 -44 400 -74Q420 -100 417 -135Q413
-171 386 -197Q356 -224 309 -224Z" />
<glyph unicode="&#xc8;" glyph-name="Egrave" horiz-adv-x="500" d="M186 400H418L407 299L176 300L156 112L401 113L390 0H25L93 655H461L450 548H202L186 400ZM371 702L167 795L221 861L427 763L371 702Z" />
<glyph unicode="&#xc9;" glyph-name="Eacute" horiz-adv-x="480" d="M186 400H418L407 299L175 300L156 112L401 113L390 0H25L93 655H461L450 548H202L186 400ZM155 774L383 865L438 785L210 700L155 774Z" />
<glyph unicode="&#xca;" glyph-name="Ecircumflex" horiz-adv-x="500" d="M184 400H416L406 299L174 300L154 112L400 113L388 0H23L91 655H459L447 548H200L184 400ZM155 697L164 787L316 896L451 787L441 698L304 777L155 697Z" />
<glyph unicode="&#xcb;" glyph-name="Edieresis" horiz-adv-x="500" d="M186 400H418L408 299L176 300L157 112L402 113L390 0H25L94 655H462L451 548H203L186 400ZM339 776Q342 803 361 824Q384 850 419 850Q453 850 470 824Q485 802 482 776Q479 748 460 727Q437
702 402 702Q368 702 351 727Q336 747 339 776ZM125 776Q128 804 146 824Q169 850 205 850Q238 850 255 824Q270 802 267 776Q264 748 245 727Q222 702 188 702Q153 702 136 727Q122 747 125 776Z" />
<glyph unicode="&#xcc;" glyph-name="Igrave" horiz-adv-x="220" d="M73 657H205L136 0H4L73 657ZM231 702L27 795L82 861L287 763L231 702Z" />
<glyph unicode="&#xcd;" glyph-name="Iacute" horiz-adv-x="220" d="M74 657H206L136 0H4L74 657ZM14 764L244 855L299 775L71 690L14 764Z" />
<glyph unicode="&#xce;" glyph-name="Icircumflex" horiz-adv-x="220" d="M65 657H197L128 0H-4L65 657ZM-5 697L4 787L157 896L291 787L282 698L144 777L-5 697Z" />
<glyph unicode="&#xcf;" glyph-name="Idieresis" horiz-adv-x="220" d="M74 657H206L137 0H5L74 657ZM188 766Q190 793 210 814Q233 840 267 840T318 814Q333 792 332 766Q329 738 308 717Q285 692 252 692Q217 692 200 717Q185 737 188 766ZM-26 766Q-24 794
-4 814Q19 840 53 840Q86 840 104 814Q118 792 117 766Q114 738 94 717Q71 692 38 692Q2 692 -14 717Q-29 737 -26 766Z" />
<glyph unicode="&#xd0;" glyph-name="Eth" horiz-adv-x="578" d="M251 361L240 257H175L160 110H225Q306 110 359 174Q406 232 416 321Q420 356 420 384Q420 562 268 562Q260 562 240 562Q220 561 208 561L186 361H251ZM63 361L95 658Q178 662 253 663Q403 663
476 600T549 395Q549 364 546 331Q531 174 441 88Q348 -2 189 -2Q163 -2 116 0T26 2L52 257H-2L9 361H63Z" />
<glyph unicode="&#xd1;" glyph-name="Ntilde" horiz-adv-x="583" d="M186 404L143 1L28 -1L97 659H196L408 265L449 655H563L497 15L406 -15Q342 130 186 404ZM339 706Q305 730 297 729Q270 729 224 681L193 761Q239 812 306 814Q337 815 374 788T421 760Q434
760 476 792L506 714Q489 698 457 685Q429 675 414 675Q384 675 339 706Z" />
<glyph unicode="&#xd2;" glyph-name="Ograve" horiz-adv-x="659" d="M28 330Q43 473 137 567T365 662Q484 662 555 582T626 376Q626 353 623 330Q607 167 508 73Q416 -16 286 -16Q169 -16 98 60T26 273Q26 301 28 330ZM143 288Q143 202 186 144T296 86Q388 86
451 177Q507 259 507 354Q507 442 464 501T351 561Q260 561 198 467Q143 384 143 288ZM447 702L243 795L298 861L503 763L447 702Z" />
<glyph unicode="&#xd3;" glyph-name="Oacute" horiz-adv-x="659" d="M29 330Q44 473 138 567T365 662Q485 662 555 582T626 376Q626 353 624 330Q607 167 509 73Q417 -16 286 -16Q169 -16 99 58Q25 136 26 273Q26 301 29 330ZM143 288Q143 202 186 144T297 86Q388
86 451 177Q508 259 508 354Q508 442 465 501T352 561Q260 561 199 467Q143 384 143 288ZM229 764L460 855L515 775L287 690L229 764Z" />
<glyph unicode="&#xd4;" glyph-name="Ocircumflex" horiz-adv-x="659" d="M27 330Q42 473 136 567T362 662Q482 662 553 582T625 376Q625 353 622 330Q606 167 507 73Q415 -16 285 -16Q168 -16 97 58Q23 136 24 273Q24 301 27 330ZM142 288Q142 202 185 144T295
86Q387 86 450 177Q506 259 506 354Q506 442 463 501T350 561Q258 561 197 467Q142 384 142 288ZM225 677L236 777L388 886L522 777L512 678L376 767L225 677Z" />
<glyph unicode="&#xd5;" glyph-name="Otilde" horiz-adv-x="663" d="M30 330Q45 473 139 567T366 662Q486 662 557 582T628 376Q628 353 625 330Q609 167 510 73Q418 -16 288 -16Q171 -16 100 58Q26 136 27 273Q27 301 30 330ZM145 288Q145 202 188 144T298 86Q390
86 453 177Q509 259 509 354Q509 442 466 501T353 561Q261 561 200 467Q145 384 145 288ZM340 716Q306 740 297 739Q271 739 224 691L194 771Q239 822 306 824Q338 825 374 798T422 770Q435 770 477 802L507 724Q489 708 460 697T415 685Q385 685 340 716Z" />
<glyph unicode="&#xd6;" glyph-name="Odieresis" horiz-adv-x="663" d="M30 330Q44 473 138 567T366 662Q485 662 556 582T627 376Q627 353 625 330Q608 167 509 73Q417 -16 287 -16Q170 -16 99 60T27 273Q27 301 30 330ZM144 288Q144 202 187 144T298 86Q389
86 452 177Q508 259 508 354Q508 442 465 501T352 561Q261 561 199 467Q144 384 144 288ZM415 766Q418 794 437 814Q460 840 495 840Q528 840 546 814Q561 792 558 766Q556 738 536 717Q512 692 479 692Q443 692 427 717Q412 737 415 766ZM200 766Q203 794 222
814Q245 840 280 840Q314 840 331 814Q346 792 343 766Q340 738 321 717Q298 692 264 692Q229 692 212 717Q197 737 200 766Z" />
<glyph unicode="&#xd8;" glyph-name="Oslash" horiz-adv-x="659" d="M35 330Q49 473 144 567T371 662Q393 662 412 658L430 703L538 669L517 618Q632 542 632 376Q632 353 630 330Q613 167 514 73Q422 -16 292 -16Q281 -16 260 -14L236 -76L128 -41L153 19Q32
93 32 273Q32 301 35 330ZM302 86H303Q394 86 457 177Q513 259 513 354Q513 443 470 502L302 86ZM150 288Q150 196 200 135L372 560Q367 561 357 561Q265 561 204 468Q150 385 150 288Z" />
<glyph unicode="&#xd9;" glyph-name="Ugrave" horiz-adv-x="584" d="M244 -17Q159 -17 106 33Q48 89 48 196Q48 218 50 241L94 655H216L172 241Q170 222 170 203Q170 83 256 83Q301 83 335 118Q376 160 384 241L428 655H550L506 241Q493 112 410 42Q339 -17 244
-17ZM404 702L200 795L255 861L460 763L404 702Z" />
<glyph unicode="&#xda;" glyph-name="Uacute" horiz-adv-x="584" d="M244 -17Q159 -17 108 33Q49 89 48 196Q48 218 51 241L94 655H216L173 241Q171 222 171 203Q171 83 257 83Q302 83 336 118Q376 160 385 241L428 655H550L507 241Q493 112 411 42Q340 -17 244
-17ZM186 764L417 855L472 775L244 690L186 764Z" />
<glyph unicode="&#xdb;" glyph-name="Ucircumflex" horiz-adv-x="584" d="M243 -17Q158 -17 105 33Q47 89 47 196Q47 218 49 241L93 655H215L171 241Q169 222 169 203Q169 83 255 83Q300 83 334 118Q375 160 383 241L427 655H549L505 241Q492 112 409 42Q338 -17
243 -17ZM175 687L184 777L337 886L471 777L462 688L325 767L175 687Z" />
<glyph unicode="&#xdc;" glyph-name="Udieresis" horiz-adv-x="533" d="M245 -17Q160 -17 108 33Q50 89 49 196Q49 218 52 241L95 655H217L174 241Q171 222 171 203Q171 83 257 83Q302 83 337 118Q377 160 386 241L429 655H551L508 241Q494 112 411 42Q340 -17
245 -17ZM360 766Q363 793 383 814Q406 840 440 840T492 814Q507 792 504 766Q502 738 481 717Q458 692 425 692Q390 692 373 717Q358 737 360 766ZM146 766Q149 794 169 814Q192 840 226 840Q259 840 278 814Q292 792 289 766Q287 738 266 717Q243 692 211 692Q175
692 159 717Q143 737 146 766Z" />
<glyph unicode="&#xdd;" glyph-name="Yacute" horiz-adv-x="515" d="M282 0H160L188 278L51 636L167 670L263 384L417 670L522 636L310 278L282 0ZM173 713L401 804L457 724L228 639L173 713Z" />
<glyph unicode="&#xde;" glyph-name="Thorn" horiz-adv-x="556" d="M166 184L135 -111H18L104 717H221L213 634Q286 693 325 693Q420 693 473 618Q519 552 519 454Q519 436 518 417Q504 273 430 200Q367 137 268 136Q241 136 216 152T166 184ZM201 522L176 287Q189
264 217 248T273 231Q336 231 372 307Q400 365 399 439Q399 504 376 544Q349 590 296 590Q242 590 201 522Z" />
<glyph unicode="&#xdf;" glyph-name="germandbls" horiz-adv-x="562" d="M152 62L211 143Q237 101 265 90Q278 85 313 85Q341 85 360 109Q375 127 379 153Q382 186 349 205Q338 211 291 227Q192 261 191 366Q191 377 193 388Q197 429 238 475Q286 529 343 529Q366
529 388 520Q392 527 393 548Q394 562 394 577Q397 601 367 615T296 630Q255 630 221 596T182 512L128 -1H15L70 512Q80 607 139 667Q205 733 311 732Q395 732 440 688T486 567Q486 554 485 540Q478 471 436 411Q379 434 353 433Q307 433 302 383Q300 365 322 353Q328
350 375 335Q453 309 480 255Q499 217 495 159Q487 86 428 36T298 -15Q240 -15 217 -4Q191 9 152 62Z" />
<glyph unicode="&#xe0;" glyph-name="agrave" horiz-adv-x="502" d="M413 641L202 732L130 652L340 567L413 641ZM303 228Q272 228 227 220Q178 212 161 201Q134 186 129 140Q126 111 142 90T183 68Q244 68 291 117L303 228ZM296 55Q249 17 231 6Q194 -17 161
-16Q105 -16 67 19T29 118Q29 128 30 139Q39 224 92 260Q126 282 221 300Q269 309 309 313L315 367Q317 390 301 409T260 429Q167 429 101 359L63 422Q96 468 163 498Q221 525 270 524Q343 524 387 477T425 357L397 100Q397 94 404 86T419 78Q452 78 463 88L467
23Q400 -11 364 -11Q348 -11 326 7Q300 28 296 55Z" />
<glyph unicode="&#xe1;" glyph-name="aacute" horiz-adv-x="502" d="M159 641L388 732L443 652L215 567L159 641ZM303 228Q272 228 227 220Q178 212 161 201Q134 186 129 140Q126 111 142 90T183 68Q244 68 291 117L303 228ZM296 55Q249 17 231 6Q194 -17 161
-16Q105 -16 67 19T29 118Q29 128 30 139Q39 224 92 260Q126 282 221 300Q269 309 309 313L315 367Q317 390 301 409T260 429Q167 429 101 359L63 422Q96 468 163 498Q221 525 270 524Q343 524 387 477T425 357L397 100Q397 94 404 86T419 78Q452 78 463 88L467
23Q400 -11 364 -11Q348 -11 326 7Q300 28 296 55Z" />
<glyph unicode="&#xe2;" glyph-name="acircumflex" horiz-adv-x="502" d="M136 534L145 624L298 732L432 624L423 535L286 613L136 534ZM303 228Q272 228 227 220Q178 212 161 201Q134 186 129 140Q126 111 142 90T183 68Q244 68 291 117L303 228ZM296 55Q249
17 231 6Q194 -17 161 -16Q105 -16 67 19T29 118Q29 128 30 139Q39 224 92 260Q126 282 221 300Q269 309 309 313L315 367Q317 390 301 409T260 429Q167 429 101 359L63 422Q96 468 163 498Q221 525 270 524Q343 524 387 477T425 357L397 100Q397 94 404 86T419
78Q452 78 463 88L467 23Q400 -11 364 -11Q348 -11 326 7Q300 28 296 55Z" />
<glyph unicode="&#xe3;" glyph-name="atilde" horiz-adv-x="502" d="M259 593Q226 617 216 616Q190 616 143 568L111 648Q157 699 224 701Q255 702 292 675T340 647Q353 647 395 679L426 601Q408 585 376 572Q348 562 334 562Q302 562 259 593ZM303 228Q272 228
227 220Q178 212 161 201Q134 186 129 140Q126 111 142 90T183 68Q244 68 291 117L303 228ZM296 55Q249 17 231 6Q194 -17 161 -16Q105 -16 67 19T29 118Q29 128 30 139Q39 224 92 260Q126 282 221 300Q269 309 309 313L315 367Q317 390 301 409T260 429Q167 429
101 359L63 422Q96 468 163 498Q221 525 270 524Q343 524 387 477T425 357L397 100Q397 94 404 86T419 78Q452 78 463 88L467 23Q400 -11 364 -11Q348 -11 326 7Q300 28 296 55Z" />
<glyph unicode="&#xe4;" glyph-name="adieresis" horiz-adv-x="502" d="M321 612Q324 640 343 660Q366 686 400 686Q433 686 452 660Q467 638 464 612Q462 584 441 563Q418 538 385 539Q349 539 333 563Q319 583 321 612ZM105 612Q108 640 128 660Q151 686 185
686T237 660Q252 638 249 612Q247 584 226 563Q203 538 170 539Q135 539 118 563Q103 583 105 612ZM303 228Q272 228 227 220Q178 212 161 201Q134 186 129 140Q126 111 142 90T183 68Q244 68 291 117L303 228ZM296 55Q249 17 231 6Q194 -17 161 -16Q105 -16 67
19T29 118Q29 128 30 139Q39 224 92 260Q126 282 221 300Q269 309 309 313L315 367Q317 390 301 409T260 429Q167 429 101 359L63 422Q96 468 163 498Q221 525 270 524Q343 524 387 477T425 357L397 100Q397 94 404 86T419 78Q452 78 463 88L467 23Q400 -11 364
-11Q348 -11 326 7Q300 28 296 55Z" />
<glyph unicode="&#xe5;" glyph-name="aring" horiz-adv-x="502" d="M267 580Q226 580 204 605T185 669Q189 707 217 732T287 757Q328 757 351 732T371 669Q367 630 338 605T267 580ZM282 713Q249 713 245 669Q240 624 272 624Q306 624 311 669Q316 713 282 713ZM303
228Q272 228 227 220Q178 212 161 201Q134 186 129 140Q126 111 142 90T183 68Q244 68 291 117L303 228ZM296 55Q249 17 231 6Q194 -17 161 -16Q105 -16 67 19T29 118Q29 128 30 139Q39 224 92 260Q126 282 221 300Q269 309 309 313L315 367Q317 390 301 409T260
429Q167 429 101 359L63 422Q96 468 163 498Q221 525 270 524Q343 524 387 477T425 357L397 100Q397 94 404 86T419 78Q452 78 463 88L467 23Q400 -11 364 -11Q348 -11 326 7Q300 28 296 55Z" />
<glyph unicode="&#xe6;" glyph-name="ae" horiz-adv-x="793" d="M573 439Q518 439 489 412Q467 392 445 333H638V334Q640 347 640 359Q640 439 573 439ZM260 -1Q218 -16 166 -16Q108 -16 70 18Q29 55 29 119Q29 129 30 139Q39 224 95 263Q131 288 227 310Q268
319 318 327L324 367Q326 389 309 404T266 419Q219 419 126 349L72 432Q118 470 183 499Q244 525 278 524Q370 524 414 457Q486 519 588 519Q661 519 706 472T751 342Q751 327 750 311L742 245H435Q433 226 433 207Q433 70 545 70Q600 70 669 150L717 77Q636 -12
529 -12Q412 -12 357 59Q299 12 260 -1ZM252 210Q196 200 180 194Q143 178 138 137Q132 82 187 82Q221 82 254 95Q297 113 300 143L307 219Q301 218 252 210Z" />
<glyph unicode="&#xe7;" glyph-name="ccedilla" horiz-adv-x="494" d="M372 -135Q368 -171 339 -197T263 -224Q197 -224 180 -175L221 -140Q247 -173 269 -173Q306 -173 309 -138Q314 -98 280 -98Q265 -98 243 -114L197 -92L210 -8H214Q122 8 79 88Q49 144 49
220Q49 235 50 248Q64 385 152 460Q226 525 321 523Q380 523 470 458L428 387Q368 441 303 441Q238 441 200 355Q168 285 168 211Q168 146 196 108T271 69Q330 69 411 134L451 74Q371 -8 272 -12H268L262 -48Q271 -44 288 -44Q331 -44 354 -74Q375 -99 372 -135ZM268
-12L262 -48Q271 -44 288 -44Q331 -44 354 -74Q374 -100 372 -135Q368 -171 339 -197T263 -224Q197 -224 180 -175L221 -140Q247 -173 269 -173Q306 -173 309 -138Q314 -98 280 -98Q265 -98 243 -114L197 -92L211 -8L268 -12Z" />
<glyph unicode="&#xe8;" glyph-name="egrave" horiz-adv-x="508" d="M443 641L232 732L181 652L391 567L443 641ZM262 70Q329 69 402 134L441 72Q383 21 344 5T247 -12Q127 -12 75 76Q38 136 38 223Q38 239 40 253Q52 369 121 443Q195 522 306 522Q377 522 423
478Q473 430 473 349Q473 335 472 321L464 244H161Q159 219 159 200Q159 71 262 70ZM361 331Q363 346 364 359Q364 442 291 442Q257 442 226 416Q192 385 177 331H361Z" />
<glyph unicode="&#xe9;" glyph-name="eacute" horiz-adv-x="508" d="M159 641L388 732L413 652L184 567L159 641ZM262 70Q329 69 402 134L441 72Q383 21 344 5T247 -12Q127 -12 75 76Q38 136 38 223Q38 239 40 253Q52 369 121 443Q195 522 306 522Q377 522 423
478Q473 430 473 349Q473 335 472 321L464 244H161Q159 219 159 200Q159 71 262 70ZM361 331Q363 346 364 359Q364 442 291 442Q257 442 226 416Q192 385 177 331H361Z" />
<glyph unicode="&#xea;" glyph-name="ecircumflex" horiz-adv-x="508" d="M159 574L168 665L321 773L455 665L445 575L308 654L159 574ZM262 70Q329 69 402 134L441 72Q383 21 344 5T247 -12Q127 -12 75 76Q38 136 38 223Q38 239 40 253Q52 369 121 443Q195 522
306 522Q377 522 423 478Q473 430 473 349Q473 335 472 321L464 244H161Q159 219 159 200Q159 71 262 70ZM361 331Q363 346 364 359Q364 442 291 442Q257 442 226 416Q192 385 177 331H361Z" />
<glyph unicode="&#xeb;" glyph-name="edieresis" horiz-adv-x="508" d="M291 643Q294 671 313 691Q336 717 371 717Q405 717 423 691Q438 669 435 643Q432 615 412 594Q388 569 355 569Q321 569 304 594Q288 614 291 643ZM76 643Q79 670 99 691Q122 717 156 717T207
691Q222 669 220 643Q217 615 197 594Q174 569 140 569T89 594Q73 614 76 643ZM262 70Q329 69 402 134L441 72Q383 21 344 5T247 -12Q127 -12 75 76Q38 136 38 223Q38 239 40 253Q52 369 121 443Q195 522 306 522Q377 522 423 478Q473 430 473 349Q473 335 472
321L464 244H161Q159 219 159 200Q159 71 262 70ZM361 331Q363 346 364 359Q364 442 291 442Q257 442 226 416Q192 385 177 331H361Z" />
<glyph unicode="&#xec;" glyph-name="igrave" horiz-adv-x="254" d="M91 507H201L147 0H38L91 507ZM526 641L315 732L243 652L454 567L526 641Z" />
<glyph unicode="&#xed;" glyph-name="iacute" horiz-adv-x="239" d="M18 641L248 732L282 652L54 567L18 641ZM79 507H188L135 0H26L79 507Z" />
<glyph unicode="&#xee;" glyph-name="icircumflex" horiz-adv-x="215" d="M91 507H201L147 0H38L91 507ZM221 534L230 624L382 732L517 624L507 535L370 613L221 534Z" />
<glyph unicode="&#xef;" glyph-name="idieresis" horiz-adv-x="211" d="M80 507H189L136 0H27L80 507ZM159 643Q162 671 180 691Q203 717 239 717Q273 717 290 691Q305 669 302 643Q299 615 280 594Q256 569 222 569Q188 569 171 594Q156 614 159 643ZM-56 643Q-53
670 -34 691Q-11 717 24 717Q58 717 75 691Q90 669 87 643Q84 615 65 594Q42 569 7 569Q-27 569 -44 594Q-59 614 -56 643Z" />
<glyph unicode="&#xf0;" glyph-name="eth" horiz-adv-x="592" d="M297 459Q225 459 182 377Q145 309 145 231Q145 163 176 113Q209 58 257 57Q323 57 364 119Q400 172 409 254Q420 354 420 353Q354 459 297 459ZM326 634Q315 654 275 699L358 754Q411 695 446
634H584L577 559H500Q532 467 531 335Q531 306 529 286Q493 -17 228 -17Q130 -17 74 58Q24 125 24 222Q24 355 98 442Q176 533 307 534Q334 534 414 475Q416 498 396 527Q384 542 372 559H228L236 634H326Z" />
<glyph unicode="&#xf1;" glyph-name="ntilde" horiz-adv-x="497" d="M280 593Q247 617 237 616Q211 616 164 568L132 648Q177 699 245 701Q277 702 313 675T360 647Q373 647 416 679L446 601Q428 585 399 574T354 562Q323 562 280 593ZM357 328Q358 341 358 352Q358
431 309 431Q272 431 227 388T179 310L146 0H37L90 508H200L190 417Q263 523 328 523Q387 523 428 479T469 364Q469 353 468 340L432 0H323L357 328Z" />
<glyph unicode="&#xf2;" glyph-name="ograve" horiz-adv-x="556" d="M419 569L214 662L269 728L474 630L419 569ZM40 258Q54 389 144 463Q219 524 310 524Q393 524 453 472Q522 410 521 298Q521 279 519 258Q510 168 456 93Q381 -11 254 -11Q131 -11 77 71Q38
130 38 220Q38 240 40 258ZM157 220Q157 155 181 115Q208 69 258 69Q328 69 369 148Q403 214 402 292Q402 357 380 397Q353 443 306 443Q233 443 191 365Q157 299 157 220Z" />
<glyph unicode="&#xf3;" glyph-name="oacute" horiz-adv-x="556" d="M202 641L431 732L486 652L258 567L202 641ZM40 258Q54 389 144 463Q219 524 310 524Q393 524 453 472Q522 410 521 298Q521 279 519 258Q510 168 456 93Q381 -11 254 -11Q131 -11 77 71Q38
130 38 220Q38 240 40 258ZM157 220Q157 155 181 115Q208 69 258 69Q328 69 369 148Q403 214 402 292Q402 357 380 397Q353 443 306 443Q233 443 191 365Q157 299 157 220Z" />
<glyph unicode="&#xf4;" glyph-name="ocircumflex" horiz-adv-x="556" d="M167 534L176 624L329 732L463 624L454 535L316 613L167 534ZM40 258Q54 389 144 463Q219 524 310 524Q393 524 453 472Q522 410 521 298Q521 279 519 258Q510 168 456 93Q381 -11 254
-11Q131 -11 77 71Q38 130 38 220Q38 240 40 258ZM157 220Q157 155 181 115Q208 69 258 69Q328 69 369 148Q403 214 402 292Q402 357 380 397Q353 443 306 443Q233 443 191 365Q157 299 157 220Z" />
<glyph unicode="&#xf5;" glyph-name="otilde" horiz-adv-x="556" d="M311 593Q277 617 269 616Q242 616 197 568L165 648Q211 699 279 701Q310 702 346 675T393 647Q406 647 449 679L478 601Q461 585 429 572Q401 562 386 562Q356 562 311 593ZM40 258Q54 389
144 463Q219 524 310 524Q393 524 453 472Q522 410 521 298Q521 279 519 258Q510 168 456 93Q381 -11 254 -11Q131 -11 77 71Q38 130 38 220Q38 240 40 258ZM157 220Q157 155 181 115Q208 69 258 69Q328 69 369 148Q403 214 402 292Q402 357 380 397Q353 443 306
443Q233 443 191 365Q157 299 157 220Z" />
<glyph unicode="&#xf6;" glyph-name="odieresis" horiz-adv-x="556" d="M322 643Q325 671 344 691Q367 717 402 717Q436 717 454 691Q469 669 466 643Q463 615 443 594Q419 569 386 569Q352 569 335 594Q319 614 322 643ZM107 643Q110 670 130 691Q153 717 187
717T238 691Q253 669 251 643Q248 615 228 594Q205 569 171 569T120 594Q104 614 107 643ZM40 258Q54 389 144 463Q219 524 310 524Q393 524 453 472Q522 410 521 298Q521 279 519 258Q510 168 456 93Q381 -11 254 -11Q131 -11 77 71Q38 130 38 220Q38 240 40 258ZM157
220Q157 155 181 115Q208 69 258 69Q328 69 369 148Q403 214 402 292Q402 357 380 397Q353 443 306 443Q233 443 191 365Q157 299 157 220Z" />
<glyph unicode="&#xf7;" glyph-name="divide" horiz-adv-x="507" d="M195 492Q195 526 216 549T268 572Q300 572 321 549T343 492T322 436T268 412Q237 412 216 435T195 492ZM53 369H467V266H53V369ZM195 145Q195 178 216 201T268 225Q300 225 321 202T343 145Q343
111 322 88T268 65Q237 65 216 88T195 145Z" />
<glyph unicode="&#xf8;" glyph-name="oslash" horiz-adv-x="559" d="M458 562L428 489Q521 429 521 298Q521 279 519 258Q510 168 456 93Q380 -11 253 -11Q235 -11 226 -10L200 -76L94 -41L121 26Q38 83 38 220Q38 239 40 258Q53 389 143 463Q219 524 310 524H322L351
597L458 562ZM289 442Q234 434 198 375Q165 324 158 252Q152 191 168 142L289 442ZM400 257Q407 331 386 384L258 69Q316 70 356 128Q392 181 400 257Z" />
<glyph unicode="&#xf9;" glyph-name="ugrave" horiz-adv-x="493" d="M386 569L182 662L237 728L442 630L386 569ZM332 0Q331 28 329 73Q249 -18 193 -18Q136 -18 96 26T55 143Q55 156 56 170L92 507H202L167 173Q165 158 165 145Q165 76 210 77Q247 77 295 124Q339
167 342 194L375 507H484L431 0H332Z" />
<glyph unicode="&#xfa;" glyph-name="uacute" horiz-adv-x="493" d="M159 641L389 732L443 652L216 567L159 641ZM332 0Q331 28 329 73Q249 -18 193 -18Q136 -18 96 26T55 143Q55 156 56 170L92 507H202L167 173Q165 158 165 145Q165 76 210 77Q247 77 295 124Q339
167 342 194L375 507H484L431 0H332Z" />
<glyph unicode="&#xfb;" glyph-name="ucircumflex" horiz-adv-x="493" d="M146 534L156 624L309 732L442 624L433 535L296 613L146 534ZM332 0Q331 28 329 73Q249 -18 193 -18Q136 -18 96 26T55 143Q55 156 56 170L92 507H202L167 173Q165 158 165 145Q165 76
210 77Q247 77 295 124Q339 167 342 194L375 507H484L431 0H332Z" />
<glyph unicode="&#xfc;" glyph-name="udieresis" horiz-adv-x="493" d="M302 643Q305 671 324 691Q347 717 382 717Q416 717 434 691Q449 669 446 643Q443 615 423 594Q399 569 366 569Q332 569 315 594Q299 614 302 643ZM87 643Q90 670 110 691Q133 717 167 717T218
691Q233 669 231 643Q228 615 208 594Q185 569 151 569T100 594Q84 614 87 643ZM332 0Q331 28 329 73Q249 -18 193 -18Q136 -18 96 26T55 143Q55 156 56 170L92 507H202L167 173Q165 158 165 145Q165 76 210 77Q247 77 295 124Q339 167 342 194L375 507H484L431
0H332Z" />
<glyph unicode="&#xfd;" glyph-name="yacute" horiz-adv-x="491" d="M176 658L405 749L430 669L203 584L176 658ZM79 -201Q50 -201 -17 -176L26 -79Q62 -99 95 -99Q147 -100 197 33L58 484L178 515L259 140L410 513L510 487L247 -80Q223 -128 184 -161Q136 -201 79 -201Z" />
<glyph unicode="&#xfe;" glyph-name="thorn" horiz-adv-x="534" d="M181 -4Q175 -1 156 13L153 15L130 -200H14L109 701H224L198 442Q247 485 259 494Q297 521 326 520Q416 520 465 457Q509 400 509 306Q509 288 507 269Q493 123 418 48Q351 -19 250 -18Q208 -18
181 -4ZM183 309L163 114Q176 101 206 88T260 75Q323 75 360 156Q389 221 389 295Q389 423 302 423Q274 423 237 383Q207 350 183 309Z" />
<glyph unicode="&#xff;" glyph-name="ydieresis" horiz-adv-x="478" d="M75 -201Q49 -201 -22 -176L22 -79Q58 -99 91 -99Q122 -99 154 -40Q173 5 193 49L54 484L166 515L256 140L407 513L506 487L243 -80Q220 -128 180 -161Q132 -201 75 -201ZM318 612Q321 639
341 660Q364 686 398 686T450 660Q465 638 462 612Q459 584 439 563Q416 538 382 539Q347 539 331 563Q315 583 318 612ZM104 612Q107 640 126 660Q149 686 184 686Q217 686 234 660Q249 638 247 612Q244 584 224 563Q201 538 168 539Q133 539 116 563Q101 583
104 612Z" />
<glyph unicode="&#x2013;" glyph-name="endash" horiz-adv-x="512" d="M35 372H477V299H35V372Z" />
<glyph unicode="&#x2014;" glyph-name="emdash" horiz-adv-x="1024" d="M28 372H996V299H28V372Z" />
<glyph unicode="&#x2018;" glyph-name="quoteleft" horiz-adv-x="141" d="M83 691L150 688Q126 646 114 593Q112 583 98 505H-9Q-4 542 26 601Q53 655 83 691Z" />
<glyph unicode="&#x2019;" glyph-name="quoteright" horiz-adv-x="141" d="M58 505L-8 518Q17 560 29 613Q31 623 43 701H151Q147 664 116 600Q86 540 58 505Z" />
<glyph unicode="&#x201a;" glyph-name="quotesinglbase" horiz-adv-x="219" d="M58 -110L-8 -96Q17 -54 29 -1Q31 9 43 87H151Q147 50 116 -14Q86 -75 58 -110Z" />
<glyph unicode="&#x201c;" glyph-name="quotedblleft" horiz-adv-x="439" d="M339 691L406 688Q382 646 370 593Q368 583 354 505H247Q252 542 282 601Q309 655 339 691ZM134 691L201 688Q177 646 165 593Q163 583 150 505H42Q47 542 77 601Q104 655 134 691Z" />
<glyph unicode="&#x201d;" glyph-name="quotedblright" horiz-adv-x="439" d="M110 495L43 508Q68 550 80 603Q82 613 94 691H202Q198 654 167 590Q138 530 110 495ZM314 495L248 508Q273 550 285 603Q287 613 299 691H407Q403 654 372 590Q342 530 314 495Z" />
<glyph unicode="&#x201e;" glyph-name="quotedblbase" horiz-adv-x="427" d="M110 -120L43 -106Q68 -64 80 -11Q82 -1 94 77H202Q198 40 167 -25Q138 -85 110 -120ZM314 -120L248 -106Q273 -64 285 -11Q287 -1 299 77H407Q403 40 372 -25Q342 -85 314 -120Z" />
<glyph unicode="&#x2022;" glyph-name="bullet" horiz-adv-x="288" d="M132 195Q93 195 69 224T49 298Q54 342 85 371T155 400Q193 400 217 371T237 298Q232 254 202 225T132 195Z" />
<glyph unicode="&#x2039;" glyph-name="guilsinglleft" horiz-adv-x="326" d="M304 129L200 125L50 296L200 462L304 458L177 293L304 129Z" />
<glyph unicode="&#x203a;" glyph-name="guilsinglright" horiz-adv-x="324" d="M31 129L157 293L31 458L134 462L284 296L134 125L31 129Z" />
</font>
</defs>
</svg>
