<?xml version="1.0" standalone="no"?>
<!DOCTYPE svg PUBLIC "-//W3C//DTD SVG 1.1//EN" "http://www.w3.org/Graphics/SVG/1.1/DTD/svg11.dtd">
<svg xmlns="http://www.w3.org/2000/svg">
<defs >
<font id="Sansita" horiz-adv-x="509" ><font-face
    font-family="Sansita"
    units-per-em="1000"
    panose-1="3 6 6 2 3 7 2 2 5 6"
    ascent="1020"
    descent="-180"
    alphabetic="0" />
<glyph unicode=" " glyph-name="space" horiz-adv-x="175" />
<glyph unicode="!" glyph-name="exclam" horiz-adv-x="249" d="M200 681T200 595Q200 570 198 539T195 495L193 473L169 200Q155 190 129 190Q94 190 83 208T69 269L47 654Q60 666 80 673T121 681Q200 681 200 595ZM166 124T190 105T215 52Q215 17 189 -1T122
-20Q82 -20 57 -2T32 50Q32 85 58 104T126 124Q166 124 190 105Z" />
<glyph unicode="&quot;" glyph-name="quotedbl" horiz-adv-x="396" d="M44 508T44 557Q44 644 29 714Q57 720 79 720Q128 720 150 698T172 625Q172 588 158 544T123 475H40Q44 508 44 557ZM233 508T233 557Q233 644 218 714Q246 720 268 720Q317 720 339 698T361
625Q361 588 347 544T312 475H229Q233 508 233 557Z" />
<glyph unicode="#" glyph-name="numbersign" horiz-adv-x="581" d="M434 661T453 650V493H553Q563 475 563 453Q563 422 549 406T508 390H453V263H553Q563 243 563 223Q563 193 549 177T508 160H453V60Q453 32 437 16T390 0Q369 0 347 11V160H239V60Q239 32 223
16T176 0Q155 0 133 11V160H28Q18 180 18 200Q18 230 32 246T73 263H133V390H28Q18 410 18 430Q18 462 32 477T73 493H133V601Q133 630 149 645T196 661Q220 661 239 650V493H347V601Q347 630 363 645T410 661Q434 661 453 650ZM347 390H239V263H347V390Z" />
<glyph unicode="$" glyph-name="dollar" horiz-adv-x="581" d="M527 88T471 41T330 -18V-58Q330 -86 318 -102T279 -118Q259 -118 237 -107V-21Q161 -15 108 17T55 118Q55 162 83 189T156 216Q189 216 208 205Q201 174 201 152Q201 48 287 48Q327 48 352 70T377
131Q377 162 360 186T317 226T246 267Q191 296 157 320T98 382T74 474Q74 552 126 597T255 656V695Q255 723 267 739T306 756Q326 756 348 745V658Q418 652 466 622T515 528Q515 484 487 460T414 436Q383 436 362 447Q369 472 369 505Q369 545 352 567T296 590Q263
590 244 572T224 521Q224 486 242 460T287 416T361 374Q415 346 448 323T504 265T527 178Q527 88 471 41Z" />
<glyph unicode="%" glyph-name="percent" horiz-adv-x="973" d="M713 695T729 683T755 649L340 19Q327 -2 314 -13T281 -25Q262 -25 246 -13T220 20L635 651Q648 672 661 683T694 695Q713 695 729 683ZM298 677T343 625T388 486Q388 395 343 339T212 283Q127 283
82 337T36 479Q36 568 81 622T212 677Q298 677 343 625ZM182 627T171 587T160 482Q160 415 170 375T212 334Q243 334 253 374T263 482Q263 546 253 586T212 627Q182 627 171 587ZM848 374T892 322T937 182Q937 92 893 36T762 -21Q677 -21 631 33T585 176Q585 265
630 319T762 374Q848 374 892 322ZM731 324T721 284T710 179Q710 111 720 71T762 30Q793 30 803 71T813 179Q813 243 803 283T762 324Q731 324 721 284Z" />
<glyph unicode="&amp;" glyph-name="ampersand" horiz-adv-x="699" d="M704 77T704 49Q704 14 678 -3T609 -20Q547 -20 468 24Q394 -21 298 -21Q223 -21 163 2T66 72T30 188Q30 251 63 291T156 353Q105 448 105 517Q105 597 167 638T323 680Q406 680 462 650T519
554Q519 513 491 489T422 465Q391 465 372 477Q378 501 378 527Q378 566 362 588T312 611Q248 611 248 528Q248 470 277 402T356 269T464 158Q474 194 474 248Q474 324 432 365Q444 373 462 378T498 383Q554 383 582 351T610 262Q610 174 557 104Q598 89 630 89Q667
89 688 101Q704 77 704 49ZM176 146T216 102T330 57Q369 57 397 69Q344 110 290 168T194 290Q186 278 181 260T176 221Q176 146 216 102Z" />
<glyph unicode="&apos;" glyph-name="quotesingle" horiz-adv-x="207" d="M44 508T44 557Q44 644 29 714Q57 720 79 720Q128 720 150 698T172 625Q172 588 158 544T123 475H40Q44 508 44 557Z" />
<glyph unicode="(" glyph-name="parenleft" horiz-adv-x="351" d="M387 800T403 780Q309 712 263 585T216 300Q216 142 262 15T403 -180Q387 -200 352 -200Q280 -200 218 -133T118 49T80 300Q80 436 117 551T217 733T352 800Q387 800 403 780Z" />
<glyph unicode=")" glyph-name="parenright" horiz-adv-x="351" d="M76 800T137 733T235 552T271 300Q271 164 235 49T138 -133T2 -200Q-34 -200 -52 -179Q42 -112 88 15T135 300Q135 458 89 585T-52 780Q-33 800 2 800Q76 800 137 733Z" />
<glyph unicode="*" glyph-name="asterisk" horiz-adv-x="441" d="M392 595T402 569Q406 553 406 548Q406 524 388 509T337 483Q318 477 295 474L379 385Q370 361 348 345Q332 333 314 333Q282 333 247 381Q226 413 214 443L146 318Q119 320 99 335Q74 353 74 378Q74
405 102 442Q118 463 135 479L20 500Q18 507 18 521Q18 538 22 550Q35 590 77 590Q97 590 124 581Q144 574 176 558L159 683Q181 697 207 697Q242 697 255 673T268 609Q268 584 262 557L373 610Q392 595 402 569Z" />
<glyph unicode="+" glyph-name="plus" horiz-adv-x="581" d="M500 263T500 247Q500 222 486 208T445 194H339V67Q339 39 324 23T280 7Q254 7 237 17V194H91Q81 218 81 234Q81 259 95 273T136 287H237V405Q237 434 252 449T295 465Q322 465 339 455V287H490Q500
263 500 247Z" />
<glyph unicode="," glyph-name="comma" horiz-adv-x="242" d="M162 119T187 94T212 20Q212 -18 193 -52T142 -107T72 -128Q50 -128 31 -122Q73 -60 73 9Q73 59 49 103Q60 110 78 114T115 119Q162 119 187 94Z" />
<glyph unicode="-" glyph-name="hyphen" horiz-adv-x="391" d="M43 194T41 205T38 225Q38 282 102 285L344 295Q348 287 350 276T353 256Q353 200 288 197L47 187Q43 194 41 205Z" />
<glyph unicode="." glyph-name="period" horiz-adv-x="247" d="M166 124T190 105T215 52Q215 17 189 -1T122 -20Q82 -20 57 -2T32 50Q32 85 58 104T126 124Q166 124 190 105Z" />
<glyph unicode="/" glyph-name="slash" horiz-adv-x="334" d="M262 800T282 787T303 744Q303 728 299 706L144 -197Q131 -200 105 -200Q31 -200 31 -145Q31 -130 35 -106L190 796Q208 800 229 800Q262 800 282 787Z" />
<glyph unicode="0" glyph-name="zero" horiz-adv-x="581" d="M425 680T489 588T553 339Q553 180 488 79T290 -22Q159 -22 94 74T28 326Q28 486 92 583T290 680Q425 680 489 588ZM344 50T363 125T382 333Q382 459 363 533T290 608Q237 608 218 534T199 333Q199
201 218 126T290 50Q344 50 363 125Z" />
<glyph unicode="1" glyph-name="one" horiz-adv-x="581" d="M549 82V0H75V82H245V509Q197 477 164 462T103 447Q67 447 51 468T34 531Q114 557 203 596T368 678L411 657V82H549Z" />
<glyph unicode="2" glyph-name="two" horiz-adv-x="581" d="M375 680T446 630T518 484Q518 402 465 330T292 165Q249 135 219 115L534 120L530 0H42L35 73Q114 137 177 203Q257 273 302 333T348 457Q348 510 313 538T217 566Q122 566 75 460Q56 470 47 488T36
535Q38 583 70 615T152 664T256 680Q375 680 446 630Z" />
<glyph unicode="3" glyph-name="three" horiz-adv-x="581" d="M372 680T435 641T499 519Q499 464 468 421T382 357Q454 345 493 304T533 193Q533 126 498 78T398 4T247 -22Q164 -22 104 12T44 118Q44 159 70 175Q114 92 223 92Q289 92 326 120T363 200Q363 254
329 278T231 302Q213 302 189 300V370Q261 371 307 396T353 478Q353 521 317 543T222 565Q133 565 91 474Q57 490 52 539Q52 586 83 618T164 665T266 680Q372 680 435 641Z" />
<glyph unicode="4" glyph-name="four" horiz-adv-x="581" d="M479 235H577L569 132H480V0H309V132H37Q23 137 15 150T7 182Q7 212 33 249L313 660H479V235ZM312 516L122 235H312V516Z" />
<glyph unicode="5" glyph-name="five" horiz-adv-x="581" d="M485 537H178L166 407Q216 413 275 413Q401 413 467 364T534 208Q534 139 498 87T399 7T255 -22Q163 -22 99 13T35 118Q35 159 61 175Q101 92 231 92Q289 92 326 122T364 205Q364 268 318 293T189 318Q129
318 64 309L95 660H476L485 537Z" />
<glyph unicode="6" glyph-name="six" horiz-adv-x="581" d="M404 680T458 655T512 582Q512 549 486 529Q463 549 430 559T363 569Q281 569 246 520T209 377Q233 410 273 426T361 443Q457 443 503 380T550 227Q550 153 519 97T431 9T300 -22Q211 -22 151 20T61
136T31 304Q31 408 65 493T169 629T341 680Q404 680 458 655ZM218 364T212 211Q214 144 233 97T300 50Q348 50 368 97T388 211Q388 272 367 318T300 364Q218 364 212 211Z" />
<glyph unicode="7" glyph-name="seven" horiz-adv-x="581" d="M551 660L558 587L288 -23L107 1L396 545L38 535L41 660H551Z" />
<glyph unicode="8" glyph-name="eight" horiz-adv-x="581" d="M511 472T476 431T387 363Q461 322 503 278T546 169Q546 72 474 25T289 -22Q179 -22 107 24T35 166Q35 220 74 263T174 336Q120 372 89 414T57 508Q57 595 123 637T292 680Q386 680 448 641T511 523Q511
472 476 431ZM219 494T246 465T322 404Q345 426 357 458T369 523Q369 561 349 584T292 608Q257 608 238 587T219 528Q219 494 246 465ZM377 184T343 215T239 291Q217 265 204 230T191 162Q191 112 216 81T289 50Q332 50 354 74T377 144Q377 184 343 215Z" />
<glyph unicode="9" glyph-name="nine" horiz-adv-x="581" d="M366 680T426 638T516 522T546 354Q546 250 512 165T408 29T236 -22Q198 -22 158 -12T92 21T65 76Q65 109 91 129Q114 109 147 99T214 89Q297 89 331 138T368 281Q343 248 304 232T216 215Q120 215
74 278T27 431Q27 505 58 561T146 649T277 680Q366 680 426 638ZM229 608T209 561T189 447Q189 384 209 339T277 294Q326 294 345 338T365 447Q365 513 345 560T277 608Q229 608 209 561Z" />
<glyph unicode=":" glyph-name="colon" horiz-adv-x="254" d="M169 530T193 511T218 458Q218 423 192 405T125 386Q85 386 60 404T35 456Q35 491 61 510T129 530Q169 530 193 511ZM169 124T193 105T218 52Q218 17 192 -1T125 -20Q85 -20 60 -2T35 50Q35 85 61
104T129 124Q169 124 193 105Z" />
<glyph unicode=";" glyph-name="semicolon" horiz-adv-x="260" d="M175 530T199 511T224 458Q224 423 198 405T131 386Q91 386 66 404T41 456Q41 491 67 510T135 530Q175 530 199 511ZM171 119T196 94T221 20Q221 -18 202 -52T151 -107T81 -128Q59 -128 40 -122Q82
-60 82 9Q82 59 58 103Q69 110 87 114T124 119Q171 119 196 94Z" />
<glyph unicode="&lt;" glyph-name="less" horiz-adv-x="581" d="M467 119T467 86Q467 57 449 40T401 23L93 256L342 447Q347 451 360 461T386 476T412 482Q438 482 454 467T475 423L271 263L437 142Q467 119 467 86Z" />
<glyph unicode="=" glyph-name="equal" horiz-adv-x="581" d="M81 288T81 304Q81 329 95 342T136 356H490Q500 334 500 317Q500 291 486 278T445 264H91Q81 288 81 304ZM81 119T81 135Q81 160 95 173T136 187H490Q500 165 500 148Q500 123 486 109T445 95H91Q81
119 81 135Z" />
<glyph unicode="&gt;" glyph-name="greater" horiz-adv-x="581" d="M488 250L240 59Q237 56 223 45T196 29T170 23Q144 23 127 38T106 83L315 247L144 368Q130 379 122 394T114 425Q114 452 132 467T180 482L488 250Z" />
<glyph unicode="?" glyph-name="question" horiz-adv-x="461" d="M442 680T442 530Q442 491 426 458T385 401T323 343Q275 302 252 274T229 210Q224 206 212 204T188 201Q161 201 146 217T131 263Q131 290 147 315T199 381Q240 427 262 462T284 540Q284 576 268
598T216 620Q182 620 164 598T146 537Q146 510 154 480Q136 471 106 471Q59 471 31 493T2 560Q2 625 66 652T219 680Q442 680 442 530ZM229 124T253 105T278 52Q278 17 252 -1T185 -20Q145 -20 120 -2T95 50Q95 85 121 104T189 124Q229 124 253 105Z" />
<glyph unicode="@" glyph-name="at" horiz-adv-x="813" d="M515 601T598 566T730 459T778 286Q778 182 732 122T590 61Q501 61 473 119Q460 92 433 78T367 64Q311 64 273 92T235 171Q235 238 295 262T448 286V345Q448 377 440 393T407 410Q382 410 372 397T361
356Q361 343 365 321Q357 314 328 314Q296 314 276 328T255 369Q255 413 303 434T415 455Q494 455 530 426T567 322V159Q567 135 575 122T605 108Q648 108 664 148T680 261Q680 537 407 537Q276 537 206 460T135 248Q135 112 204 42T410 -29Q463 -29 506 -20T579
15Q596 4 596 -19Q596 -58 538 -78T406 -98Q296 -98 212 -57T82 62T36 248Q36 351 81 431T210 556T407 601Q515 601 598 566ZM356 242T356 174Q356 150 367 136T400 121Q424 121 436 140T448 189V242Q356 242 356 174Z" />
<glyph unicode="A" glyph-name="A" horiz-adv-x="547" d="M377 660L546 0H377L339 163H154L117 0H-4L178 660H377ZM173 242H321L246 562L173 242Z" />
<glyph unicode="B" glyph-name="B" horiz-adv-x="582" d="M511 463T483 426T411 371Q483 357 522 311T562 193Q562 124 522 79T416 12T273 -10Q170 -10 55 4V654Q183 665 277 665Q386 665 448 631T511 508Q511 463 483 426ZM238 385T260 385Q364 385 364 498Q364
592 273 592Q248 592 221 587V388Q238 385 260 385ZM248 62T275 62Q334 62 364 95T395 190Q395 258 362 288T257 318Q241 318 221 316V68Q248 62 275 62Z" />
<glyph unicode="C" glyph-name="C" horiz-adv-x="550" d="M245 608T225 533T205 349Q205 233 235 165T348 97Q397 97 432 122T487 194Q526 175 526 128Q526 80 495 46T416 -5T314 -22Q165 -22 96 73T27 326Q27 491 99 585T321 680Q412 680 471 647T530 540Q530
496 502 469T429 442Q396 442 377 453Q384 485 384 506Q384 608 310 608Q245 608 225 533Z" />
<glyph unicode="D" glyph-name="D" horiz-adv-x="614" d="M183 665T291 665Q443 665 515 583T587 342Q587 173 510 82T273 -10Q170 -10 55 4V654Q183 665 291 665ZM359 62T385 135T411 333Q411 447 386 519T288 592Q257 592 221 586V69Q249 62 280 62Q359 62 385 135Z" />
<glyph unicode="E" glyph-name="E" horiz-adv-x="447" d="M418 660V581H221V379H388V299H221V79H432L425 0H55V660H418Z" />
<glyph unicode="F" glyph-name="F" horiz-adv-x="429" d="M418 660V581H221V365H388V285H221V0H55V660H418Z" />
<glyph unicode="G" glyph-name="G" horiz-adv-x="578" d="M205 608T205 349Q205 228 232 154T340 80Q379 80 409 91L403 303L536 317V19Q490 -2 433 -12T320 -22Q168 -22 98 72T27 326Q27 493 102 586T332 680Q427 680 488 648T549 540Q549 496 520 469T447 442Q416
442 395 453Q402 478 402 506Q402 552 382 580T320 608Q205 608 205 349Z" />
<glyph unicode="H" glyph-name="H" horiz-adv-x="626" d="M571 660V0H406V294H221V0H55V660H221V374H406V660H571Z" />
<glyph unicode="I" glyph-name="I" horiz-adv-x="275" d="M221 660V0H55V660H221Z" />
<glyph unicode="J" glyph-name="J" horiz-adv-x="275" d="M221 -31T187 -103T60 -176Q25 -176 -3 -164T-39 -124Q20 -121 37 -74T55 55V660H221V87Q221 -31 187 -103Z" />
<glyph unicode="K" glyph-name="K" horiz-adv-x="570" d="M221 0H55V660H221V0ZM406 660H573L399 353L587 0H413L241 334L406 660Z" />
<glyph unicode="L" glyph-name="L" horiz-adv-x="424" d="M55 660H221V82H419L411 0H55V660Z" />
<glyph unicode="M" glyph-name="M" horiz-adv-x="798" d="M743 660V0H577V531L416 0H320L159 532V0H55V660H281L402 239L522 660H743Z" />
<glyph unicode="N" glyph-name="N" horiz-adv-x="618" d="M394 0L159 471V0H55V660H225L460 189V660H563V0H394Z" />
<glyph unicode="O" glyph-name="O" horiz-adv-x="626" d="M461 680T530 590T599 339Q599 174 530 76T313 -22Q168 -22 98 72T27 326Q27 489 96 584T313 680Q461 680 530 590ZM380 50T400 129T420 333Q420 452 400 530T313 608Q247 608 226 530T205 333Q205 210
225 130T313 50Q380 50 400 129Z" />
<glyph unicode="P" glyph-name="P" horiz-adv-x="557" d="M545 380T491 326T349 271Q308 271 281 285T254 332Q320 332 349 364T379 466Q379 592 273 592Q248 592 221 587V0H55V653Q184 665 277 665Q402 665 473 621T545 469Q545 380 491 326Z" />
<glyph unicode="Q" glyph-name="Q" horiz-adv-x="626" d="M461 680T530 590T599 339Q599 235 566 154T469 25T313 -22Q419 -48 490 -48Q518 -48 539 -43T578 -20Q590 -40 596 -56T603 -91Q603 -130 579 -148T515 -166Q480 -166 446 -157T359 -129Q310 -111 278
-103T213 -94Q167 -94 145 -104Q137 -96 133 -85T128 -61Q128 -30 149 -19T211 -6Q117 23 72 110T27 326Q27 489 96 584T313 680Q461 680 530 590ZM247 608T226 530T205 333Q205 210 225 130T313 50Q380 50 400 129T420 333Q420 452 400 530T313 608Q247 608 226
530Z" />
<glyph unicode="R" glyph-name="R" horiz-adv-x="577" d="M539 404T507 356T417 288L583 0H410L262 307Q255 325 255 337Q319 337 346 369T374 468Q374 592 273 592Q248 592 221 587V0H55V653Q184 665 277 665Q401 665 470 622T539 472Q539 404 507 356Z" />
<glyph unicode="S" glyph-name="S" horiz-adv-x="513" d="M357 680T417 649T477 548Q477 504 449 480T376 456Q345 456 324 467Q331 492 331 525Q331 565 314 587T258 610Q225 610 206 592T186 541Q186 507 204 481T248 435T321 389Q375 357 408 332T465 269T489
178Q489 79 419 29T237 -22Q144 -22 81 11T17 118Q17 162 45 189T118 216Q151 216 170 205Q163 174 163 152Q163 48 249 48Q289 48 314 70T339 131Q339 165 321 191T276 237T204 284Q150 316 117 341T60 404T36 494Q36 553 68 595T153 658T270 680Q357 680 417
649Z" />
<glyph unicode="T" glyph-name="T" horiz-adv-x="454" d="M460 660L453 581H310V0H144V581H-4V660H460Z" />
<glyph unicode="U" glyph-name="U" horiz-adv-x="579" d="M530 174T510 110T438 12T295 -22Q162 -22 105 41T48 241V660H214V252Q214 185 220 144T247 79T309 55Q351 55 371 80T398 149T404 263V660H530V274Q530 174 510 110Z" />
<glyph unicode="V" glyph-name="V" horiz-adv-x="532" d="M541 660L362 0H159L-1 660H168L289 98L407 660H541Z" />
<glyph unicode="W" glyph-name="W" horiz-adv-x="880" d="M890 660L717 0H514L433 401L355 0H152L-1 660H168L282 98L394 660H530L643 98L755 660H890Z" />
<glyph unicode="X" glyph-name="X" horiz-adv-x="523" d="M526 660L349 337L529 0H355L235 236L132 0H-7L178 339L7 660H181L291 440L387 660H526Z" />
<glyph unicode="Y" glyph-name="Y" horiz-adv-x="528" d="M343 302V0H177V291L1 660H175L285 394L385 660H524L343 302Z" />
<glyph unicode="Z" glyph-name="Z" horiz-adv-x="450" d="M432 660L439 585L183 82H449L441 0H13L6 75L261 578H25L28 660H432Z" />
<glyph unicode="[" glyph-name="bracketleft" horiz-adv-x="321" d="M343 777T343 761Q343 724 300 724H212V-123H300Q343 -123 343 -160Q343 -176 336 -190H77V791H336Q343 777 343 761Z" />
<glyph unicode="\" glyph-name="backslash" horiz-adv-x="334" d="M126 800T144 796L299 -106Q303 -130 303 -145Q303 -200 229 -200Q204 -200 190 -197L35 706Q31 728 31 744Q31 774 51 787T105 800Q126 800 144 796Z" />
<glyph unicode="]" glyph-name="bracketright" horiz-adv-x="321" d="M-15 -190Q-22 -176 -22 -160Q-22 -123 21 -123H109V724H21Q-22 724 -22 761Q-22 777 -15 791H244V-190H-15Z" />
<glyph unicode="^" glyph-name="asciicircum" horiz-adv-x="504" d="M349 540T391 462T497 336Q481 286 425 286Q368 286 323 345T241 534Q193 402 152 344T70 286Q23 286 7 336Q75 374 124 460T203 660H322Q349 540 391 462Z" />
<glyph unicode="_" glyph-name="underscore" horiz-adv-x="507" d="M7 -125T7 -101Q7 -71 24 -57T74 -42H494Q500 -55 500 -79Q500 -109 483 -123T433 -138H13Q7 -125 7 -101Z" />
<glyph unicode="`" glyph-name="grave" horiz-adv-x="266" d="M108 617Q62 634 36 651T10 699Q10 720 24 738T61 765L256 614L233 573L108 617Z" />
<glyph unicode="a" glyph-name="a" horiz-adv-x="540" d="M326 10T290 -6T209 -22Q132 -22 79 18T26 129Q26 223 113 257T332 291V378Q332 425 319 450T268 475Q232 475 212 454T192 395Q192 379 198 347Q191 342 177 340T151 337Q110 337 83 356T56 413Q56 470
120 500T275 530Q383 530 434 487T485 342V100Q485 72 492 51T516 14Q505 0 484 -7T440 -15Q403 -15 378 0T344 45Q326 10 290 -6ZM295 47T313 79T332 157V241Q184 241 184 133Q184 95 202 71T256 47Q295 47 313 79Z" />
<glyph unicode="b" glyph-name="b" horiz-adv-x="562" d="M215 600Q215 498 205 455Q226 492 263 511T345 530Q444 530 488 456T532 262Q532 130 469 54T281 -22Q228 -22 167 -8T62 29V700L215 716V600ZM247 38T287 38Q341 38 357 99T373 257Q373 345 358 399T293
454Q244 454 230 409T215 290V62Q247 38 287 38Z" />
<glyph unicode="c" glyph-name="c" horiz-adv-x="476" d="M188 470T188 259Q188 175 211 126T298 77Q340 77 369 99T413 161Q430 155 439 142T448 110Q448 68 423 39T358 -6T273 -22Q153 -22 92 51T30 251Q30 381 95 455T285 530Q361 530 410 502T460 410Q460
372 433 353T364 334Q352 334 339 336T318 344Q324 374 324 391Q324 470 270 470Q188 470 188 259Z" />
<glyph unicode="d" glyph-name="d" horiz-adv-x="564" d="M500 72T507 51T531 14Q520 0 499 -7T455 -15Q418 -15 393 0T359 45Q340 11 305 -5T225 -22Q122 -22 76 55T30 257Q30 386 92 458T278 530Q319 530 347 522V700L500 716V100Q500 72 507 51ZM313 470T275
470Q222 470 206 413T190 262Q190 171 206 111T274 50Q311 50 329 82T347 160V446Q313 470 275 470Z" />
<glyph unicode="e" glyph-name="e" horiz-adv-x="498" d="M457 144T457 107Q457 66 430 37T361 -7T273 -22Q153 -22 92 51T30 251Q30 382 96 456T289 530Q370 530 423 493T476 384Q476 295 413 261T241 227Q207 227 188 230Q191 159 215 118T298 77Q341 77 376
97T431 156Q457 144 457 107ZM226 471T208 413T188 276H208Q271 275 303 299T336 381Q336 419 321 445T274 471Q226 471 208 413Z" />
<glyph unicode="f" glyph-name="f" horiz-adv-x="335" d="M72 -14V465H3V510H72L75 561Q80 645 137 682T289 720Q359 720 411 701T463 632Q463 597 436 579T368 561Q335 561 321 571Q327 597 327 618Q327 644 316 659T282 674Q246 674 235 645T224 566V510H323V465H225V0L72
-14Z" />
<glyph unicode="g" glyph-name="g" horiz-adv-x="558" d="M305 -142T324 -113T347 -40T352 77V108Q331 80 297 67T221 54Q124 54 78 117T32 289Q32 406 93 468T270 530Q331 530 381 510L498 526V101Q498 -1 477 -66T403 -166T256 -200Q180 -200 121 -171T62 -81Q62
-43 88 -24T157 -5Q192 -5 204 -15Q198 -45 198 -62Q198 -99 214 -120T264 -142Q305 -142 324 -113ZM313 470T273 470Q223 470 207 421T191 295Q191 221 207 173T272 125Q310 125 327 157T345 238V447Q313 470 273 470Z" />
<glyph unicode="h" glyph-name="h" horiz-adv-x="566" d="M215 600Q215 498 205 455Q228 493 265 511T350 530Q437 530 474 484T511 342V100Q511 72 518 51T542 14Q531 0 509 -7T464 -15Q412 -15 385 11T358 90V334Q358 392 347 423T295 454Q246 454 231 409T215
290V0H62V700L215 716V600Z" />
<glyph unicode="i" glyph-name="i" horiz-adv-x="270" d="M177 736T201 717T226 664Q226 629 200 611T133 592Q93 592 68 610T42 662Q42 697 68 716T136 736Q177 736 201 717ZM208 100Q208 72 215 51T239 14Q228 0 206 -7T161 -15Q109 -15 82 11T55 90V510H208V100Z" />
<glyph unicode="j" glyph-name="j" horiz-adv-x="275" d="M182 736T206 717T231 664Q231 629 205 611T138 592Q98 592 73 610T47 662Q47 697 73 716T141 736Q182 736 206 717ZM215 -67T182 -133T64 -200Q31 -200 5 -189T-28 -153Q26 -150 44 -106T62 14V510H215V41Q215
-67 182 -133Z" />
<glyph unicode="k" glyph-name="k" horiz-adv-x="525" d="M62 0V700L215 716V0H62ZM383 510H525L369 304L530 0H360L229 281L383 510Z" />
<glyph unicode="l" glyph-name="l" horiz-adv-x="274" d="M210 716V100Q210 72 217 51T241 14Q230 0 208 -7T163 -15Q111 -15 84 11T57 90V700L210 716Z" />
<glyph unicode="m" glyph-name="m" horiz-adv-x="849" d="M56 510L181 522L188 432Q226 530 345 530Q403 530 438 509T490 444Q530 530 636 530Q722 530 758 483T794 342V100Q794 72 801 51T825 14Q814 0 792 -7T747 -15Q695 -15 668 11T641 90V334Q641 392 630
423T580 454Q534 454 520 408T505 290V0H352V334Q352 393 341 423T289 454Q240 454 225 409T209 290V0H56V510Z" />
<glyph unicode="n" glyph-name="n" horiz-adv-x="561" d="M56 510L181 522L188 432Q226 530 345 530Q432 530 468 483T505 342V100Q505 72 512 51T536 14Q525 0 503 -7T458 -15Q406 -15 379 11T352 90V334Q352 393 341 423T289 454Q240 454 225 409T209 290V0H56V510Z" />
<glyph unicode="o" glyph-name="o" horiz-adv-x="543" d="M392 530T452 459T513 262Q513 132 452 55T272 -22Q154 -22 92 52T30 252Q30 380 91 455T272 530Q392 530 452 459ZM324 38T339 99T354 257Q354 349 338 409T272 470Q222 470 206 409T190 257Q190 160
205 99T272 38Q324 38 339 99Z" />
<glyph unicode="p" glyph-name="p" horiz-adv-x="562" d="M448 530T490 456T532 262Q532 130 469 54T280 -22Q243 -22 215 -14V-180L62 -193V510L187 522L193 432Q233 530 350 530Q448 530 490 456ZM248 454T232 415T215 313V62Q249 38 286 38Q340 38 356 99T372
257Q372 347 358 400T293 454Q248 454 232 415Z" />
<glyph unicode="q" glyph-name="q" horiz-adv-x="559" d="M348 -92Q348 -1 358 42Q337 10 302 -6T224 -22Q121 -22 76 53T30 251Q30 380 91 455T273 530Q333 530 383 510L501 526V-180L348 -196V-92ZM314 470T275 470Q222 470 206 411T190 256Q190 167 207 109T275
50Q348 50 348 176V445Q314 470 275 470Z" />
<glyph unicode="r" glyph-name="r" horiz-adv-x="442" d="M229 448T219 404T209 289V0H56V510L181 522L188 432Q204 478 240 504T325 530Q382 530 415 498T449 409Q449 362 424 337T353 312Q342 312 327 315T305 323Q312 345 312 375Q312 448 265 448Q229 448 219 404Z" />
<glyph unicode="s" glyph-name="s" horiz-adv-x="464" d="M215 475T200 460T184 420Q184 382 212 357T297 302Q342 277 369 259T415 212T434 143Q434 60 374 19T219 -22Q141 -22 85 3T29 87Q29 125 55 144T124 163Q157 163 171 153Q165 131 165 106Q165 72 181
53T228 33Q260 33 277 51T294 103Q294 141 266 166T182 221Q137 245 110 264T63 312T44 381Q44 456 104 493T252 530Q325 530 379 506T433 427Q433 391 406 372T337 352Q325 352 312 354T291 361Q297 387 297 409Q297 439 283 457T241 475Q215 475 200 460Z" />
<glyph unicode="t" glyph-name="t" horiz-adv-x="311" d="M5 465V496Q53 514 102 546T183 614H226V510H318V465H225V109Q225 78 236 62T274 40Q264 14 237 0T177 -15Q125 -15 99 13T72 94V465H5Z" />
<glyph unicode="u" glyph-name="u" horiz-adv-x="568" d="M507 100Q507 72 514 51T538 14Q526 0 505 -7T461 -15Q425 -15 400 0T366 45Q346 11 311 -5T231 -22Q158 -22 120 9T68 95T55 236V510H210V241Q210 178 213 140T232 76T281 50Q319 50 336 82T354 162V510H507V100Z"
/>
<glyph unicode="v" glyph-name="v" horiz-adv-x="486" d="M491 510L336 0H143L5 510H165L258 73L351 510H491Z" />
<glyph unicode="w" glyph-name="w" horiz-adv-x="752" d="M757 510L614 0H437L370 296L308 0H130L5 510H165L245 73L326 510H461L542 73L622 510H757Z" />
<glyph unicode="x" glyph-name="x" horiz-adv-x="466" d="M210 171L140 0H-1L155 261L12 510H182L260 356L319 510H460L313 263L466 0H296L210 171Z" />
<glyph unicode="y" glyph-name="y" horiz-adv-x="478" d="M480 510L243 -193L90 -180L198 54H136L9 510H169L255 126L348 510H480Z" />
<glyph unicode="z" glyph-name="z" horiz-adv-x="406" d="M383 510L390 451L177 76L394 87L386 0H12L5 60L217 433L20 420L29 510H383Z" />
<glyph unicode="{" glyph-name="braceleft" horiz-adv-x="357" d="M300 800T345 792V741H318Q278 741 263 717T247 642V425Q247 374 226 347T156 314Q194 309 213 294T239 256T245 195V-14Q245 -67 259 -103T315 -140H342L340 -192Q288 -200 249 -200Q176 -200
144 -168T112 -67V167Q112 277 29 277L30 342Q73 342 93 368T114 448V676Q114 744 145 772T253 800Q300 800 345 792Z" />
<glyph unicode="|" glyph-name="bar" horiz-adv-x="283" d="M204 800H79V-200H204V800Z" />
<glyph unicode="}" glyph-name="braceright" horiz-adv-x="383" d="M110 374T131 347T201 314Q163 309 144 294T118 256T112 195V-14Q112 -67 98 -103T42 -140H15L17 -192Q69 -200 108 -200Q181 -200 213 -168T245 -67V167Q245 277 328 277L327 342Q284 342 264
368T243 448V676Q243 744 212 772T104 800Q57 800 12 792V741H39Q79 741 94 717T110 642V425Q110 374 131 347Z" />
<glyph unicode="~" glyph-name="asciitilde" horiz-adv-x="581" d="M378 256T352 261T299 272Q217 292 178 292Q138 292 113 278T88 235Q88 220 96 204T117 177Q125 190 144 196T186 203Q203 203 229 198T282 187Q364 167 403 167Q443 167 468 181T493 224Q493
239 485 255T464 282Q456 269 437 263T395 256Q378 256 352 261Z" />
<glyph unicode="&#xa0;" glyph-name="uni00A0" horiz-adv-x="175" />
<glyph unicode="&#xa1;" glyph-name="exclamdown" horiz-adv-x="249" d="M167 530T191 511T216 458Q216 423 190 405T123 386Q83 386 58 404T33 456Q33 491 59 510T127 530Q167 530 191 511ZM154 320T165 302T180 241L201 -144Q189 -156 168 -163T127 -171Q48
-171 48 -85Q48 -42 56 36L79 309Q93 320 119 320Q154 320 165 302Z" />
<glyph unicode="&#xa2;" glyph-name="cent" horiz-adv-x="581" d="M517 214T517 174Q517 116 471 82T363 43V11Q363 -49 312 -49Q290 -49 270 -39V49Q179 69 127 135T75 315Q75 429 126 496T268 585V627Q268 655 281 671T320 688Q341 688 361 677V594Q430 593
479 566T529 474Q529 437 502 418T434 398Q423 398 409 400T387 408Q393 440 393 456Q393 535 339 535Q232 535 232 323Q232 240 260 191T367 141Q409 141 438 163T482 226Q517 214 517 174Z" />
<glyph unicode="&#xa3;" glyph-name="sterling" horiz-adv-x="581" d="M271 201T252 165T191 109L516 116L507 0H60L51 82Q92 98 105 131T118 228V333H44Q39 345 39 359Q39 402 87 402H118V496Q118 582 177 621T335 660Q422 660 480 633T539 538Q539 494 511 470T437
446Q403 446 385 457Q392 482 392 515Q392 559 378 584T328 609Q292 609 282 582T271 501V402H427Q432 389 432 375Q432 333 383 333H271V257Q271 201 252 165Z" />
<glyph unicode="&#xa4;" glyph-name="currency" horiz-adv-x="581" d="M469 101L383 186Q343 164 288 164Q238 164 200 182L120 97L54 161L134 239Q108 279 108 335Q108 389 134 429L43 507L96 574L192 484Q233 508 288 508Q338 508 378 488L467 576L527 513L439
434Q468 393 468 335Q468 284 444 242L530 166L469 101ZM326 246T347 271T369 336Q369 377 347 402T288 427Q251 427 229 402T207 336Q207 296 228 271T288 246Q326 246 347 271Z" />
<glyph unicode="&#xa5;" glyph-name="yen" horiz-adv-x="581" d="M372 259V194H490Q495 181 495 167Q495 125 446 125H372V0H206V125H90Q86 134 86 151Q86 194 134 194H206V259H90Q86 268 86 285Q86 328 134 328H188L29 660H203L314 394L413 660H552L386 328H490Q495
315 495 301Q495 259 446 259H372Z" />
<glyph unicode="&#xa6;" glyph-name="brokenbar" horiz-adv-x="284" d="M205 388V660H80V388H205ZM204 0V272H79V0H204Z" />
<glyph unicode="&#xa7;" glyph-name="section" horiz-adv-x="463" d="M357 76T378 44T400 -33Q400 -102 344 -141T205 -180Q139 -180 92 -155T45 -75Q45 -40 66 -20T123 1Q148 1 164 -10Q160 -26 160 -49Q160 -85 174 -106T221 -128Q249 -128 264 -113T280 -70Q280
-33 253 -7T171 54Q127 81 100 102T53 155T34 227Q34 282 65 325T146 395Q108 424 86 457T64 535Q64 603 120 641T257 680Q324 680 371 655T418 575Q418 541 397 521T341 500Q313 500 300 511Q304 535 304 550Q304 628 244 628Q216 628 200 613T184 570Q184 534
211 507T293 447Q338 419 365 398T411 345T430 273Q430 226 400 183T318 105Q357 76 378 44ZM145 248T162 224T202 183T269 138Q318 175 318 222Q318 251 302 274T263 315T195 361Q145 329 145 278Q145 248 162 224Z" />
<glyph unicode="&#xa8;" glyph-name="dieresis" horiz-adv-x="407" d="M354 736T378 717T403 664Q403 629 377 611T310 592Q270 592 245 610T219 662Q219 697 245 716T313 736Q354 736 378 717ZM139 736T163 717T188 664Q188 629 162 611T95 592Q55 592 30 610T4
662Q4 697 30 716T98 736Q139 736 163 717Z" />
<glyph unicode="&#xa9;" glyph-name="copyright" horiz-adv-x="775" d="M489 615T570 570T698 445T744 263Q744 161 699 84T573 -36T388 -79Q284 -79 204 -37T78 83T32 263Q32 364 78 444T205 570T388 615Q489 615 570 570ZM307 547T249 511T161 410T131 263Q131
136 197 63T388 -11Q511 -11 577 62T644 263Q644 346 614 410T526 510T388 547Q307 547 249 511ZM460 468T496 447T532 380Q532 354 512 340T461 325Q437 325 424 332Q429 350 429 366Q429 423 395 423Q340 423 340 275Q340 217 356 183T417 149Q446 149 467 164T498
206Q523 197 523 170Q523 125 486 101T398 76Q311 76 266 127T220 269Q220 363 267 415T405 468Q460 468 496 447Z" />
<glyph unicode="&#xaa;" glyph-name="ordfeminine" horiz-adv-x="450" d="M299 674T336 644T374 539V369Q374 329 396 307Q376 284 337 284Q280 284 268 330Q256 304 230 292T171 279Q114 279 76 307T38 387Q38 455 98 479T253 503V563Q253 596 245 612T211 629Q186
629 176 615T165 574Q165 562 169 538Q158 531 131 531Q99 531 79 545T58 587Q58 632 106 653T219 674Q299 674 336 644ZM160 459T160 391Q160 367 171 352T204 337Q229 337 241 356T253 405V459Q160 459 160 391ZM390 218T390 201Q390 179 379 170T343 160H65Q58
181 58 193Q58 215 70 224T105 234H383Q390 218 390 201Z" />
<glyph unicode="&#xab;" glyph-name="guillemotleft" horiz-adv-x="506" d="M148 510H255L171 317L253 126H147L22 317L148 510ZM363 510H472L385 317L467 126H361L236 317L363 510Z" />
<glyph unicode="&#xac;" glyph-name="logicalnot" horiz-adv-x="581" d="M497 10Q471 -2 452 -2Q424 -2 409 14T393 60V195H64Q54 213 54 235Q54 260 68 273T109 287H497V10Z" />
<glyph unicode="&#xad;" glyph-name="uni00AD" horiz-adv-x="391" d="M43 194T41 205T38 225Q38 255 54 269T102 285L344 295Q348 287 350 276T353 256Q353 200 288 197L47 187Q43 194 41 205Z" />
<glyph unicode="&#xae;" glyph-name="registered" horiz-adv-x="775" d="M489 680T570 635T698 510T744 328Q744 226 699 149T573 29T388 -14Q284 -14 204 28T78 148T32 328Q32 429 78 509T205 635T388 680Q489 680 570 635ZM307 612T249 576T161 475T131 328Q131
201 197 128T388 54Q511 54 577 127T644 328Q644 411 614 475T526 575T388 612Q307 612 249 576ZM459 531T499 507T540 421Q540 382 522 355T469 316L559 152H448L374 326Q370 336 370 343Q404 343 418 361T433 417Q433 488 379 488Q372 488 365 487T353 485V152H247V525Q333
531 384 531Q459 531 499 507Z" />
<glyph unicode="&#xaf;" glyph-name="overscore" horiz-adv-x="312" d="M302 686T302 665Q302 643 287 630T244 617H18Q10 631 10 654Q10 677 24 690T64 704H293Q302 686 302 665Z" />
<glyph unicode="&#xb0;" glyph-name="degree" horiz-adv-x="363" d="M134 370T96 390T36 446T14 529Q14 601 60 642T181 684Q256 684 302 643T349 529Q349 458 302 414T181 370Q134 370 96 390ZM218 430T235 457T253 529Q253 570 235 597T181 624Q146 624 128
597T110 529Q110 486 127 458T181 430Q218 430 235 457Z" />
<glyph unicode="&#xb1;" glyph-name="plusminus" horiz-adv-x="581" d="M114 253Q104 271 104 292Q104 318 118 331T159 345H240V415Q240 444 255 459T298 475Q325 475 342 465V345H467Q477 327 477 305Q477 280 463 267T422 253H342V188Q342 160 327 144T283
128Q257 128 240 138V253H114ZM458 96Q467 76 467 58Q467 7 413 7H121Q112 27 112 45Q112 96 166 96H458Z" />
<glyph unicode="&#xb2;" glyph-name="uni00B2" horiz-adv-x="359" d="M235 674T273 646T311 560Q311 517 285 482T192 388Q167 368 158 361L314 364L312 285H44L40 336L114 409Q152 446 172 477T193 544Q193 570 179 584T139 598Q85 598 62 547Q51 552 45 563T39
588Q39 630 79 652T171 674Q235 674 273 646Z" />
<glyph unicode="&#xb3;" glyph-name="uni00B3" horiz-adv-x="356" d="M222 673T257 651T292 582Q292 548 274 525T221 489Q264 482 288 459T312 395Q312 336 269 304T157 272Q107 272 72 292T37 352Q37 380 53 389Q67 368 89 358T137 347Q163 347 179 360T195
399Q195 425 179 438T134 452Q115 452 105 450V501Q142 501 165 514T189 559Q189 580 176 591T139 603Q91 603 67 551Q45 562 45 593Q45 633 81 653T166 673Q222 673 257 651Z" />
<glyph unicode="&#xb4;" glyph-name="acute" horiz-adv-x="266" d="M206 765Q227 757 241 739T256 699Q256 668 230 651T158 617L33 573L10 614L206 765Z" />
<glyph unicode="&#xb5;" glyph-name="uni00B5" horiz-adv-x="575" d="M513 72T520 51T544 14Q533 0 512 -7T468 -15Q431 -15 406 0T372 45Q352 12 317 -4T240 -21Q223 -21 215 -20V-180L62 -193V510L217 526V241Q217 177 220 139T239 76T287 50Q326 50 343 82T360
162V510H513V100Q513 72 520 51Z" />
<glyph unicode="&#xb6;" glyph-name="paragraph" horiz-adv-x="674" d="M178 -126T228 -126Q280 -126 299 -92T319 7V265Q281 254 243 254Q149 254 99 310T48 463Q48 575 116 622T312 670Q374 670 423 660V35Q423 -75 383 -137T248 -200Q198 -200 165 -180T131
-128Q131 -118 135 -110T146 -98Q178 -126 228 -126ZM713 620T697 602T641 583Q616 583 599 588V0L501 -15V660H713Q713 620 697 602Z" />
<glyph unicode="&#xb7;" glyph-name="middot" horiz-adv-x="247" d="M166 327T190 308T215 255Q215 220 189 202T122 183Q82 183 57 201T32 253Q32 288 58 307T126 327Q166 327 190 308Z" />
<glyph unicode="&#xb8;" glyph-name="cedilla" horiz-adv-x="259" d="M186 -60T217 -83T249 -154Q249 -201 208 -228T111 -256Q72 -256 41 -243T10 -197Q10 -176 21 -165Q47 -195 96 -195Q118 -195 133 -184T148 -154Q148 -110 74 -110Q53 -110 33 -113L79 11H133L104
-61Q114 -60 132 -60Q186 -60 217 -83Z" />
<glyph unicode="&#xb9;" glyph-name="uni00B9" horiz-adv-x="341" d="M311 343V285H50V343H124V567Q114 558 100 553T72 547Q49 547 40 562T30 605Q74 618 119 638T200 680L241 668V343H311Z" />
<glyph unicode="&#xba;" glyph-name="ordmasculine" horiz-adv-x="434" d="M305 674T349 625T394 483Q394 389 350 335T217 280Q131 280 85 333T39 476Q39 569 83 621T217 674Q305 674 349 625ZM251 329T260 370T270 479Q270 542 260 584T217 626Q183 626 173
585T163 479Q163 412 172 371T217 329Q251 329 260 370ZM51 176T51 193Q51 215 62 224T97 234H375Q382 218 382 201Q382 179 371 170T336 160H58Q51 176 51 193Z" />
<glyph unicode="&#xbb;" glyph-name="guillemotright" horiz-adv-x="506" d="M143 510L270 317L145 126H38L121 317L34 510H143ZM358 510L484 317L359 126H252L335 317L251 510H358Z" />
<glyph unicode="&#xbc;" glyph-name="onequarter" horiz-adv-x="816" d="M502 720T515 711T528 682Q528 668 523 650L341 -87Q327 -91 310 -91Q288 -91 275 -82T262 -53Q262 -46 264 -36T267 -21L449 716Q465 720 481 720Q502 720 515 711ZM232 668V343H302V285H41V343H115V567Q105
558 91 553T63 547Q40 547 31 562T21 605Q64 618 110 638T191 680L232 668ZM743 138H800L795 71H743V0H625V71H475Q456 77 456 101Q456 115 470 139L622 381H743V138ZM627 290L536 138H627V290Z" />
<glyph unicode="&#xbd;" glyph-name="onehalf" horiz-adv-x="816" d="M511 720T524 711T537 682Q537 668 532 650L350 -87Q336 -91 319 -91Q298 -91 285 -82T272 -53Q272 -39 277 -21L459 716Q473 720 490 720Q511 720 524 711ZM241 668V343H311V285H50V343H124V567Q114
558 100 553T72 547Q49 547 40 562T30 605Q74 618 119 638T200 680L241 668ZM692 389T730 361T768 275Q768 244 754 218T716 167T644 98L614 76L771 79L769 0H501L497 51L569 123Q607 159 628 191T650 259Q650 285 636 299T595 313Q569 313 549 300T519 262Q496
272 496 303Q496 345 536 367T628 389Q692 389 730 361Z" />
<glyph unicode="&#xbe;" glyph-name="threequarters" horiz-adv-x="816" d="M502 720T515 711T528 682Q528 668 523 650L341 -87Q327 -91 310 -91Q288 -91 275 -82T262 -53Q262 -46 264 -36T267 -21L449 716Q465 720 481 720Q502 720 515 711ZM218 673T253 651T288
582Q288 548 270 525T217 489Q260 482 284 459T308 395Q308 336 265 304T153 272Q103 272 68 292T33 352Q33 380 49 389Q63 368 85 358T133 347Q159 347 175 360T191 399Q191 425 175 438T130 452Q111 452 101 450V501Q138 501 161 514T185 559Q185 580 172 591T135
603Q87 603 63 551Q41 562 41 593Q41 633 77 653T162 673Q218 673 253 651ZM743 138H800L795 71H743V0H625V71H475Q456 77 456 101Q456 115 470 139L622 381H743V138ZM627 290L536 138H627V290Z" />
<glyph unicode="&#xbf;" glyph-name="questiondown" horiz-adv-x="461" d="M303 530T327 511T352 458Q352 423 326 405T259 386Q219 386 194 404T169 456Q169 491 195 510T263 530Q303 530 327 511ZM293 309T307 293T322 248Q322 221 306 196T254 130Q212 82 191
47T169 -30Q169 -66 185 -88T238 -110Q271 -110 289 -87T307 -27Q307 -3 300 30Q319 40 347 40Q394 40 422 18T451 -50Q451 -115 388 -142T235 -170Q135 -170 73 -136T11 -19Q11 37 42 78T131 168Q178 207 201 236T225 300Q230 304 242 306T265 309Q293 309 307
293Z" />
<glyph unicode="&#xc0;" glyph-name="Agrave" horiz-adv-x="547" d="M377 660L546 0H377L339 163H154L117 0H-4L178 660H377ZM173 242H321L246 562L173 242ZM221 720Q165 724 134 737T102 788Q102 805 111 821T135 850L365 757L353 710L221 720Z" />
<glyph unicode="&#xc1;" glyph-name="Aacute" horiz-adv-x="547" d="M377 660L546 0H377L339 163H154L117 0H-4L178 660H377ZM173 242H321L246 562L173 242ZM412 850Q427 838 436 822T445 788Q445 750 414 737T326 720L194 710L182 757L412 850Z" />
<glyph unicode="&#xc2;" glyph-name="Acircumflex" horiz-adv-x="547" d="M377 660L546 0H377L339 163H154L117 0H-4L178 660H377ZM173 242H321L246 562L173 242ZM147 677L113 718L261 842H285L436 718L402 677L274 739L147 677Z" />
<glyph unicode="&#xc3;" glyph-name="Atilde" horiz-adv-x="547" d="M377 660L546 0H377L339 163H154L117 0H-4L178 660H377ZM173 242H321L246 562L173 242ZM436 817T443 802T450 772Q450 715 369 715Q349 715 317 720T274 726Q212 737 183 737Q142 737 124 720Q113
730 106 745T99 775Q99 832 180 832Q200 832 232 827T274 821Q336 810 366 810Q407 810 425 828Q436 817 443 802Z" />
<glyph unicode="&#xc4;" glyph-name="Adieresis" horiz-adv-x="547" d="M377 660L546 0H377L339 163H154L117 0H-4L178 660H377ZM173 242H321L246 562L173 242ZM423 855T447 836T472 783Q472 748 446 730T379 711Q339 711 314 729T288 781Q288 816 314 835T382
855Q423 855 447 836ZM209 855T233 836T258 783Q258 748 232 730T165 711Q125 711 100 729T74 781Q74 816 100 835T168 855Q209 855 233 836Z" />
<glyph unicode="&#xc5;" glyph-name="Aring" horiz-adv-x="547" d="M377 660L546 0H377L339 163H154L117 0H-4L178 660H377ZM173 242H321L246 562L173 242ZM227 700T197 725T166 791Q166 833 196 856T274 879Q322 879 352 856T382 791Q382 750 352 725T274 700Q227
700 197 725ZM296 738T307 752T318 791Q318 813 307 827T274 842Q253 842 242 828T230 791Q230 767 241 753T274 738Q296 738 307 752Z" />
<glyph unicode="&#xc6;" glyph-name="AE" horiz-adv-x="705" d="M676 660V581H495V379H646V299H495V79H690L683 0H330V163H163L96 0H-29L266 660H676ZM330 572L196 242H330V572Z" />
<glyph unicode="&#xc7;" glyph-name="Ccedilla" horiz-adv-x="550" d="M526 175T526 128Q526 80 495 46T416 -5T314 -22H313L297 -61Q307 -60 325 -60Q379 -60 410 -83T442 -154Q442 -201 401 -228T304 -256Q265 -256 234 -243T203 -197Q203 -176 214 -165Q239
-195 289 -195Q311 -195 326 -184T341 -154Q341 -110 267 -110Q246 -110 226 -113L261 -18Q139 -1 83 91T27 326Q27 491 99 585T321 680Q412 680 471 647T530 540Q530 496 502 469T429 442Q396 442 377 453Q384 485 384 506Q384 608 310 608Q245 608 225 533T205
349Q205 233 235 165T348 97Q397 97 432 122T487 194Q526 175 526 128Z" />
<glyph unicode="&#xc8;" glyph-name="Egrave" horiz-adv-x="447" d="M418 660V581H221V379H388V299H221V79H432L425 0H55V660H418ZM183 720Q127 724 96 737T64 788Q64 805 73 821T97 850L327 757L315 710L183 720Z" />
<glyph unicode="&#xc9;" glyph-name="Eacute" horiz-adv-x="447" d="M418 660V581H221V379H388V299H221V79H432L425 0H55V660H418ZM375 849Q390 837 399 821T408 787Q408 749 377 736T289 719L157 709L145 756L375 849Z" />
<glyph unicode="&#xca;" glyph-name="Ecircumflex" horiz-adv-x="447" d="M418 660V581H221V379H388V299H221V79H432L425 0H55V660H418ZM111 677L77 718L225 842H249L400 718L366 677L238 739L111 677Z" />
<glyph unicode="&#xcb;" glyph-name="Edieresis" horiz-adv-x="447" d="M418 660V581H221V379H388V299H221V79H432L425 0H55V660H418ZM387 855T411 836T436 783Q436 748 410 730T343 711Q303 711 278 729T252 781Q252 816 278 835T346 855Q387 855 411 836ZM173
855T197 836T222 783Q222 748 196 730T129 711Q89 711 64 729T38 781Q38 816 64 835T132 855Q173 855 197 836Z" />
<glyph unicode="&#xcc;" glyph-name="Igrave" horiz-adv-x="275" d="M221 660V0H55V660H221ZM341 720Q285 724 254 737T222 788Q222 805 231 821T255 850L485 757L473 710L341 720Z" />
<glyph unicode="&#xcd;" glyph-name="Iacute" horiz-adv-x="275" d="M221 660V0H55V660H221ZM277 1105Q292 1093 301 1077T310 1043Q310 1005 279 992T191 975L59 965L47 1012L277 1105Z" />
<glyph unicode="&#xce;" glyph-name="Icircumflex" horiz-adv-x="275" d="M221 660V0H55V660H221ZM267 677L233 718L381 842H405L556 718L522 677L394 739L267 677Z" />
<glyph unicode="&#xcf;" glyph-name="Idieresis" horiz-adv-x="275" d="M221 660V0H55V660H221ZM287 855T311 836T336 783Q336 748 310 730T243 711Q203 711 178 729T152 781Q152 816 178 835T246 855Q287 855 311 836ZM329 855T353 836T378 783Q378 748 352 730T285
711Q245 711 220 729T194 781Q194 816 220 835T288 855Q329 855 353 836Z" />
<glyph unicode="&#xd0;" glyph-name="Eth" horiz-adv-x="619" d="M448 665T520 583T592 342Q592 173 515 82T278 -10Q175 -10 60 4V293H-4Q-10 305 -10 327Q-10 380 50 380H60V654Q188 665 296 665Q448 665 520 583ZM364 62T390 135T416 333Q416 447 391 519T293
592Q262 592 226 586V380H338Q344 365 344 346Q344 319 328 306T283 293H226V69Q254 62 285 62Q364 62 390 135Z" />
<glyph unicode="&#xd1;" glyph-name="Ntilde" horiz-adv-x="618" d="M394 0L159 471V0H55V660H225L460 189V660H563V0H394ZM470 817T477 802T484 772Q484 715 403 715Q383 715 351 720T308 726Q246 737 217 737Q176 737 158 720Q147 730 140 745T133 775Q133 832
214 832Q234 832 266 827T308 821Q370 810 400 810Q441 810 459 828Q470 817 477 802Z" />
<glyph unicode="&#xd2;" glyph-name="Ograve" horiz-adv-x="626" d="M461 680T530 590T599 339Q599 174 530 76T313 -22Q168 -22 98 72T27 326Q27 489 96 584T313 680Q461 680 530 590ZM380 50T400 129T420 333Q420 452 400 530T313 608Q247 608 226 530T205 333Q205
210 225 130T313 50Q380 50 400 129ZM260 720Q204 724 173 737T141 788Q141 805 150 821T174 850L404 757L392 710L260 720Z" />
<glyph unicode="&#xd3;" glyph-name="Oacute" horiz-adv-x="626" d="M461 680T530 590T599 339Q599 174 530 76T313 -22Q168 -22 98 72T27 326Q27 489 96 584T313 680Q461 680 530 590ZM380 50T400 129T420 333Q420 452 400 530T313 608Q247 608 226 530T205 333Q205
210 225 130T313 50Q380 50 400 129ZM452 849Q467 837 476 821T485 787Q485 749 454 736T366 719L234 709L222 756L452 849Z" />
<glyph unicode="&#xd4;" glyph-name="Ocircumflex" horiz-adv-x="626" d="M461 680T530 590T599 339Q599 174 530 76T313 -22Q168 -22 98 72T27 326Q27 489 96 584T313 680Q461 680 530 590ZM380 50T400 129T420 333Q420 452 400 530T313 608Q247 608 226 530T205
333Q205 210 225 130T313 50Q380 50 400 129ZM186 677L152 718L300 842H324L475 718L441 677L313 739L186 677Z" />
<glyph unicode="&#xd5;" glyph-name="Otilde" horiz-adv-x="626" d="M461 680T530 590T599 339Q599 174 530 76T313 -22Q168 -22 98 72T27 326Q27 489 96 584T313 680Q461 680 530 590ZM380 50T400 129T420 333Q420 452 400 530T313 608Q247 608 226 530T205 333Q205
210 225 130T313 50Q380 50 400 129ZM475 817T482 802T489 772Q489 715 408 715Q388 715 356 720T313 726Q251 737 222 737Q181 737 163 720Q152 730 145 745T138 775Q138 832 219 832Q239 832 271 827T313 821Q375 810 405 810Q446 810 464 828Q475 817 482 802Z"
/>
<glyph unicode="&#xd6;" glyph-name="Odieresis" horiz-adv-x="626" d="M461 680T530 590T599 339Q599 174 530 76T313 -22Q168 -22 98 72T27 326Q27 489 96 584T313 680Q461 680 530 590ZM380 50T400 129T420 333Q420 452 400 530T313 608Q247 608 226 530T205
333Q205 210 225 130T313 50Q380 50 400 129ZM462 855T486 836T511 783Q511 748 485 730T418 711Q378 711 353 729T327 781Q327 816 353 835T421 855Q462 855 486 836ZM248 855T272 836T297 783Q297 748 271 730T204 711Q164 711 139 729T113 781Q113 816 139 835T207
855Q248 855 272 836Z" />
<glyph unicode="&#xd7;" glyph-name="multiply" horiz-adv-x="581" d="M478 109T485 97T492 71Q492 43 474 29T427 14L294 172L196 49Q169 13 135 13Q113 13 99 25T80 59L232 242L141 344Q126 361 119 373T111 401Q111 428 129 443T177 458L294 316L376 415Q404
452 436 452Q458 452 472 440T490 406L355 246L463 128Q478 109 485 97Z" />
<glyph unicode="&#xd8;" glyph-name="Oslash" horiz-adv-x="626" d="M599 503T599 339Q599 174 530 76T313 -22Q213 -22 146 26L90 -55Q69 -54 49 -43T28 -12Q28 2 44 26L86 88Q27 178 27 326Q27 489 96 584T313 680Q404 680 468 644L518 717Q539 716 559 705T580
674Q580 660 564 636L531 588Q599 503 599 339ZM205 287T206 263L396 539Q369 608 313 608Q247 608 226 530T205 333Q205 287 206 263ZM380 50T400 129T420 333Q420 392 417 422L223 139Q249 50 313 50Q380 50 400 129Z" />
<glyph unicode="&#xd9;" glyph-name="Ugrave" horiz-adv-x="579" d="M530 174T510 110T438 12T295 -22Q162 -22 105 41T48 241V660H214V252Q214 185 220 144T247 79T309 55Q351 55 371 80T398 149T404 263V660H530V274Q530 174 510 110ZM256 720Q200 724 169 737T137
788Q137 805 146 821T170 850L400 757L388 710L256 720Z" />
<glyph unicode="&#xda;" glyph-name="Uacute" horiz-adv-x="579" d="M530 174T510 110T438 12T295 -22Q162 -22 105 41T48 241V660H214V252Q214 185 220 144T247 79T309 55Q351 55 371 80T398 149T404 263V660H530V274Q530 174 510 110ZM448 849Q463 837 472 821T481
787Q481 749 450 736T362 719L230 709L218 756L448 849Z" />
<glyph unicode="&#xdb;" glyph-name="Ucircumflex" horiz-adv-x="579" d="M530 174T510 110T438 12T295 -22Q162 -22 105 41T48 241V660H214V252Q214 185 220 144T247 79T309 55Q351 55 371 80T398 149T404 263V660H530V274Q530 174 510 110ZM182 677L148 718L296
842H320L471 718L437 677L309 739L182 677Z" />
<glyph unicode="&#xdc;" glyph-name="Udieresis" horiz-adv-x="579" d="M530 174T510 110T438 12T295 -22Q162 -22 105 41T48 241V660H214V252Q214 185 220 144T247 79T309 55Q351 55 371 80T398 149T404 263V660H530V274Q530 174 510 110ZM458 855T482 836T507
783Q507 748 481 730T414 711Q374 711 349 729T323 781Q323 816 349 835T417 855Q458 855 482 836ZM244 855T268 836T293 783Q293 748 267 730T200 711Q160 711 135 729T109 781Q109 816 135 835T203 855Q244 855 268 836Z" />
<glyph unicode="&#xdd;" glyph-name="Yacute" horiz-adv-x="528" d="M343 302V0H177V291L1 660H175L285 394L385 660H524L343 302ZM415 849Q430 837 439 821T448 787Q448 749 417 736T329 719L197 709L185 756L415 849Z" />
<glyph unicode="&#xde;" glyph-name="Thorn" horiz-adv-x="557" d="M221 537H277Q402 537 473 493T545 342Q545 253 491 199T349 144Q308 144 281 158T254 205Q320 205 349 237T379 339Q379 465 273 465Q248 465 221 460V0H55V660H221V537Z" />
<glyph unicode="&#xdf;" glyph-name="germandbls" horiz-adv-x="681" d="M62 720T319 720Q405 720 477 694T549 609Q549 580 532 558T481 504Q451 477 437 459T423 420Q423 382 451 357T535 302Q580 277 607 259T653 212T672 143Q672 60 612 19T458 -22Q380 -22
324 3T267 87Q267 125 294 144T363 163Q396 163 410 153Q404 131 404 106Q404 72 420 53T467 33Q499 33 516 51T533 103Q533 141 505 166T421 221Q376 245 349 264T302 312T283 381Q283 410 301 435T354 493Q384 521 399 541T414 582Q414 623 386 646T313 669Q258
669 237 641T215 554V70Q215 -38 182 -104T64 -171Q31 -171 5 -160T-28 -123Q26 -120 44 -76T62 44V539Q62 720 319 720Z" />
<glyph unicode="&#xe0;" glyph-name="agrave" horiz-adv-x="540" d="M326 10T290 -6T209 -22Q132 -22 79 18T26 129Q26 223 113 257T332 291V378Q332 425 319 450T268 475Q232 475 212 454T192 395Q192 379 198 347Q191 342 177 340T151 337Q110 337 83 356T56
413Q56 470 120 500T275 530Q383 530 434 487T485 342V100Q485 72 492 51T516 14Q505 0 484 -7T440 -15Q403 -15 378 0T344 45Q326 10 290 -6ZM295 47T313 79T332 157V241Q184 241 184 133Q184 95 202 71T256 47Q295 47 313 79ZM209 617Q163 634 137 651T111 699Q111
720 125 738T162 765L357 614L334 573L209 617Z" />
<glyph unicode="&#xe1;" glyph-name="aacute" horiz-adv-x="540" d="M326 10T290 -6T209 -22Q132 -22 79 18T26 129Q26 223 113 257T332 291V378Q332 425 319 450T268 475Q232 475 212 454T192 395Q192 379 198 347Q191 342 177 340T151 337Q110 337 83 356T56
413Q56 470 120 500T275 530Q383 530 434 487T485 342V100Q485 72 492 51T516 14Q505 0 484 -7T440 -15Q403 -15 378 0T344 45Q326 10 290 -6ZM295 47T313 79T332 157V241Q184 241 184 133Q184 95 202 71T256 47Q295 47 313 79ZM369 765Q390 757 404 739T419 699Q419
668 393 651T321 617L196 573L173 614L369 765Z" />
<glyph unicode="&#xe2;" glyph-name="acircumflex" horiz-adv-x="540" d="M326 10T290 -6T209 -22Q132 -22 79 18T26 129Q26 223 113 257T332 291V378Q332 425 319 450T268 475Q232 475 212 454T192 395Q192 379 198 347Q191 342 177 340T151 337Q110 337 83 356T56
413Q56 470 120 500T275 530Q383 530 434 487T485 342V100Q485 72 492 51T516 14Q505 0 484 -7T440 -15Q403 -15 378 0T344 45Q326 10 290 -6ZM295 47T313 79T332 157V241Q184 241 184 133Q184 95 202 71T256 47Q295 47 313 79ZM138 580L104 621L252 745H276L427
621L393 580L265 642L138 580Z" />
<glyph unicode="&#xe3;" glyph-name="atilde" horiz-adv-x="540" d="M326 10T290 -6T209 -22Q132 -22 79 18T26 129Q26 223 113 257T332 291V378Q332 425 319 450T268 475Q232 475 212 454T192 395Q192 379 198 347Q191 342 177 340T151 337Q110 337 83 356T56
413Q56 470 120 500T275 530Q383 530 434 487T485 342V100Q485 72 492 51T516 14Q505 0 484 -7T440 -15Q403 -15 378 0T344 45Q326 10 290 -6ZM295 47T313 79T332 157V241Q184 241 184 133Q184 95 202 71T256 47Q295 47 313 79ZM427 702T434 687T441 657Q441 600
360 600Q340 600 308 605T265 611Q203 622 174 622Q133 622 115 604Q104 615 97 630T90 660Q90 717 171 717Q191 717 223 712T265 706Q327 695 357 695Q398 695 416 713Q427 702 434 687Z" />
<glyph unicode="&#xe4;" glyph-name="adieresis" horiz-adv-x="540" d="M326 10T290 -6T209 -22Q132 -22 79 18T26 129Q26 223 113 257T332 291V378Q332 425 319 450T268 475Q232 475 212 454T192 395Q192 379 198 347Q191 342 177 340T151 337Q110 337 83 356T56
413Q56 470 120 500T275 530Q383 530 434 487T485 342V100Q485 72 492 51T516 14Q505 0 484 -7T440 -15Q403 -15 378 0T344 45Q326 10 290 -6ZM295 47T313 79T332 157V241Q184 241 184 133Q184 95 202 71T256 47Q295 47 313 79ZM415 736T439 717T464 664Q464 629
438 611T371 592Q331 592 306 610T280 662Q280 697 306 716T374 736Q415 736 439 717ZM200 736T224 717T249 664Q249 629 223 611T156 592Q116 592 91 610T65 662Q65 697 91 716T159 736Q200 736 224 717Z" />
<glyph unicode="&#xe5;" glyph-name="aring" horiz-adv-x="540" d="M326 10T290 -6T209 -22Q132 -22 79 18T26 129Q26 223 113 257T332 291V378Q332 425 319 450T268 475Q232 475 212 454T192 395Q192 379 198 347Q191 342 177 340T151 337Q110 337 83 356T56
413Q56 470 120 500T275 530Q383 530 434 487T485 342V100Q485 72 492 51T516 14Q505 0 484 -7T440 -15Q403 -15 378 0T344 45Q326 10 290 -6ZM295 47T313 79T332 157V241Q184 241 184 133Q184 95 202 71T256 47Q295 47 313 79ZM217 572T185 598T153 669Q153 713
184 738T265 763Q314 763 345 739T376 669Q376 625 345 599T265 572Q217 572 185 598ZM289 609T300 625T312 669Q312 694 300 710T265 726Q241 726 229 710T217 669Q217 642 229 626T265 609Q289 609 300 625Z" />
<glyph unicode="&#xe6;" glyph-name="ae" horiz-adv-x="796" d="M754 144T754 107Q754 66 727 37T658 -7T570 -22Q507 -22 460 -1T383 60Q335 -22 218 -22Q135 -22 81 17T26 129Q26 223 112 255T332 287V378Q332 425 319 450T268 475Q232 475 212 454T192 395Q192
379 198 347Q191 342 177 340T151 337Q110 337 83 356T56 413Q56 470 120 500T275 530Q329 530 367 520T431 487Q492 530 586 530Q667 530 720 493T773 384Q773 296 711 264T539 231Q504 231 486 234Q489 161 513 119T595 77Q638 77 674 97T728 156Q754 144 754
107ZM524 471T505 415T485 280H505Q570 279 601 301T633 381Q633 419 618 445T571 471Q524 471 505 415ZM332 237Q262 237 223 214T184 133Q184 95 202 71T256 47Q295 47 313 79T332 157V237Z" />
<glyph unicode="&#xe7;" glyph-name="ccedilla" horiz-adv-x="476" d="M430 155T439 142T448 110Q448 68 423 39T358 -6T273 -22H267L251 -61Q261 -60 279 -60Q333 -60 364 -83T396 -154Q396 -201 355 -228T258 -256Q219 -256 188 -243T157 -197Q157 -176 168
-165Q194 -195 243 -195Q265 -195 280 -184T295 -154Q295 -110 221 -110Q199 -110 180 -113L216 -17Q124 0 77 70T30 251Q30 381 95 455T285 530Q361 530 410 502T460 410Q460 372 433 353T364 334Q352 334 339 336T318 344Q324 374 324 391Q324 470 270 470Q188
470 188 259Q188 175 211 126T298 77Q340 77 369 99T413 161Q430 155 439 142Z" />
<glyph unicode="&#xe8;" glyph-name="egrave" horiz-adv-x="498" d="M457 144T457 107Q457 66 430 37T361 -7T273 -22Q153 -22 92 51T30 251Q30 382 96 456T289 530Q370 530 423 493T476 384Q476 295 413 261T241 227Q207 227 188 230Q191 159 215 118T298 77Q341
77 376 97T431 156Q457 144 457 107ZM226 471T208 413T188 276H208Q271 275 303 299T336 381Q336 419 321 445T274 471Q226 471 208 413ZM217 617Q171 634 145 651T119 699Q119 720 133 738T170 765L365 614L342 573L217 617Z" />
<glyph unicode="&#xe9;" glyph-name="eacute" horiz-adv-x="498" d="M457 144T457 107Q457 66 430 37T361 -7T273 -22Q153 -22 92 51T30 251Q30 382 96 456T289 530Q370 530 423 493T476 384Q476 295 413 261T241 227Q207 227 188 230Q191 159 215 118T298 77Q341
77 376 97T431 156Q457 144 457 107ZM226 471T208 413T188 276H208Q271 275 303 299T336 381Q336 419 321 445T274 471Q226 471 208 413ZM377 765Q398 757 412 739T427 699Q427 668 401 651T329 617L204 573L181 614L377 765Z" />
<glyph unicode="&#xea;" glyph-name="ecircumflex" horiz-adv-x="498" d="M457 144T457 107Q457 66 430 37T361 -7T273 -22Q153 -22 92 51T30 251Q30 382 96 456T289 530Q370 530 423 493T476 384Q476 295 413 261T241 227Q207 227 188 230Q191 159 215 118T298
77Q341 77 376 97T431 156Q457 144 457 107ZM226 471T208 413T188 276H208Q271 275 303 299T336 381Q336 419 321 445T274 471Q226 471 208 413ZM146 580L112 621L260 745H284L435 621L401 580L273 642L146 580Z" />
<glyph unicode="&#xeb;" glyph-name="edieresis" horiz-adv-x="498" d="M457 144T457 107Q457 66 430 37T361 -7T273 -22Q153 -22 92 51T30 251Q30 382 96 456T289 530Q370 530 423 493T476 384Q476 295 413 261T241 227Q207 227 188 230Q191 159 215 118T298
77Q341 77 376 97T431 156Q457 144 457 107ZM226 471T208 413T188 276H208Q271 275 303 299T336 381Q336 419 321 445T274 471Q226 471 208 413ZM423 736T447 717T472 664Q472 629 446 611T379 592Q339 592 314 610T288 662Q288 697 314 716T382 736Q423 736 447
717ZM208 736T232 717T257 664Q257 629 231 611T164 592Q124 592 99 610T73 662Q73 697 99 716T167 736Q208 736 232 717Z" />
<glyph unicode="&#xec;" glyph-name="igrave" horiz-adv-x="270" d="M208 100Q208 72 215 51T239 14Q228 0 206 -7T161 -15Q109 -15 82 11T55 90V510H208V100ZM332 617Q286 634 260 651T234 699Q234 720 248 738T285 765L480 614L457 573L332 617Z" />
<glyph unicode="&#xed;" glyph-name="iacute" horiz-adv-x="270" d="M208 100Q208 72 215 51T239 14Q228 0 206 -7T161 -15Q109 -15 82 11T55 90V510H208V100ZM236 765Q257 757 271 739T286 699Q286 668 260 651T188 617L63 573L40 614L236 765Z" />
<glyph unicode="&#xee;" glyph-name="icircumflex" horiz-adv-x="270" d="M208 100Q208 72 215 51T239 14Q228 0 206 -7T161 -15Q109 -15 82 11T55 90V510H208V100ZM261 580L227 621L375 745H399L550 621L516 580L388 642L261 580Z" />
<glyph unicode="&#xef;" glyph-name="idieresis" horiz-adv-x="270" d="M208 100Q208 72 215 51T239 14Q228 0 206 -7T161 -15Q109 -15 82 11T55 90V510H208V100ZM282 736T306 717T331 664Q331 629 305 611T238 592Q198 592 173 610T147 662Q147 697 173 716T241
736Q282 736 306 717ZM323 736T347 717T372 664Q372 629 346 611T279 592Q239 592 214 610T188 662Q188 697 214 716T282 736Q323 736 347 717Z" />
<glyph unicode="&#xf0;" glyph-name="eth" horiz-adv-x="566" d="M360 720T425 650L510 680Q515 675 519 667T524 653Q526 645 526 642Q526 619 491 606L463 596Q494 540 508 468T523 315Q523 163 465 71T277 -21Q203 -21 147 10T61 97T30 227Q30 315 64 374T156
463T282 493Q322 493 349 484Q346 520 337 550L253 519Q248 524 244 532T238 546Q237 550 237 556Q237 581 268 592L306 606Q278 632 233 632Q200 632 179 617Q174 625 171 637T168 660Q168 691 193 705T260 720Q360 720 425 650ZM329 39T345 109T361 296Q361 351
355 407Q321 433 282 433Q226 433 210 376T193 234Q193 157 210 98T277 39Q329 39 345 109Z" />
<glyph unicode="&#xf1;" glyph-name="ntilde" horiz-adv-x="561" d="M56 510L181 522L188 432Q226 530 345 530Q432 530 468 483T505 342V100Q505 72 512 51T536 14Q525 0 503 -7T458 -15Q406 -15 379 11T352 90V334Q352 393 341 423T289 454Q240 454 225 409T209
290V0H56V510ZM462 702T469 687T476 657Q476 600 395 600Q375 600 343 605T300 611Q238 622 209 622Q168 622 150 604Q139 615 132 630T125 660Q125 717 206 717Q226 717 258 712T300 706Q362 695 392 695Q433 695 451 713Q462 702 469 687Z" />
<glyph unicode="&#xf2;" glyph-name="ograve" horiz-adv-x="543" d="M392 530T452 459T513 262Q513 132 452 55T272 -22Q154 -22 92 52T30 252Q30 380 91 455T272 530Q392 530 452 459ZM324 38T339 99T354 257Q354 349 338 409T272 470Q222 470 206 409T190 257Q190
160 205 99T272 38Q324 38 339 99ZM216 617Q170 634 144 651T118 699Q118 720 132 738T169 765L364 614L341 573L216 617Z" />
<glyph unicode="&#xf3;" glyph-name="oacute" horiz-adv-x="543" d="M392 530T452 459T513 262Q513 132 452 55T272 -22Q154 -22 92 52T30 252Q30 380 91 455T272 530Q392 530 452 459ZM324 38T339 99T354 257Q354 349 338 409T272 470Q222 470 206 409T190 257Q190
160 205 99T272 38Q324 38 339 99ZM376 765Q397 757 411 739T426 699Q426 668 400 651T328 617L203 573L180 614L376 765Z" />
<glyph unicode="&#xf4;" glyph-name="ocircumflex" horiz-adv-x="543" d="M392 530T452 459T513 262Q513 132 452 55T272 -22Q154 -22 92 52T30 252Q30 380 91 455T272 530Q392 530 452 459ZM324 38T339 99T354 257Q354 349 338 409T272 470Q222 470 206 409T190
257Q190 160 205 99T272 38Q324 38 339 99ZM145 580L111 621L259 745H283L434 621L400 580L272 642L145 580Z" />
<glyph unicode="&#xf5;" glyph-name="otilde" horiz-adv-x="543" d="M392 530T452 459T513 262Q513 132 452 55T272 -22Q154 -22 92 52T30 252Q30 380 91 455T272 530Q392 530 452 459ZM324 38T339 99T354 257Q354 349 338 409T272 470Q222 470 206 409T190 257Q190
160 205 99T272 38Q324 38 339 99ZM434 702T441 687T448 657Q448 600 367 600Q347 600 315 605T272 611Q210 622 181 622Q140 622 122 604Q111 615 104 630T97 660Q97 717 178 717Q198 717 230 712T272 706Q334 695 364 695Q405 695 423 713Q434 702 441 687Z"
/>
<glyph unicode="&#xf6;" glyph-name="odieresis" horiz-adv-x="543" d="M392 530T452 459T513 262Q513 132 452 55T272 -22Q154 -22 92 52T30 252Q30 380 91 455T272 530Q392 530 452 459ZM324 38T339 99T354 257Q354 349 338 409T272 470Q222 470 206 409T190
257Q190 160 205 99T272 38Q324 38 339 99ZM422 736T446 717T471 664Q471 629 445 611T378 592Q338 592 313 610T287 662Q287 697 313 716T381 736Q422 736 446 717ZM207 736T231 717T256 664Q256 629 230 611T163 592Q123 592 98 610T72 662Q72 697 98 716T166
736Q207 736 231 717Z" />
<glyph unicode="&#xf7;" glyph-name="divide" horiz-adv-x="581" d="M362 372T342 357T291 342Q260 342 241 357T221 398Q221 426 242 442T294 458Q324 458 343 443T362 400Q362 372 342 357ZM81 218T81 234Q81 259 95 273T136 287H490Q500 263 500 247Q500 222
486 208T445 194H91Q81 218 81 234ZM362 53T342 38T291 23Q260 23 241 38T221 79Q221 107 242 123T294 139Q324 139 343 124T362 81Q362 53 342 38Z" />
<glyph unicode="&#xf8;" glyph-name="oslash" horiz-adv-x="543" d="M513 391T513 262Q513 132 452 55T272 -22Q198 -22 145 9L101 -55Q80 -54 60 -43T40 -12Q40 4 55 26L82 65Q30 135 30 252Q30 380 91 455T272 530Q336 530 386 508L445 594Q465 593 485 582T506
551Q506 536 491 513L453 458Q513 391 513 262ZM190 223L330 427Q310 470 272 470Q222 470 206 409T190 257V223ZM324 38T339 99T354 257Q354 293 353 312L206 98Q227 38 272 38Q324 38 339 99Z" />
<glyph unicode="&#xf9;" glyph-name="ugrave" horiz-adv-x="568" d="M507 100Q507 72 514 51T538 14Q526 0 505 -7T461 -15Q425 -15 400 0T366 45Q346 11 311 -5T231 -22Q158 -22 120 9T68 95T55 236V510H210V241Q210 178 213 140T232 76T281 50Q319 50 336 82T354
162V510H507V100ZM225 617Q179 634 153 651T127 699Q127 720 141 738T178 765L373 614L350 573L225 617Z" />
<glyph unicode="&#xfa;" glyph-name="uacute" horiz-adv-x="568" d="M507 100Q507 72 514 51T538 14Q526 0 505 -7T461 -15Q425 -15 400 0T366 45Q346 11 311 -5T231 -22Q158 -22 120 9T68 95T55 236V510H210V241Q210 178 213 140T232 76T281 50Q319 50 336 82T354
162V510H507V100ZM385 765Q406 757 420 739T435 699Q435 668 409 651T337 617L212 573L189 614L385 765Z" />
<glyph unicode="&#xfb;" glyph-name="ucircumflex" horiz-adv-x="568" d="M507 100Q507 72 514 51T538 14Q526 0 505 -7T461 -15Q425 -15 400 0T366 45Q346 11 311 -5T231 -22Q158 -22 120 9T68 95T55 236V510H210V241Q210 178 213 140T232 76T281 50Q319 50 336
82T354 162V510H507V100ZM154 580L120 621L268 745H292L443 621L409 580L281 642L154 580Z" />
<glyph unicode="&#xfc;" glyph-name="udieresis" horiz-adv-x="568" d="M507 100Q507 72 514 51T538 14Q526 0 505 -7T461 -15Q425 -15 400 0T366 45Q346 11 311 -5T231 -22Q158 -22 120 9T68 95T55 236V510H210V241Q210 178 213 140T232 76T281 50Q319 50 336
82T354 162V510H507V100ZM431 736T455 717T480 664Q480 629 454 611T387 592Q347 592 322 610T296 662Q296 697 322 716T390 736Q431 736 455 717ZM216 736T240 717T265 664Q265 629 239 611T172 592Q132 592 107 610T81 662Q81 697 107 716T175 736Q216 736 240
717Z" />
<glyph unicode="&#xfd;" glyph-name="yacute" horiz-adv-x="478" d="M480 510L243 -193L90 -180L198 54H136L9 510H169L255 126L348 510H480ZM359 765Q380 757 394 739T409 699Q409 668 383 651T311 617L186 573L163 614L359 765Z" />
<glyph unicode="&#xfe;" glyph-name="thorn" horiz-adv-x="562" d="M215 600Q215 498 205 455Q248 530 350 530Q448 530 490 456T532 262Q532 130 469 54T280 -22Q243 -22 215 -14V-180L62 -193V700L215 716V600ZM248 454T232 415T215 313V62Q249 38 286 38Q340
38 356 99T372 257Q372 347 358 400T293 454Q248 454 232 415Z" />
<glyph unicode="&#xff;" glyph-name="ydieresis" horiz-adv-x="478" d="M480 510L243 -193L90 -180L198 54H136L9 510H169L255 126L348 510H480ZM405 736T429 717T454 664Q454 629 428 611T361 592Q321 592 296 610T270 662Q270 697 296 716T364 736Q405 736 429
717ZM190 736T214 717T239 664Q239 629 213 611T146 592Q106 592 81 610T55 662Q55 697 81 716T149 736Q190 736 214 717Z" />
<glyph unicode="&#x2013;" glyph-name="endash" horiz-adv-x="478" d="M7 206T7 230Q7 288 74 288H464Q471 274 471 252Q471 193 403 193H13Q7 206 7 230Z" />
<glyph unicode="&#x2014;" glyph-name="emdash" horiz-adv-x="940" d="M7 206T7 230Q7 288 74 288H926Q933 274 933 252Q933 193 865 193H13Q7 206 7 230Z" />
<glyph unicode="&#x2018;" glyph-name="quoteleft" horiz-adv-x="276" d="M119 473T94 498T69 572Q69 610 88 644T139 700T209 721Q232 721 250 714Q208 652 208 584Q208 532 232 490Q221 482 203 478T167 473Q119 473 94 498Z" />
<glyph unicode="&#x2019;" glyph-name="quoteright" horiz-adv-x="240" d="M157 721T182 696T207 622Q207 584 188 550T137 494T67 473Q44 473 26 480Q68 542 68 611Q68 661 44 705Q55 712 73 716T109 721Q157 721 182 696Z" />
<glyph unicode="&#x201a;" glyph-name="quotesinglbase" horiz-adv-x="240" d="M157 119T182 94T207 20Q207 -18 188 -52T137 -108T67 -129Q44 -129 26 -122Q68 -60 68 9Q68 59 44 103Q55 110 73 114T109 119Q157 119 182 94Z" />
<glyph unicode="&#x201c;" glyph-name="quotedblleft" horiz-adv-x="452" d="M82 473T58 498T33 572Q33 610 52 644T103 700T173 721Q196 721 214 714Q172 652 172 584Q172 532 196 490Q185 482 167 478T130 473Q82 473 58 498ZM294 473T270 498T245 572Q245 610
264 644T315 700T384 721Q408 721 426 714Q384 654 384 584Q384 532 408 490Q397 482 379 478T342 473Q294 473 270 498Z" />
<glyph unicode="&#x201d;" glyph-name="quotedblright" horiz-adv-x="452" d="M157 721T182 696T207 622Q207 584 188 550T137 494T67 473Q44 473 26 480Q68 542 68 611Q68 661 44 705Q55 712 73 716T109 721Q157 721 182 696ZM369 721T393 696T418 622Q418 584
399 550T348 494T279 473Q255 473 237 480Q279 540 279 611Q279 661 255 705Q266 712 285 716T321 721Q369 721 393 696Z" />
<glyph unicode="&#x201e;" glyph-name="quotedblbase" horiz-adv-x="452" d="M157 119T182 94T207 20Q207 -18 188 -52T137 -107T67 -128Q46 -128 26 -122Q68 -60 68 9Q68 59 44 103Q55 110 73 114T109 119Q157 119 182 94ZM369 119T393 94T418 20Q418 -18 399
-52T348 -107T279 -128Q257 -128 237 -122Q279 -62 279 9Q279 59 255 103Q266 110 285 114T321 119Q369 119 393 94Z" />
<glyph unicode="&#x2022;" glyph-name="bullet" horiz-adv-x="282" d="M182 351T212 327T242 260Q242 215 211 191T129 166Q80 166 50 189T20 256Q20 301 52 326T134 351Q182 351 212 327Z" />
<glyph unicode="&#x2039;" glyph-name="guilsinglleft" horiz-adv-x="289" d="M148 510H255L171 317L253 126H147L22 317L148 510Z" />
<glyph unicode="&#x203a;" glyph-name="guilsinglright" horiz-adv-x="289" d="M268 317L142 126H36L118 317L34 510H142L268 317Z" />
</font>
</defs>
</svg>
