<?xml version="1.0" standalone="no"?>
<!DOCTYPE svg PUBLIC "-//W3C//DTD SVG 1.1//EN" "http://www.w3.org/Graphics/SVG/1.1/DTD/svg11.dtd">
<svg xmlns="http://www.w3.org/2000/svg">
<defs >
<font id="CormorantSC" horiz-adv-x="528" ><font-face
    font-family="Cormorant SC Light"
    units-per-em="1000"
    panose-1="0 0 4 0 0 0 0 0 0 0"
    ascent="924"
    descent="-287"
    alphabetic="0" />
<glyph unicode=" " glyph-name="space" horiz-adv-x="234" />
<glyph unicode="!" glyph-name="exclam" horiz-adv-x="243" d="M82 624T94 626T122 629Q137 629 149 627T161 621Q146 534 139 435T125 189Q125 187 120 187T115 189Q110 333 104 433T82 621Q82 624 94 626ZM100 -11T89 -1T78 28Q78 45 89 55T118 65Q137 65 147
55T157 28Q157 10 147 0T118 -11Q100 -11 89 -1Z" />
<glyph unicode="&quot;" glyph-name="quotedbl" horiz-adv-x="278" d="M47 609Q47 618 63 627T98 639T115 637L65 366Q64 364 60 363T55 365L47 609ZM187 609Q187 618 203 627T238 639T255 637L205 366Q204 364 200 363T195 365L187 609Z" />
<glyph unicode="#" glyph-name="numbersign" horiz-adv-x="526" d="M465 313T466 308T468 295Q468 288 467 282T463 276H388L359 115H428Q430 115 431 109T433 96Q433 89 432 83T428 77H352L325 -78Q325 -81 315 -81Q307 -81 299 -79T292 -75L319 77H165L138 -78Q138
-81 128 -81Q120 -81 112 -79T105 -75L132 77H63Q61 77 60 83T58 97Q58 104 59 109T62 115H139L167 276H98Q96 276 95 282T93 296Q93 302 94 307T97 313H174L204 482Q204 484 211 484Q219 484 228 482T236 476L207 313H361L391 482Q391 484 398 484Q406 484 415
482T423 476L394 313H463Q465 313 466 308ZM326 115L354 276H201L172 115H326Z" />
<glyph unicode="$" glyph-name="dollar" horiz-adv-x="408" d="M360 69T324 33T222 -11V-102Q222 -109 212 -109Q202 -109 202 -102V-12H195Q131 -12 83 22Q78 25 77 29T74 41L62 136Q61 140 67 141T74 138Q84 85 120 47T202 3V220L193 225Q154 246 130 262T90
302T74 360Q74 412 110 443T202 479V561Q202 565 205 567T212 569Q216 569 219 567T222 561V480Q263 480 312 457Q322 452 324 450T327 441L336 356Q336 352 331 351T324 354Q318 392 290 424T222 465V265L237 257Q277 236 301 220T343 179T360 120Q360 69 324
33ZM119 348T141 323T202 276V467H201Q163 467 141 444T119 384Q119 348 141 323ZM258 3T284 24T311 90Q311 130 288 157T222 209V2Q258 3 284 24Z" />
<glyph unicode="%" glyph-name="percent" horiz-adv-x="574" d="M98 222T64 259T29 352Q29 405 63 442T150 480Q202 480 235 442T268 350Q268 295 235 259T150 222Q98 222 64 259ZM137 -6Q133 -6 125 -1T117 6L435 473L437 474Q442 474 450 469T457 461L139 -5L137
-6ZM192 233T203 260T215 343Q215 469 144 469Q108 469 95 440T82 356Q82 233 157 233Q192 233 203 260ZM375 -5T341 32T306 125Q306 178 340 215T427 253Q479 253 512 215T545 123Q545 68 512 32T427 -5Q375 -5 341 32ZM469 6T480 33T492 116Q492 242 421 242Q386
242 373 212T359 129Q359 6 434 6Q469 6 480 33Z" />
<glyph unicode="&amp;" glyph-name="ampersand" horiz-adv-x="529" d="M529 12T529 6T526 0H433Q400 0 338 44Q272 -12 180 -12Q110 -12 76 18T41 92Q41 133 67 163T145 231Q124 259 109 289Q91 328 91 361Q91 397 109 424T158 465T222 480Q257 480 284 463T312
400Q312 367 296 341T258 297T194 252Q240 188 315 124Q350 96 359 90Q395 139 395 196Q395 224 383 239T336 255Q333 255 333 261T336 267L503 268Q507 268 507 262T503 256Q477 256 465 250T448 235T435 201Q415 132 373 80Q420 47 461 30T526 12Q529 12 529
6ZM136 336T188 262Q226 291 247 320T268 385Q268 420 248 440T195 461Q136 461 136 391Q136 336 188 262ZM273 13T324 54Q300 72 273 96Q200 161 152 222Q123 199 107 174T91 118Q91 71 124 42T211 13Q273 13 324 54Z" />
<glyph unicode="&apos;" glyph-name="quotesingle" horiz-adv-x="138" d="M47 609Q47 618 63 627T98 639T115 637L65 366Q64 364 60 363T55 365L47 609Z" />
<glyph unicode="(" glyph-name="parenleft" horiz-adv-x="309" d="M70 446T124 559T274 725Q276 726 278 724T278 719Q201 648 165 545T129 304Q129 166 165 63T278 -111Q280 -112 278 -115T274 -117Q177 -63 124 49T70 304Q70 446 124 559Z" />
<glyph unicode=")" glyph-name="parenright" horiz-adv-x="309" d="M239 162T185 49T35 -117Q33 -118 31 -116T31 -111Q108 -40 144 63T180 304Q180 442 144 545T31 719Q29 720 31 723T35 725Q132 671 185 559T239 304Q239 162 185 49Z" />
<glyph unicode="*" glyph-name="asterisk" horiz-adv-x="448" d="M235 657Q235 666 252 675T287 687T303 685L236 529Q235 526 231 526T226 529L235 657ZM84 559Q71 564 71 603Q71 617 73 626T78 633L207 520Q210 519 208 515T204 511L84 559ZM251 503Q249 503
248 507T248 513L374 544Q383 546 396 533T418 504T421 488L251 503ZM127 382T116 382Q105 382 90 386T66 396T60 404L206 491L208 492Q210 492 212 489T214 485L131 387Q127 382 116 382ZM233 481Q232 483 236 486T241 488L310 378Q315 370 306 353T285 323T271
315L233 481Z" />
<glyph unicode="+" glyph-name="plus" horiz-adv-x="398" d="M366 243T367 238T369 225Q369 218 368 212T364 206H218V60Q218 58 211 57T196 55Q180 55 180 58V206H34Q32 206 31 212T29 226Q29 232 30 237T33 243H180V389Q180 391 186 392T199 394Q206 394 212
393T218 389V243H364Q366 243 367 238Z" />
<glyph unicode="," glyph-name="comma" horiz-adv-x="222" d="M131 62T147 41T164 -21Q164 -60 147 -93T95 -159Q94 -160 92 -160Q89 -160 87 -157T87 -152Q136 -102 136 -34Q136 -8 126 7Q119 -8 97 -8Q80 -8 71 1T61 27Q61 62 102 62Q131 62 147 41Z" />
<glyph unicode="-" glyph-name="hyphen" horiz-adv-x="282" d="M30 203T29 210T27 227Q27 245 30 246L244 281Q246 282 247 276T249 261Q249 241 244 239L32 204Q30 203 29 210Z" />
<glyph unicode="." glyph-name="period" horiz-adv-x="195" d="M80 -11T69 -1T58 28Q58 45 69 55T98 65Q117 65 127 55T137 28Q137 10 127 0T98 -11Q80 -11 69 -1Z" />
<glyph unicode="/" glyph-name="slash" horiz-adv-x="339" d="M61 -167T43 -162T26 -152L278 730Q280 735 297 729T313 718L62 -163Q61 -167 43 -162Z" />
<glyph unicode="0" glyph-name="zero" horiz-adv-x="547" d="M206 -13T152 18T68 106T37 236Q37 307 67 362T152 447T276 478Q344 478 397 447T480 361T510 233Q510 161 480 105T397 18T275 -13Q206 -13 152 18ZM368 -1T408 58T448 221Q448 303 424 358T358 440T265
467Q186 467 141 405T96 243Q96 172 119 117T186 30T287 -1Q368 -1 408 58Z" />
<glyph unicode="1" glyph-name="one" horiz-adv-x="344" d="M50 0T50 6T53 12Q96 12 116 17T145 37T153 81V351Q153 391 149 406T128 422Q118 422 102 416T53 395H52Q47 395 45 400T47 406L193 477Q194 478 196 478Q198 478 200 476T202 470V81Q202 50 209 36T237
17T303 12Q305 12 305 6T303 0Q270 0 252 1L178 2L105 1Q86 0 53 0Q50 0 50 6Z" />
<glyph unicode="2" glyph-name="two" horiz-adv-x="449" d="M143 95T202 152T287 256T313 349Q313 402 284 432T201 462Q95 462 62 339Q62 338 58 338Q49 338 50 342L88 489Q89 491 94 490T99 487Q98 482 98 475Q98 457 115 457Q126 457 147 465Q172 473 189 476T229
480Q293 480 331 446T370 357Q370 316 345 274T264 178T108 48Q104 45 105 43T112 41Q247 41 297 44T369 61T398 110Q399 112 404 112T409 109L395 11Q395 7 393 4T386 0H44Q40 0 37 4T37 12Q143 95 202 152Z" />
<glyph unicode="3" glyph-name="three" horiz-adv-x="444" d="M304 218T345 180T387 85Q387 11 302 -54T51 -157Q48 -158 46 -152T48 -145Q197 -113 261 -53T326 74Q326 125 293 161T199 198Q151 198 123 184L121 183Q117 183 115 187T116 193Q131 202 154 209T206
218Q261 253 282 281T303 345Q303 394 271 425T177 457Q124 457 91 429T40 335Q40 333 35 333Q32 333 30 334T28 337L67 489Q68 491 73 490T78 487Q77 483 77 475Q77 455 94 455Q103 455 130 464Q158 473 176 477T219 481Q278 481 318 451T358 370Q358 331 329
296T233 219Q304 218 345 180Z" />
<glyph unicode="4" glyph-name="four" horiz-adv-x="480" d="M431 43T432 37T434 22Q434 14 433 8T429 1Q399 3 343 5V-126Q343 -137 335 -140L301 -157Q297 -159 295 -159Q291 -159 291 -151V6Q219 8 22 8Q17 8 15 12T15 20L325 480Q327 482 332 482Q343 482
343 475V41Q369 41 429 43Q431 43 432 37ZM163 37T291 39V391L63 44Q61 41 62 39T68 37Q163 37 291 39Z" />
<glyph unicode="5" glyph-name="five" horiz-adv-x="433" d="M105 416T104 402L82 278Q232 277 302 234T372 111Q372 34 301 -28T68 -158H67Q63 -158 61 -154T62 -147Q202 -88 258 -30T315 94Q315 168 252 208T68 249Q63 249 60 252T58 261L90 439Q91 446 92 447T103
450Q241 465 288 471T349 483T368 505Q370 508 375 508T379 503L359 439Q355 427 350 424T331 421L119 416Q105 416 104 402Z" />
<glyph unicode="6" glyph-name="six" horiz-adv-x="501" d="M395 294T429 257T463 166Q463 119 435 78T358 12T254 -13Q196 -13 149 19T76 109T49 240Q49 328 88 406T204 539T388 608Q392 609 393 604T391 598Q298 580 235 529T140 408T108 260Q108 194 130 136T192
41T283 5Q338 5 371 42T404 140Q404 199 376 233T294 267Q264 267 239 256T184 218Q183 217 181 217Q178 217 175 220T173 225Q200 259 239 276T327 294Q395 294 429 257Z" />
<glyph unicode="7" glyph-name="seven" horiz-adv-x="476" d="M198 -120T185 -127L131 -158Q129 -159 126 -156T124 -151L402 420Q406 427 398 427Q229 427 165 423T80 406T49 359Q49 356 45 356Q42 356 39 357T37 361L70 495Q71 497 77 497T82 494Q81 490 81
484Q81 474 90 471T129 468H429Q434 468 436 464T437 455L206 -103Q198 -120 185 -127Z" />
<glyph unicode="8" glyph-name="eight" horiz-adv-x="571" d="M387 339T423 317T485 261T510 180Q510 126 478 82T393 12T276 -13Q213 -13 164 12T88 80T61 170Q61 233 104 284T213 366Q166 391 141 417T116 483Q116 522 142 551T211 594T298 609Q366 609 407
578T448 499Q448 456 414 421T328 366Q387 339 423 317ZM165 479T185 455T236 412T317 371Q395 404 395 476Q395 525 359 558T263 591Q217 591 191 571T165 512Q165 479 185 455ZM372 5T413 43T454 146Q454 197 429 232T367 290T269 340Q243 350 227 359Q119 305
119 198Q119 146 142 102T208 32T305 5Q372 5 413 43Z" />
<glyph unicode="9" glyph-name="nine" horiz-adv-x="501" d="M120 174T92 194T51 246T37 311Q37 358 64 397T136 458T235 481Q293 481 340 449T413 359T440 228Q440 137 400 55T281 -83T94 -154H93Q90 -154 89 -150T91 -144Q186 -125 251 -72T349 54T381 208Q381
274 359 332T297 427T206 463Q155 463 126 431T97 336Q97 278 122 240T195 201Q225 201 250 212T305 250Q306 251 308 251Q311 251 314 248T316 243Q289 209 249 192T161 174Q120 174 92 194Z" />
<glyph unicode=":" glyph-name="colon" horiz-adv-x="195" d="M80 328T69 338T58 367Q58 384 69 394T98 404Q117 404 127 394T137 367Q137 349 127 339T98 328Q80 328 69 338ZM80 -11T69 -1T58 28Q58 45 69 55T98 65Q117 65 127 55T137 28Q137 10 127 0T98 -11Q80
-11 69 -1Z" />
<glyph unicode=";" glyph-name="semicolon" horiz-adv-x="222" d="M82 328T71 338T60 367Q60 384 71 394T100 404Q119 404 129 394T139 367Q139 349 129 339T100 328Q82 328 71 338ZM131 62T147 41T164 -21Q164 -60 147 -93T95 -159Q94 -160 92 -160Q89 -160 87
-157T87 -152Q136 -102 136 -34Q136 -8 126 7Q119 -8 97 -8Q80 -8 71 1T61 27Q61 62 102 62Q131 62 147 41Z" />
<glyph unicode="&lt;" glyph-name="less" horiz-adv-x="407" d="M377 108T377 88Q377 69 370 72L36 220Q31 223 31 237Q31 252 36 254L370 401Q373 403 375 399T377 386Q377 367 370 363L76 237L370 111Q377 108 377 88Z" />
<glyph unicode="=" glyph-name="equal" horiz-adv-x="468" d="M32 288T31 294T29 308Q29 314 30 319T33 325H434Q436 325 437 320T439 307Q439 300 438 294T434 288H34Q32 288 31 294ZM32 148T31 154T29 168Q29 174 30 179T33 185H434Q436 185 437 180T439 167Q439
160 438 154T434 148H34Q32 148 31 154Z" />
<glyph unicode="&gt;" glyph-name="greater" horiz-adv-x="407" d="M376 251T376 236Q376 222 371 219L37 72Q34 71 32 75T30 87Q30 95 32 102T37 110L331 236L37 362Q34 363 32 370T30 385Q30 393 32 398T37 401L371 253Q376 251 376 236Z" />
<glyph unicode="?" glyph-name="question" horiz-adv-x="327" d="M131 613T122 600T110 565Q106 547 99 537T76 527Q62 527 54 536T46 558Q46 585 80 605T161 625Q218 625 255 594T292 505Q292 463 275 436T221 372Q185 336 171 309T157 248Q157 225 163 193Q164
190 159 189T152 191Q141 217 134 252T126 310Q126 341 139 361T178 407Q206 434 220 457T235 517Q235 560 213 586T157 613Q131 613 122 600ZM128 -11T117 -1T106 28Q106 45 117 55T146 65Q165 65 175 55T185 28Q185 10 175 0T146 -11Q128 -11 117 -1Z" />
<glyph unicode="@" glyph-name="at" horiz-adv-x="717" d="M440 79T427 95T414 140Q414 147 416 165L428 228Q393 160 349 119T267 77Q245 77 231 91T217 136Q217 148 218 154Q226 208 259 261T335 349T418 383Q448 383 464 364Q475 375 478 390Q480 392 486 392Q498
392 496 389L455 165Q451 141 451 133Q451 115 459 106T488 97Q517 97 545 117T591 176T609 265Q609 328 577 381T488 466T364 497Q289 497 232 460T145 361T115 227Q115 149 150 90T247 -3T391 -36Q439 -36 474 -27T557 9H558Q560 9 562 6T563 1Q477 -66 360 -66Q280
-66 216 -34T114 59T76 202Q76 292 121 365T240 479T396 520Q468 520 524 490T610 407T641 293Q641 238 617 189T553 109T467 79Q440 79 427 95ZM316 110T348 138T405 210T441 298Q443 308 443 314Q443 334 431 347T396 360Q371 360 342 336T291 270T261 182Q258
164 258 151Q258 110 288 110Q316 110 348 138Z" />
<glyph unicode="A" glyph-name="A" horiz-adv-x="698" d="M698 12T698 6T694 0Q676 0 636 2Q598 4 580 4Q559 4 525 2Q493 0 477 0Q473 0 473 6T477 12Q518 12 536 19T554 45Q554 59 543 84L424 339H233L143 123Q129 89 129 67Q129 38 153 25T228 12Q233 12 233
6T228 0Q210 0 176 2Q138 4 110 4Q85 4 51 2Q21 0 2 0Q-3 0 -3 6T2 12Q30 12 49 22T86 58T124 132L333 635Q335 638 339 638T345 635L577 137Q600 86 618 60T653 23T694 12Q698 12 698 6ZM241 358H416L323 556L241 358Z" />
<glyph unicode="B" glyph-name="B" horiz-adv-x="549" d="M403 348T451 301T499 185Q499 131 474 88T405 21T308 -4Q274 -4 236 -1Q222 0 203 1T160 2L94 1Q76 0 44 0Q42 0 42 6T44 12Q84 12 102 17T128 36T135 81V544Q135 574 129 588T104 607T46 613Q43 613
43 619T46 625L94 624Q134 622 160 622Q178 622 194 623T222 625Q253 628 277 628Q360 628 399 591T439 495Q439 446 408 410T325 353Q403 348 451 301ZM226 615T213 611T194 592T187 542V352L234 351Q313 351 349 388T385 488Q385 544 354 579T254 615Q226 615
213 611ZM368 12T404 50T441 160Q441 236 395 283T269 332Q232 333 187 330V81Q187 54 195 40T227 19T294 12Q368 12 404 50Z" />
<glyph unicode="C" glyph-name="C" horiz-adv-x="669" d="M462 636T511 626T591 599Q599 594 601 590T605 575L616 470Q616 467 611 467T605 469Q569 615 374 615Q296 615 237 582T144 487T111 346Q111 252 152 173T261 47T408 0Q482 0 535 39T614 158Q614 161
618 161Q621 161 623 160T626 157L612 50Q610 38 608 35T596 27Q507 -12 405 -12Q285 -12 205 36T87 160T49 319Q49 410 100 482T235 595T413 636Q462 636 511 626Z" />
<glyph unicode="D" glyph-name="D" horiz-adv-x="688" d="M268 -4T232 -1Q218 0 198 1T152 2L86 1Q68 0 36 0Q34 0 34 6T36 12Q75 12 93 17T119 36T126 81V544Q126 574 120 588T95 607T37 613Q35 613 35 619T37 625L86 624Q128 622 152 622Q187 622 223 625Q267
627 283 627Q388 627 469 587T594 478T639 323Q639 226 593 152T468 37T297 -4Q268 -4 232 -1ZM371 9T436 43T537 143T574 301Q574 389 540 460T441 572T292 614Q248 614 225 609T190 589T179 542V92Q179 62 188 44T220 18T287 9Q371 9 436 43Z" />
<glyph unicode="E" glyph-name="E" horiz-adv-x="533" d="M470 149T476 149T482 145Q473 82 473 15Q473 7 470 4T457 0H44Q42 0 42 6T44 12Q83 12 101 17T126 36T133 81V544Q133 574 127 588T102 607T44 613Q42 613 42 619T44 625H440Q449 625 449 616L451 495Q451
492 446 492T440 495Q440 546 413 576T342 606H273Q235 606 217 601T193 582T186 538V335H318Q364 335 382 350T400 404Q400 406 406 406T412 404L411 325Q411 296 412 282L413 235Q413 233 407 233T401 235Q401 280 382 298T315 316H186V85Q186 56 192 43T216
24T273 19H365Q405 19 433 54T470 146Q470 149 476 149Z" />
<glyph unicode="F" glyph-name="F" horiz-adv-x="506" d="M451 495Q451 492 446 492T440 495Q440 546 413 576T342 606H273Q236 606 218 601T193 583T186 543V323H295Q346 323 367 338T388 392Q388 394 394 394T400 392L399 313Q399 284 400 270L401 223Q401 221
395 221T389 223Q389 268 368 286T291 304H186V85Q186 53 195 39T229 18T311 12Q314 12 314 6T311 0Q270 0 247 1L160 2L94 1Q76 0 44 0Q42 0 42 6T44 12Q83 12 101 17T126 36T133 81V544Q133 574 127 588T102 607T44 613Q42 613 42 619T44 625H440Q449 625 449
616L451 495Z" />
<glyph unicode="G" glyph-name="G" horiz-adv-x="713" d="M295 -12T215 30T92 144T49 305Q49 402 98 477T234 594T430 636Q479 636 522 626T595 598Q602 593 603 590T605 582T606 575L618 470Q618 467 613 467T606 469Q587 540 531 577T389 615Q257 615 184 542T111
340Q111 244 152 168T265 48T428 5Q482 5 511 14T554 49T568 126Q568 178 561 198T531 226T451 233Q445 233 445 241Q445 244 446 246T450 249Q527 244 574 244Q619 244 670 247Q672 247 673 245T675 240Q675 233 670 233Q644 234 633 227T619 196T616 116Q616
71 619 52T623 28Q623 22 621 20T612 16Q495 -12 404 -12Q295 -12 215 30Z" />
<glyph unicode="H" glyph-name="H" horiz-adv-x="758" d="M723 12T723 6T720 0Q689 0 672 1L605 2L536 1Q519 0 489 0Q486 0 486 6T489 12Q529 12 547 17T571 36T578 81V316H179V81Q179 50 185 36T210 17T268 12Q270 12 270 6T268 0Q238 0 220 1L152 2L86 1Q68
0 36 0Q34 0 34 6T36 12Q75 12 93 17T119 36T126 81V544Q126 574 120 588T95 607T37 613Q35 613 35 619T37 625L86 624Q128 622 152 622Q179 622 221 624L268 625Q270 625 270 619T268 613Q229 613 211 607T186 587T179 542V335H578V542Q578 572 572 586T547 607T489
613Q486 613 486 619T489 625L536 624Q578 622 605 622Q630 622 672 624L720 625Q723 625 723 619T720 613Q681 613 663 608T637 588T630 544V81Q630 51 637 37T662 17T720 12Q723 12 723 6Z" />
<glyph unicode="I" glyph-name="I" horiz-adv-x="330" d="M192 50T198 36T223 17T281 12Q283 12 283 6T281 0Q251 0 234 1L164 2L97 1Q79 0 48 0Q45 0 45 6T48 12Q87 12 105 17T131 36T138 81V544Q138 574 131 588T106 607T48 613Q45 613 45 619T48 625L97 624Q139
622 164 622Q192 622 234 624L281 625Q283 625 283 619T281 613Q242 613 224 607T199 587T192 542V81Q192 50 198 36Z" />
<glyph unicode="J" glyph-name="J" horiz-adv-x="318" d="M277 625T277 619T275 613Q241 613 225 607T204 587T198 542V-34Q198 -130 155 -187T27 -244Q-6 -244 -24 -234T-43 -206Q-43 -193 -36 -185T-14 -177Q1 -177 9 -183T27 -201Q35 -213 43 -219T65 -225Q104
-225 124 -182T144 -43V544Q144 574 137 588T108 607T42 613Q40 613 40 619T42 625L99 624Q145 622 170 622Q195 622 233 624L275 625Q277 625 277 619Z" />
<glyph unicode="K" glyph-name="K" horiz-adv-x="649" d="M638 12T638 6T635 0H523Q488 0 481 4T445 50T373 145L214 342L179 308V81Q179 50 185 36T210 17T268 12Q270 12 270 6T268 0Q238 0 220 1L152 2L86 1Q68 0 36 0Q34 0 34 6T36 12Q75 12 93 17T119 36T126
81V544Q126 574 120 588T95 607T37 613Q35 613 35 619T37 625L86 624Q128 622 152 622Q179 622 221 624L268 625Q270 625 270 619T268 613Q229 613 211 607T186 587T179 542V331L399 550Q433 584 433 597Q433 606 420 609T375 613Q373 613 373 619T375 625L417
624Q455 622 488 622Q519 622 553 624L588 625Q591 625 591 619T588 613Q547 613 504 598T422 544L252 378L395 198Q471 103 511 64T572 19T635 12Q638 12 638 6Z" />
<glyph unicode="L" glyph-name="L" horiz-adv-x="530" d="M178 85Q178 56 184 43T208 24T264 19H392Q491 19 509 146Q509 149 514 149T520 145Q511 66 511 15Q511 7 508 4T496 0H36Q34 0 34 6T36 12Q75 12 93 17T118 36T125 81V544Q125 574 119 588T94 607T36
613Q34 613 34 619T36 625L85 624Q127 622 151 622Q178 622 220 624L267 625Q269 625 269 619T267 613Q228 613 210 608T185 588T178 543V85Z" />
<glyph unicode="M" glyph-name="M" horiz-adv-x="830" d="M810 12T810 6T807 0Q776 0 758 1L691 2L629 1Q614 0 587 0Q585 0 585 6T587 12Q622 12 638 17T660 37T664 81L647 546L413 7Q411 3 405 3Q400 3 396 7L152 542L151 544L143 104Q142 52 160 32T227 12Q229
12 229 6T227 0Q199 0 184 1L130 2L81 1Q68 0 42 0Q40 0 40 6T42 12Q84 12 101 32T120 104L130 578Q99 613 49 613Q47 613 47 619T49 625L83 624Q93 623 109 623Q125 623 136 624T153 625Q167 625 175 616T199 573L424 87L648 600Q653 611 661 618T678 625Q682
625 691 624T716 623L761 624Q771 625 792 625Q794 625 794 619T792 613Q740 613 719 600T698 546L717 81Q718 50 724 36T749 17T807 12Q810 12 810 6Z" />
<glyph unicode="N" glyph-name="N" horiz-adv-x="725" d="M702 625T702 619T699 613Q656 613 639 592T621 520V-11Q621 -13 616 -14T609 -13L157 543L140 562V104Q140 53 157 33T216 12Q219 12 219 6T216 0Q192 0 179 1L131 2L82 1Q69 0 43 0Q41 0 41 6T43 12Q86
12 102 32T118 104V583Q83 613 46 613Q43 613 43 619T46 625L82 624Q93 623 113 623Q130 623 141 624T158 625Q165 625 169 622T180 607Q191 589 204 573L599 82V520Q599 571 583 592T525 613Q523 613 523 619T525 625L563 624Q593 622 611 622Q628 622 660 624L699
625Q702 625 702 619Z" />
<glyph unicode="O" glyph-name="O" horiz-adv-x="766" d="M273 -12T201 31T89 149T49 312Q49 415 101 488T234 599T401 636Q496 636 568 592T678 474T717 319Q717 228 669 152T541 32T366 -12Q273 -12 201 31ZM473 8T530 41T620 138T653 291Q653 385 617 458T514
573T359 614Q243 614 178 542T113 346Q113 253 149 176T252 53T402 8Q473 8 530 41Z" />
<glyph unicode="P" glyph-name="P" horiz-adv-x="540" d="M186 53T195 39T229 18T311 12Q314 12 314 6T311 0Q270 0 247 1L160 2L94 1Q76 0 44 0Q42 0 42 6T44 12Q83 12 101 17T126 36T133 81V544Q133 574 127 588T102 607T44 613Q42 613 42 619T44 625L93 624Q135
622 159 622Q183 622 214 625Q292 628 299 628Q387 628 442 588T497 464Q497 397 464 352T381 284T276 262Q246 262 227 267Q224 267 224 272Q224 275 225 278T229 280Q245 276 265 276Q336 276 385 319T435 444Q435 497 414 535T357 594T276 615Q235 615 218 611T194
593T186 542V85Q186 53 195 39Z" />
<glyph unicode="Q" glyph-name="Q" horiz-adv-x="766" d="M746 -156Q748 -156 749 -160T749 -166Q696 -178 663 -178Q595 -178 520 -134T391 -11Q383 -12 366 -12Q273 -12 201 31T89 149T49 312Q49 415 101 488T234 599T401 636Q496 636 568 592T678 474T717 319Q717
244 684 178T592 66T460 0Q503 -70 574 -114T709 -159Q732 -159 745 -156H746ZM113 253T149 176T252 53T402 8Q473 8 530 41T620 138T653 291Q653 385 617 458T514 573T359 614Q243 614 178 542T113 346Q113 253 149 176Z" />
<glyph unicode="R" glyph-name="R" horiz-adv-x="667" d="M679 12T679 6T676 0H560Q534 0 463 86T291 326Q261 318 230 318Q213 318 187 320V81Q187 50 193 36T218 17T276 12Q279 12 279 6T276 0Q246 0 228 1L160 2L94 1Q76 0 44 0Q42 0 42 6T44 12Q84 12 102
17T128 36T135 81V544Q135 574 129 588T104 607T46 613Q43 613 43 619T46 625L94 624Q134 622 160 622Q178 622 194 623T222 625Q253 628 277 628Q356 628 398 595T440 503Q440 455 412 413T338 345Q425 217 483 146T586 44T676 12Q679 12 679 6ZM225 340T247 340Q320
340 352 370T384 469Q384 545 349 580T254 615Q226 615 213 611T194 592T187 542V344Q225 340 247 340Z" />
<glyph unicode="S" glyph-name="S" horiz-adv-x="485" d="M138 464T157 435T203 387T280 338Q332 307 360 287T409 234T430 157Q430 110 407 72T339 11T227 -12Q192 -12 161 -5T91 22Q86 25 85 29T82 41L67 171V172Q67 176 72 176T78 173Q88 104 131 53T249 2Q302
2 338 31T375 122Q375 167 355 199T307 253T229 304Q181 332 154 353T107 405T87 481Q87 531 112 566T179 618T267 636Q322 636 381 612Q396 606 396 595L405 489Q405 485 400 485T393 489Q389 541 354 582T254 623Q194 623 166 588T138 504Q138 464 157 435Z"
/>
<glyph unicode="T" glyph-name="T" horiz-adv-x="632" d="M117 608T88 578T49 471Q49 469 43 469T37 471Q41 498 46 557T51 647Q51 652 57 652T63 647Q63 625 116 625Q202 622 317 622Q376 622 442 624L510 625Q546 625 563 630T585 650Q586 654 591 654T596 650Q593
622 590 565T587 471Q587 469 581 469T575 471Q575 524 564 553T527 595T454 608Q402 608 381 605T353 588T345 542V81Q345 50 352 36T380 17T446 12Q448 12 448 6T446 0Q413 0 394 1L317 2L244 1Q224 0 189 0Q187 0 187 6T189 12Q234 12 255 17T283 36T291 81V544Q291
577 283 589T255 605T180 608Q117 608 88 578Z" />
<glyph unicode="U" glyph-name="U" horiz-adv-x="697" d="M572 568T552 590T487 613Q484 613 484 619T487 625L529 624Q563 622 584 622Q602 622 632 624L673 625Q675 625 675 619T673 613Q632 613 613 591T594 520V234Q594 117 531 52T361 -13Q287 -13 232 16T147
100T117 225V544Q117 574 111 588T86 607T28 613Q26 613 26 619T28 625L76 624Q118 622 143 622Q170 622 212 624L258 625Q261 625 261 619T258 613Q219 613 201 607T177 587T170 542V260Q170 143 225 80T379 16Q470 16 521 73T572 233V520Q572 568 552 590Z" />
<glyph unicode="V" glyph-name="V" horiz-adv-x="667" d="M673 625T673 619T670 613Q636 613 614 599T574 544L354 1Q353 -3 343 -3Q335 -3 332 1L85 542Q68 581 49 597T-2 613Q-5 613 -5 619T-2 625L41 624Q69 622 83 622Q112 622 152 624L195 625Q198 625 198
619T195 613Q164 613 149 606T133 582Q133 570 142 552L360 71L553 550Q560 567 560 579Q560 597 542 605T481 613Q478 613 478 619T481 625L521 624Q555 622 581 622Q602 622 628 624L670 625Q673 625 673 619Z" />
<glyph unicode="W" glyph-name="W" horiz-adv-x="936" d="M942 625T942 619T939 613Q905 613 883 599T843 544L623 1Q622 -3 612 -3Q604 -3 601 1L470 288L354 1Q353 -3 343 -3Q335 -3 332 1L85 542Q68 581 49 597T-2 613Q-5 613 -5 619T-2 625L41 624Q69 622
83 622Q112 622 152 624L195 625Q198 625 198 619T195 613Q164 613 148 606T132 581Q132 571 140 552L361 75L458 314L354 542Q337 581 318 597T267 613Q264 613 264 619T267 625L310 624Q338 622 352 622Q373 622 401 624L429 625Q432 625 432 619T429 613Q409
613 401 610T393 598Q393 589 409 552L489 380L558 550Q567 571 567 585Q567 600 556 606T519 613Q517 613 517 619T519 625L547 624Q567 622 585 622Q605 622 631 624L674 625Q676 625 676 619T674 613Q640 613 617 599T578 544L501 354L630 75L823 550Q830 565
830 579Q830 597 812 605T750 613Q747 613 747 619T750 625L790 624Q824 622 850 622Q871 622 897 624L939 625Q942 625 942 619Z" />
<glyph unicode="X" glyph-name="X" horiz-adv-x="653" d="M635 12T635 6T633 0Q607 0 592 1L539 2L464 1Q446 0 415 0Q413 0 413 6T415 12Q445 12 458 16T471 30Q471 38 462 51L307 286L168 92Q148 63 148 45Q148 12 209 12Q212 12 212 6T209 0Q179 0 164 1L97
2L56 1Q45 0 20 0Q17 0 17 6T20 12Q54 12 86 32T147 92L298 299L137 542Q111 581 85 597T23 613Q21 613 21 619T23 625Q35 625 61 623L97 622Q129 622 177 624L229 625Q232 625 232 619T229 613Q199 613 186 609T173 594Q173 587 182 573L334 345L461 524Q485 559
485 579Q485 613 427 613Q424 613 424 619T427 625L472 624Q510 622 539 622Q556 622 580 624L616 625Q619 625 619 619T616 613Q548 613 482 523L342 332L508 83Q534 43 561 28T633 12Q635 12 635 6Z" />
<glyph unicode="Y" glyph-name="Y" horiz-adv-x="607" d="M613 625T613 619T611 613Q574 613 539 590T476 523L335 309V81Q335 50 341 36T365 17T423 12Q426 12 426 6T423 0Q393 0 376 1L308 2L240 1Q222 0 192 0Q189 0 189 6T192 12Q231 12 249 17T275 36T282
81V294L111 542Q85 581 60 597T-2 613Q-5 613 -5 619T-2 625L35 624Q59 622 71 622Q104 622 152 624L204 625Q206 625 206 619T204 613Q174 613 161 609T147 594Q147 588 157 573L325 332L453 526Q475 562 475 581Q475 613 421 613Q419 613 419 619T421 625L466
624Q504 622 533 622Q550 622 574 624L611 625Q613 625 613 619Z" />
<glyph unicode="Z" glyph-name="Z" horiz-adv-x="593" d="M460 600Q463 605 463 606T455 608Q259 608 193 603T105 579T63 502Q63 500 59 500Q56 500 53 501T51 504L91 655Q91 656 95 656Q105 656 103 653Q102 650 102 645Q102 633 113 629T160 625H525Q530 625
532 620T532 612L131 27L128 21Q128 19 136 19H404Q474 19 507 44T550 130Q551 132 556 132T561 130L547 8Q547 5 545 2T538 -2Q389 0 60 0Q55 0 53 4T54 13L460 600Z" />
<glyph unicode="[" glyph-name="bracketleft" horiz-adv-x="274" d="M94 715Q94 722 95 723T103 725H236Q239 725 239 719T236 713Q195 713 176 707T149 687T142 642V-34Q142 -64 149 -78T175 -99T236 -105Q239 -105 239 -111T236 -117H103Q97 -117 96 -115T94 -106V715Z" />
<glyph unicode="\" glyph-name="backslash" horiz-adv-x="339" d="M26 718Q24 723 41 729T61 730L313 -152Q315 -156 297 -161T277 -163L26 718Z" />
<glyph unicode="]" glyph-name="bracketright" horiz-adv-x="274" d="M180 -113T179 -115T171 -117H38Q35 -117 35 -111T38 -105Q79 -105 98 -99T125 -79T132 -34V642Q132 672 125 686T99 707T38 713Q35 713 35 719T38 725H171Q177 725 178 724T180 715V-106Q180
-113 179 -115Z" />
<glyph unicode="^" glyph-name="asciicircum" horiz-adv-x="392" d="M333 218Q333 215 330 214T324 214L196 395L68 214Q67 213 65 213Q62 213 60 215T58 219L185 468Q186 473 196 473Q206 473 207 468L333 219V218Z" />
<glyph unicode="_" glyph-name="underscore" horiz-adv-x="398" d="M32 -75T31 -69T29 -55Q29 -48 30 -43T33 -37H364Q366 -37 367 -43T369 -56Q369 -63 368 -69T364 -75H34Q32 -75 31 -69Z" />
<glyph unicode="`" glyph-name="grave" horiz-adv-x="274" d="M133 490T23 517Q16 518 28 525T57 539T78 543Q118 520 162 495T250 450Q252 449 252 446Q252 443 250 441T246 440Q133 490 23 517Z" />
<glyph unicode="a" glyph-name="a" horiz-adv-x="560" d="M560 12T560 6T556 0Q538 0 498 2Q460 4 442 4Q428 4 402 2Q378 0 365 0Q361 0 361 6T365 12Q392 12 405 19T419 43Q419 59 407 84L338 234H191L147 123Q131 81 131 61Q131 35 149 24T205 12Q210 12 210
6T205 0Q190 0 164 2Q136 4 112 4Q87 4 53 2Q23 0 5 0Q1 0 1 6T5 12Q36 12 54 20T87 54T124 132L267 483Q269 487 273 487T278 483L439 137Q465 81 480 56T512 22T556 12Q560 12 560 6ZM198 250H330L259 404L198 250Z" />
<glyph unicode="b" glyph-name="b" horiz-adv-x="491" d="M377 254T415 225T454 142Q454 77 403 37T270 -4Q245 -4 210 -1Q197 0 179 1T138 2L81 1Q64 0 36 0Q34 0 34 6T36 12Q71 12 87 17T109 36T115 81V387Q115 417 109 431T87 450T37 456Q35 456 35 462T37
468L81 467Q117 465 138 465Q163 465 190 468Q200 469 214 470T249 471Q320 471 360 445T400 371Q400 333 375 304T307 260Q377 254 415 225ZM199 458T187 453T170 432T165 385V259Q174 258 191 258Q247 258 278 263T328 289T346 352Q346 407 315 432T223 458Q199
458 187 453ZM398 12T398 119Q398 176 355 209T222 242Q184 242 165 240V81Q165 43 183 28T253 12Q398 12 398 119Z" />
<glyph unicode="c" glyph-name="c" horiz-adv-x="540" d="M350 480T393 473T464 451Q471 448 473 445T476 434L487 331Q487 328 482 327T475 330Q461 400 413 433T289 467Q235 467 191 439T122 362T97 251Q97 188 122 131T197 37T317 0Q380 0 424 34T484 140Q484
143 489 143Q491 143 493 142T496 139L482 33Q481 25 479 22T468 15Q391 -12 308 -12Q214 -12 153 26T65 121T37 236Q37 304 73 360T172 448T312 480Q350 480 393 473Z" />
<glyph unicode="d" glyph-name="d" horiz-adv-x="568" d="M245 -4T210 -1Q198 0 180 1T139 2L80 1Q64 0 36 0Q34 0 34 6T36 12Q71 12 87 17T109 36T115 81V387Q115 417 109 431T87 450T37 456Q35 456 35 462T37 468L81 467Q117 465 139 465Q170 465 201 468Q241
470 261 470Q345 470 406 440T499 357T531 237Q531 168 498 113T407 27T273 -4Q245 -4 210 -1ZM359 8T414 64T470 226Q470 327 416 392T253 458Q204 458 185 442T165 385V92Q165 46 184 27T261 8Q359 8 414 64Z" />
<glyph unicode="e" glyph-name="e" horiz-adv-x="464" d="M411 136T416 136T422 133Q415 61 415 15Q415 7 412 4T400 0H36Q34 0 34 6T36 12Q70 12 86 17T107 36T113 81V387Q113 417 108 431T86 450T36 456Q34 456 34 462T36 468H382Q392 468 392 460L393 398Q394
379 394 350Q394 347 388 347T382 350Q382 397 355 426T284 455H250Q212 455 195 450T171 430T164 386V249Q266 250 302 254T342 258Q347 258 347 237Q347 215 342 215Q338 215 302 221T164 228V85Q164 56 170 42T195 22T250 16H308Q347 16 375 48T411 133Q411
136 416 136Z" />
<glyph unicode="f" glyph-name="f" horiz-adv-x="429" d="M393 398Q394 379 394 350Q394 347 388 347T382 350Q382 397 355 426T284 455H250Q212 455 195 450T171 430T164 386V237Q266 238 302 242T342 247Q347 247 347 226Q347 204 342 204Q338 204 302 209T164
216V85Q164 53 171 39T199 18T265 12Q268 12 268 6T265 0Q230 0 211 1L138 2Q104 2 87 1L36 0Q34 0 34 6T36 12Q70 12 86 17T107 36T113 81V387Q113 417 108 431T86 450T36 456Q34 456 34 462T36 468H382Q392 468 392 460L393 398Z" />
<glyph unicode="g" glyph-name="g" horiz-adv-x="558" d="M218 -12T159 21T68 110T37 226Q37 304 72 361T173 449T325 480Q367 480 404 472T467 449Q472 446 474 441T477 427L488 333Q488 330 483 330T476 332Q457 404 414 435T301 467Q209 467 153 406T97 239Q97
169 124 115T203 31T322 1Q376 1 400 10T433 45T442 126Q442 152 436 162T412 176T346 180Q340 180 340 188Q340 191 341 193T345 196Q397 192 450 192Q474 192 530 194Q532 194 533 192T535 187Q535 180 530 180Q509 181 501 177T491 161T488 116Q488 71 490 53T492
28Q492 22 491 21T481 16Q417 -12 298 -12Q218 -12 159 21Z" />
<glyph unicode="h" glyph-name="h" horiz-adv-x="620" d="M586 12T586 6T584 0Q556 0 540 1L481 2L420 1Q405 0 378 0Q375 0 375 6T378 12Q412 12 428 17T449 36T455 81V228H165V81Q165 50 170 36T191 17T242 12Q245 12 245 6T242 0Q215 0 200 1L139 2L80 1Q64
0 36 0Q34 0 34 6T36 12Q71 12 87 17T109 36T115 81V387Q115 417 109 431T87 450T37 456Q35 456 35 462T37 468L81 467Q117 465 139 465Q164 465 200 467L242 468Q245 468 245 462T242 456Q209 456 193 450T171 430T165 385V244H455V385Q455 415 450 429T428 450T378
456Q375 456 375 462T378 468L420 467Q458 465 481 465Q502 465 540 467L584 468Q586 468 586 462T584 456Q549 456 533 451T511 431T505 387V81Q505 51 511 37T533 17T584 12Q586 12 586 6Z" />
<glyph unicode="i" glyph-name="i" horiz-adv-x="291" d="M172 50T177 36T198 17T249 12Q252 12 252 6T249 0Q222 0 207 1L145 2L86 1Q70 0 42 0Q40 0 40 6T42 12Q77 12 93 17T114 36T120 81V387Q120 417 115 431T93 450T42 456Q40 456 40 462T42 468L86 467Q124
465 145 465Q170 465 208 467L249 468Q252 468 252 462T249 456Q216 456 200 450T178 430T172 385V81Q172 50 177 36Z" />
<glyph unicode="j" glyph-name="j" horiz-adv-x="267" d="M115 387Q115 417 109 431T87 450T36 456Q34 456 34 462T36 468L80 467Q118 465 139 465Q164 465 202 467L243 468Q246 468 246 462T243 456Q210 456 194 450T172 430T166 385V69Q166 -6 154 -52T114 -127T35
-181Q33 -182 31 -177T30 -171Q71 -150 93 -100T115 22V387Z" />
<glyph unicode="k" glyph-name="k" horiz-adv-x="537" d="M529 12T529 6T526 0H428Q395 0 390 3T361 46T290 145L210 246L165 203V81Q165 50 170 36T191 17T242 12Q245 12 245 6T242 0Q215 0 200 1L139 2L80 1Q64 0 36 0Q34 0 34 6T36 12Q71 12 87 17T109 36T115
81V387Q115 417 109 431T87 450T37 456Q35 456 35 462T37 468L81 467Q117 465 139 465Q164 465 200 467L242 468Q245 468 245 462T242 456Q209 456 193 450T171 430T165 385V224L333 393Q373 431 373 443Q373 450 362 453T322 456Q319 456 319 462T322 468L358
467Q388 465 422 465Q459 465 491 467Q499 468 511 468Q514 468 514 462T511 456Q478 456 435 440T354 387L245 280L310 198Q388 98 416 66T466 23T526 12Q529 12 529 6Z" />
<glyph unicode="l" glyph-name="l" horiz-adv-x="462" d="M165 85Q165 56 170 42T192 21T240 15H320Q418 15 435 135Q435 137 439 137Q442 137 444 136T447 133Q440 90 440 15Q440 7 437 4T425 0H36Q34 0 34 6T36 12Q70 12 86 17T107 36T113 81V387Q113 417 108
431T86 450T36 456Q34 456 34 462T36 468L80 467Q116 465 138 465Q163 465 199 467L241 468Q243 468 243 462T241 456Q207 456 192 451T171 431T165 386V85Z" />
<glyph unicode="m" glyph-name="m" horiz-adv-x="689" d="M662 12T662 6T660 0Q632 0 616 1L557 2L489 1Q472 0 442 0Q440 0 440 6T442 12Q482 12 500 17T525 36T531 81L520 425L344 7Q342 3 337 3Q331 3 329 7L139 385L134 394L124 104Q123 53 137 33T187 12Q190
12 190 6T187 0Q166 0 155 1L113 2L73 1Q60 0 37 0Q35 0 35 6T37 12Q73 12 87 32T104 104L115 423Q87 456 47 456Q44 456 44 462T47 468L95 467L139 468Q152 468 160 459T185 416L354 78L508 443Q512 454 520 461T538 468L588 467L653 468Q655 468 655 462T653
456Q607 456 588 443T571 389L581 81Q583 50 588 36T609 17T660 12Q662 12 662 6Z" />
<glyph unicode="n" glyph-name="n" horiz-adv-x="571" d="M539 468T539 462T537 456Q500 456 485 436T470 364V-11Q470 -13 465 -14T458 -13L136 386L119 406V104Q119 53 133 33T184 12Q186 12 186 6T184 0Q162 0 151 1L110 2L68 1Q56 0 34 0Q31 0 31 6T34 12Q71
12 85 32T99 104V426Q66 456 36 456Q34 456 34 462T36 468L92 467L135 468Q143 468 146 465T157 449Q168 431 180 416L450 77V364Q450 415 436 435T386 456Q383 456 383 462T386 468L419 467Q443 465 460 465Q476 465 502 467L537 468Q539 468 539 462Z" />
<glyph unicode="o" glyph-name="o" horiz-adv-x="579" d="M205 -12T151 21T67 109T37 230Q37 308 78 365T181 451T309 480Q379 480 432 446T513 357T542 242Q542 174 506 116T409 23T275 -12Q205 -12 151 21ZM385 8T434 63T484 216Q484 283 460 338T389 427T276
460Q190 460 143 405T95 254Q95 186 119 130T191 41T302 8Q385 8 434 63Z" />
<glyph unicode="p" glyph-name="p" horiz-adv-x="460" d="M164 53T171 39T199 18T265 12Q268 12 268 6T265 0Q230 0 211 1L139 2L80 1Q64 0 36 0Q34 0 34 6T36 12Q70 12 86 17T107 36T113 81V387Q113 417 108 431T86 450T36 456Q34 456 34 462T36 468L80 467Q116
465 138 465Q155 465 170 466T198 468Q228 471 254 471Q416 471 416 347Q416 300 392 268T330 220T254 204Q225 204 205 208Q202 208 202 213Q202 216 203 219T207 221Q225 218 243 218Q291 218 324 246T358 327Q358 390 323 424T230 458Q202 458 189 454T170 435T164
385V85Q164 53 171 39Z" />
<glyph unicode="q" glyph-name="q" horiz-adv-x="579" d="M605 -156T606 -161T606 -167Q553 -179 520 -179Q463 -179 400 -135T294 -11Q287 -12 275 -12Q205 -12 151 21T67 109T37 230Q37 308 78 365T181 451T309 480Q379 480 432 446T513 357T542 242Q542 161
492 95T361 2Q398 -69 455 -114T566 -160Q589 -160 602 -157Q605 -156 606 -161ZM95 186T119 130T191 41T302 8Q385 8 434 63T484 216Q484 283 460 338T389 427T276 460Q190 460 143 405T95 254Q95 186 119 130Z" />
<glyph unicode="r" glyph-name="r" horiz-adv-x="530" d="M539 12T539 6T537 0H432Q414 0 366 60T251 226Q225 222 209 222Q195 222 165 224V81Q165 50 170 36T191 17T242 12Q245 12 245 6T242 0Q215 0 200 1L139 2L81 1Q65 0 36 0Q34 0 34 6T36 12Q71 12 87 17T109
36T115 81V387Q115 417 109 431T87 450T37 456Q35 456 35 462T37 468L82 467Q118 465 139 465Q158 465 173 466T198 468Q229 471 256 471Q317 471 349 446T382 374Q382 333 360 299T299 244Q356 152 394 103T466 33T537 12Q539 12 539 6ZM184 239T216 239Q279 239
304 266T329 347Q329 458 229 458Q189 458 177 441T165 385V243Q184 239 216 239Z" />
<glyph unicode="s" glyph-name="s" horiz-adv-x="385" d="M111 354T126 332T165 294T227 258Q267 238 291 221T332 180T349 120Q349 64 305 26T184 -12Q121 -12 71 22Q66 25 65 29T62 41L50 136Q49 140 55 141T62 138Q73 80 114 41T206 2Q242 2 269 23T296 89Q296
122 280 146T241 186T180 223Q140 245 117 261T78 302T62 360Q62 417 104 448T207 480Q252 480 301 457Q310 452 312 450T316 441L324 356Q324 352 319 351T312 354Q305 398 270 432T189 467Q152 467 132 444T111 385Q111 354 126 332Z" />
<glyph unicode="t" glyph-name="t" horiz-adv-x="495" d="M105 457T84 448T52 414T36 340Q36 338 31 338T25 340Q28 362 31 412T35 490Q35 495 41 495T47 490Q47 477 62 474T99 470Q187 468 250 468L337 469Q355 470 384 470Q420 470 436 474T458 494Q460 497
465 497T470 494Q464 386 464 340Q464 338 459 338T453 340Q453 390 446 414T418 447T354 457Q321 457 304 451T281 431T274 387V81Q274 50 280 36T304 17T363 12Q365 12 365 6T363 0Q332 0 315 1L247 2L182 1Q164 0 132 0Q130 0 130 6T132 12Q171 12 189 17T215
36T222 81V389Q222 419 217 433T197 452T147 457Q105 457 84 448Z" />
<glyph unicode="u" glyph-name="u" horiz-adv-x="580" d="M476 408T470 425T447 449T400 456Q397 456 397 462T400 468L438 467Q468 465 485 465Q499 465 527 467L563 468Q565 468 565 462T563 456Q535 456 521 449T502 425T496 375V184Q496 91 444 39T303 -13Q247
-13 202 9T130 74T103 174V387Q103 417 97 431T76 450T26 456Q23 456 23 462T26 468L70 467Q106 465 126 465Q151 465 187 467L229 468Q232 468 232 462T229 456Q196 456 180 450T158 430T152 385V200Q152 106 201 61T325 16Q396 16 436 58T476 182V375Q476 408
470 425Z" />
<glyph unicode="v" glyph-name="v" horiz-adv-x="511" d="M517 468T517 462T515 456Q485 456 466 442T430 387L277 1Q276 -3 266 -3Q256 -3 255 1L74 385Q54 427 39 441T-2 456Q-5 456 -5 462T-2 468L35 467Q59 465 71 465Q95 465 131 467L170 468Q172 468 172
462T170 456Q118 456 118 425Q118 411 126 395L285 66L411 393Q417 410 417 422Q417 440 401 448T349 456Q346 456 346 462T349 468L386 467Q414 465 437 465Q454 465 478 467L515 468Q517 468 517 462Z" />
<glyph unicode="w" glyph-name="w" horiz-adv-x="715" d="M721 468T721 462T718 456Q689 456 670 442T634 387L481 1Q480 -3 470 -3Q461 -3 458 1L360 210L277 1Q276 -3 266 -3Q256 -3 255 1L74 385Q54 427 39 441T-2 456Q-5 456 -5 462T-2 468L35 467Q59 465
71 465Q89 465 115 467L144 468Q146 468 146 462T144 456Q132 456 124 449T115 428Q115 416 124 395L286 61L350 231L277 385Q256 429 244 442T207 456Q205 456 205 462T207 468L240 467Q264 465 275 465Q291 465 313 467L336 468Q338 468 338 462T336 456Q320
456 315 454T309 445Q309 434 327 395L378 290L416 393Q428 423 428 437Q428 447 422 451T401 456Q399 456 399 462T401 468Q410 468 421 467T443 465Q460 465 484 467L520 468Q523 468 523 462T520 456Q491 456 472 442T436 387L389 267L489 61L614 393Q621 410
621 424Q621 456 575 456Q573 456 573 462T575 468L603 467Q623 465 641 465Q658 465 682 467L718 468Q721 468 721 462Z" />
<glyph unicode="x" glyph-name="x" horiz-adv-x="494" d="M482 12T482 6T480 0L448 1Q438 2 418 2L355 1Q341 0 317 0Q314 0 314 6T317 12Q337 12 345 14T354 23Q354 31 340 51L234 210L142 75Q122 47 122 34Q122 12 182 12Q185 12 185 6T182 0Q155 0 142 1L82
2L47 1Q37 0 16 0Q14 0 14 6T16 12Q41 12 70 29T124 81L225 223L117 385Q92 423 65 439T15 456Q13 456 13 462T15 468L46 467Q68 465 77 465Q103 465 139 467L178 468Q180 468 180 462T178 456Q157 456 149 454T141 444Q141 435 154 416L256 265L343 393Q363 423
363 435Q363 446 349 451T302 456Q299 456 299 462T302 468L342 467Q376 465 402 465Q417 465 437 467L468 468Q470 468 470 462T468 456Q442 456 414 439T360 387L264 253L378 83Q403 45 430 29T480 12Q482 12 482 6Z" />
<glyph unicode="y" glyph-name="y" horiz-adv-x="481" d="M480 468T480 462T477 456Q444 456 412 433T354 366L271 229V81Q271 50 277 36T302 17T360 12Q363 12 363 6T360 0Q330 0 313 1L246 2L181 1Q163 0 131 0Q128 0 128 6T131 12Q170 12 188 17T214 36T221
81V214L109 385Q83 425 61 440T7 456Q5 456 5 462T7 468L38 467Q60 465 69 465Q98 465 142 467L187 468Q190 468 190 462T187 456Q165 456 154 451T142 434Q142 427 150 414L263 242L336 367Q353 395 353 419Q353 436 343 446T313 456Q311 456 311 462T313 468L353
467Q385 465 412 465Q427 465 447 467L477 468Q480 468 480 462Z" />
<glyph unicode="z" glyph-name="z" horiz-adv-x="453" d="M330 446L333 452Q333 454 325 454Q193 454 150 450T92 429T57 357Q57 355 53 355Q50 355 48 356T46 359L81 498Q81 500 85 500Q88 500 90 499T92 496Q90 479 100 474T150 468H388Q393 468 395 464T395
455L108 25Q104 20 105 18T112 16H264Q318 16 344 23T384 52T407 118Q408 121 413 121T419 118L408 8Q408 5 406 2T399 -2L46 0Q41 0 39 4T40 13L330 446Z" />
<glyph unicode="{" glyph-name="braceleft" horiz-adv-x="289" d="M29 298T29 304T32 311Q83 317 100 376T117 529Q117 615 128 655T166 710T250 725Q254 725 254 719T250 713Q212 713 191 686T168 607Q166 484 160 435T134 357T61 305Q112 281 133 252T160 173T168
1Q170 -50 191 -77T250 -105Q254 -105 254 -111T250 -117Q192 -117 165 -103T127 -47T117 80Q117 175 100 233T32 298Q29 298 29 304Z" />
<glyph unicode="|" glyph-name="bar" horiz-adv-x="168" d="M67 626Q67 633 86 633Q104 633 104 626V-143Q104 -150 86 -150Q67 -150 67 -143V626Z" />
<glyph unicode="}" glyph-name="braceright" horiz-adv-x="283" d="M200 292T183 234T166 80Q166 -6 156 -47T119 -102T33 -117Q29 -117 29 -111T33 -105Q71 -105 92 -78T115 1Q117 123 123 172T150 251T222 305Q170 328 150 356T123 434T115 607Q113 658 92 685T33
713Q29 713 29 719T33 725Q90 725 117 711T155 656T166 529Q166 435 183 376T251 311Q254 311 254 305T251 298Q200 292 183 234Z" />
<glyph unicode="~" glyph-name="asciitilde" horiz-adv-x="443" d="M342 236T357 246T389 275H390Q393 275 395 273T396 268Q362 227 340 213T292 199Q273 199 256 203T213 217Q187 226 169 230T130 235Q106 235 94 228T70 211T55 196H54Q52 196 50 199T48 204Q106
273 159 273Q182 273 227 256Q253 246 273 241T313 236Q342 236 357 246Z" />
<glyph unicode="&#xa0;" glyph-name="uni00A0" horiz-adv-x="234" />
<glyph unicode="&#xa1;" glyph-name="exclamdown" horiz-adv-x="243" d="M143 365T154 355T165 326Q165 309 154 299T125 289Q106 289 96 299T86 326Q86 344 96 354T125 365Q143 365 154 355ZM161 -270T149 -272T121 -275Q106 -275 94 -273T82 -267Q97 -180 104
-81T118 165Q118 167 123 167T128 165Q133 21 139 -79T161 -267Q161 -270 149 -272Z" />
<glyph unicode="&#xa2;" glyph-name="cent" horiz-adv-x="540" d="M484 143T489 143Q491 143 493 142T496 139L482 33Q481 25 479 22T468 15Q391 -12 308 -12H297V-102Q297 -109 287 -109Q277 -109 277 -102V-11Q194 -4 140 34T62 127T37 236Q37 299 68 351T154
437T277 478V561Q277 565 280 567T287 569Q291 569 294 567T297 561V480H312Q350 480 393 473T464 451Q471 448 473 445T476 434L487 331Q487 328 482 327T475 330Q462 398 416 431T297 467V1Q304 0 317 0Q380 0 424 34T484 140Q484 143 489 143ZM97 195T117 142T179
52T277 3V467Q226 464 185 435T121 358T97 251Q97 195 117 142Z" />
<glyph unicode="&#xa3;" glyph-name="sterling" horiz-adv-x="432" d="M368 125T374 125T380 122Q371 72 371 15Q371 7 368 4T356 0H36Q34 0 34 5T36 12Q81 24 99 40Q113 52 118 67T124 106Q124 139 119 165T105 220H55Q52 220 50 223T48 230Q48 234 50 237T55
240H98Q90 267 86 288T81 333Q81 406 128 443T246 480Q293 480 336 463Q351 459 352 444L359 344Q359 340 354 340Q348 340 347 344Q344 391 315 429T235 467Q182 467 157 437T132 364Q132 338 137 315T148 270T156 240H274Q281 240 281 230Q281 220 274 220H162Q172
182 172 147Q172 108 158 84T119 40H251Q295 40 316 46T349 69T368 123Q368 125 374 125Z" />
<glyph unicode="&#xa4;" glyph-name="currency" horiz-adv-x="414" d="M335 37L287 91Q246 65 196 65Q152 65 121 87L77 37L56 58L100 104Q81 123 71 149T61 202Q61 257 101 294L51 344L77 367L127 313Q167 335 211 335Q254 335 291 311L340 364L360 344L311 294Q349
256 349 201Q349 150 312 111L361 62L335 37ZM252 81T274 107T297 180Q297 236 268 277T188 319Q152 319 131 295T110 223Q110 168 137 125T215 81Q252 81 274 107Z" />
<glyph unicode="&#xa5;" glyph-name="yen" horiz-adv-x="477" d="M468 468T468 462T465 456Q432 456 401 433T343 366L260 230V213H366Q373 213 373 203Q373 193 366 193H101Q94 193 94 203Q94 213 101 213H209V214L97 385Q70 425 49 440T-5 456Q-7 456 -7 462T-5
468L26 467Q48 465 57 465Q86 465 130 467L175 468Q178 468 178 462T175 456Q133 456 133 436Q133 427 140 416L253 245L324 367Q342 397 342 419Q342 436 331 446T302 456Q299 456 299 462T302 468L341 467Q373 465 400 465Q415 465 435 467L465 468Q468 468 468
462ZM373 156T373 146Q373 136 366 136H260V81Q260 50 266 36T290 17T349 12Q351 12 351 6T349 0Q319 0 302 1L234 2L169 1Q151 0 119 0Q117 0 117 6T119 12Q158 12 176 17T202 36T209 81V136H101Q94 136 94 146Q94 156 101 156H366Q373 156 373 146Z" />
<glyph unicode="&#xa6;" glyph-name="brokenbar" horiz-adv-x="168" d="M67 626Q67 633 86 633Q104 633 104 626V308Q104 301 86 301Q67 301 67 308V626ZM67 164Q67 171 86 171Q104 171 104 164V-143Q104 -150 86 -150Q67 -150 67 -143V164Z" />
<glyph unicode="&#xa7;" glyph-name="section" horiz-adv-x="429" d="M351 27T351 -21Q351 -86 308 -119T204 -153Q152 -153 116 -135Q105 -128 104 -118L97 -25Q97 -22 103 -22T109 -25Q112 -48 131 -72T179 -113T241 -130Q272 -130 292 -112T312 -55Q312 -25
298 -2T263 38T203 80Q160 108 134 129T89 183T70 260Q70 299 83 327T135 392Q99 428 99 475Q99 539 142 573T244 607Q297 607 332 588Q343 583 343 572L351 478Q351 476 345 476T339 478Q336 502 317 526T269 567T207 584Q177 584 158 566T138 509Q138 479 152
456T186 416T245 374Q287 346 312 325T356 271T374 194Q374 156 361 128T311 64Q351 27 351 -21ZM111 248T129 217T172 164T241 115Q288 84 302 72Q333 105 333 162Q333 205 316 237T273 290T206 339Q200 343 180 357T144 384Q125 364 118 342T111 291Q111 248
129 217Z" />
<glyph unicode="&#xa8;" glyph-name="dieresis" horiz-adv-x="322" d="M55 481T45 491T34 519Q34 537 44 547T74 557Q92 557 102 547T112 519Q112 501 102 491T74 481Q55 481 45 491ZM231 481T220 491T209 519Q209 537 220 547T249 557Q268 557 278 547T288 519Q288
501 278 491T249 481Q231 481 220 491Z" />
<glyph unicode="&#xa9;" glyph-name="copyright" horiz-adv-x="670" d="M276 -72T209 -39T98 60T53 220Q53 308 97 378T214 487T371 526Q445 526 501 496T587 413T618 299Q618 237 586 184T499 100T377 68Q317 68 277 90T218 148T199 224Q199 275 224 313T288
372T370 393Q404 393 432 380T462 346Q462 336 455 328T437 320Q420 320 403 344Q391 361 379 369T344 378Q255 378 255 248Q255 180 290 137T405 94Q453 94 494 113T560 171T586 271Q586 334 554 387T465 472T341 503Q262 503 206 469T121 375T92 242Q92 150 136
86T244 -10T368 -42Q429 -42 472 -34T569 3Q571 4 573 1T573 -4Q520 -44 466 -58T343 -72Q276 -72 209 -39Z" />
<glyph unicode="&#xaa;" glyph-name="ordfeminine" horiz-adv-x="276" d="M270 407Q274 407 275 404T275 398L207 366Q197 362 189 373T180 409L136 385Q114 373 104 369T81 365Q61 365 49 376T37 404Q37 420 49 429T97 451L180 481V538Q180 584 167 598T130 612Q109
612 96 598T78 561Q76 551 73 546T58 540Q49 540 43 546T37 558Q37 572 58 589T107 618T157 630Q181 630 196 612T211 558V441Q211 418 216 408T234 398Q242 398 269 407H270ZM180 420V471L103 441Q87 435 82 430T76 416Q76 405 84 397T105 389Q117 389 131 395L180
420ZM260 313T261 309T263 301Q263 288 258 288H34Q32 288 31 292T29 301Q29 305 30 309T33 313H258Q260 313 261 309Z" />
<glyph unicode="&#xab;" glyph-name="guillemotleft" horiz-adv-x="451" d="M61 225Q57 229 57 236Q57 243 61 247L235 396Q235 397 237 397Q239 397 241 395T242 391L112 236L242 81Q243 79 240 76T235 75L61 225ZM208 225Q204 229 204 236Q204 243 208 247L382
396Q384 399 387 396T389 391L260 236L389 81V80Q389 77 387 75T382 75L208 225Z" />
<glyph unicode="&#xac;" glyph-name="logicalnot" horiz-adv-x="395" d="M364 112Q364 110 358 109T344 107Q337 107 332 108T326 111V264H34Q32 264 31 270T29 284Q29 291 30 296T33 302H364V112Z" />
<glyph unicode="&#xad;" glyph-name="uni00AD" horiz-adv-x="323" d="M30 167T29 174T27 190Q27 207 30 207L291 254Q293 255 294 249T296 235Q296 228 295 222T291 215L32 168Q30 167 29 174Z" />
<glyph unicode="&#xae;" glyph-name="registered" horiz-adv-x="705" d="M455 519T519 482T618 382T653 245Q653 159 611 87T499 -26T345 -68Q273 -68 206 -34T96 67T53 224Q53 307 97 374T215 480T371 519Q455 519 519 482ZM445 -39T501 -8T589 81T621 217Q621
294 585 358T484 459T341 496Q263 496 207 462T121 371T92 247Q92 157 134 92T240 -6T370 -39Q445 -39 501 -8ZM544 74T544 70T542 65H468Q458 65 433 106T365 229Q338 223 306 224V121Q306 101 309 92T324 80T359 77Q361 77 361 71T359 65Q341 65 330 66L287 67L245
66Q234 65 216 65Q214 65 214 71T216 77Q241 77 252 80T267 92T271 121V337Q271 356 267 365T252 377T216 381Q214 381 214 387T216 393L287 392Q299 392 331 394L369 395Q458 395 458 330Q458 270 403 241Q442 166 460 136T497 90T542 74Q544 74 544 70ZM336 239T346
239Q420 239 420 306Q420 382 352 382Q332 382 323 380T310 367T306 334V243Q336 239 346 239Z" />
<glyph unicode="&#xaf;" glyph-name="overscore" horiz-adv-x="345" d="M45 485T44 489T42 498Q42 511 47 511H298Q303 511 303 498Q303 485 298 485H47Q45 485 44 489Z" />
<glyph unicode="&#xb0;" glyph-name="degree" horiz-adv-x="332" d="M106 373T68 410T29 503Q29 556 67 593T167 630Q228 630 265 593T303 501Q303 446 266 410T167 373Q106 373 68 410ZM221 384T235 411T250 494Q250 620 161 620Q115 620 99 591T83 506Q83 449
103 417T174 384Q221 384 235 411Z" />
<glyph unicode="&#xb1;" glyph-name="plusminus" horiz-adv-x="398" d="M32 257T31 263T29 277Q29 283 30 288T33 294H180V441Q180 445 199 445Q218 445 218 441V294H364Q366 294 367 289T369 276Q369 269 368 263T364 257H218V111Q218 109 212 108T198 106Q191
106 186 107T180 110V257H34Q32 257 31 263ZM366 58T367 53T369 41Q369 35 368 30T364 24H34Q32 24 31 29T29 42Q29 48 30 53T33 58H364Q366 58 367 53Z" />
<glyph unicode="&#xb2;" glyph-name="uni00B2" horiz-adv-x="250" d="M39 423T53 445T83 490Q120 544 140 581T160 650Q160 677 146 693T108 709Q83 709 65 693T41 650Q41 648 37 648Q34 648 31 649T29 653Q51 729 123 729Q160 729 180 709T201 658Q201 629 180
596T119 515Q96 487 83 469T64 437Q64 434 67 434Q136 434 160 436T192 449T211 491Q211 493 213 493T216 491L215 407Q215 405 214 404T211 402H37Q35 402 34 404T34 408Q39 423 53 445Z" />
<glyph unicode="&#xb3;" glyph-name="uni00B3" horiz-adv-x="251" d="M172 564T193 546T214 494Q214 453 188 425T115 396Q77 396 54 415T23 465Q22 469 28 470T35 468Q41 447 59 430T110 413Q173 413 173 481Q173 519 152 542T98 565Q96 565 96 571T98 577Q127
577 143 600T160 650Q160 675 145 692T106 709Q83 709 65 692T41 650Q41 648 37 648Q34 648 31 649T29 653Q38 687 61 708T122 729Q158 729 179 709T201 657Q201 629 183 606T135 572Q172 564 193 546Z" />
<glyph unicode="&#xb4;" glyph-name="acute" horiz-adv-x="275" d="M26 439Q22 439 21 443T23 450Q69 471 145 515L195 543Q199 545 215 539T244 526T250 517Q188 502 137 484T28 440L26 439Z" />
<glyph unicode="&#xb6;" glyph-name="paragraph" horiz-adv-x="575" d="M246 0T185 30T89 113T54 234Q54 299 89 352T185 437T322 468L365 467Q401 465 415 465Q439 465 481 467L530 468Q532 468 532 462T530 456Q487 456 464 435T441 375V92Q441 54 464 33T530
12Q532 12 532 6T530 0Q499 0 481 1L415 2L365 1Q349 0 322 0Q246 0 185 30ZM357 36T362 31T375 25Q383 25 388 30T394 47V421Q394 432 389 437T376 443Q368 443 363 438T357 421V46Q357 36 362 31Z" />
<glyph unicode="&#xb7;" glyph-name="middot" horiz-adv-x="195" d="M80 196T69 206T58 235Q58 252 69 262T98 272Q117 272 127 262T137 235Q137 217 127 207T98 196Q80 196 69 206Z" />
<glyph unicode="&#xb8;" glyph-name="cedilla" horiz-adv-x="232" d="M106 -23T102 -39T97 -63Q97 -74 103 -80T122 -93T142 -104Q167 -118 181 -136T196 -181Q196 -217 171 -246T97 -275Q71 -275 53 -266T35 -239Q35 -227 43 -220T63 -212Q73 -212 78 -217T89
-232Q97 -244 104 -250T126 -256Q163 -256 163 -215Q163 -189 145 -169T77 -122Q69 -118 65 -115T61 -108Q61 -103 67 -91Q78 -63 91 -29L101 -1L113 -2Q106 -23 102 -39Z" />
<glyph unicode="&#xb9;" glyph-name="uni00B9" horiz-adv-x="262" d="M47 402T47 408T49 414Q83 414 96 418T114 435T118 483V601V642Q118 665 115 674T102 684Q94 684 79 678T42 662H41Q37 662 35 666T36 673L146 727Q147 728 149 728Q152 728 154 726T156 720V483Q156
449 159 436T176 418T221 414Q224 414 224 408T221 402L186 403Q156 405 138 405Q119 405 87 403L49 402Q47 402 47 408Z" />
<glyph unicode="&#xba;" glyph-name="ordmasculine" horiz-adv-x="313" d="M95 359T60 399T25 498Q25 541 46 570T99 615T164 630Q202 630 230 611T274 561T290 495Q290 458 271 427T221 377T152 359Q95 359 60 399ZM206 374T229 401T253 477Q253 535 223 574T145
614Q105 614 84 589T62 517Q62 459 92 417T167 374Q206 374 229 401ZM34 288T33 292T31 301Q31 305 32 309T35 313H278Q280 313 281 309T283 301Q283 288 278 288H36Q34 288 33 292Z" />
<glyph unicode="&#xbb;" glyph-name="guillemotright" horiz-adv-x="451" d="M243 247Q248 242 248 236Q248 230 243 225L69 75Q69 74 67 74Q65 74 63 76T62 81L192 235L62 391Q61 393 64 396T69 396L243 247ZM391 247Q395 243 395 236Q395 229 391 225L216 75Q216
74 214 74Q212 74 210 76T209 81L339 235L209 391Q208 393 211 396T216 396L391 247Z" />
<glyph unicode="&#xbc;" glyph-name="onequarter" horiz-adv-x="598" d="M224 320T224 315T221 309Q199 309 186 310L138 311L87 310Q73 309 49 309Q47 309 47 314T49 320Q83 320 96 324T114 341T118 389V508V549Q118 572 115 581T103 590Q91 590 42 568H41Q37
568 35 573T36 579L146 634H148Q151 634 153 632T156 627V389Q156 355 159 342T176 324T221 320Q224 320 224 315ZM440 627T443 627Q447 627 455 624T462 618L182 0Q182 -1 180 -1Q175 -1 167 3T160 9L440 626Q440 627 443 627ZM570 9T570 5T569 -1L510 0L434 -1Q433
-1 433 5T434 11Q460 11 470 13T485 21T489 41V92Q421 94 364 94Q362 94 361 96T361 99L515 324Q517 326 520 325T523 322V112L569 115Q571 115 571 102Q571 88 569 88Q539 90 523 90V41Q523 27 525 22T537 14T569 11Q570 9 570 5ZM441 109T489 111V265L399 112Q398
109 401 109Q441 109 489 111Z" />
<glyph unicode="&#xbd;" glyph-name="onehalf" horiz-adv-x="609" d="M47 309T47 314T49 320Q83 320 96 324T114 341T118 389V508V549Q118 572 115 581T103 590Q91 590 42 568H41Q37 568 35 573T36 579L146 634H148Q151 634 153 632T156 627V389Q156 355 159 342T176
324T221 320Q224 320 224 315T221 309Q199 309 186 310L138 311L87 310Q73 309 49 309Q47 309 47 314ZM182 -1T180 -1Q175 -1 167 3T160 9L440 626Q440 627 443 627Q447 627 455 624T462 618L182 0Q182 -1 180 -1ZM398 21T409 38T442 87Q479 141 499 178T519 248Q519
275 505 290T467 306Q442 306 424 290T400 248Q400 245 396 245Q393 245 390 246T388 250Q410 326 482 326Q520 326 540 307T560 256Q560 227 539 194T478 113Q455 85 442 67T423 35Q423 32 426 32Q495 32 519 34T551 47T570 89Q570 91 572 91T575 89L574 5Q574
0 570 0H396Q392 0 393 6Q398 21 409 38Z" />
<glyph unicode="&#xbe;" glyph-name="threequarters" horiz-adv-x="587" d="M214 360T188 332T115 303Q77 303 54 322T23 372Q22 376 28 377T35 374Q41 353 59 336T110 319Q138 319 155 335T173 387Q173 425 152 448T98 471Q96 471 96 477T98 483Q127 483 143
507T160 557Q160 581 145 598T106 615Q83 615 65 599T41 557Q41 554 36 554Q33 554 31 555T29 559Q38 593 61 614T122 635Q158 635 179 615T201 564Q201 536 183 513T136 479Q173 471 193 453T214 400Q214 360 188 332ZM429 627T432 627Q436 627 444 624T451 618L171
0Q171 -1 169 -1Q164 -1 156 3T149 9L429 626Q429 627 432 627ZM559 9T559 5T558 -1L499 0L423 -1Q422 -1 422 5T423 11Q449 11 459 13T474 21T478 41V92Q410 94 353 94Q351 94 350 96T350 99L504 324Q506 326 509 325T512 322V112L558 115Q560 115 560 102Q560
88 558 88Q528 90 512 90V41Q512 27 514 22T526 14T558 11Q559 9 559 5ZM430 109T478 111V265L388 112Q387 109 390 109Q430 109 478 111Z" />
<glyph unicode="&#xbf;" glyph-name="questiondown" horiz-adv-x="327" d="M199 361T210 351T221 322Q221 305 210 295T181 285Q162 285 152 295T142 322Q142 340 152 350T181 361Q199 361 210 351ZM196 -263T205 -250T217 -215Q221 -197 228 -187T251 -177Q265
-177 273 -186T281 -208Q281 -235 247 -255T166 -275Q109 -275 72 -244T35 -155Q35 -113 52 -86T106 -22Q142 14 156 41T170 102Q170 126 164 157Q163 160 168 161T175 159Q186 133 193 98T201 40Q201 9 188 -11T149 -57Q121 -84 107 -107T92 -167Q92 -210 114
-236T170 -263Q196 -263 205 -250Z" />
<glyph unicode="&#xc0;" glyph-name="Agrave" horiz-adv-x="698" d="M207 757T219 764T248 778T269 782Q309 759 353 734T441 689Q443 688 443 685Q443 682 441 680T437 679Q324 729 214 756Q207 757 219 764ZM698 12T698 6T694 0Q676 0 636 2Q598 4 580 4Q559
4 525 2Q493 0 477 0Q473 0 473 6T477 12Q518 12 536 19T554 45Q554 59 543 84L424 339H233L143 123Q129 89 129 67Q129 38 153 25T228 12Q233 12 233 6T228 0Q210 0 176 2Q138 4 110 4Q85 4 51 2Q21 0 2 0Q-3 0 -3 6T2 12Q30 12 49 22T86 58T124 132L333 635Q335
638 339 638T345 635L577 137Q600 86 618 60T653 23T694 12Q698 12 698 6ZM241 358H416L323 556L241 358Z" />
<glyph unicode="&#xc1;" glyph-name="Aacute" horiz-adv-x="698" d="M239 678Q235 678 234 682T236 689Q282 710 358 754L408 782Q412 784 428 778T457 765T463 756Q401 741 350 723T241 679L239 678ZM698 12T698 6T694 0Q676 0 636 2Q598 4 580 4Q559 4 525 2Q493
0 477 0Q473 0 473 6T477 12Q518 12 536 19T554 45Q554 59 543 84L424 339H233L143 123Q129 89 129 67Q129 38 153 25T228 12Q233 12 233 6T228 0Q210 0 176 2Q138 4 110 4Q85 4 51 2Q21 0 2 0Q-3 0 -3 6T2 12Q30 12 49 22T86 58T124 132L333 635Q335 638 339 638T345
635L577 137Q600 86 618 60T653 23T694 12Q698 12 698 6ZM241 358H416L323 556L241 358Z" />
<glyph unicode="&#xc2;" glyph-name="Acircumflex" horiz-adv-x="698" d="M227 647T224 650T223 655L326 747Q331 752 338 752Q344 752 349 747L451 655Q452 655 452 653Q452 651 450 649T446 648L338 710L229 648Q227 647 224 650ZM698 12T698 6T694 0Q676 0
636 2Q598 4 580 4Q559 4 525 2Q493 0 477 0Q473 0 473 6T477 12Q518 12 536 19T554 45Q554 59 543 84L424 339H233L143 123Q129 89 129 67Q129 38 153 25T228 12Q233 12 233 6T228 0Q210 0 176 2Q138 4 110 4Q85 4 51 2Q21 0 2 0Q-3 0 -3 6T2 12Q30 12 49 22T86
58T124 132L333 635Q335 638 339 638T345 635L577 137Q600 86 618 60T653 23T694 12Q698 12 698 6ZM241 358H416L323 556L241 358Z" />
<glyph unicode="&#xc3;" glyph-name="Atilde" horiz-adv-x="698" d="M211 697Q208 697 206 699T205 704Q221 726 243 744T289 762Q306 762 341 751Q385 737 415 737Q432 737 442 744T464 764H466Q469 764 471 762T471 757Q445 723 428 712T393 700Q378 700 362
703T330 712Q288 724 261 724Q245 724 237 719T222 707T212 697H211ZM698 12T698 6T694 0Q676 0 636 2Q598 4 580 4Q559 4 525 2Q493 0 477 0Q473 0 473 6T477 12Q518 12 536 19T554 45Q554 59 543 84L424 339H233L143 123Q129 89 129 67Q129 38 153 25T228 12Q233
12 233 6T228 0Q210 0 176 2Q138 4 110 4Q85 4 51 2Q21 0 2 0Q-3 0 -3 6T2 12Q30 12 49 22T86 58T124 132L333 635Q335 638 339 638T345 635L577 137Q600 86 618 60T653 23T694 12Q698 12 698 6ZM241 358H416L323 556L241 358Z" />
<glyph unicode="&#xc4;" glyph-name="Adieresis" horiz-adv-x="698" d="M232 720T222 730T211 758Q211 776 221 786T251 796Q269 796 279 786T289 758Q289 740 279 730T251 720Q232 720 222 730ZM408 720T397 730T386 758Q386 776 397 786T426 796Q445 796 455
786T465 758Q465 740 455 730T426 720Q408 720 397 730ZM698 12T698 6T694 0Q676 0 636 2Q598 4 580 4Q559 4 525 2Q493 0 477 0Q473 0 473 6T477 12Q518 12 536 19T554 45Q554 59 543 84L424 339H233L143 123Q129 89 129 67Q129 38 153 25T228 12Q233 12 233 6T228
0Q210 0 176 2Q138 4 110 4Q85 4 51 2Q21 0 2 0Q-3 0 -3 6T2 12Q30 12 49 22T86 58T124 132L333 635Q335 638 339 638T345 635L577 137Q600 86 618 60T653 23T694 12Q698 12 698 6ZM241 358H416L323 556L241 358Z" />
<glyph unicode="&#xc5;" glyph-name="Aring" horiz-adv-x="698" d="M297 665T274 689T251 745Q251 781 279 801T344 822Q378 822 402 799T427 743Q427 708 399 687T334 665Q297 665 274 689ZM305 813T297 802T289 765Q289 731 305 703T349 675Q369 675 378 687T388
725Q388 761 370 787T324 813Q305 813 297 802ZM698 12T698 6T694 0Q676 0 636 2Q598 4 580 4Q559 4 525 2Q493 0 477 0Q473 0 473 6T477 12Q518 12 536 19T554 45Q554 59 543 84L424 339H233L143 123Q129 89 129 67Q129 38 153 25T228 12Q233 12 233 6T228 0Q210
0 176 2Q138 4 110 4Q85 4 51 2Q21 0 2 0Q-3 0 -3 6T2 12Q30 12 49 22T86 58T124 132L333 635Q335 638 339 638T345 635L577 137Q600 86 618 60T653 23T694 12Q698 12 698 6ZM241 358H416L323 556L241 358Z" />
<glyph unicode="&#xc6;" glyph-name="AE" horiz-adv-x="871" d="M808 149T814 149T820 145Q811 82 811 15Q811 7 808 4T795 0H394Q392 0 392 6T394 12Q433 12 451 17T476 36T483 81V316H305L171 123Q140 78 140 53Q140 12 219 12Q224 12 224 6T219 0Q201 0 167
2Q129 4 101 4Q78 4 48 2Q20 0 5 0Q1 0 1 6T5 12Q34 12 73 44T151 132L458 574Q471 592 471 599Q471 608 455 610T394 613Q392 613 392 619T394 625H778Q787 625 787 616L789 495Q789 492 784 492T778 495Q778 544 751 575T680 606H622Q584 606 567 601T543 584T536
543V335H656Q702 335 720 350T738 404Q738 406 744 406T750 404L749 325Q749 296 750 282L751 235Q751 233 745 233T739 235Q739 280 720 298T653 316H536V85Q536 56 542 43T566 24T622 19H703Q743 19 771 54T808 146Q808 149 814 149ZM318 335H483V572L318 335Z"
/>
<glyph unicode="&#xc7;" glyph-name="Ccedilla" horiz-adv-x="669" d="M614 161T618 161Q621 161 623 160T626 157L612 50Q610 38 608 35T596 27Q507 -12 405 -12H385Q372 -53 372 -63Q372 -74 378 -80T397 -93T417 -104Q442 -118 456 -136T471 -181Q471 -217
446 -246T372 -275Q346 -275 328 -266T310 -239Q310 -227 318 -220T338 -212Q348 -212 353 -217T364 -232Q372 -244 379 -250T401 -256Q438 -256 438 -215Q438 -189 420 -169T352 -122Q344 -118 340 -115T336 -108Q336 -103 342 -91Q357 -55 372 -11Q263 -4 191
45T84 167T49 319Q49 410 100 482T235 595T413 636Q462 636 511 626T591 599Q599 594 601 590T605 575L616 470Q616 467 611 467T605 469Q569 615 374 615Q296 615 237 582T144 487T111 346Q111 252 152 173T261 47T408 0Q482 0 535 39T614 158Q614 161 618 161Z"
/>
<glyph unicode="&#xc8;" glyph-name="Egrave" horiz-adv-x="533" d="M159 757T171 764T200 778T221 782Q261 759 305 734T393 689Q395 688 395 685Q395 682 393 680T389 679Q276 729 166 756Q159 757 171 764ZM470 149T476 149T482 145Q473 82 473 15Q473 7 470
4T457 0H44Q42 0 42 6T44 12Q83 12 101 17T126 36T133 81V544Q133 574 127 588T102 607T44 613Q42 613 42 619T44 625H440Q449 625 449 616L451 495Q451 492 446 492T440 495Q440 546 413 576T342 606H273Q235 606 217 601T193 582T186 538V335H318Q364 335 382
350T400 404Q400 406 406 406T412 404L411 325Q411 296 412 282L413 235Q413 233 407 233T401 235Q401 280 382 298T315 316H186V85Q186 56 192 43T216 24T273 19H365Q405 19 433 54T470 146Q470 149 476 149Z" />
<glyph unicode="&#xc9;" glyph-name="Eacute" horiz-adv-x="533" d="M191 678Q187 678 186 682T188 689Q234 710 310 754L360 782Q364 784 380 778T409 765T415 756Q353 741 302 723T193 679L191 678ZM470 149T476 149T482 145Q473 82 473 15Q473 7 470 4T457
0H44Q42 0 42 6T44 12Q83 12 101 17T126 36T133 81V544Q133 574 127 588T102 607T44 613Q42 613 42 619T44 625H440Q449 625 449 616L451 495Q451 492 446 492T440 495Q440 546 413 576T342 606H273Q235 606 217 601T193 582T186 538V335H318Q364 335 382 350T400
404Q400 406 406 406T412 404L411 325Q411 296 412 282L413 235Q413 233 407 233T401 235Q401 280 382 298T315 316H186V85Q186 56 192 43T216 24T273 19H365Q405 19 433 54T470 146Q470 149 476 149Z" />
<glyph unicode="&#xca;" glyph-name="Ecircumflex" horiz-adv-x="533" d="M180 682T177 685T176 690L279 783Q284 788 291 788Q297 788 302 783L404 690Q405 690 405 688Q405 686 403 684T399 683L291 745L182 683Q180 682 177 685ZM470 149T476 149T482 145Q473
82 473 15Q473 7 470 4T457 0H44Q42 0 42 6T44 12Q83 12 101 17T126 36T133 81V544Q133 574 127 588T102 607T44 613Q42 613 42 619T44 625H440Q449 625 449 616L451 495Q451 492 446 492T440 495Q440 546 413 576T342 606H273Q235 606 217 601T193 582T186 538V335H318Q364
335 382 350T400 404Q400 406 406 406T412 404L411 325Q411 296 412 282L413 235Q413 233 407 233T401 235Q401 280 382 298T315 316H186V85Q186 56 192 43T216 24T273 19H365Q405 19 433 54T470 146Q470 149 476 149Z" />
<glyph unicode="&#xcb;" glyph-name="Edieresis" horiz-adv-x="533" d="M184 720T174 730T163 758Q163 776 173 786T203 796Q221 796 231 786T241 758Q241 740 231 730T203 720Q184 720 174 730ZM360 720T349 730T338 758Q338 776 349 786T378 796Q397 796 407
786T417 758Q417 740 407 730T378 720Q360 720 349 730ZM470 149T476 149T482 145Q473 82 473 15Q473 7 470 4T457 0H44Q42 0 42 6T44 12Q83 12 101 17T126 36T133 81V544Q133 574 127 588T102 607T44 613Q42 613 42 619T44 625H440Q449 625 449 616L451 495Q451
492 446 492T440 495Q440 546 413 576T342 606H273Q235 606 217 601T193 582T186 538V335H318Q364 335 382 350T400 404Q400 406 406 406T412 404L411 325Q411 296 412 282L413 235Q413 233 407 233T401 235Q401 280 382 298T315 316H186V85Q186 56 192 43T216
24T273 19H365Q405 19 433 54T470 146Q470 149 476 149Z" />
<glyph unicode="&#xcc;" glyph-name="Igrave" horiz-adv-x="330" d="M151 729T41 756Q34 757 46 764T75 778T96 782Q136 759 180 734T268 689Q270 688 270 685Q270 682 268 680T264 679Q151 729 41 756ZM192 50T198 36T223 17T281 12Q283 12 283 6T281 0Q251 0
234 1L164 2L97 1Q79 0 48 0Q45 0 45 6T48 12Q87 12 105 17T131 36T138 81V544Q138 574 131 588T106 607T48 613Q45 613 45 619T48 625L97 624Q139 622 164 622Q192 622 234 624L281 625Q283 625 283 619T281 613Q242 613 224 607T199 587T192 542V81Q192 50 198
36Z" />
<glyph unicode="&#xcd;" glyph-name="Iacute" horiz-adv-x="330" d="M66 678Q62 678 61 682T63 689Q109 710 185 754L235 782Q239 784 255 778T284 765T290 756Q228 741 177 723T68 679L66 678ZM192 50T198 36T223 17T281 12Q283 12 283 6T281 0Q251 0 234 1L164
2L97 1Q79 0 48 0Q45 0 45 6T48 12Q87 12 105 17T131 36T138 81V544Q138 574 131 588T106 607T48 613Q45 613 45 619T48 625L97 624Q139 622 164 622Q192 622 234 624L281 625Q283 625 283 619T281 613Q242 613 224 607T199 587T192 542V81Q192 50 198 36Z" />
<glyph unicode="&#xce;" glyph-name="Icircumflex" horiz-adv-x="330" d="M154 783Q159 788 166 788Q172 788 177 783L279 690Q280 690 280 688Q280 686 278 684T274 683L166 745L57 683Q55 682 52 685T51 690L154 783ZM192 50T198 36T223 17T281 12Q283 12 283
6T281 0Q251 0 234 1L164 2L97 1Q79 0 48 0Q45 0 45 6T48 12Q87 12 105 17T131 36T138 81V544Q138 574 131 588T106 607T48 613Q45 613 45 619T48 625L97 624Q139 622 164 622Q192 622 234 624L281 625Q283 625 283 619T281 613Q242 613 224 607T199 587T192 542V81Q192
50 198 36Z" />
<glyph unicode="&#xcf;" glyph-name="Idieresis" horiz-adv-x="330" d="M77 720T66 730T55 758Q55 776 66 786T95 796Q114 796 124 786T134 758Q134 740 124 730T95 720Q77 720 66 730ZM217 720T207 730T196 758Q196 776 206 786T236 796Q254 796 264 786T274
758Q274 740 264 730T236 720Q217 720 207 730ZM192 50T198 36T223 17T281 12Q283 12 283 6T281 0Q251 0 234 1L164 2L97 1Q79 0 48 0Q45 0 45 6T48 12Q87 12 105 17T131 36T138 81V544Q138 574 131 588T106 607T48 613Q45 613 45 619T48 625L97 624Q139 622 164
622Q192 622 234 624L281 625Q283 625 283 619T281 613Q242 613 224 607T199 587T192 542V81Q192 50 198 36Z" />
<glyph unicode="&#xd0;" glyph-name="Eth" horiz-adv-x="688" d="M388 627T469 587T594 478T639 323Q639 226 593 152T468 37T297 -4Q268 -4 232 -1Q218 0 198 1T152 2L86 1Q68 0 36 0Q34 0 34 6T36 12Q75 12 93 17T119 36T126 81V302H53Q49 302 49 311Q49 320
53 320H126V544Q126 574 120 588T95 607T37 613Q35 613 35 619T37 625L86 624Q128 622 152 622Q187 622 223 625Q267 627 283 627Q388 627 469 587ZM371 9T436 43T537 143T574 301Q574 389 540 460T441 572T292 614Q248 614 225 609T190 589T179 542V320H315Q319
320 319 311Q319 302 315 302H179V92Q179 62 188 44T220 18T287 9Q371 9 436 43Z" />
<glyph unicode="&#xd1;" glyph-name="Ntilde" horiz-adv-x="725" d="M247 697Q244 697 242 699T241 704Q257 726 279 744T325 762Q342 762 377 751Q421 737 451 737Q468 737 478 744T500 764H502Q505 764 507 762T507 757Q481 723 464 712T429 700Q414 700 398
703T366 712Q324 724 297 724Q281 724 273 719T258 707T248 697H247ZM702 625T702 619T699 613Q656 613 639 592T621 520V-11Q621 -13 616 -14T609 -13L157 543L140 562V104Q140 53 157 33T216 12Q219 12 219 6T216 0Q192 0 179 1L131 2L82 1Q69 0 43 0Q41 0 41
6T43 12Q86 12 102 32T118 104V583Q83 613 46 613Q43 613 43 619T46 625L82 624Q93 623 113 623Q130 623 141 624T158 625Q165 625 169 622T180 607Q191 589 204 573L599 82V520Q599 571 583 592T525 613Q523 613 523 619T525 625L563 624Q593 622 611 622Q628
622 660 624L699 625Q702 625 702 619Z" />
<glyph unicode="&#xd2;" glyph-name="Ograve" horiz-adv-x="766" d="M370 729T260 756Q253 757 265 764T294 778T315 782Q355 759 399 734T487 689Q489 688 489 685Q489 682 487 680T483 679Q370 729 260 756ZM273 -12T201 31T89 149T49 312Q49 415 101 488T234
599T401 636Q496 636 568 592T678 474T717 319Q717 228 669 152T541 32T366 -12Q273 -12 201 31ZM473 8T530 41T620 138T653 291Q653 385 617 458T514 573T359 614Q243 614 178 542T113 346Q113 253 149 176T252 53T402 8Q473 8 530 41Z" />
<glyph unicode="&#xd3;" glyph-name="Oacute" horiz-adv-x="766" d="M285 678Q281 678 280 682T282 689Q328 710 404 754L454 782Q458 784 474 778T503 765T509 756Q447 741 396 723T287 679L285 678ZM273 -12T201 31T89 149T49 312Q49 415 101 488T234 599T401
636Q496 636 568 592T678 474T717 319Q717 228 669 152T541 32T366 -12Q273 -12 201 31ZM473 8T530 41T620 138T653 291Q653 385 617 458T514 573T359 614Q243 614 178 542T113 346Q113 253 149 176T252 53T402 8Q473 8 530 41Z" />
<glyph unicode="&#xd4;" glyph-name="Ocircumflex" horiz-adv-x="766" d="M373 783Q378 788 385 788Q391 788 396 783L498 690Q499 690 499 688Q499 686 497 684T493 683L385 745L276 683Q274 682 271 685T270 690L373 783ZM273 -12T201 31T89 149T49 312Q49 415
101 488T234 599T401 636Q496 636 568 592T678 474T717 319Q717 228 669 152T541 32T366 -12Q273 -12 201 31ZM473 8T530 41T620 138T653 291Q653 385 617 458T514 573T359 614Q243 614 178 542T113 346Q113 253 149 176T252 53T402 8Q473 8 530 41Z" />
<glyph unicode="&#xd5;" glyph-name="Otilde" horiz-adv-x="766" d="M478 737T488 744T510 764H512Q515 764 517 762T517 757Q491 723 474 712T439 700Q424 700 408 703T376 712Q334 724 307 724Q291 724 283 719T268 707T258 697H257Q254 697 252 699T251 704Q267
726 289 744T335 762Q352 762 387 751Q431 737 461 737Q478 737 488 744ZM273 -12T201 31T89 149T49 312Q49 415 101 488T234 599T401 636Q496 636 568 592T678 474T717 319Q717 228 669 152T541 32T366 -12Q273 -12 201 31ZM473 8T530 41T620 138T653 291Q653
385 617 458T514 573T359 614Q243 614 178 542T113 346Q113 253 149 176T252 53T402 8Q473 8 530 41Z" />
<glyph unicode="&#xd6;" glyph-name="Odieresis" horiz-adv-x="766" d="M278 720T268 730T257 758Q257 776 267 786T297 796Q315 796 325 786T335 758Q335 740 325 730T297 720Q278 720 268 730ZM454 720T443 730T432 758Q432 776 443 786T472 796Q491 796 501
786T511 758Q511 740 501 730T472 720Q454 720 443 730ZM273 -12T201 31T89 149T49 312Q49 415 101 488T234 599T401 636Q496 636 568 592T678 474T717 319Q717 228 669 152T541 32T366 -12Q273 -12 201 31ZM473 8T530 41T620 138T653 291Q653 385 617 458T514
573T359 614Q243 614 178 542T113 346Q113 253 149 176T252 53T402 8Q473 8 530 41Z" />
<glyph unicode="&#xd7;" glyph-name="multiply" horiz-adv-x="378" d="M319 120Q322 116 309 103T292 93L189 196L85 93Q83 89 70 102T58 118L163 223L60 327Q56 329 69 342T85 353L189 249L292 352Q296 355 309 342T319 325L216 223L319 120Z" />
<glyph unicode="&#xd8;" glyph-name="Oslash" horiz-adv-x="766" d="M668 503T692 443T717 319Q717 228 669 152T541 32T366 -12Q302 -12 248 9T151 68L77 -7Q77 -8 75 -8Q72 -8 67 -2T64 7L138 82Q95 126 72 185T49 312Q49 415 101 488T234 599T401 636Q463 636
516 617T610 561L677 629L679 630Q684 630 689 625T691 618L623 548Q668 503 692 443ZM113 283T130 226T179 124L573 523Q534 567 480 590T359 614Q243 614 178 542T113 346Q113 283 130 226ZM473 8T530 41T620 138T653 291Q653 356 635 411T584 509L191 109Q230
61 284 35T402 8Q473 8 530 41Z" />
<glyph unicode="&#xd9;" glyph-name="Ugrave" horiz-adv-x="697" d="M360 729T250 756Q243 757 255 764T284 778T305 782Q345 759 389 734T477 689Q479 688 479 685Q479 682 477 680T473 679Q360 729 250 756ZM572 568T552 590T487 613Q484 613 484 619T487 625L529
624Q563 622 584 622Q602 622 632 624L673 625Q675 625 675 619T673 613Q632 613 613 591T594 520V234Q594 117 531 52T361 -13Q287 -13 232 16T147 100T117 225V544Q117 574 111 588T86 607T28 613Q26 613 26 619T28 625L76 624Q118 622 143 622Q170 622 212 624L258
625Q261 625 261 619T258 613Q219 613 201 607T177 587T170 542V260Q170 143 225 80T379 16Q470 16 521 73T572 233V520Q572 568 552 590Z" />
<glyph unicode="&#xda;" glyph-name="Uacute" horiz-adv-x="697" d="M275 678Q271 678 270 682T272 689Q318 710 394 754L444 782Q448 784 464 778T493 765T499 756Q437 741 386 723T277 679L275 678ZM572 568T552 590T487 613Q484 613 484 619T487 625L529 624Q563
622 584 622Q602 622 632 624L673 625Q675 625 675 619T673 613Q632 613 613 591T594 520V234Q594 117 531 52T361 -13Q287 -13 232 16T147 100T117 225V544Q117 574 111 588T86 607T28 613Q26 613 26 619T28 625L76 624Q118 622 143 622Q170 622 212 624L258 625Q261
625 261 619T258 613Q219 613 201 607T177 587T170 542V260Q170 143 225 80T379 16Q470 16 521 73T572 233V520Q572 568 552 590Z" />
<glyph unicode="&#xdb;" glyph-name="Ucircumflex" horiz-adv-x="697" d="M363 783Q368 788 375 788Q381 788 386 783L488 690Q489 690 489 688Q489 686 487 684T483 683L375 745L266 683Q264 682 261 685T260 690L363 783ZM572 568T552 590T487 613Q484 613 484
619T487 625L529 624Q563 622 584 622Q602 622 632 624L673 625Q675 625 675 619T673 613Q632 613 613 591T594 520V234Q594 117 531 52T361 -13Q287 -13 232 16T147 100T117 225V544Q117 574 111 588T86 607T28 613Q26 613 26 619T28 625L76 624Q118 622 143 622Q170
622 212 624L258 625Q261 625 261 619T258 613Q219 613 201 607T177 587T170 542V260Q170 143 225 80T379 16Q470 16 521 73T572 233V520Q572 568 552 590Z" />
<glyph unicode="&#xdc;" glyph-name="Udieresis" horiz-adv-x="697" d="M268 720T258 730T247 758Q247 776 257 786T287 796Q305 796 315 786T325 758Q325 740 315 730T287 720Q268 720 258 730ZM444 720T433 730T422 758Q422 776 433 786T462 796Q481 796 491
786T501 758Q501 740 491 730T462 720Q444 720 433 730ZM572 568T552 590T487 613Q484 613 484 619T487 625L529 624Q563 622 584 622Q602 622 632 624L673 625Q675 625 675 619T673 613Q632 613 613 591T594 520V234Q594 117 531 52T361 -13Q287 -13 232 16T147
100T117 225V544Q117 574 111 588T86 607T28 613Q26 613 26 619T28 625L76 624Q118 622 143 622Q170 622 212 624L258 625Q261 625 261 619T258 613Q219 613 201 607T177 587T170 542V260Q170 143 225 80T379 16Q470 16 521 73T572 233V520Q572 568 552 590Z" />
<glyph unicode="&#xdd;" glyph-name="Yacute" horiz-adv-x="607" d="M217 678Q213 678 212 682T214 689Q260 710 336 754L386 782Q390 784 406 778T435 765T441 756Q379 741 328 723T219 679L217 678ZM613 625T613 619T611 613Q574 613 539 590T476 523L335 309V81Q335
50 341 36T365 17T423 12Q426 12 426 6T423 0Q393 0 376 1L308 2L240 1Q222 0 192 0Q189 0 189 6T192 12Q231 12 249 17T275 36T282 81V294L111 542Q85 581 60 597T-2 613Q-5 613 -5 619T-2 625L35 624Q59 622 71 622Q104 622 152 624L204 625Q206 625 206 619T204
613Q174 613 161 609T147 594Q147 588 157 573L325 332L453 526Q475 562 475 581Q475 613 421 613Q419 613 419 619T421 625L466 624Q504 622 533 622Q550 622 574 624L611 625Q613 625 613 619Z" />
<glyph unicode="&#xde;" glyph-name="Thorn" horiz-adv-x="535" d="M336 147T385 190T435 316Q435 396 386 441T256 487Q219 487 186 478V85Q186 53 195 39T229 18T311 12Q314 12 314 6T311 0Q270 0 247 1L160 2L94 1Q76 0 44 0Q42 0 42 6T44 12Q83 12 101 17T126
36T133 81V544Q133 574 127 588T102 607T44 613Q42 613 42 619T44 625L94 624Q134 622 160 622Q195 622 247 624L311 625Q314 625 314 619T311 613Q255 613 230 607T195 586T186 539V491Q229 499 281 499Q379 499 438 459T497 329Q497 264 464 220T380 155T276
133Q252 133 227 138Q224 138 224 143Q224 146 225 149T229 151Q253 147 265 147Q336 147 385 190Z" />
<glyph unicode="&#xdf;" glyph-name="germandbls" horiz-adv-x="531" d="M415 8T435 29T456 87Q456 125 430 163T342 249Q336 253 335 256T338 264L418 385Q313 448 234 448Q185 448 162 416T138 305V81Q138 50 142 36T157 17T193 12Q195 12 195 6T193 0L110 1L11
0Q8 0 8 6T11 12Q44 12 60 17T82 37T88 81V284Q88 332 110 377T176 451T280 480Q342 480 408 448Q428 437 438 437Q447 437 455 444T476 471Q477 473 480 473Q483 473 485 471T487 465L372 289Q440 242 468 204T497 125Q497 91 480 60T429 8T350 -12Q326 -12 306
-5T261 22Q256 25 254 30T251 41L241 112Q240 116 245 117T253 115Q258 90 279 65T329 24T385 8Q415 8 435 29Z" />
<glyph unicode="&#xe0;" glyph-name="agrave" horiz-adv-x="560" d="M140 600T152 607T181 621T202 625Q242 602 286 577T374 532Q376 531 376 528Q376 525 374 523T370 522Q257 572 147 599Q140 600 152 607ZM560 12T560 6T556 0Q538 0 498 2Q460 4 442 4Q428
4 402 2Q378 0 365 0Q361 0 361 6T365 12Q392 12 405 19T419 43Q419 59 407 84L338 234H191L147 123Q131 81 131 61Q131 35 149 24T205 12Q210 12 210 6T205 0Q190 0 164 2Q136 4 112 4Q87 4 53 2Q23 0 5 0Q1 0 1 6T5 12Q36 12 54 20T87 54T124 132L267 483Q269
487 273 487T278 483L439 137Q465 81 480 56T512 22T556 12Q560 12 560 6ZM198 250H330L259 404L198 250Z" />
<glyph unicode="&#xe1;" glyph-name="aacute" horiz-adv-x="560" d="M172 521Q168 521 167 525T169 532Q215 553 291 597L341 625Q345 627 361 621T390 608T396 599Q334 584 283 566T174 522L172 521ZM560 12T560 6T556 0Q538 0 498 2Q460 4 442 4Q428 4 402 2Q378
0 365 0Q361 0 361 6T365 12Q392 12 405 19T419 43Q419 59 407 84L338 234H191L147 123Q131 81 131 61Q131 35 149 24T205 12Q210 12 210 6T205 0Q190 0 164 2Q136 4 112 4Q87 4 53 2Q23 0 5 0Q1 0 1 6T5 12Q36 12 54 20T87 54T124 132L267 483Q269 487 273 487T278
483L439 137Q465 81 480 56T512 22T556 12Q560 12 560 6ZM198 250H330L259 404L198 250Z" />
<glyph unicode="&#xe2;" glyph-name="acircumflex" horiz-adv-x="560" d="M161 525T158 528T157 533L260 626Q265 631 272 631Q278 631 283 626L385 533Q386 533 386 531Q386 529 384 527T380 526L272 588L163 526Q161 525 158 528ZM560 12T560 6T556 0Q538 0
498 2Q460 4 442 4Q428 4 402 2Q378 0 365 0Q361 0 361 6T365 12Q392 12 405 19T419 43Q419 59 407 84L338 234H191L147 123Q131 81 131 61Q131 35 149 24T205 12Q210 12 210 6T205 0Q190 0 164 2Q136 4 112 4Q87 4 53 2Q23 0 5 0Q1 0 1 6T5 12Q36 12 54 20T87
54T124 132L267 483Q269 487 273 487T278 483L439 137Q465 81 480 56T512 22T556 12Q560 12 560 6ZM198 250H330L259 404L198 250Z" />
<glyph unicode="&#xe3;" glyph-name="atilde" horiz-adv-x="560" d="M144 540Q141 540 139 542T138 547Q154 569 176 587T222 605Q239 605 274 594Q318 580 348 580Q365 580 375 587T397 607H399Q402 607 404 605T404 600Q378 566 361 555T326 543Q311 543 295
546T263 555Q221 567 194 567Q178 567 170 562T155 550T145 540H144ZM560 12T560 6T556 0Q538 0 498 2Q460 4 442 4Q428 4 402 2Q378 0 365 0Q361 0 361 6T365 12Q392 12 405 19T419 43Q419 59 407 84L338 234H191L147 123Q131 81 131 61Q131 35 149 24T205 12Q210
12 210 6T205 0Q190 0 164 2Q136 4 112 4Q87 4 53 2Q23 0 5 0Q1 0 1 6T5 12Q36 12 54 20T87 54T124 132L267 483Q269 487 273 487T278 483L439 137Q465 81 480 56T512 22T556 12Q560 12 560 6ZM198 250H330L259 404L198 250Z" />
<glyph unicode="&#xe4;" glyph-name="adieresis" horiz-adv-x="560" d="M165 563T155 573T144 601Q144 619 154 629T184 639Q202 639 212 629T222 601Q222 583 212 573T184 563Q165 563 155 573ZM341 563T330 573T319 601Q319 619 330 629T359 639Q378 639 388
629T398 601Q398 583 388 573T359 563Q341 563 330 573ZM560 12T560 6T556 0Q538 0 498 2Q460 4 442 4Q428 4 402 2Q378 0 365 0Q361 0 361 6T365 12Q392 12 405 19T419 43Q419 59 407 84L338 234H191L147 123Q131 81 131 61Q131 35 149 24T205 12Q210 12 210 6T205
0Q190 0 164 2Q136 4 112 4Q87 4 53 2Q23 0 5 0Q1 0 1 6T5 12Q36 12 54 20T87 54T124 132L267 483Q269 487 273 487T278 483L439 137Q465 81 480 56T512 22T556 12Q560 12 560 6ZM198 250H330L259 404L198 250Z" />
<glyph unicode="&#xe5;" glyph-name="aring" horiz-adv-x="560" d="M225 550T202 573T179 629Q179 665 208 686T272 707Q306 707 330 684T355 627Q355 592 327 571T262 550Q225 550 202 573ZM233 697T225 686T217 649Q217 615 233 587T278 559Q298 559 307 571T316
609Q316 645 298 671T252 697Q233 697 225 686ZM560 12T560 6T556 0Q538 0 498 2Q460 4 442 4Q428 4 402 2Q378 0 365 0Q361 0 361 6T365 12Q392 12 405 19T419 43Q419 59 407 84L338 234H191L147 123Q131 81 131 61Q131 35 149 24T205 12Q210 12 210 6T205 0Q190
0 164 2Q136 4 112 4Q87 4 53 2Q23 0 5 0Q1 0 1 6T5 12Q36 12 54 20T87 54T124 132L267 483Q269 487 273 487T278 483L439 137Q465 81 480 56T512 22T556 12Q560 12 560 6ZM198 250H330L259 404L198 250Z" />
<glyph unicode="&#xe6;" glyph-name="ae" horiz-adv-x="709" d="M655 136T661 136T667 133Q660 79 660 15Q660 7 657 4T644 0H281Q278 0 278 6T281 12Q315 12 331 17T354 37T361 81V228H232L151 109Q115 57 115 36Q115 23 128 18T170 12Q174 12 174 6T170 0Q155
0 129 2Q101 4 77 4Q54 4 24 2Q-2 0 -19 0Q-24 0 -24 6T-19 12Q12 12 32 19T72 49T127 118L352 435Q345 447 329 451T281 456Q278 456 278 462T281 468H627Q636 468 636 460Q636 440 638 398L639 350Q639 347 633 347T627 350Q627 397 600 426T529 455H495Q457
455 440 450T417 430T411 386V244Q520 245 557 250T599 256Q605 256 605 235Q605 213 599 213Q595 213 558 220T411 228V85Q411 55 417 41T440 22T495 16H552Q591 16 619 48T655 133Q655 136 661 136ZM361 244V387Q361 400 359 416L243 244H361Z" />
<glyph unicode="&#xe7;" glyph-name="ccedilla" horiz-adv-x="540" d="M484 143T489 143Q491 143 493 142T496 139L482 33Q481 25 479 22T468 15Q391 -12 308 -12H305Q292 -53 292 -63Q292 -74 298 -80T317 -93T337 -104Q362 -118 376 -136T391 -181Q391 -217
366 -246T292 -275Q266 -275 248 -266T230 -239Q230 -227 238 -220T258 -212Q268 -212 273 -217T284 -232Q292 -244 299 -250T321 -256Q358 -256 358 -215Q358 -189 340 -169T272 -122Q264 -118 260 -115T256 -108Q256 -103 262 -91Q277 -55 292 -12Q203 -8 146
30T63 124T37 236Q37 304 73 360T172 448T312 480Q350 480 393 473T464 451Q471 448 473 445T476 434L487 331Q487 328 482 327T475 330Q461 400 413 433T289 467Q235 467 191 439T122 362T97 251Q97 188 122 131T197 37T317 0Q380 0 424 34T484 140Q484 143 489
143Z" />
<glyph unicode="&#xe8;" glyph-name="egrave" horiz-adv-x="464" d="M118 600T130 607T159 621T180 625Q220 602 264 577T352 532Q354 531 354 528Q354 525 352 523T348 522Q235 572 125 599Q118 600 130 607ZM411 136T416 136T422 133Q415 61 415 15Q415 7 412
4T400 0H36Q34 0 34 6T36 12Q70 12 86 17T107 36T113 81V387Q113 417 108 431T86 450T36 456Q34 456 34 462T36 468H382Q392 468 392 460L393 398Q394 379 394 350Q394 347 388 347T382 350Q382 397 355 426T284 455H250Q212 455 195 450T171 430T164 386V249Q266
250 302 254T342 258Q347 258 347 237Q347 215 342 215Q338 215 302 221T164 228V85Q164 56 170 42T195 22T250 16H308Q347 16 375 48T411 133Q411 136 416 136Z" />
<glyph unicode="&#xe9;" glyph-name="eacute" horiz-adv-x="464" d="M150 521Q146 521 145 525T147 532Q193 553 269 597L319 625Q323 627 339 621T368 608T374 599Q312 584 261 566T152 522L150 521ZM411 136T416 136T422 133Q415 61 415 15Q415 7 412 4T400
0H36Q34 0 34 6T36 12Q70 12 86 17T107 36T113 81V387Q113 417 108 431T86 450T36 456Q34 456 34 462T36 468H382Q392 468 392 460L393 398Q394 379 394 350Q394 347 388 347T382 350Q382 397 355 426T284 455H250Q212 455 195 450T171 430T164 386V249Q266 250
302 254T342 258Q347 258 347 237Q347 215 342 215Q338 215 302 221T164 228V85Q164 56 170 42T195 22T250 16H308Q347 16 375 48T411 133Q411 136 416 136Z" />
<glyph unicode="&#xea;" glyph-name="ecircumflex" horiz-adv-x="464" d="M139 525T136 528T135 533L238 626Q243 631 250 631Q256 631 261 626L363 533Q364 533 364 531Q364 529 362 527T358 526L250 588L141 526Q139 525 136 528ZM411 136T416 136T422 133Q415
61 415 15Q415 7 412 4T400 0H36Q34 0 34 6T36 12Q70 12 86 17T107 36T113 81V387Q113 417 108 431T86 450T36 456Q34 456 34 462T36 468H382Q392 468 392 460L393 398Q394 379 394 350Q394 347 388 347T382 350Q382 397 355 426T284 455H250Q212 455 195 450T171
430T164 386V249Q266 250 302 254T342 258Q347 258 347 237Q347 215 342 215Q338 215 302 221T164 228V85Q164 56 170 42T195 22T250 16H308Q347 16 375 48T411 133Q411 136 416 136Z" />
<glyph unicode="&#xeb;" glyph-name="edieresis" horiz-adv-x="464" d="M143 563T133 573T122 601Q122 619 132 629T162 639Q180 639 190 629T200 601Q200 583 190 573T162 563Q143 563 133 573ZM319 563T308 573T297 601Q297 619 308 629T337 639Q356 639 366
629T376 601Q376 583 366 573T337 563Q319 563 308 573ZM411 136T416 136T422 133Q415 61 415 15Q415 7 412 4T400 0H36Q34 0 34 6T36 12Q70 12 86 17T107 36T113 81V387Q113 417 108 431T86 450T36 456Q34 456 34 462T36 468H382Q392 468 392 460L393 398Q394
379 394 350Q394 347 388 347T382 350Q382 397 355 426T284 455H250Q212 455 195 450T171 430T164 386V249Q266 250 302 254T342 258Q347 258 347 237Q347 215 342 215Q338 215 302 221T164 228V85Q164 56 170 42T195 22T250 16H308Q347 16 375 48T411 133Q411
136 416 136Z" />
<glyph unicode="&#xec;" glyph-name="igrave" horiz-adv-x="291" d="M135 572T25 599Q18 600 30 607T59 621T80 625Q120 602 164 577T252 532Q254 531 254 528Q254 525 252 523T248 522Q135 572 25 599ZM172 50T177 36T198 17T249 12Q252 12 252 6T249 0Q222 0
207 1L145 2L86 1Q70 0 42 0Q40 0 40 6T42 12Q77 12 93 17T114 36T120 81V387Q120 417 115 431T93 450T42 456Q40 456 40 462T42 468L86 467Q124 465 145 465Q170 465 208 467L249 468Q252 468 252 462T249 456Q216 456 200 450T178 430T172 385V81Q172 50 177
36Z" />
<glyph unicode="&#xed;" glyph-name="iacute" horiz-adv-x="291" d="M50 521Q46 521 45 525T47 532Q93 553 169 597L219 625Q223 627 239 621T268 608T274 599Q212 584 161 566T52 522L50 521ZM172 50T177 36T198 17T249 12Q252 12 252 6T249 0Q222 0 207 1L145
2L86 1Q70 0 42 0Q40 0 40 6T42 12Q77 12 93 17T114 36T120 81V387Q120 417 115 431T93 450T42 456Q40 456 40 462T42 468L86 467Q124 465 145 465Q170 465 208 467L249 468Q252 468 252 462T249 456Q216 456 200 450T178 430T172 385V81Q172 50 177 36Z" />
<glyph unicode="&#xee;" glyph-name="icircumflex" horiz-adv-x="291" d="M138 626Q143 631 150 631Q156 631 161 626L263 533Q264 533 264 531Q264 529 262 527T258 526L150 588L41 526Q39 525 36 528T35 533L138 626ZM172 50T177 36T198 17T249 12Q252 12 252
6T249 0Q222 0 207 1L145 2L86 1Q70 0 42 0Q40 0 40 6T42 12Q77 12 93 17T114 36T120 81V387Q120 417 115 431T93 450T42 456Q40 456 40 462T42 468L86 467Q124 465 145 465Q170 465 208 467L249 468Q252 468 252 462T249 456Q216 456 200 450T178 430T172 385V81Q172
50 177 36Z" />
<glyph unicode="&#xef;" glyph-name="idieresis" horiz-adv-x="291" d="M61 563T50 573T39 601Q39 619 50 629T79 639Q98 639 108 629T118 601Q118 583 108 573T79 563Q61 563 50 573ZM201 563T191 573T180 601Q180 619 190 629T220 639Q238 639 248 629T258 601Q258
583 248 573T220 563Q201 563 191 573ZM172 50T177 36T198 17T249 12Q252 12 252 6T249 0Q222 0 207 1L145 2L86 1Q70 0 42 0Q40 0 40 6T42 12Q77 12 93 17T114 36T120 81V387Q120 417 115 431T93 450T42 456Q40 456 40 462T42 468L86 467Q124 465 145 465Q170
465 208 467L249 468Q252 468 252 462T249 456Q216 456 200 450T178 430T172 385V81Q172 50 177 36Z" />
<glyph unicode="&#xf0;" glyph-name="eth" horiz-adv-x="568" d="M345 470T406 440T499 357T531 237Q531 168 498 113T407 27T273 -4Q245 -4 210 -1Q198 0 180 1T139 2L80 1Q64 0 36 0Q34 0 34 6T36 12Q71 12 87 17T109 36T115 81V228H57Q53 228 53 236Q53 244
57 244H115V387Q115 417 109 431T87 450T37 456Q35 456 35 462T37 468L81 467Q117 465 139 465Q170 465 201 468Q241 470 261 470Q345 470 406 440ZM359 8T414 64T470 226Q470 327 416 392T253 458Q204 458 185 442T165 385V244H297Q299 244 300 242T302 236Q302
233 301 231T297 228H165V92Q165 46 184 27T261 8Q359 8 414 64Z" />
<glyph unicode="&#xf1;" glyph-name="ntilde" horiz-adv-x="571" d="M164 540Q161 540 159 542T158 547Q174 569 196 587T242 605Q259 605 294 594Q338 580 368 580Q385 580 395 587T417 607H419Q422 607 424 605T424 600Q398 566 381 555T346 543Q331 543 315
546T283 555Q241 567 214 567Q198 567 190 562T175 550T165 540H164ZM539 468T539 462T537 456Q500 456 485 436T470 364V-11Q470 -13 465 -14T458 -13L136 386L119 406V104Q119 53 133 33T184 12Q186 12 186 6T184 0Q162 0 151 1L110 2L68 1Q56 0 34 0Q31 0 31
6T34 12Q71 12 85 32T99 104V426Q66 456 36 456Q34 456 34 462T36 468L92 467L135 468Q143 468 146 465T157 449Q168 431 180 416L450 77V364Q450 415 436 435T386 456Q383 456 383 462T386 468L419 467Q443 465 460 465Q476 465 502 467L537 468Q539 468 539 462Z"
/>
<glyph unicode="&#xf2;" glyph-name="ograve" horiz-adv-x="579" d="M274 572T164 599Q157 600 169 607T198 621T219 625Q259 602 303 577T391 532Q393 531 393 528Q393 525 391 523T387 522Q274 572 164 599ZM205 -12T151 21T67 109T37 230Q37 308 78 365T181
451T309 480Q379 480 432 446T513 357T542 242Q542 174 506 116T409 23T275 -12Q205 -12 151 21ZM385 8T434 63T484 216Q484 283 460 338T389 427T276 460Q190 460 143 405T95 254Q95 186 119 130T191 41T302 8Q385 8 434 63Z" />
<glyph unicode="&#xf3;" glyph-name="oacute" horiz-adv-x="579" d="M189 521Q185 521 184 525T186 532Q232 553 308 597L358 625Q362 627 378 621T407 608T413 599Q351 584 300 566T191 522L189 521ZM205 -12T151 21T67 109T37 230Q37 308 78 365T181 451T309
480Q379 480 432 446T513 357T542 242Q542 174 506 116T409 23T275 -12Q205 -12 151 21ZM385 8T434 63T484 216Q484 283 460 338T389 427T276 460Q190 460 143 405T95 254Q95 186 119 130T191 41T302 8Q385 8 434 63Z" />
<glyph unicode="&#xf4;" glyph-name="ocircumflex" horiz-adv-x="579" d="M277 626Q282 631 289 631Q295 631 300 626L402 533Q403 533 403 531Q403 529 401 527T397 526L289 588L180 526Q178 525 175 528T174 533L277 626ZM205 -12T151 21T67 109T37 230Q37 308
78 365T181 451T309 480Q379 480 432 446T513 357T542 242Q542 174 506 116T409 23T275 -12Q205 -12 151 21ZM385 8T434 63T484 216Q484 283 460 338T389 427T276 460Q190 460 143 405T95 254Q95 186 119 130T191 41T302 8Q385 8 434 63Z" />
<glyph unicode="&#xf5;" glyph-name="otilde" horiz-adv-x="579" d="M382 580T392 587T414 607H416Q419 607 421 605T421 600Q395 566 378 555T343 543Q328 543 312 546T280 555Q238 567 211 567Q195 567 187 562T172 550T162 540H161Q158 540 156 542T155 547Q171
569 193 587T239 605Q256 605 291 594Q335 580 365 580Q382 580 392 587ZM205 -12T151 21T67 109T37 230Q37 308 78 365T181 451T309 480Q379 480 432 446T513 357T542 242Q542 174 506 116T409 23T275 -12Q205 -12 151 21ZM385 8T434 63T484 216Q484 283 460 338T389
427T276 460Q190 460 143 405T95 254Q95 186 119 130T191 41T302 8Q385 8 434 63Z" />
<glyph unicode="&#xf6;" glyph-name="odieresis" horiz-adv-x="579" d="M182 563T172 573T161 601Q161 619 171 629T201 639Q219 639 229 629T239 601Q239 583 229 573T201 563Q182 563 172 573ZM358 563T347 573T336 601Q336 619 347 629T376 639Q395 639 405
629T415 601Q415 583 405 573T376 563Q358 563 347 573ZM205 -12T151 21T67 109T37 230Q37 308 78 365T181 451T309 480Q379 480 432 446T513 357T542 242Q542 174 506 116T409 23T275 -12Q205 -12 151 21ZM385 8T434 63T484 216Q484 283 460 338T389 427T276 460Q190
460 143 405T95 254Q95 186 119 130T191 41T302 8Q385 8 434 63Z" />
<glyph unicode="&#xf7;" glyph-name="divide" horiz-adv-x="398" d="M179 361T169 371T158 400Q158 417 168 427T198 437Q216 437 226 427T236 400Q236 382 226 372T198 361Q179 361 169 371ZM32 212T31 218T29 232Q29 238 30 243T33 249H364Q366 249 367 244T369
231Q369 224 368 218T364 212H34Q32 212 31 218ZM179 30T169 40T158 69Q158 86 168 96T198 106Q216 106 226 96T236 69Q236 51 226 41T198 30Q179 30 169 40Z" />
<glyph unicode="&#xf8;" glyph-name="oslash" horiz-adv-x="579" d="M506 379T524 334T542 242Q542 174 506 116T409 23T275 -12Q185 -12 121 42L76 -6L75 -7Q71 -7 66 -2T64 7L108 54Q74 88 56 133T37 230Q37 308 78 365T181 451T309 480Q354 480 392 465T461
424L505 470Q506 471 508 471Q512 471 516 467T517 460L473 413Q506 379 524 334ZM95 155T143 89L429 390Q372 460 276 460Q190 460 143 405T95 254Q95 155 143 89ZM385 8T434 63T484 216Q484 312 438 377L153 76Q180 44 218 26T302 8Q385 8 434 63Z" />
<glyph unicode="&#xf9;" glyph-name="ugrave" horiz-adv-x="580" d="M296 572T186 599Q179 600 191 607T220 621T241 625Q281 602 325 577T413 532Q415 531 415 528Q415 525 413 523T409 522Q296 572 186 599ZM476 408T470 425T447 449T400 456Q397 456 397 462T400
468L438 467Q468 465 485 465Q499 465 527 467L563 468Q565 468 565 462T563 456Q535 456 521 449T502 425T496 375V184Q496 91 444 39T303 -13Q247 -13 202 9T130 74T103 174V387Q103 417 97 431T76 450T26 456Q23 456 23 462T26 468L70 467Q106 465 126 465Q151
465 187 467L229 468Q232 468 232 462T229 456Q196 456 180 450T158 430T152 385V200Q152 106 201 61T325 16Q396 16 436 58T476 182V375Q476 408 470 425Z" />
<glyph unicode="&#xfa;" glyph-name="uacute" horiz-adv-x="580" d="M211 521Q207 521 206 525T208 532Q254 553 330 597L380 625Q384 627 400 621T429 608T435 599Q373 584 322 566T213 522L211 521ZM476 408T470 425T447 449T400 456Q397 456 397 462T400 468L438
467Q468 465 485 465Q499 465 527 467L563 468Q565 468 565 462T563 456Q535 456 521 449T502 425T496 375V184Q496 91 444 39T303 -13Q247 -13 202 9T130 74T103 174V387Q103 417 97 431T76 450T26 456Q23 456 23 462T26 468L70 467Q106 465 126 465Q151 465 187
467L229 468Q232 468 232 462T229 456Q196 456 180 450T158 430T152 385V200Q152 106 201 61T325 16Q396 16 436 58T476 182V375Q476 408 470 425Z" />
<glyph unicode="&#xfb;" glyph-name="ucircumflex" horiz-adv-x="580" d="M299 626Q304 631 311 631Q317 631 322 626L424 533Q425 533 425 531Q425 529 423 527T419 526L311 588L202 526Q200 525 197 528T196 533L299 626ZM476 408T470 425T447 449T400 456Q397
456 397 462T400 468L438 467Q468 465 485 465Q499 465 527 467L563 468Q565 468 565 462T563 456Q535 456 521 449T502 425T496 375V184Q496 91 444 39T303 -13Q247 -13 202 9T130 74T103 174V387Q103 417 97 431T76 450T26 456Q23 456 23 462T26 468L70 467Q106
465 126 465Q151 465 187 467L229 468Q232 468 232 462T229 456Q196 456 180 450T158 430T152 385V200Q152 106 201 61T325 16Q396 16 436 58T476 182V375Q476 408 470 425Z" />
<glyph unicode="&#xfc;" glyph-name="udieresis" horiz-adv-x="580" d="M204 563T194 573T183 601Q183 619 193 629T223 639Q241 639 251 629T261 601Q261 583 251 573T223 563Q204 563 194 573ZM380 563T369 573T358 601Q358 619 369 629T398 639Q417 639 427
629T437 601Q437 583 427 573T398 563Q380 563 369 573ZM476 408T470 425T447 449T400 456Q397 456 397 462T400 468L438 467Q468 465 485 465Q499 465 527 467L563 468Q565 468 565 462T563 456Q535 456 521 449T502 425T496 375V184Q496 91 444 39T303 -13Q247
-13 202 9T130 74T103 174V387Q103 417 97 431T76 450T26 456Q23 456 23 462T26 468L70 467Q106 465 126 465Q151 465 187 467L229 468Q232 468 232 462T229 456Q196 456 180 450T158 430T152 385V200Q152 106 201 61T325 16Q396 16 436 58T476 182V375Q476 408
470 425Z" />
<glyph unicode="&#xfd;" glyph-name="yacute" horiz-adv-x="481" d="M152 521Q148 521 147 525T149 532Q195 553 271 597L321 625Q325 627 341 621T370 608T376 599Q314 584 263 566T154 522L152 521ZM480 468T480 462T477 456Q444 456 412 433T354 366L271 229V81Q271
50 277 36T302 17T360 12Q363 12 363 6T360 0Q330 0 313 1L246 2L181 1Q163 0 131 0Q128 0 128 6T131 12Q170 12 188 17T214 36T221 81V214L109 385Q83 425 61 440T7 456Q5 456 5 462T7 468L38 467Q60 465 69 465Q98 465 142 467L187 468Q190 468 190 462T187 456Q165
456 154 451T142 434Q142 427 150 414L263 242L336 367Q353 395 353 419Q353 436 343 446T313 456Q311 456 311 462T313 468L353 467Q385 465 412 465Q427 465 447 467L477 468Q480 468 480 462Z" />
<glyph unicode="&#xfe;" glyph-name="thorn" horiz-adv-x="454" d="M416 378T416 254Q416 203 392 168T330 115T254 98Q224 98 205 103Q202 103 202 108Q202 111 203 114T207 116Q223 112 243 112Q291 112 324 143T358 234Q358 297 323 331T230 365Q191 365 164
357V85Q164 53 169 39T191 18T242 12Q245 12 245 6T242 0Q214 0 198 1L139 2L80 1Q64 0 36 0Q34 0 34 6T36 12Q70 12 86 17T107 36T113 81V387Q113 417 108 431T86 450T36 456Q34 456 34 462T36 468L80 467Q118 465 139 465Q162 465 198 467L242 468Q245 468 245
462T242 456Q208 456 192 450T170 429T164 382V369Q213 378 254 378Q416 378 416 254Z" />
<glyph unicode="&#xff;" glyph-name="ydieresis" horiz-adv-x="481" d="M145 563T135 573T124 601Q124 619 134 629T164 639Q182 639 192 629T202 601Q202 583 192 573T164 563Q145 563 135 573ZM321 563T310 573T299 601Q299 619 310 629T339 639Q358 639 368
629T378 601Q378 583 368 573T339 563Q321 563 310 573ZM480 468T480 462T477 456Q444 456 412 433T354 366L271 229V81Q271 50 277 36T302 17T360 12Q363 12 363 6T360 0Q330 0 313 1L246 2L181 1Q163 0 131 0Q128 0 128 6T131 12Q170 12 188 17T214 36T221 81V214L109
385Q83 425 61 440T7 456Q5 456 5 462T7 468L38 467Q60 465 69 465Q98 465 142 467L187 468Q190 468 190 462T187 456Q165 456 154 451T142 434Q142 427 150 414L263 242L336 367Q353 395 353 419Q353 436 343 446T313 456Q311 456 311 462T313 468L353 467Q385
465 412 465Q427 465 447 467L477 468Q480 468 480 462Z" />
<glyph unicode="&#x2013;" glyph-name="endash" horiz-adv-x="515" d="M32 219T31 225T29 239Q29 245 30 250T33 256H481Q483 256 484 251T486 238Q486 231 485 225T481 219H34Q32 219 31 225Z" />
<glyph unicode="&#x2014;" glyph-name="emdash" horiz-adv-x="830" d="M32 219T31 225T29 239Q29 245 30 250T33 256H796Q798 256 799 251T801 238Q801 231 800 225T796 219H34Q32 219 31 225Z" />
<glyph unicode="&#x2018;" glyph-name="quoteleft" horiz-adv-x="166" d="M109 482T118 473T128 447Q128 412 87 412Q58 412 42 433T25 495Q25 534 42 567T94 633Q95 634 97 634Q100 634 102 631T102 626Q53 576 53 508Q53 482 63 467Q71 482 92 482Q109 482 118 473Z" />
<glyph unicode="&#x2019;" glyph-name="quoteright" horiz-adv-x="154" d="M96 635T112 614T129 552Q129 513 112 480T60 414Q59 413 57 413Q54 413 52 416T52 421Q101 471 101 539Q101 565 91 580Q84 565 62 565Q45 565 36 574T26 600Q26 635 67 635Q96 635 112 614Z" />
<glyph unicode="&#x201a;" glyph-name="quotesinglbase" horiz-adv-x="154" d="M96 62T112 41T129 -21Q129 -60 112 -93T60 -159Q59 -160 57 -160Q54 -160 52 -157T52 -152Q101 -102 101 -34Q101 -8 91 7Q84 -8 62 -8Q45 -8 36 1T26 27Q26 62 67 62Q96 62 112 41Z" />
<glyph unicode="&#x201c;" glyph-name="quotedblleft" horiz-adv-x="295" d="M110 482T119 473T129 447Q129 412 88 412Q59 412 43 433T26 495Q26 534 43 567T95 633Q96 634 98 634Q101 634 103 631T103 626Q54 576 54 508Q54 482 64 467Q72 482 93 482Q110 482
119 473ZM250 482T259 473T269 447Q269 412 228 412Q199 412 183 433T166 495Q166 534 183 567T235 633Q236 634 238 634Q241 634 243 631T243 626Q194 576 194 508Q194 482 204 467Q212 482 233 482Q250 482 259 473Z" />
<glyph unicode="&#x201d;" glyph-name="quotedblright" horiz-adv-x="295" d="M96 635T112 614T129 552Q129 513 112 480T60 414Q59 413 57 413Q54 413 52 416T52 421Q101 471 101 539Q101 565 91 580Q84 565 62 565Q45 565 36 574T26 600Q26 635 67 635Q96 635
112 614ZM236 635T252 614T269 552Q269 513 252 480T200 414Q199 413 197 413Q194 413 192 416T192 421Q241 471 241 539Q241 565 231 580Q224 565 202 565Q185 565 176 574T166 600Q166 635 207 635Q236 635 252 614Z" />
<glyph unicode="&#x201e;" glyph-name="quotedblbase" horiz-adv-x="295" d="M96 62T112 41T129 -21Q129 -60 112 -93T60 -159Q59 -160 57 -160Q54 -160 52 -157T52 -152Q101 -102 101 -34Q101 -8 91 7Q84 -8 62 -8Q45 -8 36 1T26 27Q26 62 67 62Q96 62 112 41ZM236
62T252 41T269 -21Q269 -60 252 -93T200 -159Q199 -160 197 -160Q194 -160 192 -157T192 -152Q241 -102 241 -34Q241 -8 231 7Q224 -8 202 -8Q185 -8 176 1T166 27Q166 62 207 62Q236 62 252 41Z" />
<glyph unicode="&#x2022;" glyph-name="bullet" horiz-adv-x="301" d="M112 142T85 168T58 234Q58 272 85 298T151 325Q189 325 215 299T242 234Q242 195 216 169T151 142Q112 142 85 168Z" />
<glyph unicode="&#x2039;" glyph-name="guilsinglleft" horiz-adv-x="304" d="M61 225Q57 229 57 236Q57 243 61 247L235 396Q235 397 237 397Q239 397 241 395T242 391L112 236L242 81Q243 79 240 76T235 75L61 225Z" />
<glyph unicode="&#x203a;" glyph-name="guilsinglright" horiz-adv-x="304" d="M243 247Q248 242 248 236Q248 230 243 225L69 75Q69 74 67 74Q65 74 63 76T62 81L192 235L62 391Q61 393 64 396T69 396L243 247Z" />
</font>
</defs>
</svg>
