<?xml version="1.0" standalone="no"?>
<!DOCTYPE svg PUBLIC "-//W3C//DTD SVG 1.1//EN" "http://www.w3.org/Graphics/SVG/1.1/DTD/svg11.dtd">
<svg xmlns="http://www.w3.org/2000/svg">
<defs >
<font id="AdventPro" horiz-adv-x="393" ><font-face
    font-family="Advent Pro Medium"
    units-per-em="1000"
    panose-1="2 0 5 6 4 0 0 2 0 4"
    ascent="964"
    descent="-232"
    alphabetic="0" />
<glyph unicode=" " glyph-name="space" horiz-adv-x="278" />
<glyph unicode="!" glyph-name="exclam" horiz-adv-x="240" d="M147 120H91L79 663Q79 710 119 710T160 664L147 120ZM157 54T157 38T146 11T119 0T92 11T80 38T91 65T118 76T145 65Z" />
<glyph unicode="&quot;" glyph-name="quotedbl" horiz-adv-x="426" d="M166 512H119L105 698Q105 721 124 731Q133 736 142 736T161 732Q180 722 180 698L166 512ZM310 512H263L249 698Q249 721 268 731Q277 736 286 736T305 732Q324 722 324 698L310 512Z" />
<glyph unicode="#" glyph-name="numbersign" horiz-adv-x="613" d="M582 183H399L356 0H284L326 183H207L165 0H95L137 183H34V252H154L188 396H34V469H205L259 700H329L275 469H394L448 700H521L467 469H582V396H449L415 252H582V183ZM342 252L377 396H258L224 252H342Z" />
<glyph unicode="$" glyph-name="dollar" horiz-adv-x="540" d="M307 -114H235V-9Q142 1 89 56T34 178L109 183Q113 140 147 106T235 63V353Q156 381 119 409T67 467T52 538Q52 599 99 647T235 707V817H307V709Q369 705 423 680Q423 678 401 612Q356 633 307 636V403Q352
386 381 371T444 331Q509 281 509 195T460 54T307 -9V-114ZM307 323V62Q363 71 397 102T431 185T399 267T307 323ZM235 432V634Q184 626 156 601T128 537T156 475T235 432Z" />
<glyph unicode="%" glyph-name="percent" horiz-adv-x="676" d="M83 0L34 49L590 741L645 693L83 0ZM556 -11T496 -11T394 31T352 133T394 235T496 277T598 235T640 133T598 31ZM572 103T572 133T551 186T496 209T441 186T420 133T441 80T496 57T551 80ZM245 439T185
439T83 481T41 583T83 685T185 727T287 685T329 583T287 481ZM262 553T262 583T241 636T185 659T130 636T109 583T130 530T185 507T240 530Z" />
<glyph unicode="&amp;" glyph-name="ampersand" horiz-adv-x="552" d="M498 45L482 -11Q398 8 374 73Q323 -11 213 -11Q123 -11 76 52Q35 107 35 179Q35 241 58 287T115 359Q168 401 232 428Q199 436 175 470Q148 508 148 552T165 631Q200 697 294 710Q305 712
326 712T381 699L340 638Q322 644 300 644T256 628Q219 602 220 555T260 484Q289 466 308 466T337 468L359 472V605L432 609V484L505 500L521 430L432 411V154Q432 67 498 45ZM359 220V395Q234 367 172 318Q147 298 128 268Q106 230 106 181T133 96T222 60T321
109T359 220Z" />
<glyph unicode="&apos;" glyph-name="quotesingle" horiz-adv-x="173" d="M107 589H60L46 698Q46 721 64 731Q74 736 83 736T102 732Q121 722 121 698L107 589Z" />
<glyph unicode="(" glyph-name="parenleft" horiz-adv-x="297" d="M217 -68L187 -118Q129 -84 104 -45T78 71V627Q78 704 103 743T187 817L216 765Q150 725 150 627V71Q150 12 167 -16T217 -68Z" />
<glyph unicode=")" glyph-name="parenright" horiz-adv-x="297" d="M107 -118L78 -68Q111 -45 128 -17T145 71V627Q145 724 78 765L107 817Q165 783 191 744T217 627V71Q217 -6 192 -45T107 -118Z" />
<glyph unicode="*" glyph-name="asterisk" horiz-adv-x="352" d="M294 454L234 412L175 515L118 412L57 455L130 541L21 571L45 635L148 587L138 700H211L201 587L304 636L332 570L219 541L294 454Z" />
<glyph unicode="+" glyph-name="plus" horiz-adv-x="385" d="M230 216H158V343H34V413H158V545H230V413H354V343H230V216Z" />
<glyph unicode="," glyph-name="comma" horiz-adv-x="165" d="M57 -84L8 -56Q51 -31 74 -3L63 0Q41 13 41 34T53 66T73 76Q98 76 110 62T122 32Q122 -28 57 -84Z" />
<glyph unicode="-" glyph-name="hyphen" horiz-adv-x="410" d="M365 343H45V413H365V343Z" />
<glyph unicode="." glyph-name="period" horiz-adv-x="127" d="M62 0T46 0T19 11T8 38T19 65T46 76T73 65T84 38T73 11Z" />
<glyph unicode="/" glyph-name="slash" horiz-adv-x="441" d="M98 -114H21L345 817H421L98 -114Z" />
<glyph unicode="0" glyph-name="zero" horiz-adv-x="549" d="M483 506V185Q483 84 422 37T274 -11T126 36T63 185V507Q63 610 119 663T275 716T428 660T483 506ZM411 193V502Q411 571 376 607T273 643Q135 643 135 502V191Q135 127 173 94T273 60T373 93T411 193Z" />
<glyph unicode="1" glyph-name="one" horiz-adv-x="221" d="M201 0H128V608Q102 586 54 574L39 571L21 637Q42 637 75 655T128 700H201V0Z" />
<glyph unicode="2" glyph-name="two" horiz-adv-x="399" d="M379 0H21V67L267 438Q302 494 302 536Q302 585 271 612T203 640T138 618T100 560L35 590Q54 642 97 676T208 710T324 667Q376 620 376 552T332 410L105 67H379V0Z" />
<glyph unicode="3" glyph-name="three" horiz-adv-x="431" d="M21 83L74 127Q93 96 126 78T197 59Q258 59 298 100T338 201T296 300T189 343H79L271 628H66V700H354V633L207 413H210Q293 409 352 349T411 200T349 50T198 -12Q144 -12 97 13T21 83Z" />
<glyph unicode="4" glyph-name="four" horiz-adv-x="500" d="M408 0H336V343H21L214 700H289L141 413H336V700H408V413H480L461 343H408V0Z" />
<glyph unicode="5" glyph-name="five" horiz-adv-x="431" d="M21 83L74 128Q121 60 198 60Q260 60 299 101T338 202T294 302T185 343H51L89 700H355V628H155L132 413H198Q287 413 349 351T411 201T349 50T198 -12Q144 -12 97 13T21 83Z" />
<glyph unicode="6" glyph-name="six" horiz-adv-x="466" d="M21 201V461Q21 544 72 616Q98 653 148 676T265 700H300V628H265Q193 628 143 586T92 450V348Q112 378 151 395T233 413Q322 413 384 351T446 201T384 50T234 -12T83 50T21 201ZM92 206V201Q92 142 133
101T233 59T333 100T374 201T333 300T234 341T134 302T92 206Z" />
<glyph unicode="7" glyph-name="seven" horiz-adv-x="441" d="M109 0H30L339 628H26V700H420V628L109 0Z" />
<glyph unicode="8" glyph-name="eight" horiz-adv-x="467" d="M93 142T134 101T233 60T333 101T374 201T334 300T228 342Q171 341 132 300T93 201ZM334 388Q385 360 416 311T447 201Q447 112 385 50T234 -12T84 50T21 201Q21 262 52 312T135 389Q60 440 60 533Q60
606 111 657T235 709T359 658T411 533Q411 439 334 388ZM230 429Q276 429 308 459T340 533T309 608T235 639T160 608T128 534T157 461T230 429Z" />
<glyph unicode="9" glyph-name="nine" horiz-adv-x="466" d="M202 0H167V69H206Q277 69 325 116T374 251V342Q319 285 232 285T83 347T21 497T83 648T234 710T384 648T446 497V239Q446 156 396 84Q369 47 319 24T202 0ZM92 438T133 397T233 356T333 397T374 498T333
599T233 639T134 598T92 497Z" />
<glyph unicode=":" glyph-name="colon" horiz-adv-x="121" d="M100 363T89 351T61 339T33 350T21 378T33 406T61 418T88 407T100 379ZM100 166T100 150T88 123T60 111T33 122T21 150T32 178T60 190T88 178Z" />
<glyph unicode=";" glyph-name="semicolon" horiz-adv-x="155" d="M111 230T95 230T68 241T56 268T67 295T94 307T122 296T133 268T122 241ZM69 -84L21 -56Q66 -30 80 -10L86 -3L76 0Q54 13 54 34T66 66T86 76Q111 76 122 62T134 30Q134 -27 69 -84Z" />
<glyph unicode="&lt;" glyph-name="less" horiz-adv-x="369" d="M348 126L299 80L21 358V359L299 637L348 589L116 358L348 126Z" />
<glyph unicode="=" glyph-name="equal" horiz-adv-x="361" d="M341 358H21V428H341V358ZM341 238H21V308H341V238Z" />
<glyph unicode="&gt;" glyph-name="greater" horiz-adv-x="369" d="M70 80L21 126L253 358L21 589L70 637L348 359V358L70 80Z" />
<glyph unicode="?" glyph-name="question" horiz-adv-x="401" d="M221 119H152V212Q152 258 166 296T196 354T238 402T275 447Q304 493 304 532Q304 580 273 610T198 640T124 612T93 532H21Q21 607 67 658T199 709Q251 709 294 682Q379 628 379 531Q379 472 343
420Q324 393 298 366T258 323T233 272T221 182V119ZM224 54T224 38T213 11T186 0T159 11T148 38T159 65T186 76T213 65Z" />
<glyph unicode="@" glyph-name="at" horiz-adv-x="726" d="M536 91Q395 53 325 53Q270 53 220 77Q157 108 151 204V305Q151 416 239 449Q274 462 313 462Q381 462 462 424Q456 474 418 497T330 521T239 512T164 483Q90 440 90 338V190Q90 120 126 74T214 11T334
-6T461 11T559 67T599 162V341Q599 420 606 433T623 460Q638 483 684 496L705 442Q668 427 668 370L669 173Q669 105 637 55T551 -22Q445 -74 321 -74T109 -9T21 183V342Q21 398 39 441T88 512Q145 561 214 575Q255 586 282 586T344 584T425 567T504 509T536 399L573
383V317L536 333V91ZM464 356Q390 394 312 394Q272 394 247 371T221 300V215Q221 148 280 126Q301 119 342 119T464 143V356Z" />
<glyph unicode="A" glyph-name="A" horiz-adv-x="527" d="M517 0H436L367 226H159L93 0H15L221 700H304L517 0ZM349 300L262 584L178 300H349Z" />
<glyph unicode="B" glyph-name="B" horiz-adv-x="546" d="M305 0H78V700H294Q376 700 425 657T475 525T409 391Q408 390 408 389V388Q452 368 481 324T511 208Q511 145 484 94Q436 0 305 0ZM150 413H279Q396 413 396 523Q396 630 277 630H150V413ZM150 67H289Q356
67 393 98T431 203T394 310T303 343H150V67Z" />
<glyph unicode="C" glyph-name="C" horiz-adv-x="434" d="M138 185Q138 60 275 60Q334 60 413 87L427 23Q342 -10 265 -10Q249 -10 217 -7T148 15T89 77T66 183V504Q66 580 87 619T153 685Q198 710 260 710Q337 710 402 677L381 620Q327 640 285 640T215 632T162
593T138 513V185Z" />
<glyph unicode="D" glyph-name="D" horiz-adv-x="576" d="M286 0H78V701H266Q379 701 438 639T498 474V200Q498 0 286 0ZM426 190V484Q426 559 383 595T276 632H150V65H270Q381 65 412 124Q426 150 426 190Z" />
<glyph unicode="E" glyph-name="E" horiz-adv-x="465" d="M410 0H78V700H412V631H150V413H325L302 343H150V65H410V0Z" />
<glyph unicode="F" glyph-name="F" horiz-adv-x="447" d="M150 0H78V700H412V630H150V413H312L285 343H150V0Z" />
<glyph unicode="G" glyph-name="G" horiz-adv-x="537" d="M476 0H416L404 31Q356 -10 272 -10T127 40T65 189V503Q65 631 152 684Q197 709 259 709Q336 709 401 676L380 620Q326 640 277 640Q137 640 137 512V187Q137 126 175 94T273 61T369 94T406 186V230H343L319
300H476V0Z" />
<glyph unicode="H" glyph-name="H" horiz-adv-x="588" d="M508 0H436V343H150V0H78V700H150V413H436V700H508V0Z" />
<glyph unicode="I" glyph-name="I" horiz-adv-x="279" d="M202 0H130V632L64 634V700H202V0Z" />
<glyph unicode="J" glyph-name="J" horiz-adv-x="207" d="M25 -37L5 17Q40 17 67 41T94 127V632L29 634V700H166V124Q166 -36 25 -37Z" />
<glyph unicode="K" glyph-name="K" horiz-adv-x="492" d="M492 0H404L189 325L154 269V0H79V701H154V395L359 701H444L234 391L492 0Z" />
<glyph unicode="L" glyph-name="L" horiz-adv-x="440" d="M439 0H78V700H150V65H439V0Z" />
<glyph unicode="M" glyph-name="M" horiz-adv-x="694" d="M614 0H542V485L379 0H311L150 485V0H78V700H150L345 131L542 700H614V0Z" />
<glyph unicode="N" glyph-name="N" horiz-adv-x="650" d="M570 0H497L150 560V0H78V700H150L497 141V700H570V0Z" />
<glyph unicode="O" glyph-name="O" horiz-adv-x="549" d="M483 506V185Q483 84 422 37T274 -11T126 36T63 185V507Q63 610 119 663T275 716T428 660T483 506ZM411 193V502Q411 571 376 607T273 643Q135 643 135 502V191Q135 127 173 94T273 60T373 93T411 193Z" />
<glyph unicode="P" glyph-name="P" horiz-adv-x="547" d="M150 300H317Q353 300 378 314T414 344T432 390T439 435T440 478Q440 630 313 630H150V300ZM150 0H78V700H319Q417 700 464 639T512 479Q512 444 510 419T498 355T469 292T414 249T326 230H150V0Z" />
<glyph unicode="Q" glyph-name="Q" horiz-adv-x="549" d="M429 -35L425 -101Q424 -101 422 -101Q299 -101 257 -10Q181 -6 127 35Q98 57 81 95T63 185V507Q63 610 119 663T275 716T428 660T483 506V185Q483 99 439 53T330 -5Q355 -35 429 -35ZM411 187V513Q411
574 375 609T273 644T171 610T135 513V186Q135 135 163 100T239 60Q236 78 236 117V174H308V118Q308 78 310 61Q357 66 384 100T411 187Z" />
<glyph unicode="R" glyph-name="R" horiz-adv-x="564" d="M513 0H439L360 232Q342 230 328 230H150V0H78V700H321Q417 700 464 639T512 479Q512 356 474 300Q456 273 427 255L513 0ZM150 300H319Q378 300 404 334Q416 351 423 366T434 406Q438 439 438 479Q438
630 310 630H150V300Z" />
<glyph unicode="S" glyph-name="S" horiz-adv-x="561" d="M37 178L112 183Q117 133 160 96T273 59T388 91T434 186Q434 232 406 264T336 314T245 351T153 390T83 447T55 538Q55 608 113 659T280 710Q363 710 426 680Q426 678 404 612Q342 639 277 639T171 611T131
535Q131 477 208 443Q242 428 282 414T363 381T436 340T491 280T512 193Q512 101 454 45T280 -11T102 46T37 178Z" />
<glyph unicode="T" glyph-name="T" horiz-adv-x="402" d="M234 0H162V632H0V700H402V632H234V0Z" />
<glyph unicode="U" glyph-name="U" horiz-adv-x="566" d="M423 194V701H495V186Q495 133 477 94T427 34T360 3T285 -7T210 3T143 34T93 94T74 186V701H146V194Q146 132 183 96T284 60T385 96T423 194Z" />
<glyph unicode="V" glyph-name="V" horiz-adv-x="591" d="M364 0H271L78 700H157L317 113L476 700H556L364 0Z" />
<glyph unicode="W" glyph-name="W" horiz-adv-x="809" d="M620 0H523L427 525L332 0H234L78 700H156L281 124L388 700H466L573 124L694 700H774L620 0Z" />
<glyph unicode="X" glyph-name="X" horiz-adv-x="648" d="M606 0H515L341 279L167 0H78L298 351L95 700H178L342 425L506 700H590L386 354L606 0Z" />
<glyph unicode="Y" glyph-name="Y" horiz-adv-x="556" d="M382 -11L362 40Q391 49 409 73T427 156V272Q378 230 279 230T118 284T56 441V700H129V437Q129 370 171 336T276 301T378 322T427 383V700H500V156Q500 4 382 -11Z" />
<glyph unicode="Z" glyph-name="Z" horiz-adv-x="550" d="M518 0H31V65L421 631H44V700H512V632L122 67H518V0Z" />
<glyph unicode="[" glyph-name="bracketleft" horiz-adv-x="319" d="M239 -114H78V817H239V754L150 744V-41L239 -51V-114Z" />
<glyph unicode="\" glyph-name="backslash" horiz-adv-x="513" d="M472 -114H395L72 817H148L472 -114Z" />
<glyph unicode="]" glyph-name="bracketright" horiz-adv-x="319" d="M239 -114H78V-51L167 -41V744L78 754V817H239V-114Z" />
<glyph unicode="^" glyph-name="asciicircum" horiz-adv-x="403" d="M368 758L321 719L225 817L124 719L78 758L226 899L368 758Z" />
<glyph unicode="_" glyph-name="underscore" horiz-adv-x="350" d="M393 -61H73V0H393V-61Z" />
<glyph unicode="`" glyph-name="grave" horiz-adv-x="222" d="M170 590H117L54 673Q46 684 46 692Q46 720 69 729Q75 731 83 731Q109 731 120 705L170 590Z" />
<glyph unicode="a" glyph-name="a" horiz-adv-x="458" d="M37 252Q37 401 189 401Q210 401 234 398Q305 386 350 353Q350 456 209 456L214 509Q295 509 334 490Q355 479 371 468T396 439T411 408T419 371Q422 336 422 298V0Q318 -10 256 -10Q37 -10 37 169V252ZM350
61V288Q282 323 203 332Q196 332 189 332Q157 332 133 313T109 246V168Q109 54 265 54Q303 54 350 61Z" />
<glyph unicode="b" glyph-name="b" horiz-adv-x="482" d="M150 482Q197 509 257 509T362 490Q447 451 447 346V157Q447 58 369 18Q310 -12 237 -12T78 0V700H150V482ZM376 156V335Q376 383 350 410Q321 441 264 441L214 436Q177 428 150 412V62Q200 55 225 55T254
56Q304 56 340 82T376 156Z" />
<glyph unicode="c" glyph-name="c" horiz-adv-x="383" d="M248 58Q291 58 341 70L358 6Q294 -11 242 -11T140 5Q36 39 36 180V308Q36 379 64 427Q112 510 222 510Q288 510 356 478L336 421Q276 443 226 443Q173 443 141 409T108 314V169Q108 58 248 58Z" />
<glyph unicode="d" glyph-name="d" horiz-adv-x="482" d="M163 490Q207 509 269 509T375 481V700H447V0Q361 -12 288 -12T156 18Q78 58 78 157V346Q78 451 163 490ZM375 412Q323 440 261 440Q202 440 176 410T149 332V154Q149 108 182 82Q218 55 271 55T375 63V412Z" />
<glyph unicode="e" glyph-name="e" horiz-adv-x="434" d="M107 138Q107 53 207 53Q269 53 343 94L370 35Q293 -12 209 -12Q35 -12 35 134V339Q35 420 85 465T219 510T348 466T395 342V205L107 190V138ZM322 269V346Q322 399 289 421T212 444T138 417T107 338V258L322
269Z" />
<glyph unicode="f" glyph-name="f" horiz-adv-x="303" d="M151 0H78V549Q78 601 96 637T142 688Q187 712 232 712Q250 712 268 707L257 643Q244 645 233 645Q201 645 176 626T151 549V501H257L233 433H151V0Z" />
<glyph unicode="g" glyph-name="g" horiz-adv-x="448" d="M292 -210L274 -154Q342 -135 342 -58V45Q308 -12 222 -12T86 36T37 176V325Q37 413 88 461T225 510T345 457L348 501H414V-64Q414 -127 386 -162T292 -210ZM342 190V330Q342 385 309 413T225 442T142
412T109 320V174Q109 117 139 87T223 56T309 90T342 190Z" />
<glyph unicode="h" glyph-name="h" horiz-adv-x="493" d="M136 481Q180 510 243 510T348 491Q433 452 433 346V0H361V332Q361 382 336 410Q307 443 247 443T136 414V0H64V700H136V481Z" />
<glyph unicode="i" glyph-name="i" horiz-adv-x="240" d="M160 652T148 640T120 628T91 640T78 669T90 697T119 710T148 698T160 669ZM154 0H82V501H154V0Z" />
<glyph unicode="j" glyph-name="j" horiz-adv-x="206" d="M69 -50V432L22 437L0 501H141V-75Q139 -132 102 -170T9 -209L-5 -153Q4 -153 19 -146T44 -128Q69 -101 69 -50ZM147 652T135 640T107 628T78 640T65 669T77 698T107 710T135 698T147 669Z" />
<glyph unicode="k" glyph-name="k" horiz-adv-x="446" d="M447 0H358L179 298L138 262V0H66V700H138V349L323 520L375 470L232 346Q305 225 447 0Z" />
<glyph unicode="l" glyph-name="l" horiz-adv-x="230" d="M150 0H78V700H150V0Z" />
<glyph unicode="m" glyph-name="m" horiz-adv-x="737" d="M385 461Q470 509 546 509Q618 509 660 463T702 346V0H630V331Q630 417 574 436Q553 442 539 442T506 441T454 427L423 412Q436 384 436 349V0H364V330Q364 377 342 405Q314 442 258 442T150 412V0H78V501H146L147
476Q204 508 271 508T385 461Z" />
<glyph unicode="n" glyph-name="n" horiz-adv-x="500" d="M133 475Q179 509 257 509Q308 509 348 491Q433 452 433 346V0H361V335Q361 394 325 418T240 443T136 413V0H64V501H132L133 475Z" />
<glyph unicode="o" glyph-name="o" horiz-adv-x="486" d="M451 316V184Q451 100 405 45T266 -10T126 45T78 184V316Q78 411 126 461T264 512T402 460T451 316ZM379 174V316Q379 443 266 443Q150 443 150 316V174Q150 120 181 89T266 57T349 88T379 174Z" />
<glyph unicode="p" glyph-name="p" horiz-adv-x="490" d="M150 -188L78 -210V501H148L147 463Q191 509 265 509Q358 509 406 455T455 315V176Q455 85 404 37T273 -12T150 30V-188ZM383 177V319Q383 382 351 411T269 441T186 412T150 324V173Q150 116 181 87T266
57T352 87T383 177Z" />
<glyph unicode="q" glyph-name="q" horiz-adv-x="448" d="M414 -210L342 -188V30Q301 -12 220 -12T88 36T37 176V314Q37 400 85 454T227 509Q296 509 346 461L344 501H414V-210ZM342 174V321Q340 386 305 413T224 441T144 413T109 313V170Q109 115 140 86T226
57T311 86T342 174Z" />
<glyph unicode="r" glyph-name="r" horiz-adv-x="347" d="M133 0H61V501H131V475Q176 508 245 508Q279 508 320 500L302 432Q267 443 230 443T163 424T133 371V0Z" />
<glyph unicode="s" glyph-name="s" horiz-adv-x="431" d="M36 127L106 130Q110 93 143 73T219 52T293 71T325 127T298 185T232 219T154 246T84 290Q47 325 47 375T87 469T219 513Q251 513 279 506T319 491L331 484L308 421Q276 446 224 446T147 427T121 377Q121
344 153 325T225 293T304 264T371 214T399 124T354 27T223 -15T87 26T36 127Z" />
<glyph unicode="t" glyph-name="t" horiz-adv-x="252" d="M185 43L164 -13Q100 -1 72 35T44 132V700H117V501H229L205 433H117V132Q117 61 185 43Z" />
<glyph unicode="u" glyph-name="u" horiz-adv-x="447" d="M409 0H340V37Q297 -11 224 -11Q36 -11 36 172V501H108V172Q108 57 224 57Q337 57 337 173V501H409V0Z" />
<glyph unicode="v" glyph-name="v" horiz-adv-x="433" d="M257 0H171L16 501H93L214 99L336 501H413L257 0Z" />
<glyph unicode="w" glyph-name="w" horiz-adv-x="706" d="M529 0H443L351 364L258 0H172L16 501H93L214 99L317 501H388L491 99L609 501H686L529 0Z" />
<glyph unicode="x" glyph-name="x" horiz-adv-x="508" d="M470 0H385L272 180L160 0H73L229 249L73 501H159L273 318L388 501H473L315 249L470 0Z" />
<glyph unicode="y" glyph-name="y" horiz-adv-x="488" d="M298 -210L275 -154Q342 -134 342 -61V35Q307 -12 220 -12T85 35T37 176V501H108V178Q108 57 220 57Q341 57 341 178V363Q341 422 359 459T431 510L454 456Q412 442 412 385V-61Q412 -123 386 -159T298 -210Z" />
<glyph unicode="z" glyph-name="z" horiz-adv-x="480" d="M445 0H78V66L333 434H87V501H427V436L170 67H445V0Z" />
<glyph unicode="{" glyph-name="braceleft" horiz-adv-x="325" d="M290 -60L268 -116Q220 -93 197 -67T163 4T152 134V247Q152 266 136 290T110 325T78 354Q102 373 126 404T150 462V567Q150 690 173 741T267 822L288 768Q222 733 222 636V456Q222 413 164 355Q224
295 224 253V72Q224 -28 290 -60Z" />
<glyph unicode="|" glyph-name="bar" horiz-adv-x="230" d="M150 -114H78V817H150V-114Z" />
<glyph unicode="}" glyph-name="braceright" horiz-adv-x="325" d="M100 -116L78 -60Q144 -28 144 72V253Q144 295 204 355Q146 413 146 456V636Q146 733 80 768L101 822Q171 792 194 741T218 567V462Q218 435 242 404T290 354Q269 335 259 325T232 291T216 247V134Q216
50 206 5T172 -67T100 -116Z" />
<glyph unicode="~" glyph-name="asciitilde" horiz-adv-x="523" d="M371 342Q425 342 456 379L488 331Q444 274 374 274Q346 274 256 302Q228 310 201 310Q144 310 109 271L78 319Q124 376 195 376Q222 376 282 359T371 342Z" />
<glyph unicode="&#xa1;" glyph-name="exclamdown" horiz-adv-x="240" d="M79 47L91 590H147L160 46Q160 0 120 0T79 47ZM157 656T146 645T119 633T92 644T80 672T91 699T118 710T145 699T157 672Z" />
<glyph unicode="&#xa2;" glyph-name="cent" horiz-adv-x="435" d="M303 -114H232V-7Q142 5 104 64Q78 105 78 180V308Q78 397 120 448T232 508V623H303V507Q348 500 398 478L378 421Q341 435 303 440V57Q347 60 383 70L400 6Q347 -7 303 -10V-114ZM232 63V437Q150
414 150 314V169Q150 84 232 63Z" />
<glyph unicode="&#xa3;" glyph-name="sterling" horiz-adv-x="473" d="M438 0H78V65Q131 83 161 126T192 225Q192 254 178 303H101V374H155Q125 466 125 515Q125 602 179 655T310 709T427 684L404 620Q364 642 313 642T229 605T196 513Q196 478 230 374H421V303H253Q265
257 265 226Q265 129 194 69H438V0Z" />
<glyph unicode="&#xa4;" glyph-name="currency" horiz-adv-x="475" d="M392 143L357 178Q316 148 260 148T161 179L127 142L82 188L115 222Q84 265 84 319T114 420L80 455L128 501L160 467Q202 499 259 499T357 469L390 502L438 454L404 422Q435 375 435 324T403
221L437 188L392 143ZM303 217T335 248T367 323T335 399T259 431T183 400T151 324T182 248T258 217Z" />
<glyph unicode="&#xa5;" glyph-name="yen" horiz-adv-x="585" d="M350 0H278V238H155V308H278V332L264 358H155V428H226L78 700H157L305 428H320L471 700H550L401 428H475V358H363L350 334V308H475V238H350V0Z" />
<glyph unicode="&#xa7;" glyph-name="section" horiz-adv-x="588" d="M78 -8H152Q155 -55 198 -92T311 -129T428 -99T477 -1Q477 36 456 63T400 107T325 138T243 169T169 207T115 265T94 352T128 445Q96 485 96 540Q96 610 154 661T321 712Q404 712 467 682Q461
664 455 647T444 614Q387 643 318 643T210 615T170 537Q170 502 198 477T268 438T359 405T450 365T522 304Q553 260 553 198T530 92Q553 57 553 6Q553 -86 495 -141T321 -197T143 -140T78 -8ZM472 149Q479 175 479 198Q479 244 445 277T367 326T267 362T184 401Q169
378 169 340T202 272T280 230Q421 186 472 149Z" />
<glyph unicode="&#xa8;" glyph-name="dieresis" horiz-adv-x="222" d="M73 715T73 700T62 675T36 664T11 674T0 700T10 726T36 737T62 726ZM200 664T185 664T160 674T149 700T159 726T185 737T211 727T222 701T211 675Z" />
<glyph unicode="&#xa9;" glyph-name="copyright" horiz-adv-x="800" d="M774 89T665 -19T401 -127T135 -19T25 248T134 514T400 621T666 514T774 248ZM100 115T187 30T400 -56T613 30T700 245T613 462T400 550T187 465T100 248ZM522 175H599Q583 103 529 60T405
16Q306 16 249 81T191 244T248 410T403 478Q476 478 531 435T598 323H522Q514 357 481 380T403 403Q334 403 300 359T266 248T301 135T404 90Q450 90 484 114T522 175Z" />
<glyph unicode="&#xaa;" glyph-name="ordfeminine" horiz-adv-x="382" d="M347 391Q278 380 247 380T186 383T132 400T94 444T78 519Q78 600 138 624Q158 632 180 632Q226 632 284 597Q284 661 188 661Q182 661 176 661L181 709Q184 709 186 709Q281 709 314 674T347
555V391ZM284 541Q221 576 182 576Q163 576 149 562T135 513T156 457Q178 436 213 436T284 443V541Z" />
<glyph unicode="&#xab;" glyph-name="guillemotleft" horiz-adv-x="498" d="M275 124L229 80L42 267V268L229 455L277 407L136 267L275 124ZM495 124L449 80L262 267V268L449 455L497 407L356 267L495 124Z" />
<glyph unicode="&#xad;" glyph-name="uni00AD" horiz-adv-x="410" d="M365 343H45V413H365V343Z" />
<glyph unicode="&#xae;" glyph-name="registered" horiz-adv-x="800" d="M577 39H498L397 229H339V39H268V476H414Q490 476 529 443T568 351Q568 258 468 236L577 39ZM339 291H397Q443 291 469 303T496 349T472 399T413 414H339V291ZM774 89T665 -19T401 -127T135
-19T25 248T134 514T400 621T666 514T774 248ZM100 115T187 30T400 -56T613 30T700 245T613 462T400 550T187 465T100 248Z" />
<glyph unicode="&#xaf;" glyph-name="overscore" horiz-adv-x="334" d="M299 619H78V687H299V619Z" />
<glyph unicode="&#xb0;" glyph-name="degree" horiz-adv-x="401" d="M282 421T222 421T120 463T78 565T120 667T222 709T324 667T366 565T324 463ZM259 484T281 508T303 564T281 621T222 646T164 622T141 565T163 508T222 484Z" />
<glyph unicode="&#xb1;" glyph-name="plusminus" horiz-adv-x="433" d="M398 228H78V296H204V355H78V420H204V545H273V420H398V355H273V296H398V228Z" />
<glyph unicode="&#xb4;" glyph-name="acute" horiz-adv-x="222" d="M99 588H46L95 703Q107 729 134 729Q141 729 147 727Q170 718 170 693Q170 682 162 671L99 588Z" />
<glyph unicode="&#xb5;" glyph-name="mu" horiz-adv-x="478" d="M444 27L395 -6Q376 -6 360 20Q330 -12 262 -12Q250 -12 231 -10T188 -2T152 10Q116 24 110 30V-210L37 -201V501H110V107Q130 87 171 72T230 57T251 56Q288 56 316 78T344 166V498L417 510V69Q420
41 444 27Z" />
<glyph unicode="&#xb6;" glyph-name="paragraph" horiz-adv-x="685" d="M650 -199H580V679L512 680V-198H441V246H255Q188 246 153 272Q135 286 122 300T101 339T88 381T81 429Q78 474 78 524Q78 624 124 687T264 750H650V-199Z" />
<glyph unicode="&#xb8;" glyph-name="cedilla" horiz-adv-x="254" d="M73 -197L100 -138Q137 -163 170 -163Q240 -163 240 -122Q240 -100 220 -91Q211 -87 198 -87T163 -96L126 -113L104 -78L165 0H215L179 -49Q193 -42 221 -42T273 -63T297 -128T258 -194T174
-217T73 -197Z" />
<glyph unicode="&#xbb;" glyph-name="guillemotright" horiz-adv-x="514" d="M270 80L224 124L363 267L222 407L270 455L457 268V267L270 80ZM50 80L4 124L143 267L2 407L50 455L237 268V267L50 80Z" />
<glyph unicode="&#xbf;" glyph-name="questiondown" horiz-adv-x="472" d="M365 177H437Q437 102 391 51T259 0Q207 0 164 27Q79 81 79 178Q79 237 115 289Q134 316 160 343T200 386T225 437T237 527V590H306V497Q306 451 292 413T262 355T221 307T183 261Q154
216 154 178Q154 130 185 100T260 69T334 97T365 177ZM288 632T272 632T245 643T234 671T245 698T272 709T299 698T311 671T300 644Z" />
<glyph unicode="&#xc0;" glyph-name="Agrave" horiz-adv-x="527" d="M517 0H436L367 226H159L93 0H15L221 700H304L517 0ZM349 300L262 584L178 300H349ZM278 733H225L162 816Q154 827 154 835Q154 863 177 872Q183 874 191 874Q217 874 228 848L278 733Z" />
<glyph unicode="&#xc1;" glyph-name="Aacute" horiz-adv-x="527" d="M517 0H436L367 226H159L93 0H15L221 700H304L517 0ZM349 300L262 584L178 300H349ZM291 731H238L287 846Q299 872 326 872Q333 872 339 870Q362 861 362 836Q362 825 354 814L291 731Z" />
<glyph unicode="&#xc2;" glyph-name="Acircumflex" horiz-adv-x="527" d="M517 0H436L367 226H159L93 0H15L221 700H304L517 0ZM349 300L262 584L178 300H349ZM409 771L362 732L266 830L165 732L119 771L267 912L409 771Z" />
<glyph unicode="&#xc3;" glyph-name="Atilde" horiz-adv-x="527" d="M517 0H436L367 226H159L93 0H15L221 700H304L517 0ZM349 300L262 584L178 300H349ZM335 793Q374 793 405 828L435 781Q390 728 339 728Q321 728 299 737T251 758T201 770Q159 770 125 734L96
781Q143 834 196 834Q214 834 236 825T284 805T335 793Z" />
<glyph unicode="&#xc4;" glyph-name="Adieresis" horiz-adv-x="527" d="M517 0H436L367 226H159L93 0H15L221 700H304L517 0ZM349 300L262 584L178 300H349ZM224 782T224 767T213 742T187 731T162 741T151 767T161 793T187 804T213 793ZM351 731T336 731T311 741T300
767T310 793T336 804T362 794T373 768T362 742Z" />
<glyph unicode="&#xc5;" glyph-name="Aring" horiz-adv-x="527" d="M517 0H436L367 226H159L93 0H15L212 671Q185 685 169 711T152 777T184 848T263 881T341 849T374 777Q374 703 313 671L517 0ZM349 300L262 584L178 300H349ZM239 713T263 713T303 729T319 770T303
810T263 826T223 810T206 770T222 730Z" />
<glyph unicode="&#xc6;" glyph-name="AE" horiz-adv-x="814" d="M777 0H444L445 230H278L158 0H78L444 700H779V631H517V413H696L673 343H517V65H777V0ZM445 300V552L314 300H445Z" />
<glyph unicode="&#xc7;" glyph-name="Ccedilla" horiz-adv-x="434" d="M138 185Q138 60 275 60Q334 60 413 87L427 23Q345 -9 266 -10L238 -49Q252 -42 280 -42T332 -63T356 -128T317 -194T233 -217T132 -197L159 -138Q196 -163 228 -163Q299 -163 299 -122Q299
-100 278 -91Q270 -87 257 -87T222 -96L185 -113L163 -78L218 -7Q148 3 107 49T66 183V504Q66 580 87 619T153 685Q198 710 260 710Q337 710 402 677L381 620Q327 640 285 640T215 632T162 593T138 513V185Z" />
<glyph unicode="&#xc8;" glyph-name="Egrave" horiz-adv-x="465" d="M410 0H78V700H412V631H150V413H325L302 343H150V65H410V0ZM272 732H219L156 815Q148 826 148 834Q148 862 171 871Q177 873 185 873Q211 873 222 847L272 732Z" />
<glyph unicode="&#xc9;" glyph-name="Eacute" horiz-adv-x="465" d="M410 0H78V700H412V631H150V413H325L302 343H150V65H410V0ZM290 730H237L286 845Q298 871 325 871Q332 871 338 869Q361 860 361 835Q361 824 353 813L290 730Z" />
<glyph unicode="&#xca;" glyph-name="Ecircumflex" horiz-adv-x="465" d="M410 0H78V700H412V631H150V413H325L302 343H150V65H410V0ZM391 771L344 732L248 830L147 732L101 771L249 912L391 771Z" />
<glyph unicode="&#xcb;" glyph-name="Edieresis" horiz-adv-x="465" d="M410 0H78V700H412V631H150V413H325L302 343H150V65H410V0ZM204 782T204 767T193 742T167 731T142 741T131 767T141 793T167 804T193 793ZM331 731T316 731T291 741T280 767T290 793T316
804T342 794T353 768T342 742Z" />
<glyph unicode="&#xcc;" glyph-name="Igrave" horiz-adv-x="302" d="M222 0H150V632L84 634V700H222V0ZM212 732H159L96 815Q88 826 88 834Q88 862 111 871Q117 873 125 873Q151 873 162 847L212 732Z" />
<glyph unicode="&#xcd;" glyph-name="Iacute" horiz-adv-x="360" d="M215 0H143V632L77 634V700H215V0ZM209 730H156L205 845Q217 871 244 871Q251 871 257 869Q280 860 280 835Q280 824 272 813L209 730Z" />
<glyph unicode="&#xce;" glyph-name="Icircumflex" horiz-adv-x="448" d="M268 0H196V632L130 634V700H268V0ZM368 771L321 732L225 830L124 732L78 771L226 912L368 771Z" />
<glyph unicode="&#xcf;" glyph-name="Idieresis" horiz-adv-x="380" d="M237 0H165V632L99 634V700H237V0ZM151 780T151 765T140 740T114 729T89 739T78 765T88 791T114 802T140 791ZM278 729T263 729T238 739T227 765T237 791T263 802T289 792T300 766T289 740Z" />
<glyph unicode="&#xd0;" glyph-name="Eth" horiz-adv-x="640" d="M335 0H127V457H78V527H127V701H315Q412 701 470 654T542 527H605V457H547V200Q547 0 335 0ZM475 190V457H199V65H319Q430 65 461 124Q475 150 475 190ZM325 632H199V527H470Q457 580 417 606T325 632Z" />
<glyph unicode="&#xd1;" glyph-name="Ntilde" horiz-adv-x="650" d="M570 0H497L150 560V0H78V700H150L497 141V700H570V0ZM397 792Q436 792 467 827L497 780Q452 727 401 727Q383 727 361 736T313 757T263 769Q221 769 187 733L158 780Q205 833 258 833Q276 833
298 824T346 804T397 792Z" />
<glyph unicode="&#xd2;" glyph-name="Ograve" horiz-adv-x="549" d="M483 506V185Q483 84 422 37T274 -11T126 36T63 185V507Q63 610 119 663T275 716T428 660T483 506ZM411 193V502Q411 571 376 607T273 643Q135 643 135 502V191Q135 127 173 94T273 60T373 93T411
193ZM294 732H241L178 815Q170 826 170 834Q170 862 193 871Q199 873 207 873Q233 873 244 847L294 732Z" />
<glyph unicode="&#xd3;" glyph-name="Oacute" horiz-adv-x="549" d="M483 506V185Q483 84 422 37T274 -11T126 36T63 185V507Q63 610 119 663T275 716T428 660T483 506ZM411 193V502Q411 571 376 607T273 643Q135 643 135 502V191Q135 127 173 94T273 60T373 93T411
193ZM310 730H257L306 845Q318 871 345 871Q352 871 358 869Q381 860 381 835Q381 824 373 813L310 730Z" />
<glyph unicode="&#xd4;" glyph-name="Ocircumflex" horiz-adv-x="549" d="M483 506V185Q483 84 422 37T274 -11T126 36T63 185V507Q63 610 119 663T275 716T428 660T483 506ZM411 193V502Q411 571 376 607T273 643Q135 643 135 502V191Q135 127 173 94T273 60T373
93T411 193ZM421 771L374 732L278 830L177 732L131 771L279 912L421 771Z" />
<glyph unicode="&#xd5;" glyph-name="Otilde" horiz-adv-x="549" d="M483 506V185Q483 84 422 37T274 -11T126 36T63 185V507Q63 610 119 663T275 716T428 660T483 506ZM411 193V502Q411 571 376 607T273 643Q135 643 135 502V191Q135 127 173 94T273 60T373 93T411
193ZM350 793Q389 793 420 828L450 781Q405 728 354 728Q336 728 314 737T266 758T216 770Q174 770 140 734L111 781Q158 834 211 834Q229 834 251 825T299 805T350 793Z" />
<glyph unicode="&#xd6;" glyph-name="Odieresis" horiz-adv-x="549" d="M483 506V185Q483 84 422 37T274 -11T126 36T63 185V507Q63 610 119 663T275 716T428 660T483 506ZM411 193V502Q411 571 376 607T273 643Q135 643 135 502V191Q135 127 173 94T273 60T373
93T411 193ZM233 782T233 767T222 742T196 731T171 741T160 767T170 793T196 804T222 793ZM360 731T345 731T320 741T309 767T319 793T345 804T371 794T382 768T371 742Z" />
<glyph unicode="&#xd7;" glyph-name="multiply" horiz-adv-x="406" d="M371 209L321 165L224 281L129 164L79 209L181 333L78 458L128 500L224 384L321 501L371 459L267 333L371 209Z" />
<glyph unicode="&#xd8;" glyph-name="Oslash" horiz-adv-x="540" d="M171 -114H94L145 34Q80 86 80 185V507Q80 610 136 663T292 716Q339 716 378 702L418 817H494L441 664Q500 608 500 506V185Q500 84 439 37T291 -11Q251 -11 210 0L171 -114ZM173 113L353 632Q325
643 290 643Q152 643 152 502V191Q152 143 173 113ZM428 193V502Q428 546 412 580L234 68Q261 60 290 60Q352 60 390 93T428 193Z" />
<glyph unicode="&#xd9;" glyph-name="Ugrave" horiz-adv-x="566" d="M423 194V701H495V186Q495 133 477 94T427 34T360 3T285 -7T210 3T143 34T93 94T74 186V701H146V194Q146 132 183 96T284 60T385 96T423 194ZM311 732H258L195 815Q187 826 187 834Q187 862
210 871Q216 873 224 873Q250 873 261 847L311 732Z" />
<glyph unicode="&#xda;" glyph-name="Uacute" horiz-adv-x="566" d="M423 194V701H495V186Q495 133 477 94T427 34T360 3T285 -7T210 3T143 34T93 94T74 186V701H146V194Q146 132 183 96T284 60T385 96T423 194ZM311 731H258L307 846Q319 872 346 872Q353 872
359 870Q382 861 382 836Q382 825 374 814L311 731Z" />
<glyph unicode="&#xdb;" glyph-name="Ucircumflex" horiz-adv-x="566" d="M423 194V701H495V186Q495 133 477 94T427 34T360 3T285 -7T210 3T143 34T93 94T74 186V701H146V194Q146 132 183 96T284 60T385 96T423 194ZM430 771L383 732L287 830L186 732L140 771L288
912L430 771Z" />
<glyph unicode="&#xdc;" glyph-name="Udieresis" horiz-adv-x="566" d="M423 194V701H495V186Q495 133 477 94T427 34T360 3T285 -7T210 3T143 34T93 94T74 186V701H146V194Q146 132 183 96T284 60T385 96T423 194ZM245 782T245 767T234 742T208 731T183 741T172
767T182 793T208 804T234 793ZM372 731T357 731T332 741T321 767T331 793T357 804T383 794T394 768T383 742Z" />
<glyph unicode="&#xdd;" glyph-name="Yacute" horiz-adv-x="556" d="M382 -11L362 40Q391 49 409 73T427 156V272Q378 230 279 230T118 284T56 441V700H129V437Q129 370 171 336T276 301T378 322T427 383V700H500V156Q500 4 382 -11ZM307 731H254L303 846Q315
872 342 872Q349 872 355 870Q378 861 378 836Q378 825 370 814L307 731Z" />
<glyph unicode="&#xde;" glyph-name="Thorn" horiz-adv-x="490" d="M150 0H78V700H150V466Q196 509 265 509Q358 509 406 455T455 311T404 169T269 116Q237 116 203 130T150 171V0ZM150 252T183 219T266 185T350 217T383 313T350 410T270 442T187 412T151 317Z" />
<glyph unicode="&#xdf;" glyph-name="germandbls" horiz-adv-x="527" d="M265 338T246 361T220 403T213 449T231 507Q269 507 282 538Q289 552 289 567T280 600Q263 632 227 632Q151 632 151 530V0H78V537Q78 613 115 657T220 701T324 659T360 564T323 477H296Q269
430 334 370Q349 356 364 344Q405 308 429 282Q492 215 492 145Q492 109 475 72Q452 21 396 1Q360 -12 331 -12Q241 -12 183 37L217 101Q261 59 322 59T403 100Q416 123 416 147Q416 194 368 243Q353 259 327 282T283 322Z" />
<glyph unicode="&#xe0;" glyph-name="agrave" horiz-adv-x="498" d="M78 252Q78 401 230 401Q251 401 274 398Q346 386 391 353Q391 456 250 456L255 509Q336 509 375 490Q396 479 412 468T437 439T452 408T460 371Q463 336 463 298V0Q359 -10 297 -10Q78 -10
78 169V252ZM391 61V288Q323 323 244 332Q237 332 230 332Q198 332 174 313T150 246V168Q150 54 306 54Q344 54 391 61ZM294 540H241L178 623Q170 634 170 642Q170 670 193 679Q199 681 207 681Q233 681 244 655L294 540Z" />
<glyph unicode="&#xe1;" glyph-name="aacute" horiz-adv-x="498" d="M78 252Q78 401 230 401Q251 401 274 398Q346 386 391 353Q391 456 250 456L255 509Q336 509 375 490Q396 479 412 468T437 439T452 408T460 371Q463 336 463 298V0Q359 -10 297 -10Q78 -10
78 169V252ZM391 61V288Q323 323 244 332Q237 332 230 332Q198 332 174 313T150 246V168Q150 54 306 54Q344 54 391 61ZM311 538H258L307 653Q319 679 346 679Q353 679 359 677Q382 668 382 643Q382 632 374 621L311 538Z" />
<glyph unicode="&#xe2;" glyph-name="acircumflex" horiz-adv-x="498" d="M78 252Q78 401 230 401Q251 401 274 398Q346 386 391 353Q391 456 250 456L255 509Q336 509 375 490Q396 479 412 468T437 439T452 408T460 371Q463 336 463 298V0Q359 -10 297 -10Q78
-10 78 169V252ZM391 61V288Q323 323 244 332Q237 332 230 332Q198 332 174 313T150 246V168Q150 54 306 54Q344 54 391 61ZM425 578L378 539L282 637L181 539L135 578L283 719L425 578Z" />
<glyph unicode="&#xe3;" glyph-name="atilde" horiz-adv-x="498" d="M78 252Q78 401 230 401Q251 401 274 398Q346 386 391 353Q391 456 250 456L255 509Q336 509 375 490Q396 479 412 468T437 439T452 408T460 371Q463 336 463 298V0Q359 -10 297 -10Q78 -10
78 169V252ZM391 61V288Q323 323 244 332Q237 332 230 332Q198 332 174 313T150 246V168Q150 54 306 54Q344 54 391 61ZM342 604Q381 604 412 639L442 592Q397 539 346 539Q328 539 306 548T258 569T208 581Q166 581 132 545L103 592Q150 645 203 645Q221 645 243
636T291 616T342 604Z" />
<glyph unicode="&#xe4;" glyph-name="adieresis" horiz-adv-x="498" d="M78 252Q78 401 230 401Q251 401 274 398Q346 386 391 353Q391 456 250 456L255 509Q336 509 375 490Q396 479 412 468T437 439T452 408T460 371Q463 336 463 298V0Q359 -10 297 -10Q78 -10
78 169V252ZM391 61V288Q323 323 244 332Q237 332 230 332Q198 332 174 313T150 246V168Q150 54 306 54Q344 54 391 61ZM243 590T243 575T232 550T206 539T181 549T170 575T180 601T206 612T232 601ZM370 539T355 539T330 549T319 575T329 601T355 612T381 602T392
576T381 550Z" />
<glyph unicode="&#xe5;" glyph-name="aring" horiz-adv-x="498" d="M78 252Q78 401 230 401Q251 401 274 398Q346 386 391 353Q391 456 250 456Q208 461 179 492T150 568T182 645T261 678T339 646T372 571T348 498Q406 484 429 450Q441 432 448 417T459 378Q463
345 463 298V0Q359 -10 297 -10Q78 -10 78 169V252ZM391 61V288Q323 323 244 332Q237 332 230 332Q198 332 174 313T150 246V168Q150 54 306 54Q344 54 391 61ZM237 510T261 510T301 526T317 567T301 607T261 623T221 607T204 567T220 527Z" />
<glyph unicode="&#xe6;" glyph-name="ae" horiz-adv-x="786" d="M463 131Q468 53 563 53Q625 53 699 94L726 35Q649 -12 555 -12Q503 -12 463 5V0Q359 -10 297 -10Q78 -10 78 169V252Q78 401 230 401Q251 401 274 398Q346 386 391 353Q391 456 250 456L255 509Q382
509 428 451Q479 510 568 510T704 466T751 342V205L463 190V131ZM391 61V288Q323 323 244 332Q237 332 230 332Q198 332 174 313T150 246V168Q150 54 306 54Q344 54 391 61ZM678 269V346Q678 399 645 421T568 444T494 417T463 338V258L678 269Z" />
<glyph unicode="&#xe7;" glyph-name="ccedilla" horiz-adv-x="383" d="M248 58Q291 58 341 70L358 6Q295 -10 237 -10Q228 -10 219 -10L190 -49Q204 -42 232 -42T284 -63T308 -128T269 -194T185 -217T84 -197L111 -138Q148 -163 180 -163Q251 -163 251 -122Q251
-100 230 -91Q222 -87 209 -87T174 -96L137 -113L115 -78L172 -4L148 2Q89 22 63 63T36 180V308Q36 379 64 427Q112 510 222 510Q288 510 356 478L336 421Q276 443 226 443Q173 443 141 409T108 314V169Q108 58 248 58Z" />
<glyph unicode="&#xe8;" glyph-name="egrave" horiz-adv-x="473" d="M150 138Q150 53 250 53Q312 53 386 94L413 35Q336 -12 252 -12Q78 -12 78 134V339Q78 420 128 465T262 510T391 466T438 342V205L150 190V138ZM365 269V346Q365 399 332 421T255 444T181 417T150
338V258L365 269ZM286 540H233L170 623Q162 634 162 642Q162 670 185 679Q191 681 199 681Q225 681 236 655L286 540Z" />
<glyph unicode="&#xe9;" glyph-name="eacute" horiz-adv-x="473" d="M150 138Q150 53 250 53Q312 53 386 94L413 35Q336 -12 252 -12Q78 -12 78 134V339Q78 420 128 465T262 510T391 466T438 342V205L150 190V138ZM365 269V346Q365 399 332 421T255 444T181 417T150
338V258L365 269ZM293 538H240L289 653Q301 679 328 679Q335 679 341 677Q364 668 364 643Q364 632 356 621L293 538Z" />
<glyph unicode="&#xea;" glyph-name="ecircumflex" horiz-adv-x="473" d="M150 138Q150 53 250 53Q312 53 386 94L413 35Q336 -12 252 -12Q78 -12 78 134V339Q78 420 128 465T262 510T391 466T438 342V205L150 190V138ZM365 269V346Q365 399 332 421T255 444T181
417T150 338V258L365 269ZM419 578L372 539L276 637L175 539L129 578L277 719L419 578Z" />
<glyph unicode="&#xeb;" glyph-name="edieresis" horiz-adv-x="537" d="M107 138Q107 53 207 53Q269 53 343 94L370 35Q293 -12 209 -12Q35 -12 35 134V339Q35 420 85 465T219 510T348 466T395 342V205L107 190V138ZM322 269V346Q322 399 289 421T212 444T138
417T107 338V258L322 269ZM178 590T178 575T167 550T141 539T116 549T105 575T115 601T141 612T167 601ZM305 539T290 539T265 549T254 575T264 601T290 612T316 602T327 576T316 550Z" />
<glyph unicode="&#xec;" glyph-name="igrave" horiz-adv-x="254" d="M202 540H149L86 623Q78 634 78 642Q78 670 101 679Q107 681 115 681Q141 681 152 655L202 540ZM219 0H147V501H219V0Z" />
<glyph unicode="&#xed;" glyph-name="iacute" horiz-adv-x="249" d="M143 538H90L139 653Q151 679 178 679Q185 679 191 677Q214 668 214 643Q214 632 206 621L143 538ZM150 0H78V501H150V0Z" />
<glyph unicode="&#xee;" glyph-name="icircumflex" horiz-adv-x="225" d="M254 578L207 539L111 637L10 539L-36 578L112 719L254 578ZM147 0H75V501H147V0Z" />
<glyph unicode="&#xef;" glyph-name="idieresis" horiz-adv-x="335" d="M151 590T151 575T140 550T114 539T89 549T78 575T88 601T114 612T140 601ZM278 539T263 539T238 549T227 575T237 601T263 612T289 602T300 576T289 550ZM225 0H153V501H225V0Z" />
<glyph unicode="&#xf1;" glyph-name="ntilde" horiz-adv-x="482" d="M147 475Q193 509 271 509Q322 509 362 491Q447 452 447 346V0H375V335Q375 394 339 418T254 443T150 413V0H78V501H146L147 475ZM331 605Q370 605 401 640L431 593Q386 540 335 540Q317 540
295 549T247 570T197 582Q155 582 121 546L92 593Q139 646 192 646Q210 646 232 637T280 617T331 605Z" />
<glyph unicode="&#xf2;" glyph-name="ograve" horiz-adv-x="486" d="M451 316V184Q451 100 405 45T266 -10T126 45T78 184V316Q78 411 126 461T264 512T402 460T451 316ZM379 174V316Q379 443 266 443Q150 443 150 316V174Q150 120 181 89T266 57T349 88T379 174ZM285
540H232L169 623Q161 634 161 642Q161 670 184 679Q190 681 198 681Q224 681 235 655L285 540Z" />
<glyph unicode="&#xf3;" glyph-name="oacute" horiz-adv-x="486" d="M451 316V184Q451 100 405 45T266 -10T126 45T78 184V316Q78 411 126 461T264 512T402 460T451 316ZM379 174V316Q379 443 266 443Q150 443 150 316V174Q150 120 181 89T266 57T349 88T379 174ZM292
538H239L288 653Q300 679 327 679Q334 679 340 677Q363 668 363 643Q363 632 355 621L292 538Z" />
<glyph unicode="&#xf4;" glyph-name="ocircumflex" horiz-adv-x="486" d="M451 316V184Q451 100 405 45T266 -10T126 45T78 184V316Q78 411 126 461T264 512T402 460T451 316ZM379 174V316Q379 443 266 443Q150 443 150 316V174Q150 120 181 89T266 57T349 88T379
174ZM414 578L367 539L271 637L170 539L124 578L272 719L414 578Z" />
<glyph unicode="&#xf5;" glyph-name="otilde" horiz-adv-x="486" d="M451 316V184Q451 100 405 45T266 -10T126 45T78 184V316Q78 411 126 461T264 512T402 460T451 316ZM379 174V316Q379 443 266 443Q150 443 150 316V174Q150 120 181 89T266 57T349 88T379 174ZM340
597Q379 597 410 632L440 585Q395 532 344 532Q326 532 304 541T256 562T206 574Q164 574 130 538L101 585Q148 638 201 638Q219 638 241 629T289 609T340 597Z" />
<glyph unicode="&#xf6;" glyph-name="odieresis" horiz-adv-x="486" d="M451 316V184Q451 100 405 45T266 -10T126 45T78 184V316Q78 411 126 461T264 512T402 460T451 316ZM379 174V316Q379 443 266 443Q150 443 150 316V174Q150 120 181 89T266 57T349 88T379
174ZM232 590T232 575T221 550T195 539T170 549T159 575T169 601T195 612T221 601ZM359 539T344 539T319 549T308 575T318 601T344 612T370 602T381 576T370 550Z" />
<glyph unicode="&#xf7;" glyph-name="divide" horiz-adv-x="433" d="M398 352H78V417H398V352ZM256 469T240 469T213 481T201 509T212 536T240 548T268 537T280 509T268 481ZM280 273T280 257T268 230T240 218T213 229T201 257T212 284T240 296T268 285Z" />
<glyph unicode="&#xf8;" glyph-name="oslash" horiz-adv-x="490" d="M163 -67H92L136 35Q78 89 78 184V316Q78 411 126 461T266 512Q303 512 336 501L373 588H446L393 467Q451 414 451 316V184Q451 100 405 45T266 -10Q225 -10 192 1L163 -67ZM379 174V316Q379
362 362 394L219 64Q239 57 266 57Q319 57 349 88T379 174ZM167 107L308 437Q288 443 266 443Q150 443 150 316V174Q150 135 167 107Z" />
<glyph unicode="&#xf9;" glyph-name="ugrave" horiz-adv-x="486" d="M451 0H382V37Q339 -11 266 -11Q78 -11 78 172V501H150V172Q150 57 266 57Q379 57 379 173V501H451V0ZM292 540H239L176 623Q168 634 168 642Q168 670 191 679Q197 681 205 681Q231 681 242
655L292 540Z" />
<glyph unicode="&#xfa;" glyph-name="uacute" horiz-adv-x="486" d="M451 0H382V37Q339 -11 266 -11Q78 -11 78 172V501H150V172Q150 57 266 57Q379 57 379 173V501H451V0ZM292 538H239L288 653Q300 679 327 679Q334 679 340 677Q363 668 363 643Q363 632 355
621L292 538Z" />
<glyph unicode="&#xfb;" glyph-name="ucircumflex" horiz-adv-x="486" d="M451 0H382V37Q339 -11 266 -11Q78 -11 78 172V501H150V172Q150 57 266 57Q379 57 379 173V501H451V0ZM411 578L364 539L268 637L167 539L121 578L269 719L411 578Z" />
<glyph unicode="&#xfc;" glyph-name="udieresis" horiz-adv-x="486" d="M451 0H382V37Q339 -11 266 -11Q78 -11 78 172V501H150V172Q150 57 266 57Q379 57 379 173V501H451V0ZM227 590T227 575T216 550T190 539T165 549T154 575T164 601T190 612T216 601ZM354
539T339 539T314 549T303 575T313 601T339 612T365 602T376 576T365 550Z" />
<glyph unicode="&#xfd;" glyph-name="yacute" horiz-adv-x="530" d="M339 -210L316 -154Q383 -134 383 -61V35Q348 -12 261 -12T126 35T78 176V501H149V178Q149 57 261 57Q382 57 382 178V363Q382 422 400 459T472 510L495 456Q453 442 453 385V-61Q453 -123 427
-159T339 -210ZM289 538H236L285 653Q297 679 324 679Q331 679 337 677Q360 668 360 643Q360 632 352 621L289 538Z" />
<glyph unicode="&#xfe;" glyph-name="thorn" horiz-adv-x="490" d="M150 0H78V588H150V466Q196 509 265 509Q358 509 406 455T455 311T404 169T269 116Q237 116 203 130T150 171V0ZM222 442T187 412T151 317T183 219T266 185T350 217T383 313T350 410T270 442Z" />
<glyph unicode="&#xff;" glyph-name="ydieresis" horiz-adv-x="530" d="M339 -210L316 -154Q383 -134 383 -61V35Q348 -12 261 -12T126 35T78 176V501H149V178Q149 57 261 57Q382 57 382 178V363Q382 422 400 459T472 510L495 456Q453 442 453 385V-61Q453 -123
427 -159T339 -210ZM360 539T345 539T320 549T309 575T319 601T345 612T371 602T382 576T371 550ZM233 590T233 575T222 550T196 539T171 549T160 575T170 601T196 612T222 601Z" />
<glyph unicode="&#x2018;" glyph-name="quoteleft" horiz-adv-x="114" d="M48 632L59 629Q81 616 81 595T69 563T49 553Q24 553 12 567T0 597Q0 657 65 713L114 685Q74 662 48 632Z" />
<glyph unicode="&#x2019;" glyph-name="quoteright" horiz-adv-x="114" d="M49 549L0 577Q40 600 66 630L55 633Q33 646 33 667T45 699T65 709Q90 709 102 695T114 665Q114 605 49 549Z" />
<glyph unicode="&#x201a;" glyph-name="quotesinglbase" horiz-adv-x="165" d="M57 -84L8 -56Q51 -31 74 -3L63 0Q41 13 41 34T53 66T73 76Q98 76 110 62T122 32Q122 -28 57 -84Z" />
<glyph unicode="&#x201c;" glyph-name="quotedblleft" horiz-adv-x="292" d="M93 636L104 633Q126 620 126 599T114 567T94 557Q69 557 57 571T45 601Q45 661 110 717L159 689Q119 666 93 636ZM207 636L218 633Q240 620 240 599T228 567T208 557Q183 557 171 571T159
601Q159 661 224 717L273 689Q233 666 207 636Z" />
<glyph unicode="&#x201d;" glyph-name="quotedblright" horiz-adv-x="286" d="M59 549L10 577Q50 600 76 630L65 633Q43 646 43 667T55 699T75 709Q100 709 112 695T124 665Q124 605 59 549ZM175 549L126 577Q166 600 192 630L181 633Q159 646 159 667T171 699T191
709Q216 709 228 695T240 665Q240 605 175 549Z" />
<glyph unicode="&#x201e;" glyph-name="quotedblbase" horiz-adv-x="315" d="M108 1Q86 14 86 35T98 67T126 77T155 63Q166 77 184 77Q204 77 216 63T228 33Q228 -27 163 -83L125 -61Q110 -76 102 -83L53 -55Q96 -30 119 -2L108 1ZM180 -2L169 1Q165 3 163 5Q158
-16 146 -34Q168 -18 180 -2Z" />
<glyph unicode="&#x2022;" glyph-name="bullet" horiz-adv-x="470" d="M330 158T256 158T130 210T78 337T130 463T256 515T382 463T435 337T383 211Z" />
<glyph unicode="&#x2039;" glyph-name="guilsinglleft" horiz-adv-x="278" d="M275 124L229 80L42 267V268L229 455L277 407L136 267L275 124Z" />
<glyph unicode="&#x203a;" glyph-name="guilsinglright" horiz-adv-x="294" d="M50 80L4 124L143 267L2 407L50 455L237 268V267L50 80Z" />
</font>
</defs>
</svg>
