<?xml version="1.0" standalone="no"?>
<!DOCTYPE svg PUBLIC "-//W3C//DTD SVG 1.1//EN" "http://www.w3.org/Graphics/SVG/1.1/DTD/svg11.dtd">
<svg xmlns="http://www.w3.org/2000/svg">
<defs >
<font id="ProzaLibre" horiz-adv-x="1296" ><font-face
    font-family="Proza Libre"
    units-per-em="2048"
    panose-1="2 0 5 5 6 0 0 9 0 4"
    ascent="2030"
    descent="-750"
    alphabetic="0" />
<glyph unicode=" " glyph-name="space" horiz-adv-x="390" />
<glyph unicode="!" glyph-name="exclam" horiz-adv-x="778" d="M258 604L272 1465H705L524 604H258ZM322 -20Q280 -20 244 -5T180 38T138 102T122 183Q122 239 144 285T204 365T288 417T384 436Q426 436 462 421T526 378T568 314T584 233Q584 177 561 131T501
51T417 -1T322 -20Z" />
<glyph unicode="&quot;" glyph-name="quotedbl" horiz-adv-x="1357" d="M154 828Q245 919 310 1009T407 1194Q394 1210 376 1225T336 1254T291 1277T244 1293Q240 1309 239 1328T237 1367Q237 1424 260 1471T320 1551T403 1603T498 1622Q537 1622 573 1608T638
1566T684 1495T701 1394Q701 1337 682 1266T615 1113T485 938T277 747L154 828ZM777 828Q868 919 933 1009T1030 1194Q1017 1210 999 1225T959 1254T914 1277T867 1293Q863 1309 862 1328T860 1367Q860 1424 883 1471T943 1551T1026 1603T1121 1622Q1160 1622 1196
1608T1261 1566T1307 1495T1324 1394Q1324 1337 1305 1266T1238 1113T1108 938T900 747L777 828Z" />
<glyph unicode="#" glyph-name="numbersign" horiz-adv-x="1788" d="M355 300H114L191 555H432L539 910H298L374 1165H615L705 1465H960L870 1165H1225L1315 1465H1570L1480 1165H1721L1645 910H1404L1297 555H1538L1461 300H1220L1131 0H876L965 300H610L521
0H266L355 300ZM687 555H1042L1149 910H794L687 555Z" />
<glyph unicode="$" glyph-name="dollar" horiz-adv-x="1386" d="M593 239Q639 239 682 248T759 276T813 325T833 400Q833 445 809 478T744 537T653 587T549 635T444 690T353 761T289 856T264 984Q264 1073 294 1149T381 1285T517 1387T695 1449L737 1814H992L952
1465Q982 1465 1020 1462T1101 1451T1187 1435T1268 1415L1181 1160L1163 1152Q1121 1172 1077 1186T992 1209T915 1222T853 1226Q810 1226 773 1217T709 1189T667 1143T651 1080Q651 1036 675 1004T740 945T831 897T936 849T1040 793T1132 722T1196 625T1221 495Q1221
406 1191 330T1105 193T968 89T788 22L745 -350H490L530 1Q488 1 437 7T331 24T219 53T111 95L197 351L219 361Q274 335 323 313T417 274T506 248T593 239Z" />
<glyph unicode="%" glyph-name="percent" horiz-adv-x="2353" d="M1603 1465H1909L796 0H490L1603 1465ZM582 630Q499 630 432 655T316 728T242 842T215 991Q215 1100 256 1191T366 1347T526 1449T720 1485Q803 1485 871 1459T987 1386T1061 1271T1088 1122Q1088
1012 1047 922T937 767T776 666T582 630ZM632 857Q665 857 693 873T743 919T777 990T789 1083Q789 1161 757 1209T669 1258Q636 1258 608 1242T558 1195T525 1123T513 1030Q513 952 545 905T632 857ZM1679 -20Q1596 -20 1529 5T1413 78T1339 192T1312 341Q1312
450 1352 541T1462 697T1623 799T1817 835Q1900 835 1968 809T2084 736T2158 621T2185 472Q2185 362 2144 272T2034 117T1873 16T1679 -20ZM1729 207Q1762 207 1790 223T1840 269T1874 340T1886 433Q1886 511 1854 559T1766 608Q1733 608 1705 592T1655 545T1622
473T1610 380Q1610 302 1642 255T1729 207Z" />
<glyph unicode="&amp;" glyph-name="ampersand" horiz-adv-x="1579" d="M1234 1202Q1234 1127 1201 1059T1115 932T999 826T876 744Q924 692 972 644T1079 546Q1103 583 1119 609T1146 660T1168 713T1191 784H1471Q1429 683 1378 593T1259 412Q1320 365 1374 328T1488
253L1273 -28Q1213 13 1153 59T1038 150Q991 109 941 78T834 24T711 -9T568 -20Q453 -20 365 5T218 74T128 180T97 315Q97 395 127 460T207 579T321 676T453 756Q393 825 359 903T324 1066Q324 1160 366 1237T482 1370T653 1455T861 1485Q948 1485 1017 1465T1134
1409T1208 1320T1234 1202ZM877 293Q803 361 734 429T598 579Q546 548 512 500T478 388Q478 351 491 320T531 267T594 232T679 219Q728 219 781 235T877 293ZM656 1098Q656 1072 663 1048T683 1001T712 955T745 908Q779 929 812 954T870 1009T910 1071T926 1137Q926
1186 895 1216T808 1246Q775 1246 747 1235T699 1204T667 1157T656 1098Z" />
<glyph unicode="&apos;" glyph-name="quotesingle" horiz-adv-x="734" d="M154 828Q245 919 310 1009T407 1194Q394 1210 376 1225T336 1254T291 1277T244 1293Q240 1309 239 1328T237 1367Q237 1424 260 1471T320 1551T403 1603T498 1622Q537 1622 573 1608T638
1566T684 1495T701 1394Q701 1337 682 1266T615 1113T485 938T277 747L154 828Z" />
<glyph unicode="(" glyph-name="parenleft" horiz-adv-x="914" d="M923 1487Q843 1390 776 1280T659 1041T583 766T556 451Q556 237 602 61T726 -243L539 -373Q371 -213 285 -7T198 457Q198 634 235 797T344 1107T522 1382T766 1617L923 1487Z" />
<glyph unicode=")" glyph-name="parenright" horiz-adv-x="914" d="M12 -243Q92 -146 159 -36T275 203T351 478T379 793Q379 1007 333 1183T209 1487L396 1617Q564 1457 650 1251T737 787Q737 610 700 447T591 137T413 -138T169 -373L12 -243Z" />
<glyph unicode="*" glyph-name="asterisk" horiz-adv-x="1200" d="M563 1058L554 1073L193 992L249 1238L567 1168L579 1183L352 1452L603 1552L670 1227H690L823 1552L1058 1460L769 1183L776 1168L1142 1244L1085 996L765 1067L753 1052L972 776L720 670L665
1009H645L511 680L276 772L563 1058Z" />
<glyph unicode="+" glyph-name="plus" horiz-adv-x="1307" d="M543 719L587 1102H852L808 719H1179L1150 464H779L735 81H470L514 464H143L172 719H543Z" />
<glyph unicode="," glyph-name="comma" horiz-adv-x="784" d="M39 -358Q130 -267 195 -177T292 8Q279 24 261 39T221 68T176 91T129 107Q125 123 124 142T122 181Q122 238 145 285T205 365T288 417T383 436Q422 436 458 422T523 380T569 309T586 208Q586 151 567
80T500 -73T370 -248T162 -439L39 -358Z" />
<glyph unicode="-" glyph-name="hyphen" horiz-adv-x="986" d="M858 719L829 464H143L172 719H858Z" />
<glyph unicode="." glyph-name="period" horiz-adv-x="778" d="M322 -20Q280 -20 244 -5T180 38T138 102T122 183Q122 239 144 285T204 365T288 417T384 436Q426 436 462 421T526 378T568 314T584 233Q584 177 561 131T501 51T417 -1T322 -20Z" />
<glyph unicode="/" glyph-name="slash" horiz-adv-x="991" d="M744 1602H1019L260 -308H-15L744 1602Z" />
<glyph unicode="0" glyph-name="zero" horiz-adv-x="1476" d="M992 875Q992 958 982 1026T951 1143T896 1219T816 1246Q763 1246 722 1220T649 1147T595 1037T558 901T538 749T531 590Q531 507 541 439T573 321T628 246T708 219Q761 219 803 246T876 319T930 429T966
565T986 717T992 875ZM1411 874Q1411 649 1351 481T1186 202T944 35T651 -20Q527 -20 428 18T258 133T150 324T112 590Q112 815 173 983T338 1262T580 1429T873 1485Q997 1485 1096 1446T1266 1331T1373 1140T1411 874Z" />
<glyph unicode="1" glyph-name="one" horiz-adv-x="988" d="M342 0L469 1114H127L148 1299Q245 1299 325 1310T470 1342T588 1394T684 1465H915L748 0H342Z" />
<glyph unicode="2" glyph-name="two" horiz-adv-x="1261" d="M32 100Q160 226 261 330T439 520T571 676T660 807T711 919T727 1022Q727 1079 709 1118T659 1181T585 1216T497 1227Q461 1227 426 1222T359 1207T297 1187T244 1165V1334Q291 1367 348 1394T470 1442T605
1473T747 1485Q845 1485 921 1463T1050 1396T1130 1286T1158 1135Q1158 1039 1122 945T1006 744T802 515T499 239H1128L1052 0H20L32 100Z" />
<glyph unicode="3" glyph-name="three" horiz-adv-x="1191" d="M1134 1210Q1134 1154 1110 1108T1040 1021T928 940T778 859L776 839Q918 808 998 728T1079 521Q1079 463 1060 402T994 283T872 174T681 84T410 23T50 0L77 239Q213 239 309 250T469 281T571 325T628
376T652 427T658 472Q658 530 634 567T563 625T453 653T309 656L330 843Q356 850 394 859T473 883T555 917T628 961T681 1017T702 1088Q702 1125 684 1151T636 1194T568 1219T490 1227Q423 1227 352 1209T221 1164V1334Q269 1368 330 1396T458 1443T596 1474T736
1485Q835 1485 910 1463T1034 1404T1109 1316T1134 1210Z" />
<glyph unicode="4" glyph-name="four" horiz-adv-x="1360" d="M49 514L667 1465H1193L1097 621H1321L1252 382H1070L1026 0H620L664 382H34L49 514ZM691 621L737 1024L769 1230H749L632 1021L373 621H691Z" />
<glyph unicode="5" glyph-name="five" horiz-adv-x="1108" d="M287 1465H1096L1028 1226H498L445 977Q578 977 682 950T858 872T966 751T1004 593Q1004 536 986 470T926 338T813 211T636 103T386 28T53 0L80 239Q217 239 310 263T461 327T543 419T568 528Q568
582 545 621T483 687T390 725T276 738H134L287 1465Z" />
<glyph unicode="6" glyph-name="six" horiz-adv-x="1360" d="M711 803Q732 817 760 831T820 858T887 878T959 886Q1021 886 1077 863T1176 795T1244 687T1270 544Q1270 438 1224 337T1091 157T882 29T608 -20Q469 -20 371 21T209 132T117 293T88 485Q88 591 119
705T212 928T365 1134T578 1305T850 1422T1178 1465H1248L1221 1226H1163Q1040 1226 944 1201T775 1129T652 1019T571 879T525 716T511 540Q511 468 519 409T547 308T595 242T665 219Q703 219 736 239T794 295T833 383T847 496Q847 580 821 623T747 667Q738 667
730 666T711 663V803Z" />
<glyph unicode="7" glyph-name="seven" horiz-adv-x="1134" d="M160 1226L229 1465H1161L1148 1353Q973 1014 819 678T525 0H108Q262 308 429 613T780 1226H160Z" />
<glyph unicode="8" glyph-name="eight" horiz-adv-x="1351" d="M421 728Q380 752 343 782T279 850T235 934T219 1039Q219 1135 264 1217T389 1358T577 1451T812 1485Q922 1485 1007 1460T1151 1391T1240 1288T1271 1160Q1271 1097 1247 1045T1180 949T1083 868T966
799Q1023 768 1073 734T1161 659T1219 565T1241 446Q1241 347 1193 262T1060 114T856 16T595 -20Q469 -20 373 8T211 84T112 196T78 333Q78 402 106 458T182 562T292 650T421 728ZM606 640Q530 593 489 531T448 402Q448 363 462 330T504 272T569 233T654 219Q701
219 742 233T813 272T861 331T879 406Q879 447 860 478T806 536T720 587T606 640ZM766 884Q846 935 881 991T917 1102Q917 1137 904 1164T869 1209T818 1236T756 1246Q720 1246 687 1235T627 1203T585 1153T569 1086Q569 1051 583 1023T623 971T685 926T766 884Z"
/>
<glyph unicode="9" glyph-name="nine" horiz-adv-x="1360" d="M695 662Q674 648 646 634T586 607T519 587T447 579Q385 579 329 602T230 670T162 778T136 921Q136 1027 182 1128T315 1308T524 1436T798 1485Q937 1485 1035 1444T1197 1333T1289 1172T1318 980Q1318
874 1287 760T1194 537T1041 331T828 160T556 43T228 0H158L185 239H243Q366 239 462 264T631 336T754 446T835 586T881 749T895 925Q895 997 887 1056T859 1157T811 1223T741 1246Q703 1246 670 1226T612 1170T573 1082T559 969Q559 885 585 842T659 798Q668 798
676 799T695 802V662Z" />
<glyph unicode=":" glyph-name="colon" horiz-adv-x="818" d="M342 -20Q300 -20 264 -5T200 38T158 102T142 183Q142 239 164 285T224 365T308 417T404 436Q446 436 482 421T546 378T588 314T604 233Q604 177 581 131T521 51T437 -1T342 -20ZM415 624Q373 624
337 639T273 682T231 746T215 827Q215 883 237 929T297 1009T381 1061T477 1080Q519 1080 555 1065T619 1022T661 958T677 877Q677 821 654 775T594 695T510 643T415 624Z" />
<glyph unicode=";" glyph-name="semicolon" horiz-adv-x="824" d="M415 624Q373 624 337 639T273 682T231 746T215 827Q215 883 237 929T297 1009T381 1061T477 1080Q519 1080 555 1065T619 1022T661 958T677 877Q677 821 654 775T594 695T510 643T415 624ZM59
-358Q150 -267 215 -177T312 8Q299 24 281 39T241 68T196 91T149 107Q145 123 144 142T142 181Q142 238 165 285T225 365T308 417T403 436Q442 436 478 422T543 380T589 309T606 208Q606 151 587 80T520 -73T390 -248T182 -439L59 -358Z" />
<glyph unicode="&lt;" glyph-name="less" horiz-adv-x="1172" d="M173 735L1035 1174L1002 885L449 602L938 319L905 30L143 469L173 735Z" />
<glyph unicode="=" glyph-name="equal" horiz-adv-x="1413" d="M1207 476L1178 221H165L194 476H1207ZM1263 964L1234 709H221L250 964H1263Z" />
<glyph unicode="&gt;" glyph-name="greater" horiz-adv-x="1172" d="M1015 469L153 30L186 319L739 602L250 885L283 1174L1045 735L1015 469Z" />
<glyph unicode="?" glyph-name="question" horiz-adv-x="1116" d="M550 1249Q522 1249 485 1243T406 1224T322 1195T243 1155L226 1165L186 1367Q253 1401 319 1424T447 1460T568 1479T678 1485Q790 1485 869 1462T998 1401T1070 1312T1093 1207Q1093 1150 1074
1106T1025 1025T954 960T872 903T789 848T715 789T659 721T631 636L627 604H361Q359 616 359 630T358 657Q358 727 381 780T440 875T517 951T593 1018T652 1082T676 1152Q676 1197 641 1223T550 1249ZM435 -20Q393 -20 357 -5T293 38T251 102T235 183Q235 239 257
285T316 365T400 417T496 436Q539 436 575 421T639 378T681 314T697 233Q697 177 674 131T614 51T530 -1T435 -20Z" />
<glyph unicode="@" glyph-name="at" horiz-adv-x="2410" d="M1329 168Q1285 124 1245 89T1166 30T1087 -7T1004 -20Q933 -20 879 12T788 96T732 213T713 346Q713 415 733 484T792 618T888 738T1018 835T1181 900T1375 924Q1444 924 1534 911T1734 859L1666 262Q1742
295 1797 353T1889 480T1942 623T1960 764Q1960 882 1911 967T1781 1108T1594 1189T1374 1215Q1245 1215 1128 1184T912 1095T732 956T596 774T509 557T478 313Q478 168 519 52T643 -146T852 -271T1147 -315Q1214 -315 1293 -308T1455 -282T1623 -236T1785 -165L1765
-339Q1681 -402 1587 -446T1398 -517T1209 -557T1032 -570Q920 -570 812 -549T606 -483T425 -371T282 -209T187 5T153 274Q153 452 202 610T339 901T547 1139T809 1318T1109 1431T1431 1470Q1535 1470 1636 1454T1830 1403T2001 1317T2138 1192T2228 1028T2261
822Q2261 667 2199 528T2018 275T1729 78T1344 -48L1329 168ZM1385 663Q1378 668 1366 672T1338 680T1307 686T1275 688Q1223 688 1181 664T1110 600T1064 512T1048 414Q1048 382 1055 351T1076 294T1110 254T1158 238Q1181 238 1207 249T1258 278T1308 320T1352
369L1385 663Z" />
<glyph unicode="A" glyph-name="A" horiz-adv-x="1457" d="M882 320H429L312 0H-20L587 1465H1086L1357 0H928L882 320ZM852 539L789 991L768 1217H748L675 991L509 539H852Z" />
<glyph unicode="B" glyph-name="B" horiz-adv-x="1496" d="M1106 816Q1157 803 1208 775T1299 705T1365 608T1391 483Q1391 387 1339 300T1191 146T956 40T645 0H110L277 1465H871Q1003 1465 1103 1442T1270 1377T1371 1280T1405 1159Q1405 1098 1382 1051T1318
964T1223 889T1106 816ZM543 239H702Q763 239 812 258T897 309T951 384T971 474Q971 520 953 552T903 605T828 635T734 645H589L543 239ZM886 864Q907 877 927 898T962 945T987 1003T997 1068Q997 1104 984 1133T946 1183T887 1215T811 1226H656L614 864H886Z"
/>
<glyph unicode="C" glyph-name="C" horiz-adv-x="1437" d="M1284 138Q1235 102 1173 73T1042 23T900 -9T756 -20Q613 -20 495 25T292 154T160 359T113 629Q113 765 151 881T256 1093T414 1261T610 1384T829 1459T1058 1485Q1093 1485 1139 1483T1237 1474T1340
1459T1441 1436L1354 1180L1333 1172Q1252 1213 1174 1229T1034 1246Q926 1246 835 1206T678 1092T576 918T539 693Q539 585 568 501T655 358T797 269T990 238Q1036 238 1076 243T1151 257T1219 278T1284 303V138Z" />
<glyph unicode="D" glyph-name="D" horiz-adv-x="1666" d="M277 1465H877Q1054 1465 1189 1422T1416 1298T1554 1105T1601 850Q1601 756 1579 656T1510 462T1389 283T1210 135T970 36T662 -1L110 0L277 1465ZM543 239H728Q843 239 928 287T1069 416T1152 603T1180
824Q1180 1033 1090 1129T822 1226H656L543 239Z" />
<glyph unicode="E" glyph-name="E" horiz-adv-x="1286" d="M110 0L277 1465H1266L1197 1226H656L614 864H1081L1019 645H589L543 239H1133L1064 0H110Z" />
<glyph unicode="F" glyph-name="F" horiz-adv-x="1249" d="M110 0L277 1465H1266L1197 1226H656L614 864H1081L1019 645H589L516 0H110Z" />
<glyph unicode="G" glyph-name="G" horiz-adv-x="1568" d="M1368 84Q1217 31 1080 6T809 -20Q627 -20 495 24T278 149T151 346T110 605Q110 749 148 870T253 1089T412 1261T611 1385T836 1460T1073 1485Q1110 1485 1159 1483T1261 1474T1369 1459T1471 1436L1385
1179L1364 1171Q1323 1192 1281 1206T1197 1229T1116 1242T1044 1246Q930 1246 837 1206T677 1091T574 911T537 674Q537 570 560 486T629 342T739 251T889 219Q903 219 922 220T961 223T999 228T1029 235L1087 744H1443L1368 84Z" />
<glyph unicode="H" glyph-name="H" horiz-adv-x="1698" d="M110 0L277 1465H683L616 874H1162L1229 1465H1635L1468 0H1062L1134 635H588L516 0H110Z" />
<glyph unicode="I" glyph-name="I" horiz-adv-x="746" d="M516 0H110L277 1465H683L516 0Z" />
<glyph unicode="J" glyph-name="J" horiz-adv-x="746" d="M-233 -346Q-143 -291 -79 -236T29 -115T98 33T136 226L277 1465H684L553 317Q534 152 482 24T343 -204T132 -378T-151 -507L-233 -346Z" />
<glyph unicode="K" glyph-name="K" horiz-adv-x="1664" d="M516 0H110L277 1465H683L516 0ZM1066 0L687 740L1308 1465H1680L1086 836L1554 0H1066Z" />
<glyph unicode="L" glyph-name="L" horiz-adv-x="1196" d="M110 0L277 1465H683L543 239H1073L1004 0H110Z" />
<glyph unicode="M" glyph-name="M" horiz-adv-x="2172" d="M80 0L365 1465H932L1025 791L1048 493H1068L1166 792L1412 1465H2021L1972 0H1528L1597 931L1628 1213H1603L1509 939L1163 29H791L653 937L619 1213H594L562 933L420 0H80Z" />
<glyph unicode="N" glyph-name="N" horiz-adv-x="1740" d="M110 0L277 1465H821L1157 732L1243 501H1263L1283 760L1363 1465H1677L1510 0H1076L646 927L565 1146H545L527 908L424 0H110Z" />
<glyph unicode="O" glyph-name="O" horiz-adv-x="1746" d="M852 219Q946 219 1021 269T1148 401T1229 587T1257 801Q1257 892 1237 972T1178 1114T1079 1210T941 1246Q878 1246 824 1223T725 1160T645 1064T586 943T550 807T537 663Q537 573 557 492T616 351T715
255T852 219ZM794 -20Q641 -20 516 23T301 150T163 355T114 634Q114 822 182 978T369 1247T650 1422T1000 1485Q1153 1485 1278 1442T1492 1316T1630 1111T1679 831Q1679 705 1648 593T1560 387T1423 217T1245 89T1032 8T794 -20Z" />
<glyph unicode="P" glyph-name="P" horiz-adv-x="1456" d="M516 0H110L277 1465H845Q988 1465 1095 1434T1272 1346T1378 1208T1413 1026Q1413 904 1366 803T1236 630T1043 517T809 477Q792 477 777 478T743 482L786 698Q790 697 801 697T821 696Q875 696 912
724T973 797T1006 894T1016 996Q1016 1058 1001 1102T958 1173T890 1213T800 1226H656L516 0Z" />
<glyph unicode="Q" glyph-name="Q" horiz-adv-x="1746" d="M785 -20Q636 -20 513 23T301 151T163 357T114 636Q114 760 145 871T232 1077T369 1246T547 1375T760 1456T1000 1485Q1156 1485 1281 1441T1495 1313T1631 1108T1679 833Q1679 704 1645 589T1549 377T1397
203T1196 72L1870 -164L1631 -443L785 -20ZM852 219Q946 219 1021 269T1148 401T1229 587T1257 801Q1257 892 1237 972T1178 1114T1079 1210T941 1246Q878 1246 824 1223T725 1160T645 1064T586 943T550 807T537 663Q537 573 557 492T616 351T715 255T852 219Z"
/>
<glyph unicode="R" glyph-name="R" horiz-adv-x="1491" d="M576 528L516 0H110L277 1465H840Q985 1465 1089 1435T1261 1355T1360 1240T1392 1105Q1392 1031 1361 968T1281 851T1174 754T1064 676L1391 0H922L734 528H576ZM601 747H829Q856 761 884 785T936 844T974
922T989 1017Q989 1063 976 1101T938 1167T874 1210T785 1226H656L601 747Z" />
<glyph unicode="S" glyph-name="S" horiz-adv-x="1206" d="M505 219Q548 219 590 228T667 256T722 306T743 380Q743 426 719 460T654 524T563 579T459 633T355 696T264 775T200 880T175 1017Q175 1121 220 1207T347 1355T544 1451T799 1485Q834 1485 881 1483T981
1474T1089 1459T1195 1435L1108 1180L1090 1172Q1048 1192 1005 1206T920 1229T841 1242T775 1246Q727 1246 688 1236T621 1207T578 1161T562 1099Q562 1055 586 1022T651 960T742 906T846 852T951 789T1042 709T1106 603T1131 464Q1131 358 1086 270T956 117T754
16T490 -20Q440 -20 382 -15T263 1T140 30T19 75L105 331L127 341Q183 314 232 292T326 254T416 228T505 219Z" />
<glyph unicode="T" glyph-name="T" horiz-adv-x="1415" d="M850 0H444L584 1226H140L209 1465H1462L1393 1226H990L850 0Z" />
<glyph unicode="U" glyph-name="U" horiz-adv-x="1544" d="M673 1465L566 526Q557 450 568 393T607 297T678 239T777 219Q832 219 881 238T970 296T1035 392T1070 525L1177 1465H1491L1389 573Q1374 441 1321 332T1180 145T970 24T693 -20Q554 -20 448 16T273
124T175 300T161 541L266 1465H673Z" />
<glyph unicode="V" glyph-name="V" horiz-adv-x="1457" d="M1192 1465H1524L902 0H433L147 1465H576L721 526L744 312H764L835 526L1192 1465Z" />
<glyph unicode="W" glyph-name="W" horiz-adv-x="2184" d="M1451 1357L1527 529L1541 312H1561L1618 529L1912 1465H2236L1723 0H1234L1167 713L1156 956H1136L1069 713L841 0H342L162 1465H583L664 529L674 312H694L755 529L1021 1357H1451Z" />
<glyph unicode="X" glyph-name="X" horiz-adv-x="1518" d="M-25 0L590 726L175 1465H646L774 1207L858 1016H878L1012 1212L1198 1465H1566L982 786L1423 0H952L797 314L718 493H698L574 312L342 0H-25Z" />
<glyph unicode="Y" glyph-name="Y" horiz-adv-x="1431" d="M932 636L859 0H453L524 624L127 1465H592L737 1083L798 883H818L926 1084L1157 1465H1518L932 636Z" />
<glyph unicode="Z" glyph-name="Z" horiz-adv-x="1357" d="M820 1212L822 1232L633 1226H223L292 1465H1351L1342 1389L671 409L543 249L541 231L727 239H1244L1175 0H20L29 76L689 1050L820 1212Z" />
<glyph unicode="[" glyph-name="bracketleft" horiz-adv-x="974" d="M362 1602H986L957 1347H608L443 -103H792L763 -358H139L362 1602Z" />
<glyph unicode="\" glyph-name="backslash" horiz-adv-x="991" d="M816 -308H541L218 1602H493L816 -308Z" />
<glyph unicode="]" glyph-name="bracketright" horiz-adv-x="974" d="M633 -358H9L38 -103H387L552 1347H203L232 1602H856L633 -358Z" />
<glyph unicode="^" glyph-name="asciicircum" horiz-adv-x="1233" d="M871 1465L1149 665H868L691 1174L397 665H116L577 1465H871Z" />
<glyph unicode="_" glyph-name="underscore" horiz-adv-x="1047" d="M957 0L928 -255H-59L-30 0H957Z" />
<glyph unicode="`" glyph-name="grave" horiz-adv-x="986" d="M568 1240L323 1602H713L868 1240H568Z" />
<glyph unicode="a" glyph-name="a" horiz-adv-x="1346" d="M839 817Q820 828 797 836T745 844Q689 844 642 811T560 723T506 597T486 451Q486 397 496 357T523 291T563 251T611 238Q635 238 659 249T706 277T750 317T788 362L839 817ZM1146 0H800L780 198Q738
153 694 114T602 44T505 -3T400 -20Q324 -20 263 14T159 108T93 245T70 413Q70 509 98 595T177 756T295 890T443 992T610 1057T785 1080Q862 1080 921 1064T1031 1020L1270 1088L1146 0Z" />
<glyph unicode="b" glyph-name="b" horiz-adv-x="1354" d="M508 243Q531 231 557 224T611 216Q670 216 717 249T798 337T850 462T868 604Q868 661 858 702T829 770T788 809T740 822Q716 822 691 811T643 783T598 743T559 698L508 243ZM580 873Q616 912 658 949T747
1015T845 1062T952 1080Q1027 1080 1088 1046T1193 952T1260 814T1284 646Q1284 551 1257 465T1182 304T1065 170T915 68T740 3T547 -20Q514 -20 462 -17T347 -7T217 13T85 46L262 1602H662L580 873Z" />
<glyph unicode="c" glyph-name="c" horiz-adv-x="1021" d="M897 132Q800 54 696 17T489 -20Q388 -20 310 13T179 105T98 245T70 422Q70 518 97 604T172 763T286 894T432 994T602 1058T786 1080Q828 1080 888 1074T1025 1044L944 802L925 792Q896 808 855 826T762
844Q708 844 659 819T571 749T511 638T488 494Q488 424 506 375T554 296T626 252T714 238Q753 238 796 248T897 287V132Z" />
<glyph unicode="d" glyph-name="d" horiz-adv-x="1353" d="M787 198Q745 153 700 114T607 44T508 -3T403 -20Q327 -20 266 14T161 108T94 245T70 413Q70 509 97 595T171 756T282 890T419 992T573 1057T734 1080Q784 1080 820 1073T874 1060L936 1602H1336L1153
0H807L787 198ZM846 817Q823 829 797 836T743 844Q684 844 637 811T556 723T504 598T486 456Q486 399 496 358T525 290T566 251T614 238Q638 238 663 249T711 277T756 317T795 362L846 817Z" />
<glyph unicode="e" glyph-name="e" horiz-adv-x="1214" d="M532 -20Q428 -20 343 11T197 102T103 248T70 442Q70 539 96 624T170 780T282 907T424 1001T588 1060T765 1080Q867 1080 943 1056T1069 991T1144 898T1169 791Q1169 712 1120 646T983 533T772 460T502
433H477Q477 393 495 358T547 296T630 254T743 238Q813 238 877 257T1011 313V158Q965 117 909 85T792 29T664 -7T532 -20ZM702 844Q663 844 626 820T557 757T505 665T478 557H520Q568 557 617 568T705 601T770 655T795 731Q795 747 791 766T776 803T747 832T702
844Z" />
<glyph unicode="f" glyph-name="f" horiz-adv-x="979" d="M586 209Q575 113 554 10T505 -193T445 -381T379 -536H101L256 824H44L87 988L285 1060L288 1088Q300 1200 344 1297T463 1467T640 1580T871 1622Q924 1622 981 1615T1090 1591L1014 1364L994 1354Q972
1369 942 1377T882 1386Q795 1386 750 1314T689 1110L683 1060H1005L926 824H656L586 209Z" />
<glyph unicode="g" glyph-name="g" horiz-adv-x="1353" d="M846 817Q823 829 797 836T743 844Q684 844 637 811T556 723T504 598T486 456Q486 399 496 358T525 290T566 251T614 238Q638 238 663 249T711 277T756 317T795 362L846 817ZM1158 31Q1142 -113 1081
-222T923 -406T703 -518T437 -556Q390 -556 339 -552T237 -538T137 -515T45 -481L124 -248L143 -238Q224 -282 300 -301T431 -320Q490 -320 544 -301T641 -247T712 -164T747 -58L774 187Q738 148 696 111T607 45T509 -2T402 -20Q327 -20 266 14T161 108T94 246T70
413Q70 509 97 595T174 756T290 890T437 992T604 1057T784 1080Q864 1080 926 1064T1038 1020L1277 1088L1158 31Z" />
<glyph unicode="h" glyph-name="h" horiz-adv-x="1366" d="M578 856Q615 895 656 935T745 1007T848 1059T970 1080Q1044 1080 1100 1053T1193 979T1244 866T1250 725L1167 0H767L846 686Q853 751 827 786T756 822Q727 822 700 809T648 773T599 724T556 669L480
0H80L263 1602H663L578 856Z" />
<glyph unicode="i" glyph-name="i" horiz-adv-x="680" d="M201 1060H601L480 0H80L201 1060ZM411 1206Q363 1206 326 1219T263 1255T224 1309T210 1376Q210 1419 229 1458T283 1525T365 1571T467 1588Q515 1588 552 1575T616 1539T655 1485T669 1418Q669 1374
650 1336T596 1269T514 1223T411 1206Z" />
<glyph unicode="j" glyph-name="j" horiz-adv-x="680" d="M-171 -391Q-56 -303 7 -186T88 74L200 1060H600L499 172Q486 62 454 -45T359 -247T193 -422T-62 -556L-171 -391ZM411 1206Q363 1206 326 1219T262 1255T223 1309T209 1376Q209 1419 228 1458T282 1525T364
1571T467 1588Q514 1588 551 1575T615 1539T655 1485T669 1418Q669 1374 650 1336T596 1269T514 1223T411 1206Z" />
<glyph unicode="k" glyph-name="k" horiz-adv-x="1321" d="M263 1602H663L480 0H80L263 1602ZM778 0L572 562Q695 674 782 795T926 1060H1291Q1258 992 1212 926T1117 802T1022 696T942 619L1229 0H778Z" />
<glyph unicode="l" glyph-name="l" horiz-adv-x="680" d="M263 1602H663L480 0H80L263 1602Z" />
<glyph unicode="m" glyph-name="m" horiz-adv-x="2013" d="M201 1060H547L566 843Q608 888 651 930T743 1006T844 1059T960 1080Q1018 1080 1064 1062T1145 1012T1200 934T1229 835Q1270 884 1315 928T1409 1006T1513 1060T1627 1080Q1699 1080 1753 1053T1842
977T1891 865T1897 725L1814 0H1414L1493 686Q1500 751 1476 786T1412 822Q1388 822 1363 809T1313 774T1266 725T1223 670L1147 0H747L826 686Q833 751 809 786T745 822Q721 822 696 809T646 773T599 724T556 669L480 0H80L201 1060Z" />
<glyph unicode="n" glyph-name="n" horiz-adv-x="1366" d="M201 1060H547L566 843Q609 889 653 932T746 1008T850 1060T973 1080Q1046 1080 1101 1053T1193 978T1244 865T1250 725L1167 0H767L846 686Q853 752 827 787T754 822Q727 822 700 809T648 773T599 724T556
669L480 0H80L201 1060Z" />
<glyph unicode="o" glyph-name="o" horiz-adv-x="1319" d="M565 -20Q430 -20 336 20T183 126T97 276T70 447Q70 530 92 609T157 758T259 888T395 989T561 1056T753 1080Q886 1080 980 1041T1134 936T1221 786T1249 612Q1249 485 1199 371T1058 169T841 31T565
-20ZM628 216Q669 216 706 243T772 318T818 433T835 582Q835 640 826 688T799 770T753 824T690 844Q646 844 609 816T543 737T500 620T484 475Q484 353 522 285T628 216Z" />
<glyph unicode="p" glyph-name="p" horiz-adv-x="1353" d="M566 862Q608 907 653 946T746 1016T845 1063T950 1080Q1026 1080 1087 1046T1192 952T1259 815T1283 647Q1283 551 1256 465T1182 304T1071 170T934 68T780 3T619 -20Q569 -20 533 -13T479 0L418 -536H18L200
1060H546L566 862ZM507 243Q530 231 556 224T610 216Q669 216 716 249T797 337T849 462T867 604Q867 661 857 702T828 770T787 809T739 822Q715 822 690 811T642 783T597 743T558 698L507 243Z" />
<glyph unicode="q" glyph-name="q" horiz-adv-x="1353" d="M846 817Q823 829 797 836T743 844Q684 844 637 811T556 723T504 598T486 456Q486 399 496 358T525 290T566 251T614 238Q638 238 663 249T711 277T756 317T795 362L846 817ZM774 187Q738 148 696 111T607
45T509 -2T402 -20Q327 -20 266 14T161 108T94 246T70 413Q70 509 97 595T174 756T290 890T437 992T604 1057T784 1080Q864 1080 926 1064T1038 1020L1277 1088L1093 -536H693L774 187Z" />
<glyph unicode="r" glyph-name="r" horiz-adv-x="1034" d="M201 1060H547L548 685Q580 759 614 830T690 956T785 1046T910 1080Q976 1080 1034 1055L949 680Q913 685 888 686T837 688Q799 688 760 681T682 652T606 587T535 475L480 0H80L201 1060Z" />
<glyph unicode="s" glyph-name="s" horiz-adv-x="1015" d="M103 304L122 314Q197 267 274 242T424 216Q493 216 525 237T558 288Q558 318 526 340T446 385T341 432T236 495T155 585T123 713Q123 790 160 857T268 973T442 1051T678 1080Q762 1080 836 1069T965
1038L883 790L863 780Q802 812 743 828T630 844Q591 844 565 837T522 818T499 792T492 765Q492 734 524 712T604 667T709 621T813 561T894 476T926 353Q926 287 896 221T800 101T635 14T395 -20Q347 -20 297 -16T198 -2T104 22T21 56L103 304Z" />
<glyph unicode="t" glyph-name="t" horiz-adv-x="1047" d="M256 824H44L87 988Q143 1009 184 1027T257 1064T315 1107T366 1161T420 1232T485 1328H685L655 1060H1027L948 824H656L610 418Q604 368 613 334T642 278T692 248T761 238Q799 238 836 247T919 280V119Q828
53 724 17T517 -20Q420 -20 356 13T255 103T209 237T208 403L256 824Z" />
<glyph unicode="u" glyph-name="u" horiz-adv-x="1358" d="M1157 0H811L792 217Q750 172 707 130T615 54T512 1T393 -20Q320 -20 265 7T175 81T124 194T118 335L201 1060H601L522 374Q518 342 523 317T540 275T569 248T608 238Q633 238 659 251T709 285T757 334T802
391L878 1060H1278L1157 0Z" />
<glyph unicode="v" glyph-name="v" horiz-adv-x="1231" d="M115 1060H542L575 494L576 280H596Q652 371 695 464T772 655T829 854T872 1060H1231Q1193 911 1140 774T1018 506T865 250T680 0H256L115 1060Z" />
<glyph unicode="w" glyph-name="w" horiz-adv-x="1867" d="M898 411H878Q856 357 831 300T780 189T728 87T680 0H256L115 1060H542L575 494L576 280H596Q667 411 721 553T821 838L792 1060H1203L1236 494L1237 280H1257Q1309 371 1348 464T1417 655T1468 854T1508
1060H1867Q1829 911 1780 774T1666 506T1522 250T1341 0H933L898 411Z" />
<glyph unicode="x" glyph-name="x" horiz-adv-x="1212" d="M-51 0Q40 142 153 265T400 509L111 1060H558L612 934L668 752H689Q752 830 796 903T872 1060H1224Q1192 998 1143 934T1035 806T914 682T789 566L1084 0H638L574 154L522 309H502Q473 272 448 238T400
167T355 90T311 0H-51Z" />
<glyph unicode="y" glyph-name="y" horiz-adv-x="1231" d="M115 1060H542L575 494L576 280H596Q652 371 695 464T772 655T829 854T872 1060H1231Q1193 911 1140 774T1018 505T865 249T680 0L215 -573L-67 -433L390 0H256L115 1060Z" />
<glyph unicode="z" glyph-name="z" horiz-adv-x="1115" d="M9 76L438 668L560 810L563 830L380 824H134L213 1060H1078V984L642 386L524 246L522 228L701 236H1021L942 0H9V76Z" />
<glyph unicode="{" glyph-name="braceleft" horiz-adv-x="1037" d="M121 713Q165 727 204 746T274 795T325 867T353 968L370 1121Q383 1235 428 1324T548 1475T723 1569T947 1602H1049L1020 1347H918Q857 1347 809 1329T726 1280T671 1205T644 1111L628 968Q613
833 550 749T362 622Q476 578 520 495T549 276L533 133Q527 82 538 39T576 -36T648 -85T753 -103H855L826 -358H724Q601 -358 508 -326T354 -232T268 -81T256 123L274 276Q281 335 270 377T235 448T176 497T100 531L121 713Z" />
<glyph unicode="|" glyph-name="bar" horiz-adv-x="715" d="M343 1602H618L374 -537H99L343 1602Z" />
<glyph unicode="}" glyph-name="braceright" horiz-adv-x="1037" d="M937 531Q893 517 854 498T784 449T733 377T705 276L688 123Q675 9 630 -80T510 -231T335 -325T111 -358H9L38 -103H140Q201 -103 249 -86T332 -37T387 38T414 133L430 276Q445 411 508 494T696
622Q582 665 538 749T509 968L525 1111Q531 1162 520 1205T482 1279T410 1329T305 1347H203L232 1602H334Q457 1602 550 1570T704 1476T790 1325T802 1121L784 968Q777 909 788 867T823 796T882 747T958 713L937 531V531Z" />
<glyph unicode="~" glyph-name="asciitilde" horiz-adv-x="1528" d="M995 579Q1048 579 1080 643T1130 852H1385Q1367 697 1323 595T1217 433T1086 349T947 324Q877 324 829 344T748 394T691 460T647 526T603 577T547 597Q494 597 461 533T412 324H157Q175 479
219 581T325 743T456 827T595 852Q665 852 713 832T794 782T851 716T895 650T939 599T995 579Z" />
<glyph unicode="&#xa0;" glyph-name="uni00A0" horiz-adv-x="452" />
<glyph unicode="&#xa1;" glyph-name="exclamdown" horiz-adv-x="778" d="M521 456L507 -405H74L255 456H521ZM395 624Q353 624 317 639T253 682T211 746T195 827Q195 883 218 929T278 1009T362 1061T457 1080Q499 1080 535 1065T599 1022T641 958T657 877Q657
821 635 775T575 695T491 643T395 624Z" />
<glyph unicode="&#xa2;" glyph-name="cent" horiz-adv-x="1251" d="M554 177Q461 188 390 224T270 317T197 448T172 609Q172 726 210 828T316 1014T476 1157T676 1249L717 1606H972L934 1271H953Q968 1271 991 1269T1041 1263T1099 1252T1157 1236L1075 990L1056
980Q1042 989 1022 999T978 1017T927 1030T870 1036Q809 1036 758 1011T669 940T611 829T590 683Q590 615 609 568T663 489T748 444T857 430Q879 430 900 432T945 439T994 452T1052 472L1033 310Q974 265 919 237T811 194L770 -163H515L554 177Z" />
<glyph unicode="&#xa3;" glyph-name="sterling" horiz-adv-x="1459" d="M402 838L413 936Q428 1065 486 1167T634 1339T841 1447T1090 1485Q1115 1485 1148 1483T1216 1477T1288 1467T1357 1451L1270 1202L1247 1192Q1206 1218 1160 1232T1073 1246Q967 1246 903
1178T822 968L807 838H1195L1131 623H783L776 560Q770 511 756 469T720 388T673 317T618 253L616 233L817 239H1226L1157 0H120L129 76Q193 126 235 177T304 281T343 385T362 488L377 623H193L248 838H402Z" />
<glyph unicode="&#xa4;" glyph-name="currency" horiz-adv-x="1659" d="M345 711Q345 799 372 874T449 1018L278 1211L480 1392L652 1197Q715 1232 784 1251T923 1270Q989 1270 1050 1252T1164 1201L1377 1392L1537 1211L1326 1021Q1346 977 1357 924T1368 814Q1368
725 1340 650T1263 507L1435 314L1233 133L1061 328Q997 293 928 275T790 256Q724 256 663 273T549 324L336 133L176 314L388 504Q368 548 357 601T345 711ZM612 736Q612 685 629 644T677 573T746 527T828 511Q878 511 927 531T1014 588T1077 676T1101 790Q1101
841 1084 882T1036 953T967 999T885 1015Q835 1015 786 995T699 938T636 850T612 736Z" />
<glyph unicode="&#xa5;" glyph-name="yen" horiz-adv-x="1691" d="M1202 836H1451L1426 621H286L311 836H554L257 1465H722L867 1081L927 883H947L1051 1078L1287 1465H1648L1202 836ZM1019 266L989 0H583L613 266H246L270 481H1410L1386 266H1019Z" />
<glyph unicode="&#xa6;" glyph-name="brokenbar" horiz-adv-x="715" d="M240 702L343 1602H618L515 702H240ZM477 364L374 -537H99L202 364H477Z" />
<glyph unicode="&#xa7;" glyph-name="section" horiz-adv-x="1468" d="M214 -76L233 -67Q314 -103 401 -125T578 -148Q681 -148 738 -118T796 -31Q796 4 771 28T705 72T611 108T503 144T396 186T302 243T235 321T210 429Q210 495 234 547T297 643T384 724T480
796Q442 813 410 836T353 890T316 961T302 1055Q302 1158 346 1238T470 1373T664 1456T915 1485Q951 1485 995 1483T1087 1476T1180 1463T1267 1443L1182 1190L1163 1181Q1085 1216 1010 1231T867 1246Q828 1246 794 1241T734 1224T695 1193T680 1145Q680 1110
705 1085T771 1041T865 1004T972 967T1079 924T1173 867T1240 788T1265 680Q1265 615 1241 562T1180 465T1096 383T1004 312Q1040 295 1071 272T1125 219T1161 149T1174 58Q1174 -45 1129 -127T1000 -267T801 -356T541 -387Q484 -387 428 -382T318 -369T216 -351T129
-329L214 -76ZM912 551Q912 592 892 620T836 669T756 705T661 734Q646 725 629 708T598 667T574 617T564 561Q564 520 584 492T639 442T719 406T813 377Q828 386 845 403T877 444T902 494T912 551Z" />
<glyph unicode="&#xa8;" glyph-name="dieresis" horiz-adv-x="1289" d="M300 1398Q300 1436 317 1472T364 1536T433 1581T516 1598Q552 1598 582 1585T635 1551T669 1500T681 1438Q681 1400 665 1364T620 1301T553 1257T469 1240Q433 1240 402 1252T349 1286T313
1337T300 1398ZM811 1398Q811 1436 828 1472T875 1536T944 1581T1027 1598Q1063 1598 1093 1585T1146 1551T1180 1500T1192 1438Q1192 1400 1176 1364T1131 1301T1064 1257T980 1240Q944 1240 913 1252T860 1286T824 1337T811 1398Z" />
<glyph unicode="&#xa9;" glyph-name="copyright" horiz-adv-x="2034" d="M216 651Q216 781 248 898T341 1114T485 1292T671 1427T891 1512T1137 1542Q1314 1542 1450 1486T1678 1333T1818 1103T1865 816Q1865 686 1833 570T1740 354T1596 176T1410 41T1189 -45T942
-75Q765 -75 629 -19T402 134T263 364T216 651ZM456 676Q456 569 489 472T589 301T756 184T989 140Q1140 140 1258 195T1457 342T1582 551T1625 791Q1625 898 1592 995T1492 1166T1325 1283T1093 1327Q992 1327 906 1302T749 1231T624 1124T532 990T475 837T456
676ZM1288 426Q1151 330 1002 330Q930 330 868 353T759 420T687 528T660 676Q660 749 680 811T737 925T822 1016T929 1082T1049 1123T1175 1137Q1210 1137 1257 1131T1368 1103L1305 880L1295 876Q1249 900 1213 911T1140 922Q1102 922 1065 910T997 874T948 811T929
721Q929 640 975 592T1110 544Q1145 544 1197 554T1307 597L1288 426Z" />
<glyph unicode="&#xaa;" glyph-name="ordfeminine" horiz-adv-x="1262" d="M719 681Q687 657 652 633T577 589T496 557T407 544Q345 544 303 567T236 625T201 701T190 779Q190 851 227 912T334 1016T501 1084T719 1109H748L753 1151Q761 1212 728 1241T634 1270Q601
1270 565 1262T492 1241T418 1209T346 1170L332 1178L294 1390Q417 1438 528 1461T749 1485Q832 1485 901 1470T1019 1418T1089 1322T1102 1174L1065 854Q1061 817 1072 797T1117 776Q1128 776 1135 776T1151 779L1134 635Q1075 597 1017 571T894 544Q827 544 783
577T719 681ZM734 985H677Q586 985 540 956T494 862Q494 816 521 796T585 776Q604 776 623 780T660 792T692 806T715 820L734 985Z" />
<glyph unicode="&#xab;" glyph-name="guillemotleft" horiz-adv-x="1250" d="M103 634L476 1030L645 855L367 574L581 293L372 118L89 514L103 634ZM626 634L999 1030L1168 855L890 574L1104 293L895 118L612 514L626 634Z" />
<glyph unicode="&#xac;" glyph-name="logicalnot" horiz-adv-x="1426" d="M1260 828L1187 190H922L966 573H155L184 828H1260Z" />
<glyph unicode="&#xad;" glyph-name="uni00AD" horiz-adv-x="986" d="M858 719L829 464H143L172 719H858Z" />
<glyph unicode="&#xae;" glyph-name="registered" horiz-adv-x="2034" d="M216 651Q216 781 248 898T341 1114T485 1292T671 1427T891 1512T1137 1542Q1314 1542 1450 1486T1678 1333T1818 1103T1865 816Q1865 686 1833 570T1740 354T1596 176T1410 41T1189 -45T942
-75Q765 -75 629 -19T402 134T263 364T216 651ZM456 676Q456 569 489 472T589 301T756 184T989 140Q1140 140 1258 195T1457 342T1582 551T1625 791Q1625 898 1592 995T1492 1166T1325 1283T1093 1327Q992 1327 906 1302T749 1231T624 1124T532 990T475 837T456
676ZM684 329L777 1138H1076Q1145 1138 1204 1123T1307 1080T1374 1009T1399 913Q1399 865 1382 826T1340 754T1288 698T1241 656L1371 329H1085L1026 512H953L932 329H684ZM1073 727Q1082 733 1093 743T1115 768T1132 801T1139 841Q1139 881 1116 902T1058 923H1000L978
727H1073Z" />
<glyph unicode="&#xaf;" glyph-name="overscore" horiz-adv-x="1042" d="M310 1495H952L923 1240H281L310 1495Z" />
<glyph unicode="&#xb0;" glyph-name="degree" horiz-adv-x="1125" d="M224 1159Q224 1261 263 1346T368 1493T519 1588T695 1622Q772 1622 838 1596T953 1523T1029 1408T1057 1259Q1057 1157 1018 1072T913 926T762 831T585 797Q508 797 442 823T328 896T252 1010T224
1159ZM452 1192Q452 1149 466 1116T503 1059T558 1024T623 1012Q660 1012 697 1026T763 1067T811 1134T829 1226Q829 1269 815 1302T777 1359T722 1394T657 1407Q619 1407 583 1393T517 1352T470 1284T452 1192Z" />
<glyph unicode="&#xb1;" glyph-name="plusminus" horiz-adv-x="1407" d="M892 1017H1263L1234 762H863L825 429H560L598 762H227L256 1017H627L665 1350H930L892 1017ZM1176 255L1147 0H140L169 255H1176Z" />
<glyph unicode="&#xb2;" glyph-name="twosuperior" horiz-adv-x="958" d="M89 595Q176 674 252 749T383 893T471 1027T503 1150Q503 1184 492 1207T460 1244T413 1264T356 1270Q314 1270 276 1262T216 1245L233 1391Q262 1408 302 1425T388 1455T486 1477T590
1485Q668 1485 723 1466T815 1414T868 1340T885 1251Q885 1184 853 1119T766 988T639 858T487 729H881L815 514H79L89 595Z" />
<glyph unicode="&#xb3;" glyph-name="threesuperior" horiz-adv-x="884" d="M860 1307Q860 1262 837 1228T778 1169T702 1125T626 1091L623 1071Q665 1061 701 1044T764 1002T806 941T821 861Q821 820 809 779T767 699T684 627T552 568T360 529T99 514L123 729Q234
729 299 738T397 763T440 798T449 836Q449 885 392 906T232 922L249 1071Q281 1076 320 1085T394 1110T452 1147T476 1198Q476 1234 438 1252T340 1270Q297 1270 262 1262T195 1244L211 1386Q245 1407 288 1425T380 1456T481 1477T584 1485Q656 1485 708 1470T794
1429T844 1372T860 1307Z" />
<glyph unicode="&#xb4;" glyph-name="acute" horiz-adv-x="982" d="M281 1240L518 1602H904L577 1240H281Z" />
<glyph unicode="&#xb6;" glyph-name="paragraph" horiz-adv-x="1572" d="M654 462Q550 462 457 491T292 577T178 718T136 912Q136 1039 186 1141T330 1316T554 1426T845 1465H1509L1281 -536H1016L1215 1210H1004L805 -536H540L654 462Z" />
<glyph unicode="&#xb7;" glyph-name="middot" horiz-adv-x="694" d="M321 327Q279 327 243 342T179 385T137 449T121 530Q121 586 143 632T203 712T287 764T383 783Q425 783 461 768T525 725T567 661T583 580Q583 524 560 478T500 398T416 346T321 327Z" />
<glyph unicode="&#xb8;" glyph-name="cedilla" horiz-adv-x="864" d="M536 6Q551 -18 563 -53T576 -135Q576 -193 552 -250T472 -354T322 -428T88 -457L110 -263Q186 -263 234 -249T309 -212T345 -159T355 -96Q355 -71 349 -47T328 6H536Z" />
<glyph unicode="&#xb9;" glyph-name="onesuperior" horiz-adv-x="723" d="M246 514L322 1182H115L135 1357Q263 1357 353 1385T501 1465H710L602 514H246Z" />
<glyph unicode="&#xba;" glyph-name="ordmasculine" horiz-adv-x="1332" d="M630 544Q517 544 438 577T307 665T233 791T209 938Q209 1049 252 1148T375 1323T566 1441T811 1485Q922 1485 1002 1453T1133 1366T1209 1240T1234 1090Q1234 975 1189 875T1064 702T872
586T630 544ZM697 759Q736 759 769 777T827 832T865 926T879 1061Q879 1157 846 1213T746 1270Q661 1270 613 1192T564 966Q564 865 598 812T697 759Z" />
<glyph unicode="&#xbb;" glyph-name="guillemotright" horiz-adv-x="1250" d="M635 514L262 118L93 293L371 574L157 855L366 1030L649 634L635 514ZM1158 514L785 118L616 293L894 574L680 855L889 1030L1172 634L1158 514Z" />
<glyph unicode="&#xbc;" glyph-name="onequarter" horiz-adv-x="2190" d="M1326 1465H1621L739 0H444L1326 1465ZM276 514L352 1182H145L165 1357Q293 1357 383 1385T531 1465H740L632 514H276ZM1145 334L1512 951H1992L1933 439H2070L2015 224H1909L1883 0H1542L1568
224H1133L1145 334ZM1592 439L1616 650L1638 802H1618L1545 663L1415 439H1592Z" />
<glyph unicode="&#xbd;" glyph-name="onehalf" horiz-adv-x="2208" d="M1326 1465H1621L739 0H444L1326 1465ZM276 514L352 1182H145L165 1357Q293 1357 383 1385T531 1465H740L632 514H276ZM1251 81Q1338 160 1413 235T1544 379T1632 513T1664 636Q1664 670 1653
693T1621 730T1575 750T1517 756Q1475 756 1437 748T1378 731L1394 877Q1423 894 1463 911T1549 941T1647 963T1751 971Q1829 971 1884 952T1976 900T2029 826T2046 737Q2046 670 2014 605T1927 474T1800 344T1649 215H2043L1976 0H1240L1251 81Z" />
<glyph unicode="&#xbe;" glyph-name="threequarters" horiz-adv-x="2260" d="M1396 1465H1691L809 0H514L1396 1465ZM1215 334L1582 951H2062L2003 439H2140L2085 224H1979L1953 0H1612L1638 224H1203L1215 334ZM1662 439L1686 650L1708 802H1688L1615 663L1485
439H1662ZM890 1307Q890 1262 867 1228T808 1169T732 1125T656 1091L653 1071Q695 1061 731 1044T794 1002T836 941T851 861Q851 820 839 779T797 699T714 627T582 568T390 529T129 514L153 729Q264 729 329 738T427 763T470 798T479 836Q479 885 422 906T262 922L279
1071Q311 1076 350 1085T424 1110T482 1147T506 1198Q506 1234 468 1252T370 1270Q327 1270 292 1262T225 1244L241 1386Q275 1407 318 1425T410 1456T511 1477T614 1485Q686 1485 738 1470T824 1429T874 1372T890 1307Z" />
<glyph unicode="&#xbf;" glyph-name="questiondown" horiz-adv-x="1006" d="M517 -189Q545 -189 582 -183T661 -164T745 -135T824 -95L841 -105L881 -307Q813 -341 747 -364T619 -400T498 -419T388 -425Q275 -425 197 -402T69 -341T-3 -252T-26 -147Q-26 -71 6
-17T88 80T194 157T303 231T392 315T436 424L440 456H706Q707 444 707 430T708 403Q708 334 685 281T626 185T550 109T473 42T415 -22T391 -92Q391 -137 426 -163T517 -189ZM571 624Q528 624 491 639T427 682T385 746T370 827Q370 883 393 929T453 1009T537 1061T632
1080Q674 1080 710 1065T774 1022T816 958T832 877Q832 821 810 775T750 695T666 643T571 624Z" />
<glyph unicode="&#xc0;" glyph-name="Agrave" horiz-adv-x="1457" d="M882 320H429L312 0H-20L587 1465H1086L1357 0H928L882 320ZM852 539L789 991L768 1217H748L675 991L509 539H852ZM785 1602L540 1964H930L1085 1602H785Z" />
<glyph unicode="&#xc1;" glyph-name="Aacute" horiz-adv-x="1457" d="M882 320H429L312 0H-20L587 1465H1086L1357 0H928L882 320ZM852 539L789 991L768 1217H748L675 991L509 539H852ZM611 1602L848 1964H1234L907 1602H611Z" />
<glyph unicode="&#xc2;" glyph-name="Acircumflex" horiz-adv-x="1457" d="M882 320H429L312 0H-20L587 1465H1086L1357 0H928L882 320ZM852 539L789 991L768 1217H748L675 991L509 539H852ZM429 1602L706 1964H1068L1263 1602H963L867 1802L725 1602H429Z" />
<glyph unicode="&#xc3;" glyph-name="Atilde" horiz-adv-x="1457" d="M882 320H429L312 0H-20L587 1465H1086L1357 0H928L882 320ZM852 539L789 991L768 1217H748L675 991L509 539H852ZM974 1602Q932 1602 902 1613T850 1640T813 1676T783 1711T756 1739T725 1750Q712
1750 699 1743T673 1718T652 1672T638 1602H423Q434 1697 466 1765T542 1878T640 1943T747 1964Q789 1964 819 1953T872 1926T911 1890T942 1855T969 1827T998 1816Q1011 1816 1024 1824T1049 1849T1070 1895T1084 1964H1299Q1288 1869 1256 1801T1179 1688T1081
1623T974 1602Z" />
<glyph unicode="&#xc4;" glyph-name="Adieresis" horiz-adv-x="1457" d="M882 320H429L312 0H-20L587 1465H1086L1357 0H928L882 320ZM852 539L789 991L768 1217H748L675 991L509 539H852ZM429 1760Q429 1798 446 1834T493 1898T562 1943T645 1960Q681 1960 711
1947T764 1913T798 1862T810 1800Q810 1762 794 1726T750 1663T683 1619T599 1602Q563 1602 532 1614T478 1648T442 1699T429 1760ZM940 1760Q940 1798 957 1834T1004 1898T1073 1943T1156 1960Q1192 1960 1222 1947T1275 1913T1309 1862T1321 1800Q1321 1762 1305
1726T1261 1663T1194 1619T1110 1602Q1074 1602 1043 1614T989 1648T953 1699T940 1760Z" />
<glyph unicode="&#xc5;" glyph-name="Aring" horiz-adv-x="1457" d="M882 320H429L312 0H-20L587 1465H1086L1357 0H928L882 320ZM852 539L789 991L768 1217H748L675 991L509 539H852ZM776 1712Q776 1673 798 1648T858 1623Q879 1623 898 1631T932 1655T955 1690T964
1735Q964 1774 941 1799T881 1824Q860 1824 841 1816T807 1792T785 1757T776 1712ZM556 1695Q556 1762 584 1815T661 1905T774 1962T908 1982Q971 1982 1021 1966T1108 1919T1163 1846T1183 1753Q1183 1686 1155 1633T1078 1543T965 1485T831 1465Q768 1465 718
1482T631 1529T576 1601T556 1695Z" />
<glyph unicode="&#xc6;" glyph-name="AE" horiz-adv-x="1994" d="M917 320H464L298 0H-40L792 1465H1931L1862 1226H1338L1333 864H1817L1755 645H1329L1324 239H1841L1772 0H914L917 320ZM920 539L927 991L941 1217H921L813 991L577 539H920Z" />
<glyph unicode="&#xc7;" glyph-name="Ccedilla" horiz-adv-x="1437" d="M1284 138Q1221 90 1133 55T952 0Q967 -26 978 -59T989 -137Q989 -193 966 -250T886 -353T736 -428T501 -457L523 -263Q599 -263 647 -249T722 -212T758 -160T768 -98Q768 -56 752 -20Q611
-20 494 25T292 155T160 359T113 629Q113 765 151 881T257 1093T415 1261T611 1384T830 1459T1059 1485Q1094 1485 1140 1483T1237 1474T1340 1459T1441 1436L1353 1180L1333 1172Q1252 1214 1174 1230T1033 1246Q925 1246 834 1206T678 1092T576 918T539 693Q539
584 569 500T656 357T796 269T988 238Q1080 238 1151 257T1284 303V138Z" />
<glyph unicode="&#xc8;" glyph-name="Egrave" horiz-adv-x="1286" d="M110 0L277 1465H1266L1197 1226H656L614 864H1081L1019 645H589L543 239H1133L1064 0H110ZM677 1602L432 1964H822L977 1602H677Z" />
<glyph unicode="&#xc9;" glyph-name="Eacute" horiz-adv-x="1286" d="M110 0L277 1465H1266L1197 1226H656L614 864H1081L1019 645H589L543 239H1133L1064 0H110ZM603 1602L840 1964H1226L899 1602H603Z" />
<glyph unicode="&#xca;" glyph-name="Ecircumflex" horiz-adv-x="1286" d="M110 0L277 1465H1266L1197 1226H656L614 864H1081L1019 645H589L543 239H1133L1064 0H110ZM385 1602L662 1964H1024L1219 1602H919L823 1802L681 1602H385Z" />
<glyph unicode="&#xcb;" glyph-name="Edieresis" horiz-adv-x="1286" d="M110 0L277 1465H1266L1197 1226H656L614 864H1081L1019 645H589L543 239H1133L1064 0H110ZM362 1760Q362 1798 379 1834T426 1898T495 1943T578 1960Q614 1960 644 1947T697 1913T731 1862T743
1800Q743 1762 727 1726T683 1663T616 1619T532 1602Q496 1602 465 1614T411 1648T375 1699T362 1760ZM873 1760Q873 1798 890 1834T937 1898T1006 1943T1089 1960Q1125 1960 1155 1947T1208 1913T1242 1862T1254 1800Q1254 1762 1238 1726T1194 1663T1127 1619T1043
1602Q1007 1602 976 1614T922 1648T886 1699T873 1760Z" />
<glyph unicode="&#xcc;" glyph-name="Igrave" horiz-adv-x="746" d="M516 0H110L277 1465H683L516 0ZM403 1602L158 1964H548L703 1602H403Z" />
<glyph unicode="&#xcd;" glyph-name="Iacute" horiz-adv-x="746" d="M516 0H110L277 1465H683L516 0ZM395 1602L150 1964H540L695 1602H395Z" />
<glyph unicode="&#xce;" glyph-name="Icircumflex" horiz-adv-x="746" d="M516 0H110L277 1465H683L516 0ZM81 1602L358 1964H720L915 1602H615L519 1802L377 1602H81Z" />
<glyph unicode="&#xcf;" glyph-name="Idieresis" horiz-adv-x="746" d="M516 0H110L277 1465H683L516 0ZM69 1760Q69 1798 86 1834T133 1898T202 1943T285 1960Q321 1960 351 1947T404 1913T438 1862T450 1800Q450 1762 434 1726T390 1663T323 1619T239 1602Q203
1602 172 1614T118 1648T82 1699T69 1760ZM580 1760Q580 1798 597 1834T644 1898T713 1943T796 1960Q832 1960 862 1947T915 1913T949 1862T961 1800Q961 1762 945 1726T901 1663T834 1619T750 1602Q714 1602 683 1614T629 1648T593 1699T580 1760Z" />
<glyph unicode="&#xd0;" glyph-name="Eth" horiz-adv-x="1686" d="M228 861L297 1465H897Q1074 1465 1209 1422T1436 1298T1574 1105T1621 850Q1621 756 1599 656T1530 462T1409 283T1230 135T990 36T682 -1L130 0L199 606H49L78 861H228ZM634 861H918L889 606H605L563
239H748Q863 239 948 287T1089 416T1172 603T1200 824Q1200 1033 1110 1129T842 1226H676L634 861Z" />
<glyph unicode="&#xd1;" glyph-name="Ntilde" horiz-adv-x="1740" d="M110 0L277 1465H821L1157 732L1243 501H1263L1283 760L1363 1465H1677L1510 0H1076L646 927L565 1146H545L527 908L424 0H110ZM1140 1602Q1098 1602 1068 1613T1016 1640T979 1676T949 1711T922
1739T891 1750Q878 1750 865 1743T839 1718T818 1672T804 1602H589Q600 1697 632 1765T708 1878T806 1943T913 1964Q955 1964 985 1953T1038 1926T1077 1890T1108 1855T1135 1827T1164 1816Q1177 1816 1190 1824T1215 1849T1236 1895T1250 1964H1465Q1454 1869
1422 1801T1345 1688T1247 1623T1140 1602Z" />
<glyph unicode="&#xd2;" glyph-name="Ograve" horiz-adv-x="1746" d="M852 219Q946 219 1021 269T1148 401T1229 587T1257 801Q1257 892 1237 972T1178 1114T1079 1210T941 1246Q878 1246 824 1223T725 1160T645 1064T586 943T550 807T537 663Q537 573 557 492T616
351T715 255T852 219ZM794 -20Q641 -20 516 23T301 150T163 355T114 634Q114 822 182 978T369 1247T650 1422T1000 1485Q1153 1485 1278 1442T1492 1316T1630 1111T1679 831Q1679 705 1648 593T1560 387T1423 217T1245 89T1032 8T794 -20ZM891 1602L646 1964H1036L1191
1602H891Z" />
<glyph unicode="&#xd3;" glyph-name="Oacute" horiz-adv-x="1746" d="M852 219Q946 219 1021 269T1148 401T1229 587T1257 801Q1257 892 1237 972T1178 1114T1079 1210T941 1246Q878 1246 824 1223T725 1160T645 1064T586 943T550 807T537 663Q537 573 557 492T616
351T715 255T852 219ZM794 -20Q641 -20 516 23T301 150T163 355T114 634Q114 822 182 978T369 1247T650 1422T1000 1485Q1153 1485 1278 1442T1492 1316T1630 1111T1679 831Q1679 705 1648 593T1560 387T1423 217T1245 89T1032 8T794 -20ZM846 1602L1083 1964H1469L1142
1602H846Z" />
<glyph unicode="&#xd4;" glyph-name="Ocircumflex" horiz-adv-x="1746" d="M852 219Q946 219 1021 269T1148 401T1229 587T1257 801Q1257 892 1237 972T1178 1114T1079 1210T941 1246Q878 1246 824 1223T725 1160T645 1064T586 943T550 807T537 663Q537 573 557
492T616 351T715 255T852 219ZM794 -20Q641 -20 516 23T301 150T163 355T114 634Q114 822 182 978T369 1247T650 1422T1000 1485Q1153 1485 1278 1442T1492 1316T1630 1111T1679 831Q1679 705 1648 593T1560 387T1423 217T1245 89T1032 8T794 -20ZM579 1602L856
1964H1218L1413 1602H1113L1017 1802L875 1602H579Z" />
<glyph unicode="&#xd5;" glyph-name="Otilde" horiz-adv-x="1746" d="M852 219Q946 219 1021 269T1148 401T1229 587T1257 801Q1257 892 1237 972T1178 1114T1079 1210T941 1246Q878 1246 824 1223T725 1160T645 1064T586 943T550 807T537 663Q537 573 557 492T616
351T715 255T852 219ZM794 -20Q641 -20 516 23T301 150T163 355T114 634Q114 822 182 978T369 1247T650 1422T1000 1485Q1153 1485 1278 1442T1492 1316T1630 1111T1679 831Q1679 705 1648 593T1560 387T1423 217T1245 89T1032 8T794 -20ZM1124 1602Q1082 1602
1052 1613T1000 1640T963 1676T933 1711T906 1739T875 1750Q862 1750 849 1743T823 1718T802 1672T788 1602H573Q584 1697 616 1765T692 1878T790 1943T897 1964Q939 1964 969 1953T1022 1926T1061 1890T1092 1855T1119 1827T1148 1816Q1161 1816 1174 1824T1199
1849T1220 1895T1234 1964H1449Q1438 1869 1406 1801T1329 1688T1231 1623T1124 1602Z" />
<glyph unicode="&#xd6;" glyph-name="Odieresis" horiz-adv-x="1746" d="M852 219Q946 219 1021 269T1148 401T1229 587T1257 801Q1257 892 1237 972T1178 1114T1079 1210T941 1246Q878 1246 824 1223T725 1160T645 1064T586 943T550 807T537 663Q537 573 557
492T616 351T715 255T852 219ZM794 -20Q641 -20 516 23T301 150T163 355T114 634Q114 822 182 978T369 1247T650 1422T1000 1485Q1153 1485 1278 1442T1492 1316T1630 1111T1679 831Q1679 705 1648 593T1560 387T1423 217T1245 89T1032 8T794 -20ZM568 1760Q568
1798 585 1834T632 1898T701 1943T784 1960Q820 1960 850 1947T903 1913T937 1862T949 1800Q949 1762 933 1726T889 1663T822 1619T738 1602Q702 1602 671 1614T617 1648T581 1699T568 1760ZM1079 1760Q1079 1798 1096 1834T1143 1898T1212 1943T1295 1960Q1331
1960 1361 1947T1414 1913T1448 1862T1460 1800Q1460 1762 1444 1726T1400 1663T1333 1619T1249 1602Q1213 1602 1182 1614T1128 1648T1092 1699T1079 1760Z" />
<glyph unicode="&#xd7;" glyph-name="multiply" horiz-adv-x="1225" d="M639 764L954 1047L1113 867L798 584L1049 302L848 122L598 404L283 122L124 302L438 584L188 867L389 1047L639 764Z" />
<glyph unicode="&#xd8;" glyph-name="Oslash" horiz-adv-x="1746" d="M285 154Q203 232 159 350T114 616Q114 745 144 859T232 1070T369 1244T549 1374T764 1456T1008 1485Q1186 1485 1325 1427L1454 1585H1729L1506 1312Q1589 1234 1634 1116T1679 850Q1679 656
1611 496T1423 221T1139 43T784 -20Q607 -20 465 38L336 -120H61L285 154ZM537 662Q537 617 541 570T555 485L1124 1181Q1089 1212 1045 1229T946 1246Q882 1246 827 1223T726 1160T645 1064T586 943T550 807T537 662ZM847 219Q911 219 966 242T1067 305T1148 401T1207
520T1243 654T1256 797Q1256 844 1251 893T1237 982L667 285Q702 253 747 236T847 219Z" />
<glyph unicode="&#xd9;" glyph-name="Ugrave" horiz-adv-x="1544" d="M673 1465L566 526Q557 450 568 393T607 297T678 239T777 219Q832 219 881 238T970 296T1035 392T1070 525L1177 1465H1491L1389 573Q1374 441 1321 332T1180 145T970 24T693 -20Q554 -20 448
16T273 124T175 300T161 541L266 1465H673ZM825 1602L580 1964H970L1125 1602H825Z" />
<glyph unicode="&#xda;" glyph-name="Uacute" horiz-adv-x="1544" d="M673 1465L566 526Q557 450 568 393T607 297T678 239T777 219Q832 219 881 238T970 296T1035 392T1070 525L1177 1465H1491L1389 573Q1374 441 1321 332T1180 145T970 24T693 -20Q554 -20 448
16T273 124T175 300T161 541L266 1465H673ZM756 1602L993 1964H1379L1052 1602H756Z" />
<glyph unicode="&#xdb;" glyph-name="Ucircumflex" horiz-adv-x="1544" d="M673 1465L566 526Q557 450 568 393T607 297T678 239T777 219Q832 219 881 238T970 296T1035 392T1070 525L1177 1465H1491L1389 573Q1374 441 1321 332T1180 145T970 24T693 -20Q554
-20 448 16T273 124T175 300T161 541L266 1465H673ZM479 1602L756 1964H1118L1313 1602H1013L917 1802L775 1602H479Z" />
<glyph unicode="&#xdc;" glyph-name="Udieresis" horiz-adv-x="1544" d="M673 1465L566 526Q557 450 568 393T607 297T678 239T777 219Q832 219 881 238T970 296T1035 392T1070 525L1177 1465H1491L1389 573Q1374 441 1321 332T1180 145T970 24T693 -20Q554 -20
448 16T273 124T175 300T161 541L266 1465H673ZM472 1760Q472 1798 489 1834T536 1898T605 1943T688 1960Q724 1960 754 1947T807 1913T841 1862T853 1800Q853 1762 837 1726T793 1663T726 1619T642 1602Q606 1602 575 1614T521 1648T485 1699T472 1760ZM983 1760Q983
1798 1000 1834T1047 1898T1116 1943T1199 1960Q1235 1960 1265 1947T1318 1913T1352 1862T1364 1800Q1364 1762 1348 1726T1304 1663T1237 1619T1153 1602Q1117 1602 1086 1614T1032 1648T996 1699T983 1760Z" />
<glyph unicode="&#xdd;" glyph-name="Yacute" horiz-adv-x="1431" d="M932 636L859 0H453L524 624L127 1465H592L737 1083L798 883H818L926 1084L1157 1465H1518L932 636ZM717 1602L954 1964H1340L1013 1602H717Z" />
<glyph unicode="&#xde;" glyph-name="Thorn" horiz-adv-x="1466" d="M516 0H110L277 1465H683L655 1220H817Q961 1220 1067 1190T1244 1105T1350 973T1385 800Q1385 673 1338 569T1208 389T1015 273T781 232Q764 232 749 233T715 237L758 453Q762 452 773 452T793
451Q847 451 884 479T945 552T978 650T988 754Q988 815 973 858T930 928T862 968T772 981H628L516 0Z" />
<glyph unicode="&#xdf;" glyph-name="germandbls" horiz-adv-x="1447" d="M1014 325Q1014 364 994 394T944 451T878 508T812 574T761 661T741 781Q741 848 759 892T806 967T867 1023T928 1073T975 1134T994 1219Q994 1262 981 1293T945 1345T896 1376T840 1386Q810
1386 773 1373T702 1328T642 1240T605 1100L480 0H80L201 1062Q214 1181 268 1283T412 1461T623 1579T891 1622Q992 1622 1082 1601T1239 1537T1346 1432T1386 1284Q1386 1223 1367 1179T1318 1101T1254 1040T1191 987T1142 931T1122 862Q1122 823 1141 793T1190
734T1252 675T1315 607T1363 519T1383 401Q1383 312 1348 235T1247 102T1090 13T888 -20Q855 -20 817 -17T739 -8T659 6T580 26L656 278L681 292Q741 256 797 236T895 216Q917 216 938 222T977 242T1004 276T1014 325Z" />
<glyph unicode="&#xe0;" glyph-name="agrave" horiz-adv-x="1346" d="M839 817Q820 828 797 836T745 844Q689 844 642 811T560 723T506 597T486 451Q486 397 496 357T523 291T563 251T611 238Q635 238 659 249T706 277T750 317T788 362L839 817ZM1146 0H800L780
198Q738 153 694 114T602 44T505 -3T400 -20Q324 -20 263 14T159 108T93 245T70 413Q70 509 98 595T177 756T295 890T443 992T610 1057T785 1080Q862 1080 921 1064T1031 1020L1270 1088L1146 0ZM648 1240L403 1602H793L948 1240H648Z" />
<glyph unicode="&#xe1;" glyph-name="aacute" horiz-adv-x="1346" d="M839 817Q820 828 797 836T745 844Q689 844 642 811T560 723T506 597T486 451Q486 397 496 357T523 291T563 251T611 238Q635 238 659 249T706 277T750 317T788 362L839 817ZM1146 0H800L780
198Q738 153 694 114T602 44T505 -3T400 -20Q324 -20 263 14T159 108T93 245T70 413Q70 509 98 595T177 756T295 890T443 992T610 1057T785 1080Q862 1080 921 1064T1031 1020L1270 1088L1146 0ZM581 1240L818 1602H1204L877 1240H581Z" />
<glyph unicode="&#xe2;" glyph-name="acircumflex" horiz-adv-x="1346" d="M839 817Q820 828 797 836T745 844Q689 844 642 811T560 723T506 597T486 451Q486 397 496 357T523 291T563 251T611 238Q635 238 659 249T706 277T750 317T788 362L839 817ZM1146 0H800L780
198Q738 153 694 114T602 44T505 -3T400 -20Q324 -20 263 14T159 108T93 245T70 413Q70 509 98 595T177 756T295 890T443 992T610 1057T785 1080Q862 1080 921 1064T1031 1020L1270 1088L1146 0ZM376 1240L653 1602H1015L1210 1240H910L814 1440L672 1240H376Z"
/>
<glyph unicode="&#xe3;" glyph-name="atilde" horiz-adv-x="1346" d="M839 817Q820 828 797 836T745 844Q689 844 642 811T560 723T506 597T486 451Q486 397 496 357T523 291T563 251T611 238Q635 238 659 249T706 277T750 317T788 362L839 817ZM1146 0H800L780
198Q738 153 694 114T602 44T505 -3T400 -20Q324 -20 263 14T159 108T93 245T70 413Q70 509 98 595T177 756T295 890T443 992T610 1057T785 1080Q862 1080 921 1064T1031 1020L1270 1088L1146 0ZM948 1240Q906 1240 876 1251T824 1278T787 1314T757 1349T730 1377T699
1388Q686 1388 673 1381T647 1356T626 1310T612 1240H397Q408 1335 440 1403T516 1516T614 1581T721 1602Q763 1602 793 1591T846 1564T885 1528T916 1493T943 1465T972 1454Q985 1454 998 1462T1023 1487T1044 1533T1058 1602H1273Q1262 1507 1230 1439T1153 1326T1055
1261T948 1240Z" />
<glyph unicode="&#xe4;" glyph-name="adieresis" horiz-adv-x="1346" d="M839 817Q820 828 797 836T745 844Q689 844 642 811T560 723T506 597T486 451Q486 397 496 357T523 291T563 251T611 238Q635 238 659 249T706 277T750 317T788 362L839 817ZM1146 0H800L780
198Q738 153 694 114T602 44T505 -3T400 -20Q324 -20 263 14T159 108T93 245T70 413Q70 509 98 595T177 756T295 890T443 992T610 1057T785 1080Q862 1080 921 1064T1031 1020L1270 1088L1146 0ZM384 1398Q384 1436 401 1472T448 1536T517 1581T600 1598Q636 1598
666 1585T719 1551T753 1500T765 1438Q765 1400 749 1364T704 1301T637 1257T553 1240Q517 1240 486 1252T433 1286T397 1337T384 1398ZM895 1398Q895 1436 912 1472T959 1536T1028 1581T1111 1598Q1147 1598 1177 1585T1230 1551T1264 1500T1276 1438Q1276 1400
1260 1364T1215 1301T1148 1257T1064 1240Q1028 1240 997 1252T944 1286T908 1337T895 1398Z" />
<glyph unicode="&#xe5;" glyph-name="aring" horiz-adv-x="1346" d="M839 817Q820 828 797 836T745 844Q689 844 642 811T560 723T506 597T486 451Q486 397 496 357T523 291T563 251T611 238Q635 238 659 249T706 277T750 317T788 362L839 817ZM1146 0H800L780
198Q738 153 694 114T602 44T505 -3T400 -20Q324 -20 263 14T159 108T93 245T70 413Q70 509 98 595T177 756T295 890T443 992T610 1057T785 1080Q862 1080 921 1064T1031 1020L1270 1088L1146 0ZM711 1459Q711 1420 733 1395T793 1370Q815 1370 834 1378T867 1402T890
1437T899 1482Q899 1521 876 1546T816 1571Q795 1571 776 1563T742 1539T720 1504T711 1459ZM491 1442Q491 1509 519 1562T596 1652T709 1709T843 1729Q906 1729 956 1713T1043 1666T1098 1593T1118 1500Q1118 1433 1090 1380T1013 1290T900 1232T766 1212Q703
1212 653 1229T566 1276T511 1348T491 1442Z" />
<glyph unicode="&#xe6;" glyph-name="ae" horiz-adv-x="1824" d="M1142 -20Q1008 -20 907 31T747 178Q702 142 654 107T552 43T441 -2T321 -20Q249 -20 198 2T113 62T65 144T49 237Q49 312 89 376T208 488T407 561T686 588H709L718 692Q721 732 711 761T680 808T627
835T558 844Q488 844 405 817T241 739L224 749L175 970Q314 1028 439 1054T674 1080Q777 1080 857 1057T995 980Q1080 1029 1176 1054T1375 1080Q1474 1080 1549 1057T1676 996T1753 906T1779 799Q1779 721 1730 659T1593 554T1382 487T1112 464H1087Q1087 413
1105 372T1157 300T1240 254T1353 238Q1423 238 1487 257T1621 313V158Q1575 117 1519 85T1402 29T1274 -7T1142 -20ZM1310 844Q1272 844 1235 822T1166 763T1114 681T1088 588H1130Q1178 588 1227 596T1315 621T1380 667T1405 737Q1405 755 1400 774T1383 808T1353
834T1310 844ZM526 238Q573 238 614 254T691 294Q687 314 686 337T685 382T687 426T692 464H668Q599 464 551 456T472 432T427 391T413 335Q413 308 422 289T446 259T482 243T526 238Z" />
<glyph unicode="&#xe7;" glyph-name="ccedilla" horiz-adv-x="1021" d="M897 132Q840 86 780 55T659 5Q674 -19 686 -53T699 -135Q699 -193 675 -250T595 -354T445 -428T211 -457L233 -263Q309 -263 357 -249T432 -212T468 -159T478 -96Q478 -58 462 -19Q368 -15
295 20T172 113T96 250T70 422Q70 518 97 604T172 763T286 894T432 994T602 1058T786 1080Q828 1080 888 1074T1025 1044L944 802L925 792Q896 808 855 826T762 844Q708 844 659 819T571 749T511 638T488 494Q488 424 506 375T554 296T626 252T714 238Q753 238
796 248T897 287V132Z" />
<glyph unicode="&#xe8;" glyph-name="egrave" horiz-adv-x="1214" d="M532 -20Q428 -20 343 11T197 102T103 248T70 442Q70 539 96 624T170 780T282 907T424 1001T588 1060T765 1080Q867 1080 943 1056T1069 991T1144 898T1169 791Q1169 712 1120 646T983 533T772
460T502 433H477Q477 393 495 358T547 296T630 254T743 238Q813 238 877 257T1011 313V158Q965 117 909 85T792 29T664 -7T532 -20ZM702 844Q663 844 626 820T557 757T505 665T478 557H520Q568 557 617 568T705 601T770 655T795 731Q795 747 791 766T776 803T747
832T702 844ZM621 1240L376 1602H766L921 1240H621Z" />
<glyph unicode="&#xe9;" glyph-name="eacute" horiz-adv-x="1214" d="M532 -20Q428 -20 343 11T197 102T103 248T70 442Q70 539 96 624T170 780T282 907T424 1001T588 1060T765 1080Q867 1080 943 1056T1069 991T1144 898T1169 791Q1169 712 1120 646T983 533T772
460T502 433H477Q477 393 495 358T547 296T630 254T743 238Q813 238 877 257T1011 313V158Q965 117 909 85T792 29T664 -7T532 -20ZM702 844Q663 844 626 820T557 757T505 665T478 557H520Q568 557 617 568T705 601T770 655T795 731Q795 747 791 766T776 803T747
832T702 844ZM552 1240L789 1602H1175L848 1240H552Z" />
<glyph unicode="&#xea;" glyph-name="ecircumflex" horiz-adv-x="1214" d="M532 -20Q428 -20 343 11T197 102T103 248T70 442Q70 539 96 624T170 780T282 907T424 1001T588 1060T765 1080Q867 1080 943 1056T1069 991T1144 898T1169 791Q1169 712 1120 646T983
533T772 460T502 433H477Q477 393 495 358T547 296T630 254T743 238Q813 238 877 257T1011 313V158Q965 117 909 85T792 29T664 -7T532 -20ZM702 844Q663 844 626 820T557 757T505 665T478 557H520Q568 557 617 568T705 601T770 655T795 731Q795 747 791 766T776
803T747 832T702 844ZM316 1240L593 1602H955L1150 1240H850L754 1440L612 1240H316Z" />
<glyph unicode="&#xeb;" glyph-name="edieresis" horiz-adv-x="1214" d="M532 -20Q428 -20 343 11T197 102T103 248T70 442Q70 539 96 624T170 780T282 907T424 1001T588 1060T765 1080Q867 1080 943 1056T1069 991T1144 898T1169 791Q1169 712 1120 646T983 533T772
460T502 433H477Q477 393 495 358T547 296T630 254T743 238Q813 238 877 257T1011 313V158Q965 117 909 85T792 29T664 -7T532 -20ZM702 844Q663 844 626 820T557 757T505 665T478 557H520Q568 557 617 568T705 601T770 655T795 731Q795 747 791 766T776 803T747
832T702 844ZM308 1398Q308 1436 325 1472T372 1536T441 1581T524 1598Q560 1598 590 1585T643 1551T677 1500T689 1438Q689 1400 673 1364T628 1301T561 1257T477 1240Q441 1240 410 1252T357 1286T321 1337T308 1398ZM819 1398Q819 1436 836 1472T883 1536T952
1581T1035 1598Q1071 1598 1101 1585T1154 1551T1188 1500T1200 1438Q1200 1400 1184 1364T1139 1301T1072 1257T988 1240Q952 1240 921 1252T868 1286T832 1337T819 1398Z" />
<glyph unicode="&#xec;" glyph-name="igrave" horiz-adv-x="680" d="M250 1240L5 1602H395L550 1240H250ZM398 1060H798L677 0H277L398 1060Z" />
<glyph unicode="&#xed;" glyph-name="iacute" horiz-adv-x="680" d="M422 1240L659 1602H1045L718 1240H422ZM398 1060H798L677 0H277L398 1060Z" />
<glyph unicode="&#xee;" glyph-name="icircumflex" horiz-adv-x="680" d="M398 1060H798L677 0H277L398 1060ZM-50 1240L227 1602H589L784 1240H484L388 1440L246 1240H-50Z" />
<glyph unicode="&#xef;" glyph-name="idieresis" horiz-adv-x="680" d="M-60 1398Q-60 1436 -43 1472T4 1536T73 1581T156 1598Q192 1598 222 1585T275 1551T309 1500T321 1438Q321 1400 305 1364T260 1301T193 1257T109 1240Q73 1240 42 1252T-11 1286T-47 1337T-60
1398ZM451 1398Q451 1436 468 1472T515 1536T584 1581T667 1598Q703 1598 733 1585T786 1551T820 1500T832 1438Q832 1400 816 1364T771 1301T704 1257T620 1240Q584 1240 553 1252T500 1286T464 1337T451 1398ZM398 1060H798L677 0H277L398 1060Z" />
<glyph unicode="&#xf0;" glyph-name="eth" horiz-adv-x="1362" d="M558 1313Q512 1335 462 1353T356 1388L480 1602Q601 1573 701 1532T885 1439L1190 1558L1232 1418L1022 1337Q1092 1274 1144 1199T1229 1040T1279 866T1296 685Q1296 524 1241 394T1089 172T861
30T578 -20Q442 -20 347 21T191 129T103 283T75 460Q75 562 100 647T169 802T270 923T389 1010T516 1062T639 1080Q663 1080 689 1076T742 1064T791 1045T833 1022H853Q833 1080 798 1128T714 1217L380 1087L338 1228L558 1313ZM887 682Q887 703 886 731T882 782Q853
812 812 828T732 844Q682 844 639 823T563 758T512 649T493 495Q493 438 503 388T534 299T586 239T659 216Q715 216 757 249T829 344T872 491T887 682Z" />
<glyph unicode="&#xf1;" glyph-name="ntilde" horiz-adv-x="1366" d="M201 1060H547L566 843Q609 889 653 932T746 1008T850 1060T973 1080Q1046 1080 1101 1053T1193 978T1244 865T1250 725L1167 0H767L846 686Q853 752 827 787T754 822Q727 822 700 809T648
773T599 724T556 669L480 0H80L201 1060ZM892 1240Q850 1240 820 1251T768 1278T731 1314T701 1349T674 1377T643 1388Q630 1388 617 1381T591 1356T570 1310T556 1240H341Q352 1335 384 1403T460 1516T558 1581T665 1602Q707 1602 737 1591T790 1564T829 1528T860
1493T887 1465T916 1454Q929 1454 942 1462T967 1487T988 1533T1002 1602H1217Q1206 1507 1174 1439T1097 1326T999 1261T892 1240Z" />
<glyph unicode="&#xf2;" glyph-name="ograve" horiz-adv-x="1319" d="M565 -20Q430 -20 336 20T183 126T97 276T70 447Q70 530 92 609T157 758T259 888T395 989T561 1056T753 1080Q886 1080 980 1041T1134 936T1221 786T1249 612Q1249 485 1199 371T1058 169T841
31T565 -20ZM628 216Q669 216 706 243T772 318T818 433T835 582Q835 640 826 688T799 770T753 824T690 844Q646 844 609 816T543 737T500 620T484 475Q484 353 522 285T628 216ZM605 1240L360 1602H750L905 1240H605Z" />
<glyph unicode="&#xf3;" glyph-name="oacute" horiz-adv-x="1319" d="M565 -20Q430 -20 336 20T183 126T97 276T70 447Q70 530 92 609T157 758T259 888T395 989T561 1056T753 1080Q886 1080 980 1041T1134 936T1221 786T1249 612Q1249 485 1199 371T1058 169T841
31T565 -20ZM628 216Q669 216 706 243T772 318T818 433T835 582Q835 640 826 688T799 770T753 824T690 844Q646 844 609 816T543 737T500 620T484 475Q484 353 522 285T628 216ZM548 1240L785 1602H1171L844 1240H548Z" />
<glyph unicode="&#xf4;" glyph-name="ocircumflex" horiz-adv-x="1319" d="M565 -20Q430 -20 336 20T183 126T97 276T70 447Q70 530 92 609T157 758T259 888T395 989T561 1056T753 1080Q886 1080 980 1041T1134 936T1221 786T1249 612Q1249 485 1199 371T1058
169T841 31T565 -20ZM628 216Q669 216 706 243T772 318T818 433T835 582Q835 640 826 688T799 770T753 824T690 844Q646 844 609 816T543 737T500 620T484 475Q484 353 522 285T628 216ZM320 1240L597 1602H959L1154 1240H854L758 1440L616 1240H320Z" />
<glyph unicode="&#xf5;" glyph-name="otilde" horiz-adv-x="1319" d="M565 -20Q430 -20 336 20T183 126T97 276T70 447Q70 530 92 609T157 758T259 888T395 989T561 1056T753 1080Q886 1080 980 1041T1134 936T1221 786T1249 612Q1249 485 1199 371T1058 169T841
31T565 -20ZM628 216Q669 216 706 243T772 318T818 433T835 582Q835 640 826 688T799 770T753 824T690 844Q646 844 609 816T543 737T500 620T484 475Q484 353 522 285T628 216ZM870 1240Q828 1240 798 1251T746 1278T709 1314T679 1349T652 1377T621 1388Q608
1388 595 1381T569 1356T548 1310T534 1240H319Q330 1335 362 1403T438 1516T536 1581T643 1602Q685 1602 715 1591T768 1564T807 1528T838 1493T865 1465T894 1454Q907 1454 920 1462T945 1487T966 1533T980 1602H1195Q1184 1507 1152 1439T1075 1326T977 1261T870
1240Z" />
<glyph unicode="&#xf6;" glyph-name="odieresis" horiz-adv-x="1319" d="M565 -20Q430 -20 336 20T183 126T97 276T70 447Q70 530 92 609T157 758T259 888T395 989T561 1056T753 1080Q886 1080 980 1041T1134 936T1221 786T1249 612Q1249 485 1199 371T1058 169T841
31T565 -20ZM628 216Q669 216 706 243T772 318T818 433T835 582Q835 640 826 688T799 770T753 824T690 844Q646 844 609 816T543 737T500 620T484 475Q484 353 522 285T628 216ZM317 1398Q317 1436 334 1472T381 1536T450 1581T533 1598Q569 1598 599 1585T652
1551T686 1500T698 1438Q698 1400 682 1364T637 1301T570 1257T486 1240Q450 1240 419 1252T366 1286T330 1337T317 1398ZM828 1398Q828 1436 845 1472T892 1536T961 1581T1044 1598Q1080 1598 1110 1585T1163 1551T1197 1500T1209 1438Q1209 1400 1193 1364T1148
1301T1081 1257T997 1240Q961 1240 930 1252T877 1286T841 1337T828 1398Z" />
<glyph unicode="&#xf7;" glyph-name="divide" horiz-adv-x="1307" d="M1179 719L1150 464H143L172 719H1179ZM685 831Q653 831 626 842T578 874T547 922T535 983Q535 1025 552 1059T596 1119T659 1158T731 1172Q763 1172 790 1161T838 1129T869 1081T881 1020Q881
978 864 944T819 884T756 845T685 831ZM591 11Q559 11 532 22T485 54T453 102T441 163Q441 205 458 239T502 299T565 338T637 352Q669 352 696 341T744 309T775 261T787 200Q787 158 770 124T726 64T663 25T591 11Z" />
<glyph unicode="&#xf8;" glyph-name="oslash" horiz-adv-x="1319" d="M565 -20Q503 -20 451 -11T353 14L244 -120H18L202 106Q133 173 102 262T70 447Q70 530 92 609T157 758T259 888T395 989T561 1056T753 1080Q816 1080 869 1071T968 1045L1079 1180H1305L1118
951Q1152 918 1177 879T1218 796T1241 706T1249 612Q1249 485 1199 371T1058 169T841 31T565 -20ZM484 451L774 806Q739 844 690 844Q646 844 609 816T543 737T500 620T484 475V451ZM628 216Q669 216 706 243T772 318T818 433T835 582Q835 587 835 592T834 603L547
251Q580 216 628 216Z" />
<glyph unicode="&#xf9;" glyph-name="ugrave" horiz-adv-x="1358" d="M1157 0H811L792 217Q750 172 707 130T615 54T512 1T393 -20Q320 -20 265 7T175 81T124 194T118 335L201 1060H601L522 374Q518 342 523 317T540 275T569 248T608 238Q633 238 659 251T709
285T757 334T802 391L878 1060H1278L1157 0ZM633 1240L388 1602H778L933 1240H633Z" />
<glyph unicode="&#xfa;" glyph-name="uacute" horiz-adv-x="1358" d="M1157 0H811L792 217Q750 172 707 130T615 54T512 1T393 -20Q320 -20 265 7T175 81T124 194T118 335L201 1060H601L522 374Q518 342 523 317T540 275T569 248T608 238Q633 238 659 251T709
285T757 334T802 391L878 1060H1278L1157 0ZM566 1240L803 1602H1189L862 1240H566Z" />
<glyph unicode="&#xfb;" glyph-name="ucircumflex" horiz-adv-x="1358" d="M1157 0H811L792 217Q750 172 707 130T615 54T512 1T393 -20Q320 -20 265 7T175 81T124 194T118 335L201 1060H601L522 374Q518 342 523 317T540 275T569 248T608 238Q633 238 659 251T709
285T757 334T802 391L878 1060H1278L1157 0ZM344 1240L621 1602H983L1178 1240H878L782 1440L640 1240H344Z" />
<glyph unicode="&#xfc;" glyph-name="udieresis" horiz-adv-x="1358" d="M1157 0H811L792 217Q750 172 707 130T615 54T512 1T393 -20Q320 -20 265 7T175 81T124 194T118 335L201 1060H601L522 374Q518 342 523 317T540 275T569 248T608 238Q633 238 659 251T709
285T757 334T802 391L878 1060H1278L1157 0ZM333 1398Q333 1436 350 1472T397 1536T466 1581T549 1598Q585 1598 615 1585T668 1551T702 1500T714 1438Q714 1400 698 1364T653 1301T586 1257T502 1240Q466 1240 435 1252T382 1286T346 1337T333 1398ZM844 1398Q844
1436 861 1472T908 1536T977 1581T1060 1598Q1096 1598 1126 1585T1179 1551T1213 1500T1225 1438Q1225 1400 1209 1364T1164 1301T1097 1257T1013 1240Q977 1240 946 1252T893 1286T857 1337T844 1398Z" />
<glyph unicode="&#xfd;" glyph-name="yacute" horiz-adv-x="1231" d="M115 1060H542L575 494L576 280H596Q652 371 695 464T772 655T829 854T872 1060H1231Q1193 911 1140 774T1018 505T865 249T680 0L215 -573L-67 -433L390 0H256L115 1060ZM507 1240L744 1602H1130L803
1240H507Z" />
<glyph unicode="&#xfe;" glyph-name="thorn" horiz-adv-x="1353" d="M263 1602H663L580 877Q620 919 664 956T754 1020T850 1064T950 1080Q1026 1080 1087 1046T1192 952T1259 815T1283 647Q1283 551 1256 465T1182 304T1071 170T934 68T780 3T619 -20Q569 -20
533 -13T479 0L418 -536H18L263 1602ZM507 243Q530 231 556 224T610 216Q669 216 716 249T797 337T849 462T867 604Q867 661 857 702T828 770T787 809T739 822Q715 822 690 811T642 783T597 743T558 698L507 243Z" />
<glyph unicode="&#xff;" glyph-name="ydieresis" horiz-adv-x="1231" d="M115 1060H542L575 494L576 280H596Q652 371 695 464T772 655T829 854T872 1060H1231Q1193 911 1140 774T1018 505T865 249T680 0L215 -573L-67 -433L390 0H256L115 1060ZM513 1398Q513
1436 530 1472T577 1536T646 1581T729 1598Q765 1598 795 1585T848 1551T882 1500T894 1438Q894 1400 878 1364T833 1301T766 1257T682 1240Q646 1240 615 1252T562 1286T526 1337T513 1398ZM1024 1398Q1024 1436 1041 1472T1088 1536T1157 1581T1240 1598Q1276
1598 1306 1585T1359 1551T1393 1500T1405 1438Q1405 1400 1389 1364T1344 1301T1277 1257T1193 1240Q1157 1240 1126 1252T1073 1286T1037 1337T1024 1398Z" />
<glyph unicode="&#x2013;" glyph-name="endash" horiz-adv-x="1037" d="M1009 719L980 464H43L72 719H1009Z" />
<glyph unicode="&#x2014;" glyph-name="emdash" horiz-adv-x="2107" d="M2079 719L2050 464H43L72 719H2079Z" />
<glyph unicode="&#x2018;" glyph-name="quoteleft" horiz-adv-x="734" d="M731 1551Q640 1460 575 1370T478 1185Q491 1168 509 1153T549 1125T594 1102T641 1086Q645 1070 646 1051T648 1012Q648 955 625 908T565 828T482 776T387 757Q348 757 312 771T247 813T201
884T184 985Q184 1042 203 1113T270 1266T400 1441T608 1632L731 1551Z" />
<glyph unicode="&#x2019;" glyph-name="quoteright" horiz-adv-x="734" d="M154 828Q245 919 310 1009T407 1194Q394 1210 376 1225T336 1254T291 1277T244 1293Q240 1309 239 1328T237 1367Q237 1424 260 1471T320 1551T403 1603T498 1622Q537 1622 573 1608T638
1566T684 1495T701 1394Q701 1337 682 1266T615 1113T485 938T277 747L154 828Z" />
<glyph unicode="&#x201a;" glyph-name="quotesinglbase" horiz-adv-x="734" d="M19 -358Q110 -267 175 -177T272 8Q259 24 241 39T201 68T156 91T109 107Q105 123 104 142T102 181Q102 238 125 285T185 365T268 417T363 436Q402 436 438 422T503 380T549 309T566
208Q566 151 547 80T480 -73T350 -248T142 -439L19 -358Z" />
<glyph unicode="&#x201c;" glyph-name="quotedblleft" horiz-adv-x="1357" d="M731 1551Q640 1460 575 1370T478 1185Q491 1168 509 1153T549 1125T594 1102T641 1086Q645 1070 646 1051T648 1012Q648 955 625 908T565 828T482 776T387 757Q348 757 312 771T247
813T201 884T184 985Q184 1042 203 1113T270 1266T400 1441T608 1632L731 1551ZM1354 1551Q1263 1460 1198 1370T1101 1185Q1114 1168 1132 1153T1172 1125T1217 1102T1264 1086Q1268 1070 1269 1051T1271 1012Q1271 955 1248 908T1188 828T1105 776T1010 757Q971
757 935 771T870 813T824 884T807 985Q807 1042 826 1113T893 1266T1023 1441T1231 1632L1354 1551Z" />
<glyph unicode="&#x201d;" glyph-name="quotedblright" horiz-adv-x="1357" d="M154 828Q245 919 310 1009T407 1194Q394 1210 376 1225T336 1254T291 1277T244 1293Q240 1309 239 1328T237 1367Q237 1424 260 1471T320 1551T403 1603T498 1622Q537 1622 573 1608T638
1566T684 1495T701 1394Q701 1337 682 1266T615 1113T485 938T277 747L154 828ZM777 828Q868 919 933 1009T1030 1194Q1017 1210 999 1225T959 1254T914 1277T867 1293Q863 1309 862 1328T860 1367Q860 1424 883 1471T943 1551T1026 1603T1121 1622Q1160 1622 1196
1608T1261 1566T1307 1495T1324 1394Q1324 1337 1305 1266T1238 1113T1108 938T900 747L777 828Z" />
<glyph unicode="&#x201e;" glyph-name="quotedblbase" horiz-adv-x="1357" d="M19 -358Q110 -267 175 -177T272 8Q259 24 241 39T201 68T156 91T109 107Q105 123 104 142T102 181Q102 238 125 285T185 365T268 417T363 436Q402 436 438 422T503 380T549 309T566
208Q566 151 547 80T480 -73T350 -248T142 -439L19 -358ZM642 -358Q733 -267 798 -177T895 8Q882 24 864 39T824 68T779 91T732 107Q728 123 727 142T725 181Q725 238 748 285T808 365T891 417T986 436Q1025 436 1061 422T1126 380T1172 309T1189 208Q1189 151
1170 80T1103 -73T973 -248T765 -439L642 -358Z" />
<glyph unicode="&#x2022;" glyph-name="bullet" horiz-adv-x="944" d="M203 546Q203 608 229 662T298 757T397 821T512 845Q564 845 607 826T683 774T733 696T751 599Q751 536 724 482T653 387T553 324T438 301Q387 301 344 319T270 371T221 448T203 546Z" />
<glyph unicode="&#x2039;" glyph-name="guilsinglleft" horiz-adv-x="727" d="M103 634L476 1030L645 855L367 574L581 293L372 118L89 514L103 634Z" />
<glyph unicode="&#x203a;" glyph-name="guilsinglright" horiz-adv-x="727" d="M635 514L262 118L93 293L371 574L157 855L366 1030L649 634L635 514Z" />
</font>
</defs>
</svg>
