<?xml version="1.0" standalone="no"?>
<!DOCTYPE svg PUBLIC "-//W3C//DTD SVG 1.1//EN" "http://www.w3.org/Graphics/SVG/1.1/DTD/svg11.dtd">
<svg xmlns="http://www.w3.org/2000/svg">
<defs >
<font id="Laila" horiz-adv-x="597" ><font-face
    font-family="Laila SemiBold"
    units-per-em="1000"
    panose-1="2 0 0 0 0 0 0 0 0 0"
    ascent="1098"
    descent="-452"
    alphabetic="0" />
<glyph unicode=" " glyph-name="space" horiz-adv-x="277" />
<glyph unicode="!" glyph-name="exclam" horiz-adv-x="387" d="M206 342Q200 303 200 274T205 223Q188 208 171 208Q123 208 112 290L82 639Q80 653 80 666Q80 710 101 743T162 776T228 738Q245 712 245 685T242 639L206 342ZM210 142T227 124T245 75T218 17T160
-11T111 7T93 56T120 115T179 142Z" />
<glyph unicode="&quot;" glyph-name="quotedbl" horiz-adv-x="439" d="M187 821Q187 750 166 672T124 594T82 672T60 809Q60 920 123 920T187 821ZM379 821Q379 749 359 672T316 594Q296 594 274 673T252 810Q252 920 315 920T379 821Z" />
<glyph unicode="#" glyph-name="numbersign" horiz-adv-x="856" d="M479 264L539 463H371L311 264H479ZM682 463H659L599 264H702Q709 248 709 234Q709 209 681 193T596 177H572L546 90Q516 -10 434 -10Q411 -10 400 -1T378 29Q410 43 426 87L453 177H284L258
90Q228 -10 146 -10Q123 -10 112 -1T90 29Q124 43 137 87L164 177H69Q61 193 61 208Q61 233 89 248T174 264H191L251 463H155Q148 481 148 493Q148 551 261 551H278L305 639Q320 691 344 714T411 738T474 699Q440 686 425 642L397 551H566L592 639Q609 691 632
714T699 738T762 699Q728 686 713 642L685 551H788Q796 535 796 521Q796 495 768 479T682 463Z" />
<glyph unicode="$" glyph-name="dollar" horiz-adv-x="669" d="M423 780V736Q509 724 559 685T610 594Q610 561 590 541T536 521T472 540Q479 557 479 576Q479 607 446 631T354 656T257 633T219 570T261 500T364 442T484 387T587 311T630 205Q630 120 562 62T392
-8V-53Q392 -97 421 -111Q392 -150 344 -150Q263 -150 263 -50V-2Q178 13 126 55T74 156Q74 194 99 217T162 240T230 212Q206 188 206 155T244 98T349 74T458 104T501 178T459 254T356 312T236 366T133 438T90 541Q90 618 147 669T294 735V783Q294 826 263 841Q295
880 340 880Q423 880 423 780Z" />
<glyph unicode="%" glyph-name="percent" horiz-adv-x="910" d="M402 461T350 395T224 329T109 384T68 522T117 671T241 738T359 683T402 544ZM296 579T279 616T234 653T187 620T169 537T186 450T231 413T277 445T296 528ZM634 687Q672 738 705 738T758 707Q745
702 713 658L276 43Q238 -11 205 -11T154 22Q173 33 199 71L634 687ZM842 123T790 57T664 -10T549 45T508 183T557 333T681 400T799 344T842 206ZM736 240T719 276T674 313T627 281T609 198T626 112T671 75T717 106T736 189Z" />
<glyph unicode="&amp;" glyph-name="ampersand" horiz-adv-x="760" d="M327 463Q340 447 340 429T333 396T303 370T250 358H238Q182 314 182 248T233 145T362 107T495 146T550 248Q550 296 525 322T452 349Q441 365 441 379T447 404Q461 431 511 431Q587 431 610
459Q627 479 627 502T624 541Q656 554 681 554T727 542Q767 517 767 467T727 387T604 357H600Q627 305 627 248Q627 140 546 65T341 -10T142 49T65 203Q65 310 175 372Q132 391 109 431T86 525Q86 617 150 678T288 739T407 709T453 639T418 577Q398 565 377 565T335
571Q332 666 263 666Q231 666 210 642T188 571T225 494T327 463Z" />
<glyph unicode="&apos;" glyph-name="quotesingle" horiz-adv-x="247" d="M188 805Q188 738 167 666T124 594T81 667T59 795T76 877T123 904Q188 904 188 805Z" />
<glyph unicode="(" glyph-name="parenleft" horiz-adv-x="500" d="M238 646T238 313T467 -266Q455 -291 418 -291T328 -243T225 -116T138 78T102 311T137 544T224 739T328 867T418 916T467 892Q238 646 238 313Z" />
<glyph unicode=")" glyph-name="parenright" horiz-adv-x="500" d="M343 660T378 545T414 312T378 78T292 -116T189 -242T99 -291T49 -266Q138 -169 202 -44Q279 107 279 313T202 670Q138 795 49 892Q60 916 98 916T189 867T292 739Z" />
<glyph unicode="*" glyph-name="asterisk" horiz-adv-x="614" d="M337 938T354 917T371 857T336 747Q417 821 468 821Q494 821 512 804T530 755T494 704Q434 671 358 690Q402 667 435 634T469 573T449 526T404 507Q365 507 340 552T306 656Q297 597 272 552T207
506Q182 506 164 527T145 574T178 634T255 690Q176 675 120 706Q84 725 84 756T103 804T148 821T210 800T275 751Q244 819 244 857T260 917T306 938Z" />
<glyph unicode="+" glyph-name="plus" horiz-adv-x="709" d="M404 361Q408 271 408 225Q408 115 325 115Q308 115 301 120L305 361L65 357Q59 369 59 387Q59 465 167 465Q211 465 303 462Q298 564 298 597Q298 702 378 702Q387 702 408 696L404 462L644 465Q649
452 649 440Q649 357 539 357Q527 357 404 361Z" />
<glyph unicode="," glyph-name="comma" horiz-adv-x="323" d="M148 -126T148 -45T79 71Q87 101 110 122T171 143T237 106T265 9Q265 -74 216 -139T115 -205Q88 -205 81 -177Q148 -126 148 -45Z" />
<glyph unicode="-" glyph-name="hyphen" horiz-adv-x="556" d="M179 402H491Q496 392 496 376Q496 292 377 292H67Q60 306 60 322Q60 402 179 402Z" />
<glyph unicode="." glyph-name="period" horiz-adv-x="381" d="M236 160T255 140T275 86T245 22T181 -8T127 12T107 66T137 130T201 160Z" />
<glyph unicode="/" glyph-name="slash" horiz-adv-x="605" d="M478 1015Q507 1015 529 997Q513 985 496 935L148 -66Q122 -144 72 -144Q44 -144 22 -125Q38 -111 55 -61L403 938Q430 1015 478 1015Z" />
<glyph unicode="0" glyph-name="zero" horiz-adv-x="675" d="M202 -10T127 95T52 365T126 634T337 738T548 635T623 366T548 96T337 -10ZM441 574Q398 651 325 651T216 569Q185 499 185 394Q185 243 234 154Q277 78 350 78T460 160Q490 229 490 334Q490 488 441 574Z" />
<glyph unicode="1" glyph-name="one" horiz-adv-x="378" d="M268 637V87Q268 43 298 29Q267 -10 221 -10Q139 -10 139 90V604Q139 637 109 637T46 614Q27 622 27 643Q27 675 71 706T167 738T243 711T268 637Z" />
<glyph unicode="2" glyph-name="two" horiz-adv-x="581" d="M550 87Q550 0 409 0H125Q75 0 51 28Q35 48 35 68T39 105Q114 159 166 202T270 300Q375 410 375 521Q375 587 346 622T275 657T209 635T185 580Q185 534 232 515Q204 470 143 470Q103 470 73 496T43
566Q43 639 113 688T285 738T451 676T516 514T426 305T165 104L406 117Q490 121 525 148Q550 121 550 87Z" />
<glyph unicode="3" glyph-name="three" horiz-adv-x="569" d="M486 582Q486 530 449 488T353 428Q423 415 470 360T517 225Q517 123 436 57T248 -10Q170 -10 105 29T40 133Q40 172 65 193T114 216Q136 152 186 117T292 81T380 111T413 185Q413 248 358 294T217
341Q191 341 168 336Q155 346 155 366T187 407T258 445T329 493T361 561T332 620T258 642Q182 642 115 590Q89 597 89 631T152 702T296 738T431 696T486 582Z" />
<glyph unicode="4" glyph-name="four" horiz-adv-x="629" d="M184 266H356V575Q356 593 344 593Q325 593 278 534T191 401T150 289Q150 276 157 271T184 266ZM509 173H485V87Q485 44 514 29Q485 -10 438 -10Q356 -10 356 90V173H130Q50 173 50 238Q50 310 114
430T268 644T418 738Q485 738 485 640V266H521Q571 266 592 284Q607 267 607 239T580 192T509 173Z" />
<glyph unicode="5" glyph-name="five" horiz-adv-x="571" d="M305 469Q394 469 457 407T521 245T445 68T255 -10Q177 -10 117 28T57 129Q57 168 84 190T140 212Q160 156 203 126T299 95T387 126T421 208Q421 279 366 320T243 361T126 341Q107 341 94 354T81 390T129
644Q147 729 269 729H383Q435 729 460 749Q479 728 479 698Q479 612 343 612H209L171 436Q235 469 305 469Z" />
<glyph unicode="6" glyph-name="six" horiz-adv-x="625" d="M61 315Q61 423 107 520T238 677T421 738Q445 738 463 727T482 694Q482 687 481 685Q355 672 275 576T195 331Q195 209 240 140T355 71Q399 71 429 101T459 183Q459 253 406 304T262 357Q263 397 293
422T367 448Q460 448 517 383T574 235Q574 123 504 57T330 -10Q204 -10 133 83T61 315Z" />
<glyph unicode="7" glyph-name="seven" horiz-adv-x="509" d="M151 729H470Q479 718 479 693T455 623T398 522T330 405T272 273T248 137T300 52Q297 28 272 9T219 -10Q172 -10 144 24T116 109T146 232T210 361T297 500T370 617Q344 611 300 611H118Q68 611 41
587Q20 606 20 639Q20 729 151 729Z" />
<glyph unicode="8" glyph-name="eight" horiz-adv-x="623" d="M227 345Q178 291 178 225T221 111T337 63Q379 63 412 88T446 157Q446 211 396 248Q349 282 298 308T227 345ZM389 400Q426 452 426 513T387 621T288 669Q248 669 219 644T189 575Q189 505 293 450Q353
418 389 400ZM544 537Q544 430 446 368Q563 291 563 196T488 45T319 -10T142 47T60 201Q60 261 91 307T170 381Q78 450 78 543Q78 621 142 679T307 738Q362 738 415 716T506 646T544 537Z" />
<glyph unicode="9" glyph-name="nine" horiz-adv-x="608" d="M555 412Q555 307 511 211T385 52T205 -10Q180 -10 162 1T143 34Q143 41 144 44Q268 57 345 152T423 391Q423 512 377 584T259 657Q216 657 186 628T156 550Q156 477 212 425T358 372Q357 331 328 306T254
281Q158 281 100 348T42 497Q42 607 110 672T282 738Q409 738 482 645T555 412Z" />
<glyph unicode=":" glyph-name="colon" horiz-adv-x="367" d="M230 534T249 514T269 460T240 396T176 366T121 386T101 440T131 504T195 534ZM230 162T249 142T269 88T240 24T176 -6T121 14T101 68T131 132T195 162Z" />
<glyph unicode=";" glyph-name="semicolon" horiz-adv-x="367" d="M230 534T249 514T269 460T240 396T176 366T121 386T101 440T131 504T195 534ZM159 -34Q159 6 142 38T90 86Q98 116 121 137T177 159Q224 159 248 122T273 32Q273 -47 226 -126T126 -205Q99 -205
92 -177Q159 -126 159 -34Z" />
<glyph unicode="&lt;" glyph-name="less" horiz-adv-x="728" d="M210 438Q210 416 360 347T615 244Q615 197 591 170T526 143T372 191T157 304T56 409Q56 451 167 520T398 641T547 692T594 679T613 640Q514 604 362 534T210 438Z" />
<glyph unicode="=" glyph-name="equal" horiz-adv-x="745" d="M191 598H667Q671 590 671 572Q671 487 553 487H79Q73 508 73 517Q73 598 191 598ZM191 332H667Q671 324 671 307Q671 222 553 222H79Q73 243 73 252Q73 332 191 332Z" />
<glyph unicode="&gt;" glyph-name="greater" horiz-adv-x="706" d="M445 239T332 191T178 143T113 170T89 244Q194 277 344 346T494 438Q494 464 342 534T90 640Q90 666 109 679T156 692T305 641T536 521T647 409Q647 370 546 305Z" />
<glyph unicode="?" glyph-name="question" horiz-adv-x="566" d="M365 399T347 373T329 323T343 284T381 263Q379 239 359 223T305 207T243 234T215 300T231 370T269 425T315 476Q370 536 370 610Q370 651 343 679T275 708T213 690T191 643T207 593T248 563Q247
549 222 530T157 511T90 541T62 617Q62 686 129 730T287 775T440 730T502 614Q502 537 441 472Q416 446 391 423ZM340 141T359 124T379 75T350 17T286 -10T232 8T212 57T242 114T306 141Z" />
<glyph unicode="@" glyph-name="at" horiz-adv-x="925" d="M525 281Q375 273 375 195Q375 152 427 152T520 194L525 281ZM638 178Q638 144 668 144Q713 144 752 197Q793 254 793 355Q793 478 716 552T506 627Q327 627 224 519T120 241Q120 104 196 35T402 -34Q510
-34 606 7Q613 -1 613 -9Q613 -27 577 -47Q504 -88 385 -88Q246 -88 153 -3T60 241Q60 430 187 555T510 681Q666 681 759 589T853 365T783 157T618 80Q537 80 521 141Q464 81 374 81Q313 81 280 107T246 178Q246 248 321 287T528 329L532 397Q532 401 532 405Q532
469 473 469Q445 469 428 456T410 424T421 389Q391 366 354 366T300 381T282 421Q282 469 342 498T482 527T605 494T649 396Q649 390 649 384L638 184Q638 181 638 178Z" />
<glyph unicode="A" glyph-name="A" horiz-adv-x="703" d="M255 234H443L355 527L255 234ZM598 -10Q563 -10 542 7T504 68L474 151H225L193 66Q166 -10 109 -10Q83 -10 61 2T31 34Q57 45 78 99L294 652Q280 686 261 701Q288 738 333 738T398 716T438 637L626 112Q648
53 684 35Q661 -10 598 -10Z" />
<glyph unicode="B" glyph-name="B" horiz-adv-x="752" d="M638 537Q638 480 603 441T504 387Q580 371 633 324T686 200Q686 107 600 49T372 -10T165 29T101 153L102 603Q102 658 79 693Q208 738 350 738T565 682T638 537ZM232 415H358Q360 415 362 415Q428 415
466 447T504 531T465 615T355 647T232 633V415ZM370 81Q456 81 503 114T551 204T504 294T370 328H232L231 145Q231 81 370 81Z" />
<glyph unicode="C" glyph-name="C" horiz-adv-x="715" d="M645 601Q645 564 620 546T557 527T494 542Q496 555 496 567Q496 604 474 631T395 659Q316 659 258 583T200 371T258 171T419 106Q479 106 532 133T618 197Q631 194 639 178T647 146Q647 94 570 42T385
-10Q237 -10 150 87T63 356T159 633T411 738Q508 738 576 698T645 601Z" />
<glyph unicode="D" glyph-name="D" horiz-adv-x="772" d="M336 738Q503 738 611 641T720 363Q720 243 668 157Q566 -10 336 -10Q209 -10 155 28T101 149L102 603Q102 658 79 693Q208 738 336 738ZM336 80Q447 80 516 155T585 363T516 572T336 648Q286 648 232
631L231 142Q231 110 252 95T336 80Z" />
<glyph unicode="E" glyph-name="E" horiz-adv-x="687" d="M309 105H486Q552 105 596 146Q627 125 627 86T597 23T506 0H292Q201 0 158 38T115 161V630Q115 673 84 688Q117 729 171 729H498Q627 729 627 658Q627 622 596 602Q555 623 486 623H244V437H410Q481 437
510 424T539 375T510 319Q478 332 400 332H244V175Q244 138 259 122T309 105Z" />
<glyph unicode="F" glyph-name="F" horiz-adv-x="646" d="M171 729H506Q627 729 627 666Q627 630 596 610Q555 631 486 631H244V427H410Q481 427 510 415T539 373T510 324Q477 335 400 335H244V87Q244 43 273 29Q244 -10 197 -10Q115 -10 115 90V630Q115 673 84
688Q117 729 171 729Z" />
<glyph unicode="G" glyph-name="G" horiz-adv-x="762" d="M639 -104Q557 -104 557 -4V72Q494 -10 374 -10Q255 -10 162 75Q118 116 91 183T63 334Q63 513 167 625T452 738Q555 738 623 697T692 597Q692 566 665 546T603 525T541 541Q542 549 542 557Q542 599 513
629T425 659Q323 659 263 578T202 365T256 163T408 92Q531 92 558 204V290H516Q465 290 411 287Q396 309 396 337T431 378T549 390T660 368T687 292L686 -7Q686 -50 716 -65Q685 -104 639 -104Z" />
<glyph unicode="H" glyph-name="H" horiz-adv-x="812" d="M707 639V87Q707 44 736 29Q707 -10 660 -10Q578 -10 578 90V325H234V87Q234 43 264 29Q233 -10 187 -10Q105 -10 105 90V642Q105 686 75 699Q104 738 151 738Q234 738 234 639V412H578V642Q578 686 548
699Q577 738 624 738Q707 738 707 639Z" />
<glyph unicode="I" glyph-name="I" horiz-adv-x="340" d="M234 639V87Q234 43 264 29Q233 -10 187 -10Q105 -10 105 90V642Q105 686 75 699Q104 738 151 738Q234 738 234 639Z" />
<glyph unicode="J" glyph-name="J" horiz-adv-x="441" d="M369 639V178Q369 86 317 38T187 -10T65 18T22 81T42 137Q94 94 156 94Q195 94 217 114T240 173V642Q240 686 210 699Q241 738 287 738Q369 738 369 639Z" />
<glyph unicode="K" glyph-name="K" horiz-adv-x="721" d="M674 41T648 16T588 -10T525 11T445 88L234 314V87Q234 43 264 29Q233 -10 187 -10Q105 -10 105 90V642Q105 686 75 699Q104 738 151 738Q234 738 234 639V415L453 659Q493 704 520 721T582 738T641 714T669
653Q631 653 592 617L344 381L586 128Q630 81 677 80Q674 41 648 16Z" />
<glyph unicode="L" glyph-name="L" horiz-adv-x="584" d="M107 153V642Q107 686 77 699Q106 738 154 738Q237 738 237 639V167Q237 130 252 114T302 97H429Q494 97 526 137Q552 124 552 88T522 26T434 0H277Q185 0 146 34T107 153Z" />
<glyph unicode="M" glyph-name="M" horiz-adv-x="965" d="M899 9Q867 -7 831 -7T775 12T750 82L718 604L524 42Q511 4 470 4Q447 4 437 13T421 43L224 605L192 85Q189 36 173 13T119 -10T48 22Q72 44 75 92L116 631Q116 637 116 643Q116 682 98 706Q154 738 217
738T310 706T361 601L485 234L610 597Q634 679 671 708T764 738T862 718Q846 693 846 652Q846 646 846 639L881 95Q883 34 899 9Z" />
<glyph unicode="N" glyph-name="N" horiz-adv-x="823" d="M109 90V642Q109 686 79 699Q110 738 167 738Q242 738 292 658L593 168V642Q593 686 563 699Q592 738 640 738Q723 738 723 639V87Q723 42 743 19Q717 -10 669 -10T583 19T502 118L239 543V87Q239 44 268
29Q237 -10 192 -10Q109 -10 109 90Z" />
<glyph unicode="O" glyph-name="O" horiz-adv-x="784" d="M319 75T411 75T548 157Q585 225 585 327Q585 487 520 577Q466 654 374 654T237 572Q200 504 200 401Q200 241 264 152Q319 75 411 75ZM716 534T716 365T634 93T394 -10T152 93T68 364T152 635T394 738T634 636Z" />
<glyph unicode="P" glyph-name="P" horiz-adv-x="627" d="M302 647H217V347H302Q376 347 416 388T456 497T416 606T302 647ZM145 729H322Q324 729 326 729Q442 729 522 669T603 498T523 327T322 266H217V87Q217 43 247 29Q216 -10 170 -10Q88 -10 88 90V630Q88
673 57 688Q90 729 145 729Z" />
<glyph unicode="Q" glyph-name="Q" horiz-adv-x="818" d="M730 -46Q751 -69 751 -101Q751 -137 730 -162Q688 -212 609 -212T456 -174T340 -87T297 -1Q297 14 310 24T366 52Q479 97 540 183T602 386T542 577T395 651T258 585T208 414T254 253T378 192Q368 157
342 133T279 108Q200 108 138 183T76 370Q76 527 173 632T415 738T649 650T738 408T648 144T399 -9Q487 -82 617 -82Q682 -82 730 -46Z" />
<glyph unicode="R" glyph-name="R" horiz-adv-x="659" d="M217 634V378H302Q377 378 416 411T456 506T417 600T302 634H217ZM551 -10Q511 -10 484 8T423 78L288 284H217V87Q217 43 247 29Q216 -10 170 -10Q88 -10 88 90V630Q88 673 57 688Q90 729 145 729H308Q427
729 508 670T589 506Q589 430 545 378T427 302L561 112Q594 66 638 51Q608 -10 551 -10Z" />
<glyph unicode="S" glyph-name="S" horiz-adv-x="680" d="M610 594Q610 561 590 541T536 521T472 540Q479 557 479 576Q479 607 446 631T354 656T257 633T219 570T261 500T364 442T484 387T587 311T630 205Q630 111 548 51T349 -10T153 36T74 156Q74 194 99 217T162
240T230 212Q206 188 206 155T244 98T349 74T458 104T501 178T459 254T356 312T236 366T133 438T90 541Q90 631 167 685T357 740T539 699T610 594Z" />
<glyph unicode="T" glyph-name="T" horiz-adv-x="611" d="M140 729H510Q591 729 591 664Q591 639 570 614Q535 631 471 631H370V87Q370 43 400 29Q369 -10 323 -10Q241 -10 241 90V631H101Q20 631 20 695Q20 721 42 745Q76 729 140 729Z" />
<glyph unicode="U" glyph-name="U" horiz-adv-x="737" d="M97 261V642Q97 686 66 699Q97 738 142 738Q226 738 226 639V243Q226 168 267 129T384 90T500 128T542 243V642Q542 686 511 699Q542 738 588 738Q671 738 671 639V261Q671 134 601 62T385 -10T168 62T97 261Z" />
<glyph unicode="V" glyph-name="V" horiz-adv-x="697" d="M535 719Q569 739 605 739T662 720T683 668T669 604L462 91Q437 30 417 10T352 -10T290 10T250 91L53 632Q36 681 6 696Q45 738 93 738Q126 738 148 718T189 645L364 124L537 605Q552 651 552 676T535 719Z" />
<glyph unicode="W" glyph-name="W" horiz-adv-x="1020" d="M876 658Q876 696 854 714Q885 738 924 738Q1000 738 1000 661Q1000 639 994 615L858 94Q835 -10 752 -10T646 94L526 550L403 94Q390 37 364 14T294 -10T226 13T189 94L57 623Q41 682 12 698Q45 738
89 738T156 716T191 636L300 126L442 660Q454 703 476 720T535 738Q610 738 629 660L759 122L872 623Q876 642 876 658Z" />
<glyph unicode="X" glyph-name="X" horiz-adv-x="657" d="M634 31T611 11T555 -10T500 4T452 57L326 251L187 53Q142 -10 88 -10Q57 -10 36 12T16 73Q54 73 79 108L260 355L99 603Q61 661 15 661Q23 697 47 717T103 738T159 723T206 671L349 450L476 628Q497 656
497 678T475 718Q512 739 551 739T611 720T633 664T597 582L416 347L559 125Q597 68 643 66Q634 31 611 11Z" />
<glyph unicode="Y" glyph-name="Y" horiz-adv-x="633" d="M400 9Q368 -7 332 -7T275 18T254 95L255 318L71 629Q46 667 10 670Q31 738 96 738Q128 738 152 718T199 658L329 437L460 621Q483 649 483 673T463 719Q503 738 538 738T596 720T618 670T589 598L383
320L382 82Q382 37 400 9Z" />
<glyph unicode="Z" glyph-name="Z" horiz-adv-x="652" d="M608 84Q608 0 459 0H166Q110 0 74 29T38 107T96 214L483 627Q340 604 195 604T50 687Q50 718 72 743Q114 729 194 729H478Q533 729 569 700T606 622T547 514L161 100L470 118Q544 123 585 146Q608 120 608 84Z" />
<glyph unicode="[" glyph-name="bracketleft" horiz-adv-x="429" d="M183 -100H287Q380 -100 380 -164Q380 -179 375 -187H177Q92 -187 67 -132Q54 -104 54 -60V973H287Q380 973 380 908Q380 893 375 886H183V-100Z" />
<glyph unicode="\" glyph-name="backslash" horiz-adv-x="605" d="M121 1020Q170 1020 196 942Q262 758 380 416T544 -56Q561 -106 577 -120Q555 -139 527 -139Q477 -139 451 -61Q412 48 316 329T103 940Q86 990 70 1002Q92 1020 121 1020Z" />
<glyph unicode="]" glyph-name="bracketright" horiz-adv-x="429" d="M253 886H149Q56 886 56 950Q56 953 60 973H259Q321 973 350 946Q362 934 372 908T382 846V-187H149Q56 -187 56 -123Q56 -120 60 -100H253V886Z" />
<glyph unicode="^" glyph-name="asciicircum" horiz-adv-x="672" d="M543 225Q496 225 456 309L330 571L155 236Q124 236 100 255T76 309T101 387L255 662Q288 719 329 719Q350 719 364 705T394 659L596 247Q570 225 543 225Z" />
<glyph unicode="_" glyph-name="underscore" horiz-adv-x="603" d="M118 -73H599Q603 -85 603 -99Q603 -183 485 -183H6Q-1 -169 -1 -154Q-1 -73 118 -73Z" />
<glyph unicode="`" glyph-name="grave" horiz-adv-x="260" d="M240 677Q230 680 213 680T171 660L85 586Q67 569 47 569Q23 569 12 591L79 698Q105 741 128 759T187 778T240 747Q248 731 248 714T240 677Z" />
<glyph unicode="a" glyph-name="a" horiz-adv-x="553" d="M185 133Q185 76 250 76Q304 76 345 126V232Q261 227 223 200T185 133ZM474 355V113Q474 54 526 41Q493 -10 432 -10Q361 -10 348 61Q288 -10 193 -10Q127 -10 86 24T45 119Q45 194 123 240T345 288V370Q345
457 276 457Q245 457 227 441T209 402T224 362Q193 333 152 333T90 353T69 405Q69 457 132 492T281 527T421 485T474 355Z" />
<glyph unicode="b" glyph-name="b" horiz-adv-x="596" d="M210 158Q210 68 298 68Q361 68 399 121T437 258T402 389T318 435Q246 435 210 360V158ZM211 675V457Q264 527 354 527T505 461T567 269T490 67T292 -10Q81 -10 81 158L82 678Q82 721 51 737Q82 775 129
775Q211 775 211 675Z" />
<glyph unicode="c" glyph-name="c" horiz-adv-x="511" d="M471 417Q471 385 451 367T401 349T346 366Q349 378 349 398T335 434T294 450Q246 450 210 396T174 257T212 128T310 84Q394 84 449 143Q468 134 468 106Q468 62 415 26T288 -10Q179 -10 114 56T49 240T124
442T314 527Q380 527 425 497T471 417Z" />
<glyph unicode="d" glyph-name="d" horiz-adv-x="590" d="M383 418Q352 451 300 451T209 399T171 257T203 121T290 76Q357 76 383 139V418ZM512 675V87Q512 44 542 29Q511 -10 465 -10Q400 -10 387 51Q340 -10 253 -10T101 58T37 246T108 446T292 527Q342 527
383 512V678Q383 721 352 737Q383 775 429 775Q512 775 512 675Z" />
<glyph unicode="e" glyph-name="e" horiz-adv-x="517" d="M337 324T346 334T355 374T336 429T283 454T220 417T182 309L317 322Q337 324 346 334ZM317 83Q399 83 455 142Q474 132 474 106Q474 64 421 27T294 -10Q181 -10 115 55T49 240T121 443T299 527Q380 527
432 474T485 351Q485 299 459 276T372 251L179 245Q183 83 317 83Z" />
<glyph unicode="f" glyph-name="f" horiz-adv-x="386" d="M116 478V606Q116 686 162 730T275 775T377 748T412 688T387 648Q352 687 310 687Q245 687 245 606V478H381Q387 471 387 458Q387 432 357 413T261 394H245V-104Q245 -183 211 -222T123 -261Q45 -261 19
-185Q75 -185 95 -161T116 -81V395Q29 400 29 442Q29 467 47 480Q85 478 114 478H116Z" />
<glyph unicode="g" glyph-name="g" horiz-adv-x="562" d="M195 254T219 219T278 184T333 216T352 304Q352 391 326 429T264 468T209 436T190 352Q190 340 191 326Q195 254 219 219ZM390 -61H243Q168 -61 117 -31T65 62T141 163Q59 222 59 319T121 472T272 527Q338
527 391 495Q395 552 424 585T490 618T547 597T568 540T540 488Q518 505 494 505Q448 505 435 458Q484 404 484 319T422 179T272 124Q232 124 198 136Q167 125 167 101T187 68T253 59H381Q455 59 492 25T529 -70Q529 -153 452 -206T255 -260T79 -223T23 -134Q23
-99 47 -79T105 -57Q107 -111 146 -137T268 -164T394 -145T437 -93T390 -61Z" />
<glyph unicode="h" glyph-name="h" horiz-adv-x="620" d="M542 350V87Q542 44 572 29Q541 -10 495 -10Q413 -10 413 90V334Q413 422 337 422Q298 422 262 388T212 293V87Q212 44 242 29Q211 -10 165 -10Q83 -10 83 90V678Q83 720 53 737Q82 775 129 775Q212 775
212 675V416Q238 468 286 497T397 527T501 482T542 350Z" />
<glyph unicode="i" glyph-name="i" horiz-adv-x="291" d="M187 764T209 744T231 690T203 629T138 601T80 622T57 678T88 738T153 764ZM212 427V87Q212 44 242 29Q211 -10 165 -10Q83 -10 83 90V430Q83 474 53 489Q82 527 129 527Q212 527 212 427Z" />
<glyph unicode="j" glyph-name="j" horiz-adv-x="289" d="M212 427V-104Q212 -183 178 -222T91 -261Q12 -261 -14 -185Q42 -185 62 -161T83 -81V430Q83 474 53 489Q82 527 129 527Q212 527 212 427ZM187 764T209 744T231 690T203 629T138 601T80 622T57 678T88
738T153 764Z" />
<glyph unicode="k" glyph-name="k" horiz-adv-x="599" d="M212 675V316Q411 407 411 527Q465 527 498 504T531 443Q531 390 474 350T306 274Q436 132 494 110Q521 101 559 101Q559 50 535 20T463 -10T361 43T212 239V87Q212 44 242 29Q211 -10 165 -10Q83 -10
83 90V678Q83 720 53 737Q82 775 129 775Q212 775 212 675Z" />
<glyph unicode="l" glyph-name="l" horiz-adv-x="295" d="M212 675V87Q212 44 242 29Q211 -10 165 -10Q83 -10 83 90V678Q83 720 53 737Q82 775 129 775Q212 775 212 675Z" />
<glyph unicode="m" glyph-name="m" horiz-adv-x="951" d="M872 350V87Q872 43 902 29Q873 -10 825 -10Q743 -10 743 90V334Q743 422 667 422Q628 422 592 388T542 293V87Q542 44 572 29Q541 -10 495 -10Q413 -10 413 90V334Q413 422 337 422Q298 422 262 388T212
293V87Q212 44 242 29Q211 -10 165 -10Q83 -10 83 90V430Q83 474 53 489Q82 527 129 527Q212 527 212 427V416Q238 468 286 497T392 527Q513 527 537 405Q562 462 611 494T726 527T831 482T872 350Z" />
<glyph unicode="n" glyph-name="n" horiz-adv-x="620" d="M542 350V87Q542 44 572 29Q541 -10 495 -10Q413 -10 413 90V334Q413 422 337 422Q298 422 262 388T212 293V87Q212 44 242 29Q211 -10 165 -10Q83 -10 83 90V430Q83 474 53 489Q82 527 129 527Q212 527
212 427V416Q238 468 286 497T397 527T501 482T542 350Z" />
<glyph unicode="o" glyph-name="o" d="M288 459Q179 459 179 291Q179 276 180 259Q191 58 310 58Q417 58 417 224Q417 240 416 259Q405 459 288 459ZM49 388T119 457T298 527T478 457T548 259T478 60T299 -10T120 60T49 259Z" />
<glyph unicode="p" glyph-name="p" horiz-adv-x="601" d="M318 72Q366 72 401 123T437 258T402 388T318 435Q248 435 212 363V127Q252 72 318 72ZM83 -160V430Q83 474 53 489Q82 527 129 527Q200 527 210 456Q264 527 354 527T505 457T567 260T497 62T334 -10Q265
-10 212 34V-163Q212 -206 242 -221Q211 -261 165 -261Q83 -261 83 -160Z" />
<glyph unicode="q" glyph-name="q" horiz-adv-x="575" d="M383 358Q383 402 358 426T297 451Q243 451 207 399T171 257T203 121T292 75T383 129V358ZM512 527V-163Q512 -206 542 -221Q511 -261 465 -261Q383 -261 383 -160V40Q331 -10 251 -10T104 59T37 245T106
444T287 527Q350 527 397 485Q419 527 480 527H512Z" />
<glyph unicode="r" glyph-name="r" horiz-adv-x="466" d="M83 90V430Q83 474 53 489Q82 527 129 527Q212 527 212 428Q253 527 347 527Q394 527 423 501T452 434T431 369T371 346Q364 346 346 348Q349 363 349 380T335 411T297 425T248 401T212 324V87Q212 44
242 29Q211 -10 165 -10Q83 -10 83 90Z" />
<glyph unicode="s" glyph-name="s" horiz-adv-x="517" d="M461 418Q461 390 443 374T394 357T338 377Q343 392 343 408T324 440T271 455T216 440T195 401T224 355T295 315T378 277T449 223T479 149Q479 81 415 36T259 -10T105 24Q43 60 43 115Q43 146 65 165T124
185T182 158Q166 142 166 118T189 78T255 63T323 80T349 124T320 172T250 212T166 250T95 303T66 375Q66 438 125 482T266 527T405 497T461 418Z" />
<glyph unicode="t" glyph-name="t" horiz-adv-x="420" d="M216 433V146Q216 112 228 97T270 81Q329 81 376 131Q387 130 395 120T403 94Q403 55 356 23T238 -10T128 25T87 133V433Q48 434 30 449T11 486T29 521Q59 517 81 517H87V566Q87 610 56 625Q87 663 132
663Q216 663 216 563V517H373Q379 508 379 498Q379 471 345 452T226 433H216Z" />
<glyph unicode="u" glyph-name="u" horiz-adv-x="620" d="M542 427V87Q542 44 572 29Q541 -10 495 -10Q418 -10 414 74Q361 -10 263 -10Q178 -10 131 34T83 167V430Q83 474 53 489Q82 527 129 527Q212 527 212 427V179Q212 91 300 91Q380 91 413 178V430Q413 474
383 489Q414 527 459 527Q542 527 542 427Z" />
<glyph unicode="v" glyph-name="v" horiz-adv-x="554" d="M394 411Q404 440 404 465T391 510Q420 527 455 527T510 509T531 464T516 398L396 94Q375 38 351 16T279 -7T207 14T164 94L62 417Q47 462 20 474Q28 498 51 512T101 527Q176 527 194 441L281 77L394 411Z" />
<glyph unicode="w" glyph-name="w" horiz-adv-x="854" d="M708 427Q713 453 713 476T703 513Q731 527 768 527T823 494Q832 476 832 456T826 413L736 95Q719 37 695 14T623 -10T550 15T512 95L448 360L383 95Q368 38 342 14T266 -10T190 13T149 95L65 408Q52 462
20 474Q46 527 106 527Q178 527 196 431L266 89L352 439Q364 488 388 507T455 527T523 508T558 439L635 90L708 427Z" />
<glyph unicode="x" glyph-name="x" horiz-adv-x="536" d="M429 -10Q376 -10 331 53L258 157L188 46Q152 -10 95 -10Q68 -10 47 6T21 49Q50 56 75 92L189 255L69 425Q41 464 21 468Q25 495 46 511T96 527Q151 527 193 467L274 352L353 474Q386 527 443 527Q470
527 491 511T518 469Q486 460 462 425L342 254L459 87Q482 54 509 47Q503 21 481 6T429 -10Z" />
<glyph unicode="y" glyph-name="y" horiz-adv-x="586" d="M433 425Q443 450 443 472T431 511Q457 527 495 527T556 492Q567 475 567 452T555 398L358 -128Q308 -261 209 -261Q167 -261 141 -239T115 -186T132 -132Q155 -153 184 -153Q232 -153 253 -94L282 -10Q279
-10 277 -10Q246 -10 219 14T179 81L67 421Q51 474 28 491Q62 527 102 527T164 505T200 433L309 67L433 425Z" />
<glyph unicode="z" glyph-name="z" horiz-adv-x="503" d="M457 69Q457 0 339 0H159Q107 0 79 25T50 90T95 172L350 425Q255 410 184 410T86 430T58 479T75 527Q117 517 173 517H353Q405 517 433 492T461 428T416 345L161 91L341 99Q406 102 439 126Q457 107 457 69Z" />
<glyph unicode="{" glyph-name="braceleft" horiz-adv-x="511" d="M279 836Q279 803 291 694T303 547T289 475T254 425Q219 394 197 391Q216 389 255 356Q275 340 289 307T303 236T291 86T279 -59Q279 -116 309 -152T389 -199Q378 -214 353 -223T306 -233Q245
-233 200 -183T154 -38Q154 9 166 105T179 241T167 309T140 348T113 370T100 391T112 412T139 434T166 472T179 540T167 675T154 815Q154 912 199 961T306 1010Q328 1010 353 1001T389 976Q339 967 309 931T279 836Z" />
<glyph unicode="|" glyph-name="bar" horiz-adv-x="340" d="M234 851V-109Q234 -154 264 -168Q233 -206 187 -206Q105 -206 105 -106V854Q105 897 75 912Q104 950 151 950Q234 950 234 851Z" />
<glyph unicode="}" glyph-name="braceright" horiz-adv-x="511" d="M334 815Q334 770 322 675T310 540T322 473T349 435T376 413T389 391T377 370T350 348T323 309T310 242T322 106T334 -38Q334 -134 289 -183T183 -233Q161 -233 136 -224T100 -199Q150 -189 179
-153T209 -59Q209 -25 198 86T186 235T200 307T234 356Q273 389 292 391Q270 394 242 418Q186 467 186 550Q186 585 197 694T209 836Q209 894 180 930T100 976Q111 992 136 1001T183 1010Q244 1010 289 961T334 815Z" />
<glyph unicode="~" glyph-name="asciitilde" horiz-adv-x="693" d="M250 481T354 449T492 416Q559 416 563 472Q599 456 599 412T565 337T478 307T323 338T184 370Q125 370 120 315Q84 326 84 373T119 450T202 481Z" />
<glyph unicode="&#xa0;" glyph-name="nbsp" horiz-adv-x="277" />
<glyph unicode="&#xa1;" glyph-name="exclamdown" horiz-adv-x="341" d="M248 -122Q251 -141 251 -168T234 -222Q210 -259 169 -259T107 -226T86 -150Q86 -136 88 -122L119 226Q128 308 177 308Q198 308 211 293Q207 270 207 241T212 175L248 -122ZM135 374T117
392T99 442T126 500T185 527T234 509T252 460T225 401T166 374Z" />
<glyph unicode="&#xa2;" glyph-name="cent" horiz-adv-x="511" d="M361 567V522Q410 513 440 485T471 421T451 367T401 349T346 366Q349 378 349 398T335 434T294 450Q246 450 210 396T174 257T212 128T310 84Q394 84 449 143Q468 134 468 102T430 38T334 -6V-53Q334
-96 363 -111Q332 -150 287 -150Q204 -150 204 -50V2Q132 25 91 86T49 240T99 410T232 514V570Q232 614 201 629Q235 668 278 668Q361 668 361 567Z" />
<glyph unicode="&#xa3;" glyph-name="sterling" horiz-adv-x="644" d="M120 413H174Q172 459 172 499Q172 606 244 672T414 738Q490 738 530 707T571 636T546 574T480 548Q470 592 445 623T384 654Q313 654 313 533Q313 473 318 413H489Q493 409 493 396Q493 339
411 339H320V290Q320 247 308 203T264 139Q290 136 369 120T499 104Q571 104 612 140Q624 121 624 95Q624 54 589 22T493 -10T334 8T194 27Q116 27 73 -9Q60 12 60 40T84 97T151 135Q179 169 179 241T177 339H43Q39 345 39 358Q39 413 120 413Z" />
<glyph unicode="&#xa4;" glyph-name="currency" horiz-adv-x="686" d="M460 344Q460 526 332 526Q226 526 226 397Q226 386 227 374Q238 222 354 222Q460 222 460 344ZM568 441T568 374T539 255L626 169Q615 127 574 125Q566 123 557 123Q525 123 492 156L464
184Q414 156 344 156T222 184L194 156Q161 123 129 123Q120 123 112 125Q71 127 60 169L148 255Q118 306 118 373T146 491L60 575Q71 617 112 620Q119 622 127 622L194 588L219 563Q273 593 343 593T468 563L492 588Q524 622 558 622Q566 622 574 620Q615 617 626
575L540 491Q568 441 568 374Z" />
<glyph unicode="&#xa5;" glyph-name="yen" horiz-adv-x="668" d="M460 621Q483 649 483 673T463 719Q503 738 538 738T596 720T618 670T589 598L438 394H574Q579 387 579 377Q579 320 495 320H383V243H574Q579 238 579 226Q579 169 495 169H382V82Q382 37 400
9Q368 -7 332 -7T275 18T254 95V169H74Q70 175 70 188Q70 243 154 243H255V318L254 320H74Q70 326 70 339Q70 394 154 394H210L71 629Q46 667 10 670Q31 738 96 738Q128 738 152 718T199 658L329 437L460 621Z" />
<glyph unicode="&#xa6;" glyph-name="brokenbar" horiz-adv-x="340" d="M235 231V-13Q235 -58 264 -72Q233 -110 188 -110Q106 -110 106 -10V234Q106 278 76 291Q105 330 152 330Q235 330 235 231ZM235 779V536Q235 492 264 477Q233 438 188 438Q106 438 106 538V782Q106
825 76 840Q105 878 152 878Q235 878 235 779Z" />
<glyph unicode="&#xa7;" glyph-name="section" horiz-adv-x="680" d="M231 171Q231 93 362 30Q417 4 472 -24T565 -98T604 -205Q604 -298 529 -359T349 -420T172 -374T100 -254Q100 -214 126 -192T191 -169T254 -198Q234 -223 234 -255T265 -312T355 -336T450
-306T487 -236T449 -166T356 -111T247 -55T154 23T115 136T154 244T247 286Q274 286 300 274Q231 239 231 171ZM586 593Q586 559 568 539T522 519Q476 519 452 539Q458 561 458 574Q458 605 428 629T344 654Q231 654 231 571Q231 539 269 510T362 453T472 396T565
316T604 203T561 97T466 55Q437 55 413 67Q487 101 487 175Q487 218 449 252T356 312T247 365T154 437T115 540Q115 629 185 683T356 738T522 697T586 593Z" />
<glyph unicode="&#xa8;" glyph-name="dieresis" horiz-adv-x="352" d="M122 734T139 717T156 671T131 616T75 590T29 607T12 654T38 708T93 734ZM307 734T323 717T340 671T315 616T260 590T213 607T196 654T222 708T277 734Z" />
<glyph unicode="&#xa9;" glyph-name="copyright" horiz-adv-x="869" d="M603 507Q603 479 586 463T541 447T492 463Q495 481 495 483Q495 507 481 523T441 540Q396 540 367 490T337 366T371 252T460 212Q534 212 585 271Q602 263 602 238Q602 198 553 164T437
129Q340 129 283 189T226 352T292 532T459 609Q518 609 560 581T603 507ZM295 693T211 599T127 364T210 130T433 36T657 129T741 363T658 598T435 693ZM797 527T797 363T694 95T435 -10T175 94T72 363T175 633T434 739T694 633Z" />
<glyph unicode="&#xaa;" glyph-name="ordfeminine" horiz-adv-x="553" d="M185 133Q185 76 250 76Q304 76 345 126V232Q261 227 223 200T185 133ZM474 355V113Q474 54 526 41Q493 -10 432 -10Q361 -10 348 61Q288 -10 193 -10Q127 -10 86 24T45 119Q45 194 123
240T345 288V370Q345 457 276 457Q245 457 227 441T209 402T224 362Q193 333 152 333T90 353T69 405Q69 457 132 492T281 527T421 485T474 355Z" />
<glyph unicode="&#xab;" glyph-name="guillemotleft" horiz-adv-x="596" d="M181 445T181 404T209 314T310 175Q301 154 278 154Q233 154 143 252T52 404Q52 440 96 501T194 608T275 655T310 634Q237 542 209 494ZM471 541T443 493T415 405T443 315T544 175Q535
154 512 154Q467 154 377 252T286 404Q286 440 330 501T428 608T509 655T544 634Q471 541 443 493Z" />
<glyph unicode="&#xac;" glyph-name="logicalnot" horiz-adv-x="803" d="M712 403V306Q712 262 742 247Q713 208 665 208Q584 208 584 307V370Q584 385 577 390T552 396H59Q52 410 52 426Q52 491 147 491H608Q665 491 688 471T712 403Z" />
<glyph unicode="&#xae;" glyph-name="registered" horiz-adv-x="678" d="M297 671V559H329Q397 559 397 615T329 671H297ZM472 379T438 379T378 419L316 514H296V424Q296 405 310 397Q294 379 270 379Q229 379 229 425V672Q229 690 216 699Q232 717 255 717H338Q393
717 431 690T469 621T447 555T389 521L451 434Q464 415 485 406Q472 379 438 379ZM235 307T339 307T506 375T569 544T507 713T340 781T173 713T109 544T172 376ZM219 821T339 821T536 744T614 544T537 345T339 268T142 344T64 544T141 744Z" />
<glyph unicode="&#xaf;" glyph-name="overscore" horiz-adv-x="398" d="M79 681H379Q386 674 386 656T368 624T319 611H19Q12 620 12 637T30 668T79 681Z" />
<glyph unicode="&#xb0;" glyph-name="degree" horiz-adv-x="805" d="M169 873T244 873T367 828T415 709T367 590T244 543T121 589T72 708T120 827ZM208 625T244 625T301 648T323 709T302 769T244 793T187 770T165 710T186 649Z" />
<glyph unicode="&#xb1;" glyph-name="plusminus" horiz-adv-x="722" d="M412 428L416 320Q416 210 333 210Q316 210 309 215L313 428L73 425Q66 437 66 454Q66 533 174 533L311 529Q308 597 306 636Q306 741 386 741Q400 741 416 734L412 529L651 533Q657 521
657 507Q657 425 547 425Q504 425 412 428ZM174 159H661Q666 149 666 133Q666 50 548 50H63Q56 71 56 79Q56 159 174 159Z" />
<glyph unicode="&#xb2;" glyph-name="twosuperior" horiz-adv-x="412" d="M274 311H97Q64 311 51 325T37 352T40 374Q144 444 198 499T253 616Q253 689 190 689Q165 689 152 677T138 644T170 609Q153 582 118 582T62 597T41 639Q41 681 87 710T198 740T306 704T349
614Q349 490 124 377Q199 386 274 386Q370 386 370 336Q370 320 355 303Q326 311 274 311Z" />
<glyph unicode="&#xb3;" glyph-name="threesuperior" horiz-adv-x="386" d="M258 738T293 714T329 654T303 594T238 559Q286 549 318 517T351 437T295 348T178 307T77 330T36 390Q36 413 52 430T82 448Q111 380 194 380Q226 380 246 395T266 438T236 488T149 510Q130
510 116 507Q108 512 108 524T127 549T170 569T213 593T233 628T214 660T160 673T89 648Q71 653 71 676T109 719T202 738Z" />
<glyph unicode="&#xb4;" glyph-name="acute" horiz-adv-x="265" d="M254 591Q243 569 222 569T180 585L90 655Q66 673 49 673T21 669Q12 689 12 706T20 738Q37 771 72 771T130 754T181 695L254 591Z" />
<glyph unicode="&#xb5;" glyph-name="uni00B5" horiz-adv-x="622" d="M542 427V87Q542 44 572 29Q541 -10 495 -10Q418 -10 414 74Q361 -10 273 -10Q240 -10 212 3V-88Q212 -132 242 -147Q210 -186 165 -186Q83 -186 83 -86V430Q83 474 53 489Q82 527 129 527Q212
527 212 427V179Q212 91 300 91Q380 91 413 178V430Q413 474 383 489Q414 527 459 527Q542 527 542 427Z" />
<glyph unicode="&#xb6;" glyph-name="paragraph" horiz-adv-x="696" d="M253 729H569Q555 678 555 597V0Q538 -5 519 -5T484 10T468 60V569Q468 597 474 649H419Q378 649 378 605V0Q363 -5 344 -5T308 10T292 60V276H253Q159 276 106 339T52 502T105 665T253 729Z" />
<glyph unicode="&#xb7;" glyph-name="middot" horiz-adv-x="405" d="M250 473T269 453T289 399T259 335T195 305T140 325T120 379T150 443T215 473Z" />
<glyph unicode="&#xb8;" glyph-name="cedilla" horiz-adv-x="365" d="M225 -64Q279 -64 312 -86T345 -152T297 -228T176 -259T59 -233T14 -173Q14 -151 33 -139Q75 -197 154 -197T233 -151Q233 -108 170 -108H151Q126 -108 126 -90Q126 -82 131 -71L164 17H249L219
-64H225Z" />
<glyph unicode="&#xb9;" glyph-name="onesuperior" horiz-adv-x="224" d="M177 680V361Q177 334 196 327Q176 304 146 304Q93 304 93 363V661Q93 680 74 680T32 666Q20 669 20 685T48 720T111 738Q177 738 177 680Z" />
<glyph unicode="&#xba;" glyph-name="ordmasculine" horiz-adv-x="405" d="M195 689Q135 689 135 602Q135 592 136 582Q144 477 210 477Q270 477 270 561Q270 571 269 582Q261 689 195 689ZM132 738T203 738T319 698T364 583T319 468T203 427T86 467T40 582T86 697Z" />
<glyph unicode="&#xbb;" glyph-name="guillemotright" horiz-adv-x="596" d="M544 404Q544 350 454 252T318 154Q306 154 297 161T286 175Q358 264 386 313T414 404T386 494T286 634Q288 641 297 648T318 655Q347 655 401 609T500 501T544 404ZM310 404Q310 350
220 252T84 154Q72 154 63 161T52 175Q124 264 152 313T180 404T152 494T52 634Q54 641 63 648T84 655Q113 655 167 609T266 501T310 404Z" />
<glyph unicode="&#xbc;" glyph-name="onequarter" horiz-adv-x="679" d="M103 361V660Q103 679 84 679T45 665Q32 670 32 686T59 720T122 738Q188 738 188 680V360Q188 334 208 325Q188 303 158 303Q103 303 103 361ZM502 705Q524 738 542 738T574 719Q567 716
560 703T551 686L147 27Q146 25 144 22T140 16T137 11T134 7T130 3T127 -1T123 -4T118 -6Q112 -8 108 -8Q87 -8 75 12Q83 19 98 44L502 705ZM419 156H508V324Q508 334 501 334Q485 334 441 268T397 169Q397 156 419 156ZM612 101H595V51Q595 24 615 17Q594 -6 564
-6Q508 -6 508 52V101H383Q325 101 325 144Q325 202 407 316T546 431Q595 431 595 374V156H614Q646 156 658 166Q669 155 669 140T654 113T612 101Z" />
<glyph unicode="&#xbd;" glyph-name="onehalf" horiz-adv-x="754" d="M100 361V660Q100 679 81 679T42 665Q30 670 30 686T57 720T120 738Q186 738 186 680V360Q186 334 205 325Q185 303 155 303Q100 303 100 361ZM496 705Q514 738 534 738T568 719Q561 715 545
686L141 27Q140 25 138 22T134 16T131 11T128 7T124 3T121 -1T117 -4T112 -6Q106 -8 102 -8Q81 -8 69 12Q77 19 92 44L496 705ZM627 0H451Q418 0 405 14T391 41T394 63Q499 134 553 189T607 304Q607 341 590 360T546 379T506 367T492 333T524 298Q505 271 471 271T416
286T395 328Q395 369 441 399T552 429T660 393T703 303Q703 177 477 66Q552 75 625 75Q724 75 724 25Q724 9 709 -8Q674 0 627 0Z" />
<glyph unicode="&#xbe;" glyph-name="threequarters" horiz-adv-x="741" d="M286 549T318 517T351 437T295 348T178 307T77 330T36 390Q36 413 52 430T82 448Q112 379 194 379Q226 379 246 394T266 438T236 488T149 510Q130 510 116 507Q108 512 108 523T127 547T170
567T213 591T233 628T214 661T160 674T89 649Q71 654 71 677T109 719T202 738T293 714T329 654T303 594T238 559Q286 549 318 517ZM595 704Q618 738 640 738T674 716Q660 712 644 686L214 27Q192 -8 169 -8T135 14Q148 19 166 44L595 704ZM484 156H573V324Q573
334 565 334Q549 334 506 268T462 169Q462 156 484 156ZM677 101H660V51Q660 24 680 17Q659 -6 630 -6Q573 -6 573 52V101H448Q391 101 391 144Q391 178 429 246T520 373T610 431Q660 431 660 374V156H679Q711 156 723 166Q734 155 734 140T719 113T677 101Z" />
<glyph unicode="&#xbf;" glyph-name="questiondown" horiz-adv-x="554" d="M219 117T237 143T256 193T242 232T204 252Q206 277 226 293T280 309T342 282T370 215T354 146T313 91T265 40Q208 -20 208 -94Q208 -135 234 -163T302 -192Q383 -192 383 -125Q383 -99
367 -78T325 -47Q326 -34 352 -15T417 5T484 -25T512 -102Q512 -171 447 -215T290 -259T137 -214T76 -99Q76 -57 94 -20T139 43T192 93ZM236 375T217 392T198 441T227 499T290 526T344 508T364 459T334 402T270 375Z" />
<glyph unicode="&#xc0;" glyph-name="Agrave" horiz-adv-x="703" d="M318 803L385 910Q411 953 434 971T493 990T546 959Q554 943 554 926T546 889Q536 892 519 892T477 872L391 798Q373 781 351 781T318 803ZM255 234H443L355 527L255 234ZM598 -10Q563 -10 542
7T504 68L474 151H225L193 66Q166 -10 109 -10Q83 -10 61 2T31 34Q57 45 78 99L294 652Q280 686 261 701Q288 738 333 738T398 716T438 637L626 112Q648 53 684 35Q661 -10 598 -10Z" />
<glyph unicode="&#xc1;" glyph-name="Aacute" horiz-adv-x="703" d="M428 803Q417 781 396 781T354 797L264 867Q240 885 223 885T195 881Q186 901 186 918T194 950Q211 983 246 983T304 966T355 907L428 803ZM255 234H443L355 527L255 234ZM598 -10Q563 -10 542
7T504 68L474 151H225L193 66Q166 -10 109 -10Q83 -10 61 2T31 34Q57 45 78 99L294 652Q280 686 261 701Q288 738 333 738T398 716T438 637L626 112Q648 53 684 35Q661 -10 598 -10Z" />
<glyph unicode="&#xc2;" glyph-name="Acircumflex" horiz-adv-x="703" d="M267 798Q249 781 225 781T192 803L263 908Q286 943 305 958T355 973T405 958T448 908L519 803Q510 781 486 781T444 798L356 879L267 798ZM255 234H443L355 527L255 234ZM598 -10Q563
-10 542 7T504 68L474 151H225L193 66Q166 -10 109 -10Q83 -10 61 2T31 34Q57 45 78 99L294 652Q280 686 261 701Q288 738 333 738T398 716T438 637L626 112Q648 53 684 35Q661 -10 598 -10Z" />
<glyph unicode="&#xc3;" glyph-name="Atilde" horiz-adv-x="703" d="M188 859Q188 899 219 928T292 958T378 931T447 903T486 918T503 960Q541 955 541 911T508 838T435 809T347 837T279 865T243 850T226 808Q211 809 200 821T188 859ZM255 234H443L355 527L255
234ZM598 -10Q563 -10 542 7T504 68L474 151H225L193 66Q166 -10 109 -10Q83 -10 61 2T31 34Q57 45 78 99L294 652Q280 686 261 701Q288 738 333 738T398 716T438 637L626 112Q648 53 684 35Q661 -10 598 -10Z" />
<glyph unicode="&#xc4;" glyph-name="Adieresis" horiz-adv-x="703" d="M520 853T495 828T440 802T393 819T376 866T402 920T457 946T503 929T520 883ZM336 853T311 828T255 802T209 819T192 866T218 920T273 946T319 929T336 883ZM255 234H443L355 527L255 234ZM598
-10Q563 -10 542 7T504 68L474 151H225L193 66Q166 -10 109 -10Q83 -10 61 2T31 34Q57 45 78 99L294 652Q280 686 261 701Q288 738 333 738T398 716T438 637L626 112Q648 53 684 35Q661 -10 598 -10Z" />
<glyph unicode="&#xc5;" glyph-name="Aring" horiz-adv-x="703" d="M314 896Q314 824 361 824Q398 824 398 868Q398 874 397 881Q391 939 351 939Q314 939 314 896ZM403 789T356 789T278 813T246 881T277 949T356 974T434 950T466 881T435 813ZM255 234H443L355
527L255 234ZM598 -10Q563 -10 542 7T504 68L474 151H225L193 66Q166 -10 109 -10Q83 -10 61 2T31 34Q57 45 78 99L294 652Q280 686 261 701Q288 738 333 738T398 716T438 637L626 112Q648 53 684 35Q661 -10 598 -10Z" />
<glyph unicode="&#xc6;" glyph-name="AE" horiz-adv-x="1031" d="M457 272V618L288 272H457ZM642 105H829Q895 105 939 146Q971 124 971 85T941 23T849 0H629Q457 0 457 138V166H237L187 64Q153 -6 101 -6Q74 -6 51 7T15 40Q31 47 43 60T69 103L345 645Q368 689
397 709T477 729H841Q971 729 971 658Q971 622 939 602Q898 623 829 623H587V437H753Q824 437 853 424T882 375T853 319Q821 332 743 332H587V157Q587 130 600 118T642 105Z" />
<glyph unicode="&#xc7;" glyph-name="Ccedilla" horiz-adv-x="715" d="M63 354Q63 528 159 633T411 738Q508 738 576 698T645 601Q645 564 620 546T557 527T494 542Q496 555 496 567Q496 604 474 631T395 659Q316 659 258 583T200 371T258 171T419 106Q479 106
532 133T618 197Q631 194 639 178T647 146Q647 96 574 45T398 -10L378 -64H384Q438 -64 471 -86T504 -152T456 -228T335 -259T218 -233T173 -173Q173 -151 192 -139Q234 -197 313 -197T392 -151Q392 -108 329 -108H310Q286 -108 286 -90Q286 -82 290 -71L315 -4Q197
18 130 112T63 354Z" />
<glyph unicode="&#xc8;" glyph-name="Egrave" horiz-adv-x="687" d="M322 803L389 910Q415 953 438 971T497 990T550 959Q558 943 558 926T550 889Q540 892 523 892T481 872L395 798Q377 781 355 781T322 803ZM309 105H486Q552 105 596 146Q627 125 627 86T597
23T506 0H292Q201 0 158 38T115 161V630Q115 673 84 688Q117 729 171 729H498Q627 729 627 658Q627 622 596 602Q555 623 486 623H244V437H410Q481 437 510 424T539 375T510 319Q478 332 400 332H244V175Q244 138 259 122T309 105Z" />
<glyph unicode="&#xc9;" glyph-name="Eacute" horiz-adv-x="687" d="M432 803Q421 781 400 781T358 797L268 867Q244 885 227 885T199 881Q190 901 190 918T198 950Q215 983 250 983T308 966T359 907L432 803ZM309 105H486Q552 105 596 146Q627 125 627 86T597
23T506 0H292Q201 0 158 38T115 161V630Q115 673 84 688Q117 729 171 729H498Q627 729 627 658Q627 622 596 602Q555 623 486 623H244V437H410Q481 437 510 424T539 375T510 319Q478 332 400 332H244V175Q244 138 259 122T309 105Z" />
<glyph unicode="&#xca;" glyph-name="Ecircumflex" horiz-adv-x="687" d="M272 798Q254 781 230 781T197 803L268 908Q291 943 310 958T360 973T410 958T453 908L524 803Q515 781 491 781T449 798L361 879L272 798ZM309 105H486Q552 105 596 146Q627 125 627 86T597
23T506 0H292Q201 0 158 38T115 161V630Q115 673 84 688Q117 729 171 729H498Q627 729 627 658Q627 622 596 602Q555 623 486 623H244V437H410Q481 437 510 424T539 375T510 319Q478 332 400 332H244V175Q244 138 259 122T309 105Z" />
<glyph unicode="&#xcb;" glyph-name="Edieresis" horiz-adv-x="687" d="M525 853T500 828T445 802T398 819T381 866T407 920T462 946T508 929T525 883ZM341 853T316 828T260 802T214 819T197 866T223 920T278 946T324 929T341 883ZM309 105H486Q552 105 596 146Q627
125 627 86T597 23T506 0H292Q201 0 158 38T115 161V630Q115 673 84 688Q117 729 171 729H498Q627 729 627 658Q627 622 596 602Q555 623 486 623H244V437H410Q481 437 510 424T539 375T510 319Q478 332 400 332H244V175Q244 138 259 122T309 105Z" />
<glyph unicode="&#xcc;" glyph-name="Igrave" horiz-adv-x="340" d="M225 953T248 971T307 990T360 959Q368 943 368 926T360 889Q350 892 333 892T291 872L205 798Q187 781 167 781Q143 781 132 803L199 910Q225 953 248 971ZM234 639V87Q234 43 264 29Q233 -10
187 -10Q105 -10 105 90V642Q105 686 75 699Q104 738 151 738Q234 738 234 639Z" />
<glyph unicode="&#xcd;" glyph-name="Iacute" horiz-adv-x="340" d="M242 803Q231 781 210 781T168 797L78 867Q54 885 37 885T9 881Q0 901 0 918T8 950Q25 983 60 983T118 966T169 907L242 803ZM234 639V87Q234 43 264 29Q233 -10 187 -10Q105 -10 105 90V642Q105
686 75 699Q104 738 151 738Q234 738 234 639Z" />
<glyph unicode="&#xce;" glyph-name="Icircumflex" horiz-adv-x="340" d="M234 639V87Q234 43 264 29Q233 -10 187 -10Q105 -10 105 90V642Q105 686 75 699Q104 738 151 738Q234 738 234 639ZM333 803Q324 781 300 781T258 798L170 879L81 798Q63 781 39 781T6
803L77 908Q100 943 119 958T169 973T219 958T262 908L333 803Z" />
<glyph unicode="&#xcf;" glyph-name="Idieresis" horiz-adv-x="340" d="M301 946T317 929T334 883T309 828T254 802T207 819T190 866T216 920T271 946ZM116 946T133 929T150 883T125 828T69 802T23 819T6 866T32 920T87 946ZM234 639V87Q234 43 264 29Q233 -10
187 -10Q105 -10 105 90V642Q105 686 75 699Q104 738 151 738Q234 738 234 639Z" />
<glyph unicode="&#xd0;" glyph-name="Eth" horiz-adv-x="806" d="M231 329V142Q231 110 252 95T336 80Q447 80 516 155T585 363T516 572T336 648Q286 648 232 631V403H422Q426 399 426 386Q426 329 342 329H231ZM102 403V603Q102 658 79 693Q208 738 336 738Q503
738 611 641T720 363Q720 243 668 157Q566 -10 336 -10Q209 -10 155 28T101 149V329H9Q5 335 5 348Q5 403 89 403H102Z" />
<glyph unicode="&#xd1;" glyph-name="Ntilde" horiz-adv-x="823" d="M389 958T434 931T503 903T542 918T559 960Q597 955 597 911T564 838T491 809T403 837T335 865T299 850T282 808Q267 809 256 821T244 859Q244 899 275 928T348 958ZM109 90V642Q109 686 79
699Q110 738 167 738Q242 738 292 658L593 168V642Q593 686 563 699Q592 738 640 738Q723 738 723 639V87Q723 42 743 19Q717 -10 669 -10T583 19T502 118L239 543V87Q239 44 268 29Q237 -10 192 -10Q109 -10 109 90Z" />
<glyph unicode="&#xd2;" glyph-name="Ograve" horiz-adv-x="784" d="M448 953T471 971T530 990T582 959Q591 943 591 926T583 889Q573 892 556 892T514 872L428 798Q410 781 390 781Q366 781 355 803L422 910Q448 953 471 971ZM319 75T411 75T548 157Q585 225
585 327Q585 487 520 577Q466 654 374 654T237 572Q200 504 200 401Q200 241 264 152Q319 75 411 75ZM716 534T716 365T634 93T394 -10T152 93T68 364T152 635T394 738T634 636Z" />
<glyph unicode="&#xd3;" glyph-name="Oacute" horiz-adv-x="784" d="M319 75T411 75T548 157Q585 225 585 327Q585 487 520 577Q466 654 374 654T237 572Q200 504 200 401Q200 241 264 152Q319 75 411 75ZM716 534T716 365T634 93T394 -10T152 93T68 364T152 635T394
738T634 636ZM464 803Q453 781 432 781T390 797L300 867Q276 885 259 885T231 881Q222 901 222 918T230 950Q247 983 282 983T340 966T391 907L464 803Z" />
<glyph unicode="&#xd4;" glyph-name="Ocircumflex" horiz-adv-x="784" d="M304 798Q286 781 262 781T229 803L300 908Q323 943 342 958T392 973T442 958T485 908L556 803Q547 781 523 781T481 798L393 879L304 798ZM319 75T411 75T548 157Q585 225 585 327Q585
487 520 577Q466 654 374 654T237 572Q200 504 200 401Q200 241 264 152Q319 75 411 75ZM68 532T152 635T394 738T634 636T716 365T634 93T394 -10T152 93T68 364Z" />
<glyph unicode="&#xd5;" glyph-name="Otilde" horiz-adv-x="784" d="M370 958T415 931T484 903T523 918T540 960Q578 955 578 911T545 838T472 809T384 837T316 865T280 850T263 808Q248 809 237 821T225 859Q225 899 256 928T329 958ZM319 75T411 75T548 157Q585
225 585 327Q585 487 520 577Q466 654 374 654T237 572Q200 504 200 401Q200 241 264 152Q319 75 411 75ZM716 534T716 365T634 93T394 -10T152 93T68 364T152 635T394 738T634 636Z" />
<glyph unicode="&#xd6;" glyph-name="Odieresis" horiz-adv-x="784" d="M319 75T411 75T548 157Q585 225 585 327Q585 487 520 577Q466 654 374 654T237 572Q200 504 200 401Q200 241 264 152Q319 75 411 75ZM716 534T716 365T634 93T394 -10T152 93T68 364T152
635T394 738T634 636ZM524 946T540 929T557 883T532 828T477 802T430 819T413 866T439 920T494 946ZM339 946T356 929T373 883T348 828T292 802T246 819T229 866T255 920T310 946Z" />
<glyph unicode="&#xd7;" glyph-name="multiply" horiz-adv-x="719" d="M563 147Q520 147 462 213L346 346L204 183Q171 144 144 144T102 171L300 398L85 641Q96 663 116 674T157 686T198 674T229 651T257 620L376 486L516 647Q552 686 578 686T619 661L421 433L633
191Q623 170 603 159T563 147Z" />
<glyph unicode="&#xd8;" glyph-name="Oslash" horiz-adv-x="810" d="M263 155Q318 76 410 76T548 158Q585 226 585 328Q585 420 562 492L263 155ZM373 655Q281 655 237 573Q200 505 200 402Q200 290 233 211L537 553Q480 655 373 655ZM716 366Q716 197 634 94T393
-9Q265 -9 182 64L151 29Q116 -10 86 -10T48 22Q79 38 117 81L141 108Q68 206 68 369T152 636T387 739T623 650L667 699Q700 738 732 738T770 707Q742 692 700 648L659 602Q716 510 716 366Z" />
<glyph unicode="&#xd9;" glyph-name="Ugrave" horiz-adv-x="737" d="M439 953T462 971T521 990T574 959Q582 943 582 926T574 889Q564 892 547 892T505 872L419 798Q401 781 381 781Q357 781 346 803L413 910Q439 953 462 971ZM97 261V642Q97 686 66 699Q97 738
142 738Q226 738 226 639V243Q226 168 267 129T384 90T500 128T542 243V642Q542 686 511 699Q542 738 588 738Q671 738 671 639V261Q671 134 601 62T385 -10T168 62T97 261Z" />
<glyph unicode="&#xda;" glyph-name="Uacute" horiz-adv-x="737" d="M97 261V642Q97 686 66 699Q97 738 142 738Q226 738 226 639V243Q226 168 267 129T384 90T500 128T542 243V642Q542 686 511 699Q542 738 588 738Q671 738 671 639V261Q671 134 601 62T385 -10T168
62T97 261ZM455 803Q444 781 423 781T381 797L291 867Q267 885 250 885T222 881Q213 901 213 918T221 950Q238 983 273 983T331 966T382 907L455 803Z" />
<glyph unicode="&#xdb;" glyph-name="Ucircumflex" horiz-adv-x="737" d="M295 798Q277 781 253 781T220 803L291 908Q314 943 333 958T383 973T433 958T476 908L547 803Q538 781 514 781T472 798L384 879L295 798ZM542 243V642Q542 686 511 699Q542 738 588 738Q671
738 671 639V261Q671 134 601 62T385 -10T168 62T97 261V642Q97 686 66 699Q97 738 142 738Q226 738 226 639V243Q226 168 267 129T384 90T500 128T542 243Z" />
<glyph unicode="&#xdc;" glyph-name="Udieresis" horiz-adv-x="737" d="M97 261V642Q97 686 66 699Q97 738 142 738Q226 738 226 639V243Q226 168 267 129T384 90T500 128T542 243V642Q542 686 511 699Q542 738 588 738Q671 738 671 639V261Q671 134 601 62T385
-10T168 62T97 261ZM515 946T531 929T548 883T523 828T468 802T421 819T404 866T430 920T485 946ZM330 946T347 929T364 883T339 828T283 802T237 819T220 866T246 920T301 946Z" />
<glyph unicode="&#xdd;" glyph-name="Yacute" horiz-adv-x="633" d="M395 803Q384 781 363 781T321 797L231 867Q207 885 190 885T162 881Q153 901 153 918T161 950Q178 983 213 983T271 966T322 907L395 803ZM400 9Q368 -7 332 -7T275 18T254 95L255 318L71 629Q46
667 10 670Q31 738 96 738Q128 738 152 718T199 658L329 437L460 621Q483 649 483 673T463 719Q503 738 538 738T596 720T618 670T589 598L383 320L382 82Q382 37 400 9Z" />
<glyph unicode="&#xde;" glyph-name="Thorn" horiz-adv-x="660" d="M234 279Q294 258 357 258T461 295T503 394T462 492T357 529T234 507V279ZM234 639V588Q303 616 380 616Q487 616 561 555T636 394T562 233T380 171Q303 171 234 199V87Q234 43 264 29Q233 -10
187 -10Q105 -10 105 90V642Q105 686 75 699Q104 738 151 738Q234 738 234 639Z" />
<glyph unicode="&#xdf;" glyph-name="germandbls" horiz-adv-x="624" d="M582 184Q582 99 531 45T397 -10Q341 -10 312 14T283 72Q283 84 289 98Q317 78 358 78T424 101T448 161T432 226T372 289Q290 360 282 370T274 388T288 409T320 439T351 485T366 556T342
622T282 648T221 620T196 533V87Q196 44 226 29Q195 -10 149 -10Q67 -10 67 90V533Q67 626 127 676T285 726T441 676T500 554Q500 467 410 409L459 374Q582 290 582 184Z" />
<glyph unicode="&#xe0;" glyph-name="agrave" horiz-adv-x="553" d="M244 591L311 698Q337 741 360 759T419 778T472 747Q480 731 480 714T472 677Q462 680 445 680T403 660L317 586Q299 569 277 569T244 591ZM185 133Q185 76 250 76Q304 76 345 126V232Q261 227
223 200T185 133ZM474 355V113Q474 54 526 41Q493 -10 432 -10Q361 -10 348 61Q288 -10 193 -10Q127 -10 86 24T45 119Q45 194 123 240T345 288V370Q345 457 276 457Q245 457 227 441T209 402T224 362Q193 333 152 333T90 353T69 405Q69 457 132 492T281 527T421
485T474 355Z" />
<glyph unicode="&#xe1;" glyph-name="aacute" horiz-adv-x="553" d="M354 591Q343 569 322 569T280 585L190 655Q166 673 149 673T121 669Q112 689 112 706T120 738Q137 771 172 771T230 754T281 695L354 591ZM185 133Q185 76 250 76Q304 76 345 126V232Q261 227
223 200T185 133ZM474 355V113Q474 54 526 41Q493 -10 432 -10Q361 -10 348 61Q288 -10 193 -10Q127 -10 86 24T45 119Q45 194 123 240T345 288V370Q345 457 276 457Q245 457 227 441T209 402T224 362Q193 333 152 333T90 353T69 405Q69 457 132 492T281 527T421
485T474 355Z" />
<glyph unicode="&#xe2;" glyph-name="acircumflex" horiz-adv-x="553" d="M194 586Q176 569 152 569T119 591L190 696Q213 731 232 746T282 761T332 746T375 696L446 591Q437 569 413 569T371 586L283 667L194 586ZM185 133Q185 76 250 76Q304 76 345 126V232Q261
227 223 200T185 133ZM474 355V113Q474 54 526 41Q493 -10 432 -10Q361 -10 348 61Q288 -10 193 -10Q127 -10 86 24T45 119Q45 194 123 240T345 288V370Q345 457 276 457Q245 457 227 441T209 402T224 362Q193 333 152 333T90 353T69 405Q69 457 132 492T281 527T421
485T474 355Z" />
<glyph unicode="&#xe3;" glyph-name="atilde" horiz-adv-x="553" d="M115 647Q115 687 146 716T219 746T305 719T374 691T413 706T430 748Q468 743 468 699T435 626T362 597T274 625T206 653T170 638T153 596Q138 597 127 609T115 647ZM185 133Q185 76 250 76Q304
76 345 126V232Q261 227 223 200T185 133ZM474 355V113Q474 54 526 41Q493 -10 432 -10Q361 -10 348 61Q288 -10 193 -10Q127 -10 86 24T45 119Q45 194 123 240T345 288V370Q345 457 276 457Q245 457 227 441T209 402T224 362Q193 333 152 333T90 353T69 405Q69
457 132 492T281 527T421 485T474 355Z" />
<glyph unicode="&#xe4;" glyph-name="adieresis" horiz-adv-x="553" d="M446 641T421 616T366 590T319 607T302 654T328 708T383 734T429 717T446 671ZM262 641T237 616T181 590T135 607T118 654T144 708T199 734T245 717T262 671ZM185 133Q185 76 250 76Q304
76 345 126V232Q261 227 223 200T185 133ZM474 355V113Q474 54 526 41Q493 -10 432 -10Q361 -10 348 61Q288 -10 193 -10Q127 -10 86 24T45 119Q45 194 123 240T345 288V370Q345 457 276 457Q245 457 227 441T209 402T224 362Q193 333 152 333T90 353T69 405Q69
457 132 492T281 527T421 485T474 355Z" />
<glyph unicode="&#xe5;" glyph-name="aring" horiz-adv-x="553" d="M240 684Q240 612 287 612Q324 612 324 656Q324 662 323 669Q317 727 277 727Q240 727 240 684ZM329 577T282 577T204 601T172 669T203 737T282 762T360 738T392 669T361 601ZM185 173T185 133Q185
76 250 76Q304 76 345 126V232Q261 227 223 200ZM474 355V113Q474 54 526 41Q493 -10 432 -10Q361 -10 348 61Q288 -10 193 -10Q127 -10 86 24T45 119Q45 194 123 240T345 288V370Q345 457 276 457Q245 457 227 441T209 402T224 362Q193 333 152 333T90 353T69
405Q69 457 132 492T281 527T421 485T474 355Z" />
<glyph unicode="&#xe6;" glyph-name="ae" horiz-adv-x="813" d="M628 324T637 334T647 373T630 428T578 454T516 417T478 309L609 322Q628 324 637 334ZM185 133Q185 76 249 76T360 138Q345 180 345 232Q261 227 223 200T185 133ZM612 83Q694 83 750 142Q769 133
769 106Q769 64 716 27T591 -10Q455 -10 391 79Q317 -10 211 -10Q136 -10 91 24T45 119Q45 194 123 240T345 288V370Q345 457 276 457Q245 457 227 441T209 402T224 362Q193 333 152 333T90 353T69 405Q69 457 131 492T271 527Q383 527 432 458Q501 527 588 527T728
474T781 351Q781 299 755 276T667 251L475 245Q479 83 612 83Z" />
<glyph unicode="&#xe7;" glyph-name="ccedilla" horiz-adv-x="511" d="M49 237Q49 358 124 442T314 527Q380 527 425 497T471 417Q471 385 451 367T401 349T346 366Q349 378 349 398T335 434T294 450Q246 450 210 396T174 257T212 128T310 84Q394 84 449 143Q468
134 468 106Q468 63 417 28T295 -10L275 -64H281Q335 -64 368 -86T401 -152T353 -228T232 -259T115 -233T70 -173Q70 -151 89 -139Q131 -197 210 -197T289 -151Q289 -108 226 -108H207Q182 -108 182 -90Q182 -82 187 -71L213 -1Q137 20 93 82T49 237Z" />
<glyph unicode="&#xe8;" glyph-name="egrave" horiz-adv-x="517" d="M253 591L320 698Q346 741 369 759T428 778T480 747Q489 731 489 714T481 677Q471 680 454 680T412 660L326 586Q308 569 286 569T253 591ZM337 324T346 334T355 374T336 429T283 454T220 417T182
309L317 322Q337 324 346 334ZM317 83Q399 83 455 142Q474 132 474 106Q474 64 421 27T294 -10Q181 -10 115 55T49 240T121 443T299 527Q380 527 432 474T485 351Q485 299 459 276T372 251L179 245Q183 83 317 83Z" />
<glyph unicode="&#xe9;" glyph-name="eacute" horiz-adv-x="517" d="M363 591Q352 569 331 569T289 585L199 655Q175 673 158 673T130 669Q121 689 121 706T129 738Q146 771 181 771T239 754T290 695L363 591ZM337 324T346 334T355 374T336 429T283 454T220 417T182
309L317 322Q337 324 346 334ZM317 83Q399 83 455 142Q474 132 474 106Q474 64 421 27T294 -10Q181 -10 115 55T49 240T121 443T299 527Q380 527 432 474T485 351Q485 299 459 276T372 251L179 245Q183 83 317 83Z" />
<glyph unicode="&#xea;" glyph-name="ecircumflex" horiz-adv-x="517" d="M203 586Q185 569 161 569T128 591L199 696Q222 731 241 746T291 761T341 746T384 696L455 591Q446 569 422 569T380 586L292 667L203 586ZM337 324T346 334T355 374T336 429T283 454T220
417T182 309L317 322Q337 324 346 334ZM317 83Q399 83 455 142Q474 132 474 106Q474 64 421 27T294 -10Q181 -10 115 55T49 240T121 443T299 527Q380 527 432 474T485 351Q485 299 459 276T372 251L179 245Q183 83 317 83Z" />
<glyph unicode="&#xeb;" glyph-name="edieresis" horiz-adv-x="517" d="M455 641T430 616T375 590T328 607T311 654T337 708T392 734T438 717T455 671ZM271 641T246 616T190 590T144 607T127 654T153 708T208 734T254 717T271 671ZM337 324T346 334T355 374T336
429T283 454T220 417T182 309L317 322Q337 324 346 334ZM317 83Q399 83 455 142Q474 132 474 106Q474 64 421 27T294 -10Q181 -10 115 55T49 240T121 443T299 527Q380 527 432 474T485 351Q485 299 459 276T372 251L179 245Q183 83 317 83Z" />
<glyph unicode="&#xec;" glyph-name="igrave" horiz-adv-x="291" d="M201 741T224 759T283 778T336 747Q344 731 344 714T336 677Q326 680 309 680T267 660L181 586Q163 569 143 569Q119 569 108 591L175 698Q201 741 224 759ZM212 427V87Q212 44 242 29Q211 -10
165 -10Q83 -10 83 90V430Q83 474 53 489Q82 527 129 527Q212 527 212 427Z" />
<glyph unicode="&#xed;" glyph-name="iacute" horiz-adv-x="291" d="M212 427V87Q212 44 242 29Q211 -10 165 -10Q83 -10 83 90V430Q83 474 53 489Q82 527 129 527Q212 527 212 427ZM218 591Q207 569 186 569T144 585L54 655Q30 673 13 673T-15 669Q-24 689 -24
706T-16 738Q1 771 36 771T94 754T145 695L218 591Z" />
<glyph unicode="&#xee;" glyph-name="icircumflex" horiz-adv-x="291" d="M212 427V87Q212 44 242 29Q211 -10 165 -10Q83 -10 83 90V430Q83 474 53 489Q82 527 129 527Q212 527 212 427ZM310 591Q301 569 277 569T235 586L147 667L58 586Q40 569 16 569T-17 591L54
696Q77 731 96 746T146 761T196 746T239 696L310 591Z" />
<glyph unicode="&#xef;" glyph-name="idieresis" horiz-adv-x="291" d="M212 427V87Q212 44 242 29Q211 -10 165 -10Q83 -10 83 90V430Q83 474 53 489Q82 527 129 527Q212 527 212 427ZM277 734T293 717T310 671T285 616T230 590T183 607T166 654T192 708T247
734ZM92 734T109 717T126 671T101 616T45 590T-1 607T-18 654T8 708T63 734Z" />
<glyph unicode="&#xf0;" glyph-name="eth" d="M312 58Q417 58 417 219Q417 238 416 259Q401 459 285 459Q180 459 180 299Q180 280 181 259Q195 58 312 58ZM189 572Q177 588 177 601T193 630T250 658L283 668Q242 715 204 747Q218 772 243 772Q299 772 372 694L503
733Q512 728 512 717Q518 695 500 680Q480 663 462 657T438 649T415 642Q473 564 510 465T548 280T525 137T464 48Q390 -10 299 -10Q190 -10 120 60T49 259T119 457T299 527Q342 527 381 506Q358 564 324 614L189 572Z" />
<glyph unicode="&#xf1;" glyph-name="ntilde" horiz-adv-x="620" d="M147 647Q147 687 178 716T251 746T337 719T406 691T445 706T462 748Q500 743 500 699T467 626T394 597T306 625T238 653T202 638T185 596Q170 597 159 609T147 647ZM542 350V87Q542 44 572
29Q541 -10 495 -10Q413 -10 413 90V334Q413 422 337 422Q298 422 262 388T212 293V87Q212 44 242 29Q211 -10 165 -10Q83 -10 83 90V430Q83 474 53 489Q82 527 129 527Q212 527 212 427V416Q238 468 286 497T397 527T501 482T542 350Z" />
<glyph unicode="&#xf2;" glyph-name="ograve" d="M353 741T376 759T435 778T488 747Q496 731 496 714T488 677Q478 680 461 680T419 660L333 586Q315 569 295 569Q271 569 260 591L327 698Q353 741 376 759ZM288 459Q179 459 179 291Q179 276 180 259Q191 58 310
58Q417 58 417 224Q417 240 416 259Q405 459 288 459ZM49 388T119 457T298 527T478 457T548 259T478 60T299 -10T120 60T49 259Z" />
<glyph unicode="&#xf3;" glyph-name="oacute" d="M288 459Q179 459 179 291Q179 276 180 259Q191 58 310 58Q417 58 417 224Q417 240 416 259Q405 459 288 459ZM49 388T119 457T298 527T478 457T548 259T478 60T299 -10T120 60T49 259ZM370 591Q359 569 338 569T296
585L206 655Q182 673 165 673T137 669Q128 689 128 706T136 738Q153 771 188 771T246 754T297 695L370 591Z" />
<glyph unicode="&#xf4;" glyph-name="ocircumflex" d="M210 586Q192 569 168 569T135 591L206 696Q229 731 248 746T298 761T348 746T391 696L462 591Q453 569 429 569T387 586L299 667L210 586ZM310 58Q417 58 417 224Q417 240 416 259Q405 459 288 459Q179 459
179 291Q179 276 180 259Q191 58 310 58ZM49 388T119 457T298 527T478 457T548 259T478 60T299 -10T120 60T49 259Z" />
<glyph unicode="&#xf5;" glyph-name="otilde" d="M276 746T321 719T390 691T429 706T446 748Q484 743 484 699T451 626T378 597T290 625T222 653T186 638T169 596Q154 597 143 609T131 647Q131 687 162 716T235 746ZM288 459Q179 459 179 291Q179 276 180 259Q191
58 310 58Q417 58 417 224Q417 240 416 259Q405 459 288 459ZM49 388T119 457T298 527T478 457T548 259T478 60T299 -10T120 60T49 259Z" />
<glyph unicode="&#xf6;" glyph-name="odieresis" d="M288 459Q179 459 179 291Q179 276 180 259Q191 58 310 58Q417 58 417 224Q417 240 416 259Q405 459 288 459ZM49 388T119 457T298 527T478 457T548 259T478 60T299 -10T120 60T49 259ZM429 734T445 717T462
671T437 616T382 590T335 607T318 654T344 708T399 734ZM244 734T261 717T278 671T253 616T197 590T151 607T134 654T160 708T215 734Z" />
<glyph unicode="&#xf7;" glyph-name="divide" horiz-adv-x="689" d="M167 464H637Q642 456 642 439Q642 355 523 355H55Q48 369 48 384Q48 464 167 464ZM392 291T412 271T432 217T403 153T338 123T284 143T264 197T294 261T358 291ZM392 699T412 679T432 625T403
561T338 531T284 551T264 605T294 669T358 699Z" />
<glyph unicode="&#xf8;" glyph-name="oslash" horiz-adv-x="671" d="M310 58Q417 58 417 224Q417 289 406 338L214 116Q247 58 310 58ZM288 459Q179 459 179 291Q179 221 191 178L384 399Q351 459 288 459ZM494 439Q548 369 548 250T478 60T299 -10Q210 -10 145
37L138 29Q103 -10 72 -10T35 19Q59 33 104 78Q49 147 49 267T119 457T299 527Q390 527 453 479L461 488Q494 527 526 527T564 498Q536 483 494 439Z" />
<glyph unicode="&#xf9;" glyph-name="ugrave" horiz-adv-x="620" d="M272 591L339 698Q365 741 388 759T447 778T500 747Q508 731 508 714T500 677Q490 680 473 680T431 660L345 586Q327 569 305 569T272 591ZM542 427V87Q542 44 572 29Q541 -10 495 -10Q418 -10
414 74Q361 -10 263 -10Q178 -10 131 34T83 167V430Q83 474 53 489Q82 527 129 527Q212 527 212 427V179Q212 91 300 91Q380 91 413 178V430Q413 474 383 489Q414 527 459 527Q542 527 542 427Z" />
<glyph unicode="&#xfa;" glyph-name="uacute" horiz-adv-x="620" d="M382 591Q371 569 350 569T308 585L218 655Q194 673 177 673T149 669Q140 689 140 706T148 738Q165 771 200 771T258 754T309 695L382 591ZM542 427V87Q542 44 572 29Q541 -10 495 -10Q418 -10
414 74Q361 -10 263 -10Q178 -10 131 34T83 167V430Q83 474 53 489Q82 527 129 527Q212 527 212 427V179Q212 91 300 91Q380 91 413 178V430Q413 474 383 489Q414 527 459 527Q542 527 542 427Z" />
<glyph unicode="&#xfb;" glyph-name="ucircumflex" horiz-adv-x="620" d="M222 586Q204 569 180 569T147 591L218 696Q241 731 260 746T310 761T360 746T403 696L474 591Q465 569 441 569T399 586L311 667L222 586ZM542 427V87Q542 44 572 29Q541 -10 495 -10Q418
-10 414 74Q361 -10 263 -10Q178 -10 131 34T83 167V430Q83 474 53 489Q82 527 129 527Q212 527 212 427V179Q212 91 300 91Q380 91 413 178V430Q413 474 383 489Q414 527 459 527Q542 527 542 427Z" />
<glyph unicode="&#xfc;" glyph-name="udieresis" horiz-adv-x="620" d="M474 641T449 616T394 590T347 607T330 654T356 708T411 734T457 717T474 671ZM290 641T265 616T209 590T163 607T146 654T172 708T227 734T273 717T290 671ZM542 427V87Q542 44 572 29Q541
-10 495 -10Q418 -10 414 74Q361 -10 263 -10Q178 -10 131 34T83 167V430Q83 474 53 489Q82 527 129 527Q212 527 212 427V179Q212 91 300 91Q380 91 413 178V430Q413 474 383 489Q414 527 459 527Q542 527 542 427Z" />
<glyph unicode="&#xfd;" glyph-name="yacute" horiz-adv-x="586" d="M368 591Q357 569 336 569T294 585L204 655Q180 673 163 673T135 669Q126 689 126 706T134 738Q151 771 186 771T244 754T295 695L368 591ZM433 425Q443 450 443 472T431 511Q457 527 495 527T556
492Q567 475 567 452T555 398L358 -128Q308 -261 209 -261Q167 -261 141 -239T115 -186T132 -132Q155 -153 184 -153Q232 -153 253 -94L282 -10Q279 -10 277 -10Q246 -10 219 14T179 81L67 421Q51 474 28 491Q62 527 102 527T164 505T200 433L309 67L433 425Z"
/>
<glyph unicode="&#xfe;" glyph-name="thorn" horiz-adv-x="611" d="M318 72Q366 72 401 123T437 258T402 388T318 435Q248 435 212 363V127Q252 72 318 72ZM212 675V459Q265 527 354 527T505 457T567 260T497 62T334 -10Q265 -10 212 34V-161Q212 -205 242 -220Q211
-259 165 -259Q83 -259 83 -159V678Q83 721 53 736Q82 775 129 775Q212 775 212 675Z" />
<glyph unicode="&#xff;" glyph-name="ydieresis" horiz-adv-x="586" d="M460 641T435 616T380 590T333 607T316 654T342 708T397 734T443 717T460 671ZM276 641T251 616T195 590T149 607T132 654T158 708T213 734T259 717T276 671ZM433 425Q443 450 443 472T431
511Q457 527 495 527T556 492Q567 475 567 452T555 398L358 -128Q308 -261 209 -261Q167 -261 141 -239T115 -186T132 -132Q155 -153 184 -153Q232 -153 253 -94L282 -10Q279 -10 277 -10Q246 -10 219 14T179 81L67 421Q51 474 28 491Q62 527 102 527T164 505T200
433L309 67L433 425Z" />
<glyph unicode="&#x2013;" glyph-name="endash" horiz-adv-x="741" d="M179 402H676Q681 392 681 376Q681 292 563 292H67Q60 306 60 322Q60 402 179 402Z" />
<glyph unicode="&#x2014;" glyph-name="emdash" horiz-adv-x="1051" d="M179 402H986Q991 392 991 376Q991 292 873 292H67Q60 306 60 322Q60 402 179 402Z" />
<glyph unicode="&#x2018;" glyph-name="quoteleft" horiz-adv-x="302" d="M174 775Q174 740 191 711T241 671Q235 644 213 626T153 608T88 639T60 719Q60 798 109 857T203 917Q227 917 233 891Q174 848 174 775Z" />
<glyph unicode="&#x2019;" glyph-name="quoteright" horiz-adv-x="302" d="M128 754Q128 790 111 819T60 859Q67 885 89 903T149 922T214 891T241 811Q241 732 192 673T99 613Q74 613 69 639Q128 681 128 754Z" />
<glyph unicode="&#x201a;" glyph-name="quotesinglbase" horiz-adv-x="720" d="M148 -126T148 -45T79 71Q87 101 110 122T171 143T237 106T265 9Q265 -74 216 -139T115 -205Q88 -205 81 -177Q148 -126 148 -45Z" />
<glyph unicode="&#x201c;" glyph-name="quotedblleft" horiz-adv-x="527" d="M336 775Q336 740 353 711T403 671Q397 644 375 626T323 608T270 621Q249 608 222 608Q179 608 152 639T124 719Q124 798 173 857T267 917Q293 917 297 891Q255 860 242 811Q264 857
300 887T362 917T395 891Q336 849 336 775Z" />
<glyph unicode="&#x201d;" glyph-name="quotedblright" horiz-adv-x="527" d="M128 749Q128 785 111 814T60 854Q67 880 89 898T148 917T213 885T241 805Q241 726 192 667T99 608Q75 608 69 633Q128 677 128 749ZM353 749Q353 785 336 813T286 854Q293 880 315
898T374 917T439 885T467 805Q467 726 418 667T325 608Q300 608 294 633Q353 676 353 749Z" />
<glyph unicode="&#x201e;" glyph-name="quotedblbase" horiz-adv-x="720" d="M148 -126T148 -45T79 71Q87 101 110 122T171 143T237 106T265 9Q265 -74 216 -139T115 -205Q88 -205 81 -177Q148 -126 148 -45Z" />
<glyph unicode="&#x2022;" glyph-name="bullet" horiz-adv-x="488" d="M317 551T349 517T382 426T333 319T226 270T134 304T101 394T152 501T260 551Z" />
<glyph unicode="&#x2039;" glyph-name="guilsinglleft" horiz-adv-x="362" d="M181 445T181 404T209 314T310 175Q301 154 278 154Q233 154 143 252T52 404Q52 440 96 501T194 608T275 655T310 634Q237 542 209 494Z" />
<glyph unicode="&#x203a;" glyph-name="guilsinglright" horiz-adv-x="362" d="M310 404Q310 350 220 252T84 154Q72 154 63 161T52 175Q124 264 152 313T180 404T152 494T52 634Q54 641 63 648T84 655Q113 655 167 609T266 501T310 404Z" />
</font>
</defs>
</svg>
