<?xml version="1.0" standalone="no"?>
<!DOCTYPE svg PUBLIC "-//W3C//DTD SVG 1.1//EN" "http://www.w3.org/Graphics/SVG/1.1/DTD/svg11.dtd">
<svg xmlns="http://www.w3.org/2000/svg">
<defs >
<font id="Englebert" horiz-adv-x="787" ><font-face
    font-family="Englebert"
    units-per-em="2048"
    panose-1="2 0 5 6 0 0 0 2 0 4"
    ascent="954"
    descent="-311"
    alphabetic="0" />
<glyph unicode=" " glyph-name="space" horiz-adv-x="471" />
<glyph unicode="!" glyph-name="exclam" horiz-adv-x="401" d="M305 1466Q296 1301 289 1141T276 820T266 499T258 172L139 174Q138 338 136 496T129 811T117 1126T98 1448L305 1466ZM279 4Q279 -13 272 -28T254 -54T227 -73T193 -80Q157 -80 133 -55T109 4Q109
39 133 64T193 90Q211 90 226 83T253 65T272 38T279 4Z" />
<glyph unicode="&quot;" glyph-name="quotedbl" horiz-adv-x="524" d="M203 940H106L63 1460H231L203 940ZM412 940H299V1440H467L412 940Z" />
<glyph unicode="#" glyph-name="numbersign" horiz-adv-x="786" d="M80 768V897H715V762L80 768ZM68 508V637H711V500L68 508ZM453 1163H561V256H442L453 1163ZM219 1159H324V254H219V1159Z" />
<glyph unicode="$" glyph-name="dollar" horiz-adv-x="686" d="M487 782V819Q487 853 478 882T451 934T408 970T352 983Q283 983 241 949T199 848Q199 829 209 809T238 771T286 740T352 719Q427 705 476 679T553 622T593 557T604 494Q604 466 594 428T555 354T471
293T330 268Q325 268 305 269T258 279T199 305T139 352T89 429T59 543L197 551Q204 489 227 456T276 408T323 390T350 387Q377 388 399 397T437 419T462 450T471 485Q471 516 439 544T322 592Q248 609 198 640T117 707T73 780T59 848Q59 892 74 938T124 1023T215
1087T356 1112Q434 1107 496 1076Q522 1063 547 1043T593 993T625 925T637 834Q637 827 635 811T631 776L487 782ZM387 1030H262V1372H401L387 1030ZM276 61V356H391V61H276Z" />
<glyph unicode="%" glyph-name="percent" horiz-adv-x="1145" d="M506 936Q506 868 488 808T438 704T365 634T279 608Q234 608 193 633T120 703T70 808T51 936Q51 1105 108 1184T279 1264Q397 1264 451 1185T506 936ZM379 936Q379 1002 373 1047T355 1121T323
1163T279 1176Q255 1176 237 1163T206 1119T187 1042T180 926Q180 879 186 838T206 765T237 715T279 696Q302 696 320 715T352 767T372 843T379 936ZM1096 492Q1096 423 1078 363T1028 258T955 188T868 162Q823 162 782 187T710 257T660 362T641 492Q641 660 698
739T868 819Q986 819 1041 740T1096 492ZM969 492Q969 557 963 602T944 676T912 716T868 729Q844 729 826 716T796 674T777 597T770 481Q770 433 776 391T796 318T827 268T868 250Q891 250 910 269T942 321T962 398T969 492ZM358 135L250 152L776 1331L895 1292L358
135Z" />
<glyph unicode="&amp;" glyph-name="ampersand" horiz-adv-x="991" d="M979 106V104Q979 99 958 82T911 45Q881 22 844 -4Q671 127 535 302Q477 377 422 468T324 668T254 901T227 1165Q227 1207 235 1259T269 1357T340 1434T461 1466Q521 1466 564 1449T634 1402T675
1332T688 1243Q688 1167 667 1106T612 993T533 896T443 805T352 713T274 611T218 489T197 340Q197 291 214 250T260 178T329 132T414 115Q460 115 508 153T597 266T662 455T688 719L866 725Q855 512 800 345Q776 274 740 206T652 84T530 -2T369 -35Q281 -35 217
-2T111 82T49 195T29 315Q29 389 51 453T109 576T190 687T284 790T377 891T459 994T517 1103T539 1223Q539 1278 515 1302T459 1327Q439 1327 421 1316T389 1282T367 1230T358 1161Q358 1129 365 1064T393 911T456 721T567 511T737 300T979 106Z" />
<glyph unicode="&apos;" glyph-name="quotesingle" horiz-adv-x="289" d="M203 940H106L63 1460H203V940Z" />
<glyph unicode="(" glyph-name="parenleft" horiz-adv-x="500" d="M489 1540Q416 1472 365 1378T280 1178T232 959T217 745Q217 681 225 604T249 443T288 273T343 107T414 -45T500 -172L422 -246Q358 -192 306 -117T212 44T141 223T90 408T61 584T51 739Q51 858
73 983T141 1227T255 1448T416 1626L489 1540Z" />
<glyph unicode=")" glyph-name="parenright" horiz-adv-x="500" d="M84 1626Q176 1551 244 1448T358 1227T426 984T449 739Q449 669 440 585T410 409T360 224T288 44T195 -117T78 -246L0 -172Q46 -117 85 -46T156 106T211 273T251 442T275 603T283 745Q283 847
268 959T220 1177T135 1378T10 1540L84 1626Z" />
<glyph unicode="*" glyph-name="asterisk" horiz-adv-x="741" d="M680 1188L352 1034L59 1149L141 1296L360 1122L594 1343L680 1188ZM668 930L559 778L360 1024L223 743L76 852L317 1098L293 1464H457L414 1106L668 930Z" />
<glyph unicode="+" glyph-name="plus" horiz-adv-x="780" d="M66 567V717H717V592L66 567ZM305 977H455V326H305V977Z" />
<glyph unicode="," glyph-name="comma" horiz-adv-x="309" d="M246 98Q246 62 237 26T208 -40T161 -92T94 -123L68 -92Q94 -78 114 -52T137 6Q103 11 81 37T59 98Q59 118 66 135T87 165T117 185T154 193Q173 193 190 186T219 166T239 136T246 98Z" />
<glyph unicode="-" glyph-name="hyphen" horiz-adv-x="840" d="M94 567V717H745V567H94Z" />
<glyph unicode="." glyph-name="period" horiz-adv-x="293" d="M236 94Q236 76 229 60T210 32T181 13T147 6Q110 6 85 31T59 94Q59 112 66 127T85 154T113 173T147 180Q165 180 181 173T209 155T229 128T236 94Z" />
<glyph unicode="/" glyph-name="slash" horiz-adv-x="815" d="M160 -12L37 14L602 1460L780 1421L160 -12Z" />
<glyph unicode="0" glyph-name="zero" horiz-adv-x="1016" d="M942 721Q942 614 926 515T881 330T811 174T723 53T620 -25T508 -53Q451 -53 397 -26T295 52T206 173T136 330T91 515T74 721Q74 920 101 1066T182 1307T318 1449T508 1495Q622 1495 704 1450T839
1311T917 1070T942 721ZM754 721Q754 899 739 1022T693 1221T616 1332T508 1366Q449 1366 404 1331T327 1217T280 1010T264 698Q264 568 281 455T329 257T406 125T508 76Q565 76 610 126T688 265T737 470T754 721Z" />
<glyph unicode="1" glyph-name="one" horiz-adv-x="557" d="M440 1481V-10H260V1364L285 1321L117 1149L8 1286L238 1499L440 1481Z" />
<glyph unicode="2" glyph-name="two" horiz-adv-x="891" d="M817 915Q774 775 690 629Q654 567 607 498T497 356T357 211T186 70L219 141H793V23H104L96 143Q184 228 254 308T379 463T474 604T543 728Q610 861 637 973Q642 1010 644 1043T647 1108Q647 1199 628
1259T578 1355T509 1406T432 1421Q391 1421 356 1398T294 1333T253 1229T238 1090Q238 1045 243 995T260 891L100 860Q76 938 68 1006T59 1126Q59 1204 81 1275T147 1401T259 1489T418 1522Q509 1522 585 1496T715 1414T799 1275T829 1073Q829 1002 817 915Z" />
<glyph unicode="3" glyph-name="three" horiz-adv-x="911" d="M850 1018Q850 1016 848 990T836 926T805 843T747 760T652 697T512 672L518 715Q584 692 632 661T712 594T765 520T795 445T809 378T813 324Q813 314 813 307T812 294Q811 288 811 283Q796 180 756
116T662 15T551 -34T440 -47Q417 -47 396 -46T358 -41Q315 -33 267 2T179 99T111 244T84 432Q84 460 85 488T92 547L279 532Q271 487 268 448T264 375Q264 300 276 248T308 161T351 107T394 77T430 65T449 63Q486 63 517 84T570 140T604 222T616 319Q616 371 601
424T554 522T471 601T346 649V754Q380 748 412 748Q459 748 495 761T557 797T603 849T634 908Q663 978 668 1069Q666 1132 649 1186T603 1280T538 1343T457 1366Q413 1366 378 1345T317 1285T278 1191T264 1065Q264 1031 267 995T279 918L88 887Q77 927 74 965T70
1038Q70 1162 104 1248T193 1390T319 1470T463 1495Q504 1495 548 1487T636 1459T718 1405T786 1317T832 1191T850 1018Z" />
<glyph unicode="4" glyph-name="four" horiz-adv-x="862" d="M791 563H37L180 1403L365 1386L193 618L162 700H791V563ZM737 1503V-10H547V1503H737Z" />
<glyph unicode="5" glyph-name="five" horiz-adv-x="870" d="M809 369Q801 235 762 152T668 21T547 -42T422 -59Q366 -59 303 -37T186 39T97 183T61 408Q61 439 63 470T70 537L244 543Q239 501 236 465T233 397Q233 313 246 256T280 162T325 104T372 74T411 63T434
61Q477 61 515 87T581 162T625 276T641 424Q641 523 620 589T567 696T495 753T418 770Q378 768 338 761Q304 755 267 742T203 707L109 750L152 1413H748V1253H217L295 1319L238 801L178 827Q209 853 250 867T330 889T400 897T442 899Q514 899 580 870T698 781T780
633T811 426Q811 412 810 398T809 369Z" />
<glyph unicode="6" glyph-name="six" horiz-adv-x="956" d="M895 494Q895 375 869 277T793 109T669 1T498 -37Q388 -37 308 19T176 178T99 421T74 733Q74 834 85 929T120 1109T179 1263T263 1383T371 1461T506 1489Q522 1489 551 1486T616 1473T689 1443T760 1388T819
1303T856 1180L674 1149Q662 1227 636 1270T581 1334T529 1359T496 1364Q475 1364 448 1355T393 1320T338 1248T289 1125T255 939T242 678Q242 531 263 422T321 239T405 129T504 92Q541 92 579 114T648 183T698 298T717 463Q717 495 712 533T695 610T666 684T624
748T570 792T502 809Q439 801 390 746Q369 722 349 686T314 597T289 473T279 307L203 545Q212 615 229 670T267 767T314 839T364 889Q422 937 489 950Q500 952 511 952T535 952Q601 952 664 925T778 841T860 698T895 494Z" />
<glyph unicode="7" glyph-name="seven" horiz-adv-x="737" d="M713 1276Q644 1128 584 970T476 651T394 326T342 6L139 -2Q172 177 219 347T326 685T454 1023T602 1370L623 1280H25L39 1430H684L713 1276Z" />
<glyph unicode="8" glyph-name="eight" horiz-adv-x="948" d="M903 444Q903 352 882 281T826 155T747 64T655 3T562 -30T479 -41Q440 -41 394 -35T301 -10T210 43T132 134T78 270T57 463Q57 476 59 509T72 586T103 678T160 767T252 836T387 870L391 813Q341 815
303 830T237 870T190 925T157 988Q127 1062 123 1155Q123 1238 154 1300T234 1403T345 1466T467 1487Q537 1487 597 1460T703 1386T773 1274T799 1135Q790 1059 763 992Q751 963 734 934T694 879T641 831T571 797L580 860Q639 851 684 828T764 775T821 708T860
634Q896 548 903 444ZM631 1130Q631 1192 617 1238T578 1314T524 1359T463 1374Q432 1374 402 1362T348 1320T310 1245T295 1130Q295 1076 309 1032T348 955T402 905T463 887Q494 887 524 903T578 951T616 1027T631 1130ZM711 412Q711 526 690 595T636 703T561
753T481 766Q442 766 400 752T323 699T265 591T242 412Q242 324 264 258T322 148T400 81T481 59Q520 59 561 77T635 136T690 245T711 412Z" />
<glyph unicode="9" glyph-name="nine" horiz-adv-x="952" d="M879 774Q879 668 870 567T839 375T784 210T702 79T592 -6T449 -37Q432 -37 403 -34T339 -21T265 9T194 63T136 149T100 274L281 303Q292 224 318 181T372 117T425 92T459 88Q480 88 507 97T563 133T618
207T666 331T700 516T713 776Q713 922 692 1031T634 1214T551 1323T453 1360Q414 1360 376 1338T307 1271T257 1155T238 989Q238 957 243 919T260 843T289 769T330 706T384 662T453 645Q515 652 564 707Q585 730 605 766T641 855T666 979T676 1145L754 907Q745
836 728 782T688 686T641 614T591 564Q533 516 465 502Q454 500 444 500T422 500Q355 500 290 528T174 616T91 765T59 979Q59 1092 86 1186T165 1348T290 1453T455 1491Q561 1491 639 1439T768 1293T847 1067T879 774Z" />
<glyph unicode=":" glyph-name="colon" horiz-adv-x="365" d="M270 94Q270 76 263 60T244 32T216 13T182 6Q145 6 120 31T94 94Q94 112 101 127T120 154T148 173T182 180Q200 180 216 173T244 155T263 128T270 94ZM270 930Q270 912 263 896T244 868T216 849T182
842Q145 842 120 867T94 930Q94 948 101 963T120 990T148 1009T182 1016Q200 1016 216 1009T244 991T263 964T270 930Z" />
<glyph unicode=";" glyph-name="semicolon" horiz-adv-x="385" d="M274 930Q274 912 267 896T248 868T220 849T186 842Q149 842 124 867T98 930Q98 948 105 963T124 990T152 1009T186 1016Q204 1016 220 1009T248 991T267 964T274 930ZM285 98Q285 62 276 26T247
-40T199 -92T133 -123L106 -92Q132 -78 153 -52T176 6Q142 11 120 37T98 98Q98 118 105 135T126 165T156 185T193 193Q212 193 229 186T258 166T278 136T285 98Z" />
<glyph unicode="&lt;" glyph-name="less" horiz-adv-x="633" d="M508 244L59 532L49 700L469 1044L541 877L160 631L563 426L508 244Z" />
<glyph unicode="=" glyph-name="equal" horiz-adv-x="852" d="M100 776V926H752V801L100 776ZM100 485V643H752V485H100Z" />
<glyph unicode="&gt;" glyph-name="greater" horiz-adv-x="637" d="M162 244L90 412L471 657L68 862L125 1044L582 756V588L162 244Z" />
<glyph unicode="?" glyph-name="question" horiz-adv-x="887" d="M483 4Q483 -13 476 -28T458 -54T431 -73T397 -80Q379 -80 364 -73T338 -55T320 -28T313 4Q313 39 337 64T397 90Q415 90 430 83T457 65T476 38T483 4ZM328 186Q328 293 352 374T413 523T492 650T571
774T632 912T657 1083Q657 1144 644 1202T604 1307T538 1382T446 1411Q403 1411 364 1393T296 1337T249 1246T231 1120Q231 1085 235 1046T250 963L80 938Q66 980 59 1019T49 1087Q45 1121 45 1151Q45 1176 50 1213T71 1291T113 1374T183 1448T288 1504T434 1528Q514
1528 575 1508T682 1454T757 1375T806 1278T832 1172T840 1067Q840 991 824 931T780 819T719 722T648 632T577 543T515 444T472 329T455 188L328 186Z" />
<glyph unicode="@" glyph-name="at" horiz-adv-x="1253" d="M881 313Q881 289 886 276T900 255T917 246T932 244Q963 244 985 265T1023 320T1048 395T1063 476T1071 551T1073 606Q1073 721 1042 808T955 955T818 1045T641 1075Q554 1075 489 1051T377 985T298
887T249 766T223 632T215 494Q215 407 233 324T291 177T391 73T537 33Q568 33 596 40T653 61L702 -18Q656 -44 605 -60T500 -76Q402 -76 324 -27T191 104T107 287T78 496Q78 587 87 674T121 840T185 983T288 1096T435 1169T635 1196Q915 1196 1056 1048T1198 621Q1198
576 1194 524T1180 421T1150 322T1101 238T1027 180T924 158Q901 158 876 166T830 190T794 233T780 295Q781 347 782 384T783 453T784 520T784 600Q784 655 772 691T741 747T697 776T649 784Q642 784 624 781T584 763T544 721T518 645L399 684Q410 733 431 767T479
824T533 860T584 879T624 887T645 889Q708 889 755 868T833 807T879 711T895 584L881 313ZM610 301Q636 304 667 317Q693 328 727 351T799 416Q766 451 735 469T679 496Q650 506 625 508Q591 508 567 499T527 475T504 439T496 397Q496 354 527 328T610 301ZM813
414L831 332Q812 300 785 275T727 233T661 207T594 197Q551 197 512 209T442 245T393 308T375 397Q375 442 392 481T442 549T519 596T618 614Q621 614 646 612T706 600T777 566T838 502L813 414Z" />
<glyph unicode="A" glyph-name="A" horiz-adv-x="897" d="M694 -14L645 254Q597 256 550 257T455 258Q404 258 352 257T248 254Q235 186 224 120T201 -12L14 -14Q58 163 96 343T171 704T242 1066T313 1425L571 1430Q643 1069 722 705T895 -14H694ZM449 1247Q401
1036 358 824T274 397Q318 395 361 396T449 397Q492 397 533 396T616 397Q576 612 535 824T449 1247Z" />
<glyph unicode="B" glyph-name="B" horiz-adv-x="926" d="M883 983Q875 903 837 826Q821 793 797 758T738 687T657 620T551 559Q618 551 665 529T743 478T791 418T817 359T827 311T829 287Q829 225 806 179T747 98T664 40T572 3T484 -17T414 -23Q407 -23 383 -22T320
-17T228 -4T111 20V1413Q151 1431 197 1441T288 1457T372 1464T436 1466Q527 1466 608 1441T751 1358T847 1209T883 983ZM688 1018Q685 1109 653 1180Q639 1210 619 1239T567 1292T495 1329T399 1343Q376 1343 352 1341T299 1333V537Q371 553 426 582T522 648T591
727T638 810Q681 906 688 1018ZM418 471Q390 471 361 469T299 461V102Q328 96 360 92T424 88Q471 88 514 98T592 133T646 199T666 303Q662 350 635 387Q623 403 606 418T562 445T500 464T418 471Z" />
<glyph unicode="C" glyph-name="C" horiz-adv-x="1004" d="M797 965Q797 1057 781 1120T741 1225T688 1288T634 1321T593 1333T575 1335Q506 1335 449 1298T352 1184T289 992T266 721Q266 566 286 449T344 253T433 134T551 94Q600 98 642 130Q660 143 678 164T713
216T744 288T766 385L926 373Q915 298 893 241T843 141T782 69T717 21Q641 -23 553 -29Q436 -29 345 18T191 159T96 392T63 713Q63 1092 192 1285T590 1479Q593 1479 610 1478T655 1471T716 1453T785 1416T853 1356T912 1267T953 1141T969 975L797 965Z" />
<glyph unicode="D" glyph-name="D" horiz-adv-x="985" d="M942 733Q935 606 902 500T819 310T704 162T572 56T434 -8T303 -29Q252 -28 210 -23Q192 -21 174 -18T141 -10T113 1T96 16L125 1438Q145 1451 171 1459T227 1472T287 1479T344 1481Q405 1481 473 1470T609
1429T736 1352T843 1228T916 1050T944 809Q944 790 944 772T942 733ZM741 756Q741 761 741 789T738 861T725 957T698 1066T652 1173T582 1266T481 1332T346 1358L256 78Q301 82 352 97T453 143T551 223T637 347T703 522T741 756Z" />
<glyph unicode="E" glyph-name="E" horiz-adv-x="874" d="M836 1423V1286H287V676H721V528H281V166H813V8H111V1423H836Z" />
<glyph unicode="F" glyph-name="F" horiz-adv-x="846" d="M817 1421V1284H279V676H713V528H270V6H111V1421H817Z" />
<glyph unicode="G" glyph-name="G" horiz-adv-x="1001" d="M780 950Q780 1043 764 1106T724 1211T672 1274T620 1307T580 1319T563 1321Q495 1321 440 1283T346 1169T286 977T264 707Q264 552 283 435T338 238T425 120T539 80Q541 80 558 82T598 95T649 130T701
200T743 314T766 485Q689 479 615 468T467 440V602Q605 596 741 596Q789 596 836 596T932 598Q932 478 916 387T873 228T812 114T741 37T671 -9T608 -32T563 -41T543 -43Q429 -43 340 4T190 145T98 377T66 698Q66 895 97 1039T191 1277T350 1418T578 1464Q581 1464
610 1462T680 1445T767 1401T853 1314T919 1171T946 958L780 950Z" />
<glyph unicode="H" glyph-name="H" horiz-adv-x="967" d="M317 1432Q293 997 281 569L670 580Q676 1012 676 1448L901 1446Q872 1090 849 732T813 16H657L666 418H276Q270 218 270 20L115 18Q115 376 112 728T102 1436L317 1432Z" />
<glyph unicode="I" glyph-name="I" horiz-adv-x="549" d="M485 16H47L49 172Q81 170 113 169T176 168Q181 369 183 570T186 975Q186 1055 186 1135T184 1296L57 1278L47 1458Q107 1456 167 1456T287 1456Q346 1456 404 1456T522 1458L520 1327Q486 1325 453 1323T385
1317Q363 1028 346 743T315 168Q359 168 400 170T485 178V16Z" />
<glyph unicode="J" glyph-name="J" horiz-adv-x="958" d="M868 629Q854 459 821 336T732 132T595 12T403 -27Q308 -27 240 8T127 110T58 274T27 496L242 504Q243 388 253 310T284 185T337 117T416 96Q475 96 520 136T595 265T641 499T657 850Q657 907 656 975T651
1118T640 1269T623 1421L850 1448Q865 1280 871 1140T877 893Q877 830 876 782T872 699Q870 659 868 629Z" />
<glyph unicode="K" glyph-name="K" horiz-adv-x="918" d="M356 1427Q336 1213 321 1002T295 578Q428 764 525 982T686 1438L920 1421Q848 1244 765 1080T580 760L879 -8H653L494 637Q444 568 393 502T287 371Q282 274 280 177T276 -18H106Q108 112 109 241T111
500Q111 733 108 962T98 1425L356 1427Z" />
<glyph unicode="L" glyph-name="L" horiz-adv-x="762" d="M743 10L111 -12Q113 108 114 228T115 469Q115 712 111 951T98 1434L338 1444Q327 1259 319 1095T304 777T292 472T283 164Q335 161 388 161T494 160Q617 160 743 166V10Z" />
<glyph unicode="M" glyph-name="M" horiz-adv-x="1130" d="M1022 14H936L846 1106L680 113H489L344 1083L217 25L55 35L184 1452H465L598 430L743 1456H1022V14Z" />
<glyph unicode="N" glyph-name="N" horiz-adv-x="983" d="M924 1427Q883 1070 861 715T831 -2H672L297 995Q273 499 270 2L109 0Q111 106 111 212T111 426Q111 922 96 1417L319 1413L676 338Q680 418 683 513T688 713T692 926T694 1141Q694 1216 693 1288T690
1430L924 1427Z" />
<glyph unicode="O" glyph-name="O" horiz-adv-x="967" d="M905 766Q905 658 891 556T850 361T784 192T697 60T590 -27T465 -59Q398 -59 343 -28T243 59T165 192T109 361T75 555T63 766Q63 926 88 1059T165 1289T296 1438T485 1491Q600 1491 680 1438T810 1289T882
1060T905 766ZM719 758Q719 891 707 1002T666 1192T594 1316T485 1360Q425 1360 381 1316T307 1193T264 1002T250 758Q250 623 264 499T306 280T376 127T473 70Q528 70 573 127T651 279T701 499T719 758Z" />
<glyph unicode="P" glyph-name="P" horiz-adv-x="963" d="M934 987Q930 903 901 832T825 703T717 601T589 527T450 482T313 467Q301 467 289 467T264 469Q258 350 255 233T248 -4H98Q104 204 108 410T113 827Q113 979 110 1128T102 1430Q150 1449 203 1460T305
1478T397 1485T465 1487Q560 1487 645 1461T795 1376T896 1221T934 987ZM315 1346Q300 1154 289 964T268 584H270Q380 584 456 614T583 689T662 786T703 885T720 962T723 995Q723 1006 721 1037T710 1108T683 1193T631 1273T548 1334T426 1358Q376 1358 315 1346Z"
/>
<glyph unicode="Q" glyph-name="Q" horiz-adv-x="967" d="M684 -430Q606 -350 557 -257T489 -57Q483 -57 477 -58T465 -59Q398 -59 343 -28T243 59T165 192T109 361T75 555T63 766Q63 926 88 1059T165 1289T296 1438T485 1491Q600 1491 680 1438T810 1289T882
1060T905 766Q905 632 883 507T821 276T723 92T594 -25Q626 -114 684 -186T825 -319L684 -430ZM719 758Q719 891 707 1002T666 1192T594 1316T485 1360Q425 1360 381 1316T307 1193T264 1002T250 758Q250 623 264 499T306 280T376 127T473 70Q528 70 573 127T651
279T701 499T719 758Z" />
<glyph unicode="R" glyph-name="R" horiz-adv-x="965" d="M580 -12L410 473Q360 467 313 467Q301 467 289 467T264 469Q258 350 255 233T248 -4H98Q104 204 108 410T113 827Q113 979 110 1128T102 1430Q150 1449 203 1460T305 1478T397 1485T465 1487Q560 1487
645 1461T795 1376T896 1221T934 987Q929 895 895 819T806 682T682 577T537 506Q592 379 656 255T793 6L580 -12ZM315 1346Q300 1154 289 964T268 584H270Q380 584 456 614T583 689T662 786T703 885T720 962T723 995Q723 1006 721 1037T710 1108T683 1193T631 1273T548
1334T426 1358Q376 1358 315 1346Z" />
<glyph unicode="S" glyph-name="S" horiz-adv-x="948" d="M913 1151Q912 1121 908 1087Q904 1058 898 1019T877 938L692 963Q703 1006 708 1045T713 1120Q713 1192 694 1246T643 1337T569 1392T479 1411Q423 1411 381 1383T309 1308T265 1203T250 1083Q250 1023
270 969T326 866T409 775T510 698Q603 638 667 587T772 488T830 391T848 289Q848 230 829 174T766 75T655 6T487 -20Q391 -20 314 10T182 95T98 223T68 387L256 379Q256 281 279 223T336 135T406 97T469 88Q499 88 533 97T597 129T646 188T666 279Q666 335 640
381T570 469T472 548T360 626T247 710T149 806T80 923T53 1067Q53 1118 61 1172T89 1277T141 1374T223 1454T338 1508T492 1528Q583 1526 650 1504T764 1449T840 1374T885 1292T907 1213T913 1151Z" />
<glyph unicode="T" glyph-name="T" horiz-adv-x="741" d="M729 1430L715 1290H401V10H268V1290H23V1434L729 1430Z" />
<glyph unicode="U" glyph-name="U" horiz-adv-x="975" d="M883 643Q870 474 839 351T755 147T624 27T440 -12Q332 -12 262 35T150 170T93 387T76 678Q79 801 91 933Q96 989 103 1052T121 1182T146 1317T178 1452L383 1421Q346 1238 326 1096T297 846T287 663T285
537Q285 415 294 334T323 203T376 132T453 111Q499 111 540 138T613 225T663 378T682 606Q682 693 683 794T682 1003T673 1221T649 1436L866 1462Q880 1298 885 1161T891 918Q891 852 890 802T887 716Q885 675 883 643Z" />
<glyph unicode="V" glyph-name="V" horiz-adv-x="895" d="M895 1430Q802 1074 723 720T571 6L313 8Q277 187 242 365T171 721T97 1076T14 1430L201 1425Q255 1115 316 808T449 186Q515 498 575 806T694 1430H895Z" />
<glyph unicode="W" glyph-name="W" horiz-adv-x="1153" d="M1108 1462L946 10H729L573 1100L451 14H211L41 1438H244L334 184L475 1360H666L831 219L901 1462H1108Z" />
<glyph unicode="X" glyph-name="X" horiz-adv-x="872" d="M645 -16Q588 120 532 254T416 524Q347 390 280 258T147 -8L0 4Q84 184 167 360T332 717Q253 894 175 1069T18 1421L252 1430Q297 1308 342 1187T434 944Q491 1069 545 1194T653 1446L897 1434Q803 1256
709 1081T520 725Q592 542 665 362T813 0L645 -16Z" />
<glyph unicode="Y" glyph-name="Y" horiz-adv-x="885" d="M893 1442Q812 1205 725 976T539 518L508 -4H365L350 508Q250 732 164 959T0 1425L231 1438Q278 1232 328 1031T438 627Q504 831 561 1032T666 1442H893Z" />
<glyph unicode="Z" glyph-name="Z" horiz-adv-x="854" d="M838 1446L834 1290Q674 1012 534 730T256 160Q322 157 385 155T511 152T637 151T768 150L770 0H37L20 127Q99 271 179 415T338 703T493 993T641 1286Q499 1284 357 1280T70 1264L66 1446H838Z" />
<glyph unicode="[" glyph-name="bracketleft" horiz-adv-x="545" d="M537 1524H262V-59H508L504 -199Q429 -200 357 -201Q295 -202 228 -202T111 -205L137 1649H545L537 1524Z" />
<glyph unicode="\" glyph-name="backslash" horiz-adv-x="815" d="M213 1460L778 14L655 -12L35 1421L213 1460Z" />
<glyph unicode="]" glyph-name="bracketright" horiz-adv-x="545" d="M0 1636H408L434 -205Q383 -203 317 -203T188 -201Q116 -200 41 -199L37 -72H254V1511H8L0 1636Z" />
<glyph unicode="^" glyph-name="asciicircum" horiz-adv-x="420" d="M299 989L180 1372H231L125 985L0 1028L154 1440H266L420 1022L299 989Z" />
<glyph unicode="_" glyph-name="underscore" horiz-adv-x="840" d="M94 -299V-150H745V-299H94Z" />
<glyph unicode="`" glyph-name="grave" horiz-adv-x="379" d="M307 1128L0 1356L117 1470L379 1198L307 1128Z" />
<glyph unicode="a" glyph-name="a" horiz-adv-x="975" d="M885 561Q883 460 879 360Q877 317 875 270T871 176T865 82T858 -4L721 0Q723 29 724 57T725 113Q680 65 630 38T535 -3Q483 -20 432 -25Q421 -27 412 -27T391 -27Q321 -27 257 -8T144 52T65 152T35 295Q35
367 63 430T143 541T268 617T430 647Q433 647 464 645T539 633T635 600T731 537Q731 582 729 632T720 730T696 823T653 900T583 953T481 973Q434 973 395 955T326 906T276 833T246 741L78 795Q90 852 112 896T163 973T224 1029T289 1069Q364 1106 451 1114Q571
1114 654 1078T788 972T862 799T885 561ZM729 283Q729 303 730 322T731 360Q678 414 627 442T533 484Q485 500 440 502Q378 502 334 485T261 438T219 372T205 295Q205 254 220 221T262 165T329 130T418 117Q466 121 518 139Q563 155 617 188T729 283Z" />
<glyph unicode="b" glyph-name="b" horiz-adv-x="1032" d="M977 602Q977 536 968 465T939 324T885 191T803 81T687 5T535 -23Q470 -23 412 -13T303 24T214 96T146 210T103 375T88 600L109 1444H270L248 940Q272 976 298 1003T350 1049T403 1082T452 1105Q507 1125
561 1128Q676 1126 755 1088T884 982T955 817T977 602ZM825 516Q825 554 823 602T813 700T788 798T742 883T668 944T561 967Q514 966 472 946T394 893T329 818T280 730T249 639T238 553Q238 451 251 371T298 236T389 152T535 123Q592 123 635 142T710 192T763 265T798
349T818 436T825 516Z" />
<glyph unicode="c" glyph-name="c" horiz-adv-x="948" d="M772 668Q768 725 753 768T717 843T669 897T615 933Q552 966 473 971Q414 971 371 952T299 901T251 826T223 738T210 645T207 557Q207 516 215 468T239 372T280 280T335 201T407 146T494 125Q552 130 607
158Q630 170 654 187T701 231T744 291T778 371L909 307Q894 254 869 212T812 139T745 84T675 45Q593 8 500 -4Q492 -4 485 -5T469 -6Q398 -6 340 17T235 82T154 179T98 300T64 437T53 580Q53 687 77 784T153 954T283 1071T471 1114Q555 1114 620 1094T733 1039T813
962T867 874T899 785T913 707L772 668Z" />
<glyph unicode="d" glyph-name="d" horiz-adv-x="1042" d="M932 1444V18H795V174Q775 138 752 111T703 64T653 31T603 8Q548 -13 489 -16Q396 -16 316 25T178 142T86 326T53 569Q53 683 78 784T152 961T270 1081T428 1126Q502 1123 570 1099Q599 1089 629 1073T689
1034T743 979T788 907V1438L932 1444ZM780 545Q777 628 761 692T719 805T662 885T597 938T531 966T471 975Q400 975 349 943T265 853T217 714T201 535Q201 419 231 339T307 209T406 137T506 115Q556 115 605 139T693 216T756 350T780 545Z" />
<glyph unicode="e" glyph-name="e" horiz-adv-x="967" d="M207 588Q205 577 206 567T207 545Q207 445 227 377T277 263T344 194T413 159T468 145T496 143Q495 143 510 144T549 152T605 173T666 212T724 276T768 371L891 336Q876 274 851 226T796 142T731 81T663
39Q585 -1 496 -8Q408 -8 341 18T224 90T142 193T90 314T62 441T53 561Q53 613 59 675T82 800T130 922T211 1027T332 1100T502 1128Q519 1128 557 1125T644 1105T743 1055T836 961T906 810T934 588H207ZM496 975Q427 970 369 942Q344 930 320 912T274 867T237 804T215
721H764Q758 780 732 827T669 907T586 957T496 975Z" />
<glyph unicode="f" glyph-name="f" horiz-adv-x="532" d="M532 1288Q523 1290 514 1291T496 1292Q465 1292 441 1281T399 1253T369 1213T348 1167Q328 1112 324 1042Q323 1039 323 1036Q322 1032 322 1022L522 1026V870H317Q314 751 312 539T309 8L180 4Q172 320
170 532T168 870H10V1016L168 1018V1075Q168 1191 201 1267T286 1387T405 1450T537 1468L532 1288Z" />
<glyph unicode="g" glyph-name="g" horiz-adv-x="979" d="M778 1014Q822 969 850 914T894 799T916 681T922 571Q921 464 902 379T850 227T776 112T688 33T593 -12T500 -27Q463 -27 430 -21T367 -6Q341 -25 321 -47T285 -91T262 -136T254 -178Q254 -212 273 -230T311
-248Q337 -248 364 -234T420 -197T482 -150T550 -102T626 -66T711 -51Q751 -51 788 -62T856 -94T911 -148T946 -223Q951 -240 952 -256T954 -289Q954 -373 916 -438T812 -547T661 -614T477 -637Q440 -637 403 -633T328 -618L346 -528Q366 -533 385 -535T424 -537Q472
-537 513 -529T584 -509Q619 -497 649 -481Q730 -436 764 -394T799 -311Q799 -290 792 -272T771 -239T740 -216T700 -207Q665 -207 619 -229T516 -303Q468 -345 416 -365T311 -385Q276 -385 241 -375T177 -344T130 -294T111 -223Q111 -192 121 -158T151 -89T200
-21T268 41Q208 84 168 146T103 281T68 429T57 578Q57 720 89 823T178 993T311 1092T477 1124Q531 1124 577 1116T662 1092L760 1341L905 1239L778 1014ZM778 573Q778 604 776 643T765 723T741 804T700 879L610 719L532 762L608 956Q582 967 551 974T483 981Q337
975 269 872T201 580Q201 450 225 361T289 218T376 139T473 115Q524 115 577 140T675 221T748 363T778 573Z" />
<glyph unicode="h" glyph-name="h" horiz-adv-x="934" d="M723 12Q715 164 708 282T694 483Q687 579 680 651Q671 772 649 833T592 895Q559 895 524 852T453 738T386 576T327 387T280 196T250 25L117 20Q117 376 113 643T103 1088T94 1355T88 1444L260 1436V602Q282
663 303 709T340 786Q358 822 375 848Q405 896 438 934T505 998T573 1039T639 1053Q702 1053 742 995T801 809Q817 707 829 583Q840 477 849 333T860 20L723 12Z" />
<glyph unicode="i" glyph-name="i" horiz-adv-x="410" d="M317 1350Q317 1325 308 1304T282 1267T245 1242T199 1233Q175 1233 154 1242T117 1266T92 1303T82 1350Q82 1374 91 1395T116 1432T153 1457T199 1466Q223 1466 244 1457T282 1433T307 1396T317 1350ZM279
1024L262 25H125L111 1036L279 1024Z" />
<glyph unicode="j" glyph-name="j" horiz-adv-x="383" d="M281 1350Q281 1325 272 1304T246 1267T209 1242T164 1233Q139 1233 118 1242T80 1266T55 1303T45 1350Q45 1374 54 1395T80 1432T117 1457T164 1466Q188 1466 209 1457T246 1433T271 1396T281 1350ZM272
0Q272 -118 244 -195T170 -322T64 -397T-61 -438L-96 -281Q-41 -281 -3 -261T59 -209T97 -141T117 -72T124 -18T125 6Q125 89 121 230Q118 350 111 546T92 1032L266 1047Q270 776 272 584T274 268Q274 196 274 146T273 63Q272 25 272 0Z" />
<glyph unicode="k" glyph-name="k" horiz-adv-x="844" d="M274 1421Q274 938 262 463Q356 606 445 755T621 1057L809 993Q747 900 685 812T559 637Q619 478 691 326T842 25L666 -16Q609 111 558 241T465 510Q412 442 360 376T254 244L246 10H121Q116 364 107 715T80
1425L274 1421Z" />
<glyph unicode="l" glyph-name="l" horiz-adv-x="410" d="M270 1411L250 6H131L111 1423L270 1411Z" />
<glyph unicode="m" glyph-name="m" horiz-adv-x="1233" d="M954 29Q966 110 974 186T986 329T991 451T993 547Q993 695 971 771T901 848Q864 848 818 789T725 604Q727 575 728 543T729 473Q729 377 722 264T696 23L549 14Q563 155 567 267T571 461Q571 577 565
655T550 780T528 848T504 868Q482 868 453 822T381 686Q339 595 317 511T283 346T263 186T246 27L109 23Q111 95 111 165T111 301Q111 460 108 592T102 821Q98 934 94 1024L276 1016V694Q284 722 297 758T327 833T366 909T416 976T475 1024T545 1042Q598 1042 642
987T707 817Q744 887 782 926T851 983T904 1006T930 1010Q971 1010 1009 991T1076 919T1123 770T1141 524Q1141 425 1133 302T1108 23L954 29Z" />
<glyph unicode="n" glyph-name="n" horiz-adv-x="932" d="M723 -4Q715 148 708 269T694 477Q687 577 680 655Q672 776 650 837T592 899Q557 899 521 855T450 738T384 572T326 379T280 183T250 8L113 4Q119 170 119 319Q119 475 114 604T103 828Q96 938 88 1026L281
1018V616Q304 682 322 727T352 800Q366 833 375 852Q401 901 432 939T496 1004T564 1045T631 1059Q663 1059 691 1045T740 1001T777 925T801 813Q817 705 829 577Q840 467 849 320T860 4L723 -4Z" />
<glyph unicode="o" glyph-name="o" horiz-adv-x="961" d="M907 596Q907 452 874 338T783 145T647 23T481 -20Q392 -20 314 24T178 149T87 343T53 596Q53 715 82 813T167 983T302 1093T481 1133Q591 1133 671 1094T803 983T881 814T907 596ZM752 594Q752 684 736
758T687 885T602 968T481 997Q418 997 368 968T282 886T228 758T209 594Q209 489 230 404T288 258T374 164T481 131Q537 131 586 163T672 255T730 400T752 594Z" />
<glyph unicode="p" glyph-name="p" horiz-adv-x="1038" d="M987 582Q987 457 960 343T880 141T751 3T578 -49Q512 -46 450 -22Q424 -12 397 3T343 41T293 94T252 166V-360H111V1061H268L254 907Q275 942 300 969T352 1016T406 1049T460 1072Q520 1093 582 1096Q669
1096 742 1061T869 958T954 796T987 582ZM543 104Q603 104 648 126T727 186T782 273T817 376T836 484T842 588Q842 691 814 762T744 879T653 944T559 965Q514 965 462 942T364 868T290 741T260 555Q260 467 273 400T309 283T361 198T422 143T485 113T543 104Z"
/>
<glyph unicode="q" glyph-name="q" horiz-adv-x="1057" d="M946 1061V-365H782V156Q762 117 736 88T682 38T623 2T565 -23Q499 -46 428 -49Q340 -49 271 -5T153 116T79 293T53 508Q53 643 86 751T178 936T316 1054T489 1096Q544 1093 598 1074Q621 1066 646 1053T695
1021T743 977T786 918L774 1065L946 1061ZM780 532Q780 647 756 729T692 863T604 940T506 965Q460 965 407 943T308 870T232 740T201 545Q201 447 216 366T265 226T349 136T471 104Q498 104 531 112T597 141T662 193T719 273T760 385T780 532Z" />
<glyph unicode="r" glyph-name="r" horiz-adv-x="856" d="M616 1077Q674 1077 713 1053T777 989T812 897T823 788Q823 733 817 656T791 498L668 516Q680 587 684 646T688 750Q688 857 666 900T596 944Q555 944 507 906T413 791T329 597T270 322V-31L119 -23Q118
268 114 474T105 812Q99 966 92 1065L270 1077V750Q290 804 321 861T396 967T494 1046T616 1077Z" />
<glyph unicode="s" glyph-name="s" horiz-adv-x="872" d="M651 723Q653 732 653 741T653 762Q653 813 639 857T598 935T533 988T449 1008Q396 1008 353 995T280 955T232 891T215 801Q215 772 229 742T273 684T344 636T444 606Q551 588 618 554T724 476T777 387T791
301Q791 276 786 244T765 178T724 112T655 54T555 12T416 -4Q408 -4 381 -2T316 11T236 44T155 106T89 207T51 356L215 365Q222 307 240 268T283 204T334 164T384 144T424 136T444 135Q486 136 520 149T579 184T616 232T629 289Q629 314 620 338T587 383T520 423T410
455Q302 476 233 517T122 608T65 709T49 801Q49 862 70 925T138 1041T263 1127T453 1161Q560 1154 644 1112Q680 1094 714 1067T776 999T819 906T836 782Q836 767 835 751T831 717L651 723Z" />
<glyph unicode="t" glyph-name="t" horiz-adv-x="547" d="M358 1444L354 1112H553V985H352L338 4H215L207 985H-18V1112H207L205 1454L358 1444Z" />
<glyph unicode="u" glyph-name="u" horiz-adv-x="981" d="M850 1028L829 -8H705L692 340Q670 274 645 224T593 136T540 72T488 27Q430 -14 371 -23Q292 -23 239 13T153 121T106 300T92 549Q92 658 99 783T119 1055L301 1040Q275 865 264 734T252 506Q252 413 260
349T280 243T306 178T335 144T360 131T377 129Q415 129 450 162T516 250T573 377T622 526T661 682T691 829T710 949T719 1028H850Z" />
<glyph unicode="v" glyph-name="v" horiz-adv-x="848" d="M848 1040L516 2H317L16 1036L197 1065L426 115L666 1065L848 1040Z" />
<glyph unicode="w" glyph-name="w" horiz-adv-x="1190" d="M1102 625Q1102 550 1097 473T1079 324T1047 189T998 79T929 4T838 -23Q781 -23 739 13T668 104T621 225T594 354Q581 285 561 218T513 97T448 10T365 -23Q280 -23 226 33T142 183T100 402T88 662Q88
701 89 749T92 848T96 947T102 1034L301 1042Q292 975 284 899T269 743T260 587T256 442Q256 429 258 400T266 335T280 260T299 189T326 136T360 115Q381 115 399 146T434 229T463 348T488 488T508 632T523 765T532 872T537 936L696 944Q694 917 693 880T692 805T691
730T690 666Q690 645 693 598T702 492T719 370T745 256T781 171T829 137Q847 141 862 166T888 227T907 305T920 386T927 455T930 496Q930 560 927 633T919 781T907 929T893 1065L1077 1077Q1083 1029 1087 971T1095 852T1100 733T1102 625Z" />
<glyph unicode="x" glyph-name="x" horiz-adv-x="827" d="M682 -16Q622 72 554 169T418 367Q361 286 310 217T221 95Q176 34 139 -16L27 39Q71 102 120 176Q162 239 216 322T328 500Q278 573 231 642T143 773T66 890T4 987L195 1057Q208 1022 230 978T282 882T346
773T420 655Q485 765 540 869T631 1061L817 977Q755 871 677 749T516 508Q591 390 665 275T799 55L682 -16Z" />
<glyph unicode="y" glyph-name="y" horiz-adv-x="950" d="M870 1049Q864 979 858 898T848 731T839 560T832 395Q824 209 819 20Q814 -84 788 -172T712 -324T589 -424T418 -461Q355 -459 295 -445Q269 -439 242 -430T189 -407T138 -375T94 -332L172 -219Q205 -257
243 -278T315 -309T377 -321T414 -324Q479 -324 525 -299T603 -229T652 -123T679 10T691 161T694 322V334Q664 242 629 179T557 73T487 8T426 -27T381 -40T358 -43Q283 -43 232 -2T150 118T106 308T92 561Q92 674 99 802T119 1075L301 1061Q275 884 264 752T252
520Q252 420 260 351T282 236T310 165T340 127T365 112T379 109Q417 109 451 144T516 237T573 370T622 528T661 692T691 845T710 969T719 1049H870Z" />
<glyph unicode="z" glyph-name="z" horiz-adv-x="791" d="M750 1036V907L207 145H741V2H43L20 127L573 897H68V1036H750Z" />
<glyph unicode="{" glyph-name="braceleft" horiz-adv-x="528" d="M477 1477Q457 1493 437 1505Q419 1516 398 1525T356 1534Q311 1534 286 1504T260 1407Q260 1358 277 1312T315 1219T353 1120T371 1008Q371 966 358 924T321 847T263 787T184 754Q282 728 323
663T365 504Q365 442 349 386T312 274T275 165T258 53Q258 -16 281 -51T342 -86Q355 -86 372 -83T408 -73T441 -59T465 -41L479 -168Q467 -177 446 -184T401 -197T355 -204T317 -207Q279 -207 242 -191T177 -144T131 -72T113 23Q113 87 127 143T160 254T192 366T207
492Q207 576 169 629T43 688L33 797Q71 807 103 823T158 866T194 928T207 1012Q207 1064 192 1110T158 1202T125 1294T109 1391Q109 1454 130 1500T187 1577T268 1623T362 1638Q406 1638 449 1623T524 1577L477 1477Z" />
<glyph unicode="|" glyph-name="bar" horiz-adv-x="373" d="M250 -217H123V1530H250V-217Z" />
<glyph unicode="}" glyph-name="braceright" horiz-adv-x="473" d="M440 676Q402 666 373 646T325 597T297 534T287 461Q287 410 299 360T326 261T353 163T365 63Q365 17 350 -24T307 -97T240 -147T152 -166Q108 -166 65 -151T-10 -104L55 25Q61 7 70 -10T92 -42T122
-65T160 -74Q181 -74 195 -62T218 -31T229 8T233 47Q233 96 221 144T194 244T167 349T154 465Q154 506 166 548T203 625T261 686T340 719Q242 745 201 810T160 969Q160 1031 176 1097T211 1230T246 1360T262 1481Q262 1516 245 1537T188 1559Q162 1559 140 1546T100
1513L86 1640Q137 1679 197 1679Q274 1679 317 1633T360 1511Q360 1447 349 1382T324 1250T299 1116T287 981Q287 943 293 909T314 848T358 804T430 784L440 676Z" />
<glyph unicode="~" glyph-name="asciitilde" horiz-adv-x="717" d="M610 893Q618 867 624 840T631 784Q631 749 619 717T586 660T534 619T469 604Q424 604 395 627T344 678T305 729T270 752Q256 752 248 747T235 732T229 712T227 688Q227 651 244 612L102 604Q100
621 99 639T98 676Q98 710 107 747T134 816T182 868T254 889Q288 889 311 878T350 851T379 816T403 781T429 754T463 743Q486 743 495 757T504 797Q504 820 497 840T479 881L610 893Z" />
<glyph unicode="&#xa0;" glyph-name="nbspace" horiz-adv-x="471" />
<glyph unicode="&#xa1;" glyph-name="exclamdown" horiz-adv-x="377" d="M86 -471Q97 -307 104 -149T116 166T123 481T127 803L246 805Q249 639 253 478T263 157T276 -163T293 -489L86 -471ZM266 973Q266 955 259 940T241 913T214 894T180 887Q145 887 121 912T96
973Q96 990 102 1005T120 1031T147 1050T180 1057Q198 1057 213 1050T240 1032T259 1005T266 973Z" />
<glyph unicode="&#xa2;" glyph-name="cent" horiz-adv-x="719" d="M553 537Q550 577 540 607T514 661T481 699T445 725Q402 749 350 752Q291 752 256 724T203 654T180 562T174 469Q174 427 186 376T222 280T282 205T367 174Q407 178 443 198Q474 215 506 251T559
354L672 299Q652 245 618 201T540 126T447 78T348 61Q270 61 213 98T119 196T63 332T45 485Q45 563 63 633T118 757T212 841T348 872Q409 872 456 857T539 816T598 758T638 691T661 624T672 565L553 537ZM401 825H276V1167H412L401 825ZM291 -143V152H403V-143H291Z"
/>
<glyph unicode="&#xa3;" glyph-name="sterling" horiz-adv-x="672" d="M268 731Q268 648 268 589T268 484T268 399T267 322T265 237T262 129Q297 127 332 127T397 127Q441 127 492 127T588 131V4L125 -12Q127 71 127 158T127 328Q127 382 127 420T126 488T125
544T124 601T124 669T123 762Q123 805 134 851T173 936T250 999T373 1024Q426 1024 463 1012T525 980T565 936T588 887T598 842T600 807Q599 790 597 770Q595 753 592 730T580 680L444 694Q452 723 455 747T459 791Q459 865 437 903T365 942Q311 942 290 889T268
731ZM68 328V451H379V328H68Z" />
<glyph unicode="&#xa4;" glyph-name="currency" horiz-adv-x="782" d="M543 633Q543 670 535 703T508 762T462 803T395 819Q326 819 285 768T244 633Q244 586 256 549T288 486T335 446T395 432Q426 432 453 444T500 482T531 544T543 633ZM627 791Q644 759 653
719T662 633Q662 588 654 550T631 479L711 399L621 313L553 379Q521 351 481 338T395 324Q346 324 301 340T221 389L150 317L80 418L154 489Q140 520 134 555T127 633Q127 671 134 705T154 770L72 852L160 946L236 870Q268 893 307 906T395 920Q445 920 484 908T555
874L635 952L709 872L627 791Z" />
<glyph unicode="&#xa5;" glyph-name="yen" horiz-adv-x="725" d="M682 1008Q626 839 564 674T436 358L416 -4H297L287 354Q221 503 159 666T43 997L223 1006Q251 876 286 741T358 475Q400 611 436 742T504 1008H682ZM147 307V430H569V324L147 307ZM150 162V276H569V162H150Z"
/>
<glyph unicode="&#xa6;" glyph-name="brokenbar" horiz-adv-x="389" d="M256 784H109V1530H274L256 784ZM129 -215V514H262V-215H129Z" />
<glyph unicode="&#xa7;" glyph-name="section" horiz-adv-x="975" d="M618 342Q644 365 661 399T678 483Q678 539 652 585T582 673T484 752T372 831T260 915T162 1011T93 1128T66 1272Q66 1323 74 1377T102 1482T154 1579T235 1659T350 1713T504 1733Q595 1731
662 1709T776 1654T852 1579T898 1496T920 1418T926 1356Q925 1325 921 1291Q917 1262 910 1224T889 1143L705 1167Q716 1211 720 1250T725 1325Q725 1397 706 1451T655 1542T581 1597T492 1616Q436 1616 393 1588T321 1513T277 1408T262 1288Q262 1228 282 1174T338
1070T421 979T522 903Q615 843 679 792T784 692T842 596T860 494Q860 455 852 418T827 347T782 284T717 233L618 342ZM326 985Q313 950 308 913T303 838Q303 778 317 730T359 641T427 564T522 494Q615 434 679 383T784 283T842 186T860 84Q860 25 841 -31T778 -130T667
-199T500 -225Q411 -225 335 -197T202 -119T113 2T80 156V182L268 174Q268 76 291 18T348 -70T418 -108T481 -117Q511 -117 545 -108T609 -76T658 -17T678 74Q678 121 660 163T608 243T529 317T428 385Q362 424 304 465T201 556T132 671T106 821Q106 900 127 982T199
1133L326 985Z" />
<glyph unicode="&#xa8;" glyph-name="dieresis" horiz-adv-x="504" d="M504 1257Q504 1236 496 1218T475 1186T444 1165T406 1157Q386 1157 368 1164T337 1185T315 1217T307 1257Q307 1277 315 1295T336 1326T368 1348T406 1356Q426 1356 443 1348T474 1327T496
1295T504 1257ZM195 1257Q195 1214 167 1186T96 1157Q56 1157 28 1185T0 1257Q0 1277 7 1295T28 1326T58 1348T96 1356Q117 1356 135 1348T166 1327T187 1295T195 1257Z" />
<glyph unicode="&#xa9;" glyph-name="copyright" horiz-adv-x="1024" d="M645 840Q645 886 638 918T618 971T593 1003T568 1019T548 1025T539 1026Q471 1026 430 952T389 723Q389 568 426 491T526 414Q550 416 570 432Q587 446 604 475T631 559L719 553Q713 514
702 484T676 432T644 395T611 370Q572 347 528 344Q408 344 344 438T279 719Q279 911 344 1008T547 1106Q601 1102 643 1076Q661 1065 678 1048T708 1005T730 945T739 866V846L645 840ZM942 754Q942 610 909 495T817 299T680 176T512 133Q422 133 343 177T206 303T114
499T80 754Q80 874 110 973T196 1143T332 1254T512 1294Q623 1294 704 1255T838 1144T916 973T942 754ZM838 752Q838 857 819 943T759 1092T658 1189T512 1223Q435 1223 374 1189T270 1093T205 944T182 752Q182 630 207 531T278 361T383 252T512 213Q579 213 638
250T742 357T812 527T838 752Z" />
<glyph unicode="&#xaa;" glyph-name="ordfeminine" horiz-adv-x="655" d="M471 707Q474 792 474 872T475 1024V1096Q475 1150 463 1185T432 1242T388 1271T340 1280Q313 1280 291 1268T252 1236T224 1191T209 1139L90 1180Q103 1227 127 1264T183 1328T255 1368T336
1382Q462 1382 524 1302T586 1079Q586 965 582 876T571 707H471ZM504 907L522 823Q480 758 417 725T285 692Q242 692 203 704T133 741T84 803T66 891Q66 936 83 975T133 1044T210 1091T309 1110Q311 1110 337 1108T397 1095T468 1060T528 993L504 907ZM301 797Q328
800 359 812Q385 823 419 845T492 909Q457 944 426 963T369 992Q340 1003 315 1004Q281 1004 257 995T217 969T194 933T186 891Q186 848 217 823T301 797ZM70 516V623H578V516H70Z" />
<glyph unicode="&#xab;" glyph-name="guillemotleft" horiz-adv-x="825" d="M326 381L51 573V735L352 938L367 758L123 668L391 524L326 381ZM684 381L410 573V735L711 938L725 758L481 668L750 524L684 381Z" />
<glyph unicode="&#xac;" glyph-name="logicalnot" horiz-adv-x="860" d="M610 395V688H90V838H754V395H610Z" />
<glyph unicode="&#xad;" glyph-name="uni00AD" horiz-adv-x="840" d="M94 567V717H745V567H94Z" />
<glyph unicode="&#xae;" glyph-name="registered" horiz-adv-x="768" d="M563 1104Q563 1059 544 1022T491 957T414 913T319 895L315 725H242Q245 800 245 880T246 1034Q246 1088 246 1148T244 1262Q261 1269 280 1273T319 1279T355 1283T383 1284Q416 1284 448
1274T505 1243T547 1187T563 1104ZM371 1214Q363 1214 355 1213T338 1210Q335 1168 332 1125T328 1040L322 956Q376 958 405 979T448 1026T464 1073T467 1096Q467 1101 465 1120T454 1160T425 1197T371 1214ZM414 723L342 932L406 948Q416 926 429 900T457 845T489
787T522 729L414 723ZM702 1028Q702 924 677 840T609 697T508 607T385 575Q319 575 261 607T160 699T91 842T66 1028Q66 1116 88 1189T152 1315T253 1396T385 1425Q466 1425 525 1396T624 1315T682 1190T702 1028ZM612 1028Q612 1103 599 1164T558 1268T487 1336T385
1360Q331 1360 289 1336T216 1269T170 1164T154 1028Q154 942 172 872T221 752T294 675T385 647Q432 647 473 673T545 748T594 868T612 1028Z" />
<glyph unicode="&#xaf;" glyph-name="overscore" horiz-adv-x="420" d="M0 1169V1305H420V1169H0Z" />
<glyph unicode="&#xb0;" glyph-name="degree" horiz-adv-x="461" d="M152 1182Q152 1150 174 1127T229 1104Q261 1104 284 1127T307 1182Q307 1214 284 1237T229 1260Q197 1260 175 1237T152 1182ZM47 1182Q47 1219 61 1251T101 1308T159 1347T229 1362Q267 1362
300 1348T359 1309T399 1252T414 1182Q414 1145 400 1113T360 1056T301 1018T229 1004Q192 1004 159 1018T101 1056T62 1112T47 1182Z" />
<glyph unicode="&#xb1;" glyph-name="plusminus" horiz-adv-x="840" d="M94 567V717H745V592L94 567ZM334 977H483V326H358L334 977ZM94 57V207H745V57H94Z" />
<glyph unicode="&#xb2;" glyph-name="twosuperior" horiz-adv-x="559" d="M481 1081Q481 1028 463 980T413 887T340 804T254 729H465V645H96L92 717Q128 747 173 789T259 882T328 988T356 1098Q356 1129 349 1149T329 1181T302 1197T272 1202Q241 1202 219 1173T197
1090Q197 1076 201 1052T213 995L98 975Q84 1012 80 1045T76 1104Q76 1139 87 1171T122 1227T182 1265T266 1280Q363 1280 422 1232T481 1081Z" />
<glyph unicode="&#xb3;" glyph-name="threesuperior" horiz-adv-x="545" d="M481 1081Q481 1076 480 1058T470 1017T442 971T385 932Q410 915 425 896T449 858T460 822T463 793Q463 757 445 727T399 674T336 640T266 627Q226 627 192 637T132 667T91 719T76 795Q76
806 77 822T84 860L209 854Q203 825 201 806T199 772Q199 750 206 737T224 718T247 709T270 707Q284 707 295 714T315 734T327 761T332 793Q332 810 325 828T302 861T261 889T199 907L209 985Q218 985 228 983T252 981Q290 981 311 998T342 1036Q353 1061 356 1092Q355
1113 349 1131T331 1162T305 1184T274 1192Q239 1192 219 1165T199 1090Q199 1084 199 1080T201 1070T204 1057T209 1036L82 1016Q78 1026 76 1033T73 1048T71 1062T70 1079Q70 1134 88 1172T135 1235T201 1269T276 1280Q306 1280 342 1272T408 1242T460 1181T481
1081Z" />
<glyph unicode="&#xb4;" glyph-name="acute" horiz-adv-x="365" d="M57 1128L0 1202L258 1487L365 1356L57 1128Z" />
<glyph unicode="&#xb5;" glyph-name="mu" horiz-adv-x="956" d="M856 1028V-8H690V565L752 569Q736 461 711 378T657 233T596 128T532 57Q459 -10 377 -23Q298 -23 245 13T159 121T112 300T98 549Q98 658 105 783T125 1055L307 1040Q281 865 270 734T258 506Q258
413 266 349T286 243T312 178T341 144T366 131T383 129Q421 129 456 162T522 250T579 377T628 526T667 682T697 829T716 949T725 1028H856ZM98 -397V547L256 518V-397H98Z" />
<glyph unicode="&#xb6;" glyph-name="paragraph" horiz-adv-x="1174" d="M772 1405L766 840Q766 629 770 423T780 8L631 2Q621 354 604 705T557 1411L623 1335Q598 1341 579 1345T542 1352T508 1355T473 1356Q414 1356 373 1325T307 1243T270 1124T258 983Q258
983 258 967T260 922T270 859T293 786T334 714T396 650T486 605T608 588Q637 588 672 594L686 489Q658 480 628 475T565 469Q467 469 374 509T208 620T91 788T47 999Q47 1119 78 1202T156 1340T261 1425T370 1470T464 1488T520 1491Q551 1491 591 1489T675 1484T766
1476T857 1468Q959 1458 1069 1446L1024 10H891V1411L983 1325L709 1343L772 1405Z" />
<glyph unicode="&#xb7;" glyph-name="middot" horiz-adv-x="334" d="M256 705Q256 686 249 670T230 642T202 623T168 616Q131 616 106 641T80 705Q80 723 87 738T106 765T134 784T168 791Q186 791 202 784T230 766T249 739T256 705Z" />
<glyph unicode="&#xb8;" glyph-name="cedilla" horiz-adv-x="301" d="M152 -285Q113 -285 84 -269T31 -225L82 -154Q93 -168 110 -182T145 -197Q164 -197 176 -182T188 -152Q188 -136 174 -127T141 -113T103 -107T72 -106L145 47L203 41L166 -57Q185 -57 203 -64T237
-86T261 -119T270 -164Q270 -197 259 -220T231 -257T193 -278T152 -285Z" />
<glyph unicode="&#xb9;" glyph-name="onesuperior" horiz-adv-x="379" d="M279 1262V629H156V1126L102 1085L27 1169L154 1270L279 1262Z" />
<glyph unicode="&#xba;" glyph-name="ordmasculine" horiz-adv-x="633" d="M584 1071Q584 984 563 916T506 799T421 726T317 700Q262 700 213 726T128 802T70 919T49 1071Q49 1143 68 1203T122 1307T207 1375T317 1399Q384 1399 434 1375T517 1308T567 1204T584
1071ZM465 1071Q465 1122 457 1163T430 1235T384 1281T317 1298Q282 1298 255 1282T207 1235T177 1164T166 1071Q166 1011 178 963T210 880T257 828T317 809Q348 809 375 827T422 879T453 961T465 1071ZM59 518V627H567V518H59Z" />
<glyph unicode="&#xbb;" glyph-name="guillemotright" horiz-adv-x="840" d="M115 381L100 561L344 651L76 795L141 938L416 745V586L115 381ZM473 381L459 561L702 651L434 795L500 938L774 745V586L473 381Z" />
<glyph unicode="&#xbc;" glyph-name="onequarter" horiz-adv-x="1004" d="M258 135L150 152L676 1331L795 1292L258 135ZM297 1262V629H174V1126L121 1085L45 1169L172 1270L297 1262ZM934 393H532L608 760H737L662 483H934V393ZM909 805V164H780V805H909Z" />
<glyph unicode="&#xbd;" glyph-name="onehalf" horiz-adv-x="1044" d="M258 135L150 152L676 1331L795 1292L258 135ZM297 1262V629H174V1126L121 1085L45 1169L172 1270L297 1262ZM973 528Q961 487 934 441Q910 402 867 351T752 246H963V162H594L590 233Q671
299 721 359T801 464Q834 517 850 563Q852 576 853 591T854 614Q854 645 847 665T827 697T800 714T770 719Q739 719 717 690T694 606Q694 578 711 512L596 492Q582 529 578 562T573 621Q573 656 584 688T620 744T680 782T764 797Q812 797 852 785T920 749T963 687T979
598Q979 581 979 565T973 532V528Z" />
<glyph unicode="&#xbe;" glyph-name="threequarters" horiz-adv-x="1079" d="M338 135L229 152L756 1331L874 1292L338 135ZM1014 393H612L688 760H817L741 483H1014V393ZM989 805V164H860V805H989ZM473 1081Q473 1076 472 1058T462 1017T434 971T377 932Q402
915 417 896T441 858T452 822T455 793Q455 757 437 727T391 674T328 640T258 627Q218 627 184 637T124 667T83 719T68 795Q68 806 69 822T76 860L201 854Q195 825 193 806T190 772Q190 750 197 737T215 718T238 709T262 707Q276 707 287 714T307 734T319 761T324
793Q324 810 317 828T293 861T252 889T190 907L201 985Q210 985 220 983T244 981Q282 981 303 998T334 1036Q345 1061 348 1092Q347 1113 341 1131T323 1162T297 1184T266 1192Q231 1192 211 1165T190 1090Q190 1084 190 1080T192 1070T196 1057T201 1036L74 1016Q70
1026 68 1033T64 1048T62 1062T61 1079Q61 1134 79 1172T127 1235T193 1269T268 1280Q298 1280 334 1272T400 1242T452 1181T473 1081Z" />
<glyph unicode="&#xbf;" glyph-name="questiondown" horiz-adv-x="879" d="M399 973Q399 990 406 1005T424 1031T451 1050T485 1057Q503 1057 518 1050T544 1032T562 1005T569 973Q569 938 545 913T485 887Q467 887 452 894T425 912T406 939T399 973ZM555 791Q555
684 531 603T470 454T390 326T311 202T250 64T225 -106Q225 -167 238 -225T279 -330T345 -405T436 -434Q479 -434 518 -416T586 -360T633 -269T651 -143Q651 -108 648 -69T633 14L803 39Q816 -4 823 -42T834 -110Q838 -144 838 -174Q838 -199 833 -236T812 -314T770
-397T700 -471T595 -527T449 -551Q368 -551 307 -531T201 -477T126 -398T77 -301T51 -195T43 -90Q43 -14 59 46T103 158T164 255T235 344T306 434T368 532T411 647T428 788L555 791Z" />
<glyph unicode="&#xc0;" glyph-name="Agrave" horiz-adv-x="897" d="M694 -14L645 254Q597 256 550 257T455 258Q404 258 352 257T248 254Q235 186 224 120T201 -12L14 -14Q58 163 96 343T171 704T242 1066T313 1425L571 1430Q643 1069 722 705T895 -14H694ZM449
1247Q401 1036 358 824T274 397Q318 395 361 396T449 397Q492 397 533 396T616 397Q576 612 535 824T449 1247ZM395 1482L88 1710L205 1824L467 1552L395 1482Z" />
<glyph unicode="&#xc1;" glyph-name="Aacute" horiz-adv-x="897" d="M694 -14L645 254Q597 256 550 257T455 258Q404 258 352 257T248 254Q235 186 224 120T201 -12L14 -14Q58 163 96 343T171 704T242 1066T313 1425L571 1430Q643 1069 722 705T895 -14H694ZM449
1247Q401 1036 358 824T274 397Q318 395 361 396T449 397Q492 397 533 396T616 397Q576 612 535 824T449 1247ZM483 1478L426 1552L684 1837L791 1706L483 1478Z" />
<glyph unicode="&#xc2;" glyph-name="Acircumflex" horiz-adv-x="897" d="M694 -14L645 254Q597 256 550 257T455 258Q404 258 352 257T248 254Q235 186 224 120T201 -12L14 -14Q58 163 96 343T171 704T242 1066T313 1425L571 1430Q643 1069 722 705T895 -14H694ZM449
1247Q401 1036 358 824T274 397Q318 395 361 396T449 397Q492 397 533 396T616 397Q576 612 535 824T449 1247ZM522 1491L399 1781H452L348 1486L223 1550L377 1839H483L635 1550L522 1491Z" />
<glyph unicode="&#xc3;" glyph-name="Atilde" horiz-adv-x="897" d="M694 -14L645 254Q597 256 550 257T455 258Q404 258 352 257T248 254Q235 186 224 120T201 -12L14 -14Q58 163 96 343T171 704T242 1066T313 1425L571 1430Q643 1069 722 705T895 -14H694ZM449
1247Q401 1036 358 824T274 397Q318 395 361 396T449 397Q492 397 533 396T616 397Q576 612 535 824T449 1247ZM674 1744Q682 1721 687 1697T692 1648Q692 1616 682 1587T652 1536T607 1500T549 1486Q509 1486 482 1506T436 1551T402 1596T371 1617Q346 1617 339
1600T332 1562Q332 1544 336 1527T346 1495L221 1486Q219 1502 218 1518T217 1550Q217 1581 225 1614T250 1676T293 1722T356 1740Q401 1740 426 1720T468 1676T500 1631T543 1611Q563 1611 571 1624T579 1658Q579 1678 573 1697T557 1734L674 1744Z" />
<glyph unicode="&#xc4;" glyph-name="Adieresis" horiz-adv-x="897" d="M694 -14L645 254Q597 256 550 257T455 258Q404 258 352 257T248 254Q235 186 224 120T201 -12L14 -14Q58 163 96 343T171 704T242 1066T313 1425L571 1430Q643 1069 722 705T895 -14H694ZM449
1247Q401 1036 358 824T274 397Q318 395 361 396T449 397Q492 397 533 396T616 397Q576 612 535 824T449 1247ZM707 1607Q707 1586 699 1568T678 1536T647 1515T609 1507Q589 1507 571 1514T540 1535T518 1567T510 1607Q510 1627 518 1645T539 1676T571 1698T609
1706Q629 1706 646 1698T677 1677T699 1645T707 1607ZM398 1607Q398 1564 370 1536T299 1507Q259 1507 231 1535T203 1607Q203 1627 210 1645T231 1676T261 1698T299 1706Q320 1706 338 1698T369 1677T390 1645T398 1607Z" />
<glyph unicode="&#xc5;" glyph-name="Aring" horiz-adv-x="897" d="M694 -14L645 254Q597 256 550 257T455 258Q404 258 352 257T248 254Q235 186 224 120T201 -12L14 -14Q58 163 96 343T171 704T242 1066T313 1425L571 1430Q643 1069 722 705T895 -14H694ZM449
1247Q401 1036 358 824T274 397Q318 395 361 396T449 397Q492 397 533 396T616 397Q576 612 535 824T449 1247ZM374 1524Q374 1492 397 1469T452 1446Q484 1446 507 1469T530 1524Q530 1556 507 1579T452 1602Q420 1602 397 1579T374 1524ZM270 1524Q270 1561 284
1593T324 1650T382 1689T452 1704Q490 1704 523 1690T582 1651T622 1594T637 1524Q637 1487 623 1455T583 1398T524 1360T452 1346Q415 1346 382 1360T324 1398T285 1454T270 1524Z" />
<glyph unicode="&#xc6;" glyph-name="AE" horiz-adv-x="1423" d="M1384 1423V1286H836V676H1270V528H829V166H1362V8H651Q651 70 653 131T655 254Q609 256 562 257T467 258Q416 258 365 257T260 254Q234 186 208 120T158 -12L-27 -14Q52 163 127 343T275 704T419
1066T563 1425L1384 1423ZM664 1247Q573 1036 487 824T315 397Q359 395 401 396T489 397Q533 397 574 396T657 397Q659 477 660 560T662 742T663 964T664 1247Z" />
<glyph unicode="&#xc7;" glyph-name="Ccedilla" horiz-adv-x="1004" d="M516 -332Q478 -332 449 -316T395 -272L446 -201Q457 -215 475 -229T510 -244Q529 -244 541 -229T553 -199Q553 -183 539 -174T506 -161T468 -155T436 -154L498 -25Q393 -15 312 37T176 183T92
409T63 713Q63 1092 192 1285T590 1479Q593 1479 610 1478T655 1471T716 1453T785 1416T853 1356T912 1267T953 1141T969 975L797 965Q797 1057 781 1120T741 1225T688 1288T634 1321T593 1333T575 1335Q506 1335 449 1298T352 1184T289 992T266 721Q266 566 286
449T344 253T433 134T551 94Q600 98 642 130Q660 143 678 164T713 216T744 288T766 385L926 373Q912 279 882 213T814 103T735 32T658 -7T595 -25T559 -29L530 -104Q549 -104 568 -111T602 -133T626 -166T635 -211Q635 -244 624 -267T596 -304T557 -325T516 -332Z"
/>
<glyph unicode="&#xc8;" glyph-name="Egrave" horiz-adv-x="874" d="M836 1423V1286H287V676H721V528H281V166H813V8H111V1423H836ZM422 1478L115 1706L232 1820L494 1548L422 1478Z" />
<glyph unicode="&#xc9;" glyph-name="Eacute" horiz-adv-x="874" d="M836 1423V1286H287V676H721V528H281V166H813V8H111V1423H836ZM495 1478L438 1552L696 1837L803 1706L495 1478Z" />
<glyph unicode="&#xca;" glyph-name="Ecircumflex" horiz-adv-x="874" d="M836 1423V1286H287V676H721V528H281V166H813V8H111V1423H836ZM565 1489L442 1779H495L391 1484L266 1548L420 1837H526L678 1548L565 1489Z" />
<glyph unicode="&#xcb;" glyph-name="Edieresis" horiz-adv-x="874" d="M836 1423V1286H287V676H721V528H281V166H813V8H111V1423H836ZM725 1579Q725 1558 717 1540T696 1508T665 1487T627 1479Q607 1479 589 1486T558 1507T536 1539T528 1579Q528 1599 536 1617T557
1648T589 1670T627 1678Q647 1678 664 1670T695 1649T717 1617T725 1579ZM416 1579Q416 1536 388 1508T317 1479Q277 1479 249 1507T221 1579Q221 1599 228 1617T249 1648T279 1670T317 1678Q338 1678 356 1670T387 1649T408 1617T416 1579Z" />
<glyph unicode="&#xcc;" glyph-name="Igrave" horiz-adv-x="549" d="M485 16H47L49 172Q81 170 113 169T176 168Q181 369 183 570T186 975Q186 1055 186 1135T184 1296L57 1278L47 1458Q107 1456 167 1456T287 1456Q346 1456 404 1456T522 1458L520 1327Q486 1325
453 1323T385 1317Q363 1028 346 743T315 168Q359 168 400 170T485 178V16ZM259 1517L-48 1745L69 1859L331 1587L259 1517Z" />
<glyph unicode="&#xcd;" glyph-name="Iacute" horiz-adv-x="549" d="M485 16H47L49 172Q81 170 113 169T176 168Q181 369 183 570T186 975Q186 1055 186 1135T184 1296L57 1278L47 1458Q107 1456 167 1456T287 1456Q346 1456 404 1456T522 1458L520 1327Q486 1325
453 1323T385 1317Q363 1028 346 743T315 168Q359 168 400 170T485 178V16ZM331 1511L274 1585L532 1870L639 1739L331 1511Z" />
<glyph unicode="&#xce;" glyph-name="Icircumflex" horiz-adv-x="549" d="M485 16H47L49 172Q81 170 113 169T176 168Q181 369 183 570T186 975Q186 1055 186 1135T184 1296L57 1278L47 1458Q107 1456 167 1456T287 1456Q346 1456 404 1456T522 1458L520 1327Q486
1325 453 1323T385 1317Q363 1028 346 743T315 168Q359 168 400 170T485 178V16ZM377 1510L254 1800H307L203 1505L78 1569L232 1858H338L490 1569L377 1510Z" />
<glyph unicode="&#xcf;" glyph-name="Idieresis" horiz-adv-x="549" d="M485 16H47L49 172Q81 170 113 169T176 168Q181 369 183 570T186 975Q186 1055 186 1135T184 1296L57 1278L47 1458Q107 1456 167 1456T287 1456Q346 1456 404 1456T522 1458L520 1327Q486
1325 453 1323T385 1317Q363 1028 346 743T315 168Q359 168 400 170T485 178V16ZM537 1628Q537 1607 529 1589T508 1557T477 1536T439 1528Q419 1528 401 1535T370 1556T348 1588T340 1628Q340 1648 348 1666T369 1697T401 1719T439 1727Q459 1727 476 1719T507
1698T529 1666T537 1628ZM228 1628Q228 1585 200 1557T129 1528Q89 1528 61 1556T33 1628Q33 1648 40 1666T61 1697T91 1719T129 1727Q150 1727 168 1719T199 1698T220 1666T228 1628Z" />
<glyph unicode="&#xd0;" glyph-name="Eth" horiz-adv-x="1010" d="M330 -29Q279 -28 237 -23Q219 -21 201 -18T168 -10T140 1T123 16L135 612H47V762H137L152 1438Q172 1451 198 1459T254 1472T314 1479T371 1481Q432 1481 500 1470T635 1429T763 1352T870 1228T943
1050T971 809Q971 715 951 617T894 425T801 250T674 105T516 7T330 -29ZM319 612L283 80Q410 97 502 164T653 330T740 545T768 778Q768 806 765 859T748 977T710 1108T641 1230T532 1321T373 1358L330 762H512V612H319Z" />
<glyph unicode="&#xd1;" glyph-name="Ntilde" horiz-adv-x="983" d="M924 1427Q883 1070 861 715T831 -2H672L297 995Q273 499 270 2L109 0Q111 106 111 212T111 426Q111 922 96 1417L319 1413L676 338Q680 418 683 513T688 713T692 926T694 1141Q694 1216 693
1288T690 1430L924 1427ZM729 1724Q737 1701 742 1677T747 1628Q747 1596 737 1567T707 1516T662 1480T604 1466Q564 1466 537 1486T491 1531T457 1576T426 1597Q401 1597 394 1580T387 1542Q387 1524 391 1507T401 1475L276 1466Q274 1482 273 1498T272 1530Q272
1561 280 1594T305 1656T348 1702T411 1720Q456 1720 481 1700T523 1656T555 1611T598 1591Q618 1591 626 1604T634 1638Q634 1658 628 1677T612 1714L729 1724Z" />
<glyph unicode="&#xd2;" glyph-name="Ograve" horiz-adv-x="967" d="M905 766Q905 658 891 556T850 361T784 192T697 60T590 -27T465 -59Q398 -59 343 -28T243 59T165 192T109 361T75 555T63 766Q63 926 88 1059T165 1289T296 1438T485 1491Q600 1491 680 1438T810
1289T882 1060T905 766ZM719 758Q719 891 707 1002T666 1192T594 1316T485 1360Q425 1360 381 1316T307 1193T264 1002T250 758Q250 623 264 499T306 280T376 127T473 70Q528 70 573 127T651 279T701 499T719 758ZM416 1540L109 1768L226 1882L488 1610L416 1540Z"
/>
<glyph unicode="&#xd3;" glyph-name="Oacute" horiz-adv-x="967" d="M905 766Q905 658 891 556T850 361T784 192T697 60T590 -27T465 -59Q398 -59 343 -28T243 59T165 192T109 361T75 555T63 766Q63 926 88 1059T165 1289T296 1438T485 1491Q600 1491 680 1438T810
1289T882 1060T905 766ZM719 758Q719 891 707 1002T666 1192T594 1316T485 1360Q425 1360 381 1316T307 1193T264 1002T250 758Q250 623 264 499T306 280T376 127T473 70Q528 70 573 127T651 279T701 499T719 758ZM544 1542L487 1616L745 1901L852 1770L544 1542Z"
/>
<glyph unicode="&#xd4;" glyph-name="Ocircumflex" horiz-adv-x="967" d="M905 766Q905 658 891 556T850 361T784 192T697 60T590 -27T465 -59Q398 -59 343 -28T243 59T165 192T109 361T75 555T63 766Q63 926 88 1059T165 1289T296 1438T485 1491Q600 1491 680
1438T810 1289T882 1060T905 766ZM719 758Q719 891 707 1002T666 1192T594 1316T485 1360Q425 1360 381 1316T307 1193T264 1002T250 758Q250 623 264 499T306 280T376 127T473 70Q528 70 573 127T651 279T701 499T719 758ZM578 1549L455 1839H508L404 1544L279
1608L433 1897H539L691 1608L578 1549Z" />
<glyph unicode="&#xd5;" glyph-name="Otilde" horiz-adv-x="967" d="M905 766Q905 658 891 556T850 361T784 192T697 60T590 -27T465 -59Q398 -59 343 -28T243 59T165 192T109 361T75 555T63 766Q63 926 88 1059T165 1289T296 1438T485 1491Q600 1491 680 1438T810
1289T882 1060T905 766ZM719 758Q719 891 707 1002T666 1192T594 1316T485 1360Q425 1360 381 1316T307 1193T264 1002T250 758Q250 623 264 499T306 280T376 127T473 70Q528 70 573 127T651 279T701 499T719 758ZM703 1798Q711 1775 716 1751T721 1702Q721 1670
711 1641T681 1590T636 1554T578 1540Q538 1540 511 1560T465 1605T431 1650T400 1671Q375 1671 368 1654T361 1616Q361 1598 365 1581T375 1549L250 1540Q248 1556 247 1572T246 1604Q246 1635 254 1668T279 1730T322 1776T385 1794Q430 1794 455 1774T497 1730T529
1685T572 1665Q592 1665 600 1678T608 1712Q608 1732 602 1751T586 1788L703 1798Z" />
<glyph unicode="&#xd6;" glyph-name="Odieresis" horiz-adv-x="967" d="M905 766Q905 658 891 556T850 361T784 192T697 60T590 -27T465 -59Q398 -59 343 -28T243 59T165 192T109 361T75 555T63 766Q63 926 88 1059T165 1289T296 1438T485 1491Q600 1491 680 1438T810
1289T882 1060T905 766ZM719 758Q719 891 707 1002T666 1192T594 1316T485 1360Q425 1360 381 1316T307 1193T264 1002T250 758Q250 623 264 499T306 280T376 127T473 70Q528 70 573 127T651 279T701 499T719 758ZM735 1642Q735 1621 727 1603T706 1571T675 1550T637
1542Q617 1542 599 1549T568 1570T546 1602T538 1642Q538 1662 546 1680T567 1711T599 1733T637 1741Q657 1741 674 1733T705 1712T727 1680T735 1642ZM426 1642Q426 1599 398 1571T327 1542Q287 1542 259 1570T231 1642Q231 1662 238 1680T259 1711T289 1733T327
1741Q348 1741 366 1733T397 1712T418 1680T426 1642Z" />
<glyph unicode="&#xd7;" glyph-name="multiply" horiz-adv-x="735" d="M205 365L80 479L559 928L645 838L205 365ZM86 815L201 938L649 461L559 375L86 815Z" />
<glyph unicode="&#xd8;" glyph-name="Oslash" horiz-adv-x="967" d="M809 1290Q860 1194 882 1061T905 766Q905 658 891 556T850 361T784 192T697 60T590 -27T465 -59Q397 -59 341 -28T240 61L211 0L104 16L174 172Q118 290 91 443T63 766Q63 926 88 1059T165
1289T296 1438T485 1491Q558 1491 616 1469T721 1405L748 1466L870 1423L809 1290ZM719 758Q719 841 714 915T698 1053L319 236Q347 158 385 114T473 70Q528 70 573 127T651 279T701 499T719 758ZM250 758Q250 664 256 574T276 406L647 1239Q619 1296 579 1328T485
1360Q425 1360 381 1316T307 1193T264 1002T250 758Z" />
<glyph unicode="&#xd9;" glyph-name="Ugrave" horiz-adv-x="975" d="M883 643Q870 474 839 351T755 147T624 27T440 -12Q332 -12 262 35T150 170T93 387T76 678Q79 801 91 933Q96 989 103 1052T121 1182T146 1317T178 1452L383 1421Q346 1238 326 1096T297 846T287
663T285 537Q285 415 294 334T323 203T376 132T453 111Q499 111 540 138T613 225T663 378T682 606Q682 693 683 794T682 1003T673 1221T649 1436L866 1462Q880 1298 885 1161T891 918Q891 852 890 802T887 716Q885 675 883 643ZM467 1493L160 1721L277 1835L539
1563L467 1493Z" />
<glyph unicode="&#xda;" glyph-name="Uacute" horiz-adv-x="975" d="M883 643Q870 474 839 351T755 147T624 27T440 -12Q332 -12 262 35T150 170T93 387T76 678Q79 801 91 933Q96 989 103 1052T121 1182T146 1317T178 1452L383 1421Q346 1238 326 1096T297 846T287
663T285 537Q285 415 294 334T323 203T376 132T453 111Q499 111 540 138T613 225T663 378T682 606Q682 693 683 794T682 1003T673 1221T649 1436L866 1462Q880 1298 885 1161T891 918Q891 852 890 802T887 716Q885 675 883 643ZM555 1474L498 1548L756 1833L863
1702L555 1474Z" />
<glyph unicode="&#xdb;" glyph-name="Ucircumflex" horiz-adv-x="975" d="M883 643Q870 474 839 351T755 147T624 27T440 -12Q332 -12 262 35T150 170T93 387T76 678Q79 801 91 933Q96 989 103 1052T121 1182T146 1317T178 1452L383 1421Q346 1238 326 1096T297
846T287 663T285 537Q285 415 294 334T323 203T376 132T453 111Q499 111 540 138T613 225T663 378T682 606Q682 693 683 794T682 1003T673 1221T649 1436L866 1462Q880 1298 885 1161T891 918Q891 852 890 802T887 716Q885 675 883 643ZM596 1495L473 1785H526L422
1490L297 1554L451 1843H557L709 1554L596 1495Z" />
<glyph unicode="&#xdc;" glyph-name="Udieresis" horiz-adv-x="975" d="M883 643Q870 474 839 351T755 147T624 27T440 -12Q332 -12 262 35T150 170T93 387T76 678Q79 801 91 933Q96 989 103 1052T121 1182T146 1317T178 1452L383 1421Q346 1238 326 1096T297
846T287 663T285 537Q285 415 294 334T323 203T376 132T453 111Q499 111 540 138T613 225T663 378T682 606Q682 693 683 794T682 1003T673 1221T649 1436L866 1462Q880 1298 885 1161T891 918Q891 852 890 802T887 716Q885 675 883 643ZM768 1613Q768 1592 760
1574T739 1542T708 1521T670 1513Q650 1513 632 1520T601 1541T579 1573T571 1613Q571 1633 579 1651T600 1682T632 1704T670 1712Q690 1712 707 1704T738 1683T760 1651T768 1613ZM459 1613Q459 1570 431 1542T360 1513Q320 1513 292 1541T264 1613Q264 1633 271
1651T292 1682T322 1704T360 1712Q381 1712 399 1704T430 1683T451 1651T459 1613Z" />
<glyph unicode="&#xdd;" glyph-name="Yacute" horiz-adv-x="885" d="M893 1442Q812 1205 725 976T539 518L508 -4H365L350 508Q250 732 164 959T0 1425L231 1438Q278 1232 328 1031T438 627Q504 831 561 1032T666 1442H893ZM471 1429L414 1503L672 1788L779 1657L471
1429Z" />
<glyph unicode="&#xde;" glyph-name="Thorn" horiz-adv-x="971" d="M315 242Q300 242 286 242T258 244Q255 185 254 125T250 -4H100Q103 177 107 368Q108 449 109 541T112 729T114 924T115 1116Q115 1219 114 1313T111 1487L340 1481V1251Q360 1256 390 1259T467
1262Q554 1262 638 1238T789 1158T895 1014T936 797Q936 710 910 636T838 500T732 390T602 309T460 259T315 242ZM317 1120Q308 1007 300 909T285 720T272 541T262 358H272Q382 358 458 388T585 463T664 561T705 659T722 736T725 770Q725 781 723 812T712 883T685
968T633 1048T550 1109T428 1133Q403 1133 376 1130T317 1120Z" />
<glyph unicode="&#xdf;" glyph-name="germandbls" horiz-adv-x="1174" d="M772 1182Q772 1130 759 1092T725 1025T680 971T636 921T602 868T588 801Q588 772 602 742T646 684T717 636T817 606Q924 588 991 554T1097 476T1149 387T1163 301Q1163 276 1158 244T1137
178T1096 112T1028 54T927 12T788 -4Q780 -4 753 -2T689 11T609 44T528 106T462 207T424 356L588 365Q594 307 613 268T656 204T707 164T757 144T797 136T817 135Q859 136 893 149T951 184T988 232T1001 289Q1001 314 992 338T959 383T892 423T782 455Q675 476
605 517T495 608T438 709T422 801Q422 854 436 893T470 962T515 1016T559 1064T594 1112T608 1169Q608 1214 592 1239T557 1276T519 1290T496 1292Q465 1292 441 1281T399 1253T369 1213T348 1167Q328 1112 324 1042Q320 951 317 806Q314 682 312 486T309 8L180
4Q172 320 170 532T168 870H10V1016L168 1022V1075Q168 1152 185 1210T230 1309T294 1377T368 1420T445 1442T514 1448Q545 1448 589 1439T673 1401T743 1320T772 1182Z" />
<glyph unicode="&#xe0;" glyph-name="agrave" horiz-adv-x="975" d="M885 561Q883 460 879 360Q877 317 875 270T871 176T865 82T858 -4L721 0Q723 29 724 57T725 113Q680 65 630 38T535 -3Q483 -20 432 -25Q421 -27 412 -27T391 -27Q321 -27 257 -8T144 52T65
152T35 295Q35 367 63 430T143 541T268 617T430 647Q433 647 464 645T539 633T635 600T731 537Q731 582 729 632T720 730T696 823T653 900T583 953T481 973Q434 973 395 955T326 906T276 833T246 741L78 795Q90 852 112 896T163 973T224 1029T289 1069Q364 1106
451 1114Q571 1114 654 1078T788 972T862 799T885 561ZM729 283Q729 303 730 322T731 360Q678 414 627 442T533 484Q485 500 440 502Q378 502 334 485T261 438T219 372T205 295Q205 254 220 221T262 165T329 130T418 117Q466 121 518 139Q563 155 617 188T729 283ZM430
1157L123 1385L240 1499L502 1227L430 1157Z" />
<glyph unicode="&#xe1;" glyph-name="aacute" horiz-adv-x="975" d="M885 561Q883 460 879 360Q877 317 875 270T871 176T865 82T858 -4L721 0Q723 29 724 57T725 113Q680 65 630 38T535 -3Q483 -20 432 -25Q421 -27 412 -27T391 -27Q321 -27 257 -8T144 52T65
152T35 295Q35 367 63 430T143 541T268 617T430 647Q433 647 464 645T539 633T635 600T731 537Q731 582 729 632T720 730T696 823T653 900T583 953T481 973Q434 973 395 955T326 906T276 833T246 741L78 795Q90 852 112 896T163 973T224 1029T289 1069Q364 1106
451 1114Q571 1114 654 1078T788 972T862 799T885 561ZM729 283Q729 303 730 322T731 360Q678 414 627 442T533 484Q485 500 440 502Q378 502 334 485T261 438T219 372T205 295Q205 254 220 221T262 165T329 130T418 117Q466 121 518 139Q563 155 617 188T729 283ZM508
1171L451 1245L709 1530L816 1399L508 1171Z" />
<glyph unicode="&#xe2;" glyph-name="acircumflex" horiz-adv-x="975" d="M885 561Q883 460 879 360Q877 317 875 270T871 176T865 82T858 -4L721 0Q723 29 724 57T725 113Q680 65 630 38T535 -3Q483 -20 432 -25Q421 -27 412 -27T391 -27Q321 -27 257 -8T144
52T65 152T35 295Q35 367 63 430T143 541T268 617T430 647Q433 647 464 645T539 633T635 600T731 537Q731 582 729 632T720 730T696 823T653 900T583 953T481 973Q434 973 395 955T326 906T276 833T246 741L78 795Q90 852 112 896T163 973T224 1029T289 1069Q364
1106 451 1114Q571 1114 654 1078T788 972T862 799T885 561ZM729 283Q729 303 730 322T731 360Q678 414 627 442T533 484Q485 500 440 502Q378 502 334 485T261 438T219 372T205 295Q205 254 220 221T262 165T329 130T418 117Q466 121 518 139Q563 155 617 188T729
283ZM553 1170L430 1460H483L379 1165L254 1229L408 1518H514L666 1229L553 1170Z" />
<glyph unicode="&#xe3;" glyph-name="atilde" horiz-adv-x="975" d="M885 561Q883 460 879 360Q877 317 875 270T871 176T865 82T858 -4L721 0Q723 29 724 57T725 113Q680 65 630 38T535 -3Q483 -20 432 -25Q421 -27 412 -27T391 -27Q321 -27 257 -8T144 52T65
152T35 295Q35 367 63 430T143 541T268 617T430 647Q433 647 464 645T539 633T635 600T731 537Q731 582 729 632T720 730T696 823T653 900T583 953T481 973Q434 973 395 955T326 906T276 833T246 741L78 795Q90 852 112 896T163 973T224 1029T289 1069Q364 1106
451 1114Q571 1114 654 1078T788 972T862 799T885 561ZM729 283Q729 303 730 322T731 360Q678 414 627 442T533 484Q485 500 440 502Q378 502 334 485T261 438T219 372T205 295Q205 254 220 221T262 165T329 130T418 117Q466 121 518 139Q563 155 617 188T729 283ZM678
1427Q686 1404 691 1380T696 1331Q696 1299 686 1270T656 1219T611 1183T553 1169Q513 1169 486 1189T440 1234T406 1279T375 1300Q350 1300 343 1283T336 1245Q336 1227 340 1210T350 1178L225 1169Q223 1185 222 1201T221 1233Q221 1264 229 1297T254 1359T297
1405T360 1423Q405 1423 430 1403T472 1359T504 1314T547 1294Q567 1294 575 1307T583 1341Q583 1361 577 1380T561 1417L678 1427Z" />
<glyph unicode="&#xe4;" glyph-name="adieresis" horiz-adv-x="975" d="M885 561Q883 460 879 360Q877 317 875 270T871 176T865 82T858 -4L721 0Q723 29 724 57T725 113Q680 65 630 38T535 -3Q483 -20 432 -25Q421 -27 412 -27T391 -27Q321 -27 257 -8T144 52T65
152T35 295Q35 367 63 430T143 541T268 617T430 647Q433 647 464 645T539 633T635 600T731 537Q731 582 729 632T720 730T696 823T653 900T583 953T481 973Q434 973 395 955T326 906T276 833T246 741L78 795Q90 852 112 896T163 973T224 1029T289 1069Q364 1106
451 1114Q571 1114 654 1078T788 972T862 799T885 561ZM729 283Q729 303 730 322T731 360Q678 414 627 442T533 484Q485 500 440 502Q378 502 334 485T261 438T219 372T205 295Q205 254 220 221T262 165T329 130T418 117Q466 121 518 139Q563 155 617 188T729 283ZM711
1282Q711 1261 703 1243T682 1211T651 1190T613 1182Q593 1182 575 1189T544 1210T522 1242T514 1282Q514 1302 522 1320T543 1351T575 1373T613 1381Q633 1381 650 1373T681 1352T703 1320T711 1282ZM402 1282Q402 1239 374 1211T303 1182Q263 1182 235 1210T207
1282Q207 1302 214 1320T235 1351T265 1373T303 1381Q324 1381 342 1373T373 1352T394 1320T402 1282Z" />
<glyph unicode="&#xe5;" glyph-name="aring" horiz-adv-x="975" d="M885 561Q883 460 879 360Q877 317 875 270T871 176T865 82T858 -4L721 0Q723 29 724 57T725 113Q680 65 630 38T535 -3Q483 -20 432 -25Q421 -27 412 -27T391 -27Q321 -27 257 -8T144 52T65
152T35 295Q35 367 63 430T143 541T268 617T430 647Q433 647 464 645T539 633T635 600T731 537Q731 582 729 632T720 730T696 823T653 900T583 953T481 973Q434 973 395 955T326 906T276 833T246 741L78 795Q90 852 112 896T163 973T224 1029T289 1069Q364 1106
451 1114Q571 1114 654 1078T788 972T862 799T885 561ZM729 283Q729 303 730 322T731 360Q678 414 627 442T533 484Q485 500 440 502Q378 502 334 485T261 438T219 372T205 295Q205 254 220 221T262 165T329 130T418 117Q466 121 518 139Q563 155 617 188T729 283ZM380
1360Q380 1328 403 1305T458 1282Q490 1282 513 1305T536 1360Q536 1392 513 1415T458 1438Q426 1438 403 1415T380 1360ZM276 1360Q276 1397 290 1429T330 1486T388 1525T458 1540Q496 1540 529 1526T588 1487T628 1430T643 1360Q643 1323 629 1291T589 1234T530
1196T458 1182Q421 1182 388 1196T330 1234T291 1290T276 1360Z" />
<glyph unicode="&#xe6;" glyph-name="ae" horiz-adv-x="1649" d="M889 588Q887 577 888 567T889 545Q889 445 909 377T959 263T1026 194T1095 159T1150 145T1178 143Q1177 143 1192 144T1231 152T1287 173T1348 212T1406 276T1450 371L1573 336Q1558 274 1533
226T1478 142T1413 81T1345 39Q1267 -1 1178 -8Q1107 -8 1050 9T947 57T869 128T811 217Q773 163 726 118T624 41T511 -9T391 -27Q321 -27 257 -8T144 52T65 152T35 295Q35 367 63 430T143 541T268 617T430 647Q433 647 464 645T539 633T635 600T731 537Q730 566
730 585T729 616V635Q730 735 708 800T650 903T570 957T481 973Q431 973 391 953T321 901T272 827T246 741L78 795Q99 868 138 927T229 1028T343 1091T475 1114Q603 1114 685 1066T815 928Q839 970 872 1006T950 1070T1053 1112T1184 1128Q1201 1128 1239 1125T1326
1105T1425 1055T1518 961T1588 810T1616 588H889ZM725 276Q727 305 728 325T729 360Q677 414 626 442T533 484Q485 500 440 502Q378 502 334 485T261 438T219 372T205 295Q205 254 220 221T262 165T329 130T418 117Q464 120 515 138Q559 153 613 185T725 276ZM1178
975Q1109 970 1051 942Q1026 930 1002 912T956 867T919 804T897 721H1446Q1440 780 1414 827T1351 907T1268 957T1178 975Z" />
<glyph unicode="&#xe7;" glyph-name="ccedilla" horiz-adv-x="948" d="M483 -285Q445 -285 416 -269T362 -225L414 -154Q425 -168 442 -182T477 -197Q496 -197 508 -182T520 -152Q520 -136 506 -127T473 -113T435 -107T403 -106L451 -4Q383 -2 327 23T227 89T150
186T96 306T64 440T53 580Q53 687 77 784T153 954T283 1071T471 1114Q555 1114 620 1094T733 1039T813 962T867 874T899 785T913 707L772 668Q768 725 753 768T717 843T669 897T615 933Q552 966 473 971Q414 971 371 952T299 901T251 826T223 738T210 645T207 557Q207
516 215 468T239 372T280 280T335 201T407 146T494 125Q552 130 607 158Q630 170 654 187T701 231T744 291T778 371L909 307Q892 245 862 199T793 120T714 64T635 29T566 9T518 0L498 -57Q517 -57 535 -64T569 -86T593 -119T602 -164Q602 -197 591 -220T563 -257T524
-278T483 -285Z" />
<glyph unicode="&#xe8;" glyph-name="egrave" horiz-adv-x="967" d="M207 588Q205 577 206 567T207 545Q207 445 227 377T277 263T344 194T413 159T468 145T496 143Q495 143 510 144T549 152T605 173T666 212T724 276T768 371L891 336Q876 274 851 226T796 142T731
81T663 39Q585 -1 496 -8Q408 -8 341 18T224 90T142 193T90 314T62 441T53 561Q53 613 59 675T82 800T130 922T211 1027T332 1100T502 1128Q519 1128 557 1125T644 1105T743 1055T836 961T906 810T934 588H207ZM496 975Q427 970 369 942Q344 930 320 912T274 867T237
804T215 721H764Q758 780 732 827T669 907T586 957T496 975ZM432 1181L125 1409L242 1523L504 1251L432 1181Z" />
<glyph unicode="&#xe9;" glyph-name="eacute" horiz-adv-x="967" d="M207 588Q205 577 206 567T207 545Q207 445 227 377T277 263T344 194T413 159T468 145T496 143Q495 143 510 144T549 152T605 173T666 212T724 276T768 371L891 336Q876 274 851 226T796 142T731
81T663 39Q585 -1 496 -8Q408 -8 341 18T224 90T142 193T90 314T62 441T53 561Q53 613 59 675T82 800T130 922T211 1027T332 1100T502 1128Q519 1128 557 1125T644 1105T743 1055T836 961T906 810T934 588H207ZM496 975Q427 970 369 942Q344 930 320 912T274 867T237
804T215 721H764Q758 780 732 827T669 907T586 957T496 975ZM536 1179L479 1253L737 1538L844 1407L536 1179Z" />
<glyph unicode="&#xea;" glyph-name="ecircumflex" horiz-adv-x="967" d="M207 588Q205 577 206 567T207 545Q207 445 227 377T277 263T344 194T413 159T468 145T496 143Q495 143 510 144T549 152T605 173T666 212T724 276T768 371L891 336Q876 274 851 226T796
142T731 81T663 39Q585 -1 496 -8Q408 -8 341 18T224 90T142 193T90 314T62 441T53 561Q53 613 59 675T82 800T130 922T211 1027T332 1100T502 1128Q519 1128 557 1125T644 1105T743 1055T836 961T906 810T934 588H207ZM496 975Q427 970 369 942Q344 930 320 912T274
867T237 804T215 721H764Q758 780 732 827T669 907T586 957T496 975ZM586 1186L463 1476H516L412 1181L287 1245L441 1534H547L699 1245L586 1186Z" />
<glyph unicode="&#xeb;" glyph-name="edieresis" horiz-adv-x="967" d="M207 588Q205 577 206 567T207 545Q207 445 227 377T277 263T344 194T413 159T468 145T496 143Q495 143 510 144T549 152T605 173T666 212T724 276T768 371L891 336Q876 274 851 226T796
142T731 81T663 39Q585 -1 496 -8Q408 -8 341 18T224 90T142 193T90 314T62 441T53 561Q53 613 59 675T82 800T130 922T211 1027T332 1100T502 1128Q519 1128 557 1125T644 1105T743 1055T836 961T906 810T934 588H207ZM496 975Q427 970 369 942Q344 930 320 912T274
867T237 804T215 721H764Q758 780 732 827T669 907T586 957T496 975ZM746 1300Q746 1279 738 1261T717 1229T686 1208T648 1200Q628 1200 610 1207T579 1228T557 1260T549 1300Q549 1320 557 1338T578 1369T610 1391T648 1399Q668 1399 685 1391T716 1370T738 1338T746
1300ZM437 1300Q437 1257 409 1229T338 1200Q298 1200 270 1228T242 1300Q242 1320 249 1338T270 1369T300 1391T338 1399Q359 1399 377 1391T408 1370T429 1338T437 1300Z" />
<glyph unicode="&#xec;" glyph-name="igrave" horiz-adv-x="410" d="M279 1024V25H111V1036L279 1024ZM175 1104L-132 1332L-15 1446L247 1174L175 1104Z" />
<glyph unicode="&#xed;" glyph-name="iacute" horiz-adv-x="410" d="M279 1024V25H111V1036L279 1024ZM245 1096L188 1170L446 1455L553 1324L245 1096Z" />
<glyph unicode="&#xee;" glyph-name="icircumflex" horiz-adv-x="410" d="M279 1024V25H111V1036L279 1024ZM299 1361L176 1651H229L125 1356L0 1420L154 1709H260L412 1420L299 1361Z" />
<glyph unicode="&#xef;" glyph-name="idieresis" horiz-adv-x="410" d="M279 1024V25H111V1036L279 1024ZM714 1467Q714 1446 706 1428T685 1396T654 1375T616 1367Q596 1367 578 1374T547 1395T525 1427T517 1467Q517 1487 525 1505T546 1536T578 1558T616 1566Q636
1566 653 1558T684 1537T706 1505T714 1467ZM405 1467Q405 1424 377 1396T306 1367Q266 1367 238 1395T210 1467Q210 1487 217 1505T238 1536T268 1558T306 1566Q327 1566 345 1558T376 1537T397 1505T405 1467Z" />
<glyph unicode="&#xf0;" glyph-name="eth" horiz-adv-x="975" d="M705 1311Q804 1147 852 969T907 594V592Q906 449 873 336T781 143T646 22T481 -20Q392 -20 314 24T178 149T87 343T53 596Q53 715 82 813T167 983T302 1093T481 1133Q515 1133 545 1129T604 1116Q586
1147 566 1178T522 1241L383 1190L338 1333L422 1360Q396 1386 367 1413T307 1466L500 1559Q516 1544 536 1524Q553 1507 576 1482T625 1423L782 1473L819 1354L705 1311ZM752 594Q752 684 736 758T687 885T602 968T481 997Q418 997 368 968T282 886T228 758T209
594Q209 489 230 404T288 258T374 164T481 131Q537 131 586 163T672 255T730 400T752 594Z" />
<glyph unicode="&#xf1;" glyph-name="ntilde" horiz-adv-x="932" d="M723 -4Q715 148 708 269T694 477Q687 577 680 655Q672 776 650 837T592 899Q557 899 521 855T450 738T384 572T326 379T280 183T250 8L113 4Q119 170 119 319Q119 475 114 604T103 828Q96 938
88 1026L281 1018V616Q304 682 322 727T352 800Q366 833 375 852Q401 901 432 939T496 1004T564 1045T631 1059Q663 1059 691 1045T740 1001T777 925T801 813Q817 705 829 577Q840 467 849 320T860 4L723 -4ZM693 1385Q701 1362 706 1338T711 1289Q711 1257 701
1228T671 1177T626 1141T568 1127Q528 1127 501 1147T455 1192T421 1237T390 1258Q365 1258 358 1241T351 1203Q351 1185 355 1168T365 1136L240 1127Q238 1143 237 1159T236 1191Q236 1222 244 1255T269 1317T312 1363T375 1381Q420 1381 445 1361T487 1317T519
1272T562 1252Q582 1252 590 1265T598 1299Q598 1319 592 1338T576 1375L693 1385Z" />
<glyph unicode="&#xf2;" glyph-name="ograve" horiz-adv-x="961" d="M907 596Q907 452 874 338T783 145T647 23T481 -20Q392 -20 314 24T178 149T87 343T53 596Q53 715 82 813T167 983T302 1093T481 1133Q591 1133 671 1094T803 983T881 814T907 596ZM752 594Q752
684 736 758T687 885T602 968T481 997Q418 997 368 968T282 886T228 758T209 594Q209 489 230 404T288 258T374 164T481 131Q537 131 586 163T672 255T730 400T752 594ZM391 1191L84 1419L201 1533L463 1261L391 1191Z" />
<glyph unicode="&#xf3;" glyph-name="oacute" horiz-adv-x="961" d="M907 596Q907 452 874 338T783 145T647 23T481 -20Q392 -20 314 24T178 149T87 343T53 596Q53 715 82 813T167 983T302 1093T481 1133Q591 1133 671 1094T803 983T881 814T907 596ZM752 594Q752
684 736 758T687 885T602 968T481 997Q418 997 368 968T282 886T228 758T209 594Q209 489 230 404T288 258T374 164T481 131Q537 131 586 163T672 255T730 400T752 594ZM569 1185L512 1259L770 1544L877 1413L569 1185Z" />
<glyph unicode="&#xf4;" glyph-name="ocircumflex" horiz-adv-x="961" d="M907 596Q907 452 874 338T783 145T647 23T481 -20Q392 -20 314 24T178 149T87 343T53 596Q53 715 82 813T167 983T302 1093T481 1133Q591 1133 671 1094T803 983T881 814T907 596ZM752
594Q752 684 736 758T687 885T602 968T481 997Q418 997 368 968T282 886T228 758T209 594Q209 489 230 404T288 258T374 164T481 131Q537 131 586 163T672 255T730 400T752 594ZM573 1192L450 1482H503L399 1187L274 1251L428 1540H534L686 1251L573 1192Z" />
<glyph unicode="&#xf5;" glyph-name="otilde" horiz-adv-x="961" d="M907 596Q907 452 874 338T783 145T647 23T481 -20Q392 -20 314 24T178 149T87 343T53 596Q53 715 82 813T167 983T302 1093T481 1133Q591 1133 671 1094T803 983T881 814T907 596ZM752 594Q752
684 736 758T687 885T602 968T481 997Q418 997 368 968T282 886T228 758T209 594Q209 489 230 404T288 258T374 164T481 131Q537 131 586 163T672 255T730 400T752 594ZM699 1452Q707 1429 712 1405T717 1356Q717 1324 707 1295T677 1244T632 1208T574 1194Q534
1194 507 1214T461 1259T427 1304T396 1325Q371 1325 364 1308T357 1270Q357 1252 361 1235T371 1203L246 1194Q244 1210 243 1226T242 1258Q242 1289 250 1322T275 1384T318 1430T381 1448Q426 1448 451 1428T493 1384T525 1339T568 1319Q588 1319 596 1332T604
1366Q604 1386 598 1405T582 1442L699 1452Z" />
<glyph unicode="&#xf6;" glyph-name="odieresis" horiz-adv-x="961" d="M907 596Q907 452 874 338T783 145T647 23T481 -20Q392 -20 314 24T178 149T87 343T53 596Q53 715 82 813T167 983T302 1093T481 1133Q591 1133 671 1094T803 983T881 814T907 596ZM752 594Q752
684 736 758T687 885T602 968T481 997Q418 997 368 968T282 886T228 758T209 594Q209 489 230 404T288 258T374 164T481 131Q537 131 586 163T672 255T730 400T752 594ZM731 1282Q731 1261 723 1243T702 1211T671 1190T633 1182Q613 1182 595 1189T564 1210T542
1242T534 1282Q534 1302 542 1320T563 1351T595 1373T633 1381Q653 1381 670 1373T701 1352T723 1320T731 1282ZM422 1282Q422 1239 394 1211T323 1182Q283 1182 255 1210T227 1282Q227 1302 234 1320T255 1351T285 1373T323 1381Q344 1381 362 1373T393 1352T414
1320T422 1282Z" />
<glyph unicode="&#xf7;" glyph-name="divide" horiz-adv-x="819" d="M485 426Q485 392 460 367T401 342Q367 342 342 367T317 426Q317 444 324 459T342 485T369 503T401 510Q418 510 433 504T459 486T478 459T485 426ZM506 856Q506 822 481 797T422 772Q388 772
363 797T338 856Q338 874 345 889T363 915T390 933T422 940Q439 940 454 934T480 916T499 889T506 856ZM84 567V717H735V567H84Z" />
<glyph unicode="&#xf8;" glyph-name="oslash" horiz-adv-x="961" d="M766 1026Q838 955 872 845T907 596Q907 452 874 338T783 145T647 23T481 -20Q427 -20 378 -4T283 43L262 0L156 16L203 117Q134 198 94 319T53 596Q53 715 82 813T167 983T302 1093T481 1133Q532
1133 576 1124T659 1098L700 1184L823 1141L766 1026ZM752 594Q752 681 737 751T692 874L350 180Q408 131 481 131Q537 131 586 163T672 255T730 400T752 594ZM209 594Q209 497 226 417T276 276L600 969Q546 997 481 997Q418 997 368 968T282 886T228 758T209 594Z"
/>
<glyph unicode="&#xf9;" glyph-name="ugrave" horiz-adv-x="981" d="M850 1028L829 -8H705L692 340Q670 274 645 224T593 136T540 72T488 27Q430 -14 371 -23Q292 -23 239 13T153 121T106 300T92 549Q92 658 99 783T119 1055L301 1040Q275 865 264 734T252 506Q252
413 260 349T280 243T306 178T335 144T360 131T377 129Q415 129 450 162T516 250T573 377T622 526T661 682T691 829T710 949T719 1028H850ZM459 1082L152 1310L269 1424L531 1152L459 1082Z" />
<glyph unicode="&#xfa;" glyph-name="uacute" horiz-adv-x="981" d="M850 1028L829 -8H705L692 340Q670 274 645 224T593 136T540 72T488 27Q430 -14 371 -23Q292 -23 239 13T153 121T106 300T92 549Q92 658 99 783T119 1055L301 1040Q275 865 264 734T252 506Q252
413 260 349T280 243T306 178T335 144T360 131T377 129Q415 129 450 162T516 250T573 377T622 526T661 682T691 829T710 949T719 1028H850ZM528 1063L471 1137L729 1422L836 1291L528 1063Z" />
<glyph unicode="&#xfb;" glyph-name="ucircumflex" horiz-adv-x="981" d="M850 1028L829 -8H705L692 340Q670 274 645 224T593 136T540 72T488 27Q430 -14 371 -23Q292 -23 239 13T153 121T106 300T92 549Q92 658 99 783T119 1055L301 1040Q275 865 264 734T252
506Q252 413 260 349T280 243T306 178T335 144T360 131T377 129Q415 129 450 162T516 250T573 377T622 526T661 682T691 829T710 949T719 1028H850ZM573 1095L450 1385H503L399 1090L274 1154L428 1443H534L686 1154L573 1095Z" />
<glyph unicode="&#xfc;" glyph-name="udieresis" horiz-adv-x="981" d="M850 1028L829 -8H705L692 340Q670 274 645 224T593 136T540 72T488 27Q430 -14 371 -23Q292 -23 239 13T153 121T106 300T92 549Q92 658 99 783T119 1055L301 1040Q275 865 264 734T252
506Q252 413 260 349T280 243T306 178T335 144T360 131T377 129Q415 129 450 162T516 250T573 377T622 526T661 682T691 829T710 949T719 1028H850ZM733 1205Q733 1184 725 1166T704 1134T673 1113T635 1105Q615 1105 597 1112T566 1133T544 1165T536 1205Q536
1225 544 1243T565 1274T597 1296T635 1304Q655 1304 672 1296T703 1275T725 1243T733 1205ZM424 1205Q424 1162 396 1134T325 1105Q285 1105 257 1133T229 1205Q229 1225 236 1243T257 1274T287 1296T325 1304Q346 1304 364 1296T395 1275T416 1243T424 1205Z"
/>
<glyph unicode="&#xfd;" glyph-name="yacute" horiz-adv-x="950" d="M870 1049Q864 979 858 898T848 731T839 560T832 395Q824 209 819 20Q814 -84 788 -172T712 -324T589 -424T418 -461Q355 -459 295 -445Q269 -439 242 -430T189 -407T138 -375T94 -332L172 -219Q205
-257 243 -278T315 -309T377 -321T414 -324Q479 -324 525 -299T603 -229T652 -123T679 10T691 161T694 322V334Q664 242 629 179T557 73T487 8T426 -27T381 -40T358 -43Q283 -43 232 -2T150 118T106 308T92 561Q92 674 99 802T119 1075L301 1061Q275 884 264 752T252
520Q252 420 260 351T282 236T310 165T340 127T365 112T379 109Q417 109 451 144T516 237T573 370T622 528T661 692T691 845T710 969T719 1049H870ZM516 1080L459 1154L717 1439L824 1308L516 1080Z" />
<glyph unicode="&#xfe;" glyph-name="thorn" horiz-adv-x="1038" d="M987 582Q987 457 960 343T880 141T751 3T578 -49Q512 -46 450 -22Q424 -12 397 3T343 41T293 94T252 166V-360H111V1487H236V874Q255 916 280 947T333 1002T390 1041T447 1068Q512 1093 582
1096Q669 1096 742 1061T869 958T954 796T987 582ZM840 545Q840 556 841 566T842 588Q842 691 814 762T744 879T653 944T559 965Q514 965 462 942T364 868T290 741T260 555Q260 467 273 400T309 283T361 198T422 143T485 113T543 104Q615 104 668 136T758 226T814
365T840 545Z" />
<glyph unicode="&#xff;" glyph-name="ydieresis" horiz-adv-x="950" d="M870 1049Q864 979 858 898T848 731T839 560T832 395Q824 209 819 20Q814 -84 788 -172T712 -324T589 -424T418 -461Q355 -459 295 -445Q269 -439 242 -430T189 -407T138 -375T94 -332L172
-219Q205 -257 243 -278T315 -309T377 -321T414 -324Q479 -324 525 -299T603 -229T652 -123T679 10T691 161T694 322V334Q664 242 629 179T557 73T487 8T426 -27T381 -40T358 -43Q283 -43 232 -2T150 118T106 308T92 561Q92 674 99 802T119 1075L301 1061Q275 884
264 752T252 520Q252 420 260 351T282 236T310 165T340 127T365 112T379 109Q417 109 451 144T516 237T573 370T622 528T661 692T691 845T710 969T719 1049H870ZM758 1248Q758 1227 750 1209T729 1177T698 1156T660 1148Q640 1148 622 1155T591 1176T569 1208T561
1248Q561 1268 569 1286T590 1317T622 1339T660 1347Q680 1347 697 1339T728 1318T750 1286T758 1248ZM449 1248Q449 1205 421 1177T350 1148Q310 1148 282 1176T254 1248Q254 1268 261 1286T282 1317T312 1339T350 1347Q371 1347 389 1339T420 1318T441 1286T449
1248Z" />
<glyph unicode="&#x2013;" glyph-name="endash" horiz-adv-x="1008" d="M94 567V717H913V567H94Z" />
<glyph unicode="&#x2014;" glyph-name="emdash" horiz-adv-x="1415" d="M94 567V717H1321V567H94Z" />
<glyph unicode="&#x2018;" glyph-name="quoteleft" horiz-adv-x="293" d="M51 1194Q51 1230 60 1266T89 1332T136 1385T203 1415L229 1384Q203 1370 183 1344T160 1286Q194 1281 216 1255T238 1194Q238 1174 231 1157T210 1127T180 1107T143 1100Q124 1100 107
1107T78 1127T58 1157T51 1194Z" />
<glyph unicode="&#x2019;" glyph-name="quoteright" horiz-adv-x="291" d="M246 1321Q246 1285 237 1249T208 1183T161 1130T94 1100L68 1130Q94 1144 114 1171T137 1229Q103 1234 81 1260T59 1321Q59 1341 66 1358T87 1388T117 1408T154 1415Q173 1415 190 1408T219
1388T239 1358T246 1321Z" />
<glyph unicode="&#x201a;" glyph-name="quotesinglbase" horiz-adv-x="309" d="M246 98Q246 62 237 26T208 -40T161 -92T94 -123L68 -92Q94 -78 114 -52T137 6Q103 11 81 37T59 98Q59 118 66 135T87 165T117 185T154 193Q173 193 190 186T219 166T239 136T246 98Z" />
<glyph unicode="&#x201c;" glyph-name="quotedblleft" horiz-adv-x="518" d="M276 1196Q276 1232 285 1268T314 1334T362 1387T428 1417L455 1386Q429 1372 408 1346T385 1288Q419 1283 441 1257T463 1196Q463 1176 456 1159T435 1129T405 1109T369 1102Q330 1102
303 1129T276 1196ZM51 1196Q51 1232 60 1268T89 1334T136 1387T203 1417L229 1386Q203 1372 183 1346T160 1288Q194 1283 216 1257T238 1196Q238 1176 231 1159T210 1129T180 1109T143 1102Q124 1102 107 1109T78 1129T58 1159T51 1196Z" />
<glyph unicode="&#x201d;" glyph-name="quotedblright" horiz-adv-x="516" d="M246 1323Q246 1287 237 1251T208 1185T161 1132T94 1102L68 1133Q94 1147 114 1173T137 1231Q103 1236 81 1262T59 1323Q59 1343 66 1360T87 1390T117 1410T154 1417Q173 1417 190
1410T219 1390T239 1360T246 1323ZM471 1323Q471 1287 462 1251T433 1185T386 1132T319 1102L293 1133Q319 1147 339 1173T362 1231Q328 1236 307 1262T285 1323Q285 1343 292 1360T313 1390T343 1410T379 1417Q398 1417 415 1410T444 1390T464 1360T471 1323Z"
/>
<glyph unicode="&#x201e;" glyph-name="quotedblbase" horiz-adv-x="535" d="M246 98Q246 62 237 26T208 -40T161 -92T94 -123L68 -92Q94 -78 114 -52T137 6Q103 11 81 37T59 98Q59 118 66 135T87 165T117 185T154 193Q173 193 190 186T219 166T239 136T246 98ZM471
98Q471 62 462 26T433 -40T386 -92T319 -123L293 -92Q319 -78 339 -52T362 6Q328 11 307 37T285 98Q285 118 292 135T313 165T343 185T379 193Q398 193 415 186T444 166T464 136T471 98Z" />
<glyph unicode="&#x2022;" glyph-name="bullet" horiz-adv-x="563" d="M436 686Q436 654 424 626T391 577T342 543T283 530Q251 530 223 542T173 576T140 626T127 686Q127 717 139 745T173 795T222 829T283 842Q314 842 342 830T391 796T424 746T436 686Z" />
<glyph unicode="&#x2039;" glyph-name="guilsinglleft" horiz-adv-x="483" d="M340 279L66 471V633L367 836L381 655L137 565L406 422L340 279Z" />
<glyph unicode="&#x203a;" glyph-name="guilsinglright" horiz-adv-x="483" d="M117 279L102 459L346 549L78 692L143 836L418 643V483L117 279Z" />
</font>
</defs>
</svg>
