<?xml version="1.0" standalone="no"?>
<!DOCTYPE svg PUBLIC "-//W3C//DTD SVG 1.1//EN" "http://www.w3.org/Graphics/SVG/1.1/DTD/svg11.dtd">
<svg xmlns="http://www.w3.org/2000/svg">
<defs >
<font id="NovaCut" horiz-adv-x="1168" ><font-face
    font-family="Nova Cut"
    units-per-em="2048"
    panose-1="2 12 5 4 2 4 4 6 2 4"
    ascent="1966"
    descent="-506"
    alphabetic="0" />
<glyph unicode=" " glyph-name="space" horiz-adv-x="800" />
<glyph unicode="!" glyph-name="exclam" horiz-adv-x="600" d="M200 -40V188L390 278H400V50L210 -40H200ZM390 1550H400V510L210 420H200V1460L390 1550Z" />
<glyph unicode="&quot;" glyph-name="quotedbl" horiz-adv-x="747" d="M587 1550H597V1066L441 992H431V1476L587 1550ZM306 1550H316V1066L160 992H150V1476L306 1550Z" />
<glyph unicode="#" glyph-name="numbersign" horiz-adv-x="1368" d="M458 222H448V520H150V530L231 702H448V810H150V820L231 992H448V1209L620 1290H630V992H738V1209L910 1290H920V992H1218V982L1137 810H920V702H1218V692L1137 520H920V303L748 222H738V520H630V303L458
222ZM630 702H738V810H630V702Z" />
<glyph unicode="$" glyph-name="dollar" horiz-adv-x="1330" d="M607 -240V-38Q414 -21 295 105Q160 248 160 460L350 550H360V460Q360 329 432 243Q501 161 607 144V754Q459 770 350 871Q250 964 250 1134V1230L607 1505V1700L713 1750H723V1544Q870 1524 956
1454Q1080 1353 1080 1157L890 1067H880V1157Q880 1280 815 1337Q774 1373 723 1385V929Q920 917 1035 817Q1170 700 1170 462V350L723 5V-190L617 -240H607ZM607 936V1386Q549 1373 509 1331Q450 1269 450 1157Q450 1048 495 998Q538 950 607 936ZM723 748V145Q827
162 898 243Q970 325 970 460Q970 590 911 657Q844 733 723 748Z" />
<glyph unicode="%" glyph-name="percent" horiz-adv-x="1983" d="M565 1550Q739 1546 854 1434Q974 1318 976 1064L561 744Q386 748 272 860Q152 976 150 1230L565 1550ZM1418 -40Q1243 -36 1129 76Q1009 192 1007 446L1422 766Q1596 762 1711 650Q1831 534 1833
280L1418 -40ZM1420 118Q1518 118 1576 179Q1635 241 1635 363Q1635 494 1570 553Q1510 607 1420 608Q1322 608 1264 547Q1205 485 1205 363Q1205 232 1270 173Q1330 119 1420 118ZM706 -40L565 28L1274 1550H1284L1425 1482L716 -40H706ZM563 902Q661 902 719
963Q778 1025 778 1147Q778 1278 713 1337Q653 1391 563 1392Q465 1392 407 1331Q348 1269 348 1147Q348 1016 413 957Q473 903 563 902Z" />
<glyph unicode="&amp;" glyph-name="ampersand" horiz-adv-x="1720" d="M994 428L709 768Q552 766 432 649Q360 579 360 454Q360 330 432 243Q511 148 660 148Q765 148 994 428ZM830 914L1132 553L1436 861H1446L1551 811L1204 468L1560 42L1386 -40H1376L1062
341L665 -40Q429 -40 292 121Q162 274 160 528L491 783Q412 813 350 871Q250 965 250 1134V1230L665 1550Q854 1537 956 1454Q1080 1353 1080 1157L890 1067H880V1165Q880 1278 815 1337Q753 1392 665 1392Q567 1392 509 1331Q450 1270 450 1157Q450 1046 495 998Q557
932 653 923T830 914Z" />
<glyph unicode="&apos;" glyph-name="quotesingle" horiz-adv-x="466" d="M306 1550H316V1066L160 992H150V1476L306 1550Z" />
<glyph unicode="(" glyph-name="parenleft" horiz-adv-x="755" d="M705 -240Q477 -240 335 -95Q200 43 200 260V1360L705 1750V1570Q555 1569 472 1467Q400 1379 400 1250V260Q400 128 472 43Q559 -59 705 -60V-240Z" />
<glyph unicode=")" glyph-name="parenright" horiz-adv-x="755" d="M50 -240V-60Q200 -59 283 43Q355 131 355 260V1250Q355 1382 283 1467Q196 1569 50 1570V1750Q278 1750 420 1605Q555 1467 555 1250V150L50 -240Z" />
<glyph unicode="*" glyph-name="asterisk" horiz-adv-x="1183" d="M682 1550V1251L871 1360L1028 1251L1033 1243L773 1093L1033 943L1028 935L871 826L682 935V717L510 636H500V935L311 826L155 935L150 943L409 1093L150 1243L155 1251L311 1360L500 1251V1469L672
1550H682Z" />
<glyph unicode="+" glyph-name="plus" horiz-adv-x="1214" d="M698 1212V846H1064V836L983 664H698V379L526 298H516V664H150V674L231 846H516V1131L688 1212H698Z" />
<glyph unicode="," glyph-name="comma" horiz-adv-x="596" d="M340 278H350Q433 176 446 -13L214 -286L171 -236Q258 -121 258 6Q258 118 150 188L340 278Z" />
<glyph unicode="-" glyph-name="hyphen" horiz-adv-x="1214" d="M150 664V674L231 846H1064V836L983 664H150Z" />
<glyph unicode="." glyph-name="period" horiz-adv-x="600" d="M200 -40V188L390 278H400V50L210 -40H200Z" />
<glyph unicode="/" glyph-name="slash" horiz-adv-x="974" d="M151 -140L10 -72L812 1650H822L964 1582L161 -140H151Z" />
<glyph unicode="0" glyph-name="zero" horiz-adv-x="1410" d="M705 140Q848 140 938 243Q1010 326 1010 460V1050Q1010 1184 938 1267Q849 1370 705 1370Q560 1370 472 1267Q400 1184 400 1050V460Q400 328 472 243Q559 140 705 140ZM705 -40Q477 -40 335 105Q200
243 200 460V1160L705 1550Q933 1550 1075 1405Q1210 1267 1210 1050V350L705 -40Z" />
<glyph unicode="1" glyph-name="one" horiz-adv-x="714" d="M264 -40V1342L20 1228V1343L454 1550H464V50L274 -40H264Z" />
<glyph unicode="2" glyph-name="two" horiz-adv-x="1333" d="M150 0V10L208 130L738 650Q974 876 974 1051Q974 1177 900 1267Q815 1370 667 1370Q527 1370 434 1267Q362 1187 362 1067Q362 1000 401 934L233 853H223Q162 961 162 1160L667 1550Q900 1550 1037
1405Q1172 1261 1172 1071Q1172 804 897 579L375 130H1173V120L1116 0H150Z" />
<glyph unicode="3" glyph-name="three" horiz-adv-x="1330" d="M665 -40Q432 -40 295 105Q160 248 160 460L350 550H360V460Q360 328 432 243Q519 140 665 140Q808 140 898 243Q970 324 970 460Q970 588 911 657Q829 751 664 751Q527 751 442 707L810 1380H249V1390L306
1510H1084V1500L760 926Q914 926 1035 817Q1170 695 1170 462V350L665 -40Z" />
<glyph unicode="4" glyph-name="four" horiz-adv-x="1188" d="M738 -40V522H5V532L62 652L738 1460L928 1550H938V652H1088V642L1031 522H938V50L748 -40H738ZM738 652V1307L234 652H738Z" />
<glyph unicode="5" glyph-name="five" horiz-adv-x="1330" d="M665 -40Q432 -40 295 105Q160 248 160 460L350 550H360V460Q360 328 432 243Q519 140 665 140Q808 140 898 243Q970 326 970 460Q970 589 911 657Q829 751 664 751Q527 751 442 707L250 838L343 1460L449
1510H1083V1500L1026 1380H514L436 843Q604 843 664 931Q909 930 1035 817Q1170 696 1170 462V350L665 -40Z" />
<glyph unicode="6" glyph-name="six" horiz-adv-x="1410" d="M705 -40Q472 -40 335 105Q200 248 200 460V1160L705 1550Q946 1550 1075 1416T1204 1138L1020 1050H1010Q1010 1183 938 1267Q848 1370 705 1370T472 1267Q400 1184 400 1050V726L705 962Q938 962
1075 817Q1210 674 1210 462V350L705 -40ZM705 140Q846 140 938 243Q1010 324 1010 460Q1010 595 938 679Q850 782 705 782Q562 782 472 679Q400 596 400 460Q400 327 472 243Q560 140 705 140Z" />
<glyph unicode="7" glyph-name="seven" horiz-adv-x="1204" d="M290 -40L495 522H137V532L194 652H542L807 1380H120V1390L177 1510H1054V1500L741 652H1084V642L1027 522H693L525 66L300 -40H290Z" />
<glyph unicode="8" glyph-name="eight" horiz-adv-x="1330" d="M665 140Q808 140 898 243Q970 326 970 460Q970 590 911 657Q826 751 664 751Q535 751 432 649Q360 579 360 454Q360 327 432 243Q519 140 665 140ZM665 -40Q429 -40 292 121Q162 274 160 527L491
783Q412 813 350 871Q250 965 250 1134V1229L665 1550Q854 1537 956 1454Q1080 1353 1080 1106L830 914Q956 887 1035 817Q1170 697 1170 462V350L665 -40ZM664 931Q765 931 823 992Q880 1053 880 1165Q880 1279 815 1337Q753 1392 665 1392Q567 1392 509 1331Q450
1270 450 1157Q450 1046 495 998Q557 931 664 931Z" />
<glyph unicode="9" glyph-name="nine" horiz-adv-x="1410" d="M705 -40Q464 -40 335 94T206 372L390 460H400Q400 327 472 243Q562 140 705 140T938 243Q1010 326 1010 460V784L705 548Q472 548 335 693Q200 836 200 1048V1160L705 1550Q938 1550 1075 1405Q1210
1262 1210 1050V350L705 -40ZM705 728Q848 728 938 831Q1010 914 1010 1050Q1010 1183 938 1267Q850 1370 705 1370Q564 1370 472 1267Q400 1186 400 1050Q400 915 472 831Q560 728 705 728Z" />
<glyph unicode=":" glyph-name="colon" horiz-adv-x="600" d="M200 594V822L390 912H400V684L210 594H200ZM200 -40V188L390 278H400V50L210 -40H200Z" />
<glyph unicode=";" glyph-name="semicolon" horiz-adv-x="596" d="M340 278H350Q433 176 446 -13L214 -286L171 -236Q258 -121 258 6Q258 118 150 188L340 278ZM200 594V822L390 912H400V684L210 594H200Z" />
<glyph unicode="&lt;" glyph-name="less" horiz-adv-x="1338" d="M150 664V674L232 847L1089 1215L1138 1112V1102L369 787L1138 461V451L1056 278L150 664Z" />
<glyph unicode="=" glyph-name="equal" horiz-adv-x="1214" d="M150 846V856L231 1028H1064V1018L983 846H150ZM150 482V492L231 664H1064V654L983 482H150Z" />
<glyph unicode="&gt;" glyph-name="greater" horiz-adv-x="1338" d="M1188 829V819L1106 646L249 278L200 381V391L969 706L200 1032V1042L282 1215L1188 829Z" />
<glyph unicode="?" glyph-name="question" horiz-adv-x="1310" d="M655 1550Q888 1550 1025 1405Q1160 1262 1160 1050Q1160 814 831 591Q744 532 741 454L583 379H573Q574 570 736 680Q962 833 962 1051Q962 1180 888 1267Q799 1370 655 1370Q509 1370 422 1267Q350
1183 350 1067Q350 1002 389 934L221 853H211Q150 961 150 1160L655 1550ZM555 -40V188L745 278H755V50L565 -40H555Z" />
<glyph unicode="@" glyph-name="at" horiz-adv-x="1220" d="M870 -40Q684 -27 579 56Q455 154 455 353V429L870 749Q870 871 805 927Q741 982 655 982Q547 982 447 887Q350 796 350 640V50Q350 -81 422 -167Q508 -270 655 -270Q799 -270 888 -167L942 -227L655
-450Q427 -450 285 -305Q150 -167 150 50V750L655 1140Q844 1127 946 1044Q1070 943 1070 747V50L880 -40H870ZM870 118V591Q764 590 714 530Q655 459 655 356Q655 231 720 173Q782 118 870 118Z" />
<glyph unicode="A" glyph-name="A" horiz-adv-x="1410" d="M50 522V532L107 652H200V1160L705 1550Q933 1550 1075 1405Q1210 1267 1210 1050V52L1020 -40H1010V1050Q1010 1184 938 1267Q849 1370 705 1370Q558 1370 472 1267Q400 1181 400 1050V652H870V642L813
522H400V50L210 -40H200V522H50Z" />
<glyph unicode="B" glyph-name="B" horiz-adv-x="1302" d="M200 -40V1460L390 1550H400V100Q646 144 804 263Q996 408 996 575Q996 722 812 822Q713 876 627 900Q845 1023 845 1181Q845 1282 698 1354Q564 1421 409 1441L638 1550H648Q798 1513 887 1438Q1004
1340 1004 1207Q1004 1090 870 985Q960 960 1038 897Q1182 781 1182 618Q1182 376 933 207Q631 4 210 -40H200Z" />
<glyph unicode="C" glyph-name="C" horiz-adv-x="1410" d="M705 -40Q477 -40 335 105Q200 243 200 460V1160L705 1550Q933 1550 1075 1405Q1210 1267 1210 1050L1020 960H1010V1050Q1010 1184 938 1267Q849 1370 705 1370Q560 1370 472 1267Q400 1184 400 1050V460Q400
328 472 243Q559 140 705 140Q848 140 938 243Q1010 326 1010 460L1200 550H1210V350L705 -40Z" />
<glyph unicode="D" glyph-name="D" horiz-adv-x="1338" d="M200 -40V1460L390 1550H400V100Q638 189 797 326Q1026 522 1026 816Q1026 1072 839 1245Q705 1369 411 1441L640 1550H650Q884 1488 1023 1341Q1218 1137 1218 849Q1218 463 870 220Q588 22 210 -40H200Z" />
<glyph unicode="E" glyph-name="E" horiz-adv-x="1133" d="M50 0V10L107 130H200V522H50V532L107 652H200V1460L306 1510H940V1500L883 1380H400V652H870V642L813 522H400V130H1083V120L1026 0H50Z" />
<glyph unicode="F" glyph-name="F" horiz-adv-x="1060" d="M200 -40V522H50V532L107 652H200V1460L306 1510H940V1500L883 1380H400V652H870V642L813 522H400V50L210 -40H200Z" />
<glyph unicode="G" glyph-name="G" horiz-adv-x="1410" d="M705 -40Q477 -40 335 105Q200 243 200 460V1160L705 1550Q933 1550 1075 1405Q1210 1267 1210 1050L1020 960H1010V1050Q1010 1184 938 1267Q849 1370 705 1370Q560 1370 472 1267Q400 1184 400 1050V460Q400
328 472 243Q559 140 705 140Q848 140 938 243Q1010 326 1010 460V522H647V532L704 652H1210V350L705 -40Z" />
<glyph unicode="H" glyph-name="H" horiz-adv-x="1390" d="M990 -40V1460L1180 1550H1190V50L1000 -40H990ZM200 -40V522H50V532L107 652H200V1460L390 1550H400V652H870V642L813 522H400V50L210 -40H200Z" />
<glyph unicode="I" glyph-name="I" horiz-adv-x="600" d="M200 -40V1460L390 1550H400V50L210 -40H200Z" />
<glyph unicode="J" glyph-name="J" horiz-adv-x="1290" d="M585 -40Q357 -40 215 105Q80 243 80 460L270 550H280V460Q280 326 352 243Q441 140 585 140Q730 140 818 243Q890 326 890 460V1328H417V1338L498 1510H1090V350L585 -40Z" />
<glyph unicode="K" glyph-name="K" horiz-adv-x="1364" d="M200 -40V1460L390 1550H400V355Q539 402 663 481L510 700L686 784H696L822 603Q960 777 960 1258V1460L1150 1550H1160V1262Q1160 766 888 509L1214 43L1038 -40H1028L729 387Q576 301 400 255V50L210 -40H200Z" />
<glyph unicode="L" glyph-name="L" horiz-adv-x="1088" d="M50 0V10L107 130H200V1460L390 1550H400V130H1083V120L1026 0H50Z" />
<glyph unicode="M" glyph-name="M" horiz-adv-x="2220" d="M200 -40V1160L705 1550Q935 1550 1075 1405Q1130 1348 1163 1278L1515 1550Q1743 1550 1885 1405Q2020 1267 2020 1050V52L1830 -40H1820V1050Q1820 1184 1748 1267Q1659 1370 1515 1370Q1368 1370 1282
1267Q1210 1181 1210 1050V52V50L1020 -40H1010V1050Q1010 1184 938 1267Q849 1370 705 1370Q558 1370 472 1267Q400 1181 400 1050V50L210 -40H200Z" />
<glyph unicode="N" glyph-name="N" horiz-adv-x="1410" d="M200 -40V1160L705 1550Q933 1550 1075 1405Q1210 1267 1210 1050V52L1020 -40H1010V1050Q1010 1184 938 1267Q849 1370 705 1370Q558 1370 472 1267Q400 1181 400 1050V50L210 -40H200Z" />
<glyph unicode="O" glyph-name="O" horiz-adv-x="1410" d="M705 140Q848 140 938 243Q1010 326 1010 460V1050Q1010 1184 938 1267Q849 1370 705 1370Q560 1370 472 1267Q400 1184 400 1050V460Q400 328 472 243Q559 140 705 140ZM705 -40Q477 -40 335 105Q200
243 200 460V1160L705 1550Q933 1550 1075 1405Q1210 1267 1210 1050V350L705 -40Z" />
<glyph unicode="P" glyph-name="P" horiz-adv-x="1279" d="M200 -40V1460L390 1550H400V355Q593 414 772 556Q973 715 973 951Q973 1135 819 1267Q679 1387 411 1441L640 1550H650Q847 1511 988 1371Q1159 1202 1159 952Q1159 669 837 454Q639 322 400 255V50L210
-40H200Z" />
<glyph unicode="Q" glyph-name="Q" horiz-adv-x="1410" d="M705 -40Q477 -40 335 105Q200 243 200 460V1160L705 1550Q933 1550 1075 1405Q1210 1267 1210 1050V350L1042 220L1166 43L990 -40H980L884 98L705 -40ZM980 309Q1010 374 1010 460V1050Q1010 1184 938
1267Q849 1370 705 1370T472 1267Q400 1183 400 1050V460Q400 328 472 243Q559 140 705 140Q777 140 836 166L663 413L839 497H849L980 309Z" />
<glyph unicode="R" glyph-name="R" horiz-adv-x="1334" d="M200 -40V1460L390 1550H400V355Q533 397 663 481L510 700L686 784H696L822 603Q973 750 973 951Q973 1127 819 1267Q687 1385 411 1441L640 1550H650Q847 1511 988 1371Q1159 1201 1159 952Q1159 698
897 497L1214 43L1038 -40H1028L728 388Q575 304 400 255V50L210 -40H200Z" />
<glyph unicode="S" glyph-name="S" horiz-adv-x="1330" d="M665 -40Q432 -40 295 105Q160 248 160 460L350 550H360V460Q360 328 432 243Q519 140 665 140Q808 140 898 243Q970 326 970 460Q970 589 911 657Q829 751 664 751Q479 751 350 871Q250 964 250 1134V1230L665
1550Q854 1537 956 1454Q1080 1353 1080 1157L890 1067H880V1157Q880 1280 815 1337Q752 1392 665 1392Q568 1392 509 1331T450 1157Q450 1048 495 998Q555 931 664 931Q903 931 1035 817Q1170 700 1170 462V350L665 -40Z" />
<glyph unicode="T" glyph-name="T" horiz-adv-x="1066" d="M433 -40V1380H5V1390L62 1510H1061V1500L1004 1380H633V50L443 -40H433Z" />
<glyph unicode="U" glyph-name="U" horiz-adv-x="1410" d="M705 -40Q477 -40 335 105Q200 243 200 460V1458L390 1550H400V460Q400 326 472 243Q561 140 705 140Q852 140 938 243Q1010 329 1010 460V1460L1200 1550H1210V350L705 -40Z" />
<glyph unicode="V" glyph-name="V" horiz-adv-x="1191" d="M515 -40L5 1468L178 1550H188L630 234L1069 1550H1079L1186 1499L698 42L525 -40H515Z" />
<glyph unicode="W" glyph-name="W" horiz-adv-x="2220" d="M705 -40Q477 -40 335 105Q200 243 200 460V1458L390 1550H400V460Q400 326 472 243Q561 140 705 140Q852 140 938 243Q1010 329 1010 460V1458V1460L1200 1550H1210V460Q1210 326 1282 243Q1371 140
1515 140Q1662 140 1748 243Q1820 329 1820 460V1460L2010 1550H2020V350L1515 -40Q1285 -40 1145 105Q1090 162 1057 232L705 -40Z" />
<glyph unicode="X" glyph-name="X" horiz-adv-x="1278" d="M215 -40H205L100 10L544 719L100 1467L275 1550H285L663 911L1063 1550H1073L1178 1500L735 791L1178 42L1004 -40H994L615 599L215 -40Z" />
<glyph unicode="Y" glyph-name="Y" horiz-adv-x="1278" d="M516 -40V522H229V532L286 652H466L100 1467L275 1550H285L664 690L1063 1550H1073L1178 1500L772 652H1049V642L992 522H716V50L526 -40H516Z" />
<glyph unicode="Z" glyph-name="Z" horiz-adv-x="1267" d="M150 0V10L401 522H150V532L207 652H465L822 1380H163V1390L220 1510H1097V1500L678 652H1097V642L1040 522H614L420 130H1117V120L1060 0H150Z" />
<glyph unicode="[" glyph-name="bracketleft" horiz-adv-x="864" d="M200 -240V1660L390 1750H814V1740L753 1610H400V-100H814V-110L753 -240H200Z" />
<glyph unicode="\" glyph-name="backslash" horiz-adv-x="974" d="M812 -140L10 1582L151 1650H161L964 -72L822 -140H812Z" />
<glyph unicode="]" glyph-name="bracketright" horiz-adv-x="864" d="M50 -240V-230L111 -100H464V1610H50V1620L111 1750H664V-150L474 -240H50Z" />
<glyph unicode="^" glyph-name="asciicircum" horiz-adv-x="1382" d="M772 1550L1232 1088L1059 1006H1049L673 1378L263 1005H253L150 1054L589 1468L762 1550H772Z" />
<glyph unicode="_" glyph-name="underscore" horiz-adv-x="1214" d="M150 -410V-400L231 -228H1064V-238L983 -410H150Z" />
<glyph unicode="`" glyph-name="grave" horiz-adv-x="648" d="M326 1550H336L498 1205L381 1150H371L150 1466L326 1550Z" />
<glyph unicode="a" glyph-name="a" horiz-adv-x="1080" d="M515 118Q620 118 671 179Q730 250 730 356Q730 478 665 536Q603 591 515 591Q410 591 359 530Q300 459 300 356Q300 231 365 173Q428 118 515 118ZM515 -40Q329 -27 224 56Q100 154 100 353V428L515
749Q641 740 730 699V747Q730 868 665 927Q603 982 515 982Q417 982 359 921L304 977L515 1140Q704 1127 806 1044Q930 943 930 747V50L740 -40H730V127L515 -40Z" />
<glyph unicode="b" glyph-name="b" horiz-adv-x="1180" d="M615 118Q710 118 770 179T830 353V747Q830 868 765 927Q704 982 615 982Q518 982 459 921T400 747V353Q400 228 463 173T615 118ZM615 -40Q424 -27 324 56Q200 159 200 353V1460L390 1550H400V973L615
1140Q804 1127 906 1044Q1030 943 1030 747V281L615 -40Z" />
<glyph unicode="c" glyph-name="c" horiz-adv-x="1130" d="M565 -40Q376 -27 274 56Q150 158 150 353V819L565 1140Q754 1127 856 1044Q980 943 980 747L790 657H780V747Q780 868 715 927Q653 982 565 982Q467 981 409 921Q350 860 350 747V353Q350 232 415 173Q477
118 565 118Q663 119 721 179Q780 240 780 353L970 443H980V281L565 -40Z" />
<glyph unicode="d" glyph-name="d" horiz-adv-x="1180" d="M565 118Q661 118 720 179T780 353V747Q780 864 715 927Q658 982 565 982Q470 982 410 921T350 747V353Q350 228 415 173T565 118ZM565 -40Q376 -27 274 56Q150 158 150 353V819L565 1140Q692 1131 780
1091V1460L970 1550H980V281L565 -40Z" />
<glyph unicode="e" glyph-name="e" horiz-adv-x="1130" d="M565 -40Q376 -27 274 56Q150 158 150 353V819L565 1140Q754 1127 856 1044Q980 943 980 747L365 250Q383 200 415 173Q480 118 563 118Q650 118 721 179Q780 230 780 353L970 443H980V281L565 -40ZM350
397L780 746Q780 872 715 927T565 982Q468 982 409 921T350 747V397Z" />
<glyph unicode="f" glyph-name="f" horiz-adv-x="911" d="M200 -40V756H50V766L107 886H200V1229L615 1550Q807 1536 906 1454L765 1337Q697 1392 615 1392Q519 1392 459 1331Q400 1271 400 1157V886H760V876L703 756H400V50L210 -40H200Z" />
<glyph unicode="g" glyph-name="g" horiz-adv-x="1130" d="M481 118T562 118T721 179Q780 228 780 353V747Q780 872 715 927T565 982Q468 982 409 921T350 747V353Q350 227 415 173Q481 118 562 118ZM565 -40Q376 -27 274 56Q150 158 150 353V819L565 1140Q754
1127 856 1044Q980 944 980 747V-129L565 -450Q356 -436 276 -356L415 -237Q474 -292 564 -292Q657 -292 721 -231Q780 -175 780 -57V126L565 -40Z" />
<glyph unicode="h" glyph-name="h" horiz-adv-x="1180" d="M200 -40V1460L390 1550H400V973L615 1140Q804 1127 906 1044Q1030 943 1030 747V50L840 -40H830V747Q830 863 765 927Q709 982 615 982Q518 982 459 921T400 747V50L210 -40H200Z" />
<glyph unicode="i" glyph-name="i" horiz-adv-x="600" d="M200 -40V1050L390 1140H400V50L210 -40H200ZM400 1550V1322L210 1232H200V1460L390 1550H400Z" />
<glyph unicode="j" glyph-name="j" horiz-adv-x="600" d="M63 -383Q-15 -294 -15 -292Q81 -291 141 -231Q200 -171 200 -57V1050L390 1140H400V-122L63 -383ZM400 1550V1322L210 1232H200V1460L390 1550H400Z" />
<glyph unicode="k" glyph-name="k" horiz-adv-x="1180" d="M200 -40V1460L390 1550H400V688L929 1140H939L1029 1059L776 844Q850 820 906 776Q1030 676 1030 479V50L840 -40H830V479Q830 599 765 659Q705 714 615 714Q519 714 460 653T400 479V50L210 -40H200Z" />
<glyph unicode="l" glyph-name="l" horiz-adv-x="600" d="M200 -40V1460L390 1550H400V50L210 -40H200Z" />
<glyph unicode="m" glyph-name="m" horiz-adv-x="1760" d="M150 -40V819L565 1140Q756 1127 856 1044Q908 1001 939 942L1195 1140Q1384 1127 1486 1044Q1610 943 1610 747V50L1420 -40H1410V747Q1410 872 1345 927T1195 982Q1101 982 1039 921Q980 863 980 747V50L790
-40H780V747Q780 872 715 927T565 982Q471 982 409 921Q350 863 350 747V50L160 -40H150Z" />
<glyph unicode="n" glyph-name="n" horiz-adv-x="1130" d="M150 -40V819L565 1140Q754 1127 856 1044Q980 943 980 747V50L790 -40H780V747Q780 872 715 927T565 982Q471 982 409 921Q350 863 350 747V50L160 -40H150Z" />
<glyph unicode="o" glyph-name="o" horiz-adv-x="1130" d="M565 -40Q376 -27 274 56Q150 158 150 353V819L565 1140Q754 1127 856 1044Q980 943 980 747V281L565 -40ZM565 118Q660 118 720 179T780 353V747Q780 872 715 927T565 982Q470 982 410 921T350 747V353Q350
228 415 173T565 118Z" />
<glyph unicode="p" glyph-name="p" horiz-adv-x="1180" d="M531 118T615 118T771 179Q830 231 830 353V747Q830 872 765 927T615 982Q519 982 460 921T400 747V353Q400 228 465 173ZM615 -40Q488 -31 400 9V-360L210 -450H200V819L615 1140Q804 1127 906 1044Q1030
942 1030 747V281L615 -40Z" />
<glyph unicode="q" glyph-name="q" horiz-adv-x="1180" d="M565 118Q661 118 720 179T780 353V747Q780 872 715 927T565 982Q468 982 409 921T350 747V353Q350 234 415 173Q474 118 565 118ZM565 -40Q376 -27 274 56Q150 155 150 353V819L565 1140Q756 1127 856
1044Q980 941 980 747V-360L790 -450H780V127L565 -40Z" />
<glyph unicode="r" glyph-name="r" horiz-adv-x="1030" d="M150 -40V819L565 1140Q754 1127 856 1044Q980 943 980 747L790 657H780V747Q780 872 715 927T564 982Q477 982 409 921Q350 868 350 747V50L160 -40H150Z" />
<glyph unicode="s" glyph-name="s" horiz-adv-x="1070" d="M535 -40Q346 -27 244 56Q120 157 120 353L310 443H320V353Q320 232 385 173Q447 118 535 118Q631 118 690 179T750 352Q750 465 683 507Q625 543 534 543Q300 543 208 651Q162 706 162 851L535 1140Q681
1137 780 1052Q860 983 879 872L689 782H679V811Q679 883 649 920Q599 982 512 982Q426 982 383 928Q352 889 352 832Q352 768 406 730Q436 709 534 709Q749 709 843 626Q950 532 950 281L535 -40Z" />
<glyph unicode="t" glyph-name="t" horiz-adv-x="750" d="M275 -40V970H5V980L62 1100H275V1460L465 1550H475V1100H745V1090L688 970H475V50L285 -40H275Z" />
<glyph unicode="u" glyph-name="u" horiz-adv-x="1130" d="M565 -40Q376 -27 274 56Q150 157 150 353V1050L340 1140H350V353Q350 228 415 173T565 118Q659 118 721 179Q780 237 780 353V1050L970 1140H980V281L565 -40Z" />
<glyph unicode="v" glyph-name="v" horiz-adv-x="947" d="M391 -40L5 1058L178 1140H188L509 219L829 1140H839L942 1091L574 42L401 -40H391Z" />
<glyph unicode="w" glyph-name="w" horiz-adv-x="1760" d="M565 -40Q376 -27 274 56Q150 157 150 353V1050L340 1140H350V353Q350 228 415 173T565 118Q659 118 721 179Q780 237 780 353V1050L970 1140H980V353Q980 228 1045 173T1195 118Q1289 118 1351 179Q1410
237 1410 353V1050L1600 1140H1610V281L1195 -40Q1004 -27 904 56Q852 99 821 158L565 -40Z" />
<glyph unicode="x" glyph-name="x" horiz-adv-x="995" d="M185 -40L80 10L402 515L80 1057L255 1140H265L523 705L800 1140H810L915 1090L593 585L915 42L741 -40H731L473 396L195 -40H185Z" />
<glyph unicode="y" glyph-name="y" horiz-adv-x="1180" d="M565 -40Q376 -27 274 56Q150 157 150 353V1050L340 1140H350V353Q350 228 415 173T564 118Q650 118 721 179Q780 230 780 353V1050L970 1140H980V-129L565 -450Q356 -436 276 -356L415 -237Q475 -292
563 -292Q653 -292 721 -231Q780 -178 780 -57V127L565 -40Z" />
<glyph unicode="z" glyph-name="z" horiz-adv-x="1079" d="M120 0V10L333 390H120V400L177 520H407L659 970H140V980L197 1100H940V1090L621 520H940V510L883 390H548L402 130H959V120L902 0H120Z" />
<glyph unicode="{" glyph-name="braceleft" horiz-adv-x="825" d="M775 -240Q547 -240 405 -95Q270 43 270 260V664H50V674L131 846H270V1360L775 1750V1570Q625 1569 542 1467Q470 1379 470 1250V260Q470 128 542 43Q629 -59 775 -60V-240Z" />
<glyph unicode="|" glyph-name="bar" horiz-adv-x="666" d="M250 -240V1676L406 1750H416V-166L260 -240H250Z" />
<glyph unicode="}" glyph-name="braceright" horiz-adv-x="825" d="M50 -240V-60Q200 -59 283 43Q355 131 355 260V1250Q355 1382 283 1467Q196 1569 50 1570V1750Q278 1750 420 1605Q555 1467 555 1250V846H775V836L694 664H555V150L50 -240Z" />
<glyph unicode="~" glyph-name="asciitilde" horiz-adv-x="1268" d="M204 583H194Q150 643 150 762L387 944Q628 944 720 818Q839 654 889 654Q944 654 944 735Q944 798 896 846L1064 927H1074Q1118 867 1118 749L881 566Q640 566 548 692Q429 856 379 856Q324
856 324 775Q324 712 372 664L204 583Z" />
<glyph unicode="&#xa0;" glyph-name="uni00A0" horiz-adv-x="800" />
<glyph unicode="&#xa1;" glyph-name="exclamdown" horiz-adv-x="600" d="M400 1550V1322L210 1232H200V1460L390 1550H400ZM200 -40V1000L390 1090H400V50L210 -40H200Z" />
<glyph unicode="&#xa2;" glyph-name="cent" horiz-adv-x="1130" d="M507 -240V-34Q360 -14 274 56Q150 157 150 353V819L507 1095V1290L613 1340H623V1134Q770 1114 856 1044Q980 943 980 747L790 657H780V747Q780 868 715 927Q675 963 623 975V125Q681 138 721
179Q780 239 780 353L970 443H980V281L623 5V-190L517 -240H507ZM507 125V975Q449 962 409 921Q350 860 350 747V353Q350 232 415 173Q455 137 507 125Z" />
<glyph unicode="&#xa3;" glyph-name="sterling" horiz-adv-x="1283" d="M100 0V10L157 130H250V522H100V532L157 652H250V1230L665 1550Q854 1537 956 1454Q1080 1353 1080 1157L890 1067H880V1157Q880 1282 815 1337T665 1392Q570 1392 510 1331T450 1157V652H920V642L863
522H450V130H1133V120L1076 0H100Z" />
<glyph unicode="&#xa4;" glyph-name="currency" horiz-adv-x="1395" d="M697 426Q834 426 930 529Q1002 608 1002 748Q1002 874 930 965Q846 1068 696 1068Q557 1068 464 965Q392 885 392 748Q392 610 464 529Q556 426 697 426ZM697 1248Q867 1248 985 1172L1059
1245L1238 1181L1245 1174L1115 1044Q1202 918 1202 748V636L1057 524L1245 336L1238 329L1059 265L911 411L697 246Q521 246 400 329L336 265L157 329L150 336L273 459Q192 575 192 746V858L344 976L150 1174L157 1181L336 1245L492 1090L697 1248Z" />
<glyph unicode="&#xa5;" glyph-name="yen" horiz-adv-x="1278" d="M516 -40V522H229V532L286 652H466L420 754H229V764L286 884H362L100 1467L275 1550H285L579 884H754L1063 1550H1073L1178 1500L883 884H1049V874L992 754H821L772 652H1049V642L992 522H716V50L526
-40H516ZM694 754H636L664 690L694 754Z" />
<glyph unicode="&#xa6;" glyph-name="brokenbar" horiz-adv-x="666" d="M250 -240V587L406 661H416V-166L260 -240H250ZM406 1750H416V923L260 849H250V1676L406 1750Z" />
<glyph unicode="&#xa7;" glyph-name="section" horiz-adv-x="1130" d="M565 -40Q419 -37 320 48Q240 117 221 228L411 318H421V289Q421 217 451 180Q501 118 573 118Q673 118 717 172Q748 210 748 268Q748 332 694 370Q664 391 566 391Q351 391 257 474Q150 568
150 797L328 935L409 921Q350 860 350 748Q351 634 417 593Q475 557 566 557Q806 557 892 449Q936 394 938 248L565 -40ZM565 1550Q711 1547 810 1462Q890 1393 909 1282L719 1192H709V1221Q709 1293 679 1330Q629 1392 557 1392Q457 1392 413 1338Q382 1300 382
1242Q382 1178 436 1140Q466 1119 564 1119Q779 1119 873 1036Q980 942 980 711L802 573L721 589Q780 650 780 762Q779 876 713 917Q655 953 564 953Q324 953 238 1061Q194 1116 192 1262L565 1550Z" />
<glyph unicode="&#xa8;" glyph-name="dieresis" horiz-adv-x="773" d="M613 1550H623V1322L433 1232H423V1460L613 1550ZM340 1550H350V1322L160 1232H150V1460L340 1550Z" />
<glyph unicode="&#xa9;" glyph-name="copyright" horiz-adv-x="1401" d="M696 1178Q832 1178 908 1097Q982 1018 982 887L868 832H832V902Q832 962 803 995Q765 1038 706 1038Q649 1038 607 995Q578 965 578 902V608Q578 546 607 515Q647 472 706 472T803 515Q832
549 832 608V623L947 678H982V539L714 332Q579 332 502 413Q428 492 428 608V970L696 1178ZM701 1331Q811 1331 911 1288Q1007 1247 1090 1161Q1170 1078 1211 975Q1251 874 1251 754Q1251 638 1211 535Q1173 437 1090 350Q1011 267 911 223Q813 180 701 180Q590
180 490 223Q394 264 311 350Q230 434 190 535T150 754Q150 873 190 975T311 1161Q392 1246 490 1288T701 1331ZM701 1251Q603 1251 520 1215T366 1105Q296 1032 260 944T224 759V754Q224 655 260 566Q294 483 366 406Q436 332 519 296Q604 259 701 259T883 296Q966
332 1037 406Q1106 478 1141 565T1176 754Q1176 857 1141 945Q1107 1031 1037 1105Q968 1178 883 1215Q798 1251 701 1251Z" />
<glyph unicode="&#xaa;" glyph-name="ordfeminine" horiz-adv-x="955" d="M150 664V674L231 846H805V836L724 664H150ZM476 1038Q511 1038 540 1062Q565 1083 565 1137Q565 1190 539 1213Q514 1235 478 1235Q439 1235 415 1212Q390 1188 390 1137Q390 1082 416
1061Q443 1038 476 1038ZM471 1550Q580 1543 636 1497Q705 1440 705 1333V972L594 919H565V982L484 919Q379 925 320 972Q252 1026 250 1184L471 1355Q522 1354 564 1338Q564 1387 539 1408Q513 1430 478 1430Q434 1430 401 1393L340 1448L471 1550Z" />
<glyph unicode="&#xab;" glyph-name="guillemotleft" horiz-adv-x="1189" d="M874 1284H884L989 1234L727 823L985 386L811 304H801L535 753L874 1284ZM489 1284H499L604 1234L342 823L600 386L426 304H416L150 753L489 1284Z" />
<glyph unicode="&#xac;" glyph-name="logicalnot" horiz-adv-x="1214" d="M742 402L864 664H150V674L231 846H1064V836L857 402H742Z" />
<glyph unicode="&#xad;" glyph-name="uni00AD" horiz-adv-x="1214" d="M150 664V674L231 846H1064V836L983 664H150Z" />
<glyph unicode="&#xae;" glyph-name="registered" horiz-adv-x="1401" d="M445 360V1103L559 1155H595V1115L684 1155H697Q803 1136 882 1068Q975 988 975 868Q975 742 852 624L1014 414L895 360H871L726 542Q664 524 595 513V412L481 360H445ZM784 722Q832 792
832 862Q832 949 750 998Q692 1033 595 1046V743L707 797H731L784 722ZM595 729V593Q631 607 666 628L595 729ZM701 1331Q811 1331 911 1288Q1007 1247 1090 1161Q1170 1078 1211 975Q1251 874 1251 754Q1251 638 1211 535Q1173 437 1090 350Q1011 267 911 223Q813
180 701 180Q590 180 490 223Q394 264 311 350Q230 434 190 535T150 754Q150 873 190 975T311 1161Q392 1246 490 1288T701 1331ZM701 1251Q603 1251 520 1215T366 1105Q296 1032 260 944T224 759V754Q224 655 260 566Q294 483 366 406Q436 332 519 296Q604 259
701 259T883 296Q966 332 1037 406Q1106 478 1141 565T1176 754Q1176 857 1141 945Q1107 1031 1037 1105Q968 1178 883 1215Q798 1251 701 1251Z" />
<glyph unicode="&#xaf;" glyph-name="overscore" horiz-adv-x="1214" d="M150 1328V1338L231 1510H1064V1500L983 1328H150Z" />
<glyph unicode="&#xb0;" glyph-name="degree" horiz-adv-x="1126" d="M565 1550Q739 1546 854 1434Q974 1318 976 1064L561 744Q386 748 272 860Q152 976 150 1230L565 1550ZM563 902Q661 902 719 963Q778 1025 778 1147Q778 1278 713 1337Q653 1391 563 1392Q465
1392 407 1331Q348 1269 348 1147Q348 1016 413 957Q473 903 563 902Z" />
<glyph unicode="&#xb1;" glyph-name="plusminus" horiz-adv-x="1214" d="M150 243V253L231 425H1064V415L983 243H150ZM698 1383V1017H1064V1007L983 835H698V550L526 469H516V835H150V845L231 1017H516V1302L688 1383H698Z" />
<glyph unicode="&#xb2;" glyph-name="uni00B2" horiz-adv-x="862" d="M424 1550Q564 1550 637 1473Q711 1395 711 1289Q711 1152 565 1044L303 850H712V814L681 750H150V786L183 850L452 1091Q562 1190 562 1283Q562 1337 531 1369Q491 1410 434 1410Q374 1410
336 1367Q306 1333 306 1288Q306 1249 335 1206L222 1152H197Q156 1210 156 1343L424 1550Z" />
<glyph unicode="&#xb3;" glyph-name="uni00B3" horiz-adv-x="855" d="M244 1510H683L504 1226Q572 1216 629 1168Q705 1103 705 978V917L437 710Q299 710 224 787Q150 863 150 990L268 1055H300V985Q300 929 330 893Q366 850 428 850Q487 850 525 893Q555 927
555 989Q555 1040 532 1067Q499 1105 424 1106H298L476 1412H202V1448L244 1510Z" />
<glyph unicode="&#xb4;" glyph-name="acute" horiz-adv-x="648" d="M312 1550H322L498 1466L277 1150H267L150 1205L312 1550Z" />
<glyph unicode="&#xb5;" glyph-name="uni00B5" horiz-adv-x="1130" d="M150 -450V1050L340 1140H350V353Q350 232 415 173Q477 118 564 118Q653 118 721 179Q780 232 780 353V1050L970 1140H980V280L565 -40Q438 -31 350 9V-360L160 -450H150Z" />
<glyph unicode="&#xb6;" glyph-name="paragraph" horiz-adv-x="1180" d="M780 -40V740L565 574Q376 587 274 670Q150 771 150 967V1229L565 1550Q756 1537 856 1454Q980 1351 980 1157V50L914 19V1157H850V-12L790 -40H780Z" />
<glyph unicode="&#xb7;" glyph-name="middot" horiz-adv-x="600" d="M200 594V822L390 912H400V684L210 594H200Z" />
<glyph unicode="&#xb8;" glyph-name="cedilla" horiz-adv-x="596" d="M350 -450Q350 -450 340 -450L150 -360Q258 -290 258 -178Q257 -63 171 64L214 114L446 -159Q433 -348 350 -450Z" />
<glyph unicode="&#xb9;" glyph-name="uni00B9" horiz-adv-x="672" d="M386 1550H422V764L308 710H272V1382L150 1325V1437L386 1550Z" />
<glyph unicode="&#xba;" glyph-name="ordmasculine" horiz-adv-x="955" d="M150 664V674L231 846H805V836L724 664H150ZM471 1550Q573 1548 636 1497Q705 1441 705 1333V1090L484 919Q373 927 319 972Q250 1029 250 1136V1379L471 1550ZM476 1038Q515 1038 541
1063Q565 1086 565 1136V1333Q565 1385 539 1408Q515 1430 479 1430Q437 1430 414 1406Q390 1381 390 1333V1136Q390 1084 416 1061Q440 1038 476 1038Z" />
<glyph unicode="&#xbb;" glyph-name="guillemotright" horiz-adv-x="1189" d="M378 1284H388L654 835L315 304H305L200 354L463 765L204 1202L378 1284ZM763 1284H773L1039 835L700 304H690L585 354L848 765L589 1202L763 1284Z" />
<glyph unicode="&#xbc;" glyph-name="onequarter" horiz-adv-x="1469" d="M856 336H1044V580L856 336ZM1044 -40V232H678V268L708 330L1053 750L1158 800H1194V336H1269V300L1236 232H1194V14L1080 -40H1044ZM386 1550H422V764L308 710H272V1382L150 1325V1437L386
1550ZM352 -40L211 28L920 1550H930L1071 1482L362 -40H352Z" />
<glyph unicode="&#xbd;" glyph-name="onehalf" horiz-adv-x="1536" d="M774 0V36L807 100L1076 341Q1186 440 1186 533Q1186 587 1155 619Q1115 660 1058 660Q998 660 960 617Q930 583 930 538Q930 499 959 456L846 402H821Q780 460 780 593L1048 800Q1188 800
1261 723Q1335 645 1335 539Q1335 402 1189 294L927 100H1336V64L1305 0H774ZM386 1550H422V764L308 710H272V1382L150 1325V1437L386 1550ZM352 -40L211 28L920 1550H930L1071 1482L362 -40H352Z" />
<glyph unicode="&#xbe;" glyph-name="threequarters" horiz-adv-x="1665" d="M1052 336H1240V580L1052 336ZM1240 -40V232H874V268L904 330L1249 750L1354 800H1390V336H1465V300L1432 232H1390V14L1276 -40H1240ZM244 1510H683L504 1226Q572 1216 629 1168Q705
1103 705 978V917L437 710Q299 710 224 787Q150 863 150 990L268 1055H300V985Q300 929 330 893Q366 850 428 850Q487 850 525 893Q555 927 555 989Q555 1040 532 1067Q499 1105 424 1106H298L476 1412H214V1448L244 1510ZM548 -40L407 28L1116 1550H1126L1267
1482L558 -40H548Z" />
<glyph unicode="&#xbf;" glyph-name="questiondown" horiz-adv-x="1310" d="M655 -40Q422 -40 285 105Q150 248 150 460Q150 696 479 919Q566 978 569 1056L727 1131H737Q736 940 574 830Q348 677 348 459Q348 330 422 243Q511 140 655 140Q801 140 888 243Q960
327 960 443Q960 508 921 576L1089 657H1099Q1160 549 1160 350L655 -40ZM755 1550V1322L565 1232H555V1460L745 1550H755Z" />
<glyph unicode="&#xc0;" glyph-name="Agrave" horiz-adv-x="1410" d="M50 522V532L107 652H200V1160L705 1550Q933 1550 1075 1405Q1210 1267 1210 1050V52L1020 -40H1010V1050Q1010 1184 938 1267Q849 1370 705 1370Q558 1370 472 1267Q400 1181 400 1050V652H870V642L813
522H400V50L210 -40H200V522H50ZM596 1966H606L768 1621L651 1566H641L420 1882L596 1966Z" />
<glyph unicode="&#xc1;" glyph-name="Aacute" horiz-adv-x="1410" d="M50 522V532L107 652H200V1160L705 1550Q933 1550 1075 1405Q1210 1267 1210 1050V52L1020 -40H1010V1050Q1010 1184 938 1267Q849 1370 705 1370Q558 1370 472 1267Q400 1181 400 1050V652H870V642L813
522H400V50L210 -40H200V522H50ZM796 1966H806L982 1882L761 1566H751L634 1621L796 1966Z" />
<glyph unicode="&#xc2;" glyph-name="Acircumflex" horiz-adv-x="1410" d="M50 522V532L107 652H200V1160L705 1550Q933 1550 1075 1405Q1210 1267 1210 1050V52L1020 -40H1010V1050Q1010 1184 938 1267Q849 1370 705 1370Q558 1370 472 1267Q400 1181 400 1050V652H870V642L813
522H400V50L210 -40H200V522H50ZM806 1966L1031 1648L858 1566H848L707 1794L566 1566H556L453 1615L623 1884L796 1966H806Z" />
<glyph unicode="&#xc3;" glyph-name="Atilde" horiz-adv-x="1410" d="M50 522V532L107 652H200V1160L705 1550Q933 1550 1075 1405Q1210 1267 1210 1050V52L1020 -40H1010V1050Q1010 1184 938 1267Q849 1370 705 1370Q558 1370 472 1267Q400 1181 400 1050V652H870V642L813
522H400V50L210 -40H200V522H50ZM510 1639L425 1688L637 1896Q701 1896 732 1857Q779 1798 831 1798Q892 1798 934 1896H944L1029 1847L817 1639Q753 1639 722 1678Q675 1737 623 1737Q562 1737 520 1639H510Z" />
<glyph unicode="&#xc4;" glyph-name="Adieresis" horiz-adv-x="1410" d="M50 522V532L107 652H200V1160L705 1550Q933 1550 1075 1405Q1210 1267 1210 1050V52L1020 -40H1010V1050Q1010 1184 938 1267Q849 1370 705 1370Q558 1370 472 1267Q400 1181 400 1050V652H870V642L813
522H400V50L210 -40H200V522H50ZM934 1966H944V1738L754 1648H744V1876L934 1966ZM661 1966H671V1738L481 1648H471V1876L661 1966Z" />
<glyph unicode="&#xc5;" glyph-name="Aring" horiz-adv-x="1410" d="M50 522V532L107 652H200V1160L705 1550Q933 1550 1075 1405Q1210 1267 1210 1050V52L1020 -40H1010V1050Q1010 1184 938 1267Q849 1370 705 1370Q558 1370 472 1267Q400 1181 400 1050V652H870V642L813
522H400V50L210 -40H200V522H50ZM705 1966Q791 1964 844 1920Q902 1872 902 1777V1753L716 1589Q622 1596 577 1635Q519 1685 519 1777V1802L705 1966ZM712 1862Q678 1862 658 1841T638 1777Q638 1731 659 1712Q681 1692 714 1692Q742 1692 764 1714Q784 1733 784
1777Q784 1822 762 1843Q742 1862 712 1862Z" />
<glyph unicode="&#xc6;" glyph-name="AE" horiz-adv-x="1943" d="M200 -40V522H50V532L107 652H200V1160L705 1550Q884 1550 1011 1460L1116 1510H1750V1500L1693 1380H1210V652H1680V642L1623 522H1210V130H1893V120L1836 0H1010V522H400V50L210 -40H200ZM400
652H1010V1050Q1010 1184 938 1267Q849 1370 705 1370Q558 1370 472 1267Q400 1181 400 1050V652Z" />
<glyph unicode="&#xc7;" glyph-name="Ccedilla" horiz-adv-x="1410" d="M1210 550V350L776 15L923 -159Q910 -348 827 -450H817L627 -360Q735 -284 735 -178Q735 -106 705 -40Q477 -40 335 105Q200 243 200 460V1160L705 1550Q933 1550 1075 1405Q1210 1267 1210
1050L1020 960H1010V1050Q1010 1184 938 1267Q849 1370 705 1370T472 1267Q400 1183 400 1050V460Q400 328 472 243Q559 140 705 140Q848 140 938 243Q1010 326 1010 460L1200 550H1210Z" />
<glyph unicode="&#xc8;" glyph-name="Egrave" horiz-adv-x="1133" d="M50 0V10L107 130H200V522H50V532L107 652H200V1460L306 1510H940V1500L883 1380H400V652H870V642L813 522H400V130H1083V120L1026 0H50ZM526 1966H536L698 1621L581 1566H571L350 1882L526 1966Z" />
<glyph unicode="&#xc9;" glyph-name="Eacute" horiz-adv-x="1133" d="M50 0V10L107 130H200V522H50V532L107 652H200V1460L306 1510H940V1500L883 1380H400V652H870V642L813 522H400V130H1083V120L1026 0H50ZM669 1966H679L855 1882L634 1566H624L507 1621L669 1966Z" />
<glyph unicode="&#xca;" glyph-name="Ecircumflex" horiz-adv-x="1133" d="M50 0V10L107 130H200V522H50V532L107 652H200V1460L306 1510H940V1500L883 1380H400V652H870V642L813 522H400V130H1083V120L1026 0H50ZM648 1966L873 1648L700 1566H690L549 1794L408
1566H398L295 1615L465 1884L638 1966H648Z" />
<glyph unicode="&#xcb;" glyph-name="Edieresis" horiz-adv-x="1133" d="M50 0V10L107 130H200V522H50V532L107 652H200V1460L306 1510H940V1500L883 1380H400V652H870V642L813 522H400V130H1083V120L1026 0H50ZM828 1966H838V1738L648 1648H638V1876L828 1966ZM555
1966H565V1738L375 1648H365V1876L555 1966Z" />
<glyph unicode="&#xcc;" glyph-name="Igrave" horiz-adv-x="600" d="M241 1966H251L413 1621L296 1566H286L65 1882L241 1966ZM200 -40V1460L390 1550H400V50L210 -40H200Z" />
<glyph unicode="&#xcd;" glyph-name="Iacute" horiz-adv-x="600" d="M347 1966H357L533 1882L312 1566H302L185 1621L347 1966ZM200 -40V1460L390 1550H400V50L210 -40H200Z" />
<glyph unicode="&#xce;" glyph-name="Icircumflex" horiz-adv-x="600" d="M364 1966L589 1648L416 1566H406L265 1794L124 1566H114L11 1615L181 1884L354 1966H364ZM200 -40V1460L390 1550H400V50L210 -40H200Z" />
<glyph unicode="&#xcf;" glyph-name="Idieresis" horiz-adv-x="600" d="M527 1966H537V1738L347 1648H337V1876L527 1966ZM254 1966H264V1738L74 1648H64V1876L254 1966ZM200 -40V1460L390 1550H400V50L210 -40H200Z" />
<glyph unicode="&#xd0;" glyph-name="Eth" horiz-adv-x="1338" d="M200 -40V522H50V532L107 652H200V1460L390 1550H400V652H870V642L813 522H400V100Q637 189 797 326Q1026 523 1026 816Q1026 1072 839 1245Q705 1369 411 1441L640 1550H650Q883 1488 1023 1341Q1218
1136 1218 849Q1218 464 870 220Q587 22 210 -40H200Z" />
<glyph unicode="&#xd1;" glyph-name="Ntilde" horiz-adv-x="1410" d="M200 -40V1160L705 1550Q933 1550 1075 1405Q1210 1267 1210 1050V52L1020 -40H1010V1050Q1010 1184 938 1267Q849 1370 705 1370Q558 1370 472 1267Q400 1181 400 1050V50L210 -40H200ZM510
1639L425 1688L637 1896Q701 1896 732 1857Q779 1798 831 1798Q892 1798 934 1896H944L1029 1847L817 1639Q753 1639 722 1678Q675 1737 623 1737Q562 1737 520 1639H510Z" />
<glyph unicode="&#xd2;" glyph-name="Ograve" horiz-adv-x="1410" d="M705 140Q848 140 938 243Q1010 326 1010 460V1050Q1010 1184 938 1267Q849 1370 705 1370Q560 1370 472 1267Q400 1184 400 1050V460Q400 328 472 243Q559 140 705 140ZM705 -40Q477 -40 335
105Q200 243 200 460V1160L705 1550Q933 1550 1075 1405Q1210 1267 1210 1050V350L705 -40ZM596 1966H606L768 1621L651 1566H641L420 1882L596 1966Z" />
<glyph unicode="&#xd3;" glyph-name="Oacute" horiz-adv-x="1410" d="M705 140Q848 140 938 243Q1010 326 1010 460V1050Q1010 1184 938 1267Q849 1370 705 1370Q560 1370 472 1267Q400 1184 400 1050V460Q400 328 472 243Q559 140 705 140ZM705 -40Q477 -40 335
105Q200 243 200 460V1160L705 1550Q933 1550 1075 1405Q1210 1267 1210 1050V350L705 -40ZM796 1966H806L982 1882L761 1566H751L634 1621L796 1966Z" />
<glyph unicode="&#xd4;" glyph-name="Ocircumflex" horiz-adv-x="1410" d="M705 140Q848 140 938 243Q1010 326 1010 460V1050Q1010 1184 938 1267Q849 1370 705 1370Q560 1370 472 1267Q400 1184 400 1050V460Q400 328 472 243Q559 140 705 140ZM705 -40Q477
-40 335 105Q200 243 200 460V1160L705 1550Q933 1550 1075 1405Q1210 1267 1210 1050V350L705 -40ZM806 1966L1031 1648L858 1566H848L707 1794L566 1566H556L453 1615L623 1884L796 1966H806Z" />
<glyph unicode="&#xd5;" glyph-name="Otilde" horiz-adv-x="1410" d="M705 140Q848 140 938 243Q1010 326 1010 460V1050Q1010 1184 938 1267Q849 1370 705 1370Q560 1370 472 1267Q400 1184 400 1050V460Q400 328 472 243Q559 140 705 140ZM705 -40Q477 -40 335
105Q200 243 200 460V1160L705 1550Q933 1550 1075 1405Q1210 1267 1210 1050V350L705 -40ZM510 1639L425 1688L637 1896Q701 1896 732 1857Q779 1798 831 1798Q892 1798 934 1896H944L1029 1847L817 1639Q753 1639 722 1678Q675 1737 623 1737Q562 1737 520 1639H510Z"
/>
<glyph unicode="&#xd6;" glyph-name="Odieresis" horiz-adv-x="1410" d="M705 140Q848 140 938 243Q1010 326 1010 460V1050Q1010 1184 938 1267Q849 1370 705 1370Q560 1370 472 1267Q400 1184 400 1050V460Q400 328 472 243Q559 140 705 140ZM705 -40Q477 -40
335 105Q200 243 200 460V1160L705 1550Q933 1550 1075 1405Q1210 1267 1210 1050V350L705 -40ZM934 1966H944V1738L754 1648H744V1876L934 1966ZM661 1966H671V1738L481 1648H471V1876L661 1966Z" />
<glyph unicode="&#xd7;" glyph-name="multiply" horiz-adv-x="1075" d="M150 1014L157 1021L336 1085L537 884L739 1085L918 1021L925 1014L666 755L925 496L918 489L739 425L537 626L336 425L157 489L150 496L409 755L150 1014Z" />
<glyph unicode="&#xd8;" glyph-name="Oslash" horiz-adv-x="1410" d="M404 -40H394L290 10L334 106Q200 243 200 460V1160L705 1550Q860 1550 975 1483L1006 1550H1016L1120 1499L1076 1404Q1210 1266 1210 1050V350L705 -40Q550 -40 435 27L404 -40ZM705 140Q848
140 938 243Q1010 325 1010 460V1050Q1010 1135 981 1200L516 201Q593 140 705 140ZM430 310L894 1309Q816 1370 705 1370Q561 1370 472 1267Q400 1183 400 1050V460Q400 375 430 310Z" />
<glyph unicode="&#xd9;" glyph-name="Ugrave" horiz-adv-x="1410" d="M705 -40Q477 -40 335 105Q200 243 200 460V1458L390 1550H400V460Q400 326 472 243Q561 140 705 140Q852 140 938 243Q1010 329 1010 460V1460L1200 1550H1210V350L705 -40ZM596 1966H606L768
1621L651 1566H641L420 1882L596 1966Z" />
<glyph unicode="&#xda;" glyph-name="Uacute" horiz-adv-x="1410" d="M705 -40Q477 -40 335 105Q200 243 200 460V1458L390 1550H400V460Q400 326 472 243Q561 140 705 140Q852 140 938 243Q1010 329 1010 460V1460L1200 1550H1210V350L705 -40ZM796 1966H806L982
1882L761 1566H751L634 1621L796 1966Z" />
<glyph unicode="&#xdb;" glyph-name="Ucircumflex" horiz-adv-x="1410" d="M705 -40Q477 -40 335 105Q200 243 200 460V1458L390 1550H400V460Q400 326 472 243Q561 140 705 140Q852 140 938 243Q1010 329 1010 460V1460L1200 1550H1210V350L705 -40ZM806 1966L1031
1648L858 1566H848L707 1794L566 1566H556L453 1615L623 1884L796 1966H806Z" />
<glyph unicode="&#xdc;" glyph-name="Udieresis" horiz-adv-x="1410" d="M705 -40Q477 -40 335 105Q200 243 200 460V1458L390 1550H400V460Q400 326 472 243Q561 140 705 140Q852 140 938 243Q1010 329 1010 460V1460L1200 1550H1210V350L705 -40ZM934 1966H944V1738L754
1648H744V1876L934 1966ZM661 1966H671V1738L481 1648H471V1876L661 1966Z" />
<glyph unicode="&#xdd;" glyph-name="Yacute" horiz-adv-x="1278" d="M516 -40V522H229V532L286 652H466L100 1467L275 1550H285L664 690L1063 1550H1073L1178 1500L772 652H1049V642L992 522H716V50L526 -40H516ZM796 1966H806L982 1882L761 1566H751L634 1621L796
1966Z" />
<glyph unicode="&#xde;" glyph-name="Thorn" horiz-adv-x="1370" d="M705 448Q855 448 938 551Q1010 640 1010 768V858Q1010 990 938 1075Q849 1178 705 1178Q558 1178 472 1075Q400 988 400 858V768Q400 636 472 551Q559 448 705 448ZM200 -40V1460L390 1550H400V1122L705
1358Q937 1358 1075 1213Q1210 1071 1210 858V658L705 268Q523 268 400 356V50L210 -40H200Z" />
<glyph unicode="&#xdf;" glyph-name="germandbls" horiz-adv-x="1280" d="M200 -40V1230L615 1550Q804 1537 906 1454Q1030 1353 1030 1107L780 914Q909 886 985 817Q1120 694 1120 462V350L615 -40H534V-30L615 142Q760 142 848 243Q920 326 920 460Q920 595
861 657Q773 749 533 749V759L614 931Q715 931 773 992Q830 1053 830 1165Q830 1279 765 1337Q703 1392 615 1392Q517 1392 459 1331Q400 1270 400 1157V50L210 -40H200Z" />
<glyph unicode="&#xe0;" glyph-name="agrave" horiz-adv-x="1080" d="M515 118Q620 118 671 179Q730 250 730 356Q730 478 665 536Q603 591 515 591Q410 591 359 530Q300 459 300 356Q300 231 365 173Q428 118 515 118ZM515 -40Q329 -27 224 56Q100 154 100 353V428L515
749Q641 740 730 699V747Q730 868 665 927Q603 982 515 982Q417 982 359 921L304 977L515 1140Q704 1127 806 1044Q930 943 930 747V50L740 -40H730V127L515 -40ZM453 1556H463L625 1211L508 1156H498L277 1472L453 1556Z" />
<glyph unicode="&#xe1;" glyph-name="aacute" horiz-adv-x="1080" d="M515 118Q620 118 671 179Q730 250 730 356Q730 478 665 536Q603 591 515 591Q410 591 359 530Q300 459 300 356Q300 231 365 173Q428 118 515 118ZM515 -40Q329 -27 224 56Q100 154 100 353V428L515
749Q641 740 730 699V747Q730 868 665 927Q603 982 515 982Q417 982 359 921L304 977L515 1140Q704 1127 806 1044Q930 943 930 747V50L740 -40H730V127L515 -40ZM663 1556H673L849 1472L628 1156H618L501 1211L663 1556Z" />
<glyph unicode="&#xe2;" glyph-name="acircumflex" horiz-adv-x="1080" d="M515 118Q620 118 671 179Q730 250 730 356Q730 478 665 536Q603 591 515 591Q410 591 359 530Q300 459 300 356Q300 231 365 173Q428 118 515 118ZM515 -40Q329 -27 224 56Q100 154 100
353V428L515 749Q641 740 730 699V747Q730 868 665 927Q603 982 515 982Q417 982 359 921L304 977L515 1140Q704 1127 806 1044Q930 943 930 747V50L740 -40H730V127L515 -40ZM648 1556L873 1238L700 1156H690L549 1384L408 1156H398L295 1205L465 1474L638 1556H648Z"
/>
<glyph unicode="&#xe3;" glyph-name="atilde" horiz-adv-x="1080" d="M515 118Q620 118 671 179Q730 250 730 356Q730 478 665 536Q603 591 515 591Q410 591 359 530Q300 459 300 356Q300 231 365 173Q428 118 515 118ZM515 -40Q329 -27 224 56Q100 154 100 353V428L515
749Q641 740 730 699V747Q730 868 665 927Q603 982 515 982Q417 982 359 921L304 977L515 1140Q704 1127 806 1044Q930 943 930 747V50L740 -40H730V127L515 -40ZM383 1228L298 1277L510 1485Q574 1485 605 1446Q652 1387 704 1387Q765 1387 807 1485H817L902 1436L690
1228Q626 1228 595 1267Q548 1326 496 1326Q435 1326 393 1228H383Z" />
<glyph unicode="&#xe4;" glyph-name="adieresis" horiz-adv-x="1080" d="M515 118Q620 118 671 179Q730 250 730 356Q730 478 665 536Q603 591 515 591Q410 591 359 530Q300 459 300 356Q300 231 365 173Q428 118 515 118ZM515 -40Q329 -27 224 56Q100 154 100
353V428L515 749Q641 740 730 699V747Q730 868 665 927Q603 982 515 982Q417 982 359 921L304 977L515 1140Q704 1127 806 1044Q930 943 930 747V50L740 -40H730V127L515 -40ZM793 1550H803V1322L613 1232H603V1460L793 1550ZM520 1550H530V1322L340 1232H330V1460L520
1550Z" />
<glyph unicode="&#xe5;" glyph-name="aring" horiz-adv-x="1080" d="M515 118Q620 118 671 179Q730 250 730 356Q730 478 665 536Q603 591 515 591Q410 591 359 530Q300 459 300 356Q300 231 365 173Q428 118 515 118ZM515 -40Q329 -27 224 56Q100 154 100 353V428L515
749Q641 740 730 699V747Q730 868 665 927Q603 982 515 982Q417 982 359 921L304 977L515 1140Q704 1127 806 1044Q930 943 930 747V50L740 -40H730V127L515 -40ZM515 1556Q601 1554 654 1510Q712 1462 712 1367V1343L526 1179Q432 1186 387 1225Q329 1275 329
1367V1392L515 1556ZM522 1452Q488 1452 468 1431T448 1367Q448 1321 469 1302Q491 1282 524 1282Q552 1282 574 1304Q594 1323 594 1367Q594 1412 572 1433Q552 1452 522 1452Z" />
<glyph unicode="&#xe6;" glyph-name="ae" horiz-adv-x="1711" d="M515 -40Q329 -27 224 56Q100 154 100 353V428L515 749Q641 740 730 699V747Q730 868 665 927Q603 982 515 982Q417 982 359 921L304 977L515 1140Q704 1127 806 1044Q859 1001 889 941L1146 1140Q1335
1127 1437 1044Q1561 943 1561 747L946 250Q964 200 996 173Q1061 118 1144 118Q1231 118 1302 179Q1361 230 1361 353L1551 443H1561V281L1146 -40Q987 -29 890 31L740 -40H730V127L515 -40ZM515 118Q620 118 671 179Q730 250 730 356Q730 478 665 536Q603 591
515 591Q410 591 359 530Q300 459 300 356Q300 230 365 173Q428 118 515 118ZM931 397L1361 746Q1361 872 1296 927T1146 982Q1049 982 990 921T931 747V397Z" />
<glyph unicode="&#xe7;" glyph-name="ccedilla" horiz-adv-x="1130" d="M980 443V281L636 15L783 -159Q770 -348 687 -450H677L487 -360Q595 -290 595 -178Q595 -111 565 -40Q376 -27 274 56Q150 158 150 353V819L565 1140Q754 1127 856 1044Q980 943 980 747L790
657H780V747Q780 872 715 927T565 982Q468 982 409 921T350 747V353Q350 228 415 173T565 118Q656 118 718 179T780 353L970 443H980Z" />
<glyph unicode="&#xe8;" glyph-name="egrave" horiz-adv-x="1130" d="M565 -40Q376 -27 274 56Q150 158 150 353V819L565 1140Q754 1127 856 1044Q980 943 980 747L365 250Q383 200 415 173Q480 118 563 118Q650 118 721 179Q780 230 780 353L970 443H980V281L565
-40ZM350 397L780 746Q780 872 715 927T565 982Q468 982 409 921T350 747V397ZM453 1556H463L625 1211L508 1156H498L277 1472L453 1556Z" />
<glyph unicode="&#xe9;" glyph-name="eacute" horiz-adv-x="1130" d="M565 -40Q376 -27 274 56Q150 158 150 353V819L565 1140Q754 1127 856 1044Q980 943 980 747L365 250Q383 200 415 173Q480 118 563 118Q650 118 721 179Q780 230 780 353L970 443H980V281L565
-40ZM350 397L780 746Q780 872 715 927T565 982Q468 982 409 921T350 747V397ZM663 1556H673L849 1472L628 1156H618L501 1211L663 1556Z" />
<glyph unicode="&#xea;" glyph-name="ecircumflex" horiz-adv-x="1130" d="M565 -40Q376 -27 274 56Q150 158 150 353V819L565 1140Q754 1127 856 1044Q980 943 980 747L365 250Q383 200 415 173Q480 118 563 118Q650 118 721 179Q780 230 780 353L970 443H980V281L565
-40ZM350 397L780 746Q780 872 715 927T565 982Q468 982 409 921T350 747V397ZM648 1556L873 1238L700 1156H690L549 1384L408 1156H398L295 1205L465 1474L638 1556H648Z" />
<glyph unicode="&#xeb;" glyph-name="edieresis" horiz-adv-x="1130" d="M565 -40Q376 -27 274 56Q150 158 150 353V819L565 1140Q754 1127 856 1044Q980 943 980 747L365 250Q383 200 415 173Q480 118 563 118Q650 118 721 179Q780 230 780 353L970 443H980V281L565
-40ZM350 397L780 746Q780 872 715 927T565 982Q468 982 409 921T350 747V397ZM793 1550H803V1322L613 1232H603V1460L793 1550ZM520 1550H530V1322L340 1232H330V1460L520 1550Z" />
<glyph unicode="&#xec;" glyph-name="igrave" horiz-adv-x="600" d="M241 1556H251L413 1211L296 1156H286L65 1472L241 1556ZM200 -40V1050L390 1140H400V50L210 -40H200Z" />
<glyph unicode="&#xed;" glyph-name="iacute" horiz-adv-x="600" d="M347 1556H357L533 1472L312 1156H302L185 1211L347 1556ZM200 -40V1050L390 1140H400V50L210 -40H200Z" />
<glyph unicode="&#xee;" glyph-name="icircumflex" horiz-adv-x="600" d="M364 1556L589 1238L416 1156H406L265 1384L124 1156H114L11 1205L181 1474L354 1556H364ZM200 -40V1050L390 1140H400V50L210 -40H200Z" />
<glyph unicode="&#xef;" glyph-name="idieresis" horiz-adv-x="600" d="M526 1550H536V1322L346 1232H336V1460L526 1550ZM253 1550H263V1322L73 1232H63V1460L253 1550ZM200 -40V1050L390 1140H400V50L210 -40H200Z" />
<glyph unicode="&#xf0;" glyph-name="eth" horiz-adv-x="1180" d="M565 118Q660 118 720 179T780 353V580Q780 706 714 760Q647 815 565 815Q470 815 410 754T350 580V353Q350 227 415 173Q481 118 565 118ZM565 -40Q374 -27 274 56Q150 160 150 353V652L565 973Q692
964 780 924V1157Q780 1197 773 1231L585 1075H575L503 1168L711 1341Q653 1392 565 1392L496 1540V1550H565Q750 1537 851 1458L1001 1582H1011L1083 1489L932 1364Q980 1279 980 1157V281L565 -40Z" />
<glyph unicode="&#xf1;" glyph-name="ntilde" horiz-adv-x="1130" d="M150 -40V819L565 1140Q754 1127 856 1044Q980 943 980 747V50L790 -40H780V747Q780 872 715 927T565 982Q471 982 409 921Q350 863 350 747V50L160 -40H150ZM383 1228L298 1277L510 1485Q574
1485 605 1446Q652 1387 704 1387Q765 1387 807 1485H817L902 1436L690 1228Q626 1228 595 1267Q548 1326 496 1326Q435 1326 393 1228H383Z" />
<glyph unicode="&#xf2;" glyph-name="ograve" horiz-adv-x="1130" d="M565 -40Q376 -27 274 56Q150 158 150 353V819L565 1140Q754 1127 856 1044Q980 943 980 747V281L565 -40ZM565 118Q660 118 720 179T780 353V747Q780 872 715 927T565 982Q470 982 410 921T350
747V353Q350 228 415 173T565 118ZM453 1556H463L625 1211L508 1156H498L277 1472L453 1556Z" />
<glyph unicode="&#xf3;" glyph-name="oacute" horiz-adv-x="1130" d="M565 -40Q376 -27 274 56Q150 158 150 353V819L565 1140Q754 1127 856 1044Q980 943 980 747V281L565 -40ZM565 118Q660 118 720 179T780 353V747Q780 872 715 927T565 982Q470 982 410 921T350
747V353Q350 228 415 173T565 118ZM663 1556H673L849 1472L628 1156H618L501 1211L663 1556Z" />
<glyph unicode="&#xf4;" glyph-name="ocircumflex" horiz-adv-x="1130" d="M565 -40Q376 -27 274 56Q150 158 150 353V819L565 1140Q754 1127 856 1044Q980 943 980 747V281L565 -40ZM565 118Q660 118 720 179T780 353V747Q780 872 715 927T565 982Q470 982 410
921T350 747V353Q350 228 415 173T565 118ZM648 1556L873 1238L700 1156H690L549 1384L408 1156H398L295 1205L465 1474L638 1556H648Z" />
<glyph unicode="&#xf5;" glyph-name="otilde" horiz-adv-x="1130" d="M565 -40Q376 -27 274 56Q150 158 150 353V819L565 1140Q754 1127 856 1044Q980 943 980 747V281L565 -40ZM565 118Q660 118 720 179T780 353V747Q780 872 715 927T565 982Q470 982 410 921T350
747V353Q350 228 415 173T565 118ZM383 1228L298 1277L510 1485Q574 1485 605 1446Q652 1387 704 1387Q765 1387 807 1485H817L902 1436L690 1228Q626 1228 595 1267Q548 1326 496 1326Q435 1326 393 1228H383Z" />
<glyph unicode="&#xf6;" glyph-name="odieresis" horiz-adv-x="1130" d="M565 -40Q376 -27 274 56Q150 158 150 353V819L565 1140Q754 1127 856 1044Q980 943 980 747V281L565 -40ZM565 118Q660 118 720 179T780 353V747Q780 872 715 927T565 982Q470 982 410
921T350 747V353Q350 228 415 173T565 118ZM793 1550H803V1322L613 1232H603V1460L793 1550ZM520 1550H530V1322L340 1232H330V1460L520 1550Z" />
<glyph unicode="&#xf7;" glyph-name="divide" horiz-adv-x="1214" d="M150 664V674L231 846H1064V836L983 664H150ZM507 914V1142L697 1232H707V1004L517 914H507ZM507 280V508L697 598H707V370L517 280H507Z" />
<glyph unicode="&#xf8;" glyph-name="oslash" horiz-adv-x="1130" d="M359 -40H349L245 10L269 61Q150 162 150 353V819L565 1140Q673 1133 752 1102L770 1140H780L885 1089L862 1039Q980 938 980 747V281L565 -40Q457 -33 377 -2L359 -40ZM565 118Q660 118 720
179T780 353V747Q780 799 769 839L447 150Q500 118 565 118ZM361 261L682 950Q629 982 565 982Q470 982 410 921T350 747V353Q350 301 361 261Z" />
<glyph unicode="&#xf9;" glyph-name="ugrave" horiz-adv-x="1130" d="M565 -40Q376 -27 274 56Q150 157 150 353V1050L340 1140H350V353Q350 228 415 173T565 118Q659 118 721 179Q780 237 780 353V1050L970 1140H980V281L565 -40ZM453 1556H463L625 1211L508
1156H498L277 1472L453 1556Z" />
<glyph unicode="&#xfa;" glyph-name="uacute" horiz-adv-x="1130" d="M565 -40Q376 -27 274 56Q150 157 150 353V1050L340 1140H350V353Q350 228 415 173T565 118Q659 118 721 179Q780 237 780 353V1050L970 1140H980V281L565 -40ZM663 1556H673L849 1472L628
1156H618L501 1211L663 1556Z" />
<glyph unicode="&#xfb;" glyph-name="ucircumflex" horiz-adv-x="1130" d="M565 -40Q376 -27 274 56Q150 157 150 353V1050L340 1140H350V353Q350 228 415 173T565 118Q659 118 721 179Q780 237 780 353V1050L970 1140H980V281L565 -40ZM648 1556L873 1238L700
1156H690L549 1384L408 1156H398L295 1205L465 1474L638 1556H648Z" />
<glyph unicode="&#xfc;" glyph-name="udieresis" horiz-adv-x="1130" d="M565 -40Q376 -27 274 56Q150 157 150 353V1050L340 1140H350V353Q350 228 415 173T565 118Q659 118 721 179Q780 237 780 353V1050L970 1140H980V281L565 -40ZM793 1550H803V1322L613 1232H603V1460L793
1550ZM520 1550H530V1322L340 1232H330V1460L520 1550Z" />
<glyph unicode="&#xfd;" glyph-name="yacute" horiz-adv-x="1180" d="M565 -40Q376 -27 274 56Q150 157 150 353V1050L340 1140H350V353Q350 228 415 173T564 118Q650 118 721 179Q780 230 780 353V1050L970 1140H980V-129L565 -450Q356 -436 276 -356L415 -237Q475
-292 563 -292Q653 -292 721 -231Q780 -178 780 -57V127L565 -40ZM663 1556H673L849 1472L628 1156H618L501 1211L663 1556Z" />
<glyph unicode="&#xfe;" glyph-name="thorn" horiz-adv-x="1180" d="M615 118Q702 118 771 179Q830 231 830 353V747Q830 872 765 927T615 982Q519 982 460 921T400 747V353Q400 228 465 173T615 118ZM200 -450V1460L390 1550H400V973L615 1140Q806 1127 906 1044Q1030
940 1030 747V281L615 -40Q488 -31 400 9V-360L210 -450H200Z" />
<glyph unicode="&#xff;" glyph-name="ydieresis" horiz-adv-x="1180" d="M565 -40Q376 -27 274 56Q150 157 150 353V1050L340 1140H350V353Q350 228 415 173T564 118Q650 118 721 179Q780 230 780 353V1050L970 1140H980V-129L565 -450Q356 -436 276 -356L415
-237Q475 -292 563 -292Q653 -292 721 -231Q780 -178 780 -57V127L565 -40ZM793 1550H803V1322L613 1232H603V1460L793 1550ZM520 1550H530V1322L340 1232H330V1460L520 1550Z" />
<glyph unicode="&#x2013;" glyph-name="endash" horiz-adv-x="1214" d="M150 664V674L231 846H1064V836L983 664H150Z" />
<glyph unicode="&#x2014;" glyph-name="emdash" horiz-adv-x="1214" d="M25 664V674L106 846H1189V836L1108 664H25Z" />
<glyph unicode="&#x2018;" glyph-name="quoteleft" horiz-adv-x="596" d="M382 1550L425 1500Q338 1385 338 1258Q338 1146 446 1076L256 986H246Q163 1088 150 1277L382 1550Z" />
<glyph unicode="&#x2019;" glyph-name="quoteright" horiz-adv-x="596" d="M340 1550H350Q433 1448 446 1259L214 986L171 1036Q258 1151 258 1278Q258 1390 150 1460L340 1550Z" />
<glyph unicode="&#x201a;" glyph-name="quotesinglbase" horiz-adv-x="596" d="M340 278H350Q433 176 446 -13L214 -286L171 -236Q258 -121 258 6Q258 118 150 188L340 278Z" />
<glyph unicode="&#x201c;" glyph-name="quotedblleft" horiz-adv-x="911" d="M382 1550L425 1500Q338 1385 338 1258Q338 1146 446 1076L256 986H246Q163 1088 150 1277L382 1550ZM697 1550L740 1500Q653 1385 653 1258Q653 1146 761 1076L571 986H561Q478 1088
465 1277L697 1550Z" />
<glyph unicode="&#x201d;" glyph-name="quotedblright" horiz-adv-x="911" d="M655 1550H665Q748 1448 761 1259L529 986L486 1036Q573 1151 573 1278Q573 1390 465 1460L655 1550ZM340 1550H350Q433 1448 446 1259L214 986L171 1036Q258 1151 258 1278Q258 1390
150 1460L340 1550Z" />
<glyph unicode="&#x201e;" glyph-name="quotedblbase" horiz-adv-x="911" d="M655 278H665Q748 176 761 -13L529 -286L486 -236Q573 -121 573 6Q573 118 465 188L655 278ZM340 278H350Q433 176 446 -13L214 -286L171 -236Q258 -121 258 6Q258 118 150 188L340 278Z" />
<glyph unicode="&#x2022;" glyph-name="bullet" horiz-adv-x="1126" d="M565 1154Q739 1150 854 1038Q974 922 976 668L561 348Q386 352 272 464Q152 580 150 834L565 1154Z" />
<glyph unicode="&#x2039;" glyph-name="guilsinglleft" horiz-adv-x="804" d="M489 1284H499L604 1234L342 823L600 386L426 304H416L150 753L489 1284Z" />
<glyph unicode="&#x203a;" glyph-name="guilsinglright" horiz-adv-x="804" d="M378 1284H388L654 835L315 304H305L200 354L463 765L204 1202L378 1284Z" />
</font>
</defs>
</svg>
