<?xml version="1.0" standalone="no"?>
<!DOCTYPE svg PUBLIC "-//W3C//DTD SVG 1.1//EN" "http://www.w3.org/Graphics/SVG/1.1/DTD/svg11.dtd">
<svg xmlns="http://www.w3.org/2000/svg">
<defs >
<font id="Baumans" horiz-adv-x="500" ><font-face
    font-family="Baumans"
    units-per-em="1000"
    panose-1="2 0 5 6 2 0 0 2 0 3"
    ascent="942"
    descent="-240"
    alphabetic="0" />
<glyph unicode=" " glyph-name="space" horiz-adv-x="233" />
<glyph unicode="!" glyph-name="exclam" horiz-adv-x="274" d="M93 8Q75 26 75 52Q75 78 93 96T137 114Q163 114 181 96T199 52Q199 26 181 8T137 -10Q111 -10 93 8ZM80 659Q80 711 137 711T194 659Q194 653 191 599T185 433T181 181H97Q97 322 93 433T84 598T80 659Z" />
<glyph unicode="&quot;" glyph-name="quotedbl" horiz-adv-x="298" d="M35 700H123L113 480H45L35 700ZM175 700H263L253 480H185L175 700Z" />
<glyph unicode="#" glyph-name="numbersign" horiz-adv-x="602" d="M518 278L515 214H418L388 0H316L346 214H227L197 0H125L155 214H55L58 278H164L184 422H84L87 486H193L223 700H295L265 486H384L414 700H486L456 486H547L544 422H447L427 278H518ZM375 422H256L236
278H355L375 422Z" />
<glyph unicode="$" glyph-name="dollar" horiz-adv-x="511" d="M231 750H291V700H423V612H291V404L310 397Q344 384 368 371T416 335T452 279T464 199Q464 149 443 110T389 48T321 13Q306 8 291 5V-60H231V0H58V88H231V326Q224 329 216 332Q207 335 202 337Q45
397 45 533Q45 617 99 658Q150 698 231 700V750ZM145 530Q145 486 189 455Q207 443 231 431V611Q145 605 145 530ZM322 116Q365 145 365 200Q365 227 353 247T318 283Q305 292 291 299V101Q308 107 322 116Z" />
<glyph unicode="%" glyph-name="percent" horiz-adv-x="898" d="M543 51Q495 99 495 168Q495 203 508 233T544 285T596 319T659 332Q692 332 721 319T773 284T809 232T823 168Q823 134 810 105T775 53T723 17T659 4Q593 4 543 51ZM573 168Q573 130 598 106T659
82Q695 82 720 106T745 168Q745 205 720 229T658 254Q623 254 598 230T573 168ZM123 431Q75 479 75 548Q75 583 88 613T124 665T176 699T239 712Q272 712 301 699T353 664T389 612T403 548Q403 514 390 485T355 433T303 397T239 384Q173 384 123 431ZM153 548Q153
510 178 486T239 462Q275 462 300 486T325 548Q325 585 300 609T238 634Q203 634 178 610T153 548ZM561 700H642L313 0H230L561 700Z" />
<glyph unicode="&amp;" glyph-name="ampersand" horiz-adv-x="591" d="M295 710Q479 710 487 543H392Q383 621 282 622Q172 622 172 530Q172 463 213 440T307 416H566V328H510V199Q507 137 488 98T444 39T387 7T331 -7T283 -10Q162 -10 101 60Q55 111 55 199Q55
260 87 307T185 372V376Q78 413 78 543Q78 617 125 662Q157 692 197 701T295 710ZM289 78Q341 78 376 106T416 206H417V328H319Q232 328 191 301T149 206Q149 142 185 110T289 78Z" />
<glyph unicode="&apos;" glyph-name="quotesingle" horiz-adv-x="158" d="M35 700H123L113 480H45L35 700Z" />
<glyph unicode="(" glyph-name="parenleft" horiz-adv-x="386" d="M341 -78L295 -138Q178 -51 127 70T75 315Q75 436 126 556T291 762L341 708Q163 572 163 320Q163 64 341 -78Z" />
<glyph unicode=")" glyph-name="parenright" horiz-adv-x="386" d="M45 702L91 762Q207 675 259 554T311 309Q311 188 260 68T95 -138L45 -84Q223 58 223 304Q223 560 45 702Z" />
<glyph unicode="*" glyph-name="asterisk" horiz-adv-x="466" d="M83 374L45 436L177 507L45 576L83 638L207 554L195 700H271L259 554L383 638L421 576L289 507L421 436L383 374L259 454L271 314H195L207 454L83 374Z" />
<glyph unicode="+" glyph-name="plus" horiz-adv-x="580" d="M251 279V480H329V279H530V201H329V0H251V201H50V279H251Z" />
<glyph unicode="," glyph-name="comma" horiz-adv-x="216" d="M84 -155L34 -123Q72 -49 78 0H10L50 84H181Q181 -56 84 -155Z" />
<glyph unicode="-" glyph-name="hyphen" horiz-adv-x="290" d="M257 200H33V280H257V200Z" />
<glyph unicode="." glyph-name="period" horiz-adv-x="169" d="M28 8Q10 26 10 52Q10 78 28 96T72 114Q98 114 116 96T134 52Q134 26 116 8T72 -10Q46 -10 28 8Z" />
<glyph unicode="/" glyph-name="slash" horiz-adv-x="352" d="M382 710L58 -10H-30L294 710H382Z" />
<glyph unicode="0" glyph-name="zero" horiz-adv-x="592" d="M59 247Q57 270 56 297T55 353Q55 419 63 483T97 598T170 679T296 710Q377 710 425 678T497 595T529 480T537 353Q537 287 529 222T496 106T423 22T296 -10Q230 -10 187 11T118 69T78 151T59 247ZM181
134Q213 78 296 78Q338 78 365 90T410 132T434 216T441 353Q441 435 434 488T410 573T366 616T296 628Q254 628 227 617T182 574T158 490T151 353Q151 189 181 134Z" />
<glyph unicode="1" glyph-name="one" horiz-adv-x="318" d="M248 0H154V606H25L67 700H248V0Z" />
<glyph unicode="2" glyph-name="two" horiz-adv-x="532" d="M472 511Q472 444 448 401T369 312T291 249T235 203T176 144T143 94H466V0H42V44Q42 65 46 86T66 139T116 215T292 367Q371 428 371 516Q371 559 340 588T251 618Q158 618 106 510L32 572Q107 709 248
709Q353 709 412 657T472 511Z" />
<glyph unicode="3" glyph-name="three" horiz-adv-x="532" d="M494 220Q494 112 430 51T258 -10Q165 -10 107 25T32 127L106 200Q117 143 155 111T255 78Q392 78 392 220Q392 347 237 347H181V441Q242 460 289 503T357 606H65V700H451V679Q451 511 322 432Q406
413 450 358T494 220Z" />
<glyph unicode="4" glyph-name="four" horiz-adv-x="566" d="M347 700H441V247H521V159H441V0H347V159H45V203Q45 330 165 483L347 700ZM236 440Q149 321 139 247H347V568L236 440Z" />
<glyph unicode="5" glyph-name="five" horiz-adv-x="532" d="M494 225Q494 116 429 53T258 -10Q165 -10 107 25T32 127L111 170Q138 121 168 100T255 78Q319 78 355 114T392 225Q392 301 358 334T257 367H82V700H466V606H170V455H257Q373 455 433 396T494 225Z" />
<glyph unicode="6" glyph-name="six" horiz-adv-x="569" d="M415 225Q415 357 302 357Q254 357 210 345V426Q258 444 308 444Q403 444 458 386T514 225Q514 116 455 53T299 -10Q166 -10 106 76T45 350Q45 510 137 605T390 700H448V612H378Q264 612 202 546T140
350Q140 203 177 139T296 74Q351 74 383 112T415 225Z" />
<glyph unicode="7" glyph-name="seven" horiz-adv-x="449" d="M414 700V679Q414 603 394 537T344 420T284 317T234 195T213 44V0H115V44Q115 122 132 190T176 309T230 405T283 505T317 612H15V700H414Z" />
<glyph unicode="8" glyph-name="eight" horiz-adv-x="558" d="M488 522Q488 410 394 367V363Q503 326 503 184Q503 143 490 108T448 46T378 5T279 -10Q222 -10 180 5T110 46T69 107T55 184Q55 326 164 363V367Q70 410 70 522Q70 560 83 594T122 654T188 695T279
710Q331 710 370 695T435 655T475 595T488 522ZM164 510Q164 455 196 426T279 396Q330 396 362 425T394 510Q394 562 367 597T279 632Q218 632 191 597T164 510ZM279 328Q217 328 185 293T152 196Q152 139 183 104T279 68Q406 68 406 196Q406 258 373 293T279 328Z"
/>
<glyph unicode="9" glyph-name="nine" horiz-adv-x="569" d="M144 475Q144 343 257 343Q305 343 349 355V274Q301 256 251 256Q156 256 101 314T45 475Q45 584 104 647T260 710Q393 710 453 624T514 350Q514 190 422 95T169 0H111V88H181Q295 88 357 154T419 350Q419
497 382 561T263 626Q208 626 176 588T144 475Z" />
<glyph unicode=":" glyph-name="colon" horiz-adv-x="169" d="M28 378Q10 396 10 422T28 466T72 484T116 466T134 422T116 378T72 360T28 378ZM28 8Q10 26 10 52T28 96T72 114T116 96T134 52T116 8T72 -10T28 8Z" />
<glyph unicode=";" glyph-name="semicolon" horiz-adv-x="257" d="M84 -155L34 -123Q72 -49 78 0H10L50 84H181Q181 -56 84 -155ZM65 378Q47 396 47 422T65 466T109 484T153 466T171 422T153 378T109 360T65 378Z" />
<glyph unicode="&lt;" glyph-name="less" horiz-adv-x="462" d="M132 240L397 125V45L35 205V275L397 435V355L132 240Z" />
<glyph unicode="=" glyph-name="equal" horiz-adv-x="580" d="M530 378V300H50V378H530ZM530 180V102H50V180H530Z" />
<glyph unicode="&gt;" glyph-name="greater" horiz-adv-x="462" d="M65 125L330 240L65 355V435L427 275V205L65 45V125Z" />
<glyph unicode="?" glyph-name="question" horiz-adv-x="528" d="M214 8Q196 26 196 52Q196 78 214 96T258 114Q284 114 302 96T320 52Q320 26 302 8T258 -10Q232 -10 214 8ZM193 430L135 371Q75 414 75 503Q75 543 90 575T131 631T191 666T264 679Q302 679 336
667T396 632T437 575T453 497Q453 465 442 437T415 382T379 333T343 287T315 244T304 201H207Q207 221 210 234T220 261T241 291T275 332L308 373Q361 439 361 486Q361 511 353 531T330 564T298 585T258 593Q219 593 191 569T162 499Q162 460 193 430Z" />
<glyph unicode="@" glyph-name="at" horiz-adv-x="784" d="M623 137V56Q534 -12 420 -12Q268 -12 162 92T55 348Q55 458 110 539T251 666Q325 705 415 705Q495 705 561 674Q631 639 680 572T729 408Q729 311 683 242T574 173Q499 173 499 270V318Q499 451 401
451Q357 451 332 421T306 346Q306 303 335 276T406 249Q443 249 471 271V193Q441 173 398 173Q326 173 277 221T227 348Q227 457 323 507Q359 527 407 527Q493 527 541 463Q578 414 578 315V275Q578 253 592 253Q613 253 631 298T649 399Q649 535 538 600H539Q482
630 407 630Q336 630 272 594Q211 558 173 492T134 344Q134 223 214 144T416 64Q484 64 527 80T623 137Z" />
<glyph unicode="A" glyph-name="A" horiz-adv-x="608" d="M149 0H60V440Q60 548 129 624T309 700H538V0H444V612H309Q236 612 193 569T149 432V347Q205 406 309 406H400V318H309Q251 318 215 304T149 256V0Z" />
<glyph unicode="B" glyph-name="B" horiz-adv-x="593" d="M158 0H65V477Q65 580 131 645T296 710Q404 710 458 656T513 522Q513 421 419 377V373Q548 336 548 194Q548 0 319 0H194V88H318Q387 88 419 116T451 206Q451 260 417 289T323 318H224V401H288Q342 401
380 430T419 510Q419 558 390 590T294 622Q234 622 196 585T158 475V0Z" />
<glyph unicode="C" glyph-name="C" horiz-adv-x="525" d="M60 350Q61 517 152 608T405 700H470V612H393Q282 612 223 539T161 350Q163 235 222 162T393 88H470V0H405Q244 0 153 91T60 350Z" />
<glyph unicode="D" glyph-name="D" horiz-adv-x="611" d="M551 350Q550 183 459 92T206 0H70V700H206Q367 700 458 609T551 350ZM218 88Q329 88 388 161T450 350Q448 465 389 538T218 612H164V88H218Z" />
<glyph unicode="E" glyph-name="E" horiz-adv-x="508" d="M463 0H65V533Q65 607 112 652Q144 682 184 691T282 700H463V612H269Q159 612 159 520V406H390V318H159V88H463V0Z" />
<glyph unicode="F" glyph-name="F" horiz-adv-x="408" d="M159 520V386H345V298H159V0H65V533Q65 607 112 652Q144 682 184 691T282 700H388V612H269Q159 612 159 520Z" />
<glyph unicode="G" glyph-name="G" horiz-adv-x="614" d="M393 88H465V298H362V386H559V0H405Q244 0 153 91T60 350Q61 517 152 608T405 700H520V612H393Q282 612 223 539T161 350Q163 235 222 162T393 88Z" />
<glyph unicode="H" glyph-name="H" horiz-adv-x="632" d="M164 0H70V700H164V406H468V700H562V0H468V318H164V0Z" />
<glyph unicode="I" glyph-name="I" horiz-adv-x="234" d="M164 0H70V700H164V0Z" />
<glyph unicode="J" glyph-name="J" horiz-adv-x="383" d="M224 180V612H38V700H318V167Q318 93 271 48Q239 18 199 9T101 0H35V88H114Q224 88 224 180Z" />
<glyph unicode="K" glyph-name="K" horiz-adv-x="548" d="M498 125V0H402V125Q402 238 353 284T164 332V0H70V700H164V415Q238 413 252 411L393 700H495L337 389Q498 330 498 125Z" />
<glyph unicode="L" glyph-name="L" horiz-adv-x="482" d="M457 88V0H311Q270 0 247 1T188 13T129 45Q92 79 81 126T70 238V700H164V240Q164 182 177 149Q203 88 286 88H457Z" />
<glyph unicode="M" glyph-name="M" horiz-adv-x="796" d="M395 217H401L483 526Q509 626 563 663T726 700V0H632V594Q606 583 593 563T567 503L442 74H354L228 503Q216 544 203 563T164 594V0H70V700Q179 700 232 663T313 526L395 217Z" />
<glyph unicode="N" glyph-name="N" horiz-adv-x="628" d="M164 0H70V700H317Q441 700 502 645T563 470V0H469V483Q469 551 428 581T318 612H164V0Z" />
<glyph unicode="O" glyph-name="O" horiz-adv-x="778" d="M617 347Q616 403 601 453T556 540T484 600T389 622Q336 622 294 600T223 541T178 453T161 347Q162 290 177 241T222 156T294 99T389 78Q442 78 484 99T555 156T600 241T617 347ZM60 347Q61 430 85 497T152
611T255 684T389 710Q462 710 522 685T626 612T693 497T718 347Q717 264 694 198T627 86T524 15T389 -10Q315 -10 255 15T151 86T85 198T60 347Z" />
<glyph unicode="P" glyph-name="P" horiz-adv-x="567" d="M159 0H65V460Q65 578 128 644T297 710Q409 710 470 646T532 483Q532 421 510 375T449 304T368 267T278 255H203V343H289Q356 343 394 383T433 485Q433 545 398 583T296 622Q232 622 196 579T159 464V0Z" />
<glyph unicode="Q" glyph-name="Q" horiz-adv-x="778" d="M653 -60H722V-149H651Q598 -149 561 -128T493 -80T436 -32T375 -10L374 -9Q303 -7 245 19T147 91T84 202T60 347Q61 430 85 497T152 611T255 684T389 710Q462 710 522 685T626 612T693 497T718 347Q717
218 663 132T512 10Q543 -16 575 -38T653 -60ZM617 347Q616 403 601 453T556 540T484 600T389 622Q336 622 294 600T223 541T178 453T161 347Q162 290 177 241T222 156T294 99T389 78Q442 78 484 99T555 156T600 241T617 347Z" />
<glyph unicode="R" glyph-name="R" horiz-adv-x="574" d="M65 0V455Q65 576 124 643T294 710Q405 710 464 656T524 504Q524 441 494 401T392 338V334Q467 305 492 252T518 75V0H424V128Q424 204 381 246T257 289H203V377H260Q356 377 393 416T430 509Q430 560
394 591T297 622Q228 622 194 583T159 455V0H65Z" />
<glyph unicode="S" glyph-name="S" horiz-adv-x="504" d="M423 700V612H246Q145 612 145 530Q145 486 189 456T310 397Q344 384 368 371T416 335T452 279T464 199Q464 149 443 110T389 48T322 14T254 1Q240 0 214 0H58V88H211Q279 88 322 116T365 200Q365 227
353 247T319 283T273 309T216 332Q207 335 202 337Q45 397 45 533Q45 617 99 658T240 700H423Z" />
<glyph unicode="T" glyph-name="T" horiz-adv-x="490" d="M25 612V700H465V612H292V0H198V612H25Z" />
<glyph unicode="U" glyph-name="U" horiz-adv-x="623" d="M464 700H558V220Q558 101 497 46T311 -10T126 45T65 220V700H159V207Q159 139 200 109T310 78Q380 78 422 108T464 207V700Z" />
<glyph unicode="V" glyph-name="V" horiz-adv-x="603" d="M548 700V363Q548 228 486 129T302 -20Q181 28 118 125T55 354V700H151V366Q151 266 184 198T303 83Q387 131 420 199T454 366V700H548Z" />
<glyph unicode="W" glyph-name="W" horiz-adv-x="826" d="M576 90Q652 166 661 328L681 700H771L751 324Q744 192 705 114T574 -20Q494 37 463 120T415 347H411Q403 198 373 125T252 -20Q161 36 122 114T75 324L55 700H145L165 328Q174 166 250 90Q299 132 323
215T368 480H458Q486 324 509 238T544 129T576 90Z" />
<glyph unicode="X" glyph-name="X" horiz-adv-x="563" d="M45 688V700H139V688Q139 488 280 407Q359 451 390 521T422 688V700H518V679Q518 471 364 366Q518 259 518 53V0H422V44Q422 141 391 211T280 325Q139 244 139 44V0H45V44Q45 258 199 366Q45 472 45 688Z" />
<glyph unicode="Y" glyph-name="Y" horiz-adv-x="543" d="M498 700V650Q498 528 453 427T320 272V0H226V270Q139 322 92 421T45 641V700H141V650Q141 547 170 474T273 353Q404 440 404 650V700H498Z" />
<glyph unicode="Z" glyph-name="Z" horiz-adv-x="521" d="M45 0V44Q45 147 86 220T204 366Q252 411 278 439T334 515T375 612H45V700H474Q474 590 455 538Q412 420 279 305Q216 252 184 203T143 88H476V0H45Z" />
<glyph unicode="[" glyph-name="bracketleft" horiz-adv-x="294" d="M249 -126H75V750H249V690H165V-66H249V-126Z" />
<glyph unicode="\" glyph-name="backslash" horiz-adv-x="352" d="M-30 710H58L382 -10H294L-30 710Z" />
<glyph unicode="]" glyph-name="bracketright" horiz-adv-x="294" d="M219 -126H45V-66H129V690H45V750H219V-126Z" />
<glyph unicode="^" glyph-name="asciicircum" horiz-adv-x="578" d="M289 614L129 326H45L251 700H327L533 326H449L289 614Z" />
<glyph unicode="_" glyph-name="underscore" horiz-adv-x="566" d="M533 -125H33V-55H533V-125Z" />
<glyph unicode="`" glyph-name="grave" horiz-adv-x="250" d="M215 567L163 525L35 653L97 715L215 567Z" />
<glyph unicode="a" glyph-name="a" horiz-adv-x="503" d="M327 282V192Q289 221 234 221Q187 221 161 203T135 150Q135 84 233 84H365V275Q365 396 247 396H87V480H252Q349 480 401 432T453 294V0H230Q145 0 95 38T45 149T98 260T231 298Q276 298 327 282Z" />
<glyph unicode="b" glyph-name="b" horiz-adv-x="595" d="M60 700H150V240Q150 161 190 118T302 74Q376 74 418 116T460 240Q460 317 415 361T295 406Q232 406 186 370V460Q241 490 305 490Q411 490 480 422T550 240Q550 121 478 56T295 -10Q190 -10 125 58T60 240V700Z" />
<glyph unicode="c" glyph-name="c" horiz-adv-x="473" d="M388 105L448 46Q379 -10 290 -10Q179 -10 112 61T45 240Q45 345 115 417T290 490Q379 490 448 434L389 374Q347 406 290 406Q221 406 181 361T140 240T180 120T290 74Q348 74 388 105Z" />
<glyph unicode="d" glyph-name="d" horiz-adv-x="585" d="M435 700H525V0H290Q181 0 113 69T45 245Q45 349 115 419T283 490Q345 490 399 460V370Q349 406 283 406Q223 406 182 362T140 245Q140 172 179 128T290 84H435V700Z" />
<glyph unicode="e" glyph-name="e" horiz-adv-x="505" d="M295 490Q465 483 465 349Q465 182 246 182H205V259H253Q320 259 346 279T372 348Q372 379 349 394T290 410Q219 410 179 360T138 240Q138 166 181 120T295 74Q358 74 398 105L458 46Q389 -10 295 -10Q181
-10 113 57T45 230Q45 348 112 421T295 490Z" />
<glyph unicode="f" glyph-name="f" horiz-adv-x="316" d="M296 396H181V0H91V396H23L63 480H91Q91 582 160 641T336 701V617Q181 617 181 480H296V396Z" />
<glyph unicode="g" glyph-name="g" horiz-adv-x="590" d="M283 0Q185 0 115 66T45 235Q45 339 115 409T290 480H525V14Q525 -31 514 -67T481 -128T443 -167T402 -196Q340 -228 251 -228H139V-144H242Q330 -144 367 -122Q435 -84 435 4V396H290Q219 396 177 352T135
235Q135 165 178 125T283 84Q349 84 399 120V30Q345 0 283 0Z" />
<glyph unicode="h" glyph-name="h" horiz-adv-x="518" d="M148 700V480H233Q344 480 392 447Q435 418 446 378T458 271V0H370V270Q370 288 369 300T362 332T345 364T313 386T262 396H148V0H60V700H148Z" />
<glyph unicode="i" glyph-name="i" horiz-adv-x="264" d="M190 0H102V396H20L60 480H190V0ZM98 580Q85 597 85 617T98 653T138 670T178 654T191 617T178 581T138 564T98 580Z" />
<glyph unicode="j" glyph-name="j" horiz-adv-x="238" d="M164 480V-38Q164 -142 118 -185T-40 -228V-144Q-12 -144 5 -141T41 -129T67 -97T76 -38V396H-6L34 480H164ZM72 580Q59 597 59 617T72 653T112 670T152 654T165 617T152 581T112 564T72 580Z" />
<glyph unicode="k" glyph-name="k" horiz-adv-x="480" d="M336 480H433L312 271Q435 238 435 72V0H347V73Q347 140 308 176T195 213Q172 213 148 210V0H60V700H148V289Q190 295 232 289L336 480Z" />
<glyph unicode="l" glyph-name="l" horiz-adv-x="270" d="M60 190V700H150V190Q150 154 158 132T185 100T220 87T265 84V0Q153 0 107 43T60 190Z" />
<glyph unicode="m" glyph-name="m" horiz-adv-x="749" d="M65 480H506Q577 480 619 453Q662 426 675 383T689 280V0H601V280Q601 358 554 383Q530 396 457 396H416V0H328V396H153V0H65V480Z" />
<glyph unicode="n" glyph-name="n" horiz-adv-x="523" d="M65 480H238Q349 480 397 447Q440 418 451 378T463 271V0H375V270Q375 288 374 300T367 332T350 364T318 386T267 396H153V0H65V480Z" />
<glyph unicode="o" glyph-name="o" horiz-adv-x="580" d="M115 417Q185 490 290 490Q341 490 385 471T463 417T516 338T535 240Q535 188 517 143T465 63T387 10T290 -10Q237 -10 193 9T115 63T64 142T45 240Q45 346 115 417ZM290 406Q220 406 178 360T135 240T177
120T290 74Q361 74 403 120T445 240T403 359T290 406Z" />
<glyph unicode="p" glyph-name="p" horiz-adv-x="595" d="M60 -228V240Q60 292 79 338T131 417T209 470T305 490Q356 490 400 471T478 417T531 338T550 240Q550 188 532 143T480 63T402 10T305 -10Q241 -10 186 20V110Q235 74 302 74Q338 74 367 86T417 121T449
173T460 240Q460 276 449 306T418 359T370 393T305 406Q270 406 242 394T193 360T161 308T150 240V-228H60Z" />
<glyph unicode="q" glyph-name="q" horiz-adv-x="581" d="M535 240V-228H445V240Q445 406 290 406Q254 406 226 394T177 359T146 307T135 240Q135 204 146 174T177 121T225 87T290 74Q356 74 406 110V20Q352 -10 290 -10Q237 -10 193 9T115 63T64 142T45 240Q45
292 64 338T116 417T194 470T290 490Q344 490 389 475T466 428T517 349T535 240Z" />
<glyph unicode="r" glyph-name="r" horiz-adv-x="346" d="M45 0V273Q45 388 88 432Q109 454 139 465T191 478T253 480H341V396H235Q215 396 204 395T178 388T152 369Q133 345 133 273V0H45Z" />
<glyph unicode="s" glyph-name="s" horiz-adv-x="453" d="M393 480V396H216Q187 396 166 385T145 354Q145 342 150 333T161 317T181 305T202 296T266 275T349 245T390 213T409 173T413 134Q413 0 229 0H56V84H229Q323 84 323 134Q323 158 296 174T229 201T150
226T83 273T55 354Q55 415 102 447T216 480H393Z" />
<glyph unicode="t" glyph-name="t" horiz-adv-x="359" d="M10 396L189 575V480H324V396H189V190Q189 155 200 132T234 100T275 87T324 84V0Q209 0 154 44T99 190V396H10Z" />
<glyph unicode="u" glyph-name="u" horiz-adv-x="523" d="M458 0H285Q174 0 126 33Q83 62 72 102T60 209V480H148V210Q148 192 149 180T156 148T173 116T205 94T256 84H370V480H458V0Z" />
<glyph unicode="v" glyph-name="v" horiz-adv-x="464" d="M232 -11Q146 70 106 168T25 480H117Q156 239 232 115Q308 239 347 480H439Q399 266 359 168T232 -11Z" />
<glyph unicode="w" glyph-name="w" horiz-adv-x="680" d="M481 -10Q407 47 382 105T345 276H335Q323 163 298 105T199 -10Q130 24 90 113T42 333L35 480H124L132 337Q141 173 197 99Q212 116 225 137T247 183T262 228T274 278T282 323T287 368T292 403H388Q389
399 392 368T398 323T405 279T417 229T433 184T455 137T483 99Q539 173 548 337L556 480H645L638 333Q631 202 591 113T481 -10Z" />
<glyph unicode="x" glyph-name="x" horiz-adv-x="465" d="M337 480H425V466Q425 331 317 250Q369 212 397 156T425 36V0H337V36Q337 92 310 137T230 206Q178 181 151 134T123 30V0H35V30Q35 170 143 250Q35 331 35 472V480H123V472Q123 415 150 368T230 295Q337
345 337 466V480Z" />
<glyph unicode="y" glyph-name="y" horiz-adv-x="498" d="M45 480H133V229Q133 148 158 116T250 84H355V480H443V24Q443 -101 378 -164T172 -228H100V-144H163Q346 -144 355 0H271Q140 0 93 46T45 233V480Z" />
<glyph unicode="z" glyph-name="z" horiz-adv-x="426" d="M35 0V40Q35 88 56 131T110 208T176 270T240 331T282 392H36V480H384V431Q384 387 363 347T308 275T241 214T175 152T130 88H391V0H35Z" />
<glyph unicode="{" glyph-name="braceleft" horiz-adv-x="378" d="M75 282V342Q113 346 133 378T154 455V628Q154 686 184 718T266 750H333V704H290Q276 704 268 701T251 680T242 624V438Q242 349 163 312Q198 302 220 269T242 185V0Q242 -28 246 -45T259 -70T273
-78T287 -80H333V-126H254Q211 -126 183 -90T154 -4V170Q154 213 134 245T75 282Z" />
<glyph unicode="|" glyph-name="bar" horiz-adv-x="220" d="M75 0V700H145V0H75Z" />
<glyph unicode="}" glyph-name="braceright" horiz-adv-x="407" d="M303 342V282Q265 278 245 247T224 173V-4Q224 -54 196 -90T124 -126H45V-80H91Q99 -80 104 -79T118 -70T131 -46T136 0V181Q136 225 152 257T215 312Q136 336 136 447V624Q136 652 132 669T119
694T105 702T91 704H45V750H124Q167 750 195 714T224 628V454Q224 411 244 379T303 342Z" />
<glyph unicode="~" glyph-name="asciitilde" horiz-adv-x="612" d="M501 316L537 254Q483 168 411 168Q374 168 312 200Q242 236 199 236Q140 236 111 164L75 226Q115 312 200 312Q239 312 326 273Q393 244 411 244Q440 244 464 266T501 316Z" />
<glyph unicode="&#xa1;" glyph-name="exclamdown" horiz-adv-x="274" d="M93 375Q75 393 75 419Q75 445 93 463T137 481Q163 481 181 463T199 419Q199 393 181 375T137 357Q111 357 93 375ZM80 -188Q80 -182 84 -128T92 38T97 290H181Q181 149 184 38T191 -127T194
-188Q194 -240 137 -240T80 -188Z" />
<glyph unicode="&#xa2;" glyph-name="cent" horiz-adv-x="473" d="M225 -100V-1Q145 20 95 86T45 240T95 393T225 481V600H305V489Q385 485 448 434L389 374Q351 402 305 405V74Q354 79 388 105L448 46Q385 -5 305 -9V-100H225ZM225 87V393Q185 375 163 335T140
240T162 145T225 87Z" />
<glyph unicode="&#xa3;" glyph-name="sterling" horiz-adv-x="548" d="M385 410V322H217V197Q217 171 217 160T208 126T183 88H326Q381 88 415 121T450 207V281H544V214Q544 118 492 59T354 0H44V88H59Q96 88 109 113T123 189V322H57V410H123V489Q123 589 179
650T332 712Q398 712 453 688L422 603Q371 624 334 624Q283 624 250 592T217 497V410H385Z" />
<glyph unicode="&#xa4;" glyph-name="currency" horiz-adv-x="595" d="M131 145L92 184L137 231Q96 281 96 350T137 469L92 516L131 555L176 507Q226 551 297 551T418 507L463 555L502 516L457 469Q498 419 498 350T457 231L502 184L463 145L418 193Q368 149 297
149T176 193L131 145ZM211 438Q176 401 176 350T211 262T297 225T382 262T418 350T383 438T297 475T211 438Z" />
<glyph unicode="&#xa5;" glyph-name="yen" horiz-adv-x="543" d="M491 210V132H320V0H226V132H51V210H226V260H51V338H146Q45 456 45 641V700H141V650Q141 547 170 474T273 353Q404 440 404 650V700H498V650Q498 458 396 338H491V260H320V210H491Z" />
<glyph unicode="&#xa6;" glyph-name="brokenbar" horiz-adv-x="220" d="M75 418V700H145V418H75ZM75 0V282H145V0H75Z" />
<glyph unicode="&#xa7;" glyph-name="section" horiz-adv-x="493" d="M421 712V628H236Q181 628 181 591Q181 578 187 567T206 546T232 528T265 510T299 492Q366 454 402 412T438 309Q438 262 413 228T340 186Q376 166 396 135T417 67Q417 46 411 27T388 -11T339
-43T259 -55H55V29H273Q327 29 327 69Q327 83 321 94T302 115T277 132T243 150T209 167Q181 183 161 197T117 234T81 285T68 345Q68 396 99 429T180 463Q134 490 113 520T91 592Q91 643 129 677T248 712H421ZM251 417Q233 422 221 422Q189 422 170 402T151 351Q151
308 198 271T283 233Q310 233 331 251T353 303Q353 340 321 373T251 417Z" />
<glyph unicode="&#xa8;" glyph-name="dieresis" horiz-adv-x="362" d="M51 584Q35 600 35 624T51 664T91 680T131 664T147 624T131 584T91 568T51 584ZM231 584Q215 600 215 624T231 664T271 680T311 664T327 624T311 584T271 568T231 584Z" />
<glyph unicode="&#xa9;" glyph-name="copyright" horiz-adv-x="818" d="M158 91Q55 194 55 350Q55 428 83 494T159 608T271 684T409 712Q482 712 546 685T659 609T735 494T763 350Q763 273 735 207T659 92T547 16T409 -12Q261 -12 158 91ZM125 350Q125 289 146
235T204 140T294 76T409 52Q470 52 522 76T612 140T671 235T693 350Q693 411 672 465T613 559T523 624T409 648Q347 648 295 624T205 560T146 465T125 350ZM502 547V473H458Q384 473 348 445Q298 408 298 337Q298 281 337 241T448 200H502V126H446Q337 126 277
189T217 337Q217 389 240 435T307 510Q341 534 375 540T458 547H502Z" />
<glyph unicode="&#xaa;" glyph-name="ordfeminine" horiz-adv-x="357" d="M206 571V516Q182 524 163 524Q105 524 105 479Q105 446 163 446H245V576Q245 634 177 634H67V700H177Q242 700 276 668T311 576V380H163Q106 380 73 405T39 479Q39 528 74 553T163 579Q187
579 206 571Z" />
<glyph unicode="&#xab;" glyph-name="guillemotleft" horiz-adv-x="481" d="M151 240L276 86H180L55 240L180 394H276L151 240ZM341 240L466 86H370L245 240L370 394H466L341 240Z" />
<glyph unicode="&#xac;" glyph-name="logicalnot" horiz-adv-x="580" d="M452 112V250H50V328H530V112H452Z" />
<glyph unicode="&#xad;" glyph-name="uni00AD" horiz-adv-x="290" d="M257 200H33V280H257V200Z" />
<glyph unicode="&#xae;" glyph-name="registered" horiz-adv-x="815" d="M158 91Q55 194 55 350Q55 428 83 494T159 608T271 684T409 712Q482 712 546 685T659 609T735 494T763 350Q763 273 735 207T659 92T547 16T409 -12Q261 -12 158 91ZM125 350Q125 289 146
235T204 140T294 76T409 52Q470 52 522 76T612 140T671 235T693 350Q693 411 672 465T613 559T523 624T409 648Q347 648 295 624T205 560T146 465T125 350ZM339 141H266V403Q266 425 268 441T275 478T295 516T331 546Q371 564 404 564Q455 564 488 541Q540 505
540 437Q540 387 502 355Q547 332 547 269V141H474V253Q474 273 469 286T453 305T433 313T411 315H370V384H395Q433 384 450 400T467 441T450 480T403 495Q339 495 339 413V141Z" />
<glyph unicode="&#xaf;" glyph-name="overscore" horiz-adv-x="290" d="M-10 572V640H300V572H-10Z" />
<glyph unicode="&#xb0;" glyph-name="degree" horiz-adv-x="339" d="M87 525Q55 559 55 607Q55 657 87 689T169 722Q193 722 214 713T250 689T275 652T284 607Q284 558 252 526T169 493Q121 493 87 525ZM120 607Q120 586 134 572T169 558Q191 558 205 572T219
607Q219 629 205 643T169 657Q148 657 134 643T120 607Z" />
<glyph unicode="&#xb1;" glyph-name="plusminus" horiz-adv-x="580" d="M251 335V480H329V335H530V257H329V112H251V257H50V335H251ZM50 0V78H530V0H50Z" />
<glyph unicode="&#xb2;" glyph-name="twosuperior" horiz-adv-x="291" d="M258 380H45V400Q45 425 61 451T93 491T156 548Q176 566 181 577T186 609Q186 627 176 639T145 651Q106 651 88 614L32 647Q72 710 149 710Q197 710 224 682T251 607Q251 581 240 562T198
512Q178 492 154 470T124 443H258V380Z" />
<glyph unicode="&#xb3;" glyph-name="threesuperior" horiz-adv-x="282" d="M254 476Q254 427 220 398T134 369Q92 369 61 389T22 441L75 467Q80 449 96 438T133 426Q190 426 190 476Q190 528 125 528H99V579Q147 595 171 637H44V700H239V690Q239 618 181 572Q254
552 254 476Z" />
<glyph unicode="&#xb4;" glyph-name="acute" horiz-adv-x="250" d="M87 525L35 567L153 715L215 653L87 525Z" />
<glyph unicode="&#xb5;" glyph-name="mu" horiz-adv-x="498" d="M243 84Q277 84 298 98T331 132T347 175T351 216V480H439V-1H351V57Q309 0 243 0Q177 0 135 57V-227H47V480H135V230Q135 84 243 84Z" />
<glyph unicode="&#xb6;" glyph-name="paragraph" horiz-adv-x="596" d="M521 700V0H437V612H370V0H286V346H271Q213 346 170 360T103 393T66 438T49 484T45 522Q45 700 284 700H521Z" />
<glyph unicode="&#xb7;" glyph-name="middot" horiz-adv-x="194" d="M53 318Q35 336 35 362Q35 388 53 406T97 424Q123 424 141 406T159 362Q159 336 141 318T97 300Q71 300 53 318Z" />
<glyph unicode="&#xb8;" glyph-name="cedilla" horiz-adv-x="217" d="M92 -101L73 -80L109 10H170L142 -56Q158 -53 174 -53Q224 -53 243 -77T262 -131Q262 -173 230 -200T139 -228Q91 -228 35 -204L54 -163Q91 -179 124 -179Q182 -179 182 -135Q182 -118 169
-106T132 -93Q110 -93 92 -101Z" />
<glyph unicode="&#xb9;" glyph-name="onesuperior" horiz-adv-x="245" d="M114 380V637H55L74 700H185V380H114Z" />
<glyph unicode="&#xba;" glyph-name="ordmasculine" horiz-adv-x="425" d="M103 659Q151 709 221 709Q256 709 286 696T338 659T374 604T387 539Q387 504 375 474T340 420T287 384T221 370Q186 370 156 383T103 420T68 473T55 539Q55 609 103 659ZM286 606Q260
635 221 635Q201 635 185 627T156 606T136 575T129 539Q129 520 136 503T155 472T184 452T221 444Q241 444 258 452T287 473T306 503T313 539Q313 577 286 606Z" />
<glyph unicode="&#xbb;" glyph-name="guillemotright" horiz-adv-x="481" d="M140 240L15 394H111L236 240L111 86H15L140 240ZM330 240L205 394H301L426 240L301 86H205L330 240Z" />
<glyph unicode="&#xbc;" glyph-name="onequarter" horiz-adv-x="669" d="M449 700H530L201 0H118L449 700ZM114 380V637H55L74 700H185V380H114ZM507 323H573V126H614V75H573V3H507V75H354V95Q354 115 364 137T386 174T421 219L507 323ZM472 196Q434 152 425 126H507V238L472
196Z" />
<glyph unicode="&#xbd;" glyph-name="onehalf" horiz-adv-x="674" d="M114 380V637H55L74 700H185V380H114ZM619 1H406V21Q406 46 422 72T454 112T517 169Q537 187 542 198T547 230Q547 248 537 260T506 272Q467 272 449 235L393 268Q433 331 510 331Q558 331
585 303T612 228Q612 202 601 183T559 133Q539 113 515 91T485 64H619V1ZM449 700H530L201 0H118L449 700Z" />
<glyph unicode="&#xbe;" glyph-name="threequarters" horiz-adv-x="676" d="M287 476Q287 427 253 398T167 369Q125 369 94 389T55 441L108 467Q113 449 129 438T166 426Q223 426 223 476Q223 528 158 528H132V579Q180 595 204 637H77V700H272V690Q272 618 214
572Q287 552 287 476ZM514 323H580V126H621V75H580V3H514V75H361V95Q361 115 371 137T393 174T428 219L514 323ZM479 196Q441 152 432 126H514V238L479 196ZM465 700H546L217 0H134L465 700Z" />
<glyph unicode="&#xbf;" glyph-name="questiondown" horiz-adv-x="528" d="M214 383Q196 401 196 427Q196 453 214 471T258 489Q284 489 302 471T320 427Q320 401 302 383T258 365Q232 365 214 383ZM135 98L193 39Q162 9 162 -30Q162 -75 190 -99T258 -124Q279
-124 297 -117T330 -96T352 -62T361 -17Q361 7 347 35T308 95L275 137Q264 151 256 160T244 175L223 203Q216 212 212 230T207 268H304Q304 247 315 226T342 182T378 135T414 86T442 32T453 -28Q453 -72 438 -106T396 -163T336 -198T264 -210Q225 -210 191 -198T131
-162T90 -107T75 -34Q75 54 135 98Z" />
<glyph unicode="&#xc0;" glyph-name="Agrave" horiz-adv-x="608" d="M149 0H60V440Q60 548 129 624T309 700H538V0H444V612H309Q236 612 193 569T149 432V347Q205 406 309 406H400V318H309Q251 318 215 304T149 256V0ZM404 787L352 745L224 873L286 935L404 787Z" />
<glyph unicode="&#xc1;" glyph-name="Aacute" horiz-adv-x="608" d="M149 0H60V440Q60 548 129 624T309 700H538V0H444V612H309Q236 612 193 569T149 432V347Q205 406 309 406H400V318H309Q251 318 215 304T149 256V0ZM326 745L274 787L392 935L454 873L326 745Z" />
<glyph unicode="&#xc2;" glyph-name="Acircumflex" horiz-adv-x="608" d="M149 0H60V440Q60 548 129 624T309 700H538V0H444V612H309Q236 612 193 569T149 432V347Q205 406 309 406H400V318H309Q251 318 215 304T149 256V0ZM323 872L244 778H163L273 920H374L484
778H403L323 872Z" />
<glyph unicode="&#xc3;" glyph-name="Atilde" horiz-adv-x="608" d="M149 0H60V440Q60 548 129 624T309 700H538V0H444V612H309Q236 612 193 569T149 432V347Q205 406 309 406H400V318H309Q251 318 215 304T149 256V0ZM454 896H505Q503 848 472 815T397 781Q355
781 304 805Q260 821 246 821Q206 821 198 774H147Q150 819 175 854T252 889Q282 889 333 870Q382 849 405 849Q427 849 440 863T454 896Z" />
<glyph unicode="&#xc4;" glyph-name="Adieresis" horiz-adv-x="608" d="M149 0H60V440Q60 548 129 624T309 700H538V0H444V612H309Q236 612 193 569T149 432V347Q205 406 309 406H400V318H309Q251 318 215 304T149 256V0ZM224 804Q208 820 208 844T224 884T264
900T304 884T320 844T304 804T264 788T224 804ZM404 804Q388 820 388 844T404 884T444 900T484 884T500 844T484 804T444 788T404 804Z" />
<glyph unicode="&#xc5;" glyph-name="Aring" horiz-adv-x="608" d="M149 0H60V440Q60 548 129 624T309 700H538V0H444V612H309Q236 612 193 569T149 432V347Q205 406 309 406H400V318H309Q251 318 215 304T149 256V0ZM264 774Q236 802 236 844T264 914T334 942T404
914T432 844T404 774T334 746T264 774ZM300 877Q286 864 286 844T300 810T334 796T367 810T381 844T368 877T334 891T300 877Z" />
<glyph unicode="&#xc6;" glyph-name="AE" horiz-adv-x="888" d="M149 0H60V440Q60 548 129 624T309 700H534V665Q575 700 640 700H838V612H644Q534 612 534 520V406H765V318H534V88H838V0H444V612H309Q236 612 193 569T149 432V331Q205 390 309 390H410V302H309Q251
302 215 288T149 240V0Z" />
<glyph unicode="&#xc7;" glyph-name="Ccedilla" horiz-adv-x="546" d="M321 -101L302 -80L336 5Q206 24 134 113T60 350Q61 517 152 608T405 700H470V612H393Q282 612 223 539T161 350Q163 235 222 162T393 88H470V0H395L371 -56Q388 -53 403 -53Q453 -53 472
-77T491 -131Q491 -173 459 -200T368 -228Q320 -228 264 -204L283 -163Q320 -179 353 -179Q411 -179 411 -135Q411 -118 398 -106T361 -93Q339 -93 321 -101Z" />
<glyph unicode="&#xc8;" glyph-name="Egrave" horiz-adv-x="508" d="M463 0H65V533Q65 607 112 652Q144 682 184 691T282 700H463V612H269Q159 612 159 520V406H390V318H159V88H463V0ZM352 787L300 745L172 873L234 935L352 787Z" />
<glyph unicode="&#xc9;" glyph-name="Eacute" horiz-adv-x="508" d="M463 0H65V533Q65 607 112 652Q144 682 184 691T282 700H463V612H269Q159 612 159 520V406H390V318H159V88H463V0ZM304 745L252 787L370 935L432 873L304 745Z" />
<glyph unicode="&#xca;" glyph-name="Ecircumflex" horiz-adv-x="508" d="M463 0H65V533Q65 607 112 652Q144 682 184 691T282 700H463V612H269Q159 612 159 520V406H390V318H159V88H463V0ZM302 872L223 778H142L252 920H353L463 778H382L302 872Z" />
<glyph unicode="&#xcb;" glyph-name="Edieresis" horiz-adv-x="508" d="M463 0H65V533Q65 607 112 652Q144 682 184 691T282 700H463V612H269Q159 612 159 520V406H390V318H159V88H463V0ZM162 804Q146 820 146 844T162 884T202 900T242 884T258 844T242 804T202
788T162 804ZM342 804Q326 820 326 844T342 884T382 900T422 884T438 844T422 804T382 788T342 804Z" />
<glyph unicode="&#xcc;" glyph-name="Igrave" horiz-adv-x="234" d="M164 0H70V700H164V0ZM178 787L126 745L-2 873L60 935L178 787Z" />
<glyph unicode="&#xcd;" glyph-name="Iacute" horiz-adv-x="234" d="M164 0H70V700H164V0ZM119 745L67 787L185 935L247 873L119 745Z" />
<glyph unicode="&#xce;" glyph-name="Icircumflex" horiz-adv-x="234" d="M164 0H70V700H164V0ZM118 872L39 778H-42L68 920H169L279 778H198L118 872Z" />
<glyph unicode="&#xcf;" glyph-name="Idieresis" horiz-adv-x="234" d="M164 0H70V700H164V0ZM-12 804Q-28 820 -28 844T-12 884T28 900T68 884T84 844T68 804T28 788T-12 804ZM168 804Q152 820 152 844T168 884T208 900T248 884T264 844T248 804T208 788T168 804Z" />
<glyph unicode="&#xd0;" glyph-name="Eth" horiz-adv-x="611" d="M-6 318V406H70V700H195Q267 700 328 682T440 626T521 518T551 354Q551 196 453 98T206 0H70V318H-6ZM198 612H164V406H298V318H164V88H218Q314 88 382 159T450 356Q450 478 384 545T198 612Z" />
<glyph unicode="&#xd1;" glyph-name="Ntilde" horiz-adv-x="623" d="M416 0H322V700H569Q693 700 754 645T815 470V0H721V483Q721 551 680 581T570 612H416V0ZM429 896H480Q478 848 447 815T372 781Q330 781 279 805Q235 821 221 821Q181 821 173 774H122Q125
819 150 854T227 889Q257 889 308 870Q357 849 380 849Q402 849 415 863T429 896Z" />
<glyph unicode="&#xd2;" glyph-name="Ograve" horiz-adv-x="778" d="M617 347Q616 403 601 453T556 540T484 600T389 622Q336 622 294 600T223 541T178 453T161 347Q162 290 177 241T222 156T294 99T389 78Q442 78 484 99T555 156T600 241T617 347ZM60 347Q61
430 85 497T152 611T255 684T389 710Q462 710 522 685T626 612T693 497T718 347Q717 264 694 198T627 86T524 15T389 -10Q315 -10 255 15T151 86T85 198T60 347ZM439 787L387 745L259 873L321 935L439 787Z" />
<glyph unicode="&#xd3;" glyph-name="Oacute" horiz-adv-x="778" d="M617 347Q616 403 601 453T556 540T484 600T389 622Q336 622 294 600T223 541T178 453T161 347Q162 290 177 241T222 156T294 99T389 78Q442 78 484 99T555 156T600 241T617 347ZM60 347Q61
430 85 497T152 611T255 684T389 710Q462 710 522 685T626 612T693 497T718 347Q717 264 694 198T627 86T524 15T389 -10Q315 -10 255 15T151 86T85 198T60 347ZM381 745L329 787L447 935L509 873L381 745Z" />
<glyph unicode="&#xd4;" glyph-name="Ocircumflex" horiz-adv-x="778" d="M617 347Q616 403 601 453T556 540T484 600T389 622Q336 622 294 600T223 541T178 453T161 347Q162 290 177 241T222 156T294 99T389 78Q442 78 484 99T555 156T600 241T617 347ZM60 347Q61
430 85 497T152 611T255 684T389 710Q462 710 522 685T626 612T693 497T718 347Q717 264 694 198T627 86T524 15T389 -10Q315 -10 255 15T151 86T85 198T60 347ZM388 872L309 778H228L338 920H439L549 778H468L388 872Z" />
<glyph unicode="&#xd5;" glyph-name="Otilde" horiz-adv-x="778" d="M617 347Q616 403 601 453T556 540T484 600T389 622Q336 622 294 600T223 541T178 453T161 347Q162 290 177 241T222 156T294 99T389 78Q442 78 484 99T555 156T600 241T617 347ZM60 347Q61
430 85 497T152 611T255 684T389 710Q462 710 522 685T626 612T693 497T718 347Q717 264 694 198T627 86T524 15T389 -10Q315 -10 255 15T151 86T85 198T60 347ZM517 896H568Q566 848 535 815T460 781Q418 781 367 805Q323 821 309 821Q269 821 261 774H210Q213
819 238 854T315 889Q345 889 396 870Q445 849 468 849Q490 849 503 863T517 896Z" />
<glyph unicode="&#xd6;" glyph-name="Odieresis" horiz-adv-x="778" d="M617 347Q616 403 601 453T556 540T484 600T389 622Q336 622 294 600T223 541T178 453T161 347Q162 290 177 241T222 156T294 99T389 78Q442 78 484 99T555 156T600 241T617 347ZM60 347Q61
430 85 497T152 611T255 684T389 710Q462 710 522 685T626 612T693 497T718 347Q717 264 694 198T627 86T524 15T389 -10Q315 -10 255 15T151 86T85 198T60 347ZM259 804Q243 820 243 844T259 884T299 900T339 884T355 844T339 804T299 788T259 804ZM439 804Q423
820 423 844T439 884T479 900T519 884T535 844T519 804T479 788T439 804Z" />
<glyph unicode="&#xd7;" glyph-name="multiply" horiz-adv-x="580" d="M290 185L105 0L50 55L235 240L50 425L105 480L290 295L475 480L530 425L345 240L530 55L475 0L290 185Z" />
<glyph unicode="&#xd8;" glyph-name="Oslash" horiz-adv-x="828" d="M412 -10Q288 -10 203 58L154 0H58L153 111Q84 204 83 347Q84 513 174 611T412 710Q538 710 622 638L674 700H769L672 584Q740 488 741 347Q740 181 650 86T412 -10ZM184 347Q186 251 225 184L553
569Q495 622 412 622Q306 622 246 543T184 347ZM412 78Q518 78 578 155T640 347Q638 440 599 511L272 127Q329 78 412 78Z" />
<glyph unicode="&#xd9;" glyph-name="Ugrave" horiz-adv-x="623" d="M464 700H558V220Q558 101 497 46T311 -10T126 45T65 220V700H159V207Q159 139 200 109T310 78Q380 78 422 108T464 207V700ZM372 787L320 745L192 873L254 935L372 787Z" />
<glyph unicode="&#xda;" glyph-name="Uacute" horiz-adv-x="623" d="M464 700H558V220Q558 101 497 46T311 -10T126 45T65 220V700H159V207Q159 139 200 109T310 78Q380 78 422 108T464 207V700ZM293 745L241 787L359 935L421 873L293 745Z" />
<glyph unicode="&#xdb;" glyph-name="Ucircumflex" horiz-adv-x="623" d="M464 700H558V220Q558 101 497 46T311 -10T126 45T65 220V700H159V207Q159 139 200 109T310 78Q380 78 422 108T464 207V700ZM321 872L242 778H161L271 920H372L482 778H401L321 872Z" />
<glyph unicode="&#xdc;" glyph-name="Udieresis" horiz-adv-x="623" d="M464 700H558V220Q558 101 497 46T311 -10T126 45T65 220V700H159V207Q159 139 200 109T310 78Q380 78 422 108T464 207V700ZM191 804Q175 820 175 844T191 884T231 900T271 884T287 844T271
804T231 788T191 804ZM371 804Q355 820 355 844T371 884T411 900T451 884T467 844T451 804T411 788T371 804Z" />
<glyph unicode="&#xdd;" glyph-name="Yacute" horiz-adv-x="543" d="M498 700V650Q498 528 453 427T320 272V0H226V270Q139 322 92 421T45 641V700H141V650Q141 547 170 474T273 353Q404 440 404 650V700H498ZM263 745L211 787L329 935L391 873L263 745Z" />
<glyph unicode="&#xde;" glyph-name="Thorn" horiz-adv-x="547" d="M277 526H139V0H45V700H139V614H278Q390 614 451 550T513 387Q513 325 491 279T430 208T349 171T259 159H184V247H270Q337 247 375 287T414 389Q414 449 379 487T277 526Z" />
<glyph unicode="&#xdf;" glyph-name="germandbls" horiz-adv-x="512" d="M-1 396L39 480H67Q67 581 127 640T281 700Q353 700 395 657T437 552Q437 513 417 480T316 382Q299 368 299 350Q299 336 312 326T367 299T430 266T463 222T476 154Q476 123 471 100T449
52T399 14T312 0H219V84H312Q386 84 386 154Q386 180 368 197T324 227T272 252T227 289T209 350Q209 394 258 440Q267 448 297 473T337 516T347 552Q347 578 330 597T281 616Q157 616 157 448V0H67V396H-1Z" />
<glyph unicode="&#xe0;" glyph-name="agrave" horiz-adv-x="503" d="M327 282V192Q289 221 234 221Q187 221 161 203T135 150Q135 84 233 84H365V275Q365 396 247 396H87V480H252Q349 480 401 432T453 294V0H230Q145 0 95 38T45 149T98 260T231 298Q276 298 327
282ZM331 567L279 525L151 653L213 715L331 567Z" />
<glyph unicode="&#xe1;" glyph-name="aacute" horiz-adv-x="503" d="M327 282V192Q289 221 234 221Q187 221 161 203T135 150Q135 84 233 84H365V275Q365 396 247 396H87V480H252Q349 480 401 432T453 294V0H230Q145 0 95 38T45 149T98 260T231 298Q276 298 327
282ZM253 525L201 567L319 715L381 653L253 525Z" />
<glyph unicode="&#xe2;" glyph-name="acircumflex" horiz-adv-x="503" d="M327 282V192Q289 221 234 221Q187 221 161 203T135 150Q135 84 233 84H365V275Q365 396 247 396H87V480H252Q349 480 401 432T453 294V0H230Q145 0 95 38T45 149T98 260T231 298Q276 298
327 282ZM251 652L172 558H91L201 700H302L412 558H331L251 652Z" />
<glyph unicode="&#xe3;" glyph-name="atilde" horiz-adv-x="503" d="M327 282V192Q289 221 234 221Q187 221 161 203T135 150Q135 84 233 84H365V275Q365 396 247 396H87V480H252Q349 480 401 432T453 294V0H230Q145 0 95 38T45 149T98 260T231 298Q276 298 327
282ZM379 676H430Q428 628 397 595T322 561Q280 561 229 585Q185 601 171 601Q131 601 123 554H72Q75 599 100 634T177 669Q207 669 258 650Q307 629 330 629Q352 629 365 643T379 676Z" />
<glyph unicode="&#xe4;" glyph-name="adieresis" horiz-adv-x="503" d="M327 282V192Q289 221 234 221Q187 221 161 203T135 150Q135 84 233 84H365V275Q365 396 247 396H87V480H252Q349 480 401 432T453 294V0H230Q145 0 95 38T45 149T98 260T231 298Q276 298
327 282ZM111 584Q95 600 95 624T111 664T151 680T191 664T207 624T191 584T151 568T111 584ZM291 584Q275 600 275 624T291 664T331 680T371 664T387 624T371 584T331 568T291 584Z" />
<glyph unicode="&#xe5;" glyph-name="aring" horiz-adv-x="503" d="M327 282V192Q289 221 234 221Q187 221 161 203T135 150Q135 84 233 84H365V275Q365 396 247 396H87V480H252Q349 480 401 432T453 294V0H230Q145 0 95 38T45 149T98 260T231 298Q276 298 327
282ZM180 554Q152 582 152 624T180 694T250 722T320 694T348 624T320 554T250 526T180 554ZM216 657Q202 644 202 624T216 590T250 576T283 590T297 624T284 657T250 671T216 657Z" />
<glyph unicode="&#xe6;" glyph-name="ae" horiz-adv-x="812" d="M308 288L309 204Q278 221 234 221Q187 221 161 203T135 150T161 97T234 78Q311 78 383 134Q366 179 366 230Q366 232 366 246T367 275Q367 396 247 396H87V480H252Q370 480 421 408Q488 490 616
490Q786 490 786 349Q786 182 567 182H526V259H574Q641 259 667 279T693 348Q693 379 670 394T611 410Q540 410 500 360T459 240Q459 166 502 120T616 74Q679 74 719 105L779 46Q710 -10 616 -10Q491 -10 423 69Q330 1 231 1Q151 1 98 39T45 151T97 261T231 298Q272
298 308 288Z" />
<glyph unicode="&#xe7;" glyph-name="ccedilla" horiz-adv-x="473" d="M231 -101L212 -80L241 -6Q151 10 98 78T45 240Q45 345 115 417T290 490Q379 490 448 434L389 374Q347 406 290 406Q221 406 181 361T140 240T180 120T290 74Q348 74 388 105L448 46Q384 -5
300 -10L281 -56Q298 -53 313 -53Q363 -53 382 -77T401 -131Q401 -173 369 -200T278 -228Q230 -228 174 -204L193 -163Q230 -179 263 -179Q321 -179 321 -135Q321 -118 308 -106T271 -93Q249 -93 231 -101Z" />
<glyph unicode="&#xe8;" glyph-name="egrave" horiz-adv-x="505" d="M295 490Q465 483 465 349Q465 182 246 182H205V259H253Q320 259 346 279T372 348Q372 379 349 394T290 410Q219 410 179 360T138 240Q138 166 181 120T295 74Q358 74 398 105L458 46Q389 -10
295 -10Q181 -10 113 57T45 230Q45 348 112 421T295 490ZM332 567L280 525L152 653L214 715L332 567Z" />
<glyph unicode="&#xe9;" glyph-name="eacute" horiz-adv-x="505" d="M295 490Q465 483 465 349Q465 182 246 182H205V259H253Q320 259 346 279T372 348Q372 379 349 394T290 410Q219 410 179 360T138 240Q138 166 181 120T295 74Q358 74 398 105L458 46Q389 -10
295 -10Q181 -10 113 57T45 230Q45 348 112 421T295 490ZM274 525L222 567L340 715L402 653L274 525Z" />
<glyph unicode="&#xea;" glyph-name="ecircumflex" horiz-adv-x="505" d="M295 490Q465 483 465 349Q465 182 246 182H205V259H253Q320 259 346 279T372 348Q372 379 349 394T290 410Q219 410 179 360T138 240Q138 166 181 120T295 74Q358 74 398 105L458 46Q389
-10 295 -10Q181 -10 113 57T45 230Q45 348 112 421T295 490ZM283 652L204 558H123L233 700H334L444 558H363L283 652Z" />
<glyph unicode="&#xeb;" glyph-name="edieresis" horiz-adv-x="505" d="M295 490Q465 483 465 349Q465 182 246 182H205V259H253Q320 259 346 279T372 348Q372 379 349 394T290 410Q219 410 179 360T138 240Q138 166 181 120T295 74Q358 74 398 105L458 46Q389
-10 295 -10Q181 -10 113 57T45 230Q45 348 112 421T295 490ZM132 584Q116 600 116 624T132 664T172 680T212 664T228 624T212 584T172 568T132 584ZM312 584Q296 600 296 624T312 664T352 680T392 664T408 624T392 584T352 568T312 584Z" />
<glyph unicode="&#xec;" glyph-name="igrave" horiz-adv-x="264" d="M190 0H102V396H20L60 480H190V0ZM439 567L387 525L259 653L321 715L439 567Z" />
<glyph unicode="&#xed;" glyph-name="iacute" horiz-adv-x="264" d="M190 0H102V396H20L60 480H190V0ZM124 525L72 567L190 715L252 653L124 525Z" />
<glyph unicode="&#xee;" glyph-name="icircumflex" horiz-adv-x="264" d="M190 0H102V396H20L60 480H190V0ZM389 652L310 558H229L339 700H440L550 558H469L389 652Z" />
<glyph unicode="&#xef;" glyph-name="idieresis" horiz-adv-x="264" d="M190 0H102V396H20L60 480H190V0ZM259 584Q243 600 243 624T259 664T299 680T339 664T355 624T339 584T299 568T259 584ZM439 584Q423 600 423 624T439 664T479 680T519 664T535 624T519
584T479 568T439 584Z" />
<glyph unicode="&#xf0;" glyph-name="eth" horiz-adv-x="586" d="M165 656L219 712Q270 693 324 652L427 707L476 649L385 600Q452 537 494 449T537 268Q537 152 471 71T290 -10Q183 -10 114 62T44 240Q44 338 113 404T288 470Q321 470 338 466L356 373Q324 386
289 386Q216 386 175 346T133 240Q133 166 175 120T288 74Q365 74 407 119T449 268Q449 347 412 424T311 561L205 506L157 564L248 611Q203 640 165 656Z" />
<glyph unicode="&#xf1;" glyph-name="ntilde" horiz-adv-x="523" d="M65 480H238Q349 480 397 447Q440 418 451 378T463 271V0H375V270Q375 288 374 300T367 332T350 364T318 386T267 396H153V0H65V480ZM389 676H440Q438 628 407 595T332 561Q290 561 239 585Q195
601 181 601Q141 601 133 554H82Q85 599 110 634T187 669Q217 669 268 650Q317 629 340 629Q362 629 375 643T389 676Z" />
<glyph unicode="&#xf2;" glyph-name="ograve" horiz-adv-x="580" d="M115 417Q185 490 290 490Q341 490 385 471T463 417T516 338T535 240Q535 188 517 143T465 63T387 10T290 -10Q237 -10 193 9T115 63T64 142T45 240Q45 346 115 417ZM290 406Q220 406 178 360T135
240T177 120T290 74Q361 74 403 120T445 240T403 359T290 406ZM340 567L288 525L160 653L222 715L340 567Z" />
<glyph unicode="&#xf3;" glyph-name="oacute" horiz-adv-x="580" d="M115 417Q185 490 290 490Q341 490 385 471T463 417T516 338T535 240Q535 188 517 143T465 63T387 10T290 -10Q237 -10 193 9T115 63T64 142T45 240Q45 346 115 417ZM290 406Q220 406 178 360T135
240T177 120T290 74Q361 74 403 120T445 240T403 359T290 406ZM302 525L250 567L368 715L430 653L302 525Z" />
<glyph unicode="&#xf4;" glyph-name="ocircumflex" horiz-adv-x="580" d="M115 417Q185 490 290 490Q341 490 385 471T463 417T516 338T535 240Q535 188 517 143T465 63T387 10T290 -10Q237 -10 193 9T115 63T64 142T45 240Q45 346 115 417ZM290 406Q220 406 178
360T135 240T177 120T290 74Q361 74 403 120T445 240T403 359T290 406ZM289 652L210 558H129L239 700H340L450 558H369L289 652Z" />
<glyph unicode="&#xf5;" glyph-name="otilde" horiz-adv-x="580" d="M115 417Q185 490 290 490Q341 490 385 471T463 417T516 338T535 240Q535 188 517 143T465 63T387 10T290 -10Q237 -10 193 9T115 63T64 142T45 240Q45 346 115 417ZM290 406Q220 406 178 360T135
240T177 120T290 74Q361 74 403 120T445 240T403 359T290 406ZM418 676H469Q467 628 436 595T361 561Q319 561 268 585Q224 601 210 601Q170 601 162 554H111Q114 599 139 634T216 669Q246 669 297 650Q346 629 369 629Q391 629 404 643T418 676Z" />
<glyph unicode="&#xf6;" glyph-name="odieresis" horiz-adv-x="580" d="M115 417Q185 490 290 490Q341 490 385 471T463 417T516 338T535 240Q535 188 517 143T465 63T387 10T290 -10Q237 -10 193 9T115 63T64 142T45 240Q45 346 115 417ZM290 406Q220 406 178
360T135 240T177 120T290 74Q361 74 403 120T445 240T403 359T290 406ZM160 584Q144 600 144 624T160 664T200 680T240 664T256 624T240 584T200 568T160 584ZM340 584Q324 600 324 624T340 664T380 680T420 664T436 624T420 584T380 568T340 584Z" />
<glyph unicode="&#xf7;" glyph-name="divide" horiz-adv-x="580" d="M246 8Q228 26 228 52Q228 78 246 96T290 114Q316 114 334 96T352 52Q352 26 334 8T290 -10Q264 -10 246 8ZM246 378Q228 396 228 422Q228 448 246 466T290 484Q316 484 334 466T352 422Q352
396 334 378T290 360Q264 360 246 378ZM530 201H50V279H530V201Z" />
<glyph unicode="&#xf8;" glyph-name="oslash" horiz-adv-x="566" d="M283 490Q352 490 408 456L448 507H537L463 410Q528 340 528 240Q528 135 458 63T283 -10Q210 -10 151 27L119 -15H29L97 75Q38 145 38 240Q38 345 108 417T283 490ZM438 240Q438 303 405 347L209
90Q240 74 283 74Q354 74 396 120T438 240ZM283 406Q213 406 171 360T128 240Q128 181 156 139L350 392Q319 406 283 406Z" />
<glyph unicode="&#xf9;" glyph-name="ugrave" horiz-adv-x="523" d="M458 0H285Q174 0 126 33Q83 62 72 102T60 209V480H148V210Q148 192 149 180T156 148T173 116T205 94T256 84H370V480H458V0ZM301 567L249 525L121 653L183 715L301 567Z" />
<glyph unicode="&#xfa;" glyph-name="uacute" horiz-adv-x="523" d="M458 0H285Q174 0 126 33Q83 62 72 102T60 209V480H148V210Q148 192 149 180T156 148T173 116T205 94T256 84H370V480H458V0ZM263 525L211 567L329 715L391 653L263 525Z" />
<glyph unicode="&#xfb;" glyph-name="ucircumflex" horiz-adv-x="523" d="M458 0H285Q174 0 126 33Q83 62 72 102T60 209V480H148V210Q148 192 149 180T156 148T173 116T205 94T256 84H370V480H458V0ZM261 652L182 558H101L211 700H312L422 558H341L261 652Z" />
<glyph unicode="&#xfc;" glyph-name="udieresis" horiz-adv-x="523" d="M458 0H285Q174 0 126 33Q83 62 72 102T60 209V480H148V210Q148 192 149 180T156 148T173 116T205 94T256 84H370V480H458V0ZM131 584Q115 600 115 624T131 664T171 680T211 664T227 624T211
584T171 568T131 584ZM311 584Q295 600 295 624T311 664T351 680T391 664T407 624T391 584T351 568T311 584Z" />
<glyph unicode="&#xfd;" glyph-name="yacute" horiz-adv-x="498" d="M45 480H133V229Q133 148 158 116T250 84H355V480H443V24Q443 -101 378 -164T172 -228H100V-144H163Q346 -144 355 0H271Q140 0 93 46T45 233V480ZM251 525L199 567L317 715L379 653L251 525Z" />
<glyph unicode="&#xfe;" glyph-name="thorn" horiz-adv-x="580" d="M145 -229H55V701H145V490H290Q405 490 475 421T546 240Q546 134 474 62T297 -10Q235 -10 181 20V110Q231 74 297 74Q367 74 412 120T457 240Q457 314 414 360T290 406H145V-229Z" />
<glyph unicode="&#xff;" glyph-name="ydieresis" horiz-adv-x="498" d="M45 480H133V229Q133 148 158 116T250 84H355V480H443V24Q443 -101 378 -164T172 -228H100V-144H163Q346 -144 355 0H271Q140 0 93 46T45 233V480ZM122 584Q106 600 106 624T122 664T162
680T202 664T218 624T202 584T162 568T122 584ZM302 584Q286 600 286 624T302 664T342 680T382 664T398 624T382 584T342 568T302 584Z" />
<glyph unicode="&#x2013;" glyph-name="endash" horiz-adv-x="566" d="M533 208H33V282H533V208Z" />
<glyph unicode="&#x2014;" glyph-name="emdash" horiz-adv-x="716" d="M683 208H33V282H683V208Z" />
<glyph unicode="&#x2018;" glyph-name="quoteleft" horiz-adv-x="281" d="M152 855L202 823Q164 749 158 700H226L186 616H55Q55 756 152 855Z" />
<glyph unicode="&#x2019;" glyph-name="quoteright" horiz-adv-x="281" d="M129 545L79 577Q117 651 123 700H55L95 784H226Q226 644 129 545Z" />
<glyph unicode="&#x201a;" glyph-name="quotesinglbase" horiz-adv-x="216" d="M84 -155L34 -123Q72 -49 78 0H10L50 84H181Q181 -56 84 -155Z" />
<glyph unicode="&#x201c;" glyph-name="quotedblleft" horiz-adv-x="491" d="M152 855L202 823Q164 749 158 700H226L186 616H55Q55 756 152 855ZM362 855L412 823Q374 749 368 700H436L396 616H265Q265 756 362 855Z" />
<glyph unicode="&#x201d;" glyph-name="quotedblright" horiz-adv-x="491" d="M129 545L79 577Q117 651 123 700H55L95 784H226Q226 644 129 545ZM339 545L289 577Q327 651 333 700H265L305 784H436Q436 644 339 545Z" />
<glyph unicode="&#x201e;" glyph-name="quotedblbase" horiz-adv-x="426" d="M84 -155L34 -123Q72 -49 78 0H10L50 84H181Q181 -56 84 -155ZM294 -155L244 -123Q282 -49 288 0H220L260 84H391Q391 -56 294 -155Z" />
<glyph unicode="&#x2022;" glyph-name="bullet" horiz-adv-x="412" d="M112 443Q150 481 206 481Q233 481 257 471T299 443T327 401T337 350Q337 322 327 298T300 257T258 229T206 219Q178 219 154 229T113 256T85 298T75 350Q75 406 112 443Z" />
<glyph unicode="&#x2039;" glyph-name="guilsinglleft" horiz-adv-x="291" d="M151 240L276 86H180L55 240L180 394H276L151 240Z" />
<glyph unicode="&#x203a;" glyph-name="guilsinglright" horiz-adv-x="291" d="M140 240L15 394H111L236 240L111 86H15L140 240Z" />
</font>
</defs>
</svg>
