<?xml version="1.0" standalone="no"?>
<!DOCTYPE svg PUBLIC "-//W3C//DTD SVG 1.1//EN" "http://www.w3.org/Graphics/SVG/1.1/DTD/svg11.dtd">
<svg xmlns="http://www.w3.org/2000/svg">
<defs >
<font id="Assistant" horiz-adv-x="509" ><font-face
    font-family="Assistant"
    units-per-em="1000"
    panose-1="0 0 8 0 0 0 0 0 0 0"
    ascent="1021"
    descent="-287"
    alphabetic="0" />
<glyph unicode=" " glyph-name="space" horiz-adv-x="200" />
<glyph unicode="!" glyph-name="exclam" horiz-adv-x="332" d="M102 544L98 670H235L230 544L211 226H121L102 544ZM130 -12T106 13T82 76Q82 114 106 139T166 164Q202 164 226 139T250 76Q250 38 226 13T166 -12Q130 -12 106 13Z" />
<glyph unicode="&quot;" glyph-name="quotedbl" horiz-adv-x="519" d="M81 561L77 687H215L211 561L184 367H108L81 561ZM308 561L304 687H442L438 561L411 367H335L308 561Z" />
<glyph unicode="#" glyph-name="numbersign" horiz-adv-x="523" d="M110 190H35V278H120L134 394H55V482H145L167 650H246L226 482H334L355 650H434L414 482H493V394H403L389 278H473V190H379L356 0H275L298 190H190L167 0H87L110 190ZM308 278L323 394H215L200 278H308Z" />
<glyph unicode="$" glyph-name="dollar" horiz-adv-x="523" d="M463 110T423 60T308 -6V-110H216V-10Q169 -4 122 15T41 66L101 159Q140 129 175 114T246 99Q332 99 332 173Q332 206 306 227T223 278Q173 304 142 325T88 380T66 461Q66 533 106 581T216 643V746H308V645Q391
633 455 564L386 486Q357 512 332 524T275 537Q197 537 197 468Q197 438 222 419T299 375Q350 350 383 329T439 271T463 183Q463 110 423 60Z" />
<glyph unicode="%" glyph-name="percent" horiz-adv-x="845" d="M116 266T72 321T27 474Q27 570 71 625T188 680Q259 680 303 625T348 474Q348 378 304 322T188 266Q116 266 72 321ZM559 665H639L285 -12H205L559 665ZM217 343T234 374T252 474Q252 541 235 572T188
603Q159 603 141 572T123 474Q123 407 141 375T188 343Q217 343 234 374ZM586 -12T542 44T497 196Q497 292 541 347T657 402Q729 402 773 347T818 196Q818 99 774 44T657 -12Q586 -12 542 44ZM686 65T704 97T722 196Q722 263 704 294T657 325Q628 325 611 294T593
196Q593 129 610 97T657 65Q686 65 704 97Z" />
<glyph unicode="&amp;" glyph-name="ampersand" horiz-adv-x="658" d="M607 -12Q525 5 443 56Q354 -12 241 -12Q174 -12 125 13T51 80T26 174Q26 236 58 279T147 358Q106 435 106 497Q106 543 127 581T188 642T280 665Q351 665 393 626T435 520Q435 462 399 420T296
333Q351 265 433 204Q486 275 511 366H636Q597 241 526 143Q592 106 640 99L607 -12ZM219 458T242 414Q285 439 307 463T330 520Q330 545 318 559T282 574Q255 574 237 553T219 497Q219 458 242 414ZM156 142T184 118T258 93Q302 93 348 123Q267 189 206 268Q182
247 169 226T156 182Q156 142 184 118Z" />
<glyph unicode="&apos;" glyph-name="quotesingle" horiz-adv-x="292" d="M81 561L77 687H215L211 561L184 367H108L81 561Z" />
<glyph unicode="(" glyph-name="parenleft" horiz-adv-x="338" d="M141 -72T108 39T74 278Q74 406 107 517T206 735L291 699Q237 605 211 497T184 278Q184 167 210 59T291 -143L206 -179Q141 -72 108 39Z" />
<glyph unicode=")" glyph-name="parenright" horiz-adv-x="338" d="M47 -143Q101 -49 127 59T154 278Q154 389 128 497T47 699L132 735Q197 628 230 517T264 278Q264 150 231 39T132 -179L47 -143Z" />
<glyph unicode="*" glyph-name="asterisk" horiz-adv-x="451" d="M89 403L147 504L41 552L63 620L177 596L189 712H262L274 595L387 620L410 552L303 504L362 403L304 360L226 449L147 360L89 403Z" />
<glyph unicode="+" glyph-name="plus" horiz-adv-x="523" d="M211 282H34V379H211V565H312V379H489V282H312V96H211V282Z" />
<glyph unicode="," glyph-name="comma" horiz-adv-x="292" d="M196 164T221 129T247 31Q247 -49 203 -107T75 -191L47 -117Q99 -99 127 -67T155 5H147Q112 5 88 26T63 84Q63 119 88 141T150 164Q196 164 221 129Z" />
<glyph unicode="-" glyph-name="hyphen" horiz-adv-x="329" d="M43 302H286V204H43V302Z" />
<glyph unicode="." glyph-name="period" horiz-adv-x="292" d="M110 -12T86 13T62 76Q62 114 86 139T146 164Q182 164 206 139T230 76Q230 38 206 13T146 -12Q110 -12 86 13Z" />
<glyph unicode="/" glyph-name="slash" horiz-adv-x="341" d="M225 710H315L103 -160H13L225 710Z" />
<glyph unicode="0" glyph-name="zero" horiz-adv-x="523" d="M194 -12T144 26T66 140T38 321Q38 479 98 563T262 648Q365 648 425 564T485 321Q485 215 458 140T380 27T262 -12Q194 -12 144 26ZM306 94T331 145T356 321Q356 443 331 492T262 542Q217 542 193 493T168
321Q168 197 193 146T262 94Q306 94 331 145Z" />
<glyph unicode="1" glyph-name="one" horiz-adv-x="478" d="M40 111H180V495H62V580Q111 589 147 602T216 636H317V111H438V0H40V111Z" />
<glyph unicode="2" glyph-name="two" horiz-adv-x="523" d="M38 79Q142 178 196 235T284 344T317 440Q317 487 292 513T222 540Q190 540 162 522T106 474L31 548Q79 599 127 623T241 648Q334 648 391 594T448 448Q448 374 393 295T235 108Q293 115 342 115H479V0H38V79Z" />
<glyph unicode="3" glyph-name="three" horiz-adv-x="523" d="M103 -12T23 78L86 165Q154 99 229 99Q278 99 307 120T337 181Q337 229 299 253T161 277V375Q245 375 280 398T316 465Q316 501 294 520T233 540Q199 540 171 526T111 483L42 567Q136 648 239 648Q337
648 395 603T453 475Q453 377 346 333V329Q404 312 439 273T474 173Q474 116 443 74T359 10T242 -12Q103 -12 23 78Z" />
<glyph unicode="4" glyph-name="four" horiz-adv-x="523" d="M499 156H423V0H296V156H19V250L258 636H423V260H499V156ZM296 260V377Q296 419 301 516H297Q287 495 254 430L245 412L151 260H296Z" />
<glyph unicode="5" glyph-name="five" horiz-adv-x="523" d="M112 -12T23 77L85 164Q154 99 226 99Q277 99 307 127T338 206Q338 255 309 283T233 311Q205 311 186 304T136 277L74 317L92 636H446V521H210L199 390Q238 407 274 407Q361 407 418 357T475 209Q475
141 444 91T360 15T245 -12Q112 -12 23 77Z" />
<glyph unicode="6" glyph-name="six" horiz-adv-x="523" d="M384 396T435 347T487 200Q487 136 459 88T384 14T279 -12Q215 -12 161 22T75 126T42 302Q42 417 77 495T170 610T297 648Q354 648 399 627T477 573L405 491Q387 511 360 524T305 537Q245 537 208 487T167
325Q192 358 229 377T299 396Q384 396 435 347ZM314 91T338 119T362 200Q362 250 338 274T273 299Q245 299 219 283T171 232Q180 158 208 125T277 91Q314 91 338 119Z" />
<glyph unicode="7" glyph-name="seven" horiz-adv-x="523" d="M171 167T208 282T334 521H44V636H481V552Q408 464 372 386T321 223T300 0H162Q171 167 208 282Z" />
<glyph unicode="8" glyph-name="eight" horiz-adv-x="523" d="M199 -12T149 10T71 72T42 163Q42 262 152 321V325Q66 388 66 474Q66 553 122 600T266 648Q352 648 404 601T457 474Q457 431 433 394T373 333V329Q424 301 453 262T483 163Q483 114 455 74T377 11T261
-12Q199 -12 149 10ZM345 414T345 465Q345 505 323 528T263 552Q230 552 209 532T187 474Q187 436 215 413T302 366Q345 414 345 465ZM305 84T330 106T355 168Q355 196 338 216T295 249T215 285Q190 264 175 236T160 178Q160 136 190 110T264 84Q305 84 330 106Z"
/>
<glyph unicode="9" glyph-name="nine" horiz-adv-x="523" d="M307 648T361 614T447 510T480 334Q480 219 445 141T352 26T225 -12Q168 -12 123 9T45 63L117 145Q134 125 161 112T217 99Q277 99 314 149T355 311Q330 278 293 259T223 240Q138 240 87 289T35 436Q35
500 63 548T138 622T243 648Q307 648 361 614ZM277 337T303 353T351 404Q342 478 314 511T245 545Q208 545 184 517T160 436Q160 385 183 361T249 337Q277 337 303 353Z" />
<glyph unicode=":" glyph-name="colon" horiz-adv-x="292" d="M110 318T86 343T62 406Q62 444 86 469T146 494Q182 494 206 469T230 406Q230 368 206 343T146 318Q110 318 86 343ZM110 -12T86 13T62 76Q62 114 86 139T146 164Q182 164 206 139T230 76Q230 38 206
13T146 -12Q110 -12 86 13Z" />
<glyph unicode=";" glyph-name="semicolon" horiz-adv-x="292" d="M110 318T86 343T62 406Q62 444 86 469T146 494Q182 494 206 469T230 406Q230 368 206 343T146 318Q110 318 86 343ZM196 164T221 129T247 31Q247 -49 203 -107T75 -191L47 -117Q99 -99 127 -67T155
5H147Q112 5 88 26T63 84Q63 119 88 141T150 164Q196 164 221 129Z" />
<glyph unicode="&lt;" glyph-name="less" horiz-adv-x="523" d="M34 284V380L489 556V443L308 382L173 334V330L308 283L489 222V109L34 284Z" />
<glyph unicode="=" glyph-name="equal" horiz-adv-x="523" d="M34 494H489V397H34V494ZM34 520H489V423H34V520Z" />
<glyph unicode="&gt;" glyph-name="greater" horiz-adv-x="523" d="M34 222L216 283L351 330V334L216 382L34 443V556L489 380V284L34 109V222Z" />
<glyph unicode="?" glyph-name="question" horiz-adv-x="457" d="M153 244T153 252Q153 297 173 331T230 408Q258 440 270 460T283 503Q283 535 264 553T211 572Q184 572 162 560T116 524L41 593Q77 634 125 658T228 682Q312 682 363 639T414 513Q414 473 396
443T342 371Q308 333 291 305T274 241Q274 231 275 226H155Q153 244 153 252ZM179 -12T155 13T131 76Q131 114 155 139T215 164Q251 164 275 139T299 76Q299 38 275 13T215 -12Q179 -12 155 13Z" />
<glyph unicode="@" glyph-name="at" horiz-adv-x="894" d="M321 -169T236 -127T100 -1T49 205Q49 340 109 445T272 608T495 666Q600 666 679 622T802 497T845 313Q845 227 812 165T728 72T622 40Q577 40 546 60T508 116H506Q485 87 451 68T386 49Q328 49 292 89T256
198Q256 258 282 314T355 406T456 441Q509 441 533 392H535L549 433H633L589 216Q584 197 584 177Q584 125 636 125Q667 125 695 148T740 213T758 310Q758 386 729 447T639 545T484 582Q397 582 318 535T191 403T142 209Q142 114 181 48T287 -52T435 -86Q474 -86
515 -75T589 -46L619 -121Q532 -169 424 -169Q321 -169 236 -127ZM432 136T448 147T485 183L510 322Q492 353 460 353Q431 353 408 330T372 273T359 206Q359 171 374 154T415 136Q432 136 448 147Z" />
<glyph unicode="A" glyph-name="A" horiz-adv-x="568" d="M384 163H179L135 0H-5L203 653H366L573 0H428L384 163ZM356 269L338 336Q326 380 302 474L283 548H279Q249 419 226 336L208 269H356Z" />
<glyph unicode="B" glyph-name="B" horiz-adv-x="603" d="M79 653H298Q536 653 536 491Q536 445 512 405T448 350V346Q503 332 536 294T569 192Q569 97 499 49T316 0H79V653ZM290 389Q347 389 374 410T402 471Q402 511 375 529T291 547H216V389H290ZM304 106Q435
106 435 201Q435 246 403 266T304 287H216V106H304Z" />
<glyph unicode="C" glyph-name="C" horiz-adv-x="580" d="M264 -12T196 27T87 141T47 323Q47 428 88 505T199 624T352 665Q411 665 460 642T546 581L473 493Q446 519 418 532T355 546Q307 546 269 520T210 444T188 328Q188 225 232 166T353 107Q428 107 484 170L557
84Q475 -12 348 -12Q264 -12 196 27Z" />
<glyph unicode="D" glyph-name="D" horiz-adv-x="632" d="M79 653H260Q414 653 499 572T585 329Q585 167 501 84T268 0H79V653ZM252 111Q444 111 444 329Q444 442 395 492T252 542H216V111H252Z" />
<glyph unicode="E" glyph-name="E" horiz-adv-x="545" d="M79 653H483V538H216V395H443V280H216V115H493V0H79V653Z" />
<glyph unicode="F" glyph-name="F" horiz-adv-x="520" d="M79 653H485V538H216V375H446V260H216V0H79V653Z" />
<glyph unicode="G" glyph-name="G" horiz-adv-x="635" d="M272 -12T201 27T88 141T47 323Q47 428 89 505T202 624T362 665Q481 665 565 581L493 493Q465 519 436 532T367 546Q286 546 237 488T188 328Q188 222 236 165T377 107Q399 107 420 113T454 129V251H341V363H576V67Q540
32 484 10T363 -12Q272 -12 201 27Z" />
<glyph unicode="H" glyph-name="H" horiz-adv-x="670" d="M79 653H216V398H454V653H591V0H454V278H216V0H79V653Z" />
<glyph unicode="I" glyph-name="I" horiz-adv-x="295" d="M79 653H216V0H79V653Z" />
<glyph unicode="J" glyph-name="J" horiz-adv-x="504" d="M152 -12T102 16T19 104L112 173Q148 107 207 107Q250 107 271 134T292 225V653H429V213Q429 114 377 51T224 -12Q152 -12 102 16Z" />
<glyph unicode="K" glyph-name="K" horiz-adv-x="609" d="M79 653H216V376H220L427 653H578L379 394L613 0H463L298 286L216 180V0H79V653Z" />
<glyph unicode="L" glyph-name="L" horiz-adv-x="513" d="M79 653H216V115H478V0H79V653Z" />
<glyph unicode="M" glyph-name="M" horiz-adv-x="757" d="M79 653H230L339 353Q354 310 365 271L378 230H382L400 287Q416 341 421 353L527 653H678V0H553V259Q553 314 566 437L570 476H566L513 323L416 58H338L241 323L189 476H185L189 437Q202 314 202 259V0H79V653Z" />
<glyph unicode="N" glyph-name="N" horiz-adv-x="662" d="M79 653H220L401 314L466 172H470Q469 189 465 225Q453 341 453 405V653H583V0H443L262 339L196 481H192Q193 469 197 436Q202 390 206 340T210 250V0H79V653Z" />
<glyph unicode="O" glyph-name="O" horiz-adv-x="681" d="M254 -12T188 29T84 147T47 329Q47 434 84 509T187 625T341 665Q428 665 494 625T597 509T634 329Q634 225 598 148T495 29T341 -12Q254 -12 188 29ZM411 107T452 167T494 329Q494 430 453 488T341 546Q270
546 229 489T188 329Q188 227 229 167T341 107Q411 107 452 167Z" />
<glyph unicode="P" glyph-name="P" horiz-adv-x="592" d="M79 653H297Q415 653 484 605T554 446Q554 338 483 283T301 228H216V0H79V653ZM292 337Q420 337 420 446Q420 498 388 521T288 544H216V337H292Z" />
<glyph unicode="Q" glyph-name="Q" horiz-adv-x="681" d="M665 -159Q647 -168 618 -173T553 -179Q455 -179 384 -132T278 -6Q172 15 110 103T47 329Q47 434 84 509T187 625T341 665Q428 665 494 625T597 509T634 329Q634 198 578 112T423 -2Q444 -36 483 -52T569
-69Q606 -69 641 -58L665 -159ZM188 222T229 161T341 100Q411 100 452 161T494 329Q494 430 453 488T341 546Q270 546 229 489T188 329Q188 222 229 161Z" />
<glyph unicode="R" glyph-name="R" horiz-adv-x="606" d="M433 0L303 242H216V0H79V653H309Q423 653 490 607T557 453Q557 383 525 336T436 265L587 0H433ZM216 351H297Q359 351 391 376T423 453Q423 502 392 523T297 544H216V351Z" />
<glyph unicode="S" glyph-name="S" horiz-adv-x="552" d="M210 -12T147 12T36 83L115 177Q151 145 194 126T279 107Q327 107 352 125T378 177Q378 198 367 212T338 235T281 260L195 297Q137 321 100 364T63 474Q63 527 92 570T174 639T291 665Q348 665 403 643T498
580L429 493Q395 520 362 533T291 546Q250 546 226 529T202 482Q202 461 214 447T245 424T303 399L387 365Q450 339 484 297T518 188Q518 133 489 88T405 15T276 -12Q210 -12 147 12Z" />
<glyph unicode="T" glyph-name="T" horiz-adv-x="553" d="M208 538H26V653H528V538H345V0H208V538Z" />
<glyph unicode="U" glyph-name="U" horiz-adv-x="662" d="M207 -12T142 63T76 297V653H213V284Q213 189 243 148T332 107Q392 107 423 148T454 284V653H586V297Q586 138 522 63T332 -12Q207 -12 142 63Z" />
<glyph unicode="V" glyph-name="V" horiz-adv-x="550" d="M-6 653H139L222 341Q237 287 249 236Q281 110 276 130H280Q285 148 314 261L334 341L416 653H556L357 0H193L-6 653Z" />
<glyph unicode="W" glyph-name="W" horiz-adv-x="809" d="M15 653H156L205 340L233 133H237L277 340L351 653H468L541 340L564 224L582 133H586Q605 280 614 340L663 653H794L675 0H503L434 312Q418 387 407 463H403L395 417Q383 347 375 312L308 0H139L15 653Z" />
<glyph unicode="X" glyph-name="X" horiz-adv-x="559" d="M194 336L23 653H176L238 522Q247 504 269 456L286 419H290Q304 458 332 522L390 653H536L365 330L547 0H394L325 140Q306 177 275 247H271Q259 218 225 140L158 0H12L194 336Z" />
<glyph unicode="Y" glyph-name="Y" horiz-adv-x="517" d="M190 236L-7 653H140L203 497L257 353H261Q265 362 269 372T278 394Q302 455 318 497L381 653H524L327 236V0H190V236Z" />
<glyph unicode="Z" glyph-name="Z" horiz-adv-x="541" d="M37 83L335 538H65V653H504V570L206 115H506V0H37V83Z" />
<glyph unicode="[" glyph-name="bracketleft" horiz-adv-x="338" d="M88 708H294V635H190V-79H294V-152H88V708Z" />
<glyph unicode="\" glyph-name="backslash" horiz-adv-x="341" d="M26 710H116L328 -160H238L26 710Z" />
<glyph unicode="]" glyph-name="bracketright" horiz-adv-x="338" d="M44 -79H148V635H44V708H250V-152H44V-79Z" />
<glyph unicode="^" glyph-name="asciicircum" horiz-adv-x="523" d="M206 670H317L472 276H359L310 412L264 547H260L214 412L165 276H52L206 670Z" />
<glyph unicode="_" glyph-name="underscore" horiz-adv-x="500" d="M12 -60H488V-138H12V-60Z" />
<glyph unicode="`" glyph-name="grave" horiz-adv-x="553" d="M93 729L186 819L338 640L270 573L93 729Z" />
<glyph unicode="a" glyph-name="a" horiz-adv-x="524" d="M125 -12T85 30T44 136Q44 215 111 258T326 318Q323 398 244 398Q213 398 181 386T111 352L62 442Q167 507 270 507Q365 507 414 452T463 286V0H351L341 52H338Q264 -12 191 -12Q125 -12 85 30ZM261 94T281
105T326 140V235Q245 224 210 202T175 147Q175 121 191 108T236 94Q261 94 281 105Z" />
<glyph unicode="b" glyph-name="b" horiz-adv-x="570" d="M287 -12T254 4T190 53H186L175 0H68V703H204V528L201 450Q231 476 265 491T335 507Q425 507 477 439T530 256Q530 174 501 113T424 20T321 -12Q287 -12 254 4ZM334 100T362 139T390 254Q390 395 297 395Q251
395 204 347V135Q243 100 290 100Q334 100 362 139Z" />
<glyph unicode="c" glyph-name="c" horiz-adv-x="466" d="M211 -12T156 19T70 108T38 247Q38 327 72 386T165 476T292 507Q373 507 437 453L372 365Q353 381 336 388T300 396Q245 396 212 356T178 247Q178 180 210 140T295 99Q340 99 389 137L443 48Q408 18 366
3T280 -12Q211 -12 156 19Z" />
<glyph unicode="d" glyph-name="d" horiz-adv-x="570" d="M150 -12T96 57T41 247Q41 325 70 384T146 475T247 507Q286 507 314 494T371 454L366 531V703H503V0H391L381 51H378Q350 23 315 6T243 -12Q150 -12 96 57ZM304 100T325 111T366 148V360Q328 395 278 395Q237
395 209 357T181 249Q181 175 206 138T278 100Q304 100 325 111Z" />
<glyph unicode="e" glyph-name="e" horiz-adv-x="514" d="M478 232T472 208H166Q176 149 214 121T304 93Q357 93 414 126L459 43Q422 17 377 3T286 -12Q216 -12 160 19T71 109T38 247Q38 325 70 384T156 475T269 507Q370 507 424 442T478 270Q478 232 472 208ZM361
299Q361 347 339 374T272 402Q235 402 207 377T168 299H361Z" />
<glyph unicode="f" glyph-name="f" horiz-adv-x="333" d="M228 607T228 532V495H319V387H228V0H91V387H25V489L91 494V529Q91 613 133 664T267 715Q319 715 363 697L338 596Q311 607 286 607Q228 607 228 532Z" />
<glyph unicode="g" glyph-name="g" horiz-adv-x="530" d="M151 -213T94 -181T36 -87Q36 -25 107 15V19Q62 48 62 103Q62 129 77 154T117 195V199Q88 219 70 253T51 328Q51 384 78 424T152 486T252 507Q290 507 328 495H507V395H424Q433 383 439 364T445 324Q445
243 391 200T252 157Q221 157 190 167Q180 158 175 150T170 127Q170 108 187 98T246 88H329Q421 88 468 58T515 -37Q515 -87 482 -127T387 -190T243 -213Q151 -213 94 -181ZM285 240T305 263T326 328Q326 369 306 391T252 414Q219 414 199 392T179 328Q179 287
199 264T252 240Q285 240 305 263ZM316 -127T350 -108T384 -60Q384 -36 365 -27T305 -18H248Q204 -18 180 -11Q149 -36 149 -65Q149 -95 180 -111T264 -127Q316 -127 350 -108Z" />
<glyph unicode="h" glyph-name="h" horiz-adv-x="567" d="M68 703H204V528L198 436Q233 469 270 488T353 507Q431 507 468 456T506 308V0H369V291Q369 346 354 368T303 390Q275 390 254 378T204 338V0H68V703Z" />
<glyph unicode="i" glyph-name="i" horiz-adv-x="272" d="M68 495H204V0H68V495ZM102 572T81 592T59 645Q59 677 80 697T136 718Q170 718 191 698T213 645Q213 613 192 593T136 572Q102 572 81 592Z" />
<glyph unicode="j" glyph-name="j" horiz-adv-x="273" d="M104 572T83 592T61 645Q61 677 82 697T138 718Q172 718 193 698T215 645Q215 613 194 593T138 572Q104 572 83 592ZM75 495H212L210 -6Q210 -94 171 -147T40 -200Q-10 -200 -45 -186L-21 -85Q4 -92 20
-92Q50 -92 62 -73T74 -10L75 495Z" />
<glyph unicode="k" glyph-name="k" horiz-adv-x="539" d="M68 703H201V288H205L370 495H519L347 292L533 0H385L269 200L201 123V0H68V703Z" />
<glyph unicode="l" glyph-name="l" horiz-adv-x="281" d="M128 -12T98 29T68 145V703H204V139Q204 118 212 109T230 99Q240 99 248 101L265 -1Q236 -12 195 -12Q128 -12 98 29Z" />
<glyph unicode="m" glyph-name="m" horiz-adv-x="853" d="M68 495H179L189 430H193Q229 467 264 487T343 507Q395 507 428 486T480 422Q518 462 555 484T636 507Q714 507 752 455T790 308V0H654V291Q654 345 639 367T588 390Q548 390 497 338V0H361V291Q361 345
346 367T295 390Q255 390 204 338V0H68V495Z" />
<glyph unicode="n" glyph-name="n" horiz-adv-x="568" d="M68 495H179L189 431H193Q229 466 267 486T353 507Q431 507 468 456T506 308V0H369V291Q369 346 354 368T303 390Q275 390 254 378T204 338V0H68V495Z" />
<glyph unicode="o" glyph-name="o" horiz-adv-x="553" d="M213 -12T159 19T71 109T38 247Q38 327 71 386T158 476T277 507Q340 507 395 476T483 386T516 247Q516 168 483 109T395 19T277 -12Q213 -12 159 19ZM324 99T350 138T376 247Q376 316 350 356T277 396Q229
396 204 356T178 247Q178 178 203 139T277 99Q324 99 350 138Z" />
<glyph unicode="p" glyph-name="p" horiz-adv-x="570" d="M68 495H179L189 445H193Q224 473 261 490T336 507Q426 507 478 439T530 255Q530 174 501 113T424 20T321 -12Q258 -12 200 41L204 -39V-188H68V495ZM334 100T362 139T390 254Q390 395 297 395Q251 395
204 347V135Q244 100 290 100Q334 100 362 139Z" />
<glyph unicode="q" glyph-name="q" horiz-adv-x="570" d="M366 -33L371 45Q345 19 311 4T243 -12Q150 -12 96 57T41 247Q41 325 70 384T146 475T247 507Q287 507 319 493T381 446H384L396 495H503V-188H366V-33ZM304 100T325 111T366 148V360Q328 395 278 395Q237
395 209 357T181 249Q181 175 206 138T278 100Q304 100 325 111Z" />
<glyph unicode="r" glyph-name="r" horiz-adv-x="390" d="M68 495H179L189 408H193Q219 456 256 481T333 507Q368 507 391 497L368 379Q365 380 350 383T316 387Q284 387 254 364T204 292V0H68V495Z" />
<glyph unicode="s" glyph-name="s" horiz-adv-x="439" d="M163 -12T112 7T22 57L84 143Q119 116 150 103T215 90Q249 90 266 102T283 138Q283 154 270 166T231 188T181 209Q122 232 85 265T47 354Q47 422 98 464T233 507Q325 507 404 445L343 363Q284 405 237
405Q206 405 191 393T175 361Q175 341 195 329T241 307T275 295Q338 272 374 240T411 146Q411 101 388 66T319 9T211 -12Q163 -12 112 7Z" />
<glyph unicode="t" glyph-name="t" horiz-adv-x="376" d="M167 -12T127 37T87 176V387H18V489L94 495L110 627H223V495H344V387H223V177Q223 96 289 96Q310 96 338 106L360 6Q306 -12 253 -12Q167 -12 127 37Z" />
<glyph unicode="u" glyph-name="u" horiz-adv-x="565" d="M138 -12T101 39T63 187V495H199V204Q199 150 215 128T266 105Q295 105 315 118T361 164V495H497V0H386L376 70H372Q338 30 301 9T216 -12Q138 -12 101 39Z" />
<glyph unicode="v" glyph-name="v" horiz-adv-x="514" d="M12 495H150L219 254L258 103H262L302 254L371 495H502L338 0H181L12 495Z" />
<glyph unicode="w" glyph-name="w" horiz-adv-x="767" d="M24 495H160L212 257Q213 252 227 165Q229 147 235 111H239Q256 208 269 257L327 495H447L506 257Q522 189 533 131L537 111H541L553 182Q555 194 557 213T565 257L616 495H743L622 0H462L412 209Q393
308 385 353H381Q365 258 354 208L307 0H150L24 495Z" />
<glyph unicode="x" glyph-name="x" horiz-adv-x="503" d="M168 258L24 495H170L218 410Q236 373 261 326H265L285 375L300 410L338 495H480L336 242L489 0H343L290 87L270 124L243 174H239Q229 155 199 87L156 0H14L168 258Z" />
<glyph unicode="y" glyph-name="y" horiz-adv-x="513" d="M80 -197T47 -187L72 -82Q93 -89 106 -89Q172 -89 196 -17L204 11L12 495H150L225 272Q237 237 253 179Q260 152 266 132H270Q283 189 305 272L370 495H501L327 -11Q291 -107 244 -152T116 -197Q80 -197 47 -187Z" />
<glyph unicode="z" glyph-name="z" horiz-adv-x="455" d="M37 73L253 387H61V495H423V422L207 108H430V0H37V73Z" />
<glyph unicode="{" glyph-name="braceleft" horiz-adv-x="338" d="M167 -152T138 -121T108 -11Q108 17 110 44T113 81Q118 124 118 163Q118 194 98 215T32 238V319Q77 320 97 341T118 393Q118 432 113 475Q112 484 110 511T108 567Q108 646 137 677T234 708H294V635H274Q241
635 230 620T218 562Q218 536 220 484Q223 442 223 396Q223 342 206 316T151 280V276Q189 267 206 241T223 161Q223 114 220 72Q218 20 218 -6Q218 -49 229 -64T274 -79H294V-152H234Q167 -152 138 -121Z" />
<glyph unicode="|" glyph-name="bar" horiz-adv-x="264" d="M87 750H177V-250H87V750Z" />
<glyph unicode="}" glyph-name="braceright" horiz-adv-x="338" d="M44 -79H64Q96 -79 108 -64T120 -6Q120 20 118 72Q115 114 115 161Q115 214 132 240T187 276V280Q149 289 132 315T115 396Q115 442 118 484Q120 536 120 562Q120 605 108 620T64 635H44V708H104Q171
708 200 677T230 567Q230 539 228 512T225 475Q220 432 220 393Q220 362 240 341T306 319V238Q261 237 241 216T220 163Q220 124 225 81Q226 72 228 45T230 -11Q230 -90 201 -121T104 -152H44V-79Z" />
<glyph unicode="~" glyph-name="asciitilde" horiz-adv-x="523" d="M317 243T295 254T243 287Q220 304 206 312T174 320Q134 320 102 262L30 316Q94 417 176 417Q206 417 228 406T280 373Q303 356 317 348T349 340Q389 340 422 398L493 344Q428 243 347 243Q317
243 295 254Z" />
<glyph unicode="&#xa0;" glyph-name="uni00A0" horiz-adv-x="207" />
<glyph unicode="&#xa1;" glyph-name="exclamdown" horiz-adv-x="332" d="M130 331T106 356T82 419Q82 457 106 482T166 507Q202 507 226 482T250 419Q250 381 226 356T166 331Q130 331 106 356ZM102 -49L121 269H211L230 -49L235 -176H98L102 -49Z" />
<glyph unicode="&#xa2;" glyph-name="cent" horiz-adv-x="523" d="M454 92T419 77T349 56V-40H273V57Q175 70 118 135T61 308Q61 410 119 475T273 556V655H349V560Q425 554 475 504L412 420Q380 447 349 450V166Q387 171 427 203L482 117Q454 92 419 77ZM193 259T213
225T273 175V440Q234 425 214 391T193 308Q193 259 213 225Z" />
<glyph unicode="&#xa3;" glyph-name="sterling" horiz-adv-x="523" d="M228 115H490V0H49V84Q97 107 126 148T155 242Q155 258 152 274H53V354L120 359H129Q111 413 111 446Q111 507 137 553T211 623T320 648Q374 648 415 628T490 567L415 493Q379 537 333 537Q290
537 266 512T242 439Q242 409 255 359H405V274H273Q275 252 275 241Q275 203 264 175T228 119V115Z" />
<glyph unicode="&#xa4;" glyph-name="currency" horiz-adv-x="523" d="M21 156L82 218Q48 267 48 330Q48 392 82 441L21 503L90 572L159 502Q205 529 262 529Q317 529 365 502L434 572L502 503L441 441Q475 392 475 330Q475 266 440 218L502 156L434 87L364 157Q319
131 262 131Q204 131 159 157L90 87L21 156ZM301 226T327 255T353 330Q353 376 327 405T262 434Q223 434 197 405T170 330Q170 284 196 255T262 226Q301 226 327 255Z" />
<glyph unicode="&#xa5;" glyph-name="yen" horiz-adv-x="523" d="M193 149H39V216H193V272H39V339H163L14 636H155L210 497Q234 431 261 365H265Q283 409 317 497L372 636H509L360 339H485V272H330V216H485V149H330V0H193V149Z" />
<glyph unicode="&#xa6;" glyph-name="brokenbar" horiz-adv-x="264" d="M177 618V178V-119H87V338V618H177Z" />
<glyph unicode="&#xa7;" glyph-name="section" horiz-adv-x="523" d="M485 201T403 152Q427 118 427 74Q427 5 378 -38T240 -81Q183 -81 132 -60T49 2L128 72Q178 21 240 21Q271 21 287 33T304 67Q304 90 282 105T210 141Q156 165 123 185T64 241T39 329Q39 367
60 401T119 457Q90 492 90 540Q90 606 136 647T264 689Q315 689 359 671T440 625L377 540Q320 588 271 588Q242 588 228 577T213 545Q213 525 235 510T306 473Q361 449 397 428T459 371T485 284Q485 201 403 152ZM154 316T169 299T205 270T268 240Q300 226 331
210Q351 221 360 236T369 273Q369 307 341 328T251 375Q217 389 193 402Q154 378 154 339Q154 316 169 299Z" />
<glyph unicode="&#xa8;" glyph-name="dieresis" horiz-adv-x="553" d="M140 572T121 591T102 640Q102 669 121 688T170 708Q200 708 219 689T238 640Q238 611 219 592T170 572Q140 572 121 591ZM354 572T335 591T316 640Q316 669 335 688T384 708Q414 708 433
689T452 640Q452 611 433 592T384 572Q354 572 335 591Z" />
<glyph unicode="&#xa9;" glyph-name="copyright" horiz-adv-x="749" d="M286 -9T211 32T91 149T46 325Q46 425 90 500T210 615T375 655Q464 655 539 615T658 499T703 325Q703 225 659 149T539 32T375 -9Q286 -9 211 32ZM449 49T509 83T604 181T639 325Q639 406
604 468T509 564T375 598Q301 598 241 564T146 468T111 325Q111 244 146 181T241 84T375 49Q449 49 509 83ZM331 127T288 151T220 219T195 324Q195 381 221 424T292 492T386 516Q428 516 459 501T518 457L466 399Q449 417 432 426T395 435Q348 435 321 404T294
324Q294 271 320 240T390 208Q414 208 432 217T474 244L518 180Q455 127 386 127Q331 127 288 151Z" />
<glyph unicode="&#xaa;" glyph-name="ordfeminine" horiz-adv-x="357" d="M86 371T59 399T31 470Q31 523 76 551T219 589Q217 613 205 625T168 638Q131 638 76 607L42 671Q116 715 185 715Q249 715 282 678T316 569V379H239L230 413H226Q182 371 131 371Q86 371
59 399ZM191 445T219 473V533Q124 522 124 478Q124 445 163 445Q191 445 219 473Z" />
<glyph unicode="&#xab;" glyph-name="guillemotleft" horiz-adv-x="472" d="M48 204V301L183 447L235 405L123 252L235 99L183 58L48 204ZM232 204V301L367 447L419 405L307 252L419 99L367 58L232 204Z" />
<glyph unicode="&#xac;" glyph-name="logicalnot" horiz-adv-x="523" d="M388 282H34V379H489V96H388V282Z" />
<glyph unicode="&#xad;" glyph-name="uni00AD" horiz-adv-x="329" d="M43 302H286V204H43V302Z" />
<glyph unicode="&#xae;" glyph-name="registered" horiz-adv-x="456" d="M174 313T129 339T58 410T31 514Q31 571 57 617T129 689T228 715Q282 715 326 689T397 617T424 514Q424 456 398 411T327 339T228 313Q174 313 129 339ZM292 360T332 402T372 514Q372 583
332 625T228 668Q164 668 124 626T83 514Q83 445 123 403T228 360Q292 360 332 402ZM148 614H235Q271 614 293 598T316 549Q316 531 307 517T280 494L323 417H265L234 478H203V417H148V614ZM224 517Q240 517 248 525T257 545Q257 557 249 564T225 572H203V517H224Z"
/>
<glyph unicode="&#xaf;" glyph-name="overscore" horiz-adv-x="553" d="M131 681H423V593H131V681Z" />
<glyph unicode="&#xb0;" glyph-name="degree" horiz-adv-x="360" d="M142 403T110 421T58 471T39 544Q39 585 58 617T109 667T181 686Q220 686 252 668T303 617T322 544Q322 504 303 472T252 421T181 403Q142 403 110 421ZM211 470T230 490T249 544Q249 578 230
598T181 619Q150 619 131 599T112 544Q112 511 131 491T181 470Q211 470 230 490Z" />
<glyph unicode="&#xb1;" glyph-name="plusminus" horiz-adv-x="523" d="M211 296H34V393H211V565H312V393H489V296H312V153H211V296ZM34 97H489V0H34V97Z" />
<glyph unicode="&#xb4;" glyph-name="acute" horiz-adv-x="553" d="M216 640L368 819L461 729L284 573L216 640Z" />
<glyph unicode="&#xb6;" glyph-name="paragraph" horiz-adv-x="624" d="M223 202T165 228T73 306T39 432Q39 549 108 601T292 653H336V202H296Q223 202 165 228ZM391 653H528V-80H391V653Z" />
<glyph unicode="&#xb7;" glyph-name="middot" horiz-adv-x="292" d="M110 233T86 258T62 321Q62 359 86 384T146 409Q182 409 206 384T230 321Q230 283 206 258T146 233Q110 233 86 258Z" />
<glyph unicode="&#xb8;" glyph-name="cedilla" horiz-adv-x="553" d="M167 -181Q225 -178 247 -168T270 -136Q270 -119 254 -109T194 -93L241 4H322L294 -62Q332 -71 351 -88T370 -136Q370 -231 177 -237L167 -181Z" />
<glyph unicode="&#xba;" glyph-name="ordmasculine" horiz-adv-x="372" d="M143 371T106 391T47 451T25 542Q25 595 47 634T106 694T186 715Q229 715 265 694T324 634T346 542Q346 490 324 451T266 392T186 371Q143 371 106 391ZM216 448T231 473T247 542Q247
587 232 612T186 638Q155 638 140 613T124 542Q124 498 139 473T186 448Q216 448 231 473Z" />
<glyph unicode="&#xbb;" glyph-name="guillemotright" horiz-adv-x="472" d="M54 99L166 252L54 405L106 447L241 301V204L106 58L54 99ZM238 99L350 252L238 405L290 447L425 301V204L290 58L238 99Z" />
<glyph unicode="&#xbc;" glyph-name="onequarter" horiz-adv-x="835" d="M161 293V578H73V640Q111 646 133 655T183 683H263V293H161ZM634 665L280 -12H200L554 665H634ZM822 90H764V0H675V90H496V140L640 390H764V156H822V90ZM675 156V202L680 318H676L635 240L590
156H675Z" />
<glyph unicode="&#xbd;" glyph-name="onehalf" horiz-adv-x="840" d="M161 578H73V640Q111 646 133 655T183 683H263V293H161V578ZM548 665H628L274 -12H194L548 665ZM511 55Q601 130 642 175T684 254Q684 285 668 302T624 319Q587 319 551 270L494 323Q553 402
640 402Q705 402 743 368T782 271Q782 227 755 187T671 85H797V0H511V55Z" />
<glyph unicode="&#xbe;" glyph-name="threequarters" horiz-adv-x="840" d="M334 348T291 315T185 281Q135 281 95 301T29 359L90 407Q126 358 175 358Q201 358 218 371T235 408Q235 462 138 462V521Q177 521 199 534T221 573Q221 594 207 606T169 618Q136 618
102 577L45 628Q77 663 109 679T186 695Q241 695 280 666T320 587Q320 528 261 496Q294 483 314 459T334 401Q334 348 291 315ZM646 665L293 -12H213L566 665H646ZM827 90H769V0H680V90H501V140L645 390H769V156H827V90ZM680 156V202L685 318H681L640 240L595 156H680Z"
/>
<glyph unicode="&#xbf;" glyph-name="questiondown" horiz-adv-x="457" d="M206 331T182 356T158 419Q158 457 182 482T242 507Q278 507 302 482T326 419Q326 381 302 356T242 331Q206 331 182 356ZM146 -188T95 -145T43 -18Q43 23 61 53T116 124Q150 164 167
191T184 255L183 269H302Q304 251 304 242Q304 197 285 163T228 87Q200 55 187 35T174 -9Q174 -41 193 -59T246 -77Q273 -77 295 -65T341 -29L417 -98Q380 -140 332 -164T229 -188Q146 -188 95 -145Z" />
<glyph unicode="&#xc0;" glyph-name="Agrave" horiz-adv-x="568" d="M384 163H179L135 0H-5L203 653H366L573 0H428L384 163ZM356 269L338 336Q326 380 302 474L283 548H279Q249 419 226 336L208 269H356ZM114 801L187 890L353 752L293 683L114 801Z" />
<glyph unicode="&#xc1;" glyph-name="Aacute" horiz-adv-x="568" d="M384 163H179L135 0H-5L203 653H366L573 0H428L384 163ZM356 269L338 336Q326 380 302 474L283 548H279Q249 419 226 336L208 269H356ZM209 752L375 890L448 801L269 683L209 752Z" />
<glyph unicode="&#xc2;" glyph-name="Acircumflex" horiz-adv-x="568" d="M384 163H179L135 0H-5L203 653H366L573 0H428L384 163ZM356 269L338 336Q326 380 302 474L283 548H279Q249 419 226 336L208 269H356ZM115 725L207 836H355L447 725L388 688L283 773H279L174
688L115 725Z" />
<glyph unicode="&#xc3;" glyph-name="Atilde" horiz-adv-x="568" d="M384 163H179L135 0H-5L203 653H366L573 0H428L384 163ZM356 269L338 336Q326 380 302 474L283 548H279Q249 419 226 336L208 269H356ZM325 695T304 705T259 733Q243 745 233 750T213 755Q180
755 175 703L86 710Q90 780 123 815T209 850Q237 850 258 840T303 813Q319 801 329 796T349 791Q381 791 387 842L476 836Q472 766 439 731T353 695Q325 695 304 705Z" />
<glyph unicode="&#xc4;" glyph-name="Adieresis" horiz-adv-x="568" d="M384 163H179L135 0H-5L203 653H366L573 0H428L384 163ZM356 269L338 336Q326 380 302 474L283 548H279Q249 419 226 336L208 269H356ZM142 703T124 721T105 769Q105 798 123 817T171 836Q200
836 219 817T238 769Q238 740 219 722T171 703Q142 703 124 721ZM362 703T343 721T324 769Q324 798 343 817T391 836Q420 836 438 817T457 769Q457 740 439 722T391 703Q362 703 343 721Z" />
<glyph unicode="&#xc5;" glyph-name="Aring" horiz-adv-x="568" d="M384 163H179L135 0H-5L203 653H366L573 0H428L384 163ZM356 269L338 336Q326 380 302 474L283 548H279Q249 419 226 336L208 269H356ZM231 697T201 724T170 795Q170 839 200 865T281 892Q330
892 361 866T392 795Q392 751 361 724T281 697Q231 697 201 724ZM300 749T312 761T324 795Q324 815 312 827T281 840Q263 840 250 828T237 795Q237 774 249 762T281 749Q300 749 312 761Z" />
<glyph unicode="&#xc6;" glyph-name="AE" horiz-adv-x="842" d="M790 115V0H389V156H207L134 0H-10L305 653H780V538H526V395H740V280H526V115H790ZM389 262V549H385L352 474Q329 421 301 359L256 262H389Z" />
<glyph unicode="&#xc7;" glyph-name="Ccedilla" horiz-adv-x="580" d="M264 -12T196 27T87 141T47 323Q47 428 88 505T199 624T352 665Q411 665 460 642T546 581L473 493Q446 519 418 532T355 546Q307 546 269 520T210 444T188 328Q188 225 232 166T353 107Q428
107 484 170L557 84Q475 -12 348 -12Q264 -12 196 27Z" />
<glyph unicode="&#xc8;" glyph-name="Egrave" horiz-adv-x="545" d="M79 653H483V538H216V395H443V280H216V115H493V0H79V653ZM121 801L194 890L360 752L300 683L121 801Z" />
<glyph unicode="&#xc9;" glyph-name="Eacute" horiz-adv-x="545" d="M79 653H483V538H216V395H443V280H216V115H493V0H79V653ZM216 752L382 890L455 801L276 683L216 752Z" />
<glyph unicode="&#xca;" glyph-name="Ecircumflex" horiz-adv-x="545" d="M79 653H483V538H216V395H443V280H216V115H493V0H79V653ZM122 725L214 836H362L454 725L395 688L290 773H286L181 688L122 725Z" />
<glyph unicode="&#xcb;" glyph-name="Edieresis" horiz-adv-x="545" d="M79 653H483V538H216V395H443V280H216V115H493V0H79V653ZM149 703T131 721T112 769Q112 798 130 817T178 836Q207 836 226 817T245 769Q245 740 226 722T178 703Q149 703 131 721ZM369 703T350
721T331 769Q331 798 350 817T398 836Q427 836 445 817T464 769Q464 740 446 722T398 703Q369 703 350 721Z" />
<glyph unicode="&#xcc;" glyph-name="Igrave" horiz-adv-x="295" d="M79 653H216V0H79V653ZM-19 801L54 890L220 752L160 683L-19 801Z" />
<glyph unicode="&#xcd;" glyph-name="Iacute" horiz-adv-x="295" d="M79 653H216V0H79V653ZM76 752L242 890L315 801L136 683L76 752Z" />
<glyph unicode="&#xce;" glyph-name="Icircumflex" horiz-adv-x="295" d="M79 653H216V0H79V653ZM-18 725L74 836H222L314 725L255 688L150 773H146L41 688L-18 725Z" />
<glyph unicode="&#xcf;" glyph-name="Idieresis" horiz-adv-x="295" d="M79 653H216V0H79V653ZM9 703T-9 721T-28 769Q-28 798 -10 817T38 836Q67 836 86 817T105 769Q105 740 86 722T38 703Q9 703 -9 721ZM229 703T210 721T191 769Q191 798 210 817T258 836Q287
836 305 817T324 769Q324 740 306 722T258 703Q229 703 210 721Z" />
<glyph unicode="&#xd0;" glyph-name="Eth" horiz-adv-x="656" d="M439 653T524 572T610 329Q610 167 526 84T293 0H104V305H28V367L104 372V653H285Q439 653 524 572ZM469 111T469 329Q469 442 420 492T277 542H241V372H370V305H241V111H277Q469 111 469 329Z" />
<glyph unicode="&#xd1;" glyph-name="Ntilde" horiz-adv-x="662" d="M79 653H220L401 314L466 172H470Q469 189 465 225Q453 341 453 405V653H583V0H443L262 339L196 481H192Q193 469 197 436Q202 390 206 340T210 250V0H79V653ZM377 695T356 705T311 733Q295
745 285 750T265 755Q232 755 227 703L138 710Q142 780 175 815T261 850Q289 850 310 840T355 813Q371 801 381 796T401 791Q433 791 439 842L528 836Q524 766 491 731T405 695Q377 695 356 705Z" />
<glyph unicode="&#xd2;" glyph-name="Ograve" horiz-adv-x="681" d="M254 -12T188 29T84 147T47 329Q47 434 84 509T187 625T341 665Q428 665 494 625T597 509T634 329Q634 225 598 148T495 29T341 -12Q254 -12 188 29ZM411 107T452 167T494 329Q494 430 453 488T341
546Q270 546 229 489T188 329Q188 227 229 167T341 107Q411 107 452 167ZM174 801L247 890L413 752L353 683L174 801Z" />
<glyph unicode="&#xd3;" glyph-name="Oacute" horiz-adv-x="681" d="M254 -12T188 29T84 147T47 329Q47 434 84 509T187 625T341 665Q428 665 494 625T597 509T634 329Q634 225 598 148T495 29T341 -12Q254 -12 188 29ZM411 107T452 167T494 329Q494 430 453 488T341
546Q270 546 229 489T188 329Q188 227 229 167T341 107Q411 107 452 167ZM269 752L435 890L508 801L329 683L269 752Z" />
<glyph unicode="&#xd4;" glyph-name="Ocircumflex" horiz-adv-x="681" d="M254 -12T188 29T84 147T47 329Q47 434 84 509T187 625T341 665Q428 665 494 625T597 509T634 329Q634 225 598 148T495 29T341 -12Q254 -12 188 29ZM411 107T452 167T494 329Q494 430
453 488T341 546Q270 546 229 489T188 329Q188 227 229 167T341 107Q411 107 452 167ZM175 725L267 836H415L507 725L448 688L343 773H339L234 688L175 725Z" />
<glyph unicode="&#xd5;" glyph-name="Otilde" horiz-adv-x="681" d="M254 -12T188 29T84 147T47 329Q47 434 84 509T187 625T341 665Q428 665 494 625T597 509T634 329Q634 225 598 148T495 29T341 -12Q254 -12 188 29ZM411 107T452 167T494 329Q494 430 453 488T341
546Q270 546 229 489T188 329Q188 227 229 167T341 107Q411 107 452 167ZM385 695T364 705T319 733Q303 745 293 750T273 755Q240 755 235 703L146 710Q150 780 183 815T269 850Q297 850 318 840T363 813Q379 801 389 796T409 791Q441 791 447 842L536 836Q532
766 499 731T413 695Q385 695 364 705Z" />
<glyph unicode="&#xd6;" glyph-name="Odieresis" horiz-adv-x="681" d="M254 -12T188 29T84 147T47 329Q47 434 84 509T187 625T341 665Q428 665 494 625T597 509T634 329Q634 225 598 148T495 29T341 -12Q254 -12 188 29ZM411 107T452 167T494 329Q494 430 453
488T341 546Q270 546 229 489T188 329Q188 227 229 167T341 107Q411 107 452 167ZM202 703T184 721T165 769Q165 798 183 817T231 836Q260 836 279 817T298 769Q298 740 279 722T231 703Q202 703 184 721ZM422 703T403 721T384 769Q384 798 403 817T451 836Q480
836 498 817T517 769Q517 740 499 722T451 703Q422 703 403 721Z" />
<glyph unicode="&#xd7;" glyph-name="multiply" horiz-adv-x="523" d="M48 183L193 329L48 475L117 545L262 398L406 545L475 475L330 329L475 183L406 114L262 261L117 114L48 183Z" />
<glyph unicode="&#xd8;" glyph-name="Oslash" horiz-adv-x="681" d="M579 543Q635 457 635 329Q635 225 599 148T496 29T342 -12Q245 -12 175 38L113 -40L42 16L111 103Q48 193 48 329Q48 434 85 509T188 625T342 665Q444 665 517 610L582 692L654 637L579 543ZM189
265T205 220L436 509Q397 546 342 546Q271 546 230 489T189 329Q189 265 205 220ZM495 383T483 423L256 138Q292 107 342 107Q412 107 453 167T495 329Q495 383 483 423Z" />
<glyph unicode="&#xd9;" glyph-name="Ugrave" horiz-adv-x="662" d="M207 -12T142 63T76 297V653H213V284Q213 189 243 148T332 107Q392 107 423 148T454 284V653H586V297Q586 138 522 63T332 -12Q207 -12 142 63ZM164 801L237 890L403 752L343 683L164 801Z" />
<glyph unicode="&#xda;" glyph-name="Uacute" horiz-adv-x="662" d="M207 -12T142 63T76 297V653H213V284Q213 189 243 148T332 107Q392 107 423 148T454 284V653H586V297Q586 138 522 63T332 -12Q207 -12 142 63ZM259 752L425 890L498 801L319 683L259 752Z" />
<glyph unicode="&#xdb;" glyph-name="Ucircumflex" horiz-adv-x="662" d="M207 -12T142 63T76 297V653H213V284Q213 189 243 148T332 107Q392 107 423 148T454 284V653H586V297Q586 138 522 63T332 -12Q207 -12 142 63ZM165 725L257 836H405L497 725L438 688L333
773H329L224 688L165 725Z" />
<glyph unicode="&#xdc;" glyph-name="Udieresis" horiz-adv-x="662" d="M207 -12T142 63T76 297V653H213V284Q213 189 243 148T332 107Q392 107 423 148T454 284V653H586V297Q586 138 522 63T332 -12Q207 -12 142 63ZM192 703T174 721T155 769Q155 798 173 817T221
836Q250 836 269 817T288 769Q288 740 269 722T221 703Q192 703 174 721ZM412 703T393 721T374 769Q374 798 393 817T441 836Q470 836 488 817T507 769Q507 740 489 722T441 703Q412 703 393 721Z" />
<glyph unicode="&#xdd;" glyph-name="Yacute" horiz-adv-x="517" d="M190 236L-7 653H140L203 497L257 353H261Q265 362 269 372T278 394Q302 455 318 497L381 653H524L327 236V0H190V236ZM187 752L353 890L426 801L247 683L187 752Z" />
<glyph unicode="&#xde;" glyph-name="Thorn" horiz-adv-x="612" d="M79 653H216V552H311Q427 552 495 504T564 345Q564 237 493 182T311 127H216V0H79V653ZM302 236Q430 236 430 345Q430 398 399 420T302 443H216V236H302Z" />
<glyph unicode="&#xdf;" glyph-name="germandbls" horiz-adv-x="623" d="M374 -12T339 -1T267 34L315 127Q362 90 411 90Q439 90 455 105T471 143Q471 167 454 182T397 220Q364 238 343 253T307 293T292 352Q292 378 301 398T329 446Q347 471 356 490T365 534Q365
566 348 585T298 605Q252 605 228 571T203 475V0H68V492Q68 592 127 652T299 713Q362 713 406 691T473 631T496 550Q496 513 484 488T448 432Q432 413 425 399T417 369Q417 349 432 336T481 305Q517 285 539 268T579 222T596 150Q596 80 549 34T416 -12Q374 -12
339 -1Z" />
<glyph unicode="&#xe0;" glyph-name="agrave" horiz-adv-x="524" d="M125 -12T85 30T44 136Q44 215 111 258T326 318Q323 398 244 398Q213 398 181 386T111 352L62 442Q167 507 270 507Q365 507 414 452T463 286V0H351L341 52H338Q264 -12 191 -12Q125 -12 85
30ZM261 94T281 105T326 140V235Q245 224 210 202T175 147Q175 121 191 108T236 94Q261 94 281 105ZM99 729L192 819L344 640L276 573L99 729Z" />
<glyph unicode="&#xe1;" glyph-name="aacute" horiz-adv-x="524" d="M125 -12T85 30T44 136Q44 215 111 258T326 318Q323 398 244 398Q213 398 181 386T111 352L62 442Q167 507 270 507Q365 507 414 452T463 286V0H351L341 52H338Q264 -12 191 -12Q125 -12 85
30ZM261 94T281 105T326 140V235Q245 224 210 202T175 147Q175 121 191 108T236 94Q261 94 281 105ZM222 640L374 819L467 729L290 573L222 640Z" />
<glyph unicode="&#xe2;" glyph-name="acircumflex" horiz-adv-x="524" d="M125 -12T85 30T44 136Q44 215 111 258T326 318Q323 398 244 398Q213 398 181 386T111 352L62 442Q167 507 270 507Q365 507 414 452T463 286V0H351L341 52H338Q264 -12 191 -12Q125 -12
85 30ZM261 94T281 105T326 140V235Q245 224 210 202T175 147Q175 121 191 108T236 94Q261 94 281 105ZM104 611L213 744H353L462 611L409 562L285 658H281L157 562L104 611Z" />
<glyph unicode="&#xe3;" glyph-name="atilde" horiz-adv-x="524" d="M125 -12T85 30T44 136Q44 215 111 258T326 318Q323 398 244 398Q213 398 181 386T111 352L62 442Q167 507 270 507Q365 507 414 452T463 286V0H351L341 52H338Q264 -12 191 -12Q125 -12 85
30ZM261 94T281 105T326 140V235Q245 224 210 202T175 147Q175 121 191 108T236 94Q261 94 281 105ZM325 574T306 584T263 615Q248 628 238 634T218 641Q186 641 182 582L96 587Q97 661 128 698T216 736Q241 736 260 726T303 695Q318 682 328 676T348 669Q380 669
384 728L470 723Q469 649 438 612T350 574Q325 574 306 584Z" />
<glyph unicode="&#xe4;" glyph-name="adieresis" horiz-adv-x="524" d="M125 -12T85 30T44 136Q44 215 111 258T326 318Q323 398 244 398Q213 398 181 386T111 352L62 442Q167 507 270 507Q365 507 414 452T463 286V0H351L341 52H338Q264 -12 191 -12Q125 -12
85 30ZM261 94T281 105T326 140V235Q245 224 210 202T175 147Q175 121 191 108T236 94Q261 94 281 105ZM146 572T127 591T108 640Q108 669 127 688T176 708Q206 708 225 689T244 640Q244 611 225 592T176 572Q146 572 127 591ZM360 572T341 591T322 640Q322 669
341 688T390 708Q420 708 439 689T458 640Q458 611 439 592T390 572Q360 572 341 591Z" />
<glyph unicode="&#xe5;" glyph-name="aring" horiz-adv-x="524" d="M125 -12T85 30T44 136Q44 215 111 258T326 318Q323 398 244 398Q213 398 181 386T111 352L62 442Q167 507 270 507Q365 507 414 452T463 286V0H351L341 52H338Q264 -12 191 -12Q125 -12 85 30ZM261
94T281 105T326 140V235Q245 224 210 202T175 147Q175 121 191 108T236 94Q261 94 281 105ZM222 563T189 592T155 666Q155 711 188 740T283 769Q344 769 377 740T411 666Q411 621 378 592T283 563Q222 563 189 592ZM302 615T315 629T329 666Q329 688 316 702T283
717Q264 717 251 703T237 666Q237 643 250 629T283 615Q302 615 315 629Z" />
<glyph unicode="&#xe6;" glyph-name="ae" horiz-adv-x="786" d="M130 -12T90 30T49 136Q49 215 115 258T328 318Q325 398 248 398Q218 398 186 386T116 352L67 442Q172 507 266 507Q313 507 348 486T405 427Q469 507 554 507Q648 507 698 440T749 267Q749 232
743 208H453Q460 154 494 125T577 96Q604 96 628 105T684 132L731 43Q693 17 648 3T558 -12Q456 -12 388 68Q336 26 291 7T196 -12Q130 -12 90 30ZM632 293Q632 344 612 373T549 402Q511 402 485 374T453 293H632ZM267 94T293 106T343 142Q331 173 328 213L327
235Q250 224 215 202T180 147Q180 121 196 108T241 94Q267 94 293 106Z" />
<glyph unicode="&#xe7;" glyph-name="ccedilla" horiz-adv-x="466" d="M332 -71T351 -88T370 -136Q370 -231 177 -237L167 -181Q225 -178 247 -168T270 -136Q270 -119 254 -109T194 -93L235 -8Q147 6 93 73T38 247Q38 327 72 386T165 476T292 507Q373 507 437
453L372 365Q353 381 336 388T300 396Q245 396 212 356T178 247Q178 180 210 140T295 99Q340 99 389 137L443 48Q389 1 316 -9L294 -62Q332 -71 351 -88Z" />
<glyph unicode="&#xe8;" glyph-name="egrave" horiz-adv-x="514" d="M478 232T472 208H166Q176 149 214 121T304 93Q357 93 414 126L459 43Q422 17 377 3T286 -12Q216 -12 160 19T71 109T38 247Q38 325 70 384T156 475T269 507Q370 507 424 442T478 270Q478 232
472 208ZM361 299Q361 347 339 374T272 402Q235 402 207 377T168 299H361ZM91 729L184 819L336 640L268 573L91 729Z" />
<glyph unicode="&#xe9;" glyph-name="eacute" horiz-adv-x="514" d="M478 232T472 208H166Q176 149 214 121T304 93Q357 93 414 126L459 43Q422 17 377 3T286 -12Q216 -12 160 19T71 109T38 247Q38 325 70 384T156 475T269 507Q370 507 424 442T478 270Q478 232
472 208ZM361 299Q361 347 339 374T272 402Q235 402 207 377T168 299H361ZM214 640L366 819L459 729L282 573L214 640Z" />
<glyph unicode="&#xea;" glyph-name="ecircumflex" horiz-adv-x="514" d="M478 232T472 208H166Q176 149 214 121T304 93Q357 93 414 126L459 43Q422 17 377 3T286 -12Q216 -12 160 19T71 109T38 247Q38 325 70 384T156 475T269 507Q370 507 424 442T478 270Q478
232 472 208ZM361 299Q361 347 339 374T272 402Q235 402 207 377T168 299H361ZM96 611L205 744H345L454 611L401 562L277 658H273L149 562L96 611Z" />
<glyph unicode="&#xeb;" glyph-name="edieresis" horiz-adv-x="514" d="M478 232T472 208H166Q176 149 214 121T304 93Q357 93 414 126L459 43Q422 17 377 3T286 -12Q216 -12 160 19T71 109T38 247Q38 325 70 384T156 475T269 507Q370 507 424 442T478 270Q478
232 472 208ZM361 299Q361 347 339 374T272 402Q235 402 207 377T168 299H361ZM138 572T119 591T100 640Q100 669 119 688T168 708Q198 708 217 689T236 640Q236 611 217 592T168 572Q138 572 119 591ZM352 572T333 591T314 640Q314 669 333 688T382 708Q412 708
431 689T450 640Q450 611 431 592T382 572Q352 572 333 591Z" />
<glyph unicode="&#xec;" glyph-name="igrave" horiz-adv-x="272" d="M68 495H204V0H68V495ZM-48 729L45 819L197 640L129 573L-48 729Z" />
<glyph unicode="&#xed;" glyph-name="iacute" horiz-adv-x="272" d="M68 495H204V0H68V495ZM75 640L227 819L320 729L143 573L75 640Z" />
<glyph unicode="&#xee;" glyph-name="icircumflex" horiz-adv-x="272" d="M68 495H204V0H68V495ZM-43 611L66 744H206L315 611L262 562L138 658H134L10 562L-43 611Z" />
<glyph unicode="&#xef;" glyph-name="idieresis" horiz-adv-x="272" d="M68 495H204V0H68V495ZM-1 572T-20 591T-39 640Q-39 669 -20 688T29 708Q59 708 78 689T97 640Q97 611 78 592T29 572Q-1 572 -20 591ZM213 572T194 591T175 640Q175 669 194 688T243 708Q273
708 292 689T311 640Q311 611 292 592T243 572Q213 572 194 591Z" />
<glyph unicode="&#xf0;" glyph-name="eth" horiz-adv-x="558" d="M506 466T506 265Q506 185 478 122T396 24T272 -12Q211 -12 159 17T75 101T44 227Q44 296 72 347T147 426T248 454Q316 454 357 409Q330 492 269 550L128 479L92 540L209 600Q176 623 116 655L176
739Q257 697 314 653L457 725L493 663L372 602Q506 466 506 265ZM325 99T351 139T378 258Q378 274 376 304Q336 352 275 352Q227 352 198 320T169 227Q169 168 200 134T277 99Q325 99 351 139Z" />
<glyph unicode="&#xf1;" glyph-name="ntilde" horiz-adv-x="568" d="M68 495H179L189 431H193Q229 466 267 486T353 507Q431 507 468 456T506 308V0H369V291Q369 346 354 368T303 390Q275 390 254 378T204 338V0H68V495ZM352 574T333 584T290 615Q275 628 265
634T245 641Q213 641 209 582L123 587Q124 661 155 698T243 736Q268 736 287 726T330 695Q345 682 355 676T375 669Q407 669 411 728L497 723Q496 649 465 612T377 574Q352 574 333 584Z" />
<glyph unicode="&#xf2;" glyph-name="ograve" horiz-adv-x="553" d="M213 -12T159 19T71 109T38 247Q38 327 71 386T158 476T277 507Q340 507 395 476T483 386T516 247Q516 168 483 109T395 19T277 -12Q213 -12 159 19ZM324 99T350 138T376 247Q376 316 350 356T277
396Q229 396 204 356T178 247Q178 178 203 139T277 99Q324 99 350 138ZM93 729L186 819L338 640L270 573L93 729Z" />
<glyph unicode="&#xf3;" glyph-name="oacute" horiz-adv-x="553" d="M213 -12T159 19T71 109T38 247Q38 327 71 386T158 476T277 507Q340 507 395 476T483 386T516 247Q516 168 483 109T395 19T277 -12Q213 -12 159 19ZM324 99T350 138T376 247Q376 316 350 356T277
396Q229 396 204 356T178 247Q178 178 203 139T277 99Q324 99 350 138ZM216 640L368 819L461 729L284 573L216 640Z" />
<glyph unicode="&#xf4;" glyph-name="ocircumflex" horiz-adv-x="553" d="M213 -12T159 19T71 109T38 247Q38 327 71 386T158 476T277 507Q340 507 395 476T483 386T516 247Q516 168 483 109T395 19T277 -12Q213 -12 159 19ZM324 99T350 138T376 247Q376 316 350
356T277 396Q229 396 204 356T178 247Q178 178 203 139T277 99Q324 99 350 138ZM98 611L207 744H347L456 611L403 562L279 658H275L151 562L98 611Z" />
<glyph unicode="&#xf5;" glyph-name="otilde" horiz-adv-x="553" d="M213 -12T159 19T71 109T38 247Q38 327 71 386T158 476T277 507Q340 507 395 476T483 386T516 247Q516 168 483 109T395 19T277 -12Q213 -12 159 19ZM324 99T350 138T376 247Q376 316 350 356T277
396Q229 396 204 356T178 247Q178 178 203 139T277 99Q324 99 350 138ZM319 574T300 584T257 615Q242 628 232 634T212 641Q180 641 176 582L90 587Q91 661 122 698T210 736Q235 736 254 726T297 695Q312 682 322 676T342 669Q374 669 378 728L464 723Q463 649
432 612T344 574Q319 574 300 584Z" />
<glyph unicode="&#xf6;" glyph-name="odieresis" horiz-adv-x="553" d="M213 -12T159 19T71 109T38 247Q38 327 71 386T158 476T277 507Q340 507 395 476T483 386T516 247Q516 168 483 109T395 19T277 -12Q213 -12 159 19ZM324 99T350 138T376 247Q376 316 350
356T277 396Q229 396 204 356T178 247Q178 178 203 139T277 99Q324 99 350 138ZM140 572T121 591T102 640Q102 669 121 688T170 708Q200 708 219 689T238 640Q238 611 219 592T170 572Q140 572 121 591ZM354 572T335 591T316 640Q316 669 335 688T384 708Q414 708
433 689T452 640Q452 611 433 592T384 572Q354 572 335 591Z" />
<glyph unicode="&#xf7;" glyph-name="divide" horiz-adv-x="523" d="M229 437T207 457T185 510Q185 542 207 562T262 583Q295 583 317 563T339 510Q339 478 317 458T262 437Q229 437 207 457ZM34 379H489V282H34V379ZM229 77T207 97T185 150Q185 182 207 202T262
223Q295 223 317 203T339 150Q339 118 317 98T262 77Q229 77 207 97Z" />
<glyph unicode="&#xf8;" glyph-name="oslash" horiz-adv-x="553" d="M516 351T516 247Q516 168 483 109T395 19T277 -12Q201 -12 142 30L98 -25L46 16L94 75Q38 144 38 247Q38 327 71 386T158 476T277 507Q351 507 410 466L455 521L507 480L459 421Q516 351 516
247ZM170 212T179 180L339 378Q314 401 277 401Q228 401 199 361T170 255Q170 212 179 180ZM325 94T354 134T383 240Q383 285 374 316L213 117Q239 94 277 94Q325 94 354 134Z" />
<glyph unicode="&#xf9;" glyph-name="ugrave" horiz-adv-x="565" d="M138 -12T101 39T63 187V495H199V204Q199 150 215 128T266 105Q295 105 315 118T361 164V495H497V0H386L376 70H372Q338 30 301 9T216 -12Q138 -12 101 39ZM107 729L200 819L352 640L284 573L107 729Z" />
<glyph unicode="&#xfa;" glyph-name="uacute" horiz-adv-x="565" d="M138 -12T101 39T63 187V495H199V204Q199 150 215 128T266 105Q295 105 315 118T361 164V495H497V0H386L376 70H372Q338 30 301 9T216 -12Q138 -12 101 39ZM230 640L382 819L475 729L298 573L230 640Z" />
<glyph unicode="&#xfb;" glyph-name="ucircumflex" horiz-adv-x="565" d="M138 -12T101 39T63 187V495H199V204Q199 150 215 128T266 105Q295 105 315 118T361 164V495H497V0H386L376 70H372Q338 30 301 9T216 -12Q138 -12 101 39ZM112 611L221 744H361L470 611L417
562L293 658H289L165 562L112 611Z" />
<glyph unicode="&#xfc;" glyph-name="udieresis" horiz-adv-x="565" d="M138 -12T101 39T63 187V495H199V204Q199 150 215 128T266 105Q295 105 315 118T361 164V495H497V0H386L376 70H372Q338 30 301 9T216 -12Q138 -12 101 39ZM154 572T135 591T116 640Q116
669 135 688T184 708Q214 708 233 689T252 640Q252 611 233 592T184 572Q154 572 135 591ZM368 572T349 591T330 640Q330 669 349 688T398 708Q428 708 447 689T466 640Q466 611 447 592T398 572Q368 572 349 591Z" />
<glyph unicode="&#xfd;" glyph-name="yacute" horiz-adv-x="513" d="M80 -197T47 -187L72 -82Q93 -89 106 -89Q172 -89 196 -17L204 11L12 495H150L225 272Q237 237 253 179Q260 152 266 132H270Q283 189 305 272L370 495H501L327 -11Q291 -107 244 -152T116 -197Q80
-197 47 -187ZM205 640L357 819L450 729L273 573L205 640Z" />
<glyph unicode="&#xfe;" glyph-name="thorn" horiz-adv-x="570" d="M68 703H204V527L201 455Q229 479 262 493T329 507Q422 507 476 439T530 255Q530 174 501 113T424 20T321 -12Q287 -12 259 0T201 36L204 -39V-188H68V703ZM334 100T362 139T390 254Q390 395
297 395Q251 395 204 347V135Q244 100 290 100Q334 100 362 139Z" />
<glyph unicode="&#xff;" glyph-name="ydieresis" horiz-adv-x="513" d="M80 -197T47 -187L72 -82Q93 -89 106 -89Q172 -89 196 -17L204 11L12 495H150L225 272Q237 237 253 179Q260 152 266 132H270Q283 189 305 272L370 495H501L327 -11Q291 -107 244 -152T116
-197Q80 -197 47 -187ZM129 572T110 591T91 640Q91 669 110 688T159 708Q189 708 208 689T227 640Q227 611 208 592T159 572Q129 572 110 591ZM343 572T324 591T305 640Q305 669 324 688T373 708Q403 708 422 689T441 640Q441 611 422 592T373 572Q343 572 324
591Z" />
<glyph unicode="&#x2013;" glyph-name="endash" horiz-adv-x="480" d="M43 297H437V209H43V297Z" />
<glyph unicode="&#x2014;" glyph-name="emdash" horiz-adv-x="800" d="M43 297H757V209H43V297Z" />
<glyph unicode="&#x2018;" glyph-name="quoteleft" horiz-adv-x="292" d="M175 500T196 481T217 431Q217 395 197 374T144 353Q101 353 78 385T55 477Q55 617 192 685L223 625Q178 602 157 572T135 499Q138 500 144 500Q175 500 196 481Z" />
<glyph unicode="&#x2019;" glyph-name="quoteright" horiz-adv-x="292" d="M191 697T214 665T237 573Q237 434 101 365L70 425Q115 448 136 478T158 551Q155 550 148 550Q117 550 96 569T75 620Q75 655 95 676T148 697Q191 697 214 665Z" />
<glyph unicode="&#x201a;" glyph-name="quotesinglbase" horiz-adv-x="292" d="M191 167T214 135T237 43Q237 -96 101 -165L70 -105Q115 -82 136 -52T158 21Q155 20 148 20Q117 20 96 39T75 90Q75 125 95 146T148 167Q191 167 214 135Z" />
<glyph unicode="&#x201c;" glyph-name="quotedblleft" horiz-adv-x="519" d="M175 500T196 481T217 431Q217 395 197 374T144 353Q101 353 78 385T55 477Q55 617 192 685L223 625Q178 602 157 572T135 499Q138 500 144 500Q175 500 196 481ZM402 500T423 481T444
431Q444 395 424 374T371 353Q328 353 305 385T282 477Q282 617 419 685L450 625Q405 602 384 572T362 499Q365 500 371 500Q402 500 423 481Z" />
<glyph unicode="&#x201d;" glyph-name="quotedblright" horiz-adv-x="519" d="M191 697T214 665T237 573Q237 434 101 365L70 425Q115 448 136 478T158 551Q155 550 148 550Q117 550 96 569T75 620Q75 655 95 676T148 697Q191 697 214 665ZM418 697T441 665T464
573Q464 434 328 365L297 425Q342 448 363 478T385 551Q382 550 375 550Q344 550 323 569T302 620Q302 655 322 676T375 697Q418 697 441 665Z" />
<glyph unicode="&#x201e;" glyph-name="quotedblbase" horiz-adv-x="519" d="M191 167T214 135T237 43Q237 -96 101 -165L70 -105Q115 -82 136 -52T158 21Q155 20 148 20Q117 20 96 39T75 90Q75 125 95 146T148 167Q191 167 214 135ZM418 167T441 135T464 43Q464
-96 328 -165L297 -105Q342 -82 363 -52T385 21Q382 20 375 20Q344 20 323 39T302 90Q302 125 322 146T375 167Q418 167 441 135Z" />
<glyph unicode="&#x2022;" glyph-name="bullet" horiz-adv-x="338" d="M115 127T78 166T40 263Q40 321 77 360T169 399Q223 399 260 360T298 263Q298 205 261 166T169 127Q115 127 78 166Z" />
<glyph unicode="&#x2039;" glyph-name="guilsinglleft" horiz-adv-x="289" d="M48 204V301L183 447L235 405L123 252L235 99L183 58L48 204Z" />
<glyph unicode="&#x203a;" glyph-name="guilsinglright" horiz-adv-x="289" d="M54 99L166 252L54 405L106 447L241 301V204L106 58L54 99Z" />
</font>
</defs>
</svg>
