<?xml version="1.0" standalone="no"?>
<!DOCTYPE svg PUBLIC "-//W3C//DTD SVG 1.1//EN" "http://www.w3.org/Graphics/SVG/1.1/DTD/svg11.dtd">
<svg xmlns="http://www.w3.org/2000/svg">
<defs >
<font id="Mada" horiz-adv-x="475" ><font-face
    font-family="Mada Light"
    units-per-em="1000"
    panose-1="0 0 0 0 0 0 0 0 0 0"
    ascent="900"
    descent="-300"
    alphabetic="0" />
<glyph unicode=" " glyph-name="space" horiz-adv-x="200" />
<glyph unicode="!" glyph-name="exclam" horiz-adv-x="259" d="M113 179L107 599V670H153L152 599L146 179H113ZM130 -12Q114 -12 101 0T87 33Q87 55 100 67T130 79Q146 79 159 67T172 33Q172 12 159 0T130 -12Z" />
<glyph unicode="&quot;" glyph-name="quotedbl" horiz-adv-x="360" d="M92 477L84 624L83 693H134V624L125 477H92ZM233 477L225 624L224 693H275V624L266 477H233Z" />
<glyph unicode="#" glyph-name="numbersign" horiz-adv-x="479" d="M158 250H308L329 420H179L158 250ZM93 0L119 214H36V250H123L144 420H56V456H148L173 650H208L183 456H332L358 650H392L367 456H449V420H364L343 250H429V214H338L313 0H278L303 214H154L128 0H93Z" />
<glyph unicode="$" glyph-name="dollar" horiz-adv-x="479" d="M265 -110H226V-11Q175 -7 132 15T59 66L83 97Q112 72 152 50T244 27Q307 27 340 61T374 150Q374 209 345 243T273 298T187 342T114 399T85 495Q85 558 125 600T226 650V749H265V650Q314 647 345
627T402 580L376 552Q348 580 320 596T246 612Q194 612 162 579T130 497Q130 444 159 415T231 366T317 323T390 260T419 153Q419 82 375 39T265 -11V-110Z" />
<glyph unicode="%" glyph-name="percent" horiz-adv-x="805" d="M181 257Q116 257 78 311T40 465Q40 564 78 617T181 671Q246 671 284 618T322 465Q322 365 284 311T181 257ZM181 290Q228 290 255 336T283 465Q283 548 256 593T181 638Q134 638 107 593T79 465Q79
382 106 336T181 290ZM198 -12L566 671H604L237 -12H198ZM624 -12Q559 -12 521 42T483 196Q483 295 521 348T624 402Q689 402 727 349T765 196Q765 96 727 42T624 -12ZM624 21Q671 21 698 67T726 196Q726 279 699 324T624 369Q577 369 550 324T522 196Q522 113
549 67T624 21Z" />
<glyph unicode="&amp;" glyph-name="ampersand" horiz-adv-x="575" d="M547 -12Q516 -1 481 19T406 71Q370 34 326 11T226 -12Q147 -12 92 36T36 167Q36 232 77 277T171 361Q151 403 139 444T127 524Q127 588 165 629T263 671Q316 671 344 637T373 551Q373 487
325 442T221 354Q255 291 304 232T404 128Q473 215 508 345H551Q532 277 503 215T434 103Q501 49 562 27L547 -12ZM168 526Q168 493 178 458T205 386Q255 422 294 460T333 549Q333 581 317 608T261 635Q218 635 193 603T168 526ZM230 26Q271 26 308 45T376 97Q323
145 274 205T189 329Q145 294 113 257T81 170Q81 105 125 66T230 26Z" />
<glyph unicode="&apos;" glyph-name="quotesingle" horiz-adv-x="219" d="M92 477L84 624L83 693H134V624L125 477H92Z" />
<glyph unicode="(" glyph-name="parenleft" horiz-adv-x="279" d="M220 -175Q158 -75 123 35T88 278Q88 410 123 520T220 731L247 715Q188 620 158 508T127 278Q127 160 157 48T247 -159L220 -175Z" />
<glyph unicode=")" glyph-name="parenright" horiz-adv-x="279" d="M59 -175L32 -159Q91 -64 121 48T152 278Q152 396 122 508T32 715L59 731Q120 631 155 521T191 278Q191 146 156 36T59 -175Z" />
<glyph unicode="*" glyph-name="asterisk" horiz-adv-x="395" d="M132 462L105 482L160 570L70 606L80 636L174 610L181 712H213L220 612L315 636L325 606L235 570L289 482L262 462L198 545L132 462Z" />
<glyph unicode="+" glyph-name="plus" horiz-adv-x="479" d="M219 110V311H34V349H219V550H260V349H445V311H260V110H219Z" />
<glyph unicode="," glyph-name="comma" horiz-adv-x="219" d="M62 -155L48 -125Q82 -107 103 -76T125 -4Q120 -5 113 -5Q96 -5 84 6T71 37Q71 57 84 68T114 79Q165 79 165 8Q165 -47 136 -89T62 -155Z" />
<glyph unicode="-" glyph-name="hyphen" horiz-adv-x="299" d="M40 230V269H260V230H40Z" />
<glyph unicode="." glyph-name="period" horiz-adv-x="219" d="M110 -12Q94 -12 81 0T67 33Q67 55 80 67T110 79Q126 79 139 67T152 33Q152 12 139 0T110 -12Z" />
<glyph unicode="/" glyph-name="slash" horiz-adv-x="357" d="M9 -160L314 710H352L47 -160H9Z" />
<glyph unicode="0" glyph-name="zero" horiz-adv-x="479" d="M239 -12Q148 -12 98 75T48 322Q48 481 98 566T239 651Q330 651 380 566T430 322Q430 162 380 75T239 -12ZM239 26Q306 26 345 101T385 322Q385 468 346 540T239 613Q173 613 133 541T93 322Q93 176
133 101T239 26Z" />
<glyph unicode="1" glyph-name="one" horiz-adv-x="479" d="M84 0V39H234V569H120V599Q195 612 243 639H279V39H418V0H84Z" />
<glyph unicode="2" glyph-name="two" horiz-adv-x="479" d="M41 0V28Q198 188 277 288T356 471Q356 531 323 572T217 613Q174 613 136 589T68 529L39 557Q75 597 118 624T221 651Q306 651 353 602T401 472Q401 377 321 277T108 35Q134 36 161 38T215 40H433V0H41Z" />
<glyph unicode="3" glyph-name="three" horiz-adv-x="479" d="M232 -12Q156 -12 108 17T29 78L55 109Q84 78 125 53T232 27Q296 27 338 65T381 168Q381 234 330 275T158 316V355Q269 355 313 395T358 494Q358 548 323 580T229 613Q185 613 148 593T82 543L56 573Q89
605 131 628T229 651Q303 651 353 611T404 497Q404 434 369 396T282 339V335Q341 322 384 279T427 169Q427 86 371 37T232 -12Z" />
<glyph unicode="4" glyph-name="four" horiz-adv-x="479" d="M70 229H310V463Q310 485 311 518T314 573H310Q298 553 285 534T258 493L70 229ZM448 191H353V0H310V191H16V217L313 639H353V229H448V191Z" />
<glyph unicode="5" glyph-name="five" horiz-adv-x="479" d="M227 -12Q150 -12 104 15T26 74L51 105Q80 76 120 52T226 27Q290 27 337 74T385 199Q385 276 343 320T229 364Q192 364 165 352T110 321L79 340L102 639H397V600H142L122 369Q147 384 174 393T236 403Q317
403 374 355T431 201Q431 99 368 44T227 -12Z" />
<glyph unicode="6" glyph-name="six" horiz-adv-x="479" d="M436 188Q436 101 384 45T261 -12Q165 -12 109 66T52 290Q52 424 85 503T172 616T287 651Q332 651 364 634T422 589L395 559Q353 612 287 612Q210 612 154 542T97 297Q130 338 172 362T258 386Q342 386
389 336T436 188ZM262 26Q318 26 354 73T391 188Q391 257 359 302T253 348Q220 348 179 326T98 252Q104 151 144 89T262 26Z" />
<glyph unicode="7" glyph-name="seven" horiz-adv-x="479" d="M188 0Q193 129 214 230T275 421T381 600H44V639H437V613Q360 512 319 419T259 226T236 0H188Z" />
<glyph unicode="8" glyph-name="eight" horiz-adv-x="479" d="M243 -12Q155 -12 98 38T40 164Q40 228 81 274T168 344V348Q133 371 105 407T76 495Q76 564 124 607T243 651Q325 651 370 604T416 484Q416 432 385 388T325 322V318Q366 292 401 256T437 155Q437
85 384 37T243 -12ZM290 335Q374 403 374 483Q374 536 340 575T243 614Q190 614 155 581T120 495Q120 427 173 394T290 335ZM243 25Q310 25 351 63T392 156Q392 205 364 235T291 287T197 327Q148 298 116 258T84 166Q84 107 129 66T243 25Z" />
<glyph unicode="9" glyph-name="nine" horiz-adv-x="479" d="M226 291Q260 291 302 314T381 388Q375 490 335 551T216 613Q161 613 124 567T87 452Q87 382 119 337T226 291ZM191 -12Q147 -12 114 5T56 50L83 80Q125 27 192 27Q268 27 325 97T382 342Q349 302 307
278T220 254Q137 254 90 304T43 452Q43 539 95 595T218 651Q313 651 369 574T426 350Q426 216 393 137T307 23T191 -12Z" />
<glyph unicode=":" glyph-name="colon" horiz-adv-x="219" d="M110 370Q94 370 81 382T67 415Q67 437 80 449T110 461Q126 461 139 449T152 415Q152 394 139 382T110 370ZM110 -12Q94 -12 81 0T67 33Q67 55 80 67T110 79Q126 79 139 67T152 33Q152 12 139 0T110 -12Z" />
<glyph unicode=";" glyph-name="semicolon" horiz-adv-x="219" d="M62 -155L48 -125Q82 -107 103 -76T125 -4Q120 -5 113 -5Q96 -5 84 6T71 37Q71 57 84 68T114 79Q165 79 165 8Q165 -47 136 -89T62 -155ZM110 370Q94 370 81 382T67 415Q67 437 80 449T110 461Q126
461 139 449T152 415Q152 394 139 382T110 370Z" />
<glyph unicode="&lt;" glyph-name="less" horiz-adv-x="479" d="M445 146L34 310V354L445 518V475L213 385L80 334V330L213 279L445 189V146Z" />
<glyph unicode="=" glyph-name="equal" horiz-adv-x="479" d="M34 413V451H445V413H34ZM34 465V503H445V465H34Z" />
<glyph unicode="&gt;" glyph-name="greater" horiz-adv-x="479" d="M34 146V189L266 279L399 330V334L266 385L34 475V518L445 354V310L34 146Z" />
<glyph unicode="?" glyph-name="question" horiz-adv-x="402" d="M163 179Q155 241 175 286T226 369T281 443T306 526Q306 572 279 607T193 643Q116 643 64 579L37 604Q66 637 105 659T197 682Q270 682 311 638T352 529Q352 478 327 438T271 361T218 280T203 179H163ZM186
-12Q170 -12 157 0T144 33Q144 55 157 67T186 79Q202 79 215 67T229 33Q229 12 216 0T186 -12Z" />
<glyph unicode="@" glyph-name="at" horiz-adv-x="814" d="M388 -146Q243 -146 148 -55T52 202Q52 332 107 429T253 579T449 633Q594 633 678 546T763 316Q763 231 735 173T663 86T579 56Q539 56 513 74T482 132H480Q454 103 423 83T358 62Q312 62 278 96T244
198Q244 246 266 298T329 387T430 423Q483 423 513 375H515L524 415H558L522 226Q488 91 582 91Q630 91 677 149T725 313Q725 442 651 520T446 598Q354 598 273 550T141 413T90 205Q90 59 173 -25T391 -110Q440 -110 481 -97T559 -62L575 -92Q490 -146 388 -146ZM364
98Q414 98 472 165L503 338Q485 366 469 376T429 387Q384 387 352 358T302 286T284 201Q284 144 307 121T364 98Z" />
<glyph unicode="A" glyph-name="A" horiz-adv-x="526" d="M188 388L146 265H380L338 388Q318 446 300 500T265 616H261Q244 555 226 501T188 388ZM470 0L393 226H132L54 0H8L240 659H286L518 0H470Z" />
<glyph unicode="B" glyph-name="B" horiz-adv-x="578" d="M97 0V659H275Q375 659 434 621T493 499Q493 447 467 409T391 355V351Q455 340 494 300T533 192Q533 97 467 49T288 0H97ZM143 369H257Q358 369 402 402T447 494Q447 564 400 592T262 621H143V369ZM143
38H276Q374 38 431 75T488 191Q488 262 433 296T276 331H143V38Z" />
<glyph unicode="C" glyph-name="C" horiz-adv-x="564" d="M331 -12Q209 -12 132 81T55 331Q55 488 133 579T336 671Q394 671 438 647T508 592L481 561Q454 592 418 610T337 629Q228 629 166 549T103 331Q103 194 164 112T333 30Q384 30 424 50T500 111L527 82Q489
38 442 13T331 -12Z" />
<glyph unicode="D" glyph-name="D" horiz-adv-x="604" d="M97 0V659H250Q402 659 475 570T549 332Q549 182 476 91T251 0H97ZM143 39H245Q379 39 440 121T501 332Q501 460 440 540T245 620H143V39Z" />
<glyph unicode="E" glyph-name="E" horiz-adv-x="515" d="M97 0V659H458V619H143V370H407V330H143V40H468V0H97Z" />
<glyph unicode="F" glyph-name="F" horiz-adv-x="477" d="M97 0V659H456V619H143V357H408V317H143V0H97Z" />
<glyph unicode="G" glyph-name="G" horiz-adv-x="605" d="M338 -12Q210 -12 133 81T55 331Q55 488 135 579T346 671Q413 671 456 646T526 592L499 561Q474 589 438 609T347 629Q234 629 169 549T103 331Q103 194 165 112T341 30Q386 30 425 43T489 80V285H331V324H533V63Q502
30 452 9T338 -12Z" />
<glyph unicode="H" glyph-name="H" horiz-adv-x="639" d="M97 0V659H143V370H496V659H542V0H496V330H143V0H97Z" />
<glyph unicode="I" glyph-name="I" horiz-adv-x="240" d="M97 0V659H143V0H97Z" />
<glyph unicode="J" glyph-name="J" horiz-adv-x="462" d="M203 -12Q93 -12 41 85L76 108Q100 66 131 48T203 30Q321 30 321 184V659H367V179Q367 100 330 44T203 -12Z" />
<glyph unicode="K" glyph-name="K" horiz-adv-x="558" d="M97 0V659H143V293H145L464 659H519L309 415L548 0H495L277 380L143 227V0H97Z" />
<glyph unicode="L" glyph-name="L" horiz-adv-x="467" d="M97 0V659H143V40H447V0H97Z" />
<glyph unicode="M" glyph-name="M" horiz-adv-x="706" d="M97 0V659H162L300 272Q313 236 326 200T352 126H356Q369 163 381 199T406 272L543 659H609V0H564V433Q564 474 566 522T570 611H566L515 464L373 72H333L190 464L138 611H134Q136 570 138 522T140 433V0H97Z" />
<glyph unicode="N" glyph-name="N" horiz-adv-x="636" d="M97 0V659H145L423 194L497 63H501Q500 111 498 159T495 255V659H539V0H491L213 465L139 596H135Q136 549 138 503T141 409V0H97Z" />
<glyph unicode="O" glyph-name="O" horiz-adv-x="652" d="M326 -12Q208 -12 132 81T55 332Q55 488 131 579T326 671Q445 671 521 580T598 332Q598 175 522 82T326 -12ZM326 30Q426 30 487 112T549 332Q549 468 488 548T326 629Q226 629 165 549T103 332Q103 195
164 113T326 30Z" />
<glyph unicode="P" glyph-name="P" horiz-adv-x="549" d="M97 0V659H263Q375 659 438 618T502 475Q502 378 440 331T267 283H143V0H97ZM143 322H256Q356 322 405 358T455 475Q455 558 405 589T252 620H143V322Z" />
<glyph unicode="Q" glyph-name="Q" horiz-adv-x="652" d="M519 -156Q436 -156 381 -115T300 -11Q192 0 124 92T55 332Q55 488 131 579T326 671Q445 671 521 580T598 332Q598 184 529 92T351 -11Q398 -113 523 -113Q546 -113 561 -111T590 -105L600 -144Q587 -148
566 -152T519 -156ZM326 27Q426 27 487 110T549 332Q549 468 488 548T326 629Q226 629 165 549T103 332Q103 194 164 111T326 27Z" />
<glyph unicode="R" glyph-name="R" horiz-adv-x="544" d="M143 341H274Q361 341 408 376T455 485Q455 559 408 589T274 620H143V341ZM143 0H97V659H286Q384 659 443 620T502 485Q502 406 457 361T333 306L515 0H462L283 303H143V0Z" />
<glyph unicode="S" glyph-name="S" horiz-adv-x="521" d="M269 -12Q197 -12 141 16T46 87L76 119Q112 78 162 54T269 30Q345 30 389 67T433 162Q433 224 399 251T315 300L215 345Q172 364 127 400T81 509Q81 580 135 625T273 671Q332 671 379 648T456 592L430
562Q401 592 362 610T273 629Q208 629 168 597T127 511Q127 454 166 427T241 384L341 340Q396 315 438 278T480 165Q480 89 423 39T269 -12Z" />
<glyph unicode="T" glyph-name="T" horiz-adv-x="524" d="M239 0V619H29V659H495V619H285V0H239Z" />
<glyph unicode="U" glyph-name="U" horiz-adv-x="634" d="M316 -12Q260 -12 209 11T127 92T95 253V659H141V258Q141 127 193 79T316 30Q387 30 441 78T496 258V659H539V253Q539 150 507 93T424 12T316 -12Z" />
<glyph unicode="V" glyph-name="V" horiz-adv-x="491" d="M222 0L4 659H53L175 274Q194 214 209 164T245 53H249Q269 113 284 163T318 274L440 659H487L271 0H222Z" />
<glyph unicode="W" glyph-name="W" horiz-adv-x="770" d="M178 0L28 659H76L159 271Q170 217 181 163T204 56H208Q220 109 233 163T259 271L362 659H409L512 271Q526 217 539 164T565 56H569Q580 110 590 163T612 271L695 659H740L593 0H542L422 452Q413 491 404
526T387 601H383Q375 562 365 527T346 452L228 0H178Z" />
<glyph unicode="X" glyph-name="X" horiz-adv-x="482" d="M17 0L215 341L31 659H81L189 465Q202 442 214 422T243 375H247Q261 402 271 422T296 465L404 659H451L267 339L465 0H415L300 202Q286 227 272 252T239 307H235Q219 277 206 252T179 202L64 0H17Z" />
<glyph unicode="Y" glyph-name="Y" horiz-adv-x="447" d="M200 0V267L3 659H52L152 453Q169 417 185 382T222 311H226Q245 347 263 382T297 453L397 659H444L246 267V0H200Z" />
<glyph unicode="Z" glyph-name="Z" horiz-adv-x="538" d="M50 0V27L429 619H83V659H487V632L107 40H490V0H50Z" />
<glyph unicode="[" glyph-name="bracketleft" horiz-adv-x="279" d="M98 -152V708H258V679H133V-123H258V-152H98Z" />
<glyph unicode="\" glyph-name="backslash" horiz-adv-x="357" d="M311 -160L5 710H43L349 -160H311Z" />
<glyph unicode="]" glyph-name="bracketright" horiz-adv-x="279" d="M21 -152V-123H146V679H21V708H181V-152H21Z" />
<glyph unicode="^" glyph-name="asciicircum" horiz-adv-x="479" d="M66 290L216 670H262L413 290H370L293 493L241 626H237L186 493L109 290H66Z" />
<glyph unicode="_" glyph-name="underscore" horiz-adv-x="500" d="M12 -117V-79H488V-117H12Z" />
<glyph unicode="`" glyph-name="grave" horiz-adv-x="535" d="M296 574L152 725L186 754L320 597L296 574Z" />
<glyph unicode="a" glyph-name="a" horiz-adv-x="491" d="M205 26Q246 26 284 46T368 104V267Q220 250 162 215T103 122Q103 70 133 48T205 26ZM197 -12Q140 -12 99 20T58 120Q58 200 133 241T368 301Q369 356 347 404T254 453Q206 453 166 434T101 397L81 430Q106
448 154 470T260 492Q345 492 378 438T412 307V0H374L370 62H367Q330 33 287 11T197 -12Z" />
<glyph unicode="b" glyph-name="b" horiz-adv-x="542" d="M280 -12Q246 -12 208 4T136 49H134L129 0H92V719H136V511L134 417Q171 448 213 470T300 492Q396 492 444 426T492 247Q492 125 429 57T280 -12ZM278 27Q351 27 398 88T445 247Q445 336 411 394T293 453Q224
453 136 374V89Q176 55 213 41T278 27Z" />
<glyph unicode="c" glyph-name="c" horiz-adv-x="449" d="M270 -12Q177 -12 115 54T52 239Q52 360 117 426T271 492Q320 492 353 474T412 433L386 402Q363 424 335 438T272 453Q198 453 148 394T98 239Q98 144 145 86T272 27Q310 27 342 43T400 82L423 51Q392
24 354 6T270 -12Z" />
<glyph unicode="d" glyph-name="d" horiz-adv-x="544" d="M257 27Q297 27 333 47T408 106V391Q370 425 337 439T268 453Q196 453 148 392T99 239Q99 144 139 86T257 27ZM251 -12Q160 -12 106 53T52 239Q52 355 116 423T265 492Q308 492 341 477T410 433L408 521V719H452V0H414L410
62H407Q378 33 339 11T251 -12Z" />
<glyph unicode="e" glyph-name="e" horiz-adv-x="483" d="M274 -12Q182 -12 117 54T52 239Q52 357 116 424T261 492Q346 492 395 434T445 270Q445 261 445 252T443 234H97Q98 143 147 85T278 26Q317 26 348 38T407 69L425 35Q396 18 361 3T274 -12ZM97 270H403Q403
362 365 408T262 454Q200 454 152 405T97 270Z" />
<glyph unicode="f" glyph-name="f" horiz-adv-x="263" d="M254 442H143V0H99V442H33V476L99 480V587Q99 731 218 731Q253 731 288 715L276 679Q248 693 218 693Q143 693 143 584V480H254V442Z" />
<glyph unicode="g" glyph-name="g" horiz-adv-x="487" d="M242 188Q292 188 329 225T366 323Q366 384 330 420T242 456Q191 456 154 420T117 323Q117 262 154 225T242 188ZM249 -231Q158 -231 105 -195T52 -98Q52 -34 123 18V22Q105 32 93 51T81 99Q81 131 99
153T133 187V191Q110 210 92 245T73 323Q73 397 122 444T242 492Q262 492 278 488T305 480H468V443H356Q379 423 394 392T409 322Q409 248 361 201T242 153Q196 153 162 173Q146 160 135 144T123 104Q123 78 142 60T215 41H318Q476 41 476 -69Q476 -131 414 -181T249
-231ZM254 -195Q335 -195 383 -157T431 -74Q431 -1 320 -1H217Q210 -1 193 0T157 7Q124 -16 109 -42T94 -94Q94 -139 136 -167T254 -195Z" />
<glyph unicode="h" glyph-name="h" horiz-adv-x="528" d="M136 362V0H92V719H136V405Q174 442 213 467T302 492Q447 492 447 308V0H403V302Q403 378 378 415T293 452Q250 452 215 430T136 362Z" />
<glyph unicode="i" glyph-name="i" horiz-adv-x="229" d="M115 596Q98 596 87 607T75 635Q75 654 86 664T115 675Q132 675 143 665T155 635Q155 618 144 607T115 596ZM92 0V480H136V0H92Z" />
<glyph unicode="j" glyph-name="j" horiz-adv-x="229" d="M115 596Q99 596 87 607T75 635Q75 654 87 664T115 675Q132 675 144 665T156 635Q156 618 144 607T115 596ZM29 -229Q12 -229 -5 -226T-33 -217L-22 -181Q-13 -184 0 -187T28 -191Q68 -191 80 -162T92
-86V480H137V-89Q137 -229 29 -229Z" />
<glyph unicode="k" glyph-name="k" horiz-adv-x="464" d="M92 0V719H136V189H138L375 480H426L270 290L452 0H403L244 257L136 131V0H92Z" />
<glyph unicode="l" glyph-name="l" horiz-adv-x="237" d="M151 -12Q92 -12 92 64V719H136V58Q136 27 157 27Q165 27 175 29L183 -7Q168 -12 151 -12Z" />
<glyph unicode="m" glyph-name="m" horiz-adv-x="812" d="M92 0V480H130L134 406H137Q169 443 208 467T288 492Q346 492 377 465T421 394Q462 439 502 465T584 492Q728 492 728 308V0H683V302Q683 452 576 452Q512 452 432 362V0H388V302Q388 452 280 452Q216
452 136 362V0H92Z" />
<glyph unicode="n" glyph-name="n" horiz-adv-x="532" d="M92 0V480H130L134 406H137Q174 443 213 467T302 492Q447 492 447 308V0H403V302Q403 378 378 415T293 452Q250 452 215 430T136 362V0H92Z" />
<glyph unicode="o" glyph-name="o" horiz-adv-x="535" d="M267 -12Q181 -12 117 54T52 239Q52 360 116 426T267 492Q354 492 418 426T483 239Q483 120 419 54T267 -12ZM267 27Q340 27 388 85T437 239Q437 334 389 393T267 453Q194 453 146 394T98 239Q98 144 146
86T267 27Z" />
<glyph unicode="p" glyph-name="p" horiz-adv-x="544" d="M278 27Q351 27 398 88T445 247Q445 336 411 394T293 453Q257 453 219 433T136 374V89Q177 55 213 41T278 27ZM136 47V-217H92V480H130L134 420H137Q172 448 214 470T300 492Q396 492 444 426T492 247Q492
125 429 57T280 -12Q246 -12 210 3T136 47Z" />
<glyph unicode="q" glyph-name="q" horiz-adv-x="544" d="M408 -217V-32L410 63Q378 32 338 10T251 -12Q160 -12 106 53T52 239Q52 355 116 423T265 492Q308 492 341 477T408 436H410L415 480H452V-217H408ZM257 27Q297 27 333 47T408 106V391Q370 425 337 439T268
453Q196 453 148 392T99 239Q99 144 139 86T257 27Z" />
<glyph unicode="r" glyph-name="r" horiz-adv-x="317" d="M92 0V480H130L134 391H137Q161 435 195 463T273 492Q301 492 321 482L311 442Q290 450 267 450Q235 450 200 422T136 327V0H92Z" />
<glyph unicode="s" glyph-name="s" horiz-adv-x="405" d="M208 -12Q155 -12 110 7T32 54L58 87Q89 62 124 44T211 26Q267 26 296 54T325 121Q325 166 287 189T208 227Q153 246 104 274T55 364Q55 416 95 454T210 492Q248 492 284 478T347 442L323 411Q299 429
272 441T208 454Q152 454 126 427T100 367Q100 326 135 306T213 270Q250 256 286 240T346 197T370 123Q370 69 328 29T208 -12Z" />
<glyph unicode="t" glyph-name="t" horiz-adv-x="312" d="M223 -12Q153 -12 128 28T103 133V442H28V476L104 480L110 619H148V480H287V442H148V129Q148 83 164 55T229 27Q257 27 289 42L301 6Q280 -2 259 -7T223 -12Z" />
<glyph unicode="u" glyph-name="u" horiz-adv-x="529" d="M230 -12Q85 -12 85 172V480H129V178Q129 28 238 28Q281 28 316 51T393 126V480H437V0H400L395 80H393Q358 39 319 14T230 -12Z" />
<glyph unicode="v" glyph-name="v" horiz-adv-x="434" d="M192 0L12 480H60L168 179Q179 144 192 109T216 41H220Q232 74 244 109T269 179L377 480H422L244 0H192Z" />
<glyph unicode="w" glyph-name="w" horiz-adv-x="685" d="M166 0L24 480H72L158 169Q167 136 175 105T191 41H195Q203 73 212 104T230 169L317 480H370L457 169Q466 136 475 105T493 41H497Q505 73 514 104T531 169L616 480H661L523 0H465L381 298Q370 332 362
366T344 435H340Q332 400 323 365T302 296L219 0H166Z" />
<glyph unicode="x" glyph-name="x" horiz-adv-x="407" d="M14 0L177 251L27 480H76L154 358Q166 338 179 318T205 279H209Q222 298 233 318T258 358L333 480H379L230 247L393 0H344L259 131Q246 154 232 176T202 219H198Q184 198 171 176T143 131L61 0H14Z" />
<glyph unicode="y" glyph-name="y" horiz-adv-x="436" d="M73 -219Q46 -219 24 -209L34 -170Q54 -178 73 -178Q117 -178 147 -142T196 -51L209 -9L12 480H60L176 178Q187 148 200 112T228 44H232Q243 76 254 112T276 178L379 480H424L234 -60Q214 -121 176 -170T73 -219Z" />
<glyph unicode="z" glyph-name="z" horiz-adv-x="404" d="M27 0V24L311 442H58V480H368V457L85 39H378V0H27Z" />
<glyph unicode="{" glyph-name="braceleft" horiz-adv-x="279" d="M224 -152Q168 -152 141 -126T113 -24Q113 32 117 80T121 181Q121 212 105 237T35 262V294Q88 294 104 319T121 373Q121 426 117 475T113 580Q113 656 140 682T224 708H258V679H227Q181 679 166
654T150 576Q150 527 153 483T156 384Q156 340 146 315T105 280V276Q135 267 145 241T156 172Q156 118 153 74T150 -20Q150 -72 165 -97T227 -123H258V-152H224Z" />
<glyph unicode="|" glyph-name="bar" horiz-adv-x="226" d="M95 -250V750H131V-250H95Z" />
<glyph unicode="}" glyph-name="braceright" horiz-adv-x="279" d="M21 -152V-123H52Q98 -123 113 -98T129 -20Q129 29 126 73T123 172Q123 215 134 241T174 276V280Q145 289 134 314T123 384Q123 438 126 482T129 576Q129 628 114 653T52 679H21V708H55Q110 708
138 682T166 580Q166 524 162 475T158 373Q158 344 175 319T244 294V262Q192 262 175 237T158 181Q158 129 162 81T166 -24Q166 -100 138 -126T55 -152H21Z" />
<glyph unicode="~" glyph-name="asciitilde" horiz-adv-x="479" d="M329 266Q290 266 261 288T204 333T148 356Q126 356 107 342T69 293L40 311Q62 353 91 373T150 394Q188 394 218 372T275 327T331 304Q354 304 373 318T410 367L438 347Q417 306 388 286T329 266Z" />
<glyph unicode="&#xa0;" glyph-name="space" horiz-adv-x="200" />
<glyph unicode="&#xa1;" glyph-name="exclamdown" horiz-adv-x="259" d="M130 401Q114 401 101 413T87 448Q87 468 100 480T130 492Q146 492 159 480T172 448Q172 426 159 414T130 401ZM107 -190V-119L113 301H146L152 -119L153 -190H107Z" />
<glyph unicode="&#xa2;" glyph-name="cent" horiz-adv-x="479" d="M435 144Q405 117 369 100T289 80V-28H255V81Q170 90 116 149T62 311Q62 415 118 474T255 541V652H289V543Q336 542 368 524T424 483L400 455Q377 476 349 490T289 504V119Q326 120 357 135T412
173L435 144ZM107 311Q107 233 147 182T255 121V502Q190 492 149 441T107 311Z" />
<glyph unicode="&#xa3;" glyph-name="sterling" horiz-adv-x="479" d="M428 40V0H57V27Q112 58 137 110T163 221Q163 240 161 257T154 293H54V326L120 329H144Q133 367 123 404T112 481Q112 560 157 605T282 651Q334 651 369 630T426 580L397 553Q376 578 349
595T282 612Q220 612 189 574T157 481Q157 442 167 405T189 329H354V293H197Q205 255 205 221Q205 159 187 118T133 44V40H428Z" />
<glyph unicode="&#xa4;" glyph-name="currency" horiz-adv-x="479" d="M57 114L31 142L96 209Q58 260 58 328Q58 399 96 450L31 518L57 546L123 477Q172 521 239 521Q306 521 355 477L422 546L448 518L382 450Q420 399 420 328Q420 260 383 209L448 142L422 114L355
182Q307 137 239 137Q173 137 123 182L57 114ZM239 174Q295 174 335 217T376 328Q376 397 336 440T239 484Q184 484 143 441T102 328Q102 260 143 217T239 174Z" />
<glyph unicode="&#xa5;" glyph-name="yen" horiz-adv-x="479" d="M216 0V165H50V199H216V270H50V303H202L30 639H78L172 446Q188 413 204 380T238 309H242Q261 346 276 379T309 446L403 639H449L275 303H429V270H261V199H429V165H261V0H216Z" />
<glyph unicode="&#xa6;" glyph-name="brokenbar" horiz-adv-x="226" d="M95 279V750H131V279H95ZM95 -250V220H131V-250H95Z" />
<glyph unicode="&#xa7;" glyph-name="section" horiz-adv-x="479" d="M92 355Q92 303 129 275T218 228T312 181Q348 198 367 219T387 281Q387 335 350 363T261 412T168 459Q134 440 113 417T92 355ZM233 -52Q181 -52 141 -35T72 11L102 39Q128 15 157 0T233 -15Q279
-15 306 10T333 70Q333 111 305 135T234 176T150 213T79 265T50 352Q50 400 76 431T139 483Q124 498 115 518T106 564Q106 607 139 644T241 681Q282 681 317 666T381 628L357 597Q333 616 307 629T242 643Q192 643 170 620T148 567Q148 528 176 505T246 464T330
426T400 373T429 284Q429 234 405 206T342 156Q358 140 367 120T376 72Q376 18 334 -17T233 -52Z" />
<glyph unicode="&#xa8;" glyph-name="dieresis" horiz-adv-x="535" d="M356 598Q319 598 319 635Q319 672 356 672Q393 672 393 635Q393 598 356 598ZM178 598Q141 598 141 635Q141 672 178 672Q215 672 215 635Q215 598 178 598Z" />
<glyph unicode="&#xa9;" glyph-name="copyright" horiz-adv-x="741" d="M371 -12Q284 -12 212 29T95 146T51 322Q51 422 95 496T211 611T371 652Q457 652 529 612T646 497T690 322Q690 221 646 146T530 30T371 -12ZM371 19Q448 19 512 57T616 163T655 322Q655
412 616 479T513 584T371 622Q294 622 229 585T125 480T86 322Q86 232 125 164T229 57T371 19ZM376 124Q305 124 253 176T201 322Q201 409 255 459T381 509Q421 509 449 494T501 454L478 428Q455 450 433 461T380 472Q321 472 283 431T244 322Q244 248 280 205T378
161Q414 161 442 175T493 211L513 183Q486 159 455 142T376 124Z" />
<glyph unicode="&#xaa;" glyph-name="ordfeminine" horiz-adv-x="337" d="M148 430Q196 430 248 479V581Q155 570 118 548T81 492Q81 430 148 430ZM139 398Q96 398 69 422T42 489Q42 542 91 569T248 607Q247 645 233 672T178 699Q148 699 118 687T71 662L56 689Q76
702 109 716T182 731Q240 731 262 697T285 606V406H255L249 445H245Q224 427 198 413T139 398Z" />
<glyph unicode="&#xab;" glyph-name="guillemotleft" horiz-adv-x="399" d="M180 72L43 233V271L180 432L205 411L82 252L205 91L180 72ZM321 72L184 233V271L321 432L346 411L223 252L346 91L321 72Z" />
<glyph unicode="&#xac;" glyph-name="logicalnot" horiz-adv-x="479" d="M404 110V311H34V349H445V110H404Z" />
<glyph unicode="&#xad;" glyph-name="uni00AD" horiz-adv-x="299" d="M40 230V269H260V230H40Z" />
<glyph unicode="&#xae;" glyph-name="registered" horiz-adv-x="401" d="M200 324Q126 324 72 377T18 517Q18 605 72 658T200 712Q275 712 328 659T382 517Q382 430 329 377T200 324ZM200 353Q263 353 307 399T351 517Q351 589 307 636T200 684Q137 684 93 637T49
517Q49 446 93 400T200 353ZM164 521H193Q244 521 244 558Q244 596 196 596H164V521ZM132 418V624H201Q230 624 254 611T278 560Q278 516 238 504L287 418H250L211 494H164V418H132Z" />
<glyph unicode="&#xaf;" glyph-name="overscore" horiz-adv-x="535" d="M144 606V642H390V606H144Z" />
<glyph unicode="&#xb0;" glyph-name="degree" horiz-adv-x="311" d="M156 447Q112 447 77 478T42 565Q42 621 77 652T156 684Q200 684 235 653T270 565Q270 510 235 479T156 447ZM156 479Q191 479 213 503T236 565Q236 603 214 628T156 653Q121 653 99 628T76
565Q76 528 98 504T156 479Z" />
<glyph unicode="&#xb1;" glyph-name="plusminus" horiz-adv-x="479" d="M219 109V310H34V347H219V550H260V347H445V310H260V109H219ZM34 0V37H445V0H34Z" />
<glyph unicode="&#xb2;" glyph-name="two.sups" horiz-adv-x="362" d="M56 406V431Q156 524 202 578T249 681Q249 724 226 749T163 774Q136 774 112 756T72 712L47 735Q65 765 97 786T167 808Q221 808 254 777T288 685Q288 624 241 569T119 440H311V406H56Z" />
<glyph unicode="&#xb3;" glyph-name="three.sups" horiz-adv-x="362" d="M177 394Q131 394 96 416T40 469L69 491Q87 462 115 445T178 427Q215 427 242 448T269 510Q269 548 232 569T131 590V618Q190 618 221 643T253 702Q253 734 231 754T170 775Q147 775 124
761T81 723L56 745Q77 772 106 790T174 808Q223 808 257 781T292 705Q292 668 271 644T217 606Q252 599 280 575T308 509Q308 455 270 425T177 394Z" />
<glyph unicode="&#xb4;" glyph-name="acute" horiz-adv-x="535" d="M238 574L214 597L348 754L382 725L238 574Z" />
<glyph unicode="&#xb5;" glyph-name="uni00B5" horiz-adv-x="543" d="M92 -180V480H136V178Q136 107 161 68T242 28Q280 28 317 47T397 139V480H441Q440 375 439 271T438 64Q438 27 468 27Q480 27 496 33L504 -3Q496 -7 486 -9T462 -12Q427 -12 413 12T399 89H396Q337
-11 245 -11Q208 -11 180 0T132 49Q132 -6 132 -41T133 -108T137 -180H92Z" />
<glyph unicode="&#xb6;" glyph-name="paragraph" horiz-adv-x="515" d="M291 244Q181 244 112 291T42 451Q42 564 107 611T275 659H319V244H291ZM373 -80V659H419V-80H373Z" />
<glyph unicode="&#xb7;" glyph-name="middot" horiz-adv-x="219" d="M110 277Q94 277 81 289T67 322Q67 344 80 356T110 368Q126 368 139 356T152 322Q152 301 139 289T110 277Z" />
<glyph unicode="&#xb8;" glyph-name="cedilla" horiz-adv-x="535" d="M199 -219L192 -189Q257 -184 281 -171T305 -136Q305 -96 227 -85L268 2H303L273 -65Q305 -73 324 -88T344 -134Q344 -210 199 -219Z" />
<glyph unicode="&#xb9;" glyph-name="one.sups" horiz-adv-x="362" d="M176 406V730H94V757Q147 768 181 796H214V406H176Z" />
<glyph unicode="&#xba;" glyph-name="ordmasculine" horiz-adv-x="360" d="M179 398Q118 398 76 442T33 565Q33 644 75 687T179 731Q240 731 282 688T325 565Q325 486 283 442T179 398ZM179 431Q228 431 257 468T286 565Q286 625 257 662T179 699Q131 699 102
662T72 565Q72 506 101 469T179 431Z" />
<glyph unicode="&#xbb;" glyph-name="guillemotright" horiz-adv-x="399" d="M78 72L54 91L176 252L54 411L78 432L216 271V233L78 72ZM219 72L195 91L317 252L195 411L219 432L357 271V233L219 72Z" />
<glyph unicode="&#xbc;" glyph-name="onequarter" horiz-adv-x="764" d="M155 269V593H73V620Q126 631 160 659H193V269H155ZM177 -12L545 671H583L216 -12H177ZM496 146H625V233L629 337H625L569 254L496 146ZM719 114H661V0H625V114H448V135L625 390H661V146H719V114Z" />
<glyph unicode="&#xbd;" glyph-name="onehalf" horiz-adv-x="786" d="M155 269V593H73V620Q126 631 160 659H193V269H155ZM154 -12L522 671H560L193 -12H154ZM480 0V25Q580 118 626 172T673 275Q673 318 650 343T587 368Q560 368 536 350T496 306L471 329Q489
359 521 380T591 402Q645 402 678 371T712 279Q712 218 665 163T543 34H735V0H480Z" />
<glyph unicode="&#xbe;" glyph-name="threequarters" horiz-adv-x="783" d="M177 257Q131 257 96 279T40 332L69 354Q87 325 115 308T178 290Q215 290 242 311T269 373Q269 411 232 432T131 453V481Q190 481 221 506T253 565Q253 597 231 617T170 638Q147 638
124 624T81 586L56 608Q77 635 106 653T174 671Q223 671 257 644T292 568Q292 531 271 507T217 469Q252 462 280 438T308 372Q308 318 270 288T177 257ZM224 -12L592 671H630L263 -12H224ZM515 146H644V233L648 337H644L588 254L515 146ZM738 114H680V0H644V114H467V135L644
390H680V146H738V114Z" />
<glyph unicode="&#xbf;" glyph-name="questiondown" horiz-adv-x="402" d="M216 401Q200 401 187 413T174 448Q174 468 187 480T216 492Q232 492 245 480T258 448Q258 426 245 414T216 401ZM206 -202Q132 -202 92 -158T51 -49Q51 2 76 42T132 120T184 201T199
301H240Q248 239 228 194T176 111T121 37T96 -46Q96 -92 123 -127T210 -163Q285 -163 338 -99L366 -124Q337 -156 298 -179T206 -202Z" />
<glyph unicode="&#xc0;" glyph-name="Agrave" horiz-adv-x="526" d="M188 388L146 265H380L338 388Q318 446 300 500T265 616H261Q244 555 226 501T188 388ZM470 0L393 226H132L54 0H8L240 659H286L518 0H470ZM284 706L151 819L179 852L304 729L284 706Z" />
<glyph unicode="&#xc1;" glyph-name="Aacute" horiz-adv-x="526" d="M188 388L146 265H380L338 388Q318 446 300 500T265 616H261Q244 555 226 501T188 388ZM470 0L393 226H132L54 0H8L240 659H286L518 0H470ZM242 706L222 729L347 852L375 819L242 706Z" />
<glyph unicode="&#xc2;" glyph-name="Acircumflex" horiz-adv-x="526" d="M188 388L146 265H380L338 388Q318 446 300 500T265 616H261Q244 555 226 501T188 388ZM470 0L393 226H132L54 0H8L240 659H286L518 0H470ZM128 726L241 839H285L398 726L378 707L265 805H261L148
707L128 726Z" />
<glyph unicode="&#xc3;" glyph-name="Atilde" horiz-adv-x="526" d="M188 388L146 265H380L338 388Q318 446 300 500T265 616H261Q244 555 226 501T188 388ZM470 0L393 226H132L54 0H8L240 659H286L518 0H470ZM340 718Q301 718 278 738T234 777T186 797Q137 797
131 721L98 724Q100 770 122 802T186 834Q225 834 248 814T292 775T340 755Q385 755 395 832L428 829Q426 782 404 750T340 718Z" />
<glyph unicode="&#xc4;" glyph-name="Adieresis" horiz-adv-x="526" d="M188 388L146 265H380L338 388Q318 446 300 500T265 616H261Q244 555 226 501T188 388ZM470 0L393 226H132L54 0H8L240 659H286L518 0H470ZM361 725Q324 725 324 761Q324 798 361 798Q397
798 397 761Q397 725 361 725ZM165 725Q129 725 129 761Q129 798 165 798Q202 798 202 761Q202 725 165 725Z" />
<glyph unicode="&#xc5;" glyph-name="Aring" horiz-adv-x="526" d="M263 700Q226 700 201 723T175 785Q175 825 200 848T263 871Q299 871 325 848T351 785Q351 747 325 724T263 700ZM263 726Q286 726 302 741T319 785Q319 814 303 829T263 845Q239 845 222 830T205
785Q205 756 222 741T263 726ZM188 388L146 265H380L338 388Q318 446 300 500T265 616H261Q244 555 226 501T188 388ZM470 0L393 226H132L54 0H8L240 659H286L518 0H470Z" />
<glyph unicode="&#xc6;" glyph-name="AE" horiz-adv-x="809" d="M283 388L210 255H411V619H407Q376 564 345 506T283 388ZM411 0V217H189L70 0H21L386 659H752V619H457V370H702V330H457V40H762V0H411Z" />
<glyph unicode="&#xc7;" glyph-name="Ccedilla" horiz-adv-x="564" d="M407 -134Q407 -210 262 -219L255 -189Q320 -184 344 -171T368 -136Q368 -96 290 -85L324 -12Q205 -9 130 83T55 331Q55 488 133 579T336 671Q394 671 438 647T508 592L481 561Q454 592 418
610T337 629Q228 629 166 549T103 331Q103 194 164 112T333 30Q384 30 424 50T500 111L527 82Q493 44 453 20T360 -10L336 -65Q368 -73 387 -88T407 -134Z" />
<glyph unicode="&#xc8;" glyph-name="Egrave" horiz-adv-x="515" d="M97 0V659H458V619H143V370H407V330H143V40H468V0H97ZM303 706L170 819L198 852L323 729L303 706Z" />
<glyph unicode="&#xc9;" glyph-name="Eacute" horiz-adv-x="515" d="M97 0V659H458V619H143V370H407V330H143V40H468V0H97ZM261 706L241 729L366 852L394 819L261 706Z" />
<glyph unicode="&#xca;" glyph-name="Ecircumflex" horiz-adv-x="515" d="M97 0V659H458V619H143V370H407V330H143V40H468V0H97ZM147 726L260 839H304L417 726L397 707L284 805H280L167 707L147 726Z" />
<glyph unicode="&#xcb;" glyph-name="Edieresis" horiz-adv-x="515" d="M97 0V659H458V619H143V370H407V330H143V40H468V0H97ZM380 725Q343 725 343 761Q343 798 380 798Q416 798 416 761Q416 725 380 725ZM184 725Q148 725 148 761Q148 798 184 798Q221 798 221
761Q221 725 184 725Z" />
<glyph unicode="&#xcc;" glyph-name="Igrave" horiz-adv-x="240" d="M97 0V659H143V0H97ZM141 706L8 819L36 852L161 729L141 706Z" />
<glyph unicode="&#xcd;" glyph-name="Iacute" horiz-adv-x="240" d="M97 0V659H143V0H97ZM99 706L79 729L204 852L232 819L99 706Z" />
<glyph unicode="&#xce;" glyph-name="Icircumflex" horiz-adv-x="240" d="M97 0V659H143V0H97ZM-15 726L98 839H142L255 726L235 707L122 805H118L5 707L-15 726Z" />
<glyph unicode="&#xcf;" glyph-name="Idieresis" horiz-adv-x="240" d="M97 0V659H143V0H97ZM218 725Q181 725 181 761Q181 798 218 798Q254 798 254 761Q254 725 218 725ZM22 725Q-14 725 -14 761Q-14 798 22 798Q59 798 59 761Q59 725 22 725Z" />
<glyph unicode="&#xd0;" glyph-name="Eth" horiz-adv-x="625" d="M272 0H118V332H37V363L118 365V659H271Q423 659 496 570T570 332Q570 182 497 91T272 0ZM164 39H266Q400 39 461 121T522 332Q522 460 461 540T266 620H164V365H327V332H164V39Z" />
<glyph unicode="&#xd1;" glyph-name="Ntilde" horiz-adv-x="636" d="M97 0V659H145L423 194L497 63H501Q500 111 498 159T495 255V659H539V0H491L213 465L139 596H135Q136 549 138 503T141 409V0H97ZM400 718Q362 718 338 738T294 777T246 797Q197 797 191 721L158
724Q160 770 183 802T246 834Q284 834 308 814T352 775T400 755Q445 755 455 832L488 829Q486 782 463 750T400 718Z" />
<glyph unicode="&#xd2;" glyph-name="Ograve" horiz-adv-x="652" d="M326 -12Q208 -12 132 81T55 332Q55 488 131 579T326 671Q445 671 521 580T598 332Q598 175 522 82T326 -12ZM326 30Q426 30 487 112T549 332Q549 468 488 548T326 629Q226 629 165 549T103
332Q103 195 164 113T326 30ZM347 706L214 819L242 852L367 729L347 706Z" />
<glyph unicode="&#xd3;" glyph-name="Oacute" horiz-adv-x="652" d="M326 -12Q208 -12 132 81T55 332Q55 488 131 579T326 671Q445 671 521 580T598 332Q598 175 522 82T326 -12ZM326 30Q426 30 487 112T549 332Q549 468 488 548T326 629Q226 629 165 549T103
332Q103 195 164 113T326 30ZM305 706L285 729L410 852L438 819L305 706Z" />
<glyph unicode="&#xd4;" glyph-name="Ocircumflex" horiz-adv-x="652" d="M326 -12Q208 -12 132 81T55 332Q55 488 131 579T326 671Q445 671 521 580T598 332Q598 175 522 82T326 -12ZM326 30Q426 30 487 112T549 332Q549 468 488 548T326 629Q226 629 165 549T103
332Q103 195 164 113T326 30ZM191 726L304 839H348L461 726L441 707L328 805H324L211 707L191 726Z" />
<glyph unicode="&#xd5;" glyph-name="Otilde" horiz-adv-x="652" d="M326 -12Q208 -12 132 81T55 332Q55 488 131 579T326 671Q445 671 521 580T598 332Q598 175 522 82T326 -12ZM326 30Q426 30 487 112T549 332Q549 468 488 548T326 629Q226 629 165 549T103
332Q103 195 164 113T326 30ZM403 718Q364 718 341 738T297 777T249 797Q200 797 194 721L161 724Q163 770 185 802T249 834Q288 834 311 814T355 775T403 755Q448 755 458 832L491 829Q489 782 467 750T403 718Z" />
<glyph unicode="&#xd6;" glyph-name="Odieresis" horiz-adv-x="652" d="M326 -12Q208 -12 132 81T55 332Q55 488 131 579T326 671Q445 671 521 580T598 332Q598 175 522 82T326 -12ZM326 30Q426 30 487 112T549 332Q549 468 488 548T326 629Q226 629 165 549T103
332Q103 195 164 113T326 30ZM424 725Q387 725 387 761Q387 798 424 798Q460 798 460 761Q460 725 424 725ZM228 725Q192 725 192 761Q192 798 228 798Q265 798 265 761Q265 725 228 725Z" />
<glyph unicode="&#xd7;" glyph-name="multiply" horiz-adv-x="479" d="M78 135L52 163L213 330L52 497L78 525L239 356L401 525L427 497L266 330L427 163L401 135L239 303L78 135Z" />
<glyph unicode="&#xd8;" glyph-name="Oslash" horiz-adv-x="652" d="M84 -23L56 -1L566 682L595 660L84 -23ZM330 -12Q212 -12 136 81T59 332Q59 488 135 579T330 671Q449 671 525 580T602 332Q602 175 526 82T330 -12ZM330 30Q430 30 491 112T553 332Q553 468
492 548T330 629Q230 629 169 549T107 332Q107 195 168 113T330 30Z" />
<glyph unicode="&#xd9;" glyph-name="Ugrave" horiz-adv-x="634" d="M316 -12Q260 -12 209 11T127 92T95 253V659H141V258Q141 127 193 79T316 30Q387 30 441 78T496 258V659H539V253Q539 150 507 93T424 12T316 -12ZM338 706L205 819L233 852L358 729L338 706Z" />
<glyph unicode="&#xda;" glyph-name="Uacute" horiz-adv-x="634" d="M316 -12Q260 -12 209 11T127 92T95 253V659H141V258Q141 127 193 79T316 30Q387 30 441 78T496 258V659H539V253Q539 150 507 93T424 12T316 -12ZM296 706L276 729L401 852L429 819L296 706Z" />
<glyph unicode="&#xdb;" glyph-name="Ucircumflex" horiz-adv-x="634" d="M316 -12Q260 -12 209 11T127 92T95 253V659H141V258Q141 127 193 79T316 30Q387 30 441 78T496 258V659H539V253Q539 150 507 93T424 12T316 -12ZM182 726L295 839H339L452 726L432 707L319
805H315L202 707L182 726Z" />
<glyph unicode="&#xdc;" glyph-name="Udieresis" horiz-adv-x="634" d="M316 -12Q260 -12 209 11T127 92T95 253V659H141V258Q141 127 193 79T316 30Q387 30 441 78T496 258V659H539V253Q539 150 507 93T424 12T316 -12ZM415 725Q378 725 378 761Q378 798 415
798Q451 798 451 761Q451 725 415 725ZM219 725Q183 725 183 761Q183 798 219 798Q256 798 256 761Q256 725 219 725Z" />
<glyph unicode="&#xdd;" glyph-name="Yacute" horiz-adv-x="447" d="M200 0V267L3 659H52L152 453Q169 417 185 382T222 311H226Q245 347 263 382T297 453L397 659H444L246 267V0H200ZM202 706L182 729L307 852L335 819L202 706Z" />
<glyph unicode="&#xde;" glyph-name="Thorn" horiz-adv-x="563" d="M97 0V659H143V542H277Q387 542 449 501T512 358Q512 261 450 214T277 166H143V0H97ZM143 205H266Q366 205 415 241T465 358Q465 440 416 471T266 503H143V205Z" />
<glyph unicode="&#xdf;" glyph-name="germandbls" horiz-adv-x="542" d="M367 -12Q328 -12 294 2T231 39L253 72Q309 26 367 26Q417 26 442 56T468 125Q468 167 447 191T395 231T333 263T280 305T259 373Q259 422 283 453T332 515T357 591Q357 634 333 662T262
691Q205 691 171 649T136 517V0H92V532Q92 624 139 676T263 729Q328 729 365 690T402 595Q402 544 377 510T328 447T303 377Q303 342 324 322T376 288T439 255T492 207T513 127Q513 68 472 28T367 -12Z" />
<glyph unicode="&#xe0;" glyph-name="agrave" horiz-adv-x="491" d="M205 26Q246 26 284 46T368 104V267Q220 250 162 215T103 122Q103 70 133 48T205 26ZM197 -12Q140 -12 99 20T58 120Q58 200 133 241T368 301Q369 356 347 404T254 453Q206 453 166 434T101
397L81 430Q106 448 154 470T260 492Q345 492 378 438T412 307V0H374L370 62H367Q330 33 287 11T197 -12ZM284 574L140 725L174 754L308 597L284 574Z" />
<glyph unicode="&#xe1;" glyph-name="aacute" horiz-adv-x="491" d="M205 26Q246 26 284 46T368 104V267Q220 250 162 215T103 122Q103 70 133 48T205 26ZM197 -12Q140 -12 99 20T58 120Q58 200 133 241T368 301Q369 356 347 404T254 453Q206 453 166 434T101
397L81 430Q106 448 154 470T260 492Q345 492 378 438T412 307V0H374L370 62H367Q330 33 287 11T197 -12ZM226 574L202 597L336 754L370 725L226 574Z" />
<glyph unicode="&#xe2;" glyph-name="acircumflex" horiz-adv-x="491" d="M205 26Q246 26 284 46T368 104V267Q220 250 162 215T103 122Q103 70 133 48T205 26ZM197 -12Q140 -12 99 20T58 120Q58 200 133 241T368 301Q369 356 347 404T254 453Q206 453 166 434T101
397L81 430Q106 448 154 470T260 492Q345 492 378 438T412 307V0H374L370 62H367Q330 33 287 11T197 -12ZM117 593L234 737H276L393 593L371 572L257 698H253L139 572L117 593Z" />
<glyph unicode="&#xe3;" glyph-name="atilde" horiz-adv-x="491" d="M205 26Q246 26 284 46T368 104V267Q220 250 162 215T103 122Q103 70 133 48T205 26ZM197 -12Q140 -12 99 20T58 120Q58 200 133 241T368 301Q369 356 347 404T254 453Q206 453 166 434T101
397L81 430Q106 448 154 470T260 492Q345 492 378 438T412 307V0H374L370 62H367Q330 33 287 11T197 -12ZM331 579Q293 579 270 603T227 651T179 675Q152 675 140 648T125 582L91 584Q94 631 112 670T180 710Q217 710 240 686T284 638T332 614Q358 614 370 642T385
707L419 705Q416 658 398 619T331 579Z" />
<glyph unicode="&#xe4;" glyph-name="adieresis" horiz-adv-x="491" d="M205 26Q246 26 284 46T368 104V267Q220 250 162 215T103 122Q103 70 133 48T205 26ZM197 -12Q140 -12 99 20T58 120Q58 200 133 241T368 301Q369 356 347 404T254 453Q206 453 166 434T101
397L81 430Q106 448 154 470T260 492Q345 492 378 438T412 307V0H374L370 62H367Q330 33 287 11T197 -12ZM344 598Q307 598 307 635Q307 672 344 672Q381 672 381 635Q381 598 344 598ZM166 598Q129 598 129 635Q129 672 166 672Q203 672 203 635Q203 598 166 598Z"
/>
<glyph unicode="&#xe5;" glyph-name="aring" horiz-adv-x="491" d="M205 26Q246 26 284 46T368 104V267Q220 250 162 215T103 122Q103 70 133 48T205 26ZM197 -12Q140 -12 99 20T58 120Q58 200 133 241T368 301Q369 356 347 404T254 453Q206 453 166 434T101 397L81
430Q106 448 154 470T260 492Q345 492 378 438T412 307V0H374L370 62H367Q330 33 287 11T197 -12ZM255 548Q213 548 186 574T158 643Q158 686 185 712T255 739Q297 739 324 713T352 643Q352 601 325 575T255 548ZM255 574Q282 574 301 593T320 643Q320 675 301
694T255 713Q228 713 209 694T190 643Q190 612 209 593T255 574Z" />
<glyph unicode="&#xe6;" glyph-name="ae" horiz-adv-x="784" d="M205 -12Q148 -12 107 20T65 119Q65 199 140 241T370 301Q371 356 350 404T257 453Q212 453 173 434T109 397L89 430Q114 448 160 470T261 492Q320 492 354 460T401 372Q427 427 471 459T568 492Q652
492 699 434T746 270Q746 261 746 252T744 234H412Q412 143 461 85T583 27Q622 27 651 38T708 70L727 35Q698 18 665 3T579 -12Q514 -12 474 19T407 87Q360 41 305 15T205 -12ZM412 268H705Q705 360 669 407T567 454Q508 454 464 402T412 268ZM212 26Q251 26 300
50T391 119Q380 141 375 173T370 240L369 267Q229 250 170 215T111 122Q111 70 141 48T212 26Z" />
<glyph unicode="&#xe7;" glyph-name="ccedilla" horiz-adv-x="449" d="M270 -12Q177 -12 115 54T52 239Q52 360 117 426T271 492Q320 492 353 474T412 433L386 402Q363 424 335 438T272 453Q198 453 148 394T98 239Q98 144 145 86T272 27Q310 27 342 43T400 82L423
51Q392 24 354 6T270 -12ZM188 -219L181 -189Q246 -184 270 -171T294 -136Q294 -96 216 -85L257 2H292L262 -65Q294 -73 313 -88T333 -134Q333 -210 188 -219Z" />
<glyph unicode="&#xe8;" glyph-name="egrave" horiz-adv-x="483" d="M274 -12Q182 -12 117 54T52 239Q52 357 116 424T261 492Q346 492 395 434T445 270Q445 261 445 252T443 234H97Q98 143 147 85T278 26Q317 26 348 38T407 69L425 35Q396 18 361 3T274 -12ZM97
270H403Q403 362 365 408T262 454Q200 454 152 405T97 270ZM290 574L146 725L180 754L314 597L290 574Z" />
<glyph unicode="&#xe9;" glyph-name="eacute" horiz-adv-x="483" d="M274 -12Q182 -12 117 54T52 239Q52 357 116 424T261 492Q346 492 395 434T445 270Q445 261 445 252T443 234H97Q98 143 147 85T278 26Q317 26 348 38T407 69L425 35Q396 18 361 3T274 -12ZM97
270H403Q403 362 365 408T262 454Q200 454 152 405T97 270ZM232 574L208 597L342 754L376 725L232 574Z" />
<glyph unicode="&#xea;" glyph-name="ecircumflex" horiz-adv-x="483" d="M274 -12Q182 -12 117 54T52 239Q52 357 116 424T261 492Q346 492 395 434T445 270Q445 261 445 252T443 234H97Q98 143 147 85T278 26Q317 26 348 38T407 69L425 35Q396 18 361 3T274
-12ZM97 270H403Q403 362 365 408T262 454Q200 454 152 405T97 270ZM123 593L240 737H282L399 593L377 572L263 698H259L145 572L123 593Z" />
<glyph unicode="&#xeb;" glyph-name="edieresis" horiz-adv-x="483" d="M274 -12Q182 -12 117 54T52 239Q52 357 116 424T261 492Q346 492 395 434T445 270Q445 261 445 252T443 234H97Q98 143 147 85T278 26Q317 26 348 38T407 69L425 35Q396 18 361 3T274 -12ZM97
270H403Q403 362 365 408T262 454Q200 454 152 405T97 270ZM350 598Q313 598 313 635Q313 672 350 672Q387 672 387 635Q387 598 350 598ZM172 598Q135 598 135 635Q135 672 172 672Q209 672 209 635Q209 598 172 598Z" />
<glyph unicode="&#xec;" glyph-name="igrave" horiz-adv-x="229" d="M92 0V480H136V0H92ZM143 574L-1 725L33 754L167 597L143 574Z" />
<glyph unicode="&#xed;" glyph-name="iacute" horiz-adv-x="229" d="M92 0V480H136V0H92ZM85 574L61 597L195 754L229 725L85 574Z" />
<glyph unicode="&#xee;" glyph-name="icircumflex" horiz-adv-x="229" d="M92 0V480H136V0H92ZM-24 593L93 737H135L252 593L230 572L116 698H112L-2 572L-24 593Z" />
<glyph unicode="&#xef;" glyph-name="idieresis" horiz-adv-x="229" d="M92 0V480H136V0H92ZM203 598Q166 598 166 635Q166 672 203 672Q240 672 240 635Q240 598 203 598ZM25 598Q-12 598 -12 635Q-12 672 25 672Q62 672 62 635Q62 598 25 598Z" />
<glyph unicode="&#xf0;" glyph-name="eth" horiz-adv-x="535" d="M267 -12Q187 -12 124 49T60 219Q60 318 117 380T267 442Q357 442 415 366Q402 439 372 493T299 588L157 515L142 542L274 610Q246 634 215 654T151 694L173 724Q209 704 244 681T311 629L453 703L468
676L334 607Q394 546 432 460T470 252Q470 132 414 60T267 -12ZM267 27Q349 27 387 92T425 251Q425 283 422 313Q384 369 346 386T269 404Q188 404 146 349T104 219Q104 134 152 81T267 27Z" />
<glyph unicode="&#xf1;" glyph-name="ntilde" horiz-adv-x="532" d="M92 0V480H130L134 406H137Q174 443 213 467T302 492Q447 492 447 308V0H403V302Q403 378 378 415T293 452Q250 452 215 430T136 362V0H92ZM359 579Q321 579 298 603T254 651T207 675Q180 675
168 648T153 582L119 584Q122 631 140 670T208 710Q246 710 269 686T312 638T360 614Q386 614 398 642T413 707L447 705Q444 658 426 619T359 579Z" />
<glyph unicode="&#xf2;" glyph-name="ograve" horiz-adv-x="535" d="M267 -12Q181 -12 117 54T52 239Q52 360 116 426T267 492Q354 492 418 426T483 239Q483 120 419 54T267 -12ZM267 27Q340 27 388 85T437 239Q437 334 389 393T267 453Q194 453 146 394T98 239Q98
144 146 86T267 27ZM296 574L152 725L186 754L320 597L296 574Z" />
<glyph unicode="&#xf3;" glyph-name="oacute" horiz-adv-x="535" d="M267 -12Q181 -12 117 54T52 239Q52 360 116 426T267 492Q354 492 418 426T483 239Q483 120 419 54T267 -12ZM267 27Q340 27 388 85T437 239Q437 334 389 393T267 453Q194 453 146 394T98 239Q98
144 146 86T267 27ZM238 574L214 597L348 754L382 725L238 574Z" />
<glyph unicode="&#xf4;" glyph-name="ocircumflex" horiz-adv-x="535" d="M267 -12Q181 -12 117 54T52 239Q52 360 116 426T267 492Q354 492 418 426T483 239Q483 120 419 54T267 -12ZM267 27Q340 27 388 85T437 239Q437 334 389 393T267 453Q194 453 146 394T98
239Q98 144 146 86T267 27ZM129 593L246 737H288L405 593L383 572L269 698H265L151 572L129 593Z" />
<glyph unicode="&#xf5;" glyph-name="otilde" horiz-adv-x="535" d="M267 -12Q181 -12 117 54T52 239Q52 360 116 426T267 492Q354 492 418 426T483 239Q483 120 419 54T267 -12ZM267 27Q340 27 388 85T437 239Q437 334 389 393T267 453Q194 453 146 394T98 239Q98
144 146 86T267 27ZM343 579Q305 579 282 603T239 651T191 675Q164 675 152 648T137 582L103 584Q106 631 124 670T192 710Q229 710 252 686T296 638T344 614Q370 614 382 642T397 707L431 705Q428 658 410 619T343 579Z" />
<glyph unicode="&#xf6;" glyph-name="odieresis" horiz-adv-x="535" d="M267 -12Q181 -12 117 54T52 239Q52 360 116 426T267 492Q354 492 418 426T483 239Q483 120 419 54T267 -12ZM267 27Q340 27 388 85T437 239Q437 334 389 393T267 453Q194 453 146 394T98
239Q98 144 146 86T267 27ZM356 598Q319 598 319 635Q319 672 356 672Q393 672 393 635Q393 598 356 598ZM178 598Q141 598 141 635Q141 672 178 672Q215 672 215 635Q215 598 178 598Z" />
<glyph unicode="&#xf7;" glyph-name="divide" horiz-adv-x="479" d="M239 469Q223 469 212 480T201 510Q201 527 212 538T239 549Q277 549 277 510Q277 469 239 469ZM34 311V349H445V311H34ZM239 109Q223 109 212 120T201 150Q201 167 212 178T239 189Q277 189
277 150Q277 109 239 109Z" />
<glyph unicode="&#xf8;" glyph-name="oslash" horiz-adv-x="535" d="M97 240Q97 160 133 103L382 403Q335 454 267 454Q194 454 146 394T97 240ZM267 26Q340 26 389 85T438 238Q438 319 402 376L153 76Q200 26 267 26ZM267 -12Q185 -12 126 44L72 -22L46 -1L104
69Q80 100 66 143T52 239Q52 360 116 426T267 492Q350 492 409 436L463 501L489 480L431 411Q455 379 469 336T483 239Q483 120 419 54T267 -12Z" />
<glyph unicode="&#xf9;" glyph-name="ugrave" horiz-adv-x="529" d="M230 -12Q85 -12 85 172V480H129V178Q129 28 238 28Q281 28 316 51T393 126V480H437V0H400L395 80H393Q358 39 319 14T230 -12ZM294 574L150 725L184 754L318 597L294 574Z" />
<glyph unicode="&#xfa;" glyph-name="uacute" horiz-adv-x="529" d="M230 -12Q85 -12 85 172V480H129V178Q129 28 238 28Q281 28 316 51T393 126V480H437V0H400L395 80H393Q358 39 319 14T230 -12ZM236 574L212 597L346 754L380 725L236 574Z" />
<glyph unicode="&#xfb;" glyph-name="ucircumflex" horiz-adv-x="529" d="M230 -12Q85 -12 85 172V480H129V178Q129 28 238 28Q281 28 316 51T393 126V480H437V0H400L395 80H393Q358 39 319 14T230 -12ZM127 593L244 737H286L403 593L381 572L267 698H263L149
572L127 593Z" />
<glyph unicode="&#xfc;" glyph-name="udieresis" horiz-adv-x="529" d="M230 -12Q85 -12 85 172V480H129V178Q129 28 238 28Q281 28 316 51T393 126V480H437V0H400L395 80H393Q358 39 319 14T230 -12ZM354 598Q317 598 317 635Q317 672 354 672Q391 672 391 635Q391
598 354 598ZM176 598Q139 598 139 635Q139 672 176 672Q213 672 213 635Q213 598 176 598Z" />
<glyph unicode="&#xfd;" glyph-name="yacute" horiz-adv-x="436" d="M73 -219Q46 -219 24 -209L34 -170Q54 -178 73 -178Q117 -178 147 -142T196 -51L209 -9L12 480H60L176 178Q187 148 200 112T228 44H232Q243 76 254 112T276 178L379 480H424L234 -60Q214 -121
176 -170T73 -219ZM200 574L176 597L310 754L344 725L200 574Z" />
<glyph unicode="&#xfe;" glyph-name="thorn" horiz-adv-x="544" d="M278 27Q351 27 398 88T445 247Q445 336 411 394T293 453Q257 453 219 433T136 374V89Q177 55 213 41T278 27ZM136 46V-217H92V719H136V421Q172 449 213 470T299 492Q396 492 444 426T492 247Q492
125 429 57T280 -12Q214 -12 136 46Z" />
<glyph unicode="&#xff;" glyph-name="ydieresis" horiz-adv-x="436" d="M73 -219Q46 -219 24 -209L34 -170Q54 -178 73 -178Q117 -178 147 -142T196 -51L209 -9L12 480H60L176 178Q187 148 200 112T228 44H232Q243 76 254 112T276 178L379 480H424L234 -60Q214
-121 176 -170T73 -219ZM318 598Q281 598 281 635Q281 672 318 672Q355 672 355 635Q355 598 318 598ZM140 598Q103 598 103 635Q103 672 140 672Q177 672 177 635Q177 598 140 598Z" />
<glyph unicode="&#x2013;" glyph-name="endash" horiz-adv-x="480" d="M40 232V268H440V232H40Z" />
<glyph unicode="&#x2014;" glyph-name="emdash" horiz-adv-x="800" d="M40 232V268H760V232H40Z" />
<glyph unicode="&#x2018;" glyph-name="quoteleft" horiz-adv-x="219" d="M102 480Q58 480 58 547Q58 600 80 638T143 703L161 680Q128 653 111 626T94 556Q97 557 102 557Q117 557 129 548T142 520Q142 480 102 480Z" />
<glyph unicode="&#x2019;" glyph-name="quoteright" horiz-adv-x="219" d="M76 477L58 500Q91 527 108 554T125 624Q122 623 117 623Q103 623 91 632T78 660Q78 700 117 700Q162 700 162 633Q162 580 139 542T76 477Z" />
<glyph unicode="&#x201a;" glyph-name="quotesinglbase" horiz-adv-x="219" d="M76 -131L58 -108Q91 -81 108 -54T125 16Q122 15 117 15Q103 15 91 24T78 52Q78 92 117 92Q162 92 162 25Q162 -28 139 -66T76 -131Z" />
<glyph unicode="&#x201c;" glyph-name="quotedblleft" horiz-adv-x="360" d="M102 480Q58 480 58 547Q58 600 80 638T143 703L161 680Q128 653 111 626T94 556Q97 557 102 557Q117 557 129 548T142 520Q142 480 102 480ZM243 480Q199 480 199 547Q199 600 221
638T284 703L302 680Q269 653 252 626T235 556Q238 557 243 557Q258 557 270 548T283 520Q283 480 243 480Z" />
<glyph unicode="&#x201d;" glyph-name="quotedblright" horiz-adv-x="360" d="M76 477L58 500Q91 527 108 554T125 624Q122 623 117 623Q103 623 91 632T78 660Q78 700 117 700Q162 700 162 633Q162 580 139 542T76 477ZM217 477L199 500Q232 527 249 554T266
624Q263 623 258 623Q244 623 232 632T219 660Q219 700 258 700Q303 700 303 633Q303 580 280 542T217 477Z" />
<glyph unicode="&#x201e;" glyph-name="quotedblbase" horiz-adv-x="360" d="M76 -131L58 -108Q91 -81 108 -54T125 16Q122 15 117 15Q103 15 91 24T78 52Q78 92 117 92Q162 92 162 25Q162 -28 139 -66T76 -131ZM217 -131L199 -108Q232 -81 249 -54T266 16Q263
15 258 15Q244 15 232 24T219 52Q219 92 258 92Q303 92 303 25Q303 -28 280 -66T217 -131Z" />
<glyph unicode="&#x2022;" glyph-name="bullet" horiz-adv-x="281" d="M140 154Q102 154 71 183T40 264Q40 314 71 344T140 374Q179 374 210 344T241 264Q241 213 210 184T140 154Z" />
<glyph unicode="&#x2039;" glyph-name="guilsinglleft" horiz-adv-x="259" d="M180 72L43 233V271L180 432L205 411L82 252L205 91L180 72Z" />
<glyph unicode="&#x203a;" glyph-name="guilsinglright" horiz-adv-x="259" d="M78 72L54 91L176 252L54 411L78 432L216 271V233L78 72Z" />
</font>
</defs>
</svg>
