<?xml version="1.0" standalone="no"?>
<!DOCTYPE svg PUBLIC "-//W3C//DTD SVG 1.1//EN" "http://www.w3.org/Graphics/SVG/1.1/DTD/svg11.dtd">
<svg xmlns="http://www.w3.org/2000/svg">
<defs >
<font id="Montserrat" horiz-adv-x="603" ><font-face
    font-family="Montserrat Thin"
    units-per-em="1000"
    panose-1="0 0 3 0 0 0 0 0 0 0"
    ascent="968"
    descent="-251"
    alphabetic="0" />
<glyph unicode=" " glyph-name="space" horiz-adv-x="297" />
<glyph unicode="!" glyph-name="exclam" horiz-adv-x="193" d="M189 682L157 520L91 188H71L137 520L169 682H189ZM62 45T68 39T75 21Q75 10 67 2T47 -7Q37 -7 30 0T23 17Q23 28 31 36T51 45Q62 45 68 39Z" />
<glyph unicode="&quot;" glyph-name="quotedbl" horiz-adv-x="236" d="M168 699L130 509H110L148 699H168ZM264 699L226 509H206L244 699H264Z" />
<glyph unicode="#" glyph-name="numbersign" horiz-adv-x="680" d="M674 468H523L472 228H620V208H468L424 0H404L448 208H208L164 0H144L188 208H40V228H192L243 468H94L95 488H247L292 699H312L267 488H507L552 699H572L527 488H675L674 468ZM452 228L503 468H263L212
228H452Z" />
<glyph unicode="$" glyph-name="dollar" horiz-adv-x="591" d="M255 682T196 645T130 546Q129 539 129 527Q129 480 153 451T212 406T307 370Q370 349 407 331T471 280T497 193Q497 177 496 168Q489 90 419 44T240 -3H231L209 -119H189L211 -2Q151 4 97 29T8 95L24
110Q60 67 119 42T242 17Q342 17 405 58T476 168Q477 175 477 189Q477 237 453 267T393 314T297 351Q235 371 198 388T134 439T108 525Q108 539 109 546Q116 617 181 659T350 702H351L371 804H391L371 701Q415 699 458 686T533 651L521 635Q490 657 443 669T348
682Q255 682 196 645Z" />
<glyph unicode="%" glyph-name="percent" horiz-adv-x="1170" d="M220 288T182 332T143 459Q143 568 191 636T332 704Q405 704 444 660T483 532Q483 424 434 356T292 288Q220 288 182 332ZM377 306T419 369T461 532Q461 607 428 646T332 686Q248 686 206 622T164
459Q164 385 197 346T292 306Q377 306 419 369ZM332 0H310L848 699H870L332 0ZM801 -5T763 39T724 166Q724 275 772 343T913 411Q986 411 1025 367T1064 239Q1064 131 1015 63T873 -5Q801 -5 763 39ZM958 13T1000 76T1042 239Q1042 314 1009 353T913 393Q829 393
787 329T745 166Q745 92 778 53T873 13Q958 13 1000 76Z" />
<glyph unicode="&amp;" glyph-name="ampersand" horiz-adv-x="638" d="M567 0L459 126Q345 0 227 0Q175 0 134 21T69 79T45 164Q45 217 72 257T142 327T248 389Q213 440 202 472T190 542Q190 585 213 621T275 678T362 699Q420 699 453 669T486 587Q486 539 458
503T390 441T279 381Q341 298 460 158Q512 221 563 312L580 298Q528 207 473 142L582 13L567 0ZM210 505T220 477T266 398Q335 432 373 456T439 512T466 588Q466 631 439 655T362 679Q320 679 285 661T230 611T210 541Q210 505 220 477ZM339 20T446 142Q311 302
260 371Q199 340 158 313T91 249T65 162Q65 100 110 60T227 20Q339 20 446 142Z" />
<glyph unicode="&apos;" glyph-name="quotesingle" horiz-adv-x="140" d="M168 699L130 509H110L148 699H168Z" />
<glyph unicode="(" glyph-name="parenleft" horiz-adv-x="275" d="M261 660T210 548T132 307Q112 204 112 117Q112 -24 159 -124H139Q93 -26 93 117Q93 214 113 311Q138 438 189 549T312 742H332Q261 660 210 548Z" />
<glyph unicode=")" glyph-name="parenright" horiz-adv-x="276" d="M35 -42T86 70T164 311Q184 414 184 501Q184 642 137 742H157Q203 644 203 501Q203 404 183 307Q158 180 107 69T-16 -124H-36Q35 -42 86 70Z" />
<glyph unicode="*" glyph-name="asterisk" horiz-adv-x="321" d="M337 515L236 574V457H218V574L117 515L108 532L208 590L108 648L117 665L218 606V723H236V606L337 665L346 648L245 590L346 532L337 515Z" />
<glyph unicode="+" glyph-name="plus" horiz-adv-x="480" d="M454 330L450 310H260L222 120H202L240 310H50L54 330H244L282 520H302L264 330H454Z" />
<glyph unicode="," glyph-name="comma" horiz-adv-x="163" d="M47 45T54 39T61 22Q61 11 51 -7L-1 -110H-21L26 -6Q19 -5 14 2T9 17Q9 28 17 36T37 45Q47 45 54 39Z" />
<glyph unicode="-" glyph-name="hyphen" horiz-adv-x="357" d="M297 310L293 290H76L80 310H297Z" />
<glyph unicode="." glyph-name="period" horiz-adv-x="171" d="M51 45T57 39T64 21Q64 10 56 2T36 -7Q26 -7 19 0T12 17Q12 28 20 36T40 45Q51 45 57 39Z" />
<glyph unicode="/" glyph-name="slash" horiz-adv-x="348" d="M405 826L-1 -130H-22L384 826H405Z" />
<glyph unicode="0" glyph-name="zero" horiz-adv-x="845" d="M616 701T672 635T729 445Q729 313 687 212T564 54T372 -2Q265 -2 209 64T152 254Q152 386 194 487T317 644T508 701Q616 701 672 635ZM401 681T326 628T212 479T172 258Q172 143 224 81T375 18Q478
18 553 71T669 220T709 441Q709 556 657 618T504 681Q401 681 326 628Z" />
<glyph unicode="1" glyph-name="one" horiz-adv-x="447" d="M141 699H347L211 0H192L324 679H137L141 699Z" />
<glyph unicode="2" glyph-name="two" horiz-adv-x="653" d="M60 20H520L516 0H36L43 29L386 328Q548 468 548 562Q548 618 506 649T386 681Q332 681 274 659T168 596L157 610Q208 653 270 677T390 701Q474 701 521 665T569 565Q569 464 397 314L60 20Z" />
<glyph unicode="3" glyph-name="three" horiz-adv-x="668" d="M602 681L270 394H319Q427 394 489 353T551 238Q551 170 513 116T404 30T245 -2Q186 -2 131 14T35 57L50 73Q87 48 140 33T249 18Q332 18 396 46T495 124T530 233Q530 302 475 338T316 374H238L241
392L575 679H187L191 699H606L602 681Z" />
<glyph unicode="4" glyph-name="four" horiz-adv-x="667" d="M583 228L579 208H458L418 0H398L438 208H72L77 233L459 699H482L97 228H442L486 452H506L462 228H583Z" />
<glyph unicode="5" glyph-name="five" horiz-adv-x="717" d="M272 679L216 389Q259 402 305 409T388 417Q485 417 541 373T597 254Q597 181 560 123T456 31T305 -2Q249 -2 190 16T86 66L99 82Q142 53 199 36T308 18Q386 18 447 48T542 131T577 250Q577 317 525
357T384 397Q343 397 290 387T190 361L256 699H659L655 679H272Z" />
<glyph unicode="6" glyph-name="six" horiz-adv-x="758" d="M268 -2T209 62T150 245Q150 371 193 475T312 640T477 701Q523 701 574 687T670 647L657 629Q619 653 571 667T479 681Q394 681 328 631T221 485T169 259Q199 343 266 390T423 437Q520 437 575 389T630
256Q630 181 598 123T509 31T379 -2Q268 -2 209 62ZM443 19T496 49T579 132T609 254Q609 329 560 373T425 417Q359 417 302 387T212 306T178 196Q178 145 203 105T273 42T375 19Q443 19 496 49Z" />
<glyph unicode="7" glyph-name="seven" horiz-adv-x="642" d="M166 699H659L654 674L181 0H159L637 679H182L160 567H140L166 699Z" />
<glyph unicode="8" glyph-name="eight" horiz-adv-x="767" d="M557 701T605 665T653 564Q653 493 610 446T487 376Q550 360 585 322T620 226Q620 157 585 106T484 26T334 -2Q234 -2 179 40T123 160Q123 244 177 299T326 376Q276 392 249 425T222 506Q222 565 253
609T340 677T470 701Q557 701 605 665ZM365 681T304 634T243 508Q243 450 286 417T408 383Q510 383 571 430T632 558Q632 615 589 648T466 681Q365 681 304 634ZM327 363T268 339T176 270T143 166Q143 97 194 58T337 18Q415 18 474 43T566 115T599 222Q599 287
548 325T404 363Q327 363 268 339Z" />
<glyph unicode="9" glyph-name="nine" horiz-adv-x="757" d="M174 46T222 32T314 18Q399 18 465 68T572 214T624 440Q594 356 527 309T370 262Q273 262 218 310T163 443Q163 518 195 576T284 668T414 701Q525 701 584 637T643 454Q643 328 600 224T481 59T316
-2Q270 -2 219 12T123 52L136 70Q174 46 222 32ZM350 680T297 650T214 567T184 445Q184 370 233 326T368 282Q434 282 491 312T581 393T615 503Q615 554 590 594T520 657T418 680Q350 680 297 650Z" />
<glyph unicode=":" glyph-name="colon" horiz-adv-x="172" d="M111 342T117 336T124 318Q124 307 116 299T96 290Q86 290 79 297T72 314Q72 325 80 333T100 342Q111 342 117 336ZM52 45T58 39T65 21Q65 10 57 2T37 -7Q27 -7 20 0T13 17Q13 28 21 36T41 45Q52 45 58 39Z" />
<glyph unicode=";" glyph-name="semicolon" horiz-adv-x="163" d="M100 342T106 336T113 318Q113 307 105 299T85 290Q75 290 68 297T61 314Q61 325 69 333T89 342Q100 342 106 336ZM47 45T54 39T61 22Q61 11 51 -7L-1 -110H-21L26 -6Q19 -5 14 2T9 17Q9 28 17
36T37 45Q47 45 54 39Z" />
<glyph unicode="&lt;" glyph-name="less" horiz-adv-x="480" d="M493 527L489 504L73 327L418 150L414 129L51 315L56 341L493 527Z" />
<glyph unicode="=" glyph-name="equal" horiz-adv-x="480" d="M474 430L470 410H70L74 430H474ZM434 230L430 210H30L34 230H434Z" />
<glyph unicode="&gt;" glyph-name="greater" horiz-adv-x="481" d="M15 129L19 152L435 329L90 506L94 527L457 341L452 315L15 129Z" />
<glyph unicode="?" glyph-name="question" horiz-adv-x="398" d="M74 603T123 641T249 679Q324 679 367 642T411 539Q411 502 398 472T364 418T311 361Q265 315 242 282T218 206H198Q199 253 223 288T294 370Q343 419 367 455T391 540Q391 597 354 628T249 659Q180
659 137 627T84 534L64 536Q74 603 123 641ZM193 45T199 39T206 21Q206 10 198 2T178 -7Q168 -7 161 0T154 17Q154 28 162 36T182 45Q193 45 199 39Z" />
<glyph unicode="@" glyph-name="at" horiz-adv-x="1010" d="M688 721T776 673T914 536T963 334Q963 240 937 160T867 32T770 -16Q733 -16 712 8T691 73Q691 86 692 93L700 159Q662 88 595 47T447 6Q382 6 332 33T255 110T227 224Q227 307 266 376T371 486T518
527Q598 527 654 486T730 372L752 525H772L712 95Q710 81 710 74Q710 41 726 23T773 4Q817 4 856 50T920 171T944 332Q944 441 898 524T767 654T573 701Q436 701 320 633T136 448T68 195Q68 91 114 11T244 -113T437 -158Q479 -158 531 -146T622 -114L628 -132Q591
-152 537 -165T436 -178Q322 -178 234 -131T97 0T48 194Q48 338 118 459T309 650T573 721Q688 721 776 673ZM444 507T382 469T283 367T246 226Q246 167 271 122T342 51T448 26Q521 26 583 64T682 166T719 306Q719 365 694 411T622 482T517 507Q444 507 382 469Z"
/>
<glyph unicode="A" glyph-name="A" horiz-adv-x="686" d="M601 0L538 213H114L-18 0H-42L394 699H416L624 0H601ZM126 233H532L401 676L126 233Z" />
<glyph unicode="B" glyph-name="B" horiz-adv-x="733" d="M574 356T611 318T649 220Q649 118 571 59T357 0H76L216 699H497Q584 699 631 662T679 559Q679 482 633 430T505 364Q574 356 611 318ZM171 372H431Q537 372 598 421T659 554Q659 614 616 646T493 679H232L171
372ZM487 20T558 72T629 216Q629 282 577 317T428 353H167L100 20H361Q487 20 558 72Z" />
<glyph unicode="C" glyph-name="C" horiz-adv-x="732" d="M532 703T591 679T695 612L681 599Q639 640 583 662T463 684Q370 684 288 639T152 518T90 350Q88 328 88 318Q88 235 128 166T239 56T395 16Q460 16 521 38T631 102L644 89Q590 45 526 21T395 -3Q304 -3
229 39T112 156T69 318Q69 328 71 352Q80 447 136 527T280 655T463 703Q532 703 591 679Z" />
<glyph unicode="D" glyph-name="D" horiz-adv-x="812" d="M562 699T632 660T743 553T783 401Q783 372 779 348Q765 254 705 174T555 47T369 0H77L216 699H474Q562 699 632 660ZM764 382T764 397Q764 476 726 540T622 642T471 679H232L101 20H372Q463 20 547 64T689
184T760 350Q764 382 764 397Z" />
<glyph unicode="E" glyph-name="E" horiz-adv-x="644" d="M649 679H232L170 370H541L537 350H166L100 20H531L527 0H76L216 699H653L649 679Z" />
<glyph unicode="F" glyph-name="F" horiz-adv-x="545" d="M619 679H232L165 343H506L502 323H161L96 0H76L216 699H623L619 679Z" />
<glyph unicode="G" glyph-name="G" horiz-adv-x="775" d="M662 343H682L632 89Q577 44 519 21T395 -3Q304 -3 229 39T112 156T69 318Q69 328 71 352Q80 447 136 527T280 655T463 703Q532 703 591 679T695 612L681 599Q639 640 583 662T463 684Q370 684 288 639T152
518T90 350Q88 328 88 318Q88 235 128 166T239 56T395 16Q512 16 614 97L662 343Z" />
<glyph unicode="H" glyph-name="H" horiz-adv-x="931" d="M805 699H825L685 0H665L734 343H231L162 0H142L282 699H302L235 363H738L805 699Z" />
<glyph unicode="I" glyph-name="I" horiz-adv-x="276" d="M235 699L95 0H75L215 699H235Z" />
<glyph unicode="J" glyph-name="J" horiz-adv-x="459" d="M437 699L337 197Q317 102 263 51T125 0Q74 0 34 25T-29 98L-12 112Q10 67 46 44T129 20Q203 20 251 65T317 197L413 679H151L155 699H437Z" />
<glyph unicode="K" glyph-name="K" horiz-adv-x="670" d="M706 699L353 384L588 0H564L337 370L134 189L96 0H76L216 699H236L140 222L676 699H706Z" />
<glyph unicode="L" glyph-name="L" horiz-adv-x="491" d="M100 20H413L409 0H76L216 699H236L100 20Z" />
<glyph unicode="M" glyph-name="M" horiz-adv-x="938" d="M858 699H893L757 0H737L868 681L434 77H432L231 680L99 0H79L215 699H250L442 120L858 699Z" />
<glyph unicode="N" glyph-name="N" horiz-adv-x="799" d="M739 699H759L619 0H589L232 679L96 0H76L216 699H246L603 20L739 699Z" />
<glyph unicode="O" glyph-name="O" horiz-adv-x="822" d="M554 703T629 661T748 545T791 383Q791 371 789 349Q780 255 723 174T579 45T395 -3Q304 -3 229 39T112 156T69 318Q69 328 71 352Q80 447 136 527T280 655T463 703Q554 703 629 661ZM371 683T289 638T153
517T91 350Q89 328 89 318Q89 235 129 166T239 57T395 17Q487 17 570 62T706 184T769 351Q771 373 771 383Q771 465 731 534T620 643T463 683Q371 683 289 638Z" />
<glyph unicode="P" glyph-name="P" horiz-adv-x="675" d="M563 699T621 652T680 517Q680 433 642 371T531 274T361 240H144L96 0H76L216 699H453Q563 699 621 652ZM456 260T522 291T624 378T660 512Q660 592 606 635T449 679H232L148 260H365Q456 260 522 291Z" />
<glyph unicode="Q" glyph-name="Q" horiz-adv-x="826" d="M808 -48Q728 -124 648 -124Q549 -124 433 -1Q407 -3 395 -3Q304 -3 229 39T112 156T69 318Q69 328 71 352Q80 447 136 527T280 655T463 703Q554 703 629 661T748 545T791 383Q791 371 789 349Q781 265
734 191T614 67T457 2Q511 -52 557 -78T648 -105Q718 -105 794 -34L808 -48ZM89 328T89 318Q89 235 129 166T239 57T395 17Q487 17 570 62T706 184T769 351Q771 373 771 383Q771 465 731 534T620 643T463 683Q371 683 289 638T153 517T91 350Q89 328 89 318Z" />
<glyph unicode="R" glyph-name="R" horiz-adv-x="725" d="M680 411T619 340T449 248L580 0H555L426 244Q399 240 361 240H144L96 0H76L216 699H453Q563 699 621 652T680 517Q680 411 619 340ZM456 260T522 291T624 378T660 512Q660 592 606 635T449 679H232L148
260H365Q456 260 522 291Z" />
<glyph unicode="S" glyph-name="S" horiz-adv-x="591" d="M400 706T450 692T534 655L522 639Q491 661 444 673T349 686Q256 686 197 649T131 549Q130 542 130 529Q130 482 154 453T213 407T308 371Q372 349 409 331T472 280T498 193Q498 185 496 167Q489 88 419
41T240 -6Q174 -6 111 21T8 93L24 108Q60 65 119 40T242 14Q342 14 405 55T476 167Q477 175 477 189Q477 237 453 267T394 314T298 351Q235 372 198 389T135 440T109 527Q109 541 110 549Q117 620 182 663T351 706Q400 706 450 692Z" />
<glyph unicode="T" glyph-name="T" horiz-adv-x="526" d="M601 699L597 679H357L221 0H201L337 679H97L101 699H601Z" />
<glyph unicode="U" glyph-name="U" horiz-adv-x="774" d="M669 284Q642 147 559 74T345 0Q232 0 170 54T107 210Q107 242 115 284L198 699H218L135 284Q128 249 128 215Q128 122 186 71T349 20Q470 20 546 88T649 284L732 699H752L669 284Z" />
<glyph unicode="V" glyph-name="V" horiz-adv-x="626" d="M680 699H704L296 0H274L98 699H121L289 23L680 699Z" />
<glyph unicode="W" glyph-name="W" horiz-adv-x="987" d="M1042 699H1065L712 0H691L577 670L240 0H219L98 699H120L234 22L570 699H592L706 24L1042 699Z" />
<glyph unicode="X" glyph-name="X" horiz-adv-x="628" d="M630 699L331 362L533 0H509L316 346L10 0H-14L307 362L121 699H145L322 379L606 699H630Z" />
<glyph unicode="Y" glyph-name="Y" horiz-adv-x="606" d="M684 699L333 270L287 0H267L312 267L98 699H122L325 289L660 699H684Z" />
<glyph unicode="Z" glyph-name="Z" horiz-adv-x="660" d="M669 699L665 674L34 20H560L556 0H10L14 25L645 679H136L140 699H669Z" />
<glyph unicode="[" glyph-name="bracketleft" horiz-adv-x="284" d="M353 742L349 722H220L54 -104H183L179 -124H30L204 742H353Z" />
<glyph unicode="\" glyph-name="backslash" horiz-adv-x="658" d="M87 826H108L514 -130H493L87 826Z" />
<glyph unicode="]" glyph-name="bracketright" horiz-adv-x="285" d="M-48 -124L-44 -104H85L251 722H122L126 742H275L101 -124H-48Z" />
<glyph unicode="^" glyph-name="asciicircum" horiz-adv-x="478" d="M412 128H390L290 509L36 128H14L280 528H306L412 128Z" />
<glyph unicode="_" glyph-name="underscore" horiz-adv-x="537" d="M449 -184L445 -204H-92L-88 -184H449Z" />
<glyph unicode="`" glyph-name="grave" horiz-adv-x="345" d="M199 739L335 629L309 624L180 729L199 739Z" />
<glyph unicode="a" glyph-name="a" horiz-adv-x="671" d="M215 -2T163 26T81 106T51 224Q51 305 88 372T190 479T330 519Q418 519 480 470T557 340L592 517H612L509 0H489L515 128Q476 66 415 32T282 -2Q215 -2 163 26ZM354 18T413 54T506 153T541 290Q541 351
514 398T439 472T328 499Q258 499 199 463T106 364T71 227Q71 166 98 119T173 45T284 18Q354 18 413 54Z" />
<glyph unicode="b" glyph-name="b" horiz-adv-x="676" d="M461 519T513 491T595 411T625 293Q625 212 588 145T486 38T346 -2Q258 -2 196 47T119 177L84 0H64L212 742H232L161 389Q200 451 261 485T394 519Q461 519 513 491ZM322 499T263 463T170 364T135 227Q135
166 162 119T237 45T348 18Q418 18 477 54T570 153T605 290Q605 351 578 398T503 472T392 499Q322 499 263 463Z" />
<glyph unicode="c" glyph-name="c" horiz-adv-x="577" d="M214 0T163 30T82 113T53 234Q53 314 90 378T191 480T331 517Q382 517 425 499T500 448L486 434Q423 497 329 497Q258 497 199 464T106 370T72 235Q72 172 98 123T172 47T282 20Q335 20 381 39T463 95L475
81Q437 42 387 21T280 0Q214 0 163 30Z" />
<glyph unicode="d" glyph-name="d" horiz-adv-x="676" d="M215 -2T163 26T81 106T51 224Q51 305 88 372T190 479T330 519Q418 519 480 470T557 340L637 742H657L509 0H489L515 128Q476 66 415 32T282 -2Q215 -2 163 26ZM354 18T413 54T506 153T541 290Q541 351
514 398T439 472T328 499Q258 499 199 463T106 364T71 227Q71 166 98 119T173 45T284 18Q354 18 413 54Z" />
<glyph unicode="e" glyph-name="e" horiz-adv-x="592" d="M74 259Q73 251 73 235Q73 172 99 123T172 47T280 20Q336 20 385 39T470 95L483 81Q444 42 391 21T278 0Q212 0 161 30T82 113T53 234Q53 314 90 378T190 480T329 517Q395 517 444 489T519 409T545 291Q545
270 544 259H74ZM263 497T210 470T121 393T76 279H526Q528 377 475 437T327 497Q263 497 210 470Z" />
<glyph unicode="f" glyph-name="f" horiz-adv-x="296" d="M402 752T439 728L427 712Q394 732 360 732Q306 732 261 691T204 589L188 507H355L351 487H184L86 0H66L163 487H98L102 507H167L184 591Q193 635 218 672T280 730T355 752Q402 752 439 728Z" />
<glyph unicode="g" glyph-name="g" horiz-adv-x="629" d="M154 -191T103 -169T9 -102L24 -90Q62 -131 110 -151T222 -173Q319 -174 384 -122T468 24L493 151Q456 93 398 61T273 29Q210 29 161 56T83 131T55 242Q55 318 90 381T186 482T319 519Q402 519 460 474T533
352L566 517H586L488 22Q468 -80 398 -137T222 -193Q154 -191 103 -169ZM342 49T397 83T485 175T518 303Q518 361 493 405T422 474T317 499Q251 499 196 465T108 373T75 245Q75 188 100 144T171 74T276 49Q342 49 397 83Z" />
<glyph unicode="h" glyph-name="h" horiz-adv-x="652" d="M486 517T530 478T575 366Q575 342 569 313L507 0H487L549 313Q554 341 554 362Q554 427 515 462T403 497Q302 495 231 434T138 266L86 0H66L212 742H232L159 368Q197 438 260 476T403 517Q486 517 530 478Z" />
<glyph unicode="i" glyph-name="i" horiz-adv-x="241" d="M182 517L79 0H59L162 517H182ZM216 692T222 686T228 670Q228 658 218 649T196 640Q187 640 181 646T175 662Q175 674 185 683T207 692Q216 692 222 686Z" />
<glyph unicode="j" glyph-name="j" horiz-adv-x="230" d="M-109 -171T-80 -173Q-32 -174 0 -138T47 -30L156 517H176L67 -32Q51 -112 15 -152T-78 -193Q-110 -193 -140 -179L-130 -162Q-109 -171 -80 -173ZM210 692T216 686T222 670Q222 658 212 649T190 640Q181
640 175 646T169 662Q169 674 179 683T201 692Q210 692 216 686Z" />
<glyph unicode="k" glyph-name="k" horiz-adv-x="539" d="M544 517L307 317L471 0H447L290 302L115 154L84 0H64L212 742H232L121 185L516 517H544Z" />
<glyph unicode="l" glyph-name="l" horiz-adv-x="251" d="M232 742L84 0H64L212 742H232Z" />
<glyph unicode="m" glyph-name="m" horiz-adv-x="1067" d="M901 517T945 478T990 366Q990 342 984 313L922 0H902L964 313Q969 341 969 362Q969 426 930 461T818 497Q721 495 653 440T558 289L501 0H481L543 313Q548 341 548 362Q548 426 509 461T397 497Q294
495 223 433T132 266L80 0H60L162 517H182L153 368Q191 438 254 476T397 517Q481 517 525 476T568 359Q606 434 670 474T818 517Q901 517 945 478Z" />
<glyph unicode="n" glyph-name="n" horiz-adv-x="646" d="M480 517T524 478T569 366Q569 342 563 313L501 0H481L543 313Q548 341 548 362Q548 427 509 462T397 497Q296 495 225 434T132 266L80 0H60L162 517H182L153 368Q191 438 254 476T397 517Q480 517 524 478Z" />
<glyph unicode="o" glyph-name="o" horiz-adv-x="611" d="M397 517T448 487T529 404T558 284Q558 204 521 139T420 37T280 0Q214 0 163 30T82 113T53 234Q53 314 90 378T191 480T331 517Q397 517 448 487ZM258 497T200 464T107 370T73 235Q73 172 99 123T172 47T282
20Q353 20 411 53T504 147T538 283Q538 345 512 394T439 470T329 497Q258 497 200 464Z" />
<glyph unicode="p" glyph-name="p" horiz-adv-x="676" d="M461 519T513 491T595 411T625 293Q625 212 588 145T486 38T346 -2Q258 -2 196 47T119 177L45 -194H25L167 517H187L161 389Q200 451 261 485T394 519Q461 519 513 491ZM322 499T263 463T170 364T135 227Q135
166 162 119T237 45T348 18Q418 18 477 54T570 153T605 290Q605 351 578 398T503 472T392 499Q322 499 263 463Z" />
<glyph unicode="q" glyph-name="q" horiz-adv-x="675" d="M215 -2T163 26T81 106T51 224Q51 305 88 372T190 479T330 519Q418 519 480 470T557 340L592 517H612L470 -194H450L515 128Q476 66 415 32T282 -2Q215 -2 163 26ZM354 18T413 54T506 153T541 290Q541
351 514 398T439 472T328 499Q258 499 199 463T106 364T71 227Q71 166 98 119T173 45T284 18Q354 18 413 54Z" />
<glyph unicode="r" glyph-name="r" horiz-adv-x="339" d="M191 443T248 479T379 517L377 497Q290 495 227 439T136 284L79 0H59L162 517H182L154 377Q191 443 248 479Z" />
<glyph unicode="s" glyph-name="s" horiz-adv-x="447" d="M136 -10T81 15T-5 85L11 99Q42 58 92 36T204 13Q272 13 316 46T360 135Q360 176 328 200T230 252Q182 273 154 288T107 328T87 387Q87 451 134 487T255 524Q346 524 419 470L406 454Q379 477 340 489T252
502Q188 502 148 473T108 390Q108 349 140 326T238 275Q286 255 314 240T362 199T382 139Q382 71 331 31T202 -10Q136 -10 81 15Z" />
<glyph unicode="t" glyph-name="t" horiz-adv-x="363" d="M123 141Q118 113 118 95Q118 20 184 20Q237 20 285 53L295 37Q239 0 185 0Q142 0 120 23T98 92Q98 115 104 143L173 487H96L100 507H177L201 630H221L196 507H378L374 487H192L123 141Z" />
<glyph unicode="u" glyph-name="u" horiz-adv-x="646" d="M166 0T122 39T77 151Q77 176 83 204L145 517H165L103 204Q98 176 98 155Q98 90 137 55T249 20Q350 22 421 83T514 251L566 517H586L484 0H464L493 149Q455 79 392 41T249 0Q166 0 122 39Z" />
<glyph unicode="v" glyph-name="v" horiz-adv-x="456" d="M508 517L193 0H171L62 517H85L186 23L484 517H508Z" />
<glyph unicode="w" glyph-name="w" horiz-adv-x="818" d="M870 517L570 0H548L462 489L178 0H156L62 517H86L173 23L454 517H478L565 23L847 517H870Z" />
<glyph unicode="x" glyph-name="x" horiz-adv-x="489" d="M121 517L247 284L467 517H491L257 268L402 0H377L241 251L4 0H-21L232 268L97 517H121Z" />
<glyph unicode="y" glyph-name="y" horiz-adv-x="456" d="M508 517L148 -76Q113 -133 73 -163T-9 -194Q-64 -194 -98 -168L-86 -151Q-57 -174 -11 -174Q27 -174 64 -146T133 -67L173 -2L62 517H85L188 23L484 517H508Z" />
<glyph unicode="z" glyph-name="z" horiz-adv-x="510" d="M503 516L498 491L34 20L411 19L407 -1L10 0L15 25L479 496L118 497L122 517L503 516Z" />
<glyph unicode="{" glyph-name="braceleft" horiz-adv-x="318" d="M189 353T176 333T140 307Q154 301 161 290T168 259Q168 252 164 226L114 -24Q112 -32 112 -46Q112 -77 134 -91T205 -106L201 -126H196Q143 -126 117 -108T91 -53Q91 -41 94 -24L144 226Q147
241 147 253Q147 298 103 298H84L88 318H107Q161 318 176 390L226 640Q236 692 271 717T370 742H375L371 722Q315 722 285 702T246 640L196 390Q189 353 176 333Z" />
<glyph unicode="|" glyph-name="bar" horiz-adv-x="221" d="M234 824L43 -129H23L214 824H234Z" />
<glyph unicode="}" glyph-name="braceright" horiz-adv-x="318" d="M150 265T163 285T199 311Q185 317 178 328T171 359Q171 366 175 392L225 642Q227 650 227 664Q227 695 205 709T134 724L138 744H143Q196 744 222 726T248 671Q248 659 245 642L195 392Q192
377 192 365Q192 320 236 320H255L251 300H232Q178 300 163 228L113 -22Q103 -74 68 -99T-31 -124H-36L-32 -104Q24 -104 54 -84T93 -22L143 228Q150 265 163 285Z" />
<glyph unicode="~" glyph-name="asciitilde" horiz-adv-x="480" d="M189 360T208 351T254 324Q279 307 296 299T330 290Q355 290 373 306T396 350H416Q408 312 386 291T330 270Q307 270 287 280T241 308Q215 325 201 332T169 340Q145 340 129 325T107 280H87Q95
318 116 339T169 360Q189 360 208 351Z" />
<glyph unicode="&#xa0;" glyph-name="uni00A0" horiz-adv-x="297" />
<glyph unicode="&#xa1;" glyph-name="exclamdown" horiz-adv-x="193" d="M133 471T126 478T119 495Q119 506 127 514T147 523Q158 523 164 517T171 499Q171 488 163 480T143 471Q133 471 126 478ZM5 -166L37 -4L103 328H123L57 -4L25 -166H5Z" />
<glyph unicode="&#xa2;" glyph-name="cent" horiz-adv-x="577" d="M258 497T199 464T106 370T72 235Q72 172 98 123T172 47T282 20Q335 20 381 39T463 95L475 81Q437 42 387 21T280 0Q262 0 253 1L224 -139H204L234 4Q152 19 103 81T53 234Q53 314 90 378T191
480T331 517H333L360 654H380L353 516Q441 509 500 448L486 434Q423 497 329 497Q258 497 199 464Z" />
<glyph unicode="&#xa3;" glyph-name="sterling" horiz-adv-x="532" d="M455 699T495 674T560 600L543 588Q521 633 486 656T404 679Q330 679 281 633T214 501L184 350H375L371 330H180L118 20H434L430 0H0L4 20H98L160 330H66L70 350H164L195 503Q214 598 267
648T404 699Q455 699 495 674Z" />
<glyph unicode="&#xa4;" glyph-name="currency" horiz-adv-x="845" d="M717 263T696 214T637 129L745 20L731 6L622 115Q584 82 536 64T434 46Q381 46 334 64T247 116L137 6L123 20L232 130Q195 167 175 215T154 316Q154 370 174 418T232 505L123 615L137 629L247
519Q286 552 333 570T434 589Q487 589 535 571T622 520L731 629L745 615L637 506Q675 468 696 419T717 316Q717 263 696 214ZM174 249T209 192T304 100T434 66Q505 66 565 100T661 191T697 316Q697 384 662 442T566 535T434 569Q364 569 304 535T209 443T174 316Q174
249 209 192Z" />
<glyph unicode="&#xa5;" glyph-name="yen" horiz-adv-x="606" d="M684 699L340 278H543L539 258H331L316 168H526L522 148H313L288 0H268L293 148H80L84 168H296L311 258H97L101 278H309L99 699H123L325 290L660 699H684Z" />
<glyph unicode="&#xa6;" glyph-name="brokenbar" horiz-adv-x="221" d="M234 824L163 471H143L214 824H234ZM114 224L43 -129H23L94 224H114Z" />
<glyph unicode="&#xa7;" glyph-name="section" horiz-adv-x="437" d="M118 -77T66 -53T-19 14L-2 27Q27 -13 74 -35T178 -57Q248 -57 292 -24T336 61Q336 99 305 122T211 172Q164 192 137 207T90 246T71 304Q71 367 120 401T255 432Q187 459 156 489T124 559Q124
617 168 652T285 687Q381 687 445 634L430 620Q406 643 367 655T282 668Q219 668 181 639T143 560Q143 532 160 513T201 480T270 447Q315 428 342 413T389 374T408 318Q408 279 388 246T332 194T254 175Q306 152 330 125T355 62Q355 22 333 -9T271 -59T181 -77Q118
-77 66 -53ZM307 194T347 228T388 313Q388 359 346 386T232 414Q169 414 131 387T92 316Q92 285 114 257T172 211T248 194Q307 194 347 228Z" />
<glyph unicode="&#xa8;" glyph-name="dieresis" horiz-adv-x="504" d="M273 692T279 686T285 670Q285 658 275 649T253 640Q244 640 238 646T232 662Q232 674 242 683T264 692Q273 692 279 686ZM423 692T429 686T435 670Q435 658 425 649T403 640Q394 640 388
646T382 662Q382 674 392 683T414 692Q423 692 429 686Z" />
<glyph unicode="&#xa9;" glyph-name="copyright" horiz-adv-x="790" d="M507 689T584 644T707 520T752 350Q752 259 707 181T584 56T412 9Q319 9 242 55T120 179T75 348Q75 439 120 517T242 642T414 689Q507 689 584 644ZM325 669T252 626T137 509T95 348Q95 261
137 188T251 72T412 29Q501 29 574 72T689 189T732 350Q732 437 690 510T575 626T414 669Q325 669 252 626ZM453 531T486 518T546 482L533 468Q484 511 418 511Q372 511 334 489T273 430T250 349Q250 305 272 268T333 208T418 186Q450 186 479 197T533 229L546
216Q520 192 487 179T417 166Q366 166 323 190T255 257T230 349Q230 398 255 440T324 506T418 531Q453 531 486 518Z" />
<glyph unicode="&#xaa;" glyph-name="ordfeminine" horiz-adv-x="373" d="M333 760T359 740T385 682Q385 671 382 657L344 458H324L336 523Q284 458 200 458Q158 458 133 478T107 531Q107 535 109 547Q117 584 147 604T231 624H356L362 658Q364 672 364 679Q364
709 344 725T284 741Q230 741 166 701L158 717Q228 760 287 760Q333 760 359 740ZM353 608H231Q141 608 129 544Q128 539 128 530Q128 504 147 490T199 475Q294 475 342 555L353 608Z" />
<glyph unicode="&#xab;" glyph-name="guillemotleft" horiz-adv-x="381" d="M220 403L81 245L158 94H134L56 247L196 403H220ZM333 403L194 245L271 94H247L169 247L309 403H333Z" />
<glyph unicode="&#xac;" glyph-name="logicalnot" horiz-adv-x="545" d="M460 360L420 160H400L436 340H56L60 360H460Z" />
<glyph unicode="&#xad;" glyph-name="uni00AD" horiz-adv-x="357" d="M297 310L293 290H76L80 310H297Z" />
<glyph unicode="&#xae;" glyph-name="registered" horiz-adv-x="790" d="M507 689T584 644T707 520T752 350Q752 259 707 181T584 56T412 9Q319 9 242 55T120 179T75 348Q75 439 120 517T242 642T414 689Q507 689 584 644ZM501 29T574 72T689 189T732 350Q732
437 690 510T575 626T414 669Q325 669 252 626T137 509T95 348Q95 261 137 188T251 72T412 29Q501 29 574 72ZM562 373T538 342T469 300L564 168H539L448 296Q428 294 417 294H306V168H286V543H417Q487 543 524 512T562 421Q562 373 538 342ZM417 314Q476 314 509
342T542 421Q542 471 510 497T417 523H306V314H417Z" />
<glyph unicode="&#xaf;" glyph-name="overscore" horiz-adv-x="531" d="M221 677H478L474 657H217L221 677Z" />
<glyph unicode="&#xb0;" glyph-name="degree" horiz-adv-x="304" d="M306 796T332 781T373 741T389 687Q389 643 356 611T276 579Q231 579 198 611T164 687Q164 715 179 740T221 781T276 796Q306 796 332 781ZM239 776T212 750T184 687Q184 651 211 625T276 599Q314
599 341 625T369 687Q369 723 342 749T276 776Q239 776 212 750Z" />
<glyph unicode="&#xb1;" glyph-name="plusminus" horiz-adv-x="541" d="M464 379L460 359H270L232 169H212L250 359H60L64 379H254L292 569H312L274 379H464ZM464 75L460 55H60L64 75H464Z" />
<glyph unicode="&#xb2;" glyph-name="uni00B2" horiz-adv-x="403" d="M108 379H366L362 360H81L86 381L284 555Q372 633 372 685Q372 717 348 734T281 752Q249 752 216 738T155 698L145 713Q175 741 211 755T282 770Q333 770 362 748T391 687Q391 624 297 542L108 379Z" />
<glyph unicode="&#xb3;" glyph-name="uni00B3" horiz-adv-x="402" d="M399 752L223 591H246Q302 591 335 566T368 498Q368 458 346 426T286 374T199 355Q167 355 136 364T82 390L94 405Q114 390 142 381T200 372Q264 372 306 407T348 497Q348 534 320 554T240
574H194L197 591L372 748H170L173 766H402L399 752Z" />
<glyph unicode="&#xb4;" glyph-name="acute" horiz-adv-x="364" d="M313 739L332 729L203 624L177 629L313 739Z" />
<glyph unicode="&#xb5;" glyph-name="uni00B5" horiz-adv-x="668" d="M608 517L506 0H486L515 149Q477 79 414 41T271 0Q203 0 161 26T105 103L46 -194H26L102 188L105 204L167 517H188L122 188Q120 177 120 155Q120 90 159 55T271 20Q372 22 443 83T536 251L588
517H608Z" />
<glyph unicode="&#xb6;" glyph-name="paragraph" horiz-adv-x="557" d="M355 -112H335L501 722H319L153 -112H133L239 419Q211 417 200 417Q128 417 97 452T66 540Q66 554 70 576Q84 646 142 694T299 742H525L355 -112Z" />
<glyph unicode="&#xb7;" glyph-name="middot" horiz-adv-x="170" d="M203 292T209 286T215 270Q215 258 205 249T183 240Q174 240 168 246T162 262Q162 274 172 283T194 292Q203 292 209 286Z" />
<glyph unicode="&#xb8;" glyph-name="cedilla" horiz-adv-x="407" d="M165 0L139 -54Q172 -55 189 -73T207 -117Q207 -140 194 -162T156 -199T100 -213Q81 -213 61 -207T31 -191L44 -171Q54 -180 71 -186T104 -192Q140 -192 162 -170T185 -121Q185 -100 173 -87T138
-73H109L146 5L165 0Z" />
<glyph unicode="&#xb9;" glyph-name="uni00B9" horiz-adv-x="284" d="M151 766H261L179 360H158L236 747H147L151 766Z" />
<glyph unicode="&#xba;" glyph-name="ordmasculine" horiz-adv-x="398" d="M345 760T384 723T423 626Q423 578 401 540T340 480T255 458Q192 458 154 495T115 592Q115 639 137 677T198 738T283 760Q345 760 384 723ZM242 741T208 722T155 669T135 592Q135 540
168 508T255 476Q318 476 360 518T402 626Q402 677 369 709T283 741Q242 741 208 722Z" />
<glyph unicode="&#xbb;" glyph-name="guillemotright" horiz-adv-x="381" d="M44 94L183 252L106 403H130L208 250L68 94H44ZM157 94L296 252L219 403H243L321 250L181 94H157Z" />
<glyph unicode="&#xbc;" glyph-name="onequarter" horiz-adv-x="792" d="M138 699H248L166 293H145L223 680H134L138 699ZM86 0H64L602 699H624L86 0ZM715 135L711 117H643L620 0H601L624 117H419L423 136L638 406H660L445 135H628L652 261H671L647 135H715Z" />
<glyph unicode="&#xbd;" glyph-name="onehalf" horiz-adv-x="797" d="M138 699H248L166 293H145L223 680H134L138 699ZM86 0H64L602 699H624L86 0ZM430 19H688L684 0H403L408 21L606 195Q694 273 694 325Q694 357 670 374T603 392Q571 392 538 378T477 338L467
353Q497 381 533 395T604 410Q655 410 684 388T713 327Q713 264 619 182L430 19Z" />
<glyph unicode="&#xbe;" glyph-name="threequarters" horiz-adv-x="910" d="M386 685L210 524H233Q289 524 322 499T355 431Q355 391 333 359T273 307T186 288Q154 288 123 297T69 323L81 338Q101 323 129 314T187 305Q251 305 293 340T335 430Q335 467 307 487T227
507H181L184 524L359 681H157L160 699H389L386 685ZM204 0H182L720 699H742L204 0ZM833 135L829 117H761L738 0H719L742 117H537L541 136L756 406H778L563 135H746L770 261H789L765 135H833Z" />
<glyph unicode="&#xbf;" glyph-name="questiondown" horiz-adv-x="398" d="M206 471T199 478T192 495Q192 506 200 514T220 523Q231 523 237 517T244 499Q244 488 236 480T216 471Q206 471 199 478ZM324 -87T275 -125T149 -163Q74 -163 31 -126T-13 -23Q-13 14
0 44T34 98T87 155Q133 201 156 234T180 310H200Q199 263 175 228T104 146Q55 97 31 61T7 -24Q7 -81 44 -112T149 -143Q218 -143 261 -111T314 -18L334 -20Q324 -87 275 -125Z" />
<glyph unicode="&#xc0;" glyph-name="Agrave" horiz-adv-x="686" d="M601 0L538 213H114L-18 0H-42L394 699H416L624 0H601ZM126 233H532L401 676L126 233ZM352 891L488 781L462 776L333 881L352 891Z" />
<glyph unicode="&#xc1;" glyph-name="Aacute" horiz-adv-x="686" d="M601 0L538 213H114L-18 0H-42L394 699H416L624 0H601ZM126 233H532L401 676L126 233ZM531 891L550 881L421 776L395 781L531 891Z" />
<glyph unicode="&#xc2;" glyph-name="Acircumflex" horiz-adv-x="686" d="M601 0L538 213H114L-18 0H-42L394 699H416L624 0H601ZM126 233H532L401 676L126 233ZM536 776H510L440 868L334 776H308L427 886H459L536 776Z" />
<glyph unicode="&#xc3;" glyph-name="Atilde" horiz-adv-x="686" d="M601 0L538 213H114L-18 0H-42L394 699H416L624 0H601ZM126 233H532L401 676L126 233ZM561 816T538 794T482 772Q463 772 451 780T421 806Q408 821 397 829T370 837Q346 837 330 821T308 776H289Q297
814 318 835T371 857Q390 857 402 849T432 823Q445 808 456 800T483 792Q507 792 526 808T550 853H569Q561 816 538 794Z" />
<glyph unicode="&#xc4;" glyph-name="Adieresis" horiz-adv-x="686" d="M601 0L538 213H114L-18 0H-42L394 699H416L624 0H601ZM126 233H532L401 676L126 233ZM367 828T373 822T379 806Q379 794 369 785T347 776Q338 776 332 782T326 798Q326 810 336 819T358
828Q367 828 373 822ZM517 828T523 822T529 806Q529 794 519 785T497 776Q488 776 482 782T476 798Q476 810 486 819T508 828Q517 828 523 822Z" />
<glyph unicode="&#xc5;" glyph-name="Aring" horiz-adv-x="686" d="M601 0L538 213H114L-18 0H-42L394 699H416L624 0H601ZM126 233H532L401 676L126 233ZM478 937T501 914T524 858Q524 821 493 792T422 762Q388 762 365 784T342 839Q342 877 373 907T444 937Q478
937 501 914ZM411 918T387 895T362 842Q362 816 380 799T425 781Q455 781 480 803T505 856Q505 882 487 900T441 918Q411 918 387 895Z" />
<glyph unicode="&#xc6;" glyph-name="AE" horiz-adv-x="987" d="M575 679L513 370H884L880 350H509L443 20H874L870 0H419L464 223H161L-18 0H-42L519 699H996L992 679H575ZM468 243L555 679H526L177 243H468Z" />
<glyph unicode="&#xc7;" glyph-name="Ccedilla" horiz-adv-x="732" d="M370 684T288 639T152 518T90 350Q88 328 88 318Q88 235 128 166T239 56T395 16Q460 16 521 38T631 102L644 89Q590 45 526 21T395 -3Q382 -3 376 -2L351 -54Q384 -55 401 -73T419 -117Q419
-140 406 -162T368 -199T312 -213Q293 -213 273 -207T243 -191L256 -171Q266 -180 283 -186T316 -192Q352 -192 374 -170T397 -121Q397 -100 385 -87T350 -73H321L355 -1Q273 8 208 52T106 166T69 317Q69 328 71 352Q80 447 136 527T280 655T463 703Q532 703 591
679T695 612L681 599Q639 640 583 662T463 684Q370 684 288 639Z" />
<glyph unicode="&#xc8;" glyph-name="Egrave" horiz-adv-x="644" d="M649 679H232L170 370H541L537 350H166L100 20H531L527 0H76L216 699H653L649 679ZM385 891L521 781L495 776L366 881L385 891Z" />
<glyph unicode="&#xc9;" glyph-name="Eacute" horiz-adv-x="644" d="M649 679H232L170 370H541L537 350H166L100 20H531L527 0H76L216 699H653L649 679ZM564 891L583 881L454 776L428 781L564 891Z" />
<glyph unicode="&#xca;" glyph-name="Ecircumflex" horiz-adv-x="644" d="M649 679H232L170 370H541L537 350H166L100 20H531L527 0H76L216 699H653L649 679ZM569 776H543L473 868L367 776H341L460 886H492L569 776Z" />
<glyph unicode="&#xcb;" glyph-name="Edieresis" horiz-adv-x="644" d="M649 679H232L170 370H541L537 350H166L100 20H531L527 0H76L216 699H653L649 679ZM400 828T406 822T412 806Q412 794 402 785T380 776Q371 776 365 782T359 798Q359 810 369 819T391 828Q400
828 406 822ZM550 828T556 822T562 806Q562 794 552 785T530 776Q521 776 515 782T509 798Q509 810 519 819T541 828Q550 828 556 822Z" />
<glyph unicode="&#xcc;" glyph-name="Igrave" horiz-adv-x="276" d="M235 699L95 0H75L215 699H235ZM171 891L307 781L281 776L152 881L171 891Z" />
<glyph unicode="&#xcd;" glyph-name="Iacute" horiz-adv-x="276" d="M235 699L95 0H75L215 699H235ZM350 891L369 881L240 776L214 781L350 891Z" />
<glyph unicode="&#xce;" glyph-name="Icircumflex" horiz-adv-x="276" d="M235 699L95 0H75L215 699H235ZM355 776H329L259 868L153 776H127L246 886H278L355 776Z" />
<glyph unicode="&#xcf;" glyph-name="Idieresis" horiz-adv-x="276" d="M235 699L95 0H75L215 699H235ZM186 828T192 822T198 806Q198 794 188 785T166 776Q157 776 151 782T145 798Q145 810 155 819T177 828Q186 828 192 822ZM336 828T342 822T348 806Q348 794
338 785T316 776Q307 776 301 782T295 798Q295 810 305 819T327 828Q336 828 342 822Z" />
<glyph unicode="&#xd0;" glyph-name="Eth" horiz-adv-x="812" d="M562 699T632 660T743 553T783 401Q783 372 779 348Q765 254 705 174T555 47T369 0H77L145 340H67L71 360H149L216 699H474Q562 699 632 660ZM764 382T764 397Q764 476 726 540T622 642T471 679H232L169
360H431L427 340H165L101 20H372Q463 20 547 64T689 184T760 350Q764 382 764 397Z" />
<glyph unicode="&#xd1;" glyph-name="Ntilde" horiz-adv-x="799" d="M739 699H759L619 0H589L232 679L96 0H76L216 699H246L603 20L739 699ZM642 816T619 794T563 772Q544 772 532 780T502 806Q489 821 478 829T451 837Q427 837 411 821T389 776H370Q378 814 399
835T452 857Q471 857 483 849T513 823Q526 808 537 800T564 792Q588 792 607 808T631 853H650Q642 816 619 794Z" />
<glyph unicode="&#xd2;" glyph-name="Ograve" horiz-adv-x="822" d="M554 703T629 661T748 545T791 383Q791 371 789 349Q780 255 723 174T579 45T395 -3Q304 -3 229 39T112 156T69 318Q69 328 71 352Q80 447 136 527T280 655T463 703Q554 703 629 661ZM371 683T289
638T153 517T91 350Q89 328 89 318Q89 235 129 166T239 57T395 17Q487 17 570 62T706 184T769 351Q771 373 771 383Q771 465 731 534T620 643T463 683Q371 683 289 638ZM408 891L544 781L518 776L389 881L408 891Z" />
<glyph unicode="&#xd3;" glyph-name="Oacute" horiz-adv-x="822" d="M554 703T629 661T748 545T791 383Q791 371 789 349Q780 255 723 174T579 45T395 -3Q304 -3 229 39T112 156T69 318Q69 328 71 352Q80 447 136 527T280 655T463 703Q554 703 629 661ZM371 683T289
638T153 517T91 350Q89 328 89 318Q89 235 129 166T239 57T395 17Q487 17 570 62T706 184T769 351Q771 373 771 383Q771 465 731 534T620 643T463 683Q371 683 289 638ZM587 891L606 881L477 776L451 781L587 891Z" />
<glyph unicode="&#xd4;" glyph-name="Ocircumflex" horiz-adv-x="822" d="M554 703T629 661T748 545T791 383Q791 371 789 349Q780 255 723 174T579 45T395 -3Q304 -3 229 39T112 156T69 318Q69 328 71 352Q80 447 136 527T280 655T463 703Q554 703 629 661ZM371
683T289 638T153 517T91 350Q89 328 89 318Q89 235 129 166T239 57T395 17Q487 17 570 62T706 184T769 351Q771 373 771 383Q771 465 731 534T620 643T463 683Q371 683 289 638ZM592 776H566L496 868L390 776H364L483 886H515L592 776Z" />
<glyph unicode="&#xd5;" glyph-name="Otilde" horiz-adv-x="822" d="M554 703T629 661T748 545T791 383Q791 371 789 349Q780 255 723 174T579 45T395 -3Q304 -3 229 39T112 156T69 318Q69 328 71 352Q80 447 136 527T280 655T463 703Q554 703 629 661ZM371 683T289
638T153 517T91 350Q89 328 89 318Q89 235 129 166T239 57T395 17Q487 17 570 62T706 184T769 351Q771 373 771 383Q771 465 731 534T620 643T463 683Q371 683 289 638ZM617 816T594 794T538 772Q519 772 507 780T477 806Q464 821 453 829T426 837Q402 837 386
821T364 776H345Q353 814 374 835T427 857Q446 857 458 849T488 823Q501 808 512 800T539 792Q563 792 582 808T606 853H625Q617 816 594 794Z" />
<glyph unicode="&#xd6;" glyph-name="Odieresis" horiz-adv-x="822" d="M554 703T629 661T748 545T791 383Q791 371 789 349Q780 255 723 174T579 45T395 -3Q304 -3 229 39T112 156T69 318Q69 328 71 352Q80 447 136 527T280 655T463 703Q554 703 629 661ZM371
683T289 638T153 517T91 350Q89 328 89 318Q89 235 129 166T239 57T395 17Q487 17 570 62T706 184T769 351Q771 373 771 383Q771 465 731 534T620 643T463 683Q371 683 289 638ZM423 828T429 822T435 806Q435 794 425 785T403 776Q394 776 388 782T382 798Q382
810 392 819T414 828Q423 828 429 822ZM573 828T579 822T585 806Q585 794 575 785T553 776Q544 776 538 782T532 798Q532 810 542 819T564 828Q573 828 579 822Z" />
<glyph unicode="&#xd7;" glyph-name="multiply" horiz-adv-x="533" d="M427 454L293 320L427 186L413 172L279 306L145 172L131 186L265 320L131 454L145 468L279 334L413 468L427 454Z" />
<glyph unicode="&#xd8;" glyph-name="Oslash" horiz-adv-x="822" d="M721 598T756 531T791 383Q791 373 789 349Q780 255 723 174T579 45T395 -3Q301 -3 223 43L152 -55H129L208 53Q143 96 106 166T69 318Q69 330 71 352Q80 447 136 527T280 655T463 703Q562 703
643 652L718 755H741L659 642Q721 598 756 531ZM89 328T89 317Q89 241 124 176T219 69L631 636Q556 683 463 683Q371 683 289 638T153 517T91 350Q89 328 89 317ZM771 373T771 382Q771 457 738 520T647 625L235 59Q307 17 395 17Q487 17 570 62T706 184T769 351Q771
373 771 382Z" />
<glyph unicode="&#xd9;" glyph-name="Ugrave" horiz-adv-x="774" d="M669 284Q642 147 559 74T345 0Q232 0 170 54T107 210Q107 242 115 284L198 699H218L135 284Q128 249 128 215Q128 122 186 71T349 20Q470 20 546 88T649 284L732 699H752L669 284ZM420 891L556
781L530 776L401 881L420 891Z" />
<glyph unicode="&#xda;" glyph-name="Uacute" horiz-adv-x="774" d="M669 284Q642 147 559 74T345 0Q232 0 170 54T107 210Q107 242 115 284L198 699H218L135 284Q128 249 128 215Q128 122 186 71T349 20Q470 20 546 88T649 284L732 699H752L669 284ZM599 891L618
881L489 776L463 781L599 891Z" />
<glyph unicode="&#xdb;" glyph-name="Ucircumflex" horiz-adv-x="774" d="M669 284Q642 147 559 74T345 0Q232 0 170 54T107 210Q107 242 115 284L198 699H218L135 284Q128 249 128 215Q128 122 186 71T349 20Q470 20 546 88T649 284L732 699H752L669 284ZM604
776H578L508 868L402 776H376L495 886H527L604 776Z" />
<glyph unicode="&#xdc;" glyph-name="Udieresis" horiz-adv-x="774" d="M669 284Q642 147 559 74T345 0Q232 0 170 54T107 210Q107 242 115 284L198 699H218L135 284Q128 249 128 215Q128 122 186 71T349 20Q470 20 546 88T649 284L732 699H752L669 284ZM435 828T441
822T447 806Q447 794 437 785T415 776Q406 776 400 782T394 798Q394 810 404 819T426 828Q435 828 441 822ZM585 828T591 822T597 806Q597 794 587 785T565 776Q556 776 550 782T544 798Q544 810 554 819T576 828Q585 828 591 822Z" />
<glyph unicode="&#xdd;" glyph-name="Yacute" horiz-adv-x="606" d="M684 699L333 270L287 0H267L312 267L98 699H122L325 289L660 699H684ZM515 891L534 881L405 776L379 781L515 891Z" />
<glyph unicode="&#xde;" glyph-name="Thorn" horiz-adv-x="675" d="M659 587T659 411Q659 280 573 211T311 142H124L96 0H76L216 699H236L214 587H400Q659 587 659 411ZM478 162T558 224T638 406Q638 567 396 567H210L128 162H315Q478 162 558 224Z" />
<glyph unicode="&#xdf;" glyph-name="germandbls" horiz-adv-x="641" d="M506 742T551 704T597 600Q597 583 592 558Q578 488 528 439T407 377Q478 369 519 329T560 230Q560 219 556 195Q538 106 464 53T280 0H224L228 20H282Q381 20 450 69T537 199Q540 216 540
230Q540 293 488 329T344 365H338L341 385Q430 385 493 433T573 562Q577 579 577 598Q577 655 537 688T426 722Q334 722 266 660T178 495L79 0H59L158 497Q181 609 253 675T426 742Q506 742 551 704Z" />
<glyph unicode="&#xe0;" glyph-name="agrave" horiz-adv-x="671" d="M215 -2T163 26T81 106T51 224Q51 305 88 372T190 479T330 519Q418 519 480 470T557 340L592 517H612L509 0H489L515 128Q476 66 415 32T282 -2Q215 -2 163 26ZM354 18T413 54T506 153T541 290Q541
351 514 398T439 472T328 499Q258 499 199 463T106 364T71 227Q71 166 98 119T173 45T284 18Q354 18 413 54ZM322 739L458 629L432 624L303 729L322 739Z" />
<glyph unicode="&#xe1;" glyph-name="aacute" horiz-adv-x="671" d="M215 -2T163 26T81 106T51 224Q51 305 88 372T190 479T330 519Q418 519 480 470T557 340L592 517H612L509 0H489L515 128Q476 66 415 32T282 -2Q215 -2 163 26ZM354 18T413 54T506 153T541 290Q541
351 514 398T439 472T328 499Q258 499 199 463T106 364T71 227Q71 166 98 119T173 45T284 18Q354 18 413 54ZM501 739L520 729L391 624L365 629L501 739Z" />
<glyph unicode="&#xe2;" glyph-name="acircumflex" horiz-adv-x="671" d="M215 -2T163 26T81 106T51 224Q51 305 88 372T190 479T330 519Q418 519 480 470T557 340L592 517H612L509 0H489L515 128Q476 66 415 32T282 -2Q215 -2 163 26ZM354 18T413 54T506 153T541
290Q541 351 514 398T439 472T328 499Q258 499 199 463T106 364T71 227Q71 166 98 119T173 45T284 18Q354 18 413 54ZM506 624H480L410 716L304 624H278L397 734H429L506 624Z" />
<glyph unicode="&#xe3;" glyph-name="atilde" horiz-adv-x="671" d="M215 -2T163 26T81 106T51 224Q51 305 88 372T190 479T330 519Q418 519 480 470T557 340L592 517H612L509 0H489L515 128Q476 66 415 32T282 -2Q215 -2 163 26ZM354 18T413 54T506 153T541 290Q541
351 514 398T439 472T328 499Q258 499 199 463T106 364T71 227Q71 166 98 119T173 45T284 18Q354 18 413 54ZM533 673T510 651T454 629Q435 629 423 637T393 663Q380 678 369 686T342 694Q318 694 302 678T280 633H261Q269 671 290 692T343 714Q362 714 374 706T404
680Q417 665 428 657T455 649Q479 649 498 665T522 710H541Q533 673 510 651Z" />
<glyph unicode="&#xe4;" glyph-name="adieresis" horiz-adv-x="671" d="M215 -2T163 26T81 106T51 224Q51 305 88 372T190 479T330 519Q418 519 480 470T557 340L592 517H612L509 0H489L515 128Q476 66 415 32T282 -2Q215 -2 163 26ZM354 18T413 54T506 153T541
290Q541 351 514 398T439 472T328 499Q258 499 199 463T106 364T71 227Q71 166 98 119T173 45T284 18Q354 18 413 54ZM340 692T346 686T352 670Q352 658 342 649T320 640Q311 640 305 646T299 662Q299 674 309 683T331 692Q340 692 346 686ZM490 692T496 686T502
670Q502 658 492 649T470 640Q461 640 455 646T449 662Q449 674 459 683T481 692Q490 692 496 686Z" />
<glyph unicode="&#xe5;" glyph-name="aring" horiz-adv-x="671" d="M215 -2T163 26T81 106T51 224Q51 305 88 372T190 479T330 519Q418 519 480 470T557 340L592 517H612L509 0H489L515 128Q476 66 415 32T282 -2Q215 -2 163 26ZM354 18T413 54T506 153T541 290Q541
351 514 398T439 472T328 499Q258 499 199 463T106 364T71 227Q71 166 98 119T173 45T284 18Q354 18 413 54ZM442 755T465 732T488 676Q488 639 457 610T386 580Q352 580 329 602T306 657Q306 695 337 725T408 755Q442 755 465 732ZM375 736T351 713T326 660Q326
634 344 617T389 599Q419 599 444 621T469 674Q469 700 451 718T405 736Q375 736 351 713Z" />
<glyph unicode="&#xe6;" glyph-name="ae" horiz-adv-x="971" d="M122 0T79 37T35 136Q35 204 90 243T241 282H434L438 345Q439 351 439 364Q439 428 400 462T287 497Q240 497 196 480T98 425L88 441Q141 480 189 498T287 517Q370 517 415 476T458 359Q492 432
558 474T704 517Q770 517 819 488T896 407T924 288Q924 269 923 259H453L450 232L449 217Q449 165 478 120T556 47T661 20Q717 20 765 39T851 95L864 81Q824 42 772 21T661 0Q580 0 519 44T436 160Q356 0 193 0Q122 0 79 37ZM904 279Q905 344 881 393T811 470T704
497Q641 497 588 470T500 393T455 279H904ZM276 20T330 58T426 184L433 262H239Q152 262 104 229T55 135Q55 83 93 52T193 20Q276 20 330 58Z" />
<glyph unicode="&#xe7;" glyph-name="ccedilla" horiz-adv-x="577" d="M258 497T199 464T106 370T72 235Q72 172 98 123T172 47T282 20Q335 20 381 39T463 95L475 81Q437 42 387 21T280 0H277V0L251 -54Q284 -55 301 -73T319 -117Q319 -140 306 -162T268 -199T212
-213Q193 -213 173 -207T143 -191L156 -171Q166 -180 183 -186T216 -192Q252 -192 274 -170T297 -121Q297 -100 285 -87T250 -73H221L256 1Q196 6 150 37T79 119T53 234Q53 314 90 378T191 480T331 517Q382 517 425 499T500 448L486 434Q423 497 329 497Q258 497
199 464Z" />
<glyph unicode="&#xe8;" glyph-name="egrave" horiz-adv-x="592" d="M74 259Q73 251 73 235Q73 172 99 123T172 47T280 20Q336 20 385 39T470 95L483 81Q444 42 391 21T278 0Q212 0 161 30T82 113T53 234Q53 314 90 378T190 480T329 517Q395 517 444 489T519 409T545
291Q545 270 544 259H74ZM263 497T210 470T121 393T76 279H526Q528 377 475 437T327 497Q263 497 210 470ZM274 739L410 629L384 624L255 729L274 739Z" />
<glyph unicode="&#xe9;" glyph-name="eacute" horiz-adv-x="592" d="M74 259Q73 251 73 235Q73 172 99 123T172 47T280 20Q336 20 385 39T470 95L483 81Q444 42 391 21T278 0Q212 0 161 30T82 113T53 234Q53 314 90 378T190 480T329 517Q395 517 444 489T519 409T545
291Q545 270 544 259H74ZM263 497T210 470T121 393T76 279H526Q528 377 475 437T327 497Q263 497 210 470ZM453 739L472 729L343 624L317 629L453 739Z" />
<glyph unicode="&#xea;" glyph-name="ecircumflex" horiz-adv-x="592" d="M74 259Q73 251 73 235Q73 172 99 123T172 47T280 20Q336 20 385 39T470 95L483 81Q444 42 391 21T278 0Q212 0 161 30T82 113T53 234Q53 314 90 378T190 480T329 517Q395 517 444 489T519
409T545 291Q545 270 544 259H74ZM263 497T210 470T121 393T76 279H526Q528 377 475 437T327 497Q263 497 210 470ZM458 624H432L362 716L256 624H230L349 734H381L458 624Z" />
<glyph unicode="&#xeb;" glyph-name="edieresis" horiz-adv-x="592" d="M74 259Q73 251 73 235Q73 172 99 123T172 47T280 20Q336 20 385 39T470 95L483 81Q444 42 391 21T278 0Q212 0 161 30T82 113T53 234Q53 314 90 378T190 480T329 517Q395 517 444 489T519
409T545 291Q545 270 544 259H74ZM263 497T210 470T121 393T76 279H526Q528 377 475 437T327 497Q263 497 210 470ZM292 692T298 686T304 670Q304 658 294 649T272 640Q263 640 257 646T251 662Q251 674 261 683T283 692Q292 692 298 686ZM442 692T448 686T454
670Q454 658 444 649T422 640Q413 640 407 646T401 662Q401 674 411 683T433 692Q442 692 448 686Z" />
<glyph unicode="&#xec;" glyph-name="igrave" horiz-adv-x="241" d="M182 517L79 0H59L162 517H182ZM123 739L259 629L233 624L104 729L123 739Z" />
<glyph unicode="&#xed;" glyph-name="iacute" horiz-adv-x="241" d="M182 517L79 0H59L162 517H182ZM302 739L321 729L192 624L166 629L302 739Z" />
<glyph unicode="&#xee;" glyph-name="icircumflex" horiz-adv-x="241" d="M182 517L79 0H59L162 517H182ZM307 624H281L211 716L105 624H79L198 734H230L307 624Z" />
<glyph unicode="&#xef;" glyph-name="idieresis" horiz-adv-x="241" d="M182 517L79 0H59L162 517H182ZM161 692T167 686T173 670Q173 658 163 649T141 640Q132 640 126 646T120 662Q120 674 130 683T152 692Q161 692 167 686ZM271 692T277 686T283 670Q283 658
273 649T251 640Q242 640 236 646T230 662Q230 674 240 683T262 692Q271 692 277 686Z" />
<glyph unicode="&#xf0;" glyph-name="eth" horiz-adv-x="571" d="M381 613Q446 536 481 449T516 274Q516 146 450 74T265 1Q168 1 111 53T53 193Q53 264 84 319T171 406T299 437Q374 437 429 402T501 308Q491 385 455 461T361 604L177 526L170 543L348 619Q288
684 219 727L233 744Q312 691 369 627L516 690L523 673L381 613ZM332 21T384 49T464 127T493 243Q493 323 441 370T298 417Q232 417 181 390T102 312T74 196Q74 116 125 69T264 21Q332 21 384 49Z" />
<glyph unicode="&#xf1;" glyph-name="ntilde" horiz-adv-x="646" d="M480 517T524 478T569 366Q569 342 563 313L501 0H481L543 313Q548 341 548 362Q548 427 509 462T397 497Q296 495 225 434T132 266L80 0H60L162 517H182L153 368Q191 438 254 476T397 517Q480
517 524 478ZM532 673T509 651T453 629Q434 629 422 637T392 663Q379 678 368 686T341 694Q317 694 301 678T279 633H260Q268 671 289 692T342 714Q361 714 373 706T403 680Q416 665 427 657T454 649Q478 649 497 665T521 710H540Q532 673 509 651Z" />
<glyph unicode="&#xf2;" glyph-name="ograve" horiz-adv-x="611" d="M397 517T448 487T529 404T558 284Q558 204 521 139T420 37T280 0Q214 0 163 30T82 113T53 234Q53 314 90 378T191 480T331 517Q397 517 448 487ZM258 497T200 464T107 370T73 235Q73 172 99
123T172 47T282 20Q353 20 411 53T504 147T538 283Q538 345 512 394T439 470T329 497Q258 497 200 464ZM282 739L418 629L392 624L263 729L282 739Z" />
<glyph unicode="&#xf3;" glyph-name="oacute" horiz-adv-x="611" d="M397 517T448 487T529 404T558 284Q558 204 521 139T420 37T280 0Q214 0 163 30T82 113T53 234Q53 314 90 378T191 480T331 517Q397 517 448 487ZM258 497T200 464T107 370T73 235Q73 172 99
123T172 47T282 20Q353 20 411 53T504 147T538 283Q538 345 512 394T439 470T329 497Q258 497 200 464ZM461 739L480 729L351 624L325 629L461 739Z" />
<glyph unicode="&#xf4;" glyph-name="ocircumflex" horiz-adv-x="611" d="M397 517T448 487T529 404T558 284Q558 204 521 139T420 37T280 0Q214 0 163 30T82 113T53 234Q53 314 90 378T191 480T331 517Q397 517 448 487ZM258 497T200 464T107 370T73 235Q73 172
99 123T172 47T282 20Q353 20 411 53T504 147T538 283Q538 345 512 394T439 470T329 497Q258 497 200 464ZM466 624H440L370 716L264 624H238L357 734H389L466 624Z" />
<glyph unicode="&#xf5;" glyph-name="otilde" horiz-adv-x="611" d="M397 517T448 487T529 404T558 284Q558 204 521 139T420 37T280 0Q214 0 163 30T82 113T53 234Q53 314 90 378T191 480T331 517Q397 517 448 487ZM258 497T200 464T107 370T73 235Q73 172 99
123T172 47T282 20Q353 20 411 53T504 147T538 283Q538 345 512 394T439 470T329 497Q258 497 200 464ZM493 673T470 651T414 629Q395 629 383 637T353 663Q340 678 329 686T302 694Q278 694 262 678T240 633H221Q229 671 250 692T303 714Q322 714 334 706T364
680Q377 665 388 657T415 649Q439 649 458 665T482 710H501Q493 673 470 651Z" />
<glyph unicode="&#xf6;" glyph-name="odieresis" horiz-adv-x="611" d="M397 517T448 487T529 404T558 284Q558 204 521 139T420 37T280 0Q214 0 163 30T82 113T53 234Q53 314 90 378T191 480T331 517Q397 517 448 487ZM258 497T200 464T107 370T73 235Q73 172
99 123T172 47T282 20Q353 20 411 53T504 147T538 283Q538 345 512 394T439 470T329 497Q258 497 200 464ZM300 692T306 686T312 670Q312 658 302 649T280 640Q271 640 265 646T259 662Q259 674 269 683T291 692Q300 692 306 686ZM450 692T456 686T462 670Q462
658 452 649T430 640Q421 640 415 646T409 662Q409 674 419 683T441 692Q450 692 456 686Z" />
<glyph unicode="&#xf7;" glyph-name="divide" horiz-adv-x="480" d="M307 521T313 515T319 499Q319 487 309 478T287 469Q278 469 272 475T266 491Q266 503 276 512T298 521Q307 521 313 515ZM454 330L450 310H50L54 330H454ZM238 171T244 165T250 149Q250 137
240 128T218 119Q209 119 203 125T197 141Q197 153 207 162T229 171Q238 171 244 165Z" />
<glyph unicode="&#xf8;" glyph-name="oslash" horiz-adv-x="611" d="M510 445T534 396T558 284Q558 204 521 139T420 37T280 0Q209 0 155 34L54 -110H33L141 44Q99 75 76 124T53 234Q53 314 90 378T191 480T331 517Q400 517 452 485L552 627H573L467 476Q510 445
534 396ZM73 179T94 134T153 60L440 469Q392 497 329 497Q258 497 200 464T107 370T73 235Q73 179 94 134ZM353 20T411 53T504 147T538 283Q538 340 516 385T455 459L167 51Q217 20 282 20Q353 20 411 53Z" />
<glyph unicode="&#xf9;" glyph-name="ugrave" horiz-adv-x="646" d="M166 0T122 39T77 151Q77 176 83 204L145 517H165L103 204Q98 176 98 155Q98 90 137 55T249 20Q350 22 421 83T514 251L566 517H586L484 0H464L493 149Q455 79 392 41T249 0Q166 0 122 39ZM325
739L461 629L435 624L306 729L325 739Z" />
<glyph unicode="&#xfa;" glyph-name="uacute" horiz-adv-x="646" d="M166 0T122 39T77 151Q77 176 83 204L145 517H165L103 204Q98 176 98 155Q98 90 137 55T249 20Q350 22 421 83T514 251L566 517H586L484 0H464L493 149Q455 79 392 41T249 0Q166 0 122 39ZM504
739L523 729L394 624L368 629L504 739Z" />
<glyph unicode="&#xfb;" glyph-name="ucircumflex" horiz-adv-x="646" d="M166 0T122 39T77 151Q77 176 83 204L145 517H165L103 204Q98 176 98 155Q98 90 137 55T249 20Q350 22 421 83T514 251L566 517H586L484 0H464L493 149Q455 79 392 41T249 0Q166 0 122
39ZM509 624H483L413 716L307 624H281L400 734H432L509 624Z" />
<glyph unicode="&#xfc;" glyph-name="udieresis" horiz-adv-x="646" d="M166 0T122 39T77 151Q77 176 83 204L145 517H165L103 204Q98 176 98 155Q98 90 137 55T249 20Q350 22 421 83T514 251L566 517H586L484 0H464L493 149Q455 79 392 41T249 0Q166 0 122 39ZM343
692T349 686T355 670Q355 658 345 649T323 640Q314 640 308 646T302 662Q302 674 312 683T334 692Q343 692 349 686ZM493 692T499 686T505 670Q505 658 495 649T473 640Q464 640 458 646T452 662Q452 674 462 683T484 692Q493 692 499 686Z" />
<glyph unicode="&#xfd;" glyph-name="yacute" horiz-adv-x="456" d="M508 517L148 -76Q113 -133 73 -163T-9 -194Q-64 -194 -98 -168L-86 -151Q-57 -174 -11 -174Q27 -174 64 -146T133 -67L173 -2L62 517H85L188 23L484 517H508ZM410 739L429 729L300 624L274
629L410 739Z" />
<glyph unicode="&#xfe;" glyph-name="thorn" horiz-adv-x="676" d="M461 519T513 491T595 411T625 293Q625 212 588 145T486 38T346 -2Q258 -2 196 47T119 177L45 -194H25L213 742H233L161 389Q200 451 261 485T394 519Q461 519 513 491ZM322 499T263 463T170
364T135 227Q135 166 162 119T237 45T348 18Q418 18 477 54T570 153T605 290Q605 351 578 398T503 472T392 499Q322 499 263 463Z" />
<glyph unicode="&#xff;" glyph-name="ydieresis" horiz-adv-x="456" d="M508 517L148 -76Q113 -133 73 -163T-9 -194Q-64 -194 -98 -168L-86 -151Q-57 -174 -11 -174Q27 -174 64 -146T133 -67L173 -2L62 517H85L188 23L484 517H508ZM249 692T255 686T261 670Q261
658 251 649T229 640Q220 640 214 646T208 662Q208 674 218 683T240 692Q249 692 255 686ZM399 692T405 686T411 670Q411 658 401 649T379 640Q370 640 364 646T358 662Q358 674 368 683T390 692Q399 692 405 686Z" />
<glyph unicode="&#x2013;" glyph-name="endash" horiz-adv-x="400" d="M410 310L406 290H6L10 310H410Z" />
<glyph unicode="&#x2014;" glyph-name="emdash" horiz-adv-x="760" d="M770 310L766 290H6L10 310H770Z" />
<glyph unicode="&#x2018;" glyph-name="quoteleft" horiz-adv-x="163" d="M158 637T163 630T168 615Q168 604 160 596T140 587Q130 587 123 593T116 610Q116 621 126 639L178 742H198L151 638Q158 637 163 630Z" />
<glyph unicode="&#x2019;" glyph-name="quoteright" horiz-adv-x="164" d="M187 742T194 736T201 719Q201 708 191 690L139 587H119L166 691Q159 692 154 699T149 714Q149 725 157 733T177 742Q187 742 194 736Z" />
<glyph unicode="&#x201a;" glyph-name="quotesinglbase" horiz-adv-x="163" d="M47 45T54 39T61 22Q61 11 51 -7L-1 -110H-21L26 -6Q19 -5 14 2T9 17Q9 28 17 36T37 45Q47 45 54 39Z" />
<glyph unicode="&#x201c;" glyph-name="quotedblleft" horiz-adv-x="253" d="M158 637T163 630T168 615Q168 604 160 596T140 587Q130 587 123 593T116 610Q116 621 126 639L178 742H198L151 638Q158 637 163 630ZM248 637T253 630T258 615Q258 604 250 596T230
587Q220 587 213 593T206 610Q206 621 216 639L268 742H288L241 638Q248 637 253 630Z" />
<glyph unicode="&#x201d;" glyph-name="quotedblright" horiz-adv-x="254" d="M187 742T194 736T201 719Q201 708 191 690L139 587H119L166 691Q159 692 154 699T149 714Q149 725 157 733T177 742Q187 742 194 736ZM277 742T284 736T291 719Q291 708 281 690L229
587H209L256 691Q249 692 244 699T239 714Q239 725 247 733T267 742Q277 742 284 736Z" />
<glyph unicode="&#x201e;" glyph-name="quotedblbase" horiz-adv-x="253" d="M47 45T54 39T61 22Q61 11 51 -7L-1 -110H-21L26 -6Q19 -5 14 2T9 17Q9 28 17 36T37 45Q47 45 54 39ZM137 45T144 39T151 22Q151 11 141 -7L89 -110H69L116 -6Q109 -5 104 2T99 17Q99
28 107 36T127 45Q137 45 144 39Z" />
<glyph unicode="&#x2022;" glyph-name="bullet" horiz-adv-x="198" d="M118 309T129 298T141 270Q141 254 130 243T102 231Q86 231 75 242T63 270Q63 286 74 297T102 309Q118 309 129 298Z" />
<glyph unicode="&#x2039;" glyph-name="guilsinglleft" horiz-adv-x="268" d="M220 403L81 245L158 94H134L56 247L196 403H220Z" />
<glyph unicode="&#x203a;" glyph-name="guilsinglright" horiz-adv-x="268" d="M44 94L183 252L106 403H130L208 250L68 94H44Z" />
</font>
</defs>
</svg>
