<?xml version="1.0" standalone="no"?>
<!DOCTYPE svg PUBLIC "-//W3C//DTD SVG 1.1//EN" "http://www.w3.org/Graphics/SVG/1.1/DTD/svg11.dtd">
<svg xmlns="http://www.w3.org/2000/svg">
<defs >
<font id="AlegreyaSans" horiz-adv-x="544" ><font-face
    font-family="Alegreya Sans ExtraBold"
    units-per-em="1000"
    panose-1="0 0 9 0 0 0 0 0 0 0"
    ascent="900"
    descent="-300"
    alphabetic="0" />
<glyph unicode=" " glyph-name="space" horiz-adv-x="145" />
<glyph unicode="!" glyph-name="exclam" horiz-adv-x="268" d="M225 649L183 246L93 233L78 249L66 642L80 660L207 668L225 649ZM163 158T183 137T203 79Q203 39 181 16T120 -8Q82 -8 62 13T41 72Q41 111 64 134T126 158Q163 158 183 137Z" />
<glyph unicode="&quot;" glyph-name="quotedbl" horiz-adv-x="391" d="M185 633L145 396L72 385L60 395L54 636L177 644L185 633ZM353 633L312 396L239 385L227 395L222 636L344 644L353 633Z" />
<glyph unicode="#" glyph-name="numbersign" horiz-adv-x="564" d="M439 352L421 254H503L513 244L506 164H405L381 31H290L282 42L304 164H208L184 31H93L85 42L107 164H29L20 174L27 254H123L141 352H61L52 362L58 442H157L181 573H269L279 561L258 442H354L378
573H466L476 561L455 442H535L544 432L537 352H439ZM338 352H242L224 254H320L338 352Z" />
<glyph unicode="$" glyph-name="dollar" horiz-adv-x="458" d="M416 102T379 57T266 -4L258 -138H166L154 -126L161 -8Q95 -3 32 20L53 155L68 166Q103 135 146 117T221 98Q242 98 255 108T268 133Q268 150 251 161T193 189Q148 207 119 224T68 271T46 347Q46
407 85 451T193 510L201 646H291L305 633L298 515Q354 509 405 491L383 361L361 356Q329 379 296 392T239 405Q218 405 207 396T195 372Q195 355 212 344T270 316Q314 299 343 283T394 236T416 161Q416 102 379 57Z" />
<glyph unicode="%" glyph-name="percent" horiz-adv-x="868" d="M677 650L686 630L221 -93L154 -52L148 -37L614 689L677 650ZM270 652T309 607T348 476Q348 383 305 334T180 284Q106 284 66 329T26 460Q26 553 70 602T196 652Q270 652 309 607ZM152 551T138 532T123
468Q123 421 138 400T187 378Q221 378 236 398T252 462Q252 509 237 530T186 551Q152 551 138 532ZM763 361T802 316T841 185Q841 92 798 43T673 -6Q599 -6 559 39T519 170Q519 262 563 311T689 361Q763 361 802 316ZM645 261T631 242T616 178Q616 130 631 109T680
87Q714 87 729 107T745 172Q745 219 729 240T679 261Q645 261 631 242Z" />
<glyph unicode="&amp;" glyph-name="ampersand" horiz-adv-x="719" d="M578 340L574 330Q582 295 582 254Q582 189 558 138L688 20V10Q652 -30 603 -61L593 -60L478 44Q401 -10 282 -10Q168 -10 101 39T33 174Q33 282 146 337L147 346Q115 381 100 415T84 488Q84
564 141 608T302 652Q393 652 468 625L432 508H413Q352 543 297 543Q260 543 241 527T222 479Q222 457 232 439T274 395L471 216Q479 245 479 273Q479 309 468 340H411L404 349L414 451H705L714 440L704 340H578ZM354 99T394 120L212 284Q169 250 169 200Q169 151
202 125T297 99Q354 99 394 120Z" />
<glyph unicode="&apos;" glyph-name="quotesingle" horiz-adv-x="223" d="M185 633L145 396L72 385L60 395L54 636L177 644L185 633Z" />
<glyph unicode="(" glyph-name="parenleft" horiz-adv-x="298" d="M295 613V600Q241 548 217 465T191 253Q192 131 216 53T295 -78V-91L238 -138H224Q141 -77 103 16T64 252Q65 404 103 501T224 660H238L295 613Z" />
<glyph unicode=")" glyph-name="parenright" horiz-adv-x="298" d="M-4 -91V-78Q50 -26 74 57T100 269Q99 391 75 469T-4 600V613L53 660H67Q150 599 188 506T227 270Q226 118 188 21T67 -138H53L-4 -91Z" />
<glyph unicode="*" glyph-name="asterisk" horiz-adv-x="388" d="M248 737L216 612L170 607L162 614L158 731Q195 744 243 746L248 737ZM150 602L142 556L132 552L22 583Q22 626 34 669L44 672L150 602ZM365 605T378 566L372 559L247 552L226 593L231 603L338
644Q365 605 378 566ZM242 534L313 442Q292 411 252 380L243 383L198 504L231 535L242 534ZM179 513L180 502L119 405Q91 413 40 442L41 453L138 534L179 513Z" />
<glyph unicode="+" glyph-name="plus" horiz-adv-x="480" d="M294 469V311H450L461 301L453 205H294V45L198 38L187 48V205H30L20 216L28 311H187V471L283 479L294 469Z" />
<glyph unicode="," glyph-name="comma" horiz-adv-x="228" d="M196 113T196 59Q196 9 164 -38T63 -133L12 -89L11 -77Q67 -30 67 25Q67 61 34 91L35 105Q95 138 150 153Q196 113 196 59Z" />
<glyph unicode="-" glyph-name="hyphen" horiz-adv-x="302" d="M275 316V218L38 181L26 193V291L263 327L275 316Z" />
<glyph unicode="." glyph-name="period" horiz-adv-x="228" d="M154 158T174 137T195 79Q195 39 172 16T111 -8Q73 -8 53 13T33 72Q33 111 55 134T117 158Q154 158 174 137Z" />
<glyph unicode="/" glyph-name="slash" horiz-adv-x="282" d="M314 668L107 -116H-3L-12 -104L195 681H302L314 668Z" />
<glyph unicode="0" glyph-name="zero" horiz-adv-x="518" d="M371 518T427 452T483 264Q483 133 422 62T250 -10Q148 -10 92 56T35 243Q35 373 96 445T270 518Q371 518 427 452ZM205 370T182 343T158 253Q158 189 182 159T259 129Q312 129 336 157T361 246Q361
311 336 340T258 370Q205 370 182 343Z" />
<glyph unicode="1" glyph-name="one" horiz-adv-x="368" d="M278 499L270 209L277 0H116L123 192V335L18 309L7 317V445L255 516L278 499Z" />
<glyph unicode="2" glyph-name="two" horiz-adv-x="479" d="M320 516T367 482T414 388Q414 347 389 301T304 192L242 125L245 121H356L449 130L457 120L439 -7L308 0H80L44 -3L36 3V100L168 223Q214 268 235 296T257 346Q257 362 245 371T209 381Q179 381 145
367T79 326H62L35 449Q147 516 247 516Q320 516 367 482Z" />
<glyph unicode="3" glyph-name="three" horiz-adv-x="440" d="M293 517T344 478T395 375Q395 336 373 298T302 233V227Q405 196 405 94Q405 38 373 -4T281 -70T143 -94Q88 -94 31 -84L22 36L33 46Q96 26 148 26Q199 26 226 43T253 95Q253 149 181 150H105L98 160L102
269L146 271Q182 272 207 291T233 341Q233 364 218 376T174 389Q149 389 122 379T59 348H43L20 460Q64 488 113 502T210 517Q293 517 344 478Z" />
<glyph unicode="4" glyph-name="four" horiz-adv-x="514" d="M482 43L405 45L410 -77L402 -88L278 -96L270 -86L274 46H126L29 43L19 56V157L260 509H406L403 168H479L489 154L482 43ZM154 168H276V332H266L154 168Z" />
<glyph unicode="5" glyph-name="five" horiz-adv-x="438" d="M411 506L394 384L384 373L284 385H184L181 294L242 281Q326 263 364 224T402 120Q402 56 369 7T277 -69T139 -96Q78 -96 21 -83L13 35L24 46Q88 25 146 25Q195 25 223 45T251 100Q251 129 232 145T170
169L68 186L59 198L64 495L81 512L141 509H293L402 516L411 506Z" />
<glyph unicode="6" glyph-name="six" horiz-adv-x="489" d="M345 367T383 343T441 279T461 190Q461 137 436 91T362 17T241 -11Q140 -11 84 50T27 217Q27 336 102 435T315 597H323L428 527V511Q330 474 277 438T198 355L205 347Q248 367 292 367Q345 367 383 343ZM281
92T299 112T318 173Q318 257 244 257Q211 257 171 236V219Q171 153 187 123T246 92Q281 92 299 112Z" />
<glyph unicode="7" glyph-name="seven" horiz-adv-x="440" d="M146 509H362L414 511V395L263 66L201 -99L74 -64L65 -39L262 378H120L20 367L12 380L22 513L146 509Z" />
<glyph unicode="8" glyph-name="eight" horiz-adv-x="502" d="M348 596T396 556T445 447Q445 405 423 373T360 314V307Q406 284 433 252T460 169Q460 86 400 38T237 -10Q142 -10 90 32T38 142Q38 192 65 224T145 280V287Q104 309 80 342T55 425Q55 504 112 550T264
596Q348 596 396 556ZM220 488T202 473T184 431Q184 402 205 385T266 351Q293 368 307 386T321 429Q321 456 303 472T253 488Q220 488 202 473ZM203 227T186 210T169 163Q169 132 190 114T250 95Q289 95 310 113T331 157Q331 187 308 204T238 240Q203 227 186 210Z"
/>
<glyph unicode="9" glyph-name="nine" horiz-adv-x="489" d="M349 520T405 459T462 292Q462 173 387 74T174 -88H166L61 -18V-2Q159 35 212 71T291 154L284 162Q241 142 197 142Q144 142 106 166T48 230T28 319Q28 372 53 418T127 492T248 520Q349 520 405 459ZM278
252T318 273V290Q318 356 302 386T243 417Q208 417 190 397T171 336Q171 252 245 252Q278 252 318 273Z" />
<glyph unicode=":" glyph-name="colon" horiz-adv-x="228" d="M405 158T425 137T446 79Q446 39 423 16T362 -8Q324 -8 304 13T284 72Q284 111 306 134T368 158Q405 158 425 137ZM149 418T169 397T190 339Q190 299 167 276T106 252Q68 252 48 273T28 332Q28 371
50 394T112 418Q149 418 169 397Z" />
<glyph unicode=";" glyph-name="semicolon" horiz-adv-x="228" d="M447 113T447 59Q447 9 415 -38T314 -133L263 -89L262 -77Q318 -30 318 25Q318 61 285 91L286 105Q346 138 401 153Q447 113 447 59ZM149 418T169 397T190 339Q190 299 167 276T106 252Q68 252
48 273T28 332Q28 371 50 394T112 418Q149 418 169 397Z" />
<glyph unicode="&lt;" glyph-name="less" horiz-adv-x="480" d="M446 384L440 373L143 266V258L440 154L418 65L405 55L33 194V322L43 336L413 475L446 384Z" />
<glyph unicode="=" glyph-name="equal" horiz-adv-x="480" d="M461 400L453 304H30L20 315L28 410H450L461 400ZM461 457L453 361H30L20 372L28 467H450L461 457Z" />
<glyph unicode="&gt;" glyph-name="greater" horiz-adv-x="480" d="M437 336L447 322V194L75 55L62 65L40 154L337 258V266L40 373L34 384L67 475L437 336Z" />
<glyph unicode="?" glyph-name="question" horiz-adv-x="345" d="M221 665T295 623T369 508Q369 467 345 430T274 368L208 330L206 325L212 246L102 230L91 241L79 363L85 374L173 414Q225 441 225 484Q225 519 186 537T52 562L40 576L69 664L84 672Q221 665 295
623ZM200 158T220 137T241 79Q241 39 218 16T157 -8Q119 -8 99 13T79 72Q79 111 101 134T163 158Q200 158 220 137Z" />
<glyph unicode="@" glyph-name="at" horiz-adv-x="853" d="M836 166T734 84T442 0L461 135H447Q401 51 348 -6H329Q267 13 242 52T216 153Q216 217 241 279T319 389T447 459H452L536 441L620 463L631 456L584 113V108Q654 121 694 176T734 313Q734 383 702 436T612
518T474 547Q372 547 294 503T172 380T129 202Q129 99 176 24T308 -90T508 -129L514 -143L472 -216Q337 -215 236 -169T80 -32T24 184Q24 315 81 420T241 585T480 645Q587 645 667 606T792 492T836 318Q836 166 734 84ZM383 127T415 176T486 318L488 337L424 356Q386
356 365 316T344 207Q344 127 367 127Q383 127 415 176Z" />
<glyph unicode="A" glyph-name="A" horiz-adv-x="611" d="M598 0H433L416 93L407 130L291 132L191 129L183 103L165 0H6L214 645H409L598 0ZM376 252L313 497H303L228 252L302 250L376 252Z" />
<glyph unicode="B" glyph-name="B" horiz-adv-x="600" d="M510 317T540 281T570 184Q570 87 493 41T262 -6Q162 -6 71 0H70L79 191L70 645L324 646Q427 646 485 604T543 483Q543 432 518 394T445 333Q510 317 540 281ZM378 502T353 518T261 534H229L225 377L311
373Q345 383 361 404T378 461Q378 502 353 518ZM346 106T376 128T406 191Q406 222 387 240T328 268L223 266L222 207L225 110Q277 106 292 106Q346 106 376 128Z" />
<glyph unicode="C" glyph-name="C" horiz-adv-x="516" d="M434 654T509 621L480 488L469 482Q441 501 406 511T336 522Q264 522 230 477T195 335Q195 125 344 125Q377 125 414 134T481 159L495 151L482 18Q412 -10 331 -10Q180 -10 102 74T24 317Q24 478 107 566T342
654Q434 654 509 621Z" />
<glyph unicode="D" glyph-name="D" horiz-adv-x="659" d="M485 649T560 572T635 348Q635 176 549 84T303 -8Q211 -8 71 0H70L79 191L70 645H71L343 649Q485 649 560 572ZM466 115T466 309Q466 423 434 472T330 521Q277 521 233 517L227 207L229 123Q288 115 333
115Q466 115 466 309Z" />
<glyph unicode="E" glyph-name="E" horiz-adv-x="522" d="M497 132L506 120L496 0H70L79 191L70 645H502L511 633L500 513L343 519L233 518L231 389H336L441 392L450 380L440 260L325 263H228L227 207L229 127L335 126L497 132Z" />
<glyph unicode="F" glyph-name="F" horiz-adv-x="466" d="M233 518L230 368H311L423 371L432 359L422 239L299 242H228L227 207L233 0H70L79 191L70 645H474L483 633L472 513L316 519L233 518Z" />
<glyph unicode="G" glyph-name="G" horiz-adv-x="597" d="M480 654T559 619L525 474H511Q462 501 424 512T342 524Q288 524 256 505T209 440T193 317Q193 240 208 197T255 134T345 115Q373 115 410 125L411 170L408 275L557 286L555 197L556 32Q437 -10 331 -10Q178
-10 101 72T24 309Q24 477 114 565T372 654Q480 654 559 619Z" />
<glyph unicode="H" glyph-name="H" horiz-adv-x="702" d="M628 207L634 0H472L480 191L479 256L349 257L234 254L233 207L239 0H77L85 191L77 645H241L236 388L359 386L477 388L472 645H637L628 207Z" />
<glyph unicode="I" glyph-name="I" horiz-adv-x="308" d="M227 207L233 0H70L79 191L70 645H236L227 207Z" />
<glyph unicode="J" glyph-name="J" horiz-adv-x="346" d="M268 213L270 122Q270 63 251 22T186 -51T62 -109L16 -24V-10Q74 19 97 49T120 126V197L114 529L17 526L7 537L14 645H277L268 213Z" />
<glyph unicode="K" glyph-name="K" horiz-adv-x="602" d="M486 190T615 34L613 16Q534 -3 453 -11L434 -1Q311 179 229 318L227 207L233 0H71L79 191L71 645H235L230 357L387 580L423 645H596L384 341Q486 190 615 34Z" />
<glyph unicode="L" glyph-name="L" horiz-adv-x="441" d="M440 121L429 0H66L75 191L66 645H231L222 207L225 133H430L440 121Z" />
<glyph unicode="M" glyph-name="M" horiz-adv-x="801" d="M759 0H616L608 196L590 408H580L452 65H328L216 408H205L185 211L172 0H37L101 645H288L311 551L394 275H404L494 548L520 645H704L759 0Z" />
<glyph unicode="N" glyph-name="N" horiz-adv-x="701" d="M622 204L628 0H452L223 399H213L212 227L218 0H71L79 190L71 645H246L476 246H486L482 639L631 648L622 204Z" />
<glyph unicode="O" glyph-name="O" horiz-adv-x="647" d="M474 655T549 573T624 338Q624 172 542 81T311 -11Q174 -11 99 73T24 313Q24 477 105 566T336 655Q474 655 549 573ZM275 525T247 507T206 447T193 334Q193 249 206 201T247 131T325 110Q373 110 401 128T441
189T454 304Q454 388 441 436T400 504T322 525Q275 525 247 507Z" />
<glyph unicode="P" glyph-name="P" horiz-adv-x="570" d="M446 646T502 594T559 446Q559 371 525 315T429 227T285 196H227L233 0H70L79 191L70 645L342 646Q446 646 502 594ZM352 326T370 354T389 430Q389 480 365 504T288 530L234 527L229 317L314 313Q352 326
370 354Z" />
<glyph unicode="Q" glyph-name="Q" horiz-adv-x="654" d="M738 -97Q705 -161 661 -200L649 -206Q475 -132 330 -11H312Q174 -11 99 73T24 313Q24 477 105 566T336 655Q474 655 549 573T624 337Q624 224 586 145T475 27Q599 -45 732 -81L738 -97ZM193 249T206 202T248
133T326 112Q373 112 400 130T441 191T454 305Q454 388 441 435T399 504T321 525Q274 525 246 507T206 447T193 333Q193 249 206 202Z" />
<glyph unicode="R" glyph-name="R" horiz-adv-x="607" d="M528 126T595 38L593 20Q517 -5 432 -11L416 2Q356 114 312 207H227L233 0H70L79 191L70 645L342 646Q447 646 503 596T560 451Q560 392 530 341T445 255Q528 126 595 38ZM230 329L317 325Q354 339 371
366T389 436Q389 483 365 505T288 530L234 527L230 329Z" />
<glyph unicode="S" glyph-name="S" horiz-adv-x="510" d="M379 655T467 621L441 485L417 476Q379 501 341 515T275 529Q242 529 223 513T203 474Q203 449 227 432T305 390Q361 364 395 343T455 285T481 197Q481 139 450 92T360 18T226 -10Q125 -10 26 30L49 175L66
185Q108 150 157 131T243 111Q281 111 300 128T320 168Q320 195 295 213T217 255Q163 280 129 301T69 359T44 447Q44 506 75 553T163 628T293 655Q379 655 467 621Z" />
<glyph unicode="T" glyph-name="T" horiz-adv-x="510" d="M499 633L490 514L364 520H336L331 207L337 0H175L184 191L179 520H149L22 514L12 526L22 645H490L499 633Z" />
<glyph unicode="U" glyph-name="U" horiz-adv-x="644" d="M584 318L583 225Q584 112 514 51T313 -10Q187 -10 121 50T57 222L59 320L55 645H217L210 244Q209 180 236 150T320 120Q378 120 405 149T432 240L425 645H590L584 318Z" />
<glyph unicode="V" glyph-name="V" horiz-adv-x="599" d="M391 0H196L7 645H172L189 551L292 148H302L422 542L440 645H599L391 0Z" />
<glyph unicode="W" glyph-name="W" horiz-adv-x="907" d="M701 0H530L449 278H439L359 0H187L18 645H176L186 557L279 165H289L384 491L344 645H508L522 541L619 165H629L738 548L755 645H905L701 0Z" />
<glyph unicode="X" glyph-name="X" horiz-adv-x="638" d="M423 339L625 0H431L399 70L313 212L214 62L184 0H18L218 315L16 645H211L243 574L326 439L414 581L443 645H613L423 339Z" />
<glyph unicode="Y" glyph-name="Y" horiz-adv-x="573" d="M353 175L360 0H198L206 175L205 210L-1 645H170L185 597L279 372H290L396 591L416 645H582L355 214L353 175Z" />
<glyph unicode="Z" glyph-name="Z" horiz-adv-x="557" d="M522 529L220 122H414L528 130L534 122L521 -4L362 0H116L29 -5V111L334 523H150L36 514L30 521L42 647L180 645H454L522 646V529Z" />
<glyph unicode="[" glyph-name="bracketleft" horiz-adv-x="298" d="M302 640V570L200 556V-33L302 -46V-117L295 -125L71 -115L80 262L71 638L295 648L302 640Z" />
<glyph unicode="\" glyph-name="backslash" horiz-adv-x="282" d="M-17 668L-5 681H102L309 -104L299 -116H190L-17 668Z" />
<glyph unicode="]" glyph-name="bracketright" horiz-adv-x="298" d="M-4 -117V-47L98 -33V556L-4 569V640L3 648L227 638L218 261L227 -115L3 -125L-4 -117Z" />
<glyph unicode="^" glyph-name="asciicircum" horiz-adv-x="449" d="M435 152L424 139L336 118L232 390H224L116 118L105 111L15 144L153 490L168 499H295L435 152Z" />
<glyph unicode="_" glyph-name="underscore" horiz-adv-x="442" d="M457 -101L449 -189H-5L-15 -178L-7 -90H447L457 -101Z" />
<glyph unicode="`" glyph-name="grave" horiz-adv-x="388" d="M222 659T325 581L288 521L273 520Q166 578 67 635L64 649L121 736L135 737Q222 659 325 581Z" />
<glyph unicode="a" glyph-name="a" horiz-adv-x="490" d="M333 478T379 443T425 341Q425 318 423 288T420 231Q415 159 415 132Q415 118 419 112T435 106Q444 106 457 110L468 101L454 18Q421 -5 373 -9Q343 -6 322 12T292 63H285Q235 10 183 -10Q109 -9 67 30T24
136Q24 239 132 257L280 282V311Q280 342 267 355T223 369Q193 369 159 356T79 315L69 322L51 425Q96 450 148 464T250 478Q333 478 379 443ZM194 191Q179 188 172 179T164 152Q164 128 176 115T211 102Q243 102 279 136L280 208L194 191Z" />
<glyph unicode="b" glyph-name="b" horiz-adv-x="528" d="M408 474T456 414T504 247Q504 123 442 56T269 -11Q214 -11 148 13L72 -12L56 3L64 191L57 691L215 702L210 401H215Q241 427 266 444T320 474Q408 474 456 414ZM356 90T356 223Q354 348 275 348Q241 348
209 320L207 211L208 102Q240 90 264 90Q356 90 356 223Z" />
<glyph unicode="c" glyph-name="c" horiz-adv-x="384" d="M324 478T378 454L352 330L340 325Q313 338 294 344T255 350Q215 350 195 323T174 243Q174 113 265 113Q301 113 358 134L370 125L354 6Q294 -11 230 -11Q132 -11 78 51T23 227Q23 345 84 411T255 478Q324
478 378 454Z" />
<glyph unicode="d" glyph-name="d" horiz-adv-x="530" d="M462 207L464 133Q464 118 468 112T482 106Q491 106 504 110L515 101L501 18Q468 -5 420 -9Q388 -6 366 12T333 61H325Q284 20 228 -8Q131 -8 77 55T23 229Q23 349 86 412T262 476Q291 476 315 471L313
691L470 702L462 207ZM213 370T192 345T171 260Q171 184 191 148T251 112Q286 112 318 145L319 192L317 355Q284 370 255 370Q213 370 192 345Z" />
<glyph unicode="e" glyph-name="e" horiz-adv-x="477" d="M430 208L168 206Q175 154 204 129T286 104Q339 104 426 135L438 127L414 14Q334 -11 269 -11Q154 -11 89 54T23 233Q23 347 86 412T257 478Q350 478 401 428T453 289Q453 260 447 228L430 208ZM316 306Q316
375 256 375Q222 375 200 353T170 288L314 292L316 306Z" />
<glyph unicode="f" glyph-name="f" horiz-adv-x="342" d="M361 704T409 695L399 579L389 571Q335 593 302 593Q248 593 247 534L246 464H357L361 455L354 370H244L242 207L249 0H91L99 192L97 370H26L22 378L29 464H96L95 506Q95 601 153 652T318 704Q361 704 409 695Z" />
<glyph unicode="g" glyph-name="g" horiz-adv-x="507" d="M487 386T448 383L446 379Q459 353 459 319Q459 243 402 198T247 153Q214 153 190 157Q180 146 180 137Q180 120 202 114T276 102Q338 95 377 86T446 49T476 -27Q476 -76 447 -114T364 -174T240 -196Q145
-196 93 -159T41 -60Q75 -19 122 10V15Q89 28 71 51T52 111Q87 149 123 172V178Q85 197 66 230T46 308Q46 386 103 431T258 476Q314 476 362 457Q436 472 508 500L519 491V394Q487 386 448 383ZM323 245T323 315Q323 349 307 364T255 380Q217 380 200 365T182 316Q182
280 199 263T251 245Q323 245 323 315ZM344 -31T317 -22T231 -6L201 -3Q167 -28 167 -54Q167 -79 189 -93T255 -108Q297 -108 320 -95T344 -55Q344 -31 317 -22Z" />
<glyph unicode="h" glyph-name="h" horiz-adv-x="540" d="M332 0L341 279Q341 348 285 348Q252 348 209 318L207 207L214 0H56L64 192L58 691L215 702L210 401H216Q271 453 335 474Q411 474 450 440T488 341L485 207L491 0H332Z" />
<glyph unicode="i" glyph-name="i" horiz-adv-x="271" d="M62 191L57 458L214 470L207 207L213 0H55L62 191ZM175 708T195 687T216 629Q216 589 193 566T132 542Q94 542 74 563T54 622Q54 661 76 684T138 708Q175 708 195 687Z" />
<glyph unicode="j" glyph-name="j" horiz-adv-x="294" d="M238 468L229 207L236 30Q236 -49 195 -103T62 -196L8 -126V-112Q49 -90 67 -57T86 26V191L82 370H9L0 379L7 464H86L233 471L238 468ZM186 708T206 687T227 629Q227 589 204 566T143 542Q105 542 85 563T65
622Q65 661 87 684T149 708Q186 708 206 687Z" />
<glyph unicode="k" glyph-name="k" horiz-adv-x="513" d="M207 207L214 0H56L64 192L58 691L215 702L207 207ZM359 258Q410 170 507 26L506 10Q454 -1 358 -11L342 -3Q262 120 208 244V254L311 416L334 468H498L359 258Z" />
<glyph unicode="l" glyph-name="l" horiz-adv-x="271" d="M207 207L214 0H56L64 192L58 691L215 702L207 207Z" />
<glyph unicode="m" glyph-name="m" horiz-adv-x="810" d="M612 280Q614 349 556 349Q521 349 481 320L478 207L485 0H328L336 280Q338 349 279 349Q245 349 203 318V207L210 0H53L60 191L54 458L203 470V401H210Q265 453 329 474Q385 474 421 455T472 399H478Q533
451 606 474Q681 474 720 440T758 341L755 207L761 0H604L612 280Z" />
<glyph unicode="n" glyph-name="n" horiz-adv-x="535" d="M336 279Q338 348 280 348Q245 348 204 318V207L211 0H53L60 191L54 458L205 470V401H211Q265 452 331 474Q406 474 445 440T484 341L480 207L486 0H328L336 279Z" />
<glyph unicode="o" glyph-name="o" horiz-adv-x="495" d="M361 478T416 418T472 243Q472 119 413 54T240 -11Q134 -11 79 49T23 223Q23 347 82 412T255 478Q361 478 416 418ZM204 371T188 345T171 252Q171 191 178 157T203 108T251 93Q290 93 306 119T323 213Q323
302 306 336T244 371Q204 371 188 345Z" />
<glyph unicode="p" glyph-name="p" horiz-adv-x="523" d="M403 474T451 415T499 246Q499 123 438 56T263 -11Q239 -11 207 -6L210 -185H53L60 191L53 458L204 470V401H211Q237 428 261 445T316 474Q403 474 451 415ZM351 90T351 223Q350 348 271 348Q238 348 203
319V207L205 100Q237 90 260 90Q351 90 351 223Z" />
<glyph unicode="q" glyph-name="q" horiz-adv-x="523" d="M457 478L470 470L462 207L469 -185H311L319 20V48H311Q271 12 226 -8Q130 -8 77 55T23 227Q23 347 86 411T254 476Q286 476 313 470T374 452L457 478ZM211 370T191 344T171 255Q171 184 191 148T249 112Q285
112 318 145L319 190L316 354Q284 370 253 370Q211 370 191 344Z" />
<glyph unicode="r" glyph-name="r" horiz-adv-x="359" d="M338 469T356 467V322L340 317Q326 324 303 324Q249 324 204 266V207L211 0H53L61 191L54 458L205 470V380H212Q259 469 332 469Q338 469 356 467Z" />
<glyph unicode="s" glyph-name="s" horiz-adv-x="392" d="M295 477T359 453L339 340L320 334Q288 354 258 365T205 376Q185 376 174 367T163 344Q163 326 181 315T236 289Q278 272 304 257T349 215T369 147Q369 105 348 69T283 11T172 -11Q98 -11 15 17L34 137L48
147Q81 120 121 104T191 88Q213 88 224 98T236 123Q236 140 219 151T163 178Q122 194 95 209T49 251T29 321Q29 390 81 433T223 477Q295 477 359 453Z" />
<glyph unicode="t" glyph-name="t" horiz-adv-x="348" d="M292 116T326 131L337 119L322 28Q272 0 218 -7Q145 -3 107 31T69 126L74 217L73 370H11L6 378L13 464H72V544L217 587L228 577L224 464H334L339 455L332 370H221L215 168Q215 139 225 128T262 116Q292
116 326 131Z" />
<glyph unicode="u" glyph-name="u" horiz-adv-x="528" d="M513 101L499 18Q457 -9 413 -9Q355 3 333 70H323Q265 12 206 -6Q131 -6 91 28T51 127L54 239L49 458L201 470L199 185Q198 120 251 120Q269 120 285 127T320 150V458L470 470L461 132Q461 118 465 112T480
106Q489 106 502 110L513 101Z" />
<glyph unicode="v" glyph-name="v" horiz-adv-x="454" d="M167 387L223 147H231L299 378L316 468H454L305 0H133L7 465L154 471L167 387Z" />
<glyph unicode="w" glyph-name="w" horiz-adv-x="709" d="M164 392L209 158H217L274 383L291 468H444L453 392L501 158H510L564 383L581 468H713L571 0H422L363 272H352L283 0H128L10 465L153 471L164 392Z" />
<glyph unicode="x" glyph-name="x" horiz-adv-x="473" d="M198 410L248 323L300 416L326 467H463L333 237L467 5L300 -7L276 57L226 147L170 50L147 0H9L139 234L8 464L177 471L198 410Z" />
<glyph unicode="y" glyph-name="y" horiz-adv-x="457" d="M161 391L231 156H240L308 377L326 468H460L314 39Q291 -30 260 -73T183 -143T62 -193L51 -192Q12 -154 -18 -98L-12 -83Q45 -74 86 -55T165 0L-5 465L145 471L161 391Z" />
<glyph unicode="z" glyph-name="z" horiz-adv-x="430" d="M142 468H343L400 469L401 375L190 100H313L402 107L410 97L400 -3L273 0H97L24 -4V89L237 368H121L33 361L24 371L35 470L142 468Z" />
<glyph unicode="{" glyph-name="braceleft" horiz-adv-x="298" d="M254 658T290 647L296 636L283 557Q263 562 249 562Q198 562 198 506Q198 487 210 443Q222 399 222 378Q222 344 205 318T153 275V269Q187 254 204 227T222 168Q222 146 210 100Q198 58 198 39Q198
-18 249 -18Q263 -18 283 -13L296 -92L290 -103Q257 -113 219 -113Q149 -113 112 -82T74 7Q74 41 86 97Q95 140 95 161Q95 217 32 236V308Q95 329 95 384Q95 404 86 447Q74 503 74 537Q74 595 111 626T219 658Q254 658 290 647Z" />
<glyph unicode="|" glyph-name="bar" horiz-adv-x="304" d="M214 795L210 292L211 -249L103 -258L91 -244L92 280L93 797L203 806L214 795Z" />
<glyph unicode="}" glyph-name="braceright" horiz-adv-x="298" d="M44 -113T8 -102L2 -91L15 -12Q35 -17 49 -17Q100 -17 100 39Q100 58 88 102Q76 146 76 167Q76 201 93 227T145 270V276Q111 291 94 318T76 377Q76 399 88 445Q100 487 100 506Q100 563 49 563Q35
563 15 558L2 637L8 648Q41 658 79 658Q149 658 186 627T224 538Q224 504 212 448Q203 405 203 384Q203 329 266 309V237Q203 216 203 161Q203 141 212 98Q224 42 224 8Q224 -50 187 -81T79 -113Q44 -113 8 -102Z" />
<glyph unicode="~" glyph-name="asciitilde" horiz-adv-x="480" d="M136 226T123 215T95 189T76 168H62L20 220V234L106 335L120 342Q157 335 223 314Q312 287 332 287Q346 287 359 298T387 325T406 345H419L460 293V280L375 178L361 173Q334 177 250 202Q241
204 203 215T150 226Q136 226 123 215Z" />
<glyph unicode="&#xa0;" glyph-name="uni00A0" horiz-adv-x="145" />
<glyph unicode="&#xa1;" glyph-name="exclamdown" horiz-adv-x="268" d="M113 313T93 334T73 392Q73 432 95 455T156 479Q194 479 214 458T235 399Q235 360 212 337T150 313Q113 313 93 334ZM51 -178L93 225L183 238L198 222L210 -171L196 -189L69 -197L51 -178Z" />
<glyph unicode="&#xa2;" glyph-name="cent" horiz-adv-x="382" d="M301 152T358 173L370 164L354 45Q316 35 282 31L273 -126H167L155 -114L164 37Q96 56 60 115T23 266Q23 365 67 428T191 510L199 659H302L318 645L310 512Q350 506 378 493L352 369L340 364Q313
377 294 383T255 389Q215 389 195 362T174 282Q174 152 265 152Q301 152 358 173Z" />
<glyph unicode="&#xa3;" glyph-name="sterling" horiz-adv-x="460" d="M437 103L426 -4L287 0H21L15 8L22 96Q61 105 78 127T95 191L94 262H21L16 269L23 348H94L93 404Q92 496 149 546T315 596Q372 596 432 581L423 471L413 464Q349 494 301 494Q266 494 250
478T233 428L232 348H370L374 340L368 262H231L230 222Q230 182 222 159T190 109V104H330L432 111L437 103Z" />
<glyph unicode="&#xa4;" glyph-name="currency" horiz-adv-x="434" d="M439 496V483L369 421Q389 386 389 345Q389 312 372 276L442 219L445 204L376 132H363L302 202Q269 181 225 181Q189 181 155 199L98 130L84 128L11 196L12 210L81 270Q61 304 61 345Q61 382
79 416L10 474L8 488L76 560L89 559L151 489Q185 509 225 509Q258 509 294 492L353 562L367 565L439 496ZM189 425T167 403T145 345Q145 309 167 287T225 265Q261 265 283 287T305 345Q305 381 283 403T225 425Q189 425 167 403Z" />
<glyph unicode="&#xa5;" glyph-name="yen" horiz-adv-x="548" d="M385 244L346 177H519L526 171L521 106H335L340 0H203L208 106H36L31 114L35 177H197L162 244H36L31 252L35 316H125L27 507H171L184 467L272 299H280L378 462L396 507H536L426 316H519L526 310L521
244H385Z" />
<glyph unicode="&#xa6;" glyph-name="brokenbar" horiz-adv-x="304" d="M214 795L211 379L103 365L92 375V797L203 806L214 795ZM210 147L211 -249L103 -258L91 -244L92 148L198 161L210 147Z" />
<glyph unicode="&#xa7;" glyph-name="section" horiz-adv-x="437" d="M374 118T374 62Q374 19 349 -17T278 -75T175 -97Q141 -97 96 -89T16 -68L35 53L49 62Q84 34 122 18T191 2Q215 2 227 12T240 35Q240 50 222 62T165 91Q120 111 91 129T40 176T18 247Q18 292
42 332T107 399Q59 437 59 493Q59 537 84 574T155 633T258 655Q289 655 325 649T391 631L372 515L354 509Q321 530 290 541T237 553Q216 553 204 543T192 519Q192 504 209 493T267 464Q314 443 342 426T393 380T415 309Q415 265 390 226T323 160Q374 118 374 62ZM151
262T173 245T239 207Q281 233 281 268Q281 294 259 310T190 350Q151 322 151 287Q151 262 173 245Z" />
<glyph unicode="&#xa8;" glyph-name="dieresis" horiz-adv-x="388" d="M139 696T157 678T176 626Q176 591 156 571T101 550Q67 550 50 568T32 620Q32 655 52 675T107 696Q139 696 157 678ZM321 696T339 678T357 626Q357 591 337 571T283 550Q249 550 232 568T214
620Q214 655 234 675T289 696Q321 696 339 678Z" />
<glyph unicode="&#xa9;" glyph-name="copyright" horiz-adv-x="688" d="M433 598T501 560T607 453T645 293Q645 202 608 133T502 26T343 -12Q254 -12 186 26T80 133T42 293Q42 384 79 453T185 560T343 598Q433 598 501 560ZM270 546T214 515T126 426T95 293Q95
218 126 161T213 72T343 40Q417 40 473 71T561 160T592 293Q592 368 561 425T474 514T343 546Q270 546 214 515ZM412 464T456 451L437 368L431 364Q417 371 399 375T365 379Q331 379 316 362T301 304Q301 257 317 235T371 213Q405 213 437 223L446 219L438 137Q409
128 363 128Q277 128 234 170T191 293Q191 374 237 419T369 464Q412 464 456 451Z" />
<glyph unicode="&#xaa;" glyph-name="ordfeminine" horiz-adv-x="350" d="M241 653T273 629T305 558Q305 530 302 485L300 424Q300 405 311 405Q321 405 325 408L333 401L322 340Q309 330 297 326T268 321Q241 321 228 331T206 369H202Q172 334 131 320Q80 321
51 348T21 422Q21 495 97 507L196 521L197 536Q197 555 189 563T161 572Q122 572 62 538L54 542L41 618Q73 635 109 644T180 653Q241 653 273 629ZM149 460Q127 455 127 433Q127 418 134 410T156 401Q176 401 196 418V468L149 460Z" />
<glyph unicode="&#xab;" glyph-name="guillemotleft" horiz-adv-x="444" d="M239 214V238L370 419L445 380L448 365L354 228L448 92L445 78L370 39L239 214ZM46 214V238L177 419L252 380L255 365L161 228L255 92L252 78L177 39L46 214Z" />
<glyph unicode="&#xac;" glyph-name="logicalnot" horiz-adv-x="480" d="M435 303V45L339 38L328 48V205H29L19 216L27 311H429L435 303Z" />
<glyph unicode="&#xad;" glyph-name="uni00AD" horiz-adv-x="302" d="M275 316V218L38 181L26 193V291L263 327L275 316Z" />
<glyph unicode="&#xae;" glyph-name="registered" horiz-adv-x="449" d="M310 703T361 651T413 514Q413 429 362 377T225 325Q140 325 88 377T36 514Q36 599 88 651T225 703Q310 703 361 651ZM293 362T335 404T377 514Q377 582 335 624T225 666Q157 666 115 624T73
514Q73 446 115 404T225 362Q293 362 335 404ZM311 540T302 525T274 499Q289 477 323 435L322 429Q306 423 269 419L262 423Q244 453 229 483H201L204 423H149L151 479L149 618L240 619Q274 619 292 603T311 557Q311 540 302 525ZM254 566T246 572T221 579L204
578L202 524L232 522Q243 528 248 535T254 553Q254 566 246 572Z" />
<glyph unicode="&#xaf;" glyph-name="overscore" horiz-adv-x="388" d="M343 662L335 574H57L47 585L54 673H332L343 662Z" />
<glyph unicode="&#xb0;" glyph-name="degree" horiz-adv-x="292" d="M201 655T239 617T278 524Q278 469 240 431T146 392Q110 392 80 409T32 457T14 524Q14 560 31 590T79 637T146 655Q201 655 239 617ZM118 589T99 571T80 524Q80 496 99 477T146 458Q175 458
193 477T212 524Q212 552 193 570T146 589Q118 589 99 571Z" />
<glyph unicode="&#xb1;" glyph-name="plusminus" horiz-adv-x="480" d="M294 469V311H450L461 301L453 205H294V45L198 38L187 48V205H30L20 216L28 311H187V471L283 479L294 469ZM461 -32L453 -128H30L20 -117L28 -22H450L461 -32Z" />
<glyph unicode="&#xb2;" glyph-name="uni00B2" horiz-adv-x="367" d="M242 706T278 681T314 609Q314 580 296 546T235 461L190 407L192 404H269L338 410L344 402L330 307L231 312H63L36 310L30 315V386L123 482Q160 523 175 543T190 580Q190 592 182 599T156 607Q135
607 110 596T63 564H49L29 655Q113 706 187 706Q242 706 278 681Z" />
<glyph unicode="&#xb3;" glyph-name="uni00B3" horiz-adv-x="328" d="M216 707T253 681T290 611Q290 586 276 562T229 520V516Q299 496 299 426Q299 371 248 338T112 305Q71 305 31 313L24 399L32 406Q77 394 114 394Q180 394 180 430Q180 459 139 460H83L77 467L79
547L111 548Q134 549 149 559T165 587Q165 613 128 613Q98 613 50 590H37L18 670Q48 688 84 697T155 707Q216 707 253 681Z" />
<glyph unicode="&#xb4;" glyph-name="acute" horiz-adv-x="388" d="M268 736L325 649L322 635Q223 578 116 520L102 521L65 581Q170 661 254 737L268 736Z" />
<glyph unicode="&#xb5;" glyph-name="uni00B5" horiz-adv-x="546" d="M523 101L509 18Q467 -9 423 -9Q365 3 343 70H333Q298 25 251 -6Q218 -6 196 1L209 -185H60L64 191L59 458L209 470V190L208 184L209 185Q209 120 261 120Q279 120 295 127T330 149V458L480
470L471 132Q471 118 475 112T490 106Q500 106 513 110L523 101Z" />
<glyph unicode="&#xb6;" glyph-name="paragraph" horiz-adv-x="539" d="M525 634L515 524H451L445 203L447 139Q447 58 401 6T238 -89L197 -17V-3Q251 26 274 56T297 133V186L291 525H252Q221 518 205 491T189 421Q189 380 208 344T263 283L208 203Q117 226 68
283T19 426Q19 531 85 588T275 645H516L525 634Z" />
<glyph unicode="&#xb7;" glyph-name="middot" horiz-adv-x="228" d="M154 339T174 318T195 260Q195 220 172 197T111 173Q73 173 53 194T33 253Q33 292 55 315T117 339Q154 339 174 318Z" />
<glyph unicode="&#xb8;" glyph-name="cedilla" horiz-adv-x="388" d="M215 -46L249 -65Q272 -77 281 -92T291 -126Q291 -160 264 -182T190 -204Q146 -204 104 -178L114 -114L121 -111Q136 -125 151 -132T180 -140Q201 -140 201 -122Q201 -112 186 -104L137 -77L160
29H231L215 -46Z" />
<glyph unicode="&#xb9;" glyph-name="uni00B9" horiz-adv-x="284" d="M216 694L211 451L215 312H90L95 439V572L15 557L7 563V658L199 706L216 694Z" />
<glyph unicode="&#xba;" glyph-name="ordmasculine" horiz-adv-x="351" d="M255 653T293 613T331 493Q331 407 290 363T169 319Q95 319 57 360T19 480Q19 566 60 609T181 653Q255 653 293 613ZM149 573T140 556T130 494Q130 438 140 417T177 396Q202 396 212 414T222
479Q222 533 212 553T174 573Q149 573 140 556Z" />
<glyph unicode="&#xbb;" glyph-name="guillemotright" horiz-adv-x="444" d="M398 246V222L267 41L192 80L189 95L283 232L189 368L192 382L267 421L398 246ZM460 246V222L329 41L254 80L251 95L345 232L251 368L254 382L329 421L460 246Z" />
<glyph unicode="&#xbc;" glyph-name="onequarter" horiz-adv-x="776" d="M216 639L211 396L215 257H90L95 384V517L15 502L7 508V603L199 651L216 639ZM586 650L595 630L130 -93L63 -52L57 -37L523 689L586 650ZM748 78L698 80L703 8L696 0L599 -5L593 2L595 81H500L427
78L419 88V162L584 389H698L696 170H746L753 160L748 78ZM524 170H597V260H590L524 170Z" />
<glyph unicode="&#xbd;" glyph-name="onehalf" horiz-adv-x="769" d="M216 639L211 396L215 257H90L95 384V517L15 502L7 508V603L199 651L216 639ZM586 650L595 630L130 -93L63 -52L57 -37L523 689L586 650ZM644 394T680 369T716 297Q716 268 698 234T637 149L592
95L594 92H671L740 98L746 90L732 -5L633 0H465L438 -2L432 3V74L525 170Q562 211 577 231T592 268Q592 280 584 287T558 295Q537 295 512 284T465 252H451L431 343Q515 394 589 394Q644 394 680 369Z" />
<glyph unicode="&#xbe;" glyph-name="threequarters" horiz-adv-x="820" d="M216 652T253 626T290 556Q290 531 276 507T229 465V461Q299 441 299 371Q299 316 248 283T112 250Q71 250 31 258L24 344L32 351Q77 339 114 339Q180 339 180 375Q180 404 139 405H83L77
412L79 492L111 493Q134 494 149 504T165 532Q165 558 128 558Q98 558 50 535H37L18 615Q48 633 84 642T155 652Q216 652 253 626ZM630 650L639 630L174 -93L107 -52L101 -37L567 689L630 650ZM792 78L742 80L747 8L740 0L643 -5L637 2L639 81H544L471 78L463 88V162L628
389H742L740 170H790L797 160L792 78ZM568 170H641V260H634L568 170Z" />
<glyph unicode="&#xbf;" glyph-name="questiondown" horiz-adv-x="345" d="M149 313T129 334T108 392Q108 432 131 455T192 479Q230 479 250 458T270 399Q270 360 248 337T186 313Q149 313 129 334ZM128 -194T54 -152T-20 -37Q-20 4 4 41T75 103L141 141L143 146L137
225L247 241L258 230L270 108L264 97L176 57Q124 30 124 -13Q124 -48 163 -66T297 -91L309 -105L280 -193L265 -201Q128 -194 54 -152Z" />
<glyph unicode="&#xc0;" glyph-name="Agrave" horiz-adv-x="611" d="M598 0H433L416 93L407 130L291 132L191 129L183 103L165 0H6L214 645H409L598 0ZM376 252L313 497H303L228 252L302 250L376 252ZM333 838T442 784L417 718L403 714Q274 755 178 789L173 802L213
897L228 900Q333 838 442 784Z" />
<glyph unicode="&#xc1;" glyph-name="Aacute" horiz-adv-x="611" d="M598 0H433L416 93L407 130L291 132L191 129L183 103L165 0H6L214 645H409L598 0ZM376 252L313 497H303L228 252L302 250L376 252ZM419 897L459 802L454 789Q356 753 229 714L215 718L190 784Q301
839 404 900L419 897Z" />
<glyph unicode="&#xc2;" glyph-name="Acircumflex" horiz-adv-x="611" d="M598 0H433L416 93L407 130L291 132L191 129L183 103L165 0H6L214 645H409L598 0ZM376 252L313 497H303L228 252L302 250L376 252ZM152 788Q228 839 293 898H323Q391 837 465 788L437 725H422L377
749Q363 757 346 766T309 787L195 725H180L152 788Z" />
<glyph unicode="&#xc3;" glyph-name="Atilde" horiz-adv-x="611" d="M598 0H433L416 93L407 130L291 132L191 129L183 103L165 0H6L214 645H409L598 0ZM376 252L313 497H303L228 252L302 250L376 252ZM490 849V836L416 737L402 731Q383 733 356 740T319 750Q266
766 248 766Q235 766 223 756T200 732T183 712H169L123 758V771L197 870L211 875Q233 872 298 855Q351 840 365 840Q378 840 389 850T412 874T430 895H444L490 849Z" />
<glyph unicode="&#xc4;" glyph-name="Adieresis" horiz-adv-x="611" d="M598 0H433L416 93L407 130L291 132L191 129L183 103L165 0H6L214 645H409L598 0ZM376 252L313 497H303L228 252L302 250L376 252ZM251 873T269 855T288 803Q288 768 268 748T213 727Q179
727 162 745T144 797Q144 832 164 852T219 873Q251 873 269 855ZM433 873T451 855T469 803Q469 768 449 748T395 727Q361 727 344 745T326 797Q326 832 346 852T401 873Q433 873 451 855Z" />
<glyph unicode="&#xc5;" glyph-name="Aring" horiz-adv-x="611" d="M598 0H433L416 93L407 130L291 132L191 129L183 103L165 0H6L214 645H409L598 0ZM376 252L313 497H303L228 252L302 250L376 252ZM359 914T384 889T409 818Q409 768 382 741T304 713Q256 713
231 738T205 812Q205 862 232 888T310 914Q359 914 384 889ZM287 849T278 841T269 815Q269 795 278 786T308 777Q327 777 336 785T345 812Q345 831 336 840T306 849Q287 849 278 841Z" />
<glyph unicode="&#xc6;" glyph-name="AE" horiz-adv-x="830" d="M825 120L814 0H406L401 93L389 202L192 146L173 103L141 0H-19L277 645H750L760 633L748 513L595 519H513L529 366L713 417L724 408L738 295L541 244L553 126H651L815 132L825 120ZM376 323L357
497H347L255 289L376 323Z" />
<glyph unicode="&#xc7;" glyph-name="Ccedilla" horiz-adv-x="516" d="M377 125T414 134T481 159L495 151L482 18Q420 -7 348 -10L340 -45L374 -64Q397 -76 406 -91T416 -125Q416 -159 389 -181T315 -203Q271 -203 229 -177L239 -113L246 -110Q261 -124 276 -131T305
-139Q326 -139 326 -121Q326 -111 311 -103L262 -76L277 -7Q152 7 88 90T24 317Q24 478 107 566T342 654Q434 654 509 621L480 488L469 482Q441 501 406 511T336 522Q264 522 230 477T195 335Q195 125 344 125Q377 125 414 134Z" />
<glyph unicode="&#xc8;" glyph-name="Egrave" horiz-adv-x="522" d="M497 132L506 120L496 0H70L79 191L70 645H502L511 633L500 513L343 519L233 518L231 389H336L441 392L450 380L440 260L325 263H228L227 207L229 127L335 126L497 132ZM312 838T421 784L396
718L382 714Q253 755 157 789L152 802L192 897L207 900Q312 838 421 784Z" />
<glyph unicode="&#xc9;" glyph-name="Eacute" horiz-adv-x="522" d="M497 132L506 120L496 0H70L79 191L70 645H502L511 633L500 513L343 519L233 518L231 389H336L441 392L450 380L440 260L325 263H228L227 207L229 127L335 126L497 132ZM398 897L438 802L433
789Q335 753 208 714L194 718L169 784Q280 839 383 900L398 897Z" />
<glyph unicode="&#xca;" glyph-name="Ecircumflex" horiz-adv-x="522" d="M497 132L506 120L496 0H70L79 191L70 645H502L511 633L500 513L343 519L233 518L231 389H336L441 392L450 380L440 260L325 263H228L227 207L229 127L335 126L497 132ZM131 788Q207 839
272 898H302Q370 837 444 788L416 725H401L356 749Q342 757 325 766T288 787L174 725H159L131 788Z" />
<glyph unicode="&#xcb;" glyph-name="Edieresis" horiz-adv-x="522" d="M497 132L506 120L496 0H70L79 191L70 645H502L511 633L500 513L343 519L233 518L231 389H336L441 392L450 380L440 260L325 263H228L227 207L229 127L335 126L497 132ZM230 873T248 855T267
803Q267 768 247 748T192 727Q158 727 141 745T123 797Q123 832 143 852T198 873Q230 873 248 855ZM412 873T430 855T448 803Q448 768 428 748T374 727Q340 727 323 745T305 797Q305 832 325 852T380 873Q412 873 430 855Z" />
<glyph unicode="&#xcc;" glyph-name="Igrave" horiz-adv-x="308" d="M227 207L233 0H70L79 191L70 645H236L227 207ZM179 838T288 784L263 718L249 714Q120 755 24 789L19 802L59 897L74 900Q179 838 288 784Z" />
<glyph unicode="&#xcd;" glyph-name="Iacute" horiz-adv-x="308" d="M227 207L233 0H70L79 191L70 645H236L227 207ZM265 897L305 802L300 789Q202 753 75 714L61 718L36 784Q147 839 250 900L265 897Z" />
<glyph unicode="&#xce;" glyph-name="Icircumflex" horiz-adv-x="308" d="M227 207L233 0H70L79 191L70 645H236L227 207ZM-2 788Q74 839 139 898H169Q237 837 311 788L283 725H268L223 749Q209 757 192 766T155 787L41 725H26L-2 788Z" />
<glyph unicode="&#xcf;" glyph-name="Idieresis" horiz-adv-x="308" d="M227 207L233 0H70L79 191L70 645H236L227 207ZM113 868T129 851T146 803Q146 771 127 752T77 732Q46 732 30 749T13 797Q13 830 32 849T83 868Q113 868 129 851ZM261 868T277 851T294 803Q294
771 275 752T225 732Q194 732 177 749T160 797Q160 830 179 849T230 868Q261 868 277 851Z" />
<glyph unicode="&#xd0;" glyph-name="Eth" horiz-adv-x="686" d="M512 649T587 572T662 348Q662 176 576 84T330 -8Q238 -8 98 0H97L106 191L105 264H21L14 275L20 371H102L97 645H98L370 649Q512 649 587 572ZM493 115T493 309Q493 423 461 472T357 521Q304 521
260 517L257 371H359L366 360L360 264H255L254 207L256 123Q315 115 360 115Q493 115 493 309Z" />
<glyph unicode="&#xd1;" glyph-name="Ntilde" horiz-adv-x="701" d="M622 204L628 0H452L223 399H213L212 227L218 0H71L79 190L71 645H246L476 246H486L482 639L631 648L622 204ZM533 849V836L459 737L445 731Q426 733 399 740T362 750Q309 766 291 766Q278 766
266 756T243 732T226 712H212L166 758V771L240 870L254 875Q276 872 341 855Q394 840 408 840Q421 840 432 850T455 874T473 895H487L533 849Z" />
<glyph unicode="&#xd2;" glyph-name="Ograve" horiz-adv-x="647" d="M474 655T549 573T624 338Q624 172 542 81T311 -11Q174 -11 99 73T24 313Q24 477 105 566T336 655Q474 655 549 573ZM275 525T247 507T206 447T193 334Q193 249 206 201T247 131T325 110Q373
110 401 128T441 189T454 304Q454 388 441 436T400 504T322 525Q275 525 247 507ZM350 838T459 784L434 718L420 714Q291 755 195 789L190 802L230 897L245 900Q350 838 459 784Z" />
<glyph unicode="&#xd3;" glyph-name="Oacute" horiz-adv-x="647" d="M474 655T549 573T624 338Q624 172 542 81T311 -11Q174 -11 99 73T24 313Q24 477 105 566T336 655Q474 655 549 573ZM275 525T247 507T206 447T193 334Q193 249 206 201T247 131T325 110Q373
110 401 128T441 189T454 304Q454 388 441 436T400 504T322 525Q275 525 247 507ZM436 897L476 802L471 789Q373 753 246 714L232 718L207 784Q318 839 421 900L436 897Z" />
<glyph unicode="&#xd4;" glyph-name="Ocircumflex" horiz-adv-x="647" d="M474 655T549 573T624 338Q624 172 542 81T311 -11Q174 -11 99 73T24 313Q24 477 105 566T336 655Q474 655 549 573ZM275 525T247 507T206 447T193 334Q193 249 206 201T247 131T325 110Q373
110 401 128T441 189T454 304Q454 388 441 436T400 504T322 525Q275 525 247 507ZM169 788Q245 839 310 898H340Q408 837 482 788L454 725H439L394 749Q380 757 363 766T326 787L212 725H197L169 788Z" />
<glyph unicode="&#xd5;" glyph-name="Otilde" horiz-adv-x="647" d="M474 655T549 573T624 338Q624 172 542 81T311 -11Q174 -11 99 73T24 313Q24 477 105 566T336 655Q474 655 549 573ZM275 525T247 507T206 447T193 334Q193 249 206 201T247 131T325 110Q373
110 401 128T441 189T454 304Q454 388 441 436T400 504T322 525Q275 525 247 507ZM507 849V836L433 737L419 731Q400 733 373 740T336 750Q283 766 265 766Q252 766 240 756T217 732T200 712H186L140 758V771L214 870L228 875Q250 872 315 855Q368 840 382 840Q395
840 406 850T429 874T447 895H461L507 849Z" />
<glyph unicode="&#xd6;" glyph-name="Odieresis" horiz-adv-x="647" d="M474 655T549 573T624 338Q624 172 542 81T311 -11Q174 -11 99 73T24 313Q24 477 105 566T336 655Q474 655 549 573ZM275 525T247 507T206 447T193 334Q193 249 206 201T247 131T325 110Q373
110 401 128T441 189T454 304Q454 388 441 436T400 504T322 525Q275 525 247 507ZM268 873T286 855T305 803Q305 768 285 748T230 727Q196 727 179 745T161 797Q161 832 181 852T236 873Q268 873 286 855ZM450 873T468 855T486 803Q486 768 466 748T412 727Q378
727 361 745T343 797Q343 832 363 852T418 873Q450 873 468 855Z" />
<glyph unicode="&#xd7;" glyph-name="multiply" horiz-adv-x="480" d="M426 384L427 369L316 258L426 147V132L353 70L241 183L127 69L54 132V146L165 258L54 369V384L127 446L241 334L353 446L426 384Z" />
<glyph unicode="&#xd8;" glyph-name="Oslash" horiz-adv-x="647" d="M574 555T599 490T624 338Q624 172 542 81T311 -11Q273 -11 236 -3L176 -127L75 -90L68 -76L127 47Q77 88 51 155T24 313Q24 477 105 566T336 655Q380 655 417 646L473 761L571 724L581 708L525
595Q574 555 599 490ZM373 110T401 128T441 189T454 304Q454 388 441 436T400 504T322 525Q275 525 247 507T206 447T193 334Q193 249 206 201T247 131T325 110Q373 110 401 128Z" />
<glyph unicode="&#xd9;" glyph-name="Ugrave" horiz-adv-x="644" d="M584 318L583 225Q584 112 514 51T313 -10Q187 -10 121 50T57 222L59 320L55 645H217L210 244Q209 180 236 150T320 120Q378 120 405 149T432 240L425 645H590L584 318ZM349 838T458 784L433
718L419 714Q290 755 194 789L189 802L229 897L244 900Q349 838 458 784Z" />
<glyph unicode="&#xda;" glyph-name="Uacute" horiz-adv-x="644" d="M584 318L583 225Q584 112 514 51T313 -10Q187 -10 121 50T57 222L59 320L55 645H217L210 244Q209 180 236 150T320 120Q378 120 405 149T432 240L425 645H590L584 318ZM435 897L475 802L470
789Q372 753 245 714L231 718L206 784Q317 839 420 900L435 897Z" />
<glyph unicode="&#xdb;" glyph-name="Ucircumflex" horiz-adv-x="644" d="M584 318L583 225Q584 112 514 51T313 -10Q187 -10 121 50T57 222L59 320L55 645H217L210 244Q209 180 236 150T320 120Q378 120 405 149T432 240L425 645H590L584 318ZM168 788Q244 839
309 898H339Q407 837 481 788L453 725H438L393 749Q379 757 362 766T325 787L211 725H196L168 788Z" />
<glyph unicode="&#xdc;" glyph-name="Udieresis" horiz-adv-x="644" d="M584 318L583 225Q584 112 514 51T313 -10Q187 -10 121 50T57 222L59 320L55 645H217L210 244Q209 180 236 150T320 120Q378 120 405 149T432 240L425 645H590L584 318ZM267 873T285 855T304
803Q304 768 284 748T229 727Q195 727 178 745T160 797Q160 832 180 852T235 873Q267 873 285 855ZM449 873T467 855T485 803Q485 768 465 748T411 727Q377 727 360 745T342 797Q342 832 362 852T417 873Q449 873 467 855Z" />
<glyph unicode="&#xdd;" glyph-name="Yacute" horiz-adv-x="573" d="M353 175L360 0H198L206 175L205 210L-1 645H170L185 597L279 372H290L396 591L416 645H582L355 214L353 175ZM397 897L437 802L432 789Q334 753 207 714L193 718L168 784Q279 839 382 900L397 897Z" />
<glyph unicode="&#xde;" glyph-name="Thorn" horiz-adv-x="578" d="M453 549T509 498T566 347Q566 232 494 169T289 105L231 104L235 0H71L79 191L73 546L71 548H73L71 645H237L235 549H347Q453 549 509 498ZM355 234T374 261T394 335Q394 385 370 408T292 433L233
429L228 225L317 221Q355 234 374 261Z" />
<glyph unicode="&#xdf;" glyph-name="germandbls" horiz-adv-x="629" d="M446 351T464 334T520 295Q555 274 577 258T614 214T630 149Q630 106 609 70T545 11T437 -11Q367 -11 289 17L308 137L322 147Q353 120 389 104T453 88Q474 88 485 97T496 121Q496 138 481
151T432 185Q396 206 372 225T330 274T312 347Q312 385 325 408T364 456Q385 477 395 493T405 532Q405 593 332 593Q245 593 244 502L240 206L247 0H89L97 190L94 370H26L22 378L29 464H92V482Q92 587 160 645T341 704Q438 704 487 663T537 557Q537 521 524 497T483
443Q464 422 455 408T446 376Q446 351 464 334Z" />
<glyph unicode="&#xe0;" glyph-name="agrave" horiz-adv-x="490" d="M333 478T379 443T425 341Q425 318 423 288T420 231Q415 159 415 132Q415 118 419 112T435 106Q444 106 457 110L468 101L454 18Q421 -5 373 -9Q343 -6 322 12T292 63H285Q235 10 183 -10Q109
-9 67 30T24 136Q24 239 132 257L280 282V311Q280 342 267 355T223 369Q193 369 159 356T79 315L69 322L51 425Q96 450 148 464T250 478Q333 478 379 443ZM194 191Q179 188 172 179T164 152Q164 128 176 115T211 102Q243 102 279 136L280 208L194 191ZM266 659T369
581L332 521L317 520Q210 578 111 635L108 649L165 736L179 737Q266 659 369 581Z" />
<glyph unicode="&#xe1;" glyph-name="aacute" horiz-adv-x="490" d="M333 478T379 443T425 341Q425 318 423 288T420 231Q415 159 415 132Q415 118 419 112T435 106Q444 106 457 110L468 101L454 18Q421 -5 373 -9Q343 -6 322 12T292 63H285Q235 10 183 -10Q109
-9 67 30T24 136Q24 239 132 257L280 282V311Q280 342 267 355T223 369Q193 369 159 356T79 315L69 322L51 425Q96 450 148 464T250 478Q333 478 379 443ZM194 191Q179 188 172 179T164 152Q164 128 176 115T211 102Q243 102 279 136L280 208L194 191ZM334 736L391
649L388 635Q289 578 182 520L168 521L131 581Q236 661 320 737L334 736Z" />
<glyph unicode="&#xe2;" glyph-name="acircumflex" horiz-adv-x="490" d="M333 478T379 443T425 341Q425 318 423 288T420 231Q415 159 415 132Q415 118 419 112T435 106Q444 106 457 110L468 101L454 18Q421 -5 373 -9Q343 -6 322 12T292 63H285Q235 10 183 -10Q109
-9 67 30T24 136Q24 239 132 257L280 282V311Q280 342 267 355T223 369Q193 369 159 356T79 315L69 322L51 425Q96 450 148 464T250 478Q333 478 379 443ZM194 191Q179 188 172 179T164 152Q164 128 176 115T211 102Q243 102 279 136L280 208L194 191ZM74 587Q136
642 224 732H255Q322 662 405 587L366 528H351Q274 583 240 614Q208 587 129 528H113L74 587Z" />
<glyph unicode="&#xe3;" glyph-name="atilde" horiz-adv-x="490" d="M333 478T379 443T425 341Q425 318 423 288T420 231Q415 159 415 132Q415 118 419 112T435 106Q444 106 457 110L468 101L454 18Q421 -5 373 -9Q343 -6 322 12T292 63H285Q235 10 183 -10Q109
-9 67 30T24 136Q24 239 132 257L280 282V311Q280 342 267 355T223 369Q193 369 159 356T79 315L69 322L51 425Q96 450 148 464T250 478Q333 478 379 443ZM194 191Q179 188 172 179T164 152Q164 128 176 115T211 102Q243 102 279 136L280 208L194 191ZM422 672V659L348
560L334 554Q315 556 288 563T251 573Q198 589 180 589Q167 589 155 579T132 555T115 535H101L55 581V594L129 693L143 698Q165 695 230 678Q283 663 297 663Q310 663 321 673T344 697T362 718H376L422 672Z" />
<glyph unicode="&#xe4;" glyph-name="adieresis" horiz-adv-x="490" d="M333 478T379 443T425 341Q425 318 423 288T420 231Q415 159 415 132Q415 118 419 112T435 106Q444 106 457 110L468 101L454 18Q421 -5 373 -9Q343 -6 322 12T292 63H285Q235 10 183 -10Q109
-9 67 30T24 136Q24 239 132 257L280 282V311Q280 342 267 355T223 369Q193 369 159 356T79 315L69 322L51 425Q96 450 148 464T250 478Q333 478 379 443ZM194 191Q179 188 172 179T164 152Q164 128 176 115T211 102Q243 102 279 136L280 208L194 191ZM183 696T201
678T220 626Q220 591 200 571T145 550Q111 550 94 568T76 620Q76 655 96 675T151 696Q183 696 201 678ZM365 696T383 678T401 626Q401 591 381 571T327 550Q293 550 276 568T258 620Q258 655 278 675T333 696Q365 696 383 678Z" />
<glyph unicode="&#xe5;" glyph-name="aring" horiz-adv-x="490" d="M333 478T379 443T425 341Q425 318 423 288T420 231Q415 159 415 132Q415 118 419 112T435 106Q444 106 457 110L468 101L454 18Q421 -5 373 -9Q343 -6 322 12T292 63H285Q235 10 183 -10Q109
-9 67 30T24 136Q24 239 132 257L280 282V311Q280 342 267 355T223 369Q193 369 159 356T79 315L69 322L51 425Q96 450 148 464T250 478Q333 478 379 443ZM194 191Q179 188 172 179T164 152Q164 128 176 115T211 102Q243 102 279 136L280 208L194 191ZM291 737T316
712T341 641Q341 591 314 564T236 536Q188 536 163 561T137 635Q137 685 164 711T242 737Q291 737 316 712ZM219 672T210 664T201 638Q201 618 210 609T240 600Q259 600 268 608T277 635Q277 654 268 663T238 672Q219 672 210 664Z" />
<glyph unicode="&#xe6;" glyph-name="ae" horiz-adv-x="701" d="M579 477T627 426T676 282Q676 262 675 252L661 234L403 210Q408 155 434 130T513 105Q542 105 577 113T645 136L658 128L634 15Q603 3 567 -4T499 -11Q378 -11 321 70Q267 16 202 -10Q121 -9 72
28T23 133Q23 183 50 217T131 256L275 269V311Q275 341 262 355T219 369Q191 369 157 356T77 315L66 321L48 425Q91 450 141 464T239 478Q322 478 362 432Q415 477 494 477Q579 477 627 426ZM448 374T425 348T402 282L537 298Q543 374 483 374Q448 374 425 348ZM226
103T242 111T285 141Q279 172 276 196L198 186Q180 183 173 174T165 148Q165 127 176 115T210 103Q226 103 242 111Z" />
<glyph unicode="&#xe7;" glyph-name="ccedilla" horiz-adv-x="384" d="M301 113T358 134L370 125L354 6Q306 -7 261 -10L254 -45L288 -64Q311 -76 320 -91T330 -125Q330 -159 303 -181T229 -203Q185 -203 143 -177L153 -113L160 -110Q175 -124 190 -131T219 -139Q240
-139 240 -121Q240 -111 225 -103L176 -76L191 -8Q111 4 67 65T23 227Q23 345 84 411T255 478Q324 478 378 454L352 330L340 325Q313 338 294 344T255 350Q215 350 195 323T174 243Q174 113 265 113Q301 113 358 134Z" />
<glyph unicode="&#xe8;" glyph-name="egrave" horiz-adv-x="477" d="M430 208L168 206Q175 154 204 129T286 104Q339 104 426 135L438 127L414 14Q334 -11 269 -11Q154 -11 89 54T23 233Q23 347 86 412T257 478Q350 478 401 428T453 289Q453 260 447 228L430 208ZM316
306Q316 375 256 375Q222 375 200 353T170 288L314 292L316 306ZM275 658T378 580L341 520L326 519Q219 577 120 634L117 648L174 735L188 736Q275 658 378 580Z" />
<glyph unicode="&#xe9;" glyph-name="eacute" horiz-adv-x="477" d="M430 208L168 206Q175 154 204 129T286 104Q339 104 426 135L438 127L414 14Q334 -11 269 -11Q154 -11 89 54T23 233Q23 347 86 412T257 478Q350 478 401 428T453 289Q453 260 447 228L430 208ZM316
306Q316 375 256 375Q222 375 200 353T170 288L314 292L316 306ZM343 735L400 648L397 634Q298 577 191 519L177 520L140 580Q245 660 329 736L343 735Z" />
<glyph unicode="&#xea;" glyph-name="ecircumflex" horiz-adv-x="477" d="M430 208L168 206Q175 154 204 129T286 104Q339 104 426 135L438 127L414 14Q334 -11 269 -11Q154 -11 89 54T23 233Q23 347 86 412T257 478Q350 478 401 428T453 289Q453 260 447 228L430
208ZM316 306Q316 375 256 375Q222 375 200 353T170 288L314 292L316 306ZM83 586Q145 641 233 731H264Q331 661 414 586L375 527H360Q283 582 249 613Q217 586 138 527H122L83 586Z" />
<glyph unicode="&#xeb;" glyph-name="edieresis" horiz-adv-x="477" d="M430 208L168 206Q175 154 204 129T286 104Q339 104 426 135L438 127L414 14Q334 -11 269 -11Q154 -11 89 54T23 233Q23 347 86 412T257 478Q350 478 401 428T453 289Q453 260 447 228L430
208ZM316 306Q316 375 256 375Q222 375 200 353T170 288L314 292L316 306ZM192 695T210 677T229 625Q229 590 209 570T154 549Q120 549 103 567T85 619Q85 654 105 674T160 695Q192 695 210 677ZM374 695T392 677T410 625Q410 590 390 570T336 549Q302 549 285
567T267 619Q267 654 287 674T342 695Q374 695 392 677Z" />
<glyph unicode="&#xec;" glyph-name="igrave" horiz-adv-x="271" d="M62 191L57 458L214 470L207 207L213 0H55L62 191ZM161 659T264 581L227 521L212 520Q105 578 6 635L3 649L60 736L74 737Q161 659 264 581Z" />
<glyph unicode="&#xed;" glyph-name="iacute" horiz-adv-x="271" d="M62 191L57 458L214 470L207 207L213 0H55L62 191ZM229 736L286 649L283 635Q184 578 77 520L63 521L26 581Q131 661 215 737L229 736Z" />
<glyph unicode="&#xee;" glyph-name="icircumflex" horiz-adv-x="271" d="M62 191L57 458L214 470L207 207L213 0H55L62 191ZM-31 587Q31 642 119 732H150Q217 662 300 587L261 528H246Q169 583 135 614Q103 587 24 528H8L-31 587Z" />
<glyph unicode="&#xef;" glyph-name="idieresis" horiz-adv-x="271" d="M62 191L57 458L214 470L207 207L213 0H55L62 191ZM94 691T110 674T127 626Q127 594 108 575T58 555Q27 555 11 572T-6 620Q-6 653 13 672T64 691Q94 691 110 674ZM242 691T258 674T275 626Q275
594 256 575T206 555Q175 555 158 572T141 620Q141 653 160 672T211 691Q242 691 258 674Z" />
<glyph unicode="&#xf0;" glyph-name="eth" horiz-adv-x="501" d="M394 524T432 436T471 249Q471 124 412 57T242 -11Q139 -11 84 48T28 223Q28 337 83 398T244 459Q263 459 272 458Q246 494 204 527L90 458L77 463L45 523L131 575Q99 592 44 618V636L145 710H155Q211
680 254 649L359 712L372 708L404 648L318 596Q394 524 432 436ZM294 91T310 122T327 232Q327 288 320 330Q292 351 253 351Q209 351 191 323T172 225Q172 151 191 121T253 91Q294 91 310 122Z" />
<glyph unicode="&#xf1;" glyph-name="ntilde" horiz-adv-x="535" d="M336 279Q338 348 280 348Q245 348 204 318V207L211 0H53L60 191L54 458L205 470V401H211Q265 452 331 474Q406 474 445 440T484 341L480 207L486 0H328L336 279ZM469 672V659L395 560L381 554Q362
556 335 563T298 573Q245 589 227 589Q214 589 202 579T179 555T162 535H148L102 581V594L176 693L190 698Q212 695 277 678Q330 663 344 663Q357 663 368 673T391 697T409 718H423L469 672Z" />
<glyph unicode="&#xf2;" glyph-name="ograve" horiz-adv-x="495" d="M361 478T416 418T472 243Q472 119 413 54T240 -11Q134 -11 79 49T23 223Q23 347 82 412T255 478Q361 478 416 418ZM204 371T188 345T171 252Q171 191 178 157T203 108T251 93Q290 93 306 119T323
213Q323 302 306 336T244 371Q204 371 188 345ZM276 659T379 581L342 521L327 520Q220 578 121 635L118 649L175 736L189 737Q276 659 379 581Z" />
<glyph unicode="&#xf3;" glyph-name="oacute" horiz-adv-x="495" d="M361 478T416 418T472 243Q472 119 413 54T240 -11Q134 -11 79 49T23 223Q23 347 82 412T255 478Q361 478 416 418ZM204 371T188 345T171 252Q171 191 178 157T203 108T251 93Q290 93 306 119T323
213Q323 302 306 336T244 371Q204 371 188 345ZM344 736L401 649L398 635Q299 578 192 520L178 521L141 581Q246 661 330 737L344 736Z" />
<glyph unicode="&#xf4;" glyph-name="ocircumflex" horiz-adv-x="495" d="M361 478T416 418T472 243Q472 119 413 54T240 -11Q134 -11 79 49T23 223Q23 347 82 412T255 478Q361 478 416 418ZM204 371T188 345T171 252Q171 191 178 157T203 108T251 93Q290 93 306
119T323 213Q323 302 306 336T244 371Q204 371 188 345ZM84 587Q146 642 234 732H265Q332 662 415 587L376 528H361Q284 583 250 614Q218 587 139 528H123L84 587Z" />
<glyph unicode="&#xf5;" glyph-name="otilde" horiz-adv-x="495" d="M361 478T416 418T472 243Q472 119 413 54T240 -11Q134 -11 79 49T23 223Q23 347 82 412T255 478Q361 478 416 418ZM204 371T188 345T171 252Q171 191 178 157T203 108T251 93Q290 93 306 119T323
213Q323 302 306 336T244 371Q204 371 188 345ZM432 672V659L358 560L344 554Q325 556 298 563T261 573Q208 589 190 589Q177 589 165 579T142 555T125 535H111L65 581V594L139 693L153 698Q175 695 240 678Q293 663 307 663Q320 663 331 673T354 697T372 718H386L432
672Z" />
<glyph unicode="&#xf6;" glyph-name="odieresis" horiz-adv-x="495" d="M361 478T416 418T472 243Q472 119 413 54T240 -11Q134 -11 79 49T23 223Q23 347 82 412T255 478Q361 478 416 418ZM204 371T188 345T171 252Q171 191 178 157T203 108T251 93Q290 93 306
119T323 213Q323 302 306 336T244 371Q204 371 188 345ZM193 696T211 678T230 626Q230 591 210 571T155 550Q121 550 104 568T86 620Q86 655 106 675T161 696Q193 696 211 678ZM375 696T393 678T411 626Q411 591 391 571T337 550Q303 550 286 568T268 620Q268 655
288 675T343 696Q375 696 393 678Z" />
<glyph unicode="&#xf7;" glyph-name="divide" horiz-adv-x="480" d="M287 496T304 479T322 429Q322 395 303 375T250 354Q217 354 200 372T183 423Q183 456 202 476T255 496Q287 496 304 479ZM464 301L456 205H33L23 216L31 311H453L464 301ZM287 163T304 146T322
96Q322 62 303 42T250 21Q217 21 200 39T183 90Q183 123 202 143T255 163Q287 163 304 146Z" />
<glyph unicode="&#xf8;" glyph-name="oslash" horiz-adv-x="495" d="M417 418Q472 357 472 243Q472 119 413 54T240 -11Q203 -11 175 -4L102 -129L12 -84L9 -71L78 49Q23 110 23 223Q23 347 82 412T255 478Q293 478 320 471L384 580L470 537L477 522L417 418ZM290
93T306 119T323 213Q323 302 306 336T244 371Q204 371 188 345T171 252Q171 191 178 157T203 108T251 93Q290 93 306 119Z" />
<glyph unicode="&#xf9;" glyph-name="ugrave" horiz-adv-x="528" d="M513 101L499 18Q457 -9 413 -9Q355 3 333 70H323Q265 12 206 -6Q131 -6 91 28T51 127L54 239L49 458L201 470L199 185Q198 120 251 120Q269 120 285 127T320 150V458L470 470L461 132Q461 118
465 112T480 106Q489 106 502 110L513 101ZM287 659T390 581L353 521L338 520Q231 578 132 635L129 649L186 736L200 737Q287 659 390 581Z" />
<glyph unicode="&#xfa;" glyph-name="uacute" horiz-adv-x="528" d="M513 101L499 18Q457 -9 413 -9Q355 3 333 70H323Q265 12 206 -6Q131 -6 91 28T51 127L54 239L49 458L201 470L199 185Q198 120 251 120Q269 120 285 127T320 150V458L470 470L461 132Q461 118
465 112T480 106Q489 106 502 110L513 101ZM355 736L412 649L409 635Q310 578 203 520L189 521L152 581Q257 661 341 737L355 736Z" />
<glyph unicode="&#xfb;" glyph-name="ucircumflex" horiz-adv-x="528" d="M513 101L499 18Q457 -9 413 -9Q355 3 333 70H323Q265 12 206 -6Q131 -6 91 28T51 127L54 239L49 458L201 470L199 185Q198 120 251 120Q269 120 285 127T320 150V458L470 470L461 132Q461
118 465 112T480 106Q489 106 502 110L513 101ZM95 587Q157 642 245 732H276Q343 662 426 587L387 528H372Q295 583 261 614Q229 587 150 528H134L95 587Z" />
<glyph unicode="&#xfc;" glyph-name="udieresis" horiz-adv-x="528" d="M513 101L499 18Q457 -9 413 -9Q355 3 333 70H323Q265 12 206 -6Q131 -6 91 28T51 127L54 239L49 458L201 470L199 185Q198 120 251 120Q269 120 285 127T320 150V458L470 470L461 132Q461
118 465 112T480 106Q489 106 502 110L513 101ZM204 696T222 678T241 626Q241 591 221 571T166 550Q132 550 115 568T97 620Q97 655 117 675T172 696Q204 696 222 678ZM386 696T404 678T422 626Q422 591 402 571T348 550Q314 550 297 568T279 620Q279 655 299 675T354
696Q386 696 404 678Z" />
<glyph unicode="&#xfd;" glyph-name="yacute" horiz-adv-x="457" d="M161 391L231 156H240L308 377L326 468H460L314 39Q291 -30 260 -73T183 -143T62 -193L51 -192Q12 -154 -18 -98L-12 -83Q45 -74 86 -55T165 0L-5 465L145 471L161 391ZM329 736L386 649L383
635Q284 578 177 520L163 521L126 581Q231 661 315 737L329 736Z" />
<glyph unicode="&#xfe;" glyph-name="thorn" horiz-adv-x="527" d="M407 474T455 414T503 247Q503 123 441 56T268 -11Q239 -11 209 -5L211 -185H57L63 191L56 691L214 702L209 401H214Q240 427 265 444T319 474Q407 474 455 414ZM355 90T355 226Q353 348 275
348Q241 348 208 319L206 210L207 102Q237 90 262 90Q355 90 355 226Z" />
<glyph unicode="&#xff;" glyph-name="ydieresis" horiz-adv-x="457" d="M161 391L231 156H240L308 377L326 468H460L314 39Q291 -30 260 -73T183 -143T62 -193L51 -192Q12 -154 -18 -98L-12 -83Q45 -74 86 -55T165 0L-5 465L145 471L161 391ZM178 696T196 678T215
626Q215 591 195 571T140 550Q106 550 89 568T71 620Q71 655 91 675T146 696Q178 696 196 678ZM360 696T378 678T396 626Q396 591 376 571T322 550Q288 550 271 568T253 620Q253 655 273 675T328 696Q360 696 378 678Z" />
<glyph unicode="&#x2013;" glyph-name="endash" horiz-adv-x="453" d="M472 301L464 205H-8L-18 216L-10 312H462L472 301Z" />
<glyph unicode="&#x2014;" glyph-name="emdash" horiz-adv-x="869" d="M887 301L880 205H-8L-18 216L-10 312H877L887 301Z" />
<glyph unicode="&#x2018;" glyph-name="quoteleft" horiz-adv-x="226" d="M62 389T48 414T34 474Q34 517 59 561T135 653L189 618L191 608Q151 564 151 521Q151 495 160 477T192 443V431Q140 391 92 371Q62 389 48 414Z" />
<glyph unicode="&#x2019;" glyph-name="quoteright" horiz-adv-x="226" d="M165 636T179 611T193 551Q193 508 168 464T92 372L38 407L36 417Q76 461 76 504Q76 530 67 548T35 582V594Q87 634 135 654Q165 636 179 611Z" />
<glyph unicode="&#x201a;" glyph-name="quotesinglbase" horiz-adv-x="228" d="M196 113T196 59Q196 9 164 -38T63 -133L12 -89L11 -77Q67 -30 67 25Q67 61 34 91L35 105Q95 138 150 153Q196 113 196 59Z" />
<glyph unicode="&#x201c;" glyph-name="quotedblleft" horiz-adv-x="407" d="M244 389T230 414T216 474Q216 517 241 561T317 653L371 618L373 608Q333 564 333 521Q333 495 342 477T374 443V431Q322 391 274 371Q244 389 230 414ZM62 389T48 414T34 474Q34 517
59 561T135 653L189 618L191 608Q151 564 151 521Q151 495 160 477T192 443V431Q140 391 92 371Q62 389 48 414Z" />
<glyph unicode="&#x201d;" glyph-name="quotedblright" horiz-adv-x="400" d="M339 636T353 611T367 551Q367 508 342 464T266 372L212 407L210 417Q250 461 250 504Q250 530 241 548T209 582V594Q261 634 309 654Q339 636 353 611ZM165 636T179 611T193 551Q193
508 168 464T92 372L38 407L36 417Q76 461 76 504Q76 530 67 548T35 582V594Q87 634 135 654Q165 636 179 611Z" />
<glyph unicode="&#x201e;" glyph-name="quotedblbase" horiz-adv-x="410" d="M377 113T377 59Q377 9 345 -38T244 -133L193 -89L192 -77Q248 -30 248 25Q248 61 215 91L216 105Q276 138 331 153Q377 113 377 59ZM196 113T196 59Q196 9 164 -38T63 -133L12 -89L11
-77Q67 -30 67 25Q67 61 34 91L35 105Q95 138 150 153Q196 113 196 59Z" />
<glyph unicode="&#x2022;" glyph-name="bullet" horiz-adv-x="282" d="M192 358T219 331T246 256Q246 204 217 174T137 143Q88 143 62 169T36 246Q36 297 65 327T145 358Q192 358 219 331Z" />
<glyph unicode="&#x2039;" glyph-name="guilsinglleft" horiz-adv-x="250" d="M46 214V238L177 419L252 380L255 365L161 228L255 92L252 78L177 39L46 214Z" />
<glyph unicode="&#x203a;" glyph-name="guilsinglright" horiz-adv-x="250" d="M209 246V222L78 41L3 80L0 95L94 232L0 368L3 382L78 421L209 246Z" />
</font>
</defs>
</svg>
