<?xml version="1.0" standalone="no"?>
<!DOCTYPE svg PUBLIC "-//W3C//DTD SVG 1.1//EN" "http://www.w3.org/Graphics/SVG/1.1/DTD/svg11.dtd">
<svg xmlns="http://www.w3.org/2000/svg">
<defs >
<font id="Gorditas" horiz-adv-x="608" ><font-face
    font-family="Gorditas"
    units-per-em="1000"
    panose-1="2 9 8 0 4 0 0 0 0 0"
    ascent="954"
    descent="-259"
    alphabetic="0" />
<glyph unicode=" " glyph-name="space" horiz-adv-x="195" />
<glyph unicode="!" glyph-name="exclam" horiz-adv-x="288" d="M36 476Q36 589 91 690Q96 691 107 695T127 702T147 704Q170 704 198 690Q252 578 252 459Q252 323 183 198Q167 184 148 184Q131 184 115 195Q36 339 36 476ZM88 62Q88 90 94 119Q115 127 141 127T194
119Q203 89 203 60Q203 30 194 0Q175 -8 147 -8Q113 -8 94 0Q88 32 88 62Z" />
<glyph unicode="&quot;" glyph-name="quotedbl" horiz-adv-x="370" d="M31 554Q31 587 46 607T93 628T141 608T158 553Q158 501 119 398L66 410Q58 423 45 483T31 554ZM211 554Q211 587 226 607T273 628T321 608T338 553Q338 501 299 398L246 410Q238 423 225
483T211 554Z" />
<glyph unicode="#" glyph-name="numbersign" horiz-adv-x="655" d="M44 174T44 193T53 229L140 233L154 317Q165 383 173 421L57 427Q45 445 45 465Q45 484 57 507Q126 516 194 519L224 636Q226 639 237 639Q253 639 275 634T303 622L290 521Q352 521 434 519L464
636Q466 639 477 639Q493 639 515 634T543 622Q540 592 529 513Q566 511 602 507Q611 482 611 463T602 427L515 423L501 339Q490 273 482 235L598 229Q610 211 610 191Q610 172 598 149Q529 140 461 137L431 20Q430 17 418 17Q402 17 380 22T352 34L365 135Q303
135 221 137L191 20Q190 17 178 17Q162 17 140 22T112 34Q115 64 126 143Q88 145 53 149Q44 174 44 193ZM243 236Q256 236 298 236T380 237L412 420Q399 420 357 420T275 419L243 236Z" />
<glyph unicode="$" glyph-name="dollar" horiz-adv-x="620" d="M40 458Q40 559 102 631T267 716Q270 785 275 836Q289 845 304 845Q320 845 343 826L351 718Q399 712 438 683Q444 707 466 717Q475 721 500 721Q545 721 567 715Q573 678 573 643Q573 550 530 475Q453
475 439 485Q434 498 432 523Q404 557 357 557Q359 467 359 426Q403 424 436 417T504 392T559 338T578 250Q578 148 510 77T351 0Q349 -40 343 -122Q325 -132 310 -132Q288 -132 275 -110Q274 -89 271 -50T267 7Q229 16 194 36Q187 18 163 -1Q153 -11 119 -11Q74
-11 61 2Q55 20 55 72Q55 206 96 215Q98 215 103 215T114 216Q172 216 188 205Q194 190 194 172Q223 147 261 144Q258 220 258 298Q245 298 221 298T192 297Q128 297 84 334T40 458ZM236 483Q236 451 279 436Q279 469 281 545Q236 527 236 483ZM329 161Q352 176
365 197T379 240Q379 281 331 294Q331 251 329 161Z" />
<glyph unicode="%" glyph-name="percent" horiz-adv-x="886" d="M36 394T36 485T82 630T199 684T315 630T362 485T316 340T199 286T83 340ZM172 547T172 505T187 437T232 410Q262 410 276 436T291 505T276 573T232 600Q202 600 187 574ZM192 11Q229 68 285 194T377
375T498 528T621 684Q633 688 646 688Q675 688 690 667Q653 611 600 489T510 311Q475 256 386 153T260 -6Q242 -11 231 -11Q205 -11 192 11ZM524 100T524 191T570 336T687 390T803 336T850 191T804 46T687 -8T571 46ZM660 253T660 211T675 143T720 116Q750 116
764 142T779 211T764 279T720 306Q690 306 675 280Z" />
<glyph unicode="&amp;" glyph-name="ampersand" horiz-adv-x="761" d="M26 154Q26 216 57 273T142 360Q75 458 75 536Q75 618 139 673T310 729Q408 729 455 682T503 565Q503 505 469 452T368 366Q453 279 464 265Q556 340 577 390Q574 394 558 411T538 433Q582
472 613 485Q648 467 712 395T779 300Q779 295 748 270T711 241Q700 241 690 254T676 279Q623 201 569 150Q614 101 621 95L463 -15Q461 -13 439 10T401 52Q293 -12 193 -12Q110 -12 68 35T26 154ZM188 195Q188 172 202 157T240 142Q277 142 313 179Q304 190 287
209T256 245T231 276Q188 237 188 195ZM250 531Q250 517 256 502T269 478T291 448Q374 498 374 544Q374 564 355 578T310 592Q283 592 267 575T250 531Z" />
<glyph unicode="&apos;" glyph-name="quotesingle" horiz-adv-x="181" d="M37 570Q37 588 38 597Q60 604 85 604Q108 604 139 597Q142 573 142 550Q142 477 115 389Q107 385 97 385Q78 385 62 401Q37 496 37 570Z" />
<glyph unicode="(" glyph-name="parenleft" horiz-adv-x="379" d="M16 230Q16 293 42 355T114 471T214 570T333 656Q370 643 370 619Q370 600 347 572Q266 514 232 431T197 235Q197 120 236 35T379 -145Q376 -179 345 -179Q324 -179 293 -164Q271 -142 225 -101T148
-31T84 40T33 129T16 230Z" />
<glyph unicode=")" glyph-name="parenright" horiz-adv-x="379" d="M0 -145Q103 -51 142 34T182 235Q182 348 148 431T32 572Q9 600 9 619Q9 643 46 656Q111 615 165 570T265 471T337 355T363 230Q363 177 346 130T296 41T232 -30T155 -101T86 -164Q54 -179 34
-179Q3 -179 0 -145Z" />
<glyph unicode="*" glyph-name="asterisk" horiz-adv-x="404" d="M41 493Q41 506 52 515Q60 517 69 517Q85 517 109 513T151 503T170 497Q170 502 169 512T168 532Q168 568 184 612Q191 619 200 619Q206 619 217 612Q233 571 233 529Q233 516 231 494Q281 515
350 515Q363 512 363 500Q363 494 360 486Q327 453 251 434Q289 400 309 327Q309 309 290 309Q285 309 283 310Q230 339 201 397Q177 349 118 310Q97 310 93 327Q115 402 150 434Q94 442 42 486Q42 487 42 489T41 493Z" />
<glyph unicode="+" glyph-name="plus" horiz-adv-x="553" d="M30 292T30 310T46 348Q93 358 144 358T239 348Q225 404 225 455Q225 505 239 547Q262 559 280 559Q300 559 317 547Q331 502 331 452Q331 401 317 348Q358 356 407 356T510 348Q521 333 521 314Q521
296 510 274Q455 261 408 261Q362 261 317 274Q331 231 331 181Q331 129 317 75Q294 65 276 65Q256 65 239 75Q228 128 228 178Q228 229 239 274Q189 263 140 263Q90 263 46 274Q30 292 30 310Z" />
<glyph unicode="," glyph-name="comma" horiz-adv-x="235" d="M20 -93Q22 49 59 138Q108 164 154 164Q173 164 205 156Q184 45 96 -63Q59 -94 35 -94Q25 -94 20 -93Z" />
<glyph unicode="-" glyph-name="hyphen" horiz-adv-x="359" d="M43 279Q43 299 56 318Q138 329 193 329Q251 329 302 318Q317 300 317 279T302 231Q256 218 196 218Q143 218 56 231Q43 257 43 279Z" />
<glyph unicode="." glyph-name="period" horiz-adv-x="228" d="M33 80Q33 115 55 147Q84 168 113 168T174 147Q195 115 195 77Q195 40 174 3Q140 -21 111 -21T55 3Q33 42 33 80Z" />
<glyph unicode="/" glyph-name="slash" horiz-adv-x="600" d="M24 -90Q200 415 496 719Q521 732 539 732Q566 732 576 702Q430 237 104 -107Q78 -129 58 -129Q33 -129 24 -90Z" />
<glyph unicode="0" glyph-name="zero" horiz-adv-x="752" d="M33 272Q33 347 64 423T147 562T278 663T443 702Q516 702 570 675T655 600T700 495T715 369Q715 183 613 87T347 -10Q192 -10 113 70T33 272ZM232 302Q232 250 263 212T346 174Q413 174 471 234T529
373Q529 429 497 467T410 505Q336 505 284 439T232 302Z" />
<glyph unicode="1" glyph-name="one" horiz-adv-x="414" d="M27 563Q27 614 33 622Q47 635 69 649T144 681T255 699Q291 699 311 690Q325 661 325 487Q325 240 311 149Q317 150 328 150Q354 150 376 139Q379 134 379 122Q379 101 371 61T356 10Q338 1 247 1Q86
1 62 28Q56 36 56 87Q56 135 62 141L118 150Q138 153 141 153Q129 254 129 354Q129 451 141 547Q95 515 33 509Q27 515 27 563Z" />
<glyph unicode="2" glyph-name="two" horiz-adv-x="660" d="M40 0Q42 52 43 80T48 149T56 209T69 257T87 300T114 333T149 361T195 382T254 399T326 411Q331 412 342 413T357 415T371 417T383 420T392 424T400 430T406 437T410 448T411 461Q411 501 379 523T302
546Q266 546 237 531T198 488Q198 470 192 455Q176 444 118 444Q112 444 107 444T100 445Q78 450 69 499T59 608Q59 660 65 678Q73 684 102 689T157 694Q179 694 183 690Q191 684 193 667T198 644Q272 708 368 708Q467 708 539 639T612 461Q612 421 602 391T571
342T530 311T479 293T429 285T380 281Q311 277 290 264T268 198Q336 184 376 184Q431 184 482 204Q481 207 481 211Q481 216 483 221T489 233T495 243Q512 253 540 253Q569 253 587 243Q600 236 606 196T613 117Q613 80 606 51T593 12T584 0Q559 -5 523 -5Q474
-5 471 5Q462 41 461 49Q425 19 313 19Q286 19 178 25Q177 9 170 7Q161 -5 99 -5Q55 -5 40 0Z" />
<glyph unicode="3" glyph-name="three" horiz-adv-x="582" d="M-1 125Q-1 129 0 132Q3 143 21 163T82 210T176 253Q192 246 209 220T228 177Q227 169 214 156Q235 147 256 147Q291 147 316 169T342 228Q342 262 316 283Q300 279 276 279Q248 279 234 285Q215 307
215 368Q215 411 223 443Q226 446 249 450T294 455Q323 455 329 449Q343 465 343 489Q343 523 320 548T262 574Q246 574 233 568Q233 564 235 554Q224 533 198 533Q191 533 186 537Q165 554 145 594T125 658Q139 683 182 684L190 676Q248 713 310 713Q409 713 470
647T531 497Q531 405 461 354Q544 290 544 198Q544 134 501 83T392 6T253 -20Q132 -20 65 57Q42 45 36 45Q20 59 10 82T-1 125Z" />
<glyph unicode="4" glyph-name="four" horiz-adv-x="569" d="M12 350Q12 399 18 417Q107 589 275 686Q322 706 369 706Q415 706 445 686Q459 641 459 477Q459 433 458 411Q461 411 468 411T480 412Q491 412 501 410Q525 399 525 342Q525 298 507 283Q502 279 478
279Q463 279 454 280Q459 245 459 222Q459 169 445 145Q451 146 462 146Q488 146 510 135Q533 124 533 56Q533 22 526 8Q478 -4 359 -4Q211 -4 201 11Q193 23 193 79Q193 124 207 137Q216 143 242 146Q260 149 285 149Q279 207 279 226Q279 261 284 278Q239 273
149 273Q39 273 18 280Q12 292 12 350ZM163 417Q195 419 217 419Q256 419 281 416Q281 451 285 533Q203 471 163 417Z" />
<glyph unicode="5" glyph-name="five" horiz-adv-x="639" d="M50 483Q50 639 75 706Q95 720 131 720Q204 720 237 706Q243 705 245 678Q269 684 327 684Q401 684 438 674Q440 699 447 716Q456 727 533 727Q559 727 571 723Q573 722 579 702T593 642T600 566Q600
495 574 480Q541 465 513 465Q470 465 442 476Q432 485 432 500Q432 514 439 524Q417 538 328 538Q268 538 244 530Q230 511 230 473Q230 460 236 447T254 429Q266 430 314 430Q454 430 523 372T593 229Q593 136 521 63T357 -11Q285 -11 225 39Q218 21 194 2Q166
-5 132 -5Q89 -5 62 5Q55 19 55 69Q55 127 65 179T97 238Q122 243 148 243Q194 243 219 228Q225 213 225 195Q254 155 313 155Q351 155 379 173T408 221Q408 266 340 286T178 306Q124 306 85 300Q50 314 50 483Z" />
<glyph unicode="6" glyph-name="six" horiz-adv-x="661" d="M35 355Q35 448 68 527T173 658T342 711Q418 711 492 674Q493 675 495 680T501 690T505 695Q517 699 534 699Q558 699 581 692T613 673Q613 670 613 665T614 652Q614 604 596 552T546 469Q541 468 531
468Q510 468 479 477T437 495Q434 502 434 511Q434 530 441 537Q401 554 364 554Q309 554 274 518T239 412Q239 406 239 399T240 389Q306 446 398 446Q505 446 562 384T619 231Q619 119 539 52T346 -15Q249 -15 177 40T70 177T35 355ZM278 200Q278 164 298 145T350
126Q395 126 424 161T453 240Q453 272 435 293T382 314Q337 314 308 279T278 200Z" />
<glyph unicode="7" glyph-name="seven" horiz-adv-x="450" d="M22 565Q22 669 58 692Q72 699 138 704T268 710Q405 710 453 677Q391 445 323 244T208 1Q164 -5 122 -5Q57 -5 56 9Q159 387 262 560Q259 560 226 557T169 553Q167 505 158 486Q150 482 135 482Q107
482 72 494T26 520Q22 545 22 565Z" />
<glyph unicode="8" glyph-name="eight" horiz-adv-x="592" d="M32 190Q32 246 59 302T138 400Q76 444 76 512Q76 590 139 651T318 712Q412 712 461 668T511 543Q511 502 498 480T456 441Q561 362 561 251Q561 147 476 69T262 -10Q155 -10 94 48T32 190ZM218 213Q218
185 235 164T281 143Q317 143 349 176T382 251Q382 282 363 303T314 324Q274 324 246 288T218 213ZM241 506Q241 486 253 471T287 456Q313 456 335 479T358 534Q358 556 346 571T312 586Q283 586 262 560T241 506Z" />
<glyph unicode="9" glyph-name="nine" horiz-adv-x="668" d="M44 459Q44 572 127 641T323 711Q419 711 491 656T598 519T633 341Q633 248 600 169T495 38T326 -15Q240 -15 166 22Q165 21 163 16T157 6T153 1Q125 1 86 7T45 23Q47 109 69 160T112 227Q117 228 127
228Q148 228 179 219T221 201Q224 194 224 185Q224 166 217 159Q257 142 306 142Q349 142 381 159T429 205T452 260T459 312Q459 332 455 339Q423 293 372 269T260 245Q162 245 103 305T44 459ZM210 450Q210 419 228 398T280 377Q326 377 358 414T390 497Q390 532
370 551T318 570Q273 570 242 532T210 450Z" />
<glyph unicode=":" glyph-name="colon" horiz-adv-x="268" d="M53 80Q53 115 75 147Q104 168 133 168T194 147Q215 115 215 77Q215 40 194 3Q160 -21 131 -21T75 3Q53 42 53 80ZM53 420Q53 455 75 487Q104 508 133 508T194 487Q215 455 215 417Q215 380 194 343Q160
319 131 319T75 343Q53 382 53 420Z" />
<glyph unicode=";" glyph-name="semicolon" horiz-adv-x="265" d="M39 -93Q41 49 78 138Q127 164 173 164Q192 164 224 156Q203 45 115 -63Q78 -94 54 -94Q44 -94 39 -93ZM59 420Q59 455 81 487Q110 508 139 508T200 487Q221 455 221 417Q221 380 200 343Q166
319 137 319T81 343Q59 382 59 420Z" />
<glyph unicode="&lt;" glyph-name="less" horiz-adv-x="574" d="M31 318Q31 335 52 352Q303 516 499 574Q510 552 510 532T499 488Q356 384 144 319Q366 250 499 149Q514 128 514 107Q514 87 499 62Q232 153 52 284Q31 302 31 318Z" />
<glyph unicode="=" glyph-name="equal" horiz-adv-x="534" d="M55 279Q55 299 68 318Q150 329 272 329Q313 329 386 326T464 318Q479 300 479 279T464 231Q422 218 276 218Q155 218 68 231Q55 257 55 279ZM55 449Q55 469 68 488Q150 499 272 499Q313 499 386 496T464
488Q479 470 479 449T464 401Q422 388 276 388Q155 388 68 401Q55 427 55 449Z" />
<glyph unicode="&gt;" glyph-name="greater" horiz-adv-x="574" d="M60 105Q60 126 75 147Q208 248 430 317Q218 382 75 486Q64 510 64 530T75 572Q271 514 522 350Q543 333 543 316Q543 300 522 282Q342 151 75 60Q60 85 60 105Z" />
<glyph unicode="?" glyph-name="question" horiz-adv-x="558" d="M32 546Q32 598 75 639Q113 674 171 693T292 712Q389 712 456 667T524 538Q524 511 517 489T493 447T461 413T414 382T363 355T303 327Q312 305 312 271Q312 238 303 200Q284 195 248 195Q195 195
185 200Q171 227 171 280Q171 334 180 373Q246 391 277 423T309 491T283 551T223 575Q194 575 172 555T141 495Q116 488 94 488Q63 488 48 504T32 546ZM172 69Q172 100 185 129Q210 141 255 141Q279 141 305 129Q324 91 324 69Q324 43 305 10Q275 -5 250 -5Q204
-5 185 10Q172 39 172 69Z" />
<glyph unicode="@" glyph-name="at" horiz-adv-x="925" d="M46 197Q46 335 107 452T278 638T522 708Q686 708 787 607T888 336Q888 185 801 104T553 22Q521 22 476 27Q469 43 469 56Q469 62 472 66Q458 62 415 39T341 16Q280 16 246 74T211 216Q211 317 259 400T392
484Q416 484 435 477T465 460T483 440T494 422L498 415Q498 445 497 460Q527 485 602 485Q690 485 707 469Q710 460 710 419T707 369Q694 352 663 352Q653 352 643 354Q646 348 646 310Q646 193 638 182Q661 166 683 166Q722 166 744 209T767 322Q767 450 694 520T507
590Q364 590 266 483T167 212Q167 76 240 9T439 -58Q549 -58 638 -12L685 -120Q564 -175 429 -175Q250 -175 148 -78T46 197ZM328 231Q328 203 345 183T389 162Q424 162 455 194T486 267Q486 297 469 317T423 338Q386 338 357 304T328 231Z" />
<glyph unicode="A" glyph-name="A" horiz-adv-x="805" d="M4 62Q4 133 20 136Q20 144 51 144Q77 144 82 136Q89 180 179 437T279 695Q336 700 416 700Q465 700 526 695Q536 694 626 438T723 136Q731 144 754 144Q785 144 785 136Q801 133 801 62Q801 16 790 12Q777
0 634 0Q573 0 517 3T461 11Q439 25 439 91Q439 110 442 119Q442 125 449 130T468 135Q497 135 497 131Q501 131 501 142Q501 159 491 216Q467 211 404 211Q338 211 314 216Q304 167 304 142Q304 131 308 131Q308 135 337 135Q348 135 355 130T363 119Q366 110
366 91Q366 25 344 11Q344 7 288 4T171 0Q28 0 15 12Q4 16 4 62ZM339 330Q367 334 398 334Q435 334 465 329Q435 450 402 536Q369 451 339 330Z" />
<glyph unicode="B" glyph-name="B" horiz-adv-x="632" d="M38 66Q38 92 45 116Q54 131 87 131Q92 131 102 129Q94 222 94 306Q94 458 107 559Q85 559 52 564Q46 572 46 624T49 683Q53 691 82 698T155 706Q227 706 239 704Q243 691 243 664Q271 681 316 694T396
707Q473 707 525 645T577 503Q577 410 504 344Q606 286 606 178Q606 102 554 46T417 -10Q345 -10 300 31Q300 9 292 3Q235 -9 157 -9Q103 -9 45 6Q38 39 38 66ZM277 231Q277 192 307 161T371 130Q397 130 411 147T425 191Q425 228 399 261T336 294Q311 294 294
277T277 231ZM280 520Q280 484 307 455T368 426Q392 426 408 442T425 484Q425 519 400 550T339 582Q314 582 297 565T280 520Z" />
<glyph unicode="C" glyph-name="C" horiz-adv-x="663" d="M31 344Q31 497 109 602T318 707Q413 707 458 663Q460 693 479 700Q504 711 540 711Q587 711 614 691Q626 621 626 573Q626 487 590 435Q537 415 497 415Q459 415 416 435Q415 437 415 444Q415 456 418
460Q418 498 386 520T326 543Q285 543 256 480T227 341Q227 269 255 229T325 188Q373 188 416 241Q413 259 413 261T413 265T414 268Q451 285 494 285Q539 285 591 265Q626 212 626 128Q626 81 614 9Q583 -16 534 -16Q498 -16 479 0Q458 8 458 39Q392 -6 324 -6Q271
-6 220 16T126 80T57 190T31 344Z" />
<glyph unicode="D" glyph-name="D" horiz-adv-x="697" d="M38 583Q38 644 51 647Q146 701 261 701Q366 701 444 673T570 593T641 474T664 322Q664 156 572 73T282 -10Q165 -10 58 32Q44 62 44 120Q44 171 51 184Q54 199 93 199Q104 199 118 197Q108 267 108 343Q108
406 120 493Q110 490 93 490Q54 490 51 505Q47 512 43 539T38 583ZM291 183Q316 177 341 177Q402 177 440 215T478 331Q478 410 440 471T334 533Q312 533 291 526Q300 436 300 351Q300 264 291 183Z" />
<glyph unicode="E" glyph-name="E" horiz-adv-x="678" d="M45 71Q45 149 72 163Q86 172 100 172Q103 172 105 171Q93 260 93 342Q93 447 114 534Q104 532 100 532Q86 532 72 541Q45 555 45 633Q45 668 54 680Q86 695 171 703T335 712Q519 712 631 674Q641 644
641 588Q641 546 618 470Q594 464 571 464Q513 464 463 497L466 530Q446 543 392 543Q331 543 327 534Q331 498 331 481Q331 442 318 409Q356 409 357 412Q356 415 356 421Q356 432 365 448Q371 453 398 453Q440 453 456 446Q476 413 476 351Q476 295 455 274Q447
267 408 267T363 274Q354 286 354 304L313 299Q313 290 302 185Q337 156 388 156Q432 156 466 174L463 207Q513 240 571 240Q594 240 618 234Q641 158 641 116Q641 60 631 30Q556 -13 359 -13Q263 -13 176 -3T54 24Q45 36 45 71Z" />
<glyph unicode="F" glyph-name="F" horiz-adv-x="643" d="M37 109Q37 130 41 134Q69 138 86 138Q89 138 96 138T108 137Q101 227 101 294Q101 354 114 534Q104 532 100 532Q86 532 72 541Q43 561 43 631Q43 666 54 680Q118 710 273 710Q371 710 481 699T631 674Q641
644 641 588Q641 546 618 470Q594 464 571 464Q513 464 463 497L466 530Q446 543 392 543Q331 543 327 534Q313 485 301 381Q347 381 348 384Q347 388 347 416Q347 429 358 449Q362 452 375 452Q396 452 436 444T487 429Q495 423 495 370Q495 258 469 233Q462 227
410 227Q362 227 356 233Q344 249 344 281L294 279Q294 232 299 132Q308 135 328 135Q354 135 357 131Q367 118 367 59Q367 11 365 11Q351 0 301 -7T191 -14Q89 -14 50 6Q37 23 37 109Z" />
<glyph unicode="G" glyph-name="G" horiz-adv-x="660" d="M32 346Q32 506 109 608T305 710Q375 710 449 673Q452 673 456 690T470 710Q514 718 542 718Q583 718 604 701Q611 673 611 638Q611 566 590 507Q585 497 524 497Q471 497 453 506Q444 513 444 525Q444
531 449 546Q409 559 373 559Q296 559 257 500T218 350Q218 261 254 220T346 179Q377 179 407 193Q422 219 422 238Q422 259 407 281Q319 281 317 293Q308 300 308 332Q308 381 320 388Q340 419 435 419Q488 419 537 410T592 385Q601 364 609 298T617 158Q617 70
605 9Q584 -8 543 -8Q516 -8 470 0Q449 8 449 39Q383 -6 315 -6Q263 -6 214 15T123 78T57 189T32 346Z" />
<glyph unicode="H" glyph-name="H" horiz-adv-x="766" d="M43 86Q43 134 49 140Q58 145 84 149Q102 152 107 152Q95 252 95 353Q95 450 107 546Q102 546 84 549Q58 553 49 558Q43 564 43 612Q43 664 49 671Q72 698 209 698Q305 698 322 689Q328 679 336 639T345
577Q345 564 342 560Q320 549 294 549Q283 549 277 550Q288 480 289 415Q305 428 385 428Q464 428 476 413Q479 490 487 546Q482 546 464 549Q438 553 429 558Q423 564 423 612Q423 664 429 671Q452 698 589 698Q685 698 702 689Q708 679 716 639T725 577Q725 564
722 560Q700 549 674 549Q663 549 657 550Q669 469 669 374Q669 296 657 148Q663 149 674 149Q700 149 722 138Q725 134 725 121Q725 100 717 60T702 9Q684 0 591 0Q452 0 429 27Q423 34 423 86Q423 134 429 140Q438 145 464 149Q482 152 487 152Q477 227 476 293Q460
285 388 285Q302 285 286 293Q285 262 277 148Q283 149 294 149Q320 149 342 138Q345 134 345 121Q345 100 337 60T322 9Q304 0 211 0Q72 0 49 27Q43 34 43 86Z" />
<glyph unicode="I" glyph-name="I" horiz-adv-x="385" d="M43 86Q43 134 49 140Q58 145 84 149Q102 152 107 152Q95 252 95 353Q95 450 107 546Q102 546 84 549Q58 553 49 558Q43 564 43 612Q43 664 49 671Q72 698 209 698Q305 698 322 689Q328 679 336 639T345
577Q345 564 342 560Q320 549 294 549Q283 549 277 550Q289 469 289 374Q289 296 277 148Q283 149 294 149Q320 149 342 138Q345 134 345 121Q345 100 337 60T322 9Q304 0 211 0Q72 0 49 27Q43 34 43 86Z" />
<glyph unicode="J" glyph-name="J" horiz-adv-x="616" d="M10 32Q10 76 34 180T70 292Q78 295 89 295Q111 295 147 288T193 274Q195 274 195 266Q195 244 188 195Q223 172 248 172Q295 172 317 241T339 412Q339 511 324 579Q311 569 286 569Q259 569 249 583Q249
587 249 595T248 611Q248 657 268 691Q308 699 392 699Q568 699 597 674Q600 662 600 629Q600 579 588 565Q584 560 565 560Q538 560 528 565Q541 491 541 412Q541 300 517 206T442 51T325 -10Q292 -10 244 3T156 38Q148 10 143 10Q138 5 76 5Q17 5 14 13Q10 14
10 32Z" />
<glyph unicode="K" glyph-name="K" horiz-adv-x="758" d="M44 86Q44 134 50 140Q59 145 85 150Q103 153 108 152Q96 252 96 353Q96 450 108 546Q103 546 85 549Q59 553 50 558Q44 564 44 612Q44 664 50 671Q73 698 214 698Q304 698 323 689Q329 679 337 639T346
577Q346 564 343 560Q321 549 295 549Q284 549 278 550Q289 471 290 436Q445 473 494 551Q490 550 481 550Q460 550 443 564Q434 573 434 607Q434 664 445 690Q455 700 530 700Q594 700 650 692T708 671Q720 658 720 607Q720 573 714 558Q684 545 661 545Q652 545
648 546Q629 454 505 370Q557 327 609 258T682 148Q717 148 725 140Q747 128 747 68Q747 26 741 13Q717 -4 589 -4Q462 -4 444 9Q422 15 422 77Q422 114 430 127Q437 140 473 140Q464 159 425 203T336 284Q306 273 287 271L278 148Q284 149 295 150Q321 150 343
138Q346 134 346 121Q346 100 338 60T323 9Q319 3 272 -2T188 -7Q139 -7 99 3T50 27Q44 34 44 86Z" />
<glyph unicode="L" glyph-name="L" horiz-adv-x="649" d="M35 612Q35 676 49 698Q82 707 214 707Q360 707 373 698Q388 672 388 611Q388 586 382 580Q360 572 330 572Q311 572 296 576Q293 519 293 445Q293 295 326 174Q330 165 391 165Q446 165 465 178L462 241Q517
273 571 273Q590 273 617 268Q640 192 640 120Q640 64 630 34Q590 20 480 9T272 -2Q117 -2 53 28Q44 40 44 61Q44 153 71 167Q84 176 99 176Q103 176 113 174Q99 359 99 428Q99 459 109 577Q94 574 78 574Q56 574 40 580Q35 586 35 612Z" />
<glyph unicode="M" glyph-name="M" horiz-adv-x="810" d="M39 84Q39 124 52 140Q78 152 110 152Q98 252 98 353Q98 450 110 546Q105 546 87 549Q61 553 52 558Q45 566 45 614Q45 661 52 671Q59 683 101 690T183 698Q226 698 276 689T334 673Q350 637 350 586Q350
568 345 560Q324 550 310 549Q350 504 404 438Q457 502 499 550Q479 554 472 558Q465 566 465 614Q465 661 472 671Q480 683 519 690T611 698Q728 698 765 671Q776 660 776 622Q776 576 765 560Q743 549 717 549Q706 549 700 550Q712 469 712 374Q712 296 700 148Q706
149 717 149Q743 149 765 138Q770 127 770 102Q770 70 763 41T745 9Q725 0 638 0Q510 0 472 27Q458 41 458 84Q458 125 472 140Q481 145 507 149Q525 152 530 152Q518 252 518 361Q457 279 404 279Q352 279 292 360Q289 268 280 148Q286 149 297 149Q323 149 345
138Q361 118 361 75Q361 41 347 26Q309 0 197 0Q71 0 52 27Q39 37 39 84Z" />
<glyph unicode="N" glyph-name="N" horiz-adv-x="775" d="M39 38T39 86T54 140Q75 154 96 154Q102 154 112 152Q100 252 100 353Q100 450 112 546Q100 544 93 544Q68 544 54 558Q47 566 47 614Q47 661 54 671Q77 698 216 698Q309 698 327 689Q340 684 348 662T357
613Q357 584 347 560Q329 547 303 547Q292 547 282 550Q373 481 480 370Q480 458 492 546Q486 545 473 545Q448 545 434 558Q420 578 420 620Q420 661 434 671Q457 698 599 698Q687 698 707 689Q720 684 730 659T740 607Q740 579 727 560Q705 549 679 549Q668 549
662 550Q674 469 674 374Q674 296 662 148Q672 151 685 151Q712 151 727 138Q737 128 737 101T728 46T707 9Q688 0 598 0Q457 0 434 27Q419 42 419 89Q419 131 434 140Q450 154 474 154Q479 154 489 152Q378 243 293 344Q292 263 282 148Q294 150 303 150Q334 150
347 138Q356 128 356 100T348 44T327 9Q310 0 214 0Q77 0 54 27Q39 38 39 86Z" />
<glyph unicode="O" glyph-name="O" horiz-adv-x="742" d="M28 272Q28 347 59 423T142 562T273 663T438 702Q511 702 565 675T650 600T695 495T710 369Q710 183 608 87T342 -10Q187 -10 108 70T28 272ZM240 305Q240 252 272 215T356 177Q424 177 482 238T540 376Q540
433 507 471T419 510Q346 510 293 444T240 305Z" />
<glyph unicode="P" glyph-name="P" horiz-adv-x="651" d="M32 608Q32 656 50 667Q59 684 109 694T218 704Q277 704 303 694Q308 675 308 659Q308 651 307 650Q318 654 373 680T463 706Q516 706 558 663T619 561T639 444Q639 347 581 282T421 216Q373 216 331 228Q333
220 333 205Q333 165 327 129Q331 130 353 130Q369 130 386 125T409 112Q424 102 424 66Q424 35 409 19Q403 -1 233 -1Q163 -1 106 4T46 19Q33 33 33 63Q33 94 46 112Q51 120 68 125T102 130Q114 130 118 129Q118 146 117 192T116 287Q116 464 126 520Q123 519
109 519Q86 519 55 526Q32 553 32 608ZM326 428Q326 396 342 380T383 363Q420 363 453 394T487 469Q487 499 470 519T425 539Q387 539 357 506T326 428Z" />
<glyph unicode="Q" glyph-name="Q" horiz-adv-x="748" d="M28 272Q28 347 59 423T142 562T273 663T438 702Q511 702 565 675T650 600T695 494T710 368Q710 195 614 93Q632 31 640 0Q660 16 684 16Q696 16 704 12Q718 5 728 -21T738 -76Q738 -102 730 -115Q705
-143 630 -170T499 -197Q478 -197 467 -192Q452 -186 437 -156T422 -99Q422 -91 423 -87Q427 -73 445 -64T479 -55Q473 -44 464 -24T451 2Q402 -10 344 -10Q187 -10 108 70T28 272ZM240 305Q240 252 272 215T356 177Q424 177 482 238T540 376Q540 433 507 471T419
510Q346 510 293 444T240 305Z" />
<glyph unicode="R" glyph-name="R" horiz-adv-x="716" d="M32 601Q32 650 48 667Q61 685 105 694T201 704Q256 704 281 694Q286 675 286 659Q286 651 285 650Q299 654 353 680T441 706Q514 706 570 630T626 466Q626 407 599 354T525 278Q582 238 628 186T679 114Q687
118 697 118Q708 118 723 112Q738 98 738 64T725 17Q692 0 586 0Q515 0 466 17Q456 21 449 37T442 74Q442 99 453 110Q460 116 470 116Q477 116 489 112Q480 134 466 152T436 182T405 203T373 216T347 223T328 227L319 228Q324 203 324 176Q324 150 319 127Q326
130 338 130Q370 130 387 112Q391 103 391 65Q391 28 387 19Q381 -1 211 -1Q50 -1 44 19Q40 28 40 65Q40 103 44 112Q49 120 66 125T100 130Q112 130 116 129Q116 146 115 192T114 287Q114 464 124 520Q112 515 93 515Q64 515 53 526Q32 541 32 601ZM304 428Q304
396 320 380T361 363Q398 363 431 394T465 469Q465 499 448 519T403 539Q365 539 335 506T304 428Z" />
<glyph unicode="S" glyph-name="S" horiz-adv-x="607" d="M38 461Q38 570 112 640T287 710Q358 710 422 674Q428 704 443 716Q462 726 491 726Q537 726 555 708Q561 690 561 638Q561 504 520 495Q503 490 487 490Q450 490 428 505Q422 520 422 538Q388 566 346
566Q303 566 270 536T237 470Q237 411 324 411Q333 411 373 412T423 413Q488 413 532 376T576 252Q576 137 498 64T299 -10Q229 -10 178 27Q178 2 168 -10Q150 -20 109 -20Q65 -20 49 -5Q43 32 43 67Q43 160 86 235Q104 242 123 242Q160 242 177 225Q182 212 184
187Q213 153 265 153Q318 153 349 173T380 225Q380 243 371 254T341 271T308 278T270 281Q245 282 230 283T188 290T143 302T103 322T69 353T47 399T38 461Z" />
<glyph unicode="T" glyph-name="T" horiz-adv-x="741" d="M9 542Q9 646 23 688Q40 689 106 692T236 698T366 700T496 698T632 693T718 688Q732 646 732 542Q732 496 725 469Q675 459 644 459Q600 459 570 476L553 538Q539 547 465 549Q471 421 471 318Q471 210
460 152Q465 152 483 149Q509 145 518 140Q524 134 524 86Q524 34 518 27Q499 0 372 0Q242 0 223 27Q217 34 217 86Q217 134 223 140Q232 145 258 149Q276 152 281 152Q270 210 270 318Q270 421 276 549Q202 547 188 538L171 476Q141 459 97 459Q66 459 16 469Q9
496 9 542Z" />
<glyph unicode="U" glyph-name="U" horiz-adv-x="764" d="M5 588Q5 643 26 679Q89 702 179 702Q262 702 323 681Q346 655 346 593Q346 540 328 516Q318 510 307 510Q298 510 283 515Q283 509 281 471T278 404Q278 185 387 185Q420 185 441 204T473 258T488 329T492
413Q492 442 491 477T489 525Q485 514 457 514Q440 514 436 523Q419 549 419 601T436 678Q485 701 593 701Q705 701 742 671Q761 638 761 598Q761 563 744 536Q732 523 702 523Q688 523 682 525Q693 470 693 405Q693 290 659 198T552 48T375 -10Q80 -10 80 470Q80
488 80 493T81 506Q77 502 62 502Q32 502 25 509Q5 536 5 588Z" />
<glyph unicode="V" glyph-name="V" horiz-adv-x="807" d="M2 627Q2 664 17 688Q30 700 173 700Q234 700 290 697T346 689Q368 675 368 609Q368 590 365 581Q365 575 358 570T339 565Q310 565 310 569Q306 569 306 561Q306 526 308 494T317 429T328 376T345 319T362
271T383 216T404 164Q436 234 453 279T487 401T503 561Q503 569 499 569Q499 565 470 565Q459 565 452 570T444 581Q441 590 441 609Q441 675 463 689Q463 693 519 696T636 700Q779 700 792 688Q804 672 804 632Q804 581 787 564Q778 560 764 560Q736 560 731 568Q731
517 641 266T528 5Q481 -13 404 -13Q305 -13 281 5Q260 14 171 266T82 563Q82 567 83 568Q60 559 46 559Q35 559 22 564Q2 578 2 627Z" />
<glyph unicode="W" glyph-name="W" horiz-adv-x="908" d="M14 612Q14 664 20 671Q43 698 184 698Q274 698 293 689Q299 679 307 639T316 577Q316 564 313 560Q291 549 265 549Q254 549 248 550Q271 508 295 446T320 338Q329 347 358 379T410 429T453 446Q469 446
488 433T521 407T557 369T586 337Q590 370 602 407T633 487T658 546Q632 555 607 570Q594 579 594 628Q594 680 600 687Q609 699 709 699Q831 699 873 689Q896 650 896 590Q896 564 893 560Q871 549 845 549Q834 549 828 550Q816 345 718 148Q724 146 739 145T763
138Q766 134 766 121Q766 100 758 60T743 9Q738 0 662 0Q530 0 510 27Q504 34 504 86Q504 134 510 140Q517 144 537 148Q521 166 494 208T452 270Q437 251 411 209T368 149Q382 148 403 138Q406 134 406 121Q406 100 398 60T383 9Q366 0 271 0Q205 0 184 5T150
27Q143 39 143 90Q143 133 150 140Q162 152 188 152Q88 366 78 546Q73 546 55 549Q29 553 20 558Q14 564 14 612Z" />
<glyph unicode="X" glyph-name="X" horiz-adv-x="733" d="M17 49Q17 93 46 134Q50 134 72 132Q72 168 131 247T232 353Q188 382 131 456T72 568Q59 564 45 564Q19 590 19 646Q19 667 23 683Q74 703 167 703Q213 703 258 694Q277 688 288 666T300 619Q300 599 291
587Q282 582 273 582Q267 582 255 584Q260 582 265 578T278 565T291 549T307 527T324 503T343 475T364 445Q373 456 398 489T444 546T485 584Q479 582 467 582Q450 582 447 588Q439 610 439 628Q439 667 471 693Q518 703 577 703Q663 703 709 682Q716 663 716 641Q716
600 695 577Q679 577 669 580Q668 542 607 462T502 353Q547 316 578 279T621 221T645 169T660 132Q666 134 682 134Q695 125 706 97T717 45Q717 25 708 19Q648 -4 575 -4Q540 -4 442 12Q426 21 426 58Q426 99 438 123Q445 130 459 130Q469 130 478 127Q454 142
435 164T396 217T364 263Q355 252 331 218T288 161T252 128Q257 129 268 129Q284 129 291 123Q293 116 293 96Q293 65 284 38T258 7Q200 -4 156 -4Q72 -4 23 18Q17 32 17 49Z" />
<glyph unicode="Y" glyph-name="Y" horiz-adv-x="680" d="M4 605Q91 674 265 702Q266 702 285 663Q304 620 304 600Q304 595 279 583Q261 574 248 574Q262 531 346 442Q370 456 398 502T434 574Q422 574 403 583Q379 594 378 599Q378 621 397 663Q416 702 417
702Q482 702 561 673T678 605Q671 566 667 552Q658 520 650 499Q631 503 608 514Q603 506 585 476T553 429T511 384T444 331Q439 308 437 237T432 151Q461 151 487 137Q491 130 491 105Q491 34 478 8Q466 -1 336 -1Q188 -1 177 15Q173 25 173 65Q173 131 181 139Q206
151 239 151Q232 315 229 331Q170 369 126 429T74 514Q51 503 32 499Q23 521 14 553Q8 572 4 605Z" />
<glyph unicode="Z" glyph-name="Z" horiz-adv-x="756" d="M19 -20Q19 77 49 148T128 262T229 338T335 409T421 491Q420 491 409 496T374 508T325 514Q236 514 226 509Q227 505 227 500Q227 490 213 468Q171 452 136 452T74 469Q52 497 52 573Q52 622 55 649T63
684T74 697Q82 701 145 701Q234 701 238 690Q244 689 245 685Q247 681 247 672Q349 676 423 676Q503 676 542 673Q545 691 551 694Q555 704 646 704Q710 704 715 700Q708 610 665 523T560 371T439 260T325 186Q352 183 388 183Q489 183 545 204Q544 209 544 220Q544
237 558 263Q573 270 632 270Q687 270 700 263T719 208T726 117Q726 80 719 46T706 -3T697 -20Q691 -23 628 -23Q537 -23 533 -13Q528 -12 524 29Q470 11 437 5T335 -1Q260 -1 191 5Q190 -11 183 -13Q179 -24 90 -24Q27 -24 19 -20Z" />
<glyph unicode="[" glyph-name="bracketleft" horiz-adv-x="386" d="M51 257Q51 452 93 650Q184 666 248 666T364 650Q376 632 376 615Q376 598 364 582Q310 569 264 569Q220 569 178 582Q199 420 199 258Q199 90 178 -76Q220 -63 264 -63T360 -76Q380 -90 380
-111Q380 -122 371 -144Q320 -160 255 -160Q191 -160 93 -144Q51 63 51 257Z" />
<glyph unicode="\" glyph-name="backslash" horiz-adv-x="600" d="M24 702Q34 732 61 732Q79 732 104 719Q400 415 576 -90Q567 -129 542 -129Q522 -129 496 -107Q170 237 24 702Z" />
<glyph unicode="]" glyph-name="bracketright" horiz-adv-x="386" d="M6 -111Q6 -90 26 -76Q78 -63 122 -63T208 -76Q187 90 187 258Q187 420 208 582Q166 569 122 569Q76 569 22 582Q10 598 10 615Q10 632 22 650Q74 666 138 666T293 650Q335 452 335 257Q335
63 293 -144Q195 -160 131 -160Q66 -160 15 -144Q6 -122 6 -111Z" />
<glyph unicode="^" glyph-name="asciicircum" horiz-adv-x="833" d="M172 503Q175 508 185 526T199 551T213 573T230 597T248 620T271 644Q290 659 310 659Q330 659 355 644Q410 592 454 503Q440 495 427 495T398 503Q340 533 313 574Q272 523 228 503Q213 497
200 497Q186 497 172 503Z" />
<glyph unicode="_" glyph-name="underscore" horiz-adv-x="760" d="M96 -151Q96 -131 109 -112Q202 -101 443 -101Q500 -101 542 -103T615 -108T655 -112Q670 -130 670 -151T655 -199Q651 -205 554 -208T389 -212Q301 -212 109 -199Q96 -173 96 -151Z" />
<glyph unicode="`" glyph-name="grave" horiz-adv-x="833" d="M223 721Q260 747 304 747Q323 747 331 745Q376 696 417 594Q406 586 392 586Q381 586 357 594Q264 651 223 721Z" />
<glyph unicode="a" glyph-name="a" horiz-adv-x="624" d="M26 208Q26 281 47 348T117 464T232 512Q259 512 280 504T314 485T335 462T346 442L350 434Q350 468 349 485Q382 513 467 513Q497 513 520 511T556 506T575 500T585 496L587 495Q591 486 591 439Q591
391 587 382Q573 364 537 364Q527 364 515 366Q518 360 518 315Q518 184 509 170Q516 173 526 173Q538 173 580 164Q588 158 588 79Q588 35 585 23Q579 12 541 2T459 -8Q339 -8 325 -4Q318 15 318 28Q318 36 321 40Q306 35 257 10T182 -16Q105 -16 66 49T26 208ZM159
227Q159 195 178 172T228 149Q269 149 303 185T338 267Q338 301 319 324T267 347Q237 347 211 327T171 274Q159 251 159 227Z" />
<glyph unicode="b" glyph-name="b" horiz-adv-x="611" d="M9 683Q9 730 13 739L20 743Q27 747 56 752T129 758Q241 758 276 728Q281 718 281 619Q281 577 280 540T278 500Q320 512 366 512Q467 512 526 434T586 254Q586 196 567 137T505 35T410 -8Q377 -8 329
17T264 48Q265 47 265 39Q265 23 260 4Q240 0 145 0Q98 0 61 10T17 31Q14 43 14 87Q14 166 22 172Q54 179 86 179Q100 179 103 178Q93 234 93 412Q93 461 94 527T95 610Q87 608 78 608Q61 608 40 613T13 626Q9 635 9 683ZM262 288Q262 241 297 205T372 169Q403
169 422 192T441 246Q441 288 410 327T334 367Q302 367 282 345T262 288Z" />
<glyph unicode="c" glyph-name="c" horiz-adv-x="570" d="M26 227Q26 366 113 438T374 510L382 535Q409 541 435 541Q494 541 543 508Q546 493 546 466Q546 414 529 378T487 332Q444 317 408 317Q371 317 341 332L348 366Q324 373 302 373Q256 373 227 331T197
238Q197 196 217 163T267 129Q295 129 334 152L327 179Q374 213 435 213Q456 213 488 206Q549 139 549 48Q549 28 546 7Q491 -29 420 -29Q410 -29 388 -27L379 0Q311 -13 261 -13Q153 -13 90 46T26 227Z" />
<glyph unicode="d" glyph-name="d" horiz-adv-x="630" d="M25 254Q25 355 84 433T245 512Q281 512 323 500Q323 502 322 539T320 619Q320 718 325 728Q360 758 497 758Q541 758 570 753T606 743L613 739Q617 730 617 683Q617 635 613 626Q608 618 591 613T557
608Q545 608 541 609Q541 592 542 527T543 412Q543 234 533 178Q536 179 550 179Q572 179 604 172Q612 166 612 87Q612 43 609 31Q581 0 463 0Q459 0 351 4Q346 23 346 39Q346 47 347 48Q331 43 283 18T201 -8Q148 -8 106 35T45 137T25 254ZM178 247Q178 215 197
192T247 169Q288 169 322 205T357 287Q357 321 338 344T286 367Q244 367 211 329T178 247Z" />
<glyph unicode="e" glyph-name="e" horiz-adv-x="557" d="M23 222Q23 269 41 318T95 410T191 482T327 510Q410 510 456 477T503 381Q503 297 426 245T252 192Q226 192 199 197Q201 124 321 124Q342 124 357 127Q357 135 360 144Q404 180 455 180Q465 180 470 179Q536
143 551 61Q550 53 544 44T530 29T510 14T490 1T468 -11T451 -20Q445 -20 441 -19T434 -14T429 -9T425 -1T421 7Q365 -14 306 -14Q172 -14 98 55T23 222ZM218 326Q218 293 266 293Q302 293 335 310T368 352Q368 369 357 387T320 406Q289 406 254 381T218 326Z"
/>
<glyph unicode="f" glyph-name="f" horiz-adv-x="409" d="M29 389Q29 465 42 482Q57 490 101 495Q101 560 102 595T111 665T129 714T163 740T216 754T293 757Q358 757 389 752T454 731Q467 714 467 638Q467 599 457 570L365 591L371 612Q365 613 353 613Q273 613
273 534Q273 528 273 515T274 498H316Q334 498 341 498T349 499Q365 499 393 495Q397 491 397 470Q397 394 384 377Q366 366 281 363L288 154Q300 161 319 161Q337 161 341 156Q351 156 351 116Q351 107 341 34Q299 15 266 8T176 0Q62 0 45 28Q36 40 36 75Q36 133
63 147Q76 156 91 156Q95 156 105 154Q102 352 102 361Q101 361 98 361T88 360H75Q61 360 33 364Q29 368 29 389Z" />
<glyph unicode="g" glyph-name="g" horiz-adv-x="585" d="M25 196Q25 270 62 341T170 461T328 510Q357 510 385 503Q398 524 405 534T422 557T438 575T450 581Q471 581 531 534T592 458Q591 449 559 420T506 376Q523 328 523 266Q523 146 458 73T295 -8Q314 -17
383 -20T503 -36T555 -85Q555 -120 506 -153T390 -206T266 -238T183 -250Q160 -250 146 -236T128 -206T120 -164Q292 -123 292 -115Q292 -113 265 -109T204 -98T144 -69T116 -13Q116 0 128 17Q76 43 51 90T25 196ZM218 226Q218 195 237 172T287 149Q327 149 362
185T397 268Q397 302 377 324T325 347Q281 347 250 308T218 226Z" />
<glyph unicode="h" glyph-name="h" horiz-adv-x="703" d="M-9 644Q-9 719 19 732Q53 752 141 752Q187 752 246 739Q268 706 268 565Q268 462 258 430Q365 510 456 510Q535 510 583 454T631 283Q631 264 624 173Q624 175 633 175Q648 175 680 170Q689 160 689 105Q689
36 679 20Q604 0 542 0Q473 0 422 18Q415 23 407 53T399 106Q399 139 417 163Q428 170 445 170Q450 170 452 169T456 167T462 164Q468 194 468 219Q468 277 441 308T375 339Q333 339 302 304T270 207Q270 182 276 154Q288 161 307 161Q325 161 329 156Q339 156
339 116Q339 107 329 34Q254 0 153 0Q43 0 23 28Q14 40 14 61Q14 133 41 147Q53 156 78 156Q83 156 93 154Q82 223 82 425Q82 559 89 595Q73 590 41 590Q19 590 0 594Q-9 604 -9 644Z" />
<glyph unicode="i" glyph-name="i" horiz-adv-x="378" d="M21 83Q21 132 41 140Q50 145 76 149Q94 152 99 152Q88 268 88 300Q88 370 98 392Q69 392 53 396Q45 417 45 433Q45 464 72 504Q109 511 211 511Q246 511 279 507T330 498T349 487Q357 475 357 450Q357
397 341 377Q338 373 314 373T280 378Q269 308 269 197Q269 150 272 148Q278 149 289 149Q315 149 337 138Q341 131 341 114Q341 89 333 56T317 9Q301 0 210 0Q64 0 41 27Q21 41 21 83ZM121 706Q121 734 151 734Q176 734 205 719Q226 740 261 740Q283 740 300 725T317
684Q317 671 312 659T300 639T280 621T259 606T232 591T208 577Q169 606 145 642T121 706Z" />
<glyph unicode="j" glyph-name="j" horiz-adv-x="517" d="M-62 -198Q-62 -155 -38 -61T-2 42Q6 45 17 45Q37 45 64 38T101 24Q103 24 103 9Q103 -12 97 -49Q139 -78 170 -78Q193 -78 209 -68T235 -41T249 4T255 60T257 128Q257 284 242 392Q234 385 217 385Q196
385 167 396Q160 408 160 434Q160 461 165 475T189 500Q214 512 276 512Q465 512 495 487Q501 475 501 449Q501 396 487 377Q478 371 461 371Q440 371 426 378Q428 351 432 304T439 213T442 123Q442 -250 244 -250Q169 -250 66 -189Q57 -220 52 -220Q51 -220 51
-220Q46 -225 3 -225Q-55 -225 -58 -217Q-62 -216 -62 -198ZM260 706Q260 734 290 734Q315 734 344 719Q365 740 400 740Q422 740 439 725T456 684Q456 671 451 659T439 639T419 621T398 606T371 591T347 577Q308 606 284 642T260 706Z" />
<glyph unicode="k" glyph-name="k" horiz-adv-x="704" d="M-1 666Q-1 716 24 732Q66 752 148 752Q253 752 287 732Q307 723 307 671Q307 625 296 614Q272 610 257 610Q258 562 267 404Q320 438 362 477T404 538Q404 545 400 549Q393 542 375 542Q368 542 366 545Q357
554 357 588Q357 602 362 605Q399 616 454 616Q566 616 624 593Q628 585 628 569Q628 523 605 516Q602 515 595 515Q567 515 559 523Q558 517 541 495T489 440T415 375Q511 335 577 256T644 144Q652 148 663 148Q672 148 688 142Q705 134 705 84Q705 40 690 17Q657
0 551 0Q485 0 441 15Q417 44 417 94Q417 124 428 140Q436 145 447 145Q455 145 464 142Q453 177 431 203T376 246T324 269T273 285Q274 261 274 212Q274 173 273 154Q285 161 304 161Q322 161 326 156Q337 152 337 93Q337 38 333 14Q280 0 133 0Q63 0 32 12Q15
38 15 96Q15 138 30 146Q44 156 74 156Q82 156 88 154Q82 430 82 541Q82 605 84 611Q66 603 49 603Q29 603 15 614Q-1 636 -1 666Z" />
<glyph unicode="l" glyph-name="l" horiz-adv-x="338" d="M22 86Q22 134 28 140Q37 145 63 149Q81 152 86 152Q75 210 75 347Q75 508 85 632Q56 632 40 636Q38 656 38 668Q38 712 59 744Q102 754 173 754Q227 754 255 744Q266 652 266 546Q266 472 259 336T251
148Q257 149 268 149Q294 149 316 138Q319 134 319 121Q319 100 311 60T296 9Q280 0 188 0Q51 0 28 27Q22 34 22 86Z" />
<glyph unicode="m" glyph-name="m" horiz-adv-x="1056" d="M29 70Q29 131 56 147Q68 156 83 156Q88 156 98 154Q98 183 96 247T94 345Q90 345 82 343T69 340Q65 340 57 342T45 344Q41 348 41 365Q41 392 49 432T64 482Q75 488 110 494T182 501Q228 501 259 489Q266
482 266 464Q266 460 261 430Q366 510 458 510Q554 510 602 431Q719 510 813 510Q889 510 936 454T984 283Q984 268 977 173Q977 175 986 175Q1000 175 1033 170Q1042 160 1042 105Q1042 36 1032 20Q957 0 895 0Q826 0 775 18Q768 23 760 53T752 106Q752 139 770
163Q781 170 798 170Q803 170 805 169T809 167T815 164Q821 194 821 219Q821 277 794 308T728 339Q699 339 673 322T633 272Q631 198 627 173Q627 175 636 175Q650 175 683 170Q692 160 692 105Q692 36 682 20Q607 0 545 0Q476 0 425 18Q418 23 410 53T402 106Q402
139 420 163Q431 170 448 170Q453 170 455 169T459 167T465 164Q469 187 469 203Q469 271 443 305T376 339Q335 339 304 304T273 208Q273 182 279 154Q291 161 310 161Q328 161 332 156Q342 156 342 116Q342 107 332 34Q260 -1 155 -1Q63 -1 38 28Q29 40 29 70Z"
/>
<glyph unicode="n" glyph-name="n" horiz-adv-x="717" d="M28 75Q28 133 55 147Q67 156 82 156Q87 156 97 154Q97 183 95 247T93 345Q89 345 81 343T68 340Q64 340 56 342T44 344Q40 348 40 365Q40 392 48 432T63 482Q73 488 111 494T188 501Q238 501 270 489Q277
483 277 466Q277 460 272 430Q379 510 470 510Q549 510 597 454T645 283Q645 264 638 173Q638 175 647 175Q662 175 694 170Q703 160 703 105Q703 36 693 20Q618 0 556 0Q487 0 436 18Q429 23 421 53T413 106Q413 139 431 163Q442 170 459 170Q464 170 466 169T470
167T476 164Q482 194 482 219Q482 277 455 308T389 339Q347 339 316 304T284 207Q284 182 290 154Q302 161 321 161Q339 161 343 156Q353 156 353 116Q353 107 343 34Q268 0 167 0Q57 0 37 28Q28 40 28 75Z" />
<glyph unicode="o" glyph-name="o" horiz-adv-x="547" d="M23 197Q23 271 60 342T168 461T323 510Q425 510 473 441T521 267Q521 131 446 61T252 -10Q140 -10 82 49T23 197ZM216 226Q216 195 235 172T285 149Q325 149 360 185T395 268Q395 302 375 324T323 347Q279
347 248 308T216 226Z" />
<glyph unicode="p" glyph-name="p" horiz-adv-x="610" d="M8 -175Q8 -127 12 -118Q17 -110 39 -105T78 -100Q90 -100 94 -101Q94 -84 93 -18T92 97Q92 274 102 330Q99 329 85 329Q52 329 21 336Q13 342 13 421Q13 465 16 477Q23 488 60 498T144 508Q239 508 259
504Q264 485 264 469Q264 461 263 460Q279 465 327 490T409 516Q462 516 504 473T565 371T585 254Q585 153 526 75T365 -4Q319 -4 277 8Q277 6 278 -31T280 -111Q280 -210 275 -220Q240 -250 128 -250Q84 -250 55 -245T19 -235L12 -231Q8 -222 8 -175ZM253 221Q253
187 272 164T324 141Q366 141 399 179T432 261Q432 293 413 316T363 339Q322 339 288 303T253 221Z" />
<glyph unicode="q" glyph-name="q" horiz-adv-x="610" d="M25 254Q25 312 44 371T106 473T201 516Q234 516 282 491T347 460Q346 461 346 469Q346 485 351 504Q371 508 466 508Q513 508 550 498T594 477Q597 465 597 421Q597 342 589 336Q558 329 525 329Q511
329 508 330Q518 274 518 97Q518 48 517 -18T516 -101Q520 -100 532 -100Q549 -100 571 -105T598 -118Q602 -127 602 -175Q602 -222 598 -231L591 -235Q584 -239 555 -244T482 -250Q370 -250 335 -220Q330 -210 330 -111Q330 -69 331 -32T333 8Q291 -4 245 -4Q144
-4 85 74T25 254ZM178 262Q178 220 209 181T285 141Q317 141 337 163T357 220Q357 267 322 303T247 339Q216 339 197 316T178 262Z" />
<glyph unicode="r" glyph-name="r" horiz-adv-x="537" d="M33 439Q33 486 37 495Q73 513 181 513Q224 513 246 508T288 485Q287 468 287 434L290 442Q294 450 302 461T323 484T357 504T406 512Q482 512 535 447Q514 353 424 315Q388 341 357 341Q317 341 295 302T272
204Q272 184 275 161Q281 161 317 155L330 153Q345 142 345 100Q345 70 336 40T312 -4Q292 -8 197 -8Q148 -8 97 2T39 23Q36 35 36 79Q36 158 44 164Q86 173 98 173Q108 173 115 170Q106 184 106 315Q106 360 109 366Q97 364 87 364Q51 364 37 382Q33 391 33 439Z"
/>
<glyph unicode="s" glyph-name="s" horiz-adv-x="512" d="M16 30Q17 59 25 87T54 139T106 164Q131 164 160 154T190 123Q190 119 188 111Q224 99 237 99Q260 99 277 116T295 159Q295 183 277 195T230 208T169 214T108 227T61 264T42 338Q42 400 76 440T156 494T261
508Q305 508 359 499Q369 517 382 521Q456 514 480 471Q478 442 471 415T442 362T389 337Q364 337 335 347T306 378Q306 382 308 390Q284 398 270 398Q246 398 229 381T212 344Q212 320 240 309T309 294T391 282T460 246T489 166Q489 80 415 37T239 -7Q191 -7 137
2Q127 -16 114 -20Q40 -13 16 30Z" />
<glyph unicode="t" glyph-name="t" horiz-adv-x="449" d="M3 478Q3 499 7 503Q35 507 49 507Q55 507 64 507T79 506H86V694Q160 700 176 700Q212 700 264 694L274 504Q352 501 370 490Q383 473 383 397Q383 376 379 372Q351 368 335 368H327Q320 368 303 368T260
369Q260 364 260 297T259 223Q259 179 276 162T328 144Q338 144 340 146T344 159Q344 166 367 171L433 187Q443 158 443 119Q443 43 430 26Q426 24 414 17T398 9T384 3T366 -3T346 -6T318 -9T283 -10Q239 -10 212 -6T159 13T119 52T94 120T79 224T75 372Q31 377
16 385Q3 402 3 478Z" />
<glyph unicode="u" glyph-name="u" horiz-adv-x="717" d="M14 395Q14 464 24 480Q99 500 161 500Q230 500 281 482Q288 477 296 447T304 394Q304 361 286 337Q275 330 258 330Q253 330 251 331T247 333T241 336Q235 306 235 281Q235 223 262 192T328 161Q370 161
401 196T433 293Q433 318 427 346Q413 338 391 338Q378 338 374 344Q357 350 357 405Q357 456 374 466Q449 500 550 500Q660 500 680 472Q691 456 691 427Q691 370 662 353Q650 344 635 344Q630 344 620 346Q620 317 622 253T624 155Q652 157 657 157Q667 157 673
156Q677 152 677 135Q677 108 669 68T654 18Q643 12 602 5T521 -3Q473 -3 449 9Q440 15 440 36Q440 40 445 70Q338 -10 247 -10Q168 -10 120 46T72 217Q72 236 79 327Q79 325 70 325Q56 325 23 330Q14 340 14 395Z" />
<glyph unicode="v" glyph-name="v" horiz-adv-x="662" d="M-1 428Q87 498 255 525Q256 525 275 486Q292 449 292 430Q292 413 270 405T238 397Q294 216 331 185Q380 245 424 397Q412 397 393 406Q369 417 368 422Q368 444 387 486Q406 525 407 525Q472 525 548
496T663 428L653 376Q645 346 635 322Q616 326 593 337Q585 301 568 266T519 181T481 119Q492 119 511 107Q531 96 539 84Q535 52 527 37T491 10Q469 1 393 1Q190 1 170 9Q123 47 123 84Q130 94 151 107Q170 119 181 119Q179 121 162 150T138 188T117 224T95 266T80
301T69 337Q46 326 27 322Q18 345 9 376Q6 390 -1 428Z" />
<glyph unicode="w" glyph-name="w" horiz-adv-x="1044" d="M-2 424Q85 493 259 521Q298 462 298 419Q296 411 274 402T242 393Q253 333 320 211Q346 230 369 285T412 404T437 479Q463 497 524 497Q564 497 606 479Q607 476 622 428T644 360T665 302T694 240T723
201Q742 231 769 297T801 393Q790 394 768 403T745 420Q745 430 759 472T784 521Q958 493 1045 424Q1035 360 1017 318Q998 322 975 333Q974 306 945 244Q928 207 873 115Q901 106 921 80Q921 43 874 5Q871 4 845 2T777 -1T696 -3Q665 -3 615 62T521 204Q480 127
429 62T347 -3Q309 -3 267 -2T198 2T169 5Q122 43 122 80Q128 87 146 101T170 115Q115 208 98 244Q69 305 68 333Q45 322 26 318Q8 365 -2 424Z" />
<glyph unicode="x" glyph-name="x" horiz-adv-x="682" d="M16 17Q16 65 45 103Q52 104 62 104T79 101Q80 136 117 180T198 252Q151 283 117 322T81 398Q68 395 45 395Q19 428 17 482Q59 500 168 500Q232 500 271 493Q281 492 295 459T310 408Q298 399 278 399Q271
399 261 401Q281 389 293 376T340 314Q386 369 420 401Q413 399 399 399Q376 399 371 408Q371 421 385 452T409 493Q454 501 514 501Q619 501 663 482Q663 422 636 395Q631 390 623 390Q619 390 600 398Q599 330 485 252Q527 225 563 181T600 104Q602 104 607 104T617
105Q626 105 636 103Q664 82 664 22V17Q624 -3 518 -3Q455 -3 409 5Q394 13 383 41T371 90Q379 101 401 101Q412 101 420 98Q408 105 403 108T391 121T380 134T364 157T340 192Q330 179 316 158T290 124T261 98Q269 99 283 99Q304 99 310 92Q309 78 295 42T271
5Q225 -3 162 -3Q56 -3 16 17Z" />
<glyph unicode="y" glyph-name="y" horiz-adv-x="713" d="M-15 -215Q-15 -166 -1 -97T24 -18Q36 -13 51 -13Q94 -13 127 -36Q129 -36 129 -51Q129 -61 128 -67Q142 -70 166 -76T201 -85T230 -91T263 -95T295 -97Q378 -97 415 -59T460 70Q352 -10 244 -10Q74 -10
74 234Q74 290 80 336Q79 335 71 335Q56 335 24 340Q12 361 12 410Q12 467 25 490Q100 510 162 510Q231 510 282 492Q305 466 305 416Q305 371 287 347Q276 340 259 340Q254 340 252 341T248 343T242 346Q236 316 236 281Q236 223 263 192T329 161Q371 161 402
196T434 293Q434 318 428 346Q416 339 397 339Q379 339 375 344Q359 350 359 403Q359 457 375 466Q423 500 551 500Q662 500 691 477Q694 465 694 437Q694 381 683 367Q677 358 655 358Q642 358 622 368Q623 346 627 298T635 205T638 121Q638 17 616 -59T555 -177T470
-239T369 -259Q313 -259 281 -258T199 -247T108 -217Q99 -250 97 -250Q91 -255 54 -255Q-9 -255 -12 -247Q-15 -235 -15 -215Z" />
<glyph unicode="z" glyph-name="z" horiz-adv-x="610" d="M13 29Q14 94 106 193T326 368Q297 385 255 385Q202 385 176 356Q179 347 179 332Q179 322 176 318Q158 309 126 309Q85 309 59 325Q45 338 45 407Q45 484 59 493Q87 500 121 500Q154 500 185 493Q191
492 192 471Q230 502 350 502Q463 502 576 478Q575 419 470 309T283 149Q305 142 329 142Q370 142 443 175Q442 178 442 183Q442 200 453 220Q472 228 509 228Q544 228 562 220Q581 206 581 128Q581 83 575 45T560 3T508 0Q438 0 434 8Q429 9 427 40Q401 20 328
10T189 0Q65 0 13 29Z" />
<glyph unicode="{" glyph-name="braceleft" horiz-adv-x="424" d="M-9 297Q-9 329 14 347Q159 347 159 424Q159 444 143 509T126 603Q126 658 168 683T277 709Q339 709 401 690Q417 677 417 659Q417 645 401 622Q300 622 266 608T231 564Q231 538 258 492T285
420Q285 384 251 356T182 312T147 292Q147 287 181 271T250 227T285 165Q285 142 258 95T231 21Q231 2 241 -9T290 -28T396 -36Q419 -47 419 -67Q419 -78 407 -104Q343 -123 279 -123Q212 -123 169 -98T126 -17Q126 10 142 75T159 163Q159 201 130 215T25 240Q-9
255 -9 297Z" />
<glyph unicode="|" glyph-name="bar" horiz-adv-x="229" d="M54 303Q54 523 75 709Q77 710 83 714T92 721T100 726T110 730T121 731Q137 731 155 722Q175 528 175 312Q175 97 155 -173Q139 -198 114 -198Q96 -198 75 -186Q54 79 54 303Z" />
<glyph unicode="}" glyph-name="braceright" horiz-adv-x="425" d="M6 653Q6 664 18 690Q82 709 146 709Q213 709 256 684T299 603Q299 576 283 511T266 423Q266 385 295 371T400 346Q434 331 434 289Q434 257 411 239Q266 239 266 162Q266 142 282 77T299 -17Q299
-72 257 -97T148 -123Q86 -123 24 -104Q8 -91 8 -73Q8 -59 24 -36Q125 -36 159 -22T194 22Q194 48 167 94T140 166Q140 202 174 230T243 274T278 294Q278 299 244 315T175 359T140 421Q140 444 167 491T194 565Q194 584 184 595T135 614T29 622Q6 633 6 653Z" />
<glyph unicode="~" glyph-name="asciitilde" horiz-adv-x="584" d="M33 204Q42 269 62 293T126 318Q165 318 283 294T433 270Q452 270 459 279T474 322Q477 324 485 324Q501 324 520 310T552 279Q543 214 522 190T460 165Q424 165 305 189T149 213Q132 213 125
205T111 162Q103 157 95 157Q79 157 60 171T33 204Z" />
<glyph unicode="&#xa1;" glyph-name="exclamdown" horiz-adv-x="274" d="M29 50Q29 187 108 331Q124 342 141 342Q160 342 176 328Q245 203 245 67Q245 -52 191 -164Q163 -178 140 -178Q130 -178 121 -176T100 -170T84 -164Q29 -63 29 50ZM81 464Q81 494 87 526Q106
534 140 534Q168 534 187 526Q196 496 196 466Q196 437 187 407Q160 399 134 399T87 407Q81 436 81 464Z" />
<glyph unicode="&#xa2;" glyph-name="cent" horiz-adv-x="613" d="M37 227Q37 453 264 499Q268 562 276 625Q280 628 283 633T291 640T302 643Q305 643 320 635Q323 611 326 567T331 508Q365 510 385 510L393 535Q420 541 446 541Q504 541 554 508Q557 493 557
466Q557 414 540 378T498 332Q455 317 419 317Q382 317 352 332L359 366Q344 370 330 372V304Q330 223 327 142Q339 148 345 152L338 179Q385 213 446 213Q468 213 499 206Q560 139 560 48Q560 28 557 7Q502 -29 431 -29Q421 -29 399 -27L390 0Q372 -3 325 -10Q324
-38 320 -89Q318 -92 316 -96T312 -102T308 -106T303 -109T296 -110T276 -100L269 -13Q162 -12 100 47T37 227ZM208 238Q208 197 227 164T274 129Q271 213 271 296V362Q242 345 225 311T208 238Z" />
<glyph unicode="&#xa3;" glyph-name="sterling" horiz-adv-x="674" d="M44 365Q44 420 57 436Q106 441 127 443Q169 757 403 757Q468 757 547 733Q568 712 568 681Q568 652 555 633Q514 649 478 649Q346 649 313 445Q412 443 443 436Q450 429 454 406T458 367Q458
346 443 319Q407 312 301 308Q301 232 295 194Q297 194 358 182T461 163T524 156Q542 156 548 165T563 208Q568 211 573 211Q594 211 615 176T641 105Q632 44 613 18T547 -9Q513 -9 401 13T247 38Q230 8 220 -2Q204 -8 190 -8Q163 -8 123 6T72 40Q103 116 110 164T118
312Q74 316 57 319Q44 345 44 365Z" />
<glyph unicode="&#xa4;" glyph-name="currency" horiz-adv-x="718" d="M43 55Q63 95 98 130Q116 148 135 163Q100 213 100 284Q100 391 171 481Q147 499 128 519Q93 555 73 594Q79 618 93 632Q106 645 128 650Q174 625 205 592Q228 567 243 547Q316 597 403 597Q474
597 521 558Q536 578 550 592Q585 627 627 650Q649 645 662 632Q676 618 682 594Q662 554 627 519Q602 494 577 476Q598 419 598 350Q598 239 542 169Q572 145 587 130Q622 95 642 55Q636 31 622 17Q609 4 587 -1Q545 22 510 57Q488 79 467 108Q409 77 331 77Q261
77 212 100Q190 72 175 57Q140 22 98 -1Q76 4 63 17Q49 31 43 55ZM293 313Q293 282 312 259T362 236Q402 236 437 272T472 355Q472 389 452 411T400 434Q356 434 325 395T293 313Z" />
<glyph unicode="&#xa5;" glyph-name="yen" horiz-adv-x="736" d="M32 605Q119 674 293 702Q294 702 313 663Q330 626 330 607Q330 590 308 582T276 574Q282 545 312 484T374 372Q398 396 426 466T462 574Q450 574 431 583Q407 594 406 599Q406 621 425 663Q444
702 445 702Q510 702 589 673T706 605L696 553Q687 522 678 499Q659 503 636 514Q631 506 613 476T581 429T539 384T472 331Q553 322 554 321Q570 303 570 299Q570 292 554 284Q534 278 466 274L464 242Q550 238 554 234Q570 216 570 212Q570 205 554 197Q534 191
462 187Q462 169 460 151Q489 151 515 137Q519 130 519 105Q519 34 506 8Q494 -1 364 -1Q216 -1 205 15Q201 25 201 65Q201 131 209 139Q234 151 267 151L265 188Q190 192 158 197Q145 205 145 213Q145 216 147 219T153 227T158 234Q193 239 264 242L262 274Q197
277 158 284Q145 292 145 300Q145 303 147 306T153 314T158 321L183 324Q198 325 220 327T257 331Q198 369 154 429T102 514Q79 503 60 499Q51 521 42 553Q42 554 42 556T38 572T32 605Z" />
<glyph unicode="&#xa6;" glyph-name="brokenbar" horiz-adv-x="230" d="M60 50Q60 158 71 209Q89 224 110 224T158 209Q171 164 171 54Q171 -80 158 -167Q132 -180 110 -180Q90 -180 71 -167Q60 -84 60 50ZM60 510Q60 618 71 669Q89 684 110 684T158 669Q171 624
171 514Q171 380 158 293Q132 280 110 280Q90 280 71 293Q60 376 60 510Z" />
<glyph unicode="&#xa7;" glyph-name="section" horiz-adv-x="478" d="M48 300Q48 369 94 415Q87 436 87 460Q87 532 134 577T246 622Q290 622 333 599Q339 615 353 623Q367 630 389 630T417 621Q422 608 422 576Q422 492 395 485Q381 483 371 483Q348 483 337
491Q333 501 333 512Q311 530 284 530T236 511T214 468Q214 431 271 431Q276 431 301 431T332 432Q374 432 402 409T431 332Q431 259 386 212Q392 196 392 173Q392 94 343 47T217 0Q172 0 138 24Q135 17 120 2Q110 -1 95 -1Q73 -1 55 4Q51 25 51 49Q51 110 78 157Q129
157 137 151Q140 144 142 127Q159 104 194 104Q228 104 247 117T266 151Q266 185 196 187Q48 192 48 300ZM175 307Q175 269 240 269Q256 269 272 271Q287 275 296 287T305 311Q305 334 276 343T215 352Q208 352 204 352T197 351Q175 332 175 307Z" />
<glyph unicode="&#xa8;" glyph-name="dieresis" horiz-adv-x="833" d="M196 670Q196 699 214 725Q237 742 262 742T313 725Q330 698 330 668T313 606Q284 587 260 587T214 606Q196 640 196 670ZM386 670Q386 699 404 725Q427 742 452 742T503 725Q520 698 520
668T503 606Q474 587 450 587T404 606Q386 640 386 670Z" />
<glyph unicode="&#xa9;" glyph-name="copyright" horiz-adv-x="789" d="M43 291Q43 368 74 446T160 588T294 692T464 733Q539 733 594 705T681 627T728 519T743 390Q743 197 638 98T365 -1Q206 -1 125 82T43 291ZM186 307Q186 234 230 181T365 128Q473 128 544
205T615 398Q615 493 566 546T442 599Q372 599 312 553T219 439T186 307ZM242 371Q242 438 277 491T360 545Q399 545 445 506Q446 506 447 514T449 531T454 541Q455 541 462 541T478 542Q513 542 519 537Q524 510 524 458Q524 422 510 402Q489 395 471 395Q457
395 438 402Q437 403 437 407T438 413Q424 445 404 445Q388 445 375 418T362 358Q362 305 396 305Q411 305 438 323Q438 324 438 326T437 330Q437 333 438 334Q452 341 470 341Q489 341 510 334Q524 314 524 278Q524 227 519 199Q514 194 483 194Q474 194 465 194T454
195Q445 196 445 231Q399 194 362 194Q313 194 278 248T242 371Z" />
<glyph unicode="&#xaa;" glyph-name="ordfeminine" horiz-adv-x="509" d="M25 456Q25 539 77 607T209 676Q259 676 292 632Q292 652 291 661Q321 685 375 685T464 666Q468 661 468 631Q468 588 464 583Q458 572 438 572Q435 572 431 572T425 573Q426 571 426 530Q426
410 421 403Q429 405 431 405Q437 405 449 402L461 400Q465 397 465 345Q465 334 465 323T464 310Q436 292 315 292Q287 292 277 293Q277 294 276 298L274 308L271 318Q234 288 186 288Q108 288 67 336T25 456ZM140 460Q140 432 156 414T198 395Q232 395 260 426T289
495Q289 522 273 540T230 558Q194 558 167 528T140 460Z" />
<glyph unicode="&#xab;" glyph-name="guillemotleft" horiz-adv-x="462" d="M24 239Q94 387 185 477Q223 494 242 494Q262 494 267 477Q202 325 121 239Q221 151 261 11Q244 -17 225 -17Q219 -17 213 -15T200 -10T188 -5Q78 93 24 239ZM194 239Q264 387 355 477Q393
494 412 494Q432 494 437 477Q372 325 291 239Q391 151 431 11Q414 -17 395 -17Q389 -17 383 -15T370 -10T358 -5Q248 93 194 239Z" />
<glyph unicode="&#xac;" glyph-name="logicalnot" horiz-adv-x="530" d="M39 430Q39 441 47 454Q71 467 232 467Q377 467 462 452Q469 427 469 371Q469 301 462 259Q448 252 438 252T418 259Q412 294 412 370Q412 392 413 406Q330 401 232 401Q86 401 47 410Q39
420 39 430Z" />
<glyph unicode="&#xad;" glyph-name="uni00AD" horiz-adv-x="359" d="M43 279Q43 299 56 318Q138 329 193 329Q251 329 302 318Q317 300 317 279T302 231Q256 218 196 218Q143 218 56 231Q43 257 43 279Z" />
<glyph unicode="&#xae;" glyph-name="registered" horiz-adv-x="822" d="M42 287Q42 396 97 501T256 679T484 751Q547 751 598 731T682 678T736 598T767 500T777 391Q777 189 667 85T381 -19Q214 -19 128 68T42 287ZM181 301Q181 220 230 162T378 104Q497 104
575 189T654 403Q654 509 599 566T463 623Q405 623 352 593T262 515T203 411T181 301ZM270 236Q270 248 275 260Q280 267 296 267V334Q296 423 300 444Q294 444 278 447Q270 457 270 478Q270 493 276 511Q292 527 343 527Q367 527 382 522Q383 516 383 507V502Q415
531 453 531Q495 531 527 499T559 425Q559 381 518 351Q561 338 561 260Q564 261 568 261Q571 261 581 256Q588 247 588 236Q588 221 579 210Q569 205 538 205Q480 205 458 213Q446 216 446 251Q446 260 448 264Q454 269 475 271Q456 312 400 312L394 267Q410 267
417 260Q423 252 423 239T417 218Q414 208 349 208Q277 208 275 218Q270 223 270 236ZM397 402Q397 373 422 373Q439 373 453 386T468 419Q468 433 460 443T439 453Q424 453 411 438T397 402Z" />
<glyph unicode="&#xb0;" glyph-name="degree" horiz-adv-x="423" d="M24 460Q24 546 89 620T248 695Q324 695 360 643T396 512Q396 410 341 358T197 305Q113 305 69 349T24 460ZM144 479Q144 455 159 438T198 420Q229 420 256 449T284 514Q284 540 269 558T229
576Q195 576 170 544T144 479Z" />
<glyph unicode="&#xb1;" glyph-name="plusminus" horiz-adv-x="577" d="M43 47Q43 67 56 86Q179 101 332 101Q471 101 519 92Q534 74 534 53T519 5Q459 -10 275 -10Q217 -10 176 -9T102 -5T56 -1Q43 25 43 47ZM43 382T43 400T59 438Q106 448 157 448T252 438Q238
494 238 545Q238 595 252 637Q274 649 293 649Q314 649 330 637Q344 592 344 542Q344 491 330 438Q371 446 420 446T523 438Q534 423 534 404Q534 386 523 364Q468 351 421 351Q375 351 330 364Q344 321 344 271Q344 219 330 165Q307 155 289 155Q269 155 252 165Q241
218 241 268Q241 319 252 364Q202 353 153 353Q103 353 59 364Q43 382 43 400Z" />
<glyph unicode="&#xb2;" glyph-name="uni00B2" horiz-adv-x="377" d="M45 350Q45 408 57 447T89 503T130 528T172 540T203 549T216 573Q216 602 177 602Q156 602 138 595T116 575Q116 569 115 563Q102 554 82 554Q70 554 65 558Q57 564 52 594T46 652Q46 680 51
688Q65 696 84 696Q98 696 104 690Q115 679 116 674Q149 700 211 700Q256 700 292 671T328 578Q328 541 314 518T279 486T237 471T202 454T187 422Q201 415 217 415Q239 415 259 424Q259 426 265 441Q281 445 303 445Q320 445 325 441Q339 422 339 364Q339 311
325 297Q321 295 290 295Q257 295 253 301L251 319Q227 304 189 304Q173 304 128 309Q126 302 126 301Q110 292 83 292Q64 292 49 297Q45 321 45 350Z" />
<glyph unicode="&#xb3;" glyph-name="uni00B3" horiz-adv-x="338" d="M17 372Q23 389 48 421T103 461L127 424Q126 420 121 415Q128 412 137 412Q154 412 168 423T182 450Q182 463 169 475Q157 473 149 473Q136 473 129 476Q121 487 121 517Q121 542 125 551Q128
557 154 557Q170 557 174 554Q183 563 183 574Q183 589 170 601T141 614Q137 614 129 612Q129 607 130 604Q123 592 102 592Q94 592 84 594Q78 597 69 633T59 685Q60 690 76 694T104 698L108 693Q131 709 164 709Q228 709 264 669T301 577Q301 538 269 510Q305
475 305 434Q305 381 260 342T141 303Q85 303 49 336Q37 331 35 331Q17 349 17 372Z" />
<glyph unicode="&#xb4;" glyph-name="acute" horiz-adv-x="833" d="M378 595Q419 699 463 746Q481 748 491 748Q535 748 572 722Q531 652 438 595Q414 587 403 587Q389 587 378 595Z" />
<glyph unicode="&#xb5;" glyph-name="uni00B5" horiz-adv-x="776" d="M40 -175Q40 -127 44 -118Q49 -110 71 -105T110 -100Q122 -100 126 -101Q126 -97 125 -6T124 91Q123 144 123 167T122 196Q122 280 129 326Q128 325 120 325Q106 325 73 330Q64 340 64 395Q64
464 74 480Q149 500 211 500Q280 500 331 482Q338 477 346 447T354 394Q354 361 336 337Q325 330 308 330Q303 330 301 331T297 333T291 336Q285 306 285 281Q285 223 312 189T378 154Q419 154 451 192T483 293Q483 318 477 346Q463 338 441 338Q428 338 424 344Q407
350 407 405Q407 456 424 466Q499 501 607 501Q699 501 728 471Q741 457 741 433Q741 371 712 353Q700 344 685 344Q680 344 670 346Q670 317 672 253T674 155Q702 157 707 157Q717 157 723 156Q727 152 727 135Q727 108 719 68T704 18Q693 12 652 5T571 -3Q523
-3 499 9Q490 15 490 36Q490 40 495 70Q408 -2 360 -2Q329 -2 289 29Q292 -28 292 -111Q292 -210 287 -220Q252 -250 160 -250Q116 -250 87 -245T50 -235L44 -231Q40 -222 40 -175Z" />
<glyph unicode="&#xb6;" glyph-name="paragraph" horiz-adv-x="765" d="M30 486Q30 584 124 657T360 730Q509 730 606 654Q662 654 713 643Q728 625 728 614T713 576Q670 565 629 562Q650 451 650 304Q650 84 609 -162Q576 -190 553 -190T516 -162Q467 39 467
257Q467 435 515 563H375Q403 444 403 311Q403 90 363 -162Q346 -187 323 -187T270 -162Q221 39 221 270Q124 292 77 355T30 486Z" />
<glyph unicode="&#xb7;" glyph-name="middot" horiz-adv-x="210" d="M38 318Q38 347 56 373Q79 390 104 390T155 373Q172 346 172 316T155 254Q126 235 102 235T56 254Q38 288 38 318Z" />
<glyph unicode="&#xb8;" glyph-name="cedilla" horiz-adv-x="833" d="M252 -202Q252 -172 262 -156Q274 -153 286 -153Q297 -153 309 -156Q310 -158 310 -159Q310 -162 309 -164Q331 -177 353 -177Q389 -177 389 -136Q389 -117 381 -101T362 -85T339 -105Q340
-106 340 -108Q340 -111 339 -112Q329 -117 318 -117Q304 -117 292 -112Q283 -98 283 -66Q283 -26 287 6Q290 9 329 9Q331 9 332 -4T333 -31T335 -44Q362 -21 390 -21Q426 -21 447 -53T468 -130Q468 -178 444 -213T375 -249Q341 -249 305 -225Q305 -246 299 -248Q295
-248 288 -248T278 -249Q268 -249 257 -246Q252 -224 252 -202Z" />
<glyph unicode="&#xb9;" glyph-name="uni00B9" horiz-adv-x="277" d="M36 626Q36 651 43 664Q58 680 94 691T165 703Q193 703 209 695Q218 659 218 551Q218 426 209 376Q211 377 216 377Q228 377 240 370Q243 361 243 349Q243 318 231 302Q206 295 132 295Q62
295 47 310Q40 331 40 348T47 372Q59 378 82 378Q79 440 79 498Q79 552 82 606Q79 604 74 600T66 595T58 592T43 589Q36 602 36 626Z" />
<glyph unicode="&#xba;" glyph-name="ordmasculine" horiz-adv-x="423" d="M24 460Q24 546 89 620T248 695Q324 695 360 643T396 512Q396 410 341 358T197 305Q113 305 69 349T24 460ZM144 479Q144 455 159 438T198 420Q229 420 256 449T284 514Q284 540 269 558T229
576Q195 576 170 544T144 479Z" />
<glyph unicode="&#xbb;" glyph-name="guillemotright" horiz-adv-x="462" d="M25 477Q30 494 50 494Q69 494 107 477Q198 387 268 239Q214 93 104 -5Q100 -6 93 -9T79 -15T67 -17Q48 -17 31 11Q71 151 171 239Q90 325 25 477ZM195 477Q200 494 220 494Q239 494
277 477Q368 387 438 239Q384 93 274 -5Q270 -6 263 -9T249 -15T237 -17Q218 -17 201 11Q241 151 341 239Q260 325 195 477Z" />
<glyph unicode="&#xbc;" glyph-name="onequarter" horiz-adv-x="820" d="M41 625Q41 650 48 663Q63 679 99 690T170 702Q198 702 214 694Q223 658 223 550Q223 425 214 375Q216 376 221 376Q233 376 245 369Q248 360 248 348Q248 318 236 301Q212 294 137 294Q67
294 52 309Q45 330 45 347T52 371Q64 377 87 377Q84 438 84 497Q84 551 87 605Q84 603 79 599T71 594T63 591T48 588Q41 601 41 625ZM172 43Q296 396 502 607Q516 616 532 616Q551 616 558 595Q454 266 228 30Q212 15 195 15T172 43ZM452 195Q452 218 455 239Q509
354 578 391Q597 399 652 399Q718 399 741 387Q748 359 748 310Q748 258 745 237Q747 237 750 237T754 238Q756 238 759 238T764 237Q776 222 776 182Q776 152 766 143Q763 141 754 141Q746 141 744 142Q745 137 745 127Q745 96 740 78Q742 79 747 79Q758 79 768
74Q779 66 779 28Q779 11 775 3Q749 -1 646 -1Q584 -1 570 5Q565 22 565 51Q565 70 573 74Q579 77 615 80Q613 108 613 115Q613 125 615 141Q586 138 544 138Q467 138 455 142Q452 168 452 195ZM553 232Q560 233 576 233Q599 233 616 232Q616 240 616 277T617 326Q603
315 578 274L553 232Z" />
<glyph unicode="&#xbd;" glyph-name="onehalf" horiz-adv-x="849" d="M41 625Q41 650 48 663Q63 679 99 690T170 702Q198 702 214 694Q223 658 223 550Q223 425 214 375Q216 376 221 376Q233 376 245 369Q248 360 248 348Q248 318 236 301Q212 294 137 294Q67
294 52 309Q45 330 45 347T52 371Q64 377 87 377Q84 438 84 497Q84 551 87 605Q84 603 79 599T71 594T63 591T48 588Q41 601 41 625ZM172 43Q296 396 502 607Q516 616 532 616Q551 616 558 595Q454 266 228 30Q212 15 195 15T172 43ZM515 46Q515 104 527 143T559
199T600 224T642 236T673 245T686 269Q686 298 647 298Q626 298 608 291T586 271Q586 265 585 259Q572 250 552 250Q540 250 535 254Q527 260 522 290T516 349Q516 376 521 384Q535 392 554 392Q568 392 574 386Q585 375 586 370Q619 396 681 396Q726 396 762 367T798
274Q798 237 784 214T749 182T707 167T672 150T657 118Q671 111 687 111Q709 111 729 120Q729 122 735 137Q751 141 773 141Q790 141 795 137Q809 118 809 62Q809 3 795 -6Q790 -9 764 -9Q727 -9 723 -3L721 15Q697 0 659 0Q643 0 598 5Q596 -6 594 -7Q579 -12
550 -12Q534 -12 519 -7Q515 17 515 46Z" />
<glyph unicode="&#xbe;" glyph-name="threequarters" horiz-adv-x="860" d="M33 372Q39 389 64 421T119 461L143 424Q142 420 137 415Q144 412 153 412Q170 412 184 423T198 450Q198 463 185 475Q173 473 165 473Q152 473 145 476Q137 487 137 515Q137 544 141
551Q144 557 170 557Q186 557 190 554Q199 563 199 574Q199 589 186 601T157 614Q153 614 145 612Q145 607 146 604Q139 592 118 592Q110 592 100 594Q94 597 85 633T75 685Q76 690 92 694T120 698L124 693Q147 709 180 709Q244 709 280 669T317 577Q317 538 285
510Q321 475 321 434Q321 381 276 342T157 303Q101 303 65 336Q53 331 51 331Q33 349 33 372ZM207 43Q331 396 537 607Q551 616 567 616Q586 616 593 595Q489 266 263 30Q247 15 230 15T207 43ZM487 195Q487 218 490 239Q512 287 545 331T614 390Q635 399 680 399Q752
399 776 387Q783 359 783 310Q783 258 780 237Q782 237 785 237T789 238Q791 238 794 238T799 237Q811 222 811 183Q811 150 801 143Q798 141 789 141Q781 141 779 142Q780 137 780 127Q780 96 775 78Q777 79 782 79Q793 79 803 74Q814 66 814 28Q814 11 810 3Q784
-1 681 -1Q618 -1 605 5Q600 22 600 51Q600 71 607 76Q613 79 650 80Q648 108 648 114Q648 125 650 141Q622 138 579 138Q502 138 490 142Q487 168 487 195ZM588 232Q595 233 611 233Q634 233 651 232Q651 240 651 277T652 326Q638 315 613 274L588 232Z" />
<glyph unicode="&#xbf;" glyph-name="questiondown" horiz-adv-x="551" d="M31 -71Q31 -44 38 -22T62 20T94 54T141 85T192 112T252 140Q243 162 243 196Q243 229 252 267Q271 272 307 272Q360 272 370 267Q384 240 384 187Q384 133 375 94Q309 76 278 44T246
-24T272 -84T332 -108Q361 -108 383 -88T414 -28Q439 -21 461 -21Q492 -21 507 -37T523 -79Q523 -131 480 -172Q442 -207 384 -226T263 -245Q166 -245 99 -200T31 -71ZM231 398Q231 424 250 457Q280 472 305 472Q351 472 370 457Q383 428 383 398Q383 367 370 338Q344
326 300 326Q276 326 250 338Q231 376 231 398Z" />
<glyph unicode="&#xc0;" glyph-name="Agrave" horiz-adv-x="805" d="M4 62Q4 133 20 136Q20 144 51 144Q77 144 82 136Q89 180 179 437T279 695Q336 700 416 700Q465 700 526 695Q536 694 626 438T723 136Q731 144 754 144Q785 144 785 136Q801 133 801 62Q801
16 790 12Q777 0 634 0Q573 0 517 3T461 11Q439 25 439 91Q439 110 442 119Q442 125 449 130T468 135Q497 135 497 131Q501 131 501 142Q501 159 491 216Q467 211 404 211Q338 211 314 216Q304 167 304 142Q304 131 308 131Q308 135 337 135Q348 135 355 130T363
119Q366 110 366 91Q366 25 344 11Q344 7 288 4T171 0Q28 0 15 12Q4 16 4 62ZM223 921Q260 947 304 947Q323 947 331 945Q376 896 417 794Q406 786 392 786Q381 786 357 794Q264 851 223 921ZM339 330Q367 334 398 334Q435 334 465 329Q435 450 402 536Q369 451
339 330Z" />
<glyph unicode="&#xc1;" glyph-name="Aacute" horiz-adv-x="805" d="M4 62Q4 133 20 136Q20 144 51 144Q77 144 82 136Q89 180 179 437T279 695Q336 700 416 700Q465 700 526 695Q536 694 626 438T723 136Q731 144 754 144Q785 144 785 136Q801 133 801 62Q801
16 790 12Q777 0 634 0Q573 0 517 3T461 11Q439 25 439 91Q439 110 442 119Q442 125 449 130T468 135Q497 135 497 131Q501 131 501 142Q501 159 491 216Q467 211 404 211Q338 211 314 216Q304 167 304 142Q304 131 308 131Q308 135 337 135Q348 135 355 130T363
119Q366 110 366 91Q366 25 344 11Q344 7 288 4T171 0Q28 0 15 12Q4 16 4 62ZM339 330Q367 334 398 334Q435 334 465 329Q435 450 402 536Q369 451 339 330ZM360 795Q401 899 445 946Q463 948 473 948Q517 948 554 922Q513 852 420 795Q396 787 385 787Q371 787
360 795Z" />
<glyph unicode="&#xc2;" glyph-name="Acircumflex" horiz-adv-x="805" d="M4 62Q4 133 20 136Q20 144 51 144Q77 144 82 136Q89 180 179 437T279 695Q336 700 416 700Q465 700 526 695Q536 694 626 438T723 136Q731 144 754 144Q785 144 785 136Q801 133 801 62Q801
16 790 12Q777 0 634 0Q573 0 517 3T461 11Q439 25 439 91Q439 110 442 119Q442 125 449 130T468 135Q497 135 497 131Q501 131 501 142Q501 159 491 216Q467 211 404 211Q338 211 314 216Q304 167 304 142Q304 131 308 131Q308 135 337 135Q348 135 355 130T363
119Q366 110 366 91Q366 25 344 11Q344 7 288 4T171 0Q28 0 15 12Q4 16 4 62ZM274 793Q277 798 287 816T301 841T315 863T332 887T350 910T373 934Q392 949 412 949Q432 949 457 934Q512 882 556 793Q542 785 529 785T500 793Q442 823 415 864Q374 813 330 793Q315
787 302 787Q288 787 274 793ZM339 330Q367 334 398 334Q435 334 465 329Q435 450 402 536Q369 451 339 330Z" />
<glyph unicode="&#xc3;" glyph-name="Atilde" horiz-adv-x="805" d="M4 62Q4 133 20 136Q20 144 51 144Q77 144 82 136Q89 180 179 437T279 695Q336 700 416 700Q465 700 526 695Q536 694 626 438T723 136Q731 144 754 144Q785 144 785 136Q801 133 801 62Q801
16 790 12Q777 0 634 0Q573 0 517 3T461 11Q439 25 439 91Q439 110 442 119Q442 125 449 130T468 135Q497 135 497 131Q501 131 501 142Q501 159 491 216Q467 211 404 211Q338 211 314 216Q304 167 304 142Q304 131 308 131Q308 135 337 135Q348 135 355 130T363
119Q366 110 366 91Q366 25 344 11Q344 7 288 4T171 0Q28 0 15 12Q4 16 4 62ZM211 824Q220 889 240 913T304 938Q343 938 391 914T471 890Q490 890 497 899T512 942Q515 944 523 944Q539 944 558 930T590 899Q581 834 560 810T498 785Q462 785 413 809T327 833Q310
833 303 825T289 782Q281 777 273 777Q257 777 238 791T211 824ZM339 330Q367 334 398 334Q435 334 465 329Q435 450 402 536Q369 451 339 330Z" />
<glyph unicode="&#xc4;" glyph-name="Adieresis" horiz-adv-x="805" d="M4 62Q4 133 20 136Q20 144 51 144Q77 144 82 136Q89 180 179 437T279 695Q336 700 416 700Q465 700 526 695Q536 694 626 438T723 136Q731 144 754 144Q785 144 785 136Q801 133 801 62Q801
16 790 12Q777 0 634 0Q573 0 517 3T461 11Q439 25 439 91Q439 110 442 119Q442 125 449 130T468 135Q497 135 497 131Q501 131 501 142Q501 159 491 216Q467 211 404 211Q338 211 314 216Q304 167 304 142Q304 131 308 131Q308 135 337 135Q348 135 355 130T363
119Q366 110 366 91Q366 25 344 11Q344 7 288 4T171 0Q28 0 15 12Q4 16 4 62ZM261 870Q261 899 279 925Q302 942 327 942T378 925Q395 898 395 868T378 806Q349 787 325 787T279 806Q261 840 261 870ZM339 330Q367 334 398 334Q435 334 465 329Q435 450 402 536Q369
451 339 330ZM451 870Q451 899 469 925Q492 942 517 942T568 925Q585 898 585 868T568 806Q539 787 515 787T469 806Q451 840 451 870Z" />
<glyph unicode="&#xc5;" glyph-name="Aring" horiz-adv-x="805" d="M4 62Q4 133 20 136Q20 144 51 144Q77 144 82 136Q89 180 179 437T279 695Q336 700 416 700Q465 700 526 695Q536 694 626 438T723 136Q731 144 754 144Q785 144 785 136Q801 133 801 62Q801
16 790 12Q777 0 634 0Q573 0 517 3T461 11Q439 25 439 91Q439 110 442 119Q442 125 449 130T468 135Q497 135 497 131Q501 131 501 142Q501 159 491 216Q467 211 404 211Q338 211 314 216Q304 167 304 142Q304 131 308 131Q308 135 337 135Q348 135 355 130T363
119Q366 110 366 91Q366 25 344 11Q344 7 288 4T171 0Q28 0 15 12Q4 16 4 62ZM273 775Q273 830 315 878T418 926Q468 926 495 892T522 807Q522 744 482 709T383 674Q329 674 301 703T273 775ZM339 330Q367 334 398 334Q435 334 465 329Q435 450 402 536Q369 451
339 330ZM339 781Q339 757 354 740T393 722Q424 722 451 750T479 814Q479 840 464 858T423 876Q389 876 364 845T339 781Z" />
<glyph unicode="&#xc6;" glyph-name="AE" horiz-adv-x="1010" d="M-12 62Q-12 133 4 136Q7 144 33 144Q66 144 66 136Q72 174 226 434T393 695Q452 721 631 721Q729 721 826 714T962 699Q972 669 972 643Q972 601 949 525Q925 519 902 519Q844 519 794 552L797
585Q787 587 777 587Q744 587 692 574T638 549Q644 504 644 459Q644 429 639 424Q697 424 698 427Q697 430 697 436Q697 447 706 463Q715 470 744 470Q768 470 788 464T811 447Q819 433 819 397Q819 364 813 332T796 289Q788 282 749 282T704 289Q695 301 695 319L634
314Q634 300 636 261T638 203Q638 176 635 152Q675 142 716 142Q767 142 807 159L804 192Q854 225 912 225Q935 225 959 219Q982 143 982 101Q982 45 972 15Q973 6 917 3T769 -1Q654 -1 551 3T445 11Q423 25 423 91Q423 110 426 119Q426 125 433 130T452 135Q481
135 481 131Q482 139 482 167Q482 208 481 216Q457 211 389 211Q312 211 288 216Q261 174 261 150Q261 138 262 131Q262 135 301 135Q312 135 319 130T327 119Q330 110 330 91Q330 25 308 11Q308 0 155 0Q12 0 -1 12Q-12 16 -12 62ZM343 330Q367 334 382 334Q449
334 479 329Q480 400 480 532Q463 511 441 478T389 400T343 330Z" />
<glyph unicode="&#xc7;" glyph-name="Ccedilla" horiz-adv-x="663" d="M31 344Q31 497 109 602T318 707Q413 707 458 663Q460 693 479 700Q504 711 540 711Q587 711 614 691Q626 621 626 573Q626 487 590 435Q537 415 497 415Q459 415 416 435Q415 437 415 444Q415
456 418 460Q418 498 386 520T326 543Q285 543 256 480T227 341Q227 269 255 229T325 188Q373 188 416 241Q413 259 413 261T413 265T414 268Q451 285 494 285Q539 285 591 265Q626 212 626 128Q626 81 614 9Q583 -16 534 -16Q498 -16 479 0Q458 8 458 39Q392 -6
324 -6Q271 -6 220 16T126 80T57 190T31 344ZM255 -202Q255 -172 265 -156Q277 -153 289 -153Q300 -153 312 -156Q313 -158 313 -159Q313 -162 312 -164Q334 -177 356 -177Q392 -177 392 -136Q392 -117 384 -101T365 -85T342 -105Q343 -106 343 -108Q343 -111 342
-112Q332 -117 321 -117Q307 -117 295 -112Q286 -98 286 -66Q286 -26 290 6Q293 9 332 9Q334 9 335 -4T336 -31T338 -44Q365 -21 393 -21Q429 -21 450 -53T471 -130Q471 -178 447 -213T378 -249Q344 -249 308 -225Q308 -246 302 -248Q298 -248 291 -248T281 -249Q270
-249 260 -246Q255 -224 255 -202Z" />
<glyph unicode="&#xc8;" glyph-name="Egrave" horiz-adv-x="678" d="M45 71Q45 149 72 163Q86 172 100 172Q103 172 105 171Q93 260 93 342Q93 447 114 534Q104 532 100 532Q86 532 72 541Q45 555 45 633Q45 668 54 680Q86 695 171 703T335 712Q519 712 631 674Q641
644 641 588Q641 546 618 470Q594 464 571 464Q513 464 463 497L466 530Q446 543 392 543Q331 543 327 534Q331 498 331 481Q331 442 318 409Q356 409 357 412Q356 415 356 421Q356 432 365 448Q371 453 398 453Q440 453 456 446Q476 413 476 351Q476 295 455 274Q447
267 408 267T363 274Q354 286 354 304L313 299Q313 290 302 185Q337 156 388 156Q432 156 466 174L463 207Q513 240 571 240Q594 240 618 234Q641 158 641 116Q641 60 631 30Q556 -13 359 -13Q263 -13 176 -3T54 24Q45 36 45 71ZM206 921Q243 947 287 947Q306 947
314 945Q359 896 400 794Q389 786 375 786Q364 786 340 794Q247 851 206 921Z" />
<glyph unicode="&#xc9;" glyph-name="Eacute" horiz-adv-x="678" d="M45 71Q45 149 72 163Q86 172 100 172Q103 172 105 171Q93 260 93 342Q93 447 114 534Q104 532 100 532Q86 532 72 541Q45 555 45 633Q45 668 54 680Q86 695 171 703T335 712Q519 712 631 674Q641
644 641 588Q641 546 618 470Q594 464 571 464Q513 464 463 497L466 530Q446 543 392 543Q331 543 327 534Q331 498 331 481Q331 442 318 409Q356 409 357 412Q356 415 356 421Q356 432 365 448Q371 453 398 453Q440 453 456 446Q476 413 476 351Q476 295 455 274Q447
267 408 267T363 274Q354 286 354 304L313 299Q313 290 302 185Q337 156 388 156Q432 156 466 174L463 207Q513 240 571 240Q594 240 618 234Q641 158 641 116Q641 60 631 30Q556 -13 359 -13Q263 -13 176 -3T54 24Q45 36 45 71ZM299 795Q340 899 384 946Q402 948
412 948Q456 948 493 922Q452 852 359 795Q335 787 324 787Q310 787 299 795Z" />
<glyph unicode="&#xca;" glyph-name="Ecircumflex" horiz-adv-x="678" d="M45 71Q45 149 72 163Q86 172 100 172Q103 172 105 171Q93 260 93 342Q93 447 114 534Q104 532 100 532Q86 532 72 541Q45 555 45 633Q45 668 54 680Q86 695 171 703T335 712Q519 712 631
674Q641 644 641 588Q641 546 618 470Q594 464 571 464Q513 464 463 497L466 530Q446 543 392 543Q331 543 327 534Q331 498 331 481Q331 442 318 409Q356 409 357 412Q356 415 356 421Q356 432 365 448Q371 453 398 453Q440 453 456 446Q476 413 476 351Q476 295
455 274Q447 267 408 267T363 274Q354 286 354 304L313 299Q313 290 302 185Q337 156 388 156Q432 156 466 174L463 207Q513 240 571 240Q594 240 618 234Q641 158 641 116Q641 60 631 30Q556 -13 359 -13Q263 -13 176 -3T54 24Q45 36 45 71ZM208 793Q211 798 221
816T235 841T249 863T266 887T284 910T307 934Q326 949 346 949Q366 949 391 934Q446 882 490 793Q476 785 463 785T434 793Q376 823 349 864Q308 813 264 793Q249 787 236 787Q222 787 208 793Z" />
<glyph unicode="&#xcb;" glyph-name="Edieresis" horiz-adv-x="675" d="M42 57Q42 149 69 163Q82 172 97 172Q100 172 102 171Q99 222 99 272Q99 360 111 534Q101 532 97 532Q82 532 69 541Q42 555 42 633Q42 668 51 680Q83 695 168 703T332 712Q516 712 628 674Q638
644 638 588Q638 546 615 470Q591 464 568 464Q510 464 460 497L463 530Q444 543 389 543Q328 543 324 534Q328 498 328 481Q328 442 315 409Q353 409 354 412Q353 415 353 421Q353 432 362 448Q368 453 391 453Q418 453 442 447T467 432Q475 418 475 382Q475 349
469 317T452 274Q444 267 405 267T360 274Q351 286 351 304L310 299Q310 290 299 185Q334 156 385 156Q429 156 463 174L460 207Q510 240 568 240Q591 240 615 234Q638 158 638 116Q638 60 628 30Q553 -13 356 -13Q260 -13 173 -3T51 24Q42 36 42 57ZM180 871Q180
900 198 926Q221 943 246 943T297 926Q314 899 314 869T297 807Q268 788 244 788T198 807Q180 841 180 871ZM370 871Q370 900 388 926Q411 943 438 943Q470 943 487 926T504 875Q504 839 487 807Q458 788 434 788T388 807Q370 841 370 871Z" />
<glyph unicode="&#xcc;" glyph-name="Igrave" horiz-adv-x="386" d="M26 921Q63 947 107 947Q117 947 135 945Q179 898 220 794Q209 786 195 786Q184 786 160 794Q67 851 26 921ZM42 90Q42 133 49 140Q74 152 107 152Q95 252 95 353Q95 450 107 546Q60 551 49
558Q42 566 42 614Q42 661 49 671Q61 698 211 698Q296 698 322 689Q333 683 340 654T348 596Q348 570 342 560Q316 548 294 548Q287 548 277 550Q289 469 289 374Q289 296 277 148Q282 149 293 149Q323 149 342 138Q346 130 346 114Q346 90 338 57T322 9Q296 0
211 0Q61 0 49 27Q42 39 42 90Z" />
<glyph unicode="&#xcd;" glyph-name="Iacute" horiz-adv-x="385" d="M43 86Q43 134 49 140Q58 145 84 149Q102 152 107 152Q95 252 95 353Q95 450 107 546Q102 546 84 549Q58 553 49 558Q43 564 43 612Q43 664 49 671Q72 698 209 698Q305 698 322 689Q328 679
336 639T345 577Q345 564 342 560Q320 549 294 549Q283 549 277 550Q289 469 289 374Q289 296 277 148Q283 149 294 149Q320 149 342 138Q345 134 345 121Q345 100 337 60T322 9Q304 0 211 0Q72 0 49 27Q43 34 43 86ZM147 795Q188 899 232 946Q250 948 260 948Q304
948 341 922Q300 852 207 795Q183 787 172 787Q158 787 147 795Z" />
<glyph unicode="&#xce;" glyph-name="Icircumflex" horiz-adv-x="386" d="M42 83Q42 133 49 140Q74 152 107 152Q95 252 95 353Q95 450 107 546Q60 551 49 558Q42 566 42 614Q42 661 49 671Q61 698 211 698Q296 698 322 689Q333 683 340 654T348 596Q348 570 342
560Q316 548 294 548Q287 548 277 550Q289 469 289 374Q289 296 277 148Q282 149 293 149Q323 149 342 138Q346 130 346 114Q346 90 338 57T322 9Q296 0 205 0Q72 0 51 28Q42 39 42 83ZM47 793Q50 798 60 816T74 841T88 863T105 887T123 910T146 934Q166 949 185
949Q205 949 230 934Q285 882 329 793Q315 785 302 785T273 793Q215 823 188 864Q147 813 103 793Q88 787 75 787Q60 787 47 793Z" />
<glyph unicode="&#xcf;" glyph-name="Idieresis" horiz-adv-x="386" d="M34 870Q34 899 52 925Q75 942 100 942T151 925Q168 898 168 868T151 806Q122 787 98 787T52 806Q34 840 34 870ZM42 83Q42 133 49 140Q74 152 107 152Q95 252 95 353Q95 450 107 546Q60
551 49 558Q42 566 42 614Q42 661 49 671Q61 698 211 698Q296 698 322 689Q333 683 340 654T348 596Q348 570 342 560Q316 548 294 548Q287 548 277 550Q289 469 289 374Q289 296 277 148Q282 149 293 149Q323 149 342 138Q346 130 346 114Q346 90 338 57T322 9Q296
0 205 0Q72 0 51 28Q42 39 42 83ZM224 870Q224 899 242 925Q265 942 290 942T341 925Q358 898 358 868T341 806Q312 787 288 787T242 806Q224 840 224 870Z" />
<glyph unicode="&#xd0;" glyph-name="Eth" horiz-adv-x="715" d="M40 583Q40 644 53 647Q146 701 272 701Q382 701 476 654T628 518T686 320Q686 164 573 77T293 -10Q166 -10 60 32Q46 59 46 123Q46 171 53 184Q56 199 95 199Q106 199 120 197Q114 220 114 243Q114
267 122 284Q84 289 72 291Q59 317 59 339Q59 359 72 378L119 384Q112 412 112 443Q112 480 122 513Q112 510 95 510Q56 510 53 525Q40 548 40 583ZM313 183Q327 170 382 170Q435 170 467 215T500 335Q500 420 459 477T350 534Q339 534 313 526V384Q361 384 378
378Q393 360 393 339T378 291Q374 290 313 283V183Z" />
<glyph unicode="&#xd1;" glyph-name="Ntilde" horiz-adv-x="775" d="M39 38T39 86T54 140Q75 154 96 154Q102 154 112 152Q100 252 100 353Q100 450 112 546Q100 544 93 544Q68 544 54 558Q47 566 47 614Q47 661 54 671Q77 698 216 698Q309 698 327 689Q340 684
348 662T357 613Q357 584 347 560Q329 547 303 547Q292 547 282 550Q373 481 480 370Q480 458 492 546Q486 545 473 545Q448 545 434 558Q420 578 420 620Q420 661 434 671Q457 698 599 698Q687 698 707 689Q720 684 730 659T740 607Q740 579 727 560Q705 549 679
549Q668 549 662 550Q674 469 674 374Q674 296 662 148Q672 151 685 151Q712 151 727 138Q737 128 737 101T728 46T707 9Q688 0 598 0Q457 0 434 27Q419 42 419 89Q419 131 434 140Q450 154 474 154Q479 154 489 152Q378 243 293 344Q292 263 282 148Q294 150 303
150Q334 150 347 138Q356 128 356 100T348 44T327 9Q310 0 214 0Q77 0 54 27Q39 38 39 86ZM180 824Q189 889 209 913T273 938Q312 938 360 914T440 890Q459 890 466 899T481 942Q484 944 492 944Q508 944 527 930T559 899Q550 834 529 810T467 785Q431 785 382
809T296 833Q279 833 272 825T258 782Q250 777 242 777Q226 777 207 791T180 824Z" />
<glyph unicode="&#xd2;" glyph-name="Ograve" horiz-adv-x="742" d="M28 272Q28 347 59 423T142 562T273 663T438 702Q511 702 565 675T650 600T695 495T710 369Q710 183 608 87T342 -10Q187 -10 108 70T28 272ZM240 305Q240 252 272 215T356 177Q424 177 482
238T540 376Q540 433 507 471T419 510Q346 510 293 444T240 305ZM258 921Q295 947 339 947Q358 947 366 945Q411 896 452 794Q441 786 427 786Q416 786 392 794Q299 851 258 921Z" />
<glyph unicode="&#xd3;" glyph-name="Oacute" horiz-adv-x="742" d="M28 272Q28 347 59 423T142 562T273 663T438 702Q511 702 565 675T650 600T695 495T710 369Q710 183 608 87T342 -10Q187 -10 108 70T28 272ZM240 305Q240 252 272 215T356 177Q424 177 482
238T540 376Q540 433 507 471T419 510Q346 510 293 444T240 305ZM399 795Q440 899 484 946Q502 948 512 948Q556 948 593 922Q552 852 459 795Q435 787 424 787Q410 787 399 795Z" />
<glyph unicode="&#xd4;" glyph-name="Ocircumflex" horiz-adv-x="742" d="M28 272Q28 347 59 423T142 562T273 663T438 702Q511 702 565 675T650 600T695 495T710 369Q710 183 608 87T342 -10Q187 -10 108 70T28 272ZM240 305Q240 252 272 215T356 177Q424 177
482 238T540 376Q540 433 507 471T419 510Q346 510 293 444T240 305ZM264 793Q267 798 277 816T291 841T305 863T322 887T340 910T363 934Q382 949 402 949Q422 949 447 934Q502 882 546 793Q532 785 519 785T490 793Q432 823 405 864Q364 813 320 793Q305 787
292 787Q278 787 264 793Z" />
<glyph unicode="&#xd5;" glyph-name="Otilde" horiz-adv-x="742" d="M28 272Q28 347 59 423T142 562T273 663T438 702Q511 702 565 675T650 600T695 495T710 369Q710 183 608 87T342 -10Q187 -10 108 70T28 272ZM196 824Q205 889 225 913T289 938Q328 938 376
914T456 890Q475 890 482 899T497 942Q500 944 508 944Q524 944 543 930T575 899Q566 834 545 810T483 785Q447 785 398 809T312 833Q295 833 288 825T274 782Q266 777 258 777Q242 777 223 791T196 824ZM240 305Q240 252 272 215T356 177Q424 177 482 238T540
376Q540 433 507 471T419 510Q346 510 293 444T240 305Z" />
<glyph unicode="&#xd6;" glyph-name="Odieresis" horiz-adv-x="742" d="M28 272Q28 347 59 423T142 562T273 663T438 702Q511 702 565 675T650 600T695 495T710 369Q710 183 608 87T342 -10Q187 -10 108 70T28 272ZM240 305Q240 252 272 215T356 177Q424 177 482
238T540 376Q540 433 507 471T419 510Q346 510 293 444T240 305ZM247 870Q247 899 265 925Q288 942 313 942T364 925Q381 898 381 868T364 806Q335 787 311 787T265 806Q247 840 247 870ZM437 870Q437 899 455 925Q478 942 503 942T554 925Q571 898 571 868T554
806Q525 787 501 787T455 806Q437 840 437 870Z" />
<glyph unicode="&#xd7;" glyph-name="multiply" horiz-adv-x="474" d="M44 452Q50 476 64 490Q77 503 99 508Q141 485 176 450Q213 413 239 367Q264 403 298 437Q334 473 376 503Q395 500 408 487Q420 475 428 451Q401 406 365 370Q332 337 292 314Q331 295 367
259Q404 222 432 174Q424 151 411 138Q396 123 377 119Q332 149 297 184Q258 223 237 259Q207 214 175 182Q141 148 100 123Q75 125 63 137T48 175Q75 217 110 252Q146 288 184 312Q135 341 99 377Q64 412 44 452Z" />
<glyph unicode="&#xd8;" glyph-name="Oslash" horiz-adv-x="743" d="M28 273Q28 348 58 424T142 562T275 663T446 702Q492 702 528 690Q566 732 586 752Q611 765 629 765Q656 765 666 735Q637 646 629 625Q710 534 710 365Q710 184 608 87T345 -10Q301 -10 259
-2Q248 -15 194 -74Q168 -96 148 -96Q123 -96 114 -57Q125 -24 149 38Q88 76 58 137T28 273ZM240 305Q240 256 266 221Q344 385 428 509Q427 509 425 509T417 510Q346 510 293 443T240 305ZM360 177Q424 177 482 238T540 377Q540 421 518 456Q452 317 360 177Z"
/>
<glyph unicode="&#xd9;" glyph-name="Ugrave" horiz-adv-x="764" d="M5 588Q5 643 26 679Q89 702 179 702Q262 702 323 681Q346 655 346 593Q346 540 328 516Q318 510 307 510Q298 510 283 515Q283 509 281 471T278 404Q278 185 387 185Q420 185 441 204T473 258T488
329T492 413Q492 442 491 477T489 525Q485 514 457 514Q440 514 436 523Q419 549 419 601T436 678Q485 701 593 701Q705 701 742 671Q761 638 761 598Q761 563 744 536Q732 523 702 523Q688 523 682 525Q693 470 693 405Q693 290 659 198T552 48T375 -10Q80 -10
80 470Q80 488 80 493T81 506Q77 502 62 502Q32 502 25 509Q5 536 5 588ZM211 921Q248 947 292 947Q311 947 319 945Q364 896 405 794Q394 786 380 786Q369 786 345 794Q252 851 211 921Z" />
<glyph unicode="&#xda;" glyph-name="Uacute" horiz-adv-x="764" d="M5 588Q5 643 26 679Q89 702 179 702Q262 702 323 681Q346 655 346 593Q346 540 328 516Q318 510 307 510Q298 510 283 515Q283 509 281 471T278 404Q278 185 387 185Q420 185 441 204T473 258T488
329T492 413Q492 442 491 477T489 525Q485 514 457 514Q440 514 436 523Q419 549 419 601T436 678Q485 701 593 701Q705 701 742 671Q761 638 761 598Q761 563 744 536Q732 523 702 523Q688 523 682 525Q693 470 693 405Q693 290 659 198T552 48T375 -10Q80 -10
80 470Q80 488 80 493T81 506Q77 502 62 502Q32 502 25 509Q5 536 5 588ZM367 795Q408 899 452 946Q470 948 480 948Q524 948 561 922Q520 852 427 795Q403 787 392 787Q378 787 367 795Z" />
<glyph unicode="&#xdb;" glyph-name="Ucircumflex" horiz-adv-x="764" d="M5 588Q5 643 26 679Q89 702 179 702Q262 702 323 681Q346 655 346 593Q346 540 328 516Q318 510 307 510Q298 510 283 515Q283 509 281 471T278 404Q278 185 387 185Q420 185 441 204T473
258T488 329T492 413Q492 442 491 477T489 525Q485 514 457 514Q440 514 436 523Q419 549 419 601T436 678Q485 701 593 701Q705 701 742 671Q761 638 761 598Q761 563 744 536Q732 523 702 523Q688 523 682 525Q693 470 693 405Q693 290 659 198T552 48T375 -10Q80
-10 80 470Q80 488 80 493T81 506Q77 502 62 502Q32 502 25 509Q5 536 5 588ZM242 793Q245 798 255 816T269 841T283 863T300 887T318 910T341 934Q360 949 380 949Q400 949 425 934Q480 882 524 793Q510 785 497 785T468 793Q410 823 383 864Q342 813 298 793Q283
787 270 787Q256 787 242 793Z" />
<glyph unicode="&#xdc;" glyph-name="Udieresis" horiz-adv-x="764" d="M5 588Q5 643 26 679Q89 702 179 702Q262 702 323 681Q346 655 346 593Q346 540 328 516Q318 510 307 510Q298 510 283 515Q283 509 281 471T278 404Q278 185 387 185Q420 185 441 204T473
258T488 329T492 413Q492 442 491 477T489 525Q485 514 457 514Q440 514 436 523Q419 549 419 601T436 678Q485 701 593 701Q705 701 742 671Q761 638 761 598Q761 563 744 536Q732 523 702 523Q688 523 682 525Q693 470 693 405Q693 290 659 198T552 48T375 -10Q80
-10 80 470Q80 488 80 493T81 506Q77 502 62 502Q32 502 25 509Q5 536 5 588ZM225 870Q225 899 243 925Q266 942 291 942T342 925Q359 898 359 868T342 806Q313 787 289 787T243 806Q225 840 225 870ZM415 870Q415 899 433 925Q456 942 481 942T532 925Q549 898
549 868T532 806Q503 787 479 787T433 806Q415 840 415 870Z" />
<glyph unicode="&#xdd;" glyph-name="Yacute" horiz-adv-x="680" d="M4 605Q91 674 265 702Q283 686 293 656T304 600Q304 595 279 583Q261 574 248 574Q262 531 346 442Q370 456 398 502T434 574Q422 574 403 583Q379 594 378 599Q379 615 393 655T417 702Q482
702 561 673T678 605Q673 571 668 553Q661 525 650 499Q631 503 608 514Q603 506 585 476T553 429T511 384T444 331Q439 308 437 237T432 151Q461 151 487 137Q491 130 491 105Q491 34 478 8Q466 -1 336 -1Q188 -1 177 15Q173 25 173 65Q173 131 181 139Q206 151
239 151Q232 315 229 331Q170 369 126 429T74 514Q51 503 32 499Q14 546 4 605ZM314 797Q355 899 400 948Q409 950 427 950Q471 950 508 924Q467 854 374 797Q350 789 339 789Q325 789 314 797Z" />
<glyph unicode="&#xde;" glyph-name="Thorn" horiz-adv-x="657" d="M32 608Q32 656 50 667Q59 684 109 694T218 704Q277 704 303 694Q308 675 308 609Q308 601 307 600Q318 604 373 630T463 656Q516 656 558 613T619 511T639 394Q639 297 581 232T421 166Q373
166 331 178Q333 168 333 161Q333 146 327 129Q331 130 353 130Q369 130 386 125T409 112Q424 102 424 66Q424 35 409 19Q403 -1 233 -1Q163 -1 106 4T46 19Q33 33 33 62Q33 97 46 112Q61 130 102 130Q114 130 118 129Q118 146 117 192T116 287Q116 464 126 520Q123
519 109 519Q86 519 55 526Q32 553 32 608ZM326 378Q326 346 342 330T383 313Q420 313 453 344T487 419Q487 449 470 469T425 489Q387 489 357 456T326 378Z" />
<glyph unicode="&#xdf;" glyph-name="germandbls" horiz-adv-x="788" d="M21 -16Q21 28 26 30Q37 36 75 41Q74 54 67 155T59 316Q59 386 65 444T91 560T143 659T228 725T354 750Q475 750 563 690T651 555Q651 491 579 446Q677 424 723 377T769 270Q769 172 671
85T455 -3Q419 -3 386 7Q378 11 378 50Q378 78 383 118T397 167Q414 162 432 162Q487 162 541 196T595 271Q595 316 517 347Q501 325 470 320Q438 326 416 363T393 443Q413 484 456 486Q462 506 462 519Q462 548 429 567T364 587Q340 587 322 573T293 529T275 467T264
386T259 297T257 202Q261 67 271 38Q301 38 307 29Q309 25 309 14Q309 -4 302 -38T290 -82Q266 -89 204 -89Q145 -89 91 -83T26 -66Q21 -61 21 -16Z" />
<glyph unicode="&#xe0;" glyph-name="agrave" horiz-adv-x="624" d="M26 209Q26 281 47 348T117 463T232 512Q259 512 280 504T314 485T335 462T346 442L350 434Q350 468 349 485Q382 513 467 513Q497 513 520 511T556 506T575 500T585 496L587 495Q591 486 591
439Q591 391 587 382Q573 364 537 364Q527 364 515 366Q518 360 518 315Q518 184 509 170Q516 173 526 173Q538 173 580 164Q588 158 588 79Q588 35 585 23Q579 12 541 2T459 -8Q339 -8 325 -4Q318 15 318 28Q318 36 321 40Q306 35 258 10T175 -16Q105 -16 66 49T26
209ZM155 721Q192 747 236 747Q255 747 263 745Q308 696 349 594Q338 586 324 586Q313 586 289 594Q196 651 155 721ZM159 227Q159 195 178 172T228 149Q269 149 303 185T338 267Q338 301 319 324T267 347Q225 347 192 309T159 227Z" />
<glyph unicode="&#xe1;" glyph-name="aacute" horiz-adv-x="624" d="M26 209Q26 281 47 348T117 463T232 512Q259 512 280 504T314 485T335 462T346 442L350 434Q350 468 349 485Q382 513 467 513Q497 513 520 511T556 506T575 500T585 496L587 495Q591 486 591
439Q591 391 587 382Q573 364 537 364Q527 364 515 366Q518 360 518 315Q518 184 509 170Q516 173 526 173Q538 173 580 164Q588 158 588 79Q588 35 585 23Q579 12 541 2T459 -8Q339 -8 325 -4Q318 15 318 28Q318 36 321 40Q306 35 258 10T175 -16Q105 -16 66 49T26
209ZM159 227Q159 195 178 172T228 149Q269 149 303 185T338 267Q338 301 319 324T267 347Q225 347 192 309T159 227ZM305 595Q346 699 390 746Q408 748 418 748Q462 748 499 722Q458 652 365 595Q341 587 330 587Q316 587 305 595Z" />
<glyph unicode="&#xe2;" glyph-name="acircumflex" horiz-adv-x="624" d="M26 209Q26 281 47 348T117 463T232 512Q259 512 280 504T314 485T335 462T346 442L350 434Q350 468 349 485Q382 513 467 513Q497 513 520 511T556 506T575 500T585 496L587 495Q591 486
591 439Q591 391 587 382Q573 364 537 364Q527 364 515 366Q518 360 518 315Q518 184 509 170Q516 173 526 173Q538 173 580 164Q588 158 588 79Q588 35 585 23Q579 12 541 2T459 -8Q339 -8 325 -4Q318 15 318 28Q318 36 321 40Q306 35 258 10T175 -16Q105 -16
66 49T26 209ZM159 227Q159 195 178 172T228 149Q269 149 303 185T338 267Q338 301 319 324T267 347Q225 347 192 309T159 227ZM191 593Q194 598 204 616T218 641T232 663T249 687T267 710T290 734Q310 749 329 749Q349 749 374 734Q429 682 473 593Q459 585 446
585T417 593Q359 623 332 664Q291 613 247 593Q232 587 219 587Q204 587 191 593Z" />
<glyph unicode="&#xe3;" glyph-name="atilde" horiz-adv-x="624" d="M26 209Q26 281 47 348T117 463T232 512Q259 512 280 504T314 485T335 462T346 442L350 434Q350 468 349 485Q382 513 467 513Q497 513 520 511T556 506T575 500T585 496L587 495Q591 486 591
439Q591 391 587 382Q573 364 537 364Q527 364 515 366Q518 360 518 315Q518 184 509 170Q516 173 526 173Q538 173 580 164Q588 158 588 79Q588 35 585 23Q579 12 541 2T459 -8Q339 -8 325 -4Q318 15 318 28Q318 36 321 40Q306 35 258 10T175 -16Q105 -16 66 49T26
209ZM142 624Q151 689 171 713T235 738Q274 738 322 714T402 690Q421 690 428 699T443 742Q446 744 454 744Q470 744 489 730T521 699Q512 634 491 610T429 585Q393 585 344 609T258 633Q241 633 234 625T220 582Q212 577 204 577Q188 577 169 591T142 624ZM159
227Q159 195 178 172T228 149Q269 149 303 185T338 267Q338 301 319 324T267 347Q225 347 192 309T159 227Z" />
<glyph unicode="&#xe4;" glyph-name="adieresis" horiz-adv-x="624" d="M26 209Q26 281 47 348T117 463T232 512Q259 512 280 504T314 485T335 462T346 442L350 434Q350 468 349 485Q382 513 467 513Q497 513 520 511T556 506T575 500T585 496L587 495Q591 486
591 439Q591 391 587 382Q573 364 537 364Q527 364 515 366Q518 360 518 315Q518 184 509 170Q516 173 526 173Q538 173 580 164Q588 158 588 79Q588 35 585 23Q579 12 541 2T459 -8Q339 -8 325 -4Q318 15 318 28Q318 36 321 40Q306 35 258 10T175 -16Q105 -16
66 49T26 209ZM159 227Q159 195 178 172T228 149Q269 149 303 185T338 267Q338 301 319 324T267 347Q225 347 192 309T159 227ZM164 670Q164 699 182 725Q205 742 230 742T281 725Q298 698 298 668T281 606Q252 587 228 587T182 606Q164 640 164 670ZM354 670Q354
699 372 725Q395 742 420 742T471 725Q488 698 488 668T471 606Q442 587 418 587T372 606Q354 640 354 670Z" />
<glyph unicode="&#xe5;" glyph-name="aring" horiz-adv-x="624" d="M26 209Q26 281 47 348T117 463T232 512Q259 512 280 504T314 485T335 462T346 442L350 434Q350 468 349 485Q382 513 467 513Q497 513 520 511T556 506T575 500T585 496L587 495Q591 486 591
439Q591 391 587 382Q573 364 537 364Q527 364 515 366Q518 360 518 315Q518 184 509 170Q516 173 526 173Q538 173 580 164Q588 158 588 79Q588 35 585 23Q579 12 541 2T459 -8Q339 -8 325 -4Q318 15 318 28Q318 36 321 40Q306 35 258 10T175 -16Q105 -16 66 49T26
209ZM159 227Q159 195 178 172T228 149Q269 149 303 185T338 267Q338 301 319 324T267 347Q225 347 192 309T159 227ZM229 627Q229 677 267 720T359 763Q404 763 424 733T445 657Q445 598 413 568T329 537Q280 537 255 563T229 627ZM294 634Q294 615 306 601T338
587Q364 587 386 609T408 661Q408 682 396 696T363 711Q335 711 315 686T294 634Z" />
<glyph unicode="&#xe6;" glyph-name="ae" horiz-adv-x="823" d="M26 209Q26 281 47 348T117 463T232 512Q259 512 280 504T314 485T335 462T346 442L350 434Q350 468 349 485Q383 515 450 515Q494 515 534 501Q568 510 605 510Q684 510 726 472T769 373Q769 299
708 250T571 201Q518 201 482 227Q482 177 512 151T589 125Q627 125 658 143T711 180T742 199Q761 199 784 166T814 91Q811 67 789 40T744 0Q725 0 708 12T684 37Q635 -10 564 -10Q528 -10 487 -1Q452 -8 437 -8Q341 -8 325 -4Q318 15 318 28Q318 36 321 40Q306
35 258 10T175 -16Q105 -16 66 49T26 209ZM159 227Q159 195 178 172T228 149Q269 149 303 185T338 267Q338 301 319 324T267 347Q225 347 192 309T159 227ZM511 326Q511 293 559 293Q595 293 628 310T661 352Q661 369 650 387T613 406Q582 406 547 381T511 326Z"
/>
<glyph unicode="&#xe7;" glyph-name="ccedilla" horiz-adv-x="570" d="M26 227Q26 366 113 438T374 510L382 535Q409 541 435 541Q494 541 543 508Q546 493 546 466Q546 414 529 378T487 332Q444 317 408 317Q371 317 341 332L348 366Q324 373 302 373Q256 373
227 331T197 238Q197 196 217 163T267 129Q295 129 334 152L327 179Q374 213 435 213Q456 213 488 206Q549 139 549 48Q549 28 546 7Q491 -29 420 -29Q410 -29 388 -27L379 0Q311 -13 261 -13Q153 -13 90 46T26 227ZM199 -202Q199 -172 209 -156Q221 -153 233 -153Q244
-153 256 -156Q257 -158 257 -159Q257 -162 256 -164Q278 -177 300 -177Q336 -177 336 -136Q336 -117 328 -101T309 -85T286 -105Q287 -106 287 -108Q287 -111 286 -112Q276 -117 265 -117Q251 -117 239 -112Q230 -98 230 -66Q230 -26 234 6Q237 9 276 9Q278 9
279 -4T280 -31T282 -44Q309 -21 337 -21Q373 -21 394 -53T415 -130Q415 -178 391 -213T322 -249Q288 -249 252 -225Q252 -246 246 -248Q242 -248 235 -248T225 -249Q214 -249 204 -246Q199 -224 199 -202Z" />
<glyph unicode="&#xe8;" glyph-name="egrave" horiz-adv-x="557" d="M23 222Q23 269 41 318T95 410T191 482T327 510Q410 510 456 477T503 381Q503 297 426 245T252 192Q226 192 199 197Q201 124 321 124Q342 124 357 127Q357 135 360 144Q404 180 455 180Q465
180 470 179Q536 143 551 61Q550 53 544 44T530 29T510 14T490 1T468 -11T451 -20Q445 -20 441 -19T434 -14T429 -9T425 -1T421 7Q365 -14 306 -14Q172 -14 98 55T23 222ZM141 721Q178 747 222 747Q241 747 249 745Q294 696 335 594Q324 586 310 586Q299 586 275
594Q182 651 141 721ZM218 326Q218 293 266 293Q302 293 335 310T368 352Q368 369 357 387T320 406Q289 406 254 381T218 326Z" />
<glyph unicode="&#xe9;" glyph-name="eacute" horiz-adv-x="557" d="M23 222Q23 269 41 318T95 410T191 482T327 510Q410 510 456 477T503 381Q503 297 426 245T252 192Q226 192 199 197Q201 124 321 124Q342 124 357 127Q357 135 360 144Q404 180 455 180Q465
180 470 179Q536 143 551 61Q550 53 544 44T530 29T510 14T490 1T468 -11T451 -20Q445 -20 441 -19T434 -14T429 -9T425 -1T421 7Q365 -14 306 -14Q172 -14 98 55T23 222ZM218 326Q218 293 266 293Q302 293 335 310T368 352Q368 369 357 387T320 406Q289 406 254
381T218 326ZM261 595Q302 699 346 746Q364 748 374 748Q418 748 455 722Q414 652 321 595Q297 587 286 587Q272 587 261 595Z" />
<glyph unicode="&#xea;" glyph-name="ecircumflex" horiz-adv-x="557" d="M23 222Q23 269 41 318T95 410T191 482T327 510Q410 510 456 477T503 381Q503 297 426 245T252 192Q226 192 199 197Q201 124 321 124Q342 124 357 127Q357 135 360 144Q404 180 455 180Q465
180 470 179Q536 143 551 61Q550 53 544 44T530 29T510 14T490 1T468 -11T451 -20Q445 -20 441 -19T434 -14T429 -9T425 -1T421 7Q365 -14 306 -14Q172 -14 98 55T23 222ZM157 593Q160 598 170 616T184 641T198 663T215 687T233 710T256 734Q276 749 295 749Q315
749 340 734Q395 682 439 593Q425 585 412 585T383 593Q325 623 298 664Q257 613 213 593Q198 587 185 587Q170 587 157 593ZM218 326Q218 293 266 293Q302 293 335 310T368 352Q368 369 357 387T320 406Q289 406 254 381T218 326Z" />
<glyph unicode="&#xeb;" glyph-name="edieresis" horiz-adv-x="557" d="M23 222Q23 269 41 318T95 410T191 482T327 510Q410 510 456 477T503 381Q503 297 426 245T252 192Q226 192 199 197Q201 124 321 124Q342 124 357 127Q357 135 360 144Q404 180 455 180Q465
180 470 179Q536 143 551 61Q550 53 544 44T530 29T510 14T490 1T468 -11T451 -20Q445 -20 441 -19T434 -14T429 -9T425 -1T421 7Q365 -14 306 -14Q172 -14 98 55T23 222ZM130 670Q130 699 148 725Q171 742 196 742T247 725Q264 698 264 668T247 606Q218 587 194
587T148 606Q130 640 130 670ZM218 326Q218 293 266 293Q302 293 335 310T368 352Q368 369 357 387T320 406Q289 406 254 381T218 326ZM320 670Q320 699 338 725Q361 742 386 742T437 725Q454 698 454 668T437 606Q408 587 384 587T338 606Q320 640 320 670Z" />
<glyph unicode="&#xec;" glyph-name="igrave" horiz-adv-x="378" d="M21 86Q21 124 41 139Q52 146 76 149Q96 152 99 152Q88 268 88 300Q88 370 98 392Q69 392 53 396Q45 417 45 433Q45 464 72 504Q109 511 211 511Q246 511 279 507T330 498T349 487Q357 475 357
449Q357 399 340 378Q336 373 317 373Q290 373 280 378Q269 308 269 197Q269 150 272 148Q278 149 289 149Q315 149 337 138Q341 131 341 112Q341 83 334 54T314 13Q301 0 225 0Q69 0 41 27Q21 41 21 86ZM35 721Q72 747 116 747Q135 747 143 745Q188 696 229 594Q218
586 204 586Q193 586 169 594Q76 651 35 721Z" />
<glyph unicode="&#xed;" glyph-name="iacute" horiz-adv-x="378" d="M21 86Q21 124 41 139Q52 146 76 149Q96 152 99 152Q88 268 88 300Q88 370 98 392Q69 392 53 396Q45 417 45 433Q45 464 72 504Q109 511 211 511Q246 511 279 507T330 498T349 487Q357 475 357
449Q357 399 340 378Q336 373 317 373Q290 373 280 378Q269 308 269 197Q269 150 272 148Q278 149 289 149Q315 149 337 138Q341 131 341 112Q341 83 334 54T314 13Q301 0 225 0Q69 0 41 27Q21 41 21 86ZM175 595Q216 699 260 746Q278 748 288 748Q332 748 369
722Q328 652 235 595Q211 587 200 587Q186 587 175 595Z" />
<glyph unicode="&#xee;" glyph-name="icircumflex" horiz-adv-x="378" d="M21 86Q21 124 41 139Q52 146 76 149Q96 152 99 152Q88 268 88 300Q88 370 98 392Q69 392 53 396Q45 417 45 433Q45 464 72 504Q109 511 211 511Q246 511 279 507T330 498T349 487Q357
475 357 449Q357 399 340 378Q336 373 317 373Q290 373 280 378Q269 308 269 197Q269 150 272 148Q278 149 289 149Q315 149 337 138Q341 131 341 112Q341 83 334 54T314 13Q301 0 225 0Q69 0 41 27Q21 41 21 86ZM61 593Q64 598 74 616T88 641T102 663T119 687T137
710T160 734Q180 749 199 749Q219 749 244 734Q299 682 343 593Q329 585 316 585T287 593Q229 623 202 664Q161 613 117 593Q102 587 89 587Q74 587 61 593Z" />
<glyph unicode="&#xef;" glyph-name="idieresis" horiz-adv-x="378" d="M21 86Q21 124 41 139Q50 145 76 149Q96 152 99 152Q88 268 88 300Q88 370 98 392Q69 392 53 396Q45 417 45 433Q45 464 72 504Q109 511 211 511Q246 511 279 507T330 498T349 487Q357 475
357 449Q357 399 340 378Q336 373 317 373Q290 373 280 378Q269 308 269 197Q269 150 272 148Q278 149 289 149Q315 149 337 138Q341 131 341 112Q341 81 334 53T314 13Q301 0 225 0Q69 0 41 27Q21 41 21 86ZM44 670Q44 699 62 725Q85 742 110 742T161 725Q178
698 178 668T161 606Q132 587 108 587T62 606Q44 640 44 670ZM234 670Q234 699 252 725Q275 742 300 742T351 725Q368 698 368 668T351 606Q322 587 298 587T252 606Q234 640 234 670Z" />
<glyph unicode="&#xf0;" glyph-name="eth" horiz-adv-x="551" d="M23 198Q23 265 54 331T147 446T287 506Q253 537 235 547Q222 536 197 517T167 494Q127 499 127 525Q127 528 127 530T128 534Q148 564 160 578Q130 586 93 587Q90 592 90 597Q90 611 99 628T116
647Q144 649 159 649Q188 649 221 644Q272 689 301 707Q318 706 329 696T340 670Q331 647 309 619Q408 577 466 486T524 280Q524 150 450 70T249 -10Q139 -10 81 49T23 198ZM216 226Q216 195 235 172T285 149Q325 149 360 185T395 268Q395 302 375 324T323 347Q279
347 248 308T216 226Z" />
<glyph unicode="&#xf1;" glyph-name="ntilde" horiz-adv-x="717" d="M28 75Q28 133 55 147Q67 156 82 156Q87 156 97 154Q97 183 95 247T93 345Q89 345 81 343T68 340Q64 340 56 342T44 344Q40 348 40 365Q40 392 48 432T63 482Q73 488 111 494T188 501Q238 501
270 489Q277 483 277 466Q277 460 272 430Q379 510 470 510Q549 510 597 454T645 283Q645 264 638 173Q638 175 647 175Q662 175 694 170Q703 160 703 105Q703 36 693 20Q618 0 556 0Q487 0 436 18Q429 23 421 53T413 106Q413 139 431 163Q442 170 459 170Q464
170 466 169T470 167T476 164Q482 194 482 219Q482 277 455 308T389 339Q347 339 316 304T284 207Q284 182 290 154Q302 161 321 161Q339 161 343 156Q353 156 353 116Q353 107 343 34Q268 0 167 0Q57 0 37 28Q28 40 28 75ZM156 624Q165 689 185 713T249 738Q288
738 336 714T416 690Q435 690 442 699T457 742Q460 744 468 744Q484 744 503 730T535 699Q526 634 505 610T443 585Q407 585 358 609T272 633Q255 633 248 625T234 582Q226 577 218 577Q202 577 183 591T156 624Z" />
<glyph unicode="&#xf2;" glyph-name="ograve" horiz-adv-x="547" d="M23 197Q23 271 60 342T168 461T323 510Q425 510 473 441T521 267Q521 131 446 61T252 -10Q140 -10 82 49T23 197ZM164 721Q201 747 245 747Q264 747 272 745Q317 696 358 594Q347 586 333 586Q322
586 298 594Q205 651 164 721ZM216 226Q216 195 235 172T285 149Q325 149 360 185T395 268Q395 302 375 324T323 347Q279 347 248 308T216 226Z" />
<glyph unicode="&#xf3;" glyph-name="oacute" horiz-adv-x="547" d="M23 197Q23 271 60 342T168 461T323 510Q425 510 473 441T521 267Q521 131 446 61T252 -10Q140 -10 82 49T23 197ZM216 226Q216 195 235 172T285 149Q325 149 360 185T395 268Q395 302 375 324T323
347Q279 347 248 308T216 226ZM264 595Q305 699 349 746Q367 748 377 748Q421 748 458 722Q417 652 324 595Q300 587 289 587Q275 587 264 595Z" />
<glyph unicode="&#xf4;" glyph-name="ocircumflex" horiz-adv-x="547" d="M23 197Q23 271 60 342T168 461T323 510Q425 510 473 441T521 267Q521 131 446 61T252 -10Q140 -10 82 49T23 197ZM170 593Q173 598 183 616T197 641T211 663T228 687T246 710T269 734Q288
749 308 749Q328 749 353 734Q408 682 452 593Q438 585 425 585T396 593Q338 623 311 664Q270 613 226 593Q211 587 198 587Q184 587 170 593ZM216 226Q216 195 235 172T285 149Q325 149 360 185T395 268Q395 302 375 324T323 347Q279 347 248 308T216 226Z" />
<glyph unicode="&#xf5;" glyph-name="otilde" horiz-adv-x="547" d="M23 197Q23 271 60 342T168 461T323 510Q425 510 473 441T521 267Q521 131 446 61T252 -10Q140 -10 82 49T23 197ZM122 624Q131 689 151 713T215 738Q254 738 302 714T382 690Q401 690 408 699T423
742Q426 744 434 744Q450 744 469 730T501 699Q492 634 471 610T409 585Q373 585 324 609T238 633Q221 633 214 625T200 582Q192 577 184 577Q168 577 149 591T122 624ZM216 226Q216 195 235 172T285 149Q325 149 360 185T395 268Q395 302 375 324T323 347Q279
347 248 308T216 226Z" />
<glyph unicode="&#xf6;" glyph-name="odieresis" horiz-adv-x="547" d="M23 197Q23 271 60 342T168 461T323 510Q425 510 473 441T521 267Q521 131 446 61T252 -10Q140 -10 82 49T23 197ZM143 670Q143 699 161 725Q184 742 209 742T260 725Q277 698 277 668T260
606Q231 587 207 587T161 606Q143 640 143 670ZM216 226Q216 195 235 172T285 149Q325 149 360 185T395 268Q395 302 375 324T323 347Q279 347 248 308T216 226ZM333 670Q333 699 351 725Q374 742 399 742T450 725Q467 698 467 668T450 606Q421 587 397 587T351
606Q333 640 333 670Z" />
<glyph unicode="&#xf7;" glyph-name="divide" horiz-adv-x="638" d="M32 264Q32 284 45 303Q138 314 379 314Q436 314 478 312T551 307T591 303Q606 285 606 264T591 216Q587 210 490 207T325 203Q237 203 45 216Q32 242 32 264ZM246 80Q246 115 268 147Q296 168
326 168Q355 168 387 147Q408 115 408 77Q408 40 387 3Q353 -21 324 -21T268 3Q246 42 246 80ZM246 450Q246 485 268 517Q296 538 326 538Q355 538 387 517Q408 485 408 447Q408 410 387 373Q353 349 324 349T268 373Q246 412 246 450Z" />
<glyph unicode="&#xf8;" glyph-name="oslash" horiz-adv-x="548" d="M23 197Q23 271 60 342T168 461T323 510Q373 510 413 491L431 510Q449 519 460 519Q476 519 484 500L467 449Q521 384 521 267Q521 131 446 61T254 -10Q226 -10 198 -5Q197 -6 175 -31Q157 -46
145 -46Q128 -46 122 -20L133 14Q79 39 51 88T23 197ZM216 225Q216 199 229 180Q271 266 324 347Q279 347 248 307T216 225ZM294 149Q332 154 363 188T395 266Q395 290 385 310Q342 222 294 149Z" />
<glyph unicode="&#xf9;" glyph-name="ugrave" horiz-adv-x="717" d="M14 395Q14 464 24 480Q99 500 161 500Q230 500 281 482Q288 477 296 447T304 394Q304 361 286 337Q275 330 258 330Q253 330 251 331T247 333T241 336Q235 306 235 281Q235 223 262 192T328
161Q370 161 401 196T433 293Q433 318 427 346Q413 338 391 338Q378 338 374 344Q357 350 357 405Q357 456 374 466Q449 501 557 501Q649 501 678 471Q691 457 691 433Q691 371 662 353Q650 344 635 344Q630 344 620 346Q620 317 622 253T624 155Q652 157 657 157Q667
157 673 156Q677 152 677 135Q677 108 669 68T654 18Q643 12 602 5T521 -3Q473 -3 449 9Q440 15 440 36Q440 40 445 70Q338 -10 247 -10Q168 -10 120 46T72 217Q72 236 79 327Q79 325 70 325Q56 325 23 330Q14 340 14 395ZM171 721Q208 747 252 747Q271 747 279
745Q324 696 365 594Q354 586 340 586Q329 586 305 594Q212 651 171 721Z" />
<glyph unicode="&#xfa;" glyph-name="uacute" horiz-adv-x="717" d="M14 395Q14 464 24 480Q99 500 161 500Q230 500 281 482Q288 477 296 447T304 394Q304 361 286 337Q275 330 258 330Q253 330 251 331T247 333T241 336Q235 306 235 281Q235 223 262 192T328
161Q370 161 401 196T433 293Q433 318 427 346Q413 338 391 338Q378 338 374 344Q357 350 357 405Q357 456 374 466Q449 501 557 501Q649 501 678 471Q691 457 691 433Q691 371 662 353Q650 344 635 344Q630 344 620 346Q620 317 622 253T624 155Q652 157 657 157Q667
157 673 156Q677 152 677 135Q677 108 669 68T654 18Q643 12 602 5T521 -3Q473 -3 449 9Q440 15 440 36Q440 40 445 70Q338 -10 247 -10Q168 -10 120 46T72 217Q72 236 79 327Q79 325 70 325Q56 325 23 330Q14 340 14 395ZM302 595Q343 699 387 746Q405 748 415
748Q459 748 496 722Q455 652 362 595Q338 587 327 587Q313 587 302 595Z" />
<glyph unicode="&#xfb;" glyph-name="ucircumflex" horiz-adv-x="717" d="M14 395Q14 464 24 480Q99 500 161 500Q230 500 281 482Q288 477 296 447T304 394Q304 361 286 337Q275 330 258 330Q253 330 251 331T247 333T241 336Q235 306 235 281Q235 223 262 192T328
161Q370 161 401 196T433 293Q433 318 427 346Q413 338 391 338Q378 338 374 344Q357 350 357 405Q357 456 374 466Q449 501 557 501Q649 501 678 471Q691 457 691 433Q691 371 662 353Q650 344 635 344Q630 344 620 346Q620 317 622 253T624 155Q652 157 657 157Q667
157 673 156Q677 152 677 135Q677 108 669 68T654 18Q643 12 602 5T521 -3Q473 -3 449 9Q440 15 440 36Q440 40 445 70Q338 -10 247 -10Q168 -10 120 46T72 217Q72 236 79 327Q79 325 70 325Q56 325 23 330Q14 340 14 395ZM192 593Q195 598 205 616T219 641T233
663T250 687T268 710T291 734Q310 749 330 749Q350 749 375 734Q430 682 474 593Q460 585 447 585T418 593Q360 623 333 664Q292 613 248 593Q233 587 220 587Q206 587 192 593Z" />
<glyph unicode="&#xfc;" glyph-name="udieresis" horiz-adv-x="717" d="M14 395Q14 464 24 480Q99 500 161 500Q230 500 281 482Q288 477 296 447T304 394Q304 361 286 337Q275 330 258 330Q253 330 251 331T247 333T241 336Q235 306 235 281Q235 223 262 192T328
161Q370 161 401 196T433 293Q433 318 427 346Q413 338 391 338Q378 338 374 344Q357 350 357 405Q357 456 374 466Q449 501 557 501Q649 501 678 471Q691 457 691 433Q691 371 662 353Q650 344 635 344Q630 344 620 346Q620 317 622 253T624 155Q652 157 657 157Q667
157 673 156Q677 152 677 135Q677 108 669 68T654 18Q643 12 602 5T521 -3Q473 -3 449 9Q440 15 440 36Q440 40 445 70Q338 -10 247 -10Q168 -10 120 46T72 217Q72 236 79 327Q79 325 70 325Q56 325 23 330Q14 340 14 395ZM170 670Q170 699 188 725Q211 742 236
742T287 725Q304 698 304 668T287 606Q258 587 234 587T188 606Q170 640 170 670ZM360 670Q360 699 378 725Q401 742 426 742T477 725Q494 698 494 668T477 606Q448 587 424 587T378 606Q360 640 360 670Z" />
<glyph unicode="&#xfd;" glyph-name="yacute" horiz-adv-x="713" d="M-15 -207Q-15 -165 -1 -97T24 -18Q36 -13 51 -13Q94 -13 127 -36Q129 -36 129 -51Q129 -61 128 -67Q142 -70 166 -76T201 -85T230 -91T263 -95T295 -97Q378 -97 415 -59T460 70Q352 -10 244
-10Q74 -10 74 234Q74 290 80 336Q79 335 71 335Q56 335 24 340Q12 361 12 410Q12 467 25 490Q100 510 162 510Q231 510 282 492Q305 466 305 416Q305 371 287 347Q276 340 259 340Q254 340 252 341T248 343T242 346Q236 316 236 281Q236 223 263 192T329 161Q371
161 402 196T434 293Q434 318 428 346Q416 339 397 339Q379 339 375 344Q359 350 359 403Q359 457 375 466Q423 500 551 500Q662 500 691 477Q694 465 694 437Q694 379 683 367Q674 358 655 358Q642 358 622 368Q623 346 627 298T635 205T638 121Q638 17 616 -59T555
-177T470 -239T369 -259Q313 -259 281 -258T199 -247T108 -217Q99 -250 97 -250Q91 -255 44 -255Q-1 -255 -10 -245Q-15 -238 -15 -207ZM300 595Q341 699 385 746Q403 748 413 748Q457 748 494 722Q453 652 360 595Q336 587 325 587Q311 587 300 595Z" />
<glyph unicode="&#xfe;" glyph-name="thorn" horiz-adv-x="586" d="M-16 -145Q-16 -97 -12 -88Q-7 -80 10 -75T43 -70Q52 -70 60 -72Q56 39 56 190Q56 269 58 414T60 610Q52 608 43 608Q27 608 10 613T-12 626Q-16 637 -16 683Q-16 728 -12 739L-6 743Q1 747 30
752T104 758Q226 758 261 728Q266 718 266 619Q266 577 265 540T263 500Q305 512 341 512Q442 512 501 434T561 254Q561 196 542 138T480 36T384 -8Q363 -8 346 -3T302 17T263 38Q266 -19 266 -81Q266 -180 261 -190Q226 -220 104 -220Q60 -220 31 -215T-6 -205L-12
-201Q-16 -192 -16 -145ZM237 288Q237 241 272 205T347 169Q378 169 397 192T416 246Q416 288 385 327T309 367Q277 367 257 345T237 288Z" />
<glyph unicode="&#xff;" glyph-name="ydieresis" horiz-adv-x="713" d="M-15 -207Q-15 -165 -1 -97T24 -18Q36 -13 51 -13Q94 -13 127 -36Q129 -36 129 -51Q129 -61 128 -67Q142 -70 166 -76T201 -85T230 -91T263 -95T295 -97Q378 -97 415 -59T460 70Q352 -10
244 -10Q74 -10 74 234Q74 290 80 336Q79 335 71 335Q56 335 24 340Q12 361 12 410Q12 467 25 490Q100 510 162 510Q231 510 282 492Q305 466 305 416Q305 371 287 347Q276 340 259 340Q254 340 252 341T248 343T242 346Q236 316 236 281Q236 223 263 192T329 161Q371
161 402 196T434 293Q434 318 428 346Q416 339 397 339Q379 339 375 344Q359 350 359 403Q359 457 375 466Q423 500 551 500Q662 500 691 477Q694 465 694 437Q694 379 683 367Q674 358 655 358Q642 358 622 368Q623 346 627 298T635 205T638 121Q638 17 616 -59T555
-177T470 -239T369 -259Q313 -259 281 -258T199 -247T108 -217Q99 -250 97 -250Q91 -255 44 -255Q-1 -255 -10 -245Q-15 -237 -15 -207ZM173 670Q173 699 191 725Q214 742 239 742T290 725Q307 698 307 668T290 606Q261 587 237 587T191 606Q173 640 173 670ZM363
670Q363 699 381 725Q404 742 429 742T480 725Q497 698 497 668T480 606Q451 587 427 587T381 606Q363 640 363 670Z" />
<glyph unicode="&#x2013;" glyph-name="endash" horiz-adv-x="489" d="M43 278Q43 298 56 317Q138 328 273 328Q381 328 432 317Q447 299 447 278T432 230Q386 217 277 217Q143 217 56 230Q43 256 43 278Z" />
<glyph unicode="&#x2014;" glyph-name="emdash" horiz-adv-x="659" d="M43 277Q43 297 56 316Q150 327 390 327Q447 327 489 325T562 320T602 316Q617 298 617 277T602 229Q598 223 501 220T336 216Q248 216 56 229Q43 255 43 277Z" />
<glyph unicode="&#x2018;" glyph-name="quoteleft" horiz-adv-x="236" d="M20 406Q41 517 129 625Q166 656 190 656Q200 656 205 655Q203 513 166 424Q117 398 71 398Q52 398 20 406Z" />
<glyph unicode="&#x2019;" glyph-name="quoteright" horiz-adv-x="234" d="M37 399Q39 541 76 630Q125 656 171 656Q190 656 222 648Q201 537 113 429Q76 398 52 398Q42 398 37 399Z" />
<glyph unicode="&#x201a;" glyph-name="quotesinglbase" horiz-adv-x="208" d="M-14 -72Q27 32 71 79Q89 81 99 81Q143 81 180 55Q139 -15 46 -72Q22 -80 11 -80Q-3 -80 -14 -72Z" />
<glyph unicode="&#x201c;" glyph-name="quotedblleft" horiz-adv-x="436" d="M20 406Q41 517 129 625Q166 656 190 656Q200 656 205 655Q203 513 166 424Q117 398 71 398Q52 398 20 406ZM220 406Q241 517 329 625Q366 656 390 656Q400 656 405 655Q403 513 366
424Q317 398 271 398Q252 398 220 406Z" />
<glyph unicode="&#x201d;" glyph-name="quotedblright" horiz-adv-x="434" d="M37 399Q39 541 76 630Q125 656 171 656Q190 656 222 648Q201 537 113 429Q76 398 52 398Q42 398 37 399ZM237 399Q239 541 276 630Q325 656 371 656Q390 656 422 648Q401 537 313
429Q276 398 252 398Q242 398 237 399Z" />
<glyph unicode="&#x201e;" glyph-name="quotedblbase" horiz-adv-x="411" d="M3 -28Q44 76 88 123Q106 125 116 125Q160 125 197 99Q156 29 63 -28Q39 -36 28 -36Q14 -36 3 -28ZM193 -28Q234 76 278 123Q296 125 306 125Q350 125 387 99Q346 29 253 -28Q229 -36
218 -36Q204 -36 193 -28Z" />
<glyph unicode="&#x2022;" glyph-name="bullet" horiz-adv-x="350" d="M44 320Q44 374 78 428Q127 460 174 460Q220 460 273 428Q306 373 306 314Q306 256 273 194Q216 156 170 156Q123 156 78 194Q44 264 44 320Z" />
<glyph unicode="&#x2039;" glyph-name="guilsinglleft" horiz-adv-x="292" d="M24 239Q94 387 185 477Q223 494 242 494Q262 494 267 477Q202 325 121 239Q221 151 261 11Q244 -17 225 -17Q219 -17 213 -15T200 -10T188 -5Q78 93 24 239Z" />
<glyph unicode="&#x203a;" glyph-name="guilsinglright" horiz-adv-x="292" d="M25 477Q30 494 50 494Q69 494 107 477Q198 387 268 239Q214 93 104 -5Q100 -6 93 -9T79 -15T67 -17Q48 -17 31 11Q71 151 171 239Q90 325 25 477Z" />
</font>
</defs>
</svg>
