<?xml version="1.0" standalone="no"?>
<!DOCTYPE svg PUBLIC "-//W3C//DTD SVG 1.1//EN" "http://www.w3.org/Graphics/SVG/1.1/DTD/svg11.dtd">
<svg xmlns="http://www.w3.org/2000/svg">
<defs >
<font id="Yrsa" horiz-adv-x="1390" ><font-face
    font-family="Yrsa SemiBold"
    units-per-em="2750"
    panose-1="2 13 0 0 0 4 0 0 0 0"
    ascent="2300"
    descent="-1050"
    alphabetic="0" />
<glyph unicode=" " glyph-name="space" horiz-adv-x="542" />
<glyph unicode="!" glyph-name="exclam" horiz-adv-x="693" d="M173 1516V1712H519V1516L440 493H253L173 1516ZM527 146Q527 72 477 27T346 -18Q265 -18 216 27T166 146Q166 221 215 266T346 311Q427 311 477 266T527 146Z" />
<glyph unicode="&quot;" glyph-name="quotedbl" horiz-adv-x="1095" d="M735 879L686 1718H971L922 879H735ZM173 879L124 1718H409L360 879H173Z" />
<glyph unicode="#" glyph-name="numbersign" horiz-adv-x="1485" d="M568 515H859L900 875H604L568 515ZM273 0L313 354H102L100 515H333L371 875H134L135 1037H394L428 1373H663L629 1037H923L958 1373H1194L1158 1037H1390L1389 875H1135L1101 515H1345L1346
354H1081L1043 0H809L844 354H548L510 0H273Z" />
<glyph unicode="$" glyph-name="dollar" horiz-adv-x="1210" d="M658 -209H478V22Q366 33 270 62T107 124Q103 216 110 317T131 496H317L353 290Q357 269 366 255T390 227Q419 201 475 178T605 154Q704 154 760 201T817 322Q817 369 793 405T726 472T624 531T496
591Q422 625 355 662T236 746T153 852T122 989Q122 1060 149 1124T232 1238T370 1320T564 1361V1589H744V1358Q825 1350 904 1333T1043 1291Q1050 1204 1045 1113T1025 939H844L804 1122Q800 1143 792 1159T765 1188Q740 1207 698 1219T605 1231Q509 1231 462 1189T415
1083Q415 990 505 939T736 822Q822 781 894 740T1018 651T1098 546T1127 415Q1127 347 1100 280T1017 157T871 65T658 18V-209Z" />
<glyph unicode="%" glyph-name="percent" horiz-adv-x="2026" d="M885 1148Q885 1036 851 951T759 810T626 724T468 695Q375 695 302 726T178 812T100 945T73 1117Q73 1229 107 1314T199 1456T333 1541T491 1570Q584 1570 657 1540T781 1454T858 1320T885 1148ZM641
0H425L1387 1562H1603L641 0ZM325 1149Q325 990 367 908T488 825Q558 825 594 897T631 1117Q631 1274 589 1357T468 1441Q399 1441 362 1369T325 1149ZM1954 443Q1954 331 1920 246T1828 104T1695 18T1537 -11Q1444 -11 1371 20T1247 106T1169 239T1142 412Q1142
524 1176 609T1268 751T1402 836T1560 865Q1653 865 1726 835T1850 749T1927 615T1954 443ZM1394 443Q1394 285 1436 202T1557 119Q1627 119 1663 191T1700 412Q1700 569 1658 652T1537 735Q1468 735 1431 664T1394 443Z" />
<glyph unicode="&amp;" glyph-name="ampersand" horiz-adv-x="1651" d="M530 1260Q530 1191 558 1115T675 917Q759 989 799 1081T840 1267Q840 1369 802 1425T695 1481Q618 1481 574 1421T530 1260ZM686 114Q740 114 800 128T918 176Q859 229 799 293T682 422T575
549T487 660Q441 617 409 560T376 416Q376 282 458 198T686 114ZM1305 -18Q1236 -18 1169 6T1020 90Q939 30 830 1T606 -29Q497 -29 402 -6T238 66T130 191T90 372Q90 464 119 531T193 644T295 721T406 769Q328 880 283 982T238 1189Q238 1277 271 1350T364 1476T511
1558T705 1588Q897 1588 1002 1496T1107 1246Q1107 1102 1016 994T746 824Q787 772 836 713T936 595T1041 477T1144 368Q1186 432 1201 505T1217 639Q1217 664 1211 680T1178 703L1024 735V871H1566V735L1462 703Q1438 696 1432 683T1421 644Q1403 544 1360 452T1232
283Q1277 242 1313 217T1386 179T1462 162T1557 157V26Q1506 8 1437 -5T1305 -18Z" />
<glyph unicode="&apos;" glyph-name="quotesingle" horiz-adv-x="533" d="M173 879L124 1718H409L360 879H173Z" />
<glyph unicode="(" glyph-name="parenleft" horiz-adv-x="736" d="M698 -361L598 -463Q565 -434 482 -345T312 -103T158 273T91 790Q91 1059 155 1276T304 1649T473 1903T598 2032L698 1928Q660 1870 606 1774T503 1541T419 1225T382 818Q381 569 417 374T503
36T608 -206T698 -361Z" />
<glyph unicode=")" glyph-name="parenright" horiz-adv-x="736" d="M646 779Q646 510 582 293T433 -80T264 -334T139 -463L39 -360Q77 -302 131 -206T234 27T318 343T354 750Q356 999 320 1194T233 1533T128 1775T39 1929L139 2032Q171 2003 255 1914T425 1672T579
1296T646 779Z" />
<glyph unicode="*" glyph-name="asterisk" horiz-adv-x="1214" d="M713 994L734 805H480L501 994L565 1227L397 1055L244 942L117 1162L291 1238L524 1298L291 1359L117 1435L244 1655L397 1542L565 1370L501 1602L480 1791H734L713 1602L649 1370L818 1542L971
1655L1098 1435L923 1359L690 1298L923 1238L1098 1162L971 942L818 1055L649 1227L713 994Z" />
<glyph unicode="+" glyph-name="plus" horiz-adv-x="1115" d="M663 142H452V364L458 520L302 514H92V712H302L458 705L452 862V1085H663V862L656 705L812 712H1023V514H812L656 520L663 364V142Z" />
<glyph unicode="," glyph-name="comma" horiz-adv-x="617" d="M500 78Q500 -8 471 -87T394 -234T281 -357T149 -450L87 -370Q164 -299 213 -218T263 -66Q263 -24 245 -11T200 21Q169 42 144 78T118 170Q118 245 167 294T293 343Q382 343 441 274T500 78Z" />
<glyph unicode="-" glyph-name="hyphen" horiz-adv-x="1045" d="M140 494V699H906V494H140Z" />
<glyph unicode="." glyph-name="period" horiz-adv-x="610" d="M488 153Q488 76 438 29T305 -18Q222 -18 172 29T122 153Q122 230 172 277T305 324Q388 324 438 277T488 153Z" />
<glyph unicode="/" glyph-name="slash" horiz-adv-x="1012" d="M312 -288H62L703 1742H953L312 -288Z" />
<glyph unicode="0" glyph-name="zero" horiz-adv-x="1370" d="M667 -28Q514 -28 409 26T240 175T148 398T120 676Q120 862 162 1000T281 1229T466 1363T703 1408Q856 1408 961 1354T1130 1207T1222 984T1250 707Q1250 519 1208 380T1089 151T904 17T667 -28ZM678
1265Q566 1265 516 1140T465 736Q465 421 515 269T691 116Q803 116 854 241T905 648Q905 963 855 1114T678 1265Z" />
<glyph unicode="1" glyph-name="one" horiz-adv-x="978" d="M698 1382V217Q698 193 710 179T747 161L944 128V0H106V128L341 162Q365 165 379 179T394 218V1100Q372 1094 338 1088T267 1076T192 1066T125 1061L100 1197Q157 1210 219 1233T340 1286T450 1347T538
1410L698 1382Z" />
<glyph unicode="2" glyph-name="two" horiz-adv-x="1236" d="M1088 0H132L72 168Q251 324 376 438T577 641T688 802T722 946Q722 1056 655 1113T498 1170Q417 1170 347 1125T218 996L120 1082Q145 1148 189 1207T295 1311T437 1382T614 1408Q708 1408 789 1380T930
1299T1024 1170T1059 999Q1059 899 1017 806T889 619T667 422T348 202H592Q658 202 718 207T811 219Q842 226 858 238T884 271L969 461L1130 442Q1130 338 1119 218T1088 0Z" />
<glyph unicode="3" glyph-name="three" horiz-adv-x="1181" d="M1082 402Q1082 305 1038 225T919 89T744 1T531 -30Q449 -30 379 -14T251 27T147 86T67 153L148 266Q208 223 287 192T463 161Q519 161 569 175T656 219T716 296T739 408Q740 508 681 574T522 652Q489
644 447 635T373 620L336 761Q402 776 463 800T571 858T646 939T674 1044Q674 1113 627 1159T502 1206Q418 1206 344 1163T224 1070L129 1160Q192 1261 310 1334T602 1407Q681 1407 754 1388T882 1329T970 1229T1003 1087Q1003 1022 975 965T902 862T800 785T687
737Q752 740 822 721T950 661T1044 555T1082 402Z" />
<glyph unicode="4" glyph-name="four" horiz-adv-x="1253" d="M1198 249H983V0H693V249H92L24 391Q170 623 304 872T562 1387H838L881 1326Q789 1151 711 1009T562 755T420 555T272 402L696 422L727 737L983 751V436L1198 446V249Z" />
<glyph unicode="5" glyph-name="five" horiz-adv-x="1189" d="M154 276Q216 226 294 194T459 161Q587 161 668 236T750 443Q750 559 683 632T497 705Q440 705 385 687T274 640L170 711L219 1379H1017L990 1149H401L360 808Q423 859 498 877T643 896Q847 896 969
780T1092 470Q1092 357 1049 264T932 106T755 6T534 -30Q388 -30 265 23T71 162L154 276Z" />
<glyph unicode="6" glyph-name="six" horiz-adv-x="1283" d="M1191 469Q1191 362 1155 271T1050 113T884 8T662 -30Q537 -30 434 12T259 134T147 333T107 606Q107 784 159 932T303 1186T523 1349T801 1408Q885 1408 967 1391T1112 1333L1066 1198Q1017 1217 970
1225T884 1234Q711 1234 593 1113T448 777Q500 832 590 865T780 899Q875 899 951 867T1081 779T1162 643T1191 469ZM677 116Q771 116 825 196T880 417Q880 563 818 641T653 719Q606 719 545 704T440 659V653V567Q440 354 503 235T677 116Z" />
<glyph unicode="7" glyph-name="seven" horiz-adv-x="1153" d="M920 1184H631Q561 1184 499 1178T401 1163Q374 1157 360 1146T337 1109L256 879L94 878Q84 1002 90 1134T113 1379H1046L1121 1217Q933 970 811 681T663 0H377L331 51Q343 212 394 371T525 675T706
951T920 1184Z" />
<glyph unicode="8" glyph-name="eight" horiz-adv-x="1296" d="M636 -30Q518 -30 419 -6T250 66T140 181T101 336Q101 459 178 554T384 692Q298 749 235 830T171 1032Q171 1116 205 1185T303 1304T458 1380T660 1407Q763 1407 849 1384T996 1318T1092 1215T1126
1082Q1126 974 1055 889T874 761Q937 729 995 692T1097 609T1167 503T1194 367Q1194 274 1154 200T1042 76T866 -2T636 -30ZM458 1105Q458 1007 538 946T736 828Q800 877 825 939T851 1058Q851 1162 794 1216T644 1270Q557 1270 508 1225T458 1105ZM652 110Q757
110 814 166T871 303Q871 358 845 399T774 475T671 539T546 602Q539 606 531 609T515 617Q452 571 419 504T386 362Q386 299 408 252T466 173T551 126T652 110Z" />
<glyph unicode="9" glyph-name="nine" horiz-adv-x="1283" d="M631 660Q678 660 738 675T842 719V806Q842 906 826 990T780 1135T704 1228T601 1262Q503 1262 453 1177T402 959Q402 817 463 739T631 660ZM521 -30Q421 -30 324 -2T161 80L214 208Q260 183 323 165T461
147Q532 147 596 175T711 259T794 402T838 604Q787 551 697 516T507 480Q409 480 332 512T201 600T119 734T90 906Q90 1014 126 1106T230 1265T396 1370T618 1408Q743 1408 846 1366T1021 1243T1134 1038T1174 753Q1174 568 1125 422T988 176T781 23T521 -30Z"
/>
<glyph unicode=":" glyph-name="colon" horiz-adv-x="662" d="M514 985Q514 908 464 862T331 815Q248 815 198 861T147 985Q147 1063 197 1109T331 1156Q413 1156 463 1110T514 985ZM514 153Q514 76 464 29T331 -18Q248 -18 198 29T147 153Q147 230 197 277T331
324Q413 324 463 277T514 153Z" />
<glyph unicode=";" glyph-name="semicolon" horiz-adv-x="682" d="M522 988Q522 911 472 865T339 818Q256 818 206 864T156 988Q156 1066 206 1112T339 1159Q422 1159 472 1113T522 988ZM537 78Q537 -8 508 -87T431 -234T318 -357T186 -450L124 -370Q201 -299
250 -218T300 -66Q300 -24 282 -11T237 21Q206 42 181 78T155 170Q155 245 204 294T330 343Q419 343 478 274T537 78Z" />
<glyph unicode="&lt;" glyph-name="less" horiz-adv-x="1126" d="M920 101L80 530V697L920 1124L1010 927L332 616L1010 301L920 101Z" />
<glyph unicode="=" glyph-name="equal" horiz-adv-x="1219" d="M1068 729H138V931H1068V729ZM1068 295H138V497H1068V295Z" />
<glyph unicode="&gt;" glyph-name="greater" horiz-adv-x="1126" d="M206 101L116 301L794 614L116 927L206 1124L1046 697V530L206 101Z" />
<glyph unicode="?" glyph-name="question" horiz-adv-x="1128" d="M582 493H404Q379 544 353 611T327 738Q327 827 383 885T522 1019Q631 1119 683 1199T736 1378Q736 1472 686 1535T549 1598Q498 1598 458 1577T396 1533Q377 1511 369 1489T356 1432L330 1207H145Q115
1296 96 1398T72 1597Q150 1662 269 1708T528 1754Q649 1754 747 1718T915 1619T1022 1473T1060 1295Q1060 1217 1035 1153T967 1034T863 928T733 826Q693 797 670 778T633 742T614 704T603 648L582 493ZM677 146Q677 73 628 28T497 -18Q416 -18 367 27T317 146Q317
221 366 266T497 311Q578 311 627 266T677 146Z" />
<glyph unicode="@" glyph-name="at" horiz-adv-x="2124" d="M919 -523Q726 -523 573 -461T315 -286T152 -11T92 346Q89 608 180 831T427 1215T793 1467T1236 1558Q1406 1558 1551 1508T1800 1361T1964 1123T2023 799Q2023 591 1952 434T1781 172T1577 16T1403
-37Q1331 -37 1291 20T1251 177Q1251 218 1258 282T1280 436Q1246 344 1202 255T1105 98T988 -13T853 -55Q794 -55 738 -25T639 62T570 201T544 387Q544 509 582 632T692 854T866 1015T1098 1077Q1155 1077 1216 1062T1349 1008L1407 1075L1582 1020Q1575 983 1557
894T1519 697T1485 479T1470 289Q1470 214 1484 185T1529 155Q1566 155 1619 192T1721 302T1805 482T1840 731Q1840 916 1778 1043T1618 1248T1398 1360T1154 1395Q971 1395 814 1326T542 1129T362 822T296 422Q296 222 350 74T495 -169T710 -312T972 -359Q1027
-359 1088 -352T1204 -333T1308 -305T1386 -268L1436 -374Q1352 -443 1214 -483T919 -523ZM918 181Q955 181 998 216T1084 313T1167 464T1240 656Q1252 695 1262 732T1281 804Q1236 853 1174 881T1059 909Q993 909 943 870T861 769T812 628T795 470Q795 419 802
367T824 274T862 207T918 181Z" />
<glyph unicode="A" glyph-name="A" horiz-adv-x="1587" d="M943 618L718 1314L501 618H943ZM552 130V0H-11V130L121 162Q142 167 155 179T175 211L638 1567H946L1417 211Q1424 190 1438 179T1472 162L1594 130V0H896V130L1090 163L993 464H453L359 163L552 130Z" />
<glyph unicode="B" glyph-name="B" horiz-adv-x="1561" d="M813 -12Q762 -12 720 -10T639 -6T557 -2T464 0H96V130L259 160Q278 163 289 177T301 211V1344Q301 1363 290 1376T260 1394L96 1427V1562H463Q558 1562 640 1568T821 1575Q977 1575 1082 1552T1250 1482T1339
1367T1365 1208Q1365 1058 1290 962T1086 832Q1170 828 1241 802T1363 729T1442 615T1471 461Q1471 361 1439 274T1332 124T1129 24T813 -12ZM803 878Q925 878 983 954T1042 1177Q1042 1318 980 1382T778 1447Q763 1447 742 1446T698 1443T657 1439T627 1436V881Q678
879 725 879T803 878ZM798 122Q966 122 1039 206T1112 446Q1112 603 1041 667T826 731Q788 731 735 730T627 727V136Q658 131 706 127T798 122Z" />
<glyph unicode="C" glyph-name="C" horiz-adv-x="1452" d="M819 -33Q458 -33 281 171T104 749Q104 962 159 1121T313 1383T555 1538T871 1590Q983 1590 1109 1570T1342 1509Q1349 1414 1344 1305T1320 1080H1128L1073 1330Q1069 1350 1058 1370T1021 1406Q992
1425 941 1438T834 1452Q665 1452 569 1297T472 788Q472 466 560 287T841 108Q896 108 949 123T1037 168Q1052 180 1063 197T1084 243L1154 466L1343 450Q1347 361 1343 259T1324 51Q1274 33 1213 18T1085 -9T951 -26T819 -33Z" />
<glyph unicode="D" glyph-name="D" horiz-adv-x="1683" d="M460 1562Q560 1562 645 1568T820 1575Q1202 1575 1390 1392T1579 831Q1579 624 1525 464T1371 196T1124 34T795 -16Q761 -15 718 -13T629 -7T541 -2T464 0H96V130L256 160Q277 163 289 178T301 213V1344Q301
1363 290 1376T260 1394L96 1427V1562H460ZM629 146Q660 136 711 131T805 126Q904 128 982 163T1113 274T1194 476T1223 780Q1223 1099 1119 1269T786 1439Q731 1439 688 1432T629 1423V146Z" />
<glyph unicode="E" glyph-name="E" horiz-adv-x="1436" d="M1270 1149H1115L1063 1336Q1056 1361 1042 1375T1005 1399Q977 1409 928 1415T825 1421H629V875L1078 892V704L629 715V149H872Q926 149 982 155T1066 172Q1088 181 1099 195T1120 235L1203 473L1357
449Q1357 336 1348 226T1319 0H96V130L253 159Q277 163 289 178T301 217V1337Q301 1361 289 1376T253 1396L96 1427V1562H1267Q1279 1461 1279 1359T1270 1149Z" />
<glyph unicode="F" glyph-name="F" horiz-adv-x="1330" d="M1078 679L629 692V213Q629 193 641 179T675 162L930 130V0H96V130L255 160Q277 164 289 178T301 214V1337Q301 1361 289 1376T253 1396L96 1427V1562H1267Q1279 1461 1279 1359T1270 1149H1115L1063
1336Q1056 1361 1042 1375T1005 1399Q977 1409 928 1415T825 1421H629V852L1078 868V679Z" />
<glyph unicode="G" glyph-name="G" horiz-adv-x="1594" d="M1350 -14L1176 127Q1107 57 1003 14T758 -30Q599 -30 477 25T272 183T148 434T105 765Q105 974 159 1130T314 1387T562 1539T893 1590Q1026 1590 1155 1565T1386 1496Q1392 1401 1386 1302T1365 1103H1167L1115
1323Q1108 1354 1097 1370T1066 1400Q1035 1422 986 1437T872 1453Q688 1453 586 1289T483 767Q483 624 502 509T564 314T681 191T860 148Q932 148 993 166T1103 222V639L884 660V803H1522V660L1414 642V21L1350 -14Z" />
<glyph unicode="H" glyph-name="H" horiz-adv-x="1867" d="M1772 1562V1427L1614 1396Q1590 1391 1578 1375T1566 1336V218Q1566 193 1578 179T1614 159L1772 130V0H1071V130L1191 159Q1214 165 1226 179T1239 218V714H629V217Q629 193 640 179T676 159L808 130V0H96V130L253
159Q277 164 289 178T301 218V1336Q301 1361 289 1376T254 1396L96 1427V1562H808V1427L675 1396Q652 1391 641 1377T629 1337V878H1239V1337Q1239 1360 1227 1375T1192 1396L1070 1427V1562H1772Z" />
<glyph unicode="I" glyph-name="I" horiz-adv-x="930" d="M834 1562V1427L677 1396Q653 1391 641 1377T629 1337V218Q629 194 640 179T677 160L834 130V0H96V130L253 159Q277 163 289 178T301 217V1337Q301 1361 289 1376T253 1396L96 1427V1562H834Z" />
<glyph unicode="J" glyph-name="J" horiz-adv-x="873" d="M653 1396Q629 1390 617 1376T605 1337V376Q605 202 582 78T497 -135T321 -288T30 -408L-30 -274Q68 -217 128 -163T222 -42T266 114T278 331V1337Q278 1361 266 1376T230 1396L72 1427V1562H790V1427L653 1396Z" />
<glyph unicode="K" glyph-name="K" horiz-adv-x="1646" d="M837 129V0H96V130L252 159Q275 164 288 178T301 216V1338Q301 1362 289 1376T253 1396L96 1427V1562H832V1427L675 1396Q652 1391 640 1377T627 1337V737L1178 1395L1001 1427L1000 1562H1592V1428L1438
1396Q1419 1392 1404 1385T1375 1363L1014 958Q1070 892 1115 819T1220 639L1451 226Q1466 201 1483 183T1535 155L1635 129V0H1236Q1196 0 1157 56T1071 205L928 495Q891 571 862 624T805 720L627 516V213Q627 189 640 175T677 157L837 129Z" />
<glyph unicode="L" glyph-name="L" horiz-adv-x="1400" d="M1091 239L1185 545L1350 522Q1349 402 1343 267T1309 0H96V130L252 159Q277 163 289 178T301 217V1338Q301 1363 289 1377T253 1397L96 1427V1562H883V1427L677 1394Q653 1390 641 1376T628 1337V151H839Q903
151 953 158T1033 176Q1055 184 1069 199T1091 239Z" />
<glyph unicode="M" glyph-name="M" horiz-adv-x="2258" d="M649 130V0H48V130L201 162Q223 166 235 180T251 218L386 1334Q389 1359 378 1375T341 1396L167 1427V1562H831L1137 476L1410 1562H2077V1427L1895 1396Q1870 1392 1859 1376T1852 1334L2022 217Q2025
195 2038 181T2073 162L2222 130V0H1517V130L1699 161L1531 1338L1208 59H951L567 1331L435 161L649 130Z" />
<glyph unicode="N" glyph-name="N" horiz-adv-x="1798" d="M719 130V0H96V130L253 158Q277 163 289 177T301 217V1337Q301 1361 289 1376T253 1396L96 1427V1562H635L1338 446V1337Q1338 1361 1326 1376T1290 1396L1123 1427V1562H1719V1427L1575 1396Q1551 1391
1539 1377T1527 1337V0H1236L489 1195V217Q489 193 501 178T537 159L719 130Z" />
<glyph unicode="O" glyph-name="O" horiz-adv-x="1600" d="M774 -31Q603 -31 477 23T268 179T145 426T104 753Q104 952 152 1109T292 1372T519 1535T826 1592Q997 1592 1123 1538T1332 1382T1455 1135T1496 808Q1496 610 1448 453T1309 189T1082 26T774 -31ZM804
1448Q638 1448 551 1288T464 773Q464 430 546 271T795 112Q959 112 1047 275T1135 792Q1135 1134 1053 1291T804 1448Z" />
<glyph unicode="P" glyph-name="P" horiz-adv-x="1448" d="M774 702Q832 702 883 722T973 789T1034 916T1056 1113Q1056 1287 985 1365T773 1443Q715 1443 685 1438T629 1431V710Q664 707 696 705T774 702ZM920 130V0H96V130L256 160Q277 164 289 178T301 213V1343Q301
1361 290 1375T260 1394L96 1427V1562H470Q545 1562 621 1568T817 1574Q982 1574 1093 1544T1270 1455T1363 1313T1391 1120Q1391 862 1230 716T781 569Q742 569 704 570T629 574V213Q629 193 641 179T675 162L920 130Z" />
<glyph unicode="Q" glyph-name="Q" horiz-adv-x="1599" d="M1368 -421Q1256 -421 1178 -376T1034 -269T904 -141T751 -31Q586 -27 464 30T262 188T143 434T104 753Q104 949 152 1105T292 1369T519 1534T826 1592Q997 1592 1123 1537T1332 1380T1455 1132T1496
808Q1496 495 1371 287T1021 6Q1075 -12 1122 -37T1221 -93Q1299 -141 1371 -169T1526 -197Q1557 -197 1585 -194T1636 -187L1667 -299Q1629 -340 1547 -380T1368 -421ZM803 1448Q638 1448 550 1288T462 773Q462 429 545 271T794 112Q959 112 1047 273T1136 792Q1136
1135 1053 1291T803 1448Z" />
<glyph unicode="R" glyph-name="R" horiz-adv-x="1623" d="M627 1433V805Q677 800 733 800T816 800Q923 801 994 882T1066 1142Q1066 1299 998 1371T773 1444Q731 1444 692 1441T627 1433ZM837 129V0H96V130L252 159Q275 164 288 178T301 216V1338Q301 1363 288
1377T253 1396L96 1427V1562H457Q544 1562 623 1568T807 1575Q1131 1575 1271 1477T1412 1158Q1412 1046 1382 970T1303 844T1194 767T1076 723Q1148 688 1200 631T1295 481L1417 223Q1433 188 1449 175T1494 154L1595 129V0H1206Q1161 0 1125 59T1047 215L947
461Q918 530 889 583T828 670Q776 670 725 670T627 671V213Q627 189 640 175T677 157L837 129Z" />
<glyph unicode="S" glyph-name="S" horiz-adv-x="1308" d="M1213 433Q1213 349 1181 266T1080 116T901 9T635 -33Q479 -33 345 5T120 90Q115 194 122 308T145 513H332L371 262Q374 241 383 223T411 187Q444 156 507 129T647 101Q761 101 823 161T886 323Q886 389
860 439T788 529T680 603T545 674Q469 713 395 754T264 849T172 975T136 1147Q136 1242 170 1324T273 1465T445 1557T685 1591Q801 1591 919 1568T1124 1508Q1131 1409 1126 1306T1105 1110H923L882 1329Q877 1355 868 1373T839 1407Q811 1429 762 1444T660 1459Q557
1459 501 1405T444 1259Q444 1198 467 1153T535 1071T643 999T788 924Q872 882 949 835T1085 730T1178 599T1213 433Z" />
<glyph unicode="T" glyph-name="T" horiz-adv-x="1578" d="M1237 0H342V129L576 167Q601 171 613 184T626 223V1421H530Q481 1421 439 1416T371 1401Q349 1393 338 1380T321 1346L243 1022H79Q65 1168 64 1293T78 1562H1502Q1517 1419 1515 1292T1499 1022H1335L1255
1347Q1250 1368 1239 1380T1206 1401Q1181 1411 1139 1416T1047 1421H953V223Q953 198 965 185T1003 167L1237 129V0Z" />
<glyph unicode="U" glyph-name="U" horiz-adv-x="1716" d="M1045 1562H1628V1427L1514 1398Q1491 1392 1479 1377T1467 1338V577Q1467 415 1425 301T1305 114T1115 9T863 -24Q547 -24 394 124T241 594V1338Q241 1362 229 1376T195 1398L90 1427V1562H791V1427L626
1393Q603 1389 591 1374T578 1335V565Q578 340 659 226T916 112Q1107 112 1184 234T1261 560V1337Q1261 1362 1249 1377T1213 1396L1045 1427V1562Z" />
<glyph unicode="V" glyph-name="V" horiz-adv-x="1588" d="M955 -5H662L162 1347Q154 1368 141 1379T107 1396L-16 1427V1562H687V1427L490 1389L875 281L1221 1389L1024 1427V1562H1588V1427L1457 1396Q1436 1391 1423 1380T1402 1347L955 -5Z" />
<glyph unicode="W" glyph-name="W" horiz-adv-x="2296" d="M1429 -7L1151 950L886 -7H590L172 1345Q165 1364 152 1378T119 1396L-9 1427V1562H679V1427L498 1389L802 279L1066 1219L1024 1345Q1018 1364 1005 1376T972 1396L878 1427V1562H1546V1427L1346 1389L1641
297L1933 1389L1752 1427V1562H2296V1427L2162 1396Q2141 1392 2128 1380T2108 1344L1725 -7H1429Z" />
<glyph unicode="X" glyph-name="X" horiz-adv-x="1537" d="M594 130V0H19V130L164 158Q183 163 196 172T222 199L608 751L217 1354Q207 1371 194 1380T161 1396L48 1427V1562H741V1427L574 1391L835 966L1115 1391L941 1427V1562H1480V1427L1348 1396Q1329 1392
1315 1382T1288 1356L927 845L1350 200Q1361 183 1375 173T1408 158L1524 130V0H823V130L990 163L702 626L401 163L594 130Z" />
<glyph unicode="Y" glyph-name="Y" horiz-adv-x="1497" d="M1166 0H349V129L540 167Q565 171 577 184T590 223V608L165 1353Q155 1371 141 1381T106 1396L-18 1427V1562H693V1427L527 1388L835 807L1121 1389L942 1427V1562H1485V1427L1368 1398Q1348 1394 1334
1384T1309 1355L926 608V223Q926 198 938 185T975 167L1166 129V0Z" />
<glyph unicode="Z" glyph-name="Z" horiz-adv-x="1406" d="M1260 0H122L55 114L912 1425H677Q612 1425 562 1419T483 1403Q461 1394 447 1380T424 1340L340 1071H159Q155 1191 163 1320T190 1564H1252L1302 1449L463 151H775Q840 151 890 157T969 173Q990 181
1004 196T1027 236L1122 520L1298 498Q1299 447 1297 383T1290 252T1278 120T1260 0Z" />
<glyph unicode="[" glyph-name="bracketleft" horiz-adv-x="821" d="M777 -384Q714 -392 644 -398T504 -408T367 -414T244 -415L201 -375V1942L244 1982Q300 1983 367 1981T503 1976T643 1966T777 1951V1823L530 1796Q505 1794 491 1779T476 1738V-170Q476 -196
490 -211T530 -229L777 -255V-384Z" />
<glyph unicode="\" glyph-name="backslash" horiz-adv-x="1012" d="M949 -288H699L57 1742H308L949 -288Z" />
<glyph unicode="]" glyph-name="bracketright" horiz-adv-x="821" d="M620 -375L578 -415Q521 -416 454 -414T318 -409T178 -399T45 -384V-255L291 -229Q317 -226 331 -211T345 -170V1738Q345 1763 331 1778T291 1796L45 1823V1951Q108 1959 178 1965T317 1975T454
1981T578 1982L620 1942V-375Z" />
<glyph unicode="^" glyph-name="asciicircum" horiz-adv-x="1275" d="M1061 764L622 1272L200 764L84 854L501 1531L741 1551L1193 854L1061 764Z" />
<glyph unicode="_" glyph-name="underscore" horiz-adv-x="1751" d="M0 -250H1751V-400H0V-250Z" />
<glyph unicode="`" glyph-name="grave" horiz-adv-x="1000" d="M353 1796L726 1356L638 1254Q498 1335 371 1437T173 1631L353 1796Z" />
<glyph unicode="a" glyph-name="a" horiz-adv-x="1236" d="M533 157Q587 157 638 174T730 222V476L593 466Q489 459 444 412T399 292Q399 226 430 192T533 157ZM969 -18Q888 -18 832 13T747 118Q688 52 600 15T404 -23Q257 -23 167 52T76 256Q76 338 113 398T213
498T354 559T518 586L730 600V719Q730 853 673 905T503 957Q410 957 330 927T181 835L110 899Q156 1024 281 1094T594 1165Q822 1165 928 1056T1034 733V215Q1034 183 1047 170T1087 153L1191 141V20Q1157 10 1091 -4T969 -18Z" />
<glyph unicode="b" glyph-name="b" horiz-adv-x="1317" d="M599 -23Q534 -23 469 -16T346 3T240 29T162 56V1534Q162 1559 150 1573T114 1592L-22 1613V1739Q28 1752 86 1763T205 1782T323 1794T432 1799L474 1760V1040Q533 1100 614 1134T793 1168Q884 1168 963
1137T1100 1039T1191 870T1225 626Q1225 474 1184 353T1065 149T869 22T599 -23ZM621 108Q752 108 821 216T894 563Q897 798 833 888T654 978Q605 978 560 964T474 924V144Q503 128 539 118T621 108Z" />
<glyph unicode="c" glyph-name="c" horiz-adv-x="1135" d="M90 556Q90 700 131 814T247 1006T428 1126T664 1168Q766 1168 868 1145T1037 1085Q1044 992 1037 896T1014 712H861L809 901Q800 934 791 953T767 986Q748 1002 718 1013T650 1025Q551 1025 490 925T428
603Q428 389 496 281T713 172Q803 172 871 205T979 276L1051 217Q1011 112 897 44T613 -25Q479 -25 380 19T217 141T122 326T90 556Z" />
<glyph unicode="d" glyph-name="d" horiz-adv-x="1375" d="M654 156Q705 156 756 171T847 212V993Q818 1009 778 1018T696 1027Q636 1027 586 1005T500 931T444 792T423 576Q423 344 486 250T654 156ZM1091 -18Q1006 -18 952 17T869 119Q812 56 730 17T544 -23Q448
-23 365 9T222 110T127 284T92 537Q92 847 249 1007T682 1168Q725 1168 768 1163T847 1151V1535Q847 1560 835 1574T798 1593L660 1613V1738Q710 1751 769 1762T888 1782T1008 1794T1117 1799L1159 1759V215Q1159 182 1173 169T1212 153L1317 141V20Q1281 9 1216
-4T1091 -18Z" />
<glyph unicode="e" glyph-name="e" horiz-adv-x="1182" d="M621 1031Q540 1031 488 967T420 749H799Q800 759 800 770T800 795Q800 898 756 964T621 1031ZM1084 249Q1044 119 920 47T619 -25Q484 -25 385 17T220 135T124 319T92 559Q92 852 239 1009T647 1167Q868
1167 979 1060T1091 778Q1091 744 1087 701T1076 624H414V617Q414 379 486 276T712 172Q799 172 878 205T1008 301L1084 249Z" />
<glyph unicode="f" glyph-name="f" horiz-adv-x="924" d="M255 1204Q255 1313 300 1420T417 1610T583 1746T771 1798Q848 1798 921 1768T1058 1696L998 1519Q939 1531 876 1538T775 1545Q670 1544 615 1499T560 1314V1137H885V961H561V206Q561 181 574 167T613
151L820 129V0H87V129L199 148Q224 152 236 166T249 205V956L71 984V1107L255 1138V1204Z" />
<glyph unicode="g" glyph-name="g" horiz-adv-x="1316" d="M424 777Q424 638 470 572T612 506Q705 506 746 572T788 773Q788 916 745 977T607 1039Q523 1039 474 980T424 777ZM1241 -103Q1241 -206 1193 -289T1058 -431T848 -520T574 -552Q314 -552 194 -464T73
-239Q73 -138 132 -75T289 26Q228 54 200 101T171 208Q171 286 212 338T320 421Q211 467 161 555T110 756Q110 955 248 1061T626 1168Q742 1168 833 1141T984 1062Q1025 1113 1074 1142T1175 1171Q1201 1171 1230 1165T1280 1152V935H1070Q1083 902 1089 865T1095
785Q1095 694 1064 618T971 488T812 404T588 374Q545 374 506 377T431 387Q413 367 405 345T396 298Q396 242 446 220T616 198H832Q1031 198 1136 123T1241 -103ZM626 -405Q763 -405 843 -344T923 -163Q923 -85 882 -49T734 -13H511Q489 -13 468 -12T427 -9Q402
-41 387 -85T371 -185Q371 -280 427 -342T626 -405Z" />
<glyph unicode="h" glyph-name="h" horiz-adv-x="1454" d="M660 129V0H57V129L170 149Q193 153 206 167T219 207V1543Q219 1567 207 1581T170 1600L35 1621V1745Q85 1759 143 1769T261 1785T379 1795T488 1799L531 1757V1023Q604 1096 698 1129T898 1163Q1098
1163 1171 1050T1245 730V207Q1245 182 1257 168T1294 149L1407 129V0H804V129L885 148Q907 155 920 168T933 207V690Q933 839 891 905T746 971Q692 971 637 955T531 906V207Q531 182 543 169T578 148L660 129Z" />
<glyph unicode="i" glyph-name="i" horiz-adv-x="780" d="M561 1124V207Q561 183 573 168T610 149L723 129V0H86V129L199 149Q223 153 236 168T249 207V895Q249 919 237 934T202 954L74 978V1108Q174 1136 296 1150T518 1164L561 1124ZM565 1477Q565 1401 516
1355T386 1308Q304 1308 255 1354T205 1477Q205 1552 254 1598T386 1644Q467 1644 516 1598T565 1477Z" />
<glyph unicode="j" glyph-name="j" horiz-adv-x="713" d="M495 1164L537 1124V107Q537 -85 496 -190T370 -364Q296 -425 196 -466T-12 -537L-71 -404Q17 -356 75 -308T166 -202T213 -73T227 95L228 895Q228 919 216 934T181 954L52 978V1108Q152 1136 273 1150T495
1164ZM524 1477Q524 1401 475 1355T345 1308Q263 1308 214 1354T164 1477Q164 1552 213 1598T345 1644Q426 1644 475 1598T524 1477Z" />
<glyph unicode="k" glyph-name="k" horiz-adv-x="1398" d="M689 129V0H57V129L170 149Q193 153 206 168T219 208V1535Q219 1560 207 1574T170 1593L35 1613V1738Q85 1751 143 1762T260 1782T378 1794T488 1799L530 1760V557L927 981L738 1014V1137H1318V1014L1200
986Q1163 977 1143 970T1101 940L891 730Q925 690 953 644T1014 536L1189 215Q1204 188 1219 177T1260 158L1374 129V0H997Q948 0 916 55T846 188L749 393Q733 427 716 459T682 521L530 369V207Q530 182 543 168T579 149L689 129Z" />
<glyph unicode="l" glyph-name="l" horiz-adv-x="762" d="M538 1759V207Q538 182 550 168T587 149L715 128V0H47V129L176 149Q200 153 213 167T226 206V1535Q226 1560 213 1574T177 1593L39 1613V1738Q89 1751 148 1762T267 1782T386 1794T495 1799L538 1759Z" />
<glyph unicode="m" glyph-name="m" horiz-adv-x="2157" d="M686 129V0H86V129L200 149Q223 153 236 168T249 207V894Q249 918 237 934T202 954L74 977V1108Q171 1135 279 1149T482 1165L527 1123L545 1013Q614 1091 708 1127T909 1163Q1028 1163 1100 1122T1208
1004Q1286 1089 1386 1126T1597 1163Q1800 1163 1873 1048T1947 720V207Q1947 182 1959 168T1996 149L2110 129V0H1510V129L1587 148Q1610 155 1622 168T1635 207V683Q1635 834 1592 902T1442 971Q1394 971 1342 957T1239 909Q1247 869 1250 825T1254 730V207Q1254
182 1266 169T1301 148L1380 129V0H817V129L894 148Q916 155 929 168T942 207V690Q942 839 903 905T760 971Q713 971 660 956T561 913V207Q561 182 572 169T605 149L686 129Z" />
<glyph unicode="n" glyph-name="n" horiz-adv-x="1482" d="M690 129V0H86V129L200 149Q223 153 236 168T249 207V895Q249 919 237 934T202 954L74 978V1108Q171 1135 279 1149T482 1165L527 1123L546 1010Q621 1090 718 1126T926 1163Q1126 1163 1199 1050T1273
730V207Q1273 182 1286 168T1322 149L1436 129V0H832V129L913 148Q936 155 948 168T961 207V690Q961 839 919 905T774 971Q721 971 666 955T561 908V207Q561 183 573 169T608 148L690 129Z" />
<glyph unicode="o" glyph-name="o" horiz-adv-x="1306" d="M92 560Q92 724 136 840T258 1029T442 1134T669 1168Q932 1168 1073 1019T1214 581Q1214 417 1170 301T1048 113T864 8T636 -25Q373 -25 233 124T92 560ZM875 557Q875 800 827 914T647 1029Q538 1029
484 929T430 585Q430 343 478 228T659 113Q768 113 821 213T875 557Z" />
<glyph unicode="p" glyph-name="p" horiz-adv-x="1380" d="M684 108Q806 108 881 209T958 569Q960 783 902 880T721 978Q665 978 618 963T538 925V139Q569 123 606 116T684 108ZM747 -368V-496H64V-368L178 -347Q201 -343 213 -329T226 -289V894Q226 917 215 933T181
954L52 978V1108Q145 1133 255 1148T459 1165L504 1123L523 1020Q580 1085 663 1126T857 1168Q949 1168 1028 1136T1164 1038T1255 868T1288 624Q1288 469 1246 348T1125 145T935 20T683 -23Q649 -23 612 -20T538 -8V-290Q538 -315 551 -329T588 -347L747 -368Z"
/>
<glyph unicode="q" glyph-name="q" horiz-adv-x="1333" d="M1299 -496H625V-368L795 -347Q820 -344 832 -330T845 -290V100Q792 45 717 11T545 -23Q448 -23 365 9T221 110T127 284T92 538Q92 834 247 1001T672 1168Q750 1168 828 1149T970 1100L1107 1159L1157
1118V-290Q1157 -315 1170 -329T1207 -348L1299 -368V-496ZM654 156Q706 156 755 171T845 215V979Q816 1004 777 1015T690 1027Q571 1027 497 927T422 586Q422 346 485 251T654 156Z" />
<glyph unicode="r" glyph-name="r" horiz-adv-x="1109" d="M792 128V0H86V129L199 149Q223 153 236 167T249 207V892Q249 917 238 933T201 954L74 978V1108Q164 1135 269 1149T463 1165L512 1125L545 931Q611 1035 704 1101T897 1168Q929 1168 976 1160T1048 1138Q1053
1095 1053 1043T1051 936T1040 824T1021 716H880L847 846Q837 881 820 893T771 905Q724 906 669 886T561 820V207Q561 182 574 167T612 149L792 128Z" />
<glyph unicode="s" glyph-name="s" horiz-adv-x="1103" d="M113 57Q103 137 105 220T119 378H277L318 229Q327 197 336 180T365 148Q388 133 433 116T535 99Q620 99 665 141T710 244Q710 287 687 318T624 375T527 426T402 482Q274 541 194 615T114 823Q114 979
231 1073T574 1167Q669 1167 773 1148T949 1100Q954 1028 950 948T932 794L785 795L744 933Q735 961 724 978T691 1008Q667 1024 636 1032T568 1041Q496 1042 450 1007T403 905Q403 862 424 832T479 778T559 736T653 696Q724 666 790 633T907 557T987 456T1017
318Q1017 232 981 167T881 58T728 -8T535 -30Q410 -30 301 -3T113 57Z" />
<glyph unicode="t" glyph-name="t" horiz-adv-x="938" d="M213 318V963L52 989V1108L178 1131Q205 1135 219 1148T241 1187L338 1496H513L523 1138H856V969H526V395Q526 276 563 233T671 189Q718 189 766 206T854 261L922 189Q873 85 770 33T537 -19Q394 -19 304
51T213 318Z" />
<glyph unicode="u" glyph-name="u" horiz-adv-x="1430" d="M1146 -18Q1062 -18 1008 17T925 119Q861 52 777 15T570 -23Q389 -23 301 76T212 378V898Q212 921 201 936T166 957L53 982V1114Q149 1138 267 1151T482 1164L524 1124V422Q524 273 565 215T704 156Q755
156 806 172T903 220V898Q903 922 891 938T856 959L730 985V1116Q779 1128 836 1137T951 1152T1066 1161T1172 1164L1215 1124V215Q1215 182 1229 169T1269 153L1372 141V20Q1337 9 1272 -4T1146 -18Z" />
<glyph unicode="v" glyph-name="v" horiz-adv-x="1280" d="M514 -16L139 939Q131 958 118 969T84 988L9 1011V1138H627V1009L473 978L722 249L966 978L813 1009V1138H1259V1011L1184 988Q1163 982 1149 971T1128 940L786 -16H514Z" />
<glyph unicode="w" glyph-name="w" horiz-adv-x="1860" d="M452 -16L141 940Q134 961 121 971T86 989L16 1011V1138H584V1009L440 978L635 286L864 1138H919V1138H1124L1359 287L1547 978L1397 1009V1138H1837V1011L1766 989Q1744 983 1731 972T1711 939L1420
-16H1172L927 791L705 -16H452Z" />
<glyph unicode="x" glyph-name="x" horiz-adv-x="1314" d="M538 128V0H43V128L143 145Q163 149 177 157T205 181L501 551L195 957Q184 973 170 982T136 995L55 1014V1138H664V1013L534 984L720 714L922 984L798 1013V1138H1249V1013L1158 995Q1139 991 1125 983T1098
958L814 607L1137 181Q1148 165 1163 157T1197 144L1279 128V0H673V128L795 154L600 440L390 155L538 128Z" />
<glyph unicode="y" glyph-name="y" horiz-adv-x="1284" d="M310 -518Q246 -518 177 -511T48 -493V-338Q164 -323 256 -303T419 -246T547 -151T648 0H515L157 934Q149 956 134 968T97 987L19 1011V1138L643 1137V1008L488 977L740 250L971 977L822 1009V1138H1271V1011L1193
987Q1169 980 1156 969T1134 933L799 -26Q712 -275 599 -396T310 -518Z" />
<glyph unicode="z" glyph-name="z" horiz-adv-x="1182" d="M1063 0H120L67 116L721 1007H558Q518 1007 476 1005T402 997Q375 993 361 982T339 942L292 747H145Q132 844 130 947T134 1138H1040L1090 1023L446 133H606Q656 133 706 135T798 145Q823 149 839 160T862
194L929 407L1071 390Q1081 294 1078 194T1063 0Z" />
<glyph unicode="{" glyph-name="braceleft" horiz-adv-x="906" d="M874 -278L855 -418Q804 -418 738 -414T612 -405Q419 -389 329 -295T239 -45Q239 92 258 220T278 455Q278 503 270 542T236 612T158 661T22 689V879Q107 886 158 906T235 955T270 1025T278 1113Q278
1220 259 1348T239 1613Q239 1769 329 1862T612 1973Q672 1978 738 1982T855 1986L874 1846L743 1817Q629 1791 579 1734T529 1559Q529 1508 532 1448T540 1326T548 1203T552 1086Q552 948 466 882T243 789Q380 763 466 691T552 482Q552 427 549 365T541 241T533
119T529 8Q529 -108 579 -166T743 -249L874 -278Z" />
<glyph unicode="|" glyph-name="bar" horiz-adv-x="645" d="M204 -315V1902H442V-315H204Z" />
<glyph unicode="}" glyph-name="braceright" horiz-adv-x="906" d="M294 -407Q234 -412 169 -415T52 -418L32 -278L163 -251Q277 -226 327 -169T378 6Q378 58 374 118T365 241T356 365T352 482Q352 619 438 689T661 786Q524 811 438 879T352 1086Q352 1141 356
1203T365 1327T374 1449T378 1562Q378 1678 328 1736T163 1819L32 1846L52 1986Q103 1986 168 1983T294 1974Q488 1958 578 1865T668 1614Q668 1477 648 1349T628 1113Q628 1065 635 1025T669 956T747 906T884 879V689Q798 681 747 662T670 612T636 543T628 455Q628
348 648 220T668 -47Q668 -204 578 -297T294 -407Z" />
<glyph unicode="~" glyph-name="asciitilde" horiz-adv-x="1306" d="M1171 704Q1118 582 1027 509T834 436Q775 436 720 457T614 504T513 550T418 572Q358 572 306 536T213 450L122 522Q175 644 266 717T459 790Q518 790 573 769T679 722T780 676T875 654Q935
654 987 690T1081 776L1171 704Z" />
<glyph unicode="&#xa0;" glyph-name="uni00A0" horiz-adv-x="542" />
<glyph unicode="&#xa1;" glyph-name="exclamdown" horiz-adv-x="661" d="M510 1004Q510 930 461 886T331 841Q249 841 200 885T150 1004Q150 1079 199 1124T331 1169Q412 1169 461 1124T510 1004ZM504 -561H158V-365L238 658H424L504 -365V-561Z" />
<glyph unicode="&#xa2;" glyph-name="cent" horiz-adv-x="1181" d="M1078 250Q1035 154 931 91T691 12V-209H511V16Q407 34 329 85T199 211T121 384T95 590Q95 724 132 832T235 1016T396 1139T605 1198V1413H785V1197Q871 1187 946 1164T1073 1112Q1079 1019 1073
926T1049 745H889L844 935Q837 967 828 986T802 1019Q782 1036 749 1047T676 1058Q569 1058 501 953T433 643Q433 430 507 317T724 203Q823 203 890 240T1000 322L1078 250Z" />
<glyph unicode="&#xa3;" glyph-name="sterling" horiz-adv-x="1376" d="M1284 266Q1284 186 1261 129T1197 37T1102 -15T987 -32Q908 -32 838 -9T702 43T571 95T437 119Q377 68 305 34T162 -17L80 142Q124 167 165 199T239 275T290 380T310 523V623H115V766H310V846Q310
974 343 1078T439 1256T597 1369T812 1409Q911 1409 999 1387T1157 1333Q1163 1243 1157 1152T1136 967H961L917 1167Q913 1186 904 1205T873 1241Q852 1256 826 1264T770 1273Q745 1273 720 1261T675 1216T641 1126T628 979V766H938V623H628V580Q628 449 599 363T536
230Q619 230 702 209T858 187Q933 187 972 218T1029 309Q1039 344 1047 392T1059 485H1254Q1264 442 1274 384T1284 266Z" />
<glyph unicode="&#xa4;" glyph-name="currency" horiz-adv-x="1407" d="M702 535Q813 535 868 604T924 769Q924 822 905 866T855 943T783 993T697 1011Q644 1011 604 991T536 938T494 860T480 768Q480 672 546 604T702 535ZM700 317Q634 317 573 334T460 382L234
156L108 281L331 503Q294 557 273 623T251 762Q251 838 273 908T336 1037L108 1262L232 1389L461 1159Q512 1193 573 1211T700 1230Q767 1230 829 1213T945 1163L1174 1391L1300 1265L1075 1043Q1114 989 1135 923T1157 784Q1157 708 1134 638T1069 510L1296 285L1170
160L942 388Q890 354 828 336T700 317Z" />
<glyph unicode="&#xa5;" glyph-name="yen" horiz-adv-x="1518" d="M1154 117V0H399V117L580 152Q602 156 614 168T626 204V315H247V448H626V594H247V725H569L248 1199Q238 1215 226 1223T194 1236L78 1263V1379H736V1263L581 1229L845 791L1095 1234L927 1267V1382H1433V1267L1324
1242Q1305 1238 1292 1230T1269 1204L978 725H1304V594H926V448H1304V315H926V204Q926 181 938 169T973 152L1154 117Z" />
<glyph unicode="&#xa6;" glyph-name="brokenbar" horiz-adv-x="642" d="M202 950V1902H440V950H202ZM202 -315V637H440V-315H202Z" />
<glyph unicode="&#xa7;" glyph-name="section" horiz-adv-x="1274" d="M709 486Q759 464 803 443T885 401Q913 438 931 484T950 571Q950 667 856 731T569 883Q519 907 475 929T393 974Q364 937 345 890T325 799Q325 703 419 638T709 486ZM625 -286Q545 -286 471
-274T336 -245T228 -209T155 -174Q149 -93 154 -10T172 155H352L387 -20Q390 -36 399 -54T431 -90Q468 -118 526 -134T648 -151Q750 -151 805 -109T861 1Q861 44 837 76T765 139T643 203T470 280Q304 354 203 447T101 689Q101 812 161 902T302 1034Q235 1086 201
1149T166 1300Q166 1368 193 1432T279 1546T431 1626T655 1656Q727 1656 795 1647T920 1623T1022 1591T1092 1559Q1097 1477 1093 1394T1074 1229H895L860 1405Q856 1421 847 1439T815 1473Q785 1495 735 1508T631 1522Q534 1522 484 1480T434 1372Q434 1328 457
1295T527 1231T644 1167T808 1089Q971 1014 1073 923T1175 682Q1175 563 1118 474T983 342Q1057 289 1093 227T1130 74Q1130 4 1101 -61T1011 -176T854 -256T625 -286Z" />
<glyph unicode="&#xa8;" glyph-name="dieresis" horiz-adv-x="1000" d="M889 1476Q889 1405 847 1362T735 1318Q665 1318 623 1361T580 1476Q580 1548 622 1591T735 1634Q804 1634 846 1591T889 1476ZM420 1476Q420 1405 377 1362T265 1318Q195 1318 153 1361T110
1476Q110 1548 152 1591T265 1634Q334 1634 377 1591T420 1476Z" />
<glyph unicode="&#xa9;" glyph-name="copyright" horiz-adv-x="2003" d="M94 782Q94 978 163 1145T352 1433T640 1622T1003 1691Q1199 1691 1365 1623T1652 1434T1841 1146T1909 783Q1909 587 1841 420T1652 131T1365 -58T1002 -127Q807 -127 640 -59T352 131T163
419T94 782ZM243 783Q243 611 299 467T456 219T696 58T1002 0Q1168 0 1308 58T1549 219T1705 466T1761 783Q1761 954 1705 1098T1549 1346T1309 1508T1003 1566Q837 1566 697 1508T456 1347T300 1099T243 783ZM998 268Q892 268 808 304T665 405T576 564T545 772Q545
899 582 997T684 1162T840 1262T1037 1296Q1135 1296 1224 1271T1365 1210Q1372 1134 1369 1052T1349 888H1211L1170 1049Q1166 1068 1158 1083T1133 1113Q1113 1129 1083 1140T1016 1152Q924 1152 869 1069T814 815Q814 633 881 540T1074 446Q1142 446 1208 471T1314
537L1380 477Q1341 387 1241 328T998 268Z" />
<glyph unicode="&#xaa;" glyph-name="ordfeminine" horiz-adv-x="1106" d="M487 830Q524 830 559 840T623 869V1054L529 1049Q449 1045 420 1010T390 925Q390 877 412 854T487 830ZM829 681Q762 681 714 703T640 782Q594 732 524 705T369 678Q248 678 176 736T104
891Q104 952 133 998T211 1076T324 1125T458 1147L623 1156V1240Q623 1332 578 1367T447 1402Q375 1402 312 1380T195 1313L131 1368Q170 1467 270 1524T530 1581Q720 1581 806 1496T893 1244V869Q893 845 904 835T935 823L1015 813V710Q984 702 930 692T829 681Z"
/>
<glyph unicode="&#xab;" glyph-name="guillemotleft" horiz-adv-x="1471" d="M1288 83L705 534V688L1288 1147L1380 1036L1038 611L1382 193L1288 83ZM666 83L83 534V688L666 1147L758 1036L416 611L760 193L666 83Z" />
<glyph unicode="&#xac;" glyph-name="logicalnot" horiz-adv-x="1276" d="M140 512V714H1126V102H909V512H140Z" />
<glyph unicode="&#xad;" glyph-name="uni00AD" horiz-adv-x="1072" d="M140 494V699H933V494H140Z" />
<glyph unicode="&#xae;" glyph-name="registered" horiz-adv-x="1746" d="M99 1091Q99 1258 158 1400T320 1645T565 1806T874 1865Q1040 1865 1182 1807T1426 1646T1587 1401T1646 1091Q1646 925 1588 782T1427 536T1182 375T874 316Q708 316 566 374T320 536T158
782T99 1091ZM233 1091Q233 947 280 826T412 617T615 481T874 432Q1014 432 1132 481T1334 617T1465 826T1512 1092Q1512 1236 1465 1357T1334 1566T1132 1701T874 1750Q734 1750 616 1701T413 1566T281 1357T233 1091ZM881 1109Q936 1109 973 1149T1010 1269Q1010
1350 974 1385T859 1420Q840 1420 819 1418T775 1411V1112Q806 1110 831 1110T881 1109ZM872 756V674H489V756L547 772Q562 776 569 786T577 812V1371Q577 1387 569 1397T546 1411L489 1425V1517H676Q733 1516 784 1518T885 1521Q1061 1521 1141 1464T1221 1281Q1221
1200 1180 1136T1035 1047Q1072 1034 1094 1011T1132 952L1189 828Q1202 799 1221 788T1289 764V674H1084Q1054 674 1035 700T1000 770L947 907Q936 939 923 964T895 1007H775V809Q775 793 783 783T807 769L872 756Z" />
<glyph unicode="&#xaf;" glyph-name="overscore" horiz-adv-x="1000" d="M143 1357V1543H856V1357H143Z" />
<glyph unicode="&#xb0;" glyph-name="degree" horiz-adv-x="923" d="M460 923Q384 923 316 952T198 1032T117 1150T87 1293Q87 1372 117 1439T197 1556T316 1634T460 1662Q541 1662 610 1633T729 1553T807 1436T835 1293Q835 1214 806 1146T726 1029T607 951T460
923ZM461 1092Q545 1092 596 1149T648 1293Q648 1374 593 1434T458 1494Q377 1494 324 1436T271 1293Q271 1213 327 1153T461 1092Z" />
<glyph unicode="&#xb1;" glyph-name="plusminus" horiz-adv-x="1180" d="M696 315H485V499L491 655L335 649H125V840H335L491 833L485 990V1186H696V990L689 833L845 840H1056V649H845L689 655L696 499V315ZM1046 0H135V190H1046V0Z" />
<glyph unicode="&#xb2;" glyph-name="twosuperior" horiz-adv-x="1032" d="M885 625H143L109 732Q334 892 462 1021T591 1281Q591 1359 545 1408T411 1458Q345 1458 287 1428T183 1352L123 1410Q136 1450 165 1488T240 1557T347 1607T487 1626Q575 1626 643 1601T756
1534T825 1436T849 1318Q849 1232 808 1154T700 1009T551 885T385 782H564Q663 782 702 799T753 842L805 955L930 940Q926 871 915 783T885 625Z" />
<glyph unicode="&#xb3;" glyph-name="threesuperior" horiz-adv-x="970" d="M91 742L151 839Q198 808 268 786T411 764Q504 764 561 803T619 917Q619 988 564 1021T403 1054H300L301 1172H327Q451 1172 510 1216T570 1329Q570 1399 518 1431T394 1463Q338 1463
284 1444T180 1385L124 1450Q145 1496 182 1529T265 1583T364 1615T469 1625Q541 1625 604 1608T714 1558T786 1479T813 1377Q813 1329 793 1289T741 1219T666 1170T581 1143Q638 1143 692 1128T788 1083T855 1008T880 903Q880 843 852 789T770 696T639 633T463
609Q343 609 247 645T91 742Z" />
<glyph unicode="&#xb4;" glyph-name="acute" horiz-adv-x="1000" d="M402 1254L320 1350L705 1796L885 1631Q850 1586 797 1537T680 1439T545 1343T402 1254Z" />
<glyph unicode="&#xb5;" glyph-name="uni00B5" horiz-adv-x="1497" d="M481 -448L244 -536L200 -496Q201 -393 202 -281T205 -60T206 151T207 335Q207 441 206 536T202 725T197 918T192 1130L446 1167L488 1127L480 535Q481 453 502 395T555 301T627 249T705 233Q771
233 840 281T947 433L940 1130L1183 1167L1225 1127L1199 358Q1195 251 1226 214T1305 176H1431V62Q1383 26 1316 0T1191 -26Q1104 -26 1044 40T967 239Q924 111 839 43T658 -26Q598 -26 534 7T428 118L481 -448Z" />
<glyph unicode="&#xb6;" glyph-name="paragraph" horiz-adv-x="1541" d="M291 -380L233 -245Q321 -199 377 -150T465 -38T509 111T521 313L522 672Q439 680 358 712T212 801T109 945T69 1148Q69 1243 100 1324T194 1463T355 1555T587 1589Q713 1589 869 1576T1210
1562H1432V1427L1286 1396Q1263 1391 1250 1377T1237 1340V216Q1237 194 1249 179T1284 160L1442 130V0H989V1407Q944 1410 882 1413T767 1417V218Q767 80 743 -18T663 -184T516 -298T291 -380Z" />
<glyph unicode="&#xb7;" glyph-name="middot" horiz-adv-x="639" d="M503 667Q503 590 453 543T320 496Q237 496 187 543T137 667Q137 744 187 791T320 838Q403 838 453 791T503 667Z" />
<glyph unicode="&#xb8;" glyph-name="cedilla" horiz-adv-x="1000" d="M449 51H558L517 -88Q524 -88 533 -88T552 -90Q634 -94 686 -142T738 -271Q738 -328 710 -375T631 -455T510 -506T356 -525Q340 -525 327 -525T300 -523L283 -417Q384 -407 436 -370T489 -281Q489
-235 454 -213T366 -188L449 51Z" />
<glyph unicode="&#xb9;" glyph-name="onesuperior" horiz-adv-x="954" d="M638 1599V830Q638 805 647 795T681 780L877 751V625H140V751L358 780Q383 784 393 795T404 831V1367Q346 1345 278 1333T143 1317L116 1437Q207 1461 305 1508T489 1625L638 1599Z" />
<glyph unicode="&#xba;" glyph-name="ordmasculine" horiz-adv-x="1109" d="M97 1114Q97 1241 133 1330T232 1474T381 1553T568 1578Q778 1578 895 1470T1012 1133Q1012 1005 976 916T877 773T728 694T541 670Q332 670 215 778T97 1114ZM711 1113Q711 1305 677
1382T550 1460Q474 1460 436 1390T397 1134Q397 944 431 866T558 787Q635 787 673 858T711 1113Z" />
<glyph unicode="&#xbb;" glyph-name="guillemotright" horiz-adv-x="1459" d="M184 83L90 193L434 611L92 1036L184 1147L767 688V534L184 83ZM793 83L699 193L1043 611L701 1036L793 1147L1376 688V534L793 83Z" />
<glyph unicode="&#xbc;" glyph-name="onequarter" horiz-adv-x="2436" d="M877 1599V830Q877 805 886 795T920 780L1116 751V625H379V751L597 780Q622 784 632 795T643 831V1367Q585 1345 517 1333T382 1317L355 1437Q446 1461 544 1508T728 1625L877 1599ZM824
0H607L1570 1562H1786L824 0ZM2370 186H2200V0H1979L1978 186H1547L1472 284Q1588 459 1687 637T1867 992H2081L2116 947Q2043 807 1983 705T1871 529T1773 403T1680 311L1983 329L2023 572H2200V342L2370 352V186Z" />
<glyph unicode="&#xbd;" glyph-name="onehalf" horiz-adv-x="2414" d="M872 1599V830Q872 805 881 795T915 780L1111 751V625H374V751L592 780Q617 784 627 795T638 831V1367Q580 1345 512 1333T377 1317L350 1437Q441 1461 539 1508T723 1625L872 1599ZM818 0H601L1564
1562H1780L818 0ZM2298 0H1556L1522 107Q1747 267 1875 396T2004 656Q2004 734 1958 783T1824 833Q1758 833 1700 803T1596 727L1536 785Q1549 825 1578 863T1653 932T1760 982T1900 1001Q1988 1001 2056 976T2169 909T2238 811T2262 693Q2262 607 2221 529T2113
384T1964 260T1798 157H1977Q2076 157 2115 174T2166 217L2218 330L2343 315Q2339 246 2328 158T2298 0Z" />
<glyph unicode="&#xbe;" glyph-name="threequarters" horiz-adv-x="2422" d="M337 742L397 839Q444 808 514 786T657 764Q750 764 807 803T865 917Q865 988 810 1021T649 1054H546L547 1172H573Q697 1172 756 1216T816 1329Q816 1399 764 1431T640 1463Q584 1463
530 1444T426 1385L370 1450Q391 1496 428 1529T511 1583T610 1615T715 1625Q787 1625 850 1608T960 1558T1032 1479T1059 1377Q1059 1329 1039 1289T987 1219T912 1170T827 1143Q884 1143 938 1128T1034 1083T1101 1008T1126 903Q1126 843 1098 789T1016 696T885
633T709 609Q589 609 493 645T337 742ZM810 0H593L1556 1562H1772L810 0ZM2357 186H2187V0H1966L1965 186H1534L1459 284Q1575 459 1674 637T1854 992H2068L2103 947Q2030 807 1970 705T1858 529T1760 403T1667 311L1970 329L2010 572H2187V342L2357 352V186Z"
/>
<glyph unicode="&#xbf;" glyph-name="questiondown" horiz-adv-x="1113" d="M444 1005Q444 1078 493 1123T624 1169Q705 1169 755 1124T805 1005Q805 930 755 886T624 841Q543 841 494 886T444 1005ZM540 659H718Q743 608 768 540T794 413Q794 325 739 267T599
133Q491 32 439 -48T386 -227Q386 -321 436 -384T572 -447Q623 -447 663 -426T725 -381Q744 -359 752 -337T765 -281L791 -56H977Q1006 -145 1025 -247T1049 -446Q971 -511 852 -556T594 -602Q473 -602 374 -566T206 -468T99 -322T61 -144Q61 -66 86 -2T155 117T259
223T389 325Q429 354 452 373T489 409T508 448T519 504L540 659Z" />
<glyph unicode="&#xc0;" glyph-name="Agrave" horiz-adv-x="1587" d="M943 618L718 1314L501 618H943ZM552 130V0H-11V130L121 162Q142 167 155 179T175 211L638 1567H946L1417 211Q1424 190 1438 179T1472 162L1594 130V0H896V130L1090 163L993 464H453L359 163L552
130ZM561 2123L1052 1777L988 1661Q917 1686 837 1716T679 1780T533 1850T414 1925L561 2123Z" />
<glyph unicode="&#xc1;" glyph-name="Aacute" horiz-adv-x="1587" d="M943 618L718 1314L501 618H943ZM552 130V0H-11V130L121 162Q142 167 155 179T175 211L638 1567H946L1417 211Q1424 190 1438 179T1472 162L1594 130V0H896V130L1090 163L993 464H453L359 163L552
130ZM1196 1911Q1145 1875 1073 1841T921 1775T758 1717T602 1667L545 1779L1058 2113L1196 1911Z" />
<glyph unicode="&#xc2;" glyph-name="Acircumflex" horiz-adv-x="1587" d="M943 618L718 1314L501 618H943ZM552 130V0H-11V130L121 162Q142 167 155 179T175 211L638 1567H946L1417 211Q1424 190 1438 179T1472 162L1594 130V0H896V130L1090 163L993 464H453L359
163L552 130ZM457 1658L369 1757L679 2077L883 2087L1218 1765L1125 1660L779 1865L457 1658Z" />
<glyph unicode="&#xc3;" glyph-name="Atilde" horiz-adv-x="1587" d="M943 618L718 1314L501 618H943ZM552 130V0H-11V130L121 162Q142 167 155 179T175 211L638 1567H946L1417 211Q1424 190 1438 179T1472 162L1594 130V0H896V130L1090 163L993 464H453L359 163L552
130ZM1247 1971Q1232 1918 1205 1867T1140 1777T1054 1714T948 1690Q890 1690 843 1711T755 1758T677 1804T602 1826Q551 1826 510 1788T436 1701L341 1755Q356 1808 383 1859T448 1949T534 2011T640 2035Q697 2035 744 2014T832 1968T910 1921T986 1900Q1036 1900
1077 1937T1152 2024L1247 1971Z" />
<glyph unicode="&#xc4;" glyph-name="Adieresis" horiz-adv-x="1587" d="M943 618L718 1314L501 618H943ZM552 130V0H-11V130L121 162Q142 167 155 179T175 211L638 1567H946L1417 211Q1424 190 1438 179T1472 162L1594 130V0H896V130L1090 163L993 464H453L359
163L552 130ZM1209 1851Q1209 1779 1167 1735T1055 1691Q985 1691 943 1735T900 1851Q900 1922 942 1965T1055 2009Q1124 2009 1166 1966T1209 1851ZM687 1851Q687 1779 645 1735T533 1691Q462 1691 420 1735T377 1851Q377 1922 419 1965T533 2009Q602 2009 644
1966T687 1851Z" />
<glyph unicode="&#xc5;" glyph-name="Aring" horiz-adv-x="1587" d="M943 618L718 1314L501 618H943ZM552 130V0H-11V130L121 162Q142 167 155 179T175 211L638 1567H946L1417 211Q1424 190 1438 179T1472 162L1594 130V0H896V130L1090 163L993 464H453L359 163L552
130ZM1098 1790Q1098 1731 1074 1683T1008 1601T910 1549T790 1531Q645 1531 567 1602T489 1795Q490 1853 515 1900T583 1981T683 2032T804 2050Q951 2050 1024 1976T1098 1790ZM665 1795Q665 1740 697 1697T795 1654Q857 1654 889 1687T923 1785Q923 1843 893
1884T796 1925Q733 1925 699 1892T665 1795Z" />
<glyph unicode="&#xc6;" glyph-name="AE" horiz-adv-x="2125" d="M900 1407L606 711H1004V1407H900ZM571 130V0H-15V130L131 162Q150 166 163 178T185 210L694 1386L438 1428V1562H1955Q1967 1461 1967 1359T1958 1149H1803L1751 1336Q1744 1361 1730 1375T1694
1399Q1665 1409 1616 1415T1513 1421H1317V868L1766 884V697L1317 709V149H1560Q1614 149 1670 155T1754 172Q1776 181 1787 195T1808 235L1891 473L2046 449Q2045 336 2036 226T2007 0H799V130L956 159Q980 163 992 178T1004 217V557H540L372 159L571 130Z" />
<glyph unicode="&#xc7;" glyph-name="Ccedilla" horiz-adv-x="1452" d="M819 -33Q458 -33 281 171T104 749Q104 962 159 1121T313 1383T555 1538T871 1590Q983 1590 1109 1570T1342 1509Q1349 1414 1344 1305T1320 1080H1128L1073 1330Q1069 1350 1058 1370T1021
1406Q992 1425 941 1438T834 1452Q665 1452 569 1297T472 788Q472 466 560 287T841 108Q896 108 949 123T1037 168Q1052 180 1063 197T1084 243L1154 466L1343 450Q1347 361 1343 259T1324 51Q1274 33 1213 18T1085 -9T951 -26T819 -33ZM749 51H858L817 -88Q824
-88 833 -88T852 -90Q934 -94 986 -142T1038 -271Q1038 -328 1010 -375T931 -455T810 -506T656 -525Q640 -525 627 -525T600 -523L583 -417Q684 -407 736 -370T789 -281Q789 -235 754 -213T666 -188L749 51Z" />
<glyph unicode="&#xc8;" glyph-name="Egrave" horiz-adv-x="1436" d="M1270 1149H1115L1063 1336Q1056 1361 1042 1375T1005 1399Q977 1409 928 1415T825 1421H629V875L1078 892V704L629 715V149H872Q926 149 982 155T1066 172Q1088 181 1099 195T1120 235L1203
473L1357 449Q1357 336 1348 226T1319 0H96V130L253 159Q277 163 289 178T301 217V1337Q301 1361 289 1376T253 1396L96 1427V1562H1267Q1279 1461 1279 1359T1270 1149ZM508 2123L999 1777L935 1661Q864 1686 784 1716T626 1780T480 1850T361 1925L508 2123Z"
/>
<glyph unicode="&#xc9;" glyph-name="Eacute" horiz-adv-x="1436" d="M1270 1149H1115L1063 1336Q1056 1361 1042 1375T1005 1399Q977 1409 928 1415T825 1421H629V875L1078 892V704L629 715V149H872Q926 149 982 155T1066 172Q1088 181 1099 195T1120 235L1203
473L1357 449Q1357 336 1348 226T1319 0H96V130L253 159Q277 163 289 178T301 217V1337Q301 1361 289 1376T253 1396L96 1427V1562H1267Q1279 1461 1279 1359T1270 1149ZM1143 1911Q1092 1875 1020 1841T868 1775T705 1717T549 1667L492 1779L1005 2113L1143 1911Z"
/>
<glyph unicode="&#xca;" glyph-name="Ecircumflex" horiz-adv-x="1436" d="M1270 1149H1115L1063 1336Q1056 1361 1042 1375T1005 1399Q977 1409 928 1415T825 1421H629V875L1078 892V704L629 715V149H872Q926 149 982 155T1066 172Q1088 181 1099 195T1120 235L1203
473L1357 449Q1357 336 1348 226T1319 0H96V130L253 159Q277 163 289 178T301 217V1337Q301 1361 289 1376T253 1396L96 1427V1562H1267Q1279 1461 1279 1359T1270 1149ZM404 1658L316 1757L626 2077L830 2087L1165 1765L1072 1660L726 1865L404 1658Z" />
<glyph unicode="&#xcb;" glyph-name="Edieresis" horiz-adv-x="1436" d="M1270 1149H1115L1063 1336Q1056 1361 1042 1375T1005 1399Q977 1409 928 1415T825 1421H629V875L1078 892V704L629 715V149H872Q926 149 982 155T1066 172Q1088 181 1099 195T1120 235L1203
473L1357 449Q1357 336 1348 226T1319 0H96V130L253 159Q277 163 289 178T301 217V1337Q301 1361 289 1376T253 1396L96 1427V1562H1267Q1279 1461 1279 1359T1270 1149ZM1156 1851Q1156 1779 1114 1735T1002 1691Q932 1691 890 1735T847 1851Q847 1922 889 1965T1002
2009Q1071 2009 1113 1966T1156 1851ZM634 1851Q634 1779 592 1735T480 1691Q409 1691 367 1735T324 1851Q324 1922 366 1965T480 2009Q549 2009 591 1966T634 1851Z" />
<glyph unicode="&#xcc;" glyph-name="Igrave" horiz-adv-x="930" d="M834 1562V1427L677 1396Q653 1391 641 1377T629 1337V218Q629 194 640 179T677 160L834 130V0H96V130L253 159Q277 163 289 178T301 217V1337Q301 1361 289 1376T253 1396L96 1427V1562H834ZM232
2123L723 1777L659 1661Q588 1686 508 1716T350 1780T204 1850T85 1925L232 2123Z" />
<glyph unicode="&#xcd;" glyph-name="Iacute" horiz-adv-x="930" d="M834 1562V1427L677 1396Q653 1391 641 1377T629 1337V218Q629 194 640 179T677 160L834 130V0H96V130L253 159Q277 163 289 178T301 217V1337Q301 1361 289 1376T253 1396L96 1427V1562H834ZM867
1911Q816 1875 744 1841T592 1775T429 1717T273 1667L216 1779L729 2113L867 1911Z" />
<glyph unicode="&#xce;" glyph-name="Icircumflex" horiz-adv-x="930" d="M834 1562V1427L677 1396Q653 1391 641 1377T629 1337V218Q629 194 640 179T677 160L834 130V0H96V130L253 159Q277 163 289 178T301 217V1337Q301 1361 289 1376T253 1396L96 1427V1562H834ZM128
1658L40 1757L350 2077L554 2087L889 1765L796 1660L450 1865L128 1658Z" />
<glyph unicode="&#xcf;" glyph-name="Idieresis" horiz-adv-x="930" d="M834 1562V1427L677 1396Q653 1391 641 1377T629 1337V218Q629 194 640 179T677 160L834 130V0H96V130L253 159Q277 163 289 178T301 217V1337Q301 1361 289 1376T253 1396L96 1427V1562H834ZM880
1851Q880 1779 838 1735T726 1691Q656 1691 614 1735T571 1851Q571 1922 613 1965T726 2009Q795 2009 837 1966T880 1851ZM358 1851Q358 1779 316 1735T204 1691Q133 1691 91 1735T48 1851Q48 1922 90 1965T204 2009Q273 2009 315 1966T358 1851Z" />
<glyph unicode="&#xd0;" glyph-name="Eth" horiz-adv-x="1684" d="M1580 831Q1580 624 1526 464T1372 196T1125 34T796 -16Q762 -15 719 -13T630 -7T542 -2T465 0H97V130L257 160Q279 163 290 178T302 213V722H108V875H302V1344Q302 1363 291 1376T261 1394L97
1427V1562H461Q561 1562 647 1568T821 1575Q1203 1575 1391 1392T1580 831ZM806 126Q905 128 983 163T1114 274T1195 476T1224 780Q1224 1099 1120 1269T787 1439Q732 1439 690 1432T630 1423V875H916V722H630V146Q661 136 712 131T806 126Z" />
<glyph unicode="&#xd1;" glyph-name="Ntilde" horiz-adv-x="1798" d="M719 130V0H96V130L253 158Q277 163 289 177T301 217V1337Q301 1361 289 1376T253 1396L96 1427V1562H635L1338 446V1337Q1338 1361 1326 1376T1290 1396L1123 1427V1562H1719V1427L1575 1396Q1551
1391 1539 1377T1527 1337V0H1236L489 1195V217Q489 193 501 178T537 159L719 130ZM1358 1971Q1343 1918 1316 1867T1251 1777T1165 1714T1059 1690Q1001 1690 954 1711T866 1758T788 1804T713 1826Q662 1826 621 1788T547 1701L452 1755Q467 1808 494 1859T559
1949T645 2011T751 2035Q808 2035 855 2014T943 1968T1021 1921T1097 1900Q1147 1900 1188 1937T1263 2024L1358 1971Z" />
<glyph unicode="&#xd2;" glyph-name="Ograve" horiz-adv-x="1600" d="M774 -31Q603 -31 477 23T268 179T145 426T104 753Q104 952 152 1109T292 1372T519 1535T826 1592Q997 1592 1123 1538T1332 1382T1455 1135T1496 808Q1496 610 1448 453T1309 189T1082 26T774
-31ZM804 1448Q638 1448 551 1288T464 773Q464 430 546 271T795 112Q959 112 1047 275T1135 792Q1135 1134 1053 1291T804 1448ZM567 2123L1058 1777L994 1661Q923 1686 843 1716T685 1780T539 1850T420 1925L567 2123Z" />
<glyph unicode="&#xd3;" glyph-name="Oacute" horiz-adv-x="1600" d="M774 -31Q603 -31 477 23T268 179T145 426T104 753Q104 952 152 1109T292 1372T519 1535T826 1592Q997 1592 1123 1538T1332 1382T1455 1135T1496 808Q1496 610 1448 453T1309 189T1082 26T774
-31ZM804 1448Q638 1448 551 1288T464 773Q464 430 546 271T795 112Q959 112 1047 275T1135 792Q1135 1134 1053 1291T804 1448ZM1202 1911Q1151 1875 1079 1841T927 1775T764 1717T608 1667L551 1779L1064 2113L1202 1911Z" />
<glyph unicode="&#xd4;" glyph-name="Ocircumflex" horiz-adv-x="1600" d="M774 -31Q603 -31 477 23T268 179T145 426T104 753Q104 952 152 1109T292 1372T519 1535T826 1592Q997 1592 1123 1538T1332 1382T1455 1135T1496 808Q1496 610 1448 453T1309 189T1082
26T774 -31ZM804 1448Q638 1448 551 1288T464 773Q464 430 546 271T795 112Q959 112 1047 275T1135 792Q1135 1134 1053 1291T804 1448ZM463 1658L375 1757L685 2077L889 2087L1224 1765L1131 1660L785 1865L463 1658Z" />
<glyph unicode="&#xd5;" glyph-name="Otilde" horiz-adv-x="1600" d="M774 -31Q603 -31 477 23T268 179T145 426T104 753Q104 952 152 1109T292 1372T519 1535T826 1592Q997 1592 1123 1538T1332 1382T1455 1135T1496 808Q1496 610 1448 453T1309 189T1082 26T774
-31ZM804 1448Q638 1448 551 1288T464 773Q464 430 546 271T795 112Q959 112 1047 275T1135 792Q1135 1134 1053 1291T804 1448ZM1253 1971Q1238 1918 1211 1867T1146 1777T1060 1714T954 1690Q896 1690 849 1711T761 1758T683 1804T608 1826Q557 1826 516 1788T442
1701L347 1755Q362 1808 389 1859T454 1949T540 2011T646 2035Q703 2035 750 2014T838 1968T916 1921T992 1900Q1042 1900 1083 1937T1158 2024L1253 1971Z" />
<glyph unicode="&#xd6;" glyph-name="Odieresis" horiz-adv-x="1600" d="M774 -31Q603 -31 477 23T268 179T145 426T104 753Q104 952 152 1109T292 1372T519 1535T826 1592Q997 1592 1123 1538T1332 1382T1455 1135T1496 808Q1496 610 1448 453T1309 189T1082
26T774 -31ZM804 1448Q638 1448 551 1288T464 773Q464 430 546 271T795 112Q959 112 1047 275T1135 792Q1135 1134 1053 1291T804 1448ZM1215 1851Q1215 1779 1173 1735T1061 1691Q991 1691 949 1735T906 1851Q906 1922 948 1965T1061 2009Q1130 2009 1172 1966T1215
1851ZM693 1851Q693 1779 651 1735T539 1691Q468 1691 426 1735T383 1851Q383 1922 425 1965T539 2009Q608 2009 650 1966T693 1851Z" />
<glyph unicode="&#xd7;" glyph-name="multiply" horiz-adv-x="1111" d="M266 168L114 326L415 617L114 909L267 1066L555 753L844 1066L996 909L695 617L996 326L845 168L555 481L266 168Z" />
<glyph unicode="&#xd8;" glyph-name="Oslash" horiz-adv-x="1600" d="M439 773Q439 619 455 503T506 307L1004 1375Q964 1415 913 1434T798 1453Q623 1453 531 1293T439 773ZM788 108Q963 108 1055 269T1147 792Q1147 939 1132 1051T1086 1243L589 181Q628 144
678 126T788 108ZM767 -31Q698 -31 636 -22T519 5L408 -217L262 -142L371 77Q233 173 166 346T98 753Q98 952 146 1109T286 1372T512 1535T819 1592Q891 1592 956 1582T1077 1553L1172 1745L1317 1669L1222 1479Q1357 1383 1423 1211T1489 808Q1489 610 1441 453T1302
189T1075 26T767 -31Z" />
<glyph unicode="&#xd9;" glyph-name="Ugrave" horiz-adv-x="1712" d="M1045 1562H1628V1427L1514 1398Q1491 1392 1479 1377T1467 1338V577Q1467 415 1425 301T1305 114T1115 9T863 -24Q547 -24 394 124T241 594V1338Q241 1362 229 1376T195 1398L90 1427V1562H791V1427L626
1393Q603 1389 591 1374T578 1335V565Q578 340 659 226T916 112Q1107 112 1184 234T1261 560V1337Q1261 1362 1249 1377T1213 1396L1045 1427V1562ZM648 2123L1139 1777L1075 1661Q1004 1686 924 1716T766 1780T620 1850T501 1925L648 2123Z" />
<glyph unicode="&#xda;" glyph-name="Uacute" horiz-adv-x="1712" d="M1045 1562H1628V1427L1514 1398Q1491 1392 1479 1377T1467 1338V577Q1467 415 1425 301T1305 114T1115 9T863 -24Q547 -24 394 124T241 594V1338Q241 1362 229 1376T195 1398L90 1427V1562H791V1427L626
1393Q603 1389 591 1374T578 1335V565Q578 340 659 226T916 112Q1107 112 1184 234T1261 560V1337Q1261 1362 1249 1377T1213 1396L1045 1427V1562ZM1283 1911Q1232 1875 1160 1841T1008 1775T845 1717T689 1667L632 1779L1145 2113L1283 1911Z" />
<glyph unicode="&#xdb;" glyph-name="Ucircumflex" horiz-adv-x="1712" d="M1045 1562H1628V1427L1514 1398Q1491 1392 1479 1377T1467 1338V577Q1467 415 1425 301T1305 114T1115 9T863 -24Q547 -24 394 124T241 594V1338Q241 1362 229 1376T195 1398L90 1427V1562H791V1427L626
1393Q603 1389 591 1374T578 1335V565Q578 340 659 226T916 112Q1107 112 1184 234T1261 560V1337Q1261 1362 1249 1377T1213 1396L1045 1427V1562ZM544 1658L456 1757L766 2077L970 2087L1305 1765L1212 1660L866 1865L544 1658Z" />
<glyph unicode="&#xdc;" glyph-name="Udieresis" horiz-adv-x="1712" d="M1045 1562H1628V1427L1514 1398Q1491 1392 1479 1377T1467 1338V577Q1467 415 1425 301T1305 114T1115 9T863 -24Q547 -24 394 124T241 594V1338Q241 1362 229 1376T195 1398L90 1427V1562H791V1427L626
1393Q603 1389 591 1374T578 1335V565Q578 340 659 226T916 112Q1107 112 1184 234T1261 560V1337Q1261 1362 1249 1377T1213 1396L1045 1427V1562ZM1296 1851Q1296 1779 1254 1735T1142 1691Q1072 1691 1030 1735T987 1851Q987 1922 1029 1965T1142 2009Q1211
2009 1253 1966T1296 1851ZM774 1851Q774 1779 732 1735T620 1691Q549 1691 507 1735T464 1851Q464 1922 506 1965T620 2009Q689 2009 731 1966T774 1851Z" />
<glyph unicode="&#xdd;" glyph-name="Yacute" horiz-adv-x="1497" d="M1166 0H349V129L540 167Q565 171 577 184T590 223V608L165 1353Q155 1371 141 1381T106 1396L-18 1427V1562H693V1427L527 1388L835 807L1121 1389L942 1427V1562H1485V1427L1368 1398Q1348
1394 1334 1384T1309 1355L926 608V223Q926 198 938 185T975 167L1166 129V0ZM1174 1911Q1123 1875 1051 1841T899 1775T736 1717T580 1667L523 1779L1036 2113L1174 1911Z" />
<glyph unicode="&#xde;" glyph-name="Thorn" horiz-adv-x="1446" d="M784 458Q896 458 962 536T1028 796Q1028 923 972 1007T775 1091Q736 1091 695 1089T613 1081V471Q659 464 702 461T784 458ZM828 130V0H103V130L242 159Q266 163 278 178T291 217V1337Q291
1361 279 1376T242 1396L103 1427V1562H828V1427L661 1396Q638 1391 626 1377T613 1337V1212Q687 1219 762 1224T906 1230Q1137 1230 1255 1127T1373 808Q1373 560 1234 444T838 328Q770 328 717 330T613 337V218Q613 194 625 179T661 160L828 130Z" />
<glyph unicode="&#xdf;" glyph-name="germandbls" horiz-adv-x="1619" d="M1100 -28Q988 -28 885 -3T711 56Q707 89 705 123T703 191Q703 240 706 288T716 379H875L915 231Q925 195 933 179T962 147Q984 130 1020 116T1100 101Q1167 101 1213 138T1259 242Q1259
327 1189 382T1015 496Q911 556 841 629T770 820Q770 939 843 1020T1018 1150Q1031 1193 1037 1235T1043 1317Q1043 1445 979 1523T793 1602Q686 1602 623 1531T560 1290V0H86V129L199 148Q223 152 235 166T248 206V955L72 984V1107L248 1139V1203Q248 1320 300
1428T439 1618T642 1749T885 1798Q976 1798 1061 1770T1212 1689T1317 1555T1358 1372Q1359 1309 1345 1241T1305 1108Q1198 1082 1133 1032T1067 910Q1067 844 1125 799T1288 693Q1420 617 1493 537T1567 329Q1567 241 1532 174T1434 62T1285 -5T1100 -28Z" />
<glyph unicode="&#xe0;" glyph-name="agrave" horiz-adv-x="1236" d="M533 157Q587 157 638 174T730 222V476L593 466Q489 459 444 412T399 292Q399 226 430 192T533 157ZM969 -18Q888 -18 832 13T747 118Q688 52 600 15T404 -23Q257 -23 167 52T76 256Q76 338
113 398T213 498T354 559T518 586L730 600V719Q730 853 673 905T503 957Q410 957 330 927T181 835L110 899Q156 1024 281 1094T594 1165Q822 1165 928 1056T1034 733V215Q1034 183 1047 170T1087 153L1191 141V20Q1157 10 1091 -4T969 -18ZM450 1796L823 1356L735
1254Q595 1335 468 1437T270 1631L450 1796Z" />
<glyph unicode="&#xe1;" glyph-name="aacute" horiz-adv-x="1236" d="M533 157Q587 157 638 174T730 222V476L593 466Q489 459 444 412T399 292Q399 226 430 192T533 157ZM969 -18Q888 -18 832 13T747 118Q688 52 600 15T404 -23Q257 -23 167 52T76 256Q76 338
113 398T213 498T354 559T518 586L730 600V719Q730 853 673 905T503 957Q410 957 330 927T181 835L110 899Q156 1024 281 1094T594 1165Q822 1165 928 1056T1034 733V215Q1034 183 1047 170T1087 153L1191 141V20Q1157 10 1091 -4T969 -18ZM499 1254L417 1350L802
1796L982 1631Q947 1586 894 1537T777 1439T642 1343T499 1254Z" />
<glyph unicode="&#xe2;" glyph-name="acircumflex" horiz-adv-x="1236" d="M533 157Q587 157 638 174T730 222V476L593 466Q489 459 444 412T399 292Q399 226 430 192T533 157ZM969 -18Q888 -18 832 13T747 118Q688 52 600 15T404 -23Q257 -23 167 52T76 256Q76
338 113 398T213 498T354 559T518 586L730 600V719Q730 853 673 905T503 957Q410 957 330 927T181 835L110 899Q156 1024 281 1094T594 1165Q822 1165 928 1056T1034 733V215Q1034 183 1047 170T1087 153L1191 141V20Q1157 10 1091 -4T969 -18ZM288 1262L189 1354L482
1744L683 1762L1005 1360L901 1264L582 1524L288 1262Z" />
<glyph unicode="&#xe3;" glyph-name="atilde" horiz-adv-x="1236" d="M533 157Q587 157 638 174T730 222V476L593 466Q489 459 444 412T399 292Q399 226 430 192T533 157ZM969 -18Q888 -18 832 13T747 118Q688 52 600 15T404 -23Q257 -23 167 52T76 256Q76 338
113 398T213 498T354 559T518 586L730 600V719Q730 853 673 905T503 957Q410 957 330 927T181 835L110 899Q156 1024 281 1094T594 1165Q822 1165 928 1056T1034 733V215Q1034 183 1047 170T1087 153L1191 141V20Q1157 10 1091 -4T969 -18ZM1034 1580Q1019 1525
993 1473T931 1381T847 1317T744 1292Q689 1292 644 1314T559 1362T484 1411T412 1433Q364 1433 325 1394T254 1303L160 1357Q174 1413 200 1465T262 1558T346 1622T450 1647Q505 1647 550 1625T635 1577T709 1528T781 1506Q829 1506 868 1545T939 1636L1034 1580Z"
/>
<glyph unicode="&#xe4;" glyph-name="adieresis" horiz-adv-x="1236" d="M533 157Q587 157 638 174T730 222V476L593 466Q489 459 444 412T399 292Q399 226 430 192T533 157ZM969 -18Q888 -18 832 13T747 118Q688 52 600 15T404 -23Q257 -23 167 52T76 256Q76
338 113 398T213 498T354 559T518 586L730 600V719Q730 853 673 905T503 957Q410 957 330 927T181 835L110 899Q156 1024 281 1094T594 1165Q822 1165 928 1056T1034 733V215Q1034 183 1047 170T1087 153L1191 141V20Q1157 10 1091 -4T969 -18ZM986 1476Q986 1405
944 1362T832 1318Q762 1318 720 1361T677 1476Q677 1548 719 1591T832 1634Q901 1634 943 1591T986 1476ZM517 1476Q517 1405 474 1362T362 1318Q292 1318 250 1361T207 1476Q207 1548 249 1591T362 1634Q431 1634 474 1591T517 1476Z" />
<glyph unicode="&#xe5;" glyph-name="aring" horiz-adv-x="1236" d="M533 157Q587 157 638 174T730 222V476L593 466Q489 459 444 412T399 292Q399 226 430 192T533 157ZM969 -18Q888 -18 832 13T747 118Q688 52 600 15T404 -23Q257 -23 167 52T76 256Q76 338
113 398T213 498T354 559T518 586L730 600V719Q730 853 673 905T503 957Q410 957 330 927T181 835L110 899Q156 1024 281 1094T594 1165Q822 1165 928 1056T1034 733V215Q1034 183 1047 170T1087 153L1191 141V20Q1157 10 1091 -4T969 -18ZM892 1525Q892 1468 869
1422T805 1343T710 1294T593 1276Q452 1276 377 1345T301 1530Q301 1586 326 1632T392 1709T489 1758T607 1776Q750 1776 821 1705T892 1525ZM478 1531Q478 1479 508 1439T598 1399Q655 1399 685 1429T716 1520Q716 1575 688 1613T599 1652Q541 1652 510 1621T478
1531Z" />
<glyph unicode="&#xe6;" glyph-name="ae" horiz-adv-x="1804" d="M1245 1030Q1167 1030 1112 966T1041 749H1420Q1421 759 1421 770T1422 795Q1422 897 1377 963T1245 1030ZM1705 249Q1684 181 1640 130T1535 44T1400 -7T1244 -25Q1097 -25 994 26T828 171Q763
79 655 28T416 -23Q257 -23 167 52T76 254Q76 337 113 398T213 499T354 560T518 587L730 600V719Q730 849 668 903T495 957Q413 957 331 927T181 835L110 899Q133 963 177 1012T282 1096T416 1147T571 1165Q689 1165 768 1130T894 1029Q962 1095 1057 1131T1274
1167Q1490 1167 1601 1060T1712 778Q1712 744 1708 701T1697 624H1035V622Q1035 376 1113 274T1335 172Q1419 172 1499 205T1629 301L1705 249ZM533 157Q595 157 661 183T783 257Q763 305 751 360T734 476L593 466Q488 459 444 412T399 292Q399 226 430 192T533
157Z" />
<glyph unicode="&#xe7;" glyph-name="ccedilla" horiz-adv-x="1135" d="M90 556Q90 700 131 814T247 1006T428 1126T664 1168Q766 1168 868 1145T1037 1085Q1044 992 1037 896T1014 712H861L809 901Q800 934 791 953T767 986Q748 1002 718 1013T650 1025Q551 1025
490 925T428 603Q428 389 496 281T713 172Q803 172 871 205T979 276L1051 217Q1011 112 897 44T613 -25Q479 -25 380 19T217 141T122 326T90 556ZM539 51H648L607 -88Q614 -88 623 -88T642 -90Q724 -94 776 -142T828 -271Q828 -328 800 -375T721 -455T600 -506T446
-525Q430 -525 417 -525T390 -523L373 -417Q474 -407 526 -370T579 -281Q579 -235 544 -213T456 -188L539 51Z" />
<glyph unicode="&#xe8;" glyph-name="egrave" horiz-adv-x="1182" d="M621 1031Q540 1031 488 967T420 749H799Q800 759 800 770T800 795Q800 898 756 964T621 1031ZM1084 249Q1044 119 920 47T619 -25Q484 -25 385 17T220 135T124 319T92 559Q92 852 239 1009T647
1167Q868 1167 979 1060T1091 778Q1091 744 1087 701T1076 624H414V617Q414 379 486 276T712 172Q799 172 878 205T1008 301L1084 249ZM471 1796L844 1356L756 1254Q616 1335 489 1437T291 1631L471 1796Z" />
<glyph unicode="&#xe9;" glyph-name="eacute" horiz-adv-x="1182" d="M621 1031Q540 1031 488 967T420 749H799Q800 759 800 770T800 795Q800 898 756 964T621 1031ZM1084 249Q1044 119 920 47T619 -25Q484 -25 385 17T220 135T124 319T92 559Q92 852 239 1009T647
1167Q868 1167 979 1060T1091 778Q1091 744 1087 701T1076 624H414V617Q414 379 486 276T712 172Q799 172 878 205T1008 301L1084 249ZM520 1254L438 1350L823 1796L1003 1631Q968 1586 915 1537T798 1439T663 1343T520 1254Z" />
<glyph unicode="&#xea;" glyph-name="ecircumflex" horiz-adv-x="1182" d="M621 1031Q540 1031 488 967T420 749H799Q800 759 800 770T800 795Q800 898 756 964T621 1031ZM1084 249Q1044 119 920 47T619 -25Q484 -25 385 17T220 135T124 319T92 559Q92 852 239
1009T647 1167Q868 1167 979 1060T1091 778Q1091 744 1087 701T1076 624H414V617Q414 379 486 276T712 172Q799 172 878 205T1008 301L1084 249ZM309 1262L210 1354L503 1744L704 1762L1026 1360L922 1264L603 1524L309 1262Z" />
<glyph unicode="&#xeb;" glyph-name="edieresis" horiz-adv-x="1182" d="M621 1031Q540 1031 488 967T420 749H799Q800 759 800 770T800 795Q800 898 756 964T621 1031ZM1084 249Q1044 119 920 47T619 -25Q484 -25 385 17T220 135T124 319T92 559Q92 852 239 1009T647
1167Q868 1167 979 1060T1091 778Q1091 744 1087 701T1076 624H414V617Q414 379 486 276T712 172Q799 172 878 205T1008 301L1084 249ZM1007 1476Q1007 1405 965 1362T853 1318Q783 1318 741 1361T698 1476Q698 1548 740 1591T853 1634Q922 1634 964 1591T1007
1476ZM538 1476Q538 1405 495 1362T383 1318Q313 1318 271 1361T228 1476Q228 1548 270 1591T383 1634Q452 1634 495 1591T538 1476Z" />
<glyph unicode="&#xec;" glyph-name="igrave" horiz-adv-x="780" d="M561 1124V207Q561 183 573 168T610 149L723 129V0H86V129L199 149Q223 153 236 168T249 207V895Q249 919 237 934T202 954L74 978V1108Q174 1136 296 1150T518 1164L561 1124ZM215 1796L588
1356L500 1254Q360 1335 233 1437T35 1631L215 1796Z" />
<glyph unicode="&#xed;" glyph-name="iacute" horiz-adv-x="780" d="M561 1124V207Q561 183 573 168T610 149L723 129V0H86V129L199 149Q223 153 236 168T249 207V895Q249 919 237 934T202 954L74 978V1108Q174 1136 296 1150T518 1164L561 1124ZM264 1254L182
1350L567 1796L747 1631Q712 1586 659 1537T542 1439T407 1343T264 1254Z" />
<glyph unicode="&#xee;" glyph-name="icircumflex" horiz-adv-x="780" d="M561 1124V207Q561 183 573 168T610 149L723 129V0H86V129L199 149Q223 153 236 168T249 207V895Q249 919 237 934T202 954L74 978V1108Q174 1136 296 1150T518 1164L561 1124ZM91 1263L-8
1349L247 1739L448 1757L733 1356L629 1265L347 1527L91 1263Z" />
<glyph unicode="&#xef;" glyph-name="idieresis" horiz-adv-x="780" d="M561 1124V207Q561 183 573 168T610 149L723 129V0H86V129L199 149Q223 153 236 168T249 207V895Q249 919 237 934T202 954L74 978V1108Q174 1136 296 1150T518 1164L561 1124ZM751 1476Q751
1405 709 1362T597 1318Q527 1318 485 1361T442 1476Q442 1548 484 1591T597 1634Q666 1634 708 1591T751 1476ZM282 1476Q282 1405 239 1362T127 1318Q57 1318 15 1361T-28 1476Q-28 1548 14 1591T127 1634Q196 1634 239 1591T282 1476Z" />
<glyph unicode="&#xf0;" glyph-name="eth" horiz-adv-x="1300" d="M614 -23Q369 -23 231 124T93 548Q93 708 136 818T247 997T398 1095T558 1125Q623 1125 688 1106T804 1043Q773 1144 723 1231T603 1393L318 1195L227 1340L489 1498Q428 1547 355 1592T198 1680L253
1798Q374 1768 479 1722T675 1618L933 1794L1024 1651L803 1520Q899 1436 971 1336T1091 1125T1163 895T1187 652Q1187 517 1157 394T1059 178T881 32T614 -23ZM644 117Q760 117 810 231T860 603Q860 675 856 741T842 869Q805 909 756 930T647 952Q597 952 557
932T489 866T446 741T431 547Q431 451 442 372T478 236T544 148T644 117Z" />
<glyph unicode="&#xf1;" glyph-name="ntilde" horiz-adv-x="1482" d="M690 129V0H86V129L200 149Q223 153 236 168T249 207V895Q249 919 237 934T202 954L74 978V1108Q171 1135 279 1149T482 1165L527 1123L546 1010Q621 1090 718 1126T926 1163Q1126 1163 1199
1050T1273 730V207Q1273 182 1286 168T1322 149L1436 129V0H832V129L913 148Q936 155 948 168T961 207V690Q961 839 919 905T774 971Q721 971 666 955T561 908V207Q561 183 573 169T608 148L690 129ZM1184 1580Q1169 1525 1143 1473T1081 1381T997 1317T894 1292Q839
1292 794 1314T709 1362T634 1411T562 1433Q514 1433 475 1394T404 1303L310 1357Q324 1413 350 1465T412 1558T496 1622T600 1647Q655 1647 700 1625T785 1577T859 1528T931 1506Q979 1506 1018 1545T1089 1636L1184 1580Z" />
<glyph unicode="&#xf2;" glyph-name="ograve" horiz-adv-x="1306" d="M92 560Q92 724 136 840T258 1029T442 1134T669 1168Q932 1168 1073 1019T1214 581Q1214 417 1170 301T1048 113T864 8T636 -25Q373 -25 233 124T92 560ZM875 557Q875 800 827 914T647 1029Q538
1029 484 929T430 585Q430 343 478 228T659 113Q768 113 821 213T875 557ZM506 1796L879 1356L791 1254Q651 1335 524 1437T326 1631L506 1796Z" />
<glyph unicode="&#xf3;" glyph-name="oacute" horiz-adv-x="1306" d="M92 560Q92 724 136 840T258 1029T442 1134T669 1168Q932 1168 1073 1019T1214 581Q1214 417 1170 301T1048 113T864 8T636 -25Q373 -25 233 124T92 560ZM875 557Q875 800 827 914T647 1029Q538
1029 484 929T430 585Q430 343 478 228T659 113Q768 113 821 213T875 557ZM555 1254L473 1350L858 1796L1038 1631Q1003 1586 950 1537T833 1439T698 1343T555 1254Z" />
<glyph unicode="&#xf4;" glyph-name="ocircumflex" horiz-adv-x="1306" d="M92 560Q92 724 136 840T258 1029T442 1134T669 1168Q932 1168 1073 1019T1214 581Q1214 417 1170 301T1048 113T864 8T636 -25Q373 -25 233 124T92 560ZM875 557Q875 800 827 914T647
1029Q538 1029 484 929T430 585Q430 343 478 228T659 113Q768 113 821 213T875 557ZM344 1262L245 1354L538 1744L739 1762L1061 1360L957 1264L638 1524L344 1262Z" />
<glyph unicode="&#xf5;" glyph-name="otilde" horiz-adv-x="1306" d="M92 560Q92 724 136 840T258 1029T442 1134T669 1168Q932 1168 1073 1019T1214 581Q1214 417 1170 301T1048 113T864 8T636 -25Q373 -25 233 124T92 560ZM875 557Q875 800 827 914T647 1029Q538
1029 484 929T430 585Q430 343 478 228T659 113Q768 113 821 213T875 557ZM1090 1580Q1075 1525 1049 1473T987 1381T903 1317T800 1292Q745 1292 700 1314T615 1362T540 1411T468 1433Q420 1433 381 1394T310 1303L216 1357Q230 1413 256 1465T318 1558T402 1622T506
1647Q561 1647 606 1625T691 1577T765 1528T837 1506Q885 1506 924 1545T995 1636L1090 1580Z" />
<glyph unicode="&#xf6;" glyph-name="odieresis" horiz-adv-x="1306" d="M92 560Q92 724 136 840T258 1029T442 1134T669 1168Q932 1168 1073 1019T1214 581Q1214 417 1170 301T1048 113T864 8T636 -25Q373 -25 233 124T92 560ZM875 557Q875 800 827 914T647 1029Q538
1029 484 929T430 585Q430 343 478 228T659 113Q768 113 821 213T875 557ZM1042 1476Q1042 1405 1000 1362T888 1318Q818 1318 776 1361T733 1476Q733 1548 775 1591T888 1634Q957 1634 999 1591T1042 1476ZM573 1476Q573 1405 530 1362T418 1318Q348 1318 306
1361T263 1476Q263 1548 305 1591T418 1634Q487 1634 530 1591T573 1476Z" />
<glyph unicode="&#xf7;" glyph-name="divide" horiz-adv-x="1155" d="M742 990Q742 923 697 882T577 841Q504 841 459 882T413 990Q413 1057 458 1098T577 1139Q651 1139 696 1098T742 990ZM1043 525H112V714H1043V525ZM742 249Q742 182 697 141T577 99Q504 99
459 140T413 249Q413 316 458 357T577 398Q651 398 696 357T742 249Z" />
<glyph unicode="&#xf8;" glyph-name="oslash" horiz-adv-x="1306" d="M405 585Q405 478 415 395T447 254L784 994Q757 1013 723 1023T647 1033Q529 1033 467 933T405 585ZM659 109Q776 109 838 210T900 557Q900 660 891 740T862 878L527 144Q553 127 586 118T659
109ZM636 -25Q590 -25 548 -21T468 -7L368 -211L232 -141L326 48Q212 115 152 244T92 560Q92 724 136 840T258 1029T442 1134T669 1168Q717 1168 761 1163T845 1148L938 1336L1073 1266L986 1091Q1097 1022 1155 894T1214 581Q1214 417 1170 301T1048 113T864 8T636
-25Z" />
<glyph unicode="&#xf9;" glyph-name="ugrave" horiz-adv-x="1430" d="M1146 -18Q1062 -18 1008 17T925 119Q861 52 777 15T570 -23Q389 -23 301 76T212 378V898Q212 921 201 936T166 957L53 982V1114Q149 1138 267 1151T482 1164L524 1124V422Q524 273 565 215T704
156Q755 156 806 172T903 220V898Q903 922 891 938T856 959L730 985V1116Q779 1128 836 1137T951 1152T1066 1161T1172 1164L1215 1124V215Q1215 182 1229 169T1269 153L1372 141V20Q1337 9 1272 -4T1146 -18ZM539 1796L912 1356L824 1254Q684 1335 557 1437T359
1631L539 1796Z" />
<glyph unicode="&#xfa;" glyph-name="uacute" horiz-adv-x="1430" d="M1146 -18Q1062 -18 1008 17T925 119Q861 52 777 15T570 -23Q389 -23 301 76T212 378V898Q212 921 201 936T166 957L53 982V1114Q149 1138 267 1151T482 1164L524 1124V422Q524 273 565 215T704
156Q755 156 806 172T903 220V898Q903 922 891 938T856 959L730 985V1116Q779 1128 836 1137T951 1152T1066 1161T1172 1164L1215 1124V215Q1215 182 1229 169T1269 153L1372 141V20Q1337 9 1272 -4T1146 -18ZM588 1254L506 1350L891 1796L1071 1631Q1036 1586
983 1537T866 1439T731 1343T588 1254Z" />
<glyph unicode="&#xfb;" glyph-name="ucircumflex" horiz-adv-x="1430" d="M1146 -18Q1062 -18 1008 17T925 119Q861 52 777 15T570 -23Q389 -23 301 76T212 378V898Q212 921 201 936T166 957L53 982V1114Q149 1138 267 1151T482 1164L524 1124V422Q524 273 565
215T704 156Q755 156 806 172T903 220V898Q903 922 891 938T856 959L730 985V1116Q779 1128 836 1137T951 1152T1066 1161T1172 1164L1215 1124V215Q1215 182 1229 169T1269 153L1372 141V20Q1337 9 1272 -4T1146 -18ZM377 1262L278 1354L571 1744L772 1762L1094
1360L990 1264L671 1524L377 1262Z" />
<glyph unicode="&#xfc;" glyph-name="udieresis" horiz-adv-x="1430" d="M1146 -18Q1062 -18 1008 17T925 119Q861 52 777 15T570 -23Q389 -23 301 76T212 378V898Q212 921 201 936T166 957L53 982V1114Q149 1138 267 1151T482 1164L524 1124V422Q524 273 565
215T704 156Q755 156 806 172T903 220V898Q903 922 891 938T856 959L730 985V1116Q779 1128 836 1137T951 1152T1066 1161T1172 1164L1215 1124V215Q1215 182 1229 169T1269 153L1372 141V20Q1337 9 1272 -4T1146 -18ZM1075 1476Q1075 1405 1033 1362T921 1318Q851
1318 809 1361T766 1476Q766 1548 808 1591T921 1634Q990 1634 1032 1591T1075 1476ZM606 1476Q606 1405 563 1362T451 1318Q381 1318 339 1361T296 1476Q296 1548 338 1591T451 1634Q520 1634 563 1591T606 1476Z" />
<glyph unicode="&#xfd;" glyph-name="yacute" horiz-adv-x="1284" d="M310 -518Q246 -518 177 -511T48 -493V-338Q164 -323 256 -303T419 -246T547 -151T648 0H515L157 934Q149 956 134 968T97 987L19 1011V1138L643 1137V1008L488 977L740 250L971 977L822 1009V1138H1271V1011L1193
987Q1169 980 1156 969T1134 933L799 -26Q712 -275 599 -396T310 -518ZM589 1254L507 1350L892 1796L1072 1631Q1037 1586 984 1537T867 1439T732 1343T589 1254Z" />
<glyph unicode="&#xfe;" glyph-name="thorn" horiz-adv-x="1326" d="M629 108Q753 108 827 210T904 569Q905 788 845 883T665 978Q611 978 564 964T483 927V139Q514 123 551 116T629 108ZM692 -368V-496H9V-368L123 -347Q147 -343 159 -329T171 -289V1534Q171
1559 159 1573T123 1592L-13 1613V1739Q37 1752 95 1763T214 1782T332 1794T441 1799L483 1760V1039Q542 1097 620 1132T801 1168Q893 1168 972 1136T1109 1038T1200 869T1233 624Q1233 469 1191 348T1070 145T879 20T627 -23Q593 -23 557 -19T483 -8V-290Q483
-315 496 -329T534 -347L692 -368Z" />
<glyph unicode="&#xff;" glyph-name="ydieresis" horiz-adv-x="1284" d="M310 -518Q246 -518 177 -511T48 -493V-338Q164 -323 256 -303T419 -246T547 -151T648 0H515L157 934Q149 956 134 968T97 987L19 1011V1138L643 1137V1008L488 977L740 250L971 977L822
1009V1138H1271V1011L1193 987Q1169 980 1156 969T1134 933L799 -26Q712 -275 599 -396T310 -518ZM1076 1476Q1076 1405 1034 1362T922 1318Q852 1318 810 1361T767 1476Q767 1548 809 1591T922 1634Q991 1634 1033 1591T1076 1476ZM607 1476Q607 1405 564 1362T452
1318Q382 1318 340 1361T297 1476Q297 1548 339 1591T452 1634Q521 1634 564 1591T607 1476Z" />
<glyph unicode="&#x2013;" glyph-name="endash" horiz-adv-x="1452" d="M140 492V699H1313V492H140Z" />
<glyph unicode="&#x2014;" glyph-name="emdash" horiz-adv-x="2235" d="M140 493V699H2096V493H140Z" />
<glyph unicode="&#x2018;" glyph-name="quoteleft" horiz-adv-x="577" d="M85 1427Q85 1506 113 1579T189 1715T300 1828T432 1913L494 1836Q424 1776 372 1704T320 1566Q320 1525 338 1512T382 1482Q412 1461 437 1426T462 1336Q462 1262 414 1215T289 1168Q202
1168 144 1235T85 1427Z" />
<glyph unicode="&#x2019;" glyph-name="quoteright" horiz-adv-x="578" d="M504 1635Q504 1555 476 1482T400 1346T289 1233T157 1148L95 1226Q166 1285 218 1357T270 1495Q270 1536 252 1549T207 1580Q177 1600 152 1635T127 1725Q127 1799 175 1846T300 1893Q387
1893 445 1826T504 1635Z" />
<glyph unicode="&#x201a;" glyph-name="quotesinglbase" horiz-adv-x="633" d="M501 176Q501 96 473 23T397 -113T286 -226T154 -311L92 -233Q163 -174 215 -102T267 36Q267 77 249 90T204 121Q174 141 149 176T124 266Q124 340 172 387T297 434Q384 434 442 367T501
176Z" />
<glyph unicode="&#x201c;" glyph-name="quotedblleft" horiz-adv-x="1041" d="M549 1427Q549 1506 577 1579T653 1715T764 1828T896 1913L958 1836Q888 1776 836 1704T784 1566Q784 1525 802 1512T846 1482Q876 1461 901 1426T926 1336Q926 1262 878 1215T753
1168Q666 1168 608 1235T549 1427ZM85 1427Q85 1506 113 1579T189 1715T300 1828T432 1913L494 1836Q424 1776 372 1704T320 1566Q320 1525 338 1512T382 1482Q412 1461 437 1426T462 1336Q462 1262 414 1215T289 1168Q202 1168 144 1235T85 1427Z" />
<glyph unicode="&#x201d;" glyph-name="quotedblright" horiz-adv-x="1042" d="M504 1635Q504 1555 476 1482T400 1346T289 1233T157 1148L95 1226Q166 1285 218 1357T270 1495Q270 1536 252 1549T207 1580Q177 1600 152 1635T127 1725Q127 1799 175 1846T300
1893Q387 1893 445 1826T504 1635ZM968 1635Q968 1555 940 1482T864 1346T753 1233T621 1148L559 1226Q630 1285 682 1357T734 1495Q734 1536 716 1549T671 1580Q641 1600 616 1635T591 1725Q591 1799 639 1846T764 1893Q851 1893 909 1826T968 1635Z" />
<glyph unicode="&#x201e;" glyph-name="quotedblbase" horiz-adv-x="1097" d="M501 176Q501 96 473 23T397 -113T286 -226T154 -311L92 -233Q163 -174 215 -102T267 36Q267 77 249 90T204 121Q174 141 149 176T124 266Q124 340 172 387T297 434Q384 434 442 367T501
176ZM965 176Q965 96 937 23T861 -113T750 -226T618 -311L556 -233Q627 -174 679 -102T731 36Q731 77 713 90T668 121Q638 141 613 176T588 266Q588 340 636 387T761 434Q848 434 906 367T965 176Z" />
<glyph unicode="&#x2022;" glyph-name="bullet" horiz-adv-x="928" d="M738 634Q738 516 664 445T464 374Q340 374 265 445T190 634Q190 751 265 822T464 893Q589 893 663 822T738 634Z" />
<glyph unicode="&#x2039;" glyph-name="guilsinglleft" horiz-adv-x="850" d="M666 83L83 534V688L666 1147L758 1036L416 611L760 193L666 83Z" />
<glyph unicode="&#x203a;" glyph-name="guilsinglright" horiz-adv-x="850" d="M184 83L90 193L434 611L92 1036L184 1147L767 688V534L184 83Z" />
</font>
</defs>
</svg>
