<?xml version="1.0" standalone="no"?>
<!DOCTYPE svg PUBLIC "-//W3C//DTD SVG 1.1//EN" "http://www.w3.org/Graphics/SVG/1.1/DTD/svg11.dtd">
<svg xmlns="http://www.w3.org/2000/svg">
<defs >
<font id="Chivo" horiz-adv-x="548" ><font-face
    font-family="Chivo Light"
    units-per-em="1000"
    panose-1="0 0 5 0 0 0 0 0 0 0"
    ascent="940"
    descent="-250"
    alphabetic="0" />
<glyph unicode=" " glyph-name="space" horiz-adv-x="244" />
<glyph unicode="!" glyph-name="exclam" horiz-adv-x="269" d="M143 686L131 141H90L79 686H143ZM78 69H143V0H78V69Z" />
<glyph unicode="&quot;" glyph-name="quotedbl" horiz-adv-x="364" d="M64 539V686H116V539L105 414H75L64 539ZM197 539V686H249V539L238 414H208L197 539Z" />
<glyph unicode="#" glyph-name="numbersign" horiz-adv-x="643" d="M479 420L440 246H566V188H427L385 0H327L369 188H203L161 0H103L145 188H28V246H158L197 420H67V478H210L259 696H318L268 478H434L483 696H542L492 478H605V420H479ZM216 246H382L421 420H255L216
246Z" />
<glyph unicode="$" glyph-name="dollar" horiz-adv-x="546" d="M154 23T93 66T31 202L32 218H83L82 193Q82 69 274 69Q364 69 415 98T467 200Q467 243 441 269T377 308T274 337Q200 355 155 371T79 423T48 517Q48 591 107 630T258 672L248 762H298L288 672Q383
670 441 629T500 506V494H450V515Q450 570 402 597T275 625Q195 625 148 599T101 515Q101 477 125 454T186 417T286 390Q362 372 408 355T487 302T520 203Q520 109 456 65T288 19L298 -66H248L257 19Q154 23 93 66Z" />
<glyph unicode="%" glyph-name="percent" horiz-adv-x="699" d="M270 405T238 371T150 336Q95 336 63 370T30 456V566Q30 617 62 651T150 686Q205 686 237 652T270 566V456Q270 405 238 371ZM168 0H108L525 686H584L168 0ZM220 601T202 620T150 640Q118 640 99
620T80 570V452Q80 422 99 402T150 382Q183 382 201 401T220 452V570Q220 601 202 620ZM660 68T628 34T540 -1Q485 -1 453 33T420 119V229Q420 280 452 314T540 349Q595 349 627 315T660 229V119Q660 68 628 34ZM610 264T592 283T540 303Q508 303 489 283T470 233V115Q470
85 489 65T540 45Q573 45 591 64T610 115V233Q610 264 592 283Z" />
<glyph unicode="&amp;" glyph-name="ampersand" horiz-adv-x="662" d="M326 648T288 648Q217 648 172 613T126 511Q126 445 174 410T293 375H424L442 538H475V375H594V329H475V0H288Q225 0 173 23T89 89T58 192Q58 316 186 353V355Q130 383 101 417T72 511Q72
569 100 611T178 674T288 696Q322 696 356 688V638Q326 648 288 648ZM210 329T161 296T111 191Q111 123 160 85T288 46H424V329H288Q210 329 161 296Z" />
<glyph unicode="&apos;" glyph-name="quotesingle" horiz-adv-x="210" d="M75 414L64 539V686H116V539L105 414H75Z" />
<glyph unicode="(" glyph-name="parenleft" horiz-adv-x="289" d="M49 381T90 490T208 686H237Q176 593 139 485T101 265Q101 153 138 45T237 -157H208Q131 -70 90 39T49 265Q49 381 90 490Z" />
<glyph unicode=")" glyph-name="parenright" horiz-adv-x="288" d="M217 149T176 40T58 -157H29Q90 -64 127 44T165 265Q165 376 128 484T29 686H58Q134 599 175 490T217 265Q217 149 176 40Z" />
<glyph unicode="*" glyph-name="asterisk" horiz-adv-x="468" d="M251 480L364 347L315 311L223 462L133 315L83 350L199 482L29 524L49 582L210 512L197 686H259L242 510L405 578L423 519L251 480Z" />
<glyph unicode="+" glyph-name="plus" horiz-adv-x="615" d="M336 284H563V226H336V0H278V226H51V284H278V511H336V284Z" />
<glyph unicode="," glyph-name="comma" horiz-adv-x="238" d="M74 -85T82 -51T93 0H69V69H134V11L104 -101H70Q74 -85 82 -51Z" />
<glyph unicode="-" glyph-name="hyphen" horiz-adv-x="391" d="M69 299H322V237H69V299Z" />
<glyph unicode="." glyph-name="period" horiz-adv-x="239" d="M69 69H134V0H69V69Z" />
<glyph unicode="/" glyph-name="slash" horiz-adv-x="600" d="M75 -171H15L505 686H564L75 -171Z" />
<glyph unicode="0" glyph-name="zero" horiz-adv-x="615" d="M513 145T485 95T406 18T292 -10Q229 -10 179 17T100 95T71 211V475Q71 541 99 591T178 668T292 696Q355 696 405 669T484 591T513 475V211Q513 145 485 95ZM459 528T438 566T378 626T292 648Q245 648
207 627T147 567T125 481V205Q125 158 146 120T206 60T292 38Q339 38 377 59T437 119T459 205V481Q459 528 438 566Z" />
<glyph unicode="1" glyph-name="one" horiz-adv-x="615" d="M97 48H292V619H97V653Q170 661 216 668T323 696H346V48H541V0H97V48Z" />
<glyph unicode="2" glyph-name="two" horiz-adv-x="615" d="M70 85T94 123T173 196L375 327Q414 352 440 390T466 481Q466 555 422 601T302 648Q255 648 216 626T155 564T132 478Q132 462 133 454H79L78 472Q78 538 107 589T188 668T302 696Q367 696 416 668T493
592T520 484Q520 412 487 364T400 281L188 144Q149 119 139 92T129 48H524V0H70V23Q70 85 94 123Z" />
<glyph unicode="3" glyph-name="three" horiz-adv-x="615" d="M111 114T159 75T287 36Q365 36 414 74T464 181Q464 252 414 289T287 327H210V375H282Q353 375 401 410T449 511Q449 578 404 613T287 648Q216 648 171 612T125 511V497H72V511Q72 568 100 610T178
674T287 696Q347 696 396 675T474 611T503 511Q503 451 475 417T390 355V351Q448 334 482 292T517 182Q517 123 486 80T403 13T287 -10Q221 -10 169 13T88 81T58 182V199H111V181Q111 114 159 75Z" />
<glyph unicode="4" glyph-name="four" horiz-adv-x="615" d="M420 541T433 573H452V235H534V187H452V0H396V187H50V235Q71 260 117 341T210 521T286 696H342Q315 612 271 517T182 345T107 235H396V492Q420 541 433 573Z" />
<glyph unicode="5" glyph-name="five" horiz-adv-x="615" d="M125 163T145 124T204 61T292 38Q342 38 380 62T438 126T459 215Q459 265 437 305T376 369T292 392Q245 392 204 368T140 303L92 310L120 686H483V632H170L151 382Q182 411 220 426T299 441Q361 441
410 413T486 333T513 215Q513 154 486 103T409 21T292 -10Q225 -10 175 19T98 99T71 211H125Q125 163 145 124Z" />
<glyph unicode="6" glyph-name="six" horiz-adv-x="615" d="M161 382T208 405T308 429Q367 429 416 401T493 323T521 211Q521 145 493 95T414 18T300 -10Q237 -10 187 17T108 95T79 211V475Q79 541 106 591T183 668T296 696Q359 696 407 669T482 591T509 475H457V481Q457
554 412 601T296 648Q249 648 212 627T154 567T133 481V341Q161 382 208 405ZM133 158T154 120T214 60T300 38Q347 38 385 59T445 119T467 205V214Q467 261 446 299T386 359T300 381Q253 381 215 360T155 300T133 214V205Q133 158 154 120Z" />
<glyph unicode="7" glyph-name="seven" horiz-adv-x="615" d="M432 531T348 369T264 46Q264 26 266 0H204Q204 178 279 339T462 632H73V686H544V656Q432 531 348 369Z" />
<glyph unicode="8" glyph-name="eight" horiz-adv-x="615" d="M460 328T491 289T523 183Q523 94 464 42T295 -10Q191 -10 129 40T67 183Q67 249 99 291T189 352V356Q141 380 116 415T90 512Q90 597 146 646T295 696Q388 696 444 647T500 512Q500 451 475 416T400
356V352Q460 328 491 289ZM144 449T186 413T294 376Q359 376 402 412T445 512Q445 577 405 612T294 648Q224 648 184 612T144 512Q144 449 186 413ZM469 250T423 289T295 328Q214 328 168 289T121 183Q121 115 164 77T295 38Q381 38 425 76T469 183Q469 250 423
289Z" />
<glyph unicode="9" glyph-name="nine" horiz-adv-x="615" d="M423 305T376 281T276 257Q217 257 168 285T91 363T63 475Q63 541 91 591T170 668T284 696Q347 696 397 669T476 591T505 475V211Q505 145 477 95T399 18T286 -10Q223 -10 174 17T98 95T71 211H123V205Q123
157 144 119T202 60T286 38Q333 38 371 59T430 119T451 205V346Q423 305 376 281ZM451 528T430 566T370 626T284 648Q237 648 199 627T139 567T117 481V472Q117 425 138 387T198 327T284 305Q331 305 369 326T429 386T451 472V481Q451 528 430 566Z" />
<glyph unicode=":" glyph-name="colon" horiz-adv-x="239" d="M69 511H134V442H69V511ZM69 69H134V0H69V69Z" />
<glyph unicode=";" glyph-name="semicolon" horiz-adv-x="239" d="M69 511H134V442H69V511ZM74 -85T82 -51T93 0H69V69H134V11L104 -101H70Q74 -85 82 -51Z" />
<glyph unicode="&lt;" glyph-name="less" horiz-adv-x="615" d="M44 298L553 495V433L91 254L553 75V13L44 210V298Z" />
<glyph unicode="=" glyph-name="equal" horiz-adv-x="615" d="M55 328V386H555V328H55ZM55 120V178H555V120H55Z" />
<glyph unicode="&gt;" glyph-name="greater" horiz-adv-x="615" d="M571 210L62 13V75L524 254L62 433V495L571 298V210Z" />
<glyph unicode="?" glyph-name="question" horiz-adv-x="502" d="M212 166V244Q212 283 230 308T285 364Q327 399 348 430T370 513Q370 561 340 604T232 648Q142 648 111 597T80 494Q80 485 81 477T83 465H29Q28 467 27 475T26 498Q26 528 40 573T100 658T231
697Q316 697 358 659T412 581T424 515Q424 469 411 437T380 385T332 339Q297 308 282 287T266 231V166H212ZM206 69H271V0H206V69Z" />
<glyph unicode="@" glyph-name="at" horiz-adv-x="885" d="M790 487T700 566T452 646Q281 646 186 549T91 261Q91 79 171 -11T418 -102Q454 -102 505 -93T583 -70V-126Q553 -137 503 -145T418 -153Q236 -153 137 -51T38 262Q38 414 93 511T241 653T453 697Q631
697 737 605T843 320Q843 216 816 149T749 53T669 23Q617 23 598 46T579 115Q549 67 504 45T398 22Q332 22 288 52T243 156Q243 223 284 256T394 299T579 309V370Q579 431 550 454T450 478Q386 478 348 455T310 380V365H262Q260 381 260 389Q260 451 313 486T450
521Q540 521 584 487T628 379V105Q628 84 637 75T667 66Q720 66 755 127T790 321Q790 487 700 566ZM477 267T419 261T328 230T294 156Q294 109 322 87T408 65Q452 65 491 83T554 140T579 234V267Q477 267 419 261Z" />
<glyph unicode="A" glyph-name="A" horiz-adv-x="652" d="M492 170H130L60 0H4L288 686H338L622 0H563L492 170ZM150 219H472L313 612H309L150 219Z" />
<glyph unicode="B" glyph-name="B" horiz-adv-x="651" d="M366 686Q415 686 456 664T521 603T546 518Q546 449 510 410T425 359V353Q451 349 482 334T537 281T562 183Q562 133 537 91T468 25T372 0H92V686H366ZM413 374T452 412T491 506Q491 562 452 600T356 638H146V374H356Q413
374 452 412ZM405 48T437 66T489 116T508 186Q508 224 489 256T437 307T366 326H146V48H366Q405 48 437 66Z" />
<glyph unicode="C" glyph-name="C" horiz-adv-x="663" d="M574 110T503 50T320 -10Q240 -10 184 19T95 123T62 330V356Q62 488 94 563T183 667T320 696Q433 696 503 637T574 434H521Q521 553 466 600T320 648Q222 648 169 588T116 368V318Q116 159 169 99T320
38Q521 38 521 251H574Q574 110 503 50Z" />
<glyph unicode="D" glyph-name="D" horiz-adv-x="675" d="M92 686H312Q435 686 506 612T578 356V331Q578 151 506 76T312 0H92V686ZM410 48T467 109T524 322V365Q524 638 312 638H146V48H312Q410 48 467 109Z" />
<glyph unicode="E" glyph-name="E" horiz-adv-x="593" d="M92 0V686H516L506 638H146V374H465V326H146V48H515L526 0H92Z" />
<glyph unicode="F" glyph-name="F" horiz-adv-x="550" d="M489 638H146V374H439V326H146V0H92V686H498L489 638Z" />
<glyph unicode="G" glyph-name="G" horiz-adv-x="677" d="M292 303V350H574V119Q574 75 576 42T580 0H543Q541 6 537 29T527 92Q497 39 443 15T320 -10Q240 -10 184 19T95 123T62 330V356Q62 488 94 563T183 667T320 696Q432 696 503 640T574 449H521Q521 559
465 603T320 648Q222 648 169 588T116 368V318Q116 159 169 99T320 38Q524 38 524 251V303H292Z" />
<glyph unicode="H" glyph-name="H" horiz-adv-x="693" d="M517 0V326H146V0H92V686H146V374H517V686H571V0H517Z" />
<glyph unicode="I" glyph-name="I" horiz-adv-x="364" d="M53 686H265V637H186V49H265V0H53V49H132V637H53V686Z" />
<glyph unicode="J" glyph-name="J" horiz-adv-x="526" d="M79 185V172Q79 104 117 71T218 38Q280 38 318 71T357 172V686H411V166Q411 82 357 36T218 -10Q134 -10 82 36T29 166V185H79Z" />
<glyph unicode="K" glyph-name="K" horiz-adv-x="623" d="M92 686H146V279L509 686H573L306 387L581 0H513L269 346L146 208V0H92V686Z" />
<glyph unicode="L" glyph-name="L" horiz-adv-x="536" d="M92 0V686H146V48H486L498 0H92Z" />
<glyph unicode="M" glyph-name="M" horiz-adv-x="938" d="M749 0V625H744L469 0H418L145 625H140V0H92V686H178L446 69H447L718 686H803V0H749Z" />
<glyph unicode="N" glyph-name="N" horiz-adv-x="694" d="M523 0L143 583H140V0H92V686H138L520 103H523V686H571V0H523Z" />
<glyph unicode="O" glyph-name="O" horiz-adv-x="690" d="M202 -10T132 64T61 330V356Q61 547 131 621T327 696Q452 696 522 622T593 356V330Q593 139 523 65T327 -10Q202 -10 132 64ZM426 38T482 99T539 318V368Q539 526 483 587T327 648Q228 648 172 587T115
368V318Q115 160 171 99T327 38Q426 38 482 99Z" />
<glyph unicode="P" glyph-name="P" horiz-adv-x="624" d="M92 686H373Q424 686 467 661T535 593T560 499Q560 448 535 405T467 337T373 312H146V0H92V686ZM404 359T437 377T489 428T508 499Q508 537 489 569T437 619T366 638H146V359H366Q404 359 437 377Z" />
<glyph unicode="Q" glyph-name="Q" horiz-adv-x="690" d="M593 150T530 75T355 -9Q361 -43 386 -66T463 -90Q484 -90 509 -84T553 -71T577 -61V-110Q573 -112 558 -118T517 -131T464 -137Q384 -137 349 -100T305 -9Q190 -4 126 71T61 330V356Q61 547 131 621T327
696Q452 696 522 622T593 356V330Q593 150 530 75ZM426 38T482 99T539 318V368Q539 526 483 587T327 648Q228 648 172 587T115 368V318Q115 160 171 99T327 38Q426 38 482 99Z" />
<glyph unicode="R" glyph-name="R" horiz-adv-x="670" d="M597 0T590 -1T574 -3Q543 -3 520 24T496 127Q496 247 454 286T367 326H146V0H92V686H371Q420 686 463 665T534 605T561 516Q561 480 545 445T501 385T438 354V349Q438 354 468 337T523 277T548 153Q548
96 555 70T569 37T599 20V1Q597 0 590 -1ZM410 374T441 392T490 440T508 507Q508 543 490 573T442 620T374 638H146V374H374Q410 374 441 392Z" />
<glyph unicode="S" glyph-name="S" horiz-adv-x="627" d="M473 525Q473 585 424 616T297 648Q218 648 170 619T122 525Q122 483 147 458T209 418T309 387Q385 367 431 349T510 292T543 188Q543 85 476 38T300 -10Q188 -10 120 36T52 187L53 205H104L103 178Q103
105 156 72T296 38Q490 38 490 185Q490 232 464 261T399 305T293 338Q219 358 175 376T100 430T69 528Q69 612 133 654T296 696Q397 696 460 652T523 516V503H473V525Z" />
<glyph unicode="T" glyph-name="T" horiz-adv-x="578" d="M309 638V0H257V638H25V686H541V638H309Z" />
<glyph unicode="U" glyph-name="U" horiz-adv-x="680" d="M563 220Q563 151 534 99T450 19T324 -10Q253 -10 199 18T116 99T86 220V686H140V222Q140 137 188 88T324 38Q411 38 460 88T509 222V686H563V220Z" />
<glyph unicode="V" glyph-name="V" horiz-adv-x="603" d="M519 686H572L313 0H265L5 686H64L289 86H294L519 686Z" />
<glyph unicode="W" glyph-name="W" horiz-adv-x="916" d="M798 686H848L648 0H602L433 581H429L260 0H214L14 686H72L239 107H243L410 686H460L627 107H631L798 686Z" />
<glyph unicode="X" glyph-name="X" horiz-adv-x="631" d="M326 359L581 0H516L294 315H292L68 0H9L264 359L32 686H97L296 402H298L500 686H559L326 359Z" />
<glyph unicode="Y" glyph-name="Y" horiz-adv-x="572" d="M295 266V0H241V266L-5 686H58L269 321H272L486 686H541L295 266Z" />
<glyph unicode="Z" glyph-name="Z" horiz-adv-x="596" d="M32 0V25L445 638H56V686H527V662L113 48H535V0H32Z" />
<glyph unicode="[" glyph-name="bracketleft" horiz-adv-x="293" d="M85 -161V686H226V648H138V-123H226V-161H85Z" />
<glyph unicode="\" glyph-name="backslash" horiz-adv-x="600" d="M407 0L15 686H75L467 0H407Z" />
<glyph unicode="]" glyph-name="bracketright" horiz-adv-x="293" d="M39 -161V-123H127V648H39V686H180V-161H39Z" />
<glyph unicode="^" glyph-name="asciicircum" horiz-adv-x="596" d="M334 511L531 0H469L290 464L111 0H49L246 511H334Z" />
<glyph unicode="_" glyph-name="underscore" horiz-adv-x="694" d="M97 -122V-64H597V-122H97Z" />
<glyph unicode="`" glyph-name="grave" horiz-adv-x="333" d="M179 575L68 717V720H133L229 575H179Z" />
<glyph unicode="a" glyph-name="a" horiz-adv-x="585" d="M447 36T474 36Q497 36 524 52V9Q496 -10 460 -10Q424 -10 410 16T396 89Q365 38 319 14T209 -10Q138 -10 93 22T48 133Q48 204 90 239T205 285T396 296V360Q396 424 366 449T263 475Q197 475 157 450T117
371V355H68Q66 371 66 381Q66 446 121 483T263 521Q356 521 401 484T447 370V69Q447 36 474 36ZM290 250T230 243T134 211T99 132Q99 82 127 59T219 36Q264 36 304 56T370 116T396 216V250Q290 250 230 243Z" />
<glyph unicode="b" glyph-name="b" horiz-adv-x="583" d="M159 478T201 499T297 521Q354 521 400 492T473 407T500 271V260Q500 125 444 58T297 -10Q179 -10 123 85L104 0H83V720H134V440Q159 478 201 499ZM133 139T176 88T292 36Q363 36 406 88T449 258V269Q449
371 405 423T292 475Q222 475 178 424T133 269V257Q133 139 176 88Z" />
<glyph unicode="c" glyph-name="c" horiz-adv-x="544" d="M464 132T438 86T367 15T265 -10Q202 -10 154 20T78 109T51 248V263Q51 344 77 402T152 490T264 521Q321 521 366 497T438 426T464 314H414Q414 392 372 433T264 475Q192 475 147 422T102 269V242Q102
142 147 89T265 36Q330 36 372 77T414 197H464Q464 132 438 86Z" />
<glyph unicode="d" glyph-name="d" horiz-adv-x="583" d="M368 -10T255 -10Q165 -10 109 57T52 260V271Q52 350 79 406T152 492T255 521Q308 521 350 500T418 440V720H469V0H435L424 77Q368 -10 255 -10ZM419 372T375 423T260 475Q191 475 147 423T103 269V258Q103
141 146 89T260 36Q332 36 375 87T419 257V269Q419 372 375 423Z" />
<glyph unicode="e" glyph-name="e" horiz-adv-x="556" d="M464 127T438 82T366 14T265 -10Q202 -10 154 20T78 109T51 248V263Q51 344 77 402T152 490T264 521Q321 521 366 497T438 426T464 314V250H102V242Q102 142 147 89T265 36Q329 36 371 75T414 189H464Q464
127 438 82ZM197 475T153 429T103 296H414V314Q414 392 372 433T264 475Q197 475 153 429Z" />
<glyph unicode="f" glyph-name="f" horiz-adv-x="338" d="M260 672T241 677T211 682Q185 682 170 669T154 615V511H273V465H154V0H103V465H47V511H103V617Q103 673 131 700T205 728Q223 728 241 724T273 711V666Q260 672 241 677Z" />
<glyph unicode="g" glyph-name="g" horiz-adv-x="568" d="M456 67T489 33T522 -52Q522 -90 504 -121T453 -170T379 -188H162Q127 -188 98 -170T53 -123T36 -61Q36 -24 56 8T110 55Q65 82 65 135Q65 170 86 195T146 236Q114 259 96 291T78 360Q78 431 127 476T273
521Q338 521 384 499Q421 509 445 536T474 603H522Q522 559 495 521T423 477L422 473Q444 454 456 425T468 360Q468 289 419 245T273 200H191Q159 200 138 182T116 133Q116 102 137 85T191 67H404Q456 67 489 33ZM417 409T379 442T273 475Q206 475 168 442T129
360Q129 311 167 278T273 245Q340 245 378 278T417 360Q417 409 379 442ZM418 -142T444 -117T471 -55Q471 -26 450 -4T400 18H166Q133 18 110 -5T86 -62Q86 -95 109 -118T166 -142H382Q418 -142 444 -117Z" />
<glyph unicode="h" glyph-name="h" horiz-adv-x="593" d="M435 314Q435 395 398 435T291 475Q247 475 211 454T155 396T134 314V0H83V720H134V439Q159 478 204 499T296 521Q380 521 433 473T486 329V0H435V314Z" />
<glyph unicode="i" glyph-name="i" horiz-adv-x="260" d="M81 720H140V666H81V720ZM85 0V511H136V0H85Z" />
<glyph unicode="j" glyph-name="j" horiz-adv-x="260" d="M81 720H140V666H81V720ZM136 511V-75Q136 -131 109 -158T34 -186Q16 -186 -2 -182T-34 -169V-124Q-21 -130 -2 -135T28 -140Q54 -140 69 -127T85 -73V511H136Z" />
<glyph unicode="k" glyph-name="k" horiz-adv-x="535" d="M238 232L134 127V0H83V720H134V186L424 511H487L272 270L504 0H438L238 232Z" />
<glyph unicode="l" glyph-name="l" horiz-adv-x="268" d="M87 0V720H138V0H87Z" />
<glyph unicode="m" glyph-name="m" horiz-adv-x="867" d="M662 521T710 473T758 329V0H707V314Q707 475 582 475Q522 475 484 429T446 314V0H395V314Q395 475 270 475Q210 475 172 429T134 314V0H83V511H117L129 435Q151 475 190 498T274 521Q325 521 365 499T428
434Q450 471 491 496T586 521Q662 521 710 473Z" />
<glyph unicode="n" glyph-name="n" horiz-adv-x="593" d="M435 314Q435 395 398 435T291 475Q247 475 211 454T155 396T134 314V0H83V511H117L128 435Q154 475 199 498T296 521Q380 521 432 473T485 329V0H435V314Z" />
<glyph unicode="o" glyph-name="o" horiz-adv-x="574" d="M205 -10T156 20T80 109T52 248V263Q52 344 79 402T156 490T268 521Q331 521 380 491T456 402T484 263V248Q484 167 457 109T380 21T268 -10Q205 -10 156 20ZM341 36T387 89T433 242V269Q433 369 387 422T268
475Q195 475 149 422T103 269V242Q103 142 149 89T268 36Q341 36 387 89Z" />
<glyph unicode="p" glyph-name="p" horiz-adv-x="583" d="M184 521T297 521Q387 521 443 454T500 251V240Q500 161 473 105T400 19T297 -10Q244 -10 202 11T134 71V-181H83V511H117L128 434Q184 521 297 521ZM133 139T177 88T292 36Q361 36 405 88T449 242V253Q449
370 406 422T292 475Q220 475 177 424T133 254V242Q133 139 177 88Z" />
<glyph unicode="q" glyph-name="q" horiz-adv-x="583" d="M393 33T351 12T255 -10Q198 -10 152 19T79 104T52 240V251Q52 386 108 453T255 521Q373 521 429 426L448 511H469V-180H418V71Q393 33 351 12ZM419 372T376 423T260 475Q189 475 146 423T103 253V242Q103
140 147 88T260 36Q330 36 374 87T419 242V254Q419 372 376 423Z" />
<glyph unicode="r" glyph-name="r" horiz-adv-x="490" d="M388 344Q388 394 359 434T263 475Q217 475 188 451T147 391T134 324V0H83V511H117L128 435Q128 439 143 461T191 502T273 521Q352 521 394 473T437 352Q437 342 436 336T435 328H388V344Z" />
<glyph unicode="s" glyph-name="s" horiz-adv-x="534" d="M95 152T95 143Q95 92 139 64T261 36Q330 36 368 63T406 136Q406 171 385 191T332 221T247 242Q186 254 149 266T86 306T60 381Q60 443 110 482T258 521Q322 521 364 500T425 448T445 383L444 369H394V382Q394
414 366 444T249 475Q164 475 138 446T111 383Q111 354 131 336T181 309T264 288Q325 275 364 262T430 221T457 146Q457 64 401 27T248 -10Q175 -10 130 13T65 69T45 132Q45 144 45 150T46 157H96Q95 152 95 143Z" />
<glyph unicode="t" glyph-name="t" horiz-adv-x="346" d="M256 -1T238 -5T201 -10Q155 -10 127 18T99 101V465H43V511H99L117 674H150V511H269V465H150V103Q150 63 165 50T207 36Q218 36 237 41T269 52V7Q256 -1 238 -5Z" />
<glyph unicode="u" glyph-name="u" horiz-adv-x="618" d="M404 36T360 13T265 -10Q181 -10 130 38T78 182V511H129V197Q129 116 166 76T273 36Q317 36 353 57T409 115T430 197V511H481V69Q481 36 508 36Q531 36 558 52V9Q530 -10 494 -10Q460 -10 445 15T430 76Q404
36 360 13Z" />
<glyph unicode="v" glyph-name="v" horiz-adv-x="512" d="M263 0H218L12 511H67L242 74H244L420 511H470L263 0Z" />
<glyph unicode="w" glyph-name="w" horiz-adv-x="811" d="M237 0H197L20 511H73L218 93H221L366 511H425L570 93H573L718 511H767L589 0H549L394 446H392L237 0Z" />
<glyph unicode="x" glyph-name="x" horiz-adv-x="519" d="M393 0L236 221H235L76 0H18L208 262L26 511H90L238 303H239L389 511H447L266 262L456 0H393Z" />
<glyph unicode="y" glyph-name="y" horiz-adv-x="512" d="M258 -11T254 -23Q232 -81 216 -113T174 -165T110 -186Q78 -186 47 -172V-126Q80 -140 101 -140Q127 -140 145 -125T173 -91T195 -41L215 8L12 511H67L241 76H245L420 511H470L268 13Q258 -11 254 -23Z" />
<glyph unicode="z" glyph-name="z" horiz-adv-x="463" d="M36 0V24L313 465H53V511H388V487L110 46H396V0H36Z" />
<glyph unicode="{" glyph-name="braceleft" horiz-adv-x="315" d="M127 259T144 234T163 156L170 -62Q171 -93 196 -107T249 -121V-159Q197 -159 157 -132T117 -47V167Q117 196 94 210T40 224V303Q70 302 93 316T117 360V574Q117 632 157 659T249 686V648Q221
648 196 634T170 589L163 371Q161 318 144 293T80 268V259Q127 259 144 234Z" />
<glyph unicode="|" glyph-name="bar" horiz-adv-x="248" d="M84 -199V720H136V-199H84Z" />
<glyph unicode="}" glyph-name="braceright" horiz-adv-x="315" d="M162 268T145 293T126 371L119 589Q118 620 93 634T40 648V686Q92 686 132 659T172 574V360Q172 331 195 317T249 303V224Q219 225 196 211T172 167V-47Q172 -105 132 -132T40 -159V-121Q68 -121
93 -107T119 -62L126 156Q128 209 145 234T209 259V268Q162 268 145 293Z" />
<glyph unicode="~" glyph-name="asciitilde" horiz-adv-x="689" d="M628 312T604 292T544 254T465 236Q437 236 411 244T348 269Q308 286 282 294T227 302Q185 302 149 285T88 247T64 224V284Q64 286 88 306T148 344T227 362Q255 362 281 354T344 329Q384 312
410 304T465 296Q507 296 543 313T604 351T628 374V314Q628 312 604 292Z" />
<glyph unicode="&#xa0;" glyph-name="uni00A0" horiz-adv-x="244" />
<glyph unicode="&#xa1;" glyph-name="exclamdown" horiz-adv-x="254" d="M70 510H135V441H70V510ZM82 369H124L135 -176H69L82 369Z" />
<glyph unicode="&#xa2;" glyph-name="cent" horiz-adv-x="527" d="M278 608Q359 603 410 549T461 402H411Q411 480 369 521T261 563Q189 563 144 510T99 357V330Q99 230 144 177T262 124Q327 124 369 165T411 285H461Q461 193 410 139T278 79L288 -6H238L247 79Q156
84 102 151T48 336V351Q48 468 102 536T247 609L238 693H288L278 608Z" />
<glyph unicode="&#xa3;" glyph-name="sterling" horiz-adv-x="597" d="M168 362V524Q168 608 222 654T361 700Q445 700 497 654T550 524V505H500V518Q500 586 462 619T361 652Q299 652 261 619T222 518V362H450V314H222V277L209 48H533V0H67V48H168V314H29V362H168Z" />
<glyph unicode="&#xa4;" glyph-name="currency" horiz-adv-x="624" d="M507 490Q534 460 547 420T560 336Q560 292 547 252T507 182L562 128L520 86L464 142Q433 115 394 102T312 88Q269 88 230 101T160 142L104 86L62 128L117 182Q90 212 77 252T64 336Q64 380
77 420T117 490L62 544L104 586L160 530Q191 557 230 570T312 584Q355 584 394 571T464 530L520 586L562 544L507 490ZM259 535T213 508T140 436T112 336Q112 282 139 236T213 163T312 136Q365 136 411 163T484 236T511 336Q511 390 484 435T411 508T312 535Q259
535 213 508Z" />
<glyph unicode="&#xa5;" glyph-name="yen" horiz-adv-x="634" d="M52 433H174L26 686H89L300 321H303L517 686H572L423 433H546V384H395L343 295H546V248H326V0H272V248H52V295H255L203 384H52V433Z" />
<glyph unicode="&#xa6;" glyph-name="brokenbar" horiz-adv-x="269" d="M90 686H155V424H90V686ZM90 262H155V0H90V262Z" />
<glyph unicode="&#xa7;" glyph-name="section" horiz-adv-x="514" d="M447 193T423 161T344 100Q387 74 411 42T435 -35Q435 -101 385 -143T237 -185Q173 -185 131 -164T70 -112T50 -47L51 -33H101V-46Q101 -78 129 -108T246 -139Q331 -139 357 -107T384 -37Q384
-4 362 21T306 65T217 108Q159 133 123 153T63 201T38 268Q38 317 61 349T140 411Q97 437 74 469T50 546Q50 612 100 654T248 696Q312 696 354 675T415 623T435 558L434 544H384V557Q384 589 356 619T239 650Q154 650 128 618T101 548Q101 515 123 490T179 446T268
403Q326 378 362 358T422 310T447 243Q447 193 423 161ZM396 261T376 284T324 323T242 361Q196 381 174 392Q138 375 114 350T89 280Q89 249 109 226T160 187T243 148Q281 132 310 118Q396 158 396 231Q396 261 376 284Z" />
<glyph unicode="&#xa8;" glyph-name="dieresis" horiz-adv-x="440" d="M81 720H146V651H81V720ZM257 720H322V651H257V720Z" />
<glyph unicode="&#xa9;" glyph-name="copyright" horiz-adv-x="780" d="M744 247T697 166T568 38T390 -10Q293 -10 212 37T84 166T36 344Q36 440 83 521T212 649T390 696Q486 696 567 649T696 521T744 344Q744 247 697 166ZM718 432T674 507T554 626T390 670Q301
670 226 626T106 508T62 344Q62 255 106 180T225 60T390 16Q479 16 554 60T673 179T718 344Q718 432 674 507ZM517 460T483 491T394 522Q340 522 306 491T271 401V287Q271 226 305 196T394 165Q450 165 484 197T518 292H553Q553 210 509 170T394 129Q321 129 276
169T231 294V393Q231 476 276 517T394 558Q465 558 509 517T553 394H517V401Q517 460 483 491Z" />
<glyph unicode="&#xaa;" glyph-name="ordfeminine" horiz-adv-x="415" d="M301 410T312 410Q324 410 347 424V387Q328 373 304 373Q283 373 273 385T261 421Q223 373 155 373Q55 373 55 463Q55 506 80 528T149 557T261 564V597Q261 632 244 646T187 660Q150 660
128 646T106 603V594H68Q66 598 66 609Q66 650 100 673T187 697Q245 697 273 674T301 603V425Q301 410 312 410ZM173 527T134 515T95 462Q95 435 111 423T161 410Q202 410 231 436T261 512V527Q173 527 134 515Z" />
<glyph unicode="&#xab;" glyph-name="guillemotleft" horiz-adv-x="460" d="M172 163L49 337L172 511H213L116 337L213 163H172ZM355 163L231 337L355 511H396L299 337L396 163H355Z" />
<glyph unicode="&#xac;" glyph-name="logicalnot" horiz-adv-x="617" d="M549 184H491V376H37V435H549V184Z" />
<glyph unicode="&#xad;" glyph-name="uni00AD" horiz-adv-x="391" d="M69 299H322V237H69V299Z" />
<glyph unicode="&#xae;" glyph-name="registered" horiz-adv-x="780" d="M744 247T697 166T568 38T390 -10Q293 -10 212 37T84 166T36 344Q36 440 83 521T212 649T390 696Q486 696 567 649T696 521T744 344Q744 247 697 166ZM718 432T674 507T554 626T390 670Q301
670 226 626T106 508T62 344Q62 255 106 180T225 60T390 16Q479 16 554 60T673 179T718 344Q718 432 674 507ZM560 136T555 135T543 134Q493 134 493 215Q493 283 470 305T420 328H295V135H254V547H423Q470 547 504 518T538 443Q538 409 520 384T475 347V343Q497
334 514 309T531 229Q531 191 536 175T562 151V137Q560 136 555 135ZM456 363T478 385T501 438Q501 469 479 490T425 511H295V363H425Q456 363 478 385Z" />
<glyph unicode="&#xaf;" glyph-name="overscore" horiz-adv-x="460" d="M71 692V736H389V692H71Z" />
<glyph unicode="&#xb0;" glyph-name="degree" horiz-adv-x="394" d="M347 505T327 471T272 416T197 396Q156 396 122 416T68 470T47 546Q47 586 67 620T121 675T197 696Q237 696 271 676T326 621T347 546Q347 505 327 471ZM91 501T122 470T197 439Q241 439 272
470T303 545Q303 589 272 620T197 651Q153 651 122 620T91 545Q91 501 122 470Z" />
<glyph unicode="&#xb1;" glyph-name="plusminus" horiz-adv-x="615" d="M336 344H563V286H336V120H278V286H51V344H278V511H336V344ZM57 0V58H557V0H57Z" />
<glyph unicode="&#xb2;" glyph-name="uni00B2" horiz-adv-x="384" d="M61 473T76 495T120 537L227 608Q272 639 272 685Q272 722 251 744T191 767Q154 767 130 743T106 683Q106 671 107 664H66Q65 669 65 679Q65 735 101 770T191 805Q247 805 280 772T313 687Q313
647 295 620T246 573L134 498Q107 480 107 460H315V422H61V441Q61 473 76 495Z" />
<glyph unicode="&#xb3;" glyph-name="uni00B3" horiz-adv-x="363" d="M82 487T106 468T170 449Q209 449 233 467T258 520Q258 556 233 574T170 593H123V630H167Q203 630 226 647T250 696Q250 729 228 746T170 764Q135 764 113 746T90 696V683H50V696Q50 745 84
773T170 801Q222 801 256 774T291 696Q291 664 279 647T239 614Q266 602 282 579T298 521Q298 472 261 443T170 413Q114 413 78 442T42 521V536H82V520Q82 487 106 468Z" />
<glyph unicode="&#xb4;" glyph-name="acute" horiz-adv-x="333" d="M68 575L164 720H229V717L118 575H68Z" />
<glyph unicode="&#xb5;" glyph-name="uni00B5" horiz-adv-x="612" d="M321 36T357 57T413 115T434 197V511H485V69Q485 36 512 36Q535 36 562 52V9Q534 -10 498 -10Q464 -10 449 15T434 76Q408 35 365 13T272 -10Q228 -10 189 5T127 51Q128 46 130 30T133 1V-161H82V511H133V189Q133
114 171 75T277 36Q321 36 357 57Z" />
<glyph unicode="&#xb6;" glyph-name="paragraph" horiz-adv-x="524" d="M212 249Q160 257 117 287T50 365T25 466Q25 532 54 582T133 659T244 686H454V637H388V-174H336V637H264V-174H212V249Z" />
<glyph unicode="&#xb7;" glyph-name="middot" horiz-adv-x="235" d="M85 323H150V254H85V323Z" />
<glyph unicode="&#xb8;" glyph-name="cedilla" horiz-adv-x="350" d="M94 -151T139 -151Q172 -151 193 -139T215 -97Q215 -75 198 -63T157 -51H135V-17H160Q206 -17 236 -37T266 -106Q266 -155 230 -176T148 -197Q105 -197 70 -184V-138Q94 -151 139 -151Z" />
<glyph unicode="&#xb9;" glyph-name="uni00B9" horiz-adv-x="334" d="M50 460H152V745H50V774Q83 776 108 780T172 797H194V460H271V422H50V460Z" />
<glyph unicode="&#xba;" glyph-name="ordmasculine" horiz-adv-x="392" d="M126 377T90 418T53 533V542Q53 615 89 656T184 698Q244 698 280 657T317 542V533Q317 460 281 419T184 377Q126 377 90 418ZM225 413T250 442T276 530V545Q276 602 251 631T184 661Q144
661 119 632T93 545V530Q93 473 118 443T184 413Q225 413 250 442Z" />
<glyph unicode="&#xbb;" glyph-name="guillemotright" horiz-adv-x="460" d="M56 163L153 337L56 511H97L221 337L97 163H56ZM239 163L336 337L239 511H280L403 337L280 163H239Z" />
<glyph unicode="&#xbc;" glyph-name="onequarter" horiz-adv-x="702" d="M36 349H138V634H36V663Q69 665 94 669T158 686H180V349H257V311H36V349ZM174 0H127L547 686H591L174 0ZM623 295T629 311H649V135H692V98H649V0H608V98H427V132Q445 153 487 233T552 375H595Q574
313 539 242T476 135H608V265Q623 295 629 311Z" />
<glyph unicode="&#xbd;" glyph-name="onehalf" horiz-adv-x="726" d="M33 349H135V634H33V663Q66 665 91 669T155 686H177V349H254V311H33V349ZM171 0H124L544 686H588L171 0ZM439 51T454 73T498 115L605 186Q650 217 650 263Q650 300 629 322T569 345Q532 345
508 321T484 261Q484 249 485 242H444Q443 247 443 257Q443 313 479 348T569 383Q625 383 658 350T691 265Q691 225 673 198T624 151L512 76Q485 58 485 38H693V0H439V19Q439 51 454 73Z" />
<glyph unicode="&#xbe;" glyph-name="threequarters" horiz-adv-x="698" d="M71 378T95 359T159 340Q198 340 222 358T247 411Q247 447 222 465T159 484H112V521H156Q192 521 215 538T239 587Q239 620 217 637T159 655Q124 655 102 637T79 587V574H39V587Q39 636
73 664T159 692Q211 692 245 665T280 587Q280 555 268 538T228 505Q255 493 271 470T287 412Q287 363 250 334T159 304Q103 304 67 333T31 412V427H71V411Q71 378 95 359ZM194 0H147L567 686H611L194 0ZM643 295T649 311H669V135H712V98H669V0H628V98H447V132Q465
153 507 233T572 375H615Q594 313 559 242T496 135H628V265Q643 295 649 311Z" />
<glyph unicode="&#xbf;" glyph-name="questiondown" horiz-adv-x="495" d="M253 442H188V511H253V442ZM247 345V267Q247 228 229 203T174 147Q132 112 111 81T89 -2Q89 -50 119 -93T227 -137Q317 -137 348 -86T379 17Q379 26 378 34T376 46H430Q431 44 432 36T433
13Q433 -17 419 -62T359 -147T228 -186Q143 -186 101 -148T47 -70T35 -4Q35 42 48 74T79 126T127 172Q162 203 177 224T193 280V345H247Z" />
<glyph unicode="&#xc0;" glyph-name="Agrave" horiz-adv-x="652" d="M300 750L189 892V895H254L350 750H300ZM492 170H130L60 0H4L288 686H338L622 0H563L492 170ZM150 219H472L313 612H309L150 219Z" />
<glyph unicode="&#xc1;" glyph-name="Aacute" horiz-adv-x="652" d="M297 750L393 895H458V892L347 750H297ZM492 170H130L60 0H4L288 686H338L622 0H563L492 170ZM150 219H472L313 612H309L150 219Z" />
<glyph unicode="&#xc2;" glyph-name="Acircumflex" horiz-adv-x="652" d="M285 895H343L477 750H417L314 847L211 750H151L285 895ZM492 170H130L60 0H4L288 686H338L622 0H563L492 170ZM150 219H472L313 612H309L150 219Z" />
<glyph unicode="&#xc3;" glyph-name="Atilde" horiz-adv-x="652" d="M494 801T470 776T393 750Q371 750 352 754T302 767Q255 782 226 782Q201 782 188 775T169 750H132Q132 780 156 806T233 832Q255 832 274 828T324 815Q371 800 400 800Q425 800 438 807T457
832H494Q494 801 470 776ZM492 170H130L60 0H4L288 686H338L622 0H563L492 170ZM150 219H472L313 612H309L150 219Z" />
<glyph unicode="&#xc4;" glyph-name="Adieresis" horiz-adv-x="652" d="M194 819H259V750H194V819ZM370 819H435V750H370V819ZM492 170H130L60 0H4L288 686H338L622 0H563L492 170ZM150 219H472L313 612H309L150 219Z" />
<glyph unicode="&#xc5;" glyph-name="Aring" horiz-adv-x="652" d="M415 779T386 750T314 720Q272 720 243 749T213 820Q213 862 242 891T314 921Q356 921 385 892T415 820Q415 779 386 750ZM379 847T360 866T314 885Q287 885 268 866T249 820Q249 793 268 775T314
756Q341 756 360 775T379 820Q379 847 360 866ZM492 170H130L60 0H4L288 686H338L622 0H563L492 170ZM150 219H472L313 612H309L150 219Z" />
<glyph unicode="&#xc6;" glyph-name="AE" horiz-adv-x="983" d="M564 0L517 170H163L69 0H7L388 686H903L891 638H447L519 374H852V326H532L608 48H904L913 0H564ZM190 219H504L401 608L398 607L190 219Z" />
<glyph unicode="&#xc7;" glyph-name="Ccedilla" horiz-adv-x="663" d="M574 110T503 50T320 -10Q240 -10 184 19T95 123T62 330V356Q62 488 94 563T183 667T320 696Q433 696 503 637T574 434H521Q521 553 466 600T320 648Q222 648 169 588T116 368V318Q116 159
169 99T320 38Q521 38 521 251H574Q574 110 503 50ZM245 -151T290 -151Q323 -151 344 -139T366 -97Q366 -75 349 -63T308 -51H286V-17H311Q357 -17 387 -37T417 -106Q417 -155 381 -176T299 -197Q256 -197 221 -184V-138Q245 -151 290 -151Z" />
<glyph unicode="&#xc8;" glyph-name="Egrave" horiz-adv-x="593" d="M295 750L184 892V895H249L345 750H295ZM92 0V686H516L506 638H146V374H465V326H146V48H515L526 0H92Z" />
<glyph unicode="&#xc9;" glyph-name="Eacute" horiz-adv-x="593" d="M283 750L379 895H444V892L333 750H283ZM92 0V686H516L506 638H146V374H465V326H146V48H515L526 0H92Z" />
<glyph unicode="&#xca;" glyph-name="Ecircumflex" horiz-adv-x="593" d="M278 895H336L470 750H410L307 847L204 750H144L278 895ZM92 0V686H516L506 638H146V374H465V326H146V48H515L526 0H92Z" />
<glyph unicode="&#xcb;" glyph-name="Edieresis" horiz-adv-x="593" d="M182 819H247V750H182V819ZM358 819H423V750H358V819ZM92 0V686H516L506 638H146V374H465V326H146V48H515L526 0H92Z" />
<glyph unicode="&#xcc;" glyph-name="Igrave" horiz-adv-x="364" d="M121 750L10 892V895H75L171 750H121ZM32 686H244V637H165V49H244V0H32V49H111V637H32V686Z" />
<glyph unicode="&#xcd;" glyph-name="Iacute" horiz-adv-x="364" d="M135 750L231 895H296V892L185 750H135ZM53 686H265V637H186V49H265V0H53V49H132V637H53V686Z" />
<glyph unicode="&#xce;" glyph-name="Icircumflex" horiz-adv-x="364" d="M107 895H165L299 750H239L136 847L33 750H-27L107 895ZM30 686H242V637H163V49H242V0H30V49H109V637H30V686Z" />
<glyph unicode="&#xcf;" glyph-name="Idieresis" horiz-adv-x="364" d="M29 820H94V751H29V820ZM205 820H270V751H205V820ZM43 686H255V637H176V49H255V0H43V49H122V637H43V686Z" />
<glyph unicode="&#xd0;" glyph-name="Eth" horiz-adv-x="681" d="M105 367V686H325Q448 686 519 612T591 356V331Q591 151 519 76T325 0H105V319H5V367H105ZM423 48T480 109T537 322V365Q537 638 325 638H159V367H331V319H159V48H325Q423 48 480 109Z" />
<glyph unicode="&#xd1;" glyph-name="Ntilde" horiz-adv-x="694" d="M521 801T497 776T420 750Q398 750 379 754T329 767Q282 782 253 782Q228 782 215 775T196 750H159Q159 780 183 806T260 832Q282 832 301 828T351 815Q398 800 427 800Q452 800 465 807T484
832H521Q521 801 497 776ZM523 0L143 583H140V0H92V686H138L520 103H523V686H571V0H523Z" />
<glyph unicode="&#xd2;" glyph-name="Ograve" horiz-adv-x="690" d="M309 750L198 892V895H263L359 750H309ZM202 -10T132 64T61 330V356Q61 547 131 621T327 696Q452 696 522 622T593 356V330Q593 139 523 65T327 -10Q202 -10 132 64ZM426 38T482 99T539 318V368Q539
526 483 587T327 648Q228 648 172 587T115 368V318Q115 160 171 99T327 38Q426 38 482 99Z" />
<glyph unicode="&#xd3;" glyph-name="Oacute" horiz-adv-x="690" d="M305 750L401 895H466V892L355 750H305ZM202 -10T132 64T61 330V356Q61 547 131 621T327 696Q452 696 522 622T593 356V330Q593 139 523 65T327 -10Q202 -10 132 64ZM426 38T482 99T539 318V368Q539
526 483 587T327 648Q228 648 172 587T115 368V318Q115 160 171 99T327 38Q426 38 482 99Z" />
<glyph unicode="&#xd4;" glyph-name="Ocircumflex" horiz-adv-x="690" d="M303 895H361L495 750H435L332 847L229 750H169L303 895ZM202 -10T132 64T61 330V356Q61 547 131 621T327 696Q452 696 522 622T593 356V330Q593 139 523 65T327 -10Q202 -10 132 64ZM426
38T482 99T539 318V368Q539 526 483 587T327 648Q228 648 172 587T115 368V318Q115 160 171 99T327 38Q426 38 482 99Z" />
<glyph unicode="&#xd5;" glyph-name="Otilde" horiz-adv-x="690" d="M514 802T490 777T413 751Q391 751 372 755T322 768Q275 783 246 783Q221 783 208 776T189 751H152Q152 781 176 807T253 833Q275 833 294 829T344 816Q391 801 420 801Q445 801 458 808T477
833H514Q514 802 490 777ZM202 -10T132 64T61 330V356Q61 547 131 621T327 696Q452 696 522 622T593 356V330Q593 139 523 65T327 -10Q202 -10 132 64ZM426 38T482 99T539 318V368Q539 526 483 587T327 648Q228 648 172 587T115 368V318Q115 160 171 99T327 38Q426
38 482 99Z" />
<glyph unicode="&#xd6;" glyph-name="Odieresis" horiz-adv-x="690" d="M207 820H272V751H207V820ZM383 820H448V751H383V820ZM202 -10T132 64T61 330V356Q61 547 131 621T327 696Q452 696 522 622T593 356V330Q593 139 523 65T327 -10Q202 -10 132 64ZM426 38T482
99T539 318V368Q539 526 483 587T327 648Q228 648 172 587T115 368V318Q115 160 171 99T327 38Q426 38 482 99Z" />
<glyph unicode="&#xd7;" glyph-name="multiply" horiz-adv-x="615" d="M300 296L461 457L502 416L341 255L501 95L460 54L300 214L140 54L99 95L259 255L99 416L140 457L300 296Z" />
<glyph unicode="&#xd8;" glyph-name="Oslash" horiz-adv-x="690" d="M593 544T593 356V330Q593 139 523 65T327 -10Q225 -10 165 34L106 -65H61L136 60Q61 143 61 330V356Q61 547 131 621T327 696Q427 696 489 652L550 754H594L517 626Q593 544 593 356ZM115 176T164
108L462 607Q413 648 327 648Q228 648 172 587T115 368V318Q115 176 164 108ZM426 38T482 99T539 318V368Q539 509 489 578L191 79Q240 38 327 38Q426 38 482 99Z" />
<glyph unicode="&#xd9;" glyph-name="Ugrave" horiz-adv-x="680" d="M306 750L195 892V895H260L356 750H306ZM563 220Q563 151 534 99T450 19T324 -10Q253 -10 199 18T116 99T86 220V686H140V222Q140 137 188 88T324 38Q411 38 460 88T509 222V686H563V220Z" />
<glyph unicode="&#xda;" glyph-name="Uacute" horiz-adv-x="680" d="M298 750L394 895H459V892L348 750H298ZM563 220Q563 151 534 99T450 19T324 -10Q253 -10 199 18T116 99T86 220V686H140V222Q140 137 188 88T324 38Q411 38 460 88T509 222V686H563V220Z" />
<glyph unicode="&#xdb;" glyph-name="Ucircumflex" horiz-adv-x="680" d="M296 895H354L488 750H428L325 847L222 750H162L296 895ZM563 220Q563 151 534 99T450 19T324 -10Q253 -10 199 18T116 99T86 220V686H140V222Q140 137 188 88T324 38Q411 38 460 88T509
222V686H563V220Z" />
<glyph unicode="&#xdc;" glyph-name="Udieresis" horiz-adv-x="680" d="M204 820H269V751H204V820ZM380 820H445V751H380V820ZM563 220Q563 151 534 99T450 19T324 -10Q253 -10 199 18T116 99T86 220V686H140V222Q140 137 188 88T324 38Q411 38 460 88T509 222V686H563V220Z"
/>
<glyph unicode="&#xdd;" glyph-name="Yacute" horiz-adv-x="572" d="M255 750L351 895H416V892L305 750H255ZM295 266V0H241V266L-5 686H58L269 321H272L486 686H541L295 266Z" />
<glyph unicode="&#xde;" glyph-name="Thorn" horiz-adv-x="633" d="M92 686H146V551H373Q424 551 467 526T535 458T560 364Q560 313 535 270T467 202T373 177H146V0H92V686ZM404 224T437 242T489 293T508 364Q508 402 489 434T437 484T366 503H146V224H366Q404
224 437 242Z" />
<glyph unicode="&#xdf;" glyph-name="germandbls" horiz-adv-x="614" d="M462 365T496 314T531 203Q531 147 502 101T424 27T316 0H224V46H316Q361 46 398 67T458 124T480 203Q480 246 458 282T399 339T316 361H224V407H305Q346 407 381 425T437 475T458 544Q458
602 418 642T315 682Q241 682 197 636T153 514V-66H102V465H46V511H102Q102 576 129 625T204 701T315 728Q371 728 415 704T484 637T509 544Q509 494 480 450T407 388L409 385Q462 365 496 314Z" />
<glyph unicode="&#xe0;" glyph-name="agrave" horiz-adv-x="585" d="M250 575L139 717V720H204L300 575H250ZM447 36T474 36Q497 36 524 52V9Q496 -10 460 -10Q424 -10 410 16T396 89Q365 38 319 14T209 -10Q138 -10 93 22T48 133Q48 204 90 239T205 285T396 296V360Q396
424 366 449T263 475Q197 475 157 450T117 371V355H68Q66 371 66 381Q66 446 121 483T263 521Q356 521 401 484T447 370V69Q447 36 474 36ZM290 250T230 243T134 211T99 132Q99 82 127 59T219 36Q264 36 304 56T370 116T396 216V250Q290 250 230 243Z" />
<glyph unicode="&#xe1;" glyph-name="aacute" horiz-adv-x="585" d="M251 575L347 720H412V717L301 575H251ZM447 36T474 36Q497 36 524 52V9Q496 -10 460 -10Q424 -10 410 16T396 89Q365 38 319 14T209 -10Q138 -10 93 22T48 133Q48 204 90 239T205 285T396 296V360Q396
424 366 449T263 475Q197 475 157 450T117 371V355H68Q66 371 66 381Q66 446 121 483T263 521Q356 521 401 484T447 370V69Q447 36 474 36ZM290 250T230 243T134 211T99 132Q99 82 127 59T219 36Q264 36 304 56T370 116T396 216V250Q290 250 230 243Z" />
<glyph unicode="&#xe2;" glyph-name="acircumflex" horiz-adv-x="585" d="M243 720H301L435 575H375L272 672L169 575H109L243 720ZM447 36T474 36Q497 36 524 52V9Q496 -10 460 -10Q424 -10 410 16T396 89Q365 38 319 14T209 -10Q138 -10 93 22T48 133Q48 204
90 239T205 285T396 296V360Q396 424 366 449T263 475Q197 475 157 450T117 371V355H68Q66 371 66 381Q66 446 121 483T263 521Q356 521 401 484T447 370V69Q447 36 474 36ZM290 250T230 243T134 211T99 132Q99 82 127 59T219 36Q264 36 304 56T370 116T396 216V250Q290
250 230 243Z" />
<glyph unicode="&#xe3;" glyph-name="atilde" horiz-adv-x="585" d="M443 689T419 664T342 638Q320 638 301 642T251 655Q204 670 175 670Q150 670 137 663T118 638H81Q81 668 105 694T182 720Q204 720 223 716T273 703Q320 688 349 688Q374 688 387 695T406 720H443Q443
689 419 664ZM447 36T474 36Q497 36 524 52V9Q496 -10 460 -10Q424 -10 410 16T396 89Q365 38 319 14T209 -10Q138 -10 93 22T48 133Q48 204 90 239T205 285T396 296V360Q396 424 366 449T263 475Q197 475 157 450T117 371V355H68Q66 371 66 381Q66 446 121 483T263
521Q356 521 401 484T447 370V69Q447 36 474 36ZM290 250T230 243T134 211T99 132Q99 82 127 59T219 36Q264 36 304 56T370 116T396 216V250Q290 250 230 243Z" />
<glyph unicode="&#xe4;" glyph-name="adieresis" horiz-adv-x="585" d="M143 720H208V651H143V720ZM319 720H384V651H319V720ZM447 36T474 36Q497 36 524 52V9Q496 -10 460 -10Q424 -10 410 16T396 89Q365 38 319 14T209 -10Q138 -10 93 22T48 133Q48 204 90 239T205
285T396 296V360Q396 424 366 449T263 475Q197 475 157 450T117 371V355H68Q66 371 66 381Q66 446 121 483T263 521Q356 521 401 484T447 370V69Q447 36 474 36ZM290 250T230 243T134 211T99 132Q99 82 127 59T219 36Q264 36 304 56T370 116T396 216V250Q290 250
230 243Z" />
<glyph unicode="&#xe5;" glyph-name="aring" horiz-adv-x="585" d="M365 614T336 585T264 555Q222 555 193 584T163 655Q163 697 192 726T264 756Q306 756 335 727T365 655Q365 614 336 585ZM329 682T310 701T264 720Q237 720 218 701T199 655Q199 628 218 610T264
591Q291 591 310 610T329 655Q329 682 310 701ZM447 36T474 36Q497 36 524 52V9Q496 -10 460 -10Q424 -10 410 16T396 89Q365 38 319 14T209 -10Q138 -10 93 22T48 133Q48 204 90 239T205 285T396 296V360Q396 424 366 449T263 475Q197 475 157 450T117 371V355H68Q66
371 66 381Q66 446 121 483T263 521Q356 521 401 484T447 370V69Q447 36 474 36ZM290 250T230 243T134 211T99 132Q99 82 127 59T219 36Q264 36 304 56T370 116T396 216V250Q290 250 230 243Z" />
<glyph unicode="&#xe6;" glyph-name="ae" horiz-adv-x="895" d="M809 127T783 82T711 14T610 -10Q545 -10 496 22T420 115Q390 50 332 20T209 -10Q134 -10 91 22T48 133Q48 204 90 239T205 285T396 296V360Q396 424 366 449T263 475Q197 475 157 450T117 371V355H68Q66
371 66 381Q66 446 121 483T263 521Q407 521 438 430Q467 474 510 497T609 521Q666 521 711 497T783 426T809 314V250H447V242Q447 142 492 89T610 36Q674 36 716 75T759 189H809Q809 127 783 82ZM542 475T498 429T448 296H759V314Q759 392 717 433T609 475Q542
475 498 429ZM290 250T230 243T134 211T99 132Q99 81 125 59T219 36Q264 36 304 56T370 116T396 216V250Q290 250 230 243Z" />
<glyph unicode="&#xe7;" glyph-name="ccedilla" horiz-adv-x="544" d="M464 132T438 86T367 15T265 -10Q202 -10 154 20T78 109T51 248V263Q51 344 77 402T152 490T264 521Q321 521 366 497T438 426T464 314H414Q414 392 372 433T264 475Q192 475 147 422T102
269V242Q102 142 147 89T265 36Q330 36 372 77T414 197H464Q464 132 438 86ZM190 -151T235 -151Q268 -151 289 -139T311 -97Q311 -75 294 -63T253 -51H231V-17H256Q302 -17 332 -37T362 -106Q362 -155 326 -176T244 -197Q201 -197 166 -184V-138Q190 -151 235 -151Z"
/>
<glyph unicode="&#xe8;" glyph-name="egrave" horiz-adv-x="556" d="M245 575L134 717V720H199L295 575H245ZM464 127T438 82T366 14T265 -10Q202 -10 154 20T78 109T51 248V263Q51 344 77 402T152 490T264 521Q321 521 366 497T438 426T464 314V250H102V242Q102
142 147 89T265 36Q329 36 371 75T414 189H464Q464 127 438 82ZM197 475T153 429T103 296H414V314Q414 392 372 433T264 475Q197 475 153 429Z" />
<glyph unicode="&#xe9;" glyph-name="eacute" horiz-adv-x="556" d="M245 575L341 720H406V717L295 575H245ZM464 127T438 82T366 14T265 -10Q202 -10 154 20T78 109T51 248V263Q51 344 77 402T152 490T264 521Q321 521 366 497T438 426T464 314V250H102V242Q102
142 147 89T265 36Q329 36 371 75T414 189H464Q464 127 438 82ZM197 475T153 429T103 296H414V314Q414 392 372 433T264 475Q197 475 153 429Z" />
<glyph unicode="&#xea;" glyph-name="ecircumflex" horiz-adv-x="556" d="M237 720H295L429 575H369L266 672L163 575H103L237 720ZM464 127T438 82T366 14T265 -10Q202 -10 154 20T78 109T51 248V263Q51 344 77 402T152 490T264 521Q321 521 366 497T438 426T464
314V250H102V242Q102 142 147 89T265 36Q329 36 371 75T414 189H464Q464 127 438 82ZM197 475T153 429T103 296H414V314Q414 392 372 433T264 475Q197 475 153 429Z" />
<glyph unicode="&#xeb;" glyph-name="edieresis" horiz-adv-x="556" d="M150 720H215V651H150V720ZM326 720H391V651H326V720ZM464 127T438 82T366 14T265 -10Q202 -10 154 20T78 109T51 248V263Q51 344 77 402T152 490T264 521Q321 521 366 497T438 426T464 314V250H102V242Q102
142 147 89T265 36Q329 36 371 75T414 189H464Q464 127 438 82ZM197 475T153 429T103 296H414V314Q414 392 372 433T264 475Q197 475 153 429Z" />
<glyph unicode="&#xec;" glyph-name="igrave" horiz-adv-x="260" d="M117 575L6 717V720H71L167 575H117ZM114 0V511H165V0H114Z" />
<glyph unicode="&#xed;" glyph-name="iacute" horiz-adv-x="260" d="M93 575L189 720H254V717L143 575H93ZM95 0V511H146V0H95Z" />
<glyph unicode="&#xee;" glyph-name="icircumflex" horiz-adv-x="260" d="M103 720H161L295 575H235L132 672L29 575H-31L103 720ZM108 0V511H159V0H108Z" />
<glyph unicode="&#xef;" glyph-name="idieresis" horiz-adv-x="260" d="M11 720H76V651H11V720ZM187 720H252V651H187V720ZM106 0V511H157V0H106Z" />
<glyph unicode="&#xf0;" glyph-name="eth" horiz-adv-x="575" d="M210 685T243 661L347 711L370 688L271 640Q367 566 425 471T484 263V248Q484 167 457 109T380 21T268 -10Q205 -10 156 20T80 109T52 248V263Q52 344 79 402T156 490T268 521Q306 521 343 508Q297
563 230 620L128 570L102 593L203 642Q168 669 111 707L148 724Q210 685 243 661ZM341 36T387 89T433 242V269Q433 369 387 422T268 475Q195 475 149 422T103 269V242Q103 142 149 89T268 36Q341 36 387 89Z" />
<glyph unicode="&#xf1;" glyph-name="ntilde" horiz-adv-x="593" d="M472 688T448 663T371 637Q349 637 330 641T280 654Q233 669 204 669Q179 669 166 662T147 637H110Q110 667 134 693T211 719Q233 719 252 715T302 702Q349 687 378 687Q403 687 416 694T435
719H472Q472 688 448 663ZM435 314Q435 395 398 435T291 475Q247 475 211 454T155 396T134 314V0H83V511H117L128 435Q154 475 199 498T296 521Q380 521 432 473T485 329V0H435V314Z" />
<glyph unicode="&#xf2;" glyph-name="ograve" horiz-adv-x="574" d="M252 575L141 717V720H206L302 575H252ZM205 -10T156 20T80 109T52 248V263Q52 344 79 402T156 490T268 521Q331 521 380 491T456 402T484 263V248Q484 167 457 109T380 21T268 -10Q205 -10
156 20ZM341 36T387 89T433 242V269Q433 369 387 422T268 475Q195 475 149 422T103 269V242Q103 142 149 89T268 36Q341 36 387 89Z" />
<glyph unicode="&#xf3;" glyph-name="oacute" horiz-adv-x="574" d="M254 575L350 720H415V717L304 575H254ZM205 -10T156 20T80 109T52 248V263Q52 344 79 402T156 490T268 521Q331 521 380 491T456 402T484 263V248Q484 167 457 109T380 21T268 -10Q205 -10
156 20ZM341 36T387 89T433 242V269Q433 369 387 422T268 475Q195 475 149 422T103 269V242Q103 142 149 89T268 36Q341 36 387 89Z" />
<glyph unicode="&#xf4;" glyph-name="ocircumflex" horiz-adv-x="574" d="M242 720H300L434 575H374L271 672L168 575H108L242 720ZM205 -10T156 20T80 109T52 248V263Q52 344 79 402T156 490T268 521Q331 521 380 491T456 402T484 263V248Q484 167 457 109T380
21T268 -10Q205 -10 156 20ZM341 36T387 89T433 242V269Q433 369 387 422T268 475Q195 475 149 422T103 269V242Q103 142 149 89T268 36Q341 36 387 89Z" />
<glyph unicode="&#xf5;" glyph-name="otilde" horiz-adv-x="574" d="M451 689T427 664T350 638Q328 638 309 642T259 655Q212 670 183 670Q158 670 145 663T126 638H89Q89 668 113 694T190 720Q212 720 231 716T281 703Q328 688 357 688Q382 688 395 695T414 720H451Q451
689 427 664ZM205 -10T156 20T80 109T52 248V263Q52 344 79 402T156 490T268 521Q331 521 380 491T456 402T484 263V248Q484 167 457 109T380 21T268 -10Q205 -10 156 20ZM341 36T387 89T433 242V269Q433 369 387 422T268 475Q195 475 149 422T103 269V242Q103
142 149 89T268 36Q341 36 387 89Z" />
<glyph unicode="&#xf6;" glyph-name="odieresis" horiz-adv-x="574" d="M148 720H213V651H148V720ZM324 720H389V651H324V720ZM205 -10T156 20T80 109T52 248V263Q52 344 79 402T156 490T268 521Q331 521 380 491T456 402T484 263V248Q484 167 457 109T380 21T268
-10Q205 -10 156 20ZM341 36T387 89T433 242V269Q433 369 387 422T268 475Q195 475 149 422T103 269V242Q103 142 149 89T268 36Q341 36 387 89Z" />
<glyph unicode="&#xf7;" glyph-name="divide" horiz-adv-x="615" d="M274 439H339V370H274V439ZM51 226V284H563V226H51ZM274 140H339V71H274V140Z" />
<glyph unicode="&#xf8;" glyph-name="oslash" horiz-adv-x="574" d="M52 120T52 248V263Q52 344 79 402T156 490T268 521Q335 521 387 485L439 569H484L417 461Q449 427 466 377T484 263V248Q484 167 457 109T380 21T268 -10Q198 -10 147 26L97 -55H52L118 51Q52
120 52 248ZM103 149T145 94L362 445Q323 475 268 475Q195 475 149 422T103 269V242Q103 149 145 94ZM341 36T387 89T433 242V269Q433 364 390 418L172 66Q213 36 268 36Q341 36 387 89Z" />
<glyph unicode="&#xf9;" glyph-name="ugrave" horiz-adv-x="618" d="M262 575L151 717V720H216L312 575H262ZM404 36T360 13T265 -10Q181 -10 130 38T78 182V511H129V197Q129 116 166 76T273 36Q317 36 353 57T409 115T430 197V511H481V69Q481 36 508 36Q531 36
558 52V9Q530 -10 494 -10Q460 -10 445 15T430 76Q404 36 360 13Z" />
<glyph unicode="&#xfa;" glyph-name="uacute" horiz-adv-x="618" d="M257 575L353 720H418V717L307 575H257ZM404 36T360 13T265 -10Q181 -10 130 38T78 182V511H129V197Q129 116 166 76T273 36Q317 36 353 57T409 115T430 197V511H481V69Q481 36 508 36Q531 36
558 52V9Q530 -10 494 -10Q460 -10 445 15T430 76Q404 36 360 13Z" />
<glyph unicode="&#xfb;" glyph-name="ucircumflex" horiz-adv-x="618" d="M251 720H309L443 575H383L280 672L177 575H117L251 720ZM404 36T360 13T265 -10Q181 -10 130 38T78 182V511H129V197Q129 116 166 76T273 36Q317 36 353 57T409 115T430 197V511H481V69Q481
36 508 36Q531 36 558 52V9Q530 -10 494 -10Q460 -10 445 15T430 76Q404 36 360 13Z" />
<glyph unicode="&#xfc;" glyph-name="udieresis" horiz-adv-x="618" d="M156 720H221V651H156V720ZM332 720H397V651H332V720ZM404 36T360 13T265 -10Q181 -10 130 38T78 182V511H129V197Q129 116 166 76T273 36Q317 36 353 57T409 115T430 197V511H481V69Q481
36 508 36Q531 36 558 52V9Q530 -10 494 -10Q460 -10 445 15T430 76Q404 36 360 13Z" />
<glyph unicode="&#xfd;" glyph-name="yacute" horiz-adv-x="512" d="M221 575L317 720H382V717L271 575H221ZM258 -11T254 -23Q232 -81 216 -113T174 -165T110 -186Q78 -186 47 -172V-126Q80 -140 101 -140Q127 -140 145 -125T173 -91T195 -41L215 8L12 511H67L241
76H245L420 511H470L268 13Q258 -11 254 -23Z" />
<glyph unicode="&#xfe;" glyph-name="thorn" horiz-adv-x="583" d="M133 720V441Q189 521 297 521Q387 521 443 454T500 251V240Q500 161 473 105T400 19T297 -10Q244 -10 202 11T134 71V-181H83V720H133ZM133 139T177 88T292 36Q361 36 405 88T449 242V253Q449
370 406 422T292 475Q220 475 177 424T133 254V242Q133 139 177 88Z" />
<glyph unicode="&#xff;" glyph-name="ydieresis" horiz-adv-x="512" d="M124 720H189V651H124V720ZM300 720H365V651H300V720ZM258 -11T254 -23Q232 -81 216 -113T174 -165T110 -186Q78 -186 47 -172V-126Q80 -140 101 -140Q127 -140 145 -125T173 -91T195 -41L215
8L12 511H67L241 76H245L420 511H470L268 13Q258 -11 254 -23Z" />
<glyph unicode="&#x2013;" glyph-name="endash" horiz-adv-x="638" d="M69 239V297H569V239H69Z" />
<glyph unicode="&#x2014;" glyph-name="emdash" horiz-adv-x="1058" d="M72 239V296H982V239H72Z" />
<glyph unicode="&#x2018;" glyph-name="quoteleft" horiz-adv-x="224" d="M121 670T113 636T102 585H126V516H61V574L91 686H125Q121 670 113 636Z" />
<glyph unicode="&#x2019;" glyph-name="quoteright" horiz-adv-x="219" d="M66 532T74 566T85 617H61V686H126V628L96 516H62Q66 532 74 566Z" />
<glyph unicode="&#x201a;" glyph-name="quotesinglbase" horiz-adv-x="238" d="M74 -85T82 -51T93 0H69V69H134V11L104 -101H70Q74 -85 82 -51Z" />
<glyph unicode="&#x201c;" glyph-name="quotedblleft" horiz-adv-x="366" d="M121 670T113 636T102 585H126V516H61V574L91 686H125Q121 670 113 636ZM220 670T212 636T201 585H225V516H160V574L190 686H224Q220 670 212 636Z" />
<glyph unicode="&#x201d;" glyph-name="quotedblright" horiz-adv-x="361" d="M66 532T74 566T85 617H61V686H126V628L96 516H62Q66 532 74 566ZM165 532T173 566T184 617H160V686H225V628L195 516H161Q165 532 173 566Z" />
<glyph unicode="&#x201e;" glyph-name="quotedblbase" horiz-adv-x="380" d="M74 -85T82 -51T93 0H69V69H134V11L104 -101H70Q74 -85 82 -51ZM173 -85T181 -51T192 0H168V69H233V11L203 -101H169Q173 -85 181 -51Z" />
<glyph unicode="&#x2022;" glyph-name="bullet" horiz-adv-x="600" d="M432 306T413 274T361 222T290 203Q252 203 220 222T169 273T150 344Q150 382 169 414T220 466T290 485Q328 485 361 466T413 415T432 344Q432 306 413 274Z" />
<glyph unicode="&#x2039;" glyph-name="guilsinglleft" horiz-adv-x="278" d="M172 163L49 337L172 511H213L116 337L213 163H172Z" />
<glyph unicode="&#x203a;" glyph-name="guilsinglright" horiz-adv-x="278" d="M56 163L153 337L56 511H97L220 337L97 163H56Z" />
</font>
</defs>
</svg>
