<?xml version="1.0" standalone="no"?>
<!DOCTYPE svg PUBLIC "-//W3C//DTD SVG 1.1//EN" "http://www.w3.org/Graphics/SVG/1.1/DTD/svg11.dtd">
<svg xmlns="http://www.w3.org/2000/svg">
<defs >
<font id="Mitr" horiz-adv-x="581" ><font-face
    font-family="Mitr ExtraLight"
    units-per-em="1000"
    panose-1="0 0 3 0 0 0 0 0 0 0"
    ascent="1150"
    descent="-420"
    alphabetic="0" />
<glyph unicode=" " glyph-name="space" horiz-adv-x="450" />
<glyph unicode="!" glyph-name="exclam" horiz-adv-x="186" d="M81 200T77 205T72 222L66 657Q66 680 89 680H97Q120 680 120 657L114 222Q114 210 110 205T93 200Q81 200 77 205ZM73 0T64 9T55 33V51Q55 65 64 74T86 84H100Q114 84 122 75T131 51V33Q131 19 122
10T100 0H86Q73 0 64 9Z" />
<glyph unicode="&quot;" glyph-name="quotedbl" horiz-adv-x="317" d="M58 499T58 522L55 672Q55 695 78 695H86Q109 695 109 672L106 522Q106 499 84 499H80Q58 499 58 522ZM211 499T211 522L208 672Q208 695 231 695H239Q262 695 262 672L259 522Q259 499 237
499H233Q211 499 211 522Z" />
<glyph unicode="#" glyph-name="numbersign" horiz-adv-x="774" d="M80 0T86 13L159 192H78Q66 192 61 196T55 212V219Q55 241 78 241H179L258 432H118Q106 432 101 436T95 452V459Q95 481 118 481H278L356 670Q360 680 371 680H404Q417 680 411 667L334 481H562L640
670Q644 680 655 680H688Q701 680 695 667L618 481H696Q719 481 719 459V452Q719 441 714 437T696 432H598L520 241H656Q679 241 679 219V212Q679 201 674 197T656 192H500L425 10Q421 0 410 0H377Q364 0 370 13L443 192H216L141 10Q137 0 126 0H93Q80 0 86 13ZM463
241L542 432H314L236 241H463Z" />
<glyph unicode="$" glyph-name="dollar" horiz-adv-x="572" d="M273 -93T273 -70V-15Q215 -13 156 -2T63 33Q57 37 56 40T58 49L71 71Q74 77 78 77Q80 77 85 74Q117 55 172 43T283 31Q372 31 418 61T465 161Q465 208 445 235T387 281T274 324Q212 344 171 364T101
422T73 518Q73 602 127 646T273 694V752Q273 775 296 775H304Q327 775 327 752V694Q378 690 421 678T491 648Q497 644 498 641T496 632L483 610Q480 604 476 604Q473 604 469 607Q437 627 395 638T288 649Q125 649 125 518Q125 474 143 448T195 406T297 366Q305
364 321 358Q393 333 432 312T494 255T517 160Q517 85 469 41T327 -13V-70Q327 -93 304 -93H296Q273 -93 273 -70Z" />
<glyph unicode="%" glyph-name="percent" horiz-adv-x="731" d="M159 409T126 427T74 478T55 552Q55 593 74 625T126 676T198 695Q237 695 270 677T322 626T341 552Q341 511 322 479T270 428T198 409Q159 409 126 427ZM110 0T109 4T110 13L560 670Q564 675 567
677T575 680H613Q620 680 621 676T620 667L170 10Q166 5 163 3T155 0H117Q110 0 109 4ZM238 457T265 484T293 552Q293 593 266 620T198 647Q158 647 131 620T103 552Q103 511 130 484T198 457Q238 457 265 484ZM494 -15T461 3T409 54T390 128Q390 169 409 201T461
252T533 271Q572 271 605 253T657 202T676 128Q676 87 657 55T605 4T533 -15Q494 -15 461 3ZM573 33T600 60T628 128Q628 169 601 196T533 223Q493 223 466 196T438 128Q438 87 465 60T533 33Q573 33 600 60Z" />
<glyph unicode="&amp;" glyph-name="ampersand" horiz-adv-x="729" d="M186 -15T121 40T55 188Q55 250 86 299T171 364Q127 387 106 426T84 514Q84 567 112 608T194 672T323 695Q395 695 443 679T526 635Q532 631 533 628T531 619L514 597Q509 592 507 591T500
594Q469 619 427 632T324 646Q237 646 187 614T136 514Q136 452 171 420T267 388H661Q684 388 684 366V359Q684 348 679 344T661 339H604V279Q604 146 539 66T326 -15Q186 -15 121 40ZM445 31T498 92T552 274V339H271Q192 339 150 302T107 188Q107 31 326 31Q445
31 498 92Z" />
<glyph unicode="&apos;" glyph-name="quotesingle" horiz-adv-x="164" d="M58 499T58 522L55 672Q55 695 78 695H86Q109 695 109 672L106 522Q106 499 84 499H80Q58 499 58 522Z" />
<glyph unicode="(" glyph-name="parenleft" horiz-adv-x="332" d="M166 -80T111 40T55 316Q55 471 110 591T265 760Q273 764 281 764Q297 764 297 746Q297 733 292 727T274 713Q193 663 150 556T107 316Q107 183 150 76T274 -81Q287 -89 292 -95T297 -114Q297
-132 281 -132Q273 -132 265 -128Q166 -80 111 40Z" />
<glyph unicode=")" glyph-name="parenright" horiz-adv-x="332" d="M59 -132T51 -132Q35 -132 35 -114Q35 -101 40 -95T58 -81Q139 -31 182 76T225 316Q225 449 182 556T58 713Q45 721 40 727T35 746Q35 764 51 764Q59 764 67 760Q166 712 221 592T277 316Q277
161 222 41T67 -128Q59 -132 51 -132Z" />
<glyph unicode="*" glyph-name="asterisk" horiz-adv-x="412" d="M308 399T304 399Q299 399 293 406L206 502L119 407Q113 400 108 400Q104 400 99 404L81 419Q76 423 76 428Q76 433 81 438L170 534L63 581Q57 583 56 587T57 596L70 618Q73 623 76 624T85 622L179
579V679Q179 702 202 702H210Q233 702 233 679V578L327 621Q330 623 334 623Q339 623 342 617L355 595Q357 591 357 589Q357 583 349 580L242 533L331 437Q336 432 336 427Q336 422 331 418L313 403Q308 399 304 399Z" />
<glyph unicode="+" glyph-name="plus" horiz-adv-x="474" d="M210 127T210 150V270H78Q66 270 61 274T55 290V297Q55 319 78 319H210V439Q210 462 233 462H241Q264 462 264 439V319H396Q419 319 419 297V290Q419 279 414 275T396 270H264V150Q264 127 241 127H233Q210
127 210 150Z" />
<glyph unicode="," glyph-name="comma" horiz-adv-x="226" d="M56 -119T56 -111Q56 -106 57 -103L113 63Q116 71 120 74T135 77H159Q171 77 171 69L169 61L97 -108Q94 -114 90 -116T77 -119H65Q56 -119 56 -111Z" />
<glyph unicode="-" glyph-name="hyphen" horiz-adv-x="474" d="M66 270T61 274T55 290V297Q55 319 78 319H396Q419 319 419 297V290Q419 279 414 275T396 270H78Q66 270 61 274Z" />
<glyph unicode="." glyph-name="period" horiz-adv-x="186" d="M73 0T64 9T55 33V46Q55 60 64 69T86 79H100Q113 79 122 70T131 46V33Q131 19 123 10T100 0H86Q73 0 64 9Z" />
<glyph unicode="/" glyph-name="slash" horiz-adv-x="439" d="M51 0T57 13L327 670Q331 680 342 680H375Q388 680 382 667L112 10Q108 0 97 0H64Q51 0 57 13Z" />
<glyph unicode="0" glyph-name="zero" horiz-adv-x="738" d="M215 -15T135 77T55 340Q55 510 135 602T369 695Q523 695 603 603T683 340Q683 170 603 78T369 -15Q215 -15 135 77ZM529 604Q467 649 369 649Q240 649 174 571T107 340Q107 184 176 106L529 604ZM498
31T564 109T631 340Q631 490 565 570L213 73Q273 31 369 31Q498 31 564 109Z" />
<glyph unicode="1" glyph-name="one" horiz-adv-x="444" d="M76 0T71 4T65 20V27Q65 49 88 49H210V614L94 544Q85 538 78 538Q70 538 64 549L60 555Q56 562 56 568Q56 579 68 586L216 675Q224 680 235 680H241Q264 680 264 657V49H386Q409 49 409 27V20Q409 9
404 5T386 0H88Q76 0 71 4Z" />
<glyph unicode="2" glyph-name="two" horiz-adv-x="572" d="M55 0T55 23V55Q55 120 110 185T265 300Q342 338 384 367T445 431T465 514Q465 581 415 615T287 649Q172 649 106 607Q101 604 99 604Q95 604 92 610L79 632Q77 635 77 639Q77 644 84 648Q114 669 168
682T287 695Q352 695 404 674T486 612T517 514Q517 455 492 412T422 336T305 268Q208 220 159 165T109 49H486Q509 49 509 27V20Q509 9 504 5T486 0H78Q55 0 55 23Z" />
<glyph unicode="3" glyph-name="three" horiz-adv-x="585" d="M211 -15T155 -3T63 32Q57 36 56 39T58 48L71 70Q74 76 78 76Q80 76 85 73Q157 31 280 31Q379 31 428 74T478 188Q478 260 436 294T310 329H223Q200 329 200 351V358Q200 369 205 373T223 378H317Q385
378 420 417T456 513Q456 581 409 615T275 649Q221 649 176 638T101 607Q97 604 94 604Q90 604 87 610L74 632Q72 635 72 639Q72 644 79 648Q109 669 163 682T279 695Q385 695 446 645T508 513Q508 462 481 418T405 354Q471 334 500 293T530 188Q530 129 502 83T418
11T283 -15Q211 -15 155 -3Z" />
<glyph unicode="4" glyph-name="four" horiz-adv-x="626" d="M422 0T422 23V160H55Q35 160 35 178V185Q35 199 44 209L424 670Q432 680 444 680H453Q476 680 476 657V209H568Q591 209 591 187V180Q591 169 586 165T568 160H476V23Q476 0 453 0H445Q422 0 422 23ZM422
209V595L103 209H422Z" />
<glyph unicode="5" glyph-name="five" horiz-adv-x="602" d="M213 -15T153 -2T63 32Q57 36 56 39T58 48L71 70Q74 76 78 76Q80 76 85 73Q115 54 166 43T278 31Q379 31 437 77T495 212Q495 313 444 355T290 397Q195 397 127 364Q119 360 110 360Q96 360 87 370T78
396L95 657Q95 680 118 680H494Q506 680 511 676T517 660V653Q517 631 494 631H147L133 416Q169 430 207 436T301 443Q415 443 481 386T547 212Q547 105 473 45T278 -15Q213 -15 153 -2Z" />
<glyph unicode="6" glyph-name="six" horiz-adv-x="637" d="M198 -15T127 57T55 290Q55 442 96 532T200 659T336 695Q392 695 437 683T514 650Q520 646 521 643T519 634L506 612Q503 606 499 606Q497 606 492 609Q429 649 335 649Q241 649 184 580T112 381Q146
429 200 452T330 475Q403 475 460 448T549 369T582 243Q582 116 512 51T315 -15Q198 -15 127 57ZM530 31T530 243Q530 336 476 382T321 428Q274 428 225 408T142 347T109 252Q109 141 167 86T315 31Q530 31 530 243Z" />
<glyph unicode="7" glyph-name="seven" horiz-adv-x="587" d="M138 0T138 6Q138 11 142 18L471 631H68Q45 631 45 653V660Q45 671 50 675T68 680H520Q542 680 542 660Q542 653 538 644T527 623L197 6Q195 2 193 1T185 0H145Q138 0 138 6Z" />
<glyph unicode="8" glyph-name="eight" horiz-adv-x="630" d="M193 -15T124 36T55 179Q55 245 91 291T189 354Q76 395 76 508Q76 598 137 646T315 695Q431 695 492 647T554 508Q554 395 441 354Q502 338 538 292T575 179Q575 87 506 36T315 -15Q193 -15 124 36ZM407
377T454 407T502 508Q502 583 456 616T315 649Q220 649 174 616T128 508Q128 437 175 407T315 377Q407 377 454 407ZM420 31T471 67T523 179Q523 330 315 330Q107 330 107 179Q107 104 158 68T315 31Q420 31 471 67Z" />
<glyph unicode="9" glyph-name="nine" horiz-adv-x="629" d="M237 -15T192 -3T115 30Q109 34 108 37T110 46L123 68Q126 74 130 74Q132 74 137 71Q200 31 294 31Q391 31 450 101T518 300Q440 205 309 205Q235 205 178 232T88 311T55 435Q55 563 128 629T327 695Q441
695 507 622T574 390Q574 168 492 77T293 -15Q237 -15 192 -3ZM365 252T412 272T489 332T520 428Q520 538 469 593T327 649Q107 649 107 435Q107 345 162 299T318 252Q365 252 412 272Z" />
<glyph unicode=":" glyph-name="colon" horiz-adv-x="186" d="M73 409T64 418T55 442V460Q55 474 64 483T86 493H100Q114 493 122 484T131 460V442Q131 428 122 419T100 409H86Q73 409 64 418ZM73 0T64 9T55 33V51Q55 65 64 74T86 84H100Q114 84 122 75T131 51V33Q131
19 122 10T100 0H86Q73 0 64 9Z" />
<glyph unicode=";" glyph-name="semicolon" horiz-adv-x="231" d="M118 409T109 418T100 442V460Q100 474 109 483T131 493H145Q159 493 167 484T176 460V442Q176 428 167 419T145 409H131Q118 409 109 418ZM56 -119T56 -111Q56 -106 57 -103L113 63Q116 71 120
74T135 77H159Q171 77 171 69L169 61L97 -108Q94 -114 90 -116T77 -119H65Q56 -119 56 -111Z" />
<glyph unicode="&lt;" glyph-name="less" horiz-adv-x="590" d="M72 245Q63 250 59 254T55 268V280Q55 289 59 293T72 303L517 512Q521 514 523 514Q528 514 531 510T535 500V481Q535 470 531 465T518 456L123 274L518 92Q527 88 531 83T535 67V48Q535 40 530
36T517 36L72 245Z" />
<glyph unicode="=" glyph-name="equal" horiz-adv-x="458" d="M66 342T61 346T55 362V369Q55 391 78 391H380Q403 391 403 369V362Q403 351 398 347T380 342H78Q66 342 61 346ZM66 192T61 196T55 212V219Q55 241 78 241H380Q403 241 403 219V212Q403 201 398 197T380
192H78Q66 192 61 196Z" />
<glyph unicode="&gt;" glyph-name="greater" horiz-adv-x="590" d="M69 34T67 34Q62 34 59 38T55 48V67Q55 78 59 83T72 92L467 274L72 456Q63 460 59 465T55 481V500Q55 508 60 512T73 512L518 303Q527 298 531 294T535 280V268Q535 259 531 255T518 245L73 36Q69
34 67 34Z" />
<glyph unicode="?" glyph-name="question" horiz-adv-x="536" d="M193 140T193 163V186Q193 254 220 298T308 374Q360 401 385 420T419 461T429 518Q429 581 383 615T266 649Q202 649 160 638T85 607Q80 604 78 604Q74 604 71 610L58 632Q56 635 56 639Q56 644
63 648Q93 669 147 682T266 695Q363 695 422 648T481 518Q481 455 452 417T354 342Q309 318 287 298T256 251T247 183V163Q247 140 224 140H216Q193 140 193 163ZM200 0T191 9T182 33V49Q182 63 191 72T213 82H227Q241 82 249 73T258 49V33Q258 19 249 10T227 0H213Q200
0 191 9Z" />
<glyph unicode="@" glyph-name="at" horiz-adv-x="914" d="M337 -89T247 -43T106 91T55 302Q55 506 167 610T478 714Q666 714 762 617T859 349Q859 237 813 173T691 109Q652 109 628 129T594 186Q564 149 520 130T421 110Q338 110 288 158T237 295Q237 403 299
468T474 533Q519 533 563 520T636 487V226Q636 189 649 172T692 155Q746 155 776 206T807 350Q807 503 725 585T478 668Q305 668 206 579T107 302Q107 188 153 111T277 -5T453 -43Q505 -43 553 -31T630 1Q635 4 637 4Q641 4 644 -2L657 -24Q659 -30 659 -31Q659
-36 652 -40Q616 -64 563 -76T453 -89Q337 -89 247 -43ZM474 158T507 172T562 214T583 278V459Q538 485 472 485Q387 485 338 437T289 301Q289 227 324 193T438 158Q474 158 507 172Z" />
<glyph unicode="A" glyph-name="A" horiz-adv-x="720" d="M61 0T58 5T57 18L331 663Q335 673 338 676T351 680H369Q378 680 381 677T389 663L663 18Q664 16 664 12Q664 7 661 4T651 0H632Q621 0 616 4T607 17L531 197H189L113 17Q109 8 104 4T88 0H69Q61 0 58
5ZM510 246L360 601L209 246H510Z" />
<glyph unicode="B" glyph-name="B" horiz-adv-x="647" d="M75 0T75 23V657Q75 680 98 680H384Q475 680 522 633T570 505Q570 455 543 415T467 354Q592 317 592 188Q592 107 541 54T391 0H98Q75 0 75 23ZM379 378Q445 378 481 414T518 505Q518 567 483 599T378
631H129V378H379ZM392 49Q469 49 504 88T540 188Q540 259 496 294T372 329H129V49H392Z" />
<glyph unicode="C" glyph-name="C" horiz-adv-x="675" d="M231 -15T143 78T55 340Q55 508 143 601T393 695Q453 695 507 683T598 647Q604 643 605 640T603 631L590 609Q587 603 583 603Q581 603 576 606Q546 626 499 637T394 649Q261 649 184 573T107 340Q107
184 185 108T394 31Q459 31 506 42T590 76Q595 79 597 79Q601 79 604 73L617 51Q619 45 619 44Q619 39 612 35Q571 9 518 -3T393 -15Q231 -15 143 78Z" />
<glyph unicode="D" glyph-name="D" horiz-adv-x="677" d="M75 0T75 23V657Q75 680 98 680H278Q443 680 532 601T622 340Q622 159 533 80T278 0H98Q75 0 75 23ZM284 49Q424 49 497 115T570 340Q570 498 497 564T284 631H129V49H284Z" />
<glyph unicode="E" glyph-name="E" horiz-adv-x="582" d="M75 0T75 23V657Q75 680 98 680H514Q526 680 531 676T537 660V653Q537 631 514 631H129V365H427Q439 365 444 361T450 345V338Q450 316 427 316H129V49H514Q537 49 537 27V20Q537 9 532 5T514 0H98Q75 0 75 23Z" />
<glyph unicode="F" glyph-name="F" horiz-adv-x="572" d="M75 0T75 23V657Q75 680 98 680H514Q526 680 531 676T537 660V653Q537 631 514 631H129V365H427Q439 365 444 361T450 345V338Q450 316 427 316H129V23Q129 0 106 0H98Q75 0 75 23Z" />
<glyph unicode="G" glyph-name="G" horiz-adv-x="696" d="M231 -15T143 78T55 340Q55 508 143 601T393 695Q453 695 507 683T598 647Q604 643 605 640T603 631L590 609Q587 603 583 603Q581 603 576 606Q546 626 499 637T394 649Q261 649 184 573T107 340Q107
184 185 108T394 31Q450 31 501 40T587 67V316H409Q386 316 386 338V345Q386 356 391 360T409 365H618Q641 365 641 342V59Q641 50 640 45T632 36Q533 -15 393 -15Q231 -15 143 78Z" />
<glyph unicode="H" glyph-name="H" horiz-adv-x="686" d="M75 0T75 23V657Q75 680 98 680H106Q129 680 129 657V369H557V657Q557 680 580 680H588Q611 680 611 657V23Q611 0 588 0H580Q557 0 557 23V320H129V23Q129 0 106 0H98Q75 0 75 23Z" />
<glyph unicode="I" glyph-name="I" horiz-adv-x="204" d="M75 0T75 23V657Q75 680 98 680H106Q129 680 129 657V23Q129 0 106 0H98Q75 0 75 23Z" />
<glyph unicode="J" glyph-name="J" horiz-adv-x="463" d="M105 -15T43 23Q32 29 38 39L52 61Q55 67 59 67Q62 67 66 64Q90 48 124 40T196 31Q268 31 303 66T339 172V657Q339 680 362 680H370Q393 680 393 657V174Q393 89 345 37T204 -15Q105 -15 43 23Z" />
<glyph unicode="K" glyph-name="K" horiz-adv-x="609" d="M75 0T75 23V657Q75 680 98 680H106Q129 680 129 657V23Q129 0 106 0H98Q75 0 75 23ZM499 0T497 1T490 6L197 311Q195 313 190 318T183 328T181 340Q181 348 184 353T191 362T197 369L485 674Q489 678
491 679T501 680H539Q549 680 549 673Q549 669 542 662L238 340L547 18Q554 11 554 7Q554 0 544 0H506Q499 0 497 1Z" />
<glyph unicode="L" glyph-name="L" horiz-adv-x="542" d="M75 0T75 23V657Q75 680 98 680H106Q129 680 129 657V49H484Q507 49 507 27V20Q507 9 502 5T484 0H98Q75 0 75 23Z" />
<glyph unicode="M" glyph-name="M" horiz-adv-x="794" d="M75 0T75 23V657Q75 680 98 680H112Q123 680 128 678T138 665L397 84L656 665Q660 675 665 677T682 680H696Q719 680 719 657V23Q719 0 696 0H688Q665 0 665 23V561L419 14Q413 0 397 0Q381 0 375 14L129
561V23Q129 0 106 0H98Q75 0 75 23Z" />
<glyph unicode="N" glyph-name="N" horiz-adv-x="696" d="M75 0T75 23V657Q75 680 98 680H112Q121 680 126 677T138 665L567 81V657Q567 680 590 680H598Q621 680 621 657V23Q621 0 598 0H584Q575 0 570 3T558 15L129 597V23Q129 0 106 0H98Q75 0 75 23Z" />
<glyph unicode="O" glyph-name="O" horiz-adv-x="768" d="M281 -15T207 27T94 149T55 340Q55 451 94 531T207 653T384 695Q487 695 561 653T674 531T713 340Q713 229 674 149T561 27T384 -15Q281 -15 207 27ZM515 31T588 110T661 340Q661 490 588 569T384 649Q253
649 180 570T107 340Q107 190 180 111T384 31Q515 31 588 110Z" />
<glyph unicode="P" glyph-name="P" horiz-adv-x="612" d="M75 0T75 23V657Q75 680 98 680H365Q469 680 523 623T577 464Q577 363 523 306T364 248H129V23Q129 0 106 0H98Q75 0 75 23ZM369 297Q449 297 487 338T525 464Q525 548 487 589T369 631H129V297H369Z" />
<glyph unicode="Q" glyph-name="Q" horiz-adv-x="768" d="M447 -181T398 -135T348 -13Q209 -2 132 90T55 340Q55 451 94 531T207 653T384 695Q487 695 561 653T674 531T713 340Q713 177 631 84T402 -15Q402 -75 439 -105T540 -135Q605 -135 653 -103Q657 -100
660 -100Q664 -100 667 -106L681 -128Q683 -131 683 -135Q683 -141 676 -144Q641 -164 608 -172T532 -181Q447 -181 398 -135ZM515 31T588 110T661 340Q661 490 588 569T384 649Q253 649 180 570T107 340Q107 190 180 111T384 31Q515 31 588 110Z" />
<glyph unicode="R" glyph-name="R" horiz-adv-x="632" d="M75 0T75 23V657Q75 680 98 680H365Q469 680 523 629T577 484Q577 406 540 357T428 293L551 16L553 8Q553 0 541 0H517Q507 0 503 3T494 17L374 288H129V23Q129 0 106 0H98Q75 0 75 23ZM369 337Q449 337
487 372T525 484Q525 560 487 595T369 631H129V337H369Z" />
<glyph unicode="S" glyph-name="S" horiz-adv-x="572" d="M227 -15T164 -3T63 33Q57 37 56 40T58 49L71 71Q74 77 78 77Q80 77 85 74Q117 55 172 43T283 31Q372 31 418 61T465 161Q465 208 445 235T387 281T274 324Q212 344 171 364T101 422T73 518Q73 605 132
650T288 695Q352 695 406 682T491 648Q497 644 498 641T496 632L483 610Q480 604 476 604Q473 604 469 607Q437 627 395 638T288 649Q125 649 125 518Q125 474 143 448T195 406T297 366Q305 364 321 358Q393 333 432 312T494 255T517 160Q517 76 457 31T283 -15Q227
-15 164 -3Z" />
<glyph unicode="T" glyph-name="T" horiz-adv-x="560" d="M253 0T253 23V631H58Q46 631 41 635T35 651V658Q35 680 58 680H502Q525 680 525 658V651Q525 640 520 636T502 631H307V23Q307 0 284 0H276Q253 0 253 23Z" />
<glyph unicode="U" glyph-name="U" horiz-adv-x="716" d="M274 -15T209 15T107 102T70 235V657Q70 680 93 680H101Q124 680 124 657V231Q124 135 189 83T358 31Q461 31 526 83T592 231V657Q592 680 615 680H623Q646 680 646 657V235Q646 159 610 103T508 16T358
-15Q274 -15 209 15Z" />
<glyph unicode="V" glyph-name="V" horiz-adv-x="720" d="M342 0T339 3T331 17L57 662Q56 664 56 668Q56 673 59 676T69 680H88Q99 680 104 676T113 663L360 81L607 663Q611 672 616 676T632 680H651Q659 680 662 675T663 662L389 17Q385 7 382 4T369 0H351Q342 0 339 3Z" />
<glyph unicode="W" glyph-name="W" horiz-adv-x="886" d="M232 0T228 3T221 17L57 662Q56 664 56 669Q56 680 69 680H91Q102 680 106 677T113 663L253 89L412 611Q415 620 418 624T431 628H456Q465 628 468 624T474 611L633 89L773 663Q775 673 779 676T795 680H817Q826
680 828 675T829 662L665 17Q662 7 658 4T645 0H627Q618 0 614 3T607 17L443 555L279 17Q275 7 272 4T259 0H241Q232 0 228 3Z" />
<glyph unicode="X" glyph-name="X" horiz-adv-x="677" d="M55 0T55 8Q55 13 59 18L307 346L68 662Q64 667 64 672Q64 680 73 680H102Q112 680 115 678T124 670L338 387L553 670Q558 676 561 678T575 680H604Q613 680 613 672Q613 667 609 662L369 346L618 18Q622
13 622 8Q622 0 613 0H584Q574 0 571 2T562 10L338 305L115 10Q110 4 107 2T93 0H64Q55 0 55 8Z" />
<glyph unicode="Y" glyph-name="Y" horiz-adv-x="680" d="M313 0T313 23V223L57 662Q55 666 55 668Q55 673 59 676T69 680H88Q99 680 103 677T113 663L340 273L567 663Q572 673 576 676T592 680H611Q619 680 623 675T623 662L367 222V23Q367 0 344 0H336Q313 0 313 23Z" />
<glyph unicode="Z" glyph-name="Z" horiz-adv-x="629" d="M55 0T55 21Q55 29 59 37T72 57L499 631H96Q73 631 73 653V660Q73 671 78 675T96 680H550Q572 680 572 659Q572 651 568 643T555 623L129 49H551Q574 49 574 27V20Q574 9 569 5T551 0H77Q55 0 55 21Z" />
<glyph unicode="[" glyph-name="bracketleft" horiz-adv-x="262" d="M55 -70T55 -47V727Q55 750 78 750H194Q206 750 211 746T217 730V723Q217 701 194 701H109V-21H194Q217 -21 217 -43V-50Q217 -61 212 -65T194 -70H78Q55 -70 55 -47Z" />
<glyph unicode="\" glyph-name="backslash" horiz-adv-x="445" d="M337 0T333 10L57 682Q55 686 55 689Q55 695 64 695H97Q108 695 112 685L388 13Q390 9 390 6Q390 0 381 0H348Q337 0 333 10Z" />
<glyph unicode="]" glyph-name="bracketright" horiz-adv-x="262" d="M56 -70T51 -66T45 -50V-43Q45 -21 68 -21H153V701H68Q45 701 45 723V730Q45 741 50 745T68 750H184Q207 750 207 727V-47Q207 -70 184 -70H68Q56 -70 51 -66Z" />
<glyph unicode="^" glyph-name="asciicircum" horiz-adv-x="592" d="M62 339T58 344T58 357L267 702Q273 712 277 715T290 719H302Q310 719 314 716T325 702L534 357Q536 353 536 350Q536 345 532 342T522 339H502Q491 339 487 343T476 356L296 660L116 356Q110
347 106 343T90 339H70Q62 339 58 344Z" />
<glyph unicode="_" glyph-name="underscore" horiz-adv-x="562" d="M66 -64T61 -60T55 -44V-37Q55 -15 78 -15H484Q507 -15 507 -37V-44Q507 -55 502 -59T484 -64H78Q66 -64 61 -60Z" />
<glyph unicode="`" glyph-name="grave" horiz-adv-x="225" d="M137 575T133 577T125 586L58 730Q56 733 56 738Q56 746 68 746H95Q105 746 109 743T117 732L168 591L170 583Q170 575 160 575H145Q137 575 133 577Z" />
<glyph unicode="a" glyph-name="a" horiz-adv-x="612" d="M175 -15T115 43T55 208Q55 294 88 358T186 459T340 495Q395 495 448 479T537 439V23Q537 0 514 0H507Q496 0 492 5T486 23L483 71Q415 -15 277 -15Q175 -15 115 43ZM343 31T386 49T456 103T483 184V415Q457
430 419 439T340 449Q232 449 170 387T107 214Q107 120 153 76T297 31Q343 31 386 49Z" />
<glyph unicode="b" glyph-name="b" horiz-adv-x="612" d="M226 -15T167 2T75 45V657Q75 680 98 680H106Q129 680 129 657V429Q196 495 330 495Q437 495 497 434T557 260Q557 128 490 57T287 -15Q226 -15 167 2ZM398 31T451 86T505 254Q505 353 459 400T310 448Q267
448 226 434T157 390T129 316V69Q154 52 198 42T287 31Q398 31 451 86Z" />
<glyph unicode="c" glyph-name="c" horiz-adv-x="569" d="M198 -15T127 50T55 237Q55 312 87 371T178 462T313 495Q373 495 417 484T499 447Q505 443 506 440T504 431L491 409Q488 403 484 403Q482 403 477 406Q447 427 410 438T317 449Q220 449 164 392T107 237Q107
133 164 82T328 31Q422 31 484 75Q488 78 491 78Q495 78 498 72L511 50Q513 44 513 43Q513 38 506 34Q431 -15 325 -15Q198 -15 127 50Z" />
<glyph unicode="d" glyph-name="d" horiz-adv-x="612" d="M188 -15T122 48T55 240Q55 315 85 373T168 463T292 495Q361 495 408 479T483 429V657Q483 680 506 680H514Q537 680 537 657V45Q504 19 445 2T325 -15Q188 -15 122 48ZM370 31T414 41T483 69V316Q483
380 433 414T309 448Q208 448 158 392T107 234Q107 127 161 79T325 31Q370 31 414 41Z" />
<glyph unicode="e" glyph-name="e" horiz-adv-x="602" d="M203 -15T129 45T55 230Q55 360 121 427T307 495Q547 495 547 236Q547 227 542 222T527 216H108Q108 125 165 78T325 31Q372 31 413 42T484 73Q488 76 491 76Q495 76 498 70L511 48Q513 45 513 41Q513
37 506 32Q469 8 419 -3T317 -15Q203 -15 129 45ZM495 265Q495 353 448 401T307 449Q212 449 160 399T108 265H495Z" />
<glyph unicode="f" glyph-name="f" horiz-adv-x="409" d="M117 0T117 23V431H58Q35 431 35 453V460Q35 471 40 475T58 480H117V539Q117 611 154 653T267 695Q336 695 386 661Q391 657 392 654T391 645L377 623Q374 617 370 617Q368 617 363 620Q340 635 319 642T269
649Q215 649 193 622T171 536V480H333Q345 480 350 476T356 460V453Q356 431 333 431H171V23Q171 0 148 0H140Q117 0 117 23Z" />
<glyph unicode="g" glyph-name="g" horiz-adv-x="612" d="M211 -170T134 -133Q123 -127 129 -117L144 -91Q147 -85 151 -85Q154 -85 158 -88Q188 -104 230 -114T320 -124Q406 -124 444 -80T483 71Q447 26 400 6T286 -15Q181 -15 118 47T55 221Q55 350 128 422T334
495Q390 495 447 481T537 444V71Q537 -48 486 -109T323 -170Q211 -170 134 -133ZM349 32T390 50T457 103T483 184V420Q458 433 418 441T334 449Q226 449 167 393T107 227Q107 32 303 32Q349 32 390 50Z" />
<glyph unicode="h" glyph-name="h" horiz-adv-x="588" d="M75 0T75 23V657Q75 669 79 674T94 680H110Q121 680 125 675T129 657V409Q208 495 339 495Q421 495 469 454T518 327V23Q518 0 495 0H487Q464 0 464 23V324Q464 392 430 420T326 449Q280 449 235 431T159
379T129 304V23Q129 0 106 0H98Q75 0 75 23Z" />
<glyph unicode="i" glyph-name="i" horiz-adv-x="226" d="M93 596T84 605T75 629V647Q75 661 84 670T106 680H120Q133 680 142 671T151 647V629Q151 615 143 606T120 596H106Q93 596 84 605ZM86 0T86 23V457Q86 480 109 480H117Q140 480 140 457V23Q140 0 117
0H109Q86 0 86 23Z" />
<glyph unicode="j" glyph-name="j" horiz-adv-x="258" d="M125 596T116 605T107 629V647Q107 661 116 670T138 680H152Q165 680 174 671T183 647V629Q183 615 175 606T152 596H138Q125 596 116 605ZM-7 -170T-39 -162T-97 -136Q-102 -132 -103 -129T-102 -120L-88
-98Q-85 -92 -81 -92Q-78 -92 -74 -95Q-51 -110 -28 -117T24 -124Q78 -124 98 -100T118 -17V457Q118 480 141 480H149Q172 480 172 457V-20Q172 -170 26 -170Q-7 -170 -39 -162Z" />
<glyph unicode="k" glyph-name="k" horiz-adv-x="527" d="M75 0T75 23V657Q75 680 98 680H106Q129 680 129 657V23Q129 0 106 0H98Q75 0 75 23ZM419 0T417 1T410 6L190 226Q188 228 183 233T176 243T174 255Q174 263 177 268T184 277T190 284L400 474Q404 478
406 479T416 480H452Q462 480 462 473Q462 469 455 462L229 255L465 18Q472 11 472 7Q472 0 462 0H426Q419 0 417 1Z" />
<glyph unicode="l" glyph-name="l" horiz-adv-x="204" d="M75 0T75 23V657Q75 680 98 680H106Q129 680 129 657V23Q129 0 106 0H98Q75 0 75 23Z" />
<glyph unicode="m" glyph-name="m" horiz-adv-x="801" d="M75 0T75 23V457Q75 469 79 474T94 480H104Q115 480 119 475T123 457V404Q152 448 192 471T290 495Q336 495 370 471T415 402Q441 446 484 470T585 495Q651 495 691 455T731 333V23Q731 0 708 0H700Q677
0 677 23V331Q677 395 651 422T572 449Q512 449 471 410T430 308V23Q430 0 407 0H399Q376 0 376 23V339Q376 396 352 422T277 449Q237 449 203 431T149 378T129 302V23Q129 0 106 0H98Q75 0 75 23Z" />
<glyph unicode="n" glyph-name="n" horiz-adv-x="588" d="M75 0T75 23V457Q75 469 79 474T94 480H104Q115 480 119 475T123 457V406Q160 447 215 471T339 495Q421 495 469 454T518 327V23Q518 0 495 0H487Q464 0 464 23V324Q464 392 430 420T326 449Q280 449 235
431T159 379T129 304V23Q129 0 106 0H98Q75 0 75 23Z" />
<glyph unicode="o" glyph-name="o" horiz-adv-x="618" d="M186 -15T121 53T55 240Q55 358 120 426T309 495Q432 495 497 427T563 240Q563 122 498 54T309 -15Q186 -15 121 53ZM407 31T459 85T511 240Q511 340 459 394T309 449Q211 449 159 395T107 240Q107 140
159 86T309 31Q407 31 459 85Z" />
<glyph unicode="p" glyph-name="p" horiz-adv-x="612" d="M75 -202T75 -179V444Q108 466 165 480T278 495Q557 495 557 240Q557 120 494 53T326 -15Q260 -15 213 5T129 71V-179Q129 -202 106 -202H98Q75 -202 75 -179ZM505 32T505 246Q505 354 449 401T278 449Q235
449 195 441T129 420V184Q129 138 155 104T222 51T309 32Q505 32 505 246Z" />
<glyph unicode="q" glyph-name="q" horiz-adv-x="612" d="M483 -202T483 -179V71Q447 26 400 6T286 -15Q217 -15 165 14T84 97T55 226Q55 354 128 424T334 495Q390 495 447 481T537 444V-179Q537 -202 514 -202H506Q483 -202 483 -179ZM349 32T390 50T457 103T483
184V420Q458 433 418 441T334 449Q225 449 166 395T107 232Q107 32 303 32Q349 32 390 50Z" />
<glyph unicode="r" glyph-name="r" horiz-adv-x="372" d="M75 0T75 23V457Q75 469 79 474T94 480H104Q115 480 119 475T123 457V414Q150 452 191 473T289 495Q301 495 313 493T330 488Q338 483 336 477L332 448Q331 439 321 443Q301 449 276 449Q213 449 171 414T129
314V23Q129 0 106 0H98Q75 0 75 23Z" />
<glyph unicode="s" glyph-name="s" horiz-adv-x="506" d="M207 -15T153 -3T63 33Q57 37 56 40T58 49L71 71Q74 77 78 77Q80 77 85 74Q116 54 165 43T259 31Q328 31 363 52T399 112Q399 141 387 158T343 189T244 223Q185 241 152 256T98 298T77 368Q77 431 127
463T258 495Q310 495 357 483T435 448Q441 444 442 441T440 432L427 410Q424 404 420 404Q417 404 413 407Q352 449 258 449Q129 449 129 368Q129 338 142 321T181 294T264 265Q273 263 291 257Q354 238 387 220T436 176T451 111Q451 53 403 19T259 -15Q207 -15
153 -3Z" />
<glyph unicode="t" glyph-name="t" horiz-adv-x="433" d="M196 -15T162 26T127 141V431H58Q46 431 41 435T35 451V458Q35 480 58 480H127V565Q127 582 131 595T146 630Q149 636 151 638T159 640H166Q181 640 181 622V480H333Q356 480 356 458V451Q356 440 351
436T333 431H181V144Q181 86 202 59T273 31Q302 31 323 38T367 60Q372 63 374 63Q378 63 381 57L395 35Q397 31 397 29Q397 24 390 19Q340 -15 271 -15Q196 -15 162 26Z" />
<glyph unicode="u" glyph-name="u" horiz-adv-x="578" d="M172 -15T121 30T70 162V457Q70 480 93 480H101Q124 480 124 457V161Q124 93 160 62T267 31Q315 31 357 50T424 102T449 178V457Q449 480 472 480H480Q503 480 503 457V23Q503 11 499 6T484 0H474Q463
0 459 5T455 23V76Q419 32 372 9T254 -15Q172 -15 121 30Z" />
<glyph unicode="v" glyph-name="v" horiz-adv-x="590" d="M280 0T276 4T266 17L57 462Q55 466 55 468Q55 473 59 476T69 480H88Q99 480 104 476T113 463L295 68L477 463Q481 472 486 476T502 480H521Q529 480 533 475T533 462L324 17Q319 8 315 4T301 0H289Q280 0 276 4Z" />
<glyph unicode="w" glyph-name="w" horiz-adv-x="786" d="M212 0T208 3T201 17L57 462Q56 464 56 469Q56 480 69 480H91Q102 480 106 477T113 463L233 79L362 421Q365 430 369 434T382 438H405Q414 438 417 434T424 421L553 79L673 463Q676 473 680 476T695 480H717Q726
480 728 475T729 462L585 17Q582 7 578 4T565 0H547Q538 0 535 3T527 17L393 375L259 17Q255 7 252 4T239 0H221Q212 0 208 3Z" />
<glyph unicode="x" glyph-name="x" horiz-adv-x="577" d="M55 0T55 8Q55 13 59 18L257 245L68 462Q64 467 64 472Q64 480 73 480H102Q112 480 115 478T124 470L288 281L453 470Q458 476 461 478T475 480H504Q513 480 513 472Q513 467 509 462L320 245L518 18Q522
13 522 8Q522 0 513 0H484Q474 0 471 2T462 10L288 209L115 10Q110 4 107 2T93 0H64Q55 0 55 8Z" />
<glyph unicode="y" glyph-name="y" horiz-adv-x="583" d="M107 -156T63 -126Q58 -122 57 -119T58 -110L72 -88Q75 -82 79 -82Q82 -82 86 -85Q105 -98 124 -104T169 -110Q205 -110 226 -89T268 -17L280 13L70 462Q68 466 68 468Q68 473 72 476T82 480H101Q112 480
117 476T126 463L308 68L490 463Q494 472 499 476T515 480H534Q542 480 546 475T546 462L324 -12Q299 -66 279 -95T233 -140T167 -156Q107 -156 63 -126Z" />
<glyph unicode="z" glyph-name="z" horiz-adv-x="559" d="M66 0T61 6T55 23Q55 39 72 57L422 431H96Q73 431 73 453V460Q73 471 78 475T96 480H478Q489 480 494 474T500 457Q500 441 483 423L134 49H481Q504 49 504 27V20Q504 9 499 5T481 0H77Q66 0 61 6Z" />
<glyph unicode="{" glyph-name="braceleft" horiz-adv-x="360" d="M153 -70T153 -47V316H58Q46 316 41 320T35 336V343Q35 365 58 365H153V727Q153 750 176 750H292Q304 750 309 746T315 730V723Q315 701 292 701H207V-21H292Q315 -21 315 -43V-50Q315 -61 310
-65T292 -70H176Q153 -70 153 -47Z" />
<glyph unicode="|" glyph-name="bar" horiz-adv-x="164" d="M55 -90T55 -67V747Q55 770 78 770H86Q109 770 109 747V-67Q109 -90 86 -90H78Q55 -90 55 -67Z" />
<glyph unicode="}" glyph-name="braceright" horiz-adv-x="360" d="M56 -70T51 -66T45 -50V-43Q45 -21 68 -21H153V701H68Q45 701 45 723V730Q45 741 50 745T68 750H184Q207 750 207 727V365H302Q325 365 325 343V336Q325 325 320 321T302 316H207V-47Q207 -70
184 -70H68Q56 -70 51 -66Z" />
<glyph unicode="~" glyph-name="asciitilde" horiz-adv-x="569" d="M360 245T334 256T273 288Q242 306 222 315T181 324Q158 324 142 315T110 288Q95 270 80 270Q70 270 62 278Q56 284 56 290Q56 300 67 312Q89 340 115 355T179 370Q210 370 235 360T298 327Q326
309 346 300T388 291Q411 291 427 300T459 327Q474 345 489 345Q499 345 507 337Q513 331 513 325Q513 315 502 303Q480 275 454 260T390 245Q360 245 334 256Z" />
<glyph unicode="&#xa0;" glyph-name="uni00A0" horiz-adv-x="450" />
<glyph unicode="&#xa1;" glyph-name="exclamdown" horiz-adv-x="186" d="M73 596T64 605T55 629V647Q55 661 64 670T86 680H100Q113 680 122 671T131 647V629Q131 615 123 606T100 596H86Q73 596 64 605ZM66 0T66 23L72 458Q72 470 76 475T93 480Q105 480 109
475T114 458L120 23Q120 0 97 0H89Q66 0 66 23Z" />
<glyph unicode="&#xa2;" glyph-name="cent" horiz-adv-x="569" d="M300 -103T300 -80V-14Q184 -8 120 57T55 237Q55 310 85 367T171 458T300 495V560Q300 583 323 583H331Q354 583 354 560V494Q440 488 499 447Q505 443 506 440T504 431L491 409Q488 403 484 403Q482
403 477 406Q447 427 410 438T317 449Q220 449 164 392T107 237Q107 133 164 82T328 31Q422 31 484 75Q488 78 491 78Q495 78 498 72L511 50Q513 44 513 43Q513 38 506 34Q441 -8 354 -14V-80Q354 -103 331 -103H323Q300 -103 300 -80Z" />
<glyph unicode="&#xa3;" glyph-name="sterling" horiz-adv-x="571" d="M55 0T55 22V29Q55 40 60 44T78 49Q108 49 127 80T147 162V351H88Q65 351 65 373V380Q65 391 70 395T88 400H147V525Q147 572 171 611T238 672T332 695Q367 695 407 686T471 661Q476 657 477
654T476 645L462 623Q459 617 455 617Q452 617 448 620Q427 634 396 641T334 649Q277 649 239 615T201 522V400H393Q405 400 410 396T416 380V373Q416 351 393 351H201V172Q201 128 193 100T162 49H493Q505 49 510 45T516 29V22Q516 0 493 0H78Q55 0 55 22Z" />
<glyph unicode="&#xa4;" glyph-name="currency" horiz-adv-x="516" d="M62 116Q55 123 55 129Q55 137 65 147L108 189Q68 240 68 306Q68 370 108 423L65 465Q55 475 55 483Q55 489 62 496L67 501Q75 508 82 508Q89 508 99 500L143 457Q194 497 259 497Q323 497
374 457L417 499Q425 508 433 508Q439 508 449 500L454 495Q461 488 461 482Q461 474 451 464L409 423Q450 373 450 306Q450 240 409 188L451 147Q461 137 461 129Q461 123 454 116L449 111Q441 104 434 104Q427 104 417 112L374 154Q324 115 259 115Q194 115 143
155L99 112Q89 104 82 104Q75 104 67 111L62 116ZM298 161T331 180T384 233T404 306Q404 345 385 378T332 431T259 451Q220 451 187 432T134 379T114 306Q114 267 133 234T186 181T259 161Q298 161 331 180Z" />
<glyph unicode="&#xa5;" glyph-name="yen" horiz-adv-x="680" d="M313 0T313 23V105H181Q169 105 164 109T158 125V132Q158 154 181 154H313V223L312 224H181Q169 224 164 228T158 244V251Q158 273 181 273H284L57 662Q55 666 55 668Q55 673 59 676T69 680H88Q99
680 103 677T113 663L340 273L567 663Q572 673 576 676T592 680H611Q619 680 623 675T623 662L396 273H499Q522 273 522 251V244Q522 233 517 229T499 224H368L367 222V154H499Q522 154 522 132V125Q522 114 517 110T499 105H367V23Q367 0 344 0H336Q313 0 313
23Z" />
<glyph unicode="&#xa6;" glyph-name="brokenbar" horiz-adv-x="164" d="M55 350T55 373V707Q55 730 78 730H86Q109 730 109 707V373Q109 350 86 350H78Q55 350 55 373ZM55 -219T55 -196V138Q55 161 78 161H86Q109 161 109 138V-196Q109 -219 86 -219H78Q55 -219 55 -196Z" />
<glyph unicode="&#xa7;" glyph-name="section" horiz-adv-x="572" d="M227 -156T164 -144T63 -108Q57 -104 56 -101T58 -92L71 -70Q74 -64 78 -64Q81 -64 85 -67Q117 -86 172 -98T283 -110Q372 -110 418 -80T465 20Q465 67 445 94T387 140T274 183Q207 205 166
226T99 281T73 370Q73 387 78 407T92 440Q73 475 73 518Q73 605 132 650T288 695Q352 695 406 682T491 648Q497 644 498 641T496 632L483 610Q480 604 476 604Q473 604 469 607Q437 627 395 638T288 649Q125 649 125 518Q125 471 145 445T200 403T321 358Q391 334
431 313T494 256T517 160Q517 129 503 96Q517 63 517 19Q517 -65 457 -110T283 -156Q227 -156 164 -144ZM467 154T467 166Q467 212 448 239T391 282T274 324Q222 341 187 356T126 394Q123 385 123 371Q123 330 141 306T191 266T293 226L321 217Q371 200 405 184T464
148Q467 154 467 166Z" />
<glyph unicode="&#xa8;" glyph-name="dieresis" horiz-adv-x="380" d="M74 572T65 582T55 607V620Q55 634 64 644T88 655H102Q116 655 125 645T135 620V607Q135 592 126 582T102 572H88Q74 572 65 582ZM264 572T255 582T245 607V620Q245 634 254 644T278 655H292Q306
655 315 645T325 620V607Q325 592 316 582T292 572H278Q264 572 255 582Z" />
<glyph unicode="&#xa9;" glyph-name="copyright" horiz-adv-x="820" d="M314 -15T233 33T103 162T55 340Q55 436 103 517T232 647T410 695Q506 695 587 647T717 518T765 340Q765 244 717 163T588 33T410 -15Q314 -15 233 33ZM495 31T566 72T678 184T719 340Q719
425 678 496T566 608T410 649Q325 649 254 608T142 496T101 340Q101 255 142 184T254 72T410 31Q495 31 566 72ZM292 89T226 153T159 338Q159 413 189 471T274 561T398 593Q458 593 502 582T584 545Q590 541 591 538T589 529L576 507Q573 501 569 501Q567 501 562
504Q532 525 495 536T402 547Q312 547 262 492T211 338Q211 135 413 135Q507 135 569 179Q574 182 576 182Q580 182 583 176L596 154Q598 148 598 147Q598 142 591 138Q516 89 410 89Q292 89 226 153Z" />
<glyph unicode="&#xaa;" glyph-name="ordfeminine" horiz-adv-x="384" d="M116 368T86 391T55 459Q55 504 86 528T174 552H283V569Q283 617 264 638T198 659Q170 659 150 654T109 638L104 636Q101 636 97 643L86 660Q85 661 85 664Q85 669 95 674Q140 695 198
695Q267 695 298 663T329 564V390Q329 377 314 377H302Q290 377 288 390L283 421Q265 396 234 382T167 368Q116 368 86 391ZM217 404T250 430T283 498V516H176Q95 516 95 459Q95 404 170 404Q217 404 250 430Z" />
<glyph unicode="&#xab;" glyph-name="guillemotleft" horiz-adv-x="583" d="M275 40T269 40Q262 40 254 48L70 245Q68 247 64 252T57 261T55 270V278Q55 284 58 289T65 297T70 303L254 500Q262 508 269 508Q275 508 281 502L293 491Q300 485 300 479Q300 472 292
464L114 274L292 84Q300 76 300 69Q300 63 293 57L281 46Q275 40 269 40ZM503 40T497 40Q490 40 482 48L298 245Q296 247 292 252T285 261T283 270V278Q283 284 286 289T293 297T298 303L482 500Q490 508 497 508Q503 508 509 502L521 491Q528 485 528 479Q528
472 520 464L342 274L520 84Q528 76 528 69Q528 63 521 57L509 46Q503 40 497 40Z" />
<glyph unicode="&#xac;" glyph-name="logicalnot" horiz-adv-x="474" d="M365 127T365 150V270H78Q66 270 61 274T55 290V297Q55 319 78 319H396Q419 319 419 297V150Q419 127 396 127H388Q365 127 365 150Z" />
<glyph unicode="&#xad;" glyph-name="uni00AD" horiz-adv-x="474" d="M66 270T61 274T55 290V297Q55 319 78 319H396Q419 319 419 297V290Q419 279 414 275T396 270H78Q66 270 61 274Z" />
<glyph unicode="&#xae;" glyph-name="registered" horiz-adv-x="820" d="M314 -15T233 33T103 162T55 340Q55 436 103 517T232 647T410 695Q506 695 587 647T717 518T765 340Q765 244 717 163T588 33T410 -15Q314 -15 233 33ZM495 31T566 72T678 184T719 340Q719
425 678 496T566 608T410 649Q325 649 254 608T142 496T101 340Q101 255 142 184T254 72T410 31Q495 31 566 72ZM250 99T250 121V561Q250 583 273 583H468Q538 583 575 546T612 439Q612 321 487 299L574 115Q577 109 577 106Q577 99 567 99H537Q530 99 528 101T521
110L434 295H303V121Q303 99 281 99H273Q250 99 250 121ZM453 343Q515 343 538 366T561 439Q561 493 540 514T459 535H303V343H453Z" />
<glyph unicode="&#xaf;" glyph-name="overscore" horiz-adv-x="434" d="M66 611T61 615T55 631V638Q55 660 78 660H356Q379 660 379 638V631Q379 620 374 616T356 611H78Q66 611 61 615Z" />
<glyph unicode="&#xb0;" glyph-name="degree" horiz-adv-x="330" d="M114 477T85 505T55 586Q55 638 84 666T165 695Q216 695 245 667T275 586Q275 534 246 506T165 477Q114 477 85 505ZM197 513T216 532T235 586Q235 621 216 640T165 659Q133 659 114 640T95
586Q95 551 114 532T165 513Q197 513 216 532Z" />
<glyph unicode="&#xb1;" glyph-name="plusminus" horiz-adv-x="454" d="M200 177T200 200V310H78Q66 310 61 314T55 330V337Q55 359 78 359H200V469Q200 492 223 492H231Q254 492 254 469V359H376Q399 359 399 337V330Q399 319 394 315T376 310H254V200Q254 177
231 177H223Q200 177 200 200ZM66 0T61 4T55 20V27Q55 49 78 49H376Q399 49 399 27V20Q399 9 394 5T376 0H78Q66 0 61 4Z" />
<glyph unicode="&#xb2;" glyph-name="uni00B2" horiz-adv-x="392" d="M55 286T55 299V335Q55 372 88 403T184 468Q227 490 248 507T275 540T282 582Q282 612 259 630T192 649Q137 649 91 623Q84 620 83 624L69 654Q68 658 68 659T72 663Q90 676 125 685T192 695Q258
695 296 663T334 582Q334 535 308 504T217 436Q155 401 131 381T107 335H324Q337 335 337 321V298Q337 291 334 289T324 286H68Q55 286 55 299Z" />
<glyph unicode="&#xb3;" glyph-name="uni00B3" horiz-adv-x="393" d="M150 279T114 288T59 311Q56 313 56 314T56 320L70 350Q71 354 78 351Q124 325 181 325Q238 325 262 343T286 399Q286 436 267 453T204 471H155Q141 471 141 484V508Q141 520 155 520H208Q273
520 273 588Q273 619 253 634T186 649Q131 649 85 623Q78 620 77 624L63 654Q62 658 62 659T66 663Q85 676 119 685T186 695Q255 695 290 666T325 588Q325 554 312 532T267 496Q305 484 321 461T338 399Q338 344 300 312T181 279Q150 279 114 288Z" />
<glyph unicode="&#xb4;" glyph-name="acute" horiz-adv-x="225" d="M55 575T55 583L57 591L108 732Q111 740 115 743T130 746H157Q169 746 169 738Q169 733 167 730L100 586Q97 580 93 578T80 575H65Q55 575 55 583Z" />
<glyph unicode="&#xb5;" glyph-name="uni00B5" horiz-adv-x="543" d="M55 -176T55 -153V457Q55 480 78 480H86Q109 480 109 457V161Q109 93 145 62T252 31Q300 31 342 50T409 102T434 178V457Q434 480 457 480H465Q488 480 488 457V23Q488 11 484 6T469 0H459Q448
0 444 5T440 23V76Q404 32 357 9T239 -15Q154 -15 109 33V-153Q109 -176 86 -176H78Q55 -176 55 -153Z" />
<glyph unicode="&#xb6;" glyph-name="paragraph" horiz-adv-x="720" d="M296 -100T296 -77V289Q187 289 121 336T55 477Q55 577 116 628T296 680H642Q665 680 665 658V651Q665 640 660 636T642 631H555V-77Q555 -100 532 -100H524Q501 -100 501 -77V631H350V-77Q350
-100 327 -100H319Q296 -100 296 -77Z" />
<glyph unicode="&#xb7;" glyph-name="middot" horiz-adv-x="186" d="M73 280T64 289T55 313V326Q55 340 64 349T86 359H100Q113 359 122 350T131 326V313Q131 299 123 290T100 280H86Q73 280 64 289Z" />
<glyph unicode="&#xb8;" glyph-name="cedilla" horiz-adv-x="280" d="M93 -233T67 -217Q58 -211 56 -209T57 -199L65 -182Q68 -174 74 -174Q75 -174 83 -178Q103 -190 132 -190Q157 -190 167 -182T177 -153Q177 -128 161 -121T108 -113H95Q87 -113 85 -109T85
-97L112 -29Q115 -21 119 -18T134 -15H160Q172 -15 172 -23Q172 -28 170 -31L147 -81Q183 -81 204 -100T225 -155Q225 -193 200 -213T132 -233Q93 -233 67 -217Z" />
<glyph unicode="&#xb9;" glyph-name="uni00B9" horiz-adv-x="387" d="M82 286T77 290T71 306V313Q71 335 94 335H186V614L94 558Q86 553 80 553Q70 553 63 565L59 571Q55 576 55 583Q55 592 68 600L192 675Q200 680 211 680H217Q240 680 240 657V335H329Q352 335
352 313V306Q352 295 347 291T329 286H94Q82 286 77 290Z" />
<glyph unicode="&#xba;" glyph-name="ordmasculine" horiz-adv-x="413" d="M135 368T95 411T55 531Q55 609 95 652T207 695Q278 695 318 652T358 531Q358 454 318 411T207 368Q135 368 95 411ZM260 403T289 436T318 531Q318 593 289 626T207 659Q153 659 124 627T95
531Q95 469 124 436T207 403Q260 403 289 436Z" />
<glyph unicode="&#xbb;" glyph-name="guillemotright" horiz-adv-x="583" d="M62 57Q55 63 55 69Q55 76 63 84L241 274L63 464Q55 472 55 479Q55 485 62 491L74 502Q80 508 86 508Q93 508 101 500L285 303Q287 301 291 296T298 287T300 278V270Q300 264 297 259T290
251T285 245L101 48Q93 40 86 40Q80 40 74 46L62 57ZM290 57Q283 63 283 69Q283 76 291 84L469 274L291 464Q283 472 283 479Q283 485 290 491L302 502Q308 508 314 508Q321 508 329 500L513 303Q515 301 519 296T526 287T528 278V270Q528 264 525 259T518 251T513
245L329 48Q321 40 314 40Q308 40 302 46L290 57Z" />
<glyph unicode="&#xbc;" glyph-name="onequarter" horiz-adv-x="782" d="M82 286T77 290T71 306V313Q71 335 94 335H186V614L94 558Q86 553 80 553Q70 553 63 565L59 571Q55 576 55 583Q55 592 68 600L192 675Q200 680 211 680H217Q240 680 240 657V335H319Q342
335 342 313V306Q342 295 337 291T319 286H94Q82 286 77 290ZM178 0T177 4T178 13L628 670Q632 675 635 677T643 680H681Q688 680 689 676T688 667L238 10Q234 5 231 3T223 0H185Q178 0 177 4ZM605 0T605 23V93H414Q402 93 402 103V117Q402 123 405 129T413 142L600
382Q605 389 608 391T618 394H645Q658 394 658 381V142H704Q727 142 727 120V113Q727 102 722 98T704 93H658V23Q658 0 635 0H628Q605 0 605 23ZM606 142V313L473 142H606Z" />
<glyph unicode="&#xbd;" glyph-name="onehalf" horiz-adv-x="868" d="M82 286T77 290T71 306V313Q71 335 94 335H186V614L94 558Q86 553 80 553Q70 553 63 565L59 571Q55 576 55 583Q55 592 68 600L192 675Q200 680 211 680H217Q240 680 240 657V335H319Q342 335
342 313V306Q342 295 337 291T319 286H94Q82 286 77 290ZM178 0T177 4T178 13L628 670Q632 675 635 677T643 680H681Q688 680 689 676T688 667L238 10Q234 5 231 3T223 0H185Q178 0 177 4ZM531 0T531 13V49Q531 86 564 117T660 182Q703 204 724 221T751 254T758
296Q758 326 735 344T668 363Q613 363 567 337Q560 334 559 338L545 368Q544 372 544 373T548 377Q566 390 601 399T668 409Q734 409 772 377T810 296Q810 249 784 218T693 150Q631 115 607 95T583 49H800Q813 49 813 35V12Q813 5 810 3T800 0H544Q531 0 531 13Z"
/>
<glyph unicode="&#xbe;" glyph-name="threequarters" horiz-adv-x="770" d="M150 278T114 287T59 310Q56 312 56 313T56 319L70 349Q71 353 78 350Q124 324 181 324Q238 324 262 342T286 398Q286 435 267 453T204 471H155Q141 471 141 484V508Q141 520 155 520H208Q273
520 273 588Q273 619 253 634T186 649Q131 649 85 623Q78 620 77 624L63 654Q62 658 62 659T66 663Q85 676 119 685T186 695Q255 695 290 666T325 588Q325 554 312 532T267 496Q305 484 321 460T338 398Q338 343 300 311T181 278Q150 278 114 287ZM166 0T165 4T166
13L616 670Q620 675 623 677T631 680H669Q676 680 677 676T676 667L226 10Q222 5 219 3T211 0H173Q166 0 165 4ZM593 0T593 23V93H402Q390 93 390 103V117Q390 123 393 129T401 142L588 382Q593 389 596 391T606 394H633Q646 394 646 381V142H692Q715 142 715 120V113Q715
102 710 98T692 93H646V23Q646 0 623 0H616Q593 0 593 23ZM594 142V313L461 142H594Z" />
<glyph unicode="&#xbf;" glyph-name="questiondown" horiz-adv-x="536" d="M295 598T287 607T278 631V647Q278 661 287 670T309 680H323Q336 680 345 671T354 647V631Q354 617 345 608T323 598H309Q295 598 287 607ZM173 -15T114 32T55 162Q55 225 84 263T182
338Q227 362 249 382T280 429T289 497V517Q289 540 312 540H320Q343 540 343 517V494Q343 426 316 382T228 306Q176 279 151 260T117 219T107 162Q107 99 153 65T270 31Q334 31 376 42T451 73Q455 76 458 76Q462 76 465 70L478 48Q480 45 480 41Q480 36 473 32Q443
11 389 -2T270 -15Q173 -15 114 32Z" />
<glyph unicode="&#xc0;" glyph-name="Agrave" horiz-adv-x="720" d="M354 741T350 743T342 752L275 896Q273 899 273 904Q273 912 285 912H312Q322 912 326 909T334 898L385 757L387 749Q387 741 377 741H362Q354 741 350 743ZM61 0T58 5T57 18L331 663Q335 673
338 676T351 680H369Q378 680 381 677T389 663L663 18Q664 16 664 12Q664 7 661 4T651 0H632Q621 0 616 4T607 17L531 197H189L113 17Q109 8 104 4T88 0H69Q61 0 58 5ZM510 246L360 601L209 246H510Z" />
<glyph unicode="&#xc1;" glyph-name="Aacute" horiz-adv-x="720" d="M349 741T349 749L351 757L402 898Q405 906 409 909T424 912H451Q463 912 463 904Q463 899 461 896L394 752Q391 746 387 744T374 741H359Q349 741 349 749ZM61 0T58 5T57 18L331 663Q335 673
338 676T351 680H369Q378 680 381 677T389 663L663 18Q664 16 664 12Q664 7 661 4T651 0H632Q621 0 616 4T607 17L531 197H189L113 17Q109 8 104 4T88 0H69Q61 0 58 5ZM510 246L360 601L209 246H510Z" />
<glyph unicode="&#xc2;" glyph-name="Acircumflex" horiz-adv-x="720" d="M223 734T219 740T219 752L331 908Q339 919 342 922T354 925H366Q374 925 377 922T389 908L501 752Q503 750 503 745Q503 740 499 737T489 734H470Q459 734 455 737T444 751L360 873L276
751Q269 741 265 738T250 734H231Q223 734 219 740ZM61 0T58 5T57 18L331 663Q335 673 338 676T351 680H369Q378 680 381 677T389 663L663 18Q664 16 664 12Q664 7 661 4T651 0H632Q621 0 616 4T607 17L531 197H189L113 17Q109 8 104 4T88 0H69Q61 0 58 5ZM510
246L360 601L209 246H510Z" />
<glyph unicode="&#xc3;" glyph-name="Atilde" horiz-adv-x="720" d="M409 738T391 746T350 770Q331 783 318 789T287 795Q264 795 248 788T219 764Q206 749 196 749Q187 749 178 758Q171 765 171 772Q171 780 181 793Q220 841 285 841Q314 841 332 833T372 809Q390
796 402 790T434 784Q457 784 473 791T502 815Q515 830 525 830Q534 830 543 821Q550 814 550 807Q550 799 540 786Q501 738 436 738Q409 738 391 746ZM61 0T58 5T57 18L331 663Q335 673 338 676T351 680H369Q378 680 381 677T389 663L663 18Q664 16 664 12Q664
7 661 4T651 0H632Q621 0 616 4T607 17L531 197H189L113 17Q109 8 104 4T88 0H69Q61 0 58 5ZM510 246L360 601L209 246H510Z" />
<glyph unicode="&#xc4;" glyph-name="Adieresis" horiz-adv-x="720" d="M249 738T240 748T230 773V786Q230 800 239 810T263 821H277Q291 821 300 811T310 786V773Q310 758 301 748T277 738H263Q249 738 240 748ZM429 738T420 748T410 773V786Q410 800 419 810T443
821H457Q471 821 480 811T490 786V773Q490 758 481 748T457 738H443Q429 738 420 748ZM61 0T58 5T57 18L331 663Q335 673 338 676T351 680H369Q378 680 381 677T389 663L663 18Q664 16 664 12Q664 7 661 4T651 0H632Q621 0 616 4T607 17L531 197H189L113 17Q109
8 104 4T88 0H69Q61 0 58 5ZM510 246L360 601L209 246H510Z" />
<glyph unicode="&#xc5;" glyph-name="Aring" horiz-adv-x="720" d="M664 16T664 12Q664 7 661 4T651 0H632Q621 0 616 4T607 17L531 197H189L113 17Q109 8 104 4T88 0H69Q61 0 58 5T57 18L324 646Q291 657 271 685T251 749Q251 795 282 827T360 859Q406 859 438
827T470 749Q470 714 450 686T396 646L663 18Q664 16 664 12ZM291 721T311 701T360 680Q389 680 409 700T429 749Q429 778 409 798T360 818Q332 818 312 798T291 749Q291 721 311 701ZM510 246L360 601L209 246H510Z" />
<glyph unicode="&#xc6;" glyph-name="AE" horiz-adv-x="907" d="M61 0T58 5T57 18L331 663Q335 673 338 676T351 680H829Q841 680 846 676T852 660V653Q852 631 829 631H489V365H742Q754 365 759 361T765 345V338Q765 316 742 316H489V49H829Q852 49 852 27V20Q852
9 847 5T829 0H458Q435 0 435 23V197H189L113 17Q109 8 104 4T88 0H69Q61 0 58 5ZM435 246V631H369L209 246H435Z" />
<glyph unicode="&#xc7;" glyph-name="Ccedilla" horiz-adv-x="675" d="M619 45T619 44Q619 39 612 35Q541 -10 419 -15L417 -21L394 -71Q430 -71 451 -90T472 -145Q472 -183 447 -203T379 -223Q340 -223 314 -207Q305 -201 303 -199T304 -189L312 -172Q315 -164
321 -164Q322 -164 330 -168Q350 -180 379 -180Q404 -180 414 -172T424 -143Q424 -118 408 -111T355 -103H342Q334 -103 332 -99T332 -87L359 -19Q360 -18 360 -17T361 -14Q214 -4 135 88T55 340Q55 508 143 601T393 695Q453 695 507 683T598 647Q604 643 605 640T603
631L590 609Q587 603 583 603Q581 603 576 606Q546 626 499 637T394 649Q261 649 184 573T107 340Q107 184 185 108T394 31Q459 31 506 42T590 76Q595 79 597 79Q601 79 604 73L617 51Q619 45 619 44Z" />
<glyph unicode="&#xc8;" glyph-name="Egrave" horiz-adv-x="582" d="M303 765T299 767T291 776L224 920Q222 923 222 928Q222 936 234 936H261Q271 936 275 933T283 922L334 781L336 773Q336 765 326 765H311Q303 765 299 767ZM75 0T75 23V657Q75 680 98 680H514Q526
680 531 676T537 660V653Q537 631 514 631H129V365H427Q439 365 444 361T450 345V338Q450 316 427 316H129V49H514Q537 49 537 27V20Q537 9 532 5T514 0H98Q75 0 75 23Z" />
<glyph unicode="&#xc9;" glyph-name="Eacute" horiz-adv-x="582" d="M276 765T276 773L278 781L329 922Q332 930 336 933T351 936H378Q390 936 390 928Q390 923 388 920L321 776Q318 770 314 768T301 765H286Q276 765 276 773ZM75 0T75 23V657Q75 680 98 680H514Q526
680 531 676T537 660V653Q537 631 514 631H129V365H427Q439 365 444 361T450 345V338Q450 316 427 316H129V49H514Q537 49 537 27V20Q537 9 532 5T514 0H98Q75 0 75 23Z" />
<glyph unicode="&#xca;" glyph-name="Ecircumflex" horiz-adv-x="582" d="M164 758T160 764T160 776L272 932Q280 943 283 946T295 949H307Q315 949 318 946T330 932L442 776Q444 774 444 769Q444 764 440 761T430 758H411Q400 758 396 761T385 775L301 897L217
775Q210 765 206 762T191 758H172Q164 758 160 764ZM75 0T75 23V657Q75 680 98 680H514Q526 680 531 676T537 660V653Q537 631 514 631H129V365H427Q439 365 444 361T450 345V338Q450 316 427 316H129V49H514Q537 49 537 27V20Q537 9 532 5T514 0H98Q75 0 75 23Z"
/>
<glyph unicode="&#xcb;" glyph-name="Edieresis" horiz-adv-x="582" d="M191 762T182 772T172 797V810Q172 824 181 834T205 845H219Q233 845 242 835T252 810V797Q252 782 243 772T219 762H205Q191 762 182 772ZM371 762T362 772T352 797V810Q352 824 361 834T385
845H399Q413 845 422 835T432 810V797Q432 782 423 772T399 762H385Q371 762 362 772ZM75 0T75 23V657Q75 680 98 680H514Q526 680 531 676T537 660V653Q537 631 514 631H129V365H427Q439 365 444 361T450 345V338Q450 316 427 316H129V49H514Q537 49 537 27V20Q537
9 532 5T514 0H98Q75 0 75 23Z" />
<glyph unicode="&#xcc;" glyph-name="Igrave" horiz-adv-x="204" d="M87 765T83 767T75 776L8 920Q6 923 6 928Q6 936 18 936H45Q55 936 59 933T67 922L118 781L120 773Q120 765 110 765H95Q87 765 83 767ZM75 0T75 23V657Q75 680 98 680H106Q129 680 129 657V23Q129
0 106 0H98Q75 0 75 23Z" />
<glyph unicode="&#xcd;" glyph-name="Iacute" horiz-adv-x="204" d="M82 765T82 773L84 781L135 922Q138 930 142 933T157 936H184Q196 936 196 928Q196 923 194 920L127 776Q124 770 120 768T107 765H92Q82 765 82 773ZM75 0T75 23V657Q75 680 98 680H106Q129
680 129 657V23Q129 0 106 0H98Q75 0 75 23Z" />
<glyph unicode="&#xce;" glyph-name="Icircumflex" horiz-adv-x="204" d="M-35 765T-39 771T-39 783L73 939Q81 950 84 953T96 956H108Q116 956 119 953T131 939L243 783Q245 781 245 776Q245 771 241 768T231 765H212Q201 765 197 768T186 782L102 904L18 782Q11
772 7 769T-8 765H-27Q-35 765 -39 771ZM75 0T75 23V657Q75 680 98 680H106Q129 680 129 657V23Q129 0 106 0H98Q75 0 75 23Z" />
<glyph unicode="&#xcf;" glyph-name="Idieresis" horiz-adv-x="204" d="M-9 735T-18 745T-28 770V783Q-28 797 -19 807T5 818H19Q33 818 42 808T52 783V770Q52 755 43 745T19 735H5Q-9 735 -18 745ZM171 735T162 745T152 770V783Q152 797 161 807T185 818H199Q213
818 222 808T232 783V770Q232 755 223 745T199 735H185Q171 735 162 745ZM75 0T75 23V657Q75 680 98 680H106Q129 680 129 657V23Q129 0 106 0H98Q75 0 75 23Z" />
<glyph unicode="&#xd0;" glyph-name="Eth" horiz-adv-x="727" d="M125 0T125 23V316H58Q46 316 41 320T35 336V343Q35 365 58 365H125V657Q125 680 148 680H328Q493 680 582 601T672 340Q672 159 583 80T328 0H148Q125 0 125 23ZM334 49Q474 49 547 115T620 340Q620
498 547 564T334 631H179V365H376Q399 365 399 343V336Q399 325 394 321T376 316H179V49H334Z" />
<glyph unicode="&#xd1;" glyph-name="Ntilde" horiz-adv-x="696" d="M391 762T373 770T332 794Q313 807 300 813T269 819Q246 819 230 812T201 788Q188 773 178 773Q169 773 160 782Q153 789 153 796Q153 804 163 817Q202 865 267 865Q296 865 314 857T354 833Q372
820 384 814T416 808Q439 808 455 815T484 839Q497 854 507 854Q516 854 525 845Q532 838 532 831Q532 823 522 810Q483 762 418 762Q391 762 373 770ZM75 0T75 23V657Q75 680 98 680H112Q121 680 126 677T138 665L567 81V657Q567 680 590 680H598Q621 680 621
657V23Q621 0 598 0H584Q575 0 570 3T558 15L129 597V23Q129 0 106 0H98Q75 0 75 23Z" />
<glyph unicode="&#xd2;" glyph-name="Ograve" horiz-adv-x="768" d="M387 765T383 767T375 776L308 920Q306 923 306 928Q306 936 318 936H345Q355 936 359 933T367 922L418 781L420 773Q420 765 410 765H395Q387 765 383 767ZM281 -15T207 27T94 149T55 340Q55
451 94 531T207 653T384 695Q487 695 561 653T674 531T713 340Q713 229 674 149T561 27T384 -15Q281 -15 207 27ZM515 31T588 110T661 340Q661 490 588 569T384 649Q253 649 180 570T107 340Q107 190 180 111T384 31Q515 31 588 110Z" />
<glyph unicode="&#xd3;" glyph-name="Oacute" horiz-adv-x="768" d="M361 765T361 773L363 781L414 922Q417 930 421 933T436 936H463Q475 936 475 928Q475 923 473 920L406 776Q403 770 399 768T386 765H371Q361 765 361 773ZM281 -15T207 27T94 149T55 340Q55
451 94 531T207 653T384 695Q487 695 561 653T674 531T713 340Q713 229 674 149T561 27T384 -15Q281 -15 207 27ZM515 31T588 110T661 340Q661 490 588 569T384 649Q253 649 180 570T107 340Q107 190 180 111T384 31Q515 31 588 110Z" />
<glyph unicode="&#xd4;" glyph-name="Ocircumflex" horiz-adv-x="768" d="M247 758T243 764T243 776L355 932Q363 943 366 946T378 949H390Q398 949 401 946T413 932L525 776Q527 774 527 769Q527 764 523 761T513 758H494Q483 758 479 761T468 775L384 897L300
775Q293 765 289 762T274 758H255Q247 758 243 764ZM281 -15T207 27T94 149T55 340Q55 451 94 531T207 653T384 695Q487 695 561 653T674 531T713 340Q713 229 674 149T561 27T384 -15Q281 -15 207 27ZM515 31T588 110T661 340Q661 490 588 569T384 649Q253 649
180 570T107 340Q107 190 180 111T384 31Q515 31 588 110Z" />
<glyph unicode="&#xd5;" glyph-name="Otilde" horiz-adv-x="768" d="M433 762T415 770T374 794Q355 807 342 813T311 819Q288 819 272 812T243 788Q230 773 220 773Q211 773 202 782Q195 789 195 796Q195 804 205 817Q244 865 309 865Q338 865 356 857T396 833Q414
820 426 814T458 808Q481 808 497 815T526 839Q539 854 549 854Q558 854 567 845Q574 838 574 831Q574 823 564 810Q525 762 460 762Q433 762 415 770ZM281 -15T207 27T94 149T55 340Q55 451 94 531T207 653T384 695Q487 695 561 653T674 531T713 340Q713 229 674
149T561 27T384 -15Q281 -15 207 27ZM515 31T588 110T661 340Q661 490 588 569T384 649Q253 649 180 570T107 340Q107 190 180 111T384 31Q515 31 588 110Z" />
<glyph unicode="&#xd6;" glyph-name="Odieresis" horiz-adv-x="768" d="M273 762T264 772T254 797V810Q254 824 263 834T287 845H301Q315 845 324 835T334 810V797Q334 782 325 772T301 762H287Q273 762 264 772ZM453 762T444 772T434 797V810Q434 824 443 834T467
845H481Q495 845 504 835T514 810V797Q514 782 505 772T481 762H467Q453 762 444 772ZM281 -15T207 27T94 149T55 340Q55 451 94 531T207 653T384 695Q487 695 561 653T674 531T713 340Q713 229 674 149T561 27T384 -15Q281 -15 207 27ZM515 31T588 110T661 340Q661
490 588 569T384 649Q253 649 180 570T107 340Q107 190 180 111T384 31Q515 31 588 110Z" />
<glyph unicode="&#xd7;" glyph-name="multiply" horiz-adv-x="384" d="M64 172Q56 182 56 188Q56 196 64 204L154 294L63 385Q55 393 55 401Q55 409 63 417L69 423Q77 431 85 431Q93 431 101 423L192 332L283 423Q291 431 299 431Q307 431 315 423L321 417Q329
409 329 401Q329 393 321 385L230 294L320 204Q328 197 328 188Q328 180 320 172L314 166Q306 158 298 158Q290 158 282 166L192 256L102 166Q94 158 86 158Q80 158 70 166L64 172Z" />
<glyph unicode="&#xd8;" glyph-name="Oslash" horiz-adv-x="768" d="M626 623T669 541T713 340Q713 229 674 149T561 27T384 -15Q323 -15 272 0L241 -76Q237 -86 226 -86H193Q180 -86 186 -73L224 18Q142 58 99 140T55 340Q55 451 94 531T207 653T384 695Q444
695 495 680L520 741Q524 751 535 751H568Q581 751 575 738L544 662Q626 623 669 541ZM107 237T142 167T242 63L477 637Q435 649 384 649Q253 649 180 570T107 340Q107 237 142 167ZM515 31T588 110T661 340Q661 443 626 513T526 618L290 43Q334 31 384 31Q515
31 588 110Z" />
<glyph unicode="&#xd9;" glyph-name="Ugrave" horiz-adv-x="716" d="M356 765T352 767T344 776L277 920Q275 923 275 928Q275 936 287 936H314Q324 936 328 933T336 922L387 781L389 773Q389 765 379 765H364Q356 765 352 767ZM274 -15T209 15T107 102T70 235V657Q70
680 93 680H101Q124 680 124 657V231Q124 135 189 83T358 31Q461 31 526 83T592 231V657Q592 680 615 680H623Q646 680 646 657V235Q646 159 610 103T508 16T358 -15Q274 -15 209 15Z" />
<glyph unicode="&#xda;" glyph-name="Uacute" horiz-adv-x="716" d="M340 765T340 773L342 781L393 922Q396 930 400 933T415 936H442Q454 936 454 928Q454 923 452 920L385 776Q382 770 378 768T365 765H350Q340 765 340 773ZM274 -15T209 15T107 102T70 235V657Q70
680 93 680H101Q124 680 124 657V231Q124 135 189 83T358 31Q461 31 526 83T592 231V657Q592 680 615 680H623Q646 680 646 657V235Q646 159 610 103T508 16T358 -15Q274 -15 209 15Z" />
<glyph unicode="&#xdb;" glyph-name="Ucircumflex" horiz-adv-x="716" d="M221 758T217 764T217 776L329 932Q337 943 340 946T352 949H364Q372 949 375 946T387 932L499 776Q501 774 501 769Q501 764 497 761T487 758H468Q457 758 453 761T442 775L358 897L274
775Q267 765 263 762T248 758H229Q221 758 217 764ZM274 -15T209 15T107 102T70 235V657Q70 680 93 680H101Q124 680 124 657V231Q124 135 189 83T358 31Q461 31 526 83T592 231V657Q592 680 615 680H623Q646 680 646 657V235Q646 159 610 103T508 16T358 -15Q274
-15 209 15Z" />
<glyph unicode="&#xdc;" glyph-name="Udieresis" horiz-adv-x="716" d="M247 762T238 772T228 797V810Q228 824 237 834T261 845H275Q289 845 298 835T308 810V797Q308 782 299 772T275 762H261Q247 762 238 772ZM427 762T418 772T408 797V810Q408 824 417 834T441
845H455Q469 845 478 835T488 810V797Q488 782 479 772T455 762H441Q427 762 418 772ZM274 -15T209 15T107 102T70 235V657Q70 680 93 680H101Q124 680 124 657V231Q124 135 189 83T358 31Q461 31 526 83T592 231V657Q592 680 615 680H623Q646 680 646 657V235Q646
159 610 103T508 16T358 -15Q274 -15 209 15Z" />
<glyph unicode="&#xdd;" glyph-name="Yacute" horiz-adv-x="680" d="M306 765T306 773L308 781L359 922Q362 930 366 933T381 936H408Q420 936 420 928Q420 923 418 920L351 776Q348 770 344 768T331 765H316Q306 765 306 773ZM313 0T313 23V223L57 662Q55 666
55 668Q55 673 59 676T69 680H88Q99 680 103 677T113 663L340 273L567 663Q572 673 576 676T592 680H611Q619 680 623 675T623 662L367 222V23Q367 0 344 0H336Q313 0 313 23Z" />
<glyph unicode="&#xde;" glyph-name="Thorn" horiz-adv-x="632" d="M75 0T75 23V657Q75 680 98 680H106Q129 680 129 657V556H365Q469 556 523 499T577 340Q577 239 523 182T364 124H129V23Q129 0 106 0H98Q75 0 75 23ZM369 173Q449 173 487 214T525 340Q525 424
487 465T369 507H129V173H369Z" />
<glyph unicode="&#xdf;" glyph-name="germandbls" horiz-adv-x="642" d="M266 -15T194 32Q188 36 187 39T189 48L202 70Q205 75 208 76T216 73Q244 53 285 42T373 31Q452 31 493 74T535 183Q535 260 492 300T367 340H270Q247 340 247 362V369Q247 380 252 384T270
389H374Q418 389 449 408T497 459T513 526Q513 595 465 633T315 671Q215 671 170 621T124 475V23Q124 0 101 0H93Q70 0 70 23V480Q70 587 129 653T317 720Q446 720 505 666T565 526Q565 475 538 430T462 365Q526 346 556 296T587 183Q587 131 563 86T490 13T376
-15Q266 -15 194 32Z" />
<glyph unicode="&#xe0;" glyph-name="agrave" horiz-adv-x="612" d="M352 545T348 547T340 556L273 700Q271 703 271 708Q271 716 283 716H310Q320 716 324 713T332 702L383 561L385 553Q385 545 375 545H360Q352 545 348 547ZM175 -15T115 43T55 208Q55 294 88
358T186 459T340 495Q395 495 448 479T537 439V23Q537 0 514 0H507Q496 0 492 5T486 23L483 71Q415 -15 277 -15Q175 -15 115 43ZM343 31T386 49T456 103T483 184V415Q457 430 419 439T340 449Q232 449 170 387T107 214Q107 120 153 76T297 31Q343 31 386 49Z"
/>
<glyph unicode="&#xe1;" glyph-name="aacute" horiz-adv-x="612" d="M299 545T299 553L301 561L352 702Q355 710 359 713T374 716H401Q413 716 413 708Q413 703 411 700L344 556Q341 550 337 548T324 545H309Q299 545 299 553ZM175 -15T115 43T55 208Q55 294 88
358T186 459T340 495Q395 495 448 479T537 439V23Q537 0 514 0H507Q496 0 492 5T486 23L483 71Q415 -15 277 -15Q175 -15 115 43ZM343 31T386 49T456 103T483 184V415Q457 430 419 439T340 449Q232 449 170 387T107 214Q107 120 153 76T297 31Q343 31 386 49Z"
/>
<glyph unicode="&#xe2;" glyph-name="acircumflex" horiz-adv-x="612" d="M185 538T181 544T181 556L293 712Q301 723 304 726T316 729H328Q336 729 339 726T351 712L463 556Q465 554 465 549Q465 544 461 541T451 538H432Q421 538 417 541T406 555L322 677L238
555Q231 545 227 542T212 538H193Q185 538 181 544ZM175 -15T115 43T55 208Q55 294 88 358T186 459T340 495Q395 495 448 479T537 439V23Q537 0 514 0H507Q496 0 492 5T486 23L483 71Q415 -15 277 -15Q175 -15 115 43ZM343 31T386 49T456 103T483 184V415Q457 430
419 439T340 449Q232 449 170 387T107 214Q107 120 153 76T297 31Q343 31 386 49Z" />
<glyph unicode="&#xe3;" glyph-name="atilde" horiz-adv-x="612" d="M380 562T362 570T321 594Q302 607 289 613T258 619Q235 619 219 612T190 588Q177 573 167 573Q158 573 149 582Q142 589 142 596Q142 604 152 617Q191 665 256 665Q285 665 303 657T343 633Q361
620 373 614T405 608Q428 608 444 615T473 639Q486 654 496 654Q505 654 514 645Q521 638 521 631Q521 623 511 610Q472 562 407 562Q380 562 362 570ZM175 -15T115 43T55 208Q55 294 88 358T186 459T340 495Q395 495 448 479T537 439V23Q537 0 514 0H507Q496 0
492 5T486 23L483 71Q415 -15 277 -15Q175 -15 115 43ZM343 31T386 49T456 103T483 184V415Q457 430 419 439T340 449Q232 449 170 387T107 214Q107 120 153 76T297 31Q343 31 386 49Z" />
<glyph unicode="&#xe4;" glyph-name="adieresis" horiz-adv-x="612" d="M229 562T220 572T210 597V610Q210 624 219 634T243 645H257Q271 645 280 635T290 610V597Q290 582 281 572T257 562H243Q229 562 220 572ZM409 562T400 572T390 597V610Q390 624 399 634T423
645H437Q451 645 460 635T470 610V597Q470 582 461 572T437 562H423Q409 562 400 572ZM175 -15T115 43T55 208Q55 294 88 358T186 459T340 495Q395 495 448 479T537 439V23Q537 0 514 0H507Q496 0 492 5T486 23L483 71Q415 -15 277 -15Q175 -15 115 43ZM343 31T386
49T456 103T483 184V415Q457 430 419 439T340 449Q232 449 170 387T107 214Q107 120 153 76T297 31Q343 31 386 49Z" />
<glyph unicode="&#xe5;" glyph-name="aring" horiz-adv-x="612" d="M278 529T247 560T215 638Q215 684 246 716T324 748Q370 748 402 716T434 638Q434 592 402 561T324 529Q278 529 247 560ZM353 569T373 589T393 638Q393 667 373 687T324 707Q296 707 276 687T255
638Q255 610 275 590T324 569Q353 569 373 589ZM175 -15T115 43T55 208Q55 294 88 358T186 459T340 495Q395 495 448 479T537 439V23Q537 0 514 0H507Q496 0 492 5T486 23L483 71Q415 -15 277 -15Q175 -15 115 43ZM343 31T386 49T456 103T483 184V415Q457 430 419
439T340 449Q232 449 170 387T107 214Q107 120 153 76T297 31Q343 31 386 49Z" />
<glyph unicode="&#xe6;" glyph-name="ae" horiz-adv-x="972" d="M153 -15T104 19T55 125Q55 202 105 239T245 276H434V299Q434 353 422 385T376 434T280 450Q232 450 202 443T130 420L122 418Q114 418 110 429L103 446Q102 448 102 452Q102 461 117 466Q199 496
280 496Q362 496 405 470T472 388Q500 440 552 467T677 495Q917 495 917 236Q917 227 912 222T897 216H488Q488 127 542 79T695 31Q742 31 783 42T854 73Q858 76 861 76Q865 76 868 70L881 48Q883 45 883 41Q883 37 876 32Q839 8 789 -3T687 -15Q531 -15 466 100Q436
43 374 14T232 -15Q153 -15 104 19ZM865 265Q865 355 819 402T677 449Q488 449 488 265H865ZM322 31T378 65T434 167V227H237Q173 227 140 203T107 125Q107 77 138 54T236 31Q322 31 378 65Z" />
<glyph unicode="&#xe7;" glyph-name="ccedilla" horiz-adv-x="569" d="M513 44T513 43Q513 38 506 34Q444 -7 360 -14Q360 -15 358 -21L335 -71Q371 -71 392 -90T413 -145Q413 -183 388 -203T320 -223Q281 -223 255 -207Q246 -201 244 -199T245 -189L253 -172Q256
-164 262 -164Q263 -164 271 -168Q291 -180 320 -180Q345 -180 355 -172T365 -143Q365 -118 349 -111T296 -103H283Q275 -103 273 -99T273 -87L300 -19L302 -14Q186 -9 121 56T55 237Q55 312 87 371T178 462T313 495Q373 495 417 484T499 447Q505 443 506 440T504
431L491 409Q488 403 484 403Q482 403 477 406Q447 427 410 438T317 449Q220 449 164 392T107 237Q107 133 164 82T328 31Q422 31 484 75Q488 78 491 78Q495 78 498 72L511 50Q513 44 513 43Z" />
<glyph unicode="&#xe8;" glyph-name="egrave" horiz-adv-x="602" d="M316 545T312 547T304 556L237 700Q235 703 235 708Q235 716 247 716H274Q284 716 288 713T296 702L347 561L349 553Q349 545 339 545H324Q316 545 312 547ZM203 -15T129 45T55 230Q55 360 121
427T307 495Q547 495 547 236Q547 227 542 222T527 216H108Q108 125 165 78T325 31Q372 31 413 42T484 73Q488 76 491 76Q495 76 498 70L511 48Q513 45 513 41Q513 37 506 32Q469 8 419 -3T317 -15Q203 -15 129 45ZM495 265Q495 353 448 401T307 449Q212 449 160
399T108 265H495Z" />
<glyph unicode="&#xe9;" glyph-name="eacute" horiz-adv-x="602" d="M270 545T270 553L272 561L323 702Q326 710 330 713T345 716H372Q384 716 384 708Q384 703 382 700L315 556Q312 550 308 548T295 545H280Q270 545 270 553ZM203 -15T129 45T55 230Q55 360 121
427T307 495Q547 495 547 236Q547 227 542 222T527 216H108Q108 125 165 78T325 31Q372 31 413 42T484 73Q488 76 491 76Q495 76 498 70L511 48Q513 45 513 41Q513 37 506 32Q469 8 419 -3T317 -15Q203 -15 129 45ZM495 265Q495 353 448 401T307 449Q212 449 160
399T108 265H495Z" />
<glyph unicode="&#xea;" glyph-name="ecircumflex" horiz-adv-x="602" d="M174 538T170 544T170 556L282 712Q290 723 293 726T305 729H317Q325 729 328 726T340 712L452 556Q454 554 454 549Q454 544 450 541T440 538H421Q410 538 406 541T395 555L311 677L227
555Q220 545 216 542T201 538H182Q174 538 170 544ZM203 -15T129 45T55 230Q55 360 121 427T307 495Q547 495 547 236Q547 227 542 222T527 216H108Q108 125 165 78T325 31Q372 31 413 42T484 73Q488 76 491 76Q495 76 498 70L511 48Q513 45 513 41Q513 37 506
32Q469 8 419 -3T317 -15Q203 -15 129 45ZM495 265Q495 353 448 401T307 449Q212 449 160 399T108 265H495Z" />
<glyph unicode="&#xeb;" glyph-name="edieresis" horiz-adv-x="602" d="M198 542T189 552T179 577V590Q179 604 188 614T212 625H226Q240 625 249 615T259 590V577Q259 562 250 552T226 542H212Q198 542 189 552ZM378 542T369 552T359 577V590Q359 604 368 614T392
625H406Q420 625 429 615T439 590V577Q439 562 430 552T406 542H392Q378 542 369 552ZM203 -15T129 45T55 230Q55 360 121 427T307 495Q547 495 547 236Q547 227 542 222T527 216H108Q108 125 165 78T325 31Q372 31 413 42T484 73Q488 76 491 76Q495 76 498 70L511
48Q513 45 513 41Q513 37 506 32Q469 8 419 -3T317 -15Q203 -15 129 45ZM495 265Q495 353 448 401T307 449Q212 449 160 399T108 265H495Z" />
<glyph unicode="&#xec;" glyph-name="igrave" horiz-adv-x="204" d="M94 575T90 577T82 586L15 730Q13 733 13 738Q13 746 25 746H52Q62 746 66 743T74 732L125 591L127 583Q127 575 117 575H102Q94 575 90 577ZM75 0T75 23V457Q75 480 98 480H106Q129 480 129
457V23Q129 0 106 0H98Q75 0 75 23Z" />
<glyph unicode="&#xed;" glyph-name="iacute" horiz-adv-x="204" d="M80 575T80 583L82 591L133 732Q136 740 140 743T155 746H182Q194 746 194 738Q194 733 192 730L125 586Q122 580 118 578T105 575H90Q80 575 80 583ZM75 0T75 23V457Q75 480 98 480H106Q129
480 129 457V23Q129 0 106 0H98Q75 0 75 23Z" />
<glyph unicode="&#xee;" glyph-name="icircumflex" horiz-adv-x="204" d="M-35 568T-39 574T-39 586L73 742Q81 753 84 756T96 759H108Q116 759 119 756T131 742L243 586Q245 584 245 579Q245 574 241 571T231 568H212Q201 568 197 571T186 585L102 707L18 585Q11
575 7 572T-8 568H-27Q-35 568 -39 574ZM75 0T75 23V457Q75 480 98 480H106Q129 480 129 457V23Q129 0 106 0H98Q75 0 75 23Z" />
<glyph unicode="&#xef;" glyph-name="idieresis" horiz-adv-x="204" d="M-9 572T-18 582T-28 607V620Q-28 634 -19 644T5 655H19Q33 655 42 645T52 620V607Q52 592 43 582T19 572H5Q-9 572 -18 582ZM171 572T162 582T152 607V620Q152 634 161 644T185 655H199Q213
655 222 645T232 620V607Q232 592 223 582T199 572H185Q171 572 162 582ZM75 0T75 23V457Q75 480 98 480H106Q129 480 129 457V23Q129 0 106 0H98Q75 0 75 23Z" />
<glyph unicode="&#xf0;" glyph-name="eth" horiz-adv-x="679" d="M168 -15T112 34T55 173Q55 266 91 334T194 438T355 475Q424 475 473 451T553 374Q557 410 557 448Q557 542 523 591L472 520Q468 515 465 513T457 510H424Q417 510 416 514T417 523L489 624Q448
649 387 649Q345 649 315 641T251 615Q246 612 244 612Q241 612 238 618L227 642Q226 644 226 647Q226 651 230 654T236 658Q298 695 396 695Q467 695 517 663L566 732Q570 737 573 739T581 742H614Q621 742 622 738T621 729L553 633Q609 570 609 447Q609 373 591
290Q557 129 470 57T266 -15Q168 -15 112 34ZM333 31T384 56T474 132T529 252Q533 268 533 287Q533 332 507 363T439 411T354 428Q237 428 173 363T108 173Q108 101 151 66T276 31Q333 31 384 56Z" />
<glyph unicode="&#xf1;" glyph-name="ntilde" horiz-adv-x="588" d="M344 562T326 570T285 594Q266 607 253 613T222 619Q199 619 183 612T154 588Q141 573 131 573Q122 573 113 582Q106 589 106 596Q106 604 116 617Q155 665 220 665Q249 665 267 657T307 633Q325
620 337 614T369 608Q392 608 408 615T437 639Q450 654 460 654Q469 654 478 645Q485 638 485 631Q485 623 475 610Q436 562 371 562Q344 562 326 570ZM75 0T75 23V457Q75 469 79 474T94 480H104Q115 480 119 475T123 457V406Q160 447 215 471T339 495Q421 495
469 454T518 327V23Q518 0 495 0H487Q464 0 464 23V324Q464 392 430 420T326 449Q280 449 235 431T159 379T129 304V23Q129 0 106 0H98Q75 0 75 23Z" />
<glyph unicode="&#xf2;" glyph-name="ograve" horiz-adv-x="618" d="M322 575T318 577T310 586L243 730Q241 733 241 738Q241 746 253 746H280Q290 746 294 743T302 732L353 591L355 583Q355 575 345 575H330Q322 575 318 577ZM186 -15T121 53T55 240Q55 358 120
426T309 495Q432 495 497 427T563 240Q563 122 498 54T309 -15Q186 -15 121 53ZM407 31T459 85T511 240Q511 340 459 394T309 449Q211 449 159 395T107 240Q107 140 159 86T309 31Q407 31 459 85Z" />
<glyph unicode="&#xf3;" glyph-name="oacute" horiz-adv-x="618" d="M274 545T274 553L276 561L327 702Q330 710 334 713T349 716H376Q388 716 388 708Q388 703 386 700L319 556Q316 550 312 548T299 545H284Q274 545 274 553ZM186 -15T121 53T55 240Q55 358 120
426T309 495Q432 495 497 427T563 240Q563 122 498 54T309 -15Q186 -15 121 53ZM407 31T459 85T511 240Q511 340 459 394T309 449Q211 449 159 395T107 240Q107 140 159 86T309 31Q407 31 459 85Z" />
<glyph unicode="&#xf4;" glyph-name="ocircumflex" horiz-adv-x="618" d="M172 538T168 544T168 556L280 712Q288 723 291 726T303 729H315Q323 729 326 726T338 712L450 556Q452 554 452 549Q452 544 448 541T438 538H419Q408 538 404 541T393 555L309 677L225
555Q218 545 214 542T199 538H180Q172 538 168 544ZM186 -15T121 53T55 240Q55 358 120 426T309 495Q432 495 497 427T563 240Q563 122 498 54T309 -15Q186 -15 121 53ZM407 31T459 85T511 240Q511 340 459 394T309 449Q211 449 159 395T107 240Q107 140 159 86T309
31Q407 31 459 85Z" />
<glyph unicode="&#xf5;" glyph-name="otilde" horiz-adv-x="618" d="M358 562T340 570T299 594Q280 607 267 613T236 619Q213 619 197 612T168 588Q155 573 145 573Q136 573 127 582Q120 589 120 596Q120 604 130 617Q169 665 234 665Q263 665 281 657T321 633Q339
620 351 614T383 608Q406 608 422 615T451 639Q464 654 474 654Q483 654 492 645Q499 638 499 631Q499 623 489 610Q450 562 385 562Q358 562 340 570ZM186 -15T121 53T55 240Q55 358 120 426T309 495Q432 495 497 427T563 240Q563 122 498 54T309 -15Q186 -15
121 53ZM407 31T459 85T511 240Q511 340 459 394T309 449Q211 449 159 395T107 240Q107 140 159 86T309 31Q407 31 459 85Z" />
<glyph unicode="&#xf6;" glyph-name="odieresis" horiz-adv-x="618" d="M198 552T189 562T179 587V600Q179 614 188 624T212 635H226Q240 635 249 625T259 600V587Q259 572 250 562T226 552H212Q198 552 189 562ZM378 552T369 562T359 587V600Q359 614 368 624T392
635H406Q420 635 429 625T439 600V587Q439 572 430 562T406 552H392Q378 552 369 562ZM186 -15T121 53T55 240Q55 358 120 426T309 495Q432 495 497 427T563 240Q563 122 498 54T309 -15Q186 -15 121 53ZM407 31T459 85T511 240Q511 340 459 394T309 449Q211 449
159 395T107 240Q107 140 159 86T309 31Q407 31 459 85Z" />
<glyph unicode="&#xf7;" glyph-name="divide" horiz-adv-x="474" d="M217 372T208 381T199 405V418Q199 432 208 441T230 451H244Q257 451 266 442T275 418V405Q275 391 267 382T244 372H230Q217 372 208 381ZM66 270T61 274T55 290V297Q55 319 78 319H396Q419
319 419 297V290Q419 279 414 275T396 270H78Q66 270 61 274ZM217 138T208 147T199 171V184Q199 198 208 207T230 217H244Q257 217 266 208T275 184V171Q275 157 267 148T244 138H230Q217 138 208 147Z" />
<glyph unicode="&#xf8;" glyph-name="oslash" horiz-adv-x="618" d="M141 -87T147 -74L181 10Q119 39 87 98T55 240Q55 358 120 426T309 495Q347 495 378 488L409 563Q413 573 424 573H457Q470 573 464 560L428 473Q494 445 528 385T563 240Q563 122 498 54T309
-15Q266 -15 231 -6L202 -77Q198 -87 187 -87H154Q141 -87 147 -74ZM360 444Q333 449 309 449Q211 449 159 395T107 240Q107 172 130 125T199 54L360 444ZM407 31T459 85T511 240Q511 310 485 358T410 429L249 37Q276 31 309 31Q407 31 459 85Z" />
<glyph unicode="&#xf9;" glyph-name="ugrave" horiz-adv-x="578" d="M283 545T279 547T271 556L204 700Q202 703 202 708Q202 716 214 716H241Q251 716 255 713T263 702L314 561L316 553Q316 545 306 545H291Q283 545 279 547ZM172 -15T121 30T70 162V457Q70 480
93 480H101Q124 480 124 457V161Q124 93 160 62T267 31Q315 31 357 50T424 102T449 178V457Q449 480 472 480H480Q503 480 503 457V23Q503 11 499 6T484 0H474Q463 0 459 5T455 23V76Q419 32 372 9T254 -15Q172 -15 121 30Z" />
<glyph unicode="&#xfa;" glyph-name="uacute" horiz-adv-x="578" d="M254 545T254 553L256 561L307 702Q310 710 314 713T329 716H356Q368 716 368 708Q368 703 366 700L299 556Q296 550 292 548T279 545H264Q254 545 254 553ZM172 -15T121 30T70 162V457Q70 480
93 480H101Q124 480 124 457V161Q124 93 160 62T267 31Q315 31 357 50T424 102T449 178V457Q449 480 472 480H480Q503 480 503 457V23Q503 11 499 6T484 0H474Q463 0 459 5T455 23V76Q419 32 372 9T254 -15Q172 -15 121 30Z" />
<glyph unicode="&#xfb;" glyph-name="ucircumflex" horiz-adv-x="578" d="M149 538T145 544T145 556L257 712Q265 723 268 726T280 729H292Q300 729 303 726T315 712L427 556Q429 554 429 549Q429 544 425 541T415 538H396Q385 538 381 541T370 555L286 677L202
555Q195 545 191 542T176 538H157Q149 538 145 544ZM172 -15T121 30T70 162V457Q70 480 93 480H101Q124 480 124 457V161Q124 93 160 62T267 31Q315 31 357 50T424 102T449 178V457Q449 480 472 480H480Q503 480 503 457V23Q503 11 499 6T484 0H474Q463 0 459 5T455
23V76Q419 32 372 9T254 -15Q172 -15 121 30Z" />
<glyph unicode="&#xfc;" glyph-name="udieresis" horiz-adv-x="578" d="M174 562T165 572T155 597V610Q155 624 164 634T188 645H202Q216 645 225 635T235 610V597Q235 582 226 572T202 562H188Q174 562 165 572ZM354 562T345 572T335 597V610Q335 624 344 634T368
645H382Q396 645 405 635T415 610V597Q415 582 406 572T382 562H368Q354 562 345 572ZM172 -15T121 30T70 162V457Q70 480 93 480H101Q124 480 124 457V161Q124 93 160 62T267 31Q315 31 357 50T424 102T449 178V457Q449 480 472 480H480Q503 480 503 457V23Q503
11 499 6T484 0H474Q463 0 459 5T455 23V76Q419 32 372 9T254 -15Q172 -15 121 30Z" />
<glyph unicode="&#xfd;" glyph-name="yacute" horiz-adv-x="583" d="M268 575T268 583L270 591L321 732Q324 740 328 743T343 746H370Q382 746 382 738Q382 733 380 730L313 586Q310 580 306 578T293 575H278Q268 575 268 583ZM107 -156T63 -126Q58 -122 57 -119T58
-110L72 -88Q75 -82 79 -82Q82 -82 86 -85Q105 -98 124 -104T169 -110Q205 -110 226 -89T268 -17L280 13L70 462Q68 466 68 468Q68 473 72 476T82 480H101Q112 480 117 476T126 463L308 68L490 463Q494 472 499 476T515 480H534Q542 480 546 475T546 462L324 -12Q299
-66 279 -95T233 -140T167 -156Q107 -156 63 -126Z" />
<glyph unicode="&#xfe;" glyph-name="thorn" horiz-adv-x="612" d="M75 -202T75 -179V672Q75 695 98 695H106Q129 695 129 672V469Q199 495 278 495Q557 495 557 240Q557 120 494 53T326 -15Q260 -15 213 5T129 71V-179Q129 -202 106 -202H98Q75 -202 75 -179ZM505
32T505 246Q505 354 449 401T278 449Q235 449 195 441T129 420V184Q129 138 155 104T222 51T309 32Q505 32 505 246Z" />
<glyph unicode="&#xff;" glyph-name="ydieresis" horiz-adv-x="583" d="M197 562T188 572T178 597V610Q178 624 187 634T211 645H225Q239 645 248 635T258 610V597Q258 582 249 572T225 562H211Q197 562 188 572ZM377 562T368 572T358 597V610Q358 624 367 634T391
645H405Q419 645 428 635T438 610V597Q438 582 429 572T405 562H391Q377 562 368 572ZM107 -156T63 -126Q58 -122 57 -119T58 -110L72 -88Q75 -82 79 -82Q82 -82 86 -85Q105 -98 124 -104T169 -110Q205 -110 226 -89T268 -17L280 13L70 462Q68 466 68 468Q68 473
72 476T82 480H101Q112 480 117 476T126 463L308 68L490 463Q494 472 499 476T515 480H534Q542 480 546 475T546 462L324 -12Q299 -66 279 -95T233 -140T167 -156Q107 -156 63 -126Z" />
<glyph unicode="&#x2013;" glyph-name="endash" horiz-adv-x="574" d="M66 270T61 274T55 290V297Q55 319 78 319H496Q519 319 519 297V290Q519 279 514 275T496 270H78Q66 270 61 274Z" />
<glyph unicode="&#x2014;" glyph-name="emdash" horiz-adv-x="864" d="M66 270T61 274T55 290V297Q55 319 78 319H786Q809 319 809 297V290Q809 279 804 275T786 270H78Q66 270 61 274Z" />
<glyph unicode="&#x2018;" glyph-name="quoteleft" horiz-adv-x="226" d="M55 499T55 507L57 515L129 684Q132 690 136 692T149 695H161Q170 695 170 687Q170 682 169 679L113 513Q110 505 106 502T91 499H67Q55 499 55 507Z" />
<glyph unicode="&#x2019;" glyph-name="quoteright" horiz-adv-x="226" d="M56 499T56 507Q56 512 57 515L113 681Q116 689 120 692T135 695H159Q171 695 171 687L169 679L97 510Q94 504 90 502T77 499H65Q56 499 56 507Z" />
<glyph unicode="&#x201a;" glyph-name="quotesinglbase" horiz-adv-x="226" d="M56 -119T56 -111Q56 -106 57 -103L113 63Q116 71 120 74T135 77H159Q171 77 171 69L169 61L97 -108Q94 -114 90 -116T77 -119H65Q56 -119 56 -111Z" />
<glyph unicode="&#x201c;" glyph-name="quotedblleft" horiz-adv-x="380" d="M55 499T55 507L57 515L129 684Q132 690 136 692T149 695H161Q170 695 170 687Q170 682 169 679L113 513Q110 505 106 502T91 499H67Q55 499 55 507ZM209 499T209 507L211 515L283 684Q286
690 290 692T303 695H315Q324 695 324 687Q324 682 323 679L267 513Q264 505 260 502T245 499H221Q209 499 209 507Z" />
<glyph unicode="&#x201d;" glyph-name="quotedblright" horiz-adv-x="380" d="M56 499T56 507Q56 512 57 515L113 681Q116 689 120 692T135 695H159Q171 695 171 687L169 679L97 510Q94 504 90 502T77 499H65Q56 499 56 507ZM210 499T210 507Q210 512 211 515L267
681Q270 689 274 692T289 695H313Q325 695 325 687L323 679L251 510Q248 504 244 502T231 499H219Q210 499 210 507Z" />
<glyph unicode="&#x201e;" glyph-name="quotedblbase" horiz-adv-x="356" d="M56 -119T56 -111Q56 -106 57 -103L113 63Q116 71 120 74T135 77H159Q171 77 171 69L169 61L97 -108Q94 -114 90 -116T77 -119H65Q56 -119 56 -111ZM186 -119T186 -111Q186 -106 187
-103L243 63Q246 71 250 74T265 77H289Q301 77 301 69L299 61L227 -108Q224 -114 220 -116T207 -119H195Q186 -119 186 -111Z" />
<glyph unicode="&#x2022;" glyph-name="bullet" horiz-adv-x="274" d="M95 209T75 231T55 283V306Q55 336 75 357T124 379H150Q179 379 199 358T219 306V283Q219 253 200 231T150 209H124Q95 209 75 231Z" />
<glyph unicode="&#x2039;" glyph-name="guilsinglleft" horiz-adv-x="355" d="M275 40T269 40Q262 40 254 48L70 245Q68 247 64 252T57 261T55 270V278Q55 284 58 289T65 297T70 303L254 500Q262 508 269 508Q275 508 281 502L293 491Q300 485 300 479Q300 472
292 464L114 274L292 84Q300 76 300 69Q300 63 293 57L281 46Q275 40 269 40Z" />
<glyph unicode="&#x203a;" glyph-name="guilsinglright" horiz-adv-x="355" d="M62 57Q55 63 55 69Q55 76 63 84L241 274L63 464Q55 472 55 479Q55 485 62 491L74 502Q80 508 86 508Q93 508 101 500L285 303Q287 301 291 296T298 287T300 278V270Q300 264 297
259T290 251T285 245L101 48Q93 40 86 40Q80 40 74 46L62 57Z" />
</font>
</defs>
</svg>
