<?xml version="1.0" standalone="no"?>
<!DOCTYPE svg PUBLIC "-//W3C//DTD SVG 1.1//EN" "http://www.w3.org/Graphics/SVG/1.1/DTD/svg11.dtd">
<svg xmlns="http://www.w3.org/2000/svg">
<defs >
<font id="AbhayaLibre" horiz-adv-x="415" ><font-face
    font-family="Abhaya Libre"
    units-per-em="1024"
    panose-1="2 0 5 3 0 0 0 0 0 0"
    ascent="860"
    descent="-348"
    alphabetic="0" />
<glyph unicode=" " glyph-name="space" horiz-adv-x="195" />
<glyph unicode="!" glyph-name="exclam" horiz-adv-x="279" d="M154 167Q154 295 181 451Q192 514 192 546Q192 605 149 609Q145 610 140 610Q88 608 87 544Q87 517 104 412Q124 293 124 167H154ZM189 46Q189 79 159 93Q149 98 138 98Q105 98 92 68Q87 57 87 46Q87
14 116 0Q127 -5 138 -5Q170 -5 184 24Q189 35 189 46Z" />
<glyph unicode="&quot;" glyph-name="quotedbl" horiz-adv-x="306" d="M92 655Q59 655 51 625Q50 619 50 613Q50 603 66 530Q76 485 78 450H105Q107 482 127 575Q133 601 133 614Q133 646 104 653Q98 655 92 655ZM215 655Q177 648 173 613Q173 603 189 530Q199
485 201 450H228Q230 482 250 575Q256 601 256 614Q256 646 227 653Q221 655 215 655Z" />
<glyph unicode="#" glyph-name="numbersign" horiz-adv-x="579" d="M322 -10H352L379 195H506V240H385L402 370H519V415H408L432 600H402L378 415H234L258 600H228L204 415H73V370H198L181 240H60V195H175L148 -10H178L205 195H349L322 -10ZM355 240H211L228 370H372L355
240Z" />
<glyph unicode="$" glyph-name="dollar" horiz-adv-x="538" d="M154 483Q154 549 218 573Q236 579 258 581V363Q174 404 158 453Q154 468 154 483ZM403 133Q403 43 305 23Q296 21 287 20V259Q377 218 396 170Q403 152 403 133ZM287 -91V-8Q407 1 460 70Q488 108
488 157Q488 245 392 301Q368 314 287 350V582Q348 578 365 530Q368 521 372 504Q381 463 398 453Q411 446 430 446Q474 451 477 500Q477 560 397 591Q348 610 288 610H287V699H258V609Q145 598 97 533Q72 499 72 457Q72 370 168 315Q195 300 258 272V18H254Q187
18 171 68Q168 78 165 99Q157 144 139 156Q125 165 104 165Q60 165 52 122Q50 114 50 106Q50 45 134 12Q188 -9 256 -9H258V-91H287Z" />
<glyph unicode="%" glyph-name="percent" horiz-adv-x="803" d="M189 -29L626 610L597 630L159 -10L189 -29ZM211 615Q123 615 83 544Q60 504 60 450Q60 340 133 298Q167 279 208 279Q297 279 337 352Q359 393 359 447Q359 563 279 601Q248 615 211 615ZM210 299Q158
299 144 361Q137 394 137 447Q137 568 180 589Q193 595 209 595Q260 595 274 532Q281 500 281 450Q280 300 210 299ZM590 326Q502 326 462 255Q439 215 439 161Q439 51 512 9Q546 -10 587 -10Q676 -10 716 63Q738 104 738 158Q738 274 658 312Q627 326 590 326ZM589
10Q537 10 523 72Q516 105 516 158Q516 279 559 300Q572 306 588 306Q639 306 653 243Q660 211 660 161Q659 11 589 10Z" />
<glyph unicode="&amp;" glyph-name="ampersand" horiz-adv-x="592" d="M226 504Q226 565 275 581Q287 585 300 585Q353 585 369 540Q374 525 374 510Q374 463 325 426Q297 405 260 395Q226 463 226 504ZM269 20Q157 20 128 132Q120 164 120 202Q120 290 176 330Q191
340 206 345Q273 219 401 68Q343 20 269 20ZM526 319H525H528L559 320Q582 320 585 332Q587 339 587 347H443V321H498Q498 210 450 127Q331 267 272 373Q355 396 389 460Q402 485 402 510Q402 575 345 600Q323 610 298 610Q204 610 172 545Q159 518 159 487Q160
441 195 367Q78 335 45 240Q35 210 35 176Q35 85 104 32Q159 -10 237 -10Q347 -9 417 49Q432 31 461 0H602Q602 23 586 25Q582 26 577 26H540Q516 52 469 105Q526 193 526 319Z" />
<glyph unicode="&apos;" glyph-name="quotesingle" horiz-adv-x="189" d="M95 655Q57 655 51 623Q50 618 50 613Q50 603 67 533Q79 486 81 450H108Q110 484 132 574Q139 601 139 614Q139 648 106 654Q100 655 95 655Z" />
<glyph unicode="(" glyph-name="parenleft" horiz-adv-x="336" d="M312 650Q171 612 99 467Q50 366 50 246Q50 78 139 -36Q207 -122 309 -150L319 -125Q214 -87 163 54Q131 144 131 248Q131 412 205 526Q253 599 321 625L312 650Z" />
<glyph unicode=")" glyph-name="parenright" horiz-adv-x="338" d="M26 650Q167 612 239 467Q288 366 288 246Q288 78 199 -36Q131 -122 29 -150L19 -125Q124 -87 175 54Q207 144 207 248Q207 412 133 526Q85 599 17 625L26 650Z" />
<glyph unicode="*" glyph-name="asterisk" horiz-adv-x="334" d="M167 650Q136 650 132 623Q131 620 131 617Q131 610 147 553Q154 525 157 504Q143 515 100 559Q72 587 55 588Q34 588 24 564Q21 557 21 550Q22 531 38 522Q44 519 101 504Q128 497 148 489Q133
483 64 464Q45 459 37 454Q20 444 20 428Q20 406 39 394Q47 389 56 389Q73 389 110 429Q141 462 157 474Q155 458 136 386Q131 368 131 359Q131 332 159 328Q163 327 166 327Q197 327 201 354Q202 357 202 360Q202 368 186 423Q178 452 175 474Q189 465 231 420Q262
389 278 389Q299 389 309 413Q312 420 312 427Q311 446 295 455Q289 458 232 473Q205 480 185 488Q200 494 269 513Q288 518 296 523Q313 533 313 549Q313 571 294 583Q286 588 277 588Q259 588 225 551Q193 516 176 503Q178 519 197 591Q202 609 202 618Q202 645
174 649Q170 650 167 650Z" />
<glyph unicode="+" glyph-name="plus" horiz-adv-x="469" d="M424 216V252H257V430H212V252H45V216H212V38H257V216H424Z" />
<glyph unicode="," glyph-name="comma" horiz-adv-x="193" d="M153 37Q153 91 113 101Q105 103 98 103Q66 103 54 73Q50 63 50 53Q50 21 82 9Q87 8 90 7Q112 1 113 -10Q112 -37 69 -82L90 -97Q151 -31 153 37Z" />
<glyph unicode="-" glyph-name="short_dash1" horiz-adv-x="344" d="M43 234H271V187H43V234Z" />
<glyph unicode="." glyph-name="period" horiz-adv-x="202" d="M152 46Q152 79 122 93Q112 98 101 98Q68 98 55 68Q50 57 50 46Q50 14 79 0Q90 -5 101 -5Q133 -5 147 24Q152 35 152 46Z" />
<glyph unicode="/" glyph-name="slash" horiz-adv-x="411" d="M60 -155L401 710H341L0 -155H60Z" />
<glyph unicode="0" glyph-name="zero" horiz-adv-x="523" d="M265 540Q158 540 96 453Q45 380 45 269Q45 100 142 28Q194 -10 261 -10Q368 -10 429 80Q479 154 479 266Q479 444 374 510Q326 540 265 540ZM264 16Q174 16 147 125Q133 181 133 266Q133 473 219 506Q239
514 263 514Q342 514 370 435Q390 377 390 269Q390 45 294 20Q280 16 264 16Z" />
<glyph unicode="1" glyph-name="one" horiz-adv-x="418" d="M221 530L20 397L38 368L194 468V35L57 26V0H403Q403 22 385 26Q381 27 377 27L274 35V530H221Z" />
<glyph unicode="2" glyph-name="two" horiz-adv-x="468" d="M80 70Q80 99 152 145Q165 153 193 171Q305 238 346 283Q397 338 397 397Q397 490 304 525Q263 540 212 540Q120 540 67 491Q31 457 31 411Q31 370 61 360Q68 358 74 358Q113 358 122 398Q124 408 126
428Q132 482 152 499Q170 514 203 514Q292 514 309 432Q312 416 312 398Q312 305 227 237Q218 230 137 175Q61 124 41 76Q30 49 30 20V0H411L413 168H394L378 114Q367 79 339 72Q327 70 306 70H80Z" />
<glyph unicode="3" glyph-name="three" horiz-adv-x="498" d="M427 510V530H55L53 365H76L94 421Q105 454 136 459Q143 460 151 461L330 460L149 251L171 233Q207 248 242 248Q312 248 343 180Q360 144 360 98Q360 -44 231 -54Q221 -55 211 -55Q157 -55 145 -6Q142
4 140 25Q134 73 117 86Q105 94 86 94Q50 94 42 60Q40 52 40 45Q40 -22 115 -58Q163 -80 225 -80Q344 -80 406 2Q444 52 444 112Q444 191 387 239Q340 278 273 278Q241 278 205 270L427 510Z" />
<glyph unicode="4" glyph-name="four" horiz-adv-x="496" d="M456 -70Q456 -46 443 -44Q438 -43 432 -43H364V86H456V116H364V312H344L334 274Q326 241 311 236Q304 233 294 233H288V117L54 118Q367 377 368 493Q366 539 323 540Q291 540 273 502Q267 490 256
459Q214 344 154 265Q96 189 10 118L16 88L288 87V-43H181V-70H456Z" />
<glyph unicode="5" glyph-name="five" horiz-adv-x="476" d="M441 115Q441 205 376 258Q324 300 249 300Q174 299 119 262V455Q199 447 254 447Q357 447 384 474Q407 497 407 570H383Q375 537 345 529Q321 522 267 522Q259 522 86 529V252L119 227Q166 265 226
265Q323 265 350 170Q358 142 358 109Q358 -2 284 -40Q254 -55 215 -55Q161 -55 150 -7Q147 3 145 25Q140 73 123 86Q111 94 92 94Q50 86 45 45Q45 -11 103 -49Q153 -80 222 -80Q349 -80 409 8Q441 56 441 115Z" />
<glyph unicode="6" glyph-name="six" horiz-adv-x="506" d="M462 184Q462 292 377 343Q329 371 270 371Q197 370 141 328Q151 501 201 553Q232 584 280 584Q339 584 352 539Q354 530 357 512Q362 472 379 462Q390 456 405 456Q445 456 452 494Q453 500 453 506Q453
561 387 591Q344 610 290 610Q153 610 90 481Q50 399 50 284Q50 91 150 22Q195 -10 259 -10Q360 -10 418 58Q462 110 462 184ZM135 174Q135 299 213 333Q235 342 259 342Q336 342 364 267Q376 233 376 188Q376 39 284 19Q271 16 257 16Q175 16 146 99Q135 133 135
174Z" />
<glyph unicode="7" glyph-name="seven" horiz-adv-x="446" d="M456 510V530H27L25 354H47L65 410Q78 450 115 455Q126 457 143 457H386Q187 164 149 99Q97 10 97 -32Q105 -76 146 -80Q182 -80 196 -50Q200 -42 225 45Q287 260 456 510Z" />
<glyph unicode="8" glyph-name="eight" horiz-adv-x="538" d="M255 -10Q361 -10 425 49Q473 94 473 154Q473 230 387 287Q367 300 339 316Q425 359 437 443Q439 454 439 465Q439 553 357 591Q316 610 268 610Q165 610 113 547Q81 508 81 454Q81 379 175 321Q187
314 199 307Q93 278 67 191Q60 169 60 147Q60 53 149 11Q195 -10 255 -10ZM159 490Q159 556 228 576Q250 582 276 582Q343 582 381 535Q405 504 405 464Q405 395 347 352Q330 339 311 331Q219 379 190 412Q159 448 159 490ZM94 149Q94 214 153 256Q187 280 232
289Q325 241 354 214Q395 177 395 130Q395 51 311 26Q282 18 248 18Q165 18 121 71Q94 104 94 149Z" />
<glyph unicode="9" glyph-name="nine" horiz-adv-x="510" d="M460 245Q460 425 366 500Q315 540 244 540Q137 540 81 467Q45 419 45 356Q45 252 127 204Q173 177 230 177Q311 178 370 227Q363 -53 224 -54Q167 -54 155 -10Q153 -2 151 16Q146 56 130 66Q118 73
101 73Q62 73 55 37Q54 31 54 25Q54 -30 116 -60Q158 -80 212 -80Q383 -80 438 88Q460 157 460 245ZM130 369Q130 503 229 513Q237 514 244 514Q333 514 359 423Q367 393 367 358Q367 235 279 211Q262 207 242 207Q131 209 130 369Z" />
<glyph unicode=":" glyph-name="colon" horiz-adv-x="208" d="M153 335Q153 367 124 380Q114 384 104 384Q72 384 59 355Q55 345 55 335Q55 303 84 290Q94 286 104 286Q136 286 149 315Q153 325 153 335ZM153 101Q153 133 124 146Q114 150 104 150Q72 150 59 121Q55
111 55 101Q55 69 84 56Q94 52 104 52Q136 52 149 81Q153 91 153 101Z" />
<glyph unicode=";" glyph-name="semicolon" horiz-adv-x="193" d="M148 282Q148 314 119 327Q109 331 99 331Q67 331 54 302Q50 292 50 282Q50 250 79 237Q89 233 99 233Q131 233 144 262Q148 272 148 282ZM153 54Q153 108 113 118Q105 120 98 120Q66 120 54 90Q50
80 50 70Q50 38 82 26Q87 25 90 24Q112 18 113 7Q112 -20 69 -65L90 -80Q151 -14 153 54Z" />
<glyph unicode="&lt;" glyph-name="less" horiz-adv-x="462" d="M403 77L417 109L101 236L417 364L405 393L45 249V221L403 77Z" />
<glyph unicode="=" glyph-name="equal" horiz-adv-x="469" d="M424 271V307H45V271H424ZM424 161V197H45V161H424Z" />
<glyph unicode="&gt;" glyph-name="greater" horiz-adv-x="462" d="M59 393L45 361L361 234L45 106L57 77L417 221V249L59 393Z" />
<glyph unicode="?" glyph-name="question" horiz-adv-x="457" d="M223 167Q223 252 291 320Q302 331 325 351Q380 400 394 430Q405 454 405 480Q405 573 306 601Q272 610 232 610Q137 610 88 564Q61 538 60 506Q62 454 109 453Q146 453 154 489Q156 497 158 513Q163
560 181 573Q197 584 223 584Q302 584 308 516Q309 508 309 500Q309 439 267 372Q224 305 214 280Q193 228 193 167H223ZM259 46Q259 79 229 93Q219 98 208 98Q175 98 162 68Q157 57 157 46Q157 14 186 0Q197 -5 208 -5Q240 -5 254 24Q259 35 259 46Z" />
<glyph unicode="@" glyph-name="at" horiz-adv-x="891" d="M666 -118L654 -93Q567 -135 478 -135Q336 -135 240 -38Q140 62 140 217Q140 368 226 463Q311 555 449 555Q574 555 660 468Q756 370 756 205Q756 85 690 47Q670 35 648 35Q597 37 596 96V278Q594 414
447 415Q343 415 309 366Q300 351 300 337Q306 307 335 303Q367 303 376 333Q377 337 379 344Q387 378 406 386Q419 392 437 392Q520 390 521 299V242Q335 241 292 176Q275 151 275 115Q275 39 344 17Q365 11 388 11Q455 11 499 59Q513 74 520 91Q529 34 594 16Q615
10 639 10Q723 10 775 73Q821 128 821 215Q821 411 685 512Q589 583 458 583Q248 583 140 436Q65 333 65 192Q65 25 186 -78Q296 -171 450 -171Q563 -171 666 -118ZM418 47Q374 47 359 93Q353 111 353 131Q353 205 475 215Q497 217 521 217V147Q506 82 455 56Q436
47 418 47Z" />
<glyph unicode="A" glyph-name="A" horiz-adv-x="613" d="M613 0Q613 22 597 25Q592 26 587 26H553L324 600H287L63 26H0V0H178Q178 22 162 25Q157 26 152 26H103L178 220H387L462 26H397V0H613ZM376 249H189L282 491L376 249Z" />
<glyph unicode="B" glyph-name="B" horiz-adv-x="589" d="M506 464Q506 540 434 577Q387 600 321 600H40V574H120V26H40V0H324Q453 0 513 82Q544 125 544 176Q544 256 473 300Q440 319 397 327Q469 354 496 418Q506 442 506 464ZM297 574Q400 574 414 483Q416
470 416 456Q416 391 365 358Q335 339 295 339H206V574H297ZM314 312Q405 312 436 235Q448 207 448 174Q448 97 398 54Q365 26 319 26H206V312H314Z" />
<glyph unicode="C" glyph-name="C" horiz-adv-x="624" d="M548 46Q548 4 560 -2Q567 -5 579 -5V184H555Q504 19 351 18Q221 18 174 149Q151 213 151 300Q151 487 254 554Q299 582 354 582Q479 582 535 464Q545 443 552 421H576L573 605Q551 605 546 591Q543 579
543 552Q514 581 444 599Q398 610 350 610Q192 610 108 493Q50 410 50 302Q50 171 131 82Q217 -10 355 -10Q456 -9 548 46Z" />
<glyph unicode="D" glyph-name="D" horiz-adv-x="679" d="M40 600V574H120V26H40V0H316Q451 0 538 84Q624 167 624 300Q624 472 498 552Q421 600 319 600H40ZM316 574Q474 574 513 430Q528 377 528 304Q528 55 358 29Q339 26 319 26H206V574H316Z" />
<glyph unicode="E" glyph-name="E" horiz-adv-x="556" d="M506 420L501 600H40V574H120V26H40V0H501L506 180H486L472 133Q447 48 398 31Q383 26 366 26H206V295H412V324H206V574H366Q438 574 469 477Q471 471 472 467L486 420H506Z" />
<glyph unicode="F" glyph-name="F" horiz-adv-x="516" d="M326 0V26H206V295H412V324H206V574H366Q438 574 469 477Q471 471 472 467L486 420H506L501 600H40V574H120V26H40V0H326Z" />
<glyph unicode="G" glyph-name="G" horiz-adv-x="694" d="M415 270V244H505V88Q455 28 371 21Q363 20 355 20Q156 22 155 300Q155 538 299 576Q324 582 352 582Q455 582 501 525Q531 486 555 403H581L576 597L489 579Q426 610 355 610Q235 610 149 531Q55 444
55 304Q55 144 169 54Q252 -10 355 -10Q430 -10 491 23Q499 27 504 31L589 0V244H664V270H415Z" />
<glyph unicode="H" glyph-name="H" horiz-adv-x="718" d="M285 0Q285 22 269 25Q264 26 259 26H206V295H513V26H433V0H678Q678 22 662 25Q657 26 652 26H599V574H678V600H433V574H513V324H206V574H285V600H40V574H120V26H40V0H285Z" />
<glyph unicode="I" glyph-name="I" horiz-adv-x="325" d="M285 0Q285 22 269 25Q264 26 259 26H206V574H285V600H40V574H120V26H40V0H285Z" />
<glyph unicode="J" glyph-name="J" horiz-adv-x="365" d="M330 574V600H74V574H164V162Q164 39 133 15Q121 7 106 7Q79 7 70 38Q59 73 55 79Q43 95 19 95Q-12 95 -22 66Q-25 58 -25 51Q-25 11 27 -8Q55 -18 89 -18Q175 -18 219 50Q250 99 250 172V574H330Z" />
<glyph unicode="K" glyph-name="K" horiz-adv-x="634" d="M285 0Q285 22 269 25Q264 26 259 26H206V259L258 308L495 0H634Q634 22 618 25Q613 26 608 26H581L320 366L498 532Q535 567 554 572Q563 574 573 574Q595 574 598 590Q599 595 599 600H419V574H499L206
304V574H285V600H40V574H120V26H40V0H285Z" />
<glyph unicode="L" glyph-name="L" horiz-adv-x="493" d="M478 0L483 200H463L446 133Q422 41 366 28Q354 26 343 26H206V574H290V600H40V574H120V26H40V0H478Z" />
<glyph unicode="M" glyph-name="M" horiz-adv-x="811" d="M781 600H621L405 111L173 600H30V574H110V26H30V0H230Q230 22 214 25Q209 26 204 26H150V456L369 -5H390L621 510V26H541V0H781Q781 22 765 25Q760 26 755 26H701V574H781V600Z" />
<glyph unicode="N" glyph-name="N" horiz-adv-x="669" d="M454 574H539V126L159 600H20V574H100V26H20V0H225Q225 22 209 25Q204 26 199 26H140V489L533 -5L579 5V574H659V600H454V574Z" />
<glyph unicode="O" glyph-name="O" horiz-adv-x="705" d="M355 610Q235 610 149 531Q55 444 55 304Q55 142 166 54Q247 -10 352 -10Q470 -10 555 70Q650 159 650 300Q650 465 535 551Q457 610 355 610ZM355 18Q210 18 169 173Q155 228 155 300Q155 538 299 576Q324
582 352 582Q549 580 550 304Q550 86 429 33Q395 18 355 18Z" />
<glyph unicode="P" glyph-name="P" horiz-adv-x="562" d="M315 574Q404 574 430 494Q438 468 438 438Q438 308 322 295Q310 294 298 294H206V574H315ZM306 0Q306 22 290 25Q285 26 280 26H206V265H294Q458 265 511 358Q532 393 532 439Q532 538 446 578Q400 600
336 600H40V574H120V26H40V0H306Z" />
<glyph unicode="Q" glyph-name="Q" horiz-adv-x="707" d="M357 610Q236 610 150 530Q57 443 57 301Q57 145 166 56Q248 -10 354 -10Q393 -10 435 1Q481 -77 502 -99Q541 -139 585 -140Q666 -138 717 -24L696 -12Q643 -74 597 -75Q556 -75 505 -12Q498 -3 482 18Q594
70 634 189Q652 242 652 303Q652 463 540 549Q460 610 357 610ZM342 119Q285 118 241 55Q157 123 157 301Q157 542 307 577Q331 582 356 582Q517 582 546 393Q552 352 552 305Q551 113 458 48Q399 118 342 119ZM354 18Q303 18 264 39Q302 83 339 84Q379 83 417
28Q389 18 354 18Z" />
<glyph unicode="R" glyph-name="R" horiz-adv-x="612" d="M285 0V26H206V275H301L461 0H612Q612 22 600 25Q595 26 588 26H550L389 284Q484 307 519 383Q532 413 532 444Q532 519 467 564Q414 600 336 600H40V574H120V26H40V0H285ZM306 574Q392 574 425 504Q438
475 438 443Q438 371 388 331Q354 304 309 304H206V574H306Z" />
<glyph unicode="S" glyph-name="S" horiz-adv-x="536" d="M486 157Q486 246 390 300Q371 310 273 353Q184 391 161 431Q149 453 149 478Q149 545 214 571Q242 582 276 582Q360 582 404 525Q433 486 432 430H462V605Q438 605 434 590Q432 583 432 571Q361 610 272
610Q164 610 104 550Q64 508 64 452Q64 368 158 315Q175 306 272 264Q362 224 386 183Q399 160 399 133Q399 63 331 32Q299 18 260 18Q107 20 90 205H60V-2Q84 -2 88 12Q90 20 90 41Q167 -10 265 -10Q380 -10 443 52Q486 96 486 157Z" />
<glyph unicode="T" glyph-name="T" horiz-adv-x="574" d="M422 0Q422 22 406 25Q401 26 396 26H328V574H386Q467 574 494 476Q494 472 495 470L511 403H539L534 600H40L35 403H63L79 470Q111 568 188 574H242V26H147V0H422Z" />
<glyph unicode="U" glyph-name="U" horiz-adv-x="632" d="M10 574H90V225Q92 -9 323 -10Q499 -10 536 134Q547 178 547 234V574H627V600H432V574H512V228Q512 34 368 19Q356 18 344 18Q222 18 190 121Q176 166 176 231V574H255V600H10V574Z" />
<glyph unicode="V" glyph-name="V" horiz-adv-x="577" d="M321 -5L527 574H577V600H409V574H489L322 102L141 574H221V600H-5V574H55L245 69Q267 10 283 1Q293 -5 309 -5H321Z" />
<glyph unicode="W" glyph-name="W" horiz-adv-x="831" d="M583 0L781 574H831V600H669V574H749L592 102L431 574H512V600H340L408 408L303 104L134 574H215V600H-5V574H54L238 60Q258 3 274 -3Q280 -5 286 -5H294L424 362L531 60Q549 9 560 3Q566 0 575 0H583Z" />
<glyph unicode="X" glyph-name="X" horiz-adv-x="605" d="M195 0V26H115L286 262L445 26H372V0H605Q605 22 589 25Q584 26 579 26H547L341 331L496 546Q515 572 539 574Q544 574 550 574Q572 574 575 590Q576 595 576 600H402V574H482L325 355L177 574H249V600H15V574H77L269
288L98 54Q77 26 36 26Q14 26 11 10Q10 5 10 0H195Z" />
<glyph unicode="Y" glyph-name="Y" horiz-adv-x="554" d="M403 0Q403 22 387 25Q382 26 377 26H323V249L474 546Q497 573 528 574Q550 574 553 590Q554 595 554 600H376V574H456L304 283L145 574H221V600H-5V574H50L238 239V26H158V0H403Z" />
<glyph unicode="Z" glyph-name="Z" horiz-adv-x="550" d="M518 0L520 207H498L477 111Q456 27 379 26H132L515 579V600H70L61 419H81L120 509Q150 573 201 574H419L25 20V0H518Z" />
<glyph unicode="[" glyph-name="bracketleft" horiz-adv-x="350" d="M330 -136H90V645H330V617H169V-106L330 -108V-136Z" />
<glyph unicode="\" glyph-name="backslash" horiz-adv-x="407" d="M322 -155L-19 710H41L382 -155H322Z" />
<glyph unicode="]" glyph-name="bracketright" horiz-adv-x="363" d="M33 -136H273V645H33V617H194V-106L33 -108V-136Z" />
<glyph unicode="^" glyph-name="asciicircum" horiz-adv-x="558" d="M90 332L118 314L279 575L440 314L468 332L288 624H270L90 332Z" />
<glyph unicode="_" glyph-name="underscore" horiz-adv-x="480" d="M10 -65H470V-25H10V-65Z" />
<glyph unicode="`" glyph-name="grave" horiz-adv-x="500" d="M338 500Q312 528 262 607Q245 633 236 643Q222 656 207 656Q180 656 166 630Q161 621 161 611Q162 596 174 583Q184 573 255 530Q296 504 323 483L338 500Z" />
<glyph unicode="a" glyph-name="a" horiz-adv-x="482" d="M391 -10Q468 -10 476 83Q477 89 477 94L451 95Q444 22 412 21Q386 23 385 73V284Q385 427 242 435Q233 435 224 435Q112 435 74 383Q62 366 62 349Q62 318 91 313Q96 312 101 312Q124 312 135 341Q149
378 154 385Q173 410 213 410Q307 404 310 307V244Q75 244 41 146Q35 127 35 105Q35 29 102 1Q129 -10 159 -10Q232 -10 282 40Q300 59 309 80Q321 -9 391 -10ZM192 30Q131 30 117 91Q114 105 114 122Q114 189 191 207Q232 216 310 217V137Q295 68 237 40Q214 30
192 30Z" />
<glyph unicode="b" glyph-name="b" horiz-adv-x="550" d="M306 -10Q394 -10 454 56Q510 120 510 218Q510 328 450 390Q405 435 339 435Q230 435 184 337Q179 328 176 319V650H26V625H101V85Q101 39 75 30Q60 25 26 25V0H152L161 66Q204 -3 291 -9Q299 -10 306
-10ZM308 395Q390 395 415 295Q425 258 425 211Q425 70 349 28Q325 15 296 15Q221 15 190 95Q175 137 175 192Q175 313 235 367Q267 395 308 395Z" />
<glyph unicode="c" glyph-name="c" horiz-adv-x="435" d="M40 208Q40 87 129 27Q184 -10 254 -10Q358 -10 411 63Q423 80 430 97L404 106Q367 27 282 19Q274 18 266 18Q195 18 155 89Q125 143 125 217Q125 348 194 392Q223 410 258 410Q312 410 323 368Q325 360
328 343Q334 303 350 293Q360 288 372 287Q406 285 415 315Q417 322 417 328Q417 379 352 412Q306 435 252 435Q118 435 65 326Q40 274 40 208Z" />
<glyph unicode="d" glyph-name="d" horiz-adv-x="548" d="M381 0H524Q524 22 509 24Q505 25 499 25H449L447 650H277V625H372V381Q323 435 240 435Q130 435 74 337Q40 277 40 202Q40 78 118 21Q162 -10 215 -10Q324 -8 373 106L381 0ZM125 214Q125 355 201 397Q225
410 254 410Q327 410 358 332Q375 290 375 233Q375 113 315 59Q283 30 242 30Q160 30 135 130Q125 167 125 214Z" />
<glyph unicode="e" glyph-name="e" horiz-adv-x="464" d="M249 410Q319 410 342 351Q350 332 350 310Q350 260 302 249Q277 244 231 245L125 248Q130 363 200 398Q223 410 249 410ZM423 96L398 105Q363 29 285 19Q275 18 266 18Q161 18 134 143Q126 178 125 220L245
218Q367 216 402 241Q429 261 429 298Q429 366 360 406Q311 435 247 435Q122 435 68 331Q40 277 40 209Q40 85 129 25Q182 -10 250 -10Q358 -10 409 68Q417 82 423 96Z" />
<glyph unicode="f" glyph-name="f" horiz-adv-x="304" d="M251 25H181V400H296V425H181V431Q181 602 232 625Q243 630 256 630Q287 630 308 593Q326 561 334 555Q342 549 352 549Q385 549 391 577Q392 582 392 586Q392 623 342 644Q313 655 277 655Q183 655 137
577Q106 523 106 441V425H36V400H106V85Q106 39 80 30Q65 25 31 25V0H276Q276 22 261 24Q257 25 251 25Z" />
<glyph unicode="g" glyph-name="g" horiz-adv-x="481" d="M130 277Q132 409 230 410Q328 408 329 277Q327 141 230 140Q131 142 130 277ZM231 435Q141 435 88 377Q50 334 50 276Q50 200 124 150Q131 145 138 141Q74 141 58 86Q55 73 55 60Q56 7 98 -19Q65 -54
65 -90Q65 -145 130 -172Q171 -190 231 -190Q383 -190 432 -116Q448 -91 448 -63Q448 23 349 36Q336 38 322 38L140 42Q94 45 93 82Q93 108 126 115Q133 116 141 116L229 115Q318 115 371 175Q409 218 409 277Q408 352 351 397Q360 429 385 435Q389 436 393 436Q407
436 423 421Q434 411 443 411Q468 417 472 443Q472 474 443 485Q432 489 421 489Q374 489 345 447Q334 431 328 412Q283 435 231 435ZM231 -164Q132 -164 106 -112Q99 -98 99 -84Q100 -57 123 -30Q143 -34 156 -34L310 -36Q385 -37 397 -70Q400 -78 400 -90Q400
-134 318 -154Q278 -164 231 -164Z" />
<glyph unicode="h" glyph-name="h" horiz-adv-x="571" d="M232 25H182V241Q182 332 245 373Q271 390 299 390Q360 390 384 333Q395 306 395 273V85Q395 39 373 30Q359 25 325 25V0H545Q545 22 530 24Q526 25 520 25H470V273Q470 382 398 421Q370 435 338 435Q264
435 214 381Q193 358 182 329V650H32V625H107V85Q107 39 81 30Q66 25 32 25V0H257Q257 22 242 24Q238 25 232 25Z" />
<glyph unicode="i" glyph-name="i" horiz-adv-x="290" d="M235 25H185V425H30V400H110V85Q110 39 79 29Q64 25 30 25V0H260Q260 22 245 24Q240 25 235 25ZM197 571Q197 606 166 621Q154 626 143 626Q108 626 93 594Q88 583 88 571Q88 534 121 520Q132 516 143
516Q178 516 192 548Q197 559 197 571Z" />
<glyph unicode="j" glyph-name="j" horiz-adv-x="266" d="M198 571Q198 606 167 621Q155 626 144 626Q109 626 94 594Q89 583 89 571Q89 534 122 520Q133 516 144 516Q179 516 193 548Q198 559 198 571ZM33 425V400H113V-68Q110 -164 72 -165Q52 -165 45 -138Q36
-106 28 -99Q19 -93 8 -93Q-22 -93 -29 -120Q-30 -125 -30 -129Q-30 -164 13 -182Q33 -190 54 -190Q123 -190 161 -128Q188 -82 188 -13V425H33Z" />
<glyph unicode="k" glyph-name="k" horiz-adv-x="500" d="M226 25H181V173L236 224L377 0H510Q510 22 495 24Q491 25 485 25H449L288 273L382 361Q417 394 435 398Q443 400 453 400Q475 400 477 415Q478 420 478 425H308V400H383L181 213V650H31V625H106V85Q106
39 80 30Q65 25 31 25V0H251Q251 22 236 24Q232 25 226 25Z" />
<glyph unicode="l" glyph-name="l" horiz-adv-x="289" d="M237 25H183V650H33V625H108V85Q108 39 82 30Q67 25 33 25V0H262Q262 22 247 24Q243 25 237 25Z" />
<glyph unicode="m" glyph-name="m" horiz-adv-x="816" d="M225 25H180V241Q183 329 241 372Q268 392 295 392Q345 392 364 337Q372 313 372 283V85Q372 39 350 30Q336 25 302 25V0H517Q517 22 502 24Q498 25 492 25H447V273V281Q463 354 518 383Q539 393 558 393Q609
393 630 340Q640 315 640 283V85Q640 39 618 30Q604 25 570 25V0H791Q791 22 776 24Q772 25 766 25H715V273Q715 376 648 417Q618 435 583 435Q507 435 461 364Q449 346 441 326Q423 405 362 428Q344 435 325 435Q253 435 206 374Q189 352 179 325L175 425H30V400H105V85Q105
39 79 30Q64 25 30 25V0H250Q250 21 235 24Q230 25 225 25Z" />
<glyph unicode="n" glyph-name="n" horiz-adv-x="568" d="M225 25H180V241Q183 334 246 375Q273 392 301 392Q362 392 384 335Q393 312 393 283V85Q393 39 367 30Q352 25 318 25V0H543Q543 22 528 24Q524 25 518 25H468V273Q468 373 399 416Q367 435 330 435Q256
435 208 376Q190 353 179 325L175 425H30V400H105V85Q105 39 79 30Q64 25 30 25V0H250Q250 22 235 24Q231 25 225 25Z" />
<glyph unicode="o" glyph-name="o" horiz-adv-x="513" d="M125 213Q125 368 210 402Q232 410 256 410Q367 410 385 270Q388 246 388 217Q388 49 296 20Q278 15 259 15Q158 15 132 135Q125 170 125 213ZM259 435Q163 435 99 369Q40 308 40 217Q40 91 132 28Q188
-10 256 -10Q352 -10 415 58Q473 120 473 213Q473 339 380 400Q325 435 259 435Z" />
<glyph unicode="p" glyph-name="p" horiz-adv-x="550" d="M176 -165V42Q231 -6 303 -10Q392 -10 452 57Q510 122 510 222Q510 336 447 395Q403 435 340 435Q243 435 195 358Q183 338 175 316L170 425H26V400H101V-105Q101 -151 75 -160Q60 -165 26 -165V-190H271Q271
-168 256 -166Q252 -165 246 -165H176ZM308 395Q395 395 418 286Q425 253 425 212Q425 65 346 26Q323 15 296 15Q219 15 190 96Q175 137 175 193Q175 323 242 373Q272 395 308 395Z" />
<glyph unicode="q" glyph-name="q" horiz-adv-x="550" d="M40 195Q40 71 122 17Q163 -10 214 -10Q302 -10 354 61Q366 79 375 98L374 -105Q374 -149 345 -159Q326 -165 279 -165V-190H525Q525 -168 510 -166Q506 -165 500 -165H449V400H524V425H384L379 382Q324
435 242 435Q149 435 91 363Q40 298 40 195ZM375 232Q375 93 303 47Q276 30 244 30Q157 30 133 135Q125 169 125 213Q125 356 201 397Q225 410 255 410Q349 410 370 296Q375 267 375 232Z" />
<glyph unicode="r" glyph-name="r" horiz-adv-x="393" d="M254 25H182V224Q182 315 238 370Q260 391 275 392Q292 392 306 367Q322 339 336 335Q342 333 348 333Q378 333 386 362Q388 368 388 374Q388 419 342 429Q332 431 323 431Q263 431 216 380Q194 356 181
326L177 425H32V400H107V85Q107 39 81 30Q66 25 32 25V0H279Q279 22 264 24Q260 25 254 25Z" />
<glyph unicode="s" glyph-name="s" horiz-adv-x="400" d="M190 17Q259 17 283 59Q292 74 292 92Q292 134 231 164Q218 171 188 184Q106 218 79 248Q50 281 50 325Q50 394 126 422Q161 435 202 435Q268 435 316 407Q316 436 330 440Q336 441 343 441V316H317Q315
408 215 409Q140 409 122 365Q117 353 117 340Q117 297 179 267Q193 260 223 248Q304 215 331 185Q360 153 360 109Q360 28 274 1Q241 -10 202 -10Q130 -9 77 26Q77 0 64 -4Q58 -5 50 -5V147H78Q80 18 190 17Z" />
<glyph unicode="t" glyph-name="t" horiz-adv-x="325" d="M20 400H90V118Q97 -7 205 -11Q297 -11 320 102Q320 103 320 104L293 109Q268 26 220 19Q166 21 165 96V400H320V425H165V541L90 520V425H20V400Z" />
<glyph unicode="u" glyph-name="u" horiz-adv-x="567" d="M515 25H465V425H308V400H390V184Q390 94 327 52Q299 33 269 33Q187 33 174 117Q172 131 172 147V425H20V400H97V162Q98 -9 240 -10Q315 -10 363 51Q381 74 392 102L399 0H540Q540 22 525 24Q521 25 515 25Z" />
<glyph unicode="v" glyph-name="v" horiz-adv-x="464" d="M197 400V425H3V400H48L170 65Q190 9 214 0Q226 -5 244 -5H257L398 365Q410 396 427 399Q432 400 436 400Q458 400 460 415Q461 420 461 425H307V400H382L255 59L127 400H197Z" />
<glyph unicode="w" glyph-name="w" horiz-adv-x="684" d="M204 400V425H6V400H51L176 65Q197 8 219 -1Q230 -5 246 -5H266L353 257L420 65Q439 9 459 -1Q469 -5 486 -5H502L623 364Q633 395 647 399Q652 400 658 400Q680 400 683 414Q684 419 684 425H536V400H606L495
55L378 400H448V425H294L339 298L256 52L129 400H204Z" />
<glyph unicode="x" glyph-name="x" horiz-adv-x="434" d="M1 0H156V25H81L200 182L309 25H248V0H434Q434 22 419 24Q415 25 409 25H390L252 227L355 370Q374 397 405 401Q421 402 424 412Q425 417 425 425H275V400H345L237 250L134 400H200V425H0V400H49L184 205L69
55Q49 29 19 25Q4 23 2 13Q1 7 1 0Z" />
<glyph unicode="y" glyph-name="y" horiz-adv-x="484" d="M103 -159Q87 -159 79 -135Q68 -105 58 -98Q49 -92 37 -92Q5 -92 0 -120Q-1 -124 -1 -127Q-1 -165 43 -182Q63 -190 85 -190Q164 -190 222 -93Q246 -54 268 0L416 365Q426 393 438 397Q445 399 454 399Q474
399 477 410Q479 416 479 425H327V399H400L272 79L135 399H202V425H7V399H56L236 0Q180 -132 131 -153Q117 -159 103 -159Z" />
<glyph unicode="z" glyph-name="z" horiz-adv-x="422" d="M115 26L386 409V430H48L39 300H54L78 355Q100 403 142 404H303L22 22V0H387L390 151H376L364 96Q353 41 313 29Q304 26 295 26H115Z" />
<glyph unicode="{" glyph-name="braceleft" horiz-adv-x="400" d="M231 148V-3Q231 -70 262 -90Q291 -108 380 -108V-136Q254 -136 215 -120Q163 -98 157 -24Q156 -10 156 4V153Q156 208 130 226Q113 237 80 244V265Q136 277 149 306Q156 324 156 356V505Q156
596 203 623Q240 644 357 645Q367 645 380 645V617Q282 617 255 594Q231 572 231 512V361Q231 297 183 270Q172 264 155 257V252Q204 231 219 205Q231 182 231 148Z" />
<glyph unicode="|" glyph-name="bar" horiz-adv-x="277" d="M110 -136V650H167V-136H110Z" />
<glyph unicode="}" glyph-name="braceright" horiz-adv-x="390" d="M169 359V510Q169 577 138 597Q109 615 20 615V643Q146 643 185 627Q237 605 243 531Q244 517 244 503V354Q244 299 270 281Q287 270 320 263V242Q264 230 251 201Q244 183 244 151V2Q244 -89
197 -116Q160 -137 43 -138Q33 -138 20 -138V-110Q118 -110 145 -87Q169 -65 169 -5V146Q169 210 217 237Q228 243 245 250V255Q196 276 181 302Q169 325 169 359Z" />
<glyph unicode="~" glyph-name="asciitilde" horiz-adv-x="495" d="M160 309Q197 309 266 272Q325 241 351 241Q404 242 431 309L455 301Q436 213 372 190Q356 184 340 184Q303 184 229 221Q168 251 140 251Q90 249 64 185L40 193Q65 288 135 306Q148 309 160 309Z" />
<glyph unicode="&#xa0;" glyph-name="uni00A0" horiz-adv-x="200" />
<glyph unicode="&#xa1;" glyph-name="exclamdown" horiz-adv-x="254" d="M90 263Q90 134 65 -12Q52 -84 52 -116Q52 -175 95 -179Q100 -180 104 -180Q156 -178 157 -114Q157 -87 140 18Q120 137 120 263H90ZM55 384Q55 351 85 337Q95 332 106 332Q139 332 152
362Q157 373 157 384Q157 416 128 430Q117 435 106 435Q74 435 60 406Q55 395 55 384Z" />
<glyph unicode="&#xa2;" glyph-name="cent" horiz-adv-x="461" d="M40 273Q40 150 130 91Q176 61 233 56V-20H262V55Q365 59 415 133Q424 149 431 165L405 171Q370 95 290 84Q277 82 266 82H262V475Q313 475 324 434Q326 426 328 409Q333 369 349 359Q359 353
372 352Q406 350 415 380Q417 387 417 393Q417 444 352 477Q310 497 262 500V570H233V499Q109 491 62 383Q40 333 40 273ZM125 282Q125 413 194 457Q212 469 233 473V87Q169 106 141 185Q125 229 125 282Z" />
<glyph unicode="&#xa3;" glyph-name="sterling" horiz-adv-x="574" d="M549 150H528Q497 80 399 77Q331 77 226 108Q236 150 236 199Q236 233 230 300H385V329H227Q219 407 219 441Q219 575 309 583Q315 583 321 583Q379 583 396 534Q399 525 403 506Q412 462
429 451Q441 444 458 444Q495 444 506 479Q509 488 509 498Q509 560 431 591Q385 610 331 610Q197 610 145 521Q121 479 121 425Q121 382 136 329H64V300H145Q176 195 180 171Q185 143 185 119Q147 129 127 129Q68 129 53 84Q50 73 50 62Q50 24 85 7Q100 0 117
0Q177 0 211 67Q212 70 213 72Q224 66 247 52Q332 1 380 -7Q394 -9 407 -9Q502 -9 535 71Q549 105 549 150ZM116 28Q89 28 83 53Q82 57 82 61Q82 90 110 99Q118 101 125 101Q153 101 182 87Q171 42 132 31Q124 28 116 28Z" />
<glyph unicode="&#xa4;" glyph-name="currency" horiz-adv-x="603" d="M297 110Q219 110 173 170Q139 215 139 281Q139 383 214 428Q252 450 296 450Q373 450 418 391Q453 345 453 280Q453 176 376 131Q340 110 297 110ZM295 77Q373 78 428 125L514 38L538 62L451
150Q493 204 493 282Q492 356 454 408L540 494L516 519L431 433Q377 482 298 482Q222 481 166 435L80 520L56 496L142 411Q99 356 99 279Q100 198 143 146L58 61L83 37L167 121Q222 77 295 77Z" />
<glyph unicode="&#xa5;" glyph-name="yen" horiz-adv-x="567" d="M411 0Q411 23 398 25Q392 26 386 26H333L335 220H471V249H335L336 299H471V328H347L477 546Q490 567 504 571Q516 574 536 574Q555 581 557 600H378V574H459L318 338L169 574H234V600H20V574H75L232
328H115V299H251L250 249H115V220H250L248 26H171V0H411Z" />
<glyph unicode="&#xa6;" glyph-name="brokenbar" horiz-adv-x="277" d="M167 315V650H110V315H167ZM167 -136V199H110V-136H167Z" />
<glyph unicode="&#xa7;" glyph-name="section" horiz-adv-x="465" d="M123 323Q125 367 176 385Q195 375 234 357Q314 320 334 296Q347 280 347 262Q345 218 293 198Q274 209 235 227Q155 265 136 289Q123 306 123 323ZM415 279Q415 346 330 392Q311 403 269 422Q189
458 168 482Q151 502 151 525Q151 564 190 583Q210 593 234 593Q294 593 308 553Q310 547 313 535Q320 504 335 498Q344 494 355 494Q386 496 387 533Q387 581 320 605Q284 617 242 617Q150 617 107 566Q84 538 84 500Q85 443 151 399Q56 377 55 305Q55 238 142
189Q162 178 202 159Q281 122 301 98Q315 80 315 61Q315 13 271 -4Q254 -10 234 -10Q175 -10 160 33Q158 39 155 51Q147 82 133 88Q126 91 118 91Q81 88 79 52Q79 5 144 -20Q181 -34 224 -34Q316 -34 359 16Q383 44 383 82Q382 141 317 184Q408 212 415 279Z" />
<glyph unicode="&#xa8;" glyph-name="dieresis" horiz-adv-x="500" d="M209 571Q209 604 180 617Q170 621 160 621Q126 621 113 591Q109 581 109 571Q109 536 141 524Q150 521 160 521Q193 521 205 552Q209 561 209 571ZM392 571Q392 604 362 617Q352 621 342
621Q309 621 296 591Q292 581 292 571Q292 536 323 524Q333 521 342 521Q376 521 388 552Q392 561 392 571Z" />
<glyph unicode="&#xa9;" glyph-name="copyright" horiz-adv-x="661" d="M616 275Q616 401 529 483Q449 559 331 559Q196 559 113 464Q45 385 45 275Q45 148 133 66Q214 -10 331 -10Q464 -10 546 84Q616 164 616 275ZM76 275Q76 398 160 471Q230 532 331 532Q456
532 529 442Q586 371 586 275Q586 156 504 81Q433 17 331 17Q205 17 132 108Q76 179 76 275ZM336 455Q237 455 190 372Q165 328 165 274Q165 186 226 136Q271 99 337 99Q427 99 468 166Q473 174 476 181L455 190Q423 126 352 125Q287 125 261 205Q250 240 250 283Q250
376 294 414Q313 430 336 430Q375 430 384 396Q385 390 387 378Q393 342 409 334Q420 329 433 329Q468 333 471 362Q471 413 410 440Q376 455 336 455Z" />
<glyph unicode="&#xaa;" glyph-name="ordfeminine" horiz-adv-x="311" d="M279 244V279H27V244H279ZM113 362Q84 362 80 398Q79 404 79 409Q79 456 154 462Q166 463 177 463V428Q162 376 127 364Q120 362 113 362ZM291 395H272Q268 358 252 357Q237 359 237 384V506Q235
599 128 600Q61 600 37 565Q30 554 30 542Q32 514 61 513Q87 513 94 538Q101 566 105 571Q115 580 131 580Q176 578 177 510V483Q50 483 24 440Q15 424 15 402Q15 350 63 334Q77 330 92 330Q150 330 175 384Q176 385 176 386Q183 339 225 332Q231 331 237 331Q287
331 291 393Q291 394 291 395Z" />
<glyph unicode="&#xab;" glyph-name="guillemotleft" horiz-adv-x="414" d="M219 378L201 395Q182 375 65 262Q46 244 38 235Q25 220 25 205Q26 187 38 173Q45 165 149 66Q181 36 201 16L219 32Q204 52 126 177Q115 194 108 205Q117 219 140 256Q194 344 219 378ZM389
378L371 395Q352 375 235 262Q216 244 208 235Q195 220 195 205Q196 187 208 173Q215 165 319 66Q351 36 371 16L389 32Q374 52 296 177Q285 194 278 205Q287 219 310 256Q364 344 389 378Z" />
<glyph unicode="&#xac;" glyph-name="logicalnot" horiz-adv-x="492" d="M402 118H447V332H45V296H402V118Z" />
<glyph unicode="&#xad;" glyph-name="uni00AD" horiz-adv-x="380" d="M50 200H330V240H50V200Z" />
<glyph unicode="&#xae;" glyph-name="registered" horiz-adv-x="395" d="M370 473Q370 559 304 608Q257 642 198 642Q107 642 57 574Q25 530 25 473Q25 385 93 336Q139 304 198 304Q288 304 338 371Q370 416 370 473ZM49 473Q49 552 111 595Q150 622 198 622Q275
621 318 561Q346 522 346 473Q346 393 284 350Q246 324 198 324Q120 324 77 384Q49 423 49 473ZM305 376Q303 389 293 390H284L236 466Q281 480 282 521Q282 556 241 568Q226 573 208 573L106 574V559H129V390H106V375H199V390H174V463H195L243 374L305 376ZM174
559H199Q225 559 231 531Q232 526 232 521Q232 488 207 481Q203 480 199 480H174V559Z" />
<glyph unicode="&#xaf;" glyph-name="overscore" horiz-adv-x="500" d="M100 540H400V590H100V540Z" />
<glyph unicode="&#xb0;" glyph-name="degree" horiz-adv-x="298" d="M79 542Q79 587 116 608Q132 617 149 617Q189 617 209 580Q219 562 219 542Q219 499 181 480Q166 472 149 472Q106 472 87 509Q79 525 79 542ZM248 542Q248 596 203 626Q178 643 149 643Q96
643 66 597Q50 571 50 542Q50 488 96 460Q121 446 149 446Q204 446 233 491Q248 515 248 542Z" />
<glyph unicode="&#xb1;" glyph-name="plusminus" horiz-adv-x="469" d="M424 256V292H257V430H212V292H45V256H212V118H257V256H424ZM424 36V72H45V36H424Z" />
<glyph unicode="&#xb2;" glyph-name="twosuperior" horiz-adv-x="339" d="M76 385Q76 403 130 431Q208 472 229 488Q275 525 276 566Q276 630 202 649Q179 655 153 655Q78 655 45 616Q30 598 30 576Q32 543 64 542Q97 542 100 572Q101 576 102 586Q103 621 119
629Q130 635 146 635Q193 635 199 594Q201 584 201 572Q201 516 142 472Q133 465 114 452Q59 415 43 389Q31 367 31 342V329H283L284 435H272L262 410Q254 389 234 386Q224 385 207 385H76Z" />
<glyph unicode="&#xb3;" glyph-name="threesuperior" horiz-adv-x="363" d="M292 636V649H50L48 544H63L75 573Q83 593 109 594Q115 594 125 594H225L116 483L130 471Q151 481 173 481Q234 479 235 406Q233 307 155 306Q125 306 119 338Q118 342 117 352Q112 389
96 396Q87 400 77 400Q44 394 40 365Q40 313 103 295Q127 288 154 288Q230 288 276 333Q308 365 308 409Q308 468 248 491Q223 500 193 500Q171 500 154 496L292 636Z" />
<glyph unicode="&#xb4;" glyph-name="acute" horiz-adv-x="500" d="M368 583Q380 597 381 611Q381 637 354 651Q344 656 335 656Q319 655 306 643Q298 635 258 572Q229 527 204 500L220 483Q244 502 329 555Q357 573 368 583Z" />
<glyph unicode="&#xb5;" glyph-name="uni00B5" horiz-adv-x="567" d="M171 -110Q171 -85 155 44Q189 -9 248 -10Q318 -10 368 60Q382 80 392 102L399 0H542Q542 22 530 25Q525 26 518 26H465V425H308V399H390V184Q387 91 324 50Q297 33 269 33Q187 33 174 117Q172
131 172 147V425H20V399H97V160Q97 104 90 -35Q86 -100 86 -112Q91 -168 128 -171Q170 -169 171 -110Z" />
<glyph unicode="&#xb6;" glyph-name="paragraph" horiz-adv-x="515" d="M221 -113Q319 -113 376 -48Q423 7 423 94L421 574H500V600H298Q138 600 78 502Q50 456 50 400Q50 298 130 247Q182 215 256 215H271V48Q271 -66 250 -82Q243 -87 231 -87Q206 -87 197 -55Q184
-13 183 -11Q168 15 136 16Q98 16 88 -18Q86 -26 86 -34Q86 -76 145 -99Q179 -113 221 -113ZM350 70Q350 -41 307 -70Q295 -78 280 -82Q299 -56 299 58V574H350V70Z" />
<glyph unicode="&#xb7;" glyph-name="middot" horiz-adv-x="307" d="M208 232Q208 266 177 281Q166 286 154 286Q120 286 105 255Q100 244 100 232Q100 198 131 183Q142 178 154 178Q188 178 203 209Q208 220 208 232Z" />
<glyph unicode="&#xb8;" glyph-name="cedilla" horiz-adv-x="500" d="M165 -85L179 -94Q203 -77 230 -77Q277 -77 284 -120Q285 -127 285 -134Q285 -186 245 -199Q235 -202 226 -202Q186 -201 156 -162L140 -174Q174 -226 244 -227Q310 -227 343 -185Q360 -163
360 -136Q360 -82 304 -60Q281 -52 257 -52Q228 -52 205 -62L234 3H209L165 -85Z" />
<glyph unicode="&#xb9;" glyph-name="onesuperior" horiz-adv-x="287" d="M152 649L20 556L35 534L130 599V356L48 349V329H272Q272 346 258 349Q254 349 250 350L198 356V649H152Z" />
<glyph unicode="&#xba;" glyph-name="ordmasculine" horiz-adv-x="298" d="M82 465Q82 569 136 576Q141 577 146 577Q201 577 209 505Q211 489 211 467Q211 365 163 355Q155 353 148 353Q87 353 82 446Q82 456 82 465ZM148 600Q79 600 41 549Q15 514 15 467Q15
383 81 346Q112 330 146 330Q213 330 251 381Q278 417 278 465Q278 550 211 585Q181 600 148 600ZM21 244H273V279H21V244Z" />
<glyph unicode="&#xbb;" glyph-name="guillemotright" horiz-adv-x="414" d="M195 378L213 395Q232 375 349 262Q368 244 376 235Q389 220 389 205Q388 187 376 173Q369 165 265 66Q233 36 213 16L195 32Q210 52 288 177Q299 194 306 205Q297 219 274 256Q220
344 195 378ZM25 378L43 395Q62 375 179 262Q198 244 206 235Q219 220 219 205Q218 187 206 173Q199 165 95 66Q63 36 43 16L25 32Q40 52 118 177Q129 194 136 205Q127 219 104 256Q50 344 25 378Z" />
<glyph unicode="&#xbc;" glyph-name="onequarter" horiz-adv-x="724" d="M169 -29L606 610L577 630L139 -10L169 -29ZM172 609L40 516L55 494L150 559V316L68 309V289H292Q292 306 278 309Q274 309 270 310L218 316V609H172ZM675 -45Q675 -27 664 -25Q660 -24
655 -24H609V50H675V73H609V198H594L587 180Q576 152 559 148Q553 146 547 146H542V73L396 74Q408 84 433 104Q610 246 610 301Q608 334 576 335Q552 335 537 306Q534 299 526 283Q486 193 423 128Q396 100 364 74L369 51L542 50V-24H469V-45H675Z" />
<glyph unicode="&#xbd;" glyph-name="onehalf" horiz-adv-x="735" d="M169 -29L606 610L577 630L139 -10L169 -29ZM172 609L40 516L55 494L150 559V316L68 309V289H292Q292 306 278 309Q274 309 270 310L218 316V609H172ZM476 56Q476 74 530 102Q608 143 629 159Q675
196 676 237Q676 301 602 320Q579 326 553 326Q478 326 445 287Q430 269 430 247Q432 214 464 213Q497 213 500 243Q501 247 502 257Q503 292 519 300Q530 306 546 306Q593 306 599 265Q601 255 601 243Q601 187 542 143Q533 136 514 123Q459 86 443 60Q431 38
431 13V0H683L684 106H672L662 81Q654 60 634 57Q624 56 607 56H476Z" />
<glyph unicode="&#xbe;" glyph-name="threequarters" horiz-adv-x="740" d="M292 596V609H50L48 504H63L75 533Q83 553 109 554Q115 554 125 554H225L116 443L130 431Q151 441 173 441Q234 439 235 366Q233 267 155 266Q125 266 119 298Q118 302 117 312Q112 349
96 356Q87 360 77 360Q44 354 40 325Q40 273 103 255Q127 248 154 248Q230 248 276 293Q308 325 308 369Q308 428 248 451Q223 460 193 460Q171 460 154 456L292 596ZM185 -29L622 610L593 630L155 -10L185 -29ZM691 -45Q691 -27 680 -25Q676 -24 671 -24H625V50H691V73H625V198H610L603
180Q592 152 575 148Q569 146 563 146H558V73L412 74Q424 84 449 104Q626 246 626 301Q624 334 592 335Q568 335 553 306Q550 299 542 283Q502 193 439 128Q412 100 380 74L385 51L558 50V-24H485V-45H691Z" />
<glyph unicode="&#xbf;" glyph-name="questiondown" horiz-adv-x="485" d="M225 263Q225 178 157 110Q146 99 123 79Q68 30 54 0Q43 -24 43 -50Q43 -143 142 -171Q176 -180 216 -180Q311 -180 360 -134Q387 -108 388 -76Q386 -24 339 -23Q302 -23 294 -59Q292
-67 290 -83Q285 -130 267 -143Q251 -154 225 -154Q146 -154 140 -86Q139 -78 139 -70Q139 -9 181 58Q224 125 234 150Q255 202 255 263H225ZM189 384Q189 351 219 337Q229 332 240 332Q273 332 286 362Q291 373 291 384Q291 416 262 430Q251 435 240 435Q208 435
194 406Q189 395 189 384Z" />
<glyph unicode="&#xc0;" glyph-name="Agrave" horiz-adv-x="613" d="M613 0Q613 22 597 25Q592 26 587 26H553L324 600H287L63 26H0V0H178Q178 22 162 25Q157 26 152 26H103L178 220H387L462 26H397V0H613ZM376 249H189L282 491L376 249ZM390 630Q364 658 314
737Q297 763 288 773Q274 786 259 786Q232 786 218 760Q213 751 213 741Q214 726 226 713Q236 703 307 660Q348 634 375 613L390 630Z" />
<glyph unicode="&#xc1;" glyph-name="Aacute" horiz-adv-x="613" d="M613 0Q613 22 597 25Q592 26 587 26H553L324 600H287L63 26H0V0H178Q178 22 162 25Q157 26 152 26H103L178 220H387L462 26H397V0H613ZM376 249H189L282 491L376 249ZM395 713Q407 727 408
741Q408 767 381 781Q371 786 362 786Q346 785 333 773Q325 765 285 702Q256 657 231 630L247 613Q271 632 356 685Q384 703 395 713Z" />
<glyph unicode="&#xc2;" glyph-name="Acircumflex" horiz-adv-x="613" d="M613 0Q613 22 597 25Q592 26 587 26H553L324 600H287L63 26H0V0H178Q178 22 162 25Q157 26 152 26H103L178 220H387L462 26H397V0H613ZM376 249H189L282 491L376 249ZM426 629L438 645Q415
670 383 710Q343 759 325 768Q315 773 304 773Q278 773 248 737Q241 729 226 710Q194 669 172 644L184 630Q241 667 306 700Q382 660 426 629Z" />
<glyph unicode="&#xc3;" glyph-name="Atilde" horiz-adv-x="613" d="M613 0Q613 22 597 25Q592 26 587 26H553L324 600H287L63 26H0V0H178Q178 22 162 25Q157 26 152 26H103L178 220H387L462 26H397V0H613ZM376 249H189L282 491L376 249ZM256 763Q286 763 327
731Q362 704 381 704Q418 704 433 755Q434 758 435 761L456 756Q433 650 366 649Q336 649 296 681Q261 708 240 708Q205 708 190 661Q188 656 187 651L167 656Q190 762 256 763Z" />
<glyph unicode="&#xc4;" glyph-name="Adieresis" horiz-adv-x="613" d="M613 0Q613 22 597 25Q592 26 587 26H553L324 600H287L63 26H0V0H178Q178 22 162 25Q157 26 152 26H103L178 220H387L462 26H397V0H613ZM376 249H189L282 491L376 249ZM264 701Q264 734 235
747Q225 751 215 751Q181 751 168 721Q164 711 164 701Q164 666 196 654Q205 651 215 651Q248 651 260 682Q264 691 264 701ZM447 701Q447 734 417 747Q407 751 397 751Q364 751 351 721Q347 711 347 701Q347 666 378 654Q388 651 397 651Q431 651 443 682Q447
691 447 701Z" />
<glyph unicode="&#xc5;" glyph-name="Aring" horiz-adv-x="613" d="M613 0Q613 22 597 25Q592 26 587 26H553L331 583Q393 592 412 644Q417 660 417 676Q417 733 365 756Q342 765 315 765Q240 765 216 713Q208 695 208 675Q208 618 257 593Q269 588 281 585L63
26H0V0H178Q178 22 162 25Q157 26 152 26H103L178 220H387L462 26H397V0H613ZM376 249H189L282 491L376 249ZM262 673Q262 727 296 739Q304 742 312 742Q355 742 362 691Q363 683 363 675Q363 624 331 609Q322 605 312 605Q268 605 263 660Q262 667 262 673Z" />
<glyph unicode="&#xc6;" glyph-name="AE" horiz-adv-x="870" d="M253 269L437 572V269H253ZM186 0Q186 23 173 25Q168 26 162 26H105L235 240H437V26H354V0H815L820 180H800L786 133Q761 48 712 31Q697 26 680 26H523V295H726V324H523V574H680Q752 574 783 477Q785
471 786 467L800 420H820L815 600H412L60 26H0V0H186Z" />
<glyph unicode="&#xc7;" glyph-name="Ccedilla" horiz-adv-x="624" d="M548 46Q548 4 560 -2Q567 -5 579 -5V184H555Q504 19 351 18Q221 18 174 149Q151 213 151 300Q151 487 254 554Q299 582 354 582Q479 582 535 464Q545 443 552 421H576L573 605Q551 605 546
591Q543 579 543 552Q514 581 444 599Q398 610 350 610Q192 610 108 493Q50 410 50 302Q50 170 131 82Q199 9 302 -6L263 -85L277 -94Q301 -77 328 -77Q375 -77 382 -120Q383 -127 383 -134Q383 -186 343 -199Q333 -202 324 -202Q284 -201 254 -162L238 -174Q272
-226 342 -227Q408 -227 441 -185Q458 -163 458 -136Q458 -82 402 -60Q379 -52 355 -52Q326 -52 303 -62L327 -9Q337 -10 355 -10Q456 -9 548 46Z" />
<glyph unicode="&#xc8;" glyph-name="Egrave" horiz-adv-x="556" d="M506 420L501 600H40V574H120V26H40V0H501L506 180H486L472 133Q447 48 398 31Q383 26 366 26H206V295H412V324H206V574H366Q438 574 469 477Q471 471 472 467L486 420H506ZM377 630Q351 658
301 737Q284 763 275 773Q261 786 246 786Q219 786 205 760Q200 751 200 741Q201 726 213 713Q223 703 294 660Q335 634 362 613L377 630Z" />
<glyph unicode="&#xc9;" glyph-name="Eacute" horiz-adv-x="556" d="M506 420L501 600H40V574H120V26H40V0H501L506 180H486L472 133Q447 48 398 31Q383 26 366 26H206V295H412V324H206V574H366Q438 574 469 477Q471 471 472 467L486 420H506ZM382 713Q394 727
395 741Q395 767 368 781Q358 786 349 786Q333 785 320 773Q312 765 272 702Q243 657 218 630L234 613Q258 632 343 685Q371 703 382 713Z" />
<glyph unicode="&#xca;" glyph-name="Ecircumflex" horiz-adv-x="556" d="M506 420L501 600H40V574H120V26H40V0H501L506 180H486L472 133Q447 48 398 31Q383 26 366 26H206V295H412V324H206V574H366Q438 574 469 477Q471 471 472 467L486 420H506ZM413 629L425
645Q402 670 370 710Q330 759 312 768Q302 773 291 773Q265 773 235 737Q228 729 213 710Q181 669 159 644L171 630Q228 667 293 700Q369 660 413 629Z" />
<glyph unicode="&#xcb;" glyph-name="Edieresis" horiz-adv-x="556" d="M506 420L501 600H40V574H120V26H40V0H501L506 180H486L472 133Q447 48 398 31Q383 26 366 26H206V295H412V324H206V574H366Q438 574 469 477Q471 471 472 467L486 420H506ZM251 701Q251
734 222 747Q212 751 202 751Q168 751 155 721Q151 711 151 701Q151 666 183 654Q192 651 202 651Q235 651 247 682Q251 691 251 701ZM434 701Q434 734 404 747Q394 751 384 751Q351 751 338 721Q334 711 334 701Q334 666 365 654Q375 651 384 651Q418 651 430
682Q434 691 434 701Z" />
<glyph unicode="&#xcc;" glyph-name="Igrave" horiz-adv-x="325" d="M285 0Q285 22 269 25Q264 26 259 26H206V574H285V600H40V574H120V26H40V0H285ZM250 630Q224 658 174 737Q158 763 148 773Q134 786 119 786Q92 786 78 760Q73 751 73 741Q74 726 86 713Q96
703 167 660Q208 634 235 613L250 630Z" />
<glyph unicode="&#xcd;" glyph-name="Iacute" horiz-adv-x="325" d="M285 0Q285 22 269 25Q264 26 259 26H206V574H285V600H40V574H120V26H40V0H285ZM255 713Q267 727 268 741Q268 767 241 781Q231 786 222 786Q206 785 193 773Q185 765 145 702Q116 657 91 630L107
613Q131 632 216 685Q244 703 255 713Z" />
<glyph unicode="&#xce;" glyph-name="Icircumflex" horiz-adv-x="325" d="M285 0Q285 22 269 25Q264 26 259 26H206V574H285V600H40V574H120V26H40V0H285ZM286 629L298 645Q275 670 243 710Q203 759 185 768Q175 773 164 773Q138 773 108 737Q101 729 86 710Q54
669 32 644L44 630Q101 667 166 700Q242 660 286 629Z" />
<glyph unicode="&#xcf;" glyph-name="Idieresis" horiz-adv-x="325" d="M285 0Q285 22 269 25Q264 26 259 26H206V574H285V600H40V574H120V26H40V0H285ZM124 701Q124 734 95 747Q85 751 75 751Q41 751 28 721Q24 711 24 701Q24 666 56 654Q65 651 75 651Q108 651
120 682Q124 691 124 701ZM307 701Q307 734 277 747Q267 751 257 751Q224 751 211 721Q207 711 207 701Q207 666 238 654Q248 651 257 651Q291 651 303 682Q307 691 307 701Z" />
<glyph unicode="&#xd0;" glyph-name="Eth" horiz-adv-x="679" d="M40 600V574H120V330H50V290H120V26H40V0H316Q451 0 538 84Q624 167 624 300Q624 472 498 552Q421 600 319 600H40ZM316 574Q474 574 513 430Q528 377 528 304Q528 55 358 29Q339 26 319 26H206V290H330V330H206V574H316Z"
/>
<glyph unicode="&#xd1;" glyph-name="Ntilde" horiz-adv-x="669" d="M454 574H539V126L159 600H20V574H100V26H20V0H225Q225 22 209 25Q204 26 199 26H140V489L533 -5L579 5V574H659V600H454V574ZM288 763Q318 763 359 731Q394 704 413 704Q450 704 465 755Q466
758 467 761L488 756Q465 650 398 649Q368 649 328 681Q293 708 272 708Q237 708 222 661Q220 656 219 651L199 656Q222 762 288 763Z" />
<glyph unicode="&#xd2;" glyph-name="Ograve" horiz-adv-x="705" d="M355 610Q235 610 149 531Q55 444 55 304Q55 142 166 54Q247 -10 352 -10Q470 -10 555 70Q650 159 650 300Q650 465 535 551Q457 610 355 610ZM355 18Q210 18 169 173Q155 228 155 300Q155 538
299 576Q324 582 352 582Q549 580 550 304Q550 86 429 33Q395 18 355 18ZM438 630Q412 658 362 737Q345 763 336 773Q322 786 307 786Q280 786 266 760Q261 751 261 741Q262 726 274 713Q284 703 355 660Q396 634 423 613L438 630Z" />
<glyph unicode="&#xd3;" glyph-name="Oacute" horiz-adv-x="705" d="M355 610Q235 610 149 531Q55 444 55 304Q55 142 166 54Q247 -10 352 -10Q470 -10 555 70Q650 159 650 300Q650 465 535 551Q457 610 355 610ZM355 18Q210 18 169 173Q155 228 155 300Q155 538
299 576Q324 582 352 582Q549 580 550 304Q550 86 429 33Q395 18 355 18ZM443 713Q455 727 456 741Q456 767 429 781Q419 786 410 786Q394 785 381 773Q373 765 333 702Q304 657 279 630L295 613Q319 632 404 685Q432 703 443 713Z" />
<glyph unicode="&#xd4;" glyph-name="Ocircumflex" horiz-adv-x="705" d="M355 610Q235 610 149 531Q55 444 55 304Q55 142 166 54Q247 -10 352 -10Q470 -10 555 70Q650 159 650 300Q650 465 535 551Q457 610 355 610ZM355 18Q210 18 169 173Q155 228 155 300Q155
538 299 576Q324 582 352 582Q549 580 550 304Q550 86 429 33Q395 18 355 18ZM474 629L486 645Q463 670 431 710Q391 759 373 768Q363 773 352 773Q326 773 296 737Q289 729 274 710Q242 669 220 644L232 630Q289 667 354 700Q430 660 474 629Z" />
<glyph unicode="&#xd5;" glyph-name="Otilde" horiz-adv-x="705" d="M355 610Q235 610 149 531Q55 444 55 304Q55 142 166 54Q247 -10 352 -10Q470 -10 555 70Q650 159 650 300Q650 465 535 551Q457 610 355 610ZM355 18Q210 18 169 173Q155 228 155 300Q155 538
299 576Q324 582 352 582Q549 580 550 304Q550 86 429 33Q395 18 355 18ZM304 763Q334 763 375 731Q410 704 429 704Q466 704 481 755Q482 758 483 761L504 756Q481 650 414 649Q384 649 344 681Q309 708 288 708Q253 708 238 661Q236 656 235 651L215 656Q238
762 304 763Z" />
<glyph unicode="&#xd6;" glyph-name="Odieresis" horiz-adv-x="705" d="M355 610Q235 610 149 531Q55 444 55 304Q55 142 166 54Q247 -10 352 -10Q470 -10 555 70Q650 159 650 300Q650 465 535 551Q457 610 355 610ZM355 18Q210 18 169 173Q155 228 155 300Q155
538 299 576Q324 582 352 582Q549 580 550 304Q550 86 429 33Q395 18 355 18ZM312 701Q312 734 283 747Q273 751 263 751Q229 751 216 721Q212 711 212 701Q212 666 244 654Q253 651 263 651Q296 651 308 682Q312 691 312 701ZM495 701Q495 734 465 747Q455 751
445 751Q412 751 399 721Q395 711 395 701Q395 666 426 654Q436 651 445 651Q479 651 491 682Q495 691 495 701Z" />
<glyph unicode="&#xd7;" glyph-name="multiply" horiz-adv-x="400" d="M327 79L355 107L228 235L355 362L328 389L201 262L73 389L45 361L173 234L46 107L73 80L200 207L327 79Z" />
<glyph unicode="&#xd8;" glyph-name="Oslash" horiz-adv-x="705" d="M355 610Q235 610 149 531Q55 444 55 304Q55 142 167 53Q188 37 211 25L140 -155H200L262 3Q310 -10 352 -10Q470 -10 555 70Q650 159 650 300Q650 466 535 551Q514 567 489 579L541 710H481L437
599Q394 610 355 610ZM155 300Q155 538 299 576Q324 582 352 582Q392 582 426 570L227 66Q155 136 155 300ZM355 18Q310 18 274 34L474 541Q550 475 550 304Q550 86 429 33Q395 18 355 18Z" />
<glyph unicode="&#xd9;" glyph-name="Ugrave" horiz-adv-x="632" d="M10 574H90V225Q92 -9 323 -10Q499 -10 536 134Q547 178 547 234V574H627V600H432V574H512V228Q512 34 368 19Q356 18 344 18Q222 18 190 121Q176 166 176 231V574H255V600H10V574ZM422 630Q396
658 346 737Q329 763 320 773Q306 786 291 786Q264 786 250 760Q245 751 245 741Q246 726 258 713Q268 703 339 660Q380 634 407 613L422 630Z" />
<glyph unicode="&#xda;" glyph-name="Uacute" horiz-adv-x="632" d="M10 574H90V225Q92 -9 323 -10Q499 -10 536 134Q547 178 547 234V574H627V600H432V574H512V228Q512 34 368 19Q356 18 344 18Q222 18 190 121Q176 166 176 231V574H255V600H10V574ZM427 713Q439
727 440 741Q440 767 413 781Q403 786 394 786Q378 785 365 773Q357 765 317 702Q288 657 263 630L279 613Q303 632 388 685Q416 703 427 713Z" />
<glyph unicode="&#xdb;" glyph-name="Ucircumflex" horiz-adv-x="632" d="M10 574H90V225Q92 -9 323 -10Q499 -10 536 134Q547 178 547 234V574H627V600H432V574H512V228Q512 34 368 19Q356 18 344 18Q222 18 190 121Q176 166 176 231V574H255V600H10V574ZM458
629L470 645Q447 670 415 710Q375 759 357 768Q347 773 336 773Q310 773 280 737Q273 729 258 710Q226 669 204 644L216 630Q273 667 338 700Q414 660 458 629Z" />
<glyph unicode="&#xdc;" glyph-name="Udieresis" horiz-adv-x="632" d="M10 574H90V225Q92 -9 323 -10Q499 -10 536 134Q547 178 547 234V574H627V600H432V574H512V228Q512 34 368 19Q356 18 344 18Q222 18 190 121Q176 166 176 231V574H255V600H10V574ZM296 701Q296
734 267 747Q257 751 247 751Q213 751 200 721Q196 711 196 701Q196 666 228 654Q237 651 247 651Q280 651 292 682Q296 691 296 701ZM479 701Q479 734 449 747Q439 751 429 751Q396 751 383 721Q379 711 379 701Q379 666 410 654Q420 651 429 651Q463 651 475
682Q479 691 479 701Z" />
<glyph unicode="&#xdd;" glyph-name="Yacute" horiz-adv-x="554" d="M403 0Q403 22 387 25Q382 26 377 26H323V249L474 546Q497 573 528 574Q550 574 553 590Q554 595 554 600H376V574H456L304 283L145 574H221V600H-5V574H50L238 239V26H158V0H403ZM380 713Q392
727 393 741Q393 767 366 781Q356 786 347 786Q331 785 318 773Q310 765 270 702Q241 657 216 630L232 613Q256 632 341 685Q369 703 380 713Z" />
<glyph unicode="&#xde;" glyph-name="Thorn" horiz-adv-x="585" d="M313 454Q402 454 428 374Q436 348 436 318Q436 188 320 175Q308 174 296 174H204V454H313ZM291 0Q291 23 278 25Q272 26 266 26H204V145H292Q456 145 509 238Q530 273 530 319Q530 418 444 458Q398
480 334 480H204V574H291V600H35V574H118V26H35V0H291Z" />
<glyph unicode="&#xdf;" glyph-name="germandbls" horiz-adv-x="544" d="M524 119Q524 189 452 246Q441 255 418 271Q363 310 351 333Q343 348 343 363Q343 395 383 421Q430 450 436 455Q469 485 469 530Q469 591 401 625Q355 648 296 648Q167 648 125 543Q107
499 107 441V425H36V399H107V78Q105 26 31 26V0H182V431Q182 593 252 620Q269 627 292 627Q355 627 380 572Q390 548 390 520Q390 467 345 435Q339 431 328 423Q288 397 278 375Q272 360 272 342Q272 284 338 233Q348 225 369 210Q427 168 442 142Q453 123 453
102Q453 38 409 19Q396 13 382 13Q344 13 328 51Q313 86 309 91Q298 103 282 103Q249 103 244 74Q243 69 243 66Q243 24 305 2Q338 -9 377 -9Q453 -9 496 41Q524 74 524 119Z" />
<glyph unicode="&#xe0;" glyph-name="agrave" horiz-adv-x="482" d="M391 -10Q468 -10 476 83Q477 89 477 94L451 95Q444 22 412 21Q386 23 385 73V284Q385 427 242 435Q233 435 224 435Q112 435 74 383Q62 366 62 349Q62 318 91 313Q96 312 101 312Q124 312 135
341Q149 378 154 385Q173 410 213 410Q307 404 310 307V244Q75 244 41 146Q35 127 35 105Q35 29 102 1Q129 -10 159 -10Q232 -10 282 40Q300 59 309 80Q321 -9 391 -10ZM192 30Q131 30 117 91Q114 105 114 122Q114 189 191 207Q232 216 310 217V137Q295 68 237
40Q214 30 192 30ZM326 500Q300 528 250 607Q234 633 224 643Q210 656 195 656Q168 656 154 630Q149 621 149 611Q150 596 162 583Q172 573 243 530Q284 504 311 483L326 500Z" />
<glyph unicode="&#xe1;" glyph-name="aacute" horiz-adv-x="482" d="M391 -10Q468 -10 476 83Q477 89 477 94L451 95Q444 22 412 21Q386 23 385 73V284Q385 427 242 435Q233 435 224 435Q112 435 74 383Q62 366 62 349Q62 318 91 313Q96 312 101 312Q124 312 135
341Q149 378 154 385Q173 410 213 410Q307 404 310 307V244Q75 244 41 146Q35 127 35 105Q35 29 102 1Q129 -10 159 -10Q232 -10 282 40Q300 59 309 80Q321 -9 391 -10ZM192 30Q131 30 117 91Q114 105 114 122Q114 189 191 207Q232 216 310 217V137Q295 68 237
40Q214 30 192 30ZM331 583Q343 597 344 611Q344 637 317 651Q307 656 298 656Q282 655 269 643Q261 635 221 572Q192 527 167 500L183 483Q207 502 292 555Q320 573 331 583Z" />
<glyph unicode="&#xe2;" glyph-name="acircumflex" horiz-adv-x="482" d="M391 -10Q468 -10 476 83Q477 89 477 94L451 95Q444 22 412 21Q386 23 385 73V284Q385 427 242 435Q233 435 224 435Q112 435 74 383Q62 366 62 349Q62 318 91 313Q96 312 101 312Q124
312 135 341Q149 378 154 385Q173 410 213 410Q307 404 310 307V244Q75 244 41 146Q35 127 35 105Q35 29 102 1Q129 -10 159 -10Q232 -10 282 40Q300 59 309 80Q321 -9 391 -10ZM192 30Q131 30 117 91Q114 105 114 122Q114 189 191 207Q232 216 310 217V137Q295
68 237 40Q214 30 192 30ZM362 499L374 515Q351 540 319 580Q279 629 261 638Q251 643 240 643Q214 643 184 607Q177 599 162 580Q130 539 108 514L120 500Q177 537 242 570Q318 530 362 499Z" />
<glyph unicode="&#xe3;" glyph-name="atilde" horiz-adv-x="482" d="M391 -10Q468 -10 476 83Q477 89 477 94L451 95Q444 22 412 21Q386 23 385 73V284Q385 427 242 435Q233 435 224 435Q112 435 74 383Q62 366 62 349Q62 318 91 313Q96 312 101 312Q124 312 135
341Q149 378 154 385Q173 410 213 410Q307 404 310 307V244Q75 244 41 146Q35 127 35 105Q35 29 102 1Q129 -10 159 -10Q232 -10 282 40Q300 59 309 80Q321 -9 391 -10ZM192 30Q131 30 117 91Q114 105 114 122Q114 189 191 207Q232 216 310 217V137Q295 68 237
40Q214 30 192 30ZM192 633Q222 633 263 601Q298 574 317 574Q354 574 369 625Q370 628 371 631L392 626Q369 520 302 519Q272 519 232 551Q197 578 176 578Q141 578 126 531Q124 526 123 521L103 526Q126 632 192 633Z" />
<glyph unicode="&#xe4;" glyph-name="adieresis" horiz-adv-x="482" d="M391 -10Q468 -10 476 83Q477 89 477 94L451 95Q444 22 412 21Q386 23 385 73V284Q385 427 242 435Q233 435 224 435Q112 435 74 383Q62 366 62 349Q62 318 91 313Q96 312 101 312Q124 312
135 341Q149 378 154 385Q173 410 213 410Q307 404 310 307V244Q75 244 41 146Q35 127 35 105Q35 29 102 1Q129 -10 159 -10Q232 -10 282 40Q300 59 309 80Q321 -9 391 -10ZM192 30Q131 30 117 91Q114 105 114 122Q114 189 191 207Q232 216 310 217V137Q295 68
237 40Q214 30 192 30ZM200 571Q200 604 171 617Q161 621 151 621Q117 621 104 591Q100 581 100 571Q100 536 132 524Q141 521 151 521Q184 521 196 552Q200 561 200 571ZM383 571Q383 604 353 617Q343 621 333 621Q300 621 287 591Q283 581 283 571Q283 536 314
524Q324 521 333 521Q367 521 379 552Q383 561 383 571Z" />
<glyph unicode="&#xe5;" glyph-name="aring" horiz-adv-x="482" d="M391 -10Q468 -10 476 83Q477 89 477 94L451 95Q444 22 412 21Q386 23 385 73V284Q385 427 242 435Q233 435 224 435Q112 435 74 383Q62 366 62 349Q62 318 91 313Q96 312 101 312Q124 312 135
341Q149 378 154 385Q173 410 213 410Q307 404 310 307V244Q75 244 41 146Q35 127 35 105Q35 29 102 1Q129 -10 159 -10Q232 -10 282 40Q300 59 309 80Q321 -9 391 -10ZM192 30Q131 30 117 91Q114 105 114 122Q114 189 191 207Q232 216 310 217V137Q295 68 237
40Q214 30 192 30ZM192 573Q192 627 226 639Q234 642 242 642Q285 642 292 591Q293 583 293 575Q293 524 261 509Q252 505 242 505Q198 505 193 560Q192 567 192 573ZM245 665Q170 665 146 613Q138 595 138 575Q138 516 189 492Q212 482 240 482Q312 482 338 535Q347
554 347 576Q347 633 295 656Q272 665 245 665Z" />
<glyph unicode="&#xe6;" glyph-name="ae" horiz-adv-x="731" d="M516 410Q586 410 609 350Q616 331 616 310Q616 261 571 250Q545 244 498 245L392 248Q397 370 473 402Q493 410 516 410ZM691 100L665 105Q630 29 552 19Q542 18 533 18Q428 18 401 143Q393 178
392 220L512 218Q634 216 669 241Q696 261 696 298Q696 366 627 406Q578 435 514 435Q422 434 368 368Q334 435 227 435Q111 435 73 382Q62 366 62 349Q62 318 91 313Q96 312 101 312Q124 312 135 340Q149 378 155 386Q175 410 216 410Q303 410 314 330Q316 319
316 307V244Q84 244 44 154Q35 131 35 105Q35 28 105 0Q131 -10 162 -10Q246 -10 302 56Q324 83 333 111Q378 -8 517 -10Q629 -10 678 72Q686 86 691 100ZM195 30Q127 30 116 97Q114 109 114 122Q114 189 194 207Q237 216 316 217V137Q301 70 243 42Q218 30 195
30Z" />
<glyph unicode="&#xe7;" glyph-name="ccedilla" horiz-adv-x="435" d="M40 208Q40 86 130 26Q163 4 204 -5L164 -85L178 -94Q202 -77 229 -77Q276 -77 283 -120Q284 -127 284 -134Q284 -186 244 -199Q234 -202 225 -202Q185 -201 155 -162L139 -174Q173 -226 243
-227Q309 -227 342 -185Q359 -163 359 -136Q359 -82 303 -60Q280 -52 256 -52Q227 -52 204 -62L228 -9Q237 -10 254 -10Q358 -10 411 63Q423 80 430 97L404 106Q367 27 282 19Q274 18 266 18Q195 18 155 89Q125 143 125 217Q125 348 194 392Q223 410 258 410Q312
410 323 368Q325 360 328 343Q334 303 350 293Q360 288 372 287Q406 285 415 315Q417 322 417 328Q417 379 352 412Q306 435 252 435Q118 435 65 326Q40 274 40 208Z" />
<glyph unicode="&#xe8;" glyph-name="egrave" horiz-adv-x="464" d="M249 410Q319 410 342 351Q350 332 350 310Q350 260 302 249Q277 244 231 245L125 248Q130 363 200 398Q223 410 249 410ZM423 96L398 105Q363 29 285 19Q275 18 266 18Q161 18 134 143Q126
178 125 220L245 218Q367 216 402 241Q429 261 429 298Q429 366 360 406Q311 435 247 435Q122 435 68 331Q40 277 40 209Q40 85 129 25Q182 -10 250 -10Q358 -10 409 68Q417 82 423 96ZM317 500Q291 528 241 607Q225 633 215 643Q201 656 186 656Q159 656 145 630Q140
621 140 611Q141 596 153 583Q163 573 234 530Q275 504 302 483L317 500Z" />
<glyph unicode="&#xe9;" glyph-name="eacute" horiz-adv-x="464" d="M249 410Q319 410 342 351Q350 332 350 310Q350 260 302 249Q277 244 231 245L125 248Q130 363 200 398Q223 410 249 410ZM423 96L398 105Q363 29 285 19Q275 18 266 18Q161 18 134 143Q126
178 125 220L245 218Q367 216 402 241Q429 261 429 298Q429 366 360 406Q311 435 247 435Q122 435 68 331Q40 277 40 209Q40 85 129 25Q182 -10 250 -10Q358 -10 409 68Q417 82 423 96ZM322 583Q334 597 335 611Q335 637 308 651Q298 656 289 656Q273 655 260 643Q252
635 212 572Q183 527 158 500L174 483Q198 502 283 555Q311 573 322 583Z" />
<glyph unicode="&#xea;" glyph-name="ecircumflex" horiz-adv-x="464" d="M249 410Q319 410 342 351Q350 332 350 310Q350 260 302 249Q277 244 231 245L125 248Q130 363 200 398Q223 410 249 410ZM423 96L398 105Q363 29 285 19Q275 18 266 18Q161 18 134 143Q126
178 125 220L245 218Q367 216 402 241Q429 261 429 298Q429 366 360 406Q311 435 247 435Q122 435 68 331Q40 277 40 209Q40 85 129 25Q182 -10 250 -10Q358 -10 409 68Q417 82 423 96ZM353 499L365 515Q342 540 310 580Q270 629 252 638Q242 643 231 643Q205 643
175 607Q168 599 153 580Q121 539 99 514L111 500Q168 537 233 570Q309 530 353 499Z" />
<glyph unicode="&#xeb;" glyph-name="edieresis" horiz-adv-x="464" d="M249 410Q319 410 342 351Q350 332 350 310Q350 260 302 249Q277 244 231 245L125 248Q130 363 200 398Q223 410 249 410ZM423 96L398 105Q363 29 285 19Q275 18 266 18Q161 18 134 143Q126
178 125 220L245 218Q367 216 402 241Q429 261 429 298Q429 366 360 406Q311 435 247 435Q122 435 68 331Q40 277 40 209Q40 85 129 25Q182 -10 250 -10Q358 -10 409 68Q417 82 423 96ZM191 571Q191 604 162 617Q152 621 142 621Q108 621 95 591Q91 581 91 571Q91
536 123 524Q132 521 142 521Q175 521 187 552Q191 561 191 571ZM374 571Q374 604 344 617Q334 621 324 621Q291 621 278 591Q274 581 274 571Q274 536 305 524Q315 521 324 521Q358 521 370 552Q374 561 374 571Z" />
<glyph unicode="&#xec;" glyph-name="igrave" horiz-adv-x="287" d="M238 26H186V425H30V399H106V78Q104 26 30 26V0H262Q262 23 249 25Q244 26 238 26ZM229 500Q203 528 153 607Q137 633 127 643Q113 656 98 656Q71 656 57 630Q52 621 52 611Q53 596 65 583Q75
573 146 530Q187 504 214 483L229 500Z" />
<glyph unicode="&#xed;" glyph-name="iacute" horiz-adv-x="287" d="M238 26H186V425H30V399H106V78Q104 26 30 26V0H262Q262 23 249 25Q244 26 238 26ZM234 583Q246 597 247 611Q247 637 220 651Q210 656 201 656Q185 655 172 643Q164 635 124 572Q95 527 70
500L86 483Q110 502 195 555Q223 573 234 583Z" />
<glyph unicode="&#xee;" glyph-name="icircumflex" horiz-adv-x="287" d="M238 26H186V425H30V399H106V78Q104 26 30 26V0H262Q262 23 249 25Q244 26 238 26ZM265 499L277 515Q254 540 222 580Q182 629 164 638Q154 643 143 643Q117 643 87 607Q80 599 65 580Q33
539 11 514L23 500Q80 537 145 570Q221 530 265 499Z" />
<glyph unicode="&#xef;" glyph-name="idieresis" horiz-adv-x="287" d="M113 571Q113 604 84 617Q74 621 64 621Q30 621 17 591Q13 581 13 571Q13 536 45 524Q54 521 64 521Q97 521 109 552Q113 561 113 571ZM276 571Q276 604 246 617Q236 621 226 621Q193 621
180 591Q176 581 176 571Q176 536 207 524Q217 521 226 521Q260 521 272 552Q276 561 276 571ZM238 26H186V425H30V399H106V78Q104 26 30 26V0H262Q262 23 249 25Q244 26 238 26Z" />
<glyph unicode="&#xf0;" glyph-name="eth" horiz-adv-x="520" d="M474 246Q474 389 391 502Q359 544 320 575L411 627L396 653L293 595Q213 645 116 650L113 623Q193 617 252 573L130 504L146 476L277 551Q340 485 365 374Q317 403 257 403Q162 403 98 340Q40
282 40 200Q40 85 130 27Q187 -10 256 -10Q388 -10 444 104Q474 165 474 246ZM125 196Q125 332 207 368Q231 378 259 378Q340 378 373 300Q391 259 391 201Q391 103 341 50Q307 15 259 15Q161 15 133 121Q125 155 125 196Z" />
<glyph unicode="&#xf1;" glyph-name="ntilde" horiz-adv-x="568" d="M225 25H180V241Q183 334 246 375Q273 392 301 392Q362 392 384 335Q393 312 393 283V85Q393 39 367 30Q352 25 318 25V0H543Q543 22 528 24Q524 25 518 25H468V273Q468 373 399 416Q367 435
330 435Q256 435 208 376Q190 353 179 325L175 425H30V400H105V85Q105 39 79 30Q64 25 30 25V0H250Q250 22 235 24Q231 25 225 25ZM235 633Q265 633 306 601Q341 574 360 574Q397 574 412 625Q413 628 414 631L435 626Q412 520 345 519Q315 519 275 551Q240 578
219 578Q184 578 169 531Q167 526 166 521L146 526Q169 632 235 633Z" />
<glyph unicode="&#xf2;" glyph-name="ograve" horiz-adv-x="513" d="M125 213Q125 368 210 402Q232 410 256 410Q367 410 385 270Q388 246 388 217Q388 49 296 20Q278 15 259 15Q158 15 132 135Q125 170 125 213ZM259 435Q163 435 99 369Q40 308 40 217Q40 91
132 28Q188 -10 256 -10Q352 -10 415 58Q473 120 473 213Q473 339 380 400Q325 435 259 435ZM347 500Q321 528 271 607Q254 633 245 643Q231 656 216 656Q189 656 175 630Q170 621 170 611Q171 596 183 583Q193 573 264 530Q305 504 332 483L347 500Z" />
<glyph unicode="&#xf3;" glyph-name="oacute" horiz-adv-x="513" d="M125 213Q125 368 210 402Q232 410 256 410Q367 410 385 270Q388 246 388 217Q388 49 296 20Q278 15 259 15Q158 15 132 135Q125 170 125 213ZM259 435Q163 435 99 369Q40 308 40 217Q40 91
132 28Q188 -10 256 -10Q352 -10 415 58Q473 120 473 213Q473 339 380 400Q325 435 259 435ZM352 583Q364 597 365 611Q365 637 338 651Q328 656 319 656Q303 655 290 643Q282 635 242 572Q213 527 188 500L204 483Q228 502 313 555Q341 573 352 583Z" />
<glyph unicode="&#xf4;" glyph-name="ocircumflex" horiz-adv-x="513" d="M125 213Q125 368 210 402Q232 410 256 410Q367 410 385 270Q388 246 388 217Q388 49 296 20Q278 15 259 15Q158 15 132 135Q125 170 125 213ZM259 435Q163 435 99 369Q40 308 40 217Q40
91 132 28Q188 -10 256 -10Q352 -10 415 58Q473 120 473 213Q473 339 380 400Q325 435 259 435ZM383 499L395 515Q372 540 340 580Q300 629 282 638Q272 643 261 643Q235 643 205 607Q198 599 183 580Q151 539 129 514L141 500Q198 537 263 570Q339 530 383 499Z"
/>
<glyph unicode="&#xf5;" glyph-name="otilde" horiz-adv-x="513" d="M125 213Q125 368 210 402Q232 410 256 410Q367 410 385 270Q388 246 388 217Q388 49 296 20Q278 15 259 15Q158 15 132 135Q125 170 125 213ZM259 435Q163 435 99 369Q40 308 40 217Q40 91
132 28Q188 -10 256 -10Q352 -10 415 58Q473 120 473 213Q473 339 380 400Q325 435 259 435ZM213 633Q243 633 284 601Q319 574 338 574Q375 574 390 625Q391 628 392 631L413 626Q390 520 323 519Q293 519 253 551Q218 578 197 578Q162 578 147 531Q145 526 144
521L124 526Q147 632 213 633Z" />
<glyph unicode="&#xf6;" glyph-name="odieresis" horiz-adv-x="513" d="M125 213Q125 368 210 402Q232 410 256 410Q367 410 385 270Q388 246 388 217Q388 49 296 20Q278 15 259 15Q158 15 132 135Q125 170 125 213ZM259 435Q163 435 99 369Q40 308 40 217Q40
91 132 28Q188 -10 256 -10Q352 -10 415 58Q473 120 473 213Q473 339 380 400Q325 435 259 435ZM221 571Q221 604 192 617Q182 621 172 621Q138 621 125 591Q121 581 121 571Q121 536 153 524Q162 521 172 521Q205 521 217 552Q221 561 221 571ZM404 571Q404 604
374 617Q364 621 354 621Q321 621 308 591Q304 581 304 571Q304 536 335 524Q345 521 354 521Q388 521 400 552Q404 561 404 571Z" />
<glyph unicode="&#xf7;" glyph-name="divide" horiz-adv-x="469" d="M424 216V252H45V216H424ZM188 78Q189 110 220 125Q231 131 243 131Q276 130 291 101Q297 89 297 77Q297 43 266 29Q253 24 241 24Q220 25 204 40Q188 57 188 78ZM188 381Q189 413 220 428Q232
434 243 434Q276 433 291 404Q297 392 297 380Q297 346 266 332Q253 327 241 327Q220 328 204 343Q188 360 188 381Z" />
<glyph unicode="&#xf8;" glyph-name="oslash" horiz-adv-x="513" d="M29 -9L97 58Q161 -10 256 -10Q352 -10 415 58Q473 120 473 213Q472 310 416 369L490 441L469 460L396 389Q338 435 259 435Q163 435 99 369Q40 308 40 217Q41 138 79 80L8 11L29 -9ZM125 213Q125
368 210 402Q232 410 256 410Q326 409 359 353L133 133Q125 172 125 213ZM259 15Q175 16 142 101L372 326Q388 280 388 217Q388 49 296 20Q278 15 259 15Z" />
<glyph unicode="&#xf9;" glyph-name="ugrave" horiz-adv-x="567" d="M515 25H465V425H308V400H390V184Q390 94 327 52Q299 33 269 33Q187 33 174 117Q172 131 172 147V425H20V400H97V162Q98 -9 240 -10Q315 -10 363 51Q381 74 392 102L399 0H540Q540 22 525 24Q521
25 515 25ZM369 500Q343 528 293 607Q276 633 267 643Q253 656 238 656Q211 656 197 630Q192 621 192 611Q193 596 205 583Q215 573 286 530Q327 504 354 483L369 500Z" />
<glyph unicode="&#xfa;" glyph-name="uacute" horiz-adv-x="567" d="M515 25H465V425H308V400H390V184Q390 94 327 52Q299 33 269 33Q187 33 174 117Q172 131 172 147V425H20V400H97V162Q98 -9 240 -10Q315 -10 363 51Q381 74 392 102L399 0H540Q540 22 525 24Q521
25 515 25ZM374 583Q386 597 387 611Q387 637 360 651Q350 656 341 656Q325 655 312 643Q304 635 264 572Q235 527 210 500L226 483Q250 502 335 555Q363 573 374 583Z" />
<glyph unicode="&#xfb;" glyph-name="ucircumflex" horiz-adv-x="567" d="M515 25H465V425H308V400H390V184Q390 94 327 52Q299 33 269 33Q187 33 174 117Q172 131 172 147V425H20V400H97V162Q98 -9 240 -10Q315 -10 363 51Q381 74 392 102L399 0H540Q540 22 525
24Q521 25 515 25ZM405 499L417 515Q394 540 362 580Q322 629 304 638Q294 643 283 643Q257 643 227 607Q220 599 205 580Q173 539 151 514L163 500Q220 537 285 570Q361 530 405 499Z" />
<glyph unicode="&#xfc;" glyph-name="udieresis" horiz-adv-x="567" d="M515 25H465V425H308V400H390V184Q390 94 327 52Q299 33 269 33Q187 33 174 117Q172 131 172 147V425H20V400H97V162Q98 -9 240 -10Q315 -10 363 51Q381 74 392 102L399 0H540Q540 22 525
24Q521 25 515 25ZM243 571Q243 604 214 617Q204 621 194 621Q160 621 147 591Q143 581 143 571Q143 536 175 524Q184 521 194 521Q227 521 239 552Q243 561 243 571ZM426 571Q426 604 396 617Q386 621 376 621Q343 621 330 591Q326 581 326 571Q326 536 357 524Q367
521 376 521Q410 521 422 552Q426 561 426 571Z" />
<glyph unicode="&#xfd;" glyph-name="yacute" horiz-adv-x="484" d="M103 -159Q87 -159 79 -135Q68 -105 58 -98Q49 -92 37 -92Q5 -92 0 -120Q-1 -124 -1 -127Q-1 -165 43 -182Q63 -190 85 -190Q164 -190 222 -93Q246 -54 268 0L416 365Q426 393 438 397Q445 399
454 399Q474 399 477 410Q479 416 479 425H327V399H400L272 79L135 399H202V425H7V399H56L236 0Q180 -132 131 -153Q117 -159 103 -159ZM368 583Q380 597 381 611Q381 637 354 651Q344 656 335 656Q319 655 306 643Q298 635 258 572Q229 527 204 500L220 483Q244
502 329 555Q357 573 368 583Z" />
<glyph unicode="&#xfe;" glyph-name="thorn" horiz-adv-x="557" d="M183 -164V42Q238 -6 310 -10Q399 -10 459 57Q517 122 517 222Q517 336 454 395Q410 435 347 435Q250 435 202 358Q190 338 182 316V650H30V624H108V-112Q108 -153 74 -161Q59 -164 32 -164V-190H279Q279
-167 266 -165Q261 -164 255 -164H183ZM315 395Q402 395 425 286Q432 253 432 212Q432 65 353 26Q330 15 303 15Q226 15 197 96Q182 137 182 193Q182 323 249 373Q279 395 315 395Z" />
<glyph unicode="&#xff;" glyph-name="ydieresis" horiz-adv-x="484" d="M103 -159Q87 -159 79 -135Q68 -105 58 -98Q49 -92 37 -92Q5 -92 0 -120Q-1 -124 -1 -127Q-1 -165 43 -182Q63 -190 85 -190Q164 -190 222 -93Q246 -54 268 0L416 365Q426 393 438 397Q445
399 454 399Q474 399 477 410Q479 416 479 425H327V399H400L272 79L135 399H202V425H7V399H56L236 0Q180 -132 131 -153Q117 -159 103 -159ZM209 571Q209 604 180 617Q170 621 160 621Q126 621 113 591Q109 581 109 571Q109 536 141 524Q150 521 160 521Q193 521
205 552Q209 561 209 571ZM392 571Q392 604 362 617Q352 621 342 621Q309 621 296 591Q292 581 292 571Q292 536 323 524Q333 521 342 521Q376 521 388 552Q392 561 392 571Z" />
<glyph unicode="&#x2013;" glyph-name="endash" horiz-adv-x="679" d="M100 200H580V240H100V200Z" />
<glyph unicode="&#x2014;" glyph-name="emdash" horiz-adv-x="879" d="M100 200H780V240H100V200Z" />
<glyph unicode="&#x2018;" glyph-name="quoteleft" horiz-adv-x="193" d="M143 505Q143 537 111 549Q106 550 103 551Q81 557 80 568Q81 595 124 640L103 655Q42 589 40 521Q40 467 80 457Q88 455 95 455Q127 455 139 485Q143 495 143 505Z" />
<glyph unicode="&#x2019;" glyph-name="quoteright" horiz-adv-x="193" d="M153 584Q153 638 113 648Q105 650 98 650Q66 650 54 620Q50 610 50 600Q50 568 82 556Q87 555 90 554Q112 548 113 537Q112 510 69 465L90 450Q151 516 153 584Z" />
<glyph unicode="&#x201a;" glyph-name="quotesinglbase" horiz-adv-x="164" d="M134 39Q134 91 94 100Q87 102 80 102Q47 102 36 72Q33 63 33 55Q33 23 69 11Q71 10 73 10Q94 3 95 -7Q94 -30 63 -67L84 -81Q134 -23 134 39Z" />
<glyph unicode="&#x201c;" glyph-name="quotedblleft" horiz-adv-x="297" d="M35 521Q35 467 75 457Q83 455 90 455Q122 455 134 485Q138 495 138 505Q138 537 106 549Q101 550 98 551Q76 557 75 568Q76 595 119 640L98 655Q37 589 35 521ZM164 521Q164 467 204
457Q212 455 219 455Q251 455 263 485Q267 495 267 505Q267 537 235 549Q230 550 227 551Q205 557 204 568Q205 595 248 640L227 655Q166 589 164 521Z" />
<glyph unicode="&#x201d;" glyph-name="quotedblright" horiz-adv-x="305" d="M267 549Q267 603 227 613Q219 615 212 615Q180 615 168 585Q164 575 164 565Q164 533 196 521Q201 520 204 519Q226 513 227 502Q226 475 183 430L204 415Q265 481 267 549ZM138 549Q138
603 98 613Q90 615 83 615Q51 615 39 585Q35 575 35 565Q35 533 67 521Q72 520 75 519Q97 513 98 502Q97 475 54 430L75 415Q136 481 138 549Z" />
<glyph unicode="&#x201e;" glyph-name="quotedblbase" horiz-adv-x="302" d="M267 37Q267 91 227 101Q219 103 212 103Q180 103 168 73Q164 63 164 53Q164 21 196 9Q201 8 204 7Q226 1 227 -10Q226 -37 183 -82L204 -97Q265 -31 267 37ZM138 37Q138 91 98 101Q90
103 83 103Q51 103 39 73Q35 63 35 53Q35 21 67 9Q72 8 75 7Q97 1 98 -10Q97 -37 54 -82L75 -97Q136 -31 138 37Z" />
<glyph unicode="&#x2022;" glyph-name="bullet" horiz-adv-x="368" d="M268 229Q268 279 226 303Q206 314 184 314Q135 314 111 272Q100 252 100 229Q100 181 142 156Q162 145 184 145Q232 145 256 186Q268 207 268 229Z" />
<glyph unicode="&#x2039;" glyph-name="guilsinglleft" horiz-adv-x="262" d="M234 378L214 395Q187 365 78 271Q48 245 38 235Q25 220 25 205Q26 187 38 173Q46 164 135 91Q193 44 219 16L237 32Q224 49 191 94Q130 176 108 205Q127 230 178 301Q218 356 234 378Z" />
<glyph unicode="&#x203a;" glyph-name="guilsinglright" horiz-adv-x="262" d="M28 378L48 395Q75 365 184 271Q214 245 224 235Q237 220 237 205Q236 187 224 173Q216 164 127 91Q69 44 43 16L25 32Q38 49 71 94Q132 176 154 205Q135 230 84 301Q44 356 28 378Z" />
</font>
</defs>
</svg>
