<?xml version="1.0" standalone="no"?>
<!DOCTYPE svg PUBLIC "-//W3C//DTD SVG 1.1//EN" "http://www.w3.org/Graphics/SVG/1.1/DTD/svg11.dtd">
<svg xmlns="http://www.w3.org/2000/svg">
<defs >
<font id="MontserratAlternates" horiz-adv-x="602" ><font-face
    font-family="Montserrat Alternates"
    units-per-em="1000"
    panose-1="0 0 5 0 0 0 0 0 0 0"
    ascent="968"
    descent="-251"
    alphabetic="0" />
<glyph unicode=" " glyph-name="space" horiz-adv-x="262" />
<glyph unicode="!" glyph-name="exclam" horiz-adv-x="209" d="M242 690L208 519L133 215H72L119 519L153 690H242ZM99 106T113 92T127 54Q127 28 110 10T67 -9Q45 -9 32 6T18 44Q18 70 35 88T77 106Q99 106 113 92Z" />
<glyph unicode="&quot;" glyph-name="quotedbl" horiz-adv-x="335" d="M220 700L174 467H101L147 700H220ZM361 700L315 467H242L288 700H361Z" />
<glyph unicode="#" glyph-name="numbersign" horiz-adv-x="686" d="M690 442H545L505 252H646L634 181H490L452 0H381L419 181H228L190 0H120L158 181H16L28 252H173L213 442H71L83 513H228L267 700H338L298 513H489L529 700H599L560 513H701L690 442ZM434 252L474
442H283L243 252H434Z" />
<glyph unicode="$" glyph-name="dollar" horiz-adv-x="609" d="M194 483T213 462T262 428T343 399Q407 379 446 361T513 307T541 216Q541 200 540 192Q535 134 499 90T404 22T271 -4L246 -137H173L200 1Q140 11 88 38T-3 105L48 188Q93 141 153 115T273 88Q347
88 390 117T434 198Q434 231 414 253T364 287T282 316Q218 337 179 355T113 407T85 496Q85 557 117 603T207 676T340 705L363 827H436L411 701Q509 686 579 636L530 551Q485 582 434 597T338 612Q272 612 233 587T194 515Q194 483 213 462Z" />
<glyph unicode="%" glyph-name="percent" horiz-adv-x="1114" d="M188 283T145 331T102 466Q102 575 156 640T305 705Q383 705 425 657T468 523Q468 413 414 348T265 283Q188 283 145 331ZM333 339T368 388T404 519Q404 581 378 615T301 649Q237 649 202 601T167
469Q167 407 193 373T269 339Q333 339 368 388ZM345 0H275L795 700H864L345 0ZM766 -5T723 43T680 178Q680 287 734 352T883 417Q961 417 1003 369T1046 235Q1046 125 992 60T843 -5Q766 -5 723 43ZM911 51T946 100T982 231Q982 293 956 327T879 361Q815 361 780
313T745 181Q745 119 771 85T847 51Q911 51 946 100Z" />
<glyph unicode="&amp;" glyph-name="ampersand" horiz-adv-x="664" d="M558 -13L462 95Q354 -4 239 -4Q183 -4 138 18T68 81T42 171Q42 248 90 296T226 389Q202 429 191 463T180 529Q180 579 204 619T273 681T374 704Q444 704 485 669T527 577Q527 526 500 488T431
424T325 366Q378 294 461 201Q509 260 549 337L607 286Q564 208 510 145L611 33L558 -13ZM254 538T254 527Q254 479 290 420Q370 459 411 493T452 578Q452 608 431 626T374 644Q326 644 293 615T255 543Q254 538 254 527ZM329 68T414 150Q310 268 263 335Q196 301
159 264T122 174Q122 127 155 98T242 68Q329 68 414 150Z" />
<glyph unicode="&apos;" glyph-name="quotesingle" horiz-adv-x="194" d="M220 700L174 467H101L147 700H220Z" />
<glyph unicode="(" glyph-name="parenleft" horiz-adv-x="309" d="M310 652T257 539T179 301Q160 210 160 120Q160 -21 207 -124H127Q74 -12 74 136Q74 225 93 317Q117 440 169 550T297 742H383Q310 652 257 539Z" />
<glyph unicode=")" glyph-name="parenright" horiz-adv-x="330" d="M97 -35T150 78T228 316Q247 407 247 497Q247 638 200 741H280Q333 629 333 481Q333 392 314 300Q290 177 238 67T110 -125H24Q97 -35 150 78Z" />
<glyph unicode="*" glyph-name="asterisk" horiz-adv-x="357" d="M356 471L265 525L266 420H214L216 526L123 472L98 518L190 570L98 622L123 670L215 615L214 721H266L265 615L356 669L382 622L289 570L382 518L356 471Z" />
<glyph unicode="+" glyph-name="plus" horiz-adv-x="494" d="M476 357L463 290H283L248 112H185L221 290H41L54 357H234L270 535H332L297 357H476Z" />
<glyph unicode="," glyph-name="comma" horiz-adv-x="196" d="M78 103T93 88T105 48Q104 37 100 28T86 2L22 -110H-28L21 1Q-4 14 -2 48Q0 73 16 88T56 103Q78 103 93 88Z" />
<glyph unicode="-" glyph-name="hyphen" horiz-adv-x="366" d="M317 337L304 270H64L78 337H317Z" />
<glyph unicode="." glyph-name="period" horiz-adv-x="210" d="M88 106T102 92T116 54Q116 28 99 10T56 -9Q34 -9 21 6T7 44Q7 70 24 88T66 106Q88 106 102 92Z" />
<glyph unicode="/" glyph-name="slash" horiz-adv-x="325" d="M407 819L32 -120H-49L326 819H407Z" />
<glyph unicode="0" glyph-name="zero" horiz-adv-x="770" d="M586 704T646 637T707 443Q707 310 663 209T534 51T334 -5Q219 -5 159 63T98 257Q98 390 142 491T271 648T471 704Q586 704 646 637ZM328 628T262 527T196 261Q196 168 234 120T348 72Q433 72 492 119T580
250T609 439Q609 532 571 580T457 628Q328 628 262 527Z" />
<glyph unicode="1" glyph-name="one" horiz-adv-x="422" d="M122 700H377L241 0H145L265 613H107L122 700Z" />
<glyph unicode="2" glyph-name="two" horiz-adv-x="630" d="M570 442T409 303L156 87H535L519 0H13L27 74L353 355Q409 401 443 445T482 522Q483 527 483 536Q483 575 452 597T364 619Q315 619 259 597T149 534L123 607Q188 653 257 678T392 704Q482 704 534 666T587
562Q587 554 585 536Q570 442 409 303Z" />
<glyph unicode="3" glyph-name="three" horiz-adv-x="636" d="M604 639L323 406L365 403Q456 398 508 357T561 246Q561 175 521 118T408 28T243 -5Q177 -5 114 15T10 68L65 146Q100 114 148 96T251 77Q315 77 363 97T438 153T465 234Q465 285 423 312T302 340H205L216
401L473 613H151L166 700H616L604 639Z" />
<glyph unicode="4" glyph-name="four" horiz-adv-x="644" d="M596 266L581 180H472L437 0H347L382 180H36L50 254L387 700H480L156 266H399L434 445H524L489 266H596Z" />
<glyph unicode="5" glyph-name="five" horiz-adv-x="666" d="M283 613L248 435Q295 439 365 439Q433 439 483 417T559 354T586 261Q586 186 546 125T434 30T272 -5Q210 -5 146 16T35 74L88 151Q127 117 177 99T279 81Q338 81 384 101T455 159T481 244Q481 295
442 323T327 352Q296 352 237 348T139 338L209 700H644L629 613H283Z" />
<glyph unicode="6" glyph-name="six" horiz-adv-x="691" d="M213 -5T154 62T94 251Q94 378 142 481T275 644T465 704Q516 704 570 690T663 651L611 578Q581 600 540 612T458 624Q352 624 284 546T198 334Q234 390 290 420T418 450Q509 450 560 402T611 271Q611
190 574 128T471 30T323 -5Q213 -5 154 62ZM385 79T427 101T494 163T519 256Q519 310 485 341T388 373Q334 373 290 349T221 285T195 200Q195 150 230 115T332 79Q385 79 427 101Z" />
<glyph unicode="7" glyph-name="seven" horiz-adv-x="622" d="M140 700H664L650 625L222 0H120L541 613H211L190 512H103L140 700Z" />
<glyph unicode="8" glyph-name="eight" horiz-adv-x="688" d="M522 704T574 665T627 556Q627 494 589 447T485 374Q538 356 567 317T597 226Q597 157 559 105T451 24T292 -5Q185 -5 125 40T65 163Q65 239 115 294T251 374Q209 393 187 426T164 503Q164 563 197
608T290 679T429 704Q522 704 574 665ZM338 634T292 598T245 501Q245 457 278 432T371 407Q450 407 496 443T542 541Q542 585 509 609T416 634Q338 634 292 598ZM266 331T212 291T158 181Q158 129 196 101T306 72Q397 72 451 113T506 225Q506 275 467 303T357 331Q266
331 212 291Z" />
<glyph unicode="9" glyph-name="nine" horiz-adv-x="688" d="M143 100T183 88T265 76Q370 76 437 154T524 366Q489 310 433 280T305 250Q215 250 165 298T114 429Q114 510 150 572T252 669T400 704Q509 704 568 637T628 449Q628 322 580 218T447 55T258 -5Q207
-5 154 9T61 49L113 122Q143 100 183 88ZM338 621T296 599T230 536T206 443Q206 390 240 359T335 327Q389 327 433 351T502 415T527 500Q527 551 492 586T391 621Q338 621 296 599Z" />
<glyph unicode=":" glyph-name="colon" horiz-adv-x="211" d="M148 403T162 389T176 351Q176 325 159 307T116 288Q94 288 81 303T67 341Q67 367 84 385T126 403Q148 403 162 389ZM89 106T103 92T117 54Q117 28 100 10T57 -9Q35 -9 22 6T8 44Q8 70 25 88T67 106Q89
106 103 92Z" />
<glyph unicode=";" glyph-name="semicolon" horiz-adv-x="198" d="M138 403T152 389T166 351Q166 325 149 307T106 288Q84 288 71 303T57 341Q57 367 74 385T116 403Q138 403 152 389ZM79 103T94 88T106 48Q105 37 101 28T87 2L23 -110H-27L22 1Q-3 14 -1 48Q1
73 17 88T57 103Q79 103 94 88Z" />
<glyph unicode="&lt;" glyph-name="less" horiz-adv-x="496" d="M516 554L502 477L113 323L440 168L426 98L42 284L58 369L516 554Z" />
<glyph unicode="=" glyph-name="equal" horiz-adv-x="495" d="M497 460L485 394H63L76 460H497ZM456 253L443 187H21L34 253H456Z" />
<glyph unicode="&gt;" glyph-name="greater" horiz-adv-x="496" d="M6 102L20 179L409 333L82 488L96 558L480 372L464 287L6 102Z" />
<glyph unicode="?" glyph-name="question" horiz-adv-x="434" d="M67 593T125 642T272 692Q354 692 402 650T451 537Q451 498 437 467T403 412T348 355Q306 315 285 287T261 223H188Q193 277 217 313T286 392Q326 432 344 459T363 526Q363 568 337 589T261 611Q147
611 129 504L55 505Q67 593 125 642ZM240 106T254 92T268 54Q268 28 251 10T208 -9Q186 -9 173 6T159 44Q159 70 176 88T218 106Q240 106 254 92Z" />
<glyph unicode="@" glyph-name="at" horiz-adv-x="987" d="M676 705T765 657T903 523T952 327Q952 237 923 166T842 56T730 16Q684 16 658 38T631 102L633 131Q597 81 545 55T434 29Q376 29 330 55T256 128T229 237Q229 310 263 373T358 473T492 511Q535 511 570
497T627 462T655 422L666 503H755L703 139Q702 134 702 124Q702 78 747 78Q779 78 810 110T860 197T880 319Q880 410 841 482T727 595T552 636Q435 636 333 580T169 429T108 221Q108 132 149 63T265 -46T436 -86Q482 -86 536 -72T634 -30L659 -93Q613 -122 548
-140T427 -158Q313 -158 224 -111T86 21T36 213Q36 347 108 460T300 639T561 705Q676 705 765 657ZM451 426T411 402T348 338T325 249Q325 191 360 153T453 114Q503 114 543 138T607 204T630 294Q630 351 594 388T498 426Q451 426 411 402Z" />
<glyph unicode="A" glyph-name="A" horiz-adv-x="767" d="M587 703T651 645T716 483Q716 446 709 410L630 0H533L571 196H169L131 0H35L115 410Q141 547 235 625T468 703Q587 703 651 645ZM619 439T619 464Q619 537 576 577T453 617Q358 617 294 562T211 410L186
283H588L613 410Q619 439 619 464Z" />
<glyph unicode="B" glyph-name="B" horiz-adv-x="714" d="M583 358T615 320T648 225Q648 157 612 106T508 28T352 0H47L187 700H486Q580 700 632 662T684 555Q684 485 641 435T523 368Q583 358 615 320ZM582 568T552 590T465 612H265L224 403H422Q496 403 539
436T582 528Q582 568 552 590ZM447 88T498 123T550 221Q550 266 512 291T405 316H206L161 88H358Q447 88 498 123Z" />
<glyph unicode="C" glyph-name="C" horiz-adv-x="726" d="M533 706T598 679T710 601L646 532Q610 574 560 597T454 621Q374 621 306 581T196 473T155 325Q155 258 187 203T274 115T399 83Q454 83 509 105T609 167L661 104Q602 52 530 23T386 -7Q292 -7 217 36T100
153T57 318Q57 424 112 513T259 654T460 706Q533 706 598 679Z" />
<glyph unicode="D" glyph-name="D" horiz-adv-x="785" d="M547 700T618 662T728 556T767 403Q767 292 710 200T556 54T346 0H48L187 700H455Q547 700 618 662ZM669 455T640 505T559 583T441 612H266L162 88H364Q444 88 514 128T626 237T669 391Q669 455 640 505Z" />
<glyph unicode="E" glyph-name="E" horiz-adv-x="608" d="M477 708T532 696T620 665L574 589Q543 604 499 614T413 624Q360 624 316 608T247 562T221 498Q221 457 259 433T358 409H501L485 324H343Q285 324 237 307T161 258T132 186Q132 138 177 108T296 77Q343
77 403 91T506 126L529 50Q479 25 408 9T272 -7Q203 -7 148 14T62 75T31 165Q31 214 58 257T134 331T242 371Q192 384 162 420T132 503Q132 562 170 608T274 681T422 708Q477 708 532 696Z" />
<glyph unicode="F" glyph-name="F" horiz-adv-x="520" d="M329 617T283 579T224 478L202 370H479L463 283H185L128 0H32L130 487Q149 587 219 645T390 704Q446 704 500 692T594 659L558 577Q523 595 478 606T393 617Q329 617 283 579Z" />
<glyph unicode="G" glyph-name="G" horiz-adv-x="770" d="M623 353H708L638 0H564L576 62Q532 29 482 11T381 -7Q289 -7 215 36T99 154T57 321Q57 426 113 514T262 654T465 706Q538 706 605 680T720 609L657 539Q619 578 568 599T458 621Q378 621 308 582T197
474T155 327Q155 258 186 201T274 112T399 79Q449 79 498 100T584 157L623 353Z" />
<glyph unicode="H" glyph-name="H" horiz-adv-x="863" d="M719 700H815L675 0H579L639 301H238L178 0H82L222 700H318L256 388H657L719 700Z" />
<glyph unicode="I" glyph-name="I" horiz-adv-x="476" d="M494 612H355L251 88H387L370 0H0L17 88H155L259 612H124L140 700H510L494 612Z" />
<glyph unicode="J" glyph-name="J" horiz-adv-x="489" d="M492 700L373 108Q353 5 289 -49T129 -104Q68 -104 22 -78T-54 -2L4 67Q29 29 63 10T135 -10Q190 -10 228 24T279 119L378 612H132L149 700H492Z" />
<glyph unicode="K" glyph-name="K" horiz-adv-x="707" d="M760 700L423 392L635 0H521L344 319L176 165L143 0H47L187 700H283L205 312L637 700H760Z" />
<glyph unicode="L" glyph-name="L" horiz-adv-x="524" d="M161 88H465L449 0H47L187 700H283L161 88Z" />
<glyph unicode="M" glyph-name="M" horiz-adv-x="1202" d="M1059 700T1110 647T1161 507Q1161 483 1154 444L1065 0H968L1053 423Q1058 450 1058 470Q1058 532 1022 569T924 607Q868 607 817 577T729 496T681 384L604 0H507L592 423Q597 444 597 470Q597 532 561
569T463 607Q408 607 358 580T272 505T224 399L143 0H47L187 700H283L258 578Q305 635 371 667T513 700Q589 700 637 659T696 546Q743 617 816 658T974 700Q1059 700 1110 647Z" />
<glyph unicode="N" glyph-name="N" horiz-adv-x="774" d="M623 700T677 647T732 504Q732 476 726 444L637 0H540L625 423Q630 448 630 466Q630 530 590 568T482 607Q423 607 369 580T277 505T224 399L143 0H47L187 700H283L258 575Q307 633 378 666T532 700Q623
700 677 647Z" />
<glyph unicode="O" glyph-name="O" horiz-adv-x="817" d="M557 706T633 664T753 548T797 383Q797 278 742 188T593 46T391 -7Q296 -7 220 36T101 153T57 318Q57 424 112 513T261 654T462 706Q557 706 633 664ZM377 620T308 580T197 472T155 325Q155 257 187 201T276
113T400 80Q478 80 546 120T656 229T697 377Q697 445 665 500T578 588T455 620Q377 620 308 580Z" />
<glyph unicode="P" glyph-name="P" horiz-adv-x="684" d="M570 700T630 651T690 510Q690 422 650 356T536 254T361 218H187L143 0H47L187 700H457Q570 700 630 651ZM479 305T537 354T596 492Q596 551 555 581T437 612H265L204 305H374Q479 305 537 354Z" />
<glyph unicode="Q" glyph-name="Q" horiz-adv-x="817" d="M557 706T633 664T753 548T797 383Q797 282 746 195T607 54T417 -6L393 -128H310L335 -3Q254 9 191 54T92 167T57 317Q57 423 112 512T261 654T462 706Q557 706 633 664ZM697 445T665 500T578 588T455
620Q377 620 308 580T197 472T155 324Q155 264 180 214T250 129T352 84L386 259H468L434 82Q504 90 564 132T661 238T697 377Q697 445 665 500Z" />
<glyph unicode="R" glyph-name="R" horiz-adv-x="723" d="M698 408T645 337T495 236L609 0H499L405 219Q392 218 365 218H187L143 0H47L187 700H461Q575 700 636 650T698 510Q698 408 645 337ZM487 305T545 353T604 492Q604 551 563 581T444 612H265L204 305H381Q487
305 545 353Z" />
<glyph unicode="S" glyph-name="S" horiz-adv-x="609" d="M416 709T475 691T580 640L531 555Q486 586 435 601T339 616Q277 616 239 593T196 529Q192 492 211 469T261 431T345 400Q408 379 447 360T513 306T541 216Q541 200 540 191Q535 131 498 87T400 18T263
-7Q186 -7 116 23T-3 103L48 186Q93 138 153 112T273 85Q347 85 390 115T434 198Q434 231 414 253T364 288T282 317Q220 336 181 354T114 408T86 498Q86 561 119 608T214 682T354 709Q416 709 475 691Z" />
<glyph unicode="T" glyph-name="T" horiz-adv-x="641" d="M632 549Q546 600 436 609L314 0H218L339 609Q224 598 121 549L104 633Q174 667 251 685T404 704Q481 704 552 686T681 632L632 549Z" />
<glyph unicode="U" glyph-name="U" horiz-adv-x="774" d="M185 0T131 53T77 196Q77 225 83 256L172 700H269L183 277Q178 252 178 234Q178 170 218 132T327 93Q386 93 439 120T531 195T585 301L665 700H761L621 0H525L551 125Q501 67 430 34T277 0Q185 0 131 53Z" />
<glyph unicode="V" glyph-name="V" horiz-adv-x="676" d="M657 700H758L358 0H258L92 700H196L327 104L657 700Z" />
<glyph unicode="W" glyph-name="W" horiz-adv-x="1181" d="M1079 175T1035 117T926 26T783 -7Q699 -7 640 32T567 134Q528 70 454 32T295 -7Q195 -7 137 47T79 192Q79 221 85 251L172 700H269L181 251Q177 232 177 212Q177 151 216 116T325 80Q407 80 466 127T542
251L629 700H725L637 251Q633 234 633 213Q633 152 674 116T786 80Q865 80 923 127T997 251L1084 700H1180L1093 251Q1079 175 1035 117Z" />
<glyph unicode="X" glyph-name="X" horiz-adv-x="684" d="M701 700L408 364L605 0H490L335 283L86 0H-26L288 360L106 700H219L359 439L587 700H701Z" />
<glyph unicode="Y" glyph-name="Y" horiz-adv-x="738" d="M741 700L633 163Q618 84 571 24T453 -70T301 -104Q219 -104 147 -71T41 13L97 75Q125 34 180 9T294 -17Q354 -17 406 7T493 75T539 172L560 274Q515 219 455 189T326 157Q227 157 169 213T111 362Q111
391 117 422L172 700H268L213 422Q209 402 209 379Q209 318 245 282T347 246Q402 246 452 272T540 344T595 450L645 700H741Z" />
<glyph unicode="Z" glyph-name="Z" horiz-adv-x="674" d="M691 700L680 629L438 385H569L554 306H360L144 88H593L580 0H-1L10 71L247 310H119L134 390H327L547 612H114L128 700H691Z" />
<glyph unicode="[" glyph-name="bracketleft" horiz-adv-x="320" d="M393 742L379 666H253L109 -48H234L219 -124H10L184 742H393Z" />
<glyph unicode="\" glyph-name="backslash" horiz-adv-x="652" d="M89 819H170L545 -120H464L89 819Z" />
<glyph unicode="]" glyph-name="bracketright" horiz-adv-x="376" d="M29 -124L43 -48H169L313 666H188L203 742H412L238 -124H29Z" />
<glyph unicode="^" glyph-name="asciicircum" horiz-adv-x="525" d="M463 132H394L306 465L83 132H11L275 526H356L463 132Z" />
<glyph unicode="_" glyph-name="underscore" horiz-adv-x="560" d="M478 -146L466 -204H-94L-82 -146H478Z" />
<glyph unicode="`" glyph-name="grave" horiz-adv-x="308" d="M238 752L345 622L265 612L142 710L238 752Z" />
<glyph unicode="a" glyph-name="a" horiz-adv-x="703" d="M196 -5T146 25T67 108T39 232Q39 316 76 385T180 493T326 533Q400 533 450 499T521 403L547 529H641L563 145Q560 133 560 123Q560 86 595 86Q617 86 656 103L640 17Q606 0 566 0Q526 0 504 21T477 81L475
105Q434 52 380 24T262 -5Q196 -5 146 25ZM348 73T394 101T467 179T494 287Q494 361 451 406T337 451Q281 451 235 422T161 344T133 237Q133 164 177 119T293 73Q348 73 394 101Z" />
<glyph unicode="b" glyph-name="b" horiz-adv-x="684" d="M487 532T537 502T616 419T644 295Q644 211 607 142T503 34T357 -6Q283 -6 233 28T162 124L136 0H43L191 742H284L223 441Q260 484 311 508T421 532Q487 532 537 502ZM335 454T289 426T216 348T189 240Q189
166 232 121T346 76Q402 76 448 105T522 183T550 290Q550 363 506 408T390 454Q335 454 289 426Z" />
<glyph unicode="c" glyph-name="c" horiz-adv-x="582" d="M207 -3T153 27T70 112T40 237Q40 322 78 389T183 494T333 532Q399 532 450 512T534 452L477 388Q420 450 328 450Q273 450 229 424T159 350T133 244Q133 170 177 124T291 78Q342 78 385 94T458 144L505
89Q464 45 407 21T278 -3Q207 -3 153 27Z" />
<glyph unicode="d" glyph-name="d" horiz-adv-x="703" d="M562 141Q559 129 559 118Q559 82 594 82Q616 82 655 99L639 13Q599 -4 565 -4Q526 -4 503 17T475 77V96Q429 46 374 21T262 -5Q200 -5 149 23T69 106T39 232Q39 316 76 385T180 493T326 533Q400 533 450
499T521 403L589 742H682L562 141ZM494 361T451 406T337 451Q281 451 235 422T161 344T133 237Q133 164 177 119T293 73Q348 73 394 101T467 179T494 287Q494 361 451 406Z" />
<glyph unicode="e" glyph-name="e" horiz-adv-x="585" d="M396 73T470 154L522 104Q425 -3 287 -3Q214 -3 158 27T72 111T41 235Q41 319 78 387T183 493T336 532Q437 532 496 474T556 315L143 185Q158 133 199 103T300 73Q396 73 470 154ZM245 455T192 402T135
256L468 361Q453 408 418 431T330 455Q245 455 192 402Z" />
<glyph unicode="f" glyph-name="f" horiz-adv-x="312" d="M305 665T274 641T235 576L222 511H367L354 440H208L120 0H27L141 573Q158 657 216 702T345 748Q398 748 437 723L408 648Q394 656 376 660T343 665Q305 665 274 641Z" />
<glyph unicode="g" glyph-name="g" horiz-adv-x="640" d="M154 -196T101 -178T-2 -120L43 -57Q115 -118 213 -118Q296 -118 348 -82T417 23L437 111Q402 70 354 49T252 27Q190 27 143 55T69 133T42 250Q42 328 78 393T176 495T313 533Q383 533 430 503T496 414L520
529H613L509 17Q487 -87 412 -141T216 -196Q154 -196 101 -178ZM335 104T378 130T446 202T471 301Q471 368 431 409T324 451Q273 451 230 425T162 353T136 254Q136 187 177 146T284 104Q335 104 378 130Z" />
<glyph unicode="h" glyph-name="h" horiz-adv-x="667" d="M507 535T557 490T608 367Q608 341 602 312L539 0H445L505 301Q509 318 509 338Q509 390 477 420T385 450Q315 450 264 405T196 284L139 0H45L191 742H286L226 440Q292 533 417 535Q507 535 557 490Z" />
<glyph unicode="i" glyph-name="i" horiz-adv-x="274" d="M236 529L131 0H38L143 529H236ZM253 740T266 727T279 691Q279 662 258 641T208 620Q187 620 174 634T161 670Q161 699 182 719T231 740Q253 740 266 727Z" />
<glyph unicode="j" glyph-name="j" horiz-adv-x="270" d="M-101 -116T-73 -118Q-33 -119 -6 -90T32 -8L140 529H234L122 -30Q106 -112 60 -154T-56 -197Q-101 -197 -142 -179L-114 -110Q-101 -116 -73 -118ZM246 740T259 727T272 691Q272 662 251 641T201 620Q180
620 167 634T154 670Q154 699 175 719T224 740Q246 740 259 727Z" />
<glyph unicode="k" glyph-name="k" horiz-adv-x="597" d="M620 529L371 316L526 0H413L298 252L165 138L137 0H43L191 742H285L191 271L497 529H620Z" />
<glyph unicode="l" glyph-name="l" horiz-adv-x="300" d="M270 742L149 142Q147 133 147 119Q147 99 155 91T182 82Q207 82 243 103L249 24Q197 -4 153 -4Q107 -4 80 23T53 99Q53 120 57 139L177 742H270Z" />
<glyph unicode="m" glyph-name="m" horiz-adv-x="1084" d="M925 535T975 491T1025 368Q1025 342 1019 312L957 0H863L922 301Q926 318 926 339Q926 391 894 420T803 450Q736 450 685 408T616 296L557 0H463L522 301Q526 318 526 339Q526 391 494 420T403 450Q332
450 281 404T212 281L157 0H63L141 388Q143 396 143 411Q143 447 109 447Q87 447 48 430L64 516Q102 533 138 533Q177 533 200 512T228 452L229 417Q299 533 435 535Q513 535 561 502T621 407Q697 533 835 535Q925 535 975 491Z" />
<glyph unicode="n" glyph-name="n" horiz-adv-x="684" d="M141 388Q143 396 143 411Q143 447 109 447Q87 447 48 430L64 516Q102 533 138 533Q177 533 200 512T228 452L229 417Q299 533 435 535Q525 535 575 491T625 368Q625 342 619 312L557 0H463L522 301Q526
318 526 339Q526 391 494 420T403 450Q332 450 281 404T212 281L157 0H63L141 388Z" />
<glyph unicode="o" glyph-name="o" horiz-adv-x="627" d="M413 532T469 502T556 416T587 291Q587 206 548 139T440 35T286 -3Q212 -3 157 27T71 113T40 239Q40 323 79 390T186 494T340 532Q413 532 469 502ZM276 451T231 425T160 351T134 243Q134 168 178 122T294
76Q350 76 394 102T465 176T491 284Q491 358 448 404T332 451Q276 451 231 425Z" />
<glyph unicode="p" glyph-name="p" horiz-adv-x="683" d="M121 388Q124 400 124 411Q124 447 89 447Q67 447 28 430L44 515Q86 533 118 533Q157 533 180 512T208 451V432Q254 483 308 508T421 534Q483 534 534 505T614 422T644 296Q644 213 607 144T503 35T357
-5Q283 -5 233 29T162 125L97 -194H4L121 388ZM189 168T232 123T346 78Q402 78 448 107T522 185T550 292Q550 365 506 410T390 456Q335 456 289 428T216 350T189 242Q189 168 232 123Z" />
<glyph unicode="q" glyph-name="q" horiz-adv-x="683" d="M196 -5T146 25T67 108T39 232Q39 316 76 385T180 493T326 533Q400 533 450 499T521 403L547 529H640L496 -194H403L460 86Q423 43 372 19T262 -5Q196 -5 146 25ZM348 73T394 101T467 179T494 287Q494
361 451 406T337 451Q281 451 235 422T161 344T133 237Q133 164 177 119T293 73Q348 73 394 101Z" />
<glyph unicode="r" glyph-name="r" horiz-adv-x="384" d="M288 530T422 532L410 442Q330 445 270 398T186 273L132 0H38L143 529H237L215 420Q288 530 422 532Z" />
<glyph unicode="s" glyph-name="s" horiz-adv-x="473" d="M151 -6T87 21T-11 93L32 156Q63 119 115 95T217 71Q262 71 291 91T320 146Q320 177 295 195T218 233Q171 252 143 268T95 311T75 380Q75 449 127 491T263 534Q320 534 374 515T464 463L418 398Q384 424
341 440T261 457Q220 457 194 438T167 388Q167 360 192 343T267 306Q313 287 343 271T394 226T415 155Q415 108 390 72T321 15T219 -6Q151 -6 87 21Z" />
<glyph unicode="t" glyph-name="t" horiz-adv-x="364" d="M154 184Q149 156 149 140Q149 82 199 82Q236 82 285 107L296 35Q227 -4 167 -4Q114 -4 83 26T52 115Q52 139 58 167L155 653H248L220 511H383L368 440H205L154 184Z" />
<glyph unicode="u" glyph-name="u" horiz-adv-x="684" d="M543 141Q541 133 541 118Q541 82 575 82Q597 82 636 99L620 13Q582 -4 546 -4Q507 -4 484 17T456 77L455 112Q385 -4 249 -6Q159 -6 109 38T59 161Q59 187 65 217L127 529H221L162 228Q158 211 158 190Q158
138 190 109T281 79Q352 79 403 125T472 248L527 529H621L543 141Z" />
<glyph unicode="v" glyph-name="v" horiz-adv-x="510" d="M566 529L255 0H158L56 529H153L223 92L470 529H566Z" />
<glyph unicode="w" glyph-name="w" horiz-adv-x="968" d="M886 214Q866 116 796 56T630 -4Q564 -4 516 28T455 114Q422 60 362 28T234 -4Q151 -4 104 40T57 162Q57 192 62 214L126 529H220L157 218Q154 202 154 185Q154 138 183 112T264 85Q327 85 371 121T428
218L491 529H585L522 218Q519 202 519 186Q519 139 549 112T633 85Q693 85 737 121T793 218L855 529H949L886 214Z" />
<glyph unicode="x" glyph-name="x" horiz-adv-x="540" d="M192 529L282 335L455 529H560L334 271L466 0H359L263 208L72 0H-35L210 271L85 529H192Z" />
<glyph unicode="y" glyph-name="y" horiz-adv-x="647" d="M620 529L526 53Q502 -64 422 -130T224 -197Q163 -197 107 -173T15 -110L55 -46Q129 -114 224 -114Q303 -114 360 -67T435 63L452 147Q378 46 235 44Q155 44 111 85T67 199Q67 226 73 254L127 529H221L169
270Q165 251 165 231Q165 184 193 159T275 133Q353 134 408 183T485 316L527 529H620Z" />
<glyph unicode="z" glyph-name="z" horiz-adv-x="531" d="M536 528L524 462L359 302H451L437 227H282L127 77H453L438 -1L-3 0L9 66L179 231H81L95 307H257L405 451L97 452L111 529L536 528Z" />
<glyph unicode="{" glyph-name="braceleft" horiz-adv-x="340" d="M232 363T213 339T159 308Q184 300 195 286T206 246Q206 231 201 206L164 23Q162 7 162 2Q162 -26 182 -38T247 -50L232 -126H198Q131 -126 101 -107T70 -42Q70 -23 74 -4L118 212Q121 224 121
234Q121 270 83 270H54L69 347H98Q122 347 135 361T156 405L200 621Q213 686 253 714T372 743H406L391 667Q338 667 312 651T279 594L241 410Q232 363 213 339Z" />
<glyph unicode="|" glyph-name="bar" horiz-adv-x="259" d="M276 813L89 -119H16L203 813H276Z" />
<glyph unicode="}" glyph-name="braceright" horiz-adv-x="439" d="M225 255T244 279T298 310Q273 318 262 332T251 372Q251 387 256 412L293 595Q295 611 295 616Q295 644 275 656T210 668L225 744H259Q326 744 356 725T387 660Q387 641 383 622L339 406Q336
394 336 384Q336 348 374 348H403L388 271H359Q335 271 322 257T301 213L257 -3Q244 -68 204 -96T85 -125H51L66 -49Q119 -49 145 -33T178 24L216 208Q225 255 244 279Z" />
<glyph unicode="~" glyph-name="asciitilde" horiz-adv-x="495" d="M203 389T221 381T267 355Q285 342 298 336T326 329Q347 329 362 343T382 382H448Q424 255 333 255Q308 255 288 264T244 290Q225 303 213 309T188 315Q168 315 155 302T137 263H70Q94 389 181
389Q203 389 221 381Z" />
<glyph unicode="&#xa0;" glyph-name="uni00A0" horiz-adv-x="262" />
<glyph unicode="&#xa1;" glyph-name="exclamdown" horiz-adv-x="209" d="M132 422T118 436T104 474Q104 500 121 518T164 537Q186 537 199 522T213 484Q213 458 196 440T154 422Q132 422 118 436ZM-11 -162L23 9L98 313H159L112 9L78 -162H-11Z" />
<glyph unicode="&#xa2;" glyph-name="cent" horiz-adv-x="582" d="M342 78T385 94T458 144L505 89Q465 45 409 22T283 -3L256 -140H184L213 4Q133 24 87 86T40 237Q40 319 76 385T175 489T317 532L344 677H417L389 528Q482 513 534 452L477 388Q420 450 328 450Q273
450 229 424T159 350T133 244Q133 170 177 124T291 78Q342 78 385 94Z" />
<glyph unicode="&#xa3;" glyph-name="sterling" horiz-adv-x="544" d="M473 704T518 680T592 612L538 538Q489 617 411 617Q354 617 317 584T266 485L244 377H423L413 323H234L185 79H472L457 0H-12L2 79H89L138 323H52L62 377H149L171 487Q191 591 255 647T417
704Q473 704 518 680Z" />
<glyph unicode="&#xa4;" glyph-name="currency" horiz-adv-x="820" d="M693 275T678 234T636 158L739 55L684 -2L579 104Q508 55 420 55Q332 55 263 105L156 -2L102 55L205 159Q178 193 164 234T149 319Q149 407 203 478L102 580L156 637L260 533Q332 584 420
584Q509 584 581 533L684 637L739 580L638 479Q693 406 693 319Q693 275 678 234ZM473 134T518 159T591 226T618 319Q618 369 591 412T519 480T420 505Q367 505 323 480T252 412T225 319Q225 269 251 227T322 159T420 134Q473 134 518 159Z" />
<glyph unicode="&#xa5;" glyph-name="yen" horiz-adv-x="623" d="M714 700L417 294H585L575 241H379L376 238L366 176H563L553 122H358L338 0H242L262 122H66L76 176H270L281 241H88L98 294H265L98 700H196L349 347L616 700H714Z" />
<glyph unicode="&#xa6;" glyph-name="brokenbar" horiz-adv-x="259" d="M276 813L207 466H134L203 813H276ZM159 229L89 -119H16L86 229H159Z" />
<glyph unicode="&#xa7;" glyph-name="section" horiz-adv-x="491" d="M137 -81T75 -55T-27 17L15 72Q53 31 101 9T200 -14Q249 -14 281 8T313 63Q313 94 286 113T202 158Q156 178 127 195T77 238T56 302Q56 359 97 395T213 438Q165 463 144 487T122 543Q122 608
173 648T307 688Q362 688 413 670T506 619L465 563Q428 591 387 606T307 621Q261 621 233 602T205 550Q205 519 232 500T316 456Q363 436 393 419T444 376T465 311Q465 259 425 218T325 168Q364 148 381 125T399 70Q399 26 375 -8T306 -62T205 -81Q137 -81 75 -55ZM324
223T351 244T379 301Q379 338 341 361T242 384Q195 384 168 365T141 313Q141 276 181 250T278 223Q324 223 351 244Z" />
<glyph unicode="&#xa8;" glyph-name="dieresis" horiz-adv-x="476" d="M265 734T277 721T289 688Q289 663 270 644T225 624Q206 624 194 637T181 670Q181 697 200 715T246 734Q265 734 277 721ZM437 734T448 722T460 688Q460 663 441 644T397 624Q378 624 366
637T353 670Q353 697 372 715T418 734Q437 734 448 722Z" />
<glyph unicode="&#xa9;" glyph-name="copyright" horiz-adv-x="765" d="M493 689T570 644T693 520T738 350Q738 259 693 181T570 56T398 9Q305 9 228 55T106 179T61 348Q61 439 106 517T228 642T400 689Q493 689 570 644ZM319 638T253 599T148 493T110 348Q110
270 148 204T252 99T398 60Q479 60 545 99T650 205T689 350Q689 429 651 495T547 599T400 638Q319 638 253 599ZM441 523T475 509T535 470L505 435Q484 455 459 466T406 477Q351 477 313 440T274 350Q274 296 312 259T406 221Q432 221 458 232T505 262L535 229Q508
203 474 189T403 174Q353 174 312 197T247 261T223 349Q223 397 247 437T313 500T405 523Q441 523 475 509Z" />
<glyph unicode="&#xaa;" glyph-name="ordfeminine" horiz-adv-x="383" d="M348 773T379 751T410 686Q410 671 408 663L367 458H301L311 510Q268 456 191 456Q148 456 121 478T93 536Q93 543 95 555Q112 637 233 637H335L339 656Q341 666 341 671Q341 720 265 720Q219
720 158 688L149 735Q228 773 289 773Q348 773 379 751ZM282 502T320 556L328 601H239Q200 601 179 586T158 544Q158 524 172 513T213 502Q282 502 320 556Z" />
<glyph unicode="&#xab;" glyph-name="guillemotleft" horiz-adv-x="440" d="M257 427L114 254L191 88H111L30 257L177 427H257ZM422 427L279 254L356 88H276L195 257L342 427H422Z" />
<glyph unicode="&#xac;" glyph-name="logicalnot" horiz-adv-x="566" d="M502 394L489 328L453 148H383L418 328H50L62 394H502Z" />
<glyph unicode="&#xad;" glyph-name="uni00AD" horiz-adv-x="366" d="M317 337L304 270H64L78 337H317Z" />
<glyph unicode="&#xae;" glyph-name="registered" horiz-adv-x="765" d="M493 689T570 644T693 520T738 350Q738 259 693 181T570 56T398 9Q305 9 228 55T106 179T61 348Q61 439 106 517T228 642T400 689Q493 689 570 644ZM479 60T545 99T650 205T689 350Q689
429 651 495T547 599T400 638Q319 638 253 599T148 493T110 348Q110 270 148 204T252 99T398 60Q479 60 545 99ZM545 373T526 344T470 302L551 185H494L425 293Q419 292 406 292H320V185H271V531H406Q473 531 509 501T545 414Q545 373 526 344ZM406 334Q450 334
474 355T498 414Q498 451 474 470T406 490H320V334H406Z" />
<glyph unicode="&#xaf;" glyph-name="overscore" horiz-adv-x="475" d="M183 710H469L458 648H171L183 710Z" />
<glyph unicode="&#xb0;" glyph-name="degree" horiz-adv-x="341" d="M330 807T364 773T399 693Q399 647 365 614T283 580Q236 580 202 613T168 693Q168 739 202 773T283 807Q330 807 364 773ZM253 763T232 743T210 693Q210 665 231 645T283 624Q313 624 335 644T357
693Q357 721 335 742T283 763Q253 763 232 743Z" />
<glyph unicode="&#xb1;" glyph-name="plusminus" horiz-adv-x="560" d="M197 178L233 353H53L66 419H246L282 593H344L309 419H488L475 353H295L260 178H197ZM67 94H489L476 27H54L67 94Z" />
<glyph unicode="&#xb2;" glyph-name="uni00B2" horiz-adv-x="385" d="M160 416H378L368 360H68L73 410L262 574Q330 633 330 672Q330 694 314 705T266 717Q213 717 142 665L119 718Q157 747 199 762T281 777Q336 777 368 751T400 680Q400 616 299 531L160 416Z" />
<glyph unicode="&#xb3;" glyph-name="uni00B3" horiz-adv-x="377" d="M403 730L257 601L277 599Q323 595 348 569T374 502Q374 461 351 428T288 375T198 355Q160 355 123 367T59 402L93 452Q138 410 198 410Q245 410 276 435T308 500Q308 527 289 541T231 555H168L175
597L314 720H142L151 772H410L403 730Z" />
<glyph unicode="&#xb4;" glyph-name="acute" horiz-adv-x="340" d="M249 752L345 710L222 612L142 622L249 752Z" />
<glyph unicode="&#xb5;" glyph-name="uni00B5" horiz-adv-x="682" d="M643 529L539 0H444L462 89Q395 -6 271 -6Q193 -6 144 28L100 -194H6L82 189Q84 207 86 217L149 529H243L181 214Q179 198 179 190Q179 137 212 108T303 78Q373 79 424 124T492 244L549 529H643Z" />
<glyph unicode="&#xb6;" glyph-name="paragraph" d="M427 -110H354L513 682H370L212 -110H140L237 371Q225 370 204 370Q123 370 89 410T54 510Q54 535 58 552Q75 632 140 687T315 742H597L427 -110Z" />
<glyph unicode="&#xb7;" glyph-name="middot" horiz-adv-x="217" d="M194 342T207 329T220 293Q220 264 199 243T149 222Q128 222 115 236T102 272Q102 301 123 321T172 342Q194 342 207 329Z" />
<glyph unicode="&#xb8;" glyph-name="cedilla" horiz-adv-x="352" d="M167 0L138 -51Q172 -56 188 -74T205 -117Q205 -163 168 -190T75 -217Q25 -217 -15 -196L18 -134Q44 -148 74 -148Q97 -148 112 -138T127 -114Q127 -103 115 -96T81 -88H51L99 8L167 0Z" />
<glyph unicode="&#xb9;" glyph-name="uni00B9" horiz-adv-x="262" d="M123 772H277L195 360H125L196 715H112L123 772Z" />
<glyph unicode="&#xba;" glyph-name="ordmasculine" horiz-adv-x="408" d="M359 773T401 734T444 630Q444 580 420 540T354 478T259 456Q189 456 147 495T104 598Q104 649 128 688T194 750T289 773Q359 773 401 734ZM237 717T205 685T173 601Q173 560 198 535T264
510Q312 510 343 542T375 625Q375 666 350 691T285 717Q237 717 205 685Z" />
<glyph unicode="&#xbb;" glyph-name="guillemotright" horiz-adv-x="449" d="M42 88L185 261L108 427H188L269 258L122 88H42ZM207 88L350 261L273 427H353L434 258L287 88H207Z" />
<glyph unicode="&#xbc;" glyph-name="onequarter" horiz-adv-x="808" d="M109 700H263L181 288H111L182 643H98L109 700ZM129 0H59L579 700H648L129 0ZM759 154L749 102H686L666 0H601L621 102H418L427 154L626 412H695L500 154H633L654 261H719L698 154H759Z" />
<glyph unicode="&#xbd;" glyph-name="onehalf" horiz-adv-x="806" d="M109 700H263L181 288H111L182 643H98L109 700ZM129 0H59L579 700H648L129 0ZM508 56H726L716 0H416L421 50L610 214Q678 273 678 312Q678 334 662 345T614 357Q561 357 490 305L467 358Q505
387 547 402T629 417Q684 417 716 391T748 320Q748 256 647 171L508 56Z" />
<glyph unicode="&#xbe;" glyph-name="threequarters" horiz-adv-x="922" d="M389 658L243 529L263 527Q309 523 334 497T360 430Q360 389 337 356T274 303T184 283Q146 283 109 295T45 330L79 380Q124 338 184 338Q231 338 262 363T294 428Q294 455 275 469T217
483H154L161 525L300 648H128L137 700H396L389 658ZM244 0H174L694 700H763L244 0ZM874 154L864 102H801L781 0H716L736 102H533L542 154L741 412H810L615 154H748L769 261H834L813 154H874Z" />
<glyph unicode="&#xbf;" glyph-name="questiondown" horiz-adv-x="433" d="M193 422T179 436T165 474Q165 500 182 518T225 537Q247 537 260 522T274 484Q274 458 257 440T215 422Q193 422 179 436ZM366 -65T308 -114T161 -164Q79 -164 31 -122T-18 -9Q-18 30
-4 61T30 116T85 173Q127 213 148 241T172 305H245Q240 251 216 215T147 136Q107 96 89 69T70 2Q70 -40 96 -61T172 -83Q286 -83 304 24L378 23Q366 -65 308 -114Z" />
<glyph unicode="&#xc0;" glyph-name="Agrave" horiz-adv-x="767" d="M587 703T651 645T716 483Q716 446 709 410L630 0H533L571 196H169L131 0H35L115 410Q141 547 235 625T468 703Q587 703 651 645ZM619 439T619 464Q619 537 576 577T453 617Q358 617 294 562T211
410L186 283H588L613 410Q619 439 619 464ZM445 902L552 772L472 762L349 860L445 902Z" />
<glyph unicode="&#xc1;" glyph-name="Aacute" horiz-adv-x="767" d="M587 703T651 645T716 483Q716 446 709 410L630 0H533L571 196H169L131 0H35L115 410Q141 547 235 625T468 703Q587 703 651 645ZM619 439T619 464Q619 537 576 577T453 617Q358 617 294 562T211
410L186 283H588L613 410Q619 439 619 464ZM541 902L637 860L514 762L434 772L541 902Z" />
<glyph unicode="&#xc2;" glyph-name="Acircumflex" horiz-adv-x="767" d="M587 703T651 645T716 483Q716 446 709 410L630 0H533L571 196H169L131 0H35L115 410Q141 547 235 625T468 703Q587 703 651 645ZM619 439T619 464Q619 537 576 577T453 617Q358 617 294
562T211 410L186 283H588L613 410Q619 439 619 464ZM639 767H546L498 834L424 767H331L462 900H559L639 767Z" />
<glyph unicode="&#xc3;" glyph-name="Atilde" horiz-adv-x="767" d="M587 703T651 645T716 483Q716 446 709 410L630 0H533L571 196H169L131 0H35L115 410Q141 547 235 625T468 703Q587 703 651 645ZM619 439T619 464Q619 537 576 577T453 617Q358 617 294 562T211
410L186 283H588L613 410Q619 439 619 464ZM651 829T626 795T557 761Q536 761 520 769T481 793Q465 804 456 809T437 814Q404 814 395 765H330Q340 818 365 852T433 887Q454 887 470 879T510 856Q526 845 535 840T554 835Q572 835 582 848T596 883H661Q651 829
626 795Z" />
<glyph unicode="&#xc4;" glyph-name="Adieresis" horiz-adv-x="767" d="M587 703T651 645T716 483Q716 446 709 410L630 0H533L571 196H169L131 0H35L115 410Q141 547 235 625T468 703Q587 703 651 645ZM619 439T619 464Q619 537 576 577T453 617Q358 617 294
562T211 410L186 283H588L613 410Q619 439 619 464ZM439 872T451 859T463 826Q463 801 444 782T399 762Q380 762 368 775T355 808Q355 835 374 853T420 872Q439 872 451 859ZM611 872T622 860T634 826Q634 801 615 782T571 762Q552 762 540 775T527 808Q527 835
546 853T592 872Q611 872 622 860Z" />
<glyph unicode="&#xc5;" glyph-name="Aring" horiz-adv-x="767" d="M587 703T651 645T716 483Q716 446 709 410L630 0H533L571 196H169L131 0H35L115 410Q141 547 235 625T468 703Q587 703 651 645ZM619 439T619 464Q619 537 576 577T453 617Q358 617 294 562T211
410L186 283H588L613 410Q619 439 619 464ZM553 959T579 932T606 865Q606 834 590 807T546 764T487 748Q446 748 420 774T393 840Q393 871 409 898T453 942T512 959Q553 959 579 932ZM482 906T464 888T445 847Q445 827 458 814T493 801Q517 801 536 818T555 859Q555
879 541 892T506 906Q482 906 464 888Z" />
<glyph unicode="&#xc6;" glyph-name="AE" horiz-adv-x="1037" d="M1040 612H650L606 397H955L938 310H589L543 88H946L929 0H431L468 184H195L53 0H-50L500 700H1057L1040 612ZM483 261L555 620H533L255 261H483Z" />
<glyph unicode="&#xc7;" glyph-name="Ccedilla" horiz-adv-x="726" d="M606 55T538 26T401 -7L376 -51Q410 -56 426 -74T443 -117Q443 -163 406 -190T313 -217Q263 -217 223 -196L256 -134Q282 -148 312 -148Q335 -148 350 -138T365 -114Q365 -103 353 -96T319
-88H289L331 -3Q251 9 189 54T92 167T57 317Q57 423 112 512T259 654T460 706Q533 706 598 679T710 601L646 532Q610 574 560 597T454 621Q374 621 306 581T196 473T155 325Q155 258 187 203T274 115T399 83Q454 83 509 105T609 167L661 104Q606 55 538 26Z" />
<glyph unicode="&#xc8;" glyph-name="Egrave" horiz-adv-x="608" d="M477 708T532 696T620 665L574 589Q543 604 499 614T413 624Q360 624 316 608T247 562T221 498Q221 457 259 433T358 409H501L485 324H343Q285 324 237 307T161 258T132 186Q132 138 177 108T296
77Q343 77 403 91T506 126L529 50Q479 25 408 9T272 -7Q203 -7 148 14T62 75T31 165Q31 214 58 257T134 331T242 371Q192 384 162 420T132 503Q132 562 170 608T274 681T422 708Q477 708 532 696ZM390 902L497 772L417 762L294 860L390 902Z" />
<glyph unicode="&#xc9;" glyph-name="Eacute" horiz-adv-x="608" d="M477 708T532 696T620 665L574 589Q543 604 499 614T413 624Q360 624 316 608T247 562T221 498Q221 457 259 433T358 409H501L485 324H343Q285 324 237 307T161 258T132 186Q132 138 177 108T296
77Q343 77 403 91T506 126L529 50Q479 25 408 9T272 -7Q203 -7 148 14T62 75T31 165Q31 214 58 257T134 331T242 371Q192 384 162 420T132 503Q132 562 170 608T274 681T422 708Q477 708 532 696ZM486 902L582 860L459 762L379 772L486 902Z" />
<glyph unicode="&#xca;" glyph-name="Ecircumflex" horiz-adv-x="608" d="M477 708T532 696T620 665L574 589Q543 604 499 614T413 624Q360 624 316 608T247 562T221 498Q221 457 259 433T358 409H501L485 324H343Q285 324 237 307T161 258T132 186Q132 138 177
108T296 77Q343 77 403 91T506 126L529 50Q479 25 408 9T272 -7Q203 -7 148 14T62 75T31 165Q31 214 58 257T134 331T242 371Q192 384 162 420T132 503Q132 562 170 608T274 681T422 708Q477 708 532 696ZM584 767H491L443 834L369 767H276L407 900H504L584 767Z"
/>
<glyph unicode="&#xcb;" glyph-name="Edieresis" horiz-adv-x="608" d="M477 708T532 696T620 665L574 589Q543 604 499 614T413 624Q360 624 316 608T247 562T221 498Q221 457 259 433T358 409H501L485 324H343Q285 324 237 307T161 258T132 186Q132 138 177
108T296 77Q343 77 403 91T506 126L529 50Q479 25 408 9T272 -7Q203 -7 148 14T62 75T31 165Q31 214 58 257T134 331T242 371Q192 384 162 420T132 503Q132 562 170 608T274 681T422 708Q477 708 532 696ZM384 872T396 859T408 826Q408 801 389 782T344 762Q325
762 313 775T300 808Q300 835 319 853T365 872Q384 872 396 859ZM556 872T567 860T579 826Q579 801 560 782T516 762Q497 762 485 775T472 808Q472 835 491 853T537 872Q556 872 567 860Z" />
<glyph unicode="&#xcc;" glyph-name="Igrave" horiz-adv-x="476" d="M494 612H355L251 88H387L370 0H0L17 88H155L259 612H124L140 700H510L494 612ZM298 902L405 772L325 762L202 860L298 902Z" />
<glyph unicode="&#xcd;" glyph-name="Iacute" horiz-adv-x="476" d="M494 612H355L251 88H387L370 0H0L17 88H155L259 612H124L140 700H510L494 612ZM394 902L490 860L367 762L287 772L394 902Z" />
<glyph unicode="&#xce;" glyph-name="Icircumflex" horiz-adv-x="476" d="M494 612H355L251 88H387L370 0H0L17 88H155L259 612H124L140 700H510L494 612ZM492 767H399L351 834L277 767H184L315 900H412L492 767Z" />
<glyph unicode="&#xcf;" glyph-name="Idieresis" horiz-adv-x="476" d="M494 612H355L251 88H387L370 0H0L17 88H155L259 612H124L140 700H510L494 612ZM292 872T304 859T316 826Q316 801 297 782T252 762Q233 762 221 775T208 808Q208 835 227 853T273 872Q292
872 304 859ZM464 872T475 860T487 826Q487 801 468 782T424 762Q405 762 393 775T380 808Q380 835 399 853T445 872Q464 872 475 860Z" />
<glyph unicode="&#xd0;" glyph-name="Eth" horiz-adv-x="785" d="M547 700T618 662T728 556T767 403Q767 292 710 200T556 54T346 0H48L112 321H38L49 379H123L187 700H455Q547 700 618 662ZM669 455T640 505T559 583T441 612H266L220 379H415L404 321H208L162
88H364Q444 88 514 128T626 237T669 391Q669 455 640 505Z" />
<glyph unicode="&#xd1;" glyph-name="Ntilde" horiz-adv-x="774" d="M623 700T677 647T732 504Q732 476 726 444L637 0H540L625 423Q630 448 630 466Q630 530 590 568T482 607Q423 607 369 580T277 505T224 399L143 0H47L187 700H283L258 575Q307 633 378 666T532
700Q623 700 677 647ZM654 829T629 795T560 761Q539 761 523 769T484 793Q468 804 459 809T440 814Q407 814 398 765H333Q343 818 368 852T436 887Q457 887 473 879T513 856Q529 845 538 840T557 835Q575 835 585 848T599 883H664Q654 829 629 795Z" />
<glyph unicode="&#xd2;" glyph-name="Ograve" horiz-adv-x="817" d="M557 706T633 664T753 548T797 383Q797 278 742 188T593 46T391 -7Q296 -7 220 36T101 153T57 318Q57 424 112 513T261 654T462 706Q557 706 633 664ZM377 620T308 580T197 472T155 325Q155
257 187 201T276 113T400 80Q478 80 546 120T656 229T697 377Q697 445 665 500T578 588T455 620Q377 620 308 580ZM434 902L541 772L461 762L338 860L434 902Z" />
<glyph unicode="&#xd3;" glyph-name="Oacute" horiz-adv-x="817" d="M557 706T633 664T753 548T797 383Q797 278 742 188T593 46T391 -7Q296 -7 220 36T101 153T57 318Q57 424 112 513T261 654T462 706Q557 706 633 664ZM377 620T308 580T197 472T155 325Q155
257 187 201T276 113T400 80Q478 80 546 120T656 229T697 377Q697 445 665 500T578 588T455 620Q377 620 308 580ZM530 902L626 860L503 762L423 772L530 902Z" />
<glyph unicode="&#xd4;" glyph-name="Ocircumflex" horiz-adv-x="817" d="M557 706T633 664T753 548T797 383Q797 278 742 188T593 46T391 -7Q296 -7 220 36T101 153T57 318Q57 424 112 513T261 654T462 706Q557 706 633 664ZM377 620T308 580T197 472T155 325Q155
257 187 201T276 113T400 80Q478 80 546 120T656 229T697 377Q697 445 665 500T578 588T455 620Q377 620 308 580ZM628 767H535L487 834L413 767H320L451 900H548L628 767Z" />
<glyph unicode="&#xd5;" glyph-name="Otilde" horiz-adv-x="817" d="M557 706T633 664T753 548T797 383Q797 278 742 188T593 46T391 -7Q296 -7 220 36T101 153T57 318Q57 424 112 513T261 654T462 706Q557 706 633 664ZM377 620T308 580T197 472T155 325Q155
257 187 201T276 113T400 80Q478 80 546 120T656 229T697 377Q697 445 665 500T578 588T455 620Q377 620 308 580ZM640 829T615 795T546 761Q525 761 509 769T470 793Q454 804 445 809T426 814Q393 814 384 765H319Q329 818 354 852T422 887Q443 887 459 879T499
856Q515 845 524 840T543 835Q561 835 571 848T585 883H650Q640 829 615 795Z" />
<glyph unicode="&#xd6;" glyph-name="Odieresis" horiz-adv-x="817" d="M557 706T633 664T753 548T797 383Q797 278 742 188T593 46T391 -7Q296 -7 220 36T101 153T57 318Q57 424 112 513T261 654T462 706Q557 706 633 664ZM377 620T308 580T197 472T155 325Q155
257 187 201T276 113T400 80Q478 80 546 120T656 229T697 377Q697 445 665 500T578 588T455 620Q377 620 308 580ZM428 872T440 859T452 826Q452 801 433 782T388 762Q369 762 357 775T344 808Q344 835 363 853T409 872Q428 872 440 859ZM600 872T611 860T623 826Q623
801 604 782T560 762Q541 762 529 775T516 808Q516 835 535 853T581 872Q600 872 611 860Z" />
<glyph unicode="&#xd7;" glyph-name="multiply" horiz-adv-x="545" d="M455 449L330 324L455 198L411 151L284 278L157 151L113 198L239 324L113 449L157 496L284 369L411 496L455 449Z" />
<glyph unicode="&#xd8;" glyph-name="Oslash" horiz-adv-x="817" d="M730 596T763 529T797 382Q797 277 742 188T593 46T391 -7Q296 -7 219 37L150 -55H68L165 75Q114 120 86 183T57 319Q57 424 112 513T261 654T462 706Q544 706 613 674L673 755H756L670 640Q730
596 763 529ZM155 275T173 231T223 153L556 599Q508 620 455 620Q377 620 308 580T197 472T155 325Q155 275 173 231ZM697 432T675 481T613 564L275 113Q333 80 400 80Q478 80 546 120T656 228T697 376Q697 432 675 481Z" />
<glyph unicode="&#xd9;" glyph-name="Ugrave" horiz-adv-x="774" d="M185 0T131 53T77 196Q77 225 83 256L172 700H269L183 277Q178 252 178 234Q178 170 218 132T327 93Q386 93 439 120T531 195T585 301L665 700H761L621 0H525L551 125Q501 67 430 34T277 0Q185
0 131 53ZM448 902L555 772L475 762L352 860L448 902Z" />
<glyph unicode="&#xda;" glyph-name="Uacute" horiz-adv-x="774" d="M185 0T131 53T77 196Q77 225 83 256L172 700H269L183 277Q178 252 178 234Q178 170 218 132T327 93Q386 93 439 120T531 195T585 301L665 700H761L621 0H525L551 125Q501 67 430 34T277 0Q185
0 131 53ZM544 902L640 860L517 762L437 772L544 902Z" />
<glyph unicode="&#xdb;" glyph-name="Ucircumflex" horiz-adv-x="774" d="M185 0T131 53T77 196Q77 225 83 256L172 700H269L183 277Q178 252 178 234Q178 170 218 132T327 93Q386 93 439 120T531 195T585 301L665 700H761L621 0H525L551 125Q501 67 430 34T277
0Q185 0 131 53ZM642 767H549L501 834L427 767H334L465 900H562L642 767Z" />
<glyph unicode="&#xdc;" glyph-name="Udieresis" horiz-adv-x="774" d="M185 0T131 53T77 196Q77 225 83 256L172 700H269L183 277Q178 252 178 234Q178 170 218 132T327 93Q386 93 439 120T531 195T585 301L665 700H761L621 0H525L551 125Q501 67 430 34T277
0Q185 0 131 53ZM442 872T454 859T466 826Q466 801 447 782T402 762Q383 762 371 775T358 808Q358 835 377 853T423 872Q442 872 454 859ZM614 872T625 860T637 826Q637 801 618 782T574 762Q555 762 543 775T530 808Q530 835 549 853T595 872Q614 872 625 860Z"
/>
<glyph unicode="&#xdd;" glyph-name="Yacute" horiz-adv-x="738" d="M741 700L633 163Q618 84 571 24T453 -70T301 -104Q219 -104 147 -71T41 13L97 75Q125 34 180 9T294 -17Q354 -17 406 7T493 75T539 172L560 274Q515 219 455 189T326 157Q227 157 169 213T111
362Q111 391 117 422L172 700H268L213 422Q209 402 209 379Q209 318 245 282T347 246Q402 246 452 272T540 344T595 450L645 700H741ZM526 902L622 860L499 762L419 772L526 902Z" />
<glyph unicode="&#xde;" glyph-name="Thorn" horiz-adv-x="688" d="M544 598T609 550T675 411Q675 323 634 260T514 162T324 127H168L143 0H47L187 700H283L263 598H419Q544 598 609 550ZM453 207T513 256T574 395Q574 518 400 518H247L184 207H336Q453 207 513 256Z" />
<glyph unicode="&#xdf;" glyph-name="germandbls" horiz-adv-x="653" d="M479 746T524 726T595 669T620 585Q620 516 576 460T458 380Q519 369 554 331T589 238Q589 170 551 116T444 31T288 0H236L250 73H308Q361 73 404 93T472 149T497 229Q497 278 456 306T341
334H329L343 407Q396 407 438 428T503 486T526 572Q526 617 496 643T414 670Q344 670 293 623T225 495L126 0H33L130 489Q154 610 231 678T421 746Q479 746 524 726Z" />
<glyph unicode="&#xe0;" glyph-name="agrave" horiz-adv-x="703" d="M196 -5T146 25T67 108T39 232Q39 316 76 385T180 493T326 533Q400 533 450 499T521 403L547 529H641L563 145Q560 133 560 123Q560 86 595 86Q617 86 656 103L640 17Q606 0 566 0Q526 0 504
21T477 81L475 105Q434 52 380 24T262 -5Q196 -5 146 25ZM348 73T394 101T467 179T494 287Q494 361 451 406T337 451Q281 451 235 422T161 344T133 237Q133 164 177 119T293 73Q348 73 394 101ZM341 752L448 622L368 612L245 710L341 752Z" />
<glyph unicode="&#xe1;" glyph-name="aacute" horiz-adv-x="703" d="M196 -5T146 25T67 108T39 232Q39 316 76 385T180 493T326 533Q400 533 450 499T521 403L547 529H641L563 145Q560 133 560 123Q560 86 595 86Q617 86 656 103L640 17Q606 0 566 0Q526 0 504
21T477 81L475 105Q434 52 380 24T262 -5Q196 -5 146 25ZM348 73T394 101T467 179T494 287Q494 361 451 406T337 451Q281 451 235 422T161 344T133 237Q133 164 177 119T293 73Q348 73 394 101ZM436 752L532 710L409 612L329 622L436 752Z" />
<glyph unicode="&#xe2;" glyph-name="acircumflex" horiz-adv-x="703" d="M196 -5T146 25T67 108T39 232Q39 316 76 385T180 493T326 533Q400 533 450 499T521 403L547 529H641L563 145Q560 133 560 123Q560 86 595 86Q617 86 656 103L640 17Q606 0 566 0Q526
0 504 21T477 81L475 105Q434 52 380 24T262 -5Q196 -5 146 25ZM348 73T394 101T467 179T494 287Q494 361 451 406T337 451Q281 451 235 422T161 344T133 237Q133 164 177 119T293 73Q348 73 394 101ZM534 617H441L393 684L319 617H226L357 750H454L534 617Z" />
<glyph unicode="&#xe3;" glyph-name="atilde" horiz-adv-x="703" d="M196 -5T146 25T67 108T39 232Q39 316 76 385T180 493T326 533Q400 533 450 499T521 403L547 529H641L563 145Q560 133 560 123Q560 86 595 86Q617 86 656 103L640 17Q606 0 566 0Q526 0 504
21T477 81L475 105Q434 52 380 24T262 -5Q196 -5 146 25ZM348 73T394 101T467 179T494 287Q494 361 451 406T337 451Q281 451 235 422T161 344T133 237Q133 164 177 119T293 73Q348 73 394 101ZM546 676T521 642T452 608Q431 608 415 616T376 640Q360 651 351 656T332
661Q299 661 290 612H225Q235 665 260 699T328 734Q349 734 365 726T405 703Q421 692 430 687T449 682Q467 682 477 695T491 730H556Q546 676 521 642Z" />
<glyph unicode="&#xe4;" glyph-name="adieresis" horiz-adv-x="703" d="M196 -5T146 25T67 108T39 232Q39 316 76 385T180 493T326 533Q400 533 450 499T521 403L547 529H641L563 145Q560 133 560 123Q560 86 595 86Q617 86 656 103L640 17Q606 0 566 0Q526 0
504 21T477 81L475 105Q434 52 380 24T262 -5Q196 -5 146 25ZM348 73T394 101T467 179T494 287Q494 361 451 406T337 451Q281 451 235 422T161 344T133 237Q133 164 177 119T293 73Q348 73 394 101ZM337 734T349 721T361 688Q361 663 342 644T297 624Q278 624 266
637T253 670Q253 697 272 715T318 734Q337 734 349 721ZM509 734T520 722T532 688Q532 663 513 644T469 624Q450 624 438 637T425 670Q425 697 444 715T490 734Q509 734 520 722Z" />
<glyph unicode="&#xe5;" glyph-name="aring" horiz-adv-x="703" d="M196 -5T146 25T67 108T39 232Q39 316 76 385T180 493T326 533Q400 533 450 499T521 403L547 529H641L563 145Q560 133 560 123Q560 86 595 86Q617 86 656 103L640 17Q606 0 566 0Q526 0 504
21T477 81L475 105Q434 52 380 24T262 -5Q196 -5 146 25ZM348 73T394 101T467 179T494 287Q494 361 451 406T337 451Q281 451 235 422T161 344T133 237Q133 164 177 119T293 73Q348 73 394 101ZM444 788T470 761T497 694Q497 663 481 636T437 593T378 577Q337 577
311 603T284 669Q284 700 300 727T344 771T403 788Q444 788 470 761ZM373 735T355 717T336 676Q336 656 349 643T384 630Q408 630 427 647T446 688Q446 708 432 721T397 735Q373 735 355 717Z" />
<glyph unicode="&#xe6;" glyph-name="ae" horiz-adv-x="959" d="M713 73T756 93T835 152L889 99Q797 -3 659 -3Q581 -3 521 30T432 123Q354 -4 194 -4Q117 -4 69 38T21 147Q21 223 78 267T232 313H403L406 339Q410 397 379 426T282 455Q203 455 114 397L78 463Q142
502 191 517T303 532Q371 532 417 508T481 440Q519 485 575 508T697 532Q798 532 858 473T922 313L509 184Q525 133 566 103T666 73Q713 73 756 93ZM613 455T561 404T502 261V255L834 362Q802 455 696 455Q613 455 561 404ZM398 241H244Q180 241 148 221T110 158Q107
118 134 96T213 73Q277 73 326 104T392 187L398 241Z" />
<glyph unicode="&#xe7;" glyph-name="ccedilla" horiz-adv-x="582" d="M342 78T385 94T458 144L505 89Q425 1 289 -3L262 -51Q296 -56 312 -74T329 -117Q329 -163 292 -190T199 -217Q149 -217 109 -196L142 -134Q168 -148 198 -148Q221 -148 236 -138T251 -114Q251
-103 239 -96T205 -88H175L220 3Q137 20 89 83T40 237Q40 322 78 389T183 494T333 532Q399 532 450 512T534 452L477 388Q420 450 328 450Q273 450 229 424T159 350T133 244Q133 170 177 124T291 78Q342 78 385 94Z" />
<glyph unicode="&#xe8;" glyph-name="egrave" horiz-adv-x="585" d="M396 73T470 154L522 104Q425 -3 287 -3Q214 -3 158 27T72 111T41 235Q41 319 78 387T183 493T336 532Q437 532 496 474T556 315L143 185Q158 133 199 103T300 73Q396 73 470 154ZM245 455T192
402T135 256L468 361Q453 408 418 431T330 455Q245 455 192 402ZM308 752L415 622L335 612L212 710L308 752Z" />
<glyph unicode="&#xe9;" glyph-name="eacute" horiz-adv-x="585" d="M396 73T470 154L522 104Q425 -3 287 -3Q214 -3 158 27T72 111T41 235Q41 319 78 387T183 493T336 532Q437 532 496 474T556 315L143 185Q158 133 199 103T300 73Q396 73 470 154ZM245 455T192
402T135 256L468 361Q453 408 418 431T330 455Q245 455 192 402ZM403 752L499 710L376 612L296 622L403 752Z" />
<glyph unicode="&#xea;" glyph-name="ecircumflex" horiz-adv-x="585" d="M396 73T470 154L522 104Q425 -3 287 -3Q214 -3 158 27T72 111T41 235Q41 319 78 387T183 493T336 532Q437 532 496 474T556 315L143 185Q158 133 199 103T300 73Q396 73 470 154ZM245
455T192 402T135 256L468 361Q453 408 418 431T330 455Q245 455 192 402ZM501 617H408L360 684L286 617H193L324 750H421L501 617Z" />
<glyph unicode="&#xeb;" glyph-name="edieresis" horiz-adv-x="585" d="M396 73T470 154L522 104Q425 -3 287 -3Q214 -3 158 27T72 111T41 235Q41 319 78 387T183 493T336 532Q437 532 496 474T556 315L143 185Q158 133 199 103T300 73Q396 73 470 154ZM245 455T192
402T135 256L468 361Q453 408 418 431T330 455Q245 455 192 402ZM304 734T316 721T328 688Q328 663 309 644T264 624Q245 624 233 637T220 670Q220 697 239 715T285 734Q304 734 316 721ZM476 734T487 722T499 688Q499 663 480 644T436 624Q417 624 405 637T392
670Q392 697 411 715T457 734Q476 734 487 722Z" />
<glyph unicode="&#xec;" glyph-name="igrave" horiz-adv-x="274" d="M236 529L131 0H38L143 529H236ZM168 752L275 622L195 612L72 710L168 752Z" />
<glyph unicode="&#xed;" glyph-name="iacute" horiz-adv-x="274" d="M236 529L131 0H38L143 529H236ZM263 752L359 710L236 612L156 622L263 752Z" />
<glyph unicode="&#xee;" glyph-name="icircumflex" horiz-adv-x="274" d="M236 529L131 0H38L143 529H236ZM361 617H268L220 684L146 617H53L184 750H281L361 617Z" />
<glyph unicode="&#xef;" glyph-name="idieresis" horiz-adv-x="274" d="M236 529L131 0H38L143 529H236ZM176 734T188 721T200 688Q200 663 181 644T136 624Q117 624 105 637T92 670Q92 697 111 715T157 734Q176 734 188 721ZM323 734T335 721T347 688Q347 663
328 644T283 624Q264 624 252 637T240 670Q240 697 259 715T304 734Q323 734 335 721Z" />
<glyph unicode="&#xf0;" glyph-name="eth" horiz-adv-x="588" d="M429 607Q487 539 518 460T549 300Q549 209 514 141T414 35T263 -3Q158 -3 96 51T34 199Q34 271 65 326T152 412T280 443Q343 443 394 416T464 346Q455 404 426 462T351 573L163 494L144 544L311
615Q255 668 190 705L256 747Q331 705 390 649L539 712L560 662L429 607ZM320 80T360 101T422 160T445 246Q445 305 406 339T299 373Q249 373 209 352T147 292T125 206Q125 148 163 114T268 80Q320 80 360 101Z" />
<glyph unicode="&#xf1;" glyph-name="ntilde" horiz-adv-x="684" d="M141 388Q143 396 143 411Q143 447 109 447Q87 447 48 430L64 516Q102 533 138 533Q177 533 200 512T228 452L229 417Q299 533 435 535Q525 535 575 491T625 368Q625 342 619 312L557 0H463L522
301Q526 318 526 339Q526 391 494 420T403 450Q332 450 281 404T212 281L157 0H63L141 388ZM606 676T581 642T512 608Q491 608 475 616T436 640Q420 651 411 656T392 661Q359 661 350 612H285Q295 665 320 699T388 734Q409 734 425 726T465 703Q481 692 490 687T509
682Q527 682 537 695T551 730H616Q606 676 581 642Z" />
<glyph unicode="&#xf2;" glyph-name="ograve" horiz-adv-x="627" d="M413 532T469 502T556 416T587 291Q587 206 548 139T440 35T286 -3Q212 -3 157 27T71 113T40 239Q40 323 79 390T186 494T340 532Q413 532 469 502ZM276 451T231 425T160 351T134 243Q134 168
178 122T294 76Q350 76 394 102T465 176T491 284Q491 358 448 404T332 451Q276 451 231 425ZM318 752L425 622L345 612L222 710L318 752Z" />
<glyph unicode="&#xf3;" glyph-name="oacute" horiz-adv-x="627" d="M413 532T469 502T556 416T587 291Q587 206 548 139T440 35T286 -3Q212 -3 157 27T71 113T40 239Q40 323 79 390T186 494T340 532Q413 532 469 502ZM276 451T231 425T160 351T134 243Q134 168
178 122T294 76Q350 76 394 102T465 176T491 284Q491 358 448 404T332 451Q276 451 231 425ZM413 752L509 710L386 612L306 622L413 752Z" />
<glyph unicode="&#xf4;" glyph-name="ocircumflex" horiz-adv-x="627" d="M413 532T469 502T556 416T587 291Q587 206 548 139T440 35T286 -3Q212 -3 157 27T71 113T40 239Q40 323 79 390T186 494T340 532Q413 532 469 502ZM276 451T231 425T160 351T134 243Q134
168 178 122T294 76Q350 76 394 102T465 176T491 284Q491 358 448 404T332 451Q276 451 231 425ZM511 617H418L370 684L296 617H203L334 750H431L511 617Z" />
<glyph unicode="&#xf5;" glyph-name="otilde" horiz-adv-x="627" d="M413 532T469 502T556 416T587 291Q587 206 548 139T440 35T286 -3Q212 -3 157 27T71 113T40 239Q40 323 79 390T186 494T340 532Q413 532 469 502ZM276 451T231 425T160 351T134 243Q134 168
178 122T294 76Q350 76 394 102T465 176T491 284Q491 358 448 404T332 451Q276 451 231 425ZM523 676T498 642T429 608Q408 608 392 616T353 640Q337 651 328 656T309 661Q276 661 267 612H202Q212 665 237 699T305 734Q326 734 342 726T382 703Q398 692 407 687T426
682Q444 682 454 695T468 730H533Q523 676 498 642Z" />
<glyph unicode="&#xf6;" glyph-name="odieresis" horiz-adv-x="627" d="M413 532T469 502T556 416T587 291Q587 206 548 139T440 35T286 -3Q212 -3 157 27T71 113T40 239Q40 323 79 390T186 494T340 532Q413 532 469 502ZM276 451T231 425T160 351T134 243Q134
168 178 122T294 76Q350 76 394 102T465 176T491 284Q491 358 448 404T332 451Q276 451 231 425ZM314 734T326 721T338 688Q338 663 319 644T274 624Q255 624 243 637T230 670Q230 697 249 715T295 734Q314 734 326 721ZM486 734T497 722T509 688Q509 663 490 644T446
624Q427 624 415 637T402 670Q402 697 421 715T467 734Q486 734 497 722Z" />
<glyph unicode="&#xf7;" glyph-name="divide" horiz-adv-x="494" d="M314 561T326 548T339 515Q339 488 319 469T273 449Q254 449 242 462T229 496Q229 523 248 542T294 561Q314 561 326 548ZM476 357L463 290H41L54 357H476ZM244 207T256 194T269 161Q269 134
249 115T203 95Q184 95 172 108T159 142Q159 169 178 188T224 207Q244 207 256 194Z" />
<glyph unicode="&#xf8;" glyph-name="oslash" horiz-adv-x="627" d="M541 450T564 401T587 291Q587 206 548 139T440 35T286 -3Q225 -3 173 19L91 -98H22L125 48Q84 81 62 130T40 239Q40 323 79 390T186 494T340 532Q401 532 449 511L531 627H599L498 483Q541
450 564 401ZM129 205T140 173T174 118L402 443Q371 457 333 457Q276 457 230 430T156 353T129 243Q129 205 140 173ZM350 70T396 97T470 174T497 285Q497 324 484 356T448 412L219 85Q252 70 293 70Q350 70 396 97Z" />
<glyph unicode="&#xf9;" glyph-name="ugrave" horiz-adv-x="684" d="M543 141Q541 133 541 118Q541 82 575 82Q597 82 636 99L620 13Q582 -4 546 -4Q507 -4 484 17T456 77L455 112Q385 -4 249 -6Q159 -6 109 38T59 161Q59 187 65 217L127 529H221L162 228Q158
211 158 190Q158 138 190 109T281 79Q352 79 403 125T472 248L527 529H621L543 141ZM361 752L468 622L388 612L265 710L361 752Z" />
<glyph unicode="&#xfa;" glyph-name="uacute" horiz-adv-x="684" d="M543 141Q541 133 541 118Q541 82 575 82Q597 82 636 99L620 13Q582 -4 546 -4Q507 -4 484 17T456 77L455 112Q385 -4 249 -6Q159 -6 109 38T59 161Q59 187 65 217L127 529H221L162 228Q158
211 158 190Q158 138 190 109T281 79Q352 79 403 125T472 248L527 529H621L543 141ZM456 752L552 710L429 612L349 622L456 752Z" />
<glyph unicode="&#xfb;" glyph-name="ucircumflex" horiz-adv-x="684" d="M543 141Q541 133 541 118Q541 82 575 82Q597 82 636 99L620 13Q582 -4 546 -4Q507 -4 484 17T456 77L455 112Q385 -4 249 -6Q159 -6 109 38T59 161Q59 187 65 217L127 529H221L162 228Q158
211 158 190Q158 138 190 109T281 79Q352 79 403 125T472 248L527 529H621L543 141ZM554 617H461L413 684L339 617H246L377 750H474L554 617Z" />
<glyph unicode="&#xfc;" glyph-name="udieresis" horiz-adv-x="684" d="M543 141Q541 133 541 118Q541 82 575 82Q597 82 636 99L620 13Q582 -4 546 -4Q507 -4 484 17T456 77L455 112Q385 -4 249 -6Q159 -6 109 38T59 161Q59 187 65 217L127 529H221L162 228Q158
211 158 190Q158 138 190 109T281 79Q352 79 403 125T472 248L527 529H621L543 141ZM357 734T369 721T381 688Q381 663 362 644T317 624Q298 624 286 637T273 670Q273 697 292 715T338 734Q357 734 369 721ZM529 734T540 722T552 688Q552 663 533 644T489 624Q470
624 458 637T445 670Q445 697 464 715T510 734Q529 734 540 722Z" />
<glyph unicode="&#xfd;" glyph-name="yacute" horiz-adv-x="647" d="M620 529L526 53Q502 -64 422 -130T224 -197Q163 -197 107 -173T15 -110L55 -46Q129 -114 224 -114Q303 -114 360 -67T435 63L452 147Q378 46 235 44Q155 44 111 85T67 199Q67 226 73 254L127
529H221L169 270Q165 251 165 231Q165 184 193 159T275 133Q353 134 408 183T485 316L527 529H620ZM449 752L545 710L422 612L342 622L449 752Z" />
<glyph unicode="&#xfe;" glyph-name="thorn" horiz-adv-x="683" d="M487 533T537 504T616 420T644 296Q644 213 607 144T503 35T357 -5Q283 -5 233 29T162 125L97 -194H4L191 742H284L223 442Q260 485 311 509T421 533Q487 533 537 504ZM335 456T289 428T216 350T189
242Q189 168 232 123T346 78Q402 78 448 107T522 185T550 292Q550 365 506 410T390 456Q335 456 289 428Z" />
<glyph unicode="&#xff;" glyph-name="ydieresis" horiz-adv-x="647" d="M620 529L526 53Q502 -64 422 -130T224 -197Q163 -197 107 -173T15 -110L55 -46Q129 -114 224 -114Q303 -114 360 -67T435 63L452 147Q378 46 235 44Q155 44 111 85T67 199Q67 226 73 254L127
529H221L169 270Q165 251 165 231Q165 184 193 159T275 133Q353 134 408 183T485 316L527 529H620ZM350 734T362 721T374 688Q374 663 355 644T310 624Q291 624 279 637T266 670Q266 697 285 715T331 734Q350 734 362 721ZM522 734T533 722T545 688Q545 663 526
644T482 624Q463 624 451 637T438 670Q438 697 457 715T503 734Q522 734 533 722Z" />
<glyph unicode="&#x2013;" glyph-name="endash" horiz-adv-x="405" d="M418 336L406 270H2L14 336H418Z" />
<glyph unicode="&#x2014;" glyph-name="emdash" horiz-adv-x="707" d="M720 336L708 270H2L14 336H720Z" />
<glyph unicode="&#x2018;" glyph-name="quoteleft" horiz-adv-x="196" d="M213 618T211 584Q209 559 193 544T153 529Q131 529 116 544T104 584Q105 595 109 604T123 630L187 742H237L188 631Q213 618 211 584Z" />
<glyph unicode="&#x2019;" glyph-name="quoteright" horiz-adv-x="196" d="M207 742T222 727T234 687Q233 676 229 667T215 641L151 529H101L150 640Q125 653 127 687Q129 712 145 727T185 742Q207 742 222 727Z" />
<glyph unicode="&#x201a;" glyph-name="quotesinglbase" horiz-adv-x="196" d="M78 103T93 88T105 48Q104 37 100 28T86 2L22 -110H-28L21 1Q-4 14 -2 48Q0 73 16 88T56 103Q78 103 93 88Z" />
<glyph unicode="&#x201c;" glyph-name="quotedblleft" horiz-adv-x="332" d="M213 618T211 584Q209 559 193 544T153 529Q131 529 116 544T104 584Q105 595 109 604T123 630L187 742H237L188 631Q213 618 211 584ZM349 618T347 584Q345 559 329 544T289 529Q267
529 252 544T240 584Q241 595 245 604T259 630L323 742H373L324 631Q349 618 347 584Z" />
<glyph unicode="&#x201d;" glyph-name="quotedblright" horiz-adv-x="332" d="M207 742T222 727T234 687Q233 676 229 667T215 641L151 529H101L150 640Q125 653 127 687Q129 712 145 727T185 742Q207 742 222 727ZM343 742T358 727T370 687Q369 676 365 667T351
641L287 529H237L286 640Q261 653 263 687Q265 712 281 727T321 742Q343 742 358 727Z" />
<glyph unicode="&#x201e;" glyph-name="quotedblbase" horiz-adv-x="332" d="M78 103T93 88T105 48Q104 37 100 28T86 2L22 -110H-28L21 1Q-4 14 -2 48Q0 73 16 88T56 103Q78 103 93 88ZM214 103T229 88T241 48Q240 37 236 28T222 2L158 -110H108L157 1Q132 14
134 48Q136 73 152 88T192 103Q214 103 229 88Z" />
<glyph unicode="&#x2022;" glyph-name="bullet" horiz-adv-x="268" d="M169 352T192 329T216 268Q216 231 193 206T134 181Q99 181 76 206T52 268Q52 305 75 328T134 352Q169 352 192 329Z" />
<glyph unicode="&#x2039;" glyph-name="guilsinglleft" horiz-adv-x="275" d="M257 427L114 254L191 88H111L30 257L177 427H257Z" />
<glyph unicode="&#x203a;" glyph-name="guilsinglright" horiz-adv-x="284" d="M42 88L185 261L108 427H188L269 258L122 88H42Z" />
</font>
</defs>
</svg>
