<?xml version="1.0" standalone="no"?>
<!DOCTYPE svg PUBLIC "-//W3C//DTD SVG 1.1//EN" "http://www.w3.org/Graphics/SVG/1.1/DTD/svg11.dtd">
<svg xmlns="http://www.w3.org/2000/svg">
<defs >
<font id="MarckScript" horiz-adv-x="411" ><font-face
    font-family="Marck Script"
    units-per-em="1000"
    panose-1="2 0 0 0 0 0 0 0 0 0"
    ascent="864"
    descent="-385"
    alphabetic="0" />
<glyph unicode=" " glyph-name="space" horiz-adv-x="480" />
<glyph unicode="!" glyph-name="exclam" horiz-adv-x="257" d="M235 642L282 613Q139 369 57 136H1Q63 383 235 642ZM51 1T64 14T77 45T64 76T33 89T2 77T-11 46T1 14T32 1Z" />
<glyph unicode="&quot;" glyph-name="quotedbl" horiz-adv-x="20" d="M94 612L12 488H-20L38 639L94 612ZM188 610L108 488H74L132 635L188 610Z" />
<glyph unicode="#" glyph-name="numbersign" horiz-adv-x="575" d="M42 241L176 240Q183 264 210 359H65L75 407H226Q257 505 299 625L344 606Q322 547 276 408Q361 410 402 413Q444 541 475 630L520 612Q494 544 454 416Q473 416 493 417T537 420T571 423L561
377Q488 369 438 367L401 244Q492 248 536 251L527 203Q504 201 388 196Q357 87 343 10L294 -2Q307 78 338 192H212Q179 69 166 6L117 -7Q135 87 163 192Q106 192 32 194L42 241ZM226 240L352 242Q386 357 388 364Q302 360 261 360L226 240Z" />
<glyph unicode="$" glyph-name="dollar" horiz-adv-x="485" d="M113 -50L125 4Q60 4 27 27T-7 87Q-7 139 51 185T199 234Q215 274 218 288Q172 302 148 323T123 383Q123 453 201 523T357 610Q375 646 387 666L416 656L399 618Q440 618 465 602T491 551Q491 495
425 446T295 397L285 370Q279 353 276 346Q338 335 367 305T397 233Q397 157 321 80T163 3L147 -55L113 -50ZM136 40L189 204Q138 197 107 170T76 110T92 59T136 40ZM226 209L172 40Q228 40 278 93T329 198Q329 260 251 280Q242 258 236 237Q256 237 263 236L258
209H226ZM249 431L274 428L334 565Q274 558 235 519T196 429T244 358L259 397Q247 398 238 404L249 431ZM368 564L310 429Q355 432 385 458T416 518Q416 562 368 564Z" />
<glyph unicode="%" glyph-name="percent" horiz-adv-x="542" d="M204 119T240 151T318 184T380 167T401 115T364 47T277 13Q204 13 204 75Q204 119 240 151ZM254 83Q254 41 294 41Q314 41 332 63T351 111Q351 160 315 160Q291 160 273 136T254 83ZM312 406T273
372T194 338Q117 338 117 398Q117 441 154 474T232 507T292 491T312 449Q312 406 273 372ZM266 444Q266 486 225 486Q204 486 186 462T167 401T203 365Q228 365 247 389T266 444ZM539 507L566 486L548 472Q208 207 32 3L-5 35Q17 68 118 169T347 376T539 507Z"
/>
<glyph unicode="&amp;" glyph-name="ampersand" horiz-adv-x="510" d="M483 110L510 93Q497 50 467 25T400 -1T318 45Q265 -1 179 -1T46 40T-1 140T48 245T186 313Q167 367 167 401Q167 454 209 489T309 525T399 500T433 433Q433 346 264 303Q313 183 348 131Q371
164 401 254H433Q429 225 411 180T371 105Q405 62 430 62Q464 62 483 110ZM370 461T353 477T307 494T256 471T235 418T252 334Q370 365 370 433Q370 461 353 477ZM88 123T118 87T211 51T299 74Q246 155 195 283Q149 273 119 240T88 165Z" />
<glyph unicode="&apos;" glyph-name="quotesingle" horiz-adv-x="53" d="M95 610L15 488H-19L39 635L95 610Z" />
<glyph unicode="(" glyph-name="parenleft" horiz-adv-x="248" d="M263 676L303 652Q179 482 124 289T69 -136H25Q22 -94 22 -50Q22 159 85 352T263 676Z" />
<glyph unicode=")" glyph-name="parenright" horiz-adv-x="213" d="M-8 -136L-48 -112Q76 58 131 251T186 676H230Q233 634 233 590Q233 381 170 188T-8 -136Z" />
<glyph unicode="*" glyph-name="asterisk" horiz-adv-x="208" d="M129 563L179 603L199 573L148 539L208 549V512L144 508L193 466L167 441L118 486V423H82V486L40 448L14 475L54 505L2 496L1 531Q14 533 34 534T62 537L18 571L42 609Q50 603 66 588T91 565Q96
619 98 630L141 620L129 563Z" />
<glyph unicode="+" glyph-name="plus" horiz-adv-x="261" d="M145 133H98Q100 202 102 228L9 217L-3 271Q36 279 106 284Q114 364 120 396L174 384L163 293H260V246L156 234L145 133Z" />
<glyph unicode="," glyph-name="comma" horiz-adv-x="134" d="M-2 51T11 63T44 76T75 65T86 34Q86 -10 10 -65L-12 -33Q28 -1 29 1Q-2 11 -2 33Q-2 51 11 63Z" />
<glyph unicode="-" glyph-name="hyphen" horiz-adv-x="203" d="M206 293V246L-1 217L-13 271Q73 288 206 293Z" />
<glyph unicode="." glyph-name="period" horiz-adv-x="131" d="M-1 18T-1 35T11 64T40 76T69 64T81 35T69 6T40 -6T11 6Z" />
<glyph unicode="/" glyph-name="slash" horiz-adv-x="408" d="M500 721L539 700Q378 486 261 298T22 -126L-22 -113Q98 121 217 312T500 721Z" />
<glyph unicode="0" glyph-name="zero" horiz-adv-x="452" d="M384 492T417 460T451 368T400 220T268 69T112 4Q-9 4 -9 139Q-9 218 41 300T171 437T328 492Q384 492 417 460ZM310 160T340 227T371 344T348 421T285 448Q215 448 146 358T76 176Q76 127 99 96T166
64T260 112Z" />
<glyph unicode="1" glyph-name="one" horiz-adv-x="218" d="M231 473Q228 456 190 386Q70 170 63 18L-1 8Q-7 24 -7 61Q-7 150 109 386Q71 371 47 371T2 379L24 430Q36 427 48 427Q80 427 113 447T164 492T195 517T220 508T233 488T231 473Z" />
<glyph unicode="2" glyph-name="two" horiz-adv-x="413" d="M144 417T213 454T328 492T402 467T429 396T392 313T244 219T38 80Q175 101 293 101Q320 101 336 99V36Q314 32 307 32T282 32T216 29T116 21T46 14T23 11Q7 11 -5 31T-17 71Q-9 102 62 161T246 278Q279
295 307 322T335 373Q335 419 286 419Q221 419 119 335L102 368Q144 417 213 454Z" />
<glyph unicode="3" glyph-name="three" horiz-adv-x="407" d="M427 404Q427 355 375 316T269 261Q310 237 331 216T353 168Q353 102 279 53T120 3Q79 3 39 16T-18 47L27 89Q41 75 64 64T105 53Q164 53 212 83T261 157Q261 183 237 203T173 234Q150 241 150 257Q150
279 240 300Q273 308 301 326T329 367T314 402T275 415T205 391T106 327L90 360Q132 410 204 448T321 486T396 462T427 404Z" />
<glyph unicode="4" glyph-name="four" horiz-adv-x="386" d="M159 40Q159 93 188 168Q125 163 86 155T43 147Q20 147 8 164T-5 195T-4 214Q2 246 80 317T244 447T357 505Q374 505 384 494T395 466T376 418T344 361T321 315Q303 274 292 244Q326 246 349 246T388
244Q375 179 371 176L263 174Q237 127 221 17L163 8Q159 21 159 40ZM213 237Q236 299 307 431Q247 400 167 330T58 214Q160 232 213 237Z" />
<glyph unicode="5" glyph-name="five" horiz-adv-x="384" d="M433 422Q420 423 373 423T293 419T211 402Q153 317 140 282Q167 285 188 285Q256 285 304 252T352 170Q352 101 280 52T116 3T-14 51L28 89Q40 75 69 64T122 53Q178 53 220 85T262 163Q262 195 225
216T129 237T70 273Q70 289 98 338T130 394T141 412T152 426T162 438T174 450Q189 458 209 464Q288 483 390 483H437L433 422Z" />
<glyph unicode="6" glyph-name="six" horiz-adv-x="401" d="M299 328Q338 328 363 305T389 243Q389 162 298 84T127 5Q66 5 32 37T-2 130Q-2 233 58 321T201 454T361 501L366 461Q243 433 194 392Q137 342 98 254Q196 328 299 328ZM168 60Q219 60 264 104T310
199Q310 227 290 243T237 259T149 238T87 189Q84 174 84 161Q84 117 108 89T168 60Z" />
<glyph unicode="7" glyph-name="seven" horiz-adv-x="311" d="M372 486Q390 472 390 452T357 407T292 354T221 283T153 200Q85 102 79 9L6 2Q8 79 70 200Q100 261 155 323T280 429Q180 428 26 388L14 452Q37 462 146 479T308 496T372 486Z" />
<glyph unicode="8" glyph-name="eight" horiz-adv-x="436" d="M188 293Q143 332 143 368Q143 418 195 454T312 491T414 466T451 399Q451 330 334 294Q391 271 391 218Q391 136 303 73T129 9Q67 9 31 41T-6 127T47 227T188 293ZM283 322Q318 332 339 354T360 406Q360
446 307 446Q275 446 254 430T233 387Q233 345 283 322ZM230 266Q167 252 125 217T82 146T109 85T179 61T264 101T305 187Q305 214 287 236T230 266Z" />
<glyph unicode="9" glyph-name="nine" horiz-adv-x="365" d="M113 184Q74 184 49 207T23 269Q23 323 67 377T171 465T282 498Q414 498 414 382Q414 305 376 233T280 112T152 34T19 5H10L5 45Q149 78 207 122Q234 142 264 177T314 258Q216 184 113 184ZM262 450Q209
450 156 406T102 313Q102 285 122 269T175 253Q230 253 281 290T333 380Q333 411 313 430T262 450Z" />
<glyph unicode=":" glyph-name="colon" horiz-adv-x="116" d="M16 194T16 211T27 239T55 251T83 240T95 212T84 184T55 172T27 183ZM-18 22T-18 39T-7 67T21 79T49 68T61 40T50 12T21 0T-7 11Z" />
<glyph unicode=";" glyph-name="semicolon" horiz-adv-x="116" d="M16 194T16 211T27 239T55 251T83 240T95 212T84 184T55 172T27 183ZM14 76T33 76T65 65T78 34Q78 -10 2 -65L-20 -33Q20 -1 21 1Q-7 10 -7 31T3 64Z" />
<glyph unicode="&lt;" glyph-name="less" horiz-adv-x="248" d="M232 53Q211 60 58 222L8 276Q203 447 227 459L250 432Q106 303 87 279Q103 253 142 210T214 137L245 107L232 53Z" />
<glyph unicode="=" glyph-name="equal" horiz-adv-x="335" d="M314 335L318 288L83 265L80 319Q137 336 217 336T314 335ZM89 166L132 165Q213 165 326 191L322 237L86 221L89 166Z" />
<glyph unicode="&gt;" glyph-name="greater" horiz-adv-x="223" d="M140 279L43 427L75 481Q153 383 220 282L37 49L5 72Q13 101 108 234L140 279Z" />
<glyph unicode="?" glyph-name="question" horiz-adv-x="421" d="M176 575T238 604T350 634T431 608T462 538Q462 467 372 391L307 336Q208 252 173 182Q166 168 158 156L120 173Q140 244 283 390Q331 439 345 459T359 502Q359 549 311 549Q250 549 196 509T119
391L81 396Q81 461 128 518ZM60 64T73 76T106 88T137 79T148 52T135 21T101 8Q60 8 60 45Q60 64 73 76Z" />
<glyph unicode="@" glyph-name="at" horiz-adv-x="492" d="M361 523Q421 523 456 489T492 390T438 232T297 70T137 1T32 39T0 154T54 318T193 465T361 523ZM365 207Q416 299 416 376Q416 428 390 458T316 488T213 441T120 321T83 187T109 90T183 54Q252 54 326
147Q316 145 313 145Q277 145 277 187Q277 204 286 233L264 208Q208 145 159 145Q113 145 113 200Q113 272 182 334T332 398L333 376L308 370Q252 356 210 316T168 235T196 195T264 237T331 337L357 320Q356 317 346 294Q319 230 319 213Q319 191 340 191Q346 191
365 207Z" />
<glyph unicode="A" glyph-name="A" horiz-adv-x="790" d="M746 298L741 238Q718 240 692 240T647 239Q633 129 629 0H559Q553 26 553 69T555 143T562 206T566 242Q552 243 500 243T428 241Q312 85 214 5T18 -76Q-30 -76 -62 -47T-95 30Q-95 121 43 196T402 297Q428
337 499 420T639 566Q669 636 686 663T721 691T749 678T760 645T738 585T691 463T658 307Q710 307 746 298ZM236 89Q319 168 361 239Q193 229 102 176T10 63Q10 37 27 22T74 7Q152 7 236 89ZM578 307Q585 341 596 392T610 453Q562 407 543 386T476 303Q493 304
517 304T558 306T578 307Z" />
<glyph unicode="B" glyph-name="B" horiz-adv-x="667" d="M637 181L636 142L581 140Q569 70 543 27T454 -66T306 -149T161 -183T73 -160T43 -98Q43 -40 111 18T277 116T471 170Q456 195 426 211T322 247Q282 258 282 283Q282 298 294 310T336 340T392 376T451
421T506 475T528 524Q528 559 493 559Q466 559 420 534T328 468L285 332Q240 189 186 110T82 31Q30 31 30 95T92 258T264 463Q264 464 269 481T280 517Q297 571 306 586L355 578Q355 559 347 533Q403 575 465 606T557 638T605 620T623 566T590 484T506 401Q415
333 351 303Q455 287 503 261T573 181H637ZM151 158Q221 271 244 390Q190 331 146 255T102 145Q102 124 116 124T151 158ZM383 -56Q432 -23 461 18T490 95Q490 112 485 129Q335 111 238 51T141 -65Q141 -89 160 -103T212 -118Q293 -118 383 -56Z" />
<glyph unicode="C" glyph-name="C" horiz-adv-x="608" d="M500 632Q537 632 557 612T578 556Q578 478 485 412T273 345Q221 345 163 360Q125 298 125 226T165 109T282 64Q420 64 463 225H510Q499 132 423 61T221 -10Q155 -10 98 38T41 179T111 380Q60 410 30 454L57
484Q64 477 76 463Q99 436 138 416Q197 498 309 565T500 632ZM270 385Q357 385 423 426T489 522Q489 541 476 552T441 564Q380 564 305 516T186 399Q222 385 270 385Z" />
<glyph unicode="D" glyph-name="D" horiz-adv-x="684" d="M233 638Q407 638 530 535T654 294T570 76T357 -2Q288 -1 247 -1H200Q171 -1 171 21Q171 29 188 62Q244 174 273 291Q170 291 80 348T-10 477T58 594T233 638ZM229 597Q163 597 125 569T87 487T139 390T280
336Q311 467 316 505L376 499Q376 437 350 335Q358 335 443 345L448 312Q428 305 337 291Q298 165 256 73Q356 65 422 65T528 114T567 248Q567 393 468 495T229 597Z" />
<glyph unicode="E" glyph-name="E" horiz-adv-x="669" d="M639 574Q639 524 592 485T483 428T364 410Q349 410 342 411V445Q344 445 400 454T494 488T533 542Q533 578 479 578Q406 578 341 528T276 423T344 352Q359 348 364 344T369 330T360 314T316 295Q132 232
132 99Q132 72 142 53Q203 131 300 180T487 229Q534 229 562 209T590 152Q590 96 538 40T404 -51T240 -87T111 -57Q110 -58 102 -72Q82 -112 68 -128L35 -114Q42 -86 76 -29Q30 23 30 87T82 210T229 307Q182 346 182 388Q182 445 242 504T388 601T551 638Q591 638
615 621T639 574ZM429 169Q370 169 292 124T164 17Q204 -28 277 -28T421 19T492 122Q492 144 475 156T429 169Z" />
<glyph unicode="F" glyph-name="F" horiz-adv-x="763" d="M494 621L731 614Q749 614 776 622T813 631T827 626T833 612Q833 591 814 577T764 556Q706 543 661 543Q600 501 542 301Q641 301 665 298L663 251Q648 250 618 250L527 253Q471 82 376 -19T175 -120Q110
-120 70 -81T30 22Q30 125 153 209T456 299Q517 491 599 543L438 549Q337 549 288 523T238 454Q238 431 257 416T295 400T323 401T347 408T368 416Q389 423 419 438L440 412Q364 336 274 336Q234 336 208 361T182 424Q182 507 267 564T494 621ZM354 62Q408 146
440 250Q316 240 222 171T127 23Q127 -8 148 -28T205 -48T281 -19T354 62Z" />
<glyph unicode="G" glyph-name="G" horiz-adv-x="679" d="M525 -8L510 -42Q412 -25 397 -24Q348 -157 257 -234T53 -311Q-8 -311 -49 -278T-90 -196Q-90 -110 28 -45T316 20Q339 20 351 19Q369 57 380 100Q316 57 244 57T123 108T74 244T130 422T279 577T468 638Q524
638 574 619T649 572L595 507Q554 539 537 550Q493 580 443 580Q340 580 252 481T164 264Q164 200 200 163T294 126T400 154Q458 307 508 307Q537 307 537 279T516 215T460 149Q419 39 412 17Q482 9 525 -8ZM102 -243Q170 -243 236 -180T337 -22Q202 -22 109 -67T15
-178Q15 -208 38 -225T102 -243Z" />
<glyph unicode="H" glyph-name="H" horiz-adv-x="825" d="M750 637L795 615Q728 484 656 278Q702 278 719 274L715 217Q694 210 633 210Q612 152 608 116T602 46T598 0H542Q537 17 537 35Q537 97 570 210Q510 210 388 196Q383 180 363 137T324 61T271 -9T202 -73Q99
-147 2 -147Q-38 -147 -64 -122T-90 -59Q-90 37 20 115T327 241Q401 457 535 549Q390 547 296 500T202 380Q202 357 209 341T242 289L208 257Q164 285 141 325T118 402Q118 464 184 516T348 597T547 626Q598 626 617 619T637 591T608 552Q483 474 407 256Q466 266
590 278Q638 418 667 485T750 637ZM119 -78T168 -46T251 39T309 184Q176 162 95 107T13 -19Q13 -47 29 -62T82 -78Z" />
<glyph unicode="I" glyph-name="I" horiz-adv-x="586" d="M589 616Q606 611 606 598Q606 594 594 580Q548 521 530 492T486 395T440 265T419 201Q378 109 306 56T155 3Q99 3 65 30T30 104Q30 176 123 236T309 296L313 263Q239 248 186 208T132 121Q132 91 149
72T194 53Q245 53 282 100T357 269T427 446T507 540Q493 541 476 541Q390 541 309 514T227 442Q227 414 252 389L230 362Q163 409 163 471Q163 512 198 542T294 588Q409 619 552 619Q583 619 589 616Z" />
<glyph unicode="J" glyph-name="J" horiz-adv-x="702" d="M574 622Q635 622 673 615T712 584Q712 564 680 545Q601 497 540 390T413 72Q472 72 502 67L496 27Q468 32 446 32T397 27Q366 -58 332 -111T243 -210T123 -286T11 -316T-63 -291T-90 -223Q-90 -159 -30
-96T128 10T336 64Q338 68 367 159Q413 309 470 397T609 544Q592 546 564 546Q391 546 280 483T169 341Q169 290 199 247T286 157L262 124Q99 212 99 346Q99 424 165 488T340 587T574 622ZM115 -248T165 -216T260 -122T323 20Q193 7 103 -54T12 -192Q12 -218 27
-233T69 -248Q115 -248 165 -216Z" />
<glyph unicode="K" glyph-name="K" horiz-adv-x="797" d="M824 600L887 569Q823 465 736 384T503 223Q531 78 572 -9T679 -107V-153Q671 -154 658 -154Q591 -154 529 -61T416 214Q373 79 285 1T102 -78Q53 -78 22 -52T-10 21T32 118T147 202L170 166Q80 102 80
46Q80 19 98 3T145 -14Q213 -14 262 43T351 245Q400 426 451 482Q474 508 518 539Q449 537 377 516T251 452T197 357Q197 290 258 250L238 219Q182 246 150 289T118 378Q118 441 187 497T356 584T554 615Q614 615 614 589Q614 572 579 546Q515 498 481 421T424
241Q538 283 642 380T824 600Z" />
<glyph unicode="L" glyph-name="L" horiz-adv-x="581" d="M175 93L383 87Q427 87 468 116L495 80Q475 57 463 46T428 23T375 12L188 20Q63 20 66 17Q29 18 29 50Q32 70 56 116T121 285Q59 285 10 322L31 359Q74 331 136 331Q194 473 283 544T469 615Q515 615 543
592T571 529Q571 445 461 372T209 289Q163 143 106 90Q131 93 175 93ZM414 561Q352 561 299 498T223 335Q323 342 398 395T473 506Q473 529 456 545T414 561Z" />
<glyph unicode="M" glyph-name="M" horiz-adv-x="807" d="M817 -103L805 -140Q779 -142 766 -142Q706 -142 669 -92T631 40Q631 89 653 225T706 475Q712 500 712 508T705 516T661 442T571 259T512 135T500 110T482 76T456 32Q423 -18 404 -18Q391 -18 376 -11T355
4Q344 21 344 110Q344 296 374 465Q384 521 384 524Q384 534 376 534Q360 534 325 434L296 351Q232 170 167 69T16 -73L-10 -18Q87 54 139 129T254 371L288 462Q323 557 349 597T407 638Q460 638 460 574Q460 569 441 372T422 111Q422 93 428 92Q433 92 439 102Q520
237 594 396Q603 416 625 465T668 552T700 598T735 607T776 590T794 548T787 493Q709 112 709 38T733 -64T817 -103Z" />
<glyph unicode="N" glyph-name="N" horiz-adv-x="724" d="M676 611L734 604Q716 526 686 422T630 253T576 125T513 25T449 -12T404 11T389 92T406 338T423 542T415 559Q404 559 389 529T366 482Q345 435 339 416Q283 290 239 208T138 56Q118 32 81 7T12 -31L-10
28Q73 63 140 149T278 391T381 600Q416 657 452 657Q475 657 488 641T501 600T484 389T466 152T470 85T486 69Q500 69 516 99Q571 206 676 611Z" />
<glyph unicode="O" glyph-name="O" horiz-adv-x="694" d="M704 492V444Q659 418 538 373Q484 238 367 122T153 6Q98 6 64 45T30 152T76 317T197 498T350 623Q382 644 450 644Q501 644 533 605T566 512T558 431Q634 456 704 492ZM307 527Q274 493 274 462T306 412T386
393T471 402Q477 432 477 460Q477 559 392 559Q353 559 307 527ZM320 149Q418 246 457 351Q432 346 393 346Q225 346 203 421Q119 304 119 191Q119 146 140 119T204 92Q263 92 320 149Z" />
<glyph unicode="P" glyph-name="P" horiz-adv-x="658" d="M443 606T473 618T543 631T606 603T628 523Q628 430 568 323T418 144T248 71Q228 71 202 73Q153 -31 113 -84T33 -137Q8 -137 -6 -119T-20 -69Q-20 34 75 206T284 483Q300 549 300 579T298 626L370 638Q370
631 361 550Q443 606 473 618ZM132 145L160 131Q223 254 266 407Q174 292 115 173T56 -10Q56 -29 68 -29Q77 -29 100 8T139 85Q126 91 114 103L132 145ZM223 117L242 116Q339 116 424 218Q472 277 505 353T539 482Q539 511 524 528T481 545Q432 545 351 491Q333
356 223 117Z" />
<glyph unicode="Q" glyph-name="Q" horiz-adv-x="665" d="M625 111L685 77Q614 -27 531 -27Q474 -27 434 12Q401 44 356 106Q244 1 153 1Q98 1 64 40T30 144T68 296T166 458T302 586T450 639Q501 639 533 600T566 491T520 327T399 150Q422 118 437 99T479 57T533
35T590 59T625 111ZM314 545Q243 494 189 388T134 197Q134 139 160 110Q179 176 213 211T288 247Q303 247 312 244Q334 238 370 189Q414 248 442 319T471 444T449 532T386 567T314 545ZM220 81L228 82Q279 87 328 144Q300 178 274 178Q260 178 252 175T227 150T196
85Q210 81 220 81Z" />
<glyph unicode="R" glyph-name="R" horiz-adv-x="635" d="M500 -65L505 -112Q477 -117 456 -117Q409 -117 366 -55T299 92T268 254Q218 124 174 66T82 7Q58 7 44 26T30 78Q30 152 98 266T259 453Q261 459 276 526T295 600L353 605Q353 588 344 534Q479 637 566
637Q607 637 631 615T655 554Q655 459 559 363T354 249Q362 104 404 22T500 -65ZM209 269Q236 341 246 384Q191 333 145 248T98 122Q98 101 115 101Q145 101 209 269ZM277 283Q383 283 467 357T551 504Q551 531 538 546T495 561T411 529T332 475Q301 352 277 283Z"
/>
<glyph unicode="S" glyph-name="S" horiz-adv-x="627" d="M526 181L597 182V141Q585 143 569 143T533 141Q533 64 459 -15T281 -143T86 -193Q39 -193 10 -169T-20 -106Q-20 -48 57 15T237 119T423 167Q413 182 392 193T306 227T214 279T187 360T243 479T375 591T510
637Q536 637 553 619T570 573Q570 529 517 463T399 361L375 395Q414 415 443 457T473 531T440 562Q393 562 333 504T272 394Q272 359 290 339T381 290T485 238T526 181ZM80 -80Q80 -128 158 -128Q201 -128 269 -97T390 -9T443 107Q443 114 440 128Q303 115 192
51T80 -80Z" />
<glyph unicode="T" glyph-name="T" horiz-adv-x="570" d="M449 555L306 558Q87 558 87 462Q87 437 105 422T161 406T258 440L273 414Q242 381 203 362T125 343T58 369T30 434Q30 513 115 572T347 631Q359 631 433 627T550 623T629 636Q643 640 646 640Q660 640
660 622Q660 596 615 575T510 554Q444 490 395 331T277 88T114 4Q77 4 44 28L67 66Q79 60 94 55L108 53Q113 52 123 52Q173 52 212 100T295 281T363 458T449 555Z" />
<glyph unicode="U" glyph-name="U" horiz-adv-x="701" d="M563 78L595 52Q583 18 554 -10T491 -39Q445 -39 416 6T378 136Q332 86 263 42T142 -3T60 32T30 122Q30 247 152 419T399 664L426 626Q312 541 217 402T122 158Q122 119 140 98T192 76T286 115T376 188Q381
285 422 385T521 548T629 612Q671 612 671 561T596 391T447 201Q445 185 445 175Q445 131 462 84T509 36Q534 36 563 78ZM578 518Q545 518 505 441T454 276Q516 350 553 412T591 503Q591 518 578 518Z" />
<glyph unicode="V" glyph-name="V" horiz-adv-x="568" d="M549 612L578 569Q475 501 356 353T170 46Q156 13 146 2T116 -9T81 4T65 45T72 150T80 260Q80 485 30 623L103 643Q160 544 160 286Q160 202 157 152Q317 480 549 612Z" />
<glyph unicode="W" glyph-name="W" horiz-adv-x="789" d="M719 620L793 630Q799 603 799 571Q799 491 762 389T671 204T558 63T457 5Q369 5 369 143Q369 209 416 417Q300 253 202 130T84 6T47 22T30 55T36 89Q79 218 92 331T106 533T105 644H183Q189 612 189 545T173
357T132 133Q207 229 442 555Q469 594 485 606T525 619T549 596Q549 587 524 510T476 319T453 146T483 87Q504 87 535 117Q612 191 666 320T720 587Q720 609 719 620Z" />
<glyph unicode="X" glyph-name="X" horiz-adv-x="644" d="M326 345Q376 394 612 640L654 596Q607 536 484 415T351 284Q384 213 417 161T476 72T506 27L452 -24Q378 52 293 228Q259 196 212 150T142 82Q87 29 23 -14L-10 31Q-7 34 93 119T267 287Q198 472 175
597L251 611Q299 408 326 345Z" />
<glyph unicode="Y" glyph-name="Y" horiz-adv-x="660" d="M320 9L350 8Q356 29 377 88T408 166Q304 68 247 48Q216 37 184 37Q131 37 102 72T73 170Q73 260 156 410T345 646L385 609Q163 370 163 210Q163 117 236 117T378 197T521 445Q551 514 567 536T598 558T621
549T630 525Q630 461 538 335Q474 203 409 7Q456 4 509 -16L499 -50L393 -35Q334 -179 251 -250T51 -322Q-9 -322 -49 -290T-90 -208Q-90 -118 31 -55T320 9ZM96 -253Q177 -253 239 -188T332 -34Q198 -34 107 -79T16 -190Q16 -218 38 -235T96 -253Z" />
<glyph unicode="Z" glyph-name="Z" horiz-adv-x="658" d="M223 479L228 434Q228 426 223 420T210 413Q191 413 171 446T151 508Q151 571 225 593T433 615T597 607T628 559Q628 542 612 521T547 455T382 313T204 153T126 65Q168 63 180 63Q315 63 375 78T435 130L430
175Q430 183 435 189T448 196Q467 196 487 163T507 101Q507 38 433 16T225 -6T61 2T30 50Q30 77 107 151T304 325T466 468T532 544Q490 546 478 546Q343 546 283 531T223 479Z" />
<glyph unicode="[" glyph-name="bracketleft" horiz-adv-x="355" d="M389 632L280 637Q223 484 158 267T64 -87Q86 -84 193 -73L199 -131L45 -153Q38 -156 30 -156Q-4 -156 -4 -133Q27 34 95 261T224 661Q237 698 278 698Q293 698 335 692T401 684L389 632Z" />
<glyph unicode="\" glyph-name="backslash" horiz-adv-x="263" d="M147 -94Q119 148 46 402Q19 497 -41 690L-2 699Q76 459 116 292T185 -87L147 -94Z" />
<glyph unicode="]" glyph-name="bracketright" horiz-adv-x="308" d="M257 655L145 650L132 701Q282 716 294 716Q328 716 328 689Q328 683 327 679Q291 508 232 285T109 -106Q95 -129 62 -129L-78 -116V-58L67 -69Q115 67 171 285T257 655Z" />
<glyph unicode="^" glyph-name="asciicircum" horiz-adv-x="414" d="M-2 197Q5 218 168 370L221 421Q392 226 404 202L377 179Q248 323 224 342Q198 326 155 287T82 216L52 184L-2 197Z" />
<glyph unicode="_" glyph-name="underscore" horiz-adv-x="450" d="M461 -113L482 -161H-10L-25 -113H461Z" />
<glyph unicode="`" glyph-name="grave" horiz-adv-x="196" d="M163 394L-8 450L60 490L192 412L163 394Z" />
<glyph unicode="a" glyph-name="a" horiz-adv-x="469" d="M439 101L462 84Q448 54 411 27T342 0Q283 0 283 62Q283 91 298 131L261 93Q207 38 168 19T90 0T33 21T13 81Q13 151 67 219T205 331T373 375L375 342L333 333Q242 313 173 253T103 134T151 74Q196 74
262 137T372 285L414 260Q352 135 352 101Q352 87 361 78T380 68T393 69T399 71T406 76T414 82T426 91T439 101Z" />
<glyph unicode="b" glyph-name="b" horiz-adv-x="431" d="M234 324T270 342T339 361T393 339T415 280Q415 187 337 85T169 -18Q142 -18 118 -8L142 36Q158 32 167 32Q228 32 278 100T328 234Q328 255 315 268T280 282Q234 282 173 208T65 15L4 40Q34 193 124 413T274
724L325 706Q259 583 185 401T97 154Q138 226 186 275Z" />
<glyph unicode="c" glyph-name="c" horiz-adv-x="365" d="M281 142L305 122Q281 67 228 34T126 1T44 32T11 117T58 234T179 338T326 379Q336 379 356 377L353 338Q243 333 171 271T98 139Q98 110 116 92T163 74Q209 74 281 142Z" />
<glyph unicode="d" glyph-name="d" horiz-adv-x="559" d="M574 739L625 721L611 695Q501 490 424 298Q373 172 373 109Q373 93 381 84T406 74T447 97L465 80Q452 51 420 27T358 2Q300 2 300 70Q300 110 322 193Q204 -13 91 -13Q52 -13 29 11T6 76Q6 141 58 211T186
325T328 370L331 335Q245 324 171 261T96 131Q96 103 111 87T150 70Q199 70 278 175Q307 213 344 286T404 403T448 490T505 602T574 739Z" />
<glyph unicode="e" glyph-name="e" horiz-adv-x="381" d="M290 118L313 100Q282 57 228 29T123 0T41 30T10 109Q10 201 107 290T305 379Q371 379 371 327Q371 273 302 218T106 118Q115 95 134 82T173 69Q216 69 290 118ZM101 148Q182 176 240 218T298 295Q298
308 288 318T265 328Q218 328 164 270T101 148Z" />
<glyph unicode="f" glyph-name="f" horiz-adv-x="341" d="M224 393L192 272L322 287L293 240L181 225Q168 171 137 62Q70 -174 70 -237L6 -270Q6 -184 80 62Q118 185 127 220Q92 211 63 211Q6 211 6 256Q6 281 44 316Q99 367 175 406Q234 607 260 658Q295 727
324 746Q367 773 413 773T478 747T495 686Q490 560 224 393ZM384 688Q328 688 301 634Q280 592 264 533T241 452Q296 486 359 544T424 645T384 688ZM141 267L163 355Q125 339 104 322T82 293Q82 267 141 267Z" />
<glyph unicode="g" glyph-name="g" horiz-adv-x="449" d="M441 36L442 12Q432 6 351 -24Q319 -215 257 -300T105 -385Q63 -385 38 -358T13 -288Q13 -202 92 -128T303 -10Q318 57 357 179Q290 77 236 41T137 5T71 29T48 93Q48 159 103 227T241 339T403 383L411
348Q300 336 221 270T141 143Q141 117 157 100T196 83Q230 83 299 155T396 278L433 257Q378 110 357 9L441 36ZM297 -40Q210 -80 153 -136T96 -238Q96 -262 110 -277T145 -292Q187 -292 228 -233T297 -40Z" />
<glyph unicode="h" glyph-name="h" horiz-adv-x="433" d="M396 73L419 54Q377 -16 310 -16Q252 -16 252 41Q252 74 280 146T309 242Q309 271 272 271T172 192T65 7L6 28Q58 289 278 727L327 711Q216 489 168 358Q118 222 93 133Q170 260 225 309T322 358Q396 358
396 305Q396 272 359 187T322 74T349 46Q363 46 396 73Z" />
<glyph unicode="i" glyph-name="i" horiz-adv-x="268" d="M214 424Q158 424 158 469Q158 494 172 511T208 528T244 515T258 481T246 442T214 424ZM201 129L221 112Q197 66 158 34T86 1Q30 1 30 79Q30 176 110 332Q128 366 131 372L174 346Q153 308 123 225T92
119T102 85T126 75Q153 75 201 129Z" />
<glyph unicode="j" glyph-name="j" horiz-adv-x="403" d="M316 141Q318 123 318 112Q265 99 222 82Q185 -96 126 -187T-24 -278Q-69 -278 -94 -251T-120 -177Q-120 -92 -46 -23T169 97Q214 268 277 433Q296 483 298 493L348 477Q320 415 280 294T231 118L316 141ZM165
58Q40 -4 7 -40Q-36 -87 -36 -138Q-36 -160 -23 -173T12 -186Q57 -186 98 -118T165 58ZM423 594T413 575T379 556T339 569T322 605T338 647T374 666T409 652T423 616Z" />
<glyph unicode="k" glyph-name="k" horiz-adv-x="453" d="M414 102L439 80Q381 -15 316 -15Q276 -15 234 44T192 141Q192 165 264 189Q291 198 313 216T336 255T325 285T297 296Q187 286 67 0L6 21Q6 64 122 369T288 738L337 720Q202 485 111 174Q189 291 245
330T352 369Q383 369 401 350T420 302T406 248T364 206Q325 180 268 155Q277 108 299 84T349 60Q364 60 414 102Z" />
<glyph unicode="l" glyph-name="l" horiz-adv-x="271" d="M166 96L187 79Q153 26 129 3T74 -21T25 3T6 63Q6 133 98 364T287 772L331 748Q233 558 154 371T75 101Q75 54 110 54Q138 54 166 96Z" />
<glyph unicode="m" glyph-name="m" horiz-adv-x="722" d="M687 130L708 110Q651 8 577 8Q547 8 531 24T514 68T547 163T582 265Q583 281 573 291T544 301T508 293T472 265T440 228T408 177T378 122Q357 81 318 -1L258 20Q258 23 291 133T324 264T314 294T289 304Q244
304 165 192T63 1L6 20Q11 73 53 210T124 398L169 382Q138 313 126 266T105 164Q191 287 249 336T354 386Q405 386 405 335Q405 315 388 256T360 163Q498 385 607 385Q634 385 650 369T666 320T629 212T591 118T599 89T619 80Q645 80 687 130Z" />
<glyph unicode="n" glyph-name="n" horiz-adv-x="464" d="M429 121L450 105Q428 61 390 31T320 1T271 19T253 64T287 158T322 258Q322 272 311 283T283 295Q232 295 180 218T64 -6L4 15Q23 131 58 241T124 400L165 387Q137 316 94 142Q232 378 348 378Q373 378
389 361T406 321T400 280T363 194T331 109T341 83T360 73T375 76T388 85T402 96T416 109T429 121Z" />
<glyph unicode="o" glyph-name="o" horiz-adv-x="331" d="M295 297Q321 254 321 202Q321 121 265 58T133 -6Q75 -6 43 27T10 120Q10 215 84 290T250 366Q267 366 274 365L277 332Q197 332 144 286T91 168Q91 125 112 99T173 72T238 108T262 192T243 281L295 297Z" />
<glyph unicode="p" glyph-name="p" horiz-adv-x="495" d="M235 298T291 339T389 381T454 356T477 291Q477 183 400 92T225 0Q182 0 157 15L181 58Q233 51 246 51Q300 51 347 114T394 243Q394 268 380 284T342 301Q287 301 218 204T88 -36T-18 -342L-78 -321Q-76
-315 -41 -218T29 -24Q123 240 123 265Q123 329 97 381L147 406Q178 363 178 316T159 184Q235 298 291 339Z" />
<glyph unicode="q" glyph-name="q" horiz-adv-x="422" d="M164 -348L110 -326Q110 -258 309 181Q233 79 182 42T90 4Q12 4 12 91Q12 163 61 231T193 341T362 384L371 349Q277 347 190 287T102 144Q102 91 147 91Q180 91 219 128T303 220T375 295L414 273Q193 -171
164 -348Z" />
<glyph unicode="r" glyph-name="r" horiz-adv-x="355" d="M290 354Q315 354 331 337T347 293Q347 239 285 179L261 198Q275 229 275 243Q275 270 245 270T188 232T125 115T69 2L12 27Q67 152 75 174Q102 252 102 372L158 387Q155 322 149 287T120 171Q221 354 290 354Z" />
<glyph unicode="s" glyph-name="s" horiz-adv-x="331" d="M337 391L328 352Q311 354 284 354Q184 354 184 288Q184 274 224 206T265 115Q265 61 229 31T131 0Q47 0 -4 93L34 120Q48 109 64 94T88 72Q107 55 130 55T170 71T187 112T144 204T100 298Q100 347 141
373T250 399T337 391Z" />
<glyph unicode="t" glyph-name="t" horiz-adv-x="330" d="M244 112L266 87Q241 48 206 26T134 4T77 24T56 81Q56 165 119 313Q68 305 17 289L10 328L9 329Q59 350 140 363Q148 378 176 436Q232 551 256 585L299 568Q289 546 264 495T208 378Q253 381 279 381T319
373V330Q305 333 279 333T184 324Q125 192 125 132Q125 109 139 94T178 79T244 112Z" />
<glyph unicode="u" glyph-name="u" horiz-adv-x="440" d="M411 110L432 93Q415 51 379 22T313 -7T266 13T249 67T260 152Q213 78 159 36T68 -6Q12 -6 12 74Q12 142 58 248T125 371L173 350Q132 284 111 220T90 135T103 100T135 87Q175 87 234 160T356 380L407
357Q405 349 362 241T318 112T327 79T346 68T361 69T371 73T379 78T388 85L396 92Q398 95 403 101T411 110Z" />
<glyph unicode="v" glyph-name="v" horiz-adv-x="380" d="M337 358L371 331Q238 156 191 39Q175 0 145 0Q126 0 112 20T93 56T78 126T56 236T37 322T27 360T18 375T11 384L76 378Q105 307 122 224Q126 207 136 156T152 75Q207 181 248 247T337 358Z" />
<glyph unicode="w" glyph-name="w" horiz-adv-x="597" d="M578 389L606 363L546 290Q440 159 389 30Q376 3 363 3T341 6T322 32T307 85T300 138T296 170T294 192T291 210T289 222T286 233T283 243T279 259T273 278Q221 222 184 146Q170 117 129 30Q120 11 105
11T80 14T60 38T45 98Q21 299 -1 372Q28 380 57 380Q62 371 70 325Q87 236 113 116Q162 210 221 289T300 369Q322 369 330 339T345 237T363 117Q457 278 578 389Z" />
<glyph unicode="x" glyph-name="x" horiz-adv-x="444" d="M197 167Q138 114 38 -6L10 17Q29 63 173 209Q135 301 131 360L197 372Q202 365 236 251Q362 341 415 366L434 339Q417 325 374 296Q259 218 253 212Q307 97 382 14L335 -16Q253 44 197 167Z" />
<glyph unicode="y" glyph-name="y" horiz-adv-x="451" d="M421 63L424 37Q420 34 331 1Q319 -65 301 -129T264 -227T220 -294Q170 -360 85 -360Q43 -360 18 -334T-7 -263Q-7 -90 283 15L337 205Q251 76 182 46Q148 30 111 30T51 54T28 124T59 252T130 391L179
370Q176 367 151 317Q107 226 107 182T124 123T174 108T248 147T377 304L413 283Q405 250 378 164T340 31L421 63ZM277 -15Q214 -44 166 -81Q76 -149 76 -213Q76 -237 90 -252T125 -267Q225 -267 277 -15Z" />
<glyph unicode="z" glyph-name="z" horiz-adv-x="419" d="M355 74L354 32Q331 31 291 30T236 29T193 26Q147 23 108 14Q59 3 55 3Q36 3 17 26T-3 71Q-3 113 297 324Q284 325 238 325T76 305L70 339Q138 380 324 380Q363 380 379 374T396 347Q396 324 370 305Q365
301 354 294T312 266T252 223T174 155T84 56Q222 78 270 78T355 74Z" />
<glyph unicode="{" glyph-name="braceleft" horiz-adv-x="291" d="M295 713L288 651Q222 614 204 515Q197 473 190 431Q171 327 110 284Q153 244 153 202T118 84T82 -28T99 -95L85 -149Q38 -101 38 -38Q38 5 67 84T96 196Q96 258 27 292Q109 303 135 428Q146 481
158 536T203 641T295 713Z" />
<glyph unicode="|" glyph-name="bar" horiz-adv-x="164" d="M67 -22L33 -32Q43 179 63 322T139 642L178 633Q129 504 99 303T67 -22Z" />
<glyph unicode="}" glyph-name="braceright" horiz-adv-x="305" d="M-10 -166L11 -98Q57 -56 78 -12T101 68T104 138Q108 219 182 273Q156 296 156 330T185 445T214 568T186 647L191 715Q264 670 264 587Q264 541 236 454T207 336Q207 281 265 265Q218 259 197
229T167 151T147 51T98 -61T-10 -166Z" />
<glyph unicode="~" glyph-name="asciitilde" horiz-adv-x="450" d="M392 333L413 285Q328 198 295 198Q274 198 254 215T219 253T185 291T149 308T116 298Q93 282 47 240L32 288Q83 333 114 353T169 374T215 358T250 322Q287 269 316 269Q331 269 346 284Q366
304 392 333Z" />
<glyph unicode="&#xa1;" glyph-name="exclamdown" horiz-adv-x="304" d="M202 536L249 507Q130 305 58 11H2Q86 343 202 536ZM275 639T288 627T301 596T288 564T257 551T226 564T213 595T225 626T256 639Z" />
<glyph unicode="&#xa2;" glyph-name="cent" horiz-adv-x="425" d="M307 468L345 458Q341 450 321 408Q341 410 355 410T378 407L375 367H344Q342 367 300 361Q251 244 220 99Q244 99 283 117T349 161L373 141Q344 91 296 62T202 27Q190 -31 185 -59L142 -55L160
27Q107 33 74 59T40 136Q40 219 110 295T275 399Q298 453 307 468ZM195 315T161 266T127 169T179 105Q212 244 251 343Q195 315 161 266Z" />
<glyph unicode="&#xa3;" glyph-name="sterling" horiz-adv-x="554" d="M162 4L89 2Q61 2 44 9T27 25T37 50Q80 178 102 224Q34 224 -26 186L-43 228Q6 281 122 281Q240 607 472 607Q514 607 539 588T564 537Q564 484 515 442T409 379T307 358Q305 367 303 391Q385
404 426 435T468 504Q468 527 451 542T406 558Q342 558 291 494T197 278Q230 277 303 277T403 286L424 239Q371 220 177 220Q144 125 89 70Q236 60 369 60Q415 60 462 89L483 56Q456 20 432 10T374 -1L162 4Z" />
<glyph unicode="&#xa5;" glyph-name="yen" horiz-adv-x="574" d="M161 264L6 255L3 287Q37 292 162 299Q162 362 145 459T113 604L172 625Q195 580 213 478T231 307Q297 400 374 478T519 604L560 558Q506 517 429 442T294 298Q356 298 437 289L431 253Q325 261
269 263Q239 211 233 193L419 183L413 147Q348 154 220 158Q205 121 167 -3L99 16Q142 123 147 159Q114 159 16 152L13 188L153 194Q161 247 161 257V264Z" />
<glyph unicode="&#xa6;" glyph-name="brokenbar" horiz-adv-x="172" d="M103 387H64Q82 470 115 576L154 567Q125 493 103 387ZM52 267H88Q69 115 69 30L35 20Q41 166 52 267Z" />
<glyph unicode="&#xa7;" glyph-name="section" horiz-adv-x="610" d="M423 516L438 548Q483 551 513 577T544 640Q544 686 483 686T373 646T324 549Q324 521 344 498T420 463T505 429T535 364Q535 302 482 235T347 144Q386 119 400 99T414 51Q414 -8 367 -58T255
-133T133 -159T44 -140T10 -81Q10 -28 68 16T216 68L207 43Q197 41 173 29T133 6T106 -23T93 -61Q93 -111 159 -111T285 -69T346 23Q346 53 319 75T218 113Q118 133 118 206Q118 269 184 337T328 425Q267 447 256 473Q251 485 251 503Q251 581 337 659T527 737Q619
737 619 666Q619 608 564 562T423 516ZM450 323Q450 357 425 378T367 399Q308 399 254 346T200 235Q200 200 222 181T282 162Q346 162 398 211T450 323Z" />
<glyph unicode="&#xa8;" glyph-name="dieresis" horiz-adv-x="210" d="M-4 426T-4 443T7 471T35 483T63 472T75 444T64 416T35 404T7 415ZM123 426T123 443T134 471T162 483T190 472T202 444T191 416T163 404T135 415Z" />
<glyph unicode="&#xa9;" glyph-name="copyright" horiz-adv-x="486" d="M420 521T455 487T491 388T437 230T296 68T136 -1T31 37T-1 152T53 316T192 463T360 521Q420 521 455 487ZM346 161T380 236T415 369T389 456T315 486T212 439T119 319T82 185T108 88T184
52T290 106ZM311 233L328 219Q311 181 275 158T203 135T146 156T123 211Q123 277 194 338T345 399Q355 399 363 397L361 370L340 369Q278 366 231 323T184 231Q184 212 197 199T229 186Q262 186 311 233Z" />
<glyph unicode="&#xab;" glyph-name="guillemotleft" horiz-adv-x="382" d="M197 397Q98 303 87 287Q110 249 170 190L190 171L176 121Q160 127 46 248L8 289Q155 418 173 427L197 397ZM356 397Q257 303 246 287Q269 249 330 190L349 171L335 121Q319 127 205
248L167 289Q314 418 332 427L356 397Z" />
<glyph unicode="&#xae;" glyph-name="registered" horiz-adv-x="495" d="M362 523Q422 523 457 489T493 390T439 232T298 70T138 1T33 39T1 154T55 318T194 465T362 523ZM349 179Q417 283 417 376Q417 428 391 458T317 488T214 441T121 321T84 187T110 90T188
54T300 117Q274 123 250 161T226 229Q226 253 280 268Q300 273 317 285T334 312Q334 342 308 342Q233 335 154 126L113 142Q113 177 193 402H229Q201 323 183 253L208 292Q272 393 345 395Q366 395 378 382T391 345Q391 307 354 278T277 239Q281 204 296 187T331
170Q336 170 349 179Z" />
<glyph unicode="&#xaf;" glyph-name="overscore" horiz-adv-x="167" d="M247 465V429L70 423L61 454Q94 461 247 465Z" />
<glyph unicode="&#xb0;" glyph-name="degree" horiz-adv-x="186" d="M189 522T150 488T71 454Q-6 454 -6 514Q-6 557 31 590T109 623T169 607T189 565Q189 522 150 488ZM143 560Q143 602 102 602Q81 602 63 578T44 517T80 481Q105 481 124 505T143 560Z" />
<glyph unicode="&#xb1;" glyph-name="plusminus" horiz-adv-x="261" d="M146 200H99Q101 269 103 295L10 284L-2 338Q37 346 107 351Q115 431 121 463L175 451L164 360H261V313L157 301L146 200ZM259 165V118L20 95L8 149Q62 160 152 162T259 165Z" />
<glyph unicode="&#xb4;" glyph-name="acute" horiz-adv-x="196" d="M192 450L21 394L-8 412L124 490L192 450Z" />
<glyph unicode="&#xb5;" glyph-name="mu" horiz-adv-x="489" d="M466 123L487 106Q470 64 434 35T368 6T321 26T304 80T315 165Q262 81 225 42T155 2Q132 2 114 26Q108 35 106 36Q71 -122 62 -168L-2 -181Q12 -93 45 37T117 266T180 384L228 363Q187 297 166 233T145
148T158 113T190 100Q230 100 289 173T411 393L462 370Q460 362 417 254T373 125T382 92T401 81T416 82T426 86T434 91T443 98L450 106Q453 108 458 114T466 123Z" />
<glyph unicode="&#xb7;" glyph-name="middot" horiz-adv-x="72" d="M-10 305T-10 324T3 356T36 370T68 357T82 324T69 292T36 278T4 291Z" />
<glyph unicode="&#xb8;" glyph-name="cedilla" horiz-adv-x="179" d="M69 -55Q93 -42 125 -42T174 -55T191 -88Q191 -125 138 -161T23 -197Q12 -197 -1 -194L0 -170Q51 -170 86 -148T121 -102Q121 -94 114 -88T96 -82T64 -96Q40 -109 33 -109T21 -105T16 -94Q16
-82 52 -11L63 12H101L69 -55Z" />
<glyph unicode="&#xbb;" glyph-name="guillemotright" horiz-adv-x="392" d="M195 289L64 122L38 157Q44 179 107 258L128 284Q113 308 91 335T59 378L92 431Q147 361 195 289ZM375 289L244 122L218 157Q224 179 287 258L308 284Q293 308 271 335T239 378L272
431Q327 361 375 289Z" />
<glyph unicode="&#xbf;" glyph-name="questiondown" horiz-adv-x="441" d="M356 67T294 38T182 8T101 34T70 104Q70 175 160 251L225 306Q324 390 359 460Q366 474 374 486L412 469Q392 398 249 252Q201 203 187 183T173 140Q173 93 221 93Q282 93 336 133T413
251L451 246Q451 181 404 124ZM472 578T459 566T426 554T395 563T384 590T397 621T431 634Q472 634 472 597Q472 578 459 566Z" />
<glyph unicode="&#xc0;" glyph-name="Agrave" horiz-adv-x="810" d="M756 298L751 238Q728 240 702 240T657 239Q643 129 639 0H569Q563 26 563 69T565 143T572 206T576 242Q562 243 510 243T438 241Q322 85 224 5T28 -76Q-20 -76 -52 -47T-85 30Q-85 121 53 196T412
297Q438 337 509 420T649 566Q679 636 696 663T731 691T759 678T770 645T748 585T701 463T668 307Q720 307 756 298ZM246 89Q329 168 371 239Q203 229 112 176T20 63Q20 37 37 22T84 7Q162 7 246 89ZM588 307Q595 341 606 392T620 453Q572 407 553 386T486 303Q503
304 527 304T568 306T588 307ZM777 726L606 782L674 822L806 744L777 726Z" />
<glyph unicode="&#xc1;" glyph-name="Aacute" horiz-adv-x="810" d="M756 298L751 238Q728 240 702 240T657 239Q643 129 639 0H569Q563 26 563 69T565 143T572 206T576 242Q562 243 510 243T438 241Q322 85 224 5T28 -76Q-20 -76 -52 -47T-85 30Q-85 121 53 196T412
297Q438 337 509 420T649 566Q679 636 696 663T731 691T759 678T770 645T748 585T701 463T668 307Q720 307 756 298ZM246 89Q329 168 371 239Q203 229 112 176T20 63Q20 37 37 22T84 7Q162 7 246 89ZM588 307Q595 341 606 392T620 453Q572 407 553 386T486 303Q503
304 527 304T568 306T588 307ZM794 777L623 721L594 739L726 817L794 777Z" />
<glyph unicode="&#xc2;" glyph-name="Acircumflex" horiz-adv-x="810" d="M756 298L751 238Q728 240 702 240T657 239Q643 129 639 0H569Q563 26 563 69T565 143T572 206T576 242Q562 243 510 243T438 241Q322 85 224 5T28 -76Q-20 -76 -52 -47T-85 30Q-85 121
53 196T412 297Q438 337 509 420T649 566Q679 636 696 663T731 691T759 678T770 645T748 585T701 463T668 307Q720 307 756 298ZM246 89Q329 168 371 239Q203 229 112 176T20 63Q20 37 37 22T84 7Q162 7 246 89ZM588 307Q595 341 606 392T620 453Q572 407 553 386T486
303Q503 304 527 304T568 306T588 307ZM550 750L697 864Q805 778 826 756L796 732Q711 783 693 796L594 726L550 750Z" />
<glyph unicode="&#xc3;" glyph-name="Atilde" horiz-adv-x="810" d="M756 298L751 238Q728 240 702 240T657 239Q643 129 639 0H569Q563 26 563 69T565 143T572 206T576 242Q562 243 510 243T438 241Q322 85 224 5T28 -76Q-20 -76 -52 -47T-85 30Q-85 121 53 196T412
297Q438 337 509 420T649 566Q679 636 696 663T731 691T759 678T770 645T748 585T701 463T668 307Q720 307 756 298ZM246 89Q329 168 371 239Q203 229 112 176T20 63Q20 37 37 22T84 7Q162 7 246 89ZM588 307Q595 341 606 392T620 453Q572 407 553 386T486 303Q503
304 527 304T568 306T588 307ZM793 816L816 797Q797 767 773 746T728 725T683 759T639 794Q629 794 619 787T604 776T588 764T572 752L544 778Q618 843 643 843T698 808T742 773Q752 773 768 791T793 816Z" />
<glyph unicode="&#xc4;" glyph-name="Adieresis" horiz-adv-x="810" d="M756 298L751 238Q728 240 702 240T657 239Q643 129 639 0H569Q563 26 563 69T565 143T572 206T576 242Q562 243 510 243T438 241Q322 85 224 5T28 -76Q-20 -76 -52 -47T-85 30Q-85 121 53
196T412 297Q438 337 509 420T649 566Q679 636 696 663T731 691T759 678T770 645T748 585T701 463T668 307Q720 307 756 298ZM246 89Q329 168 371 239Q203 229 112 176T20 63Q20 37 37 22T84 7Q162 7 246 89ZM588 307Q595 341 606 392T620 453Q572 407 553 386T486
303Q503 304 527 304T568 306T588 307ZM606 751T595 762T583 790T594 818T622 830T650 818T662 790T651 763T623 751ZM732 751T721 762T710 790T721 818T749 830T777 818T789 790T778 763T749 751Z" />
<glyph unicode="&#xc5;" glyph-name="Aring" horiz-adv-x="810" d="M756 298L751 238Q728 240 702 240T657 239Q643 129 639 0H569Q563 26 563 69T565 143T572 206T576 242Q562 243 510 243T438 241Q322 85 224 5T28 -76Q-20 -76 -52 -47T-85 30Q-85 121 53 196T412
297Q438 337 509 420T649 566Q679 636 696 663T731 691T759 678T770 645T748 585T701 463T668 307Q720 307 756 298ZM246 89Q329 168 371 239Q203 229 112 176T20 63Q20 37 37 22T84 7Q162 7 246 89ZM588 307Q595 341 606 392T620 453Q572 407 553 386T486 303Q503
304 527 304T568 306T588 307ZM743 845T758 832T774 793T748 743T692 720T647 733T631 774T656 823T712 845ZM709 740T722 759T735 802T714 826Q697 826 683 807T669 764T693 740Q709 740 722 759Z" />
<glyph unicode="&#xc6;" glyph-name="AE" horiz-adv-x="1177" d="M1178 575Q1178 525 1131 486T1022 429T903 411Q888 411 881 412V446Q883 446 939 455T1033 489T1072 543Q1072 579 1018 579Q945 579 880 529T815 424T883 353Q898 349 903 345T908 331T899 315T855
296Q671 233 671 100Q671 73 681 54Q742 132 839 181T1026 230Q1073 230 1101 210T1129 153Q1129 97 1077 41T943 -50T778 -86T650 -56Q649 -57 642 -72Q621 -111 607 -127L574 -113Q581 -85 615 -28Q561 12 561 116Q561 167 576 242Q562 243 510 243T438 241Q322
85 224 5T28 -76Q-20 -76 -52 -47T-85 30Q-85 121 53 196T412 297Q438 337 509 420T649 566Q679 636 696 663T731 691T759 678T770 645T751 591Q692 487 658 246Q704 283 768 308Q721 347 721 389Q721 446 781 505T927 602T1090 639Q1130 639 1154 622T1178 575ZM246
89Q329 168 371 239Q203 229 112 176T20 63Q20 37 37 22T84 7Q162 7 246 89ZM968 170Q909 170 831 125T703 18Q743 -27 816 -27T960 20T1031 123Q1031 145 1014 157T968 170ZM588 307Q595 341 606 392T620 453Q572 407 553 386T486 303Q503 304 527 304T568 306T588
307Z" />
<glyph unicode="&#xc7;" glyph-name="Ccedilla" horiz-adv-x="628" d="M210 -55Q234 -42 266 -42T315 -55T332 -88Q332 -125 279 -161T164 -197Q154 -197 140 -194L141 -170Q192 -170 227 -148T262 -102Q262 -94 255 -88T237 -82T205 -96Q181 -109 174 -109T162
-105T157 -96Q157 -79 195 -6Q136 7 94 53T51 174Q51 271 121 380Q70 410 40 454L67 484Q74 477 86 463Q109 436 148 416Q207 498 319 565T510 632Q547 632 567 612T588 556Q588 478 495 412T283 345Q231 345 173 360Q135 298 135 226T175 109T292 64Q430 64 473
225H520Q509 132 433 61T231 -10L210 -55ZM280 385Q367 385 433 426T499 522Q499 541 486 552T451 564Q390 564 315 516T196 399Q232 385 280 385Z" />
<glyph unicode="&#xc8;" glyph-name="Egrave" horiz-adv-x="689" d="M649 574Q649 524 602 485T493 428T374 410Q359 410 352 411V445Q354 445 410 454T504 488T543 542Q543 578 489 578Q416 578 351 528T286 423T354 352Q369 348 374 344T379 330T370 314T326
295Q142 232 142 99Q142 72 152 53Q213 131 310 180T497 229Q544 229 572 209T600 152Q600 96 548 40T414 -51T250 -87T121 -57Q120 -58 112 -72Q92 -112 78 -128L45 -114Q52 -86 86 -29Q40 23 40 87T92 210T239 307Q192 346 192 388Q192 445 252 504T398 601T561
638Q601 638 625 621T649 574ZM439 169Q380 169 302 124T174 17Q214 -28 287 -28T431 19T502 122Q502 144 485 156T439 169ZM568 683L397 739L465 779L597 701L568 683Z" />
<glyph unicode="&#xc9;" glyph-name="Eacute" horiz-adv-x="689" d="M649 574Q649 524 602 485T493 428T374 410Q359 410 352 411V445Q354 445 410 454T504 488T543 542Q543 578 489 578Q416 578 351 528T286 423T354 352Q369 348 374 344T379 330T370 314T326
295Q142 232 142 99Q142 72 152 53Q213 131 310 180T497 229Q544 229 572 209T600 152Q600 96 548 40T414 -51T250 -87T121 -57Q120 -58 112 -72Q92 -112 78 -128L45 -114Q52 -86 86 -29Q40 23 40 87T92 210T239 307Q192 346 192 388Q192 445 252 504T398 601T561
638Q601 638 625 621T649 574ZM439 169Q380 169 302 124T174 17Q214 -28 287 -28T431 19T502 122Q502 144 485 156T439 169ZM595 722L424 666L395 684L527 762L595 722Z" />
<glyph unicode="&#xca;" glyph-name="Ecircumflex" horiz-adv-x="689" d="M649 574Q649 524 602 485T493 428T374 410Q359 410 352 411V445Q354 445 410 454T504 488T543 542Q543 578 489 578Q416 578 351 528T286 423T354 352Q369 348 374 344T379 330T370 314T326
295Q142 232 142 99Q142 72 152 53Q213 131 310 180T497 229Q544 229 572 209T600 152Q600 96 548 40T414 -51T250 -87T121 -57Q120 -58 112 -72Q92 -112 78 -128L45 -114Q52 -86 86 -29Q40 23 40 87T92 210T239 307Q192 346 192 388Q192 445 252 504T398 601T561
638Q601 638 625 621T649 574ZM439 169Q380 169 302 124T174 17Q214 -28 287 -28T431 19T502 122Q502 144 485 156T439 169ZM366 682L513 796Q621 710 642 688L612 664Q527 715 509 728L410 658L366 682Z" />
<glyph unicode="&#xcb;" glyph-name="Edieresis" horiz-adv-x="689" d="M649 574Q649 524 602 485T493 428T374 410Q359 410 352 411V445Q354 445 410 454T504 488T543 542Q543 578 489 578Q416 578 351 528T286 423T354 352Q369 348 374 344T379 330T370 314T326
295Q142 232 142 99Q142 72 152 53Q213 131 310 180T497 229Q544 229 572 209T600 152Q600 96 548 40T414 -51T250 -87T121 -57Q120 -58 112 -72Q92 -112 78 -128L45 -114Q52 -86 86 -29Q40 23 40 87T92 210T239 307Q192 346 192 388Q192 445 252 504T398 601T561
638Q601 638 625 621T649 574ZM439 169Q380 169 302 124T174 17Q214 -28 287 -28T431 19T502 122Q502 144 485 156T439 169ZM409 704T409 721T420 749T448 761T476 750T488 722T477 694T449 682T421 693ZM536 704T536 721T547 749T575 761T603 750T615 722T604
694T575 682T547 693Z" />
<glyph unicode="&#xcc;" glyph-name="Igrave" horiz-adv-x="606" d="M599 616Q616 611 616 598Q616 594 604 580Q558 521 540 492T496 395T450 265T429 201Q388 109 316 56T165 3Q109 3 75 30T40 104Q40 176 133 236T319 296L323 263Q249 248 196 208T142 121Q142
91 159 72T204 53Q255 53 292 100T367 269T437 446T517 540Q503 541 486 541Q400 541 319 514T237 442Q237 414 262 389L240 362Q173 409 173 471Q173 512 208 542T304 588Q419 619 562 619Q593 619 599 616ZM553 667L382 723L450 763L582 685L553 667Z" />
<glyph unicode="&#xcd;" glyph-name="Iacute" horiz-adv-x="606" d="M599 616Q616 611 616 598Q616 594 604 580Q558 521 540 492T496 395T450 265T429 201Q388 109 316 56T165 3Q109 3 75 30T40 104Q40 176 133 236T319 296L323 263Q249 248 196 208T142 121Q142
91 159 72T204 53Q255 53 292 100T367 269T437 446T517 540Q503 541 486 541Q400 541 319 514T237 442Q237 414 262 389L240 362Q173 409 173 471Q173 512 208 542T304 588Q419 619 562 619Q593 619 599 616ZM567 728L396 672L367 690L499 768L567 728Z" />
<glyph unicode="&#xce;" glyph-name="Icircumflex" horiz-adv-x="606" d="M599 616Q616 611 616 598Q616 594 604 580Q558 521 540 492T496 395T450 265T429 201Q388 109 316 56T165 3Q109 3 75 30T40 104Q40 176 133 236T319 296L323 263Q249 248 196 208T142
121Q142 91 159 72T204 53Q255 53 292 100T367 269T437 446T517 540Q503 541 486 541Q400 541 319 514T237 442Q237 414 262 389L240 362Q173 409 173 471Q173 512 208 542T304 588Q419 619 562 619Q593 619 599 616ZM306 688L453 802Q561 716 582 694L552 670Q467
721 449 734L350 664L306 688Z" />
<glyph unicode="&#xcf;" glyph-name="Idieresis" horiz-adv-x="606" d="M599 616Q616 611 616 598Q616 594 604 580Q558 521 540 492T496 395T450 265T429 201Q388 109 316 56T165 3Q109 3 75 30T40 104Q40 176 133 236T319 296L323 263Q249 248 196 208T142 121Q142
91 159 72T204 53Q255 53 292 100T367 269T437 446T517 540Q503 541 486 541Q400 541 319 514T237 442Q237 414 262 389L240 362Q173 409 173 471Q173 512 208 542T304 588Q419 619 562 619Q593 619 599 616ZM354 706T354 723T365 751T393 763T421 752T433 724T422
696T393 684T365 695ZM481 706T481 723T492 751T520 763T548 752T560 724T549 696T521 684T493 695Z" />
<glyph unicode="&#xd0;" glyph-name="Eth" horiz-adv-x="744" d="M283 638Q457 638 580 535T704 294T620 76T407 -2Q338 -1 297 -1H250Q221 -1 221 21Q221 26 246 79T280 155L171 139L181 200Q245 211 302 217Q314 252 323 291Q220 291 130 348T40 477T108 594T283
638ZM496 235V188L345 165Q326 118 306 73Q406 65 472 65T578 114T617 248Q617 393 518 495T279 597Q213 597 175 569T137 487T189 390T330 336Q361 467 366 505L426 499Q426 437 400 335Q408 335 493 345L498 312Q478 305 387 291Q371 240 366 225Q416 230 496
235Z" />
<glyph unicode="&#xd1;" glyph-name="Ntilde" horiz-adv-x="744" d="M686 611L744 604Q726 526 696 422T640 253T586 125T523 25T459 -12T414 11T399 92T416 338T433 542T425 559Q414 559 399 529T376 482Q355 435 349 416Q293 290 249 208T148 56Q128 32 91 7T22
-31L0 28Q83 63 150 149T288 391T391 600Q426 657 462 657Q485 657 498 641T511 600T494 389T476 152T480 85T496 69Q510 69 526 99Q581 206 686 611ZM679 781L702 762Q683 732 659 711T614 690T569 724T525 759Q515 759 505 752T490 741T474 729T458 717L430 743Q504
808 529 808T584 773T628 738Q638 738 654 756T679 781Z" />
<glyph unicode="&#xd2;" glyph-name="Ograve" horiz-adv-x="714" d="M714 492V444Q669 418 548 373Q494 238 377 122T163 6Q108 6 74 45T40 152T86 317T207 498T360 623Q392 644 460 644Q511 644 543 605T576 512T568 431Q644 456 714 492ZM317 527Q284 493 284
462T316 412T396 393T481 402Q487 432 487 460Q487 559 402 559Q363 559 317 527ZM330 149Q428 246 467 351Q442 346 403 346Q235 346 213 421Q129 304 129 191Q129 146 150 119T214 92Q273 92 330 149ZM486 675L315 731L383 771L515 693L486 675Z" />
<glyph unicode="&#xd3;" glyph-name="Oacute" horiz-adv-x="714" d="M714 492V444Q669 418 548 373Q494 238 377 122T163 6Q108 6 74 45T40 152T86 317T207 498T360 623Q392 644 460 644Q511 644 543 605T576 512T568 431Q644 456 714 492ZM317 527Q284 493 284
462T316 412T396 393T481 402Q487 432 487 460Q487 559 402 559Q363 559 317 527ZM330 149Q428 246 467 351Q442 346 403 346Q235 346 213 421Q129 304 129 191Q129 146 150 119T214 92Q273 92 330 149ZM527 729L356 673L327 691L459 769L527 729Z" />
<glyph unicode="&#xd4;" glyph-name="Ocircumflex" horiz-adv-x="714" d="M714 492V444Q669 418 548 373Q494 238 377 122T163 6Q108 6 74 45T40 152T86 317T207 498T360 623Q392 644 460 644Q511 644 543 605T576 512T568 431Q644 456 714 492ZM317 527Q284 493
284 462T316 412T396 393T481 402Q487 432 487 460Q487 559 402 559Q363 559 317 527ZM330 149Q428 246 467 351Q442 346 403 346Q235 346 213 421Q129 304 129 191Q129 146 150 119T214 92Q273 92 330 149ZM291 694L438 808Q546 722 567 700L537 676Q452 727 434
740L335 670L291 694Z" />
<glyph unicode="&#xd5;" glyph-name="Otilde" horiz-adv-x="714" d="M714 492V444Q669 418 548 373Q494 238 377 122T163 6Q108 6 74 45T40 152T86 317T207 498T360 623Q392 644 460 644Q511 644 543 605T576 512T568 431Q644 456 714 492ZM317 527Q284 493 284
462T316 412T396 393T481 402Q487 432 487 460Q487 559 402 559Q363 559 317 527ZM330 149Q428 246 467 351Q442 346 403 346Q235 346 213 421Q129 304 129 191Q129 146 150 119T214 92Q273 92 330 149ZM545 778L568 759Q549 729 525 708T480 687T435 721T391 756Q381
756 371 749T356 738T340 726T324 714L296 740Q370 805 395 805T450 770T494 735Q504 735 520 753T545 778Z" />
<glyph unicode="&#xd6;" glyph-name="Odieresis" horiz-adv-x="714" d="M714 492V444Q669 418 548 373Q494 238 377 122T163 6Q108 6 74 45T40 152T86 317T207 498T360 623Q392 644 460 644Q511 644 543 605T576 512T568 431Q644 456 714 492ZM317 527Q284 493
284 462T316 412T396 393T481 402Q487 432 487 460Q487 559 402 559Q363 559 317 527ZM330 149Q428 246 467 351Q442 346 403 346Q235 346 213 421Q129 304 129 191Q129 146 150 119T214 92Q273 92 330 149ZM350 679T339 690T328 718T339 746T367 758T395 746T407
718T396 691T367 679ZM478 679T467 690T455 718T466 746T494 758T522 746T534 718T523 691T495 679Z" />
<glyph unicode="&#xd7;" glyph-name="multiply" horiz-adv-x="261" d="M66 206L37 243Q68 272 103 303L29 361L59 408Q94 384 145 340Q213 395 234 409L264 363L188 303L260 238L227 204L145 269L66 206ZM256 165V118L36 88L24 142Q113 159 256 165Z" />
<glyph unicode="&#xd8;" glyph-name="Oslash" horiz-adv-x="549" d="M227 -92L189 -85Q193 -46 203 18Q176 9 149 9Q97 9 65 47T33 152Q33 294 128 429T347 610L376 701L415 692L394 624Q422 628 437 628Q492 628 516 592T540 505Q540 424 497 328T386 153T245
35Q234 -26 227 -92ZM183 108Q199 108 219 113Q256 315 321 528Q241 488 174 388T106 202Q106 159 128 134T183 108ZM378 542H368Q296 305 261 131Q342 177 405 287T468 476Q468 508 444 525T378 542Z" />
<glyph unicode="&#xd9;" glyph-name="Ugrave" horiz-adv-x="721" d="M573 78L605 52Q593 18 564 -10T501 -39Q455 -39 426 6T388 136Q342 86 273 42T152 -3T70 32T40 122Q40 247 162 419T409 664L436 626Q322 541 227 402T132 158Q132 119 150 98T202 76T296 115T386
188Q391 285 432 385T531 548T639 612Q681 612 681 561T606 391T457 201Q455 185 455 175Q455 131 472 84T519 36Q544 36 573 78ZM588 518Q555 518 515 441T464 276Q526 350 563 412T601 503Q601 518 588 518ZM632 668L461 724L529 764L661 686L632 668Z" />
<glyph unicode="&#xda;" glyph-name="Uacute" horiz-adv-x="721" d="M573 78L605 52Q593 18 564 -10T501 -39Q455 -39 426 6T388 136Q342 86 273 42T152 -3T70 32T40 122Q40 247 162 419T409 664L436 626Q322 541 227 402T132 158Q132 119 150 98T202 76T296 115T386
188Q391 285 432 385T531 548T639 612Q681 612 681 561T606 391T457 201Q455 185 455 175Q455 131 472 84T519 36Q544 36 573 78ZM588 518Q555 518 515 441T464 276Q526 350 563 412T601 503Q601 518 588 518ZM652 727L481 671L452 689L584 767L652 727Z" />
<glyph unicode="&#xdb;" glyph-name="Ucircumflex" horiz-adv-x="721" d="M573 78L605 52Q593 18 564 -10T501 -39Q455 -39 426 6T388 136Q342 86 273 42T152 -3T70 32T40 122Q40 247 162 419T409 664L436 626Q322 541 227 402T132 158Q132 119 150 98T202 76T296
115T386 188Q391 285 432 385T531 548T639 612Q681 612 681 561T606 391T457 201Q455 185 455 175Q455 131 472 84T519 36Q544 36 573 78ZM588 518Q555 518 515 441T464 276Q526 350 563 412T601 503Q601 518 588 518ZM430 684L577 798Q685 712 706 690L676 666Q591
717 573 730L474 660L430 684Z" />
<glyph unicode="&#xdc;" glyph-name="Udieresis" horiz-adv-x="721" d="M573 78L605 52Q593 18 564 -10T501 -39Q455 -39 426 6T388 136Q342 86 273 42T152 -3T70 32T40 122Q40 247 162 419T409 664L436 626Q322 541 227 402T132 158Q132 119 150 98T202 76T296
115T386 188Q391 285 432 385T531 548T639 612Q681 612 681 561T606 391T457 201Q455 185 455 175Q455 131 472 84T519 36Q544 36 573 78ZM588 518Q555 518 515 441T464 276Q526 350 563 412T601 503Q601 518 588 518ZM453 700T453 717T464 745T492 757T520 746T532
718T521 690T493 678T465 689ZM580 700T580 717T591 745T619 757T647 746T659 718T648 690T619 678T591 689Z" />
<glyph unicode="&#xdd;" glyph-name="Yacute" horiz-adv-x="680" d="M330 9L360 8Q366 29 387 88T418 166Q314 68 257 48Q226 37 194 37Q141 37 112 72T83 170Q83 260 166 410T355 646L395 609Q173 370 173 210Q173 117 246 117T388 197T531 445Q561 514 577 536T608
558T631 549T640 525Q640 461 548 335Q484 203 419 7Q466 4 519 -16L509 -50L403 -35Q344 -179 261 -250T61 -322Q1 -322 -39 -290T-80 -208Q-80 -118 41 -55T330 9ZM106 -253Q187 -253 249 -188T342 -34Q208 -34 117 -79T26 -190Q26 -218 48 -235T106 -253ZM624
722L453 666L424 684L556 762L624 722Z" />
<glyph unicode="&#xde;" glyph-name="Thorn" horiz-adv-x="678" d="M388 717L390 605Q390 528 384 492Q466 548 496 560T566 573T629 545T651 465Q651 372 591 265T441 86T271 13Q251 13 225 15Q178 -85 140 -133T60 -181Q35 -181 21 -163T7 -113Q7 -10 100 155T307
425Q323 477 323 545L316 705L388 717ZM155 87L183 73Q246 196 289 349Q196 233 140 121T83 -54Q83 -73 94 -73T126 -42T162 27Q149 33 137 45L155 87ZM246 59L265 58Q362 58 447 160Q495 219 528 295T562 424Q562 453 547 470T504 487Q455 487 374 433Q356 298
246 59Z" />
<glyph unicode="&#xdf;" glyph-name="germandbls" horiz-adv-x="352" d="M81 3L35 13Q41 49 110 244T205 477Q240 526 288 526Q320 526 339 506T358 445T330 361T228 253Q200 229 198 208Q198 185 223 148T252 99T257 62T235 14T179 -8T118 15L134 62Q158 45 180
45T202 70Q202 78 179 125T155 183Q155 222 209 277T282 363T302 420Q302 465 276 465Q206 465 81 3Z" />
<glyph unicode="&#xe0;" glyph-name="agrave" horiz-adv-x="489" d="M449 101L472 84Q458 54 421 27T352 0Q293 0 293 62Q293 91 308 131L271 93Q217 38 178 19T100 0T43 21T23 81Q23 151 77 219T215 331T383 375L385 342L343 333Q252 313 183 253T113 134T161
74Q206 74 272 137T382 285L424 260Q362 135 362 101Q362 87 371 78T390 68T403 69T409 71T416 76T424 82T436 91T449 101ZM346 400L175 456L243 496L375 418L346 400Z" />
<glyph unicode="&#xe1;" glyph-name="aacute" horiz-adv-x="489" d="M449 101L472 84Q458 54 421 27T352 0Q293 0 293 62Q293 91 308 131L271 93Q217 38 178 19T100 0T43 21T23 81Q23 151 77 219T215 331T383 375L385 342L343 333Q252 313 183 253T113 134T161
74Q206 74 272 137T382 285L424 260Q362 135 362 101Q362 87 371 78T390 68T403 69T409 71T416 76T424 82T436 91T449 101ZM384 452L213 396L184 414L316 492L384 452Z" />
<glyph unicode="&#xe2;" glyph-name="acircumflex" horiz-adv-x="489" d="M449 101L472 84Q458 54 421 27T352 0Q293 0 293 62Q293 91 308 131L271 93Q217 38 178 19T100 0T43 21T23 81Q23 151 77 219T215 331T383 375L385 342L343 333Q252 313 183 253T113 134T161
74Q206 74 272 137T382 285L424 260Q362 135 362 101Q362 87 371 78T390 68T403 69T409 71T416 76T424 82T436 91T449 101ZM152 407L299 521Q407 435 428 413L398 389Q313 440 295 453L196 383L152 407Z" />
<glyph unicode="&#xe3;" glyph-name="atilde" horiz-adv-x="489" d="M449 101L472 84Q458 54 421 27T352 0Q293 0 293 62Q293 91 308 131L271 93Q217 38 178 19T100 0T43 21T23 81Q23 151 77 219T215 331T383 375L385 342L343 333Q252 313 183 253T113 134T161
74Q206 74 272 137T382 285L424 260Q362 135 362 101Q362 87 371 78T390 68T403 69T409 71T416 76T424 82T436 91T449 101ZM418 493L441 474Q422 444 398 423T353 402T308 436T264 471Q254 471 244 464T229 453T213 441T197 429L169 455Q243 520 268 520T323 485T367
450Q377 450 393 468T418 493Z" />
<glyph unicode="&#xe4;" glyph-name="adieresis" horiz-adv-x="489" d="M449 101L472 84Q458 54 421 27T352 0Q293 0 293 62Q293 91 308 131L271 93Q217 38 178 19T100 0T43 21T23 81Q23 151 77 219T215 331T383 375L385 342L343 333Q252 313 183 253T113 134T161
74Q206 74 272 137T382 285L424 260Q362 135 362 101Q362 87 371 78T390 68T403 69T409 71T416 76T424 82T436 91T449 101ZM234 407T223 418T212 446T223 474T251 486T279 474T291 446T280 419T251 407ZM362 407T351 418T339 446T350 474T378 486T406 474T418 446T407
419T379 407Z" />
<glyph unicode="&#xe5;" glyph-name="aring" horiz-adv-x="489" d="M449 101L472 84Q458 54 421 27T352 0Q293 0 293 62Q293 91 308 131L271 93Q217 38 178 19T100 0T43 21T23 81Q23 151 77 219T215 331T383 375L385 342L343 333Q252 313 183 253T113 134T161
74Q206 74 272 137T382 285L424 260Q362 135 362 101Q362 87 371 78T390 68T403 69T409 71T416 76T424 82T436 91T449 101ZM355 536T370 523T386 484T360 434T304 411T259 424T243 465T268 514T324 536ZM321 431T334 450T347 493T326 517Q309 517 295 498T281 455T305
431Q321 431 334 450Z" />
<glyph unicode="&#xe6;" glyph-name="ae" horiz-adv-x="761" d="M677 118L700 100Q669 57 615 29T507 0T420 38Q375 0 337 0Q278 0 278 62Q278 91 293 131L256 93Q202 38 163 19T85 0T28 21T8 81Q8 151 62 219T200 331T368 375L370 342L328 333Q237 313 168 253T98
134T146 74Q191 74 257 137T367 285L409 260Q347 135 347 101Q347 87 356 78T378 68T401 75Q397 90 397 109Q397 201 494 290T692 379Q758 379 758 327Q758 273 689 218T493 118Q502 95 521 82T560 69Q604 69 677 118ZM488 148Q569 176 627 218T685 295Q685 308
676 318T652 328Q605 328 551 270T488 148Z" />
<glyph unicode="&#xe7;" glyph-name="ccedilla" horiz-adv-x="385" d="M121 -52Q145 -39 177 -39T226 -52T243 -85Q243 -122 190 -158T75 -194Q64 -194 51 -191L52 -167Q103 -167 138 -145T173 -99Q173 -91 166 -85T148 -79T116 -93Q92 -106 85 -106T73 -102T68
-93Q68 -75 109 4Q68 12 45 41T21 110Q21 171 68 234T189 338T336 379Q346 379 366 377L363 338Q253 333 181 271T108 139Q108 110 126 92T173 74Q219 74 291 142L315 122Q292 69 242 37T146 1L121 -52Z" />
<glyph unicode="&#xe8;" glyph-name="egrave" horiz-adv-x="401" d="M300 118L323 100Q292 57 238 29T133 0T51 30T20 109Q20 201 117 290T315 379Q381 379 381 327Q381 273 312 218T116 118Q125 95 144 82T183 69Q226 69 300 118ZM111 148Q192 176 250 218T308
295Q308 308 298 318T275 328Q228 328 174 270T111 148ZM322 404L151 460L219 500L351 422L322 404Z" />
<glyph unicode="&#xe9;" glyph-name="eacute" horiz-adv-x="401" d="M300 118L323 100Q292 57 238 29T133 0T51 30T20 109Q20 201 117 290T315 379Q381 379 381 327Q381 273 312 218T116 118Q125 95 144 82T183 69Q226 69 300 118ZM111 148Q192 176 250 218T308
295Q308 308 298 318T275 328Q228 328 174 270T111 148ZM366 461L195 405L166 423L298 501L366 461Z" />
<glyph unicode="&#xea;" glyph-name="ecircumflex" horiz-adv-x="401" d="M300 118L323 100Q292 57 238 29T133 0T51 30T20 109Q20 201 117 290T315 379Q381 379 381 327Q381 273 312 218T116 118Q125 95 144 82T183 69Q226 69 300 118ZM111 148Q192 176 250 218T308
295Q308 308 298 318T275 328Q228 328 174 270T111 148ZM104 423L251 537Q359 451 380 429L350 405Q265 456 247 469L148 399L104 423Z" />
<glyph unicode="&#xeb;" glyph-name="edieresis" horiz-adv-x="401" d="M300 118L323 100Q292 57 238 29T133 0T51 30T20 109Q20 201 117 290T315 379Q381 379 381 327Q381 273 312 218T116 118Q125 95 144 82T183 69Q226 69 300 118ZM111 148Q192 176 250 218T308
295Q308 308 298 318T275 328Q228 328 174 270T111 148ZM159 440T159 457T170 485T198 497T226 486T238 458T227 430T199 418T171 429ZM286 440T286 457T297 485T325 497T353 486T365 458T354 430T325 418T297 429Z" />
<glyph unicode="&#xec;" glyph-name="igrave" horiz-adv-x="288" d="M217 407L46 463L114 503L246 425L217 407ZM211 129L231 112Q207 66 168 34T96 1Q40 1 40 79Q40 176 120 332Q138 366 141 372L184 346Q163 308 133 225T102 119T112 85T136 75Q163 75 211 129Z" />
<glyph unicode="&#xed;" glyph-name="iacute" horiz-adv-x="288" d="M211 129L231 112Q207 66 168 34T96 1Q40 1 40 79Q40 176 120 332Q138 366 141 372L184 346Q163 308 133 225T102 119T112 85T136 75Q163 75 211 129ZM273 463L102 407L73 425L205 503L273 463Z" />
<glyph unicode="&#xee;" glyph-name="icircumflex" horiz-adv-x="288" d="M211 129L231 112Q207 66 168 34T96 1Q40 1 40 79Q40 176 120 332Q138 366 141 372L184 346Q163 308 133 225T102 119T112 85T136 75Q163 75 211 129ZM18 413L165 527Q273 441 294 419L264
395Q179 446 161 459L62 389L18 413Z" />
<glyph unicode="&#xef;" glyph-name="idieresis" horiz-adv-x="288" d="M211 129L231 112Q207 66 168 34T96 1Q40 1 40 79Q40 176 120 332Q138 366 141 372L184 346Q163 308 133 225T102 119T112 85T136 75Q163 75 211 129ZM60 434T60 451T71 479T99 491T127 480T139
452T128 424T99 412T71 423ZM187 434T187 451T198 479T226 491T254 480T266 452T255 424T227 412T199 423Z" />
<glyph unicode="&#xf0;" glyph-name="eth" horiz-adv-x="371" d="M298 528L315 479L232 458Q284 386 311 328T338 205Q338 119 279 60T139 1Q81 1 49 34T16 131T57 257T161 350L174 311Q97 263 97 175Q97 132 118 106T177 79T247 107T279 189T252 301T171 443L70
418L52 470Q86 482 139 495L98 555L126 625Q131 615 197 509Q229 516 298 528Z" />
<glyph unicode="&#xf1;" glyph-name="ntilde" horiz-adv-x="484" d="M439 121L460 105Q438 61 400 31T330 1T281 19T263 64T297 158T332 258Q332 272 321 283T293 295Q242 295 190 218T74 -6L14 15Q33 131 68 241T134 400L175 387Q147 316 104 142Q242 378 358
378Q383 378 399 361T416 321T410 280T373 194T341 109T351 83T370 73T385 76T398 85T412 96T426 109T439 121ZM355 497L378 478Q359 448 335 427T290 406T245 440T201 475Q191 475 181 468T166 457T150 445T134 433L106 459Q180 524 205 524T260 489T304 454Q314
454 330 472T355 497Z" />
<glyph unicode="&#xf2;" glyph-name="ograve" horiz-adv-x="351" d="M305 297Q331 254 331 202Q331 121 275 58T143 -6Q85 -6 53 27T20 120Q20 215 94 290T260 366Q277 366 284 365L287 332Q207 332 154 286T101 168Q101 125 122 99T183 72T248 108T272 192T253
281L305 297ZM274 394L103 450L171 490L303 412L274 394Z" />
<glyph unicode="&#xf3;" glyph-name="oacute" horiz-adv-x="351" d="M305 297Q331 254 331 202Q331 121 275 58T143 -6Q85 -6 53 27T20 120Q20 215 94 290T260 366Q277 366 284 365L287 332Q207 332 154 286T101 168Q101 125 122 99T183 72T248 108T272 192T253
281L305 297ZM306 449L135 393L106 411L238 489L306 449Z" />
<glyph unicode="&#xf4;" glyph-name="ocircumflex" horiz-adv-x="351" d="M305 297Q331 254 331 202Q331 121 275 58T143 -6Q85 -6 53 27T20 120Q20 215 94 290T260 366Q277 366 284 365L287 332Q207 332 154 286T101 168Q101 125 122 99T183 72T248 108T272 192T253
281L305 297ZM68 407L215 521Q323 435 344 413L314 389Q229 440 211 453L112 383L68 407Z" />
<glyph unicode="&#xf5;" glyph-name="otilde" horiz-adv-x="351" d="M305 297Q331 254 331 202Q331 121 275 58T143 -6Q85 -6 53 27T20 120Q20 215 94 290T260 366Q277 366 284 365L287 332Q207 332 154 286T101 168Q101 125 122 99T183 72T248 108T272 192T253
281L305 297ZM315 498L338 479Q319 449 295 428T250 407T205 441T161 476Q151 476 141 469T126 458T110 446T94 434L66 460Q140 525 165 525T220 490T264 455Q274 455 290 473T315 498Z" />
<glyph unicode="&#xf6;" glyph-name="odieresis" horiz-adv-x="351" d="M305 297Q331 254 331 202Q331 121 275 58T143 -6Q85 -6 53 27T20 120Q20 215 94 290T260 366Q277 366 284 365L287 332Q207 332 154 286T101 168Q101 125 122 99T183 72T248 108T272 192T253
281L305 297ZM111 428T111 445T122 473T150 485T178 474T190 446T179 418T151 406T123 417ZM238 428T238 445T249 473T277 485T305 474T317 446T306 418T277 406T249 417Z" />
<glyph unicode="&#xf7;" glyph-name="divide" horiz-adv-x="252" d="M241 292V245L11 215L-1 269Q86 286 241 292ZM112 325T101 336T90 364T101 392T129 404T157 392T169 364T158 337T129 325ZM83 132T83 149T94 177T122 189T150 178T162 150T151 122T123 110T95 121Z" />
<glyph unicode="&#xf8;" glyph-name="oslash" horiz-adv-x="391" d="M263 365L280 366Q297 366 304 365L307 332Q283 332 253 325Q223 207 209 73Q244 78 268 109T292 185Q292 207 284 237T273 281L325 297Q337 282 344 254T351 209Q351 133 309 74T203 -1Q200
-43 200 -80L166 -90Q167 -56 171 -6H163Q105 -6 73 27T40 120Q40 199 94 267T224 358Q241 425 259 481L298 472Q277 416 263 365ZM170 291T146 254T121 174Q121 90 177 75Q189 204 213 312Q170 291 146 254Z" />
<glyph unicode="&#xf9;" glyph-name="ugrave" horiz-adv-x="460" d="M421 110L442 93Q425 51 389 22T323 -7T276 13T259 67T270 152Q223 78 169 36T78 -6Q22 -6 22 74Q22 142 68 248T135 371L183 350Q142 284 121 220T100 135T113 100T145 87Q185 87 244 160T366
380L417 357Q415 349 372 241T328 112T337 79T356 68T371 69T381 73T389 78T398 85L406 92Q408 95 413 101T421 110ZM332 397L161 453L229 493L361 415L332 397Z" />
<glyph unicode="&#xfa;" glyph-name="uacute" horiz-adv-x="460" d="M421 110L442 93Q425 51 389 22T323 -7T276 13T259 67T270 152Q223 78 169 36T78 -6Q22 -6 22 74Q22 142 68 248T135 371L183 350Q142 284 121 220T100 135T113 100T145 87Q185 87 244 160T366
380L417 357Q415 349 372 241T328 112T337 79T356 68T371 69T381 73T389 78T398 85L406 92Q408 95 413 101T421 110ZM365 456L194 400L165 418L297 496L365 456Z" />
<glyph unicode="&#xfb;" glyph-name="ucircumflex" horiz-adv-x="460" d="M421 110L442 93Q425 51 389 22T323 -7T276 13T259 67T270 152Q223 78 169 36T78 -6Q22 -6 22 74Q22 142 68 248T135 371L183 350Q142 284 121 220T100 135T113 100T145 87Q185 87 244
160T366 380L417 357Q415 349 372 241T328 112T337 79T356 68T371 69T381 73T389 78T398 85L406 92Q408 95 413 101T421 110ZM129 416L276 530Q384 444 405 422L375 398Q290 449 272 462L173 392L129 416Z" />
<glyph unicode="&#xfc;" glyph-name="udieresis" horiz-adv-x="460" d="M421 110L442 93Q425 51 389 22T323 -7T276 13T259 67T270 152Q223 78 169 36T78 -6Q22 -6 22 74Q22 142 68 248T135 371L183 350Q142 284 121 220T100 135T113 100T145 87Q185 87 244 160T366
380L417 357Q415 349 372 241T328 112T337 79T356 68T371 69T381 73T389 78T398 85L406 92Q408 95 413 101T421 110ZM179 436T179 453T190 481T218 493T246 482T258 454T247 426T219 414T191 425ZM306 436T306 453T317 481T345 493T373 482T385 454T374 426T345
414T317 425Z" />
<glyph unicode="&#xfd;" glyph-name="yacute" horiz-adv-x="471" d="M431 63L434 37Q430 34 341 1Q329 -65 311 -129T274 -227T230 -294Q180 -360 95 -360Q53 -360 28 -334T3 -263Q3 -90 293 15L347 205Q261 76 192 46Q158 30 121 30T61 54T38 124T69 252T140
391L189 370Q186 367 161 317Q117 226 117 182T134 123T184 108T258 147T387 304L423 283Q415 250 388 164T350 31L431 63ZM287 -15Q224 -44 176 -81Q86 -149 86 -213Q86 -237 100 -252T135 -267Q235 -267 287 -15ZM418 450L247 394L218 412L350 490L418 450Z"
/>
<glyph unicode="&#xfe;" glyph-name="thorn" horiz-adv-x="515" d="M245 298T301 339T399 381T464 356T487 291Q487 183 410 92T235 0Q192 0 167 15L191 58Q244 51 256 51Q310 51 357 114T404 243Q404 268 390 284T352 301Q296 301 243 231T146 48T55 -231L-5
-210Q-1 -170 35 -60Q135 246 135 430Q135 480 127 536L177 561Q202 500 202 446T188 305T169 184Q245 298 301 339Z" />
<glyph unicode="&#xff;" glyph-name="ydieresis" horiz-adv-x="471" d="M431 63L434 37Q430 34 341 1Q329 -65 311 -129T274 -227T230 -294Q180 -360 95 -360Q53 -360 28 -334T3 -263Q3 -90 293 15L347 205Q261 76 192 46Q158 30 121 30T61 54T38 124T69 252T140
391L189 370Q186 367 161 317Q117 226 117 182T134 123T184 108T258 147T387 304L423 283Q415 250 388 164T350 31L431 63ZM287 -15Q224 -44 176 -81Q86 -149 86 -213Q86 -237 100 -252T135 -267Q235 -267 287 -15ZM252 389T241 400T230 428T241 456T269 468T297
456T309 428T298 401T269 389ZM380 389T369 400T357 428T368 456T396 468T424 456T436 428T425 401T397 389Z" />
<glyph unicode="&#x2013;" glyph-name="endash" horiz-adv-x="387" d="M361 296V249L37 217L25 271Q75 281 179 288T361 296Z" />
<glyph unicode="&#x2014;" glyph-name="emdash" horiz-adv-x="499" d="M502 302V255L10 210L-2 264Q49 274 238 287T502 302Z" />
<glyph unicode="&#x2018;" glyph-name="quoteleft" horiz-adv-x="69" d="M109 551T96 539T63 526T32 537T21 568Q21 613 97 667L119 635Q79 603 78 601Q109 591 109 569Q109 551 96 539Z" />
<glyph unicode="&#x2019;" glyph-name="quoteright" horiz-adv-x="43" d="M-26 640T-13 652T20 665T51 654T62 623Q62 579 -14 524L-36 556Q-32 559 -21 567T-4 581T5 590Q-26 600 -26 622Q-26 640 -13 652Z" />
<glyph unicode="&#x201a;" glyph-name="quotesinglbase" horiz-adv-x="154" d="M8 51T21 63T54 76T85 65T96 34Q96 -10 20 -65L-2 -33Q38 -1 39 1Q8 11 8 33Q8 51 21 63Z" />
<glyph unicode="&#x201c;" glyph-name="quotedblleft" horiz-adv-x="191" d="M109 551T96 539T63 526T32 537T21 568Q21 613 97 667L119 635Q79 603 78 601Q109 591 109 569Q109 551 96 539ZM230 549T217 537T184 524T153 535T142 566Q142 611 218 665L240 633Q236
630 225 622T208 608T199 599Q230 589 230 567Q230 549 217 537Z" />
<glyph unicode="&#x201d;" glyph-name="quotedblright" horiz-adv-x="164" d="M95 640T109 653T142 666T172 654T183 623Q183 579 107 524L85 556Q125 588 126 590Q95 600 95 622Q95 640 109 653ZM-26 642T-13 654T20 667T51 656T62 625Q62 581 -14 526L-36 558Q-32
561 -21 569T-4 583T5 592Q-26 602 -26 624Q-26 642 -13 654Z" />
<glyph unicode="&#x201e;" glyph-name="quotedblbase" horiz-adv-x="288" d="M8 51T21 63T54 76T85 65T96 34Q96 -10 20 -65L-2 -33Q38 -1 39 1Q8 11 8 33Q8 51 21 63ZM140 51T153 63T186 76T217 65T228 34Q228 -10 152 -65L130 -33Q170 -1 171 1Q140 11 140 33Q140
51 153 63Z" />
<glyph unicode="&#x2022;" glyph-name="bullet" horiz-adv-x="151" d="M27 229T27 252T43 291T83 308T122 292T139 252T123 213T83 196T44 212Z" />
<glyph unicode="&#x2039;" glyph-name="guilsinglleft" horiz-adv-x="227" d="M197 397Q98 303 87 287Q110 249 170 190L190 171L176 121Q160 127 46 248L8 289Q155 418 173 427L197 397Z" />
<glyph unicode="&#x203a;" glyph-name="guilsinglright" horiz-adv-x="223" d="M195 289L64 122L38 157Q44 179 107 258L128 284Q113 308 91 335T59 378L92 431Q147 361 195 289Z" />
</font>
</defs>
</svg>
