<?xml version="1.0" standalone="no"?>
<!DOCTYPE svg PUBLIC "-//W3C//DTD SVG 1.1//EN" "http://www.w3.org/Graphics/SVG/1.1/DTD/svg11.dtd">
<svg xmlns="http://www.w3.org/2000/svg">
<defs >
<font id="EncodeSansCondensed" horiz-adv-x="927" ><font-face
    font-family="Encode Sans Condensed Thin"
    units-per-em="2000"
    panose-1="0 0 3 6 0 0 0 0 0 0"
    ascent="2060"
    descent="-440"
    alphabetic="0" />
<glyph unicode=" " glyph-name="space" horiz-adv-x="414" />
<glyph unicode="!" glyph-name="exclam" horiz-adv-x="400" d="M176 316L164 890V1480H236V890L224 316H176ZM173 -10T156 7T138 52Q138 80 155 98T200 116Q227 116 244 98T262 52Q262 24 245 7T200 -10Q173 -10 156 7Z" />
<glyph unicode="&quot;" glyph-name="quotedbl" horiz-adv-x="594" d="M152 956L132 1616H212L192 956H152ZM402 956L382 1616H462L442 956H402Z" />
<glyph unicode="#" glyph-name="numbersign" horiz-adv-x="1000" d="M910 920H705L675 560H910V494H669L628 0H562L603 494H355L314 0H248L289 494H90V560H295L325 920H90V986H331L372 1480H438L397 986H645L686 1480H752L711 986H910V920ZM609 560L639 920H391L361
560H609Z" />
<glyph unicode="$" glyph-name="dollar" horiz-adv-x="866" d="M798 211T713 112T466 -11V-240H402V-17Q390 -18 364 -18Q298 -18 224 -6T82 32V100Q232 48 370 48Q545 48 635 129T726 372Q726 464 697 526T605 631T436 712L384 730Q225 786 147 879T68 1120Q68
1276 154 1373T402 1492V1720H466V1497Q476 1498 498 1498Q560 1498 627 1489T744 1462V1394Q627 1432 494 1432Q317 1432 229 1353T140 1124Q140 1036 168 976T256 873T420 794L472 776Q636 719 717 623T798 376Q798 211 713 112Z" />
<glyph unicode="%" glyph-name="percent" horiz-adv-x="1554" d="M243 578T170 685T96 1038Q96 1284 169 1391T376 1498Q510 1498 583 1391T656 1038Q656 793 583 686T376 578Q243 578 170 685ZM482 0L1004 1480H1072L550 0H482ZM479 640T534 730T590 1036Q590
1255 535 1345T376 1436Q273 1436 218 1346T162 1040Q162 821 217 731T376 640Q479 640 534 730ZM1044 -18T971 89T898 442Q898 687 971 794T1178 902Q1311 902 1384 795T1458 442Q1458 196 1385 89T1178 -18Q1044 -18 971 89ZM1281 44T1336 134T1392 440Q1392
659 1337 749T1178 840Q1075 840 1020 750T964 444Q964 225 1019 135T1178 44Q1281 44 1336 134Z" />
<glyph unicode="&amp;" glyph-name="ampersand" horiz-adv-x="1248" d="M1202 -20L978 195Q922 89 820 36T580 -18Q446 -18 347 34T194 181T140 404Q140 538 199 641T369 810Q321 881 301 949T280 1098Q280 1294 388 1396T708 1498Q797 1498 888 1476V1408Q836
1422 794 1427T704 1432Q352 1432 352 1100Q352 1020 373 954T449 815T602 648L954 311Q974 388 974 484Q974 551 965 623T936 760H1006Q1040 633 1040 486Q1040 360 1006 261L1248 30L1202 -20ZM842 48T929 241L556 598Q462 689 408 757Q311 701 262 614T212 410Q212
299 256 218T383 92T582 48Q842 48 929 241Z" />
<glyph unicode="&apos;" glyph-name="quotesingle" horiz-adv-x="344" d="M152 956L132 1616H212L192 956H152Z" />
<glyph unicode="(" glyph-name="parenleft" horiz-adv-x="546" d="M118 1T118 588Q118 1175 418 1616H488Q190 1163 190 588Q190 13 488 -440H418Q118 1 118 588Z" />
<glyph unicode=")" glyph-name="parenright" horiz-adv-x="546" d="M356 13T356 588Q356 1163 58 1616H128Q428 1175 428 588Q428 1 128 -440H58Q356 13 356 588Z" />
<glyph unicode="*" glyph-name="asterisk" horiz-adv-x="828" d="M440 1214L572 1058L672 922L620 884L520 1020L414 1194L308 1020L208 884L156 922L256 1058L388 1214L190 1262L30 1314L50 1374L208 1322L398 1244L382 1448V1616H446V1448L430 1244L620 1322L778
1374L798 1314L638 1262L440 1214Z" />
<glyph unicode="+" glyph-name="plus" horiz-adv-x="1016" d="M474 378V728H144V792H474V1142H542V792H872V728H542V378H474Z" />
<glyph unicode="," glyph-name="comma" horiz-adv-x="360" d="M208 116T225 96T242 32Q242 -132 174 -300H130Q157 -213 171 -145T188 -10H180Q153 -10 136 8T118 54Q118 81 134 98T178 116Q208 116 225 96Z" />
<glyph unicode="-" glyph-name="hyphen" horiz-adv-x="676" d="M144 528V592H532V528H144Z" />
<glyph unicode="." glyph-name="period" horiz-adv-x="360" d="M153 -10T136 7T118 52Q118 80 135 98T180 116Q207 116 224 98T242 52Q242 24 225 7T180 -10Q153 -10 136 7Z" />
<glyph unicode="/" glyph-name="slash" horiz-adv-x="418" d="M0 -240L348 1616H418L70 -240H0Z" />
<glyph unicode="0" glyph-name="zero" horiz-adv-x="1036" d="M319 -18T214 158T108 740Q108 1016 157 1183T296 1424T518 1498Q649 1498 739 1425T879 1184T928 740Q928 334 823 158T518 -18Q319 -18 214 158ZM626 48T700 112T815 327T856 736Q856 996 815 1150T700
1368T518 1432Q410 1432 336 1368T221 1153T180 744Q180 484 221 330T336 112T518 48Q626 48 700 112Z" />
<glyph unicode="1" glyph-name="one" horiz-adv-x="552" d="M340 1484H378V0H310V1387L20 1162V1236L340 1484Z" />
<glyph unicode="2" glyph-name="two" horiz-adv-x="804" d="M744 64V0H52V40L434 664Q527 816 567 925T608 1138Q608 1297 531 1364T302 1432Q230 1432 166 1419T36 1376V1444Q86 1469 159 1483T302 1498Q481 1498 579 1413T678 1148Q678 1031 636 914T488 624L141
64H744Z" />
<glyph unicode="3" glyph-name="three" horiz-adv-x="858" d="M617 736T699 636T782 382Q782 255 730 165T581 29T350 -18Q188 -18 50 36V104Q194 48 348 48Q519 48 615 132T712 380Q712 544 613 636T316 728H212V794H246Q381 794 475 836T617 956T666 1140Q666
1432 348 1432Q272 1432 207 1419T76 1376V1444Q126 1469 199 1483T346 1498Q536 1498 636 1405T736 1138Q736 1006 664 910T459 771Q617 736 699 636Z" />
<glyph unicode="4" glyph-name="four" horiz-adv-x="994" d="M952 448V384H752V0H684V384H50V424L574 1480H648L135 448H684L698 980H752V448H952Z" />
<glyph unicode="5" glyph-name="five" horiz-adv-x="858" d="M556 809T681 704T806 398Q806 196 696 89T376 -18Q206 -18 74 36V104Q223 48 376 48Q553 48 644 136T736 396Q736 514 689 591T543 708T290 758L124 768L170 1480H744V1416H234L195 831L306 824Q556
809 681 704Z" />
<glyph unicode="6" glyph-name="six" horiz-adv-x="952" d="M624 828T712 782T851 641T902 408Q902 267 854 172T724 29T540 -18Q347 -18 236 143T124 690Q124 981 182 1159T352 1418T632 1498Q753 1498 842 1458V1390Q749 1432 628 1432Q484 1432 389 1362T244
1131T194 704V701Q248 761 332 794T514 828Q624 828 712 782ZM624 48T689 85T793 201T832 404Q832 587 743 674T510 762Q418 762 334 727T195 618Q205 302 296 175T542 48Q624 48 689 85Z" />
<glyph unicode="7" glyph-name="seven" horiz-adv-x="784" d="M8 1480H728V1440L228 0H158L651 1416H8V1480Z" />
<glyph unicode="8" glyph-name="eight" horiz-adv-x="1036" d="M757 696T822 643T916 521T946 358Q946 246 896 161T751 29T530 -18Q391 -18 292 27T142 159T90 366Q90 505 165 614T369 774Q245 836 190 921T134 1132Q134 1242 180 1325T313 1453T514 1498Q632
1498 719 1453T854 1324T902 1128Q902 998 837 899T649 740Q757 696 822 643ZM206 1042T236 979T339 867T542 778L576 767Q713 832 773 914T834 1128Q834 1274 750 1353T514 1432Q367 1432 287 1353T206 1134Q206 1042 236 979ZM637 48T714 84T832 188T874 352Q874
450 843 513T738 622T532 710Q484 725 438 743Q309 699 236 601T162 366Q162 212 254 130T530 48Q637 48 714 84Z" />
<glyph unicode="9" glyph-name="nine" horiz-adv-x="952" d="M605 1498T716 1337T828 790Q828 499 770 321T600 62T320 -18Q199 -18 110 22V90Q203 48 324 48Q468 48 563 118T708 349T758 776V779Q704 719 620 686T438 652Q328 652 240 698T101 839T50 1072Q50
1213 98 1308T228 1451T412 1498Q605 1498 716 1337ZM534 718T618 753T757 862Q747 1178 656 1305T410 1432Q328 1432 263 1395T159 1279T120 1076Q120 893 209 806T442 718Q534 718 618 753Z" />
<glyph unicode=":" glyph-name="colon" horiz-adv-x="360" d="M153 -10T136 7T118 52Q118 80 135 98T180 116Q207 116 224 98T242 52Q242 24 225 7T180 -10Q153 -10 136 7ZM153 964T136 981T118 1026Q118 1054 135 1072T180 1090Q207 1090 224 1072T242 1026Q242
998 225 981T180 964Q153 964 136 981Z" />
<glyph unicode=";" glyph-name="semicolon" horiz-adv-x="360" d="M208 116T225 96T242 32Q242 -132 174 -300H130Q157 -213 171 -145T188 -10H180Q153 -10 136 8T118 54Q118 81 134 98T178 116Q208 116 225 96ZM153 964T136 981T118 1026Q118 1054 135 1072T180
1090Q207 1090 224 1072T242 1026Q242 998 225 981T180 964Q153 964 136 981Z" />
<glyph unicode="&lt;" glyph-name="less" horiz-adv-x="1016" d="M872 1114V1042L235 760L872 478V406L144 734V786L872 1114Z" />
<glyph unicode="=" glyph-name="equal" horiz-adv-x="1016" d="M144 910V974H872V910H144ZM144 546V610H872V546H144Z" />
<glyph unicode="&gt;" glyph-name="greater" horiz-adv-x="1016" d="M144 1114L872 786V734L144 406V478L781 760L144 1042V1114Z" />
<glyph unicode="?" glyph-name="question" horiz-adv-x="760" d="M294 736Q418 787 491 845T597 974T630 1140Q630 1432 310 1432Q236 1432 171 1419T40 1376V1444Q90 1469 163 1483T310 1498Q500 1498 600 1405T700 1138Q700 1035 669 959T564 818T364 694L354
300H306L294 736ZM303 -10T286 7T268 52Q268 80 285 98T330 116Q357 116 374 98T392 52Q392 25 375 8T330 -10Q303 -10 286 7Z" />
<glyph unicode="@" glyph-name="at" horiz-adv-x="1546" d="M996 1498T1144 1404T1370 1103T1448 560Q1448 361 1413 232T1319 44T1186 -16Q1116 -16 1074 21T1020 122H1012Q962 54 890 19T730 -16Q600 -16 523 57T446 266Q446 404 526 480T774 576L1014 604V762Q1014
864 985 923T899 1006T754 1030Q700 1030 635 1019T504 984V1052Q557 1072 626 1084T756 1096Q919 1096 1000 1019T1082 760V206Q1082 125 1107 87T1190 48Q1239 48 1282 97T1352 259T1380 554Q1380 880 1309 1073T1106 1349T778 1432Q582 1432 449 1348T243 1064T170
524Q170 178 244 -24T459 -310T814 -394Q894 -394 969 -380T1124 -336V-404Q1057 -430 978 -445T814 -460Q578 -460 421 -366T181 -55T98 520Q98 874 178 1090T408 1402T778 1498Q996 1498 1144 1404ZM814 50T887 90T1014 222V537L772 510Q642 495 581 438T520
274Q520 161 575 106T736 50Q814 50 887 90Z" />
<glyph unicode="A" glyph-name="A" horiz-adv-x="1130" d="M1030 0L855 528H273L98 0H26L522 1480H608L1104 0H1030ZM295 594H833L564 1404L295 594Z" />
<glyph unicode="B" glyph-name="B" horiz-adv-x="1090" d="M861 737T937 639T1014 390Q1014 188 879 89T448 -10Q296 -10 164 4V1466Q314 1494 476 1494Q650 1494 759 1454T920 1329T972 1114Q972 985 910 892T706 766Q861 737 937 639ZM337 1428T232 1410V794H486Q642
794 733 831T863 938T902 1114Q902 1228 860 1296T724 1396T472 1428Q337 1428 232 1410ZM629 56T737 91T895 198T944 386Q944 558 843 643T526 728H232V66Q319 56 450 56Q629 56 737 91Z" />
<glyph unicode="C" glyph-name="C" horiz-adv-x="930" d="M462 -18T344 53T162 292T98 738Q98 1015 162 1182T347 1424T648 1498Q780 1498 912 1458V1390Q842 1414 778 1423T640 1432Q482 1432 380 1368T224 1152T170 742Q170 479 224 327T380 111T632 48Q703
48 769 60T912 100V32Q773 -18 634 -18Q462 -18 344 53Z" />
<glyph unicode="D" glyph-name="D" horiz-adv-x="1156" d="M310 -10T164 4V1468Q324 1494 442 1494Q752 1494 905 1310T1058 740Q1058 476 986 310T771 67T414 -10Q310 -10 164 4ZM611 56T736 125T923 344T986 740Q986 982 928 1133T750 1356T438 1428Q344 1428
232 1412V66Q315 56 416 56Q611 56 736 125Z" />
<glyph unicode="E" glyph-name="E" horiz-adv-x="946" d="M232 66H912V0H164V1480H902V1414H232V794H812V728H232V66Z" />
<glyph unicode="F" glyph-name="F" horiz-adv-x="910" d="M892 1414H232V794H802V728H232V0H164V1480H892V1414Z" />
<glyph unicode="G" glyph-name="G" horiz-adv-x="1106" d="M978 720V14Q906 1 849 -4T732 -10Q518 -10 379 62T169 298T98 738Q98 1016 167 1183T366 1424T684 1498Q752 1498 824 1488T960 1458V1390Q829 1432 678 1432Q511 1432 400 1368T230 1151T170 738Q170
481 231 332T414 120T732 56Q827 56 910 72V720H978Z" />
<glyph unicode="H" glyph-name="H" horiz-adv-x="1220" d="M164 0V1480H232V794H988V1480H1056V0H988V728H232V0H164Z" />
<glyph unicode="I" glyph-name="I" horiz-adv-x="396" d="M164 0V1480H232V0H164Z" />
<glyph unicode="J" glyph-name="J" horiz-adv-x="396" d="M-6 -306Q56 -208 92 -121T146 64T164 286V1480H232V256Q226 81 184 -53T44 -340L-6 -306Z" />
<glyph unicode="K" glyph-name="K" horiz-adv-x="1040" d="M996 0L426 728H232V0H164V1480H232V792H428L956 1480H1036L481 762L1078 0H996Z" />
<glyph unicode="L" glyph-name="L" horiz-adv-x="890" d="M164 0V1480H232V66H886V0H164Z" />
<glyph unicode="M" glyph-name="M" horiz-adv-x="1516" d="M1272 1480H1348V0H1282V1340L796 200H720L234 1336V0H168V1480H244L760 270L1272 1480Z" />
<glyph unicode="N" glyph-name="N" horiz-adv-x="1248" d="M1018 1480H1084V0H1008L230 1364V0H164V1480H240L1018 116V1480Z" />
<glyph unicode="O" glyph-name="O" horiz-adv-x="1164" d="M348 -18T223 160T98 740Q98 1141 223 1319T582 1498Q816 1498 941 1320T1066 740Q1066 339 941 161T582 -18Q348 -18 223 160ZM713 48T803 112T944 327T994 736Q994 996 944 1150T804 1368T582 1432Q451
1432 361 1368T220 1153T170 744Q170 484 220 330T360 112T582 48Q713 48 803 112Z" />
<glyph unicode="P" glyph-name="P" horiz-adv-x="1054" d="M164 1468Q324 1494 450 1494Q707 1494 834 1374T962 1004Q962 762 827 640T408 518Q309 518 232 526V0H164V1468ZM658 584T774 686T890 1000Q890 1223 784 1325T450 1428Q344 1428 232 1412V594Q307
584 414 584Q658 584 774 686Z" />
<glyph unicode="Q" glyph-name="Q" horiz-adv-x="1164" d="M1066 368T950 177T601 -15Q581 -15 571 -14Q756 -86 1044 -114L1032 -180Q663 -134 465 -39T182 237T98 740Q98 1141 223 1319T582 1498Q816 1498 941 1320T1066 740Q1066 368 950 177ZM170 484T220
330T360 112T582 48Q713 48 803 112T944 327T994 736Q994 996 944 1150T804 1368T582 1432Q451 1432 361 1368T220 1153T170 744Q170 484 220 330Z" />
<glyph unicode="R" glyph-name="R" horiz-adv-x="1122" d="M1000 0L529 658Q471 652 406 652Q304 652 232 658V0H164V1468Q244 1480 315 1487T468 1494Q716 1494 838 1391T960 1080Q962 909 871 806T599 668L1080 0H1000ZM573 716T681 755T841 874T892 1078Q892
1198 848 1275T710 1390T462 1428Q346 1428 232 1410V722Q334 716 400 716Q573 716 681 755Z" />
<glyph unicode="S" glyph-name="S" horiz-adv-x="866" d="M298 -18T224 -6T82 32V100Q232 48 370 48Q545 48 635 129T726 372Q726 464 697 526T605 631T436 712L384 730Q225 786 147 879T68 1120Q68 1299 179 1398T498 1498Q560 1498 627 1489T744 1462V1394Q627
1432 494 1432Q317 1432 229 1353T140 1124Q140 1036 168 976T256 873T420 794L472 776Q636 719 717 623T798 376Q798 186 686 84T364 -18Q298 -18 224 -6Z" />
<glyph unicode="T" glyph-name="T" horiz-adv-x="980" d="M456 0V1414H8V1480H972V1414H524V0H456Z" />
<glyph unicode="U" glyph-name="U" horiz-adv-x="1198" d="M368 -18T262 106T156 492V1480H224V482Q224 259 312 154T600 48Q799 48 887 153T976 482V1480H1042V492Q1042 317 996 205T853 37T600 -18Q368 -18 262 106Z" />
<glyph unicode="V" glyph-name="V" horiz-adv-x="1098" d="M1018 1480H1088L596 0H502L10 1480H84L550 64L1018 1480Z" />
<glyph unicode="W" glyph-name="W" horiz-adv-x="1772" d="M1648 1480H1716L1338 0H1244L887 1403L528 0H434L56 1480H128L482 72L840 1480H934L1292 72L1648 1480Z" />
<glyph unicode="X" glyph-name="X" horiz-adv-x="1076" d="M578 748L1044 0H962L538 684L112 0H32L498 748L42 1480H122L538 810L954 1480H1034L578 748Z" />
<glyph unicode="Y" glyph-name="Y" horiz-adv-x="980" d="M994 1480L524 679V0H456V679L-22 1480H56L490 748L918 1480H994Z" />
<glyph unicode="Z" glyph-name="Z" horiz-adv-x="950" d="M144 64H894V0H56V40L796 1416H66V1480H884V1440L144 64Z" />
<glyph unicode="[" glyph-name="bracketleft" horiz-adv-x="546" d="M184 -440V1616H586V1552H252V-376H586V-440H184Z" />
<glyph unicode="\" glyph-name="backslash" horiz-adv-x="418" d="M348 -240L0 1616H70L418 -240H348Z" />
<glyph unicode="]" glyph-name="bracketright" horiz-adv-x="546" d="M-40 -440V-376H294V1552H-40V1616H362V-440H-40Z" />
<glyph unicode="^" glyph-name="asciicircum" horiz-adv-x="1000" d="M886 740H810L500 1429L190 740H114L452 1480H546L886 740Z" />
<glyph unicode="_" glyph-name="underscore" horiz-adv-x="922" d="M90 -64V0H832V-64H90Z" />
<glyph unicode="`" glyph-name="grave" horiz-adv-x="800" d="M372 1264L208 1616H280L428 1264H372Z" />
<glyph unicode="a" glyph-name="a" horiz-adv-x="852" d="M499 1096T571 1064T680 956T718 754V0H658L652 122H644Q595 54 524 19T366 -16Q281 -16 217 16T118 112T82 266Q82 404 163 481T410 576L650 604V756Q650 861 620 921T534 1005T388 1030Q333 1030 267
1019T136 984V1052Q189 1072 258 1084T390 1096Q499 1096 571 1064ZM450 50T523 90T650 222V537L408 510Q279 497 218 439T156 274Q156 161 211 106T372 50Q450 50 523 90Z" />
<glyph unicode="b" glyph-name="b" horiz-adv-x="914" d="M314 -18T252 -8T144 18V1616H212V978H218Q258 1028 324 1062T472 1096Q631 1096 728 973T826 560Q826 264 709 123T372 -18Q314 -18 252 -8ZM562 48T658 167T754 552Q754 738 717 843T618 989T468 1030Q390
1030 320 989T212 874V70Q243 61 288 55T372 48Q562 48 658 167Z" />
<glyph unicode="c" glyph-name="c" horiz-adv-x="702" d="M342 -18T259 36T132 214T88 540Q88 744 136 866T277 1042T514 1096Q606 1096 686 1074V1006Q640 1018 596 1024T518 1030Q392 1030 315 986T199 837T160 544Q160 356 195 248T299 94T476 48Q568 48 686
90V22Q575 -18 468 -18Q342 -18 259 36Z" />
<glyph unicode="d" glyph-name="d" horiz-adv-x="914" d="M284 -18T186 105T88 518Q88 815 205 955T548 1096Q622 1096 702 1086V1616H770V0H710L704 106H696Q657 52 592 17T446 -18Q284 -18 186 105ZM525 48T594 89T702 208V1016Q672 1022 628 1026T546 1030Q354
1030 257 912T160 526Q160 340 197 235T297 89T448 48Q525 48 594 89Z" />
<glyph unicode="e" glyph-name="e" horiz-adv-x="848" d="M772 510H160Q162 337 201 236T313 92T500 48Q592 48 724 90V22Q609 -18 496 -18Q360 -18 271 36T135 214T88 540Q88 834 182 965T438 1096Q599 1096 685 968T772 540V510ZM311 1030T238 928T160 576H700Q698
748 665 848T576 989T438 1030Q311 1030 238 928Z" />
<glyph unicode="f" glyph-name="f" horiz-adv-x="562" d="M381 1570T329 1518T276 1350V1080H576V1016H276V0H208V1016H8V1080H208V1352Q208 1493 279 1564T490 1636Q560 1636 610 1626V1558Q547 1570 486 1570Q381 1570 329 1518Z" />
<glyph unicode="g" glyph-name="g" horiz-adv-x="914" d="M331 -460T265 -449T148 -416V-348Q275 -394 392 -394Q497 -394 565 -361T667 -251T702 -46V100H696Q656 50 590 16T442 -18Q283 -18 186 105T88 518Q88 814 205 955T542 1096Q598 1096 662 1086T770 1060V-42Q770
-264 676 -362T392 -460Q331 -460 265 -449ZM524 48T594 89T702 204V1010Q669 1018 625 1024T542 1030Q352 1030 256 911T160 526Q160 340 197 235T296 89T446 48Q524 48 594 89Z" />
<glyph unicode="h" glyph-name="h" horiz-adv-x="930" d="M144 1616H212V956H218Q276 1026 352 1061T514 1096Q645 1096 720 1021T796 770V0H728V774Q728 912 672 970T510 1028Q429 1028 346 986T212 850V0H144V1616Z" />
<glyph unicode="i" glyph-name="i" horiz-adv-x="356" d="M144 0V1080H212V0H144ZM151 1360T134 1377T116 1422Q116 1450 133 1468T178 1486Q205 1486 222 1468T240 1422Q240 1394 223 1377T178 1360Q151 1360 134 1377Z" />
<glyph unicode="j" glyph-name="j" horiz-adv-x="356" d="M-26 -426Q36 -328 72 -241T126 -56T144 166V1080H212V176Q212 41 193 -63T133 -260T24 -460L-26 -426ZM151 1360T134 1377T116 1422Q116 1450 133 1468T178 1486Q205 1486 222 1468T240 1422Q240 1394
223 1377T178 1360Q151 1360 134 1377Z" />
<glyph unicode="k" glyph-name="k" horiz-adv-x="832" d="M772 0L384 520H212V0H144V1616H212V584H383L742 1080H824L443 552L856 0H772Z" />
<glyph unicode="l" glyph-name="l" horiz-adv-x="356" d="M144 0V1616H212V0H144Z" />
<glyph unicode="m" glyph-name="m" horiz-adv-x="1450" d="M1169 1096T1242 1021T1316 770V0H1248V770Q1248 1030 1040 1030Q966 1030 889 987T762 845Q766 814 766 770V0H698V770Q698 910 644 970T494 1030Q419 1030 340 986T212 844V0H144V1080H204L210 954H218Q275
1025 348 1060T502 1096Q688 1096 743 935Q806 1021 885 1058T1046 1096Q1169 1096 1242 1021Z" />
<glyph unicode="n" glyph-name="n" horiz-adv-x="930" d="M144 1080H204L210 956H218Q274 1023 350 1059T514 1096Q796 1096 796 776V0H728V774Q728 912 672 971T510 1030Q429 1030 346 987T212 850V0H144V1080Z" />
<glyph unicode="o" glyph-name="o" horiz-adv-x="912" d="M88 -18T88 540Q88 834 183 965T456 1096Q824 1096 824 540Q824 246 729 114T456 -18Q88 -18 88 540ZM551 48T616 93T716 246T752 536Q752 722 717 831T616 985T456 1030Q361 1030 296 986T196 834T160
544Q160 358 195 249T296 94T456 48Q551 48 616 93Z" />
<glyph unicode="p" glyph-name="p" horiz-adv-x="914" d="M144 1080H204L210 972H218Q257 1026 322 1061T468 1096Q630 1096 728 973T826 560Q826 263 709 123T366 -18Q292 -18 212 -8V-440H144V1080ZM560 48T657 166T754 552Q754 738 717 843T617 989T466 1030Q389
1030 320 989T212 870V62Q242 56 286 52T368 48Q560 48 657 166Z" />
<glyph unicode="q" glyph-name="q" horiz-adv-x="914" d="M702 100H696Q656 50 590 16T442 -18Q283 -18 186 105T88 518Q88 814 205 955T542 1096Q598 1096 662 1086T770 1060V-440H702V100ZM524 48T594 89T702 204V1010Q669 1018 625 1024T542 1030Q352 1030
256 911T160 526Q160 340 197 235T296 89T446 48Q524 48 594 89Z" />
<glyph unicode="r" glyph-name="r" horiz-adv-x="566" d="M144 1080H204L210 934H218Q269 1009 344 1048T502 1088Q532 1088 556 1084V1016Q536 1018 500 1018Q414 1018 335 968T212 828V0H144V1080Z" />
<glyph unicode="s" glyph-name="s" horiz-adv-x="724" d="M205 -18T94 20V88Q160 67 213 58T320 48Q449 48 519 106T590 274Q590 369 546 420T408 498L316 524Q185 562 131 630T76 806Q76 890 116 955T233 1058T416 1096Q516 1096 610 1074V1006Q557 1019 513
1024T416 1030Q327 1030 267 1001T176 923T146 810Q146 724 188 673T322 596L414 570Q551 531 605 461T660 278Q660 138 571 60T320 -18Q205 -18 94 20Z" />
<glyph unicode="t" glyph-name="t" horiz-adv-x="592" d="M524 48T588 64V-4Q525 -18 468 -18Q338 -18 269 52T200 278V1016H0V1080H200L208 1480H268V1080H568V1016H268V290Q268 157 317 103T472 48Q524 48 588 64Z" />
<glyph unicode="u" glyph-name="u" horiz-adv-x="920" d="M284 -18T209 57T134 308V1080H202V304Q202 166 258 107T416 48Q494 48 576 91T708 226V1080H776V0H716L710 120H702Q645 52 570 17T414 -18Q284 -18 209 57Z" />
<glyph unicode="v" glyph-name="v" horiz-adv-x="858" d="M770 1080H846L476 0H382L12 1080H88L429 67L770 1080Z" />
<glyph unicode="w" glyph-name="w" horiz-adv-x="1444" d="M1322 1080H1392L1102 0H1008L723 1005L436 0H342L52 1080H124L390 69L676 1080H770L1056 69L1322 1080Z" />
<glyph unicode="x" glyph-name="x" horiz-adv-x="786" d="M432 546L772 0H692L392 486L94 0H16L354 544L20 1080H100L394 606L688 1080H766L432 546Z" />
<glyph unicode="y" glyph-name="y" horiz-adv-x="858" d="M770 1080H846L326 -440H254L406 0H382L12 1080H88L429 67L770 1080Z" />
<glyph unicode="z" glyph-name="z" horiz-adv-x="742" d="M140 64H692V0H54V40L596 1016H64V1080H682V1040L140 64Z" />
<glyph unicode="{" glyph-name="braceleft" horiz-adv-x="586" d="M292 667T171 622Q292 577 292 414V-184Q292 -291 344 -342T502 -394H626V-450Q576 -460 506 -460Q366 -460 295 -389T224 -176V414Q224 590 50 590H46V654H50Q224 654 224 830V1352Q224 1493
295 1564T506 1636Q576 1636 626 1626V1570H502Q396 1570 344 1519T292 1360V830Q292 667 171 622Z" />
<glyph unicode="|" glyph-name="bar" horiz-adv-x="396" d="M164 -440V1616H232V-440H164Z" />
<glyph unicode="}" glyph-name="braceright" horiz-adv-x="586" d="M540 654V590H536Q362 590 362 414V-176Q362 -317 291 -388T80 -460Q10 -460 -40 -450V-394H84Q191 -394 242 -343T294 -184V414Q294 577 415 622Q294 667 294 830V1360Q294 1467 243 1518T84
1570H-40V1626Q10 1636 80 1636Q220 1636 291 1565T362 1352V830Q362 654 536 654H540Z" />
<glyph unicode="~" glyph-name="asciitilde" horiz-adv-x="1016" d="M634 664T592 680T489 727Q435 755 403 767T338 780Q225 780 144 672V754Q177 797 227 820T336 844Q382 844 424 828T527 781Q581 753 613 741T678 728Q791 728 872 836V754Q839 711 789 688T680
664Q634 664 592 680Z" />
<glyph unicode="&#xa0;" glyph-name="uni00A0" horiz-adv-x="414" />
<glyph unicode="&#xa1;" glyph-name="exclamdown" horiz-adv-x="400" d="M227 1090T244 1073T262 1028Q262 1000 245 982T200 964Q173 964 156 982T138 1028Q138 1056 155 1073T200 1090Q227 1090 244 1073ZM176 764H224L236 190V-380H164V190L176 764Z" />
<glyph unicode="&#xa2;" glyph-name="cent" horiz-adv-x="696" d="M390 1030T314 986T199 836T160 544Q160 356 195 248T299 94T476 48Q568 48 686 90V22Q592 -12 500 -17V-240H436V-17Q321 -11 244 46T128 224T88 540Q88 724 127 841T242 1018T436 1092V1320H500V1096H516Q606
1096 686 1074V1006Q598 1030 512 1030Q390 1030 314 986Z" />
<glyph unicode="&#xa3;" glyph-name="sterling" horiz-adv-x="1048" d="M998 64V0H80V64H288V718H80V782H288V1096Q288 1296 398 1397T720 1498Q783 1498 851 1489T968 1462V1394Q851 1432 718 1432Q536 1432 446 1351T356 1096V782H828V718H356V64H998Z" />
<glyph unicode="&#xa4;" glyph-name="currency" horiz-adv-x="1000" d="M830 462L930 366L874 310L778 410L716 496Q675 456 620 435T500 414Q434 414 379 435T284 496L222 410L126 310L70 366L170 462L258 525Q192 611 192 740Q192 867 258 953L170 1018L68 1114L124
1170L220 1070L284 983Q325 1022 380 1043T500 1064Q565 1064 620 1043T715 983L780 1070L876 1170L932 1114L830 1018L742 953Q808 867 808 740Q808 676 791 622T741 525L830 462ZM573 476T628 507T715 597T746 740Q746 818 718 877T634 970T502 1004Q428 1004
372 973T285 882T254 740Q254 658 285 599T371 508T500 476Q573 476 628 507Z" />
<glyph unicode="&#xa5;" glyph-name="yen" horiz-adv-x="1036" d="M1026 1480L581 728H852V664H552V384H852V320H552V0H484V320H184V384H484V664H184V728H455L10 1480H88L518 748L950 1480H1026Z" />
<glyph unicode="&#xa6;" glyph-name="brokenbar" horiz-adv-x="396" d="M164 836V1616H232V836H164ZM164 -440V340H232V-440H164Z" />
<glyph unicode="&#xa7;" glyph-name="section" horiz-adv-x="816" d="M710 613T689 561T626 471Q660 434 675 387T690 278Q690 138 601 60T350 -18Q235 -18 124 20V88Q190 67 243 58T350 48Q479 48 549 106T620 274Q620 369 576 420T438 498L346 524Q216 560 161
629T106 806Q106 866 130 919T198 1012Q160 1048 143 1096T126 1206Q126 1290 166 1355T283 1458T466 1496Q566 1496 660 1474V1406Q607 1419 563 1424T466 1430Q377 1430 317 1401T226 1323T196 1210Q196 1124 238 1073T372 996L464 970Q601 931 655 861T710 678Q710
613 689 561ZM444 568Q524 546 576 512Q644 572 644 674Q644 769 598 821T458 900L366 926Q295 946 251 973Q212 943 192 901T172 810Q172 724 216 672T352 594L444 568Z" />
<glyph unicode="&#xa8;" glyph-name="dieresis" horiz-adv-x="800" d="M213 1360T196 1377T178 1422Q178 1450 195 1468T240 1486Q267 1486 284 1468T302 1422Q302 1394 285 1377T240 1360Q213 1360 196 1377ZM533 1360T516 1377T498 1422Q498 1450 515 1468T560
1486Q587 1486 604 1468T622 1422Q622 1394 605 1377T560 1360Q533 1360 516 1377Z" />
<glyph unicode="&#xa9;" glyph-name="copyright" horiz-adv-x="1684" d="M621 -22T453 73T191 340T98 740Q98 967 191 1139T452 1407T842 1502Q1063 1502 1231 1407T1493 1140T1586 740Q1586 513 1493 341T1232 73T842 -22Q621 -22 453 73ZM1043 46T1196 132T1434
376T1518 740Q1518 947 1434 1104T1197 1347T842 1434Q641 1434 488 1348T250 1104T166 740Q166 533 250 376T487 133T842 46Q1043 46 1196 132ZM760 324T674 370T540 509T492 734Q492 931 598 1037T902 1144Q1004 1144 1094 1116V1050Q998 1078 904 1078Q738 1078
651 994T564 738Q564 564 647 477T882 390Q986 390 1094 432V366Q999 324 876 324Q760 324 674 370Z" />
<glyph unicode="&#xaa;" glyph-name="ordfeminine" horiz-adv-x="716" d="M470 1492T539 1428T608 1210V610H552L546 708H540Q498 653 438 625T304 596Q233 596 179 623T94 703T64 826Q64 937 132 1000T344 1078L544 1099V1214Q544 1296 519 1343T446 1410T322
1430Q229 1430 112 1390V1454Q158 1472 216 1482T326 1492Q470 1492 539 1428ZM377 658T438 690T544 792V1038L344 1018Q235 1008 184 963T132 834Q132 747 179 703T314 658Q377 658 438 690Z" />
<glyph unicode="&#xab;" glyph-name="guillemotleft" horiz-adv-x="706" d="M298 140L110 560L298 980H366L178 560L366 140H298ZM568 140L380 560L568 980H636L448 560L636 140H568Z" />
<glyph unicode="&#xac;" glyph-name="logicalnot" horiz-adv-x="1240" d="M1038 192V728H144V792H1106V192H1038Z" />
<glyph unicode="&#xad;" glyph-name="uni00AD" horiz-adv-x="676" d="M144 528V592H532V528H144Z" />
<glyph unicode="&#xae;" glyph-name="registered" horiz-adv-x="1488" d="M923 1498T1061 1420T1277 1202T1354 882Q1354 702 1277 563T1062 346T744 268Q565 268 427 345T211 562T134 882Q134 1062 211 1202T426 1420T744 1498Q923 1498 1061 1420ZM906 334T1029
401T1219 593T1286 882Q1286 1046 1219 1171T1029 1364T744 1432Q582 1432 459 1364T269 1171T202 882Q202 718 269 594T459 402T744 334Q906 334 1029 401ZM974 942T940 899T837 838L998 600H922L767 827Q755 826 730 826H602V600H536V1192H730Q849 1192 911 1144T974
1008Q974 942 940 899ZM742 888Q827 888 867 917T908 1008Q908 1070 867 1100T742 1130H602V888H742Z" />
<glyph unicode="&#xaf;" glyph-name="overscore" horiz-adv-x="800" d="M150 1394V1452H650V1394H150Z" />
<glyph unicode="&#xb0;" glyph-name="degree" horiz-adv-x="912" d="M363 852T290 893T176 1008T134 1174Q134 1266 175 1339T290 1454T456 1496Q549 1496 622 1455T736 1340T778 1174Q778 1082 737 1009T622 894T456 852Q363 852 290 893ZM530 916T587 947T677
1037T710 1174Q710 1252 678 1310T588 1400T456 1432Q382 1432 325 1401T235 1311T202 1174Q202 1096 234 1038T324 948T456 916Q530 916 587 947Z" />
<glyph unicode="&#xb1;" glyph-name="plusminus" horiz-adv-x="1016" d="M474 316V666H144V730H474V1080H542V730H872V666H542V316H474ZM144 0V64H872V0H144Z" />
<glyph unicode="&#xb2;" glyph-name="uni00B2" horiz-adv-x="680" d="M568 -74V-136H92V-96L354 316Q419 418 447 488T476 624Q476 725 424 769T268 814Q214 814 169 805T80 776V840Q117 858 167 867T272 876Q400 876 471 817T542 631Q542 555 511 477T406 282L177
-74H568Z" />
<glyph unicode="&#xb3;" glyph-name="uni00B3" horiz-adv-x="680" d="M482 363T539 296T596 124Q596 -6 513 -77T286 -148Q170 -148 74 -112V-48Q173 -86 284 -86Q401 -86 466 -32T532 126Q532 230 465 288T262 346H184V410H218Q354 410 427 468T500 628Q500 814
282 814Q180 814 92 776V840Q127 857 179 866T284 876Q421 876 492 813T564 630Q564 541 515 478T374 386Q482 363 539 296Z" />
<glyph unicode="&#xb4;" glyph-name="acute" horiz-adv-x="800" d="M372 1264L520 1616H592L428 1264H372Z" />
<glyph unicode="&#xb5;" glyph-name="uni00B5" horiz-adv-x="920" d="M776 1080V0H716L710 120H702Q645 52 570 17T414 -18Q341 -18 288 5T202 82V-440H134V1080H202V304Q202 166 258 107T416 48Q494 48 576 91T708 226V1080H776Z" />
<glyph unicode="&#xb6;" glyph-name="paragraph" horiz-adv-x="1054" d="M624 524Q561 518 508 518Q296 518 194 640T92 1004Q92 1254 188 1374T476 1494Q577 1494 692 1480V0H624V524ZM822 0V1480H890V0H822Z" />
<glyph unicode="&#xb7;" glyph-name="middot" horiz-adv-x="360" d="M153 496T136 513T118 558Q118 586 135 604T180 622Q207 622 224 604T242 558Q242 530 225 513T180 496Q153 496 136 513Z" />
<glyph unicode="&#xb8;" glyph-name="cedilla" horiz-adv-x="800" d="M495 -123T528 -160T562 -258Q562 -322 518 -361T396 -400Q359 -400 320 -391T252 -366V-310Q320 -348 402 -348Q508 -348 508 -258Q508 -164 400 -164H374V20H430V-116Q495 -123 528 -160Z" />
<glyph unicode="&#xb9;" glyph-name="uni00B9" horiz-adv-x="680" d="M412 -74H608V-136H142V-74H348V778L132 612V682L374 868H412V-74Z" />
<glyph unicode="&#xba;" glyph-name="ordmasculine" horiz-adv-x="764" d="M233 596T151 704T68 1046Q68 1492 382 1492Q696 1492 696 1046Q696 812 614 704T382 596Q233 596 151 704ZM461 658T515 693T598 815T628 1046Q628 1191 599 1275T516 1395T382 1430Q302
1430 249 1395T166 1276T136 1046Q136 901 165 815T249 694T382 658Q461 658 515 693Z" />
<glyph unicode="&#xbb;" glyph-name="guillemotright" horiz-adv-x="706" d="M70 140L258 560L70 980H138L326 560L138 140H70ZM340 140L528 560L340 980H408L596 560L408 140H340Z" />
<glyph unicode="&#xbc;" glyph-name="onequarter" horiz-adv-x="1544" d="M412 678H608V616H142V678H348V1530L132 1364V1434L374 1620H412V678ZM380 -136L1098 1616H1164L446 -136H380ZM1514 176V116H1382V-136H1320V116H898V156L1242 864H1310L976 176H1320L1332
526H1382V176H1514Z" />
<glyph unicode="&#xbd;" glyph-name="onehalf" horiz-adv-x="1544" d="M412 678H608V616H142V678H348V1530L132 1364V1434L374 1620H412V678ZM380 -136L1098 1616H1164L446 -136H380ZM1432 -74V-136H956V-96L1218 316Q1283 418 1311 488T1340 624Q1340 725 1288
769T1132 814Q1078 814 1033 805T944 776V840Q981 858 1031 867T1136 876Q1264 876 1335 817T1406 631Q1406 555 1375 477T1270 282L1041 -74H1432Z" />
<glyph unicode="&#xbe;" glyph-name="threequarters" horiz-adv-x="1544" d="M482 1115T539 1048T596 876Q596 746 513 675T286 604Q170 604 74 640V704Q173 666 284 666Q401 666 466 720T532 878Q532 982 465 1040T262 1098H184V1162H218Q354 1162 427 1220T500
1380Q500 1566 282 1566Q180 1566 92 1528V1592Q127 1609 179 1618T284 1628Q421 1628 492 1565T564 1382Q564 1293 515 1230T374 1138Q482 1115 539 1048ZM380 -136L1098 1616H1164L446 -136H380ZM1514 176V116H1382V-136H1320V116H898V156L1242 864H1310L976
176H1320L1332 526H1382V176H1514Z" />
<glyph unicode="&#xbf;" glyph-name="questiondown" horiz-adv-x="760" d="M457 1090T474 1073T492 1028Q492 1000 475 982T430 964Q403 964 386 982T368 1028Q368 1055 385 1072T430 1090Q457 1090 474 1073ZM466 344Q342 293 269 236T163 108T130 -52Q130 -192
210 -263T450 -334Q524 -334 589 -321T720 -278V-346Q670 -371 597 -385T450 -400Q261 -400 161 -309T60 -50Q60 49 91 124T196 262T396 386L406 780H454L466 344Z" />
<glyph unicode="&#xc0;" glyph-name="Agrave" horiz-adv-x="1130" d="M1030 0L855 528H273L98 0H26L522 1480H608L1104 0H1030ZM295 594H833L564 1404L295 594ZM538 1616L394 1888H466L594 1616H538Z" />
<glyph unicode="&#xc1;" glyph-name="Aacute" horiz-adv-x="1130" d="M1030 0L855 528H273L98 0H26L522 1480H608L1104 0H1030ZM295 594H833L564 1404L295 594ZM538 1616L666 1888H738L594 1616H538Z" />
<glyph unicode="&#xc2;" glyph-name="Acircumflex" horiz-adv-x="1130" d="M1030 0L855 528H273L98 0H26L522 1480H608L1104 0H1030ZM295 594H833L564 1404L295 594ZM800 1616H730L566 1847L402 1616H332L528 1888H604L800 1616Z" />
<glyph unicode="&#xc3;" glyph-name="Atilde" horiz-adv-x="1130" d="M1030 0L855 528H273L98 0H26L522 1480H608L1104 0H1030ZM295 594H833L564 1404L295 594ZM659 1696T627 1707T553 1738Q512 1757 488 1765T438 1774Q397 1774 365 1757T304 1702V1768Q327 1797
361 1813T438 1830Q473 1830 505 1819T579 1788Q620 1769 644 1761T694 1752Q735 1752 767 1769T828 1824V1758Q805 1729 771 1713T694 1696Q659 1696 627 1707Z" />
<glyph unicode="&#xc4;" glyph-name="Adieresis" horiz-adv-x="1130" d="M1030 0L855 528H273L98 0H26L522 1480H608L1104 0H1030ZM295 594H833L564 1404L295 594ZM359 1690T342 1707T324 1752Q324 1780 341 1798T386 1816Q413 1816 430 1798T448 1752Q448 1724
431 1707T386 1690Q359 1690 342 1707ZM719 1690T702 1707T684 1752Q684 1780 701 1798T746 1816Q773 1816 790 1798T808 1752Q808 1724 791 1707T746 1690Q719 1690 702 1707Z" />
<glyph unicode="&#xc5;" glyph-name="Aring" horiz-adv-x="1130" d="M855 528H273L98 0H26L508 1440Q453 1457 420 1504T386 1614Q386 1666 410 1708T476 1774T570 1798Q622 1798 664 1774T730 1708T754 1614Q754 1549 718 1501T622 1437L1104 0H1030L855 528ZM440
1553T476 1518T570 1482Q628 1482 664 1517T700 1614Q700 1675 664 1710T570 1746Q512 1746 476 1711T440 1614Q440 1553 476 1518ZM295 594H833L564 1404L295 594Z" />
<glyph unicode="&#xc6;" glyph-name="AE" horiz-adv-x="1546" d="M884 66H1512V0H818L795 528H278L98 0H26L534 1480H1502V1414H824L852 794H1412V728H855L884 66ZM300 594H792L757 1414H580L300 594Z" />
<glyph unicode="&#xc7;" glyph-name="Ccedilla" horiz-adv-x="930" d="M482 1432T380 1368T224 1152T170 742Q170 479 224 327T380 111T632 48Q703 48 769 60T912 100V32Q773 -18 634 -18H626V-112Q699 -116 742 -153T786 -256Q786 -325 738 -362T610 -400Q517
-400 438 -362V-306Q489 -329 529 -338T610 -348Q666 -348 698 -325T730 -256Q730 -209 698 -187T608 -164H570V-16Q418 -3 314 74T154 314T98 738Q98 1015 162 1182T347 1424T648 1498Q780 1498 912 1458V1390Q842 1414 778 1423T640 1432Q482 1432 380 1368Z"
/>
<glyph unicode="&#xc8;" glyph-name="Egrave" horiz-adv-x="946" d="M232 66H912V0H164V1480H902V1414H232V794H812V728H232V66ZM528 1616L384 1888H456L584 1616H528Z" />
<glyph unicode="&#xc9;" glyph-name="Eacute" horiz-adv-x="946" d="M232 66H912V0H164V1480H902V1414H232V794H812V728H232V66ZM528 1616L656 1888H728L584 1616H528Z" />
<glyph unicode="&#xca;" glyph-name="Ecircumflex" horiz-adv-x="946" d="M232 66H912V0H164V1480H902V1414H232V794H812V728H232V66ZM790 1616H720L556 1847L392 1616H322L518 1888H594L790 1616Z" />
<glyph unicode="&#xcb;" glyph-name="Edieresis" horiz-adv-x="946" d="M232 66H912V0H164V1480H902V1414H232V794H812V728H232V66ZM349 1690T332 1707T314 1752Q314 1780 331 1798T376 1816Q403 1816 420 1798T438 1752Q438 1724 421 1707T376 1690Q349 1690
332 1707ZM709 1690T692 1707T674 1752Q674 1780 691 1798T736 1816Q763 1816 780 1798T798 1752Q798 1724 781 1707T736 1690Q709 1690 692 1707Z" />
<glyph unicode="&#xcc;" glyph-name="Igrave" horiz-adv-x="396" d="M164 0V1480H232V0H164ZM170 1616L26 1888H98L226 1616H170Z" />
<glyph unicode="&#xcd;" glyph-name="Iacute" horiz-adv-x="396" d="M164 0V1480H232V0H164ZM170 1616L298 1888H370L226 1616H170Z" />
<glyph unicode="&#xce;" glyph-name="Icircumflex" horiz-adv-x="396" d="M164 0V1480H232V0H164ZM432 1616H362L198 1847L34 1616H-36L160 1888H236L432 1616Z" />
<glyph unicode="&#xcf;" glyph-name="Idieresis" horiz-adv-x="396" d="M164 0V1480H232V0H164ZM-9 1690T-26 1707T-44 1752Q-44 1780 -27 1798T18 1816Q45 1816 62 1798T80 1752Q80 1724 63 1707T18 1690Q-9 1690 -26 1707ZM351 1690T334 1707T316 1752Q316 1780
333 1798T378 1816Q405 1816 422 1798T440 1752Q440 1724 423 1707T378 1690Q351 1690 334 1707Z" />
<glyph unicode="&#xd0;" glyph-name="Eth" horiz-adv-x="1156" d="M752 1494T905 1310T1058 740Q1058 476 986 310T771 67T414 -10Q310 -10 164 4V732H-4V792H164V1468Q324 1494 442 1494Q752 1494 905 1310ZM611 56T736 125T923 344T986 740Q986 982 928 1133T750
1356T438 1428Q344 1428 232 1412V792H532V732H232V66Q315 56 416 56Q611 56 736 125Z" />
<glyph unicode="&#xd1;" glyph-name="Ntilde" horiz-adv-x="1248" d="M1018 1480H1084V0H1008L230 1364V0H164V1480H240L1018 116V1480ZM717 1696T685 1707T611 1738Q570 1757 546 1765T496 1774Q455 1774 423 1757T362 1702V1768Q385 1797 419 1813T496 1830Q531
1830 563 1819T637 1788Q678 1769 702 1761T752 1752Q793 1752 825 1769T886 1824V1758Q863 1729 829 1713T752 1696Q717 1696 685 1707Z" />
<glyph unicode="&#xd2;" glyph-name="Ograve" horiz-adv-x="1164" d="M348 -18T223 160T98 740Q98 1141 223 1319T582 1498Q816 1498 941 1320T1066 740Q1066 339 941 161T582 -18Q348 -18 223 160ZM713 48T803 112T944 327T994 736Q994 996 944 1150T804 1368T582
1432Q451 1432 361 1368T220 1153T170 744Q170 484 220 330T360 112T582 48Q713 48 803 112ZM554 1616L410 1888H482L610 1616H554Z" />
<glyph unicode="&#xd3;" glyph-name="Oacute" horiz-adv-x="1164" d="M348 -18T223 160T98 740Q98 1141 223 1319T582 1498Q816 1498 941 1320T1066 740Q1066 339 941 161T582 -18Q348 -18 223 160ZM713 48T803 112T944 327T994 736Q994 996 944 1150T804 1368T582
1432Q451 1432 361 1368T220 1153T170 744Q170 484 220 330T360 112T582 48Q713 48 803 112ZM554 1616L682 1888H754L610 1616H554Z" />
<glyph unicode="&#xd4;" glyph-name="Ocircumflex" horiz-adv-x="1164" d="M348 -18T223 160T98 740Q98 1141 223 1319T582 1498Q816 1498 941 1320T1066 740Q1066 339 941 161T582 -18Q348 -18 223 160ZM713 48T803 112T944 327T994 736Q994 996 944 1150T804
1368T582 1432Q451 1432 361 1368T220 1153T170 744Q170 484 220 330T360 112T582 48Q713 48 803 112ZM816 1616H746L582 1847L418 1616H348L544 1888H620L816 1616Z" />
<glyph unicode="&#xd5;" glyph-name="Otilde" horiz-adv-x="1164" d="M348 -18T223 160T98 740Q98 1141 223 1319T582 1498Q816 1498 941 1320T1066 740Q1066 339 941 161T582 -18Q348 -18 223 160ZM713 48T803 112T944 327T994 736Q994 996 944 1150T804 1368T582
1432Q451 1432 361 1368T220 1153T170 744Q170 484 220 330T360 112T582 48Q713 48 803 112ZM675 1696T643 1707T569 1738Q528 1757 504 1765T454 1774Q413 1774 381 1757T320 1702V1768Q343 1797 377 1813T454 1830Q489 1830 521 1819T595 1788Q636 1769 660 1761T710
1752Q751 1752 783 1769T844 1824V1758Q821 1729 787 1713T710 1696Q675 1696 643 1707Z" />
<glyph unicode="&#xd6;" glyph-name="Odieresis" horiz-adv-x="1164" d="M348 -18T223 160T98 740Q98 1141 223 1319T582 1498Q816 1498 941 1320T1066 740Q1066 339 941 161T582 -18Q348 -18 223 160ZM713 48T803 112T944 327T994 736Q994 996 944 1150T804 1368T582
1432Q451 1432 361 1368T220 1153T170 744Q170 484 220 330T360 112T582 48Q713 48 803 112ZM375 1690T358 1707T340 1752Q340 1780 357 1798T402 1816Q429 1816 446 1798T464 1752Q464 1724 447 1707T402 1690Q375 1690 358 1707ZM735 1690T718 1707T700 1752Q700
1780 717 1798T762 1816Q789 1816 806 1798T824 1752Q824 1724 807 1707T762 1690Q735 1690 718 1707Z" />
<glyph unicode="&#xd7;" glyph-name="multiply" horiz-adv-x="948" d="M166 408L122 452L430 760L122 1068L166 1112L474 804L782 1112L826 1068L518 760L826 452L782 408L474 716L166 408Z" />
<glyph unicode="&#xd8;" glyph-name="Oslash" horiz-adv-x="1164" d="M1066 1108T1066 740Q1066 339 941 161T582 -18Q366 -18 248 127L162 -16L108 16L209 183Q98 372 98 740Q98 1141 223 1319T582 1498Q798 1498 916 1353L1002 1496L1056 1464L955 1297Q1066
1108 1066 740ZM170 421T250 252L878 1290Q826 1365 752 1398T582 1432Q451 1432 361 1368T220 1153T170 744Q170 421 250 252ZM713 48T803 112T944 327T994 736Q994 1059 914 1228L286 190Q338 115 412 82T582 48Q713 48 803 112Z" />
<glyph unicode="&#xd9;" glyph-name="Ugrave" horiz-adv-x="1198" d="M368 -18T262 106T156 492V1480H224V482Q224 259 312 154T600 48Q799 48 887 153T976 482V1480H1042V492Q1042 317 996 205T853 37T600 -18Q368 -18 262 106ZM572 1616L428 1888H500L628 1616H572Z" />
<glyph unicode="&#xda;" glyph-name="Uacute" horiz-adv-x="1198" d="M368 -18T262 106T156 492V1480H224V482Q224 259 312 154T600 48Q799 48 887 153T976 482V1480H1042V492Q1042 317 996 205T853 37T600 -18Q368 -18 262 106ZM572 1616L700 1888H772L628 1616H572Z" />
<glyph unicode="&#xdb;" glyph-name="Ucircumflex" horiz-adv-x="1198" d="M368 -18T262 106T156 492V1480H224V482Q224 259 312 154T600 48Q799 48 887 153T976 482V1480H1042V492Q1042 317 996 205T853 37T600 -18Q368 -18 262 106ZM834 1616H764L600 1847L436
1616H366L562 1888H638L834 1616Z" />
<glyph unicode="&#xdc;" glyph-name="Udieresis" horiz-adv-x="1198" d="M368 -18T262 106T156 492V1480H224V482Q224 259 312 154T600 48Q799 48 887 153T976 482V1480H1042V492Q1042 317 996 205T853 37T600 -18Q368 -18 262 106ZM393 1690T376 1707T358 1752Q358
1780 375 1798T420 1816Q447 1816 464 1798T482 1752Q482 1724 465 1707T420 1690Q393 1690 376 1707ZM753 1690T736 1707T718 1752Q718 1780 735 1798T780 1816Q807 1816 824 1798T842 1752Q842 1724 825 1707T780 1690Q753 1690 736 1707Z" />
<glyph unicode="&#xdd;" glyph-name="Yacute" horiz-adv-x="980" d="M994 1480L524 679V0H456V679L-22 1480H56L490 748L918 1480H994ZM462 1616L590 1888H662L518 1616H462Z" />
<glyph unicode="&#xde;" glyph-name="Thorn" horiz-adv-x="1064" d="M164 1480H232V1232Q336 1248 450 1248Q707 1248 834 1128T962 758Q962 516 827 394T408 272Q309 272 232 280V0H164V1480ZM658 338T774 440T890 754Q890 977 784 1079T450 1182Q344 1182 232
1166V348Q307 338 414 338Q658 338 774 440Z" />
<glyph unicode="&#xdf;" glyph-name="germandbls" horiz-adv-x="1128" d="M955 531T1009 461T1064 278Q1064 138 976 60T728 -18Q603 -18 498 18V86Q562 66 616 57T724 48Q853 48 923 106T994 274Q994 369 950 420T812 498L720 524Q590 560 535 629T480 806Q480
889 520 954T637 1056T820 1094Q864 1094 899 1088Q908 1156 908 1208Q908 1401 825 1485T600 1570Q444 1570 360 1476T276 1166V0H208V1014H8V1080H208V1172Q208 1408 310 1522T598 1636Q769 1636 870 1533T972 1210Q972 1158 965 1104T950 1014Q914 1023 887
1026T820 1030Q731 1030 671 1001T580 923T550 810Q550 724 592 673T726 596L818 570Q955 531 1009 461Z" />
<glyph unicode="&#xe0;" glyph-name="agrave" horiz-adv-x="852" d="M499 1096T571 1064T680 956T718 754V0H658L652 122H644Q595 54 524 19T366 -16Q281 -16 217 16T118 112T82 266Q82 404 163 481T410 576L650 604V756Q650 861 620 921T534 1005T388 1030Q333
1030 267 1019T136 984V1052Q189 1072 258 1084T390 1096Q499 1096 571 1064ZM450 50T523 90T650 222V537L408 510Q279 497 218 439T156 274Q156 161 211 106T372 50Q450 50 523 90ZM392 1264L228 1616H300L448 1264H392Z" />
<glyph unicode="&#xe1;" glyph-name="aacute" horiz-adv-x="852" d="M499 1096T571 1064T680 956T718 754V0H658L652 122H644Q595 54 524 19T366 -16Q281 -16 217 16T118 112T82 266Q82 404 163 481T410 576L650 604V756Q650 861 620 921T534 1005T388 1030Q333
1030 267 1019T136 984V1052Q189 1072 258 1084T390 1096Q499 1096 571 1064ZM450 50T523 90T650 222V537L408 510Q279 497 218 439T156 274Q156 161 211 106T372 50Q450 50 523 90ZM392 1264L540 1616H612L448 1264H392Z" />
<glyph unicode="&#xe2;" glyph-name="acircumflex" horiz-adv-x="852" d="M499 1096T571 1064T680 956T718 754V0H658L652 122H644Q595 54 524 19T366 -16Q281 -16 217 16T118 112T82 266Q82 404 163 481T410 576L650 604V756Q650 861 620 921T534 1005T388 1030Q333
1030 267 1019T136 984V1052Q189 1072 258 1084T390 1096Q499 1096 571 1064ZM450 50T523 90T650 222V537L408 510Q279 497 218 439T156 274Q156 161 211 106T372 50Q450 50 523 90ZM634 1264H570L420 1573L270 1264H206L382 1616H458L634 1264Z" />
<glyph unicode="&#xe3;" glyph-name="atilde" horiz-adv-x="852" d="M499 1096T571 1064T680 956T718 754V0H658L652 122H644Q595 54 524 19T366 -16Q281 -16 217 16T118 112T82 266Q82 404 163 481T410 576L650 604V756Q650 861 620 921T534 1005T388 1030Q333
1030 267 1019T136 984V1052Q189 1072 258 1084T390 1096Q499 1096 571 1064ZM450 50T523 90T650 222V537L408 510Q279 497 218 439T156 274Q156 161 211 106T372 50Q450 50 523 90ZM506 1380T478 1390T407 1422Q372 1440 349 1449T302 1458Q262 1458 231 1441T170
1386V1452Q193 1481 227 1497T302 1514Q334 1514 362 1504T433 1472Q468 1454 491 1445T538 1436Q578 1436 609 1453T670 1508V1442Q647 1413 613 1397T538 1380Q506 1380 478 1390Z" />
<glyph unicode="&#xe4;" glyph-name="adieresis" horiz-adv-x="852" d="M499 1096T571 1064T680 956T718 754V0H658L652 122H644Q595 54 524 19T366 -16Q281 -16 217 16T118 112T82 266Q82 404 163 481T410 576L650 604V756Q650 861 620 921T534 1005T388 1030Q333
1030 267 1019T136 984V1052Q189 1072 258 1084T390 1096Q499 1096 571 1064ZM450 50T523 90T650 222V537L408 510Q279 497 218 439T156 274Q156 161 211 106T372 50Q450 50 523 90ZM233 1360T216 1377T198 1422Q198 1450 215 1468T260 1486Q287 1486 304 1468T322
1422Q322 1394 305 1377T260 1360Q233 1360 216 1377ZM553 1360T536 1377T518 1422Q518 1450 535 1468T580 1486Q607 1486 624 1468T642 1422Q642 1394 625 1377T580 1360Q553 1360 536 1377Z" />
<glyph unicode="&#xe5;" glyph-name="aring" horiz-adv-x="852" d="M499 1096T571 1064T680 956T718 754V0H658L652 122H644Q595 54 524 19T366 -16Q281 -16 217 16T118 112T82 266Q82 404 163 481T410 576L650 604V756Q650 861 620 921T534 1005T388 1030Q333
1030 267 1019T136 984V1052Q189 1072 258 1084T390 1096Q499 1096 571 1064ZM450 50T523 90T650 222V537L408 510Q279 497 218 439T156 274Q156 161 211 106T372 50Q450 50 523 90ZM368 1260T326 1284T260 1350T236 1444Q236 1496 260 1538T326 1604T420 1628Q472
1628 514 1604T580 1538T604 1444Q604 1392 580 1350T514 1284T420 1260Q368 1260 326 1284ZM478 1312T514 1347T550 1444Q550 1505 514 1540T420 1576Q362 1576 326 1541T290 1444Q290 1383 326 1348T420 1312Q478 1312 514 1347Z" />
<glyph unicode="&#xe6;" glyph-name="ae" horiz-adv-x="1398" d="M1322 510H718Q720 338 758 237T869 92T1054 48Q1142 48 1274 90V22Q1159 -18 1050 -18Q922 -18 836 31T704 191Q640 79 555 32T368 -16Q284 -16 220 16T119 110T82 262Q82 409 168 492T442 576H650V762Q650
865 620 923T533 1006T388 1030Q333 1030 267 1019T136 984V1052Q189 1072 258 1084T390 1096Q523 1096 600 1046T701 881Q777 1098 988 1098Q1150 1098 1236 970T1322 540V510ZM864 1032T793 929T718 576H1250Q1247 751 1214 851T1124 992T988 1032Q864 1032 793
929ZM468 50T547 102T677 274Q653 371 650 510H440Q290 510 223 446T156 270Q156 160 213 105T374 50Q468 50 547 102Z" />
<glyph unicode="&#xe7;" glyph-name="ccedilla" horiz-adv-x="702" d="M392 1030T315 986T199 837T160 544Q160 356 195 248T299 94T476 48Q568 48 686 90V22Q575 -18 468 -18H456V-116Q521 -123 554 -160T588 -258Q588 -322 544 -361T422 -400Q385 -400 346 -391T278
-366V-310Q346 -348 428 -348Q534 -348 534 -258Q534 -164 426 -164H400V-14Q244 7 166 137T88 540Q88 744 136 866T277 1042T514 1096Q606 1096 686 1074V1006Q640 1018 596 1024T518 1030Q392 1030 315 986Z" />
<glyph unicode="&#xe8;" glyph-name="egrave" horiz-adv-x="848" d="M772 510H160Q162 337 201 236T313 92T500 48Q592 48 724 90V22Q609 -18 496 -18Q360 -18 271 36T135 214T88 540Q88 834 182 965T438 1096Q599 1096 685 968T772 540V510ZM311 1030T238 928T160
576H700Q698 748 665 848T576 989T438 1030Q311 1030 238 928ZM406 1264L242 1616H314L462 1264H406Z" />
<glyph unicode="&#xe9;" glyph-name="eacute" horiz-adv-x="848" d="M772 510H160Q162 337 201 236T313 92T500 48Q592 48 724 90V22Q609 -18 496 -18Q360 -18 271 36T135 214T88 540Q88 834 182 965T438 1096Q599 1096 685 968T772 540V510ZM311 1030T238 928T160
576H700Q698 748 665 848T576 989T438 1030Q311 1030 238 928ZM406 1264L554 1616H626L462 1264H406Z" />
<glyph unicode="&#xea;" glyph-name="ecircumflex" horiz-adv-x="848" d="M772 510H160Q162 337 201 236T313 92T500 48Q592 48 724 90V22Q609 -18 496 -18Q360 -18 271 36T135 214T88 540Q88 834 182 965T438 1096Q599 1096 685 968T772 540V510ZM311 1030T238
928T160 576H700Q698 748 665 848T576 989T438 1030Q311 1030 238 928ZM648 1264H584L434 1573L284 1264H220L396 1616H472L648 1264Z" />
<glyph unicode="&#xeb;" glyph-name="edieresis" horiz-adv-x="848" d="M772 510H160Q162 337 201 236T313 92T500 48Q592 48 724 90V22Q609 -18 496 -18Q360 -18 271 36T135 214T88 540Q88 834 182 965T438 1096Q599 1096 685 968T772 540V510ZM311 1030T238
928T160 576H700Q698 748 665 848T576 989T438 1030Q311 1030 238 928ZM247 1360T230 1377T212 1422Q212 1450 229 1468T274 1486Q301 1486 318 1468T336 1422Q336 1394 319 1377T274 1360Q247 1360 230 1377ZM567 1360T550 1377T532 1422Q532 1450 549 1468T594
1486Q621 1486 638 1468T656 1422Q656 1394 639 1377T594 1360Q567 1360 550 1377Z" />
<glyph unicode="&#xec;" glyph-name="igrave" horiz-adv-x="356" d="M144 0V1080H212V0H144ZM150 1264L-14 1616H58L206 1264H150Z" />
<glyph unicode="&#xed;" glyph-name="iacute" horiz-adv-x="356" d="M144 0V1080H212V0H144ZM150 1264L298 1616H370L206 1264H150Z" />
<glyph unicode="&#xee;" glyph-name="icircumflex" horiz-adv-x="356" d="M144 0V1080H212V0H144ZM392 1264H328L178 1573L28 1264H-36L140 1616H216L392 1264Z" />
<glyph unicode="&#xef;" glyph-name="idieresis" horiz-adv-x="356" d="M144 0V1080H212V0H144ZM-9 1360T-26 1377T-44 1422Q-44 1450 -27 1468T18 1486Q45 1486 62 1468T80 1422Q80 1394 63 1377T18 1360Q-9 1360 -26 1377ZM311 1360T294 1377T276 1422Q276 1450
293 1468T338 1486Q365 1486 382 1468T400 1422Q400 1394 383 1377T338 1360Q311 1360 294 1377Z" />
<glyph unicode="&#xf0;" glyph-name="eth" horiz-adv-x="912" d="M706 1162T764 962T822 570Q822 267 727 125T458 -18Q88 -18 88 540Q88 834 183 965T456 1096Q523 1096 578 1076T681 1005Q631 1173 542 1320L184 1260L174 1318L507 1374Q415 1509 288 1616H376Q484
1528 575 1385L792 1422L802 1364L608 1331Q706 1162 764 962ZM596 48T674 164T752 536Q752 722 717 831T616 985T456 1030Q361 1030 296 986T196 834T160 544Q160 358 195 249T296 94T458 48Q596 48 674 164Z" />
<glyph unicode="&#xf1;" glyph-name="ntilde" horiz-adv-x="930" d="M144 1080H204L210 956H218Q274 1023 350 1059T514 1096Q796 1096 796 776V0H728V774Q728 912 672 971T510 1030Q429 1030 346 987T212 850V0H144V1080ZM556 1380T528 1390T457 1422Q422 1440
399 1449T352 1458Q312 1458 281 1441T220 1386V1452Q243 1481 277 1497T352 1514Q384 1514 412 1504T483 1472Q518 1454 541 1445T588 1436Q628 1436 659 1453T720 1508V1442Q697 1413 663 1397T588 1380Q556 1380 528 1390Z" />
<glyph unicode="&#xf2;" glyph-name="ograve" horiz-adv-x="912" d="M88 -18T88 540Q88 834 183 965T456 1096Q824 1096 824 540Q824 246 729 114T456 -18Q88 -18 88 540ZM551 48T616 93T716 246T752 536Q752 722 717 831T616 985T456 1030Q361 1030 296 986T196
834T160 544Q160 358 195 249T296 94T456 48Q551 48 616 93ZM428 1264L264 1616H336L484 1264H428Z" />
<glyph unicode="&#xf3;" glyph-name="oacute" horiz-adv-x="912" d="M88 -18T88 540Q88 834 183 965T456 1096Q824 1096 824 540Q824 246 729 114T456 -18Q88 -18 88 540ZM551 48T616 93T716 246T752 536Q752 722 717 831T616 985T456 1030Q361 1030 296 986T196
834T160 544Q160 358 195 249T296 94T456 48Q551 48 616 93ZM428 1264L576 1616H648L484 1264H428Z" />
<glyph unicode="&#xf4;" glyph-name="ocircumflex" horiz-adv-x="912" d="M88 -18T88 540Q88 834 183 965T456 1096Q824 1096 824 540Q824 246 729 114T456 -18Q88 -18 88 540ZM551 48T616 93T716 246T752 536Q752 722 717 831T616 985T456 1030Q361 1030 296
986T196 834T160 544Q160 358 195 249T296 94T456 48Q551 48 616 93ZM670 1264H606L456 1573L306 1264H242L418 1616H494L670 1264Z" />
<glyph unicode="&#xf5;" glyph-name="otilde" horiz-adv-x="912" d="M88 -18T88 540Q88 834 183 965T456 1096Q824 1096 824 540Q824 246 729 114T456 -18Q88 -18 88 540ZM551 48T616 93T716 246T752 536Q752 722 717 831T616 985T456 1030Q361 1030 296 986T196
834T160 544Q160 358 195 249T296 94T456 48Q551 48 616 93ZM542 1380T514 1390T443 1422Q408 1440 385 1449T338 1458Q298 1458 267 1441T206 1386V1452Q229 1481 263 1497T338 1514Q370 1514 398 1504T469 1472Q504 1454 527 1445T574 1436Q614 1436 645 1453T706
1508V1442Q683 1413 649 1397T574 1380Q542 1380 514 1390Z" />
<glyph unicode="&#xf6;" glyph-name="odieresis" horiz-adv-x="912" d="M88 -18T88 540Q88 834 183 965T456 1096Q824 1096 824 540Q824 246 729 114T456 -18Q88 -18 88 540ZM551 48T616 93T716 246T752 536Q752 722 717 831T616 985T456 1030Q361 1030 296 986T196
834T160 544Q160 358 195 249T296 94T456 48Q551 48 616 93ZM269 1360T252 1377T234 1422Q234 1450 251 1468T296 1486Q323 1486 340 1468T358 1422Q358 1394 341 1377T296 1360Q269 1360 252 1377ZM589 1360T572 1377T554 1422Q554 1450 571 1468T616 1486Q643
1486 660 1468T678 1422Q678 1394 661 1377T616 1360Q589 1360 572 1377Z" />
<glyph unicode="&#xf7;" glyph-name="divide" horiz-adv-x="1016" d="M481 1026T464 1043T446 1088Q446 1116 463 1134T508 1152Q535 1152 552 1134T570 1088Q570 1060 553 1043T508 1026Q481 1026 464 1043ZM144 728V792H872V728H144ZM481 368T464 385T446 430Q446
458 463 476T508 494Q535 494 552 476T570 430Q570 402 553 385T508 368Q481 368 464 385Z" />
<glyph unicode="&#xf8;" glyph-name="oslash" horiz-adv-x="912" d="M744 938Q824 798 824 540Q824 246 729 114T456 -18Q297 -18 207 86L142 -16L88 16L168 142Q88 282 88 540Q88 834 183 965T456 1096Q615 1096 705 993L770 1096L824 1064L744 938ZM361 1030T296
986T196 834T160 544Q160 328 210 209L667 933Q630 984 577 1007T456 1030Q361 1030 296 986ZM551 48T616 93T716 246T752 536Q752 752 702 871L245 146Q282 95 334 72T456 48Q551 48 616 93Z" />
<glyph unicode="&#xf9;" glyph-name="ugrave" horiz-adv-x="920" d="M284 -18T209 57T134 308V1080H202V304Q202 166 258 107T416 48Q494 48 576 91T708 226V1080H776V0H716L710 120H702Q645 52 570 17T414 -18Q284 -18 209 57ZM428 1264L264 1616H336L484 1264H428Z" />
<glyph unicode="&#xfa;" glyph-name="uacute" horiz-adv-x="920" d="M284 -18T209 57T134 308V1080H202V304Q202 166 258 107T416 48Q494 48 576 91T708 226V1080H776V0H716L710 120H702Q645 52 570 17T414 -18Q284 -18 209 57ZM428 1264L576 1616H648L484 1264H428Z" />
<glyph unicode="&#xfb;" glyph-name="ucircumflex" horiz-adv-x="920" d="M284 -18T209 57T134 308V1080H202V304Q202 166 258 107T416 48Q494 48 576 91T708 226V1080H776V0H716L710 120H702Q645 52 570 17T414 -18Q284 -18 209 57ZM670 1264H606L456 1573L306
1264H242L418 1616H494L670 1264Z" />
<glyph unicode="&#xfc;" glyph-name="udieresis" horiz-adv-x="920" d="M284 -18T209 57T134 308V1080H202V304Q202 166 258 107T416 48Q494 48 576 91T708 226V1080H776V0H716L710 120H702Q645 52 570 17T414 -18Q284 -18 209 57ZM269 1360T252 1377T234 1422Q234
1450 251 1468T296 1486Q323 1486 340 1468T358 1422Q358 1394 341 1377T296 1360Q269 1360 252 1377ZM589 1360T572 1377T554 1422Q554 1450 571 1468T616 1486Q643 1486 660 1468T678 1422Q678 1394 661 1377T616 1360Q589 1360 572 1377Z" />
<glyph unicode="&#xfd;" glyph-name="yacute" horiz-adv-x="858" d="M770 1080H846L326 -440H254L406 0H382L12 1080H88L429 67L770 1080ZM402 1264L550 1616H622L458 1264H402Z" />
<glyph unicode="&#xfe;" glyph-name="thorn" horiz-adv-x="914" d="M144 1616H212V978H218Q260 1030 325 1063T478 1096Q634 1096 730 973T826 560Q826 263 709 123T366 -18Q292 -18 212 -8V-440H144V1616ZM560 48T657 166T754 552Q754 738 717 843T619 989T472
1030Q391 1030 321 989T212 874V62Q242 56 286 52T368 48Q560 48 657 166Z" />
<glyph unicode="&#xff;" glyph-name="ydieresis" horiz-adv-x="858" d="M770 1080H846L326 -440H254L406 0H382L12 1080H88L429 67L770 1080ZM243 1360T226 1377T208 1422Q208 1450 225 1468T270 1486Q297 1486 314 1468T332 1422Q332 1394 315 1377T270 1360Q243
1360 226 1377ZM563 1360T546 1377T528 1422Q528 1450 545 1468T590 1486Q617 1486 634 1468T652 1422Q652 1394 635 1377T590 1360Q563 1360 546 1377Z" />
<glyph unicode="&#x2013;" glyph-name="endash" horiz-adv-x="800" d="M0 528V592H800V528H0Z" />
<glyph unicode="&#x2014;" glyph-name="emdash" horiz-adv-x="1600" d="M0 528V592H1600V528H0Z" />
<glyph unicode="&#x2018;" glyph-name="quoteleft" horiz-adv-x="360" d="M207 1326T224 1308T242 1262Q242 1235 226 1218T182 1200Q152 1200 135 1220T118 1284Q118 1448 186 1616H230Q203 1529 189 1461T172 1326H180Q207 1326 224 1308Z" />
<glyph unicode="&#x2019;" glyph-name="quoteright" horiz-adv-x="360" d="M208 1626T225 1606T242 1542Q242 1378 174 1210H130Q157 1297 171 1365T188 1500H180Q153 1500 136 1518T118 1564Q118 1591 134 1608T178 1626Q208 1626 225 1606Z" />
<glyph unicode="&#x201a;" glyph-name="quotesinglbase" horiz-adv-x="360" d="M208 116T225 96T242 32Q242 -132 174 -300H130Q157 -213 171 -145T188 -10H180Q153 -10 136 8T118 54Q118 81 134 98T178 116Q208 116 225 96Z" />
<glyph unicode="&#x201c;" glyph-name="quotedblleft" horiz-adv-x="610" d="M207 1326T224 1308T242 1262Q242 1235 226 1218T182 1200Q152 1200 135 1220T118 1284Q118 1448 186 1616H230Q203 1529 189 1461T172 1326H180Q207 1326 224 1308ZM457 1326T474 1308T492
1262Q492 1235 476 1218T432 1200Q402 1200 385 1220T368 1284Q368 1448 436 1616H480Q453 1529 439 1461T422 1326H430Q457 1326 474 1308Z" />
<glyph unicode="&#x201d;" glyph-name="quotedblright" horiz-adv-x="610" d="M208 1626T225 1606T242 1542Q242 1378 174 1210H130Q157 1297 171 1365T188 1500H180Q153 1500 136 1518T118 1564Q118 1591 134 1608T178 1626Q208 1626 225 1606ZM458 1626T475
1606T492 1542Q492 1378 424 1210H380Q407 1297 421 1365T438 1500H430Q403 1500 386 1518T368 1564Q368 1591 384 1608T428 1626Q458 1626 475 1606Z" />
<glyph unicode="&#x201e;" glyph-name="quotedblbase" horiz-adv-x="610" d="M208 116T225 96T242 32Q242 -132 174 -300H130Q157 -213 171 -145T188 -10H180Q153 -10 136 8T118 54Q118 81 134 98T178 116Q208 116 225 96ZM458 116T475 96T492 32Q492 -132 424
-300H380Q407 -213 421 -145T438 -10H430Q403 -10 386 8T368 54Q368 81 384 98T428 116Q458 116 475 96Z" />
<glyph unicode="&#x2022;" glyph-name="bullet" horiz-adv-x="636" d="M263 360T217 386T145 457T118 560Q118 617 144 662T217 734T318 760Q373 760 419 734T491 663T518 560Q518 503 492 458T419 386T318 360Q263 360 217 386Z" />
<glyph unicode="&#x2039;" glyph-name="guilsinglleft" horiz-adv-x="436" d="M298 140L110 560L298 980H366L178 560L366 140H298Z" />
<glyph unicode="&#x203a;" glyph-name="guilsinglright" horiz-adv-x="436" d="M70 140L258 560L70 980H138L326 560L138 140H70Z" />
</font>
</defs>
</svg>
