<?xml version="1.0" standalone="no"?>
<!DOCTYPE svg PUBLIC "-//W3C//DTD SVG 1.1//EN" "http://www.w3.org/Graphics/SVG/1.1/DTD/svg11.dtd">
<svg xmlns="http://www.w3.org/2000/svg">
<defs >
<font id="StintUltraExpanded" horiz-adv-x="1210" ><font-face
    font-family="Stint Ultra Expanded"
    units-per-em="2048"
    panose-1="2 6 5 7 4 6 4 2 2 6"
    ascent="1853"
    descent="-483"
    alphabetic="0" />
<glyph unicode=" " glyph-name="space" horiz-adv-x="770" />
<glyph unicode="!" glyph-name="exclam" horiz-adv-x="563" d="M322 328H238L203 1157V1323Q203 1352 220 1375T279 1399Q321 1399 338 1376T356 1323V1157L322 328ZM164 106Q164 131 173 152T197 190T234 215T281 225Q305 225 326 216T364 190T389 153T399 106Q399
82 390 61T364 24T327 -1T281 -10Q256 -10 235 -1T198 23T173 60T164 106Z" />
<glyph unicode="&quot;" glyph-name="quotedbl" horiz-adv-x="594" d="M92 969L72 1374H215L195 969H92ZM399 969L379 1374H522L502 969H399Z" />
<glyph unicode="#" glyph-name="numbersign" horiz-adv-x="1436" d="M1069 891L981 485H1219V393H961L872 0H772L860 393H446L358 0H258L346 393H102V485H365L455 891H217V983H475L561 1374H662L575 983H989L1075 1374H1176L1090 983H1333V891H1069ZM555 891L465
485H881L969 891H555Z" />
<glyph unicode="$" glyph-name="dollar" horiz-adv-x="1591" d="M102 33V526H215V385Q215 333 237 293T298 224T388 174T496 140T613 120T729 111V664Q653 678 579 694T439 731T316 779T218 842T153 926T129 1034Q129 1099 154 1149T222 1237T324 1299T449 1340T587
1362T729 1370V1483H836V1366Q917 1361 986 1347T1113 1314T1212 1273T1280 1229V1346H1393V913H1280V1001Q1280 1051 1251 1096T1166 1176T1027 1235T836 1266V754Q915 738 993 720T1142 680T1274 629T1381 562T1451 474T1477 362Q1477 291 1450 238T1376 145T1267
79T1133 37T986 14T836 6V-109H729V8Q547 15 416 54T215 150V33H102ZM1350 360Q1350 426 1308 471T1194 548T1030 602T836 643V109Q949 110 1043 125T1206 170T1312 248T1350 360ZM252 1032Q252 975 290 935T394 865T546 814T729 774V1268Q500 1265 376 1207T252
1032Z" />
<glyph unicode="%" glyph-name="percent" horiz-adv-x="2032" d="M494 0H362L1456 1374H1585L494 0ZM1847 324Q1847 243 1816 179T1730 68T1605 -2T1456 -27Q1378 -27 1308 -3T1184 68T1099 178T1067 324Q1067 406 1098 471T1183 581T1307 650T1456 674Q1534 674
1605 650T1730 581T1815 471T1847 324ZM1729 324Q1729 377 1711 423T1658 505T1572 560T1456 580Q1391 580 1341 560T1256 505T1204 424T1186 324Q1186 271 1203 225T1255 144T1340 89T1456 68Q1521 68 1572 88T1658 143T1711 224T1729 324ZM883 1049Q883 968 851
904T766 793T641 723T492 698Q414 698 344 722T220 793T134 903T102 1049Q102 1131 134 1196T219 1306T343 1375T492 1399Q570 1399 641 1375T765 1306T851 1196T883 1049ZM764 1049Q764 1102 746 1148T694 1230T608 1285T492 1305Q426 1305 376 1285T291 1230T239
1149T221 1049Q221 996 238 950T290 869T375 814T492 793Q557 793 608 813T693 868T746 949T764 1049Z" />
<glyph unicode="&amp;" glyph-name="ampersand" horiz-adv-x="2073" d="M1268 713H1946V600H1679Q1659 461 1576 347T1368 150Q1433 117 1491 102T1612 86Q1679 86 1727 102T1806 148T1854 220T1876 313H1991Q1975 156 1880 69T1614 -18Q1523 -18 1436 7T1255
86Q1146 32 1024 3T774 -27Q654 -27 543 -5T346 62T209 179T158 350Q158 413 187 467T267 569T384 659T524 739Q452 839 411 931T369 1096Q369 1172 406 1229T506 1324T655 1380T838 1399Q922 1399 994 1382T1121 1333T1206 1256T1237 1155Q1237 1105 1215 1061T1153
979T1061 905T948 838T821 775T690 713Q748 643 817 573T962 438T1114 314T1266 209Q1323 243 1372 285T1460 376T1525 481T1561 600H1268V713ZM797 78Q883 78 973 96T1151 152Q1073 203 996 263T846 388T707 522T586 659Q522 627 467 593T370 521T305 441T281
350Q281 299 310 250T402 163T562 101T797 78ZM492 1096Q492 1033 529 955T629 791Q719 834 806 876T962 960T1072 1049T1114 1147Q1114 1174 1101 1200T1057 1247T974 1281T844 1294Q768 1294 704 1283T592 1247T519 1186T492 1096Z" />
<glyph unicode="&apos;" glyph-name="quotesingle" horiz-adv-x="287" d="M92 969L72 1374H215L195 969H92Z" />
<glyph unicode="(" glyph-name="parenleft" horiz-adv-x="862" d="M293 684Q293 571 319 465T392 264T507 88T657 -55L575 -141Q482 -71 406 19T276 215T193 439T164 684Q164 811 193 929T276 1152T406 1348T575 1509L657 1423Q574 1361 507 1280T393 1104T319
903T293 684Z" />
<glyph unicode=")" glyph-name="parenright" horiz-adv-x="862" d="M569 684Q569 797 543 903T470 1104T355 1280T205 1423L287 1509Q381 1438 457 1348T586 1153T669 929T698 684Q698 557 669 439T587 216T457 20T287 -141L205 -55Q288 7 355 88T469 264T543
465T569 684Z" />
<glyph unicode="*" glyph-name="asterisk" horiz-adv-x="1032" d="M854 719L559 903L571 578H459L473 903L180 719L123 813L432 977L123 1141L180 1233L473 1051L459 1374H571L557 1051L854 1233L909 1141L598 977L909 813L854 719Z" />
<glyph unicode="+" glyph-name="plus" horiz-adv-x="1300" d="M705 631V203H596V631H172V739H596V1167H705V739H1128V631H705Z" />
<glyph unicode="," glyph-name="comma" horiz-adv-x="481" d="M123 109Q123 133 131 154T156 190T193 215T240 225Q266 225 288 216T326 189T351 148T360 96Q360 51 348 9T315 -72T266 -145T205 -207L152 -156Q189 -118 213 -81T248 0Q216 0 193 9T154 34T131
69T123 109Z" />
<glyph unicode="-" glyph-name="hyphen" horiz-adv-x="1106" d="M164 424V547H942V424H164Z" />
<glyph unicode="." glyph-name="period" horiz-adv-x="481" d="M123 106Q123 131 132 152T156 190T193 215T240 225Q264 225 285 216T323 190T348 153T358 106Q358 82 349 61T323 24T286 -1T240 -10Q215 -10 194 -1T157 23T132 60T123 106Z" />
<glyph unicode="/" glyph-name="slash" horiz-adv-x="1024" d="M233 -41H113L791 1436H911L233 -41Z" />
<glyph unicode="0" glyph-name="zero" horiz-adv-x="1706" d="M1581 686Q1581 571 1553 473T1474 296T1355 157T1206 56T1036 -6T854 -27Q762 -27 673 -6T502 55T352 156T233 296T154 473T125 686Q125 801 153 898T232 1075T352 1214T502 1316T672 1378T854 1399Q946
1399 1035 1378T1205 1316T1355 1215T1474 1075T1552 899T1581 686ZM1456 686Q1456 788 1432 873T1366 1025T1265 1142T1140 1224T1000 1273T854 1290Q744 1290 636 1254T442 1142T303 954T250 686Q250 532 303 419T442 230T636 119T854 82Q927 82 1000 98T1140
148T1265 231T1365 348T1432 500T1456 686Z" />
<glyph unicode="1" glyph-name="one" horiz-adv-x="963" d="M143 113H451V1264L102 1161V1272L451 1374H573V113H881V0H143V113Z" />
<glyph unicode="2" glyph-name="two" horiz-adv-x="1536" d="M102 0V84Q275 181 427 266T707 429T936 576T1108 712T1215 843T1253 973Q1253 1047 1224 1106T1132 1206T974 1268T745 1290Q623 1290 526 1269T360 1202T254 1088T217 924H90Q90 1010 116 1079T189
1201T297 1291T430 1353T578 1388T731 1399Q882 1399 1002 1370T1206 1286T1335 1149T1380 963Q1380 867 1312 773T1116 576T802 361T383 115H1311V430H1423V-2L102 0Z" />
<glyph unicode="3" glyph-name="three" horiz-adv-x="1542" d="M829 862Q963 851 1058 825T1219 763T1324 683T1385 595T1412 507T1419 426Q1419 318 1369 234T1227 91T1009 3T731 -27Q606 -27 490 -2T285 81T143 228T90 449H217Q217 354 254 285T359 170T525
104T745 82Q885 82 988 109T1158 184T1259 293T1292 424Q1292 499 1264 560T1164 666T970 734T662 760V868L1190 1260H301V1004H188V1374H1403V1288L829 862Z" />
<glyph unicode="4" glyph-name="four" horiz-adv-x="1575" d="M717 113H1038V352H61V463L950 1374H1161V467H1513V352H1161V113H1454V0H717V113ZM1038 1300L225 467H1038V1300Z" />
<glyph unicode="5" glyph-name="five" horiz-adv-x="1536" d="M291 811Q326 830 376 845T485 872T609 889T743 895Q924 895 1052 860T1263 763T1384 614T1423 426Q1423 332 1386 250T1270 106T1067 9T770 -27Q642 -29 522 -4T309 75T159 217T102 426H229Q229 339
269 274T382 166T555 102T774 80Q905 80 1003 105T1166 177T1263 286T1296 426Q1296 601 1162 694T754 788Q586 788 466 762T264 670H162L225 1374H1311V1260H332L291 811Z" />
<glyph unicode="6" glyph-name="six" horiz-adv-x="1604" d="M262 655Q282 675 326 712T444 786T622 850T866 877Q1000 877 1115 849T1316 765T1450 625T1499 426Q1499 332 1456 250T1331 106T1128 9T852 -27Q696 -27 564 14T337 139T187 349T133 645Q133 812
177 950T312 1189T537 1344T854 1399Q935 1399 1011 1388T1156 1354T1280 1296T1378 1213T1441 1103T1464 965H1337Q1337 1045 1305 1105T1210 1207T1058 1269T854 1290Q689 1290 576 1238T393 1099T293 896T262 655ZM836 768Q716 768 623 739T462 668T348 578T279
492Q291 419 329 346T435 214T605 119T846 82Q975 82 1073 106T1239 176T1340 284T1374 426Q1374 506 1343 569T1245 677T1078 744T836 768Z" />
<glyph unicode="7" glyph-name="seven" horiz-adv-x="1348" d="M61 983V1374H1389V1305Q1279 1201 1180 1103T996 906T843 707T727 496T653 264T627 0H496Q496 162 535 306T635 575T774 807T929 999T1075 1150T1190 1260H174V983H61Z" />
<glyph unicode="8" glyph-name="eight" horiz-adv-x="1626" d="M1106 750Q1310 719 1413 622T1516 375Q1516 283 1470 209T1334 83T1113 2T811 -27Q641 -27 511 1T291 82T157 209T111 375Q111 449 136 512T212 623T339 705T516 754Q430 775 373 804T281 870T232
950T217 1044Q217 1129 259 1195T380 1307T567 1375T811 1399Q862 1399 926 1394T1057 1375T1187 1336T1301 1272T1381 1176T1411 1044Q1411 994 1396 950T1345 869T1251 801T1106 750ZM1288 1044Q1288 1093 1262 1138T1179 1217T1032 1272T811 1292Q680 1292 591
1272T445 1218T365 1138T340 1044Q340 995 368 950T454 871T600 817T811 797Q932 797 1022 817T1171 871T1259 950T1288 1044ZM811 696Q677 696 571 675T391 615T278 518T238 389Q238 317 274 260T383 163T562 102T811 80Q952 80 1060 101T1241 162T1351 259T1389
389Q1389 461 1349 518T1233 614T1051 675T811 696Z" />
<glyph unicode="9" glyph-name="nine" horiz-adv-x="1604" d="M1341 717Q1321 697 1277 660T1159 587T982 523T737 496Q603 496 488 523T287 607T153 747T104 946Q104 1040 147 1122T272 1266T476 1363T752 1399Q908 1399 1039 1358T1266 1233T1416 1023T1470
727Q1470 560 1426 422T1291 184T1066 29T750 -27Q628 -27 518 -2T323 76T189 211T139 408H266Q266 328 298 267T393 165T545 103T750 82Q915 82 1028 134T1210 273T1310 476T1341 717ZM768 604Q888 604 981 633T1142 704T1256 794T1325 881Q1313 954 1275 1027T1168
1158T998 1253T758 1290Q629 1290 530 1266T365 1196T264 1088T229 946Q229 866 260 803T358 695T525 628T768 604Z" />
<glyph unicode=":" glyph-name="colon" horiz-adv-x="522" d="M143 106Q143 131 152 152T177 190T214 215T260 225Q285 225 306 216T344 190T369 153T379 106Q379 82 370 61T344 24T307 -1T260 -10Q236 -10 215 -1T177 23T152 60T143 106ZM143 696Q143 721 152
742T177 780T214 805T260 815Q285 815 306 806T344 780T369 743T379 696Q379 672 370 651T344 614T307 589T260 580Q236 580 215 589T177 613T152 650T143 696Z" />
<glyph unicode=";" glyph-name="semicolon" horiz-adv-x="522" d="M143 696Q143 721 152 742T177 780T214 805T260 815Q285 815 306 806T344 780T369 743T379 696Q379 672 370 651T344 614T307 589T260 580Q236 580 215 589T177 613T152 650T143 696ZM143 109Q143
133 152 154T176 190T213 215T260 225Q286 225 308 216T347 189T372 148T381 96Q381 51 369 9T335 -72T286 -145T225 -207L172 -156Q209 -118 233 -81T268 0Q236 0 213 9T174 34T151 69T143 109Z" />
<glyph unicode="&lt;" glyph-name="less" horiz-adv-x="1300" d="M156 637V731L1130 1171V1057L301 684L1130 313V199L156 637Z" />
<glyph unicode="=" glyph-name="equal" horiz-adv-x="1300" d="M172 821V930H1128V821H172ZM172 438V549H1128V438H172Z" />
<glyph unicode="&gt;" glyph-name="greater" horiz-adv-x="1300" d="M1145 637L170 199V313L999 684L170 1057V1171L1145 731V637Z" />
<glyph unicode="?" glyph-name="question" horiz-adv-x="1202" d="M614 1290Q444 1290 357 1208T270 965H143Q143 1178 264 1288T618 1399Q705 1399 785 1374T925 1299T1022 1173T1059 999Q1059 912 1036 847T973 732T883 649T777 592T666 556T561 535V328H436V625Q553
635 645 659T800 727T896 837T930 999Q930 1081 904 1136T833 1226T732 1275T614 1290ZM391 106Q391 131 400 152T424 190T461 215T508 225Q532 225 554 216T592 190T617 153T627 106Q627 82 618 61T592 24T554 -1T508 -10Q483 -10 462 -1T425 23T400 60T391 106Z"
/>
<glyph unicode="@" glyph-name="at" horiz-adv-x="2081" d="M1262 436Q1241 417 1213 397T1146 361T1060 335T952 324Q882 324 821 343T713 399T641 492T614 618Q614 726 654 807T759 943T909 1025T1081 1053Q1154 1053 1209 1037T1319 991L1329 1038H1448L1372
584Q1370 582 1369 573T1367 553T1365 533T1364 522Q1364 471 1399 448T1495 424Q1559 424 1614 452T1710 530T1774 646T1798 788Q1798 912 1748 1008T1607 1169T1386 1269T1100 1303Q924 1303 775 1253T518 1114T348 907T287 651Q287 518 338 413T486 234T721
121T1032 82Q1166 82 1288 106T1530 188L1581 88Q1447 22 1311 -3T1024 -29Q831 -29 672 17T398 151T220 365T156 651Q156 757 190 855T285 1038T432 1192T623 1311T847 1388T1096 1415Q1282 1415 1434 1371T1696 1245T1865 1048T1925 793Q1925 701 1894 617T1804
467T1663 363T1479 324Q1447 324 1417 329T1359 346T1307 380T1262 436ZM979 418Q1013 418 1048 424T1117 446T1184 484T1245 543L1300 877Q1250 918 1198 938T1079 958Q1014 958 954 938T848 876T773 772T745 625Q745 568 762 529T811 465T885 429T979 418Z" />
<glyph unicode="A" glyph-name="A" horiz-adv-x="1913" d="M444 1374H1030L1690 113H1954V0H1255V113H1552L1370 467H543L358 113H657V0H-41V113H223L823 1262H444V1374ZM956 1253L604 580H1309L956 1253Z" />
<glyph unicode="B" glyph-name="B" horiz-adv-x="1894" d="M82 1374H1143Q1202 1374 1261 1369T1374 1351T1475 1313T1556 1250T1610 1156T1630 1026Q1630 959 1614 910T1564 826T1478 769T1356 733Q1456 726 1527 699T1644 627T1710 520T1731 379Q1731 299 1710
240T1652 139T1562 70T1446 28T1310 6T1161 0H82V113H369V1262H82V1374ZM1599 381Q1599 459 1572 514T1489 604T1346 655T1137 672H494V113H1153Q1278 113 1363 127T1501 174T1576 258T1599 381ZM1513 1024Q1513 1053 1509 1082T1491 1137T1451 1187T1378 1226T1265
1252T1102 1262H494V782H1102Q1237 782 1318 801T1442 854T1499 931T1513 1024Z" />
<glyph unicode="C" glyph-name="C" horiz-adv-x="1860" d="M1599 860V940Q1599 1026 1550 1090T1420 1198T1232 1264T1012 1286Q818 1286 678 1244T448 1123T315 933T272 686Q272 549 318 439T456 250T685 130T1006 88Q1109 88 1203 106T1374 161T1510 250T1599
375H1737Q1701 287 1638 214T1481 87T1265 3T987 -27Q806 -27 650 18T380 152T200 375T135 686Q135 863 200 997T382 1220T656 1354T999 1399Q1120 1399 1211 1384T1373 1346T1498 1293T1599 1235V1374H1712V860H1599Z" />
<glyph unicode="D" glyph-name="D" horiz-adv-x="2001" d="M82 1374H1075Q1244 1374 1389 1341T1640 1229T1807 1017T1868 688Q1868 556 1841 454T1763 275T1642 146T1483 61T1293 15T1077 0H82V113H369V1262H82V1374ZM1739 688Q1739 800 1717 886T1654 1035T1554
1142T1421 1211T1260 1249T1075 1260H494V115H1075Q1222 115 1344 141T1553 233T1690 409T1739 688Z" />
<glyph unicode="E" glyph-name="E" horiz-adv-x="1755" d="M1485 963V1257H494V784H1257V668H494V117H1499V432H1612V0H82V113H369V1262H82V1374H1597V963H1485Z" />
<glyph unicode="F" glyph-name="F" horiz-adv-x="1638" d="M1423 963V1257H494V764H1264V647H494V113H780V0H82V113H369V1262H82V1374H1536V963H1423Z" />
<glyph unicode="G" glyph-name="G" horiz-adv-x="1993" d="M1571 0V61Q1444 10 1312 -8T1042 -27Q848 -27 682 16T395 148T204 371T135 686Q135 867 204 1001T392 1223T671 1355T1010 1399Q1110 1399 1192 1388T1342 1358T1468 1315T1579 1264V1395H1692V881H1579V1034Q1579
1074 1555 1108T1489 1170T1392 1220T1276 1256T1149 1278T1024 1286Q824 1286 681 1245T445 1126T308 937T264 686Q264 555 312 445T459 254T706 129T1053 84Q1125 84 1196 91T1333 113T1460 146T1571 188V571H1223V684H1880V571H1696V0H1571Z" />
<glyph unicode="H" glyph-name="H" horiz-adv-x="2218" d="M82 1374H780V1262H494V782H1724V1262H1438V1374H2136V1262H1849V113H2136V0H1438V113H1724V666H494V113H780V0H82V113H369V1262H82V1374Z" />
<glyph unicode="I" glyph-name="I" horiz-adv-x="862" d="M82 1374H780V1262H494V113H780V0H82V113H369V1262H82V1374Z" />
<glyph unicode="J" glyph-name="J" horiz-adv-x="1460" d="M721 1374H1440V1262H1153V440Q1153 326 1114 241T1003 98T833 13T612 -16Q492 -16 394 11T227 94T120 235T82 434H207Q212 264 314 181T614 98Q708 98 784 117T915 179T998 289T1028 453V1262H721V1374Z" />
<glyph unicode="K" glyph-name="K" horiz-adv-x="1907" d="M82 1374H780V1262H494V727L1311 1262H1151V1374H1829V1262H1503L774 784L782 786L1602 113H1886V0H1188V113H1423L680 723L494 602V113H780V0H82V113H369V1262H82V1374Z" />
<glyph unicode="L" glyph-name="L" horiz-adv-x="1683" d="M82 1374H780V1262H494V117H1489V432H1602V0H82V113H369V1262H82V1374Z" />
<glyph unicode="M" glyph-name="M" horiz-adv-x="2607" d="M82 1374H502L1309 129L2103 1374H2525V1262H2238V113H2525V0H1827V113H2114V1169L1360 0H1249L494 1174V113H780V0H82V113H369V1262H82V1374Z" />
<glyph unicode="N" glyph-name="N" horiz-adv-x="2171" d="M82 1374H506L1698 160V1262H1411V1374H2109V1262H1823V0H1686L494 1210V113H780V0H82V113H369V1262H82V1374Z" />
<glyph unicode="O" glyph-name="O" horiz-adv-x="2015" d="M1880 686Q1880 501 1813 367T1629 145T1353 15T1010 -27Q825 -27 665 15T387 144T202 366T135 686Q135 809 166 909T253 1089T388 1227T565 1323T775 1380T1010 1399Q1194 1399 1353 1357T1629 1228T1813
1006T1880 686ZM1743 686Q1743 978 1559 1131T1010 1284Q644 1284 458 1130T272 686Q272 394 458 241T1010 88Q1375 88 1559 241T1743 686Z" />
<glyph unicode="P" glyph-name="P" horiz-adv-x="1815" d="M82 1374H1110Q1270 1374 1383 1347T1569 1266T1674 1134T1708 952Q1708 849 1675 770T1569 637T1384 556T1110 528H494V113H780V0H82V113H369V1262H82V1374ZM1571 952Q1571 1050 1540 1110T1443 1202T1275
1246T1030 1257H494V645H1030Q1085 645 1146 645T1268 650T1383 673T1480 724T1546 813T1571 952Z" />
<glyph unicode="Q" glyph-name="Q" horiz-adv-x="2015" d="M1880 686Q1880 512 1821 384T1659 168Q1749 140 1835 117T2003 80L1954 -45Q1857 -20 1751 16T1542 90Q1433 30 1298 2T1010 -27Q825 -27 665 15T387 144T202 366T135 686Q135 809 166 909T253 1089T388
1227T565 1323T775 1380T1010 1399Q1194 1399 1353 1357T1629 1228T1813 1006T1880 686ZM1751 686Q1751 832 1704 944T1563 1132T1332 1248T1010 1288Q827 1288 688 1248T454 1132T312 943T264 686Q264 540 312 428T454 240T687 124T1010 84Q1240 84 1399 145Q1338
170 1287 191T1198 230Q1154 249 1118 266L1167 367Q1248 326 1339 287T1530 213Q1639 290 1695 408T1751 686Z" />
<glyph unicode="R" glyph-name="R" horiz-adv-x="1972" d="M1315 113H1528L1169 592Q1142 590 1113 589T1053 588H494V113H780V0H82V113H369V1262H82V1374H1053Q1210 1374 1322 1350T1505 1276T1609 1152T1642 979Q1642 825 1561 733T1300 606L1681 113H1972V0H1315V113ZM1505
979Q1505 1067 1476 1121T1378 1206T1197 1246T920 1257H494V705H915Q1080 705 1192 714T1374 753T1474 836T1505 979Z" />
<glyph unicode="S" glyph-name="S" horiz-adv-x="1665" d="M123 0V494H236V352Q236 293 265 251T344 179T456 131T589 103T726 90T854 86Q972 86 1074 99T1251 142T1370 220T1413 340Q1413 402 1378 446T1281 523T1138 578T964 619T775 655T586 694T413 745T270
815T173 912T137 1047Q137 1116 164 1169T239 1262T351 1327T486 1369T634 1392T784 1399Q887 1399 976 1386T1138 1353T1262 1307T1343 1257V1374H1456V942H1343V1030Q1343 1085 1308 1131T1203 1212T1032 1266T797 1286Q676 1286 579 1273T414 1231T309 1158T272
1051Q272 994 308 954T405 883T548 831T722 790T911 753T1100 711T1274 657T1417 584T1514 484T1550 348Q1550 271 1520 214T1438 115T1317 46T1170 2T1010 -20T850 -27Q741 -27 647 -17T474 13T336 59T236 117V0H123Z" />
<glyph unicode="T" glyph-name="T" horiz-adv-x="1657" d="M80 881V1374H1577V881H1464V1260H891V113H1198V0H459V113H766V1260H193V881H80Z" />
<glyph unicode="U" glyph-name="U" horiz-adv-x="2001" d="M20 1374H719V1262H432V422Q432 353 468 292T577 184T755 111T1001 84Q1140 84 1246 111T1424 184T1532 291T1569 422V1262H1282V1374H1980V1262H1694V432Q1694 329 1651 245T1521 100T1304 6T1001 -27Q828
-27 698 6T481 99T351 244T307 432V1262H20V1374Z" />
<glyph unicode="V" glyph-name="V" horiz-adv-x="1839" d="M-41 1374H657V1262H350L920 86L1487 1262H1182V1374H1880V1262H1626L1010 0H823L211 1262H-41V1374Z" />
<glyph unicode="W" glyph-name="W" horiz-adv-x="2757" d="M-41 1374H657V1262H342L805 100L1294 1374H1462L1952 100L2415 1262H2099V1374H2798V1262H2554L2046 0H1860L1378 1241L897 0H711L203 1262H-41V1374Z" />
<glyph unicode="X" glyph-name="X" horiz-adv-x="1849" d="M1130 1374H1808V1262H1534L1004 705L1567 113H1829V0H1130V113H1409L924 621L438 113H719V0H20V113H281L846 705L313 1262H41V1374H719V1262H471L924 786L1376 1262H1130V1374Z" />
<glyph unicode="Y" glyph-name="Y" horiz-adv-x="1808" d="M0 1374H698V1262H436L905 686L1370 1262H1110V1374H1808V1262H1520L967 582V113H1274V0H535V113H842V582L289 1262H0V1374Z" />
<glyph unicode="Z" glyph-name="Z" horiz-adv-x="1507" d="M154 963V1374H1391V1307L276 117H1292V432H1405V0H102V102L1186 1257H266V963H154Z" />
<glyph unicode="[" glyph-name="bracketleft" horiz-adv-x="838" d="M258 -121V1489H735V1382H383V-14H735V-121H258Z" />
<glyph unicode="\" glyph-name="backslash" horiz-adv-x="1024" d="M113 1436H233L911 -41H791L113 1436Z" />
<glyph unicode="]" glyph-name="bracketright" horiz-adv-x="838" d="M102 -121V-14H455V1382H102V1489H580V-121H102Z" />
<glyph unicode="^" glyph-name="asciicircum" horiz-adv-x="942" d="M748 784L471 1278L195 784H61L403 1374H539L881 784H748Z" />
<glyph unicode="_" glyph-name="underscore" horiz-adv-x="1024" d="M0 -250V-135H1024V-250H0Z" />
<glyph unicode="`" glyph-name="grave" horiz-adv-x="1081" d="M240 1395L670 1182L627 1098L186 1284L240 1395Z" />
<glyph unicode="a" glyph-name="a" horiz-adv-x="1389" d="M1006 111Q960 88 904 64T783 19T645 -14T492 -27Q402 -27 329 -9T205 44T126 132T98 254Q98 361 167 429T357 537T645 597T1006 625V672Q1006 725 977 763T899 825T786 860T649 872Q565 872 503 862T397
831T329 781T291 713L164 743Q196 855 316 917T645 979Q750 979 839 961T992 904T1093 803T1130 651V113H1368V0H1006V111ZM1006 520Q787 512 637 492T395 439T262 362T221 260Q221 172 297 126T522 80Q585 80 656 94T795 129T918 178T1006 231V520Z" />
<glyph unicode="b" glyph-name="b" horiz-adv-x="1518" d="M47 1374H397V813Q444 850 495 880T605 933T730 967T874 979Q979 979 1077 949T1251 855T1373 696T1419 469Q1419 343 1374 250T1249 95T1064 3T838 -27Q777 -27 718 -18T602 8T494 47T397 96V0H47V113H272V1262H47V1374ZM397
221Q436 193 482 168T584 123T702 92T836 80Q939 80 1023 106T1168 181T1262 303T1296 469Q1296 566 1267 641T1182 767T1041 845T846 872Q771 872 706 855T584 809T481 747T397 680V221Z" />
<glyph unicode="c" glyph-name="c" horiz-adv-x="1333" d="M1112 584V631Q1112 692 1074 737T976 811T845 854T707 868Q595 868 506 841T356 764T262 641T229 477Q229 385 261 313T353 189T501 111T700 84Q794 84 864 101T984 146T1063 208T1108 276H1237Q1181
128 1043 52T694 -25Q566 -25 457 7T268 103T143 260T98 475Q98 597 145 691T273 849T464 946T698 979Q771 979 834 969T949 942T1042 902T1112 856V958H1221V584H1112Z" />
<glyph unicode="d" glyph-name="d" horiz-adv-x="1497" d="M1470 0H1120V139Q1073 102 1022 72T913 19T788 -15T643 -27Q539 -27 441 3T266 97T144 256T98 483Q98 609 143 702T268 856T453 948T680 979Q741 979 800 970T915 943T1023 904T1120 856V1262H893V1374H1245V113H1470V0ZM672
80Q746 80 811 97T933 143T1036 205T1120 272V729Q1082 757 1035 782T933 828T815 860T682 872Q579 872 494 846T349 771T255 649T221 483Q221 289 336 185T672 80Z" />
<glyph unicode="e" glyph-name="e" horiz-adv-x="1329" d="M1106 524Q1101 592 1075 653T997 760T866 834T676 862Q572 862 492 835T356 761T268 653T227 524H1106ZM674 -25Q543 -25 437 9T255 108T139 265T98 471Q98 582 141 674T261 833T444 936T676 973Q807
973 911 936T1087 830T1197 661T1235 438V416H227Q234 340 266 279T356 175T492 109T674 86Q772 86 844 102T967 145T1049 206T1098 276H1223Q1164 124 1023 50T674 -25Z" />
<glyph unicode="f" glyph-name="f" horiz-adv-x="836" d="M47 952H272V1032Q272 1120 305 1188T399 1302T544 1371T731 1395Q795 1395 848 1389T945 1371T1028 1346T1100 1317L1051 1208Q1017 1226 988 1240T922 1264T836 1280T713 1286Q648 1286 591 1271T490
1224T422 1145T397 1036V952H823V840H397V113H700V0H47V113H272V840H47V952Z" />
<glyph unicode="g" glyph-name="g" horiz-adv-x="1497" d="M641 -414Q498 -414 378 -386T166 -313L223 -203Q241 -214 273 -230T355 -263T475 -291T641 -303Q743 -303 818 -288T946 -247T1033 -185T1086 -108T1113 -22T1120 68V139Q1073 102 1022 72T913 19T788
-15T643 -27Q539 -27 441 3T266 97T144 256T98 483Q98 609 143 702T268 856T453 948T680 979Q741 979 800 970T915 943T1023 904T1120 856V952H1470V840H1245V72Q1245 -36 1210 -125T1102 -278T914 -378T641 -414ZM672 80Q746 80 811 97T933 143T1036 205T1120
272V729Q1082 757 1035 782T933 828T815 860T682 872Q579 872 494 846T349 771T255 649T221 483Q221 289 336 185T672 80Z" />
<glyph unicode="h" glyph-name="h" horiz-adv-x="1548" d="M47 1374H397V772Q444 817 502 855T627 923T768 968T920 985Q1013 985 1082 962T1198 895T1267 791T1290 653V113H1516V0H940V113H1165V616Q1165 692 1146 741T1090 820T1003 860T887 872Q812 872 740
852T605 802T488 736T397 666V113H623V0H47V113H272V1262H47V1374Z" />
<glyph unicode="i" glyph-name="i" horiz-adv-x="655" d="M47 952H397V113H623V0H47V113H272V840H47V952ZM209 1219Q209 1242 217 1262T241 1298T276 1322T319 1331Q342 1331 362 1322T398 1298T423 1263T432 1219Q432 1196 423 1176T399 1140T363 1117T319 1108Q296
1108 276 1116T241 1140T218 1175T209 1219Z" />
<glyph unicode="j" glyph-name="j" horiz-adv-x="657" d="M102 952H453V-94Q453 -255 375 -334T147 -414Q108 -414 73 -407T8 -390T-42 -367T-76 -346L-25 -244Q-16 -252 0 -262T39 -282T88 -297T147 -303Q192 -303 226 -293T282 -257T316 -193T328 -94V840H102V952ZM244
1219Q244 1242 252 1262T276 1298T311 1322T354 1331Q377 1331 397 1322T433 1298T458 1263T467 1219Q467 1196 458 1176T434 1140T398 1117T354 1108Q331 1108 311 1116T276 1140T253 1175T244 1219Z" />
<glyph unicode="k" glyph-name="k" horiz-adv-x="1487" d="M47 1374H397V567L860 848Q920 884 969 907T1061 944T1139 963T1210 969Q1267 969 1302 962T1364 946L1327 836Q1315 840 1303 843T1278 850T1248 854T1210 856Q1181 856 1152 854T1089 841T1013 812T915
758L678 614L1217 113H1475V0H899V113H1053L582 555L397 442V113H623V0H47V113H272V1262H47V1374Z" />
<glyph unicode="l" glyph-name="l" horiz-adv-x="637" d="M-20 1374H330V311Q330 251 340 214T371 156T427 128T510 121H608V0H512Q432 0 374 14T279 65T223 161T205 315V1262H-20V1374Z" />
<glyph unicode="m" glyph-name="m" horiz-adv-x="2318" d="M1710 113H1935V616Q1935 692 1916 741T1862 820T1778 860T1667 872Q1602 872 1540 852T1421 801T1315 734T1229 664V653V113H1454V0H879V113H1104V616Q1104 692 1085 741T1031 820T946 860T836 872Q769
872 706 852T587 802T482 736T397 666V113H623V0H47V113H272V840H47V952H397V782Q444 823 497 860T609 924T732 968T868 985Q1011 985 1096 929T1212 772Q1259 812 1315 850T1433 919T1563 967T1700 985Q1790 985 1857 962T1970 895T2037 791T2060 653V113H2286V0H1710V113Z"
/>
<glyph unicode="n" glyph-name="n" horiz-adv-x="1548" d="M47 952H397V772Q444 817 502 855T627 923T768 968T920 985Q1013 985 1082 962T1198 895T1267 791T1290 653V113H1516V0H940V113H1165V616Q1165 692 1146 741T1090 820T1003 860T887 872Q812 872 740
852T605 802T488 736T397 666V113H623V0H47V113H272V840H47V952Z" />
<glyph unicode="o" glyph-name="o" horiz-adv-x="1419" d="M1321 475Q1321 344 1274 250T1145 94T952 3T711 -27Q581 -27 469 2T275 93T145 249T98 475Q98 605 145 700T276 857T471 949T711 979Q840 979 951 950T1145 859T1274 702T1321 475ZM1198 475Q1198 668
1076 770T711 872Q468 872 345 770T221 475Q221 282 344 181T711 80Q953 80 1075 181T1198 475Z" />
<glyph unicode="p" glyph-name="p" horiz-adv-x="1497" d="M27 952H377V813Q424 852 475 883T584 935T709 968T854 979Q959 979 1057 950T1231 859T1353 702T1399 475Q1399 344 1350 250T1219 94T1030 3T807 -27Q740 -27 680 -18T567 6T466 42T377 86V-281H602V-393H27V-281H252V840H27V952ZM377
197Q451 147 557 114T805 80Q908 80 994 105T1143 181T1241 305T1276 475Q1276 670 1162 771T825 872Q751 872 686 856T564 812T461 752T377 686V197Z" />
<glyph unicode="q" glyph-name="q" horiz-adv-x="1497" d="M1470 840H1245V-281H1470V-393H905V-281H1120V139Q1073 102 1022 72T913 19T788 -15T643 -27Q539 -27 441 3T266 97T144 256T98 483Q98 609 143 702T268 856T453 948T680 979Q741 979 800 970T915 943T1023
904T1120 856V952H1470V840ZM672 80Q746 80 811 97T933 143T1036 205T1120 272V729Q1082 757 1035 782T933 828T815 860T682 872Q579 872 494 846T349 771T255 649T221 483Q221 289 336 185T672 80Z" />
<glyph unicode="r" glyph-name="r" horiz-adv-x="1047" d="M47 952H397V752Q438 800 485 841T586 913T703 961T838 979Q874 979 905 974T960 961T1000 947T1022 938L977 823Q952 836 913 850T813 864Q737 864 674 841T559 782T467 705T397 625V113H643V0H47V113H272V840H47V952Z"
/>
<glyph unicode="s" glyph-name="s" horiz-adv-x="1202" d="M111 0V350H223V289Q223 234 260 195T357 130T487 92T627 80Q707 80 774 88T890 117T966 169T993 250Q993 295 969 326T903 379T806 414T688 438T559 458T431 481T313 514T216 562T150 634T125 735Q125
811 163 859T262 936T400 974T557 985Q672 985 768 959T930 891V952H1042V631H930V705Q930 737 913 762T867 807T801 840T724 862T643 875T567 879Q409 879 329 848T248 735Q248 696 272 670T338 625T435 594T553 571T682 550T810 524T928 486T1025 432T1091 353T1116
244Q1116 189 1095 148T1039 77T959 26T863 -5T762 -22T666 -27Q516 -27 406 5T223 88V0H111Z" />
<glyph unicode="t" glyph-name="t" horiz-adv-x="1161" d="M0 952H258V1282H383V952H1053V840H383V285Q383 226 404 187T465 125T558 93T678 84Q743 84 797 92T895 112T975 141T1042 176L1104 76Q1067 55 1021 37T920 5T805 -17T680 -25Q584 -25 506 -9T373 43T288
137T258 281V840H0V952Z" />
<glyph unicode="u" glyph-name="u" horiz-adv-x="1542" d="M1501 0H1151V180Q1104 135 1046 97T922 29T781 -16T629 -33Q535 -33 466 -10T350 57T281 161T258 299V840H33V952H383V336Q383 260 402 211T458 132T545 92T662 80Q736 80 808 100T944 150T1061 217T1151
287V840H926V952H1276V113H1501V0Z" />
<glyph unicode="v" glyph-name="v" horiz-adv-x="1358" d="M0 952H494V840H326L678 121L1032 840H864V952H1358V840H1169L741 0H612L188 840H0V952Z" />
<glyph unicode="w" glyph-name="w" horiz-adv-x="2056" d="M41 952H535V840H346L627 147L952 952H1104L1430 147L1708 840H1522V952H2015V840H1835L1495 0H1366L1028 827L692 0H561L219 840H41V952Z" />
<glyph unicode="x" glyph-name="x" horiz-adv-x="1300" d="M766 113H950L647 414L344 113H535V0H41V113H199L573 487L221 840H41V952H535V840H367L645 559L926 840H766V952H1260V840H1073L719 487L1096 113H1260V0H766V113Z" />
<glyph unicode="y" glyph-name="y" horiz-adv-x="1358" d="M1358 840H1169L799 113L776 70Q739 -3 707 -67T640 -185T568 -281T484 -353T379 -398T246 -414Q186 -414 121 -397T4 -346L59 -240Q73 -249 90 -260T131 -280T182 -296T246 -303Q317 -303 369 -283T464
-226T540 -133T610 -8L186 840H0V952H494V840H330L678 123L1032 840H864V952H1358V840Z" />
<glyph unicode="z" glyph-name="z" horiz-adv-x="1262" d="M139 952H1118V854L301 117H1026V371H1139V0H113V102L926 836H252V610H139V952Z" />
<glyph unicode="{" glyph-name="braceleft" horiz-adv-x="791" d="M291 354Q291 429 285 482T259 569T201 619T100 635H61V737H100Q164 737 202 753T260 804T285 892T291 1020V1143Q291 1236 308 1301T361 1409T453 1470T588 1489H688V1382H602Q556 1382 521 1378T463
1353T428 1292T416 1178V1020Q416 964 409 910T383 811T328 733T236 686Q292 671 327 639T382 561T409 462T416 352V190Q416 117 428 76T463 15T521 -9T602 -14H688V-121H588Q510 -121 454 -102T361 -41T308 66T291 225V354Z" />
<glyph unicode="|" glyph-name="bar" horiz-adv-x="532" d="M205 -483V1565H328V-483H205Z" />
<glyph unicode="}" glyph-name="braceright" horiz-adv-x="791" d="M500 225Q500 132 483 67T430 -41T338 -102T203 -121H102V-14H188Q234 -14 269 -10T327 15T363 76T375 190V352Q375 408 382 462T409 561T464 638T555 686Q498 700 463 733T408 811T382 910T375
1020V1178Q375 1251 363 1292T328 1353T269 1377T188 1382H102V1489H203Q281 1489 337 1470T430 1409T483 1302T500 1143V1020Q500 946 505 893T530 805T587 754T690 737H729V635H690Q627 635 590 619T532 569T506 482T500 354V225Z" />
<glyph unicode="~" glyph-name="asciitilde" horiz-adv-x="1300" d="M1145 678Q1103 636 1044 607T903 578Q841 578 777 595T648 632T517 669T387 686Q352 686 319 676T256 650T201 614T156 573V692Q177 714 204 732T262 765T327 787T395 795Q456 795 521 778T652
740T783 702T913 684Q948 684 981 694T1044 720T1099 757T1145 799V678V678Z" />
<glyph unicode="&#xa0;" glyph-name="nbspace" horiz-adv-x="770" />
<glyph unicode="&#xa1;" glyph-name="exclamdown" horiz-adv-x="563" d="M242 713H326L360 -117V-283Q360 -312 343 -335T285 -358Q243 -358 225 -335T207 -283V-117L242 713ZM399 934Q399 909 390 888T366 850T329 825T283 815Q258 815 237 824T199 850T174 887T164
934Q164 958 173 979T199 1017T236 1042T283 1051Q307 1051 328 1042T365 1017T390 980T399 934Z" />
<glyph unicode="&#xa2;" glyph-name="cent" horiz-adv-x="1384" d="M1137 795V842Q1137 899 1104 942T1018 1015T900 1062T772 1083V295Q859 299 921 319T1026 367T1097 428T1143 492L1235 440Q1202 388 1159 345T1059 270T932 219T772 195V10H666V193Q547 200
448 235T276 333T164 485T123 690Q123 804 165 893T280 1045T452 1144T666 1188V1364H772V1188Q836 1185 891 1174T992 1146T1074 1109T1137 1067V1169H1241V795H1137ZM246 690Q246 606 274 537T357 416T489 335T666 297V1081Q568 1073 491 1043T359 962T275 843T246
690Z" />
<glyph unicode="&#xa3;" glyph-name="sterling" horiz-adv-x="1550" d="M555 621Q592 565 618 509T645 389Q645 359 639 326T616 260T571 194T498 131Q549 131 615 123T754 106T904 88T1051 80Q1139 80 1191 97T1272 142T1314 205T1339 276H1448Q1441 244 1432
209T1406 140T1364 76T1298 22T1199 -15T1061 -29Q983 -29 901 -20T738 0T582 20T446 29Q395 29 357 26T285 18T223 5T162 -14L123 84Q246 105 323 140T444 218T504 305T520 391Q520 419 511 446T487 502T451 560T410 621H102V721H338Q300 778 274 841T248 975Q248
1054 271 1116T335 1226T431 1306T549 1359T681 1389T819 1399Q954 1399 1054 1366T1225 1288V1380H1337V922H1225V1079Q1225 1119 1205 1150T1152 1204T1077 1244T990 1271T902 1285T823 1290Q732 1290 650 1272T507 1217T409 1121T373 981Q373 946 382 913T406
847T441 783T483 721H977V621H555Z" />
<glyph unicode="&#xa4;" glyph-name="currency" horiz-adv-x="1147" d="M870 903Q906 854 924 798T942 682Q942 623 925 567T870 463L1026 307L950 229L793 387Q743 352 687 333T573 313Q515 313 459 331T354 387L197 229L121 307L279 465Q243 513 224 569T205
682Q205 742 223 797T279 901L121 1061L197 1137L354 979Q405 1016 461 1033T578 1051Q635 1051 690 1034T793 981L950 1137L1026 1061L870 903ZM385 494Q423 455 472 437T573 418Q623 418 671 435T758 486T819 569T842 682Q842 736 821 785T762 870T677 928T573
950Q516 950 468 928T384 868T328 783T307 682Q307 629 326 581T385 494Z" />
<glyph unicode="&#xa5;" glyph-name="yen" horiz-adv-x="1702" d="M31 1374H668V1262H420L852 686L1282 1262H1034V1374H1671V1262H1430L1022 727H1475V618H938L911 582V481H1475V373H911V113H1198V0H504V113H791V373H227V481H791V582L762 618H227V727H680L272
1262H31V1374Z" />
<glyph unicode="&#xa6;" glyph-name="brokenbar" horiz-adv-x="532" d="M205 672V1430H328V672H205ZM205 -352V406H328V-352H205Z" />
<glyph unicode="&#xa7;" glyph-name="section" horiz-adv-x="1024" d="M901 655Q901 608 888 570T850 502T791 449T717 408Q771 370 805 322T840 209Q840 149 812 105T735 31T621 -12T481 -27Q397 -27 325 -12T180 29V170Q212 153 245 137T314 107T390 85T479
76Q599 76 658 111T717 203Q717 245 692 278T624 338T529 390T420 439T311 491T216 550T149 623T123 715Q123 761 137 798T175 865T233 918T305 961Q253 998 219 1046T184 1161Q184 1220 211 1264T285 1338T394 1382T528 1397Q600 1397 666 1385T805 1350V1206Q748
1243 684 1268T530 1294Q416 1294 362 1260T307 1167Q307 1125 332 1092T400 1032T495 980T604 931T713 879T808 820T875 747T901 655ZM780 627Q780 662 764 689T719 740T653 784T572 824T483 864T393 907Q371 898 345 885T297 853T259 807T244 743Q244 690 279
653T369 584T493 524T627 461Q651 471 677 486T727 522T765 569T780 627Z" />
<glyph unicode="&#xa8;" glyph-name="dieresis" horiz-adv-x="1081" d="M254 1204Q254 1241 278 1267T340 1294Q377 1294 403 1268T430 1204Q430 1167 404 1142T340 1116Q303 1116 279 1141T254 1204ZM651 1204Q651 1222 657 1238T676 1267T704 1287T739 1294Q776
1294 801 1268T827 1204Q827 1167 802 1142T739 1116Q701 1116 676 1141T651 1204Z" />
<glyph unicode="&#xa9;" glyph-name="copyright" horiz-adv-x="1579" d="M1477 686Q1477 591 1453 504T1383 340T1276 201T1136 94T971 25T788 0Q694 0 606 24T442 93T304 200T196 339T127 503T102 686Q102 781 126 869T196 1033T303 1173T442 1280T605 1349T788
1374Q883 1374 971 1350T1136 1281T1275 1173T1383 1034T1452 869T1477 686ZM197 686Q197 563 243 455T370 267T557 141T788 94Q912 94 1020 140T1210 267T1337 455T1384 686Q1384 810 1338 918T1210 1108T1021 1235T788 1282Q665 1282 558 1236T370 1108T244 919T197
686ZM780 272Q708 272 638 296T512 372T422 501T387 688Q387 791 421 868T510 998T637 1076T782 1102Q857 1102 916 1082T1012 1034V1087H1110V797H1012V850Q1012 884 995 914T948 966T878 1001T793 1014Q721 1014 667 990T576 923T521 820T502 688Q502 616 520
556T575 453T666 386T793 362Q847 362 886 376T953 413T998 463T1026 514H1126Q1110 460 1080 416T1007 339T907 290T780 272Z" />
<glyph unicode="&#xaa;" glyph-name="ordfeminine" horiz-adv-x="1055" d="M729 705V782Q694 766 654 749T567 718T467 695T352 686Q283 686 228 698T133 736T72 798T51 883Q51 958 101 1005T242 1080T456 1117T729 1130V1178Q729 1215 710 1240T656 1280T574
1302T473 1309Q408 1309 363 1303T288 1284T240 1251T213 1204L102 1227Q127 1305 218 1349T471 1393Q552 1393 620 1381T737 1341T814 1269T842 1163V793H1004V705H729ZM729 1051Q562 1046 453 1035T279 1004T188 956T162 887Q162 828 212 799T377 770Q425 770
476 779T576 804T664 839T729 877V1051ZM82 496V588H997V496H82Z" />
<glyph unicode="&#xab;" glyph-name="guillemotleft" horiz-adv-x="903" d="M82 444V535L367 870L453 797L197 489L453 182L367 109L82 444ZM451 444V535L735 870L821 797L565 489L821 182L735 109L451 444Z" />
<glyph unicode="&#xac;" glyph-name="logicalnot" horiz-adv-x="1300" d="M1020 459V786H172V895H1128V459H1020Z" />
<glyph unicode="&#xad;" glyph-name="uni00AD" horiz-adv-x="1106" d="M164 424V547H942V424H164Z" />
<glyph unicode="&#xae;" glyph-name="registered" horiz-adv-x="1229" d="M1118 893Q1118 788 1079 697T971 537T810 429T612 389Q508 389 416 428T256 536T149 696T109 893Q109 998 148 1090T256 1251T416 1359T612 1399Q717 1399 809 1360T970 1252T1078 1091T1118
893ZM188 893Q188 804 221 727T311 593T446 502T612 469Q701 469 779 502T914 592T1005 727T1038 893Q1038 982 1005 1059T915 1195T779 1286T612 1319Q524 1319 447 1286T312 1195T221 1060T188 893ZM688 670H743L631 846H606H518V670H600V606H344V670H428V1124H344V1188H647Q743
1188 798 1147T854 1020Q854 955 822 913T715 854L834 670H909V606H688V670ZM768 1018Q768 1075 733 1099T635 1124H518V909H635Q698 909 733 935T768 1018Z" />
<glyph unicode="&#xaf;" glyph-name="overscore" horiz-adv-x="1081" d="M266 1130V1243H815V1130H266Z" />
<glyph unicode="&#xb0;" glyph-name="degree" horiz-adv-x="764" d="M133 1124Q133 1176 152 1221T205 1301T284 1354T381 1374Q432 1374 477 1355T557 1301T611 1222T631 1124Q631 1073 611 1028T557 950T478 897T381 877Q330 877 285 896T206 949T153 1028T133
1124ZM231 1124Q231 1092 242 1065T274 1018T322 987T381 975Q412 975 440 986T488 1018T520 1065T532 1124Q532 1155 520 1183T488 1231T440 1264T381 1276Q349 1276 322 1264T275 1232T243 1183T231 1124Z" />
<glyph unicode="&#xb1;" glyph-name="plusminus" horiz-adv-x="1300" d="M705 715V354H596V715H172V823H596V1204H705V823H1128V715H705ZM172 98V207H1128V98H172Z" />
<glyph unicode="&#xb2;" glyph-name="twosuperior" horiz-adv-x="1024" d="M82 575Q244 661 375 734T598 873T741 1000T791 1126Q791 1165 776 1199T726 1259T634 1300T492 1315Q335 1315 262 1257T188 1073H88Q88 1161 122 1223T212 1323T338 1379T481 1397Q577
1397 653 1380T784 1329T866 1242T895 1120Q895 1055 854 995T734 871T543 740T289 594H836V782H922V508H82V575Z" />
<glyph unicode="&#xb3;" glyph-name="threesuperior" horiz-adv-x="1049" d="M598 1057Q716 1045 785 1012T891 938T937 854T948 778Q948 710 916 657T825 567T684 511T504 492Q425 492 351 508T218 559T125 652T90 791H188Q188 678 273 626T512 573Q603 573 667
590T771 635T831 699T850 776Q850 821 835 858T778 921T662 963T471 979V1063L780 1286H242V1141H152V1374H938V1300L598 1057Z" />
<glyph unicode="&#xb4;" glyph-name="acute" horiz-adv-x="1081" d="M895 1284L455 1098L414 1182L842 1395L895 1284Z" />
<glyph unicode="&#xb5;" glyph-name="micro" horiz-adv-x="1444" d="M457 958L334 322Q347 269 369 225T422 150T496 101T592 84Q667 84 729 108T842 173T936 262T1014 362L1128 958H1253L1139 362Q1131 320 1128 287T1124 225Q1124 191 1127 163T1137 108T1151
56T1167 0H1042Q1028 45 1016 97T1004 227Q965 183 922 139T827 58T712 0T571 -23Q479 -23 409 31T305 176L193 -410H68L332 958H457Z" />
<glyph unicode="&#xb6;" glyph-name="paragraph" horiz-adv-x="1214" d="M406 92H582V674Q495 674 413 694T266 756T162 864T123 1024Q123 1117 162 1183T265 1292T412 1354T582 1374H1133V1282H954V92H1130V0H406V92ZM672 92H864V1282H672V92Z" />
<glyph unicode="&#xb7;" glyph-name="middot" horiz-adv-x="481" d="M123 672Q123 696 132 718T156 756T193 781T240 791Q264 791 285 782T323 756T348 718T358 672Q358 647 349 626T323 589T286 564T240 555Q215 555 194 564T157 588T132 625T123 672Z" />
<glyph unicode="&#xb8;" glyph-name="cedilla" horiz-adv-x="1081" d="M561 -98Q605 -98 643 -105T710 -128T755 -172T772 -242Q772 -287 754 -317T702 -366T623 -393T522 -401Q441 -401 386 -385T293 -352L336 -266Q371 -288 412 -299T514 -311Q556 -311 585
-306T631 -292T656 -270T664 -242Q664 -223 654 -210T627 -190T589 -179T543 -176Q517 -176 490 -177T440 -182L516 20H606L561 -98Z" />
<glyph unicode="&#xb9;" glyph-name="onesuperior" horiz-adv-x="631" d="M88 594H281V1288L61 1223V1309L281 1374H385V594H580V508H88V594Z" />
<glyph unicode="&#xba;" glyph-name="ordmasculine" horiz-adv-x="1065" d="M111 496V588H954V496H111ZM1004 1038Q1004 947 968 881T869 771T719 707T532 686Q432 686 346 707T197 771T97 880T61 1038Q61 1130 97 1197T198 1307T348 1372T532 1393Q632 1393 718
1372T868 1308T968 1197T1004 1038ZM895 1038Q895 1171 804 1240T532 1309Q353 1309 263 1239T172 1038Q172 907 262 840T532 772Q713 772 804 839T895 1038Z" />
<glyph unicode="&#xbb;" glyph-name="guillemotright" horiz-adv-x="903" d="M537 109L451 182L707 489L451 797L537 870L821 535V444L537 109ZM168 109L82 182L338 489L82 797L168 870L453 535V444L168 109Z" />
<glyph unicode="&#xbc;" glyph-name="onequarter" horiz-adv-x="1753" d="M1237 86H1403V197H891V276L1376 729H1505V279H1702V197H1505V86H1649V0H1237V86ZM406 0H276L1366 1374H1493L406 0ZM109 731H301V1288L82 1223V1309L301 1374H406V731H600V645H109V731ZM1403
643L1012 279H1403V643Z" />
<glyph unicode="&#xbd;" glyph-name="onehalf" horiz-adv-x="1874" d="M1036 0V72Q1174 140 1286 196T1476 301T1597 398T1640 498Q1640 531 1629 560T1589 610T1515 644T1399 657Q1270 657 1207 605T1143 436H1042Q1042 520 1073 577T1153 671T1265 723T1391
739Q1475 739 1540 723T1651 675T1721 601T1745 504Q1745 452 1713 404T1618 305T1461 202T1243 86H1686V244H1772V0H1036ZM406 0H276L1366 1374H1493L406 0ZM109 731H301V1288L82 1223V1309L301 1374H406V731H600V645H109V731Z" />
<glyph unicode="&#xbe;" glyph-name="threequarters" horiz-adv-x="1880" d="M1364 86H1530V197H1018V276L1503 729H1632V279H1829V197H1632V86H1776V0H1364V86ZM518 1098Q611 1089 670 1068T762 1017T808 949T821 872Q821 812 794 767T717 692T602 648T459 633Q377
633 308 648T189 696T110 782T82 911H180Q180 860 195 823T244 762T333 727T467 715Q534 715 582 727T661 760T708 808T723 866Q723 900 712 928T665 978T566 1011T395 1024V1104L655 1288H233V1151H143V1374H811V1300L518 1098ZM532 0H403L1493 1374H1620L532
0ZM1530 643L1139 279H1530V643Z" />
<glyph unicode="&#xbf;" glyph-name="questiondown" horiz-adv-x="1202" d="M588 -250Q758 -250 845 -168T932 76H1059Q1059 -136 937 -247T584 -358Q497 -358 417 -333T277 -258T180 -133T143 41Q143 127 166 193T229 308T319 392T425 448T536 484T641 506V713H766V416Q649
405 558 381T403 313T306 203T272 41Q272 -40 298 -96T369 -186T470 -235T588 -250ZM811 934Q811 909 802 888T777 850T740 825T694 815Q670 815 648 824T610 850T585 887T575 934Q575 958 584 979T610 1017T648 1042T694 1051Q719 1051 740 1042T777 1017T802
980T811 934Z" />
<glyph unicode="&#xc0;" glyph-name="Agrave" horiz-adv-x="1913" d="M444 1374H1030L1690 113H1954V0H1255V113H1552L1370 467H543L358 113H657V0H-41V113H223L823 1262H444V1374ZM956 1253L604 580H1309L956 1253ZM592 1798L1022 1585L979 1501L538 1687L592 1798Z" />
<glyph unicode="&#xc1;" glyph-name="Aacute" horiz-adv-x="1913" d="M444 1374H1030L1690 113H1954V0H1255V113H1552L1370 467H543L358 113H657V0H-41V113H223L823 1262H444V1374ZM956 1253L604 580H1309L956 1253ZM1247 1687L807 1501L766 1585L1194 1798L1247 1687Z" />
<glyph unicode="&#xc2;" glyph-name="Acircumflex" horiz-adv-x="1913" d="M444 1374H1030L1690 113H1954V0H1255V113H1552L1370 467H543L358 113H657V0H-41V113H223L823 1262H444V1374ZM956 1253L604 580H1309L956 1253ZM1241 1503L893 1663L545 1503L506 1581L893
1800L1280 1581L1241 1503Z" />
<glyph unicode="&#xc3;" glyph-name="Atilde" horiz-adv-x="1913" d="M444 1374H1030L1690 113H1954V0H1255V113H1552L1370 467H543L358 113H657V0H-41V113H223L823 1262H444V1374ZM956 1253L604 580H1309L956 1253ZM1247 1738Q1247 1721 1244 1698T1233 1649T1212
1599T1177 1555T1127 1523T1059 1511Q1012 1511 967 1530T879 1571T798 1613T727 1632Q697 1632 680 1617T655 1582T643 1541T639 1511H542Q542 1536 550 1575T579 1650T637 1712T733 1738Q772 1738 815 1719T901 1678T986 1636T1063 1617Q1093 1617 1110 1632T1136
1667T1147 1707T1151 1738H1247Z" />
<glyph unicode="&#xc4;" glyph-name="Adieresis" horiz-adv-x="1913" d="M444 1374H1030L1690 113H1954V0H1255V113H1552L1370 467H543L358 113H657V0H-41V113H223L823 1262H444V1374ZM956 1253L604 580H1309L956 1253ZM606 1607Q606 1644 630 1670T692 1697Q729
1697 755 1671T782 1607Q782 1570 756 1545T692 1519Q655 1519 631 1544T606 1607ZM1003 1607Q1003 1625 1009 1641T1028 1670T1056 1690T1091 1697Q1128 1697 1153 1671T1179 1607Q1179 1570 1154 1545T1091 1519Q1053 1519 1028 1544T1003 1607Z" />
<glyph unicode="&#xc5;" glyph-name="Aring" horiz-adv-x="1913" d="M444 1374H1030L1690 113H1954V0H1255V113H1552L1370 467H543L358 113H657V0H-41V113H223L823 1262H444V1374ZM956 1253L604 580H1309L956 1253ZM631 1665Q631 1708 649 1743T702 1802T785 1840T893
1853Q951 1853 999 1840T1082 1803T1136 1743T1155 1665Q1155 1621 1136 1586T1083 1527T1000 1489T893 1476Q834 1476 786 1489T703 1526T650 1586T631 1665ZM733 1665Q733 1623 770 1596T893 1568Q977 1568 1013 1595T1050 1665Q1050 1705 1014 1733T893 1761Q808
1761 771 1733T733 1665Z" />
<glyph unicode="&#xc6;" glyph-name="AE" horiz-adv-x="2501" d="M506 1374H2343V963H2230V1257H1280V784H2003V668H1280V117H2245V432H2357V0H868V113H1155V467H545L344 113H616V0H-41V113H207L858 1262H506V1374ZM610 580H1155V1253H993L610 580Z" />
<glyph unicode="&#xc7;" glyph-name="Ccedilla" horiz-adv-x="1860" d="M1599 860V940Q1599 1026 1550 1090T1420 1198T1232 1264T1012 1286Q818 1286 678 1244T448 1123T315 933T272 686Q272 549 318 439T456 250T685 130T1006 88Q1109 88 1203 106T1374 161T1510
250T1599 375H1737Q1701 289 1639 217T1486 91T1276 7T1006 -27L979 -98Q1023 -98 1061 -105T1128 -128T1173 -172T1190 -242Q1190 -287 1172 -317T1120 -366T1040 -393T940 -401Q858 -401 803 -385T711 -352L754 -266Q789 -288 830 -299T932 -311Q1016 -311 1048
-292T1081 -242Q1081 -223 1071 -210T1045 -190T1007 -179T961 -176Q935 -176 908 -177T858 -182L918 -25Q750 -16 607 32T358 170T194 388T135 686Q135 863 200 997T382 1220T656 1354T999 1399Q1120 1399 1211 1384T1373 1346T1498 1293T1599 1235V1374H1712V860H1599Z"
/>
<glyph unicode="&#xc8;" glyph-name="Egrave" horiz-adv-x="1755" d="M1485 963V1257H494V784H1257V668H494V117H1499V432H1612V0H82V113H369V1262H82V1374H1597V963H1485ZM629 1798L1059 1585L1016 1501L575 1687L629 1798Z" />
<glyph unicode="&#xc9;" glyph-name="Eacute" horiz-adv-x="1755" d="M1485 963V1257H494V784H1257V668H494V117H1499V432H1612V0H82V113H369V1262H82V1374H1597V963H1485ZM1284 1687L844 1501L803 1585L1231 1798L1284 1687Z" />
<glyph unicode="&#xca;" glyph-name="Ecircumflex" horiz-adv-x="1755" d="M1485 963V1257H494V784H1257V668H494V117H1499V432H1612V0H82V113H369V1262H82V1374H1597V963H1485ZM1278 1503L930 1663L582 1503L543 1581L930 1800L1317 1581L1278 1503Z" />
<glyph unicode="&#xcb;" glyph-name="Edieresis" horiz-adv-x="1755" d="M1485 963V1257H494V784H1257V668H494V117H1499V432H1612V0H82V113H369V1262H82V1374H1597V963H1485ZM643 1607Q643 1644 667 1670T729 1697Q766 1697 792 1671T819 1607Q819 1570 793 1545T729
1519Q692 1519 668 1544T643 1607ZM1040 1607Q1040 1625 1046 1641T1065 1670T1093 1690T1128 1697Q1165 1697 1190 1671T1216 1607Q1216 1570 1191 1545T1128 1519Q1090 1519 1065 1544T1040 1607Z" />
<glyph unicode="&#xcc;" glyph-name="Igrave" horiz-adv-x="862" d="M82 1374H780V1262H494V113H780V0H82V113H369V1262H82V1374ZM130 1798L560 1585L517 1501L76 1687L130 1798Z" />
<glyph unicode="&#xcd;" glyph-name="Iacute" horiz-adv-x="862" d="M82 1374H780V1262H494V113H780V0H82V113H369V1262H82V1374ZM785 1687L345 1501L304 1585L732 1798L785 1687Z" />
<glyph unicode="&#xce;" glyph-name="Icircumflex" horiz-adv-x="862" d="M82 1374H780V1262H494V113H780V0H82V113H369V1262H82V1374ZM779 1503L431 1663L83 1503L44 1581L431 1800L818 1581L779 1503Z" />
<glyph unicode="&#xcf;" glyph-name="Idieresis" horiz-adv-x="862" d="M82 1374H780V1262H494V113H780V0H82V113H369V1262H82V1374ZM144 1607Q144 1644 168 1670T230 1697Q267 1697 293 1671T320 1607Q320 1570 294 1545T230 1519Q193 1519 169 1544T144 1607ZM541
1607Q541 1625 547 1641T566 1670T594 1690T629 1697Q666 1697 691 1671T717 1607Q717 1570 692 1545T629 1519Q591 1519 566 1544T541 1607Z" />
<glyph unicode="&#xd0;" glyph-name="Eth" horiz-adv-x="2001" d="M82 1374H1075Q1244 1374 1389 1341T1640 1229T1807 1017T1868 688Q1868 556 1841 454T1763 275T1642 146T1483 61T1293 15T1077 0H82V113H369V643H82V752H369V1262H82V1374ZM494 643V115H1075Q1222
115 1344 141T1553 233T1690 409T1739 688Q1739 800 1717 886T1654 1035T1554 1142T1421 1211T1260 1249T1075 1260H494V752H983V643H494Z" />
<glyph unicode="&#xd1;" glyph-name="Ntilde" horiz-adv-x="2171" d="M82 1374H506L1698 160V1262H1411V1374H2109V1262H1823V0H1686L494 1210V113H780V0H82V113H369V1262H82V1374ZM1393 1738Q1393 1721 1390 1698T1379 1649T1358 1599T1323 1555T1273 1523T1205
1511Q1158 1511 1113 1530T1025 1571T944 1613T873 1632Q843 1632 826 1617T801 1582T789 1541T785 1511H688Q688 1536 696 1575T725 1650T783 1712T879 1738Q918 1738 961 1719T1047 1678T1132 1636T1209 1617Q1239 1617 1256 1632T1282 1667T1293 1707T1297 1738H1393Z"
/>
<glyph unicode="&#xd2;" glyph-name="Ograve" horiz-adv-x="2015" d="M1880 686Q1880 501 1813 367T1629 145T1353 15T1010 -27Q825 -27 665 15T387 144T202 366T135 686Q135 809 166 909T253 1089T388 1227T565 1323T775 1380T1010 1399Q1194 1399 1353 1357T1629
1228T1813 1006T1880 686ZM1743 686Q1743 978 1559 1131T1010 1284Q644 1284 458 1130T272 686Q272 394 458 241T1010 88Q1375 88 1559 241T1743 686ZM709 1798L1139 1585L1096 1501L655 1687L709 1798Z" />
<glyph unicode="&#xd3;" glyph-name="Oacute" horiz-adv-x="2015" d="M1880 686Q1880 501 1813 367T1629 145T1353 15T1010 -27Q825 -27 665 15T387 144T202 366T135 686Q135 809 166 909T253 1089T388 1227T565 1323T775 1380T1010 1399Q1194 1399 1353 1357T1629
1228T1813 1006T1880 686ZM1743 686Q1743 978 1559 1131T1010 1284Q644 1284 458 1130T272 686Q272 394 458 241T1010 88Q1375 88 1559 241T1743 686ZM1364 1687L924 1501L883 1585L1311 1798L1364 1687Z" />
<glyph unicode="&#xd4;" glyph-name="Ocircumflex" horiz-adv-x="2015" d="M1880 686Q1880 501 1813 367T1629 145T1353 15T1010 -27Q825 -27 665 15T387 144T202 366T135 686Q135 809 166 909T253 1089T388 1227T565 1323T775 1380T1010 1399Q1194 1399 1353
1357T1629 1228T1813 1006T1880 686ZM1743 686Q1743 978 1559 1131T1010 1284Q644 1284 458 1130T272 686Q272 394 458 241T1010 88Q1375 88 1559 241T1743 686ZM1358 1503L1010 1663L662 1503L623 1581L1010 1800L1397 1581L1358 1503Z" />
<glyph unicode="&#xd5;" glyph-name="Otilde" horiz-adv-x="2015" d="M1880 686Q1880 501 1813 367T1629 145T1353 15T1010 -27Q825 -27 665 15T387 144T202 366T135 686Q135 809 166 909T253 1089T388 1227T565 1323T775 1380T1010 1399Q1194 1399 1353 1357T1629
1228T1813 1006T1880 686ZM1743 686Q1743 978 1559 1131T1010 1284Q644 1284 458 1130T272 686Q272 394 458 241T1010 88Q1375 88 1559 241T1743 686ZM1364 1738Q1364 1721 1361 1698T1350 1649T1329 1599T1294 1555T1244 1523T1176 1511Q1129 1511 1084 1530T996
1571T915 1613T844 1632Q814 1632 797 1617T772 1582T760 1541T756 1511H659Q659 1536 667 1575T696 1650T754 1712T850 1738Q889 1738 932 1719T1018 1678T1103 1636T1180 1617Q1210 1617 1227 1632T1253 1667T1264 1707T1268 1738H1364Z" />
<glyph unicode="&#xd6;" glyph-name="Odieresis" horiz-adv-x="2015" d="M1880 686Q1880 501 1813 367T1629 145T1353 15T1010 -27Q825 -27 665 15T387 144T202 366T135 686Q135 809 166 909T253 1089T388 1227T565 1323T775 1380T1010 1399Q1194 1399 1353 1357T1629
1228T1813 1006T1880 686ZM1743 686Q1743 978 1559 1131T1010 1284Q644 1284 458 1130T272 686Q272 394 458 241T1010 88Q1375 88 1559 241T1743 686ZM723 1607Q723 1644 747 1670T809 1697Q846 1697 872 1671T899 1607Q899 1570 873 1545T809 1519Q772 1519 748
1544T723 1607ZM1120 1607Q1120 1625 1126 1641T1145 1670T1173 1690T1208 1697Q1245 1697 1270 1671T1296 1607Q1296 1570 1271 1545T1208 1519Q1170 1519 1145 1544T1120 1607Z" />
<glyph unicode="&#xd7;" glyph-name="multiply" horiz-adv-x="1300" d="M725 686L1071 340L995 262L649 608L305 266L229 342L573 686L227 1032L303 1108L649 762L993 1106L1069 1028L725 686Z" />
<glyph unicode="&#xd8;" glyph-name="Oslash" horiz-adv-x="2015" d="M1880 686Q1880 501 1813 367T1629 145T1353 15T1010 -27Q898 -27 797 -12T606 33L453 -182H324L506 72Q421 112 353 170T236 305T161 477T135 686Q135 809 166 909T253 1089T388 1227T565
1323T775 1380T1010 1399Q1233 1399 1413 1337L1569 1554H1696L1511 1298Q1596 1257 1664 1199T1780 1065T1854 895T1880 686ZM272 686Q272 497 348 368T575 168L1343 1241Q1272 1263 1189 1273T1010 1284Q644 1284 458 1130T272 686ZM1743 686Q1743 1060 1444
1202L676 131Q747 109 830 99T1010 88Q1375 88 1559 241T1743 686Z" />
<glyph unicode="&#xd9;" glyph-name="Ugrave" horiz-adv-x="2001" d="M20 1374H719V1262H432V422Q432 353 468 292T577 184T755 111T1001 84Q1140 84 1246 111T1424 184T1532 291T1569 422V1262H1282V1374H1980V1262H1694V432Q1694 329 1651 245T1521 100T1304
6T1001 -27Q828 -27 698 6T481 99T351 244T307 432V1262H20V1374ZM699 1798L1129 1585L1086 1501L645 1687L699 1798Z" />
<glyph unicode="&#xda;" glyph-name="Uacute" horiz-adv-x="2001" d="M20 1374H719V1262H432V422Q432 353 468 292T577 184T755 111T1001 84Q1140 84 1246 111T1424 184T1532 291T1569 422V1262H1282V1374H1980V1262H1694V432Q1694 329 1651 245T1521 100T1304
6T1001 -27Q828 -27 698 6T481 99T351 244T307 432V1262H20V1374ZM1354 1687L914 1501L873 1585L1301 1798L1354 1687Z" />
<glyph unicode="&#xdb;" glyph-name="Ucircumflex" horiz-adv-x="2001" d="M20 1374H719V1262H432V422Q432 353 468 292T577 184T755 111T1001 84Q1140 84 1246 111T1424 184T1532 291T1569 422V1262H1282V1374H1980V1262H1694V432Q1694 329 1651 245T1521 100T1304
6T1001 -27Q828 -27 698 6T481 99T351 244T307 432V1262H20V1374ZM1348 1503L1000 1663L652 1503L613 1581L1000 1800L1387 1581L1348 1503Z" />
<glyph unicode="&#xdc;" glyph-name="Udieresis" horiz-adv-x="2001" d="M20 1374H719V1262H432V422Q432 353 468 292T577 184T755 111T1001 84Q1140 84 1246 111T1424 184T1532 291T1569 422V1262H1282V1374H1980V1262H1694V432Q1694 329 1651 245T1521 100T1304
6T1001 -27Q828 -27 698 6T481 99T351 244T307 432V1262H20V1374ZM713 1607Q713 1644 737 1670T799 1697Q836 1697 862 1671T889 1607Q889 1570 863 1545T799 1519Q762 1519 738 1544T713 1607ZM1110 1607Q1110 1625 1116 1641T1135 1670T1163 1690T1198 1697Q1235
1697 1260 1671T1286 1607Q1286 1570 1261 1545T1198 1519Q1160 1519 1135 1544T1110 1607Z" />
<glyph unicode="&#xdd;" glyph-name="Yacute" horiz-adv-x="1808" d="M0 1374H698V1262H436L905 686L1370 1262H1110V1374H1808V1262H1520L967 582V113H1274V0H535V113H842V582L289 1262H0V1374ZM1260 1687L820 1501L779 1585L1207 1798L1260 1687Z" />
<glyph unicode="&#xde;" glyph-name="Thorn" horiz-adv-x="1815" d="M82 1374H780V1262H494V1130H1110Q1270 1130 1383 1103T1569 1022T1674 891T1708 709Q1708 606 1675 527T1569 394T1384 313T1110 285H494V113H780V0H82V113H369V1262H82V1374ZM1571 709Q1571
807 1540 867T1443 959T1275 1003T1030 1014H494V401H1030Q1085 401 1146 401T1268 406T1383 429T1480 480T1546 570T1571 709Z" />
<glyph unicode="&#xdf;" glyph-name="germandbls" horiz-adv-x="1554" d="M47 113H272V1008Q272 1096 305 1167T405 1289T576 1367T821 1395Q939 1395 1034 1375T1195 1314T1297 1213T1333 1073Q1333 1022 1322 978T1285 897T1214 835T1102 795Q1273 772 1362
673T1452 397Q1452 292 1419 213T1320 80T1160 0T940 -27Q837 -27 740 -4T553 57L594 164Q622 152 656 138T733 111T825 89T934 80Q1026 80 1099 98T1222 154T1300 252T1327 397Q1327 486 1305 549T1226 651T1073 709T831 727H639V834H825Q949 834 1025 851T1142
898T1196 970T1210 1061Q1210 1110 1192 1151T1128 1223T1006 1269T815 1286Q704 1286 625 1268T495 1215T421 1127T397 1006V0H47V113Z" />
<glyph unicode="&#xe0;" glyph-name="agrave" horiz-adv-x="1389" d="M1006 111Q960 88 904 64T783 19T645 -14T492 -27Q402 -27 329 -9T205 44T126 132T98 254Q98 361 167 429T357 537T645 597T1006 625V672Q1006 725 977 763T899 825T786 860T649 872Q565 872
503 862T397 831T329 781T291 713L164 743Q196 855 316 917T645 979Q750 979 839 961T992 904T1093 803T1130 651V113H1368V0H1006V111ZM1006 520Q787 512 637 492T395 439T262 362T221 260Q221 172 297 126T522 80Q585 80 656 94T795 129T918 178T1006 231V520ZM353
1395L783 1182L740 1098L299 1284L353 1395Z" />
<glyph unicode="&#xe1;" glyph-name="aacute" horiz-adv-x="1389" d="M1006 111Q960 88 904 64T783 19T645 -14T492 -27Q402 -27 329 -9T205 44T126 132T98 254Q98 361 167 429T357 537T645 597T1006 625V672Q1006 725 977 763T899 825T786 860T649 872Q565 872
503 862T397 831T329 781T291 713L164 743Q196 855 316 917T645 979Q750 979 839 961T992 904T1093 803T1130 651V113H1368V0H1006V111ZM1006 520Q787 512 637 492T395 439T262 362T221 260Q221 172 297 126T522 80Q585 80 656 94T795 129T918 178T1006 231V520ZM1008
1284L568 1098L527 1182L955 1395L1008 1284Z" />
<glyph unicode="&#xe2;" glyph-name="acircumflex" horiz-adv-x="1389" d="M1006 111Q960 88 904 64T783 19T645 -14T492 -27Q402 -27 329 -9T205 44T126 132T98 254Q98 361 167 429T357 537T645 597T1006 625V672Q1006 725 977 763T899 825T786 860T649 872Q565
872 503 862T397 831T329 781T291 713L164 743Q196 855 316 917T645 979Q750 979 839 961T992 904T1093 803T1130 651V113H1368V0H1006V111ZM1006 520Q787 512 637 492T395 439T262 362T221 260Q221 172 297 126T522 80Q585 80 656 94T795 129T918 178T1006 231V520ZM1002
1100L654 1260L306 1100L267 1178L654 1397L1041 1178L1002 1100Z" />
<glyph unicode="&#xe3;" glyph-name="atilde" horiz-adv-x="1389" d="M1006 111Q960 88 904 64T783 19T645 -14T492 -27Q402 -27 329 -9T205 44T126 132T98 254Q98 361 167 429T357 537T645 597T1006 625V672Q1006 725 977 763T899 825T786 860T649 872Q565 872
503 862T397 831T329 781T291 713L164 743Q196 855 316 917T645 979Q750 979 839 961T992 904T1093 803T1130 651V113H1368V0H1006V111ZM1006 520Q787 512 637 492T395 439T262 362T221 260Q221 172 297 126T522 80Q585 80 656 94T795 129T918 178T1006 231V520ZM1008
1335Q1008 1318 1005 1295T994 1246T973 1196T938 1152T888 1120T820 1108Q773 1108 728 1127T640 1168T559 1210T488 1229Q458 1229 441 1214T416 1179T404 1138T400 1108H303Q303 1133 311 1172T340 1247T398 1309T494 1335Q533 1335 576 1316T662 1275T747 1233T824
1214Q854 1214 871 1229T897 1264T908 1304T912 1335H1008Z" />
<glyph unicode="&#xe4;" glyph-name="adieresis" horiz-adv-x="1389" d="M1006 111Q960 88 904 64T783 19T645 -14T492 -27Q402 -27 329 -9T205 44T126 132T98 254Q98 361 167 429T357 537T645 597T1006 625V672Q1006 725 977 763T899 825T786 860T649 872Q565
872 503 862T397 831T329 781T291 713L164 743Q196 855 316 917T645 979Q750 979 839 961T992 904T1093 803T1130 651V113H1368V0H1006V111ZM1006 520Q787 512 637 492T395 439T262 362T221 260Q221 172 297 126T522 80Q585 80 656 94T795 129T918 178T1006 231V520ZM367
1204Q367 1241 391 1267T453 1294Q490 1294 516 1268T543 1204Q543 1167 517 1142T453 1116Q416 1116 392 1141T367 1204ZM764 1204Q764 1222 770 1238T789 1267T817 1287T852 1294Q889 1294 914 1268T940 1204Q940 1167 915 1142T852 1116Q814 1116 789 1141T764
1204Z" />
<glyph unicode="&#xe5;" glyph-name="aring" horiz-adv-x="1389" d="M1006 111Q960 88 904 64T783 19T645 -14T492 -27Q402 -27 329 -9T205 44T126 132T98 254Q98 361 167 429T357 537T645 597T1006 625V672Q1006 725 977 763T899 825T786 860T649 872Q565 872
503 862T397 831T329 781T291 713L164 743Q196 855 316 917T645 979Q750 979 839 961T992 904T1093 803T1130 651V113H1368V0H1006V111ZM1006 520Q787 512 637 492T395 439T262 362T221 260Q221 172 297 126T522 80Q585 80 656 94T795 129T918 178T1006 231V520ZM392
1262Q392 1305 410 1340T463 1399T546 1437T654 1450Q712 1450 760 1437T843 1400T897 1340T916 1262Q916 1218 897 1183T844 1124T761 1086T654 1073Q595 1073 547 1086T464 1123T411 1183T392 1262ZM494 1262Q494 1220 531 1193T654 1165Q738 1165 774 1192T811
1262Q811 1302 775 1330T654 1358Q569 1358 532 1330T494 1262Z" />
<glyph unicode="&#xe6;" glyph-name="ae" horiz-adv-x="2232" d="M1577 -25Q1418 -25 1297 25T1102 166Q1057 133 997 99T863 37T700 -9T512 -27Q414 -27 338 -9T208 44T126 132T98 254Q98 361 167 429T357 537T645 597T1006 625V672Q1006 725 977 763T899 825T786
860T649 872Q565 872 503 862T397 831T329 781T291 713L164 743Q196 855 316 917T645 979Q729 979 803 968T937 931T1040 867T1104 772Q1181 866 1302 919T1579 973Q1710 973 1814 936T1990 830T2100 661T2138 438V416H1130Q1137 340 1170 279T1259 175T1396 109T1577
86Q1675 86 1747 102T1870 145T1952 206T2001 276H2126Q2067 124 1926 50T1577 -25ZM522 80Q610 80 690 96T838 138T960 194T1049 250Q1026 299 1014 354T1001 471Q1001 483 1001 495T1004 520Q786 512 636 492T394 439T262 362T221 260Q221 172 297 126T522 80ZM2009
524Q2004 592 1979 653T1902 760T1773 834T1583 862Q1479 862 1399 835T1262 761T1172 653T1130 524H2009Z" />
<glyph unicode="&#xe7;" glyph-name="ccedilla" horiz-adv-x="1333" d="M1112 584V631Q1112 692 1074 737T976 811T845 854T707 868Q595 868 506 841T356 764T262 641T229 477Q229 385 261 313T353 189T501 111T700 84Q794 84 864 101T984 146T1063 208T1108 276H1237Q1183
133 1052 58T721 -25L694 -98Q738 -98 776 -105T843 -128T888 -172T905 -242Q905 -287 887 -317T835 -366T756 -393T655 -401Q574 -401 519 -385T426 -352L469 -266Q504 -288 545 -299T647 -311Q689 -311 718 -306T764 -292T789 -270T797 -242Q797 -223 787 -210T760
-190T722 -179T676 -176Q650 -176 623 -177T573 -182L633 -23Q516 -15 418 21T249 119T138 271T98 475Q98 597 145 691T273 849T464 946T698 979Q771 979 834 969T949 942T1042 902T1112 856V958H1221V584H1112Z" />
<glyph unicode="&#xe8;" glyph-name="egrave" horiz-adv-x="1329" d="M1106 524Q1101 592 1075 653T997 760T866 834T676 862Q572 862 492 835T356 761T268 653T227 524H1106ZM674 -25Q543 -25 437 9T255 108T139 265T98 471Q98 582 141 674T261 833T444 936T676
973Q807 973 911 936T1087 830T1197 661T1235 438V416H227Q234 340 266 279T356 175T492 109T674 86Q772 86 844 102T967 145T1049 206T1098 276H1223Q1164 124 1023 50T674 -25ZM375 1395L805 1182L762 1098L321 1284L375 1395Z" />
<glyph unicode="&#xe9;" glyph-name="eacute" horiz-adv-x="1329" d="M1106 524Q1101 592 1075 653T997 760T866 834T676 862Q572 862 492 835T356 761T268 653T227 524H1106ZM674 -25Q543 -25 437 9T255 108T139 265T98 471Q98 582 141 674T261 833T444 936T676
973Q807 973 911 936T1087 830T1197 661T1235 438V416H227Q234 340 266 279T356 175T492 109T674 86Q772 86 844 102T967 145T1049 206T1098 276H1223Q1164 124 1023 50T674 -25ZM1030 1284L590 1098L549 1182L977 1395L1030 1284Z" />
<glyph unicode="&#xea;" glyph-name="ecircumflex" horiz-adv-x="1329" d="M1106 524Q1101 592 1075 653T997 760T866 834T676 862Q572 862 492 835T356 761T268 653T227 524H1106ZM674 -25Q543 -25 437 9T255 108T139 265T98 471Q98 582 141 674T261 833T444
936T676 973Q807 973 911 936T1087 830T1197 661T1235 438V416H227Q234 340 266 279T356 175T492 109T674 86Q772 86 844 102T967 145T1049 206T1098 276H1223Q1164 124 1023 50T674 -25ZM1024 1100L676 1260L328 1100L289 1178L676 1397L1063 1178L1024 1100Z"
/>
<glyph unicode="&#xeb;" glyph-name="edieresis" horiz-adv-x="1329" d="M1106 524Q1101 592 1075 653T997 760T866 834T676 862Q572 862 492 835T356 761T268 653T227 524H1106ZM674 -25Q543 -25 437 9T255 108T139 265T98 471Q98 582 141 674T261 833T444 936T676
973Q807 973 911 936T1087 830T1197 661T1235 438V416H227Q234 340 266 279T356 175T492 109T674 86Q772 86 844 102T967 145T1049 206T1098 276H1223Q1164 124 1023 50T674 -25ZM389 1204Q389 1241 413 1267T475 1294Q512 1294 538 1268T565 1204Q565 1167 539
1142T475 1116Q438 1116 414 1141T389 1204ZM786 1204Q786 1222 792 1238T811 1267T839 1287T874 1294Q911 1294 936 1268T962 1204Q962 1167 937 1142T874 1116Q836 1116 811 1141T786 1204Z" />
<glyph unicode="&#xec;" glyph-name="igrave" horiz-adv-x="655" d="M47 952H397V113H623V0H47V113H272V840H47V952ZM-27 1395L403 1182L360 1098L-81 1284L-27 1395Z" />
<glyph unicode="&#xed;" glyph-name="iacute" horiz-adv-x="655" d="M47 952H397V113H623V0H47V113H272V840H47V952ZM628 1284L188 1098L147 1182L575 1395L628 1284Z" />
<glyph unicode="&#xee;" glyph-name="icircumflex" horiz-adv-x="655" d="M47 952H397V113H623V0H47V113H272V840H47V952ZM622 1100L274 1260L-74 1100L-113 1178L274 1397L661 1178L622 1100Z" />
<glyph unicode="&#xef;" glyph-name="idieresis" horiz-adv-x="655" d="M47 952H397V113H623V0H47V113H272V840H47V952ZM-13 1204Q-13 1241 11 1267T73 1294Q110 1294 136 1268T163 1204Q163 1167 137 1142T73 1116Q36 1116 12 1141T-13 1204ZM384 1204Q384 1222
390 1238T409 1267T437 1287T472 1294Q509 1294 534 1268T560 1204Q560 1167 535 1142T472 1116Q434 1116 409 1141T384 1204Z" />
<glyph unicode="&#xf0;" glyph-name="eth" horiz-adv-x="1419" d="M971 1208Q1141 1078 1231 900T1321 496Q1321 358 1274 259T1145 97T952 3T713 -27Q582 -27 470 0T275 85T145 236T98 459Q98 589 149 682T288 836T491 924T733 952Q798 952 851 947T950 932T1033
911T1106 883Q1059 971 992 1040T842 1163L504 1049L469 1147L723 1233Q677 1256 628 1275T528 1311L569 1407Q651 1382 724 1350T864 1280L1188 1391L1225 1294L971 1208ZM1198 496Q1198 564 1190 624T1165 739Q1135 760 1095 779T1002 813T884 837T739 846Q602
846 504 822T343 749T251 628T221 459Q221 266 343 173T715 80Q956 80 1077 183T1198 496Z" />
<glyph unicode="&#xf1;" glyph-name="ntilde" horiz-adv-x="1548" d="M47 952H397V772Q444 817 502 855T627 923T768 968T920 985Q1013 985 1082 962T1198 895T1267 791T1290 653V113H1516V0H940V113H1165V616Q1165 692 1146 741T1090 820T1003 860T887 872Q812
872 740 852T605 802T488 736T397 666V113H623V0H47V113H272V840H47V952ZM1122 1335Q1122 1318 1119 1295T1108 1246T1087 1196T1052 1152T1002 1120T934 1108Q887 1108 842 1127T754 1168T673 1210T602 1229Q572 1229 555 1214T530 1179T518 1138T514 1108H417Q417
1133 425 1172T454 1247T512 1309T608 1335Q647 1335 690 1316T776 1275T861 1233T938 1214Q968 1214 985 1229T1011 1264T1022 1304T1026 1335H1122Z" />
<glyph unicode="&#xf2;" glyph-name="ograve" horiz-adv-x="1419" d="M1321 475Q1321 344 1274 250T1145 94T952 3T711 -27Q581 -27 469 2T275 93T145 249T98 475Q98 605 145 700T276 857T471 949T711 979Q840 979 951 950T1145 859T1274 702T1321 475ZM1198 475Q1198
668 1076 770T711 872Q468 872 345 770T221 475Q221 282 344 181T711 80Q953 80 1075 181T1198 475ZM410 1395L840 1182L797 1098L356 1284L410 1395Z" />
<glyph unicode="&#xf3;" glyph-name="oacute" horiz-adv-x="1419" d="M1321 475Q1321 344 1274 250T1145 94T952 3T711 -27Q581 -27 469 2T275 93T145 249T98 475Q98 605 145 700T276 857T471 949T711 979Q840 979 951 950T1145 859T1274 702T1321 475ZM1198 475Q1198
668 1076 770T711 872Q468 872 345 770T221 475Q221 282 344 181T711 80Q953 80 1075 181T1198 475ZM1065 1284L625 1098L584 1182L1012 1395L1065 1284Z" />
<glyph unicode="&#xf4;" glyph-name="ocircumflex" horiz-adv-x="1419" d="M1321 475Q1321 344 1274 250T1145 94T952 3T711 -27Q581 -27 469 2T275 93T145 249T98 475Q98 605 145 700T276 857T471 949T711 979Q840 979 951 950T1145 859T1274 702T1321 475ZM1198
475Q1198 668 1076 770T711 872Q468 872 345 770T221 475Q221 282 344 181T711 80Q953 80 1075 181T1198 475ZM1059 1100L711 1260L363 1100L324 1178L711 1397L1098 1178L1059 1100Z" />
<glyph unicode="&#xf5;" glyph-name="otilde" horiz-adv-x="1419" d="M1321 475Q1321 344 1274 250T1145 94T952 3T711 -27Q581 -27 469 2T275 93T145 249T98 475Q98 605 145 700T276 857T471 949T711 979Q840 979 951 950T1145 859T1274 702T1321 475ZM1198 475Q1198
668 1076 770T711 872Q468 872 345 770T221 475Q221 282 344 181T711 80Q953 80 1075 181T1198 475ZM1065 1335Q1065 1318 1062 1295T1051 1246T1030 1196T995 1152T945 1120T877 1108Q830 1108 785 1127T697 1168T616 1210T545 1229Q515 1229 498 1214T473 1179T461
1138T457 1108H360Q360 1133 368 1172T397 1247T455 1309T551 1335Q590 1335 633 1316T719 1275T804 1233T881 1214Q911 1214 928 1229T954 1264T965 1304T969 1335H1065Z" />
<glyph unicode="&#xf6;" glyph-name="odieresis" horiz-adv-x="1419" d="M1321 475Q1321 344 1274 250T1145 94T952 3T711 -27Q581 -27 469 2T275 93T145 249T98 475Q98 605 145 700T276 857T471 949T711 979Q840 979 951 950T1145 859T1274 702T1321 475ZM1198
475Q1198 668 1076 770T711 872Q468 872 345 770T221 475Q221 282 344 181T711 80Q953 80 1075 181T1198 475ZM424 1204Q424 1241 448 1267T510 1294Q547 1294 573 1268T600 1204Q600 1167 574 1142T510 1116Q473 1116 449 1141T424 1204ZM821 1204Q821 1222 827
1238T846 1267T874 1287T909 1294Q946 1294 971 1268T997 1204Q997 1167 972 1142T909 1116Q871 1116 846 1141T821 1204Z" />
<glyph unicode="&#xf7;" glyph-name="divide" horiz-adv-x="1300" d="M176 631V739H1133V631H176ZM569 993Q569 1030 592 1054T649 1079Q686 1079 710 1055T735 993Q735 959 711 936T649 913Q615 913 592 936T569 993ZM569 371Q569 408 592 432T649 457Q686 457
710 433T735 371Q735 337 711 314T649 291Q615 291 592 314T569 371Z" />
<glyph unicode="&#xf8;" glyph-name="oslash" horiz-adv-x="1419" d="M342 51Q286 80 241 120T164 213T115 331T98 475Q98 605 145 700T276 857T471 949T711 979Q785 979 853 969T981 940L1122 1135H1241L1073 901Q1187 842 1254 737T1321 475Q1321 344 1274 250T1145
94T952 3T711 -27Q559 -27 436 12L297 -182H176L342 51ZM1198 475Q1198 596 1151 680T1010 813L502 104Q593 80 711 80Q953 80 1075 181T1198 475ZM221 475Q221 238 408 141L915 848Q826 872 711 872Q468 872 345 770T221 475Z" />
<glyph unicode="&#xf9;" glyph-name="ugrave" horiz-adv-x="1542" d="M1501 0H1151V180Q1104 135 1046 97T922 29T781 -16T629 -33Q535 -33 466 -10T350 57T281 161T258 299V840H33V952H383V336Q383 260 402 211T458 132T545 92T662 80Q736 80 808 100T944 150T1061
217T1151 287V840H926V952H1276V113H1501V0ZM435 1395L865 1182L822 1098L381 1284L435 1395Z" />
<glyph unicode="&#xfa;" glyph-name="uacute" horiz-adv-x="1542" d="M1501 0H1151V180Q1104 135 1046 97T922 29T781 -16T629 -33Q535 -33 466 -10T350 57T281 161T258 299V840H33V952H383V336Q383 260 402 211T458 132T545 92T662 80Q736 80 808 100T944 150T1061
217T1151 287V840H926V952H1276V113H1501V0ZM1090 1284L650 1098L609 1182L1037 1395L1090 1284Z" />
<glyph unicode="&#xfb;" glyph-name="ucircumflex" horiz-adv-x="1542" d="M1501 0H1151V180Q1104 135 1046 97T922 29T781 -16T629 -33Q535 -33 466 -10T350 57T281 161T258 299V840H33V952H383V336Q383 260 402 211T458 132T545 92T662 80Q736 80 808 100T944
150T1061 217T1151 287V840H926V952H1276V113H1501V0ZM1084 1100L736 1260L388 1100L349 1178L736 1397L1123 1178L1084 1100Z" />
<glyph unicode="&#xfc;" glyph-name="udieresis" horiz-adv-x="1542" d="M1501 0H1151V180Q1104 135 1046 97T922 29T781 -16T629 -33Q535 -33 466 -10T350 57T281 161T258 299V840H33V952H383V336Q383 260 402 211T458 132T545 92T662 80Q736 80 808 100T944
150T1061 217T1151 287V840H926V952H1276V113H1501V0ZM449 1204Q449 1241 473 1267T535 1294Q572 1294 598 1268T625 1204Q625 1167 599 1142T535 1116Q498 1116 474 1141T449 1204ZM846 1204Q846 1222 852 1238T871 1267T899 1287T934 1294Q971 1294 996 1268T1022
1204Q1022 1167 997 1142T934 1116Q896 1116 871 1141T846 1204Z" />
<glyph unicode="&#xfd;" glyph-name="yacute" horiz-adv-x="1358" d="M1358 840H1169L799 113L776 70Q739 -3 707 -67T640 -185T568 -281T484 -353T379 -398T246 -414Q186 -414 121 -397T4 -346L59 -240Q73 -249 90 -260T131 -280T182 -296T246 -303Q317 -303
369 -283T464 -226T540 -133T610 -8L186 840H0V952H494V840H330L678 123L1032 840H864V952H1358V840ZM1032 1284L592 1098L551 1182L979 1395L1032 1284Z" />
<glyph unicode="&#xfe;" glyph-name="thorn" horiz-adv-x="1497" d="M27 1376H377V813Q424 852 475 883T584 935T709 968T854 979Q959 979 1057 950T1231 859T1353 702T1399 475Q1399 344 1350 250T1219 94T1030 3T807 -27Q740 -27 680 -18T567 6T466 42T377 86V-281H602V-393H27V-281H252V1264H27V1376ZM377
197Q451 147 557 114T805 80Q908 80 994 105T1143 181T1241 305T1276 475Q1276 670 1162 771T825 872Q751 872 686 856T564 812T461 752T377 686V197Z" />
<glyph unicode="&#xff;" glyph-name="ydieresis" horiz-adv-x="1358" d="M1358 840H1169L799 113L776 70Q739 -3 707 -67T640 -185T568 -281T484 -353T379 -398T246 -414Q186 -414 121 -397T4 -346L59 -240Q73 -249 90 -260T131 -280T182 -296T246 -303Q317 -303
369 -283T464 -226T540 -133T610 -8L186 840H0V952H494V840H330L678 123L1032 840H864V952H1358V840ZM391 1204Q391 1241 415 1267T477 1294Q514 1294 540 1268T567 1204Q567 1167 541 1142T477 1116Q440 1116 416 1141T391 1204ZM788 1204Q788 1222 794 1238T813
1267T841 1287T876 1294Q913 1294 938 1268T964 1204Q964 1167 939 1142T876 1116Q838 1116 813 1141T788 1204Z" />
<glyph unicode="&#x2013;" glyph-name="endash" horiz-adv-x="860" d="M41 430V541H819V430H41Z" />
<glyph unicode="&#x2014;" glyph-name="emdash" horiz-adv-x="2048" d="M0 430V541H2048V430H0Z" />
<glyph unicode="&#x2018;" glyph-name="quoteleft" horiz-adv-x="418" d="M315 1108Q315 1087 307 1068T285 1035T252 1012T211 1004Q163 1004 133 1036T102 1120Q102 1161 113 1199T143 1271T187 1336T242 1393L289 1346Q257 1314 235 1279T203 1206Q232 1206
253 1198T288 1176T308 1144T315 1108Z" />
<glyph unicode="&#x2019;" glyph-name="quoteright" horiz-adv-x="418" d="M102 1270Q102 1291 110 1310T132 1343T165 1366T207 1374Q255 1374 285 1342T315 1257Q315 1216 304 1178T275 1106T231 1041T176 985L129 1032Q161 1064 183 1098T215 1171Q186 1171
165 1179T129 1202T109 1234T102 1270Z" />
<glyph unicode="&#x201a;" glyph-name="quotesinglbase" horiz-adv-x="418" d="M102 98Q102 120 110 139T132 172T165 194T207 203Q255 203 285 171T315 86Q315 45 304 7T275 -65T231 -130T176 -186L129 -139Q161 -107 183 -73T215 0Q186 0 165 8T129 30T109 62T102 98Z" />
<glyph unicode="&#x201c;" glyph-name="quotedblleft" horiz-adv-x="725" d="M315 1108Q315 1087 307 1068T285 1035T252 1012T211 1004Q163 1004 133 1036T102 1120Q102 1161 113 1199T143 1271T187 1336T242 1393L289 1346Q257 1314 235 1279T203 1206Q232 1206
253 1198T288 1176T308 1144T315 1108ZM623 1108Q623 1087 615 1068T593 1035T560 1012T518 1004Q470 1004 440 1036T410 1120Q410 1161 420 1199T450 1271T494 1336T549 1393L596 1346Q564 1314 542 1279T510 1206Q539 1206 560 1198T596 1176T616 1144T623 1108Z"
/>
<glyph unicode="&#x201d;" glyph-name="quotedblright" horiz-adv-x="725" d="M102 1270Q102 1291 110 1310T132 1343T165 1366T207 1374Q255 1374 285 1342T315 1257Q315 1216 304 1178T275 1106T231 1041T176 985L129 1032Q161 1064 183 1098T215 1171Q186 1171
165 1179T129 1202T109 1234T102 1270ZM410 1270Q410 1291 418 1310T440 1343T473 1366T514 1374Q562 1374 592 1342T623 1257Q623 1216 612 1178T582 1106T538 1041T483 985L436 1032Q468 1064 490 1098T522 1171Q493 1171 472 1179T437 1202T417 1234T410 1270Z"
/>
<glyph unicode="&#x201e;" glyph-name="quotedblbase" horiz-adv-x="725" d="M102 98Q102 120 110 139T132 172T165 194T207 203Q255 203 285 171T315 86Q315 45 304 7T275 -65T231 -130T176 -186L129 -139Q161 -107 183 -73T215 0Q186 0 165 8T129 30T109 62T102
98ZM410 98Q410 142 439 172T514 203Q562 203 592 171T623 86Q623 45 612 7T582 -65T538 -130T483 -186L436 -139Q468 -107 490 -73T522 0Q493 0 472 8T437 30T417 62T410 98Z" />
<glyph unicode="&#x2022;" glyph-name="bullet" horiz-adv-x="721" d="M164 707Q164 747 179 783T221 845T283 887T360 903Q401 903 437 888T499 846T541 783T557 707Q557 666 542 630T500 568T437 526T360 510Q319 510 284 525T222 567T180 630T164 707Z" />
<glyph unicode="&#x2039;" glyph-name="guilsinglleft" horiz-adv-x="528" d="M82 444V535L367 870L453 797L197 489L453 182L367 109L82 444Z" />
<glyph unicode="&#x203a;" glyph-name="guilsinglright" horiz-adv-x="528" d="M168 109L82 182L338 489L82 797L168 870L453 535V444L168 109Z" />
</font>
</defs>
</svg>
