<?xml version="1.0" standalone="no"?>
<!DOCTYPE svg PUBLIC "-//W3C//DTD SVG 1.1//EN" "http://www.w3.org/Graphics/SVG/1.1/DTD/svg11.dtd">
<svg xmlns="http://www.w3.org/2000/svg">
<defs >
<font id="GentiumBookBasic" horiz-adv-x="1015" ><font-face
    font-family="Gentium Book Basic"
    units-per-em="2048"
    panose-1="2 0 6 6 8 0 0 2 0 4"
    ascent="1790"
    descent="-580"
    alphabetic="0" />
<glyph unicode=" " glyph-name="space" horiz-adv-x="518" />
<glyph unicode="!" glyph-name="exclam" horiz-adv-x="500" d="M373 172Q373 137 361 101T323 36T261 -12T175 -31Q105 -31 73 2T41 88Q41 121 55 156T94 220T157 267T241 286Q308 286 340 254T373 172ZM316 419Q306 412 292 405T262 392T231 380T203 370L178
391L223 1314Q245 1326 281 1344T357 1380T431 1413T486 1436L530 1401L316 419Z" />
<glyph unicode="&quot;" glyph-name="quotedbl" horiz-adv-x="923" d="M342 849Q334 844 319 841T288 834T255 830T228 828L211 1342Q219 1346 238 1354T283 1371T336 1389T389 1407T434 1422T460 1430L507 1399L342 849ZM732 849Q724 844 709 841T678 834T645
830T618 828L601 1342Q609 1346 628 1354T673 1371T726 1389T779 1407T824 1422T850 1430L897 1399L732 849Z" />
<glyph unicode="#" glyph-name="numbersign" horiz-adv-x="968" d="M864 981H1008L1028 956Q1024 945 1016 927T997 889T978 852T963 826H801L714 610H859L875 583Q872 573 864 555T846 518T827 481T814 455H652L537 170Q528 163 512 157T477 146T440 136T409
127L388 147L512 455H354L239 170Q230 163 214 157T179 146L143 136Q125 131 112 127L91 147L215 455H55L37 480Q41 490 49 507T67 544T86 582T102 610H277L364 826H207L187 850Q190 861 199 879T218 916T237 953T252 981H426L535 1251Q546 1259 563 1264T598 1274L632
1283Q648 1287 659 1292L683 1270L566 981H723L832 1251Q843 1259 859 1264T894 1274T929 1283T957 1292L980 1270L864 981ZM416 610H574L661 826H503L416 610Z" />
<glyph unicode="$" glyph-name="dollar" horiz-adv-x="968" d="M329 950Q329 926 334 906T352 866T387 829T446 792L490 1100Q454 1094 425 1081T374 1047T341 1002T329 950ZM654 343Q654 395 626 434T534 509L480 125Q566 139 610 195T654 343ZM943 1144Q947
1141 943 1124T928 1080T905 1025T879 969T854 924T836 901L768 911Q762 942 750 970T720 1021T676 1063T616 1091L567 741Q639 712 696 681T794 612T857 527T879 418Q879 340 854 268T777 138T647 38T460 -21L445 -128Q427 -143 398 -157T344 -178L314 -147L330
-31H322Q272 -31 215 -15T109 27T27 81T-6 138Q-6 149 1 171T19 219T45 272T75 321T104 357T129 371Q138 371 148 357T170 319T198 267T236 212T286 163T353 129L414 565Q405 569 395 572T375 581Q312 605 262 632T176 694T122 773T103 875Q103 930 125 986T195
1090T320 1173T507 1223L524 1338Q550 1354 573 1371T622 1396L654 1364L635 1231H639Q683 1231 726 1224T808 1204T882 1176T943 1144Z" />
<glyph unicode="%" glyph-name="percent" horiz-adv-x="1411" d="M1130 426Q1130 468 1125 497T1110 545T1087 571T1058 579Q1028 579 1006 557T967 501T941 423T924 336T915 254T912 190Q912 112 929 77T988 42Q1024 42 1050 80T1095 177T1121 302T1130 426ZM1338
408Q1338 329 1313 251T1240 109T1119 7T951 -32Q895 -32 848 -12T767 42T714 120T695 213Q695 292 721 371T798 512T923 613T1093 652Q1144 652 1189 635T1267 587T1319 510T1338 408ZM273 3Q261 -3 242 -7T201 -16T159 -23T125 -30L106 0L1137 1203Q1147 1207
1166 1211T1208 1220T1250 1229T1281 1235L1301 1207L273 3ZM504 1013Q504 1055 499 1084T484 1132T461 1158T432 1166Q402 1166 380 1144T341 1088T315 1010T298 923T289 841T286 777Q286 699 303 664T362 629Q398 629 424 667T469 764T495 889T504 1013ZM712
995Q712 916 687 838T614 696T493 594T325 555Q269 555 222 575T141 629T88 707T69 800Q69 879 95 958T172 1099T297 1200T467 1239Q518 1239 563 1222T641 1174T693 1097T712 995Z" />
<glyph unicode="&amp;" glyph-name="ampersand" horiz-adv-x="1327" d="M1401 748Q1387 733 1370 713T1336 672T1301 635T1272 609Q1240 626 1205 642T1137 660Q1153 634 1154 604T1152 543Q1143 478 1106 405T1008 262Q1022 247 1034 233T1060 206Q1105 159 1158
148T1258 148L1264 65Q1221 46 1172 29T1077 -2T999 -22T955 -30Q931 -30 889 -2T794 78Q714 28 625 -1T441 -30Q237 -30 140 66T68 352Q81 454 155 557T376 768Q355 846 347 922T349 1073Q360 1154 400 1223T499 1342T632 1421T786 1450Q860 1450 911 1430T993
1375T1034 1297T1038 1204Q1031 1152 996 1097T910 988T798 887T676 802L659 791Q705 681 772 575T911 376Q930 408 942 439T959 502Q965 544 958 576T935 630T895 663T844 675L819 713L837 731Q849 743 863 756T892 779T917 794H1377L1401 748ZM527 124Q572 124
616 138T704 176Q632 262 561 371T436 603Q392 547 371 492T342 373Q332 303 345 256T386 179T451 137T527 124ZM596 1130Q589 1080 594 1027T615 917Q656 942 685 973T735 1038T767 1106T783 1171Q788 1206 784 1232T768 1277T742 1304T708 1313Q685 1313 667
1299T635 1261T612 1203T596 1130Z" />
<glyph unicode="&apos;" glyph-name="quotesingle" horiz-adv-x="500" d="M342 849Q334 844 319 841T288 834T255 830T228 828L211 1342Q219 1346 238 1354T283 1371T336 1389T389 1407T434 1422T460 1430L507 1399L342 849Z" />
<glyph unicode="(" glyph-name="parenleft" horiz-adv-x="641" d="M762 1519Q696 1462 637 1385T528 1204T442 972T382 682Q361 536 357 405T367 159T418 -53T516 -230L449 -315Q348 -252 273 -153T152 72T93 345T102 651Q125 815 179 962T314 1231T496 1449T719
1604L762 1519Z" />
<glyph unicode=")" glyph-name="parenright" horiz-adv-x="641" d="M559 638Q536 474 482 327T347 58T165 -160T-58 -315L-101 -230Q-35 -173 24 -96T133 85T219 317T279 607Q300 753 304 884T294 1130T243 1342T145 1519L212 1604Q313 1541 388 1442T509 1217T568
944T559 638Z" />
<glyph unicode="*" glyph-name="asterisk" horiz-adv-x="746" d="M453 1230L666 1410Q674 1404 691 1388T728 1353T763 1317T785 1291L766 1231L494 1136L720 1051Q718 1039 711 1013T696 957T679 901T667 864L610 845L431 1038L446 775Q435 769 411 759T359 738T306
719T271 707L234 748L327 1037L115 858Q106 864 89 880T52 915T17 951T-6 977L15 1037L288 1132L60 1217Q63 1229 70 1255T85 1311T101 1367T114 1404L170 1423L349 1229L335 1493Q346 1499 370 1509T422 1530T474 1549T509 1561L547 1520L453 1230Z" />
<glyph unicode="+" glyph-name="plus" horiz-adv-x="835" d="M785 606Q781 595 773 578T754 543T735 509T722 485H488L452 221Q443 216 428 210T397 198T364 187T338 180L312 212L349 485H81L55 519Q59 530 67 546T84 580T103 614T117 640H370L407 906Q416 909
431 914T462 926T495 937T521 945L546 912L509 640H757L785 606Z" />
<glyph unicode="," glyph-name="comma" horiz-adv-x="500" d="M399 122Q399 76 383 26T341 -75T279 -174T206 -264T128 -340T54 -395L-10 -340Q28 -300 57 -258T105 -176T133 -98T143 -30Q143 -12 136 7T115 41T80 65T30 71L27 159Q39 169 61 181T112 205T171
229T231 249T285 263T326 269Q361 249 380 217T399 122Z" />
<glyph unicode="-" glyph-name="hyphen" horiz-adv-x="691" d="M650 551Q646 540 638 524T620 490T602 458T589 435H51L23 469Q27 480 35 496T52 528T71 560L86 585H621L650 551Z" />
<glyph unicode="." glyph-name="period" horiz-adv-x="500" d="M373 172Q373 137 361 101T323 36T261 -12T175 -31Q105 -31 73 2T41 88Q41 121 55 156T94 220T157 267T241 286Q308 286 340 254T373 172Z" />
<glyph unicode="/" glyph-name="slash" horiz-adv-x="911" d="M121 -265Q111 -272 84 -282T27 -303T-32 -323T-72 -336L-111 -301L785 1530Q798 1539 824 1549T878 1569T932 1587T973 1599L1014 1567L121 -265Z" />
<glyph unicode="0" glyph-name="zero" horiz-adv-x="968" d="M660 816Q660 895 651 949T624 1036T584 1085T532 1100Q481 1100 444 1060T380 955T337 810T311 650T298 499T294 380Q294 235 325 171T428 106Q471 106 504 139T564 227T608 356T637 507T654 666T660
816ZM928 784Q928 704 921 633T898 495T856 364T791 236Q758 180 715 132T620 47T506 -10T374 -31Q297 -31 233 6T123 106T52 251T27 422Q27 507 34 577T57 710T98 834T158 961Q189 1018 233 1068T331 1155T448 1213T583 1235Q653 1235 715 1204T825 1115T900 973T928
784Z" />
<glyph unicode="1" glyph-name="one" horiz-adv-x="968" d="M806 0H71L83 93Q158 102 208 113T288 137T332 160T348 183L446 900Q451 940 451 962T442 998Q437 1004 424 1008T383 1011T312 1004T205 984L190 1075Q217 1080 259 1092T349 1119T449 1153T548 1188T635
1220T700 1245L738 1200L599 183Q597 173 605 162T638 138T706 114T818 93L806 0Z" />
<glyph unicode="2" glyph-name="two" horiz-adv-x="968" d="M921 1026Q921 984 910 942T872 849T799 736T683 595T514 417T286 190H641Q657 190 671 199T697 222T718 255T736 294Q754 340 764 399L848 377L781 0H6L-10 74Q168 255 293 395T497 643T612 833T648
977Q648 1049 621 1080T539 1111Q502 1111 477 1094T437 1048T417 985T413 914Q397 905 366 894T299 872T230 855T175 845L149 925Q156 977 196 1032T301 1132T448 1206T623 1235Q680 1235 734 1225T829 1190T896 1126T921 1026Z" />
<glyph unicode="3" glyph-name="three" horiz-adv-x="968" d="M873 1001Q873 947 856 901T807 816T734 748T644 698Q697 692 735 668T799 607T837 524T849 428Q849 334 809 251T701 105T542 6T350 -31Q315 -31 270 -19T178 15T87 68T8 139L67 246Q140 177 212
150T354 122Q399 122 439 141T509 197T558 284T576 401Q576 501 531 547T412 593H391Q383 593 375 592T357 590T333 586L327 686Q605 754 605 990Q605 1053 584 1082T520 1111Q496 1111 475 1101T439 1070T417 1020T412 953Q391 941 360 927T295 902T228 883T171
874L145 945Q151 987 187 1037T280 1132T414 1205T576 1235Q663 1235 720 1216T811 1164T859 1089T873 1001Z" />
<glyph unicode="4" glyph-name="four" horiz-adv-x="968" d="M911 450Q899 434 884 417T852 383T821 353T794 330H737L711 144Q710 136 715 130T733 116T771 100T833 83L822 0H255L266 83Q328 94 367 103T430 121T462 138T472 155L496 330H61L27 373L578 1164Q602
1172 634 1182T699 1204L763 1225Q795 1236 819 1245L856 1200L757 481H891L911 450ZM255 481H516L582 960L255 481Z" />
<glyph unicode="5" glyph-name="five" horiz-adv-x="968" d="M948 1184Q937 1166 915 1139T869 1085T823 1036T789 1004H376Q370 975 362 941T344 872T327 807T311 754Q348 774 405 787T523 800Q611 800 675 772T780 698T842 594T862 477Q862 417 848 357T807
240T738 134T641 48T515 -10T362 -31Q317 -31 270 -20T176 12T88 64T10 134L71 231Q116 196 155 173T231 137T299 118T364 112Q412 112 455 136T532 202T584 301T604 424Q604 473 591 513T554 581T496 624T419 640Q338 640 278 615T165 550L123 583Q136 619 151
669T182 777T214 895T243 1012T268 1119T286 1204H805Q830 1204 850 1206T885 1213Q902 1217 915 1223L948 1184Z" />
<glyph unicode="6" glyph-name="six" horiz-adv-x="968" d="M506 639Q471 639 426 611T333 535Q328 495 326 455T324 373Q324 298 335 247T365 165T410 120T467 106Q497 106 521 122T563 167T594 231T615 305T627 381T631 452Q631 510 620 546T591 603T551 631T506
639ZM900 1150Q782 1129 693 1086T539 983T432 849T364 689Q425 738 485 764T599 790Q666 790 721 767T815 704T875 607T897 483Q897 429 883 370T841 253T772 145T679 54T563 -8T425 -31Q349 -31 282 -3T163 77T83 201T53 360Q53 468 77 571T148 768T265 943T427
1087T635 1192T886 1249L900 1150Z" />
<glyph unicode="7" glyph-name="seven" horiz-adv-x="968" d="M1005 1167Q947 1059 891 950T782 735T681 529T592 342T517 181T460 54Q442 42 412 30T347 6T280 -14T223 -30L181 13Q249 115 306 204T413 376T507 534T594 687T679 842T767 1005H344Q330 1005 314
1001T278 981T235 931T183 840L115 868Q119 883 126 910T143 969T161 1037T180 1104T197 1163T211 1204H979L1005 1167Z" />
<glyph unicode="8" glyph-name="eight" horiz-adv-x="968" d="M417 940Q417 905 429 879T463 832T514 794T576 760Q615 800 644 852T673 975Q673 1041 643 1076T556 1111Q527 1111 502 1096T458 1057T428 1002T417 940ZM622 342Q622 390 609 425T572 488T517 535T452
574Q421 543 395 510T350 439T319 361T308 274Q308 231 319 199T350 144T393 111T444 100Q484 100 517 121T573 176T609 254T622 342ZM933 1001Q933 950 911 908T854 829T776 761T690 704Q730 683 767 656T833 593T879 509T896 397Q896 312 855 235T747 98T592
4T411 -31Q312 -31 241 -8T123 54T55 143T33 250Q33 314 59 369T129 472T227 559T342 629Q307 648 276 670T221 723T183 793T169 889Q169 962 205 1025T302 1135T444 1208T615 1235Q699 1235 759 1218T858 1169T915 1095T933 1001Z" />
<glyph unicode="9" glyph-name="nine" horiz-adv-x="968" d="M474 575Q526 575 572 602T658 673Q667 757 667 856Q667 929 659 976T634 1051T596 1089T547 1100Q494 1100 459 1069T402 990T372 884T363 770Q363 716 373 679T399 619T434 585T474 575ZM942 862Q942
691 889 537T730 262T467 60T100 -43L87 56Q208 84 299 125T457 224T565 355T632 522Q580 475 517 445T381 414Q306 414 253 440T165 509T114 608T98 725Q98 817 136 908T240 1072T395 1190T589 1235Q670 1235 735 1213T846 1144T917 1028T942 862Z" />
<glyph unicode=":" glyph-name="colon" horiz-adv-x="500" d="M466 847Q466 812 454 776T416 711T354 663T268 644Q198 644 166 677T134 763Q134 796 148 831T187 895T250 942T334 961Q401 961 433 929T466 847ZM373 172Q373 137 361 101T323 36T261 -12T175 -31Q105
-31 73 2T41 88Q41 121 55 156T94 220T157 267T241 286Q308 286 340 254T373 172Z" />
<glyph unicode=";" glyph-name="semicolon" horiz-adv-x="500" d="M468 847Q468 812 456 776T418 711T356 663T270 644Q200 644 168 677T136 763Q136 796 150 831T189 895T252 942T336 961Q403 961 435 929T468 847ZM399 122Q399 76 383 26T341 -75T279 -174T206
-264T128 -340T54 -395L-10 -340Q28 -300 57 -258T105 -176T133 -98T143 -30Q143 -12 136 7T115 41T80 65T30 71L27 159Q39 169 61 181T112 205T171 229T231 249T285 263T326 269Q361 249 380 217T399 122Z" />
<glyph unicode="&lt;" glyph-name="less" horiz-adv-x="900" d="M867 892Q863 881 856 862T840 822T825 782T813 754L321 569L773 382L791 336Q780 326 766 313T737 285T705 258T674 236L85 480L60 525Q65 538 72 555T86 590T101 625T115 654L839 927L867 892Z" />
<glyph unicode="=" glyph-name="equal" horiz-adv-x="900" d="M850 756Q846 745 838 728T819 693T800 659T787 635H107L81 669Q85 680 93 696T110 730T129 764T144 790H823L850 756ZM809 456Q805 445 797 428T778 393T759 359T746 335H66L40 369Q44 380 52 396T69
430T88 464T103 490H782L809 456Z" />
<glyph unicode="&gt;" glyph-name="greater" horiz-adv-x="900" d="M831 638Q826 624 819 607T805 572T790 538T776 509L51 236L25 271Q28 281 35 300T51 341T67 381T79 409L570 594L118 781L101 827Q112 837 126 850T155 878T186 905T217 927L805 683L831 638Z" />
<glyph unicode="?" glyph-name="question" horiz-adv-x="900" d="M543 172Q543 137 531 101T493 36T431 -12T345 -31Q275 -31 243 2T211 88Q211 121 225 156T264 220T327 267T411 286Q478 286 510 254T543 172ZM919 1186Q919 1103 890 1038T815 919T717 816T616
720T533 620T490 505L479 419Q470 412 456 405T425 391T392 378T364 368L341 389L346 515Q349 577 371 631T426 734T496 829T565 922T618 1020T639 1128Q639 1166 632 1200T610 1259T575 1300T525 1315Q495 1315 473 1298T437 1249T422 1177T428 1088Q406 1078
372 1067T300 1046T229 1029T172 1019L142 1060Q142 1124 177 1189T275 1308T426 1396T621 1430Q692 1430 747 1411T841 1359T899 1282T919 1186Z" />
<glyph unicode="@" glyph-name="at" horiz-adv-x="1729" d="M948 334Q952 373 960 427T978 537T996 645T1012 733Q989 753 965 767T918 781Q880 781 849 762T794 712T752 639T722 554T705 464T699 379Q699 326 706 288T723 224T746 188T768 176Q781 176 798 184T838
210T888 258T948 334ZM1659 549Q1647 462 1612 385T1527 243T1418 125T1300 35T1187 -21T1094 -41Q1079 -41 1059 -33T1018 -2T979 60T952 162Q926 121 892 84T821 19T746 -25T675 -41Q641 -41 601 -22T525 38T466 145T442 305Q442 384 462 459T520 604T614 733T740
842Q767 860 804 877T880 907T959 928T1030 936Q1071 936 1110 918T1185 880Q1221 896 1255 910T1315 936L1350 861Q1333 847 1321 836T1300 811T1285 775T1271 720Q1256 648 1245 584T1226 465T1214 371T1210 309Q1210 247 1226 216T1266 184Q1317 184 1355 262T1420
510Q1445 679 1418 804T1324 1011T1162 1133T955 1174Q835 1174 729 1120T541 974T402 761T327 504Q310 383 324 284T375 105T468 -32T593 -129T738 -187T893 -206Q948 -206 1002 -196T1109 -168T1208 -130T1296 -85T1369 -41T1422 -2L1458 -107Q1420 -145 1357
-191T1211 -279T1026 -347T809 -375Q693 -375 588 -349T394 -271T234 -147T120 19T59 225T60 465Q76 577 119 685T228 890T382 1067T572 1208T794 1300T1039 1333Q1183 1333 1308 1281T1520 1129T1646 882T1659 549Z" />
<glyph unicode="A" glyph-name="A" horiz-adv-x="1210" d="M371 424L249 151Q236 120 265 106T369 83L358 0H-55L-44 83Q21 95 55 108T103 151L564 1197Q593 1220 625 1238T691 1272T758 1298T820 1317L1050 151Q1053 137 1058 126T1075 107T1105 93T1154 83L1143
0H657L668 83Q741 88 768 103T790 151L737 424H371ZM712 555L623 1003L429 555H712Z" />
<glyph unicode="B" glyph-name="B" horiz-adv-x="1114" d="M533 1176L472 745H505Q552 745 599 759T685 802T748 878T772 987Q772 1041 754 1077T706 1135T641 1166T571 1176H533ZM558 629Q537 629 522 628T496 625T474 621T454 616L388 144Q385 135 404 121Q436
105 471 99T547 93Q604 93 647 114T720 173T763 262T778 375Q778 425 768 471T732 552T664 608T558 629ZM1054 410Q1054 312 1011 231T894 92T718 2T501 -31Q481 -31 451 -30T384 -27T309 -22T233 -16Q145 -9 46 0H-10L-4 83Q59 97 92 113T127 144L269 1160Q229
1155 196 1149T131 1135V1227Q177 1240 233 1251T351 1271T481 1285T618 1290Q838 1290 943 1224T1048 1040Q1048 935 983 852T787 723Q845 716 894 689T979 619T1034 524T1054 410Z" />
<glyph unicode="C" glyph-name="C" horiz-adv-x="1055" d="M1096 1190Q1098 1187 1092 1170T1073 1129T1046 1076T1014 1021T984 975T961 947L891 965Q880 1000 862 1033T819 1092T760 1133T686 1149Q646 1149 614 1140T541 1100Q478 1051 437 977T371 822T337
660T327 516Q327 407 354 336T423 223T512 164T603 146Q627 146 659 151T731 171T823 213T938 286Q943 284 949 273T960 249T970 225T977 211Q909 144 842 99T711 25T591 -15T487 -27Q397 -27 318 5T181 100T90 252T56 459Q56 553 76 650T137 840T240 1016T387
1167Q423 1195 469 1218T564 1257T665 1281T763 1290Q812 1290 862 1282T957 1261T1038 1229T1096 1190Z" />
<glyph unicode="D" glyph-name="D" horiz-adv-x="1238" d="M594 1176Q579 1176 564 1174T534 1171L399 169Q395 140 421 127T515 114Q582 114 639 140T744 210T826 315T886 443T922 584T935 727Q935 834 917 917T859 1058T753 1146T594 1176ZM1217 755Q1217 667
1195 577T1131 403T1028 246T890 118T720 32T521 0H-10L0 83Q63 97 96 113T131 144L270 1148L133 1126V1229Q190 1243 255 1254T385 1273T512 1285T626 1290Q781 1290 892 1253T1076 1147T1182 978T1217 755Z" />
<glyph unicode="E" glyph-name="E" horiz-adv-x="1030" d="M977 324Q968 281 956 231T933 134T911 51T895 0H-10L1 83Q66 97 99 113T135 144L268 1115Q270 1127 243 1145T151 1177L162 1260H1005L1040 1225Q1035 1199 1026 1157T1005 1071T982 988T962 930H883Q891
1023 880 1076T833 1130H530L476 735H843L872 697Q863 683 850 663T822 623T793 585T767 560Q755 575 741 585T706 602T658 612T591 615H459L402 194Q400 179 405 168T429 148T484 135T583 130H666Q709 130 741 142T800 182T851 251T904 352L977 324Z" />
<glyph unicode="F" glyph-name="F" horiz-adv-x="974" d="M846 697Q835 679 821 659T793 619T765 584T740 560Q728 575 714 585T680 602T631 612T564 615H459L395 144Q394 138 400 131T422 117T467 101T541 83L530 0H-10L1 83Q66 97 99 113T135 144L268 1115Q270
1127 243 1145T151 1177L162 1260H1014L1047 1225Q1043 1199 1034 1157T1013 1071T991 988T971 930H890Q900 1023 888 1076T841 1130H530L476 735H815L846 697Z" />
<glyph unicode="G" glyph-name="G" horiz-adv-x="1136" d="M1140 549Q1086 533 1062 512T1035 467Q1031 440 1026 398T1016 313T1006 231T999 174Q923 113 856 74T731 11T622 -22T532 -31Q438 -31 352 5T200 110T95 276T56 493Q56 588 77 679T138 852T231 1005T351
1133Q394 1170 441 1199T543 1248T662 1279T803 1290Q840 1290 887 1283T980 1263T1068 1231T1135 1188Q1139 1184 1133 1167T1115 1126T1087 1074T1054 1020T1022 974T998 947L930 963Q915 1002 895 1037T845 1100T777 1144T687 1161Q641 1161 593 1138T496 1065Q461
1029 430 968T375 835T339 684T325 536Q325 429 351 354T418 230T509 160T610 138Q637 138 672 144T743 176L786 467Q787 477 784 487T760 507T697 527T579 549L585 632H1146L1140 549Z" />
<glyph unicode="H" glyph-name="H" horiz-adv-x="1329" d="M663 1177Q597 1163 564 1146T528 1115L474 725H930L984 1115Q985 1127 959 1145T867 1177L878 1260H1390L1379 1177Q1313 1163 1280 1146T1244 1115L1111 144Q1109 132 1136 115T1229 83L1218 0H706L717
83Q782 97 815 113T851 144L913 595H457L395 144Q393 132 419 115T513 83L502 0H-10L1 83Q66 97 99 113T135 144L268 1115Q270 1127 243 1145T151 1177L162 1260H674L663 1177Z" />
<glyph unicode="I" glyph-name="I" horiz-adv-x="652" d="M682 1177Q617 1163 584 1146T548 1115L415 144Q413 132 439 115T532 83L521 0H10L21 83Q85 97 118 113T154 144L287 1115Q289 1127 263 1145T171 1177L182 1260H693L682 1177Z" />
<glyph unicode="J" glyph-name="J" horiz-adv-x="658" d="M706 1177Q643 1163 608 1146T571 1115L450 205Q435 95 402 17T326 -119T238 -216T150 -289Q123 -310 87 -330T10 -366T-70 -391T-145 -401Q-185 -401 -224 -390T-294 -364T-344 -331T-364 -301Q-364 -294
-352 -278T-322 -241T-281 -200T-237 -162T-199 -133T-173 -121Q-163 -121 -147 -136T-108 -169T-58 -203T0 -218Q24 -218 48 -207T96 -160T140 -54T177 133L311 1115Q312 1121 307 1128T284 1143T234 1159T147 1177L158 1260H719L706 1177Z" />
<glyph unicode="K" glyph-name="K" horiz-adv-x="1239" d="M663 1177Q597 1163 564 1146T528 1115L466 664L859 1088Q884 1115 896 1131T906 1156T885 1169T830 1177L841 1260H1269L1258 1177Q1227 1173 1207 1169T1170 1159T1140 1142T1109 1115L654 677L1009
218Q1022 202 1044 196T1092 191T1145 198T1194 214L1223 131Q1194 106 1148 81T1054 34T963 0T898 -14Q870 -14 851 -5T815 29L460 621L395 144Q393 132 419 115T513 83L502 0H-10L1 83Q66 97 99 113T135 144L268 1115Q270 1127 243 1145T151 1177L162 1260H674L663
1177Z" />
<glyph unicode="L" glyph-name="L" horiz-adv-x="1018" d="M968 324Q959 281 947 231T923 134T901 51T886 0H-10L1 83Q66 97 99 113T135 144L268 1115Q270 1127 243 1145T151 1177L162 1260H674L663 1177Q597 1163 564 1146T528 1115L403 204Q401 186 407 173T431
150T482 135T566 130H662Q705 130 736 142T793 182T843 251T895 352L968 324Z" />
<glyph unicode="M" glyph-name="M" horiz-adv-x="1638" d="M1665 1177Q1618 1177 1545 1152L1416 144Q1414 132 1445 115T1543 83L1532 0H1027L1038 83Q1102 97 1140 113T1181 144L1280 922L763 0H661L407 922L292 144Q290 132 317 115T410 83L399 0H6L17 83Q83
97 116 113T151 144L297 1144Q268 1163 236 1170T177 1177L188 1260H528Q537 1260 544 1257T558 1245T571 1220T586 1176L808 364L1265 1176Q1281 1206 1292 1222T1312 1247T1328 1258T1345 1260H1676L1665 1177Z" />
<glyph unicode="N" glyph-name="N" horiz-adv-x="1273" d="M1358 1177Q1289 1167 1257 1148T1223 1115L1066 -30Q1016 -26 976 -15T906 13T856 49T824 91L394 895L291 144Q290 138 295 130T313 113T350 96T408 83L397 0H-3L8 83Q78 92 109 111T142 144L273 1102Q247
1132 218 1152T158 1177L169 1260H450Q463 1260 472 1258T489 1247T505 1224T528 1182L970 353L1075 1115Q1076 1121 1072 1129T1054 1146T1018 1163T958 1177L969 1260H1369L1358 1177Z" />
<glyph unicode="O" glyph-name="O" horiz-adv-x="1191" d="M911 756Q911 840 896 913T850 1040T775 1124T672 1155Q616 1155 570 1127T487 1050T423 938T378 806T351 666T342 532Q342 439 357 361T401 228T474 141T576 110Q635 110 683 140T768 221T832 338T876
475T902 620T911 756ZM1180 774Q1180 703 1166 630T1126 486T1063 349T981 225Q939 171 885 125T771 44T644 -11T511 -31Q407 -31 326 10T187 121T100 286T70 485Q70 642 119 775T248 1018Q290 1074 342 1123T456 1210T590 1268T745 1290Q854 1290 936 1249T1072
1138T1153 973T1180 774Z" />
<glyph unicode="P" glyph-name="P" horiz-adv-x="1095" d="M1125 942Q1125 857 1087 780T985 644T835 550T653 515Q615 515 576 524T510 549L491 663Q525 648 550 639T612 630Q727 630 789 702T851 905Q851 989 827 1041T763 1124T672 1165T566 1176Q560 1176
554 1176T541 1175L397 144Q395 138 401 131T424 116T471 100T548 83L538 0H-10L0 83Q63 97 96 113T131 144L271 1150Q236 1145 201 1139T131 1125V1225Q183 1239 244 1251T369 1271T494 1285T609 1290Q732 1290 828 1268T990 1202T1090 1093T1125 942Z" />
<glyph unicode="Q" glyph-name="Q" horiz-adv-x="1221" d="M911 756Q911 840 896 913T850 1040T775 1124T672 1155Q616 1155 570 1127T487 1050T423 938T378 806T351 666T342 532Q342 439 357 361T401 228T474 141T576 110Q635 110 683 140T768 221T832 338T876
475T902 620T911 756ZM1302 -127Q1274 -171 1243 -208T1182 -274T1127 -319T1088 -335Q1043 -335 1000 -319T914 -277T829 -218T745 -150T661 -83T576 -26Q559 -28 544 -29T511 -31Q407 -31 326 10T187 121T100 286T70 485Q70 642 119 775T248 1018Q290 1074 342
1123T456 1210T590 1268T745 1290Q854 1290 936 1249T1072 1138T1153 973T1180 774Q1180 703 1166 630T1126 486T1063 349T981 225Q935 167 877 117T751 32Q805 13 853 -13T946 -63T1034 -103T1122 -120Q1134 -120 1145 -118T1171 -108T1207 -88T1259 -52L1302
-127Z" />
<glyph unicode="R" glyph-name="R" horiz-adv-x="1167" d="M1187 119Q1148 93 1100 69T1005 27T923 -3T874 -14Q857 -14 840 -10T807 9T774 48T742 117L577 578Q549 578 518 580T458 590L398 144Q395 132 426 115T521 83L510 0H-10L1 83Q64 97 97 113T132 144L268
1150Q230 1144 195 1138T130 1125L131 1227Q176 1240 234 1251T357 1271T491 1285T629 1290Q852 1290 970 1209T1088 971Q1088 920 1066 866T1003 762T902 671T770 606L986 224Q999 201 1014 190T1049 176T1095 180T1159 197L1187 119ZM578 1176H558Q548 1176 537
1175L475 713Q498 706 519 704T565 702Q614 702 659 718T738 765T794 840T815 942Q815 1016 793 1061T736 1132T659 1167T578 1176Z" />
<glyph unicode="S" glyph-name="S" horiz-adv-x="1000" d="M992 1198Q996 1195 992 1179T977 1139T954 1090T926 1041T900 1000T880 979L811 985Q800 1033 780 1067T733 1123T677 1155T617 1166Q567 1166 531 1152T472 1114T438 1059T427 995Q427 973 434 949T463
899T525 844T633 780Q712 739 770 701T865 621T921 533T940 430Q940 336 898 253T783 106T611 6T398 -31Q342 -31 276 -18T152 17T56 67T17 125Q17 135 25 155T47 198T78 245T113 289T147 321T174 334Q185 334 200 318T233 278T275 225T329 173T395 132T475 116Q519
116 558 130T626 172T672 239T689 330Q689 375 674 412T626 484T539 552T409 621Q343 652 300 686T233 758T198 838T188 928Q188 994 223 1059T322 1175T476 1258T679 1290Q782 1290 863 1263T992 1198Z" />
<glyph unicode="T" glyph-name="T" horiz-adv-x="1123" d="M783 0H236L247 83Q291 92 320 102T366 121T391 139T400 155L533 1130H311Q297 1130 283 1118T251 1079T212 1010T161 910L88 939Q94 968 105 1012T128 1102T152 1191T172 1260H1186L1218 1225Q1214 1199
1205 1160T1184 1078L1161 993Q1150 951 1140 920H1061Q1058 966 1058 1005T1053 1071T1040 1114T1011 1130H794L661 155Q660 149 665 141T685 122T726 102T794 83L783 0Z" />
<glyph unicode="U" glyph-name="U" horiz-adv-x="1282" d="M1340 1177Q1277 1163 1247 1146T1215 1115L1130 512Q1112 381 1063 280T942 109T781 5T592 -31Q510 -31 434 -6T300 67T206 185T171 348Q171 401 180 463L273 1115Q274 1127 248 1145T158 1177L169 1260H674L663
1177Q600 1163 567 1146T531 1115L443 510Q438 481 435 452T432 397Q432 257 490 192T673 126Q738 126 785 151T865 223T917 331T947 469L1038 1115Q1039 1121 1034 1129T1017 1145T983 1161T929 1177L940 1260H1351L1340 1177Z" />
<glyph unicode="V" glyph-name="V" horiz-adv-x="1256" d="M1356 1177Q1290 1164 1253 1152T1203 1111L716 89Q706 67 682 48T628 14T564 -12T504 -30L233 1111Q226 1137 201 1153T119 1177L130 1260H628L617 1177Q542 1171 517 1157T498 1113L681 313L1055 1111Q1062
1126 1061 1136T1047 1153T1012 1166T951 1177L962 1260H1367L1356 1177Z" />
<glyph unicode="W" glyph-name="W" horiz-adv-x="1603" d="M1710 1177Q1667 1168 1639 1160T1595 1145T1570 1130T1560 1115L1203 59Q1196 38 1177 23T1135 -3T1089 -20T1051 -30L850 854L475 59Q466 38 447 23T404 -2T357 -19T313 -30L227 1107Q225 1132 199
1148T109 1177L120 1260H593L582 1177Q536 1172 510 1165T472 1148T457 1129T455 1107L512 430L888 1260H995L1187 430L1422 1115Q1426 1127 1417 1136T1390 1152T1345 1165T1288 1177L1299 1260H1721L1710 1177Z" />
<glyph unicode="X" glyph-name="X" horiz-adv-x="1225" d="M1129 0H608L619 83Q661 87 687 93T725 109T738 133T727 167L566 488L317 167Q300 145 294 131T294 107T324 92T389 83L378 0H-40L-29 83Q32 88 76 107T151 167L498 624L263 1093Q252 1115 241 1129T216
1152T181 1166T130 1177L141 1260H672L661 1177Q581 1169 554 1153T549 1093L691 810L896 1093Q913 1116 919 1130T918 1154T887 1169T824 1177L835 1260H1256L1245 1177Q1210 1173 1184 1167T1135 1152T1096 1128T1063 1093L757 678L1014 167Q1025 146 1036 132T1061
108T1094 93T1140 83L1129 0Z" />
<glyph unicode="Y" glyph-name="Y" horiz-adv-x="1178" d="M825 0H276L287 83Q330 92 359 102T405 121T431 139T440 155L491 528Q468 607 439 691T378 852T315 997T259 1111Q253 1122 245 1130T223 1144T185 1153T122 1156L129 1239Q157 1243 194 1248T269 1258T340
1266T392 1270Q420 1270 447 1257T487 1221Q514 1171 543 1107T600 972T654 826T702 678L969 1111Q985 1137 965 1152T874 1177L885 1260H1281L1270 1177Q1205 1164 1174 1150T1126 1111L750 516L701 155Q700 149 705 141T725 122T767 102T836 83L825 0Z" />
<glyph unicode="Z" glyph-name="Z" horiz-adv-x="1078" d="M345 140H748Q768 140 786 157T822 207T862 287T910 397L996 373Q990 341 981 290T963 184T946 79T934 0H40L11 55L771 1120H428Q413 1120 392 1101T347 1049T301 970T261 873L174 895L262 1276Q287 1270
307 1267T347 1262T388 1260H1075L1100 1207L345 140Z" />
<glyph unicode="[" glyph-name="bracketleft" horiz-adv-x="770" d="M870 1563Q867 1551 860 1534T843 1499T826 1467T814 1447H552L329 -181H585L624 -220Q621 -230 614 -246T599 -279T582 -311T569 -336H66L338 1599H833L870 1563Z" />
<glyph unicode="\" glyph-name="backslash" horiz-adv-x="869" d="M697 -336Q686 -332 660 -323T606 -304T553 -283T521 -265L135 1567L182 1599Q196 1595 220 1587T271 1570T322 1550T358 1530L742 -301L697 -336Z" />
<glyph unicode="]" glyph-name="bracketright" horiz-adv-x="706" d="M448 -336H-47L-86 -297Q-82 -285 -75 -268T-59 -234T-44 -202T-32 -181H230L459 1447H205L166 1483Q169 1494 175 1510T190 1544T205 1576T217 1599H718L448 -336Z" />
<glyph unicode="^" glyph-name="asciicircum" horiz-adv-x="938" d="M854 635Q826 612 802 597T743 565L713 592L553 1315L223 635Q212 625 197 615T167 595T137 578T113 565L94 592L516 1462Q529 1474 547 1486T584 1511T621 1533T653 1550L854 635Z" />
<glyph unicode="_" glyph-name="underscore" horiz-adv-x="930" d="M811 -166Q808 -177 800 -193T783 -227T766 -261T752 -286H3L-23 -249Q-20 -239 -13 -224T4 -191T22 -157T38 -131H783L811 -166Z" />
<glyph unicode="`" glyph-name="grave" horiz-adv-x="606" d="M581 1057Q561 1045 534 1033T489 1016L189 1372L231 1428Q243 1430 276 1437T346 1451T416 1463T462 1469L581 1057Z" />
<glyph unicode="a" glyph-name="a" horiz-adv-x="1007" d="M577 360Q582 401 589 449T603 545T618 637T632 715Q604 742 575 762T520 781Q479 780 446 761T388 711T344 638T313 553T296 463T290 379Q290 326 297 288T316 224T342 188T372 176Q385 176 404 185T448
215T506 272T577 360ZM1006 118Q964 88 921 59T838 8T768 -27T718 -41Q702 -41 680 -31T636 5T596 71T570 176Q537 132 501 93T426 24T347 -23T266 -41Q229 -41 188 -22T113 38T56 145T33 305Q33 384 53 459T112 604T205 733T332 842Q386 879 463 907T632 936Q674
936 715 918T793 876Q831 893 867 907T932 936L967 861Q950 847 939 836T919 811T905 775T891 720Q876 648 865 584T846 465T834 371T830 309Q830 282 834 257T845 211T862 178T884 166Q904 166 926 171T989 194L1006 118Z" />
<glyph unicode="b" glyph-name="b" horiz-adv-x="1041" d="M629 743Q617 743 597 733T548 696T484 627T406 516Q397 450 392 398T386 316Q386 290 401 264T438 216T483 181T524 166Q566 163 597 183T653 239Q672 266 686 302T709 378T722 456T726 530Q726 576
720 615T702 682T671 727T629 743ZM990 610Q988 504 941 395T817 188Q782 143 738 102T641 29T529 -22T407 -41Q384 -41 353 -30T290 0T225 46T168 105T127 173T111 247Q111 273 116 324T131 443T153 588T178 748T203 908T225 1057T241 1181T247 1266Q247 1289
242 1302T229 1322T212 1331T194 1333Q185 1333 170 1329T140 1319Q122 1313 104 1306L86 1385Q132 1407 191 1431T308 1475T411 1507T478 1520Q513 1520 525 1502T537 1438Q537 1396 528 1322T506 1154T475 956T442 750Q491 809 534 845T616 902T687 929T747 936Q798
937 842 916T920 853T972 750T990 610Z" />
<glyph unicode="c" glyph-name="c" horiz-adv-x="899" d="M937 825Q916 802 885 772T821 715T759 670T713 651Q695 651 678 671T643 716T602 760T551 781Q501 781 463 748T398 660T357 537T343 398Q343 268 378 197T469 126Q529 126 605 169T790 301Q794 296 802
284T819 259T835 235T845 220Q767 149 701 99T578 18T470 -27T371 -41Q326 -41 275 -24T179 35T106 147T77 322Q77 389 91 457T136 590T218 714T343 822Q371 840 409 860T490 897T581 925T674 936Q718 936 753 923T818 891T877 854T937 825Z" />
<glyph unicode="d" glyph-name="d" horiz-adv-x="1034" d="M578 366Q588 434 602 524T632 714Q606 741 578 761T519 781Q478 781 446 762T388 712T344 639T313 554T296 464T290 379Q290 272 315 224T376 176Q386 176 403 183T445 211T503 269T578 366ZM1009 116Q967
87 924 59T841 9T770 -27T716 -41Q699 -41 677 -30T634 6T595 74T571 178Q486 63 408 11T266 -41Q225 -41 184 -21T109 43T54 154T33 315Q33 394 53 468T111 610T205 736T332 842Q360 860 394 876T466 906T544 928T622 936Q632 936 642 933T665 924Q682 1034 693
1125T704 1266Q704 1289 701 1302T691 1322T676 1331T659 1333Q650 1333 634 1329T602 1319Q584 1313 562 1306L545 1385Q598 1411 655 1435T765 1478T857 1508T918 1520Q953 1520 973 1502T993 1438Q993 1399 986 1338T968 1202T942 1041T912 869T882 698T856
541T837 411T830 319Q830 244 846 206T885 168Q910 168 933 173T991 194L1009 116Z" />
<glyph unicode="e" glyph-name="e" horiz-adv-x="885" d="M850 760Q850 733 844 702T818 636T762 563T666 485T519 403T311 318Q325 227 362 177T447 126Q490 126 572 170T776 311Q782 308 790 297T805 272T819 246L827 230Q745 159 677 108T551 23T443 -25T345
-41Q301 -41 248 -23T150 36T74 142T43 303Q43 381 62 451T116 585T200 706T312 816Q334 835 368 856T442 895T526 924T612 936Q673 936 718 921T792 880T836 824T850 760ZM401 722Q379 693 363 664T334 601T315 530T306 446Q394 488 446 521T526 585T562 644T570
705Q570 746 552 768T508 791Q500 791 487 786T459 772T429 751T401 722Z" />
<glyph unicode="f" glyph-name="f" horiz-adv-x="689" d="M1053 1393Q1039 1383 1018 1366T972 1329T921 1289T873 1252T833 1226T807 1215Q790 1215 774 1234T739 1276T701 1318T656 1337Q618 1337 592 1301T549 1208T521 1084T503 952L497 905H743L773 867Q763
853 743 832T700 790T657 752T626 730Q615 758 584 766T493 775H482L415 193Q402 83 355 -19T241 -210T98 -369T-54 -485L-100 -392Q-50 -364 -10 -309T61 -181T112 -26T141 139L214 775H78L53 816L194 905H229Q239 985 259 1059T311 1199T389 1322T499 1427Q553
1466 612 1493T734 1520Q785 1520 835 1502T929 1462T1005 1419T1053 1393Z" />
<glyph unicode="g" glyph-name="g" horiz-adv-x="977" d="M368 176Q378 176 395 183T440 214T506 283T595 404Q598 462 604 527T623 672Q626 689 632 706Q601 735 570 758T512 781Q471 781 438 762T380 712T335 639T304 554T286 464T280 379Q280 272 305 224T368
176ZM965 861Q931 833 912 792T883 679Q869 560 864 469T854 299T844 149T824 1Q812 -68 781 -132T705 -252T608 -353T497 -431T381 -482T271 -500Q218 -500 165 -490T70 -463T2 -427T-25 -389Q-25 -378 -15 -360T10 -322T43 -281T78 -244T108 -217T125 -206Q137
-206 155 -222T202 -257T271 -293T367 -309Q400 -309 429 -300T483 -262T527 -182T562 -48Q574 26 579 88T588 209Q504 92 423 26T256 -41Q223 -41 182 -22T106 38T46 145T21 305Q21 464 98 603T324 842Q379 879 456 907T632 936Q668 936 711 915T794 869Q831 891
865 907T926 936L965 861Z" />
<glyph unicode="h" glyph-name="h" horiz-adv-x="1097" d="M1074 122Q1028 95 974 66T868 14T769 -25T693 -41Q664 -41 641 -10T617 76Q617 94 623 135T637 229T656 341T674 454T689 553T695 620Q695 650 692 669T684 698T671 712T652 716Q639 716 618 711T572
691T519 650T466 582Q437 534 418 463T385 301Q376 246 371 209T364 147T362 106T362 75Q353 70 334 61T289 41T235 17T182 -7T137 -27T109 -41L66 0Q75 54 88 129T115 294T146 481T177 676T205 866T229 1036T245 1174T251 1266Q251 1289 248 1302T239 1322T226
1331T210 1333Q200 1333 183 1329T148 1319Q128 1313 105 1306L88 1385Q116 1397 151 1412T225 1442T302 1471T373 1496T433 1513T473 1520Q501 1520 521 1502T542 1438Q542 1414 537 1363T522 1247T502 1107T479 963T459 834T443 738Q560 844 661 890T852 936Q883
936 908 930T950 907T976 859T985 780Q985 745 979 698T964 599T944 492T924 387T909 295T903 225Q903 191 911 179T939 166Q953 166 964 168T987 174T1012 185L1044 199L1074 122Z" />
<glyph unicode="i" glyph-name="i" horiz-adv-x="589" d="M565 122Q518 94 466 65T363 13T268 -26T194 -41Q160 -41 135 -10T110 76Q110 106 116 155T133 264T155 386T177 506T193 609T200 680Q200 703 197 716T189 736T176 745T159 747Q151 747 136 744T106 735Q88
730 69 723L50 800Q92 819 148 842T260 887T362 922T429 936Q457 936 473 917T490 852Q490 823 483 773T466 664T443 539T421 414T403 304T396 225Q396 194 402 180T426 166Q441 166 454 168T480 174T509 184T545 199L565 122ZM587 1262Q587 1234 575 1203T538
1146T477 1103T394 1086Q364 1086 342 1093T306 1114T286 1143T279 1176Q279 1203 291 1234T329 1291T389 1335T472 1353Q502 1353 524 1345T560 1325T580 1296T587 1262Z" />
<glyph unicode="j" glyph-name="j" horiz-adv-x="585" d="M480 870Q480 859 478 832T471 767T463 688T454 605T445 530T439 473Q431 404 421 313T392 96Q378 2 345 -75T269 -215T180 -325T92 -404Q37 -447 -30 -473T-163 -500Q-210 -500 -252 -487T-328 -457T-380
-422T-400 -394Q-400 -385 -391 -368T-368 -331T-336 -290T-301 -251T-271 -222T-250 -211Q-238 -211 -218 -227T-173 -262T-117 -297T-54 -313Q-15 -313 9 -298T50 -245T80 -145T108 11Q120 85 129 152T146 276T159 377T168 451Q171 475 174 508L180 574Q183 607
184 635T186 680Q186 703 183 716T175 736T162 745T145 747Q136 747 121 744T91 735Q73 730 55 723L35 800Q63 813 98 828T172 858T247 887T317 912T375 929T414 936Q442 936 461 924T480 870ZM561 1262Q561 1234 549 1203T512 1146T451 1103T368 1086Q338 1086
316 1093T280 1114T260 1143T253 1176Q253 1203 265 1234T303 1291T363 1335T446 1353Q476 1353 498 1345T534 1325T554 1296T561 1262Z" />
<glyph unicode="k" glyph-name="k" horiz-adv-x="1039" d="M540 1417Q540 1378 534 1321T519 1192T496 1041T469 875T441 704T413 536L568 650Q637 701 677 734T727 787T714 813T636 818L627 897Q671 904 716 910T803 920T883 927T953 930Q1016 930 1037 911T1059
858Q1059 843 1038 818T975 759T874 684T740 596L612 517Q636 490 659 454T704 378T747 301T788 233T828 185T868 166Q891 166 927 173T1002 202L1039 128Q1006 100 965 71T882 17T805 -23T746 -39Q713 -39 682 -11T622 63T564 165T508 278T454 385T403 469Q392
398 384 335T371 221T366 132T370 77Q361 72 341 63T294 42T239 18T185 -6T139 -27T111 -41L66 0Q70 29 80 90T103 234T133 414T166 614T197 815T225 1002T244 1157T251 1263Q251 1288 248 1302T239 1323T224 1331T203 1333Q195 1333 179 1329T146 1319Q127 1313
105 1306L86 1385Q128 1404 187 1427T305 1471T412 1506T481 1520Q495 1520 506 1517T524 1504T536 1473T540 1417Z" />
<glyph unicode="l" glyph-name="l" horiz-adv-x="569" d="M544 122Q495 91 441 62T334 10T236 -27T157 -41Q129 -41 107 -11T85 78Q85 103 92 159T110 293T136 463T166 651T195 843T221 1020T240 1166T247 1266Q247 1289 243 1302T231 1322T215 1331T196 1333Q188
1333 173 1329T141 1319L102 1306L82 1385Q110 1397 146 1412T222 1442T300 1471T374 1496T435 1513T476 1520Q504 1520 520 1502T537 1438Q537 1399 530 1334T512 1187T485 1012T455 823T425 635T399 463T380 321T373 225Q373 191 382 179T408 166Q431 166 457
174T527 199L544 122Z" />
<glyph unicode="m" glyph-name="m" horiz-adv-x="1592" d="M1548 122Q1502 95 1449 66T1344 14T1249 -25T1175 -41Q1160 -41 1146 -33T1121 -10T1102 27T1095 76Q1095 94 1101 133T1116 223T1136 334T1156 449T1172 556T1178 639Q1178 678 1168 696T1140 714Q1132
714 1117 710T1080 694T1035 659T985 600Q968 576 955 548T931 484T911 402T893 295Q880 204 877 151T875 75Q866 70 846 61T800 41T746 17T692 -7T646 -27T617 -41L575 0Q597 102 616 201T649 385T671 537T679 640Q679 714 640 714Q634 714 620 710T584 694T538
660T486 602Q469 578 455 549T430 483T409 400T390 295Q376 204 371 152T367 75Q358 70 339 61T294 41T240 17T187 -7T142 -27T114 -41L71 0Q92 106 110 209T143 402T165 565T174 680Q174 703 171 716T163 737T150 747T135 749Q125 749 109 745T77 736L38 723L21
802Q49 814 84 829T157 858T233 887T303 912T361 929T400 936Q415 936 425 931T442 914T452 879T455 821Q455 807 453 784T448 738Q507 797 558 835T654 896T741 927T824 936Q861 936 887 923T931 886T955 833T963 770V762Q963 756 962 748Q1020 803 1068 839T1158
897T1237 927T1313 936Q1342 936 1368 927T1414 896T1445 842T1457 760Q1457 703 1445 628T1418 477T1391 334T1379 225Q1379 191 1389 180T1416 168Q1445 168 1468 175T1533 199L1548 122Z" />
<glyph unicode="n" glyph-name="n" horiz-adv-x="1103" d="M1084 122Q1039 95 986 66T881 14T785 -25T713 -41Q678 -41 654 -10T629 76Q629 94 635 135T650 229T669 341T688 454T703 553T709 620Q709 674 701 695T663 716Q650 716 629 710T583 689T531 648T477
580Q447 532 431 465T397 301Q389 256 384 224T377 166T374 119T374 75Q365 70 346 61T301 41T247 17T194 -7T149 -27T121 -41L78 0Q99 100 117 205T150 405T173 573T182 682Q182 705 180 718T172 738T160 747T144 749Q135 749 119 745T87 736Q69 730 47 723L27
802Q55 814 91 829T167 858T245 887T317 912T375 929T411 936Q425 936 434 932T449 915T457 881T460 823Q460 802 459 783T455 738Q564 838 669 887T864 936Q895 936 920 930T962 908T989 861T998 782Q998 747 992 700T977 601T956 493T936 388T920 296T914 225Q914
191 923 179T950 166Q962 166 972 168T993 174T1018 184T1054 199L1084 122Z" />
<glyph unicode="o" glyph-name="o" horiz-adv-x="924" d="M628 473Q628 549 616 608T583 707T538 768T488 789Q434 789 398 757T339 672T307 556T297 428Q297 361 310 302T345 199T394 128T449 102Q499 102 533 137T589 226T619 345T628 473ZM891 559Q891 492
873 424T823 291T744 168T642 63Q616 42 583 23T515 -10T446 -33T381 -41Q300 -41 236 -12T126 69T57 191T33 344Q33 487 93 612T287 840Q313 860 345 877T413 908T485 928T557 936Q635 936 697 908T802 830T868 711T891 559Z" />
<glyph unicode="p" glyph-name="p" horiz-adv-x="1045" d="M630 745Q615 745 590 732T533 691T468 624T402 529Q394 476 383 414T360 280Q378 257 403 238T456 205T510 184T556 176Q595 176 626 200T674 259Q695 304 707 373T719 522Q719 570 712 610T691 681T662
728T630 745ZM448 870Q448 851 445 823T437 754Q489 809 532 844T613 899T686 928T756 936Q802 936 843 916T916 857T966 760T985 627Q985 565 973 500T942 373T897 255T846 158Q823 122 794 86T732 22T660 -23T582 -41Q559 -41 530 -31T468 0T401 53T335 129L315
6Q298 -97 288 -167T274 -284T270 -357T276 -397Q266 -400 246 -407T199 -424T145 -446T91 -468T45 -487T16 -500L-26 -461Q-22 -432 -12 -375T11 -242T41 -78T74 103T106 284T134 451T153 588T160 680Q160 703 156 716T145 736T130 745T113 747Q104 747 89 744T59
735Q41 730 23 723L4 800Q49 821 107 845T222 889T325 923T391 936Q419 936 433 923T448 870Z" />
<glyph unicode="q" glyph-name="q" horiz-adv-x="973" d="M378 176Q389 176 406 184T449 214T506 272T580 363L637 710Q608 738 579 759T522 781Q481 781 448 762T388 712T341 639T308 554T289 464T282 379Q282 326 290 288T311 224T342 188T378 176ZM970 861Q953
847 940 836T918 811T900 775T886 720Q864 587 843 459T804 214T772 -4T751 -186T744 -320T756 -397Q747 -400 727 -407T680 -425T624 -447T568 -468T522 -487T493 -500L448 -461Q452 -428 461 -369T482 -232T510 -59T542 137Q497 86 460 52T390 -3T327 -32T266
-41Q229 -41 188 -22T113 38T56 145T33 305Q33 384 53 460T113 606T207 736T334 842Q362 860 400 877T479 907T560 928T632 936Q674 936 716 917T795 873Q832 891 868 907T932 936L970 861Z" />
<glyph unicode="r" glyph-name="r" horiz-adv-x="872" d="M933 850Q925 839 912 818T884 770T853 717T822 667T795 630T777 615Q758 615 740 627T705 654T671 681T640 694Q614 694 583 673T520 611T461 513T412 383Q391 308 378 232T367 75Q350 68 313 52T236
17T161 -18T114 -41L71 0Q93 106 112 209T144 401T166 563T174 680Q174 703 171 716T162 736T149 745T133 747Q123 747 108 744T77 735Q59 730 40 723L21 800Q49 813 85 828T159 858T235 887T306 912T365 929T404 936Q432 936 442 916T453 841Q453 830 452 814T449
778T444 738T438 698Q486 770 527 816T605 889T675 926T740 936Q758 936 782 926T832 902T884 874T933 850Z" />
<glyph unicode="s" glyph-name="s" horiz-adv-x="811" d="M818 844Q802 821 780 792T735 735T692 690T661 671Q644 671 623 693T576 741T518 790T450 812Q394 812 371 787T348 719Q348 694 359 674T391 635T444 598T516 559Q557 538 596 513T666 456T716 383T735
289Q735 243 715 201T659 122T579 55T484 4T385 -29T292 -41Q223 -41 165 -24T65 17T0 69T-24 118Q-24 133 -9 166T26 235T67 296T98 323Q107 323 118 306T143 264T176 209T220 154T278 112T352 95Q415 95 449 127T484 213Q484 246 467 274T420 328T355 374T281
416Q228 443 194 471T139 529T111 590T103 653Q103 716 142 768T240 857T369 915T503 936Q557 936 600 924T681 896T751 865T818 844Z" />
<glyph unicode="t" glyph-name="t" horiz-adv-x="714" d="M690 167Q633 122 576 84T467 18T371 -25T297 -41Q265 -41 232 -26T173 15T129 79T112 160Q112 179 112 198T114 237T118 281T126 332L196 775H64L39 816L165 905H217L223 940Q229 981 235 1003T250 1037T269
1057T292 1074L513 1176L541 1151Q533 1142 525 1119Q517 1099 509 1062T490 963L480 905H720L750 867Q740 853 720 832T678 790T637 752T608 730Q596 758 561 766T465 775H460L408 446Q405 427 403 406T399 365T397 328T396 301Q396 239 413 215T458 190Q493 190
539 205T660 254L690 167Z" />
<glyph unicode="u" glyph-name="u" horiz-adv-x="1127" d="M1100 118Q1060 91 1018 63T935 12T860 -26T798 -41Q775 -41 752 -27T708 15T673 85T652 182Q614 134 570 93T478 23T383 -24T293 -41Q262 -41 229 -26T169 21T124 98T106 205Q106 235 110 275T122 359T138
450T153 540T165 619T170 680Q170 703 167 716T159 736T146 745T129 747Q120 747 105 744T74 735Q56 730 36 723L19 800Q47 813 83 828T159 858T237 887T310 912T370 929T410 936Q439 936 449 917T459 852Q459 823 453 777T438 676T419 562T400 449T385 348T379
272Q379 229 394 205T424 180Q456 180 517 229T662 390Q668 430 675 472T689 552T699 624T704 680Q704 703 702 716T694 736T683 745T667 747Q658 747 644 744T616 735Q600 730 583 723L563 800Q591 813 626 828T700 858T777 887T848 912T907 929T946 936Q974 936
983 917T992 852Q992 823 987 782T974 692L957 593Q949 542 941 493T928 401T923 324Q923 279 926 249T937 200T954 174T976 166Q1002 166 1023 172T1081 194L1100 118Z" />
<glyph unicode="v" glyph-name="v" horiz-adv-x="998" d="M998 852Q998 820 975 765T900 617T763 387T556 52Q547 47 521 34T463 6T405 -23T367 -41L325 0Q317 56 307 118T286 242T262 366T237 481T214 580T194 655Q186 682 177 698T159 723T140 734T122 737Q112
737 96 734T64 725Q46 720 24 713L-4 790Q38 812 89 837T189 885T275 921T330 936Q359 936 378 908T420 809Q428 783 439 737T461 634T484 517T505 404T520 314T528 262Q595 367 633 444T691 573T714 656T719 697Q719 724 707 736T667 748Q650 748 635 745T597
733L574 808Q606 826 654 849T751 891T845 924T914 936Q931 935 946 931T973 917T991 892T998 852Z" />
<glyph unicode="w" glyph-name="w" horiz-adv-x="1420" d="M1428 860Q1428 833 1421 802T1396 728T1349 627T1277 489T1175 303T1039 58Q1033 55 1019 48T986 30T946 9T906 -13T871 -30L850 -41L807 0Q785 170 764 303T716 530Q693 456 644 344T504 70Q498 67
483 59T446 39T401 15T356 -9T319 -29T295 -41L253 0Q247 57 241 123T227 256T213 389T199 507T188 600T178 655Q172 682 164 698T146 723T126 734T107 737Q98 737 82 734T49 725Q30 720 8 713L-16 790Q27 814 79 839T180 886T268 922T324 936Q352 936 366 904T397
799Q401 780 407 742T419 655T432 552T444 448T454 355T460 288Q500 366 533 442T590 587T627 711T643 804Q665 825 696 848T759 890T819 923T865 936Q869 936 875 920T890 876T907 814T924 741T940 667T953 600Q968 506 983 423T1004 277Q1048 355 1085 424T1150
549T1192 648T1207 719Q1207 740 1193 752T1152 764Q1138 764 1113 760T1066 749L1038 826Q1076 850 1119 870T1203 905T1281 928T1344 936Q1361 936 1376 934T1402 923T1421 900T1428 860Z" />
<glyph unicode="x" glyph-name="x" horiz-adv-x="961" d="M947 112Q904 82 861 55T777 6T701 -28T638 -41Q611 -41 584 -18T531 46T478 140T427 254Q392 203 350 143T260 10Q248 8 226 5T178 -2T122 -12T67 -23T18 -33T-16 -41L-49 4Q-6 42 47 89T156 189T266
296T367 402Q340 469 315 531T265 642T217 718T171 747Q162 747 141 743T97 734Q71 728 41 721L17 800Q59 822 107 846T200 890T281 923T336 936Q361 936 388 907T442 830T497 720T553 590Q582 627 606 660T647 720T673 764T683 788Q683 809 657 818T566 820L560
901Q593 908 634 914T717 925T796 933T857 936Q920 936 946 920T973 883Q973 845 881 741T608 454Q633 394 657 340T703 245T747 180T789 156Q812 156 847 163T920 189L947 112Z" />
<glyph unicode="y" glyph-name="y" horiz-adv-x="996" d="M983 860Q983 826 954 750T876 569T762 339T625 82Q555 -47 488 -154T349 -338T201 -457T34 -500Q-7 -500 -49 -489T-125 -462T-180 -429T-201 -399Q-201 -384 -182 -352T-138 -287T-87 -226T-47 -191Q-23
-215 3 -234T54 -267T104 -287T146 -294Q195 -294 249 -242T367 -90Q356 -31 341 39T307 184T269 331T230 468T193 583T161 665Q138 716 122 731T89 747Q80 747 64 744T31 735Q12 730 -9 723L-31 800Q15 823 66 847T164 891T248 923T306 936Q334 936 356 907T402
809Q419 761 438 698T477 563T516 411T553 252Q591 329 624 401T681 535T719 642T733 711Q733 761 680 764Q663 766 646 760T599 741L571 818Q607 839 651 860T739 898T823 925T891 936Q908 936 924 934T954 923T975 900T983 860Z" />
<glyph unicode="z" glyph-name="z" horiz-adv-x="787" d="M787 870Q732 811 690 760T611 660T542 563T474 464T397 355T303 230Q318 234 332 238Q344 241 358 243T385 246Q405 246 434 238T494 220T555 202T607 194Q616 194 627 197T652 212T682 245T718 303L784
263Q756 201 730 149T674 60T608 1T522 -20Q480 -20 438 -10T356 13T283 36T225 47Q193 47 144 27T18 -31L-22 25Q53 115 123 213T257 403T376 574T475 705H268Q244 705 226 699T192 678T163 635T134 566L61 584Q70 629 82 681T106 783T127 874T140 936Q149 934
163 931T195 924T231 918T268 915H756L787 870Z" />
<glyph unicode="{" glyph-name="braceleft" horiz-adv-x="704" d="M804 1513Q764 1489 731 1461T672 1401T630 1338T609 1272Q602 1221 602 1180T603 1098T605 1016T599 923Q593 881 573 841T523 765T456 700T376 653Q467 635 503 566T525 385Q518 332 506 285T480
194T456 108T438 23Q433 -13 434 -44T447 -103T486 -158T557 -214L503 -315Q420 -281 355 -247T246 -170T185 -74T176 52Q183 103 194 147T219 233T244 321T264 422Q275 503 249 534T167 566H148Q142 566 137 566T126 564T105 560L102 653Q209 684 261 736T325
863Q332 916 332 957T330 1038T328 1119T335 1215Q344 1282 382 1338T478 1441T612 1527T773 1600L804 1513Z" />
<glyph unicode="|" glyph-name="bar" horiz-adv-x="450" d="M198 -270Q188 -277 170 -286T132 -306T93 -324T62 -336L23 -301L283 1535Q297 1544 314 1553T350 1572T385 1588T418 1599L458 1567L198 -270Z" />
<glyph unicode="}" glyph-name="braceright" horiz-adv-x="702" d="M618 631Q511 600 459 548T395 421Q388 368 388 327T390 246T392 165T385 69Q376 1 338 -54T242 -157T108 -243T-53 -316L-82 -229Q-43 -205 -10 -177T49 -117T90 -54T111 12Q118 63 118 104T116
186T114 268T121 361Q127 403 146 443T196 519T264 584T344 631Q253 649 217 718T195 899Q202 951 214 998T240 1090T264 1176T282 1261Q287 1297 286 1328T273 1387T234 1442T163 1498L217 1599Q300 1565 365 1531T474 1454T535 1358T544 1232Q537 1181 525 1137T501
1051T476 963T456 862Q445 781 471 750T553 718H572Q578 718 583 718T594 720T615 724L618 631Z" />
<glyph unicode="~" glyph-name="asciitilde" horiz-adv-x="984" d="M945 774Q919 725 882 673T803 577T714 505T623 477Q584 477 544 502T463 557T381 612T300 637Q254 637 211 598T116 475L70 502Q97 551 134 603T213 699T302 771T392 799Q435 799 476 774T558
719T637 664T714 639Q758 639 803 678T899 799L945 774Z" />
<glyph unicode="&#xa0;" glyph-name="uni00A0" horiz-adv-x="518" />
<glyph unicode="&#xa1;" glyph-name="exclamdown" horiz-adv-x="500" d="M94 732Q94 765 108 800T147 864T210 911T294 930Q361 930 393 898T426 816Q426 781 414 745T376 680T314 632T228 613Q158 613 126 646T94 732ZM246 -415Q223 -427 187 -445T111 -481T37
-514T-18 -537L-62 -502L152 480Q162 487 177 494T207 507T238 519T266 529L291 508L246 -415Z" />
<glyph unicode="&#xa2;" glyph-name="cent" horiz-adv-x="968" d="M651 1054Q659 1055 666 1055H681Q729 1055 773 1039T857 1001T928 961T984 936Q972 926 954 907T915 865T871 818T828 775T790 744T761 731Q749 731 736 750T707 795T672 849T629 894L545 280Q574
287 602 301T662 338T730 391T812 458Q816 452 824 440T842 415T858 391T868 375Q811 322 764 282T676 211T598 160T524 127L508 12Q499 4 485 -5T456 -22T426 -38T399 -49L380 -27L399 111Q353 112 298 130T196 189T116 299T84 471Q84 538 104 606T164 740T260
864T391 973Q421 992 454 1008T526 1035L543 1156Q569 1174 596 1191T651 1217L671 1194L651 1054ZM340 510Q340 423 364 372T424 297L506 892Q468 871 437 830T385 736T352 626T340 510Z" />
<glyph unicode="&#xa3;" glyph-name="sterling" horiz-adv-x="968" d="M662 516H409Q396 405 361 318T262 151Q326 157 363 157T428 155T487 151T569 151Q612 152 644 161T704 194T755 255T808 352L881 324Q871 281 858 231T831 134T806 51T789 0Q744 -25 680
-28T540 -24T385 -6T229 11T84 9T-34 -30L-63 49Q-32 74 -7 96T37 145T71 203T97 278T116 380T130 516H21L-3 551Q0 558 7 571T22 598T37 626T49 647H140Q157 775 204 883T321 1069T482 1191T677 1235Q701 1235 733 1233T803 1224T881 1203T961 1165Q958 1148 953
1120T940 1059T924 991T908 925T892 868T879 830H798Q800 892 792 943T764 1030T715 1086T645 1106Q628 1106 607 1103T562 1085T517 1041T474 960T440 833T418 647H689L718 614L662 516Z" />
<glyph unicode="&#xa4;" glyph-name="currency" horiz-adv-x="968" d="M519 837Q473 837 432 818T357 765T303 690T275 601Q269 559 278 518T311 443T371 388T455 367Q501 367 542 386T615 439T669 514T697 602Q703 645 694 686T661 760T602 814T519 837ZM746
151L633 298Q590 268 541 251T437 234Q380 234 335 251T254 300L98 150L57 153Q50 172 43 194T30 240L187 391Q165 437 157 489T156 599Q164 654 187 708T245 811L130 963L140 1010Q158 1021 180 1032T224 1053L338 903Q381 935 431 953T538 972Q591 972 635 954T715
903L870 1052L912 1053L937 961L783 811Q806 763 815 709T817 599Q809 543 786 490T727 389L841 241L835 193L746 151Z" />
<glyph unicode="&#xa5;" glyph-name="yen" horiz-adv-x="968" d="M1107 1121Q1074 1115 1051 1109T1011 1095T983 1078T962 1055L623 509L622 502H868L888 479L836 372H604L575 155Q574 149 579 141T599 122T641 102T710 83L699 0H150L161 83Q204 92 233 102T279
121T305 139T314 155L343 372H71L54 396Q57 403 63 418T77 449T92 479T103 502H361L363 512Q341 590 315 667T261 814T205 946T151 1055Q145 1066 137 1074T115 1088T77 1097T14 1100L22 1183Q50 1187 89 1192T167 1202T241 1210T295 1214Q322 1214 348 1201T388
1165Q443 1066 490 952T583 693L805 1055Q822 1081 802 1096T711 1121L722 1204H1118L1107 1121Z" />
<glyph unicode="&#xa6;" glyph-name="brokenbar" horiz-adv-x="450" d="M366 776Q356 768 337 759T295 742T252 726L219 715L178 747L291 1540Q306 1549 325 1557T363 1574T402 1588T436 1599L476 1567L366 776ZM216 -275Q207 -282 188 -291T146 -308T104 -324T72
-336L33 -301L144 479Q157 488 175 496T213 513T252 529T286 541L329 506L216 -275Z" />
<glyph unicode="&#xa7;" glyph-name="section" horiz-adv-x="941" d="M578 569Q594 558 611 548T647 526Q672 563 678 607Q685 658 676 696T642 766T576 830T477 899Q466 906 455 913T431 929Q411 906 397 881T379 830Q373 786 383 754T418 693T483 635T578 569ZM903
673Q892 590 855 523T769 410Q785 383 792 352T795 283Q785 212 759 162T697 76T617 20T530 -12T448 -26T380 -30Q348 -30 313 -26T242 -12T173 11T111 43Q105 46 106 79T114 160T133 259T160 353L242 342Q246 285 262 240T302 163T357 115T425 98Q457 98 480 103T520
119T545 150T558 197Q564 237 546 269T497 329T427 381T349 429Q314 450 277 481T209 556T163 654T156 780Q160 813 174 846T209 911T257 971T316 1023Q288 1055 273 1091T264 1170Q273 1232 308 1282T396 1367T511 1421T640 1440Q682 1440 722 1435T798 1419T863
1395T911 1363Q914 1360 912 1345T903 1307T888 1258T867 1205T845 1158T824 1123L754 1131Q752 1225 718 1277T620 1330Q567 1330 536 1306T498 1240Q494 1208 508 1184T551 1137T619 1092T706 1039Q742 1017 781 987T851 913T897 810T903 673Z" />
<glyph unicode="&#xa8;" glyph-name="dieresis" horiz-adv-x="1042" d="M546 1272Q546 1240 535 1206T501 1143T447 1095T375 1076Q348 1076 329 1085T298 1110T279 1145T273 1186Q273 1216 284 1251T317 1315T370 1363T442 1383Q469 1383 488 1374T520 1348T539
1313T546 1272ZM938 1272Q938 1240 927 1206T893 1143T839 1095T767 1076Q740 1076 721 1085T690 1110T671 1145T665 1186Q665 1216 676 1251T709 1315T762 1363T834 1383Q861 1383 880 1374T912 1348T931 1313T938 1272Z" />
<glyph unicode="&#xa9;" glyph-name="copyright" horiz-adv-x="1360" d="M1054 942Q1039 930 1013 910T960 870T910 836T875 822Q861 822 846 841T812 882T773 924T725 943Q690 943 661 926T608 878T566 810T536 728T518 642T511 559Q511 502 526 465T566 406T624
374T692 365Q717 365 744 372T803 396T871 439T948 504Q952 499 959 490T973 470T987 451T996 438Q932 378 879 337T779 270T689 234T600 223Q554 223 503 237T408 286T335 379T306 526Q306 573 315 626T349 733T414 842T521 945Q544 963 575 981T643 1012T722
1035T809 1044Q857 1044 895 1030T962 998T1014 963T1054 942ZM1180 719Q1180 820 1150 905T1066 1053T935 1149T766 1184Q685 1184 612 1159T474 1090T358 985T269 853T212 704T192 545Q192 443 222 357T307 209T438 111T608 75Q689 75 763 100T900 170T1015 275T1103
408T1160 559T1180 719ZM1300 752Q1300 657 1278 561T1213 375T1108 208T968 73T795 -18T592 -51Q470 -51 374 -5T211 120T109 304T74 526Q74 619 97 713T164 895T270 1058T411 1190T583 1278T780 1310Q902 1310 998 1266T1162 1146T1264 969T1300 752Z" />
<glyph unicode="&#xaa;" glyph-name="ordfeminine" horiz-adv-x="626" d="M623 808Q600 793 577 780T532 756T492 739T462 733Q453 733 441 739T416 757T394 787T381 832Q340 780 307 757T241 733Q216 733 190 743T141 775T105 832T91 917Q91 1004 138 1078T262
1206Q291 1226 328 1241T421 1257Q444 1257 467 1246T512 1221Q532 1232 552 1241T587 1257L608 1217Q599 1210 592 1204T578 1191T568 1172T559 1143Q550 1104 545 1067T536 997T531 940T529 903Q529 877 535 856T554 834Q565 834 574 836T605 848L623 808ZM609
645Q604 629 593 615T576 586H66L39 616Q44 632 55 648T72 679H580L609 645ZM390 949Q394 978 398 1009T407 1069T416 1120L422 1153Q423 1154 423 1155Q409 1166 395 1173T366 1180Q329 1180 304 1157T264 1101T242 1028T235 958Q235 902 247 873T276 844Q286
844 296 849T320 866T350 898T390 949Z" />
<glyph unicode="&#xab;" glyph-name="guillemotleft" horiz-adv-x="998" d="M438 430Q440 449 443 465Q445 479 447 490T450 503L890 933L940 883L930 865Q920 847 904 818T866 751T823 674T780 598T743 531T716 485T707 467L827 47L762 -3L438 430ZM48 430Q50
449 53 465Q55 479 57 490T60 503L499 933L550 883L540 865Q530 847 514 818T476 751T432 674T389 598T352 531T325 485T316 467L437 47L371 -3L48 430Z" />
<glyph unicode="&#xac;" glyph-name="logicalnot" horiz-adv-x="968" d="M821 233Q811 225 797 215T766 195T735 175T707 162L680 197L720 486H64L38 520Q41 530 49 546T66 579T85 612T100 638H842L873 606L821 233Z" />
<glyph unicode="&#xad;" glyph-name="uni00AD" horiz-adv-x="691" d="M650 551Q646 540 638 524T620 490T602 458T589 435H51L23 469Q27 480 35 496T52 528T71 560L86 585H621L650 551Z" />
<glyph unicode="&#xae;" glyph-name="registered" horiz-adv-x="704" d="M761 1084Q750 1005 718 938T637 822T525 746T390 718Q317 718 261 745T169 822T119 938T116 1084Q126 1162 158 1228T240 1344T352 1422T487 1450Q559 1450 615 1423T707 1346T757 1230T761
1084ZM683 1084Q691 1143 683 1196T648 1288T579 1351T474 1375Q413 1375 365 1352T282 1289T224 1196T194 1084Q186 1024 194 972T228 879T297 816T401 793Q462 793 510 816T594 879T652 971T683 1084ZM266 882L269 910Q289 915 297 919T306 929L349 1244Q340
1242 332 1241L316 1239L318 1278Q345 1285 379 1290T451 1296Q492 1296 520 1287T564 1262T587 1226T590 1186Q584 1141 555 1113T483 1073L561 944Q566 933 576 932T606 938L609 920L606 918Q598 913 585 906T558 893T533 881T516 876Q508 876 501 882T491 894L422
1065H409Q405 1065 400 1066L381 929Q379 919 416 910L413 882H266ZM425 1251L406 1112H420Q458 1112 481 1124T509 1177Q513 1206 497 1228T436 1251H425Z" />
<glyph unicode="&#xaf;" glyph-name="overscore" horiz-adv-x="939" d="M1004 1288Q1001 1277 992 1259T971 1220T949 1183T934 1157H175L149 1191Q153 1201 162 1219T181 1257T202 1295T218 1323H975L1004 1288Z" />
<glyph unicode="&#xb0;" glyph-name="degree" horiz-adv-x="682" d="M422 881Q446 881 465 893T499 925T521 969T529 1018Q529 1034 525 1051T511 1081T487 1103T453 1112Q434 1112 415 1102T380 1073T354 1029T344 976Q344 929 367 905T422 881ZM684 1073Q684
999 654 936T576 827T472 755T363 729Q315 729 282 746T227 790T197 851T188 918Q188 987 217 1050T293 1161T397 1237T509 1265Q552 1265 585 1249T640 1207T673 1145T684 1073Z" />
<glyph unicode="&#xb1;" glyph-name="plusminus" horiz-adv-x="835" d="M724 226Q720 215 712 198T694 163T675 129T662 105H26L0 139Q4 150 12 166T29 200T48 234T62 260H697L724 226ZM794 736Q790 725 782 708T764 673T745 639T732 615H493L457 351Q448 346
433 340T402 328T369 317T343 310L316 342L353 615H96L69 649Q73 660 81 676T98 710T117 744T132 770H374L411 1036Q420 1039 435 1044T467 1056T500 1067T526 1075L551 1042L514 770H767L794 736Z" />
<glyph unicode="&#xb2;" glyph-name="twosuperior" horiz-adv-x="692" d="M720 1238Q720 1207 712 1178T685 1118T636 1051T560 971T453 871T312 745H540Q562 745 577 764T603 807Q614 834 623 869L679 856L637 620H94L81 664Q168 746 234 810T348 926T427 1017T478
1089T504 1150T512 1207Q512 1221 510 1233T502 1256T483 1271T451 1277Q428 1277 412 1269T387 1246T374 1211T372 1168Q360 1162 336 1156T283 1143T228 1133T186 1127L168 1175Q172 1206 201 1239T277 1299T383 1343T506 1361Q560 1361 600 1351T667 1324T707
1285T720 1238Z" />
<glyph unicode="&#xb3;" glyph-name="threesuperior" horiz-adv-x="689" d="M681 1219Q681 1188 670 1160T638 1107T590 1066T530 1039Q570 1035 597 1020T641 982T665 934T673 882Q673 824 645 773T569 684T461 624T332 602Q306 602 275 608T210 626T144 658T87
703L126 788Q180 747 227 727T324 707Q350 707 375 717T421 746T453 793T464 860Q463 892 455 912T433 945T402 961T365 966Q347 966 337 966T306 962L304 1032Q360 1045 394 1064T446 1107T469 1155T475 1205Q475 1218 474 1231T467 1254T451 1270T424 1277Q410
1277 396 1270T372 1250T356 1220T355 1182Q340 1174 320 1167T276 1152T230 1141T187 1134L169 1177Q172 1202 196 1234T261 1294T356 1341T473 1361Q536 1361 576 1348T640 1313T672 1267T681 1219Z" />
<glyph unicode="&#xb4;" glyph-name="acute" horiz-adv-x="606" d="M618 1364L233 1016Q225 1018 215 1023T195 1036T175 1053T158 1071L380 1469Q392 1468 423 1463T488 1451T553 1438T593 1429L618 1364Z" />
<glyph unicode="&#xb5;" glyph-name="mu" horiz-adv-x="1131" d="M1122 215Q1076 140 1030 91T942 12T863 -29T798 -41Q769 -41 745 -22T703 30T674 104T659 190Q591 77 522 18T381 -41Q332 -41 289 -11T212 72Q203 -24 216 -101T251 -236T293 -330T319 -380Q309
-384 286 -393T234 -414T173 -439T111 -465T60 -486T30 -500L-13 -461Q-6 -405 5 -333T30 -181T59 -16T89 152T117 314T141 460Q148 519 157 572T166 680Q166 703 163 716T155 736T142 745T127 747Q117 747 102 744T72 735Q54 730 35 723L21 800Q49 813 86 828T165
858T246 887T320 912T378 929T411 936Q439 936 448 917T458 852Q458 823 454 781T442 691T426 592T411 494T399 407T394 339Q394 265 414 232T464 199Q479 199 499 209T545 245T605 316T681 433Q688 475 695 517T709 597T719 666T723 720Q723 752 720 785T706 837Q724
844 764 858T849 888T936 917T999 936Q1007 925 1017 911T1030 887Q1024 858 1014 812T993 710T970 596T949 480T933 376T927 294Q927 240 938 215T964 189Q983 189 1016 211T1087 284L1122 215Z" />
<glyph unicode="&#xb6;" glyph-name="paragraph" horiz-adv-x="1139" d="M1168 1177Q1105 1163 1072 1146T1037 1115L870 -105Q868 -118 894 -135T984 -167L972 -250H332L344 -167Q407 -153 440 -136T475 -105L562 522Q529 516 482 516Q381 516 300 541T164 616T84
737T72 903Q84 988 126 1059T235 1181T393 1261T592 1290Q611 1290 644 1289T719 1285T806 1281T897 1275Q1003 1268 1124 1260H1179L1168 1177ZM578 640L651 1165Q636 1166 624 1166H603Q563 1166 520 1152T441 1108T377 1037T343 938Q335 884 341 831T371 735T435
666T538 640H578ZM880 1136Q863 1140 846 1143T810 1149L638 -105Q637 -111 640 -116T648 -125T658 -132T669 -136Q680 -133 694 -125T710 -105L880 1136Z" />
<glyph unicode="&#xb7;" glyph-name="middot" horiz-adv-x="500" d="M417 678Q417 643 405 607T367 542T305 494T219 475Q149 475 117 508T85 594Q85 627 99 662T138 726T201 773T285 792Q352 792 384 760T417 678Z" />
<glyph unicode="&#xb8;" glyph-name="cedilla" horiz-adv-x="324" d="M238 -221Q238 -256 222 -288T178 -345T111 -387T26 -409T-71 -407T-176 -375L-178 -296Q-140 -311 -107 -313T-50 -310T-13 -290T1 -258Q1 -239 -18 -226T-62 -215Q-30 -154 -10 -103T22 4L130
2Q129 -10 127 -24T121 -51T115 -76T110 -93Q143 -94 167 -105T207 -133T230 -174T238 -221Z" />
<glyph unicode="&#xb9;" glyph-name="onesuperior" horiz-adv-x="702" d="M636 620H122L131 686Q183 692 216 698T268 712T296 726T305 740L361 1150Q364 1174 364 1187T357 1209Q354 1213 346 1215T320 1217T275 1213T202 1200L190 1265Q209 1268 239 1275T304
1291T376 1311T447 1332T510 1352T555 1367L581 1340L499 740Q498 734 503 727T523 713T568 699T645 686L636 620Z" />
<glyph unicode="&#xba;" glyph-name="ordmasculine" horiz-adv-x="508" d="M400 1016Q400 1053 393 1081T373 1128T346 1156T316 1166Q288 1166 271 1150T243 1107T230 1046T226 978Q226 946 233 918T253 869T280 835T313 822Q339 822 356 840T382 886T396 948T400
1016ZM524 645Q519 629 510 615T496 586H36L9 616Q14 632 22 648T37 679H496L524 645ZM558 1054Q558 982 522 915T425 798Q391 770 354 752T268 733Q223 733 187 748T125 792T85 857T71 940Q71 1016 103 1078T206 1196Q241 1224 281 1240T362 1257Q413 1257 450
1242T511 1200T546 1136T558 1054Z" />
<glyph unicode="&#xbb;" glyph-name="guillemotright" horiz-adv-x="998" d="M933 500Q931 481 928 465Q926 451 924 440T921 427L482 -3L431 47L448 78Q466 109 492 155T548 256T605 356T649 432T665 463L544 883L610 933L933 500ZM542 500Q540 481 537 465Q535
451 533 440T531 427L91 -3L41 47L51 65Q61 83 77 112T115 179T158 256T201 332T238 399T265 445T274 463L154 883L219 933L542 500Z" />
<glyph unicode="&#xbc;" glyph-name="onequarter" horiz-adv-x="1209" d="M924 461L737 231H886L924 461ZM1111 216Q1097 200 1078 183T1045 158H1012L997 69Q996 62 1010 56T1067 40L1061 0H737L744 40Q779 45 801 49T837 58T855 66T861 74L875 158H627L607 179L921
559Q935 563 953 568T990 578T1027 588T1059 598L1080 576L1023 231H1100L1111 216ZM125 637L132 682Q175 686 203 691T249 702T274 714T283 725L339 1069Q342 1088 342 1098T337 1116Q332 1122 303 1122T202 1109L193 1153Q217 1157 257 1167T341 1190T424 1215T484
1235L506 1213L426 725Q425 720 430 715T449 703T487 692T551 682L544 637H125ZM205 3Q193 -3 175 -7T138 -16T99 -23T67 -30L48 0L1079 1203Q1089 1207 1107 1211T1145 1220T1183 1229T1213 1235L1233 1207L205 3Z" />
<glyph unicode="&#xbd;" glyph-name="onehalf" horiz-adv-x="1209" d="M125 637L132 682Q175 686 203 691T249 702T274 714T283 725L339 1069Q342 1088 342 1098T337 1116Q332 1122 303 1122T202 1109L193 1153Q217 1157 257 1167T341 1190T424 1215T484 1235L506
1213L426 725Q425 720 430 715T449 703T487 692T551 682L544 637H125ZM205 3Q193 -3 175 -7T138 -16T99 -23T67 -30L48 0L1079 1203Q1089 1207 1107 1211T1145 1220T1183 1229T1213 1235L1233 1207L205 3ZM1101 0H659L650 36Q752 123 823 190T939 309T1004 400T1025
469Q1025 504 1010 518T963 533Q942 533 928 525T905 503T893 473T891 439Q882 434 864 429T826 419T787 411T756 406L741 444Q745 469 768 495T827 543T911 579T1011 593Q1044 593 1074 588T1128 572T1166 541T1181 492Q1181 472 1175 452T1154 407T1112 354T1045
286T949 200T819 91H1021Q1040 91 1053 106T1075 141Q1085 163 1091 192L1139 181L1101 0Z" />
<glyph unicode="&#xbe;" glyph-name="threequarters" horiz-adv-x="1209" d="M924 461L737 231H886L924 461ZM1111 216Q1097 200 1078 183T1045 158H1012L997 69Q996 62 1010 56T1067 40L1061 0H737L744 40Q779 45 801 49T837 58T855 66T861 74L875 158H627L607
179L921 559Q935 563 953 568T990 578T1027 588T1059 598L1080 576L1023 231H1100L1111 216ZM205 3Q193 -3 175 -7T138 -16T99 -23T67 -30L48 0L1079 1203Q1089 1207 1107 1211T1145 1220T1183 1229T1213 1235L1233 1207L205 3ZM581 842Q581 797 558 757T496 687T406
640T296 622Q276 622 251 627T199 643T147 669T102 704L135 755Q177 722 218 709T299 696Q324 696 347 705T387 731T415 773T425 829Q425 878 400 900T332 922Q318 922 311 922T287 918L283 966Q442 999 442 1112Q442 1143 430 1156T393 1170Q366 1170 348 1150T332
1094Q320 1088 302 1082T265 1070T226 1061T194 1057L180 1091Q183 1111 203 1135T257 1180T333 1215T425 1230Q474 1230 507 1221T559 1196T587 1160T595 1117Q595 1065 558 1029T464 972Q524 966 552 928T581 842Z" />
<glyph unicode="&#xbf;" glyph-name="questiondown" horiz-adv-x="900" d="M340 727Q340 761 352 797T390 863T452 911T538 930Q608 930 640 897T672 811Q672 778 658 743T619 679T556 632T472 613Q405 613 373 645T340 727ZM741 -161Q741 -225 706 -290T608 -409T457
-497T262 -531Q191 -531 136 -512T42 -460T-16 -383T-36 -287Q-36 -204 -7 -139T68 -20T166 83T267 179T350 279T393 394L404 480Q413 487 427 494T458 508T491 521T519 531L542 510L537 384Q534 322 512 268T457 165T387 70T318 -23T265 -121T244 -229Q244 -267
251 -301T273 -360T308 -401T358 -416Q388 -416 410 -399T446 -350T461 -278T455 -189Q477 -179 511 -168T583 -147T654 -130T711 -120L741 -161Z" />
<glyph unicode="&#xc0;" glyph-name="Agrave" horiz-adv-x="1210" d="M371 424L249 151Q236 120 265 106T369 83L358 0H-55L-44 83Q21 95 55 108T103 151L564 1197Q593 1220 625 1238T691 1272T758 1298T820 1317L1050 151Q1053 137 1058 126T1075 107T1105 93T1154
83L1143 0H657L668 83Q741 88 768 103T790 151L737 424H371ZM712 555L623 1003L429 555H712ZM888 1413Q874 1393 856 1369T821 1336L390 1570L407 1637Q426 1649 455 1664T515 1694T573 1721T615 1738L888 1413Z" />
<glyph unicode="&#xc1;" glyph-name="Aacute" horiz-adv-x="1210" d="M371 424L249 151Q236 120 265 106T369 83L358 0H-55L-44 83Q21 95 55 108T103 151L564 1197Q593 1220 625 1238T691 1272T758 1298T820 1317L1050 151Q1053 137 1058 126T1075 107T1105 93T1154
83L1143 0H657L668 83Q741 88 768 103T790 151L737 424H371ZM712 555L623 1003L429 555H712ZM1084 1570L609 1336Q595 1345 580 1369T556 1413L897 1738Q919 1727 946 1713T998 1686T1046 1659T1084 1637V1570Z" />
<glyph unicode="&#xc2;" glyph-name="Acircumflex" horiz-adv-x="1210" d="M371 424L249 151Q236 120 265 106T369 83L358 0H-55L-44 83Q21 95 55 108T103 151L564 1197Q593 1220 625 1238T691 1272T758 1298T820 1317L1050 151Q1053 137 1058 126T1075 107T1105
93T1154 83L1143 0H657L668 83Q741 88 768 103T790 151L737 424H371ZM712 555L623 1003L429 555H712ZM1055 1401Q1041 1381 1024 1363T990 1336L750 1501L469 1336Q460 1342 443 1361T416 1401L711 1712H843L1055 1401Z" />
<glyph unicode="&#xc3;" glyph-name="Atilde" horiz-adv-x="1210" d="M371 424L249 151Q236 120 265 106T369 83L358 0H-55L-44 83Q21 95 55 108T103 151L564 1197Q593 1220 625 1238T691 1272T758 1298T820 1317L1050 151Q1053 137 1058 126T1075 107T1105 93T1154
83L1143 0H657L668 83Q741 88 768 103T790 151L737 424H371ZM712 555L623 1003L429 555H712ZM1141 1637Q1120 1596 1089 1545T1019 1448T938 1371T850 1340Q808 1340 772 1356T701 1391T633 1427T561 1443Q539 1443 521 1436T486 1414T451 1379T412 1330L340 1360Q362
1401 393 1453T463 1551T543 1628T631 1660Q677 1660 715 1644T787 1609T853 1573T918 1557Q961 1557 994 1584T1068 1670L1141 1637Z" />
<glyph unicode="&#xc4;" glyph-name="Adieresis" horiz-adv-x="1210" d="M371 424L249 151Q236 120 265 106T369 83L358 0H-55L-44 83Q21 95 55 108T103 151L564 1197Q593 1220 625 1238T691 1272T758 1298T820 1317L1050 151Q1053 137 1058 126T1075 107T1105
93T1154 83L1143 0H657L668 83Q741 88 768 103T790 151L737 424H371ZM712 555L623 1003L429 555H712ZM688 1552Q688 1520 677 1486T643 1423T589 1375T517 1356Q490 1356 471 1365T440 1390T421 1425T415 1466Q415 1496 426 1531T459 1595T512 1643T584 1663Q611
1663 630 1654T662 1628T681 1593T688 1552ZM1080 1552Q1080 1520 1069 1486T1035 1423T981 1375T909 1356Q882 1356 863 1365T832 1390T813 1425T807 1466Q807 1496 818 1531T851 1595T904 1643T976 1663Q1003 1663 1022 1654T1054 1628T1073 1593T1080 1552Z"
/>
<glyph unicode="&#xc5;" glyph-name="Aring" horiz-adv-x="1210" d="M371 424L249 151Q236 120 265 106T369 83L358 0H-55L-44 83Q21 95 55 108T103 151L564 1197Q593 1220 625 1238T691 1272T758 1298T820 1317L1050 151Q1053 137 1058 126T1075 107T1105 93T1154
83L1143 0H657L668 83Q741 88 768 103T790 151L737 424H371ZM712 555L623 1003L429 555H712ZM809 1591Q809 1619 796 1635T763 1651Q746 1651 732 1643T708 1619T691 1584T685 1540Q685 1511 699 1494T734 1478Q748 1478 761 1487T785 1511T802 1546T809 1591ZM958
1628Q958 1583 938 1533T883 1441T799 1372T695 1344Q657 1344 630 1357T583 1392T555 1441T546 1497Q546 1545 565 1596T619 1690T700 1760T801 1787Q838 1787 867 1774T917 1739T947 1688T958 1628Z" />
<glyph unicode="&#xc6;" glyph-name="AE" horiz-adv-x="1558" d="M812 1107Q813 1118 808 1123T795 1127T776 1116T756 1090L571 735H761L812 1107ZM1523 324Q1513 281 1501 231T1478 134T1457 51T1441 0H538L549 83Q613 97 645 113T680 144L745 615H512L273 151Q257
122 275 107T358 83L347 0H-40L-29 83Q27 91 61 106T111 151L594 1093Q603 1110 602 1121T588 1142T547 1160T475 1177L486 1260H1553L1585 1225Q1580 1199 1571 1157T1551 1071T1528 988T1507 930H1428Q1436 1023 1426 1076T1379 1129H1076L1022 735H1389L1418
697Q1408 683 1395 664T1366 624T1338 587T1314 560Q1291 589 1255 602T1180 615H1006L948 194Q946 179 951 168T976 148T1032 135T1131 130H1209Q1252 130 1284 142T1344 182T1397 251T1450 352L1523 324Z" />
<glyph unicode="&#xc7;" glyph-name="Ccedilla" horiz-adv-x="1055" d="M653 -221Q653 -256 637 -288T593 -345T526 -387T441 -409T344 -407T239 -375L237 -296Q275 -311 308 -313T365 -310T402 -290T416 -258Q416 -239 397 -226T353 -215Q385 -154 405 -103Q420
-65 430 -23Q372 -16 318 5Q239 38 181 100T90 252T56 459Q56 553 76 650T137 840T240 1016T387 1167Q423 1195 469 1218T564 1257T665 1281T763 1290Q812 1290 862 1282T957 1261T1038 1229T1096 1190Q1098 1187 1092 1170T1073 1129T1046 1076T1014 1021T984
975T961 947L891 965Q880 1000 862 1033T819 1092T760 1133T686 1149Q646 1149 614 1140T541 1100Q478 1051 437 977T371 822T337 660T327 516Q327 407 354 336T423 223T512 164T603 146Q627 146 659 151T731 171T823 213T938 286Q943 284 949 273T960 249T970
225T977 211Q909 144 842 99T711 25T591 -15Q565 -20 541 -23V-24Q539 -38 536 -51T530 -76T525 -93Q558 -94 582 -105T622 -133T645 -174T653 -221Z" />
<glyph unicode="&#xc8;" glyph-name="Egrave" horiz-adv-x="1030" d="M977 324Q968 281 956 231T933 134T911 51T895 0H-10L1 83Q66 97 99 113T135 144L268 1115Q270 1127 243 1145T151 1177L162 1260H1005L1040 1225Q1035 1199 1026 1157T1005 1071T982 988T962
930H883Q891 1023 880 1076T833 1130H530L476 735H843L872 697Q863 683 850 663T822 623T793 585T767 560Q755 575 741 585T706 602T658 612T591 615H459L402 194Q400 179 405 168T429 148T484 135T583 130H666Q709 130 741 142T800 182T851 251T904 352L977 324ZM799
1413Q785 1393 767 1369T732 1336L301 1570L318 1637Q337 1649 366 1664T426 1694T484 1721T526 1738L799 1413Z" />
<glyph unicode="&#xc9;" glyph-name="Eacute" horiz-adv-x="1030" d="M977 324Q968 281 956 231T933 134T911 51T895 0H-10L1 83Q66 97 99 113T135 144L268 1115Q270 1127 243 1145T151 1177L162 1260H1005L1040 1225Q1035 1199 1026 1157T1005 1071T982 988T962
930H883Q891 1023 880 1076T833 1130H530L476 735H843L872 697Q863 683 850 663T822 623T793 585T767 560Q755 575 741 585T706 602T658 612T591 615H459L402 194Q400 179 405 168T429 148T484 135T583 130H666Q709 130 741 142T800 182T851 251T904 352L977 324ZM995
1570L520 1336Q506 1345 491 1369T467 1413L808 1738Q830 1727 857 1713T909 1686T957 1659T995 1637V1570Z" />
<glyph unicode="&#xca;" glyph-name="Ecircumflex" horiz-adv-x="1030" d="M977 324Q968 281 956 231T933 134T911 51T895 0H-10L1 83Q66 97 99 113T135 144L268 1115Q270 1127 243 1145T151 1177L162 1260H1005L1040 1225Q1035 1199 1026 1157T1005 1071T982
988T962 930H883Q891 1023 880 1076T833 1130H530L476 735H843L872 697Q863 683 850 663T822 623T793 585T767 560Q755 575 741 585T706 602T658 612T591 615H459L402 194Q400 179 405 168T429 148T484 135T583 130H666Q709 130 741 142T800 182T851 251T904 352L977
324ZM966 1401Q952 1381 935 1363T901 1336L661 1501L380 1336Q371 1342 354 1361T327 1401L622 1712H754L966 1401Z" />
<glyph unicode="&#xcb;" glyph-name="Edieresis" horiz-adv-x="1030" d="M977 324Q968 281 956 231T933 134T911 51T895 0H-10L1 83Q66 97 99 113T135 144L268 1115Q270 1127 243 1145T151 1177L162 1260H1005L1040 1225Q1035 1199 1026 1157T1005 1071T982 988T962
930H883Q891 1023 880 1076T833 1130H530L476 735H843L872 697Q863 683 850 663T822 623T793 585T767 560Q755 575 741 585T706 602T658 612T591 615H459L402 194Q400 179 405 168T429 148T484 135T583 130H666Q709 130 741 142T800 182T851 251T904 352L977 324ZM599
1552Q599 1520 588 1486T554 1423T500 1375T428 1356Q401 1356 382 1365T351 1390T332 1425T326 1466Q326 1496 337 1531T370 1595T423 1643T495 1663Q522 1663 541 1654T573 1628T592 1593T599 1552ZM991 1552Q991 1520 980 1486T946 1423T892 1375T820 1356Q793
1356 774 1365T743 1390T724 1425T718 1466Q718 1496 729 1531T762 1595T815 1643T887 1663Q914 1663 933 1654T965 1628T984 1593T991 1552Z" />
<glyph unicode="&#xcc;" glyph-name="Igrave" horiz-adv-x="652" d="M682 1177Q617 1163 584 1146T548 1115L415 144Q413 132 439 115T532 83L521 0H10L21 83Q85 97 118 113T154 144L287 1115Q289 1127 263 1145T171 1177L182 1260H693L682 1177ZM606 1413Q592
1393 574 1369T539 1336L108 1570L125 1637Q144 1649 173 1664T233 1694T291 1721T333 1738L606 1413Z" />
<glyph unicode="&#xcd;" glyph-name="Iacute" horiz-adv-x="652" d="M682 1177Q617 1163 584 1146T548 1115L415 144Q413 132 439 115T532 83L521 0H10L21 83Q85 97 118 113T154 144L287 1115Q289 1127 263 1145T171 1177L182 1260H693L682 1177ZM802 1570L327
1336Q313 1345 298 1369T274 1413L615 1738Q637 1727 664 1713T716 1686T764 1659T802 1637V1570Z" />
<glyph unicode="&#xce;" glyph-name="Icircumflex" horiz-adv-x="652" d="M682 1177Q617 1163 584 1146T548 1115L415 144Q413 132 439 115T532 83L521 0H10L21 83Q85 97 118 113T154 144L287 1115Q289 1127 263 1145T171 1177L182 1260H693L682 1177ZM773 1401Q759
1381 742 1363T708 1336L468 1501L187 1336Q178 1342 161 1361T134 1401L429 1712H561L773 1401Z" />
<glyph unicode="&#xcf;" glyph-name="Idieresis" horiz-adv-x="652" d="M682 1177Q617 1163 584 1146T548 1115L415 144Q413 132 439 115T532 83L521 0H10L21 83Q85 97 118 113T154 144L287 1115Q289 1127 263 1145T171 1177L182 1260H693L682 1177ZM406 1552Q406
1520 395 1486T361 1423T307 1375T235 1356Q208 1356 189 1365T158 1390T139 1425T133 1466Q133 1496 144 1531T177 1595T230 1643T302 1663Q329 1663 348 1654T380 1628T399 1593T406 1552ZM798 1552Q798 1520 787 1486T753 1423T699 1375T627 1356Q600 1356 581
1365T550 1390T531 1425T525 1466Q525 1496 536 1531T569 1595T622 1643T694 1663Q721 1663 740 1654T772 1628T791 1593T798 1552Z" />
<glyph unicode="&#xd0;" glyph-name="Eth" horiz-adv-x="1238" d="M594 1176Q579 1176 564 1174T534 1171L474 725H713L742 690L686 595H456L399 169Q395 140 421 127T515 114Q582 114 639 140T744 210T826 315T886 443T922 584T935 727Q935 834 917 917T859 1058T753
1146T594 1176ZM1217 755Q1217 667 1195 577T1131 403T1028 246T890 118T720 32T521 0H-10L0 83Q63 97 96 113T131 144L193 595H82L53 627Q56 635 63 648T79 676T96 703T109 725H211L270 1148L133 1126V1229Q190 1243 255 1254T385 1273T512 1285T626 1290Q781
1290 892 1253T1076 1147T1182 978T1217 755Z" />
<glyph unicode="&#xd1;" glyph-name="Ntilde" horiz-adv-x="1273" d="M1358 1177Q1289 1167 1257 1148T1223 1115L1066 -30Q1016 -26 976 -15T906 13T856 49T824 91L394 895L291 144Q290 138 295 130T313 113T350 96T408 83L397 0H-3L8 83Q78 92 109 111T142 144L273
1102Q247 1132 218 1152T158 1177L169 1260H450Q463 1260 472 1258T489 1247T505 1224T528 1182L970 353L1075 1115Q1076 1121 1072 1129T1054 1146T1018 1163T958 1177L969 1260H1369L1358 1177ZM1187 1637Q1166 1596 1135 1545T1065 1448T984 1371T896 1340Q854
1340 818 1356T747 1391T679 1427T607 1443Q585 1443 567 1436T532 1414T497 1379T458 1330L386 1360Q408 1401 439 1453T509 1551T589 1628T677 1660Q723 1660 761 1644T833 1609T899 1573T964 1557Q1007 1557 1040 1584T1114 1670L1187 1637Z" />
<glyph unicode="&#xd2;" glyph-name="Ograve" horiz-adv-x="1191" d="M911 756Q911 840 896 913T850 1040T775 1124T672 1155Q616 1155 570 1127T487 1050T423 938T378 806T351 666T342 532Q342 439 357 361T401 228T474 141T576 110Q635 110 683 140T768 221T832
338T876 475T902 620T911 756ZM1180 774Q1180 703 1166 630T1126 486T1063 349T981 225Q939 171 885 125T771 44T644 -11T511 -31Q407 -31 326 10T187 121T100 286T70 485Q70 642 119 775T248 1018Q290 1074 342 1123T456 1210T590 1268T745 1290Q854 1290 936
1249T1072 1138T1153 973T1180 774ZM900 1413Q886 1393 868 1369T833 1336L402 1570L419 1637Q438 1649 467 1664T527 1694T585 1721T627 1738L900 1413Z" />
<glyph unicode="&#xd3;" glyph-name="Oacute" horiz-adv-x="1191" d="M911 756Q911 840 896 913T850 1040T775 1124T672 1155Q616 1155 570 1127T487 1050T423 938T378 806T351 666T342 532Q342 439 357 361T401 228T474 141T576 110Q635 110 683 140T768 221T832
338T876 475T902 620T911 756ZM1180 774Q1180 703 1166 630T1126 486T1063 349T981 225Q939 171 885 125T771 44T644 -11T511 -31Q407 -31 326 10T187 121T100 286T70 485Q70 642 119 775T248 1018Q290 1074 342 1123T456 1210T590 1268T745 1290Q854 1290 936
1249T1072 1138T1153 973T1180 774ZM1096 1570L621 1336Q607 1345 592 1369T568 1413L909 1738Q931 1727 958 1713T1010 1686T1058 1659T1096 1637V1570Z" />
<glyph unicode="&#xd4;" glyph-name="Ocircumflex" horiz-adv-x="1191" d="M911 756Q911 840 896 913T850 1040T775 1124T672 1155Q616 1155 570 1127T487 1050T423 938T378 806T351 666T342 532Q342 439 357 361T401 228T474 141T576 110Q635 110 683 140T768
221T832 338T876 475T902 620T911 756ZM1180 774Q1180 703 1166 630T1126 486T1063 349T981 225Q939 171 885 125T771 44T644 -11T511 -31Q407 -31 326 10T187 121T100 286T70 485Q70 642 119 775T248 1018Q290 1074 342 1123T456 1210T590 1268T745 1290Q854 1290
936 1249T1072 1138T1153 973T1180 774ZM1067 1401Q1053 1381 1036 1363T1002 1336L762 1501L481 1336Q472 1342 455 1361T428 1401L723 1712H855L1067 1401Z" />
<glyph unicode="&#xd5;" glyph-name="Otilde" horiz-adv-x="1191" d="M911 756Q911 840 896 913T850 1040T775 1124T672 1155Q616 1155 570 1127T487 1050T423 938T378 806T351 666T342 532Q342 439 357 361T401 228T474 141T576 110Q635 110 683 140T768 221T832
338T876 475T902 620T911 756ZM1180 774Q1180 703 1166 630T1126 486T1063 349T981 225Q939 171 885 125T771 44T644 -11T511 -31Q407 -31 326 10T187 121T100 286T70 485Q70 642 119 775T248 1018Q290 1074 342 1123T456 1210T590 1268T745 1290Q854 1290 936
1249T1072 1138T1153 973T1180 774ZM1153 1637Q1132 1596 1101 1545T1031 1448T950 1371T862 1340Q820 1340 784 1356T713 1391T645 1427T573 1443Q551 1443 533 1436T498 1414T463 1379T424 1330L352 1360Q374 1401 405 1453T475 1551T555 1628T643 1660Q689 1660
727 1644T799 1609T865 1573T930 1557Q973 1557 1006 1584T1080 1670L1153 1637Z" />
<glyph unicode="&#xd6;" glyph-name="Odieresis" horiz-adv-x="1191" d="M911 756Q911 840 896 913T850 1040T775 1124T672 1155Q616 1155 570 1127T487 1050T423 938T378 806T351 666T342 532Q342 439 357 361T401 228T474 141T576 110Q635 110 683 140T768 221T832
338T876 475T902 620T911 756ZM1180 774Q1180 703 1166 630T1126 486T1063 349T981 225Q939 171 885 125T771 44T644 -11T511 -31Q407 -31 326 10T187 121T100 286T70 485Q70 642 119 775T248 1018Q290 1074 342 1123T456 1210T590 1268T745 1290Q854 1290 936
1249T1072 1138T1153 973T1180 774ZM700 1552Q700 1520 689 1486T655 1423T601 1375T529 1356Q502 1356 483 1365T452 1390T433 1425T427 1466Q427 1496 438 1531T471 1595T524 1643T596 1663Q623 1663 642 1654T674 1628T693 1593T700 1552ZM1092 1552Q1092 1520
1081 1486T1047 1423T993 1375T921 1356Q894 1356 875 1365T844 1390T825 1425T819 1466Q819 1496 830 1531T863 1595T916 1643T988 1663Q1015 1663 1034 1654T1066 1628T1085 1593T1092 1552Z" />
<glyph unicode="&#xd7;" glyph-name="multiply" horiz-adv-x="835" d="M45 315L309 562L112 810L117 844Q126 848 143 856T178 871T214 885T242 895L422 668L663 895Q672 892 688 886T721 872T753 856T776 844L771 810L506 562L704 315L699 281Q689 277 672 270T636
254T600 239T574 230L393 456L151 230Q143 232 128 239T96 254T64 269T40 281L45 315Z" />
<glyph unicode="&#xd8;" glyph-name="Oslash" horiz-adv-x="1189" d="M911 756Q911 779 910 801T906 845L400 229Q430 172 473 141T576 110Q635 110 683 140T768 221T832 338T876 475T902 620T911 756ZM342 532Q342 496 344 463T350 399L861 1018Q831 1081 784
1118T672 1155Q616 1155 570 1127T487 1050T423 938T378 806T351 666T342 532ZM1180 774Q1180 703 1166 630T1126 486T1063 349T981 225Q939 171 885 125T771 44T644 -11T511 -31Q435 -31 371 -9T256 54L210 -2Q200 -10 176 -18T125 -34T73 -46T36 -53L10 -15L157
164Q114 231 92 312T70 485Q70 642 119 775T248 1018Q290 1074 342 1123T456 1210T590 1268T745 1290Q827 1290 893 1267T1011 1201L1063 1264Q1077 1272 1100 1280T1148 1295T1196 1306T1234 1313L1260 1275L1105 1087Q1143 1021 1161 942T1180 774Z" />
<glyph unicode="&#xd9;" glyph-name="Ugrave" horiz-adv-x="1282" d="M1340 1177Q1277 1163 1247 1146T1215 1115L1130 512Q1112 381 1063 280T942 109T781 5T592 -31Q510 -31 434 -6T300 67T206 185T171 348Q171 401 180 463L273 1115Q274 1127 248 1145T158
1177L169 1260H674L663 1177Q600 1163 567 1146T531 1115L443 510Q438 481 435 452T432 397Q432 257 490 192T673 126Q738 126 785 151T865 223T917 331T947 469L1038 1115Q1039 1121 1034 1129T1017 1145T983 1161T929 1177L940 1260H1351L1340 1177ZM945 1413Q931
1393 913 1369T878 1336L447 1570L464 1637Q483 1649 512 1664T572 1694T630 1721T672 1738L945 1413Z" />
<glyph unicode="&#xda;" glyph-name="Uacute" horiz-adv-x="1282" d="M1340 1177Q1277 1163 1247 1146T1215 1115L1130 512Q1112 381 1063 280T942 109T781 5T592 -31Q510 -31 434 -6T300 67T206 185T171 348Q171 401 180 463L273 1115Q274 1127 248 1145T158
1177L169 1260H674L663 1177Q600 1163 567 1146T531 1115L443 510Q438 481 435 452T432 397Q432 257 490 192T673 126Q738 126 785 151T865 223T917 331T947 469L1038 1115Q1039 1121 1034 1129T1017 1145T983 1161T929 1177L940 1260H1351L1340 1177ZM1141 1570L666
1336Q652 1345 637 1369T613 1413L954 1738Q976 1727 1003 1713T1055 1686T1103 1659T1141 1637V1570Z" />
<glyph unicode="&#xdb;" glyph-name="Ucircumflex" horiz-adv-x="1282" d="M1340 1177Q1277 1163 1247 1146T1215 1115L1130 512Q1112 381 1063 280T942 109T781 5T592 -31Q510 -31 434 -6T300 67T206 185T171 348Q171 401 180 463L273 1115Q274 1127 248 1145T158
1177L169 1260H674L663 1177Q600 1163 567 1146T531 1115L443 510Q438 481 435 452T432 397Q432 257 490 192T673 126Q738 126 785 151T865 223T917 331T947 469L1038 1115Q1039 1121 1034 1129T1017 1145T983 1161T929 1177L940 1260H1351L1340 1177ZM1112 1401Q1098
1381 1081 1363T1047 1336L807 1501L526 1336Q517 1342 500 1361T473 1401L768 1712H900L1112 1401Z" />
<glyph unicode="&#xdc;" glyph-name="Udieresis" horiz-adv-x="1282" d="M1340 1177Q1277 1163 1247 1146T1215 1115L1130 512Q1112 381 1063 280T942 109T781 5T592 -31Q510 -31 434 -6T300 67T206 185T171 348Q171 401 180 463L273 1115Q274 1127 248 1145T158
1177L169 1260H674L663 1177Q600 1163 567 1146T531 1115L443 510Q438 481 435 452T432 397Q432 257 490 192T673 126Q738 126 785 151T865 223T917 331T947 469L1038 1115Q1039 1121 1034 1129T1017 1145T983 1161T929 1177L940 1260H1351L1340 1177ZM745 1552Q745
1520 734 1486T700 1423T646 1375T574 1356Q547 1356 528 1365T497 1390T478 1425T472 1466Q472 1496 483 1531T516 1595T569 1643T641 1663Q668 1663 687 1654T719 1628T738 1593T745 1552ZM1137 1552Q1137 1520 1126 1486T1092 1423T1038 1375T966 1356Q939 1356
920 1365T889 1390T870 1425T864 1466Q864 1496 875 1531T908 1595T961 1643T1033 1663Q1060 1663 1079 1654T1111 1628T1130 1593T1137 1552Z" />
<glyph unicode="&#xdd;" glyph-name="Yacute" horiz-adv-x="1178" d="M825 0H276L287 83Q330 92 359 102T405 121T431 139T440 155L491 528Q468 607 439 691T378 852T315 997T259 1111Q253 1122 245 1130T223 1144T185 1153T122 1156L129 1239Q157 1243 194 1248T269
1258T340 1266T392 1270Q420 1270 447 1257T487 1221Q514 1171 543 1107T600 972T654 826T702 678L969 1111Q985 1137 965 1152T874 1177L885 1260H1281L1270 1177Q1205 1164 1174 1150T1126 1111L750 516L701 155Q700 149 705 141T725 122T767 102T836 83L825
0ZM1092 1570L617 1336Q603 1345 588 1369T564 1413L905 1738Q927 1727 954 1713T1006 1686T1054 1659T1092 1637V1570Z" />
<glyph unicode="&#xde;" glyph-name="Thorn" horiz-adv-x="1101" d="M692 1177Q645 1168 614 1160T563 1145T536 1130T526 1115L513 1019Q577 1030 653 1030Q752 1030 831 1005T967 935T1053 828T1084 690Q1084 603 1050 524T953 385T802 290T608 254Q566 254
531 262T467 287L456 401Q492 382 526 377T592 372Q637 372 677 391T747 446T795 534T813 651Q813 720 795 769T747 849T676 894T592 908Q568 908 544 905T496 897L395 144Q393 138 399 131T422 116T468 100T542 83L532 0H-10L0 83Q63 97 95 113T130 144L263 1115Q265
1127 239 1145T150 1177L161 1260H703L692 1177Z" />
<glyph unicode="&#xdf;" glyph-name="germandbls" horiz-adv-x="1163" d="M1120 1225Q1120 1144 1097 1088T1039 992T963 922T888 865T830 806T806 731Q806 695 829 666T888 609T965 553T1041 489T1100 411T1124 311Q1124 270 1108 228T1062 147T993 74T904 14T803
-26T693 -41Q651 -41 605 -25T521 14T457 65T432 114Q432 121 439 139T456 180T480 228T507 275T533 309T552 323Q558 323 567 307T589 265T617 210T652 156T693 114T741 97Q762 97 784 102T825 123T856 164T868 233Q868 289 845 328T787 398T712 455T636 510T578
577T555 668Q555 729 577 771T634 845T707 906T780 968T836 1045T859 1153Q859 1198 843 1237T803 1305T749 1350T694 1367Q631 1367 586 1334T510 1243T461 1111T434 952L346 193Q333 82 286 -20T172 -211T29 -370T-123 -485L-170 -392Q-120 -364 -79 -309T-8
-181T43 -26T72 139L160 899Q170 981 196 1056T263 1198T357 1322T473 1425Q531 1467 609 1492T770 1518Q853 1518 918 1492T1028 1424T1096 1330T1120 1225Z" />
<glyph unicode="&#xe0;" glyph-name="agrave" horiz-adv-x="1007" d="M577 360Q582 401 589 449T603 545T618 637T632 715Q604 742 575 762T520 781Q479 780 446 761T388 711T344 638T313 553T296 463T290 379Q290 326 297 288T316 224T342 188T372 176Q385 176
404 185T448 215T506 272T577 360ZM1006 118Q964 88 921 59T838 8T768 -27T718 -41Q702 -41 680 -31T636 5T596 71T570 176Q537 132 501 93T426 24T347 -23T266 -41Q229 -41 188 -22T113 38T56 145T33 305Q33 384 53 459T112 604T205 733T332 842Q386 879 463 907T632
936Q674 936 715 918T793 876Q831 893 867 907T932 936L967 861Q950 847 939 836T919 811T905 775T891 720Q876 648 865 584T846 465T834 371T830 309Q830 282 834 257T845 211T862 178T884 166Q904 166 926 171T989 194L1006 118ZM712 1057Q692 1045 665 1033T620
1016L320 1372L362 1428Q374 1430 407 1437T477 1451T547 1463T593 1469L712 1057Z" />
<glyph unicode="&#xe1;" glyph-name="aacute" horiz-adv-x="1007" d="M577 360Q582 401 589 449T603 545T618 637T632 715Q604 742 575 762T520 781Q479 780 446 761T388 711T344 638T313 553T296 463T290 379Q290 326 297 288T316 224T342 188T372 176Q385 176
404 185T448 215T506 272T577 360ZM1006 118Q964 88 921 59T838 8T768 -27T718 -41Q702 -41 680 -31T636 5T596 71T570 176Q537 132 501 93T426 24T347 -23T266 -41Q229 -41 188 -22T113 38T56 145T33 305Q33 384 53 459T112 604T205 733T332 842Q386 879 463 907T632
936Q674 936 715 918T793 876Q831 893 867 907T932 936L967 861Q950 847 939 836T919 811T905 775T891 720Q876 648 865 584T846 465T834 371T830 309Q830 282 834 257T845 211T862 178T884 166Q904 166 926 171T989 194L1006 118ZM977 1364L592 1016Q584 1018
574 1023T554 1036T534 1053T517 1071L739 1469Q751 1468 782 1463T847 1451T912 1438T952 1429L977 1364Z" />
<glyph unicode="&#xe2;" glyph-name="acircumflex" horiz-adv-x="1007" d="M577 360Q582 401 589 449T603 545T618 637T632 715Q604 742 575 762T520 781Q479 780 446 761T388 711T344 638T313 553T296 463T290 379Q290 326 297 288T316 224T342 188T372 176Q385
176 404 185T448 215T506 272T577 360ZM1006 118Q964 88 921 59T838 8T768 -27T718 -41Q702 -41 680 -31T636 5T596 71T570 176Q537 132 501 93T426 24T347 -23T266 -41Q229 -41 188 -22T113 38T56 145T33 305Q33 384 53 459T112 604T205 733T332 842Q386 879 463
907T632 936Q674 936 715 918T793 876Q831 893 867 907T932 936L967 861Q950 847 939 836T919 811T905 775T891 720Q876 648 865 584T846 465T834 371T830 309Q830 282 834 257T845 211T862 178T884 166Q904 166 926 171T989 194L1006 118ZM943 1081Q929 1061 906
1043T867 1016L638 1231L346 1016Q341 1019 333 1025T316 1041T298 1060T284 1081L588 1462H740L943 1081Z" />
<glyph unicode="&#xe3;" glyph-name="atilde" horiz-adv-x="1007" d="M577 360Q582 401 589 449T603 545T618 637T632 715Q604 742 575 762T520 781Q479 780 446 761T388 711T344 638T313 553T296 463T290 379Q290 326 297 288T316 224T342 188T372 176Q385 176
404 185T448 215T506 272T577 360ZM1006 118Q964 88 921 59T838 8T768 -27T718 -41Q702 -41 680 -31T636 5T596 71T570 176Q537 132 501 93T426 24T347 -23T266 -41Q229 -41 188 -22T113 38T56 145T33 305Q33 384 53 459T112 604T205 733T332 842Q386 879 463 907T632
936Q674 936 715 918T793 876Q831 893 867 907T932 936L967 861Q950 847 939 836T919 811T905 775T891 720Q876 648 865 584T846 465T834 371T830 309Q830 282 834 257T845 211T862 178T884 166Q904 166 926 171T989 194L1006 118ZM1016 1347Q995 1306 964 1255T894
1158T813 1081T725 1050Q683 1050 647 1066T576 1101T508 1137T436 1153Q414 1153 396 1146T361 1124T326 1089T287 1040L215 1070Q237 1111 268 1163T338 1261T418 1338T506 1370Q552 1370 590 1354T662 1319T728 1283T793 1267Q836 1267 869 1294T943 1380L1016
1347Z" />
<glyph unicode="&#xe4;" glyph-name="adieresis" horiz-adv-x="1007" d="M577 360Q582 401 589 449T603 545T618 637T632 715Q604 742 575 762T520 781Q479 780 446 761T388 711T344 638T313 553T296 463T290 379Q290 326 297 288T316 224T342 188T372 176Q385
176 404 185T448 215T506 272T577 360ZM1006 118Q964 88 921 59T838 8T768 -27T718 -41Q702 -41 680 -31T636 5T596 71T570 176Q537 132 501 93T426 24T347 -23T266 -41Q229 -41 188 -22T113 38T56 145T33 305Q33 384 53 459T112 604T205 733T332 842Q386 879 463
907T632 936Q674 936 715 918T793 876Q831 893 867 907T932 936L967 861Q950 847 939 836T919 811T905 775T891 720Q876 648 865 584T846 465T834 371T830 309Q830 282 834 257T845 211T862 178T884 166Q904 166 926 171T989 194L1006 118ZM573 1272Q573 1240 562
1206T528 1143T474 1095T402 1076Q375 1076 356 1085T325 1110T306 1145T300 1186Q300 1216 311 1251T344 1315T397 1363T469 1383Q496 1383 515 1374T547 1348T566 1313T573 1272ZM965 1272Q965 1240 954 1206T920 1143T866 1095T794 1076Q767 1076 748 1085T717
1110T698 1145T692 1186Q692 1216 703 1251T736 1315T789 1363T861 1383Q888 1383 907 1374T939 1348T958 1313T965 1272Z" />
<glyph unicode="&#xe5;" glyph-name="aring" horiz-adv-x="1007" d="M577 360Q582 401 589 449T603 545T618 637T632 715Q604 742 575 762T520 781Q479 780 446 761T388 711T344 638T313 553T296 463T290 379Q290 326 297 288T316 224T342 188T372 176Q385 176
404 185T448 215T506 272T577 360ZM1006 118Q964 88 921 59T838 8T768 -27T718 -41Q702 -41 680 -31T636 5T596 71T570 176Q537 132 501 93T426 24T347 -23T266 -41Q229 -41 188 -22T113 38T56 145T33 305Q33 384 53 459T112 604T205 733T332 842Q386 879 463 907T632
936Q674 936 715 918T793 876Q831 893 867 907T932 936L967 861Q950 847 939 836T919 811T905 775T891 720Q876 648 865 584T846 465T834 371T830 309Q830 282 834 257T845 211T862 178T884 166Q904 166 926 171T989 194L1006 118ZM684 1271Q684 1299 671 1315T638
1331Q621 1331 607 1323T583 1299T566 1264T560 1220Q560 1191 574 1174T609 1158Q623 1158 636 1167T660 1191T677 1226T684 1271ZM833 1308Q833 1263 813 1213T758 1121T674 1052T570 1024Q532 1024 505 1037T458 1072T430 1121T421 1177Q421 1225 440 1276T494
1370T575 1440T676 1467Q713 1467 742 1454T792 1419T822 1368T833 1308Z" />
<glyph unicode="&#xe6;" glyph-name="ae" horiz-adv-x="1325" d="M886 722Q835 662 813 596T786 444Q876 484 930 518T1013 585T1051 648T1060 715Q1060 748 1040 769T993 791Q973 791 943 772T886 722ZM553 401Q558 437 564 478T577 559T589 638T600 705Q570
734 539 757T479 781Q438 781 405 762T345 712T299 639T266 554T247 464T240 379Q240 322 249 283T271 221T301 187T331 176Q356 176 410 216T546 359Q547 361 547 366L553 401ZM872 891Q860 880 850 873T831 857T816 840T802 815L840 846Q864 864 896 880T964
909T1035 929T1102 936Q1156 936 1198 921T1270 880T1315 824T1330 760Q1330 731 1324 700T1299 634T1243 562T1147 485T999 402T789 314Q795 265 810 230T845 171T886 137T927 126Q970 126 1052 170T1257 311Q1262 308 1269 297T1284 272T1298 246T1307 230Q1224
159 1154 108T1024 23T916 -25T825 -41Q794 -41 754 -28T675 13T604 87T556 198Q517 144 475 100T390 25T305 -24T222 -41Q188 -41 148 -22T74 38T16 145T-7 305Q-7 384 13 459T71 604T165 733T293 842Q347 879 423 907T592 936Q631 936 662 924T720 894Q740 905
765 915T822 936L872 891Z" />
<glyph unicode="&#xe7;" glyph-name="ccedilla" horiz-adv-x="899" d="M585 -221Q585 -256 569 -288T525 -345T458 -387T373 -409T276 -407T171 -375L169 -296Q207 -311 240 -313T297 -310T334 -290T348 -258Q348 -239 329 -226T285 -215Q317 -154 337 -103Q349
-73 358 -41Q318 -38 274 -24Q223 -7 179 35T106 147T77 322Q77 389 91 457T136 590T218 714T343 822Q371 840 409 860T490 897T581 925T674 936Q718 936 753 923T818 891T877 854T937 825Q916 802 885 772T821 715T759 670T713 651Q695 651 678 671T643 716T602
760T551 781Q501 781 463 748T398 660T357 537T343 398Q343 268 378 197T469 126Q529 126 605 169T790 301Q794 296 802 284T819 259T835 235T845 220Q767 149 701 99T577 18Q522 -12 473 -26Q471 -39 468 -51Q465 -65 462 -76T457 -93Q490 -94 514 -105T554 -133T577
-174T585 -221Z" />
<glyph unicode="&#xe8;" glyph-name="egrave" horiz-adv-x="885" d="M850 760Q850 733 844 702T818 636T762 563T666 485T519 403T311 318Q325 227 362 177T447 126Q490 126 572 170T776 311Q782 308 790 297T805 272T819 246L827 230Q745 159 677 108T551 23T443
-25T345 -41Q301 -41 248 -23T150 36T74 142T43 303Q43 381 62 451T116 585T200 706T312 816Q334 835 368 856T442 895T526 924T612 936Q673 936 718 921T792 880T836 824T850 760ZM401 722Q379 693 363 664T334 601T315 530T306 446Q394 488 446 521T526 585T562
644T570 705Q570 746 552 768T508 791Q500 791 487 786T459 772T429 751T401 722ZM670 1057Q650 1045 623 1033T578 1016L278 1372L320 1428Q332 1430 365 1437T435 1451T505 1463T551 1469L670 1057Z" />
<glyph unicode="&#xe9;" glyph-name="eacute" horiz-adv-x="885" d="M850 760Q850 733 844 702T818 636T762 563T666 485T519 403T311 318Q325 227 362 177T447 126Q490 126 572 170T776 311Q782 308 790 297T805 272T819 246L827 230Q745 159 677 108T551 23T443
-25T345 -41Q301 -41 248 -23T150 36T74 142T43 303Q43 381 62 451T116 585T200 706T312 816Q334 835 368 856T442 895T526 924T612 936Q673 936 718 921T792 880T836 824T850 760ZM401 722Q379 693 363 664T334 601T315 530T306 446Q394 488 446 521T526 585T562
644T570 705Q570 746 552 768T508 791Q500 791 487 786T459 772T429 751T401 722ZM935 1364L550 1016Q542 1018 532 1023T512 1036T492 1053T475 1071L697 1469Q709 1468 740 1463T805 1451T870 1438T910 1429L935 1364Z" />
<glyph unicode="&#xea;" glyph-name="ecircumflex" horiz-adv-x="885" d="M850 760Q850 733 844 702T818 636T762 563T666 485T519 403T311 318Q325 227 362 177T447 126Q490 126 572 170T776 311Q782 308 790 297T805 272T819 246L827 230Q745 159 677 108T551
23T443 -25T345 -41Q301 -41 248 -23T150 36T74 142T43 303Q43 381 62 451T116 585T200 706T312 816Q334 835 368 856T442 895T526 924T612 936Q673 936 718 921T792 880T836 824T850 760ZM401 722Q379 693 363 664T334 601T315 530T306 446Q394 488 446 521T526
585T562 644T570 705Q570 746 552 768T508 791Q500 791 487 786T459 772T429 751T401 722ZM901 1081Q887 1061 864 1043T825 1016L596 1231L304 1016Q299 1019 291 1025T274 1041T256 1060T242 1081L546 1462H698L901 1081Z" />
<glyph unicode="&#xeb;" glyph-name="edieresis" horiz-adv-x="885" d="M850 760Q850 733 844 702T818 636T762 563T666 485T519 403T311 318Q325 227 362 177T447 126Q490 126 572 170T776 311Q782 308 790 297T805 272T819 246L827 230Q745 159 677 108T551
23T443 -25T345 -41Q301 -41 248 -23T150 36T74 142T43 303Q43 381 62 451T116 585T200 706T312 816Q334 835 368 856T442 895T526 924T612 936Q673 936 718 921T792 880T836 824T850 760ZM401 722Q379 693 363 664T334 601T315 530T306 446Q394 488 446 521T526
585T562 644T570 705Q570 746 552 768T508 791Q500 791 487 786T459 772T429 751T401 722ZM531 1272Q531 1240 520 1206T486 1143T432 1095T360 1076Q333 1076 314 1085T283 1110T264 1145T258 1186Q258 1216 269 1251T302 1315T355 1363T427 1383Q454 1383 473
1374T505 1348T524 1313T531 1272ZM923 1272Q923 1240 912 1206T878 1143T824 1095T752 1076Q725 1076 706 1085T675 1110T656 1145T650 1186Q650 1216 661 1251T694 1315T747 1363T819 1383Q846 1383 865 1374T897 1348T916 1313T923 1272Z" />
<glyph unicode="&#xec;" glyph-name="igrave" horiz-adv-x="589" d="M565 122Q518 94 466 65T363 13T268 -26T194 -41Q160 -41 135 -10T110 76Q110 106 116 155T133 264T155 386T177 506T193 609T200 680Q200 703 197 716T189 736T176 745T159 747Q151 747 136
744T106 735Q88 730 69 723L50 800Q92 819 148 842T260 887T362 922T429 936Q457 936 473 917T490 852Q490 823 483 773T466 664T443 539T421 414T403 304T396 225Q396 194 402 180T426 166Q441 166 454 168T480 174T509 184T545 199L565 122ZM519 1057Q499 1045
472 1033T427 1016L127 1372L169 1428Q181 1430 214 1437T284 1451T354 1463T400 1469L519 1057Z" />
<glyph unicode="&#xed;" glyph-name="iacute" horiz-adv-x="589" d="M565 122Q518 94 466 65T363 13T268 -26T194 -41Q160 -41 135 -10T110 76Q110 106 116 155T133 264T155 386T177 506T193 609T200 680Q200 703 197 716T189 736T176 745T159 747Q151 747 136
744T106 735Q88 730 69 723L50 800Q92 819 148 842T260 887T362 922T429 936Q457 936 473 917T490 852Q490 823 483 773T466 664T443 539T421 414T403 304T396 225Q396 194 402 180T426 166Q441 166 454 168T480 174T509 184T545 199L565 122ZM784 1364L399 1016Q391
1018 381 1023T361 1036T341 1053T324 1071L546 1469Q558 1468 589 1463T654 1451T719 1438T759 1429L784 1364Z" />
<glyph unicode="&#xee;" glyph-name="icircumflex" horiz-adv-x="589" d="M565 122Q518 94 466 65T363 13T268 -26T194 -41Q160 -41 135 -10T110 76Q110 106 116 155T133 264T155 386T177 506T193 609T200 680Q200 703 197 716T189 736T176 745T159 747Q151 747
136 744T106 735Q88 730 69 723L50 800Q92 819 148 842T260 887T362 922T429 936Q457 936 473 917T490 852Q490 823 483 773T466 664T443 539T421 414T403 304T396 225Q396 194 402 180T426 166Q441 166 454 168T480 174T509 184T545 199L565 122ZM750 1081Q736
1061 713 1043T674 1016L445 1231L153 1016Q148 1019 140 1025T123 1041T105 1060T91 1081L395 1462H547L750 1081Z" />
<glyph unicode="&#xef;" glyph-name="idieresis" horiz-adv-x="589" d="M565 122Q518 94 466 65T363 13T268 -26T194 -41Q160 -41 135 -10T110 76Q110 106 116 155T133 264T155 386T177 506T193 609T200 680Q200 703 197 716T189 736T176 745T159 747Q151 747
136 744T106 735Q88 730 69 723L50 800Q92 819 148 842T260 887T362 922T429 936Q457 936 473 917T490 852Q490 823 483 773T466 664T443 539T421 414T403 304T396 225Q396 194 402 180T426 166Q441 166 454 168T480 174T509 184T545 199L565 122ZM380 1272Q380
1240 369 1206T335 1143T281 1095T209 1076Q182 1076 163 1085T132 1110T113 1145T107 1186Q107 1216 118 1251T151 1315T204 1363T276 1383Q303 1383 322 1374T354 1348T373 1313T380 1272ZM772 1272Q772 1240 761 1206T727 1143T673 1095T601 1076Q574 1076 555
1085T524 1110T505 1145T499 1186Q499 1216 510 1251T543 1315T596 1363T668 1383Q695 1383 714 1374T746 1348T765 1313T772 1272Z" />
<glyph unicode="&#xf0;" glyph-name="eth" horiz-adv-x="985" d="M455 98Q493 98 523 117T578 168T621 244T652 334T673 432T686 529Q680 588 659 637T609 721T547 775T483 795Q427 795 391 759T333 666T302 540T293 407Q293 339 307 282T345 184T397 121T455
98ZM924 707Q924 601 904 505T848 326T762 175T650 59T518 -15T372 -41Q286 -41 223 -12T117 67T54 186T33 334Q33 462 71 572T176 763T332 890T524 936Q566 936 601 915T665 860Q650 923 626 977T569 1077L358 980Q326 983 292 991T231 1010L226 1055L472 1168Q424
1199 371 1203T243 1196V1287L541 1409Q589 1377 629 1344T705 1275L904 1367Q945 1361 977 1353T1031 1335L1033 1290L787 1177Q828 1119 854 1060T896 941T918 822T924 707Z" />
<glyph unicode="&#xf1;" glyph-name="ntilde" horiz-adv-x="1103" d="M1084 122Q1039 95 986 66T881 14T785 -25T713 -41Q678 -41 654 -10T629 76Q629 94 635 135T650 229T669 341T688 454T703 553T709 620Q709 674 701 695T663 716Q650 716 629 710T583 689T531
648T477 580Q447 532 431 465T397 301Q389 256 384 224T377 166T374 119T374 75Q365 70 346 61T301 41T247 17T194 -7T149 -27T121 -41L78 0Q99 100 117 205T150 405T173 573T182 682Q182 705 180 718T172 738T160 747T144 749Q135 749 119 745T87 736Q69 730 47
723L27 802Q55 814 91 829T167 858T245 887T317 912T375 929T411 936Q425 936 434 932T449 915T457 881T460 823Q460 802 459 783T455 738Q564 838 669 887T864 936Q895 936 920 930T962 908T989 861T998 782Q998 747 992 700T977 601T956 493T936 388T920 296T914
225Q914 191 923 179T950 166Q962 166 972 168T993 174T1018 184T1054 199L1084 122ZM1053 1347Q1032 1306 1001 1255T931 1158T850 1081T762 1050Q720 1050 684 1066T613 1101T545 1137T473 1153Q451 1153 433 1146T398 1124T363 1089T324 1040L252 1070Q274 1111
305 1163T375 1261T455 1338T543 1370Q589 1370 627 1354T699 1319T765 1283T830 1267Q873 1267 906 1294T980 1380L1053 1347Z" />
<glyph unicode="&#xf2;" glyph-name="ograve" horiz-adv-x="924" d="M628 473Q628 549 616 608T583 707T538 768T488 789Q434 789 398 757T339 672T307 556T297 428Q297 361 310 302T345 199T394 128T449 102Q499 102 533 137T589 226T619 345T628 473ZM891 559Q891
492 873 424T823 291T744 168T642 63Q616 42 583 23T515 -10T446 -33T381 -41Q300 -41 236 -12T126 69T57 191T33 344Q33 487 93 612T287 840Q313 860 345 877T413 908T485 928T557 936Q635 936 697 908T802 830T868 711T891 559ZM655 1057Q635 1045 608 1033T563
1016L263 1372L305 1428Q317 1430 350 1437T420 1451T490 1463T536 1469L655 1057Z" />
<glyph unicode="&#xf3;" glyph-name="oacute" horiz-adv-x="924" d="M628 473Q628 549 616 608T583 707T538 768T488 789Q434 789 398 757T339 672T307 556T297 428Q297 361 310 302T345 199T394 128T449 102Q499 102 533 137T589 226T619 345T628 473ZM891 559Q891
492 873 424T823 291T744 168T642 63Q616 42 583 23T515 -10T446 -33T381 -41Q300 -41 236 -12T126 69T57 191T33 344Q33 487 93 612T287 840Q313 860 345 877T413 908T485 928T557 936Q635 936 697 908T802 830T868 711T891 559ZM920 1364L535 1016Q527 1018 517
1023T497 1036T477 1053T460 1071L682 1469Q694 1468 725 1463T790 1451T855 1438T895 1429L920 1364Z" />
<glyph unicode="&#xf4;" glyph-name="ocircumflex" horiz-adv-x="924" d="M628 473Q628 549 616 608T583 707T538 768T488 789Q434 789 398 757T339 672T307 556T297 428Q297 361 310 302T345 199T394 128T449 102Q499 102 533 137T589 226T619 345T628 473ZM891
559Q891 492 873 424T823 291T744 168T642 63Q616 42 583 23T515 -10T446 -33T381 -41Q300 -41 236 -12T126 69T57 191T33 344Q33 487 93 612T287 840Q313 860 345 877T413 908T485 928T557 936Q635 936 697 908T802 830T868 711T891 559ZM886 1081Q872 1061 849
1043T810 1016L581 1231L289 1016Q284 1019 276 1025T259 1041T241 1060T227 1081L531 1462H683L886 1081Z" />
<glyph unicode="&#xf5;" glyph-name="otilde" horiz-adv-x="924" d="M628 473Q628 549 616 608T583 707T538 768T488 789Q434 789 398 757T339 672T307 556T297 428Q297 361 310 302T345 199T394 128T449 102Q499 102 533 137T589 226T619 345T628 473ZM891 559Q891
492 873 424T823 291T744 168T642 63Q616 42 583 23T515 -10T446 -33T381 -41Q300 -41 236 -12T126 69T57 191T33 344Q33 487 93 612T287 840Q313 860 345 877T413 908T485 928T557 936Q635 936 697 908T802 830T868 711T891 559ZM959 1347Q938 1306 907 1255T837
1158T756 1081T668 1050Q626 1050 590 1066T519 1101T451 1137T379 1153Q357 1153 339 1146T304 1124T269 1089T230 1040L158 1070Q180 1111 211 1163T281 1261T361 1338T449 1370Q495 1370 533 1354T605 1319T671 1283T736 1267Q779 1267 812 1294T886 1380L959
1347Z" />
<glyph unicode="&#xf6;" glyph-name="odieresis" horiz-adv-x="924" d="M628 473Q628 549 616 608T583 707T538 768T488 789Q434 789 398 757T339 672T307 556T297 428Q297 361 310 302T345 199T394 128T449 102Q499 102 533 137T589 226T619 345T628 473ZM891
559Q891 492 873 424T823 291T744 168T642 63Q616 42 583 23T515 -10T446 -33T381 -41Q300 -41 236 -12T126 69T57 191T33 344Q33 487 93 612T287 840Q313 860 345 877T413 908T485 928T557 936Q635 936 697 908T802 830T868 711T891 559ZM516 1272Q516 1240 505
1206T471 1143T417 1095T345 1076Q318 1076 299 1085T268 1110T249 1145T243 1186Q243 1216 254 1251T287 1315T340 1363T412 1383Q439 1383 458 1374T490 1348T509 1313T516 1272ZM908 1272Q908 1240 897 1206T863 1143T809 1095T737 1076Q710 1076 691 1085T660
1110T641 1145T635 1186Q635 1216 646 1251T679 1315T732 1363T804 1383Q831 1383 850 1374T882 1348T901 1313T908 1272Z" />
<glyph unicode="&#xf7;" glyph-name="divide" horiz-adv-x="835" d="M780 606Q776 595 768 578T749 543T730 509T717 485H76L50 519Q54 530 62 546T79 580T98 614T112 640H752L780 606ZM484 319Q480 288 467 260T436 211T394 178T347 166Q302 166 286 194T277
274Q281 305 294 333T326 381T367 413T414 425Q499 425 484 319ZM557 853Q553 822 540 794T509 745T467 712T420 700Q375 700 359 728T350 808Q354 839 367 867T399 915T440 947T487 959Q572 959 557 853Z" />
<glyph unicode="&#xf8;" glyph-name="oslash" horiz-adv-x="924" d="M297 428Q297 411 298 394T301 361L584 704Q564 746 539 767T488 789Q434 789 398 757T339 672T307 556T297 428ZM628 473Q628 507 625 539L344 200Q366 155 393 129T449 102Q499 102 533 137T589
226T619 345T628 473ZM891 559Q891 492 873 424T823 291T744 168T642 63Q616 42 583 23T515 -10T446 -33T381 -41Q324 -41 277 -27T189 13L177 -2Q168 -7 146 -15T99 -33T51 -50T16 -61L-14 -21L95 111Q65 159 49 218T33 344Q33 487 93 612T287 840Q313 860 345
877T413 908T485 928T557 936Q609 936 653 924T735 888L745 899Q757 904 778 912T824 930T870 946T904 958L937 916L832 789Q861 742 876 684T891 559Z" />
<glyph unicode="&#xf9;" glyph-name="ugrave" horiz-adv-x="1127" d="M1100 118Q1060 91 1018 63T935 12T860 -26T798 -41Q775 -41 752 -27T708 15T673 85T652 182Q614 134 570 93T478 23T383 -24T293 -41Q262 -41 229 -26T169 21T124 98T106 205Q106 235 110
275T122 359T138 450T153 540T165 619T170 680Q170 703 167 716T159 736T146 745T129 747Q120 747 105 744T74 735Q56 730 36 723L19 800Q47 813 83 828T159 858T237 887T310 912T370 929T410 936Q439 936 449 917T459 852Q459 823 453 777T438 676T419 562T400
449T385 348T379 272Q379 229 394 205T424 180Q456 180 517 229T662 390Q668 430 675 472T689 552T699 624T704 680Q704 703 702 716T694 736T683 745T667 747Q658 747 644 744T616 735Q600 730 583 723L563 800Q591 813 626 828T700 858T777 887T848 912T907 929T946
936Q974 936 983 917T992 852Q992 823 987 782T974 692L957 593Q949 542 941 493T928 401T923 324Q923 279 926 249T937 200T954 174T976 166Q1002 166 1023 172T1081 194L1100 118ZM753 1057Q733 1045 706 1033T661 1016L361 1372L403 1428Q415 1430 448 1437T518
1451T588 1463T634 1469L753 1057Z" />
<glyph unicode="&#xfa;" glyph-name="uacute" horiz-adv-x="1127" d="M1100 118Q1060 91 1018 63T935 12T860 -26T798 -41Q775 -41 752 -27T708 15T673 85T652 182Q614 134 570 93T478 23T383 -24T293 -41Q262 -41 229 -26T169 21T124 98T106 205Q106 235 110
275T122 359T138 450T153 540T165 619T170 680Q170 703 167 716T159 736T146 745T129 747Q120 747 105 744T74 735Q56 730 36 723L19 800Q47 813 83 828T159 858T237 887T310 912T370 929T410 936Q439 936 449 917T459 852Q459 823 453 777T438 676T419 562T400
449T385 348T379 272Q379 229 394 205T424 180Q456 180 517 229T662 390Q668 430 675 472T689 552T699 624T704 680Q704 703 702 716T694 736T683 745T667 747Q658 747 644 744T616 735Q600 730 583 723L563 800Q591 813 626 828T700 858T777 887T848 912T907 929T946
936Q974 936 983 917T992 852Q992 823 987 782T974 692L957 593Q949 542 941 493T928 401T923 324Q923 279 926 249T937 200T954 174T976 166Q1002 166 1023 172T1081 194L1100 118ZM1018 1364L633 1016Q625 1018 615 1023T595 1036T575 1053T558 1071L780 1469Q792
1468 823 1463T888 1451T953 1438T993 1429L1018 1364Z" />
<glyph unicode="&#xfb;" glyph-name="ucircumflex" horiz-adv-x="1127" d="M1100 118Q1060 91 1018 63T935 12T860 -26T798 -41Q775 -41 752 -27T708 15T673 85T652 182Q614 134 570 93T478 23T383 -24T293 -41Q262 -41 229 -26T169 21T124 98T106 205Q106 235
110 275T122 359T138 450T153 540T165 619T170 680Q170 703 167 716T159 736T146 745T129 747Q120 747 105 744T74 735Q56 730 36 723L19 800Q47 813 83 828T159 858T237 887T310 912T370 929T410 936Q439 936 449 917T459 852Q459 823 453 777T438 676T419 562T400
449T385 348T379 272Q379 229 394 205T424 180Q456 180 517 229T662 390Q668 430 675 472T689 552T699 624T704 680Q704 703 702 716T694 736T683 745T667 747Q658 747 644 744T616 735Q600 730 583 723L563 800Q591 813 626 828T700 858T777 887T848 912T907 929T946
936Q974 936 983 917T992 852Q992 823 987 782T974 692L957 593Q949 542 941 493T928 401T923 324Q923 279 926 249T937 200T954 174T976 166Q1002 166 1023 172T1081 194L1100 118ZM984 1081Q970 1061 947 1043T908 1016L679 1231L387 1016Q382 1019 374 1025T357
1041T339 1060T325 1081L629 1462H781L984 1081Z" />
<glyph unicode="&#xfc;" glyph-name="udieresis" horiz-adv-x="1127" d="M1100 118Q1060 91 1018 63T935 12T860 -26T798 -41Q775 -41 752 -27T708 15T673 85T652 182Q614 134 570 93T478 23T383 -24T293 -41Q262 -41 229 -26T169 21T124 98T106 205Q106 235 110
275T122 359T138 450T153 540T165 619T170 680Q170 703 167 716T159 736T146 745T129 747Q120 747 105 744T74 735Q56 730 36 723L19 800Q47 813 83 828T159 858T237 887T310 912T370 929T410 936Q439 936 449 917T459 852Q459 823 453 777T438 676T419 562T400
449T385 348T379 272Q379 229 394 205T424 180Q456 180 517 229T662 390Q668 430 675 472T689 552T699 624T704 680Q704 703 702 716T694 736T683 745T667 747Q658 747 644 744T616 735Q600 730 583 723L563 800Q591 813 626 828T700 858T777 887T848 912T907 929T946
936Q974 936 983 917T992 852Q992 823 987 782T974 692L957 593Q949 542 941 493T928 401T923 324Q923 279 926 249T937 200T954 174T976 166Q1002 166 1023 172T1081 194L1100 118ZM614 1272Q614 1240 603 1206T569 1143T515 1095T443 1076Q416 1076 397 1085T366
1110T347 1145T341 1186Q341 1216 352 1251T385 1315T438 1363T510 1383Q537 1383 556 1374T588 1348T607 1313T614 1272ZM1006 1272Q1006 1240 995 1206T961 1143T907 1095T835 1076Q808 1076 789 1085T758 1110T739 1145T733 1186Q733 1216 744 1251T777 1315T830
1363T902 1383Q929 1383 948 1374T980 1348T999 1313T1006 1272Z" />
<glyph unicode="&#xfd;" glyph-name="yacute" horiz-adv-x="996" d="M983 860Q983 826 954 750T876 569T762 339T625 82Q555 -47 488 -154T349 -338T201 -457T34 -500Q-7 -500 -49 -489T-125 -462T-180 -429T-201 -399Q-201 -384 -182 -352T-138 -287T-87 -226T-47
-191Q-23 -215 3 -234T54 -267T104 -287T146 -294Q195 -294 249 -242T367 -90Q356 -31 341 39T307 184T269 331T230 468T193 583T161 665Q138 716 122 731T89 747Q80 747 64 744T31 735Q12 730 -9 723L-31 800Q15 823 66 847T164 891T248 923T306 936Q334 936 356
907T402 809Q419 761 438 698T477 563T516 411T553 252Q591 329 624 401T681 535T719 642T733 711Q733 761 680 764Q663 766 646 760T599 741L571 818Q607 839 651 860T739 898T823 925T891 936Q908 936 924 934T954 923T975 900T983 860ZM985 1364L600 1016Q592
1018 582 1023T562 1036T542 1053T525 1071L747 1469Q759 1468 790 1463T855 1451T920 1438T960 1429L985 1364Z" />
<glyph unicode="&#xfe;" glyph-name="thorn" horiz-adv-x="1050" d="M635 745Q620 745 597 734T544 697T481 633T413 537Q402 475 392 410T369 275Q385 256 409 238T461 207T515 185T563 176Q576 176 592 180T625 193T656 219T681 259Q707 322 715 391T724 522Q724
581 715 623T692 692T663 732T635 745ZM537 1427Q537 1408 532 1355T515 1217T488 1019T450 768Q501 824 544 857T626 908T697 931T761 936Q807 936 848 916T921 857T971 760T990 627Q990 577 982 519T956 400T912 277T851 158Q827 119 798 83T734 20T663 -24T586
-41Q565 -41 535 -31T471 0T405 52T344 125L323 6Q305 -97 295 -167T279 -284T275 -357T281 -397Q271 -400 251 -407T204 -424T149 -446T94 -468T48 -487T19 -500L-23 -461Q-6 -372 14 -258T57 -16T102 245T146 511T186 763T219 984T241 1157T249 1266Q249 1289
245 1302T234 1322T217 1331T196 1333Q187 1333 172 1329T142 1319Q124 1313 106 1306L87 1385Q115 1397 151 1412T226 1442T304 1471T377 1496T437 1513T478 1520Q498 1520 509 1515T527 1498T535 1470T537 1427Z" />
<glyph unicode="&#xff;" glyph-name="ydieresis" horiz-adv-x="996" d="M983 860Q983 826 954 750T876 569T762 339T625 82Q555 -47 488 -154T349 -338T201 -457T34 -500Q-7 -500 -49 -489T-125 -462T-180 -429T-201 -399Q-201 -384 -182 -352T-138 -287T-87 -226T-47
-191Q-23 -215 3 -234T54 -267T104 -287T146 -294Q195 -294 249 -242T367 -90Q356 -31 341 39T307 184T269 331T230 468T193 583T161 665Q138 716 122 731T89 747Q80 747 64 744T31 735Q12 730 -9 723L-31 800Q15 823 66 847T164 891T248 923T306 936Q334 936 356
907T402 809Q419 761 438 698T477 563T516 411T553 252Q591 329 624 401T681 535T719 642T733 711Q733 761 680 764Q663 766 646 760T599 741L571 818Q607 839 651 860T739 898T823 925T891 936Q908 936 924 934T954 923T975 900T983 860ZM581 1272Q581 1240 570
1206T536 1143T482 1095T410 1076Q383 1076 364 1085T333 1110T314 1145T308 1186Q308 1216 319 1251T352 1315T405 1363T477 1383Q504 1383 523 1374T555 1348T574 1313T581 1272ZM973 1272Q973 1240 962 1206T928 1143T874 1095T802 1076Q775 1076 756 1085T725
1110T706 1145T700 1186Q700 1216 711 1251T744 1315T797 1363T869 1383Q896 1383 915 1374T947 1348T966 1313T973 1272Z" />
<glyph unicode="&#x2013;" glyph-name="endash" horiz-adv-x="930" d="M889 551Q885 540 877 524T859 490T841 458T828 435H51L23 469Q27 480 35 496T52 528T71 560L86 585H860L889 551Z" />
<glyph unicode="&#x2014;" glyph-name="emdash" horiz-adv-x="1553" d="M1512 551Q1508 540 1500 524T1482 490T1464 458T1451 435H51L23 469Q27 480 35 496T52 528T71 560L86 585H1483L1512 551Z" />
<glyph unicode="&#x2018;" glyph-name="quoteleft" horiz-adv-x="500" d="M488 1395Q464 1367 441 1333T399 1263T370 1190T359 1118Q359 1091 369 1071T396 1039T435 1021T483 1016L492 929Q485 922 463 911T411 888T348 863T283 841T227 826T191 821Q178 830
165 844T140 879T122 925T115 985Q115 1052 143 1119T215 1248T314 1361T423 1450L488 1395Z" />
<glyph unicode="&#x2019;" glyph-name="quoteright" horiz-adv-x="500" d="M492 1282Q492 1214 464 1147T392 1019T293 906T184 817L119 872Q143 900 166 934T208 1004T237 1077T248 1149Q248 1176 238 1196T211 1228T172 1246T124 1251L115 1338Q122 1345 144
1356T196 1379T259 1404T324 1426T380 1441T416 1446Q429 1437 442 1423T467 1388T485 1342T492 1282Z" />
<glyph unicode="&#x201a;" glyph-name="quotesinglbase" horiz-adv-x="552" d="M402 105Q402 37 374 -30T302 -158T203 -271T94 -360L29 -305Q53 -277 76 -243T118 -173T147 -100T158 -28Q158 -1 148 19T121 51T82 69T34 74L25 161Q32 168 54 179T106 202T169
227T234 249T290 264T326 269Q339 260 352 246T377 211T395 165T402 105Z" />
<glyph unicode="&#x201c;" glyph-name="quotedblleft" horiz-adv-x="960" d="M488 1395Q464 1367 441 1333T399 1263T370 1190T359 1118Q359 1091 369 1071T396 1039T435 1021T483 1016L492 929Q485 922 463 911T411 888T348 863T283 841T227 826T191 821Q178
830 165 844T140 879T122 925T115 985Q115 1052 143 1119T215 1248T314 1361T423 1450L488 1395ZM948 1395Q924 1367 901 1333T859 1263T830 1190T819 1118Q819 1091 829 1071T856 1039T895 1021T943 1016L952 929Q945 922 923 911T871 888T808 863T743 841T687
826T651 821Q638 830 625 844T600 879T582 925T575 985Q575 1052 603 1119T675 1248T774 1361T883 1450L948 1395Z" />
<glyph unicode="&#x201d;" glyph-name="quotedblright" horiz-adv-x="960" d="M492 1282Q492 1214 464 1147T392 1019T293 906T184 817L119 872Q143 900 166 934T208 1004T237 1077T248 1149Q248 1176 238 1196T211 1228T172 1246T124 1251L115 1338Q122 1345
144 1356T196 1379T259 1404T324 1426T380 1441T416 1446Q429 1437 442 1423T467 1388T485 1342T492 1282ZM952 1282Q952 1214 924 1147T852 1019T753 906T644 817L579 872Q603 900 626 934T668 1004T697 1077T708 1149Q708 1176 698 1196T671 1228T632 1246T584
1251L575 1338Q582 1345 604 1356T656 1379T719 1404T784 1426T840 1441T876 1446Q889 1437 902 1423T927 1388T945 1342T952 1282Z" />
<glyph unicode="&#x201e;" glyph-name="quotedblbase" horiz-adv-x="1012" d="M402 105Q402 37 374 -30T302 -158T203 -271T94 -360L29 -305Q53 -277 76 -243T118 -173T147 -100T158 -28Q158 -1 148 19T121 51T82 69T34 74L25 161Q32 168 54 179T106 202T169 227T234
249T290 264T326 269Q339 260 352 246T377 211T395 165T402 105ZM862 105Q862 37 834 -30T762 -158T663 -271T554 -360L489 -305Q513 -277 536 -243T578 -173T607 -100T618 -28Q618 -1 608 19T581 51T542 69T494 74L485 161Q492 168 514 179T566 202T629 227T694
249T750 264T786 269Q799 260 812 246T837 211T855 165T862 105Z" />
<glyph unicode="&#x2022;" glyph-name="bullet" horiz-adv-x="529" d="M479 713Q479 657 462 599T411 495T328 419T215 389Q177 389 149 402T103 438T75 492T66 559Q66 615 84 673T136 778T220 855T332 885Q370 885 398 872T444 835T470 780T479 713Z" />
<glyph unicode="&#x2039;" glyph-name="guilsinglleft" horiz-adv-x="608" d="M48 430Q50 449 53 465Q55 479 57 490T60 503L499 933L550 883L540 865Q530 847 514 818T476 751T432 674T389 598T352 531T325 485T316 467L437 47L371 -3L48 430Z" />
<glyph unicode="&#x203a;" glyph-name="guilsinglright" horiz-adv-x="607" d="M41 47L51 65Q61 83 77 112T115 179T158 256T201 332T238 399T265 445T274 463L154 883L219 933L542 500Q540 481 537 465Q535 451 533 440T531 427L91 -3L41 47Z" />
</font>
</defs>
</svg>
