<?xml version="1.0" standalone="no"?>
<!DOCTYPE svg PUBLIC "-//W3C//DTD SVG 1.1//EN" "http://www.w3.org/Graphics/SVG/1.1/DTD/svg11.dtd">
<svg xmlns="http://www.w3.org/2000/svg">
<defs >
<font id="SignikaNegative" horiz-adv-x="433" ><font-face
    font-family="Signika Negative"
    units-per-em="1000"
    panose-1="2 1 0 3 2 6 0 0 0 4"
    ascent="940"
    descent="-292"
    alphabetic="0" />
<glyph unicode=" " glyph-name="space" horiz-adv-x="220" />
<glyph unicode="!" glyph-name="exclam" horiz-adv-x="305" d="M92 207L72 650Q130 692 230 692L239 681L205 207Q183 200 149 200T92 207ZM77 119Q106 135 149 135T220 119Q231 100 231 62T220 5Q195 -11 149 -11T77 5Q66 24 66 62T77 119Z" />
<glyph unicode="&quot;" glyph-name="quotedbl" horiz-adv-x="443" d="M255 708T255 725T262 774Q291 791 328 791T394 774Q401 742 401 725T394 674Q373 562 365 494Q352 486 328 486T291 494Q283 562 269 635ZM42 708T42 725T49 774Q78 791 115 791T181 774Q188
742 188 725T182 674Q160 562 152 494Q139 486 115 486T78 494Q70 562 56 635Z" />
<glyph unicode="#" glyph-name="numbersign" horiz-adv-x="708" d="M461 527L489 650Q513 660 554 660T619 650L591 527H684Q693 501 693 468T684 409H565L530 253H631Q640 227 640 194T631 135H503L476 12Q452 2 410 2T346 12L373 135H253L226 12Q202 2 160 2T96
12L123 135H28Q19 160 19 194T28 253H150L185 409H80Q71 435 71 468T80 527H211L239 650Q263 660 305 660T369 650L341 527H461ZM315 409L280 253H400L435 409H315Z" />
<glyph unicode="$" glyph-name="dollar" horiz-adv-x="508" d="M23 95Q24 124 40 158T79 205Q183 151 257 151Q287 151 305 162T324 195Q324 230 275 247L180 281Q47 332 47 440Q47 505 89 550T201 609V690Q220 694 254 694T309 690V611Q382 603 466 567Q466 535
452 504T415 452Q315 492 258 492Q232 492 217 481T201 450Q201 425 251 408L344 372Q481 321 481 201Q481 135 433 91T305 35V-41Q290 -44 251 -44T197 -41V36Q90 50 23 95Z" />
<glyph unicode="%" glyph-name="percent" horiz-adv-x="979" d="M764 -13Q594 -13 594 203Q594 322 642 370T764 418T882 373Q934 322 934 202T882 31Q839 -13 764 -13ZM714 263T714 203T724 111T764 79T803 110T813 203T804 295T764 326T724 295ZM141 696T215
696T337 648T385 480T333 310Q291 265 216 265T96 310Q45 360 45 480T96 652Q141 696 215 696ZM166 542T166 481T175 389T215 357T254 388T264 481T255 573T215 604T176 573ZM228 0L606 683Q636 690 658 690Q728 690 749 683L372 0Q342 -7 320 -7Q250 -7 228 0Z"
/>
<glyph unicode="&amp;" glyph-name="ampersand" horiz-adv-x="652" d="M531 296L532 235V159Q532 79 539 0Q512 -9 472 -9T402 -2L392 42Q328 -15 236 -15T93 40T41 171T78 297T169 364Q125 381 98 422T71 516Q71 597 129 647T293 698T495 665Q495 661 495 646T485
602T457 553Q370 580 321 580T249 559T227 503Q227 422 330 422H522Q581 422 627 441Q646 417 646 371Q646 296 554 296H531ZM385 234Q385 273 386 296H318Q259 296 228 269T197 195T219 125T278 101Q339 101 385 141V234Z" />
<glyph unicode="&apos;" glyph-name="quotesingle" horiz-adv-x="237" d="M41 708T41 725T48 774Q77 791 114 791T180 774Q187 742 187 725T180 674Q159 562 151 494Q138 486 114 486T77 494Q69 562 55 635Z" />
<glyph unicode="(" glyph-name="parenleft" horiz-adv-x="369" d="M283 670T249 554T215 323T249 92T350 -118Q325 -175 264 -196Q166 -102 113 40T59 323T112 605T264 841Q325 820 350 763Q283 670 249 554Z" />
<glyph unicode=")" glyph-name="parenright" horiz-adv-x="369" d="M86 -25T120 91T154 322T120 553T19 763Q44 820 105 841Q203 748 256 606T310 323T257 41T105 -196Q44 -175 19 -118Q86 -25 120 91Z" />
<glyph unicode="*" glyph-name="asterisk" horiz-adv-x="518" d="M37 525Q37 528 37 540T48 587T75 640L133 617Q166 606 225 563Q203 633 202 667L199 730Q219 739 258 739T319 730L316 667Q314 636 293 564Q344 599 384 616L443 639Q457 622 469 585T481 525L419
508Q383 499 313 499Q369 457 392 428L432 379Q421 360 390 337T336 308L301 361Q281 391 259 458Q236 393 216 362L182 309Q160 313 129 336T85 379L124 429Q146 457 204 499Q135 499 99 509L37 525Z" />
<glyph unicode="+" glyph-name="plus" horiz-adv-x="530" d="M202 357L201 424V514Q229 519 265 519T329 514V424Q329 424 328 357L393 358H477Q483 326 483 297T477 238H393L328 239L329 175V84Q302 79 265 79T201 84V175L202 239L137 238H53Q47 266 47 298T53
358H137L202 357Z" />
<glyph unicode="," glyph-name="comma" horiz-adv-x="292" d="M221 124Q234 92 234 47Q234 -26 189 -88T59 -178Q41 -169 32 -151T23 -122T23 -108Q60 -95 85 -68T115 -8Q86 -2 72 7Q61 29 61 65T72 124Q104 142 149 142T221 124Z" />
<glyph unicode="-" glyph-name="hyphen" horiz-adv-x="373" d="M325 209H48Q42 233 42 269T48 329H325Q331 305 331 269T325 209Z" />
<glyph unicode="." glyph-name="period" horiz-adv-x="283" d="M54 30T54 66T66 125Q97 143 142 143T218 125Q229 102 229 66T218 7Q191 -10 142 -10T66 7Q54 30 54 66Z" />
<glyph unicode="/" glyph-name="slash" horiz-adv-x="447" d="M2 -70L316 767Q392 758 443 719L129 -118Q51 -109 2 -70Z" />
<glyph unicode="0" glyph-name="zero" horiz-adv-x="530" d="M32 228T32 324T46 485T103 599Q169 663 265 663Q321 663 358 647T427 599Q470 551 484 486T498 324T484 163T427 49Q361 -15 265 -15T103 49Q60 97 46 162ZM185 466T185 324T203 141T265 99T324 136Q345
183 345 324T327 507T265 549T204 508Z" />
<glyph unicode="1" glyph-name="one" horiz-adv-x="530" d="M223 121L222 194V339Q222 354 225 397T229 456Q175 395 95 361Q72 371 54 395T32 447Q173 535 227 648Q258 654 297 654T367 648V194L366 121L433 122H489Q496 97 496 62T489 0H77Q70 33 70 61T77 122H160L223
121Z" />
<glyph unicode="2" glyph-name="two" horiz-adv-x="530" d="M486 126Q486 96 483 70Q471 -1 392 -1H91Q40 53 40 90Q40 166 156 269L263 366Q318 416 318 467Q318 499 299 520T245 541T187 515T153 452Q124 452 92 464T47 497Q67 569 123 616T267 663T412 608T470
463Q470 403 439 358T349 263L277 201Q207 143 193 116Q270 126 342 126H486Z" />
<glyph unicode="3" glyph-name="three" horiz-adv-x="530" d="M434 498L354 416Q341 403 323 390Q398 381 443 332T489 201Q489 101 420 43T250 -15Q121 -15 38 57Q49 112 101 154Q163 105 231 105Q279 105 308 132T337 204T311 273T251 298T189 286Q171 294 156
316T133 365L231 466Q279 514 299 528L295 535Q254 523 195 523H71Q61 549 61 584T74 648H433Q463 593 463 561T434 498Z" />
<glyph unicode="4" glyph-name="four" horiz-adv-x="530" d="M417 118L418 48V0Q387 -6 346 -6T274 0V48L275 118L204 116H55Q23 168 23 208Q23 227 41 273L204 656Q217 658 235 658T288 651T340 625L266 450Q208 305 162 238L165 233Q201 236 274 239V300Q274
355 301 386T377 418H411L418 412V310L417 240L473 241H503Q507 217 507 184T498 118H417Z" />
<glyph unicode="5" glyph-name="five" horiz-adv-x="530" d="M450 648Q460 618 460 587Q460 524 396 524H219V495L215 444L212 425Q242 433 271 433Q370 433 427 375T484 213T411 47T238 -15Q116 -15 39 54Q44 77 61 106T100 151Q163 106 217 106T301 134T331
215T302 293T226 319T139 287Q119 291 98 306T65 338L82 640L89 648H450Z" />
<glyph unicode="6" glyph-name="six" horiz-adv-x="530" d="M271 -15Q34 -15 34 320Q34 481 105 572T306 663Q399 663 466 628Q462 561 418 526Q371 546 318 546Q197 546 189 392Q244 435 322 435T448 382T496 219T432 48T271 -15ZM189 270Q189 96 273 96Q311
96 330 126T349 207Q349 316 276 316Q230 316 189 281V270Z" />
<glyph unicode="7" glyph-name="seven" horiz-adv-x="530" d="M60 648H469Q495 590 495 560T475 501L436 448Q309 269 289 45L285 0Q256 -6 213 -6T134 0L138 47Q159 279 282 442L294 459Q319 494 357 530L352 535Q303 523 212 523H54Q46 545 46 578T60 648Z" />
<glyph unicode="8" glyph-name="eight" horiz-adv-x="530" d="M28 165Q28 267 138 333Q44 391 44 487Q44 562 107 612T267 663T424 615T484 490Q484 402 390 350Q502 284 502 172Q501 86 432 36T258 -15T91 33T28 165ZM260 277L235 286Q178 240 178 174Q178 136
202 113T265 89T327 113T350 173Q350 244 260 277ZM190 487Q190 430 278 400L291 395Q341 430 341 484Q341 516 320 536T265 557T211 537T190 487Z" />
<glyph unicode="9" glyph-name="nine" horiz-adv-x="530" d="M259 663Q496 663 496 328Q496 167 425 76T224 -15Q131 -15 64 20Q68 87 112 122Q159 102 212 102Q332 102 340 255Q285 213 208 213T82 266T34 429T98 600T259 663ZM341 378Q341 552 257 552Q219 552
200 522T181 441Q181 332 254 332Q300 332 341 367V378Z" />
<glyph unicode=":" glyph-name="colon" horiz-adv-x="291" d="M58 30T58 66T70 125Q101 143 146 143T222 125Q233 102 233 66T222 7Q195 -10 146 -10T70 7Q58 30 58 66ZM58 342T58 378T70 437Q101 455 146 455T222 437Q233 414 233 378T222 319Q195 302 146 302T70
319Q58 342 58 378Z" />
<glyph unicode=";" glyph-name="semicolon" horiz-adv-x="295" d="M221 124Q234 92 234 47Q234 -26 189 -88T59 -178Q41 -169 32 -151T23 -122T23 -108Q60 -95 85 -68T115 -8Q86 -2 72 7Q61 29 61 65T72 124Q104 142 149 142T221 124ZM60 342T60 378T72 437Q103
455 148 455T224 437Q235 414 235 378T224 319Q197 302 148 302T72 319Q60 342 60 378Z" />
<glyph unicode="&lt;" glyph-name="less" horiz-adv-x="530" d="M52 354L409 551Q437 536 456 504T476 436L285 338Q248 318 201 302V294Q253 277 285 259L476 160Q473 125 454 92T408 44L52 241Q44 270 44 298T52 354Z" />
<glyph unicode="=" glyph-name="equal" horiz-adv-x="530" d="M477 128H53Q47 152 47 187T53 248H477Q483 223 483 188T477 128ZM477 351H53Q47 375 47 411T53 471H477Q483 447 483 411T477 351Z" />
<glyph unicode="&gt;" glyph-name="greater" horiz-adv-x="530" d="M478 242L121 46Q93 61 74 93T54 161L245 259Q282 279 329 295V302Q282 318 245 338L54 436Q57 471 76 505T122 553L478 355Q486 326 486 298T478 242Z" />
<glyph unicode="?" glyph-name="question" horiz-adv-x="417" d="M3 641Q98 698 200 698T356 649T410 518Q410 389 280 320L219 288L209 208Q186 200 154 200T97 208L89 357L101 372L155 397Q254 442 254 501Q254 533 233 551T167 570T56 535Q36 551 20 582T3
641ZM83 116Q109 132 154 132T226 116Q237 97 237 59T226 2Q197 -14 155 -14T83 2Q72 21 72 59T83 116Z" />
<glyph unicode="@" glyph-name="at" horiz-adv-x="975" d="M692 411L691 163Q691 110 723 110Q796 110 796 299Q796 427 717 501T500 575T276 477T189 224T263 -10T470 -88Q569 -88 667 -50Q704 -90 704 -151Q590 -201 459 -201Q268 -201 154 -95T40 218T171 554T500
685T820 581T943 295Q943 152 878 77T724 2T587 61Q522 -2 447 -2T330 60T287 233T343 415T501 486Q556 486 608 464T692 411ZM429 169T441 139T486 109T553 146V363Q529 382 501 382Q429 382 429 234Q429 169 441 139Z" />
<glyph unicode="A" glyph-name="A" horiz-adv-x="634" d="M240 146Q212 146 198 147L154 -1Q131 -7 87 -7T16 4L10 12L232 683Q268 689 321 689T408 682L624 10Q591 -9 545 -9T479 8T446 74L425 147Q411 146 382 146H240ZM233 266L275 267H352Q357 267 370 267T390
266L314 542H309Q300 493 261 358L233 266Z" />
<glyph unicode="B" glyph-name="B" horiz-adv-x="613" d="M85 685Q243 689 312 689Q421 689 482 644T544 507Q544 462 520 424T456 369Q506 353 541 304T576 196Q576 96 511 45T328 -6Q253 -6 85 -2L78 5V678L85 685ZM316 304H228V102Q262 103 318 103T399 132T423
202T398 273T316 304ZM228 580V413H305Q354 413 374 437T395 497Q395 579 305 579Q255 579 228 580Z" />
<glyph unicode="C" glyph-name="C" horiz-adv-x="608" d="M437 416Q437 421 437 426Q437 489 412 533T322 577T228 517T198 344T235 174T342 118T510 189Q533 173 554 145T581 91Q536 46 463 16T321 -15T204 5T126 59T75 140Q38 226 38 339Q38 518 119 608T321
698T511 639T582 492Q582 408 495 408Q467 408 437 416Z" />
<glyph unicode="D" glyph-name="D" horiz-adv-x="665" d="M579 587T602 515T626 342T603 168T514 44Q483 19 431 7T319 -6T85 -2L78 5V678L85 685Q200 689 332 689Q379 689 431 676T514 638Q579 587 602 515ZM254 114L332 113Q469 113 469 341T332 569Q332 569
230 570V113Q231 114 254 114Z" />
<glyph unicode="E" glyph-name="E" horiz-adv-x="572" d="M228 193L227 124V123Q271 125 300 125H536Q536 89 533 71Q519 -3 435 -3H165Q124 -3 101 21T77 87V676L84 683H511Q516 660 516 625T504 555H227L228 484V405Q254 406 295 406H452Q461 382 461 345T452
281H228V193Z" />
<glyph unicode="F" glyph-name="F" horiz-adv-x="533" d="M231 0Q200 -6 155 -6T78 0V677L85 683H508Q515 659 515 624Q515 553 433 553H230Q231 525 231 470V403H448Q456 379 456 341T448 278H231V0Z" />
<glyph unicode="G" glyph-name="G" horiz-adv-x="653" d="M342 384L498 385Q499 385 500 385Q600 385 600 289V27Q476 -15 332 -15T113 79T38 337Q38 425 64 495T136 610Q226 698 356 698T598 626Q595 595 575 564T529 516Q447 571 364 571Q194 571 194 339T364
106Q407 106 456 115V188Q456 233 458 257H403Q365 257 348 271T331 321T342 384Z" />
<glyph unicode="H" glyph-name="H" horiz-adv-x="685" d="M455 415L454 489V683Q484 689 530 689T607 683V0Q576 -6 531 -6T454 0V215L455 289L404 288H281L230 289L231 215V0Q201 -6 154 -6T78 0V683Q107 689 154 689T231 683V489L230 415L281 416H404L455 415Z" />
<glyph unicode="I" glyph-name="I" horiz-adv-x="314" d="M80 0V683Q110 689 156 689T233 683V0Q203 -6 157 -6T80 0Z" />
<glyph unicode="J" glyph-name="J" horiz-adv-x="468" d="M63 147Q111 116 159 116T227 147T247 245V683Q277 689 323 689T400 683V260Q400 137 356 67Q307 -10 172 -10Q79 -10 10 34Q20 100 63 147Z" />
<glyph unicode="K" glyph-name="K" horiz-adv-x="617" d="M609 38Q578 -8 508 -8Q468 -8 449 12T415 79L375 200Q359 249 337 269T278 290Q267 290 231 288V0Q201 -6 154 -6T78 0V683Q107 689 154 689T231 683V416L260 417Q278 417 286 423T305 450L404 635Q419
664 435 676T493 688T575 684L583 673L458 440Q435 396 404 370Q450 360 474 332T516 256L558 129Q559 127 563 115T568 100T573 88T580 74T587 63T598 50Q598 50 609 38Z" />
<glyph unicode="L" glyph-name="L" horiz-adv-x="521" d="M323 129H500Q500 96 496 72Q484 -3 396 -3H166Q125 -3 101 21T77 87V683L84 689H140Q230 689 230 593V126Q280 129 323 129Z" />
<glyph unicode="M" glyph-name="M" horiz-adv-x="830" d="M57 2L110 682Q148 689 210 689T310 682L374 428Q401 317 412 249H418Q429 317 456 428L520 682Q558 689 620 689T719 682L772 2Q744 -6 700 -6T628 -1L612 289Q604 427 604 516H597L493 101Q466 96 416
96T336 101L233 516H226Q224 394 218 289L202 -1Q174 -6 130 -6T57 2Z" />
<glyph unicode="N" glyph-name="N" horiz-adv-x="694" d="M609 689L616 683V3Q578 -6 527 -6T435 0L269 366Q227 466 212 507L208 506Q220 364 220 215V0Q190 -6 149 -6T78 0V680Q114 689 165 689T257 683L419 318L482 167L486 168Q474 306 474 457V597Q474 647
494 668T559 689H609Z" />
<glyph unicode="O" glyph-name="O" horiz-adv-x="665" d="M197 580T197 342T332 103T468 341T333 580ZM145 48Q38 137 38 341T145 635Q222 698 333 698T521 635Q628 546 628 342T521 48Q444 -15 333 -15T145 48Z" />
<glyph unicode="P" glyph-name="P" horiz-adv-x="586" d="M424 689T490 629T556 455T490 279T314 218H231V0Q201 -6 154 -6T78 0V678L85 685Q253 689 314 689Q424 689 490 629ZM231 572V333Q260 334 300 334T363 354T393 399T400 461T379 535T308 571T231 572Z" />
<glyph unicode="Q" glyph-name="Q" horiz-adv-x="669" d="M438 -104L335 -15H334Q222 -15 146 47Q38 139 38 342T146 636Q220 698 333 698T521 636Q629 544 629 341Q629 164 550 79Q521 46 487 32L511 15Q579 -33 637 -33Q636 -82 608 -112T541 -142Q481 -142
438 -104ZM471 580T333 580T195 342T333 103T471 341Z" />
<glyph unicode="R" glyph-name="R" horiz-adv-x="613" d="M562 473Q562 406 526 357T440 290Q491 272 516 199L548 110Q565 62 597 37Q582 17 554 4T491 -9T437 11T401 80L363 189Q353 220 334 237T276 254H229V0Q199 -6 153 -6T78 0V678L85 685Q253 689 321 689Q430
689 496 635T562 473ZM229 574V371Q295 373 309 373Q406 373 406 473T309 573Q259 573 229 574Z" />
<glyph unicode="S" glyph-name="S" horiz-adv-x="557" d="M17 60Q20 92 37 123T77 174Q186 108 279 108Q322 108 344 128T367 178Q367 228 300 258L182 308Q40 370 40 491Q40 582 109 640T290 698T513 641Q508 572 461 526Q359 575 281 575Q240 575 218 556T196
511Q196 471 258 444L378 394Q450 363 489 313T529 198Q529 103 462 44T268 -15Q206 -15 139 5T17 60Z" />
<glyph unicode="T" glyph-name="T" horiz-adv-x="507" d="M330 557L331 483V0Q300 -6 255 -6T178 0V483L179 557H178L116 556H10Q5 585 5 619T10 683H500Q508 657 508 622T489 572T428 556H393L331 557H330Z" />
<glyph unicode="U" glyph-name="U" horiz-adv-x="673" d="M604 683V251Q604 124 534 55T336 -15T138 54T68 251V683L75 689H131Q221 689 221 593V249Q221 177 248 142T336 107T424 142T451 249V683Q481 689 528 689T604 683Z" />
<glyph unicode="V" glyph-name="V" horiz-adv-x="602" d="M314 128L450 683Q476 689 516 689T586 679L593 670L404 0Q350 -6 295 -6T216 8T179 64L10 669Q64 692 100 692T155 674T185 616L265 321Q285 251 304 141Q306 128 314 128Z" />
<glyph unicode="W" glyph-name="W" horiz-adv-x="896" d="M136 64L17 674Q58 692 98 692T156 674T182 608L227 338Q249 211 252 172T257 130T265 127L351 670Q393 677 449 677T547 670L626 141Q627 131 629 129T637 127Q647 219 667 340L727 683Q755 689 794 689T868
679L875 669L741 1Q680 -6 625 -6T547 8T517 64L481 287Q458 449 451 521H443Q430 411 409 287L362 1Q297 -6 244 -6T168 7T136 64Z" />
<glyph unicode="X" glyph-name="X" horiz-adv-x="612" d="M434 683Q458 689 500 689T578 676L582 668L394 358L602 24Q555 -9 513 -9T448 4T405 51L295 228L159 0Q135 -6 94 -6T14 7L10 16L217 353L27 659Q74 692 116 692T180 679T223 633L316 483L434 683Z" />
<glyph unicode="Y" glyph-name="Y" horiz-adv-x="537" d="M324 505L395 683Q420 689 460 689T532 678L538 669L345 211V0Q315 -6 268 -6T192 0V215L-1 665Q46 691 85 691T142 677T173 630L225 500Q249 438 270 359H276Q292 424 324 505Z" />
<glyph unicode="Z" glyph-name="Z" horiz-adv-x="577" d="M57 149L284 465Q316 510 364 564L361 567Q293 558 207 558H61Q55 580 55 611T66 683H504Q525 608 525 584T508 535L281 219Q249 174 203 124L206 121Q292 127 352 127H415Q480 127 528 150Q538 118 538
80T511 21T438 0H56Q39 76 39 100T57 149Z" />
<glyph unicode="[" glyph-name="bracketleft" horiz-adv-x="388" d="M350 -153L107 -162L98 -154V819L107 826L350 818Q355 801 355 771T344 716L244 713V-48L344 -51Q355 -77 355 -107T350 -153Z" />
<glyph unicode="\" glyph-name="backslash" horiz-adv-x="447" d="M318 -118L4 719Q55 758 131 767L445 -70Q394 -109 318 -118Z" />
<glyph unicode="]" glyph-name="bracketright" horiz-adv-x="388" d="M281 -162L38 -153Q33 -142 33 -110T44 -51L144 -48V713L44 716Q33 740 33 773T38 818L281 826L289 819V-154L281 -162Z" />
<glyph unicode="^" glyph-name="asciicircum" horiz-adv-x="530" d="M500 306Q470 299 427 299T358 306L305 433Q290 468 269 537H261Q240 468 225 433L172 306Q146 299 125 299Q60 299 30 306L186 648Q213 655 266 655T344 648L500 306Z" />
<glyph unicode="_" glyph-name="underscore" horiz-adv-x="560" d="M561 -174H-1Q-7 -151 -7 -119T-1 -62H561Q567 -92 567 -119T561 -174Z" />
<glyph unicode="`" glyph-name="grave" horiz-adv-x="398" d="M145 765L299 598Q292 578 274 562T237 540L54 678Q63 706 90 731T145 765Z" />
<glyph unicode="a" glyph-name="a" horiz-adv-x="512" d="M481 69Q477 49 463 26T434 -8Q365 -5 330 45Q266 -15 189 -15T72 31T32 136Q32 221 88 265T229 309Q262 309 304 306V328Q304 394 236 394Q193 394 87 362Q57 397 51 466Q98 486 162 498T277 510Q352
510 402 469T453 340V136Q453 89 481 69ZM226 96Q265 96 304 129V212Q282 213 244 213Q177 213 177 146Q177 125 190 111T226 96Z" />
<glyph unicode="b" glyph-name="b" horiz-adv-x="534" d="M411 508T456 439T502 252T436 62T259 -9T62 25V729L69 736H125Q170 736 189 716T208 646V472Q263 508 325 508Q411 508 456 439ZM282 388Q240 388 208 353V103Q235 98 259 98Q350 98 350 254Q350 386 282 388Z" />
<glyph unicode="c" glyph-name="c" horiz-adv-x="474" d="M313 281Q313 286 313 290Q313 346 302 374T253 402T200 366T184 249T206 136T276 102T386 145Q404 135 421 110T443 62Q409 27 357 6T250 -15Q145 -15 89 56T32 254T97 447T250 513T393 467T447 349Q447
313 428 295T373 276T313 281Z" />
<glyph unicode="d" glyph-name="d" horiz-adv-x="537" d="M124 -15T79 55T33 246T90 438T233 508Q278 508 328 485V729L335 736H393Q437 736 455 716T473 646V144Q473 90 501 69Q497 49 484 27T455 -8Q385 -5 351 48Q293 -15 209 -15ZM251 105Q295 105 328 148V371Q285
397 258 397Q186 397 186 242Q186 173 204 139T251 105Z" />
<glyph unicode="e" glyph-name="e" horiz-adv-x="497" d="M448 201H183Q186 153 207 127T281 100T407 131Q438 101 448 42Q367 -15 252 -15Q190 -15 145 6T76 66Q32 139 32 253T87 440T246 513T405 454T461 301Q461 249 448 201ZM323 356T306 381T254 407T202
382T182 304H323V316Q323 356 306 381Z" />
<glyph unicode="f" glyph-name="f" horiz-adv-x="354" d="M90 0V394L4 393Q-2 418 -2 446T4 499L82 498Q77 536 77 568Q77 643 124 691T249 740T398 713Q398 710 398 697T390 657T366 614Q317 628 288 628Q220 628 220 557Q220 532 225 497L357 499Q363 475 363
447T357 393L235 395V0Q202 -6 163 -6T90 0Z" />
<glyph unicode="g" glyph-name="g" horiz-adv-x="535" d="M124 -10T79 60T33 251T90 442T229 513T365 466Q399 503 456 506Q471 495 485 472T502 430Q474 409 474 355V86Q474 -84 424 -149Q367 -221 239 -221Q142 -221 53 -188Q53 -161 63 -130T90 -80Q156 -110
225 -110Q329 -110 329 -3V31Q275 -10 213 -10Q124 -10 79 60ZM329 147V366Q292 401 259 401Q186 401 186 247Q186 178 203 144T250 110Q293 110 329 147Z" />
<glyph unicode="h" glyph-name="h" horiz-adv-x="543" d="M484 331V123Q484 59 507 24Q468 -8 420 -8T353 15T335 85V303Q335 340 325 356T289 373Q247 373 208 335V0Q177 -6 137 -6T62 0V729L69 736H127Q171 736 189 716T208 646V450Q276 507 344 507T448 459T484 331Z" />
<glyph unicode="i" glyph-name="i" horiz-adv-x="294" d="M233 387V0Q203 -6 160 -6T84 0V336Q84 393 37 393H23Q17 418 17 445T23 497Q73 502 108 502H128Q177 502 205 471T233 387ZM310 612T310 641T321 697Q349 712 394 712T465 697Q476 670 476 641T465 585Q440
570 392 570T321 585Q310 612 310 641Z" />
<glyph unicode="j" glyph-name="j" horiz-adv-x="301" d="M240 387V27Q240 -89 204 -143T55 -220Q39 -207 27 -181T14 -129Q59 -110 76 -85T93 -7V336Q93 393 46 393H23Q17 418 17 445T23 497Q80 502 116 502H136Q185 502 212 471T240 387ZM58 612T58 641T69 697Q97
712 142 712T213 697Q224 670 224 641T213 585Q188 570 140 570T69 585Q58 612 58 641Z" />
<glyph unicode="k" glyph-name="k" horiz-adv-x="520" d="M241 202L208 201V0Q177 -6 136 -6T62 0V729L69 736H127Q171 736 189 716T208 646V324H226Q244 324 254 342L311 447Q338 502 395 502Q424 502 478 500L484 492L403 340Q384 305 353 284Q413 262 438 197L463
123Q479 80 488 64T511 39Q471 -8 411 -8Q379 -8 363 7T333 60L303 148Q291 180 278 191T241 202Z" />
<glyph unicode="l" glyph-name="l" horiz-adv-x="311" d="M249 109H278Q290 77 290 48T287 5Q227 -5 172 -5T89 27T61 129V729L68 736H126Q170 736 188 716T207 646V156Q207 109 249 109Z" />
<glyph unicode="m" glyph-name="m" horiz-adv-x="807" d="M330 302Q330 374 283 374Q249 373 211 336V0Q180 -6 138 -6T62 0V498L69 505H125Q187 505 205 442Q277 507 343 507Q424 507 460 437Q537 507 608 507T713 463T747 348V123Q747 61 771 24Q732 -8 684
-8T617 15T598 85V303Q598 374 549 374Q518 374 479 335V0Q447 -6 405 -6T330 0V302Z" />
<glyph unicode="n" glyph-name="n" horiz-adv-x="547" d="M487 331V123Q487 59 511 24Q472 -8 424 -8T357 15T338 85V303Q338 340 328 357T293 374Q250 374 211 335V0Q180 -6 138 -6T62 0V498L69 505H125Q187 505 204 445Q277 507 346 507T451 459T487 331Z" />
<glyph unicode="o" glyph-name="o" horiz-adv-x="522" d="M418 455Q490 383 490 250T418 44Q359 -15 261 -15T104 44Q32 116 32 249T104 455Q163 513 261 513T418 455ZM185 322T185 249T200 137T261 97T321 136T337 249T322 362T261 402T201 362Z" />
<glyph unicode="p" glyph-name="p" horiz-adv-x="537" d="M412 513T457 443T503 252T446 60T304 -10Q259 -10 209 13V-126Q209 -175 190 -195T127 -216H69L62 -209V498L69 505H109Q165 505 192 456Q249 513 330 513ZM286 393Q242 393 209 351V127Q249 102 278
102Q351 102 351 256Q351 325 333 359T286 393Z" />
<glyph unicode="q" glyph-name="q" horiz-adv-x="537" d="M328 -126V29Q274 -10 213 -10Q124 -10 79 60T33 251T90 442T229 513T364 466Q396 503 455 506Q469 496 483 473T502 430Q474 410 474 355V-209L467 -216H409Q365 -216 347 -196T328 -126ZM250 110Q294
110 328 146V367Q291 401 259 401Q186 401 186 247Q186 178 203 144T250 110Z" />
<glyph unicode="r" glyph-name="r" horiz-adv-x="393" d="M33 429Q37 449 51 472T79 506Q168 497 201 416Q239 505 327 505Q360 505 392 497Q392 468 382 428T355 358Q334 365 305 367Q252 367 219 313V0Q189 -6 146 -6T70 0V326Q70 401 33 429Z" />
<glyph unicode="s" glyph-name="s" horiz-adv-x="442" d="M21 35Q22 59 34 89T63 135Q141 94 202 94Q232 94 248 104T265 132Q265 164 217 181L162 201Q36 247 36 350Q36 425 88 469T227 513Q270 513 322 501T409 472Q410 445 398 413T367 368Q285 405 229 405Q207
405 195 395T183 369Q183 344 225 328L286 306Q419 257 419 147Q419 73 364 29T209 -15T21 35Z" />
<glyph unicode="t" glyph-name="t" horiz-adv-x="371" d="M348 499Q354 472 354 446T348 393L228 395V156Q228 109 272 109H330Q342 73 342 45T338 5Q266 -5 206 -5Q83 -5 83 129V394L5 393Q-1 415 -1 446T5 499L83 498V559Q83 609 101 629T163 649H221L228 642V497L348
499Z" />
<glyph unicode="u" glyph-name="u" horiz-adv-x="549" d="M60 167V376Q60 439 36 474Q73 506 122 506T190 483T209 414V195Q209 158 219 142T254 125Q297 125 335 162V498Q366 504 409 504T485 498V142Q485 87 513 67Q509 47 495 26T466 -8Q386 -5 352 62Q276
-9 204 -9T96 39T60 167Z" />
<glyph unicode="v" glyph-name="v" horiz-adv-x="476" d="M247 114L339 498Q361 503 399 503T470 492L475 485Q377 137 334 0Q284 -6 231 -6T155 8T119 66L-3 487Q46 507 80 507T135 491T165 438L213 247Q220 222 228 177T238 122Q239 114 247 114Z" />
<glyph unicode="w" glyph-name="w" horiz-adv-x="752" d="M105 65L7 489Q50 507 87 507T139 492T161 444L194 276Q214 175 221 118Q222 110 229 110L288 493Q320 501 376 501T463 493L523 118Q524 110 531 110Q544 201 559 276L605 498Q629 504 672 504T741 492L745
483L628 0Q592 -6 532 -6T451 7T424 63L405 175Q403 191 398 228Q385 314 378 366H372Q365 306 344 177L314 0Q268 -6 213 -6T136 8T105 65Z" />
<glyph unicode="x" glyph-name="x" horiz-adv-x="478" d="M325 498Q349 504 384 504T457 494L461 484L320 266L478 24Q428 -9 378 -9T299 36L230 143L145 0Q127 -6 83 -6T8 5L4 15L158 254L15 475Q61 508 116 508Q143 508 159 497T192 462L249 374L325 498Z" />
<glyph unicode="y" glyph-name="y" horiz-adv-x="493" d="M487 483L362 14Q331 -103 279 -161T120 -219Q60 -219 2 -199Q2 -194 2 -181T9 -138T32 -93Q84 -108 120 -108Q195 -108 221 -21L225 -7Q141 -5 125 55L6 487Q50 507 88 507T144 493T170 443L220 245Q228
216 244 112Q245 105 253 105L343 498Q368 504 408 504T482 493L487 483Z" />
<glyph unicode="z" glyph-name="z" horiz-adv-x="449" d="M47 129L172 296Q192 322 252 390L249 395Q179 387 124 387H43Q38 406 38 436T46 498H393Q412 441 412 416T398 371L270 200Q227 143 194 109L197 105Q245 110 278 110H315Q376 110 410 126Q425 88 425
66Q425 0 344 0H43Q26 51 26 75T47 129Z" />
<glyph unicode="{" glyph-name="braceleft" horiz-adv-x="391" d="M44 375Q81 382 105 413T129 485V647Q129 722 172 766T287 823L352 833Q367 817 374 792T382 755T380 737L321 717Q303 711 291 693T278 646V487Q278 436 254 393T191 331V323Q230 306 254 263T278
167V9Q278 -19 290 -37T321 -62L380 -82Q382 -88 382 -99T375 -137T352 -179L287 -168Q215 -157 172 -112T129 8V169Q129 209 105 241T44 280Q37 297 37 327T44 375Z" />
<glyph unicode="|" glyph-name="bar" horiz-adv-x="268" d="M65 -142V773Q89 780 133 780T203 773V-142Q177 -148 134 -148T65 -142Z" />
<glyph unicode="}" glyph-name="braceright" horiz-adv-x="391" d="M347 375Q354 357 354 327T347 280Q311 273 287 241T263 169V8Q263 -67 220 -112T104 -168L40 -179Q25 -163 18 -137T10 -100T12 -82L71 -62Q89 -56 101 -38T113 9V167Q113 219 137 262T201 323V331Q162
349 138 392T113 487V646Q113 674 101 692T71 717L12 737Q10 743 10 754T17 791T40 833L104 823Q176 811 219 766T263 647V485Q263 445 286 414T347 375Z" />
<glyph unicode="~" glyph-name="asciitilde" horiz-adv-x="626" d="M298 381L381 343Q406 332 431 332T481 360L505 385Q530 383 556 368T594 328L574 296Q514 195 417 195Q374 195 328 216L245 253Q221 265 196 265T145 237L121 211Q95 213 69 229T32 269L51
301Q112 402 209 402Q251 402 298 381Z" />
<glyph unicode="&#xa1;" glyph-name="exclamdown" horiz-adv-x="305" d="M213 291L234 -153Q176 -194 75 -194L67 -183L100 291Q124 297 157 297T213 291ZM229 379Q201 363 156 363T85 379Q74 398 74 436T85 493Q114 509 156 509T229 493Q239 473 239 436T229 379Z" />
<glyph unicode="&#xa2;" glyph-name="cent" horiz-adv-x="464" d="M188 -33V67Q102 86 65 156T28 331T73 499T191 581V682Q208 686 243 686T298 682V584Q361 571 399 529T438 433Q438 352 358 352Q324 352 305 358Q305 362 305 365Q305 478 243 478Q208 478 194
441T179 324Q179 179 270 179Q317 179 379 222Q397 208 413 185T434 140Q384 84 295 66V-33Q281 -36 241 -36T188 -33Z" />
<glyph unicode="&#xa3;" glyph-name="sterling" horiz-adv-x="537" d="M241 362L412 363Q420 343 420 311T412 256Q307 256 255 257Q248 181 202 118L205 115Q293 122 378 122H509Q509 91 507 73Q493 -2 407 -2H65Q48 75 48 97T66 145L79 165Q114 215 121 256H49Q41
278 41 310T49 363Q57 363 75 363T103 362Q68 432 68 478Q68 550 125 606T284 663Q348 663 404 639T496 583Q491 553 469 528T419 492Q357 541 295 541Q259 541 236 521T213 469T241 362Z" />
<glyph unicode="&#xa4;" glyph-name="currency" horiz-adv-x="589" d="M94 217Q64 268 64 333T93 449L24 526Q44 567 99 602L180 529Q230 554 292 554T406 529L489 604Q535 577 565 529L494 449Q523 399 523 333T492 216L562 138Q536 93 487 62L403 136Q354 113
293 113T182 136L99 63Q54 90 24 139L94 217ZM251 445T231 414T210 334T230 254T293 223T356 253T377 333T357 414T294 445Z" />
<glyph unicode="&#xa5;" glyph-name="yen" horiz-adv-x="544" d="M489 152H343V0Q313 -6 270 -6T197 0V152H51Q44 177 44 197T51 245H191L161 312H51Q44 337 44 357T51 405H119L17 632Q71 659 105 659T154 647T179 608L228 488Q250 437 272 356H278Q303 437 327
491L395 648Q420 655 454 655T525 646L531 639L422 405H489Q495 381 495 358T489 312H379L348 245H489Q495 222 495 198T489 152Z" />
<glyph unicode="&#xa6;" glyph-name="brokenbar" horiz-adv-x="262" d="M63 -142V245Q88 252 130 252T199 245V-142Q173 -148 131 -148T63 -142ZM63 386V773Q88 780 130 780T199 773V386Q173 380 131 380T63 386Z" />
<glyph unicode="&#xa7;" glyph-name="section" horiz-adv-x="498" d="M472 310Q472 224 373 163Q439 115 439 45T384 -70T232 -116T62 -74Q61 -48 73 -18T104 27Q183 -8 238 -8Q262 -8 277 2T292 30Q292 58 249 75L191 99Q112 132 70 171T27 273Q27 358 126 419Q61
466 61 536T115 652T255 698T421 661Q421 657 421 644T410 603T380 560Q308 589 261 589Q238 589 223 579T208 551Q208 524 251 508L308 484Q386 452 429 413T472 310ZM234 369L221 374Q170 344 170 299Q170 272 194 252T266 214L278 209Q330 237 330 284T234 369Z"
/>
<glyph unicode="&#xa8;" glyph-name="dieresis" horiz-adv-x="398" d="M228 595T228 622T236 670Q263 686 299 686T361 670Q370 649 370 621T361 574Q335 558 299 558T236 574Q228 595 228 622ZM28 595T28 622T37 670Q63 686 99 686T162 670Q170 649 170 622T162
574Q135 558 99 558T37 574Q28 595 28 622Z" />
<glyph unicode="&#xa9;" glyph-name="copyright" horiz-adv-x="791" d="M33 187T33 341T137 599T395 704T653 600T758 341T654 83T395 -21T137 83ZM145 453T145 341T215 153T395 77T575 153T646 341T575 529T395 606T216 530ZM443 366Q443 453 393 453Q339 453
339 345T416 237Q446 237 500 270Q534 246 540 204Q518 180 477 164T397 148Q305 148 264 203T223 349T275 488T394 536T504 503T546 420Q546 361 484 361Q458 361 443 366Z" />
<glyph unicode="&#xaa;" glyph-name="ordfeminine" horiz-adv-x="453" d="M414 344Q412 326 399 307T368 279Q312 281 282 321Q226 274 167 274T73 310T39 397Q39 465 84 499T199 534Q225 534 258 531V556Q258 580 243 592T197 604T89 580Q62 610 59 661Q148 698
242 698Q302 698 344 664T387 560V402Q387 359 414 344ZM159 388T171 377T206 365T259 389Q258 395 258 408V453Q224 455 210 455Q159 455 159 404Q159 388 171 377Z" />
<glyph unicode="&#xab;" glyph-name="guillemotleft" horiz-adv-x="609" d="M573 410L449 258L577 102Q570 79 545 56T495 27L293 212Q286 229 286 255T293 298L493 486Q517 481 541 458T573 410ZM311 410L187 258L315 102Q308 79 283 56T233 27L31 212Q24 229
24 255T31 298L231 486Q255 481 279 458T311 410Z" />
<glyph unicode="&#xac;" glyph-name="logicalnot" horiz-adv-x="530" d="M351 245L286 244H48Q42 268 42 303T48 364H471L478 357V123Q453 118 417 118T350 123V184L351 245Z" />
<glyph unicode="&#xad;" glyph-name="uni00AD" horiz-adv-x="373" d="M325 209H48Q42 233 42 269T48 329H325Q331 305 331 269T325 209Z" />
<glyph unicode="&#xae;" glyph-name="registered" horiz-adv-x="600" d="M28 356T28 471T106 665T300 744T493 665T572 471T494 278T300 199T107 277ZM115 551T115 471T168 335T300 279T432 335T485 471T432 607T300 664T168 608ZM200 601L307 604Q359 604 383
583T408 532T394 485T358 463Q376 455 391 426L402 403Q414 380 425 374Q406 347 376 347T329 377L308 420Q298 438 280 438H272V352Q258 348 234 348T197 352V599L200 601ZM272 495L296 496Q328 496 328 521T299 547H272V495Z" />
<glyph unicode="&#xaf;" glyph-name="overscore" horiz-adv-x="398" d="M351 572H48Q40 597 40 625T48 680H351Q358 652 358 626T351 572Z" />
<glyph unicode="&#xb0;" glyph-name="degree" horiz-adv-x="347" d="M15 445T15 515T60 629T174 674T287 630T332 515T288 401T174 356T60 400ZM119 545T119 515T134 467T173 449T213 467T228 515T213 563T174 581T134 563Z" />
<glyph unicode="&#xb1;" glyph-name="plusminus" horiz-adv-x="530" d="M204 415L203 484V550Q228 556 265 556T328 550V484Q328 484 327 415L390 416H466Q472 391 472 363T466 308H390L327 309L328 242V175Q302 170 266 170T203 175V242L204 309L140 308H64Q58
334 58 362T64 416H140L204 415ZM466 0H64Q58 25 58 56T64 112H466Q472 87 472 56T466 0Z" />
<glyph unicode="&#xb2;" glyph-name="twosuperior" horiz-adv-x="420" d="M367 429Q367 391 365 378Q354 320 292 320H80Q41 371 41 395Q41 446 108 502L196 575Q225 600 225 628Q225 644 214 655T186 666T157 652T139 618Q116 619 86 631T45 658Q56 709 98 743T204
777T312 738T355 637Q355 554 274 493L217 451Q210 446 194 435T171 418Q231 429 276 429H367Z" />
<glyph unicode="&#xb3;" glyph-name="threesuperior" horiz-adv-x="420" d="M319 645L272 606Q259 595 247 589Q297 584 329 549T361 463Q361 395 312 356T193 317Q98 317 40 365Q48 412 89 446Q135 415 167 415T216 429T232 466T219 503T179 518Q175 518 150
513Q135 518 120 538T100 577L167 636Q176 644 213 670L210 674Q182 668 130 668H63Q56 689 56 719T66 770H320Q346 725 346 697T319 645Z" />
<glyph unicode="&#xb4;" glyph-name="acute" horiz-adv-x="398" d="M106 598L260 765Q288 756 315 731T351 678L168 540Q149 546 132 562T106 598Z" />
<glyph unicode="&#xb6;" glyph-name="paragraph" horiz-adv-x="740" d="M277 63V238H264Q160 238 94 296T28 467T94 634T273 689Q282 689 420 684L427 677V93Q427 26 417 -18T376 -96Q320 -159 201 -159Q123 -159 56 -134Q56 -110 64 -78T88 -26Q143 -47 188 -47T255
-23T277 63ZM488 -131V676L495 683H720Q727 662 727 619T720 555H691Q673 555 639 557V-131Q609 -137 563 -137T488 -131Z" />
<glyph unicode="&#xb7;" glyph-name="middot" horiz-adv-x="326" d="M81 250T81 286T92 345Q121 363 163 363T235 345Q245 321 245 286T235 227Q210 210 164 210T92 227Q81 250 81 286Z" />
<glyph unicode="&#xb8;" glyph-name="cedilla" horiz-adv-x="398" d="M136 -77Q145 -40 162 0H241Q230 -21 225 -32Q271 -35 298 -59T325 -127T287 -200T194 -231T103 -208Q105 -168 128 -143Q148 -156 175 -156Q212 -156 212 -126Q212 -112 203 -104T182 -95T158
-99Q143 -92 136 -77Z" />
<glyph unicode="&#xb9;" glyph-name="onesuperior" horiz-adv-x="420" d="M37 622Q92 655 122 687T176 768Q207 774 231 774T292 768V429H374Q380 404 380 375T374 322H72Q66 347 66 375T72 429H171V524Q171 541 175 605Q149 573 93 546Q73 556 58 578T37 622Z" />
<glyph unicode="&#xba;" glyph-name="ordmasculine" horiz-adv-x="450" d="M350 653Q409 591 409 485T350 318Q304 273 225 273T100 318Q40 378 40 485T100 653Q146 698 225 698T350 653ZM286 604T225 604T164 486T225 367T286 485Z" />
<glyph unicode="&#xbb;" glyph-name="guillemotright" horiz-adv-x="609" d="M36 103L160 256L32 411Q39 434 64 457T114 486L316 301Q324 284 324 259T316 216L116 27Q91 33 67 56T36 103ZM298 103L422 256L294 411Q301 434 326 457T376 486L578 301Q586 284
586 259T578 216L378 27Q353 33 329 56T298 103Z" />
<glyph unicode="&#xbc;" glyph-name="onequarter" horiz-adv-x="1040" d="M27 537Q82 570 112 602T166 683Q197 689 221 689T282 683V344H364Q370 318 370 290T364 237H62Q56 262 56 290T62 344H161V439Q161 456 165 520Q139 488 83 461Q63 471 48 493T27 537ZM292
0L670 683Q700 690 722 690Q792 690 813 683L436 0Q406 -7 384 -7Q314 -7 292 0ZM981 77L949 78V8Q927 2 892 2T831 8V29L832 78L778 77H672Q645 123 645 148T660 200L774 457Q782 458 797 458T843 452T892 431L837 311Q793 212 764 176L766 174Q802 178 831 178V212Q831
254 854 278T917 302H946L950 297V251L949 179H1003Q1007 162 1007 135T997 77H981Z" />
<glyph unicode="&#xbd;" glyph-name="onehalf" horiz-adv-x="1040" d="M280 0L658 683Q688 690 710 690Q780 690 801 683L424 0Q394 -7 372 -7Q302 -7 280 0ZM27 537Q82 570 112 602T166 683Q197 689 221 689T282 683V344H364Q370 318 370 290T364 237H62Q56 262
56 290T62 344H161V439Q161 456 165 520Q139 488 83 461Q63 471 48 493T27 537ZM996 114Q996 76 994 63Q983 5 921 5H709Q670 56 670 80Q670 131 737 187L825 260Q854 285 854 313Q854 329 843 340T815 351T786 337T768 303Q745 304 715 316T674 343Q685 394 727
428T833 462T941 423T984 322Q984 239 903 178L846 136Q840 131 824 120T800 103Q860 114 905 114H996Z" />
<glyph unicode="&#xbe;" glyph-name="threequarters" horiz-adv-x="1040" d="M266 0L644 683Q674 690 696 690Q766 690 787 683L410 0Q380 -7 358 -7Q288 -7 266 0ZM323 560L276 521Q263 510 251 504Q301 499 333 464T365 378Q365 310 316 271T197 232Q102 232
44 280Q52 327 93 361Q139 330 171 330T220 344T236 381T223 418T183 433Q179 433 154 428Q139 433 124 453T104 492L171 551Q180 559 217 585L214 589Q186 583 134 583H67Q60 604 60 634T70 685H324Q350 640 350 612T323 560ZM962 77L930 78V8Q908 2 873 2T812
8V29L813 78L759 77H653Q626 123 626 148T641 200L755 457Q763 458 778 458T824 452T873 431L818 311Q774 212 745 176L747 174Q783 178 812 178V212Q812 254 835 278T898 302H927L931 297V251L930 179H984Q988 162 988 135T978 77H962Z" />
<glyph unicode="&#xbf;" glyph-name="questiondown" horiz-adv-x="417" d="M421 -146Q326 -203 223 -203T67 -154T13 -22Q13 106 144 175L205 207L214 287Q238 295 270 295T327 287L335 138L323 123L269 99Q169 52 169 -6Q169 -38 190 -56T257 -75T367 -40Q388
-56 404 -87T421 -146ZM315 363T269 363T198 379Q187 398 187 436T198 493Q225 509 268 509T341 493Q352 474 352 436T341 379Q315 363 269 363Z" />
<glyph unicode="&#xc0;" glyph-name="Agrave" horiz-adv-x="634" d="M240 146Q212 146 198 147L154 -1Q131 -7 87 -7T16 4L10 12L232 683Q268 689 321 689T408 682L624 10Q591 -9 545 -9T479 8T446 74L425 147Q411 146 382 146H240ZM233 266L275 267H352Q357 267
370 267T390 266L314 542H309Q300 493 261 358L233 266ZM230 934L451 799Q443 747 409 727L171 821Q174 852 192 885T230 934Z" />
<glyph unicode="&#xc1;" glyph-name="Aacute" horiz-adv-x="634" d="M240 146Q212 146 198 147L154 -1Q131 -7 87 -7T16 4L10 12L232 683Q268 689 321 689T408 682L624 10Q591 -9 545 -9T479 8T446 74L425 147Q411 146 382 146H240ZM233 266L275 267H352Q357 267
370 267T390 266L314 542H309Q300 493 261 358L233 266ZM199 799L420 934Q440 919 458 886T479 821L241 727Q226 736 214 757T199 799Z" />
<glyph unicode="&#xc2;" glyph-name="Acircumflex" horiz-adv-x="634" d="M240 146Q212 146 198 147L154 -1Q131 -7 87 -7T16 4L10 12L232 683Q268 689 321 689T408 682L624 10Q591 -9 545 -9T479 8T446 74L425 147Q411 146 382 146H240ZM233 266L275 267H352Q357
267 370 267T390 266L314 542H309Q300 493 261 358L233 266ZM435 735L318 810L199 724Q182 730 163 748T138 786L256 906Q287 913 318 913T381 907L494 797Q488 776 470 759T435 735Z" />
<glyph unicode="&#xc3;" glyph-name="Atilde" horiz-adv-x="634" d="M240 146Q212 146 198 147L154 -1Q131 -7 87 -7T16 4L10 12L232 683Q268 689 321 689T408 682L624 10Q591 -9 545 -9T479 8T446 74L425 147Q411 146 382 146H240ZM233 266L275 267H352Q357 267
370 267T390 266L314 542H309Q300 493 261 358L233 266ZM322 758L274 781Q258 790 240 790T206 766L197 754Q175 754 153 766T122 798L131 818Q172 903 252 903Q287 903 318 886L366 863Q382 854 399 854T434 878L443 891Q465 891 487 878T518 846L509 827Q490
787 459 764T393 741T322 758Z" />
<glyph unicode="&#xc4;" glyph-name="Adieresis" horiz-adv-x="634" d="M240 146Q212 146 198 147L154 -1Q131 -7 87 -7T16 4L10 12L232 683Q268 689 321 689T408 682L624 10Q591 -9 545 -9T479 8T446 74L425 147Q411 146 382 146H240ZM233 266L275 267H352Q357
267 370 267T390 266L314 542H309Q300 493 261 358L233 266ZM375 850Q403 866 436 866T494 850Q506 834 506 801T494 752Q470 735 436 735T375 752Q361 767 361 800T375 850ZM169 866T203 866T265 850Q277 836 277 801T265 752Q238 735 203 735T146 752Q134 767
134 800T146 850Q169 866 203 866Z" />
<glyph unicode="&#xc5;" glyph-name="Aring" horiz-adv-x="634" d="M402 683L408 682L624 10Q591 -9 545 -9T479 8T446 74L425 147Q411 146 382 146H240Q212 146 198 147L154 -1Q131 -7 87 -7T16 4L10 12L232 683Q235 683 237 684Q181 719 181 787Q181 841 219
877T320 913T420 877T458 781T402 683ZM233 266L275 267H352Q357 267 370 267T390 266L314 542H309Q300 493 261 358L233 266ZM270 809T270 787T284 751T320 736T355 750T369 787T356 823T320 838T284 824Z" />
<glyph unicode="&#xc6;" glyph-name="AE" horiz-adv-x="885" d="M539 195L538 124V123Q582 125 610 125H849Q849 89 846 71Q834 -3 748 -3H478Q437 -3 414 21T391 87V147Q378 146 354 146H265Q237 146 223 147L160 0Q137 -6 88 -6T11 4L6 12L306 670Q335 683 398
683H824Q830 655 830 624T817 555H538L539 484V405Q565 406 605 406H766Q774 381 774 345T766 281H539V195ZM353 266L391 265V542H387Q350 440 313 357L273 265L308 266H353Z" />
<glyph unicode="&#xc7;" glyph-name="Ccedilla" horiz-adv-x="608" d="M255 -77Q263 -43 275 -13Q211 -6 163 26T89 110Q38 209 38 339Q38 518 119 608T321 698T511 639T582 492Q582 408 495 408Q467 408 437 416Q437 421 437 426Q437 489 412 533T322 577T228
517T198 344T235 174T342 118T510 189Q533 173 554 145T581 91Q542 52 482 24T353 -13Q348 -21 344 -32Q390 -35 417 -59T444 -127T406 -200T312 -231T223 -208Q225 -167 247 -143Q269 -156 294 -156Q332 -156 332 -126Q332 -112 323 -104T301 -95T277 -99Q262
-92 255 -77Z" />
<glyph unicode="&#xc8;" glyph-name="Egrave" horiz-adv-x="572" d="M228 193L227 124V123Q271 125 300 125H536Q536 89 533 71Q519 -3 435 -3H165Q124 -3 101 21T77 87V676L84 683H511Q516 660 516 625T504 555H227L228 484V405Q254 406 295 406H452Q461 382
461 345T452 281H228V193ZM209 934L430 799Q422 747 388 727L150 821Q153 852 171 885T209 934Z" />
<glyph unicode="&#xc9;" glyph-name="Eacute" horiz-adv-x="572" d="M228 193L227 124V123Q271 125 300 125H536Q536 89 533 71Q519 -3 435 -3H165Q124 -3 101 21T77 87V676L84 683H511Q516 660 516 625T504 555H227L228 484V405Q254 406 295 406H452Q461 382
461 345T452 281H228V193ZM178 799L399 934Q419 919 437 886T458 821L220 727Q205 736 193 757T178 799Z" />
<glyph unicode="&#xca;" glyph-name="Ecircumflex" horiz-adv-x="572" d="M228 193L227 124V123Q271 125 300 125H536Q536 89 533 71Q519 -3 435 -3H165Q124 -3 101 21T77 87V676L84 683H511Q516 660 516 625T504 555H227L228 484V405Q254 406 295 406H452Q461
382 461 345T452 281H228V193ZM414 735L297 810L178 724Q161 730 142 748T117 786L235 906Q266 913 297 913T360 907L473 797Q467 776 449 759T414 735Z" />
<glyph unicode="&#xcb;" glyph-name="Edieresis" horiz-adv-x="572" d="M228 193L227 124V123Q271 125 300 125H536Q536 89 533 71Q519 -3 435 -3H165Q124 -3 101 21T77 87V676L84 683H511Q516 660 516 625T504 555H227L228 484V405Q254 406 295 406H452Q461 382
461 345T452 281H228V193ZM354 850Q382 866 415 866T473 850Q485 834 485 801T473 752Q449 735 415 735T354 752Q340 767 340 800T354 850ZM148 866T182 866T244 850Q256 836 256 801T244 752Q217 735 182 735T125 752Q113 767 113 800T125 850Q148 866 182 866Z"
/>
<glyph unicode="&#xcc;" glyph-name="Igrave" horiz-adv-x="314" d="M80 0V683Q110 689 156 689T233 683V0Q203 -6 157 -6T80 0ZM67 935L288 800Q280 748 246 728L8 822Q11 853 29 886T67 935Z" />
<glyph unicode="&#xcd;" glyph-name="Iacute" horiz-adv-x="314" d="M80 0V683Q110 689 156 689T233 683V0Q203 -6 157 -6T80 0ZM36 800L257 935Q277 920 295 887T316 822L78 728Q63 737 51 758T36 800Z" />
<glyph unicode="&#xce;" glyph-name="Icircumflex" horiz-adv-x="314" d="M80 0V683Q110 689 156 689T233 683V0Q203 -6 157 -6T80 0ZM272 736L155 811L36 725Q19 731 0 749T-25 787L93 907Q124 914 155 914T218 908L331 798Q325 777 307 760T272 736Z" />
<glyph unicode="&#xcf;" glyph-name="Idieresis" horiz-adv-x="314" d="M80 0V683Q110 689 156 689T233 683V0Q203 -6 157 -6T80 0ZM212 851Q240 867 273 867T331 851Q343 835 343 802T331 753Q307 736 273 736T212 753Q198 768 198 801T212 851ZM6 867T40 867T102
851Q114 837 114 802T102 753Q75 736 40 736T-17 753Q-29 768 -29 801T-17 851Q6 867 40 867Z" />
<glyph unicode="&#xd0;" glyph-name="Eth" horiz-adv-x="680" d="M594 587T617 514T641 341T618 168T530 44Q498 19 447 7T335 -6T100 -2L93 5V285H25Q18 307 18 346T25 408H93V678L100 685Q216 689 348 689Q395 689 446 676T530 638Q594 587 617 514ZM348 569L242
570V408H373Q379 378 379 346T373 285H242V113H348Q484 113 484 342Q484 504 419 549Q390 569 348 569Z" />
<glyph unicode="&#xd1;" glyph-name="Ntilde" horiz-adv-x="694" d="M609 689L616 683V3Q578 -6 527 -6T435 0L269 366Q227 466 212 507L208 506Q220 364 220 215V0Q190 -6 149 -6T78 0V680Q114 689 165 689T257 683L419 318L482 167L486 168Q474 306 474 457V597Q474
647 494 668T559 689H609ZM352 758L304 781Q288 790 270 790T236 766L227 754Q205 754 183 766T152 798L161 818Q202 903 282 903Q317 903 348 886L396 863Q412 854 429 854T464 878L473 891Q495 891 517 878T548 846L539 827Q520 787 489 764T423 741T352 758Z"
/>
<glyph unicode="&#xd2;" glyph-name="Ograve" horiz-adv-x="665" d="M197 580T197 342T332 103T468 341T333 580ZM145 48Q38 137 38 341T145 635Q222 698 333 698T521 635Q628 546 628 342T521 48Q444 -15 333 -15T145 48ZM243 934L464 799Q456 747 422 727L184
821Q187 852 205 885T243 934Z" />
<glyph unicode="&#xd3;" glyph-name="Oacute" horiz-adv-x="665" d="M197 580T197 342T332 103T468 341T333 580ZM145 48Q38 137 38 341T145 635Q222 698 333 698T521 635Q628 546 628 342T521 48Q444 -15 333 -15T145 48ZM212 799L433 934Q453 919 471 886T492
821L254 727Q239 736 227 757T212 799Z" />
<glyph unicode="&#xd4;" glyph-name="Ocircumflex" horiz-adv-x="665" d="M197 580T197 342T332 103T468 341T333 580ZM145 48Q38 137 38 341T145 635Q222 698 333 698T521 635Q628 546 628 342T521 48Q444 -15 333 -15T145 48ZM448 735L331 810L212 724Q195 730
176 748T151 786L269 906Q300 913 331 913T394 907L507 797Q501 776 483 759T448 735Z" />
<glyph unicode="&#xd5;" glyph-name="Otilde" horiz-adv-x="665" d="M197 580T197 342T332 103T468 341T333 580ZM145 48Q38 137 38 341T145 635Q222 698 333 698T521 635Q628 546 628 342T521 48Q444 -15 333 -15T145 48ZM329 766L280 789Q262 798 246 798T210
774L200 761Q178 761 156 774T125 806L134 825Q152 864 184 887T253 911T324 894L373 871Q391 862 408 862T443 886L453 898Q475 898 497 886T528 854L519 834Q501 795 469 772T401 748T329 766Z" />
<glyph unicode="&#xd6;" glyph-name="Odieresis" horiz-adv-x="665" d="M197 580T197 342T332 103T468 341T333 580ZM145 48Q38 137 38 341T145 635Q222 698 333 698T521 635Q628 546 628 342T521 48Q444 -15 333 -15T145 48ZM388 850Q416 866 449 866T507 850Q519
834 519 801T507 752Q483 735 449 735T388 752Q374 767 374 800T388 850ZM182 866T216 866T278 850Q290 836 290 801T278 752Q251 735 216 735T159 752Q147 767 147 800T159 850Q182 866 216 866Z" />
<glyph unicode="&#xd7;" glyph-name="multiply" horiz-adv-x="530" d="M264 212L146 93Q121 105 95 129Q69 157 59 180L179 298L59 417Q72 447 95 468Q120 493 146 504L224 426L264 384L382 504Q440 476 470 417L351 298L470 180Q443 122 382 93L306 171L264 212Z" />
<glyph unicode="&#xd8;" glyph-name="Oslash" horiz-adv-x="669" d="M127 65Q38 158 38 351T146 635Q221 698 334 698Q398 698 450 678L495 756Q554 747 589 704L540 618Q631 524 631 342Q631 140 523 48Q448 -15 334 -15Q270 -15 218 5L175 -70Q149 -66 123 -52T80
-19L127 65ZM478 342Q478 417 463 473L275 112Q303 99 334 99Q478 99 478 342ZM190 342Q190 262 205 211L393 571Q365 584 334 584Q190 584 190 342Z" />
<glyph unicode="&#xd9;" glyph-name="Ugrave" horiz-adv-x="673" d="M604 683V251Q604 124 534 55T336 -15T138 54T68 251V683L75 689H131Q221 689 221 593V249Q221 177 248 142T336 107T424 142T451 249V683Q481 689 528 689T604 683ZM244 934L465 799Q457 747
423 727L185 821Q188 852 206 885T244 934Z" />
<glyph unicode="&#xda;" glyph-name="Uacute" horiz-adv-x="673" d="M604 683V251Q604 124 534 55T336 -15T138 54T68 251V683L75 689H131Q221 689 221 593V249Q221 177 248 142T336 107T424 142T451 249V683Q481 689 528 689T604 683ZM213 799L434 934Q454 919
472 886T493 821L255 727Q240 736 228 757T213 799Z" />
<glyph unicode="&#xdb;" glyph-name="Ucircumflex" horiz-adv-x="673" d="M604 683V251Q604 124 534 55T336 -15T138 54T68 251V683L75 689H131Q221 689 221 593V249Q221 177 248 142T336 107T424 142T451 249V683Q481 689 528 689T604 683ZM449 735L332 810L213
724Q196 730 177 748T152 786L270 906Q301 913 332 913T395 907L508 797Q502 776 484 759T449 735Z" />
<glyph unicode="&#xdc;" glyph-name="Udieresis" horiz-adv-x="673" d="M604 683V251Q604 124 534 55T336 -15T138 54T68 251V683L75 689H131Q221 689 221 593V249Q221 177 248 142T336 107T424 142T451 249V683Q481 689 528 689T604 683ZM389 850Q417 866 450
866T508 850Q520 834 520 801T508 752Q484 735 450 735T389 752Q375 767 375 800T389 850ZM183 866T217 866T279 850Q291 836 291 801T279 752Q252 735 217 735T160 752Q148 767 148 800T160 850Q183 866 217 866Z" />
<glyph unicode="&#xdd;" glyph-name="Yacute" horiz-adv-x="526" d="M318 505L389 683Q414 689 454 689T526 678L532 669L339 211V0Q309 -6 262 -6T186 0V215L-7 665Q40 691 79 691T136 677T167 630L219 500Q243 438 264 359H270Q286 424 318 505ZM145 799L366
934Q386 919 404 886T425 821L187 727Q172 736 160 757T145 799Z" />
<glyph unicode="&#xde;" glyph-name="Thorn" horiz-adv-x="588" d="M78 0V683Q107 689 154 689T231 683V588Q258 589 312 589Q424 589 490 534T556 365T489 194T312 137H231V0Q201 -6 154 -6T78 0ZM299 471L231 472V253Q289 255 299 255Q400 255 400 363T299 471Z" />
<glyph unicode="&#xdf;" glyph-name="germandbls" horiz-adv-x="653" d="M97 0V364L11 363Q5 388 5 420T11 478L97 477V500Q97 597 161 648T334 700T511 644T578 492Q578 455 561 415Q529 408 512 391T495 355T518 314L556 277Q627 208 627 138T572 27T437 -15T296
14Q297 39 308 69T337 117Q377 97 407 97T453 109T470 144T439 196L399 233Q336 291 336 345Q336 378 359 411T424 462Q426 482 426 491Q426 531 402 558T335 586Q248 586 248 484V0Q215 -6 173 -6T97 0Z" />
<glyph unicode="&#xe0;" glyph-name="agrave" horiz-adv-x="512" d="M481 69Q477 49 463 26T434 -8Q365 -5 330 45Q266 -15 189 -15T72 31T32 136Q32 221 88 265T229 309Q262 309 304 306V328Q304 394 236 394Q193 394 87 362Q57 397 51 466Q98 486 162 498T277
510Q352 510 402 469T453 340V136Q453 89 481 69ZM226 96Q265 96 304 129V212Q282 213 244 213Q177 213 177 146Q177 125 190 111T226 96ZM196 765L350 598Q343 578 325 562T288 540L105 678Q114 706 141 731T196 765Z" />
<glyph unicode="&#xe1;" glyph-name="aacute" horiz-adv-x="512" d="M481 69Q477 49 463 26T434 -8Q365 -5 330 45Q266 -15 189 -15T72 31T32 136Q32 221 88 265T229 309Q262 309 304 306V328Q304 394 236 394Q193 394 87 362Q57 397 51 466Q98 486 162 498T277
510Q352 510 402 469T453 340V136Q453 89 481 69ZM226 96Q265 96 304 129V212Q282 213 244 213Q177 213 177 146Q177 125 190 111T226 96ZM158 598L312 765Q340 756 367 731T403 678L220 540Q201 546 184 562T158 598Z" />
<glyph unicode="&#xe2;" glyph-name="acircumflex" horiz-adv-x="512" d="M481 69Q477 49 463 26T434 -8Q365 -5 330 45Q266 -15 189 -15T72 31T32 136Q32 221 88 265T229 309Q262 309 304 306V328Q304 394 236 394Q193 394 87 362Q57 397 51 466Q98 486 162 498T277
510Q352 510 402 469T453 340V136Q453 89 481 69ZM226 96Q265 96 304 129V212Q282 213 244 213Q177 213 177 146Q177 125 190 111T226 96ZM345 551L253 638L156 544Q113 561 90 601L195 737Q219 745 236 745Q289 745 317 737L410 612Q402 591 383 574T345 551Z"
/>
<glyph unicode="&#xe3;" glyph-name="atilde" horiz-adv-x="512" d="M481 69Q477 49 463 26T434 -8Q365 -5 330 45Q266 -15 189 -15T72 31T32 136Q32 221 88 265T229 309Q262 309 304 306V328Q304 394 236 394Q193 394 87 362Q57 397 51 466Q98 486 162 498T277
510Q352 510 402 469T453 340V136Q453 89 481 69ZM226 96Q265 96 304 129V212Q282 213 244 213Q177 213 177 146Q177 125 190 111T226 96ZM251 572L206 595Q190 604 175 604T141 580L132 567Q111 567 90 580T62 612L70 631Q87 670 117 693T181 717T247 700L292
677Q308 668 324 668T357 692L366 704Q387 704 407 692T436 660L428 640Q411 601 381 578T318 554T251 572Z" />
<glyph unicode="&#xe4;" glyph-name="adieresis" horiz-adv-x="512" d="M481 69Q477 49 463 26T434 -8Q365 -5 330 45Q266 -15 189 -15T72 31T32 136Q32 221 88 265T229 309Q262 309 304 306V328Q304 394 236 394Q193 394 87 362Q57 397 51 466Q98 486 162 498T277
510Q352 510 402 469T453 340V136Q453 89 481 69ZM226 96Q265 96 304 129V212Q282 213 244 213Q177 213 177 146Q177 125 190 111T226 96ZM278 595T278 622T286 670Q313 686 349 686T411 670Q420 649 420 621T411 574Q385 558 349 558T286 574Q278 595 278 622ZM78
595T78 622T87 670Q113 686 149 686T212 670Q220 649 220 622T212 574Q185 558 149 558T87 574Q78 595 78 622Z" />
<glyph unicode="&#xe5;" glyph-name="aring" horiz-adv-x="512" d="M481 69Q477 49 463 26T434 -8Q365 -5 330 45Q266 -15 189 -15T72 31T32 136Q32 221 88 265T229 309Q262 309 304 306V328Q304 394 236 394Q193 394 87 362Q57 397 51 466Q98 486 162 498T277
510Q352 510 402 469T453 340V136Q453 89 481 69ZM226 96Q265 96 304 129V212Q282 213 244 213Q177 213 177 146Q177 125 190 111T226 96ZM187 542T149 578T111 668T149 758T249 795T349 759T387 669T349 579T249 542ZM200 691T200 669T213 633T249 618T284 632T298
669T285 705T249 720T214 706Z" />
<glyph unicode="&#xe6;" glyph-name="ae" horiz-adv-x="759" d="M715 201H453Q456 153 476 127T547 100T674 131Q706 99 714 42Q635 -15 523 -15T355 58Q282 -15 183 -15Q111 -15 72 30T32 137Q32 221 88 265T229 309Q264 309 304 306V328Q304 394 237 394Q187
394 87 362Q57 397 51 466Q157 510 266 510Q345 510 390 462Q444 513 522 513Q618 513 672 454T727 301Q727 245 715 201ZM226 96Q275 96 316 140Q306 175 305 211Q283 213 244 213Q177 213 177 146Q177 125 190 111T226 96ZM521 407Q487 407 471 382T452 304H589V315Q589
407 521 407Z" />
<glyph unicode="&#xe7;" glyph-name="ccedilla" horiz-adv-x="474" d="M187 -77Q198 -36 208 -12Q123 2 78 71T32 248Q32 382 97 447T250 513T393 467T447 349Q447 313 428 295T373 276T313 281Q313 286 313 290Q313 346 302 374T253 402T200 366T184 249T206
136T276 102T386 145Q404 135 421 110T443 62Q384 0 285 -13Q280 -21 276 -32Q322 -35 349 -59T376 -127T338 -200T244 -231T155 -208Q157 -168 179 -143Q201 -156 226 -156Q264 -156 264 -126Q264 -112 255 -104T233 -95T209 -99Q194 -92 187 -77Z" />
<glyph unicode="&#xe8;" glyph-name="egrave" horiz-adv-x="497" d="M448 201H183Q186 153 207 127T281 100T407 131Q438 101 448 42Q367 -15 252 -15Q190 -15 145 6T76 66Q32 139 32 253T87 440T246 513T405 454T461 301Q461 249 448 201ZM323 356T306 381T254
407T202 382T182 304H323V316Q323 356 306 381ZM202 765L356 598Q349 578 331 562T294 540L111 678Q120 706 147 731T202 765Z" />
<glyph unicode="&#xe9;" glyph-name="eacute" horiz-adv-x="497" d="M448 201H183Q186 153 207 127T281 100T407 131Q438 101 448 42Q367 -15 252 -15Q190 -15 145 6T76 66Q32 139 32 253T87 440T246 513T405 454T461 301Q461 249 448 201ZM323 356T306 381T254
407T202 382T182 304H323V316Q323 356 306 381ZM164 598L318 765Q346 756 373 731T409 678L226 540Q207 546 190 562T164 598Z" />
<glyph unicode="&#xea;" glyph-name="ecircumflex" horiz-adv-x="497" d="M448 201H183Q186 153 207 127T281 100T407 131Q438 101 448 42Q367 -15 252 -15Q190 -15 145 6T76 66Q32 139 32 253T87 440T246 513T405 454T461 301Q461 249 448 201ZM323 356T306 381T254
407T202 382T182 304H323V316Q323 356 306 381ZM351 551L259 638L162 544Q119 561 96 601L201 737Q225 745 242 745Q295 745 323 737L416 612Q408 591 389 574T351 551Z" />
<glyph unicode="&#xeb;" glyph-name="edieresis" horiz-adv-x="497" d="M448 201H183Q186 153 207 127T281 100T407 131Q438 101 448 42Q367 -15 252 -15Q190 -15 145 6T76 66Q32 139 32 253T87 440T246 513T405 454T461 301Q461 249 448 201ZM323 356T306 381T254
407T202 382T182 304H323V316Q323 356 306 381ZM284 595T284 622T292 670Q319 686 355 686T417 670Q426 649 426 621T417 574Q391 558 355 558T292 574Q284 595 284 622ZM84 595T84 622T93 670Q119 686 155 686T218 670Q226 649 226 622T218 574Q191 558 155 558T93
574Q84 595 84 622Z" />
<glyph unicode="&#xec;" glyph-name="igrave" horiz-adv-x="287" d="M227 387V0Q197 -6 154 -6T78 0V336Q78 393 31 393H17Q11 418 11 445T17 497Q67 502 102 502H122Q171 502 199 471T227 387ZM77 765L231 598Q224 578 206 562T169 540L-14 678Q-5 706 22 731T77 765Z" />
<glyph unicode="&#xed;" glyph-name="iacute" horiz-adv-x="287" d="M227 387V0Q197 -6 154 -6T78 0V336Q78 393 31 393H17Q11 418 11 445T17 497Q67 502 102 502H122Q171 502 199 471T227 387ZM40 598L194 765Q222 756 249 731T285 678L102 540Q83 546 66 562T40 598Z" />
<glyph unicode="&#xee;" glyph-name="icircumflex" horiz-adv-x="287" d="M227 387V0Q197 -6 154 -6T78 0V336Q78 393 31 393H17Q11 418 11 445T17 497Q67 502 102 502H122Q171 502 199 471T227 387ZM227 551L135 638L38 544Q-5 561 -28 601L77 737Q101 745 118
745Q171 745 199 737L292 612Q284 591 265 574T227 551Z" />
<glyph unicode="&#xef;" glyph-name="idieresis" horiz-adv-x="287" d="M227 387V0Q197 -6 154 -6T78 0V336Q78 393 31 393H17Q11 418 11 445T17 497Q67 502 102 502H122Q171 502 199 471T227 387ZM160 595T160 622T168 670Q195 686 231 686T293 670Q302 649 302
621T293 574Q267 558 231 558T168 574Q160 595 160 622ZM-40 595T-40 622T-31 670Q-5 686 31 686T94 670Q102 649 102 622T94 574Q67 558 31 558T-31 574Q-40 595 -40 622Z" />
<glyph unicode="&#xf0;" glyph-name="eth" horiz-adv-x="519" d="M88 571L161 621Q130 643 97 662Q100 688 117 715T155 752Q214 727 265 693L350 751Q387 725 398 682L334 638Q488 490 488 249Q488 115 416 44Q357 -15 259 -15T102 44Q31 114 31 241T103 434Q162
487 247 487Q269 487 290 479Q272 523 228 565L136 502Q98 528 88 571ZM304 94T320 135T336 247T325 362Q290 381 261 381Q183 381 183 240Q183 173 199 134T259 94Z" />
<glyph unicode="&#xf1;" glyph-name="ntilde" horiz-adv-x="547" d="M487 331V123Q487 59 511 24Q472 -8 424 -8T357 15T338 85V303Q338 340 328 357T293 374Q250 374 211 335V0Q180 -6 138 -6T62 0V498L69 505H125Q187 505 204 445Q277 507 346 507T451 459T487
331ZM282 572L237 595Q221 604 206 604T172 580L163 567Q142 567 121 580T93 612L101 631Q118 670 148 693T212 717T278 700L323 677Q339 668 355 668T388 692L397 704Q418 704 438 692T467 660L459 640Q442 601 412 578T349 554T282 572Z" />
<glyph unicode="&#xf2;" glyph-name="ograve" horiz-adv-x="522" d="M418 455Q490 383 490 250T418 44Q359 -15 261 -15T104 44Q32 116 32 249T104 455Q163 513 261 513T418 455ZM185 322T185 249T200 137T261 97T321 136T337 249T322 362T261 402T201 362ZM207
765L361 598Q354 578 336 562T299 540L116 678Q125 706 152 731T207 765Z" />
<glyph unicode="&#xf3;" glyph-name="oacute" horiz-adv-x="522" d="M418 455Q490 383 490 250T418 44Q359 -15 261 -15T104 44Q32 116 32 249T104 455Q163 513 261 513T418 455ZM185 322T185 249T200 137T261 97T321 136T337 249T322 362T261 402T201 362ZM169
598L323 765Q351 756 378 731T414 678L231 540Q212 546 195 562T169 598Z" />
<glyph unicode="&#xf4;" glyph-name="ocircumflex" horiz-adv-x="522" d="M418 455Q490 383 490 250T418 44Q359 -15 261 -15T104 44Q32 116 32 249T104 455Q163 513 261 513T418 455ZM185 322T185 249T200 137T261 97T321 136T337 249T322 362T261 402T201 362ZM357
551L265 638L168 544Q125 561 102 601L207 737Q231 745 248 745Q301 745 329 737L422 612Q414 591 395 574T357 551Z" />
<glyph unicode="&#xf5;" glyph-name="otilde" horiz-adv-x="522" d="M418 455Q490 383 490 250T418 44Q359 -15 261 -15T104 44Q32 116 32 249T104 455Q163 513 261 513T418 455ZM185 322T185 249T200 137T261 97T321 136T337 249T322 362T261 402T201 362ZM263
572L218 595Q202 604 187 604T153 580L144 567Q123 567 102 580T74 612L82 631Q99 670 129 693T193 717T259 700L304 677Q320 668 336 668T369 692L378 704Q399 704 419 692T448 660L440 640Q423 601 393 578T330 554T263 572Z" />
<glyph unicode="&#xf6;" glyph-name="odieresis" horiz-adv-x="522" d="M418 455Q490 383 490 250T418 44Q359 -15 261 -15T104 44Q32 116 32 249T104 455Q163 513 261 513T418 455ZM185 322T185 249T200 137T261 97T321 136T337 249T322 362T261 402T201 362ZM290
595T290 622T298 670Q325 686 361 686T423 670Q432 649 432 621T423 574Q397 558 361 558T298 574Q290 595 290 622ZM90 595T90 622T99 670Q125 686 161 686T224 670Q232 649 232 622T224 574Q197 558 161 558T99 574Q90 595 90 622Z" />
<glyph unicode="&#xf7;" glyph-name="divide" horiz-adv-x="530" d="M190 449T190 477T200 528Q227 543 266 543T329 528Q340 506 340 477T329 426Q307 412 265 412T200 426Q190 449 190 477ZM200 68Q190 91 190 119T200 171Q228 185 266 185T329 171Q340 149
340 120T329 68Q304 54 264 54T200 68ZM477 239H53Q47 263 47 298T53 359H477Q483 334 483 299T477 239Z" />
<glyph unicode="&#xf8;" glyph-name="oslash" horiz-adv-x="525" d="M420 455Q491 385 491 249T420 44Q362 -15 262 -15Q212 -15 176 -1L142 -60Q94 -50 67 -18L103 44Q34 113 34 249T104 455Q163 513 262 513Q309 513 347 500L381 559Q429 547 456 518L420 455ZM353
250Q353 294 348 321L230 97Q245 91 263 91Q353 91 353 250ZM184 360T178 328T172 251T177 179L294 402Q280 408 263 408Q227 408 206 384Z" />
<glyph unicode="&#xf9;" glyph-name="ugrave" horiz-adv-x="549" d="M60 167V376Q60 439 36 474Q73 506 122 506T190 483T209 414V195Q209 158 219 142T254 125Q297 125 335 162V498Q366 504 409 504T485 498V142Q485 87 513 67Q509 47 495 26T466 -8Q386 -5 352
62Q276 -9 204 -9T96 39T60 167ZM212 765L366 598Q359 578 341 562T304 540L121 678Q130 706 157 731T212 765Z" />
<glyph unicode="&#xfa;" glyph-name="uacute" horiz-adv-x="549" d="M60 167V376Q60 439 36 474Q73 506 122 506T190 483T209 414V195Q209 158 219 142T254 125Q297 125 335 162V498Q366 504 409 504T485 498V142Q485 87 513 67Q509 47 495 26T466 -8Q386 -5 352
62Q276 -9 204 -9T96 39T60 167ZM174 598L328 765Q356 756 383 731T419 678L236 540Q217 546 200 562T174 598Z" />
<glyph unicode="&#xfb;" glyph-name="ucircumflex" horiz-adv-x="549" d="M60 167V376Q60 439 36 474Q73 506 122 506T190 483T209 414V195Q209 158 219 142T254 125Q297 125 335 162V498Q366 504 409 504T485 498V142Q485 87 513 67Q509 47 495 26T466 -8Q386
-5 352 62Q276 -9 204 -9T96 39T60 167ZM362 551L270 638L173 544Q130 561 107 601L212 737Q236 745 253 745Q306 745 334 737L427 612Q419 591 400 574T362 551Z" />
<glyph unicode="&#xfc;" glyph-name="udieresis" horiz-adv-x="549" d="M60 167V376Q60 439 36 474Q73 506 122 506T190 483T209 414V195Q209 158 219 142T254 125Q297 125 335 162V498Q366 504 409 504T485 498V142Q485 87 513 67Q509 47 495 26T466 -8Q386 -5
352 62Q276 -9 204 -9T96 39T60 167ZM295 595T295 622T303 670Q330 686 366 686T428 670Q437 649 437 621T428 574Q402 558 366 558T303 574Q295 595 295 622ZM95 595T95 622T104 670Q130 686 166 686T229 670Q237 649 237 622T229 574Q202 558 166 558T104 574Q95
595 95 622Z" />
<glyph unicode="&#xfd;" glyph-name="yacute" horiz-adv-x="493" d="M487 483L362 14Q331 -103 279 -161T120 -219Q60 -219 2 -199Q2 -194 2 -181T9 -138T32 -93Q84 -108 120 -108Q195 -108 221 -21L225 -7Q141 -5 125 55L6 487Q50 507 88 507T144 493T170 443L220
245Q228 216 244 112Q245 105 253 105L343 498Q368 504 408 504T482 493L487 483ZM154 598L308 765Q336 756 363 731T399 678L216 540Q197 546 180 562T154 598Z" />
<glyph unicode="&#xfe;" glyph-name="thorn" horiz-adv-x="533" d="M500 264Q500 130 443 60T305 -10Q257 -10 206 12V-126Q206 -175 188 -195T125 -216H69L62 -209V729L69 736H125Q169 736 187 716T206 646V467Q257 508 321 508Q403 508 451 440T500 264ZM283
389Q239 389 206 347V126Q248 101 275 101Q348 101 348 254Q348 322 330 355T283 389Z" />
<glyph unicode="&#xff;" glyph-name="ydieresis" horiz-adv-x="493" d="M487 483L362 14Q331 -103 279 -161T120 -219Q60 -219 2 -199Q2 -194 2 -181T9 -138T32 -93Q84 -108 120 -108Q195 -108 221 -21L225 -7Q141 -5 125 55L6 487Q50 507 88 507T144 493T170
443L220 245Q228 216 244 112Q245 105 253 105L343 498Q368 504 408 504T482 493L487 483ZM274 595T274 622T282 670Q309 686 345 686T407 670Q416 649 416 621T407 574Q381 558 345 558T282 574Q274 595 274 622ZM74 595T74 622T83 670Q109 686 145 686T208 670Q216
649 216 622T208 574Q181 558 145 558T83 574Q74 595 74 622Z" />
<glyph unicode="&#x2013;" glyph-name="endash" horiz-adv-x="552" d="M490 209H63Q56 232 56 266T63 323H490Q497 300 497 266T490 209Z" />
<glyph unicode="&#x2014;" glyph-name="emdash" horiz-adv-x="813" d="M739 209H75Q68 232 68 266T75 323H739Q745 299 745 266T739 209Z" />
<glyph unicode="&#x2018;" glyph-name="quoteleft" horiz-adv-x="263" d="M52 506Q39 538 39 583Q39 655 81 711T205 791Q240 773 240 733Q240 728 239 722Q209 713 183 691T155 637Q192 631 201 623Q212 601 212 565T201 506Q169 488 125 488T52 506Z" />
<glyph unicode="&#x2019;" glyph-name="quoteright" horiz-adv-x="263" d="M211 773Q224 737 224 696Q224 624 182 568T57 488Q23 506 23 546Q23 551 24 557Q55 568 80 589T107 642Q73 648 62 656Q51 678 51 716T62 773Q93 791 139 791T211 773Z" />
<glyph unicode="&#x201a;" glyph-name="quotesinglbase" horiz-adv-x="263" d="M210 122Q222 89 222 45Q222 -27 180 -83T56 -163Q22 -145 22 -103Q22 -99 22 -94Q53 -84 79 -62T106 -9Q72 -3 61 5Q50 24 50 63T61 122Q92 140 135 140T210 122Z" />
<glyph unicode="&#x201c;" glyph-name="quotedblleft" horiz-adv-x="492" d="M49 506Q36 538 36 583Q36 655 78 711T202 791Q237 773 237 733Q237 728 236 722Q206 713 180 691T152 637Q189 631 198 623Q209 601 209 565T198 506Q166 488 122 488T49 506ZM279
506Q266 538 266 583Q266 655 308 711T432 791Q467 773 467 733Q467 728 466 722Q436 713 410 691T382 637Q419 631 428 623Q439 601 439 565T428 506Q396 488 352 488T279 506Z" />
<glyph unicode="&#x201d;" glyph-name="quotedblright" horiz-adv-x="492" d="M215 773Q228 737 228 696Q228 624 186 568T61 488Q27 506 27 546Q27 551 28 557Q59 568 84 589T111 642Q77 648 66 656Q55 678 55 716T66 773Q97 791 143 791T215 773ZM445 773Q458
737 458 696Q458 624 416 568T291 488Q257 506 257 546Q257 551 258 557Q289 568 314 589T341 642Q307 648 296 656Q285 678 285 716T296 773Q327 791 373 791T445 773Z" />
<glyph unicode="&#x201e;" glyph-name="quotedblbase" horiz-adv-x="492" d="M210 122Q222 89 222 45Q222 -27 180 -83T56 -163Q22 -145 22 -103Q22 -99 22 -94Q53 -84 79 -62T106 -9Q72 -3 61 5Q50 24 50 63T61 122Q92 140 135 140T210 122ZM440 122Q452 89 452
45Q452 -27 410 -83T286 -163Q252 -145 252 -103Q252 -99 252 -94Q283 -84 309 -62T336 -9Q302 -3 291 5Q280 24 280 63T291 122Q322 140 365 140T440 122Z" />
<glyph unicode="&#x2022;" glyph-name="bullet" horiz-adv-x="460" d="M97 207T97 268T115 365Q162 394 231 394T348 365Q365 325 365 268T348 171Q307 144 232 144T115 171Q97 207 97 268Z" />
<glyph unicode="&#x2039;" glyph-name="guilsinglleft" horiz-adv-x="347" d="M311 410L187 258L315 102Q308 79 283 56T233 27L31 212Q24 229 24 255T31 298L231 486Q255 481 279 458T311 410Z" />
<glyph unicode="&#x203a;" glyph-name="guilsinglright" horiz-adv-x="347" d="M36 103L160 256L32 411Q39 434 64 457T114 486L316 301Q324 284 324 259T316 216L116 27Q91 33 67 56T36 103Z" />
</font>
</defs>
</svg>
