<?xml version="1.0" standalone="no"?>
<!DOCTYPE svg PUBLIC "-//W3C//DTD SVG 1.1//EN" "http://www.w3.org/Graphics/SVG/1.1/DTD/svg11.dtd">
<svg xmlns="http://www.w3.org/2000/svg">
<defs >
<font id="AsapCondensed" horiz-adv-x="463" ><font-face
    font-family="Asap Condensed"
    units-per-em="1000"
    panose-1="2 15 5 6 3 2 2 13 2 3"
    ascent="934"
    descent="-212"
    alphabetic="0" />
<glyph unicode=" " glyph-name="space" horiz-adv-x="137" />
<glyph unicode="!" glyph-name="exclam" horiz-adv-x="246" d="M88 202T82 207T76 224L124 680Q126 702 164 702H187Q224 702 222 680L146 224Q144 213 137 208T113 202H105Q88 202 82 207ZM40 -2T43 20L50 86Q52 108 90 108H108Q146 108 144 86L137 20Q134 -2
96 -2H78Q40 -2 43 20Z" />
<glyph unicode="&quot;" glyph-name="quotedbl" horiz-adv-x="309" d="M93 472T90 484L88 668L89 680Q91 702 131 702H141Q181 702 179 680Q178 670 135 484Q132 472 112 472H111Q93 472 90 484ZM221 472T218 484L216 668L217 680Q219 702 259 702H269Q309 702
307 680Q306 670 263 484Q260 472 240 472H239Q221 472 218 484Z" />
<glyph unicode="#" glyph-name="numbersign" horiz-adv-x="514" d="M59 -2T60 16L104 196H36Q26 196 22 203T19 226L21 243Q24 273 44 273H124L160 420H90Q80 420 76 427T73 450L75 467Q78 497 98 497H178L219 665Q222 676 231 681T260 686H267Q299 686 294 666L252
497H352L392 665Q395 676 404 681T433 686H442Q474 686 469 666L428 497H493Q503 497 507 490T510 467L508 450Q505 420 485 420H408L372 273H442Q452 273 456 266T459 243L457 226Q454 196 434 196H353L310 19Q308 8 299 3T270 -2H262Q234 -2 235 17L278 196H178L135
19Q133 8 124 3T95 -2H88Q59 -2 60 16ZM298 273L334 420H234L198 273H298Z" />
<glyph unicode="$" glyph-name="dollar" horiz-adv-x="440" d="M172 -68T169 -64T165 -48L168 -5Q117 -4 80 5T11 39Q7 43 5 47T3 61Q3 78 9 96T26 115Q31 115 38 110Q64 90 97 82T176 73L202 317Q136 356 98 401T60 513Q60 596 110 650T245 710L248 735Q250 746
254 750T270 755H272Q288 755 288 735L286 710Q322 708 356 701T410 681Q416 677 416 670Q416 658 406 633T387 607Q384 607 380 609T373 612Q326 634 277 634L252 393Q316 357 352 314T388 204Q388 116 341 61T210 -3L205 -48Q204 -68 183 -68H182Q172 -68 169
-64ZM237 630Q198 622 173 597T147 525Q147 492 163 466T213 417L237 630ZM256 89T277 116T299 188Q299 249 241 292L218 79Q256 89 277 116Z" />
<glyph unicode="%" glyph-name="percent" horiz-adv-x="686" d="M140 381T108 409T76 508Q76 518 78 542Q96 706 221 706Q268 706 299 678T330 580Q330 556 328 542Q319 451 280 416T187 381Q140 381 108 409ZM145 -7T140 -5T136 2Q136 6 142 16L506 687Q514 706
541 706H556Q573 706 573 697Q572 695 571 693T569 687L204 12Q193 -7 169 -7H153Q145 -7 140 -5ZM228 437T244 467T264 542Q266 564 266 578Q266 651 216 651Q180 651 165 620T144 542Q142 522 142 511Q142 437 193 437Q228 437 244 467ZM374 -5T374 121Q374 130
376 156Q393 320 518 320Q565 320 596 292T628 191Q628 182 626 156Q617 65 577 30T484 -5Q374 -5 374 121ZM524 51T540 81T562 156Q564 176 564 188Q564 265 512 265Q477 265 462 234T441 156Q439 136 439 125Q439 51 490 51Q524 51 540 81Z" />
<glyph unicode="&amp;" glyph-name="ampersand" horiz-adv-x="520" d="M500 408T497 378L496 366Q493 336 474 336H417L396 140Q395 131 395 115Q395 87 403 77T426 66Q437 66 444 68T456 71Q464 71 467 57T471 28Q471 -6 403 -6Q346 -6 323 37Q288 17 256 6T184
-6Q115 -6 70 36T24 167Q24 177 26 203Q34 278 66 326T143 387L144 391Q114 407 96 438T78 515Q78 530 79 538Q88 620 137 663T260 706Q290 706 311 699T331 674Q331 668 322 647T305 625Q302 625 290 629T261 634Q225 634 204 612T173 563T164 515Q164 473 185
441T250 408H337L359 513Q364 535 394 535H408Q438 535 435 513L424 408H481Q500 408 497 378ZM112 184T112 175Q112 117 137 92T201 66Q225 66 249 75T308 101L307 115L308 132L330 336H239Q183 336 153 307T114 204Q112 184 112 175Z" />
<glyph unicode="&apos;" glyph-name="quotesingle" horiz-adv-x="164" d="M85 472T82 484L80 668L81 680Q83 702 123 702H133Q173 702 171 680Q170 670 127 484Q124 472 104 472H103Q85 472 82 484Z" />
<glyph unicode="(" glyph-name="parenleft" horiz-adv-x="249" d="M144 -212T133 -201Q75 -139 44 -39T12 183Q12 234 18 286Q34 438 92 567T236 773Q246 783 258 783Q267 783 276 776T285 760Q285 747 274 736Q203 663 159 545T99 286Q92 216 92 168Q92 65 113
-21T178 -164Q187 -174 185 -184Q184 -192 175 -202T154 -212Q144 -212 133 -201Z" />
<glyph unicode=")" glyph-name="parenright" horiz-adv-x="249" d="M-16 -212T-24 -203T-32 -184Q-30 -175 -22 -167Q48 -94 94 25T155 286Q161 345 161 401Q161 506 140 592T74 736Q66 749 67 757Q68 766 78 774T100 783Q110 783 120 773Q178 710 209 609T241
385Q241 343 236 286Q220 134 162 5T17 -201Q6 -212 -6 -212Q-16 -212 -24 -203Z" />
<glyph unicode="*" glyph-name="asterisk" horiz-adv-x="299" d="M87 436T80 442T74 455Q76 461 81 468L147 559L70 591Q64 594 61 597T57 604Q57 615 64 622T78 630Q86 630 89 627L163 598L173 689Q174 709 195 709Q205 709 209 705T213 689L203 598L282 627Q287
630 295 630Q301 630 305 625T310 611Q310 603 307 599T295 591L209 559L258 468Q262 458 261 455Q260 448 252 442T236 436Q228 436 222 445L176 531L111 445Q105 436 95 436Q87 436 80 442Z" />
<glyph unicode="+" glyph-name="plus" horiz-adv-x="449" d="M263 463T269 459T276 443L257 264H385Q396 264 399 257T402 234Q402 197 378 197H250L231 18Q228 -2 199 -2H192Q176 -2 170 2T164 18L183 197H54Q43 197 40 204T37 227Q37 264 61 264H190L209 443Q210
454 217 458T241 463H248Q263 463 269 459Z" />
<glyph unicode="," glyph-name="comma" horiz-adv-x="188" d="M-9 -116T-17 -113T-25 -101Q-24 -95 -16 -77Q2 -38 13 -3T29 76Q31 91 41 99T70 108H80Q98 108 107 101T115 80Q109 24 88 -20T42 -90T1 -116Q-9 -116 -17 -113Z" />
<glyph unicode="-" glyph-name="hyphen" horiz-adv-x="256" d="M28 230T31 260L32 270Q35 300 54 300H210Q229 300 226 270L225 260Q222 230 203 230H47Q28 230 31 260Z" />
<glyph unicode="." glyph-name="period" horiz-adv-x="188" d="M19 -2T22 20L29 86Q31 108 69 108H87Q125 108 123 86L116 20Q113 -2 75 -2H57Q19 -2 22 20Z" />
<glyph unicode="/" glyph-name="slash" horiz-adv-x="320" d="M-14 -76T-14 -58Q-14 -51 -11 -43L253 683Q260 703 286 703H292Q316 703 316 685Q316 681 313 672L49 -56Q45 -67 38 -71T16 -76H12Q-14 -76 -14 -58Z" />
<glyph unicode="0" glyph-name="zero" horiz-adv-x="459" d="M125 -6T82 57T38 254Q38 306 43 350Q62 532 124 619T275 706Q350 706 394 643T439 448Q439 404 433 350Q414 168 352 81T200 -6Q125 -6 82 57ZM256 66T293 133T346 350Q352 410 352 456Q352 549 329
591T268 634Q219 634 183 568T131 350Q125 289 125 243Q125 66 208 66Q256 66 293 133Z" />
<glyph unicode="1" glyph-name="one" horiz-adv-x="459" d="M30 0T30 20Q30 26 31 30L32 42Q35 72 55 72H188L245 611L95 587Q87 587 84 598T80 625L81 638Q82 646 86 650T101 657L307 702Q319 702 328 696T336 681L272 72H385Q395 72 399 65T402 42L401 30Q399
14 394 7T378 0H48Q30 0 30 20Z" />
<glyph unicode="2" glyph-name="two" horiz-adv-x="459" d="M8 0T4 14T1 44Q3 57 7 61L277 395Q318 447 333 474T351 532Q352 537 352 546Q352 588 325 611T250 634Q211 634 184 623T131 593Q114 581 109 581Q102 581 92 599T81 630Q81 649 110 666T181 695T261
706Q341 706 390 667T439 559Q439 546 438 539Q434 501 420 470T373 395T270 272L114 71H372Q382 71 386 64T389 41L388 30Q386 14 381 7T365 0H17Q8 0 4 14Z" />
<glyph unicode="3" glyph-name="three" horiz-adv-x="459" d="M122 -6T83 2T19 24T-5 50Q-5 63 10 82T35 101Q39 101 46 98T57 93Q79 81 103 74T162 66Q216 66 261 98T314 206Q315 214 315 230Q315 288 281 312T185 336H145Q135 336 131 343T128 366L129 377Q132
407 152 407H188Q237 407 268 432T314 490T329 548Q329 584 306 609T226 634Q194 634 171 627T125 608Q111 601 106 601Q98 601 88 620T78 652Q78 673 133 689T238 706Q321 706 367 667T414 557Q414 439 295 391L294 387Q338 374 370 333T402 226Q402 209 401 200Q394
134 361 88T277 18T167 -6Q122 -6 83 2Z" />
<glyph unicode="4" glyph-name="four" horiz-adv-x="459" d="M257 -2T260 20L275 167H28Q20 167 14 185T9 218Q10 225 13 229L329 689Q339 702 364 702H384Q414 702 412 680L366 239H422Q439 239 439 219Q439 213 438 209L437 197Q434 167 414 167H358L343 20Q340
-2 310 -2H287Q257 -2 260 20ZM283 239L304 439Q311 503 325 561L322 563L102 239H283Z" />
<glyph unicode="5" glyph-name="five" horiz-adv-x="459" d="M126 -6T90 3T33 26T12 53Q12 67 27 85T52 104Q57 104 73 95Q99 81 121 74T176 66Q214 66 248 85T303 142T324 232Q324 290 287 320T177 350H102Q86 350 81 357T77 380L125 670Q129 700 160 700H408Q418
700 422 693T425 670L424 658Q422 642 417 635T401 628H202L167 422H211Q293 422 352 380T411 241Q411 232 409 210Q397 94 329 44T172 -6Q126 -6 90 3Z" />
<glyph unicode="6" glyph-name="six" horiz-adv-x="459" d="M117 -5T75 47T33 193Q33 218 36 243Q50 378 121 482T275 644T398 702Q412 702 419 682T426 649Q423 641 417 638Q317 597 251 529T151 372Q203 405 268 405Q334 405 375 359T417 235Q417 226 415 204Q408
141 378 94T301 21T199 -5Q117 -5 75 47ZM239 67T266 84T312 136T331 224Q331 279 304 306T234 333Q182 333 129 301Q123 273 120 241Q117 217 117 197Q117 126 144 97T210 67Q239 67 266 84Z" />
<glyph unicode="7" glyph-name="seven" horiz-adv-x="459" d="M72 -2T63 1T55 15Q55 18 61 30L370 628H92Q74 628 74 648Q74 654 75 658L76 670Q79 700 99 700H454Q460 700 465 682T469 649L466 638L148 14Q141 -2 106 -2H94Q72 -2 63 1Z" />
<glyph unicode="8" glyph-name="eight" horiz-adv-x="459" d="M123 -6T77 36T30 161Q30 170 32 192Q46 321 153 374Q88 421 88 506Q88 522 89 531Q98 615 151 660T278 706Q343 706 387 670T432 561Q432 546 431 538Q425 478 396 438T321 376Q365 350 389 317T414
225Q414 216 412 196Q402 101 343 48T199 -6Q123 -6 77 36ZM297 432T319 461T346 534Q347 540 347 551Q347 593 326 613T269 634Q228 634 201 605T173 519Q173 478 195 455T260 409Q297 432 319 461ZM239 66T266 84T310 136T327 214Q327 249 312 272T276 307T211
342Q171 318 148 284T118 197Q117 189 117 174Q117 120 142 93T207 66Q239 66 266 84Z" />
<glyph unicode="9" glyph-name="nine" horiz-adv-x="459" d="M65 -4T58 16T52 49Q52 56 61 60Q160 101 226 169T326 326Q274 293 208 293Q141 293 101 340T60 465Q60 536 89 590T168 673T277 703Q359 703 401 651T443 505Q443 482 440 455Q426 320 355 216T201
54T79 -4Q65 -4 58 16ZM294 365T347 398Q355 438 357 458Q359 473 359 500Q359 573 333 602T267 631Q239 631 211 614T165 562T146 474Q146 419 173 392T243 365Q294 365 347 398Z" />
<glyph unicode=":" glyph-name="colon" horiz-adv-x="188" d="M63 415T65 437L72 503Q75 525 113 525H131Q169 525 166 503L159 437Q157 415 119 415H101Q63 415 65 437ZM19 -2T22 20L29 86Q31 108 69 108H87Q125 108 123 86L116 20Q113 -2 75 -2H57Q19 -2 22 20Z" />
<glyph unicode=";" glyph-name="semicolon" horiz-adv-x="188" d="M57 415T59 437L66 503Q69 525 107 525H125Q163 525 160 503L153 437Q151 415 113 415H95Q57 415 59 437ZM-43 -116T-51 -113T-58 -101Q-57 -95 -49 -77Q-31 -38 -20 -3T-4 76Q-2 91 8 99T37 108H47Q65
108 74 101T82 80Q76 24 55 -20T9 -90T-32 -116Q-43 -116 -51 -113Z" />
<glyph unicode="&lt;" glyph-name="less" horiz-adv-x="448" d="M44 184Q25 195 28 219L29 236Q32 260 53 271L403 445Q411 448 416 448Q430 448 428 422L426 408Q425 385 402 372L120 228L372 83Q391 71 388 47L387 33Q384 7 370 7Q365 7 359 10L44 184Z" />
<glyph unicode="=" glyph-name="equal" horiz-adv-x="449" d="M38 271T41 301L42 308Q45 338 69 338H397Q420 338 417 308L416 301Q413 271 390 271H62Q38 271 41 301ZM21 107T24 137L25 145Q28 175 52 175H380Q403 175 400 145L399 137Q396 107 373 107H45Q21
107 24 137Z" />
<glyph unicode="&gt;" glyph-name="greater" horiz-adv-x="448" d="M12 46Q15 74 37 86L323 229L68 371Q58 377 54 385T51 407L53 421Q56 447 70 447Q75 447 81 444L394 270Q404 265 407 257T410 235L409 218Q408 205 403 197T385 183L35 9Q29 6 24 6Q17 6 13
13T11 32L12 46Z" />
<glyph unicode="?" glyph-name="question" horiz-adv-x="391" d="M103 202T105 225Q109 259 134 302T204 389Q256 440 279 473T303 548Q303 632 204 632Q161 632 111 606Q107 604 100 601T89 598Q82 598 72 618T63 649Q65 673 115 689T221 706Q303 706 350 665T398
560Q398 522 382 489T345 429T284 363Q237 316 214 287T183 222Q180 211 173 207T148 202H133Q103 202 105 225ZM68 -2T71 20L78 86Q80 108 120 108H137Q177 108 175 86L168 20Q165 -2 125 -2H108Q68 -2 71 20Z" />
<glyph unicode="@" glyph-name="at" horiz-adv-x="792" d="M527 705T591 665T691 550T727 375Q727 286 703 213T635 97T535 54Q498 54 476 73T451 131Q409 54 337 54Q309 54 282 70T236 127T217 236Q217 314 239 375T301 470T395 505Q425 505 448 492T486 461Q495
488 500 495T520 502H526Q548 502 548 481L539 375Q521 170 521 146Q521 122 532 115T555 107Q585 107 612 145T656 246T673 378Q673 463 644 527T562 626T439 661Q348 661 273 605T153 451T109 236Q109 142 137 70T218 -42T338 -82Q371 -82 393 -77T439 -61Q457
-53 464 -53Q478 -53 478 -76Q478 -102 430 -114T334 -126Q252 -126 189 -80T90 48T55 237Q55 366 106 473T245 643T442 705Q527 705 591 665ZM457 279T462 337T473 413Q441 443 403 443Q341 443 316 386T290 241Q290 174 308 145T358 115Q383 115 409 140T454
225Q457 279 462 337Z" />
<glyph unicode="A" glyph-name="A" horiz-adv-x="505" d="M-15 -2T-13 15Q-13 19 -12 22T-10 28L240 683Q247 702 282 702H311Q346 702 349 683L464 28Q466 18 466 15Q465 7 455 3T427 -2H410Q380 -2 379 14L353 178H135L76 14Q69 -2 38 -2H22Q-15 -2 -13 15ZM340
250L296 533Q292 560 290 594H285Q270 547 265 533L161 250H340Z" />
<glyph unicode="B" glyph-name="B" horiz-adv-x="539" d="M65 0T59 7T55 30L123 670Q125 686 132 693T154 700H317Q408 700 453 660T499 550Q499 541 497 523Q492 473 460 428T391 371V367Q424 355 456 324T488 226Q488 210 487 201Q477 98 418 49T253 0H80Q65
0 59 7ZM288 398Q334 398 366 431T403 515Q404 523 404 537Q404 581 381 602T310 624H208L184 398H288ZM279 76Q327 76 358 110T396 205Q397 211 397 222Q397 270 370 296T291 322H176L150 76H279Z" />
<glyph unicode="C" glyph-name="C" horiz-adv-x="459" d="M165 -6T109 59T53 262Q53 297 58 350Q71 474 105 551T200 667T357 706Q385 706 411 701T456 687Q465 683 468 677T470 660Q469 644 458 622T433 607Q393 628 349 628Q263 628 215 561T151 351Q146 301
146 269Q146 169 181 121T289 72Q340 72 386 97Q392 99 395 99Q408 99 413 82T418 48Q416 38 410 30T390 15Q372 7 343 1T281 -6Q165 -6 109 59Z" />
<glyph unicode="D" glyph-name="D" horiz-adv-x="577" d="M65 0T59 7T55 30L123 670Q125 686 132 693T153 700H321Q540 700 540 434Q540 400 535 350Q499 0 247 0H79Q65 0 59 7ZM253 76Q328 76 378 141T443 350Q447 386 447 425Q447 528 411 576T311 624H209L151 76H253Z" />
<glyph unicode="E" glyph-name="E" horiz-adv-x="457" d="M65 0T59 7T55 30L123 670Q125 686 132 693T153 700H441Q460 700 457 670L455 654Q452 624 433 624H208L184 396H386Q405 396 402 366L400 350Q397 320 378 320H176L150 76H375Q385 76 389 69T391 46L389
30Q387 14 382 7T367 0H79Q65 0 59 7Z" />
<glyph unicode="F" glyph-name="F" horiz-adv-x="423" d="M52 -2T54 20L123 670Q125 686 132 693T153 700H413Q432 700 429 670L427 654Q424 624 405 624H208L184 396H364Q383 396 380 366L378 350Q375 320 356 320H176L144 20Q142 -2 104 -2H90Q52 -2 54 20Z" />
<glyph unicode="G" glyph-name="G" horiz-adv-x="552" d="M261 627T214 558T152 353Q148 318 148 277Q148 181 180 126T286 70Q339 70 376 83L399 306H314Q297 306 297 326Q297 332 298 336L299 352Q302 382 322 382H470Q497 382 494 352L464 66Q460 28 404 11T275
-6Q172 -6 113 63T54 270Q54 309 58 344Q72 470 106 549T202 667T358 706Q394 706 430 697T489 673T512 645Q512 633 496 610T470 586Q467 586 450 597T409 618T351 627Q261 627 214 558Z" />
<glyph unicode="H" glyph-name="H" horiz-adv-x="601" d="M52 -2T54 20L124 680Q126 702 164 702H179Q216 702 214 680L184 397H447L477 680Q479 702 517 702H531Q569 702 567 680L497 20Q495 -2 457 -2H443Q405 -2 407 20L439 321H176L144 20Q142 -2 105 -2H90Q52
-2 54 20Z" />
<glyph unicode="I" glyph-name="I" horiz-adv-x="262" d="M58 -2T60 20L130 680Q132 702 170 702H185Q222 702 220 680L150 20Q148 -2 111 -2H96Q58 -2 60 20Z" />
<glyph unicode="J" glyph-name="J" horiz-adv-x="355" d="M30 -6T2 2T-25 26Q-23 40 -14 60T4 81Q10 81 26 77T60 72Q110 72 135 101T168 195L219 680Q221 702 259 702H273Q312 702 310 680L260 205Q250 106 202 50T62 -6Q30 -6 2 2Z" />
<glyph unicode="K" glyph-name="K" horiz-adv-x="510" d="M52 -2T54 20L124 680Q126 702 164 702H177Q216 702 214 680L182 374H185L420 688Q431 702 468 702H485Q502 702 510 699T519 689Q517 680 508 669L270 352L469 28Q475 18 474 12Q473 4 464 1T433 -2H422Q402
-2 391 0T375 11L180 333H177L144 20Q142 -2 103 -2H90Q52 -2 54 20Z" />
<glyph unicode="L" glyph-name="L" horiz-adv-x="408" d="M65 0T59 7T55 30L124 680Q126 702 164 702H178Q216 702 214 680L150 76H358Q368 76 372 69T375 46L373 30Q370 0 350 0H79Q65 0 59 7Z" />
<glyph unicode="M" glyph-name="M" horiz-adv-x="689" d="M310 239T306 252L213 482Q205 501 190 551L186 549Q187 518 184 478L136 20Q133 -2 95 -2H83Q45 -2 48 20L117 680Q119 702 157 702H178Q208 702 214 684L342 371Q350 349 352 323Q360 349 374 371L566
684Q578 702 606 702H627Q665 702 663 680L594 20Q591 -2 553 -2H541Q503 -2 506 20L554 478Q556 500 566 549L562 551Q546 518 525 482L384 252Q377 239 361 239H327Q310 239 306 252Z" />
<glyph unicode="N" glyph-name="N" horiz-adv-x="590" d="M45 -2T48 20L117 680Q119 702 157 702H181Q196 702 205 698T218 682L401 225Q414 190 421 162L426 164Q424 176 424 200Q424 220 425 230L473 680Q475 702 513 702H525Q563 702 561 680L492 20Q489 -2
451 -2H433Q405 -2 399 13L208 485Q197 513 189 548L184 546Q186 534 186 510Q186 490 185 480L136 20Q134 -2 95 -2H83Q45 -2 48 20Z" />
<glyph unicode="O" glyph-name="O" horiz-adv-x="599" d="M171 -6T113 65T55 275Q55 316 59 352Q97 706 346 706Q448 706 506 637T564 430Q564 389 560 352Q541 172 468 83T272 -6Q171 -6 113 65ZM439 70T468 352Q473 400 473 432Q473 630 339 630Q260 630 214
563T152 352Q147 302 147 271Q147 70 281 70Q439 70 468 352Z" />
<glyph unicode="P" glyph-name="P" horiz-adv-x="482" d="M52 -2T54 20L123 670Q125 686 132 693T153 700H318Q383 700 432 666T481 539Q481 528 479 504Q470 421 434 375T357 314T284 298H174L144 20Q142 -2 104 -2H90Q52 -2 54 20ZM287 374Q320 374 350 403T387
504Q389 522 389 530Q389 582 365 603T306 624H208L182 374H287Z" />
<glyph unicode="Q" glyph-name="Q" horiz-adv-x="599" d="M486 -169T353 -95T166 13Q109 48 81 109T53 265Q53 298 58 350Q77 533 146 619T345 706Q450 706 506 637T563 430Q563 389 559 350Q543 204 489 118T347 6V3L542 -86Q553 -92 552 -102Q549 -116 530 -142T496
-169Q486 -169 353 -95ZM356 69T403 139T467 350Q471 389 471 429Q471 630 338 630Q180 630 151 350Q146 300 146 267Q146 69 279 69Q356 69 403 139Z" />
<glyph unicode="R" glyph-name="R" horiz-adv-x="513" d="M48 -2T50 20L119 670Q121 686 128 693T149 700H297Q387 700 431 666T475 557Q475 547 473 523Q467 461 438 419T364 354L363 350Q382 340 394 311T419 225L461 28Q463 22 463 14Q461 -2 422 -2H405Q391
-2 381 2T370 14L330 210Q318 267 298 287T234 308H171L140 20Q138 -2 100 -2H86Q48 -2 50 20ZM279 384Q315 384 344 420T379 507Q380 515 380 530Q380 577 359 600T298 624H203L178 384H279Z" />
<glyph unicode="S" glyph-name="S" horiz-adv-x="437" d="M130 -5T90 4T18 39Q14 43 12 47T10 61Q10 78 16 96T33 115Q38 115 45 110Q93 73 176 73Q234 73 270 101T306 188Q306 230 283 258T217 312Q148 353 108 398T67 509Q67 569 92 614T162 685T269 711Q310
711 352 703T417 681Q423 677 423 670Q423 658 413 633T394 607Q391 607 387 609T380 612Q331 634 282 634Q231 634 193 609T154 525Q154 484 180 454T257 394Q321 358 358 315T395 207Q395 108 340 52T184 -5Q130 -5 90 4Z" />
<glyph unicode="T" glyph-name="T" horiz-adv-x="454" d="M154 -2T156 20L220 624H76Q57 624 60 654L62 670Q65 700 84 700H460Q470 700 474 693T477 670L475 654Q472 624 452 624H310L246 20Q244 -2 206 -2H192Q154 -2 156 20Z" />
<glyph unicode="U" glyph-name="U" horiz-adv-x="583" d="M165 -6T113 39T60 167Q60 185 61 195L112 680Q114 702 152 702H166Q204 702 202 680L151 192Q150 187 150 177Q150 129 183 100T272 70Q330 70 371 104T418 192L469 680Q471 702 509 702H523Q561 702
559 680L508 195Q498 100 435 47T264 -6Q165 -6 113 39Z" />
<glyph unicode="V" glyph-name="V" horiz-adv-x="508" d="M178 -2T175 14L65 672Q63 682 63 685Q65 702 105 702H119Q151 702 154 686L232 154L235 102H238L253 155L443 686Q450 702 482 702H494Q534 702 532 685Q532 683 528 671L284 14Q279 -2 245 -2H209Q178
-2 175 14Z" />
<glyph unicode="W" glyph-name="W" horiz-adv-x="752" d="M149 -2T148 14L68 671Q67 676 67 683Q70 702 109 702H122Q159 702 160 686L201 203Q204 169 204 120Q205 110 205 92L237 206L381 685Q386 702 418 702H438Q472 702 473 685L520 204Q525 155 525 92L556
203L682 686Q686 702 723 702H734Q775 702 772 683Q772 679 769 671L570 14Q565 -2 532 -2H502Q469 -2 468 14L424 435L417 571L382 435L250 14Q246 -2 212 -2H182Q149 -2 148 14Z" />
<glyph unicode="X" glyph-name="X" horiz-adv-x="506" d="M13 -2T4 2T-5 15Q-4 20 4 33L214 369L90 667Q84 681 85 685Q87 702 128 702H148Q164 702 173 699T185 687L273 445L420 688Q425 696 434 699T460 702H474Q516 702 515 685Q514 680 506 667L315 365L455
33Q456 30 458 25T460 15Q458 -2 416 -2H396Q364 -2 359 13L257 289L91 12Q83 -2 50 -2H35Q13 -2 4 2Z" />
<glyph unicode="Y" glyph-name="Y" horiz-adv-x="484" d="M169 -2T171 20L203 317L69 667Q64 679 64 685Q65 694 73 698T104 702H119Q136 702 144 699T156 687L255 404L416 688Q421 696 431 699T457 702H472Q492 701 500 697T508 685Q508 678 500 667L292 314L261
20Q259 -2 221 -2H207Q169 -2 171 20Z" />
<glyph unicode="Z" glyph-name="Z" horiz-adv-x="507" d="M20 0T14 18T10 53Q10 56 13 65L393 624H114Q104 624 101 632T99 658L100 666Q102 684 107 692T122 700H488Q495 700 500 682T504 647Q504 641 502 635L124 76H425Q435 76 438 68T441 42L440 34Q438 16
433 8T417 0H28Q20 0 14 18Z" />
<glyph unicode="[" glyph-name="bracketleft" horiz-adv-x="239" d="M16 -138T10 -131T6 -108L95 738Q97 754 104 761T125 768H227Q237 768 241 762T243 739V734Q241 718 236 712T221 705H164L82 -76H139Q155 -76 155 -94Q155 -101 154 -105V-109Q152 -125 147
-131T132 -138H30Q16 -138 10 -131Z" />
<glyph unicode="\" glyph-name="backslash" horiz-adv-x="289" d="M207 -20T204 1L59 668Q57 677 57 684Q60 702 81 702H92Q115 702 119 681L265 11Q265 9 265 5T265 -2Q264 -10 258 -15T240 -20H229Q207 -20 204 1Z" />
<glyph unicode="]" glyph-name="bracketright" horiz-adv-x="239" d="M12 -138T9 -132T6 -109V-105Q8 -89 13 -83T29 -76H87L169 705H111Q94 705 94 724Q94 730 95 734V739Q96 754 101 761T117 768H220Q234 768 239 761T243 738L154 -108Q153 -124 146 -131T125
-138H22Q12 -138 9 -132Z" />
<glyph unicode="^" glyph-name="asciicircum" horiz-adv-x="360" d="M331 352T331 349T331 341Q329 320 306 320H298Q273 320 269 343L219 611L109 343Q99 320 75 320H66Q43 320 45 341Q48 352 49 355L183 664Q188 675 195 679T214 684H234Q246 684 252 680T261
664L331 355Q331 352 331 349Z" />
<glyph unicode="_" glyph-name="underscore" horiz-adv-x="427" d="M-58 -138T-57 -118L-56 -110Q-55 -90 -35 -90H388Q406 -90 405 -110L404 -118Q403 -138 383 -138H-40Q-58 -138 -57 -118Z" />
<glyph unicode="`" glyph-name="grave" horiz-adv-x="256" d="M144 585T132 603Q76 678 65 694T53 719Q53 726 63 729T95 732Q138 732 152 706L172 664Q185 635 192 618T200 595Q200 590 196 588T179 585Q144 585 132 603Z" />
<glyph unicode="a" glyph-name="a" horiz-adv-x="481" d="M107 -7T76 52T44 203Q44 233 47 263Q60 385 113 457T244 529Q310 529 352 475Q361 502 369 513T397 525H403Q417 525 422 520T428 504Q427 493 425 475T421 436L416 393L386 115Q382 66 411 66Q418 66
426 68T440 71Q445 71 447 65T450 48Q450 -6 385 -6Q353 -6 328 13T301 83Q255 -7 174 -7Q107 -7 76 52ZM230 66T260 97T311 198L329 367Q331 385 337 417Q321 434 303 445T257 456Q201 456 172 407T133 267Q129 225 129 202Q129 141 145 104T198 66Q230 66 260
97Z" />
<glyph unicode="b" glyph-name="b" horiz-adv-x="482" d="M208 -6T180 13T131 69L115 10Q108 -2 83 -2H77Q43 -2 46 20L121 730Q123 752 161 752H172Q209 752 207 730L180 478Q205 503 230 516T291 529Q356 529 394 475T432 322Q432 295 429 265Q421 185 395 124T330
28T243 -6Q208 -6 180 13ZM273 67T301 119T339 266Q342 298 342 325Q342 455 263 455Q212 455 173 410L144 136Q160 103 182 85T230 67Q273 67 301 119Z" />
<glyph unicode="c" glyph-name="c" horiz-adv-x="408" d="M134 -6T88 42T42 198Q42 216 46 264Q61 411 122 470T281 529Q327 529 365 515T401 483Q400 471 387 450T365 429Q364 429 354 433Q315 457 276 457Q216 457 182 413T137 266Q133 220 133 202Q133 131
157 99T237 66Q283 66 323 88Q327 90 330 92T337 96Q347 96 356 77T364 45Q363 34 341 22T286 2T228 -6Q134 -6 88 42Z" />
<glyph unicode="d" glyph-name="d" horiz-adv-x="481" d="M112 -6T78 51T43 204Q43 233 46 264Q59 389 111 459T238 529Q273 529 296 516T339 478L366 730Q368 752 405 752H416Q454 752 452 730L388 123Q386 90 392 78T412 66Q419 66 427 68T441 71Q451 71 451
50Q451 32 445 20Q439 7 423 1T386 -6Q356 -6 332 11T303 72Q277 33 244 14T174 -6Q112 -6 78 51ZM228 67T254 85T303 136L332 410Q302 455 253 455Q155 455 135 265Q131 219 131 202Q131 137 149 102T203 67Q228 67 254 85Z" />
<glyph unicode="e" glyph-name="e" horiz-adv-x="454" d="M377 115T381 109T385 94Q385 62 368 42Q347 19 308 7T237 -6Q48 -6 48 194Q48 289 74 364T153 484T286 529Q336 529 367 508T412 456T426 396Q426 307 364 260T202 213Q169 213 135 219V210Q133 131 161
99T244 66Q277 66 299 76T349 103Q366 115 371 115Q377 115 381 109ZM215 457T183 410T140 285H193Q254 285 297 309T340 389Q340 418 323 437T277 457Q215 457 183 410Z" />
<glyph unicode="f" glyph-name="f" horiz-adv-x="286" d="M65 -2T67 20L113 451H84Q74 451 70 458T67 481L68 493Q71 523 91 523H120L131 629Q139 702 177 729T259 756Q285 756 305 748T325 725Q324 714 316 696T298 678Q295 678 286 681T262 684Q242 684 231
672T215 621L204 523H271Q281 523 285 516T288 493L287 481Q284 451 264 451H197L151 20Q149 -2 109 -2H105Q65 -2 67 20Z" />
<glyph unicode="g" glyph-name="g" horiz-adv-x="471" d="M417 525T422 520T428 504L383 82Q372 -27 346 -91T278 -184T175 -212Q118 -212 80 -193T32 -151Q30 -145 30 -137Q30 -122 34 -109T47 -96Q50 -96 68 -108T112 -130T170 -140Q227 -140 256 -93T298 67L300
82Q253 0 175 0Q108 0 76 57T44 204Q44 233 47 263Q60 386 113 457T246 529Q310 529 352 475Q361 502 369 513T397 525H403Q417 525 422 520ZM331 385T337 417Q321 434 303 445T258 456Q201 456 172 407T133 267Q129 223 129 202Q129 73 200 73Q229 73 260 102T311
198L329 367Q331 385 337 417Z" />
<glyph unicode="h" glyph-name="h" horiz-adv-x="485" d="M353 -3T328 18T302 92Q302 105 309 179L329 365Q330 372 330 384Q330 456 268 456Q234 456 206 433T167 386L129 20Q126 -2 88 -2H78Q40 -2 43 20L117 730Q120 752 158 752H169Q206 752 203 730L175 462Q199
493 232 511T304 529Q354 529 386 498T418 402Q418 393 416 373Q410 316 400 218T389 108Q388 69 412 69Q419 69 427 71T441 74Q451 74 451 53Q451 -3 386 -3Q353 -3 328 18Z" />
<glyph unicode="i" glyph-name="i" horiz-adv-x="254" d="M108 607T111 629L116 680Q118 702 164 702Q208 702 206 680L201 629Q198 607 152 607Q108 607 111 629ZM108 -3T85 15T61 88Q61 102 62 110L70 206Q99 503 102 503Q103 515 113 520T144 525H148Q169 525
177 520T186 503L146 126Q145 118 145 106Q145 69 168 69Q175 69 183 71T197 74Q207 74 207 53Q207 35 201 23Q195 10 179 4T142 -3Q108 -3 85 15Z" />
<glyph unicode="j" glyph-name="j" horiz-adv-x="249" d="M110 607T113 629L118 680Q120 702 166 702Q210 702 208 680L203 629Q200 607 154 607Q110 607 113 629ZM-65 -212T-63 -182Q-62 -171 -54 -153T-37 -135Q-33 -135 -25 -137T-1 -140Q37 -140 44 -72L104
503Q107 525 147 525H151Q191 525 188 503L127 -80Q119 -154 83 -183T4 -212Q-65 -212 -63 -182Z" />
<glyph unicode="k" glyph-name="k" horiz-adv-x="452" d="M437 525T445 522T452 512Q452 504 442 491L274 265L403 28Q408 18 408 12Q407 4 398 1T367 -2H342Q326 -2 321 0T310 11L186 258H180L154 20Q151 -2 114 -2H103Q65 -2 68 20L142 730Q145 752 183 752H194Q231
752 228 730L181 283H186L355 511Q366 525 400 525H421Q437 525 445 522Z" />
<glyph unicode="l" glyph-name="l" horiz-adv-x="270" d="M120 -6T92 15T63 93Q63 107 64 115L129 730Q131 752 171 752H175Q215 752 213 730L149 123Q148 117 148 107Q148 66 180 66Q192 66 200 68T212 71Q222 71 222 50Q222 32 216 20Q210 7 194 1T157 -6Q120
-6 92 15Z" />
<glyph unicode="m" glyph-name="m" horiz-adv-x="720" d="M686 74T686 53Q686 -3 621 -3Q588 -3 563 18T537 93Q537 113 557 299L563 359Q564 367 564 381Q564 456 509 456Q480 456 455 435T416 386L376 20Q374 -2 337 -2H326Q288 -2 290 20L326 359Q327 367 327
380Q327 456 267 456Q234 456 207 432T171 386L132 20Q130 -2 92 -2H81Q44 -2 46 20L84 373Q88 418 88 453Q88 472 87 483T87 499Q88 511 110 516T147 522Q161 522 165 510T170 480T172 454Q196 488 230 508T303 529Q341 529 369 511T409 452Q436 488 471 508T544
529Q592 529 621 497T651 397Q651 378 650 367Q643 291 636 230Q624 125 624 108Q623 86 629 78T647 69Q654 69 662 71T676 74Q686 74 686 53ZM409 367V366V367Z" />
<glyph unicode="n" glyph-name="n" horiz-adv-x="482" d="M447 71T447 49Q447 -6 382 -6Q349 -6 324 15T298 91Q298 104 305 171L325 365Q326 372 326 385Q326 456 266 456Q240 456 215 437T171 386L132 20Q130 -2 92 -2H81Q44 -2 46 20L84 373Q88 418 88 453Q88
472 87 483T87 499Q88 511 110 516T147 522Q161 522 165 510T170 480T172 454Q198 490 232 509T302 529Q356 529 385 495T415 401Q415 393 413 373Q385 120 385 104Q384 66 408 66Q415 66 423 68T437 71Q447 71 447 49Z" />
<glyph unicode="o" glyph-name="o" horiz-adv-x="477" d="M129 -6T87 46T44 200Q44 228 47 259Q61 389 118 459T268 529Q349 529 391 476T433 319Q433 291 430 259Q416 129 361 62T212 -6Q129 -6 87 46ZM270 66T301 113T342 261Q346 307 346 324Q346 392 325 424T259
457Q206 457 177 410T136 261Q132 229 132 196Q132 130 153 98T217 66Q270 66 301 113Z" />
<glyph unicode="p" glyph-name="p" horiz-adv-x="484" d="M27 -208T30 -186L88 373Q93 419 93 458Q93 475 92 485T92 500Q93 512 114 517T152 522Q166 522 170 510T175 480T177 454Q203 491 236 510T304 529Q367 529 401 473T436 320Q436 291 433 259Q420 134
368 64T240 -6Q206 -6 183 7T140 45L116 -186Q113 -208 75 -208H65Q27 -208 30 -186ZM324 68T344 258Q348 304 348 321Q348 386 330 421T276 456Q251 456 225 438T176 387L147 113Q177 68 227 68Q324 68 344 258Z" />
<glyph unicode="q" glyph-name="q" horiz-adv-x="481" d="M274 -208T277 -186L301 45Q276 20 251 7T190 -6Q125 -6 87 48T49 200Q49 227 52 258Q60 338 86 399T151 495T238 529Q273 529 301 510T349 454Q353 468 366 513Q373 525 398 525H404Q437 525 435 503L363
-186Q360 -208 322 -208H311Q274 -208 277 -186ZM270 68T307 113L336 387Q319 420 298 438T251 456Q207 456 179 404T141 257Q138 226 138 198Q138 68 218 68Q270 68 307 113Z" />
<glyph unicode="r" glyph-name="r" horiz-adv-x="337" d="M56 -2T58 20L96 373Q100 410 100 442Q100 465 99 480T97 499Q98 511 117 516T153 522Q167 522 172 507T178 475T181 454Q237 529 294 529Q318 529 330 520T342 494Q342 479 334 458T316 436Q311 436 299
441T268 447Q242 447 216 425T181 386L142 20Q140 -2 100 -2H96Q56 -2 58 20Z" />
<glyph unicode="s" glyph-name="s" horiz-adv-x="353" d="M101 -9T71 1T23 27T7 53Q9 64 24 84T47 104Q49 104 63 93T96 74T140 65Q180 65 202 86T225 149Q225 179 206 201T147 243Q100 265 77 294T53 369Q53 415 75 452T134 509T216 530Q257 530 290 517T323
487Q321 475 308 454T286 433Q284 433 264 445T214 458Q182 458 160 439T138 387Q138 357 155 337T204 300Q257 274 282 243T307 163Q307 112 284 73T222 13T137 -9Q101 -9 71 1Z" />
<glyph unicode="t" glyph-name="t" horiz-adv-x="298" d="M144 -6T110 21T76 106Q76 134 109 451H73Q63 451 60 458T56 478Q56 523 81 523H117L129 628Q130 640 140 645T170 650H174Q195 650 203 645T212 628L201 523H266Q275 523 278 519T282 504Q282 499 278
486T264 462T237 451H193L180 341Q171 263 165 203T159 109Q159 84 171 75T210 66Q218 66 227 68T241 71Q247 71 250 65T254 48Q254 17 236 6T183 -6Q144 -6 110 21Z" />
<glyph unicode="u" glyph-name="u" horiz-adv-x="482" d="M449 74T449 53Q449 35 443 23Q437 10 421 4T384 -3Q355 -3 332 12T302 68Q276 33 241 13T168 -7Q112 -7 82 25T52 114Q52 130 53 138L92 502Q94 524 132 524H142Q180 524 178 502L141 151Q140 145 140
134Q140 66 203 66Q231 66 257 85T303 136L342 502Q344 524 382 524H392Q430 524 428 502L396 201Q387 123 387 110Q386 87 392 78T410 69Q417 69 425 71T439 74Q449 74 449 53Z" />
<glyph unicode="v" glyph-name="v" horiz-adv-x="412" d="M126 -2T122 14L49 494Q49 497 49 500T49 508Q51 525 90 525H103Q134 525 137 509L175 217Q181 175 185 115L187 88H193L205 133Q215 174 228 217L329 509Q334 525 368 525H380Q416 525 414 508L410 494L237
14Q232 -2 199 -2H157Q126 -2 122 14Z" />
<glyph unicode="w" glyph-name="w" horiz-adv-x="616" d="M99 -2T98 14L42 488Q40 502 41 508Q43 525 84 525Q106 525 116 522T128 509L155 190Q158 146 160 94H165Q184 168 191 191L290 508Q294 525 327 525H346Q362 525 370 521T380 508L414 191Q416 159 416
149L419 95H424Q427 107 431 126Q435 139 439 155T448 190L542 509Q547 525 590 525Q629 525 627 508Q622 488 623 491L466 14Q462 -2 428 -2H394Q361 -2 360 14L326 309Q324 359 324 388H320L302 309L205 14Q200 -2 167 -2H132Q99 -2 98 14Z" />
<glyph unicode="x" glyph-name="x" horiz-adv-x="404" d="M12 0T6 2T0 11Q0 19 9 33L159 269L50 489Q45 501 46 508Q47 517 55 521T84 525H94Q110 525 118 523T131 511L193 370Q206 340 209 332L228 367L310 510Q315 519 325 522T352 525H364Q403 525 401 508Q400
505 392 490L250 265L363 34Q370 20 370 14Q369 0 345 0H321Q303 0 296 1T284 12L214 169L199 204Q189 184 182 172L93 13Q88 5 81 3T64 0H27Q12 0 6 2Z" />
<glyph unicode="y" glyph-name="y" horiz-adv-x="399" d="M408 525T406 508Q404 500 400 490L133 -187Q123 -208 90 -208H69Q37 -208 39 -192Q39 -191 45 -175L140 52Q129 54 126 65L42 490Q39 504 40 508Q42 525 81 525H95Q126 525 129 509L171 228Q179 174 182
148H188Q195 168 199 184L214 228L319 509Q324 525 358 525H370Q408 525 406 508Z" />
<glyph unicode="z" glyph-name="z" horiz-adv-x="405" d="M25 0T20 18T16 51Q16 53 19 62L286 451H92Q73 451 76 481L77 493Q79 509 84 516T99 523H381Q387 523 391 504T394 471L391 461L125 72H335Q354 72 351 42L350 30Q348 14 343 7T328 0H31Q25 0 20 18Z" />
<glyph unicode="{" glyph-name="braceleft" horiz-adv-x="249" d="M105 -138T84 -117T63 -46Q63 -31 64 -22L83 156Q86 180 86 199Q86 228 78 246T50 274Q38 280 33 287T29 308L30 322Q31 335 38 342T59 356Q88 369 99 396T116 474L135 652Q142 715 170 741T225
768H270Q281 768 284 762T287 739V735Q286 719 281 713T264 706H247Q227 706 218 691T206 645L187 458Q181 400 154 366T100 314Q117 305 137 275T158 193Q158 179 157 172L137 -14Q136 -22 136 -36Q136 -56 142 -66T165 -76H182Q199 -76 199 -95Q199 -101 198
-105V-109Q197 -125 192 -131T175 -138H130Q105 -138 84 -117Z" />
<glyph unicode="|" glyph-name="bar" horiz-adv-x="200" d="M183 770T180 748L89 -118Q87 -140 63 -140H53Q29 -140 31 -118L122 748Q125 770 148 770H158Q183 770 180 748Z" />
<glyph unicode="}" glyph-name="braceright" horiz-adv-x="249" d="M-15 -138T-18 -132T-21 -109V-105Q-19 -89 -14 -83T3 -76H19Q39 -76 47 -61T59 -14L79 172Q83 214 100 245T136 292T167 314Q146 329 127 358T108 436Q108 450 109 458L128 645Q129 654 129
668Q129 688 123 697T101 706H85Q74 706 71 712T68 735V739Q69 755 74 761T91 768H135Q159 768 180 747T202 676Q202 660 201 652L182 474Q180 444 180 432Q180 402 188 384T216 356Q228 350 233 343T237 322L236 308Q235 295 228 288T207 274Q178 261 166 234T149
156L130 -22Q123 -86 96 -112T40 -138H-4Q-15 -138 -18 -132Z" />
<glyph unicode="~" glyph-name="asciitilde" horiz-adv-x="437" d="M283 225T264 230T211 248Q205 250 187 256T154 266T130 269Q112 269 93 239Q84 224 75 224Q72 224 67 227L60 231Q51 235 50 242Q50 248 54 256Q69 293 89 309T140 325Q157 325 176 320T229
302Q235 300 253 294T286 284T310 281Q328 281 347 311Q356 326 365 326Q368 326 373 323L380 319Q389 315 390 308Q390 302 386 294Q371 257 351 241T300 225Q283 225 264 230Z" />
<glyph unicode="&#xa0;" glyph-name="uni00A0" horiz-adv-x="137" />
<glyph unicode="&#xa1;" glyph-name="exclamdown" horiz-adv-x="246" d="M105 415T107 437L114 503Q117 525 155 525H173Q211 525 208 503L201 437Q199 415 161 415H143Q105 415 107 437ZM27 -179T29 -157Q38 -97 60 35T106 299Q108 310 115 315T138 321H147Q163
321 169 316T175 299L127 -157Q125 -179 87 -179H64Q27 -179 29 -157Z" />
<glyph unicode="&#xa2;" glyph-name="cent" horiz-adv-x="440" d="M327 529T365 515T401 483Q400 471 387 450T365 429Q364 429 354 433Q315 457 276 457H270L229 66H237Q283 66 323 88Q327 90 330 92T337 96Q347 96 356 77T364 45Q363 34 341 22T286 2T228 -6H221L216
-51Q213 -71 196 -71H194Q183 -71 180 -67T176 -51L181 -3Q111 8 77 56T42 197Q42 232 46 264Q59 394 108 454T238 526L241 558Q242 578 261 578H263Q273 578 277 574T281 558L278 529H281Q327 529 365 515ZM229 449Q192 434 169 390T137 266Q133 220 133 203Q133
149 146 118T189 74L229 449Z" />
<glyph unicode="&#xa3;" glyph-name="sterling" horiz-adv-x="411" d="M-9 0T-9 20Q-9 26 -8 30L-7 46Q-6 58 2 64T29 80Q56 94 72 110T91 159L110 339H55Q45 339 41 346T38 369L40 381Q43 411 63 411H118L127 498Q148 706 320 706Q359 706 389 699T417 674Q417
667 409 646T390 625Q385 625 367 629T328 634Q274 634 247 603T211 503L202 411H320Q330 411 334 404T337 381L335 369Q332 339 312 339H194L185 249Q175 159 155 123T109 72H349Q359 72 363 65T366 42L365 30Q363 14 358 7T342 0H9Q-9 0 -9 20Z" />
<glyph unicode="&#xa4;" glyph-name="currency" horiz-adv-x="462" d="M67 143T58 152L57 154Q50 161 50 171Q52 182 64 193L97 223Q80 257 80 300Q80 368 118 422L91 450Q82 461 83 472Q86 483 91 488L95 493Q103 501 112 501Q124 501 133 489L155 464Q202 500
254 500Q307 500 345 465L373 490Q385 500 394 500Q405 500 412 491L414 489Q421 480 421 474Q421 462 408 450L376 421Q392 384 392 344Q392 278 355 222L381 193Q390 182 390 172Q388 163 378 153L376 152Q367 143 358 143Q346 143 338 154L315 179Q270 145 217
145Q165 145 126 179L98 153Q87 143 76 143Q67 143 58 152ZM267 206T298 242T330 342Q330 387 307 413T248 439Q204 439 173 402T141 303Q141 257 164 232T223 206Q267 206 298 242Z" />
<glyph unicode="&#xa5;" glyph-name="yen" horiz-adv-x="470" d="M492 701T500 697T508 685Q508 678 500 667L356 423H421Q440 423 437 393L436 385Q433 355 414 355H316L292 314L286 259H404Q423 259 420 229L419 221Q416 191 397 191H279L261 20Q259 -2 221
-2H207Q169 -2 171 20L189 191H60Q41 191 44 221L45 229Q48 259 67 259H197L203 317L188 355H77Q58 355 61 385L62 393Q65 423 84 423H162L69 667Q64 679 64 685Q65 694 73 698T104 702H119Q136 702 144 699T156 687L255 404L416 688Q421 696 431 699T457 702H472Q492
701 500 697Z" />
<glyph unicode="&#xa6;" glyph-name="brokenbar" horiz-adv-x="200" d="M170 770T175 765T180 748Q180 743 165 599L146 425Q143 403 120 403H110Q97 403 93 408T88 425Q90 446 94 490T104 583Q111 640 115 681T122 748Q124 770 148 770H158Q170 770 175 765ZM113
226T118 221T123 204Q123 206 107 46Q110 69 89 -118Q86 -140 63 -140H53Q40 -140 36 -135T31 -118Q31 -108 48 47Q66 217 65 204Q67 226 91 226H101Q113 226 118 221Z" />
<glyph unicode="&#xa7;" glyph-name="section" horiz-adv-x="355" d="M103 -6T63 10T23 46Q23 59 39 79T62 100Q65 100 78 91T107 75T146 68Q181 68 200 86T220 133Q220 152 210 165T185 187T130 218Q43 262 43 339Q43 381 62 415T116 469Q78 504 78 555Q78 603
100 637T159 688T237 705Q272 705 307 693T343 664Q343 653 330 631T307 609Q304 609 292 616T266 628T234 633Q202 633 183 617T163 570Q163 550 174 536T199 514T242 492Q291 465 313 437T336 360Q336 321 318 289T266 235Q304 199 304 146Q304 97 281 63T221
12T143 -6Q103 -6 63 10ZM218 281T233 297T252 343Q255 375 239 392T183 428Q128 411 128 352Q128 323 145 307T197 276Q218 281 233 297Z" />
<glyph unicode="&#xa8;" glyph-name="dieresis" horiz-adv-x="256" d="M63 607T66 629L71 680Q73 702 113 702Q151 702 149 680L144 629Q141 607 101 607Q63 607 66 629ZM189 607T192 629L197 680Q199 702 239 702Q277 702 275 680L270 629Q267 607 227 607Q189
607 192 629Z" />
<glyph unicode="&#xa9;" glyph-name="copyright" horiz-adv-x="592" d="M226 -5T161 37T57 161T19 354Q19 465 57 545T160 668T306 710Q387 710 452 668T555 546T593 354Q593 243 555 162T452 38T306 -5Q226 -5 161 37ZM372 43T426 79T511 186T543 354Q543 452
512 521T426 626T306 662Q240 662 186 627T101 522T69 354Q69 257 100 187T186 80T306 43Q372 43 426 79ZM241 137T204 189T167 349Q167 562 320 562Q353 562 382 550T412 525Q412 517 405 504T391 490Q390 490 372 503T320 517Q269 517 245 477T220 349Q220 263
244 223T318 182Q341 182 357 189T384 204T397 212Q404 212 411 200T418 180Q418 172 403 162T365 144T318 137Q241 137 204 189Z" />
<glyph unicode="&#xaa;" glyph-name="ordfeminine" horiz-adv-x="281" d="M95 439T77 468T59 544Q59 555 61 575Q68 637 97 672T168 708Q199 708 221 681Q226 695 230 700T246 706H260Q277 706 277 695L274 662L271 639L268 618Q258 538 256 503V499Q256 482 267
482Q271 482 274 483T280 484Q285 484 285 472Q285 456 274 448T239 440Q198 440 196 483Q174 439 134 439Q95 439 77 468ZM165 488T178 500T200 538L209 621Q211 640 213 649Q195 659 178 659Q153 659 140 639T122 577Q120 557 120 546Q120 488 151 488Q165 488
178 500Z" />
<glyph unicode="&#xab;" glyph-name="guillemotleft" horiz-adv-x="471" d="M199 109Q204 102 204 93Q203 84 191 73T167 61Q155 61 147 74L51 230Q43 244 43 253Q43 268 62 286L200 442Q214 454 224 454Q233 454 243 445T253 424Q252 416 241 402L119 255L199
109ZM405 454T415 445T425 424Q424 416 413 402L291 255L371 109Q376 102 376 93Q375 84 363 73T339 61Q327 61 319 74L223 230Q215 244 215 253Q215 268 234 286L372 442Q386 454 396 454Q405 454 415 445Z" />
<glyph unicode="&#xac;" glyph-name="logicalnot" horiz-adv-x="449" d="M324 77T327 99L344 265H47Q31 265 31 284Q31 291 32 295L33 308Q36 338 55 338H401Q415 338 421 331T425 308L403 99Q400 77 374 77H351Q324 77 327 99Z" />
<glyph unicode="&#xad;" glyph-name="uni00AD" horiz-adv-x="256" d="M28 230T31 260L32 270Q35 300 54 300H210Q229 300 226 270L225 260Q222 230 203 230H47Q28 230 31 260Z" />
<glyph unicode="&#xae;" glyph-name="registered" horiz-adv-x="592" d="M226 -5T161 37T57 161T19 354Q19 465 57 545T160 668T306 710Q387 710 452 668T555 546T593 354Q593 243 555 162T452 38T306 -5Q226 -5 161 37ZM372 43T426 79T511 186T543 354Q543 452
512 521T426 626T306 662Q240 662 186 627T101 522T69 354Q69 257 100 187T186 80T306 43Q372 43 426 79ZM207 145T207 158V541Q207 559 223 559H305Q362 559 390 535T418 455Q418 418 404 393T364 355V353Q376 347 385 329T404 279L440 163Q442 159 442 154Q442
145 420 145H410Q402 145 396 147T389 154L354 270Q344 304 331 316T292 328H259V158Q259 145 237 145H229Q207 145 207 158ZM313 373Q334 373 349 394T364 445Q364 480 350 497T310 514H258V373H313Z" />
<glyph unicode="&#xaf;" glyph-name="overscore" horiz-adv-x="255" d="M45 612T48 642L49 652Q52 682 71 682H270Q280 682 284 675T286 652L285 642Q283 626 278 619T263 612H64Q45 612 48 642Z" />
<glyph unicode="&#xb0;" glyph-name="degree" horiz-adv-x="276" d="M115 441T90 470T64 550Q64 620 98 663T185 706Q227 706 252 676T278 594Q278 526 243 484T157 441Q115 441 90 470ZM191 486T210 514T229 592Q229 625 216 643T179 661Q149 661 130 632T111
554Q111 522 124 504T161 486Q191 486 210 514Z" />
<glyph unicode="&#xb1;" glyph-name="plusminus" horiz-adv-x="449" d="M278 593T284 586T290 563L272 394H397Q412 394 418 388T424 368Q424 353 415 340T390 327H265L247 159Q244 129 214 129H207Q192 129 186 136T180 159L198 327H71Q44 327 44 353Q44 368
53 381T78 394H205L223 563Q226 593 256 593H263Q278 593 284 586ZM388 73T394 67T400 47Q400 29 390 15T365 0H26Q11 0 5 6T-1 26Q-1 43 9 58T34 73H373Q388 73 394 67Z" />
<glyph unicode="&#xb2;" glyph-name="uni00B2" horiz-adv-x="280" d="M37 298T34 306T33 323Q33 330 36 333L192 526Q218 559 226 575T234 612Q234 636 219 649T176 663Q154 663 138 657T110 642T95 633Q90 633 85 643T79 661Q79 677 114 691T182 705Q228 705
256 682T285 620L284 608Q281 577 264 549T188 455L98 339H246Q257 339 256 322L255 315Q254 298 242 298H42Q37 298 34 306Z" />
<glyph unicode="&#xb3;" glyph-name="uni00B3" horiz-adv-x="280" d="M93 293T62 303T33 326Q34 334 42 344T56 355Q59 355 80 345T130 334Q164 334 191 356T219 431Q219 464 199 477T143 491H120Q109 491 110 509L111 515Q112 532 124 532H145Q173 532 191 546T218
579T227 614Q227 634 214 649T167 664Q139 664 120 655T98 645Q93 645 87 656T81 675Q82 687 114 696T174 706Q222 706 249 684T277 619Q277 551 207 523V521Q232 514 251 490T270 426L269 412Q263 355 225 324T133 293Q93 293 62 303Z" />
<glyph unicode="&#xb4;" glyph-name="acute" horiz-adv-x="256" d="M53 585T53 595Q53 602 65 629T102 706Q114 732 158 732Q180 732 190 729T200 719Q200 713 191 700T164 661L122 603Q110 585 74 585Q53 585 53 595Z" />
<glyph unicode="&#xb5;" glyph-name="uni00B5" horiz-adv-x="453" d="M441 74T441 53Q441 35 435 23Q429 10 413 4T376 -3Q347 -3 324 12T294 68Q233 -6 163 -6Q142 -6 124 3L105 -186Q102 -208 66 -208H55Q16 -208 19 -186L91 503Q94 525 132 525H143Q180 525
177 503L142 164Q141 156 141 142Q141 106 156 87T202 67Q227 67 251 85T296 137L334 503Q337 525 375 525H385Q422 525 420 503Q379 120 379 110Q378 87 384 78T402 69Q409 69 417 71T431 74Q441 74 441 53Z" />
<glyph unicode="&#xb6;" glyph-name="paragraph" horiz-adv-x="466" d="M162 -173T165 -151L204 224Q159 230 124 259T68 333T48 432Q48 503 80 564T166 663T279 700H486Q496 700 500 695T504 676L502 662Q500 649 495 644T480 638H450L367 -151Q364 -173 340
-173H326Q302 -173 305 -151L388 638H310L227 -151Q224 -173 200 -173H186Q162 -173 165 -151Z" />
<glyph unicode="&#xb7;" glyph-name="middot" horiz-adv-x="214" d="M95 309T83 321T71 354Q71 380 87 396T126 412Q146 412 158 400T171 368Q171 341 155 325T115 309Q95 309 83 321Z" />
<glyph unicode="&#xb8;" glyph-name="cedilla" horiz-adv-x="256" d="M174 -60T197 -74T221 -127Q221 -210 125 -210Q93 -210 62 -198T31 -167Q31 -158 37 -150T50 -141Q57 -141 73 -148Q99 -161 119 -161Q133 -161 144 -154T155 -132Q155 -117 147 -110T122 -98Q111
-94 106 -90T100 -79Q100 -72 105 -55T123 0H164L147 -60Q174 -60 197 -74Z" />
<glyph unicode="&#xb9;" glyph-name="uni00B9" horiz-adv-x="280" d="M138 297T132 300T127 311L163 649L97 635Q91 635 89 644T88 665Q89 673 99 676L202 702Q208 702 213 699T217 690L177 311Q176 297 155 297H147Q138 297 132 300Z" />
<glyph unicode="&#xba;" glyph-name="ordmasculine" horiz-adv-x="292" d="M117 440T91 468T65 548Q65 564 66 573Q73 638 106 673T194 708Q243 708 268 680T294 598Q294 582 293 573Q286 509 254 475T166 440Q117 440 91 468ZM196 496T209 515T228 574Q229 581
229 595Q229 652 187 652Q138 652 131 574Q130 566 130 551Q130 496 171 496Q196 496 209 515Z" />
<glyph unicode="&#xbb;" glyph-name="guillemotright" horiz-adv-x="471" d="M270 271T270 262Q270 247 251 229L113 73Q100 61 89 61Q80 61 70 70T60 91Q61 99 72 113L194 260L114 406Q109 414 109 422Q110 431 122 442T146 454Q158 454 166 441L262 285Q270
271 270 262ZM442 271T442 262Q442 247 423 229L285 73Q272 61 261 61Q252 61 242 70T232 91Q233 99 244 113L366 260L286 406Q281 414 281 422Q282 431 294 442T318 454Q330 454 338 441L434 285Q442 271 442 262Z" />
<glyph unicode="&#xbc;" glyph-name="onequarter" horiz-adv-x="586" d="M116 -2T116 5Q116 7 120 15L432 686Q439 703 459 703H471Q484 703 484 696Q484 693 483 691T481 686L169 15Q161 -2 141 -2H129Q116 -2 116 5ZM136 297T130 300T125 311L161 649L95 635Q89
635 87 644T86 665Q87 673 97 676L200 702Q206 702 211 699T215 690L175 311Q174 297 153 297H145Q136 297 130 300ZM431 -2T432 11L441 96H298Q294 96 290 106T287 125Q289 130 290 131L472 397Q478 405 492 405H504Q522 405 520 392L494 137H526Q538 137 535
120V113Q532 96 521 96H489L480 11Q479 -2 461 -2H448Q431 -2 432 11ZM446 137L458 253Q461 292 470 323L468 324L341 137H446Z" />
<glyph unicode="&#xbd;" glyph-name="onehalf" horiz-adv-x="641" d="M125 -2T125 5Q125 7 129 15L441 686Q448 703 468 703H480Q493 703 493 696Q493 693 492 691T490 686L178 15Q170 -2 150 -2H138Q125 -2 125 5ZM136 297T130 300T125 311L161 649L95 635Q89
635 87 644T86 665Q87 673 97 676L200 702Q206 702 211 699T215 690L175 311Q174 297 153 297H145Q136 297 130 300ZM361 0T358 8T357 25Q357 32 360 35L516 228Q542 261 550 277T558 314Q558 338 543 351T500 365Q478 365 462 359T434 344T419 335Q414 335 409
345T403 363Q403 379 438 393T506 407Q552 407 580 384T609 322L608 310Q605 279 588 251T512 157L422 41H570Q581 41 580 24L579 17Q578 0 566 0H366Q361 0 358 8Z" />
<glyph unicode="&#xbe;" glyph-name="threequarters" horiz-adv-x="627" d="M93 293T62 303T33 326Q34 334 42 344T56 355Q59 355 80 345T130 334Q164 334 191 356T219 431Q219 464 199 477T143 491H120Q109 491 110 509L111 515Q112 532 124 532H145Q173 532
191 546T218 579T227 614Q227 634 214 649T167 664Q139 664 120 655T98 645Q93 645 87 656T81 675Q82 687 114 696T174 706Q222 706 249 684T277 619Q277 551 207 523V521Q232 514 251 490T270 426L269 412Q263 355 225 324T133 293Q93 293 62 303ZM166 -2T166
5Q166 7 170 15L481 686Q489 703 509 703H521Q534 703 534 696Q534 694 530 686L218 15Q211 -2 191 -2H179Q166 -2 166 5ZM499 -2T500 11L509 96H366Q362 96 358 106T355 125Q357 130 358 131L540 397Q546 405 560 405H572Q590 405 588 392L562 137H594Q606 137
603 120V113Q600 96 589 96H557L548 11Q547 -2 529 -2H516Q499 -2 500 11ZM514 137L526 253Q529 292 538 323L536 324L409 137H514Z" />
<glyph unicode="&#xbf;" glyph-name="questiondown" horiz-adv-x="391" d="M322 525T319 503L312 437Q310 415 270 415H253Q213 415 215 437L222 503Q225 525 265 525H282Q322 525 319 503ZM287 321T285 298Q281 264 256 221T186 134Q134 83 111 50T87 -25Q87
-109 186 -109Q229 -109 279 -83Q283 -81 290 -78T301 -75Q308 -75 318 -95T327 -126Q325 -150 275 -166T169 -183Q87 -183 40 -142T-8 -37Q-8 1 8 34T45 94T106 160Q153 207 176 236T207 301Q210 312 217 316T242 321H257Q287 321 285 298Z" />
<glyph unicode="&#xc0;" glyph-name="Agrave" horiz-adv-x="505" d="M-15 -2T-13 15Q-13 19 -12 22T-10 28L240 683Q247 702 282 702H311Q346 702 349 683L464 28Q466 18 466 15Q465 7 455 3T427 -2H410Q380 -2 379 14L353 178H135L76 14Q69 -2 38 -2H22Q-15 -2
-13 15ZM340 250L296 533Q292 560 290 594H285Q270 547 265 533L161 250H340ZM282 762T270 780Q214 855 203 871T191 896Q191 903 201 906T233 909Q276 909 290 883L310 841Q323 812 330 795T338 772Q338 767 334 765T317 762Q282 762 270 780Z" />
<glyph unicode="&#xc1;" glyph-name="Aacute" horiz-adv-x="505" d="M-15 -2T-13 15Q-13 19 -12 22T-10 28L240 683Q247 702 282 702H311Q346 702 349 683L464 28Q466 18 466 15Q465 7 455 3T427 -2H410Q380 -2 379 14L353 178H135L76 14Q69 -2 38 -2H22Q-15 -2
-13 15ZM340 250L296 533Q292 560 290 594H285Q270 547 265 533L161 250H340ZM263 762T263 772Q263 779 275 806T312 883Q324 909 368 909Q390 909 400 906T410 896Q410 890 401 877T374 838L332 780Q320 762 284 762Q263 762 263 772Z" />
<glyph unicode="&#xc2;" glyph-name="Acircumflex" horiz-adv-x="505" d="M-15 -2T-13 15Q-13 19 -12 22T-10 28L240 683Q247 702 282 702H311Q346 702 349 683L464 28Q466 18 466 15Q465 7 455 3T427 -2H410Q380 -2 379 14L353 178H135L76 14Q69 -2 38 -2H22Q-15
-2 -13 15ZM340 250L296 533Q292 560 290 594H285Q270 547 265 533L161 250H340ZM205 753T201 756T196 766Q197 770 200 776T205 785L267 873Q283 895 311 895H326Q352 895 365 873L409 785Q414 775 414 768Q413 761 408 757T393 753H373Q358 753 350 767L312 840L261
767Q249 753 233 753H214Q205 753 201 756Z" />
<glyph unicode="&#xc3;" glyph-name="Atilde" horiz-adv-x="505" d="M-15 -2T-13 15Q-13 19 -12 22T-10 28L240 683Q247 702 282 702H311Q346 702 349 683L464 28Q466 18 466 15Q465 7 455 3T427 -2H410Q380 -2 379 14L353 178H135L76 14Q69 -2 38 -2H22Q-15 -2
-13 15ZM340 250L296 533Q292 560 290 594H285Q270 547 265 533L161 250H340ZM163 773Q153 777 153 785Q153 791 156 798Q171 835 190 851T239 867Q254 867 268 862T308 846Q348 827 366 827Q377 827 385 832T404 853Q412 868 423 868Q428 868 434 865L441 862Q448
859 450 857T453 850Q453 844 449 836Q434 799 415 784T367 768Q351 768 334 773T294 790Q279 797 264 802T237 808Q227 808 219 802T201 781Q193 767 184 767Q181 767 173 769L163 773Z" />
<glyph unicode="&#xc4;" glyph-name="Adieresis" horiz-adv-x="505" d="M-15 -2T-13 15Q-13 19 -12 22T-10 28L240 683Q247 702 282 702H311Q346 702 349 683L464 28Q466 18 466 15Q465 7 455 3T427 -2H410Q380 -2 379 14L353 178H135L76 14Q69 -2 38 -2H22Q-15
-2 -13 15ZM340 250L296 533Q292 560 290 594H285Q270 547 265 533L161 250H340ZM206 784T209 806L214 857Q216 879 256 879Q294 879 292 857L287 806Q284 784 244 784Q206 784 209 806ZM332 784T335 806L340 857Q342 879 382 879Q420 879 418 857L413 806Q410
784 370 784Q332 784 335 806Z" />
<glyph unicode="&#xc5;" glyph-name="Aring" horiz-adv-x="505" d="M-15 -2T-13 15Q-13 19 -12 22T-10 28L240 683Q247 702 282 702H311Q346 702 349 683L464 28Q466 18 466 15Q465 7 455 3T427 -2H410Q380 -2 379 14L353 178H135L76 14Q69 -2 38 -2H22Q-15 -2
-13 15ZM340 250L296 533Q292 560 290 594H285Q270 547 265 533L161 250H340ZM268 741T248 760T227 813Q227 856 253 883T320 910Q355 910 375 890T396 836Q396 794 369 768T302 741Q268 741 248 760ZM329 776T343 791T358 833Q358 853 347 864T316 875Q292 875
278 860T264 817Q264 797 274 787T305 776Q329 776 343 791Z" />
<glyph unicode="&#xc6;" glyph-name="AE" horiz-adv-x="746" d="M-27 -2T-25 15Q-22 26 -19 31L304 673Q312 687 320 693T342 700H684Q703 700 700 670L698 654Q695 624 676 624H420L431 396H649Q668 396 665 366L663 350Q660 320 641 320H435L448 76H640Q656
76 656 57Q656 50 655 46L654 30Q652 14 647 7T632 0H389Q363 0 363 29L356 178H140L60 14Q53 -2 25 -2H11Q-27 -2 -25 15ZM351 253L339 526L343 584H341L316 526L180 253H351Z" />
<glyph unicode="&#xc7;" glyph-name="Ccedilla" horiz-adv-x="459" d="M465 683T468 677T470 660Q469 644 458 622T433 607Q393 628 349 628Q263 628 215 561T151 351Q146 301 146 269Q146 169 181 121T289 72Q340 72 386 97Q392 99 395 99Q408 99 413 82T418
48Q416 38 410 30T390 15Q372 7 343 1T281 -6H267L252 -60Q279 -60 302 -74T326 -127Q326 -210 230 -210Q198 -210 167 -198T136 -167Q136 -158 142 -150T155 -141Q162 -141 178 -148Q204 -161 224 -161Q238 -161 249 -154T260 -132Q260 -117 252 -110T227 -98Q216
-94 211 -90T205 -79Q205 -72 209 -56T227 -2Q139 12 96 77T53 262Q53 298 58 350Q71 474 105 551T200 667T357 706Q385 706 411 701T456 687Q465 683 468 677Z" />
<glyph unicode="&#xc8;" glyph-name="Egrave" horiz-adv-x="457" d="M65 0T59 7T55 30L123 670Q125 686 132 693T153 700H441Q460 700 457 670L455 654Q452 624 433 624H208L184 396H386Q405 396 402 366L400 350Q397 320 378 320H176L150 76H375Q385 76 389 69T391
46L389 30Q387 14 382 7T367 0H79Q65 0 59 7ZM276 762T264 780Q208 855 197 871T185 896Q185 903 195 906T227 909Q270 909 284 883L304 841Q317 812 324 795T332 772Q332 767 328 765T311 762Q276 762 264 780Z" />
<glyph unicode="&#xc9;" glyph-name="Eacute" horiz-adv-x="457" d="M65 0T59 7T55 30L123 670Q125 686 132 693T153 700H441Q460 700 457 670L455 654Q452 624 433 624H208L184 396H386Q405 396 402 366L400 350Q397 320 378 320H176L150 76H375Q385 76 389 69T391
46L389 30Q387 14 382 7T367 0H79Q65 0 59 7ZM257 762T257 772Q257 779 269 806T306 883Q318 909 362 909Q384 909 394 906T404 896Q404 890 395 877T368 838L326 780Q314 762 278 762Q257 762 257 772Z" />
<glyph unicode="&#xca;" glyph-name="Ecircumflex" horiz-adv-x="457" d="M65 0T59 7T55 30L123 670Q125 686 132 693T153 700H441Q460 700 457 670L455 654Q452 624 433 624H208L184 396H386Q405 396 402 366L400 350Q397 320 378 320H176L150 76H375Q385 76
389 69T391 46L389 30Q387 14 382 7T367 0H79Q65 0 59 7ZM199 753T195 756T190 766Q191 770 194 776T199 785L261 873Q277 895 305 895H320Q346 895 359 873L403 785Q408 775 408 768Q407 761 402 757T387 753H367Q352 753 344 767L306 840L255 767Q243 753 227
753H208Q199 753 195 756Z" />
<glyph unicode="&#xcb;" glyph-name="Edieresis" horiz-adv-x="457" d="M65 0T59 7T55 30L123 670Q125 686 132 693T153 700H441Q460 700 457 670L455 654Q452 624 433 624H208L184 396H386Q405 396 402 366L400 350Q397 320 378 320H176L150 76H375Q385 76 389
69T391 46L389 30Q387 14 382 7T367 0H79Q65 0 59 7ZM200 784T203 806L208 857Q210 879 250 879Q288 879 286 857L281 806Q278 784 238 784Q200 784 203 806ZM326 784T329 806L334 857Q336 879 376 879Q414 879 412 857L407 806Q404 784 364 784Q326 784 329 806Z"
/>
<glyph unicode="&#xcc;" glyph-name="Igrave" horiz-adv-x="262" d="M58 -2T60 20L130 680Q132 702 170 702H185Q222 702 220 680L150 20Q148 -2 111 -2H96Q58 -2 60 20ZM160 762T148 780Q92 855 81 871T69 896Q69 903 79 906T111 909Q154 909 168 883L188 841Q201
812 208 795T216 772Q216 767 212 765T195 762Q160 762 148 780Z" />
<glyph unicode="&#xcd;" glyph-name="Iacute" horiz-adv-x="262" d="M58 -2T60 20L130 680Q132 702 170 702H185Q222 702 220 680L150 20Q148 -2 111 -2H96Q58 -2 60 20ZM141 762T141 772Q141 779 153 806T190 883Q202 909 246 909Q268 909 278 906T288 896Q288
890 279 877T252 838L210 780Q198 762 162 762Q141 762 141 772Z" />
<glyph unicode="&#xce;" glyph-name="Icircumflex" horiz-adv-x="262" d="M58 -2T60 20L130 680Q132 702 170 702H185Q222 702 220 680L150 20Q148 -2 111 -2H96Q58 -2 60 20ZM83 753T79 756T74 766Q75 770 78 776T83 785L145 873Q161 895 189 895H204Q230 895
243 873L287 785Q292 775 292 768Q291 761 286 757T271 753H251Q236 753 228 767L190 840L139 767Q127 753 111 753H92Q83 753 79 756Z" />
<glyph unicode="&#xcf;" glyph-name="Idieresis" horiz-adv-x="262" d="M58 -2T60 20L130 680Q132 702 170 702H185Q222 702 220 680L150 20Q148 -2 111 -2H96Q58 -2 60 20ZM84 784T87 806L92 857Q94 879 134 879Q172 879 170 857L165 806Q162 784 122 784Q84
784 87 806ZM210 784T213 806L218 857Q220 879 260 879Q298 879 296 857L291 806Q288 784 248 784Q210 784 213 806Z" />
<glyph unicode="&#xd0;" glyph-name="Eth" horiz-adv-x="577" d="M540 700T540 434Q540 400 535 350Q499 0 247 0H79Q65 0 59 7T55 30L86 320H37Q20 320 20 342Q20 367 24 381T45 396H94L123 670Q125 686 132 693T153 700H321Q540 700 540 434ZM447 386T447 425Q447
528 411 576T311 624H209L185 396H295Q312 396 312 374Q312 349 308 335T287 320H177L151 76H253Q328 76 378 141T443 350Q447 386 447 425Z" />
<glyph unicode="&#xd1;" glyph-name="Ntilde" horiz-adv-x="590" d="M45 -2T48 20L117 680Q119 702 157 702H181Q196 702 205 698T218 682L401 225Q414 190 421 162L426 164Q424 176 424 200Q424 220 425 230L473 680Q475 702 513 702H525Q563 702 561 680L492
20Q489 -2 451 -2H433Q405 -2 399 13L208 485Q197 513 189 548L184 546Q186 534 186 510Q186 490 185 480L136 20Q134 -2 95 -2H83Q45 -2 48 20ZM201 773Q191 777 191 785Q191 791 194 798Q209 835 228 851T277 867Q292 867 306 862T346 846Q386 827 404 827Q415
827 423 832T442 853Q450 868 461 868Q466 868 472 865L479 862Q486 859 488 857T491 850Q491 844 487 836Q472 799 453 784T405 768Q389 768 372 773T332 790Q317 797 302 802T275 808Q265 808 257 802T239 781Q231 767 222 767Q219 767 211 769L201 773Z" />
<glyph unicode="&#xd2;" glyph-name="Ograve" horiz-adv-x="599" d="M171 -6T113 65T55 275Q55 316 59 352Q97 706 346 706Q448 706 506 637T564 430Q564 389 560 352Q541 172 468 83T272 -6Q171 -6 113 65ZM439 70T468 352Q473 400 473 432Q473 630 339 630Q260
630 214 563T152 352Q147 302 147 271Q147 70 281 70Q439 70 468 352ZM330 762T318 780Q262 855 251 871T239 896Q239 903 249 906T281 909Q324 909 338 883L358 841Q371 812 378 795T386 772Q386 767 382 765T365 762Q330 762 318 780Z" />
<glyph unicode="&#xd3;" glyph-name="Oacute" horiz-adv-x="599" d="M171 -6T113 65T55 275Q55 316 59 352Q97 706 346 706Q448 706 506 637T564 430Q564 389 560 352Q541 172 468 83T272 -6Q171 -6 113 65ZM439 70T468 352Q473 400 473 432Q473 630 339 630Q260
630 214 563T152 352Q147 302 147 271Q147 70 281 70Q439 70 468 352ZM311 762T311 772Q311 779 323 806T360 883Q372 909 416 909Q438 909 448 906T458 896Q458 890 449 877T422 838L380 780Q368 762 332 762Q311 762 311 772Z" />
<glyph unicode="&#xd4;" glyph-name="Ocircumflex" horiz-adv-x="599" d="M171 -6T113 65T55 275Q55 316 59 352Q97 706 346 706Q448 706 506 637T564 430Q564 389 560 352Q541 172 468 83T272 -6Q171 -6 113 65ZM439 70T468 352Q473 400 473 432Q473 630 339
630Q260 630 214 563T152 352Q147 302 147 271Q147 70 281 70Q439 70 468 352ZM253 753T249 756T244 766Q245 770 248 776T253 785L315 873Q331 895 359 895H374Q400 895 413 873L457 785Q462 775 462 768Q461 761 456 757T441 753H421Q406 753 398 767L360 840L309
767Q297 753 281 753H262Q253 753 249 756Z" />
<glyph unicode="&#xd5;" glyph-name="Otilde" horiz-adv-x="599" d="M171 -6T113 65T55 275Q55 316 59 352Q97 706 346 706Q448 706 506 637T564 430Q564 389 560 352Q541 172 468 83T272 -6Q171 -6 113 65ZM439 70T468 352Q473 400 473 432Q473 630 339 630Q260
630 214 563T152 352Q147 302 147 271Q147 70 281 70Q439 70 468 352ZM211 773Q201 777 201 785Q201 791 204 798Q219 835 238 851T287 867Q302 867 316 862T356 846Q396 827 414 827Q425 827 433 832T452 853Q460 868 471 868Q476 868 482 865L489 862Q496 859
498 857T501 850Q501 844 497 836Q482 799 463 784T415 768Q399 768 382 773T342 790Q327 797 312 802T285 808Q275 808 267 802T249 781Q241 767 232 767Q229 767 221 769L211 773Z" />
<glyph unicode="&#xd6;" glyph-name="Odieresis" horiz-adv-x="599" d="M171 -6T113 65T55 275Q55 316 59 352Q97 706 346 706Q448 706 506 637T564 430Q564 389 560 352Q541 172 468 83T272 -6Q171 -6 113 65ZM439 70T468 352Q473 400 473 432Q473 630 339 630Q260
630 214 563T152 352Q147 302 147 271Q147 70 281 70Q439 70 468 352ZM254 784T257 806L262 857Q264 879 304 879Q342 879 340 857L335 806Q332 784 292 784Q254 784 257 806ZM380 784T383 806L388 857Q390 879 430 879Q468 879 466 857L461 806Q458 784 418 784Q380
784 383 806Z" />
<glyph unicode="&#xd7;" glyph-name="multiply" horiz-adv-x="448" d="M418 423T418 418Q418 412 406 398L255 221L362 56Q372 41 372 36Q372 30 363 24L344 9Q334 1 326 1Q320 1 314 8L208 174L65 8Q58 1 52 1Q46 1 36 9L20 24Q13 30 13 36Q13 40 16 45T24 56L172
227L60 398Q51 412 51 418Q51 424 59 430L78 445Q88 453 96 453Q101 453 107 446L219 274L365 446Q372 453 379 453Q387 453 395 445L411 430Q418 423 418 418Z" />
<glyph unicode="&#xd8;" glyph-name="Oslash" horiz-adv-x="599" d="M564 566T564 430Q564 389 560 352Q541 172 468 83T272 -6Q190 -6 137 40L109 -6Q102 -18 94 -18Q87 -18 79 -12T71 1Q71 9 76 15L109 69Q55 142 55 275Q55 316 59 352Q97 706 346 706Q424 706
477 665L501 705Q507 716 516 716Q524 716 531 711T539 697Q539 692 535 685L506 637Q564 566 564 430ZM147 302T147 270Q147 204 163 156L431 592Q399 630 339 630Q260 630 214 563T152 352Q147 302 147 270ZM472 391T472 432Q472 508 454 553L184 116Q217 70
281 70Q439 70 468 352Q472 391 472 432Z" />
<glyph unicode="&#xd9;" glyph-name="Ugrave" horiz-adv-x="583" d="M165 -6T113 39T60 167Q60 185 61 195L112 680Q114 702 152 702H166Q204 702 202 680L151 192Q150 187 150 177Q150 129 183 100T272 70Q330 70 371 104T418 192L469 680Q471 702 509 702H523Q561
702 559 680L508 195Q498 100 435 47T264 -6Q165 -6 113 39ZM321 762T309 780Q253 855 242 871T230 896Q230 903 240 906T272 909Q315 909 329 883L349 841Q362 812 369 795T377 772Q377 767 373 765T356 762Q321 762 309 780Z" />
<glyph unicode="&#xda;" glyph-name="Uacute" horiz-adv-x="583" d="M165 -6T113 39T60 167Q60 185 61 195L112 680Q114 702 152 702H166Q204 702 202 680L151 192Q150 187 150 177Q150 129 183 100T272 70Q330 70 371 104T418 192L469 680Q471 702 509 702H523Q561
702 559 680L508 195Q498 100 435 47T264 -6Q165 -6 113 39ZM302 762T302 772Q302 779 314 806T351 883Q363 909 407 909Q429 909 439 906T449 896Q449 890 440 877T413 838L371 780Q359 762 323 762Q302 762 302 772Z" />
<glyph unicode="&#xdb;" glyph-name="Ucircumflex" horiz-adv-x="583" d="M165 -6T113 39T60 167Q60 185 61 195L112 680Q114 702 152 702H166Q204 702 202 680L151 192Q150 187 150 177Q150 129 183 100T272 70Q330 70 371 104T418 192L469 680Q471 702 509 702H523Q561
702 559 680L508 195Q498 100 435 47T264 -6Q165 -6 113 39ZM244 753T240 756T235 766Q236 770 239 776T244 785L306 873Q322 895 350 895H365Q391 895 404 873L448 785Q453 775 453 768Q452 761 447 757T432 753H412Q397 753 389 767L351 840L300 767Q288 753
272 753H253Q244 753 240 756Z" />
<glyph unicode="&#xdc;" glyph-name="Udieresis" horiz-adv-x="583" d="M165 -6T113 39T60 167Q60 185 61 195L112 680Q114 702 152 702H166Q204 702 202 680L151 192Q150 187 150 177Q150 129 183 100T272 70Q330 70 371 104T418 192L469 680Q471 702 509 702H523Q561
702 559 680L508 195Q498 100 435 47T264 -6Q165 -6 113 39ZM245 784T248 806L253 857Q255 879 295 879Q333 879 331 857L326 806Q323 784 283 784Q245 784 248 806ZM371 784T374 806L379 857Q381 879 421 879Q459 879 457 857L452 806Q449 784 409 784Q371 784
374 806Z" />
<glyph unicode="&#xdd;" glyph-name="Yacute" horiz-adv-x="484" d="M169 -2T171 20L203 317L69 667Q64 679 64 685Q65 694 73 698T104 702H119Q136 702 144 699T156 687L255 404L416 688Q421 696 431 699T457 702H472Q492 701 500 697T508 685Q508 678 500 667L292
314L261 20Q259 -2 221 -2H207Q169 -2 171 20ZM252 762T252 772Q252 779 264 806T301 883Q313 909 357 909Q379 909 389 906T399 896Q399 890 390 877T363 838L321 780Q309 762 273 762Q252 762 252 772Z" />
<glyph unicode="&#xde;" glyph-name="Thorn" horiz-adv-x="482" d="M45 -2T48 20L117 680Q119 702 157 702H171Q209 702 207 680L196 579H298Q363 579 412 545T462 418Q462 407 460 383Q451 300 415 254T337 193T264 177H154L138 20Q135 -2 97 -2H83Q45 -2 48
20ZM267 253Q299 253 329 282T367 383Q368 392 368 407Q368 461 344 482T285 503H188L162 253H267Z" />
<glyph unicode="&#xdf;" glyph-name="germandbls" horiz-adv-x="480" d="M52 -2T55 20L108 532Q116 610 165 658T295 706Q360 706 402 673T444 568Q444 508 416 458T341 387V384Q386 371 408 332T431 236Q431 226 429 204Q419 108 365 54T230 0H207Q190 0 190
20Q190 26 191 30L192 42Q195 72 214 72H235Q264 72 288 91T327 146T342 230Q342 282 319 311T259 340H242Q223 340 226 370L228 382Q231 412 249 412H255Q280 412 303 430T340 480T354 554Q354 634 284 634Q246 634 223 608T194 532L141 20Q138 -2 101 -2H90Q52
-2 55 20Z" />
<glyph unicode="&#xe0;" glyph-name="agrave" horiz-adv-x="481" d="M107 -7T76 52T44 203Q44 233 47 263Q60 385 113 457T244 529Q310 529 352 475Q361 502 369 513T397 525H403Q417 525 422 520T428 504Q427 493 425 475T421 436L416 393L386 115Q382 66 411
66Q418 66 426 68T440 71Q445 71 447 65T450 48Q450 -6 385 -6Q353 -6 328 13T301 83Q255 -7 174 -7Q107 -7 76 52ZM230 66T260 97T311 198L329 367Q331 385 337 417Q321 434 303 445T257 456Q201 456 172 407T133 267Q129 225 129 202Q129 141 145 104T198 66Q230
66 260 97ZM243 585T231 603Q175 678 164 694T152 719Q152 726 162 729T194 732Q237 732 251 706L271 664Q284 635 291 618T299 595Q299 590 295 588T278 585Q243 585 231 603Z" />
<glyph unicode="&#xe1;" glyph-name="aacute" horiz-adv-x="481" d="M107 -7T76 52T44 203Q44 233 47 263Q60 385 113 457T244 529Q310 529 352 475Q361 502 369 513T397 525H403Q417 525 422 520T428 504Q427 493 425 475T421 436L416 393L386 115Q382 66 411
66Q418 66 426 68T440 71Q445 71 447 65T450 48Q450 -6 385 -6Q353 -6 328 13T301 83Q255 -7 174 -7Q107 -7 76 52ZM230 66T260 97T311 198L329 367Q331 385 337 417Q321 434 303 445T257 456Q201 456 172 407T133 267Q129 225 129 202Q129 141 145 104T198 66Q230
66 260 97ZM224 585T224 595Q224 602 236 629T273 706Q285 732 329 732Q351 732 361 729T371 719Q371 713 362 700T335 661L293 603Q281 585 245 585Q224 585 224 595Z" />
<glyph unicode="&#xe2;" glyph-name="acircumflex" horiz-adv-x="481" d="M107 -7T76 52T44 203Q44 233 47 263Q60 385 113 457T244 529Q310 529 352 475Q361 502 369 513T397 525H403Q417 525 422 520T428 504Q427 493 425 475T421 436L416 393L386 115Q382 66
411 66Q418 66 426 68T440 71Q445 71 447 65T450 48Q450 -6 385 -6Q353 -6 328 13T301 83Q255 -7 174 -7Q107 -7 76 52ZM230 66T260 97T311 198L329 367Q331 385 337 417Q321 434 303 445T257 456Q201 456 172 407T133 267Q129 225 129 202Q129 141 145 104T198
66Q230 66 260 97ZM166 576T162 579T157 589Q158 593 161 599T166 608L228 696Q244 718 272 718H287Q313 718 326 696L370 608Q375 598 375 591Q374 584 369 580T354 576H334Q319 576 311 590L273 663L222 590Q210 576 194 576H175Q166 576 162 579Z" />
<glyph unicode="&#xe3;" glyph-name="atilde" horiz-adv-x="481" d="M107 -7T76 52T44 203Q44 233 47 263Q60 385 113 457T244 529Q310 529 352 475Q361 502 369 513T397 525H403Q417 525 422 520T428 504Q427 493 425 475T421 436L416 393L386 115Q382 66 411
66Q418 66 426 68T440 71Q445 71 447 65T450 48Q450 -6 385 -6Q353 -6 328 13T301 83Q255 -7 174 -7Q107 -7 76 52ZM230 66T260 97T311 198L329 367Q331 385 337 417Q321 434 303 445T257 456Q201 456 172 407T133 267Q129 225 129 202Q129 141 145 104T198 66Q230
66 260 97ZM124 596Q114 600 114 608Q114 614 117 621Q132 658 151 674T200 690Q215 690 229 685T269 669Q309 650 327 650Q338 650 346 655T365 676Q373 691 384 691Q389 691 395 688L402 685Q409 682 411 680T414 673Q414 667 410 659Q395 622 376 607T328 591Q312
591 295 596T255 613Q240 620 225 625T198 631Q188 631 180 625T162 604Q154 590 145 590Q142 590 134 592L124 596Z" />
<glyph unicode="&#xe4;" glyph-name="adieresis" horiz-adv-x="481" d="M107 -7T76 52T44 203Q44 233 47 263Q60 385 113 457T244 529Q310 529 352 475Q361 502 369 513T397 525H403Q417 525 422 520T428 504Q427 493 425 475T421 436L416 393L386 115Q382 66
411 66Q418 66 426 68T440 71Q445 71 447 65T450 48Q450 -6 385 -6Q353 -6 328 13T301 83Q255 -7 174 -7Q107 -7 76 52ZM230 66T260 97T311 198L329 367Q331 385 337 417Q321 434 303 445T257 456Q201 456 172 407T133 267Q129 225 129 202Q129 141 145 104T198
66Q230 66 260 97ZM167 607T170 629L175 680Q177 702 217 702Q255 702 253 680L248 629Q245 607 205 607Q167 607 170 629ZM293 607T296 629L301 680Q303 702 343 702Q381 702 379 680L374 629Q371 607 331 607Q293 607 296 629Z" />
<glyph unicode="&#xe5;" glyph-name="aring" horiz-adv-x="481" d="M107 -7T76 52T44 203Q44 233 47 263Q60 385 113 457T244 529Q310 529 352 475Q361 502 369 513T397 525H403Q417 525 422 520T428 504Q427 493 425 475T421 436L416 393L386 115Q382 66 411
66Q418 66 426 68T440 71Q445 71 447 65T450 48Q450 -6 385 -6Q353 -6 328 13T301 83Q255 -7 174 -7Q107 -7 76 52ZM230 66T260 97T311 198L329 367Q331 385 337 417Q321 434 303 445T257 456Q201 456 172 407T133 267Q129 225 129 202Q129 141 145 104T198 66Q230
66 260 97ZM229 564T209 583T188 636Q188 679 214 706T281 733Q316 733 336 713T357 659Q357 617 330 591T263 564Q229 564 209 583ZM290 599T304 614T319 656Q319 676 308 687T277 698Q253 698 239 683T225 640Q225 620 235 610T266 599Q290 599 304 614Z" />
<glyph unicode="&#xe6;" glyph-name="ae" horiz-adv-x="688" d="M104 -6T66 29T27 128Q27 142 28 150Q38 248 105 284T285 325Q293 367 311 404Q302 457 241 457Q207 457 182 449T136 432T113 423Q103 423 94 441T84 470Q84 483 108 497T170 520T249 529Q330 529
369 485Q424 529 499 529Q648 529 648 328Q648 293 646 274Q645 265 632 249T609 233H361Q360 223 360 203Q360 132 383 99T461 66Q497 66 521 76T563 97T583 108Q593 108 603 89T613 59Q613 47 591 32T532 5T455 -6Q352 -6 308 53Q279 25 242 10T161 -6Q104 -6
66 29ZM561 305Q563 335 563 346Q563 457 489 457Q392 457 369 305H561ZM237 73T280 116Q270 150 270 199Q270 225 273 252Q203 249 159 225T115 137Q115 106 131 90T178 73Q237 73 280 116Z" />
<glyph unicode="&#xe7;" glyph-name="ccedilla" horiz-adv-x="408" d="M327 529T365 515T401 483Q400 471 387 450T365 429Q364 429 354 433Q315 457 276 457Q216 457 182 413T137 266Q133 220 133 202Q133 131 157 99T237 66Q283 66 323 88Q327 90 330 92T337
96Q347 96 356 77T364 45Q363 30 322 14T239 -6L224 -60Q251 -60 274 -74T298 -127Q298 -210 202 -210Q170 -210 139 -198T108 -167Q108 -158 114 -150T127 -141Q134 -141 150 -148Q176 -161 196 -161Q210 -161 221 -154T232 -132Q232 -117 224 -110T199 -98Q188
-94 183 -90T177 -79Q177 -72 181 -56T198 -5Q119 3 81 51T42 197Q42 232 46 264Q61 411 122 470T281 529Q327 529 365 515Z" />
<glyph unicode="&#xe8;" glyph-name="egrave" horiz-adv-x="454" d="M377 115T381 109T385 94Q385 62 368 42Q347 19 308 7T237 -6Q48 -6 48 194Q48 289 74 364T153 484T286 529Q336 529 367 508T412 456T426 396Q426 307 364 260T202 213Q169 213 135 219V210Q133
131 161 99T244 66Q277 66 299 76T349 103Q366 115 371 115Q377 115 381 109ZM215 457T183 410T140 285H193Q254 285 297 309T340 389Q340 418 323 437T277 457Q215 457 183 410ZM256 585T244 603Q188 678 177 694T165 719Q165 726 175 729T207 732Q250 732 264
706L284 664Q297 635 304 618T312 595Q312 590 308 588T291 585Q256 585 244 603Z" />
<glyph unicode="&#xe9;" glyph-name="eacute" horiz-adv-x="454" d="M377 115T381 109T385 94Q385 62 368 42Q347 19 308 7T237 -6Q48 -6 48 194Q48 289 74 364T153 484T286 529Q336 529 367 508T412 456T426 396Q426 307 364 260T202 213Q169 213 135 219V210Q133
131 161 99T244 66Q277 66 299 76T349 103Q366 115 371 115Q377 115 381 109ZM215 457T183 410T140 285H193Q254 285 297 309T340 389Q340 418 323 437T277 457Q215 457 183 410ZM237 585T237 595Q237 602 249 629T286 706Q298 732 342 732Q364 732 374 729T384
719Q384 713 375 700T348 661L306 603Q294 585 258 585Q237 585 237 595Z" />
<glyph unicode="&#xea;" glyph-name="ecircumflex" horiz-adv-x="454" d="M377 115T381 109T385 94Q385 62 368 42Q347 19 308 7T237 -6Q48 -6 48 194Q48 289 74 364T153 484T286 529Q336 529 367 508T412 456T426 396Q426 307 364 260T202 213Q169 213 135 219V210Q133
131 161 99T244 66Q277 66 299 76T349 103Q366 115 371 115Q377 115 381 109ZM215 457T183 410T140 285H193Q254 285 297 309T340 389Q340 418 323 437T277 457Q215 457 183 410ZM179 576T175 579T170 589Q171 593 174 599T179 608L241 696Q257 718 285 718H300Q326
718 339 696L383 608Q388 598 388 591Q387 584 382 580T367 576H347Q332 576 324 590L286 663L235 590Q223 576 207 576H188Q179 576 175 579Z" />
<glyph unicode="&#xeb;" glyph-name="edieresis" horiz-adv-x="454" d="M377 115T381 109T385 94Q385 62 368 42Q347 19 308 7T237 -6Q48 -6 48 194Q48 289 74 364T153 484T286 529Q336 529 367 508T412 456T426 396Q426 307 364 260T202 213Q169 213 135 219V210Q133
131 161 99T244 66Q277 66 299 76T349 103Q366 115 371 115Q377 115 381 109ZM215 457T183 410T140 285H193Q254 285 297 309T340 389Q340 418 323 437T277 457Q215 457 183 410ZM180 607T183 629L188 680Q190 702 230 702Q268 702 266 680L261 629Q258 607 218
607Q180 607 183 629ZM306 607T309 629L314 680Q316 702 356 702Q394 702 392 680L387 629Q384 607 344 607Q306 607 309 629Z" />
<glyph unicode="&#xec;" glyph-name="igrave" horiz-adv-x="254" d="M108 -3T85 15T61 88Q61 102 62 110L70 206Q99 503 102 503Q103 515 113 520T144 525H148Q169 525 177 520T186 503L146 126Q145 118 145 106Q145 69 168 69Q175 69 183 71T197 74Q207 74 207
53Q207 35 201 23Q195 10 179 4T142 -3Q108 -3 85 15ZM385 585T373 603Q317 678 306 694T294 719Q294 726 304 729T336 732Q379 732 393 706L413 664Q426 635 433 618T441 595Q441 590 437 588T420 585Q385 585 373 603Z" />
<glyph unicode="&#xed;" glyph-name="iacute" horiz-adv-x="254" d="M108 -3T85 15T61 88Q61 102 62 110L70 206Q99 503 102 503Q103 515 113 520T144 525H148Q169 525 177 520T186 503L146 126Q145 118 145 106Q145 69 168 69Q175 69 183 71T197 74Q207 74 207
53Q207 35 201 23Q195 10 179 4T142 -3Q108 -3 85 15ZM110 585T110 595Q110 602 122 629T159 706Q171 732 215 732Q237 732 247 729T257 719Q257 713 248 700T221 661L179 603Q167 585 131 585Q110 585 110 595Z" />
<glyph unicode="&#xee;" glyph-name="icircumflex" horiz-adv-x="254" d="M108 -3T85 15T61 88Q61 102 62 110L70 206Q99 503 102 503Q103 515 113 520T144 525H148Q169 525 177 520T186 503L146 126Q145 118 145 106Q145 69 168 69Q175 69 183 71T197 74Q207
74 207 53Q207 35 201 23Q195 10 179 4T142 -3Q108 -3 85 15ZM308 576T304 579T299 589Q300 593 303 599T308 608L370 696Q386 718 414 718H429Q455 718 468 696L512 608Q517 598 517 591Q516 584 511 580T496 576H476Q461 576 453 590L415 663L364 590Q352 576
336 576H317Q308 576 304 579Z" />
<glyph unicode="&#xef;" glyph-name="idieresis" horiz-adv-x="254" d="M108 -3T85 15T61 88Q61 102 62 110L70 206Q99 503 102 503Q103 515 113 520T144 525H148Q169 525 177 520T186 503L146 126Q145 118 145 106Q145 69 168 69Q175 69 183 71T197 74Q207 74
207 53Q207 35 201 23Q195 10 179 4T142 -3Q108 -3 85 15ZM309 607T312 629L317 680Q319 702 359 702Q397 702 395 680L390 629Q387 607 347 607Q309 607 312 629ZM435 607T438 629L443 680Q445 702 485 702Q523 702 521 680L516 629Q513 607 473 607Q435 607 438
629Z" />
<glyph unicode="&#xf0;" glyph-name="eth" horiz-adv-x="477" d="M440 628T425 626L364 618Q433 469 433 327Q433 295 430 260Q402 -6 212 -6Q132 -6 88 48T44 204Q44 231 47 259Q61 389 113 457T256 526Q296 526 322 513Q312 553 284 607L197 595Q187 595 180
605T174 627Q175 637 191 640L264 650Q255 665 249 678T243 698Q245 709 260 712Q274 714 288 714Q303 714 312 702Q330 678 341 660Q415 671 420 671Q432 671 437 660T442 639Q440 628 425 626ZM346 305T346 322Q346 454 258 454Q205 454 176 407T135 261Q131
215 131 197Q131 130 152 98T217 66Q270 66 301 113T342 261Q346 305 346 322Z" />
<glyph unicode="&#xf1;" glyph-name="ntilde" horiz-adv-x="482" d="M447 71T447 49Q447 -6 382 -6Q349 -6 324 15T298 91Q298 104 305 171L325 365Q326 372 326 385Q326 456 266 456Q240 456 215 437T171 386L132 20Q130 -2 92 -2H81Q44 -2 46 20L84 373Q88 418
88 453Q88 472 87 483T87 499Q88 511 110 516T147 522Q161 522 165 510T170 480T172 454Q198 490 232 509T302 529Q356 529 385 495T415 401Q415 393 413 373Q385 120 385 104Q384 66 408 66Q415 66 423 68T437 71Q447 71 447 49ZM134 596Q124 600 124 608Q124
614 127 621Q142 658 161 674T210 690Q225 690 239 685T279 669Q319 650 337 650Q348 650 356 655T375 676Q383 691 394 691Q399 691 405 688L412 685Q419 682 421 680T424 673Q424 667 420 659Q405 622 386 607T338 591Q322 591 305 596T265 613Q250 620 235 625T208
631Q198 631 190 625T172 604Q164 590 155 590Q152 590 144 592L134 596Z" />
<glyph unicode="&#xf2;" glyph-name="ograve" horiz-adv-x="477" d="M129 -6T87 46T44 200Q44 228 47 259Q61 389 118 459T268 529Q349 529 391 476T433 319Q433 291 430 259Q416 129 361 62T212 -6Q129 -6 87 46ZM270 66T301 113T342 261Q346 307 346 324Q346
392 325 424T259 457Q206 457 177 410T136 261Q132 229 132 196Q132 130 153 98T217 66Q270 66 301 113ZM249 585T237 603Q181 678 170 694T158 719Q158 726 168 729T200 732Q243 732 257 706L277 664Q290 635 297 618T305 595Q305 590 301 588T284 585Q249 585
237 603Z" />
<glyph unicode="&#xf3;" glyph-name="oacute" horiz-adv-x="477" d="M129 -6T87 46T44 200Q44 228 47 259Q61 389 118 459T268 529Q349 529 391 476T433 319Q433 291 430 259Q416 129 361 62T212 -6Q129 -6 87 46ZM270 66T301 113T342 261Q346 307 346 324Q346
392 325 424T259 457Q206 457 177 410T136 261Q132 229 132 196Q132 130 153 98T217 66Q270 66 301 113ZM230 585T230 595Q230 602 242 629T279 706Q291 732 335 732Q357 732 367 729T377 719Q377 713 368 700T341 661L299 603Q287 585 251 585Q230 585 230 595Z"
/>
<glyph unicode="&#xf4;" glyph-name="ocircumflex" horiz-adv-x="477" d="M129 -6T87 46T44 200Q44 228 47 259Q61 389 118 459T268 529Q349 529 391 476T433 319Q433 291 430 259Q416 129 361 62T212 -6Q129 -6 87 46ZM270 66T301 113T342 261Q346 307 346 324Q346
392 325 424T259 457Q206 457 177 410T136 261Q132 229 132 196Q132 130 153 98T217 66Q270 66 301 113ZM172 576T168 579T163 589Q164 593 167 599T172 608L234 696Q250 718 278 718H293Q319 718 332 696L376 608Q381 598 381 591Q380 584 375 580T360 576H340Q325
576 317 590L279 663L228 590Q216 576 200 576H181Q172 576 168 579Z" />
<glyph unicode="&#xf5;" glyph-name="otilde" horiz-adv-x="477" d="M129 -6T87 46T44 200Q44 228 47 259Q61 389 118 459T268 529Q349 529 391 476T433 319Q433 291 430 259Q416 129 361 62T212 -6Q129 -6 87 46ZM270 66T301 113T342 261Q346 307 346 324Q346
392 325 424T259 457Q206 457 177 410T136 261Q132 229 132 196Q132 130 153 98T217 66Q270 66 301 113ZM130 596Q120 600 120 608Q120 614 123 621Q138 658 157 674T206 690Q221 690 235 685T275 669Q315 650 333 650Q344 650 352 655T371 676Q379 691 390 691Q395
691 401 688L408 685Q415 682 417 680T420 673Q420 667 416 659Q401 622 382 607T334 591Q318 591 301 596T261 613Q246 620 231 625T204 631Q194 631 186 625T168 604Q160 590 151 590Q148 590 140 592L130 596Z" />
<glyph unicode="&#xf6;" glyph-name="odieresis" horiz-adv-x="477" d="M129 -6T87 46T44 200Q44 228 47 259Q61 389 118 459T268 529Q349 529 391 476T433 319Q433 291 430 259Q416 129 361 62T212 -6Q129 -6 87 46ZM270 66T301 113T342 261Q346 307 346 324Q346
392 325 424T259 457Q206 457 177 410T136 261Q132 229 132 196Q132 130 153 98T217 66Q270 66 301 113ZM173 607T176 629L181 680Q183 702 223 702Q261 702 259 680L254 629Q251 607 211 607Q173 607 176 629ZM299 607T302 629L307 680Q309 702 349 702Q387 702
385 680L380 629Q377 607 337 607Q299 607 302 629Z" />
<glyph unicode="&#xf7;" glyph-name="divide" horiz-adv-x="448" d="M194 368T197 390L202 441Q204 463 242 463H247Q285 463 283 441L278 390Q275 368 237 368H232Q194 368 197 390ZM26 197T29 227L30 234Q33 264 57 264H392Q416 264 413 234L412 227Q409 197
385 197H50Q26 197 29 227ZM155 -2T158 20L163 71Q165 93 203 93H208Q246 93 244 71L239 20Q236 -2 198 -2H193Q155 -2 158 20Z" />
<glyph unicode="&#xf8;" glyph-name="oslash" horiz-adv-x="477" d="M433 411T433 319Q433 291 430 259Q416 129 361 62T212 -6Q145 -6 104 29L85 2Q81 -6 72 -6Q65 -6 56 1T46 15Q46 19 52 28L75 62Q44 112 44 201Q44 228 47 259Q61 389 118 459T268 529Q334
529 372 495L389 520Q395 528 402 528Q409 528 418 521T428 507Q428 503 422 494L400 462Q433 411 433 319ZM132 229T132 196Q132 171 135 150L324 425Q303 457 259 457Q206 457 177 410T136 261Q132 229 132 196ZM346 293T346 325Q346 357 342 377L152 99Q173
66 217 66Q270 66 301 113T342 261Q346 293 346 325Z" />
<glyph unicode="&#xf9;" glyph-name="ugrave" horiz-adv-x="482" d="M449 74T449 53Q449 35 443 23Q437 10 421 4T384 -3Q355 -3 332 12T302 68Q276 33 241 13T168 -7Q112 -7 82 25T52 114Q52 130 53 138L92 502Q94 524 132 524H142Q180 524 178 502L141 151Q140
145 140 134Q140 66 203 66Q231 66 257 85T303 136L342 502Q344 524 382 524H392Q430 524 428 502L396 201Q387 123 387 110Q386 87 392 78T410 69Q417 69 425 71T439 74Q449 74 449 53ZM245 585T233 603Q177 678 166 694T154 719Q154 726 164 729T196 732Q239
732 253 706L273 664Q286 635 293 618T301 595Q301 590 297 588T280 585Q245 585 233 603Z" />
<glyph unicode="&#xfa;" glyph-name="uacute" horiz-adv-x="482" d="M449 74T449 53Q449 35 443 23Q437 10 421 4T384 -3Q355 -3 332 12T302 68Q276 33 241 13T168 -7Q112 -7 82 25T52 114Q52 130 53 138L92 502Q94 524 132 524H142Q180 524 178 502L141 151Q140
145 140 134Q140 66 203 66Q231 66 257 85T303 136L342 502Q344 524 382 524H392Q430 524 428 502L396 201Q387 123 387 110Q386 87 392 78T410 69Q417 69 425 71T439 74Q449 74 449 53ZM226 585T226 595Q226 602 238 629T275 706Q287 732 331 732Q353 732 363
729T373 719Q373 713 364 700T337 661L295 603Q283 585 247 585Q226 585 226 595Z" />
<glyph unicode="&#xfb;" glyph-name="ucircumflex" horiz-adv-x="482" d="M449 74T449 53Q449 35 443 23Q437 10 421 4T384 -3Q355 -3 332 12T302 68Q276 33 241 13T168 -7Q112 -7 82 25T52 114Q52 130 53 138L92 502Q94 524 132 524H142Q180 524 178 502L141
151Q140 145 140 134Q140 66 203 66Q231 66 257 85T303 136L342 502Q344 524 382 524H392Q430 524 428 502L396 201Q387 123 387 110Q386 87 392 78T410 69Q417 69 425 71T439 74Q449 74 449 53ZM168 576T164 579T159 589Q160 593 163 599T168 608L230 696Q246
718 274 718H289Q315 718 328 696L372 608Q377 598 377 591Q376 584 371 580T356 576H336Q321 576 313 590L275 663L224 590Q212 576 196 576H177Q168 576 164 579Z" />
<glyph unicode="&#xfc;" glyph-name="udieresis" horiz-adv-x="482" d="M449 74T449 53Q449 35 443 23Q437 10 421 4T384 -3Q355 -3 332 12T302 68Q276 33 241 13T168 -7Q112 -7 82 25T52 114Q52 130 53 138L92 502Q94 524 132 524H142Q180 524 178 502L141 151Q140
145 140 134Q140 66 203 66Q231 66 257 85T303 136L342 502Q344 524 382 524H392Q430 524 428 502L396 201Q387 123 387 110Q386 87 392 78T410 69Q417 69 425 71T439 74Q449 74 449 53ZM169 607T172 629L177 680Q179 702 219 702Q257 702 255 680L250 629Q247
607 207 607Q169 607 172 629ZM295 607T298 629L303 680Q305 702 345 702Q383 702 381 680L376 629Q373 607 333 607Q295 607 298 629Z" />
<glyph unicode="&#xfd;" glyph-name="yacute" horiz-adv-x="399" d="M408 525T406 508Q404 500 400 490L133 -187Q123 -208 90 -208H69Q37 -208 39 -192Q39 -191 45 -175L140 52Q129 54 126 65L42 490Q39 504 40 508Q42 525 81 525H95Q126 525 129 509L171 228Q179
174 182 148H188Q195 168 199 184L214 228L319 509Q324 525 358 525H370Q408 525 406 508ZM188 585T188 595Q188 602 200 629T237 706Q249 732 293 732Q315 732 325 729T335 719Q335 713 326 700T299 661L257 603Q245 585 209 585Q188 585 188 595Z" />
<glyph unicode="&#xfe;" glyph-name="thorn" horiz-adv-x="483" d="M25 -208T28 -186L124 730Q127 752 167 752H173Q213 752 210 730L182 464Q235 529 302 529Q364 529 399 472T435 317Q435 290 432 258Q419 134 367 64T239 -6Q204 -6 181 7T138 45L114 -186Q111
-208 75 -208H64Q25 -208 28 -186ZM323 68T343 258Q347 302 347 320Q347 385 329 420T274 456Q249 456 223 438T174 387L145 113Q175 68 226 68Q323 68 343 258Z" />
<glyph unicode="&#xff;" glyph-name="ydieresis" horiz-adv-x="399" d="M408 525T406 508Q404 500 400 490L133 -187Q123 -208 90 -208H69Q37 -208 39 -192Q39 -191 45 -175L140 52Q129 54 126 65L42 490Q39 504 40 508Q42 525 81 525H95Q126 525 129 509L171
228Q179 174 182 148H188Q195 168 199 184L214 228L319 509Q324 525 358 525H370Q408 525 406 508ZM131 607T134 629L139 680Q141 702 181 702Q219 702 217 680L212 629Q209 607 169 607Q131 607 134 629ZM257 607T260 629L265 680Q267 702 307 702Q345 702 343
680L338 629Q335 607 295 607Q257 607 260 629Z" />
<glyph unicode="&#x2013;" glyph-name="endash" horiz-adv-x="443" d="M-3 230T0 260L1 270Q4 300 23 300H428Q447 300 444 270L443 260Q440 230 421 230H16Q-3 230 0 260Z" />
<glyph unicode="&#x2014;" glyph-name="emdash" horiz-adv-x="886" d="M-3 230T0 260L1 270Q4 300 23 300H871Q890 300 887 270L886 260Q883 230 864 230H16Q-3 230 0 260Z" />
<glyph unicode="&#x2018;" glyph-name="quoteleft" horiz-adv-x="210" d="M87 515T77 522T69 543Q75 599 97 643T146 713T192 739Q203 739 212 736T220 724Q219 717 208 700Q187 667 175 631T158 547Q156 532 146 524T115 515H106Q87 515 77 522Z" />
<glyph unicode="&#x2019;" glyph-name="quoteright" horiz-adv-x="210" d="M85 530T77 533T69 545Q69 551 80 569Q122 637 130 722Q132 737 143 745T174 754H183Q202 754 212 747T220 726Q214 670 192 626T142 556T96 530Q85 530 77 533Z" />
<glyph unicode="&#x201a;" glyph-name="quotesinglbase" horiz-adv-x="210" d="M17 -116T9 -113T1 -101Q1 -95 12 -77Q54 -9 62 76Q64 91 75 99T106 108H115Q134 108 144 101T152 80Q146 24 124 -20T74 -90T28 -116Q17 -116 9 -113Z" />
<glyph unicode="&#x201c;" glyph-name="quotedblleft" horiz-adv-x="348" d="M226 515T216 522T208 543Q214 599 236 643T285 713T331 739Q342 739 351 736T359 724Q358 717 347 700Q326 667 314 631T297 547Q295 532 285 524T254 515H245Q226 515 216 522ZM341
515T331 522T323 543Q329 599 351 643T400 713T446 739Q457 739 466 736T474 724Q473 717 462 700Q441 667 429 631T412 547Q410 532 400 524T369 515H360Q341 515 331 522Z" />
<glyph unicode="&#x201d;" glyph-name="quotedblright" horiz-adv-x="348" d="M195 530T187 533T179 545Q179 551 190 569Q232 637 240 722Q242 737 253 745T284 754H293Q312 754 322 747T330 726Q324 670 302 626T252 556T206 530Q195 530 187 533ZM310 530T302
533T294 545Q294 551 305 569Q347 637 355 722Q357 737 368 745T399 754H408Q427 754 437 747T445 726Q439 670 417 626T367 556T321 530Q310 530 302 533Z" />
<glyph unicode="&#x201e;" glyph-name="quotedblbase" horiz-adv-x="348" d="M156 -116T148 -113T140 -101Q140 -95 151 -77Q193 -9 201 76Q203 91 214 99T245 108H254Q273 108 283 101T291 80Q285 24 263 -20T213 -90T167 -116Q156 -116 148 -113ZM15 -116T7
-113T-1 -101Q-1 -95 10 -77Q52 -9 60 76Q62 91 73 99T104 108H113Q132 108 142 101T150 80Q144 24 122 -20T72 -90T26 -116Q15 -116 7 -113Z" />
<glyph unicode="&#x2022;" glyph-name="bullet" horiz-adv-x="298" d="M97 203T69 229T40 306Q40 376 77 413T169 450Q215 450 243 424T272 346Q272 276 235 240T143 203Q97 203 69 229Z" />
<glyph unicode="&#x2039;" glyph-name="guilsinglleft" horiz-adv-x="247" d="M133 62T126 74L40 230Q32 246 32 255Q32 269 46 286L165 442Q174 454 186 454Q197 454 210 445T222 424Q220 414 213 404L106 258L182 111Q189 101 187 92Q186 82 171 72T145 62Q133
62 126 74Z" />
<glyph unicode="&#x203a;" glyph-name="guilsinglright" horiz-adv-x="247" d="M61 62T48 71T35 92Q36 99 44 111L153 258L75 404Q69 418 70 424Q71 436 86 445T113 454Q124 454 131 442L218 286Q219 283 222 275T226 261Q226 249 212 230L92 74Q83 62 72 62Q61
62 48 71Z" />
</font>
</defs>
</svg>
