<?xml version="1.0" standalone="no"?>
<!DOCTYPE svg PUBLIC "-//W3C//DTD SVG 1.1//EN" "http://www.w3.org/Graphics/SVG/1.1/DTD/svg11.dtd">
<svg xmlns="http://www.w3.org/2000/svg">
<defs >
<font id="RacingSansOne" horiz-adv-x="461" ><font-face
    font-family="Racing Sans One"
    units-per-em="1000"
    panose-1="2 0 0 0 0 0 0 0 0 0"
    ascent="976"
    descent="-284"
    alphabetic="0" />
<glyph unicode=" " glyph-name="space" horiz-adv-x="191" />
<glyph unicode="!" glyph-name="exclam" horiz-adv-x="294" d="M132 672H336L208 201H66L132 672ZM21 65Q21 86 30 102T53 130T86 146T125 152Q162 152 187 134T213 79Q213 58 205 42T182 14T149 -2T109 -8Q72 -8 47 10T21 65Z" />
<glyph unicode="&quot;" glyph-name="quotedbl" horiz-adv-x="446" d="M183 393H84L128 672H281L183 393ZM406 393H307L351 672H503L406 393Z" />
<glyph unicode="#" glyph-name="numbersign" horiz-adv-x="672" d="M88 493H212L241 619H328L300 493H465L494 619H581L553 493H685L665 402H534L501 249H632L612 157H481L451 17H355L387 157H228L198 17H102L134 157H15L36 249H155L191 402H67L88 493ZM248 249H408L444
402H281L248 249Z" />
<glyph unicode="$" glyph-name="dollar" horiz-adv-x="596" d="M195 -6Q147 -1 110 10T42 41L67 112Q88 100 112 92T161 78T207 69T244 66Q274 66 293 75T323 97T339 127T344 157Q344 180 334 195T307 222T267 240T215 256Q190 263 164 273T115 301T79 347T65
421Q65 480 89 520T153 586T239 625T332 642L349 720H458L439 642Q476 638 505 629T558 606L533 534Q496 550 461 561T383 572Q348 572 325 565T289 544T269 515T263 483Q263 457 275 442T309 418T358 403T420 388Q445 381 470 370T514 341T546 293T558 220Q558
164 538 124T483 57T402 15T303 -5L279 -107H174L195 -6Z" />
<glyph unicode="%" glyph-name="percent" horiz-adv-x="724" d="M116 0L528 635H627L226 0H116ZM242 645Q296 645 326 621T357 532Q357 462 317 421T191 380Q132 380 106 403T79 485Q79 560 120 602T242 645ZM199 424Q211 424 221 439T238 477T250 524T255 568Q255
601 240 601Q228 601 217 586T199 550T187 504T182 460Q182 424 199 424ZM553 257Q607 257 637 233T668 144Q668 74 628 33T502 -8Q443 -8 417 15T390 97Q390 172 431 214T553 257ZM510 36Q522 36 532 51T549 89T561 136T566 180Q566 213 551 213Q539 213 528 198T510
162T498 116T493 72Q493 36 510 36Z" />
<glyph unicode="&amp;" glyph-name="ampersand" horiz-adv-x="705" d="M402 0L378 55H372Q365 47 352 36T318 15T269 -1T203 -8Q163 -8 127 2T62 33T17 87T0 167Q0 205 12 239T51 301T117 350T213 383Q200 412 194 430T188 471Q188 511 204 543T249 597T318 632T407
645Q486 645 535 612T585 512Q585 477 572 455T539 419T499 397T462 382L510 286Q540 328 554 365H625Q615 329 597 296T557 229L547 214L661 0H402ZM242 328Q225 318 214 288T202 227Q202 204 209 182T229 143T262 116T305 105Q321 105 329 109T344 120L242 328ZM421
590Q397 590 387 580T376 555Q376 538 389 514L430 437Q462 445 478 468T494 517Q494 545 476 567T421 590Z" />
<glyph unicode="&apos;" glyph-name="quotesingle" horiz-adv-x="214" d="M162 393H84L128 672H281L162 393Z" />
<glyph unicode="(" glyph-name="parenleft" horiz-adv-x="308" d="M375 679Q339 637 303 580T239 458T193 321T175 181Q175 104 194 52T238 -39L201 -70Q163 -51 132 -22T79 46T44 129T31 225Q31 298 56 371T124 510T223 630T340 718L375 679Z" />
<glyph unicode=")" glyph-name="parenright" horiz-adv-x="308" d="M-40 -32Q-4 10 32 67T96 190T143 326T161 467Q161 544 141 596T98 687L134 718Q172 699 203 670T256 602T291 519T304 423Q304 350 279 277T212 138T113 18T-4 -70L-40 -32Z" />
<glyph unicode="*" glyph-name="asterisk" horiz-adv-x="273" d="M116 491L94 542L165 569L107 593L142 645L188 602L192 672H248L225 602L287 645L308 594L238 569L297 543L263 491L215 538L209 468H158L178 538L116 491Z" />
<glyph unicode="+" glyph-name="plus" horiz-adv-x="459" d="M333 522L300 364H453L433 273H281L247 109H141L177 273H30L51 364H198L233 522H333Z" />
<glyph unicode="," glyph-name="comma" horiz-adv-x="275" d="M201 85Q201 47 183 12T138 -52T76 -104T8 -140L-20 -98Q16 -70 34 -48T53 -4Q53 31 -3 72Q-3 96 6 115T30 147T66 167T107 174Q147 174 174 152T201 85Z" />
<glyph unicode="-" glyph-name="hyphen" horiz-adv-x="415" d="M50 256H365L345 165H29L50 256Z" />
<glyph unicode="." glyph-name="period" horiz-adv-x="274" d="M203 88Q203 65 194 47T169 17T133 -1T91 -8Q53 -8 27 12T0 77Q0 100 9 118T33 148T67 166T108 173Q149 173 176 153T203 88Z" />
<glyph unicode="/" glyph-name="slash" horiz-adv-x="358" d="M-29 0L320 635H411L73 0H-29Z" />
<glyph unicode="0" glyph-name="zero" horiz-adv-x="668" d="M404 645Q482 645 532 623T611 555Q631 524 642 485T653 395Q653 353 645 309T622 224T587 147T541 83Q496 33 438 13T297 -8Q217 -8 168 10T89 68Q65 97 54 141T42 245Q42 298 52 348T81 443T129 523T193
584Q235 614 286 629T404 645ZM295 62Q315 62 333 83T368 138T396 217T418 309T432 402T437 486Q437 537 428 556T402 576Q381 576 362 556T327 502T298 424T275 334T260 243T255 161Q255 105 266 84T295 62Z" />
<glyph unicode="1" glyph-name="one" horiz-adv-x="397" d="M72 532Q134 541 184 569T265 635H418L282 0H66L165 465H57L72 532Z" />
<glyph unicode="2" glyph-name="two" horiz-adv-x="593" d="M19 98Q88 120 153 153T269 234T350 345T381 490Q381 530 373 552T345 574Q327 574 312 557T284 514T261 456T243 394H62L95 544Q151 592 213 618T353 645Q401 645 443 634T517 600T567 541T586 456Q586
419 574 383T530 309T445 229T309 139H532L512 0H-3L19 98Z" />
<glyph unicode="3" glyph-name="three" horiz-adv-x="604" d="M234 -8Q163 -8 109 10T5 76L37 226H206Q206 227 205 219T202 198T199 169T197 138Q197 97 207 80T237 62Q258 62 276 76T308 111T328 157T336 207Q336 253 313 275T255 298Q258 317 262 332Q265 345
267 355T270 367Q303 367 325 377T362 406T383 450T389 505Q389 517 388 529T382 552T371 569T350 576Q323 576 298 544T252 435H80L110 576Q140 595 179 610Q212 623 258 634T365 645Q404 645 443 639T513 615T564 569T584 495Q584 461 573 436T539 390T487 354T417
324Q447 321 473 312T518 287T549 248T561 193Q561 150 538 113T473 49T370 7T234 -8Z" />
<glyph unicode="4" glyph-name="four" horiz-adv-x="607" d="M443 0H227L260 160H-1L24 277L322 635H580L495 244H586L568 160H477L443 0ZM278 244L338 522L116 244H278Z" />
<glyph unicode="5" glyph-name="five" horiz-adv-x="563" d="M516 497H227L210 411Q233 422 260 429T326 437Q386 437 426 420T490 375T525 313T536 244Q536 190 514 144T450 64T348 11T213 -8Q184 -8 157 -5T105 8T54 34T1 76L30 215H188Q186 200 185 189T184
154Q184 104 197 83T234 62Q259 62 277 81T306 128T322 190T327 252Q327 272 324 290T314 323T295 345T265 354Q247 354 227 343T188 300H65L137 635H545L516 497Z" />
<glyph unicode="6" glyph-name="six" horiz-adv-x="616" d="M415 645Q434 645 458 643T508 637T558 625T602 605L570 465H415Q416 476 417 486T418 507Q418 533 412 554T389 576Q377 576 361 563T328 522T296 450T271 345H281Q310 377 352 394T440 411Q517 411
550 365T583 238Q583 177 564 133T503 55Q467 27 413 10T284 -8Q231 -8 187 3T110 43T59 120T41 243Q41 322 63 395T132 523T248 612T415 645ZM279 60Q303 60 321 82T350 136T366 204T372 270Q372 294 367 307T341 320Q314 320 295 298T264 244T246 178T240 121Q240
93 249 77T279 60Z" />
<glyph unicode="7" glyph-name="seven" horiz-adv-x="531" d="M578 538Q510 506 460 450T378 321T331 167T315 0H99Q99 25 105 62T124 145T158 239T209 335T279 424T370 497H66L96 635H600L578 538Z" />
<glyph unicode="8" glyph-name="eight" horiz-adv-x="620" d="M269 -8Q147 -8 86 39T24 171Q24 229 55 273T165 344Q133 355 109 384T85 461Q85 507 109 541T172 599T262 633T367 644Q434 644 477 629T545 591T579 539T588 484Q588 446 575 420T542 376T503 350T469
337Q515 326 544 290T574 198Q574 155 553 118T493 52T398 8T269 -8ZM320 370Q341 370 355 384T379 419T392 464T396 511Q396 522 395 533T390 554T378 570T356 576Q335 576 321 563T297 529T284 484T279 437Q279 425 280 414T285 392T298 376T320 370ZM282 61Q303
61 317 77T340 118T352 172T356 228Q356 258 350 279T317 301Q296 301 281 286T257 247T243 195T238 141Q238 110 247 86T282 61Z" />
<glyph unicode="9" glyph-name="nine" horiz-adv-x="619" d="M236 -8Q218 -8 191 -7T135 -1T79 11T30 31L63 171H217Q217 164 217 153T216 130Q216 118 217 106T222 83T233 67T253 60Q286 60 319 115T372 296H362Q333 264 291 248T204 231Q165 231 138 243T93
278T67 330T59 397Q59 463 82 510T146 587T239 631T353 645Q408 645 453 633T532 591T583 512T602 390Q602 316 582 245T517 117T403 27T236 -8ZM364 576Q339 576 322 555T293 504T276 438T271 376Q271 352 276 340T302 327Q329 327 348 348T379 400T397 462T403
517Q403 543 394 559T364 576Z" />
<glyph unicode=":" glyph-name="colon" horiz-adv-x="282" d="M196 81Q196 60 188 43T165 15T132 -2T93 -8Q58 -8 34 11T9 70Q9 113 39 136T109 160Q146 160 171 141T196 81ZM246 318Q246 297 238 280T215 252T182 235T143 229Q108 229 84 248T59 308Q59 350 89
373T159 397Q196 397 221 378T246 318Z" />
<glyph unicode=";" glyph-name="semicolon" horiz-adv-x="285" d="M245 318Q245 297 237 280T214 252T181 235T142 229Q107 229 83 248T58 308Q58 350 88 373T158 397Q195 397 220 378T245 318ZM197 75Q197 39 180 6T136 -56T75 -105T8 -140L-17 -100Q19 -74 41
-50T63 -3Q63 14 49 34T6 72Q6 115 36 137T108 160Q146 160 171 140T197 75Z" />
<glyph unicode="&lt;" glyph-name="less" horiz-adv-x="397" d="M323 109H204L35 316L282 523H399L163 316L323 109Z" />
<glyph unicode="=" glyph-name="equal" horiz-adv-x="413" d="M44 237H359L343 162H27L44 237ZM80 405H395L380 330H63L80 405Z" />
<glyph unicode="&gt;" glyph-name="greater" horiz-adv-x="396" d="M98 523H216L385 316L139 109H21L257 316L98 523Z" />
<glyph unicode="?" glyph-name="question" horiz-adv-x="525" d="M327 201H177L202 349Q239 358 268 379T319 428T351 488T362 553Q362 579 355 594T328 609Q309 609 293 597T264 563T239 515T220 460H73L104 610Q155 653 210 666T320 679Q549 679 549 516Q549
469 529 434T479 372T413 330T346 304L327 201ZM137 65Q137 87 146 103T171 131T205 147T246 152Q282 152 306 134T330 79Q330 58 321 42T297 15T263 -2T223 -8Q185 -8 161 10T137 65Z" />
<glyph unicode="@" glyph-name="at" horiz-adv-x="745" d="M407 -101Q378 -107 350 -111T291 -116Q231 -116 182 -98T99 -44T45 44T26 163Q26 250 57 316T139 428T258 497T400 520Q470 520 527 500T624 442T687 355T709 243Q709 205 700 167T669 98T611 47T521
27Q472 27 445 46T416 114H410Q392 76 360 56T290 35Q248 35 221 62T193 150Q193 165 196 197T214 261T257 318T336 342Q360 342 381 333T416 291H420L445 335H541L512 199Q508 180 505 165T502 136Q502 97 536 97Q548 97 563 102T591 123T614 163T623 229Q623
326 564 383T397 441Q339 441 288 423T199 371T138 285T116 167Q116 114 130 76T168 11T227 -27T300 -40Q328 -40 354 -35T408 -21L407 -101ZM372 278Q357 278 346 264T327 229T316 186T312 146Q312 106 335 106Q349 106 361 116T378 134L405 254Q399 263 392 270T372
278Z" />
<glyph unicode="A" glyph-name="A" horiz-adv-x="602" d="M554 0H320L306 159H121L50 0H-47L248 635H485L554 0ZM154 232H299L276 504L154 232Z" />
<glyph unicode="B" glyph-name="B" horiz-adv-x="622" d="M613 490Q613 461 605 438T581 397T546 365T502 339Q513 335 528 327T557 303T580 265T590 207Q590 162 571 124T515 59T423 16T297 0H0L135 635H398Q437 635 475 630T544 608T594 564T613 490ZM341 369Q363
369 378 382T404 414T419 456T424 497Q424 526 411 546T368 567H338L295 369H341ZM269 63Q299 63 319 80T352 122T370 174T376 223Q376 258 362 278T315 299H278L229 63H269Z" />
<glyph unicode="C" glyph-name="C" horiz-adv-x="639" d="M564 54Q539 42 513 31T456 11T391 -3T313 -8Q179 -8 107 52T34 252Q34 333 59 404T133 529T254 614T419 645Q463 645 499 639T565 624T618 603T661 582L625 396H445Q446 406 447 422T450 454T452 487T453
514Q453 522 452 532T447 553T435 569T412 576Q386 576 365 555T326 498T296 417T275 326T262 234T257 155Q257 145 258 130T264 101T279 77T308 67Q339 67 368 105T419 243H604L564 54Z" />
<glyph unicode="D" glyph-name="D" horiz-adv-x="662" d="M0 0L135 635H404Q466 635 512 623T589 581T635 505T651 390Q651 317 633 247T571 122T459 34T287 0H0ZM274 70Q307 70 332 97T376 167T407 261T427 361T438 447T442 501Q442 532 430 549T386 567H338L231
70H274Z" />
<glyph unicode="E" glyph-name="E" horiz-adv-x="503" d="M135 635H556L540 559H336L294 366H465L449 291H278L232 77H436L421 0H0L135 635Z" />
<glyph unicode="F" glyph-name="F" horiz-adv-x="491" d="M135 635H556L540 559H335L296 376H467L451 299H280L216 0H0L135 635Z" />
<glyph unicode="G" glyph-name="G" horiz-adv-x="642" d="M355 290H614L556 0H438L419 64H415Q389 34 354 13T261 -8Q217 -8 177 6T105 52T54 135T35 258Q35 336 59 406T131 529T251 614T419 645Q493 645 548 628T652 590L614 396H445Q446 407 448 422T451 453T453
486T454 514Q454 522 453 532T448 553T436 569T413 576Q387 576 366 555T327 498T298 417T277 326T264 235T259 157Q259 147 260 132T266 103T282 78T313 67Q346 67 377 103T424 223H340L355 290Z" />
<glyph unicode="H" glyph-name="H" horiz-adv-x="666" d="M555 0H339L399 283H276L216 0H0L135 635H352L293 359H415L474 635H692L555 0Z" />
<glyph unicode="I" glyph-name="I" horiz-adv-x="326" d="M216 0H0L135 635H352L216 0Z" />
<glyph unicode="J" glyph-name="J" horiz-adv-x="590" d="M14 235H202Q202 232 200 221T194 193T189 158T186 123Q186 113 188 102T195 82T209 66T233 59Q259 59 274 80T302 159L403 635H620L522 176Q509 117 477 81T404 24T315 -2T225 -9Q175 -9 139 -3T76 16T26
45T-18 84L14 235Z" />
<glyph unicode="K" glyph-name="K" horiz-adv-x="608" d="M293 359L540 636H653L429 393L581 0H363L275 279L216 0H0L135 635H352L293 359Z" />
<glyph unicode="L" glyph-name="L" horiz-adv-x="482" d="M135 635H352L234 84H437L420 0H0L135 635Z" />
<glyph unicode="M" glyph-name="M" horiz-adv-x="844" d="M734 0H512L604 432L367 0H231L186 447L90 0H0L135 635H390L421 277L613 635H870L734 0Z" />
<glyph unicode="N" glyph-name="N" horiz-adv-x="644" d="M533 0H299L188 459L90 0H0L135 635H374L479 170L578 635H670L533 0Z" />
<glyph unicode="O" glyph-name="O" horiz-adv-x="685" d="M411 645Q497 645 550 623T635 555Q655 524 666 485T677 395Q677 351 669 307T647 223T612 147T566 84Q519 33 458 13T306 -8Q219 -8 166 10T82 68Q60 96 48 139T35 247Q35 358 74 445T187 584Q231 615
285 630T411 645ZM298 62Q321 62 341 82T379 137T411 216T436 307T451 400T457 485Q457 537 447 556T416 576Q393 576 372 556T333 503T300 426T275 336T259 245T253 162Q253 105 265 84T298 62Z" />
<glyph unicode="P" glyph-name="P" horiz-adv-x="600" d="M321 274Q351 274 371 299T405 360T425 435T431 503Q431 530 422 548T383 567H338L275 274H321ZM261 210L216 0H0L135 635H366Q423 635 470 629T551 605T604 554T623 464Q623 412 607 366T554 285T459
230T318 210H261Z" />
<glyph unicode="Q" glyph-name="Q" horiz-adv-x="685" d="M411 645Q497 645 550 623T635 555Q655 524 666 485T677 395Q677 351 669 307T647 223T612 147T566 84Q506 18 413 0Q439 -26 473 -42T543 -67Q498 -100 463 -126Q448 -137 434 -147T408 -166T390 -179T382
-184Q350 -164 327 -140T287 -92T260 -45T243 -5Q184 0 146 18T82 68Q60 96 48 139T35 247Q35 358 74 445T187 584Q231 615 285 630T411 645ZM298 62Q321 62 341 82T379 137T411 216T436 307T451 400T457 485Q457 537 447 556T416 576Q393 576 372 556T333 503T300
426T275 336T259 245T253 162Q253 105 265 84T298 62Z" />
<glyph unicode="R" glyph-name="R" horiz-adv-x="633" d="M623 484Q623 425 590 375T481 299L597 0H374L286 277H275L216 0H0L135 635H398Q444 635 485 630T556 608T605 562T623 484ZM335 341Q361 341 379 358T409 401T426 454T431 504Q431 530 422 548T383 567H338L288
341H335Z" />
<glyph unicode="S" glyph-name="S" horiz-adv-x="587" d="M394 451Q397 466 397 492Q397 507 395 521T388 547T373 565T347 572Q329 572 314 564T288 544T270 515T263 480Q263 454 276 440T312 417T362 402T420 388Q445 381 470 370T514 341T546 293T558 219Q558
156 533 113T464 43T360 4T228 -8Q156 -8 111 1T39 22Q8 35 -7 52L27 189H203Q202 180 201 165T200 140Q200 128 203 115T212 91T231 73T261 66Q281 66 296 75T322 97T338 127T344 160Q344 182 334 197T305 222T264 240T215 256Q191 263 165 273T116 301T80 346T65
417Q65 481 97 524T179 595T288 633T400 645Q470 645 520 629T597 590L560 451H394Z" />
<glyph unicode="T" glyph-name="T" horiz-adv-x="555" d="M609 559H448L329 0H113L232 559H73L91 635H626L609 559Z" />
<glyph unicode="U" glyph-name="U" horiz-adv-x="630" d="M267 227Q262 205 259 189T256 159Q256 124 280 103T353 82Q388 82 410 94T447 126T470 172T485 227L570 635H661L574 225Q564 177 545 135T491 61T399 11T260 -8Q145 -8 90 29T35 145Q35 180 44 234T67
351L128 635H355L267 227Z" />
<glyph unicode="V" glyph-name="V" horiz-adv-x="581" d="M82 635H310L344 205L552 635H651L355 0H119L82 635Z" />
<glyph unicode="W" glyph-name="W" horiz-adv-x="944" d="M78 635H322L339 202L506 635H704L730 202L898 635H1003L756 0H531L510 359L360 0H120L78 635Z" />
<glyph unicode="X" glyph-name="X" horiz-adv-x="602" d="M387 435L540 635H660L423 350L572 0H325L240 199L86 0H-34L202 289L55 635H302L387 435Z" />
<glyph unicode="Y" glyph-name="Y" horiz-adv-x="570" d="M389 240L338 0H121L176 257L78 635H318L386 384L536 635H644L389 240Z" />
<glyph unicode="Z" glyph-name="Z" horiz-adv-x="553" d="M-3 91L326 559H74L89 635H583L574 550L248 76H511L497 0H-21L-3 91Z" />
<glyph unicode="[" glyph-name="bracketleft" horiz-adv-x="295" d="M156 720H368L351 635H245L112 16H218L201 -69H-12L156 720Z" />
<glyph unicode="\" glyph-name="backslash" horiz-adv-x="605" d="M432 0L94 635H185L534 0H432Z" />
<glyph unicode="]" glyph-name="bracketright" horiz-adv-x="295" d="M168 -69H-45L-28 16H78L212 635H106L122 720H336L168 -69Z" />
<glyph unicode="^" glyph-name="asciicircum" horiz-adv-x="438" d="M65 416L211 635H360L443 416H367L284 582L151 416H65Z" />
<glyph unicode="_" glyph-name="underscore" horiz-adv-x="571" d="M-8 -15H464L444 -106H-29L-8 -15Z" />
<glyph unicode="`" glyph-name="grave" horiz-adv-x="304" d="M26 635H199L304 489H211L26 635Z" />
<glyph unicode="a" glyph-name="a" horiz-adv-x="552" d="M72 393Q123 418 176 429T296 441Q360 441 402 431T469 402T504 357T514 298Q514 279 512 257T506 220L459 0H298L280 64H274Q242 29 200 11T115 -8Q91 -8 68 -1T27 20T-2 57T-13 112Q-13 164 15 194T90
240T195 260T313 264Q315 274 318 292T321 325Q321 343 312 358T272 374Q237 374 221 354T199 304H53L72 393ZM302 217H284Q255 217 235 210T202 190T183 163T177 133Q177 109 189 97T219 85Q240 85 260 100T286 140L302 217Z" />
<glyph unicode="b" glyph-name="b" horiz-adv-x="585" d="M152 0H-10L132 672H337L272 366H279Q312 404 353 420T436 437Q471 437 494 427T532 398T552 355T558 302Q558 288 556 260T547 198T527 127T493 60T439 11T361 -8Q334 -8 309 -2T263 14T227 37T204 65H197L152
0ZM265 89Q289 89 305 114T331 174T345 243T350 295Q350 315 344 328T320 341Q300 341 283 327T258 302L219 123Q226 111 237 100T265 89Z" />
<glyph unicode="c" glyph-name="c" horiz-adv-x="521" d="M444 24Q402 7 356 0T250 -8Q198 -8 155 2T79 36T29 95T11 184Q11 238 29 284T85 366T181 421T319 441Q384 441 432 431T511 383L483 255H347Q348 272 349 285T350 314Q350 346 343 359T320 373Q292 373
271 346T237 280T217 199T210 126Q210 115 211 104T215 82T225 66T242 60Q252 60 265 66T290 84T313 117T330 165H473L444 24Z" />
<glyph unicode="d" glyph-name="d" horiz-adv-x="577" d="M416 672H621L478 0H316L298 64H291Q285 55 273 43T241 19T196 0T136 -8Q101 -8 77 2T37 31T14 74T7 130Q7 143 9 171T18 234T40 305T79 372T140 421T227 441Q243 441 261 438T295 427T325 404T344 365H351L416
672ZM294 343Q270 343 254 317T228 255T214 185T209 133Q209 113 215 100T238 86Q248 86 257 90T275 101T290 115T300 127L339 309Q332 320 321 331T294 343Z" />
<glyph unicode="e" glyph-name="e" horiz-adv-x="547" d="M218 201Q214 179 213 159T211 123Q211 114 212 103T216 83T226 67T245 60Q254 60 265 66T288 83T310 110T327 146H491L465 39Q445 26 419 17T364 3T305 -5T248 -8Q198 -8 155 1T80 32T30 90T11 181Q11
230 26 277T78 360T176 419T330 441Q430 441 480 410T531 313Q531 286 523 255T499 201H218ZM351 320Q351 351 341 362T317 373Q301 373 288 363T263 335T243 295T228 247H342Q344 259 346 272Q348 283 349 296T351 320Z" />
<glyph unicode="f" glyph-name="f" horiz-adv-x="404" d="M47 430H124L133 471Q146 531 171 572T230 640T309 677T403 689Q434 689 469 685T542 672L526 592Q504 595 479 596T439 598Q419 598 405 595T379 584T360 560T347 520L328 430H433L420 363H314L237 0H33L110
363H32L47 430Z" />
<glyph unicode="g" glyph-name="g" horiz-adv-x="578" d="M408 430H570L488 41Q479 -4 458 -42T400 -108T306 -152T168 -168Q153 -168 132 -168T89 -167T47 -165T15 -163L34 -91Q66 -96 99 -96T157 -97Q187 -97 207 -92T241 -74T263 -42T277 7L289 72H282Q276
63 265 51T235 27T193 8T137 0Q102 0 78 10T38 39T16 83T9 139Q9 152 11 179T20 240T42 309T81 374T142 422T231 441Q247 441 266 438T303 427T335 404T357 365H363L408 430ZM296 343Q272 343 256 318T230 258T216 191T211 141Q211 121 217 108T241 94Q251 94 260
99T278 110T293 124T303 135L340 310Q332 321 322 332T296 343Z" />
<glyph unicode="h" glyph-name="h" horiz-adv-x="586" d="M272 366H279Q298 385 323 401Q344 415 373 426T438 437Q490 437 524 411T558 338Q558 324 555 307T548 270T540 231T532 195L490 0H287L342 261Q344 274 347 287T350 312Q350 327 343 336T320 346Q302
346 286 333T260 310L194 0H-10L132 672H337L272 366Z" />
<glyph unicode="i" glyph-name="i" horiz-adv-x="293" d="M193 0H-10L81 430H286L193 0ZM312 561Q312 538 303 521T278 492T242 474T201 468Q161 468 134 487T107 547Q107 569 116 586T140 615T176 633T219 639Q258 639 285 620T312 561Z" />
<glyph unicode="j" glyph-name="j" horiz-adv-x="294" d="M202 37Q187 -33 156 -73T82 -135T-8 -162T-106 -168L-94 -99Q-79 -99 -67 -96T-44 -83T-26 -54T-10 0L81 430H286L202 37ZM310 561Q310 538 301 521T276 492T240 474T199 468Q159 468 132 487T105 547Q105
569 114 586T138 615T174 633T217 639Q256 639 283 620T310 561Z" />
<glyph unicode="k" glyph-name="k" horiz-adv-x="599" d="M247 248L480 430H612L413 267L562 0H338L236 201L194 0H-10L132 672H337L247 248Z" />
<glyph unicode="l" glyph-name="l" horiz-adv-x="293" d="M194 0H-10L132 672H337L194 0Z" />
<glyph unicode="m" glyph-name="m" horiz-adv-x="861" d="M268 366Q289 386 315 403Q338 417 370 429T442 441Q490 441 513 419T540 365H546Q569 386 596 403Q619 417 650 429T716 441Q768 441 800 413T833 339Q833 316 825 278T807 195L765 0H568L622 261Q625
276 628 290T631 313Q631 327 623 336T600 346Q581 346 565 333T539 310L474 0H287L342 261Q344 274 347 287T350 312Q350 327 343 336T320 346Q302 346 286 333T260 311L194 0H-10L81 430H244L262 366H268Z" />
<glyph unicode="n" glyph-name="n" horiz-adv-x="586" d="M268 366Q289 386 315 403Q338 417 369 429T438 441Q490 441 524 415T558 342Q558 329 555 311T548 272T540 232T532 195L490 0H287L342 261Q344 274 347 287T350 312Q350 327 343 336T320 346Q302 346
286 333T260 311L194 0H-10L81 430H244L262 366H268Z" />
<glyph unicode="o" glyph-name="o" horiz-adv-x="575" d="M315 441Q434 441 488 399Q545 355 545 253Q545 190 524 140T465 56Q389 -8 245 -8Q122 -8 69 39Q12 88 12 186Q12 251 38 304T115 392Q188 441 315 441ZM247 60Q272 60 290 88T320 156T336 240T342 316Q342
344 337 358T313 373Q286 373 267 344T235 275T218 193T212 125Q212 60 247 60Z" />
<glyph unicode="p" glyph-name="p" horiz-adv-x="584" d="M158 -168H-46L80 430H243L261 366H267Q303 404 347 420T435 437Q470 437 493 427T531 398T551 355T557 302Q557 288 555 260T546 198T526 127T492 60T438 11T360 -8Q335 -8 312 -2T269 14T236 37T214
65H208L158 -168ZM264 89Q288 89 304 114T330 174T344 243T349 295Q349 315 343 328T319 341Q300 341 283 328T258 304L219 121Q227 110 238 100T264 89Z" />
<glyph unicode="q" glyph-name="q" horiz-adv-x="577" d="M407 430H569L442 -168H237L287 64H280Q274 55 263 43T234 19T192 0T136 -8Q101 -8 77 2T37 31T14 74T7 130Q7 143 9 171T18 234T40 305T79 372T140 421T227 441Q245 441 264 438T301 427T333 404T355
365H361L407 430ZM294 343Q270 343 254 317T228 255T214 185T209 133Q209 113 215 100T238 86Q258 86 275 100T300 126L339 309Q332 320 321 331T294 343Z" />
<glyph unicode="r" glyph-name="r" horiz-adv-x="483" d="M81 430H244L259 355H266Q289 391 325 416T420 441Q424 441 432 441T451 438T473 431T496 418L452 212H343Q341 274 332 298T303 323Q293 323 282 319T258 299L194 0H-10L81 430Z" />
<glyph unicode="s" glyph-name="s" horiz-adv-x="487" d="M307 304Q308 309 309 314T310 325Q310 343 304 358T278 374Q261 374 244 360T227 321Q227 305 235 296T258 280T289 270T324 262Q348 256 369 248T408 225T435 191T445 140Q445 98 426 70T372 24T291
-1T191 -8Q110 -8 57 4T-17 27L4 127H139Q138 122 138 118T138 108Q138 85 148 72T185 58Q214 58 226 74T239 105Q239 119 229 129T202 147T167 160T129 171Q116 174 100 181T68 201T43 234T33 286Q33 330 54 359T110 407T188 433T276 441Q331 441 380 431T460
405L437 304H307Z" />
<glyph unicode="t" glyph-name="t" horiz-adv-x="392" d="M46 430Q83 438 111 448T162 473T207 510T254 564H357L328 430H406L393 363H314L273 168Q268 145 265 127T262 99Q262 79 276 74T331 69L316 0Q309 -2 295 -3T263 -5T227 -7T194 -8Q169 -8 145 -5T102
9T72 40T60 94Q60 106 61 124T68 164L110 363H32L46 430Z" />
<glyph unicode="u" glyph-name="u" horiz-adv-x="585" d="M373 430H577L485 0H323L305 64H299Q273 33 229 13T139 -8Q79 -8 45 22T11 102Q11 127 19 164T35 235L77 430H280L230 196Q228 188 226 177T222 156T219 136T217 120Q217 105 223 95T247 84Q265 84 281
96T306 119L373 430Z" />
<glyph unicode="v" glyph-name="v" horiz-adv-x="516" d="M37 430H249L290 136L436 430H542L315 0H106L37 430Z" />
<glyph unicode="w" glyph-name="w" horiz-adv-x="831" d="M34 430H246L281 136L402 430H593L627 136L748 430H854L655 0H446L409 218L308 0H99L34 430Z" />
<glyph unicode="x" glyph-name="x" horiz-adv-x="511" d="M304 317L409 430H524L343 244L472 0H260L190 132L58 0H-57L152 204L33 430H244L304 317Z" />
<glyph unicode="y" glyph-name="y" horiz-adv-x="517" d="M251 430L281 136L439 430H545L304 0Q268 -63 231 -97T151 -147T55 -165T-65 -168L-50 -99Q-17 -99 11 -98T57 -92Q80 -86 90 -71T100 -25Q100 -5 97 21T89 76L40 430H251Z" />
<glyph unicode="z" glyph-name="z" horiz-adv-x="478" d="M-18 78L249 363H46L59 430H480L464 358L204 67H425L413 0H-33L-18 78Z" />
<glyph unicode="{" glyph-name="braceleft" horiz-adv-x="314" d="M160 95Q157 81 154 68T150 46Q150 23 174 20T240 16L222 -69Q184 -69 151 -67T94 -57T55 -33T41 13Q41 22 42 35T46 60L77 201Q79 209 80 218T81 235Q81 258 66 273T31 292L47 367Q77 374 99
391T130 450L160 592Q170 638 190 663T240 701T305 717T384 720L366 635Q343 635 326 634T296 629T277 614T266 587L234 441Q228 413 222 394T207 362T189 340T163 324Q173 316 182 301T191 260Q191 248 189 235T184 208L160 95Z" />
<glyph unicode="|" glyph-name="bar" horiz-adv-x="221" d="M144 672H253L72 -168H-33L144 672Z" />
<glyph unicode="}" glyph-name="braceright" horiz-adv-x="314" d="M183 559Q186 574 189 586T192 606Q192 628 167 631T102 635L121 720Q159 720 192 718T249 708T287 684T301 638Q301 629 300 616T296 591L266 450Q264 442 263 433T261 416Q261 393 276 378T311
359L295 283Q265 277 243 260T212 201L183 59Q174 13 153 -12T103 -50T36 -66T-42 -69L-24 16Q-1 16 16 17T46 22T65 37T77 64L108 210Q114 237 120 256T135 288T154 311T180 327Q169 335 160 350T151 391Q151 404 153 417T159 443L183 559Z" />
<glyph unicode="~" glyph-name="asciitilde" horiz-adv-x="462" d="M431 283Q401 228 371 196T296 164Q278 164 254 170T204 182T156 195T119 201Q101 201 82 189T54 166L21 194Q52 245 83 277T158 309Q174 309 197 304T245 292T293 281T331 275Q345 275 364 284T396
309L431 283Z" />
<glyph unicode="&#xa0;" glyph-name="uni00A0" horiz-adv-x="191" />
<glyph unicode="&#xa1;" glyph-name="exclamdown" horiz-adv-x="296" d="M161 -168H-43L85 303H227L161 -168ZM272 439Q272 418 263 402T240 374T207 358T168 352Q131 352 106 370T80 425Q80 446 88 462T111 490T144 506T184 512Q221 512 246 494T272 439Z" />
<glyph unicode="&#xa2;" glyph-name="cent" horiz-adv-x="537" d="M209 107Q132 119 86 163T39 294Q39 344 55 388T104 467T189 522T310 549L330 646H439L415 548Q455 543 485 531T539 493L511 365H375Q376 382 377 395T378 424Q378 456 371 469T348 483Q320 483
299 456T265 390T245 309T238 236Q238 225 239 214T243 192T253 176T270 170Q291 170 318 194T358 275H501L472 134Q404 106 316 102L292 0H187L209 107Z" />
<glyph unicode="&#xa3;" glyph-name="sterling" horiz-adv-x="621" d="M38 67Q94 110 118 150T143 238Q143 247 143 259T141 285H32L49 361H127Q119 382 119 413Q119 455 135 496T186 571T275 624T407 645Q455 645 500 636T600 607L568 519Q542 530 511 539T442
549Q376 549 345 515T313 429Q313 404 318 390T323 361H428L412 285H317Q306 245 282 212T213 141L215 138Q214 137 219 138T234 142T257 147T285 149Q306 149 322 145T353 136T383 127T415 123Q443 123 466 136T498 178H573Q566 81 524 37T406 -8Q374 -8 348 -2T298
13T249 27T192 34Q168 34 142 28T82 3L38 67Z" />
<glyph unicode="&#xa4;" glyph-name="currency" horiz-adv-x="604" d="M236 531Q265 548 297 557T364 566Q396 566 425 557T477 532L561 602L621 527L537 457Q553 420 553 380Q553 335 536 293T489 216L546 145L458 71L400 142Q341 108 274 108Q209 108 161 142L75
71L16 145L101 217Q86 251 86 293Q86 337 102 379T147 456L91 527L180 602L236 531ZM346 468Q316 468 287 456T236 422T199 372T185 311Q185 266 215 236T293 205Q322 205 350 217T402 251T439 300T453 362Q453 407 424 437T346 468Z" />
<glyph unicode="&#xa5;" glyph-name="yen" horiz-adv-x="616" d="M98 316H184L102 635H342L410 384L560 635H668L462 316H546L531 240H413L397 165H514L498 89H381L362 0H145L164 89H49L66 165H180L196 240H81L98 316Z" />
<glyph unicode="&#xa6;" glyph-name="brokenbar" horiz-adv-x="223" d="M145 672H254L176 314H71L145 672ZM42 190H151L73 -168H-32L42 190Z" />
<glyph unicode="&#xa7;" glyph-name="section" horiz-adv-x="544" d="M505 539Q484 550 452 562T386 574Q363 574 349 568T328 553T318 534T315 517Q315 501 322 490T343 471T374 457T413 444Q429 439 448 431T484 407T512 368T523 307Q523 239 486 201T386 147Q403
131 414 108T425 46Q425 -1 406 -33T354 -86T275 -116T176 -126Q133 -126 101 -121T46 -108T8 -91T-18 -72L-2 -9Q8 -17 24 -24T61 -38T102 -47T144 -51Q167 -51 182 -46T205 -33T217 -16T220 0Q220 15 211 28T186 51T154 70T120 86Q104 93 87 102T56 125T33 159T24
211Q24 246 36 272T68 318T114 351T171 372Q151 384 137 407T122 471Q122 520 144 553T203 607T283 636T372 645Q429 645 468 632T539 593L505 539ZM305 189Q330 189 346 195T371 210T383 228T386 245Q386 271 350 290T253 329Q228 329 212 323T187 308T175 290T171
273Q171 247 207 228T305 189Z" />
<glyph unicode="&#xa8;" glyph-name="dieresis" horiz-adv-x="417" d="M108 631Q144 631 161 611T178 561Q178 529 158 504T97 478Q60 478 43 498T26 548Q26 580 47 605T108 631ZM320 631Q357 631 374 611T391 561Q391 529 370 504T309 478Q272 478 255 498T238
548Q238 580 259 605T320 631Z" />
<glyph unicode="&#xa9;" glyph-name="copyright" horiz-adv-x="755" d="M733 337Q733 260 702 196T618 85T499 12T360 -14Q294 -14 237 8T137 70T70 166T45 290Q45 365 75 428T158 537T277 609T418 635Q485 635 542 613T642 552T709 458T733 337ZM666 333Q666
386 647 430T593 505T513 554T413 572Q353 572 299 551T204 493T138 405T113 294Q113 239 132 194T186 117T266 67T366 49Q423 49 477 70T573 129T640 219T666 333ZM519 168Q487 155 453 150T376 144Q338 144 306 151T250 176T213 220T200 285Q200 325 213 359T255
419T325 460T427 475Q475 475 510 467T568 432L547 338H447Q448 350 448 360T449 381Q449 425 427 425Q406 425 391 405T366 357T351 297T346 243Q346 226 350 210T370 194Q386 194 405 211T435 271H540L519 168Z" />
<glyph unicode="&#xaa;" glyph-name="ordfeminine" horiz-adv-x="393" d="M73 325H351L341 276H62L73 325ZM139 626Q164 640 191 645T256 651Q297 651 324 645T368 628T392 601T399 565Q399 554 397 543T393 519L365 386H268L258 425H254Q242 408 215 395T160
381Q129 381 109 400T89 455Q89 486 105 504T147 532T208 545T277 548Q279 554 280 560T281 574Q281 586 276 595T253 604Q223 604 214 569H129L139 626ZM269 510H259Q203 510 203 479Q203 467 210 458T230 449Q243 449 252 459T264 481L269 510Z" />
<glyph unicode="&#xab;" glyph-name="guillemotleft" horiz-adv-x="590" d="M249 0H129L11 215L207 430H327L152 215L249 0ZM515 0H395L277 215L473 430H593L418 215L515 0Z" />
<glyph unicode="&#xac;" glyph-name="logicalnot" horiz-adv-x="593" d="M44 256H544L489 27H384L416 165H23L44 256Z" />
<glyph unicode="&#xad;" glyph-name="uni00AD" horiz-adv-x="415" d="M50 256H365L345 165H29L50 256Z" />
<glyph unicode="&#xae;" glyph-name="registered" horiz-adv-x="755" d="M733 337Q733 260 702 196T618 85T499 12T360 -14Q294 -14 237 8T137 70T70 166T45 290Q45 365 75 428T158 537T277 609T418 635Q485 635 542 613T642 552T709 458T733 337ZM666 333Q666
386 647 430T593 505T513 554T413 572Q353 572 299 551T204 493T138 405T113 294Q113 239 132 194T186 117T266 67T366 49Q423 49 477 70T573 129T640 219T666 333ZM559 407Q559 376 543 350T487 309L546 160H417L373 296H366L337 160H211L280 484H429Q457 484
481 481T522 470T549 447T559 407ZM397 339Q410 339 419 346T435 363T443 385T446 406Q446 420 442 429T422 438H399L374 339H397Z" />
<glyph unicode="&#xaf;" glyph-name="overscore" horiz-adv-x="426" d="M45 603H400L382 526H26L45 603Z" />
<glyph unicode="&#xb0;" glyph-name="degree" horiz-adv-x="348" d="M371 526Q371 494 358 467T324 421T274 391T215 380Q187 380 163 389T122 414T94 454T84 506Q84 538 96 564T130 610T180 640T239 651Q267 651 291 642T333 617T361 577T371 526ZM300 523Q300
549 280 568T234 587Q218 587 204 581T178 565T160 540T153 509Q153 480 172 461T218 442Q234 442 248 448T274 466T293 491T300 523Z" />
<glyph unicode="&#xb1;" glyph-name="plusminus" horiz-adv-x="492" d="M361 603L328 445H481L461 354H309L275 190H169L205 354H58L79 445H225L260 603H361ZM20 119H422L402 27H-1L20 119Z" />
<glyph unicode="&#xb2;" glyph-name="twosuperior" horiz-adv-x="287" d="M60 430Q91 438 119 450T170 479T204 519T217 571Q217 587 214 596T202 606Q187 606 177 585T160 542H78L92 604Q118 624 143 634T205 645Q228 645 250 641T289 627T316 602T327 567Q327
553 322 540T304 512T269 481T214 447H305L297 380H52L60 430Z" />
<glyph unicode="&#xb3;" glyph-name="threesuperior" horiz-adv-x="282" d="M162 380Q128 380 103 387T54 414L67 475H151Q151 476 149 467T147 449Q147 432 151 426T163 419Q180 419 191 435T203 467Q203 483 194 491T171 499Q172 509 174 518Q175 526 176 531T177
538Q204 538 214 549T225 577Q225 588 223 597T209 606Q198 606 188 596T169 560H84L96 616Q110 624 128 630Q144 635 166 640T216 645Q234 645 252 642T286 633T310 614T320 584Q320 556 302 541T252 514Q276 512 293 500T310 462Q310 427 270 404T162 380Z" />
<glyph unicode="&#xb4;" glyph-name="acute" horiz-adv-x="317" d="M26 489L119 635H291L112 489H26Z" />
<glyph unicode="&#xb5;" glyph-name="mu" horiz-adv-x="588" d="M382 430H586L494 0H332L314 64H308Q301 53 293 41T275 18T250 0T217 -8Q191 -8 175 5T151 34V-168H-42L86 430H289L239 196Q235 179 231 156T226 118Q226 105 232 95T255 84Q274 84 290 96T315
119L382 430Z" />
<glyph unicode="&#xb6;" glyph-name="paragraph" horiz-adv-x="615" d="M151 -168L243 235Q154 241 113 278Q62 323 62 413Q62 472 86 520T156 600Q220 645 337 645H664L648 569H582L424 -168H327L495 569H406L247 -168H151Z" />
<glyph unicode="&#xb7;" glyph-name="middot" horiz-adv-x="273" d="M249 320Q249 297 240 279T215 249T179 231T137 224Q99 224 73 244T46 309Q46 332 55 350T79 380T113 398T154 405Q195 405 222 385T249 320Z" />
<glyph unicode="&#xb8;" glyph-name="cedilla" horiz-adv-x="244" d="M143 13L123 -68Q129 -66 144 -60T181 -54Q217 -54 237 -70T257 -117Q257 -143 244 -161T209 -191T162 -208T109 -214Q77 -214 59 -206T28 -184L51 -154Q56 -161 72 -167T103 -173Q110 -173
119 -171T135 -164T148 -149T154 -126Q154 -113 148 -107T132 -100Q126 -100 118 -104T106 -119H31L67 14L143 13Z" />
<glyph unicode="&#xb9;" glyph-name="onesuperior" horiz-adv-x="184" d="M81 594Q106 597 126 608T159 635H236L181 380H78L114 548H71L81 594Z" />
<glyph unicode="&#xba;" glyph-name="ordmasculine" horiz-adv-x="400" d="M274 651Q346 651 377 625T408 538Q408 464 364 422T232 380Q158 380 128 411T97 498Q97 564 141 607T274 651ZM233 432Q248 432 259 446T277 482T287 525T291 565Q291 582 288 591T273
600Q256 600 245 585T226 549T216 506T212 471Q212 432 233 432ZM78 325H356L346 276H67L78 325Z" />
<glyph unicode="&#xbb;" glyph-name="guillemotright" horiz-adv-x="588" d="M56 430H176L294 215L98 0H-22L153 215L56 430ZM321 430H441L559 215L363 0H243L418 215L321 430Z" />
<glyph unicode="&#xbc;" glyph-name="onequarter" horiz-adv-x="648" d="M55 0L467 635H566L165 0H55ZM96 594Q121 597 141 608T174 635H251L196 380H93L129 548H86L96 594ZM528 0H425L439 64H334L348 124L464 255H583L552 110H588L579 64H542L528 0ZM449 110L468
201L390 110H449Z" />
<glyph unicode="&#xbd;" glyph-name="onehalf" horiz-adv-x="675" d="M55 0L467 635H566L165 0H55ZM96 594Q121 597 141 608T174 635H251L196 380H93L129 548H86L96 594ZM356 50Q387 58 415 70T466 99T500 139T513 191Q513 207 510 216T498 226Q483 226 473 205T456
162H374L388 224Q414 244 439 254T501 265Q524 265 546 261T585 246T612 222T623 187Q623 173 618 160T600 132T565 101T510 67H601L593 0H348L356 50Z" />
<glyph unicode="&#xbe;" glyph-name="threequarters" horiz-adv-x="722" d="M129 0L541 635H640L239 0H129ZM604 0H501L515 64H410L424 124L540 255H659L628 110H664L655 64H618L604 0ZM174 380Q140 380 115 387T66 414L79 475H163Q163 476 161 467T159 449Q159
432 163 426T175 419Q192 419 203 435T215 467Q215 483 206 491T183 499Q184 509 186 518Q187 526 188 531T189 538Q216 538 226 549T237 577Q237 588 235 597T221 606Q210 606 200 596T181 560H96L108 616Q122 624 140 630Q156 635 178 640T228 645Q246 645 264
642T298 633T322 614T332 584Q332 556 314 541T264 514Q288 512 305 500T322 462Q322 427 282 404T174 380ZM525 110L544 201L466 110H525Z" />
<glyph unicode="&#xbf;" glyph-name="questiondown" horiz-adv-x="521" d="M195 310H345L320 162Q283 153 254 132T203 83T171 23T160 -42Q160 -68 167 -83T194 -98Q213 -98 229 -86T258 -52T283 -4T302 51H449L418 -99Q367 -142 312 -155T202 -168Q-27 -168 -27
-5Q-27 41 -7 77T43 139T109 181T176 207L195 310ZM385 446Q385 423 376 407T351 380T317 364T276 359Q240 359 216 377T192 432Q192 453 201 469T225 496T259 513T299 519Q337 519 361 501T385 446Z" />
<glyph unicode="&#xc0;" glyph-name="Agrave" horiz-adv-x="602" d="M554 0H320L306 159H121L50 0H-47L248 635H485L554 0ZM154 232H299L276 504L154 232ZM144 839H317L422 693H329L144 839Z" />
<glyph unicode="&#xc1;" glyph-name="Aacute" horiz-adv-x="602" d="M554 0H320L306 159H121L50 0H-47L248 635H485L554 0ZM154 232H299L276 504L154 232ZM315 693L408 839H580L401 693H315Z" />
<glyph unicode="&#xc2;" glyph-name="Acircumflex" horiz-adv-x="602" d="M554 0H320L306 159H121L50 0H-47L248 635H485L554 0ZM154 232H299L276 504L154 232ZM175 693L321 839H470L553 693H477L394 786L261 693H175Z" />
<glyph unicode="&#xc3;" glyph-name="Atilde" horiz-adv-x="602" d="M554 0H320L306 159H121L50 0H-47L248 635H485L554 0ZM154 232H299L276 504L154 232ZM614 819Q584 764 554 737T479 710Q461 710 437 716T387 728T339 741T302 747Q284 747 265 735T237 712L204
741Q235 792 266 818T341 844Q357 844 380 839T428 828T476 816T514 811Q528 811 547 820T579 844L614 819Z" />
<glyph unicode="&#xc4;" glyph-name="Adieresis" horiz-adv-x="602" d="M554 0H320L306 159H121L50 0H-47L248 635H485L554 0ZM154 232H299L276 504L154 232ZM269 835Q305 835 322 815T339 765Q339 733 319 708T258 682Q221 682 204 702T187 752Q187 784 208 809T269
835ZM481 835Q518 835 535 815T552 765Q552 733 531 708T470 682Q433 682 416 702T399 752Q399 784 420 809T481 835Z" />
<glyph unicode="&#xc5;" glyph-name="Aring" horiz-adv-x="602" d="M554 0H320L306 159H121L50 0H-47L248 635H485L554 0ZM154 232H299L276 504L154 232ZM466 775Q466 755 458 738T436 709T404 689T367 682Q331 682 307 704T283 763Q283 783 291 800T313 829T344
848T382 855Q418 855 442 833T466 775ZM408 771Q408 784 399 791T377 799Q363 799 352 790T340 766Q340 753 349 745T371 736Q385 736 396 746T408 771Z" />
<glyph unicode="&#xc6;" glyph-name="AE" horiz-adv-x="814" d="M851 559H647L604 361H776L760 286H588L543 77H747L732 0H310L352 199H178L33 0H-61L415 635H867L851 559ZM368 272L424 536L232 272H368Z" />
<glyph unicode="&#xc7;" glyph-name="Ccedilla" horiz-adv-x="639" d="M564 54Q517 31 464 13T336 -7L321 -68Q327 -66 342 -60T379 -54Q415 -54 435 -70T455 -117Q455 -143 442 -161T407 -191T360 -208T307 -214Q275 -214 257 -206T226 -184L249 -154Q254 -161
270 -167T301 -173Q308 -173 317 -171T333 -164T346 -149T352 -126Q352 -113 346 -107T330 -100Q324 -100 316 -104T304 -119H229L259 -5Q151 5 93 65T34 252Q34 333 59 404T133 529T254 614T419 645Q463 645 499 639T565 624T618 603T661 582L625 396H445Q446
406 447 422T450 454T452 487T453 514Q453 522 452 532T447 553T435 569T412 576Q386 576 365 555T326 498T296 417T275 326T262 234T257 155Q257 145 258 130T264 101T279 77T308 67Q339 67 368 105T419 243H604L564 54Z" />
<glyph unicode="&#xc8;" glyph-name="Egrave" horiz-adv-x="503" d="M135 635H556L540 559H336L294 366H465L449 291H278L232 77H436L421 0H0L135 635ZM132 839H305L410 693H317L132 839Z" />
<glyph unicode="&#xc9;" glyph-name="Eacute" horiz-adv-x="503" d="M135 635H556L540 559H336L294 366H465L449 291H278L232 77H436L421 0H0L135 635ZM303 693L396 839H568L389 693H303Z" />
<glyph unicode="&#xca;" glyph-name="Ecircumflex" horiz-adv-x="503" d="M135 635H556L540 559H336L294 366H465L449 291H278L232 77H436L421 0H0L135 635ZM175 693L321 839H470L553 693H477L394 786L261 693H175Z" />
<glyph unicode="&#xcb;" glyph-name="Edieresis" horiz-adv-x="503" d="M135 635H556L540 559H336L294 366H465L449 291H278L232 77H436L421 0H0L135 635ZM254 835Q290 835 307 815T324 765Q324 733 304 708T243 682Q206 682 189 702T172 752Q172 784 193 809T254
835ZM466 835Q503 835 520 815T537 765Q537 733 516 708T455 682Q418 682 401 702T384 752Q384 784 405 809T466 835Z" />
<glyph unicode="&#xcc;" glyph-name="Igrave" horiz-adv-x="326" d="M216 0H0L135 635H352L216 0ZM19 839H192L297 693H204L19 839Z" />
<glyph unicode="&#xcd;" glyph-name="Iacute" horiz-adv-x="326" d="M216 0H0L135 635H352L216 0ZM190 693L283 839H455L276 693H190Z" />
<glyph unicode="&#xce;" glyph-name="Icircumflex" horiz-adv-x="326" d="M216 0H0L135 635H352L216 0ZM62 693L208 839H357L440 693H364L281 786L148 693H62Z" />
<glyph unicode="&#xcf;" glyph-name="Idieresis" horiz-adv-x="326" d="M216 0H0L135 635H352L216 0ZM162 835Q198 835 215 815T232 765Q232 733 212 708T151 682Q114 682 97 702T80 752Q80 784 101 809T162 835ZM374 835Q411 835 428 815T445 765Q445 733 424
708T363 682Q326 682 309 702T292 752Q292 784 313 809T374 835Z" />
<glyph unicode="&#xd0;" glyph-name="Eth" horiz-adv-x="673" d="M25 365H88L146 635H415Q477 635 523 623T600 581T646 505T662 390Q662 317 644 247T582 122T470 34T298 0H11L72 288H6L25 365ZM285 70Q318 70 343 97T387 167T418 261T438 361T449 447T453 501Q453
532 441 549T397 567H349L305 365H380L362 288H289L242 70H285Z" />
<glyph unicode="&#xd1;" glyph-name="Ntilde" horiz-adv-x="644" d="M533 0H299L188 459L90 0H0L135 635H374L479 170L578 635H670L533 0ZM644 819Q614 764 584 737T509 710Q491 710 467 716T417 728T369 741T332 747Q314 747 295 735T267 712L234 741Q265 792
296 818T371 844Q387 844 410 839T458 828T506 816T544 811Q558 811 577 820T609 844L644 819Z" />
<glyph unicode="&#xd2;" glyph-name="Ograve" horiz-adv-x="685" d="M411 645Q497 645 550 623T635 555Q655 524 666 485T677 395Q677 351 669 307T647 223T612 147T566 84Q519 33 458 13T306 -8Q219 -8 166 10T82 68Q60 96 48 139T35 247Q35 358 74 445T187 584Q231
615 285 630T411 645ZM298 62Q321 62 341 82T379 137T411 216T436 307T451 400T457 485Q457 537 447 556T416 576Q393 576 372 556T333 503T300 426T275 336T259 245T253 162Q253 105 265 84T298 62ZM215 839H388L493 693H400L215 839Z" />
<glyph unicode="&#xd3;" glyph-name="Oacute" horiz-adv-x="685" d="M411 645Q497 645 550 623T635 555Q655 524 666 485T677 395Q677 351 669 307T647 223T612 147T566 84Q519 33 458 13T306 -8Q219 -8 166 10T82 68Q60 96 48 139T35 247Q35 358 74 445T187 584Q231
615 285 630T411 645ZM298 62Q321 62 341 82T379 137T411 216T436 307T451 400T457 485Q457 537 447 556T416 576Q393 576 372 556T333 503T300 426T275 336T259 245T253 162Q253 105 265 84T298 62ZM386 693L479 839H651L472 693H386Z" />
<glyph unicode="&#xd4;" glyph-name="Ocircumflex" horiz-adv-x="685" d="M411 645Q497 645 550 623T635 555Q655 524 666 485T677 395Q677 351 669 307T647 223T612 147T566 84Q519 33 458 13T306 -8Q219 -8 166 10T82 68Q60 96 48 139T35 247Q35 358 74 445T187
584Q231 615 285 630T411 645ZM298 62Q321 62 341 82T379 137T411 216T436 307T451 400T457 485Q457 537 447 556T416 576Q393 576 372 556T333 503T300 426T275 336T259 245T253 162Q253 105 265 84T298 62ZM258 693L404 839H553L636 693H560L477 786L344 693H258Z"
/>
<glyph unicode="&#xd5;" glyph-name="Otilde" horiz-adv-x="685" d="M411 645Q497 645 550 623T635 555Q655 524 666 485T677 395Q677 351 669 307T647 223T612 147T566 84Q519 33 458 13T306 -8Q219 -8 166 10T82 68Q60 96 48 139T35 247Q35 358 74 445T187 584Q231
615 285 630T411 645ZM298 62Q321 62 341 82T379 137T411 216T436 307T451 400T457 485Q457 537 447 556T416 576Q393 576 372 556T333 503T300 426T275 336T259 245T253 162Q253 105 265 84T298 62ZM657 819Q627 764 597 737T522 710Q504 710 480 716T430 728T382
741T345 747Q327 747 308 735T280 712L247 741Q278 792 309 818T384 844Q400 844 423 839T471 828T519 816T557 811Q571 811 590 820T622 844L657 819Z" />
<glyph unicode="&#xd6;" glyph-name="Odieresis" horiz-adv-x="685" d="M411 645Q497 645 550 623T635 555Q655 524 666 485T677 395Q677 351 669 307T647 223T612 147T566 84Q519 33 458 13T306 -8Q219 -8 166 10T82 68Q60 96 48 139T35 247Q35 358 74 445T187
584Q231 615 285 630T411 645ZM298 62Q321 62 341 82T379 137T411 216T436 307T451 400T457 485Q457 537 447 556T416 576Q393 576 372 556T333 503T300 426T275 336T259 245T253 162Q253 105 265 84T298 62ZM343 835Q379 835 396 815T413 765Q413 733 393 708T332
682Q295 682 278 702T261 752Q261 784 282 809T343 835ZM555 835Q592 835 609 815T626 765Q626 733 605 708T544 682Q507 682 490 702T473 752Q473 784 494 809T555 835Z" />
<glyph unicode="&#xd7;" glyph-name="multiply" horiz-adv-x="511" d="M327 315L449 109H330L255 238L135 109H12L207 319L89 522H205L279 396L397 522H519L327 315Z" />
<glyph unicode="&#xd8;" glyph-name="Oslash" horiz-adv-x="685" d="M411 645Q511 645 570 614L608 657L655 617L619 575Q648 546 662 499T677 395Q677 351 669 307T647 223T612 147T566 84Q519 33 458 13T306 -8Q199 -8 140 20L101 -25L44 19L84 64L82 68Q60
96 48 139T35 247Q35 335 59 408T130 534T248 616T411 645ZM298 62Q325 62 349 90T392 164T426 266T448 377L253 151Q254 100 266 81T298 62ZM416 576Q388 576 364 548T319 474T284 374T261 264L457 486Q457 537 447 556T416 576Z" />
<glyph unicode="&#xd9;" glyph-name="Ugrave" horiz-adv-x="630" d="M267 227Q262 205 259 189T256 159Q256 124 280 103T353 82Q388 82 410 94T447 126T470 172T485 227L570 635H661L574 225Q564 177 545 135T491 61T399 11T260 -8Q145 -8 90 29T35 145Q35 180
44 234T67 351L128 635H355L267 227ZM218 839H391L496 693H403L218 839Z" />
<glyph unicode="&#xda;" glyph-name="Uacute" horiz-adv-x="630" d="M267 227Q262 205 259 189T256 159Q256 124 280 103T353 82Q388 82 410 94T447 126T470 172T485 227L570 635H661L574 225Q564 177 545 135T491 61T399 11T260 -8Q145 -8 90 29T35 145Q35 180
44 234T67 351L128 635H355L267 227ZM389 693L482 839H654L475 693H389Z" />
<glyph unicode="&#xdb;" glyph-name="Ucircumflex" horiz-adv-x="630" d="M267 227Q262 205 259 189T256 159Q256 124 280 103T353 82Q388 82 410 94T447 126T470 172T485 227L570 635H661L574 225Q564 177 545 135T491 61T399 11T260 -8Q145 -8 90 29T35 145Q35
180 44 234T67 351L128 635H355L267 227ZM241 693L387 839H536L619 693H543L460 786L327 693H241Z" />
<glyph unicode="&#xdc;" glyph-name="Udieresis" horiz-adv-x="630" d="M267 227Q262 205 259 189T256 159Q256 124 280 103T353 82Q388 82 410 94T447 126T470 172T485 227L570 635H661L574 225Q564 177 545 135T491 61T399 11T260 -8Q145 -8 90 29T35 145Q35
180 44 234T67 351L128 635H355L267 227ZM353 835Q389 835 406 815T423 765Q423 733 403 708T342 682Q305 682 288 702T271 752Q271 784 292 809T353 835ZM565 835Q602 835 619 815T636 765Q636 733 615 708T554 682Q517 682 500 702T483 752Q483 784 504 809T565
835Z" />
<glyph unicode="&#xdd;" glyph-name="Yacute" horiz-adv-x="570" d="M389 240L338 0H121L176 257L78 635H318L386 384L536 635H644L389 240ZM357 693L450 839H622L443 693H357Z" />
<glyph unicode="&#xde;" glyph-name="Thorn" horiz-adv-x="592" d="M329 526Q391 526 441 520T526 496T580 444T599 353Q599 302 583 256T530 176T435 121T294 101H238L216 0H0L135 635H352L329 526ZM315 458L252 165H297Q327 165 347 190T381 251T401 326T407
393Q407 421 398 439T359 458H315Z" />
<glyph unicode="&#xdf;" glyph-name="germandbls" horiz-adv-x="660" d="M626 152Q626 112 608 82T560 32T489 2T402 -8Q369 -8 346 -4T307 8T278 25T254 43L298 97Q309 84 329 71T376 58Q401 58 421 72T442 109Q442 124 434 135T412 158T382 181T352 206Q323
234 314 261T304 314Q304 347 314 368T341 406T375 434T409 461T435 492T446 537Q446 548 444 559T434 578T415 592T383 598Q349 598 331 580T304 520L193 0H-10L89 471Q102 532 127 573T190 639T274 674T379 684Q422 684 468 678T552 658T614 620T639 560Q639
522 614 496T559 449T503 410T478 369Q478 347 501 329T552 287T603 233T626 152Z" />
<glyph unicode="&#xe0;" glyph-name="agrave" horiz-adv-x="552" d="M72 393Q123 418 176 429T296 441Q360 441 402 431T469 402T504 357T514 298Q514 279 512 257T506 220L459 0H298L280 64H274Q242 29 200 11T115 -8Q91 -8 68 -1T27 20T-2 57T-13 112Q-13 164
15 194T90 240T195 260T313 264Q315 274 318 292T321 325Q321 343 312 358T272 374Q237 374 221 354T199 304H53L72 393ZM302 217H284Q255 217 235 210T202 190T183 163T177 133Q177 109 189 97T219 85Q240 85 260 100T286 140L302 217ZM101 635H274L379 489H286L101
635Z" />
<glyph unicode="&#xe1;" glyph-name="aacute" horiz-adv-x="552" d="M72 393Q123 418 176 429T296 441Q360 441 402 431T469 402T504 357T514 298Q514 279 512 257T506 220L459 0H298L280 64H274Q242 29 200 11T115 -8Q91 -8 68 -1T27 20T-2 57T-13 112Q-13 164
15 194T90 240T195 260T313 264Q315 274 318 292T321 325Q321 343 312 358T272 374Q237 374 221 354T199 304H53L72 393ZM302 217H284Q255 217 235 210T202 190T183 163T177 133Q177 109 189 97T219 85Q240 85 260 100T286 140L302 217ZM269 489L362 635H534L355
489H269Z" />
<glyph unicode="&#xe2;" glyph-name="acircumflex" horiz-adv-x="552" d="M72 393Q123 418 176 429T296 441Q360 441 402 431T469 402T504 357T514 298Q514 279 512 257T506 220L459 0H298L280 64H274Q242 29 200 11T115 -8Q91 -8 68 -1T27 20T-2 57T-13 112Q-13
164 15 194T90 240T195 260T313 264Q315 274 318 292T321 325Q321 343 312 358T272 374Q237 374 221 354T199 304H53L72 393ZM302 217H284Q255 217 235 210T202 190T183 163T177 133Q177 109 189 97T219 85Q240 85 260 100T286 140L302 217ZM129 489L275 635H424L507
489H431L348 582L215 489H129Z" />
<glyph unicode="&#xe3;" glyph-name="atilde" horiz-adv-x="552" d="M72 393Q123 418 176 429T296 441Q360 441 402 431T469 402T504 357T514 298Q514 279 512 257T506 220L459 0H298L280 64H274Q242 29 200 11T115 -8Q91 -8 68 -1T27 20T-2 57T-13 112Q-13 164
15 194T90 240T195 260T313 264Q315 274 318 292T321 325Q321 343 312 358T272 374Q237 374 221 354T199 304H53L72 393ZM302 217H284Q255 217 235 210T202 190T183 163T177 133Q177 109 189 97T219 85Q240 85 260 100T286 140L302 217ZM541 615Q511 560 481 533T406
506Q388 506 364 512T314 524T266 537T229 543Q211 543 192 531T164 508L131 537Q162 588 193 614T268 640Q284 640 307 635T355 624T403 612T441 607Q455 607 474 616T506 640L541 615Z" />
<glyph unicode="&#xe4;" glyph-name="adieresis" horiz-adv-x="552" d="M72 393Q123 418 176 429T296 441Q360 441 402 431T469 402T504 357T514 298Q514 279 512 257T506 220L459 0H298L280 64H274Q242 29 200 11T115 -8Q91 -8 68 -1T27 20T-2 57T-13 112Q-13
164 15 194T90 240T195 260T313 264Q315 274 318 292T321 325Q321 343 312 358T272 374Q237 374 221 354T199 304H53L72 393ZM302 217H284Q255 217 235 210T202 190T183 163T177 133Q177 109 189 97T219 85Q240 85 260 100T286 140L302 217ZM219 631Q255 631 272
611T289 561Q289 529 269 504T208 478Q171 478 154 498T137 548Q137 580 158 605T219 631ZM431 631Q468 631 485 611T502 561Q502 529 481 504T420 478Q383 478 366 498T349 548Q349 580 370 605T431 631Z" />
<glyph unicode="&#xe5;" glyph-name="aring" horiz-adv-x="552" d="M72 393Q123 418 176 429T296 441Q360 441 402 431T469 402T504 357T514 298Q514 279 512 257T506 220L459 0H298L280 64H274Q242 29 200 11T115 -8Q91 -8 68 -1T27 20T-2 57T-13 112Q-13 164
15 194T90 240T195 260T313 264Q315 274 318 292T321 325Q321 343 312 358T272 374Q237 374 221 354T199 304H53L72 393ZM302 217H284Q255 217 235 210T202 190T183 163T177 133Q177 109 189 97T219 85Q240 85 260 100T286 140L302 217ZM404 571Q404 551 396 534T374
505T342 485T305 478Q269 478 245 500T221 559Q221 579 229 596T251 625T282 644T320 651Q356 651 380 629T404 571ZM346 567Q346 580 337 587T315 595Q301 595 290 586T278 562Q278 549 287 541T309 532Q323 532 334 542T346 567Z" />
<glyph unicode="&#xe6;" glyph-name="ae" horiz-adv-x="830" d="M74 398Q116 421 163 431T273 441Q332 441 373 434T441 412Q475 426 517 433T613 441Q713 441 763 410T814 313Q814 286 806 255T782 201H501Q497 179 496 159T494 123Q494 114 495 103T499 83T509
67T528 60Q537 60 548 66T571 83T593 110T610 146H774L748 39Q728 26 702 17T647 3T588 -5T531 -8Q464 -8 411 8T326 66Q298 43 269 29T211 6T157 -5T108 -8Q59 -8 24 23T-11 113Q-11 165 16 195T88 240T188 260T304 264Q306 274 309 293T312 327Q312 344 304 359T268
374Q238 374 222 354T199 304H56L74 398ZM634 320Q634 351 624 362T600 373Q584 373 571 363T546 335T526 295T511 247H625Q627 259 629 272Q631 283 632 296T634 320ZM294 217H276Q228 217 202 201T176 146Q176 120 187 104T220 87Q242 87 258 103T278 140L294
217Z" />
<glyph unicode="&#xe7;" glyph-name="ccedilla" horiz-adv-x="521" d="M444 24Q405 8 362 1T266 -8L251 -68Q257 -66 272 -60T309 -54Q345 -54 365 -70T385 -117Q385 -143 372 -161T337 -191T290 -208T237 -214Q205 -214 187 -206T156 -184L179 -154Q184 -161
200 -167T231 -173Q238 -173 247 -171T263 -164T276 -149T282 -126Q282 -113 276 -107T260 -100Q254 -100 246 -104T234 -119H159L190 -4Q150 1 117 14T61 51T24 107T11 184Q11 238 29 284T85 366T181 421T319 441Q384 441 432 431T511 383L483 255H347Q348 272
349 285T350 314Q350 346 343 359T320 373Q292 373 271 346T237 280T217 199T210 126Q210 115 211 104T215 82T225 66T242 60Q252 60 265 66T290 84T313 117T330 165H473L444 24Z" />
<glyph unicode="&#xe8;" glyph-name="egrave" horiz-adv-x="547" d="M218 201Q214 179 213 159T211 123Q211 114 212 103T216 83T226 67T245 60Q254 60 265 66T288 83T310 110T327 146H491L465 39Q445 26 419 17T364 3T305 -5T248 -8Q198 -8 155 1T80 32T30 90T11
181Q11 230 26 277T78 360T176 419T330 441Q430 441 480 410T531 313Q531 286 523 255T499 201H218ZM351 320Q351 351 341 362T317 373Q301 373 288 363T263 335T243 295T228 247H342Q344 259 346 272Q348 283 349 296T351 320ZM130 635H303L408 489H315L130 635Z"
/>
<glyph unicode="&#xe9;" glyph-name="eacute" horiz-adv-x="547" d="M218 201Q214 179 213 159T211 123Q211 114 212 103T216 83T226 67T245 60Q254 60 265 66T288 83T310 110T327 146H491L465 39Q445 26 419 17T364 3T305 -5T248 -8Q198 -8 155 1T80 32T30 90T11
181Q11 230 26 277T78 360T176 419T330 441Q430 441 480 410T531 313Q531 286 523 255T499 201H218ZM351 320Q351 351 341 362T317 373Q301 373 288 363T263 335T243 295T228 247H342Q344 259 346 272Q348 283 349 296T351 320ZM284 489L377 635H549L370 489H284Z"
/>
<glyph unicode="&#xea;" glyph-name="ecircumflex" horiz-adv-x="547" d="M218 201Q214 179 213 159T211 123Q211 114 212 103T216 83T226 67T245 60Q254 60 265 66T288 83T310 110T327 146H491L465 39Q445 26 419 17T364 3T305 -5T248 -8Q198 -8 155 1T80 32T30
90T11 181Q11 230 26 277T78 360T176 419T330 441Q430 441 480 410T531 313Q531 286 523 255T499 201H218ZM351 320Q351 351 341 362T317 373Q301 373 288 363T263 335T243 295T228 247H342Q344 259 346 272Q348 283 349 296T351 320ZM156 489L302 635H451L534
489H458L375 582L242 489H156Z" />
<glyph unicode="&#xeb;" glyph-name="edieresis" horiz-adv-x="547" d="M218 201Q214 179 213 159T211 123Q211 114 212 103T216 83T226 67T245 60Q254 60 265 66T288 83T310 110T327 146H491L465 39Q445 26 419 17T364 3T305 -5T248 -8Q198 -8 155 1T80 32T30
90T11 181Q11 230 26 277T78 360T176 419T330 441Q430 441 480 410T531 313Q531 286 523 255T499 201H218ZM351 320Q351 351 341 362T317 373Q301 373 288 363T263 335T243 295T228 247H342Q344 259 346 272Q348 283 349 296T351 320ZM256 631Q292 631 309 611T326
561Q326 529 306 504T245 478Q208 478 191 498T174 548Q174 580 195 605T256 631ZM468 631Q505 631 522 611T539 561Q539 529 518 504T457 478Q420 478 403 498T386 548Q386 580 407 605T468 631Z" />
<glyph unicode="&#xec;" glyph-name="igrave" horiz-adv-x="293" d="M193 0H-10L81 430H286L193 0ZM-42 635H131L236 489H143L-42 635Z" />
<glyph unicode="&#xed;" glyph-name="iacute" horiz-adv-x="293" d="M193 0H-10L81 430H286L193 0ZM129 489L222 635H394L215 489H129Z" />
<glyph unicode="&#xee;" glyph-name="icircumflex" horiz-adv-x="293" d="M193 0H-10L81 430H286L193 0ZM14 489L160 635H309L392 489H316L233 582L100 489H14Z" />
<glyph unicode="&#xef;" glyph-name="idieresis" horiz-adv-x="293" d="M193 0H-10L81 430H286L193 0ZM109 631Q145 631 162 611T179 561Q179 529 159 504T98 478Q61 478 44 498T27 548Q27 580 48 605T109 631ZM321 631Q358 631 375 611T392 561Q392 529 371 504T310
478Q273 478 256 498T239 548Q239 580 260 605T321 631Z" />
<glyph unicode="&#xf0;" glyph-name="eth" horiz-adv-x="618" d="M275 543L401 557Q391 588 375 608T336 644L407 672Q449 658 482 633T541 574L662 588L672 513L580 502Q606 433 606 358Q606 284 582 218T510 102T394 22T237 -8Q175 -8 133 6T63 45T24 102T12
173Q12 195 18 235T46 316T111 387T227 417Q244 417 268 414T314 403T355 380T381 340H392Q406 369 410 398T414 457Q414 464 414 470T413 482L289 468L275 543ZM248 60Q272 60 289 78T317 123T333 184T338 246Q338 271 332 283T306 296Q279 296 261 277T231 231T214
174T208 121Q208 92 217 76T248 60Z" />
<glyph unicode="&#xf1;" glyph-name="ntilde" horiz-adv-x="586" d="M268 366Q289 386 315 403Q338 417 369 429T438 441Q490 441 524 415T558 342Q558 329 555 311T548 272T540 232T532 195L490 0H287L342 261Q344 274 347 287T350 312Q350 327 343 336T320 346Q302
346 286 333T260 311L194 0H-10L81 430H244L262 366H268ZM550 615Q520 560 490 533T415 506Q397 506 373 512T323 524T275 537T238 543Q220 543 201 531T173 508L140 537Q171 588 202 614T277 640Q293 640 316 635T364 624T412 612T450 607Q464 607 483 616T515
640L550 615Z" />
<glyph unicode="&#xf2;" glyph-name="ograve" horiz-adv-x="575" d="M315 441Q434 441 488 399Q545 355 545 253Q545 190 524 140T465 56Q389 -8 245 -8Q122 -8 69 39Q12 88 12 186Q12 251 38 304T115 392Q188 441 315 441ZM247 60Q272 60 290 88T320 156T336
240T342 316Q342 344 337 358T313 373Q286 373 267 344T235 275T218 193T212 125Q212 60 247 60ZM100 635H273L378 489H285L100 635Z" />
<glyph unicode="&#xf3;" glyph-name="oacute" horiz-adv-x="575" d="M315 441Q434 441 488 399Q545 355 545 253Q545 190 524 140T465 56Q389 -8 245 -8Q122 -8 69 39Q12 88 12 186Q12 251 38 304T115 392Q188 441 315 441ZM247 60Q272 60 290 88T320 156T336
240T342 316Q342 344 337 358T313 373Q286 373 267 344T235 275T218 193T212 125Q212 60 247 60ZM271 489L364 635H536L357 489H271Z" />
<glyph unicode="&#xf4;" glyph-name="ocircumflex" horiz-adv-x="575" d="M315 441Q434 441 488 399Q545 355 545 253Q545 190 524 140T465 56Q389 -8 245 -8Q122 -8 69 39Q12 88 12 186Q12 251 38 304T115 392Q188 441 315 441ZM247 60Q272 60 290 88T320 156T336
240T342 316Q342 344 337 358T313 373Q286 373 267 344T235 275T218 193T212 125Q212 60 247 60ZM143 489L289 635H438L521 489H445L362 582L229 489H143Z" />
<glyph unicode="&#xf5;" glyph-name="otilde" horiz-adv-x="575" d="M315 441Q434 441 488 399Q545 355 545 253Q545 190 524 140T465 56Q389 -8 245 -8Q122 -8 69 39Q12 88 12 186Q12 251 38 304T115 392Q188 441 315 441ZM247 60Q272 60 290 88T320 156T336
240T342 316Q342 344 337 358T313 373Q286 373 267 344T235 275T218 193T212 125Q212 60 247 60ZM560 615Q530 560 500 533T425 506Q407 506 383 512T333 524T285 537T248 543Q230 543 211 531T183 508L150 537Q181 588 212 614T287 640Q303 640 326 635T374 624T422
612T460 607Q474 607 493 616T525 640L560 615Z" />
<glyph unicode="&#xf6;" glyph-name="odieresis" horiz-adv-x="575" d="M315 441Q434 441 488 399Q545 355 545 253Q545 190 524 140T465 56Q389 -8 245 -8Q122 -8 69 39Q12 88 12 186Q12 251 38 304T115 392Q188 441 315 441ZM247 60Q272 60 290 88T320 156T336
240T342 316Q342 344 337 358T313 373Q286 373 267 344T235 275T218 193T212 125Q212 60 247 60ZM243 631Q279 631 296 611T313 561Q313 529 293 504T232 478Q195 478 178 498T161 548Q161 580 182 605T243 631ZM455 631Q492 631 509 611T526 561Q526 529 505 504T444
478Q407 478 390 498T373 548Q373 580 394 605T455 631Z" />
<glyph unicode="&#xf7;" glyph-name="divide" horiz-adv-x="460" d="M283 117Q283 96 275 79T252 51T219 33T180 27Q145 27 121 46T96 106Q96 149 126 172T196 195Q233 195 258 176T283 117ZM388 524Q388 503 380 486T357 458T324 441T285 435Q250 435 226 454T201
513Q201 556 231 579T301 603Q338 603 363 584T388 524ZM52 364H454L434 273H31L52 364Z" />
<glyph unicode="&#xf8;" glyph-name="oslash" horiz-adv-x="575" d="M315 441Q379 441 424 429L457 468L502 439L475 407Q493 400 506 385T527 349T540 304T545 253Q545 127 469 60T245 -8Q213 -8 187 -5T139 3L101 -42L63 -9L90 23Q52 46 32 87T12 186Q12 242
31 289T87 369T182 422T315 441ZM313 373Q291 373 274 354T245 305T226 240T215 175L342 328Q341 350 335 361T313 373ZM247 60Q266 60 281 76T307 118T325 176T336 240L214 94Q221 60 247 60Z" />
<glyph unicode="&#xf9;" glyph-name="ugrave" horiz-adv-x="585" d="M373 430H577L485 0H323L305 64H299Q273 33 229 13T139 -8Q79 -8 45 22T11 102Q11 127 19 164T35 235L77 430H280L230 196Q228 188 226 177T222 156T219 136T217 120Q217 105 223 95T247 84Q265
84 281 96T306 119L373 430ZM105 635H278L383 489H290L105 635Z" />
<glyph unicode="&#xfa;" glyph-name="uacute" horiz-adv-x="585" d="M373 430H577L485 0H323L305 64H299Q273 33 229 13T139 -8Q79 -8 45 22T11 102Q11 127 19 164T35 235L77 430H280L230 196Q228 188 226 177T222 156T219 136T217 120Q217 105 223 95T247 84Q265
84 281 96T306 119L373 430ZM277 489L370 635H542L363 489H277Z" />
<glyph unicode="&#xfb;" glyph-name="ucircumflex" horiz-adv-x="585" d="M373 430H577L485 0H323L305 64H299Q273 33 229 13T139 -8Q79 -8 45 22T11 102Q11 127 19 164T35 235L77 430H280L230 196Q228 188 226 177T222 156T219 136T217 120Q217 105 223 95T247
84Q265 84 281 96T306 119L373 430ZM159 489L305 635H454L537 489H461L378 582L245 489H159Z" />
<glyph unicode="&#xfc;" glyph-name="udieresis" horiz-adv-x="585" d="M373 430H577L485 0H323L305 64H299Q273 33 229 13T139 -8Q79 -8 45 22T11 102Q11 127 19 164T35 235L77 430H280L230 196Q228 188 226 177T222 156T219 136T217 120Q217 105 223 95T247
84Q265 84 281 96T306 119L373 430ZM251 631Q287 631 304 611T321 561Q321 529 301 504T240 478Q203 478 186 498T169 548Q169 580 190 605T251 631ZM463 631Q500 631 517 611T534 561Q534 529 513 504T452 478Q415 478 398 498T381 548Q381 580 402 605T463 631Z"
/>
<glyph unicode="&#xfd;" glyph-name="yacute" horiz-adv-x="517" d="M251 430L281 136L439 430H545L304 0Q268 -63 231 -97T151 -147T55 -165T-65 -168L-50 -99Q-17 -99 11 -98T57 -92Q80 -86 90 -71T100 -25Q100 -5 97 21T89 76L40 430H251ZM295 489L388 635H560L381
489H295Z" />
<glyph unicode="&#xfe;" glyph-name="thorn" horiz-adv-x="584" d="M158 -168H-46L131 672H336L271 366H278Q311 404 352 420T435 437Q470 437 493 427T531 398T551 355T557 302Q557 288 555 260T546 198T526 127T492 60T438 11T360 -8Q305 -8 267 14T214 65H208L158
-168ZM264 89Q288 89 304 114T330 174T344 243T349 295Q349 315 343 328T319 341Q299 341 282 327T257 302L218 123Q225 111 236 100T264 89Z" />
<glyph unicode="&#xff;" glyph-name="ydieresis" horiz-adv-x="517" d="M251 430L281 136L439 430H545L304 0Q268 -63 231 -97T151 -147T55 -165T-65 -168L-50 -99Q-17 -99 11 -98T57 -92Q80 -86 90 -71T100 -25Q100 -5 97 21T89 76L40 430H251ZM267 631Q303 631
320 611T337 561Q337 529 317 504T256 478Q219 478 202 498T185 548Q185 580 206 605T267 631ZM479 631Q516 631 533 611T550 561Q550 529 529 504T468 478Q431 478 414 498T397 548Q397 580 418 605T479 631Z" />
<glyph unicode="&#x2013;" glyph-name="endash" horiz-adv-x="600" d="M50 256H550L530 165H29L50 256Z" />
<glyph unicode="&#x2014;" glyph-name="emdash" horiz-adv-x="874" d="M50 256H824L804 165H29L50 256Z" />
<glyph unicode="&#x2018;" glyph-name="quoteleft" horiz-adv-x="267" d="M78 464Q78 501 96 536T141 601T203 653T271 689L300 647Q263 619 245 597T226 553Q226 518 282 477Q282 453 273 434T249 402T214 382T173 375Q132 375 105 397T78 464Z" />
<glyph unicode="&#x2019;" glyph-name="quoteright" horiz-adv-x="264" d="M304 600Q304 562 286 527T240 463T178 410T110 375L82 417Q118 445 136 467T155 510Q155 546 100 587Q100 611 109 630T133 662T168 682T209 689Q250 689 277 667T304 600Z" />
<glyph unicode="&#x201a;" glyph-name="quotesinglbase" horiz-adv-x="275" d="M201 85Q201 47 183 12T138 -52T76 -104T8 -140L-20 -98Q16 -70 34 -48T53 -4Q53 31 -3 72Q-3 96 6 115T30 147T66 167T107 174Q147 174 174 152T201 85Z" />
<glyph unicode="&#x201c;" glyph-name="quotedblleft" horiz-adv-x="532" d="M78 464Q78 501 96 536T141 601T203 653T271 689L300 647Q263 619 245 597T226 553Q226 518 282 477Q282 453 273 434T249 402T214 382T173 375Q132 375 105 397T78 464ZM343 464Q343
501 361 536T406 601T468 653T536 689L564 647Q528 619 510 597T491 553Q491 518 547 477Q547 453 538 434T514 402T478 382T437 375Q397 375 370 397T343 464Z" />
<glyph unicode="&#x201d;" glyph-name="quotedblright" horiz-adv-x="528" d="M568 600Q568 562 550 527T505 463T443 410T375 375L347 417Q383 445 401 467T420 510Q420 546 364 587Q364 611 373 630T397 662T433 682T474 689Q514 689 541 667T568 600ZM304 600Q304
562 286 527T240 463T178 410T110 375L82 417Q118 445 136 467T155 510Q155 546 100 587Q100 611 109 630T133 662T168 682T209 689Q250 689 277 667T304 600Z" />
<glyph unicode="&#x201e;" glyph-name="quotedblbase" horiz-adv-x="539" d="M465 85Q465 47 447 12T402 -52T340 -104T272 -140L244 -98Q280 -70 298 -48T317 -4Q317 31 261 72Q261 96 270 115T294 147T330 167T371 174Q411 174 438 152T465 85ZM201 85Q201 47
183 12T137 -52T75 -104T7 -140L-21 -98Q15 -70 33 -48T52 -4Q52 31 -3 72Q-3 96 6 115T30 147T65 167T106 174Q147 174 174 152T201 85Z" />
<glyph unicode="&#x2022;" glyph-name="bullet" horiz-adv-x="348" d="M78 364Q78 388 87 410T112 448T149 473T196 483Q220 483 241 474T279 448T304 410T314 364Q314 339 305 318T279 281T242 256T196 247Q171 247 150 256T112 280T87 317T78 364Z" />
<glyph unicode="&#x2039;" glyph-name="guilsinglleft" horiz-adv-x="324" d="M249 0H129L11 215L207 430H327L152 215L249 0Z" />
<glyph unicode="&#x203a;" glyph-name="guilsinglright" horiz-adv-x="322" d="M55 430H176L294 215L97 0H-22L153 215L55 430Z" />
</font>
</defs>
</svg>
