<?xml version="1.0" standalone="no"?>
<!DOCTYPE svg PUBLIC "-//W3C//DTD SVG 1.1//EN" "http://www.w3.org/Graphics/SVG/1.1/DTD/svg11.dtd">
<svg xmlns="http://www.w3.org/2000/svg">
<defs >
<font id="JosefinSans" horiz-adv-x="586" ><font-face
    font-family="Josefin Sans"
    units-per-em="1000"
    panose-1="0 0 5 0 0 0 0 0 0 0"
    ascent="750"
    descent="-250"
    alphabetic="0" />
<glyph unicode=" " glyph-name="space" horiz-adv-x="300" />
<glyph unicode="!" glyph-name="exclam" horiz-adv-x="201" d="M214 747L144 174H60L130 747H214ZM61 -3T47 9T32 41Q32 62 48 77T88 92Q95 92 99 91Q117 87 126 75T136 47Q136 43 134 33Q129 16 116 7T84 -3Q61 -3 47 9Z" />
<glyph unicode="&quot;" glyph-name="quotedbl" horiz-adv-x="339" d="M231 682T220 604L202 478H123L153 729H237Q231 682 220 604ZM366 682T355 604L337 478H257L288 729H372Q366 682 355 604Z" />
<glyph unicode="#" glyph-name="numbersign" horiz-adv-x="578" d="M291 458H393Q399 485 408 521T423 578L441 651H526Q526 651 490 507L478 458H581L563 376H459Q452 350 434 273H537Q522 211 517 190H413L386 73L368 0H283L329 190H227Q211 122 205 99Q189
33 182 0H96L142 190H49Q64 252 69 273H162Q168 293 175 325L187 376H95L113 458H206L255 651H340L291 458ZM254 299T247 273H349L373 376H272Q254 299 247 273Z" />
<glyph unicode="$" glyph-name="dollar" horiz-adv-x="580" d="M453 620T392 633L364 404Q435 372 475 330T516 214Q516 162 491 113T414 31T289 -7L281 -68H223L231 -5Q171 2 118 25T24 84L76 158Q107 129 152 108T241 82L272 340Q224 363 192 385T137 440T115
519Q115 581 144 627T226 699T344 724L352 790H411L402 718Q487 704 563 653L516 581Q453 620 392 633ZM216 505T240 480T308 431L334 638Q276 635 246 605T216 536Q216 505 240 480ZM415 235T393 263T328 313L300 83Q349 91 380 122T414 199Q415 235 393 263Z"
/>
<glyph unicode="%" glyph-name="percent" horiz-adv-x="815" d="M163 270T127 307T91 418Q91 471 109 515T164 584T251 609Q307 606 343 565T376 444Q370 367 330 317T219 267Q163 270 127 307ZM228 -2L135 0L625 610H719L228 -2ZM259 334T276 371T294 460Q294
504 279 522T242 541Q209 541 193 511T173 429Q171 379 186 357T225 334Q259 334 276 371ZM542 -16T505 22T467 134Q467 186 485 229T538 299T622 326Q678 326 715 288T752 175Q752 124 734 81T681 11T598 -16Q542 -16 505 22ZM636 51T652 88T669 178Q669 222 654
240T618 258Q586 258 569 228T549 146Q547 96 563 74T601 51Q636 51 652 88Z" />
<glyph unicode="&amp;" glyph-name="ampersand" horiz-adv-x="713" d="M528 158L626 0H513L474 64Q440 30 392 10T285 -10Q217 -10 164 16T80 89T50 193Q50 248 78 294T153 372T255 416L226 463Q211 487 200 517T188 578Q188 624 212 665T281 732T388 758Q443
758 487 736T560 680L504 615Q443 676 393 676Q345 676 318 649T289 582Q287 565 295 543T313 506L480 236L575 425H665L528 158ZM343 76T376 91T430 133L299 346Q262 343 228 323T174 271T153 199Q153 145 196 111T303 76Q343 76 376 91Z" />
<glyph unicode="&apos;" glyph-name="quotesingle" horiz-adv-x="165" d="M211 682T200 604L182 478H101L132 729H217Q211 682 200 604Z" />
<glyph unicode="(" glyph-name="parenleft" horiz-adv-x="377" d="M106 423T170 550T320 754L387 709Q310 633 256 520T192 269Q189 238 189 206Q189 103 215 17T285 -130L207 -167Q157 -104 125 -5T92 210Q92 242 95 273Q106 423 170 550Z" />
<glyph unicode=")" glyph-name="parenright" horiz-adv-x="377" d="M293 167T228 40T79 -165L11 -120Q88 -44 142 68T206 321Q209 353 209 384Q209 487 183 573T113 720L192 756Q242 692 274 593T306 376Q306 336 304 316Q293 167 228 40Z" />
<glyph unicode="*" glyph-name="asterisk" horiz-adv-x="335" d="M119 480L96 532Q128 548 144 557L181 576L108 624L141 672Q191 640 216 625L228 720H288L275 625L363 671Q377 639 385 623L296 575L325 557L372 529L336 477Q326 483 314 491T286 509L261 525L249
434H193L204 525L119 480Z" />
<glyph unicode="+" glyph-name="plus" horiz-adv-x="550" d="M363 416L346 275H486L476 193H336L319 52H233L251 193H111L121 275H261L278 416H363Z" />
<glyph unicode="," glyph-name="comma" horiz-adv-x="203" d="M-9 -168Q13 -151 25 -120T37 -54Q37 -42 36 -36L119 -37Q120 -42 120 -54Q120 -96 98 -138T39 -202L-9 -168Z" />
<glyph unicode="-" glyph-name="hyphen" horiz-adv-x="304" d="M272 256L262 174H76L86 256H272Z" />
<glyph unicode="." glyph-name="period" horiz-adv-x="166" d="M40 72T58 89T100 107Q118 107 131 93T145 58Q145 34 127 17T87 0Q68 0 54 13T40 47Q40 72 58 89Z" />
<glyph unicode="/" glyph-name="slash" horiz-adv-x="385" d="M288 364Q257 299 100 -19H15Q172 299 203 364L391 746H476L288 364Z" />
<glyph unicode="0" glyph-name="zero" horiz-adv-x="643" d="M236 -1T177 34T87 136T58 298Q64 370 91 452T185 598T366 663Q435 663 492 631T582 536T616 391Q616 362 614 347Q606 250 570 172T468 46T313 -1Q236 -1 177 34ZM375 91T417 128T483 227T512 358L513
382Q513 478 468 524T353 571Q295 571 251 530T184 422T160 281Q160 186 205 139T320 91Q375 91 417 128Z" />
<glyph unicode="1" glyph-name="one" horiz-adv-x="350" d="M298 658L217 0H119L188 565H113L125 658H298Z" />
<glyph unicode="2" glyph-name="two" horiz-adv-x="568" d="M514 422T494 371T422 254T272 94H505L494 0H45Q207 145 286 231T389 365T412 456Q412 514 379 543T293 573Q247 573 219 553T179 503T167 447Q167 394 194 359L129 305Q106 331 89 371T72 453Q72 501
94 549T169 632T303 666Q397 666 455 616T514 478Q514 422 494 371Z" />
<glyph unicode="3" glyph-name="three" horiz-adv-x="503" d="M337 414T376 392T438 329T462 236Q462 178 438 123T361 32T227 -7Q175 -8 123 13T37 77L95 151Q117 120 151 104T222 87Q288 87 325 129T362 233Q362 287 323 318T221 350Q199 350 178 346T145 335L141
339L306 565H105L116 658H462L290 416Q337 414 376 392Z" />
<glyph unicode="4" glyph-name="four" horiz-adv-x="516" d="M500 234L491 159H406L386 0H289L308 159H3V160L466 666H467L415 234H500ZM317 234L343 439L161 234H317Z" />
<glyph unicode="5" glyph-name="five" horiz-adv-x="522" d="M311 430T358 408T437 340T469 225Q469 172 446 119T370 29T235 -8Q194 -8 141 12T54 73L114 146Q136 114 169 101T232 88Q300 88 334 126T369 220Q369 286 325 318T224 351Q161 351 105 313H103L168
658H477L466 565H230L205 423Q231 430 261 430Q311 430 358 408Z" />
<glyph unicode="6" glyph-name="six" horiz-adv-x="561" d="M376 420T419 398T490 332T518 225Q518 170 490 116T406 27T275 -8Q212 -8 162 20T83 101T54 223Q54 332 134 443T409 659L465 584Q372 546 306 492T203 378Q257 420 334 420Q376 420 419 398ZM327 80T359
103T404 158T418 220Q418 273 381 306T289 340Q238 340 207 317T162 263T149 204Q149 152 185 116T276 80Q327 80 359 103Z" />
<glyph unicode="7" glyph-name="seven" horiz-adv-x="490" d="M518 658L175 0H60L360 565H75L87 658H518Z" />
<glyph unicode="8" glyph-name="eight" horiz-adv-x="550" d="M42 272T85 325T194 402Q140 446 140 502Q140 542 159 579T218 641T316 666Q364 666 403 648T464 597T487 526Q487 480 466 448T402 390Q447 366 478 323T509 221Q509 173 481 120T398 29T264 -8Q200
-8 149 20T70 95T42 198Q42 272 85 325ZM231 474T253 452T309 429Q349 429 370 454T392 509Q392 542 371 563T318 585Q282 585 259 563T233 505Q231 474 253 452ZM141 149T175 112T266 75Q307 75 340 94T393 147T413 220Q413 273 377 310T286 348Q243 348 210 327T159
273T141 203Q141 149 175 112Z" />
<glyph unicode="9" glyph-name="nine" horiz-adv-x="555" d="M377 645T428 617T508 538T534 424Q527 299 434 197T153 -3L97 72Q185 109 253 153T362 243Q318 218 260 218Q212 218 168 241T96 309T68 412Q68 466 96 520T180 609T311 645Q377 645 428 617ZM419
298T435 425Q438 461 423 491T378 540T310 558Q266 558 234 537T186 482T169 415Q169 363 206 331T300 298Q419 298 435 425Z" />
<glyph unicode=":" glyph-name="colon" horiz-adv-x="178" d="M73 344T91 361T133 379Q151 379 164 365T178 330Q178 306 160 289T120 272Q101 272 87 285T73 319Q73 344 91 361ZM39 72T58 89T100 107Q118 107 131 93T145 58Q145 34 127 17T87 0Q68 0 54 13T39
47Q39 72 58 89Z" />
<glyph unicode=";" glyph-name="semicolon" horiz-adv-x="204" d="M103 325T121 342T162 360Q180 360 193 346T207 311Q207 287 189 270T148 253Q129 253 116 266T103 301Q103 325 121 342ZM49 -122H-27L77 88H162L49 -122Z" />
<glyph unicode="&lt;" glyph-name="less" horiz-adv-x="601" d="M68 241L247 338Q443 444 541 496L527 382L266 241Q311 214 401 158L493 101L479 -15L68 241Z" />
<glyph unicode="=" glyph-name="equal" horiz-adv-x="717" d="M662 392L651 310H139L149 392H662ZM638 196L627 114H115L125 196H638Z" />
<glyph unicode="&gt;" glyph-name="greater" horiz-adv-x="591" d="M242 179L357 241L130 382L144 496Q174 478 380 350Q413 329 456 302T555 241L81 -15L95 101L242 179Z" />
<glyph unicode="?" glyph-name="question" horiz-adv-x="447" d="M163 309T185 333T252 385Q288 408 296 414Q384 478 384 558Q384 602 357 630T285 659Q230 659 198 635T143 560Q104 574 73 587Q142 742 295 742Q345 742 385 718T447 654T470 564Q470 503 439
456T348 369L328 356Q289 331 267 308T240 245L230 166H145L157 264Q163 309 185 333ZM147 1T133 14T119 48Q119 72 138 89T179 106Q197 106 210 92T224 58Q224 34 206 18T166 1Q147 1 133 14Z" />
<glyph unicode="@" glyph-name="at" horiz-adv-x="1017" d="M711 645T799 599T933 472T980 292Q980 212 949 143T861 33T735 -9Q691 -9 661 14T621 79Q589 42 541 16T444 -10Q390 -10 347 13T280 80T255 180Q255 249 285 306T371 397T494 431Q606 431 648 342L665
414H754L716 145Q715 139 715 127Q715 77 758 77Q791 77 822 106T873 184T893 292Q893 370 856 433T748 534T579 571Q416 571 315 502T170 338T127 165Q127 62 168 -8T281 -112T449 -146Q560 -146 671 -78L709 -132Q653 -175 580 -197T435 -219Q323 -219 234 -176T94
-48T42 161Q42 272 100 383T282 570T592 645Q711 645 799 599ZM529 67T567 95T623 173L635 255Q629 299 594 326T508 354Q466 354 431 332T376 272T355 192Q355 138 390 103T480 67Q529 67 567 95Z" />
<glyph unicode="A" glyph-name="A" horiz-adv-x="701" d="M478 190H201L100 0H4L412 753H418L642 0H530L478 190ZM455 274L384 533L246 274H455Z" />
<glyph unicode="B" glyph-name="B" horiz-adv-x="614" d="M487 353T520 316T553 218Q553 110 481 55T299 0H77L166 723H352Q454 723 507 686T561 566Q561 499 531 443T435 367Q487 353 520 316ZM227 407H333Q378 407 406 428T447 480T459 539Q459 633 343 633H255L227
407ZM375 90T415 126T455 221Q455 272 416 297T320 322H216L189 90H303Q375 90 415 126Z" />
<glyph unicode="C" glyph-name="C" horiz-adv-x="699" d="M584 18T533 3T424 -13Q335 -13 256 24T128 137T78 325Q78 426 118 518T243 668T459 727Q526 727 583 707T684 655L634 567Q601 595 555 614T456 633Q368 633 305 592T211 482T179 332Q179 259 210 202T298
114T428 82Q476 82 511 94T587 127L618 38Q584 18 533 3Z" />
<glyph unicode="D" glyph-name="D" horiz-adv-x="753" d="M166 723H377Q496 723 571 680T679 565T713 406Q713 393 711 367Q704 255 650 172T509 44T320 0H77L166 723ZM318 94Q403 94 470 129T575 234T614 402Q614 478 582 529T496 605T376 630H251L185 94H318Z" />
<glyph unicode="E" glyph-name="E" horiz-adv-x="653" d="M636 723L625 633H255L227 409H557L546 317H216L189 93H573L561 0H77L166 723H636Z" />
<glyph unicode="F" glyph-name="F" horiz-adv-x="589" d="M594 723L583 631H254L226 400H514L502 307H214L177 0H77L166 723H594Z" />
<glyph unicode="G" glyph-name="G" horiz-adv-x="759" d="M623 22T556 5T430 -11Q350 -10 268 26T131 139T77 329Q80 424 123 515T254 666T470 726Q532 726 593 709T702 660L659 572Q621 598 570 613T472 628Q370 628 304 582T208 468T178 329Q178 248 220 193T326
112T453 85Q519 85 564 106L582 258H438L450 350H693L656 46Q623 22 556 5Z" />
<glyph unicode="H" glyph-name="H" horiz-adv-x="782" d="M649 0H549L589 317H216L177 0H77L166 723H266L227 411H600L638 723H738L649 0Z" />
<glyph unicode="I" glyph-name="I" horiz-adv-x="310" d="M266 723L177 0H77L166 723H266Z" />
<glyph unicode="J" glyph-name="J" horiz-adv-x="368" d="M242 45T201 -17T98 -113T-40 -149L-29 -55Q45 -51 94 -4T155 134L227 723H324L252 131Q242 45 201 -17Z" />
<glyph unicode="K" glyph-name="K" horiz-adv-x="678" d="M220 396L235 415L569 723H694L358 413L623 0H500L279 351L211 292L175 0H77L166 723H264L228 432L220 396Z" />
<glyph unicode="L" glyph-name="L" horiz-adv-x="608" d="M262 723L185 94H553L542 0H77L166 723H262Z" />
<glyph unicode="M" glyph-name="M" horiz-adv-x="929" d="M888 746L796 0H699L757 468L444 91H442L227 454L171 0H77L169 746H170L463 242L886 746H888Z" />
<glyph unicode="N" glyph-name="N" horiz-adv-x="839" d="M795 723L703 -24H700L236 518L174 0H77L168 745H172L636 197L698 723H795Z" />
<glyph unicode="O" glyph-name="O" horiz-adv-x="859" d="M334 -7T255 32T127 150T78 336Q78 429 123 520T258 670T471 730Q562 730 641 691T769 573T818 387Q818 294 773 203T638 53T425 -7Q334 -7 255 32ZM521 87T587 131T685 244T718 382Q718 450 686 508T596
602T467 637Q373 637 308 593T210 480T178 341Q178 273 210 215T299 122T427 87Q521 87 587 131Z" />
<glyph unicode="P" glyph-name="P" horiz-adv-x="584" d="M460 723T522 672T585 526Q585 462 557 403T467 305T313 266H210L177 0H77L166 723H358Q460 723 522 672ZM379 360T415 385T468 445T484 512Q484 559 452 594T356 629H254L221 360H322Q379 360 415 385Z" />
<glyph unicode="Q" glyph-name="Q" horiz-adv-x="942" d="M872 0H546Q512 -7 468 -7Q377 -7 298 32T170 150T121 336Q121 429 166 520T301 670T514 730Q605 730 684 691T812 573T861 387Q861 304 824 221T717 80L883 95L872 0ZM221 273T253 215T341 122T469 87Q563
87 629 131T728 244T761 382Q761 450 729 508T639 602T510 637Q416 637 351 593T253 480T221 341Q221 273 253 215Z" />
<glyph unicode="R" glyph-name="R" horiz-adv-x="660" d="M578 432T542 376T442 291L587 0H474L337 267Q329 266 313 266H207L174 0H77L166 723H358Q462 723 525 673T588 532Q588 521 586 499Q578 432 542 376ZM323 360Q382 360 418 384T471 444T487 512Q487 560
457 595T363 630H251L218 360H323Z" />
<glyph unicode="S" glyph-name="S" horiz-adv-x="565" d="M477 606T432 622T346 638Q282 638 249 607T216 536Q216 496 252 468T356 408Q431 375 473 333T516 214Q516 160 489 109T406 26T270 -7Q199 -7 136 18T24 84L76 158Q111 125 163 103T266 80Q328 80 369
113T414 199Q416 243 383 274T290 332Q235 358 201 379T141 435T115 519Q115 582 145 628T228 700T347 724Q413 721 465 703T563 653L516 581Q477 606 432 622Z" />
<glyph unicode="T" glyph-name="T" horiz-adv-x="582" d="M592 723L580 628H388L311 0H211L288 628H100L112 723H592Z" />
<glyph unicode="U" glyph-name="U" horiz-adv-x="752" d="M207 240T207 232Q207 168 249 127T358 86Q408 86 450 108T518 169T551 256L608 723H708L651 253Q641 175 599 116T492 25T347 -8Q277 -8 223 20T137 99T106 217Q106 229 108 253L166 723H266L209 256Q207
240 207 232Z" />
<glyph unicode="V" glyph-name="V" horiz-adv-x="719" d="M742 723L333 -29H330L104 723H220L364 206L628 723H742Z" />
<glyph unicode="W" glyph-name="W" horiz-adv-x="1008" d="M654 -32L538 400L300 -34L104 720H217L339 195L505 522L452 720H549L686 205L927 720H1031L654 -32Z" />
<glyph unicode="X" glyph-name="X" horiz-adv-x="645" d="M408 366L602 0H477L325 288L118 0H-3L280 373L96 723H219L365 448L562 723H680L408 366Z" />
<glyph unicode="Y" glyph-name="Y" horiz-adv-x="692" d="M728 723L398 241L368 0H271L300 241L92 723H210L365 351L608 723H728Z" />
<glyph unicode="Z" glyph-name="Z" horiz-adv-x="659" d="M188 94H624L612 0H5L503 630H205Q172 630 149 646T130 691L139 759H229L227 746Q226 734 232 729T256 723H689L188 94Z" />
<glyph unicode="[" glyph-name="bracketleft" horiz-adv-x="351" d="M365 756L355 673H244L153 -69H264L254 -151H59L170 756H365Z" />
<glyph unicode="\" glyph-name="backslash" horiz-adv-x="390" d="M374 -19H279L91 746H186L374 -19Z" />
<glyph unicode="]" glyph-name="bracketright" horiz-adv-x="371" d="M332 756L221 -151H26L36 -69H147L237 673H127L137 756H332Z" />
<glyph unicode="^" glyph-name="asciicircum" horiz-adv-x="476" d="M343 508L305 571Q296 559 283 545T258 515L233 486H173L317 668L416 486H357L343 508Z" />
<glyph unicode="_" glyph-name="underscore" horiz-adv-x="608" d="M517 82L507 0H102L112 82H517Z" />
<glyph unicode="`" glyph-name="grave" horiz-adv-x="203" d="M212 486H152L42 620H146L212 486Z" />
<glyph unicode="a" glyph-name="a" horiz-adv-x="590" d="M534 414L484 0H390L398 66Q373 37 328 14T224 -8Q177 -9 136 16T69 87T44 193Q44 250 72 305T152 396T275 431Q387 431 432 345L448 414H534ZM420 251Q414 296 378 325T291 354Q240 354 207 330T157 272T141
204Q141 144 178 106T275 68Q321 68 358 95T411 169L420 251Z" />
<glyph unicode="b" glyph-name="b" horiz-adv-x="595" d="M410 431T454 407T525 337T551 225Q551 164 523 110T440 23T313 -10Q261 -10 222 11T157 69L149 0H55L150 775H243L193 361Q220 393 262 412T355 431Q410 431 454 407ZM355 70T389 93T439 150T455 219Q455
282 420 319T322 357Q274 357 237 331T181 261L170 177Q183 133 213 102T303 70Q355 70 389 93Z" />
<glyph unicode="c" glyph-name="c" horiz-adv-x="461" d="M368 10T331 0T258 -11Q210 -11 161 9T78 75T44 189Q44 248 72 301T152 389T274 423Q377 423 441 361L387 303Q368 321 341 333T280 345Q243 345 210 326T158 272T138 195Q138 140 176 103T274 66Q319
66 357 90L397 28Q368 10 331 0Z" />
<glyph unicode="d" glyph-name="d" horiz-adv-x="595" d="M584 775L488 0H395L402 62Q331 -9 249 -9Q191 -9 145 18T72 91T45 192Q45 253 74 308T158 397T284 431Q333 431 374 412T440 360L491 775H584ZM426 252Q420 298 383 327T292 357Q227 357 184 315T141
206Q141 147 179 109T278 71Q324 71 362 99T417 173L426 252Z" />
<glyph unicode="e" glyph-name="e" horiz-adv-x="522" d="M318 70T364 101L399 29Q368 11 333 1T263 -9Q164 -9 105 46T45 201Q45 257 72 310T154 396T284 430Q365 430 420 385T491 238L152 143Q169 107 201 89T273 70Q318 70 364 101ZM238 356T206 336T156 283T138
211V201L389 272Q378 310 349 333T281 356Q238 356 206 336Z" />
<glyph unicode="f" glyph-name="f" horiz-adv-x="380" d="M128 331H57L68 415H138L159 589Q170 679 217 727T343 775Q365 775 389 769T432 750L383 682Q370 698 344 698Q306 698 283 672T253 588L232 415H363L353 331H221L181 0H88L128 331Z" />
<glyph unicode="g" glyph-name="g" horiz-adv-x="601" d="M546 414L491 -22Q482 -105 417 -155T252 -205Q181 -205 133 -184T42 -118L105 -55Q138 -91 175 -107T260 -123Q320 -123 356 -92T400 -6L409 69Q384 33 342 12T247 -10Q189 -10 144 16T72 90T45 203Q45
251 71 304T150 394T281 431Q338 431 381 410T444 353L461 414H546ZM432 250Q424 296 387 325T297 354Q243 354 208 330T156 270T140 203Q140 142 178 105T278 68Q325 68 365 95T422 168L432 250Z" />
<glyph unicode="h" glyph-name="h" horiz-adv-x="554" d="M419 430T452 400T486 320L485 306L448 0H354L387 276Q390 309 374 329T321 350Q265 350 223 306T173 194L149 0H56L150 775H242L189 343Q217 383 263 406T365 430Q419 430 452 400Z" />
<glyph unicode="i" glyph-name="i" horiz-adv-x="255" d="M200 414L149 0H55L106 414H200ZM114 574T130 590T172 607Q193 607 209 595T226 560Q226 536 209 520T167 503Q145 504 130 516T114 551Q114 574 130 590Z" />
<glyph unicode="j" glyph-name="j" horiz-adv-x="267" d="M53 -99T66 -5L118 414H212L161 0Q142 -150 23 -205L-24 -147Q53 -99 66 -5ZM122 574T138 590T180 607Q201 607 217 595T234 560Q234 536 217 520T175 503Q153 504 138 516T122 551Q122 574 138 590Z" />
<glyph unicode="k" glyph-name="k" horiz-adv-x="499" d="M297 251L440 0H331L227 199L168 156L149 0H56L150 775H244L180 255L412 424L465 374L297 251Z" />
<glyph unicode="l" glyph-name="l" horiz-adv-x="256" d="M244 775L149 0H56L150 775H244Z" />
<glyph unicode="m" glyph-name="m" horiz-adv-x="826" d="M695 431T726 402T758 323Q758 313 757 307L720 0H627L660 273L661 287Q661 345 605 349Q550 349 509 304T459 197L435 0H341L375 273Q380 345 318 349Q282 349 251 328T199 271T173 196L149 0H56L106
414H190L188 340Q219 383 263 407T360 431Q410 431 440 409T475 344Q507 384 550 407T640 431Q695 431 726 402Z" />
<glyph unicode="n" glyph-name="n" horiz-adv-x="554" d="M419 430T452 400T486 321Q486 311 485 306L448 0H354L388 274Q391 309 373 329T317 350Q262 350 222 306T173 194L149 0H56L106 414H190L189 345Q218 384 263 407T363 430Q419 430 452 400Z" />
<glyph unicode="o" glyph-name="o" horiz-adv-x="546" d="M210 -10T159 13T76 83T44 194Q44 250 69 304T148 394T284 430Q341 430 391 406T471 335T502 227Q502 175 479 121T402 28T264 -10Q210 -10 159 13ZM314 68T345 91T392 150T407 222Q407 266 388 295T340
339T280 353Q233 353 202 330T155 271T139 198Q139 155 157 126T205 83T267 68Q314 68 345 91Z" />
<glyph unicode="p" glyph-name="p" horiz-adv-x="585" d="M405 431T449 407T518 341T543 243Q543 175 511 117T420 25T289 -10Q250 -10 213 6T151 48L124 -199H31L108 421H189L187 364Q226 395 269 413T352 431Q405 431 449 407ZM333 69T369 91T427 150T448 229Q448
284 411 320T320 356Q271 356 232 328T175 250L165 175Q172 133 202 101T287 69Q333 69 369 91Z" />
<glyph unicode="q" glyph-name="q" horiz-adv-x="588" d="M533 414L458 -199H364L394 49Q366 24 325 8T234 -9Q185 -9 142 15T71 85T44 189Q44 252 75 307T161 397T280 431Q337 431 375 410T433 352L446 414H533ZM310 66T349 94T409 171L420 246Q413 289 383 321T296
353Q250 353 213 331T155 272T134 193Q134 157 151 128T198 83T262 66Q310 66 349 94Z" />
<glyph unicode="r" glyph-name="r" horiz-adv-x="379" d="M182 314Q211 367 264 398T365 431L349 338Q304 340 265 320T202 265T172 189L149 0H56L106 414H190L182 314Z" />
<glyph unicode="s" glyph-name="s" horiz-adv-x="409" d="M144 -9T99 7T23 65L69 116Q116 59 184 59Q218 59 235 76T252 114Q252 133 240 145T214 163T163 184Q71 221 71 296Q71 326 86 356T134 407T219 428Q257 428 297 417T368 374L324 318Q306 341 281 351T230
362Q200 362 184 346T167 310Q168 288 185 276T224 255T254 243Q299 223 323 198T347 131Q347 98 330 66T277 13T185 -9Q144 -9 99 7Z" />
<glyph unicode="t" glyph-name="t" horiz-adv-x="360" d="M260 596L237 413H351L342 339H228L187 0H94L135 339H59L68 413H144L166 596H260Z" />
<glyph unicode="u" glyph-name="u" horiz-adv-x="547" d="M492 414L441 0H356L360 77Q333 35 287 10T186 -16Q133 -16 101 13T68 92Q68 102 69 107L106 414H200L166 139Q163 105 179 85T232 64Q266 64 297 84T348 141T374 221L398 414H492Z" />
<glyph unicode="v" glyph-name="v" horiz-adv-x="495" d="M498 414L225 -12H221L42 414H153L246 152L394 414H498Z" />
<glyph unicode="w" glyph-name="w" horiz-adv-x="675" d="M679 414L439 -15H433L337 265L184 -14H178L42 414H134L213 170L312 345L289 414H370L451 162L587 414H679Z" />
<glyph unicode="x" glyph-name="x" horiz-adv-x="457" d="M294 213L428 0H315L222 147L101 0H5L183 208L52 414H167L257 271L367 414H463L294 213Z" />
<glyph unicode="y" glyph-name="y" horiz-adv-x="495" d="M513 414L171 -199H77L199 15L57 414H162L258 120L425 414H513Z" />
<glyph unicode="z" glyph-name="z" horiz-adv-x="463" d="M162 77H394L384 0H2L276 337H138Q106 337 87 353T68 401Q68 410 69 414L73 454H144V441Q142 425 148 420T173 414H438L162 77Z" />
<glyph unicode="{" glyph-name="braceleft" horiz-adv-x="343" d="M296 673T284 665T265 636T252 570L236 439Q225 348 154 302Q174 288 189 261T204 193Q204 186 202 166L186 36Q182 7 182 -17Q182 -48 192 -58T227 -69H271L261 -151H197Q157 -151 138 -148T104
-128T90 -71Q90 -55 93 -32L112 123Q114 145 114 158Q114 200 99 229T48 259L58 342Q102 344 125 385T155 479L175 636Q183 695 201 721T241 751T309 756H372L362 673H318Q296 673 284 665Z" />
<glyph unicode="|" glyph-name="bar" horiz-adv-x="288" d="M264 709L148 -235H63L179 709H264Z" />
<glyph unicode="}" glyph-name="braceright" horiz-adv-x="355" d="M105 -69T117 -61T136 -31T149 36L165 167Q172 221 196 253T248 302Q196 342 196 412Q196 419 198 439L214 570Q218 599 218 624Q218 653 209 663T175 673H130L140 756H204Q244 756 263 753T297
733T311 675Q311 659 308 636L289 478Q287 458 287 445Q287 402 302 373T353 342L343 259Q299 258 276 217T245 123L227 -32Q220 -91 202 -116T161 -146T93 -151H29L39 -69H84Q105 -69 117 -61Z" />
<glyph unicode="~" glyph-name="asciitilde" horiz-adv-x="465" d="M281 431T260 445T213 488Q196 507 185 515T158 524Q138 524 124 502T105 442L46 447Q51 511 84 553T169 596Q197 596 217 582T259 541Q278 519 290 510T318 500Q357 500 367 585L425 580Q425
536 410 502T370 450T316 431Q281 431 260 445Z" />
<glyph unicode="&#xa0;" glyph-name="uni00A0" horiz-adv-x="300" />
<glyph unicode="&#xa1;" glyph-name="exclamdown" horiz-adv-x="201" d="M165 550T179 538T194 506Q194 485 178 470T138 455Q131 455 127 456Q109 460 100 472T90 500Q90 504 92 514Q97 531 110 540T142 550Q165 550 179 538ZM12 -200L82 373H166L96 -200H12Z" />
<glyph unicode="&#xa2;" glyph-name="cent" horiz-adv-x="461" d="M397 28Q371 12 338 2T271 -11L264 -68H205L213 -6Q144 7 94 56T44 189Q44 246 70 299T147 386T265 423L272 481H331L323 419Q396 406 441 361L387 303Q359 331 314 341L280 66Q321 67 357 90L397
28ZM138 153T160 121T222 74L255 343Q206 333 172 292T138 195Q138 153 160 121Z" />
<glyph unicode="&#xa3;" glyph-name="sterling" horiz-adv-x="578" d="M482 180H566L559 115Q551 61 518 31T411 0H20L31 94H76Q98 94 110 101T129 130T141 195L153 290H87L99 384H164L183 538Q189 585 219 621T300 678T412 699Q481 699 526 673T590 597L514 549Q498
576 474 591T402 606Q342 606 312 580T276 504L261 384H400L388 290H249L238 198L236 178Q224 115 206 94H402Q439 94 456 104T476 138L482 180Z" />
<glyph unicode="&#xa4;" glyph-name="currency" horiz-adv-x="505" d="M430 408T430 374Q430 365 429 360Q426 313 392 272L418 240L373 202Q372 203 345 233Q305 212 265 212Q217 212 182 239L148 209L111 252L145 282Q128 310 128 347Q128 357 129 362Q132 408
164 448L140 478L185 516L210 487Q256 510 293 510Q316 510 337 502T376 480L409 508L445 465L414 438Q430 408 430 374ZM187 317T210 293T270 268Q310 268 341 297T372 368Q372 404 348 429T288 454Q248 454 218 424T187 352Q187 317 210 293Z" />
<glyph unicode="&#xa5;" glyph-name="yen" horiz-adv-x="692" d="M408 301H541L532 225H396L387 154H530L521 77H378L368 0H271L280 77H155L164 154H290L298 225H165L174 301H305L92 723H210L371 403L608 723H728L408 301Z" />
<glyph unicode="&#xa6;" glyph-name="brokenbar" horiz-adv-x="218" d="M242 709L198 355H114L157 709H242ZM169 119L126 -236H41L85 119H169Z" />
<glyph unicode="&#xa7;" glyph-name="section" horiz-adv-x="573" d="M444 441T489 407T534 309Q534 253 501 208T410 143Q475 106 475 31Q475 -24 445 -70T363 -144T249 -171Q180 -171 118 -146T15 -82L73 -5Q113 -42 157 -62T247 -83Q299 -83 335 -58T372 13Q372
49 340 69T248 109Q172 135 125 171T78 270Q78 333 114 373T206 426Q135 472 135 549Q135 594 159 636T231 704T344 731Q403 731 456 711T549 656L499 586Q438 640 365 646Q305 649 272 625T238 566Q238 531 270 510T367 467Q444 441 489 407ZM437 320T402 345T316
383Q309 384 297 384Q243 384 209 358T175 294Q175 256 208 232T302 186Q332 187 363 198T416 232T437 285Q437 320 402 345Z" />
<glyph unicode="&#xa8;" glyph-name="dieresis" horiz-adv-x="375" d="M85 552T102 568T141 584Q160 584 174 570T189 533Q189 509 171 493T132 478Q113 479 99 493T85 528Q85 552 102 568ZM271 552T288 568T327 584Q346 584 360 569T375 533Q375 509 357 493T318
478Q299 479 285 493T271 528Q271 552 288 568Z" />
<glyph unicode="&#xa9;" glyph-name="copyright" horiz-adv-x="849" d="M331 -2T257 39T141 153T99 314Q99 341 101 355Q112 446 163 518T293 630T460 671Q551 671 624 630T740 517T782 356Q782 336 779 313Q768 223 718 152T589 39T422 -2Q331 -2 257 39ZM495
75T553 106T650 193T697 318Q699 330 699 354Q699 422 667 477T579 563T452 595Q385 595 326 564T229 476T182 350Q180 337 180 313Q180 245 210 191T297 106T427 75Q495 75 553 106ZM540 174T506 161T433 147Q383 147 344 170T283 234T261 322Q261 338 262 346Q272
426 326 476T460 526Q493 526 530 516T587 485L541 415Q513 444 465 444Q421 444 390 409T358 326Q358 286 384 259T453 231Q498 231 531 260L566 194Q540 174 506 161Z" />
<glyph unicode="&#xaa;" glyph-name="ordfeminine" horiz-adv-x="400" d="M400 715L365 428H293L299 476Q283 455 255 439T191 422Q139 422 107 454T75 545Q75 598 96 638T153 701T226 724Q299 724 323 667L333 715H400ZM315 600Q311 629 291 647T242 666Q204
666 177 636T149 560Q149 526 169 504T220 481Q251 481 275 500T308 551L315 600Z" />
<glyph unicode="&#xab;" glyph-name="guillemotleft" horiz-adv-x="609" d="M174 264T257 347Q339 427 344 431L333 335Q322 325 282 283Q256 254 243 242Q248 236 258 221T276 196Q302 158 309 149L298 53L148 242Q174 264 257 347ZM333 252T420 337Q506 421
518 431L506 335Q495 325 456 284Q419 245 416 242Q420 237 450 196Q476 158 483 149L471 53L321 242Q333 252 420 337Z" />
<glyph unicode="&#xac;" glyph-name="logicalnot" horiz-adv-x="501" d="M453 297L430 112H333L344 203H76L89 297H453Z" />
<glyph unicode="&#xad;" glyph-name="uni00AD" horiz-adv-x="600" d="M272 256L262 174H76L86 256H272Z" />
<glyph unicode="&#xae;" glyph-name="registered" horiz-adv-x="487" d="M351 721T396 696T468 626T494 527Q494 462 461 410T373 329T255 303Q202 306 160 332T93 402T68 497Q68 561 99 612T183 692T295 721Q351 721 396 696ZM437 587T396 628T290 669Q245 669
208 647T148 587T125 499Q125 437 166 397T272 356Q317 356 354 378T414 439T437 525Q437 587 396 628ZM334 624T352 607T370 560Q370 534 359 515T325 487L352 411L294 412L273 483H254L245 413H193L220 626L302 624Q334 624 352 607ZM260 524L280 523Q314 522
314 554Q314 565 307 572T288 581L267 582L260 524Z" />
<glyph unicode="&#xaf;" glyph-name="overscore" horiz-adv-x="405" d="M385 538L379 484H146L152 538H385Z" />
<glyph unicode="&#xb0;" glyph-name="degree" horiz-adv-x="285" d="M62 605T95 637T174 669Q213 669 239 642T266 575Q266 530 234 498T158 466Q116 466 89 493T62 560Q62 605 95 637ZM183 518T199 533T215 569Q215 589 202 602T169 616Q148 616 132 600T116
562Q116 543 128 531T161 518Q183 518 199 533Z" />
<glyph unicode="&#xb1;" glyph-name="plusminus" horiz-adv-x="531" d="M383 578L366 437H505L496 355H356L338 214H253L271 355H131L141 437H280L298 578H383ZM473 171L463 89H98L108 171H473Z" />
<glyph unicode="&#xb2;" glyph-name="uni00B2" horiz-adv-x="404" d="M379 533T340 484T234 384H370L360 306H88L95 357Q172 408 222 453T278 544Q279 550 279 560Q279 616 224 616Q201 616 178 604T142 575L121 636Q141 662 179 678T258 695Q314 693 346 666T379
589Q379 533 340 484Z" />
<glyph unicode="&#xb3;" glyph-name="uni00B3" horiz-adv-x="390" d="M282 542T309 513T336 445L335 434Q327 377 283 340T176 303Q139 303 114 317T72 350L106 404Q137 361 173 365Q205 367 225 386T250 436Q254 467 236 485T187 504Q163 504 139 494L135 503L227
620H118L127 688H348L249 548Q282 542 309 513Z" />
<glyph unicode="&#xb4;" glyph-name="acute" horiz-adv-x="278" d="M183 486H123L212 620H315L183 486Z" />
<glyph unicode="&#xb5;" glyph-name="uni00B5" horiz-adv-x="547" d="M492 414L441 0H356L360 85Q335 40 289 12T186 -16Q159 -16 134 -6L110 -201H32L69 110L106 414H200L166 141Q164 106 180 86T232 64Q266 64 297 84T348 141T374 221L398 414H492Z" />
<glyph unicode="&#xb6;" glyph-name="paragraph" horiz-adv-x="554" d="M214 428T181 448T130 502T111 577Q111 626 136 668T205 735T297 760H546L453 0H369L453 678H371L288 0H204L256 428Q214 428 181 448Z" />
<glyph unicode="&#xb7;" glyph-name="middot" horiz-adv-x="213" d="M74 305T92 322T134 340Q152 340 165 326T179 291Q179 267 161 250T121 233Q102 233 88 246T74 280Q74 305 92 322Z" />
<glyph unicode="&#xb8;" glyph-name="cedilla" horiz-adv-x="458" d="M264 -48T294 -70T324 -130Q324 -179 285 -204T187 -230Q111 -230 74 -186L108 -148Q117 -161 133 -169T171 -179Q201 -180 222 -168T244 -131Q244 -89 178 -89Q151 -89 119 -97L108 -50L179
4L250 1L204 -46H213Q264 -48 294 -70Z" />
<glyph unicode="&#xb9;" glyph-name="uni00B9" horiz-adv-x="272" d="M249 669L205 297H117L152 585H93L102 669H249Z" />
<glyph unicode="&#xba;" glyph-name="ordmasculine" horiz-adv-x="378" d="M77 604T98 641T157 700T241 722Q308 722 349 682T390 580Q390 535 369 499T311 441T227 420Q160 420 119 457T77 557Q77 604 98 641ZM147 537T169 510T227 483Q264 483 290 511T317 577Q317
612 295 635T239 659Q206 659 181 635T151 575Q147 537 169 510Z" />
<glyph unicode="&#xbb;" glyph-name="guillemotright" horiz-adv-x="609" d="M113 53L101 149Q109 158 135 196L168 242Q165 245 128 284Q89 325 78 335L66 431Q70 428 165 337Q245 257 263 242L113 53ZM286 53L275 149Q281 156 292 172T308 196L341 242Q328 254
302 283Q262 325 251 335L240 431Q245 427 327 347Q410 264 436 242L286 53Z" />
<glyph unicode="&#xbc;" glyph-name="onequarter" horiz-adv-x="871" d="M249 669L205 297H117L152 585H93L102 669H249ZM489 383Q458 318 301 0H215Q291 153 441 459Q492 561 592 765H677L489 383ZM811 105H766L754 6H673L685 105H513L515 130L744 386H801L773
159H817L811 105ZM692 159L705 263L612 159H692Z" />
<glyph unicode="&#xbd;" glyph-name="onehalf" horiz-adv-x="882" d="M265 669L221 297H133L168 585H109L118 669H265ZM458 383Q427 318 270 0H184Q260 153 410 459Q461 561 561 765H646L458 383ZM791 226T752 177T646 77H782L772 -1H500L507 50Q584 101 634 146T690
237Q691 243 691 253Q691 309 636 309Q613 309 590 297T554 268L533 329Q553 355 591 371T670 388Q726 386 758 359T791 282Q791 226 752 177Z" />
<glyph unicode="&#xbe;" glyph-name="threequarters" horiz-adv-x="884" d="M533 542T560 513T587 445L586 434Q578 377 534 340T427 303Q390 303 365 317T323 350L357 404Q388 361 424 365Q456 367 476 386T501 436Q505 467 487 485T438 504Q414 504 390 494L386
503L478 620H369L378 688H599L500 548Q533 542 560 513ZM508 383Q477 318 320 0H234Q310 153 460 459Q511 561 611 765H696L508 383ZM824 99H779L767 0H686L698 99H526L528 124L757 380H814L786 153H830L824 99ZM705 153L718 257L625 153H705Z" />
<glyph unicode="&#xbf;" glyph-name="questiondown" horiz-adv-x="432" d="M325 538T339 525T353 491Q353 467 334 450T293 433Q275 433 262 447T248 481Q248 505 266 521T306 538Q325 538 339 525ZM309 230T287 206T220 154Q184 131 176 125Q88 61 88 -19Q88
-63 115 -91T187 -120Q242 -120 274 -96T329 -21Q369 -35 399 -48Q330 -203 177 -203Q127 -203 87 -179T25 -115T2 -25Q2 36 33 83T124 170L144 183Q183 208 205 231T232 294L242 373H327L315 275Q309 230 287 206Z" />
<glyph unicode="&#xc0;" glyph-name="Agrave" horiz-adv-x="701" d="M478 190H201L100 0H4L412 753H418L642 0H530L478 190ZM455 274L384 533L246 274H455ZM453 810H393L283 944H387L453 810Z" />
<glyph unicode="&#xc1;" glyph-name="Aacute" horiz-adv-x="701" d="M478 190H201L100 0H4L412 753H418L642 0H530L478 190ZM455 274L384 533L246 274H455ZM458 784H398L487 918H590L458 784Z" />
<glyph unicode="&#xc2;" glyph-name="Acircumflex" horiz-adv-x="701" d="M478 190H201L100 0H4L412 753H418L642 0H530L478 190ZM455 274L384 533L246 274H455ZM501 810L434 903L347 810H262L445 992L587 810H501Z" />
<glyph unicode="&#xc3;" glyph-name="Atilde" horiz-adv-x="701" d="M478 190H201L100 0H4L412 753H418L642 0H530L478 190ZM455 274L384 533L246 274H455ZM470 775T449 789T402 832Q385 851 374 859T347 868Q327 868 313 846T294 786L235 791Q240 855 273 897T358
940Q386 940 406 926T448 885Q467 863 479 854T507 844Q546 844 556 929L614 924Q614 880 599 846T559 794T505 775Q470 775 449 789Z" />
<glyph unicode="&#xc4;" glyph-name="Adieresis" horiz-adv-x="701" d="M478 190H201L100 0H4L412 753H418L642 0H530L478 190ZM455 274L384 533L246 274H455ZM286 876T303 892T342 908Q361 908 375 894T390 857Q390 833 372 817T333 802Q314 803 300 817T286
852Q286 876 303 892ZM472 876T489 892T528 908Q547 908 561 893T576 857Q576 833 558 817T519 802Q500 803 486 817T472 852Q472 876 489 892Z" />
<glyph unicode="&#xc5;" glyph-name="Aring" horiz-adv-x="701" d="M478 190H201L100 0H4L412 753H418L642 0H530L478 190ZM455 274L384 533L246 274H455ZM340 891T368 917T438 944Q478 944 502 921T527 861Q527 818 499 792T429 765Q390 765 365 788T340 848Q340
891 368 917ZM391 833T401 822T430 809Q450 809 463 822T477 857Q477 876 466 887T437 898Q418 898 405 886T391 852Q391 833 401 822Z" />
<glyph unicode="&#xc6;" glyph-name="AE" horiz-adv-x="953" d="M626 629L598 409H856L845 315H587L560 94H872L861 0H452L474 179H232L99 0H-13L540 723H935L924 629H626ZM483 256L521 569L289 256H483Z" />
<glyph unicode="&#xc7;" glyph-name="Ccedilla" horiz-adv-x="699" d="M368 633T305 592T211 482T179 332Q179 259 210 202T298 114T428 82Q476 82 511 94T587 127L618 38Q590 22 549 8T460 -11L424 -48H433Q484 -50 514 -72T544 -132Q544 -181 505 -206T407 -232Q331
-232 294 -188L328 -150Q337 -163 353 -171T391 -181Q421 -182 442 -170T464 -133Q464 -91 398 -91Q371 -91 339 -99L328 -52L382 -11Q300 -3 231 37T120 149T78 325Q78 426 118 518T243 668T459 727Q526 727 583 707T684 655L634 567Q601 595 555 614T456 633Q368
633 305 592Z" />
<glyph unicode="&#xc8;" glyph-name="Egrave" horiz-adv-x="653" d="M636 723L625 633H255L227 409H557L546 317H216L189 93H573L561 0H77L166 723H636ZM428 791H368L258 925H362L428 791Z" />
<glyph unicode="&#xc9;" glyph-name="Eacute" horiz-adv-x="653" d="M636 723L625 633H255L227 409H557L546 317H216L189 93H573L561 0H77L166 723H636ZM433 765H373L462 899H565L433 765Z" />
<glyph unicode="&#xca;" glyph-name="Ecircumflex" horiz-adv-x="653" d="M636 723L625 633H255L227 409H557L546 317H216L189 93H573L561 0H77L166 723H636ZM476 791L409 884L322 791H237L420 973L562 791H476Z" />
<glyph unicode="&#xcb;" glyph-name="Edieresis" horiz-adv-x="653" d="M636 723L625 633H255L227 409H557L546 317H216L189 93H573L561 0H77L166 723H636ZM261 857T278 873T317 889Q336 889 350 875T365 838Q365 814 347 798T308 783Q289 784 275 798T261 833Q261
857 278 873ZM447 857T464 873T503 889Q522 889 536 874T551 838Q551 814 533 798T494 783Q475 784 461 798T447 833Q447 857 464 873Z" />
<glyph unicode="&#xcc;" glyph-name="Igrave" horiz-adv-x="310" d="M266 723L177 0H77L166 723H266ZM252 791H192L82 925H186L252 791Z" />
<glyph unicode="&#xcd;" glyph-name="Iacute" horiz-adv-x="310" d="M266 723L177 0H77L166 723H266ZM257 765H197L286 899H389L257 765Z" />
<glyph unicode="&#xce;" glyph-name="Icircumflex" horiz-adv-x="310" d="M266 723L177 0H77L166 723H266ZM300 791L233 884L146 791H61L244 973L386 791H300Z" />
<glyph unicode="&#xcf;" glyph-name="Idieresis" horiz-adv-x="310" d="M266 723L177 0H77L166 723H266ZM84 857T101 873T140 889Q159 889 173 875T188 838Q188 814 170 798T131 783Q112 784 98 798T84 833Q84 857 101 873ZM270 857T287 873T326 889Q345 889 359
874T374 838Q374 814 356 798T317 783Q298 784 284 798T270 833Q270 857 287 873Z" />
<glyph unicode="&#xd0;" glyph-name="Eth" horiz-adv-x="753" d="M496 723T571 680T679 565T713 406Q713 393 711 367Q704 255 650 172T509 44T320 0H77L114 304H35L47 398H126L166 723H377Q496 723 571 680ZM614 478T582 529T496 605T376 630H251L222 398H306L294
304H211L185 94H318Q403 94 470 129T575 234T614 402Q614 478 582 529Z" />
<glyph unicode="&#xd1;" glyph-name="Ntilde" horiz-adv-x="839" d="M795 723L703 -24H700L236 518L174 0H77L168 745H172L636 197L698 723H795ZM527 737T506 751T459 794Q442 813 431 821T404 830Q384 830 370 808T351 748L292 753Q297 817 330 859T415 902Q443
902 463 888T505 847Q524 825 536 816T564 806Q603 806 613 891L671 886Q671 842 656 808T616 756T562 737Q527 737 506 751Z" />
<glyph unicode="&#xd2;" glyph-name="Ograve" horiz-adv-x="859" d="M334 -7T255 32T127 150T78 336Q78 429 123 520T258 670T471 730Q562 730 641 691T769 573T818 387Q818 294 773 203T638 53T425 -7Q334 -7 255 32ZM521 87T587 131T685 244T718 382Q718 450
686 508T596 602T467 637Q373 637 308 593T210 480T178 341Q178 273 210 215T299 122T427 87Q521 87 587 131ZM514 791H454L344 925H448L514 791Z" />
<glyph unicode="&#xd3;" glyph-name="Oacute" horiz-adv-x="859" d="M334 -7T255 32T127 150T78 336Q78 429 123 520T258 670T471 730Q562 730 641 691T769 573T818 387Q818 294 773 203T638 53T425 -7Q334 -7 255 32ZM521 87T587 131T685 244T718 382Q718 450
686 508T596 602T467 637Q373 637 308 593T210 480T178 341Q178 273 210 215T299 122T427 87Q521 87 587 131ZM519 765H459L548 899H651L519 765Z" />
<glyph unicode="&#xd4;" glyph-name="Ocircumflex" horiz-adv-x="859" d="M334 -7T255 32T127 150T78 336Q78 429 123 520T258 670T471 730Q562 730 641 691T769 573T818 387Q818 294 773 203T638 53T425 -7Q334 -7 255 32ZM521 87T587 131T685 244T718 382Q718
450 686 508T596 602T467 637Q373 637 308 593T210 480T178 341Q178 273 210 215T299 122T427 87Q521 87 587 131ZM562 791L495 884L408 791H323L506 973L648 791H562Z" />
<glyph unicode="&#xd5;" glyph-name="Otilde" horiz-adv-x="859" d="M334 -7T255 32T127 150T78 336Q78 429 123 520T258 670T471 730Q562 730 641 691T769 573T818 387Q818 294 773 203T638 53T425 -7Q334 -7 255 32ZM521 87T587 131T685 244T718 382Q718 450
686 508T596 602T467 637Q373 637 308 593T210 480T178 341Q178 273 210 215T299 122T427 87Q521 87 587 131ZM531 756T510 770T463 813Q446 832 435 840T408 849Q388 849 374 827T355 767L296 772Q301 836 334 878T419 921Q447 921 467 907T509 866Q528 844 540
835T568 825Q607 825 617 910L675 905Q675 861 660 827T620 775T566 756Q531 756 510 770Z" />
<glyph unicode="&#xd6;" glyph-name="Odieresis" horiz-adv-x="859" d="M334 -7T255 32T127 150T78 336Q78 429 123 520T258 670T471 730Q562 730 641 691T769 573T818 387Q818 294 773 203T638 53T425 -7Q334 -7 255 32ZM521 87T587 131T685 244T718 382Q718
450 686 508T596 602T467 637Q373 637 308 593T210 480T178 341Q178 273 210 215T299 122T427 87Q521 87 587 131ZM347 857T364 873T403 889Q422 889 436 875T451 838Q451 814 433 798T394 783Q375 784 361 798T347 833Q347 857 364 873ZM533 857T550 873T589 889Q608
889 622 874T637 838Q637 814 619 798T580 783Q561 784 547 798T533 833Q533 857 550 873Z" />
<glyph unicode="&#xd7;" glyph-name="multiply" horiz-adv-x="518" d="M336 266Q414 335 414 335Q416 333 448 295L475 263L455 245Q400 198 370 169Q388 151 424 108L454 73L371 0L307 72L286 95L182 2Q159 26 119 72L225 167L140 264L221 338L307 240L336 266Z" />
<glyph unicode="&#xd8;" glyph-name="Oslash" horiz-adv-x="850" d="M750 601Q818 514 818 387Q818 294 773 203T638 53T425 -7Q369 -7 315 9T217 55L149 -15L106 28L170 94Q126 138 102 199T78 336Q78 429 123 520T258 670T471 730Q537 730 599 708T708 645L792
731L834 687L750 601ZM178 292T195 248T243 168L636 571Q603 602 560 619T467 637Q373 637 308 593T210 480T178 341Q178 292 195 248ZM718 461T676 525L289 128Q349 87 427 87Q521 87 587 131T685 244T718 382Q718 461 676 525Z" />
<glyph unicode="&#xd9;" glyph-name="Ugrave" horiz-adv-x="752" d="M207 240T207 232Q207 168 249 127T358 86Q408 86 450 108T518 169T551 256L608 723H708L651 253Q641 175 599 116T492 25T347 -8Q277 -8 223 20T137 99T106 217Q106 229 108 253L166 723H266L209
256Q207 240 207 232ZM477 791H417L307 925H411L477 791Z" />
<glyph unicode="&#xda;" glyph-name="Uacute" horiz-adv-x="752" d="M207 240T207 232Q207 168 249 127T358 86Q408 86 450 108T518 169T551 256L608 723H708L651 253Q641 175 599 116T492 25T347 -8Q277 -8 223 20T137 99T106 217Q106 229 108 253L166 723H266L209
256Q207 240 207 232ZM482 765H422L511 899H614L482 765Z" />
<glyph unicode="&#xdb;" glyph-name="Ucircumflex" horiz-adv-x="752" d="M207 240T207 232Q207 168 249 127T358 86Q408 86 450 108T518 169T551 256L608 723H708L651 253Q641 175 599 116T492 25T347 -8Q277 -8 223 20T137 99T106 217Q106 229 108 253L166 723H266L209
256Q207 240 207 232ZM525 791L458 884L371 791H286L469 973L611 791H525Z" />
<glyph unicode="&#xdc;" glyph-name="Udieresis" horiz-adv-x="752" d="M207 240T207 232Q207 168 249 127T358 86Q408 86 450 108T518 169T551 256L608 723H708L651 253Q641 175 599 116T492 25T347 -8Q277 -8 223 20T137 99T106 217Q106 229 108 253L166 723H266L209
256Q207 240 207 232ZM310 857T327 873T366 889Q385 889 399 875T414 838Q414 814 396 798T357 783Q338 784 324 798T310 833Q310 857 327 873ZM496 857T513 873T552 889Q571 889 585 874T600 838Q600 814 582 798T543 783Q524 784 510 798T496 833Q496 857 513
873Z" />
<glyph unicode="&#xdd;" glyph-name="Yacute" horiz-adv-x="692" d="M728 723L398 241L368 0H271L300 241L92 723H210L365 351L608 723H728ZM446 769H386L475 903H578L446 769Z" />
<glyph unicode="&#xde;" glyph-name="Thorn" horiz-adv-x="584" d="M443 586T506 534T569 389Q569 325 540 266T450 168T297 129H193L177 0H77L164 709H264L249 586H342Q443 586 506 534ZM362 223T398 248T451 309T467 376Q467 422 435 457T339 493H237L204 223H305Q362
223 398 248Z" />
<glyph unicode="&#xdf;" glyph-name="germandbls" horiz-adv-x="604" d="M309 -6T274 5T219 37L259 95Q275 81 297 74T337 66Q375 66 403 92T445 156T459 228Q459 281 430 314T351 350L346 351L356 433Q387 431 407 443T437 475T446 513Q446 548 425 569T362 590Q306
590 275 547T231 423L161 0H67L123 343H58L73 420H138L145 471Q159 567 221 617T379 667Q457 665 499 626T542 522Q542 480 522 446T452 393Q500 372 526 330T553 224Q553 167 531 115T461 28T346 -6Q309 -6 274 5Z" />
<glyph unicode="&#xe0;" glyph-name="agrave" horiz-adv-x="590" d="M534 414L484 0H390L398 66Q373 37 328 14T224 -8Q177 -9 136 16T69 87T44 193Q44 250 72 305T152 396T275 431Q387 431 432 345L448 414H534ZM420 251Q414 296 378 325T291 354Q240 354 207
330T157 272T141 204Q141 144 178 106T275 68Q321 68 358 95T411 169L420 251ZM361 507H301L191 641H295L361 507Z" />
<glyph unicode="&#xe1;" glyph-name="aacute" horiz-adv-x="590" d="M534 414L484 0H390L398 66Q373 37 328 14T224 -8Q177 -9 136 16T69 87T44 193Q44 250 72 305T152 396T275 431Q387 431 432 345L448 414H534ZM420 251Q414 296 378 325T291 354Q240 354 207
330T157 272T141 204Q141 144 178 106T275 68Q321 68 358 95T411 169L420 251ZM366 480H306L395 614H498L366 480Z" />
<glyph unicode="&#xe2;" glyph-name="acircumflex" horiz-adv-x="590" d="M534 414L484 0H390L398 66Q373 37 328 14T224 -8Q177 -9 136 16T69 87T44 193Q44 250 72 305T152 396T275 431Q387 431 432 345L448 414H534ZM420 251Q414 296 378 325T291 354Q240 354
207 330T157 272T141 204Q141 144 178 106T275 68Q321 68 358 95T411 169L420 251ZM409 507L342 600L255 507H170L353 689L495 507H409Z" />
<glyph unicode="&#xe3;" glyph-name="atilde" horiz-adv-x="590" d="M534 414L484 0H390L398 66Q373 37 328 14T224 -8Q177 -9 136 16T69 87T44 193Q44 250 72 305T152 396T275 431Q387 431 432 345L448 414H534ZM420 251Q414 296 378 325T291 354Q240 354 207
330T157 272T141 204Q141 144 178 106T275 68Q321 68 358 95T411 169L420 251ZM378 472T357 486T310 529Q293 548 282 556T255 565Q235 565 221 543T202 483L143 488Q148 552 181 594T266 637Q294 637 314 623T356 582Q375 560 387 551T415 541Q454 541 464 626L522
621Q522 577 507 543T467 491T413 472Q378 472 357 486Z" />
<glyph unicode="&#xe4;" glyph-name="adieresis" horiz-adv-x="590" d="M534 414L484 0H390L398 66Q373 37 328 14T224 -8Q177 -9 136 16T69 87T44 193Q44 250 72 305T152 396T275 431Q387 431 432 345L448 414H534ZM420 251Q414 296 378 325T291 354Q240 354
207 330T157 272T141 204Q141 144 178 106T275 68Q321 68 358 95T411 169L420 251ZM194 573T211 589T250 605Q269 605 283 591T298 554Q298 530 280 514T241 499Q222 500 208 514T194 549Q194 573 211 589ZM380 573T397 589T436 605Q455 605 469 590T484 554Q484
530 466 514T427 499Q408 500 394 514T380 549Q380 573 397 589Z" />
<glyph unicode="&#xe5;" glyph-name="aring" horiz-adv-x="590" d="M534 414L484 0H390L398 66Q373 37 328 14T224 -8Q177 -9 136 16T69 87T44 193Q44 250 72 305T152 396T275 431Q387 431 432 345L448 414H534ZM420 251Q414 296 378 325T291 354Q240 354 207
330T157 272T141 204Q141 144 178 106T275 68Q321 68 358 95T411 169L420 251ZM248 588T276 614T346 641Q386 641 410 618T435 558Q435 515 407 489T337 462Q298 462 273 485T248 545Q248 588 276 614ZM299 530T309 519T338 506Q358 506 371 519T385 554Q385 573
374 584T345 595Q326 595 313 583T299 549Q299 530 309 519Z" />
<glyph unicode="&#xe6;" glyph-name="ae" horiz-adv-x="806" d="M603 70T649 100L684 29Q616 -10 547 -10Q500 -10 450 9T369 69L367 54Q336 21 292 5T198 -11Q130 -11 82 22T34 113Q34 146 51 176T107 226T204 246Q275 246 324 217L330 258Q331 264 331 275Q331
320 304 336T239 353Q172 353 113 296L73 358Q154 430 257 430Q299 430 341 415T406 365Q440 396 483 413T575 430Q651 430 708 385T775 238L427 166Q439 120 476 95T554 70Q603 70 649 100ZM509 356T471 319T425 223V221L674 275Q661 314 632 335T562 356Q509
356 471 319ZM327 215L331 213V217L327 215ZM253 55T281 67T329 98L334 137Q284 180 221 180Q178 180 157 160T138 113Q139 83 163 69T224 55Q253 55 281 67Z" />
<glyph unicode="&#xe7;" glyph-name="ccedilla" horiz-adv-x="436" d="M338 -9T264 -10Q262 -28 268 -37T284 -52T299 -62Q329 -86 329 -129Q329 -180 296 -217T208 -254Q173 -254 147 -235T112 -177L162 -153Q164 -170 177 -180T209 -191Q235 -191 251 -173T267
-128Q267 -113 260 -104T240 -84Q223 -70 215 -58T210 -22L212 -5Q147 11 106 64T65 186Q65 250 99 305T191 392T313 425Q390 425 448 377L390 318Q357 348 304 348Q260 348 223 328T165 272T144 193Q144 140 179 104T269 68Q322 68 363 98Q369 90 374 83T384 69Q390
59 404 39Q338 -9 264 -10Z" />
<glyph unicode="&#xe8;" glyph-name="egrave" horiz-adv-x="522" d="M318 70T364 101L399 29Q368 11 333 1T263 -9Q164 -9 105 46T45 201Q45 257 72 310T154 396T284 430Q365 430 420 385T491 238L152 143Q169 107 201 89T273 70Q318 70 364 101ZM238 356T206
336T156 283T138 211V201L389 272Q378 310 349 333T281 356Q238 356 206 336ZM322 514H262L152 648H256L322 514Z" />
<glyph unicode="&#xe9;" glyph-name="eacute" horiz-adv-x="442" d="M318 70T364 101L399 29Q368 11 333 1T263 -9Q164 -9 105 46T45 201Q45 257 72 310T154 396T284 430Q365 430 420 385T491 238L152 143Q169 107 201 89T273 70Q318 70 364 101ZM238 356T206
336T156 283T138 211V201L389 272Q378 310 349 333T281 356Q238 356 206 336ZM285 486H225L314 620H417L285 486Z" />
<glyph unicode="&#xea;" glyph-name="ecircumflex" horiz-adv-x="522" d="M318 70T364 101L399 29Q368 11 333 1T263 -9Q164 -9 105 46T45 201Q45 257 72 310T154 396T284 430Q365 430 420 385T491 238L152 143Q169 107 201 89T273 70Q318 70 364 101ZM238 356T206
336T156 283T138 211V201L389 272Q378 310 349 333T281 356Q238 356 206 336ZM370 514L303 607L216 514H131L314 696L456 514H370Z" />
<glyph unicode="&#xeb;" glyph-name="edieresis" horiz-adv-x="522" d="M318 70T364 101L399 29Q368 11 333 1T263 -9Q164 -9 105 46T45 201Q45 257 72 310T154 396T284 430Q365 430 420 385T491 238L152 143Q169 107 201 89T273 70Q318 70 364 101ZM238 356T206
336T156 283T138 211V201L389 272Q378 310 349 333T281 356Q238 356 206 336ZM155 580T172 596T211 612Q230 612 244 598T259 561Q259 537 241 521T202 506Q183 507 169 521T155 556Q155 580 172 596ZM341 580T358 596T397 612Q416 612 430 597T445 561Q445 537
427 521T388 506Q369 507 355 521T341 556Q341 580 358 596Z" />
<glyph unicode="&#xec;" glyph-name="igrave" horiz-adv-x="255" d="M200 414L149 0H55L106 414H200ZM445 486H385L275 620H379L445 486Z" />
<glyph unicode="&#xed;" glyph-name="iacute" horiz-adv-x="255" d="M200 414L149 0H55L106 414H200ZM195 715H135L224 849H327L195 715Z" />
<glyph unicode="&#xee;" glyph-name="icircumflex" horiz-adv-x="255" d="M200 414L149 0H55L106 414H200ZM494 486L427 579L340 486H255L438 668L580 486H494Z" />
<glyph unicode="&#xef;" glyph-name="idieresis" horiz-adv-x="255" d="M200 414L149 0H55L106 414H200ZM278 552T295 568T334 584Q353 584 367 570T382 533Q382 509 364 493T325 478Q306 479 292 493T278 528Q278 552 295 568ZM464 552T481 568T520 584Q539 584
553 569T568 533Q568 509 550 493T511 478Q492 479 478 493T464 528Q464 552 481 568Z" />
<glyph unicode="&#xf0;" glyph-name="eth" horiz-adv-x="546" d="M456 546T482 460T509 292Q509 215 481 146T396 34T254 -9Q210 -9 162 10T80 78T46 207Q46 263 71 315T145 399T262 432Q304 432 342 413T406 358Q392 476 321 580L227 531L203 595L279 635Q253
666 206 711L282 768Q330 726 366 680L458 728L480 664L406 625Q456 546 482 460ZM405 273T382 302T330 342T277 353Q231 353 199 330T152 271T137 200Q137 155 156 126T204 83T262 68Q309 68 341 92T389 153T405 224Q405 273 382 302Z" />
<glyph unicode="&#xf1;" glyph-name="ntilde" horiz-adv-x="554" d="M419 430T452 400T486 321Q486 311 485 306L448 0H354L388 274Q391 309 373 329T317 350Q262 350 222 306T173 194L149 0H56L106 414H190L189 345Q218 384 263 407T363 430Q419 430 452 400ZM363
491T342 505T295 548Q278 567 267 575T240 584Q220 584 206 562T187 502L128 507Q133 571 166 613T251 656Q279 656 299 642T341 601Q360 579 372 570T400 560Q439 560 449 645L507 640Q507 596 492 562T452 510T398 491Q363 491 342 505Z" />
<glyph unicode="&#xf2;" glyph-name="ograve" horiz-adv-x="546" d="M210 -10T159 13T76 83T44 194Q44 250 69 304T148 394T284 430Q341 430 391 406T471 335T502 227Q502 175 479 121T402 28T264 -10Q210 -10 159 13ZM314 68T345 91T392 150T407 222Q407 266
388 295T340 339T280 353Q233 353 202 330T155 271T139 198Q139 155 157 126T205 83T267 68Q314 68 345 91ZM323 495H263L153 629H257L323 495Z" />
<glyph unicode="&#xf3;" glyph-name="oacute" horiz-adv-x="546" d="M210 -10T159 13T76 83T44 194Q44 250 69 304T148 394T284 430Q341 430 391 406T471 335T502 227Q502 175 479 121T402 28T264 -10Q210 -10 159 13ZM314 68T345 91T392 150T407 222Q407 266
388 295T340 339T280 353Q233 353 202 330T155 271T139 198Q139 155 157 126T205 83T267 68Q314 68 345 91ZM328 468H268L357 602H460L328 468Z" />
<glyph unicode="&#xf4;" glyph-name="ocircumflex" horiz-adv-x="546" d="M210 -10T159 13T76 83T44 194Q44 250 69 304T148 394T284 430Q341 430 391 406T471 335T502 227Q502 175 479 121T402 28T264 -10Q210 -10 159 13ZM314 68T345 91T392 150T407 222Q407
266 388 295T340 339T280 353Q233 353 202 330T155 271T139 198Q139 155 157 126T205 83T267 68Q314 68 345 91ZM371 495L304 588L217 495H132L315 677L457 495H371Z" />
<glyph unicode="&#xf5;" glyph-name="otilde" horiz-adv-x="546" d="M210 -10T159 13T76 83T44 194Q44 250 69 304T148 394T284 430Q341 430 391 406T471 335T502 227Q502 175 479 121T402 28T264 -10Q210 -10 159 13ZM314 68T345 91T392 150T407 222Q407 266
388 295T340 339T280 353Q233 353 202 330T155 271T139 198Q139 155 157 126T205 83T267 68Q314 68 345 91ZM340 460T319 474T272 517Q255 536 244 544T217 553Q197 553 183 531T164 471L105 476Q110 540 143 582T228 625Q256 625 276 611T318 570Q337 548 349
539T377 529Q416 529 426 614L484 609Q484 565 469 531T429 479T375 460Q340 460 319 474Z" />
<glyph unicode="&#xf6;" glyph-name="odieresis" horiz-adv-x="546" d="M210 -10T159 13T76 83T44 194Q44 250 69 304T148 394T284 430Q341 430 391 406T471 335T502 227Q502 175 479 121T402 28T264 -10Q210 -10 159 13ZM314 68T345 91T392 150T407 222Q407 266
388 295T340 339T280 353Q233 353 202 330T155 271T139 198Q139 155 157 126T205 83T267 68Q314 68 345 91ZM156 561T173 577T212 593Q231 593 245 579T260 542Q260 518 242 502T203 487Q184 488 170 502T156 537Q156 561 173 577ZM342 561T359 577T398 593Q417
593 431 578T446 542Q446 518 428 502T389 487Q370 488 356 502T342 537Q342 561 359 577Z" />
<glyph unicode="&#xf7;" glyph-name="divide" horiz-adv-x="507" d="M250 416T268 433T310 450Q328 450 342 436T356 402Q356 377 338 361T297 344Q278 344 264 357T250 391Q250 416 268 433ZM470 291L459 209H95L105 291H470ZM214 124T233 141T274 159Q292 159
306 145T320 111Q320 86 302 70T262 53Q243 53 229 66T214 100Q214 124 233 141Z" />
<glyph unicode="&#xf8;" glyph-name="oslash" horiz-adv-x="518" d="M507 404T479 376Q479 376 457 354Q502 301 502 227Q502 175 479 121T402 28T264 -10Q193 -10 134 28L83 -24L48 13Q95 60 95 60Q44 114 44 194Q44 250 69 304T148 394T284 430Q361 430 420
388Q459 427 469 438L507 404Q507 404 479 376ZM139 155T158 125L359 327Q324 353 280 353Q233 353 202 330T155 271T139 198Q139 155 158 125ZM407 258T392 288L194 89Q227 68 267 68Q314 68 345 91T392 150T407 222Q407 258 392 288Z" />
<glyph unicode="&#xf9;" glyph-name="ugrave" horiz-adv-x="547" d="M492 414L441 0H356L360 77Q333 35 287 10T186 -16Q133 -16 101 13T68 92Q68 102 69 107L106 414H200L166 139Q163 105 179 85T232 64Q266 64 297 84T348 141T374 221L398 414H492ZM342 526H282L172
660H276L342 526Z" />
<glyph unicode="&#xfa;" glyph-name="uacute" horiz-adv-x="547" d="M492 414L441 0H356L360 77Q333 35 287 10T186 -16Q133 -16 101 13T68 92Q68 102 69 107L106 414H200L166 139Q163 105 179 85T232 64Q266 64 297 84T348 141T374 221L398 414H492ZM347 500H287L376
634H479L347 500Z" />
<glyph unicode="&#xfb;" glyph-name="ucircumflex" horiz-adv-x="547" d="M492 414L441 0H356L360 77Q333 35 287 10T186 -16Q133 -16 101 13T68 92Q68 102 69 107L106 414H200L166 139Q163 105 179 85T232 64Q266 64 297 84T348 141T374 221L398 414H492ZM390
526L323 619L236 526H151L334 708L476 526H390Z" />
<glyph unicode="&#xfc;" glyph-name="udieresis" horiz-adv-x="547" d="M492 414L441 0H356L360 77Q333 35 287 10T186 -16Q133 -16 101 13T68 92Q68 102 69 107L106 414H200L166 139Q163 105 179 85T232 64Q266 64 297 84T348 141T374 221L398 414H492ZM175 592T192
608T231 624Q250 624 264 610T279 573Q279 549 261 533T222 518Q203 519 189 533T175 568Q175 592 192 608ZM361 592T378 608T417 624Q436 624 450 609T465 573Q465 549 447 533T408 518Q389 519 375 533T361 568Q361 592 378 608Z" />
<glyph unicode="&#xfd;" glyph-name="yacute" horiz-adv-x="530" d="M513 414L171 -199H77L199 15L57 414H162L258 120L425 414H513ZM324 486H264L353 620H456L324 486Z" />
<glyph unicode="&#xfe;" glyph-name="thorn" horiz-adv-x="568" d="M422 425T473 374T524 235Q524 158 492 103T404 19T278 -10Q232 -10 196 8T142 53L110 -199H31L150 775H230L178 354Q202 383 243 404T336 425Q422 425 473 374ZM353 68T395 111T438 226Q438
279 406 313T319 348Q275 348 239 328T181 272T159 193Q159 139 193 104T284 68Q353 68 395 111Z" />
<glyph unicode="&#xff;" glyph-name="ydieresis" horiz-adv-x="476" d="M513 414L171 -199H77L199 15L57 414H162L258 120L425 414H513ZM156 552T173 568T212 584Q231 584 245 570T260 533Q260 509 242 493T203 478Q184 479 170 493T156 528Q156 552 173 568ZM342
552T359 568T398 584Q417 584 431 569T446 533Q446 509 428 493T389 478Q370 479 356 493T342 528Q342 552 359 568Z" />
<glyph unicode="&#x2013;" glyph-name="endash" horiz-adv-x="516" d="M437 252L427 170H122L132 252H437Z" />
<glyph unicode="&#x2014;" glyph-name="emdash" horiz-adv-x="709" d="M640 252L630 170H121L131 252H640Z" />
<glyph unicode="&#x2018;" glyph-name="quoteleft" horiz-adv-x="166" d="M164 582T146 574Q111 614 111 668Q111 693 120 720L171 713Q164 687 164 670Q164 627 191 598Q164 582 146 574Z" />
<glyph unicode="&#x2019;" glyph-name="quoteright" horiz-adv-x="166" d="M109 598Q134 619 146 648T157 713L210 720Q214 679 197 641T147 574L109 598Z" />
<glyph unicode="&#x201a;" glyph-name="quotesinglbase" horiz-adv-x="148" d="M16 -30Q40 -8 53 22T63 87L117 94Q120 53 103 14T54 -54L16 -30Z" />
<glyph unicode="&#x201c;" glyph-name="quotedblleft" horiz-adv-x="252" d="M164 582T146 574Q111 614 111 668Q111 693 120 720L171 713Q164 692 164 670Q164 627 191 598Q164 582 146 574ZM269 582T251 574Q217 613 217 669Q217 697 225 720L276 713Q269 687
269 670Q269 627 296 598Q269 582 251 574Z" />
<glyph unicode="&#x201d;" glyph-name="quotedblright" horiz-adv-x="251" d="M108 582T85 598Q110 619 122 649T132 713L186 720Q189 679 172 641T123 574Q108 582 85 598ZM207 586T190 598Q215 619 227 648T238 713L291 720Q294 679 277 641T228 574Q207 586 190 598Z" />
<glyph unicode="&#x201e;" glyph-name="quotedblbase" horiz-adv-x="346" d="M16 -30Q40 -8 53 22T63 87L117 94Q120 53 103 14T54 -54L16 -30ZM121 -30Q146 -9 158 21T169 87L222 94Q225 53 208 14T160 -54L121 -30Z" />
<glyph unicode="&#x2022;" glyph-name="bullet" horiz-adv-x="485" d="M151 329T171 362T224 414T296 434Q345 434 377 400T410 317Q410 279 390 247T336 195T264 176Q215 176 183 209T151 291Q151 329 171 362Z" />
<glyph unicode="&#x2039;" glyph-name="guilsinglleft" horiz-adv-x="397" d="M174 264T257 347Q339 427 344 431L333 335Q322 325 282 283Q256 254 243 242Q248 236 258 221T276 196Q302 158 309 149L298 53L148 242Q174 264 257 347Z" />
<glyph unicode="&#x203a;" glyph-name="guilsinglright" horiz-adv-x="397" d="M112 53L101 149Q107 156 118 172T134 196L167 242Q154 254 128 283Q88 325 77 335L66 431Q71 427 153 347Q236 264 262 242L112 53Z" />
</font>
</defs>
</svg>
