<?xml version="1.0" standalone="no"?>
<!DOCTYPE svg PUBLIC "-//W3C//DTD SVG 1.1//EN" "http://www.w3.org/Graphics/SVG/1.1/DTD/svg11.dtd">
<svg xmlns="http://www.w3.org/2000/svg">
<defs >
<font id="ExpletusSans" horiz-adv-x="470" ><font-face
    font-family="Expletus Sans"
    units-per-em="1000"
    panose-1="2 0 5 3 0 0 0 2 0 4"
    ascent="900"
    descent="-400"
    alphabetic="0" />
<glyph unicode=" " glyph-name="space" horiz-adv-x="257" />
<glyph unicode="!" glyph-name="exclam" horiz-adv-x="351" d="M41 59Q41 91 62 112T115 134Q147 134 168 113T189 59Q189 27 168 7T115 -14Q83 -14 62 6T41 59ZM56 727H178L160 213H72L56 727Z" />
<glyph unicode="&quot;" glyph-name="quotedbl" horiz-adv-x="399" d="M234 512V727H342V649Q342 620 337 593T319 545T285 515T234 512ZM41 512V727H150V649Q150 620 145 593T126 545T92 515T41 512Z" />
<glyph unicode="#" glyph-name="numbersign" horiz-adv-x="894" d="M459 0Q465 34 471 67T485 135L492 159L313 158Q319 174 327 188T349 214T382 231T430 237H502L541 439L550 468L339 467L250 0H152Q159 34 165 68T179 137L186 159L71 158V236H196L236 442L243
468L130 467V546H256L285 702H383L353 546H562L592 702H690L660 546H772V467H645L601 237H712V158H588L557 0H459Z" />
<glyph unicode="$" glyph-name="dollar" horiz-adv-x="514" d="M262 622Q215 622 188 598T160 540Q160 505 184 481T246 434T327 391T407 341T469 274T494 179Q494 106 445 57T310 -7V-107H216V-11Q177 -8 131 3T33 38L67 122Q118 99 162 90T245 80Q274 80 298
88T339 110T365 142T375 181Q375 218 351 244T289 291T209 334T129 382T68 445T43 535Q43 572 56 602T92 655T147 691T216 710V810H310V709Q339 706 369 700T441 680L407 599Q363 612 329 617T262 622Z" />
<glyph unicode="%" glyph-name="percent" horiz-adv-x="814" d="M710 191Q710 257 692 290T642 323Q612 323 594 290T575 191Q575 124 593 91T642 58Q674 58 692 91T710 191ZM811 191Q811 94 765 41T642 -13Q566 -13 521 40T475 191Q475 288 520 341T642 394Q719
394 765 341T811 191ZM250 514Q250 580 232 612T183 645Q152 645 134 613T115 514Q115 447 133 414T183 381Q214 381 232 414T250 514ZM351 514Q351 417 305 364T183 310Q106 310 61 363T15 514Q15 611 60 664T183 717Q259 717 305 664T351 514ZM146 0L584 702H679L241
0H146Z" />
<glyph unicode="&amp;" glyph-name="ampersand" horiz-adv-x="761" d="M388 86Q423 92 449 79T497 44Q462 17 423 3T335 -11Q284 -11 244 6T174 52T130 122T114 209Q114 276 148 327T232 415Q200 460 189 492T178 555Q178 597 193 631T237 688T304 724T391 737Q424
737 465 729T541 703L514 622Q484 633 450 639T389 645Q345 645 317 622T289 564Q290 523 314 488T379 404L534 219Q551 261 564 297T584 379H683Q669 313 650 256T600 147L726 0H583L308 320L288 347Q267 318 251 291T234 222Q234 160 263 121T350 81Q361 81 369
82T388 86Z" />
<glyph unicode="&apos;" glyph-name="quotesingle" horiz-adv-x="191" d="M37 512V727H144V649Q144 620 139 593T121 545T88 515T37 512Z" />
<glyph unicode="(" glyph-name="parenleft" horiz-adv-x="403" d="M274 296Q274 213 277 153T294 45T333 -40T404 -116L348 -176Q290 -137 255 -94T200 5T174 131T167 296Q167 389 173 460T199 586T254 684T348 767L404 708Q358 669 332 631T293 546T277 439T274 296Z" />
<glyph unicode=")" glyph-name="parenright" horiz-adv-x="401" d="M130 296Q130 379 127 439T111 546T72 631T0 708L55 767Q113 728 148 685T203 586T230 460T237 296Q237 202 230 132T204 6T149 -93T55 -176L0 -116Q45 -78 71 -40T110 45T126 152T130 296Z" />
<glyph unicode="*" glyph-name="asterisk" horiz-adv-x="530" d="M250 590L309 743L392 694Q372 669 357 650T329 616T308 590T289 568L450 593V497Q418 502 394 505T350 512T315 517T287 523L391 397L308 349L250 502L192 349L109 397L212 524L51 498V594L211
569L107 694L191 743L250 590Z" />
<glyph unicode="+" glyph-name="plus" horiz-adv-x="568" d="M47 263V347H233V546H327V347H515V263H327V62H233V263H47Z" />
<glyph unicode="," glyph-name="comma" horiz-adv-x="233" d="M56 -117V98H165V20Q165 -9 160 -36T141 -84T107 -114T56 -117Z" />
<glyph unicode="-" glyph-name="hyphen" horiz-adv-x="375" d="M347 262H45V347H347V262Z" />
<glyph unicode="." glyph-name="period" horiz-adv-x="285" d="M61 58Q61 90 82 112T135 134Q167 134 188 112T209 58Q209 27 188 6T135 -15Q103 -15 82 6T61 58Z" />
<glyph unicode="/" glyph-name="slash" horiz-adv-x="332" d="M101 -62H-4L239 727H344L101 -62Z" />
<glyph unicode="0" glyph-name="zero" horiz-adv-x="692" d="M484 349Q484 413 474 464T445 552T396 607T329 627Q291 627 262 608T214 552T184 465T174 349Q174 285 184 234T213 147T262 92T329 73Q367 73 396 92T444 147T474 234T484 349ZM329 -18Q264 -18 212
7T121 81T63 197T42 349Q42 432 62 500T119 616T210 691T329 718Q401 718 454 688T544 607T597 489T615 349Q615 270 596 203T540 86T450 10T329 -18Z" />
<glyph unicode="1" glyph-name="one" horiz-adv-x="319" d="M251 0H135V568L26 510L-14 584L203 701H251V0Z" />
<glyph unicode="2" glyph-name="two" horiz-adv-x="547" d="M485 525Q485 489 471 453T435 381T384 310T325 240T267 173T217 112L202 95L224 98H496V0H49V51Q70 92 101 133T166 215T234 296T295 374T339 447T356 515Q356 540 347 560T321 593T283 614T236 621Q211
621 179 614T108 588L76 671Q124 695 167 703T247 712Q300 712 343 700T418 663T467 604T485 525Z" />
<glyph unicode="3" glyph-name="three" horiz-adv-x="528" d="M441 549Q441 503 415 463T338 394L313 385L336 380Q362 370 385 353T426 313T454 261T464 199Q464 154 444 116T389 49T307 5T205 -11Q149 -11 102 2T14 35L44 117Q118 80 191 80Q222 80 248 89T294
115T325 154T336 201Q336 236 322 259T281 296T219 315T141 321L132 394Q167 409 199 423T257 453T297 491T312 539Q312 577 283 599T212 621Q183 621 150 614T73 587L42 671Q96 695 141 703T229 712Q274 712 313 701T380 668T425 617T441 549Z" />
<glyph unicode="4" glyph-name="four" horiz-adv-x="595" d="M32 230L336 701H474V236H555V147H474V0H358V529L360 559L345 532L174 269Q171 264 168 261T162 252L148 235Q153 236 157 236T167 237H224Q245 237 261 228T290 206T310 176T323 147H32V230Z" />
<glyph unicode="5" glyph-name="five" horiz-adv-x="536" d="M183 603Q180 566 178 530T172 457L168 422Q185 424 199 426T226 428Q288 428 335 411T415 364T464 295T481 211Q481 163 462 122T406 52T321 5T211 -12Q173 -12 126 -1T29 37L59 118Q107 96 144 88T210
79Q246 79 272 91T317 122T343 165T352 213Q352 275 309 306T197 338Q171 338 137 334T62 322L88 701H451V603H183Z" />
<glyph unicode="6" glyph-name="six" horiz-adv-x="636" d="M414 618Q361 618 320 596T250 534T206 443T191 329Q191 288 197 243T220 161T265 99T337 75Q362 75 383 86T419 116T444 163T453 221Q453 284 427 315T364 346Q350 346 331 342Q313 339 298 343T271
355T249 373T232 394Q279 419 311 427T373 436Q416 436 454 422T521 381T565 314T582 221Q582 177 565 135T517 60T441 6T340 -15Q264 -15 211 13T125 89T77 199T62 327Q62 400 86 469T156 591T267 676T414 708Q439 708 470 703T534 685L506 602Q478 611 456 614T414
618Z" />
<glyph unicode="7" glyph-name="seven" horiz-adv-x="502" d="M241 0H114Q125 81 142 154T183 296T238 430T312 560Q319 570 326 580T341 600L38 599V701H472V612Q431 559 394 502T327 372T275 209T241 0Z" />
<glyph unicode="8" glyph-name="eight" horiz-adv-x="644" d="M328 77Q388 77 422 106T457 178Q457 218 431 244T366 289T281 327T196 371T131 434T105 531Q105 574 123 608T173 665T245 700T331 713Q378 713 419 701T490 665T537 608T555 531Q555 492 530 445T462
361Q511 335 544 292T578 178Q578 132 559 97T505 37T426 0T328 -13Q275 -13 230 -1T151 36T100 96T81 178Q81 212 98 251T166 343Q177 331 187 318T203 289T211 259T208 228Q198 202 198 183Q198 132 234 105T328 77ZM226 531Q226 506 239 488T273 456T322 428T380
402Q407 432 422 461T437 520Q437 547 428 566T404 597T370 616T331 622Q289 622 258 599T226 531Z" />
<glyph unicode="9" glyph-name="nine" horiz-adv-x="635" d="M230 81Q284 81 325 103T395 164T439 256T454 371Q454 411 448 455T425 537T380 599T308 623Q283 623 262 612T225 582T200 536T191 478Q191 415 217 384T280 353Q285 353 294 354T313 357Q331 360
346 356T373 344T395 325T412 304Q365 280 332 272T271 263Q227 263 189 277T123 318T79 385T62 478Q62 521 79 563T127 639T204 693T305 714Q380 714 433 686T519 610T567 501T582 373Q582 299 558 230T488 108T377 22T230 -10Q205 -10 174 -5T110 14L138 97Q166
88 188 85T230 81Z" />
<glyph unicode=":" glyph-name="colon" horiz-adv-x="299" d="M78 426Q78 457 99 479T152 501Q184 501 205 479T226 426Q226 394 205 373T152 352Q120 352 99 373T78 426ZM78 58Q78 90 99 112T152 134Q184 134 205 112T226 58Q226 27 205 6T152 -15Q120 -15 99 6T78 58Z" />
<glyph unicode=";" glyph-name="semicolon" horiz-adv-x="299" d="M98 -117V98H207V20Q207 -9 202 -36T183 -84T149 -114T98 -117ZM78 426Q78 457 99 479T152 501Q184 501 205 479T226 426Q226 394 205 373T152 352Q120 352 99 373T78 426Z" />
<glyph unicode="&lt;" glyph-name="less" horiz-adv-x="613" d="M184 270L554 112V0L37 239V313L554 552V441Q460 401 369 361T184 283L158 276L184 270Z" />
<glyph unicode="=" glyph-name="equal" horiz-adv-x="606" d="M67 388V474H539V388H67ZM67 167V253H539V167H67Z" />
<glyph unicode="&gt;" glyph-name="greater" horiz-adv-x="613" d="M48 112Q142 151 233 190T418 270L444 276L418 283L48 441V552L565 313V239L48 0V112Z" />
<glyph unicode="?" glyph-name="question" horiz-adv-x="583" d="M166 59Q166 91 187 112T241 134Q272 134 293 113T315 59Q315 27 294 7T241 -14Q209 -14 188 6T166 59ZM270 737Q317 737 356 726T424 694T469 644T485 579Q485 541 471 510T435 451T388 396T342
342T306 282T291 213H191Q191 262 203 299T234 365T275 419T315 466T346 512T359 564Q359 600 332 622T260 645Q231 645 201 639T126 612L94 696Q146 721 187 729T270 737Z" />
<glyph unicode="@" glyph-name="at" horiz-adv-x="919" d="M626 159Q625 153 625 148T624 137Q628 139 631 142T638 149Q689 182 711 228T734 322Q734 380 715 426T659 504T573 553T461 570Q397 570 343 549T250 489T190 391T168 257Q168 182 189 125T248 27T337
-33T447 -54Q469 -54 489 -53T530 -49T576 -40T632 -24L657 -93Q621 -104 593 -111T541 -122T495 -127T447 -128Q370 -128 303 -106T187 -36T108 83T79 257Q79 350 110 422T195 544T317 618T462 644Q536 644 601 623T716 560T794 459T823 322Q823 271 804 227T752
147T672 89T572 55Q561 61 556 71T545 95L543 114L533 94Q504 65 477 56T423 47Q360 47 324 77T288 158Q288 218 337 249T502 293Q501 286 498 275T489 253T472 232T446 221Q403 215 389 199T375 162Q375 140 392 127T439 113Q465 113 491 125T540 169V305Q540
396 446 396Q425 396 403 393T350 378L326 439Q366 455 397 460T460 466Q539 466 582 424T625 300V216Q625 202 625 188T626 159Z" />
<glyph unicode="A" glyph-name="A" horiz-adv-x="709" d="M293 727H416L677 0H546L358 558L350 592L342 557L247 274L235 254L249 256H347Q367 256 382 248T409 226T428 197T441 165H211L156 0H32L293 727Z" />
<glyph unicode="B" glyph-name="B" horiz-adv-x="664" d="M344 80Q349 79 352 79T361 79Q414 79 450 113T486 204Q486 237 472 262T434 304T377 330T306 339H206V0H83V717Q119 723 148 727T203 735T254 739T306 740Q372 740 422 725T505 684T556 621T573 540Q573
503 552 464T493 402L464 388L492 381Q548 358 582 310T616 205Q616 166 599 128T551 59T474 9T371 -11Q357 -11 344 -11T316 -8T285 -3T246 6Q252 19 261 32T282 57T309 74T344 80ZM206 423H306Q336 423 361 431T406 455T435 492T446 539Q446 560 438 579T413
614T369 639T306 649Q279 649 256 648T206 643V423Z" />
<glyph unicode="C" glyph-name="C" horiz-adv-x="621" d="M435 -12Q348 -12 278 16T159 94T84 212T57 363Q57 443 84 512T160 631T279 711T435 740Q477 740 520 732T611 706L579 624Q534 638 502 643T435 648Q378 648 333 627T256 567T207 476T190 363Q190 305
207 254T256 163T333 102T435 79Q470 79 505 87T578 115L611 34Q566 10 522 -1T435 -12Z" />
<glyph unicode="D" glyph-name="D" horiz-adv-x="734" d="M373 -12Q358 -12 345 -12T317 -9T287 -4T248 5Q254 18 263 31T284 56T311 74T346 80Q352 79 355 79T363 79Q417 79 458 103T528 167T570 258T585 365Q585 429 569 481T518 571T431 628T305 648Q281 648
257 646T209 641V0H85V715Q145 728 203 734T305 740Q403 740 479 715T609 641T690 523T718 365Q718 285 692 216T619 97T509 17T373 -12Z" />
<glyph unicode="E" glyph-name="E" horiz-adv-x="584" d="M343 426H479V337H248Q253 352 261 368T280 397T307 418T343 426ZM85 0V727H513V636H210V91H529V0H85Z" />
<glyph unicode="F" glyph-name="F" horiz-adv-x="580" d="M343 426H479V337H248Q253 352 261 368T280 397T307 418T343 426ZM85 0V727H513V636H210V0H85Z" />
<glyph unicode="G" glyph-name="G" horiz-adv-x="694" d="M429 648Q372 648 325 627T245 569T192 479T173 363Q173 302 191 250T243 160T323 101T427 79Q449 79 473 81T529 93V337H644V37Q589 11 530 0T427 -12Q340 -12 269 16T146 93T67 212T39 363Q39 444 67
513T148 632T271 711T429 740Q472 740 526 730T635 696L603 612Q547 634 506 641T429 648Z" />
<glyph unicode="H" glyph-name="H" horiz-adv-x="751" d="M85 0V727H210V0H85ZM343 427H544V727H667V0H544V336H248Q253 352 261 368T280 397T307 418T343 427Z" />
<glyph unicode="I" glyph-name="I" horiz-adv-x="292" d="M207 727V0H85V727H207Z" />
<glyph unicode="J" glyph-name="J" horiz-adv-x="360" d="M279 727V128Q279 60 264 12T219 -75T146 -147T47 -217L-8 -146Q29 -115 59 -89T110 -33T142 35T154 128V727H279Z" />
<glyph unicode="K" glyph-name="K" horiz-adv-x="691" d="M210 0H85V727H210V0ZM639 727L414 435L673 0H528L353 331L346 353L335 333L266 243Q252 285 259 336T291 431Q333 505 390 580T501 727H639Z" />
<glyph unicode="L" glyph-name="L" horiz-adv-x="527" d="M85 0V727H211V92H488V0H85Z" />
<glyph unicode="M" glyph-name="M" horiz-adv-x="970" d="M72 0L146 727H305L478 157L485 123L493 157L665 727H824L897 0H781L735 561L732 607L720 561L547 10H422L247 562L235 607L188 0H72Z" />
<glyph unicode="N" glyph-name="N" horiz-adv-x="767" d="M555 0Q470 135 387 268T218 536L202 571L204 537V0H98V727H220L525 240Q530 232 534 225T544 210L557 172L555 210V727H665V0H555Z" />
<glyph unicode="O" glyph-name="O" horiz-adv-x="790" d="M177 364Q177 306 192 254T235 163T304 100T396 77Q442 77 482 97T552 155T599 246T616 364Q616 427 600 480T555 570T486 629T396 650Q346 650 306 628T237 568T193 478T177 364ZM44 364Q44 449 70 518T144
637T256 714T396 742Q488 742 554 710T664 624T727 502T748 364Q748 286 723 217T652 97T541 16T396 -14Q316 -14 251 13T140 91T69 210T44 364Z" />
<glyph unicode="P" glyph-name="P" horiz-adv-x="630" d="M582 516Q582 467 563 428T511 361T437 316T350 295Q327 293 302 294T249 304Q255 317 263 331T281 356T305 374T336 383Q358 384 379 394T417 423T443 465T453 516Q453 544 442 568T411 610T364 638T305
649Q277 649 258 648T211 643V0L85 1V719Q121 725 149 729T203 736T253 740T305 741Q365 741 416 725T504 679T561 608T582 516Z" />
<glyph unicode="Q" glyph-name="Q" horiz-adv-x="784" d="M661 115L728 46L660 -21L413 231L481 298L568 208L581 188L588 213Q605 248 611 287T618 364Q618 425 603 477T560 568T491 628T399 650Q349 650 309 628T240 568T196 478T180 364Q180 305 195 253T237
162T304 101T391 78Q402 78 415 79T439 82Q470 84 498 70T543 37Q505 11 467 -1T391 -14Q314 -14 251 13T142 91T72 210T47 364Q47 448 73 517T146 637T257 714T399 742Q478 742 543 715T654 638T726 519T751 364Q751 295 728 234T661 115Z" />
<glyph unicode="R" glyph-name="R" horiz-adv-x="670" d="M582 521Q582 461 553 417T476 345L449 335Q491 313 512 278T548 198T575 103T612 0H483Q465 40 454 85T430 173T399 251T349 305Q334 303 317 305Q301 305 284 307T249 314Q255 327 263 341T281 366T305
385T336 394Q358 395 379 405T417 432T443 471T453 521Q453 548 442 571T410 612T363 639T305 649Q291 649 281 649T260 648T238 646T211 642V0H85V718Q121 724 149 728T203 736T253 740T305 741Q364 741 415 725T503 681T561 611T582 521Z" />
<glyph unicode="S" glyph-name="S" horiz-adv-x="568" d="M286 650Q236 650 209 625T181 561Q181 525 206 499T269 451T351 405T433 353T496 283T521 185Q521 141 504 105T454 42T376 2T273 -13Q230 -13 173 -2T54 39L87 121Q138 98 184 89T268 79Q298 79 322
87T364 109T391 143T401 184Q401 223 376 250T314 299T232 343T151 393T88 460T63 553Q63 598 79 633T125 691T193 727T277 740Q299 740 320 739T365 734T413 724T467 708L434 627Q389 640 353 645T286 650Z" />
<glyph unicode="T" glyph-name="T" horiz-adv-x="538" d="M205 636H7V727H529V636H330V0H205V636Z" />
<glyph unicode="U" glyph-name="U" horiz-adv-x="715" d="M364 -14Q298 -14 246 5T157 62T101 152T81 274V727H204V259Q204 217 216 183T249 126T299 90T364 77Q434 77 478 125T523 259V727H646V274Q646 209 626 156T569 65T480 7T364 -14Z" />
<glyph unicode="V" glyph-name="V" horiz-adv-x="653" d="M394 0H265L10 727H143L324 158L331 122L338 157L518 727H647L394 0Z" />
<glyph unicode="W" glyph-name="W" horiz-adv-x="1026" d="M448 717H585L721 172L731 119L740 170L879 727H999L798 0H668L523 547L515 588L507 548L363 0H229L27 727H150L290 172L298 119L309 172L448 717Z" />
<glyph unicode="X" glyph-name="X" horiz-adv-x="648" d="M259 170L165 0H31L230 327Q239 315 249 296T265 256T271 213T259 170ZM478 0L43 727H183L315 478L325 449L333 478L465 727H603L388 371L615 0H478Z" />
<glyph unicode="Y" glyph-name="Y" horiz-adv-x="684" d="M398 536L504 727H639L427 377Q417 389 407 407T391 447T385 492T398 536ZM164 727L397 338V0H276V317L26 727H164Z" />
<glyph unicode="Z" glyph-name="Z" horiz-adv-x="607" d="M97 637V727H589V676L222 103L206 88L229 91H599V0H61V51L428 623L444 640L420 637H97Z" />
<glyph unicode="[" glyph-name="bracketleft" horiz-adv-x="447" d="M131 -199V771H416V679H245V-107H417Q417 -130 417 -153T416 -199H131Z" />
<glyph unicode="\" glyph-name="backslash" horiz-adv-x="349" d="M353 -62H244L1 727H110L353 -62Z" />
<glyph unicode="]" glyph-name="bracketright" horiz-adv-x="451" d="M331 771V-199H45V-107H216V679H45V771H331Z" />
<glyph unicode="^" glyph-name="asciicircum" horiz-adv-x="628" d="M309 557L175 210H65L274 727H357L566 210H458L332 534Q330 539 328 545T323 557L316 586L309 557Z" />
<glyph unicode="_" glyph-name="underscore" horiz-adv-x="497" d="M470 -83H27V0H470V-83Z" />
<glyph unicode="`" glyph-name="grave" horiz-adv-x="196" d="M92 631L20 727H127L193 602Q163 594 137 600T92 631Z" />
<glyph unicode="a" glyph-name="a" horiz-adv-x="536" d="M473 312V172Q473 123 475 83T489 0H399Q382 10 372 30T360 70L349 52Q328 32 310 20T274 0T239 -9T202 -12Q165 -12 136 0T85 32T53 79T42 136Q42 170 55 198T101 249T186 286T317 309Q313 280 298 254T248
222Q200 214 182 193T163 146Q163 118 182 99T233 79Q264 79 295 97T353 150V315Q353 370 325 403T237 436Q211 436 184 431T121 413L91 491Q137 512 180 520T258 528Q361 528 417 472T473 312Z" />
<glyph unicode="b" glyph-name="b" horiz-adv-x="599" d="M234 500Q262 512 291 518T345 525Q390 525 428 505T494 451T537 370T553 271Q553 210 534 158T481 68T397 9T287 -13Q232 -13 182 -1T77 41V758H198V90Q222 83 244 81T287 78Q318 78 343 92T387 132T414
193T424 271Q424 305 417 335T397 388T363 423T314 435Q285 433 267 452T234 500Z" />
<glyph unicode="c" glyph-name="c" horiz-adv-x="429" d="M291 -12Q240 -12 193 4T111 54T54 139T33 259Q33 326 54 376T111 461T193 512T291 529Q318 529 350 524T412 507L383 425Q357 432 334 435T291 438Q236 438 200 392T163 259Q163 171 199 125T291 79Q331
79 395 105L426 23Q386 4 352 -4T291 -12Z" />
<glyph unicode="d" glyph-name="d" horiz-adv-x="611" d="M39 262Q39 317 57 365T107 449T179 504T264 525Q288 525 312 522T372 507Q358 476 339 457T290 437Q232 435 201 390T169 262Q169 224 176 191T199 132T236 93T286 79Q346 79 408 151V758H529V182Q529
131 531 88T544 0H452Q440 8 432 20T417 50L414 70L400 50Q364 15 330 2T265 -12Q211 -12 169 9T98 66T54 153T39 262Z" />
<glyph unicode="e" glyph-name="e" horiz-adv-x="556" d="M288 317H391Q394 342 389 364T371 404T339 431T297 441Q272 441 249 431T209 399T181 345T170 268Q170 180 211 130T318 79Q353 79 385 87T461 116L493 33Q441 8 395 -2T305 -12Q241 -12 193 11T113 72T65
161T49 265Q49 326 68 375T121 458T202 511T305 529Q359 529 402 507T472 445T505 354T491 241H207Q218 273 238 295T288 317Z" />
<glyph unicode="f" glyph-name="f" horiz-adv-x="419" d="M344 517H394V429H250Q255 445 262 460T281 488T308 509T344 517ZM100 429H16V497L100 517V545Q100 594 114 634T156 703T221 747T309 763Q334 763 366 757T437 735L410 656Q380 666 360 669T322 673Q275
673 245 641T215 549V0H100V429Z" />
<glyph unicode="g" glyph-name="g" horiz-adv-x="583" d="M46 246Q46 306 65 358T120 447T207 506T321 528Q342 528 363 527T407 522T457 512T517 497V0Q517 -64 498 -111T444 -189T364 -235T262 -250Q223 -250 175 -242T71 -208L102 -124Q150 -145 186 -153T254
-161Q283 -161 309 -152T355 -124T386 -77T398 -11V428Q377 433 359 435T325 437Q254 437 215 386T176 246Q176 215 181 186T199 133T232 97T281 85Q308 87 326 71T362 28Q336 12 308 3T254 -8Q207 -10 169 10T104 66T61 148T46 246Z" />
<glyph unicode="h" glyph-name="h" horiz-adv-x="598" d="M400 0V370Q400 399 389 417T351 436Q337 436 324 432T295 429Q276 429 262 444T234 481Q285 510 320 519T383 529Q410 529 435 520T479 492T511 442T523 368V0H400ZM198 0H77V758H198V0Z" />
<glyph unicode="i" glyph-name="i" horiz-adv-x="271" d="M62 667Q62 699 83 720T135 742Q167 742 188 721T209 667Q209 636 188 615T135 593Q104 593 83 614T62 667ZM197 0H74V517H197V0Z" />
<glyph unicode="j" glyph-name="j" horiz-adv-x="289" d="M212 517V45Q212 0 204 -36T174 -107T116 -176T22 -249L-31 -183Q8 -150 31 -124T68 -73T85 -19T90 45V517H212ZM78 667Q78 699 98 721T151 743Q183 743 204 721T226 667Q226 635 205 614T151 593Q119
593 99 614T78 667Z" />
<glyph unicode="k" glyph-name="k" horiz-adv-x="608" d="M557 517L390 337L588 0H452L334 227L318 262L247 181Q237 225 245 268T277 348Q285 361 294 372T313 396L415 517H557ZM198 758V0H77V758H198Z" />
<glyph unicode="l" glyph-name="l" horiz-adv-x="271" d="M200 758V0H79V758H200Z" />
<glyph unicode="m" glyph-name="m" horiz-adv-x="919" d="M719 0V370Q719 399 706 417T664 436Q649 436 633 432T600 429Q580 429 564 445T535 482Q589 508 627 518T697 529Q724 529 750 520T796 492T829 442T841 368V0H719ZM399 0V370Q399 399 388 417T350 436Q334
436 320 432T289 430Q269 430 254 446T226 483Q280 509 316 519T384 529Q411 529 436 520T480 492T510 442T522 368V0H399ZM64 517H163Q187 490 194 464T202 407V0H79V391Q79 419 76 450T64 517Z" />
<glyph unicode="n" glyph-name="n" horiz-adv-x="585" d="M390 0V370Q390 399 378 417T338 436Q322 436 307 432T275 429Q255 429 241 445T214 480Q265 509 301 519T370 529Q397 529 423 520T469 492T501 442T513 368V0H390ZM49 517H149Q173 490 180 464T188 407V0H65V391Q65
449 49 517Z" />
<glyph unicode="o" glyph-name="o" horiz-adv-x="593" d="M166 259Q166 219 174 186T199 129T240 92T294 79Q326 79 350 93T390 131T414 189T422 259Q422 340 387 389T294 438Q236 438 201 389T166 259ZM36 259Q36 329 60 380T121 464T204 513T294 529Q353 529
400 509T482 452T534 367T552 259Q552 194 530 144T472 59T390 6T294 -12Q242 -12 196 6T114 58T57 143T36 259Z" />
<glyph unicode="p" glyph-name="p" horiz-adv-x="612" d="M569 255Q569 199 551 151T501 68T429 13T344 -8Q320 -8 296 -5T236 10Q250 41 269 60T317 80Q376 82 407 127T439 255Q439 293 432 326T409 384T372 423T322 438Q260 438 200 366V-241H79V335Q79 387
77 429T64 517H156Q169 508 177 495T192 465L194 446L207 466Q244 501 278 515T344 529Q397 529 439 508T510 451T554 364T569 255Z" />
<glyph unicode="q" glyph-name="q" horiz-adv-x="596" d="M366 28Q339 12 311 3T258 -8Q211 -10 173 10T107 66T64 148T49 246Q49 306 68 358T124 447T211 506T326 528Q347 528 367 527T411 522T461 512T521 497V-241H402V428Q380 433 362 435T329 437Q257 437
218 386T179 246Q179 215 184 186T203 133T236 97T285 85Q312 87 330 71T366 28Z" />
<glyph unicode="r" glyph-name="r" horiz-adv-x="391" d="M58 517H150Q161 506 169 486T182 441L183 419L193 441Q213 480 246 503T316 526Q330 526 344 523T375 515L360 416Q341 421 329 422T305 424Q255 424 222 380T189 254V0H74V348Q74 389 72 431T58 517Z" />
<glyph unicode="s" glyph-name="s" horiz-adv-x="428" d="M32 32L61 115Q105 96 142 89T211 81Q251 81 270 99T289 141Q289 165 271 181T226 210T168 237T110 269T65 315T47 383Q47 407 57 432T88 478T142 512T222 526Q254 526 289 521T370 500L341 419Q305 430
280 434T231 438Q200 438 182 425T163 386Q163 363 181 347T226 318T284 290T342 257T387 210T405 142Q405 109 391 81T352 33T296 1T230 -10Q191 -10 144 -3T32 32Z" />
<glyph unicode="t" glyph-name="t" horiz-adv-x="444" d="M397 429H347Q327 429 312 437T285 457T266 485T253 517H397V429ZM103 195V429H17V495L103 517V643L219 681V191Q219 140 240 109T298 78Q314 78 332 81T377 93L403 13Q365 0 340 -6T289 -12Q198 -12 151
41T103 195Z" />
<glyph unicode="u" glyph-name="u" horiz-adv-x="603" d="M190 517V147Q190 118 202 100T242 81Q254 81 267 85T298 89Q319 90 335 74T366 37Q315 8 278 -2T209 -12Q182 -12 157 -3T112 25T80 75T68 149V517H190ZM529 0H430Q407 27 399 53T391 110V517H513V126Q513
68 529 0Z" />
<glyph unicode="v" glyph-name="v" horiz-adv-x="535" d="M334 0H204L10 517H139L271 109L278 137L401 517H528L334 0Z" />
<glyph unicode="w" glyph-name="w" horiz-adv-x="867" d="M673 0H543L360 517H490L610 109L729 517H855L673 0ZM391 126L338 0H211L29 517H158L278 109L285 137L365 351Q377 333 387 307T401 250T404 187T391 126Z" />
<glyph unicode="x" glyph-name="x" horiz-adv-x="508" d="M189 82L140 0H10L164 222Q174 210 183 194T197 160T201 121T189 82ZM492 0H355Q316 64 275 127T192 253L19 517H157L246 359L252 338L260 359L350 517H482L311 259L492 0Z" />
<glyph unicode="y" glyph-name="y" horiz-adv-x="573" d="M125 -157Q152 -157 171 -144T205 -105T233 -44T261 37L412 517H538L355 11Q332 -49 312 -97T266 -178T208 -229T125 -247Q82 -247 36 -230L65 -149Q82 -154 96 -155T125 -157ZM146 517Q158 478 171 438T198
357T221 276T238 198Q241 172 240 145T234 94T220 48T202 12L15 517H146Z" />
<glyph unicode="z" glyph-name="z" horiz-adv-x="464" d="M61 432V517H427V466L201 120Q198 115 195 111T189 101L173 84L196 87H431V0H32V51L273 418L288 435L267 432H61Z" />
<glyph unicode="{" glyph-name="braceleft" horiz-adv-x="403" d="M167 189Q165 224 137 244T70 272V338Q108 345 137 365T169 421Q173 483 184 533T217 625T269 701T347 767L403 708Q370 679 347 651T309 591T286 522T275 439Q272 397 252 366T200 314L176 303L200
292Q226 275 243 252T268 200Q271 188 273 175T277 148Q281 103 289 66T311 -2T348 -61T403 -116L347 -176Q299 -144 267 -108T214 -29T182 68T167 189Z" />
<glyph unicode="|" glyph-name="bar" horiz-adv-x="317" d="M224 -293H115V811H224V-293Z" />
<glyph unicode="}" glyph-name="braceright" horiz-adv-x="419" d="M314 189Q310 122 300 69T268 -28T215 -108T134 -176L78 -116Q110 -89 132 -61T170 -2T193 66T204 148Q209 196 225 231T281 292L306 303L280 314Q248 335 229 366T206 439Q203 485 195 522T173
591T135 651T78 708L134 767Q180 736 211 702T264 626T296 534T312 421Q315 386 344 366T411 338V272Q373 265 345 245T314 189Z" />
<glyph unicode="~" glyph-name="asciitilde" horiz-adv-x="614" d="M167 228L63 236Q64 274 77 302T111 350T159 380T217 391Q251 391 277 379T327 353T371 326T416 314Q438 314 450 333T467 385L569 377Q567 334 553 305T519 257T473 230T422 222Q384 222 357
233T308 259T267 286T224 298Q204 298 187 282T167 228Z" />
<glyph unicode="&#xa1;" glyph-name="exclamdown" horiz-adv-x="351" d="M41 458Q41 490 62 510T115 531Q147 531 168 511T189 458Q189 426 168 405T115 383Q83 383 62 404T41 458ZM178 -210H56L72 304H160L178 -210Z" />
<glyph unicode="&#xa2;" glyph-name="cent" horiz-adv-x="427" d="M426 119Q397 105 371 97T322 86V-14H234V89Q192 96 155 116T91 170T49 249T33 355Q33 412 49 457T92 535T155 589T234 618V716H322V623Q344 621 367 616T412 603L382 520Q356 527 333 530T291
533Q236 533 200 488T163 355Q163 267 199 221T291 175Q312 175 337 181T395 201L426 119Z" />
<glyph unicode="&#xa3;" glyph-name="sterling" horiz-adv-x="513" d="M459 311H390Q369 311 355 318T330 338T312 365T299 396H459V311ZM270 197Q264 172 255 155T230 117L211 98L235 100H483V0H42V70Q96 97 130 141T165 242Q165 259 164 275T161 311H63V396H147Q143
419 140 449T137 512Q137 561 154 598T200 661T271 699T360 712Q395 712 433 704T516 675L485 591Q447 608 414 614T360 620Q308 620 281 592T253 511Q253 466 258 425T269 346T275 271T270 197Z" />
<glyph unicode="&#xa4;" glyph-name="currency" horiz-adv-x="513" d="M255 476Q232 476 212 466T178 437T155 394T146 340Q146 308 155 283T180 241T215 214T255 205Q276 205 295 215T330 243T355 286T364 342Q364 368 356 392T334 435T300 465T255 476ZM256
544Q291 544 320 534T368 507L445 578L491 529L412 457Q425 439 434 409T444 343Q444 305 435 274T412 224L490 151L443 103L368 175Q348 158 319 148T255 137Q223 137 195 147T146 173L73 102L24 152L100 223Q86 241 76 271T65 340Q65 378 76 408T101 457L24 528L72
578L146 507Q166 524 194 534T256 544Z" />
<glyph unicode="&#xa5;" glyph-name="yen" horiz-adv-x="660" d="M385 536L491 727H626L414 377Q404 389 394 407T378 447T372 492T385 536ZM111 256V315H263V317L13 727H151L384 338V315H536V256H384V191H536V132H384V0H263V132H111V191H263V256H111Z" />
<glyph unicode="&#xa6;" glyph-name="brokenbar" horiz-adv-x="254" d="M185 -293H77V141H185V-293ZM185 387H77V811H185V387Z" />
<glyph unicode="&#xa7;" glyph-name="section" horiz-adv-x="500" d="M362 330Q362 348 349 361T315 385T267 406T212 427Q183 412 168 395T153 355Q153 336 166 322T202 296T252 274T310 251Q362 286 362 330ZM37 -9L69 68Q114 50 158 42T240 33Q290 33 319 48T348
95Q348 122 326 139T271 171T198 200T126 233T70 281T48 352Q48 381 67 408T118 455L141 465L121 474Q92 494 75 520T58 585Q58 612 72 636T111 679T171 709T250 720Q284 720 324 715T416 694L384 617Q346 628 317 632T262 637Q217 637 192 624T166 586Q166 559
188 541T243 509T316 480T388 446T444 397T466 325Q466 293 449 267T402 222L379 212L399 202Q425 182 441 156T457 93Q457 61 441 35T397 -11T333 -40T254 -51Q215 -51 157 -44T37 -9Z" />
<glyph unicode="&#xa8;" glyph-name="dieresis" horiz-adv-x="482" d="M276 670Q276 695 293 712T335 729Q359 729 376 712T394 670Q394 645 377 628T335 611Q311 611 294 628T276 670ZM81 670Q81 695 98 712T140 729Q165 729 182 712T200 670Q200 645 183 628T140
611Q116 611 99 628T81 670Z" />
<glyph unicode="&#xa9;" glyph-name="copyright" horiz-adv-x="720" d="M377 176Q342 176 311 188T257 223T221 279T208 357Q208 400 221 434T258 490T311 525T377 537Q416 537 460 523L440 465Q422 471 407 473T377 476Q339 476 314 444T288 357Q288 301 313
269T377 236Q391 236 409 239T450 254L469 199Q441 185 417 181T377 176ZM357 617Q304 617 259 598T180 545T129 462T110 354Q110 295 128 248T180 166T258 114T357 95Q409 95 453 113T531 165T582 248T601 357Q601 415 583 463T531 545T454 598T357 617ZM357 686Q430
686 490 661T594 592T661 487T685 357Q685 289 661 229T593 123T489 52T357 25Q283 25 222 50T118 119T50 225T26 357Q26 424 50 483T119 588T223 659T357 686Z" />
<glyph unicode="&#xaa;" glyph-name="ordfeminine" horiz-adv-x="527" d="M340 522V422Q340 380 343 351T351 302H289Q278 310 271 323T264 350L256 338Q214 295 156 295Q105 295 72 322T39 394Q39 445 82 473T234 514Q233 508 230 498T222 479T207 462T184 452Q148
446 136 432T123 399Q123 380 135 367T171 354Q194 354 217 365T259 400V527Q259 569 237 589T174 609Q137 609 92 593L74 647Q108 662 136 666T187 671Q262 671 301 632T340 522Z" />
<glyph unicode="&#xab;" glyph-name="guillemotleft" horiz-adv-x="613" d="M549 47L322 258L549 470L599 420L467 258L599 96L549 47ZM284 47L57 258L284 470L334 420L202 258L334 96L284 47Z" />
<glyph unicode="&#xac;" glyph-name="logicalnot" horiz-adv-x="583" d="M43 449H540V156H445V363H43V449Z" />
<glyph unicode="&#xad;" glyph-name="uni00AD" horiz-adv-x="375" d="M347 262H45V347H347V262Z" />
<glyph unicode="&#xae;" glyph-name="registered" horiz-adv-x="720" d="M494 431Q494 399 477 376T427 344Q448 333 458 317T475 281T487 238T505 189H427Q418 209 413 230T403 271T389 306T361 328H336Q341 345 350 361T382 382Q399 386 408 399T417 431Q417
452 401 465T354 478Q345 478 339 478T319 475V189H245V522Q304 536 354 536Q416 536 455 508T494 431ZM357 617Q304 617 259 598T180 545T129 462T110 354Q110 295 128 248T180 166T258 114T357 95Q409 95 453 113T531 165T582 248T601 357Q601 415 583 463T531
545T454 598T357 617ZM357 686Q430 686 490 661T594 592T661 487T685 357Q685 289 661 229T593 123T489 52T357 25Q283 25 222 50T118 119T50 225T26 357Q26 424 50 483T119 588T223 659T357 686Z" />
<glyph unicode="&#xaf;" glyph-name="overscore" horiz-adv-x="500" d="M410 607H112V683H410V607Z" />
<glyph unicode="&#xb0;" glyph-name="degree" horiz-adv-x="337" d="M23 623Q23 654 35 680T68 726T116 757T175 769Q203 769 230 759T279 731T314 685T327 623Q327 590 314 563T280 517T231 488T175 477Q145 477 118 487T69 517T36 563T23 623ZM175 706Q141 706
120 682T99 623Q99 587 120 564T175 541Q210 541 231 565T252 623Q252 662 229 684T175 706Z" />
<glyph unicode="&#xb1;" glyph-name="plusminus" horiz-adv-x="568" d="M515 0H47V85H515V0ZM47 293V377H233V534H327V377H515V293H327V134H233V293H47Z" />
<glyph unicode="&#xb2;" glyph-name="twosuperior" horiz-adv-x="402" d="M333 628Q333 592 316 561T275 501T224 444T178 386L169 376L182 378H334V310H71V352Q98 399 130 436T189 504T234 564T252 621Q252 647 234 660T185 673Q153 673 116 657L90 711Q117 725
145 730T197 736Q225 736 250 729T293 708T322 674T333 628Z" />
<glyph unicode="&#xb3;" glyph-name="threesuperior" horiz-adv-x="381" d="M303 639Q303 607 282 581T226 539Q243 535 259 526T288 504T309 472T317 431Q317 402 305 379T272 338T222 311T158 301Q126 301 98 310T55 329L75 385Q93 377 113 371T157 365Q194
365 214 385T235 433Q235 501 132 501L125 552L157 565Q179 574 195 585T216 614Q221 628 218 641Q216 652 203 661T170 671Q153 671 134 667T95 656L71 710Q100 724 125 729T176 735Q231 735 267 711T303 639Z" />
<glyph unicode="&#xb4;" glyph-name="acute" horiz-adv-x="322" d="M270 740L187 640Q174 624 158 615T123 602T89 598T59 602L147 740H270Z" />
<glyph unicode="&#xb5;" glyph-name="mu" horiz-adv-x="553" d="M402 76L392 55Q372 26 342 8T265 -10Q244 -10 222 -3T184 18L170 37Q170 30 170 24T171 10V-211H63V517H177V210Q177 150 202 115T274 79Q297 79 317 88T353 114T377 152T386 199V517H501V155Q501
113 513 96T556 81L567 4Q550 -2 532 -5T502 -8Q474 -8 447 6T407 56L402 76Z" />
<glyph unicode="&#xb6;" glyph-name="paragraph" horiz-adv-x="609" d="M325 -30V304Q323 305 323 305Q278 309 238 325T169 370T122 436T104 520Q104 563 120 603T168 673T246 722T353 740Q380 740 404 739T451 736T498 730T551 720V-30H478V658Q455 662 436
663T398 666V-30H325Z" />
<glyph unicode="&#xb7;" glyph-name="middot" horiz-adv-x="306" d="M78 304Q78 336 99 357T152 379Q184 379 205 358T226 304Q226 273 205 252T152 231Q120 231 99 252T78 304Z" />
<glyph unicode="&#xb8;" glyph-name="cedilla" horiz-adv-x="500" d="M227 -3L287 3L275 -46Q305 -51 330 -71T356 -123Q356 -146 345 -162T317 -189T278 -205T234 -210Q217 -210 198 -206T154 -191L170 -140Q189 -148 204 -150T234 -153Q251 -153 265 -147T279
-126Q279 -109 260 -101T205 -88L227 -3Z" />
<glyph unicode="&#xb9;" glyph-name="onesuperior" horiz-adv-x="319" d="M260 309H173V626L114 597L82 654L218 727H260V309Z" />
<glyph unicode="&#xba;" glyph-name="ordmasculine" horiz-adv-x="430" d="M124 483Q124 428 146 393T214 358Q259 358 282 394T305 483Q305 508 300 531T283 571T255 598T214 608Q192 608 176 598T148 571T130 532T124 483ZM214 294Q134 294 87 343T39 483Q39
522 50 556T84 615T139 656T214 671Q295 671 342 621T389 483Q389 443 378 409T344 349T289 309T214 294Z" />
<glyph unicode="&#xbb;" glyph-name="guillemotright" horiz-adv-x="613" d="M594 258L368 47L317 96L450 258L317 420L368 470L594 258ZM330 258L103 47L53 96L185 258L53 420L103 470L330 258Z" />
<glyph unicode="&#xbc;" glyph-name="onequarter" horiz-adv-x="698" d="M342 144L529 423H614V148H662V85H614V0H538V283L539 316L521 288L440 171L423 148H447Q460 148 470 142T488 127T501 106T511 85H342V144ZM200 309H113V626L54 597L22 654L158 727H200V309ZM165
0H75L511 727H601L165 0Z" />
<glyph unicode="&#xbd;" glyph-name="onehalf" horiz-adv-x="763" d="M686 318Q686 282 669 251T628 192T578 135T532 78L522 66L538 68H687V0H424V42Q451 89 483 126T542 194T587 254T605 311Q605 337 587 350T538 363Q506 363 469 347L443 401Q470 415 498 420T550
426Q578 426 603 419T646 398T675 364T686 318ZM200 309H113V626L54 597L22 654L158 727H200V309ZM165 0H75L511 727H601L165 0Z" />
<glyph unicode="&#xbe;" glyph-name="threequarters" horiz-adv-x="716" d="M273 639Q273 607 252 581T196 539Q213 535 229 526T258 504T279 472T287 431Q287 402 275 379T242 338T192 311T128 301Q96 301 68 310T25 329L45 385Q63 377 83 371T127 365Q163 365
183 385T204 433Q204 501 101 501L95 552L127 565Q148 574 164 585T185 614Q190 625 188 641Q185 652 173 661T140 671Q123 671 104 667T65 656L41 710Q69 724 95 729T146 735Q201 735 237 711T273 639ZM379 144L566 423H651V148H699V85H651V0H575V314L461 148H484Q497
148 507 142T525 127T538 106T548 85H379V144ZM202 0H111L547 727H638L202 0Z" />
<glyph unicode="&#xbf;" glyph-name="questiondown" horiz-adv-x="583" d="M413 457Q413 426 392 404T339 382Q307 382 286 404T265 457Q265 489 286 510T339 531Q371 531 392 510T413 457ZM310 -221Q263 -221 224 -210T156 -178T111 -128T95 -63Q95 -25 109 6T145
65T191 120T238 174T273 234T288 303H389Q389 254 377 217T346 151T305 97T265 50T234 4T221 -48Q221 -84 248 -106T320 -129Q349 -129 379 -123T454 -96L486 -180Q434 -205 393 -213T310 -221Z" />
<glyph unicode="&#xc0;" glyph-name="Agrave" horiz-adv-x="687" d="M283 802L217 890H335L409 765Q396 762 379 762T344 765T310 778T283 802ZM283 727H406L667 0H536L340 588L237 274L225 254L239 256H337Q357 256 372 248T399 226T418 197T431 165H201L146
0H22L283 727Z" />
<glyph unicode="&#xc1;" glyph-name="Aacute" horiz-adv-x="687" d="M491 890L413 802Q400 787 383 779T349 766T314 762T285 765L372 890H491ZM282 727H404L666 0H535L339 588L235 274L224 254L238 256H336Q356 256 371 248T398 226T417 197T430 165H200L144
0H21L282 727Z" />
<glyph unicode="&#xc2;" glyph-name="Acircumflex" horiz-adv-x="687" d="M298 890H383L492 772L422 758L340 815L259 758L191 772L298 890ZM283 727H406L667 0H536L340 588L237 274L225 254L239 256H337Q357 256 372 248T399 226T418 197T431 165H201L146 0H22L283 727Z" />
<glyph unicode="&#xc3;" glyph-name="Atilde" horiz-adv-x="687" d="M261 777L193 783Q195 838 223 867T289 897Q311 897 327 889T356 870T381 852T407 843Q420 843 428 856T438 893L503 887Q502 856 493 834T471 799T443 779T413 773Q388 773 372 781T343 800T320
818T296 827Q285 827 274 816T261 777ZM283 727H406L667 0H536L340 588L237 274L225 254L239 256H337Q357 256 372 248T399 226T418 197T431 165H201L146 0H22L283 727Z" />
<glyph unicode="&#xc4;" glyph-name="Adieresis" horiz-adv-x="687" d="M381 840Q381 865 398 882T440 899Q465 899 482 882T500 840Q500 815 483 798T440 781Q416 781 399 798T381 840ZM187 840Q187 865 204 882T245 899Q270 899 287 882T305 840Q305 815 288
798T245 781Q222 781 205 798T187 840ZM283 727H406L667 0H536L340 588L237 274L225 254L239 256H337Q357 256 372 248T399 226T418 197T431 165H201L146 0H22L283 727Z" />
<glyph unicode="&#xc5;" glyph-name="Aring" horiz-adv-x="687" d="M344 757Q364 757 375 769T386 801Q386 820 375 832T344 845Q326 845 315 832T304 799Q304 783 315 770T344 757ZM146 0H23L283 724Q239 749 239 799Q239 840 269 866T345 893Q392 893 420 868T449
800Q449 775 438 756T407 725L668 0H537Q491 137 445 271T354 543L341 586L327 542Q304 475 282 408T237 274L226 254L238 256H338Q358 256 373 248T400 226T419 197T432 165H202L146 0Z" />
<glyph unicode="&#xc6;" glyph-name="AE" horiz-adv-x="975" d="M719 426H854V337H617Q622 354 630 370T650 398T679 418T719 426ZM516 0L433 543Q432 551 431 558T429 572L426 610L412 573L265 274L251 254L270 256H360Q380 256 395 248T422 226T441 197T454
165H214L133 0H8L379 727H844V636H536L619 91H915V0H516Z" />
<glyph unicode="&#xc7;" glyph-name="Ccedilla" horiz-adv-x="652" d="M435 -12Q426 -12 418 -12T402 -11L393 -46Q423 -51 448 -71T474 -123Q474 -146 463 -162T435 -189T396 -205T352 -210Q335 -210 316 -206T272 -191L288 -140Q307 -148 322 -150T352 -153Q369
-153 383 -147T397 -126Q397 -109 378 -101T323 -88L345 -3Q278 10 225 42T134 122T77 231T57 363Q57 443 84 512T160 631T279 711T435 740Q477 740 520 732T611 706L579 624Q534 638 502 643T435 648Q378 648 333 627T256 567T207 476T190 363Q190 303 207 251T256
161T333 101T435 79Q470 79 505 87T578 115L611 34Q566 10 522 -1T435 -12Z" />
<glyph unicode="&#xc8;" glyph-name="Egrave" horiz-adv-x="577" d="M241 802L176 890H294L368 765Q355 762 338 762T303 765T269 778T241 802ZM333 426H469V337H238Q243 352 251 368T270 397T297 418T333 426ZM75 0V727H503V636H200V91H519V0H75Z" />
<glyph unicode="&#xc9;" glyph-name="Eacute" horiz-adv-x="577" d="M446 890L368 802Q355 787 338 779T304 766T269 762T240 765L327 890H446ZM333 426H469V337H238Q243 352 251 368T270 397T297 418T333 426ZM75 0V727H503V636H200V91H519V0H75Z" />
<glyph unicode="&#xca;" glyph-name="Ecircumflex" horiz-adv-x="577" d="M260 890H345L454 772L384 758L302 815L221 758L153 772L260 890ZM333 426H469V337H238Q243 352 251 368T270 397T297 418T333 426ZM75 0V727H503V636H200V91H519V0H75Z" />
<glyph unicode="&#xcb;" glyph-name="Edieresis" horiz-adv-x="577" d="M338 840Q338 865 355 882T397 899Q422 899 439 882T457 840Q457 815 440 798T397 781Q373 781 356 798T338 840ZM144 840Q144 865 161 882T202 899Q227 899 244 882T262 840Q262 815 245
798T202 781Q179 781 162 798T144 840ZM333 426H469V337H238Q243 352 251 368T270 397T297 418T333 426ZM75 0V727H503V636H200V91H519V0H75Z" />
<glyph unicode="&#xcc;" glyph-name="Igrave" horiz-adv-x="279" d="M79 802L14 890H132L206 765Q193 762 176 762T141 765T107 778T79 802ZM204 727V0H82V727H204Z" />
<glyph unicode="&#xcd;" glyph-name="Iacute" horiz-adv-x="321" d="M281 890L203 802Q189 787 172 779T138 766T104 762T74 765L161 890H281ZM195 727V0H74V727H195Z" />
<glyph unicode="&#xce;" glyph-name="Icircumflex" horiz-adv-x="321" d="M117 890H202L311 772L241 758L159 815L78 758L10 772L117 890ZM220 727V0H99V727H220Z" />
<glyph unicode="&#xcf;" glyph-name="Idieresis" horiz-adv-x="350" d="M211 840Q211 865 228 882T270 899Q294 899 311 882T329 840Q329 815 312 798T270 781Q246 781 229 798T211 840ZM16 840Q16 865 33 882T75 899Q100 899 117 882T135 840Q135 815 118 798T75
781Q51 781 34 798T16 840ZM234 727V0H112V727H234Z" />
<glyph unicode="&#xd0;" glyph-name="Eth" horiz-adv-x="713" d="M-5 315V396H75V715Q135 728 193 734T295 740Q393 740 469 714T599 640T680 522T708 365Q708 285 682 216T609 97T499 17T363 -12Q348 -12 335 -12T307 -9T277 -4T238 5Q244 18 253 31T274 56T301
74T336 80Q342 79 345 79T353 79Q407 79 448 103T518 167T560 258T575 365Q575 429 559 481T508 571T421 628T295 648Q271 648 247 646T199 641V396H411V315H199V0H75V315H-5Z" />
<glyph unicode="&#xd1;" glyph-name="Ntilde" horiz-adv-x="749" d="M290 777L223 783Q224 810 232 831T253 867T283 889T318 897Q340 897 356 889T385 870T411 852T436 843Q450 843 457 856T467 893L533 887Q531 856 523 834T501 799T473 779T442 773Q418 773
402 781T373 800T349 818T325 827Q314 827 303 816T290 777ZM549 0L210 537L196 571L198 537V0H92V727H213L520 239Q525 231 529 224T539 208L551 175L549 210V727H659V0H549Z" />
<glyph unicode="&#xd2;" glyph-name="Ograve" horiz-adv-x="791" d="M290 802L225 890H343L417 765Q404 762 387 762T352 765T318 778T290 802ZM602 364Q602 425 587 477T543 568T474 628T383 650Q332 650 292 628T223 568T179 478T163 364Q163 305 178 253T222
161T291 100T383 77Q433 77 473 99T542 161T586 252T602 364ZM735 364Q735 280 708 211T634 91T522 14T383 -14Q303 -14 238 13T127 89T56 209T30 364Q30 448 56 517T129 637T241 714T383 742Q462 742 527 715T638 638T709 519T735 364Z" />
<glyph unicode="&#xd3;" glyph-name="Oacute" horiz-adv-x="791" d="M542 890L464 802Q451 787 434 779T400 766T365 762T336 765L423 890H542ZM601 364Q601 425 586 477T542 568T473 628T381 650Q331 650 291 628T222 568T178 478T162 364Q162 305 177 253T221
161T290 100T381 77Q432 77 472 99T541 161T585 252T601 364ZM733 364Q733 280 706 211T632 91T520 14T381 -14Q302 -14 237 13T126 89T55 209T29 364Q29 448 55 517T128 637T239 714T381 742Q460 742 525 715T636 638T708 519T733 364Z" />
<glyph unicode="&#xd4;" glyph-name="Ocircumflex" horiz-adv-x="791" d="M341 890H426L535 772L465 758L383 815L302 758L234 772L341 890ZM601 364Q601 425 586 477T542 568T473 628T381 650Q331 650 291 628T222 568T178 478T162 364Q162 305 177 253T221 161T290
100T381 77Q432 77 472 99T541 161T585 252T601 364ZM733 364Q733 280 706 211T632 91T520 14T381 -14Q302 -14 237 13T126 89T55 209T29 364Q29 448 55 517T128 637T239 714T381 742Q460 742 525 715T636 638T708 519T733 364Z" />
<glyph unicode="&#xd5;" glyph-name="Otilde" horiz-adv-x="791" d="M299 777L232 783Q233 810 241 831T262 867T292 889T327 897Q349 897 365 889T394 870T420 852T445 843Q459 843 466 856T476 893L542 887Q540 856 532 834T510 799T482 779T451 773Q427 773
411 781T382 800T358 818T334 827Q323 827 312 816T299 777ZM601 364Q601 425 586 477T543 568T474 628T382 650Q331 650 291 628T222 568T178 478T163 364Q163 305 178 253T222 161T291 100T382 77Q433 77 473 99T542 161T586 252T601 364ZM734 364Q734 280 707
211T633 91T521 14T382 -14Q303 -14 238 13T127 89T55 209T29 364Q29 448 55 517T128 637T240 714T382 742Q461 742 526 715T637 638T708 519T734 364Z" />
<glyph unicode="&#xd6;" glyph-name="Odieresis" horiz-adv-x="791" d="M422 840Q422 865 439 882T481 899Q505 899 522 882T540 840Q540 815 523 798T481 781Q457 781 440 798T422 840ZM227 840Q227 865 244 882T286 899Q311 899 328 882T346 840Q346 815 329
798T286 781Q262 781 245 798T227 840ZM601 364Q601 425 586 477T543 568T474 628T382 650Q331 650 291 628T222 568T178 478T163 364Q163 305 178 253T222 161T291 100T382 77Q433 77 473 99T542 161T586 252T601 364ZM734 364Q734 280 707 211T633 91T521 14T382
-14Q303 -14 238 13T127 89T55 209T29 364Q29 448 55 517T128 637T240 714T382 742Q461 742 526 715T637 638T708 519T734 364Z" />
<glyph unicode="&#xd7;" glyph-name="multiply" horiz-adv-x="568" d="M108 70L45 133L216 306L45 477L109 540L281 370L451 540L514 477L345 306L516 133L453 70L281 241L108 70Z" />
<glyph unicode="&#xd8;" glyph-name="Oslash" horiz-adv-x="791" d="M603 364Q603 423 588 473T547 561L298 140Q287 153 278 168T264 201T259 236T270 274L480 625Q437 651 382 651Q331 651 291 629T221 569T177 478T161 364Q161 305 176 253T221 161T291 100T382
77Q433 77 473 99T543 161T587 252T603 364ZM681 789L608 665Q668 615 701 538T734 364Q734 280 707 211T633 91T521 14T382 -14Q340 -14 303 -6T232 16L188 -60H85L157 62Q96 112 63 188T29 364Q29 448 55 517T128 637T240 714T382 742Q463 742 531 711L578 789H681Z"
/>
<glyph unicode="&#xd9;" glyph-name="Ugrave" horiz-adv-x="694" d="M274 802L208 890H327L401 765Q388 762 371 762T336 765T302 778T274 802ZM348 -14Q282 -14 230 5T141 62T85 152T65 274V727H188V259Q188 217 200 183T233 126T283 90T348 77Q418 77 462 125T507
259V727H630V274Q630 209 610 156T553 65T464 7T348 -14Z" />
<glyph unicode="&#xda;" glyph-name="Uacute" horiz-adv-x="694" d="M502 890L424 802Q411 787 394 779T360 766T325 762T296 765L383 890H502ZM347 -14Q281 -14 229 5T140 62T84 152T64 274V727H188V259Q188 174 232 126T347 77Q417 77 461 125T506 259V727H629V274Q629
209 609 156T552 65T463 7T347 -14Z" />
<glyph unicode="&#xdb;" glyph-name="Ucircumflex" horiz-adv-x="694" d="M304 890H389L498 772L428 758L346 815L265 758L197 772L304 890ZM347 -14Q281 -14 229 5T140 62T84 152T64 274V727H188V259Q188 174 232 126T347 77Q417 77 461 125T506 259V727H629V274Q629
209 609 156T552 65T463 7T347 -14Z" />
<glyph unicode="&#xdc;" glyph-name="Udieresis" horiz-adv-x="694" d="M386 840Q386 865 403 882T445 899Q469 899 486 882T504 840Q504 815 487 798T445 781Q421 781 404 798T386 840ZM191 840Q191 865 208 882T250 899Q275 899 292 882T310 840Q310 815 293
798T250 781Q226 781 209 798T191 840ZM346 -14Q280 -14 228 5T140 62T84 152T64 274V727H187V259Q187 174 231 126T346 77Q381 77 410 89T461 125T494 183T506 259V727H628V274Q628 209 608 156T552 65T463 7T346 -14Z" />
<glyph unicode="&#xdd;" glyph-name="Yacute" horiz-adv-x="660" d="M498 890L420 802Q407 787 390 779T356 766T321 762T292 765L379 890H498ZM385 536L491 727H627L414 377Q405 389 395 407T378 447T372 492T385 536ZM152 727L385 338V0H264V317L14 727H152Z" />
<glyph unicode="&#xde;" glyph-name="Thorn" horiz-adv-x="609" d="M570 364Q570 313 551 274T499 206T424 161T337 140Q314 138 289 139T236 149Q242 162 250 176T268 201T292 219T323 228Q345 229 366 240T404 269T430 311T440 364Q440 393 429 418T399 461T352
489T292 500Q265 500 245 499T198 494V0H79V727H198V588Q221 590 243 591T292 592Q353 592 404 576T492 529T549 457T570 364Z" />
<glyph unicode="&#xdf;" glyph-name="germandbls" horiz-adv-x="567" d="M249 25L280 104Q312 90 337 85T381 80Q409 80 428 97T447 141Q447 164 434 182T402 215T360 247T318 285T286 334T273 401Q273 445 303 484T387 544Q390 555 391 565T392 588Q392 626 366
650T300 675Q279 675 260 668T225 645T201 608T192 555V0Q163 0 135 0T77 -1V544Q77 598 93 638T139 707T207 749T292 763Q338 763 375 750T437 713T475 658T489 588Q489 538 452 479Q418 465 401 447T383 401Q383 377 396 360T428 327T470 295T512 257T544 207T557
137Q557 103 544 76T508 29T456 -1T394 -12Q364 -12 331 -6T249 25Z" />
<glyph unicode="&#xe0;" glyph-name="agrave" horiz-adv-x="527" d="M464 312V172Q464 123 466 83T480 0H390Q373 9 364 28T350 65Q307 18 270 3T193 -12Q156 -12 127 0T77 32T45 79T34 136Q34 170 47 198T93 249T178 286T309 309Q304 280 289 254T239 222Q191
214 173 193T154 146Q154 118 173 99T225 79Q255 79 286 97T345 150V315Q345 370 317 403T229 436Q203 436 175 431T112 413L82 491Q128 512 167 520T240 528Q350 528 407 472T464 312ZM181 642L114 740H233L306 602Q293 599 277 599T244 603T211 617T181 642Z"
/>
<glyph unicode="&#xe1;" glyph-name="aacute" horiz-adv-x="527" d="M466 312V172Q466 123 468 83T482 0H390Q373 9 364 28T350 65Q307 18 270 3T193 -12Q156 -12 127 0T76 32T44 79T33 136Q33 170 46 198T92 249T177 286T308 309Q303 280 288 254T239 222Q190
214 172 193T154 146Q154 118 173 99T224 79Q255 79 286 97T344 150V315Q344 370 316 403T228 436Q202 436 175 431T112 413L82 491Q128 512 166 520T240 528Q350 528 408 472T466 312ZM418 740L335 640Q322 624 306 615T271 602T237 598T207 602L295 740H418Z"
/>
<glyph unicode="&#xe2;" glyph-name="acircumflex" horiz-adv-x="527" d="M466 312V172Q466 123 468 83T482 0H390Q373 9 364 28T350 65Q307 18 270 3T193 -12Q156 -12 127 0T77 32T45 79T34 136Q34 170 47 198T93 249T178 286T309 309Q304 280 289 254T239 222Q191
214 173 193T154 146Q154 118 173 99T225 79Q255 79 286 97T345 150V315Q345 370 317 403T229 436Q203 436 175 431T112 413L82 491Q128 512 167 520T240 528Q350 528 408 472T466 312ZM224 743H309L418 601L348 587L266 664L185 587L117 601L224 743Z" />
<glyph unicode="&#xe3;" glyph-name="atilde" horiz-adv-x="527" d="M178 618L111 624Q113 679 141 708T206 738Q228 738 244 730T273 711T299 693T324 684Q337 684 345 697T355 734L420 728Q419 697 410 675T389 640T361 620T330 614Q306 614 290 622T260 641T237
659T213 668Q202 668 191 657T178 618ZM467 312V172Q467 123 469 83T483 0H391Q374 9 365 28T351 65Q308 18 271 3T194 -12Q157 -12 128 0T77 32T45 79T34 136Q34 170 47 198T93 249T178 286T309 309Q304 280 289 254T240 222Q191 214 173 193T155 146Q155 118
174 99T225 79Q256 79 287 97T345 150V315Q345 370 317 403T229 436Q203 436 176 431T113 413L83 491Q129 512 167 520T241 528Q351 528 409 472T467 312Z" />
<glyph unicode="&#xe4;" glyph-name="adieresis" horiz-adv-x="527" d="M467 312V172Q467 123 469 83T483 0H391Q374 9 365 28T351 65Q308 18 271 3T194 -12Q157 -12 128 0T77 32T45 79T34 136Q34 170 47 198T93 249T178 286T309 309Q304 280 289 254T240 222Q191
214 173 193T155 146Q155 118 174 99T225 79Q256 79 287 97T345 150V315Q345 370 317 403T229 436Q203 436 176 431T113 413L83 491Q129 512 167 520T241 528Q351 528 409 472T467 312ZM306 670Q306 695 323 712T365 729Q389 729 406 712T424 670Q424 645 407 628T365
611Q341 611 324 628T306 670ZM111 670Q111 695 128 712T170 729Q195 729 212 712T230 670Q230 645 213 628T170 611Q146 611 129 628T111 670Z" />
<glyph unicode="&#xe5;" glyph-name="aring" horiz-adv-x="527" d="M267 613Q287 613 298 625T309 657Q309 676 298 688T267 701Q249 701 238 688T227 655Q227 639 237 626T267 613ZM267 564Q221 564 192 590T162 655Q162 696 192 722T268 749Q315 749 343 724T372
656Q372 615 342 590T267 564ZM467 312V172Q467 123 469 83T483 0H391Q374 9 365 28T351 65Q308 18 271 3T194 -12Q157 -12 128 0T77 32T45 79T34 136Q34 170 47 198T93 249T178 286T309 309Q304 280 289 254T240 222Q191 214 173 193T155 146Q155 118 174 99T225
79Q256 79 287 97T345 150V315Q345 370 317 403T229 436Q203 436 176 431T113 413L83 491Q129 512 172 520T250 528Q353 528 410 472T467 312Z" />
<glyph unicode="&#xe6;" glyph-name="ae" horiz-adv-x="850" d="M584 317H688Q691 342 685 364T667 404T635 431T593 441Q568 441 545 431T505 399T477 345T466 268Q466 180 507 130T614 79Q649 79 681 87T757 116L789 33Q737 8 691 -2T601 -12Q567 -12 536 -1T480
30T436 74T408 125Q394 90 372 65T324 22T268 -3T210 -12Q130 -12 82 28T34 136Q34 170 47 198T93 249T178 286T309 309Q306 287 296 265T262 232Q236 216 216 209T183 196T162 179T155 146Q155 118 174 99T225 79Q282 79 313 129T345 264V315Q345 370 317 403T229
436Q203 436 176 431T113 413L83 491Q129 512 172 520T250 528Q302 528 346 500T417 420Q430 444 450 464T495 499T546 521T601 529Q655 529 698 507T768 445T801 354T787 241H504Q515 273 535 295T584 317Z" />
<glyph unicode="&#xe7;" glyph-name="ccedilla" horiz-adv-x="427" d="M285 -12H284L275 -46Q305 -51 330 -71T356 -123Q356 -146 345 -162T317 -189T278 -205T234 -210Q217 -210 198 -206T154 -191L170 -140Q189 -148 204 -150T234 -153Q251 -153 265 -147T279
-126Q279 -109 260 -101T205 -88L226 -6Q184 1 148 21T84 74T42 153T26 259Q26 326 47 376T104 461T186 512T284 529Q311 529 343 524T406 507L375 424Q350 432 327 435T284 438Q229 438 193 392T156 259Q156 171 192 125T284 79Q325 79 389 105L419 23Q380 5 346
-3T285 -12Z" />
<glyph unicode="&#xe8;" glyph-name="egrave" horiz-adv-x="544" d="M209 642L142 740H261L334 602Q321 599 305 599T272 603T238 617T209 642ZM281 317H385Q388 342 382 364T364 404T332 431T290 441Q265 441 242 431T202 399T174 345T163 268Q163 180 204 130T311
79Q346 79 378 87T454 116L486 33Q434 8 388 -2T298 -12Q235 -12 187 11T107 72T58 161T42 265Q42 326 61 375T115 458T196 511T298 529Q352 529 395 507T465 445T498 354T484 241H201Q212 273 232 295T281 317Z" />
<glyph unicode="&#xe9;" glyph-name="eacute" horiz-adv-x="544" d="M443 740L361 640Q348 624 331 615T297 602T262 598T233 602L320 740H443ZM281 317H384Q387 342 382 364T363 404T332 431T289 441Q264 441 242 431T202 399T174 345T163 268Q163 180 204 130T310
79Q345 79 377 87T454 116L485 33Q433 8 387 -2T297 -12Q234 -12 186 11T106 72T58 161T42 265Q42 326 61 375T114 458T195 511T297 529Q351 529 394 507T464 445T497 354T484 241H200Q211 273 231 295T281 317Z" />
<glyph unicode="&#xea;" glyph-name="ecircumflex" horiz-adv-x="544" d="M249 743H334L443 601L373 587L291 664L210 587L142 601L249 743ZM280 317H383Q386 342 381 364T363 404T331 431T289 441Q264 441 241 431T201 399T173 345T162 268Q162 180 203 130T310
79Q345 79 377 87T453 116L484 33Q432 8 386 -2T297 -12Q233 -12 185 11T105 72T57 161T41 265Q41 326 60 375T113 458T194 511T297 529Q351 529 394 507T463 445T496 354T483 241H199Q210 273 230 295T280 317Z" />
<glyph unicode="&#xeb;" glyph-name="edieresis" horiz-adv-x="544" d="M323 670Q323 695 340 712T382 729Q407 729 424 712T442 670Q442 645 425 628T382 611Q358 611 341 628T323 670ZM129 670Q129 695 146 712T187 729Q212 729 229 712T247 670Q247 645 230
628T187 611Q164 611 147 628T129 670ZM281 317H385Q388 342 382 364T364 404T332 431T290 441Q265 441 242 431T202 399T174 345T163 268Q163 180 204 130T311 79Q346 79 378 87T454 116L486 33Q434 8 388 -2T298 -12Q235 -12 187 11T107 72T58 161T42 265Q42
326 61 375T115 458T196 511T298 529Q352 529 395 507T465 445T498 354T484 241H201Q212 273 232 295T281 317Z" />
<glyph unicode="&#xec;" glyph-name="igrave" horiz-adv-x="276" d="M73 642L6 740H125L198 602Q185 599 169 599T136 603T102 617T73 642ZM220 0H97V517H220V0Z" />
<glyph unicode="&#xed;" glyph-name="iacute" horiz-adv-x="273" d="M272 740L189 640Q176 624 160 615T125 602T91 598T61 602L149 740H272ZM180 0H56V517H180V0Z" />
<glyph unicode="&#xee;" glyph-name="icircumflex" horiz-adv-x="337" d="M125 743H210L319 601L249 587L167 664L86 587L18 601L125 743ZM229 0H105V517H229V0Z" />
<glyph unicode="&#xef;" glyph-name="idieresis" horiz-adv-x="352" d="M213 670Q213 695 230 712T272 729Q297 729 314 712T332 670Q332 645 315 628T272 611Q248 611 231 628T213 670ZM19 670Q19 695 36 712T78 729Q102 729 120 712T138 670Q138 645 120 628T78
611Q54 611 37 628T19 670ZM238 0H115V517H238V0Z" />
<glyph unicode="&#xf0;" glyph-name="eth" horiz-adv-x="557" d="M409 259Q409 340 375 389T282 438Q223 438 188 389T153 259Q153 177 188 128T282 79Q340 79 374 128T409 259ZM539 259Q539 198 519 148T463 63T382 8T282 -12Q228 -12 181 6T99 60T44 145T24
259Q24 319 44 369T100 454T182 509T282 529Q322 529 369 505Q346 534 320 560T269 605L150 549L127 601L213 643Q170 670 124 692L163 761Q199 745 234 727T302 685L413 738L438 685L355 645Q388 617 421 577T480 488T522 381T539 259Z" />
<glyph unicode="&#xf1;" glyph-name="ntilde" horiz-adv-x="596" d="M207 618L140 624Q142 679 170 708T235 738Q257 738 273 730T302 711T328 693T353 684Q366 684 374 697T384 734L449 728Q448 697 439 675T418 640T390 620T359 614Q335 614 319 622T289 641T266
659T242 668Q231 668 220 657T207 618ZM396 0V370Q396 399 384 417T344 436Q328 436 313 432T281 429Q261 429 247 445T220 480Q271 509 307 519T376 529Q403 529 429 520T475 492T507 442T519 368V0H396ZM56 517H155Q179 490 187 464T195 407V0H71V391Q71 419
68 450T56 517Z" />
<glyph unicode="&#xf2;" glyph-name="ograve" horiz-adv-x="566" d="M209 642L142 740H262L335 602Q322 599 306 599T273 603T239 617T209 642ZM409 259Q409 340 374 389T281 438Q223 438 188 389T153 259Q153 177 187 128T281 79Q339 79 374 128T409 259ZM539
259Q539 198 519 148T463 63T381 8T281 -12Q227 -12 180 6T98 60T43 145T23 259Q23 319 43 369T99 454T181 509T281 529Q335 529 382 511T464 457T519 372T539 259Z" />
<glyph unicode="&#xf3;" glyph-name="oacute" horiz-adv-x="566" d="M435 740L352 640Q339 624 323 615T288 602T254 598T224 602L312 740H435ZM409 259Q409 340 374 389T281 438Q223 438 188 389T153 259Q153 177 187 128T281 79Q339 79 374 128T409 259ZM539
259Q539 198 519 148T463 63T381 8T281 -12Q227 -12 180 6T98 60T43 145T23 259Q23 319 43 369T99 454T181 509T281 529Q335 529 382 511T464 457T519 372T539 259Z" />
<glyph unicode="&#xf4;" glyph-name="ocircumflex" horiz-adv-x="566" d="M238 743H324L432 601L362 587L280 664L200 587L132 601L238 743ZM409 259Q409 340 374 389T281 438Q223 438 188 389T153 259Q153 177 187 128T281 79Q339 79 374 128T409 259ZM539 259Q539
198 519 148T463 63T381 8T281 -12Q227 -12 180 6T98 60T43 145T23 259Q23 319 43 369T99 454T181 509T281 529Q335 529 382 511T464 457T519 372T539 259Z" />
<glyph unicode="&#xf5;" glyph-name="otilde" horiz-adv-x="566" d="M194 618L127 624Q128 651 136 672T157 708T187 730T222 738Q244 738 260 730T289 711T315 693T340 684Q354 684 361 697T371 734L437 728Q435 697 427 675T405 640T377 620T346 614Q322 614
306 622T277 641T253 659T229 668Q218 668 207 657T194 618ZM409 259Q409 340 374 389T281 438Q223 438 188 389T153 259Q153 177 187 128T281 79Q339 79 374 128T409 259ZM539 259Q539 198 519 148T463 63T381 8T281 -12Q227 -12 180 6T98 60T43 145T23 259Q23
319 43 369T99 454T181 509T281 529Q335 529 382 511T464 457T519 372T539 259Z" />
<glyph unicode="&#xf6;" glyph-name="odieresis" horiz-adv-x="566" d="M319 670Q319 695 336 712T378 729Q402 729 419 712T437 670Q437 645 420 628T378 611Q354 611 337 628T319 670ZM124 670Q124 695 141 712T183 729Q208 729 225 712T243 670Q243 645 226
628T183 611Q159 611 142 628T124 670ZM408 259Q408 340 374 389T280 438Q222 438 187 389T152 259Q152 177 187 128T280 79Q339 79 373 128T408 259ZM538 259Q538 198 518 148T462 63T380 8T280 -12Q226 -12 179 6T98 60T43 145T23 259Q23 319 43 369T98 454T180
509T280 529Q334 529 381 511T463 457T518 372T538 259Z" />
<glyph unicode="&#xf7;" glyph-name="divide" horiz-adv-x="568" d="M223 112Q223 138 239 154T280 171Q306 171 322 155T339 112Q339 87 323 71T280 55Q255 55 239 71T223 112ZM224 494Q224 520 239 536T280 552Q306 552 322 536T338 494Q338 469 322 454T280
438Q255 438 240 453T224 494ZM47 263V347H515V263H47Z" />
<glyph unicode="&#xf8;" glyph-name="oslash" horiz-adv-x="500" d="M411 259Q411 288 406 314T390 360L248 121Q231 141 221 171T226 233L339 423Q312 439 281 439Q252 439 228 426T187 390T160 333T150 259Q150 177 186 128T281 78Q339 78 375 127T411 259ZM538
259Q538 198 518 148T462 63T381 8T281 -12Q254 -12 229 -7T181 6L139 -66H50L115 45Q72 80 49 134T25 259Q25 319 45 369T99 454T181 509T281 529Q338 529 390 507L430 573H516L453 466Q493 431 515 379T538 259Z" />
<glyph unicode="&#xf9;" glyph-name="ugrave" horiz-adv-x="587" d="M203 642L136 740H256L329 602Q316 599 300 599T267 603T233 617T203 642ZM179 517V147Q179 118 190 100T230 81Q243 81 256 85T287 89Q308 90 324 74T355 37Q304 8 267 -2T198 -12Q171 -12
146 -3T101 25T69 75T57 149V517H179ZM518 0H419Q395 27 388 53T380 110V517H502V126Q502 68 518 0Z" />
<glyph unicode="&#xfa;" glyph-name="uacute" horiz-adv-x="587" d="M447 740L365 640Q352 624 335 615T301 602T266 598T237 602L324 740H447ZM180 517V147Q180 118 192 100T232 81Q244 81 257 85T288 89Q309 90 325 74T356 37Q305 8 268 -2T199 -12Q172 -12
147 -3T102 25T70 75T58 149V517H180ZM519 0H420Q397 27 389 53T381 110V517H503V126Q503 68 519 0Z" />
<glyph unicode="&#xfb;" glyph-name="ucircumflex" horiz-adv-x="587" d="M238 743H324L432 601L362 587L280 664L200 587L132 601L238 743ZM180 517V147Q180 118 192 100T232 81Q244 81 257 85T288 89Q309 90 325 74T356 37Q305 8 268 -2T199 -12Q172 -12 147
-3T102 25T70 75T58 149V517H180ZM519 0H420Q397 27 389 53T381 110V517H503V126Q503 68 519 0Z" />
<glyph unicode="&#xfc;" glyph-name="udieresis" horiz-adv-x="587" d="M323 670Q323 695 340 712T382 729Q406 729 423 712T441 670Q441 645 424 628T382 611Q358 611 341 628T323 670ZM128 670Q128 695 145 712T187 729Q212 729 229 712T247 670Q247 645 230
628T187 611Q163 611 146 628T128 670ZM179 517V147Q179 118 191 100T231 81Q243 81 256 85T287 89Q308 90 324 74T355 37Q304 8 268 -2T199 -12Q172 -12 146 -3T101 25T69 75T57 149V517H179ZM519 0H419Q396 27 388 53T380 110V517H503V126Q503 98 506 67T519
0Z" />
<glyph unicode="&#xfd;" glyph-name="yacute" horiz-adv-x="529" d="M429 740L347 640Q334 624 318 615T283 602T249 598T219 602L306 740H429ZM114 -157Q141 -157 160 -144T194 -105T222 -44T250 37L401 517H526L343 11Q320 -49 300 -97T255 -178T197 -229T114
-247Q72 -247 24 -230L53 -149Q70 -154 85 -155T114 -157ZM135 517Q147 478 160 438T187 357T210 276T226 198Q230 172 229 145T222 94T209 48T191 12L4 517H135Z" />
<glyph unicode="&#xfe;" glyph-name="thorn" horiz-adv-x="598" d="M80 -241V758H196V90Q219 83 241 81T284 78Q316 78 341 92T384 132T411 193T421 271Q421 304 415 334T395 387T360 423T311 435Q297 434 286 439T265 453T247 474T231 500Q259 512 288 518T343
525Q388 525 426 505T492 451T535 370T551 271Q551 210 532 158T478 68T394 9T284 -13Q261 -13 240 -11T196 -2V-241H80Z" />
<glyph unicode="&#xff;" glyph-name="ydieresis" horiz-adv-x="529" d="M305 670Q305 695 322 712T364 729Q389 729 406 712T424 670Q424 645 407 628T364 611Q340 611 323 628T305 670ZM111 670Q111 695 128 712T169 729Q194 729 211 712T229 670Q229 645 212
628T169 611Q146 611 129 628T111 670ZM113 -157Q140 -157 159 -144T193 -105T221 -44T250 37L400 517H526L343 11Q320 -49 300 -97T254 -178T196 -229T113 -247Q70 -247 24 -230L53 -149Q70 -154 84 -155T113 -157ZM134 517Q146 478 159 438T186 357T209 276T226
198Q229 172 228 145T222 94T208 48T190 12L4 517H134Z" />
<glyph unicode="&#x2013;" glyph-name="endash" horiz-adv-x="540" d="M469 232H45V318H469V232Z" />
<glyph unicode="&#x2014;" glyph-name="emdash" horiz-adv-x="849" d="M784 232H45V318H784V232Z" />
<glyph unicode="&#x2018;" glyph-name="quoteleft" horiz-adv-x="205" d="M149 727V512H40V590Q40 619 45 646T64 694T98 724T149 727Z" />
<glyph unicode="&#x2019;" glyph-name="quoteright" horiz-adv-x="203" d="M47 512V727H156V649Q156 620 151 593T132 545T98 515T47 512Z" />
<glyph unicode="&#x201a;" glyph-name="quotesinglbase" horiz-adv-x="197" d="M56 -117V98H165V20Q165 -9 160 -36T141 -84T107 -114T56 -117Z" />
<glyph unicode="&#x201c;" glyph-name="quotedblleft" horiz-adv-x="387" d="M150 727V512H41V590Q41 619 46 646T65 694T99 724T150 727ZM342 727V512H234V590Q234 619 239 646T257 694T291 724T342 727Z" />
<glyph unicode="&#x201d;" glyph-name="quotedblright" horiz-adv-x="399" d="M234 512V727H342V649Q342 620 337 593T319 545T285 515T234 512ZM41 512V727H150V649Q150 620 145 593T126 545T92 515T41 512Z" />
<glyph unicode="&#x201e;" glyph-name="quotedblbase" horiz-adv-x="382" d="M234 -117V98H343V20Q343 -9 338 -36T319 -84T285 -114T234 -117ZM42 -117V98H150V20Q150 -9 145 -36T127 -84T93 -114T42 -117Z" />
<glyph unicode="&#x2022;" glyph-name="bullet" horiz-adv-x="500" d="M171 315Q171 353 195 378T257 403Q295 403 320 378T345 315Q345 277 320 253T257 229Q219 229 195 253T171 315Z" />
<glyph unicode="&#x2039;" glyph-name="guilsinglleft" horiz-adv-x="613" d="M409 47L183 258L409 470L460 420L327 258L460 96L409 47Z" />
<glyph unicode="&#x203a;" glyph-name="guilsinglright" horiz-adv-x="613" d="M469 258L243 47L192 96L325 258L192 420L243 470L469 258Z" />
</font>
</defs>
</svg>
