<?xml version="1.0" standalone="no"?>
<!DOCTYPE svg PUBLIC "-//W3C//DTD SVG 1.1//EN" "http://www.w3.org/Graphics/SVG/1.1/DTD/svg11.dtd">
<svg xmlns="http://www.w3.org/2000/svg">
<defs >
<font id="Mitr" horiz-adv-x="592" ><font-face
    font-family="Mitr"
    units-per-em="1000"
    panose-1="0 0 5 0 0 0 0 0 0 0"
    ascent="1150"
    descent="-420"
    alphabetic="0" />
<glyph unicode=" " glyph-name="space" horiz-adv-x="390" />
<glyph unicode="!" glyph-name="exclam" horiz-adv-x="222" d="M68 189T61 197T53 225L47 643Q47 662 55 671T84 680H139Q159 680 167 671T176 643L169 225Q169 206 162 198T134 189H85Q68 189 61 197ZM39 0T39 41V62Q39 104 98 104H124Q183 104 183 62V41Q183
0 124 0H98Q39 0 39 41Z" />
<glyph unicode="&quot;" glyph-name="quotedbl" horiz-adv-x="347" d="M60 491T53 497T45 520L39 670Q38 686 45 692T72 699H106Q125 699 132 693T139 670L132 520Q131 504 124 498T99 491H74Q60 491 53 497ZM229 491T222 497T214 520L208 670Q207 686 214 692T240
699H275Q294 699 301 693T308 670L300 520Q299 504 292 498T268 491H243Q229 491 222 497Z" />
<glyph unicode="#" glyph-name="numbersign" horiz-adv-x="796" d="M67 0T67 12Q67 19 69 23L125 164H72Q51 164 45 170T39 198V223Q39 245 45 252T72 259H161L221 406H124Q103 406 97 412T91 440V465Q91 487 97 494T124 501H258L323 663Q327 673 333 676T353
680H433Q447 680 447 668Q447 664 444 656L382 501H549L614 663Q618 673 624 676T644 680H724Q738 680 738 668Q738 664 735 656L673 501H723Q744 501 750 494T757 465V440Q757 419 751 413T724 406H637L578 259H685Q706 259 712 252T719 223V198Q719 177 713 171T686
164H541L481 16Q477 7 472 4T452 0H371Q358 0 358 12Q358 19 360 23L416 164H249L190 16Q187 7 181 4T161 0H80Q67 0 67 12ZM453 259L512 405H345L286 259H453Z" />
<glyph unicode="$" glyph-name="dollar" horiz-adv-x="589" d="M260 -93T251 -85T242 -57V-11Q113 0 52 42Q39 51 39 58Q39 62 44 70L76 122Q82 131 87 131Q92 131 100 126Q141 104 190 92T289 79Q360 79 391 103T423 174Q423 206 408 225T365 257T273 294Q178
328 120 376T62 505Q62 584 109 630T242 688V738Q242 757 251 766T280 775H324Q344 775 353 766T362 738V691Q415 688 453 676T521 642Q533 633 533 626Q533 619 529 614L498 564Q492 555 487 555Q483 555 475 560Q447 579 406 589T315 600Q252 600 221 578T189
504Q189 475 202 458T238 429T308 399L350 383Q427 353 468 327T530 264T550 170Q550 97 502 49T362 -11V-57Q362 -76 354 -84T324 -93H280Q260 -93 251 -85Z" />
<glyph unicode="%" glyph-name="percent" horiz-adv-x="755" d="M148 392T114 411T59 465T39 543Q39 587 59 621T113 675T190 695Q231 695 265 676T320 622T341 543Q341 500 321 466T266 412T190 392Q148 392 114 411ZM89 0T89 13Q89 20 93 25L531 663Q537 672
542 676T558 680H648Q655 680 659 677T663 667Q663 660 659 655L219 14Q213 6 209 3T195 0H104Q89 0 89 13ZM223 466T245 488T267 543Q267 577 245 599T190 621Q157 621 135 599T113 543Q113 510 135 488T190 466Q223 466 245 488ZM523 -15T489 4T434 58T413 136Q413
179 433 213T488 267T564 287Q606 287 640 268T695 214T716 136Q716 92 696 58T641 5T564 -15Q523 -15 489 4ZM597 59T619 80T642 136Q642 169 620 191T564 213Q532 213 510 191T487 136Q487 102 509 81T564 59Q597 59 619 80Z" />
<glyph unicode="&amp;" glyph-name="ampersand" horiz-adv-x="725" d="M198 -15T119 38T40 193Q40 249 65 295T141 364Q106 384 86 421T66 502Q66 595 138 645T326 695Q463 695 537 634Q545 626 545 619Q545 615 541 607L511 560Q505 550 499 550Q493 550 486
556Q430 598 338 598Q265 598 229 575T192 500Q192 446 224 427T322 408H660Q680 408 688 400T696 372V346Q696 327 688 319T660 311H621V256Q621 178 589 117T490 21T327 -15Q198 -15 119 38ZM419 79T460 125T501 260V311H287Q224 311 195 284T165 199Q165 79
330 79Q419 79 460 125Z" />
<glyph unicode="&apos;" glyph-name="quotesingle" horiz-adv-x="188" d="M60 491T53 497T45 520L39 670Q38 686 45 692T72 699H116Q135 699 142 693T149 670L142 520Q141 504 134 498T109 491H74Q60 491 53 497Z" />
<glyph unicode="(" glyph-name="parenleft" horiz-adv-x="352" d="M191 -96T142 -31T66 124T39 316Q39 417 65 507T141 662T258 755Q283 765 297 765Q329 765 329 725Q329 700 324 690T300 666Q233 616 199 526T165 316Q165 195 198 104T300 -35Q318 -48 323 -58T329
-94Q329 -133 297 -133Q281 -133 258 -124Q191 -96 142 -31Z" />
<glyph unicode=")" glyph-name="parenright" horiz-adv-x="352" d="M70 -133T55 -133Q23 -133 23 -94Q23 -69 28 -59T52 -35Q120 13 153 103T186 316Q186 436 153 526T52 666Q33 680 28 690T23 725Q23 765 54 765Q68 765 93 755Q160 727 210 662T286 507T313 316Q313
214 287 124T210 -31T93 -124Q70 -133 55 -133Z" />
<glyph unicode="*" glyph-name="asterisk" horiz-adv-x="425" d="M313 385T308 385Q301 385 293 393L212 481L129 392Q122 385 117 385Q114 385 107 390L71 422Q64 428 64 435Q64 441 69 446L144 526L49 567Q39 571 39 579Q39 584 41 587L63 630Q67 637 70 638T81
637L167 598V687Q167 710 189 710H236Q248 710 252 705T257 687V597L342 635L351 637Q358 637 362 629L384 586Q386 580 386 579Q386 571 375 566L280 525L355 445Q361 439 361 433Q361 428 354 421L317 389Q313 385 308 385Z" />
<glyph unicode="+" glyph-name="plus" horiz-adv-x="471" d="M194 123T188 129T182 152V250H71Q54 250 47 256T39 280V317Q39 334 46 340T71 347H182V446Q182 462 188 468T212 475H258Q276 475 282 469T288 446V347H400Q417 347 424 341T432 317V280Q432 263 425
257T400 250H288V152Q288 136 282 130T258 123H212Q194 123 188 129Z" />
<glyph unicode="," glyph-name="comma" horiz-adv-x="246" d="M39 -119T39 -105Q39 -103 41 -95L94 75Q98 90 105 95T130 100H182Q207 100 207 85Q207 79 202 67L130 -102Q126 -111 120 -115T101 -119H57Q39 -119 39 -105Z" />
<glyph unicode="-" glyph-name="hyphen" horiz-adv-x="471" d="M52 250T46 257T39 280V317Q39 333 45 340T68 347H403Q418 347 425 340T432 317V280Q432 265 425 258T403 250H68Q52 250 46 257Z" />
<glyph unicode="." glyph-name="period" horiz-adv-x="181" d="M63 0T51 13T39 44V62Q39 81 51 94T81 107H100Q118 107 130 94T142 62V44Q142 26 130 13T100 0H81Q63 0 51 13Z" />
<glyph unicode="/" glyph-name="slash" horiz-adv-x="475" d="M39 0T39 12Q39 18 42 25L304 663Q311 680 328 680H422Q436 680 436 667Q436 661 433 655L171 16Q165 0 146 0H53Q39 0 39 12Z" />
<glyph unicode="0" glyph-name="zero" horiz-adv-x="740" d="M206 -15T123 76T39 340Q39 512 122 603T370 695Q533 695 617 603T701 340Q701 169 617 77T370 -15Q206 -15 123 76ZM483 570Q440 600 370 600Q266 600 216 535T165 340Q165 237 207 181L483 570ZM474
79T524 144T574 340Q574 441 534 498L257 107Q302 79 370 79Q474 79 524 144Z" />
<glyph unicode="1" glyph-name="one" horiz-adv-x="473" d="M73 0T65 7T57 33V62Q57 81 65 89T93 97H191V540L105 488Q97 483 91 483Q82 483 76 493L44 543Q40 550 40 556Q40 566 51 572L216 671Q223 676 230 678T249 680H282Q320 680 320 643V97H418Q438 97 446
89T454 62V33Q454 15 446 8T418 0H93Q73 0 65 7Z" />
<glyph unicode="2" glyph-name="two" horiz-adv-x="575" d="M41 0T41 34V73Q41 137 90 199T239 317Q310 357 343 380T391 430T407 496Q407 547 371 573T270 600Q223 600 182 589T110 560Q100 555 97 555Q91 555 85 564L57 613Q52 621 52 627Q52 635 61 641Q96
666 156 680T287 695Q398 695 466 645T534 502Q534 425 487 372T337 263Q262 224 218 181T171 97H495Q515 97 523 89T531 61V34Q531 16 523 8T495 0H74Q41 0 41 34Z" />
<glyph unicode="3" glyph-name="three" horiz-adv-x="593" d="M125 -15T48 37Q39 43 39 51Q39 57 44 65L73 114Q79 124 84 124Q88 124 98 119Q131 101 174 90T269 79Q351 79 389 110T428 198Q428 302 301 302H217Q197 302 189 310T180 338V364Q180 382 188 390T217
398H299Q353 398 380 426T407 499Q407 600 265 600Q177 600 110 563Q100 558 96 558Q91 558 85 567L57 614Q52 622 52 628Q52 636 61 642Q96 667 154 681T283 695Q360 695 416 671T503 604T534 502Q534 455 512 415T447 353Q501 333 527 292T554 194Q554 100 485
43T287 -15Q125 -15 48 37Z" />
<glyph unicode="4" glyph-name="four" horiz-adv-x="615" d="M379 0T371 8T362 34V148H45Q19 148 19 172V213Q19 227 22 234T33 253L370 661Q379 672 386 676T408 680H452Q472 680 481 671T490 643V245H560Q580 245 588 237T596 209V182Q596 164 588 156T560 148H490V34Q490
16 482 8T452 0H399Q379 0 371 8ZM383 245V529L153 245H383Z" />
<glyph unicode="5" glyph-name="five" horiz-adv-x="619" d="M215 -15T151 0T48 42Q39 48 39 55Q39 61 44 69L73 119Q78 128 84 128Q89 128 98 122Q130 103 177 91T281 79Q365 79 409 114T453 221Q453 300 416 332T296 364Q214 364 157 338Q136 331 122 331Q96
331 79 346T62 388L79 646Q80 664 88 672T116 680H512Q532 680 540 672T548 645V618Q548 599 540 591T512 582H187L177 434Q236 453 317 453Q580 453 580 221Q580 149 544 96T441 14T285 -15Q215 -15 151 0Z" />
<glyph unicode="6" glyph-name="six" horiz-adv-x="641" d="M192 -15T116 59T39 296Q39 438 82 527T194 656T344 695Q463 695 538 643Q547 636 547 629Q547 623 543 616L516 569Q510 559 504 559Q499 559 490 565Q461 583 429 591T351 600Q270 600 225 556T163
417Q199 448 244 461T351 475Q426 475 482 447T570 367T602 248Q602 118 527 52T317 -15Q192 -15 116 59ZM475 79T475 245Q475 316 433 354T321 393Q259 393 213 356T167 242Q167 157 207 118T317 79Q475 79 475 245Z" />
<glyph unicode="7" glyph-name="seven" horiz-adv-x="593" d="M110 0T110 12Q110 18 114 25L405 582H62Q43 582 36 590T29 617V647Q29 665 36 672T62 680H521Q545 680 554 672T564 644Q564 631 558 615T543 585T533 566L246 14Q242 6 237 3T221 0H124Q110 0 110 12Z" />
<glyph unicode="8" glyph-name="eight" horiz-adv-x="638" d="M187 -15T113 39T39 191Q39 248 69 291T153 354Q106 375 82 411T58 495Q58 591 125 643T319 695Q445 695 512 643T579 495Q579 447 555 411T485 354Q538 335 568 292T599 191Q599 93 525 39T319 -15Q187
-15 113 39ZM384 399T418 421T452 495Q452 551 420 575T319 600Q251 600 218 576T185 495Q185 444 219 422T319 399Q384 399 418 421ZM472 79T472 191Q472 306 319 306Q165 306 165 191Q165 79 319 79Q472 79 472 191Z" />
<glyph unicode="9" glyph-name="nine" horiz-adv-x="636" d="M237 -15T187 -2T101 35Q92 41 92 49Q92 55 97 63L125 111Q131 120 136 120Q140 120 150 115Q210 79 292 79Q377 79 423 124T480 262Q446 230 401 217T293 203Q215 203 158 231T70 312T39 431Q39 563
113 629T324 695Q448 695 522 619T597 383Q597 171 514 78T299 -15Q237 -15 187 -2ZM359 285T392 301T447 350T468 429Q468 514 430 557T323 600Q244 600 205 560T165 433Q165 359 204 322T321 285Q359 285 392 301Z" />
<glyph unicode=":" glyph-name="colon" horiz-adv-x="197" d="M66 368T53 383T39 420V441Q39 463 52 478T87 493H109Q131 493 144 478T158 441V420Q158 399 144 384T109 368H87Q66 368 53 383ZM66 0T53 14T39 51V73Q39 95 52 109T87 124H109Q131 124 144 110T158
73V51Q158 30 144 15T109 0H87Q66 0 53 14Z" />
<glyph unicode=";" glyph-name="semicolon" horiz-adv-x="249" d="M117 368T104 383T90 420V441Q90 463 103 478T138 493H160Q182 493 195 478T209 441V420Q209 399 195 384T160 368H138Q117 368 104 383ZM39 -119T39 -105Q39 -103 41 -95L94 75Q98 90 105 95T130
100H182Q207 100 207 85Q207 79 202 67L130 -102Q126 -111 120 -115T101 -119H57Q39 -119 39 -105Z" />
<glyph unicode="&lt;" glyph-name="less" horiz-adv-x="558" d="M56 225Q46 229 43 235T39 251V295Q39 305 42 311T56 321L498 522Q504 524 507 524Q519 524 519 510V431Q519 420 516 415T502 406L195 274L502 142Q512 138 515 133T519 117V36Q519 22 507 22Q501
22 498 24L56 225Z" />
<glyph unicode="=" glyph-name="equal" horiz-adv-x="461" d="M54 333T47 341T39 368V393Q39 412 46 420T74 429H386Q406 429 414 421T422 393V368Q422 349 414 341T386 333H74Q54 333 47 341ZM54 153T47 161T39 188V212Q39 231 46 239T74 248H386Q406 248 414
240T422 212V188Q422 169 414 161T386 153H74Q54 153 47 161Z" />
<glyph unicode="&gt;" glyph-name="greater" horiz-adv-x="558" d="M51 22Q39 22 39 36V111Q39 122 42 127T56 136L367 274L56 412Q46 416 43 421T39 437V510Q39 524 51 524L59 522L502 321Q511 316 515 311T519 295V251Q519 241 515 236T502 225L59 24L51 22Z" />
<glyph unicode="?" glyph-name="question" horiz-adv-x="547" d="M184 153T176 162T167 189V206Q167 270 195 313T286 392Q327 415 346 430T373 461T381 505Q381 551 348 575T256 600Q165 600 98 557Q89 551 84 551Q78 551 73 560L42 612Q38 620 38 623Q38 630
48 637Q88 664 144 679T270 695Q377 695 442 645T508 506Q508 445 480 406T387 332Q333 302 314 276T295 203V189Q295 171 287 162T257 153H204Q184 153 176 162ZM185 0T172 11T158 41V61Q158 80 171 91T209 103H252Q277 103 290 92T303 61V41Q303 23 290 12T252
0H209Q185 0 172 11Z" />
<glyph unicode="@" glyph-name="at" horiz-adv-x="932" d="M331 -89T237 -43T91 92T39 300Q39 437 94 529T251 668T489 714Q617 714 708 670T846 543T893 349Q893 230 842 166T707 101Q666 101 640 122T604 177Q576 140 533 121T435 101Q342 102 287 153T232 296Q232
410 300 473T486 536Q537 536 586 519T666 473V233Q666 204 676 192T709 179Q748 179 769 224T791 350Q791 440 752 503T645 598T488 630Q327 630 234 549T141 300Q141 202 181 134T292 31T453 -3Q502 -3 547 9T622 42Q627 45 630 45Q633 45 636 39L661 -21Q663
-27 663 -28Q663 -33 656 -37Q619 -61 566 -75T454 -89Q331 -89 237 -43ZM498 188T534 214T570 285V424Q533 445 479 445Q411 445 371 407T331 301Q331 243 360 216T450 188Q498 188 534 214Z" />
<glyph unicode="A" glyph-name="A" horiz-adv-x="733" d="M39 0T39 15Q39 21 42 28L306 654Q312 669 319 674T339 680H394Q408 680 414 675T427 654L691 28Q694 21 694 15Q694 0 677 0H590Q577 0 572 3T561 18L504 158H228L172 18Q167 7 162 4T143 0H56Q39 0 39
15ZM472 251L366 513L260 251H472Z" />
<glyph unicode="B" glyph-name="B" horiz-adv-x="655" d="M76 0T68 9T59 36V643Q59 662 67 671T96 680H385Q489 680 542 630T596 495Q596 447 572 409T505 353Q616 318 616 197Q616 141 591 97T514 26T388 0H96Q76 0 68 9ZM367 396Q416 396 442 421T469 491Q469
540 445 561T366 583H187V396H367ZM382 97Q437 97 463 125T489 199Q489 251 458 277T370 304H187V97H382Z" />
<glyph unicode="C" glyph-name="C" horiz-adv-x="677" d="M225 -15T132 77T39 340Q39 511 130 603T392 695Q460 695 518 681T616 641Q625 635 625 628Q625 622 620 614L592 566Q586 557 581 557Q577 557 567 562Q504 600 406 600Q293 600 229 535T165 340Q165
208 231 144T409 79Q513 79 580 118Q590 123 593 123Q599 123 605 114L636 62Q639 56 639 52Q639 46 628 39Q551 -15 395 -15Q225 -15 132 77Z" />
<glyph unicode="D" glyph-name="D" horiz-adv-x="683" d="M76 0T68 9T59 36V643Q59 662 67 671T96 680H296Q465 680 554 599T644 340Q644 0 296 0H96Q76 0 68 9ZM304 97Q410 97 463 152T517 340Q517 473 464 527T304 582H187V97H304Z" />
<glyph unicode="E" glyph-name="E" horiz-adv-x="576" d="M76 0T68 9T59 36V643Q59 662 67 671T96 680H512Q532 680 539 672T547 645V618Q547 599 540 591T512 582H187V388H423Q443 388 451 380T459 353V328Q459 309 451 301T423 292H187V97H511Q531 97 539 89T547
61V34Q547 16 539 8T511 0H96Q76 0 68 9Z" />
<glyph unicode="F" glyph-name="F" horiz-adv-x="566" d="M76 0T68 9T59 36V643Q59 662 67 671T96 680H512Q532 680 539 672T547 645V618Q547 599 540 591T512 582H187V389H423Q443 389 451 381T459 354V327Q459 308 451 300T423 291H187V36Q187 18 179 9T149
0H96Q76 0 68 9Z" />
<glyph unicode="G" glyph-name="G" horiz-adv-x="700" d="M225 -15T132 77T39 340Q39 510 132 602T395 695Q463 695 522 681T620 641Q629 635 629 628Q629 623 625 616L596 566Q590 557 584 557Q581 557 571 562Q503 600 409 600Q295 600 230 536T165 340Q165
208 228 144T401 80Q441 80 479 86T541 105V290H409Q389 290 381 298T373 326V352Q373 371 381 378T409 386H620Q642 386 651 376T661 343V79Q661 64 658 57T645 43Q553 -15 395 -15Q225 -15 132 77Z" />
<glyph unicode="H" glyph-name="H" horiz-adv-x="702" d="M76 0T68 9T59 36V643Q59 662 67 671T96 680H149Q169 680 178 671T187 643V391H515V643Q515 662 524 671T553 680H605Q625 680 634 671T643 643V36Q643 18 635 9T605 0H553Q533 0 524 9T515 36V294H187V36Q187
18 179 9T149 0H96Q76 0 68 9Z" />
<glyph unicode="I" glyph-name="I" horiz-adv-x="246" d="M76 0T68 9T59 36V643Q59 662 67 671T96 680H149Q169 680 178 671T187 643V36Q187 18 179 9T149 0H96Q76 0 68 9Z" />
<glyph unicode="J" glyph-name="J" horiz-adv-x="487" d="M107 -15T28 34Q19 39 19 47Q19 53 24 61L53 110Q59 120 65 120Q71 120 78 114Q101 98 134 89T204 79Q256 79 280 106T305 190V643Q305 662 314 671T343 680H395Q415 680 424 671T433 643V190Q433 96 379
41T217 -15Q107 -15 28 34Z" />
<glyph unicode="K" glyph-name="K" horiz-adv-x="634" d="M76 0T68 9T59 36V643Q59 662 67 671T96 680H149Q169 680 178 671T187 643V36Q187 18 179 9T149 0H96Q76 0 68 9ZM476 0T471 2T459 11L218 301Q209 312 205 320T201 341Q201 354 204 361T218 381L453 668Q459
676 465 678T484 680H576Q583 680 587 676T591 666Q591 658 585 652L326 341L591 28Q597 22 597 14Q597 8 593 4T582 0H487Q476 0 471 2Z" />
<glyph unicode="L" glyph-name="L" horiz-adv-x="548" d="M76 0T68 9T59 36V643Q59 662 67 671T96 680H149Q169 680 178 671T187 643V97H493Q513 97 521 89T529 61V34Q529 16 521 8T493 0H96Q76 0 68 9Z" />
<glyph unicode="M" glyph-name="M" horiz-adv-x="782" d="M76 0T68 9T59 36V643Q59 662 67 671T97 680H151Q167 680 175 676T189 660L391 195L593 660Q598 672 606 676T631 680H685Q706 680 714 671T723 643V36Q723 18 715 9T686 0H642Q622 0 613 9T604 36V467L433
86Q425 70 417 63T391 56Q373 56 365 63T349 86L178 467V36Q178 18 170 9T140 0H96Q76 0 68 9Z" />
<glyph unicode="N" glyph-name="N" horiz-adv-x="698" d="M76 0T68 9T59 36V643Q59 662 67 671T97 680H143Q157 680 165 676T181 660L511 202V643Q511 662 519 671T548 680H601Q621 680 630 671T639 643V36Q639 18 631 9T601 0H554Q540 0 533 3T517 19L187 476V36Q187
18 179 9T149 0H96Q76 0 68 9Z" />
<glyph unicode="O" glyph-name="O" horiz-adv-x="762" d="M216 -15T128 78T39 340Q39 509 127 602T381 695Q545 695 634 602T723 340Q723 171 634 78T381 -15Q216 -15 128 78ZM486 79T541 145T596 340Q596 468 541 534T381 600Q276 600 221 534T165 340Q165 212
220 146T381 79Q486 79 541 145Z" />
<glyph unicode="P" glyph-name="P" horiz-adv-x="613" d="M76 0T68 9T59 36V643Q59 662 67 671T96 680H352Q475 680 534 622T594 454Q594 346 535 288T352 230H187V36Q187 18 179 9T149 0H96Q76 0 68 9ZM346 327Q407 327 437 358T467 454Q467 519 437 550T346
582H187V327H346Z" />
<glyph unicode="Q" glyph-name="Q" horiz-adv-x="762" d="M435 -181T381 -135T322 -11Q185 4 112 95T39 340Q39 509 127 602T381 695Q545 695 634 602T723 340Q723 182 645 92T421 -11Q423 -54 454 -75T533 -96Q587 -96 631 -68Q636 -64 641 -64Q646 -64 650 -71L680
-118Q683 -124 683 -128Q683 -134 674 -140Q642 -161 608 -171T528 -181Q435 -181 381 -135ZM486 79T541 145T596 340Q596 468 541 534T381 600Q276 600 221 534T165 340Q165 212 220 146T381 79Q486 79 541 145Z" />
<glyph unicode="R" glyph-name="R" horiz-adv-x="633" d="M76 0T68 9T59 36V643Q59 662 67 671T96 680H357Q473 680 533 626T594 466Q594 396 561 347T465 272L576 26Q579 20 579 15Q579 0 561 0H479Q466 0 460 3T449 18L348 255H187V36Q187 18 179 9T149 0H96Q76
0 68 9ZM331 351Q401 351 434 378T467 466Q467 526 437 554T346 582H187V351H331Z" />
<glyph unicode="S" glyph-name="S" horiz-adv-x="589" d="M231 -15T163 0T53 44Q40 53 40 60Q40 67 44 72L77 124Q83 133 88 133Q93 133 101 128Q138 106 187 93T286 79Q354 79 388 101T423 174Q423 204 410 222T372 253T291 288L268 297Q203 323 161 347T90 410T62
505Q62 596 131 645T314 695Q383 695 433 682T521 642Q533 633 533 625Q533 619 529 614L497 562Q491 553 487 553Q483 553 474 559Q410 600 315 600Q252 600 220 577T188 504Q188 473 201 455T241 423T325 388L350 378Q423 349 464 325T527 264T550 170Q550 84
486 35T302 -15Q231 -15 163 0Z" />
<glyph unicode="T" glyph-name="T" horiz-adv-x="587" d="M247 0T238 9T229 36V582H54Q34 582 27 590T19 617V644Q19 663 26 671T54 680H532Q552 680 560 672T568 644V617Q568 598 560 590T532 582H357V36Q357 18 349 9T319 0H267Q247 0 238 9Z" />
<glyph unicode="U" glyph-name="U" horiz-adv-x="716" d="M268 -15T199 15T92 104T54 240V643Q54 662 62 671T91 680H144Q164 680 173 671T182 643V237Q182 159 227 119T358 79Q442 79 487 119T533 237V643Q533 662 542 671T571 680H623Q662 680 662 643V240Q662
162 624 105T516 16T358 -15Q268 -15 199 15Z" />
<glyph unicode="V" glyph-name="V" horiz-adv-x="724" d="M321 0T315 5T302 25L42 652Q39 658 39 664Q39 671 43 675T56 680H142Q155 680 162 675T173 659L362 179L551 659Q555 670 562 675T582 680H668Q676 680 680 676T685 664Q685 658 682 652L423 25Q417 10
410 5T389 0H335Q321 0 315 5Z" />
<glyph unicode="W" glyph-name="W" horiz-adv-x="881" d="M217 0T210 5T199 25L41 656Q40 659 40 665Q40 680 59 680H140Q155 680 161 675T169 659L269 219L389 607Q393 619 398 623T417 628H463Q476 628 481 624T491 607L612 219L711 659Q713 670 719 675T740
680H822Q841 680 841 665Q841 659 840 656L681 25Q677 11 670 6T648 0H594Q580 0 573 5T561 25L440 425L320 25Q316 11 309 6T287 0H232Q217 0 210 5Z" />
<glyph unicode="X" glyph-name="X" horiz-adv-x="713" d="M48 0T44 4T39 14Q39 20 44 28L285 348L57 652Q51 660 51 667Q51 673 55 676T67 680H160Q171 680 176 678T186 668L356 443L526 668Q531 675 536 677T552 680H646Q653 680 657 677T661 667Q661 660 655
652L427 348L668 28Q673 20 673 14Q673 8 669 4T657 0H564Q554 0 549 2T539 11L356 253L174 11Q169 4 164 2T149 0H55Q48 0 44 4Z" />
<glyph unicode="Y" glyph-name="Y" horiz-adv-x="708" d="M307 0T298 9T289 36V229L43 652Q39 659 39 665Q39 680 57 680H143Q156 680 160 677T171 664L354 346L536 664Q541 673 546 676T564 680H651Q669 680 669 665Q669 659 665 652L418 228V36Q418 18 410 9T380
0H327Q307 0 298 9Z" />
<glyph unicode="Z" glyph-name="Z" horiz-adv-x="633" d="M52 0T46 7T39 34Q39 51 43 63T62 94L423 582H89Q69 582 60 590T51 618V645Q51 664 60 672T89 680H559Q578 680 585 672T592 645Q592 627 588 616T569 585L209 97H557Q577 97 585 89T594 61V34Q594 16
586 8T557 0H71Q52 0 46 7Z" />
<glyph unicode="[" glyph-name="bracketleft" horiz-adv-x="308" d="M56 -70T48 -61T39 -34V713Q39 750 75 750H244Q264 750 271 742T279 715V688Q279 669 272 661T244 652H167V27H244Q264 27 271 19T279 -9V-36Q279 -54 272 -62T244 -70H75Q56 -70 48 -61Z" />
<glyph unicode="\" glyph-name="backslash" horiz-adv-x="481" d="M324 0T319 3T310 16L42 670Q39 678 39 682Q39 695 53 695H146Q157 695 162 691T171 678L439 25Q442 18 442 12Q442 0 428 0H334Q324 0 319 3Z" />
<glyph unicode="]" glyph-name="bracketright" horiz-adv-x="308" d="M44 -70T37 -62T29 -36V-9Q29 10 36 18T64 27H141V652H64Q44 652 37 660T29 688V715Q29 734 36 742T64 750H233Q269 750 269 713V-34Q269 -52 261 -61T233 -70H64Q44 -70 37 -62Z" />
<glyph unicode="^" glyph-name="asciicircum" horiz-adv-x="612" d="M48 339T44 343T39 353Q39 359 44 367L246 690Q257 707 264 713T288 719H323Q339 719 346 713T365 690L568 367Q572 360 572 353Q572 339 556 339H477Q464 339 458 342T446 356L306 592L166
356Q160 346 154 343T134 339H55Q48 339 44 343Z" />
<glyph unicode="_" glyph-name="underscore" horiz-adv-x="540" d="M52 -113T46 -106T39 -83V-45Q39 -29 45 -22T68 -15H471Q487 -15 494 -22T501 -45V-83Q501 -98 494 -105T471 -113H68Q52 -113 46 -106Z" />
<glyph unicode="`" glyph-name="grave" horiz-adv-x="265" d="M131 563T125 566T112 581L44 714Q39 724 39 730Q39 738 45 742T63 746H142Q158 746 163 742T174 725L223 591Q225 587 225 579Q225 563 203 563H145Q131 563 125 566Z" />
<glyph unicode="a" glyph-name="a" horiz-adv-x="615" d="M155 -15T97 44T39 212Q39 296 76 360T181 460T341 495Q468 495 556 435V27Q556 12 550 6T527 0H472Q461 0 456 4T448 19L440 58Q409 20 364 3T253 -15Q155 -15 97 44ZM354 76T394 107T435 189V384Q414
395 393 399T340 404Q261 404 213 354T165 216Q165 144 198 110T301 76Q354 76 394 107Z" />
<glyph unicode="b" glyph-name="b" horiz-adv-x="617" d="M227 -15T162 3T59 50V643Q59 662 67 671T96 680H147Q167 680 176 671T185 643V448Q211 471 253 483T343 495Q456 495 517 433T578 259Q578 129 507 57T295 -15Q227 -15 162 3ZM372 76T411 120T451 256Q451
332 420 367T314 403Q263 403 224 378T185 303V100Q202 89 231 83T289 76Q372 76 411 120Z" />
<glyph unicode="c" glyph-name="c" horiz-adv-x="565" d="M188 -15T114 50T39 238Q39 314 73 372T170 462T319 495Q382 495 426 483T508 444Q517 438 517 431Q517 425 512 417L485 370Q479 360 474 360Q469 360 460 366Q429 385 399 394T326 404Q251 404 208 360T165
238Q165 157 208 117T334 76Q376 76 407 86T467 115Q475 120 480 120Q486 120 492 110L521 61Q525 56 525 50Q525 43 515 36Q475 10 429 -2T321 -15Q188 -15 114 50Z" />
<glyph unicode="d" glyph-name="d" horiz-adv-x="617" d="M39 -15T39 241Q39 316 68 373T151 463T280 495Q385 495 432 448V643Q432 662 441 671T470 680H520Q540 680 549 671T558 643V50Q520 22 456 4T323 -15Q39 -15 39 241ZM393 76T432 100V304Q432 353 398
378T310 403Q237 403 201 359T165 238Q165 152 205 114T326 76Q393 76 432 100Z" />
<glyph unicode="e" glyph-name="e" horiz-adv-x="598" d="M240 -15T177 11T77 93T39 232Q39 361 108 428T304 495Q430 495 494 430T559 242Q559 207 527 207H160Q160 141 206 106T334 70Q413 70 476 106Q483 110 487 110Q494 110 498 101L522 58Q525 52 525 47Q525
40 516 34Q475 9 428 -3T318 -15Q240 -15 177 11ZM443 281Q443 343 409 378T305 413Q235 413 198 377T160 281H443Z" />
<glyph unicode="f" glyph-name="f" horiz-adv-x="433" d="M118 0T110 9T101 36V386H54Q34 386 27 394T19 422V445Q19 464 26 472T54 480H101V517Q101 601 146 648T281 695Q372 695 424 656Q433 650 433 642Q433 636 429 631L404 589Q398 580 393 580Q390 580 382
584Q362 595 346 600T307 606Q264 606 247 585T229 519V480H352Q372 480 380 472T388 445V422Q388 403 380 395T352 386H229V36Q229 18 221 9T191 0H138Q118 0 110 9Z" />
<glyph unicode="g" glyph-name="g" horiz-adv-x="617" d="M256 -170T201 -159T117 -130Q101 -121 109 -108L138 -59Q144 -49 150 -49Q154 -49 160 -52Q215 -80 303 -80Q370 -80 401 -48T432 60Q404 30 367 16T276 1Q164 1 102 62T39 234Q39 360 113 427T329 495Q394
495 456 477T558 432V89Q558 -32 499 -101T314 -170Q256 -170 201 -159ZM362 95T397 124T432 206V384Q413 393 384 398T323 403Q165 403 165 242Q165 168 200 132T306 95Q362 95 397 124Z" />
<glyph unicode="h" glyph-name="h" horiz-adv-x="596" d="M77 0T68 9T59 36V653Q59 668 64 674T85 680H154Q170 680 175 674T181 653V429Q214 462 258 478T362 495Q443 495 492 452T542 321V36Q542 18 534 9T505 0H452Q432 0 423 9T414 36V313Q414 362 391 382T319
403Q286 403 256 390T206 354T187 301V36Q187 18 179 9T149 0H97Q77 0 68 9Z" />
<glyph unicode="i" glyph-name="i" horiz-adv-x="262" d="M85 563T72 577T59 611V632Q59 652 72 666T109 680H152Q176 680 189 666T203 632V611Q203 591 190 577T152 563H109Q85 563 72 577ZM85 0T76 9T67 36V443Q67 462 76 471T105 480H157Q177 480 186 471T195
443V36Q195 18 187 9T157 0H105Q85 0 76 9Z" />
<glyph unicode="j" glyph-name="j" horiz-adv-x="310" d="M133 563T120 577T106 611V632Q106 652 119 666T156 680H200Q224 680 237 666T251 632V611Q251 591 238 577T200 563H156Q133 563 120 577ZM2 -170T-41 -159T-114 -124Q-123 -117 -123 -109Q-123 -104
-118 -96L-90 -48Q-84 -38 -78 -38Q-73 -38 -65 -44Q-42 -60 -20 -68T31 -76Q79 -76 96 -55T114 15V443Q114 480 152 480H205Q225 480 234 471T243 443V12Q243 -73 196 -121T53 -170Q2 -170 -41 -159Z" />
<glyph unicode="k" glyph-name="k" horiz-adv-x="561" d="M76 0T68 9T59 36V643Q59 662 67 671T96 680H149Q169 680 178 671T187 643V36Q187 18 179 9T149 0H96Q76 0 68 9ZM409 0T404 2T393 11L217 210Q208 220 204 228T200 250Q200 263 204 271T217 290L387 468Q393
475 398 477T417 480H510Q517 480 520 476T524 466Q524 458 518 452L319 250L525 28Q531 22 531 15Q531 9 527 5T516 0H420Q409 0 404 2Z" />
<glyph unicode="l" glyph-name="l" horiz-adv-x="246" d="M76 0T68 9T59 36V643Q59 662 67 671T96 680H149Q169 680 178 671T187 643V36Q187 18 179 9T149 0H96Q76 0 68 9Z" />
<glyph unicode="m" glyph-name="m" horiz-adv-x="810" d="M77 0T68 9T59 36V453Q59 468 64 474T85 480H138Q149 480 154 476T160 460L163 418Q192 455 229 475T319 495Q363 495 395 476T443 418Q498 495 602 495Q673 495 714 452T756 324V36Q756 18 748 9T718
0H674Q654 0 645 9T636 36V317Q636 363 617 383T558 403Q517 403 492 376T466 303V36Q466 18 457 9T428 0H387Q367 0 358 9T349 36V322Q349 364 332 383T276 403Q233 403 206 375T179 300V36Q179 18 171 9T141 0H97Q77 0 68 9Z" />
<glyph unicode="n" glyph-name="n" horiz-adv-x="596" d="M77 0T68 9T59 36V453Q59 468 64 474T85 480H142Q164 480 165 460L167 420Q235 495 362 495Q443 495 492 452T542 321V36Q542 18 534 9T505 0H452Q432 0 423 9T414 36V313Q414 362 392 382T319 403Q266
403 227 375T187 301V36Q187 18 179 9T149 0H97Q77 0 68 9Z" />
<glyph unicode="o" glyph-name="o" horiz-adv-x="621" d="M180 -15T110 53T39 240Q39 358 109 426T310 495Q440 495 511 427T582 240Q582 122 511 54T310 -15Q180 -15 110 53ZM381 79T418 120T455 240Q455 318 418 358T310 399Q240 399 203 359T165 240Q165 162
202 121T310 79Q381 79 418 120Z" />
<glyph unicode="p" glyph-name="p" horiz-adv-x="617" d="M76 -202T68 -193T59 -166V432Q97 459 160 477T288 495Q578 495 578 239Q578 121 515 53T340 -15Q239 -15 185 43V-166Q185 -185 177 -193T147 -202H96Q76 -202 68 -193ZM381 76T416 119T451 243Q451 330
410 366T284 403Q221 403 185 384V187Q185 136 221 106T310 76Q381 76 416 119Z" />
<glyph unicode="q" glyph-name="q" horiz-adv-x="617" d="M450 -202T441 -194T432 -166V43Q378 -15 276 -15Q165 -15 102 49T39 225Q39 354 114 424T329 495Q394 495 456 477T558 432V-166Q558 -185 550 -193T520 -202H470Q450 -202 441 -194ZM359 76T395 106T432
187V384Q396 403 332 403Q252 403 209 360T165 229Q165 76 306 76Q359 76 395 106Z" />
<glyph unicode="r" glyph-name="r" horiz-adv-x="416" d="M77 0T68 9T59 36V453Q59 468 64 474T85 480H142Q153 480 158 476T164 460L167 424Q226 495 322 495Q366 495 389 480Q395 476 396 472T396 461L378 401Q375 391 367 391L359 393Q335 404 304 404Q253
404 220 376T187 298V36Q187 18 179 9T149 0H97Q77 0 68 9Z" />
<glyph unicode="s" glyph-name="s" horiz-adv-x="521" d="M207 -15T150 -3T52 35Q39 42 39 50Q39 56 43 61L71 110Q76 119 81 119Q86 119 94 114Q124 96 168 84T249 72Q306 72 330 83T355 125Q355 142 346 152T317 171T254 193Q254 193 221 204Q164 223 130 241T78
286T59 356Q59 424 116 459T266 495Q378 495 459 447Q472 440 472 432Q472 427 467 419L440 376Q434 367 430 367Q426 367 418 372Q392 388 356 397T282 407Q232 407 209 397T185 356Q185 330 212 315T308 279L341 269Q419 244 450 210T482 125Q482 63 428 24T267
-15Q207 -15 150 -3Z" />
<glyph unicode="t" glyph-name="t" horiz-adv-x="457" d="M195 -15T152 32T109 162V386H52Q32 386 26 393T19 419V446Q19 465 25 472T52 480H109V535Q109 556 116 574T140 621Q146 633 151 636T171 640H204Q222 640 229 632T237 606V480H355Q375 480 381 473T388
446V419Q388 400 382 393T355 386H237V166Q237 120 253 100T308 79Q331 79 347 84T382 103Q387 107 393 107Q399 107 405 98L434 50Q438 45 438 39Q438 32 428 25Q366 -15 280 -15Q195 -15 152 32Z" />
<glyph unicode="u" glyph-name="u" horiz-adv-x="590" d="M154 -15T104 30T54 166V443Q54 462 62 471T91 480H144Q164 480 173 471T182 443V169Q182 121 207 99T281 76Q333 76 368 105T403 180V443Q403 462 412 471T441 480H493Q513 480 522 471T531 443V27Q531
11 526 6T505 0H449Q438 0 433 4T427 19L423 61Q355 -15 236 -15Q154 -15 104 30Z" />
<glyph unicode="v" glyph-name="v" horiz-adv-x="607" d="M264 0T257 5T243 25L42 452Q39 458 39 464Q39 471 43 475T56 480H139Q152 480 158 476T169 459L303 147L437 459Q442 470 448 475T468 480H551Q559 480 563 476T568 464Q568 458 565 452L364 25Q357 11
350 6T329 0H278Q264 0 257 5Z" />
<glyph unicode="w" glyph-name="w" horiz-adv-x="778" d="M193 0T187 4T177 21L41 459Q40 462 40 467Q40 480 56 480H133Q145 480 150 476T157 462L244 156L343 419Q347 429 352 433T368 438H411Q422 438 426 434T435 419L533 156L621 462Q624 472 628 476T645
480H722Q738 480 738 467Q738 462 737 459L600 21Q596 8 591 4T573 0H515Q504 0 499 4T489 21L389 290L289 21Q284 9 279 5T262 0H205Q193 0 187 4Z" />
<glyph unicode="x" glyph-name="x" horiz-adv-x="602" d="M49 0T44 4T39 14Q39 21 45 28L229 244L53 452Q47 460 47 466Q47 480 63 480H156Q167 480 172 478T182 468L300 330L420 468Q426 475 431 477T446 480H539Q555 480 555 466Q555 460 549 452L372 244L557
28Q563 21 563 14Q563 8 558 4T546 0H453Q443 0 439 2T428 11L300 158L174 11Q168 4 164 2T149 0H56Q49 0 44 4Z" />
<glyph unicode="y" glyph-name="y" horiz-adv-x="595" d="M137 -156T105 -145T50 -115Q42 -108 42 -102Q42 -96 46 -91L74 -43Q80 -33 86 -33Q91 -33 98 -39Q114 -51 130 -57T170 -63Q200 -63 217 -44T252 22L50 452Q46 462 46 466Q46 480 62 480H147Q160 480
166 476T177 461L311 147L445 461Q450 472 456 476T475 480H560Q576 480 576 466Q576 462 572 452L384 51Q345 -31 319 -73T259 -135T175 -156Q137 -156 105 -145Z" />
<glyph unicode="z" glyph-name="z" horiz-adv-x="549" d="M53 0T47 6T40 29Q40 56 46 69T74 105L340 382H87Q67 382 58 390T49 417V446Q49 465 58 472T87 480H472Q488 480 494 474T500 451Q500 424 494 410T467 374L209 97H472Q492 97 501 89T510 61V34Q510 16
501 8T472 0H70Q53 0 47 6Z" />
<glyph unicode="{" glyph-name="braceleft" horiz-adv-x="377" d="M144 -70T135 -62T126 -34V294H54Q34 294 27 302T19 328V351Q19 370 26 378T54 387H126V713Q126 732 135 741T164 750H312Q332 750 340 742T348 715V692Q348 673 340 665T312 656H252V23H312Q332
23 340 15T348 -13V-36Q348 -54 340 -62T312 -70H164Q144 -70 135 -62Z" />
<glyph unicode="|" glyph-name="bar" horiz-adv-x="206" d="M56 -90T48 -81T39 -54V733Q39 752 47 761T76 770H129Q149 770 158 761T167 733V-54Q167 -73 159 -81T129 -90H76Q56 -90 48 -81Z" />
<glyph unicode="}" glyph-name="braceright" horiz-adv-x="377" d="M44 -70T37 -62T29 -36V-13Q29 6 36 14T64 23H125V656H64Q44 656 37 664T29 692V715Q29 734 36 742T64 750H213Q233 750 242 741T251 713V387H322Q342 387 350 379T358 351V328Q358 310 350 302T322
294H251V-34Q251 -53 243 -61T213 -70H64Q44 -70 37 -62Z" />
<glyph unicode="~" glyph-name="asciitilde" horiz-adv-x="599" d="M379 223T353 233T293 262Q264 279 243 287T199 296Q175 296 161 287T127 256Q114 241 100 241Q86 241 61 260Q40 276 40 290Q40 301 54 320Q81 355 114 375T192 395Q224 395 251 385T312 354Q342
338 360 330T399 322Q423 322 438 331T471 362Q485 379 498 379Q511 379 535 361Q557 344 557 328Q557 315 544 298Q517 263 485 243T410 223Q379 223 353 233Z" />
<glyph unicode="&#xa0;" glyph-name="uni00A0" horiz-adv-x="390" />
<glyph unicode="&#xa1;" glyph-name="exclamdown" horiz-adv-x="222" d="M39 514T39 556V577Q39 618 98 618H124Q183 618 183 577V556Q183 514 124 514H98Q39 514 39 556ZM64 -62T56 -53T47 -25L53 393Q53 412 60 420T85 429H134Q154 429 161 421T169 393L176
-25Q176 -44 168 -53T139 -62H84Q64 -62 56 -53Z" />
<glyph unicode="&#xa2;" glyph-name="cent" horiz-adv-x="565" d="M276 -103T267 -95T258 -67V-9Q153 4 96 67T39 238Q39 340 98 407T258 488V546Q258 565 267 574T296 583H340Q360 583 369 574T378 546V490Q457 481 508 444Q517 438 517 431Q517 425 512 417L485
370Q479 360 474 360Q469 360 460 366Q431 385 401 394T326 404Q252 404 209 359T165 238Q165 157 209 117T334 76Q407 76 467 115Q475 120 480 120Q486 120 492 110L521 61Q525 56 525 50Q525 43 515 36Q457 -2 378 -11V-67Q378 -86 370 -94T340 -103H296Q276
-103 267 -95Z" />
<glyph unicode="&#xa3;" glyph-name="sterling" horiz-adv-x="568" d="M54 0T47 8T39 36V58Q39 77 46 85T74 93Q98 93 112 114T127 172V324H80Q60 324 53 332T45 360V383Q45 402 52 410T80 418H127V509Q127 593 181 644T332 695Q431 695 483 656Q492 650 492 642Q492
636 488 631L463 589Q457 580 452 580Q449 580 441 584Q424 594 401 600T354 606Q308 606 282 583T255 511V418H396Q416 418 424 410T432 383V360Q432 341 424 333T396 324H255V191Q255 157 248 133T224 93H493Q513 93 521 85T529 58V36Q529 17 521 9T493 0H74Q54
0 47 8Z" />
<glyph unicode="&#xa4;" glyph-name="currency" horiz-adv-x="543" d="M117 79T107 79Q97 79 86 89L48 124Q38 133 38 142Q38 150 49 161L88 200Q56 250 56 305Q56 360 88 411L49 449Q39 458 39 468Q39 477 48 486L86 522Q96 532 107 532Q117 532 127 522L172
481Q218 509 272 509Q325 509 371 481L415 522Q427 532 435 532Q444 532 457 521L494 486Q504 476 504 468Q504 460 493 449L455 411Q488 362 488 305Q488 250 455 200L493 161Q504 150 504 142Q504 134 494 124L457 89Q444 78 435 78Q427 78 415 88L371 130Q328
102 272 102Q217 102 172 130L127 88Q117 79 107 79ZM316 197T348 229T380 305Q380 350 348 381T272 413Q227 413 196 382T164 305Q164 261 195 229T272 197Q316 197 348 229Z" />
<glyph unicode="&#xa5;" glyph-name="yen" horiz-adv-x="708" d="M307 0T298 9T289 36V87H172Q154 87 148 93T141 118V137Q141 156 147 162T172 169H289V224H172Q154 224 148 230T141 254V273Q141 292 147 298T172 305H244L43 652Q39 659 39 665Q39 680 57 680H143Q156
680 160 677T171 664L354 345L536 664Q541 673 546 676T564 680H651Q669 680 669 665Q669 659 665 652L463 305H530Q548 305 554 299T561 273V254Q561 236 555 230T530 224H418V169H530Q548 169 554 163T561 137V118Q561 99 555 93T530 87H418V36Q418 18 410 9T380
0H327Q307 0 298 9Z" />
<glyph unicode="&#xa6;" glyph-name="brokenbar" horiz-adv-x="206" d="M56 350T48 359T39 386V693Q39 712 47 721T76 730H129Q149 730 158 721T167 693V386Q167 368 159 359T129 350H76Q56 350 48 359ZM56 -219T48 -210T39 -183V124Q39 143 47 152T76 161H129Q149
161 158 152T167 124V-183Q167 -202 159 -210T129 -219H76Q56 -219 48 -210Z" />
<glyph unicode="&#xa7;" glyph-name="section" horiz-adv-x="589" d="M221 -156T163 -143T53 -100Q40 -93 40 -82Q40 -76 44 -71L75 -21Q80 -12 85 -12Q90 -12 98 -17Q138 -40 182 -51T286 -62Q352 -62 388 -43T424 24Q424 54 409 73T370 104T301 133L256 150Q195
175 156 197T91 254T65 339Q65 389 88 428Q63 466 63 515Q63 600 129 647T308 695Q447 695 521 642Q533 633 533 625Q533 619 529 614L497 562Q491 553 487 553Q483 553 474 559Q410 600 315 600Q249 600 219 580T189 515Q189 483 201 464T236 433T307 403Q329
396 355 385Q421 359 459 338T523 278T549 182Q549 163 543 144T524 108Q550 77 550 23Q550 -61 486 -108T299 -156Q221 -156 163 -143ZM447 177T447 185Q447 213 435 231T395 265T317 300Q259 322 227 336T170 368Q167 362 167 350Q167 320 179 303T213 274T285
241L316 229Q368 208 395 196T445 169Q447 177 447 185Z" />
<glyph unicode="&#xa8;" glyph-name="dieresis" horiz-adv-x="395" d="M65 555T52 569T39 605V624Q39 645 52 659T86 673H106Q126 673 139 659T153 624V605Q153 584 140 570T106 555H86Q65 555 52 569ZM268 555T255 569T242 605V624Q242 645 255 659T289 673H309Q330
673 343 659T356 624V605Q356 584 343 570T309 555H289Q268 555 255 569Z" />
<glyph unicode="&#xa9;" glyph-name="copyright" horiz-adv-x="796" d="M301 -15T219 33T88 162T39 340Q39 436 87 517T218 647T398 695Q495 695 577 647T708 518T757 340Q757 244 709 163T578 33T398 -15Q301 -15 219 33ZM477 59T540 95T640 196T676 340Q676
419 640 483T541 583T398 620Q318 620 255 584T155 483T119 340Q119 260 155 196T254 96T398 59Q477 59 540 95ZM289 103T227 164T164 338Q164 410 192 464T273 547T394 577Q449 577 489 566T560 530Q566 524 566 519Q566 515 563 509L546 475Q542 468 537 468Q532
468 527 472Q503 489 475 497T404 506Q333 506 294 462T254 338Q254 255 294 214T411 173Q449 173 477 182T531 208Q536 212 541 212Q546 212 550 205L568 171Q571 167 571 162Q571 156 564 150Q498 103 401 103Q289 103 227 164Z" />
<glyph unicode="&#xaa;" glyph-name="ordfeminine" horiz-adv-x="372" d="M99 368T69 393T39 463Q39 511 71 536T159 562H259V573Q259 606 241 621T184 637Q162 637 144 633T105 618Q103 617 100 617Q96 617 93 622L71 659Q70 660 70 663Q70 668 80 673Q127 695
189 695Q265 695 299 663T333 564V390Q333 377 318 377H279Q266 377 264 390L260 413Q223 368 149 368Q99 368 69 393ZM208 422T233 443T259 498V510H170Q139 510 126 500T113 466Q113 443 126 433T170 422Q208 422 233 443Z" />
<glyph unicode="&#xab;" glyph-name="guillemotleft" horiz-adv-x="663" d="M283 25T274 25Q264 25 250 39L62 236Q60 238 53 246T42 260T39 272V287Q39 295 43 301T53 314T62 323L250 520Q264 534 274 534Q283 534 292 525L332 485Q343 474 343 465Q343 456 332
445L170 280L332 114Q343 103 343 94Q343 85 332 74L292 34Q283 25 274 25ZM563 25T554 25Q544 25 530 39L342 236Q340 238 333 246T322 260T319 272V287Q319 295 323 301T333 314T342 323L530 520Q544 534 554 534Q563 534 572 525L612 485Q623 474 623 465Q623
456 612 445L450 280L612 114Q623 103 623 94Q623 85 612 74L572 34Q563 25 554 25Z" />
<glyph unicode="&#xac;" glyph-name="logicalnot" horiz-adv-x="471" d="M343 119T335 126T326 154V250H74Q54 250 47 258T39 285V311Q39 330 46 338T74 347H396Q416 347 424 339T432 311V154Q432 134 423 127T395 119H362Q343 119 335 126Z" />
<glyph unicode="&#xad;" glyph-name="uni00AD" horiz-adv-x="471" d="M54 250T47 258T39 285V311Q39 330 46 338T74 347H396Q416 347 424 339T432 311V285Q432 266 424 258T396 250H74Q54 250 47 258Z" />
<glyph unicode="&#xae;" glyph-name="registered" horiz-adv-x="796" d="M301 -15T219 33T88 162T39 340Q39 436 87 517T218 647T398 695Q495 695 577 647T708 518T757 340Q757 244 709 163T578 33T398 -15Q301 -15 219 33ZM477 59T540 95T640 196T676 340Q676
419 640 483T541 583T398 620Q318 620 255 584T155 483T119 340Q119 260 155 196T254 96T398 59Q477 59 540 95ZM242 125T242 151V536Q242 561 269 561H438Q588 561 588 424Q588 320 489 297L560 144Q563 138 563 134Q563 125 551 125H497Q489 125 486 127T479
136L412 287H329V151Q329 125 303 125H269Q242 125 242 151ZM427 353Q471 353 488 370T506 424Q506 463 489 479T430 495H329V353H427Z" />
<glyph unicode="&#xaf;" glyph-name="overscore" horiz-adv-x="423" d="M54 591T47 599T39 626V652Q39 671 46 679T74 688H348Q368 688 376 680T384 652V626Q384 607 376 599T348 591H74Q54 591 47 599Z" />
<glyph unicode="&#xb0;" glyph-name="degree" horiz-adv-x="334" d="M108 458T74 491T39 586Q39 647 73 680T167 713Q226 713 260 680T295 586Q295 525 261 492T167 458Q108 458 74 491ZM193 526T209 541T225 586Q225 614 209 629T167 645Q141 645 125 630T109
586Q109 557 125 542T167 526Q193 526 209 541Z" />
<glyph unicode="&#xb1;" glyph-name="plusminus" horiz-adv-x="459" d="M190 187T184 193T178 216V310H67Q50 310 43 316T35 340V377Q35 394 42 400T67 407H178V502Q178 518 184 524T208 531H254Q272 531 278 525T284 502V407H396Q413 407 420 401T428 377V340Q428
323 421 317T396 310H284V216Q284 200 278 194T254 187H208Q190 187 184 193ZM46 0T40 7T33 30V67Q33 83 39 90T62 97H397Q412 97 419 90T426 67V30Q426 14 420 7T397 0H62Q46 0 40 7Z" />
<glyph unicode="&#xb2;" glyph-name="uni00B2" horiz-adv-x="384" d="M40 286T40 306V336Q40 373 69 406T160 476Q213 508 230 526T247 574Q247 598 229 610T176 623Q128 623 84 600L76 598Q72 598 69 602L49 644Q46 649 46 652Q46 657 52 660Q74 675 113 685T195
695Q262 695 302 664T342 580Q342 534 320 505T239 441Q194 416 173 399T147 363H325Q336 363 340 358T345 341V306Q345 295 341 291T325 286H59Q40 286 40 306Z" />
<glyph unicode="&#xb3;" glyph-name="uni00B3" horiz-adv-x="387" d="M143 279T104 288T44 312Q38 317 38 320Q38 324 41 328L62 368Q65 373 68 373Q72 373 76 370Q122 347 166 347Q211 347 230 360T249 404Q249 433 235 445T188 458H145Q132 458 127 463T122
479V508Q122 519 127 523T145 528H188Q237 528 237 579Q237 602 222 614T170 626Q144 626 125 621T82 603Q72 597 68 605L48 645Q45 650 45 653Q45 656 50 661Q72 677 107 686T183 695Q255 695 295 664T336 581Q336 551 325 530T287 494Q348 472 348 402Q348 346
306 313T181 279Q143 279 104 288Z" />
<glyph unicode="&#xb4;" glyph-name="acute" horiz-adv-x="265" d="M39 563T39 579Q39 587 41 591L89 722Q95 736 101 741T126 746H199Q224 746 224 729Q224 722 220 714L154 585Q147 572 140 568T113 563H61Q39 563 39 579Z" />
<glyph unicode="&#xb5;" glyph-name="uni00B5" horiz-adv-x="555" d="M56 -177T48 -168T39 -140V443Q39 463 48 471T80 480H129Q149 480 158 471T167 443V169Q167 76 266 76Q320 76 354 104T388 180V443Q388 464 398 472T436 480H478Q499 480 507 471T516 443V27Q516
11 511 6T490 0H433Q422 0 417 4T411 19L408 61Q384 24 349 5T258 -15Q232 -15 208 -8T167 11V-140Q167 -161 157 -169T119 -177H76Q56 -177 48 -168Z" />
<glyph unicode="&#xb6;" glyph-name="paragraph" horiz-adv-x="753" d="M280 -100T271 -92T262 -64V269Q153 269 96 318T39 465Q39 578 101 629T301 680H682Q699 680 706 672T714 648V614Q714 597 707 590T682 582H626V-64Q626 -83 618 -91T588 -100H536Q516 -100
508 -91T499 -64V582H390V-64Q390 -82 381 -91T351 -100H300Q280 -100 271 -92Z" />
<glyph unicode="&#xb7;" glyph-name="middot" horiz-adv-x="181" d="M63 266T51 279T39 311V328Q39 347 51 360T81 373H100Q118 373 130 360T142 328V311Q142 293 130 280T100 266H81Q63 266 51 279Z" />
<glyph unicode="&#xb8;" glyph-name="cedilla" horiz-adv-x="284" d="M110 -238T87 -233T51 -221Q42 -216 40 -213T41 -203L55 -168Q58 -161 63 -161Q67 -161 73 -164Q93 -175 119 -175Q140 -175 149 -168T158 -146Q158 -126 144 -120T98 -113H83Q75 -113 73 -109T73
-97L100 -29Q103 -21 107 -18T122 -15H186Q198 -15 198 -23Q198 -28 196 -31L173 -81Q208 -84 226 -102T245 -155Q245 -193 216 -215T133 -238Q110 -238 87 -233Z" />
<glyph unicode="&#xb9;" glyph-name="uni00B9" horiz-adv-x="365" d="M71 286T65 291T59 311V332Q59 346 65 352T86 358H155V582L88 541Q80 537 77 537Q69 537 63 547L42 579Q39 584 39 588Q39 596 49 602L167 673Q179 680 191 680H224Q252 680 252 653V358H320Q334
358 340 352T346 332V311Q346 297 340 292T320 286H86Q71 286 65 291Z" />
<glyph unicode="&#xba;" glyph-name="ordmasculine" horiz-adv-x="413" d="M127 368T83 411T39 531Q39 608 83 651T206 695Q285 695 329 652T374 531Q374 454 330 411T206 368Q127 368 83 411ZM246 431T268 456T290 531Q290 580 268 605T206 630Q166 630 145 605T123
531Q123 482 144 457T206 431Q246 431 268 456Z" />
<glyph unicode="&#xbb;" glyph-name="guillemotright" horiz-adv-x="663" d="M50 74Q39 85 39 93Q39 102 51 114L212 280L51 445Q39 457 39 466Q39 474 50 485L90 525Q99 534 108 534Q118 534 132 520L320 323Q323 320 330 312T341 299T344 287V272Q344 264 340
259T330 247T320 236L132 39Q118 25 108 25Q99 25 90 34L50 74ZM330 74Q319 85 319 93Q319 102 331 114L492 280L331 445Q319 457 319 466Q319 474 330 485L370 525Q379 534 388 534Q398 534 412 520L600 323Q603 320 610 312T621 299T624 287V272Q624 264 620
259T610 247T600 236L412 39Q398 25 388 25Q379 25 370 34L330 74Z" />
<glyph unicode="&#xbc;" glyph-name="onequarter" horiz-adv-x="818" d="M61 286T55 291T49 311V332Q49 346 55 352T76 358H145V582L78 541Q70 537 67 537Q59 537 53 547L32 579Q29 584 29 588Q29 596 39 602L157 673Q167 680 181 680H214Q242 680 242 653V358H310Q324
358 330 352T336 332V311Q336 297 330 292T310 286H76Q61 286 55 291ZM171 0T167 3T163 13Q163 20 167 25L582 663Q588 672 593 676T608 680H687Q694 680 698 677T702 667Q702 660 698 655L281 14Q275 5 271 3T254 0H178Q171 0 167 3ZM630 0T623 6T616 25V86H438Q430
86 427 89T423 100V125Q423 137 426 145T438 164L610 379Q616 388 622 391T643 394H695Q708 394 712 389T717 372V156H754Q769 156 775 151T781 131V109Q781 96 776 91T754 86H717V25Q717 12 710 6T688 0H645Q630 0 623 6ZM631 156V286L531 156H631Z" />
<glyph unicode="&#xbd;" glyph-name="onehalf" horiz-adv-x="884" d="M61 286T55 291T49 311V332Q49 346 55 352T76 358H145V582L78 541Q70 537 67 537Q59 537 53 547L32 579Q29 584 29 588Q29 596 39 602L157 673Q167 680 181 680H214Q242 680 242 653V358H310Q324
358 330 352T336 332V311Q336 297 330 292T310 286H76Q61 286 55 291ZM171 0T167 3T163 13Q163 20 167 25L582 663Q588 672 593 676T608 680H687Q694 680 698 677T702 667Q702 660 698 655L281 14Q275 5 271 3T254 0H178Q171 0 167 3ZM524 0T524 20V50Q524 87 553
120T644 190Q697 222 714 240T731 288Q731 312 713 324T660 337Q612 337 568 314L560 312Q556 312 553 316L533 358Q530 363 530 366Q530 371 536 374Q558 389 597 399T679 409Q746 409 786 378T826 294Q826 248 804 218T723 155Q677 128 656 112T631 77H809Q820
77 824 72T829 55V20Q829 9 825 5T809 0H543Q524 0 524 20Z" />
<glyph unicode="&#xbe;" glyph-name="threequarters" horiz-adv-x="826" d="M139 279T100 288T40 312Q34 317 34 320Q34 324 37 328L58 368Q61 373 64 373Q68 373 72 370Q118 347 162 347Q207 347 226 360T245 404Q245 433 231 445T184 458H141Q128 458 123 463T118
479V508Q118 519 123 523T141 528H184Q233 528 233 579Q233 602 218 614T166 626Q140 626 121 621T78 603Q68 597 64 605L44 645Q41 650 41 653Q41 656 46 661Q68 677 103 686T179 695Q251 695 291 664T332 581Q332 551 321 530T283 494Q344 472 344 402Q344 346
302 313T177 279Q139 279 100 288ZM171 0T167 3T163 13Q163 20 167 25L582 663Q588 672 593 676T608 680H687Q694 680 698 677T702 667Q702 660 698 655L281 14Q275 5 271 3T254 0H178Q171 0 167 3ZM630 0T623 6T616 25V86H438Q430 86 427 89T423 100V125Q423 137
426 145T438 164L610 379Q616 388 622 391T643 394H695Q708 394 712 389T717 372V156H754Q769 156 775 151T781 131V109Q781 96 776 91T754 86H717V25Q717 12 710 6T688 0H645Q630 0 623 6ZM631 156V286L531 156H631Z" />
<glyph unicode="&#xbf;" glyph-name="questiondown" horiz-adv-x="547" d="M270 514T257 525T244 556V576Q244 595 257 606T295 618H338Q362 618 375 607T389 576V556Q389 537 376 526T338 514H295Q270 514 257 525ZM170 -77T105 -28T39 111Q39 172 67 211T160
286Q214 316 233 342T252 414V428Q252 447 261 455T290 464H343Q363 464 371 455T380 428V411Q380 347 352 304T261 225Q220 202 201 187T174 155T166 112Q166 66 199 42T291 17Q380 17 449 61Q459 66 463 66Q470 66 474 57L503 8Q508 0 508 -6Q508 -14 499 -20Q461
-47 405 -62T277 -77Q170 -77 105 -28Z" />
<glyph unicode="&#xc0;" glyph-name="Agrave" horiz-adv-x="733" d="M330 729T322 733T307 751L241 880Q237 888 237 895Q237 912 262 912H335Q354 912 360 907T372 888L420 757Q422 753 422 745Q422 729 400 729H348Q330 729 322 733ZM39 0T39 15Q39 21 42 28L306
654Q312 669 319 674T339 680H394Q408 680 414 675T427 654L691 28Q694 21 694 15Q694 0 677 0H590Q577 0 572 3T561 18L504 158H228L172 18Q167 7 162 4T143 0H56Q39 0 39 15ZM472 251L366 513L260 251H472Z" />
<glyph unicode="&#xc1;" glyph-name="Aacute" horiz-adv-x="733" d="M317 729T317 745Q317 753 319 757L366 888Q372 902 378 907T403 912H477Q502 912 502 895Q502 888 498 880L432 751Q425 738 417 734T390 729H338Q317 729 317 745ZM39 0T39 15Q39 21 42 28L306
654Q312 669 319 674T339 680H394Q408 680 414 675T427 654L691 28Q694 21 694 15Q694 0 677 0H590Q577 0 572 3T561 18L504 158H228L172 18Q167 7 162 4T143 0H56Q39 0 39 15ZM472 251L366 513L260 251H472Z" />
<glyph unicode="&#xc2;" glyph-name="Acircumflex" horiz-adv-x="733" d="M201 726T195 730T188 741Q188 750 195 758L299 899Q310 913 315 917T337 921H394Q410 921 416 917T432 899L536 758Q543 750 543 741Q543 734 537 730T521 726H474Q457 726 450 730T433
747L366 847L298 747Q291 735 283 731T258 726H211Q201 726 195 730ZM39 0T39 15Q39 21 42 28L306 654Q312 669 319 674T339 680H394Q408 680 414 675T427 654L691 28Q694 21 694 15Q694 0 677 0H590Q577 0 572 3T561 18L504 158H228L172 18Q167 7 162 4T143 0H56Q39
0 39 15ZM472 251L366 513L260 251H472Z" />
<glyph unicode="&#xc3;" glyph-name="Atilde" horiz-adv-x="733" d="M443 742T421 749T368 771Q339 784 323 789T291 795Q271 795 260 788T232 763Q225 753 214 753Q201 753 179 772Q161 789 161 800Q161 811 172 825Q196 856 221 872T280 888Q309 888 332 881T386
859Q409 848 425 842T459 836Q479 836 492 844T521 873Q529 884 541 884Q555 884 575 868Q597 850 597 837Q597 826 587 813Q562 775 535 759T466 742Q443 742 421 749ZM39 0T39 15Q39 21 42 28L306 654Q312 669 319 674T339 680H394Q408 680 414 675T427 654L691
28Q694 21 694 15Q694 0 677 0H590Q577 0 572 3T561 18L504 158H228L172 18Q167 7 162 4T143 0H56Q39 0 39 15ZM472 251L366 513L260 251H472Z" />
<glyph unicode="&#xc4;" glyph-name="Adieresis" horiz-adv-x="733" d="M237 736T224 750T211 786V805Q211 826 224 840T258 854H278Q299 854 312 840T325 805V786Q325 765 312 751T278 736H258Q237 736 224 750ZM435 736T422 750T408 786V805Q408 825 421 839T455
854H475Q496 854 509 840T522 805V786Q522 765 509 751T475 736H455Q435 736 422 750ZM39 0T39 15Q39 21 42 28L306 654Q312 669 319 674T339 680H394Q408 680 414 675T427 654L691 28Q694 21 694 15Q694 0 677 0H590Q577 0 572 3T561 18L504 158H228L172 18Q167
7 162 4T143 0H56Q39 0 39 15ZM472 251L366 513L260 251H472Z" />
<glyph unicode="&#xc5;" glyph-name="Aring" horiz-adv-x="733" d="M694 21T694 15Q694 0 677 0H590Q577 0 572 3T561 18L504 158H228L172 18Q167 7 162 4T143 0H56Q39 0 39 15Q39 21 42 28L305 653Q280 668 265 694T249 753Q249 802 283 836T366 870Q415 870
449 836T483 753Q483 722 468 696T427 653L691 28Q694 21 694 15ZM344 806T328 791T312 753Q312 731 328 715T366 699Q388 699 403 715T419 753Q419 775 404 790T366 806Q344 806 328 791ZM472 251L366 513L260 251H472Z" />
<glyph unicode="&#xc6;" glyph-name="AE" horiz-adv-x="886" d="M40 0T40 16Q40 24 42 28L306 654Q312 668 320 674T343 680H821Q841 680 849 672T857 645V618Q857 599 849 591T821 582H532V388H733Q753 388 761 380T769 353V328Q769 309 761 301T733 292H532V97H821Q841
97 849 89T857 61V34Q857 16 849 8T821 0H449Q411 0 411 37V159H228L172 18Q168 7 162 4T140 0H56Q40 0 40 16ZM411 251V582H388L257 251H411Z" />
<glyph unicode="&#xc7;" glyph-name="Ccedilla" horiz-adv-x="677" d="M639 56T639 52Q639 46 628 39Q564 -6 442 -14Q442 -16 440 -20L417 -70Q489 -76 489 -144Q489 -182 460 -204T377 -227Q354 -227 331 -222T295 -210Q286 -205 284 -202T285 -192L299 -157Q302
-150 307 -150Q311 -150 317 -153Q337 -164 363 -164Q384 -164 393 -157T402 -135Q402 -115 388 -109T342 -102H327Q319 -102 317 -98T317 -86L344 -18Q345 -17 345 -16T346 -13Q199 0 119 91T39 340Q39 511 130 603T392 695Q460 695 518 681T616 641Q625 635 625
628Q625 622 620 614L592 566Q586 557 581 557Q577 557 567 562Q504 600 406 600Q293 600 229 535T165 340Q165 208 231 144T409 79Q513 79 580 118Q590 123 593 123Q599 123 605 114L636 62Q639 56 639 52Z" />
<glyph unicode="&#xc8;" glyph-name="Egrave" horiz-adv-x="576" d="M280 753T272 757T257 775L191 904Q187 912 187 919Q187 936 212 936H285Q304 936 310 931T322 912L370 781Q372 777 372 769Q372 753 350 753H298Q280 753 272 757ZM76 0T68 9T59 36V643Q59
662 67 671T96 680H512Q532 680 539 672T547 645V618Q547 599 540 591T512 582H187V388H423Q443 388 451 380T459 353V328Q459 309 451 301T423 292H187V97H511Q531 97 539 89T547 61V34Q547 16 539 8T511 0H96Q76 0 68 9Z" />
<glyph unicode="&#xc9;" glyph-name="Eacute" horiz-adv-x="576" d="M234 753T234 769Q234 777 236 781L283 912Q289 926 295 931T320 936H394Q419 936 419 919Q419 912 415 904L349 775Q342 762 334 758T307 753H255Q234 753 234 769ZM76 0T68 9T59 36V643Q59
662 67 671T96 680H512Q532 680 539 672T547 645V618Q547 599 540 591T512 582H187V388H423Q443 388 451 380T459 353V328Q459 309 451 301T423 292H187V97H511Q531 97 539 89T547 61V34Q547 16 539 8T511 0H96Q76 0 68 9Z" />
<glyph unicode="&#xca;" glyph-name="Ecircumflex" horiz-adv-x="576" d="M135 750T129 754T122 765Q122 774 129 782L233 923Q244 937 249 941T271 945H328Q344 945 350 941T366 923L470 782Q477 774 477 765Q477 758 471 754T455 750H408Q391 750 384 754T367
771L300 871L232 771Q225 759 217 755T192 750H145Q135 750 129 754ZM76 0T68 9T59 36V643Q59 662 67 671T96 680H512Q532 680 539 672T547 645V618Q547 599 540 591T512 582H187V388H423Q443 388 451 380T459 353V328Q459 309 451 301T423 292H187V97H511Q531
97 539 89T547 61V34Q547 16 539 8T511 0H96Q76 0 68 9Z" />
<glyph unicode="&#xcb;" glyph-name="Edieresis" horiz-adv-x="576" d="M170 741T157 755T144 791V810Q144 831 157 845T191 859H211Q232 859 245 845T258 810V791Q258 770 245 756T211 741H191Q170 741 157 755ZM368 741T355 755T341 791V810Q341 830 354 844T388
859H408Q429 859 442 845T455 810V791Q455 770 442 756T408 741H388Q368 741 355 755ZM76 0T68 9T59 36V643Q59 662 67 671T96 680H512Q532 680 539 672T547 645V618Q547 599 540 591T512 582H187V388H423Q443 388 451 380T459 353V328Q459 309 451 301T423 292H187V97H511Q531
97 539 89T547 61V34Q547 16 539 8T511 0H96Q76 0 68 9Z" />
<glyph unicode="&#xcc;" glyph-name="Igrave" horiz-adv-x="240" d="M82 753T74 757T59 775L-7 904Q-11 912 -11 919Q-11 936 14 936H87Q106 936 112 931T124 912L172 781Q174 777 174 769Q174 753 152 753H100Q82 753 74 757ZM73 0T65 9T56 36V643Q56 662 64
671T93 680H146Q166 680 175 671T184 643V36Q184 18 176 9T146 0H93Q73 0 65 9Z" />
<glyph unicode="&#xcd;" glyph-name="Iacute" horiz-adv-x="261" d="M74 753T74 769Q74 777 76 781L123 912Q129 926 135 931T160 936H234Q259 936 259 919Q259 912 255 904L189 775Q182 762 174 758T147 753H95Q74 753 74 769ZM84 0T76 9T67 36V643Q67 662 75
671T104 680H157Q177 680 186 671T195 643V36Q195 18 187 9T157 0H104Q84 0 76 9Z" />
<glyph unicode="&#xce;" glyph-name="Icircumflex" horiz-adv-x="240" d="M-45 757T-51 761T-58 772Q-58 781 -51 789L53 930Q64 944 69 948T91 952H148Q164 952 170 948T186 930L290 789Q297 781 297 772Q297 765 291 761T275 757H228Q211 757 204 761T187 778L120
878L52 778Q45 766 37 762T12 757H-35Q-45 757 -51 761ZM73 0T65 9T56 36V643Q56 662 64 671T93 680H146Q166 680 175 671T184 643V36Q184 18 176 9T146 0H93Q73 0 65 9Z" />
<glyph unicode="&#xcf;" glyph-name="Idieresis" horiz-adv-x="271" d="M6 714T-7 728T-20 764V783Q-20 804 -7 818T27 832H47Q68 832 81 818T94 783V764Q94 743 81 729T47 714H27Q6 714 -7 728ZM204 714T191 728T177 764V783Q177 803 190 817T224 832H244Q265
832 278 818T291 783V764Q291 743 278 729T244 714H224Q204 714 191 728ZM87 0T79 9T70 36V643Q70 662 78 671T107 680H160Q180 680 189 671T198 643V36Q198 18 190 9T160 0H107Q87 0 79 9Z" />
<glyph unicode="&#xd0;" glyph-name="Eth" horiz-adv-x="728" d="M122 0T113 9T104 36V292H51Q32 292 26 299T19 325V354Q19 374 25 381T51 389H104V643Q104 662 113 671T142 680H342Q510 680 599 599T689 340Q689 0 342 0H142Q122 0 113 9ZM349 97Q455 97 508
152T562 340Q562 473 509 527T349 582H232V389H380Q399 389 405 382T412 354V325Q412 306 406 299T380 292H232V97H349Z" />
<glyph unicode="&#xd1;" glyph-name="Ntilde" horiz-adv-x="698" d="M421 766T399 773T346 795Q317 808 301 813T269 819Q249 819 238 812T210 787Q203 777 192 777Q179 777 157 796Q139 813 139 824Q139 835 150 849Q174 880 199 896T258 912Q287 912 310 905T364
883Q387 872 403 866T437 860Q457 860 470 868T499 897Q507 908 519 908Q533 908 553 892Q575 874 575 861Q575 850 565 837Q540 799 513 783T444 766Q421 766 399 773ZM76 0T68 9T59 36V643Q59 662 67 671T97 680H143Q157 680 165 676T181 660L511 202V643Q511
662 519 671T548 680H601Q621 680 630 671T639 643V36Q639 18 631 9T601 0H554Q540 0 533 3T517 19L187 476V36Q187 18 179 9T149 0H96Q76 0 68 9Z" />
<glyph unicode="&#xd2;" glyph-name="Ograve" horiz-adv-x="762" d="M347 753T339 757T324 775L258 904Q254 912 254 919Q254 936 279 936H352Q371 936 377 931T389 912L437 781Q439 777 439 769Q439 753 417 753H365Q347 753 339 757ZM216 -15T128 78T39 340Q39
509 127 602T381 695Q545 695 634 602T723 340Q723 171 634 78T381 -15Q216 -15 128 78ZM486 79T541 145T596 340Q596 468 541 534T381 600Q276 600 221 534T165 340Q165 212 220 146T381 79Q486 79 541 145Z" />
<glyph unicode="&#xd3;" glyph-name="Oacute" horiz-adv-x="762" d="M315 753T315 769Q315 777 317 781L364 912Q370 926 376 931T401 936H475Q500 936 500 919Q500 912 496 904L430 775Q423 762 415 758T388 753H336Q315 753 315 769ZM216 -15T128 78T39 340Q39
509 127 602T381 695Q545 695 634 602T723 340Q723 171 634 78T381 -15Q216 -15 128 78ZM486 79T541 145T596 340Q596 468 541 534T381 600Q276 600 221 534T165 340Q165 212 220 146T381 79Q486 79 541 145Z" />
<glyph unicode="&#xd4;" glyph-name="Ocircumflex" horiz-adv-x="762" d="M216 750T210 754T203 765Q203 774 210 782L314 923Q325 937 330 941T352 945H409Q425 945 431 941T447 923L551 782Q558 774 558 765Q558 758 552 754T536 750H489Q472 750 465 754T448
771L381 871L313 771Q306 759 298 755T273 750H226Q216 750 210 754ZM216 -15T128 78T39 340Q39 509 127 602T381 695Q545 695 634 602T723 340Q723 171 634 78T381 -15Q216 -15 128 78ZM486 79T541 145T596 340Q596 468 541 534T381 600Q276 600 221 534T165 340Q165
212 220 146T381 79Q486 79 541 145Z" />
<glyph unicode="&#xd5;" glyph-name="Otilde" horiz-adv-x="762" d="M448 736T426 743T373 765Q344 778 328 783T296 789Q276 789 265 782T237 757Q230 747 219 747Q206 747 184 766Q166 783 166 794Q166 805 177 819Q201 850 226 866T285 882Q314 882 337 875T391
853Q414 842 430 836T464 830Q484 830 497 838T526 867Q534 878 546 878Q560 878 580 862Q602 844 602 831Q602 820 592 807Q567 769 540 753T471 736Q448 736 426 743ZM216 -15T128 78T39 340Q39 509 127 602T381 695Q545 695 634 602T723 340Q723 171 634 78T381
-15Q216 -15 128 78ZM486 79T541 145T596 340Q596 468 541 534T381 600Q276 600 221 534T165 340Q165 212 220 146T381 79Q486 79 541 145Z" />
<glyph unicode="&#xd6;" glyph-name="Odieresis" horiz-adv-x="762" d="M251 747T238 761T225 797V816Q225 837 238 851T272 865H292Q313 865 326 851T339 816V797Q339 776 326 762T292 747H272Q251 747 238 761ZM449 747T436 761T422 797V816Q422 836 435 850T469
865H489Q510 865 523 851T536 816V797Q536 776 523 762T489 747H469Q449 747 436 761ZM216 -15T128 78T39 340Q39 509 127 602T381 695Q545 695 634 602T723 340Q723 171 634 78T381 -15Q216 -15 128 78ZM486 79T541 145T596 340Q596 468 541 534T381 600Q276 600
221 534T165 340Q165 212 220 146T381 79Q486 79 541 145Z" />
<glyph unicode="&#xd7;" glyph-name="multiply" horiz-adv-x="392" d="M134 140T125 140Q114 140 104 152L79 175Q68 188 68 197Q68 207 79 218L159 299L79 379Q68 390 68 401Q68 411 79 422L103 446Q115 458 125 458Q134 458 145 447L226 365L308 447Q319 458
328 458Q339 458 349 446L374 422Q385 411 385 401Q385 390 374 379L294 299L374 218Q385 207 385 196Q385 186 374 175L349 152Q339 140 328 140Q319 140 308 151L226 232L145 151Q134 140 125 140Z" />
<glyph unicode="&#xd8;" glyph-name="Oslash" horiz-adv-x="762" d="M643 613T683 533T723 340Q723 171 634 78T381 -15Q334 -15 296 -8L271 -70Q267 -79 262 -82T246 -86H165Q151 -86 151 -75Q151 -69 154 -61L191 29Q117 71 78 150T39 340Q39 509 127 602T381
695Q424 695 460 689L479 734Q483 744 488 747T503 751H584Q598 751 598 739Q598 734 595 726L566 654Q643 613 683 533ZM165 200T233 132L423 597Q404 600 381 600Q276 600 221 534T165 340Q165 200 233 132ZM486 79T541 145T596 340Q596 486 524 552L333 83Q353
79 381 79Q486 79 541 145Z" />
<glyph unicode="&#xd9;" glyph-name="Ugrave" horiz-adv-x="716" d="M337 753T329 757T314 775L248 904Q244 912 244 919Q244 936 269 936H342Q361 936 367 931T379 912L427 781Q429 777 429 769Q429 753 407 753H355Q337 753 329 757ZM268 -15T199 15T92 104T54
240V643Q54 662 62 671T91 680H144Q164 680 173 671T182 643V237Q182 159 227 119T358 79Q442 79 487 119T533 237V643Q533 662 542 671T571 680H623Q662 680 662 643V240Q662 162 624 105T516 16T358 -15Q268 -15 199 15Z" />
<glyph unicode="&#xda;" glyph-name="Uacute" horiz-adv-x="716" d="M306 753T306 769Q306 777 308 781L355 912Q361 926 367 931T392 936H466Q491 936 491 919Q491 912 487 904L421 775Q414 762 406 758T379 753H327Q306 753 306 769ZM268 -15T199 15T92 104T54
240V643Q54 662 62 671T91 680H144Q164 680 173 671T182 643V237Q182 159 227 119T358 79Q442 79 487 119T533 237V643Q533 662 542 671T571 680H623Q662 680 662 643V240Q662 162 624 105T516 16T358 -15Q268 -15 199 15Z" />
<glyph unicode="&#xdb;" glyph-name="Ucircumflex" horiz-adv-x="716" d="M194 750T188 754T181 765Q181 774 188 782L292 923Q303 937 308 941T330 945H387Q403 945 409 941T425 923L529 782Q536 774 536 765Q536 758 530 754T514 750H467Q450 750 443 754T426
771L359 871L291 771Q284 759 276 755T251 750H204Q194 750 188 754ZM268 -15T199 15T92 104T54 240V643Q54 662 62 671T91 680H144Q164 680 173 671T182 643V237Q182 159 227 119T358 79Q442 79 487 119T533 237V643Q533 662 542 671T571 680H623Q662 680 662
643V240Q662 162 624 105T516 16T358 -15Q268 -15 199 15Z" />
<glyph unicode="&#xdc;" glyph-name="Udieresis" horiz-adv-x="716" d="M228 741T215 755T202 791V810Q202 831 215 845T249 859H269Q290 859 303 845T316 810V791Q316 770 303 756T269 741H249Q228 741 215 755ZM426 741T413 755T399 791V810Q399 830 412 844T446
859H466Q487 859 500 845T513 810V791Q513 770 500 756T466 741H446Q426 741 413 755ZM268 -15T199 15T92 104T54 240V643Q54 662 62 671T91 680H144Q164 680 173 671T182 643V237Q182 159 227 119T358 79Q442 79 487 119T533 237V643Q533 662 542 671T571 680H623Q662
680 662 643V240Q662 162 624 105T516 16T358 -15Q268 -15 199 15Z" />
<glyph unicode="&#xdd;" glyph-name="Yacute" horiz-adv-x="708" d="M300 753T300 769Q300 777 302 781L349 912Q355 926 361 931T386 936H460Q485 936 485 919Q485 912 481 904L415 775Q408 762 400 758T373 753H321Q300 753 300 769ZM307 0T298 9T289 36V229L43
652Q39 659 39 665Q39 680 57 680H143Q156 680 160 677T171 664L354 346L536 664Q541 673 546 676T564 680H651Q669 680 669 665Q669 659 665 652L418 228V36Q418 18 410 9T380 0H327Q307 0 298 9Z" />
<glyph unicode="&#xde;" glyph-name="Thorn" horiz-adv-x="633" d="M76 0T68 9T59 36V643Q59 662 67 671T96 680H149Q169 680 178 671T187 643V565H352Q474 565 534 507T594 340Q594 231 535 173T352 115H187V36Q187 18 179 9T149 0H96Q76 0 68 9ZM346 212Q467
212 467 340Q467 404 437 435T346 467H187V212H346Z" />
<glyph unicode="&#xdf;" glyph-name="germandbls" horiz-adv-x="650" d="M299 -15T227 28Q217 34 217 41Q217 48 221 53L257 111Q263 121 269 121Q275 121 282 116Q329 85 391 85Q434 85 457 115T481 188Q481 233 470 259T429 297T344 310H291Q268 310 268 332V381Q268
392 273 396T291 401H345Q409 401 436 433T464 518Q464 575 429 600T318 625Q248 625 215 590T182 484V36Q182 18 173 9T143 0H94Q72 0 63 8T54 36V479Q54 589 119 654T320 720Q457 720 524 664T591 513Q591 460 567 418T500 358Q559 339 585 296T611 188Q611 94
555 40T397 -15Q299 -15 227 28Z" />
<glyph unicode="&#xe0;" glyph-name="agrave" horiz-adv-x="615" d="M325 555T317 559T302 577L236 706Q232 714 232 721Q232 738 257 738H330Q349 738 355 733T367 714L415 583Q417 579 417 571Q417 555 395 555H343Q325 555 317 559ZM155 -15T97 44T39 212Q39
296 76 360T181 460T341 495Q468 495 556 435V27Q556 12 550 6T527 0H472Q461 0 456 4T448 19L440 58Q409 20 364 3T253 -15Q155 -15 97 44ZM354 76T394 107T435 189V384Q414 395 393 399T340 404Q261 404 213 354T165 216Q165 144 198 110T301 76Q354 76 394 107Z"
/>
<glyph unicode="&#xe1;" glyph-name="aacute" horiz-adv-x="615" d="M268 555T268 571Q268 579 270 583L317 714Q323 728 329 733T354 738H428Q453 738 453 721Q453 714 449 706L383 577Q376 564 368 560T341 555H289Q268 555 268 571ZM155 -15T97 44T39 212Q39
296 76 360T181 460T341 495Q468 495 556 435V27Q556 12 550 6T527 0H472Q461 0 456 4T448 19L440 58Q409 20 364 3T253 -15Q155 -15 97 44ZM354 76T394 107T435 189V384Q414 395 393 399T340 404Q261 404 213 354T165 216Q165 144 198 110T301 76Q354 76 394 107Z"
/>
<glyph unicode="&#xe2;" glyph-name="acircumflex" horiz-adv-x="615" d="M161 552T155 556T148 567Q148 576 155 584L259 725Q270 739 275 743T297 747H354Q370 747 376 743T392 725L496 584Q503 576 503 567Q503 560 497 556T481 552H434Q417 552 410 556T393
573L326 673L258 573Q251 561 243 557T218 552H171Q161 552 155 556ZM155 -15T97 44T39 212Q39 296 76 360T181 460T341 495Q468 495 556 435V27Q556 12 550 6T527 0H472Q461 0 456 4T448 19L440 58Q409 20 364 3T253 -15Q155 -15 97 44ZM354 76T394 107T435 189V384Q414
395 393 399T340 404Q261 404 213 354T165 216Q165 144 198 110T301 76Q354 76 394 107Z" />
<glyph unicode="&#xe3;" glyph-name="atilde" horiz-adv-x="618" d="M414 576T392 583T339 605Q310 618 294 623T262 629Q242 629 231 622T203 597Q196 587 185 587Q172 587 150 606Q132 623 132 634Q132 645 143 659Q167 690 192 706T251 722Q280 722 303 715T357
693Q380 682 396 676T430 670Q450 670 463 678T492 707Q500 718 512 718Q526 718 546 702Q568 684 568 671Q568 660 558 647Q533 609 506 593T437 576Q414 576 392 583ZM155 -15T97 44T39 212Q39 296 76 360T181 460T341 495Q468 495 556 435V27Q556 12 550 6T527
0H472Q461 0 456 4T448 19L440 58Q409 20 364 3T253 -15Q155 -15 97 44ZM354 76T394 107T435 189V384Q414 395 393 399T340 404Q261 404 213 354T165 216Q165 144 198 110T301 76Q354 76 394 107Z" />
<glyph unicode="&#xe4;" glyph-name="adieresis" horiz-adv-x="615" d="M210 551T197 565T184 601V620Q184 641 197 655T231 669H251Q272 669 285 655T298 620V601Q298 580 285 566T251 551H231Q210 551 197 565ZM408 551T395 565T381 601V620Q381 640 394 654T428
669H448Q469 669 482 655T495 620V601Q495 580 482 566T448 551H428Q408 551 395 565ZM155 -15T97 44T39 212Q39 296 76 360T181 460T341 495Q468 495 556 435V27Q556 12 550 6T527 0H472Q461 0 456 4T448 19L440 58Q409 20 364 3T253 -15Q155 -15 97 44ZM354 76T394
107T435 189V384Q414 395 393 399T340 404Q261 404 213 354T165 216Q165 144 198 110T301 76Q354 76 394 107Z" />
<glyph unicode="&#xe5;" glyph-name="aring" horiz-adv-x="615" d="M291 545T257 579T223 662Q223 711 257 745T340 779Q389 779 423 745T457 662Q457 613 423 579T340 545Q291 545 257 579ZM362 608T377 624T393 662Q393 684 378 699T340 715Q318 715 302 700T286
662Q286 640 302 624T340 608Q362 608 377 624ZM155 -15T97 44T39 212Q39 296 76 360T181 460T341 495Q468 495 556 435V27Q556 12 550 6T527 0H472Q461 0 456 4T448 19L440 58Q409 20 364 3T253 -15Q155 -15 97 44ZM354 76T394 107T435 189V384Q414 395 393 399T340
404Q261 404 213 354T165 216Q165 144 198 110T301 76Q354 76 394 107Z" />
<glyph unicode="&#xe6;" glyph-name="ae" horiz-adv-x="951" d="M145 -15T92 21T39 133Q39 212 91 249T240 287H396V307Q396 357 365 384T262 411Q222 411 191 404T130 381Q120 377 118 377Q114 377 111 380T104 390L83 431Q80 437 80 441Q80 448 90 454Q125 473
173 484T272 495Q347 495 392 471T462 401Q489 447 540 471T658 495Q784 495 848 430T912 242Q912 207 881 207H521Q521 142 565 106T689 70Q771 70 829 106Q836 110 841 110Q846 110 852 101L875 58Q879 53 879 47Q879 40 869 34Q829 8 783 -3T677 -15Q605 -15
548 13T461 94Q427 42 367 14T234 -15Q145 -15 92 21ZM797 281Q797 346 764 379T659 413Q521 413 521 281H797ZM318 70T357 99T396 186V213H246Q196 213 173 196T149 139Q149 103 172 87T247 70Q318 70 357 99Z" />
<glyph unicode="&#xe7;" glyph-name="ccedilla" horiz-adv-x="565" d="M525 56T525 50Q525 43 515 36Q451 -6 367 -13Q368 -16 365 -22L342 -72Q414 -78 414 -146Q414 -184 385 -206T302 -229Q279 -229 256 -224T220 -212Q211 -207 209 -204T210 -194L224 -159Q227
-152 232 -152Q236 -152 242 -155Q262 -166 288 -166Q309 -166 318 -159T327 -137Q327 -117 313 -111T267 -104H252Q244 -104 242 -100T242 -88L269 -20Q271 -16 273 -13Q161 -1 100 63T39 238Q39 314 73 372T170 462T319 495Q382 495 426 483T508 444Q517 438
517 431Q517 425 512 417L485 370Q479 360 474 360Q469 360 460 366Q429 385 399 394T326 404Q251 404 208 360T165 238Q165 157 208 117T334 76Q376 76 407 86T467 115Q475 120 480 120Q486 120 492 110L521 61Q525 56 525 50Z" />
<glyph unicode="&#xe8;" glyph-name="egrave" horiz-adv-x="598" d="M286 555T278 559T263 577L197 706Q193 714 193 721Q193 738 218 738H291Q310 738 316 733T328 714L376 583Q378 579 378 571Q378 555 356 555H304Q286 555 278 559ZM240 -15T177 11T77 93T39
232Q39 361 108 428T304 495Q430 495 494 430T559 242Q559 207 527 207H160Q160 141 206 106T334 70Q413 70 476 106Q483 110 487 110Q494 110 498 101L522 58Q525 52 525 47Q525 40 516 34Q475 9 428 -3T318 -15Q240 -15 177 11ZM443 281Q443 343 409 378T305
413Q235 413 198 377T160 281H443Z" />
<glyph unicode="&#xe9;" glyph-name="eacute" horiz-adv-x="598" d="M246 555T246 571Q246 579 248 583L295 714Q301 728 307 733T332 738H406Q431 738 431 721Q431 714 427 706L361 577Q354 564 346 560T319 555H267Q246 555 246 571ZM240 -15T177 11T77 93T39
232Q39 361 108 428T304 495Q430 495 494 430T559 242Q559 207 527 207H160Q160 141 206 106T334 70Q413 70 476 106Q483 110 487 110Q494 110 498 101L522 58Q525 52 525 47Q525 40 516 34Q475 9 428 -3T318 -15Q240 -15 177 11ZM443 281Q443 343 409 378T305
413Q235 413 198 377T160 281H443Z" />
<glyph unicode="&#xea;" glyph-name="ecircumflex" horiz-adv-x="598" d="M138 552T132 556T125 567Q125 576 132 584L236 725Q247 739 252 743T274 747H331Q347 747 353 743T369 725L473 584Q480 576 480 567Q480 560 474 556T458 552H411Q394 552 387 556T370
573L303 673L235 573Q228 561 220 557T195 552H148Q138 552 132 556ZM240 -15T177 11T77 93T39 232Q39 361 108 428T304 495Q430 495 494 430T559 242Q559 207 527 207H160Q160 141 206 106T334 70Q413 70 476 106Q483 110 487 110Q494 110 498 101L522 58Q525
52 525 47Q525 40 516 34Q475 9 428 -3T318 -15Q240 -15 177 11ZM443 281Q443 343 409 378T305 413Q235 413 198 377T160 281H443Z" />
<glyph unicode="&#xeb;" glyph-name="edieresis" horiz-adv-x="598" d="M176 539T163 553T150 589V608Q150 629 163 643T197 657H217Q238 657 251 643T264 608V589Q264 568 251 554T217 539H197Q176 539 163 553ZM374 539T361 553T347 589V608Q347 628 360 642T394
657H414Q435 657 448 643T461 608V589Q461 568 448 554T414 539H394Q374 539 361 553ZM240 -15T177 11T77 93T39 232Q39 361 108 428T304 495Q430 495 494 430T559 242Q559 207 527 207H160Q160 141 206 106T334 70Q413 70 476 106Q483 110 487 110Q494 110 498
101L522 58Q525 52 525 47Q525 40 516 34Q475 9 428 -3T318 -15Q240 -15 177 11ZM443 281Q443 343 409 378T305 413Q235 413 198 377T160 281H443Z" />
<glyph unicode="&#xec;" glyph-name="igrave" horiz-adv-x="244" d="M86 555T78 559T63 577L-3 706Q-7 714 -7 721Q-7 738 18 738H91Q110 738 116 733T128 714L176 583Q178 579 178 571Q178 555 156 555H104Q86 555 78 559ZM72 0T64 9T55 36V443Q55 462 63 471T92
480H145Q165 480 174 471T183 443V36Q183 18 175 9T145 0H92Q72 0 64 9Z" />
<glyph unicode="&#xed;" glyph-name="iacute" horiz-adv-x="244" d="M63 555T63 571Q63 579 65 583L112 714Q118 728 124 733T149 738H223Q248 738 248 721Q248 714 244 706L178 577Q171 564 163 560T136 555H84Q63 555 63 571ZM84 0T76 9T67 36V443Q67 462 75
471T104 480H157Q177 480 186 471T195 443V36Q195 18 187 9T157 0H104Q84 0 76 9Z" />
<glyph unicode="&#xee;" glyph-name="icircumflex" horiz-adv-x="246" d="M-43 544T-49 548T-56 559Q-56 568 -49 576L55 717Q66 731 71 735T93 739H150Q166 739 172 735T188 717L292 576Q299 568 299 559Q299 552 293 548T277 544H230Q213 544 206 548T189 565L122
665L54 565Q47 553 39 549T14 544H-33Q-43 544 -49 548ZM76 0T68 9T59 36V443Q59 462 67 471T96 480H149Q169 480 178 471T187 443V36Q187 18 179 9T149 0H96Q76 0 68 9Z" />
<glyph unicode="&#xef;" glyph-name="idieresis" horiz-adv-x="246" d="M-3 543T-16 557T-29 593V612Q-29 633 -16 647T18 661H38Q59 661 72 647T85 612V593Q85 572 72 558T38 543H18Q-3 543 -16 557ZM195 543T182 557T168 593V612Q168 632 181 646T215 661H235Q256
661 269 647T282 612V593Q282 572 269 558T235 543H215Q195 543 182 557ZM76 0T68 9T59 36V443Q59 462 67 471T96 480H149Q169 480 178 471T187 443V36Q187 18 179 9T149 0H96Q76 0 68 9Z" />
<glyph unicode="&#xf0;" glyph-name="eth" horiz-adv-x="675" d="M39 -15T39 183Q39 272 75 338T179 439T336 475Q406 475 447 456T515 397Q516 410 516 434Q516 485 507 518T475 570L430 507Q423 497 413 497H324Q317 497 315 501T315 510L380 601Q373 602 358
602Q292 602 227 571Q219 567 213 567Q207 567 203 575L184 623Q182 631 182 633Q182 643 194 650Q270 695 384 695Q415 695 443 689L455 706Q462 716 473 716H562Q569 716 571 712T570 703L534 653Q627 587 627 434Q627 372 611 296Q576 134 484 60T266 -15Q39
-15 39 183ZM356 79T406 126T474 259Q477 276 477 289Q477 340 442 367T350 394Q262 394 214 343T165 186Q165 132 196 106T286 79Q356 79 406 126Z" />
<glyph unicode="&#xf1;" glyph-name="ntilde" horiz-adv-x="603" d="M372 576T350 583T297 605Q268 618 253 623T220 629Q200 629 189 622T161 597Q154 587 143 587Q130 587 108 606Q90 623 90 634Q90 645 101 659Q125 690 150 706T209 722Q238 722 261 715T315
693Q338 682 354 676T388 670Q408 670 421 678T450 707Q458 718 470 718Q484 718 504 702Q526 684 526 671Q526 660 516 647Q491 609 464 593T395 576Q372 576 350 583ZM77 0T68 9T59 36V453Q59 468 64 474T85 480H142Q164 480 165 460L167 420Q235 495 362 495Q443
495 492 452T542 321V36Q542 18 534 9T505 0H452Q432 0 423 9T414 36V313Q414 362 392 382T319 403Q266 403 227 375T187 301V36Q187 18 179 9T149 0H97Q77 0 68 9Z" />
<glyph unicode="&#xf2;" glyph-name="ograve" horiz-adv-x="621" d="M286 555T278 559T263 577L197 706Q193 714 193 721Q193 738 218 738H291Q310 738 316 733T328 714L376 583Q378 579 378 571Q378 555 356 555H304Q286 555 278 559ZM180 -15T110 53T39 240Q39
358 109 426T310 495Q440 495 511 427T582 240Q582 122 511 54T310 -15Q180 -15 110 53ZM381 79T418 120T455 240Q455 318 418 358T310 399Q240 399 203 359T165 240Q165 162 202 121T310 79Q381 79 418 120Z" />
<glyph unicode="&#xf3;" glyph-name="oacute" horiz-adv-x="621" d="M240 555T240 571Q240 579 242 583L289 714Q295 728 301 733T326 738H400Q425 738 425 721Q425 714 421 706L355 577Q348 564 340 560T313 555H261Q240 555 240 571ZM180 -15T110 53T39 240Q39
358 109 426T310 495Q440 495 511 427T582 240Q582 122 511 54T310 -15Q180 -15 110 53ZM381 79T418 120T455 240Q455 318 418 358T310 399Q240 399 203 359T165 240Q165 162 202 121T310 79Q381 79 418 120Z" />
<glyph unicode="&#xf4;" glyph-name="ocircumflex" horiz-adv-x="621" d="M145 552T139 556T132 567Q132 576 139 584L243 725Q254 739 259 743T281 747H338Q354 747 360 743T376 725L480 584Q487 576 487 567Q487 560 481 556T465 552H418Q401 552 394 556T377
573L310 673L242 573Q235 561 227 557T202 552H155Q145 552 139 556ZM180 -15T110 53T39 240Q39 358 109 426T310 495Q440 495 511 427T582 240Q582 122 511 54T310 -15Q180 -15 110 53ZM381 79T418 120T455 240Q455 318 418 358T310 399Q240 399 203 359T165 240Q165
162 202 121T310 79Q381 79 418 120Z" />
<glyph unicode="&#xf5;" glyph-name="otilde" horiz-adv-x="621" d="M387 572T365 579T312 601Q283 614 267 619T235 625Q215 625 204 618T176 593Q169 583 158 583Q145 583 123 602Q105 619 105 630Q105 641 116 655Q140 686 165 702T224 718Q253 718 276 711T330
689Q353 678 369 672T403 666Q423 666 436 674T465 703Q473 714 485 714Q499 714 519 698Q541 680 541 667Q541 656 531 643Q506 605 479 589T410 572Q387 572 365 579ZM180 -15T110 53T39 240Q39 358 109 426T310 495Q440 495 511 427T582 240Q582 122 511 54T310
-15Q180 -15 110 53ZM381 79T418 120T455 240Q455 318 418 358T310 399Q240 399 203 359T165 240Q165 162 202 121T310 79Q381 79 418 120Z" />
<glyph unicode="&#xf6;" glyph-name="odieresis" horiz-adv-x="621" d="M180 551T167 565T154 601V620Q154 641 167 655T201 669H221Q242 669 255 655T268 620V601Q268 580 255 566T221 551H201Q180 551 167 565ZM378 551T365 565T351 601V620Q351 640 364 654T398
669H418Q439 669 452 655T465 620V601Q465 580 452 566T418 551H398Q378 551 365 565ZM180 -15T110 53T39 240Q39 358 109 426T310 495Q440 495 511 427T582 240Q582 122 511 54T310 -15Q180 -15 110 53ZM381 79T418 120T455 240Q455 318 418 358T310 399Q240 399
203 359T165 240Q165 162 202 121T310 79Q381 79 418 120Z" />
<glyph unicode="&#xf7;" glyph-name="divide" horiz-adv-x="471" d="M206 390T194 403T181 434V453Q181 471 193 484T224 497H242Q260 497 272 484T285 453V434Q285 416 273 403T242 390H224Q206 390 194 403ZM52 250T46 257T39 280V317Q39 333 45 340T68 347H403Q418
347 425 340T432 317V280Q432 265 425 258T403 250H68Q52 250 46 257ZM206 100T194 113T181 145V163Q181 182 193 194T224 207H242Q261 207 273 195T285 163V145Q285 126 273 113T242 100H224Q206 100 194 113Z" />
<glyph unicode="&#xf8;" glyph-name="oslash" horiz-adv-x="621" d="M519 432T550 375T582 240Q582 122 511 54T310 -15Q294 -15 264 -13L241 -70Q235 -86 216 -86H135Q121 -86 121 -74Q121 -69 124 -61L157 19Q99 50 69 107T39 240Q39 358 109 426T310 495Q325
495 351 493L377 556Q384 573 402 573H483Q497 573 497 560Q497 554 494 548L459 463Q519 432 550 375ZM165 165T200 124L313 399H310Q240 399 203 359T165 240Q165 165 200 124ZM381 79T418 120T455 240Q455 319 417 360L302 79H310Q381 79 418 120Z" />
<glyph unicode="&#xf9;" glyph-name="ugrave" horiz-adv-x="590" d="M275 555T267 559T252 577L186 706Q182 714 182 721Q182 738 207 738H280Q299 738 305 733T317 714L365 583Q367 579 367 571Q367 555 345 555H293Q275 555 267 559ZM154 -15T104 30T54 166V443Q54
462 62 471T91 480H144Q164 480 173 471T182 443V169Q182 121 207 99T281 76Q333 76 368 105T403 180V443Q403 462 412 471T441 480H493Q513 480 522 471T531 443V27Q531 11 526 6T505 0H449Q438 0 433 4T427 19L423 61Q355 -15 236 -15Q154 -15 104 30Z" />
<glyph unicode="&#xfa;" glyph-name="uacute" horiz-adv-x="590" d="M229 555T229 571Q229 579 231 583L278 714Q284 728 290 733T315 738H389Q414 738 414 721Q414 714 410 706L344 577Q337 564 329 560T302 555H250Q229 555 229 571ZM154 -15T104 30T54 166V443Q54
462 62 471T91 480H144Q164 480 173 471T182 443V169Q182 121 207 99T281 76Q333 76 368 105T403 180V443Q403 462 412 471T441 480H493Q513 480 522 471T531 443V27Q531 11 526 6T505 0H449Q438 0 433 4T427 19L423 61Q355 -15 236 -15Q154 -15 104 30Z" />
<glyph unicode="&#xfb;" glyph-name="ucircumflex" horiz-adv-x="590" d="M127 552T121 556T114 567Q114 576 121 584L225 725Q236 739 241 743T263 747H320Q336 747 342 743T358 725L462 584Q469 576 469 567Q469 560 463 556T447 552H400Q383 552 376 556T359
573L292 673L224 573Q217 561 209 557T184 552H137Q127 552 121 556ZM154 -15T104 30T54 166V443Q54 462 62 471T91 480H144Q164 480 173 471T182 443V169Q182 121 207 99T281 76Q333 76 368 105T403 180V443Q403 462 412 471T441 480H493Q513 480 522 471T531
443V27Q531 11 526 6T505 0H449Q438 0 433 4T427 19L423 61Q355 -15 236 -15Q154 -15 104 30Z" />
<glyph unicode="&#xfc;" glyph-name="udieresis" horiz-adv-x="590" d="M160 543T147 557T134 593V612Q134 633 147 647T181 661H201Q222 661 235 647T248 612V593Q248 572 235 558T201 543H181Q160 543 147 557ZM358 543T345 557T331 593V612Q331 632 344 646T378
661H398Q419 661 432 647T445 612V593Q445 572 432 558T398 543H378Q358 543 345 557ZM154 -15T104 30T54 166V443Q54 462 62 471T91 480H144Q164 480 173 471T182 443V169Q182 121 207 99T281 76Q333 76 368 105T403 180V443Q403 462 412 471T441 480H493Q513
480 522 471T531 443V27Q531 11 526 6T505 0H449Q438 0 433 4T427 19L423 61Q355 -15 236 -15Q154 -15 104 30Z" />
<glyph unicode="&#xfd;" glyph-name="yacute" horiz-adv-x="595" d="M244 563T244 579Q244 587 246 591L293 722Q299 736 305 741T330 746H404Q429 746 429 729Q429 722 425 714L359 585Q352 572 344 568T317 563H265Q244 563 244 579ZM137 -156T105 -145T50 -115Q42
-108 42 -102Q42 -96 46 -91L74 -43Q80 -33 86 -33Q91 -33 98 -39Q114 -51 130 -57T170 -63Q200 -63 217 -44T252 22L50 452Q46 462 46 466Q46 480 62 480H147Q160 480 166 476T177 461L311 147L445 461Q450 472 456 476T475 480H560Q576 480 576 466Q576 462 572
452L384 51Q345 -31 319 -73T259 -135T175 -156Q137 -156 105 -145Z" />
<glyph unicode="&#xfe;" glyph-name="thorn" horiz-adv-x="617" d="M76 -202T68 -193T59 -166V658Q59 677 67 686T96 695H147Q167 695 176 686T185 658V476Q209 485 239 490T298 495Q434 495 506 431T578 239Q578 121 515 53T340 -15Q235 -15 185 36V-166Q185
-185 177 -193T147 -202H96Q76 -202 68 -193ZM382 76T416 119T451 243Q451 329 410 366T285 403Q256 403 229 398T185 384V187Q185 136 221 106T311 76Q382 76 416 119Z" />
<glyph unicode="&#xff;" glyph-name="ydieresis" horiz-adv-x="595" d="M183 551T170 565T157 601V620Q157 641 170 655T204 669H224Q245 669 258 655T271 620V601Q271 580 258 566T224 551H204Q183 551 170 565ZM381 551T368 565T354 601V620Q354 640 367 654T401
669H421Q442 669 455 655T468 620V601Q468 580 455 566T421 551H401Q381 551 368 565ZM137 -156T105 -145T50 -115Q42 -108 42 -102Q42 -96 46 -91L74 -43Q80 -33 86 -33Q91 -33 98 -39Q114 -51 130 -57T170 -63Q200 -63 217 -44T252 22L50 452Q46 462 46 466Q46
480 62 480H147Q160 480 166 476T177 461L311 147L445 461Q450 472 456 476T475 480H560Q576 480 576 466Q576 462 572 452L384 51Q345 -31 319 -73T259 -135T175 -156Q137 -156 105 -145Z" />
<glyph unicode="&#x2013;" glyph-name="endash" horiz-adv-x="563" d="M54 250T47 258T39 285V311Q39 330 46 338T74 347H488Q508 347 516 339T524 311V285Q524 266 516 258T488 250H74Q54 250 47 258Z" />
<glyph unicode="&#x2014;" glyph-name="emdash" horiz-adv-x="853" d="M54 250T47 258T39 285V311Q39 330 46 338T74 347H778Q798 347 806 339T814 311V285Q814 266 806 258T778 250H74Q54 250 47 258Z" />
<glyph unicode="&#x2018;" glyph-name="quoteleft" horiz-adv-x="246" d="M38 475T38 490Q38 496 43 508L115 678Q123 695 145 695H189Q207 695 207 681Q207 678 205 670L151 501Q146 485 139 480T115 475H63Q38 475 38 490Z" />
<glyph unicode="&#x2019;" glyph-name="quoteright" horiz-adv-x="246" d="M39 475T39 489Q39 492 41 500L94 669Q99 685 106 690T130 695H182Q207 695 207 680Q207 674 202 662L130 492Q126 483 120 479T101 475H57Q39 475 39 489Z" />
<glyph unicode="&#x201a;" glyph-name="quotesinglbase" horiz-adv-x="246" d="M39 -119T39 -105Q39 -103 41 -95L94 75Q98 90 105 95T130 100H182Q207 100 207 85Q207 79 202 67L130 -102Q126 -111 120 -115T101 -119H57Q39 -119 39 -105Z" />
<glyph unicode="&#x201c;" glyph-name="quotedblleft" horiz-adv-x="414" d="M38 475T38 490Q38 496 43 508L115 678Q123 695 145 695H181Q199 695 199 681Q199 678 197 670L143 501Q138 485 131 480T107 475H63Q38 475 38 490ZM214 475T214 490Q214 496 219 508L291
678Q295 687 301 691T320 695H356Q374 695 374 681Q374 678 372 670L319 501Q314 485 307 480T283 475H239Q214 475 214 490Z" />
<glyph unicode="&#x201d;" glyph-name="quotedblright" horiz-adv-x="414" d="M39 475T39 489Q39 492 41 500L94 669Q99 685 106 690T130 695H174Q199 695 199 680Q199 674 194 662L122 492Q118 483 112 479T93 475H57Q39 475 39 489ZM215 475T215 489Q215 492
217 500L270 669Q275 685 282 690T306 695H350Q375 695 375 680Q375 674 370 662L298 492Q294 483 288 479T269 475H233Q215 475 215 489Z" />
<glyph unicode="&#x201e;" glyph-name="quotedblbase" horiz-adv-x="399" d="M39 -119T39 -105Q39 -103 41 -95L94 75Q98 90 105 95T130 100H174Q199 100 199 85Q199 79 194 67L122 -102Q118 -111 112 -115T93 -119H57Q39 -119 39 -105ZM200 -119T200 -105Q200
-103 202 -95L255 75Q259 90 266 95T291 100H335Q360 100 360 85Q360 80 355 67L283 -102Q279 -111 273 -115T254 -119H218Q200 -119 200 -105Z" />
<glyph unicode="&#x2022;" glyph-name="bullet" horiz-adv-x="300" d="M93 178T66 208T39 279V310Q39 350 66 379T132 409H167Q207 409 234 380T261 310V279Q261 238 235 208T167 178H132Q93 178 66 208Z" />
<glyph unicode="&#x2039;" glyph-name="guilsinglleft" horiz-adv-x="383" d="M283 25T274 25Q264 25 250 39L62 236Q60 238 53 246T42 260T39 272V287Q39 295 43 301T53 314T62 323L250 520Q264 534 274 534Q283 534 292 525L332 485Q343 474 343 465Q343 456
332 445L170 280L332 114Q343 103 343 94Q343 85 332 74L292 34Q283 25 274 25Z" />
<glyph unicode="&#x203a;" glyph-name="guilsinglright" horiz-adv-x="383" d="M50 74Q39 85 39 94Q39 102 51 114L212 280L51 445Q39 457 39 465Q39 474 50 485L90 525Q99 534 108 534Q118 534 132 520L320 323Q323 320 330 312T341 299T344 287V272Q344 264
340 259T330 247T320 236L132 39Q118 25 108 25Q99 25 90 34L50 74Z" />
</font>
</defs>
</svg>
