<?xml version="1.0" standalone="no"?>
<!DOCTYPE svg PUBLIC "-//W3C//DTD SVG 1.1//EN" "http://www.w3.org/Graphics/SVG/1.1/DTD/svg11.dtd">
<svg xmlns="http://www.w3.org/2000/svg">
<defs >
<font id="Kanit" horiz-adv-x="542" ><font-face
    font-family="Kanit ExtraLight"
    units-per-em="1000"
    panose-1="0 0 3 0 0 0 0 0 0 0"
    ascent="1100"
    descent="-395"
    alphabetic="0" />
<glyph unicode=" " glyph-name="space" horiz-adv-x="390" />
<glyph unicode="!" glyph-name="exclam" horiz-adv-x="171" d="M122 491L154 644H209L177 491L99 146H55L122 491ZM25 48H86L76 0H15L25 48Z" />
<glyph unicode="&quot;" glyph-name="quotedbl" horiz-adv-x="297" d="M151 644H204L157 479H116L151 644ZM285 644H338L291 479H250L285 644Z" />
<glyph unicode="#" glyph-name="numbersign" horiz-adv-x="694" d="M151 187H54L63 228H172L270 414H150L159 456H292L391 644H441L342 456H549L648 644H699L600 456H695L686 414H578L480 228H599L590 187H458L360 0H310L408 187H200L102 0H53L151 187ZM429 228L527
414H320L222 228H429Z" />
<glyph unicode="$" glyph-name="dollar" horiz-adv-x="553" d="M210 -10Q97 -9 34 18L45 67Q119 37 220 37L278 307L276 308Q192 329 153 361T113 445Q113 464 117 481Q133 556 190 601T351 653L368 730H414L398 654Q444 653 486 646T552 630L542 581Q475 606
387 606L332 346Q419 323 457 288T496 201Q496 181 492 164Q475 84 418 41T256 -8L240 -86H194L210 -10ZM341 604Q267 597 225 568T171 481Q167 466 167 450Q167 417 194 397T288 357L341 604ZM341 44T383 74T438 164Q441 181 441 193Q441 231 413 253T321 295L266
38Q341 44 383 74Z" />
<glyph unicode="%" glyph-name="percent" horiz-adv-x="695" d="M173 370T146 396T118 469Q118 489 122 506Q153 654 288 654Q339 654 366 627T394 550Q394 533 389 506Q375 442 336 406T227 370Q173 370 146 396ZM588 644H640L160 0H108L588 644ZM281 410T309
435T347 506Q352 527 352 550Q352 583 335 598T279 613Q233 613 205 587T164 506Q160 489 160 471Q160 441 177 426T236 410Q281 410 309 435ZM409 -10T382 16T354 89Q354 109 358 126Q389 274 524 274Q575 274 602 247T630 170Q630 153 625 126Q611 62 572 26T463
-10Q409 -10 382 16ZM517 30T545 55T583 126Q588 147 588 170Q588 203 571 218T515 233Q469 233 441 207T400 126Q396 109 396 91Q396 61 413 46T472 30Q517 30 545 55Z" />
<glyph unicode="&amp;" glyph-name="ampersand" horiz-adv-x="652" d="M138 -10T90 23T42 115Q42 125 46 147Q59 212 110 260T253 354Q218 394 201 423T184 486Q184 500 187 516Q200 576 246 615T366 654Q422 654 453 627T485 551Q485 532 481 516Q470 464 433
426T325 346L474 152Q502 194 514 251L518 271H564L560 252Q544 175 500 120L572 27L533 -3L466 82Q422 36 360 13T222 -10Q138 -10 90 23ZM364 412T393 440T433 514Q437 538 437 547Q437 610 356 610Q307 610 275 583T234 514Q231 502 231 492Q231 472 239 455T263
417T297 375Q364 412 393 440ZM362 32T439 114L280 320Q196 280 154 243T99 148Q96 135 96 122Q96 78 131 55T231 32Q362 32 439 114Z" />
<glyph unicode="&apos;" glyph-name="quotesingle" horiz-adv-x="163" d="M151 644H204L157 479H116L151 644Z" />
<glyph unicode="(" glyph-name="parenleft" horiz-adv-x="292" d="M63 2T63 155Q63 228 79 303Q102 413 156 515T298 678H361Q186 555 133 303Q116 224 116 160Q116 14 201 -72H138Q63 2 63 155Z" />
<glyph unicode=")" glyph-name="parenright" horiz-adv-x="292" d="M69 -8T124 86T206 303Q222 377 222 446Q222 592 139 678H202Q277 603 277 451Q277 377 261 303Q238 192 184 90T42 -72H-21Q69 -8 124 86Z" />
<glyph unicode="*" glyph-name="asterisk" horiz-adv-x="421" d="M123 375L241 485L128 535L154 572L260 517L283 644H330L299 517L428 572L439 533L302 482L376 373L337 346L271 463L155 346L123 375Z" />
<glyph unicode="+" glyph-name="plus" horiz-adv-x="482" d="M226 235H64L74 280H236L270 442H317L283 280H446L436 235H273L240 79H193L226 235Z" />
<glyph unicode="," glyph-name="comma" horiz-adv-x="189" d="M50 45H103L30 -120H-11L50 45Z" />
<glyph unicode="-" glyph-name="hyphen" horiz-adv-x="482" d="M74 280H446L436 235H64L74 280Z" />
<glyph unicode="." glyph-name="period" horiz-adv-x="163" d="M25 51H78L68 0H15L25 51Z" />
<glyph unicode="/" glyph-name="slash" horiz-adv-x="399" d="M389 662H444L70 0H15L389 662Z" />
<glyph unicode="0" glyph-name="zero" horiz-adv-x="639" d="M173 -10T121 46T68 203Q68 253 80 310Q116 480 196 567T419 654Q526 654 576 602T626 449Q626 389 609 310Q577 158 495 74T277 -10Q173 -10 121 46ZM395 37T462 110T555 310Q573 397 573 448Q573
527 535 566T408 606Q297 606 232 532T134 310Q122 253 122 205Q122 124 161 81T287 37Q395 37 462 110Z" />
<glyph unicode="1" glyph-name="one" horiz-adv-x="286" d="M243 600L138 583L148 629L310 654L171 0H116L243 600Z" />
<glyph unicode="2" glyph-name="two" horiz-adv-x="499" d="M22 34Q56 93 112 144T250 254Q320 305 357 337T414 402T443 475Q448 500 448 517Q448 560 418 583T316 606Q238 606 163 579L173 629Q206 640 250 647T331 654Q413 654 457 619T502 520Q502 502 497
475Q487 427 462 390T402 321T305 243L276 221Q206 170 162 131T88 44H413L404 0H15L22 34Z" />
<glyph unicode="3" glyph-name="three" horiz-adv-x="506" d="M131 -10T87 -3T18 15L28 64Q96 37 180 37Q274 37 326 70T393 174Q397 190 397 209Q397 257 361 281T257 305H169L184 348H258Q336 348 383 383T444 484Q449 507 449 521Q449 564 415 585T305 606Q228
606 150 579L160 628Q189 639 234 646T321 654Q412 654 457 620T503 525Q503 507 498 484Q487 429 449 385T349 326Q400 314 425 283T451 209Q451 190 447 174Q428 83 357 37T175 -10Q131 -10 87 -3Z" />
<glyph unicode="4" glyph-name="four" horiz-adv-x="536" d="M368 155H27L37 202L476 644H527L433 201H503L493 155H423L391 0H336L368 155ZM383 200L463 576L90 200H383Z" />
<glyph unicode="5" glyph-name="five" horiz-adv-x="506" d="M132 -10T89 -4T21 15L31 65Q98 37 184 37Q269 37 325 75T397 189Q403 219 403 242Q403 289 372 311T267 333H85L95 380L168 644H499L484 599H204L143 378H276Q367 378 412 345T457 244Q457 219 451
189Q431 93 361 42T178 -10Q132 -10 89 -4Z" />
<glyph unicode="6" glyph-name="six" horiz-adv-x="561" d="M54 -10T54 149Q54 187 64 231L97 390Q123 517 202 585T401 654Q483 654 540 634L530 586Q478 606 392 606Q295 606 234 550T152 399L140 341Q187 371 240 386T336 402Q425 402 469 366T514 260Q514
229 507 197Q487 100 419 45T238 -10Q54 -10 54 149ZM333 35T386 78T455 196Q462 225 462 255Q462 306 430 332T322 358Q274 358 224 341T131 297L112 210Q105 179 105 149Q105 91 139 63T247 35Q333 35 386 78Z" />
<glyph unicode="7" glyph-name="seven" horiz-adv-x="495" d="M482 599H132L141 644H546L537 599L157 0H102L482 599Z" />
<glyph unicode="8" glyph-name="eight" horiz-adv-x="575" d="M147 -10T96 23T45 123Q45 141 50 166Q63 228 107 272T218 333Q173 345 152 374T130 443Q130 462 134 478Q152 561 215 607T386 654Q476 654 521 620T567 522Q567 503 562 478Q538 362 408 322Q465
309 492 280T519 206Q519 185 515 166Q477 -10 244 -10Q147 -10 96 23ZM423 357T461 388T512 478Q516 495 516 515Q516 562 482 585T376 609Q297 609 248 576T185 478Q182 462 182 448Q182 375 270 356L348 340Q423 357 461 388ZM436 35T464 166Q469 189 469 203Q469
241 444 261T358 293L271 312Q200 298 157 264T100 167Q96 150 96 130Q96 82 134 59T254 35Q436 35 464 166Z" />
<glyph unicode="9" glyph-name="nine" horiz-adv-x="561" d="M130 -10T76 9L87 58Q138 37 226 37Q323 37 383 93T464 244L476 300Q429 269 379 254T281 239Q194 239 148 276T102 386Q102 407 109 444Q129 542 197 598T381 654Q471 654 517 616T563 497Q563 458
553 412L519 254Q493 130 416 60T218 -10Q130 -10 76 9ZM393 283T486 344L505 434Q513 472 513 499Q513 555 480 582T372 609Q285 609 230 565T159 445Q152 410 152 389Q152 337 185 310T296 283Q393 283 486 344Z" />
<glyph unicode=":" glyph-name="colon" horiz-adv-x="164" d="M96 384H150L139 332H85L96 384ZM32 82H86L75 30H21L32 82Z" />
<glyph unicode=";" glyph-name="semicolon" horiz-adv-x="190" d="M123 384H176L165 332H112L123 384ZM56 71H109L36 -94H-5L56 71Z" />
<glyph unicode="&lt;" glyph-name="less" horiz-adv-x="546" d="M72 269L81 314L561 518L549 463L134 290L476 116L464 65L72 269Z" />
<glyph unicode="=" glyph-name="equal" horiz-adv-x="488" d="M88 348H466L458 306H80L88 348ZM59 209H437L428 167H50L59 209Z" />
<glyph unicode="&gt;" glyph-name="greater" horiz-adv-x="546" d="M40 120L457 294L113 467L125 518L517 314L508 269L28 65L40 120Z" />
<glyph unicode="?" glyph-name="question" horiz-adv-x="488" d="M172 172Q183 225 215 258T304 330L321 342Q376 380 403 408T440 478Q445 503 445 519Q445 563 413 584T305 606Q216 606 136 571L146 619Q180 635 227 644T326 654Q411 654 455 621T499 525Q499
499 494 479Q486 443 468 415T424 367T357 316Q343 306 336 302Q298 275 279 260T247 223T226 169L222 148H167L172 172ZM143 48H204L194 0H133L143 48Z" />
<glyph unicode="@" glyph-name="at" horiz-adv-x="768" d="M193 -132T118 -79T43 93Q43 133 54 188Q126 525 475 525Q604 525 669 475T734 328Q734 290 726 254Q705 153 654 98T513 43H495Q423 -20 315 -20Q259 -20 225 3T191 72Q191 86 194 99Q206 158 249 193T374
228H516L523 261Q530 294 530 310Q530 342 508 354T425 366Q358 366 295 345L303 385Q360 407 445 407Q510 407 542 384T574 310Q574 289 568 262L531 86Q590 86 624 126T678 254Q687 295 687 328Q687 405 635 442T465 479Q317 479 226 410T102 187Q91 134 91 96Q91
-4 152 -45T329 -87Q439 -87 506 -68L496 -114Q417 -132 321 -132Q193 -132 118 -79ZM378 19T415 34T485 81L507 188H370Q310 188 280 166T240 99Q237 86 237 74Q237 45 260 32T331 19Q378 19 415 34Z" />
<glyph unicode="A" glyph-name="A" horiz-adv-x="667" d="M395 644H465L572 0H519L487 188H185L75 0H15L395 644ZM484 233L423 600L207 233H484Z" />
<glyph unicode="B" glyph-name="B" horiz-adv-x="619" d="M171 644H454Q529 644 566 613T604 523Q604 504 599 476Q587 423 557 386T484 331Q567 312 567 228Q567 203 562 182Q542 88 487 44T337 0H35L171 644ZM398 354Q520 354 546 473Q552 500 552 523Q552 562
526 581T433 600H217L165 354H398ZM341 43Q413 43 453 75T509 184Q514 209 514 225Q514 268 484 289T383 311H156L99 43H341Z" />
<glyph unicode="C" glyph-name="C" horiz-adv-x="589" d="M187 -10T128 47T68 206Q68 249 79 304Q115 471 203 562T449 654Q550 654 626 625L616 576Q542 606 443 606Q310 606 237 529T133 304Q121 252 121 208Q121 124 169 81T325 37Q371 37 419 44T507 64L497
15Q411 -10 308 -10Q187 -10 128 47Z" />
<glyph unicode="D" glyph-name="D" horiz-adv-x="632" d="M171 644H411Q519 644 570 599T621 454Q621 397 604 317Q579 203 542 135T442 33T277 0H35L171 644ZM274 44Q353 44 404 66T490 148T549 317Q568 407 568 459Q568 537 527 568T392 599H217L99 44H274Z" />
<glyph unicode="E" glyph-name="E" horiz-adv-x="541" d="M171 644H592L583 599H217L163 344H494L484 300H153L99 44H465L456 0H35L171 644Z" />
<glyph unicode="F" glyph-name="F" horiz-adv-x="516" d="M171 644H577L568 599H217L163 344H477L467 300H153L90 0H35L171 644Z" />
<glyph unicode="G" glyph-name="G" horiz-adv-x="633" d="M189 -10T129 48T68 210Q68 252 79 304Q115 470 205 562T449 654Q551 654 627 627L616 578Q539 606 444 606Q312 606 238 528T133 304Q121 249 121 204Q121 121 168 79T324 37Q370 37 418 45T502 67L550
296H367L377 340H610L546 39Q510 18 451 4T308 -10Q189 -10 129 48Z" />
<glyph unicode="H" glyph-name="H" horiz-adv-x="630" d="M171 644H226L163 344H533L596 644H651L515 0H460L523 300H153L90 0H35L171 644Z" />
<glyph unicode="I" glyph-name="I" horiz-adv-x="205" d="M171 644H226L90 0H35L171 644Z" />
<glyph unicode="J" glyph-name="J" horiz-adv-x="419" d="M50 -10T-3 13L7 61Q29 50 60 44T125 37Q195 37 235 68T289 168L390 644H445L344 165Q326 78 273 34T122 -10Q50 -10 -3 13Z" />
<glyph unicode="K" glyph-name="K" horiz-adv-x="585" d="M171 644H226L154 302L553 644H620L321 388L490 0H430L279 352L139 231L90 0H35L171 644Z" />
<glyph unicode="L" glyph-name="L" horiz-adv-x="521" d="M171 644H226L99 44H455L446 0H35L171 644Z" />
<glyph unicode="M" glyph-name="M" horiz-adv-x="744" d="M171 644H232L364 167L698 644H765L629 0H575L694 564L377 112H334L208 564L89 0H35L171 644Z" />
<glyph unicode="N" glyph-name="N" horiz-adv-x="656" d="M171 644H223L503 82L622 644H677L541 0H488L209 561L90 0H35L171 644Z" />
<glyph unicode="O" glyph-name="O" horiz-adv-x="688" d="M69 -10T69 207Q69 260 82 319Q119 492 205 573T443 654Q560 654 617 603T675 444Q675 390 660 319Q625 154 539 72T301 -10Q69 -10 69 207ZM430 37T502 105T605 319Q621 390 621 446Q621 532 576 569T432
606Q351 606 294 578T197 487T136 319Q122 251 122 204Q122 117 167 77T311 37Q430 37 502 105Z" />
<glyph unicode="P" glyph-name="P" horiz-adv-x="571" d="M171 644H427Q511 644 553 606T596 498Q596 472 590 443Q571 352 504 300T339 247H142L90 0H35L171 644ZM343 291Q425 291 472 330T535 443Q542 478 542 498Q542 548 512 573T414 599H217L151 291H343Z" />
<glyph unicode="Q" glyph-name="Q" horiz-adv-x="688" d="M309 -172T285 -147T261 -72Q261 -50 268 -8Q69 7 69 206Q69 258 82 319Q119 492 205 573T443 654Q560 654 617 603T675 444Q675 390 660 319Q626 160 545 79T322 -9Q314 -47 314 -69Q314 -98 329 -111T380
-124Q418 -124 453 -114L443 -162Q406 -172 362 -172Q309 -172 285 -147ZM430 37T502 105T605 319Q621 390 621 446Q621 532 576 569T432 606Q351 606 294 578T197 487T136 319Q122 251 122 204Q122 117 167 77T311 37Q430 37 502 105Z" />
<glyph unicode="R" glyph-name="R" horiz-adv-x="592" d="M171 644H440Q520 644 559 609T598 508Q598 482 592 452Q576 377 530 330T411 270Q430 260 437 246T452 201L496 0H440L396 194Q391 219 382 232T352 251T295 258H144L90 0H35L171 644ZM352 302Q504 302
537 452Q543 481 543 504Q543 552 516 575T427 599H217L154 302H352Z" />
<glyph unicode="S" glyph-name="S" horiz-adv-x="553" d="M99 -10T34 18L45 67Q120 37 221 37Q317 37 370 67T438 164Q442 186 442 195Q442 238 405 262T278 308Q192 328 153 360T113 444Q113 464 117 481Q154 654 385 654Q435 654 480 647T552 630L542 581Q475
606 385 606Q289 606 237 576T171 481Q167 459 167 452Q167 426 182 408T231 377T325 348Q418 325 457 291T497 206Q497 189 492 164Q474 78 404 34T215 -10Q99 -10 34 18Z" />
<glyph unicode="T" glyph-name="T" horiz-adv-x="569" d="M344 599H122L131 644H630L621 599H399L272 0H217L344 599Z" />
<glyph unicode="U" glyph-name="U" horiz-adv-x="663" d="M182 -10T127 36T71 166Q71 195 79 233L166 644H221L133 227Q126 195 126 165Q126 100 168 69T300 38Q397 38 461 84T546 227L634 644H689L602 233Q550 -10 289 -10Q182 -10 127 36Z" />
<glyph unicode="V" glyph-name="V" horiz-adv-x="668" d="M151 644H205L301 49L649 644H709L330 0H258L151 644Z" />
<glyph unicode="W" glyph-name="W" horiz-adv-x="850" d="M151 644H206L217 67L482 579L495 644H540L581 67L837 644H891L606 0H543L506 530L235 0H165L151 644Z" />
<glyph unicode="X" glyph-name="X" horiz-adv-x="624" d="M306 318L152 644H214L347 357L602 644H663L371 318L529 0H467L331 278L77 0H15L306 318Z" />
<glyph unicode="Y" glyph-name="Y" horiz-adv-x="624" d="M295 241L151 644H205L330 289L605 644H665L350 241L299 0H244L295 241Z" />
<glyph unicode="Z" glyph-name="Z" horiz-adv-x="568" d="M22 34L532 599H159L168 644H609L601 605L95 44H487L478 0H15L22 34Z" />
<glyph unicode="[" glyph-name="bracketleft" horiz-adv-x="333" d="M165 706H396L388 661H210L58 -55H236L224 -99H-7L165 706Z" />
<glyph unicode="\" glyph-name="backslash" horiz-adv-x="418" d="M155 662H210L311 -54H256L155 662Z" />
<glyph unicode="]" glyph-name="bracketright" horiz-adv-x="333" d="M-7 -55H171L323 661H145L157 706H388L216 -99H-15L-7 -55Z" />
<glyph unicode="^" glyph-name="asciicircum" horiz-adv-x="439" d="M288 624H334L428 397H378L306 583L155 397H99L288 624Z" />
<glyph unicode="_" glyph-name="underscore" horiz-adv-x="554" d="M15 0H459L449 -45H5L15 0Z" />
<glyph unicode="`" glyph-name="grave" horiz-adv-x="229" d="M159 680H211L244 522H199L159 680Z" />
<glyph unicode="a" glyph-name="a" horiz-adv-x="531" d="M52 -10T52 143Q52 178 61 221Q88 347 163 415T339 484Q388 484 421 473T486 434L494 474H549L449 0H403L409 53Q367 21 323 6T224 -10Q52 -10 52 143ZM341 35T415 99L476 386Q451 412 421 425T346 438Q257
438 197 382T115 221Q106 179 106 147Q106 87 139 61T247 35Q341 35 415 99Z" />
<glyph unicode="b" glyph-name="b" horiz-adv-x="564" d="M200 -10T163 5T97 53L81 0H35L178 674H233L182 434Q261 484 359 484Q441 484 485 445T529 323Q529 286 520 241Q493 113 427 52T254 -10Q200 -10 163 5ZM341 35T392 86T466 241Q476 291 476 320Q476 382
442 410T335 438Q244 438 172 386L111 99Q156 35 251 35Q341 35 392 86Z" />
<glyph unicode="c" glyph-name="c" horiz-adv-x="483" d="M152 -10T104 33T56 159Q56 195 65 237Q91 359 168 421T360 484Q403 484 430 478T484 458L474 413Q427 438 360 438Q265 438 203 389T119 237Q109 187 109 158Q109 94 147 65T270 35Q335 35 400 61L391
15Q325 -10 247 -10Q152 -10 104 33Z" />
<glyph unicode="d" glyph-name="d" horiz-adv-x="564" d="M145 -10T100 30T54 152Q54 183 64 233Q91 359 161 421T334 484Q383 484 419 473T486 434L537 674H592L449 0H403L409 53Q367 21 323 6T224 -10Q145 -10 100 30ZM341 35T415 99L476 386Q451 412 419 425T340
438Q254 438 197 388T118 233Q108 183 108 154Q108 93 141 64T247 35Q341 35 415 99Z" />
<glyph unicode="e" glyph-name="e" horiz-adv-x="525" d="M153 -10T104 29T55 151Q55 188 66 240Q117 484 336 484Q418 484 458 447T498 346Q498 321 492 294L474 208H114Q108 175 108 148Q108 87 147 61T278 35Q344 35 411 60L402 15Q335 -10 257 -10Q153 -10
104 29ZM433 251L442 296Q448 323 448 347Q448 392 420 415T328 438Q238 438 191 392T123 251H433Z" />
<glyph unicode="f" glyph-name="f" horiz-adv-x="339" d="M158 428H85L95 474H168L185 554Q199 621 242 655T353 690Q396 690 427 677L418 633Q390 644 357 644Q303 644 277 624T240 555L223 474H355L342 428H213L123 0H68L158 428Z" />
<glyph unicode="g" glyph-name="g" d="M173 -176T139 -173T88 -166L98 -118Q117 -124 146 -127T200 -130Q278 -130 328 -99T392 -8L404 49Q364 23 323 12T231 0Q148 0 102 38T56 157Q56 191 65 236Q91 363 158 423T329 484Q383 484 421 469T487 420L503 474H549L448
-3Q431 -83 366 -129T200 -176Q173 -176 139 -173ZM343 45T414 98L473 374Q426 438 333 438Q243 438 192 389T119 236Q109 186 109 159Q109 98 143 72T254 45Q343 45 414 98Z" />
<glyph unicode="h" glyph-name="h" horiz-adv-x="559" d="M178 674H233L178 417Q223 449 272 466T382 484Q521 484 521 368Q521 343 515 313L449 0H394L460 312Q466 341 466 363Q466 403 440 420T352 438Q305 438 256 419T168 368L90 0H35L178 674Z" />
<glyph unicode="i" glyph-name="i" horiz-adv-x="270" d="M231 657H294L281 597H218L231 657ZM189 428H115L131 474H254L154 0H99L189 428Z" />
<glyph unicode="j" glyph-name="j" horiz-adv-x="269" d="M231 657H294L281 597H218L231 657ZM-76 -234T-107 -222L-97 -177Q-68 -187 -38 -187Q17 -187 42 -167T77 -99L189 428H115L131 474H254L132 -102Q103 -234 -30 -234Q-76 -234 -107 -222Z" />
<glyph unicode="k" glyph-name="k" horiz-adv-x="506" d="M178 674H233L142 246L434 474H500L266 289L411 0H353L223 258L129 184L90 0H35L178 674Z" />
<glyph unicode="l" glyph-name="l" horiz-adv-x="246" d="M85 -10T68 4T50 53Q50 72 54 91L178 674H233L109 93Q105 71 105 65Q105 49 113 43T139 37Q161 37 185 43L175 -3Q153 -10 120 -10Q85 -10 68 4Z" />
<glyph unicode="m" glyph-name="m" horiz-adv-x="850" d="M135 474H183L176 416Q272 484 367 484Q416 484 444 466T480 416Q575 484 683 484Q813 484 813 372Q813 347 807 317L740 0H686L752 312Q759 347 759 364Q759 405 735 421T653 438Q607 438 564 423T487
377Q487 344 479 310L414 0H361L426 309Q434 344 434 367Q434 404 413 421T342 438Q300 438 253 419T167 369L89 0H35L135 474Z" />
<glyph unicode="n" glyph-name="n" horiz-adv-x="559" d="M135 474H183L176 416Q271 484 382 484Q521 484 521 368Q521 343 515 313L449 0H394L460 312Q467 343 467 368Q467 406 443 422T360 438Q309 438 258 420T168 369L90 0H35L135 474Z" />
<glyph unicode="o" glyph-name="o" horiz-adv-x="563" d="M144 -10T100 30T55 149Q55 191 65 237Q91 361 156 422T343 484Q528 484 528 322Q528 281 518 237Q492 112 427 51T238 -10Q144 -10 100 30ZM341 37T391 85T463 237Q474 287 474 320Q474 380 441 408T333
436Q241 436 191 388T119 237Q108 185 108 151Q108 92 140 65T248 37Q341 37 391 85Z" />
<glyph unicode="p" glyph-name="p" horiz-adv-x="564" d="M135 474H181L175 420Q216 453 260 468T359 484Q441 484 485 445T529 323Q529 284 519 238Q467 -10 250 -10Q200 -10 164 1T98 39L44 -216H-11L135 474ZM335 35T389 84T465 238Q475 282 475 320Q475 381
443 409T337 438Q242 438 169 374L108 88Q158 35 246 35Q335 35 389 84Z" />
<glyph unicode="q" glyph-name="q" horiz-adv-x="603" d="M405 -242T384 -223T362 -166Q362 -151 367 -126L402 39Q361 13 320 2T228 -10Q144 -10 100 30T55 153Q55 194 65 238Q118 484 329 484Q383 484 421 469T487 420L503 474H549L422 -124Q417 -147 417 -160Q417
-179 428 -187T469 -195Q485 -195 507 -189L498 -235Q473 -242 445 -242Q405 -242 384 -223ZM339 35T412 88L473 374Q426 438 333 438Q242 438 192 390T119 238Q109 192 109 155Q109 93 143 64T252 35Q339 35 412 88Z" />
<glyph unicode="r" glyph-name="r" horiz-adv-x="342" d="M135 474H183L175 408Q217 433 268 453T369 484L360 439Q313 428 257 407T167 364L90 0H35L135 474Z" />
<glyph unicode="s" glyph-name="s" horiz-adv-x="447" d="M130 -10T93 -5T30 10L40 59Q100 37 174 37Q244 37 278 56T322 120Q325 132 325 142Q325 169 305 182T229 216L205 225Q159 242 138 252T102 280T87 328Q87 337 91 359Q104 422 152 453T291 484Q360 484
414 467L403 418Q349 436 289 436Q218 436 186 419T145 360Q143 353 143 340Q143 313 165 300T249 265Q320 241 350 218T381 153Q381 136 377 120Q349 -10 171 -10Q130 -10 93 -5Z" />
<glyph unicode="t" glyph-name="t" horiz-adv-x="350" d="M145 -10T118 14T90 84Q90 100 95 123L159 428H85L95 474H169L196 598L254 616L224 474H361L348 428H214L150 125Q145 102 145 88Q145 58 163 47T223 35Q251 35 284 46L275 2Q239 -10 197 -10Q145 -10 118 14Z" />
<glyph unicode="u" glyph-name="u" horiz-adv-x="559" d="M132 -10T96 23T60 118Q60 144 66 174L130 474H185L121 172Q115 144 115 121Q115 75 143 55T233 35Q281 35 326 53T411 104L489 474H544L444 0H395L402 58Q357 25 308 8T200 -10Q132 -10 96 23Z" />
<glyph unicode="v" glyph-name="v" horiz-adv-x="546" d="M115 474H169L239 46L492 474H551L266 0H200L115 474Z" />
<glyph unicode="w" glyph-name="w" horiz-adv-x="719" d="M115 474H170L185 56L382 422L393 474H436L477 56L669 474H724L501 0H445L404 377L201 0H138L115 474Z" />
<glyph unicode="x" glyph-name="x" horiz-adv-x="528" d="M245 241L120 474H180L282 279L467 474H526L306 241L433 0H373L266 204L74 0H15L245 241Z" />
<glyph unicode="y" glyph-name="y" horiz-adv-x="566" d="M150 -176T116 -173T65 -166L75 -118Q94 -124 123 -127T177 -130Q259 -130 316 -99T388 -8L402 58Q357 25 308 8T200 -10Q132 -10 96 23T60 118Q60 144 66 174L130 474H185L121 172Q115 144 115 121Q115
75 143 55T233 35Q281 35 326 53T411 104L489 474H544L443 -3Q432 -55 393 -94T297 -154T177 -176Q150 -176 116 -173Z" />
<glyph unicode="z" glyph-name="z" horiz-adv-x="479" d="M22 34L403 428H119L129 474H478L470 436L91 45H393L384 0H15L22 34Z" />
<glyph unicode="{" glyph-name="braceleft" horiz-adv-x="285" d="M100 -104T79 -90T58 -41Q58 -23 62 -6L102 179Q108 213 108 223Q108 248 96 261T54 278L62 318Q104 323 122 345T152 417L191 602Q203 656 232 678T316 700H348L339 655H315Q282 655 267 643T245
595L200 386Q194 355 174 329T120 294Q143 287 153 269T164 228Q164 214 161 202L119 1Q115 -21 115 -26Q115 -44 126 -51T163 -59H187L177 -104H145Q100 -104 79 -90Z" />
<glyph unicode="|" glyph-name="bar" horiz-adv-x="165" d="M171 735H226L44 -120H-11L171 735Z" />
<glyph unicode="}" glyph-name="braceright" horiz-adv-x="285" d="M-8 -59H16Q49 -59 64 -47T86 1L129 206Q136 237 156 263T210 298Q187 305 177 323T166 366Q166 382 168 390L212 595Q216 617 216 622Q216 640 205 647T168 655H144L153 700H185Q230 700 251
686T272 638Q272 621 268 602L229 417Q223 392 223 372Q223 348 235 335T277 318L269 278Q226 273 208 250T179 179L139 -6Q128 -60 99 -82T14 -104H-18L-8 -59Z" />
<glyph unicode="~" glyph-name="asciitilde" horiz-adv-x="579" d="M392 241T368 250T308 277Q275 295 250 304T198 313Q161 313 131 299T68 252L80 310Q103 334 137 348T209 363Q241 363 267 353T326 325Q360 307 382 299T430 291Q467 291 496 305T558 351L546
293Q523 269 490 255T420 241Q392 241 368 250Z" />
<glyph unicode="&#xa0;" glyph-name="uni00A0" horiz-adv-x="390" />
<glyph unicode="&#xa1;" glyph-name="exclamdown" horiz-adv-x="171" d="M144 632H205L195 584H134L144 632ZM43 141L121 486H165L98 141L66 -12H11L43 141Z" />
<glyph unicode="&#xa2;" glyph-name="cent" horiz-adv-x="483" d="M223 -9Q139 -4 98 39T56 158Q56 194 65 237Q88 350 157 412T328 482L345 560H389L373 484Q409 483 433 477T484 458L474 413Q427 437 363 438L277 35Q338 36 400 61L391 15Q335 -6 267 -9L251
-86H207L223 -9ZM318 435Q240 426 189 377T119 237Q109 187 109 158Q109 102 138 72T233 36L318 435Z" />
<glyph unicode="&#xa3;" glyph-name="sterling" horiz-adv-x="505" d="M24 45H51Q113 45 131 123L172 319H99L109 364H182L212 504Q227 577 278 615T408 654Q475 654 509 636L499 592Q487 599 463 603T413 608Q348 608 313 583T266 503L237 364H450L439 319H227L186
126Q175 68 140 45H419L410 0H15L24 45Z" />
<glyph unicode="&#xa4;" glyph-name="currency" horiz-adv-x="571" d="M36 100L133 163Q116 192 116 231Q116 252 120 269Q132 328 178 374L108 438L141 471L211 404Q271 450 340 450Q374 450 402 438T449 404L550 471L569 438L471 374Q489 341 489 303Q489 293
485 269Q472 211 426 162L497 99L464 66L392 132Q333 87 264 87Q196 87 154 132L55 66L36 100ZM329 129T378 170T440 269Q443 286 443 301Q443 348 414 378T331 408Q273 408 225 368T165 269Q161 253 161 235Q161 188 190 159T272 129Q329 129 378 170Z" />
<glyph unicode="&#xa5;" glyph-name="yen" horiz-adv-x="615" d="M262 110H99L108 151H271L285 219H122L131 260H283L151 644H204L325 289L596 644H656L360 260H513L504 219H341L327 151H490L481 110H318L295 0H239L262 110Z" />
<glyph unicode="&#xa6;" glyph-name="brokenbar" horiz-adv-x="165" d="M171 735H226L162 434H107L171 735ZM53 180H108L44 -120H-11L53 180Z" />
<glyph unicode="&#xa7;" glyph-name="section" horiz-adv-x="553" d="M99 -10T34 18L45 67Q120 37 221 37Q316 37 370 67T438 164Q441 179 441 193Q441 237 404 260T275 306Q184 329 146 356T108 428Q108 436 112 460Q119 492 143 523Q137 540 137 559Q137 577
141 593Q158 674 225 719T408 765Q458 765 503 758T576 741L566 692Q499 717 409 717Q315 717 262 687T194 592Q191 577 191 564Q191 525 225 503T349 458Q416 441 453 426T508 389T526 338Q526 321 522 305Q519 289 511 270T491 234Q496 220 496 199Q496 179 492
163Q474 76 406 33T215 -10Q99 -10 34 18ZM469 285T474 306Q477 318 477 329Q477 352 462 366T415 390T314 420Q255 436 223 450T176 485Q167 473 163 455Q161 448 161 435Q161 413 176 398T222 372T313 346Q429 317 460 271Q469 285 474 306Z" />
<glyph unicode="&#xa8;" glyph-name="dieresis" horiz-adv-x="333" d="M147 622H203L191 567H135L147 622ZM313 622H370L358 567H301L313 622Z" />
<glyph unicode="&#xa9;" glyph-name="copyright" horiz-adv-x="774" d="M266 -10T205 24T110 119T76 253Q76 288 83 322Q103 414 159 490T301 610T486 654Q564 654 625 620T720 525T754 391Q754 356 747 322Q728 231 670 155T526 35T344 -10Q266 -10 205 24ZM436
33T509 71T634 175T703 322Q711 360 711 392Q711 456 684 505T603 582T476 610Q390 610 317 573T194 470T127 322Q119 284 119 252Q119 188 146 139T227 61T354 33Q436 33 509 71ZM274 83T224 128T174 256Q174 289 181 321Q197 398 240 451T344 531T471 558Q550
558 594 530L586 490Q535 517 470 517Q382 517 316 468T228 321Q219 281 219 248Q219 183 258 154T382 124Q413 124 449 131T514 152L505 111Q476 98 439 91T362 83Q274 83 224 128Z" />
<glyph unicode="&#xaa;" glyph-name="ordfeminine" horiz-adv-x="348" d="M153 380T131 394T109 438Q109 444 111 456Q129 540 232 540H326L330 557Q333 571 333 581Q333 602 318 610T261 619Q219 619 177 605L185 640Q227 654 278 654Q323 654 348 637T374 584Q374
573 371 559L335 386H298L301 418Q278 398 251 389T190 380Q153 380 131 394ZM238 412T262 422T308 454L319 508H228Q191 508 174 497T151 457Q149 447 149 444Q149 427 163 420T207 412Q238 412 262 422Z" />
<glyph unicode="&#xab;" glyph-name="guillemotleft" horiz-adv-x="581" d="M72 271L79 303L368 487L384 450L127 284L313 118L283 87L72 271ZM269 271L276 303L565 487L582 450L324 284L511 118L480 87L269 271Z" />
<glyph unicode="&#xac;" glyph-name="logicalnot" horiz-adv-x="535" d="M460 319H82L92 364H517L472 152H425L460 319Z" />
<glyph unicode="&#xad;" glyph-name="uni00AD" horiz-adv-x="482" d="M74 280H446L436 235H64L74 280Z" />
<glyph unicode="&#xae;" glyph-name="registered" horiz-adv-x="774" d="M266 -10T205 24T110 119T76 253Q76 288 83 322Q103 414 159 490T301 610T486 654Q564 654 625 620T720 525T754 391Q754 356 747 322Q728 231 670 155T526 35T344 -10Q266 -10 205 24ZM436
33T509 71T634 175T703 322Q711 360 711 392Q711 456 684 505T603 582T476 610Q390 610 317 573T194 470T127 322Q119 284 119 252Q119 188 146 139T227 61T354 33Q436 33 509 71ZM307 545H495Q551 545 581 520T611 450Q611 431 607 414Q596 362 563 330T478 288Q491
280 496 270T507 239L537 100H493L462 237Q458 254 452 262T431 274T387 277H295L258 100H213L307 545ZM429 316Q487 316 519 337T563 414Q568 437 568 451Q568 481 549 493T484 506H344L304 316H429Z" />
<glyph unicode="&#xaf;" glyph-name="overscore" horiz-adv-x="387" d="M144 609H421L412 567H135L144 609Z" />
<glyph unicode="&#xb0;" glyph-name="degree" horiz-adv-x="321" d="M190 507T166 530T142 589Q142 624 159 653T207 700T272 717Q311 717 334 694T358 634Q358 620 356 612Q346 566 310 537T227 507Q190 507 166 530ZM268 546T293 570T318 629Q318 651 305 664T264
678Q236 678 213 659T185 612Q183 600 183 594Q183 571 196 559T236 546Q268 546 293 570Z" />
<glyph unicode="&#xb1;" glyph-name="plusminus" horiz-adv-x="482" d="M229 245H67L76 290H238L273 452H320L285 290H448L439 245H276L242 89H195L229 245ZM24 45H396L387 0H15L24 45Z" />
<glyph unicode="&#xb2;" glyph-name="uni00B2" horiz-adv-x="296" d="M99 396Q115 420 138 439T200 485Q242 515 257 532T278 572Q280 582 280 586Q280 619 227 619Q192 619 154 607L161 641Q176 646 199 650T243 654Q281 654 301 637T321 591Q321 586 319 572Q313
543 296 524T235 473L212 456Q171 428 152 404H286L279 370H93L99 396Z" />
<glyph unicode="&#xb3;" glyph-name="uni00B3" horiz-adv-x="298" d="M145 362T125 365T94 373L101 407Q131 395 167 395Q209 395 228 406T254 446Q256 456 256 459Q256 477 241 485T194 494H159L169 525H196Q232 525 251 537T276 576L278 588Q278 605 264 612T216
620Q182 620 149 609L156 643Q169 647 190 650T231 654Q277 654 299 639T321 596Q321 567 304 543T256 509Q299 501 299 462Q299 457 297 445Q289 404 256 383T166 362Q145 362 125 365Z" />
<glyph unicode="&#xb4;" glyph-name="acute" horiz-adv-x="229" d="M226 680H278L169 522H125L226 680Z" />
<glyph unicode="&#xb6;" glyph-name="paragraph" horiz-adv-x="611" d="M343 253Q233 253 171 289T108 412Q108 439 116 477Q142 599 223 654T430 710H666L499 -77H444L602 665H486L328 -77H273L343 253Z" />
<glyph unicode="&#xb7;" glyph-name="middot" horiz-adv-x="163" d="M80 309H133L122 258H69L80 309Z" />
<glyph unicode="&#xb8;" glyph-name="cedilla" horiz-adv-x="315" d="M13 -240T-5 -238T-35 -232L-27 -195Q0 -203 34 -203Q86 -203 113 -189T147 -139Q149 -127 149 -123Q149 -101 130 -93T67 -84H34L80 0H123L95 -51Q140 -51 166 -68T192 -119Q192 -125 190
-139Q168 -240 28 -240Q13 -240 -5 -238Z" />
<glyph unicode="&#xb9;" glyph-name="uni00B9" horiz-adv-x="206" d="M221 614L141 597L149 631L270 654L209 370H169L221 614Z" />
<glyph unicode="&#xba;" glyph-name="ordmasculine" horiz-adv-x="363" d="M119 380T119 470Q119 496 124 517Q139 585 176 619T280 654Q382 654 382 563Q382 538 377 517Q362 448 325 414T221 380Q119 380 119 470ZM275 414T300 439T336 517Q341 544 341 560Q341
590 325 604T272 619Q226 619 201 594T164 517Q158 492 158 471Q158 442 174 428T228 414Q275 414 300 439Z" />
<glyph unicode="&#xbb;" glyph-name="guillemotright" horiz-adv-x="581" d="M40 124L298 290L111 456L141 487L352 303L345 271L56 87L40 124ZM237 124L496 290L308 456L339 487L550 303L543 271L254 87L237 124Z" />
<glyph unicode="&#xbc;" glyph-name="onequarter" horiz-adv-x="616" d="M221 614L141 597L149 631L270 654L209 370H169L221 614ZM543 644H595L115 0H63L543 644ZM463 62H308L315 96L502 284H550L510 95H541L534 62H503L490 0H450L463 62ZM477 95L510 253L354 95H477Z" />
<glyph unicode="&#xbd;" glyph-name="onehalf" horiz-adv-x="615" d="M221 614L141 597L149 631L270 654L209 370H169L221 614ZM543 644H595L115 0H63L543 644ZM339 26Q357 50 379 69T440 115Q483 145 498 162T518 202Q520 214 520 217Q520 233 508 241T467 249Q433
249 394 237L401 271Q416 276 439 280T483 284Q520 284 541 267T562 220Q562 214 560 202Q554 173 537 154T476 103L454 87Q437 75 422 62T394 34H527L520 0H334L339 26Z" />
<glyph unicode="&#xbe;" glyph-name="threequarters" horiz-adv-x="630" d="M145 362T125 365T94 373L101 406Q131 394 167 394Q209 394 228 406T254 446Q256 456 256 459Q256 477 241 485T194 494H159L169 525H196Q232 525 251 537T276 576Q278 586 278 589Q278
606 263 613T216 621Q184 621 149 610L156 643Q169 647 190 650T231 654Q321 654 321 598Q321 568 305 543T256 509Q299 501 299 462Q299 457 297 445Q289 404 256 383T166 362Q145 362 125 365ZM556 644H608L129 0H77L556 644ZM477 62H322L329 96L515 284H564L524
95H555L548 62H517L504 0H464L477 62ZM490 95L523 253L368 95H490Z" />
<glyph unicode="&#xbf;" glyph-name="questiondown" horiz-adv-x="488" d="M358 632H419L409 584H348L358 632ZM141 -22T97 11T53 107Q53 133 58 153Q66 189 84 217T128 265T195 316Q209 326 216 330Q254 357 273 372T305 409T326 463L330 484H385L380 460Q369
407 337 374T248 302L231 290Q176 252 149 224T112 154Q107 129 107 113Q107 69 139 48T247 26Q336 26 416 61L406 13Q372 -3 325 -12T226 -22Q141 -22 97 11Z" />
<glyph unicode="&#xc0;" glyph-name="Agrave" horiz-adv-x="667" d="M370 846H422L455 688H410L370 846ZM395 644H465L572 0H519L487 188H185L75 0H15L395 644ZM484 233L423 600L207 233H484Z" />
<glyph unicode="&#xc1;" glyph-name="Aacute" horiz-adv-x="667" d="M507 846H559L451 688H406L507 846ZM395 644H465L572 0H519L487 188H185L75 0H15L395 644ZM484 233L423 600L207 233H484Z" />
<glyph unicode="&#xc2;" glyph-name="Acircumflex" horiz-adv-x="667" d="M443 822H491L567 687H519L462 790L361 687H310L443 822ZM395 644H465L572 0H519L487 188H185L75 0H15L395 644ZM484 233L423 600L207 233H484Z" />
<glyph unicode="&#xc3;" glyph-name="Atilde" horiz-adv-x="667" d="M498 710T482 715T446 730Q428 738 416 742T390 747Q339 747 304 712L314 759Q328 772 351 780T398 788Q416 788 430 784T464 769Q482 760 494 756T522 751Q570 751 602 786L592 739Q580 725
560 718T515 710Q498 710 482 715ZM395 644H465L572 0H519L487 188H185L75 0H15L395 644ZM484 233L423 600L207 233H484Z" />
<glyph unicode="&#xc4;" glyph-name="Adieresis" horiz-adv-x="667" d="M345 768H402L390 713H334L345 768ZM512 768H568L556 713H500L512 768ZM395 644H465L572 0H519L487 188H185L75 0H15L395 644ZM484 233L423 600L207 233H484Z" />
<glyph unicode="&#xc5;" glyph-name="Aring" horiz-adv-x="667" d="M379 617Q359 627 348 645T337 687Q337 702 339 710Q348 754 382 783T463 812Q501 812 523 790T546 733Q546 718 544 710Q537 679 518 655T469 618L572 0H519L487 188H185L75 0H15L379 617ZM461
645T485 669T509 728Q509 750 496 763T455 776Q422 776 398 752T373 693Q373 671 386 658T427 645Q461 645 485 669ZM484 233L423 600L207 233H484Z" />
<glyph unicode="&#xc6;" glyph-name="AE" horiz-adv-x="832" d="M395 644H873L864 598H552L498 344H775L765 299H488L434 44H746L737 0H370L410 189H185L73 0H15L395 644ZM419 233L497 598H427L211 233H419Z" />
<glyph unicode="&#xc7;" glyph-name="Ccedilla" horiz-adv-x="589" d="M310 606T237 529T133 304Q121 252 121 208Q121 124 169 81T325 37Q371 37 419 44T507 64L497 15Q415 -9 321 -10L299 -51Q395 -51 395 -117Q395 -131 393 -139Q371 -240 233 -240Q218 -240
199 -238T169 -232L177 -195Q204 -203 238 -203Q290 -203 316 -189T350 -139Q352 -129 352 -124Q352 -102 333 -93T271 -84H238L278 -9Q172 -2 120 54T68 206Q68 249 79 304Q115 471 203 562T449 654Q550 654 626 625L616 576Q542 606 443 606Q310 606 237 529Z"
/>
<glyph unicode="&#xc8;" glyph-name="Egrave" horiz-adv-x="541" d="M337 846H389L422 688H377L337 846ZM171 644H592L583 599H217L163 344H494L484 300H153L99 44H465L456 0H35L171 644Z" />
<glyph unicode="&#xc9;" glyph-name="Eacute" horiz-adv-x="541" d="M464 846H516L408 688H363L464 846ZM171 644H592L583 599H217L163 344H494L484 300H153L99 44H465L456 0H35L171 644Z" />
<glyph unicode="&#xca;" glyph-name="Ecircumflex" horiz-adv-x="541" d="M387 822H435L511 687H463L406 790L305 687H254L387 822ZM171 644H592L583 599H217L163 344H494L484 300H153L99 44H465L456 0H35L171 644Z" />
<glyph unicode="&#xcb;" glyph-name="Edieresis" horiz-adv-x="541" d="M295 769H352L340 714H284L295 769ZM462 769H518L506 714H450L462 769ZM171 644H592L583 599H217L163 344H494L484 300H153L99 44H465L456 0H35L171 644Z" />
<glyph unicode="&#xcc;" glyph-name="Igrave" horiz-adv-x="205" d="M146 846H198L231 688H186L146 846ZM171 644H226L90 0H35L171 644Z" />
<glyph unicode="&#xcd;" glyph-name="Iacute" horiz-adv-x="205" d="M285 846H337L229 688H184L285 846ZM171 644H226L90 0H35L171 644Z" />
<glyph unicode="&#xce;" glyph-name="Icircumflex" horiz-adv-x="205" d="M212 822H260L336 687H288L231 790L130 687H79L212 822ZM171 644H226L90 0H35L171 644Z" />
<glyph unicode="&#xcf;" glyph-name="Idieresis" horiz-adv-x="205" d="M113 770H170L158 715H102L113 770ZM280 770H336L324 715H268L280 770ZM171 644H226L90 0H35L171 644Z" />
<glyph unicode="&#xd0;" glyph-name="Eth" horiz-adv-x="673" d="M138 294H57L67 339H147L212 644H452Q560 644 611 599T662 454Q662 397 645 317Q620 203 583 135T483 33T318 0H76L138 294ZM315 44Q394 44 445 66T531 148T590 317Q609 407 609 459Q609 537 568
568T433 599H258L202 339H393L383 294H193L140 44H315Z" />
<glyph unicode="&#xd1;" glyph-name="Ntilde" horiz-adv-x="656" d="M493 713T477 718T441 733Q423 741 411 745T385 750Q334 750 299 715L309 762Q323 775 346 783T393 791Q411 791 425 787T459 772Q477 763 489 759T517 754Q565 754 597 789L587 742Q575 728
555 721T510 713Q493 713 477 718ZM171 644H223L503 82L622 644H677L541 0H488L209 561L90 0H35L171 644Z" />
<glyph unicode="&#xd2;" glyph-name="Ograve" horiz-adv-x="688" d="M393 846H445L478 688H433L393 846ZM69 -10T69 207Q69 260 82 319Q119 492 205 573T443 654Q560 654 617 603T675 444Q675 390 660 319Q625 154 539 72T301 -10Q69 -10 69 207ZM430 37T502 105T605
319Q621 390 621 446Q621 532 576 569T432 606Q351 606 294 578T197 487T136 319Q122 251 122 204Q122 117 167 77T311 37Q430 37 502 105Z" />
<glyph unicode="&#xd3;" glyph-name="Oacute" horiz-adv-x="688" d="M529 846H581L473 688H428L529 846ZM69 -10T69 207Q69 260 82 319Q119 492 205 573T443 654Q560 654 617 603T675 444Q675 390 660 319Q625 154 539 72T301 -10Q69 -10 69 207ZM430 37T502 105T605
319Q621 390 621 446Q621 532 576 569T432 606Q351 606 294 578T197 487T136 319Q122 251 122 204Q122 117 167 77T311 37Q430 37 502 105Z" />
<glyph unicode="&#xd4;" glyph-name="Ocircumflex" horiz-adv-x="688" d="M454 822H502L578 687H530L473 790L372 687H321L454 822ZM69 -10T69 207Q69 260 82 319Q119 492 205 573T443 654Q560 654 617 603T675 444Q675 390 660 319Q625 154 539 72T301 -10Q69
-10 69 207ZM430 37T502 105T605 319Q621 390 621 446Q621 532 576 569T432 606Q351 606 294 578T197 487T136 319Q122 251 122 204Q122 117 167 77T311 37Q430 37 502 105Z" />
<glyph unicode="&#xd5;" glyph-name="Otilde" horiz-adv-x="688" d="M510 715T494 720T458 735Q440 743 428 747T402 752Q351 752 316 717L326 764Q340 777 363 785T410 793Q428 793 442 789T476 774Q494 765 506 761T534 756Q582 756 614 791L604 744Q592 730
572 723T527 715Q510 715 494 720ZM69 -10T69 207Q69 260 82 319Q119 492 205 573T443 654Q560 654 617 603T675 444Q675 390 660 319Q625 154 539 72T301 -10Q69 -10 69 207ZM430 37T502 105T605 319Q621 390 621 446Q621 532 576 569T432 606Q351 606 294 578T197
487T136 319Q122 251 122 204Q122 117 167 77T311 37Q430 37 502 105Z" />
<glyph unicode="&#xd6;" glyph-name="Odieresis" horiz-adv-x="688" d="M356 769H413L401 714H345L356 769ZM523 769H579L567 714H511L523 769ZM69 -10T69 207Q69 260 82 319Q119 492 205 573T443 654Q560 654 617 603T675 444Q675 390 660 319Q625 154 539 72T301
-10Q69 -10 69 207ZM430 37T502 105T605 319Q621 390 621 446Q621 532 576 569T432 606Q351 606 294 578T197 487T136 319Q122 251 122 204Q122 117 167 77T311 37Q430 37 502 105Z" />
<glyph unicode="&#xd7;" glyph-name="multiply" horiz-adv-x="403" d="M210 222L74 111L50 142L184 254L93 369L130 400L220 283L361 399L386 368L245 251L336 135L301 106L210 222Z" />
<glyph unicode="&#xd8;" glyph-name="Oslash" horiz-adv-x="688" d="M163 19Q69 70 69 206Q69 260 82 319Q119 492 205 573T443 654Q485 654 523 646L550 693H600L566 634Q675 589 675 443Q675 390 660 319Q625 154 539 72T301 -10Q252 -10 204 2L172 -53H122L163
19ZM497 601Q465 606 432 606Q351 606 294 578T197 487T136 319Q122 251 122 204Q122 100 188 62L497 601ZM430 37T502 105T605 319Q621 397 621 444Q621 502 601 537T540 589L229 46Q264 37 311 37Q430 37 502 105Z" />
<glyph unicode="&#xd9;" glyph-name="Ugrave" horiz-adv-x="663" d="M395 846H447L480 688H435L395 846ZM182 -10T127 36T71 166Q71 195 79 233L166 644H221L133 227Q126 195 126 165Q126 100 168 69T300 38Q397 38 461 84T546 227L634 644H689L602 233Q550 -10
289 -10Q182 -10 127 36Z" />
<glyph unicode="&#xda;" glyph-name="Uacute" horiz-adv-x="663" d="M508 846H560L452 688H407L508 846ZM182 -10T127 36T71 166Q71 195 79 233L166 644H221L133 227Q126 195 126 165Q126 100 168 69T300 38Q397 38 461 84T546 227L634 644H689L602 233Q550 -10
289 -10Q182 -10 127 36Z" />
<glyph unicode="&#xdb;" glyph-name="Ucircumflex" horiz-adv-x="663" d="M441 822H489L565 687H517L460 790L359 687H308L441 822ZM182 -10T127 36T71 166Q71 195 79 233L166 644H221L133 227Q126 195 126 165Q126 100 168 69T300 38Q397 38 461 84T546 227L634
644H689L602 233Q550 -10 289 -10Q182 -10 127 36Z" />
<glyph unicode="&#xdc;" glyph-name="Udieresis" horiz-adv-x="663" d="M336 769H393L381 714H325L336 769ZM503 769H559L547 714H491L503 769ZM182 -10T127 36T71 166Q71 195 79 233L166 644H221L133 227Q126 195 126 165Q126 100 168 69T300 38Q397 38 461 84T546
227L634 644H689L602 233Q550 -10 289 -10Q182 -10 127 36Z" />
<glyph unicode="&#xdd;" glyph-name="Yacute" horiz-adv-x="624" d="M483 846H535L427 688H382L483 846ZM295 241L151 644H205L330 289L605 644H665L350 241L299 0H244L295 241Z" />
<glyph unicode="&#xde;" glyph-name="Thorn" horiz-adv-x="591" d="M171 644H226L200 519H401Q484 519 527 480T570 373Q570 349 564 320Q543 226 479 174T312 122H115L90 0H35L171 644ZM317 167Q394 167 444 208T509 320Q516 357 516 377Q516 426 486 450T387
474H190L125 167H317Z" />
<glyph unicode="&#xdf;" glyph-name="germandbls" horiz-adv-x="620" d="M237 -10T186 12L196 60Q246 37 329 37Q400 37 447 77T510 191Q516 217 516 238Q516 285 486 310T388 335H301L310 379H401Q465 379 503 416T554 512Q559 537 559 554Q559 601 523 626T403
652Q314 652 259 607T185 474L85 0H30L131 478Q153 582 226 641T413 700Q512 700 561 661T611 555Q611 537 606 512Q594 456 562 414T486 355Q526 344 548 313T570 236Q570 210 565 189Q544 94 482 42T325 -10Q237 -10 186 12Z" />
<glyph unicode="&#xe0;" glyph-name="agrave" horiz-adv-x="531" d="M299 680H351L384 522H339L299 680ZM52 -10T52 143Q52 178 61 221Q88 347 163 415T339 484Q388 484 421 473T486 434L494 474H549L449 0H403L409 53Q367 21 323 6T224 -10Q52 -10 52 143ZM341
35T415 99L476 386Q451 412 421 425T346 438Q257 438 197 382T115 221Q106 179 106 147Q106 87 139 61T247 35Q341 35 415 99Z" />
<glyph unicode="&#xe1;" glyph-name="aacute" horiz-adv-x="531" d="M424 680H476L368 522H323L424 680ZM52 -10T52 143Q52 178 61 221Q88 347 163 415T339 484Q388 484 421 473T486 434L494 474H549L449 0H403L409 53Q367 21 323 6T224 -10Q52 -10 52 143ZM341
35T415 99L476 386Q451 412 421 425T346 438Q257 438 197 382T115 221Q106 179 106 147Q106 87 139 61T247 35Q341 35 415 99Z" />
<glyph unicode="&#xe2;" glyph-name="acircumflex" horiz-adv-x="531" d="M353 656H401L477 521H429L372 624L271 521H220L353 656ZM52 -10T52 143Q52 178 61 221Q88 347 163 415T339 484Q388 484 421 473T486 434L494 474H549L449 0H403L409 53Q367 21 323 6T224
-10Q52 -10 52 143ZM341 35T415 99L476 386Q451 412 421 425T346 438Q257 438 197 382T115 221Q106 179 106 147Q106 87 139 61T247 35Q341 35 415 99Z" />
<glyph unicode="&#xe3;" glyph-name="atilde" horiz-adv-x="531" d="M408 547T392 552T356 567Q338 575 326 579T300 584Q249 584 214 549L224 596Q238 609 261 617T308 625Q326 625 340 621T374 606Q392 597 404 593T432 588Q480 588 512 623L502 576Q490 562
470 555T425 547Q408 547 392 552ZM52 -10T52 143Q52 178 61 221Q88 347 163 415T339 484Q388 484 421 473T486 434L494 474H549L449 0H403L409 53Q367 21 323 6T224 -10Q52 -10 52 143ZM341 35T415 99L476 386Q451 412 421 425T346 438Q257 438 197 382T115 221Q106
179 106 147Q106 87 139 61T247 35Q341 35 415 99Z" />
<glyph unicode="&#xe4;" glyph-name="adieresis" horiz-adv-x="531" d="M258 603H315L303 548H247L258 603ZM425 603H481L469 548H413L425 603ZM52 -10T52 143Q52 178 61 221Q88 347 163 415T339 484Q388 484 421 473T486 434L494 474H549L449 0H403L409 53Q367
21 323 6T224 -10Q52 -10 52 143ZM341 35T415 99L476 386Q451 412 421 425T346 438Q257 438 197 382T115 221Q106 179 106 147Q106 87 139 61T247 35Q341 35 415 99Z" />
<glyph unicode="&#xe5;" glyph-name="aring" horiz-adv-x="531" d="M316 521T294 543T271 600Q271 614 273 622Q282 666 316 695T397 724Q435 724 457 702T480 645Q480 630 478 622Q469 579 435 550T354 521Q316 521 294 543ZM395 557T419 581T443 640Q443 662
430 675T389 688Q356 688 332 664T307 605Q307 583 320 570T361 557Q395 557 419 581ZM52 -10T52 143Q52 178 61 221Q88 347 163 415T339 484Q388 484 421 473T486 434L494 474H549L449 0H403L409 53Q367 21 323 6T224 -10Q52 -10 52 143ZM341 35T415 99L476 386Q451
412 421 425T346 438Q257 438 197 382T115 221Q106 179 106 147Q106 87 139 61T247 35Q341 35 415 99Z" />
<glyph unicode="&#xe6;" glyph-name="ae" horiz-adv-x="879" d="M114 -10T76 16T37 94Q37 102 41 126Q71 268 247 268H424L431 301Q437 327 437 347Q437 392 408 414T314 437Q234 437 156 411L166 458Q238 484 332 484Q467 484 482 393Q551 484 687 484Q769 484
810 446T852 344Q852 320 846 294L828 208H467Q461 174 461 147Q461 86 499 61T631 35Q696 35 765 60L756 15Q687 -10 611 -10Q527 -10 480 15T418 94Q380 46 319 18T177 -10Q114 -10 76 16ZM786 251L795 296Q801 323 801 346Q801 391 773 414T679 438Q588 438
543 394T476 251H786ZM340 36T396 136L415 224H240Q172 224 139 200T95 126Q92 114 92 103Q92 36 201 36Q340 36 396 136Z" />
<glyph unicode="&#xe7;" glyph-name="ccedilla" horiz-adv-x="483" d="M265 438T203 389T119 237Q109 187 109 158Q109 94 147 65T270 35Q335 35 400 61L391 15Q327 -10 251 -10L229 -51Q325 -51 325 -117Q325 -131 323 -139Q301 -240 163 -240Q148 -240 129 -238T99
-232L107 -195Q134 -203 168 -203Q220 -203 246 -189T280 -139Q282 -129 282 -124Q282 -102 263 -93T201 -84H168L209 -8Q132 0 94 42T56 159Q56 195 65 237Q91 359 168 421T360 484Q403 484 430 478T484 458L474 413Q427 438 360 438Q265 438 203 389Z" />
<glyph unicode="&#xe8;" glyph-name="egrave" horiz-adv-x="525" d="M278 680H330L363 522H318L278 680ZM153 -10T104 29T55 151Q55 188 66 240Q117 484 336 484Q418 484 458 447T498 346Q498 321 492 294L474 208H114Q108 175 108 148Q108 87 147 61T278 35Q344
35 411 60L402 15Q335 -10 257 -10Q153 -10 104 29ZM433 251L442 296Q448 323 448 347Q448 392 420 415T328 438Q238 438 191 392T123 251H433Z" />
<glyph unicode="&#xe9;" glyph-name="eacute" horiz-adv-x="525" d="M411 680H463L355 522H310L411 680ZM153 -10T104 29T55 151Q55 188 66 240Q117 484 336 484Q418 484 458 447T498 346Q498 321 492 294L474 208H114Q108 175 108 148Q108 87 147 61T278 35Q344
35 411 60L402 15Q335 -10 257 -10Q153 -10 104 29ZM433 251L442 296Q448 323 448 347Q448 392 420 415T328 438Q238 438 191 392T123 251H433Z" />
<glyph unicode="&#xea;" glyph-name="ecircumflex" horiz-adv-x="525" d="M343 656H391L467 521H419L362 624L261 521H210L343 656ZM153 -10T104 29T55 151Q55 188 66 240Q117 484 336 484Q418 484 458 447T498 346Q498 321 492 294L474 208H114Q108 175 108 148Q108
87 147 61T278 35Q344 35 411 60L402 15Q335 -10 257 -10Q153 -10 104 29ZM433 251L442 296Q448 323 448 347Q448 392 420 415T328 438Q238 438 191 392T123 251H433Z" />
<glyph unicode="&#xeb;" glyph-name="edieresis" horiz-adv-x="525" d="M242 603H299L287 548H231L242 603ZM409 603H465L453 548H397L409 603ZM153 -10T104 29T55 151Q55 188 66 240Q117 484 336 484Q418 484 458 447T498 346Q498 321 492 294L474 208H114Q108
175 108 148Q108 87 147 61T278 35Q344 35 411 60L402 15Q335 -10 257 -10Q153 -10 104 29ZM433 251L442 296Q448 323 448 347Q448 392 420 415T328 438Q238 438 191 392T123 251H433Z" />
<glyph unicode="&#xec;" glyph-name="igrave" horiz-adv-x="270" d="M176 680H228L261 522H216L176 680ZM190 428H115L129 474H255L155 0H100L190 428Z" />
<glyph unicode="&#xed;" glyph-name="iacute" horiz-adv-x="270" d="M305 680H357L249 522H204L305 680ZM190 428H115L129 474H255L155 0H100L190 428Z" />
<glyph unicode="&#xee;" glyph-name="icircumflex" horiz-adv-x="270" d="M226 656H274L350 521H302L245 624L144 521H93L226 656ZM190 428H115L129 474H255L155 0H100L190 428Z" />
<glyph unicode="&#xef;" glyph-name="idieresis" horiz-adv-x="270" d="M108 603H165L153 548H97L108 603ZM275 603H331L319 548H263L275 603ZM190 428H115L129 474H255L155 0H100L190 428Z" />
<glyph unicode="&#xf0;" glyph-name="eth" horiz-adv-x="570" d="M144 -10T97 29T50 140Q50 165 56 195Q99 400 318 400Q361 400 405 385T485 339L496 395Q509 458 509 497Q509 524 501 548L348 487L356 526L484 577Q452 611 373 611Q293 611 228 590L237 634Q310
654 388 654Q486 654 529 595L635 638L627 599L545 566Q559 532 559 482Q559 438 549 391L515 231Q488 105 420 48T237 -10Q144 -10 97 29ZM420 33T457 208L475 296Q444 323 402 340T317 357Q223 357 173 315T106 195Q100 168 100 146Q100 33 247 33Q420 33 457
208Z" />
<glyph unicode="&#xf1;" glyph-name="ntilde" horiz-adv-x="559" d="M417 547T401 552T365 567Q347 575 335 579T309 584Q258 584 223 549L233 596Q247 609 270 617T317 625Q335 625 349 621T383 606Q401 597 413 593T441 588Q489 588 521 623L511 576Q499 562
479 555T434 547Q417 547 401 552ZM135 474H183L176 416Q271 484 382 484Q521 484 521 368Q521 343 515 313L449 0H394L460 312Q467 343 467 368Q467 406 443 422T360 438Q309 438 258 420T168 369L90 0H35L135 474Z" />
<glyph unicode="&#xf2;" glyph-name="ograve" horiz-adv-x="563" d="M297 680H349L382 522H337L297 680ZM144 -10T100 30T55 149Q55 191 65 237Q91 361 156 422T343 484Q528 484 528 322Q528 281 518 237Q492 112 427 51T238 -10Q144 -10 100 30ZM341 37T391 85T463
237Q474 287 474 320Q474 380 441 408T333 436Q241 436 191 388T119 237Q108 185 108 151Q108 92 140 65T248 37Q341 37 391 85Z" />
<glyph unicode="&#xf3;" glyph-name="oacute" horiz-adv-x="563" d="M433 680H485L377 522H332L433 680ZM144 -10T100 30T55 149Q55 191 65 237Q91 361 156 422T343 484Q528 484 528 322Q528 281 518 237Q492 112 427 51T238 -10Q144 -10 100 30ZM341 37T391 85T463
237Q474 287 474 320Q474 380 441 408T333 436Q241 436 191 388T119 237Q108 185 108 151Q108 92 140 65T248 37Q341 37 391 85Z" />
<glyph unicode="&#xf4;" glyph-name="ocircumflex" horiz-adv-x="563" d="M356 656H404L480 521H432L375 624L274 521H223L356 656ZM144 -10T100 30T55 149Q55 191 65 237Q91 361 156 422T343 484Q528 484 528 322Q528 281 518 237Q492 112 427 51T238 -10Q144
-10 100 30ZM341 37T391 85T463 237Q474 287 474 320Q474 380 441 408T333 436Q241 436 191 388T119 237Q108 185 108 151Q108 92 140 65T248 37Q341 37 391 85Z" />
<glyph unicode="&#xf5;" glyph-name="otilde" horiz-adv-x="563" d="M411 549T395 554T359 569Q341 577 329 581T303 586Q252 586 217 551L227 598Q241 611 264 619T311 627Q329 627 343 623T377 608Q395 599 407 595T435 590Q483 590 515 625L505 578Q493 564
473 557T428 549Q411 549 395 554ZM144 -10T100 30T55 149Q55 191 65 237Q91 361 156 422T343 484Q528 484 528 322Q528 281 518 237Q492 112 427 51T238 -10Q144 -10 100 30ZM341 37T391 85T463 237Q474 287 474 320Q474 380 441 408T333 436Q241 436 191 388T119
237Q108 185 108 151Q108 92 140 65T248 37Q341 37 391 85Z" />
<glyph unicode="&#xf6;" glyph-name="odieresis" horiz-adv-x="563" d="M257 603H314L302 548H246L257 603ZM424 603H480L468 548H412L424 603ZM144 -10T100 30T55 149Q55 191 65 237Q91 361 156 422T343 484Q528 484 528 322Q528 281 518 237Q492 112 427 51T238
-10Q144 -10 100 30ZM341 37T391 85T463 237Q474 287 474 320Q474 380 441 408T333 436Q241 436 191 388T119 237Q108 185 108 151Q108 92 140 65T248 37Q341 37 391 85Z" />
<glyph unicode="&#xf7;" glyph-name="divide" horiz-adv-x="481" d="M266 442H320L309 388H255L266 442ZM74 280H445L435 235H64L74 280ZM201 133H255L243 79H189L201 133Z" />
<glyph unicode="&#xf8;" glyph-name="oslash" horiz-adv-x="563" d="M140 5Q54 39 54 148Q54 185 65 237Q91 361 156 422T343 484Q382 484 410 477L439 528H488L451 463Q528 427 528 322Q528 289 518 237Q492 112 427 51T238 -10Q216 -10 182 -6L155 -54H106L140
5ZM384 432Q354 436 333 436Q241 436 191 388T119 237Q108 185 108 151Q108 112 121 88T165 50L384 432ZM341 37T391 85T463 237Q473 281 473 320Q473 393 425 418L208 39Q232 37 248 37Q341 37 391 85Z" />
<glyph unicode="&#xf9;" glyph-name="ugrave" horiz-adv-x="559" d="M292 680H344L377 522H332L292 680ZM132 -10T96 23T60 118Q60 144 66 174L130 474H185L121 172Q115 144 115 121Q115 75 143 55T233 35Q281 35 326 53T411 104L489 474H544L444 0H395L402 58Q357
25 308 8T200 -10Q132 -10 96 23Z" />
<glyph unicode="&#xfa;" glyph-name="uacute" horiz-adv-x="559" d="M414 680H466L358 522H313L414 680ZM132 -10T96 23T60 118Q60 144 66 174L130 474H185L121 172Q115 144 115 121Q115 75 143 55T233 35Q281 35 326 53T411 104L489 474H544L444 0H395L402 58Q357
25 308 8T200 -10Q132 -10 96 23Z" />
<glyph unicode="&#xfb;" glyph-name="ucircumflex" horiz-adv-x="559" d="M351 656H399L475 521H427L370 624L269 521H218L351 656ZM132 -10T96 23T60 118Q60 144 66 174L130 474H185L121 172Q115 144 115 121Q115 75 143 55T233 35Q281 35 326 53T411 104L489
474H544L444 0H395L402 58Q357 25 308 8T200 -10Q132 -10 96 23Z" />
<glyph unicode="&#xfc;" glyph-name="udieresis" horiz-adv-x="559" d="M249 601H306L294 546H238L249 601ZM416 601H472L460 546H404L416 601ZM132 -10T96 23T60 118Q60 144 66 174L130 474H185L121 172Q115 144 115 121Q115 75 143 55T233 35Q281 35 326 53T411
104L489 474H544L444 0H395L402 58Q357 25 308 8T200 -10Q132 -10 96 23Z" />
<glyph unicode="&#xfd;" glyph-name="yacute" horiz-adv-x="566" d="M430 680H482L374 522H329L430 680ZM150 -176T116 -173T65 -166L75 -118Q94 -124 123 -127T177 -130Q259 -130 316 -99T388 -8L402 58Q357 25 308 8T200 -10Q132 -10 96 23T60 118Q60 144 66
174L130 474H185L121 172Q115 144 115 121Q115 75 143 55T233 35Q281 35 326 53T411 104L489 474H544L443 -3Q432 -55 393 -94T297 -154T177 -176Q150 -176 116 -173Z" />
<glyph unicode="&#xfe;" glyph-name="thorn" horiz-adv-x="564" d="M183 700H238L180 428Q221 457 264 470T359 484Q440 484 484 444T529 322Q529 282 519 238Q493 113 423 52T250 -10Q200 -10 164 1T98 39L44 -216H-11L183 700ZM335 35T389 84T465 238Q475 282
475 320Q475 380 442 409T337 438Q242 438 169 374L108 88Q158 35 246 35Q335 35 389 84Z" />
<glyph unicode="&#xff;" glyph-name="ydieresis" horiz-adv-x="566" d="M272 606H329L317 551H261L272 606ZM439 606H495L483 551H427L439 606ZM150 -176T116 -173T65 -166L75 -118Q94 -124 123 -127T177 -130Q259 -130 316 -99T388 -8L402 58Q357 25 308 8T200
-10Q132 -10 96 23T60 118Q60 144 66 174L130 474H185L121 172Q115 144 115 121Q115 75 143 55T233 35Q281 35 326 53T411 104L489 474H544L443 -3Q432 -55 393 -94T297 -154T177 -176Q150 -176 116 -173Z" />
<glyph unicode="&#x2013;" glyph-name="endash" horiz-adv-x="591" d="M74 280H555L545 235H64L74 280Z" />
<glyph unicode="&#x2014;" glyph-name="emdash" horiz-adv-x="893" d="M74 280H857L847 235H64L74 280Z" />
<glyph unicode="&#x2018;" glyph-name="quoteleft" horiz-adv-x="210" d="M212 654H254L171 483H117L212 654Z" />
<glyph unicode="&#x2019;" glyph-name="quoteright" horiz-adv-x="210" d="M200 654H254L159 483H117L200 654Z" />
<glyph unicode="&#x201a;" glyph-name="quotesinglbase" horiz-adv-x="210" d="M68 33H122L27 -138H-15L68 33Z" />
<glyph unicode="&#x201c;" glyph-name="quotedblleft" horiz-adv-x="333" d="M212 654H251L168 483H117L212 654ZM338 654H377L294 483H243L338 654Z" />
<glyph unicode="&#x201d;" glyph-name="quotedblright" horiz-adv-x="333" d="M200 654H251L156 483H117L200 654ZM326 654H377L282 483H243L326 654Z" />
<glyph unicode="&#x201e;" glyph-name="quotedblbase" horiz-adv-x="333" d="M71 48H122L27 -123H-12L71 48ZM197 48H248L153 -123H114L197 48Z" />
<glyph unicode="&#x2022;" glyph-name="bullet" horiz-adv-x="341" d="M125 172T99 197T73 262Q73 299 93 331T147 383T215 403Q257 403 283 377T309 310Q309 273 289 242T235 191T166 172Q125 172 99 197Z" />
<glyph unicode="&#x2039;" glyph-name="guilsinglleft" horiz-adv-x="383" d="M72 271L79 303L368 487L384 450L127 284L313 118L283 87L72 271Z" />
<glyph unicode="&#x203a;" glyph-name="guilsinglright" horiz-adv-x="383" d="M40 124L298 290L111 456L141 487L352 303L345 271L56 87L40 124Z" />
</font>
</defs>
</svg>
