<?xml version="1.0" standalone="no"?>
<!DOCTYPE svg PUBLIC "-//W3C//DTD SVG 1.1//EN" "http://www.w3.org/Graphics/SVG/1.1/DTD/svg11.dtd">
<svg xmlns="http://www.w3.org/2000/svg">
<defs >
<font id="Arya" horiz-adv-x="539" ><font-face
    font-family="Arya"
    units-per-em="1000"
    panose-1="0 0 5 0 0 0 0 0 0 0"
    ascent="1265"
    descent="-544"
    alphabetic="0" />
<glyph unicode=" " glyph-name="space" horiz-adv-x="235" />
<glyph unicode="!" glyph-name="exclam" horiz-adv-x="276" d="M188 464L166 173H107L86 464V613H188V464ZM114 -7T97 11T79 52Q79 76 96 93T137 110Q161 110 178 93T196 52Q196 28 179 11T137 -7Q114 -7 97 11Z" />
<glyph unicode="&quot;" glyph-name="quotedbl" horiz-adv-x="348" d="M146 562L124 397H67L46 562V613H146V562ZM301 562L279 397H222L202 562V613H301V562Z" />
<glyph unicode="#" glyph-name="numbersign" horiz-adv-x="692" d="M549 397L516 215H604L590 135H502L466 -64H364L400 135H230L194 -64H92L128 135H40L54 215H143L176 397H87L102 478H191L227 677H329L293 478H462L499 677H601L564 478H651L637 397H549ZM447
397H278L245 215H414L447 397Z" />
<glyph unicode="$" glyph-name="dollar" horiz-adv-x="529" d="M480 9T301 -5V-95H233V-5Q139 1 99 44T59 172L147 177Q147 108 174 72T265 36Q329 36 354 65T379 155Q379 198 359 223T295 257L219 269Q138 281 102 323T66 440Q66 521 105 565T233 617V708H301V617Q391
610 430 567T469 444L378 436Q378 508 353 542T267 577Q210 577 188 547T165 456Q165 412 182 386T240 354L315 346Q480 323 480 168Q480 9 301 -5Z" />
<glyph unicode="%" glyph-name="percent" horiz-adv-x="811" d="M107 274T77 320T46 450Q46 533 76 579T186 625Q266 625 295 580T325 450Q325 365 296 320T186 274Q107 274 77 320ZM221 306T234 344T248 450Q248 527 235 561T185 596Q149 596 136 562T122 450Q122
383 136 345T185 306Q221 306 234 344ZM509 613L345 0H303L465 613H509ZM546 -7T516 39T485 169Q485 252 515 298T625 344Q705 344 734 299T764 169Q764 84 735 39T625 -7Q546 -7 516 39ZM660 25T673 63T687 169Q687 246 674 280T624 315Q588 315 575 281T561 169Q561
102 575 64T624 25Q660 25 673 63Z" />
<glyph unicode="&amp;" glyph-name="ampersand" horiz-adv-x="541" d="M544 283H449V183Q449 122 433 80T372 13T242 -13Q171 -13 125 11T57 74T35 157Q35 219 67 260T154 317Q108 334 80 372T52 461Q52 536 98 580T243 625Q323 625 363 595T414 501L327 475Q318
584 243 584Q195 584 175 553T154 461Q154 406 179 372T250 337H544V283ZM360 283H260Q196 283 166 254T136 157Q136 101 164 65T249 29Q307 29 333 65T360 162V283Z" />
<glyph unicode="&apos;" glyph-name="quotesingle" horiz-adv-x="192" d="M146 562L124 397H67L46 562V613H146V562Z" />
<glyph unicode="(" glyph-name="parenleft" horiz-adv-x="264" d="M133 -30T84 67T35 306Q35 446 84 544T256 643V601Q196 601 169 512T141 306Q141 190 169 101T256 12V-30Q133 -30 84 67Z" />
<glyph unicode=")" glyph-name="parenright" horiz-adv-x="264" d="M8 12Q67 12 95 101T123 306Q123 423 96 512T8 601V643Q131 643 180 545T229 306Q229 165 180 68T8 -30V12Z" />
<glyph unicode="*" glyph-name="asterisk" horiz-adv-x="466" d="M283 579L249 485H219L184 579V654H283V579ZM121 529L201 472L192 445L93 444L20 469L48 553L121 529ZM374 444L276 442L266 472L343 529L417 553L447 469L374 444ZM117 370L199 425L222 404L195
313L149 249L72 304L117 370ZM271 313L243 404L268 424L348 370L394 304L317 249L271 313Z" />
<glyph unicode="+" glyph-name="plus" horiz-adv-x="487" d="M209 304V437H280V304H414V233H280V98H209V233H75V304H209Z" />
<glyph unicode="," glyph-name="comma" horiz-adv-x="175" d="M109 110T124 93T140 47Q140 -4 111 -44T41 -108L23 -85Q38 -71 44 -56T50 -18Q50 -5 41 17Q32 44 32 56Q32 78 48 94T86 110Q109 110 124 93Z" />
<glyph unicode="-" glyph-name="hyphen" horiz-adv-x="403" d="M350 304V233H55V304H350Z" />
<glyph unicode="." glyph-name="period" horiz-adv-x="175" d="M63 -7T46 11T29 52Q29 76 46 93T86 110Q111 110 128 93T145 52Q145 28 128 11T86 -7Q63 -7 46 11Z" />
<glyph unicode="/" glyph-name="slash" horiz-adv-x="325" d="M314 652L115 -89H13L212 652H314Z" />
<glyph unicode="0" glyph-name="zero" horiz-adv-x="541" d="M142 -12T94 72T45 306Q45 456 94 541T269 626Q397 626 446 542T495 306Q495 156 446 72T269 -12Q142 -12 94 72ZM340 30T367 103T394 306Q394 448 368 516T269 584Q198 584 173 516T147 306Q147 177
173 104T269 30Q340 30 367 103Z" />
<glyph unicode="1" glyph-name="one" horiz-adv-x="541" d="M463 42V0H105V42H237V517L100 514V554Q152 555 208 571T296 613H338V42H463Z" />
<glyph unicode="2" glyph-name="two" horiz-adv-x="541" d="M83 625T268 625Q362 625 415 585T469 475Q469 426 447 383T364 278L169 81H475V0H61V65L273 278Q312 318 332 348T359 407T367 475Q367 527 342 555T268 583Q215 583 188 546T157 428L69 444Q83 625 268 625Z" />
<glyph unicode="3" glyph-name="three" horiz-adv-x="541" d="M398 293T436 256T475 155Q475 79 418 34T257 -12Q161 -12 111 27T52 147L140 157Q145 96 174 64T257 31Q316 31 346 62T376 154Q376 280 255 280H180V328H255Q367 328 367 466Q367 583 258 583Q208
583 182 548T151 445L64 457Q75 625 258 625Q360 625 414 582T468 465Q468 403 431 362T334 305Q398 293 436 256Z" />
<glyph unicode="4" glyph-name="four" horiz-adv-x="541" d="M492 127H422V0H321V127H22V191L274 613H422V208H492V127ZM321 208V570L109 208H321Z" />
<glyph unicode="5" glyph-name="five" horiz-adv-x="541" d="M166 107T192 69T275 30Q332 30 360 69T389 171Q389 324 189 324H102L122 613H452V533H158L144 364H218Q354 364 422 313T490 171Q490 120 466 79T394 13T275 -12Q86 -12 75 170L163 179Q166 107 192 69Z" />
<glyph unicode="6" glyph-name="six" horiz-adv-x="541" d="M400 356T447 310T495 186Q495 91 442 40T281 -12Q163 -12 110 67T57 283Q57 445 108 535T282 625Q472 625 481 451L394 442Q388 584 282 584Q212 584 186 519T157 326Q226 356 295 356Q400 356 447
310ZM396 30T396 186Q396 240 367 278T274 317Q242 317 214 310T157 288Q158 193 170 137T209 55T281 30Q396 30 396 186Z" />
<glyph unicode="7" glyph-name="seven" horiz-adv-x="541" d="M392 535H59V613H474V551L217 0H123L392 535Z" />
<glyph unicode="8" glyph-name="eight" horiz-adv-x="541" d="M489 265T489 151Q489 104 463 67T387 9T270 -12Q203 -12 154 9T78 67T52 151Q52 211 85 249T184 307Q121 328 90 365T59 463Q59 533 113 579T270 625Q338 625 386 604T457 545T481 463Q481 350 359
308Q489 265 489 151ZM215 584T188 551T161 463Q161 403 183 371T263 330L290 324Q334 335 357 372T380 463Q380 516 353 550T270 584Q215 584 188 551ZM326 30T357 63T388 151Q388 206 360 242T278 289L247 292Q200 284 177 247T154 151Q154 98 183 64T269 30Q326
30 357 63Z" />
<glyph unicode="9" glyph-name="nine" horiz-adv-x="541" d="M380 625T431 547T482 324Q482 157 433 73T256 -12Q162 -12 111 32T55 160L141 170Q151 30 256 30Q302 30 328 56T367 136T381 280Q346 262 314 255T245 247Q138 247 92 296T45 424Q45 482 70 527T146
599T265 625Q380 625 431 547ZM147 373T175 331T266 288Q299 288 325 294T381 316Q381 412 371 469T335 555T265 584Q208 584 178 541T147 430Q147 373 175 331Z" />
<glyph unicode=":" glyph-name="colon" horiz-adv-x="175" d="M63 -7T46 11T29 52Q29 76 46 93T86 110Q111 110 128 93T145 52Q145 28 128 11T86 -7Q63 -7 46 11ZM63 331T46 349T29 390Q29 414 46 431T86 448Q111 448 128 431T145 390Q145 366 128 349T86 331Q63
331 46 349Z" />
<glyph unicode=";" glyph-name="semicolon" horiz-adv-x="175" d="M109 110T124 93T140 47Q140 -4 111 -44T41 -108L23 -85Q38 -71 44 -56T50 -18Q50 -5 41 17Q32 44 32 56Q32 78 48 94T86 110Q109 110 124 93ZM59 331T42 349T25 390Q25 414 42 431T82 448Q107
448 124 431T141 390Q141 366 124 349T82 331Q59 331 42 349Z" />
<glyph unicode="&lt;" glyph-name="less" horiz-adv-x="487" d="M413 376L141 266L413 157V78L74 222V311L413 456V376Z" />
<glyph unicode="=" glyph-name="equal" horiz-adv-x="487" d="M414 394V322H75V394H414ZM414 214V143H75V214H414Z" />
<glyph unicode="&gt;" glyph-name="greater" horiz-adv-x="487" d="M413 311V222L74 78V157L346 266L74 376V456L413 311Z" />
<glyph unicode="?" glyph-name="question" horiz-adv-x="427" d="M38 541T86 583T216 625Q278 625 321 602T385 541T406 458Q406 389 360 342T241 269L230 173H167L158 269Q239 304 274 352T309 472Q309 526 286 555T216 584Q129 584 115 452L28 466Q38 541 86
583ZM174 -7T157 10T140 52Q140 76 157 93T198 110Q221 110 238 93T256 52Q256 28 239 11T198 -7Q174 -7 157 10Z" />
<glyph unicode="@" glyph-name="at" horiz-adv-x="878" d="M616 625T714 550T812 328Q812 229 765 168T620 106H529L508 146Q482 122 454 110T391 97Q327 97 291 143T255 286Q255 373 295 424T420 475Q479 475 534 447L554 475H592V148H612Q664 148 692 193T721
328Q721 444 654 516T447 589Q314 589 238 508T161 272Q161 122 229 39T443 -45H588V-80H443Q264 -80 164 5T64 272Q64 372 103 451T228 578T447 625Q616 625 714 550ZM502 421Q477 434 438 434Q394 434 369 397T344 286Q344 218 363 178T425 138Q468 138 502 173V421Z"
/>
<glyph unicode="A" glyph-name="A" horiz-adv-x="540" d="M373 183H129L71 0H13L211 613H333L531 0H432L373 183ZM357 232L251 565L145 232H357Z" />
<glyph unicode="B" glyph-name="B" horiz-adv-x="523" d="M434 301T462 259T490 164Q490 93 446 47T296 0H82V613H267Q371 613 416 570T462 456Q462 410 442 374T373 318Q434 301 462 259ZM184 333H260Q314 333 337 366T360 455Q360 514 335 544T260 575H184V333ZM388
38T388 164Q388 219 362 257T286 295H184V38H286Q388 38 388 164Z" />
<glyph unicode="C" glyph-name="C" horiz-adv-x="529" d="M401 583T296 583Q239 583 208 553T165 464T153 306Q153 208 165 150T208 61T296 31Q359 31 386 73T416 193L499 190Q491 90 447 39T296 -12Q202 -12 148 24T73 130T51 306Q51 413 72 482T147 588T296
625Q397 625 441 584T495 461L413 446Q401 583 296 583Z" />
<glyph unicode="D" glyph-name="D" horiz-adv-x="599" d="M384 613T439 574T516 468T537 306Q537 211 516 145T440 39T285 0H82V613H285Q384 613 439 574ZM367 38T400 108T434 306Q434 434 401 504T273 575H184V38H273Q367 38 400 108Z" />
<glyph unicode="E" glyph-name="E" horiz-adv-x="470" d="M439 51V0H82V613H421V562H184V339H400V286H184V51H439Z" />
<glyph unicode="F" glyph-name="F" horiz-adv-x="433" d="M184 556V339H379V283H184V0H82V613H404V556H184Z" />
<glyph unicode="G" glyph-name="G" horiz-adv-x="583" d="M510 0H459L438 75Q387 -12 286 -12Q194 -12 143 25T71 132T51 306Q51 413 72 482T147 588T296 625Q397 625 441 584T495 461L413 446Q401 583 296 583Q239 583 208 553T165 464T153 306Q153 210 164 151T203
62T286 31Q417 31 422 211V262H310V312H510V0Z" />
<glyph unicode="H" glyph-name="H" horiz-adv-x="611" d="M530 613V0H427V281H184V0H82V613H184V332H427V613H530Z" />
<glyph unicode="I" glyph-name="I" horiz-adv-x="266" d="M184 0H82V613H184V0Z" />
<glyph unicode="J" glyph-name="J" horiz-adv-x="403" d="M333 101T322 66T274 10T161 -12Q90 -12 57 11T14 70T5 169H95Q95 93 109 62T164 31Q203 31 217 58T231 154V613H333V154Q333 101 322 66Z" />
<glyph unicode="K" glyph-name="K" horiz-adv-x="515" d="M218 286H184V0H82V613H184V338H260L442 613H502L306 319L514 0H406L218 286Z" />
<glyph unicode="L" glyph-name="L" horiz-adv-x="406" d="M398 51V0H82V613H184V51H398Z" />
<glyph unicode="M" glyph-name="M" horiz-adv-x="756" d="M571 552L404 2V0H313L146 557L132 0H72L89 613H222L374 101L529 613H667L685 0H584L571 552Z" />
<glyph unicode="N" glyph-name="N" horiz-adv-x="640" d="M558 0H447L145 512V0H85V613H194L497 102V613H557V1L558 0Z" />
<glyph unicode="O" glyph-name="O" horiz-adv-x="599" d="M172 -12T112 65T51 306Q51 471 111 548T298 625Q426 625 486 548T546 306Q546 143 486 66T298 -12Q172 -12 112 65ZM372 31T408 98T444 306Q444 448 408 515T298 583Q224 583 189 516T153 306Q153 164
188 98T298 31Q372 31 408 98Z" />
<glyph unicode="P" glyph-name="P" horiz-adv-x="500" d="M390 613T434 559T478 417Q478 330 434 276T284 222H184V0H82V613H284Q390 613 434 559ZM325 258T350 300T376 417Q376 491 351 533T270 575H184V258H270Q325 258 350 300Z" />
<glyph unicode="Q" glyph-name="Q" horiz-adv-x="591" d="M546 171T505 95T377 -3L527 -68L490 -137L278 -12Q162 -6 107 71T51 306Q51 471 111 548T298 625Q426 625 486 548T546 306Q546 171 505 95ZM153 164T188 98T298 31Q372 31 408 98T444 306Q444 448 408
515T298 583Q224 583 189 516T153 306Q153 164 188 98Z" />
<glyph unicode="R" glyph-name="R" horiz-adv-x="551" d="M510 0H400L314 213Q302 242 285 251T231 261H184V0H82V613H287Q396 613 440 560T484 430Q484 374 458 331T366 270Q402 257 418 222L510 0ZM276 298Q330 298 356 336T382 430Q382 491 356 533T276 575H184V298H276Z"
/>
<glyph unicode="S" glyph-name="S" horiz-adv-x="512" d="M352 625T403 581T466 444L383 433Q378 505 346 544T258 583Q199 583 168 555T136 474Q136 426 161 402T253 360L308 346Q397 321 434 280T471 166Q471 80 415 34T255 -12Q156 -12 104 32T40 169L121 181Q129
109 163 70T255 31Q385 31 385 141Q385 174 374 194T338 227T263 253L212 266Q123 289 88 330T52 448Q52 535 104 580T258 625Q352 625 403 581Z" />
<glyph unicode="T" glyph-name="T" horiz-adv-x="426" d="M427 613V562H265V0H163V562H-1V613H427Z" />
<glyph unicode="U" glyph-name="U" horiz-adv-x="588" d="M519 203Q519 126 487 78T405 9T300 -12Q201 -12 136 37T70 203V613H172V203Q172 117 208 78T307 38Q371 38 415 78T460 203V613H519V203Z" />
<glyph unicode="V" glyph-name="V" horiz-adv-x="524" d="M513 613L323 0H204L13 613H115L283 46L451 613H513Z" />
<glyph unicode="W" glyph-name="W" horiz-adv-x="754" d="M734 613L600 0H509L378 502L251 0H154L21 613H123L225 123L350 613H443L569 121L672 613H734Z" />
<glyph unicode="X" glyph-name="X" horiz-adv-x="525" d="M408 0L244 255L75 0H13L216 298L13 613H130L284 373L450 613H512L314 327L525 0H408Z" />
<glyph unicode="Y" glyph-name="Y" horiz-adv-x="476" d="M289 212L288 211V0H186V212L-3 613H100L257 268L418 613H478L289 212Z" />
<glyph unicode="Z" glyph-name="Z" horiz-adv-x="470" d="M450 51V0H21V65L335 562H38V613H442V550L125 51H450Z" />
<glyph unicode="[" glyph-name="bracketleft" horiz-adv-x="268" d="M166 601V12H261V-30H63V643H261V601H166Z" />
<glyph unicode="\" glyph-name="backslash" horiz-adv-x="325" d="M212 -89L13 652H115L314 -89H212Z" />
<glyph unicode="]" glyph-name="bracketright" horiz-adv-x="268" d="M206 -30H7V12H102V601H7V643H206V-30Z" />
<glyph unicode="^" glyph-name="asciicircum" horiz-adv-x="487" d="M337 265L244 463L152 265H72L199 520H289L415 265H337Z" />
<glyph unicode="_" glyph-name="underscore" horiz-adv-x="478" d="M424 0V-71H55V0H424Z" />
<glyph unicode="`" glyph-name="grave" horiz-adv-x="255" d="M167 531L1 640L63 712L188 554L167 531Z" />
<glyph unicode="a" glyph-name="a" horiz-adv-x="511" d="M118 -12T83 21T47 113Q47 175 91 210T227 262L338 280V329Q338 442 252 442Q201 442 178 413T152 324L68 333Q74 412 116 452T254 492Q347 492 393 451T439 325V0H375L344 70Q313 30 270 9T179 -12Q118
-12 83 21ZM249 41T282 61T338 108V239L240 220Q190 209 165 185T139 120Q139 84 159 63T215 41Q249 41 282 61Z" />
<glyph unicode="b" glyph-name="b" horiz-adv-x="537" d="M407 492T449 423T491 240Q491 126 449 57T298 -12Q222 -12 159 42L127 0H82V634L183 647V462Q240 492 298 492Q407 492 449 423ZM336 45T363 96T390 240Q390 337 363 389T273 442Q223 442 183 419V76Q221
45 274 45Q336 45 363 96Z" />
<glyph unicode="c" glyph-name="c" horiz-adv-x="484" d="M147 140T169 89T254 38Q305 38 327 69T352 163L438 160Q432 76 390 32T252 -12Q134 -12 90 56T46 240Q46 356 90 424T252 492Q348 492 389 451T437 329L352 318Q350 381 328 411T254 442Q192 442 170
392T147 240Q147 140 169 89Z" />
<glyph unicode="d" glyph-name="d" horiz-adv-x="537" d="M457 647V0H396L367 54Q312 -12 227 -12Q46 -12 46 236Q46 492 239 492Q300 492 356 456V634L457 647ZM315 38T356 94V405Q313 437 263 437Q206 437 177 386T147 236Q147 138 174 88T255 38Q315 38 356 94Z" />
<glyph unicode="e" glyph-name="e" horiz-adv-x="502" d="M147 234V232Q147 126 172 82T260 38Q362 38 367 143L450 139Q443 69 399 29T257 -12Q144 -12 95 50T46 240Q46 354 92 423T256 492Q369 492 413 424T457 244V234H147ZM201 442T177 403T148 284H359Q356
362 333 402T254 442Q201 442 177 403Z" />
<glyph unicode="f" glyph-name="f" horiz-adv-x="291" d="M278 660T307 651T366 623L332 550Q317 573 296 587T253 601Q225 601 210 583T194 533V480H295V429H194V0H93V429H15V480H93V506Q93 582 132 621T246 660Q278 660 307 651Z" />
<glyph unicode="g" glyph-name="g" horiz-adv-x="511" d="M473 438H403Q443 391 443 316Q443 242 403 190T264 138Q197 138 153 160L126 134Q102 114 102 87Q102 72 113 60T146 47H333Q397 47 434 14T471 -69Q471 -145 409 -174T244 -203Q146 -203 92 -176T37
-84Q37 -58 54 -33T100 6Q74 15 59 34T43 79Q43 101 51 120T80 160L111 190Q67 234 67 316Q67 390 109 441T255 492Q304 492 337 480H473V438ZM305 187T325 220T346 316Q346 378 326 410T255 443Q205 443 185 411T165 316Q165 253 185 220T255 187Q305 187 325
220ZM145 -14T135 -35T124 -81Q124 -120 154 -136T244 -153Q320 -153 352 -135T385 -69Q385 -36 361 -18T301 0H162Q145 -14 135 -35Z" />
<glyph unicode="h" glyph-name="h" horiz-adv-x="555" d="M408 492T445 452T483 339V0H382V331Q382 384 363 410T303 436Q241 436 183 390V0H82V634L183 647V442Q215 465 253 478T329 492Q408 492 445 452Z" />
<glyph unicode="i" glyph-name="i" horiz-adv-x="263" d="M106 543T88 561T70 605Q70 631 88 649T132 668Q158 668 176 650T195 605Q195 580 176 562T132 543Q106 543 88 561ZM180 0H81V480H180V0Z" />
<glyph unicode="j" glyph-name="j" horiz-adv-x="265" d="M106 543T88 561T70 605Q70 631 88 649T132 668Q158 668 176 650T195 605Q195 580 176 562T132 543Q106 543 88 561ZM-24 -145T23 -145Q50 -145 66 -125T82 -70V480H183V-50Q183 -126 143 -164T29 -203Q-30
-203 -91 -167L-58 -95Q-24 -145 23 -145Z" />
<glyph unicode="k" glyph-name="k" horiz-adv-x="484" d="M366 0L218 223L183 185V0H82V634L183 647V246L402 480H460L280 289L475 0H366Z" />
<glyph unicode="l" glyph-name="l" horiz-adv-x="265" d="M183 0H82V634L183 647V0Z" />
<glyph unicode="m" glyph-name="m" horiz-adv-x="836" d="M686 492T723 452T761 339V0H661V342Q661 388 640 412T579 436Q519 436 468 392Q475 364 475 339V0H373V342Q373 436 289 436Q232 436 183 394V0H82V480H126L165 431Q197 458 237 475T320 492Q416 492
453 430Q484 457 524 474T609 492Q686 492 723 452Z" />
<glyph unicode="n" glyph-name="n" horiz-adv-x="555" d="M483 492T483 339V0H382V331Q382 385 363 410T303 436Q242 436 183 390V0H82V480H126L166 430Q202 458 245 475T329 492Q483 492 483 339Z" />
<glyph unicode="o" glyph-name="o" horiz-adv-x="523" d="M141 -12T94 57T46 240Q46 354 93 423T262 492Q382 492 430 423T478 240Q478 -12 262 -12Q141 -12 94 57ZM328 38T352 91T377 240Q377 337 353 389T262 442Q195 442 171 390T147 240Q147 143 171 91T262
38Q328 38 352 91Z" />
<glyph unicode="p" glyph-name="p" horiz-adv-x="540" d="M409 492T451 423T493 240Q493 127 450 58T298 -12Q241 -12 183 10V-190L82 -203V480H127L164 439Q194 463 230 477T303 492Q409 492 451 423ZM338 38T365 91T393 240Q393 327 366 381T277 436Q230 436
183 403V55Q223 38 274 38Q338 38 365 91Z" />
<glyph unicode="q" glyph-name="q" horiz-adv-x="537" d="M457 480V-176L356 -190V18Q298 -12 239 -12Q131 -12 89 57T46 240Q46 354 88 423T239 492Q317 492 379 439L412 480H457ZM314 38T356 61V404Q315 437 263 437Q203 437 175 385T147 240Q147 38 267 38Q314
38 356 61Z" />
<glyph unicode="r" glyph-name="r" horiz-adv-x="340" d="M197 432T238 458T338 484V410Q184 410 184 290H183V0H82V480H126L174 389Q197 432 238 458Z" />
<glyph unicode="s" glyph-name="s" horiz-adv-x="456" d="M350 256T383 225T417 135Q417 67 370 28T235 -12Q141 -12 95 26T39 138L122 148Q127 96 155 67T235 38Q277 38 304 61T331 114Q331 144 307 162T228 194L180 208Q116 225 82 258T48 351Q48 416 96 454T229
492Q318 492 361 455T413 345L330 338Q325 387 300 414T229 442Q182 442 158 423T134 373Q134 339 157 321T232 289L276 276Q350 256 383 225Z" />
<glyph unicode="t" glyph-name="t" horiz-adv-x="303" d="M307 17Q254 -12 205 -12Q155 -12 131 6T100 51T94 115V429H16V480H94V558L196 596V480H298V429H196V103Q196 70 204 58T233 45Q261 45 294 63L307 17Z" />
<glyph unicode="u" glyph-name="u" horiz-adv-x="556" d="M475 480V0H409L381 60Q314 -12 224 -12Q146 -12 109 28T72 143V480H173V153Q173 41 261 41Q326 41 374 104V480H475Z" />
<glyph unicode="v" glyph-name="v" horiz-adv-x="461" d="M452 480L285 0H174L10 480H111L251 51L394 480H452Z" />
<glyph unicode="w" glyph-name="w" horiz-adv-x="641" d="M631 480L506 0H395L318 341L232 0H120L14 480H116L198 78L295 480H354L353 478L356 480H389L473 76L571 480H631Z" />
<glyph unicode="x" glyph-name="x" horiz-adv-x="432" d="M319 0L195 187L57 0H-3L170 226L3 480H115L233 300L365 480H425L258 261L431 0H319Z" />
<glyph unicode="y" glyph-name="y" horiz-adv-x="460" d="M452 480L207 -203L125 -191L218 -19L10 480H111L264 101L394 480H452Z" />
<glyph unicode="z" glyph-name="z" horiz-adv-x="430" d="M401 51V0H29V63L287 429H39V480H391V417L135 51H401Z" />
<glyph unicode="{" glyph-name="braceleft" horiz-adv-x="271" d="M143 306T158 292T173 252Q173 236 169 206Q165 172 165 150Q165 12 263 12V-30Q157 -30 109 16T61 140Q61 159 65 193Q66 201 67 212T68 237Q68 262 49 274T8 286V328Q29 328 48 339T68 376Q68
391 67 402T65 422Q61 454 61 473Q61 551 108 597T263 643V602Q165 602 165 469Q165 446 169 414Q173 386 173 370Q173 344 158 329T121 313V306Q143 306 158 292Z" />
<glyph unicode="|" glyph-name="bar" horiz-adv-x="282" d="M195 652V-89H85V652H195Z" />
<glyph unicode="}" glyph-name="braceright" horiz-adv-x="271" d="M150 313Q129 313 114 328T98 370Q98 386 102 414Q106 446 106 469Q106 602 8 602V643Q115 643 162 597T210 473Q210 461 209 445T207 422Q204 398 204 376Q204 351 223 340T263 328V286Q242
286 223 274T204 237Q204 216 207 193Q208 185 209 169T210 140Q210 63 162 17T8 -30V12Q61 12 83 48T106 150Q106 172 102 206Q98 236 98 252Q98 278 113 292T150 306V313Z" />
<glyph unicode="~" glyph-name="asciitilde" horiz-adv-x="487" d="M104 284T148 284Q169 284 190 288T243 302Q274 311 296 315T340 320Q358 320 378 316T414 304V233Q399 241 379 245T340 250Q319 250 297 246T243 232Q211 223 190 219T148 214Q106 214 75 233V304Q104
284 148 284Z" />
<glyph unicode="&#xa0;" glyph-name="uni00A0" horiz-adv-x="235" />
<glyph unicode="&#xa1;" glyph-name="exclamdown" horiz-adv-x="276" d="M161 493T178 476T196 435Q196 411 179 394T137 377Q113 377 96 394T79 435Q79 458 96 475T137 493Q161 493 178 476ZM86 -127V23L107 314H166L188 23V-127H86Z" />
<glyph unicode="&#xa2;" glyph-name="cent" horiz-adv-x="529" d="M479 127T440 84T315 33V-68H246V34Q140 46 101 118T61 306Q61 420 100 492T246 578V680H315V580Q466 569 478 400L397 396Q395 460 370 500T295 540Q238 540 209 509T171 429T162 306Q162 198
188 136T283 73Q346 73 374 107T406 206L485 202Q479 127 440 84Z" />
<glyph unicode="&#xa3;" glyph-name="sterling" horiz-adv-x="529" d="M493 81V0H61V62Q86 81 97 107T108 161V254H55V324H108V442Q108 531 153 578T302 625Q400 625 442 579T485 440L395 435Q395 508 373 546T302 584Q251 584 232 549T213 442V324H402V254H213V177Q213
140 203 119T166 81H493Z" />
<glyph unicode="&#xa4;" glyph-name="currency" horiz-adv-x="529" d="M451 242T424 197L496 123L449 76L376 148Q332 120 263 120Q200 120 156 149L81 76L34 123L110 201Q86 245 86 306Q86 370 111 413L34 491L81 537L157 462Q202 493 274 493Q336 493 377 466L449
537L496 491L423 418Q451 373 451 306Q451 242 424 197ZM316 161T339 203T362 306Q362 367 342 409T274 452Q222 452 199 410T176 306Q176 247 197 204T263 161Q316 161 339 203Z" />
<glyph unicode="&#xa5;" glyph-name="yen" horiz-adv-x="529" d="M396 382H476V322H367L337 257H476V196H316V0H213V196H52V257H193L162 322H52V382H134L25 613H128L283 271L445 613H505L396 382Z" />
<glyph unicode="&#xa6;" glyph-name="brokenbar" horiz-adv-x="282" d="M195 652V359H85V652H195ZM195 205V-89H85V205H195Z" />
<glyph unicode="&#xa7;" glyph-name="section" horiz-adv-x="421" d="M398 78T290 30Q333 -25 333 -85Q333 -148 284 -193T154 -257L132 -183Q169 -176 200 -154T232 -99Q232 -75 224 -58T192 -13L82 116Q22 188 22 253Q22 355 130 402Q88 461 88 517Q88 582 136
626T267 689L289 616Q250 608 220 586T189 531Q189 508 196 491T223 451L334 319Q398 252 398 180Q398 78 290 30ZM263 104T280 122T297 164Q297 190 289 207T257 251L182 340Q124 315 124 270Q124 244 131 227T157 187L237 93Q263 104 280 122Z" />
<glyph unicode="&#xa8;" glyph-name="dieresis" horiz-adv-x="312" d="M42 549T26 566T9 605Q9 629 25 646T65 664Q89 664 106 647T124 605Q124 582 107 566T65 549Q42 549 26 566ZM225 549T208 566T190 605Q190 629 207 646T247 664Q271 664 287 647T304 605Q304
582 288 566T247 549Q225 549 208 566Z" />
<glyph unicode="&#xa9;" glyph-name="copyright" horiz-adv-x="616" d="M46 599T113 666T310 733Q437 733 504 666T571 470Q571 343 504 276T310 209Q181 209 114 276T46 470Q46 599 113 666ZM103 367T154 314T310 260Q413 260 464 313T516 470Q516 573 465 627T310
682Q206 682 155 628T103 470Q103 367 154 314ZM376 570T361 585T313 601Q241 601 241 472Q241 409 258 377T316 344Q348 344 363 364T381 418L432 416Q423 295 312 295Q240 295 211 339T181 472Q181 558 211 602T312 646Q421 646 430 542L379 539Q376 570 361
585Z" />
<glyph unicode="&#xaa;" glyph-name="ordfeminine" horiz-adv-x="370" d="M62 587T96 612T186 638Q246 638 283 613T320 522V294H276L248 335Q225 313 198 300T130 286Q83 286 61 310T39 376Q39 461 157 479L233 488V521Q233 567 221 585T186 604Q159 604 144
585T125 520L55 538Q62 587 96 612ZM207 328T233 358V460L190 454Q118 442 118 378Q118 356 131 342T168 328Q207 328 233 358ZM326 235V177H30V235H326Z" />
<glyph unicode="&#xab;" glyph-name="guillemotleft" horiz-adv-x="434" d="M213 131L181 100L30 247V284L181 430L213 399L119 265L213 131ZM403 131L368 100L220 247V284L368 430L403 399L307 265L403 131Z" />
<glyph unicode="&#xac;" glyph-name="logicalnot" horiz-adv-x="487" d="M414 233H413V117H345V233H75V304H414V233Z" />
<glyph unicode="&#xad;" glyph-name="uni00AD" horiz-adv-x="410" d="M52 299H347L373 355H79L52 299Z" />
<glyph unicode="&#xae;" glyph-name="registered" horiz-adv-x="616" d="M46 599T113 666T310 733Q437 733 504 666T571 470Q571 343 504 276T310 209Q181 209 114 276T46 470Q46 599 113 666ZM103 367T154 314T310 260Q413 260 464 313T516 470Q516 573 465 627T310
682Q206 682 155 628T103 470Q103 367 154 314ZM378 640T400 611T423 540Q423 506 412 480T366 445Q376 438 386 415L436 302H373L326 412Q322 425 314 430T292 436H263V302H204V640H311Q378 640 400 611ZM363 480T363 537Q363 562 353 578T313 595H264V480H313Q363
480 363 537Z" />
<glyph unicode="&#xaf;" glyph-name="overscore" horiz-adv-x="298" d="M272 641V570H26V641H272Z" />
<glyph unicode="&#xb0;" glyph-name="degree" horiz-adv-x="359" d="M108 314T69 352T30 469Q30 542 67 583T179 625Q248 625 287 587T326 469Q326 397 289 356T179 314Q108 314 69 352ZM248 358T248 469Q248 584 179 584Q146 584 129 558T111 469Q111 358 179
358Q248 358 248 469Z" />
<glyph unicode="&#xb1;" glyph-name="plusminus" horiz-adv-x="487" d="M209 346V479H280V346H414V275H280V140H209V275H75V346H209ZM414 71V0H75V71H414Z" />
<glyph unicode="&#xb2;" glyph-name="uni00B2" horiz-adv-x="373" d="M71 679T187 679Q246 679 279 657T313 595Q313 567 301 543T252 488L138 394H313V336H58V383L184 488Q216 517 226 539T236 595Q236 621 224 635T187 649Q131 649 130 565L62 574Q71 679 187 679Z" />
<glyph unicode="&#xb3;" glyph-name="uni00B3" horiz-adv-x="373" d="M269 497T293 477T318 420Q318 381 283 355T183 329Q122 329 91 351T55 422L121 429Q124 394 139 378T183 361Q245 361 245 420Q245 459 226 472T172 485H132V520H173Q210 520 224 538T239
594Q239 623 226 636T184 649Q130 649 127 575L61 581Q65 633 95 656T184 679Q246 679 279 656T313 594Q313 556 290 534T227 503Q269 497 293 477Z" />
<glyph unicode="&#xb4;" glyph-name="acute" horiz-adv-x="255" d="M191 712L253 640L89 531L68 554L191 712Z" />
<glyph unicode="&#xb5;" glyph-name="mu" horiz-adv-x="556" d="M484 480V143Q484 69 448 29T333 -12Q245 -12 180 55L147 -203H82V480H183V104Q229 41 296 41Q383 41 383 153V480H484Z" />
<glyph unicode="&#xb6;" glyph-name="paragraph" horiz-adv-x="427" d="M327 563V0H225V231H186Q99 231 57 278T15 397Q15 467 57 515T186 563H327Z" />
<glyph unicode="&#xb7;" glyph-name="middot" horiz-adv-x="175" d="M63 216T46 234T29 275Q29 299 46 316T86 333Q111 333 128 316T145 275Q145 251 128 234T86 216Q63 216 46 234Z" />
<glyph unicode="&#xb8;" glyph-name="cedilla" horiz-adv-x="239" d="M171 -51T196 -73T222 -129Q222 -164 200 -187T127 -211Q79 -211 56 -189T32 -129L91 -121Q91 -148 100 -163T126 -178Q154 -178 154 -134Q154 -110 137 -96T75 -74L98 5H144L127 -46Q171 -51
196 -73Z" />
<glyph unicode="&#xb9;" glyph-name="uni00B9" horiz-adv-x="382" d="M305 367V336H78V367H158V612L77 610V639Q106 638 142 648T202 673H235V367H305Z" />
<glyph unicode="&#xba;" glyph-name="ordmasculine" horiz-adv-x="375" d="M30 286T30 462Q30 638 187 638Q274 638 308 590T343 462Q343 383 309 335T187 286Q30 286 30 462ZM229 324T243 357T258 462Q258 534 244 568T187 603Q146 603 132 569T118 462Q118 391
132 358T187 324Q229 324 243 357ZM334 235V177H40V235H334Z" />
<glyph unicode="&#xbb;" glyph-name="guillemotright" horiz-adv-x="434" d="M32 399L66 430L215 284V247L66 100L32 131L127 265L32 399ZM222 399L254 430L404 284V247L254 100L222 131L315 265L222 399Z" />
<glyph unicode="&#xbc;" glyph-name="onequarter" horiz-adv-x="860" d="M305 312V281H78V312H158V557L77 555V584Q106 583 142 593T202 618H235V312H305ZM540 613L376 0H334L496 613H540ZM809 64H772V0H695V64H518V112L658 337H772V121H809V64ZM695 121V310L580
121H695Z" />
<glyph unicode="&#xbd;" glyph-name="onehalf" horiz-adv-x="860" d="M312 312V281H85V312H165V557L84 555V584Q113 583 149 593T209 618H242V312H312ZM540 613L376 0H334L496 613H540ZM558 343T674 343Q733 343 766 321T800 259Q800 231 788 207T739 152L625
58H800V0H545V47L671 152Q703 181 713 203T723 259Q723 285 711 299T674 313Q618 313 617 229L549 238Q558 343 674 343Z" />
<glyph unicode="&#xbe;" glyph-name="threequarters" horiz-adv-x="860" d="M318 436T318 365Q318 326 283 300T183 274Q122 274 91 296T55 367L121 374Q124 339 139 323T183 306Q245 306 245 365Q245 404 226 417T172 430H132V465H173Q210 465 224 483T239 539Q239
568 226 581T184 594Q130 594 127 520L61 526Q65 578 95 601T184 624Q246 624 279 601T313 539Q313 502 290 479T227 448Q318 436 318 365ZM540 613L376 0H334L496 613H540ZM809 64H772V0H695V64H518V112L658 337H772V121H809V64ZM695 121V310L580 121H695Z" />
<glyph unicode="&#xbf;" glyph-name="questiondown" horiz-adv-x="418" d="M241 493T258 476T275 435Q275 410 258 394T217 377Q193 377 176 394T159 435Q159 459 176 476T217 493Q241 493 258 476ZM377 -55T329 -97T199 -139Q137 -139 94 -116T30 -55T9 28Q9
97 55 144T174 217L185 314H248L257 217Q176 182 141 134T106 14Q106 -40 129 -69T199 -98Q286 -98 300 35L387 21Q377 -55 329 -97Z" />
<glyph unicode="&#xc0;" glyph-name="Agrave" horiz-adv-x="540" d="M373 183H129L71 0H13L211 613H333L531 0H432L373 183ZM357 232L251 565L145 232H357ZM316 664L150 773L212 845L337 687L316 664Z" />
<glyph unicode="&#xc1;" glyph-name="Aacute" horiz-adv-x="540" d="M373 183H129L71 0H13L211 613H333L531 0H432L373 183ZM357 232L251 565L145 232H357ZM332 845L394 773L230 664L209 687L332 845Z" />
<glyph unicode="&#xc2;" glyph-name="Acircumflex" horiz-adv-x="540" d="M373 183H129L71 0H13L211 613H333L531 0H432L373 183ZM357 232L251 565L145 232H357ZM248 831H293L389 685L363 662L270 749L180 662L152 685L248 831Z" />
<glyph unicode="&#xc3;" glyph-name="Atilde" horiz-adv-x="540" d="M373 183H129L71 0H13L211 613H333L531 0H432L373 183ZM357 232L251 565L145 232H357ZM310 695T290 702T264 711Q251 716 237 720T212 725Q194 725 182 716T162 688L131 699Q139 750 160 774T210
798Q238 798 278 780Q291 775 304 771T329 766Q348 766 360 774T380 800L411 788Q402 739 381 717T332 695Q310 695 290 702Z" />
<glyph unicode="&#xc4;" glyph-name="Adieresis" horiz-adv-x="540" d="M373 183H129L71 0H13L211 613H333L531 0H432L373 183ZM357 232L251 565L145 232H357ZM157 682T141 699T124 738Q124 762 140 779T180 797Q204 797 221 780T239 738Q239 715 222 699T180
682Q157 682 141 699ZM340 682T323 699T305 738Q305 762 322 779T362 797Q386 797 402 780T419 738Q419 715 403 699T362 682Q340 682 323 699Z" />
<glyph unicode="&#xc5;" glyph-name="Aring" horiz-adv-x="540" d="M373 183H129L71 0H13L211 613H333L531 0H432L373 183ZM357 232L251 565L145 232H357ZM220 658T201 685T181 750Q181 843 273 843Q365 843 365 750Q365 658 273 658Q220 658 201 685ZM295 691T303
709T312 750Q312 809 272 809Q235 809 235 750Q235 727 243 709T272 691Q295 691 303 709Z" />
<glyph unicode="&#xc6;" glyph-name="AE" horiz-adv-x="779" d="M748 51V0H391V269H189L74 0H13L283 613H730V562H493V322H712V269H493V51H748ZM391 322V562H315L212 322H391Z" />
<glyph unicode="&#xc7;" glyph-name="Ccedilla" horiz-adv-x="529" d="M491 92T449 41T303 -12L292 -46Q336 -51 361 -73T387 -129Q387 -164 365 -187T292 -211Q244 -211 221 -189T197 -129L256 -121Q256 -148 265 -163T291 -178Q319 -178 319 -134Q319 -110 302
-96T240 -74L259 -10Q142 0 97 77T51 306Q51 413 72 482T147 588T296 625Q397 625 441 584T495 461L413 446Q401 583 296 583Q239 583 208 553T165 464T153 306Q153 208 165 150T208 61T296 31Q359 31 386 73T416 193L499 190Q491 92 449 41Z" />
<glyph unicode="&#xc8;" glyph-name="Egrave" horiz-adv-x="470" d="M439 51V0H82V613H421V562H184V339H400V286H184V51H439ZM296 664L130 773L192 845L317 687L296 664Z" />
<glyph unicode="&#xc9;" glyph-name="Eacute" horiz-adv-x="470" d="M439 51V0H82V613H421V562H184V339H400V286H184V51H439ZM312 845L374 773L210 664L189 687L312 845Z" />
<glyph unicode="&#xca;" glyph-name="Ecircumflex" horiz-adv-x="470" d="M439 51V0H82V613H421V562H184V339H400V286H184V51H439ZM228 831H273L369 685L343 662L250 749L160 662L132 685L228 831Z" />
<glyph unicode="&#xcb;" glyph-name="Edieresis" horiz-adv-x="470" d="M439 51V0H82V613H421V562H184V339H400V286H184V51H439ZM138 682T122 699T105 738Q105 762 121 779T161 797Q185 797 202 780T220 738Q220 715 203 699T161 682Q138 682 122 699ZM321 682T304
699T286 738Q286 762 303 779T343 797Q367 797 383 780T400 738Q400 715 384 699T343 682Q321 682 304 699Z" />
<glyph unicode="&#xcc;" glyph-name="Igrave" horiz-adv-x="266" d="M184 0H82V613H184V0ZM178 664L12 773L74 845L199 687L178 664Z" />
<glyph unicode="&#xcd;" glyph-name="Iacute" horiz-adv-x="266" d="M184 0H82V613H184V0ZM194 845L256 773L92 664L71 687L194 845Z" />
<glyph unicode="&#xce;" glyph-name="Icircumflex" horiz-adv-x="266" d="M184 0H82V613H184V0ZM110 831H155L251 685L225 662L132 749L42 662L14 685L110 831Z" />
<glyph unicode="&#xcf;" glyph-name="Idieresis" horiz-adv-x="266" d="M184 0H82V613H184V0ZM19 682T3 699T-14 738Q-14 762 2 779T42 797Q66 797 83 780T101 738Q101 715 84 699T42 682Q19 682 3 699ZM202 682T185 699T167 738Q167 762 184 779T224 797Q248
797 264 780T281 738Q281 715 265 699T224 682Q202 682 185 699Z" />
<glyph unicode="&#xd0;" glyph-name="Eth" horiz-adv-x="599" d="M384 613T439 574T516 468T537 306Q537 211 516 145T440 39T285 0H82V273H26V337H82V613H285Q384 613 439 574ZM367 38T400 108T434 306Q434 434 401 504T273 575H184V337H335V273H184V38H273Q367
38 400 108Z" />
<glyph unicode="&#xd1;" glyph-name="Ntilde" horiz-adv-x="640" d="M558 0H447L145 512V0H85V613H194L497 102V613H557V1L558 0ZM359 695T339 702T313 711Q300 716 286 720T261 725Q243 725 231 716T211 688L180 699Q188 750 209 774T259 798Q287 798 327 780Q340
775 353 771T378 766Q397 766 409 774T429 800L460 788Q451 739 430 717T381 695Q359 695 339 702Z" />
<glyph unicode="&#xd2;" glyph-name="Ograve" horiz-adv-x="599" d="M172 -12T112 65T51 306Q51 471 111 548T298 625Q426 625 486 548T546 306Q546 143 486 66T298 -12Q172 -12 112 65ZM372 31T408 98T444 306Q444 448 408 515T298 583Q224 583 189 516T153 306Q153
164 188 98T298 31Q372 31 408 98ZM345 664L179 773L241 845L366 687L345 664Z" />
<glyph unicode="&#xd3;" glyph-name="Oacute" horiz-adv-x="599" d="M172 -12T112 65T51 306Q51 471 111 548T298 625Q426 625 486 548T546 306Q546 143 486 66T298 -12Q172 -12 112 65ZM372 31T408 98T444 306Q444 448 408 515T298 583Q224 583 189 516T153 306Q153
164 188 98T298 31Q372 31 408 98ZM361 845L423 773L259 664L238 687L361 845Z" />
<glyph unicode="&#xd4;" glyph-name="Ocircumflex" horiz-adv-x="599" d="M172 -12T112 65T51 306Q51 471 111 548T298 625Q426 625 486 548T546 306Q546 143 486 66T298 -12Q172 -12 112 65ZM372 31T408 98T444 306Q444 448 408 515T298 583Q224 583 189 516T153
306Q153 164 188 98T298 31Q372 31 408 98ZM277 831H322L418 685L392 662L299 749L209 662L181 685L277 831Z" />
<glyph unicode="&#xd5;" glyph-name="Otilde" horiz-adv-x="599" d="M172 -12T112 65T51 306Q51 471 111 548T298 625Q426 625 486 548T546 306Q546 143 486 66T298 -12Q172 -12 112 65ZM372 31T408 98T444 306Q444 448 408 515T298 583Q224 583 189 516T153 306Q153
164 188 98T298 31Q372 31 408 98ZM339 695T319 702T293 711Q280 716 266 720T241 725Q223 725 211 716T191 688L160 699Q168 750 189 774T239 798Q267 798 307 780Q320 775 333 771T358 766Q377 766 389 774T409 800L440 788Q431 739 410 717T361 695Q339 695
319 702Z" />
<glyph unicode="&#xd6;" glyph-name="Odieresis" horiz-adv-x="599" d="M172 -12T112 65T51 306Q51 471 111 548T298 625Q426 625 486 548T546 306Q546 143 486 66T298 -12Q172 -12 112 65ZM372 31T408 98T444 306Q444 448 408 515T298 583Q224 583 189 516T153
306Q153 164 188 98T298 31Q372 31 408 98ZM186 682T170 699T153 738Q153 762 169 779T209 797Q233 797 250 780T268 738Q268 715 251 699T209 682Q186 682 170 699ZM369 682T352 699T334 738Q334 762 351 779T391 797Q415 797 431 780T448 738Q448 715 432 699T391
682Q369 682 352 699Z" />
<glyph unicode="&#xd7;" glyph-name="multiply" horiz-adv-x="487" d="M194 268L84 378L135 427L244 318L355 427L404 378L295 268L404 156L355 108L244 217L135 108L84 156L194 268Z" />
<glyph unicode="&#xd8;" glyph-name="Oslash" horiz-adv-x="599" d="M471 587T508 512T546 306Q546 143 486 66T298 -12Q272 -12 248 -9L239 -47H197L208 0Q128 25 90 100T51 306Q51 471 111 548T298 625Q328 625 351 621L359 658H403L392 612Q471 587 508 512ZM153
208T170 146T221 56L340 576Q317 583 298 583Q224 583 189 516T153 306Q153 208 170 146ZM372 31T408 98T444 306Q444 495 379 554L258 36Q273 31 298 31Q372 31 408 98Z" />
<glyph unicode="&#xd9;" glyph-name="Ugrave" horiz-adv-x="588" d="M519 203Q519 126 487 78T405 9T300 -12Q201 -12 136 37T70 203V613H172V203Q172 117 208 78T307 38Q371 38 415 78T460 203V613H519V203ZM349 664L183 773L245 845L370 687L349 664Z" />
<glyph unicode="&#xda;" glyph-name="Uacute" horiz-adv-x="588" d="M519 203Q519 126 487 78T405 9T300 -12Q201 -12 136 37T70 203V613H172V203Q172 117 208 78T307 38Q371 38 415 78T460 203V613H519V203ZM365 845L427 773L263 664L242 687L365 845Z" />
<glyph unicode="&#xdb;" glyph-name="Ucircumflex" horiz-adv-x="588" d="M519 203Q519 126 487 78T405 9T300 -12Q201 -12 136 37T70 203V613H172V203Q172 117 208 78T307 38Q371 38 415 78T460 203V613H519V203ZM281 831H326L422 685L396 662L303 749L213 662L185
685L281 831Z" />
<glyph unicode="&#xdc;" glyph-name="Udieresis" horiz-adv-x="588" d="M519 203Q519 126 487 78T405 9T300 -12Q201 -12 136 37T70 203V613H172V203Q172 117 208 78T307 38Q371 38 415 78T460 203V613H519V203ZM190 682T174 699T157 738Q157 762 173 779T213
797Q237 797 254 780T272 738Q272 715 255 699T213 682Q190 682 174 699ZM373 682T356 699T338 738Q338 762 355 779T395 797Q419 797 435 780T452 738Q452 715 436 699T395 682Q373 682 356 699Z" />
<glyph unicode="&#xdd;" glyph-name="Yacute" horiz-adv-x="476" d="M289 212L288 211V0H186V212L-3 613H100L257 268L418 613H478L289 212ZM300 845L362 773L198 664L177 687L300 845Z" />
<glyph unicode="&#xde;" glyph-name="Thorn" horiz-adv-x="500" d="M478 498T478 302Q478 215 434 161T284 107H184V0H82V605H184V498H284Q478 498 478 302ZM325 145T350 186T376 302Q376 459 270 459H184V145H270Q325 145 350 186Z" />
<glyph unicode="&#xdf;" glyph-name="germandbls" horiz-adv-x="551" d="M452 321T493 277T535 156Q535 84 494 36T374 -12Q301 -12 263 32T224 164H306Q308 93 321 62T369 30Q406 30 420 65T434 162Q434 234 408 268T326 302H251V340H294Q335 340 357 372T380
449Q380 518 357 552T284 587Q190 587 190 449V0H89V449Q89 538 139 583T284 628Q380 628 430 583T481 461Q481 417 453 381T379 328Q452 321 493 277Z" />
<glyph unicode="&#xe0;" glyph-name="agrave" horiz-adv-x="511" d="M118 -12T83 21T47 113Q47 175 91 210T227 262L338 280V329Q338 442 252 442Q201 442 178 413T152 324L68 333Q74 412 116 452T254 492Q347 492 393 451T439 325V0H375L344 70Q313 30 270 9T179
-12Q118 -12 83 21ZM249 41T282 61T338 108V239L240 220Q190 209 165 185T139 120Q139 84 159 63T215 41Q249 41 282 61ZM305 531L139 640L201 712L326 554L305 531Z" />
<glyph unicode="&#xe1;" glyph-name="aacute" horiz-adv-x="511" d="M118 -12T83 21T47 113Q47 175 91 210T227 262L338 280V329Q338 442 252 442Q201 442 178 413T152 324L68 333Q74 412 116 452T254 492Q347 492 393 451T439 325V0H375L344 70Q313 30 270 9T179
-12Q118 -12 83 21ZM249 41T282 61T338 108V239L240 220Q190 209 165 185T139 120Q139 84 159 63T215 41Q249 41 282 61ZM321 712L383 640L219 531L198 554L321 712Z" />
<glyph unicode="&#xe2;" glyph-name="acircumflex" horiz-adv-x="511" d="M118 -12T83 21T47 113Q47 175 91 210T227 262L338 280V329Q338 442 252 442Q201 442 178 413T152 324L68 333Q74 412 116 452T254 492Q347 492 393 451T439 325V0H375L344 70Q313 30 270
9T179 -12Q118 -12 83 21ZM249 41T282 61T338 108V239L240 220Q190 209 165 185T139 120Q139 84 159 63T215 41Q249 41 282 61ZM237 698H282L378 552L352 529L259 616L169 529L141 552L237 698Z" />
<glyph unicode="&#xe3;" glyph-name="atilde" horiz-adv-x="511" d="M118 -12T83 21T47 113Q47 175 91 210T227 262L338 280V329Q338 442 252 442Q201 442 178 413T152 324L68 333Q74 412 116 452T254 492Q347 492 393 451T439 325V0H375L344 70Q313 30 270 9T179
-12Q118 -12 83 21ZM249 41T282 61T338 108V239L240 220Q190 209 165 185T139 120Q139 84 159 63T215 41Q249 41 282 61ZM300 562T280 569T254 578Q241 583 227 587T202 592Q184 592 172 583T152 555L121 566Q129 617 150 641T200 665Q228 665 268 647Q281 642
294 638T319 633Q338 633 350 641T370 667L401 655Q392 606 371 584T322 562Q300 562 280 569Z" />
<glyph unicode="&#xe4;" glyph-name="adieresis" horiz-adv-x="511" d="M118 -12T83 21T47 113Q47 175 91 210T227 262L338 280V329Q338 442 252 442Q201 442 178 413T152 324L68 333Q74 412 116 452T254 492Q347 492 393 451T439 325V0H375L344 70Q313 30 270
9T179 -12Q118 -12 83 21ZM249 41T282 61T338 108V239L240 220Q190 209 165 185T139 120Q139 84 159 63T215 41Q249 41 282 61ZM147 549T131 566T114 605Q114 629 130 646T170 664Q194 664 211 647T229 605Q229 582 212 566T170 549Q147 549 131 566ZM330 549T313
566T295 605Q295 629 312 646T352 664Q376 664 392 647T409 605Q409 582 393 566T352 549Q330 549 313 566Z" />
<glyph unicode="&#xe5;" glyph-name="aring" horiz-adv-x="511" d="M118 -12T83 21T47 113Q47 175 91 210T227 262L338 280V329Q338 442 252 442Q201 442 178 413T152 324L68 333Q74 412 116 452T254 492Q347 492 393 451T439 325V0H375L344 70Q313 30 270 9T179
-12Q118 -12 83 21ZM249 41T282 61T338 108V239L240 220Q190 209 165 185T139 120Q139 84 159 63T215 41Q249 41 282 61ZM210 525T191 552T171 617Q171 710 263 710Q355 710 355 617Q355 525 263 525Q210 525 191 552ZM285 558T293 576T302 617Q302 676 262 676Q225
676 225 617Q225 594 233 576T262 558Q285 558 293 576Z" />
<glyph unicode="&#xe6;" glyph-name="ae" horiz-adv-x="776" d="M421 234V232Q421 126 446 82T534 38Q636 38 641 143L724 139Q716 69 673 29T531 -12Q399 -12 352 75Q319 32 274 10T179 -12Q118 -12 83 21T47 113Q47 175 91 210T227 262L321 277Q325 328 336
361Q323 442 255 442Q202 442 179 413T152 324L68 333Q74 412 116 452T256 492Q343 492 388 447Q439 492 528 492Q643 492 687 424T731 244V234H421ZM473 442T450 404T422 284H633Q630 362 607 402T527 442Q473 442 450 404ZM249 41T282 61T337 107Q320 157 320
234L240 220Q139 202 139 120Q139 84 159 63T215 41Q249 41 282 61Z" />
<glyph unicode="&#xe7;" glyph-name="ccedilla" horiz-adv-x="484" d="M432 77T391 33T257 -12L246 -46Q290 -51 315 -73T341 -129Q341 -164 319 -187T246 -211Q198 -211 175 -189T151 -129L210 -121Q210 -148 219 -163T245 -178Q273 -178 273 -134Q273 -110 256
-96T194 -74L213 -10Q118 2 82 68T46 240Q46 356 90 424T252 492Q348 492 389 451T437 329L352 318Q350 381 328 411T254 442Q192 442 170 392T147 240Q147 140 169 89T254 38Q305 38 327 69T352 163L438 160Q432 77 391 33Z" />
<glyph unicode="&#xe8;" glyph-name="egrave" horiz-adv-x="502" d="M147 234V232Q147 126 172 82T260 38Q362 38 367 143L450 139Q443 69 399 29T257 -12Q144 -12 95 50T46 240Q46 354 92 423T256 492Q369 492 413 424T457 244V234H147ZM201 442T177 403T148
284H359Q356 362 333 402T254 442Q201 442 177 403ZM293 531L127 640L189 712L314 554L293 531Z" />
<glyph unicode="&#xe9;" glyph-name="eacute" horiz-adv-x="502" d="M147 234V232Q147 126 172 82T260 38Q362 38 367 143L450 139Q443 69 399 29T257 -12Q144 -12 95 50T46 240Q46 354 92 423T256 492Q369 492 413 424T457 244V234H147ZM201 442T177 403T148
284H359Q356 362 333 402T254 442Q201 442 177 403ZM309 712L371 640L207 531L186 554L309 712Z" />
<glyph unicode="&#xea;" glyph-name="ecircumflex" horiz-adv-x="502" d="M147 234V232Q147 126 172 82T260 38Q362 38 367 143L450 139Q443 69 399 29T257 -12Q144 -12 95 50T46 240Q46 354 92 423T256 492Q369 492 413 424T457 244V234H147ZM201 442T177 403T148
284H359Q356 362 333 402T254 442Q201 442 177 403ZM225 698H270L366 552L340 529L247 616L157 529L129 552L225 698Z" />
<glyph unicode="&#xeb;" glyph-name="edieresis" horiz-adv-x="502" d="M147 234V232Q147 126 172 82T260 38Q362 38 367 143L450 139Q443 69 399 29T257 -12Q144 -12 95 50T46 240Q46 354 92 423T256 492Q369 492 413 424T457 244V234H147ZM201 442T177 403T148
284H359Q356 362 333 402T254 442Q201 442 177 403ZM134 549T118 566T101 605Q101 629 117 646T157 664Q181 664 198 647T216 605Q216 582 199 566T157 549Q134 549 118 566ZM317 549T300 566T282 605Q282 629 299 646T339 664Q363 664 379 647T396 605Q396 582
380 566T339 549Q317 549 300 566Z" />
<glyph unicode="&#xec;" glyph-name="igrave" horiz-adv-x="265" d="M183 0H82V480H183V0ZM177 531L11 640L73 712L198 554L177 531Z" />
<glyph unicode="&#xed;" glyph-name="iacute" horiz-adv-x="265" d="M183 0H82V480H183V0ZM193 712L255 640L91 531L70 554L193 712Z" />
<glyph unicode="&#xee;" glyph-name="icircumflex" horiz-adv-x="265" d="M183 0H82V480H183V0ZM365 698H410L506 552L480 529L387 616L297 529L269 552L365 698Z" />
<glyph unicode="&#xef;" glyph-name="idieresis" horiz-adv-x="265" d="M183 0H82V480H183V0ZM274 549T258 566T241 605Q241 629 257 646T297 664Q321 664 338 647T356 605Q356 582 339 566T297 549Q274 549 258 566ZM457 549T440 566T422 605Q422 629 439 646T479
664Q503 664 519 647T536 605Q536 582 520 566T479 549Q457 549 440 566Z" />
<glyph unicode="&#xf0;" glyph-name="eth" horiz-adv-x="531" d="M478 398T478 220Q478 163 457 111T388 23T262 -12Q148 -12 97 52T46 206Q46 296 97 360T262 425Q301 425 335 410T388 361Q367 443 327 508L224 466V533L291 560Q275 580 241 616L286 667Q328
629 359 588L455 627V559L395 535Q478 398 478 220ZM328 30T356 80T384 206Q384 281 357 332T264 384Q201 384 174 334T147 206Q147 131 174 81T264 30Q328 30 356 80Z" />
<glyph unicode="&#xf1;" glyph-name="ntilde" horiz-adv-x="555" d="M483 492T483 339V0H382V331Q382 385 363 410T303 436Q242 436 183 390V0H82V480H126L166 430Q202 458 245 475T329 492Q483 492 483 339ZM315 562T295 569T269 578Q256 583 242 587T217 592Q199
592 187 583T167 555L136 566Q144 617 165 641T215 665Q243 665 283 647Q296 642 309 638T334 633Q353 633 365 641T385 667L416 655Q407 606 386 584T337 562Q315 562 295 569Z" />
<glyph unicode="&#xf2;" glyph-name="ograve" horiz-adv-x="523" d="M141 -12T94 57T46 240Q46 354 93 423T262 492Q382 492 430 423T478 240Q478 -12 262 -12Q141 -12 94 57ZM328 38T352 91T377 240Q377 337 353 389T262 442Q195 442 171 390T147 240Q147 143
171 91T262 38Q328 38 352 91ZM305 531L139 640L201 712L326 554L305 531Z" />
<glyph unicode="&#xf3;" glyph-name="oacute" horiz-adv-x="523" d="M141 -12T94 57T46 240Q46 354 93 423T262 492Q382 492 430 423T478 240Q478 -12 262 -12Q141 -12 94 57ZM328 38T352 91T377 240Q377 337 353 389T262 442Q195 442 171 390T147 240Q147 143
171 91T262 38Q328 38 352 91ZM321 712L383 640L219 531L198 554L321 712Z" />
<glyph unicode="&#xf4;" glyph-name="ocircumflex" horiz-adv-x="523" d="M141 -12T94 57T46 240Q46 354 93 423T262 492Q382 492 430 423T478 240Q478 -12 262 -12Q141 -12 94 57ZM328 38T352 91T377 240Q377 337 353 389T262 442Q195 442 171 390T147 240Q147
143 171 91T262 38Q328 38 352 91ZM237 698H282L378 552L352 529L259 616L169 529L141 552L237 698Z" />
<glyph unicode="&#xf5;" glyph-name="otilde" horiz-adv-x="523" d="M141 -12T94 57T46 240Q46 354 93 423T262 492Q382 492 430 423T478 240Q478 -12 262 -12Q141 -12 94 57ZM328 38T352 91T377 240Q377 337 353 389T262 442Q195 442 171 390T147 240Q147 143
171 91T262 38Q328 38 352 91ZM299 562T279 569T253 578Q240 583 226 587T201 592Q183 592 171 583T151 555L120 566Q128 617 149 641T199 665Q227 665 267 647Q280 642 293 638T318 633Q337 633 349 641T369 667L400 655Q391 606 370 584T321 562Q299 562 279
569Z" />
<glyph unicode="&#xf6;" glyph-name="odieresis" horiz-adv-x="523" d="M141 -12T94 57T46 240Q46 354 93 423T262 492Q382 492 430 423T478 240Q478 -12 262 -12Q141 -12 94 57ZM328 38T352 91T377 240Q377 337 353 389T262 442Q195 442 171 390T147 240Q147
143 171 91T262 38Q328 38 352 91ZM146 549T130 566T113 605Q113 629 129 646T169 664Q193 664 210 647T228 605Q228 582 211 566T169 549Q146 549 130 566ZM329 549T312 566T294 605Q294 629 311 646T351 664Q375 664 391 647T408 605Q408 582 392 566T351 549Q329
549 312 566Z" />
<glyph unicode="&#xf7;" glyph-name="divide" horiz-adv-x="487" d="M211 352T201 368T191 411Q191 438 201 454T242 471Q274 471 284 455T295 411Q295 384 285 368T242 352Q211 352 201 368ZM414 304V233H75V304H414ZM211 56T201 72T191 115Q191 141 201 158T242
175Q274 175 284 158T295 115Q295 88 285 72T242 56Q211 56 201 72Z" />
<glyph unicode="&#xf8;" glyph-name="oslash" horiz-adv-x="523" d="M478 438T478 240Q478 -12 262 -12Q238 -12 215 -9L200 -66H158L176 1Q104 25 75 87T46 240Q46 354 93 423T262 492Q284 492 305 489L320 547H364L346 480Q478 438 478 240ZM147 175T156 131T192
62L291 439Q279 442 262 442Q195 442 171 390T147 240Q147 175 156 131ZM328 38T352 91T377 240Q377 306 367 351T330 419L229 42Q242 38 262 38Q328 38 352 91Z" />
<glyph unicode="&#xf9;" glyph-name="ugrave" horiz-adv-x="556" d="M475 480V0H409L381 60Q314 -12 224 -12Q146 -12 109 28T72 143V480H173V153Q173 41 261 41Q326 41 374 104V480H475ZM324 531L158 640L220 712L345 554L324 531Z" />
<glyph unicode="&#xfa;" glyph-name="uacute" horiz-adv-x="556" d="M475 480V0H409L381 60Q314 -12 224 -12Q146 -12 109 28T72 143V480H173V153Q173 41 261 41Q326 41 374 104V480H475ZM340 712L402 640L238 531L217 554L340 712Z" />
<glyph unicode="&#xfb;" glyph-name="ucircumflex" horiz-adv-x="556" d="M475 480V0H409L381 60Q314 -12 224 -12Q146 -12 109 28T72 143V480H173V153Q173 41 261 41Q326 41 374 104V480H475ZM256 698H301L397 552L371 529L278 616L188 529L160 552L256 698Z" />
<glyph unicode="&#xfc;" glyph-name="udieresis" horiz-adv-x="556" d="M475 480V0H409L381 60Q314 -12 224 -12Q146 -12 109 28T72 143V480H173V153Q173 41 261 41Q326 41 374 104V480H475ZM165 549T149 566T132 605Q132 629 148 646T188 664Q212 664 229 647T247
605Q247 582 230 566T188 549Q165 549 149 566ZM348 549T331 566T313 605Q313 629 330 646T370 664Q394 664 410 647T427 605Q427 582 411 566T370 549Q348 549 331 566Z" />
<glyph unicode="&#xfd;" glyph-name="yacute" horiz-adv-x="460" d="M452 480L207 -203L125 -191L218 -19L10 480H111L264 101L394 480H452ZM309 712L371 640L207 531L186 554L309 712Z" />
<glyph unicode="&#xfe;" glyph-name="thorn" horiz-adv-x="540" d="M409 492T451 423T493 240Q493 127 450 58T298 -12Q241 -12 183 10V-190L82 -203V634L183 647V452Q244 492 303 492Q409 492 451 423ZM338 38T365 91T393 240Q393 327 366 381T277 436Q230 436
183 403V55Q223 38 274 38Q338 38 365 91Z" />
<glyph unicode="&#xff;" glyph-name="ydieresis" horiz-adv-x="460" d="M452 480L207 -203L125 -191L218 -19L10 480H111L264 101L394 480H452ZM134 549T118 566T101 605Q101 629 117 646T157 664Q181 664 198 647T216 605Q216 582 199 566T157 549Q134 549 118
566ZM317 549T300 566T282 605Q282 629 299 646T339 664Q363 664 379 647T396 605Q396 582 380 566T339 549Q317 549 300 566Z" />
<glyph unicode="&#x2013;" glyph-name="endash" horiz-adv-x="478" d="M424 304V233H55V304H424Z" />
<glyph unicode="&#x2014;" glyph-name="emdash" horiz-adv-x="757" d="M704 304V233H55V304H704Z" />
<glyph unicode="&#x2018;" glyph-name="quoteleft" horiz-adv-x="185" d="M66 414T51 431T35 476Q35 527 64 567T134 631L152 608Q137 594 131 579T125 541Q125 530 133 508Q143 482 143 467Q143 445 127 430T89 414Q66 414 51 431Z" />
<glyph unicode="&#x2019;" glyph-name="quoteright" horiz-adv-x="185" d="M120 634T135 617T151 571Q151 521 122 481T52 416L34 439Q49 454 55 469T61 506Q61 519 52 541Q43 568 43 580Q43 602 59 618T97 634Q120 634 135 617Z" />
<glyph unicode="&#x201a;" glyph-name="quotesinglbase" horiz-adv-x="175" d="M109 110T124 93T140 47Q140 -4 111 -44T41 -108L23 -85Q38 -71 44 -56T50 -18Q50 -5 41 17Q32 44 32 56Q32 78 48 94T86 110Q109 110 124 93Z" />
<glyph unicode="&#x201c;" glyph-name="quotedblleft" horiz-adv-x="341" d="M66 414T51 431T35 476Q35 527 64 567T134 631L152 608Q137 594 131 579T125 541Q125 530 133 508Q143 482 143 467Q143 445 127 430T89 414Q66 414 51 431ZM221 414T206 431T190 476Q190
527 219 567T289 631L307 608Q292 594 286 579T280 541Q280 530 288 508Q298 482 298 467Q298 445 282 430T244 414Q221 414 206 431Z" />
<glyph unicode="&#x201d;" glyph-name="quotedblright" horiz-adv-x="341" d="M120 634T135 617T151 571Q151 520 122 480T52 416L34 439Q49 453 55 468T61 506Q61 519 52 541Q43 568 43 580Q43 602 59 618T97 634Q120 634 135 617ZM276 634T291 617T307 571Q307
520 278 480T208 416L190 439Q205 453 211 468T217 506Q217 519 208 541Q199 568 199 580Q199 602 215 618T253 634Q276 634 291 617Z" />
<glyph unicode="&#x201e;" glyph-name="quotedblbase" horiz-adv-x="349" d="M284 110T299 93T315 47Q315 -4 286 -44T216 -108L198 -85Q213 -71 219 -56T225 -18Q225 -5 216 17Q207 44 207 56Q207 78 223 94T261 110Q284 110 299 93ZM109 110T124 93T140 47Q140
-4 111 -44T41 -108L23 -85Q38 -71 44 -56T50 -18Q50 -5 41 17Q32 44 32 56Q32 78 48 94T86 110Q109 110 124 93Z" />
<glyph unicode="&#x2022;" glyph-name="bullet" horiz-adv-x="234" d="M79 215T54 241T28 303Q28 340 53 365T114 390Q151 390 176 365T201 303Q201 267 176 241T114 215Q79 215 54 241Z" />
<glyph unicode="&#x2039;" glyph-name="guilsinglleft" horiz-adv-x="246" d="M213 131L181 100L30 247V284L181 430L213 399L119 265L213 131Z" />
<glyph unicode="&#x203a;" glyph-name="guilsinglright" horiz-adv-x="246" d="M33 399L65 430L216 284V247L65 100L33 131L127 265L33 399Z" />
</font>
</defs>
</svg>
