<?xml version="1.0" standalone="no"?>
<!DOCTYPE svg PUBLIC "-//W3C//DTD SVG 1.1//EN" "http://www.w3.org/Graphics/SVG/1.1/DTD/svg11.dtd">
<svg xmlns="http://www.w3.org/2000/svg">
<defs >
<font id="Exo2" horiz-adv-x="557" ><font-face
    font-family="Exo 2 Medium"
    units-per-em="1000"
    panose-1="0 0 6 0 0 0 0 0 0 0"
    ascent="1001"
    descent="-199"
    alphabetic="0" />
<glyph unicode=" " glyph-name="space" horiz-adv-x="222" />
<glyph unicode="!" glyph-name="exclam" horiz-adv-x="275" d="M199 396L165 213H88L104 396L146 695H242L199 396ZM99 124H124Q162 124 156 87L149 34Q146 0 112 0H87Q49 0 53 37L62 91Q65 124 99 124Z" />
<glyph unicode="&quot;" glyph-name="quotedbl" horiz-adv-x="356" d="M162 474H96L121 690H199L162 474ZM310 474H243L268 690H346L310 474Z" />
<glyph unicode="#" glyph-name="numbersign" horiz-adv-x="686" d="M545 444L491 271H601L580 210H471L405 0H329L395 210H220L154 0H78L144 210H28L48 271H164L218 444H102L123 505H237L295 690H371L313 505H488L546 690H622L564 505H676L655 444H545ZM469 444H294L240
271H415L469 444Z" />
<glyph unicode="$" glyph-name="dollar" horiz-adv-x="565" d="M542 680L531 608Q435 612 382 612L332 386L385 367Q461 340 485 296T499 171Q484 60 428 24T240 -12H238L212 -125H166L192 -11Q99 -7 26 8L39 82Q95 80 149 79T211 77L262 309L199 331Q128 357
103 403T87 526Q95 583 114 619T167 672T238 696T334 702H355L376 798H422L401 700Q479 695 542 680ZM336 613H334Q300 613 285 613T248 608T218 593T200 564T187 516Q181 467 193 449T253 414L290 401L336 613ZM305 294L257 77Q333 79 362 98T399 181Q405 230
392 248T334 283L305 294Z" />
<glyph unicode="%" glyph-name="percent" horiz-adv-x="897" d="M255 703Q348 703 379 655T395 494Q379 383 338 338T209 293Q118 293 87 341T71 502Q87 613 127 658T255 703ZM223 0H148L686 690H761L223 0ZM258 643Q201 643 179 612T144 494Q133 413 145 383T206
353Q265 353 287 384T322 502Q334 582 321 612T258 643ZM700 399Q793 399 824 351T840 191Q824 80 783 35T654 -10Q563 -10 532 38T517 198Q532 309 572 354T700 399ZM703 339Q646 339 624 308T589 191Q578 110 591 80T652 49Q710 49 732 80T767 198Q779 278 766
308T703 339Z" />
<glyph unicode="&amp;" glyph-name="ampersand" horiz-adv-x="747" d="M712 319H611Q596 211 551 139Q458 -10 238 -11Q122 -12 76 32T42 179Q62 347 208 356L209 361Q89 370 114 525Q132 631 193 666T378 701Q463 701 550 679L533 605Q474 618 382 618Q293 618
258 597T212 504Q202 440 225 418T322 395H531Q533 434 533 520H621Q622 460 619 395H723L712 319ZM523 319H312Q232 319 196 292T148 189Q138 124 159 100T249 76Q399 76 470 176Q509 230 523 319Z" />
<glyph unicode="&apos;" glyph-name="quotesingle" horiz-adv-x="209" d="M162 474H96L121 690H199L162 474Z" />
<glyph unicode="(" glyph-name="parenleft" horiz-adv-x="357" d="M384 791L395 744Q291 697 231 592T147 309Q123 141 151 35T269 -121L256 -164Q-1 -63 53 316Q80 510 160 625T384 791Z" />
<glyph unicode=")" glyph-name="parenright" horiz-adv-x="357" d="M94 746L107 789Q238 738 288 620T311 308Q283 115 204 0T-21 -166L-32 -119Q168 -23 217 317Q241 488 212 594T94 746Z" />
<glyph unicode="*" glyph-name="asterisk" horiz-adv-x="448" d="M276 529L361 400L313 366L254 490L161 367L117 401L237 529L251 691H309L276 529ZM224 557L220 532L206 516L84 550L107 603L224 557ZM434 545L307 516L298 532V557L423 603L434 545Z" />
<glyph unicode="+" glyph-name="plus" horiz-adv-x="547" d="M490 263H306L282 89H208L233 263H48L59 335H242L267 510H341L316 335H500L490 263Z" />
<glyph unicode="," glyph-name="comma" horiz-adv-x="231" d="M80 124H108Q145 124 139 87L130 23Q122 -47 71 -136L24 -120Q49 -42 57 2Q42 1 34 9T28 33L36 91Q40 111 49 117T80 124Z" />
<glyph unicode="-" glyph-name="hyphen" horiz-adv-x="440" d="M361 216H58L68 290H371L361 216Z" />
<glyph unicode="." glyph-name="period" horiz-adv-x="229" d="M73 124H105Q142 124 138 87L131 34Q127 0 93 0H61Q22 0 28 37L36 91Q40 124 73 124Z" />
<glyph unicode="/" glyph-name="slash" horiz-adv-x="529" d="M59 -67H-23L476 690H558L59 -67Z" />
<glyph unicode="0" glyph-name="zero" horiz-adv-x="605" d="M354 703Q488 703 533 617T551 341Q525 151 460 69T265 -13Q132 -13 87 72T68 349Q95 540 159 621T354 703ZM352 616Q268 616 227 555T165 341Q143 193 164 134T265 74Q349 74 391 135T455 349Q476
498 454 557T352 616Z" />
<glyph unicode="1" glyph-name="one" horiz-adv-x="399" d="M250 0H150L224 535Q230 576 237 598L65 545L63 620L246 690H347L250 0Z" />
<glyph unicode="2" glyph-name="two" horiz-adv-x="558" d="M109 599V677Q224 702 323 702Q428 702 479 669T521 547Q513 484 480 431T369 302L152 93Q196 97 257 97H482L469 0H12L21 65Q26 95 38 107L262 323Q339 396 377 449T420 549Q425 590 400 602T313 614Q220
614 109 599Z" />
<glyph unicode="3" glyph-name="three" horiz-adv-x="551" d="M116 607L115 685Q226 703 310 703Q424 703 469 663T507 539Q503 499 491 463T451 398T385 364L383 360Q503 340 480 188Q450 -4 215 -13Q128 -16 12 5L25 83Q39 82 90 79T150 75T209 76Q360 87 381
207Q390 261 366 291T270 323L141 326L151 401H276Q347 402 376 434T411 523T394 597T287 615Q216 615 116 607Z" />
<glyph unicode="4" glyph-name="four" horiz-adv-x="614" d="M557 174L466 164L443 0H348L371 164H114Q60 164 38 203T43 286L288 690H388L145 283Q122 245 160 245H382L410 445L444 557H521L477 245H567L557 174Z" />
<glyph unicode="5" glyph-name="five" horiz-adv-x="535" d="M502 604H216L182 432L256 425Q374 415 428 366T470 212Q465 172 452 138T411 69T335 14T219 -12Q120 -17 14 13L31 94Q120 72 197 77Q356 86 373 220Q382 287 346 312T204 344L129 351Q110 352 99
366T91 400L147 690H519L502 604Z" />
<glyph unicode="6" glyph-name="six" horiz-adv-x="571" d="M528 686L516 614Q470 617 383 617Q282 617 241 572T173 378Q250 452 350 452Q443 453 485 401T510 224Q492 103 436 46T253 -12Q158 -12 113 24T59 138T69 341Q82 435 102 499T146 604T206 665T281
694T377 702Q442 702 528 686ZM415 230Q427 310 410 341T324 371Q246 371 159 288Q141 162 160 118T259 74Q338 74 370 111T415 230Z" />
<glyph unicode="7" glyph-name="seven" horiz-adv-x="512" d="M89 690H483Q515 690 526 672T523 624L222 0H122L390 554Q404 584 420 605H81L89 690Z" />
<glyph unicode="8" glyph-name="eight" horiz-adv-x="605" d="M186 359L187 363Q93 374 112 522Q126 619 176 660T353 701Q483 700 525 657T554 514Q534 370 434 359L433 355Q546 343 521 168Q508 71 455 31T264 -11Q137 -12 86 33T47 176Q59 260 90 306T186 359ZM345
620Q264 620 237 597T200 505Q191 439 214 419T321 398Q399 398 426 421T462 512Q472 576 450 598T345 620ZM304 318Q217 317 186 294T144 190Q135 122 160 99T275 75Q358 75 390 101T430 198Q441 272 418 295T304 318Z" />
<glyph unicode="9" glyph-name="nine" horiz-adv-x="570" d="M45 4L59 77Q125 72 200 74Q303 77 344 125T413 316Q373 273 334 256T244 238Q189 238 153 255T99 303T76 376T77 466Q92 594 154 648T334 702Q468 702 507 626T516 349Q499 236 475 166T413 57T327
3T205 -12Q123 -12 45 4ZM264 318Q308 318 343 336T428 403Q448 527 428 572T327 617Q248 617 215 582T170 460Q161 383 181 350T264 318Z" />
<glyph unicode=":" glyph-name="colon" horiz-adv-x="241" d="M117 442H149Q187 442 181 405L174 352Q170 318 137 318H105Q67 318 71 355L79 409Q83 442 117 442ZM72 124H104Q141 124 137 87L129 34Q126 0 92 0H60Q21 0 27 37L35 91Q39 124 72 124Z" />
<glyph unicode=";" glyph-name="semicolon" horiz-adv-x="245" d="M124 442H156Q193 442 189 405L181 352Q178 318 144 318H112Q73 318 79 355L87 409Q90 442 124 442ZM87 124H116Q153 124 147 87L138 23Q130 -47 79 -136L31 -120Q58 -34 65 2Q50 1 42 9T36 33L44
91Q48 111 56 117T87 124Z" />
<glyph unicode="&lt;" glyph-name="less" horiz-adv-x="524" d="M477 427L132 296L439 163L428 89L44 260L55 336L487 507L477 427Z" />
<glyph unicode="=" glyph-name="equal" horiz-adv-x="585" d="M523 363H81L91 435H533L523 363ZM494 152H52L62 224H504L494 152Z" />
<glyph unicode="&gt;" glyph-name="greater" horiz-adv-x="525" d="M482 336L471 260L38 90L49 171L393 303L87 435L97 509L482 336Z" />
<glyph unicode="?" glyph-name="question" horiz-adv-x="500" d="M86 621V691Q93 692 118 696T150 702T179 706T216 709T255 711T309 712Q409 712 458 672T496 553Q491 512 468 478T416 417T356 364T301 297T267 211H185Q191 261 213 304T263 376T318 432T367
486T392 543Q399 594 376 612T287 630Q188 630 86 621ZM199 124H224Q262 124 256 87L249 34Q245 0 212 0H187Q149 0 153 37L162 91Q165 124 199 124Z" />
<glyph unicode="@" glyph-name="at" horiz-adv-x="778" d="M108 567L116 639Q268 646 433 648Q504 649 549 645T631 628T686 593T715 533T724 443T711 317Q695 185 670 116T603 20T491 -8Q383 -8 373 90Q291 -12 182 -12Q97 -12 65 44T54 230Q66 302 85 347T136
415T202 445T290 453Q373 453 515 427L468 120Q462 74 499 74Q554 74 577 126T620 325Q625 363 628 389T632 441T633 482T626 512T614 535T594 550T567 560T531 565T486 567T430 567H108ZM380 177L412 373Q324 375 323 375Q271 375 244 371T196 348T166 303T148
223Q133 129 144 100T203 70Q248 70 288 95T380 177Z" />
<glyph unicode="A" glyph-name="A" horiz-adv-x="623" d="M442 208H166L74 0H-32L278 665Q288 690 317 690H419Q432 690 441 682T452 661L577 0H477L442 208ZM428 296L385 555Q381 575 377 615H347L321 555L205 296H428Z" />
<glyph unicode="B" glyph-name="B" horiz-adv-x="620" d="M42 0L139 690Q220 698 365 698Q492 698 541 658T575 514Q564 439 532 402T437 359L436 354Q574 343 548 168Q532 64 480 28T308 -8Q133 -8 42 0ZM196 396H334Q406 396 437 420T479 510Q488 573 463 593T360
613H226L196 396ZM151 78L293 77Q375 77 408 100T451 193Q461 267 436 292T329 319H185L151 78Z" />
<glyph unicode="C" glyph-name="C" horiz-adv-x="568" d="M494 88L499 11Q416 -12 293 -12Q144 -12 91 73T66 349Q93 545 163 623T383 702Q490 702 574 681L558 605Q479 613 381 613Q314 613 276 591T211 510T170 341Q148 191 175 135T295 77Q407 76 494 88Z" />
<glyph unicode="D" glyph-name="D" horiz-adv-x="663" d="M42 0L139 690Q261 699 364 699Q528 699 584 620T612 341Q601 264 587 209T551 115T504 52T442 14T366 -4T271 -9Q175 -9 42 0ZM228 611L153 80Q239 78 270 78Q351 78 394 98T464 175T508 349Q518 417
519 461T513 537T485 583T437 605T362 612Q350 612 302 612T228 611Z" />
<glyph unicode="E" glyph-name="E" horiz-adv-x="560" d="M551 606H279Q247 606 232 592T212 541L193 401H484L474 324H182L158 146Q154 112 165 98T210 84H477L475 6Q389 -2 198 -2Q118 -2 83 36T56 143L115 570Q123 628 162 660T267 692Q474 692 564 684L551 606Z" />
<glyph unicode="F" glyph-name="F" horiz-adv-x="539" d="M544 606H291Q253 606 237 593T216 541L194 389H477L466 312H184L140 0H40L118 565Q138 692 271 692Q472 692 559 683L544 606Z" />
<glyph unicode="G" glyph-name="G" horiz-adv-x="624" d="M595 681L580 606Q496 614 409 614Q347 614 310 604T243 564T197 481T170 341Q153 193 174 134T268 75Q316 75 355 98T448 174L480 400H576L520 0H448V93Q358 -13 233 -13Q128 -13 87 74T65 349Q79 457
105 527T175 636T271 688T397 703Q510 703 595 681Z" />
<glyph unicode="H" glyph-name="H" horiz-adv-x="668" d="M641 690L544 0H444L490 324H188L143 0H42L139 690H240L200 411H502L541 690H641Z" />
<glyph unicode="I" glyph-name="I" horiz-adv-x="267" d="M143 0H42L139 690H240L143 0Z" />
<glyph unicode="J" glyph-name="J" horiz-adv-x="342" d="M318 690L242 149Q231 71 192 31T89 -9Q28 -9 -10 5L9 76H55Q131 76 142 148L217 690H318Z" />
<glyph unicode="K" glyph-name="K" horiz-adv-x="599" d="M344 360L343 356Q362 332 378 301L543 0H430L258 319H180Q180 278 176 246L142 0H42L139 690H239L208 477Q204 439 193 400H267L506 690H627L393 406Q370 378 344 360Z" />
<glyph unicode="L" glyph-name="L" horiz-adv-x="511" d="M237 690L161 146Q153 84 213 84H459L457 6Q371 -2 192 -2Q122 -2 87 36T62 149L136 690H237Z" />
<glyph unicode="M" glyph-name="M" horiz-adv-x="880" d="M685 690H794Q814 690 824 679T832 647L769 0H670L733 607H714L505 114Q492 82 459 82H372Q337 82 332 118L255 607H235L129 0H29L147 651Q153 690 191 690H298Q330 690 335 654L400 250Q404 227 411 156H429Q437
176 450 209T466 248L639 657Q652 689 685 690Z" />
<glyph unicode="N" glyph-name="N" horiz-adv-x="706" d="M679 690L587 37Q581 0 547 0H460Q432 0 421 33L260 503Q241 557 233 597H218Q217 555 210 503L142 0H42L133 653Q139 690 175 690H260Q287 690 300 657L455 200Q486 101 487 96H504Q507 153 514 200L580
690H679Z" />
<glyph unicode="O" glyph-name="O" horiz-adv-x="667" d="M387 703Q534 703 589 621T616 341Q589 142 519 65T299 -13Q152 -13 96 68T66 349Q92 545 163 624T387 703ZM382 614Q282 614 238 557T170 341Q149 189 176 133T301 76Q399 76 444 134T512 349Q534 504
507 559T382 614Z" />
<glyph unicode="P" glyph-name="P" horiz-adv-x="590" d="M42 0L139 690Q225 699 376 699Q499 699 545 648T575 477Q565 409 548 368T501 303T430 271T327 262Q266 262 180 272L142 0H42ZM191 348H323Q402 348 433 376T476 485Q487 561 464 587T372 613Q267 613
228 612L191 348Z" />
<glyph unicode="Q" glyph-name="Q" horiz-adv-x="667" d="M387 703Q534 703 589 621T616 341Q589 142 519 65T299 -13Q152 -13 96 68T66 349Q92 545 163 624T387 703ZM382 614Q282 614 238 557T170 341Q149 189 176 133T301 76Q399 76 444 134T512 349Q534 504
507 559T382 614ZM203 -102L241 -42Q355 -95 507 -119L467 -218Q323 -183 203 -102Z" />
<glyph unicode="R" glyph-name="R" horiz-adv-x="621" d="M42 0L139 690Q225 699 376 699Q490 699 542 654T580 495Q569 416 533 374T426 323L425 317Q485 300 500 216L544 0H442L401 217Q394 254 377 269T327 284L180 285L140 0H42ZM192 370H330Q403 371 436
398T479 497Q489 564 467 588T373 613Q265 613 226 612L192 370Z" />
<glyph unicode="S" glyph-name="S" horiz-adv-x="562" d="M332 283L197 331Q126 357 100 404T85 526Q93 583 112 619T164 672T235 696T332 702Q452 702 539 680L528 608Q425 613 332 613Q298 613 283 613T246 608T216 593T198 564T185 516Q179 467 191 449T251
414L383 367Q459 340 483 296T497 171Q482 61 426 25T237 -12Q128 -12 24 8L37 82Q193 77 236 77Q324 78 356 96T397 181Q403 230 390 248T332 283Z" />
<glyph unicode="T" glyph-name="T" horiz-adv-x="576" d="M600 601H381L296 0H196L281 601H63L76 690H612L600 601Z" />
<glyph unicode="U" glyph-name="U" horiz-adv-x="664" d="M642 690L581 264Q560 113 495 50T299 -13Q164 -13 109 53T75 269L133 690H234L174 264Q159 158 185 117T296 76Q383 76 425 119T482 269L541 690H642Z" />
<glyph unicode="V" glyph-name="V" horiz-adv-x="609" d="M650 690L350 26Q339 0 312 0H215Q202 0 193 9T182 30L67 690H168L249 151Q258 78 258 75H284Q298 118 314 155L544 690H650Z" />
<glyph unicode="W" glyph-name="W" horiz-adv-x="946" d="M973 690L747 27Q736 0 706 0H597Q583 0 573 9T562 32L531 539Q530 552 528 577T526 616H505L480 535L310 28Q301 0 270 0H162Q147 0 137 9T125 31L83 690H185L209 162Q210 148 210 119T211 74H234Q238
88 263 166L429 659Q439 690 470 690H575Q589 690 598 680T609 655L645 161Q649 103 648 74H672Q683 112 699 164L868 690H973Z" />
<glyph unicode="X" glyph-name="X" horiz-adv-x="613" d="M411 357L551 0H449L328 320H303L95 0H-21L221 357L92 690H194L303 396H329L526 690H636L411 357Z" />
<glyph unicode="Y" glyph-name="Y" horiz-adv-x="571" d="M325 238L292 0H191L226 243L63 690H164L263 405Q277 361 281 325H290Q303 366 330 408L508 690H617L325 238Z" />
<glyph unicode="Z" glyph-name="Z" horiz-adv-x="564" d="M569 690L556 605L127 85H491L479 0H5L17 85L446 605H95L108 690H569Z" />
<glyph unicode="[" glyph-name="bracketleft" horiz-adv-x="328" d="M348 705H254Q247 705 241 700T233 687L124 -88Q122 -102 135 -102H235L226 -165H82Q56 -165 41 -150T30 -105L145 712Q149 738 166 753T209 768H357L348 705Z" />
<glyph unicode="\" glyph-name="backslash" horiz-adv-x="513" d="M441 -67H367L78 690H152L441 -67Z" />
<glyph unicode="]" glyph-name="bracketright" horiz-adv-x="328" d="M104 768H247Q273 768 288 751T300 708L185 -109Q181 -135 164 -150T121 -165H-27L-18 -102H75Q82 -102 88 -97T97 -84L206 691Q208 705 195 705H95L104 768Z" />
<glyph unicode="^" glyph-name="asciicircum" horiz-adv-x="432" d="M424 392L383 369L267 541H259L88 369L51 392L231 605H302L424 392Z" />
<glyph unicode="_" glyph-name="underscore" horiz-adv-x="577" d="M457 -73H18L29 0H468L457 -73Z" />
<glyph unicode="`" glyph-name="grave" horiz-adv-x="321" d="M301 579L267 535L72 657L124 726L301 579Z" />
<glyph unicode="a" glyph-name="a" horiz-adv-x="574" d="M460 0H384L388 90Q300 -12 178 -12Q89 -12 58 46T47 250Q58 331 78 382T131 459T199 492T289 501Q408 501 528 475L460 0ZM387 176L422 418Q330 420 319 420Q267 420 240 415T193 390T163 337T144 243Q130
134 140 103T198 72Q244 72 288 97T387 176Z" />
<glyph unicode="b" glyph-name="b" horiz-adv-x="575" d="M225 700L198 498Q189 432 172 386Q220 434 277 467T384 500Q442 500 473 479T517 399T513 238Q502 156 482 105T430 28T365 -5T280 -13Q158 -13 34 23L129 700H225ZM170 310L137 70Q209 67 244 67Q339
67 369 97T415 245Q429 354 418 385T361 416Q290 416 170 310Z" />
<glyph unicode="c" glyph-name="c" horiz-adv-x="486" d="M410 80L417 14Q342 -12 245 -12Q116 -12 70 48T44 248Q63 388 122 444T307 501Q405 501 467 475L452 415Q392 419 322 419Q234 419 196 384T144 241T155 102T263 69Q348 69 410 80Z" />
<glyph unicode="d" glyph-name="d" horiz-adv-x="574" d="M558 700L460 0H384L389 102Q285 -12 168 -12Q91 -12 59 47T47 250Q59 331 78 382T129 459T194 492T278 501Q353 501 437 488Q437 522 444 581L461 700H558ZM388 178L421 419Q376 421 316 421Q266 421
240 416T193 391T163 338T145 243Q131 139 141 106T196 72T284 96T388 178Z" />
<glyph unicode="e" glyph-name="e" horiz-adv-x="539" d="M443 81L449 16Q378 -12 248 -12Q123 -12 75 53T45 257Q64 398 122 449T315 501Q429 501 470 461T500 343Q488 272 444 241T309 202L140 187Q139 118 169 94T263 69Q331 69 443 81ZM146 259L309 274Q355
277 376 293T403 351Q409 398 388 409T300 420Q224 420 193 389T146 259Z" />
<glyph unicode="f" glyph-name="f" horiz-adv-x="382" d="M440 638H344Q297 638 277 623T249 560L238 488H389L379 413H228L162 -56Q142 -199 3 -199Q-51 -199 -118 -191L-103 -119H-28Q19 -119 39 -104T66 -41L130 413H43L52 483L141 488L153 575Q173 717 313
717Q410 717 456 710L440 638Z" />
<glyph unicode="g" glyph-name="g" horiz-adv-x="576" d="M530 475L464 12Q438 -206 175 -209Q73 -209 13 -190L23 -126Q102 -128 178 -127Q343 -125 366 -8Q383 77 408 114Q367 58 307 23T175 -12Q93 -12 60 46T48 250Q60 332 80 383T132 460T196 493T280 501Q408
501 528 475H530ZM389 176L424 418Q332 420 318 420Q223 420 193 390T146 243Q132 136 142 104T199 72Q246 72 290 97T389 176Z" />
<glyph unicode="h" glyph-name="h" horiz-adv-x="580" d="M227 700L202 508Q192 441 178 388Q306 501 404 501Q466 501 498 466T520 364L468 0H372L419 340Q425 386 416 402T374 419Q333 419 289 394T172 312L129 0H32L131 700H227Z" />
<glyph unicode="i" glyph-name="i" horiz-adv-x="251" d="M157 696H203Q217 696 224 688T229 666L222 610Q218 583 192 583H146Q116 583 119 614L128 670Q130 696 157 696ZM133 0H37L105 488H201L133 0Z" />
<glyph unicode="j" glyph-name="j" horiz-adv-x="251" d="M157 696H203Q217 696 224 688T229 666L222 610Q218 583 192 583H146Q116 583 119 614L128 670Q130 696 157 696ZM201 488L131 -8Q124 -68 92 -119T9 -203L-44 -158Q23 -90 35 -3L105 488H201Z" />
<glyph unicode="k" glyph-name="k" horiz-adv-x="527" d="M406 488H505Q463 357 343 271Q358 248 373 213L468 0H364L270 225Q225 201 154 169L129 0H33L131 700H228L184 372Q175 312 152 252Q247 297 316 357T406 488Z" />
<glyph unicode="l" glyph-name="l" horiz-adv-x="298" d="M228 700L149 139Q144 106 156 93T202 79H248L252 3Q225 -9 159 -9Q101 -9 72 25T50 121L132 700H228Z" />
<glyph unicode="m" glyph-name="m" horiz-adv-x="872" d="M175 488L170 384Q286 501 381 501Q437 501 467 472T496 391Q553 449 601 475T698 501Q762 501 791 465T812 364L761 0H664L712 340Q718 384 705 401T660 419Q625 419 590 397T487 310L443 0H350L397 340Q403
382 392 400T345 419T274 397T172 313L128 0H32L101 488H175Z" />
<glyph unicode="n" glyph-name="n" horiz-adv-x="580" d="M178 488L173 383Q305 501 404 501Q466 501 498 466T520 364L468 0H372L419 340Q425 386 416 402T374 419Q333 419 289 394T172 312L129 0H32L101 488H178Z" />
<glyph unicode="o" glyph-name="o" horiz-adv-x="566" d="M307 501Q433 501 481 441T509 240Q490 102 430 45T247 -13Q122 -13 74 47T44 247Q63 385 122 443T307 501ZM307 419Q230 419 195 382T144 240Q130 139 151 104T247 68Q325 68 360 106T409 247Q424 348
403 383T307 419Z" />
<glyph unicode="p" glyph-name="p" horiz-adv-x="577" d="M178 488L173 384Q220 432 279 466T387 500Q475 500 505 444T515 238Q504 156 484 105T432 29T366 -5T279 -13Q210 -13 125 0Q125 -45 118 -93L101 -200H4L102 488H178ZM174 310L140 68Q187 67 243 67Q295
67 322 72T369 97T399 150T417 245Q431 354 421 385T365 416Q332 416 280 388T174 310Z" />
<glyph unicode="q" glyph-name="q" horiz-adv-x="571" d="M525 465L429 -200H333L361 -13Q370 50 391 103Q286 -12 169 -12Q92 -12 60 46T47 250Q58 331 78 382T129 459T193 492T275 501Q405 501 525 465ZM388 178L421 418Q352 421 313 421T251 417T208 404T178
373T160 322T145 243Q131 138 141 105T198 72Q243 72 284 96T388 178Z" />
<glyph unicode="r" glyph-name="r" horiz-adv-x="401" d="M416 501L392 410H365Q327 410 287 388T172 311L129 0H32L101 488H175L170 376Q292 501 390 501H416Z" />
<glyph unicode="s" glyph-name="s" horiz-adv-x="508" d="M283 182L152 242Q97 268 74 300T58 384Q66 451 115 477T264 501Q377 499 473 484L461 415Q334 419 267 420Q201 420 179 413T152 377Q149 352 161 340T210 312L342 252Q402 224 424 195T439 111Q435 78
422 56T392 20T344 0T284 -9T208 -11Q160 -11 133 -10T72 -4T19 3L30 75Q86 70 183 70Q275 70 307 80T344 120Q345 125 345 130T345 138T342 145T338 151T332 157T325 162T316 167T307 171T296 176T283 182Z" />
<glyph unicode="t" glyph-name="t" horiz-adv-x="385" d="M225 413L186 139Q181 104 192 92T239 79H312L316 4Q272 -9 202 -9Q137 -9 109 27T89 130L129 413H40L49 483L140 488L161 631H256L236 488H386L376 413H225Z" />
<glyph unicode="u" glyph-name="u" horiz-adv-x="569" d="M523 488L455 0H380L386 102Q267 -13 164 -13Q98 -13 68 23T47 123L98 488H195L146 148Q140 105 152 88T198 70Q239 70 278 94T385 178L427 488H523Z" />
<glyph unicode="v" glyph-name="v" horiz-adv-x="536" d="M423 488H523Q496 347 436 208Q394 110 355 57Q334 27 312 14T251 0H168Q141 0 136 26L42 488H143L214 76H229Q249 76 261 82T286 106Q315 144 356 247Q400 353 423 488Z" />
<glyph unicode="w" glyph-name="w" horiz-adv-x="857" d="M208 76H222Q251 76 271 114Q294 157 320 247Q343 331 363 464Q366 488 390 488H496Q517 488 520 466L565 76H577Q598 76 618 108Q658 170 685 247Q723 351 743 488H844Q812 336 759 208Q713 100 676 53Q636
0 584 0H520Q508 0 500 7T490 26L448 425H435Q427 335 398 223Q371 133 337 71Q298 0 218 0H163Q137 0 132 26L42 488H143L208 76Z" />
<glyph unicode="x" glyph-name="x" horiz-adv-x="531" d="M347 252L470 0H373L271 216H249L86 0H-22L174 253L60 488H157L247 291H274L423 488H528L347 252Z" />
<glyph unicode="y" glyph-name="y" horiz-adv-x="545" d="M430 488H531Q477 250 390 85Q312 -63 236 -125T53 -205L35 -136Q99 -121 147 -91T239 0H194Q171 0 155 12T135 47L41 488H143L217 93Q220 76 237 76H286Q290 83 297 96T306 114Q394 297 430 488Z" />
<glyph unicode="z" glyph-name="z" horiz-adv-x="508" d="M475 409L127 79H432L421 0H6L16 79L364 409H67L78 488H485L475 409Z" />
<glyph unicode="{" glyph-name="braceleft" horiz-adv-x="322" d="M345 768L342 707Q292 707 269 688T239 624L215 451Q207 387 186 362T107 327Q159 310 175 284T184 205L152 -26Q145 -71 160 -87T226 -104L222 -165Q130 -172 90 -137T60 -29L95 224Q100 259
90 270T42 295L51 363Q81 371 91 376T109 395T122 441L149 636Q159 710 204 743T345 768Z" />
<glyph unicode="|" glyph-name="bar" horiz-adv-x="247" d="M93 -169H24L157 781H227L93 -169Z" />
<glyph unicode="}" glyph-name="braceright" horiz-adv-x="323" d="M102 707L105 768Q199 777 238 740T268 632L241 436Q235 393 242 383T290 361L281 293Q258 285 250 282T231 270T215 250T207 219L171 -33Q161 -107 117 -140T-25 -165L-21 -104Q29 -104 51 -86T80
-22L113 209Q121 263 143 287T225 329Q174 339 158 366T151 455L176 628Q182 673 167 690T102 707Z" />
<glyph unicode="~" glyph-name="asciitilde" horiz-adv-x="520" d="M113 223L63 227Q64 290 89 321T153 351T259 323T350 294Q377 291 389 304T406 348L454 344Q454 283 429 252T366 223Q322 225 255 251T168 279Q141 282 129 269T113 223Z" />
<glyph unicode="&#xa0;" glyph-name="uni00A0" horiz-adv-x="222" />
<glyph unicode="&#xa1;" glyph-name="exclamdown" horiz-adv-x="260" d="M145 496H170Q208 496 201 458L194 405Q190 371 157 371H132Q95 371 99 408L106 462Q112 496 145 496ZM151 100L110 -194H14L55 100L91 283H167L151 100Z" />
<glyph unicode="&#xa2;" glyph-name="cent" horiz-adv-x="505" d="M481 578L467 518Q419 522 361 522L282 172Q374 175 424 183L431 117Q356 91 261 91L240 0H194L216 93Q113 102 77 162T58 351Q78 491 137 547T321 604H335L356 690H402L380 601Q444 594 481 578ZM236
174L314 522Q240 519 206 482T159 344Q147 251 164 216T236 174Z" />
<glyph unicode="&#xa3;" glyph-name="sterling" horiz-adv-x="570" d="M553 692L541 612Q466 615 369 615Q309 615 283 594T252 516L243 393H448L437 335H238L233 265Q227 196 205 155T135 80Q156 86 202 86H493L481 0H17L29 86Q123 128 135 268L140 335H62L70
393H145L156 522Q161 579 176 615T221 670T283 695T367 702Q450 702 553 692Z" />
<glyph unicode="&#xa4;" glyph-name="currency" horiz-adv-x="595" d="M561 537L483 468Q511 417 502 348Q493 277 453 228L522 152L477 111L409 189Q355 155 284 155Q214 155 166 192L89 123L49 169L127 239Q101 287 108 356Q119 430 159 478L92 554L137 596L205
518Q255 550 325 550Q397 550 444 514L521 583L561 537ZM285 210Q351 209 394 249T444 357Q451 420 419 457T324 495Q258 495 216 456T166 348Q159 285 191 248T285 210Z" />
<glyph unicode="&#xa5;" glyph-name="yen" horiz-adv-x="618" d="M403 326H534L526 269H366L348 242L344 213H518L510 156H336L315 0H214L236 156H66L73 213H244L249 247L241 269H82L89 326H220L85 690H187L285 409Q300 368 304 329H313Q326 370 353 412L530 690H640L403
326Z" />
<glyph unicode="&#xa6;" glyph-name="brokenbar" horiz-adv-x="248" d="M171 381H101L157 781H227L171 381ZM94 -169H24L80 231H150L94 -169Z" />
<glyph unicode="&#xa7;" glyph-name="section" horiz-adv-x="545" d="M335 320L180 417Q132 447 111 481T99 575Q110 651 159 677T312 703Q440 701 532 691L520 615Q453 620 338 621Q266 622 237 612T201 565Q196 535 208 517T248 481L396 391Q461 351 472 294T450
154H380Q395 217 386 255T335 320ZM88 380H158Q143 318 151 282T202 220L358 123Q405 95 426 60T440 -36Q428 -116 378 -140T225 -165Q97 -163 6 -153L18 -77Q109 -83 201 -84Q235 -84 254 -83T294 -76T324 -58T337 -25Q342 5 330 24T290 60L145 147Q79 185 67
241T88 380Z" />
<glyph unicode="&#xa8;" glyph-name="dieresis" horiz-adv-x="413" d="M341 697H370Q386 697 391 691T394 670L385 616Q384 590 357 590H325Q298 590 301 615L309 670Q313 697 341 697ZM173 697H202Q218 697 223 691T227 670L218 616Q215 590 189 590H157Q130
590 133 615L142 670Q146 697 173 697Z" />
<glyph unicode="&#xa9;" glyph-name="copyright" horiz-adv-x="830" d="M299 703T460 703T711 602T782 341Q762 186 653 87T382 -13Q220 -13 132 89T63 349Q83 502 191 602ZM464 654Q324 654 228 566T115 341T173 120T381 36Q520 36 616 124T730 349Q747 482 674
568T464 654ZM542 200L546 145Q485 129 411 129Q293 129 255 177T233 351Q249 473 299 519T463 565Q527 565 588 551L578 497Q515 500 470 500Q385 500 353 471T307 343Q295 257 314 226T399 194Q493 194 542 200Z" />
<glyph unicode="&#xaa;" glyph-name="ordfeminine" horiz-adv-x="447" d="M371 272H312V325Q256 265 173 265Q114 265 89 305T77 441Q84 497 99 532T137 583T183 604T241 609Q332 609 415 590L371 272ZM337 547L267 548Q201 548 181 530T151 436Q143 366 150 348T188
330Q241 330 315 393L337 547Z" />
<glyph unicode="&#xab;" glyph-name="guillemotleft" horiz-adv-x="482" d="M262 425L114 251L220 70L172 38L35 245L37 267L223 460L262 425ZM448 425L300 251L406 70L358 38L221 245L223 267L409 460L448 425Z" />
<glyph unicode="&#xac;" glyph-name="logicalnot" horiz-adv-x="586" d="M517 334L489 133H415L433 261H65L75 334H517Z" />
<glyph unicode="&#xad;" glyph-name="softhyphen" horiz-adv-x="440" d="M360 216H57L67 290H370L360 216Z" />
<glyph unicode="&#xae;" glyph-name="registered" horiz-adv-x="550" d="M320 702Q417 702 475 643T522 476Q512 374 448 316T284 257Q180 257 124 320T78 484Q89 584 154 643T320 702ZM491 484Q498 573 452 622T319 672Q229 672 175 619T111 480Q102 388 150
338T284 287Q373 287 428 340T491 484ZM183 354L218 608Q254 611 328 611Q376 611 400 596T419 533Q416 507 403 493T361 471L360 469Q375 463 385 432L404 354H358L340 433Q333 458 307 458H241L227 354H183ZM246 490H307Q342 491 356 499T375 536Q378 562 368
569T325 577L258 576L246 490Z" />
<glyph unicode="&#xaf;" glyph-name="overscore" horiz-adv-x="400" d="M392 606H109L119 677H402L392 606Z" />
<glyph unicode="&#xb0;" glyph-name="degree" horiz-adv-x="360" d="M227 703Q288 703 321 665T350 571Q344 515 306 481T210 446Q149 446 117 485T89 579T132 668T227 703ZM225 646Q193 646 173 627T149 577Q146 544 164 524T214 504T266 523T289 574Q291 606
275 626T225 646Z" />
<glyph unicode="&#xb1;" glyph-name="plusminus" horiz-adv-x="583" d="M527 397L517 325H333L314 194H241L259 325H75L85 397H269L287 528H362L343 397H527ZM48 137H491L481 65H38L48 137Z" />
<glyph unicode="&#xb2;" glyph-name="twosuperior" horiz-adv-x="406" d="M126 708V767Q197 781 262 781T361 761T389 685Q384 648 365 617T298 544L169 427Q193 432 233 432H367L356 360H68L74 408Q78 432 86 439L217 557Q310 639 314 684Q316 704 302 710T253
716Q189 716 126 708Z" />
<glyph unicode="&#xb3;" glyph-name="threesuperior" horiz-adv-x="390" d="M128 713V771Q203 782 253 782Q388 782 378 683Q375 645 357 612T304 577V575Q377 562 363 472Q344 356 194 352Q144 351 67 363L75 421Q91 421 116 420T153 418T190 418Q278 424 290
487Q296 517 281 532T226 548H145L152 606H230Q272 606 288 622T308 670Q311 699 298 708T236 717Q192 717 128 713Z" />
<glyph unicode="&#xb4;" glyph-name="acute" horiz-adv-x="321" d="M342 652L129 535L101 580L297 727L342 652Z" />
<glyph unicode="&#xb6;" glyph-name="paragraph" horiz-adv-x="589" d="M455 0H382L471 637Q424 640 384 640L265 -210H192L250 201Q132 213 86 273T57 456Q76 593 152 647T392 702Q484 702 551 685L455 0Z" />
<glyph unicode="&#xb7;" glyph-name="middot" horiz-adv-x="239" d="M105 320H137Q175 320 169 283L162 229Q158 196 125 196H93Q55 196 59 233L68 287Q71 320 105 320Z" />
<glyph unicode="&#xb8;" glyph-name="cedilla" horiz-adv-x="236" d="M33 -87L44 -42Q111 -36 137 -50T155 -111Q145 -175 93 -208T-32 -231L-14 -180Q23 -181 51 -162T86 -111Q89 -97 80 -93T33 -87Z" />
<glyph unicode="&#xb9;" glyph-name="onesuperior" horiz-adv-x="286" d="M224 360H149L193 665Q196 689 201 707L93 677L92 733L207 774H282L224 360Z" />
<glyph unicode="&#xba;" glyph-name="ordmasculine" horiz-adv-x="440" d="M257 609Q349 609 383 569T403 432Q390 340 349 303T220 265Q130 265 96 305T74 440Q87 534 127 571T257 609ZM257 549Q201 549 180 525T148 432Q140 368 155 347T222 325Q273 325 296
349T329 440Q337 505 323 527T257 549Z" />
<glyph unicode="&#xbb;" glyph-name="guillemotright" horiz-adv-x="484" d="M22 70L171 244L64 425L112 457L249 250L247 228L61 35L22 70ZM208 70L356 244L250 425L298 457L435 250L433 228L247 35L208 70Z" />
<glyph unicode="&#xbc;" glyph-name="onequarter" horiz-adv-x="863" d="M144 276L187 583Q191 609 196 625L83 595L82 648L203 690H278L220 276H144ZM702 690L164 0H94L632 690H702ZM801 101L748 95L734 0H664L676 94H490Q462 94 450 113T455 164L614 414H688L537
172Q527 153 548 153H684L700 268L723 334H781L756 153H809L801 101Z" />
<glyph unicode="&#xbd;" glyph-name="onehalf" horiz-adv-x="882" d="M220 276H144L187 583Q191 609 196 625L83 595L82 648L203 690H278L220 276ZM156 0H86L624 690H694L156 0ZM542 350L541 407Q612 421 682 421Q765 421 800 401T826 320Q817 259 729 182L585
65Q615 69 652 67H807L798 0H482L489 44Q491 65 502 76L642 194Q735 271 744 320Q748 343 733 350T679 357Q611 357 542 350Z" />
<glyph unicode="&#xbe;" glyph-name="threequarters" horiz-adv-x="958" d="M300 495L294 492Q340 485 356 459T368 384Q360 321 323 294T204 266Q139 266 53 277L59 333Q124 329 184 329Q239 329 263 345T293 402Q297 431 284 446T222 461H134L142 518H225Q271
518 289 536T311 584Q315 614 301 623T238 633Q164 633 114 630L113 685Q182 695 247 695Q333 695 363 673T386 595Q380 551 362 526T300 495ZM804 690L266 0H196L734 690H804ZM894 101L840 95L827 0H756L769 94H584Q556 94 544 113T549 164L708 414H782L631 172Q621
153 642 153H777L792 268L815 334H874L848 153H902L894 101Z" />
<glyph unicode="&#xbf;" glyph-name="questiondown" horiz-adv-x="493" d="M272 501H296Q334 501 330 464L322 410Q318 376 284 376H260Q222 376 228 414L235 468Q240 501 272 501ZM216 287H297Q291 236 269 194T220 122T165 68T116 14T90 -43Q82 -88 107 -108T195
-129Q306 -129 396 -120V-189Q389 -190 372 -193T348 -198T326 -201T302 -205T277 -207T247 -209T214 -210T173 -211Q72 -211 25 -168T-13 -52Q-8 -12 15 23T68 84T128 138T183 204T216 287Z" />
<glyph unicode="&#xc0;" glyph-name="Agrave" horiz-adv-x="623" d="M398 726L203 848L255 917L432 770L398 726ZM442 208H166L74 0H-32L278 665Q288 690 317 690H419Q432 690 441 682T452 661L577 0H477L442 208ZM428 296L385 555Q381 575 377 615H347L321 555L205
296H428Z" />
<glyph unicode="&#xc1;" glyph-name="Aacute" horiz-adv-x="623" d="M341 726L313 771L509 918L554 843L341 726ZM442 208H166L74 0H-32L278 665Q288 690 317 690H419Q432 690 441 682T452 661L577 0H477L442 208ZM428 296L385 555Q381 575 377 615H347L321 555L205
296H428Z" />
<glyph unicode="&#xc2;" glyph-name="Acircumflex" horiz-adv-x="623" d="M243 728L216 770L364 899H432L557 764L521 726L401 827H393L243 728ZM442 208H166L74 0H-32L278 665Q288 690 317 690H419Q432 690 441 682T452 661L577 0H477L442 208ZM428 296L385 555Q381
575 377 615H347L321 555L205 296H428Z" />
<glyph unicode="&#xc3;" glyph-name="Atilde" horiz-adv-x="623" d="M513 879L557 876Q556 818 532 788T468 760T385 788T323 815Q295 818 282 805T265 761L221 765Q222 825 248 855T311 883Q345 880 387 856T454 829Q482 826 495 838T513 879ZM442 208H166L74
0H-32L278 665Q288 690 317 690H419Q432 690 441 682T452 661L577 0H477L442 208ZM428 296L385 555Q381 575 377 615H347L321 555L205 296H428Z" />
<glyph unicode="&#xc4;" glyph-name="Adieresis" horiz-adv-x="623" d="M315 765H282Q257 765 258 790L267 846Q272 873 298 873H327Q356 873 352 846L343 791Q340 765 315 765ZM482 765H450Q423 765 426 790L435 846Q438 873 466 873H495Q523 873 520 846L511
791Q508 765 482 765ZM442 208H166L74 0H-32L278 665Q288 690 317 690H419Q432 690 441 682T452 661L577 0H477L442 208ZM428 296L385 555Q381 575 377 615H347L321 555L205 296H428Z" />
<glyph unicode="&#xc5;" glyph-name="Aring" horiz-adv-x="623" d="M384 714Q334 714 306 745T282 824Q287 868 317 897T394 927Q444 927 474 896T498 816Q492 773 462 744T384 714ZM334 821Q331 793 346 778T385 762Q410 762 426 779T446 822Q448 847 434 863T395
879T353 863T334 821ZM442 208H166L74 0H-32L278 665Q288 690 317 690H419Q432 690 441 682T452 661L577 0H477L442 208ZM428 296L385 555Q381 575 377 615H347L321 555L205 296H428Z" />
<glyph unicode="&#xc6;" glyph-name="AE" horiz-adv-x="914" d="M905 606H652Q589 606 579 540L560 402H838L828 323H549L525 147Q520 112 532 98T577 84H833L828 6Q726 -2 559 -2Q491 -2 456 36T430 143L440 215H213L62 0H-45L368 579Q414 645 466 668T617 691Q813
691 919 684L905 606ZM452 301L488 554Q493 601 526 624H521Q489 605 457 561L274 301H452Z" />
<glyph unicode="&#xc7;" glyph-name="Ccedilla" horiz-adv-x="568" d="M494 88L499 11Q416 -12 293 -12Q144 -12 91 73T66 349Q93 545 163 623T383 702Q490 702 574 681L558 605Q479 613 381 613Q314 613 276 591T211 510T170 341Q148 191 175 135T295 77Q407
76 494 88ZM212 -99L224 -54Q290 -48 316 -62T335 -123Q325 -187 273 -220T147 -243L165 -192Q203 -193 231 -174T266 -123Q268 -109 259 -105T212 -99Z" />
<glyph unicode="&#xc8;" glyph-name="Egrave" horiz-adv-x="560" d="M394 746L199 868L251 937L428 790L394 746ZM551 606H279Q247 606 232 592T212 541L193 401H484L474 324H182L158 146Q154 112 165 98T210 84H477L475 6Q389 -2 198 -2Q118 -2 83 36T56 143L115
570Q123 628 162 660T267 692Q474 692 564 684L551 606Z" />
<glyph unicode="&#xc9;" glyph-name="Eacute" horiz-adv-x="560" d="M337 746L309 791L505 938L550 863L337 746ZM551 606H279Q247 606 232 592T212 541L193 401H484L474 324H182L158 146Q154 112 165 98T210 84H477L475 6Q389 -2 198 -2Q118 -2 83 36T56 143L115
570Q123 628 162 660T267 692Q474 692 564 684L551 606Z" />
<glyph unicode="&#xca;" glyph-name="Ecircumflex" horiz-adv-x="560" d="M239 748L212 790L359 919H428L552 784L517 746L397 847H389L239 748ZM551 606H279Q247 606 232 592T212 541L193 401H484L474 324H182L158 146Q154 112 165 98T210 84H477L475 6Q389 -2
198 -2Q118 -2 83 36T56 143L115 570Q123 628 162 660T267 692Q474 692 564 684L551 606Z" />
<glyph unicode="&#xcb;" glyph-name="Edieresis" horiz-adv-x="560" d="M311 785H278Q251 785 254 810L263 866Q267 892 294 892H323Q339 892 344 886T348 866L339 811Q336 785 311 785ZM478 785H446Q419 785 422 810L431 866Q434 892 462 892H491Q507 892 512
886T515 866L507 811Q504 785 478 785ZM551 606H279Q247 606 232 592T212 541L193 401H484L474 324H182L158 146Q154 112 165 98T210 84H477L475 6Q389 -2 198 -2Q118 -2 83 36T56 143L115 570Q123 628 162 660T267 692Q474 692 564 684L551 606Z" />
<glyph unicode="&#xcc;" glyph-name="Igrave" horiz-adv-x="267" d="M250 770L216 726L21 848L73 917L250 770ZM143 0H42L139 690H240L143 0Z" />
<glyph unicode="&#xcd;" glyph-name="Iacute" horiz-adv-x="267" d="M373 843L160 726L131 771L327 918L373 843ZM143 0H42L139 690H240L143 0Z" />
<glyph unicode="&#xce;" glyph-name="Icircumflex" horiz-adv-x="267" d="M375 764L339 726L219 827H211L62 728L34 770L182 899H250L375 764ZM143 0H42L139 690H240L143 0Z" />
<glyph unicode="&#xcf;" glyph-name="Idieresis" horiz-adv-x="267" d="M117 873H146Q162 873 167 867T170 846L161 791Q160 765 133 765H101Q74 765 77 790L86 846Q89 873 117 873ZM284 873H313Q342 873 338 846L329 791Q326 765 300 765H268Q241 765 244 790L253
846Q258 873 284 873ZM143 0H42L139 690H240L143 0Z" />
<glyph unicode="&#xd0;" glyph-name="Eth" horiz-adv-x="663" d="M97 393L139 690Q261 699 364 699Q528 699 584 620T612 341Q601 264 587 209T551 115T504 52T442 14T366 -4T271 -9Q175 -9 42 0L90 338H27L34 393H97ZM189 338L153 80Q239 78 270 78Q351 78 394
98T464 175T508 349Q518 417 519 461T513 537T485 583T437 605T362 612Q350 612 302 612T228 611L197 393H346L339 338H189Z" />
<glyph unicode="&#xd1;" glyph-name="Ntilde" horiz-adv-x="706" d="M310 761L266 765Q267 825 293 855T356 883Q390 880 432 856T499 829Q527 826 540 838T558 879L602 876Q601 818 577 788T513 760T430 788T368 815Q340 818 327 805T310 761ZM679 690L587 37Q581
0 547 0H460Q432 0 421 33L260 503Q241 557 233 597H218Q217 555 210 503L142 0H42L133 653Q139 690 175 690H260Q287 690 300 657L455 200Q486 101 487 96H504Q507 153 514 200L580 690H679Z" />
<glyph unicode="&#xd2;" glyph-name="Ograve" horiz-adv-x="667" d="M450 770L416 726L221 848L273 917L450 770ZM387 703Q534 703 589 621T616 341Q589 142 519 65T299 -13Q152 -13 96 68T66 349Q92 545 163 624T387 703ZM382 614Q282 614 238 557T170 341Q149
189 176 133T301 76Q399 76 444 134T512 349Q534 504 507 559T382 614Z" />
<glyph unicode="&#xd3;" glyph-name="Oacute" horiz-adv-x="667" d="M573 843L360 726L331 771L527 918L573 843ZM387 703Q534 703 589 621T616 341Q589 142 519 65T299 -13Q152 -13 96 68T66 349Q92 545 163 624T387 703ZM382 614Q282 614 238 557T170 341Q149
189 176 133T301 76Q399 76 444 134T512 349Q534 504 507 559T382 614Z" />
<glyph unicode="&#xd4;" glyph-name="Ocircumflex" horiz-adv-x="667" d="M575 764L539 726L419 827H411L262 728L234 770L382 899H450L575 764ZM387 703Q534 703 589 621T616 341Q589 142 519 65T299 -13Q152 -13 96 68T66 349Q92 545 163 624T387 703ZM382 614Q282
614 238 557T170 341Q149 189 176 133T301 76Q399 76 444 134T512 349Q534 504 507 559T382 614Z" />
<glyph unicode="&#xd5;" glyph-name="Otilde" horiz-adv-x="667" d="M283 761L239 765Q241 825 266 855T329 883Q364 880 406 856T472 829Q501 826 514 838T532 879L576 876Q575 818 550 788T486 760T403 788T342 815Q314 818 301 805T283 761ZM387 703Q534 703
589 621T616 341Q589 142 519 65T299 -13Q152 -13 96 68T66 349Q92 545 163 624T387 703ZM382 614Q282 614 238 557T170 341Q149 189 176 133T301 76Q399 76 444 134T512 349Q534 504 507 559T382 614Z" />
<glyph unicode="&#xd6;" glyph-name="Odieresis" horiz-adv-x="667" d="M484 873H513Q542 873 538 846L529 791Q526 765 500 765H468Q441 765 444 790L453 846Q458 873 484 873ZM317 873H346Q362 873 367 867T370 846L362 791Q359 765 333 765H301Q274 765 277
790L286 846Q289 873 317 873ZM387 703Q534 703 589 621T616 341Q589 142 519 65T299 -13Q152 -13 96 68T66 349Q92 545 163 624T387 703ZM382 614Q282 614 238 557T170 341Q149 189 176 133T301 76Q399 76 444 134T512 349Q534 504 507 559T382 614Z" />
<glyph unicode="&#xd7;" glyph-name="multiply" horiz-adv-x="524" d="M317 283L441 154L389 101L258 237L83 98L40 160L205 291L79 422L133 475L264 338L444 481L487 419L317 283Z" />
<glyph unicode="&#xd8;" glyph-name="Oslash" horiz-adv-x="667" d="M605 728L560 654Q649 575 616 341Q589 142 519 65T299 -13Q219 -13 168 9L125 -61L80 -34L123 37Q33 115 66 349Q92 545 163 624T387 703Q463 703 514 682L559 755L605 728ZM179 129L465 600Q436
614 382 614Q282 614 238 557T170 341Q147 184 179 129ZM505 563L218 91Q250 76 301 76Q399 76 444 134T512 349Q534 509 505 563Z" />
<glyph unicode="&#xd9;" glyph-name="Ugrave" horiz-adv-x="664" d="M449 770L415 726L220 848L272 917L449 770ZM642 690L581 264Q560 113 495 50T299 -13Q164 -13 109 53T75 269L133 690H234L174 264Q159 158 185 117T296 76Q383 76 425 119T482 269L541 690H642Z" />
<glyph unicode="&#xda;" glyph-name="Uacute" horiz-adv-x="664" d="M572 843L359 726L330 771L526 918L572 843ZM642 690L581 264Q560 113 495 50T299 -13Q164 -13 109 53T75 269L133 690H234L174 264Q159 158 185 117T296 76Q383 76 425 119T482 269L541 690H642Z" />
<glyph unicode="&#xdb;" glyph-name="Ucircumflex" horiz-adv-x="664" d="M574 764L538 726L418 827H410L261 728L233 770L381 899H449L574 764ZM642 690L581 264Q560 113 495 50T299 -13Q164 -13 109 53T75 269L133 690H234L174 264Q159 158 185 117T296 76Q383
76 425 119T482 269L541 690H642Z" />
<glyph unicode="&#xdc;" glyph-name="Udieresis" horiz-adv-x="664" d="M316 873H345Q374 873 369 846L361 791Q358 765 332 765H300Q273 765 276 790L285 846Q288 873 316 873ZM483 873H512Q542 873 537 846L528 791Q525 765 499 765H467Q440 765 443 790L452
846Q456 873 483 873ZM642 690L581 264Q560 113 495 50T299 -13Q164 -13 109 53T75 269L133 690H234L174 264Q159 158 185 117T296 76Q383 76 425 119T482 269L541 690H642Z" />
<glyph unicode="&#xdd;" glyph-name="Yacute" horiz-adv-x="571" d="M308 726L279 771L475 918L521 843L308 726ZM325 238L292 0H191L226 243L63 690H164L263 405Q277 361 281 325H290Q303 366 330 408L508 690H617L325 238Z" />
<glyph unicode="&#xde;" glyph-name="Thorn" horiz-adv-x="591" d="M239 690L222 568Q259 570 357 570Q477 570 525 521T556 345T485 174T317 128Q238 128 161 137L142 0H42L139 690H239ZM172 214H305Q381 215 413 243T457 352Q467 432 447 458T354 484Q249 484
210 483L172 214Z" />
<glyph unicode="&#xdf;" glyph-name="germandbls" horiz-adv-x="677" d="M460 306L552 247Q596 218 612 191T622 112Q612 39 566 14T426 -11Q353 -11 266 0L278 74Q342 70 407 70Q468 70 494 80T524 125Q527 150 517 163T477 195L381 256Q307 304 317 370Q320
392 329 409T359 443T396 470T445 499Q486 524 503 543T523 586Q527 616 504 630T404 644Q320 644 287 622T245 533L162 -56Q151 -129 111 -164T-3 -199Q-53 -199 -118 -191L-103 -119H-28Q19 -119 39 -104T66 -41L131 413H42L52 482L141 488L150 547Q156 592 170
624T204 675T255 705T318 719T397 723Q529 723 578 692T617 585Q611 546 590 516T515 454Q507 449 487 438T459 422T438 407T419 388T410 367Q408 355 414 344T429 327T460 306Z" />
<glyph unicode="&#xe0;" glyph-name="agrave" horiz-adv-x="574" d="M343 547L148 669L200 737L377 590L343 547ZM460 0H384L388 90Q300 -12 178 -12Q89 -12 58 46T47 250Q58 331 78 382T131 459T199 492T289 501Q408 501 528 475L460 0ZM387 176L422 418Q330
420 319 420Q267 420 240 415T193 390T163 337T144 243Q130 134 140 103T198 72Q244 72 288 97T387 176Z" />
<glyph unicode="&#xe1;" glyph-name="aacute" horiz-adv-x="574" d="M287 547L258 592L454 738L500 664L287 547ZM460 0H384L388 90Q300 -12 178 -12Q89 -12 58 46T47 250Q58 331 78 382T131 459T199 492T289 501Q408 501 528 475L460 0ZM387 176L422 418Q330
420 319 420Q267 420 240 415T193 390T163 337T144 243Q130 134 140 103T198 72Q244 72 288 97T387 176Z" />
<glyph unicode="&#xe2;" glyph-name="acircumflex" horiz-adv-x="574" d="M189 549L161 591L309 720H378L502 584L466 546L346 647H338L189 549ZM460 0H384L388 90Q300 -12 178 -12Q89 -12 58 46T47 250Q58 331 78 382T131 459T199 492T289 501Q408 501 528 475L460
0ZM387 176L422 418Q330 420 319 420Q267 420 240 415T193 390T163 337T144 243Q130 134 140 103T198 72Q244 72 288 97T387 176Z" />
<glyph unicode="&#xe3;" glyph-name="atilde" horiz-adv-x="574" d="M459 700L503 696Q502 638 477 608T414 581Q374 584 330 608T269 636Q241 639 228 626T210 582L166 586Q168 646 193 676T256 703Q291 700 333 677T400 650Q428 646 441 658T459 700ZM460 0H384L388
90Q300 -12 178 -12Q89 -12 58 46T47 250Q58 331 78 382T131 459T199 492T289 501Q408 501 528 475L460 0ZM387 176L422 418Q330 420 319 420Q267 420 240 415T193 390T163 337T144 243Q130 134 140 103T198 72Q244 72 288 97T387 176Z" />
<glyph unicode="&#xe4;" glyph-name="adieresis" horiz-adv-x="574" d="M260 586H228Q201 586 204 611L213 666Q216 693 244 693H273Q289 693 294 687T298 666L289 612Q286 586 260 586ZM427 586H395Q368 586 371 611L380 666Q384 693 411 693H440Q456 693 461
687T465 666L456 612Q453 586 427 586ZM460 0H384L388 90Q300 -12 178 -12Q89 -12 58 46T47 250Q58 331 78 382T131 459T199 492T289 501Q408 501 528 475L460 0ZM387 176L422 418Q330 420 319 420Q267 420 240 415T193 390T163 337T144 243Q130 134 140 103T198
72Q244 72 288 97T387 176Z" />
<glyph unicode="&#xe5;" glyph-name="aring" horiz-adv-x="574" d="M330 534Q280 534 251 565T227 644Q232 688 262 718T340 748Q389 748 419 717T443 637Q438 593 408 564T330 534ZM279 641Q276 614 291 599T331 583T372 599T391 643Q393 668 380 683T341 699Q315
699 299 683T279 641ZM460 0H384L388 90Q300 -12 178 -12Q89 -12 58 46T47 250Q58 331 78 382T131 459T199 492T289 501Q408 501 528 475L460 0ZM387 176L422 418Q330 420 319 420Q267 420 240 415T193 390T163 337T144 243Q130 134 140 103T198 72Q244 72 288
97T387 176Z" />
<glyph unicode="&#xe6;" glyph-name="ae" horiz-adv-x="874" d="M774 81L780 16Q712 -12 583 -12Q426 -12 389 93Q300 -12 176 -12Q88 -12 57 47T47 250Q58 332 78 383T131 459T198 493T288 501Q392 501 505 479Q561 501 651 501Q765 501 805 461T835 343Q824
272 780 241T645 202L475 187Q475 118 504 94T598 69Q666 69 774 81ZM196 72Q241 72 283 95T376 167Q374 213 381 257Q394 360 430 417Q406 417 368 418T318 420Q223 420 193 390T147 243Q132 135 142 104T196 72ZM482 259L644 274Q690 277 711 293T739 351Q745
398 724 409T636 420Q559 420 528 389T482 259Z" />
<glyph unicode="&#xe7;" glyph-name="ccedilla" horiz-adv-x="486" d="M410 80L417 14Q342 -12 245 -12Q116 -12 70 48T44 248Q63 388 122 444T307 501Q405 501 467 475L452 415Q392 419 322 419Q234 419 196 384T144 241T155 102T263 69Q348 69 410 80ZM166 -99L177
-54Q244 -48 270 -62T288 -123Q278 -187 226 -220T100 -243L118 -192Q156 -193 184 -174T219 -123Q222 -109 213 -105T166 -99Z" />
<glyph unicode="&#xe8;" glyph-name="egrave" horiz-adv-x="539" d="M338 547L143 669L195 737L372 590L338 547ZM443 81L449 16Q378 -12 248 -12Q123 -12 75 53T45 257Q64 398 122 449T315 501Q429 501 470 461T500 343Q488 272 444 241T309 202L140 187Q139
118 169 94T263 69Q331 69 443 81ZM146 259L309 274Q355 277 376 293T403 351Q409 398 388 409T300 420Q224 420 193 389T146 259Z" />
<glyph unicode="&#xe9;" glyph-name="eacute" horiz-adv-x="539" d="M281 547L252 592L448 738L494 664L281 547ZM443 81L449 16Q378 -12 248 -12Q123 -12 75 53T45 257Q64 398 122 449T315 501Q429 501 470 461T500 343Q488 272 444 241T309 202L140 187Q139
118 169 94T263 69Q331 69 443 81ZM146 259L309 274Q355 277 376 293T403 351Q409 398 388 409T300 420Q224 420 193 389T146 259Z" />
<glyph unicode="&#xea;" glyph-name="ecircumflex" horiz-adv-x="539" d="M183 549L156 591L303 720H372L496 584L461 546L340 647H332L183 549ZM443 81L449 16Q378 -12 248 -12Q123 -12 75 53T45 257Q64 398 122 449T315 501Q429 501 470 461T500 343Q488 272
444 241T309 202L140 187Q139 118 169 94T263 69Q331 69 443 81ZM146 259L309 274Q355 277 376 293T403 351Q409 398 388 409T300 420Q224 420 193 389T146 259Z" />
<glyph unicode="&#xeb;" glyph-name="edieresis" horiz-adv-x="539" d="M254 586H222Q195 586 198 611L207 666Q211 693 238 693H267Q283 693 288 687T292 666L283 612Q280 586 254 586ZM422 586H389Q363 586 366 611L374 666Q378 693 406 693H435Q451 693 456
687T459 666L450 612Q449 586 422 586ZM443 81L449 16Q378 -12 248 -12Q123 -12 75 53T45 257Q64 398 122 449T315 501Q429 501 470 461T500 343Q488 272 444 241T309 202L140 187Q139 118 169 94T263 69Q331 69 443 81ZM146 259L309 274Q355 277 376 293T403 351Q409
398 388 409T300 420Q224 420 193 389T146 259Z" />
<glyph unicode="&#xec;" glyph-name="igrave" horiz-adv-x="252" d="M218 590L184 547L-11 669L41 737L218 590ZM133 0H36L105 488H202L133 0Z" />
<glyph unicode="&#xed;" glyph-name="iacute" horiz-adv-x="252" d="M341 664L128 547L99 592L295 738L341 664ZM133 0H36L105 488H202L133 0Z" />
<glyph unicode="&#xee;" glyph-name="icircumflex" horiz-adv-x="252" d="M343 584L307 546L187 647H179L30 549L2 591L150 720H218L343 584ZM133 0H36L105 488H202L133 0Z" />
<glyph unicode="&#xef;" glyph-name="idieresis" horiz-adv-x="252" d="M252 693H281Q297 693 302 687T306 666L297 612Q294 586 268 586H236Q209 586 212 611L221 666Q225 693 252 693ZM85 693H114Q130 693 135 687T138 666L129 612Q128 586 101 586H69Q42 586
45 611L54 666Q57 693 85 693ZM133 0H36L105 488H202L133 0Z" />
<glyph unicode="&#xf0;" glyph-name="eth" d="M495 673L423 622Q528 519 497 280Q478 132 419 60T231 -13Q116 -13 71 44T41 222Q70 449 266 449Q353 449 405 399Q404 518 353 572L267 512L241 549L314 602Q264 630 167 628L182 698Q307 703 385 653L468 712L495
673ZM236 68Q312 68 347 119T398 291Q402 322 403 334Q355 367 289 367Q220 367 187 330T141 215Q130 135 152 102T236 68Z" />
<glyph unicode="&#xf1;" glyph-name="ntilde" horiz-adv-x="580" d="M467 700L511 696Q510 638 486 608T422 581T339 608T277 636Q250 639 237 626T219 582L175 586Q176 646 202 676T265 703Q299 700 341 677T408 650Q436 646 449 658T467 700ZM178 488L173 383Q305
501 404 501Q466 501 498 466T520 364L468 0H372L419 340Q425 386 416 402T374 419Q333 419 289 394T172 312L129 0H32L101 488H178Z" />
<glyph unicode="&#xf2;" glyph-name="ograve" horiz-adv-x="566" d="M373 590L339 547L144 669L196 737L373 590ZM307 501Q433 501 481 441T509 240Q490 102 430 45T247 -13Q122 -13 74 47T44 247Q63 385 122 443T307 501ZM307 419Q230 419 195 382T144 240Q130
139 151 104T247 68Q325 68 360 106T409 247Q424 348 403 383T307 419Z" />
<glyph unicode="&#xf3;" glyph-name="oacute" horiz-adv-x="566" d="M496 664L283 547L254 592L450 738L496 664ZM307 501Q433 501 481 441T509 240Q490 102 430 45T247 -13Q122 -13 74 47T44 247Q63 385 122 443T307 501ZM307 419Q230 419 195 382T144 240Q130
139 151 104T247 68Q325 68 360 106T409 247Q424 348 403 383T307 419Z" />
<glyph unicode="&#xf4;" glyph-name="ocircumflex" horiz-adv-x="566" d="M498 584L462 546L342 647H334L185 549L157 591L305 720H373L498 584ZM307 501Q433 501 481 441T509 240Q490 102 430 45T247 -13Q122 -13 74 47T44 247Q63 385 122 443T307 501ZM307 419Q230
419 195 382T144 240Q130 139 151 104T247 68Q325 68 360 106T409 247Q424 348 403 383T307 419Z" />
<glyph unicode="&#xf5;" glyph-name="otilde" horiz-adv-x="566" d="M206 582L162 586Q164 646 189 676T252 703Q287 700 329 677T395 650Q424 646 437 658T455 700L499 696Q498 638 473 608T409 581T326 608T265 636Q237 639 224 626T206 582ZM307 501Q433 501
481 441T509 240Q490 102 430 45T247 -13Q122 -13 74 47T44 247Q63 385 122 443T307 501ZM307 419Q230 419 195 382T144 240Q130 139 151 104T247 68Q325 68 360 106T409 247Q424 348 403 383T307 419Z" />
<glyph unicode="&#xf6;" glyph-name="odieresis" horiz-adv-x="566" d="M407 693H436Q452 693 457 687T461 666L452 612Q449 586 423 586H391Q364 586 367 611L376 666Q380 693 407 693ZM240 693H269Q285 693 290 687T293 666L285 612Q282 586 256 586H224Q197
586 200 611L209 666Q212 693 240 693ZM307 501Q433 501 481 441T509 240Q490 102 430 45T247 -13Q122 -13 74 47T44 247Q63 385 122 443T307 501ZM307 419Q230 419 195 382T144 240Q130 139 151 104T247 68Q325 68 360 106T409 247Q424 348 403 383T307 419Z"
/>
<glyph unicode="&#xf7;" glyph-name="divide" horiz-adv-x="563" d="M299 529H324Q362 529 356 492L350 445Q346 413 313 413H288Q249 413 255 449L261 495Q265 529 299 529ZM498 259H55L66 331H508L498 259ZM248 176H273Q313 176 307 138L300 92Q296 59 262 59H237Q200
59 206 97L212 142Q216 176 248 176Z" />
<glyph unicode="&#xf8;" glyph-name="oslash" horiz-adv-x="566" d="M492 543L448 470Q534 416 509 240Q490 102 430 45T247 -13Q198 -13 160 -4L115 -78L74 -54L114 13Q18 66 44 247Q63 385 122 443T307 501Q362 501 403 489L450 568L492 543ZM162 91L357 414Q341
419 307 419Q230 419 195 382T144 240Q128 124 162 91ZM399 389L206 71Q224 68 247 68Q325 68 360 106T409 247Q425 355 399 389Z" />
<glyph unicode="&#xf9;" glyph-name="ugrave" horiz-adv-x="569" d="M345 551L150 673L202 742L379 595L345 551ZM523 488L455 0H380L386 102Q267 -13 164 -13Q98 -13 68 23T47 123L98 488H195L146 148Q140 105 152 88T198 70Q239 70 278 94T385 178L427 488H523Z" />
<glyph unicode="&#xfa;" glyph-name="uacute" horiz-adv-x="569" d="M288 551L260 596L456 743L501 668L288 551ZM523 488L455 0H380L386 102Q267 -13 164 -13Q98 -13 68 23T47 123L98 488H195L146 148Q140 105 152 88T198 70Q239 70 278 94T385 178L427 488H523Z" />
<glyph unicode="&#xfb;" glyph-name="ucircumflex" horiz-adv-x="569" d="M190 553L163 595L310 724H379L503 589L468 551L348 652H340L190 553ZM523 488L455 0H380L386 102Q267 -13 164 -13Q98 -13 68 23T47 123L98 488H195L146 148Q140 105 152 88T198 70Q239
70 278 94T385 178L427 488H523Z" />
<glyph unicode="&#xfc;" glyph-name="udieresis" horiz-adv-x="569" d="M261 590H229Q202 590 205 615L214 671Q218 698 245 698H274Q304 698 299 671L290 616Q287 590 261 590ZM429 590H397Q370 590 373 615L382 671Q385 698 413 698H442Q458 698 463 692T466
671L458 616Q455 590 429 590ZM523 488L455 0H380L386 102Q267 -13 164 -13Q98 -13 68 23T47 123L98 488H195L146 148Q140 105 152 88T198 70Q239 70 278 94T385 178L427 488H523Z" />
<glyph unicode="&#xfd;" glyph-name="yacute" horiz-adv-x="545" d="M256 547L228 592L424 738L469 664L256 547ZM430 488H531Q477 250 390 85Q312 -63 236 -125T53 -205L35 -136Q99 -121 147 -91T239 0H194Q171 0 155 12T135 47L41 488H143L217 93Q220 76 237
76H286Q290 83 297 96T306 114Q394 297 430 488Z" />
<glyph unicode="&#xfe;" glyph-name="thorn" horiz-adv-x="574" d="M182 415L184 409Q273 500 386 500Q469 500 502 443T514 238Q503 156 483 105T431 29T365 -5T278 -13Q215 -13 128 -1Q125 -32 119 -69L101 -199H5L131 700H227L203 527Q194 458 182 415ZM172
310L139 70Q233 68 242 68Q338 68 368 98T414 245Q429 354 419 385T364 416Q317 416 273 390T172 310Z" />
<glyph unicode="&#xff;" glyph-name="ydieresis" horiz-adv-x="545" d="M230 586H197Q172 586 173 611L182 666Q186 693 213 693H242Q258 693 263 687T267 666L258 612Q255 586 230 586ZM397 586H365Q338 586 341 611L350 666Q353 693 381 693H410Q426 693 431
687T435 666L426 612Q423 586 397 586ZM430 488H531Q477 250 390 85Q312 -63 236 -125T53 -205L35 -136Q99 -121 147 -91T239 0H194Q171 0 155 12T135 47L41 488H143L217 93Q220 76 237 76H286Q290 83 297 96T306 114Q394 297 430 488Z" />
<glyph unicode="&#x2013;" glyph-name="endash" horiz-adv-x="585" d="M505 216H58L68 290H515L505 216Z" />
<glyph unicode="&#x2014;" glyph-name="emdash" horiz-adv-x="888" d="M808 216H58L68 290H818L808 216Z" />
<glyph unicode="&#x2018;" glyph-name="quoteleft" horiz-adv-x="221" d="M151 484H123Q85 484 92 518L100 577Q109 643 160 724L207 709Q179 628 173 597Q206 599 203 568L194 515Q190 497 182 491T151 484Z" />
<glyph unicode="&#x2019;" glyph-name="quoteright" horiz-adv-x="219" d="M155 715H184Q221 715 214 680L206 621Q196 553 146 475L99 490Q127 571 133 602Q118 601 110 609T103 630L112 684Q116 702 124 708T155 715Z" />
<glyph unicode="&#x201a;" glyph-name="quotesinglbase" horiz-adv-x="232" d="M79 114H108Q145 114 138 79L130 20Q120 -48 70 -126L23 -111Q51 -30 57 1Q41 0 33 8T27 29L35 83Q40 101 48 107T79 114Z" />
<glyph unicode="&#x201c;" glyph-name="quotedblleft" horiz-adv-x="381" d="M151 484H123Q85 484 92 518L100 577Q109 643 160 724L207 709Q179 628 173 597Q206 599 203 568L194 515Q190 497 182 491T151 484ZM311 484H283Q246 484 252 518L260 577Q269 643
320 724L367 709Q339 628 333 597Q366 599 363 568L355 515Q350 497 342 491T311 484Z" />
<glyph unicode="&#x201d;" glyph-name="quotedblright" horiz-adv-x="379" d="M155 715H184Q221 715 214 680L206 621Q196 553 146 475L99 490Q127 571 133 602Q118 601 110 609T103 630L112 684Q116 702 124 708T155 715ZM315 715H344Q381 715 374 680L366 621Q356
554 307 475L259 490Q287 571 293 602Q278 601 270 609T264 630L272 684Q276 702 284 708T315 715Z" />
<glyph unicode="&#x201e;" glyph-name="quotedblbase" horiz-adv-x="392" d="M79 113H107Q144 113 138 79L130 19Q121 -46 70 -127L23 -112Q51 -31 57 0Q41 -1 33 7T27 28L35 82Q40 100 48 106T79 113ZM239 113H267Q304 113 298 79L290 19Q281 -46 230 -127L183
-112Q211 -31 217 0Q201 -1 193 7T187 28L195 82Q200 100 208 106T239 113Z" />
<glyph unicode="&#x2022;" glyph-name="bullet" horiz-adv-x="363" d="M184 362H197Q245 362 262 342T273 274L271 260Q264 209 244 191T175 173H162Q111 173 94 193T83 265L85 278Q92 327 112 344T184 362Z" />
<glyph unicode="&#x2039;" glyph-name="guilsinglleft" horiz-adv-x="296" d="M262 425L114 251L220 70L172 38L35 245L37 267L223 460L262 425Z" />
<glyph unicode="&#x203a;" glyph-name="guilsinglright" horiz-adv-x="297" d="M249 253L247 231L61 38L22 74L171 248L65 428L112 460L249 253Z" />
</font>
</defs>
</svg>
