<?xml version="1.0" standalone="no"?>
<!DOCTYPE svg PUBLIC "-//W3C//DTD SVG 1.1//EN" "http://www.w3.org/Graphics/SVG/1.1/DTD/svg11.dtd">
<svg xmlns="http://www.w3.org/2000/svg">
<defs >
<font id="SignikaNegative" horiz-adv-x="419" ><font-face
    font-family="Signika Negative Light"
    units-per-em="1000"
    panose-1="2 1 0 3 2 6 0 0 0 4"
    ascent="940"
    descent="-292"
    alphabetic="0" />
<glyph unicode=" " glyph-name="space" horiz-adv-x="220" />
<glyph unicode="!" glyph-name="exclam" horiz-adv-x="274" d="M109 185L104 668Q131 689 177 689L182 684L164 185Q153 181 137 181T109 185ZM109 90T137 90T182 80Q189 68 189 42T182 3Q165 -7 137 -7T92 3Q85 15 85 41T92 80Q109 90 137 90Z" />
<glyph unicode="&quot;" glyph-name="quotedbl" horiz-adv-x="348" d="M205 689T205 700T211 733Q229 743 252 743T292 733Q298 712 298 701T294 666Q281 602 271 518Q262 514 252 514T232 518Q226 581 216 635ZM50 689T50 700T56 733Q74 743 97 743T137 733Q143
712 143 701T138 666Q126 602 116 518Q107 514 98 514T77 518Q71 581 61 635Z" />
<glyph unicode="#" glyph-name="numbersign" horiz-adv-x="597" d="M402 475L437 631Q453 636 469 636T502 631L467 475H568Q574 460 574 445T568 414H453L412 231H524Q528 219 528 200T524 170H399L364 14Q353 9 332 9T299 14L334 170H204L169 14Q158 9 137 9T104
14L139 170H31Q26 181 26 200T31 231H152L193 414H75Q70 429 70 444T75 475H207L242 631Q258 636 274 636T307 631L272 475H402ZM258 414L217 231H347L388 414H258Z" />
<glyph unicode="$" glyph-name="dollar" horiz-adv-x="493" d="M40 101Q42 135 71 157Q166 100 254 100Q305 100 339 122T374 180T349 243T282 285L179 322Q63 365 63 457Q63 512 101 552T206 603V687Q217 690 237 690T269 687V605Q346 600 424 563Q424 530 398
507Q320 545 257 545T163 523T132 467T151 416T215 384L316 348Q372 328 408 289T444 197Q444 128 398 85T265 40V-38Q249 -40 233 -40T202 -38V43Q107 55 40 101Z" />
<glyph unicode="%" glyph-name="percent" horiz-adv-x="852" d="M755 342Q802 295 802 187T755 28Q715 -12 654 -12T552 28Q505 78 505 186T552 342Q589 382 653 382T755 342ZM569 332T569 185T653 38T738 185T654 332ZM346 607T346 498T303 345T198 301T94 345T50
498T97 655Q134 695 198 695T299 655Q346 607 346 498ZM114 645T114 498T199 351Q282 351 282 498T199 645Q114 645 114 498ZM204 0L580 683Q590 688 613 688T648 683L272 0Q262 -5 238 -5T204 0Z" />
<glyph unicode="&amp;" glyph-name="ampersand" horiz-adv-x="600" d="M476 146L482 0Q468 -3 448 -3T415 0L409 39Q332 -12 244 -12T106 40T57 180Q57 246 96 297T190 366Q145 382 115 424T85 519Q85 593 139 644T288 695T453 668Q453 632 434 610Q349 635 289
635T194 602T160 515T194 428T299 395H477Q540 395 565 407Q575 396 575 373T559 342T512 334H475L476 271V146ZM407 270Q407 311 408 334H291Q210 334 171 287T132 179T165 84T248 48T340 63T407 100V270Z" />
<glyph unicode="&apos;" glyph-name="quotesingle" horiz-adv-x="190" d="M45 689T45 700T51 733Q69 743 92 743T132 733Q138 712 138 701T134 666Q121 602 111 518Q102 514 92 514T72 518Q66 581 56 635Z" />
<glyph unicode="(" glyph-name="parenleft" horiz-adv-x="303" d="M142 596T142 326T290 -128Q276 -159 247 -168Q163 -84 114 53T65 326T114 598T247 820Q276 811 290 780Q142 596 142 326Z" />
<glyph unicode=")" glyph-name="parenright" horiz-adv-x="303" d="M161 56T161 326T13 780Q27 812 56 820Q140 736 189 599T238 326T189 54T56 -168Q27 -160 13 -128Q161 56 161 326Z" />
<glyph unicode="*" glyph-name="asterisk" horiz-adv-x="494" d="M50 565Q50 568 50 575T56 599T72 628L119 614Q147 605 226 563Q212 628 212 675Q212 678 212 681L213 731Q226 737 246 737T280 731L281 681Q281 678 281 657T267 563Q332 602 375 614L423 627Q432
618 438 599T443 564L397 548Q365 537 279 525Q336 474 361 437L388 396Q381 384 365 373T334 358L305 397Q282 427 247 501Q214 427 189 397L159 358Q145 361 129 372T104 397L132 437Q156 471 214 524Q140 532 97 548L50 565Z" />
<glyph unicode="+" glyph-name="plus" horiz-adv-x="530" d="M232 321L231 357V506Q244 509 265 509T299 506V357Q299 357 298 321L334 322H471Q474 308 474 289T471 257H334L298 258L299 223V74Q287 71 266 71T231 74V223L232 258L196 257H59Q56 270 56 289T59
322H196L232 321Z" />
<glyph unicode="," glyph-name="comma" horiz-adv-x="251" d="M178 88Q188 70 188 21T156 -77T61 -148Q52 -144 46 -133T41 -110Q76 -93 96 -67T117 -9Q90 -4 79 4Q71 18 71 47T79 88Q99 98 132 98T178 88Z" />
<glyph unicode="-" glyph-name="hyphen" horiz-adv-x="332" d="M279 232H53Q50 245 50 264T53 297H279Q282 284 282 265T279 232Z" />
<glyph unicode="." glyph-name="period" horiz-adv-x="247" d="M74 3Q66 16 66 46T74 88Q92 98 124 98T173 88Q181 77 181 47T173 3Q159 -7 126 -7T74 3Z" />
<glyph unicode="/" glyph-name="slash" horiz-adv-x="403" d="M11 -82L328 757Q361 755 389 734L72 -105Q41 -105 11 -82Z" />
<glyph unicode="0" glyph-name="zero" horiz-adv-x="530" d="M56 217T56 324T72 497T131 607Q182 660 264 660T399 607Q441 562 457 497T474 324T458 152T399 41Q346 -12 265 -12T131 41Q88 86 72 151ZM131 424T131 324T142 167T184 78T265 45T346 77T387 167T399
324T388 481T346 570T265 603T184 571T143 481Z" />
<glyph unicode="1" glyph-name="one" horiz-adv-x="530" d="M259 58L258 121V413Q258 426 260 474T262 539Q205 464 109 420Q87 435 79 463Q147 504 195 555T261 648Q274 652 292 652T326 648V121L325 58L378 59H456Q459 44 459 30T456 0H108Q105 16 105 30T108
59H206L259 58Z" />
<glyph unicode="2" glyph-name="two" horiz-adv-x="530" d="M466 63Q466 46 465 36Q460 0 416 0H98Q64 28 64 46Q64 132 197 245L287 322Q334 362 356 399T378 487T346 570T266 602T181 575T122 502Q85 506 72 530Q98 585 148 622T275 660T401 611T451 483Q451
407 410 354Q389 326 372 310T323 266L242 197Q141 108 134 58Q189 63 251 63H466Z" />
<glyph unicode="3" glyph-name="three" horiz-adv-x="530" d="M426 565L302 430Q287 412 260 392Q266 393 276 393Q356 393 410 346T464 199T398 44T246 -12Q131 -12 56 49Q63 79 89 98Q161 46 232 46T346 87T390 200T356 306T269 342T184 322Q160 334 152 360L299
522Q339 565 367 590L364 593Q332 586 237 586H81Q78 598 78 613T84 648H425Q442 616 442 599T426 565Z" />
<glyph unicode="4" glyph-name="four" horiz-adv-x="530" d="M372 155L373 114V0Q360 -3 339 -3T306 0V114L307 155L267 154H67Q50 180 50 193T72 255L246 653Q253 655 262 655Q292 655 312 642L164 306Q132 235 121 214L123 211Q160 213 226 213H307L306 254V363Q306
386 317 399T347 412H370L373 409V253L372 213L411 214H482Q484 203 484 185T479 154H411L372 155Z" />
<glyph unicode="5" glyph-name="five" horiz-adv-x="530" d="M431 648Q436 633 436 620Q436 586 403 586H224Q183 586 165 587V520L161 435Q159 409 157 399Q212 429 269 429Q357 429 411 375T465 215T402 49T241 -12T69 48Q72 76 100 96Q173 46 240 46T349 89T391
217T350 336T246 371T122 319Q103 320 89 341L102 642L108 648H431Z" />
<glyph unicode="6" glyph-name="six" horiz-adv-x="530" d="M477 117T421 53T276 -12Q169 -12 116 71Q81 125 72 192T62 333Q62 484 125 572T309 660Q393 660 442 630Q438 595 413 579Q363 602 311 602Q223 602 180 535T135 362Q201 431 289 431T427 376T477 219ZM277
369Q241 369 202 349T135 294V277Q135 232 146 177T184 88Q220 45 277 45T369 89T403 210Q403 369 277 369Z" />
<glyph unicode="7" glyph-name="seven" horiz-adv-x="530" d="M76 648H462Q476 622 476 606T463 569L433 524Q347 395 302 286T241 29L238 0Q225 -4 201 -4T165 0L169 37Q195 276 346 504L356 519Q381 558 407 589L404 592Q376 586 242 586H73Q70 598 70 613T76 648Z" />
<glyph unicode="8" glyph-name="eight" horiz-adv-x="530" d="M56 162Q56 220 91 267T179 340Q75 390 75 492Q75 566 129 613T265 660T400 615T454 498Q454 448 427 409T355 346Q409 319 440 274T472 167Q472 86 411 37T259 -12T112 34T56 162ZM250 316L239 319Q187
298 158 257T128 161T166 75T262 42T359 76T400 170T357 265T250 316ZM283 369L295 367Q336 387 359 420T383 500T349 576T264 606T180 575T146 494Q146 402 283 369Z" />
<glyph unicode="9" glyph-name="nine" horiz-adv-x="530" d="M53 531T109 595T254 660Q361 660 414 577Q449 523 458 456T468 315Q468 164 405 76T221 -12Q137 -12 88 18Q92 53 117 69Q167 46 219 46Q307 46 350 112T395 286Q328 217 240 217T103 272T53 429ZM253
279Q289 279 328 299T395 353V371Q395 416 384 471T346 560Q310 603 253 603T161 559T127 438Q127 279 253 279Z" />
<glyph unicode=":" glyph-name="colon" horiz-adv-x="251" d="M76 3Q68 16 68 46T76 88Q94 98 126 98T175 88Q183 77 183 47T175 3Q161 -7 128 -7T76 3ZM76 346Q68 359 68 389T76 431Q94 441 126 441T175 431Q183 420 183 390T175 346Q161 336 128 336T76 346Z" />
<glyph unicode=";" glyph-name="semicolon" horiz-adv-x="255" d="M176 88Q186 70 186 21T154 -77T59 -148Q50 -144 44 -133T39 -110Q74 -93 94 -67T115 -9Q88 -4 77 4Q69 18 69 47T77 88Q97 98 130 98T176 88ZM78 346Q70 359 70 389T78 431Q96 441 128 441T177
431Q185 420 185 390T177 346Q163 336 130 336T78 346Z" />
<glyph unicode="&lt;" glyph-name="less" horiz-adv-x="530" d="M55 318L434 525Q463 504 467 470L193 325L128 292V286L193 253L467 108Q463 74 434 53L55 259Q50 276 50 291T55 318Z" />
<glyph unicode="=" glyph-name="equal" horiz-adv-x="530" d="M471 175H59Q56 188 56 206T59 240H471Q474 225 474 207T471 175ZM471 343H59Q56 357 56 375T59 408H471Q474 393 474 375T471 343Z" />
<glyph unicode="&gt;" glyph-name="greater" horiz-adv-x="530" d="M475 260L96 54Q67 75 63 109L337 254L402 287V293L337 326L63 471Q67 505 96 526L475 319Q480 302 480 287T475 260Z" />
<glyph unicode="?" glyph-name="question" horiz-adv-x="379" d="M17 648Q107 694 190 694T321 650T369 531Q369 416 239 340L175 303L168 185Q157 181 141 181T114 185L110 334L116 342L161 366Q295 438 295 525Q295 573 265 602T178 631T43 593Q20 616 17 648ZM114
90T142 90T187 80Q194 68 194 42T187 3Q170 -7 142 -7T97 3Q90 15 90 41T97 80Q114 90 142 90Z" />
<glyph unicode="@" glyph-name="at" horiz-adv-x="928" d="M641 413L640 153Q640 108 652 89T692 70Q741 70 776 124T812 289Q812 437 722 528T477 620T225 508T127 230T213 -30T439 -124Q561 -124 647 -88Q667 -104 667 -138Q553 -179 437 -179Q269 -179 164
-71T58 228T176 545T477 672T769 566T880 286Q880 162 823 89T686 15T581 81Q519 10 443 10T324 68T281 229T334 405T478 478T641 413ZM450 68Q482 68 517 92T573 149V386Q538 425 479 425T385 368T350 234T375 112T450 68Z" />
<glyph unicode="A" glyph-name="A" horiz-adv-x="593" d="M432 181L360 180H226L155 181L95 -1Q82 -4 65 -4T29 1L27 4L256 683Q272 686 298 686T336 683L566 4Q550 -6 529 -6T498 1T482 30L432 181ZM175 242L234 243H352Q353 243 378 243T412 242L346 441Q314
536 295 605H290Q274 544 257 491L175 242Z" />
<glyph unicode="B" glyph-name="B" horiz-adv-x="599" d="M310 -3L106 0L100 6V677L106 683L299 686Q507 686 507 506Q507 457 481 418T409 363Q463 349 501 301T540 188Q540 114 491 58Q437 -3 310 -3ZM171 56L317 57Q435 57 460 148Q466 169 466 193Q466 244
429 286T307 328H171V56ZM171 627V390H298Q374 390 403 424T433 508Q433 626 301 626Q208 626 171 627Z" />
<glyph unicode="C" glyph-name="C" horiz-adv-x="600" d="M479 471Q479 474 479 477Q479 536 441 585T316 635T182 559T133 343T182 127T321 50T502 130Q531 112 541 84Q499 41 438 15T300 -12T164 39Q58 132 58 338Q58 514 132 604T315 695T486 638T550 508Q550
466 511 466Q497 466 479 471Z" />
<glyph unicode="D" glyph-name="D" horiz-adv-x="635" d="M533 584T554 513T575 341T554 169T473 47Q444 22 396 9T314 -4T106 0L100 6V677L106 683Q193 686 306 686Q348 686 396 673T473 635Q533 584 554 513ZM171 57L305 56Q354 56 390 73T447 118T480 185T497
261T501 341T497 421T481 497T448 564T391 608T305 626L171 627V57Z" />
<glyph unicode="E" glyph-name="E" horiz-adv-x="562" d="M169 95L168 60Q202 62 229 62H505Q505 42 503 32Q499 0 458 0H141Q122 0 111 12T100 47V677L106 683H490Q492 672 492 654T487 622Q328 622 168 622Q168 622 169 561V375L228 376H439Q442 361 442 346T439
316H228Q190 316 169 317V95Z" />
<glyph unicode="F" glyph-name="F" horiz-adv-x="513" d="M171 376L229 377H434Q437 361 437 347T434 316H229Q192 316 171 317V0Q156 -3 135 -3T100 0V677L106 683H482Q487 668 487 654Q487 621 443 621H282Q199 621 170 623L171 479V376Z" />
<glyph unicode="G" glyph-name="G" horiz-adv-x="636" d="M356 340H508Q539 340 551 329T564 291V32Q457 -12 329 -12Q254 -12 200 18T115 100Q58 199 58 337Q58 431 82 502T148 614Q229 695 341 695Q402 695 462 675T563 620Q555 585 525 565Q442 631 335 631Q247
631 190 561T133 336Q133 51 342 51Q429 51 495 75V216Q495 260 496 276H383Q350 276 350 310Q350 322 356 340Z" />
<glyph unicode="H" glyph-name="H" horiz-adv-x="667" d="M497 383L496 457V683Q508 686 530 686T566 683V0Q552 -3 530 -3T496 0V249L497 323L436 322H231L170 323L171 249V0Q156 -3 135 -3T100 0V683Q113 686 134 686T171 683V457Q171 457 170 383L231 384H436L497
383Z" />
<glyph unicode="I" glyph-name="I" horiz-adv-x="279" d="M104 0V683Q117 686 138 686T175 683V0Q160 -3 139 -3T104 0Z" />
<glyph unicode="J" glyph-name="J" horiz-adv-x="433" d="M40 85Q95 51 159 51T250 90T277 225V683Q290 686 311 686T347 683V240Q347 181 341 141T316 64Q278 -10 161 -10Q77 -10 10 31Q17 62 40 85Z" />
<glyph unicode="K" glyph-name="K" horiz-adv-x="580" d="M557 20Q541 -5 514 -5T476 5T456 42L390 208Q365 271 335 296T260 321T171 319V0Q156 -3 135 -3T100 0V683Q113 686 134 686T171 683V381L247 383Q266 383 281 407L431 649Q443 669 453 677T477 685T520
683L526 675L354 400Q344 384 326 366Q374 359 401 330T454 237L517 78Q534 37 557 20Z" />
<glyph unicode="L" glyph-name="L" horiz-adv-x="505" d="M257 63H473Q473 42 471 32Q465 0 426 0H142Q124 0 112 12T100 48V680L106 686H135Q157 686 164 676T171 640V60Q216 63 257 63Z" />
<glyph unicode="M" glyph-name="M" horiz-adv-x="790" d="M87 1L140 683Q157 686 186 686T233 683L352 324Q385 227 393 181H398Q406 227 439 324L558 683Q577 686 604 686T651 683L704 1Q687 -4 670 -4T635 -1L606 423Q603 465 598 609H593L430 107Q414 104 395
104T360 107L197 609H192Q191 584 189 516T184 423L155 -1Q138 -4 119 -4T87 1Z" />
<glyph unicode="N" glyph-name="N" horiz-adv-x="670" d="M563 686L569 681V0Q551 -3 525 -3T482 0L232 461Q202 516 163 598H160Q166 418 166 388V0Q146 -3 132 -3T100 0V683Q118 686 143 686T187 683L436 222Q441 213 506 83V82H509Q504 202 504 305V640Q504
665 511 675T540 686H563Z" />
<glyph unicode="O" glyph-name="O" horiz-adv-x="652" d="M133 396T133 342T141 240T170 147T230 75T326 48T421 74T481 146T509 240T518 342T510 443T481 536T422 608T326 635T231 609T171 537T142 444ZM58 342Q58 431 84 510T164 637Q229 695 326 695T487 637Q541
589 567 510T593 342Q593 141 487 46Q424 -12 327 -12T164 46Q58 141 58 342Z" />
<glyph unicode="P" glyph-name="P" horiz-adv-x="553" d="M106 683L295 686Q393 686 453 631T513 474T454 316T295 260H171V0Q156 -3 135 -3T100 0V677L106 683ZM171 627V319Q213 320 293 320T406 365T438 474T406 581T291 626T171 627Z" />
<glyph unicode="Q" glyph-name="Q" horiz-adv-x="639" d="M464 -98L341 -11Q336 -12 326 -12Q221 -12 159 44Q58 134 58 341T159 639Q221 695 319 695T480 639Q581 549 581 343T482 48Q451 22 425 13L447 -2Q530 -63 574 -64Q572 -91 557 -104T517 -117T464 -98ZM133
635T133 343T319 51T506 343T320 635Z" />
<glyph unicode="R" glyph-name="R" horiz-adv-x="591" d="M106 683L306 686Q409 686 465 634T521 489Q521 421 486 373T389 307Q430 293 456 227L509 89Q531 33 551 18Q537 -6 502 -6Q482 -6 472 5T451 41L391 197Q373 244 350 267T279 291H171V0Q156 -3 135 -3T100
0V677L106 683ZM171 627V351Q257 353 306 353Q383 353 415 392T447 490T415 587T296 626T171 627Z" />
<glyph unicode="S" glyph-name="S" horiz-adv-x="555" d="M40 63Q43 97 74 120Q173 51 274 51Q346 51 389 81T432 165Q432 246 322 294L205 345Q72 403 72 511Q72 588 130 641T285 695T482 647Q484 612 454 588Q364 634 295 634T184 602T143 517Q143 451 243 408L356
359Q505 295 505 180Q505 93 446 41T265 -12T40 63Z" />
<glyph unicode="T" glyph-name="T" horiz-adv-x="481" d="M330 622L276 623V0Q261 -3 241 -3T205 0V623L152 622H22Q19 637 19 651T22 683H458Q463 668 463 654Q463 622 420 622H330Z" />
<glyph unicode="U" glyph-name="U" horiz-adv-x="666" d="M573 683V232Q573 113 507 51T333 -12T158 51T92 232V680L98 686H127Q149 686 156 676T163 640V233Q163 143 207 95T333 47T458 95T503 233V683Q517 686 538 686T573 683Z" />
<glyph unicode="V" glyph-name="V" horiz-adv-x="553" d="M289 70L465 683Q477 686 494 686T528 682L531 676L326 -1Q297 -4 276 -4T243 3T224 33L28 677Q52 689 72 689Q102 689 112 655L233 244Q243 210 281 78Q283 70 289 70Z" />
<glyph unicode="W" glyph-name="W" horiz-adv-x="815" d="M171 36L40 680Q59 689 82 689Q111 689 118 652L194 259Q226 89 228 75T232 60T238 58L364 668Q385 671 414 671T457 668L573 68Q575 58 581 58Q594 135 620 259L711 683Q723 686 743 686T777 682L781
677L631 1Q607 -4 567 -4T519 34L413 593H407Q373 415 356 337L284 0Q260 -4 220 -4T171 36Z" />
<glyph unicode="X" glyph-name="X" horiz-adv-x="568" d="M453 683Q463 687 485 687T519 680L522 674L328 363L544 11Q521 -6 496 -6T452 24L280 303L95 0Q85 -4 62 -4T27 3L24 9L244 361L53 672Q76 689 101 689T146 659L292 420L453 683Z" />
<glyph unicode="Y" glyph-name="Y" horiz-adv-x="477" d="M246 302Q254 330 287 414L394 683Q407 687 424 687T460 682L463 676L275 223V0Q260 -3 239 -3T204 0V226L16 675Q42 690 65 690T102 655L202 414Q220 373 242 302H246Z" />
<glyph unicode="Z" glyph-name="Z" horiz-adv-x="551" d="M65 85L338 513Q344 522 415 624L412 627Q380 620 255 620H82Q79 632 79 648T85 683H478Q488 647 488 634T476 600L207 178Q202 170 128 62L131 59Q184 64 232 64H368Q454 64 489 80Q496 59 496 42Q496
0 443 0H65Q54 33 54 50T65 85Z" />
<glyph unicode="[" glyph-name="bracketleft" horiz-adv-x="310" d="M278 -133L106 -140L100 -134V801L106 807L278 800Q280 792 280 778T274 747L171 744V-77L274 -79Q280 -97 280 -111T278 -133Z" />
<glyph unicode="\" glyph-name="backslash" horiz-adv-x="403" d="M331 -105L14 734Q44 757 75 757L392 -82Q364 -103 331 -105Z" />
<glyph unicode="]" glyph-name="bracketright" horiz-adv-x="310" d="M204 -140L32 -133Q30 -125 30 -111T36 -79L139 -77V744L36 747Q30 763 30 777T32 800L204 807L210 801V-134L204 -140Z" />
<glyph unicode="^" glyph-name="asciicircum" horiz-adv-x="530" d="M302 648L476 306Q466 302 443 302T405 306L300 520Q279 564 268 589H262Q251 564 230 520L125 306Q110 302 87 302T54 306L228 648Q247 652 265 652T302 648Z" />
<glyph unicode="_" glyph-name="underscore" horiz-adv-x="506" d="M506 -140H0Q-3 -131 -3 -113T0 -83H506Q509 -95 509 -113T506 -140Z" />
<glyph unicode="`" glyph-name="grave" horiz-adv-x="398" d="M130 718L265 565Q253 542 233 536L71 665Q79 682 95 697T130 718Z" />
<glyph unicode="a" glyph-name="a" horiz-adv-x="503" d="M445 28Q435 3 413 -7Q365 12 355 65Q278 -12 196 -12Q128 -12 90 31T52 133Q52 213 102 253T239 293Q298 293 352 283V336Q352 441 259 441Q188 441 95 399Q85 407 78 423T70 453Q175 500 264 500Q417
500 417 334V128Q417 55 445 28ZM122 98T143 73T203 47T281 69T352 133V232Q296 240 241 240T154 213T122 142Z" />
<glyph unicode="b" glyph-name="b" horiz-adv-x="523" d="M382 498T426 431T470 243T409 58T263 -7T90 25V729L96 735H121Q143 735 150 724T157 688V434Q221 498 301 498ZM402 345T371 391T297 438T219 418T157 364V65Q204 46 263 46T362 98T402 248Z" />
<glyph unicode="c" glyph-name="c" horiz-adv-x="469" d="M359 320Q359 326 359 341T352 380T318 426T251 447Q194 447 160 393T125 243T159 97T252 48T385 104Q413 86 419 60Q342 -12 245 -12T101 62T53 252T111 435T253 502Q298 502 333 487T388 450Q425 404
425 361T388 317Q376 317 359 320Z" />
<glyph unicode="d" glyph-name="d" horiz-adv-x="524" d="M139 -12T96 56T52 245T108 432T232 498T366 456V729L372 735H396Q418 735 425 724T432 688V138Q432 55 460 28Q450 4 428 -7Q383 11 371 61Q309 -12 224 -12ZM232 48Q268 48 304 69T366 128V392Q301 438
247 438T157 388T121 241T152 96T232 48Z" />
<glyph unicode="e" glyph-name="e" horiz-adv-x="503" d="M440 224H126Q131 49 258 49Q328 49 404 92Q426 73 430 44Q350 -12 249 -12Q178 -12 133 25T71 117T53 246Q53 359 106 430T252 502T394 442T444 288Q444 256 440 224ZM374 361T344 405T255 449T162 403T126
278H374V292Q374 361 344 405Z" />
<glyph unicode="f" glyph-name="f" horiz-adv-x="317" d="M109 0V439L23 438Q20 452 20 464T23 491L106 489Q99 582 99 595Q99 658 136 698T235 739T351 718Q351 690 334 671Q281 687 243 687T184 663T163 594T171 489L319 491Q322 476 322 464T319 438L176 439V0Q161
-3 143 -3T109 0Z" />
<glyph unicode="g" glyph-name="g" horiz-adv-x="523" d="M140 -8T96 59T52 248T108 436T241 502T379 448Q394 484 429 497Q451 486 461 462Q433 434 433 352V34Q433 -103 388 -158Q339 -220 246 -220T74 -186Q76 -154 94 -132Q160 -164 217 -164T303 -151T346
-114Q369 -71 369 0V60Q303 -8 222 -8ZM369 130V391Q309 442 251 442T157 393T121 245T151 100T226 52T307 74T369 130Z" />
<glyph unicode="h" glyph-name="h" horiz-adv-x="544" d="M460 343V92Q460 36 470 9Q455 -6 427 -6Q392 -6 392 39V320Q392 383 376 409T318 436T231 414T157 356V0Q144 -3 124 -3T90 0V729L96 735H121Q143 735 150 724T157 688V425Q190 458 237 478T332 498Q399
498 429 455T460 343Z" />
<glyph unicode="i" glyph-name="i" horiz-adv-x="253" d="M165 425V0Q152 -3 131 -3T97 0V390Q97 418 88 428T56 438H47Q44 451 44 462T47 489Q76 493 95 493H103Q132 493 148 475T165 425ZM74 588Q67 602 67 624T74 659Q87 669 116 669T158 659Q165 647 165 625T158
588Q148 578 118 578T74 588Z" />
<glyph unicode="j" glyph-name="j" horiz-adv-x="260" d="M172 425V12Q172 -93 163 -124Q145 -191 58 -219Q42 -202 36 -176Q76 -154 90 -128T104 -52V390Q104 418 95 428T63 438H45Q42 451 42 462T45 489Q74 493 104 493H112Q140 493 156 475T172 425ZM81 588Q74
602 74 624T81 659Q94 669 123 669T165 659Q172 647 172 625T165 588Q155 578 125 578T81 588Z" />
<glyph unicode="k" glyph-name="k" horiz-adv-x="487" d="M376 178L416 88Q442 29 464 15Q449 -6 423 -6T387 6T364 45L316 150Q296 195 276 210T224 225T157 222V0Q144 -3 124 -3T90 0V729L96 735H121Q143 735 150 724T157 688V279L203 282Q216 282 224 295L335
458Q348 477 358 485T389 493T423 492L429 484L298 295Q285 277 276 270Q311 263 333 242T376 178Z" />
<glyph unicode="l" glyph-name="l" horiz-adv-x="280" d="M192 53H235Q241 38 241 22T240 2Q202 -4 168 -4T111 17T88 75V729L94 735H119Q141 735 148 724T155 688V95Q155 53 192 53Z" />
<glyph unicode="m" glyph-name="m" horiz-adv-x="790" d="M364 321Q364 383 349 410T297 437T224 415T158 356V0Q144 -3 124 -3T90 0V486L96 493H122Q144 493 151 482T158 446V426Q221 499 304 499T418 422Q498 499 580 499Q642 499 673 456T705 345V92Q705 36
716 9Q699 -6 673 -6Q638 -6 638 39V322Q638 384 623 410T571 437T498 416T431 356V0Q418 -3 397 -3T364 0V321Z" />
<glyph unicode="n" glyph-name="n" horiz-adv-x="545" d="M461 344V92Q461 33 471 9Q456 -6 428 -6Q393 -6 393 39V321Q393 384 377 410T319 437T232 415T158 357V0Q144 -3 124 -3T90 0V487L96 493H122Q144 493 151 482T158 446V426Q191 459 238 479T333 499Q400
499 430 456T461 344Z" />
<glyph unicode="o" glyph-name="o" horiz-adv-x="519" d="M466 378T466 245T396 41Q343 -12 260 -12T123 41Q53 112 53 245T123 449Q176 502 259 502T396 449Q466 378 466 245ZM189 449T157 390T124 245T156 101T260 42Q308 42 340 73Q395 128 395 245Q395 330
363 389T260 449Z" />
<glyph unicode="p" glyph-name="p" horiz-adv-x="525" d="M385 502T428 434T472 245T416 58T291 -8T157 35V-168Q157 -193 150 -204T121 -215H96L90 -209V487L96 493H121Q143 493 150 482T157 446V432Q218 502 301 502ZM404 347T372 394T299 442T219 420T157 359V99Q224
52 278 52T368 102T404 249Z" />
<glyph unicode="q" glyph-name="q" horiz-adv-x="523" d="M367 -168V56Q303 -8 222 -8T96 59T52 248T108 436T241 502T379 450Q394 483 429 497Q451 486 461 462Q433 434 433 352V-209L427 -215H403Q381 -215 374 -204T367 -168ZM231 52Q309 52 367 127V393Q309
442 252 442T158 393T121 245T152 100T231 52Z" />
<glyph unicode="r" glyph-name="r" horiz-adv-x="349" d="M64 459Q73 485 94 497Q148 476 162 408Q206 497 296 497Q316 497 341 493Q341 452 325 428Q315 429 292 429Q207 429 167 334V0Q154 -3 133 -3T100 0V357Q100 421 64 459Z" />
<glyph unicode="s" glyph-name="s" horiz-adv-x="434" d="M38 38Q40 67 66 88Q148 42 202 42T287 64T318 123Q318 178 243 206L186 228Q58 277 58 366Q58 428 106 465T228 502T373 470Q373 437 352 416Q286 446 234 446T155 425T129 375T147 328T207 294L266 271Q388
223 388 128Q388 63 338 26T202 -12T38 38Z" />
<glyph unicode="t" glyph-name="t" horiz-adv-x="334" d="M301 491Q304 476 304 464T301 438L174 439V94Q174 53 213 53H290Q296 38 296 22T295 2Q248 -4 202 -4T131 16T107 75V439L38 438Q35 451 35 463T38 491L107 490V598Q107 623 114 634T144 645H168L174
639V489L301 491Z" />
<glyph unicode="u" glyph-name="u" horiz-adv-x="546" d="M84 146V397Q84 457 74 481Q89 496 117 496Q152 496 152 451V169Q152 106 168 80T225 53T312 75T387 132V490Q400 493 421 493T454 490V138Q454 56 482 28Q472 3 450 -7Q401 12 391 67Q357 33 309 12T212
-9Q145 -9 115 34T84 146Z" />
<glyph unicode="v" glyph-name="v" horiz-adv-x="439" d="M228 60L365 491Q376 494 392 494T426 489L428 486Q350 242 263 0Q244 -5 219 -5T184 3T164 42L12 485Q36 497 58 497T88 472L169 230Q208 112 219 68Q221 60 228 60Z" />
<glyph unicode="w" glyph-name="w" horiz-adv-x="700" d="M143 42L34 486Q57 497 79 497T108 470L162 232Q170 197 183 135T199 62T208 51L311 490Q326 493 354 493T395 490L492 60Q494 51 500 51L604 491Q616 494 636 494T669 489L671 486L546 -1Q526 -4 498
-4T457 5T438 42L402 201L384 290Q365 378 355 422H351L300 201L251 0Q230 -4 192 -4T143 42Z" />
<glyph unicode="x" glyph-name="x" horiz-adv-x="446" d="M335 490Q345 494 365 494T398 488L401 482L260 260L423 10Q395 -7 376 -7T341 14L218 203L90 -1Q80 -5 59 -5T26 2L23 8L183 257L37 481Q63 498 83 498T119 477L226 312L335 490Z" />
<glyph unicode="y" glyph-name="y" horiz-adv-x="448" d="M432 486L294 17Q256 -113 213 -165T86 -218Q45 -218 8 -205Q8 -202 8 -200Q8 -176 24 -156Q50 -166 87 -166Q142 -166 170 -130T222 -14L225 -4Q200 -2 188 7T166 44L24 485Q51 497 64 497Q91 497 101
464L182 209Q211 116 230 52Q232 45 240 45L364 491Q379 494 397 494T430 489L432 486Z" />
<glyph unicode="z" glyph-name="z" horiz-adv-x="444" d="M54 73L247 338Q301 408 325 436L322 439Q284 434 184 434H60Q58 442 58 458T62 490H387Q399 458 399 446T387 418L198 159Q152 97 119 57L122 54Q175 57 223 57H279Q366 57 397 69Q403 54 403 35Q403
0 350 0H54Q42 33 42 44T54 73Z" />
<glyph unicode="{" glyph-name="braceleft" horiz-adv-x="312" d="M41 348Q76 363 98 394T121 471V647Q121 712 156 751T250 801L291 808Q305 793 305 779T303 756L260 743Q191 722 191 646V473Q191 427 170 387T112 328V320Q148 302 169 262T191 175V1Q191 -74
260 -97L303 -109Q305 -117 305 -131T291 -161L250 -154Q192 -144 157 -105T121 0V177Q121 222 99 254T41 300Q37 308 37 324T41 348Z" />
<glyph unicode="|" glyph-name="bar" horiz-adv-x="246" d="M90 -140V775Q104 778 122 778T155 775V-140Q140 -143 122 -143T90 -140Z" />
<glyph unicode="}" glyph-name="braceright" horiz-adv-x="312" d="M271 348Q275 340 275 324T271 300Q236 286 214 254T191 177V0Q191 -65 156 -104T61 -154L21 -161Q7 -146 7 -132T9 -109L52 -97Q120 -75 120 1V175Q120 221 142 261T200 320V328Q164 346 142
386T120 473V646Q120 722 52 743L9 756Q7 764 7 778T21 808L61 801Q120 791 155 752T191 647V471Q191 425 213 394T271 348Z" />
<glyph unicode="~" glyph-name="asciitilde" horiz-adv-x="555" d="M258 336L334 302Q365 289 396 289T455 325L469 344Q481 343 493 336T510 318L501 301Q460 223 378 223Q343 223 296 243L221 277Q190 290 159 290T100 254L85 235Q73 236 61 243T45 262L54 279Q95
356 176 356Q215 356 258 336Z" />
<glyph unicode="&#xa1;" glyph-name="exclamdown" horiz-adv-x="274" d="M165 305L171 -178Q142 -199 97 -199L92 -194L110 305Q121 309 137 309T165 305ZM182 410Q165 400 137 400T92 410Q85 420 85 447T92 487Q109 497 137 497T182 487Q189 475 189 448T182 410Z" />
<glyph unicode="&#xa2;" glyph-name="cent" horiz-adv-x="472" d="M219 -30V70Q135 81 94 153T53 331T101 503T222 581V680Q231 683 252 683T285 680V582Q354 573 389 529T425 442T389 399Q376 399 359 402Q360 409 360 415Q360 457 336 492T253 528T161 475T127
325T160 178T257 129T383 187Q410 176 421 147Q367 83 282 71V-30Q266 -32 249 -32T219 -30Z" />
<glyph unicode="&#xa3;" glyph-name="sterling" horiz-adv-x="523" d="M196 331L389 332Q392 318 392 304T389 275Q358 275 298 275T208 276Q210 260 210 252Q210 163 136 61L139 58Q247 62 253 62H478Q478 43 476 32Q472 0 431 0H71Q60 33 60 51T71 85L90 113Q141
188 141 254Q141 260 139 276Q114 275 64 275Q61 288 61 302T64 332Q105 332 126 331Q122 343 112 368T97 408Q82 451 82 486Q82 555 130 607T277 660T457 591Q456 576 445 560T420 540Q350 599 274 599Q222 599 188 569T154 485Q154 443 173 392T196 331Z" />
<glyph unicode="&#xa4;" glyph-name="currency" horiz-adv-x="565" d="M72 265T72 335T111 460L38 537Q53 563 80 579L156 506Q212 546 281 546T406 507L484 580Q511 565 525 538L453 460Q492 403 492 335T454 211L526 134Q513 108 485 93L408 164Q353 125 282
125T156 164L80 93Q53 106 38 134L110 211Q72 265 72 335ZM221 492T183 446T144 336T182 225T282 179T382 225T421 335T382 445T282 492Z" />
<glyph unicode="&#xa5;" glyph-name="yen" horiz-adv-x="494" d="M435 186H281V0Q266 -3 246 -3T212 0V186H58Q55 198 55 211T58 239H208L169 328H58Q55 342 55 354T58 382H145L30 643Q54 657 77 657T115 626L208 401Q221 375 248 298H253Q282 383 291 401L395
651Q412 656 429 656T461 652L464 647L347 382H435Q438 367 438 355T435 328H324L285 239H435Q438 224 438 211T435 186Z" />
<glyph unicode="&#xa6;" glyph-name="brokenbar" horiz-adv-x="240" d="M87 -140V247Q101 250 119 250T152 247V-140Q137 -143 119 -143T87 -140ZM87 388V775Q101 778 119 778T152 775V388Q137 385 119 385T87 388Z" />
<glyph unicode="&#xa7;" glyph-name="section" horiz-adv-x="476" d="M357 431T399 396T441 307T410 214T330 151Q401 105 401 39T352 -65T227 -102Q186 -102 142 -91T69 -60Q69 -46 77 -31T96 -8Q165 -46 221 -46T304 -26T331 30Q331 78 253 110L194 133Q120
161 78 197T35 286T66 379T146 441Q75 486 75 553T123 658T246 695T390 661Q390 626 369 607Q298 639 248 639T172 619T146 563Q146 514 224 484L283 461Q357 431 399 396ZM203 413Q201 413 201 414Q107 372 107 301Q107 266 136 244T216 202L273 180Q273 179 274
179Q370 222 370 292Q370 327 341 349T260 391L203 413Z" />
<glyph unicode="&#xa8;" glyph-name="dieresis" horiz-adv-x="398" d="M249 572Q242 588 242 605T249 637Q263 646 287 646T324 637Q331 623 331 605T324 572Q313 563 288 563T249 572ZM74 572Q67 588 67 605T74 637Q87 646 111 646T149 637Q156 623 156 605T149
572Q136 563 111 563T74 572Z" />
<glyph unicode="&#xa9;" glyph-name="copyright" horiz-adv-x="811" d="M46 189T46 341T149 597T405 701T661 597T765 341T661 86T405 -18T150 85ZM112 468T112 341T196 125T405 36T614 125T699 341T615 557T405 647T196 558ZM495 390Q495 395 495 399Q495 433
475 462T406 491T329 452T300 342T329 232T414 193T520 239Q541 232 553 203Q526 175 485 158T402 140Q325 140 278 195T231 344T283 491T408 544T518 505T557 425T524 385Q508 385 495 390Z" />
<glyph unicode="&#xaa;" glyph-name="ordfeminine" horiz-adv-x="402" d="M351 340Q349 332 340 323T321 310Q285 324 276 360Q217 307 158 307T70 340T40 417Q40 479 78 509T186 539Q225 539 272 534V565Q272 641 206 641Q143 641 75 611Q53 629 53 659Q136 695
207 695Q329 695 329 568V416Q329 361 351 340ZM103 395T118 376T160 357T217 372T272 415V487Q216 493 182 493T125 474T103 425Z" />
<glyph unicode="&#xab;" glyph-name="guillemotleft" horiz-adv-x="519" d="M473 423L324 256L479 83Q467 56 439 44L244 230Q239 242 239 255T244 280L433 462Q461 450 473 423ZM273 423L124 256L279 83Q267 56 239 44L44 230Q39 242 39 255T44 280L233 462Q261
450 273 423Z" />
<glyph unicode="&#xac;" glyph-name="logicalnot" horiz-adv-x="530" d="M401 264L365 263H54Q51 276 51 295T54 328H463L469 322V109Q456 106 436 106T400 109V229L401 264Z" />
<glyph unicode="&#xad;" glyph-name="uni00AD" horiz-adv-x="332" d="M279 232H53Q50 245 50 264T53 297H279Q282 284 282 265T279 232Z" />
<glyph unicode="&#xae;" glyph-name="registered" horiz-adv-x="587" d="M186 235T113 308T39 488T113 669T293 743T474 669T548 488T474 309T293 235ZM94 573T94 488T151 344T293 284T435 343T493 488T436 634T294 694T152 634ZM344 617T367 597T391 546Q391
493 340 476Q354 470 373 435L389 406Q399 387 410 379Q399 360 378 360T342 390L316 439Q304 460 283 460H251V365Q238 361 226 361L200 365V612L203 615Q263 617 303 617ZM251 578V501H294Q340 501 340 539Q340 555 329 566T298 578H251Z" />
<glyph unicode="&#xaf;" glyph-name="overscore" horiz-adv-x="398" d="M331 578H67Q64 592 64 610T67 641H331Q334 628 334 610T331 578Z" />
<glyph unicode="&#xb0;" glyph-name="degree" horiz-adv-x="311" d="M98 395T59 434T20 532T59 630T155 670T252 630T291 532T252 435T156 395ZM121 617T100 593T79 532T100 472T155 448T210 471T231 531T211 592T156 617Z" />
<glyph unicode="&#xb1;" glyph-name="plusminus" horiz-adv-x="530" d="M231 363L230 398V529Q245 532 265 532T300 529V398Q300 398 299 363L334 364H461Q464 349 464 331T461 299H334L299 300L300 264V133Q286 130 266 130T230 133V264L231 300L196 299H69Q66
313 66 331T69 364H196L231 363ZM461 0H69Q66 16 66 31T69 65H461Q464 47 464 32T461 0Z" />
<glyph unicode="&#xb2;" glyph-name="twosuperior" horiz-adv-x="420" d="M343 409Q343 390 342 381Q337 353 310 353H87Q66 374 66 390Q66 445 149 512L210 562Q242 587 254 605T267 651T249 697T201 716Q149 716 120 653Q88 658 73 677Q89 717 123 743T209 770T297
735T332 654T312 579T250 516L194 471Q145 432 135 405Q167 409 201 409H343Z" />
<glyph unicode="&#xb3;" glyph-name="threesuperior" horiz-adv-x="420" d="M314 708L247 637Q233 621 216 610H225Q275 610 308 576T342 479T297 383T183 348T60 387Q64 415 84 433Q136 400 181 400T252 421T279 481T258 544T205 567T150 554Q130 563 127 588L215
682Q232 702 249 713L247 715Q226 711 169 711H78Q75 724 75 738T79 763H314Q324 743 324 731T314 708Z" />
<glyph unicode="&#xb4;" glyph-name="acute" horiz-adv-x="398" d="M137 565L272 718Q291 712 307 697T331 665L169 536Q146 542 137 565Z" />
<glyph unicode="&#xb6;" glyph-name="paragraph" horiz-adv-x="618" d="M294 58V261H271Q172 261 112 316T52 475T112 632T271 687Q306 687 359 684L365 678V66Q365 2 357 -37T324 -105Q282 -153 208 -153T80 -130Q80 -98 101 -73Q149 -95 199 -95T272 -63T294
58ZM433 -134V677L439 683H584Q589 667 589 652T584 620H535Q513 620 504 621V-134Q489 -137 468 -137T433 -134Z" />
<glyph unicode="&#xb7;" glyph-name="middot" horiz-adv-x="288" d="M98 239Q90 252 90 282T98 324Q114 334 144 334T191 324Q198 312 198 283T191 239Q177 229 146 229T98 239Z" />
<glyph unicode="&#xb8;" glyph-name="cedilla" horiz-adv-x="398" d="M152 -72Q163 -32 178 0H233Q219 -28 215 -40Q253 -43 278 -66T303 -127T272 -192T196 -218T121 -200Q122 -179 139 -157Q162 -171 189 -171T229 -158T242 -126T229 -95T198 -82T167 -87Q155
-82 152 -72Z" />
<glyph unicode="&#xb9;" glyph-name="onesuperior" horiz-adv-x="420" d="M155 407L201 406V615Q201 622 201 639T202 666Q166 619 102 592Q80 603 77 632Q167 683 203 763Q216 767 230 767T260 763V406L307 407H343Q346 395 346 382T343 355H97Q94 370 94 382T97
407H155Z" />
<glyph unicode="&#xba;" glyph-name="ordmasculine" horiz-adv-x="384" d="M298 656Q352 598 352 500T298 345Q255 307 192 307T86 345Q32 402 32 500T86 656Q128 695 192 695T298 656ZM142 645T119 604T96 501T119 399T192 358T265 398T288 500T265 603T192 645Z" />
<glyph unicode="&#xbb;" glyph-name="guillemotright" horiz-adv-x="519" d="M46 83L196 250L40 423Q52 450 80 462L275 276Q280 264 280 251T275 226L86 44Q58 56 46 83ZM246 83L396 250L240 423Q252 450 280 462L475 276Q480 264 480 251T475 226L286 44Q258
56 246 83Z" />
<glyph unicode="&#xbc;" glyph-name="onequarter" horiz-adv-x="873" d="M121 327L167 326V535Q167 542 167 559T168 586Q132 539 68 512Q46 523 43 552Q133 603 169 683Q182 687 196 687T226 683V326L273 327H309Q312 315 312 302T309 275H63Q60 290 60 302T63
327H121ZM251 0L627 683Q638 688 661 688T696 683L320 0Q309 -5 286 -5T251 0ZM699 0V83H539Q526 102 526 119T541 162L660 412Q664 413 672 413Q703 413 717 397L624 199Q606 160 592 138L593 136Q613 137 647 137H699V212Q699 231 709 242T735 254H757L758 252V137H825Q827
123 827 108T823 83H758V0Q749 -4 730 -4T699 0Z" />
<glyph unicode="&#xbd;" glyph-name="onehalf" horiz-adv-x="873" d="M235 0L611 683Q622 688 645 688T680 683L304 0Q293 -5 270 -5T235 0ZM121 327L167 326V535Q167 542 167 559T168 586Q132 539 68 512Q46 523 43 552Q133 603 169 683Q182 687 196 687T226
683V326L273 327H309Q312 315 312 302T309 275H63Q60 290 60 302T63 327H121ZM821 53Q821 34 820 25Q815 -3 788 -3H565Q544 18 544 34Q544 89 627 156L688 206Q720 231 732 249T745 295T727 341T679 360Q627 360 598 297Q566 302 551 321Q567 361 601 387T687
414T775 379T810 298T790 223T728 160L672 115Q623 76 613 49Q645 53 679 53H821Z" />
<glyph unicode="&#xbe;" glyph-name="threequarters" horiz-adv-x="873" d="M246 0L622 683Q632 688 656 688T691 683L315 0Q304 -5 281 -5T246 0ZM310 630L243 559Q229 543 212 532H221Q271 532 304 498T338 401T293 305T179 270T56 309Q60 337 80 355Q132 322
177 322T248 343T275 403T254 466T201 489T146 476Q126 485 123 510L211 604Q228 624 245 635L243 637Q222 633 165 633H74Q71 646 71 660T75 685H310Q320 665 320 653T310 630ZM706 0V83H546Q533 102 533 119T548 162L667 412Q671 413 679 413Q710 413 724 397L631
199Q613 160 599 138L600 136Q620 137 654 137H706V212Q706 231 716 242T742 254H764L765 252V137H832Q834 123 834 108T830 83H765V0Q756 -4 737 -4T706 0Z" />
<glyph unicode="&#xbf;" glyph-name="questiondown" horiz-adv-x="379" d="M362 -158Q272 -204 189 -204T58 -160T10 -41Q10 74 140 150L204 187L211 305Q222 309 238 309T265 305L269 156L263 147L218 123Q153 88 119 50T85 -35T115 -112T201 -141T336 -103Q359
-126 362 -158ZM265 400T237 400T192 410Q185 420 185 447T192 487Q209 497 237 497T282 487Q289 475 289 448T282 410Q265 400 237 400Z" />
<glyph unicode="&#xc0;" glyph-name="Agrave" horiz-adv-x="593" d="M432 181L360 180H226L155 181L95 -1Q82 -4 65 -4T29 1L27 4L256 683Q272 686 298 686T336 683L566 4Q550 -6 529 -6T498 1T482 30L432 181ZM175 242L234 243H352Q353 243 378 243T412 242L346
441Q314 536 295 605H290Q274 544 257 491L175 242ZM209 878L397 768Q390 739 375 729L172 815Q181 861 209 878Z" />
<glyph unicode="&#xc1;" glyph-name="Aacute" horiz-adv-x="593" d="M432 181L360 180H226L155 181L95 -1Q82 -4 65 -4T29 1L27 4L256 683Q272 686 298 686T336 683L566 4Q550 -6 529 -6T498 1T482 30L432 181ZM175 242L234 243H352Q353 243 378 243T412 242L346
441Q314 536 295 605H290Q274 544 257 491L175 242ZM212 768L400 878Q428 861 437 815L234 729Q216 741 212 768Z" />
<glyph unicode="&#xc2;" glyph-name="Acircumflex" horiz-adv-x="593" d="M432 181L360 180H226L155 181L95 -1Q82 -4 65 -4T29 1L27 4L256 683Q272 686 298 686T336 683L566 4Q550 -6 529 -6T498 1T482 30L432 181ZM175 242L234 243H352Q353 243 378 243T412
242L346 441Q314 536 295 605H290Q274 544 257 491L175 242ZM406 738L297 813L185 733Q160 742 153 767L264 873Q280 876 296 876T330 873L440 771Q433 746 406 738Z" />
<glyph unicode="&#xc3;" glyph-name="Atilde" horiz-adv-x="593" d="M432 181L360 180H226L155 181L95 -1Q82 -4 65 -4T29 1L27 4L256 683Q272 686 298 686T336 683L566 4Q550 -6 529 -6T498 1T482 30L432 181ZM175 242L234 243H352Q353 243 378 243T412 242L346
441Q314 536 295 605H290Q274 544 257 491L175 242ZM315 755L253 784Q233 793 216 793T177 768L164 752Q137 754 130 774L138 794Q149 823 173 839T224 856T279 842L341 813Q359 804 377 804T417 829L430 845Q455 843 464 823L456 804Q430 741 368 741Q343 741
315 755Z" />
<glyph unicode="&#xc4;" glyph-name="Adieresis" horiz-adv-x="593" d="M432 181L360 180H226L155 181L95 -1Q82 -4 65 -4T29 1L27 4L256 683Q272 686 298 686T336 683L566 4Q550 -6 529 -6T498 1T482 30L432 181ZM175 242L234 243H352Q353 243 378 243T412 242L346
441Q314 536 295 605H290Q274 544 257 491L175 242ZM355 815Q368 823 393 823T435 815Q441 795 441 780T435 745Q422 737 394 737T355 745Q348 763 348 780T355 815ZM159 815Q175 823 200 823T239 815Q246 797 246 780T239 745Q228 737 200 737T159 745Q153 764
153 780T159 815Z" />
<glyph unicode="&#xc5;" glyph-name="Aring" horiz-adv-x="593" d="M432 181L360 180H226L155 181L95 -1Q82 -4 65 -4T29 1L27 4L255 679Q225 691 207 717T189 781T220 849T296 879T373 849T404 781T386 717T337 679L566 4Q550 -6 529 -6T498 1T482 30L432 181ZM175
242L234 243H352Q353 243 378 243T412 242L346 441Q314 536 295 605H290Q274 544 257 491L175 242ZM246 801T246 776T260 735T297 719T333 735T348 776T334 817T297 833T261 817Z" />
<glyph unicode="&#xc6;" glyph-name="AE" horiz-adv-x="870" d="M408 181L341 180H251L189 181L95 -1Q80 -4 61 -4T24 1L22 4L372 675Q388 683 414 683H798Q799 672 799 653T795 622Q636 622 476 622L477 561V375L536 376H747Q750 361 750 346T747 316H536Q498
316 477 317V95L476 60Q510 62 537 62H813Q813 42 811 32Q805 0 766 0H448Q430 0 419 12T408 47V181ZM342 243L408 242V606L407 605H402Q398 596 349 491L220 242L268 243H342Z" />
<glyph unicode="&#xc7;" glyph-name="Ccedilla" horiz-adv-x="600" d="M267 -72Q277 -35 288 -11Q209 -5 156 46Q58 140 58 327T132 604T315 695T486 638T550 508Q550 466 511 466Q497 466 479 471Q479 474 479 477Q479 536 441 585T316 635T182 559T133 343T182
127T321 50T502 130Q531 112 541 84Q460 1 343 -10Q334 -28 330 -40Q368 -43 393 -66T418 -127T387 -192T311 -218T236 -200Q237 -179 254 -157Q277 -171 304 -171T343 -158T356 -126T344 -95T313 -82T282 -87Q270 -82 267 -72Z" />
<glyph unicode="&#xc8;" glyph-name="Egrave" horiz-adv-x="562" d="M169 95L168 60Q202 62 229 62H505Q505 42 503 32Q499 0 458 0H141Q122 0 111 12T100 47V677L106 683H490Q492 672 492 654T487 622Q328 622 168 622Q168 622 169 561V375L228 376H439Q442 361
442 346T439 316H228Q190 316 169 317V95ZM211 878L399 768Q392 739 377 729L174 815Q183 861 211 878Z" />
<glyph unicode="&#xc9;" glyph-name="Eacute" horiz-adv-x="562" d="M169 95L168 60Q202 62 229 62H505Q505 42 503 32Q499 0 458 0H141Q122 0 111 12T100 47V677L106 683H490Q492 672 492 654T487 622Q328 622 168 622Q168 622 169 561V375L228 376H439Q442 361
442 346T439 316H228Q190 316 169 317V95ZM214 768L402 878Q430 861 439 815L236 729Q218 741 214 768Z" />
<glyph unicode="&#xca;" glyph-name="Ecircumflex" horiz-adv-x="562" d="M169 95L168 60Q202 62 229 62H505Q505 42 503 32Q499 0 458 0H141Q122 0 111 12T100 47V677L106 683H490Q492 672 492 654T487 622Q328 622 168 622Q168 622 169 561V375L228 376H439Q442
361 442 346T439 316H228Q190 316 169 317V95ZM408 738L299 813L187 733Q162 742 155 767L266 873Q282 876 298 876T332 873L442 771Q435 746 408 738Z" />
<glyph unicode="&#xcb;" glyph-name="Edieresis" horiz-adv-x="562" d="M169 95L168 60Q202 62 229 62H505Q505 42 503 32Q499 0 458 0H141Q122 0 111 12T100 47V677L106 683H490Q492 672 492 654T487 622Q328 622 168 622Q168 622 169 561V375L228 376H439Q442
361 442 346T439 316H228Q190 316 169 317V95ZM357 815Q370 823 395 823T437 815Q443 795 443 780T437 745Q424 737 396 737T357 745Q350 763 350 780T357 815ZM161 815Q177 823 202 823T241 815Q248 797 248 780T241 745Q230 737 202 737T161 745Q155 764 155
780T161 815Z" />
<glyph unicode="&#xcc;" glyph-name="Igrave" horiz-adv-x="279" d="M104 0V683Q117 686 138 686T175 683V0Q160 -3 139 -3T104 0ZM52 878L240 768Q233 739 218 729L15 815Q24 861 52 878Z" />
<glyph unicode="&#xcd;" glyph-name="Iacute" horiz-adv-x="279" d="M104 0V683Q117 686 138 686T175 683V0Q160 -3 139 -3T104 0ZM55 768L243 878Q271 861 280 815L77 729Q59 741 55 768Z" />
<glyph unicode="&#xce;" glyph-name="Icircumflex" horiz-adv-x="279" d="M104 0V683Q117 686 138 686T175 683V0Q160 -3 139 -3T104 0ZM249 738L140 813L28 733Q3 742 -4 767L107 873Q123 876 139 876T173 873L283 771Q276 746 249 738Z" />
<glyph unicode="&#xcf;" glyph-name="Idieresis" horiz-adv-x="279" d="M104 0V683Q117 686 138 686T175 683V0Q160 -3 139 -3T104 0ZM198 815Q211 823 236 823T278 815Q284 795 284 780T278 745Q265 737 237 737T198 745Q191 763 191 780T198 815ZM2 815Q18 823
43 823T82 815Q89 797 89 780T82 745Q71 737 43 737T2 745Q-4 764 -4 780T2 815Z" />
<glyph unicode="&#xd0;" glyph-name="Eth" horiz-adv-x="652" d="M549 584T570 513T591 341T570 170T489 47Q460 22 412 9T330 -4T122 0L116 6V316H33Q30 328 30 345T33 376H116V677L122 683Q209 686 322 686Q364 686 412 673T489 635Q549 584 570 513ZM321 626L187
627V376H360Q363 362 363 345T360 316H187V57L321 56Q517 56 517 342Q517 495 464 564Q443 591 407 608T321 626Z" />
<glyph unicode="&#xd1;" glyph-name="Ntilde" horiz-adv-x="670" d="M563 686L569 681V0Q551 -3 525 -3T482 0L232 461Q202 516 163 598H160Q166 418 166 388V0Q146 -3 132 -3T100 0V683Q118 686 143 686T187 683L436 222Q441 213 506 83V82H509Q504 202 504 305V640Q504
665 511 675T540 686H563ZM355 755L293 784Q273 793 256 793T217 768L204 752Q177 754 170 774L178 794Q189 823 213 839T264 856T319 842L381 813Q399 804 417 804T457 829L470 845Q495 843 504 823L496 804Q470 741 408 741Q383 741 355 755Z" />
<glyph unicode="&#xd2;" glyph-name="Ograve" horiz-adv-x="652" d="M133 396T133 342T141 240T170 147T230 75T326 48T421 74T481 146T509 240T518 342T510 443T481 536T422 608T326 635T231 609T171 537T142 444ZM58 342Q58 431 84 510T164 637Q229 695 326
695T487 637Q541 589 567 510T593 342Q593 141 487 46Q424 -12 327 -12T164 46Q58 141 58 342ZM238 878L426 768Q419 739 404 729L201 815Q210 861 238 878Z" />
<glyph unicode="&#xd3;" glyph-name="Oacute" horiz-adv-x="652" d="M133 396T133 342T141 240T170 147T230 75T326 48T421 74T481 146T509 240T518 342T510 443T481 536T422 608T326 635T231 609T171 537T142 444ZM58 342Q58 431 84 510T164 637Q229 695 326
695T487 637Q541 589 567 510T593 342Q593 141 487 46Q424 -12 327 -12T164 46Q58 141 58 342ZM241 768L429 878Q457 861 466 815L263 729Q245 741 241 768Z" />
<glyph unicode="&#xd4;" glyph-name="Ocircumflex" horiz-adv-x="652" d="M133 396T133 342T141 240T170 147T230 75T326 48T421 74T481 146T509 240T518 342T510 443T481 536T422 608T326 635T231 609T171 537T142 444ZM58 342Q58 431 84 510T164 637Q229 695
326 695T487 637Q541 589 567 510T593 342Q593 141 487 46Q424 -12 327 -12T164 46Q58 141 58 342ZM435 738L326 813L214 733Q189 742 182 767L293 873Q309 876 325 876T359 873L469 771Q462 746 435 738Z" />
<glyph unicode="&#xd5;" glyph-name="Otilde" horiz-adv-x="652" d="M133 396T133 342T141 240T170 147T230 75T326 48T421 74T481 146T509 240T518 342T510 443T481 536T422 608T326 635T231 609T171 537T142 444ZM58 342Q58 431 84 510T164 637Q229 695 326
695T487 637Q541 589 567 510T593 342Q593 141 487 46Q424 -12 327 -12T164 46Q58 141 58 342ZM345 759L285 789Q267 798 250 798T213 772L200 756Q174 758 166 779L174 799Q203 860 260 860Q282 860 310 847L370 817Q386 808 404 808T443 834L455 850Q479 848
490 828L481 808Q454 746 396 746Q373 746 345 759Z" />
<glyph unicode="&#xd6;" glyph-name="Odieresis" horiz-adv-x="652" d="M133 396T133 342T141 240T170 147T230 75T326 48T421 74T481 146T509 240T518 342T510 443T481 536T422 608T326 635T231 609T171 537T142 444ZM58 342Q58 431 84 510T164 637Q229 695 326
695T487 637Q541 589 567 510T593 342Q593 141 487 46Q424 -12 327 -12T164 46Q58 141 58 342ZM384 815Q397 823 422 823T464 815Q470 795 470 780T464 745Q451 737 423 737T384 745Q377 763 377 780T384 815ZM188 815Q204 823 229 823T268 815Q275 797 275 780T268
745Q257 737 229 737T188 745Q182 764 182 780T188 815Z" />
<glyph unicode="&#xd7;" glyph-name="multiply" horiz-adv-x="530" d="M265 244L129 106Q114 112 101 125T81 154L220 290Q203 305 197 312L81 426Q98 464 129 473L243 358Q248 352 265 335L401 473Q434 463 449 426L310 290Q327 273 333 268L449 154Q434 119
401 106L265 244Z" />
<glyph unicode="&#xd8;" glyph-name="Oslash" horiz-adv-x="652" d="M58 342Q58 431 84 510T164 637Q229 695 316 695T459 658L496 722Q529 718 547 695L505 619Q593 523 593 332T487 46Q422 -12 334 -12T192 24L156 -39Q143 -38 128 -30T104 -12L146 63Q58 161
58 342ZM181 128L429 602Q387 635 329 635T231 609T170 537Q133 455 133 330T181 128ZM518 342Q518 476 470 555L223 80Q265 48 318 48T405 66T461 113T495 182Q518 253 518 342Z" />
<glyph unicode="&#xd9;" glyph-name="Ugrave" horiz-adv-x="666" d="M573 683V232Q573 113 507 51T333 -12T158 51T92 232V680L98 686H127Q149 686 156 676T163 640V233Q163 143 207 95T333 47T458 95T503 233V683Q517 686 538 686T573 683ZM245 878L433 768Q426
739 411 729L208 815Q217 861 245 878Z" />
<glyph unicode="&#xda;" glyph-name="Uacute" horiz-adv-x="666" d="M573 683V232Q573 113 507 51T333 -12T158 51T92 232V680L98 686H127Q149 686 156 676T163 640V233Q163 143 207 95T333 47T458 95T503 233V683Q517 686 538 686T573 683ZM248 768L436 878Q464
861 473 815L270 729Q252 741 248 768Z" />
<glyph unicode="&#xdb;" glyph-name="Ucircumflex" horiz-adv-x="666" d="M573 683V232Q573 113 507 51T333 -12T158 51T92 232V680L98 686H127Q149 686 156 676T163 640V233Q163 143 207 95T333 47T458 95T503 233V683Q517 686 538 686T573 683ZM442 738L333
813L221 733Q196 742 189 767L300 873Q316 876 332 876T366 873L476 771Q469 746 442 738Z" />
<glyph unicode="&#xdc;" glyph-name="Udieresis" horiz-adv-x="666" d="M573 683V232Q573 113 507 51T333 -12T158 51T92 232V680L98 686H127Q149 686 156 676T163 640V233Q163 143 207 95T333 47T458 95T503 233V683Q517 686 538 686T573 683ZM391 815Q404 823
429 823T471 815Q477 795 477 780T471 745Q458 737 430 737T391 745Q384 763 384 780T391 815ZM195 815Q211 823 236 823T275 815Q282 797 282 780T275 745Q264 737 236 737T195 745Q189 764 189 780T195 815Z" />
<glyph unicode="&#xdd;" glyph-name="Yacute" horiz-adv-x="477" d="M246 302Q254 330 287 414L394 683Q407 687 424 687T460 682L463 676L275 223V0Q260 -3 239 -3T204 0V226L16 675Q42 690 65 690T102 655L202 414Q220 373 242 302H246ZM158 768L346 878Q374
861 383 815L180 729Q162 741 158 768Z" />
<glyph unicode="&#xde;" glyph-name="Thorn" horiz-adv-x="557" d="M100 0V683Q113 686 134 686T171 683V575Q288 578 293 578Q391 578 451 523T511 366T452 207T293 151H171V0Q156 -3 135 -3T100 0ZM436 428T404 473T293 518T171 519V210Q213 211 296 211Q377
211 408 263Q436 309 436 368Z" />
<glyph unicode="&#xdf;" glyph-name="germandbls" horiz-adv-x="607" d="M111 0V411L25 410Q22 424 22 439T25 470L111 468V511Q111 599 167 648T315 698T461 646T516 505Q516 471 502 427H500L502 426Q454 414 431 391T408 340T455 273L492 243Q568 181 568 122T521
26T402 -12T275 17Q277 49 303 68Q348 44 394 44T467 64T494 120T447 194L407 228Q338 285 338 338Q338 376 366 408T442 457Q448 478 448 499Q448 563 414 604T313 645T213 608T180 503V0Q165 -3 146 -3T111 0Z" />
<glyph unicode="&#xe0;" glyph-name="agrave" horiz-adv-x="503" d="M445 28Q435 3 413 -7Q365 12 355 65Q278 -12 196 -12Q128 -12 90 31T52 133Q52 213 102 253T239 293Q298 293 352 283V336Q352 441 259 441Q188 441 95 399Q85 407 78 423T70 453Q175 500 264
500Q417 500 417 334V128Q417 55 445 28ZM122 98T143 73T203 47T281 69T352 133V232Q296 240 241 240T154 213T122 142ZM176 718L311 565Q299 542 279 536L117 665Q125 682 141 697T176 718Z" />
<glyph unicode="&#xe1;" glyph-name="aacute" horiz-adv-x="503" d="M445 28Q435 3 413 -7Q365 12 355 65Q278 -12 196 -12Q128 -12 90 31T52 133Q52 213 102 253T239 293Q298 293 352 283V336Q352 441 259 441Q188 441 95 399Q85 407 78 423T70 453Q175 500 264
500Q417 500 417 334V128Q417 55 445 28ZM122 98T143 73T203 47T281 69T352 133V232Q296 240 241 240T154 213T122 142ZM179 565L314 718Q333 712 349 697T373 665L211 536Q188 542 179 565Z" />
<glyph unicode="&#xe2;" glyph-name="acircumflex" horiz-adv-x="503" d="M445 28Q435 3 413 -7Q365 12 355 65Q278 -12 196 -12Q128 -12 90 31T52 133Q52 213 102 253T239 293Q298 293 352 283V336Q352 441 259 441Q188 441 95 399Q85 407 78 423T70 453Q175
500 264 500Q417 500 417 334V128Q417 55 445 28ZM122 98T143 73T203 47T281 69T352 133V232Q296 240 241 240T154 213T122 142ZM336 543L241 637L139 538Q117 548 105 570L212 702Q224 706 239 706T272 703L374 576Q361 550 336 543Z" />
<glyph unicode="&#xe3;" glyph-name="atilde" horiz-adv-x="503" d="M445 28Q435 3 413 -7Q365 12 355 65Q278 -12 196 -12Q128 -12 90 31T52 133Q52 213 102 253T239 293Q298 293 352 283V336Q352 441 259 441Q188 441 95 399Q85 407 78 423T70 453Q175 500 264
500Q417 500 417 334V128Q417 55 445 28ZM122 98T143 73T203 47T281 69T352 133V232Q296 240 241 240T154 213T122 142ZM259 571L197 601Q177 610 159 610T121 584L108 568Q80 570 72 591L81 611Q94 640 118 657T168 674T223 660L285 630Q303 621 321 621T361 647L374
663Q399 661 410 641L401 621Q372 557 312 557Q287 557 259 571Z" />
<glyph unicode="&#xe4;" glyph-name="adieresis" horiz-adv-x="503" d="M445 28Q435 3 413 -7Q365 12 355 65Q278 -12 196 -12Q128 -12 90 31T52 133Q52 213 102 253T239 293Q298 293 352 283V336Q352 441 259 441Q188 441 95 399Q85 407 78 423T70 453Q175 500
264 500Q417 500 417 334V128Q417 55 445 28ZM122 98T143 73T203 47T281 69T352 133V232Q296 240 241 240T154 213T122 142ZM291 572Q284 588 284 605T291 637Q305 646 329 646T366 637Q373 623 373 605T366 572Q355 563 330 563T291 572ZM116 572Q109 588 109
605T116 637Q129 646 153 646T191 637Q198 623 198 605T191 572Q178 563 153 563T116 572Z" />
<glyph unicode="&#xe5;" glyph-name="aring" horiz-adv-x="503" d="M445 28Q435 3 413 -7Q365 12 355 65Q278 -12 196 -12Q128 -12 90 31T52 133Q52 213 102 253T239 293Q298 293 352 283V336Q352 441 259 441Q188 441 95 399Q85 407 78 423T70 453Q175 500 264
500Q417 500 417 334V128Q417 55 445 28ZM122 98T143 73T203 47T281 69T352 133V232Q296 240 241 240T154 213T122 142ZM134 596T134 639T164 712T241 743T317 713T348 639T318 566T241 536T165 566ZM190 664T190 639T204 598T241 582T277 598T292 639T278 680T241
697T205 681Z" />
<glyph unicode="&#xe6;" glyph-name="ae" horiz-adv-x="799" d="M735 224H421Q426 49 553 49Q622 49 699 93Q721 74 725 44Q644 -12 544 -12Q429 -12 383 83Q350 43 301 16T190 -12T90 31T52 134Q52 214 102 253T239 293Q295 293 352 282V336Q352 441 259 441Q188
441 95 399Q85 407 78 423T70 453Q175 500 269 500T400 424Q454 502 546 502T689 442T739 288Q739 256 735 224ZM122 99T143 73T205 47T288 70T363 139Q354 172 351 229Q294 240 239 240T153 214T122 143ZM668 360T639 404T550 449T458 403T421 278H668V290Q668
360 639 404Z" />
<glyph unicode="&#xe7;" glyph-name="ccedilla" horiz-adv-x="469" d="M200 -72Q209 -40 221 -10Q163 -3 124 36Q53 106 53 237T111 435T253 502Q298 502 333 487T388 450Q425 404 425 361T388 317Q376 317 359 320Q359 326 359 341T352 380T318 426T251 447Q194
447 160 393T125 243T159 97T252 48T385 104Q413 86 419 60Q354 0 276 -10Q268 -23 263 -40Q301 -43 326 -66T351 -127T320 -192T244 -218T169 -200Q170 -179 187 -157Q210 -171 237 -171T276 -158T289 -126T277 -95T246 -82T215 -87Q203 -82 200 -72Z" />
<glyph unicode="&#xe8;" glyph-name="egrave" horiz-adv-x="503" d="M440 224H126Q131 49 258 49Q328 49 404 92Q426 73 430 44Q350 -12 249 -12Q178 -12 133 25T71 117T53 246Q53 359 106 430T252 502T394 442T444 288Q444 256 440 224ZM374 361T344 405T255
449T162 403T126 278H374V292Q374 361 344 405ZM190 718L325 565Q313 542 293 536L131 665Q139 682 155 697T190 718Z" />
<glyph unicode="&#xe9;" glyph-name="eacute" horiz-adv-x="503" d="M440 224H126Q131 49 258 49Q328 49 404 92Q426 73 430 44Q350 -12 249 -12Q178 -12 133 25T71 117T53 246Q53 359 106 430T252 502T394 442T444 288Q444 256 440 224ZM374 361T344 405T255
449T162 403T126 278H374V292Q374 361 344 405ZM193 565L328 718Q347 712 363 697T387 665L225 536Q202 542 193 565Z" />
<glyph unicode="&#xea;" glyph-name="ecircumflex" horiz-adv-x="503" d="M440 224H126Q131 49 258 49Q328 49 404 92Q426 73 430 44Q350 -12 249 -12Q178 -12 133 25T71 117T53 246Q53 359 106 430T252 502T394 442T444 288Q444 256 440 224ZM374 361T344 405T255
449T162 403T126 278H374V292Q374 361 344 405ZM350 543L255 637L153 538Q131 548 119 570L226 702Q238 706 253 706T286 703L388 576Q375 550 350 543Z" />
<glyph unicode="&#xeb;" glyph-name="edieresis" horiz-adv-x="503" d="M440 224H126Q131 49 258 49Q328 49 404 92Q426 73 430 44Q350 -12 249 -12Q178 -12 133 25T71 117T53 246Q53 359 106 430T252 502T394 442T444 288Q444 256 440 224ZM374 361T344 405T255
449T162 403T126 278H374V292Q374 361 344 405ZM305 572Q298 588 298 605T305 637Q319 646 343 646T380 637Q387 623 387 605T380 572Q369 563 344 563T305 572ZM130 572Q123 588 123 605T130 637Q143 646 167 646T205 637Q212 623 212 605T205 572Q192 563 167
563T130 572Z" />
<glyph unicode="&#xec;" glyph-name="igrave" horiz-adv-x="253" d="M165 425V0Q152 -3 131 -3T97 0V390Q97 418 88 428T56 438H47Q44 451 44 462T47 489Q76 493 95 493H103Q132 493 148 475T165 425ZM49 718L184 565Q172 542 152 536L-10 665Q-2 682 14 697T49 718Z" />
<glyph unicode="&#xed;" glyph-name="iacute" horiz-adv-x="253" d="M165 425V0Q152 -3 131 -3T97 0V390Q97 418 88 428T56 438H47Q44 451 44 462T47 489Q76 493 95 493H103Q132 493 148 475T165 425ZM52 565L187 718Q206 712 222 697T246 665L84 536Q61 542 52 565Z" />
<glyph unicode="&#xee;" glyph-name="icircumflex" horiz-adv-x="253" d="M165 425V0Q152 -3 131 -3T97 0V390Q97 418 88 428T56 438H47Q44 451 44 462T47 489Q76 493 95 493H103Q132 493 148 475T165 425ZM209 543L114 637L12 538Q-10 548 -22 570L85 702Q97
706 112 706T145 703L247 576Q234 550 209 543Z" />
<glyph unicode="&#xef;" glyph-name="idieresis" horiz-adv-x="253" d="M165 425V0Q152 -3 131 -3T97 0V390Q97 418 88 428T56 438H47Q44 451 44 462T47 489Q76 493 95 493H103Q132 493 148 475T165 425ZM164 572Q157 588 157 605T164 637Q178 646 202 646T239
637Q246 623 246 605T239 572Q228 563 203 563T164 572ZM-11 572Q-18 588 -18 605T-11 637Q2 646 26 646T64 637Q71 623 71 605T64 572Q51 563 26 563T-11 572Z" />
<glyph unicode="&#xf0;" glyph-name="eth" horiz-adv-x="516" d="M130 572L226 639Q181 676 133 698Q141 733 161 744Q226 715 276 674L365 735Q374 729 384 716T395 692L316 638Q464 485 464 242Q464 112 394 41Q341 -12 258 -12T121 41Q51 112 51 237T121 434Q174
487 257 487Q305 487 353 462Q329 535 265 602L159 529Q150 535 141 548T130 572ZM369 103T381 146T393 255T374 393Q323 432 255 432T154 378T122 240T154 99T258 42Q306 42 337 72Z" />
<glyph unicode="&#xf1;" glyph-name="ntilde" horiz-adv-x="545" d="M461 344V92Q461 33 471 9Q456 -6 428 -6Q393 -6 393 39V321Q393 384 377 410T319 437T232 415T158 357V0Q144 -3 124 -3T90 0V487L96 493H122Q144 493 151 482T158 446V426Q191 459 238 479T333
499Q400 499 430 456T461 344ZM295 571L233 601Q213 610 195 610T157 584L144 568Q116 570 108 591L117 611Q130 640 154 657T204 674T259 660L321 630Q339 621 357 621T397 647L410 663Q435 661 446 641L437 621Q408 557 348 557Q323 557 295 571Z" />
<glyph unicode="&#xf2;" glyph-name="ograve" horiz-adv-x="519" d="M466 378T466 245T396 41Q343 -12 260 -12T123 41Q53 112 53 245T123 449Q176 502 259 502T396 449Q466 378 466 245ZM189 449T157 390T124 245T156 101T260 42Q308 42 340 73Q395 128 395 245Q395
330 363 389T260 449ZM194 718L329 565Q317 542 297 536L135 665Q143 682 159 697T194 718Z" />
<glyph unicode="&#xf3;" glyph-name="oacute" horiz-adv-x="519" d="M466 378T466 245T396 41Q343 -12 260 -12T123 41Q53 112 53 245T123 449Q176 502 259 502T396 449Q466 378 466 245ZM189 449T157 390T124 245T156 101T260 42Q308 42 340 73Q395 128 395 245Q395
330 363 389T260 449ZM197 565L332 718Q351 712 367 697T391 665L229 536Q206 542 197 565Z" />
<glyph unicode="&#xf4;" glyph-name="ocircumflex" horiz-adv-x="519" d="M466 378T466 245T396 41Q343 -12 260 -12T123 41Q53 112 53 245T123 449Q176 502 259 502T396 449Q466 378 466 245ZM189 449T157 390T124 245T156 101T260 42Q308 42 340 73Q395 128
395 245Q395 330 363 389T260 449ZM354 543L259 637L157 538Q135 548 123 570L230 702Q242 706 257 706T290 703L392 576Q379 550 354 543Z" />
<glyph unicode="&#xf5;" glyph-name="otilde" horiz-adv-x="519" d="M466 378T466 245T396 41Q343 -12 260 -12T123 41Q53 112 53 245T123 449Q176 502 259 502T396 449Q466 378 466 245ZM189 449T157 390T124 245T156 101T260 42Q308 42 340 73Q395 128 395 245Q395
330 363 389T260 449ZM277 571L215 601Q195 610 177 610T139 584L126 568Q98 570 90 591L99 611Q112 640 136 657T186 674T241 660L303 630Q321 621 339 621T379 647L392 663Q417 661 428 641L419 621Q390 557 330 557Q305 557 277 571Z" />
<glyph unicode="&#xf6;" glyph-name="odieresis" horiz-adv-x="519" d="M466 378T466 245T396 41Q343 -12 260 -12T123 41Q53 112 53 245T123 449Q176 502 259 502T396 449Q466 378 466 245ZM189 449T157 390T124 245T156 101T260 42Q308 42 340 73Q395 128 395
245Q395 330 363 389T260 449ZM309 572Q302 588 302 605T309 637Q323 646 347 646T384 637Q391 623 391 605T384 572Q373 563 348 563T309 572ZM134 572Q127 588 127 605T134 637Q147 646 171 646T209 637Q216 623 216 605T209 572Q196 563 171 563T134 572Z" />
<glyph unicode="&#xf7;" glyph-name="divide" horiz-adv-x="530" d="M215 445T215 467T222 503Q236 512 266 512T308 503Q315 489 315 467T308 431Q296 421 267 421T222 431Q215 445 215 467ZM215 89T215 111T222 147Q237 157 266 157T308 147Q315 133 315 111T308
75Q296 65 267 65T222 75Q215 89 215 111ZM471 258H59Q56 272 56 291T59 323H471Q474 310 474 291T471 258Z" />
<glyph unicode="&#xf8;" glyph-name="oslash" horiz-adv-x="519" d="M397 447Q466 377 466 244T396 41Q343 -12 259 -12Q207 -12 163 10L127 -53Q115 -52 100 -44T79 -26L119 44Q53 114 53 246T123 449Q176 502 259 502Q312 502 352 481L389 544Q401 543 416 535T437
517L397 447ZM331 41T364 100T398 246T365 389L191 60Q221 41 260 41Q331 41 364 100ZM121 245Q121 159 152 104L325 432Q296 450 253 450T178 418Q121 364 121 245Z" />
<glyph unicode="&#xf9;" glyph-name="ugrave" horiz-adv-x="546" d="M84 146V397Q84 457 74 481Q89 496 117 496Q152 496 152 451V169Q152 106 168 80T225 53T312 75T387 132V490Q400 493 421 493T454 490V138Q454 56 482 28Q472 3 450 -7Q401 12 391 67Q357 33
309 12T212 -9Q145 -9 115 34T84 146ZM204 718L339 565Q327 542 307 536L145 665Q153 682 169 697T204 718Z" />
<glyph unicode="&#xfa;" glyph-name="uacute" horiz-adv-x="546" d="M84 146V397Q84 457 74 481Q89 496 117 496Q152 496 152 451V169Q152 106 168 80T225 53T312 75T387 132V490Q400 493 421 493T454 490V138Q454 56 482 28Q472 3 450 -7Q401 12 391 67Q357 33
309 12T212 -9Q145 -9 115 34T84 146ZM207 565L342 718Q361 712 377 697T401 665L239 536Q216 542 207 565Z" />
<glyph unicode="&#xfb;" glyph-name="ucircumflex" horiz-adv-x="546" d="M84 146V397Q84 457 74 481Q89 496 117 496Q152 496 152 451V169Q152 106 168 80T225 53T312 75T387 132V490Q400 493 421 493T454 490V138Q454 56 482 28Q472 3 450 -7Q401 12 391 67Q357
33 309 12T212 -9Q145 -9 115 34T84 146ZM364 543L269 637L167 538Q145 548 133 570L240 702Q252 706 267 706T300 703L402 576Q389 550 364 543Z" />
<glyph unicode="&#xfc;" glyph-name="udieresis" horiz-adv-x="546" d="M84 146V397Q84 457 74 481Q89 496 117 496Q152 496 152 451V169Q152 106 168 80T225 53T312 75T387 132V490Q400 493 421 493T454 490V138Q454 56 482 28Q472 3 450 -7Q401 12 391 67Q357
33 309 12T212 -9Q145 -9 115 34T84 146ZM319 572Q312 588 312 605T319 637Q333 646 357 646T394 637Q401 623 401 605T394 572Q383 563 358 563T319 572ZM144 572Q137 588 137 605T144 637Q157 646 181 646T219 637Q226 623 226 605T219 572Q206 563 181 563T144
572Z" />
<glyph unicode="&#xfd;" glyph-name="yacute" horiz-adv-x="448" d="M432 486L294 17Q256 -113 213 -165T86 -218Q45 -218 8 -205Q8 -202 8 -200Q8 -176 24 -156Q50 -166 87 -166Q142 -166 170 -130T222 -14L225 -4Q200 -2 188 7T166 44L24 485Q51 497 64 497Q91
497 101 464L182 209Q211 116 230 52Q232 45 240 45L364 491Q379 494 397 494T430 489L432 486ZM162 565L297 718Q316 712 332 697T356 665L194 536Q171 542 162 565Z" />
<glyph unicode="&#xfe;" glyph-name="thorn" horiz-adv-x="524" d="M385 498T428 431T472 243T416 58T290 -8T156 35V-168Q156 -193 149 -204T120 -215H96L90 -209V729L96 735H120Q142 735 149 724T156 688V428Q217 498 301 498ZM292 438Q256 438 218 416T156
355V98Q221 52 276 52T367 101T403 248T372 391T292 438Z" />
<glyph unicode="&#xff;" glyph-name="ydieresis" horiz-adv-x="448" d="M432 486L294 17Q256 -113 213 -165T86 -218Q45 -218 8 -205Q8 -202 8 -200Q8 -176 24 -156Q50 -166 87 -166Q142 -166 170 -130T222 -14L225 -4Q200 -2 188 7T166 44L24 485Q51 497 64 497Q91
497 101 464L182 209Q211 116 230 52Q232 45 240 45L364 491Q379 494 397 494T430 489L432 486ZM274 572Q267 588 267 605T274 637Q288 646 312 646T349 637Q356 623 356 605T349 572Q338 563 313 563T274 572ZM99 572Q92 588 92 605T99 637Q112 646 136 646T174
637Q181 623 181 605T174 572Q161 563 136 563T99 572Z" />
<glyph unicode="&#x2013;" glyph-name="endash" horiz-adv-x="514" d="M447 233H67Q64 246 64 263T67 295H447Q450 280 450 263T447 233Z" />
<glyph unicode="&#x2014;" glyph-name="emdash" horiz-adv-x="788" d="M704 233H83Q80 246 80 263T83 295H704Q707 280 707 263T704 233Z" />
<glyph unicode="&#x2018;" glyph-name="quoteleft" horiz-adv-x="201" d="M55 527Q45 547 45 585Q45 696 152 743Q162 738 168 728T174 707Q116 674 114 622Q144 619 154 612Q162 598 162 568T154 527Q136 518 102 518T55 527Z" />
<glyph unicode="&#x2019;" glyph-name="quoteright" horiz-adv-x="201" d="M146 731Q156 713 156 674Q156 562 49 515Q39 519 33 530T27 552Q85 585 87 637Q57 640 47 647Q39 661 39 690T47 731Q67 741 100 741T146 731Z" />
<glyph unicode="&#x201a;" glyph-name="quotesinglbase" horiz-adv-x="202" d="M154 85Q164 67 164 28Q164 -83 57 -130Q47 -126 41 -116T35 -94Q93 -61 95 -9Q65 -6 55 1Q47 15 47 44T55 85Q75 95 108 95T154 85Z" />
<glyph unicode="&#x201c;" glyph-name="quotedblleft" horiz-adv-x="368" d="M55 527Q45 547 45 585Q45 696 152 743Q162 738 168 728T174 707Q116 674 114 622Q144 619 154 612Q162 598 162 568T154 527Q136 518 102 518T55 527ZM222 527Q212 547 212 585Q212
696 319 743Q329 738 335 728T341 707Q283 674 281 622Q311 619 321 612Q329 598 329 568T321 527Q303 518 269 518T222 527Z" />
<glyph unicode="&#x201d;" glyph-name="quotedblright" horiz-adv-x="368" d="M146 731Q156 713 156 674Q156 562 49 515Q39 519 33 530T27 552Q85 585 87 637Q57 640 47 647Q39 661 39 690T47 731Q67 741 100 741T146 731ZM313 731Q323 713 323 674Q323 562 216
515Q206 519 200 530T194 552Q252 585 254 637Q224 640 214 647Q206 661 206 690T214 731Q234 741 267 741T313 731Z" />
<glyph unicode="&#x201e;" glyph-name="quotedblbase" horiz-adv-x="369" d="M154 85Q164 67 164 28Q164 -83 57 -130Q47 -126 41 -116T35 -94Q93 -61 95 -9Q65 -6 55 1Q47 15 47 44T55 85Q75 95 108 95T154 85ZM321 85Q331 67 331 28Q331 -83 224 -130Q214 -126
208 -116T202 -94Q260 -61 262 -9Q232 -6 222 1Q214 15 214 44T222 85Q242 95 275 95T321 85Z" />
<glyph unicode="&#x2022;" glyph-name="bullet" horiz-adv-x="437" d="M134 195Q120 221 120 273T134 349Q164 367 219 367Q239 367 266 362T303 349Q316 328 316 274T303 195Q294 188 267 183T219 177Q164 177 134 195Z" />
<glyph unicode="&#x2039;" glyph-name="guilsinglleft" horiz-adv-x="320" d="M273 423L124 256L279 83Q267 56 239 44L44 230Q39 242 39 255T44 280L233 462Q261 450 273 423Z" />
<glyph unicode="&#x203a;" glyph-name="guilsinglright" horiz-adv-x="320" d="M46 83L196 250L40 423Q52 450 80 462L275 276Q280 264 280 251T275 226L86 44Q58 56 46 83Z" />
</font>
</defs>
</svg>
