<?xml version="1.0" standalone="no"?>
<!DOCTYPE svg PUBLIC "-//W3C//DTD SVG 1.1//EN" "http://www.w3.org/Graphics/SVG/1.1/DTD/svg11.dtd">
<svg xmlns="http://www.w3.org/2000/svg">
<defs >
<font id="FrankRuhlLibre" horiz-adv-x="497" ><font-face
    font-family="Frank Ruhl Libre Light"
    units-per-em="1000"
    panose-1="0 0 4 0 0 0 0 0 0 0"
    ascent="957"
    descent="-334"
    alphabetic="0" />
<glyph unicode=" " glyph-name="space" horiz-adv-x="242" />
<glyph unicode="!" glyph-name="exclam" horiz-adv-x="267" d="M95 536Q93 549 91 578T88 622Q88 675 134 675Q159 675 169 661T179 616Q179 601 178 589T176 566L173 536L149 166H118L95 536ZM114 -9T101 4T88 37Q88 56 101 70T133 84Q152 84 165 70T179 37Q179
18 166 5T133 -9Q114 -9 101 4Z" />
<glyph unicode="&quot;" glyph-name="quotedbl" horiz-adv-x="287" d="M76 487T74 491T69 506L55 596Q49 626 49 641Q49 675 83 675Q104 675 110 666T117 641Q117 623 113 596L98 506Q97 496 94 492T83 487Q76 487 74 491ZM190 487T189 506L174 596Q170 636 170
641Q170 656 176 665T204 675Q238 675 238 641Q238 626 232 596L218 506Q217 496 214 492T204 487Q190 487 189 506Z" />
<glyph unicode="#" glyph-name="numbersign" d="M375 405L353 244H447V208H348L319 0H277L306 208H160L131 0H89L118 208H24V244H123L145 405H50V441H150L180 660H222L192 441H338L368 660H410L380 441H473V405H375ZM333 405H187L165 244H311L333 405Z" />
<glyph unicode="$" glyph-name="dollar" horiz-adv-x="523" d="M470 85T415 40T272 -11V-97H234V-11Q160 -7 106 27T52 116Q52 145 66 159T104 174Q127 174 140 162T153 124Q153 110 141 96Q137 91 134 86T131 74Q131 54 162 38T234 19V313L218 320Q138 355 97
397T56 509Q56 590 106 628T234 671V732H272V671Q343 667 392 633T442 544Q442 515 428 501T390 486Q367 486 354 498T341 536Q341 550 353 564Q357 569 360 574T363 586Q363 606 336 622T272 643V378L294 369Q350 344 385 323T445 264T470 171Q470 85 415 40ZM132
475T155 447T234 395V643Q187 638 160 609T132 522Q132 475 155 447ZM330 26T362 66T394 159Q394 206 366 237T278 294L272 297V19Q330 26 362 66Z" />
<glyph unicode="%" glyph-name="percent" horiz-adv-x="848" d="M154 323T116 371T78 498Q78 575 116 623T215 672Q277 672 315 624T353 498Q353 419 315 371T215 323Q154 323 116 371ZM587 672H625L257 -12H220L587 672ZM262 341T281 379T301 498Q301 577 282
615T215 654Q169 654 150 616T130 498Q130 418 149 380T215 341Q262 341 281 379ZM571 -12T533 36T495 163Q495 240 533 288T632 337Q694 337 732 289T770 163Q770 84 732 36T632 -12Q571 -12 533 36ZM679 6T698 44T718 163Q718 242 699 280T632 319Q586 319 567
281T547 163Q547 83 566 45T632 6Q679 6 698 44Z" />
<glyph unicode="&amp;" glyph-name="ampersand" horiz-adv-x="717" d="M549 72T591 50T675 27V0H632Q577 0 540 11T472 49Q394 -12 270 -12Q161 -12 102 33T42 153Q42 218 82 263T192 350Q142 406 127 443T111 512Q111 594 158 633T277 672Q349 672 394 636T439
542Q439 500 416 468T361 415T277 365L498 122Q526 154 541 194T556 272Q556 295 541 309T476 324V350H671V324Q638 324 622 318T600 302T591 275Q583 230 568 185T520 98Q549 72 591 50ZM234 645T206 618T177 542Q177 504 196 469T255 388Q326 431 352 462T379
541Q379 593 353 619T282 645Q234 645 206 618ZM120 113T171 75T303 36Q383 36 445 76L214 326Q120 258 120 177Q120 113 171 75Z" />
<glyph unicode="&apos;" glyph-name="quotesingle" horiz-adv-x="166" d="M76 487T73 491T69 506L54 596Q49 629 49 641Q49 675 83 675Q117 675 117 641Q117 629 112 596L98 506Q96 496 93 492T83 487Q76 487 73 491Z" />
<glyph unicode="(" glyph-name="parenleft" horiz-adv-x="335" d="M186 -115T137 -1T88 266Q88 419 137 533T312 657V637Q258 624 220 570T163 435T144 266Q144 177 163 98T221 -37T312 -106V-124Q186 -115 137 -1Z" />
<glyph unicode=")" glyph-name="parenright" horiz-adv-x="335" d="M23 -106Q76 -92 114 -37T171 97T191 266Q191 355 172 435T115 569T23 637V657Q149 647 198 533T247 266Q247 113 198 -1T23 -124V-106Z" />
<glyph unicode="*" glyph-name="asterisk" horiz-adv-x="336" d="M153 353T144 359T137 375L151 479L148 480L65 415Q60 412 56 412Q43 412 31 431Q25 443 25 453Q25 465 34 469L132 509V512L35 552Q24 557 24 568Q24 577 31 589Q43 609 56 609Q59 609 65 605L149
540L151 541L137 646Q136 656 144 661T167 667Q182 667 191 662T198 646L184 540L185 539L270 605Q276 609 279 609Q291 609 303 589Q311 576 311 567Q311 556 300 551L202 511L201 509L300 469Q311 464 311 454Q311 444 303 431Q291 412 279 412Q276 412 270 416L186
481L184 479L198 375Q199 364 191 359T167 353Q153 353 144 359Z" />
<glyph unicode="+" glyph-name="plus" horiz-adv-x="541" d="M244 209H36V260H244V469H296V260H505V209H296V0H244V209Z" />
<glyph unicode="," glyph-name="comma" horiz-adv-x="248" d="M78 -69Q107 -60 120 -48T133 -15Q133 0 119 2Q103 4 91 14T78 48Q78 70 92 82T126 95Q147 95 160 79T174 31Q174 -11 153 -46T83 -92L78 -69Z" />
<glyph unicode="-" glyph-name="hyphen" horiz-adv-x="319" d="M57 276H262V217H57V276Z" />
<glyph unicode="." glyph-name="period" horiz-adv-x="262" d="M112 -9T99 4T85 37Q85 56 98 70T131 84Q150 84 163 70T177 37Q177 18 164 5T131 -9Q112 -9 99 4Z" />
<glyph unicode="/" glyph-name="slash" horiz-adv-x="341" d="M296 672H340L45 -12H1L296 672Z" />
<glyph unicode="0" glyph-name="zero" horiz-adv-x="559" d="M209 -12T159 30T82 149T55 330Q55 434 81 511T158 630T279 672Q349 672 400 630T477 511T504 330Q504 226 478 149T400 30T279 -12Q209 -12 159 30ZM333 16T364 48T410 148T424 330Q424 444 410 512T365
612T279 644Q225 644 194 612T149 512T135 330Q135 209 148 142T193 45T279 16Q333 16 364 48Z" />
<glyph unicode="1" glyph-name="one" horiz-adv-x="458" d="M110 27H156Q194 27 206 36T218 76V590Q155 556 75 523V556Q116 576 163 608T233 660H290V76Q290 46 302 37T352 27H398V0H110V27Z" />
<glyph unicode="2" glyph-name="two" horiz-adv-x="531" d="M50 8Q50 67 93 129T225 269Q232 275 277 314T347 402T372 505Q372 572 339 608T244 644Q203 644 176 627T148 586Q148 580 151 575T158 564Q170 550 170 536Q170 511 157 499T121 486Q97 486 83 500T69
544Q69 603 124 637T257 672Q350 672 401 624T452 493Q452 442 433 405T383 340T296 272Q199 200 156 156T113 76H335Q376 76 398 83T429 104T443 140H471L436 0H50V8Z" />
<glyph unicode="3" glyph-name="three" horiz-adv-x="539" d="M157 -12T101 22T45 116Q45 146 59 160T99 174Q121 174 133 163T146 129Q146 118 144 112T135 96Q126 85 126 75Q126 51 156 34T231 16Q305 16 344 61T384 187Q384 267 345 306T227 346Q203 346 188
345V377Q200 376 227 376Q286 376 320 411T354 510Q354 570 323 607T235 644Q196 644 169 627T141 585Q141 575 150 564Q156 555 158 549T161 531Q161 508 149 497T114 486Q89 486 75 500T60 544Q60 603 116 637T253 672Q338 672 386 631T434 515Q434 453 402 415T309
366V364Q378 362 421 314T464 186Q464 94 404 41T240 -12Q157 -12 101 22Z" />
<glyph unicode="4" glyph-name="four" horiz-adv-x="523" d="M244 27H287Q307 27 313 36T320 66V189H35V240Q175 457 338 668H390V245H483V189H390V66Q390 44 395 36T421 27H456V0H244V27ZM320 245V585H317Q207 443 76 245H320Z" />
<glyph unicode="5" glyph-name="five" horiz-adv-x="519" d="M146 -12T101 17T55 98Q55 128 69 143T109 159Q131 159 143 147T156 110Q156 90 144 76Q136 64 136 55Q136 34 159 25T218 16Q291 16 332 58T374 192Q374 276 338 319T231 362Q193 362 165 349T108
309H89L116 660H360Q384 660 392 665T408 684H431L404 587H140L120 357L123 356Q187 407 273 407Q360 407 407 353T454 212Q454 146 426 95T345 16T220 -12Q146 -12 101 17Z" />
<glyph unicode="6" glyph-name="six" horiz-adv-x="540" d="M170 -12T113 65T55 278Q55 396 99 485T224 624T416 679V652Q335 646 274 603T176 483T133 306H134Q159 362 202 392T298 422Q345 422 387 397T454 323T480 205Q480 143 455 94T382 16T272 -12Q170 -12
113 65ZM337 16T370 63T403 195Q403 280 370 323T273 366Q208 366 170 323T132 202Q132 125 169 71T275 16Q337 16 370 63Z" />
<glyph unicode="7" glyph-name="seven" horiz-adv-x="511" d="M174 -12T166 4T158 51Q158 188 269 377Q295 421 336 487T403 587H147Q113 587 100 577T74 537L67 520H40L58 660H451V597Q421 559 381 494T314 380Q278 314 261 260T239 160T234 47Q234 19 226 4T196
-12Q174 -12 166 4Z" />
<glyph unicode="8" glyph-name="eight" horiz-adv-x="519" d="M153 -12T102 30T50 147Q50 203 84 249T199 339Q132 380 104 420T76 509Q76 564 105 600T178 654T271 672Q339 672 389 638T440 530Q440 481 413 438T323 355Q395 312 427 270T459 171Q459 119 435
78T362 12T245 -12Q153 -12 102 30ZM349 405T372 441T396 521Q396 576 362 610T268 644Q213 644 176 615T138 533Q138 502 154 479T200 434T298 371Q349 405 372 441ZM314 16T355 50T397 144Q397 177 381 201T330 252T220 324Q164 291 129 247T94 149Q94 89 138
53T250 16Q314 16 355 50Z" />
<glyph unicode="9" glyph-name="nine" horiz-adv-x="540" d="M124 8Q205 14 266 57T364 177T407 354H406Q382 299 339 269T243 238Q196 238 154 264T86 341T60 459Q60 519 85 567T158 644T269 672Q371 672 428 595T485 381Q485 263 441 175T316 36T124 -19V8ZM332
294T370 337T408 458Q408 535 372 589T266 644Q204 644 171 597T137 468Q137 385 171 340T269 294Q332 294 370 337Z" />
<glyph unicode=":" glyph-name="colon" horiz-adv-x="262" d="M112 295T99 308T85 340Q85 358 99 372T132 387Q151 387 164 373T177 340Q177 321 165 308T132 295Q112 295 99 308ZM112 -9T99 4T85 37Q85 56 99 70T132 84Q151 84 164 70T177 37Q177 17 164 4T132
-9Q112 -9 99 4Z" />
<glyph unicode=";" glyph-name="semicolon" horiz-adv-x="254" d="M112 294T99 307T85 340Q85 359 98 373T131 387Q150 387 163 373T177 340Q177 321 164 308T131 294Q112 294 99 307ZM83 -69Q112 -60 125 -48T138 -15Q138 0 124 2Q108 4 96 14T83 48Q83 70 97
82T131 95Q152 95 165 79T179 31Q179 -11 158 -46T88 -92L83 -69Z" />
<glyph unicode="&lt;" glyph-name="less" horiz-adv-x="594" d="M62 208V261L531 476V419L127 235L531 50V-7L62 208Z" />
<glyph unicode="=" glyph-name="equal" horiz-adv-x="541" d="M36 351H505V299H36V351ZM36 170H505V118H36V170Z" />
<glyph unicode="&gt;" glyph-name="greater" horiz-adv-x="594" d="M63 50L466 235L63 419V476L532 261V208L63 -7V50Z" />
<glyph unicode="?" glyph-name="question" horiz-adv-x="450" d="M181 209Q181 261 198 295T248 369Q282 411 299 446T316 536Q316 589 293 620T225 651Q193 651 165 640T136 605Q136 597 139 592T148 581Q156 574 160 567T164 545Q164 525 153 514T120 502Q98
502 86 519T73 563Q73 616 117 645T227 675Q301 675 348 642T396 537Q396 496 382 463T349 405T296 347Q255 306 235 277T215 209V166H181V209ZM179 -9T166 4T153 37Q153 56 166 70T199 84Q218 84 231 70T245 37Q245 18 232 5T199 -9Q179 -9 166 4Z" />
<glyph unicode="@" glyph-name="at" horiz-adv-x="726" d="M253 -10T183 26T74 131T35 292Q35 396 83 481T215 614T398 662Q483 662 549 627T653 530T691 394Q691 327 663 274T589 191T495 161Q459 161 439 178T418 223Q418 233 423 250L436 288L433 290Q405 229
359 195T268 161Q202 161 202 237Q202 287 226 350T301 459T424 505Q460 505 491 485L496 501H540L475 267Q470 250 470 239Q470 195 520 195Q559 195 592 222T645 295T664 392Q664 459 631 511T538 593T406 622Q314 622 239 577T122 457T79 296Q79 231 105 170T194
68T360 27Q438 27 517 49L522 32Q450 -10 347 -10Q253 -10 183 26ZM328 198T358 220T413 280T454 366L485 465Q455 483 429 483Q379 483 340 441T279 342T256 250Q256 226 267 212T301 198Q328 198 358 220Z" />
<glyph unicode="A" glyph-name="A" horiz-adv-x="632" d="M562 59T569 47T589 31T627 27V0H423V27H456Q486 27 486 51Q486 62 482 73L416 254H184L116 71Q112 55 112 50Q112 27 140 27H169V0H9V27Q35 27 49 32T70 51T88 93L302 660H342L554 85Q562 59 569 47ZM403
288L302 564H299L197 288H403Z" />
<glyph unicode="B" glyph-name="B" horiz-adv-x="606" d="M53 27Q91 27 106 31T125 46T129 89V571Q129 601 125 612T106 628T53 633V660H279Q395 660 461 622T527 508Q527 455 493 415T400 362V360Q468 349 513 301T558 179Q558 91 492 46T299 0H53V27ZM288 372Q369
372 408 402T447 497Q447 573 400 601T273 629Q240 629 226 625T208 611T204 579V372H288ZM476 30T476 180Q476 256 430 298T292 340H204V107Q204 75 211 59T236 37T290 30Q476 30 476 180Z" />
<glyph unicode="C" glyph-name="C" horiz-adv-x="649" d="M265 -12T197 29T93 146T57 322Q57 428 94 507T201 629T370 672Q413 672 442 665T500 645Q523 635 534 635Q543 635 549 639T557 649L560 660H587L597 486H570Q551 551 509 596T375 642Q291 642 240 594T167
474T145 329Q145 248 170 178T247 63T379 18Q437 18 475 37T534 84T575 155L600 142Q581 99 556 67T483 12T359 -12Q265 -12 197 29Z" />
<glyph unicode="D" glyph-name="D" horiz-adv-x="713" d="M53 27Q91 27 106 31T125 46T129 89V571Q129 601 125 612T106 628T53 633V660H339Q488 658 572 575T656 342Q656 235 616 158T500 41T320 0H53V27ZM421 30T494 99T568 338Q568 469 508 547T313 629Q259
629 238 626T210 611T203 572V119Q203 81 213 62T244 37T302 30Q421 30 494 99Z" />
<glyph unicode="E" glyph-name="E" horiz-adv-x="580" d="M53 27Q91 27 106 31T125 46T129 89V571Q129 601 125 612T106 628T53 633V660H504V504H477Q470 558 458 583T417 619T331 629H238Q215 629 209 623T203 592V360H325Q365 360 383 367T407 391T419 442H443V243H419Q414
279 408 294T383 318T325 326H203V114Q203 77 212 60T247 36T326 30Q392 30 427 39T481 77T512 165H539L528 0H53V27Z" />
<glyph unicode="F" glyph-name="F" horiz-adv-x="541" d="M53 27Q91 27 106 31T125 47T129 89V571Q129 601 125 612T106 628T53 633V660H508V508H481Q474 560 462 585T421 619T333 629H239Q215 629 210 623T204 592V346H327Q367 346 385 354T409 378T421 430H444V226H421Q416
262 410 278T385 302T327 310H204V89Q204 59 208 48T231 32T295 27V0H53V27Z" />
<glyph unicode="G" glyph-name="G" horiz-adv-x="650" d="M262 -12T195 30T93 148T57 326Q57 430 94 508T201 629T369 672Q412 672 440 665T497 646Q524 635 535 635Q544 635 551 639T560 649L565 660H587L597 486H570Q551 548 507 595T376 642Q292 642 241 594T167
474T145 326Q145 246 169 176T248 62T388 18Q443 18 481 39T519 116V230Q519 274 471 274H455V301H639V274H628Q593 274 593 241V-3H577Q572 9 565 15T545 21Q532 21 492 10Q450 -1 421 -6T354 -12Q262 -12 195 30Z" />
<glyph unicode="H" glyph-name="H" horiz-adv-x="750" d="M53 27Q91 27 106 31T125 45T129 83V577Q129 603 125 613T106 628T53 633V660H279V633Q242 633 227 629T207 614T203 577V361H547V577Q547 603 543 613T524 628T471 633V660H697V633Q660 632 645 628T625
614T621 577V83Q621 56 625 46T644 31T697 27V0H471V27Q509 27 524 31T543 45T547 83V325H203V83Q203 56 207 46T226 31T279 27V0H53V27Z" />
<glyph unicode="I" glyph-name="I" horiz-adv-x="331" d="M53 27Q91 27 106 31T125 47T129 89V571Q129 601 125 612T106 628T53 633V660H279V633Q241 633 226 629T207 613T203 571V89Q203 59 207 48T226 32T279 27V0H53V27Z" />
<glyph unicode="J" glyph-name="J" horiz-adv-x="356" d="M34 -210T-1 -184T-36 -119Q-36 -93 -22 -77T19 -60Q41 -60 54 -71T68 -105Q68 -125 55 -138Q51 -141 49 -145T46 -156Q46 -169 55 -176T82 -183Q130 -183 149 -136T169 -6V571Q169 601 165 612T146 628T93
633V660H319V633Q281 633 266 629T247 613T243 571V65Q243 -59 210 -134T86 -210Q34 -210 -1 -184Z" />
<glyph unicode="K" glyph-name="K" horiz-adv-x="609" d="M526 66T551 47T604 27V0H386V27H407Q416 27 422 33T428 49Q428 61 418 74L219 333L203 318V89Q203 59 207 48T226 32T279 27V0H53V27Q91 27 106 31T125 47T129 89V571Q129 601 125 612T106 628T53 633V660H279V633Q241
633 226 629T207 613T203 571V354L454 590Q470 606 470 618Q470 633 448 633H420V660H580V633Q555 633 540 623T485 578L469 563L274 384L507 89Q526 66 551 47Z" />
<glyph unicode="L" glyph-name="L" horiz-adv-x="565" d="M53 27Q91 27 106 31T125 46T129 89V571Q129 601 125 612T106 628T53 633V660H279V633Q241 633 226 629T207 613T203 571V114Q203 77 212 60T247 36T326 30Q389 30 421 39T472 77T502 165H529L518 0H53V27Z" />
<glyph unicode="M" glyph-name="M" horiz-adv-x="819" d="M38 27H65Q95 27 103 37T112 80V576Q112 602 108 613T88 629T38 633V660H193L405 161H406L620 660H766V633Q730 633 715 629T695 614T690 576V83Q690 58 695 47T715 31T766 27V0H538V27Q575 27 591 31T611
47T616 83V570H614L388 42H378L148 570H146V80Q146 55 148 45T161 31T196 27H228V0H38V27Z" />
<glyph unicode="N" glyph-name="N" horiz-adv-x="691" d="M154 570H152V79Q152 51 163 39T202 27H238V0H42V27H71Q95 27 106 39T118 79V576Q118 602 113 613T93 629T41 633V660H194L540 137H542V585Q542 633 491 633H456V660H652V633H622Q576 633 576 585V-6H543L154
570Z" />
<glyph unicode="O" glyph-name="O" horiz-adv-x="701" d="M252 -12T187 32T89 152T57 327Q57 423 88 501T185 625T351 672Q451 672 517 626T614 501T645 327Q645 229 613 153T516 32T351 -12Q252 -12 187 32ZM472 18T514 110T557 327Q557 465 516 553T351 642Q228
642 187 554T145 327Q145 203 187 111T351 18Q472 18 514 110Z" />
<glyph unicode="P" glyph-name="P" horiz-adv-x="553" d="M53 27Q89 27 104 31T124 47T129 83V576Q129 602 124 613T104 628T53 633V660H278Q388 660 451 615T515 473Q515 374 450 323T278 272H203V83Q203 57 208 46T230 31T287 27V0H53V27ZM267 306Q352 306 392
344T433 466Q433 550 392 588T265 627Q226 627 215 619T203 592V306H267Z" />
<glyph unicode="Q" glyph-name="Q" horiz-adv-x="701" d="M527 -115T557 -90L574 -109Q550 -130 525 -141T467 -153Q404 -153 368 -112T328 -11Q193 -4 125 89T57 326Q57 422 88 500T185 625T351 672Q451 672 517 626T614 501T645 326Q645 193 587 103T414 -7Q416
-50 438 -82T497 -115Q527 -115 557 -90ZM145 18T351 18Q557 18 557 336Q557 467 515 554T351 642Q229 642 187 555T145 336Q145 18 351 18Z" />
<glyph unicode="R" glyph-name="R" horiz-adv-x="578" d="M53 27Q89 27 104 31T124 47T129 83V576Q129 602 124 613T104 628T53 633V660H298Q393 660 448 620T504 496Q504 430 468 388T370 328V327Q415 312 438 283T473 185L481 138Q491 77 507 52T560 27V0H450Q436
15 428 36T412 92L391 206Q380 263 353 287T268 311H203V83Q203 57 208 46T230 31T287 27V0H53V27ZM267 345Q347 345 385 378T423 485Q423 559 385 593T265 627Q227 627 215 619T203 592V345H267Z" />
<glyph unicode="S" glyph-name="S" horiz-adv-x="519" d="M49 182H76Q81 111 129 65T250 18Q319 18 356 59T394 159Q394 206 366 237T278 294L218 320Q138 355 97 397T56 509Q56 595 113 633T255 672Q291 672 313 666T355 650Q371 643 377 643Q386 643 390 651T396
672H420L430 498H403Q397 559 359 600T251 642Q196 642 164 614T132 522Q132 474 155 446T236 394L294 369Q350 344 385 323T445 264T470 171Q470 80 408 34T252 -12Q215 -12 191 -7T138 9Q119 17 109 17Q90 17 88 -12H61L49 182Z" />
<glyph unicode="T" glyph-name="T" horiz-adv-x="570" d="M153 27Q201 27 219 31T243 47T248 89V630H190Q132 630 105 620T65 584T47 502H20V660H550V502H523Q517 558 505 584T465 620T380 630H322V89Q322 59 326 48T350 32T417 27V0H153V27Z" />
<glyph unicode="U" glyph-name="U" horiz-adv-x="719" d="M241 -12T182 49T122 235V571Q122 601 118 612T99 628T46 633V660H272V633Q234 633 219 629T200 613T196 571V226Q196 131 237 75T361 18Q443 18 484 74T526 226V571Q526 601 522 612T503 628T450 633V660H676V633Q638
633 623 629T604 613T600 571V235Q600 110 541 49T361 -12Q241 -12 182 49Z" />
<glyph unicode="V" glyph-name="V" horiz-adv-x="640" d="M90 576Q80 602 71 614T48 629T6 633V660H232V633H180Q168 633 163 629T158 617Q158 609 162 598L337 105L339 103L517 603Q519 613 519 617Q519 625 514 629T496 633H449V660H630V633Q606 633 595 630T575
617T557 583L335 0H297L90 576Z" />
<glyph unicode="W" glyph-name="W" horiz-adv-x="907" d="M94 570Q85 600 78 612T57 629T13 633V660H222V633H182Q170 633 164 629T158 616Q158 612 162 594L294 114H296L442 643H483L645 114H648L770 597Q772 607 772 612Q772 633 749 633H709V660H897V633Q866
633 851 629T827 611T808 569L647 0H605L445 529H443L294 0H250L94 570Z" />
<glyph unicode="X" glyph-name="X" horiz-adv-x="660" d="M550 57T561 47T589 32T642 27V0H391V27H443Q454 27 459 31T465 43Q465 52 459 61L308 304H306L157 60Q152 53 152 42Q152 27 168 27H229V0H19V27Q62 27 80 36T121 79L287 333L137 572Q120 600 108 612T80
628T33 633V660H259V633H210Q194 633 194 620Q194 613 202 600L336 389H338L479 601Q487 614 487 622Q487 633 470 633H422V660H615V633Q584 633 568 630T538 614T505 574L356 360L534 82Q550 57 561 47Z" />
<glyph unicode="Y" glyph-name="Y" horiz-adv-x="611" d="M592 660V633Q563 633 549 628T526 612T500 570L353 271V89Q353 59 357 48T380 32T444 27V0H188V27Q233 27 251 31T274 47T279 89V257L108 585Q92 615 77 624T24 633V660H240V633H190Q175 633 175 619Q175
614 180 604L330 310H332L474 602Q479 614 479 619Q479 633 463 633H408V660H592Z" />
<glyph unicode="Z" glyph-name="Z" horiz-adv-x="566" d="M26 27L454 630H274Q207 630 175 620T128 583T108 496H81V660H534V633L106 30H303Q382 30 422 40T482 79T512 170H540L530 0H26V27Z" />
<glyph unicode="[" glyph-name="bracketleft" horiz-adv-x="291" d="M99 660H247V632H155V-94H247V-122H99V660Z" />
<glyph unicode="\" glyph-name="backslash" horiz-adv-x="345" d="M1 672H49L344 -12H296L1 672Z" />
<glyph unicode="]" glyph-name="bracketright" horiz-adv-x="291" d="M44 -94H136V632H44V660H192V-122H44V-94Z" />
<glyph unicode="^" glyph-name="asciicircum" horiz-adv-x="562" d="M259 660H307L477 322H419L283 593L147 322H89L259 660Z" />
<glyph unicode="_" glyph-name="underscore" horiz-adv-x="464" d="M0 -70H464V-111H0V-70Z" />
<glyph unicode="`" glyph-name="grave" horiz-adv-x="382" d="M121 674Q106 690 102 697T97 715Q97 728 106 737T127 747Q140 747 149 740T166 716L242 562H224L121 674Z" />
<glyph unicode="a" glyph-name="a" horiz-adv-x="477" d="M463 13Q445 3 429 -3T383 -10Q359 -10 345 1T328 52Q288 19 254 4T177 -12Q121 -12 87 13T53 89Q53 160 123 212T327 284V340Q327 396 306 424T237 452Q211 452 187 445T148 426T133 405Q133 399 142
392T158 378T164 355Q164 336 154 325T123 313Q102 313 90 326T78 364Q78 393 96 419T152 462T250 479Q322 479 357 449T393 345V98Q393 59 401 45T429 30Q439 30 457 36L463 13ZM129 69T150 51T209 32Q241 32 269 45T327 80V256Q129 217 129 106Q129 69 150 51Z"
/>
<glyph unicode="b" glyph-name="b" horiz-adv-x="554" d="M412 479T458 419T504 241Q504 111 451 50T306 -12Q228 -12 171 41H170L136 0H109V601Q109 628 103 636T78 645H39V672L148 693H175V431H177Q236 479 323 479Q412 479 458 419ZM361 14T394 66T428 235Q428
339 399 395T305 452Q237 452 175 394V73Q228 14 296 14Q361 14 394 66Z" />
<glyph unicode="c" glyph-name="c" horiz-adv-x="476" d="M196 -12T148 19T75 106T50 230Q50 296 73 352T145 444T272 479Q336 479 383 455T430 380Q430 357 419 343T383 328Q360 328 348 340T335 373Q335 386 339 393T351 409T359 424Q359 437 337 444T284 452Q126
452 126 233Q126 118 166 67T276 15Q334 15 367 43T413 102L437 89Q341 -55 371 -12T364 10T265 -12Q196 -12 148 19Z" />
<glyph unicode="d" glyph-name="d" horiz-adv-x="534" d="M511 27V0H389L382 48Q317 -12 231 -12Q142 -12 96 48T50 226Q50 356 103 417T248 479Q322 479 377 432H379V601Q379 628 373 636T348 645H309V672L418 693H445V71Q445 44 451 36T476 27H511ZM315 15T379
81V394Q326 453 258 453Q193 453 160 401T126 232Q126 128 155 72T249 15Q315 15 379 81Z" />
<glyph unicode="e" glyph-name="e" horiz-adv-x="500" d="M126 230Q126 15 276 15Q341 15 376 49T425 131L450 123Q433 62 389 25T260 -12Q153 -12 102 51T50 227Q50 344 103 411T262 479Q377 479 415 408T454 237V230H126ZM135 452T127 257H378Q378 356 351 404T261
452Q135 452 127 257Z" />
<glyph unicode="f" glyph-name="f" horiz-adv-x="301" d="M36 27Q72 27 85 30T103 44T107 83V434H34V467H107V532Q107 613 140 659T246 705Q300 705 327 682T355 621Q355 600 343 586T312 572Q293 572 282 583T270 613Q270 624 273 630T284 644T291 659Q291 666
279 672T251 678Q216 678 195 650T173 567V467H284V434H173V82Q173 55 178 45T200 31T263 27V0H36V27Z" />
<glyph unicode="g" glyph-name="g" horiz-adv-x="567" d="M504 479T523 461T542 416Q542 396 532 384T503 371Q486 371 475 381T464 406Q464 411 466 417T468 429Q468 437 462 442T447 447Q432 447 405 410Q429 373 429 322Q429 243 376 205T247 167Q211 167 183
175Q117 144 117 105Q117 56 222 56H283Q380 56 422 27T464 -60Q464 -138 401 -175T238 -212Q149 -212 95 -183T40 -94Q40 -61 59 -36T123 7Q94 16 78 38T61 84Q61 112 83 138T151 186Q111 204 88 237T65 322Q65 401 118 440T247 479Q289 479 326 467T388 430Q425
479 472 479Q504 479 523 461ZM306 194T330 227T355 328Q355 386 329 419T247 452Q192 452 166 418T139 320Q139 262 163 228T242 194Q306 194 330 227ZM168 0Q133 -13 119 -36T104 -87Q104 -133 141 -159T245 -185Q316 -185 358 -155T400 -71Q400 -34 374 -17T279
0H168Z" />
<glyph unicode="h" glyph-name="h" horiz-adv-x="563" d="M457 55T461 45T478 31T528 27V0H320V27Q355 27 369 30T387 45T391 83V327Q391 376 369 408T294 441Q252 441 224 419T167 355V83Q167 56 171 45T189 31T238 27V0H30V27Q66 27 79 30T97 44T101 83V606Q101
631 95 639T71 648H34V675L140 693H167V400H169Q197 441 232 460T321 479Q392 479 424 445T457 336V83Q457 55 461 45Z" />
<glyph unicode="i" glyph-name="i" horiz-adv-x="290" d="M119 574T105 588T91 622Q91 644 104 658T140 672Q162 672 175 658T189 622Q188 601 175 588T140 574Q119 574 105 588ZM38 27Q74 27 87 30T105 44T109 83V386Q109 411 103 419T79 428H42V455L148 473H175V83Q175
56 179 45T197 31T246 27V0H38V27Z" />
<glyph unicode="j" glyph-name="j" horiz-adv-x="243" d="M87 574T74 588T60 623Q60 644 73 658T109 672Q130 672 144 658T158 623Q158 602 144 588T109 574Q87 574 74 588ZM-12 -212T-39 -191T-66 -136Q-66 -112 -53 -99T-21 -85Q-3 -85 9 -96T22 -127Q22 -139
16 -149T9 -166Q9 -175 17 -180T36 -185Q78 -185 78 -115V386Q78 411 72 419T48 428H11V455L121 473H144V-27Q144 -116 122 -164T32 -212Q-12 -212 -39 -191Z" />
<glyph unicode="k" glyph-name="k" horiz-adv-x="502" d="M499 27V0H316V27H336Q361 27 361 38Q361 45 341 74L217 239L176 197V83Q176 56 180 45T198 31T247 27V0H39V27Q75 27 88 30T106 44T110 83V606Q110 631 104 639T80 648H43V675L149 693H176V236L337 396Q357
415 357 428Q357 440 338 440H322V467H480V440H465Q431 440 408 425T365 390T339 364L262 285L397 107Q434 58 452 43T489 27H499Z" />
<glyph unicode="l" glyph-name="l" horiz-adv-x="273" d="M33 27Q69 27 82 30T100 44T104 83V606Q104 631 98 639T74 648H37V675L143 693H170V83Q170 56 174 45T192 31T241 27V0H33V27Z" />
<glyph unicode="m" glyph-name="m" horiz-adv-x="825" d="M720 55T724 45T741 31T791 27V0H583V27Q619 27 632 30T650 44T654 83V327Q654 441 570 441Q530 441 502 418T447 355V83Q447 55 451 45T468 31T518 27V0H310V27Q346 27 359 30T377 44T381 83V327Q381
441 297 441Q257 441 229 418T174 355V83Q174 56 178 45T196 31T245 27V0H37V27Q73 27 86 30T104 44T108 83V386Q108 411 102 419T78 428H41V455L144 473H171V395H172Q200 437 236 458T325 479Q429 479 444 394Q473 436 509 457T598 479Q662 479 691 445T720 336V83Q720
55 724 45Z" />
<glyph unicode="n" glyph-name="n" horiz-adv-x="569" d="M464 55T468 45T485 31T535 27V0H327V27Q362 27 376 30T394 45T398 83V327Q398 376 376 408T301 441Q259 441 231 419T174 355V83Q174 56 178 45T196 31T245 27V0H37V27Q73 27 86 30T104 44T108 83V386Q108
411 102 419T78 428H41V455L144 473H171V395H172Q202 439 237 459T328 479Q399 479 431 445T464 336V83Q464 55 468 45Z" />
<glyph unicode="o" glyph-name="o" horiz-adv-x="516" d="M154 -12T102 51T50 234Q50 352 102 415T258 479Q362 479 414 416T467 234Q467 115 415 52T258 -12Q154 -12 102 51ZM325 15T358 72T391 234Q391 338 358 395T258 452Q192 452 159 395T125 234Q125 129
158 72T258 15Q325 15 358 72Z" />
<glyph unicode="p" glyph-name="p" horiz-adv-x="548" d="M407 479T453 419T499 242Q499 111 446 50T303 -12Q225 -12 170 37V-117Q170 -144 174 -155T192 -169T241 -173V-200H33V-173Q69 -173 82 -170T100 -156T104 -117V386Q104 411 98 419T74 428H37V455L141
473H168V429H170Q194 450 230 464T316 479Q407 479 453 419ZM356 14T389 67T423 236Q423 340 394 396T299 452Q234 452 170 395V73Q223 14 293 14Q356 14 389 67Z" />
<glyph unicode="q" glyph-name="q" horiz-adv-x="524" d="M445 -144T449 -155T467 -169T516 -173V-200H308V-173Q344 -173 357 -170T375 -156T379 -117V36H377Q318 -12 231 -12Q142 -12 96 48T50 226Q50 356 103 417T248 479Q324 479 379 430L418 473H445V-117Q445
-144 449 -155ZM126 128T155 72T249 15Q317 15 379 73V394Q326 453 258 453Q193 453 160 401T126 232Q126 128 155 72Z" />
<glyph unicode="r" glyph-name="r" horiz-adv-x="372" d="M327 479T346 460T365 404Q365 343 313 343Q289 343 277 355T265 386Q265 397 269 405T281 422T289 436Q289 445 275 445Q253 445 229 423T190 365T174 288V83Q174 56 178 45T196 31T245 27V0H37V27Q73
27 86 30T104 44T108 83V386Q108 411 102 419T78 428H41V455L144 473H171V375H172Q190 406 203 425T240 462T295 479Q327 479 346 460Z" />
<glyph unicode="s" glyph-name="s" horiz-adv-x="439" d="M195 -11T176 -6T137 7Q115 16 105 16Q95 16 91 12T82 -3H63L52 162H69Q88 86 125 51T219 16Q267 16 298 39T329 104Q329 151 295 174T205 215L177 224Q121 242 91 268T61 344Q61 405 106 442T223 479Q246
479 260 476T292 467Q310 461 316 461Q326 461 329 465T334 474T336 479H352L359 332H342Q330 390 305 421T225 452Q178 452 148 429T118 370Q118 334 147 311T216 276L240 269Q318 246 354 215T390 131Q390 67 344 28T224 -11Q195 -11 176 -6Z" />
<glyph unicode="t" glyph-name="t" horiz-adv-x="295" d="M148 -11T122 8T95 86V440H13V467Q68 467 100 508T140 616H161V467H274V440H161V89Q161 51 171 36T200 21Q217 21 237 32T268 54L279 31Q254 10 234 0T181 -11Q148 -11 122 8Z" />
<glyph unicode="u" glyph-name="u" horiz-adv-x="571" d="M456 55T460 45T477 31T527 27V0H391V71H389Q361 30 325 9T233 -12Q165 -12 133 23T100 131V386Q100 411 94 419T70 428H33V455L139 473H166V140Q166 90 188 58T261 26Q303 26 333 48T389 112L390 386Q390
411 384 419T360 428H323V455L429 473H456V83Q456 55 460 45Z" />
<glyph unicode="v" glyph-name="v" horiz-adv-x="467" d="M62 397Q50 424 39 432T-6 440V467H188V440H145Q126 440 126 422Q126 415 129 407L244 86H246L365 409Q367 417 367 420Q367 429 363 434T351 440H304V467H463V440Q431 440 418 432T394 399L240 0H207L62 397Z" />
<glyph unicode="w" glyph-name="w" horiz-adv-x="692" d="M60 399Q52 425 40 432T-3 440V467H178V440H145Q126 440 126 421Q126 418 128 408L222 75H224L335 456H377L497 75H499L584 404Q587 415 587 421Q587 431 581 435T561 440H517V467H685V440Q658 440 645
436T625 421T611 384L500 0H457L340 373H337L225 0H182L60 399Z" />
<glyph unicode="x" glyph-name="x" horiz-adv-x="481" d="M406 44T420 36T471 27V0H270V27H310Q324 27 324 39Q324 48 317 59L219 206L121 55Q117 48 117 42Q117 27 135 27H168V0H10V27Q43 27 62 35T98 69L207 224L87 404Q70 427 58 433T17 440V467H192V440H166Q150
440 150 427Q150 421 155 413L245 280L337 414Q343 423 343 429Q343 440 329 440H293V467H446V440Q409 440 395 434T363 404L257 262L389 68Q406 44 420 36Z" />
<glyph unicode="y" glyph-name="y" horiz-adv-x="462" d="M458 467V440Q431 440 418 436T399 422T384 391L181 -139Q166 -179 150 -195T98 -212Q62 -212 41 -192T20 -144Q20 -123 33 -109T65 -95Q80 -95 92 -104T105 -132Q105 -143 99 -153T93 -171Q93 -185 110
-185Q125 -185 134 -171T162 -107L202 -2L56 390Q44 422 32 431T-14 440V467H178V440H143Q119 440 119 423Q119 418 123 406L235 86H236L357 403Q361 414 361 422Q361 440 337 440H294V467H458Z" />
<glyph unicode="z" glyph-name="z" horiz-adv-x="459" d="M44 27L340 440H230Q178 440 154 432T119 402T102 332H75V467H410V440L114 27H253Q307 27 335 36T377 69T399 140H426L416 0H44V27Z" />
<glyph unicode="{" glyph-name="braceleft" horiz-adv-x="267" d="M170 -122T145 -104T112 -56T105 22V56V153Q105 207 88 234T40 260V278Q70 277 87 305T105 385V482V513Q105 559 112 589T144 640T222 660H237V633Q200 632 184 617T164 579T161 514V416Q161 351
146 318T84 272V266Q131 253 146 220T161 122V24Q161 -19 164 -41T183 -78T237 -95V-122H222Q170 -122 145 -104Z" />
<glyph unicode="|" glyph-name="bar" horiz-adv-x="258" d="M103 729H155V-198H103V729Z" />
<glyph unicode="}" glyph-name="braceright" horiz-adv-x="267" d="M30 -95Q67 -94 83 -79T103 -41T106 24V122Q106 187 121 220T183 266V272Q136 285 121 318T106 416V513Q106 557 103 579T84 616T30 633V660H45Q97 660 122 640T155 590T162 513V482V385Q162
334 179 306T227 278V260Q196 261 179 234T162 153V56V22Q162 -26 155 -55T123 -103T45 -122H30V-95Z" />
<glyph unicode="~" glyph-name="asciitilde" horiz-adv-x="541" d="M58 212Q99 291 174 291Q196 291 221 283T280 260L299 252Q320 244 341 237T376 230Q398 230 416 248T453 297L486 257Q458 218 434 198T370 178Q346 178 325 185T268 209Q263 211 243 220T204
234T169 239Q141 239 123 221T91 172L58 212Z" />
<glyph unicode="&#xa1;" glyph-name="exclamdown" horiz-adv-x="267" d="M116 381T103 394T89 428Q89 447 102 460T135 474Q154 474 167 461T180 428Q180 408 167 395T135 381Q116 381 103 394ZM89 -201T89 -148Q89 -134 91 -105T96 -62L119 306H150L174 -62L177
-92Q178 -102 179 -114T180 -142Q180 -172 170 -186T135 -201Q89 -201 89 -148Z" />
<glyph unicode="&#xa2;" glyph-name="cent" horiz-adv-x="485" d="M427 155T391 122T274 86V0H236V87Q141 95 95 158T49 322Q49 418 90 485T236 564V660H274V566Q336 566 382 542T429 470Q429 445 415 430T375 415Q351 415 337 428T322 465Q322 482 330 494T338
512Q338 524 322 529T283 534H274V113H277Q336 113 369 140T412 200L436 187Q427 155 391 122ZM125 144T236 117V528Q185 514 155 464T125 318Q125 144 236 117Z" />
<glyph unicode="&#xa3;" glyph-name="sterling" horiz-adv-x="492" d="M456 138L417 0H60V55Q115 96 137 125T160 199Q160 238 139 306L136 315H39V353H124L98 438Q83 486 83 525Q83 594 127 633T253 672Q330 672 376 639T423 546Q423 514 409 499T373 483Q351
483 338 496T325 530Q325 547 337 563Q341 569 344 575T347 589Q347 611 323 628T247 645Q195 645 172 625T149 563Q149 521 173 444L202 353H363V315H213Q226 266 226 224Q226 129 156 83V80H350Q387 80 403 88T427 114L437 138H456Z" />
<glyph unicode="&#xa4;" glyph-name="currency" horiz-adv-x="517" d="M28 136L78 189Q28 251 28 329Q28 417 78 471L28 524L65 560L115 510Q145 534 183 547T261 560Q298 560 334 548T402 510L451 560L489 523L440 473Q464 445 476 408T488 331Q488 249 440 188L489
136L451 99L402 153Q373 127 336 114T260 100Q174 100 115 153L65 99L28 136ZM311 142T351 167T413 235T436 331Q436 382 414 424T351 492T261 518Q209 518 168 494T104 426T81 329Q81 276 104 234T168 167T260 142Q311 142 351 167Z" />
<glyph unicode="&#xa5;" glyph-name="yen" horiz-adv-x="516" d="M522 660V633Q496 633 481 621T446 570L315 317H426V279H307V213H426V175H307V89Q307 59 311 48T334 32T398 27V0H142V27Q187 27 205 31T228 47T233 89V175H106V213H233V279H106V317H216L65 585Q47
617 34 625T-6 633V660H195V633H147Q138 633 131 629T124 614Q124 602 132 589L280 322H282L421 595Q425 602 425 610Q425 620 417 626T391 633H357V660H522Z" />
<glyph unicode="&#xa6;" glyph-name="brokenbar" horiz-adv-x="258" d="M104 613H156V381H104V613ZM104 149H156V-83H104V149Z" />
<glyph unicode="&#xa7;" glyph-name="section" horiz-adv-x="504" d="M451 112T377 61Q380 46 380 29Q380 -41 341 -75T235 -109Q173 -109 135 -82T97 -4Q97 23 109 37T142 51Q160 51 172 41T185 9Q185 -3 181 -9T170 -22Q159 -29 159 -40Q159 -60 185 -71T245
-82Q288 -82 317 -62T346 -3Q346 17 336 33T300 68T223 118L177 146Q115 184 87 225T58 337Q58 448 133 498Q129 513 129 534Q129 600 168 633T275 667Q336 667 374 640T412 562Q412 535 400 521T367 507Q349 507 337 517T324 549Q324 561 328 567T339 580Q350
587 350 598Q350 618 324 629T265 640Q221 640 192 619T163 563Q163 537 180 516T218 481T291 437L318 421Q389 379 420 334T451 220Q451 112 377 61ZM312 156T334 135T368 90Q390 109 403 137T417 199Q417 243 392 272T306 337L264 362Q213 392 185 417T143 470Q120
451 106 423T92 362Q92 329 107 305T150 260T230 206L272 180Q312 156 334 135Z" />
<glyph unicode="&#xa8;" glyph-name="dieresis" horiz-adv-x="386" d="M90 575T77 587T64 618Q64 636 77 649T108 662Q126 662 139 649T152 618Q152 600 139 588T108 575Q90 575 77 587ZM259 575T246 587T233 618Q233 636 246 649T277 662Q295 662 308 649T322
618Q322 600 309 588T277 575Q259 575 246 587Z" />
<glyph unicode="&#xa9;" glyph-name="copyright" horiz-adv-x="750" d="M282 -15T203 31T77 157T30 330Q30 423 76 502T202 628T375 675Q468 675 547 629T673 503T720 330Q720 237 674 158T548 32T375 -15Q282 -15 203 31ZM455 23T522 63T629 173T668 330Q668
416 629 486T523 597T375 637Q295 637 228 597T121 487T82 330Q82 244 121 174T227 63T375 23Q455 23 522 63ZM322 133T280 159T214 230T191 330Q191 387 216 431T286 499T383 523Q407 523 423 519T460 508Q480 502 484 502Q493 502 496 510L499 516H514L520 407H504Q483
496 388 496Q313 496 282 447T251 332Q251 261 283 211T389 160Q444 160 475 180T520 228L536 221Q520 185 482 159T378 133Q322 133 280 159Z" />
<glyph unicode="&#xaa;" glyph-name="ordfeminine" horiz-adv-x="299" d="M289 372Q276 365 265 361T233 357Q219 357 211 363T199 393Q175 374 154 365T108 356Q73 356 52 372T30 421Q30 465 73 498T198 545V578Q198 649 146 649Q124 649 106 639T87 619Q87 616
95 609T104 588Q104 576 97 569T75 561Q46 561 46 594Q46 623 73 644T156 666Q201 666 222 649T244 589V433Q244 408 249 399T268 390Q273 390 285 394L289 372ZM163 388T198 413V524Q83 498 83 432Q83 388 130 388Q163 388 198 413Z" />
<glyph unicode="&#xab;" glyph-name="guillemotleft" horiz-adv-x="495" d="M42 247L253 468H273L135 247L273 25H253L42 247ZM223 247L434 468H454L316 247L454 25H434L223 247Z" />
<glyph unicode="&#xac;" glyph-name="logicalnot" horiz-adv-x="540" d="M450 299H33V351H502V100H450V299Z" />
<glyph unicode="&#xae;" glyph-name="registered" horiz-adv-x="461" d="M176 274T130 301T57 374T30 475Q30 529 57 575T130 648T231 675Q285 675 331 648T404 575T431 475Q431 420 404 374T331 301T231 274Q176 274 130 301ZM275 306T311 328T369 388T391 475Q391
522 370 560T312 621T231 643Q187 643 150 621T92 561T70 475Q70 427 91 389T150 328T231 306Q275 306 311 328ZM143 384Q158 384 162 387T166 402V545Q166 557 163 560T143 563V576H240Q272 576 291 564T310 526Q310 490 268 474V473Q283 466 288 458T299 427L302
415Q303 411 305 401T312 388T326 384V373H277Q276 376 272 383T265 405L259 434Q256 449 254 455T244 464T221 467H205V402Q205 390 209 387T231 384V373H143V384ZM221 481Q250 481 259 489T269 519Q269 543 260 552T227 561Q213 561 209 559T205 551V481H221Z"
/>
<glyph unicode="&#xaf;" glyph-name="overscore" horiz-adv-x="382" d="M76 616H306V570H76V616Z" />
<glyph unicode="&#xb0;" glyph-name="degree" horiz-adv-x="340" d="M134 404T104 422T56 470T38 537Q38 593 76 631T170 669Q226 669 264 631T303 537Q303 501 286 471T238 422T170 404Q134 404 104 422ZM212 442T238 470T265 537Q265 576 239 603T170 631Q129
631 103 604T76 537Q76 498 102 470T170 442Q212 442 238 470Z" />
<glyph unicode="&#xb1;" glyph-name="plusminus" horiz-adv-x="541" d="M244 253H36V305H244V469H296V305H505V253H296V89H244V253ZM36 52H505V0H36V52Z" />
<glyph unicode="&#xb2;" glyph-name="uni00B2" horiz-adv-x="345" d="M31 270Q31 307 60 344T143 426Q176 453 192 469T221 510T235 567Q235 606 215 627T157 648Q132 648 116 639T100 616Q100 610 106 602T113 584Q113 569 104 560T79 551Q63 551 54 561T44 590Q44
627 80 647T167 667Q227 667 260 639T294 559Q294 528 282 506T249 467T191 426Q133 388 105 361T75 313H222Q258 313 270 321T289 351H307L284 264H31V270Z" />
<glyph unicode="&#xb3;" glyph-name="uni00B3" horiz-adv-x="347" d="M100 257T64 277T28 333Q28 351 38 361T65 371Q80 371 88 363T97 340Q97 329 91 321T85 308Q85 294 103 285T148 276Q193 276 217 302T241 377Q241 470 145 470Q129 470 118 469V492Q127 491
145 491Q182 491 202 513T223 571Q223 605 204 626T151 648Q128 648 111 639T94 617Q94 612 100 604T106 585Q106 571 97 563T73 555Q57 555 48 564T38 592Q38 627 74 647T162 667Q216 667 248 643T281 573Q281 537 260 514T199 484V482Q241 480 270 453T300 375Q300
320 261 289T154 257Q100 257 64 277Z" />
<glyph unicode="&#xb4;" glyph-name="acute" horiz-adv-x="382" d="M216 716Q224 732 233 739T255 747Q267 747 276 738T285 715Q285 705 281 698T261 674L158 562H140L216 716Z" />
<glyph unicode="&#xb5;" glyph-name="uni00B5" horiz-adv-x="528" d="M450 55T454 45T471 31T521 27V0H385V71H383Q355 30 319 9T227 -12Q168 -12 135 15L141 -27Q153 -115 153 -156Q153 -212 111 -212Q96 -212 88 -196T79 -156Q79 -132 85 -58Q94 52 94 117V386Q94
411 88 419T64 428H27V455L133 473H160V140Q160 90 182 58T255 26Q297 26 327 48T383 112L384 386Q384 411 378 419T354 428H317V455L423 473H450V83Q450 55 454 45Z" />
<glyph unicode="&#xb6;" glyph-name="paragraph" horiz-adv-x="496" d="M212 251Q137 262 92 317T46 456Q46 549 100 604T249 660H254V-130H212V251ZM314 660H443V633H409Q384 633 373 627T359 611T356 584V-130H314V660Z" />
<glyph unicode="&#xb7;" glyph-name="middot" horiz-adv-x="313" d="M134 230T119 246T103 284Q103 306 118 321T156 337Q178 337 194 322T210 284Q210 262 195 246T156 230Q134 230 119 246Z" />
<glyph unicode="&#xb8;" glyph-name="cedilla" horiz-adv-x="401" d="M144 -178T111 -163L122 -138Q146 -150 175 -150Q197 -150 211 -141T226 -114Q226 -98 214 -88T187 -78Q178 -78 169 -81T157 -86L147 -81L183 1H214L190 -53Q202 -50 217 -50Q237 -50 256
-65T275 -110Q275 -145 250 -161T189 -178Q144 -178 111 -163Z" />
<glyph unicode="&#xb9;" glyph-name="uni00B9" horiz-adv-x="298" d="M69 282H102Q124 282 131 287T139 310V613Q83 587 47 574V596Q74 608 105 627T150 660H191V310Q191 293 198 288T227 282H260V264H69V282Z" />
<glyph unicode="&#xba;" glyph-name="ordmasculine" horiz-adv-x="337" d="M101 356T67 396T32 510Q32 585 66 625T168 666Q236 666 270 626T305 510Q305 436 271 396T168 356Q101 356 67 396ZM210 373T229 408T250 510Q248 578 229 613T168 649Q127 649 108 613T88
510Q90 373 168 373Q210 373 229 408Z" />
<glyph unicode="&#xbb;" glyph-name="guillemotright" horiz-adv-x="495" d="M180 247L42 468H62L273 247L62 25H42L180 247ZM361 247L223 468H243L454 247L243 25H223L361 247Z" />
<glyph unicode="&#xbc;" glyph-name="onequarter" horiz-adv-x="818" d="M591 672H629L261 -12H224L591 672ZM106 282H139Q161 282 168 287T176 310V613Q120 587 84 574V596Q111 608 142 627T187 660H228V310Q228 293 235 288T264 282H297V264H106V282ZM571 18H600Q612
18 616 23T621 41V111H440V143Q543 295 633 401H672V149H733V111H672V41Q672 29 676 24T692 18H716V0H571V18ZM621 149V345H619Q541 249 471 149H621Z" />
<glyph unicode="&#xbd;" glyph-name="onehalf" horiz-adv-x="851" d="M585 672H623L255 -12H218L585 672ZM106 282H139Q161 282 168 287T176 310V613Q120 587 84 574V596Q111 608 142 627T187 660H228V310Q228 293 235 288T264 282H297V264H106V282ZM509 6Q509
43 537 79T621 162Q654 189 670 205T699 246T713 303Q713 342 693 363T635 384Q610 384 594 375T578 352Q578 346 584 338T591 320Q591 305 582 296T557 287Q541 287 532 297T522 326Q522 363 558 383T645 403Q705 403 738 375T772 295Q772 264 760 242T727 203T669
162Q611 124 583 97T553 49H700Q736 49 748 57T767 87H785L762 0H509V6Z" />
<glyph unicode="&#xbe;" glyph-name="threequarters" horiz-adv-x="802" d="M599 672H637L269 -12H232L599 672ZM130 257T94 277T58 333Q58 351 68 361T95 371Q110 371 118 363T127 340Q127 329 121 321T115 308Q115 294 133 285T178 276Q223 276 247 302T271
377Q271 470 175 470Q159 470 148 469V492Q157 491 175 491Q212 491 232 513T253 571Q253 605 234 626T181 648Q158 648 141 639T124 617Q124 612 130 604T136 585Q136 571 127 563T103 555Q87 555 78 564T68 592Q68 627 104 647T192 667Q246 667 278 643T311 573Q311
537 290 514T229 484V482Q271 480 300 453T330 375Q330 320 291 289T184 257Q130 257 94 277ZM571 18H600Q612 18 616 23T621 41V111H440V143Q543 295 633 401H672V149H733V111H672V41Q672 29 676 24T692 18H716V0H571V18ZM621 149V345H619Q541 249 471 149H621Z"
/>
<glyph unicode="&#xbf;" glyph-name="questiondown" horiz-adv-x="450" d="M232 385T219 399T205 432Q205 451 218 464T251 478Q271 478 284 465T297 432Q297 413 284 399T251 385Q232 385 219 399ZM149 -206T102 -173T54 -68Q54 -27 68 6T101 64T154 122Q195
163 215 192T235 260V303H269V260Q269 208 252 174T202 100Q168 58 151 23T134 -67Q134 -120 157 -151T225 -182Q257 -182 285 -171T314 -136Q314 -128 311 -123T302 -112Q294 -105 290 -98T286 -76Q286 -56 297 -45T330 -33Q352 -33 364 -50T377 -94Q377 -147
333 -176T223 -206Q149 -206 102 -173Z" />
<glyph unicode="&#xc0;" glyph-name="Agrave" horiz-adv-x="632" d="M562 59T569 47T589 31T627 27V0H423V27H456Q486 27 486 51Q486 62 482 73L416 254H184L116 71Q112 55 112 50Q112 27 140 27H169V0H9V27Q35 27 49 32T70 51T88 93L302 660H342L554 85Q562 59
569 47ZM403 288L302 564H299L197 288H403ZM270 867Q255 883 251 890T246 908Q246 921 255 930T276 940Q289 940 298 933T315 909L391 755H373L270 867Z" />
<glyph unicode="&#xc1;" glyph-name="Aacute" horiz-adv-x="632" d="M562 59T569 47T589 31T627 27V0H423V27H456Q486 27 486 51Q486 62 482 73L416 254H184L116 71Q112 55 112 50Q112 27 140 27H169V0H9V27Q35 27 49 32T70 51T88 93L302 660H342L554 85Q562 59
569 47ZM403 288L302 564H299L197 288H403ZM322 909Q330 925 339 932T361 940Q373 940 382 931T391 908Q391 898 387 891T367 867L264 755H246L322 909Z" />
<glyph unicode="&#xc2;" glyph-name="Acircumflex" horiz-adv-x="632" d="M562 59T569 47T589 31T627 27V0H423V27H456Q486 27 486 51Q486 62 482 73L416 254H184L116 71Q112 55 112 50Q112 27 140 27H169V0H9V27Q35 27 49 32T70 51T88 93L302 660H342L554 85Q562
59 569 47ZM403 288L302 564H299L197 288H403ZM289 890H348L440 750H406L319 838L231 750H197L289 890Z" />
<glyph unicode="&#xc3;" glyph-name="Atilde" horiz-adv-x="632" d="M562 59T569 47T589 31T627 27V0H423V27H456Q486 27 486 51Q486 62 482 73L416 254H184L116 71Q112 55 112 50Q112 27 140 27H169V0H9V27Q35 27 49 32T70 51T88 93L302 660H342L554 85Q562 59
569 47ZM403 288L302 564H299L197 288H403ZM349 756T307 776Q267 795 248 795Q230 795 219 783T207 756H188Q188 797 209 820T265 844Q292 844 334 826Q348 820 363 815T390 810Q409 810 420 821T431 845H450Q450 810 428 783T373 756Q349 756 307 776Z" />
<glyph unicode="&#xc4;" glyph-name="Adieresis" horiz-adv-x="632" d="M562 59T569 47T589 31T627 27V0H423V27H456Q486 27 486 51Q486 62 482 73L416 254H184L116 71Q112 55 112 50Q112 27 140 27H169V0H9V27Q35 27 49 32T70 51T88 93L302 660H342L554 85Q562
59 569 47ZM403 288L302 564H299L197 288H403ZM216 768T203 780T190 811Q190 829 203 842T234 855Q252 855 265 842T278 811Q278 793 265 781T234 768Q216 768 203 780ZM385 768T372 780T359 811Q359 829 372 842T403 855Q421 855 434 842T448 811Q448 793 435
781T403 768Q385 768 372 780Z" />
<glyph unicode="&#xc5;" glyph-name="Aring" horiz-adv-x="632" d="M562 59T569 47T589 31T627 27V0H423V27H456Q486 27 486 51Q486 62 482 73L416 254H184L116 71Q112 55 112 50Q112 27 140 27H169V0H9V27Q35 27 49 32T70 51T88 93L302 660H342L554 85Q562 59
569 47ZM403 288L302 564H299L197 288H403ZM284 725T260 750T235 809Q235 843 259 867T319 892Q353 892 377 868T402 809Q402 774 378 750T319 725Q284 725 260 750ZM342 754T357 770T373 809Q373 832 357 847T319 863Q296 863 280 847T264 809Q264 786 280 770T319
754Q342 754 357 770Z" />
<glyph unicode="&#xc6;" glyph-name="AE" horiz-adv-x="872" d="M831 165L820 0H347V27Q385 27 400 31T419 48T423 91V326H264L127 61Q124 54 124 46Q124 38 128 33T141 27H194V0H9V27Q43 27 57 35T86 73L365 600Q372 613 372 620Q372 627 368 629T354 633H297V660H796V504H772Q765
557 752 583T710 619T623 629H530Q507 629 501 622T494 592V360H618Q658 360 676 367T700 391T711 442H735V243H711Q706 278 700 294T676 318T618 326H494V119Q494 78 505 60T540 36T617 31Q683 31 718 40T775 78T807 165H831ZM423 360V622H417L282 360H423Z" />
<glyph unicode="&#xc7;" glyph-name="Ccedilla" horiz-adv-x="649" d="M351 -12L333 -53Q345 -50 360 -50Q380 -50 399 -65T418 -110Q418 -145 393 -161T332 -178Q287 -178 254 -163L265 -138Q289 -150 318 -150Q340 -150 354 -141T369 -114Q369 -98 357 -88T330
-78Q321 -78 312 -81T300 -86L290 -81L321 -10Q196 2 127 91T57 322Q57 428 94 507T201 629T370 672Q413 672 442 665T500 645Q523 635 534 635Q543 635 549 639T557 649L560 660H587L597 486H570Q551 551 509 596T375 642Q291 642 240 594T167 474T145 329Q145
248 170 178T247 63T379 18Q437 18 475 37T534 84T575 155L600 142Q581 99 556 67T483 12T359 -12H351Z" />
<glyph unicode="&#xc8;" glyph-name="Egrave" horiz-adv-x="580" d="M53 27Q91 27 106 31T125 46T129 89V571Q129 601 125 612T106 628T53 633V660H504V504H477Q470 558 458 583T417 619T331 629H238Q215 629 209 623T203 592V360H325Q365 360 383 367T407 391T419
442H443V243H419Q414 279 408 294T383 318T325 326H203V114Q203 77 212 60T247 36T326 30Q392 30 427 39T481 77T512 165H539L528 0H53V27ZM252 867Q237 883 233 890T228 908Q228 921 237 930T258 940Q271 940 280 933T297 909L373 755H355L252 867Z" />
<glyph unicode="&#xc9;" glyph-name="Eacute" horiz-adv-x="580" d="M53 27Q91 27 106 31T125 46T129 89V571Q129 601 125 612T106 628T53 633V660H504V504H477Q470 558 458 583T417 619T331 629H238Q215 629 209 623T203 592V360H325Q365 360 383 367T407 391T419
442H443V243H419Q414 279 408 294T383 318T325 326H203V114Q203 77 212 60T247 36T326 30Q392 30 427 39T481 77T512 165H539L528 0H53V27ZM304 909Q312 925 321 932T343 940Q355 940 364 931T373 908Q373 898 369 891T349 867L246 755H228L304 909Z" />
<glyph unicode="&#xca;" glyph-name="Ecircumflex" horiz-adv-x="580" d="M53 27Q91 27 106 31T125 46T129 89V571Q129 601 125 612T106 628T53 633V660H504V504H477Q470 558 458 583T417 619T331 629H238Q215 629 209 623T203 592V360H325Q365 360 383 367T407
391T419 442H443V243H419Q414 279 408 294T383 318T325 326H203V114Q203 77 212 60T247 36T326 30Q392 30 427 39T481 77T512 165H539L528 0H53V27ZM271 890H330L422 750H388L301 838L213 750H179L271 890Z" />
<glyph unicode="&#xcb;" glyph-name="Edieresis" horiz-adv-x="580" d="M53 27Q91 27 106 31T125 46T129 89V571Q129 601 125 612T106 628T53 633V660H504V504H477Q470 558 458 583T417 619T331 629H238Q215 629 209 623T203 592V360H325Q365 360 383 367T407
391T419 442H443V243H419Q414 279 408 294T383 318T325 326H203V114Q203 77 212 60T247 36T326 30Q392 30 427 39T481 77T512 165H539L528 0H53V27ZM198 768T185 780T172 811Q172 829 185 842T216 855Q234 855 247 842T260 811Q260 793 247 781T216 768Q198 768
185 780ZM367 768T354 780T341 811Q341 829 354 842T385 855Q403 855 416 842T430 811Q430 793 417 781T385 768Q367 768 354 780Z" />
<glyph unicode="&#xcc;" glyph-name="Igrave" horiz-adv-x="331" d="M53 27Q91 27 106 31T125 47T129 89V571Q129 601 125 612T106 628T53 633V660H279V633Q241 633 226 629T207 613T203 571V89Q203 59 207 48T226 32T279 27V0H53V27ZM117 867Q102 883 98 890T93
908Q93 921 102 930T123 940Q136 940 145 933T162 909L238 755H220L117 867Z" />
<glyph unicode="&#xcd;" glyph-name="Iacute" horiz-adv-x="331" d="M53 27Q91 27 106 31T125 47T129 89V571Q129 601 125 612T106 628T53 633V660H279V633Q241 633 226 629T207 613T203 571V89Q203 59 207 48T226 32T279 27V0H53V27ZM169 909Q177 925 186 932T208
940Q220 940 229 931T238 908Q238 898 234 891T214 867L111 755H93L169 909Z" />
<glyph unicode="&#xce;" glyph-name="Icircumflex" horiz-adv-x="331" d="M53 27Q91 27 106 31T125 47T129 89V571Q129 601 125 612T106 628T53 633V660H279V633Q241 633 226 629T207 613T203 571V89Q203 59 207 48T226 32T279 27V0H53V27ZM136 890H195L287 750H253L166
838L78 750H44L136 890Z" />
<glyph unicode="&#xcf;" glyph-name="Idieresis" horiz-adv-x="331" d="M53 27Q91 27 106 31T125 47T129 89V571Q129 601 125 612T106 628T53 633V660H279V633Q241 633 226 629T207 613T203 571V89Q203 59 207 48T226 32T279 27V0H53V27ZM63 768T50 780T37 811Q37
829 50 842T81 855Q99 855 112 842T125 811Q125 793 112 781T81 768Q63 768 50 780ZM232 768T219 780T206 811Q206 829 219 842T250 855Q268 855 281 842T295 811Q295 793 282 781T250 768Q232 768 219 780Z" />
<glyph unicode="&#xd0;" glyph-name="Eth" horiz-adv-x="718" d="M493 658T577 575T661 342Q661 235 621 158T505 41T325 0H58V27Q96 27 111 31T130 46T134 89V315H53V351H134V571Q134 601 130 612T111 628T58 633V660H344Q493 658 577 575ZM426 30T499 99T573
338Q573 469 513 547T318 629Q264 629 243 626T215 611T208 572V351H418V315H208V119Q208 81 218 62T249 37T307 30Q426 30 499 99Z" />
<glyph unicode="&#xd1;" glyph-name="Ntilde" horiz-adv-x="691" d="M154 570H152V79Q152 51 163 39T202 27H238V0H42V27H71Q95 27 106 39T118 79V576Q118 602 113 613T93 629T41 633V660H194L540 137H542V585Q542 633 491 633H456V660H652V633H622Q576 633 576
585V-6H543L154 570ZM390 756T348 776Q308 795 289 795Q271 795 260 783T248 756H229Q229 797 250 820T306 844Q333 844 375 826Q389 820 404 815T431 810Q450 810 461 821T472 845H491Q491 810 469 783T414 756Q390 756 348 776Z" />
<glyph unicode="&#xd2;" glyph-name="Ograve" horiz-adv-x="701" d="M252 -12T187 32T89 152T57 327Q57 423 88 501T185 625T351 672Q451 672 517 626T614 501T645 327Q645 229 613 153T516 32T351 -12Q252 -12 187 32ZM472 18T514 110T557 327Q557 465 516 553T351
642Q228 642 187 554T145 327Q145 203 187 111T351 18Q472 18 514 110ZM303 867Q288 883 284 890T279 908Q279 921 288 930T309 940Q322 940 331 933T348 909L424 755H406L303 867Z" />
<glyph unicode="&#xd3;" glyph-name="Oacute" horiz-adv-x="701" d="M252 -12T187 32T89 152T57 327Q57 423 88 501T185 625T351 672Q451 672 517 626T614 501T645 327Q645 229 613 153T516 32T351 -12Q252 -12 187 32ZM472 18T514 110T557 327Q557 465 516 553T351
642Q228 642 187 554T145 327Q145 203 187 111T351 18Q472 18 514 110ZM355 909Q363 925 372 932T394 940Q406 940 415 931T424 908Q424 898 420 891T400 867L297 755H279L355 909Z" />
<glyph unicode="&#xd4;" glyph-name="Ocircumflex" horiz-adv-x="701" d="M252 -12T187 32T89 152T57 327Q57 423 88 501T185 625T351 672Q451 672 517 626T614 501T645 327Q645 229 613 153T516 32T351 -12Q252 -12 187 32ZM472 18T514 110T557 327Q557 465 516
553T351 642Q228 642 187 554T145 327Q145 203 187 111T351 18Q472 18 514 110ZM322 890H381L473 750H439L352 838L264 750H230L322 890Z" />
<glyph unicode="&#xd5;" glyph-name="Otilde" horiz-adv-x="701" d="M252 -12T187 32T89 152T57 327Q57 423 88 501T185 625T351 672Q451 672 517 626T614 501T645 327Q645 229 613 153T516 32T351 -12Q252 -12 187 32ZM472 18T514 110T557 327Q557 465 516 553T351
642Q228 642 187 554T145 327Q145 203 187 111T351 18Q472 18 514 110ZM382 756T340 776Q300 795 281 795Q263 795 252 783T240 756H221Q221 797 242 820T298 844Q325 844 367 826Q381 820 396 815T423 810Q442 810 453 821T464 845H483Q483 810 461 783T406 756Q382
756 340 776Z" />
<glyph unicode="&#xd6;" glyph-name="Odieresis" horiz-adv-x="701" d="M252 -12T187 32T89 152T57 327Q57 423 88 501T185 625T351 672Q451 672 517 626T614 501T645 327Q645 229 613 153T516 32T351 -12Q252 -12 187 32ZM472 18T514 110T557 327Q557 465 516
553T351 642Q228 642 187 554T145 327Q145 203 187 111T351 18Q472 18 514 110ZM249 768T236 780T223 811Q223 829 236 842T267 855Q285 855 298 842T311 811Q311 793 298 781T267 768Q249 768 236 780ZM418 768T405 780T392 811Q392 829 405 842T436 855Q454 855
467 842T481 811Q481 793 468 781T436 768Q418 768 405 780Z" />
<glyph unicode="&#xd7;" glyph-name="multiply" horiz-adv-x="524" d="M52 62L224 235L52 407L90 445L261 272L435 445L473 407L299 235L473 62L435 24L261 197L90 24L52 62Z" />
<glyph unicode="&#xd8;" glyph-name="Oslash" horiz-adv-x="705" d="M604 548T626 479T649 327Q649 229 617 153T520 32T355 -12Q227 -12 151 64L98 -6H57L130 89Q95 133 78 194T61 327Q61 423 92 501T189 625T355 672Q462 672 534 616L573 666H613L558 594Q604
548 626 479ZM149 220T175 148L504 576Q453 642 355 642Q232 642 191 554T149 327Q149 220 175 148ZM476 18T518 110T561 327Q561 394 553 449T522 547L190 115Q242 18 355 18Q476 18 518 110Z" />
<glyph unicode="&#xd9;" glyph-name="Ugrave" horiz-adv-x="719" d="M241 -12T182 49T122 235V571Q122 601 118 612T99 628T46 633V660H272V633Q234 633 219 629T200 613T196 571V226Q196 131 237 75T361 18Q443 18 484 74T526 226V571Q526 601 522 612T503 628T450
633V660H676V633Q638 633 623 629T604 613T600 571V235Q600 110 541 49T361 -12Q241 -12 182 49ZM312 867Q297 883 293 890T288 908Q288 921 297 930T318 940Q331 940 340 933T357 909L433 755H415L312 867Z" />
<glyph unicode="&#xda;" glyph-name="Uacute" horiz-adv-x="719" d="M241 -12T182 49T122 235V571Q122 601 118 612T99 628T46 633V660H272V633Q234 633 219 629T200 613T196 571V226Q196 131 237 75T361 18Q443 18 484 74T526 226V571Q526 601 522 612T503 628T450
633V660H676V633Q638 633 623 629T604 613T600 571V235Q600 110 541 49T361 -12Q241 -12 182 49ZM364 909Q372 925 381 932T403 940Q415 940 424 931T433 908Q433 898 429 891T409 867L306 755H288L364 909Z" />
<glyph unicode="&#xdb;" glyph-name="Ucircumflex" horiz-adv-x="719" d="M241 -12T182 49T122 235V571Q122 601 118 612T99 628T46 633V660H272V633Q234 633 219 629T200 613T196 571V226Q196 131 237 75T361 18Q443 18 484 74T526 226V571Q526 601 522 612T503
628T450 633V660H676V633Q638 633 623 629T604 613T600 571V235Q600 110 541 49T361 -12Q241 -12 182 49ZM331 890H390L482 750H448L361 838L273 750H239L331 890Z" />
<glyph unicode="&#xdc;" glyph-name="Udieresis" horiz-adv-x="719" d="M241 -12T182 49T122 235V571Q122 601 118 612T99 628T46 633V660H272V633Q234 633 219 629T200 613T196 571V226Q196 131 237 75T361 18Q443 18 484 74T526 226V571Q526 601 522 612T503
628T450 633V660H676V633Q638 633 623 629T604 613T600 571V235Q600 110 541 49T361 -12Q241 -12 182 49ZM258 768T245 780T232 811Q232 829 245 842T276 855Q294 855 307 842T320 811Q320 793 307 781T276 768Q258 768 245 780ZM427 768T414 780T401 811Q401 829
414 842T445 855Q463 855 476 842T490 811Q490 793 477 781T445 768Q427 768 414 780Z" />
<glyph unicode="&#xdd;" glyph-name="Yacute" horiz-adv-x="611" d="M592 660V633Q563 633 549 628T526 612T500 570L353 271V89Q353 59 357 48T380 32T444 27V0H188V27Q233 27 251 31T274 47T279 89V257L108 585Q92 615 77 624T24 633V660H240V633H190Q175 633
175 619Q175 614 180 604L330 310H332L474 602Q479 614 479 619Q479 633 463 633H408V660H592ZM312 909Q320 925 329 932T351 940Q363 940 372 931T381 908Q381 898 377 891T357 867L254 755H236L312 909Z" />
<glyph unicode="&#xde;" glyph-name="Thorn" horiz-adv-x="554" d="M53 27Q89 27 104 31T124 47T129 83V571Q129 601 125 612T106 628T53 633V660H279V633Q241 633 226 629T207 613T203 571V550H278Q396 550 455 506T515 358Q515 253 455 208T278 162H203V83Q203
57 208 46T230 31T287 27V0H53V27ZM265 196Q351 196 392 234T433 356Q433 440 392 478T265 517Q227 517 215 509T203 482V196H265Z" />
<glyph unicode="&#xdf;" glyph-name="germandbls" horiz-adv-x="569" d="M481 242T507 207T533 123Q533 63 492 26T385 -11Q344 -11 322 4T300 44Q300 61 310 72T340 83Q356 83 365 75T374 51Q374 43 372 37T369 28Q369 24 375 20T394 16Q424 16 449 36T475 95Q475
139 454 169T388 229Q331 266 307 298T283 360Q283 411 308 442T394 487Q403 501 409 520T415 560Q415 610 379 644T290 678Q217 678 193 611T168 424V83Q168 56 172 46T190 31T240 27V0H30V27Q66 27 80 31T98 45T102 83V440H30V467H102Q105 583 152 644T301 705Q368
705 407 680T461 621T477 556Q477 514 452 481Q399 473 370 450T340 388Q340 358 356 339T411 293L436 275Q481 242 507 207Z" />
<glyph unicode="&#xe0;" glyph-name="agrave" horiz-adv-x="477" d="M463 13Q445 3 429 -3T383 -10Q359 -10 345 1T328 52Q288 19 254 4T177 -12Q121 -12 87 13T53 89Q53 160 123 212T327 284V340Q327 396 306 424T237 452Q211 452 187 445T148 426T133 405Q133
399 142 392T158 378T164 355Q164 336 154 325T123 313Q102 313 90 326T78 364Q78 393 96 419T152 462T250 479Q322 479 357 449T393 345V98Q393 59 401 45T429 30Q439 30 457 36L463 13ZM129 69T150 51T209 32Q241 32 269 45T327 80V256Q129 217 129 106Q129 69
150 51ZM198 674Q183 690 179 697T174 715Q174 728 183 737T204 747Q217 747 226 740T243 716L319 562H301L198 674Z" />
<glyph unicode="&#xe1;" glyph-name="aacute" horiz-adv-x="477" d="M463 13Q445 3 429 -3T383 -10Q359 -10 345 1T328 52Q288 19 254 4T177 -12Q121 -12 87 13T53 89Q53 160 123 212T327 284V340Q327 396 306 424T237 452Q211 452 187 445T148 426T133 405Q133
399 142 392T158 378T164 355Q164 336 154 325T123 313Q102 313 90 326T78 364Q78 393 96 419T152 462T250 479Q322 479 357 449T393 345V98Q393 59 401 45T429 30Q439 30 457 36L463 13ZM129 69T150 51T209 32Q241 32 269 45T327 80V256Q129 217 129 106Q129 69
150 51ZM250 716Q258 732 267 739T289 747Q301 747 310 738T319 715Q319 705 315 698T295 674L192 562H174L250 716Z" />
<glyph unicode="&#xe2;" glyph-name="acircumflex" horiz-adv-x="477" d="M463 13Q445 3 429 -3T383 -10Q359 -10 345 1T328 52Q288 19 254 4T177 -12Q121 -12 87 13T53 89Q53 160 123 212T327 284V340Q327 396 306 424T237 452Q211 452 187 445T148 426T133 405Q133
399 142 392T158 378T164 355Q164 336 154 325T123 313Q102 313 90 326T78 364Q78 393 96 419T152 462T250 479Q322 479 357 449T393 345V98Q393 59 401 45T429 30Q439 30 457 36L463 13ZM129 69T150 51T209 32Q241 32 269 45T327 80V256Q129 217 129 106Q129 69
150 51ZM217 697H276L368 557H334L247 645L159 557H125L217 697Z" />
<glyph unicode="&#xe3;" glyph-name="atilde" horiz-adv-x="477" d="M463 13Q445 3 429 -3T383 -10Q359 -10 345 1T328 52Q288 19 254 4T177 -12Q121 -12 87 13T53 89Q53 160 123 212T327 284V340Q327 396 306 424T237 452Q211 452 187 445T148 426T133 405Q133
399 142 392T158 378T164 355Q164 336 154 325T123 313Q102 313 90 326T78 364Q78 393 96 419T152 462T250 479Q322 479 357 449T393 345V98Q393 59 401 45T429 30Q439 30 457 36L463 13ZM129 69T150 51T209 32Q241 32 269 45T327 80V256Q129 217 129 106Q129 69
150 51ZM277 563T235 583Q195 602 176 602Q158 602 147 590T135 563H116Q116 604 137 627T193 651Q220 651 262 633Q276 627 291 622T318 617Q337 617 348 628T359 652H378Q378 617 356 590T301 563Q277 563 235 583Z" />
<glyph unicode="&#xe4;" glyph-name="adieresis" horiz-adv-x="477" d="M463 13Q445 3 429 -3T383 -10Q359 -10 345 1T328 52Q288 19 254 4T177 -12Q121 -12 87 13T53 89Q53 160 123 212T327 284V340Q327 396 306 424T237 452Q211 452 187 445T148 426T133 405Q133
399 142 392T158 378T164 355Q164 336 154 325T123 313Q102 313 90 326T78 364Q78 393 96 419T152 462T250 479Q322 479 357 449T393 345V98Q393 59 401 45T429 30Q439 30 457 36L463 13ZM129 69T150 51T209 32Q241 32 269 45T327 80V256Q129 217 129 106Q129 69
150 51ZM144 575T131 587T118 618Q118 636 131 649T162 662Q180 662 193 649T206 618Q206 600 193 588T162 575Q144 575 131 587ZM313 575T300 587T287 618Q287 636 300 649T331 662Q349 662 362 649T376 618Q376 600 363 588T331 575Q313 575 300 587Z" />
<glyph unicode="&#xe5;" glyph-name="aring" horiz-adv-x="477" d="M463 13Q445 3 429 -3T383 -10Q359 -10 345 1T328 52Q288 19 254 4T177 -12Q121 -12 87 13T53 89Q53 160 123 212T327 284V340Q327 396 306 424T237 452Q211 452 187 445T148 426T133 405Q133
399 142 392T158 378T164 355Q164 336 154 325T123 313Q102 313 90 326T78 364Q78 393 96 419T152 462T250 479Q322 479 357 449T393 345V98Q393 59 401 45T429 30Q439 30 457 36L463 13ZM129 69T150 51T209 32Q241 32 269 45T327 80V256Q129 217 129 106Q129 69
150 51ZM212 532T188 557T163 616Q163 650 187 674T247 699Q281 699 305 675T330 616Q330 581 306 557T247 532Q212 532 188 557ZM270 561T285 577T301 616Q301 639 285 654T247 670Q224 670 208 654T192 616Q192 593 208 577T247 561Q270 561 285 577Z" />
<glyph unicode="&#xe6;" glyph-name="ae" horiz-adv-x="746" d="M700 240H397Q397 140 429 78T534 15Q589 15 623 49T671 131L696 123Q657 -12 515 -12Q400 -12 351 72Q302 27 264 8T177 -12Q121 -12 87 13T53 86Q53 150 119 196T317 262V340Q317 395 297 423T229
452Q204 452 182 445T146 426T133 405Q133 399 142 392T158 378T164 355Q164 336 154 325T123 313Q102 313 90 326T78 365Q78 411 118 445T242 479Q293 479 325 464T372 413Q425 479 521 479Q700 479 700 247V240ZM624 267Q624 360 599 406T519 452Q460 452 431
403T398 267H624ZM245 32T276 47T341 91Q317 147 317 223V235Q221 217 175 185T129 103Q129 68 150 50T209 32Q245 32 276 47Z" />
<glyph unicode="&#xe7;" glyph-name="ccedilla" horiz-adv-x="476" d="M252 -12T246 -11L227 -53Q239 -50 254 -50Q274 -50 293 -65T312 -110Q312 -145 287 -161T226 -178Q181 -178 148 -163L159 -138Q183 -150 212 -150Q234 -150 248 -141T263 -114Q263 -98 251
-88T224 -78Q215 -78 206 -81T194 -86L184 -81L216 -7Q136 8 93 73T50 230Q50 296 73 352T145 444T272 479Q336 479 383 455T430 380Q430 357 419 343T383 328Q360 328 348 340T335 373Q335 386 339 393T351 409T359 424Q359 437 337 444T284 452Q126 452 126 233Q126
118 166 67T276 15Q334 15 367 43T413 102L437 89Q341 -55 371 -12T364 10T265 -12Q252 -12 246 -11Z" />
<glyph unicode="&#xe8;" glyph-name="egrave" horiz-adv-x="500" d="M126 230Q126 15 276 15Q341 15 376 49T425 131L450 123Q433 62 389 25T260 -12Q153 -12 102 51T50 227Q50 344 103 411T262 479Q377 479 415 408T454 237V230H126ZM135 452T127 257H378Q378
356 351 404T261 452Q135 452 127 257ZM199 674Q184 690 180 697T175 715Q175 728 184 737T205 747Q218 747 227 740T244 716L320 562H302L199 674Z" />
<glyph unicode="&#xe9;" glyph-name="eacute" horiz-adv-x="500" d="M126 230Q126 15 276 15Q341 15 376 49T425 131L450 123Q433 62 389 25T260 -12Q153 -12 102 51T50 227Q50 344 103 411T262 479Q377 479 415 408T454 237V230H126ZM135 452T127 257H378Q378
356 351 404T261 452Q135 452 127 257ZM251 716Q259 732 268 739T290 747Q302 747 311 738T320 715Q320 705 316 698T296 674L193 562H175L251 716Z" />
<glyph unicode="&#xea;" glyph-name="ecircumflex" horiz-adv-x="500" d="M126 230Q126 15 276 15Q341 15 376 49T425 131L450 123Q433 62 389 25T260 -12Q153 -12 102 51T50 227Q50 344 103 411T262 479Q377 479 415 408T454 237V230H126ZM135 452T127 257H378Q378
356 351 404T261 452Q135 452 127 257ZM218 697H277L369 557H335L248 645L160 557H126L218 697Z" />
<glyph unicode="&#xeb;" glyph-name="edieresis" horiz-adv-x="500" d="M126 230Q126 15 276 15Q341 15 376 49T425 131L450 123Q433 62 389 25T260 -12Q153 -12 102 51T50 227Q50 344 103 411T262 479Q377 479 415 408T454 237V230H126ZM135 452T127 257H378Q378
356 351 404T261 452Q135 452 127 257ZM145 575T132 587T119 618Q119 636 132 649T163 662Q181 662 194 649T207 618Q207 600 194 588T163 575Q145 575 132 587ZM314 575T301 587T288 618Q288 636 301 649T332 662Q350 662 363 649T377 618Q377 600 364 588T332
575Q314 575 301 587Z" />
<glyph unicode="&#xec;" glyph-name="igrave" horiz-adv-x="251" d="M27 27Q63 27 76 30T94 44T98 83V386Q98 411 92 419T68 428H31V455L141 473H164V83Q164 56 168 45T186 31T235 27V0H27V27ZM77 674Q62 690 58 697T53 715Q53 728 62 737T83 747Q96 747 105 740T122
716L198 562H180L77 674Z" />
<glyph unicode="&#xed;" glyph-name="iacute" horiz-adv-x="251" d="M27 27Q63 27 76 30T94 44T98 83V386Q98 411 92 419T68 428H31V455L141 473H164V83Q164 56 168 45T186 31T235 27V0H27V27ZM129 716Q137 732 146 739T168 747Q180 747 189 738T198 715Q198 705
194 698T174 674L71 562H53L129 716Z" />
<glyph unicode="&#xee;" glyph-name="icircumflex" horiz-adv-x="251" d="M27 27Q63 27 76 30T94 44T98 83V386Q98 411 92 419T68 428H31V455L141 473H164V83Q164 56 168 45T186 31T235 27V0H27V27ZM96 697H155L247 557H213L126 645L38 557H4L96 697Z" />
<glyph unicode="&#xef;" glyph-name="idieresis" horiz-adv-x="251" d="M27 27Q63 27 76 30T94 44T98 83V386Q98 411 92 419T68 428H31V455L141 473H164V83Q164 56 168 45T186 31T235 27V0H27V27ZM23 575T10 587T-3 618Q-3 636 10 649T41 662Q59 662 72 649T85
618Q85 600 72 588T41 575Q23 575 10 587ZM192 575T179 587T166 618Q166 636 179 649T210 662Q228 662 241 649T255 618Q255 600 242 588T210 575Q192 575 179 587Z" />
<glyph unicode="&#xf0;" glyph-name="eth" horiz-adv-x="520" d="M467 408T467 241Q467 115 414 52T259 -11Q155 -11 103 53T50 233Q50 350 103 414T262 479Q283 479 333 473V476Q300 536 253 583L101 517L84 542L229 605Q186 644 115 692L136 708Q212 670 273
624L370 666L387 641L299 603Q338 570 371 529Q467 408 467 241ZM331 16T361 73T391 243Q391 347 363 399T263 452Q189 452 158 398T126 236Q126 128 157 72T259 16Q331 16 361 73Z" />
<glyph unicode="&#xf1;" glyph-name="ntilde" horiz-adv-x="569" d="M464 55T468 45T485 31T535 27V0H327V27Q362 27 376 30T394 45T398 83V327Q398 376 376 408T301 441Q259 441 231 419T174 355V83Q174 56 178 45T196 31T245 27V0H37V27Q73 27 86 30T104 44T108
83V386Q108 411 102 419T78 428H41V455L144 473H171V395H172Q202 439 237 459T328 479Q399 479 431 445T464 336V83Q464 55 468 45ZM314 563T272 583Q232 602 213 602Q195 602 184 590T172 563H153Q153 604 174 627T230 651Q257 651 299 633Q313 627 328 622T355
617Q374 617 385 628T396 652H415Q415 617 393 590T338 563Q314 563 272 583Z" />
<glyph unicode="&#xf2;" glyph-name="ograve" horiz-adv-x="516" d="M154 -12T102 51T50 234Q50 352 102 415T258 479Q362 479 414 416T467 234Q467 115 415 52T258 -12Q154 -12 102 51ZM325 15T358 72T391 234Q391 338 358 395T258 452Q192 452 159 395T125 234Q125
129 158 72T258 15Q325 15 358 72ZM209 674Q194 690 190 697T185 715Q185 728 194 737T215 747Q228 747 237 740T254 716L330 562H312L209 674Z" />
<glyph unicode="&#xf3;" glyph-name="oacute" horiz-adv-x="516" d="M154 -12T102 51T50 234Q50 352 102 415T258 479Q362 479 414 416T467 234Q467 115 415 52T258 -12Q154 -12 102 51ZM325 15T358 72T391 234Q391 338 358 395T258 452Q192 452 159 395T125 234Q125
129 158 72T258 15Q325 15 358 72ZM261 716Q269 732 278 739T300 747Q312 747 321 738T330 715Q330 705 326 698T306 674L203 562H185L261 716Z" />
<glyph unicode="&#xf4;" glyph-name="ocircumflex" horiz-adv-x="516" d="M154 -12T102 51T50 234Q50 352 102 415T258 479Q362 479 414 416T467 234Q467 115 415 52T258 -12Q154 -12 102 51ZM325 15T358 72T391 234Q391 338 358 395T258 452Q192 452 159 395T125
234Q125 129 158 72T258 15Q325 15 358 72ZM228 697H287L379 557H345L258 645L170 557H136L228 697Z" />
<glyph unicode="&#xf5;" glyph-name="otilde" horiz-adv-x="516" d="M154 -12T102 51T50 234Q50 352 102 415T258 479Q362 479 414 416T467 234Q467 115 415 52T258 -12Q154 -12 102 51ZM325 15T358 72T391 234Q391 338 358 395T258 452Q192 452 159 395T125 234Q125
129 158 72T258 15Q325 15 358 72ZM288 563T246 583Q206 602 187 602Q169 602 158 590T146 563H127Q127 604 148 627T204 651Q231 651 273 633Q287 627 302 622T329 617Q348 617 359 628T370 652H389Q389 617 367 590T312 563Q288 563 246 583Z" />
<glyph unicode="&#xf6;" glyph-name="odieresis" horiz-adv-x="516" d="M154 -12T102 51T50 234Q50 352 102 415T258 479Q362 479 414 416T467 234Q467 115 415 52T258 -12Q154 -12 102 51ZM325 15T358 72T391 234Q391 338 358 395T258 452Q192 452 159 395T125
234Q125 129 158 72T258 15Q325 15 358 72ZM155 575T142 587T129 618Q129 636 142 649T173 662Q191 662 204 649T217 618Q217 600 204 588T173 575Q155 575 142 587ZM324 575T311 587T298 618Q298 636 311 649T342 662Q360 662 373 649T387 618Q387 600 374 588T342
575Q324 575 311 587Z" />
<glyph unicode="&#xf7;" glyph-name="divide" horiz-adv-x="541" d="M248 367T231 383T214 423Q214 445 230 461T270 478Q292 478 309 462T326 423Q326 402 310 385T271 367Q248 367 231 383ZM36 260H505V209H36V260ZM248 -9T231 7T214 46Q214 69 230 85T270 102Q293
102 309 86T326 46Q326 25 309 8T271 -9Q248 -9 231 7Z" />
<glyph unicode="&#xf8;" glyph-name="oslash" horiz-adv-x="522" d="M421 409Q468 345 468 234Q468 115 416 52T259 -12Q171 -12 118 36L84 -6H50L100 56Q51 117 51 234Q51 352 103 415T259 479Q350 479 403 429L439 473H473L421 409ZM126 161T143 108L366 383Q332
452 259 452Q193 452 160 395T126 234Q126 161 143 108ZM392 305T377 354L155 81Q187 15 259 15Q326 15 359 72T392 234Q392 305 377 354Z" />
<glyph unicode="&#xf9;" glyph-name="ugrave" horiz-adv-x="571" d="M456 55T460 45T477 31T527 27V0H391V71H389Q361 30 325 9T233 -12Q165 -12 133 23T100 131V386Q100 411 94 419T70 428H33V455L139 473H166V140Q166 90 188 58T261 26Q303 26 333 48T389 112L390
386Q390 411 384 419T360 428H323V455L429 473H456V83Q456 55 460 45ZM221 674Q206 690 202 697T197 715Q197 728 206 737T227 747Q240 747 249 740T266 716L342 562H324L221 674Z" />
<glyph unicode="&#xfa;" glyph-name="uacute" horiz-adv-x="571" d="M456 55T460 45T477 31T527 27V0H391V71H389Q361 30 325 9T233 -12Q165 -12 133 23T100 131V386Q100 411 94 419T70 428H33V455L139 473H166V140Q166 90 188 58T261 26Q303 26 333 48T389 112L390
386Q390 411 384 419T360 428H323V455L429 473H456V83Q456 55 460 45ZM273 716Q281 732 290 739T312 747Q324 747 333 738T342 715Q342 705 338 698T318 674L215 562H197L273 716Z" />
<glyph unicode="&#xfb;" glyph-name="ucircumflex" horiz-adv-x="571" d="M456 55T460 45T477 31T527 27V0H391V71H389Q361 30 325 9T233 -12Q165 -12 133 23T100 131V386Q100 411 94 419T70 428H33V455L139 473H166V140Q166 90 188 58T261 26Q303 26 333 48T389
112L390 386Q390 411 384 419T360 428H323V455L429 473H456V83Q456 55 460 45ZM240 697H299L391 557H357L270 645L182 557H148L240 697Z" />
<glyph unicode="&#xfc;" glyph-name="udieresis" horiz-adv-x="571" d="M456 55T460 45T477 31T527 27V0H391V71H389Q361 30 325 9T233 -12Q165 -12 133 23T100 131V386Q100 411 94 419T70 428H33V455L139 473H166V140Q166 90 188 58T261 26Q303 26 333 48T389
112L390 386Q390 411 384 419T360 428H323V455L429 473H456V83Q456 55 460 45ZM167 575T154 587T141 618Q141 636 154 649T185 662Q203 662 216 649T229 618Q229 600 216 588T185 575Q167 575 154 587ZM336 575T323 587T310 618Q310 636 323 649T354 662Q372 662
385 649T399 618Q399 600 386 588T354 575Q336 575 323 587Z" />
<glyph unicode="&#xfd;" glyph-name="yacute" horiz-adv-x="462" d="M458 467V440Q431 440 418 436T399 422T384 391L181 -139Q166 -179 150 -195T98 -212Q62 -212 41 -192T20 -144Q20 -123 33 -109T65 -95Q80 -95 92 -104T105 -132Q105 -143 99 -153T93 -171Q93
-185 110 -185Q125 -185 134 -171T162 -107L202 -2L56 390Q44 422 32 431T-14 440V467H178V440H143Q119 440 119 423Q119 418 123 406L235 86H236L357 403Q361 414 361 422Q361 440 337 440H294V467H458ZM225 716Q233 732 242 739T264 747Q276 747 285 738T294
715Q294 705 290 698T270 674L167 562H149L225 716Z" />
<glyph unicode="&#xfe;" glyph-name="thorn" horiz-adv-x="545" d="M404 479T450 419T496 242Q496 111 443 50T300 -12Q222 -12 167 37V-117Q167 -144 171 -155T189 -169T238 -173V-200H30V-173Q66 -173 79 -170T97 -156T101 -117V606Q101 631 95 639T71 648H34V675L140
693H167V429Q228 479 313 479Q404 479 450 419ZM353 14T386 67T420 236Q420 340 391 396T296 452Q231 452 167 395V73Q220 14 290 14Q353 14 386 67Z" />
<glyph unicode="&#xff;" glyph-name="ydieresis" horiz-adv-x="462" d="M458 467V440Q431 440 418 436T399 422T384 391L181 -139Q166 -179 150 -195T98 -212Q62 -212 41 -192T20 -144Q20 -123 33 -109T65 -95Q80 -95 92 -104T105 -132Q105 -143 99 -153T93 -171Q93
-185 110 -185Q125 -185 134 -171T162 -107L202 -2L56 390Q44 422 32 431T-14 440V467H178V440H143Q119 440 119 423Q119 418 123 406L235 86H236L357 403Q361 414 361 422Q361 440 337 440H294V467H458ZM119 575T106 587T93 618Q93 636 106 649T137 662Q155 662
168 649T181 618Q181 600 168 588T137 575Q119 575 106 587ZM288 575T275 587T262 618Q262 636 275 649T306 662Q324 662 337 649T351 618Q351 600 338 588T306 575Q288 575 275 587Z" />
<glyph unicode="&#x2013;" glyph-name="endash" horiz-adv-x="414" d="M0 270H414V224H0V270Z" />
<glyph unicode="&#x2014;" glyph-name="emdash" horiz-adv-x="827" d="M0 270H827V224H0V270Z" />
<glyph unicode="&#x2018;" glyph-name="quoteleft" horiz-adv-x="248" d="M102 504T89 520T75 568Q75 610 96 645T166 691L171 668Q142 659 129 647T116 614Q116 599 130 597Q146 595 158 585T171 551Q171 529 157 517T123 504Q102 504 89 520Z" />
<glyph unicode="&#x2019;" glyph-name="quoteright" horiz-adv-x="248" d="M78 527Q107 536 120 548T133 581Q133 595 119 598Q78 606 78 644Q78 666 92 678T126 691Q147 691 160 675T174 627Q174 585 153 550T83 504L78 527Z" />
<glyph unicode="&#x201a;" glyph-name="quotesinglbase" horiz-adv-x="248" d="M78 -69Q107 -60 120 -48T133 -15Q133 0 119 2Q103 4 91 14T78 48Q78 70 92 82T126 95Q147 95 160 79T174 31Q174 -11 153 -46T83 -92L78 -69Z" />
<glyph unicode="&#x201c;" glyph-name="quotedblleft" horiz-adv-x="381" d="M97 504T84 520T70 568Q70 610 91 645T161 691L166 668Q137 659 124 647T111 614Q111 598 125 597Q140 596 153 585T166 551Q166 529 152 517T118 504Q97 504 84 520ZM239 504T226 520T212
568Q212 610 233 645T303 691L308 668Q279 659 266 647T253 614Q253 598 267 597Q282 596 295 585T308 551Q308 529 294 517T260 504Q239 504 226 520Z" />
<glyph unicode="&#x201d;" glyph-name="quotedblright" horiz-adv-x="381" d="M73 527Q102 536 115 548T128 581Q128 597 114 598Q99 599 86 610T73 644Q73 666 87 678T121 691Q142 691 155 675T169 627Q169 585 148 550T78 504L73 527ZM215 527Q244 536 257 548T270
581Q270 597 256 598Q241 599 228 610T215 644Q215 666 229 678T263 691Q284 691 297 675T311 627Q311 585 290 550T220 504L215 527Z" />
<glyph unicode="&#x201e;" glyph-name="quotedblbase" horiz-adv-x="381" d="M73 -92Q102 -83 115 -71T128 -38Q128 -22 114 -21Q99 -20 86 -9T73 25Q73 47 87 59T121 72Q142 72 155 56T169 8Q169 -34 148 -69T78 -115L73 -92ZM215 -92Q244 -83 257 -71T270 -38Q270
-22 256 -21Q241 -20 228 -9T215 25Q215 47 229 59T263 72Q284 72 297 56T311 8Q311 -34 290 -69T220 -115L215 -92Z" />
<glyph unicode="&#x2022;" glyph-name="bullet" horiz-adv-x="423" d="M171 183T138 203T84 256T64 330Q64 370 84 403T137 457T211 477Q251 477 284 457T338 404T358 330Q358 290 338 257T285 203T211 183Q171 183 138 203Z" />
<glyph unicode="&#x2039;" glyph-name="guilsinglleft" horiz-adv-x="299" d="M35 247L246 468H266L128 247L266 25H246L35 247Z" />
<glyph unicode="&#x203a;" glyph-name="guilsinglright" horiz-adv-x="299" d="M170 247L32 468H52L263 247L52 25H32L170 247Z" />
</font>
</defs>
</svg>
