<?xml version="1.0" standalone="no"?>
<!DOCTYPE svg PUBLIC "-//W3C//DTD SVG 1.1//EN" "http://www.w3.org/Graphics/SVG/1.1/DTD/svg11.dtd">
<svg xmlns="http://www.w3.org/2000/svg">
<defs >
<font id="Stoke" horiz-adv-x="1391" ><font-face
    font-family="Stoke"
    units-per-em="2048"
    panose-1="2 3 5 2 7 8 0 3 3 3"
    ascent="2030"
    descent="-530"
    alphabetic="0" />
<glyph unicode=" " glyph-name="space" horiz-adv-x="550" />
<glyph unicode="!" glyph-name="exclam" horiz-adv-x="670" d="M464 1561Q500 1561 500 1527Q500 1504 491 1457T474 1357Q450 1185 439 1093Q400 780 388 656T367 500T335 467Q312 467 303 499T287 598T272 743Q245 978 235 1062L215 1216Q196 1366 186 1415Q170
1501 170 1527Q170 1561 206 1561L336 1553L464 1561ZM211 41T203 65T195 114T205 164T235 210Q277 253 325 253T400 240T443 206Q477 164 477 122T466 55T434 12Q394 -24 347 -24T273 -11T229 21Z" />
<glyph unicode="&quot;" glyph-name="quotedbl" horiz-adv-x="856" d="M435 927Q426 985 416 1042Q392 1172 382 1224T364 1314Q347 1404 347 1434T357 1488T385 1528Q421 1561 474 1561T563 1528T598 1450Q598 1382 586 1331Q537 1115 523 1052L497 927H435ZM598
927Q589 985 579 1042Q555 1172 545 1224T527 1314Q510 1404 510 1434T520 1488T548 1528Q584 1561 637 1561T726 1528T761 1450Q761 1382 749 1331Q700 1115 686 1052L660 927H598Z" />
<glyph unicode="#" glyph-name="numbersign" horiz-adv-x="1526" d="M330 -24T314 -4T297 32T297 53T300 72Q304 96 319 159L399 503H181Q149 503 125 521T100 573T125 623T183 640H431L497 921H271Q239 921 215 939T190 991T215 1041T273 1058H529L616 1425Q643
1539 682 1556Q695 1561 714 1561T752 1545T771 1513T770 1488T768 1466Q764 1436 759 1417L676 1058H1019L1106 1425Q1133 1539 1172 1556Q1185 1561 1204 1561T1242 1545T1261 1513T1260 1488T1258 1466Q1254 1436 1249 1417L1166 1058H1343Q1375 1058 1400 1041T1426
991T1402 940T1345 921H1134L1068 640H1243Q1275 640 1300 623T1326 573T1302 522T1245 503H1036L930 44Q924 17 904 -3T852 -24T804 -4T787 32T787 53T790 72Q794 96 809 159L889 503H546L440 44Q434 17 414 -3T362 -24ZM921 640L987 921H644L578 640H921Z" />
<glyph unicode="$" glyph-name="dollar" horiz-adv-x="1447" d="M677 -21Q461 -8 211 125V470Q211 585 247 585Q270 585 279 529Q311 235 515 126Q585 88 677 78V677Q430 737 309 867Q203 981 203 1138Q203 1298 318 1412Q448 1541 677 1558V1748Q677 1823 723
1823Q774 1823 774 1749V1560Q898 1557 996 1524L1024 1514Q1046 1507 1056 1507Q1081 1507 1102 1536Q1137 1584 1151 1584Q1176 1584 1177 1547T1182 1483T1190 1424Q1201 1363 1216 1304Q1240 1203 1240 1166T1215 1128Q1197 1128 1173 1181Q1045 1445 774 1464V910Q1199
809 1283 580Q1310 507 1310 416T1274 244T1168 106Q1023 -14 774 -22V-213Q774 -285 728 -285Q677 -285 677 -210V-21ZM677 1462Q465 1444 402 1318Q383 1278 383 1234T395 1148T440 1068Q510 988 677 936V1462ZM774 75Q1122 86 1122 344Q1122 558 774 653V75Z"
/>
<glyph unicode="%" glyph-name="percent" horiz-adv-x="1890" d="M354 -24T340 -10T325 21T327 48T336 72T356 104L1422 1473Q1475 1546 1508 1557Q1519 1561 1537 1561T1572 1547T1589 1514Q1589 1477 1543 1417L475 44Q430 -13 411 -18T373 -24ZM492 854Q403
854 331 886T214 970Q130 1067 130 1207Q130 1353 239 1456Q349 1561 506 1561Q676 1561 780 1462Q880 1365 880 1219Q880 1052 768 950Q663 854 492 854ZM424 982T466 957T543 931T604 941T650 976Q692 1028 692 1121T674 1277T624 1386Q558 1482 472 1482Q367
1482 331 1362Q319 1321 319 1258T339 1133T391 1027ZM1010 335Q1010 401 1039 465T1119 578Q1229 683 1386 683Q1556 683 1660 584Q1760 487 1760 341Q1760 174 1648 72Q1543 -24 1388 -24Q1194 -24 1094 92Q1010 189 1010 335ZM1211 484Q1199 443 1199 380T1219
255T1272 149Q1341 53 1432 53Q1572 53 1572 263Q1572 408 1504 508Q1438 604 1352 604Q1247 604 1211 484Z" />
<glyph unicode="&amp;" glyph-name="ampersand" horiz-adv-x="1803" d="M1123 204Q904 -19 626 -19Q400 -19 262 94Q130 203 130 368Q130 516 216 617Q304 720 509 811Q346 988 320 1122Q312 1166 312 1223T340 1343T424 1454Q545 1561 759 1561Q945 1561 1051
1474Q1149 1392 1149 1261Q1149 989 785 834Q861 753 963 657L1194 439Q1358 673 1358 820Q1358 874 1287 874Q1260 874 1250 870Q1234 865 1221 865Q1188 865 1188 893Q1188 910 1210 923T1286 937L1479 923Q1513 923 1543 928Q1595 937 1626 937T1678 924T1698
892Q1698 864 1666 864L1617 871Q1534 871 1476 750Q1366 520 1263 374L1546 99Q1579 66 1640 66L1690 74Q1723 74 1723 49Q1723 -3 1620 -3L1479 5Q1467 5 1453 4T1426 2Q1372 -2 1356 3T1324 19Q1289 42 1227 102L1123 204ZM724 903Q834 963 889 1060Q930 1133
930 1203T910 1327T860 1418Q801 1486 719 1486Q631 1486 576 1432Q522 1380 522 1293Q522 1205 552 1145Q602 1046 724 903ZM683 81Q859 81 1054 272L571 746Q467 684 414 580Q372 495 372 410Q372 253 454 167T683 81Z" />
<glyph unicode="&apos;" glyph-name="quotesingle" horiz-adv-x="512" d="M218 927Q209 985 199 1042Q175 1172 165 1224T147 1314Q130 1404 130 1434T140 1488T168 1528Q204 1561 257 1561T346 1528T381 1450Q381 1382 369 1331Q320 1115 306 1052L280 927H218Z" />
<glyph unicode="(" glyph-name="parenleft" horiz-adv-x="836" d="M748 -223L808 -218Q836 -218 836 -242Q836 -259 809 -272T730 -285Q613 -285 507 -222T318 -34Q140 240 140 715Q140 1190 318 1464Q400 1589 506 1652T730 1715Q781 1715 808 1702T836 1672Q836
1648 808 1648L748 1653Q588 1653 490 1436Q380 1190 380 715Q380 240 490 -6Q588 -223 748 -223Z" />
<glyph unicode=")" glyph-name="parenright" horiz-adv-x="836" d="M88 -223L28 -218Q0 -218 0 -242Q0 -259 27 -272T106 -285Q223 -285 329 -222T518 -34Q696 240 696 715Q696 1190 518 1464Q436 1589 330 1652T106 1715Q55 1715 28 1702T0 1672Q0 1648 28 1648L88
1653Q248 1653 346 1436Q456 1190 456 715Q456 240 346 -6Q248 -223 88 -223Z" />
<glyph unicode="*" glyph-name="asterisk" horiz-adv-x="1045" d="M803 1123L701 1127Q633 1127 575 1117Q628 1058 671 1029Q754 974 782 940Q801 912 801 886T790 840T763 806Q730 779 700 779T653 786T622 811Q596 845 584 894T566 963T551 1002T534 1042L517
1078Q482 1014 464 955T433 865T406 818Q382 788 350 788T297 795T262 816Q228 846 228 881T241 936T273 973T315 1004L355 1029Q403 1061 463 1121Q393 1135 342 1134T258 1133T196 1143Q130 1164 130 1228Q130 1304 188 1334Q205 1342 225 1342T265 1334T303
1314T338 1287L369 1261Q422 1221 486 1187Q480 1265 461 1322Q423 1431 423 1471T453 1536T525 1561T597 1538T627 1474T615 1403L590 1337Q564 1272 553 1182Q628 1216 666 1246T723 1290T758 1313Q788 1330 813 1330T857 1321T888 1296Q915 1261 915 1218T885
1149T803 1123Z" />
<glyph unicode="+" glyph-name="plus" horiz-adv-x="1285" d="M572 575H150V712H572V1146H713V712H1135V575H713V141H572V575Z" />
<glyph unicode="," glyph-name="comma" horiz-adv-x="512" d="M134 -392Q94 -392 94 -353Q94 -324 135 -306T203 -266T248 -222Q283 -179 281 -146T265 -97T200 -66Q90 -32 90 70Q90 166 176 202Q204 214 239 214Q324 214 372 155T421 -20Q421 -148 328 -270Q234
-392 134 -392Z" />
<glyph unicode="-" glyph-name="hyphen" horiz-adv-x="875" d="M662 690Q735 690 735 622Q735 590 716 572T664 553H211Q179 553 160 571T140 622Q140 690 213 690H662Z" />
<glyph unicode="." glyph-name="period" horiz-adv-x="512" d="M111 52T102 79T92 136T104 195T138 248Q186 298 259 298Q335 298 380 242Q419 193 419 129Q419 73 374 27Q325 -24 269 -24T182 -9T131 29Z" />
<glyph unicode="/" glyph-name="slash" horiz-adv-x="1008" d="M743 1567Q787 1681 826 1698Q840 1703 860 1703T894 1688T908 1654Q908 1615 886 1559L240 -217Q214 -285 172 -285T115 -265T100 -229T101 -207T106 -188L116 -154Q123 -134 135 -102L743 1567Z" />
<glyph unicode="0" glyph-name="zero" horiz-adv-x="1529" d="M140 786Q140 930 183 1077T308 1332Q482 1561 776 1561Q1062 1561 1231 1333Q1389 1120 1389 818Q1389 414 1208 187Q1043 -20 780 -20Q521 -20 332 196Q140 418 140 786ZM583 207T667 150T827 93T957
124T1055 224Q1150 375 1150 667Q1150 1016 1026 1234Q904 1452 712 1452Q562 1452 470 1316Q375 1175 375 954T414 578T518 315Z" />
<glyph unicode="1" glyph-name="one" horiz-adv-x="930" d="M794 73Q827 73 827 46Q827 30 809 15T750 0Q692 0 655 4T601 10T568 13Q532 15 503 15Q425 15 397 11T352 5T318 2Q203 -4 176 13T149 44Q149 76 182 76L276 66Q333 66 354 102Q385 157 388 218T392
321V1058Q392 1185 371 1244T295 1303L158 1289Q130 1289 130 1314Q130 1332 159 1346T224 1372T303 1402T389 1440Q483 1483 525 1514Q590 1561 608 1561T627 1534T624 1482T619 1423Q614 1338 614 1238V321Q614 197 628 159T652 102Q673 66 730 66L794 73Z" />
<glyph unicode="2" glyph-name="two" horiz-adv-x="1380" d="M1240 348T1218 300T1183 221T1159 158Q1141 105 1116 0H201Q184 0 172 10T160 57T179 156T249 294Q351 447 624 686Q806 846 874 951Q946 1063 946 1196Q946 1314 869 1384Q791 1454 661 1454Q526
1454 420 1363Q314 1272 278 1128Q274 1110 262 1092T237 1073Q204 1073 204 1116V1392Q314 1482 402 1512Q545 1561 682 1561T912 1536T1070 1464Q1206 1367 1206 1196Q1206 1061 1109 934Q1008 801 765 618Q415 352 335 187H721Q1016 187 1174 358Q1204 391 1222
391T1240 370Z" />
<glyph unicode="3" glyph-name="three" horiz-adv-x="1355" d="M657 -24Q383 -24 190 110V407Q190 450 213 450Q237 450 252 384T310 259T408 161Q519 84 664 84Q797 84 896 168Q1002 258 1002 398Q1002 556 876 674Q756 789 607 789Q572 789 554 783Q517 770
498 770Q463 770 463 798Q463 837 585 874Q757 924 836 1002T916 1198Q916 1312 835 1386T625 1460Q425 1460 325 1302Q291 1249 278 1196T257 1133T238 1122Q215 1122 215 1165V1428Q414 1561 667 1561Q885 1561 1011 1474Q1138 1385 1138 1229Q1138 1131 1054
1034Q970 937 841 883Q1001 858 1105 752Q1215 640 1215 473Q1215 332 1128 212Q1051 104 917 38Q790 -24 657 -24Z" />
<glyph unicode="4" glyph-name="four" horiz-adv-x="1445" d="M556 76L650 66Q707 66 728 102Q759 157 762 218T766 321V462H166Q80 462 80 499Q80 526 131 588L885 1507Q938 1570 959 1570Q988 1570 988 1508V591H1130Q1235 591 1299 624Q1319 635 1336 646Q1364
663 1375 663Q1395 663 1395 643Q1395 632 1374 599Q1325 525 1306 429Q1298 389 1283 389Q1273 389 1262 402T1232 426T1184 444Q1115 462 999 462H988V321Q988 197 1002 159T1026 102Q1047 66 1104 66L1168 73Q1201 73 1201 46Q1201 30 1183 15T1124 0Q1066 0
1029 4T975 10T942 13Q906 15 877 15Q799 15 771 11T726 5T692 2Q577 -4 550 13T523 44Q523 76 556 76ZM331 591H766V1209L315 656Q286 622 286 607T331 591Z" />
<glyph unicode="5" glyph-name="five" horiz-adv-x="1364" d="M338 967Q466 1033 630 1033T899 992T1076 878Q1224 732 1224 504Q1224 256 1027 109Q849 -24 617 -24Q441 -24 268 50Q209 75 160 110V407Q160 450 183 450Q201 450 225 388T293 269T393 171Q514
84 670 84Q885 84 970 270Q1002 341 1002 444T969 635T879 788Q755 929 579 929Q426 929 323 834Q287 800 273 800Q245 800 245 841V1477Q250 1513 286 1513H596Q790 1513 855 1526Q961 1547 1014 1596Q1051 1629 1061 1629Q1081 1629 1081 1608Q1081 1589 1058
1531Q1012 1411 1001 1326H338V967Z" />
<glyph unicode="6" glyph-name="six" horiz-adv-x="1459" d="M1215 1379T1223 1350T1232 1290T1205 1259Q1179 1259 1158 1300Q1073 1465 850 1465Q654 1465 529 1283Q399 1093 391 762Q476 941 680 1001Q749 1021 841 1021T1024 987T1180 892Q1319 762 1319 560Q1319
284 1136 122Q973 -24 768 -24Q490 -24 326 184Q160 397 160 771Q160 1096 356 1328Q482 1476 656 1532Q743 1561 828 1561T972 1548T1074 1514T1148 1465T1196 1408ZM409 524Q450 320 568 202Q680 90 828 90Q948 90 1024 186Q1098 280 1098 411T1067 633T986 786Q885
911 755 911Q622 911 530 808Q439 705 409 524Z" />
<glyph unicode="7" glyph-name="seven" horiz-adv-x="1175" d="M504 8L397 0Q377 0 367 10T363 44T395 135T462 296L556 504L674 752L810 1029L962 1326H384Q238 1326 123 1183Q105 1160 88 1160T70 1182T79 1237T103 1314Q139 1428 150 1492T170 1566T188 1576Q205
1576 223 1554T247 1527T266 1519Q290 1513 347 1513H1087Q1119 1513 1132 1511T1145 1496T1137 1467L1118 1425Q921 984 837 734Q699 321 651 34Q646 0 615 0L504 8Z" />
<glyph unicode="8" glyph-name="eight" horiz-adv-x="1468" d="M1007 833Q1338 668 1338 431Q1338 245 1176 114Q1005 -24 740 -24Q432 -24 269 116Q130 235 130 414Q130 555 230 670Q327 780 469 821Q218 973 218 1189Q218 1334 353 1442Q501 1561 738 1561Q971
1561 1118 1452Q1255 1351 1255 1205Q1255 1026 1106 898Q1060 859 1007 833ZM899 880Q1019 950 1050 1094Q1058 1135 1058 1185T1032 1290T959 1385Q859 1470 696 1470Q506 1470 454 1342Q439 1303 439 1266T455 1186T516 1095Q623 980 845 901L899 880ZM355 552Q336
498 336 429T370 293T464 176Q598 66 793 66Q933 66 1023 140Q1114 216 1114 338Q1114 515 820 656Q738 695 686 716T615 746L579 763Q411 714 355 552Z" />
<glyph unicode="9" glyph-name="nine" horiz-adv-x="1445" d="M208 240Q208 278 236 278T281 239T330 169T406 116Q496 72 598 72T778 112T914 234Q1041 413 1049 738Q944 584 763 537Q701 521 617 521T444 558T286 664Q140 812 140 1035Q140 1273 302 1422Q454
1562 675 1562Q957 1562 1122 1359Q1285 1159 1285 825Q1285 452 1106 218Q922 -24 617 -24Q423 -24 305 72Q208 150 208 240ZM544 718T606 685T729 651T840 667T928 715Q999 775 1044 910Q1019 1167 906 1320Q798 1466 650 1466Q447 1466 387 1272Q368 1210 368
1116T403 932T491 781Z" />
<glyph unicode=":" glyph-name="colon" horiz-adv-x="512" d="M111 52T102 79T92 136T104 195T138 248Q186 298 259 298Q335 298 380 242Q419 193 419 129Q419 73 374 27Q325 -24 269 -24T182 -9T131 29ZM111 722T102 749T92 806T104 865T138 918Q186 968 259
968Q335 968 380 912Q419 863 419 799Q419 743 374 697Q325 646 269 646T182 661T131 699Z" />
<glyph unicode=";" glyph-name="semicolon" horiz-adv-x="512" d="M110 552T101 579T91 636T103 695T137 748Q185 798 258 798Q334 798 379 742Q418 693 418 629Q418 573 373 527Q324 476 268 476T181 491T130 529ZM135 -392Q95 -392 95 -353Q95 -324 136 -306T204
-266T249 -222Q284 -179 282 -146T266 -97T201 -66Q91 -32 91 70Q91 166 177 202Q205 214 240 214Q325 214 373 155T422 -20Q422 -148 329 -270Q235 -392 135 -392Z" />
<glyph unicode="&lt;" glyph-name="less" horiz-adv-x="939" d="M100 574L789 992V829L325 547L789 260V91L100 514V574Z" />
<glyph unicode="=" glyph-name="equal" horiz-adv-x="1285" d="M150 854H1135V717H150V854ZM150 524H1135V387H150V524Z" />
<glyph unicode="&gt;" glyph-name="greater" horiz-adv-x="939" d="M839 574L150 992V829L614 547L150 260V91L839 514V574Z" />
<glyph unicode="?" glyph-name="question" horiz-adv-x="1034" d="M569 490Q569 443 505 443Q456 443 427 471Q374 522 374 592Q374 736 561 953Q700 1117 700 1259Q700 1453 483 1453Q386 1453 312 1390T205 1197Q201 1179 189 1161T163 1142Q130 1142 130 1185V1461Q310
1561 509 1561Q720 1561 833 1476Q934 1399 934 1270Q934 1103 774 947Q718 893 638 827Q462 683 462 588Q462 568 478 554T517 536T554 523T569 490ZM364 41T356 65T348 114T358 164T388 210Q430 253 478 253T553 240T596 206Q630 164 630 122T619 55T588 12Q547
-24 500 -24T426 -11T382 21Z" />
<glyph unicode="@" glyph-name="at" horiz-adv-x="2325" d="M1343 -239L1330 -190Q1330 -170 1343 -154T1384 -138T1433 -157T1453 -225T1411 -332T1294 -435Q1133 -530 898 -530Q579 -530 369 -378Q132 -207 132 120Q132 434 310 718T796 1174Q1121 1356 1514
1356Q1833 1356 2020 1213Q2215 1063 2215 793Q2215 609 2111 430Q2016 267 1864 158Q1716 52 1579 52Q1569 52 1558 44L1534 26Q1500 1 1485 2Q1432 8 1403 6L1362 3Q1335 0 1303 0Q1231 0 1251 116Q1106 -24 950 -24Q782 -24 712 70Q662 135 662 228T682 396T742
538T838 664T966 765Q1119 857 1309 857Q1530 857 1636 742L1493 115Q1490 100 1493 98T1506 100L1531 108Q1546 114 1575 114T1654 133T1753 190T1849 281T1931 406Q2010 558 2010 740Q2010 983 1858 1118Q1708 1252 1444 1252Q1126 1252 868 1084Q634 932 496
678Q364 434 364 182Q364 -249 679 -373Q791 -417 952 -417Q1097 -417 1224 -356Q1343 -297 1343 -239ZM1388 703Q1341 762 1265 762Q1151 762 1038 614Q919 458 919 262Q919 176 938 143Q972 86 1036 86Q1125 86 1227 190Q1257 220 1283 255L1388 703Z" />
<glyph unicode="A" glyph-name="A" horiz-adv-x="1707" d="M190 15L50 0Q10 0 -8 13T-27 45Q-27 73 6 73L55 66Q101 66 130 104Q185 174 267 355Q778 1463 794 1496T822 1545Q839 1570 857 1570Q875 1570 892 1546Q918 1506 965 1404L1486 265Q1560 103 1616 75Q1634
66 1653 66L1702 74Q1735 74 1735 45Q1735 0 1655 0L1461 15L1216 0Q1165 0 1144 15T1122 45Q1122 73 1154 73L1225 63Q1254 63 1267 71T1280 98T1278 129T1272 158Q1263 188 1239 240L1162 401Q1147 433 1130 443Q1102 460 1050 460H533Q459 460 435 424Q427 412
420 395L371 279Q316 147 316 116Q316 66 393 66L442 74Q474 74 474 45Q474 0 379 0Q323 0 289 5Q221 15 190 15ZM504 578Q504 547 617 547H960Q1056 547 1070 564Q1075 570 1075 578Q1075 586 1068 604L846 1141Q807 1237 787 1237Q771 1237 746 1176L517 623Q504
594 504 578Z" />
<glyph unicode="B" glyph-name="B" horiz-adv-x="1534" d="M180 1462L131 1455Q98 1455 98 1483Q98 1499 116 1513T179 1528T248 1526L296 1522Q365 1514 421 1514Q514 1514 594 1523Q735 1539 842 1539T1041 1513T1194 1442Q1317 1353 1317 1220Q1317 1052 1152
944Q1099 910 1033 886Q1218 844 1334 728Q1451 611 1451 459Q1451 250 1298 118Q1133 -24 849 -24Q766 -24 674 -9Q511 18 446 16T361 13Q319 11 298 8Q151 -13 116 15Q98 30 98 46Q98 73 131 73L195 66Q252 66 273 102Q304 157 307 218T311 321V1195Q311 1318
297 1357T272 1418Q248 1462 180 1462ZM531 934Q627 914 726 914T885 929T987 978Q1078 1046 1078 1181Q1078 1299 996 1373Q914 1447 782 1447T591 1420T531 1331V934ZM1015 778T925 803T728 829T531 814V231Q531 76 838 76Q1097 76 1179 281Q1207 351 1207 445T1174
609T1078 729Z" />
<glyph unicode="C" glyph-name="C" horiz-adv-x="1707" d="M1557 202Q1320 -23 957 -23Q593 -23 367 196Q149 406 149 729Q149 1095 382 1332Q528 1479 732 1534Q832 1561 915 1561T1048 1554T1138 1535Q1200 1518 1244 1500Q1309 1473 1325 1473Q1357 1473 1389
1505L1432 1548Q1460 1576 1473 1576Q1498 1576 1498 1535T1499 1464T1505 1406Q1514 1341 1530 1282L1554 1189Q1564 1154 1564 1131Q1564 1089 1540 1089Q1520 1089 1509 1112Q1426 1272 1264 1368Q1105 1463 934 1463Q693 1463 530 1300Q364 1134 364 877Q364
709 418 566T566 317T784 152T1050 92Q1286 92 1420 298Q1469 374 1497 485Q1504 511 1511 527T1538 544T1557 485V202Z" />
<glyph unicode="D" glyph-name="D" horiz-adv-x="1880" d="M182 1462L133 1455Q100 1455 100 1483Q100 1499 118 1513T181 1528T250 1526L298 1522Q367 1514 433 1514Q534 1514 632 1524Q810 1542 905 1542Q1295 1542 1530 1332Q1765 1122 1765 770Q1765 428 1505
200Q1249 -24 872 -24Q789 -24 730 -16L623 -1Q513 15 466 15T400 15T364 13Q320 11 300 8Q153 -13 118 15Q100 30 100 46Q100 73 133 73L197 66Q254 66 275 102Q306 157 309 218T313 321V1195Q313 1318 299 1357T274 1418Q250 1462 182 1462ZM539 1311V239Q539
149 604 114Q676 76 846 76T1139 113T1345 230Q1518 396 1518 748Q1518 1091 1334 1271Q1156 1445 848 1445T539 1311Z" />
<glyph unicode="E" glyph-name="E" horiz-adv-x="1367" d="M487 236Q487 97 584 97H791Q1034 97 1189 232Q1217 257 1242 282L1291 332Q1327 368 1348 368T1369 354Q1369 327 1341 279T1295 200T1264 137T1238 72L1213 0H393Q298 0 265 -5Q199 -15 144 -15T71
0T52 31Q52 58 85 58L149 51Q206 51 227 86Q265 153 265 321V1195Q265 1318 251 1357T226 1418Q202 1462 134 1462L85 1455Q52 1455 52 1483Q52 1499 70 1513T133 1528T202 1526L250 1522Q328 1513 382 1513H1194Q1202 1442 1228 1356Q1274 1209 1274 1185T1258
1161Q1244 1161 1229 1179Q1110 1314 1083 1336T1034 1371T986 1395Q932 1415 851 1415H584Q528 1415 508 1392T487 1323V899Q487 842 578 842H823Q895 842 954 912Q974 937 983 959T998 989T1013 997Q1039 997 1039 946L1031 787L1039 631Q1039 581 1013 581Q999
581 987 611T954 667T910 710Q864 745 823 745H577Q534 745 511 726T487 678V236Z" />
<glyph unicode="F" glyph-name="F" horiz-adv-x="1363" d="M610 66L704 76Q720 76 728 67T737 44T714 15T657 0T606 0T568 2Q540 4 519 6T481 10T448 13Q412 15 383 15Q305 15 272 10Q113 -14 78 15Q59 30 59 46Q59 73 92 73L156 66Q213 66 234 102Q265 157 268
218T272 321V1195Q272 1318 258 1357T232 1418Q209 1462 141 1462L92 1455Q59 1455 59 1483Q59 1499 77 1513T140 1528T209 1526L257 1522Q281 1518 312 1517L362 1514Q380 1513 396 1513H1210Q1221 1433 1246 1351Q1291 1210 1291 1186T1275 1161T1245 1179T1212
1218Q1123 1317 1098 1337T1051 1371T1002 1395Q948 1415 867 1415H591Q545 1415 520 1386T494 1303V895Q494 838 585 838H877Q948 838 1006 908Q1026 932 1036 954T1051 985T1067 993Q1092 993 1092 942L1084 782L1092 627Q1092 577 1067 577Q1053 577 1040 607T1006
662T964 705Q917 740 877 740H584Q541 740 518 721T494 674V321Q494 197 508 159T532 102Q553 66 610 66Z" />
<glyph unicode="G" glyph-name="G" horiz-adv-x="1707" d="M1660 747L1589 755Q1534 755 1532 580Q1532 536 1532 500V199L1448 154Q1408 133 1374 108T1287 57T1174 13Q1050 -23 878 -23T566 36T326 198Q118 412 118 729Q118 1088 341 1324Q484 1475 696 1532Q802
1561 904 1561Q1080 1561 1216 1505Q1258 1489 1273 1489T1294 1490T1308 1496Q1320 1503 1348 1531L1377 1561Q1403 1587 1419 1587Q1443 1587 1443 1550T1447 1480T1458 1415Q1472 1342 1485 1297Q1508 1222 1508 1181T1486 1140Q1467 1140 1454 1162Q1383 1294
1232 1374Q1085 1451 932 1451T672 1410T490 1294Q332 1138 332 889Q332 531 557 303Q692 166 872 116Q960 91 1032 91T1153 104T1238 142Q1315 197 1315 293V500Q1315 624 1301 662T1276 720Q1256 755 1199 755L1125 745Q1109 745 1101 754T1092 777T1110 806T1162
821T1212 821T1245 819T1276 816L1300 814Q1348 806 1401 806Q1475 806 1520 813T1610 821T1674 806T1693 775Q1693 747 1660 747Z" />
<glyph unicode="H" glyph-name="H" horiz-adv-x="1877" d="M705 73Q738 73 738 46Q738 30 720 15T661 0Q603 0 566 4T512 10T478 13Q444 15 414 15Q336 15 303 10Q144 -14 108 15Q90 30 90 46Q90 73 123 73L187 66Q244 66 265 102Q296 157 299 218T303 321V1207Q303
1331 289 1369T264 1426Q244 1462 187 1462L123 1455Q90 1455 90 1482Q90 1498 108 1513T167 1528Q225 1528 262 1524T316 1518T350 1515Q384 1513 414 1513Q492 1513 525 1518Q591 1528 646 1528T719 1513T738 1482Q738 1455 705 1455L641 1462Q584 1462 563 1426Q532
1371 529 1310T525 1207V1005Q525 977 542 967Q574 949 635 949H1241Q1351 949 1351 1005V1207Q1351 1331 1337 1369T1312 1426Q1292 1462 1235 1462L1171 1455Q1138 1455 1138 1482Q1138 1498 1156 1513T1215 1528Q1273 1528 1310 1524T1364 1518T1398 1515Q1432
1513 1462 1513Q1540 1513 1573 1518Q1639 1528 1694 1528T1767 1513T1786 1482Q1786 1455 1753 1455L1689 1462Q1632 1462 1611 1426Q1580 1371 1577 1310T1573 1207V321Q1573 197 1587 159T1612 102Q1632 66 1689 66L1753 73Q1786 73 1786 46Q1786 30 1768 15T1709
0Q1651 0 1614 4T1560 10T1526 13Q1492 15 1462 15Q1384 15 1351 10Q1192 -14 1156 15Q1138 30 1138 46Q1138 73 1171 73L1235 66Q1292 66 1313 102Q1344 157 1347 218T1351 321V781Q1351 809 1325 829T1241 849H635Q577 849 551 829T525 781V321Q525 197 539 159T564
102Q584 66 641 66L705 73Z" />
<glyph unicode="I" glyph-name="I" horiz-adv-x="854" d="M718 73Q751 73 751 46Q751 30 733 15T674 0Q616 0 579 4T525 10T492 13Q456 15 427 15Q349 15 316 10Q157 -14 122 15Q103 30 103 46Q103 73 136 73L200 66Q257 66 278 102Q309 157 312 218T316 321V1207Q316
1331 302 1369T278 1426Q257 1462 200 1462L136 1455Q103 1455 103 1482Q103 1498 121 1513T180 1528Q238 1528 275 1524T329 1518T362 1515Q398 1513 427 1513Q505 1513 538 1518Q604 1528 659 1528T732 1513T751 1482Q751 1455 718 1455L654 1462Q597 1462 576
1426Q545 1371 542 1310T538 1207V321Q538 197 552 159T576 102Q597 66 654 66L718 73Z" />
<glyph unicode="J" glyph-name="J" horiz-adv-x="1363" d="M1328 1455L1264 1462Q1207 1462 1186 1426Q1155 1371 1152 1310T1148 1207V477Q1148 237 964 100Q801 -23 573 -23Q426 -23 267 44Q210 68 157 103V470Q157 565 175 580Q181 585 191 585T208 573T234
479T299 309T396 169Q491 75 622 75Q832 75 902 294Q926 371 926 482V1207Q926 1331 912 1369T888 1426Q867 1462 810 1462L746 1455Q713 1455 713 1482Q713 1498 731 1513T790 1528Q848 1528 885 1524T939 1518T972 1515Q1008 1513 1037 1513Q1115 1513 1148 1518Q1214
1528 1269 1528T1342 1513T1361 1482Q1361 1455 1328 1455Z" />
<glyph unicode="K" glyph-name="K" horiz-adv-x="1539" d="M707 73Q740 73 740 46Q740 30 722 15T663 0Q605 0 568 4T514 10T480 13Q446 15 416 15Q338 15 305 10Q146 -14 110 15Q92 30 92 46Q92 73 125 73L189 66Q246 66 267 102Q298 157 301 218T305 321V1207Q305
1331 291 1369T266 1426Q246 1462 189 1462L125 1455Q92 1455 92 1482Q92 1498 110 1513T169 1528Q227 1528 264 1524T318 1518T352 1515Q386 1513 416 1513Q494 1513 527 1518Q593 1528 648 1528T721 1513T740 1482Q740 1455 707 1455L643 1462Q586 1462 565 1426Q534
1371 531 1310T527 1207V864Q618 887 712 954Q871 1067 1078 1266Q1198 1386 1198 1430Q1198 1463 1151 1463L1087 1455Q1054 1455 1054 1482Q1054 1498 1073 1513T1130 1528T1190 1526L1235 1522Q1302 1514 1330 1514L1484 1528Q1535 1528 1552 1513T1570 1482Q1570
1455 1537 1455L1473 1462Q1420 1462 1294 1336Q1077 1130 920 1000T652 821Q858 787 992 689Q1145 578 1254 359Q1360 141 1467 70Q1497 50 1514 50Q1536 50 1547 54Q1586 66 1594 55T1603 35Q1603 -12 1502 -12T1327 10T1188 82Q1062 181 955 412Q829 672 648
728Q590 746 527 750V321Q527 197 541 159T566 102Q586 66 643 66L707 73Z" />
<glyph unicode="L" glyph-name="L" horiz-adv-x="1367" d="M519 236Q519 97 616 97H806Q906 97 957 114Q1037 142 1121 206L1161 237Q1201 269 1231 299L1288 359Q1318 391 1335 391T1353 369Q1353 346 1332 299L1296 221Q1264 147 1229 0H475Q330 0 297 -5Q231
-15 176 -15T103 0T84 31Q84 58 117 58L181 51Q238 51 259 86Q297 153 297 321V1207Q297 1331 283 1369T258 1426Q238 1462 181 1462L117 1455Q84 1455 84 1482Q84 1498 102 1513T161 1528Q219 1528 256 1524T310 1518T344 1515Q378 1513 408 1513Q486 1513 519
1518Q585 1528 640 1528T713 1513T732 1482Q732 1455 699 1455L635 1462Q578 1462 557 1426Q526 1371 523 1310T519 1207V236Z" />
<glyph unicode="M" glyph-name="M" horiz-adv-x="2048" d="M542 0L361 15Q334 15 294 10Q92 -18 92 46Q92 73 125 73L189 66Q246 66 267 102Q298 157 301 218T305 321L306 1143Q306 1244 238 1339Q171 1436 95 1469Q72 1479 66 1486T60 1503Q60 1528 113 1528L423
1517L1070 509L1591 1512Q1727 1512 1778 1518Q1863 1528 1916 1528Q2005 1528 2005 1482Q2005 1454 1972 1454L1908 1462Q1850 1462 1830 1426Q1801 1371 1797 1310T1792 1203V321Q1792 197 1806 159T1830 102Q1851 66 1908 66L1972 73Q2005 73 2005 46Q2005 30
1987 15T1928 0Q1870 0 1833 4T1779 10T1746 13Q1710 15 1681 15Q1603 15 1570 10Q1411 -14 1376 15Q1357 30 1357 46Q1357 73 1390 73L1454 66Q1511 66 1532 102Q1563 157 1566 218T1570 321V1242L1057 249Q1029 196 1001 196Q987 196 975 212T938 268L417 1064V321Q417
197 431 159T456 102Q476 66 533 66L597 73Q630 73 630 46Q630 30 612 15T542 0Z" />
<glyph unicode="N" glyph-name="N" horiz-adv-x="1876" d="M603 0L415 15Q388 15 348 10Q146 -18 146 46Q146 73 179 73L243 66Q300 66 321 102Q352 157 355 218T359 321L360 1153Q360 1202 335 1255T294 1330T259 1372T218 1412Q168 1454 135 1466Q82 1485 82
1506T135 1528L444 1517L1484 418V1200Q1484 1324 1470 1362T1446 1420Q1425 1455 1368 1455L1295 1448Q1262 1448 1262 1475Q1262 1491 1281 1506T1352 1521L1540 1506Q1567 1506 1607 1512Q1676 1521 1724 1521T1790 1506T1809 1475Q1809 1448 1776 1448L1712
1455Q1655 1455 1634 1419Q1603 1364 1600 1303T1596 1200V181Q1596 60 1618 20Q1626 6 1640 -6Q1660 -23 1660 -41Q1660 -65 1631 -65Q1592 -65 1525 8L471 1134V321Q471 197 485 159T510 102Q530 66 587 66L660 73Q693 73 693 46Q693 30 674 15T603 0Z" />
<glyph unicode="O" glyph-name="O" horiz-adv-x="1880" d="M132 734Q132 908 190 1060T356 1324Q587 1561 966 1561Q1186 1561 1369 1452Q1544 1349 1646 1172Q1748 994 1748 786Q1748 410 1503 188Q1271 -23 929 -23Q568 -23 349 185Q132 392 132 734ZM340 889Q340
651 446 460Q544 286 708 187Q867 91 1042 91Q1244 91 1375 232Q1516 384 1516 648Q1516 867 1422 1058Q1333 1236 1180 1344Q1026 1451 855 1451Q636 1451 490 1294Q340 1133 340 889Z" />
<glyph unicode="P" glyph-name="P" horiz-adv-x="1539" d="M662 66L756 76Q772 76 780 67T789 44T766 15T709 0T658 0T620 2Q592 4 571 6T533 10T500 13Q464 15 435 15Q357 15 324 10Q165 -14 130 15Q111 30 111 46Q111 73 144 73L208 66Q265 66 286 102Q317 157
320 218T324 321V1195Q324 1318 310 1357T284 1418Q261 1462 193 1462L144 1455Q111 1455 111 1483Q111 1499 129 1513T192 1528T261 1526L309 1522Q378 1514 445 1514Q535 1514 594 1522L675 1533Q748 1543 863 1543T1084 1512T1266 1423Q1426 1303 1426 1109Q1426
859 1230 716Q1051 585 805 585Q682 585 546 625V321Q546 197 560 159T584 102Q605 66 662 66ZM546 752Q666 684 826 684Q984 684 1084 780Q1183 875 1183 1020Q1183 1218 1055 1335Q935 1445 748 1445Q611 1445 562 1370Q546 1345 546 1311V752Z" />
<glyph unicode="Q" glyph-name="Q" horiz-adv-x="1880" d="M706 -151Q678 -151 678 -117Q678 -80 758 -43Q851 -1 974 -1T1176 -20T1315 -71T1426 -142L1519 -222Q1569 -267 1614 -292T1698 -317Q1763 -317 1792 -300L1830 -278Q1840 -273 1851 -273Q1880 -273
1880 -301Q1880 -338 1818 -366Q1752 -395 1660 -395T1500 -382T1368 -342Q1237 -288 1118 -172Q1056 -112 1029 -98Q980 -72 926 -72Q820 -72 734 -142Q723 -151 706 -151ZM121 734Q121 908 179 1060T345 1324Q576 1561 955 1561Q1175 1561 1358 1452Q1533 1349
1634 1172Q1737 994 1737 786Q1737 410 1492 188Q1260 -23 918 -23Q557 -23 338 185Q121 392 121 734ZM329 889Q329 651 436 460Q533 286 697 187Q856 91 1031 91Q1233 91 1364 232Q1505 384 1505 648Q1505 867 1410 1058Q1322 1236 1168 1344Q1015 1451 844 1451Q625
1451 478 1294Q329 1133 329 889Z" />
<glyph unicode="R" glyph-name="R" horiz-adv-x="1539" d="M692 73Q725 73 725 46Q725 30 707 15T648 0Q590 0 553 4T499 10T466 13Q430 15 401 15Q323 15 290 10Q131 -14 96 15Q77 30 77 46Q77 73 110 73L174 66Q231 66 252 102Q283 157 286 218T290 321V1195Q290
1318 276 1357T250 1418Q227 1462 159 1462L110 1455Q77 1455 77 1483Q77 1499 95 1513T158 1528T227 1526L275 1522Q344 1514 396 1514T475 1515T526 1517T570 1521T611 1526T654 1530T702 1536Q758 1541 865 1541T1080 1508T1259 1418Q1401 1304 1401 1133Q1401
916 1238 790Q1090 676 869 676H834Q931 625 986 563Q1070 466 1141 343T1252 171T1326 96Q1386 50 1447 50Q1463 50 1480 56T1503 63Q1530 63 1530 35Q1530 15 1500 2T1408 -12T1288 -4T1179 26T1083 85T990 180Q908 282 779 506Q706 632 594 680Q557 696 512
708V321Q512 197 526 159T550 102Q571 66 628 66L692 73ZM512 826Q644 758 830 758Q966 758 1056 836Q1158 925 1158 1074Q1158 1227 1043 1334Q923 1445 739 1445Q551 1445 522 1370Q512 1345 512 1311V826Z" />
<glyph unicode="S" glyph-name="S" horiz-adv-x="1539" d="M1258 1393T1266 1356T1288 1261T1302 1166T1277 1128Q1259 1128 1235 1181Q1098 1465 786 1465Q620 1465 517 1398Q415 1333 415 1233Q415 1126 498 1052Q596 964 791 919T1098 825T1278 716Q1402 606
1402 422Q1402 220 1240 98Q1078 -23 810 -23Q533 -23 319 72L203 125V470Q203 585 239 585Q262 585 271 529Q293 331 446 202Q598 75 815 75Q1101 75 1186 228Q1214 279 1214 336T1191 439T1115 528Q1003 617 760 670Q494 729 358 860Q235 978 235 1138Q235 1309
376 1428Q534 1561 797 1561Q944 1561 1058 1524L1086 1514Q1108 1507 1118 1507Q1143 1507 1164 1536Q1199 1584 1213 1584Q1238 1584 1239 1547T1244 1483T1252 1425Z" />
<glyph unicode="T" glyph-name="T" horiz-adv-x="1539" d="M987 66L1081 76Q1097 76 1105 67T1114 44T1091 15T1034 0T983 0T946 2Q917 4 896 6T858 10T824 13Q790 15 760 15Q682 15 654 11T609 5T574 2Q460 -4 433 13T406 44Q406 76 439 76L533 66Q590 66 611
102Q642 157 645 218T649 321V1415H576Q513 1415 453 1402L374 1386Q263 1361 152 1236L107 1183Q87 1159 70 1159T53 1182T62 1237T86 1314Q123 1429 134 1493T154 1566T172 1576Q187 1576 205 1553T231 1526T250 1518Q270 1513 330 1513H1308Q1369 1513 1401
1534T1445 1566T1469 1576Q1494 1576 1494 1545Q1494 1534 1486 1516L1468 1474Q1417 1354 1403 1295T1382 1205Q1372 1156 1353 1156Q1331 1156 1327 1183Q1314 1246 1286 1293T1216 1362T1138 1392T1059 1405Q995 1412 871 1415V321Q871 197 885 159T910 102Q930
66 987 66Z" />
<glyph unicode="U" glyph-name="U" horiz-adv-x="1874" d="M1399 0Q1336 0 1333 117Q1135 -23 903 -23Q602 -23 440 128Q280 276 280 545V1207Q280 1331 266 1369T242 1426Q221 1462 164 1462L100 1455Q67 1455 67 1482Q67 1498 85 1513T144 1528Q202 1528 239
1524T293 1518T326 1515Q362 1513 391 1513Q469 1513 502 1518Q568 1528 623 1528T696 1513T715 1482Q715 1455 682 1455L618 1462Q561 1462 540 1426Q509 1371 506 1310T502 1207V505Q502 304 622 188Q739 75 948 75T1333 224V1207Q1333 1331 1319 1369T1294 1426Q1274
1462 1217 1462L1153 1455Q1120 1455 1120 1482Q1120 1498 1138 1513T1197 1528Q1255 1528 1292 1524T1346 1518T1380 1515Q1414 1513 1444 1513Q1522 1513 1555 1518Q1621 1528 1676 1528T1749 1513T1768 1482Q1768 1455 1735 1455L1671 1462Q1614 1462 1593 1426Q1562
1371 1559 1310T1555 1207L1558 345Q1558 157 1574 117T1615 70T1666 63L1722 70Q1754 70 1754 45Q1754 -3 1661 -3L1508 6Q1495 6 1483 5L1458 3Q1431 0 1399 0Z" />
<glyph unicode="V" glyph-name="V" horiz-adv-x="1707" d="M1702 1455L1646 1463Q1595 1463 1565 1424Q1516 1359 1430 1169Q999 222 982 177T958 110Q949 75 949 46Q949 -9 988 -25Q1021 -39 1021 -61T989 -84T922 -65T844 2Q748 110 647 332L222 1259Q143 1436
93 1456Q77 1463 61 1463L6 1455Q-27 1455 -27 1481Q-27 1499 -6 1513T61 1528L258 1514L524 1528Q620 1528 620 1481Q620 1456 588 1456L512 1465Q444 1465 444 1414Q444 1376 485 1284L866 409Q907 313 925 313Q938 313 962 373L1338 1245Q1387 1356 1387 1424Q1387
1466 1329 1466L1243 1456Q1211 1456 1211 1481Q1211 1500 1233 1514T1295 1528T1362 1526L1410 1521Q1466 1514 1496 1514Q1542 1514 1572 1518L1618 1526Q1635 1528 1662 1528T1712 1516T1735 1479T1702 1455Z" />
<glyph unicode="W" glyph-name="W" horiz-adv-x="2389" d="M648 -84Q616 -84 616 -59Q616 -44 626 -38T654 -23Q688 -6 688 27Q688 82 624 241L196 1255Q142 1382 113 1415T68 1456T36 1463L-19 1455Q-52 1455 -52 1481Q-52 1499 -31 1513T36 1528L233 1514L499
1528Q595 1528 595 1481Q595 1456 563 1456L487 1465Q419 1465 419 1414Q419 1382 459 1284L810 409Q846 313 868 313Q885 313 906 373L1162 1121L1114 1259Q1069 1388 1042 1419T996 1457T955 1463L900 1455Q867 1455 867 1481Q867 1499 888 1513T955 1528L1144
1514L1410 1528Q1506 1528 1506 1481Q1506 1456 1474 1456L1398 1465Q1334 1465 1334 1416Q1334 1393 1369 1284L1650 409Q1679 313 1703 313Q1715 313 1724 333T1740 373L2041 1245Q2090 1385 2090 1425T2022 1466L1946 1456Q1914 1456 1914 1481Q1914 1500 1936
1514T1998 1528T2065 1526L2113 1521Q2169 1514 2198 1514Q2245 1514 2274 1518L2321 1526Q2338 1528 2365 1528T2415 1516T2438 1479T2405 1455L2349 1463Q2290 1463 2258 1424Q2198 1352 2133 1169L1876 442Q1745 90 1742 67T1738 28Q1738 -10 1779 -26Q1811
-39 1811 -59Q1811 -84 1776 -84T1697 -60T1610 12Q1510 117 1457 280L1220 957L1007 343Q933 136 818 14Q726 -84 648 -84Z" />
<glyph unicode="X" glyph-name="X" horiz-adv-x="1539" d="M461 72Q493 72 493 47Q493 28 471 14T409 0T342 2L294 7Q238 14 208 14Q162 14 132 10L86 2Q69 0 42 0T-8 12T-31 49T2 73L58 65Q95 65 146 120Q166 141 192 173L659 740L166 1407Q133 1454 108 1460Q99
1463 86 1463L31 1455Q-2 1455 -2 1481Q-2 1499 19 1513T86 1528Q86 1528 283 1514L549 1528Q645 1528 645 1481Q645 1456 613 1456L537 1465Q469 1465 469 1423Q469 1386 527 1310L827 904L1047 1175Q1204 1370 1204 1424Q1204 1466 1136 1466L1060 1456Q1028
1456 1028 1481Q1028 1500 1050 1514T1112 1528T1179 1526L1227 1521Q1283 1514 1312 1514Q1359 1514 1388 1518L1435 1526Q1452 1528 1479 1528T1529 1516T1552 1479T1519 1455L1463 1463Q1426 1463 1374 1408Q1355 1387 1329 1355L889 820L1406 121Q1439 74 1464
68Q1473 65 1486 65L1541 73Q1574 73 1574 47Q1574 29 1553 15T1486 0L1289 14L1023 0Q927 0 927 47Q927 72 959 72L1035 63Q1103 63 1103 105Q1103 137 1044 219L720 656L474 353Q317 158 317 104Q317 62 385 62L461 72Z" />
<glyph unicode="Y" glyph-name="Y" horiz-adv-x="1539" d="M991 66L1085 76Q1101 76 1109 67T1118 44T1095 15T1038 0T987 0T950 2Q921 4 900 6T862 10T828 13Q794 15 764 15Q686 15 658 11T613 5T578 2Q464 -4 437 13T410 44Q410 76 443 76L537 66Q594 66 615
102Q646 157 649 218T653 321V668L125 1426Q110 1447 92 1455T36 1463L-19 1455Q-52 1455 -52 1481Q-52 1499 -31 1513T36 1528L233 1514L499 1528Q595 1528 595 1481Q595 1456 563 1456L487 1465Q419 1465 419 1424Q419 1389 464 1321L833 762L1172 1262Q1249
1381 1249 1423T1181 1466L1105 1456Q1073 1456 1073 1481Q1073 1500 1095 1514T1157 1528T1224 1526L1272 1521Q1328 1514 1358 1514Q1404 1514 1434 1518L1480 1526Q1497 1528 1524 1528T1574 1516T1597 1479T1564 1455L1498 1463Q1443 1463 1415 1426L875 664V321Q875
197 889 159T914 102Q934 66 991 66Z" />
<glyph unicode="Z" glyph-name="Z" horiz-adv-x="1539" d="M171 0Q99 0 99 39Q99 58 130 101L1102 1415H693Q544 1415 484 1392T384 1343T308 1289Q247 1239 215 1199T166 1159T148 1182T158 1238Q222 1451 230 1504T248 1566T266 1576Q282 1576 300 1553T325
1526T344 1518Q364 1513 425 1513H1361Q1422 1513 1422 1485Q1422 1465 1393 1425L423 97H892Q992 97 1043 114Q1126 143 1206 206L1246 237Q1265 252 1284 270Q1339 322 1365 350Q1403 391 1419 391Q1440 391 1440 369Q1440 345 1417 299T1381 221T1357 158Q1339
105 1314 0H171Z" />
<glyph unicode="[" glyph-name="bracketleft" horiz-adv-x="825" d="M608 -219L742 -209Q758 -209 766 -218T775 -241T752 -270T677 -285H312Q289 -285 280 -273T270 -229V1647Q270 1703 320 1703H677Q728 1703 751 1688T775 1659Q775 1627 742 1627L608 1637Q506
1637 496 1614Q492 1607 492 1596V-178Q492 -201 508 -208Q535 -219 608 -219Z" />
<glyph unicode="\" glyph-name="backslash" horiz-adv-x="1008" d="M265 1567Q221 1681 182 1698Q168 1703 148 1703T114 1688T100 1654Q100 1615 122 1559L768 -217Q794 -285 836 -285T893 -265T908 -229T907 -207T902 -188L892 -154Q885 -134 873 -102L265 1567Z" />
<glyph unicode="]" glyph-name="bracketright" horiz-adv-x="825" d="M217 -219L83 -209Q67 -209 59 -218T50 -241T73 -270T148 -285H513Q536 -285 545 -273T555 -229V1647Q555 1703 505 1703H148Q97 1703 74 1688T50 1659Q50 1627 83 1627L217 1637Q319 1637
329 1614Q333 1607 333 1596V-178Q333 -201 317 -208Q290 -219 217 -219Z" />
<glyph unicode="^" glyph-name="asciicircum" horiz-adv-x="1141" d="M538 1562H598L991 973H822L565 1352L313 973H150L538 1562Z" />
<glyph unicode="_" glyph-name="underscore" horiz-adv-x="816" d="M826 -183V-320H-10V-183H826Z" />
<glyph unicode="`" glyph-name="grave" horiz-adv-x="644" d="M236 1327Q122 1384 105 1444Q100 1462 100 1489T125 1538T178 1561T225 1558T266 1542Q310 1518 367 1447L527 1248Q544 1228 544 1218Q544 1190 517 1190Q502 1190 474 1205L236 1327Z" />
<glyph unicode="a" glyph-name="a" horiz-adv-x="1366" d="M979 0Q922 0 914 102Q826 11 682 -16Q636 -24 561 -24T407 -2T277 62Q173 144 173 293Q173 455 302 538Q415 611 593 611T913 535V655Q913 796 830 872Q753 942 618 942Q459 942 330 766Q283 704 259
704T235 726T248 786Q273 859 273 995Q273 1039 305 1039Q345 1039 395 1000Q409 989 419 989Q433 989 453 996T498 1009T553 1020Q623 1032 659 1032Q1050 1032 1114 787Q1133 714 1133 631V345Q1133 200 1140 166T1156 109T1194 74T1249 62L1305 70Q1337 70 1337
44Q1337 -3 1244 -3L1091 6Q1078 6 1064 5L1038 3Q1011 0 979 0ZM437 427T422 391T406 309T422 221T471 148Q537 86 660 86Q772 86 862 154Q891 176 913 205V443Q836 491 728 510Q693 516 644 516T548 500T469 455Z" />
<glyph unicode="b" glyph-name="b" horiz-adv-x="1366" d="M115 -3Q115 15 140 35T174 69T188 110Q198 156 198 292V1330Q198 1533 152 1589Q117 1629 27 1637Q-25 1642 -25 1670Q-25 1682 -11 1691T28 1701T74 1699L116 1695Q173 1689 213 1689Q270 1689 310
1696T367 1703T395 1700T413 1684Q423 1663 423 1580V930Q537 1032 733 1032Q972 1032 1120 892Q1267 753 1267 521Q1267 293 1112 136Q953 -24 717 -24Q575 -24 460 19Q420 33 388 33Q350 33 287 11Q169 -30 142 -30T115 -3ZM423 198Q490 64 665 64Q834 64 934
182Q1030 293 1030 463Q1030 683 924 814Q822 937 664 937Q552 937 468 858Q439 832 423 796V198Z" />
<glyph unicode="c" glyph-name="c" horiz-adv-x="1196" d="M1106 727Q1106 702 1083 702Q1060 702 1002 774T857 893T691 940T554 913T452 836Q358 728 358 564Q358 360 477 222Q590 92 748 92Q870 92 966 168Q999 193 1018 221T1047 258T1069 267T1090 260T1099
242Q1099 204 1061 155Q920 -24 676 -24Q438 -24 281 124Q122 273 122 505Q122 716 266 868Q423 1032 670 1032Q764 1032 871 1000Q904 989 916 989Q935 989 976 1010T1040 1032Q1069 1032 1069 996T1069 928T1073 871Q1079 819 1092 780T1106 727Z" />
<glyph unicode="d" glyph-name="d" horiz-adv-x="1364" d="M926 57Q804 -20 665 -20T424 17T249 124Q101 266 101 507Q101 726 257 878Q415 1032 645 1032Q804 1032 918 974V1332Q918 1531 872 1589Q837 1629 747 1637Q695 1642 695 1670Q695 1682 709 1691T748
1701T794 1699L836 1695Q893 1689 933 1689Q990 1689 1030 1696T1087 1703T1115 1700T1133 1684Q1143 1663 1143 1580V345Q1143 157 1159 117T1200 70T1251 63L1307 70Q1339 70 1339 45Q1339 -3 1246 -3L1093 6Q1080 6 1068 5L1043 3Q1016 0 984 0Q940 0 926 57ZM700
64Q825 62 918 147V821Q852 907 730 932Q694 940 638 940T520 909T417 825Q331 716 331 557Q331 349 436 207T700 64Z" />
<glyph unicode="e" glyph-name="e" horiz-adv-x="1194" d="M182 185T138 283T93 494T133 702T248 871Q410 1032 651 1032Q829 1032 954 936Q1029 878 1092 768Q1118 722 1118 695Q1118 651 1072 635Q806 538 508 466L345 427Q380 271 490 180Q595 92 729 92Q856
92 969 173Q1004 198 1022 223T1049 258T1072 267Q1100 267 1100 241Q1100 206 1065 158T986 77T889 20Q786 -24 664 -24T438 12T259 116ZM333 511Q673 596 855 660Q879 668 879 688T871 733T848 787T811 842T760 892Q696 940 630 940T511 917T418 845Q332 742
332 552V531Q332 521 333 511Z" />
<glyph unicode="f" glyph-name="f" horiz-adv-x="855" d="M189 0Q94 0 94 45Q94 73 127 73L176 66Q235 66 255 118Q285 199 285 348V931Q259 930 235 930H189Q91 930 91 977Q91 1019 182 1019Q231 1019 285 1015V1124Q285 1590 550 1697Q631 1730 722 1730T929
1704V1421Q929 1390 906 1390Q895 1390 888 1397T867 1446T831 1528T786 1594Q740 1644 699 1643T624 1619T564 1553Q510 1458 510 1288V1013L646 1016Q704 1018 740 1018T798 1006T819 977Q819 930 701 930L510 934V348Q510 208 520 172T541 112Q563 66 634 66L702
74Q734 74 734 45Q734 28 704 14T640 0T591 1T564 3T534 6L498 10Q482 11 464 12T428 14T395 15Q380 15 360 14L322 12Q288 10 267 7Q219 0 189 0Z" />
<glyph unicode="g" glyph-name="g" horiz-adv-x="1364" d="M390 -59Q250 1 250 101Q250 179 347 237Q379 256 421 269Q238 345 190 516Q151 659 221 790Q302 943 498 1002Q596 1032 712 1032T926 996Q1057 999 1128 1039Q1148 1050 1166 1062Q1212 1093 1246 1093Q1299
1093 1299 1045T1233 964T1045 929Q1179 821 1175 658Q1169 469 1031 348Q890 224 671 224Q497 224 436 186Q419 175 419 162Q419 85 749 64Q1151 35 1234 -109Q1261 -156 1261 -219T1221 -341T1106 -442Q950 -530 682 -530Q413 -530 274 -452Q155 -386 155 -280Q155
-175 286 -102Q330 -77 390 -59ZM527 365T586 339T706 313T807 326T880 368Q945 428 948 535T926 717T855 842Q767 940 640 940Q540 940 471 871T400 704T419 535T484 414ZM764 -404Q1138 -404 1138 -285Q1138 -193 888 -142Q792 -123 701 -117Q582 -109 531 -99Q412
-133 374 -202Q363 -224 363 -252T385 -309T456 -359Q559 -404 764 -404Z" />
<glyph unicode="h" glyph-name="h" horiz-adv-x="1532" d="M219 0Q124 0 124 45Q124 73 157 73L206 66Q265 66 285 118Q315 199 315 348V1333Q315 1531 269 1589Q234 1629 144 1637Q92 1642 92 1670Q92 1682 106 1691T145 1701T192 1699L233 1695Q290 1689 330
1689Q387 1689 427 1696T484 1703T512 1700T530 1684Q540 1663 540 1580V849Q706 1032 929 1032Q1123 1032 1208 912Q1273 822 1273 674V348Q1273 216 1283 176T1301 114T1331 79T1374 66L1426 73Q1457 73 1457 46Q1457 0 1366 0Q1340 0 1301 6Q1195 21 1139 16L1068
10Q1051 8 1032 6Q989 0 960 0Q860 0 860 45Q860 73 893 73L945 66Q1035 66 1044 207Q1048 261 1048 348V636Q1048 820 944 888Q903 914 848 914T751 900T670 863Q597 819 540 744V348Q540 208 550 172T571 112Q593 66 656 66L705 73Q737 73 737 45Q737 0 638 0Q609
0 592 2T559 6L528 10Q512 11 494 12T458 14T425 15Q410 15 390 14L352 12Q318 10 297 7Q249 0 219 0Z" />
<glyph unicode="i" glyph-name="i" horiz-adv-x="855" d="M511 1246T484 1234T421 1221T358 1234T312 1268Q279 1308 279 1354T289 1427T320 1475Q361 1518 412 1518T490 1505T535 1470Q570 1429 570 1384T560 1313T530 1267ZM238 0Q143 0 143 45Q143 73 176 73L225
66Q284 66 304 118Q334 199 334 348V639Q334 834 290 892Q270 918 242 926T187 938T145 948T130 970Q130 1009 190 1009L335 997Q354 997 372 999L446 1007Q465 1009 483 1009T515 1006T538 990Q559 964 559 887V348Q559 208 569 172T590 112Q612 66 675 66L724
73Q756 73 756 45Q756 0 657 0Q628 0 611 2T578 6L547 10Q531 11 513 12T477 14T444 15Q429 15 410 14L372 12Q337 10 316 7Q268 0 238 0Z" />
<glyph unicode="j" glyph-name="j" horiz-adv-x="855" d="M511 1246T484 1234T421 1221T358 1234T312 1268Q279 1308 279 1354T289 1427T320 1475Q361 1518 412 1518T490 1505T535 1470Q570 1429 570 1384T560 1313T530 1267ZM-89 -248Q-89 -222 -68 -222Q-39
-222 -20 -265Q23 -359 64 -401T148 -444T223 -422T279 -342Q330 -219 330 78V639Q330 834 286 892Q266 918 238 926T183 938T141 948T126 970Q126 1009 186 1009L331 997L499 1009Q534 1009 542 994Q555 968 555 887V78Q555 -237 428 -390Q313 -530 107 -530Q22
-530 -89 -504V-248Z" />
<glyph unicode="k" glyph-name="k" horiz-adv-x="1533" d="M243 0Q143 0 143 45Q143 73 176 73L228 66Q280 66 304 118Q334 184 334 348V1330Q334 1533 288 1589Q253 1629 163 1637Q111 1642 111 1670Q111 1682 125 1691T164 1701T210 1699L252 1695Q309 1689
349 1689Q406 1689 446 1696T503 1703T531 1700T549 1684Q559 1663 559 1580V588Q787 661 978 814Q1053 875 1053 907Q1053 952 974 952L915 945Q884 945 884 971Q884 1019 970 1019Q1000 1019 1030 1016T1088 1010Q1153 1003 1197 1003L1363 1019Q1446 1019 1446
971Q1446 945 1414 945L1358 952Q1313 952 1228 876Q1030 699 796 585L1211 202Q1357 67 1429 67L1473 74Q1487 74 1496 67T1506 48Q1506 0 1425 0L1281 9L1159 0Q1108 0 1020 76Q980 110 918 169L769 316L559 531V348Q559 216 569 176T587 114T617 79T660 66L712
73Q743 73 743 46Q743 0 652 0Q626 0 587 6Q520 15 480 15T423 15T388 12L354 10Q337 8 318 6Q275 0 243 0Z" />
<glyph unicode="l" glyph-name="l" horiz-adv-x="855" d="M246 0Q146 0 146 45Q146 73 179 73L231 66Q321 66 330 207Q334 261 334 348V1330Q334 1533 288 1589Q253 1629 163 1637Q111 1642 111 1670Q111 1682 125 1691T164 1701T210 1699L252 1695Q309 1689 349
1689Q406 1689 446 1696T503 1703T531 1700T549 1684Q559 1663 559 1580V348Q559 216 569 176T587 114T617 79T660 66L712 73Q743 73 743 46Q743 0 652 0Q626 0 587 6Q520 15 480 15T423 15T388 12L354 10Q337 8 318 6Q275 0 246 0Z" />
<glyph unicode="m" glyph-name="m" horiz-adv-x="2216" d="M199 0Q104 0 104 45Q104 73 137 73L186 66Q245 66 265 118Q295 199 295 348V639Q295 834 251 892Q231 918 203 926T148 938T106 948T91 970Q91 1009 151 1009L296 997Q315 997 333 999L407 1007Q426
1009 444 1009T475 1006T498 991Q520 964 520 889Q692 1032 894 1032Q1012 1032 1097 985T1224 855Q1346 977 1517 1018Q1575 1032 1647 1032T1786 1008T1902 938Q2001 847 2001 693V348Q2001 216 2011 176T2029 114T2059 79T2102 66L2154 73Q2185 73 2185 46Q2185
0 2094 0Q2068 0 2029 6Q1923 21 1867 16L1796 10Q1779 8 1760 6Q1717 0 1688 0Q1588 0 1588 45Q1588 73 1621 73L1673 66Q1763 66 1772 207Q1776 261 1776 348V694Q1776 801 1722 861T1579 922Q1418 922 1253 771Q1261 731 1261 693V348Q1261 216 1271 176T1289
114T1319 79T1362 66L1414 73Q1445 73 1445 46Q1445 0 1354 0Q1328 0 1289 6Q1183 21 1127 16L1056 10Q1039 8 1020 6Q977 0 948 0Q848 0 848 45Q848 73 881 73L933 66Q1023 66 1032 207Q1036 261 1036 348V694Q1036 801 982 861T831 922Q678 922 520 778V348Q520
208 530 172T551 112Q573 66 636 66L685 73Q717 73 717 45Q717 0 618 0Q589 0 572 2T539 6L508 10Q492 11 474 12T438 14T405 15Q390 15 370 14L332 12Q298 10 277 7Q229 0 199 0Z" />
<glyph unicode="n" glyph-name="n" horiz-adv-x="1532" d="M219 0Q124 0 124 45Q124 73 157 73L206 66Q265 66 285 118Q315 199 315 348V639Q315 834 271 892Q251 918 223 926T168 938T126 948T111 970Q111 1009 171 1009L316 997Q335 997 353 999L427 1007Q446
1009 464 1009T496 1006T520 990Q540 964 540 887V849Q706 1032 929 1032Q1123 1032 1208 912Q1273 822 1273 674V348Q1273 216 1283 176T1301 114T1331 79T1374 66L1426 73Q1457 73 1457 46Q1457 0 1366 0Q1340 0 1301 6Q1195 21 1139 16L1068 10Q1051 8 1032
6Q989 0 960 0Q860 0 860 45Q860 73 893 73L945 66Q1035 66 1044 207Q1048 261 1048 348V636Q1048 820 944 888Q903 914 848 914T751 900T670 863Q597 819 540 744V348Q540 208 550 172T571 112Q593 66 656 66L705 73Q737 73 737 45Q737 0 638 0Q609 0 592 2T559
6L528 10Q512 11 494 12T458 14T425 15Q410 15 390 14L352 12Q318 10 297 7Q249 0 219 0Z" />
<glyph unicode="o" glyph-name="o" horiz-adv-x="1366" d="M123 527Q123 611 166 707T286 876Q449 1032 684 1032Q953 1032 1108 870Q1242 729 1242 522Q1242 284 1100 134Q949 -24 688 -24Q312 -24 176 260Q123 371 123 527ZM401 794T380 728T359 568T390 379T474
214Q587 64 734 64Q846 64 922 160Q1002 260 1002 397T969 633T883 800T763 905T634 941T523 915T438 841Z" />
<glyph unicode="p" glyph-name="p" horiz-adv-x="1364" d="M50 -457L99 -464Q158 -464 178 -412Q208 -331 208 -182V639Q208 834 164 892Q144 918 116 926T61 938T19 948T4 970Q4 1009 64 1009L209 997Q228 997 246 999L320 1007Q339 1009 355 1009T383 1007T403
998Q422 985 429 945Q555 1032 699 1032T945 996T1120 892Q1268 751 1268 505Q1268 286 1112 132Q954 -24 724 -24Q549 -24 433 50V-182Q433 -322 443 -358T464 -418Q486 -464 549 -464L598 -457Q630 -457 630 -485Q630 -530 531 -530L318 -515Q303 -515 284 -516L246
-518Q211 -520 190 -523Q142 -530 112 -530Q17 -530 17 -485Q17 -457 50 -457ZM669 941Q543 941 433 841V236Q488 114 627 78Q668 68 728 68T849 100T952 185Q1038 294 1038 455Q1038 674 933 809Q830 941 669 941Z" />
<glyph unicode="q" glyph-name="q" horiz-adv-x="1366" d="M971 78Q840 -20 691 -20T440 17T265 124Q117 266 117 507Q117 726 273 878Q431 1032 649 1032T1000 932Q1184 1032 1251 1032Q1280 1032 1280 1007Q1280 990 1256 974T1222 941T1207 896Q1196 843 1196
711V-182Q1196 -322 1206 -358T1227 -418Q1249 -464 1312 -464L1361 -457Q1393 -457 1393 -485Q1393 -530 1294 -530L1081 -515Q1066 -515 1046 -516L1008 -518Q974 -520 953 -523Q905 -530 875 -530Q780 -530 780 -485Q780 -457 813 -457L862 -464Q921 -464 941
-412Q971 -331 971 -182V78ZM971 185V765Q933 844 844 894Q763 940 680 940T536 909T433 825Q347 716 347 557Q347 350 457 206Q566 64 715 64T971 185Z" />
<glyph unicode="r" glyph-name="r" horiz-adv-x="1196" d="M249 0Q154 0 154 45Q154 73 187 73L236 66Q295 66 315 118Q345 199 345 348V639Q345 834 301 892Q281 918 253 926T198 938T156 948T141 970Q141 1009 201 1009L346 997Q365 997 383 999L457 1007Q476
1009 494 1009T526 1006T550 990Q570 964 570 887V799Q663 959 814 1014Q865 1032 917 1032T1004 1022T1060 992Q1100 957 1100 898L1098 676Q1098 663 1091 655T1075 647Q1054 647 1043 691T1009 771T958 831Q903 875 844 875T744 856T668 808Q600 750 570 679V348Q570
208 580 172T601 112Q623 66 694 66L762 74Q794 74 794 45Q794 28 764 14T700 0T651 1T624 3T594 6L558 10Q542 11 524 12T488 14T455 15Q440 15 420 14L382 12Q348 10 327 7Q279 0 249 0Z" />
<glyph unicode="s" glyph-name="s" horiz-adv-x="1196" d="M1033 709T1011 709T966 756T898 842T804 903Q711 945 630 945T506 933T434 900Q374 861 374 818T387 748T435 700Q498 658 644 623T872 557T1006 486Q1105 410 1105 284Q1105 84 866 6Q773 -24 672 -24T500
-15T360 11Q208 47 145 92V336Q145 346 152 353T170 360Q194 360 207 313T264 218T368 136Q496 63 663 63Q836 63 892 150Q911 180 911 215T898 272T849 315Q776 358 621 396T386 472T258 554Q172 633 172 746Q172 856 280 938Q404 1032 611 1032Q706 1032 841
997Q845 996 853 993T872 987Q895 980 907 980Q922 980 943 1006Q964 1032 979 1032Q1007 1032 1007 995Q1007 847 1019 804Q1033 753 1033 731Z" />
<glyph unicode="t" glyph-name="t" horiz-adv-x="1025" d="M909 246Q939 246 939 217Q939 183 890 116T760 12T598 -24T455 -8T352 44Q262 120 262 281V930H158Q75 930 63 952Q59 960 59 971T66 989T86 1002T116 1011L151 1019Q310 1057 366 1233Q386 1294 396
1365T420 1457T452 1478T479 1455T487 1378V1011Q760 1018 797 1018T859 1016T897 1008Q921 999 921 977Q921 930 805 930H487V310Q487 157 582 109Q615 92 648 92T704 97T754 116Q813 144 855 204Q884 246 909 246Z" />
<glyph unicode="u" glyph-name="u" horiz-adv-x="1532" d="M983 114Q845 -24 662 -24Q493 -24 382 73Q271 171 271 322V665Q271 852 255 892T214 939T163 946L107 939Q75 939 75 964Q75 1012 168 1012L321 1003Q334 1003 346 1004L371 1006Q398 1009 423 1009T461
1004T482 982Q496 953 496 864V321Q496 145 626 100Q667 86 716 86Q849 86 983 222V664Q983 852 967 892T926 939T875 946L819 939Q787 939 787 964Q787 1012 880 1012L1033 1003Q1046 1003 1058 1004L1083 1006Q1110 1009 1135 1009T1173 1004T1194 982Q1208 951
1208 863V345Q1208 157 1224 117T1265 70T1316 63L1372 70Q1404 70 1404 45Q1404 -3 1311 -3L1158 6Q1145 6 1133 5L1108 3Q1081 0 1059 0T1025 5T1004 23Q987 50 983 114Z" />
<glyph unicode="v" glyph-name="v" horiz-adv-x="1366" d="M1346 936L1290 943Q1248 943 1219 912Q1168 859 1112 743L771 28Q744 -26 726 -32Q720 -34 709 -34Q683 -34 653 20Q227 785 199 832T150 903Q118 943 79 943L23 936Q-9 936 -9 958Q-9 1009 83 1009L290
993Q334 993 415 1002Q478 1009 525 1009T590 1005T618 993Q638 980 638 961Q638 936 606 936L530 945Q446 945 446 891Q446 849 485 776L730 335Q756 291 774 291Q788 291 806 331L971 697Q1023 813 1028 844T1033 891Q1033 945 958 945L867 936Q835 936 835 958Q835
1009 927 1009L1126 993Q1171 993 1216 1002Q1251 1009 1294 1009T1357 995T1378 959T1346 936Z" />
<glyph unicode="w" glyph-name="w" horiz-adv-x="2047" d="M2034 936L1978 943Q1936 943 1902 898Q1844 823 1743 624L1436 19Q1410 -34 1382 -34Q1365 -34 1353 -23T1324 20L1028 608L751 19Q726 -34 696 -34T638 20Q228 776 199 826T150 902Q116 943 83 943L27
936Q-5 936 -5 958Q-5 1009 87 1009Q142 1009 198 1001T282 993L486 1009Q558 1009 574 978Q579 969 579 961Q579 936 547 936Q547 936 471 945Q445 945 438 936T430 910Q430 864 476 783L721 339Q735 314 741 305T756 295Q773 295 795 340L970 724Q902 858 874
892T830 935T797 943L741 936Q709 936 709 958Q709 1009 802 1009Q847 1009 904 1001T982 993T1016 993T1041 995T1068 998T1109 1003Q1163 1009 1211 1009T1277 1005T1306 993Q1326 980 1326 961Q1326 936 1294 936L1217 945Q1152 945 1152 890Q1152 857 1189
783L1405 339Q1427 295 1442 295Q1458 295 1480 340L1648 674Q1721 818 1721 891Q1721 945 1646 945L1555 936Q1523 936 1523 958Q1523 1009 1614 1009L1829 993Q1862 993 1894 1000Q1941 1009 1979 1009T2042 996T2066 960T2034 936Z" />
<glyph unicode="x" glyph-name="x" horiz-adv-x="1364" d="M248 16L86 0Q45 0 25 14T4 50T37 73L92 66Q126 66 156 86Q212 124 291 207L556 480L249 833Q172 924 127 938Q111 943 94 943L38 936Q5 936 5 958Q5 1009 97 1009Q154 1009 211 1001T298 993Q354 993
413 1000Q499 1009 580 1009T662 961Q662 936 630 936L554 945Q499 945 499 913Q499 884 555 819L742 603L870 733Q973 839 984 877Q988 891 988 905T978 932T949 945T920 944L897 940Q879 936 861 936T835 944T827 961Q827 1009 932 1009L1116 993L1278 1009Q1319
1009 1339 995T1360 959T1327 936L1272 943Q1238 943 1208 923Q1152 885 1073 802L808 528L1116 175Q1193 84 1238 70Q1254 65 1271 65L1327 72Q1360 72 1360 50Q1360 -1 1268 -1Q1211 -1 1154 7T1066 15Q1011 15 952 8Q866 -1 785 -1T703 47Q703 72 735 72L811
63Q866 63 866 95Q866 124 810 189L621 405L494 276Q391 170 380 132Q376 118 376 104T386 77T415 64T444 66L467 69Q485 73 503 73T529 65T537 48Q537 0 432 0L248 16Z" />
<glyph unicode="y" glyph-name="y" horiz-adv-x="1366" d="M1316 936L1260 944Q1201 944 1154 887Q1107 830 1045 677L713 -137Q568 -438 429 -488Q389 -503 344 -503T256 -490T183 -453Q122 -406 122 -336Q122 -304 140 -283T186 -262T230 -277T264 -321T290
-362T313 -384Q335 -400 368 -400T425 -390T478 -344Q539 -270 638 -59L639 -55L264 721Q173 907 116 934Q98 943 81 943L25 936Q-7 936 -7 958Q-7 1009 85 1009L281 993L547 1009Q619 1009 636 978Q640 969 640 961Q640 936 608 936L532 945Q460 945 460 890Q460
865 480 821L744 208L972 780Q1003 862 1003 900Q1003 945 940 945L858 936Q826 936 826 958Q826 1009 917 1009Q943 1009 968 1006L1019 1000Q1075 993 1111 993T1184 1001T1263 1009Q1305 1009 1326 995T1348 959T1316 936Z" />
<glyph unicode="z" glyph-name="z" horiz-adv-x="1194" d="M121 0Q56 0 56 38Q56 54 74 76L784 919H509Q421 919 376 896Q299 855 236 771Q162 672 136 672T110 696Q110 707 128 760Q167 870 167 1006Q167 1050 198 1050Q208 1050 235 1036Q286 1009 299 1009H1029Q1070
1009 1084 1003T1099 982Q1099 960 1068 922L375 91H699Q826 91 906 148Q947 176 985 218L1072 318Q1104 355 1119 355Q1142 355 1142 329Q1142 304 1120 258T1086 184T1064 128Q1046 78 1032 0H121Z" />
<glyph unicode="{" glyph-name="braceleft" horiz-adv-x="808" d="M652 -213L710 -205Q738 -205 738 -226Q738 -258 678 -270Q661 -273 626 -273T543 -247T455 -164Q370 -45 347 185Q315 503 285 591Q264 651 232 668Q216 676 192 682Q150 694 150 715Q150 736
183 745T231 762T260 788T285 839T306 924Q325 1027 342 1196T387 1451T455 1594Q533 1703 642 1703Q705 1703 730 1675Q738 1666 738 1656Q738 1635 710 1635L652 1643Q608 1643 592 1602Q573 1556 573 1400T560 1116T522 904Q477 751 384 715Q478 677 522 524Q573
352 573 1Q573 -126 587 -160T616 -204T652 -213Z" />
<glyph unicode="|" glyph-name="bar" horiz-adv-x="887" d="M444 1703Q512 1703 512 1630V-210Q512 -243 494 -264T444 -285T394 -263T375 -207V1632Q375 1664 393 1683T444 1703Z" />
<glyph unicode="}" glyph-name="braceright" horiz-adv-x="808" d="M156 -213L98 -205Q70 -205 70 -226Q70 -258 130 -270Q147 -273 182 -273T265 -247T353 -164Q438 -45 461 185Q493 503 523 591Q544 651 576 668Q592 676 616 682Q658 694 658 715Q658 736 625
745T577 762T548 788T523 839T502 924Q483 1027 466 1196T421 1451T353 1594Q275 1703 166 1703Q103 1703 78 1675Q70 1666 70 1656Q70 1635 98 1635L156 1643Q200 1643 216 1602Q235 1556 235 1400T248 1116T286 904Q331 751 424 715Q330 677 286 524Q235 352
235 1Q235 -126 221 -160T192 -204T156 -213Z" />
<glyph unicode="~" glyph-name="asciitilde" horiz-adv-x="1437" d="M449 700Q333 700 235 474L115 533Q161 659 252 746Q349 837 454 837Q583 837 766 703Q911 597 970 584Q994 578 1019 578T1069 590T1120 629Q1175 687 1215 803L1335 745Q1225 441 1004 441Q935
441 883 466Q802 503 726 558L614 638Q547 685 514 692T449 700Z" />
<glyph unicode="&#xa0;" glyph-name="nbspace" horiz-adv-x="550" />
<glyph unicode="&#xa1;" glyph-name="exclamdown" horiz-adv-x="670" d="M464 -530Q500 -530 500 -496Q500 -473 491 -426T474 -326Q450 -154 439 -62Q400 251 388 375T367 531T335 564Q312 564 303 532T287 433T272 288Q245 53 235 -31L215 -185Q196 -335 186
-384Q170 -470 170 -496Q170 -530 206 -530L336 -522L464 -530ZM211 990T203 966T195 917T205 867T235 821Q277 778 325 778T400 791T443 825Q477 867 477 909T466 976T434 1019Q394 1055 347 1055T273 1042T229 1010Z" />
<glyph unicode="&#xa2;" glyph-name="cent" horiz-adv-x="1216" d="M726 -213Q726 -285 680 -285Q629 -285 629 -210V-21Q408 -2 270 132Q122 276 122 505Q122 699 260 850Q405 1008 629 1029V1194Q629 1269 675 1269Q726 1269 726 1195V1031Q801 1028 854 1012L916
992Q926 989 938 989Q955 989 996 1010T1060 1032Q1089 1032 1089 996T1089 928T1093 871Q1099 819 1112 780T1126 727Q1126 702 1103 702Q1080 702 1036 756T954 845T878 900Q812 935 726 939V94Q737 92 747 92H768Q951 92 1042 228Q1058 249 1067 258T1089 267T1110
260T1119 242Q1119 204 1069 141T929 30T726 -23V-213ZM629 934Q505 911 433 809Q358 703 358 532Q358 290 524 170Q573 134 629 115V934Z" />
<glyph unicode="&#xa3;" glyph-name="sterling" horiz-adv-x="1367" d="M96 -20Q68 -20 68 11Q68 82 241 175Q335 225 357 254Q403 319 403 442T345 721H210Q118 721 118 773Q118 818 213 818H305Q228 1009 228 1117T263 1304T360 1440Q489 1561 674 1561Q771
1561 829 1543T922 1510Q977 1488 990 1488Q1015 1488 1048 1524Q1097 1576 1113 1576Q1138 1576 1138 1523Q1138 1410 1156 1346Q1189 1222 1189 1185T1165 1148Q1150 1148 1135 1171Q1053 1300 924 1382Q799 1463 684 1463Q581 1463 514 1397Q445 1330 445 1219Q445
1101 494 969Q513 918 544 848L556 818H973Q1068 818 1068 766Q1068 721 974 721H592Q625 613 625 541T615 434T588 366Q553 302 496 256Q614 248 690 220T818 170T910 133T982 108Q1037 92 1083 92Q1168 92 1223 149Q1249 177 1274 177T1300 147Q1298 86 1187
31T974 -24Q792 -24 614 32Q465 79 416 84T324 89Q218 89 142 11Q114 -20 96 -20Z" />
<glyph unicode="&#xa4;" glyph-name="currency" horiz-adv-x="1451" d="M986 313Q875 229 720 229T458 306L250 89L150 189L367 398Q299 497 299 628T369 860L150 1072L250 1172L461 952Q573 1032 726 1032T988 951L1201 1172L1301 1072L1077 855Q1138 758 1138
632T1075 407L1301 189L1201 89L986 313ZM439 630Q439 568 459 515T518 424Q597 342 721 342Q847 342 922 418Q1000 498 1000 631Q1000 755 921 836T717 918T516 836Q439 756 439 630Z" />
<glyph unicode="&#xa5;" glyph-name="yen" horiz-adv-x="1539" d="M991 66L1085 76Q1101 76 1109 67T1118 44T1095 15T1038 0T987 0T950 2Q921 4 900 6T862 10T828 13Q794 15 764 15Q686 15 658 11T613 5T578 2Q464 -4 437 13T410 44Q410 76 443 76L537 66Q594
66 615 102Q646 157 649 218T653 321V421H250Q218 421 198 430T178 472T198 511T253 518H653V709H250Q218 709 198 718T178 760T198 799T253 806H583L125 1426Q110 1447 92 1455T36 1463L-19 1455Q-52 1455 -52 1481Q-52 1499 -31 1513T36 1528L233 1514Q233 1514
499 1528Q595 1528 595 1481Q595 1456 563 1456L487 1465Q419 1465 419 1424Q419 1385 464 1321L818 806H823L1133 1204L1172 1262Q1249 1381 1249 1423T1181 1466L1105 1456Q1073 1456 1073 1481Q1073 1500 1095 1514T1157 1528T1224 1526L1272 1521Q1328 1514
1358 1514Q1404 1514 1434 1518L1480 1526Q1497 1528 1524 1528T1574 1516T1597 1479T1564 1455L1498 1463Q1445 1463 1415 1426L932 806H1303Q1360 806 1372 782Q1378 772 1378 748Q1378 709 1304 709H875V518H1303Q1360 518 1372 494Q1378 484 1378 460Q1378
421 1304 421H875V321Q875 197 889 159T914 102Q934 66 991 66Z" />
<glyph unicode="&#xa6;" glyph-name="brokenbar" horiz-adv-x="887" d="M512 907T495 886T445 865T394 883T375 931V1637Q375 1669 393 1686T444 1703T494 1682T512 1635V933Q512 907 495 886ZM375 497Q375 526 394 544T445 563T494 542T512 495V-217Q512 -243
495 -264T444 -285Q375 -285 375 -219V497Z" />
<glyph unicode="&#xa7;" glyph-name="section" horiz-adv-x="1119" d="M474 -285Q342 -285 194 -209V32Q196 73 217 73Q244 73 253 35Q274 -73 345 -135T526 -198Q625 -198 692 -151Q762 -101 762 -18Q762 113 515 231Q317 326 230 418Q140 512 140 632Q140 757
263 862Q298 892 335 914Q244 977 207 1051T170 1203T200 1341T288 1451Q418 1561 627 1561Q783 1561 905 1505V1263Q903 1223 882 1223Q857 1223 848 1261Q828 1363 766 1418T604 1474Q512 1474 441 1422Q368 1367 368 1294Q368 1201 498 1110Q545 1077 638 1033T804
941T919 846Q989 764 989 632Q989 516 866 412Q831 383 795 362Q958 248 958 78Q958 -71 839 -172Q708 -285 474 -285ZM409 869Q303 813 303 729Q303 627 489 522Q555 484 612 458Q692 423 720 407Q827 465 827 547Q827 649 640 754Q574 792 517 817T443 851T409
869Z" />
<glyph unicode="&#xa8;" glyph-name="dieresis" horiz-adv-x="971" d="M812 1245T785 1233T722 1220T659 1233T614 1267Q580 1307 580 1353T590 1426T620 1474Q662 1517 713 1517T791 1504T836 1470Q871 1428 871 1383T861 1312T831 1266ZM332 1245T305 1233T242
1220T179 1233T134 1267Q100 1307 100 1353T110 1426T140 1474Q182 1517 233 1517T311 1504T356 1470Q391 1428 391 1383T381 1312T351 1266Z" />
<glyph unicode="&#xa9;" glyph-name="copyright" horiz-adv-x="1907" d="M130 766Q130 871 156 970T233 1157T356 1319T522 1447Q717 1561 960 1561Q1176 1561 1365 1460Q1655 1306 1746 991Q1777 886 1777 770T1746 551T1660 359T1529 200T1361 80Q1171 -24 959
-24Q731 -24 538 85Q352 190 242 370Q130 555 130 766ZM366 1160T313 1035T260 791T285 584T356 422T467 285T612 178Q777 86 975 86Q1152 86 1308 172Q1548 305 1623 576Q1648 667 1648 769T1621 962T1546 1128T1432 1264T1289 1366Q1130 1451 968 1451T679 1398T459
1253ZM1353 944Q1353 922 1333 922Q1312 922 1278 965T1213 1038T1148 1086Q1079 1126 1003 1126T879 1102T796 1036Q717 948 717 848T746 670T824 536Q927 414 1072 414Q1163 414 1248 482Q1278 506 1295 531T1321 562T1340 567T1359 559T1367 540Q1367 507 1336
468T1265 399T1180 350Q1083 307 975 307T778 342T624 439Q489 567 489 754Q489 944 622 1076Q757 1212 954 1212Q1050 1212 1104 1198L1172 1179Q1187 1175 1198 1175Q1214 1175 1242 1193Q1279 1217 1295 1217Q1320 1217 1320 1183T1320 1121T1324 1071Q1329
1020 1341 988T1353 944Z" />
<glyph unicode="&#xaa;" glyph-name="ordfeminine" horiz-adv-x="1130" d="M869 761L761 756Q721 756 713 818Q733 834 750 858L739 939Q723 916 710 903V1104Q757 1077 773 1054L805 1120Q769 1155 710 1184V1267Q710 1370 657 1425T520 1480T384 1452T280 1353Q242
1303 224 1303Q214 1303 208 1309T201 1328T211 1369Q231 1427 231 1532Q231 1566 256 1566Q276 1566 296 1556Q334 1535 345 1535Q353 1535 359 1537T387 1546Q446 1561 546 1561T719 1537T836 1469Q911 1393 911 1248V1037Q911 902 924 869Q944 816 994 816L1045
824Q1056 824 1065 816T1075 795T1058 768T998 754L869 761ZM713 818Q617 737 478 737Q236 737 170 882Q150 928 150 990T177 1099T252 1176Q341 1232 473 1232T710 1184V1104Q621 1151 532 1151Q458 1151 410 1106Q365 1065 365 1016T376 935T408 880Q455 830
546 830T710 903V870Q710 839 713 818Z" />
<glyph unicode="&#xab;" glyph-name="guillemotleft" horiz-adv-x="1142" d="M94 503T87 508T80 523Q80 536 110 552T193 604T303 688Q440 801 520 905L541 933Q562 962 574 962Q592 962 592 934T574 860T524 756Q451 626 350 523Q451 420 524 290Q592 169 592
127T574 84Q562 84 548 104L520 141Q440 245 303 358Q189 453 142 478ZM544 503T537 508T530 523Q530 536 560 552T643 604T753 688Q890 801 970 905L991 933Q1012 962 1024 962Q1042 962 1042 934T1024 860T974 756Q901 626 800 523Q901 420 974 290Q1042 169
1042 127T1024 84Q1012 84 998 104L970 141Q890 245 753 358Q639 453 592 478Z" />
<glyph unicode="&#xac;" glyph-name="logicalnot" horiz-adv-x="1285" d="M150 712H1135V251H994V575H150V712Z" />
<glyph unicode="&#xad;" glyph-name="uni00AD" horiz-adv-x="1229" />
<glyph unicode="&#xae;" glyph-name="registered" horiz-adv-x="1373" d="M686 632Q574 632 472 674T293 790Q130 947 130 1168Q130 1384 284 1540Q445 1703 691 1703Q913 1703 1073 1556Q1243 1401 1243 1167Q1243 941 1074 784Q912 632 686 632ZM689 726Q780
726 858 757T996 846Q1127 972 1127 1164Q1127 1355 990 1480Q858 1602 680 1602Q492 1602 364 1475Q236 1349 236 1163Q236 982 368 854Q500 726 689 726ZM553 918L448 911Q411 911 411 935Q411 951 428 951L457 947Q490 947 490 1050V1287Q490 1389 457 1389L431
1385Q411 1385 411 1401Q411 1425 448 1425Q463 1425 470 1424L492 1423Q530 1418 576 1418L723 1427Q867 1427 912 1342Q926 1317 926 1285T910 1223T866 1175Q814 1137 738 1137Q816 1102 869 1009L889 976Q909 946 926 946L954 951Q968 951 968 938T952 916T895
906T805 941T707 1058Q666 1122 617 1137V1050Q617 947 649 947L677 951Q695 951 695 935Q695 911 659 911L553 918ZM617 1198Q655 1180 691 1180T744 1185T774 1201Q801 1225 801 1260T790 1313T760 1342Q725 1365 682 1365Q617 1365 617 1320V1198Z" />
<glyph unicode="&#xaf;" glyph-name="overscore" horiz-adv-x="876" d="M100 1430H776V1303H100V1430Z" />
<glyph unicode="&#xb0;" glyph-name="degree" horiz-adv-x="814" d="M406 1011Q345 1011 294 1031T206 1087Q130 1162 130 1286Q130 1402 203 1479Q281 1561 415 1561Q537 1561 610 1487Q684 1411 684 1286Q684 1163 606 1087Q529 1011 406 1011ZM482 1116T522
1160T563 1286Q563 1401 472 1442Q443 1455 407 1455T341 1442T292 1406Q253 1361 253 1305T263 1218T294 1164Q337 1116 409 1116Z" />
<glyph unicode="&#xb1;" glyph-name="plusminus" horiz-adv-x="1285" d="M572 872H150V1009H572V1443H713V1009H1135V872H713V458H572V872ZM150 309H1135V172H150V309Z" />
<glyph unicode="&#xb2;" glyph-name="twosuperior" horiz-adv-x="906" d="M764 881T780 881T796 864Q796 851 783 822T762 772T748 731T735 686L722 632H169Q140 632 140 664T149 736T188 822Q248 924 402 1061Q507 1154 539 1198Q590 1269 590 1312T580 1383T550
1431Q508 1473 435 1473Q330 1473 263 1380Q239 1346 226 1301T192 1255Q167 1255 167 1295V1459Q252 1529 388 1554Q429 1561 487 1561T604 1544T704 1497Q785 1437 785 1340Q785 1239 643 1116Q597 1076 516 1014Q355 893 300 784H485Q633 784 692 818Q717 833
740 857Z" />
<glyph unicode="&#xb3;" glyph-name="threesuperior" horiz-adv-x="891" d="M150 699V863Q150 903 175 903Q195 903 206 865T238 798T290 750Q351 710 409 710T498 723T551 759Q594 804 594 860T581 957T543 1030Q489 1098 404 1098L329 1085Q302 1085 302 1109Q302
1132 361 1156T450 1201T500 1246Q543 1297 543 1351T508 1437T408 1470T294 1429T227 1332T190 1276Q165 1276 165 1316V1480Q284 1561 446 1561Q644 1561 714 1450Q736 1414 736 1375T721 1306T680 1248Q625 1192 545 1159Q644 1142 710 1079Q781 1011 781 930T748
794T660 700Q548 618 410 618T150 699Z" />
<glyph unicode="&#xb4;" glyph-name="acute" horiz-adv-x="644" d="M170 1205Q142 1190 128 1190T107 1198T100 1217T117 1248L277 1447Q334 1518 366 1536Q412 1561 452 1561T518 1539T544 1489T539 1445T520 1408Q486 1366 408 1327L170 1205Z" />
<glyph unicode="&#xb5;" glyph-name="mu" horiz-adv-x="1532" d="M454 58Q415 -68 415 -135T423 -226T445 -268T476 -302L513 -333Q574 -385 574 -443Q574 -480 552 -499Q513 -530 473 -530T398 -511T334 -438Q271 -320 271 -43V665Q271 852 255 892T214 939T163
946L107 939Q75 939 75 964Q75 1012 168 1012L321 1003Q334 1003 346 1004L371 1006Q398 1009 423 1009T461 1004T482 982Q496 953 496 864V368Q496 249 576 167Q656 86 771 86T983 159V664Q983 852 967 892T926 939T875 946L819 939Q787 939 787 964Q787 1012
880 1012L1033 1003Q1046 1003 1058 1004L1083 1006Q1110 1009 1135 1009T1173 1004T1194 982Q1208 951 1208 863V345Q1208 157 1224 117T1265 70T1316 63L1372 70Q1404 70 1404 45Q1404 -3 1311 -3L1158 6Q1145 6 1133 5L1108 3Q1081 0 1049 0Q1004 0 990 61Q871
-24 721 -24T454 58Z" />
<glyph unicode="&#xb6;" glyph-name="paragraph" horiz-adv-x="1537" d="M632 -3Q539 -3 539 44Q539 70 571 70L647 62Q720 62 742 115Q763 166 763 344V780Q697 765 616 765T449 791T300 870Q163 980 163 1171Q163 1325 276 1431Q403 1551 635 1551Q758 1551
790 1544Q843 1531 880 1531V0Q846 0 828 2Q794 6 777 6L632 -3ZM1390 1473L1326 1480Q1269 1480 1248 1444Q1217 1389 1214 1329T1210 1227V0H1093V1531Q1177 1531 1210 1536Q1276 1546 1331 1546T1404 1531T1423 1500Q1423 1473 1390 1473Z" />
<glyph unicode="&#xb7;" glyph-name="middot" horiz-adv-x="512" d="M111 541T102 568T92 625T104 684T138 737Q186 787 259 787Q335 787 380 731Q419 682 419 618Q419 562 374 516Q325 465 269 465T182 480T131 518Z" />
<glyph unicode="&#xb8;" glyph-name="cedilla" horiz-adv-x="670" d="M362 10L315 -197Q321 -196 326 -196H337Q432 -196 499 -238Q570 -282 570 -350Q570 -424 488 -478Q407 -530 305 -530Q184 -530 122 -474Q100 -454 100 -431T113 -391T150 -374Q187 -374 225
-408Q286 -463 338 -463T413 -440T436 -372T402 -296T321 -265Q251 -265 208 -281L268 24L362 10Z" />
<glyph unicode="&#xb9;" glyph-name="onesuperior" horiz-adv-x="689" d="M526 687L580 694Q594 694 601 686T609 667T594 644T552 632Q503 632 457 636L410 640Q387 642 364 642Q341 642 318 640L273 636Q227 632 189 632Q121 632 121 669Q121 678 128 686T150
694L204 687Q233 687 245 707Q269 750 269 841V1204Q269 1280 256 1317T211 1354L134 1338Q124 1338 117 1345T110 1362Q110 1390 176 1415Q308 1463 399 1534Q440 1565 449 1565Q469 1565 469 1546Q469 1532 468 1518T464 1482Q461 1452 461 1372V841Q461 687
526 687Z" />
<glyph unicode="&#xba;" glyph-name="ordmasculine" horiz-adv-x="1132" d="M562 737Q448 737 364 775T228 872Q130 985 130 1148Q130 1318 257 1439Q386 1561 568 1561Q778 1561 898 1434Q1002 1324 1002 1163Q1002 977 892 860Q774 737 562 737ZM466 881T513
852T604 822T677 837T730 883Q779 950 779 1065T758 1255T702 1380Q633 1476 528 1476Q441 1476 394 1402Q348 1333 348 1232T370 1058T429 934Z" />
<glyph unicode="&#xbb;" glyph-name="guillemotright" horiz-adv-x="1142" d="M598 503T605 508T612 523Q612 536 582 552T499 604T389 688Q252 801 172 905L151 933Q130 962 118 962Q100 962 100 934T118 860T168 756Q241 626 342 523Q241 420 168 290Q100 169
100 127T118 84Q130 84 144 104L172 141Q252 245 389 358Q503 453 550 478ZM1048 503T1055 508T1062 523Q1062 536 1032 552T949 604T839 688Q702 801 622 905L601 933Q580 962 568 962Q550 962 550 934T568 860T618 756Q691 626 792 523Q691 420 618 290Q550 169
550 127T568 84Q580 84 594 104L622 141Q702 245 839 358Q953 453 1000 478Z" />
<glyph unicode="&#xbc;" glyph-name="onequarter" horiz-adv-x="2031" d="M399 -24T385 -10T370 21T373 48T384 72T406 104L1472 1473Q1530 1549 1558 1558Q1567 1561 1584 1561T1617 1547T1634 1514Q1634 1481 1585 1417L517 44Q471 -13 454 -18T418 -24ZM1116
256Q1064 256 1064 278Q1064 298 1095 332L1608 907Q1645 948 1663 948T1681 901V364H1741Q1812 364 1859 398Q1876 412 1886 412Q1902 412 1902 397Q1902 389 1894 378T1880 357T1866 332Q1846 298 1841 282Q1832 256 1801 256H1681V209Q1681 55 1746 55L1800
62Q1814 62 1821 54T1829 35T1814 12T1772 0Q1723 0 1677 4L1630 8Q1607 10 1584 10Q1561 10 1538 8L1493 4Q1379 -6 1360 8T1341 34Q1341 62 1370 62L1424 55Q1453 55 1465 75Q1494 127 1494 209V256H1116ZM1494 364V676L1222 364H1494ZM526 687L580 694Q594 694
601 686T609 667T594 644T552 632Q503 632 457 636L410 640Q387 642 364 642Q341 642 318 640L273 636Q227 632 189 632Q121 632 121 669Q121 678 128 686T150 694L204 687Q233 687 245 707Q269 750 269 841V1204Q269 1280 256 1317T211 1354L134 1338Q124 1338
117 1345T110 1362Q110 1390 176 1415Q308 1463 399 1534Q440 1565 449 1565Q469 1565 469 1546Q469 1532 468 1518T464 1482Q461 1452 461 1372V841Q461 687 526 687Z" />
<glyph unicode="&#xbd;" glyph-name="onehalf" horiz-adv-x="2082" d="M399 -24T385 -10T370 21T373 48T384 72T406 104L1472 1473Q1530 1549 1558 1558Q1567 1561 1584 1561T1617 1547T1634 1514Q1634 1481 1585 1417L517 44Q471 -13 454 -18T418 -24ZM526 687L580
694Q594 694 601 686T609 667T594 644T552 632Q503 632 457 636L410 640Q387 642 364 642Q341 642 318 640L273 636Q227 632 189 632Q121 632 121 669Q121 678 128 686T150 694L204 687Q233 687 245 707Q269 750 269 841V1204Q269 1280 256 1317T211 1354L134 1338Q124
1338 117 1345T110 1362Q110 1390 176 1415Q308 1463 399 1534Q440 1565 449 1565Q469 1565 469 1546Q469 1532 468 1518T464 1482Q461 1452 461 1372V841Q461 687 526 687ZM1940 249T1956 249T1972 232Q1972 219 1959 190T1938 140T1924 99T1911 54L1898 0H1345Q1316
0 1316 32T1325 104T1364 190Q1424 292 1578 429Q1683 522 1715 566Q1766 637 1766 680T1756 751T1726 799Q1684 841 1611 841Q1506 841 1439 748Q1415 714 1402 669T1368 623Q1343 623 1343 663V827Q1428 897 1564 922Q1605 929 1663 929T1780 912T1880 865Q1961
805 1961 708Q1961 607 1819 484Q1773 444 1692 382Q1531 261 1476 152H1661Q1809 152 1868 186Q1893 201 1916 225Z" />
<glyph unicode="&#xbe;" glyph-name="threequarters" horiz-adv-x="2063" d="M451 -24T437 -10T422 21T425 48T436 72T458 104L1524 1473Q1582 1549 1610 1558Q1619 1561 1636 1561T1669 1547T1686 1514Q1686 1481 1637 1417L569 44Q523 -13 506 -18T470 -24ZM1167
256Q1115 256 1115 278Q1115 298 1146 332L1659 907Q1696 948 1714 948T1732 901V364H1792Q1863 364 1910 398Q1928 412 1937 412Q1953 412 1953 397Q1953 389 1945 378T1931 357T1916 332Q1897 298 1892 282Q1883 256 1852 256H1732V209Q1732 55 1797 55L1851
62Q1865 62 1872 54T1880 35T1865 12T1823 0Q1774 0 1728 4L1682 8Q1658 10 1635 10Q1612 10 1590 8L1544 4Q1430 -6 1411 8T1392 34Q1392 62 1421 62L1475 55Q1504 55 1516 75Q1545 127 1545 209V256H1167ZM1545 364V676L1273 364H1545ZM150 699V863Q150 903 175
903Q195 903 206 865T238 798T290 750Q351 710 409 710T498 723T551 759Q594 804 594 860T581 957T543 1030Q489 1098 404 1098L329 1085Q302 1085 302 1109Q302 1132 361 1156T450 1201T500 1246Q543 1297 543 1351T508 1437T408 1470T294 1429T227 1332T190 1276Q165
1276 165 1316V1480Q284 1561 446 1561Q644 1561 714 1450Q736 1414 736 1375T721 1306T680 1248Q625 1192 545 1159Q644 1142 710 1079Q781 1011 781 930T748 794T660 700Q548 618 410 618T150 699Z" />
<glyph unicode="&#xbf;" glyph-name="questiondown" horiz-adv-x="1034" d="M465 541Q465 588 529 588Q578 588 607 560Q660 509 660 439Q660 295 473 78Q334 -86 334 -228Q334 -422 551 -422Q648 -422 722 -359T829 -166Q833 -148 845 -130T871 -111Q904 -111
904 -154V-430Q724 -530 525 -530Q314 -530 201 -445Q100 -368 100 -239Q100 -72 260 84Q316 138 396 204Q572 348 572 443Q572 463 556 477T517 495T480 508T465 541ZM670 990T678 966T686 917T676 867T646 821Q604 778 556 778T481 791T438 825Q404 867 404 909T415
976T446 1019Q487 1055 534 1055T608 1042T652 1010Z" />
<glyph unicode="&#xc0;" glyph-name="Agrave" horiz-adv-x="1707" d="M190 15L50 0Q10 0 -8 13T-27 45Q-27 73 6 73L55 66Q101 66 130 104Q185 174 267 355Q778 1463 794 1496T822 1545Q839 1570 857 1570Q875 1570 892 1546Q918 1506 965 1404L1486 265Q1560
103 1616 75Q1634 66 1653 66L1702 74Q1735 74 1735 45Q1735 0 1655 0L1461 15L1216 0Q1165 0 1144 15T1122 45Q1122 73 1154 73L1225 63Q1254 63 1267 71T1280 98T1278 129T1272 158Q1263 188 1239 240L1162 401Q1147 433 1130 443Q1102 460 1050 460H533Q459
460 435 424Q427 412 420 395L371 279Q316 147 316 116Q316 66 393 66L442 74Q474 74 474 45Q474 0 379 0Q323 0 289 5Q221 15 190 15ZM504 578Q504 547 617 547H960Q1056 547 1070 564Q1075 570 1075 578Q1075 586 1068 604L846 1141Q807 1237 787 1237Q771 1237
746 1176L517 623Q504 594 504 578ZM1052 1655Q1034 1655 1006 1670L768 1792Q658 1848 638 1906Q632 1925 632 1953T657 2003T711 2026T759 2021T802 2004Q844 1979 899 1912L1059 1713Q1076 1693 1076 1682Q1076 1655 1052 1655Z" />
<glyph unicode="&#xc1;" glyph-name="Aacute" horiz-adv-x="1707" d="M190 15L50 0Q10 0 -8 13T-27 45Q-27 73 6 73L55 66Q101 66 130 104Q185 174 267 355Q778 1463 794 1496T822 1545Q839 1570 857 1570Q875 1570 892 1546Q918 1506 965 1404L1486 265Q1560
103 1616 75Q1634 66 1653 66L1702 74Q1735 74 1735 45Q1735 0 1655 0L1461 15L1216 0Q1165 0 1144 15T1122 45Q1122 73 1154 73L1225 63Q1254 63 1267 71T1280 98T1278 129T1272 158Q1263 188 1239 240L1162 401Q1147 433 1130 443Q1102 460 1050 460H533Q459
460 435 424Q427 412 420 395L371 279Q316 147 316 116Q316 66 393 66L442 74Q474 74 474 45Q474 0 379 0Q323 0 289 5Q221 15 190 15ZM504 578Q504 547 617 547H960Q1056 547 1070 564Q1075 570 1075 578Q1075 586 1068 604L846 1141Q807 1237 787 1237Q771 1237
746 1176L517 623Q504 594 504 578ZM702 1670Q674 1655 660 1655T639 1663T632 1682T649 1713L809 1912Q886 2008 948 2022Q968 2026 996 2026T1050 2004T1076 1941T1045 1865T940 1792L702 1670Z" />
<glyph unicode="&#xc2;" glyph-name="Acircumflex" horiz-adv-x="1707" d="M190 15L50 0Q10 0 -8 13T-27 45Q-27 73 6 73L55 66Q101 66 130 104Q185 174 267 355Q778 1463 794 1496T822 1545Q839 1570 857 1570Q875 1570 892 1546Q918 1506 965 1404L1486 265Q1560
103 1616 75Q1634 66 1653 66L1702 74Q1735 74 1735 45Q1735 0 1655 0L1461 15L1216 0Q1165 0 1144 15T1122 45Q1122 73 1154 73L1225 63Q1254 63 1267 71T1280 98T1278 129T1272 158Q1263 188 1239 240L1162 401Q1147 433 1130 443Q1102 460 1050 460H533Q459
460 435 424Q427 412 420 395L371 279Q316 147 316 116Q316 66 393 66L442 74Q474 74 474 45Q474 0 379 0Q323 0 289 5Q221 15 190 15ZM504 578Q504 547 617 547H960Q1056 547 1070 564Q1075 570 1075 578Q1075 586 1068 604L846 1141Q807 1237 787 1237Q771 1237
746 1176L517 623Q504 594 504 578ZM592 1661Q560 1640 543 1640T519 1648T512 1665Q512 1685 529 1704L748 1952Q807 2019 824 2024T856 2030Q892 2030 960 1952L1179 1704Q1196 1685 1196 1665Q1196 1657 1190 1649T1173 1640Q1148 1640 1116 1661L853 1830L592
1661Z" />
<glyph unicode="&#xc3;" glyph-name="Atilde" horiz-adv-x="1707" d="M190 15L50 0Q10 0 -8 13T-27 45Q-27 73 6 73L55 66Q101 66 130 104Q185 174 267 355Q778 1463 794 1496T822 1545Q839 1570 857 1570Q875 1570 892 1546Q918 1506 965 1404L1486 265Q1560
103 1616 75Q1634 66 1653 66L1702 74Q1735 74 1735 45Q1735 0 1655 0L1461 15L1216 0Q1165 0 1144 15T1122 45Q1122 73 1154 73L1225 63Q1254 63 1267 71T1280 98T1278 129T1272 158Q1263 188 1239 240L1162 401Q1147 433 1130 443Q1102 460 1050 460H533Q459
460 435 424Q427 412 420 395L371 279Q316 147 316 116Q316 66 393 66L442 74Q474 74 474 45Q474 0 379 0Q323 0 289 5Q221 15 190 15ZM504 578Q504 547 617 547H960Q1056 547 1070 564Q1075 570 1075 578Q1075 586 1068 604L846 1141Q807 1237 787 1237Q771 1237
746 1176L517 623Q504 594 504 578ZM1210 1947Q1233 1947 1233 1924T1227 1881T1209 1840Q1153 1739 1074 1700Q1045 1685 1004 1685Q940 1685 809 1743Q690 1792 652 1792T591 1776T549 1732Q518 1687 498 1687Q475 1687 475 1716Q475 1787 559 1876Q628 1949
719 1949Q803 1949 909 1896Q1003 1851 1034 1847T1080 1842Q1118 1842 1162 1907Q1190 1947 1210 1947Z" />
<glyph unicode="&#xc4;" glyph-name="Adieresis" horiz-adv-x="1707" d="M190 15L50 0Q10 0 -8 13T-27 45Q-27 73 6 73L55 66Q101 66 130 104Q185 174 267 355Q778 1463 794 1496T822 1545Q839 1570 857 1570Q875 1570 892 1546Q918 1506 965 1404L1486 265Q1560
103 1616 75Q1634 66 1653 66L1702 74Q1735 74 1735 45Q1735 0 1655 0L1461 15L1216 0Q1165 0 1144 15T1122 45Q1122 73 1154 73L1225 63Q1254 63 1267 71T1280 98T1278 129T1272 158Q1263 188 1239 240L1162 401Q1147 433 1130 443Q1102 460 1050 460H533Q459
460 435 424Q427 412 420 395L371 279Q316 147 316 116Q316 66 393 66L442 74Q474 74 474 45Q474 0 379 0Q323 0 289 5Q221 15 190 15ZM504 578Q504 547 617 547H960Q1056 547 1070 564Q1075 570 1075 578Q1075 586 1068 604L846 1141Q807 1237 787 1237Q771 1237
746 1176L517 623Q504 594 504 578ZM1231 1710T1204 1698T1141 1685T1078 1698T1033 1732Q999 1772 999 1818T1009 1891T1039 1939Q1081 1982 1132 1982T1210 1969T1255 1934Q1290 1893 1290 1848T1280 1777T1250 1731ZM651 1710T624 1698T561 1685T498 1698T453
1732Q419 1772 419 1818T429 1891T459 1939Q501 1982 552 1982T630 1969T675 1934Q710 1893 710 1848T700 1777T670 1731Z" />
<glyph unicode="&#xc5;" glyph-name="Aring" horiz-adv-x="1707" d="M190 15L50 0Q10 0 -8 13T-27 45Q-27 73 6 73L55 66Q101 66 130 104Q185 174 267 355Q778 1463 794 1496T822 1545Q839 1570 857 1570Q875 1570 892 1546Q918 1506 965 1404L1486 265Q1560 103
1616 75Q1634 66 1653 66L1702 74Q1735 74 1735 45Q1735 0 1655 0L1461 15L1216 0Q1165 0 1144 15T1122 45Q1122 73 1154 73L1225 63Q1254 63 1267 71T1280 98T1278 129T1272 158Q1263 188 1239 240L1162 401Q1147 433 1130 443Q1102 460 1050 460H533Q459 460
435 424Q427 412 420 395L371 279Q316 147 316 116Q316 66 393 66L442 74Q474 74 474 45Q474 0 379 0Q323 0 289 5Q221 15 190 15ZM504 578Q504 547 617 547H960Q1056 547 1070 564Q1075 570 1075 578Q1075 586 1068 604L846 1141Q807 1237 787 1237Q771 1237 746
1176L517 623Q504 594 504 578ZM855 1528Q801 1528 754 1545T671 1596Q595 1665 595 1772Q595 1879 671 1949Q747 2020 855 2020Q961 2020 1037 1949T1114 1772Q1114 1666 1037 1596Q964 1528 855 1528ZM853 1620Q953 1620 990 1708Q1002 1736 1002 1770T991 1832T960
1880Q918 1924 868 1924T790 1912T743 1879Q704 1836 704 1772Q704 1710 747 1665Q791 1620 853 1620Z" />
<glyph unicode="&#xc6;" glyph-name="AE" horiz-adv-x="2227" d="M522 51Q522 0 418 0Q364 0 330 5Q262 15 233 15T190 15T160 13T130 10L107 8Q17 -10 -6 7T-30 40Q-30 73 9 73L56 66Q105 66 153 106Q245 181 368 355L1027 1285Q1096 1382 1096 1426Q1096 1460
1044 1462Q1029 1462 1013 1462L964 1455Q931 1455 931 1483Q931 1499 949 1513T1012 1528T1081 1526L1129 1522Q1153 1518 1194 1517L1262 1514Q1288 1513 1311 1513H2054Q2062 1442 2088 1356Q2134 1209 2134 1185T2118 1161Q2104 1161 2089 1179Q1970 1314 1943
1336T1894 1371T1846 1395Q1792 1415 1711 1415H1444Q1388 1415 1368 1392T1347 1323V899Q1347 842 1438 842H1683Q1755 842 1814 912Q1834 937 1843 959T1858 989T1873 997Q1899 997 1899 946L1891 787L1899 631Q1899 581 1873 581Q1859 581 1847 611T1814 667T1770
710Q1724 745 1683 745H1437Q1394 745 1371 726T1347 678V236Q1347 97 1444 97H1651Q1894 97 2049 232Q2077 257 2102 282L2151 332Q2187 368 2208 368T2229 354Q2229 327 2201 279T2155 200T2124 137T2098 72L2073 0H1253Q1158 0 1125 -5Q1059 -15 1004 -15T931
0T912 31Q912 58 945 58L1009 51Q1066 51 1087 87Q1125 155 1125 371V460H673Q601 460 570 423Q560 411 549 395L469 279Q375 142 375 108Q375 66 444 66L495 74Q522 74 522 51ZM665 574Q665 547 717 547H1125V1258L686 623Q665 592 665 574Z" />
<glyph unicode="&#xc7;" glyph-name="Ccedilla" horiz-adv-x="1707" d="M957 -23Q915 -23 873 -19L833 -197Q839 -196 844 -196H855Q950 -196 1017 -238Q1088 -282 1088 -350Q1088 -424 1006 -478Q925 -530 823 -530Q702 -530 640 -474Q618 -454 618 -431T631
-391T668 -374Q705 -374 743 -408Q804 -463 856 -463T931 -440T954 -372T920 -296T839 -265Q769 -265 726 -281L779 -8Q488 44 317 248Q149 449 149 729Q149 1095 382 1332Q528 1479 732 1534Q832 1561 915 1561T1048 1554T1138 1535Q1200 1518 1244 1500Q1309
1473 1325 1473Q1357 1473 1389 1505L1432 1548Q1460 1576 1473 1576Q1498 1576 1498 1535T1499 1464T1505 1406Q1514 1341 1530 1282L1554 1189Q1564 1154 1564 1131Q1564 1089 1540 1089Q1520 1089 1509 1112Q1426 1272 1264 1368Q1105 1463 934 1463Q693 1463
530 1300Q364 1134 364 877Q364 709 418 566T566 317T784 152T1050 92Q1286 92 1420 298Q1469 374 1497 485Q1504 511 1511 527T1538 544T1557 485V202Q1320 -23 957 -23Z" />
<glyph unicode="&#xc8;" glyph-name="Egrave" horiz-adv-x="1367" d="M487 236Q487 97 584 97H791Q1034 97 1189 232Q1217 257 1242 282L1291 332Q1327 368 1348 368T1369 354Q1369 327 1341 279T1295 200T1264 137T1238 72L1213 0H393Q298 0 265 -5Q199 -15 144
-15T71 0T52 31Q52 58 85 58L149 51Q206 51 227 86Q265 153 265 321V1195Q265 1318 251 1357T226 1418Q202 1462 134 1462L85 1455Q52 1455 52 1483Q52 1499 70 1513T133 1528T202 1526L250 1522Q328 1513 382 1513H1194Q1202 1442 1228 1356Q1274 1209 1274 1185T1258
1161Q1244 1161 1229 1179Q1110 1314 1083 1336T1034 1371T986 1395Q932 1415 851 1415H584Q528 1415 508 1392T487 1323V899Q487 842 578 842H823Q895 842 954 912Q974 937 983 959T998 989T1013 997Q1039 997 1039 946L1031 787L1039 631Q1039 581 1013 581Q999
581 987 611T954 667T910 710Q864 745 823 745H577Q534 745 511 726T487 678V236ZM908 1655Q890 1655 862 1670L624 1792Q514 1848 494 1906Q488 1925 488 1953T513 2003T567 2026T615 2021T658 2004Q700 1979 755 1912L915 1713Q932 1693 932 1682Q932 1655 908
1655Z" />
<glyph unicode="&#xc9;" glyph-name="Eacute" horiz-adv-x="1367" d="M487 236Q487 97 584 97H791Q1034 97 1189 232Q1217 257 1242 282L1291 332Q1327 368 1348 368T1369 354Q1369 327 1341 279T1295 200T1264 137T1238 72L1213 0H393Q298 0 265 -5Q199 -15 144
-15T71 0T52 31Q52 58 85 58L149 51Q206 51 227 86Q265 153 265 321V1195Q265 1318 251 1357T226 1418Q202 1462 134 1462L85 1455Q52 1455 52 1483Q52 1499 70 1513T133 1528T202 1526L250 1522Q328 1513 382 1513H1194Q1202 1442 1228 1356Q1274 1209 1274 1185T1258
1161Q1244 1161 1229 1179Q1110 1314 1083 1336T1034 1371T986 1395Q932 1415 851 1415H584Q528 1415 508 1392T487 1323V899Q487 842 578 842H823Q895 842 954 912Q974 937 983 959T998 989T1013 997Q1039 997 1039 946L1031 787L1039 631Q1039 581 1013 581Q999
581 987 611T954 667T910 710Q864 745 823 745H577Q534 745 511 726T487 678V236ZM558 1670Q530 1655 516 1655T495 1663T488 1682T505 1713L665 1912Q742 2008 804 2022Q824 2026 852 2026T906 2004T932 1941T901 1865T796 1792L558 1670Z" />
<glyph unicode="&#xca;" glyph-name="Ecircumflex" horiz-adv-x="1367" d="M487 236Q487 97 584 97H791Q1034 97 1189 232Q1217 257 1242 282L1291 332Q1327 368 1348 368T1369 354Q1369 327 1341 279T1295 200T1264 137T1238 72L1213 0H393Q298 0 265 -5Q199
-15 144 -15T71 0T52 31Q52 58 85 58L149 51Q206 51 227 86Q265 153 265 321V1195Q265 1318 251 1357T226 1418Q202 1462 134 1462L85 1455Q52 1455 52 1483Q52 1499 70 1513T133 1528T202 1526L250 1522Q328 1513 382 1513H1194Q1202 1442 1228 1356Q1274 1209
1274 1185T1258 1161Q1244 1161 1229 1179Q1110 1314 1083 1336T1034 1371T986 1395Q932 1415 851 1415H584Q528 1415 508 1392T487 1323V899Q487 842 578 842H823Q895 842 954 912Q974 937 983 959T998 989T1013 997Q1039 997 1039 946L1031 787L1039 631Q1039
581 1013 581Q999 581 987 611T954 667T910 710Q864 745 823 745H577Q534 745 511 726T487 678V236ZM448 1661Q416 1640 399 1640T375 1648T368 1665Q368 1685 385 1704L604 1952Q663 2019 680 2024T712 2030Q748 2030 816 1952L1035 1704Q1052 1685 1052 1665Q1052
1657 1046 1649T1029 1640Q1004 1640 972 1661L709 1830L448 1661Z" />
<glyph unicode="&#xcb;" glyph-name="Edieresis" horiz-adv-x="1367" d="M487 236Q487 97 584 97H791Q1034 97 1189 232Q1217 257 1242 282L1291 332Q1327 368 1348 368T1369 354Q1369 327 1341 279T1295 200T1264 137T1238 72L1213 0H393Q298 0 265 -5Q199 -15
144 -15T71 0T52 31Q52 58 85 58L149 51Q206 51 227 86Q265 153 265 321V1195Q265 1318 251 1357T226 1418Q202 1462 134 1462L85 1455Q52 1455 52 1483Q52 1499 70 1513T133 1528T202 1526L250 1522Q328 1513 382 1513H1194Q1202 1442 1228 1356Q1274 1209 1274
1185T1258 1161Q1244 1161 1229 1179Q1110 1314 1083 1336T1034 1371T986 1395Q932 1415 851 1415H584Q528 1415 508 1392T487 1323V899Q487 842 578 842H823Q895 842 954 912Q974 937 983 959T998 989T1013 997Q1039 997 1039 946L1031 787L1039 631Q1039 581
1013 581Q999 581 987 611T954 667T910 710Q864 745 823 745H577Q534 745 511 726T487 678V236ZM1087 1710T1060 1698T997 1685T934 1698T889 1732Q855 1772 855 1818T865 1891T895 1939Q937 1982 988 1982T1066 1969T1111 1934Q1146 1893 1146 1848T1136 1777T1106
1731ZM507 1710T480 1698T417 1685T354 1698T309 1732Q275 1772 275 1818T285 1891T315 1939Q357 1982 408 1982T486 1969T531 1934Q566 1893 566 1848T556 1777T526 1731Z" />
<glyph unicode="&#xcc;" glyph-name="Igrave" horiz-adv-x="854" d="M718 73Q751 73 751 46Q751 30 733 15T674 0Q616 0 579 4T525 10T492 13Q456 15 427 15Q349 15 316 10Q157 -14 122 15Q103 30 103 46Q103 73 136 73L200 66Q257 66 278 102Q309 157 312 218T316
321V1207Q316 1331 302 1369T278 1426Q257 1462 200 1462L136 1455Q103 1455 103 1482Q103 1498 121 1513T180 1528Q238 1528 275 1524T329 1518T362 1515Q398 1513 427 1513Q505 1513 538 1518Q604 1528 659 1528T732 1513T751 1482Q751 1455 718 1455L654 1462Q597
1462 576 1426Q545 1371 542 1310T538 1207V321Q538 197 552 159T576 102Q597 66 654 66L718 73ZM625 1655Q607 1655 579 1670L341 1792Q231 1848 211 1906Q205 1925 205 1953T230 2003T284 2026T332 2021T375 2004Q417 1979 472 1912L632 1713Q649 1693 649 1682Q649
1655 625 1655Z" />
<glyph unicode="&#xcd;" glyph-name="Iacute" horiz-adv-x="854" d="M718 73Q751 73 751 46Q751 30 733 15T674 0Q616 0 579 4T525 10T492 13Q456 15 427 15Q349 15 316 10Q157 -14 122 15Q103 30 103 46Q103 73 136 73L200 66Q257 66 278 102Q309 157 312 218T316
321V1207Q316 1331 302 1369T278 1426Q257 1462 200 1462L136 1455Q103 1455 103 1482Q103 1498 121 1513T180 1528Q238 1528 275 1524T329 1518T362 1515Q398 1513 427 1513Q505 1513 538 1518Q604 1528 659 1528T732 1513T751 1482Q751 1455 718 1455L654 1462Q597
1462 576 1426Q545 1371 542 1310T538 1207V321Q538 197 552 159T576 102Q597 66 654 66L718 73ZM275 1670Q247 1655 233 1655T212 1663T205 1682T222 1713L382 1912Q459 2008 521 2022Q541 2026 569 2026T623 2004T649 1941T618 1865T513 1792L275 1670Z" />
<glyph unicode="&#xce;" glyph-name="Icircumflex" horiz-adv-x="854" d="M718 73Q751 73 751 46Q751 30 733 15T674 0Q616 0 579 4T525 10T492 13Q456 15 427 15Q349 15 316 10Q157 -14 122 15Q103 30 103 46Q103 73 136 73L200 66Q257 66 278 102Q309 157 312
218T316 321V1207Q316 1331 302 1369T278 1426Q257 1462 200 1462L136 1455Q103 1455 103 1482Q103 1498 121 1513T180 1528Q238 1528 275 1524T329 1518T362 1515Q398 1513 427 1513Q505 1513 538 1518Q604 1528 659 1528T732 1513T751 1482Q751 1455 718 1455L654
1462Q597 1462 576 1426Q545 1371 542 1310T538 1207V321Q538 197 552 159T576 102Q597 66 654 66L718 73ZM422 1661Q390 1640 373 1640T349 1648T342 1665Q342 1685 359 1704L578 1952Q637 2019 654 2024T686 2030Q722 2030 790 1952L1009 1704Q1026 1685 1026
1665Q1026 1657 1020 1649T1003 1640Q978 1640 946 1661L683 1830L422 1661Z" />
<glyph unicode="&#xcf;" glyph-name="Idieresis" horiz-adv-x="854" d="M718 73Q751 73 751 46Q751 30 733 15T674 0Q616 0 579 4T525 10T492 13Q456 15 427 15Q349 15 316 10Q157 -14 122 15Q103 30 103 46Q103 73 136 73L200 66Q257 66 278 102Q309 157 312
218T316 321V1207Q316 1331 302 1369T278 1426Q257 1462 200 1462L136 1455Q103 1455 103 1482Q103 1498 121 1513T180 1528Q238 1528 275 1524T329 1518T362 1515Q398 1513 427 1513Q505 1513 538 1518Q604 1528 659 1528T732 1513T751 1482Q751 1455 718 1455L654
1462Q597 1462 576 1426Q545 1371 542 1310T538 1207V321Q538 197 552 159T576 102Q597 66 654 66L718 73ZM1061 1710T1034 1698T971 1685T908 1698T863 1732Q829 1772 829 1818T839 1891T869 1939Q911 1982 962 1982T1040 1969T1085 1934Q1120 1893 1120 1848T1110
1777T1080 1731ZM481 1710T454 1698T391 1685T328 1698T283 1732Q249 1772 249 1818T259 1891T289 1939Q331 1982 382 1982T460 1969T505 1934Q540 1893 540 1848T530 1777T500 1731Z" />
<glyph unicode="&#xd0;" glyph-name="Eth" horiz-adv-x="1880" d="M182 1462L133 1455Q100 1455 100 1483Q100 1499 118 1513T181 1528T250 1526L298 1522Q367 1514 433 1514Q534 1514 632 1524Q810 1542 905 1542Q1295 1542 1530 1332Q1765 1122 1765 770Q1765
428 1505 200Q1249 -24 872 -24Q789 -24 730 -16L623 -1Q513 15 466 15T400 15T364 13Q320 11 300 8Q153 -13 118 15Q100 30 100 46Q100 73 133 73L197 66Q254 66 275 102Q306 157 309 218T313 321V721H190Q158 721 138 730T118 772T138 811T193 818H313V1195Q313
1318 299 1357T274 1418Q250 1462 182 1462ZM539 1311V818H893Q950 818 962 794Q968 784 968 760Q968 721 894 721H539V239Q539 149 604 114Q676 76 846 76T1139 113T1345 230Q1518 396 1518 748Q1518 1091 1334 1271Q1156 1445 848 1445T539 1311Z" />
<glyph unicode="&#xd1;" glyph-name="Ntilde" horiz-adv-x="1876" d="M603 0L415 15Q388 15 348 10Q146 -18 146 46Q146 73 179 73L243 66Q300 66 321 102Q352 157 355 218T359 321L360 1153Q360 1202 335 1255T294 1330T259 1372T218 1412Q168 1454 135 1466Q82
1485 82 1506T135 1528L444 1517L1484 418V1200Q1484 1324 1470 1362T1446 1420Q1425 1455 1368 1455L1295 1448Q1262 1448 1262 1475Q1262 1491 1281 1506T1352 1521L1540 1506Q1567 1506 1607 1512Q1676 1521 1724 1521T1790 1506T1809 1475Q1809 1448 1776 1448L1712
1455Q1655 1455 1634 1419Q1603 1364 1600 1303T1596 1200V181Q1596 60 1618 20Q1626 6 1640 -6Q1660 -23 1660 -41Q1660 -65 1631 -65Q1592 -65 1525 8L471 1134V321Q471 197 485 159T510 102Q530 66 587 66L660 73Q693 73 693 46Q693 30 674 15T603 0ZM1301 1947Q1324
1947 1324 1924T1318 1881T1300 1840Q1244 1739 1165 1700Q1136 1685 1095 1685Q1031 1685 900 1743Q781 1792 743 1792T682 1776T640 1732Q609 1687 589 1687Q566 1687 566 1716Q566 1787 650 1876Q719 1949 810 1949Q894 1949 1000 1896Q1094 1851 1125 1847T1171
1842Q1209 1842 1253 1907Q1281 1947 1301 1947Z" />
<glyph unicode="&#xd2;" glyph-name="Ograve" horiz-adv-x="1880" d="M132 734Q132 908 190 1060T356 1324Q587 1561 966 1561Q1186 1561 1369 1452Q1544 1349 1646 1172Q1748 994 1748 786Q1748 410 1503 188Q1271 -23 929 -23Q568 -23 349 185Q132 392 132 734ZM340
889Q340 651 446 460Q544 286 708 187Q867 91 1042 91Q1244 91 1375 232Q1516 384 1516 648Q1516 867 1422 1058Q1333 1236 1180 1344Q1026 1451 855 1451Q636 1451 490 1294Q340 1133 340 889ZM1138 1655Q1120 1655 1092 1670L854 1792Q744 1848 724 1906Q718
1925 718 1953T743 2003T797 2026T845 2021T888 2004Q930 1979 985 1912L1145 1713Q1162 1693 1162 1682Q1162 1655 1138 1655Z" />
<glyph unicode="&#xd3;" glyph-name="Oacute" horiz-adv-x="1880" d="M132 734Q132 908 190 1060T356 1324Q587 1561 966 1561Q1186 1561 1369 1452Q1544 1349 1646 1172Q1748 994 1748 786Q1748 410 1503 188Q1271 -23 929 -23Q568 -23 349 185Q132 392 132 734ZM340
889Q340 651 446 460Q544 286 708 187Q867 91 1042 91Q1244 91 1375 232Q1516 384 1516 648Q1516 867 1422 1058Q1333 1236 1180 1344Q1026 1451 855 1451Q636 1451 490 1294Q340 1133 340 889ZM788 1670Q760 1655 746 1655T725 1663T718 1682T735 1713L895 1912Q972
2008 1034 2022Q1054 2026 1082 2026T1136 2004T1162 1941T1131 1865T1026 1792L788 1670Z" />
<glyph unicode="&#xd4;" glyph-name="Ocircumflex" horiz-adv-x="1880" d="M132 734Q132 908 190 1060T356 1324Q587 1561 966 1561Q1186 1561 1369 1452Q1544 1349 1646 1172Q1748 994 1748 786Q1748 410 1503 188Q1271 -23 929 -23Q568 -23 349 185Q132 392
132 734ZM340 889Q340 651 446 460Q544 286 708 187Q867 91 1042 91Q1244 91 1375 232Q1516 384 1516 648Q1516 867 1422 1058Q1333 1236 1180 1344Q1026 1451 855 1451Q636 1451 490 1294Q340 1133 340 889ZM678 1661Q646 1640 629 1640T605 1648T598 1665Q598
1685 615 1704L834 1952Q893 2019 910 2024T942 2030Q978 2030 1046 1952L1265 1704Q1282 1685 1282 1665Q1282 1657 1276 1649T1259 1640Q1234 1640 1202 1661L939 1830L678 1661Z" />
<glyph unicode="&#xd5;" glyph-name="Otilde" horiz-adv-x="1880" d="M132 734Q132 908 190 1060T356 1324Q587 1561 966 1561Q1186 1561 1369 1452Q1544 1349 1646 1172Q1748 994 1748 786Q1748 410 1503 188Q1271 -23 929 -23Q568 -23 349 185Q132 392 132 734ZM340
889Q340 651 446 460Q544 286 708 187Q867 91 1042 91Q1244 91 1375 232Q1516 384 1516 648Q1516 867 1422 1058Q1333 1236 1180 1344Q1026 1451 855 1451Q636 1451 490 1294Q340 1133 340 889ZM1296 1947Q1319 1947 1319 1924T1313 1881T1295 1840Q1239 1739 1160
1700Q1131 1685 1090 1685Q1026 1685 895 1743Q776 1792 738 1792T677 1776T635 1732Q604 1687 584 1687Q561 1687 561 1716Q561 1787 645 1876Q714 1949 805 1949Q889 1949 995 1896Q1089 1851 1120 1847T1166 1842Q1204 1842 1248 1907Q1276 1947 1296 1947Z"
/>
<glyph unicode="&#xd6;" glyph-name="Odieresis" horiz-adv-x="1880" d="M132 734Q132 908 190 1060T356 1324Q587 1561 966 1561Q1186 1561 1369 1452Q1544 1349 1646 1172Q1748 994 1748 786Q1748 410 1503 188Q1271 -23 929 -23Q568 -23 349 185Q132 392 132
734ZM340 889Q340 651 446 460Q544 286 708 187Q867 91 1042 91Q1244 91 1375 232Q1516 384 1516 648Q1516 867 1422 1058Q1333 1236 1180 1344Q1026 1451 855 1451Q636 1451 490 1294Q340 1133 340 889ZM1317 1710T1290 1698T1227 1685T1164 1698T1119 1732Q1085
1772 1085 1818T1095 1891T1125 1939Q1167 1982 1218 1982T1296 1969T1341 1934Q1376 1893 1376 1848T1366 1777T1336 1731ZM737 1710T710 1698T647 1685T584 1698T539 1732Q505 1772 505 1818T515 1891T545 1939Q587 1982 638 1982T716 1969T761 1934Q796 1893
796 1848T786 1777T756 1731Z" />
<glyph unicode="&#xd7;" glyph-name="multiply" horiz-adv-x="1175" d="M158 311L489 642L150 982L250 1082L589 742L920 1073L1017 976L686 645L1025 305L925 205L586 545L255 214L158 311Z" />
<glyph unicode="&#xd8;" glyph-name="Oslash" horiz-adv-x="1880" d="M929 -23Q716 -23 541 56L399 -155Q365 -203 336 -203Q277 -203 277 -153Q277 -128 309 -79L439 113Q292 211 212 368T132 717T190 1060T356 1324Q587 1561 966 1561Q1178 1561 1353 1462L1494
1669Q1516 1700 1530 1709T1564 1719T1599 1708T1614 1675Q1614 1645 1578 1590L1449 1398Q1665 1229 1728 964Q1748 877 1748 767T1718 547T1634 347T1503 188T1336 72Q1152 -23 929 -23ZM1240 1295Q1065 1451 855 1451Q636 1451 490 1294Q340 1133 340 889Q340
530 566 300L1240 1295ZM654 223Q833 91 1042 91Q1244 91 1375 232Q1516 384 1516 648Q1516 973 1322 1211L654 223Z" />
<glyph unicode="&#xd9;" glyph-name="Ugrave" horiz-adv-x="1874" d="M1399 0Q1336 0 1333 117Q1135 -23 903 -23Q602 -23 440 128Q280 276 280 545V1207Q280 1331 266 1369T242 1426Q221 1462 164 1462L100 1455Q67 1455 67 1482Q67 1498 85 1513T144 1528Q202
1528 239 1524T293 1518T326 1515Q362 1513 391 1513Q469 1513 502 1518Q568 1528 623 1528T696 1513T715 1482Q715 1455 682 1455L618 1462Q561 1462 540 1426Q509 1371 506 1310T502 1207V505Q502 304 622 188Q739 75 948 75T1333 224V1207Q1333 1331 1319 1369T1294
1426Q1274 1462 1217 1462L1153 1455Q1120 1455 1120 1482Q1120 1498 1138 1513T1197 1528Q1255 1528 1292 1524T1346 1518T1380 1515Q1414 1513 1444 1513Q1522 1513 1555 1518Q1621 1528 1676 1528T1749 1513T1768 1482Q1768 1455 1735 1455L1671 1462Q1614 1462
1593 1426Q1562 1371 1559 1310T1555 1207L1558 345Q1558 157 1574 117T1615 70T1666 63L1722 70Q1754 70 1754 45Q1754 -3 1661 -3L1508 6Q1495 6 1483 5L1458 3Q1431 0 1399 0ZM1115 1655Q1097 1655 1069 1670L831 1792Q721 1848 701 1906Q695 1925 695 1953T720
2003T774 2026T822 2021T865 2004Q907 1979 962 1912L1122 1713Q1139 1693 1139 1682Q1139 1655 1115 1655Z" />
<glyph unicode="&#xda;" glyph-name="Uacute" horiz-adv-x="1874" d="M1399 0Q1336 0 1333 117Q1135 -23 903 -23Q602 -23 440 128Q280 276 280 545V1207Q280 1331 266 1369T242 1426Q221 1462 164 1462L100 1455Q67 1455 67 1482Q67 1498 85 1513T144 1528Q202
1528 239 1524T293 1518T326 1515Q362 1513 391 1513Q469 1513 502 1518Q568 1528 623 1528T696 1513T715 1482Q715 1455 682 1455L618 1462Q561 1462 540 1426Q509 1371 506 1310T502 1207V505Q502 304 622 188Q739 75 948 75T1333 224V1207Q1333 1331 1319 1369T1294
1426Q1274 1462 1217 1462L1153 1455Q1120 1455 1120 1482Q1120 1498 1138 1513T1197 1528Q1255 1528 1292 1524T1346 1518T1380 1515Q1414 1513 1444 1513Q1522 1513 1555 1518Q1621 1528 1676 1528T1749 1513T1768 1482Q1768 1455 1735 1455L1671 1462Q1614 1462
1593 1426Q1562 1371 1559 1310T1555 1207L1558 345Q1558 157 1574 117T1615 70T1666 63L1722 70Q1754 70 1754 45Q1754 -3 1661 -3L1508 6Q1495 6 1483 5L1458 3Q1431 0 1399 0ZM765 1670Q737 1655 723 1655T702 1663T695 1682T712 1713L872 1912Q949 2008 1011
2022Q1031 2026 1059 2026T1113 2004T1139 1941T1108 1865T1003 1792L765 1670Z" />
<glyph unicode="&#xdb;" glyph-name="Ucircumflex" horiz-adv-x="1874" d="M1399 0Q1336 0 1333 117Q1135 -23 903 -23Q602 -23 440 128Q280 276 280 545V1207Q280 1331 266 1369T242 1426Q221 1462 164 1462L100 1455Q67 1455 67 1482Q67 1498 85 1513T144 1528Q202
1528 239 1524T293 1518T326 1515Q362 1513 391 1513Q469 1513 502 1518Q568 1528 623 1528T696 1513T715 1482Q715 1455 682 1455L618 1462Q561 1462 540 1426Q509 1371 506 1310T502 1207V505Q502 304 622 188Q739 75 948 75T1333 224V1207Q1333 1331 1319 1369T1294
1426Q1274 1462 1217 1462L1153 1455Q1120 1455 1120 1482Q1120 1498 1138 1513T1197 1528Q1255 1528 1292 1524T1346 1518T1380 1515Q1414 1513 1444 1513Q1522 1513 1555 1518Q1621 1528 1676 1528T1749 1513T1768 1482Q1768 1455 1735 1455L1671 1462Q1614 1462
1593 1426Q1562 1371 1559 1310T1555 1207L1558 345Q1558 157 1574 117T1615 70T1666 63L1722 70Q1754 70 1754 45Q1754 -3 1661 -3L1508 6Q1495 6 1483 5L1458 3Q1431 0 1399 0ZM655 1661Q623 1640 606 1640T582 1648T575 1665Q575 1685 592 1704L811 1952Q870
2019 887 2024T919 2030Q955 2030 1023 1952L1242 1704Q1259 1685 1259 1665Q1259 1657 1253 1649T1236 1640Q1211 1640 1179 1661L916 1830L655 1661Z" />
<glyph unicode="&#xdc;" glyph-name="Udieresis" horiz-adv-x="1874" d="M1399 0Q1336 0 1333 117Q1135 -23 903 -23Q602 -23 440 128Q280 276 280 545V1207Q280 1331 266 1369T242 1426Q221 1462 164 1462L100 1455Q67 1455 67 1482Q67 1498 85 1513T144 1528Q202
1528 239 1524T293 1518T326 1515Q362 1513 391 1513Q469 1513 502 1518Q568 1528 623 1528T696 1513T715 1482Q715 1455 682 1455L618 1462Q561 1462 540 1426Q509 1371 506 1310T502 1207V505Q502 304 622 188Q739 75 948 75T1333 224V1207Q1333 1331 1319 1369T1294
1426Q1274 1462 1217 1462L1153 1455Q1120 1455 1120 1482Q1120 1498 1138 1513T1197 1528Q1255 1528 1292 1524T1346 1518T1380 1515Q1414 1513 1444 1513Q1522 1513 1555 1518Q1621 1528 1676 1528T1749 1513T1768 1482Q1768 1455 1735 1455L1671 1462Q1614 1462
1593 1426Q1562 1371 1559 1310T1555 1207L1558 345Q1558 157 1574 117T1615 70T1666 63L1722 70Q1754 70 1754 45Q1754 -3 1661 -3L1508 6Q1495 6 1483 5L1458 3Q1431 0 1399 0ZM1294 1710T1267 1698T1204 1685T1141 1698T1096 1732Q1062 1772 1062 1818T1072
1891T1102 1939Q1144 1982 1195 1982T1273 1969T1318 1934Q1353 1893 1353 1848T1343 1777T1313 1731ZM714 1710T687 1698T624 1685T561 1698T516 1732Q482 1772 482 1818T492 1891T522 1939Q564 1982 615 1982T693 1969T738 1934Q773 1893 773 1848T763 1777T733
1731Z" />
<glyph unicode="&#xdd;" glyph-name="Yacute" horiz-adv-x="1539" d="M991 66L1085 76Q1101 76 1109 67T1118 44T1095 15T1038 0T987 0T950 2Q921 4 900 6T862 10T828 13Q794 15 764 15Q686 15 658 11T613 5T578 2Q464 -4 437 13T410 44Q410 76 443 76L537 66Q594
66 615 102Q646 157 649 218T653 321V668L125 1426Q110 1447 92 1455T36 1463L-19 1455Q-52 1455 -52 1481Q-52 1499 -31 1513T36 1528L233 1514L499 1528Q595 1528 595 1481Q595 1456 563 1456L487 1465Q419 1465 419 1424Q419 1389 464 1321L833 762L1172 1262Q1249
1381 1249 1423T1181 1466L1105 1456Q1073 1456 1073 1481Q1073 1500 1095 1514T1157 1528T1224 1526L1272 1521Q1328 1514 1358 1514Q1404 1514 1434 1518L1480 1526Q1497 1528 1524 1528T1574 1516T1597 1479T1564 1455L1498 1463Q1443 1463 1415 1426L875 664V321Q875
197 889 159T914 102Q934 66 991 66ZM620 1670Q592 1655 578 1655T557 1663T550 1682T567 1713L727 1912Q804 2008 866 2022Q886 2026 914 2026T968 2004T994 1941T963 1865T858 1792L620 1670Z" />
<glyph unicode="&#xde;" glyph-name="Thorn" horiz-adv-x="1539" d="M662 66L756 76Q772 76 780 67T789 44T766 15T709 0T658 0T620 2Q592 4 571 6T533 10T500 13Q464 15 435 15Q357 15 324 10Q165 -14 130 15Q111 30 111 46Q111 73 144 73L208 66Q265 66 286
102Q317 157 320 218T324 321V1207Q324 1331 310 1369T286 1426Q265 1462 208 1462L144 1455Q111 1455 111 1482Q111 1498 129 1513T188 1528Q246 1528 283 1524T337 1518T370 1515Q406 1513 435 1513Q513 1513 541 1517T586 1523T620 1526Q658 1528 700 1528T765
1513T789 1484Q789 1452 756 1452L662 1462Q605 1462 584 1426Q553 1371 550 1310T546 1207V1197Q686 1233 825 1233T1077 1203T1268 1116Q1426 1001 1426 804Q1426 645 1332 530Q1208 377 956 337Q881 325 774 325T546 355Q546 104 615 74Q635 66 662 66ZM546
483Q657 424 826 424Q988 424 1084 504Q1183 588 1183 730Q1183 913 1059 1026Q938 1135 748 1135Q664 1135 621 1107Q546 1057 546 991V483Z" />
<glyph unicode="&#xdf;" glyph-name="germandbls" horiz-adv-x="1390" d="M135 0Q40 0 40 45Q40 73 73 73L122 66Q181 66 201 118Q229 194 231 348V1093Q231 1559 496 1668Q579 1703 680 1703T859 1674T993 1592Q1106 1484 1106 1313Q1106 1194 1024 1088Q949
991 832 941Q1043 911 1180 768Q1321 624 1321 439Q1321 227 1206 100Q1093 -24 913 -24Q813 -24 749 38Q689 96 689 175Q689 209 717 209Q737 209 755 167T816 96T905 67T984 89T1040 152Q1085 233 1085 364T1058 581T980 726Q880 843 698 866Q650 872 625 878T600
904T613 930T659 946T733 976T804 1037Q875 1124 875 1289T818 1538T656 1618Q513 1612 471 1409Q456 1337 456 1236V348Q456 162 466 122T489 74T522 66L571 73Q603 73 603 45Q603 0 504 0L341 15Q326 15 306 14L268 12Q234 10 213 7Q165 0 135 0Z" />
<glyph unicode="&#xe0;" glyph-name="agrave" horiz-adv-x="1366" d="M979 0Q922 0 914 102Q826 11 682 -16Q636 -24 561 -24T407 -2T277 62Q173 144 173 293Q173 455 302 538Q415 611 593 611T913 535V655Q913 796 830 872Q753 942 618 942Q459 942 330 766Q283
704 259 704T235 726T248 786Q273 859 273 995Q273 1039 305 1039Q345 1039 395 1000Q409 989 419 989Q433 989 453 996T498 1009T553 1020Q623 1032 659 1032Q1050 1032 1114 787Q1133 714 1133 631V345Q1133 200 1140 166T1156 109T1194 74T1249 62L1305 70Q1337
70 1337 44Q1337 -3 1244 -3L1091 6Q1078 6 1064 5L1038 3Q1011 0 979 0ZM437 427T422 391T406 309T422 221T471 148Q537 86 660 86Q772 86 862 154Q891 176 913 205V443Q836 491 728 510Q693 516 644 516T548 500T469 455ZM556 1327Q442 1384 425 1444Q420 1462
420 1489T445 1538T498 1561T545 1558T586 1542Q630 1518 687 1447L847 1248Q864 1228 864 1218Q864 1190 837 1190Q822 1190 794 1205L556 1327Z" />
<glyph unicode="&#xe1;" glyph-name="aacute" horiz-adv-x="1366" d="M979 0Q922 0 914 102Q826 11 682 -16Q636 -24 561 -24T407 -2T277 62Q173 144 173 293Q173 455 302 538Q415 611 593 611T913 535V655Q913 796 830 872Q753 942 618 942Q459 942 330 766Q283
704 259 704T235 726T248 786Q273 859 273 995Q273 1039 305 1039Q345 1039 395 1000Q409 989 419 989Q433 989 453 996T498 1009T553 1020Q623 1032 659 1032Q1050 1032 1114 787Q1133 714 1133 631V345Q1133 200 1140 166T1156 109T1194 74T1249 62L1305 70Q1337
70 1337 44Q1337 -3 1244 -3L1091 6Q1078 6 1064 5L1038 3Q1011 0 979 0ZM437 427T422 391T406 309T422 221T471 148Q537 86 660 86Q772 86 862 154Q891 176 913 205V443Q836 491 728 510Q693 516 644 516T548 500T469 455ZM490 1205Q462 1190 448 1190T427 1198T420
1217T437 1248L597 1447Q654 1518 686 1536Q732 1561 772 1561T838 1539T864 1489T859 1445T840 1408Q806 1366 728 1327L490 1205Z" />
<glyph unicode="&#xe2;" glyph-name="acircumflex" horiz-adv-x="1366" d="M979 0Q922 0 914 102Q826 11 682 -16Q636 -24 561 -24T407 -2T277 62Q173 144 173 293Q173 455 302 538Q415 611 593 611T913 535V655Q913 796 830 872Q753 942 618 942Q459 942 330
766Q283 704 259 704T235 726T248 786Q273 859 273 995Q273 1039 305 1039Q345 1039 395 1000Q409 989 419 989Q433 989 453 996T498 1009T553 1020Q623 1032 659 1032Q1050 1032 1114 787Q1133 714 1133 631V345Q1133 200 1140 166T1156 109T1194 74T1249 62L1305
70Q1337 70 1337 44Q1337 -3 1244 -3L1091 6Q1078 6 1064 5L1038 3Q1011 0 979 0ZM437 427T422 391T406 309T422 221T471 148Q537 86 660 86Q772 86 862 154Q891 176 913 205V443Q836 491 728 510Q693 516 644 516T548 500T469 455ZM380 1216Q349 1195 331 1195Q300
1195 300 1220Q300 1240 317 1259L536 1507Q595 1574 612 1579T639 1585T660 1582T684 1570Q711 1551 748 1507L967 1259Q984 1240 984 1220Q984 1212 978 1204T961 1195Q935 1195 904 1216L641 1385L380 1216Z" />
<glyph unicode="&#xe3;" glyph-name="atilde" horiz-adv-x="1366" d="M979 0Q922 0 914 102Q826 11 682 -16Q636 -24 561 -24T407 -2T277 62Q173 144 173 293Q173 455 302 538Q415 611 593 611T913 535V655Q913 796 830 872Q753 942 618 942Q459 942 330 766Q283
704 259 704T235 726T248 786Q273 859 273 995Q273 1039 305 1039Q345 1039 395 1000Q409 989 419 989Q433 989 453 996T498 1009T553 1020Q623 1032 659 1032Q1050 1032 1114 787Q1133 714 1133 631V345Q1133 200 1140 166T1156 109T1194 74T1249 62L1305 70Q1337
70 1337 44Q1337 -3 1244 -3L1091 6Q1078 6 1064 5L1038 3Q1011 0 979 0ZM437 427T422 391T406 309T422 221T471 148Q537 86 660 86Q772 86 862 154Q891 176 913 205V443Q836 491 728 510Q693 516 644 516T548 500T469 455ZM968 1498Q991 1498 991 1475T985 1432T967
1391Q911 1290 832 1250Q803 1236 767 1236Q691 1236 584 1293Q504 1336 484 1339T445 1343Q409 1343 364 1278Q336 1238 316 1238Q293 1238 293 1267Q293 1338 377 1427Q446 1500 522 1500Q582 1500 621 1482T691 1448T746 1420T787 1402Q811 1393 831 1393Q876
1393 920 1458Q948 1498 968 1498Z" />
<glyph unicode="&#xe4;" glyph-name="adieresis" horiz-adv-x="1366" d="M979 0Q922 0 914 102Q826 11 682 -16Q636 -24 561 -24T407 -2T277 62Q173 144 173 293Q173 455 302 538Q415 611 593 611T913 535V655Q913 796 830 872Q753 942 618 942Q459 942 330 766Q283
704 259 704T235 726T248 786Q273 859 273 995Q273 1039 305 1039Q345 1039 395 1000Q409 989 419 989Q433 989 453 996T498 1009T553 1020Q623 1032 659 1032Q1050 1032 1114 787Q1133 714 1133 631V345Q1133 200 1140 166T1156 109T1194 74T1249 62L1305 70Q1337
70 1337 44Q1337 -3 1244 -3L1091 6Q1078 6 1064 5L1038 3Q1011 0 979 0ZM437 427T422 391T406 309T422 221T471 148Q537 86 660 86Q772 86 862 154Q891 176 913 205V443Q836 491 728 510Q693 516 644 516T548 500T469 455ZM969 1245T942 1233T879 1220T816 1233T771
1267Q737 1307 737 1353T747 1426T777 1474Q819 1517 870 1517T948 1504T993 1470Q1028 1428 1028 1383T1018 1312T988 1266ZM489 1245T462 1233T399 1220T336 1233T291 1267Q257 1307 257 1353T267 1426T297 1474Q339 1517 390 1517T468 1504T513 1470Q548 1428
548 1383T538 1312T508 1266Z" />
<glyph unicode="&#xe5;" glyph-name="aring" horiz-adv-x="1366" d="M979 0Q922 0 914 102Q826 11 682 -16Q636 -24 561 -24T407 -2T277 62Q173 144 173 293Q173 455 302 538Q415 611 593 611T913 535V655Q913 796 830 872Q753 942 618 942Q459 942 330 766Q283
704 259 704T235 726T248 786Q273 859 273 995Q273 1039 305 1039Q345 1039 395 1000Q409 989 419 989Q433 989 453 996T498 1009T553 1020Q623 1032 659 1032Q1050 1032 1114 787Q1133 714 1133 631V345Q1133 200 1140 166T1156 109T1194 74T1249 62L1305 70Q1337
70 1337 44Q1337 -3 1244 -3L1091 6Q1078 6 1064 5L1038 3Q1011 0 979 0ZM437 427T422 391T406 309T422 221T471 148Q537 86 660 86Q772 86 862 154Q891 176 913 205V443Q836 491 728 510Q693 516 644 516T548 500T469 455ZM642 1217Q594 1217 553 1232T480 1276Q414
1339 414 1431Q414 1524 480 1587Q546 1649 642 1649Q737 1649 803 1587Q870 1524 870 1431Q870 1338 803 1276Q738 1217 642 1217ZM573 1329T595 1319T641 1309T687 1317T726 1340Q761 1374 761 1429T728 1518T654 1553T591 1543T554 1516Q522 1483 522 1431Q522
1382 547 1356Z" />
<glyph unicode="&#xe6;" glyph-name="ae" horiz-adv-x="2012" d="M1033 156Q916 26 732 -12Q672 -24 588 -24T423 -2T286 62Q173 146 173 293Q173 433 305 522T614 611T912 555Q903 858 744 921Q690 942 613 942Q459 942 330 766Q283 704 259 704T235 726T248
786Q273 859 273 995Q273 1039 305 1039Q327 1039 354 1025Q404 999 419 999Q429 999 438 1002T474 1012Q542 1032 659 1032Q936 1032 1051 854Q1168 981 1352 1020Q1411 1032 1471 1032Q1767 1032 1912 768Q1936 727 1936 700Q1936 651 1892 635Q1599 530 1320
464L1155 424Q1201 264 1320 174Q1430 92 1538 92Q1750 92 1845 228Q1860 249 1869 258T1892 267Q1920 267 1920 241Q1920 206 1883 155Q1751 -24 1469 -24T1033 156ZM1139 508Q1464 587 1675 660Q1699 668 1699 688T1691 733T1668 787T1631 842T1580 892Q1516
940 1450 940T1328 917T1229 850Q1134 753 1134 591Q1134 558 1139 508ZM916 168Q953 194 984 226Q922 332 914 464Q808 516 682 516T481 456T406 299T481 145T675 86T916 168Z" />
<glyph unicode="&#xe7;" glyph-name="ccedilla" horiz-adv-x="1196" d="M1106 727Q1106 702 1083 702Q1060 702 1002 774T857 893T691 940T554 913T452 836Q358 728 358 564Q358 360 477 222Q590 92 748 92Q870 92 966 168Q999 193 1018 221T1047 258T1069 267T1090
260T1099 242Q1099 204 1052 144T926 39T748 -19L708 -197Q714 -196 720 -196H730Q825 -196 892 -238Q963 -282 963 -350Q963 -424 880 -478Q800 -530 698 -530Q577 -530 515 -474Q493 -454 493 -431T506 -391T542 -374Q580 -374 618 -408Q679 -463 731 -463T806
-440T829 -372T795 -296T714 -265Q644 -265 601 -281L651 -23Q423 -15 273 132Q122 279 122 505Q122 716 266 868Q423 1032 670 1032Q764 1032 871 1000Q904 989 916 989Q935 989 976 1010T1040 1032Q1069 1032 1069 996T1069 928T1073 871Q1079 819 1092 780T1106
727Z" />
<glyph unicode="&#xe8;" glyph-name="egrave" horiz-adv-x="1194" d="M182 185T138 283T93 494T133 702T248 871Q410 1032 651 1032Q829 1032 954 936Q1029 878 1092 768Q1118 722 1118 695Q1118 651 1072 635Q806 538 508 466L345 427Q380 271 490 180Q595 92
729 92Q856 92 969 173Q1004 198 1022 223T1049 258T1072 267Q1100 267 1100 241Q1100 206 1065 158T986 77T889 20Q786 -24 664 -24T438 12T259 116ZM333 511Q673 596 855 660Q879 668 879 688T871 733T848 787T811 842T760 892Q696 940 630 940T511 917T418 845Q332
742 332 552V531Q332 521 333 511ZM567 1327Q453 1384 436 1444Q431 1462 431 1489T456 1538T509 1561T556 1558T597 1542Q641 1518 698 1447L858 1248Q875 1228 875 1218Q875 1190 848 1190Q833 1190 805 1205L567 1327Z" />
<glyph unicode="&#xe9;" glyph-name="eacute" horiz-adv-x="1194" d="M182 185T138 283T93 494T133 702T248 871Q410 1032 651 1032Q829 1032 954 936Q1029 878 1092 768Q1118 722 1118 695Q1118 651 1072 635Q806 538 508 466L345 427Q380 271 490 180Q595 92
729 92Q856 92 969 173Q1004 198 1022 223T1049 258T1072 267Q1100 267 1100 241Q1100 206 1065 158T986 77T889 20Q786 -24 664 -24T438 12T259 116ZM333 511Q673 596 855 660Q879 668 879 688T871 733T848 787T811 842T760 892Q696 940 630 940T511 917T418 845Q332
742 332 552V531Q332 521 333 511ZM501 1205Q473 1190 459 1190T438 1198T431 1217T448 1248L608 1447Q665 1518 697 1536Q743 1561 783 1561T849 1539T875 1489T870 1445T851 1408Q817 1366 739 1327L501 1205Z" />
<glyph unicode="&#xea;" glyph-name="ecircumflex" horiz-adv-x="1194" d="M182 185T138 283T93 494T133 702T248 871Q410 1032 651 1032Q829 1032 954 936Q1029 878 1092 768Q1118 722 1118 695Q1118 651 1072 635Q806 538 508 466L345 427Q380 271 490 180Q595
92 729 92Q856 92 969 173Q1004 198 1022 223T1049 258T1072 267Q1100 267 1100 241Q1100 206 1065 158T986 77T889 20Q786 -24 664 -24T438 12T259 116ZM333 511Q673 596 855 660Q879 668 879 688T871 733T848 787T811 842T760 892Q696 940 630 940T511 917T418
845Q332 742 332 552V531Q332 521 333 511ZM391 1216Q360 1195 342 1195Q311 1195 311 1220Q311 1240 328 1259L547 1507Q606 1574 623 1579T650 1585T671 1582T695 1570Q722 1551 759 1507L978 1259Q995 1240 995 1220Q995 1212 989 1204T972 1195Q946 1195 915
1216L652 1385L391 1216Z" />
<glyph unicode="&#xeb;" glyph-name="edieresis" horiz-adv-x="1194" d="M182 185T138 283T93 494T133 702T248 871Q410 1032 651 1032Q829 1032 954 936Q1029 878 1092 768Q1118 722 1118 695Q1118 651 1072 635Q806 538 508 466L345 427Q380 271 490 180Q595
92 729 92Q856 92 969 173Q1004 198 1022 223T1049 258T1072 267Q1100 267 1100 241Q1100 206 1065 158T986 77T889 20Q786 -24 664 -24T438 12T259 116ZM333 511Q673 596 855 660Q879 668 879 688T871 733T848 787T811 842T760 892Q696 940 630 940T511 917T418
845Q332 742 332 552V531Q332 521 333 511ZM980 1245T953 1233T890 1220T827 1233T782 1267Q748 1307 748 1353T758 1426T788 1474Q830 1517 881 1517T959 1504T1004 1470Q1039 1428 1039 1383T1029 1312T999 1266ZM500 1245T473 1233T410 1220T347 1233T302 1267Q268
1307 268 1353T278 1426T308 1474Q350 1517 401 1517T479 1504T524 1470Q559 1428 559 1383T549 1312T519 1266Z" />
<glyph unicode="&#xec;" glyph-name="igrave" horiz-adv-x="855" d="M238 0Q143 0 143 45Q143 73 176 73L225 66Q284 66 304 118Q334 199 334 348V639Q334 834 290 892Q270 918 242 926T187 938T145 948T130 970Q130 1009 190 1009L335 997Q354 997 372 999L446
1007Q465 1009 483 1009T515 1006T538 990Q559 964 559 887V348Q559 208 569 172T590 112Q612 66 675 66L724 73Q756 73 756 45Q756 0 657 0Q628 0 611 2T578 6L547 10Q531 11 513 12T477 14T444 15Q429 15 410 14L372 12Q337 10 316 7Q268 0 238 0ZM335 1327Q221
1384 204 1444Q199 1462 199 1489T224 1538T277 1561T324 1558T365 1542Q409 1518 466 1447L626 1248Q643 1228 643 1218Q643 1190 616 1190Q601 1190 573 1205L335 1327Z" />
<glyph unicode="&#xed;" glyph-name="iacute" horiz-adv-x="855" d="M238 0Q143 0 143 45Q143 73 176 73L225 66Q284 66 304 118Q334 199 334 348V639Q334 834 290 892Q270 918 242 926T187 938T145 948T130 970Q130 1009 190 1009L335 997Q354 997 372 999L446
1007Q465 1009 483 1009T515 1006T538 990Q559 964 559 887V348Q559 208 569 172T590 112Q612 66 675 66L724 73Q756 73 756 45Q756 0 657 0Q628 0 611 2T578 6L547 10Q531 11 513 12T477 14T444 15Q429 15 410 14L372 12Q337 10 316 7Q268 0 238 0ZM269 1205Q241
1190 227 1190T206 1198T199 1217T216 1248L376 1447Q433 1518 465 1536Q511 1561 551 1561T617 1539T643 1489T638 1445T619 1408Q585 1366 507 1327L269 1205Z" />
<glyph unicode="&#xee;" glyph-name="icircumflex" horiz-adv-x="855" d="M238 0Q143 0 143 45Q143 73 176 73L225 66Q284 66 304 118Q334 199 334 348V639Q334 834 290 892Q270 918 242 926T187 938T145 948T130 970Q130 1009 190 1009L335 997Q354 997 372 999L446
1007Q465 1009 483 1009T515 1006T538 990Q559 964 559 887V348Q559 208 569 172T590 112Q612 66 675 66L724 73Q756 73 756 45Q756 0 657 0Q628 0 611 2T578 6L547 10Q531 11 513 12T477 14T444 15Q429 15 410 14L372 12Q337 10 316 7Q268 0 238 0ZM416 1216Q385
1195 367 1195Q336 1195 336 1220Q336 1240 353 1259L572 1507Q631 1574 648 1579T675 1585T696 1582T720 1570Q747 1551 784 1507L1003 1259Q1020 1240 1020 1220Q1020 1212 1014 1204T997 1195Q971 1195 940 1216L677 1385L416 1216Z" />
<glyph unicode="&#xef;" glyph-name="idieresis" horiz-adv-x="855" d="M238 0Q143 0 143 45Q143 73 176 73L225 66Q284 66 304 118Q334 199 334 348V639Q334 834 290 892Q270 918 242 926T187 938T145 948T130 970Q130 1009 190 1009L335 997Q354 997 372 999L446
1007Q465 1009 483 1009T515 1006T538 990Q559 964 559 887V348Q559 208 569 172T590 112Q612 66 675 66L724 73Q756 73 756 45Q756 0 657 0Q628 0 611 2T578 6L547 10Q531 11 513 12T477 14T444 15Q429 15 410 14L372 12Q337 10 316 7Q268 0 238 0ZM1005 1245T978
1233T915 1220T852 1233T807 1267Q773 1307 773 1353T783 1426T813 1474Q855 1517 906 1517T984 1504T1029 1470Q1064 1428 1064 1383T1054 1312T1024 1266ZM525 1245T498 1233T435 1220T372 1233T327 1267Q293 1307 293 1353T303 1426T333 1474Q375 1517 426 1517T504
1504T549 1470Q584 1428 584 1383T574 1312T544 1266Z" />
<glyph unicode="&#xf0;" glyph-name="eth" horiz-adv-x="1355" d="M981 1349Q1243 1059 1243 666Q1243 354 1076 162Q916 -20 675 -20Q426 -20 275 114Q121 250 121 477Q121 695 272 838T655 982Q830 982 976 891Q929 1132 804 1293L531 1206Q472 1187 449 1187T413
1200T400 1234Q400 1271 459 1291L729 1377Q570 1530 304 1619Q243 1638 243 1670T292 1703Q357 1703 474 1667Q714 1593 897 1431L1145 1510Q1214 1533 1240 1533T1279 1520T1292 1488Q1292 1447 1211 1422L981 1349ZM351 518Q351 432 379 350T456 206Q560 74
710 74Q923 71 987 323Q1008 406 1008 502T983 667T913 786Q818 890 670 890Q518 890 432 785Q351 686 351 518Z" />
<glyph unicode="&#xf1;" glyph-name="ntilde" horiz-adv-x="1532" d="M219 0Q124 0 124 45Q124 73 157 73L206 66Q265 66 285 118Q315 199 315 348V639Q315 834 271 892Q251 918 223 926T168 938T126 948T111 970Q111 1009 171 1009L316 997Q335 997 353 999L427
1007Q446 1009 464 1009T496 1006T520 990Q540 964 540 887V849Q706 1032 929 1032Q1123 1032 1208 912Q1273 822 1273 674V348Q1273 216 1283 176T1301 114T1331 79T1374 66L1426 73Q1457 73 1457 46Q1457 0 1366 0Q1340 0 1301 6Q1195 21 1139 16L1068 10Q1051
8 1032 6Q989 0 960 0Q860 0 860 45Q860 73 893 73L945 66Q1035 66 1044 207Q1048 261 1048 348V636Q1048 820 944 888Q903 914 848 914T751 900T670 863Q597 819 540 744V348Q540 208 550 172T571 112Q593 66 656 66L705 73Q737 73 737 45Q737 0 638 0Q609 0 592
2T559 6L528 10Q512 11 494 12T458 14T425 15Q410 15 390 14L352 12Q318 10 297 7Q249 0 219 0ZM1122 1498Q1145 1498 1145 1475T1139 1432T1121 1391Q1065 1290 986 1250Q957 1236 921 1236Q845 1236 738 1293Q658 1336 638 1339T599 1343Q563 1343 518 1278Q490
1238 470 1238Q447 1238 447 1267Q447 1338 531 1427Q600 1500 676 1500Q736 1500 775 1482T845 1448T900 1420T941 1402Q965 1393 985 1393Q1030 1393 1074 1458Q1102 1498 1122 1498Z" />
<glyph unicode="&#xf2;" glyph-name="ograve" horiz-adv-x="1366" d="M123 527Q123 611 166 707T286 876Q449 1032 684 1032Q953 1032 1108 870Q1242 729 1242 522Q1242 284 1100 134Q949 -24 688 -24Q312 -24 176 260Q123 371 123 527ZM401 794T380 728T359 568T390
379T474 214Q587 64 734 64Q846 64 922 160Q1002 260 1002 397T969 633T883 800T763 905T634 941T523 915T438 841ZM596 1327Q482 1384 465 1444Q460 1462 460 1489T485 1538T538 1561T585 1558T626 1542Q670 1518 727 1447L887 1248Q904 1228 904 1218Q904 1190
877 1190Q862 1190 834 1205L596 1327Z" />
<glyph unicode="&#xf3;" glyph-name="oacute" horiz-adv-x="1366" d="M123 527Q123 611 166 707T286 876Q449 1032 684 1032Q953 1032 1108 870Q1242 729 1242 522Q1242 284 1100 134Q949 -24 688 -24Q312 -24 176 260Q123 371 123 527ZM401 794T380 728T359 568T390
379T474 214Q587 64 734 64Q846 64 922 160Q1002 260 1002 397T969 633T883 800T763 905T634 941T523 915T438 841ZM530 1205Q502 1190 488 1190T467 1198T460 1217T477 1248L637 1447Q694 1518 726 1536Q772 1561 812 1561T878 1539T904 1489T899 1445T880 1408Q846
1366 768 1327L530 1205Z" />
<glyph unicode="&#xf4;" glyph-name="ocircumflex" horiz-adv-x="1366" d="M123 527Q123 611 166 707T286 876Q449 1032 684 1032Q953 1032 1108 870Q1242 729 1242 522Q1242 284 1100 134Q949 -24 688 -24Q312 -24 176 260Q123 371 123 527ZM401 794T380 728T359
568T390 379T474 214Q587 64 734 64Q846 64 922 160Q1002 260 1002 397T969 633T883 800T763 905T634 941T523 915T438 841ZM420 1216Q389 1195 371 1195Q340 1195 340 1220Q340 1240 357 1259L576 1507Q635 1574 652 1579T679 1585T700 1582T724 1570Q751 1551
788 1507L1007 1259Q1024 1240 1024 1220Q1024 1212 1018 1204T1001 1195Q975 1195 944 1216L681 1385L420 1216Z" />
<glyph unicode="&#xf5;" glyph-name="otilde" horiz-adv-x="1366" d="M123 527Q123 611 166 707T286 876Q449 1032 684 1032Q953 1032 1108 870Q1242 729 1242 522Q1242 284 1100 134Q949 -24 688 -24Q312 -24 176 260Q123 371 123 527ZM401 794T380 728T359 568T390
379T474 214Q587 64 734 64Q846 64 922 160Q1002 260 1002 397T969 633T883 800T763 905T634 941T523 915T438 841ZM1008 1498Q1031 1498 1031 1475T1025 1432T1007 1391Q951 1290 872 1250Q843 1236 807 1236Q731 1236 624 1293Q544 1336 524 1339T485 1343Q449
1343 404 1278Q376 1238 356 1238Q333 1238 333 1267Q333 1338 417 1427Q486 1500 562 1500Q622 1500 661 1482T731 1448T786 1420T827 1402Q851 1393 871 1393Q916 1393 960 1458Q988 1498 1008 1498Z" />
<glyph unicode="&#xf6;" glyph-name="odieresis" horiz-adv-x="1366" d="M123 527Q123 611 166 707T286 876Q449 1032 684 1032Q953 1032 1108 870Q1242 729 1242 522Q1242 284 1100 134Q949 -24 688 -24Q312 -24 176 260Q123 371 123 527ZM401 794T380 728T359
568T390 379T474 214Q587 64 734 64Q846 64 922 160Q1002 260 1002 397T969 633T883 800T763 905T634 941T523 915T438 841ZM1009 1245T982 1233T919 1220T856 1233T811 1267Q777 1307 777 1353T787 1426T817 1474Q859 1517 910 1517T988 1504T1033 1470Q1068 1428
1068 1383T1058 1312T1028 1266ZM529 1245T502 1233T439 1220T376 1233T331 1267Q297 1307 297 1353T307 1426T337 1474Q379 1517 430 1517T508 1504T553 1470Q588 1428 588 1383T578 1312T548 1266Z" />
<glyph unicode="&#xf7;" glyph-name="divide" horiz-adv-x="1285" d="M730 896T703 884T640 871T577 884T532 918Q498 958 498 1004T508 1077T538 1125Q580 1168 631 1168T709 1155T754 1120Q789 1079 789 1034T779 963T749 917ZM150 712H1135V575H150V712ZM514
187T506 213T498 268T508 325T538 373Q580 416 631 416T709 403T754 368Q789 327 789 282T779 211T749 164Q707 119 656 119T577 132T532 166Z" />
<glyph unicode="&#xf8;" glyph-name="oslash" horiz-adv-x="1366" d="M1030 61T927 19T687 -24T437 19L310 -170Q276 -218 247 -218Q188 -218 188 -168Q188 -143 220 -94L333 73Q229 144 172 270Q123 377 123 494T166 707T286 876Q449 1032 684 1032Q830 1032
949 981L1082 1177Q1104 1208 1118 1217T1152 1227T1187 1216T1202 1183Q1202 1150 1166 1098L1048 923Q1192 812 1230 633Q1242 577 1242 492T1206 308T1100 135ZM851 836Q748 941 629 941Q515 941 438 841Q359 740 359 584Q359 396 451 247L851 836ZM528 154Q624
64 734 64Q846 64 922 160Q1002 260 1002 411Q1002 596 923 739L528 154Z" />
<glyph unicode="&#xf9;" glyph-name="ugrave" horiz-adv-x="1532" d="M983 114Q845 -24 662 -24Q493 -24 382 73Q271 171 271 322V665Q271 852 255 892T214 939T163 946L107 939Q75 939 75 964Q75 1012 168 1012L321 1003Q334 1003 346 1004L371 1006Q398 1009
423 1009T461 1004T482 982Q496 953 496 864V321Q496 145 626 100Q667 86 716 86Q849 86 983 222V664Q983 852 967 892T926 939T875 946L819 939Q787 939 787 964Q787 1012 880 1012L1033 1003Q1046 1003 1058 1004L1083 1006Q1110 1009 1135 1009T1173 1004T1194
982Q1208 951 1208 863V345Q1208 157 1224 117T1265 70T1316 63L1372 70Q1404 70 1404 45Q1404 -3 1311 -3L1158 6Q1145 6 1133 5L1108 3Q1081 0 1059 0T1025 5T1004 23Q987 50 983 114ZM603 1327Q489 1384 472 1444Q467 1462 467 1489T492 1538T545 1561T592 1558T633
1542Q677 1518 734 1447L894 1248Q911 1228 911 1218Q911 1190 884 1190Q869 1190 841 1205L603 1327Z" />
<glyph unicode="&#xfa;" glyph-name="uacute" horiz-adv-x="1532" d="M983 114Q845 -24 662 -24Q493 -24 382 73Q271 171 271 322V665Q271 852 255 892T214 939T163 946L107 939Q75 939 75 964Q75 1012 168 1012L321 1003Q334 1003 346 1004L371 1006Q398 1009
423 1009T461 1004T482 982Q496 953 496 864V321Q496 145 626 100Q667 86 716 86Q849 86 983 222V664Q983 852 967 892T926 939T875 946L819 939Q787 939 787 964Q787 1012 880 1012L1033 1003Q1046 1003 1058 1004L1083 1006Q1110 1009 1135 1009T1173 1004T1194
982Q1208 951 1208 863V345Q1208 157 1224 117T1265 70T1316 63L1372 70Q1404 70 1404 45Q1404 -3 1311 -3L1158 6Q1145 6 1133 5L1108 3Q1081 0 1059 0T1025 5T1004 23Q987 50 983 114ZM537 1205Q509 1190 495 1190T474 1198T467 1217T484 1248L644 1447Q701 1518
733 1536Q779 1561 819 1561T885 1539T911 1489T906 1445T887 1408Q853 1366 775 1327L537 1205Z" />
<glyph unicode="&#xfb;" glyph-name="ucircumflex" horiz-adv-x="1532" d="M983 114Q845 -24 662 -24Q493 -24 382 73Q271 171 271 322V665Q271 852 255 892T214 939T163 946L107 939Q75 939 75 964Q75 1012 168 1012L321 1003Q334 1003 346 1004L371 1006Q398
1009 423 1009T461 1004T482 982Q496 953 496 864V321Q496 145 626 100Q667 86 716 86Q849 86 983 222V664Q983 852 967 892T926 939T875 946L819 939Q787 939 787 964Q787 1012 880 1012L1033 1003Q1046 1003 1058 1004L1083 1006Q1110 1009 1135 1009T1173 1004T1194
982Q1208 951 1208 863V345Q1208 157 1224 117T1265 70T1316 63L1372 70Q1404 70 1404 45Q1404 -3 1311 -3L1158 6Q1145 6 1133 5L1108 3Q1081 0 1059 0T1025 5T1004 23Q987 50 983 114ZM427 1216Q396 1195 378 1195Q347 1195 347 1220Q347 1240 364 1259L583 1507Q642
1574 659 1579T686 1585T707 1582T731 1570Q758 1551 795 1507L1014 1259Q1031 1240 1031 1220Q1031 1212 1025 1204T1008 1195Q982 1195 951 1216L688 1385L427 1216Z" />
<glyph unicode="&#xfc;" glyph-name="udieresis" horiz-adv-x="1532" d="M983 114Q845 -24 662 -24Q493 -24 382 73Q271 171 271 322V665Q271 852 255 892T214 939T163 946L107 939Q75 939 75 964Q75 1012 168 1012L321 1003Q334 1003 346 1004L371 1006Q398 1009
423 1009T461 1004T482 982Q496 953 496 864V321Q496 145 626 100Q667 86 716 86Q849 86 983 222V664Q983 852 967 892T926 939T875 946L819 939Q787 939 787 964Q787 1012 880 1012L1033 1003Q1046 1003 1058 1004L1083 1006Q1110 1009 1135 1009T1173 1004T1194
982Q1208 951 1208 863V345Q1208 157 1224 117T1265 70T1316 63L1372 70Q1404 70 1404 45Q1404 -3 1311 -3L1158 6Q1145 6 1133 5L1108 3Q1081 0 1059 0T1025 5T1004 23Q987 50 983 114ZM1016 1245T989 1233T926 1220T863 1233T818 1267Q784 1307 784 1353T794
1426T824 1474Q866 1517 917 1517T995 1504T1040 1470Q1075 1428 1075 1383T1065 1312T1035 1266ZM536 1245T509 1233T446 1220T383 1233T338 1267Q304 1307 304 1353T314 1426T344 1474Q386 1517 437 1517T515 1504T560 1470Q595 1428 595 1383T585 1312T555 1266Z"
/>
<glyph unicode="&#xfd;" glyph-name="yacute" horiz-adv-x="1366" d="M1316 936L1260 944Q1201 944 1154 887Q1107 830 1045 677L713 -137Q568 -438 429 -488Q389 -503 344 -503T256 -490T183 -453Q122 -406 122 -336Q122 -304 140 -283T186 -262T230 -277T264
-321T290 -362T313 -384Q335 -400 368 -400T425 -390T478 -344Q539 -270 638 -59L639 -55L264 721Q173 907 116 934Q98 943 81 943L25 936Q-7 936 -7 958Q-7 1009 85 1009L281 993L547 1009Q619 1009 636 978Q640 969 640 961Q640 936 608 936L532 945Q460 945
460 890Q460 865 480 821L744 208L972 780Q1003 862 1003 900Q1003 945 940 945L858 936Q826 936 826 958Q826 1009 917 1009Q943 1009 968 1006L1019 1000Q1075 993 1111 993T1184 1001T1263 1009Q1305 1009 1326 995T1348 959T1316 936ZM593 1205Q565 1190 551
1190T530 1198T523 1217T540 1248L700 1447Q757 1518 789 1536Q835 1561 875 1561T941 1539T967 1489T962 1445T943 1408Q909 1366 831 1327L593 1205Z" />
<glyph unicode="&#xfe;" glyph-name="thorn" horiz-adv-x="1364" d="M50 -457L99 -464Q158 -464 178 -412Q208 -331 208 -182V1158Q208 1353 164 1411Q144 1437 116 1445T61 1457T19 1467T4 1489Q4 1528 64 1528L209 1516Q228 1516 246 1518L320 1526Q339 1528
357 1528T389 1525T412 1510Q433 1483 433 1406V948Q556 1032 699 1032T945 996T1120 892Q1268 751 1268 505Q1268 286 1112 132Q954 -24 724 -24Q549 -24 433 50V-182Q433 -322 443 -358T464 -418Q486 -464 549 -464L598 -457Q630 -457 630 -485Q630 -530 531
-530L318 -515Q303 -515 284 -516L246 -518Q211 -520 190 -523Q142 -530 112 -530Q17 -530 17 -485Q17 -457 50 -457ZM669 941Q543 941 433 841V236Q488 114 627 78Q668 68 728 68T849 100T952 185Q1038 294 1038 455Q1038 674 933 809Q830 941 669 941Z" />
<glyph unicode="&#xff;" glyph-name="ydieresis" horiz-adv-x="1366" d="M1316 936L1260 944Q1201 944 1154 887Q1107 830 1045 677L713 -137Q568 -438 429 -488Q389 -503 344 -503T256 -490T183 -453Q122 -406 122 -336Q122 -304 140 -283T186 -262T230 -277T264
-321T290 -362T313 -384Q335 -400 368 -400T425 -390T478 -344Q539 -270 638 -59L639 -55L264 721Q173 907 116 934Q98 943 81 943L25 936Q-7 936 -7 958Q-7 1009 85 1009L281 993L547 1009Q619 1009 636 978Q640 969 640 961Q640 936 608 936L532 945Q460 945
460 890Q460 865 480 821L744 208L972 780Q1003 862 1003 900Q1003 945 940 945L858 936Q826 936 826 958Q826 1009 917 1009Q943 1009 968 1006L1019 1000Q1075 993 1111 993T1184 1001T1263 1009Q1305 1009 1326 995T1348 959T1316 936ZM1072 1245T1045 1233T982
1220T919 1233T874 1267Q840 1307 840 1353T850 1426T880 1474Q922 1517 973 1517T1051 1504T1096 1470Q1131 1428 1131 1383T1121 1312T1091 1266ZM592 1245T565 1233T502 1220T439 1233T394 1267Q360 1307 360 1353T370 1426T400 1474Q442 1517 493 1517T571
1504T616 1470Q651 1428 651 1383T641 1312T611 1266Z" />
<glyph unicode="&#x2013;" glyph-name="endash" horiz-adv-x="1066" d="M993 690Q1066 690 1066 622Q1066 590 1047 572T995 553H71Q39 553 20 571T0 622Q0 690 73 690H993Z" />
<glyph unicode="&#x2014;" glyph-name="emdash" horiz-adv-x="1647" d="M1494 690Q1567 690 1567 622Q1567 590 1548 572T1496 553H151Q119 553 100 571T80 622Q80 690 153 690H1494Z" />
<glyph unicode="&#x2018;" glyph-name="quoteleft" horiz-adv-x="512" d="M272 955Q187 955 139 1014T90 1189Q90 1316 182 1439Q274 1561 369 1561Q418 1561 418 1521Q418 1493 377 1475T308 1436T263 1392Q226 1345 229 1313T245 1266T311 1236Q421 1203 421
1099Q421 1003 334 966Q307 955 272 955Z" />
<glyph unicode="&#x2019;" glyph-name="quoteright" horiz-adv-x="512" d="M239 1561Q324 1561 372 1502T421 1327Q421 1200 329 1077Q237 955 142 955Q93 955 93 995Q93 1023 134 1041T203 1080T248 1124Q285 1171 282 1203T266 1250T200 1280Q90 1313 90 1417Q90
1513 177 1550Q204 1561 239 1561Z" />
<glyph unicode="&#x201a;" glyph-name="quotesinglbase" horiz-adv-x="512" d="M239 214Q324 214 372 155T421 -20Q421 -147 329 -270Q237 -392 142 -392Q93 -392 93 -352Q93 -324 134 -306T203 -267T248 -223Q285 -176 282 -144T266 -97T200 -67Q90 -34 90 70Q90
166 177 203Q204 214 239 214Z" />
<glyph unicode="&#x201c;" glyph-name="quotedblleft" horiz-adv-x="1030" d="M291 955Q206 955 158 1014T109 1189Q109 1316 201 1439Q293 1561 388 1561Q437 1561 437 1521Q437 1493 396 1475T327 1436T282 1392Q245 1345 248 1313T264 1266T330 1236Q440 1203
440 1099Q440 1003 353 966Q326 955 291 955ZM771 955Q686 955 638 1014T589 1189Q589 1316 681 1439Q773 1561 868 1561Q917 1561 917 1521Q917 1493 876 1475T807 1436T762 1392Q725 1345 728 1313T744 1266T810 1236Q920 1203 920 1099Q920 1003 833 966Q806
955 771 955Z" />
<glyph unicode="&#x201d;" glyph-name="quotedblright" horiz-adv-x="1030" d="M248 1561Q333 1561 381 1502T430 1327Q430 1200 338 1077Q246 955 151 955Q102 955 102 995Q102 1023 143 1041T212 1080T257 1124Q294 1171 291 1203T275 1250T209 1280Q99 1313
99 1417Q99 1513 186 1550Q213 1561 248 1561ZM728 1561Q813 1561 861 1502T910 1327Q910 1200 818 1077Q726 955 631 955Q582 955 582 995Q582 1023 623 1041T692 1080T737 1124Q774 1171 771 1203T755 1250T689 1280Q579 1313 579 1417Q579 1513 666 1550Q693
1561 728 1561Z" />
<glyph unicode="&#x201e;" glyph-name="quotedblbase" horiz-adv-x="1030" d="M248 212Q333 212 381 153T430 -22Q430 -149 338 -272Q246 -394 151 -394Q102 -394 102 -354Q102 -326 143 -308T212 -269T257 -225Q294 -178 291 -146T275 -99T209 -69Q99 -36 99
68Q99 164 186 201Q213 212 248 212ZM728 212Q813 212 861 153T910 -22Q910 -149 818 -272Q726 -394 631 -394Q582 -394 582 -354Q582 -326 623 -308T692 -269T737 -225Q774 -178 771 -146T755 -99T689 -69Q579 -36 579 68Q579 164 666 201Q693 212 728 212Z" />
<glyph unicode="&#x2022;" glyph-name="bullet" horiz-adv-x="689" d="M340 420Q288 420 248 439T181 488Q130 547 130 626Q130 713 190 776Q252 842 348 842Q448 842 507 770Q559 706 559 622Q559 550 500 488Q436 420 340 420Z" />
<glyph unicode="&#x2039;" glyph-name="guilsinglleft" horiz-adv-x="692" d="M94 503T87 508T80 523Q80 536 110 552T193 604T303 688Q440 801 520 905L541 933Q562 962 574 962Q592 962 592 934T574 860T524 756Q451 626 350 523Q451 420 524 290Q592 169 592
127T574 84Q562 84 548 104L520 141Q440 245 303 358Q189 453 142 478Z" />
<glyph unicode="&#x203a;" glyph-name="guilsinglright" horiz-adv-x="692" d="M598 503T605 508T612 523Q612 536 582 552T499 604T389 688Q252 801 172 905L151 933Q130 962 118 962Q100 962 100 934T118 860T168 756Q241 626 342 523Q241 420 168 290Q100 169
100 127T118 84Q130 84 144 104L172 141Q252 245 389 358Q503 453 550 478Z" />
</font>
</defs>
</svg>
