<?xml version="1.0" standalone="no"?>
<!DOCTYPE svg PUBLIC "-//W3C//DTD SVG 1.1//EN" "http://www.w3.org/Graphics/SVG/1.1/DTD/svg11.dtd">
<svg xmlns="http://www.w3.org/2000/svg">
<defs >
<font id="RopaSans" horiz-adv-x="437" ><font-face
    font-family="Ropa Sans"
    units-per-em="1000"
    panose-1="0 0 5 0 0 0 0 0 0 0"
    ascent="841"
    descent="-231"
    alphabetic="0" />
<glyph unicode=" " glyph-name="space" horiz-adv-x="180" />
<glyph unicode="!" glyph-name="exclam" horiz-adv-x="211" d="M153 695L146 200H65L58 695H153ZM132 108T146 96T161 62V33Q161 11 147 0T105 -12Q79 -12 65 -1T50 33V62Q50 84 64 96T105 108Q132 108 146 96Z" />
<glyph unicode="&quot;" glyph-name="quotedbl" horiz-adv-x="315" d="M130 683V429H45V683H130ZM270 683V429H185V683H270Z" />
<glyph unicode="#" glyph-name="numbersign" horiz-adv-x="556" d="M441 613V488H521V418H441V195H521V125H441V0H356V125H200V0H115V125H35V195H115V418H35V488H115V613H200V488H356V613H441ZM356 418H200V195H356V418Z" />
<glyph unicode="$" glyph-name="dollar" horiz-adv-x="441" d="M267 612Q296 610 331 605T376 599L374 526Q300 540 243 540Q179 540 152 519T125 454V434Q125 408 130 394T151 370T201 349L264 330Q322 313 353 293T398 241T411 160V155Q411 85 378 45T267 -7V-94H192V-12Q163
-11 130 -6T65 5L67 78Q143 61 198 61Q268 61 297 82T326 147V167Q326 190 320 203T295 227T239 249L177 268Q122 285 93 304T52 355T40 441V446Q40 520 76 560T192 610V695H267V612Z" />
<glyph unicode="%" glyph-name="percent" horiz-adv-x="860" d="M281 625T320 584T360 465V435Q360 358 321 317T203 275Q125 275 85 316T45 435V465Q45 542 85 583T203 625Q281 625 320 584ZM649 613L314 0H227L562 613H649ZM166 550T148 530T130 465V435Q130
391 148 371T203 350Q240 350 257 370T275 435V465Q275 510 258 530T203 550Q166 550 148 530ZM751 338T790 297T830 178V148Q830 71 791 30T673 -12Q595 -12 555 29T515 148V178Q515 255 555 296T673 338Q751 338 790 297ZM636 263T618 243T600 178V148Q600 104
618 84T673 63Q710 63 727 83T745 148V178Q745 223 728 243T673 263Q636 263 618 243Z" />
<glyph unicode="&amp;" glyph-name="ampersand" horiz-adv-x="540" d="M297 667T368 656L366 585Q304 596 250 596Q148 596 148 500V478Q148 426 180 397T273 367H374V440H456V367H530V298H456V13Q385 -2 351 -7T273 -12Q148 -12 94 33T40 162V184Q40 240 70 281T157
340Q65 380 65 485V507Q65 577 113 622T250 667Q297 667 368 656ZM267 298Q196 298 161 269T125 188V161Q125 112 161 86T273 60Q316 60 374 73V298H267Z" />
<glyph unicode="&apos;" glyph-name="quotesingle" horiz-adv-x="175" d="M130 683V429H45V683H130Z" />
<glyph unicode="(" glyph-name="parenleft" horiz-adv-x="231" d="M241 672Q202 669 185 663T161 639T155 582V59Q155 21 160 4T183 -21T241 -31V-101Q168 -101 133 -86T84 -32T70 83V558Q70 635 83 673T132 726T241 742V672Z" />
<glyph unicode=")" glyph-name="parenright" horiz-adv-x="231" d="M63 749T98 734T147 680T161 565V90Q161 13 148 -25T99 -78T-10 -94V-24Q30 -22 47 -15T70 10T76 66V589Q76 628 70 645T47 669T-10 679V749Q63 749 98 734Z" />
<glyph unicode="*" glyph-name="asterisk" horiz-adv-x="410" d="M239 695L229 583L332 627L355 561L244 536L318 452L261 411L204 507L147 410L91 452L165 537L55 561L78 627L180 584L170 695H239Z" />
<glyph unicode="+" glyph-name="plus" horiz-adv-x="390" d="M233 488V336H373V265H233V113H157V265H17V336H157V488H233Z" />
<glyph unicode="," glyph-name="comma" horiz-adv-x="220" d="M137 110T151 99T165 65V33Q165 4 158 -18L115 -161H55L91 -8Q56 0 56 35V65Q56 87 70 98T110 110Q137 110 151 99Z" />
<glyph unicode="-" glyph-name="hyphen" horiz-adv-x="350" d="M285 328V263H65V328H285Z" />
<glyph unicode="." glyph-name="period" horiz-adv-x="223" d="M168 110T168 63V34Q168 12 154 0T111 -12Q84 -12 70 0T55 34V63Q55 86 69 98T111 110Q168 110 168 63Z" />
<glyph unicode="/" glyph-name="slash" horiz-adv-x="255" d="M273 683L68 0H-17L188 683H273Z" />
<glyph unicode="0" glyph-name="zero" horiz-adv-x="500" d="M340 613T387 562T435 408V193Q435 91 388 40T250 -12Q160 -12 113 39T65 193V408Q65 510 112 561T250 613Q340 613 387 562ZM150 541T150 416V185Q150 60 250 60Q350 60 350 185V416Q350 541 250 541Q150
541 150 416Z" />
<glyph unicode="1" glyph-name="one" horiz-adv-x="312" d="M237 601V0H152V519H150L17 462L0 535L162 601H237Z" />
<glyph unicode="2" glyph-name="two" horiz-adv-x="387" d="M248 613T294 574T340 457V435Q340 388 324 348T257 248L112 73H347V0H10V65L210 318Q238 353 246 375T255 434V452Q255 500 231 520T151 541Q124 541 89 535T25 519V592Q102 613 151 613Q248 613 294 574Z" />
<glyph unicode="3" glyph-name="three" horiz-adv-x="389" d="M241 613T286 572T331 457V447Q331 401 312 367T254 314Q295 297 319 259T344 173V163Q344 84 297 36T159 -12Q112 -12 30 1V72Q106 59 159 59Q207 59 233 85T259 158V174Q259 276 154 276H65V344H154Q201
344 223 367T246 443V462Q246 543 156 543Q112 543 30 529V600Q112 613 156 613Q241 613 286 572Z" />
<glyph unicode="4" glyph-name="four" horiz-adv-x="421" d="M350 601V199H411V129H350V0H267V129H-5V188L253 601H350ZM268 504L86 199H268V504Z" />
<glyph unicode="5" glyph-name="five" horiz-adv-x="441" d="M358 531H132V336Q189 382 268 382Q337 382 371 342T406 212V176Q406 -12 211 -12Q176 -12 134 -6T60 10V79Q89 73 137 67T209 60Q264 60 292 89T321 176V215Q321 311 247 311Q207 311 177 296T115
246H50V604H358V531Z" />
<glyph unicode="6" glyph-name="six" horiz-adv-x="475" d="M377 533Q254 531 200 493T145 378V322Q216 389 279 389Q351 389 390 345T430 212V173Q430 82 383 35T244 -12Q155 -12 108 37T60 178V362Q60 480 139 542T377 606V533ZM216 315T145 250V173Q145 60
244 60Q345 60 345 168V215Q345 264 324 289T264 315Q216 315 145 250Z" />
<glyph unicode="7" glyph-name="seven" horiz-adv-x="378" d="M366 600V542L142 0H51L275 524V526H5V600H366Z" />
<glyph unicode="8" glyph-name="eight" horiz-adv-x="460" d="M310 613T355 572T401 455V450Q401 406 385 373T336 321Q379 301 402 265T425 178V163Q425 80 375 34T230 -12Q136 -12 86 34T35 163V178Q35 282 124 321Q92 340 76 373T59 450V455Q59 530 104 571T230
613Q310 613 355 572ZM142 547T142 460V441Q142 394 162 374T230 353Q278 353 298 373T318 441V460Q318 505 297 526T230 547Q142 547 142 460ZM178 287T149 259T120 180V155Q120 111 148 85T230 59Q283 59 311 85T340 155V180Q340 231 311 259T230 287Q178 287
149 259Z" />
<glyph unicode="9" glyph-name="nine" horiz-adv-x="475" d="M321 613T368 564T415 422V208Q415 94 365 41T211 -12Q182 -12 144 -7T82 4V75Q112 70 152 65T211 59Q272 59 301 92T330 202V278Q260 211 194 211Q123 211 84 256T45 388V427Q45 517 92 565T231 613Q321
613 368 564ZM130 541T130 432V385Q130 336 151 311T211 285Q259 285 330 350V427Q330 541 231 541Q130 541 130 432Z" />
<glyph unicode=":" glyph-name="colon" horiz-adv-x="221" d="M168 110T168 63V34Q168 12 154 0T111 -12Q84 -12 70 0T55 34V63Q55 86 69 98T111 110Q168 110 168 63ZM168 478T168 431V402Q168 380 154 368T111 356Q84 356 70 368T55 402V431Q55 454 69 466T111
478Q168 478 168 431Z" />
<glyph unicode=";" glyph-name="semicolon" horiz-adv-x="221" d="M137 110T151 99T165 65V33Q165 4 158 -18L115 -161H55L91 -8Q56 0 56 35V65Q56 87 70 98T110 110Q137 110 151 99ZM167 478T167 431V402Q167 380 153 368T110 356Q83 356 69 368T54 402V431Q54
454 68 466T110 478Q167 478 167 431Z" />
<glyph unicode="&lt;" glyph-name="less" horiz-adv-x="390" d="M375 494V411L99 297L375 182V99L15 259V334L375 494Z" />
<glyph unicode="=" glyph-name="equal" horiz-adv-x="420" d="M387 421V351H33V421H387ZM387 250V180H33V250H387Z" />
<glyph unicode="&gt;" glyph-name="greater" horiz-adv-x="390" d="M15 494L375 334V259L15 99V182L291 297L15 411V494Z" />
<glyph unicode="?" glyph-name="question" horiz-adv-x="395" d="M253 695T296 660T340 557V532Q340 487 320 447T253 357L220 321Q204 304 199 290T193 245V200H112V232Q112 281 119 302T152 354L210 422Q237 455 246 477T255 534V556Q255 593 233 610T151 627Q104
627 25 609V679Q103 695 156 695Q253 695 296 660ZM181 108T195 96T210 62V33Q210 11 196 0T154 -12Q128 -12 114 -1T99 33V62Q99 84 113 96T154 108Q181 108 195 96Z" />
<glyph unicode="@" glyph-name="at" horiz-adv-x="930" d="M665 695T767 601T870 318V268Q870 194 845 137T771 48T657 15Q601 15 569 39T531 109Q495 65 455 40T377 15Q322 15 293 48T263 143Q263 161 266 182L284 320Q294 401 335 444T442 488Q475 488 508 472T564
434L569 475H649L608 155Q606 122 616 106T658 90Q693 90 722 113T768 176T785 268V318Q785 466 702 542T455 619Q308 619 227 533T145 288V188Q145 42 223 -33T455 -109H590V-185H455Q60 -185 60 188V288Q60 475 159 585T455 695Q665 695 767 601ZM420 412T397
387T367 308L352 193Q350 181 350 161Q350 91 403 91Q433 91 465 114T527 182L549 363Q531 385 505 398T455 412Q420 412 397 387Z" />
<glyph unicode="A" glyph-name="A" horiz-adv-x="532" d="M318 655L519 0H427L384 152H143L100 0H13L213 655H318ZM264 577L164 228H363L264 577Z" />
<glyph unicode="B" glyph-name="B" horiz-adv-x="528" d="M356 667T411 624T466 507V485Q466 380 374 340Q430 328 461 289T493 191V169Q493 86 435 37T258 -12Q191 -12 75 -6V663Q167 667 251 667Q356 667 411 624ZM202 594T160 591V367H258Q318 367 349 396T381
477V494Q381 544 347 569T238 594Q202 594 160 591ZM160 298V68Q193 65 214 64T258 62Q335 62 371 91T408 174V195Q408 298 264 298H160Z" />
<glyph unicode="C" glyph-name="C" horiz-adv-x="476" d="M322 667T367 660T421 651L419 576Q331 592 283 592Q215 592 185 564T155 471V185Q155 120 184 93T283 65Q331 65 419 81L421 4Q413 3 368 -4T283 -12Q168 -12 119 37T70 190V465Q70 569 119 618T283 667Q322
667 367 660Z" />
<glyph unicode="D" glyph-name="D" horiz-adv-x="571" d="M377 667T441 600T506 405V241Q506 119 442 54T253 -12Q168 -12 75 -6V663Q165 667 258 667Q377 667 441 600ZM222 595T160 593V67Q219 61 253 61Q330 61 375 105T421 234V411Q421 502 377 548T253 595Q222
595 160 593Z" />
<glyph unicode="E" glyph-name="E" horiz-adv-x="485" d="M420 655V578H160V371H400V295H160V77H420V0H75V655H420Z" />
<glyph unicode="F" glyph-name="F" horiz-adv-x="460" d="M420 655V578H160V371H356V295H160V0H75V655H420Z" />
<glyph unicode="G" glyph-name="G" horiz-adv-x="555" d="M320 667T368 661T456 646L454 571Q341 593 283 593Q214 593 185 566T155 474V184Q155 120 184 92T283 63Q328 63 400 77V298H275V378H485V25Q365 -12 283 -12Q168 -12 119 37T70 190V465Q70 571 120 619T283
667Q320 667 368 661Z" />
<glyph unicode="H" glyph-name="H" horiz-adv-x="580" d="M505 655V0H420V300H160V0H75V655H160V376H420V655H505Z" />
<glyph unicode="I" glyph-name="I" horiz-adv-x="235" d="M160 655V0H75V655H160Z" />
<glyph unicode="J" glyph-name="J" horiz-adv-x="287" d="M212 139Q212 62 176 25T59 -12Q43 -12 23 -10T-5 -5V66Q23 61 63 61Q95 61 111 77T127 132V655H212V139Z" />
<glyph unicode="K" glyph-name="K" horiz-adv-x="525" d="M499 655L248 338L525 0H416L160 321V0H75V655H160V339L404 655H499Z" />
<glyph unicode="L" glyph-name="L" horiz-adv-x="450" d="M160 655V75H420V0H75V655H160Z" />
<glyph unicode="M" glyph-name="M" horiz-adv-x="699" d="M546 0L541 538L402 68H297L158 538L153 0H70L76 655H202L350 144L497 655H623L629 0H546Z" />
<glyph unicode="N" glyph-name="N" horiz-adv-x="582" d="M375 0L159 553V0H75V655H211L423 102V655H507V0H375Z" />
<glyph unicode="O" glyph-name="O" horiz-adv-x="576" d="M400 667T453 611T506 452V203Q506 100 453 44T288 -12Q176 -12 123 44T70 203V452Q70 555 123 611T288 667Q400 667 453 611ZM222 592T189 559T155 462V194Q155 130 188 97T288 63Q354 63 387 96T421
194V461Q421 525 388 558T288 592Q222 592 189 559Z" />
<glyph unicode="P" glyph-name="P" horiz-adv-x="511" d="M366 667T423 620T481 484V460Q481 366 425 315T256 264Q211 264 160 272V0H75V662Q160 667 248 667Q366 667 423 620ZM202 595T160 593V345Q220 337 252 337Q396 337 396 464V481Q396 538 360 566T246
595Q202 595 160 593Z" />
<glyph unicode="Q" glyph-name="Q" horiz-adv-x="576" d="M400 667T453 611T506 452V203Q506 75 411 24L526 -6L528 -85H509L313 -11Q306 -12 289 -12Q70 -12 70 203V452Q70 555 123 611T288 667Q400 667 453 611ZM222 592T189 559T155 462V194Q155 130 189 97T289
63Q421 63 421 196V461Q421 525 388 558T288 592Q222 592 189 559Z" />
<glyph unicode="R" glyph-name="R" horiz-adv-x="540" d="M367 667T423 621T479 492V467Q479 409 447 365T355 302L525 0H430L271 284Q263 283 239 283Q199 283 160 286V0H75V663Q187 667 249 667Q367 667 423 621ZM214 595T160 593V357Q214 352 250 352Q394 352
394 469V489Q394 543 359 569T247 595Q214 595 160 593Z" />
<glyph unicode="S" glyph-name="S" horiz-adv-x="461" d="M293 667T380 651L378 576Q296 592 239 592Q181 592 156 569T130 499V473Q130 448 136 434T160 409T211 387L304 356Q371 333 398 295T426 184V165Q426 76 375 32T206 -12Q149 -12 60 8L62 85Q145 65 204
65Q279 65 310 87T341 158V191Q341 226 326 244T271 276L168 310Q99 333 72 369T45 480V491Q45 578 91 622T239 667Q293 667 380 651Z" />
<glyph unicode="T" glyph-name="T" horiz-adv-x="525" d="M495 655V578H305V0H220V578H30V655H495Z" />
<glyph unicode="U" glyph-name="U" horiz-adv-x="576" d="M501 207Q501 101 447 45T288 -12Q184 -12 130 43T75 205V655H160V194Q160 130 193 97T288 63Q350 63 383 96T416 194V655H501V207Z" />
<glyph unicode="V" glyph-name="V" horiz-adv-x="526" d="M513 655L316 0H204L13 655H103L260 82L423 655H513Z" />
<glyph unicode="W" glyph-name="W" horiz-adv-x="848" d="M823 655L672 0H558L424 558L291 0H177L25 655H115L237 93L366 655H482L612 93L733 655H823Z" />
<glyph unicode="X" glyph-name="X" horiz-adv-x="519" d="M495 655L317 336L506 0H403L257 268L111 0H13L205 338L25 655H127L264 405L401 655H495Z" />
<glyph unicode="Y" glyph-name="Y" horiz-adv-x="491" d="M478 655L288 225V0H203V225L13 655H110L246 315L383 655H478Z" />
<glyph unicode="Z" glyph-name="Z" horiz-adv-x="480" d="M435 655V588L139 77H435V0H40V67L336 578H46V655H435Z" />
<glyph unicode="[" glyph-name="bracketleft" horiz-adv-x="260" d="M275 747V677H155V-22H275V-92H70V747H275Z" />
<glyph unicode="\" glyph-name="backslash" horiz-adv-x="255" d="M68 683L273 0H188L-17 683H68Z" />
<glyph unicode="]" glyph-name="bracketright" horiz-adv-x="260" d="M190 747V-92H-15V-22H105V677H-15V747H190Z" />
<glyph unicode="^" glyph-name="asciicircum" horiz-adv-x="495" d="M285 683L430 403H347L247 604L148 403H65L210 683H285Z" />
<glyph unicode="_" glyph-name="underscore" horiz-adv-x="610" d="M545 -120V-185H65V-120H545Z" />
<glyph unicode="`" glyph-name="grave" horiz-adv-x="227" d="M121 685L197 546H125L30 685H121Z" />
<glyph unicode="a" glyph-name="a" horiz-adv-x="449" d="M305 500T344 462T384 339V0H303V78Q245 -12 172 -12Q114 -12 80 28T45 137V165Q45 225 86 264T196 304Q234 304 299 291V346Q299 389 280 408T219 427Q171 427 84 412V485Q178 500 219 500Q305 500 344
462ZM175 238T153 216T131 154V143Q131 106 148 85T191 64Q218 64 246 87T299 154V231Q261 238 217 238Q175 238 153 216Z" />
<glyph unicode="b" glyph-name="b" horiz-adv-x="471" d="M150 423Q176 460 210 480T281 500Q343 500 377 457T411 330V172Q411 81 368 35T235 -12Q147 -12 106 33T65 170V683H150V423ZM232 424T202 402T150 342V160Q150 111 172 85T235 59Q326 59 326 162V318Q326
424 261 424Q232 424 202 402Z" />
<glyph unicode="c" glyph-name="c" horiz-adv-x="390" d="M286 500T343 487L341 412Q283 425 241 425Q194 425 170 399T145 325V164Q145 114 170 89T241 63Q269 63 290 66T341 76L343 1Q282 -12 240 -12Q60 -12 60 170V318Q60 500 241 500Q286 500 343 487Z" />
<glyph unicode="d" glyph-name="d" horiz-adv-x="476" d="M406 0H325V79Q265 -12 188 -12Q126 -12 93 30T60 155V333Q60 412 96 456T201 500Q230 500 262 486T321 450V683H406V0ZM184 424T165 399T145 321V166Q145 64 208 64Q238 64 267 87T321 154V374Q300 396
272 410T220 424Q184 424 165 399Z" />
<glyph unicode="e" glyph-name="e" horiz-adv-x="447" d="M314 500T358 454T402 321V218H145V159Q145 108 169 86T247 63Q299 63 377 79L379 5Q286 -12 246 -12Q147 -12 104 31T60 164V321Q60 408 102 454T230 500Q314 500 358 454ZM191 429T168 405T145 334V286H317V331Q317
379 294 404T230 429Q191 429 168 405Z" />
<glyph unicode="f" glyph-name="f" horiz-adv-x="308" d="M283 695T313 688V620Q283 625 251 625Q220 625 203 605T185 544V488H285V418H185V0H100V418H30V488H100V539Q101 617 139 656T250 695Q283 695 313 688Z" />
<glyph unicode="g" glyph-name="g" horiz-adv-x="476" d="M274 500T310 487L466 489V414L384 416Q401 380 401 341V319Q401 246 356 202T230 157Q178 157 145 167Q123 149 123 126V120Q123 104 133 97T172 87L321 76Q367 72 395 42T424 -35V-72Q424 -115 407 -142T345
-183T214 -197Q182 -197 139 -190T56 -172L59 -93Q152 -124 217 -124Q271 -124 297 -118T332 -98T341 -59V-51Q341 -28 329 -15T293 -1L143 9Q95 12 70 36T45 101V121Q45 143 56 164T90 201Q73 220 66 249T58 322V344Q58 415 102 457T230 500Q274 500 310 487ZM188
429T166 408T143 346V313Q143 276 149 259T173 235T224 228Q270 228 293 250T316 313V343Q316 385 304 416Q292 421 272 425T230 429Q188 429 166 408Z" />
<glyph unicode="h" glyph-name="h" horiz-adv-x="481" d="M155 423Q210 500 283 500Q347 500 381 457T416 333V0H331V321Q331 421 266 421Q237 421 207 399T155 339V0H70V683H155V423Z" />
<glyph unicode="i" glyph-name="i" horiz-adv-x="225" d="M155 488V0H70V488H155ZM139 685T153 673T168 639V610Q168 588 154 577T112 565Q86 565 72 576T57 610V639Q57 661 71 673T112 685Q139 685 153 673Z" />
<glyph unicode="j" glyph-name="j" horiz-adv-x="225" d="M139 685T153 673T168 639V610Q168 588 154 577T112 565Q86 565 72 576T57 610V639Q57 661 71 673T112 685Q139 685 153 673ZM155 -46Q155 -122 119 -159T2 -197Q-13 -197 -30 -195T-58 -191V-120Q-14
-124 6 -124Q39 -124 54 -107T70 -53V488H155V-46Z" />
<glyph unicode="k" glyph-name="k" horiz-adv-x="427" d="M155 683V274L315 488H410L244 274L422 0H320L155 262V0H70V683H155Z" />
<glyph unicode="l" glyph-name="l" horiz-adv-x="225" d="M155 683V0H70V683H155Z" />
<glyph unicode="m" glyph-name="m" horiz-adv-x="741" d="M603 500T637 457T671 333V0H586V321Q586 421 522 421Q494 421 465 399T413 339V0H328V321Q328 421 264 421Q236 421 207 399T155 339V0H70V488H150V415Q176 456 210 478T281 500Q327 500 358 477T403
408Q430 453 465 476T539 500Q603 500 637 457Z" />
<glyph unicode="n" glyph-name="n" horiz-adv-x="486" d="M347 500T381 457T416 333V0H331V321Q331 421 266 421Q237 421 207 399T155 339V0H70V488H150V415Q177 456 210 478T283 500Q347 500 381 457Z" />
<glyph unicode="o" glyph-name="o" horiz-adv-x="472" d="M325 500T368 453T412 318V170Q412 83 369 36T236 -12Q147 -12 104 35T60 170V318Q60 405 103 452T236 500Q325 500 368 453ZM193 429T169 402T145 325V163Q145 113 169 86T236 59Q279 59 303 86T327 163V326Q327
376 303 402T236 429Q193 429 169 402Z" />
<glyph unicode="p" glyph-name="p" horiz-adv-x="475" d="M345 500T380 457T415 333V155Q415 77 375 33T265 -12Q239 -12 210 -2T155 23V-185H70V488H150V417Q205 500 282 500Q345 500 380 457ZM236 424T207 403T155 344V99Q176 82 201 73T248 63Q330 63 330 167V321Q330
424 265 424Q236 424 207 403Z" />
<glyph unicode="q" glyph-name="q" horiz-adv-x="476" d="M231 500T264 485T325 447V488H406V-185H321V73Q262 -12 188 -12Q126 -12 93 30T60 155V333Q60 412 96 456T201 500Q231 500 264 485ZM184 424T165 399T145 321V166Q145 64 208 64Q238 64 267 87T321 154V374Q300
396 272 410T220 424Q184 424 165 399Z" />
<glyph unicode="r" glyph-name="r" horiz-adv-x="325" d="M297 500T305 498V402Q290 405 266 405Q196 405 155 335V0H70V488H150V415Q177 456 210 478T283 500Q297 500 305 498Z" />
<glyph unicode="s" glyph-name="s" horiz-adv-x="382" d="M252 500T311 488L309 416Q257 428 214 428Q124 428 124 370V361Q124 343 133 332T168 309L262 265Q347 225 347 148V126Q346 57 306 23T178 -12Q133 -12 49 9L53 85Q128 63 176 63Q225 63 244 76T263
121V131Q263 155 254 169T222 193L125 236Q81 256 61 284T40 349V363Q42 431 82 465T210 500Q252 500 311 488Z" />
<glyph unicode="t" glyph-name="t" horiz-adv-x="338" d="M170 488H300V418H170V132Q170 94 185 78T234 61Q276 61 316 71L318 0Q274 -12 238 -12Q158 -12 122 23T85 139V418H15V488H85L101 618H170V488Z" />
<glyph unicode="u" glyph-name="u" horiz-adv-x="480" d="M410 0H330V70Q303 30 270 9T200 -12Q139 -12 105 30T70 155V488H155V170Q155 117 171 92T217 67Q244 67 273 88T325 148V488H410V0Z" />
<glyph unicode="v" glyph-name="v" horiz-adv-x="432" d="M422 488L271 0H160L10 488H100L216 62L332 488H422Z" />
<glyph unicode="w" glyph-name="w" horiz-adv-x="678" d="M658 488L545 0H438L339 414L239 0H132L20 488H110L189 75L284 488H394L488 75L568 488H658Z" />
<glyph unicode="x" glyph-name="x" horiz-adv-x="421" d="M405 488L262 254L416 0H319L209 191L102 0H5L157 251L15 488H112L211 313L311 488H405Z" />
<glyph unicode="y" glyph-name="y" horiz-adv-x="436" d="M426 488L202 -185H117L181 0H149L10 488H103L208 61L338 488H426Z" />
<glyph unicode="z" glyph-name="z" horiz-adv-x="401" d="M361 488V425L135 73H361V0H35V63L262 415H40V488H361Z" />
<glyph unicode="{" glyph-name="braceleft" horiz-adv-x="256" d="M266 677Q228 677 210 671T186 646T180 588V442Q180 391 167 365T122 327Q152 317 166 290T180 212V67Q180 27 187 9T211 -16T266 -22V-92Q194 -92 159 -79T109 -28T95 88V212Q95 258 81 275T30
292H5V362H30Q66 362 80 379T95 442V567Q95 645 110 683T160 734T266 747V677Z" />
<glyph unicode="|" glyph-name="bar" horiz-adv-x="225" d="M155 758V-104H70V758H155Z" />
<glyph unicode="}" glyph-name="braceright" horiz-adv-x="256" d="M62 747T97 734T147 683T162 567V442Q162 397 176 380T227 362H252V292H227Q191 292 177 275T162 212V88Q162 10 148 -27T99 -78T-9 -92V-22Q28 -22 45 -16T70 8T77 67V212Q77 263 91 290T135
327Q104 338 91 364T77 442V588Q77 627 71 645T47 670T-9 677V747Q62 747 97 734Z" />
<glyph unicode="~" glyph-name="asciitilde" horiz-adv-x="390" d="M142 352T159 349T199 338Q222 331 237 328T274 324Q290 324 312 329T350 341T372 349V279Q369 277 356 270T320 257T272 251Q248 251 231 254T192 265Q171 272 155 275T116 279Q100 279 78 274T40
262T18 254V324Q21 326 34 333T70 346T118 352Q142 352 159 349Z" />
<glyph unicode="&#xa0;" glyph-name="nbspace" horiz-adv-x="180" />
<glyph unicode="&#xa1;" glyph-name="exclamdown" horiz-adv-x="211" d="M79 402T65 414T50 448V477Q50 499 64 510T105 522Q132 522 146 511T161 477V448Q161 426 147 414T105 402Q79 402 65 414ZM153 -185H58L65 310H146L153 -185Z" />
<glyph unicode="&#xa2;" glyph-name="cent" horiz-adv-x="390" d="M260 499Q286 498 338 489L336 414Q306 420 286 422T238 425Q190 425 165 399T140 325V164Q140 114 165 89T238 63Q266 63 286 65T336 74L338 -1Q286 -10 260 -11V-88H185V-7Q55 16 55 170V318Q55
472 185 495V576H260V499Z" />
<glyph unicode="&#xa3;" glyph-name="sterling" horiz-adv-x="397" d="M296 613T347 598V530Q304 543 265 543Q213 543 192 524T170 462V375H265V305H170V184Q170 142 160 116T129 74H392V0H45V60Q85 109 85 166V305H15V375H85V457Q85 537 126 575T252 613Q296
613 347 598Z" />
<glyph unicode="&#xa4;" glyph-name="currency" horiz-adv-x="470" d="M450 467L389 407Q406 372 406 323V303Q406 254 385 213L450 149L394 93L332 156Q292 132 233 132Q176 132 136 154L76 93L20 149L82 210Q59 251 59 303V323Q59 372 78 410L20 467L76 523L130
468Q173 494 233 494Q294 494 338 466L394 523L450 467ZM186 421T164 394T141 323V303Q141 258 163 231T233 204Q280 204 302 231T324 303V323Q324 368 302 394T233 421Q186 421 164 394Z" />
<glyph unicode="&#xa5;" glyph-name="yen" horiz-adv-x="455" d="M460 601L296 259H364V189H270V148H364V78H270V0H185V78H90V148H185V189H90V259H159L-5 601H90L228 280L365 601H460Z" />
<glyph unicode="&#xa6;" glyph-name="brokenbar" horiz-adv-x="225" d="M155 758V388H70V758H155ZM155 266V-104H70V266H155Z" />
<glyph unicode="&#xa7;" glyph-name="section" horiz-adv-x="418" d="M267 695T326 683L324 612Q271 624 226 624Q179 624 161 610T142 564V531Q142 510 151 498T183 476L290 435Q398 394 398 315V284Q398 238 373 205T304 163Q333 152 350 124T368 59V21Q368
-50 327 -84T193 -119Q162 -119 135 -116T70 -104L72 -29Q138 -44 193 -44Q244 -44 262 -32T281 13V46Q281 72 272 87T240 110L133 147Q75 167 50 195T25 268V292Q25 344 53 380T123 421Q92 432 74 460T55 528V556Q55 627 93 661T222 695Q267 695 326 683ZM165
377T139 354T112 294V269Q112 252 125 240T173 216L219 201Q264 203 287 225T311 282V305Q311 349 250 367L213 378Q165 377 139 354Z" />
<glyph unicode="&#xa8;" glyph-name="dieresis" horiz-adv-x="331" d="M106 682T119 671T133 640V611Q133 592 120 581T81 570Q58 570 44 581T30 611V640Q30 660 43 671T81 682Q106 682 119 671ZM274 682T287 671T301 640V611Q301 592 288 581T249 570Q226 570
212 581T198 611V640Q198 660 211 671T249 682Q274 682 287 671Z" />
<glyph unicode="&#xa9;" glyph-name="copyright" horiz-adv-x="646" d="M452 616T514 559T576 404V197Q576 100 514 43T323 -15Q194 -15 132 42T70 197V404Q70 501 132 558T323 616Q452 616 514 559ZM237 550T189 513T141 415V186Q141 125 189 88T323 51Q409 51
457 88T505 186V416Q505 477 457 513T323 550Q237 550 189 513ZM377 480T419 473L417 407Q375 412 341 412Q314 412 299 393T284 333V278Q284 238 299 218T341 197Q375 197 417 202L419 136Q371 129 341 129Q203 129 203 277V333Q203 405 238 442T341 480Q377 480
419 473Z" />
<glyph unicode="&#xaa;" glyph-name="ordfeminine" horiz-adv-x="469" d="M320 667T359 629T399 506V226H318V304Q260 214 187 214Q129 214 95 250T60 348V376Q60 430 101 466T211 503Q249 503 314 490V516Q314 559 295 578T234 597Q186 597 99 582V652Q193 667
234 667Q320 667 359 629ZM191 435T169 416T146 365V354Q146 324 162 307T206 290Q235 290 263 308T314 366V428Q276 435 232 435Q191 435 169 416ZM399 73V0H60V73H399Z" />
<glyph unicode="&#xab;" glyph-name="guillemotleft" horiz-adv-x="488" d="M253 438L160 268L253 98H165L65 268L165 438H253ZM423 438L330 268L423 98H335L235 268L335 438H423Z" />
<glyph unicode="&#xac;" glyph-name="logicalnot" horiz-adv-x="390" d="M375 335V113H299V265H14V335H375Z" />
<glyph unicode="&#xad;" glyph-name="uni00AD" horiz-adv-x="600" d="M285 328V263H65V328H285Z" />
<glyph unicode="&#xae;" glyph-name="registered" horiz-adv-x="528" d="M360 694T404 650T448 521V487Q448 314 264 314Q168 314 124 358T80 487V521Q80 605 124 649T264 694Q360 694 404 650ZM192 650T160 620T128 528V480Q128 419 160 389T264 358Q336 358
368 388T400 480V529Q400 590 368 620T264 650Q192 650 160 620ZM352 618T352 550V540Q352 521 340 505T307 481L359 395H310L266 475H236V395H193V616L265 618Q352 618 352 550ZM250 580T236 578V514Q249 513 270 513Q308 513 308 541V549Q308 566 299 573T268
580Q250 580 236 578Z" />
<glyph unicode="&#xaf;" glyph-name="overscore" horiz-adv-x="275" d="M245 681V606H30V681H245Z" />
<glyph unicode="&#xb0;" glyph-name="degree" horiz-adv-x="390" d="M274 695T314 653T354 528V506Q354 424 314 382T195 339Q116 339 76 382T35 506V528Q35 609 75 652T195 695Q274 695 314 653ZM112 626T112 528V506Q112 408 195 408Q234 408 255 432T277 506V528Q277
626 195 626Q112 626 112 528Z" />
<glyph unicode="&#xb1;" glyph-name="plusminus" horiz-adv-x="390" d="M233 488V336H373V265H233V113H157V265H17V336H157V488H233ZM372 70V0H16V70H372Z" />
<glyph unicode="&#xb2;" glyph-name="uni00B2" horiz-adv-x="400" d="M256 760T291 733T327 652V634Q327 599 314 570T264 501L167 397H328V331H72V391L220 561Q239 583 245 597T251 633V649Q251 674 235 685T179 696Q157 696 130 691T81 679V744Q140 760 179
760Q256 760 291 733Z" />
<glyph unicode="&#xb3;" glyph-name="uni00B3" horiz-adv-x="400" d="M242 760T276 732T311 652V645Q311 612 297 590T251 553Q284 540 302 513T321 452V445Q321 390 283 357T176 323Q138 323 79 332V393Q131 385 178 385Q242 385 242 441V454Q242 487 225 502T166
518H108V577H166Q203 577 218 592T234 639V652Q234 677 220 688T174 699Q144 699 79 689V751Q138 760 174 760Q242 760 276 732Z" />
<glyph unicode="&#xb4;" glyph-name="acute" horiz-adv-x="227" d="M197 685L102 546H30L106 685H197Z" />
<glyph unicode="&#xb5;" glyph-name="uni00B5" horiz-adv-x="480" d="M410 0H330V70Q303 31 271 10T205 -12Q178 -12 152 4V-185H70V488H155V170Q155 117 171 92T217 67Q245 67 274 88T325 148V488H410V0Z" />
<glyph unicode="&#xb6;" glyph-name="paragraph" horiz-adv-x="546" d="M280 -185H194V313H144Q84 313 52 343T20 433V560Q20 618 51 650T144 683H280V-185ZM471 683V-185H385V683H471ZM154 610Q126 610 114 595T102 540V458Q102 419 114 404T154 388H194V610H154Z" />
<glyph unicode="&#xb7;" glyph-name="middot" horiz-adv-x="221" d="M167 311T167 264V235Q167 213 153 201T110 189Q83 189 69 201T54 235V264Q54 287 68 299T110 311Q167 311 167 264Z" />
<glyph unicode="&#xb8;" glyph-name="cedilla" horiz-adv-x="204" d="M112 -41H122Q144 -41 159 -59T174 -105V-120Q174 -160 151 -178T79 -197Q60 -197 30 -192V-139Q58 -143 66 -143Q107 -143 107 -119V-106Q107 -91 99 -86T73 -80H43V-59L70 28H133L112 -41Z" />
<glyph unicode="&#xb9;" glyph-name="uni00B9" horiz-adv-x="400" d="M256 752V397H336V331H84V397H176V676H175L78 637L63 704L191 752H256Z" />
<glyph unicode="&#xba;" glyph-name="ordmasculine" horiz-adv-x="492" d="M334 667T378 620T422 485V397Q422 307 378 261T246 215Q160 215 115 261T70 397V485Q70 573 114 620T246 667Q334 667 378 620ZM203 596T179 569T155 492V390Q155 340 179 313T246 286Q289
286 313 313T337 390V493Q337 543 313 569T246 596Q203 596 179 569ZM417 73V0H75V73H417Z" />
<glyph unicode="&#xbb;" glyph-name="guillemotright" horiz-adv-x="488" d="M153 438L253 268L153 98H65L158 268L65 438H153ZM323 438L423 268L323 98H235L328 268L235 438H323Z" />
<glyph unicode="&#xbc;" glyph-name="onequarter" horiz-adv-x="1000" d="M246 602V247H326V181H74V247H166V526H165L68 487L53 554L181 602H246ZM690 601L385 0H302L607 601H690ZM816 421L723 154H832V286H908V154H964V90H908V0H831V90H660L640 132L744 421H816Z" />
<glyph unicode="&#xbd;" glyph-name="onehalf" horiz-adv-x="1000" d="M251 602V247H331V181H79V247H171V526H170L73 487L58 554L186 602H251ZM698 601L393 0H310L615 601H698ZM871 429T906 402T942 321V303Q942 268 929 239T879 170L782 66H943V0H687V60L835
230Q854 252 860 266T866 302V318Q866 343 850 354T794 365Q772 365 745 360T696 348V413Q755 429 794 429Q871 429 906 402Z" />
<glyph unicode="&#xbe;" glyph-name="threequarters" horiz-adv-x="1000" d="M216 610T250 582T285 502V495Q285 462 271 440T225 403Q258 390 276 363T295 302V295Q295 240 257 207T150 173Q112 173 53 182V243Q105 235 152 235Q216 235 216 291V304Q216 337
199 352T140 368H82V427H140Q177 427 192 442T208 489V502Q208 527 194 538T148 549Q118 549 53 539V601Q112 610 148 610Q216 610 250 582ZM660 601L355 0H272L577 601H660ZM798 421L705 154H814V286H890V154H946V90H890V0H813V90H642L622 132L726 421H798Z" />
<glyph unicode="&#xbf;" glyph-name="questiondown" horiz-adv-x="395" d="M214 390T200 402T185 436V465Q185 487 199 498T241 510Q267 510 281 499T296 465V436Q296 414 282 402T241 390Q214 390 200 402ZM142 -197T99 -162T55 -59V-34Q55 11 75 51T142 141L175
177Q191 194 196 208T202 253V298H283V266Q283 217 276 196T243 144L185 76Q158 43 149 21T140 -36V-58Q140 -95 162 -112T244 -129Q291 -129 370 -111V-181Q292 -197 239 -197Q142 -197 99 -162Z" />
<glyph unicode="&#xc0;" glyph-name="Agrave" horiz-adv-x="532" d="M318 655L519 0H427L384 152H143L100 0H13L213 655H318ZM264 577L164 228H363L264 577ZM244 829L310 710H236L151 829H244Z" />
<glyph unicode="&#xc1;" glyph-name="Aacute" horiz-adv-x="532" d="M318 655L519 0H427L384 152H143L100 0H13L213 655H318ZM264 577L164 228H363L264 577ZM380 829L295 710H221L287 829H380Z" />
<glyph unicode="&#xc2;" glyph-name="Acircumflex" horiz-adv-x="532" d="M318 655L519 0H427L384 152H143L100 0H13L213 655H318ZM264 577L164 228H363L264 577ZM266 840L406 779V711L266 760L126 711V779L266 840Z" />
<glyph unicode="&#xc3;" glyph-name="Atilde" horiz-adv-x="532" d="M318 655L519 0H427L384 152H143L100 0H13L213 655H318ZM264 577L164 228H363L264 577ZM406 740Q403 738 393 731T364 717T326 710Q300 710 263 723Q248 728 233 731T204 735Q189 735 172 730T142
718T126 710V780Q129 782 139 789T168 803T206 810Q238 810 278 796Q309 785 328 785Q343 785 360 790T390 802T406 810V740Z" />
<glyph unicode="&#xc4;" glyph-name="Adieresis" horiz-adv-x="532" d="M318 655L519 0H427L384 152H143L100 0H13L213 655H318ZM264 577L164 228H363L264 577ZM207 824T220 813T234 781V752Q234 732 221 721T182 710Q158 710 144 721T130 752V781Q130 802 144
813T182 824Q207 824 220 813ZM375 824T388 813T402 781V752Q402 732 388 721T349 710Q326 710 312 721T297 752V781Q297 802 311 813T349 824Q375 824 388 813Z" />
<glyph unicode="&#xc5;" glyph-name="Aring" horiz-adv-x="532" d="M319 800T350 775T381 700Q381 636 331 612L519 0H427L384 152H143L100 0H13L200 613Q151 637 151 700Q151 750 181 775T266 800Q319 800 350 775ZM216 745T216 700Q216 655 266 655Q316 655
316 700Q316 745 266 745Q216 745 216 700ZM264 582L164 228H363L264 582Z" />
<glyph unicode="&#xc6;" glyph-name="AE" horiz-adv-x="772" d="M707 655V578H447V371H687V295H447V77H707V0H362V152H168L102 0H13L306 655H707ZM362 597L201 228H362V597Z" />
<glyph unicode="&#xc7;" glyph-name="Ccedilla" horiz-adv-x="476" d="M322 667T367 660T421 651L419 576Q331 592 283 592Q215 592 185 564T155 471V185Q155 120 184 93T283 65Q331 65 419 81L421 4L392 0Q333 -11 292 -12L283 -41H293Q315 -41 330 -59T345 -105V-120Q345
-160 322 -178T250 -197Q231 -197 201 -192V-139Q229 -143 237 -143Q278 -143 278 -119V-106Q277 -91 270 -86T244 -80H214V-59L229 -9Q144 1 107 50T70 190V465Q70 569 119 618T283 667Q322 667 367 660Z" />
<glyph unicode="&#xc8;" glyph-name="Egrave" horiz-adv-x="485" d="M420 655V578H160V371H400V295H160V77H420V0H75V655H420ZM231 829L297 710H223L138 829H231Z" />
<glyph unicode="&#xc9;" glyph-name="Eacute" horiz-adv-x="485" d="M420 655V578H160V371H400V295H160V77H420V0H75V655H420ZM367 829L282 710H208L274 829H367Z" />
<glyph unicode="&#xca;" glyph-name="Ecircumflex" horiz-adv-x="485" d="M420 655V578H160V371H400V295H160V77H420V0H75V655H420ZM253 840L393 779V711L253 760L113 711V779L253 840Z" />
<glyph unicode="&#xcb;" glyph-name="Edieresis" horiz-adv-x="485" d="M420 655V578H160V371H400V295H160V77H420V0H75V655H420ZM194 824T207 813T221 781V752Q221 732 208 721T169 710Q145 710 131 721T117 752V781Q117 802 131 813T169 824Q194 824 207 813ZM362
824T375 813T389 781V752Q389 732 375 721T336 710Q313 710 299 721T284 752V781Q284 802 298 813T336 824Q362 824 375 813Z" />
<glyph unicode="&#xcc;" glyph-name="Igrave" horiz-adv-x="235" d="M160 655V0H75V655H160ZM352 829L418 710H344L259 829H352Z" />
<glyph unicode="&#xcd;" glyph-name="Iacute" horiz-adv-x="235" d="M160 655V0H75V655H160ZM232 829L147 710H73L139 829H232Z" />
<glyph unicode="&#xce;" glyph-name="Icircumflex" horiz-adv-x="235" d="M160 655V0H75V655H160ZM374 840L514 779V711L374 760L234 711V779L374 840Z" />
<glyph unicode="&#xcf;" glyph-name="Idieresis" horiz-adv-x="235" d="M160 655V0H75V655H160ZM315 824T328 813T342 781V752Q342 732 329 721T290 710Q266 710 252 721T238 752V781Q238 802 252 813T290 824Q315 824 328 813ZM483 824T496 813T510 781V752Q510
732 496 721T457 710Q434 710 420 721T405 752V781Q405 802 419 813T457 824Q483 824 496 813Z" />
<glyph unicode="&#xd0;" glyph-name="Eth" horiz-adv-x="576" d="M382 667T446 600T511 405V241Q511 119 447 54T258 -12Q173 -12 80 -6V303H10V373H80V663Q170 667 263 667Q382 667 446 600ZM227 595T165 593V373H300V303H165V67Q223 61 258 61Q335 61 380 105T426
234V411Q426 502 382 548T258 595Q227 595 165 593Z" />
<glyph unicode="&#xd1;" glyph-name="Ntilde" horiz-adv-x="582" d="M375 0L159 553V0H75V655H211L423 102V655H507V0H375ZM436 740Q433 738 423 731T394 717T356 710Q330 710 293 723Q278 728 263 731T234 735Q219 735 202 730T172 718T156 710V780Q159 782 169
789T198 803T236 810Q268 810 308 796Q339 785 358 785Q373 785 390 790T420 802T436 810V740Z" />
<glyph unicode="&#xd2;" glyph-name="Ograve" horiz-adv-x="576" d="M400 667T453 611T506 452V203Q506 100 453 44T288 -12Q176 -12 123 44T70 203V452Q70 555 123 611T288 667Q400 667 453 611ZM222 592T189 559T155 462V194Q155 130 188 97T288 63Q354 63 387
96T421 194V461Q421 525 388 558T288 592Q222 592 189 559ZM266 829L332 710H258L173 829H266Z" />
<glyph unicode="&#xd3;" glyph-name="Oacute" horiz-adv-x="576" d="M400 667T453 611T506 452V203Q506 100 453 44T288 -12Q176 -12 123 44T70 203V452Q70 555 123 611T288 667Q400 667 453 611ZM222 592T189 559T155 462V194Q155 130 188 97T288 63Q354 63 387
96T421 194V461Q421 525 388 558T288 592Q222 592 189 559ZM402 829L317 710H243L309 829H402Z" />
<glyph unicode="&#xd4;" glyph-name="Ocircumflex" horiz-adv-x="576" d="M400 667T453 611T506 452V203Q506 100 453 44T288 -12Q176 -12 123 44T70 203V452Q70 555 123 611T288 667Q400 667 453 611ZM222 592T189 559T155 462V194Q155 130 188 97T288 63Q354
63 387 96T421 194V461Q421 525 388 558T288 592Q222 592 189 559ZM288 840L428 779V711L288 760L148 711V779L288 840Z" />
<glyph unicode="&#xd5;" glyph-name="Otilde" horiz-adv-x="576" d="M400 667T453 611T506 452V203Q506 100 453 44T288 -12Q176 -12 123 44T70 203V452Q70 555 123 611T288 667Q400 667 453 611ZM222 592T189 559T155 462V194Q155 130 188 97T288 63Q354 63 387
96T421 194V461Q421 525 388 558T288 592Q222 592 189 559ZM428 740Q425 738 415 731T386 717T348 710Q322 710 285 723Q270 728 255 731T226 735Q211 735 194 730T164 718T148 710V780Q151 782 161 789T190 803T228 810Q260 810 300 796Q331 785 350 785Q365 785
382 790T412 802T428 810V740Z" />
<glyph unicode="&#xd6;" glyph-name="Odieresis" horiz-adv-x="576" d="M400 667T453 611T506 452V203Q506 100 453 44T288 -12Q176 -12 123 44T70 203V452Q70 555 123 611T288 667Q400 667 453 611ZM222 592T189 559T155 462V194Q155 130 188 97T288 63Q354 63
387 96T421 194V461Q421 525 388 558T288 592Q222 592 189 559ZM229 824T242 813T256 781V752Q256 732 243 721T204 710Q180 710 166 721T152 752V781Q152 802 166 813T204 824Q229 824 242 813ZM397 824T410 813T424 781V752Q424 732 410 721T371 710Q348 710
334 721T319 752V781Q319 802 333 813T371 824Q397 824 410 813Z" />
<glyph unicode="&#xd7;" glyph-name="multiply" horiz-adv-x="390" d="M302 458L352 408L246 302L354 194L300 141L192 248L87 143L37 193L142 298L35 406L88 460L196 352L302 458Z" />
<glyph unicode="&#xd8;" glyph-name="Oslash" horiz-adv-x="576" d="M474 585Q506 534 506 452V203Q506 100 453 44T288 -12Q210 -12 159 16L120 -50H35L103 68Q70 118 70 203V452Q70 555 123 611T288 667Q368 667 418 638L456 705H541L474 585ZM222 592T189 559T155
462V194Q155 173 158 155L383 562Q350 592 288 592Q222 592 189 559ZM194 91Q226 63 288 63Q354 63 387 96T421 194V461Q421 481 418 497L194 91Z" />
<glyph unicode="&#xd9;" glyph-name="Ugrave" horiz-adv-x="576" d="M501 207Q501 101 447 45T288 -12Q184 -12 130 43T75 205V655H160V194Q160 130 193 97T288 63Q350 63 383 96T416 194V655H501V207ZM266 829L332 710H258L173 829H266Z" />
<glyph unicode="&#xda;" glyph-name="Uacute" horiz-adv-x="576" d="M501 207Q501 101 447 45T288 -12Q184 -12 130 43T75 205V655H160V194Q160 130 193 97T288 63Q350 63 383 96T416 194V655H501V207ZM402 829L317 710H243L309 829H402Z" />
<glyph unicode="&#xdb;" glyph-name="Ucircumflex" horiz-adv-x="576" d="M501 207Q501 101 447 45T288 -12Q184 -12 130 43T75 205V655H160V194Q160 130 193 97T288 63Q350 63 383 96T416 194V655H501V207ZM288 840L428 779V711L288 760L148 711V779L288 840Z" />
<glyph unicode="&#xdc;" glyph-name="Udieresis" horiz-adv-x="576" d="M501 207Q501 101 447 45T288 -12Q184 -12 130 43T75 205V655H160V194Q160 130 193 97T288 63Q350 63 383 96T416 194V655H501V207ZM229 824T242 813T256 781V752Q256 732 243 721T204 710Q180
710 166 721T152 752V781Q152 802 166 813T204 824Q229 824 242 813ZM397 824T410 813T424 781V752Q424 732 410 721T371 710Q348 710 334 721T319 752V781Q319 802 333 813T371 824Q397 824 410 813Z" />
<glyph unicode="&#xdd;" glyph-name="Yacute" horiz-adv-x="491" d="M478 655L288 225V0H203V225L13 655H110L246 315L383 655H478ZM360 829L275 710H201L267 829H360Z" />
<glyph unicode="&#xde;" glyph-name="Thorn" horiz-adv-x="499" d="M160 533Q208 539 248 539Q365 539 422 492T479 357V333Q479 240 424 189T256 138Q211 138 160 146V0H75V655H160V533ZM213 468T160 463V219Q220 211 252 211Q394 211 394 337V354Q394 411 359
439T246 468Q213 468 160 463Z" />
<glyph unicode="&#xdf;" glyph-name="germandbls" horiz-adv-x="483" d="M302 695T344 660T386 566V539Q386 508 373 486T335 438Q318 421 309 408T300 379V364Q300 349 305 340T322 323L369 295Q415 272 435 242T456 170V137Q456 55 425 22T316 -12Q291 -12 218
3L220 78Q286 63 316 63Q343 63 356 78T369 129V160Q369 182 361 196T331 222L283 249Q246 270 232 293T218 357V376Q218 406 229 425T263 466Q282 486 291 501T301 538V566Q301 593 282 608T226 623Q188 623 172 605T155 544V0H70V534Q70 619 107 657T232 695Q302
695 344 660Z" />
<glyph unicode="&#xe0;" glyph-name="agrave" horiz-adv-x="449" d="M305 500T344 462T384 339V0H303V78Q245 -12 172 -12Q114 -12 80 28T45 137V165Q45 225 86 264T196 304Q234 304 299 291V346Q299 389 280 408T219 427Q171 427 84 412V485Q178 500 219 500Q305
500 344 462ZM175 238T153 216T131 154V143Q131 106 148 85T191 64Q218 64 246 87T299 154V231Q261 238 217 238Q175 238 153 216ZM187 685L263 546H191L96 685H187Z" />
<glyph unicode="&#xe1;" glyph-name="aacute" horiz-adv-x="449" d="M305 500T344 462T384 339V0H303V78Q245 -12 172 -12Q114 -12 80 28T45 137V165Q45 225 86 264T196 304Q234 304 299 291V346Q299 389 280 408T219 427Q171 427 84 412V485Q178 500 219 500Q305
500 344 462ZM175 238T153 216T131 154V143Q131 106 148 85T191 64Q218 64 246 87T299 154V231Q261 238 217 238Q175 238 153 216ZM350 685L255 546H183L259 685H350Z" />
<glyph unicode="&#xe2;" glyph-name="acircumflex" horiz-adv-x="449" d="M305 500T344 462T384 339V0H303V78Q245 -12 172 -12Q114 -12 80 28T45 137V165Q45 225 86 264T196 304Q234 304 299 291V346Q299 389 280 408T219 427Q171 427 84 412V485Q178 500 219
500Q305 500 344 462ZM175 238T153 216T131 154V143Q131 106 148 85T191 64Q218 64 246 87T299 154V231Q261 238 217 238Q175 238 153 216ZM225 690L355 616V546L225 611L95 546V616L225 690Z" />
<glyph unicode="&#xe3;" glyph-name="atilde" horiz-adv-x="449" d="M305 500T344 462T384 339V0H303V78Q245 -12 172 -12Q114 -12 80 28T45 137V165Q45 225 86 264T196 304Q234 304 299 291V346Q299 389 280 408T219 427Q171 427 84 412V485Q178 500 219 500Q305
500 344 462ZM175 238T153 216T131 154V143Q131 106 148 85T191 64Q218 64 246 87T299 154V231Q261 238 217 238Q175 238 153 216ZM355 615Q352 613 342 606T313 592T275 585Q252 585 222 598Q210 603 198 606T173 610Q158 610 141 605T111 593T95 585V655Q98 657
108 664T137 678T175 685Q193 685 204 682T236 671Q262 660 277 660Q292 660 309 665T339 677T355 685V615Z" />
<glyph unicode="&#xe4;" glyph-name="adieresis" horiz-adv-x="449" d="M305 500T344 462T384 339V0H303V78Q245 -12 172 -12Q114 -12 80 28T45 137V165Q45 225 86 264T196 304Q234 304 299 291V346Q299 389 280 408T219 427Q171 427 84 412V485Q178 500 219 500Q305
500 344 462ZM175 238T153 216T131 154V143Q131 106 148 85T191 64Q218 64 246 87T299 154V231Q261 238 217 238Q175 238 153 216ZM165 682T178 671T192 640V611Q192 592 179 581T140 570Q117 570 103 581T89 611V640Q89 660 102 671T140 682Q165 682 178 671ZM333
682T346 671T360 640V611Q360 592 347 581T308 570Q285 570 271 581T257 611V640Q257 660 270 671T308 682Q333 682 346 671Z" />
<glyph unicode="&#xe5;" glyph-name="aring" horiz-adv-x="449" d="M305 500T344 462T384 339V0H303V78Q245 -12 172 -12Q114 -12 80 28T45 137V165Q45 225 86 264T196 304Q234 304 299 291V346Q299 389 280 408T219 427Q171 427 84 412V485Q178 500 219 500Q305
500 344 462ZM175 238T153 216T131 154V143Q131 106 148 85T191 64Q218 64 246 87T299 154V231Q261 238 217 238Q175 238 153 216ZM276 723T306 698T336 627Q336 581 307 556T225 531Q174 531 144 556T114 627Q114 673 143 698T225 723Q276 723 306 698ZM174 673T174
627Q174 581 225 581Q276 581 276 627Q276 673 225 673Q174 673 174 627Z" />
<glyph unicode="&#xe6;" glyph-name="ae" horiz-adv-x="690" d="M556 500T600 454T645 321V218H384V159Q384 109 409 86T488 63Q540 63 630 81L626 6Q527 -12 488 -12Q414 -12 375 13T320 90Q256 -12 172 -12Q114 -12 80 28T45 137V165Q45 226 86 266T196 306Q234
306 299 293V351Q299 393 280 411T219 430Q171 430 84 415V485Q178 500 219 500Q314 500 350 443Q387 500 472 500Q556 500 600 454ZM432 429T409 406T384 339V288H560V331Q560 378 537 403T472 429Q432 429 409 406ZM176 238T154 216T131 154V143Q131 106 147
85T191 64Q218 64 246 87T299 154V231Q261 238 217 238Q176 238 154 216Z" />
<glyph unicode="&#xe7;" glyph-name="ccedilla" horiz-adv-x="390" d="M269 500T288 498T343 489L341 414Q311 420 291 422T243 425Q195 425 170 399T145 325V164Q145 114 170 89T243 63Q271 63 291 65T341 74L343 -1Q307 -7 288 -9T241 -12L232 -41H242Q264 -41
279 -59T294 -105V-120Q294 -160 271 -178T199 -197Q180 -197 150 -192V-139Q178 -143 186 -143Q227 -143 227 -119V-106Q226 -91 219 -86T193 -80H163V-59L180 -5Q60 21 60 170V318Q60 500 243 500Q269 500 288 498Z" />
<glyph unicode="&#xe8;" glyph-name="egrave" horiz-adv-x="447" d="M314 500T358 454T402 321V218H145V159Q145 108 169 86T247 63Q299 63 377 79L379 5Q286 -12 246 -12Q147 -12 104 31T60 164V321Q60 408 102 454T230 500Q314 500 358 454ZM191 429T168 405T145
334V286H317V331Q317 379 294 404T230 429Q191 429 168 405ZM189 685L265 546H193L98 685H189Z" />
<glyph unicode="&#xe9;" glyph-name="eacute" horiz-adv-x="447" d="M314 500T358 454T402 321V218H145V159Q145 108 169 86T247 63Q299 63 377 79L379 5Q286 -12 246 -12Q147 -12 104 31T60 164V321Q60 408 102 454T230 500Q314 500 358 454ZM191 429T168 405T145
334V286H317V331Q317 379 294 404T230 429Q191 429 168 405ZM352 685L257 546H185L261 685H352Z" />
<glyph unicode="&#xea;" glyph-name="ecircumflex" horiz-adv-x="447" d="M314 500T358 454T402 321V218H145V159Q145 108 169 86T247 63Q299 63 377 79L379 5Q286 -12 246 -12Q147 -12 104 31T60 164V321Q60 408 102 454T230 500Q314 500 358 454ZM191 429T168
405T145 334V286H317V331Q317 379 294 404T230 429Q191 429 168 405ZM227 690L357 616V546L227 611L97 546V616L227 690Z" />
<glyph unicode="&#xeb;" glyph-name="edieresis" horiz-adv-x="447" d="M314 500T358 454T402 321V218H145V159Q145 108 169 86T247 63Q299 63 377 79L379 5Q286 -12 246 -12Q147 -12 104 31T60 164V321Q60 408 102 454T230 500Q314 500 358 454ZM191 429T168
405T145 334V286H317V331Q317 379 294 404T230 429Q191 429 168 405ZM167 682T180 671T194 640V611Q194 592 181 581T142 570Q119 570 105 581T91 611V640Q91 660 104 671T142 682Q167 682 180 671ZM335 682T348 671T362 640V611Q362 592 349 581T310 570Q287 570
273 581T259 611V640Q259 660 272 671T310 682Q335 682 348 671Z" />
<glyph unicode="&#xec;" glyph-name="igrave" horiz-adv-x="225" d="M155 488V0H70V488H155ZM331 685L407 546H335L240 685H331Z" />
<glyph unicode="&#xed;" glyph-name="iacute" horiz-adv-x="225" d="M155 488V0H70V488H155ZM238 685L143 546H71L147 685H238Z" />
<glyph unicode="&#xee;" glyph-name="icircumflex" horiz-adv-x="225" d="M155 488V0H70V488H155ZM369 690L499 616V546L369 611L239 546V616L369 690Z" />
<glyph unicode="&#xef;" glyph-name="idieresis" horiz-adv-x="225" d="M155 488V0H70V488H155ZM309 682T322 671T336 640V611Q336 592 323 581T284 570Q261 570 247 581T233 611V640Q233 660 246 671T284 682Q309 682 322 671ZM477 682T490 671T504 640V611Q504
592 491 581T452 570Q429 570 415 581T401 611V640Q401 660 414 671T452 682Q477 682 490 671Z" />
<glyph unicode="&#xf0;" glyph-name="eth" horiz-adv-x="487" d="M265 695T342 600L427 625V560L377 545Q416 466 416 340V170Q416 82 372 35T243 -12Q153 -12 112 29T70 157V272Q70 354 105 396T203 439Q276 439 331 361V386Q331 463 299 522L172 484V551L258
576Q229 603 191 617T110 631V695Q265 695 342 600ZM189 363T172 338T155 260V148Q155 59 243 59Q331 59 331 148V281Q307 321 278 342T220 363Q189 363 172 338Z" />
<glyph unicode="&#xf1;" glyph-name="ntilde" horiz-adv-x="486" d="M347 500T381 457T416 333V0H331V321Q331 421 266 421Q237 421 207 399T155 339V0H70V488H150V415Q177 456 210 478T283 500Q347 500 381 457ZM377 615Q374 613 364 606T335 592T297 585Q274
585 244 598Q232 603 220 606T195 610Q180 610 163 605T133 593T117 585V655Q120 657 130 664T159 678T197 685Q215 685 226 682T258 671Q284 660 299 660Q314 660 331 665T361 677T377 685V615Z" />
<glyph unicode="&#xf2;" glyph-name="ograve" horiz-adv-x="472" d="M325 500T368 453T412 318V170Q412 83 369 36T236 -12Q147 -12 104 35T60 170V318Q60 405 103 452T236 500Q325 500 368 453ZM193 429T169 402T145 325V163Q145 113 169 86T236 59Q279 59 303
86T327 163V326Q327 376 303 402T236 429Q193 429 169 402ZM198 685L274 546H202L107 685H198Z" />
<glyph unicode="&#xf3;" glyph-name="oacute" horiz-adv-x="472" d="M325 500T368 453T412 318V170Q412 83 369 36T236 -12Q147 -12 104 35T60 170V318Q60 405 103 452T236 500Q325 500 368 453ZM193 429T169 402T145 325V163Q145 113 169 86T236 59Q279 59 303
86T327 163V326Q327 376 303 402T236 429Q193 429 169 402ZM361 685L266 546H194L270 685H361Z" />
<glyph unicode="&#xf4;" glyph-name="ocircumflex" horiz-adv-x="472" d="M325 500T368 453T412 318V170Q412 83 369 36T236 -12Q147 -12 104 35T60 170V318Q60 405 103 452T236 500Q325 500 368 453ZM193 429T169 402T145 325V163Q145 113 169 86T236 59Q279
59 303 86T327 163V326Q327 376 303 402T236 429Q193 429 169 402ZM236 690L366 616V546L236 611L106 546V616L236 690Z" />
<glyph unicode="&#xf5;" glyph-name="otilde" horiz-adv-x="472" d="M325 500T368 453T412 318V170Q412 83 369 36T236 -12Q147 -12 104 35T60 170V318Q60 405 103 452T236 500Q325 500 368 453ZM193 429T169 402T145 325V163Q145 113 169 86T236 59Q279 59 303
86T327 163V326Q327 376 303 402T236 429Q193 429 169 402ZM366 615Q363 613 353 606T324 592T286 585Q263 585 233 598Q221 603 209 606T184 610Q169 610 152 605T122 593T106 585V655Q109 657 119 664T148 678T186 685Q204 685 215 682T247 671Q273 660 288 660Q303
660 320 665T350 677T366 685V615Z" />
<glyph unicode="&#xf6;" glyph-name="odieresis" horiz-adv-x="472" d="M325 500T368 453T412 318V170Q412 83 369 36T236 -12Q147 -12 104 35T60 170V318Q60 405 103 452T236 500Q325 500 368 453ZM193 429T169 402T145 325V163Q145 113 169 86T236 59Q279 59
303 86T327 163V326Q327 376 303 402T236 429Q193 429 169 402ZM176 682T189 671T203 640V611Q203 592 190 581T151 570Q128 570 114 581T100 611V640Q100 660 113 671T151 682Q176 682 189 671ZM344 682T357 671T371 640V611Q371 592 358 581T319 570Q296 570
282 581T268 611V640Q268 660 281 671T319 682Q344 682 357 671Z" />
<glyph unicode="&#xf7;" glyph-name="divide" horiz-adv-x="390" d="M219 489T231 478T244 445V428Q244 408 232 397T195 385Q172 385 160 396T147 428V445Q147 466 159 477T195 489Q219 489 231 478ZM372 335V265H18V335H372ZM219 215T231 204T244 171V154Q244
134 232 123T195 111Q172 111 160 122T147 154V171Q147 192 159 203T195 215Q219 215 231 204Z" />
<glyph unicode="&#xf8;" glyph-name="oslash" horiz-adv-x="472" d="M394 414Q412 374 412 318V170Q412 83 369 36T236 -12Q171 -12 128 15L84 -51H-4L78 72Q60 113 60 170V318Q60 405 103 452T236 500Q302 500 344 472L388 538H476L394 414ZM193 429T169 402T145
325V168V158L305 400Q282 429 236 429Q193 429 169 402ZM167 87Q191 59 236 59Q279 59 303 86T327 163V316V326L167 87Z" />
<glyph unicode="&#xf9;" glyph-name="ugrave" horiz-adv-x="480" d="M410 0H330V70Q303 30 270 9T200 -12Q139 -12 105 30T70 155V488H155V170Q155 117 171 92T217 67Q244 67 273 88T325 148V488H410V0ZM202 685L278 546H206L111 685H202Z" />
<glyph unicode="&#xfa;" glyph-name="uacute" horiz-adv-x="480" d="M410 0H330V70Q303 30 270 9T200 -12Q139 -12 105 30T70 155V488H155V170Q155 117 171 92T217 67Q244 67 273 88T325 148V488H410V0ZM365 685L270 546H198L274 685H365Z" />
<glyph unicode="&#xfb;" glyph-name="ucircumflex" horiz-adv-x="480" d="M410 0H330V70Q303 30 270 9T200 -12Q139 -12 105 30T70 155V488H155V170Q155 117 171 92T217 67Q244 67 273 88T325 148V488H410V0ZM240 690L370 616V546L240 611L110 546V616L240 690Z" />
<glyph unicode="&#xfc;" glyph-name="udieresis" horiz-adv-x="480" d="M410 0H330V70Q303 30 270 9T200 -12Q139 -12 105 30T70 155V488H155V170Q155 117 171 92T217 67Q244 67 273 88T325 148V488H410V0ZM180 682T193 671T207 640V611Q207 592 194 581T155 570Q132
570 118 581T104 611V640Q104 660 117 671T155 682Q180 682 193 671ZM348 682T361 671T375 640V611Q375 592 362 581T323 570Q300 570 286 581T272 611V640Q272 660 285 671T323 682Q348 682 361 671Z" />
<glyph unicode="&#xfd;" glyph-name="yacute" horiz-adv-x="436" d="M426 488L202 -185H117L181 0H149L10 488H103L208 61L338 488H426ZM343 685L248 546H176L252 685H343Z" />
<glyph unicode="&#xfe;" glyph-name="thorn" horiz-adv-x="475" d="M155 424Q181 461 213 480T282 500Q345 500 380 457T415 333V155Q415 77 375 33T265 -12Q239 -12 210 -2T155 23V-185H70V683H155V424ZM236 424T207 403T155 344V99Q176 82 201 73T248 63Q330
63 330 167V321Q330 424 265 424Q236 424 207 403Z" />
<glyph unicode="&#xff;" glyph-name="ydieresis" horiz-adv-x="436" d="M426 488L202 -185H117L181 0H149L10 488H103L208 61L338 488H426ZM158 682T171 671T185 640V611Q185 592 172 581T133 570Q110 570 96 581T82 611V640Q82 660 95 671T133 682Q158 682 171
671ZM326 682T339 671T353 640V611Q353 592 340 581T301 570Q278 570 264 581T250 611V640Q250 660 263 671T301 682Q326 682 339 671Z" />
<glyph unicode="&#x2013;" glyph-name="endash" horiz-adv-x="610" d="M545 328V263H65V328H545Z" />
<glyph unicode="&#x2014;" glyph-name="emdash" horiz-adv-x="710" d="M645 328V263H65V328H645Z" />
<glyph unicode="&#x2018;" glyph-name="quoteleft" horiz-adv-x="217" d="M128 597Q162 589 162 555V527Q162 505 149 494T109 483Q55 483 55 527V557Q55 585 62 607L92 696H151L128 597Z" />
<glyph unicode="&#x2019;" glyph-name="quoteright" horiz-adv-x="217" d="M162 695T162 651V621Q162 593 155 571L125 482H66L89 581Q55 589 55 623V651Q55 673 68 684T108 695Q162 695 162 651Z" />
<glyph unicode="&#x201a;" glyph-name="quotesinglbase" horiz-adv-x="217" d="M162 105T162 61V31Q162 3 155 -19L125 -108H66L89 -9Q55 -1 55 33V61Q55 83 68 94T108 105Q162 105 162 61Z" />
<glyph unicode="&#x201c;" glyph-name="quotedblleft" horiz-adv-x="362" d="M128 596Q162 588 162 554V526Q162 504 149 493T109 482Q55 482 55 526V556Q55 584 62 606L92 695H151L128 596ZM273 596Q307 588 307 554V526Q307 504 294 493T254 482Q200 482 200
526V556Q200 584 207 606L237 695H296L273 596Z" />
<glyph unicode="&#x201d;" glyph-name="quotedblright" horiz-adv-x="362" d="M162 695T162 651V621Q162 593 155 571L125 482H66L89 581Q55 589 55 623V651Q55 673 68 684T108 695Q162 695 162 651ZM307 695T307 651V621Q307 593 300 571L270 482H211L234 581Q200
589 200 623V651Q200 673 213 684T253 695Q307 695 307 651Z" />
<glyph unicode="&#x201e;" glyph-name="quotedblbase" horiz-adv-x="362" d="M162 105T162 61V31Q162 3 155 -19L125 -108H66L89 -9Q55 -1 55 33V61Q55 83 68 94T108 105Q162 105 162 61ZM307 105T307 61V31Q307 3 300 -19L270 -108H211L234 -9Q200 -1 200 33V61Q200
83 213 94T253 105Q307 105 307 61Z" />
<glyph unicode="&#x2022;" glyph-name="bullet" horiz-adv-x="235" d="M147 335T163 322T180 284V251Q180 226 164 213T117 200Q88 200 72 213T55 251V284Q55 309 71 322T117 335Q147 335 163 322Z" />
<glyph unicode="&#x2039;" glyph-name="guilsinglleft" horiz-adv-x="318" d="M253 438L160 268L253 98H165L65 268L165 438H253Z" />
<glyph unicode="&#x203a;" glyph-name="guilsinglright" horiz-adv-x="318" d="M153 438L253 268L153 98H65L158 268L65 438H153Z" />
</font>
</defs>
</svg>
