<?xml version="1.0" standalone="no"?>
<!DOCTYPE svg PUBLIC "-//W3C//DTD SVG 1.1//EN" "http://www.w3.org/Graphics/SVG/1.1/DTD/svg11.dtd">
<svg xmlns="http://www.w3.org/2000/svg">
<defs >
<font id="Chewy" horiz-adv-x="455" ><font-face
    font-family="Chewy"
    units-per-em="1024"
    panose-1="2 0 0 0 0 0 0 0 0 0"
    ascent="1003"
    descent="-310"
    alphabetic="0" />
<glyph unicode=" " glyph-name="space" horiz-adv-x="241" />
<glyph unicode="!" glyph-name="exclam" horiz-adv-x="248" d="M217 419Q217 403 215 376T209 317T198 253T180 194T156 151T124 134Q102 134 87 155T61 210T44 285T35 365T32 438T31 490Q31 508 31 535T33 594T41 655T58 711T87 751T132 767Q156 767 171 747T196
694T210 621T216 543T218 471T217 419ZM198 39Q198 22 190 10T169 -11T141 -24T111 -28Q89 -28 69 -17T49 20Q49 35 57 47T79 69T107 83T137 88Q160 88 179 77T198 39Z" />
<glyph unicode="&quot;" glyph-name="quotedbl" horiz-adv-x="291" d="M260 647Q260 632 258 601T251 538T236 483T211 459Q202 459 195 471T183 501T173 541T167 584T163 621T162 646Q162 656 163 673T168 706T181 734T206 746Q224 746 234 736T251 710T258 677T260
647ZM129 647Q129 632 127 601T120 538T105 483T80 459Q71 459 64 471T52 501T42 541T36 584T32 621T31 646Q31 656 32 673T37 706T50 734T75 746Q93 746 103 736T120 710T127 677T129 647Z" />
<glyph unicode="#" glyph-name="numbersign" horiz-adv-x="530" d="M530 489Q530 481 515 475T481 465T444 459T420 456Q412 420 403 384T386 311Q391 310 406 307T437 298T465 286T478 271Q478 263 463 257T429 247T391 241T367 238Q364 227 355 196T334 130T309
69T282 42Q273 42 268 49T260 67T257 88T256 105Q256 137 260 168T270 232Q254 231 238 231T206 231Q203 221 195 191T174 127T149 68T122 42Q113 42 108 49T100 67T97 88T96 105Q96 139 100 171T112 234Q105 235 87 237T49 243T15 253T0 271Q0 285 16 293T54 307T97
313T128 316Q136 351 143 385T159 454Q152 454 135 456T99 462T66 472T52 489Q52 503 68 511T106 525T149 532T180 535Q182 542 186 558T197 594T212 635T229 673T247 702T266 714Q275 714 279 707T286 690T289 671T290 655Q290 626 286 598T276 541Q293 542 308
542T341 540Q344 550 352 578T373 637T399 690T426 714Q435 714 439 707T446 690T449 671T450 655Q450 623 445 592T434 529Q440 528 455 525T487 517T517 504T530 489ZM317 451Q303 450 289 450T259 451Q251 419 244 387T228 323Q244 323 259 323T289 322Q296
354 302 386T317 451Z" />
<glyph unicode="$" glyph-name="dollar" horiz-adv-x="486" d="M461 554Q461 540 454 531T435 515T410 505T386 502Q369 502 353 507T321 519T285 530T243 536Q234 536 222 534T198 527T180 514T172 494Q172 476 193 462T246 432T314 398T383 355T436 300T457
225Q457 188 444 166T410 131T362 110T308 95Q303 94 303 84T302 59T302 28T296 -3T280 -26T248 -36Q229 -36 213 -24T196 9Q196 17 196 24T197 40Q197 43 197 51T196 68T193 84T188 92Q169 97 141 103T88 119T44 146T26 187Q26 210 43 225T83 240Q102 240 120
234T158 221T198 208T241 202Q249 202 261 203T284 209T303 221T311 241Q311 252 301 261T278 277T250 289T228 298Q196 311 161 328T97 369T48 424T28 496Q28 532 42 561T81 612T137 645T204 660Q208 683 211 706T220 753Q229 784 264 784Q278 784 291 777T304
754Q304 734 301 711T296 668Q317 663 340 656T384 638T424 612T454 577Q457 571 459 566T461 554Z" />
<glyph unicode="%" glyph-name="percent" horiz-adv-x="825" d="M626 -3Q587 -3 559 19T512 75T484 146T475 214Q475 245 486 287T520 366T573 429T645 455Q690 455 719 433T765 376T788 303T795 231Q795 196 786 155T756 79T703 21T626 -3ZM585 537Q567 508 549
480T514 427T484 383T462 351Q455 341 441 321T409 273T368 215T322 152Q299 122 277 93T233 40T195 3T168 -11Q154 -11 151 -1T147 15Q147 34 160 65T194 134T241 213T291 291T337 360T371 410Q379 422 399 452T447 520T504 599T564 673T617 729T655 751Q668 751
671 742T675 727Q675 714 668 694T648 648T619 594T585 537ZM172 290Q133 290 105 313T58 369T30 439T20 507Q20 539 31 580T65 659T119 722T192 748Q237 748 265 726T311 670T334 597T341 524Q341 489 332 448T302 372T249 314T172 290ZM651 340Q633 340 619 326T594
292T579 250T574 209Q574 195 577 177T587 143T604 116T629 104Q647 104 661 118T685 152T700 194T705 234Q705 247 702 265T692 300T675 328T651 340ZM197 634Q179 634 165 620T140 586T125 544T120 503Q120 489 123 471T133 437T150 409T176 397Q194 397 208
411T231 445T246 487T251 527Q251 541 248 559T238 594T221 622T197 634Z" />
<glyph unicode="&amp;" glyph-name="ampersand" horiz-adv-x="712" d="M584 141Q593 129 606 111T631 73T651 33T660 0Q660 -24 643 -38T605 -53Q590 -53 570 -41T530 -11T492 23T463 52Q417 22 357 6T243 -10Q196 -10 158 4T91 44T47 109T31 196Q31 234 46 268T86
332T139 386T196 431Q182 449 171 470T153 515T141 561T137 606Q137 642 150 673T185 728T239 765T308 778Q342 778 374 764T431 727T471 672T487 604Q487 576 478 552T453 505T419 463T382 425Q411 381 441 339T503 254Q515 266 530 279T562 304T597 323T633 331Q658
331 669 318T681 281Q681 260 671 240T647 201T615 168T584 141ZM301 642Q281 642 273 629T265 594Q265 569 275 549T305 512Q325 529 340 552T356 600Q356 617 338 629T301 642ZM268 323Q236 300 218 269T199 198Q199 132 267 132Q295 132 325 142T381 169Q365
190 351 208T324 244T298 281T268 323Z" />
<glyph unicode="&apos;" glyph-name="quotesingle" horiz-adv-x="160" d="M129 647Q129 632 127 601T120 538T105 483T80 459Q71 459 64 471T52 501T42 541T36 584T32 621T31 646Q31 656 32 673T37 706T50 734T75 746Q93 746 103 736T120 710T127 677T129 647Z" />
<glyph unicode="(" glyph-name="parenleft" horiz-adv-x="272" d="M252 746Q252 732 241 713T224 679Q192 604 169 522T146 356Q146 273 169 187T228 26Q235 12 243 -1T252 -30Q252 -44 243 -52T219 -60Q201 -60 186 -50T157 -25T134 7T116 38Q79 110 60 192T41
355Q41 395 48 437T67 520T94 601T128 676Q134 688 143 705T164 737T190 764T220 775Q233 775 242 767T252 746Z" />
<glyph unicode=")" glyph-name="parenright" horiz-adv-x="275" d="M234 365V359Q234 320 227 278T208 195T179 114T145 40Q139 28 130 11T108 -21T82 -47T52 -58Q41 -58 31 -50T20 -30Q20 -15 31 4T48 38Q80 113 104 196T129 364Q129 447 107 531T50 691Q44 705
36 718T27 746Q27 760 36 768T59 777Q77 777 93 767T122 742T145 710T162 679Q197 607 215 526T234 365Z" />
<glyph unicode="*" glyph-name="asterisk" horiz-adv-x="470" d="M439 631Q439 620 424 605T389 573T350 544T323 525Q332 519 351 504T389 472T424 437T439 407Q439 399 434 397T423 395Q410 395 390 401T350 416T310 434T279 449Q279 440 278 415T272 362T261
313T240 291Q224 291 215 311T200 358T193 410T190 447Q178 441 161 432T124 414T87 400T54 394Q45 394 38 398T31 414Q31 427 45 443T79 475T117 504T146 523Q137 529 118 541T81 569T48 599T33 627Q33 638 41 642T59 646Q72 646 90 641T126 629T160 614T189 600Q190
608 193 634T203 687T219 736T240 758Q250 758 257 737T268 687T274 634T278 600Q291 606 308 613T345 627T383 637T417 642Q422 642 430 641T439 631Z" />
<glyph unicode="+" glyph-name="plus" horiz-adv-x="481" d="M461 265Q461 253 449 247T421 237T389 232T366 231Q346 230 327 230T288 229Q287 222 287 208T285 175T281 137T273 101T262 74T245 62Q231 61 222 83T206 133T197 189T193 225Q182 225 154 225T96
228T43 237T20 257Q20 275 44 284T99 296T159 300T200 299V318Q200 328 201 353T208 404T223 449T250 469Q264 469 272 446T283 394T287 338T288 301Q307 300 326 300T364 298Q371 298 387 297T419 293T448 283T461 265Z" />
<glyph unicode="," glyph-name="comma" horiz-adv-x="184" d="M174 53Q174 37 166 12T145 -37T116 -78T85 -95Q65 -95 65 -75Q65 -63 70 -52T81 -31T92 -10T97 11Q82 1 65 1Q42 1 26 19T10 59Q10 91 31 110T84 130Q120 130 147 111T174 53Z" />
<glyph unicode="-" glyph-name="hyphen" horiz-adv-x="460" d="M439 255Q439 246 425 241T387 231T337 225T284 221T239 220T211 219Q201 219 170 219T106 223T46 233T20 255Q20 272 48 282T114 296T188 302T242 303Q252 303 270 302T310 299T355 292T396 283T427
271T439 255Z" />
<glyph unicode="." glyph-name="period" horiz-adv-x="185" d="M175 48Q175 35 169 25T154 7T133 -4T109 -8Q94 -8 77 -3T45 13T20 36T10 67Q10 94 33 107T80 121Q95 121 111 116T142 102T166 79T175 48Z" />
<glyph unicode="/" glyph-name="slash" horiz-adv-x="391" d="M381 716Q381 686 366 639T330 540T287 442T251 366Q244 352 229 321T194 249T152 167T107 89T66 32T33 9Q19 9 15 24T10 49Q10 81 26 130T64 232T109 334T146 416Q152 430 166 460T200 527T241 603T284
675T326 729T360 750Q374 750 377 738T381 716Z" />
<glyph unicode="0" glyph-name="zero" horiz-adv-x="632" d="M611 347Q611 279 591 211T531 87T432 -3T296 -38Q231 -38 179 -4T91 82T35 197T15 318Q15 359 26 404T57 493T106 577T170 648T247 697T334 715Q411 715 464 682T549 597T596 479T611 347ZM466 352Q466
377 459 411T438 475T400 526T345 547Q306 547 276 523T224 462T192 385T180 311Q180 285 187 252T209 190T247 140T303 119Q342 119 372 143T423 203T455 279T466 352Z" />
<glyph unicode="1" glyph-name="one" horiz-adv-x="276" d="M220 493Q220 462 219 431T217 369Q215 318 215 268T212 166Q211 149 210 121T203 65T182 17T143 -4Q119 -4 104 12T81 54T69 111T66 173T66 230T67 270Q67 338 67 406T69 542Q49 559 38 583T26 634Q26
675 50 704T118 733Q155 733 176 705T206 638T218 559T220 493Z" />
<glyph unicode="2" glyph-name="two" horiz-adv-x="519" d="M499 92Q499 63 480 45T434 22Q404 15 366 10T289 0T211 -6T142 -8Q134 -8 120 -8T90 -6T61 -1T40 7Q33 13 28 23T18 46T12 71T10 92Q10 106 13 117T27 139Q39 152 52 164T77 189Q91 204 114 228T163
283T216 347T265 413T300 473T314 521Q314 540 303 552T273 565Q252 565 234 550T198 518T160 485T113 470Q82 470 65 488T47 536Q47 580 66 617T118 682T190 724T272 740Q315 740 352 730T416 699T458 646T474 567Q474 531 462 492T429 412T382 333T327 257T271
190T220 136Q269 142 323 148T427 154Q456 154 477 139T499 92Z" />
<glyph unicode="3" glyph-name="three" horiz-adv-x="499" d="M468 232Q468 176 446 129T387 48T301 -6T199 -26Q179 -26 150 -23T93 -9T47 18T28 62Q28 91 43 107T88 123Q117 123 144 118T201 112Q223 112 245 119T284 139T313 171T324 214Q324 227 319 246T305
281T283 310T254 322Q239 322 225 317T195 307T163 296T130 291Q108 291 98 309T87 346Q87 388 125 403Q145 411 175 424T235 456T285 496T306 545Q306 565 290 584T252 603Q230 603 211 591T174 565T136 538T94 526Q83 526 71 530T49 542T33 561T26 584Q26 598
32 613T46 639Q80 691 136 717T253 743Q345 743 399 693T454 552Q454 498 432 457T355 398Q384 392 405 376T441 336T461 286T468 232Z" />
<glyph unicode="4" glyph-name="four" horiz-adv-x="544" d="M564 403Q564 377 550 362T512 342Q465 331 420 327Q416 288 413 250T407 173Q405 155 403 124T394 62T372 10T332 -13Q308 -13 295 8T274 57T265 113T263 158Q263 199 265 238T270 318Q244 316 218
316T166 315Q154 315 136 315T100 318T67 325T44 342Q39 349 37 366T33 404T31 444T31 472Q31 495 31 517T33 562Q34 584 35 614T45 673T70 721T118 741Q137 741 148 723T166 681T175 633T177 595Q177 565 175 535T167 476Q196 478 224 479T282 483Q283 493 285
523T292 588T300 653T308 692Q316 711 333 723T372 736Q398 736 409 720T424 682Q429 654 430 624T431 565Q431 522 428 479Q450 477 471 474T514 466Q538 461 551 444T564 403Z" />
<glyph unicode="5" glyph-name="five" horiz-adv-x="526" d="M506 234Q506 175 488 129T436 51T356 2T252 -15Q221 -15 184 -4T113 28T58 78T36 144Q36 170 52 186T94 202Q119 202 136 192T169 170T207 147T261 137Q301 137 326 165T351 232Q351 269 334 296T278
323Q260 323 246 319T218 310T191 301T163 294Q152 292 135 295T101 306T69 322T51 343Q48 352 46 382T42 447T40 513T39 557Q39 565 39 583T40 620T44 657T51 680Q57 689 80 697T135 712T204 724T274 734T335 740T375 742Q389 742 404 739T432 728T453 708T461
679Q461 652 442 636T400 612Q382 606 356 602T303 595T251 589T206 586L208 441Q228 445 248 447T289 450Q395 450 450 395T506 234Z" />
<glyph unicode="6" glyph-name="six" horiz-adv-x="541" d="M515 218Q515 160 495 116T439 43T357 -1T254 -16Q192 -16 147 9T72 75T29 169T15 278Q15 318 29 368T68 469T126 569T197 656T276 717T358 740Q381 740 399 728T418 690Q418 676 406 660T378 629T344
599T316 572Q293 546 274 517T240 455Q255 460 271 462T303 465Q354 465 393 444T460 389T501 310T515 218ZM375 217Q375 270 343 298T259 327Q242 327 220 322T182 307Q176 303 175 292T174 274Q174 251 180 226T200 178T233 142T280 128Q321 128 348 151T375
217Z" />
<glyph unicode="7" glyph-name="seven" horiz-adv-x="535" d="M524 660Q524 646 517 621T498 565T472 499T443 433T417 374T398 332Q385 302 365 257T322 164T275 75T229 10Q208 -13 179 -13Q157 -13 142 1T127 38Q127 69 140 112T172 199T211 286T245 358Q271
417 297 474T349 591Q335 593 320 594T290 595Q239 595 186 588T82 570Q77 569 67 569Q44 569 30 583T15 620Q15 644 31 662T74 692T133 713T197 726T256 732T299 734Q316 734 348 732T415 724T479 709T518 684Q523 678 523 673T524 660Z" />
<glyph unicode="8" glyph-name="eight" horiz-adv-x="606" d="M586 185Q586 123 556 78T480 4T377 -39T266 -53Q226 -53 181 -42T98 -7T35 53T10 137Q10 176 23 210T58 274T110 327T173 367Q148 375 125 390T83 425T54 470T43 523Q43 578 72 618T147 685T244 723T343
736Q378 736 414 728T479 702T528 655T547 585Q547 521 511 473T420 394Q455 385 485 365T538 318T573 256T586 185ZM395 562Q395 574 388 581T370 592T348 598T328 600Q316 600 297 597T260 587T229 569T216 541Q216 524 225 512T247 490T276 477T306 471Q316
477 331 486T360 508T385 534T395 562ZM422 179Q422 203 411 222T383 256T344 279T301 293Q281 284 259 271T219 239T188 200T176 153Q176 135 189 123T220 104T257 94T290 91Q310 91 333 95T376 110T409 138T422 179Z" />
<glyph unicode="9" glyph-name="nine" horiz-adv-x="532" d="M517 462Q517 422 504 370T467 264T412 158T343 65T265 -1T183 -26Q161 -26 144 -13T126 25Q126 36 129 43T139 59Q161 87 184 110T229 157T273 207T311 267Q278 258 243 258Q193 258 153 273T84 318T41
387T26 478Q26 534 43 581T93 662T171 716T274 736Q334 736 379 715T455 656T501 568T517 462ZM384 480Q384 504 378 527T358 568T326 597T279 608Q225 608 194 575T162 487Q162 435 190 408T270 380Q323 380 353 403T384 480Z" />
<glyph unicode=":" glyph-name="colon" horiz-adv-x="196" d="M175 293Q175 280 169 270T154 252T133 241T109 237Q94 237 77 242T45 257T20 280T10 311Q10 339 33 352T80 366Q95 366 111 361T142 347T166 324T175 293ZM175 48Q175 35 169 25T154 7T133 -4T109
-8Q94 -8 77 -3T45 13T20 36T10 67Q10 94 33 107T80 121Q95 121 111 116T142 102T166 79T175 48Z" />
<glyph unicode=";" glyph-name="semicolon" horiz-adv-x="196" d="M175 293Q175 280 169 270T154 252T133 241T109 237Q94 237 77 242T45 257T20 280T10 311Q10 339 33 352T80 366Q95 366 111 361T142 347T166 324T175 293ZM175 53Q175 37 167 12T146 -37T118
-78T87 -95Q67 -95 67 -75Q67 -63 72 -52T83 -31T94 -10T98 11Q92 6 84 4T67 1Q44 1 28 19T12 59Q12 91 33 110T85 130Q121 130 148 111T175 53Z" />
<glyph unicode="&lt;" glyph-name="less" horiz-adv-x="332" d="M301 59Q301 48 297 40T279 31Q263 31 237 42T181 71T121 113T66 160T26 206T10 246Q10 260 25 283T65 332T120 384T179 432T233 467T272 481Q286 481 292 472T299 452Q299 440 288 422T258 384T217
343T172 302T132 266T103 241Q115 233 134 220T176 192T220 159T260 125T289 90T301 59Z" />
<glyph unicode="=" glyph-name="equal" horiz-adv-x="492" d="M450 330Q450 321 435 316T398 306T348 300T295 296T249 295T221 294Q214 294 198 294T160 295T116 298T75 304T44 314T31 330Q31 341 44 349T78 362T125 370T175 374T220 376T252 377Q267 377 299
375T365 367T424 352T450 330ZM461 184Q461 176 446 170T409 160T359 154T306 150T260 149T232 148Q225 148 209 148T171 149T127 152T86 158T55 168T42 184Q42 195 55 203T89 216T136 224T186 228T231 230T263 231Q278 231 310 229T376 221T435 206T461 184Z"
/>
<glyph unicode="&gt;" glyph-name="greater" horiz-adv-x="323" d="M312 259Q312 245 297 222T257 173T203 120T144 72T90 37T50 23Q37 23 31 32T25 52Q25 70 49 100T106 161T171 221T219 263Q201 275 168 297T102 345T45 397T20 444Q20 456 24 465T43 474Q59
474 85 463T141 434T201 392T256 345T296 299T312 259Z" />
<glyph unicode="?" glyph-name="question" horiz-adv-x="500" d="M479 538Q479 506 463 479T422 428T368 387T313 359Q319 311 319 260Q319 243 319 222T313 183T295 151T259 138Q219 138 205 178Q200 193 197 218T193 271T191 325T191 368Q191 382 192 401T202
432Q211 445 232 457T275 484T315 515T332 555Q332 572 324 586T304 609T276 624T244 630Q206 630 184 618T147 591T118 564T83 551Q59 551 40 568T20 609Q20 648 43 675T100 719T172 743T240 751Q280 751 322 734T399 687T456 619T479 538ZM331 52Q331 35 323
23T302 3T274 -9T244 -13Q221 -13 202 -2T182 34Q182 50 190 62T212 84T240 97T270 102Q293 102 312 90T331 52Z" />
<glyph unicode="@" glyph-name="at" horiz-adv-x="724" d="M709 417Q709 373 697 328T661 246T600 186T513 162Q475 162 448 189T415 253Q414 233 405 218T381 194T348 179T312 174Q280 174 255 188T211 225T183 277T173 335Q173 381 191 423T239 497T311 549T399
569Q420 569 445 565T489 551Q503 544 505 527T508 497Q508 468 503 438T492 379Q487 358 483 338T478 296Q478 279 484 266T510 252Q535 252 554 272T585 322T604 382T610 434Q610 484 591 521T540 583T466 620T375 633Q315 633 268 612T187 553T136 466T118 358Q118
299 136 250T187 166T269 110T377 90Q408 90 436 96T491 109T542 123T591 129Q604 129 620 123T637 100Q637 81 620 66T577 40T519 21T456 8T400 1T362 -2Q332 -2 298 1T234 16Q178 37 137 72T69 153T29 253T15 365Q15 441 42 509T119 628T235 710T381 740Q453
740 513 717T616 652T684 550T709 417ZM428 474Q423 475 418 475T407 475Q389 475 370 471T334 459T303 439T281 411Q272 393 266 374T260 336Q260 324 264 311T275 286T293 268T318 261Q330 261 344 269T370 288T392 312T403 335Q411 370 416 404T428 474Z" />
<glyph unicode="A" glyph-name="A" horiz-adv-x="570" d="M535 148Q535 128 532 100T518 47T491 4T446 -14Q409 -14 391 13T364 77T355 154T352 216Q280 204 210 195Q208 172 202 138T182 73T147 18T94 -5Q70 -5 57 12T36 54T28 103T26 146Q26 203 35 258T56 369Q62
398 72 437T96 517T130 599T175 672T232 724T303 744Q341 744 369 727T418 682T453 619T476 547T492 475T504 413Q517 348 526 282T535 148ZM342 391Q342 403 341 430T334 485T319 534T290 556Q280 556 271 543T255 509T243 463T233 415T227 374T224 347Q284 352
342 362V391Z" />
<glyph unicode="B" glyph-name="B" horiz-adv-x="487" d="M472 591Q472 522 438 466T347 371Q377 365 399 351T435 315T457 268T465 212Q465 155 439 113T370 43T277 2T174 -12Q146 -12 118 -8T65 6Q56 9 50 30T41 83T35 150T32 219T31 277T31 312Q31 347 31 382T33
453Q33 462 33 481T34 523T36 573T40 621T47 660T58 680Q81 695 109 708T167 732T227 748T284 754Q321 754 355 744T415 712T456 661T472 591ZM306 538Q306 555 296 563T268 571Q254 571 239 565T212 549Q209 546 207 532T203 501T201 468T200 447Q200 445 200
441T200 431T202 422T205 418Q222 418 240 430T272 461T296 501T306 538ZM302 249Q302 266 290 273T263 280Q249 280 234 274T208 258Q205 256 204 248T202 231T201 213T200 201Q200 199 200 193T200 181T202 169T206 163Q220 163 237 171T268 191T292 218T302
249Z" />
<glyph unicode="C" glyph-name="C" horiz-adv-x="482" d="M472 509Q472 490 468 469T453 430T427 400T388 388Q353 388 336 400T312 432T305 472T303 513T297 544T273 557Q253 557 238 543T212 505T194 453T182 396T175 342T173 300Q173 279 174 250T184 195T208
150T254 131Q274 131 293 136T331 147T369 159T409 164Q432 164 447 146T462 104Q462 72 442 45T393 -4T329 -37T266 -49Q194 -49 144 -17T63 67T19 182T5 309Q5 351 13 401T37 501T77 599T135 682T209 740T301 762Q350 762 383 738T436 676T464 594T472 509Z"
/>
<glyph unicode="D" glyph-name="D" horiz-adv-x="560" d="M545 450Q545 362 509 281T413 136T272 36T102 -2H100Q82 -2 71 14T51 56T39 112T33 172T31 225T31 261Q31 295 32 328T35 396Q35 407 36 428T40 477T45 533T51 588T58 633T67 660Q80 682 107 699T165
727T229 743T286 749Q352 749 400 725T481 659T529 563T545 450ZM377 421Q377 443 369 466T347 508T312 538T266 550Q245 550 223 540Q218 537 214 522T208 484T203 436T201 387T200 345T199 321Q199 311 199 292T200 253T204 220T211 206Q241 206 270 229T324
287T362 358T377 421Z" />
<glyph unicode="E" glyph-name="E" horiz-adv-x="481" d="M466 157Q466 138 456 120Q446 103 409 80T327 37T240 2T178 -13Q164 -13 145 -7T107 10T73 33T50 58Q46 65 43 86T37 135T32 194T29 254T27 305T26 337Q26 374 28 422T38 518T58 611T95 687Q102 696 123
706T172 725T234 742T297 755T353 764T391 768Q406 768 419 762T442 744T457 720T463 691Q463 678 460 669T449 649Q439 636 407 618T338 583T266 551T217 531Q213 508 209 485T202 437Q233 453 272 467T346 481Q417 481 417 411Q417 394 411 381T394 358T370 341T343
326Q311 309 276 297T206 272Q204 264 202 255T200 236Q200 222 202 208T206 180Q218 184 244 193T300 211T356 226T396 233Q411 233 424 227T446 210T460 185T466 157Z" />
<glyph unicode="F" glyph-name="F" horiz-adv-x="413" d="M438 722Q438 684 412 653T349 598T270 555T199 525Q199 504 198 482T195 438Q227 454 267 468T343 482Q372 482 390 470T409 428Q409 395 386 369T329 323T260 289T199 267Q199 234 198 202T195 137Q194
121 192 97T182 51T160 12T124 -5Q103 -5 88 15T63 68T46 139T36 217T32 287T31 336Q31 349 31 374T32 431T34 496T38 560T43 614T52 649Q63 671 104 692T197 730T296 757T371 768Q383 768 394 767T416 760T432 746T438 722Z" />
<glyph unicode="G" glyph-name="G" horiz-adv-x="533" d="M478 240Q469 195 450 147T400 58T327 -7T231 -33Q191 -33 159 -17T101 26T56 88T25 160T6 235T0 304Q0 349 8 400T34 502T77 599T138 681T218 738T318 760Q353 760 383 747T435 711T469 657T482 592V583Q482
565 481 539T471 488T447 447T402 429Q367 429 349 445T331 498Q331 512 332 526T333 554Q333 575 326 586T297 598Q272 598 252 582T217 540T191 481T173 415T163 350T160 297Q160 279 162 256T170 211T190 174T224 159Q260 159 282 181T312 239Q298 241 285 245T260
258T241 279T234 309Q234 340 255 357T304 384T363 395T411 398Q424 398 449 396T498 388T541 369T559 338Q559 300 539 273T478 240Z" />
<glyph unicode="H" glyph-name="H" horiz-adv-x="546" d="M510 572Q510 489 506 406T496 239Q495 224 494 199T490 144T482 84T467 30T440 -10T399 -26Q378 -26 362 -17T334 6T317 39T311 78Q311 111 313 144T319 211L220 201Q217 175 214 139T200 69T168 11T110
-13Q87 -13 72 -3T48 24T35 61T31 99Q31 159 36 218T43 338Q45 401 45 464T46 592Q47 613 47 641T54 693T76 735T123 752Q166 752 188 730T219 674T228 603T228 535Q228 495 226 457T222 379L329 395Q330 444 331 492T335 588Q336 611 337 637T345 685T368 721T418
736Q446 736 463 720T491 681T506 632T510 585V572Z" />
<glyph unicode="I" glyph-name="I" horiz-adv-x="360" d="M376 679Q376 660 368 645T345 620T314 602T281 592Q279 479 273 374T252 157H258Q274 157 289 154T317 142T337 121T345 90Q345 67 331 50T293 21T240 1T182 -11T127 -18T85 -20Q73 -20 56 -19T23 -13T-4
2T-15 29Q-15 50 -7 66T16 96T47 117T83 129Q90 184 96 238T104 349Q106 406 108 461T112 573Q105 572 99 572T88 571Q74 571 58 574T28 584T5 603T-5 631Q-5 665 23 687T91 721T172 737T238 742Q252 742 275 740T320 731T359 712T376 679Z" />
<glyph unicode="J" glyph-name="J" horiz-adv-x="436" d="M406 372V347Q405 310 402 268T392 185T371 107T333 40T274 -6T189 -23Q135 -23 95 0T27 60T-13 144T-26 239Q-26 260 -22 286T-6 334T22 372T67 388Q96 388 110 372T131 333T140 282T145 231T155 191T181
175Q202 175 214 193T231 235T238 285T240 324Q240 380 231 433T207 542Q200 570 192 599T184 657Q184 691 202 712T255 734Q281 734 296 724T326 693Q349 662 364 622T389 539T402 453T406 372Z" />
<glyph unicode="K" glyph-name="K" horiz-adv-x="538" d="M532 44Q532 16 518 -1T475 -19Q452 -19 433 -5T397 29T368 73T347 113Q326 155 306 197T265 282L205 245Q206 216 202 187T196 129Q194 109 190 86T175 42T148 7T106 -7Q83 -7 68 2T44 27T30 61T26 100V108Q26
167 32 226T41 346Q43 425 46 504T54 662Q55 680 60 697T75 727T99 749T134 757Q165 757 180 735T202 682T208 618T207 563Q207 500 204 437Q233 461 260 492T309 555Q322 574 339 607T376 672T420 727T471 751Q500 751 513 735T527 691Q527 651 515 609T481 527T434
450T380 386Q408 339 433 292T483 196Q492 180 500 161T516 122T527 82T532 44Z" />
<glyph unicode="L" glyph-name="L" horiz-adv-x="502" d="M507 138Q507 113 487 91T434 51T361 20T282 -3T209 -18T154 -23Q135 -23 114 -20T78 -4Q70 2 64 23T53 73T43 135T37 201T33 260T31 302Q31 327 32 362T37 438T45 521T56 600T72 668T93 715Q112 742 141
742Q161 742 175 729T197 694T210 646T217 593T219 545T219 510Q219 432 216 356T212 201V162Q257 176 310 188T411 201Q428 201 445 199T476 191T498 172T507 138Z" />
<glyph unicode="M" glyph-name="M" horiz-adv-x="763" d="M714 109Q711 83 706 58T692 14T672 -17T643 -29Q627 -29 614 -5T590 60T569 152T552 255T539 358T531 445Q525 407 517 360T498 265T474 170T446 87T414 28T378 6Q361 6 344 29T311 89T281 173T255 265T234
353T220 423Q220 402 220 377T219 340Q219 335 219 307T215 240T206 157T189 74T160 10T118 -18Q98 -9 85 12T62 63T48 125T40 189T37 248T36 292Q36 322 39 367T51 463T72 563T103 652T146 717T203 742Q218 742 235 725T269 681T302 619T332 551T358 485T376 431Q384
455 396 487T422 553T454 621T491 681T529 724T569 741Q604 741 629 715T671 648T698 555T713 453T720 358T722 287Q722 276 722 257T722 214T719 163T714 109Z" />
<glyph unicode="N" glyph-name="N" horiz-adv-x="648" d="M612 429Q612 407 610 367T603 278T587 179T561 87T522 20T467 -7Q437 -7 412 10T367 53T332 108T307 161Q286 212 265 261T225 362V334Q225 291 225 249T218 164Q216 147 214 125T206 80T192 39T166 11Q157
6 150 5T133 2H130Q107 2 91 17T64 57T47 112T37 172T32 227T31 267Q31 290 33 334T41 433T58 544T86 647T127 723T183 753Q214 753 238 729T282 672T314 603T336 543Q353 496 369 450T400 355Q401 353 404 344T411 324Q415 312 421 297Q421 310 421 315T420 325T420
337T420 359Q419 392 419 425T418 490Q418 504 418 529T421 582T429 640T443 692T467 731T503 746Q528 746 546 727T576 679T595 613T606 541T611 476T612 429Z" />
<glyph unicode="O" glyph-name="O" horiz-adv-x="538" d="M259 -33Q198 -33 153 -3T79 79T35 199T20 342Q20 412 35 484T83 614T164 709T281 746Q347 746 391 711T462 619T500 492T512 352Q512 274 497 205T450 82T371 -2T259 -33ZM271 525Q252 525 239 510T216
471T203 416T199 354Q199 319 203 284T217 221T239 176T272 159Q294 159 307 181T327 234T337 298T340 353Q340 380 337 410T325 465T304 508T271 525Z" />
<glyph unicode="P" glyph-name="P" horiz-adv-x="488" d="M494 536Q494 482 471 430T408 337T319 269T216 239Q215 221 215 194T211 136T203 76T187 22T160 -17T119 -32Q91 -32 75 -14T50 31T38 85T34 134Q32 163 32 191T31 248Q31 261 31 296T31 377T33 472T36
564T40 637T47 672Q48 673 53 676T64 683T75 690T82 694Q128 720 183 739T292 758Q338 758 375 740T439 691T480 620T494 536ZM321 513Q321 533 312 548T280 563Q261 563 242 556T207 540Q210 505 212 472T213 404Q229 412 248 422T283 446T310 475T321 513Z" />
<glyph unicode="Q" glyph-name="Q" horiz-adv-x="545" d="M286 162Q276 179 269 197T260 231T262 262T281 287Q292 295 306 293T336 281Q338 301 339 320T340 353Q340 380 337 410T325 465T304 508T271 525Q252 525 239 510T216 471T203 416T199 354Q199 319 203
284T217 221T239 176T272 159Q280 159 286 162ZM478 121Q488 107 500 86T518 42T524 -1T507 -33Q495 -42 481 -41T453 -32T423 -12T394 16Q367 -7 334 -20T259 -33Q198 -33 153 -3T79 79T35 199T20 342Q20 412 35 484T83 614T164 709T281 746Q347 746 391 711T462
619T500 492T512 352Q512 290 502 234T472 129L478 121Z" />
<glyph unicode="R" glyph-name="R" horiz-adv-x="523" d="M518 526Q518 457 486 402T401 305Q417 281 434 249T464 182T486 111T495 45Q495 13 480 -12T427 -38Q396 -38 374 -8T334 63T302 148T274 217Q256 211 239 204T204 189Q203 167 201 129T190 52T164 -14T117
-42Q84 -42 66 -15T41 49T32 124T31 185Q31 232 33 277T35 370Q35 413 34 456T32 543Q32 553 32 568T33 600T37 632T44 656Q54 677 89 696T167 729T250 752T311 761Q362 761 401 742T466 691T505 616T518 526ZM333 512Q333 538 321 551T282 565Q262 565 242 558T204
542Q208 463 207 385Q228 392 250 403T290 430T321 466T333 512Z" />
<glyph unicode="S" glyph-name="S" horiz-adv-x="362" d="M357 702Q357 679 343 662T308 634Q290 623 271 611T236 583T210 548T200 505Q200 484 210 467T234 434T266 400T298 361T323 312T333 249Q333 224 323 193T294 129T252 67T200 14T142 -24T84 -39Q53 -39
29 -22T5 29Q5 52 16 71T43 109T78 144T114 178T141 213T152 253Q152 282 132 312T86 375T41 442T20 511Q20 554 43 601T102 688T183 754T272 780Q307 780 332 759T357 702Z" />
<glyph unicode="T" glyph-name="T" horiz-adv-x="381" d="M463 683Q463 658 444 638T397 602T340 576T292 562Q284 485 280 409T275 255Q275 214 277 174T279 94Q279 76 276 55T264 14T240 -18T203 -31Q177 -31 162 -17T138 19T126 63T123 106Q121 166 120 226T119
348Q119 399 119 448T120 548Q106 546 92 545T62 544Q50 544 31 546T-7 555T-38 573T-51 603Q-51 633 -28 655T32 694T113 722T201 740T281 750T338 753Q357 753 378 752T419 743T450 722T463 683Z" />
<glyph unicode="U" glyph-name="U" horiz-adv-x="602" d="M566 351Q566 310 562 267T548 182T521 105T476 41T411 -3T322 -19Q247 -19 192 16T99 105T44 227T26 361Q26 368 26 374T27 385Q28 406 30 442T39 519T54 603T79 680T117 736T169 758Q191 758 206 745T230
713T244 672T248 632Q248 605 243 578T232 523Q224 480 219 437T214 349Q214 326 216 293T229 230T257 178T308 156Q339 156 357 177T385 227T396 288T399 343Q399 409 388 473T359 602Q354 619 351 636T347 670Q347 698 363 719T410 740Q435 740 456 721T495 670T524
599T546 522T559 448T565 391Q566 381 566 372T566 351Z" />
<glyph unicode="V" glyph-name="V" horiz-adv-x="497" d="M512 662Q512 626 503 582T481 491T452 402T424 323Q416 301 407 269T385 200T357 128T324 64T285 17T238 -1Q217 -1 198 18T161 66T128 132T100 204T79 269T66 315Q46 393 28 472T10 632Q10 652 12 673T22
713T44 742T85 754Q107 754 125 730T159 666T186 579T210 485T231 398T251 333Q257 353 268 391T295 476T329 570T368 658T411 723T456 748Q473 748 484 740T501 719T509 691T512 662Z" />
<glyph unicode="W" glyph-name="W" horiz-adv-x="655" d="M645 587Q645 527 637 469T618 353Q615 338 609 305T595 230T574 145T548 65T516 6T478 -18Q458 -18 440 2T406 52T377 121T355 194T339 259T329 304Q325 291 317 263T295 199T266 126T233 58T196 7T158
-13Q133 -13 114 9T82 65T60 142T46 226T38 304T34 361Q31 409 29 455T26 549Q26 566 27 595T34 653T54 703T94 727Q116 728 132 709T159 659T176 589T186 514T191 448T191 404L190 378Q193 391 200 419T219 482T242 555T269 624T297 675T324 697Q341 698 356 677T384
623T407 548T424 469T436 399T442 355Q443 371 447 405T458 482T475 569T500 651T532 711T572 735Q597 735 612 719T634 679T643 630T645 587Z" />
<glyph unicode="X" glyph-name="X" horiz-adv-x="490" d="M521 703Q521 681 513 656T493 606T468 556T443 513Q420 470 397 427T348 340Q361 318 381 280T421 200T455 118T470 52Q470 32 459 15T425 -3Q398 -3 371 19T319 73T274 136T241 189Q224 167 207 146T172
103Q161 89 146 70T112 31T74 -1T36 -14Q23 -14 15 -9T1 6T-7 26T-10 48Q-10 79 0 110T25 169Q74 273 128 375Q117 398 101 439T68 525T41 612T29 681Q29 710 43 732T89 755Q107 755 122 746T151 722T174 691T190 660Q207 624 224 589T256 515Q264 529 278 553T310
604T349 659T392 709T436 746T479 761Q501 761 511 741T521 703Z" />
<glyph unicode="Y" glyph-name="Y" horiz-adv-x="445" d="M481 688Q481 644 470 591T440 484T401 379T362 289Q352 267 338 234T305 162T267 86T224 17T179 -33T133 -53Q101 -53 88 -30T74 23Q74 51 83 82T107 145T139 205T172 257Q152 262 133 275T105 306Q89
341 72 385T42 474T19 565T10 649Q10 667 14 688T27 728T52 759T91 772Q117 772 137 753T172 703T199 636T218 563T231 497T240 450Q244 465 253 495T276 563T307 639T344 710T386 762T431 783Q446 783 456 772T471 746T479 715T481 688Z" />
<glyph unicode="Z" glyph-name="Z" horiz-adv-x="439" d="M450 662Q450 657 441 633T415 574T379 496T336 407T293 317T255 238T225 178T210 147Q241 157 273 163T339 170Q355 170 373 168T406 158T432 138T443 104Q443 82 428 65T390 34T336 12T276 -3T219 -11T174
-14Q151 -14 124 -12T71 -1T30 25T13 75Q13 97 25 134T55 211T90 287T120 345Q154 408 188 470T256 597Q221 577 176 561T91 544Q77 544 62 548T34 559T13 579T5 607Q5 633 22 655T66 695T128 727T198 750T264 764T318 769Q376 769 413 746T450 662Z" />
<glyph unicode="[" glyph-name="bracketleft" horiz-adv-x="273" d="M263 5Q263 -12 249 -22T216 -39T177 -48T145 -51Q137 -51 127 -50T107 -47T89 -39T76 -26Q70 -16 66 23T57 119T50 239T45 363T42 471T41 541Q41 548 41 568T41 613T43 666T47 718T53 759T62
780Q74 788 93 791T127 794Q140 794 159 792T197 783T227 764T240 734Q240 720 233 710T216 692T192 682T167 678Q159 678 155 679Q156 603 157 527T158 376Q158 299 161 224T168 73Q195 72 219 62T257 27Q259 23 261 16T263 5Z" />
<glyph unicode="\" glyph-name="backslash" horiz-adv-x="346" d="M336 17Q336 7 332 -8T314 -23Q299 -23 281 -1T243 55T204 130T168 210T139 280T122 325Q109 359 90 408T53 508T23 608T10 691Q10 697 11 705T14 720T22 733T35 738Q48 738 66 715T103 655T143
574T180 488T211 415T229 368Q242 336 260 290T295 193T324 96T336 17Z" />
<glyph unicode="]" glyph-name="bracketright" horiz-adv-x="258" d="M217 208Q217 200 217 181T217 135T215 81T211 29T205 -12T196 -34Q184 -42 165 -44T131 -47Q117 -47 98 -45T61 -36T31 -18T18 13Q18 27 25 37T42 55T66 65T91 69H103Q101 145 100 220T99
372Q99 527 102 682Q87 682 71 685T41 694T19 713T10 743Q10 759 21 770T47 789T80 799T109 802Q127 802 150 797T182 773Q187 762 192 723T201 628T208 510T213 387T216 280T217 208Z" />
<glyph unicode="^" glyph-name="asciicircum" horiz-adv-x="460" d="M444 509Q444 497 436 491T416 484Q399 484 371 507T312 562T255 623T215 669Q203 652 182 621T137 558T88 503T43 479Q32 479 24 483T15 501Q15 516 25 540T53 593T92 651T136 704T180 743T218
758Q232 758 254 744T301 706T351 655T397 598T431 547T444 509Z" />
<glyph unicode="_" glyph-name="underscore" horiz-adv-x="501" d="M501 25Q501 5 482 -1Q458 -8 427 -11T362 -16T295 -18T236 -18Q215 -18 187 -18T129 -18T71 -15T23 -9Q10 -7 5 1T0 22Q0 33 4 41T20 53Q25 55 44 56T90 60T147 63T205 66T255 67T286 68Q302
68 329 68T384 67T438 64T479 58Q491 55 496 46T501 25Z" />
<glyph unicode="`" glyph-name="grave" horiz-adv-x="216" d="M185 646Q185 638 179 634T164 629Q146 629 127 640T93 660Q84 666 74 673T54 689T38 708T31 730Q31 745 42 756T68 768Q83 768 103 755T141 722T172 682T185 646Z" />
<glyph unicode="a" glyph-name="a" horiz-adv-x="485" d="M455 141Q455 123 454 94T445 38T423 -10T381 -30Q344 -30 324 -6T305 54Q273 26 233 10T150 -6Q121 -6 95 8T49 44T17 93T5 148Q5 196 34 232T107 293T198 334T285 354Q285 359 285 363T286 372Q286 403
269 422T221 441Q196 441 178 433T144 414T112 395T76 386Q54 386 39 400T23 436Q23 469 42 496T91 541T155 570T219 581Q246 581 273 575T324 555T367 522T399 476Q417 439 428 398T445 313T453 226T455 141ZM295 173L292 241Q290 241 288 241T284 242Q271 242
252 236T214 218T184 192T171 163Q171 149 181 144T204 139Q226 139 251 150T295 173Z" />
<glyph unicode="b" glyph-name="b" horiz-adv-x="534" d="M503 330Q503 301 499 265T485 190T460 116T422 52T370 6T301 -11Q260 -11 227 8T169 60Q166 33 147 13T99 -8Q82 -8 71 9T52 52T42 111T37 173T36 227T36 261Q36 295 36 329T38 398Q38 415 38 449T38
524T42 609T55 689T80 748T121 772Q141 772 155 758T178 721T193 670T201 613T204 559T205 517Q205 514 205 504T204 481T204 460T204 449Q213 468 230 486T268 518T312 541T356 550Q398 550 426 529T472 474T496 403T503 330ZM356 300Q356 312 355 326T348 352T333
372T308 380Q292 380 277 373T247 355T221 332T200 307L190 218Q206 195 229 182T281 168Q303 168 317 182T340 216T352 260T356 300Z" />
<glyph unicode="c" glyph-name="c" horiz-adv-x="427" d="M401 384Q401 379 400 374T397 363Q388 340 369 325T324 309Q285 309 271 348Q269 353 269 359T268 373V402Q266 416 261 424T244 432Q227 432 212 411T185 360T166 299T159 249Q159 234 161 213T169 171T185
137T213 122Q230 122 244 132T273 157Q286 169 301 182T337 195Q362 195 376 177T391 136Q391 102 373 73T328 22T268 -12T205 -25Q151 -25 114 2T53 70T20 161T10 254Q10 305 24 364T67 475T141 560T250 594Q289 594 317 577T364 533T392 471T402 404Q402 399
402 394T401 384Z" />
<glyph unicode="d" glyph-name="d" horiz-adv-x="497" d="M461 658Q461 585 456 513T450 368Q450 309 453 251T457 134Q457 118 456 96T450 52T432 16T396 1Q366 1 347 23T322 74Q303 38 267 13T189 -12Q144 -12 112 19T58 94T26 186T15 269Q15 294 18 326T28
391T48 455T78 512T122 552T181 567Q217 567 250 546T300 494L309 653Q310 672 312 697T320 746T341 785T382 801Q411 801 427 787T450 752T459 705T461 658ZM298 214Q298 237 297 259T297 304Q291 317 283 332T264 361T238 384T208 393Q190 393 179 382T163 356T157
322T155 291Q155 279 157 256T164 208T180 166T207 148Q220 148 233 153T257 167T279 186T298 206V214Z" />
<glyph unicode="e" glyph-name="e" horiz-adv-x="459" d="M449 178Q449 144 428 112T374 54T304 13T236 -3Q183 -3 142 23T72 91T30 181T15 278Q15 328 29 385T71 490T143 570T247 602Q281 602 312 591T366 558T403 508T417 443Q417 396 397 355T344 284T268 236T180
215Q184 186 203 173T250 160Q270 160 289 170T326 192T361 215T397 225Q417 225 433 212T449 178ZM287 423Q287 436 280 450T258 464Q236 464 221 453T196 424T181 386T174 349Q188 352 207 357T244 370T274 392T287 423Z" />
<glyph unicode="f" glyph-name="f" horiz-adv-x="382" d="M449 598Q449 579 446 562T433 531T409 511T372 503Q347 503 335 513T319 537T314 569T313 600T305 625T283 635Q268 635 259 612T243 559T235 501T233 462Q246 464 258 465T284 467Q298 467 313 464T341
455T362 437T370 408Q370 390 355 376T318 353T274 337T239 329Q242 260 242 190Q242 124 239 60Q237 29 218 9T167 -11Q150 -11 138 -5T118 13T106 38T100 67Q95 127 92 187T90 309Q83 308 77 308T63 308Q51 308 34 311T2 321T-25 340T-36 368Q-36 390 -22 405T13
429T56 443T96 449V465Q96 514 105 570T137 674T200 753T302 785Q341 785 369 769T415 726T441 666T449 598Z" />
<glyph unicode="g" glyph-name="g" horiz-adv-x="524" d="M483 341Q483 290 482 239T476 137Q473 93 468 43T452 -56T423 -151T376 -232T304 -288T204 -309Q177 -309 144 -301T81 -276T31 -237T10 -182Q10 -159 26 -140T69 -120Q85 -120 99 -125T128 -138T156
-150T184 -156Q221 -156 246 -138T286 -91T308 -29T319 35Q299 12 273 4T217 -5Q164 -5 127 13T67 64T33 140T22 233Q22 264 28 303T48 382T80 460T126 527T184 574T256 592Q294 592 323 570T358 508Q369 529 387 549T431 570Q445 570 454 556T469 520T478 471T482
419T483 372T483 341ZM331 276Q331 291 327 315T314 361T292 399T261 415Q238 415 221 399T191 361T173 313T166 269Q166 256 168 234T176 191T194 155T223 140Q250 140 270 153T303 186T324 230T331 276Z" />
<glyph unicode="h" glyph-name="h" horiz-adv-x="525" d="M484 259Q484 242 484 209T481 139T474 70T464 22Q456 3 443 -11T408 -25Q374 -25 359 2T339 69T335 156T334 243T323 310T290 337Q257 337 240 327T215 299T206 260T202 214Q200 191 199 152T190 75T164
10T109 -18Q87 -18 74 -1T52 43T41 103T37 167T36 225T37 264Q37 284 38 330T45 432T58 549T79 658T110 739T154 769Q170 768 181 755T200 722T213 677T220 630T223 586T224 555Q224 529 223 503T220 451Q243 482 281 502T359 522Q409 522 434 495T471 427T483
341T484 259Z" />
<glyph unicode="i" glyph-name="i" horiz-adv-x="244" d="M195 698Q195 684 188 673T168 654T142 641T116 636Q96 636 81 646T66 677Q66 692 73 703T92 722T117 734T144 738Q163 738 179 729T195 698ZM203 358Q203 344 203 329T202 299Q201 282 201 254T199 192T193
125T178 63T152 18T110 -1Q91 -2 78 14T57 55T44 112T38 173T36 228T36 265Q36 281 36 310T38 374T45 443T61 507T89 554T132 572Q159 572 173 545T194 482T202 411T203 358Z" />
<glyph unicode="j" glyph-name="j" horiz-adv-x="270" d="M200 688Q200 674 192 663T172 643T146 631T120 626Q100 626 85 636T70 667Q70 682 77 693T96 712T121 724T148 728Q167 728 183 719T200 688ZM219 254Q219 207 217 150T205 34T175 -76T119 -163Q99 -182
72 -203T15 -242T-47 -271T-106 -283Q-138 -283 -153 -266T-169 -217Q-169 -185 -152 -169T-110 -141T-56 -115T-1 -71T41 7T58 138Q58 189 56 238T50 338Q48 367 46 396T44 455Q44 473 49 493T64 529T89 556T127 567Q152 567 168 548T195 500T210 434T217 363T219
299T219 254Z" />
<glyph unicode="k" glyph-name="k" horiz-adv-x="479" d="M474 538Q474 510 460 481T425 424T382 370T342 323Q356 301 377 265T417 187T449 107T463 42Q463 21 450 4T414 -14Q397 -14 380 0T345 38T311 91T282 148T258 200T241 240Q228 227 214 219T185 199Q185
178 184 140T175 65T150 1T100 -27Q74 -27 60 -4T40 51T32 115T31 165Q31 239 35 313T40 461Q40 478 40 505T44 565T53 630T70 689T98 732T141 749Q159 749 171 736T191 701T202 654T207 603T209 555T209 520Q209 511 209 494T208 457T207 422T209 399Q216 399
230 412T262 447T302 491T346 536T391 570T432 584Q452 584 463 570T474 538Z" />
<glyph unicode="l" glyph-name="l" horiz-adv-x="263" d="M217 606Q217 552 213 498T208 388Q208 317 212 246T217 103Q217 85 215 63T206 21T183 -11T143 -24Q119 -24 102 -1T73 59T54 141T43 228T38 306T36 359Q36 378 37 414T44 492T57 577T80 656T113 714T160
737Q182 737 193 723T210 688T216 645T217 606Z" />
<glyph unicode="m" glyph-name="m" horiz-adv-x="673" d="M637 330Q637 311 637 279T636 208T629 132T614 62T587 11T546 -9Q524 -9 513 9T496 53T491 104T490 145Q490 190 493 233T496 321Q496 326 496 339T494 365T488 388T474 398Q456 398 445 380T427 336T417
287T413 250Q411 237 410 211T406 154T398 91T384 32T362 -12T330 -29Q306 -29 293 -8T274 41T267 98T265 143Q265 160 265 176T266 209Q266 216 266 232T266 267T264 308T259 346T250 375T236 386Q223 386 212 370T193 331T181 286T176 254V248Q176 200 182 154T188
60Q188 32 170 9T120 -15Q97 -15 82 2T57 48T42 109T34 175T32 234T31 274Q31 289 31 318T31 381T37 450T50 515T73 562T111 581Q137 581 153 567T170 525Q170 519 170 513T168 502Q179 518 195 534T229 564T269 586T311 595Q331 595 347 584T375 557T395 521T406
485Q416 503 430 521T462 554T499 577T542 586Q563 586 578 571T604 533T621 480T631 422T636 369T637 330Z" />
<glyph unicode="n" glyph-name="n" horiz-adv-x="478" d="M314 -28Q297 -28 287 -13T272 23T266 63T264 95Q264 125 267 155T275 215T283 275T287 335Q287 347 286 361T282 387T270 408T249 416Q240 416 229 402T209 369T193 332T186 304Q186 282 186 260T187
214V156Q186 138 184 119T178 82Q175 64 169 48T154 19T131 -2T100 -10Q80 -10 67 3T46 36T35 82T30 132T28 177T29 210V257Q29 295 28 332T26 406Q26 426 26 457T34 517T57 568T104 589Q118 589 129 580T148 558T162 530T171 504Q181 518 194 531T225 554T263
570T311 576Q362 576 390 552T432 491T449 412T452 336Q452 319 449 286T440 212T422 129T396 51T361 -6T314 -28Z" />
<glyph unicode="o" glyph-name="o" horiz-adv-x="458" d="M220 -29Q169 -29 131 -2T67 67T28 160T15 262Q15 315 28 371T68 474T137 550T237 580Q293 580 332 550T396 474T430 374T437 272Q434 219 421 165T381 68T315 -2T220 -29ZM230 423Q215 423 204 407T185
368T173 320T169 275Q169 251 173 223T186 172T205 133T232 117Q248 117 259 132T278 170T288 220T291 272Q291 294 287 320T276 370T257 408T230 423Z" />
<glyph unicode="p" glyph-name="p" horiz-adv-x="519" d="M488 298Q488 254 479 202T447 104T388 29T296 -1Q282 -1 267 1T239 8T214 21T197 44L188 -100Q187 -123 187 -155T179 -216T154 -265T103 -286Q84 -286 71 -267T51 -217T39 -150T34 -79T33 -17T33 24Q33
91 32 157T31 291Q31 303 31 328T33 384T39 446T53 504T76 547T110 564Q123 564 133 557T151 538T164 513T172 489Q203 524 243 542T330 560Q378 560 408 533T456 466T481 381T488 298ZM345 306Q345 321 343 336T334 365T315 387T285 396Q261 396 235 381T195 345Q190
337 189 319T188 292Q188 285 188 274T190 250T192 227T197 210Q200 201 210 194T232 180T256 171T278 168Q299 168 312 184T332 222T342 267T345 306Z" />
<glyph unicode="q" glyph-name="q" horiz-adv-x="513" d="M495 465Q487 392 479 320T468 176Q463 93 464 19T465 -138Q465 -158 465 -187T457 -243T435 -289T388 -308Q373 -308 363 -299T345 -276T333 -243T325 -206Q320 -167 320 -129T319 -72V6V62Q296 32 260
17T187 1Q142 1 110 22T56 77T25 151T15 229V235Q15 287 31 347T78 460T157 546T268 581Q302 581 330 567T371 521Q379 544 395 558T438 573Q471 573 484 552T498 504Q498 493 497 484T495 465ZM265 441Q242 441 222 423T187 378T164 321T155 268Q155 254 157 238T165
208T180 184T205 174Q218 174 235 180T270 197T300 221T318 246Q321 253 323 267T326 296T329 327T330 350Q330 362 325 377T310 407T289 431T265 441Z" />
<glyph unicode="r" glyph-name="r" horiz-adv-x="432" d="M377 374Q363 373 353 376T333 384Q324 388 315 391T295 394Q275 393 260 383T232 358T210 325T196 288Q193 276 192 252T190 199Q189 170 189 144T187 103Q186 87 182 66T170 25T147 -7T111 -20Q94 -20
82 -10T61 16T47 55T38 100Q35 124 34 148T32 193T31 233T32 262Q31 297 29 332T26 403Q26 425 28 452T39 502T65 542T114 558Q131 558 143 547T162 520T174 486T179 453Q203 492 233 516T311 543Q335 544 358 539T401 521T433 488T447 441Q449 409 428 392T377
374Z" />
<glyph unicode="s" glyph-name="s" horiz-adv-x="333" d="M323 550Q323 521 304 507T260 481T217 451T197 400Q197 382 205 369T226 346T254 324T281 299T302 265T311 216Q311 174 290 134T235 62T159 11T76 -8Q59 -8 42 -6T12 4T-11 23T-20 56Q-20 84 -9 99T19
124T55 138T92 150T120 170T131 204Q131 225 115 247T78 295T42 350T25 414Q25 457 42 493T89 557T157 599T237 615Q253 615 268 612T296 602T315 582T323 550Z" />
<glyph unicode="t" glyph-name="t" horiz-adv-x="384" d="M263 -36Q192 -36 153 -18T94 35T70 117T66 224Q66 271 69 318T78 420Q64 420 56 420T43 419Q11 419 -12 433T-36 476Q-36 494 -23 508T12 532T57 548T104 556Q104 584 108 618T122 681T151 731T197 751Q213
751 225 742T246 718T258 685T262 650Q262 630 259 609T248 557Q265 559 271 559T282 560Q299 560 317 557T351 547T377 529T387 501Q387 483 373 469T336 445T289 430T242 422Q236 381 234 347T228 277Q226 260 225 243T223 207Q223 194 224 177T231 143T250 116T286
104Q300 104 315 106T345 109Q371 109 382 91T394 45Q394 24 382 9T350 -16T308 -31T263 -36Z" />
<glyph unicode="u" glyph-name="u" horiz-adv-x="499" d="M468 286Q468 231 457 177T420 81T351 12T242 -14Q178 -14 135 11T67 79T31 174T20 282Q20 342 34 401Q37 417 45 445T67 501T98 549T137 569Q157 569 169 558T188 531T197 496T199 462Q199 439 196 417T188
373Q184 343 181 313T177 253Q177 238 178 220T186 184T203 156T234 144Q260 144 275 158T298 193T308 238T310 282Q310 326 304 368T293 455Q292 460 292 469Q292 484 297 499T311 526T333 545T362 553Q384 553 401 538T429 498T448 443T460 383T466 327T468 286Z"
/>
<glyph unicode="v" glyph-name="v" horiz-adv-x="498" d="M461 358Q435 289 404 214T337 74Q315 34 288 8T226 -19Q198 -19 172 9T123 77T84 157T59 222Q51 249 41 280T23 343Q15 375 10 406T5 466Q5 505 19 530T74 555Q90 555 103 546T127 519T148 480T167 430Q176
404 184 376T200 322Q208 296 216 272T239 223Q246 241 255 264T274 313T297 366T323 420Q350 474 380 512T441 550Q469 550 481 533T493 489Q493 462 484 428T461 358Z" />
<glyph unicode="w" glyph-name="w" horiz-adv-x="740" d="M528 -13Q496 -13 471 21T426 102T395 200T376 283Q368 263 355 234T324 173T286 109T245 50T202 8T160 -8Q133 -8 113 18T78 86T55 179T40 281T33 376T31 447Q31 472 33 495T43 536T65 564T104 575Q127
575 143 558T171 514T189 452T200 382T205 313T208 255Q214 276 225 306T249 371T277 440T308 501T339 545T368 562H369Q387 562 404 545T437 501T467 440T493 370T514 301T529 243Q530 272 532 308T539 382T554 454T578 516T612 560T660 577Q688 577 701 558T715
510Q715 480 708 430T687 322T657 204T618 96T574 18T528 -13Z" />
<glyph unicode="x" glyph-name="x" horiz-adv-x="452" d="M452 516Q452 500 446 483T431 447T412 413T394 382Q374 350 355 317T315 252Q324 238 340 213T371 161T398 106T409 60Q409 42 395 25T361 8Q340 8 319 23T277 58T239 101T210 139Q197 125 177 101T133
54T86 15T45 -2Q24 -2 12 13T0 48Q0 68 13 99T45 163T82 226T111 273Q101 291 86 320T58 382T35 446T25 499Q25 522 39 536T76 550Q101 550 123 531T164 484T197 427T221 378Q233 396 254 427T303 488T359 540T414 562Q431 562 441 548T452 516Z" />
<glyph unicode="y" glyph-name="y" horiz-adv-x="530" d="M247 -291Q223 -291 193 -284T135 -262T90 -228T71 -182Q71 -172 76 -162T89 -145T108 -133T129 -128Q141 -128 152 -131T176 -140Q189 -145 201 -149T228 -153Q253 -153 271 -136T303 -92T324 -31T336
36T343 98T346 145Q311 92 277 64T192 35Q154 35 126 51T77 93T44 152T25 222T16 292T16 356Q17 378 21 413T36 483T64 540T111 562Q130 561 142 546T161 507T172 457T177 402T178 353T177 318Q177 301 178 284T185 254T203 232T239 224Q265 224 280 237T303 269T313
311T315 354Q315 368 315 388T315 430T319 473T330 512T350 541T383 552Q408 552 426 533T456 482T476 412T488 337T493 268T495 218Q495 176 492 123T481 13T455 -98T411 -196T343 -265T247 -291Z" />
<glyph unicode="z" glyph-name="z" horiz-adv-x="469" d="M479 94Q479 74 463 59T421 32T363 12T299 -1T239 -8T194 -11Q177 -11 147 -10T86 -3T34 18T12 59Q12 79 26 108T62 171T111 240T164 309T213 369T249 415Q235 412 214 407T169 396T125 388T88 384Q76
384 61 388T33 401T10 420T0 445Q0 463 16 478T58 506T116 528T179 544T238 554T283 557Q302 557 329 553T381 539T425 512T443 469Q443 461 442 455T438 440Q436 433 421 409T383 351T334 279T283 206T241 146T217 111Q258 122 300 129T385 137Q395 137 411 136T442
131T468 118T479 94Z" />
<glyph unicode="{" glyph-name="braceleft" horiz-adv-x="298" d="M298 8Q298 -11 290 -24T268 -44T238 -55T205 -59Q141 -59 114 -23T87 74Q87 111 96 143T106 208Q106 246 95 264T69 294T43 319T31 362Q31 379 37 392T59 414Q68 418 76 431T91 459T101 489T105
513Q105 551 97 588T88 664Q88 691 96 717T120 762T158 794T211 806Q242 806 263 792T284 743Q284 717 268 700T227 673Q213 668 210 656T206 629Q206 603 212 577T218 524Q218 509 215 486T205 440T188 397T161 370Q175 365 189 355T215 330T234 300T241 268Q241
250 237 231T226 192T216 151T211 109Q211 89 221 74T254 58Q272 58 285 42T298 8Z" />
<glyph unicode="|" glyph-name="bar" horiz-adv-x="221" d="M170 272Q170 261 170 233T168 169T163 94T153 23T136 -31T111 -52Q96 -52 86 -27T70 39T60 126T55 218T53 297T53 346Q53 384 52 421T51 497Q51 506 51 529T52 583T56 645T66 703T82 747T108 764Q121
764 130 738T147 670T158 580T164 484T168 401T169 349Q170 330 170 311T170 272Z" />
<glyph unicode="}" glyph-name="braceright" horiz-adv-x="293" d="M262 366Q262 349 256 336T233 314Q224 309 217 299T204 275T195 249T191 226Q191 188 200 151T209 75Q209 48 201 22T178 -23T140 -55T87 -67Q56 -67 35 -53T14 -4Q14 23 30 40T70 67Q84 72
88 84T92 111Q92 137 86 163T79 217Q79 232 81 253T90 295T106 333T132 358Q118 362 105 375T81 404T64 439T57 471Q57 489 61 508T72 548T82 588T87 631Q87 650 77 665T44 681Q26 681 13 697T0 731Q0 750 8 763T30 784T60 795T93 799Q156 799 183 762T210 666Q210
628 201 596T191 531Q191 493 204 469T243 419Q253 409 257 395T262 366Z" />
<glyph unicode="~" glyph-name="asciitilde" horiz-adv-x="523" d="M508 287Q508 277 504 270T492 258Q481 250 462 241T420 223T376 210T341 204Q313 204 289 214T244 236T202 258T163 268Q145 268 131 262T104 247T80 233T58 226Q42 226 29 237T15 265Q15 284
31 299T69 325T115 340T154 346Q177 346 200 337T247 316T296 295T351 285Q374 285 392 291T426 304T452 318T471 324Q485 324 496 313T508 287Z" />
<glyph unicode="&#xa0;" glyph-name="uni00A0" horiz-adv-x="241" />
<glyph unicode="&#xa1;" glyph-name="exclamdown" horiz-adv-x="249" d="M203 713Q203 697 195 685T173 663T145 650T115 645Q93 645 74 656T55 694Q55 711 63 723T83 744T111 757T141 761Q164 761 183 750T203 713ZM218 298Q218 279 218 247T217 178T210 103T194
35T163 -15T113 -34Q89 -34 74 -14T50 37T37 106T32 183T30 253T31 304Q31 321 33 349T39 410T51 476T70 537T95 582T128 599Q148 599 162 581T186 534T202 470T212 402T217 340T218 298Z" />
<glyph unicode="&#xa2;" glyph-name="cent" horiz-adv-x="434" d="M409 449Q409 421 389 400T340 379Q323 379 310 387T292 413Q289 423 289 437T289 465T281 488T256 498Q230 498 209 480T172 436T149 380T140 330Q140 311 145 286T162 239T191 202T232 186Q250
186 265 197T293 221T321 246T352 258Q374 258 386 242T399 205Q399 178 384 151T344 101T292 66T237 52Q235 52 234 47T233 40Q232 32 232 22T227 3Q222 -8 211 -12T187 -17Q176 -17 164 -11T152 9Q152 21 154 33T156 58Q156 60 156 64T154 71Q84 117 50 174T15
321Q15 429 66 506T214 632Q215 633 217 641T221 660T226 681T229 694Q242 726 272 726Q285 726 295 720T306 699Q306 685 302 669T297 642V641Q327 635 348 614T382 566T402 507T409 449Z" />
<glyph unicode="&#xa3;" glyph-name="sterling" horiz-adv-x="536" d="M515 520Q515 510 510 501T497 484T478 472T458 467Q439 467 429 477T408 501Q388 525 362 542T304 559Q281 559 266 548T241 518T227 479T222 439V423Q235 422 263 420T320 413T370 397T392
368Q392 356 385 347T367 332T342 322T313 316Q278 311 234 313Q235 298 236 285Q237 274 237 262T239 242Q240 225 240 209T243 176Q257 173 275 170T312 164T349 159T381 157Q401 157 420 161T460 165Q480 165 497 154T514 118Q514 99 495 86T451 66T399 55T358
52Q340 52 325 56T295 64T266 73T234 77Q214 77 196 73T160 63T126 54T95 49Q66 49 50 70T34 119Q34 131 42 141T62 158T87 169T111 177Q117 195 118 211T119 245Q119 279 111 314Q99 314 79 316T39 325T5 342T-10 370Q-10 390 1 400T28 414T62 420T94 421Q95 477
106 523T143 602T210 653T311 672Q341 672 377 662T443 632T494 584T515 520Z" />
<glyph unicode="&#xa4;" glyph-name="currency" horiz-adv-x="444" d="M455 477Q455 449 441 422T407 371L388 345Q396 306 393 274Q392 229 376 182Q395 156 409 129T423 84Q423 67 409 53T371 38Q351 38 331 48T291 72Q275 64 257 59T218 54Q192 54 170 62T128
86Q101 63 81 54T39 44Q16 44 3 57T-10 89Q-10 114 9 148T56 221Q54 232 53 244T52 267Q52 301 59 332Q37 369 19 409T1 475Q1 496 16 508T57 520Q81 520 103 507T144 472Q181 498 231 498Q257 498 277 491T315 472Q343 497 364 507T413 518Q433 518 444 505T455
477ZM225 377Q210 377 199 366T180 340T168 306T164 275Q164 258 168 240T181 205T200 179T227 168Q243 168 254 178T272 204T282 238T285 273Q285 289 281 307T270 340T251 366T225 377Z" />
<glyph unicode="&#xa5;" glyph-name="yen" horiz-adv-x="543" d="M543 653Q543 635 531 614T500 569T458 522T411 478T368 440T335 414V359Q343 359 359 359T391 355T419 345T431 324Q431 313 423 308T404 301Q370 294 337 293L335 248Q348 246 369 245T404 238Q424
231 424 214Q424 202 417 195T397 185Q382 182 366 181T335 179Q334 157 334 130T328 80T305 40T258 24Q235 24 221 35T200 62T190 99T187 137Q187 158 190 178Q174 179 154 181T118 188Q96 196 96 216Q96 228 104 234T124 242Q140 244 157 244T191 245L195 293Q177
295 155 297T115 305Q105 308 99 314T93 331Q93 344 103 349T124 356Q141 358 160 358T199 360L201 403Q177 423 143 451T77 511T23 579T0 647Q0 666 11 676T42 687Q65 687 96 668T160 623T222 570T269 528Q286 542 318 570T385 625T452 674T503 695Q520 695 531
683T543 653Z" />
<glyph unicode="&#xa6;" glyph-name="brokenbar" horiz-adv-x="215" d="M163 585Q163 577 162 559T160 520T156 483T152 459Q148 451 132 448T108 445Q99 445 88 447T73 458Q69 465 65 487T58 535T53 584T51 616Q51 625 52 645T54 687T58 728T62 755Q66 765 80
767T103 770Q112 770 126 768T144 757Q146 752 149 728T156 674T161 619T163 585ZM164 121Q164 113 163 93T161 51T157 9T153 -16Q151 -21 146 -23T133 -28T119 -30T108 -31Q100 -31 89 -29T74 -17Q70 -10 66 14T59 66T54 119T52 155Q52 165 53 186T55 231T59 275T63
304Q66 315 80 317T104 319Q113 319 127 317T145 305Q147 300 150 274T157 217T162 157T164 121Z" />
<glyph unicode="&#xa7;" glyph-name="section" horiz-adv-x="415" d="M394 420Q394 391 383 363T354 311T313 267T266 234Q287 223 304 206T333 167T351 122T358 75Q358 31 330 5T262 -36T178 -55T102 -60H94Q86 -60 76 -59T57 -53T42 -43T35 -25Q35 -8 48 2T76
17Q89 22 114 28T165 43T209 65T228 98Q228 122 213 139T174 172T124 203T74 239T36 288T20 357Q20 413 52 454T138 509Q93 531 65 573T37 666Q37 710 60 737T118 778T193 798T268 803Q284 803 301 803T334 801Q347 799 357 793T367 771Q367 760 361 754T346 743T327
738T307 734Q294 731 273 726T230 712T194 690T179 657Q179 643 195 627T235 593T286 556T338 515T378 470T394 420ZM264 382Q264 405 246 424T209 449Q198 444 186 437T165 421T149 399T143 374Q143 349 160 326T199 292Q221 306 242 329T264 382Z" />
<glyph unicode="&#xa8;" glyph-name="dieresis" horiz-adv-x="391" d="M360 658Q360 629 341 612T293 595Q265 595 245 611T224 657Q224 687 242 708T292 729Q322 729 341 709T360 658ZM167 653Q167 624 148 607T99 590Q71 590 51 606T31 652Q31 682 49 703T98
724Q128 724 147 704T167 653Z" />
<glyph unicode="&#xa9;" glyph-name="copyright" horiz-adv-x="586" d="M565 481Q565 422 544 365T484 264T393 193T278 166Q220 166 173 189T91 251T39 340T20 446Q20 506 41 562T101 663T193 735T308 762Q366 762 413 739T494 677T546 587T565 481ZM497 479Q497
520 484 558T445 625T384 672T305 690Q258 690 218 670T150 616T105 540T89 453Q89 412 103 374T142 306T202 259T282 241Q329 241 368 261T436 315T481 391T497 479ZM413 540Q413 518 400 502T364 486Q334 486 326 497T316 523T314 549T298 561Q281 561 270 548T252
517T243 480T240 449Q240 436 241 423T247 399T261 381T286 374Q309 374 330 381T375 388Q386 388 396 382T407 362Q407 347 394 335T363 313T326 300T294 295Q222 295 182 338T142 452Q142 487 154 522T189 586T243 632T313 650Q363 650 388 618T413 540Z" />
<glyph unicode="&#xaa;" glyph-name="ordfeminine" horiz-adv-x="418" d="M397 362Q397 347 396 322T389 274T371 233T335 216Q303 216 286 236T270 288Q243 264 209 251T138 237Q114 237 92 248T53 279T25 321T15 368Q15 408 40 439T101 491T179 525T253 543Q253
547 253 550T254 558Q254 584 240 600T199 616Q178 616 162 609T133 593T106 577T76 570Q56 570 44 581T31 612Q31 640 47 663T89 702T143 726T197 735Q220 735 243 729T286 712T323 685T350 646Q365 614 374 579T388 507T395 433T397 362ZM261 389L259 446H252Q241
446 225 441T194 426T168 405T157 380Q157 369 165 365T184 360Q203 360 224 369T261 389Z" />
<glyph unicode="&#xab;" glyph-name="guillemotleft" horiz-adv-x="380" d="M359 321Q359 303 348 280T321 233T288 189T258 155Q269 143 285 125T315 85T340 43T351 6Q351 0 349 -6T339 -13Q330 -13 314 -3T278 23T238 58T201 96T174 130T163 155Q163 166 173
184T200 222T237 264T278 302T315 329T344 340Q353 340 356 335T359 321ZM207 327Q207 309 196 286T168 239T135 195T105 160Q116 148 132 130T163 90T188 48T199 11Q199 5 197 -1T186 -8Q177 -8 161 2T125 28T85 63T48 101T21 136T10 161Q10 171 20 189T47 227T84
269T125 307T162 334T191 345Q201 345 204 340T207 327Z" />
<glyph unicode="&#xac;" glyph-name="logicalnot" horiz-adv-x="542" d="M511 141Q511 136 511 122T509 92T506 62T503 45Q499 38 488 37T471 35Q465 35 458 36T446 44Q444 49 441 66T436 103T433 141T431 166Q431 183 432 199T435 231Q387 226 339 223T243 220Q194
220 140 220T38 229Q26 231 21 239T15 259Q15 269 19 278T35 290Q55 296 88 298T158 302T231 303T292 303Q308 303 333 303T386 303T438 301T479 295Q490 293 494 284T500 266Q502 255 504 239T507 204T510 169T511 141Z" />
<glyph unicode="&#xad;" glyph-name="sfthyphen" horiz-adv-x="460" d="M439 255Q439 246 424 241T387 231T337 225T284 221T238 220T210 219Q203 219 187 219T149 220T105 223T64 229T33 239T20 255Q20 266 33 274T67 288T114 296T164 300T209 302T241 303Q256
303 288 301T354 292T413 277T439 255Z" />
<glyph unicode="&#xae;" glyph-name="registered" horiz-adv-x="586" d="M565 486Q565 427 544 370T484 269T393 198T278 171Q220 171 173 194T91 256T39 345T20 451Q20 510 41 566T101 667T193 739T308 766Q366 766 413 743T494 681T546 592T565 486ZM497 483Q497
524 484 562T445 630T384 677T305 695Q258 695 218 675T150 621T105 544T89 457Q89 416 103 378T142 310T202 263T282 245Q329 245 368 265T436 319T481 396T497 483ZM427 539Q427 509 409 487T367 450Q374 441 382 429T397 404T409 376T414 350Q414 333 402 324T373
315Q362 315 354 320T339 335T329 354T322 373Q317 384 312 394T300 414L264 402Q263 390 262 375T255 346T240 323T214 313Q187 313 181 332T174 372Q174 398 178 423T182 474Q182 497 181 520T179 567Q179 572 179 579T181 592Q185 599 204 606T247 620T292 629T322
633Q365 633 396 609T427 539ZM331 534Q331 546 324 550T304 555Q294 555 284 552T264 545Q265 529 265 514T265 481Q274 483 285 487T306 498T324 514T331 534Z" />
<glyph unicode="&#xaf;" glyph-name="overscore" horiz-adv-x="403" d="M373 695Q373 687 361 681T330 671T289 665T246 661T209 660T186 659Q178 659 153 659T101 663T53 673T31 695Q31 712 54 722T107 736T168 742T212 743Q224 743 250 741T304 732T352 717T373 695Z" />
<glyph unicode="&#xb0;" glyph-name="degree" horiz-adv-x="207" d="M197 581Q197 562 190 546T169 517T139 499T103 492Q84 492 67 498T38 517T18 545T10 581Q10 600 17 616T37 645T67 663T103 670Q122 670 139 664T169 645T189 617T197 581ZM156 580Q156 600
141 614T105 628Q85 628 70 614T55 580Q55 560 70 546T105 532Q125 532 140 546T156 580Z" />
<glyph unicode="&#xb1;" glyph-name="plusminus" horiz-adv-x="481" d="M461 345Q461 333 449 327T421 317T389 312T366 311Q346 310 327 310T288 309Q287 302 287 288T285 255T281 217T273 181T262 154T245 142Q231 141 222 163T206 213T197 269T193 305Q182
305 154 305T96 308T43 317T20 337Q20 355 44 364T99 376T159 380T200 379V398Q200 408 201 433T208 484T223 529T250 549Q264 549 272 526T283 474T287 418T288 381Q307 380 326 380T364 378Q371 378 387 377T419 373T448 363T461 345ZM450 55Q450 46 435 41T398
31T348 25T295 21T249 20T221 19Q214 19 198 19T160 20T116 23T75 29T44 39T31 55Q31 66 44 74T78 88T125 96T175 100T220 102T252 103Q267 103 299 101T365 92T424 77T450 55Z" />
<glyph unicode="&#xb2;" glyph-name="twosuperior" horiz-adv-x="354" d="M324 379Q324 362 313 351T286 337Q246 328 199 323T110 318Q105 318 96 318T78 320T61 323T48 328Q40 335 36 352T31 379Q31 387 33 394T41 408Q48 416 55 423T71 438Q84 451 107 477T154
533T195 591T213 637Q213 648 207 655T188 663Q176 663 165 654T143 635T120 615T92 606Q74 606 64 617T53 645Q53 672 65 694T96 733T139 759T188 768Q240 768 274 744T309 664Q309 632 293 596T254 524T204 458T157 406Q188 410 219 413T281 416Q298 416 311
407T324 379Z" />
<glyph unicode="&#xb3;" glyph-name="threesuperior" horiz-adv-x="327" d="M296 458Q296 425 283 397T248 348T196 316T134 304Q122 304 105 306T71 313T44 329T32 356Q32 393 69 393Q86 393 102 390T136 386Q149 386 162 390T186 403T203 422T210 447Q210 455
207 466T199 488T186 505T168 512Q148 512 131 503T93 494Q80 494 74 505T68 527Q68 552 90 561Q102 566 120 574T157 592T187 616T200 645Q200 659 190 670T167 681Q154 681 143 674T120 658T97 642T72 635Q58 635 45 644T31 669Q31 691 45 708T81 738T125 758T167
765H170Q224 765 256 735T288 650Q288 618 274 594T228 558Q263 550 279 521T296 458Z" />
<glyph unicode="&#xb4;" glyph-name="acute" horiz-adv-x="210" d="M179 737Q179 726 173 716T159 696T140 680T122 666Q115 661 107 655T89 643T70 633T51 629Q43 629 37 633T31 647Q31 662 42 683T71 725T107 760T142 775Q156 775 167 764T179 737Z" />
<glyph unicode="&#xb5;" glyph-name="mu" horiz-adv-x="365" d="M334 248Q334 228 333 201T328 145T316 88T295 38T262 2T214 -12Q185 -12 157 3T121 48Q121 39 120 11T113 -48T99 -101T71 -125Q58 -125 50 -112T36 -77T27 -30T23 20T21 64T21 93Q21 108 21 136T22
197T26 264T37 325T55 370T84 388Q95 388 102 378T114 352T120 317T123 280T124 247T124 225Q124 210 127 189T138 148T159 114T194 100Q216 100 228 125T246 183T253 249T255 297Q255 308 255 323T258 352T269 375T294 385Q310 385 318 368T330 328T334 282T334
248Z" />
<glyph unicode="&#xb6;" glyph-name="paragraph" horiz-adv-x="594" d="M563 430V340Q563 325 563 292T561 218T555 132T541 52T518 -8T481 -32Q464 -32 453 -14T433 32T420 94T413 160T409 217T408 254Q408 263 408 272T409 291Q397 291 386 290T362 287Q361
245 360 204T354 122Q352 107 350 81T340 30T320 -13T286 -32Q264 -32 250 -12T226 39T213 108T207 181T205 247T205 291Q164 297 130 310T70 347T30 402T15 480Q15 530 34 568T86 636T161 685T248 718T339 736T423 742Q433 742 445 742T471 741T495 735T513 724Q532
705 542 667T557 584T562 498T563 430ZM404 611Q378 611 350 608Q358 563 358 517T360 426Q371 428 380 429T400 433Q402 478 402 522T404 611ZM214 568Q195 555 184 538T173 498Q173 460 206 439Q207 471 208 503T214 568Z" />
<glyph unicode="&#xb7;" glyph-name="middot" horiz-adv-x="226" d="M196 355Q196 329 175 314T129 299Q114 299 97 304T65 320T41 343T31 374Q31 388 37 398T54 415T76 425T100 428Q115 428 132 423T163 409T186 386T196 355Z" />
<glyph unicode="&#xb8;" glyph-name="cedilla" horiz-adv-x="350" d="M319 -147Q319 -176 305 -201T269 -245T220 -275T165 -286Q145 -286 125 -283T87 -270T55 -247T34 -212Q31 -206 31 -199Q31 -183 43 -172T70 -161Q82 -161 91 -168T110 -185T134 -201T171
-209Q191 -209 209 -196T227 -161Q227 -146 217 -136T193 -118T165 -103T143 -85Q135 -74 135 -53T135 -18Q135 -7 135 8T139 38T151 61T176 71Q186 71 194 67T206 53Q211 38 213 21T215 -11Q215 -17 215 -24T212 -37Q228 -43 247 -53T282 -78T308 -110T319 -147Z"
/>
<glyph unicode="&#xb9;" glyph-name="onesuperior" horiz-adv-x="210" d="M158 614Q158 598 158 570T159 509T157 442T150 380T136 335T112 317Q90 317 80 337T67 385T65 440T66 481Q66 523 66 563T67 645Q41 666 41 700Q41 724 56 742T96 760Q119 760 131 743T150
703T157 654T158 614Z" />
<glyph unicode="&#xba;" glyph-name="ordmasculine" horiz-adv-x="400" d="M380 467Q380 429 369 384T336 298T279 230T199 203Q157 203 124 231T67 300T32 386T20 467Q20 506 31 555T64 647T122 719T205 748Q252 748 285 718T340 645T370 553T380 467ZM263 468Q263
480 260 505T249 555T230 598T201 617Q185 617 174 600T155 559T145 512T142 478Q142 465 146 440T158 389T179 344T208 325Q225 325 236 343T253 384T261 432T263 468Z" />
<glyph unicode="&#xbb;" glyph-name="guillemotright" horiz-adv-x="377" d="M367 159Q367 146 344 119T290 65T229 17T186 -4Q178 -4 176 2T173 14Q173 30 184 51T210 92T242 131T270 161Q259 175 243 196T212 241T186 288T175 329Q175 337 178 343T190 349Q201
349 218 338T255 310T295 270T331 227T357 188T367 159ZM214 158Q214 149 203 134T175 100T137 64T96 30T60 5T34 -5Q26 -5 23 1T20 13Q20 29 31 50T57 91T90 130T118 160Q107 174 91 195T59 240T34 287T23 328Q23 336 25 342T38 348Q49 348 66 337T102 309T142
269T178 226T204 187T214 158Z" />
<glyph unicode="&#xbc;" glyph-name="onequarter" horiz-adv-x="759" d="M743 241Q743 211 712 204Q698 201 684 199T655 195Q653 172 652 149T648 102Q647 91 646 73T641 36T627 5T603 -9Q589 -9 581 3T568 32T563 66T562 93Q562 118 563 142T566 189Q550 188
535 188T504 187Q496 187 486 187T465 189T445 194T431 204Q428 208 427 218T424 241T423 265T423 282Q423 298 423 325T427 379T442 424T475 443Q487 443 493 432T504 407T509 377T510 355Q510 338 509 320T505 285Q522 286 539 286T573 289Q573 295 574 313T578
351T583 390T589 414Q594 425 604 432T628 440Q643 440 650 428T661 400T664 366T663 338Q663 325 663 312T660 287Q672 286 686 285T713 279T734 266T743 241ZM492 726Q492 707 483 678T460 613T427 541T391 468T358 404T332 355Q325 342 308 310T268 237T220
152T170 72T125 13T93 -11Q83 -11 80 -1T77 17Q77 37 86 68T111 135T144 211T182 287T217 355T244 407Q251 420 267 451T304 520T350 599T398 673T442 729T476 751Q485 751 488 742T492 726ZM158 614Q158 598 158 570T159 509T157 442T150 380T136 334T112 316Q90
316 80 336T67 385T65 440T66 481Q66 523 66 563T67 644Q41 667 41 699Q41 724 56 741T96 759Q119 759 131 742T150 702T157 654T158 614Z" />
<glyph unicode="&#xbd;" glyph-name="onehalf" horiz-adv-x="679" d="M648 54Q648 37 637 26T609 11Q569 3 522 -1T434 -6Q423 -6 402 -5T373 3Q363 10 359 26T354 54Q354 63 356 69T365 82Q372 90 379 97T394 113Q407 126 431 152T478 207T519 265T537 311Q537
323 530 330T512 338Q499 338 489 329T468 310T445 290T417 281Q377 281 377 321Q377 347 388 369T419 408T462 433T512 442Q565 442 599 418T633 339Q633 307 617 271T578 199T528 133T481 81Q511 84 542 87T605 91Q622 91 635 82T648 54ZM492 726Q492 707 483
678T460 613T427 541T391 468T358 404T332 355Q325 342 308 310T268 237T220 152T170 72T125 13T93 -11Q83 -11 80 -1T77 17Q77 37 86 68T111 135T144 211T182 287T217 355T244 407Q251 420 267 451T304 520T350 599T398 673T442 729T476 751Q485 751 488 742T492
726ZM158 614Q158 598 158 570T159 509T157 442T150 380T136 334T112 316Q90 316 80 336T67 385T65 440T66 481Q66 523 66 563T67 644Q41 667 41 699Q41 724 56 741T96 759Q119 759 131 742T150 702T157 654T158 614Z" />
<glyph unicode="&#xbe;" glyph-name="threequarters" horiz-adv-x="873" d="M858 241Q858 211 827 204Q800 198 771 195Q770 185 769 166T767 125T762 78T754 35T740 4T719 -9Q705 -9 697 3T684 32T678 66T677 93Q677 118 678 142T682 189Q665 188 650 188T618
187Q611 187 601 187T580 189T560 194T546 204Q543 208 542 218T539 241T538 265T538 282Q538 298 538 325T542 379T557 424T590 443Q602 443 609 432T620 407T625 377T626 355Q626 319 620 285Q637 286 654 286T688 289Q689 295 691 313T695 351T700 390T705 414Q710
425 720 432T742 440Q758 440 765 428T776 400T779 366T778 338Q778 325 778 312T776 287Q788 286 802 285T828 279T849 266T858 241ZM606 726Q606 707 597 678T574 613T542 541T507 468T473 404T447 355Q440 342 423 310T384 237T335 152T285 72T241 13T209 -11Q199
-11 196 -1T193 17Q193 37 202 68T227 135T260 211T297 286T332 354T359 407Q366 420 382 451T419 520T466 599T514 673T558 729T592 751Q601 751 603 742T606 726ZM296 458Q296 425 283 397T248 348T196 316T134 304Q122 304 105 306T71 313T44 329T32 356Q32
393 69 393Q86 393 102 390T136 386Q149 386 162 390T186 403T203 422T210 447Q210 455 207 466T199 488T186 505T168 512Q148 512 131 503T93 494Q80 494 74 505T68 527Q68 552 90 561Q102 566 120 574T157 592T187 616T200 645Q200 659 190 670T167 681Q154 681
143 674T120 658T97 642T72 635Q58 635 45 644T31 669Q31 691 45 708T81 738T125 758T167 765H170Q224 765 256 735T288 650Q288 618 274 594T228 558Q263 550 279 521T296 458Z" />
<glyph unicode="&#xbf;" glyph-name="questiondown" horiz-adv-x="498" d="M329 703Q329 688 321 676T299 654T271 641T241 636Q218 636 199 648T179 686Q179 702 187 714T208 735T236 747T266 751Q288 751 308 740T329 703ZM477 124Q477 86 455 60T399 18T329
-6T262 -13Q220 -13 177 4T99 52T42 121T20 205Q20 236 37 263T80 313T135 353T190 380Q187 403 187 426T186 473Q186 489 187 511T193 552T211 585T247 599Q290 599 302 558Q310 532 311 502T312 445Q312 434 312 414T313 372T309 332T300 304Q290 290 268 279T224
254T184 223T167 183Q167 166 175 152T195 128T224 113T256 108Q293 108 315 119T352 145T381 171T415 183Q438 183 457 166T477 124Z" />
<glyph unicode="&#xc0;" glyph-name="Agrave" horiz-adv-x="570" d="M535 148Q535 128 532 100T518 47T491 4T446 -14Q409 -14 391 13T364 77T355 154T352 216Q280 204 210 195Q208 172 202 138T182 73T147 18T94 -5Q70 -5 57 12T36 54T28 103T26 146Q26 203 35
258T56 369Q62 398 72 437T96 517T130 599T175 672T232 724T303 744Q341 744 369 727T418 682T453 619T476 547T492 475T504 413Q517 348 526 282T535 148ZM342 391Q342 403 341 430T334 485T319 534T290 556Q280 556 271 543T255 509T243 463T233 415T227 374T224
347Q284 352 342 362V391ZM369 820Q369 812 363 808T348 803Q330 803 311 814T277 834Q268 840 258 847T238 863T222 882T215 904Q215 919 226 930T252 942Q267 942 287 929T325 896T356 856T369 820Z" />
<glyph unicode="&#xc1;" glyph-name="Aacute" horiz-adv-x="570" d="M535 148Q535 128 532 100T518 47T491 4T446 -14Q409 -14 391 13T364 77T355 154T352 216Q280 204 210 195Q208 172 202 138T182 73T147 18T94 -5Q70 -5 57 12T36 54T28 103T26 146Q26 203 35
258T56 369Q62 398 72 437T96 517T130 599T175 672T232 724T303 744Q341 744 369 727T418 682T453 619T476 547T492 475T504 413Q517 348 526 282T535 148ZM342 391Q342 403 341 430T334 485T319 534T290 556Q280 556 271 543T255 509T243 463T233 415T227 374T224
347Q284 352 342 362V391ZM394 911Q394 900 388 890T374 870T355 854T337 840Q330 835 322 829T304 817T285 807T266 803Q258 803 252 807T246 821Q246 836 257 857T286 899T322 934T357 949Q371 949 382 938T394 911Z" />
<glyph unicode="&#xc2;" glyph-name="Acircumflex" horiz-adv-x="570" d="M535 148Q535 128 532 100T518 47T491 4T446 -14Q409 -14 391 13T364 77T355 154T352 216Q280 204 210 195Q208 172 202 138T182 73T147 18T94 -5Q70 -5 57 12T36 54T28 103T26 146Q26
203 35 258T56 369Q62 398 72 437T96 517T130 599T175 672T232 724T303 744Q341 744 369 727T418 682T453 619T476 547T492 475T504 413Q517 348 526 282T535 148ZM342 391Q342 403 341 430T334 485T319 534T290 556Q280 556 271 543T255 509T243 463T233 415T227
374T224 347Q284 352 342 362V391ZM417 812Q417 804 414 802T404 800Q392 800 378 806T349 821T321 840T298 858Q288 850 275 839T246 819T216 803T188 796Q183 796 179 798T174 808Q174 823 187 846T219 890T259 926T296 941Q312 941 333 927T372 892T404 850T417
812Z" />
<glyph unicode="&#xc3;" glyph-name="Atilde" horiz-adv-x="570" d="M535 148Q535 128 532 100T518 47T491 4T446 -14Q409 -14 391 13T364 77T355 154T352 216Q280 204 210 195Q208 172 202 138T182 73T147 18T94 -5Q70 -5 57 12T36 54T28 103T26 146Q26 203 35
258T56 369Q62 398 72 437T96 517T130 599T175 672T232 724T303 744Q341 744 369 727T418 682T453 619T476 547T492 475T504 413Q517 348 526 282T535 148ZM342 391Q342 403 341 430T334 485T319 534T290 556Q280 556 271 543T255 509T243 463T233 415T227 374T224
347Q284 352 342 362V391ZM488 898Q488 883 478 867T453 837T421 815T389 806Q374 806 360 811T331 824T302 836T274 842Q263 842 252 836T229 822T205 808T180 802Q164 802 154 815T144 843Q144 860 156 876T186 904T223 924T258 932Q275 932 287 925T311 909T333
893T361 886Q374 886 385 893T408 910T430 927T453 935Q467 935 477 923T488 898Z" />
<glyph unicode="&#xc4;" glyph-name="Adieresis" horiz-adv-x="570" d="M535 148Q535 128 532 100T518 47T491 4T446 -14Q409 -14 391 13T364 77T355 154T352 216Q280 204 210 195Q208 172 202 138T182 73T147 18T94 -5Q70 -5 57 12T36 54T28 103T26 146Q26 203
35 258T56 369Q62 398 72 437T96 517T130 599T175 672T232 724T303 744Q341 744 369 727T418 682T453 619T476 547T492 475T504 413Q517 348 526 282T535 148ZM342 391Q342 403 341 430T334 485T319 534T290 556Q280 556 271 543T255 509T243 463T233 415T227 374T224
347Q284 352 342 362V391ZM473 883Q473 854 454 837T406 820Q378 820 358 836T337 882Q337 912 355 933T405 954Q435 954 454 934T473 883ZM280 878Q280 849 261 832T212 815Q184 815 164 831T144 877Q144 907 162 928T211 949Q241 949 260 929T280 878Z" />
<glyph unicode="&#xc5;" glyph-name="Aring" horiz-adv-x="570" d="M342 391Q342 403 341 430T334 485T319 534T290 556Q280 556 271 543T255 509T243 463T233 415T227 374T224 347Q284 352 342 362V391ZM391 816Q391 790 378 770T343 739Q387 725 415 687T460
599T487 500T504 413Q517 348 526 282T535 148Q535 128 532 100T518 47T491 4T446 -14Q409 -14 391 13T364 77T355 154T352 216Q280 204 210 195Q208 172 202 138T182 73T147 18T94 -5Q70 -5 57 12T36 54T28 103T26 146Q26 203 35 258T56 369Q65 408 80 463T119
574T176 674T257 736Q234 747 220 768T205 816Q205 835 212 851T232 880T262 898T298 905Q316 905 333 899T363 880T383 852T391 816ZM350 815Q350 836 335 849T300 863Q280 863 265 850T250 815Q250 795 265 782T300 768Q320 768 335 781T350 815Z" />
<glyph unicode="&#xc6;" glyph-name="AE" horiz-adv-x="846" d="M830 118Q830 94 817 79T782 56Q774 53 751 49T696 39T628 29T558 20T497 14T456 11Q442 11 429 13T405 20T385 34T372 57Q367 73 366 95T364 140T364 186T365 226Q326 221 287 216T210 206Q208
191 205 169T195 123T181 79T162 46Q148 32 132 19T94 6Q70 6 57 23T36 65T28 115T26 158Q26 201 33 261T54 388T92 520T146 638T219 722T312 755Q394 755 447 699Q451 695 464 694T494 692T526 691T549 692Q562 692 587 692T641 691T700 685T754 671T794 648T810
611Q810 585 792 571T750 552Q692 539 628 538T504 534Q509 511 513 488T520 441Q520 436 520 429T521 415Q521 407 522 400Q547 399 568 398Q586 397 603 397T626 396Q648 396 671 396T717 392Q741 387 754 370T768 328Q768 313 762 301T740 285Q726 281 706 278T664
273T621 269T584 266Q582 266 574 265T557 263T541 259T534 254Q534 246 534 237T535 218Q535 207 535 195T534 171Q534 170 536 170T546 169Q600 167 653 170T761 173H779Q802 171 816 156T830 118ZM364 401Q364 413 363 440T356 496T340 547T311 569Q301 569
291 556T272 522T254 476T240 428T230 385T224 358Q293 364 362 373Q364 380 364 386T364 401Z" />
<glyph unicode="&#xc7;" glyph-name="Ccedilla" horiz-adv-x="482" d="M377 -172Q377 -201 363 -226T327 -269T277 -299T222 -310Q202 -310 182 -307T144 -295T112 -272T91 -237Q88 -230 88 -223Q88 -208 100 -197T127 -185Q140 -185 148 -192T167 -209T191 -225T228
-233Q248 -233 266 -221T285 -185Q285 -170 275 -160T250 -142T222 -127T201 -110Q192 -98 192 -78T193 -43V-38Q141 -22 106 14T48 97T15 200T5 309Q5 351 13 401T37 501T77 599T135 682T209 740T301 762Q350 762 383 738T436 676T464 594T472 509Q472 490 468
469T453 430T427 400T388 388Q353 388 336 400T312 432T305 472T303 513T297 544T273 557Q253 557 238 543T212 505T194 453T182 396T175 342T173 300Q173 279 174 250T184 195T208 150T254 131Q274 131 293 136T331 147T369 159T409 164Q432 164 447 146T462 104Q462
74 443 47T396 -1T334 -35T272 -49L269 -61Q285 -67 304 -78T339 -103T366 -135T377 -172Z" />
<glyph unicode="&#xc8;" glyph-name="Egrave" horiz-adv-x="481" d="M466 157Q466 138 456 120Q446 103 409 80T327 37T240 2T178 -13Q164 -13 145 -7T107 10T73 33T50 58Q46 65 43 86T37 135T32 194T29 254T27 305T26 337Q26 374 28 422T38 518T58 611T95 687Q102
696 123 706T172 725T234 742T297 755T353 764T391 768Q406 768 419 762T442 744T457 720T463 691Q463 678 460 669T449 649Q439 636 407 618T338 583T266 551T217 531Q213 508 209 485T202 437Q233 453 272 467T346 481Q417 481 417 411Q417 394 411 381T394 358T370
341T343 326Q311 309 276 297T206 272Q204 264 202 255T200 236Q200 222 202 208T206 180Q218 184 244 193T300 211T356 226T396 233Q411 233 424 227T446 210T460 185T466 157ZM298 820Q298 812 292 808T277 803Q259 803 240 814T206 834Q197 840 187 847T167
863T151 882T144 904Q144 919 155 930T181 942Q196 942 216 929T254 896T285 856T298 820Z" />
<glyph unicode="&#xc9;" glyph-name="Eacute" horiz-adv-x="481" d="M466 157Q466 138 456 120Q446 103 409 80T327 37T240 2T178 -13Q164 -13 145 -7T107 10T73 33T50 58Q46 65 43 86T37 135T32 194T29 254T27 305T26 337Q26 374 28 422T38 518T58 611T95 687Q102
696 123 706T172 725T234 742T297 755T353 764T391 768Q406 768 419 762T442 744T457 720T463 691Q463 678 460 669T449 649Q439 636 407 618T338 583T266 551T217 531Q213 508 209 485T202 437Q233 453 272 467T346 481Q417 481 417 411Q417 394 411 381T394 358T370
341T343 326Q311 309 276 297T206 272Q204 264 202 255T200 236Q200 222 202 208T206 180Q218 184 244 193T300 211T356 226T396 233Q411 233 424 227T446 210T460 185T466 157ZM363 921Q363 910 357 900T343 880T324 864T306 850Q299 845 291 839T273 827T254
817T235 813Q227 813 221 817T215 831Q215 846 226 867T255 909T291 944T326 959Q340 959 351 948T363 921Z" />
<glyph unicode="&#xca;" glyph-name="Ecircumflex" horiz-adv-x="481" d="M466 157Q466 138 456 120Q446 103 409 80T327 37T240 2T178 -13Q164 -13 145 -7T107 10T73 33T50 58Q46 65 43 86T37 135T32 194T29 254T27 305T26 337Q26 374 28 422T38 518T58 611T95
687Q102 696 123 706T172 725T234 742T297 755T353 764T391 768Q406 768 419 762T442 744T457 720T463 691Q463 678 460 669T449 649Q439 636 407 618T338 583T266 551T217 531Q213 508 209 485T202 437Q233 453 272 467T346 481Q417 481 417 411Q417 394 411 381T394
358T370 341T343 326Q311 309 276 297T206 272Q204 264 202 255T200 236Q200 222 202 208T206 180Q218 184 244 193T300 211T356 226T396 233Q411 233 424 227T446 210T460 185T466 157ZM387 812Q387 804 384 802T374 800Q362 800 348 806T319 821T291 840T268
858Q258 850 245 839T216 819T186 803T158 796Q153 796 149 798T144 808Q144 823 157 846T189 890T229 926T266 941Q282 941 303 927T342 892T374 850T387 812Z" />
<glyph unicode="&#xcb;" glyph-name="Edieresis" horiz-adv-x="481" d="M466 157Q466 138 456 120Q446 103 409 80T327 37T240 2T178 -13Q164 -13 145 -7T107 10T73 33T50 58Q46 65 43 86T37 135T32 194T29 254T27 305T26 337Q26 374 28 422T38 518T58 611T95
687Q102 696 123 706T172 725T234 742T297 755T353 764T391 768Q406 768 419 762T442 744T457 720T463 691Q463 678 460 669T449 649Q439 636 407 618T338 583T266 551T217 531Q213 508 209 485T202 437Q233 453 272 467T346 481Q417 481 417 411Q417 394 411 381T394
358T370 341T343 326Q311 309 276 297T206 272Q204 264 202 255T200 236Q200 222 202 208T206 180Q218 184 244 193T300 211T356 226T396 233Q411 233 424 227T446 210T460 185T466 157ZM432 883Q432 854 413 837T365 820Q337 820 317 836T296 882Q296 912 314
933T364 954Q394 954 413 934T432 883ZM239 878Q239 849 220 832T171 815Q143 815 123 831T103 877Q103 907 121 928T170 949Q200 949 219 929T239 878Z" />
<glyph unicode="&#xcc;" glyph-name="Igrave" horiz-adv-x="360" d="M376 679Q376 660 368 645T345 620T314 602T281 592Q279 479 273 374T252 157H258Q274 157 289 154T317 142T337 121T345 90Q345 67 331 50T293 21T240 1T182 -11T127 -18T85 -20Q73 -20 56
-19T23 -13T-4 2T-15 29Q-15 50 -7 66T16 96T47 117T83 129Q90 184 96 238T104 349Q106 406 108 461T112 573Q105 572 99 572T88 571Q74 571 58 574T28 584T5 603T-5 631Q-5 665 23 687T91 721T172 737T238 742Q252 742 275 740T320 731T359 712T376 679ZM267 820Q267
812 261 808T246 803Q228 803 209 814T175 834Q166 840 156 847T136 863T120 882T113 904Q113 919 124 930T150 942Q165 942 185 929T223 896T254 856T267 820Z" />
<glyph unicode="&#xcd;" glyph-name="Iacute" horiz-adv-x="360" d="M376 679Q376 660 368 645T345 620T314 602T281 592Q279 479 273 374T252 157H258Q274 157 289 154T317 142T337 121T345 90Q345 67 331 50T293 21T240 1T182 -11T127 -18T85 -20Q73 -20 56
-19T23 -13T-4 2T-15 29Q-15 50 -7 66T16 96T47 117T83 129Q90 184 96 238T104 349Q106 406 108 461T112 573Q105 572 99 572T88 571Q74 571 58 574T28 584T5 603T-5 631Q-5 665 23 687T91 721T172 737T238 742Q252 742 275 740T320 731T359 712T376 679ZM333 921Q333
910 327 900T313 880T294 864T276 850Q269 845 261 839T243 827T224 817T205 813Q197 813 191 817T185 831Q185 846 196 867T225 909T261 944T296 959Q310 959 321 948T333 921Z" />
<glyph unicode="&#xce;" glyph-name="Icircumflex" horiz-adv-x="360" d="M376 679Q376 660 368 645T345 620T314 602T281 592Q279 479 273 374T252 157H258Q274 157 289 154T317 142T337 121T345 90Q345 67 331 50T293 21T240 1T182 -11T127 -18T85 -20Q73 -20
56 -19T23 -13T-4 2T-15 29Q-15 50 -7 66T16 96T47 117T83 129Q90 184 96 238T104 349Q106 406 108 461T112 573Q105 572 99 572T88 571Q74 571 58 574T28 584T5 603T-5 631Q-5 665 23 687T91 721T172 737T238 742Q252 742 275 740T320 731T359 712T376 679ZM315
812Q315 804 312 802T302 800Q290 800 276 806T247 821T219 840T196 858Q186 850 173 839T144 819T114 803T86 796Q81 796 77 798T72 808Q72 823 85 846T117 890T157 926T194 941Q210 941 231 927T270 892T302 850T315 812Z" />
<glyph unicode="&#xcf;" glyph-name="Idieresis" horiz-adv-x="360" d="M376 679Q376 660 368 645T345 620T314 602T281 592Q279 479 273 374T252 157H258Q274 157 289 154T317 142T337 121T345 90Q345 67 331 50T293 21T240 1T182 -11T127 -18T85 -20Q73 -20
56 -19T23 -13T-4 2T-15 29Q-15 50 -7 66T16 96T47 117T83 129Q90 184 96 238T104 349Q106 406 108 461T112 573Q105 572 99 572T88 571Q74 571 58 574T28 584T5 603T-5 631Q-5 665 23 687T91 721T172 737T238 742Q252 742 275 740T320 731T359 712T376 679ZM360
873Q360 844 341 827T293 810Q265 810 245 826T224 872Q224 902 242 923T292 944Q322 944 341 924T360 873ZM167 868Q167 839 148 822T99 805Q71 805 51 821T31 867Q31 897 49 918T98 939Q128 939 147 919T167 868Z" />
<glyph unicode="&#xd0;" glyph-name="Eth" horiz-adv-x="573" d="M47 355Q18 358 -4 366T-26 388Q-26 405 -3 414T50 429Q52 456 54 492T61 562T69 624T80 660Q93 682 120 699T179 727T243 743T299 749Q365 749 414 725T495 659T542 563T558 450Q558 362 522 281T426
136T285 36T117 -2H115Q97 -2 85 14T66 56T54 112T48 172T46 225T45 261Q45 284 45 308T47 355ZM321 388Q321 380 312 375T287 365T252 358T213 354Q212 342 212 334T212 321Q212 311 212 292T213 253T217 220T224 206Q254 206 284 229T337 287T376 358T391 421Q391
443 383 466T360 508T325 538T281 550Q259 550 237 540Q232 538 229 528T224 503T219 469T216 431Q234 429 252 425T286 416T311 404T321 388Z" />
<glyph unicode="&#xd1;" glyph-name="Ntilde" horiz-adv-x="648" d="M612 429Q612 407 610 367T603 278T587 179T561 87T522 20T467 -7Q437 -7 412 10T367 53T332 108T307 161Q286 212 265 261T225 362V334Q225 291 225 249T218 164Q216 147 214 125T206 80T192
39T166 11Q157 6 150 5T133 2H130Q107 2 91 17T64 57T47 112T37 172T32 227T31 267Q31 290 33 334T41 433T58 544T86 647T127 723T183 753Q214 753 238 729T282 672T314 603T336 543Q353 496 369 450T400 355Q401 353 404 344T411 324Q415 312 421 297Q421 310
421 315T420 325T420 337T420 359Q419 392 419 425T418 490Q418 504 418 529T421 582T429 640T443 692T467 731T503 746Q528 746 546 727T576 679T595 613T606 541T611 476T612 429ZM529 909Q529 894 519 878T494 848T462 826T430 817Q415 817 401 822T372 835T343
847T315 853Q304 853 293 847T270 833T246 819T221 813Q205 813 195 826T185 854Q185 871 197 887T227 915T264 935T299 943Q316 943 328 936T352 920T374 904T402 897Q415 897 426 904T449 921T471 938T494 946Q508 946 518 934T529 909Z" />
<glyph unicode="&#xd2;" glyph-name="Ograve" horiz-adv-x="538" d="M259 -33Q198 -33 153 -3T79 79T35 199T20 342Q20 412 35 484T83 614T164 709T281 746Q347 746 391 711T462 619T500 492T512 352Q512 274 497 205T450 82T371 -2T259 -33ZM271 525Q252 525
239 510T216 471T203 416T199 354Q199 319 203 284T217 221T239 176T272 159Q294 159 307 181T327 234T337 298T340 353Q340 380 337 410T325 465T304 508T271 525ZM339 810Q339 802 333 798T318 793Q300 793 281 804T247 824Q238 830 228 837T208 853T192 872T185
894Q185 909 196 920T222 932Q237 932 257 919T295 886T326 846T339 810Z" />
<glyph unicode="&#xd3;" glyph-name="Oacute" horiz-adv-x="538" d="M259 -33Q198 -33 153 -3T79 79T35 199T20 342Q20 412 35 484T83 614T164 709T281 746Q347 746 391 711T462 619T500 492T512 352Q512 274 497 205T450 82T371 -2T259 -33ZM271 525Q252 525
239 510T216 471T203 416T199 354Q199 319 203 284T217 221T239 176T272 159Q294 159 307 181T327 234T337 298T340 353Q340 380 337 410T325 465T304 508T271 525ZM384 911Q384 900 378 890T364 870T345 854T327 840Q320 835 312 829T294 817T275 807T256 803Q248
803 242 807T236 821Q236 836 247 857T276 899T312 934T347 949Q361 949 372 938T384 911Z" />
<glyph unicode="&#xd4;" glyph-name="Ocircumflex" horiz-adv-x="538" d="M259 -33Q198 -33 153 -3T79 79T35 199T20 342Q20 412 35 484T83 614T164 709T281 746Q347 746 391 711T462 619T500 492T512 352Q512 274 497 205T450 82T371 -2T259 -33ZM271 525Q252
525 239 510T216 471T203 416T199 354Q199 319 203 284T217 221T239 176T272 159Q294 159 307 181T327 234T337 298T340 353Q340 380 337 410T325 465T304 508T271 525ZM407 812Q407 804 404 802T394 800Q382 800 368 806T339 821T311 840T288 858Q278 850 265
839T236 819T206 803T178 796Q173 796 169 798T164 808Q164 823 177 846T209 890T249 926T286 941Q302 941 323 927T362 892T394 850T407 812Z" />
<glyph unicode="&#xd5;" glyph-name="Otilde" horiz-adv-x="538" d="M259 -33Q198 -33 153 -3T79 79T35 199T20 342Q20 412 35 484T83 614T164 709T281 746Q347 746 391 711T462 619T500 492T512 352Q512 274 497 205T450 82T371 -2T259 -33ZM271 525Q252 525
239 510T216 471T203 416T199 354Q199 319 203 284T217 221T239 176T272 159Q294 159 307 181T327 234T337 298T340 353Q340 380 337 410T325 465T304 508T271 525ZM447 898Q447 883 437 867T412 837T380 815T348 806Q333 806 319 811T290 824T261 836T233 842Q222
842 211 836T188 822T164 808T139 802Q123 802 113 815T103 843Q103 860 115 876T145 904T182 924T217 932Q234 932 246 925T270 909T292 893T320 886Q333 886 344 893T367 910T389 927T412 935Q426 935 436 923T447 898Z" />
<glyph unicode="&#xd6;" glyph-name="Odieresis" horiz-adv-x="538" d="M259 -33Q198 -33 153 -3T79 79T35 199T20 342Q20 412 35 484T83 614T164 709T281 746Q347 746 391 711T462 619T500 492T512 352Q512 274 497 205T450 82T371 -2T259 -33ZM271 525Q252 525
239 510T216 471T203 416T199 354Q199 319 203 284T217 221T239 176T272 159Q294 159 307 181T327 234T337 298T340 353Q340 380 337 410T325 465T304 508T271 525ZM452 883Q452 854 433 837T385 820Q357 820 337 836T316 882Q316 912 334 933T384 954Q414 954
433 934T452 883ZM259 878Q259 849 240 832T191 815Q163 815 143 831T123 877Q123 907 141 928T190 949Q220 949 239 929T259 878Z" />
<glyph unicode="&#xd7;" glyph-name="multiply" horiz-adv-x="418" d="M387 436Q387 422 372 397T336 345T295 293T266 257Q276 246 294 227T328 187T357 143T370 103Q370 83 351 83Q333 83 312 96T271 127T234 165T205 196Q193 182 174 163T134 125T90 94T48
81Q31 81 31 98Q31 114 46 138T81 187T121 232T153 263Q145 273 129 296T95 344T65 394T52 433Q52 441 56 448T71 455Q85 455 106 439T148 402T187 360T213 329Q223 340 243 361T285 403T330 439T367 455Q375 455 381 451T387 436Z" />
<glyph unicode="&#xd8;" glyph-name="Oslash" horiz-adv-x="538" d="M498 760Q498 734 489 697T463 617Q489 560 500 491T512 352Q512 274 497 205T450 82T371 -2T259 -33Q204 -33 161 -7Q135 -46 114 -70T76 -95Q68 -95 63 -90T54 -78T50 -62T49 -47Q49 -23 57
9T78 80Q49 132 35 199T20 342Q20 412 35 484T83 614T164 709T281 746Q312 746 337 738T385 716Q411 754 433 777T473 801Q489 801 493 786T498 760ZM271 525Q252 525 239 510T216 471T203 416T199 354Q199 319 203 284T217 221T239 176T272 159Q294 159 307 181T327
234T337 298T340 353Q340 380 337 410T325 465T304 508T271 525Z" />
<glyph unicode="&#xd9;" glyph-name="Ugrave" horiz-adv-x="602" d="M566 351Q566 310 562 267T548 182T521 105T476 41T411 -3T322 -19Q247 -19 192 16T99 105T44 227T26 361Q26 368 26 374T27 385Q28 406 30 442T39 519T54 603T79 680T117 736T169 758Q191 758
206 745T230 713T244 672T248 632Q248 605 243 578T232 523Q224 480 219 437T214 349Q214 326 216 293T229 230T257 178T308 156Q339 156 357 177T385 227T396 288T399 343Q399 409 388 473T359 602Q354 619 351 636T347 670Q347 698 363 719T410 740Q435 740 456
721T495 670T524 599T546 522T559 448T565 391Q566 381 566 372T566 351ZM380 820Q380 812 374 808T359 803Q341 803 322 814T288 834Q279 840 269 847T249 863T233 882T226 904Q226 919 237 930T263 942Q278 942 298 929T336 896T367 856T380 820Z" />
<glyph unicode="&#xda;" glyph-name="Uacute" horiz-adv-x="602" d="M566 351Q566 310 562 267T548 182T521 105T476 41T411 -3T322 -19Q247 -19 192 16T99 105T44 227T26 361Q26 368 26 374T27 385Q28 406 30 442T39 519T54 603T79 680T117 736T169 758Q191 758
206 745T230 713T244 672T248 632Q248 605 243 578T232 523Q224 480 219 437T214 349Q214 326 216 293T229 230T257 178T308 156Q339 156 357 177T385 227T396 288T399 343Q399 409 388 473T359 602Q354 619 351 636T347 670Q347 698 363 719T410 740Q435 740 456
721T495 670T524 599T546 522T559 448T565 391Q566 381 566 372T566 351ZM415 911Q415 900 409 890T395 870T376 854T358 840Q351 835 343 829T325 817T306 807T287 803Q279 803 273 807T267 821Q267 836 278 857T307 899T343 934T378 949Q392 949 403 938T415
911Z" />
<glyph unicode="&#xdb;" glyph-name="Ucircumflex" horiz-adv-x="602" d="M566 351Q566 310 562 267T548 182T521 105T476 41T411 -3T322 -19Q247 -19 192 16T99 105T44 227T26 361Q26 368 26 374T27 385Q28 406 30 442T39 519T54 603T79 680T117 736T169 758Q191
758 206 745T230 713T244 672T248 632Q248 605 243 578T232 523Q224 480 219 437T214 349Q214 326 216 293T229 230T257 178T308 156Q339 156 357 177T385 227T396 288T399 343Q399 409 388 473T359 602Q354 619 351 636T347 670Q347 698 363 719T410 740Q435 740
456 721T495 670T524 599T546 522T559 448T565 391Q566 381 566 372T566 351ZM428 823Q428 815 425 813T415 811Q403 811 389 817T360 832T332 851T309 869Q299 861 286 850T257 830T227 814T199 807Q194 807 190 809T185 819Q185 834 198 857T230 901T270 937T307
952Q323 952 344 938T383 903T415 861T428 823Z" />
<glyph unicode="&#xdc;" glyph-name="Udieresis" horiz-adv-x="602" d="M566 351Q566 310 562 267T548 182T521 105T476 41T411 -3T322 -19Q247 -19 192 16T99 105T44 227T26 361Q26 368 26 374T27 385Q28 406 30 442T39 519T54 603T79 680T117 736T169 758Q191
758 206 745T230 713T244 672T248 632Q248 605 243 578T232 523Q224 480 219 437T214 349Q214 326 216 293T229 230T257 178T308 156Q339 156 357 177T385 227T396 288T399 343Q399 409 388 473T359 602Q354 619 351 636T347 670Q347 698 363 719T410 740Q435 740
456 721T495 670T524 599T546 522T559 448T565 391Q566 381 566 372T566 351ZM462 883Q462 854 443 837T395 820Q367 820 347 836T326 882Q326 912 344 933T394 954Q424 954 443 934T462 883ZM269 878Q269 849 250 832T201 815Q173 815 153 831T133 877Q133 907
151 928T200 949Q230 949 249 929T269 878Z" />
<glyph unicode="&#xdd;" glyph-name="Yacute" horiz-adv-x="445" d="M481 688Q481 644 470 591T440 484T401 379T362 289Q352 267 338 234T305 162T267 86T224 17T179 -33T133 -53Q101 -53 88 -30T74 23Q74 51 83 82T107 145T139 205T172 257Q152 262 133 275T105
306Q89 341 72 385T42 474T19 565T10 649Q10 667 14 688T27 728T52 759T91 772Q117 772 137 753T172 703T199 636T218 563T231 497T240 450Q244 465 253 495T276 563T307 639T344 710T386 762T431 783Q446 783 456 772T471 746T479 715T481 688ZM374 921Q374 910
368 900T354 880T335 864T317 850Q310 845 302 839T284 827T265 817T246 813Q238 813 232 817T226 831Q226 846 237 867T266 909T302 944T337 959Q351 959 362 948T374 921Z" />
<glyph unicode="&#xde;" glyph-name="Thorn" horiz-adv-x="501" d="M506 396Q506 334 479 287T408 206T310 155T201 132Q199 118 194 91T178 36T152 -11T114 -32Q92 -32 78 -12T54 41T40 113T33 189T31 255T31 299V388Q31 403 31 436T33 510T39 596T53 676T76
736T113 760Q138 760 154 739T180 690T193 631T197 583Q205 583 214 584T233 587Q261 590 290 590Q338 590 377 579T445 545T490 485T506 396ZM348 373Q349 409 329 432T271 455Q254 455 237 451T204 441Q202 396 202 352T201 262H204Q229 262 254 269T300 290T334
324T348 373Z" />
<glyph unicode="&#xdf;" glyph-name="germandbls" horiz-adv-x="607" d="M597 216Q597 174 576 134T520 62T444 11T361 -8Q344 -8 327 -6T296 4T274 23T265 56Q265 84 276 99T304 124T340 138T377 150T405 170T416 204Q416 225 400 247T363 295T327 350T310 415Q310
439 317 461T333 503T349 539T356 569Q356 581 353 593T342 615T325 632T301 639Q278 639 265 617T244 564T235 503T233 456Q233 429 234 402T237 346Q239 276 241 204T239 60Q236 31 216 10T165 -11Q148 -11 136 -5T117 13T105 38T100 67Q95 127 92 187T90 309Q83
308 77 308T63 308Q49 308 32 311T0 321T-25 341T-36 372Q-36 392 -22 406T14 429T57 442T96 449V467Q96 518 105 574T138 677T202 754T306 785Q347 785 381 770T441 730T481 669T496 594Q496 573 492 553T482 512T472 471T467 430Q467 409 476 394T500 364T532
337T563 306T587 267T597 216Z" />
<glyph unicode="&#xe0;" glyph-name="agrave" horiz-adv-x="485" d="M455 141Q455 123 454 94T445 38T423 -10T381 -30Q344 -30 324 -6T305 54Q273 26 233 10T150 -6Q121 -6 95 8T49 44T17 93T5 148Q5 196 34 232T107 293T198 334T285 354Q285 359 285 363T286
372Q286 403 269 422T221 441Q196 441 178 433T144 414T112 395T76 386Q54 386 39 400T23 436Q23 469 42 496T91 541T155 570T219 581Q246 581 273 575T324 555T367 522T399 476Q417 439 428 398T445 313T453 226T455 141ZM295 173L292 241Q290 241 288 241T284
242Q271 242 252 236T214 218T184 192T171 163Q171 149 181 144T204 139Q226 139 251 150T295 173ZM318 666Q318 658 312 654T297 649Q279 649 260 660T226 680Q217 686 207 693T187 709T171 728T164 750Q164 765 175 776T201 788Q216 788 236 775T274 742T305
702T318 666Z" />
<glyph unicode="&#xe1;" glyph-name="aacute" horiz-adv-x="485" d="M455 141Q455 123 454 94T445 38T423 -10T381 -30Q344 -30 324 -6T305 54Q273 26 233 10T150 -6Q121 -6 95 8T49 44T17 93T5 148Q5 196 34 232T107 293T198 334T285 354Q285 359 285 363T286
372Q286 403 269 422T221 441Q196 441 178 433T144 414T112 395T76 386Q54 386 39 400T23 436Q23 469 42 496T91 541T155 570T219 581Q246 581 273 575T324 555T367 522T399 476Q417 439 428 398T445 313T453 226T455 141ZM295 173L292 241Q290 241 288 241T284
242Q271 242 252 236T214 218T184 192T171 163Q171 149 181 144T204 139Q226 139 251 150T295 173ZM343 757Q343 746 337 736T323 716T304 700T286 686Q279 681 271 675T253 663T234 653T215 649Q207 649 201 653T195 667Q195 682 206 703T235 745T271 780T306
795Q320 795 331 784T343 757Z" />
<glyph unicode="&#xe2;" glyph-name="acircumflex" horiz-adv-x="485" d="M455 141Q455 123 454 94T445 38T423 -10T381 -30Q344 -30 324 -6T305 54Q273 26 233 10T150 -6Q121 -6 95 8T49 44T17 93T5 148Q5 196 34 232T107 293T198 334T285 354Q285 359 285 363T286
372Q286 403 269 422T221 441Q196 441 178 433T144 414T112 395T76 386Q54 386 39 400T23 436Q23 469 42 496T91 541T155 570T219 581Q246 581 273 575T324 555T367 522T399 476Q417 439 428 398T445 313T453 226T455 141ZM295 173L292 241Q290 241 288 241T284
242Q271 242 252 236T214 218T184 192T171 163Q171 149 181 144T204 139Q226 139 251 150T295 173ZM356 659Q356 651 353 649T343 647Q331 647 317 653T288 668T260 687T237 705Q227 697 214 686T185 666T155 650T127 643Q122 643 118 645T113 655Q113 670 126
693T158 737T198 773T235 788Q251 788 272 774T311 739T343 697T356 659Z" />
<glyph unicode="&#xe3;" glyph-name="atilde" horiz-adv-x="485" d="M455 141Q455 123 454 94T445 38T423 -10T381 -30Q344 -30 324 -6T305 54Q273 26 233 10T150 -6Q121 -6 95 8T49 44T17 93T5 148Q5 196 34 232T107 293T198 334T285 354Q285 359 285 363T286
372Q286 403 269 422T221 441Q196 441 178 433T144 414T112 395T76 386Q54 386 39 400T23 436Q23 469 42 496T91 541T155 570T219 581Q246 581 273 575T324 555T367 522T399 476Q417 439 428 398T445 313T453 226T455 141ZM295 173L292 241Q290 241 288 241T284
242Q271 242 252 236T214 218T184 192T171 163Q171 149 181 144T204 139Q226 139 251 150T295 173ZM416 745Q416 730 406 714T381 684T349 662T317 653Q302 653 288 658T259 671T230 683T202 689Q191 689 180 683T157 669T133 655T108 649Q92 649 82 662T72 690Q72
707 84 723T114 751T151 771T186 779Q203 779 215 772T239 756T261 740T289 733Q302 733 313 740T336 757T358 774T381 782Q395 782 405 770T416 745Z" />
<glyph unicode="&#xe4;" glyph-name="adieresis" horiz-adv-x="485" d="M455 141Q455 123 454 94T445 38T423 -10T381 -30Q344 -30 324 -6T305 54Q273 26 233 10T150 -6Q121 -6 95 8T49 44T17 93T5 148Q5 196 34 232T107 293T198 334T285 354Q285 359 285 363T286
372Q286 403 269 422T221 441Q196 441 178 433T144 414T112 395T76 386Q54 386 39 400T23 436Q23 469 42 496T91 541T155 570T219 581Q246 581 273 575T324 555T367 522T399 476Q417 439 428 398T445 313T453 226T455 141ZM295 173L292 241Q290 241 288 241T284
242Q271 242 252 236T214 218T184 192T171 163Q171 149 181 144T204 139Q226 139 251 150T295 173ZM411 719Q411 690 392 673T344 656Q316 656 296 672T275 718Q275 748 293 769T343 790Q373 790 392 770T411 719ZM218 714Q218 685 199 668T150 651Q122 651 102
667T82 713Q82 743 100 764T149 785Q179 785 198 765T218 714Z" />
<glyph unicode="&#xe5;" glyph-name="aring" horiz-adv-x="485" d="M295 173L292 241Q290 241 288 241T284 242Q271 242 252 236T214 218T184 192T171 163Q171 149 181 144T204 139Q226 139 251 150T295 173ZM330 652Q330 626 316 605T278 573Q316 562 348 538T399
476Q417 439 428 398T445 313T453 226T455 141Q455 123 454 94T445 38T423 -10T381 -30Q344 -30 324 -6T305 54Q273 26 233 10T150 -6Q121 -6 95 8T49 44T17 93T5 148Q5 196 34 232T107 293T198 334T285 354Q285 359 285 363T286 372Q286 403 269 422T221 441Q196
441 178 433T144 414T112 395T76 386Q54 386 39 400T23 436Q23 464 38 488T76 530T129 561T186 578Q167 589 155 609T143 652Q143 671 150 687T171 716T201 734T237 741Q255 741 272 735T302 716T322 688T330 652ZM289 651Q289 672 274 685T239 699Q219 699 204
686T188 651Q188 631 203 618T239 604Q259 604 274 617T289 651Z" />
<glyph unicode="&#xe6;" glyph-name="ae" horiz-adv-x="838" d="M827 164Q827 147 820 130T804 98Q789 74 769 53T723 17T671 -8T614 -18Q561 -18 519 9T449 80Q446 71 440 57T424 30T404 7T381 -3Q344 -3 324 21T305 81Q273 53 233 37T150 20Q121 20 95 34T49
70T17 119T5 175Q5 223 34 259T107 320T198 361T285 381Q285 386 285 390T286 398Q286 429 269 448T221 468Q196 468 178 460T144 441T112 423T76 414Q54 414 39 427T23 464Q23 498 43 525T94 570T159 598T225 608Q252 608 279 602T330 584T372 551T399 504Q408
477 413 449T428 394Q442 428 462 461T508 520T567 562T642 578Q675 578 703 568T752 539T785 493T797 431Q797 383 777 342T724 271T648 222T559 201Q563 172 582 159T629 145Q649 145 668 155T705 177T740 200T776 210Q796 210 811 197T827 164ZM677 404Q677
422 668 436T638 450Q613 450 596 437T567 405T550 362T544 318Q544 316 544 310T549 304Q570 304 592 311T633 331T664 362T677 404ZM295 201L292 267Q289 268 284 268Q271 268 252 262T214 244T184 218T171 189Q171 176 181 171T204 166Q226 166 251 177T295
201Z" />
<glyph unicode="&#xe7;" glyph-name="ccedilla" horiz-adv-x="409" d="M341 -147Q341 -176 327 -201T291 -245T241 -275T186 -286Q166 -286 146 -283T108 -270T76 -247T55 -212Q52 -206 52 -199Q52 -183 64 -172T91 -161Q104 -161 112 -168T131 -185T155 -201T193
-209Q213 -209 231 -196T249 -161Q249 -146 239 -136T214 -118T186 -103T165 -85Q157 -74 157 -53T157 -18V-5Q116 4 88 31T43 96T18 175T10 255Q10 288 16 325T34 398T65 467T109 525T167 565T240 580Q276 580 303 564T347 522T374 464T383 400Q383 392 383 381T379
362Q371 342 353 328T312 313Q278 313 265 347Q262 356 262 370T262 398T254 422T233 432Q215 432 199 411T171 359T152 299T145 250Q145 237 147 216T156 173T174 137T204 122Q222 122 237 133T266 157T294 182T325 193Q346 193 359 177T373 140Q373 114 361 91T330
48T287 15T237 -5V-11Q237 -17 237 -24T233 -37Q249 -43 268 -53T303 -78T330 -110T341 -147Z" />
<glyph unicode="&#xe8;" glyph-name="egrave" horiz-adv-x="459" d="M449 178Q449 144 428 112T374 54T304 13T236 -3Q183 -3 142 23T72 91T30 181T15 278Q15 328 29 385T71 490T143 570T247 602Q281 602 312 591T366 558T403 508T417 443Q417 396 397 355T344
284T268 236T180 215Q184 186 203 173T250 160Q270 160 289 170T326 192T361 215T397 225Q417 225 433 212T449 178ZM287 423Q287 436 280 450T258 464Q236 464 221 453T196 424T181 386T174 349Q188 352 207 357T244 370T274 392T287 423ZM308 677Q308 669 302
665T287 660Q269 660 250 671T216 691Q207 697 197 704T177 720T161 739T154 761Q154 776 165 787T191 799Q206 799 226 786T264 753T295 713T308 677Z" />
<glyph unicode="&#xe9;" glyph-name="eacute" horiz-adv-x="459" d="M449 178Q449 144 428 112T374 54T304 13T236 -3Q183 -3 142 23T72 91T30 181T15 278Q15 328 29 385T71 490T143 570T247 602Q281 602 312 591T366 558T403 508T417 443Q417 396 397 355T344
284T268 236T180 215Q184 186 203 173T250 160Q270 160 289 170T326 192T361 215T397 225Q417 225 433 212T449 178ZM287 423Q287 436 280 450T258 464Q236 464 221 453T196 424T181 386T174 349Q188 352 207 357T244 370T274 392T287 423ZM343 778Q343 767 337
757T323 737T304 721T286 707Q279 702 271 696T253 684T234 674T215 670Q207 670 201 674T195 688Q195 703 206 724T235 766T271 801T306 816Q320 816 331 805T343 778Z" />
<glyph unicode="&#xea;" glyph-name="ecircumflex" horiz-adv-x="459" d="M449 178Q449 144 428 112T374 54T304 13T236 -3Q183 -3 142 23T72 91T30 181T15 278Q15 328 29 385T71 490T143 570T247 602Q281 602 312 591T366 558T403 508T417 443Q417 396 397 355T344
284T268 236T180 215Q184 186 203 173T250 160Q270 160 289 170T326 192T361 215T397 225Q417 225 433 212T449 178ZM287 423Q287 436 280 450T258 464Q236 464 221 453T196 424T181 386T174 349Q188 352 207 357T244 370T274 392T287 423ZM376 669Q376 661 373
659T363 657Q351 657 337 663T308 678T280 697T257 715Q247 707 234 696T205 676T175 660T147 653Q142 653 138 655T133 665Q133 680 146 703T178 747T218 783T255 798Q271 798 292 784T331 749T363 707T376 669Z" />
<glyph unicode="&#xeb;" glyph-name="edieresis" horiz-adv-x="459" d="M449 178Q449 144 428 112T374 54T304 13T236 -3Q183 -3 142 23T72 91T30 181T15 278Q15 328 29 385T71 490T143 570T247 602Q281 602 312 591T366 558T403 508T417 443Q417 396 397 355T344
284T268 236T180 215Q184 186 203 173T250 160Q270 160 289 170T326 192T361 215T397 225Q417 225 433 212T449 178ZM287 423Q287 436 280 450T258 464Q236 464 221 453T196 424T181 386T174 349Q188 352 207 357T244 370T274 392T287 423ZM411 730Q411 701 392
684T344 667Q316 667 296 683T275 729Q275 759 293 780T343 801Q373 801 392 781T411 730ZM218 725Q218 696 199 679T150 662Q122 662 102 678T82 724Q82 754 100 775T149 796Q179 796 198 776T218 725Z" />
<glyph unicode="&#xec;" glyph-name="igrave" horiz-adv-x="244" d="M203 358Q203 344 203 329T202 299Q201 282 201 254T199 192T193 125T178 63T152 18T110 -1Q91 -2 78 14T57 55T44 112T38 173T36 228T36 265Q36 281 36 310T38 374T45 443T61 507T89 554T132
572Q159 572 173 545T194 482T202 411T203 358ZM185 666Q185 658 179 654T164 649Q146 649 127 660T93 680Q84 686 74 693T54 709T38 728T31 750Q31 765 42 776T68 788Q83 788 103 775T141 742T172 702T185 666Z" />
<glyph unicode="&#xed;" glyph-name="iacute" horiz-adv-x="244" d="M203 358Q203 344 203 329T202 299Q201 282 201 254T199 192T193 125T178 63T152 18T110 -1Q91 -2 78 14T57 55T44 112T38 173T36 228T36 265Q36 281 36 310T38 374T45 443T61 507T89 554T132
572Q159 572 173 545T194 482T202 411T203 358ZM240 757Q240 746 234 736T220 716T201 700T183 686Q176 681 168 675T150 663T131 653T112 649Q104 649 98 653T92 667Q92 682 103 703T132 745T168 780T203 795Q217 795 228 784T240 757Z" />
<glyph unicode="&#xee;" glyph-name="icircumflex" horiz-adv-x="244" d="M203 358Q203 344 203 329T202 299Q201 282 201 254T199 192T193 125T178 63T152 18T110 -1Q91 -2 78 14T57 55T44 112T38 173T36 228T36 265Q36 281 36 310T38 374T45 443T61 507T89 554T132
572Q159 572 173 545T194 482T202 411T203 358ZM500 659Q500 651 497 649T487 647Q475 647 461 653T432 668T404 687T381 705Q371 697 358 686T329 666T299 650T271 643Q266 643 262 645T257 655Q257 670 270 693T302 737T342 773T379 788Q395 788 416 774T455
739T487 697T500 659Z" />
<glyph unicode="&#xef;" glyph-name="idieresis" horiz-adv-x="244" d="M203 358Q203 344 203 329T202 299Q201 282 201 254T199 192T193 125T178 63T152 18T110 -1Q91 -2 78 14T57 55T44 112T38 173T36 228T36 265Q36 281 36 310T38 374T45 443T61 507T89 554T132
572Q159 572 173 545T194 482T202 411T203 358ZM556 719Q556 690 537 673T489 656Q461 656 441 672T420 718Q420 748 438 769T488 790Q518 790 537 770T556 719ZM363 714Q363 685 344 668T295 651Q267 651 247 667T227 713Q227 743 245 764T294 785Q324 785 343
765T363 714Z" />
<glyph unicode="&#xf0;" glyph-name="eth" horiz-adv-x="507" d="M208 393Q189 393 179 382T163 356T156 322T155 291Q155 279 157 255T164 208T180 166T207 148Q231 148 249 158T278 185T295 223T301 266Q301 287 296 309T279 350T250 381T208 393ZM527 644Q527
633 508 627T462 615Q462 560 462 492T455 355T433 219T389 102T313 19T200 -12Q155 -12 121 19T63 94T27 186T15 269Q15 294 18 326T28 391T48 455T78 512T122 552T181 567Q217 567 250 546T300 494Q303 549 306 608Q288 608 267 610T226 615T193 626T180 644Q180
656 192 664T224 678T267 687T311 691Q312 710 316 729T327 765T348 791T382 801Q407 801 422 790T446 762T458 723T461 681Q488 675 507 667T527 644Z" />
<glyph unicode="&#xf1;" glyph-name="ntilde" horiz-adv-x="478" d="M314 -28Q297 -28 287 -13T272 23T266 63T264 95Q264 125 267 155T275 215T283 275T287 335Q287 347 286 361T282 387T270 408T249 416Q240 416 229 402T209 369T193 332T186 304Q186 282 186
260T187 214V156Q186 138 184 119T178 82Q175 64 169 48T154 19T131 -2T100 -10Q80 -10 67 3T46 36T35 82T30 132T28 177T29 210V257Q29 295 28 332T26 406Q26 426 26 457T34 517T57 568T104 589Q118 589 129 580T148 558T162 530T171 504Q181 518 194 531T225
554T263 570T311 576Q362 576 390 552T432 491T449 412T452 336Q452 319 449 286T440 212T422 129T396 51T361 -6T314 -28ZM426 745Q426 730 416 714T391 684T359 662T327 653Q312 653 298 658T269 671T240 683T212 689Q201 689 190 683T167 669T143 655T118 649Q102
649 92 662T82 690Q82 707 94 723T124 751T161 771T196 779Q213 779 225 772T249 756T271 740T299 733Q312 733 323 740T346 757T368 774T391 782Q405 782 415 770T426 745Z" />
<glyph unicode="&#xf2;" glyph-name="ograve" horiz-adv-x="458" d="M220 -29Q169 -29 131 -2T67 67T28 160T15 262Q15 315 28 371T68 474T137 550T237 580Q293 580 332 550T396 474T430 374T437 272Q434 219 421 165T381 68T315 -2T220 -29ZM230 423Q215 423
204 407T185 368T173 320T169 275Q169 251 173 223T186 172T205 133T232 117Q248 117 259 132T278 170T288 220T291 272Q291 294 287 320T276 370T257 408T230 423ZM308 666Q308 658 302 654T287 649Q269 649 250 660T216 680Q207 686 197 693T177 709T161 728T154
750Q154 765 165 776T191 788Q206 788 226 775T264 742T295 702T308 666Z" />
<glyph unicode="&#xf3;" glyph-name="oacute" horiz-adv-x="458" d="M220 -29Q169 -29 131 -2T67 67T28 160T15 262Q15 315 28 371T68 474T137 550T237 580Q293 580 332 550T396 474T430 374T437 272Q434 219 421 165T381 68T315 -2T220 -29ZM230 423Q215 423
204 407T185 368T173 320T169 275Q169 251 173 223T186 172T205 133T232 117Q248 117 259 132T278 170T288 220T291 272Q291 294 287 320T276 370T257 408T230 423ZM343 747Q343 736 337 726T323 706T304 690T286 676Q279 671 271 665T253 653T234 643T215 639Q207
639 201 643T195 657Q195 672 206 693T235 735T271 770T306 785Q320 785 331 774T343 747Z" />
<glyph unicode="&#xf4;" glyph-name="ocircumflex" horiz-adv-x="458" d="M220 -29Q169 -29 131 -2T67 67T28 160T15 262Q15 315 28 371T68 474T137 550T237 580Q293 580 332 550T396 474T430 374T437 272Q434 219 421 165T381 68T315 -2T220 -29ZM230 423Q215
423 204 407T185 368T173 320T169 275Q169 251 173 223T186 172T205 133T232 117Q248 117 259 132T278 170T288 220T291 272Q291 294 287 320T276 370T257 408T230 423ZM356 659Q356 651 353 649T343 647Q331 647 317 653T288 668T260 687T237 705Q227 697 214
686T185 666T155 650T127 643Q122 643 118 645T113 655Q113 670 126 693T158 737T198 773T235 788Q251 788 272 774T311 739T343 697T356 659Z" />
<glyph unicode="&#xf5;" glyph-name="otilde" horiz-adv-x="458" d="M220 -29Q169 -29 131 -2T67 67T28 160T15 262Q15 315 28 371T68 474T137 550T237 580Q293 580 332 550T396 474T430 374T437 272Q434 219 421 165T381 68T315 -2T220 -29ZM230 423Q215 423
204 407T185 368T173 320T169 275Q169 251 173 223T186 172T205 133T232 117Q248 117 259 132T278 170T288 220T291 272Q291 294 287 320T276 370T257 408T230 423ZM426 745Q426 730 416 714T391 684T359 662T327 653Q312 653 298 658T269 671T240 683T212 689Q201
689 190 683T167 669T143 655T118 649Q102 649 92 662T82 690Q82 707 94 723T124 751T161 771T196 779Q213 779 225 772T249 756T271 740T299 733Q312 733 323 740T346 757T368 774T391 782Q405 782 415 770T426 745Z" />
<glyph unicode="&#xf6;" glyph-name="odieresis" horiz-adv-x="458" d="M220 -29Q169 -29 131 -2T67 67T28 160T15 262Q15 315 28 371T68 474T137 550T237 580Q293 580 332 550T396 474T430 374T437 272Q434 219 421 165T381 68T315 -2T220 -29ZM230 423Q215 423
204 407T185 368T173 320T169 275Q169 251 173 223T186 172T205 133T232 117Q248 117 259 132T278 170T288 220T291 272Q291 294 287 320T276 370T257 408T230 423ZM411 719Q411 690 392 673T344 656Q316 656 296 672T275 718Q275 748 293 769T343 790Q373 790
392 770T411 719ZM218 714Q218 685 199 668T150 651Q122 651 102 667T82 713Q82 743 100 764T149 785Q179 785 198 765T218 714Z" />
<glyph unicode="&#xf7;" glyph-name="divide" horiz-adv-x="450" d="M279 436Q279 411 263 398T223 384Q200 384 184 397T167 435Q167 460 181 477T222 494Q247 494 263 478T279 436ZM434 266Q434 257 420 252T382 242T332 236T279 232T234 231T206 230Q196 230
165 230T101 234T41 244T15 266Q15 277 27 285T58 298T100 306T144 310T183 312T209 313Q224 313 261 312T336 305T404 290T434 266ZM282 117Q282 92 266 79T226 65Q204 65 187 78T170 116Q170 139 184 156T225 174Q250 174 266 158T282 117Z" />
<glyph unicode="&#xf8;" glyph-name="oslash" horiz-adv-x="458" d="M421 603Q421 581 413 550T391 482Q418 435 429 379T437 272Q434 219 421 165T381 68T315 -2T220 -29Q183 -29 153 -14Q129 -53 108 -78T73 -103Q59 -103 55 -89T50 -63Q50 -42 57 -13T77 51Q46
95 31 151T15 262Q15 315 28 371T68 474T137 550T237 580Q284 580 321 557Q344 592 364 614T400 637Q414 637 417 625T421 603ZM230 423Q215 423 204 407T185 368T173 320T169 275Q169 251 173 223T186 172T205 133T232 117Q248 117 259 132T278 170T288 220T291
272Q291 294 287 320T276 370T257 408T230 423Z" />
<glyph unicode="&#xf9;" glyph-name="ugrave" horiz-adv-x="499" d="M468 286Q468 231 457 177T420 81T351 12T242 -14Q178 -14 135 11T67 79T31 174T20 282Q20 342 34 401Q37 417 45 445T67 501T98 549T137 569Q157 569 169 558T188 531T197 496T199 462Q199
439 196 417T188 373Q184 343 181 313T177 253Q177 238 178 220T186 184T203 156T234 144Q260 144 275 158T298 193T308 238T310 282Q310 326 304 368T293 455Q292 460 292 469Q292 484 297 499T311 526T333 545T362 553Q384 553 401 538T429 498T448 443T460 383T466
327T468 286ZM318 646Q318 638 312 634T297 629Q279 629 260 640T226 660Q217 666 207 673T187 689T171 708T164 730Q164 745 175 756T201 768Q216 768 236 755T274 722T305 682T318 646Z" />
<glyph unicode="&#xfa;" glyph-name="uacute" horiz-adv-x="499" d="M468 286Q468 231 457 177T420 81T351 12T242 -14Q178 -14 135 11T67 79T31 174T20 282Q20 342 34 401Q37 417 45 445T67 501T98 549T137 569Q157 569 169 558T188 531T197 496T199 462Q199
439 196 417T188 373Q184 343 181 313T177 253Q177 238 178 220T186 184T203 156T234 144Q260 144 275 158T298 193T308 238T310 282Q310 326 304 368T293 455Q292 460 292 469Q292 484 297 499T311 526T333 545T362 553Q384 553 401 538T429 498T448 443T460 383T466
327T468 286ZM374 737Q374 726 368 716T354 696T335 680T317 666Q310 661 302 655T284 643T265 633T246 629Q238 629 232 633T226 647Q226 662 237 683T266 725T302 760T337 775Q351 775 362 764T374 737Z" />
<glyph unicode="&#xfb;" glyph-name="ucircumflex" horiz-adv-x="499" d="M468 286Q468 231 457 177T420 81T351 12T242 -14Q178 -14 135 11T67 79T31 174T20 282Q20 342 34 401Q37 417 45 445T67 501T98 549T137 569Q157 569 169 558T188 531T197 496T199 462Q199
439 196 417T188 373Q184 343 181 313T177 253Q177 238 178 220T186 184T203 156T234 144Q260 144 275 158T298 193T308 238T310 282Q310 326 304 368T293 455Q292 460 292 469Q292 484 297 499T311 526T333 545T362 553Q384 553 401 538T429 498T448 443T460 383T466
327T468 286ZM387 648Q387 640 384 638T374 636Q362 636 348 642T319 657T291 676T268 694Q258 686 245 675T216 655T186 639T158 632Q153 632 149 634T144 644Q144 659 157 682T189 726T229 762T266 777Q282 777 303 763T342 728T374 686T387 648Z" />
<glyph unicode="&#xfc;" glyph-name="udieresis" horiz-adv-x="499" d="M468 286Q468 231 457 177T420 81T351 12T242 -14Q178 -14 135 11T67 79T31 174T20 282Q20 342 34 401Q37 417 45 445T67 501T98 549T137 569Q157 569 169 558T188 531T197 496T199 462Q199
439 196 417T188 373Q184 343 181 313T177 253Q177 238 178 220T186 184T203 156T234 144Q260 144 275 158T298 193T308 238T310 282Q310 326 304 368T293 455Q292 460 292 469Q292 484 297 499T311 526T333 545T362 553Q384 553 401 538T429 498T448 443T460 383T466
327T468 286ZM421 709Q421 680 402 663T354 646Q326 646 306 662T285 708Q285 738 303 759T353 780Q383 780 402 760T421 709ZM228 704Q228 675 209 658T160 641Q132 641 112 657T92 703Q92 733 110 754T159 775Q189 775 208 755T228 704Z" />
<glyph unicode="&#xfd;" glyph-name="yacute" horiz-adv-x="530" d="M247 -291Q223 -291 193 -284T135 -262T90 -228T71 -182Q71 -172 76 -162T89 -145T108 -133T129 -128Q141 -128 152 -131T176 -140Q189 -145 201 -149T228 -153Q253 -153 271 -136T303 -92T324
-31T336 36T343 98T346 145Q311 92 277 64T192 35Q154 35 126 51T77 93T44 152T25 222T16 292T16 356Q17 378 21 413T36 483T64 540T111 562Q130 561 142 546T161 507T172 457T177 402T178 353T177 318Q177 301 178 284T185 254T203 232T239 224Q265 224 280 237T303
269T313 311T315 354Q315 368 315 388T315 430T319 473T330 512T350 541T383 552Q408 552 426 533T456 482T476 412T488 337T493 268T495 218Q495 176 492 123T481 13T455 -98T411 -196T343 -265T247 -291ZM374 718Q374 707 368 697T354 677T335 661T317 647Q310
642 302 636T284 624T265 614T246 610Q238 610 232 614T226 628Q226 643 237 664T266 706T302 741T337 756Q351 756 362 745T374 718Z" />
<glyph unicode="&#xfe;" glyph-name="thorn" horiz-adv-x="518" d="M488 298Q488 254 479 202T447 104T387 29T295 -1Q267 -1 238 7T196 44Q195 27 195 -4T192 -72T185 -147T171 -216T147 -266T110 -286Q88 -286 74 -252T51 -166T38 -50T33 71T31 175T31 239V243Q31
263 31 309T33 412T40 531T54 644T78 727T114 760Q143 760 158 730T179 660T185 579T186 517V503Q214 528 250 544T324 561Q373 561 405 535T455 469T481 383T488 298ZM344 306Q344 321 342 336T333 365T315 387T285 396Q260 396 242 388T211 366T194 333T188 292Q188
285 188 274T190 250T192 227T196 210Q199 201 209 194T231 180T255 171T277 168Q298 168 311 184T331 222T341 267T344 306Z" />
<glyph unicode="&#xff;" glyph-name="ydieresis" horiz-adv-x="530" d="M247 -291Q223 -291 193 -284T135 -262T90 -228T71 -182Q71 -172 76 -162T89 -145T108 -133T129 -128Q141 -128 152 -131T176 -140Q189 -145 201 -149T228 -153Q253 -153 271 -136T303 -92T324
-31T336 36T343 98T346 145Q311 92 277 64T192 35Q154 35 126 51T77 93T44 152T25 222T16 292T16 356Q17 378 21 413T36 483T64 540T111 562Q130 561 142 546T161 507T172 457T177 402T178 353T177 318Q177 301 178 284T185 254T203 232T239 224Q265 224 280 237T303
269T313 311T315 354Q315 368 315 388T315 430T319 473T330 512T350 541T383 552Q408 552 426 533T456 482T476 412T488 337T493 268T495 218Q495 176 492 123T481 13T455 -98T411 -196T343 -265T247 -291ZM421 709Q421 680 402 663T354 646Q326 646 306 662T285
708Q285 738 303 759T353 780Q383 780 402 760T421 709ZM228 704Q228 675 209 658T160 641Q132 641 112 657T92 703Q92 733 110 754T159 775Q189 775 208 755T228 704Z" />
<glyph unicode="&#x2013;" glyph-name="endash" horiz-adv-x="521" d="M490 255Q490 246 476 241T438 231T388 225T335 221T290 220T262 219Q255 219 236 219T191 220T137 223T86 229T47 239T31 255Q31 266 47 274T89 288T145 296T205 300T258 302T293 303Q303
303 321 302T361 299T406 292T447 283T478 271T490 255Z" />
<glyph unicode="&#x2014;" glyph-name="emdash" horiz-adv-x="583" d="M552 255Q552 246 534 241T487 231T424 225T358 221T304 220T272 219Q265 219 245 219T198 220T142 223T88 229T47 239T31 255Q31 266 48 274T91 288T150 296T213 300T267 302T303 303Q313
303 335 302T385 299T442 292T496 283T536 271T552 255Z" />
<glyph unicode="&#x2018;" glyph-name="quoteleft" horiz-adv-x="204" d="M194 580Q194 548 174 528T121 508Q86 508 59 527T31 586Q31 602 39 627T61 676T90 717T122 734Q131 734 136 728T142 714Q142 702 137 691T125 670T113 649T108 628Q123 638 140 638Q163
638 178 620T194 580Z" />
<glyph unicode="&#x2019;" glyph-name="quoteright" horiz-adv-x="205" d="M174 669Q174 653 166 628T145 578T116 537T85 520Q65 520 65 541Q65 553 70 564T81 585T92 606T97 627Q90 622 82 619T65 616Q42 616 26 634T10 675Q10 707 31 726T84 745Q120 745 147
727T174 669Z" />
<glyph unicode="&#x201a;" glyph-name="quotesinglbase" horiz-adv-x="205" d="M174 54Q174 38 166 13T145 -36T116 -77T85 -94Q65 -94 65 -74Q65 -62 70 -51T81 -30T92 -9T97 12Q82 2 65 2Q42 2 26 20T10 60Q10 92 31 111T84 131Q120 131 147 112T174 54Z" />
<glyph unicode="&#x201c;" glyph-name="quotedblleft" horiz-adv-x="385" d="M375 580Q375 548 354 528T302 508Q266 508 239 527T212 585Q212 601 220 626T242 676T271 717T303 734Q311 734 317 728T323 714Q323 702 318 691T306 670T294 649T289 628Q304 638
321 638Q343 638 359 620T375 580ZM194 580Q194 548 174 528T121 508Q86 508 59 527T31 586Q31 602 39 627T61 676T90 717T122 734Q131 734 136 728T142 714Q142 702 137 691T125 670T113 649T108 628Q123 638 140 638Q163 638 178 620T194 580Z" />
<glyph unicode="&#x201d;" glyph-name="quotedblright" horiz-adv-x="385" d="M354 664Q354 648 346 623T325 573T297 532T266 515Q246 515 246 536Q246 548 251 559T263 580T274 601T278 622Q264 611 246 611Q223 611 207 629T191 670Q191 702 212 721T265 740Q301
740 327 722T354 664ZM174 662Q174 645 166 620T145 570T116 529T85 512Q65 512 65 534Q65 545 70 556T81 577T92 598T97 618Q82 608 65 608Q42 608 26 626T10 667Q10 699 31 718T84 738Q120 738 147 720T174 662Z" />
<glyph unicode="&#x201e;" glyph-name="quotedblbase" horiz-adv-x="385" d="M354 49Q354 33 346 8T325 -41T297 -82T266 -99Q246 -99 246 -79Q246 -67 251 -56T263 -35T274 -14T278 7Q263 -3 246 -3Q223 -3 207 15T191 55Q191 87 212 106T265 126Q301 126 327
107T354 49ZM174 47Q174 30 166 5T145 -44T116 -85T85 -102Q65 -102 65 -81Q65 -69 70 -59T81 -38T92 -17T97 4Q82 -6 65 -6Q42 -6 26 12T10 52Q10 84 31 104T84 124Q120 124 147 105T174 47Z" />
<glyph unicode="&#x2022;" glyph-name="bullet" horiz-adv-x="208" d="M187 373Q187 336 165 314T105 291Q69 291 45 313T20 372Q20 408 42 436T103 464Q141 464 164 437T187 373Z" />
<glyph unicode="&#x2039;" glyph-name="guilsinglleft" horiz-adv-x="227" d="M207 327Q207 309 196 286T168 239T135 195T105 160Q116 148 132 130T163 90T188 48T199 11Q199 5 197 -1T186 -8Q177 -8 161 2T125 28T85 63T48 101T21 136T10 161Q10 171 20 189T47
227T84 269T125 307T162 334T191 345Q201 345 204 340T207 327Z" />
<glyph unicode="&#x203a;" glyph-name="guilsinglright" horiz-adv-x="224" d="M214 158Q214 149 203 134T175 100T137 64T96 30T60 5T34 -5Q26 -5 23 1T20 13Q20 29 31 50T57 91T90 130T118 160Q107 174 91 195T59 240T34 287T23 328Q23 336 25 342T38 348Q49
348 66 337T102 309T142 269T178 226T204 187T214 158Z" />
</font>
</defs>
</svg>
