<?xml version="1.0" standalone="no"?>
<!DOCTYPE svg PUBLIC "-//W3C//DTD SVG 1.1//EN" "http://www.w3.org/Graphics/SVG/1.1/DTD/svg11.dtd">
<svg xmlns="http://www.w3.org/2000/svg">
<defs >
<font id="AveriaLibre" horiz-adv-x="916" ><font-face
    font-family="Averia Libre"
    units-per-em="2048"
    panose-1="2 0 6 3 0 0 0 0 0 4"
    ascent="1952"
    descent="-492"
    alphabetic="0" />
<glyph unicode=" " horiz-adv-x="561" />
<glyph unicode="!" horiz-adv-x="604" d="M384 591Q384 482 362 430Q348 396 305 396H293Q258 396 243 424T228 521L226 545L217 776V801L215 837V862L212 948V973L210 1022Q210 1040 210 1058L208 1118Q208 1130 208 1142L207 1190V1296Q207 1374 231 1407T320
1440H344Q387 1440 408 1415T430 1326V1269L429 1257L425 1162L423 1138Q422 1126 422 1114L420 1090Q418 1066 418 1053L415 1017Q412 979 412 968L408 918Q404 868 404 857L396 747L390 675Q384 603 384 591ZM175 121Q175 171 200 201T262 231Q282 236 287 236H322Q424
236 424 131V101Q424 52 398 21T329 -11Q321 -13 317 -13L299 -15H282L278 -14H269Q261 -12 246 -12T205 10T178 74L175 99V121Z" />
<glyph unicode="&quot;" horiz-adv-x="763" d="M214 1467H240Q316 1467 316 1401V1357L315 1350L310 1280L309 1273L305 1228Q294 1156 294 1144Q294 1051 263 989Q249 962 203 962H191Q156 962 147 992T138 1084V1152L135 1191V1204L122 1382V1394Q122 1432 142
1449T214 1467ZM537 1466H575Q645 1466 645 1395V1370L644 1363Q644 1357 644 1351L639 1287Q634 1257 632 1234T625 1175T620 1132Q620 1055 595 1000Q579 964 537 964H512Q482 964 472 1001T462 1218L451 1363V1407Q451 1466 537 1466Z" />
<glyph unicode="#" horiz-adv-x="1255" d="M483 538H592Q700 538 711 557T735 640T748 713T753 735T763 776T770 812V826Q770 838 722 838H664L659 837Q553 837 538 826Q505 802 505 726L497 687L493 665L492 660L490 655Q487 635 479 604T470 562V548Q470 538
483 538ZM107 421T107 462T141 523Q155 531 217 543T299 575Q344 623 344 750Q344 798 318 814Q311 818 234 830T157 881Q157 925 181 942T278 971T377 1013T431 1152T475 1293T537 1324Q598 1324 598 1258Q598 1228 583 1134T567 1018T582 985T682 974T786 993T830
1125T877 1280T953 1322T1007 1275Q1007 1239 999 1178T990 1058T1066 979T1142 901Q1142 853 1070 839Q948 816 935 796Q894 736 894 612Q894 559 990 548T1086 484Q1086 442 1048 423Q1031 415 963 404T866 355T809 205T773 80Q751 47 701 47Q646 47 646 111Q646
142 662 238T678 356T665 389T568 401T463 383T414 249T372 105Q344 47 289 47T234 116L251 301Q251 369 190 391Q107 421 107 462Z" />
<glyph unicode="$" horiz-adv-x="1119" d="M522 1212Q522 1244 507 1244H498L493 1243Q442 1243 375 1176Q332 1133 332 1066V1038Q332 958 371 913Q441 831 493 831H501Q519 831 519 1041V1122L520 1139Q520 1147 520 1155L522 1181V1212ZM623 283Q623 150 638
150L643 151H648Q730 151 780 215T830 347V366Q830 467 766 540T642 613H637Q620 613 620 575Q616 551 616 539L614 508V451L615 444Q615 438 615 432L616 420L617 414L622 340Q622 334 622 328L623 321V283ZM935 1133Q935 1075 868 1075Q851 1075 791 1124T697
1173T646 1130T630 961T656 798Q666 784 786 712Q904 640 952 566Q1000 494 1000 376Q1000 161 787 52Q777 47 713 21T636 -21T609 -98T555 -160T495 -101T452 -22T339 32T212 100Q146 161 146 246T190 331T305 259T428 186T490 230T501 415T456 613Q439 635 386
668T316 714Q240 771 203 840T165 1016T240 1212Q285 1265 381 1315T480 1367Q504 1388 524 1438T574 1488T622 1462Q681 1381 716 1359Q724 1354 787 1326T878 1272Q935 1219 935 1133Z" />
<glyph unicode="%" horiz-adv-x="1621" d="M356 813H379Q428 813 467 871T506 1021V1077Q506 1165 470 1220T375 1275H369Q314 1275 275 1219T235 1087Q233 1073 233 1067L232 1039V1032L233 1025Q233 942 265 878T356 813ZM1159 139H1177Q1234 139 1276 200T1319
334L1321 348L1322 369V411Q1322 509 1283 559T1198 610H1180Q1113 610 1076 536T1039 365V351Q1039 257 1071 198T1159 139ZM388 679H355Q247 679 169 757T91 964L89 986V1031Q89 1184 181 1282T396 1381H429Q545 1381 620 1295T695 1074V1029Q695 876 603 778T388
679ZM1110 1385T1173 1385T1236 1351Q1236 1337 1206 1279Q1001 882 519 106Q458 8 395 8T332 42Q332 60 362 114Q688 705 1040 1272Q1110 1385 1173 1385ZM1201 12H1168Q1056 12 979 101T902 342V375Q904 397 904 408Q904 521 990 613T1199 706H1221Q1346 706
1420 613T1495 385V340Q1495 197 1410 105T1201 12Z" />
<glyph unicode="&amp;" horiz-adv-x="1411" d="M638 1279H612Q561 1279 520 1232T478 1129V1087Q481 1069 481 1059Q481 1013 528 935T590 856H594Q647 856 705 961Q746 1035 746 1081L749 1112V1118L748 1124Q748 1181 715 1230T638 1279ZM559 137H575Q651 137
727 178T803 254V260L617 502Q502 652 491 652H479Q440 652 361 546Q316 486 316 427L314 411V394L315 386Q315 288 384 213T559 137ZM521 -6Q350 -6 238 98Q189 143 157 211T125 347V376Q125 523 276 674Q359 757 359 795Q359 804 321 900T283 1057Q283 1180 369
1271T593 1362H621Q732 1362 803 1285T874 1094Q874 1067 831 893T787 668T836 588T953 558Q970 558 993 586Q1081 693 1174 693Q1215 693 1215 641Q1215 631 1164 512T1113 326T1180 171T1247 74Q1247 46 1188 46Q1187 46 1132 54L1111 57Q1067 64 1049 64T905
49T688 14T521 -6Z" />
<glyph unicode="&apos;" horiz-adv-x="452" d="M260 1461Q336 1461 336 1388V1369L335 1363V1344L334 1337V1324L330 1279L329 1273L325 1227Q319 1189 319 1182Q319 1065 280 987Q265 957 222 957H203Q169 957 162 988T154 1088V1163L152 1189V1202L144 1303L139
1378V1385Q139 1459 215 1459L228 1461H260Z" />
<glyph unicode="(" horiz-adv-x="717" d="M140 624Q140 750 170 904Q233 1227 412 1425Q501 1524 558 1524T616 1479Q616 1474 527 1326T401 1057Q337 849 337 598Q337 203 488 -49Q595 -227 595 -245Q595 -286 535 -286T390 -189T244 45Q140 277 140 559V624Z" />
<glyph unicode=")" horiz-adv-x="716" d="M585 623Q585 313 466 47Q410 -77 319 -182T178 -288H159Q109 -288 109 -251Q109 -223 193 -93T321 167Q388 368 388 635T326 1088Q289 1198 210 1330T131 1474Q131 1523 191 1523T337 1421Q501 1226 556 941Q585 789
585 645V623Z" />
<glyph unicode="*" horiz-adv-x="960" d="M427 1278Q427 1406 520 1406Q558 1406 570 1383T583 1310T579 1226L573 1175Q573 1158 577 1158T656 1191T770 1224Q837 1224 837 1163V1149Q837 1091 731 1053Q655 1026 655 1001Q655 995 703 945T752 833Q752 789 682
789Q640 789 604 810T556 831T531 820T512 805T470 778T419 754H410Q388 754 358 793T298 843T254 874T240 945L246 969V996Q246 1016 254 1036T262 1058L257 1065Q233 1086 213 1136T193 1193Q193 1242 267 1242Q297 1242 337 1223T410 1203Q427 1203 427 1278Z"
/>
<glyph unicode="+" horiz-adv-x="1076" d="M976 611Q976 546 947 534T772 521T620 509T613 347T599 174T531 149H514Q471 149 462 187Q457 208 457 354T451 509T296 517T124 527T100 575V592Q100 650 136 660T309 670T452 681T459 832T471 1003T540 1035T607 1010T616
835T624 679T778 673T950 666T976 628V611Z" />
<glyph unicode="," horiz-adv-x="524" d="M126 -244V-234Q126 -222 147 -193Q206 -112 206 -50Q206 -35 174 18Q142 70 142 128Q142 242 260 243H275Q337 243 365 218T394 125V80Q394 -29 322 -153T180 -277H161Q126 -277 126 -244Z" />
<glyph unicode="-" horiz-adv-x="827" d="M155 487Q111 487 111 538V561Q111 628 142 638T428 649L624 652H661Q719 652 719 600V578Q717 564 717 556Q717 506 680 498T401 489H356L334 488H289L259 487H155Z" />
<glyph unicode="." horiz-adv-x="522" d="M286 239T315 239T368 207T391 128V105L390 101V92Q388 84 388 79Q388 35 357 9T266 -17H252Q134 -17 134 76L131 97V129Q131 173 154 205T221 237Q235 240 238 240L260 242H274Q286 239 315 239Z" />
<glyph unicode="/" horiz-adv-x="825" d="M661 1482T728 1482T795 1440Q795 1413 743 1287L702 1183Q685 1138 682 1131L619 972L592 902Q571 848 552 798T523 725L509 690Q502 672 478 612T353 292T224 -31Q175 -141 109 -141T43 -99Q43 -83 100 70Q429 956 606
1357Q661 1482 728 1482Z" />
<glyph unicode="0" horiz-adv-x="1184" d="M308 688V595Q308 398 374 260Q440 123 566 122H580Q636 122 688 158T773 260Q848 410 848 637V716Q848 938 782 1070T597 1202H584Q518 1202 464 1160T381 1056Q308 903 308 688ZM573 1343H632Q719 1343 804 1298Q1073
1156 1073 683L1072 662Q1072 358 939 167Q875 76 779 28T577 -20H538Q448 -20 365 26Q195 119 140 344Q106 480 106 616V679Q106 829 146 959T245 1169T394 1295T573 1343Z" />
<glyph unicode="1" horiz-adv-x="849" d="M160 1113V1124Q160 1161 241 1211Q429 1326 492 1326H508Q558 1326 574 1290T590 1143L588 1085Q586 1046 586 1045L579 722V681L577 599Q577 599 577 489Q577 399 579 381Q588 301 631 233T675 114T620 33T478 3H459Q360
3 286 52Q244 80 244 127T290 236T350 353T364 663T335 992Q316 1041 259 1057Q160 1085 160 1113Z" />
<glyph unicode="2" horiz-adv-x="1102" d="M729 952Q729 1173 512 1173Q426 1173 343 1101Q223 997 199 997Q146 997 146 1083T268 1255T550 1340H582Q659 1340 733 1311T855 1232Q946 1136 946 986Q946 766 724 565Q656 503 583 439T461 324T411 226T583 180Q680
180 757 190L810 198L835 203Q878 210 903 210Q977 210 977 137T917 35T694 6H505L474 7Q215 7 174 22T132 114T230 314Q289 388 433 520T653 752T729 952Z" />
<glyph unicode="3" horiz-adv-x="1089" d="M554 1343Q887 1343 887 1078Q887 956 816 848T744 738Q744 719 803 679T914 563T966 390T938 219T841 82T679 -12T496 -45H464Q335 -45 232 12T129 139T194 209Q222 209 324 169T523 129T680 199T741 365T665 532Q619
574 571 589T479 614T414 641T392 695Q392 724 484 772Q673 871 673 1031Q673 1096 628 1135T510 1174T344 1131T218 1088Q171 1088 171 1139Q171 1216 265 1271Q388 1343 554 1343Z" />
<glyph unicode="4" horiz-adv-x="1147" d="M670 1064Q670 1075 666 1075T565 930T363 637T258 480T292 469H340L348 470H432Q605 470 625 481T646 543Q648 561 648 569L651 623V642L655 714Q655 728 655 742L664 913V930L668 999L670 1041V1064ZM763 -33Q690 -33
656 13T621 169Q621 238 558 273Q463 326 330 326L308 327Q286 328 232 328T146 347Q93 378 93 437Q93 530 569 1165Q691 1327 764 1327T855 1282Q868 1250 868 971T889 619T951 497Q961 485 989 462T1017 421V411Q1017 348 956 289T894 209L899 138Q899 -33 763
-33Z" />
<glyph unicode="5" horiz-adv-x="1096" d="M748 390Q748 675 382 675L325 673Q243 673 210 705T177 860T200 1111T246 1274T321 1319T495 1330T680 1333L774 1339Q824 1343 835 1343Q931 1343 931 1287Q931 1202 847 1177Q807 1165 637 1160T435 1137T377 1062T351
935T367 852T489 838Q818 838 929 601Q967 519 967 413Q967 212 843 92Q776 27 684 -7T497 -42H464Q329 -42 228 16T126 145T190 217Q218 217 314 173T508 129T676 200T748 390Z" />
<glyph unicode="6" horiz-adv-x="1127" d="M553 122H580Q672 122 742 198T813 387L815 406L816 436V446L815 455Q815 581 752 650T587 719L578 718Q473 718 403 654T333 492V426Q333 286 402 204T553 122ZM694 1347Q891 1347 891 1249Q891 1180 768 1169Q693 1163
677 1160Q496 1131 406 985Q370 926 370 872Q370 807 440 807L630 821Q799 821 906 714T1014 431V405Q1014 320 982 241Q917 84 762 19Q672 -19 592 -19H540Q453 -18 368 20Q206 94 147 280Q109 402 109 536V590Q109 756 154 900Q244 1188 479 1296Q592 1347 694
1347Z" />
<glyph unicode="7" horiz-adv-x="1043" d="M471 -50T388 -50T305 26T481 548Q530 671 616 847T702 1073T654 1139T479 1155T264 1135T168 1115Q100 1115 100 1190T150 1300T325 1335L349 1334H495Q809 1334 887 1313Q948 1297 948 1237V1217Q948 1151 694 562Q633
420 609 348T549 160T504 25Q471 -50 388 -50Z" />
<glyph unicode="8" horiz-adv-x="1121" d="M346 1078V1048Q346 961 419 888T582 815L589 816Q664 816 720 893T776 1056V1064Q776 1147 721 1208T575 1269H545Q467 1269 407 1215T346 1078ZM802 344V380Q802 480 730 552Q628 654 525 654H492Q411 654 338 549Q290
480 290 382L289 373Q289 267 356 194T529 120H565Q668 120 735 187T802 344ZM958 1058Q958 939 849 813Q797 753 797 742T828 706Q996 571 996 378V356Q996 202 881 95Q820 38 733 8T568 -23H498Q335 -23 221 73Q154 129 125 198T96 327V371Q96 522 240 662Q300
721 300 726Q300 732 253 786Q149 907 149 1053T264 1297T561 1395H584Q750 1395 854 1305T958 1058Z" />
<glyph unicode="9" horiz-adv-x="1125" d="M303 922V873Q303 760 366 691T527 622H536L545 623Q646 623 719 684T792 857V895Q792 1040 724 1129T550 1218L541 1217Q429 1217 366 1126T303 922ZM107 889V915Q107 1121 235 1238T568 1356Q672 1356 755 1318Q1007
1201 1007 815V760Q1007 602 967 454Q888 161 658 47Q532 -16 415 -16H393Q321 -16 274 9T227 78T288 143Q302 148 369 156T443 165Q617 198 708 344Q746 405 746 457Q746 522 675 522L507 509Q336 509 225 610Q165 664 136 739T107 889Z" />
<glyph unicode=":" horiz-adv-x="548" d="M273 956H287Q358 956 383 926T408 835V830Q408 703 304 703L278 700H264Q199 700 174 730T148 822V826L150 848L153 869Q153 909 186 932T273 956ZM402 127L400 106Q400 69 374 43T307 16Q299 14 294 14L276 12H258L254
13H245Q237 15 232 15Q191 15 168 43T144 126V144Q144 213 177 240T271 268H284Q349 268 376 241T403 158V132L402 127Z" />
<glyph unicode=";" horiz-adv-x="550" d="M160 827T160 850T186 900T251 927Q259 929 263 929L280 931H302Q408 931 408 817V795Q408 740 383 710T314 679Q306 677 301 677L284 675H262L229 680Q160 680 160 762L157 784V815Q160 827 160 850ZM157 151Q157 203
189 229Q222 255 266 255H295Q354 255 379 227T405 132V102L404 95V80Q401 59 401 51Q401 -46 325 -151T190 -257H177Q143 -257 143 -219V-215Q143 -214 182 -147T221 -47T190 32T159 117L157 130V151Z" />
<glyph unicode="&lt;" horiz-adv-x="1061" d="M873 1094H888Q914 1094 914 1033T823 904Q764 860 542 728T319 587Q319 584 560 441T832 277Q918 218 918 167V151Q918 91 884 91H869Q860 91 805 120Q452 307 177 485Q102 533 102 585T187 692Q810 1094 873 1094Z" />
<glyph unicode="=" horiz-adv-x="1106" d="M902 839Q973 839 973 788V769L972 759Q972 703 930 696Q902 691 538 691H518L498 690H389L350 689H183Q121 689 121 749L122 759Q122 825 173 833Q203 838 556 838L784 839H902ZM200 333Q119 333 119 385V404L120 414Q120
470 171 478Q207 484 564 484L743 485H901Q972 485 972 433V414Q972 350 933 343T526 336H496L476 335H387L357 334H268L239 333H200Z" />
<glyph unicode="&gt;" horiz-adv-x="1056" d="M172 91Q145 91 145 150T221 269Q238 282 490 439T742 599T511 739T249 899Q146 974 146 1035T175 1097H190Q253 1097 877 702Q954 653 954 614V597Q954 547 870 493Q247 91 187 91H172Z" />
<glyph unicode="?" horiz-adv-x="992" d="M472 1425H511Q580 1424 656 1396Q873 1315 873 1081Q873 963 809 862Q772 803 669 707T550 588T519 488T504 411Q488 386 450 386H433Q356 386 356 522Q356 604 391 664T506 808T609 927Q657 1003 657 1083T603 1204T472
1245T312 1186T196 1127Q127 1127 127 1201V1218Q127 1298 237 1361T472 1425ZM314 130Q314 239 431 239H444Q459 236 470 236Q512 236 536 207T561 131V101Q561 54 533 21T462 -13L441 -16H419Q407 -13 389 -13T344 9T317 70L314 91V130Z" />
<glyph unicode="@" horiz-adv-x="1735" d="M918 816H904Q799 816 724 716T648 504V455Q648 363 680 317T762 271H769Q869 271 945 372T1021 622Q1028 678 1028 690V712Q1028 760 1000 788T918 816ZM785 203Q546 203 546 475Q546 537 577 636Q638 831 758 884Q803
904 873 904L911 902L948 898L984 901L1019 906Q1102 906 1128 837Q1144 794 1151 648T1166 470Q1186 380 1255 380L1288 390Q1334 413 1366 484Q1398 554 1399 650Q1399 863 1260 1006Q1121 1148 890 1148Q754 1148 644 1092Q435 985 350 769Q304 653 304 509T358
251Q513 -76 940 -76Q982 -76 1042 -71L1088 -66Q1151 -59 1184 -59T1218 -80Q1218 -133 1098 -170T865 -208H807Q665 -208 530 -154Q253 -44 153 236Q106 368 106 533T170 851Q307 1175 624 1280Q755 1324 906 1324T1178 1276Q1417 1180 1515 974Q1578 841 1578
707T1545 483Q1479 305 1339 232Q1262 192 1196 192T1060 216T958 240L919 231L876 219Q815 203 785 203Z" />
<glyph unicode="A" horiz-adv-x="1343" d="M687 571Q839 571 839 600V606Q839 616 827 664T812 721T807 738T778 860T709 1072T661 1170T626 1098Q458 678 458 601V595Q458 571 561 571H628L637 572L670 571H687ZM1241 172V152Q1241 95 1193 49Q1167 24 1098 24T999
61Q996 65 961 197T881 379T707 430Q461 430 415 388T325 208Q309 158 303 112T288 53Q270 26 218 26T134 69T103 166T139 273T192 369T338 792T512 1266T590 1385T673 1411T762 1376T848 1242Q849 1239 1160 362Q1177 314 1209 262T1241 172Z" />
<glyph unicode="B" horiz-adv-x="1261" d="M411 884Q411 824 430 811T508 798H532L540 799L572 800L621 804Q719 804 797 882Q854 939 854 1041V1060Q854 1167 782 1221T587 1275H546Q442 1275 427 1247T412 1018V1001L411 967V884ZM411 254Q411 254 413 197Q413
145 546 145H623Q768 145 848 213T929 393V434Q929 550 846 615T635 680H541Q465 680 440 665T414 602Q410 566 410 552V528L409 500V300L410 291L411 254ZM833 1406T947 1318T1062 1074T956 815Q899 760 899 756T923 737L942 727Q1035 679 1090 599T1145 410V385Q1144
286 1098 208Q1012 63 813 19Q712 -3 570 -3H475L451 -2Q251 -2 200 11Q151 24 151 68Q151 82 172 136T193 358V1027Q193 1194 171 1256T148 1325V1340Q148 1373 195 1386T370 1400L394 1401Q418 1402 441 1402L489 1404L610 1406Q833 1406 947 1318Z" />
<glyph unicode="C" horiz-adv-x="1273" d="M538 1191Q338 1074 338 690Q338 305 570 195Q642 161 761 161T1051 260Q1097 287 1128 287Q1169 287 1169 233Q1169 204 1134 156T1039 72Q898 -10 715 -10H683Q554 -10 440 39Q219 134 139 398Q103 518 103 651V684Q103
828 145 968Q227 1240 464 1353Q590 1412 758 1412Q1029 1412 1106 1283Q1138 1229 1138 1188Q1138 1101 1077 1101Q1058 1101 991 1147T857 1215T704 1238T538 1191Z" />
<glyph unicode="D" horiz-adv-x="1390" d="M1028 676V745Q1028 862 996 964Q901 1269 608 1269H606H562Q441 1269 426 1217Q418 1190 418 929V580L417 517V362L418 346L419 301L421 240Q421 191 453 170T581 149L596 150Q890 150 986 425Q1028 547 1028 676ZM206
1055Q205 1077 205 1132T180 1250T154 1321V1337Q154 1374 217 1385Q340 1407 545 1407H616Q924 1407 1097 1234Q1184 1147 1229 1015T1274 736L1273 711Q1272 544 1220 404Q1117 129 842 39Q725 1 546 1H500Q318 1 218 19Q158 30 158 67Q158 90 181 142T208 254T212
665L211 712V851L207 1033L206 1055Z" />
<glyph unicode="E" horiz-adv-x="1180" d="M646 815L795 841Q903 841 903 743Q903 686 878 651T818 616T721 628T622 640Q493 640 456 604T419 432T455 230T600 163Q748 163 856 184T985 205Q1058 205 1058 149V124Q1058 40 951 18Q872 2 580 2H542Q303 2 224
24T144 98V126L151 154L168 209Q190 295 190 572L206 1015Q206 1148 201 1178T181 1247T166 1322Q166 1409 645 1409H865Q1028 1409 1028 1298Q1028 1262 1006 1244T951 1225T830 1233T637 1242T491 1191Q438 1123 438 951Q438 876 482 846T646 815Z" />
<glyph unicode="F" horiz-adv-x="1121" d="M298 28Q158 28 158 162Q158 181 177 231T202 316T208 477L211 628L215 899Q215 1153 190 1228T165 1309Q165 1357 242 1369Q497 1409 861 1409H891Q1031 1409 1031 1310V1288Q1031 1223 963 1223Q959 1223 869 1236T656
1250T491 1202T449 976Q449 886 477 844T605 802Q643 802 700 812T775 823Q831 823 863 786T895 687Q895 606 799 606L753 610Q722 612 679 612T574 588T489 531Q438 458 438 246L444 110Q444 75 405 52T298 28Z" />
<glyph unicode="G" horiz-adv-x="1366" d="M985 300T985 391T933 546T881 613Q881 649 983 649T1147 625T1209 555V531Q1209 380 1189 261T1149 111Q1117 62 1026 32Q876 -17 766 -17H731Q587 -17 469 38T280 175T159 386T108 667V707Q108 850 152 984Q239 1253
488 1362Q612 1416 750 1416H789Q974 1416 1071 1365T1168 1224T1103 1133L958 1194Q862 1234 766 1234Q574 1234 460 1096T345 709Q345 586 376 481Q466 180 760 180Q862 180 923 240Z" />
<glyph unicode="H" horiz-adv-x="1435" d="M1012 1121L989 1279Q989 1337 1041 1366T1166 1395T1269 1370T1300 1320V1287L1292 1256L1279 1227L1267 1196Q1250 1140 1250 838L1248 672Q1248 644 1246 589L1243 505Q1240 379 1240 325T1247 240T1273 165T1292
101Q1292 47 1258 28T1152 9T1035 42T990 108T998 181T1012 261T1018 443T964 622Q926 647 786 647Q511 647 463 593Q425 550 425 341Q425 263 429 230L434 198L440 169Q446 135 446 105T407 47T291 20Q146 20 146 109Q146 111 183 233Q204 303 204 708L205 749Q206
806 207 839T208 988T201 1143T172 1228T150 1302Q150 1387 289 1387Q361 1387 403 1360T446 1294Q446 1285 436 1224T426 1073Q426 886 478 848T811 809Q958 809 985 864T1012 1121Z" />
<glyph unicode="I" horiz-adv-x="679" d="M379 5H322Q245 5 196 30T146 85T180 181T225 328T237 722T227 1105T182 1228T147 1317T200 1379T347 1404H385Q461 1404 497 1378T533 1323V1309Q533 1291 507 1240T471 1105T461 661T466 259T500 166T529 82T485 27T379 5Z" />
<glyph unicode="J" horiz-adv-x="889" d="M285 -117H263Q174 -117 107 -83T40 3V22Q40 53 67 80T150 108L245 101Q304 101 352 153T428 285Q480 433 480 751L479 775Q478 799 478 898T459 1075T406 1213T372 1309T425 1377T579 1409H601Q660 1409 704 1378T749
1294Q749 1275 741 1232T722 1075T711 859L709 811Q708 787 708 763L706 715L703 569Q703 218 606 66Q552 -18 465 -67T285 -117Z" />
<glyph unicode="K" horiz-adv-x="1322" d="M345 23T251 23T157 102Q157 119 171 161T196 254T208 686T198 1132T174 1243T160 1315Q160 1391 292 1391Q355 1391 404 1361T454 1277Q454 1250 447 1208L439 1160Q436 1127 436 1011T449 865T497 836T731 1076Q805
1165 825 1196T872 1277T914 1341Q956 1387 1051 1387T1146 1330Q1146 1321 946 1084T746 782Q746 748 914 504T1155 166T1228 52Q1228 12 1144 12H1110Q1021 12 963 71Q955 79 840 260T685 492Q600 599 539 599Q491 599 462 511T432 287L446 166Q446 96 396 60Z"
/>
<glyph unicode="L" horiz-adv-x="1114" d="M147 102Q147 115 161 153T182 231T190 380L193 532Q193 532 193 854Q193 1086 190 1125T163 1220T140 1314T177 1379T272 1405H296Q372 1405 421 1375T471 1289Q471 1267 457 1228T431 1140T419 693T439 243T506 179T660
167T816 183T917 220T993 241Q1061 241 1061 150V127Q1061 51 1005 21Q966 0 845 0H642L617 1H591Q295 1 221 17T147 102Z" />
<glyph unicode="M" horiz-adv-x="1748" d="M1304 981T1288 981T1122 635T946 249Q900 178 849 178T753 266Q725 322 595 652T434 983Q421 983 413 957Q363 791 363 289Q363 155 333 110T225 64T146 143Q146 152 172 227T205 394Q229 737 229 918T219 1171L212
1216Q202 1276 202 1297T228 1341T306 1363Q422 1363 505 1253Q564 1176 708 863T883 549L905 582L1058 893Q1204 1188 1248 1251Q1329 1367 1464 1367Q1505 1367 1533 1349T1561 1297L1557 1263L1551 1223Q1546 1180 1546 1128V1023L1547 915Q1547 860 1549 752V535Q1549
308 1569 238L1583 200Q1603 146 1603 129Q1603 46 1479 46Q1408 46 1364 119Q1341 158 1341 226L1347 409Q1347 869 1309 968Q1304 981 1288 981Z" />
<glyph unicode="N" horiz-adv-x="1456" d="M1088 1270Q1088 1362 1207 1362Q1262 1362 1297 1326T1332 1243T1308 1129T1276 981T1268 697L1267 655Q1266 613 1266 428T1251 120Q1242 43 1171 43T998 171Q967 210 711 608T406 1006Q374 1006 374 421Q374 357 382
269T391 174Q391 113 344 72T232 30Q144 30 144 92Q144 130 169 192Q209 292 209 677L210 720L213 807Q215 894 215 1021T192 1230T169 1314Q169 1362 241 1362Q384 1362 512 1211T845 750T1071 439Q1108 439 1108 1001Q1108 1151 1098 1209T1088 1270Z" />
<glyph unicode="O" horiz-adv-x="1432" d="M328 716V665Q328 441 413 299Q463 215 537 171T675 126H722Q799 126 865 168Q990 247 1038 429Q1071 553 1071 686V720Q1071 724 1071 728Q1071 832 1046 940Q999 1149 872 1230Q798 1276 720 1276H688Q620 1276 549
1236Q419 1163 362 974Q328 861 328 716ZM1314 751V682Q1314 542 1269 400Q1184 131 955 30Q832 -25 705 -25H683Q424 -25 260 170Q192 252 151 382T109 649V695Q109 841 151 985Q192 1130 280 1230Q446 1420 705 1420H750Q853 1420 965 1372Q1190 1277 1274 1009Q1314
883 1314 751Z" />
<glyph unicode="P" horiz-adv-x="1211" d="M436 750Q436 713 458 695T541 676H604Q622 678 631 678Q737 678 819 760T902 977V1021Q902 1142 825 1213T604 1285H577Q559 1283 551 1283Q469 1283 451 1241Q438 1211 438 964L437 945V904L436 875V750ZM305 26H285Q229
26 198 52T167 112T194 221T221 386L223 432Q224 455 224 478L225 501Q226 524 226 547L228 638V819L229 886Q229 919 229 952L227 995Q226 1017 226 1038T219 1158T203 1292T194 1342Q194 1383 256 1396Q365 1419 608 1419H680Q1004 1419 1106 1185Q1138 1112
1138 1025V1000Q1138 923 1105 842Q1042 687 890 620Q834 595 720 569T552 507Q447 438 447 343L474 171Q474 113 427 70T305 26Z" />
<glyph unicode="Q" horiz-adv-x="1466" d="M724 1276H690Q610 1276 540 1236Q409 1161 355 975Q320 854 320 726V673Q320 558 350 453T424 287T535 187T673 148H701Q871 148 1000 337Q1099 482 1099 701V718Q1099 851 1069 956T997 1124T884 1231T724 1276ZM1131
53Q1131 8 1224 -68T1317 -161T1279 -201T1165 -226H1141Q1028 -226 713 -82T320 133Q209 235 150 392T90 715V744Q90 1040 243 1226Q318 1317 432 1372T657 1428H714Q841 1428 960 1376Q1199 1271 1279 998Q1309 896 1309 718Q1309 417 1205 216Q1131 75 1131
53Z" />
<glyph unicode="R" horiz-adv-x="1299" d="M509 719H534Q692 719 785 792T878 987V1036Q878 1144 808 1208T612 1273H577L568 1272L534 1270Q516 1268 509 1268Q424 1268 424 1187L421 1161L419 1124Q419 1115 419 1106L418 1096V1050L417 1022V854L416 826Q416
757 433 738T509 719ZM202 1079Q201 1108 201 1163T191 1276T181 1346Q181 1385 259 1399T533 1413H595Q977 1413 1073 1182Q1098 1121 1098 1032T1063 871T958 725T887 601T973 400T1101 204Q1181 120 1181 87V69Q1181 22 1107 22H1083Q1015 22 958 82Q925 117
818 295T699 487Q636 557 562 557T450 478Q431 439 431 361T444 216T457 138Q457 79 411 52T295 25T199 46Q151 83 151 148Q151 173 174 225T203 323T209 529V813L208 843Q207 873 207 903L204 1021L202 1079Z" />
<glyph unicode="S" horiz-adv-x="1143" d="M576 -11Q484 -11 373 12T217 62T147 137T121 230T142 299T188 324T281 267T418 181T589 152T755 206T819 359T703 538Q671 560 491 645T253 791T170 914T144 1064Q144 1222 277 1326Q396 1421 634 1421Q780 1421 879
1378Q924 1358 954 1311T985 1222Q985 1126 922 1126Q904 1126 799 1195T589 1264T419 1215T354 1078T439 923Q485 886 672 802T927 649T1018 518T1041 373T1006 219Q936 72 757 16Q672 -11 583 -11Q579 -11 576 -11Z" />
<glyph unicode="T" horiz-adv-x="1187" d="M1150 1289Q1150 1194 1092 1194Q1070 1194 1009 1211T888 1228Q755 1228 731 1128Q711 1044 711 632L708 436V336Q708 277 715 247T738 174T754 106Q754 56 712 29T593 2H568Q513 2 470 29T427 95T439 166L447 186L456
206Q465 227 477 271T490 433L491 461Q492 489 492 517L494 574L497 800Q497 1084 480 1145Q458 1224 355 1224Q295 1224 216 1198T117 1171Q68 1171 68 1273T155 1389Q277 1408 730 1408H1008Q1085 1408 1117 1379T1150 1289Z" />
<glyph unicode="U" horiz-adv-x="1393" d="M285 1377Q416 1377 416 1271L414 1247L407 1194Q403 1148 403 1064V858Q403 424 442 330Q516 152 715 151Q827 151 896 210T996 357Q1041 486 1041 978Q1041 1158 1034 1225T1026 1312Q1026 1383 1129 1383H1159Q1207
1383 1232 1351Q1275 1296 1275 1251V1219Q1275 1197 1253 1133T1227 1010T1223 702Q1223 689 1223 676Q1223 449 1206 355Q1188 256 1126 172Q1001 4 679 4Q261 4 201 392Q186 489 186 680T182 977T153 1148T128 1242Q128 1309 180 1354Q207 1377 285 1377Z" />
<glyph unicode="V" horiz-adv-x="1307" d="M660 309T689 309T927 959Q969 1089 978 1138T994 1247T1012 1327Q1047 1398 1156 1398Q1208 1398 1230 1382T1253 1316T1190 1160Q1172 1129 1012 687T808 149T735 30T660 6T584 28T510 149Q508 153 343 620T121 1168T64
1297T93 1362T183 1379T290 1354T351 1298T380 1205T416 1076L436 1019Q440 1008 455 961L504 811Q660 309 689 309Z" />
<glyph unicode="W" horiz-adv-x="1889" d="M1328 438Q1385 438 1509 929Q1580 1208 1592 1238Q1637 1346 1704 1346T1772 1253Q1772 1204 1733 1066T1622 653T1513 277T1409 127Q1372 99 1349 99Q1267 99 1209 200T1054 566T949 830T835 561T692 225Q626 110 549
110Q524 110 495 131Q427 179 389 282T241 790T130 1229V1258Q130 1334 189 1334T282 1308T349 1218Q360 1196 473 813T615 429Q649 429 718 689T802 1071T822 1209Q853 1300 944 1300Q1056 1300 1096 1206Q1118 1154 1139 1043T1234 685T1328 438Z" />
<glyph unicode="X" horiz-adv-x="1313" d="M1211 75Q1211 14 1046 14Q952 14 908 63Q894 79 875 134T811 266Q661 524 637 524Q598 524 459 284Q400 182 383 122T355 49Q320 6 214 6T108 78Q108 109 175 183T304 350Q506 653 506 699Q506 767 322 1043Q248 1154
220 1186Q124 1295 124 1328Q124 1384 293 1384Q382 1384 432 1333Q449 1315 465 1258T522 1131Q647 913 676 913T836 1119Q897 1217 913 1275T944 1352Q985 1399 1067 1399T1172 1384T1195 1337T1131 1238T993 1059Q809 783 809 735T993 389Q1071 263 1141 185T1211
75Z" />
<glyph unicode="Y" horiz-adv-x="1239" d="M961 1399T1071 1399T1181 1345Q1181 1314 1123 1232T1002 1021Q810 630 805 617Q733 437 733 238Q733 208 747 158T761 93Q761 44 721 17T608 -10T499 15T464 97Q464 115 483 166T515 260T528 417T469 653Q460 671 336
901T181 1172Q85 1298 85 1326Q85 1377 215 1377T385 1311Q393 1297 405 1245T521 985T647 778Q688 778 831 1070Q872 1154 891 1237T919 1334Q961 1399 1071 1399Z" />
<glyph unicode="Z" horiz-adv-x="1220" d="M434 221Q434 191 463 176T657 160T927 196T1051 233Q1125 233 1125 164Q1125 109 1102 75T1015 21T605 1H499Q220 1 169 21T118 110T447 677T777 1199T743 1236Q708 1249 577 1249T395 1237T284 1206T195 1187Q132 1187
132 1290Q132 1359 210 1390Q258 1409 475 1409H690Q937 1409 1027 1388Q1086 1374 1086 1318Q1086 1218 760 745T434 221Z" />
<glyph unicode="[" horiz-adv-x="740" d="M650 1488V1471Q650 1422 540 1398T407 1307Q370 1199 370 612T388 -34T440 -116Q444 -119 557 -150Q635 -171 635 -214Q635 -248 614 -260T525 -272H348Q232 -272 207 -232Q173 -178 173 38V88L174 113L177 365V416L178
441V492L181 644Q181 1317 201 1402T251 1505T367 1523L392 1524Q418 1525 443 1525L569 1527Q650 1527 650 1488Z" />
<glyph unicode="\" horiz-adv-x="842" d="M788 -94V-110Q788 -144 727 -144H710Q652 -144 601 -28Q525 144 118 1240Q53 1415 53 1446T114 1478H131Q191 1478 242 1357T419 898T666 242T788 -94Z" />
<glyph unicode="]" horiz-adv-x="744" d="M576 1279V1154L575 1128L574 1078V1027L571 849V772L570 747V696L568 620Q568 -113 540 -199Q523 -252 479 -262T274 -273L199 -274Q99 -274 99 -229Q99 -172 211 -146T345 -47Q379 64 379 653T361 1300Q338 1374 251
1393Q117 1422 117 1474T211 1526H412Q510 1526 536 1494Q576 1445 576 1279Z" />
<glyph unicode="^" horiz-adv-x="1036" d="M908 808V797Q908 769 850 769T741 832Q716 864 620 1021T516 1179Q514 1179 418 1025T309 855Q242 767 194 767H182Q126 767 126 795Q126 872 423 1308Q468 1374 523 1374T620 1314Q626 1306 881 868Q908 822 908 808Z" />
<glyph unicode="_" horiz-adv-x="1080" d="M40 -171V-149Q40 -87 90 -80Q130 -74 557 -74L916 -71Q992 -71 1012 -80T1032 -127V-138Q1032 -198 993 -206T515 -214H369L347 -215H190L157 -216H146Q40 -216 40 -171Z" />
<glyph unicode="`" horiz-adv-x="680" d="M121 1407V1422Q121 1470 195 1470H217Q280 1470 332 1411Q507 1211 507 1154V1145Q507 1114 462 1114H451Q401 1114 261 1236T121 1407Z" />
<glyph unicode="a" horiz-adv-x="1053" d="M437 126H468Q561 126 632 206Q671 250 671 370L672 383V408Q672 483 610 483H578L526 479L499 476Q407 476 348 425T289 302V267Q289 213 327 170T437 126ZM943 78Q943 11 808 11Q784 11 721 35T641 60T532 26T370 -9H347Q238
-9 159 62T80 258Q80 510 399 572Q606 613 613 616Q662 641 662 706T621 816T508 861T339 813T206 764Q141 764 141 853Q141 909 243 959T477 1009H527Q625 1009 701 972T817 872Q874 783 874 465Q874 285 881 241T916 153T943 78Z" />
<glyph unicode="b" horiz-adv-x="1123" d="M537 130H567Q667 130 736 225T806 487V555Q806 699 748 784T603 870H574Q473 870 407 788Q361 730 361 620Q358 590 358 579L356 559L355 538V517L354 485V412Q354 247 397 189T537 130ZM159 267V445L160 469V585L161
609V656L162 702Q162 772 162 843L163 891V938L164 985V1032Q164 1173 160 1212T140 1299T124 1361V1380Q124 1446 213 1446H233Q321 1446 345 1395T369 1186T379 984T421 939Q444 939 516 957T660 976T807 937T931 824Q1022 687 1022 499L1021 475V451Q1021 356
984 267Q909 88 749 27Q675 -1 596 -1H574Q516 -1 444 20T334 41L267 33Q180 33 161 115Q159 124 159 267Z" />
<glyph unicode="c" horiz-adv-x="968" d="M535 -10H513Q417 -10 335 26Q174 97 117 263Q85 357 85 463V486Q85 604 120 700Q187 884 365 963Q450 1000 574 1000T777 951T857 830Q857 753 779 753Q756 753 712 779T662 808Q592 841 521 841Q424 841 361 751T298
493T372 239T566 153Q630 153 728 181T841 210Q881 210 881 166Q881 107 768 49T535 -10Z" />
<glyph unicode="d" horiz-adv-x="1137" d="M741 671Q741 759 698 814T554 869H545L535 868Q431 868 364 770T296 498V452Q296 297 357 213T509 129H518Q623 129 681 202T739 411Q741 433 741 443L744 506V620L742 651Q741 661 741 671ZM568 990Q678 990 700 1017Q734
1059 734 1196Q734 1237 725 1280T716 1338Q716 1383 750 1414T849 1445H868Q947 1445 959 1374Q968 1323 968 813L966 693V526L968 434Q968 411 968 388L969 366Q970 344 970 287T986 175T1003 98T978 55T905 34T806 47T736 61T633 32T485 3H463Q293 3 199 118T104
421V472Q104 570 135 668T227 840Q352 990 568 990Z" />
<glyph unicode="e" horiz-adv-x="1024" d="M596 589Q664 589 692 610T720 658V700Q720 772 667 819T551 866H525Q434 866 366 790T298 622V605Q298 570 362 570H385L391 571L466 576L516 580L550 584Q559 585 574 587T596 589ZM555 -13H511Q311 -13 190 122Q136
182 106 274T76 458V503Q76 594 114 694Q187 889 362 959Q452 996 553 996H575Q715 996 806 911Q858 862 884 794T911 670Q911 549 835 512Q783 487 598 465T394 438Q307 416 307 360Q307 263 396 198Q461 150 582 150Q628 150 731 179T844 208Q896 208 896 161Q896
102 785 45T555 -13Z" />
<glyph unicode="f" horiz-adv-x="757" d="M580 1304Q516 1304 477 1257T438 1137T460 1037T561 969T641 891Q641 862 560 823Q501 795 474 717Q428 586 428 336Q428 267 449 187T471 87Q471 39 428 6T318 -27T207 8T164 103Q164 117 181 173T205 263T211 409L209
456L208 505Q208 681 195 740T148 838T114 905Q114 913 190 1038Q205 1063 240 1174T321 1345T436 1437T570 1469H620Q694 1469 736 1438T778 1385V1368Q778 1297 689 1297Q674 1297 657 1299Q610 1304 580 1304Z" />
<glyph unicode="g" horiz-adv-x="1116" d="M298 500V458Q298 316 348 232T487 148H522Q632 148 687 239Q728 307 728 442Q730 462 730 473L732 525V577L731 587L730 617L728 656Q728 739 686 785T577 831H551Q439 831 369 742T298 500ZM588 -453T482 -453T289
-414T203 -326Q203 -263 298 -263Q330 -263 383 -272T475 -282Q598 -282 673 -214T748 -22Q748 28 705 28Q698 28 656 22T536 16Q262 16 165 283Q127 388 127 493V520Q127 629 163 718Q265 971 544 971Q613 971 690 944T811 917L841 919Q886 919 915 884T945 781V730Q945
711 930 509T915 201L925 -30Q925 -331 671 -423Q588 -453 482 -453Z" />
<glyph unicode="h" horiz-adv-x="1156" d="M1036 144Q1036 31 910 31Q853 31 827 51T800 119L801 141L803 164V217L794 461Q794 666 750 738T603 811Q548 811 496 777T413 675T383 310Q383 269 389 208T396 145Q396 90 362 56T259 21H232Q129 21 129 101V128Q129
144 139 183L154 238Q172 323 172 586V965L177 1188L178 1219Q179 1250 179 1278T175 1329L170 1350Q163 1381 163 1387Q163 1434 219 1434H245Q347 1434 373 1348Q385 1310 389 1183T400 991T443 926Q456 926 480 934L502 943Q606 989 688 989Q870 989 942 839Q992
735 992 431Q992 320 1014 243T1036 144Z" />
<glyph unicode="i" horiz-adv-x="570" d="M273 1405H306Q349 1405 380 1379T411 1303V1278Q411 1237 384 1205T315 1172L295 1169H262Q250 1172 232 1172T190 1196T165 1251Q163 1259 163 1263L161 1283V1288L165 1320Q165 1343 191 1374T273 1405ZM289 3H238Q196
3 166 27T136 79T153 162T170 258L172 283L174 335V376L175 403V728Q171 782 158 819L149 838Q128 890 128 895V915Q128 973 248 973H284Q357 973 373 916Q377 901 377 741V514L379 448L383 371Q383 252 432 169Q452 135 452 94T405 28T289 3Z" />
<glyph unicode="j" horiz-adv-x="570" d="M177 1273L179 1294Q179 1334 216 1364T298 1395H329Q359 1395 387 1372T415 1313Q419 1297 419 1292V1261Q419 1200 384 1171T294 1141H270Q258 1144 242 1144T202 1167T179 1228L176 1255V1268L177 1273ZM69 -408H36Q-50
-408 -50 -343V-328Q-50 -271 64 -238Q140 -216 167 -131Q208 -3 208 308T203 683T175 816T153 907Q153 975 291 975Q365 975 392 913Q410 871 410 687V298L409 280Q409 261 409 242L407 131L405 55Q405 -280 197 -378Q133 -408 69 -408Z" />
<glyph unicode="k" horiz-adv-x="1092" d="M440 672Q465 672 600 814Q637 853 671 896T733 958T817 978Q931 978 931 928Q931 918 801 768T670 554Q670 523 833 296T997 67Q997 24 908 24T765 70Q758 76 643 258T479 440Q444 440 420 388T396 257L400 204Q403
164 403 152Q403 33 221 33Q139 33 139 136L142 160Q160 308 160 437V599L161 633Q162 667 162 701L164 769Q164 803 164 837L166 972Q166 1191 158 1240T141 1325T131 1369V1393Q131 1412 160 1429T239 1446H266Q340 1446 364 1386Q382 1341 382 1181V971L384
845Q384 672 440 672Z" />
<glyph unicode="l" horiz-adv-x="593" d="M141 1382Q141 1461 271 1461H289Q382 1461 394 1384V1167L392 1092V1055L389 941V904L388 884Q388 865 388 846L387 827Q387 808 387 789L386 770V676L389 548Q390 530 390 457T409 302T459 171T489 88T448 28T328 2H293Q152
2 152 114Q152 122 160 166T169 327L175 566L176 585Q176 604 176 623L177 661Q177 680 177 699L178 718Q178 737 178 756L179 794Q179 813 179 832L180 870V909L181 947V1135Q181 1249 161 1307T141 1382Z" />
<glyph unicode="m" horiz-adv-x="1681" d="M350 139Q350 53 256 53Q127 53 127 177L133 211L143 244L152 278Q166 340 166 435L169 715Q169 890 170 895Q179 935 239 935L429 915Q461 915 529 936T679 958T873 894Q918 869 926 869Q963 869 1053 918Q1144 967
1226 967Q1412 967 1479 799Q1514 712 1519 562L1521 478Q1523 382 1525 341T1547 242T1566 146T1534 80T1453 50Q1371 50 1358 105Q1355 116 1354 156T1351 211L1344 280Q1316 610 1294 668Q1252 785 1138 785Q1046 785 1009 705Q962 604 962 330Q962 290 967
254L973 219Q984 161 984 150Q984 97 944 60T825 23T728 49T708 100T718 177T730 251T732 459T710 712Q679 804 588 804Q520 804 465 755T390 651Q350 543 350 139Z" />
<glyph unicode="n" horiz-adv-x="1160" d="M236 29Q235 29 233 29Q118 29 118 108Q118 146 138 202T161 315T164 492V679L166 731Q168 783 168 805L158 908Q158 943 220 943T349 909T430 875T489 895T592 938T715 962H741Q816 962 874 922T959 810T997 547L1000
492L1002 437Q1005 389 1009 333T1036 216T1059 133Q1059 44 923 44Q865 44 838 67T811 147L813 184Q813 573 757 714Q713 823 602 823Q549 823 499 797T420 711Q370 606 370 307L378 126Q378 83 337 56T236 29Z" />
<glyph unicode="o" horiz-adv-x="1096" d="M518 116H538Q639 116 704 205T769 430L771 452L772 486V531Q772 680 712 776T550 873H530Q431 873 364 775T296 515V447Q298 423 298 414Q298 300 361 208T518 116ZM998 517V484Q998 395 969 301Q910 110 737 27Q637
-21 539 -21H505Q412 -21 332 17Q173 93 121 269Q93 362 93 458V509Q93 603 122 697Q179 883 348 963Q435 1005 526 1005H576Q662 1005 746 968Q914 894 972 704Q998 620 998 517Z" />
<glyph unicode="p" horiz-adv-x="1132" d="M814 490V546Q814 693 756 780T602 867H593L583 866Q538 866 487 840T401 760T367 514V400Q367 251 396 208Q445 135 548 135H567Q674 135 744 230T814 490ZM233 -417Q116 -417 116 -333Q116 -306 131 -261T151 -180T163
25T170 363V673Q170 779 153 835T136 908Q136 962 260 962Q273 962 310 955L340 948Q388 940 407 940T507 969T651 998H697Q770 998 838 959T947 863Q1033 744 1033 577V527Q1033 416 995 314Q890 31 566 15Q474 11 427 -16T380 -116Q380 -142 394 -198T408 -281Q408
-341 359 -379T233 -417Z" />
<glyph unicode="q" horiz-adv-x="1132" d="M569 867H530Q529 867 527 867Q486 867 438 836Q302 751 302 473L303 461Q303 296 364 207T521 117H541Q589 117 640 146T719 223T747 465V518Q747 722 707 794T569 867ZM491 3Q322 3 212 138T101 497T215 859T524 997Q587
997 683 970T788 942L870 949Q968 949 968 795L966 751Q964 706 964 666V265L965 219V126L967 34V-11Q967 -156 990 -222T1013 -324T986 -392T907 -424H867Q799 -424 766 -391T732 -307Q732 -305 741 -242T750 -115T720 -21T609 9L552 5Q512 3 491 3Z" />
<glyph unicode="r" horiz-adv-x="834" d="M596 790Q502 790 450 697T398 411Q398 326 405 291T426 203T441 112T395 41T275 9L258 10H240Q192 10 161 37T129 98V114Q129 121 148 180T170 294T173 442V553L172 571Q172 589 172 607L170 661Q169 679 169 731T151
831T132 893Q132 953 237 953T389 896Q403 879 418 879T470 904Q570 972 638 972H654Q714 972 745 945T777 873Q777 784 678 784Q639 790 596 790Z" />
<glyph unicode="s" horiz-adv-x="925" d="M117 620T117 740T220 937T482 1014T714 976T787 875Q787 790 732 790Q713 790 631 831T472 872T357 837T318 747T392 649Q417 634 554 580T748 476Q835 399 835 276T733 70T468 -14Q193 -14 127 93Q106 127 106 153Q106
240 160 240Q176 240 277 187T458 133T584 167T630 259T557 367Q527 387 392 441T203 544Q117 620 117 740Z" />
<glyph unicode="t" horiz-adv-x="761" d="M503 4H465Q321 4 258 128Q206 229 206 460T181 777Q172 809 131 850T90 921V934Q90 960 137 991T191 1035T221 1132T268 1249T334 1283T393 1259T428 1160T467 1059T569 1003T650 931Q650 893 566 863T459 789Q417 704
417 488T454 224T574 164T658 101Q658 61 611 33T503 4Z" />
<glyph unicode="u" horiz-adv-x="1146" d="M354 854T354 586T374 262Q416 144 524 144Q656 144 715 246T774 595L776 649V702Q776 756 769 812T761 874Q761 921 794 940T891 960T973 912Q985 880 985 595T1016 181Q1030 126 1030 124V105Q1030 79 1000 57T913
35T805 59T742 84T636 48T469 12H443Q363 12 298 48T197 153Q144 254 144 582Q144 773 131 818Q130 822 118 854T106 899V921Q106 976 210 976H234Q317 976 341 897Q354 854 354 586Z" />
<glyph unicode="v" horiz-adv-x="1043" d="M507 0Q434 0 373 130T235 483T110 787T62 909T82 968Q103 985 176 985Q293 985 331 900Q340 879 353 809T439 495T539 251Q570 251 656 522T750 853T762 924Q785 986 873 986H893Q944 986 962 971T981 914V897Q981 871
921 768Q908 746 808 476T663 121T588 19T507 0Z" />
<glyph unicode="w" horiz-adv-x="1529" d="M754 567Q753 567 674 385T565 153Q506 55 445 55Q410 55 370 85T307 172T236 401T146 694T105 867Q105 958 172 958Q264 958 303 879Q304 877 379 594T501 310Q538 310 603 564Q622 637 636 752T655 880Q685 953 776
953T904 862Q919 825 931 741T972 548Q1034 313 1069 313Q1109 313 1183 568Q1206 646 1230 757T1267 895Q1296 959 1361 959T1427 874Q1427 842 1391 725T1295 405T1215 158T1155 83T1083 52Q1024 52 983 114T854 371T754 567Z" />
<glyph unicode="x" horiz-adv-x="1049" d="M200 -4H175Q91 -4 91 52Q91 56 235 261T380 499T251 716Q215 768 156 834T96 926Q96 983 239 983Q343 983 385 931Q393 921 405 889T449 797Q519 669 549 669Q573 669 654 801Q686 853 702 898T725 951Q755 990 819
990Q940 990 940 947Q940 922 801 745T662 517T810 269Q859 204 913 151T968 68Q968 12 802 11Q719 11 682 58Q675 67 659 105T619 183Q529 338 505 338Q475 338 389 195Q364 153 345 100T321 40Q289 -4 200 -4Z" />
<glyph unicode="y" horiz-adv-x="1058" d="M94 822T94 870T129 938T236 958T339 887Q343 879 365 767T450 468T547 281Q555 281 575 307Q625 373 683 549T751 863Q755 922 765 939Q792 984 858 984H884Q975 984 975 913Q975 870 940 781T886 633Q721 79 645 -75T479
-315T294 -401T200 -341Q200 -299 286 -265T409 -189Q479 -108 479 -5Q479 52 399 188T276 420Q94 822 94 870Z" />
<glyph unicode="z" horiz-adv-x="981" d="M863 932Q863 868 628 539T393 182Q393 144 509 144T697 164L830 201Q887 201 887 127V105Q887 4 696 4H619L593 5H462Q176 5 154 9Q101 18 101 57V78Q101 137 339 467T577 827T428 857Q354 857 274 836T174 815Q115 815
115 882T143 976T259 1004L284 1003L572 1001L700 998Q809 998 836 983T863 932Z" />
<glyph unicode="{" horiz-adv-x="748" d="M322 633T322 629T345 606T392 561T434 481T451 288L446 116Q446 -12 488 -80Q506 -109 575 -154T645 -242Q645 -282 570 -282Q400 -282 319 -179Q255 -97 255 119L264 342Q264 447 237 487T154 559T98 631T161 708T247
792T270 953L269 978Q268 1003 268 1028L266 1078L265 1152Q265 1338 332 1427Q415 1538 579 1538H603Q659 1538 659 1500Q659 1456 586 1408T485 1307T458 1117L462 971Q462 844 438 781T368 675Z" />
<glyph unicode="|" horiz-adv-x="563" d="M196 -139V-99L197 -80V19L198 78V157L199 197V295L200 335V434L201 474V533L202 573V632Q202 1334 209 1417T234 1514T299 1528T358 1504T371 1417V1321L370 1301V1204L369 1184Q369 1126 369 1067L368 1028V929L367
890V751L366 711V612Q366 -106 357 -214Q351 -288 286 -288H267Q221 -288 209 -264T196 -139Z" />
<glyph unicode="}" horiz-adv-x="753" d="M499 1167L488 898Q488 814 516 776T601 706T659 634T596 555T512 471T491 280L494 131Q494 -79 428 -169Q344 -284 185 -284H161Q100 -284 100 -251V-234Q100 -201 173 -155T267 -72Q305 -5 305 175L303 298Q303 423
323 476T374 564L436 635Q436 636 412 656Q346 711 324 766T302 933L311 1154Q311 1266 276 1329Q255 1366 187 1410T118 1489Q118 1538 183 1538H207Q276 1538 337 1510T434 1439Q499 1358 499 1167Z" />
<glyph unicode="~" horiz-adv-x="1085" d="M342 854H374Q426 854 558 794T733 734T846 782T934 831Q978 831 978 781Q978 701 902 639T738 576H728Q669 576 528 636T353 697T243 648T158 599Q114 599 114 649Q114 720 186 787T342 854Z" />
<glyph unicode="&#xa0;" horiz-adv-x="561" />
<glyph unicode="&#xa1;" horiz-adv-x="619" d="M180 1118Q180 1172 243 1172L266 1175H291Q347 1175 386 1142T426 1048V1033Q426 954 367 954Q358 951 356 951L337 949H313Q298 952 292 952Q242 952 212 988T182 1051L177 1082V1097L178 1100V1107Q180 1115 180
1118ZM231 401Q234 437 237 485T240 567L242 591L246 673Q246 779 301 779H310Q357 779 357 680L359 634Q363 586 364 563T366 521T368 485T369 455L371 431L373 383L374 371L377 299Q378 287 378 275L388 11V-12L389 -59V-127Q387 -149 387 -160Q387 -241 301
-241H273Q239 -241 227 -218T214 -123V-31L215 -20L216 27Q216 39 216 51L217 63V86L229 365L231 401Z" />
<glyph unicode="&#xa2;" horiz-adv-x="1053" d="M325 531Q325 443 380 333T491 222H497Q505 222 505 332V455L506 463V480L507 488Q507 497 507 506L513 620Q516 647 517 664T519 694T520 715L545 901Q545 938 526 938Q455 938 391 834T327 628L325 608V531ZM611
370Q611 232 691 232Q715 232 775 251T866 270T897 239Q897 187 767 110Q679 58 615 -20T531 -99T496 -70Q435 47 395 73Q276 150 222 234Q139 363 139 532V584Q139 757 225 881Q271 948 324 979T426 1032T496 1073T546 1158T601 1223H612Q624 1223 755 1069T887
892Q887 819 830 819Q813 819 769 852T696 886Q651 886 640 819Q611 649 611 370Z" />
<glyph unicode="&#xa3;" horiz-adv-x="1145" d="M128 68Q128 107 180 175T254 300T276 436T259 550T192 619T142 689T181 759T233 829T258 966T289 1128Q307 1188 361 1256Q475 1398 702 1399Q813 1399 898 1356T983 1237T927 1161Q904 1161 830 1190T686 1219Q586
1219 528 1132Q486 1069 486 931Q486 852 541 812Q571 790 673 770T776 707Q776 653 690 625Q575 588 541 539Q464 430 464 280Q464 218 508 196T625 173T792 186L942 207Q976 207 997 184T1019 119Q1019 -11 767 -11H733L361 6L237 3Q128 3 128 68Z" />
<glyph unicode="&#xa4;" horiz-adv-x="1171" d="M835 682V729Q835 828 766 909T593 991H576Q479 991 407 913T335 720V683Q335 574 405 498T574 421H592Q689 421 762 500T835 682ZM234 466Q234 475 211 539T188 680T197 787T222 859T238 921T188 1002T137 1077T164
1125T210 1155T281 1109T368 1063Q378 1063 420 1077L458 1091Q523 1111 587 1111T730 1088T827 1064T896 1109T968 1154T1017 1127T1044 1080T991 1004T937 909Q937 907 956 840T975 707T947 557T918 464Q918 439 973 381T1028 306T1005 263T951 236Q944 236 887
284T806 332T738 316T662 292T571 283T440 302T351 321T281 273T208 224T160 250T133 294T183 369T234 466Z" />
<glyph unicode="&#xa5;" horiz-adv-x="1231" d="M110 1289Q110 1373 248 1373Q351 1373 392 1323Q410 1301 422 1235T486 1064Q629 778 643 778L662 788Q723 849 836 1119Q858 1171 866 1215L870 1244L872 1271Q876 1305 884 1320Q913 1374 995 1374T1100 1350T1124
1304Q1124 1302 998 1090T871 805Q871 769 906 712T941 646Q941 610 867 577T792 510Q792 472 872 446T952 381Q952 369 842 295Q772 248 772 189L776 167Q786 122 786 117Q786 1 644 1H607Q535 1 490 34T445 100T452 163T459 199Q459 255 374 312T288 386Q288
422 365 451T443 517Q443 546 370 583T296 658Q296 672 326 716T356 809T260 1034Q227 1095 169 1176T110 1289Z" />
<glyph unicode="&#xa6;" horiz-adv-x="546" d="M189 849V1408Q189 1462 200 1481T255 1500H299Q349 1500 349 1411V861Q349 781 335 766T264 750H247Q210 750 200 768T189 849ZM189 -200V379Q189 436 201 452T258 469H293Q329 469 339 448T349 349V158L348 149V-68L349
-105V-177Q349 -251 337 -268T271 -285T204 -274T189 -200Z" />
<glyph unicode="&#xa7;" horiz-adv-x="1048" d="M325 729V700Q325 630 413 558Q448 529 551 474T664 418H669Q687 418 698 434Q728 479 728 527V549Q728 606 664 676Q489 868 432 868L423 870H418Q396 870 361 826T325 729ZM737 1149Q726 1149 700 1166L682 1180Q609
1239 535 1239T420 1206T380 1118T448 1003Q475 980 624 902T835 749T898 581T850 404T802 314T827 238T852 108Q852 -14 753 -99T504 -185H472Q331 -185 248 -129T165 -2T219 70Q243 70 327 14T493 -43T615 -3T655 94T587 206Q569 220 433 297T243 432Q164 517
164 618V647Q164 721 209 788T255 863T217 946T179 1094Q179 1214 274 1296T525 1379H556Q654 1379 731 1335T808 1220T737 1149Z" />
<glyph unicode="&#xa8;" horiz-adv-x="858" d="M331 1262L329 1229Q329 1212 304 1187T222 1161H207Q156 1161 132 1185T108 1242L105 1265V1285L109 1311Q109 1339 132 1362T184 1385L211 1389H238L264 1385Q290 1385 311 1359T332 1289V1266L331 1262ZM502 1255V1290Q505
1302 505 1320T530 1364T613 1390H624Q728 1390 728 1296V1260Q725 1251 725 1232T703 1190T655 1167Q641 1163 640 1163L617 1161H602Q502 1161 502 1255Z" />
<glyph unicode="&#xa9;" horiz-adv-x="1546" d="M745 132H782Q893 132 989 176Q1179 262 1255 454Q1301 571 1301 703L1300 722V741Q1300 849 1255 960Q1171 1167 981 1244Q880 1285 774 1285H755Q652 1285 550 1245T375 1129Q216 963 216 732V675Q216 575 256
473Q337 268 519 185Q636 132 745 132ZM764 1001Q574 1001 574 682Q574 555 634 486T771 417T915 452T1011 488T1038 461V448Q1038 391 958 345T786 299H750Q690 299 626 325T516 403Q420 512 420 686V725Q420 896 518 1006T768 1116H786Q1031 1116 1031 955Q1031
910 987 910Q971 910 900 955T764 1001ZM767 26H744Q618 26 498 71Q253 163 148 403Q90 536 90 675V720Q90 837 134 963T267 1184T487 1335T759 1391H781Q906 1391 1026 1346Q1272 1253 1377 1013Q1436 878 1436 741V696Q1436 580 1391 452T1258 232T1045 84T767
26Z" />
<glyph unicode="&#xaa;" horiz-adv-x="820" d="M253 887Q253 837 331 837H361Q410 837 456 883Q483 910 483 993V1017Q483 1060 447 1060H425L422 1059L396 1056Q392 1055 389 1055L374 1052Q342 1052 298 1015T253 942L250 917V905Q253 893 253 887ZM369 1410H403Q554
1410 615 1313Q651 1257 651 1036Q651 930 656 905T681 845T701 803V791Q701 738 591 738Q564 738 525 758T473 779L399 749Q347 728 295 728H280Q196 728 146 778T95 902V918Q95 1005 180 1064Q220 1092 329 1116T444 1145Q470 1162 470 1204T443 1273T372 1301T273
1268T184 1235Q134 1235 134 1285T188 1364Q277 1410 369 1410Z" />
<glyph unicode="&#xab;" horiz-adv-x="1095" d="M558 923Q558 885 420 721T281 552T420 383T559 180Q559 127 504 127Q459 127 272 325T85 549Q85 587 279 781T504 975Q558 975 558 923ZM688 559T688 553T753 468L769 450Q790 426 792 424L822 387L830 378Q953
230 953 194Q953 139 903 139H893Q864 139 678 325T492 544V554Q492 589 680 777T902 965T950 929Q957 909 938 873T804 698Z" />
<glyph unicode="&#xac;" horiz-adv-x="1156" d="M960 276Q877 276 877 419T825 585Q801 595 494 595T162 599Q111 608 111 649V676Q111 732 134 739T492 747H949Q993 747 1013 726T1033 647V565L1032 551Q1032 537 1032 523L1031 481Q1031 323 1028 304Q1024 276
986 276H960Z" />
<glyph unicode="&#xad;" horiz-adv-x="854" d="M174 492Q116 492 116 538V568Q116 638 153 647Q175 652 436 652L605 654H689Q739 654 739 601V586Q739 508 702 499Q680 494 419 494H350L327 493H242L219 492H174Z" />
<glyph unicode="&#xae;" horiz-adv-x="1469" d="M832 1012Q832 1052 798 1081T734 1110L724 1112L682 1115H651Q604 1115 604 1080V1049L605 1045V931L604 917Q604 852 656 852H682Q742 852 787 878T832 949L835 973V988Q832 1003 832 1012ZM200 850V815L201 798Q202
704 238 610Q312 418 497 338Q596 295 708 295H725Q828 296 922 336Q1097 412 1168 576Q1216 687 1216 783V835Q1216 934 1176 1036Q1098 1238 905 1318Q814 1356 707 1356H672Q587 1356 495 1319T336 1210T235 1040T200 850ZM624 1203H707Q837 1203 899 1150T961
1018T917 880Q906 865 876 838T845 793T889 696T965 578T998 509T939 478T846 519Q834 534 776 645T669 757Q606 757 606 668Q606 641 615 590T625 537Q625 476 534 476H519Q431 476 431 534Q431 542 447 580T463 676V783L464 833V948L463 980V1040Q463 1095 454
1128T445 1163Q445 1203 624 1203ZM95 863Q95 972 145 1096Q238 1325 452 1414Q577 1466 682 1466H724Q853 1466 972 1415T1172 1276T1294 1072T1335 854V812Q1335 686 1289 572T1163 372T962 238T711 188H690Q560 188 443 242Q213 347 133 582Q94 696 94 821L95
842V863Z" />
<glyph unicode="&#xaf;" horiz-adv-x="847" d="M753 1281V1258Q753 1213 739 1201T675 1188H146Q101 1188 101 1224V1254Q101 1324 156 1324H708Q753 1324 753 1281Z" />
<glyph unicode="&#xb0;" horiz-adv-x="792" d="M242 1108Q242 1060 284 1018T368 976L378 974H400Q454 974 499 1019T544 1132V1161Q544 1223 503 1269T401 1316H385Q337 1316 290 1275T242 1174L240 1163V1124Q242 1112 242 1108ZM383 1420H411Q513 1420 593
1346T674 1158V1139Q674 1030 594 950T403 870H375Q281 870 198 940T114 1123V1160Q114 1267 197 1343T383 1420Z" />
<glyph unicode="&#xb1;" horiz-adv-x="1123" d="M996 789T996 735T969 669T801 657T648 645T635 502T625 350T557 328T491 352T482 504T465 648Q458 655 319 655T161 659Q122 667 122 706V723Q122 783 156 795Q176 802 319 802T472 815T482 959T492 1114T554 1137H571Q618
1137 626 1113T635 957T646 815T804 803T967 798Q996 789 996 735ZM646 72H415Q180 72 153 77T125 127V137Q125 207 155 214T452 221H714L724 220L864 221H914Q994 221 994 166V156Q994 89 965 81T646 72Z" />
<glyph unicode="&#xb2;" horiz-adv-x="812" d="M484 671H257Q125 671 125 724V740Q125 808 269 941T448 1126Q483 1178 483 1234Q483 1341 375 1341H373Q330 1341 267 1294T173 1246Q132 1246 132 1307T211 1416T384 1464H404Q521 1464 584 1403T648 1230Q648
1162 599 1097T439 937T329 821T408 799T542 811T619 824Q665 824 665 774V758Q665 706 626 689T484 671Z" />
<glyph unicode="&#xb3;" horiz-adv-x="810" d="M401 1462Q619 1462 619 1287Q619 1207 545 1133Q518 1106 518 1096Q518 1096 558 1070Q664 1002 664 898V879Q664 785 583 718T374 651H355Q266 651 197 689T128 771V785Q128 826 183 826Q191 826 262 799T386 772T468
808T497 896Q497 997 362 1022Q289 1036 289 1082Q289 1090 372 1142Q456 1194 456 1245Q456 1339 360 1339Q319 1339 260 1316T190 1292Q148 1292 148 1338T222 1423T401 1462Z" />
<glyph unicode="&#xb4;" horiz-adv-x="704" d="M570 1439V1424Q570 1359 360 1196Q276 1131 234 1131H228Q182 1131 182 1159V1164Q182 1206 351 1423Q396 1481 465 1481H493Q570 1481 570 1439Z" />
<glyph unicode="&#xb5;" horiz-adv-x="1185" d="M146 880Q146 986 260 986Q324 986 354 923Q374 881 374 714L373 681Q372 647 372 614L370 547L369 480Q369 288 404 222Q450 135 551 135Q616 135 673 167T763 260T796 503L797 536Q798 569 798 602L799 699Q799
865 815 902Q837 954 903 954T992 890Q1004 855 1004 688T1032 346T1061 169V145Q1061 88 1033 58T959 28T861 49T778 70T668 46T499 13T385 -13T355 -151T331 -310Q306 -367 246 -367T171 -294T155 79L161 509V672Q161 706 155 765L146 851V880Z" />
<glyph unicode="&#xb6;" horiz-adv-x="1195" d="M121 1002Q121 1328 426 1392Q522 1412 691 1412H728Q922 1412 981 1400T1040 1336Q1040 1331 1024 1269T996 1149T984 929L983 892Q982 856 982 819L981 709V301L982 227Q982 167 984 120L986 85L989 50Q992 8
992 -20Q992 -101 934 -101Q868 -101 852 12T836 540T815 1100Q808 1150 767 1150Q690 1150 682 1105Q679 1088 679 707T664 174T637 -10Q617 -62 578 -62Q506 -62 506 27L514 190Q514 435 460 549Q426 622 326 686T190 796Q121 886 121 1002Z" />
<glyph unicode="&#xb7;" horiz-adv-x="567" d="M147 653Q147 714 179 741T252 768L280 771H298Q417 771 417 652V629Q417 578 390 545T320 512L288 508H261Q246 511 225 511T177 538T150 604L147 626V653Z" />
<glyph unicode="&#xb8;" horiz-adv-x="699" d="M262 -331Q319 -331 347 -306T375 -245T318 -183T261 -114Q261 -49 295 -4Q309 15 349 15L357 14Q396 14 396 -42Q396 -63 469 -114T543 -239V-247Q543 -333 473 -381T322 -430H288Q182 -430 182 -384V-378Q182 -333
240 -333Q254 -331 262 -331Z" />
<glyph unicode="&#xb9;" horiz-adv-x="684" d="M390 663H328Q252 663 209 697Q191 711 191 739T224 806T267 876T276 1050T261 1224T190 1268T135 1319Q135 1341 180 1368Q315 1449 375 1449H386Q430 1449 437 1399V1141Q437 909 443 883T482 809T515 734V725Q515
710 490 687T390 663Z" />
<glyph unicode="&#xba;" horiz-adv-x="842" d="M552 1053V1091L550 1114L548 1142Q548 1217 503 1268T401 1319H394Q335 1319 296 1263T257 1129L256 1122L255 1114L254 1084V1052Q254 954 290 887T385 820H418Q479 820 515 886T552 1053ZM731 1090V1043Q731 900
641 810T416 719H381Q246 719 166 812T85 1052V1075Q85 1224 172 1318T397 1412H420Q444 1410 473 1410T564 1381T664 1301Q731 1213 731 1090Z" />
<glyph unicode="&#xbb;" horiz-adv-x="1096" d="M186 965Q219 965 402 771T585 559V548Q585 526 402 332T191 137H181Q132 137 132 190Q132 224 263 382T395 554Q395 558 263 717T130 909V918Q130 965 186 965ZM577 976Q603 976 797 782T991 552T797 322T584 127H574Q524
127 524 181Q524 222 662 377T801 554Q801 558 727 646L703 673L648 738Q522 898 522 926Q522 976 577 976Z" />
<glyph unicode="&#xbc;" horiz-adv-x="1625" d="M1034 300H1145Q1212 300 1212 344V424L1211 429V457L1210 471V514L1211 523V542L1212 561V615Q1212 621 1208 621T1152 537T1052 387T1004 307V305Q1004 300 1034 300ZM318 602Q265 602 237 626T208 678T237 742T275
818T284 993T266 1169T201 1232T155 1280T202 1333Q329 1409 385 1409H396Q440 1409 447 1362V1229L445 1167Q445 1148 445 1129L444 1091Q444 851 447 826T480 744T510 679V669Q510 648 485 627T403 605L366 602H318ZM1180 1391H1196Q1254 1391 1254 1358Q1254
1343 1221 1283Q920 734 519 88Q454 -17 391 -17T328 17Q328 38 387 136L529 377Q546 408 559 430T586 477T635 559L679 635Q697 666 771 790T930 1063T1073 1301T1180 1391ZM1289 -23Q1191 -23 1191 102Q1191 124 1166 142Q1114 180 1035 180T924 198T892 257Q892
343 1194 716Q1252 788 1308 788H1321Q1369 788 1381 751Q1388 730 1388 636V480Q1390 454 1390 441Q1390 352 1453 289Q1479 263 1479 257V251Q1479 194 1449 161T1418 77T1392 2T1302 -23H1289Z" />
<glyph unicode="&#xbd;" horiz-adv-x="1679" d="M371 606H323Q265 606 217 638Q194 653 194 685T225 756T265 832T274 1009T256 1179T188 1227T138 1276V1283Q138 1307 183 1332Q332 1414 375 1414H386Q425 1414 433 1373Q434 1368 434 1117T438 836T472 759T502
684V674Q502 652 475 629T371 606ZM1171 1412H1187Q1246 1412 1246 1379Q1246 1319 519 79Q458 -25 404 -25H388Q329 -25 329 8Q329 26 358 77T684 655T1050 1297T1171 1412ZM1314 -10H1237Q1068 -10 1030 0T992 46V61Q992 127 1134 264T1314 455T1352 563T1323
645T1248 672T1138 626T1045 580Q1003 580 1003 642T1082 754T1257 804H1277Q1396 804 1459 741T1523 584T1453 402Q1423 364 1314 267T1205 142Q1205 125 1289 125T1432 135T1493 146Q1538 146 1538 89T1498 11T1314 -10Z" />
<glyph unicode="&#xbe;" horiz-adv-x="1709" d="M1242 298Q1298 298 1307 305T1316 399V404L1315 409V437L1314 451V460L1313 469Q1313 614 1309 614T1284 579T1181 428T1098 302Q1098 298 1108 298H1116L1120 299L1184 298H1242ZM390 597H352Q275 597 209 633T142
715Q142 771 199 771Q210 771 274 745T388 718T474 750T510 838Q510 940 374 972Q306 988 306 1020T389 1094T473 1204Q473 1243 446 1269T379 1295T281 1271T200 1246Q167 1246 167 1293T237 1381T405 1421H425Q527 1421 581 1376T635 1263T611 1155T559 1085T531
1050Q530 1044 552 1032Q676 966 676 851V832Q676 737 595 667T390 597ZM1286 1404H1303Q1361 1404 1361 1370Q1361 1349 1310 1264Q1059 846 866 513T609 83T497 -14H481Q422 -14 422 20Q422 39 455 94Q662 439 862 784T1169 1297Q1237 1404 1286 1404ZM1397 -18H1371Q1335
-18 1311 14T1287 92T1226 168Q1192 185 1112 185T1009 210T986 252V261Q986 329 1255 677Q1345 793 1404 793H1417Q1467 793 1477 755Q1482 737 1482 641V511L1484 457Q1485 444 1485 405T1549 295Q1574 268 1574 261V255Q1574 215 1543 169T1512 81T1489 11T1397
-18Z" />
<glyph unicode="&#xbf;" horiz-adv-x="981" d="M676 1055Q676 1007 649 970T571 932H541Q490 932 455 961T420 1046Q416 1062 416 1067V1097Q416 1141 448 1168T526 1195H553Q614 1195 643 1166T673 1097L676 1074V1055ZM544 777Q619 777 619 646Q619 574 589
511T482 372T373 240T340 104T393 -20T517 -64T672 -18T784 28Q845 28 845 -46T771 -170Q668 -240 532 -240H495Q326 -240 221 -151T116 80V98Q116 290 315 458Q394 521 424 562T465 675T478 749Q492 777 528 777H544Z" />
<glyph unicode="&#xc0;" horiz-adv-x="1340" d="M540 571H742L751 572L775 573Q783 574 790 574Q825 574 825 593V600Q825 707 661 1090Q631 1161 624 1161Q623 1161 587 1083T490 812T430 600V594Q430 571 540 571ZM378 1778V1793Q378 1844 462 1844H473Q540
1844 603 1789Q782 1632 782 1557V1552Q782 1517 742 1517H731L725 1518Q658 1518 564 1591Q378 1736 378 1778ZM1237 153Q1237 86 1175 36Q1145 12 1076 12T979 37T952 125T924 267T871 373Q827 423 630 423T399 394T332 268T299 94T220 17Q161 17 132 46Q76 102
76 166Q76 190 118 257T196 425Q493 1282 504 1303Q555 1403 651 1403Q653 1403 655 1403Q710 1403 744 1374Q832 1300 974 857T1141 353T1201 241T1237 153Z" />
<glyph unicode="&#xc1;" horiz-adv-x="1339" d="M825 600V613Q825 714 669 1104Q641 1174 636 1174H631Q629 1174 575 1058T474 783T427 603V597Q427 580 461 580H517L525 581L638 583Q825 583 825 600ZM829 1835H845Q928 1835 928 1780V1774L927 1769Q927 1725
783 1613T569 1501L564 1502Q521 1502 521 1539L522 1544Q522 1620 698 1776Q764 1835 829 1835ZM1234 166Q1234 100 1171 51Q1140 27 1071 27T974 52T947 139T917 283T849 396T623 427T394 394T317 223Q304 172 300 121T293 64Q278 32 221 32T134 61Q77 118 77
179Q77 212 116 268T177 376T234 545T365 933T494 1277T563 1375T652 1400T746 1368T829 1238T967 870T1097 483T1148 337T1198 255T1234 166Z" />
<glyph unicode="&#xc2;" horiz-adv-x="1340" d="M825 599V612Q825 628 768 811T672 1078T631 1163H627Q622 1163 611 1134T593 1093Q517 940 470 754Q466 738 448 680T430 605V599Q430 578 521 578H597L606 579H631Q825 579 825 599ZM959 1538Q959 1509 903 1509T772
1572Q768 1575 713 1626T650 1677T558 1592T409 1506H401Q348 1506 348 1536Q348 1556 377 1590Q531 1771 566 1801T654 1831H663Q713 1831 752 1795Q959 1605 959 1538ZM1241 154Q1241 88 1177 38Q1147 15 1101 15H1077Q992 15 965 56Q955 72 952 120T943 199Q915
338 855 389Q815 423 623 423T397 393T331 266T298 78Q298 20 217 20Q167 20 141 38Q73 86 73 149V169Q73 201 112 256T171 363T235 549T375 958T501 1293T564 1377T660 1401T761 1356T838 1225T1021 721T1171 293Q1241 168 1241 154Z" />
<glyph unicode="&#xc3;" horiz-adv-x="1339" d="M830 602V615L828 622L825 638L819 661Q818 664 815 679T804 716T796 743Q759 898 670 1090L633 1169H628Q627 1169 583 1075T485 808T431 609V603Q431 582 625 582H761Q830 582 830 602ZM510 1773H526L535 1772Q580
1772 674 1728T799 1683T883 1719T952 1756Q989 1756 989 1717V1709Q989 1649 933 1593T811 1537H787Q739 1537 646 1581T518 1625T433 1588T360 1550Q322 1550 322 1589V1597Q322 1662 383 1717T510 1773ZM79 169Q79 201 116 253T174 357T320 789T488 1262T565
1379T655 1404T747 1373T847 1205T1029 704T1158 316T1204 244T1240 142T1174 40Q1143 17 1074 17T979 41T953 134T922 282T852 395T623 427T399 397T334 275T302 81Q302 22 234 22T136 50Q79 105 79 169Z" />
<glyph unicode="&#xc4;" horiz-adv-x="1335" d="M484 578H743Q811 578 811 598V605Q811 699 651 1099Q623 1170 619 1170H614Q610 1170 582 1100Q419 692 419 606V599Q419 578 484 578ZM341 1647V1674L342 1678V1685Q344 1693 344 1710T367 1750T420 1773Q426
1775 431 1775L446 1777H474Q489 1772 503 1772Q564 1772 564 1702Q566 1694 566 1691L568 1671V1659L563 1626Q563 1601 539 1577T458 1552H443L412 1556Q387 1556 364 1579T341 1647ZM730 1641V1664Q730 1715 755 1740T815 1766L838 1769H857Q898 1769 923 1748T948
1690L951 1667V1643L947 1616Q947 1589 923 1565T850 1540H827L797 1544Q770 1544 750 1569T730 1641ZM1228 154Q1228 89 1164 39Q1134 16 1088 16H1065Q995 16 969 41T943 132T911 282T840 397T611 428T386 398T320 277T289 105T209 23Q149 23 120 51Q63 106 63
170Q63 199 104 259T163 365T211 510T349 920T488 1295T553 1383T642 1406T735 1376Q823 1304 969 848T1137 341T1193 242T1228 154Z" />
<glyph unicode="&#xc5;" horiz-adv-x="1356" d="M631 1591H660Q699 1591 723 1621T748 1668L751 1685V1710L747 1730Q747 1741 724 1769T673 1798Q667 1800 663 1800L645 1802H641L638 1801H630L616 1799Q593 1799 568 1774T542 1724L539 1707V1686L543 1663Q543
1640 573 1616T631 1591ZM718 580Q819 580 819 600V607Q819 726 656 1106Q626 1175 623 1175H620Q614 1175 590 1114Q423 696 423 606V600Q423 580 490 580H591L600 581L692 580H718ZM631 1891H665Q679 1889 685 1889Q750 1889 801 1832T852 1718V1685Q852 1615
795 1558T653 1501H632Q549 1501 494 1556T438 1681V1708Q438 1778 494 1834T631 1891ZM1051 27Q1050 27 1049 27Q940 27 940 117L941 196Q941 232 912 305T842 413T608 448T376 406Q349 376 318 279T287 125T272 51T203 34T116 63Q54 118 54 161V182Q54 210 90
261T140 345T275 749T451 1236T540 1380T628 1410H655Q706 1410 750 1372Q846 1287 987 837T1150 340T1206 243T1241 169V148Q1241 117 1196 72T1098 27H1051Z" />
<glyph unicode="&#xc6;" horiz-adv-x="1828" d="M864 1162Q864 1206 850 1206Q816 1206 755 1104T675 944T603 782T535 654T519 615V610Q519 602 556 602L597 604Q613 602 621 602L700 594L724 591H778Q839 591 846 621T853 922L858 1014Q858 1023 858 1032L864
1139V1162ZM1642 1269Q1642 1220 1573 1220L1311 1242Q1201 1242 1164 1212Q1100 1160 1100 1028T1132 854T1256 811Q1285 811 1328 820L1399 834Q1482 834 1519 786Q1541 758 1541 683Q1541 614 1454 614L1419 619L1383 626Q1349 631 1306 631Q1191 631 1150 579T1109
432Q1109 282 1171 219Q1211 178 1341 178L1593 210Q1676 210 1676 148Q1676 79 1626 48T1430 17H1385Q1117 17 1027 37T907 81T876 150L877 182L880 254Q880 381 826 423Q788 453 656 453T452 384T324 144L316 116Q305 75 302 70Q283 40 232 40T147 75T113 153T164
270T240 389T347 612Q645 1256 707 1319Q742 1355 829 1368T1147 1381L1376 1386Q1642 1386 1642 1269Z" />
<glyph unicode="&#xc7;" horiz-adv-x="1300" d="M649 -458H623Q528 -458 528 -401V-394Q528 -345 588 -345T676 -320T705 -256T659 -184T613 -127Q613 -69 646 -29Q544 -21 448 19Q227 112 144 349Q93 492 93 633V701Q93 850 138 985T259 1207T452 1345T677 1395T924
1358T1067 1320Q1108 1298 1142 1246T1176 1143Q1176 1056 1105 1056Q1092 1056 1025 1090L979 1114Q913 1148 906 1151Q778 1211 686 1211T528 1171Q346 1060 346 683T540 200Q609 162 705 162T1025 256Q1110 292 1128 292Q1181 292 1181 227Q1181 204 1144 148T1048
58Q902 -29 736 -31Q737 -40 737 -53Q737 -64 810 -130T883 -276L882 -284Q882 -352 813 -405T649 -458Z" />
<glyph unicode="&#xc8;" horiz-adv-x="1186" d="M704 1518H693L688 1519Q626 1519 549 1579Q340 1742 340 1787V1792Q340 1848 424 1848H434Q498 1848 554 1799T719 1610Q742 1580 742 1562V1543Q742 1518 704 1518ZM794 846Q897 846 897 733Q897 665 879 633T809
601Q795 601 728 620T575 640T452 602T415 442Q415 247 467 194Q498 162 584 162Q738 162 854 187T990 212Q1062 212 1062 149Q1062 58 1011 33T764 8H611Q290 8 213 25T136 96Q136 120 156 172T184 280T192 717T185 1149T158 1250T138 1303Q138 1359 201 1376Q289
1399 637 1399H865Q953 1399 990 1372T1028 1281Q1028 1210 943 1210Q927 1210 893 1215L865 1220Q725 1245 612 1245T456 1191T414 1014T440 860Q483 811 612 811Q656 811 717 828T794 846Z" />
<glyph unicode="&#xc9;" horiz-adv-x="1186" d="M525 1484Q474 1484 474 1525V1535Q474 1596 652 1774Q711 1833 769 1833H793Q869 1833 869 1799V1785Q869 1756 734 1621T556 1486L546 1484H525ZM802 867Q897 867 897 752Q897 688 877 657T806 625Q800 625 735
644T585 663T455 618Q426 588 426 467Q426 279 479 229Q511 199 628 199T857 221T987 244Q1052 244 1052 179Q1052 94 999 68T752 42H526Q279 42 209 59T138 132Q138 154 161 211T191 337T197 743T192 1143T165 1259T144 1316Q144 1372 210 1386Q305 1406 491 1406L565
1408L715 1409L752 1408Q928 1408 962 1395Q1021 1373 1021 1289Q1021 1221 939 1221Q937 1221 819 1238T603 1256T467 1204T429 1031T456 878Q495 832 623 832Q666 832 726 849T802 867Z" />
<glyph unicode="&#xca;" horiz-adv-x="1186" d="M856 1518H841Q794 1518 703 1602T606 1687T509 1604T360 1520T302 1548Q302 1596 498 1792Q547 1841 604 1841H612Q694 1840 840 1648Q908 1560 908 1553V1547Q908 1518 856 1518ZM131 98Q131 123 155 181T184
307T189 713T183 1120T156 1246T135 1306Q135 1363 200 1378Q297 1400 600 1400H791Q929 1400 967 1386Q1028 1363 1028 1285T963 1206Q939 1206 893 1213L865 1218Q718 1242 608 1242T458 1187T419 1009T445 856Q486 809 618 809Q663 809 729 827T801 845Q853
845 876 818T900 727T879 631T807 599Q797 599 731 619T579 639T449 593Q419 562 419 421T453 223T615 165T861 188T993 211Q1061 211 1061 146Q1061 92 1042 63T974 19T642 4H603Q278 4 205 23T131 98Z" />
<glyph unicode="&#xcb;" horiz-adv-x="1185" d="M512 1647Q512 1591 488 1567T434 1542L417 1539H393Q292 1539 292 1635V1671Q292 1722 317 1747T376 1772L403 1775H422L446 1771Q508 1771 508 1696Q510 1688 510 1684L512 1667V1647ZM682 1675L684 1694Q684
1727 707 1750T765 1774L788 1777H816Q903 1777 903 1707Q906 1698 906 1693L908 1673V1658Q902 1634 902 1615T875 1573T789 1551L785 1552H777L766 1553L744 1557Q684 1557 684 1633L681 1656V1671L682 1675ZM891 738Q890 606 818 606Q782 606 722 626T574 646T449
610T411 453Q411 260 461 204Q492 170 604 170T845 194T983 219Q1056 219 1056 160V132Q1056 71 1006 44T838 17H534Q281 17 207 33T132 103Q132 135 154 187T183 309T189 682T185 1091T158 1249T135 1331Q135 1371 237 1386T668 1402H858Q950 1402 986 1376T1023
1295T1003 1226T955 1210T821 1230T601 1250T450 1198T410 955Q410 816 577 816Q649 816 715 833T787 851Q842 851 866 827T891 738Z" />
<glyph unicode="&#xcc;" horiz-adv-x="673" d="M67 1783V1793Q67 1844 141 1844H157Q208 1844 259 1805T423 1619Q462 1569 462 1546V1531Q462 1501 425 1501H415L410 1502Q359 1502 213 1615T67 1783ZM356 23H281Q224 23 180 45T135 102T168 188T208 299T215
699T208 1107T165 1244T129 1322Q129 1359 172 1381T293 1404L331 1406H368Q432 1406 473 1383T515 1328T484 1246T446 1147T439 728T448 297T490 185T523 103T482 47T356 23Z" />
<glyph unicode="&#xcd;" horiz-adv-x="674" d="M232 1489Q200 1489 200 1517V1532Q200 1580 367 1768Q432 1841 506 1841H511Q590 1841 590 1787V1777L589 1772Q589 1720 442 1606T261 1491L252 1489H232ZM337 35H300Q224 35 179 58T133 117T165 201T207 313T216
723T207 1133T165 1245T133 1310V1325Q133 1368 196 1393Q234 1408 318 1408H392Q453 1408 488 1384T523 1328T492 1248T453 1142T444 724T451 309T492 197T525 133V118Q525 35 337 35Z" />
<glyph unicode="&#xce;" horiz-adv-x="680" d="M325 1834H348Q404 1834 497 1715Q630 1546 630 1544V1537Q630 1507 570 1507Q510 1508 423 1586Q338 1664 332 1664T306 1644L238 1583Q146 1506 102 1506H87Q35 1506 35 1536Q35 1573 217 1772Q274 1834 325 1834ZM361
22H285Q227 22 182 42T136 100T168 186T207 286T215 689T208 1107T166 1241T132 1317Q132 1367 208 1392Q244 1404 353 1404H372Q432 1404 477 1384T523 1327T492 1241T454 1145T447 724T455 292T496 181T528 97T484 44T361 22Z" />
<glyph unicode="&#xcf;" horiz-adv-x="676" d="M25 1636V1657Q25 1713 54 1742T123 1771H147Q181 1771 210 1747T239 1680L242 1656V1631Q242 1585 216 1553T144 1521H120Q77 1521 51 1552T25 1636ZM529 1551H502Q455 1551 432 1574T409 1629L406 1647V1679Q406
1719 428 1746T486 1773Q494 1775 497 1775L516 1777H532L562 1773Q628 1773 628 1703Q630 1695 630 1692L632 1677V1653L628 1627Q628 1600 604 1576T529 1551ZM219 965L217 1087Q217 1175 177 1233T136 1309V1324Q136 1364 183 1386Q231 1408 317 1408H391Q448
1408 483 1384T519 1329T488 1248T449 1147T441 732T450 305T491 194T524 129V114Q524 30 340 30H322Q228 30 184 52T139 110T173 196T213 305T220 582V926L219 965Z" />
<glyph unicode="&#xd0;" horiz-adv-x="1426" d="M537 136H626Q830 136 941 273T1053 665V706L1052 726Q1052 984 952 1112Q889 1193 808 1228T614 1264H542Q464 1264 445 1213Q434 1183 434 1022V949Q434 842 461 818T572 786T670 773Q703 761 703 715T668 654Q656
649 577 640T466 605T434 455V400L435 382V345Q435 206 452 171T537 136ZM165 1332Q165 1380 219 1389Q297 1402 531 1402H608Q936 1402 1110 1238Q1197 1156 1247 1020T1298 714L1297 687Q1296 530 1248 396Q1152 130 900 41Q782 -1 601 -1H424Q264 -1 217 8T170
58Q170 73 193 127T222 239T229 448T220 618T148 649T86 702V724Q86 771 126 786Q132 788 170 796T219 819T229 924L226 1045Q226 1203 196 1263T165 1332Z" />
<glyph unicode="&#xd1;" horiz-adv-x="1451" d="M560 1779H593Q638 1779 734 1731T868 1683T950 1724T1022 1765Q1061 1765 1061 1730V1722Q1061 1664 1004 1602T882 1539H865Q821 1539 718 1587T585 1636T500 1594T427 1552Q388 1552 388 1587V1595Q388 1648
443 1713T560 1779ZM374 1025Q355 1025 355 716T375 297T396 150T349 72T232 31H196Q129 31 129 80V112Q129 123 153 171T185 279Q192 340 192 600V925L191 1056Q191 1130 184 1166T158 1254T139 1311Q140 1370 216 1370Q364 1370 472 1246Q560 1146 808 795T1063
443Q1091 444 1091 784T1071 1195T1051 1290T1081 1334Q1112 1354 1174 1354T1274 1323T1312 1246T1284 1134T1249 989T1241 518T1234 100Q1221 53 1166 53Q1090 53 984 188Q932 253 828 413Q428 1025 374 1025Z" />
<glyph unicode="&#xd2;" horiz-adv-x="1444" d="M324 758V724Q324 464 418 308Q511 152 694 152Q695 152 696 152Q881 152 977 286Q1072 420 1072 684V735Q1072 864 1042 974T964 1152Q870 1287 698 1287H695H678Q515 1287 414 1147Q380 1100 352 998T324 758ZM423
1780V1795Q423 1848 505 1848H528Q607 1848 669 1777Q830 1593 830 1545Q830 1509 787 1509H776Q761 1512 749 1512Q702 1512 563 1620T423 1780ZM1310 723V676Q1310 531 1267 395Q1184 134 966 37Q841 -19 716 -19H693Q417 -19 259 161Q186 245 143 382T99 663V733Q99
736 99 740Q99 884 142 1017Q224 1276 438 1372Q559 1426 686 1426H733Q864 1426 973 1375T1154 1240T1268 1015T1310 723Z" />
<glyph unicode="&#xd3;" horiz-adv-x="1441" d="M324 747V697Q324 559 356 455T417 311Q519 168 682 168H715Q795 168 868 208Q1075 323 1075 717V784Q1075 888 1047 991T979 1153T871 1253T721 1294H688Q506 1294 405 1127Q324 992 324 747ZM626 1491H599Q562
1491 562 1525V1535Q562 1556 589 1596Q748 1835 879 1835H890Q971 1835 971 1785V1775Q971 1716 802 1585Q681 1491 626 1491ZM1307 739V669Q1307 666 1307 663Q1307 516 1262 385Q1174 128 960 35Q836 -19 709 -19H686Q417 -19 256 165Q183 249 142 390T100 692V715Q100
878 144 1014Q227 1275 443 1372Q559 1424 692 1424H716Q978 1424 1136 1256Q1215 1172 1261 1030T1307 739Z" />
<glyph unicode="&#xd4;" horiz-adv-x="1442" d="M1075 702V768Q1075 877 1041 987T961 1158Q864 1287 699 1287H683Q510 1287 410 1131Q379 1083 351 980T322 738V721Q322 580 352 470Q407 272 525 207Q605 162 685 162H718Q893 162 990 317Q1075 453 1075 702ZM690
1829H716Q764 1829 813 1776Q999 1573 999 1545V1538Q999 1508 939 1508T792 1587L767 1608Q706 1664 700 1664T651 1628Q508 1506 457 1506H442Q389 1506 389 1536Q389 1597 587 1780Q640 1829 690 1829ZM1309 719V673Q1309 529 1265 390Q1178 114 927 18Q823
-22 692 -22Q274 -22 144 376Q100 512 99 660V730Q99 876 143 1014Q225 1271 436 1369Q556 1424 684 1424H708Q860 1424 974 1370T1156 1232T1266 1016T1309 719Z" />
<glyph unicode="&#xd5;" horiz-adv-x="1445" d="M323 780V696Q323 593 353 481T429 303T548 201T704 165L721 166H737Q882 166 988 309Q1023 356 1052 461T1081 678V762Q1081 866 1050 978Q963 1291 705 1291H703H686Q517 1291 418 1151Q381 1099 352 994T323
780ZM552 1770H569L578 1769Q622 1769 720 1726T848 1682T925 1717T997 1752Q1033 1752 1033 1710L1032 1702V1693Q1032 1631 970 1578T838 1525L830 1526Q782 1526 685 1569T555 1613T471 1578T397 1542Q361 1542 361 1583V1592Q361 1661 425 1715T552 1770ZM1313
697Q1312 542 1272 404Q1192 129 947 28Q832 -19 690 -19Q407 -19 247 179Q175 267 138 405T101 690L102 713V737Q102 880 144 1012T257 1232T443 1373T693 1426H739Q853 1426 965 1379T1148 1251T1265 1035T1313 720V697Z" />
<glyph unicode="&#xd6;" horiz-adv-x="1442" d="M315 776V690Q315 458 402 313Q450 233 521 193T671 153H704Q875 153 974 312Q1055 442 1055 688V756Q1055 854 1029 967T959 1146T848 1251T702 1292H653Q578 1292 510 1251T398 1138Q315 1000 315 776ZM518 1782Q562
1782 587 1761T613 1707Q615 1699 615 1695L617 1676V1664L612 1631Q612 1563 536 1563Q530 1561 525 1561L510 1559H482L456 1563Q390 1563 390 1638L387 1661V1676L391 1706Q391 1732 413 1754T464 1777Q473 1780 479 1780L498 1782H518ZM1000 1638L998 1606Q998
1590 974 1566T919 1541Q903 1537 899 1537H865Q814 1537 789 1562T763 1621L760 1645V1665Q760 1713 788 1741T872 1770H902Q943 1770 969 1749T996 1697L1001 1666V1642L1000 1638ZM1301 698Q1301 379 1152 188Q1075 90 954 36T703 -18H679Q538 -18 422 34Q204
131 128 387Q84 537 84 692L85 715V738Q85 741 85 744Q85 885 128 1018Q211 1278 429 1375Q550 1429 680 1429H703Q847 1429 964 1377T1154 1231T1264 1000T1301 721V698Z" />
<glyph unicode="&#xd7;" horiz-adv-x="1073" d="M531 723Q545 723 669 852T828 981Q843 981 874 952T905 903T776 749T647 607T777 464T908 308T876 258T818 228T683 338L617 407Q542 485 534 485T398 357T240 228Q223 228 193 255T162 305T291 458T420 601T290
745T160 897T192 949T252 979T403 851T531 723Z" />
<glyph unicode="&#xd8;" horiz-adv-x="1454" d="M325 725V671Q325 493 387 355Q402 321 417 321Q448 321 642 635Q717 757 877 1076Q909 1140 909 1181T848 1252T728 1283H676Q595 1283 527 1239Q325 1108 325 725ZM515 203V184Q515 168 546 141T629 114H640L651
115Q739 115 812 165T932 290T1016 501T1055 806V894Q1055 1097 1016 1097Q1001 1097 889 881T744 608T691 518T594 356T515 203ZM653 -13L432 7Q404 7 355 -20T278 -47Q216 -47 216 28L228 123Q228 180 200 244Q110 449 109 670V697Q110 851 156 996Q244 1270
479 1370Q595 1419 712 1419T890 1407T979 1395T1054 1420T1128 1445Q1192 1445 1192 1372L1191 1354L1183 1316Q1180 1297 1180 1263T1216 1138T1257 1028Q1297 897 1297 756V703Q1297 548 1248 404Q1156 134 922 34Q811 -13 653 -13Z" />
<glyph unicode="&#xd9;" horiz-adv-x="1409" d="M431 1787V1796Q431 1847 515 1847H526Q594 1847 660 1789Q836 1635 836 1560V1555Q836 1521 796 1521H780Q717 1521 628 1590Q431 1743 431 1787ZM1002 1313Q1002 1395 1136 1395Q1206 1395 1231 1370Q1281 1321
1281 1278T1256 1174T1225 1068T1218 742T1201 360T1125 168T956 31T697 -18Q389 -18 257 171Q198 256 182 378T165 748T159 1056T128 1169T102 1275T166 1375Q192 1394 252 1394Q423 1394 423 1295Q423 1284 409 1223Q389 1133 389 755T453 267Q531 134 726 134T996
306Q1041 411 1041 748T1022 1194T1002 1313Z" />
<glyph unicode="&#xda;" horiz-adv-x="1410" d="M640 1520H618Q575 1520 575 1552V1556Q575 1609 761 1772Q838 1839 901 1839H917Q984 1839 984 1797V1787L983 1782Q983 1716 843 1618T640 1520ZM259 1399Q427 1399 427 1302Q427 1286 419 1251Q395 1146 395
854Q395 827 395 802Q395 552 404 463Q434 158 725 158Q923 158 995 330Q1038 433 1038 873Q1038 1107 1019 1211T999 1324Q999 1401 1149 1401Q1203 1401 1229 1375Q1279 1325 1279 1282T1254 1179T1223 1074T1217 775T1205 412T1140 210T974 59T735 2H656Q520
2 417 53T259 186T186 379T167 649V862L166 899Q165 935 165 1017T135 1162T105 1241V1272Q105 1335 171 1381Q197 1399 259 1399Z" />
<glyph unicode="&#xdb;" horiz-adv-x="1410" d="M698 1841H723Q778 1841 894 1704T1010 1559V1552Q1010 1524 954 1524T824 1587Q790 1616 750 1653T705 1690T653 1646Q521 1523 464 1523H463H448Q402 1523 402 1551Q402 1612 605 1798Q652 1841 698 1841ZM1000
1314Q1000 1395 1134 1395Q1204 1395 1231 1370Q1281 1323 1281 1277V1245Q1281 1228 1257 1172T1227 1068T1220 748T1204 366Q1170 135 984 41Q862 -20 699 -20H659Q526 -20 420 30Q221 125 181 362Q162 478 162 758T154 1083T123 1171T100 1271T164 1374Q191
1394 261 1394T378 1370T424 1296Q424 1281 416 1244Q392 1138 392 770L391 762Q391 401 438 298Q512 135 708 135Q802 135 869 166T981 276Q1039 380 1039 727T1020 1194T1000 1314Z" />
<glyph unicode="&#xdc;" horiz-adv-x="1410" d="M387 1696T387 1709T410 1745T486 1768H519L552 1763Q615 1763 615 1668V1661L614 1657L611 1630Q610 1626 610 1612T584 1571T500 1545H491L453 1551Q387 1551 387 1629L384 1645Q384 1649 384 1653L383 1664L384
1668V1679Q387 1696 387 1709ZM923 1772T942 1772T985 1749T1009 1672V1660Q1009 1605 984 1580T927 1555Q919 1553 916 1553L896 1551H880L850 1555Q783 1555 783 1624Q781 1632 781 1636L779 1651V1674L783 1700Q783 1726 806 1749T864 1772L887 1775H911Q923
1772 942 1772ZM245 1397Q413 1397 413 1297Q413 1295 397 1212T380 766T424 310T538 179T711 141Q916 141 990 314Q1034 417 1034 761T1000 1268Q993 1302 993 1329T1025 1377T1128 1398T1224 1373Q1273 1325 1273 1281T1248 1179T1216 1069T1209 742T1192 365T1115
173T943 37T686 -10Q221 -10 169 412Q157 509 157 757T151 1061T119 1171T93 1278T158 1379Q183 1397 245 1397Z" />
<glyph unicode="&#xdd;" horiz-adv-x="1243" d="M506 1539V1544Q506 1568 532 1601Q643 1743 699 1793T817 1843H822L828 1842Q910 1842 910 1787V1782Q910 1745 706 1586Q606 1508 546 1508L540 1509Q506 1509 506 1539ZM931 1399T1052 1399T1173 1357Q1173 1326
1085 1214Q1052 1172 932 941T799 680Q740 544 740 324Q740 253 765 199T791 112T753 50T644 20H588Q526 20 493 38Q440 67 440 120Q440 142 460 191T488 271T497 424T423 699Q404 738 285 954T141 1203Q50 1319 50 1343Q50 1397 189 1397T378 1333Q394 1313 405
1248T454 1099Q604 772 644 772Q717 825 825 1077Q861 1161 874 1246T892 1337Q931 1399 1052 1399Z" />
<glyph unicode="&#xde;" horiz-adv-x="1228" d="M871 716V760Q871 896 794 967T583 1039H565L557 1038Q477 1038 451 1018T424 937V510Q424 464 454 448T550 431H585Q710 431 790 505T871 716ZM274 7Q158 7 158 79Q158 112 177 161T205 251T214 420L215 444Q216
468 216 498V825L214 919Q213 943 213 967L212 990Q211 1014 211 1095T184 1237T156 1329Q156 1399 263 1399T424 1356T496 1250Q505 1220 541 1201T732 1155T978 1058Q1038 1012 1075 933T1113 748Q1113 549 988 435Q926 378 854 354T690 316T568 289Q484 252
484 195Q486 171 486 153Q486 88 431 48T295 7H274Z" />
<glyph unicode="&#xdf;" horiz-adv-x="1232" d="M796 1144Q796 1197 757 1245T640 1294Q488 1294 434 1130Q387 989 387 347Q387 128 373 84Q345 -2 222 -2Q133 -2 133 52Q133 77 149 138T171 262T178 464T164 708L154 782Q139 873 139 895T182 1075T282 1300Q407
1451 589 1451H591Q884 1451 967 1259Q989 1208 989 1140T920 960T851 795T951 650T1080 515Q1138 428 1138 336Q1138 178 1035 89T773 -1Q682 -1 630 28T578 110Q578 152 641 152L664 151L690 150Q718 149 749 149Q819 149 875 195T931 318T891 445T762 553T637
653T600 761T698 942T796 1144Z" />
<glyph unicode="&#xe0;" horiz-adv-x="1056" d="M438 141H457Q554 141 610 197T667 351V420Q667 495 605 495H559L552 494L526 492L494 489Q406 489 345 441T283 316V282Q283 219 327 180T438 141ZM590 1122H579Q536 1122 456 1193Q251 1375 251 1421V1426Q251
1476 328 1476H356Q366 1474 372 1474Q422 1474 475 1414Q637 1232 637 1161V1151Q637 1122 590 1122ZM940 82Q940 10 811 10Q778 10 718 34T646 59T532 25T353 -10Q227 -10 152 65T77 248V272Q78 340 110 399Q182 529 385 569Q431 578 501 587T602 610Q658 635
658 700T619 812T506 859T336 811T211 763Q140 763 140 845Q140 906 224 949Q335 1006 467 1006H515Q734 1006 827 849Q871 775 871 448Q871 285 877 244T911 153T940 82Z" />
<glyph unicode="&#xe1;" horiz-adv-x="1055" d="M413 151H447Q547 151 607 211T667 388V445Q667 509 612 509H593L586 508L554 506L528 504Q414 504 349 446T283 307V280Q283 222 323 187T413 151ZM446 1117H424Q379 1117 379 1149V1159Q379 1226 541 1411Q594
1472 661 1472H684Q766 1472 766 1417V1412Q766 1360 630 1239T446 1117ZM940 81Q940 11 808 11Q774 11 716 36T634 62T582 51L563 43L544 34Q453 -8 339 -8T150 67T74 251V274Q74 413 197 495Q269 543 347 558T496 584T598 607Q651 631 651 688Q651 771 607 811T498
851T337 804T209 757Q142 757 142 841Q142 905 247 952T470 1000H494Q716 1000 808 866Q845 811 857 734T869 471T875 241T911 151T940 81Z" />
<glyph unicode="&#xe2;" horiz-adv-x="1056" d="M423 144H442Q558 144 629 224Q670 270 670 381V418Q670 492 602 492H570L563 491L538 490L505 487L479 485Q402 485 342 432T281 297V283Q281 213 325 179T423 144ZM749 1125H726Q679 1125 587 1225L505 1309Q498
1309 411 1222T268 1134T212 1162Q212 1215 397 1417Q447 1471 505 1471H513Q565 1471 607 1425Q801 1213 801 1157Q801 1125 749 1125ZM944 78Q944 8 811 8Q774 8 719 33T643 58T528 24T371 -11H348Q236 -11 155 60T74 253V277Q74 334 102 390Q168 525 388 569Q431
577 502 586T605 611Q657 635 657 699T617 810T505 857T337 809T207 761Q140 761 140 847Q140 906 240 956T472 1006H496Q725 1006 812 871Q873 776 873 465Q873 284 880 240T916 150T944 78Z" />
<glyph unicode="&#xe3;" horiz-adv-x="1055" d="M429 150H461Q543 150 605 205T667 323L669 336Q669 342 669 348L671 379V415Q671 498 608 498H582L576 497H563L530 494L524 493L505 492L466 488Q395 488 338 438T280 312V285Q280 231 320 191T429 150ZM359 1392H375L383
1391Q428 1391 521 1347T648 1303T727 1337T797 1371Q835 1371 835 1333V1325Q835 1255 774 1203T659 1151H635Q587 1151 494 1197T369 1244T286 1209T215 1174Q176 1174 176 1211V1227Q176 1287 238 1339T359 1392ZM941 86Q941 10 815 10Q783 10 718 35T630 61T568
43T478 8T356 -9Q230 -9 154 65T78 246V270Q78 400 181 482Q258 543 384 568Q387 569 481 583T602 609Q658 633 658 690Q658 858 484 858Q433 858 339 811T215 764Q139 764 139 843Q139 912 246 959T482 1006Q716 1006 808 877Q846 824 858 756T870 479T877 233T913
152T941 86Z" />
<glyph unicode="&#xe4;" horiz-adv-x="1054" d="M414 149H445Q543 149 609 223Q656 276 656 386Q656 392 656 398L657 417V430Q657 502 591 502H585L578 501L546 499L515 496L489 493Q471 490 464 490Q393 490 335 438T276 305V292Q276 221 317 185T414 149ZM282
1180T266 1180T226 1203T203 1280V1296L208 1329Q208 1355 230 1377T289 1400L312 1403H331Q343 1400 365 1400T407 1374T428 1304V1284L424 1254Q424 1226 401 1203T342 1180L319 1177H300L296 1178H288Q282 1180 266 1180ZM681 1384H702Q754 1384 777 1361T801
1311L806 1281V1254Q803 1242 803 1225T781 1185T731 1162Q725 1160 720 1160L705 1158H685L681 1159H673Q665 1161 662 1161Q627 1161 601 1187T574 1271V1286L578 1315Q578 1337 601 1360T681 1384ZM937 86Q937 11 810 11Q778 11 713 36T625 62Q602 62 570 46Q457
-9 343 -9Q342 -8 341 -8Q226 -8 150 66T74 247V271Q74 402 178 483Q257 544 381 569Q406 574 491 587T598 610Q654 635 654 700T615 812T503 860T335 813T210 765Q136 765 136 845Q136 907 218 949Q332 1007 470 1007Q822 1007 858 732Q866 671 866 479T872 244T908
154T937 86Z" />
<glyph unicode="&#xe5;" horiz-adv-x="1060" d="M395 1328Q395 1287 422 1260T465 1231T482 1230L496 1228H511L535 1232Q546 1232 574 1254T602 1305L605 1322V1344L604 1347V1354Q602 1362 602 1373T576 1410T525 1437L507 1440H489L465 1436Q454 1436 427 1415T400
1369L395 1342V1328ZM416 142H448Q556 142 623 228Q663 279 663 390V446Q663 494 608 494H596L589 493L538 489Q503 484 499 484Q413 484 346 432T278 290V283Q278 222 313 182T416 142ZM485 1529H520Q534 1527 540 1527Q606 1527 659 1468T713 1328L712 1322Q712
1241 655 1184T523 1127H489Q409 1127 350 1186T291 1322V1343Q291 1415 348 1472T485 1529ZM201 765Q134 765 134 852Q134 910 223 955Q335 1011 467 1011H516Q615 1011 691 975T807 880T857 746T869 474T879 236T916 153T943 85T916 36T831 15T714 41T631 67T580
56L541 38Q436 -4 327 -4T143 73T68 244T94 394Q156 525 384 575Q415 582 430 584L500 593Q576 605 601 617Q653 642 653 707T613 818T501 863T332 814T201 765Z" />
<glyph unicode="&#xe6;" horiz-adv-x="1604" d="M560 493Q512 488 508 488Q419 488 350 427Q304 386 304 317V284Q304 221 346 188T447 155H480Q575 155 633 207T692 333V438Q692 495 625 495H599L593 494H580L573 493H560ZM1170 570Q1273 570 1273 637V656Q1270
674 1270 686Q1270 759 1215 808T1088 857H1075Q989 857 926 794T862 626L860 613V594Q860 556 947 556H953L959 557L1140 567Q1158 570 1170 570ZM1414 209Q1462 209 1462 153T1356 44T1128 -8H1092Q959 -8 814 86Q764 119 748 119Q732 118 668 78Q534 -7 390
-7Q389 -6 388 -6Q243 -6 165 69T87 248V282Q87 399 185 481Q260 544 394 572Q605 616 611 619Q659 641 659 705T616 814T499 860T338 813T220 765Q152 765 152 835T252 953T482 1001T710 946Q767 915 785 915T904 960T1086 1006H1121Q1272 1006 1371 919Q1431
867 1461 790T1492 653V620Q1492 527 1425 501Q1379 483 1169 468T938 445Q891 427 891 362Q891 266 962 206T1147 146Q1204 146 1307 177T1414 209Z" />
<glyph unicode="&#xe7;" horiz-adv-x="1013" d="M489 -454H471Q372 -454 372 -394V-387Q372 -338 424 -338T510 -312T544 -246T503 -177T461 -124Q461 -76 481 -38Q214 -8 125 233Q86 340 86 435V507Q86 602 122 700Q190 886 360 951Q442 983 569 983T793 931T889
794T814 708Q786 708 690 765T507 822T368 731T317 486Q317 145 562 145Q623 145 721 173T842 202Q890 202 890 138T778 16Q674 -38 574 -42Q578 -77 652 -132Q729 -189 729 -268Q729 -269 729 -270V-286Q729 -349 654 -401T489 -454Z" />
<glyph unicode="&#xe8;" horiz-adv-x="1049" d="M669 601Q737 601 737 647V680Q737 768 684 827T551 887H517Q428 887 366 817T303 646V628Q303 593 361 593L391 590H462L468 591L658 600Q664 601 669 601ZM357 1484H374Q441 1484 500 1417Q659 1235 659 1169V1164Q659
1135 607 1135H602Q566 1135 464 1214Q274 1362 274 1429L275 1434Q275 1484 357 1484ZM563 -14H517Q431 -14 346 20Q81 126 81 477V501Q82 605 112 704Q169 891 335 968Q428 1011 529 1011H575Q728 1011 830 916Q879 870 909 796T940 647Q940 536 868 508Q812
486 610 477T367 456Q307 439 307 385Q307 276 383 210T578 144Q640 144 749 174T866 204Q910 204 910 150T803 41T563 -14Z" />
<glyph unicode="&#xe9;" horiz-adv-x="1049" d="M642 600Q648 601 671 601Q730 601 730 688V695L729 701Q729 707 729 713L727 738Q727 798 673 846T552 895H524Q440 895 371 826T301 639V619Q301 584 395 584H408L414 585L500 590Q521 593 531 593L642 600ZM471
1128H450Q407 1128 407 1155V1165Q407 1208 566 1412Q617 1477 689 1477H711Q793 1477 793 1432V1417Q793 1377 653 1253T471 1128ZM554 -5H531Q528 -5 525 -5Q436 -5 355 26Q190 88 125 249Q84 352 84 464V534Q84 632 121 731Q191 919 378 985Q449 1010 531 1010H554Q725
1010 830 912Q878 868 907 796T937 666V645Q937 538 864 510Q812 490 619 481T388 464Q315 448 315 386Q315 276 391 215T585 154Q648 154 750 182T864 210Q904 210 904 158T797 50T554 -5Z" />
<glyph unicode="&#xea;" horiz-adv-x="1049" d="M739 661V674L738 681V694Q736 706 736 712Q736 782 677 834T545 887H525Q431 887 368 815T304 643V630Q304 594 388 594H400L407 595L648 605L672 607Q739 607 739 661ZM305 1135H282Q236 1135 236 1163V1170Q236
1216 418 1415Q474 1476 531 1476H539Q596 1476 644 1419Q824 1206 824 1167Q824 1135 765 1135H757Q714 1135 638 1211Q626 1223 618 1233T586 1266L534 1318Q531 1318 440 1227T305 1135ZM557 -18H533Q324 -18 199 115Q143 175 112 267T80 458V529Q80 639 118
734Q230 1013 556 1013Q717 1013 820 926Q875 880 908 803T942 661V639Q942 533 868 503T596 472T352 450T306 378Q306 269 385 206T585 143Q644 143 751 172T871 202Q912 202 912 148T803 38T557 -18Z" />
<glyph unicode="&#xeb;" horiz-adv-x="1047" d="M730 660V679Q730 770 677 829T530 889H523L517 888Q424 888 361 817T298 643V637Q298 598 355 598L384 595H396L403 596L517 600Q647 600 688 612T730 660ZM228 1301L230 1334Q230 1351 253 1374T313 1398L336
1401H355Q402 1401 425 1378T448 1324L451 1309V1302L452 1290V1286L451 1282Q451 1278 451 1274L446 1244Q446 1178 369 1178L351 1175H320Q300 1180 291 1180Q232 1180 232 1244L227 1274V1297L228 1301ZM603 1293L605 1324Q605 1341 629 1365T701 1390H736Q756
1385 766 1385Q830 1385 830 1312L833 1289V1267Q833 1229 812 1203T761 1176L742 1172L719 1170H707L676 1174Q606 1174 606 1245Q604 1253 604 1256L602 1275V1290L603 1293ZM908 147Q908 88 794 36Q678 -16 558 -16Q224 -16 118 245Q78 345 78 464V511Q78 737
203 875Q256 934 342 973T536 1013H560Q815 1013 904 808Q938 730 938 660V639Q938 543 875 512Q833 491 605 476T373 459Q302 442 302 377Q302 274 392 199Q459 143 584 143Q644 143 747 171T869 200Q908 200 908 147Z" />
<glyph unicode="&#xec;" horiz-adv-x="587" d="M359 1108H345Q311 1108 216 1192Q32 1356 32 1420V1425Q32 1474 106 1474H111Q181 1474 235 1412Q399 1225 399 1145V1132Q399 1108 359 1108ZM310 29H243Q183 29 155 53T127 99T154 188T182 304T184 365L185 392Q185
413 185 434L184 461V558Q184 752 175 798T140 882T115 935V945Q115 982 153 994T294 1006L306 1007Q369 1007 381 964T394 662T403 329T438 190T463 121V110Q463 73 407 44Q378 29 310 29Z" />
<glyph unicode="&#xed;" horiz-adv-x="586" d="M218 1115H199Q162 1115 162 1139V1153Q162 1204 322 1410Q376 1479 442 1479H462Q534 1479 534 1424L533 1419Q533 1368 391 1242T218 1115ZM285 19H245Q182 19 154 43T126 94T151 175T183 304T189 564T183 788T149
872T122 928V938Q122 976 162 988T286 1001H323Q380 1001 392 945Q399 913 399 642T406 308T439 183T464 116V104Q464 19 285 19Z" />
<glyph unicode="&#xee;" horiz-adv-x="598" d="M69 1128H54Q2 1128 2 1159Q2 1201 193 1427Q234 1475 290 1475H298Q342 1475 377 1440T494 1290T576 1167V1154Q576 1128 518 1128H510Q463 1128 391 1200Q373 1218 333 1261T290 1305L188 1203Q113 1128 69 1128ZM318
14H237Q191 14 161 36T131 86T156 167T186 283T191 549T183 790T150 870T124 925V935Q124 972 161 985T290 999H316Q386 999 398 942Q406 904 406 758V598L407 557Q407 543 407 529L408 487V460L411 365Q412 351 412 297T441 188T471 108V97Q471 55 416 29Q384
14 318 14Z" />
<glyph unicode="&#xef;" horiz-adv-x="596" d="M-11 1281L-8 1313Q-8 1343 18 1369T85 1395H110L134 1391Q155 1391 177 1369T200 1316Q203 1304 203 1301L205 1280V1268Q205 1210 177 1182T101 1154H86Q43 1154 18 1179T-7 1233L-9 1241L-12 1273V1277L-11 1281ZM360
1290L363 1321Q363 1354 389 1375T444 1397L466 1400H490Q529 1400 555 1379T582 1318Q584 1310 584 1306L585 1291V1283L584 1279Q584 1226 560 1202T508 1178Q498 1175 493 1175L474 1173H458L454 1174H447Q439 1176 423 1176T383 1200T359 1283V1287L360 1290ZM287
15H248Q189 15 162 38T134 88T159 169T189 294T195 559T187 792T153 873T126 928V939Q126 976 165 988T289 1001H327Q377 1001 390 953Q399 920 399 766V600L400 558V475L401 448V407L405 327Q405 266 415 238T445 174T465 121V99Q465 57 410 31Q376 15 287 15Z"
/>
<glyph unicode="&#xf0;" horiz-adv-x="1150" d="M569 835H540Q442 835 384 739T326 476V432Q326 295 388 202T553 109H574Q678 109 740 209T803 482V515Q801 537 801 548Q801 670 741 752T569 835ZM836 1255T836 1230T893 1094Q1026 835 1026 557T910 137Q784
-20 565 -20T229 106T113 425V454Q113 679 256 818Q325 885 409 908T624 932Q703 932 703 978T656 1070T532 1115L456 1111Q408 1111 408 1162Q408 1169 431 1206T455 1261T405 1326T355 1396Q355 1445 404 1445T541 1416T668 1387L797 1402Q861 1402 861 1332L858
1316L846 1286Q836 1255 836 1230Z" />
<glyph unicode="&#xf1;" horiz-adv-x="1175" d="M739 1172H706Q663 1172 572 1217T449 1263T363 1226T284 1188Q252 1188 252 1245T315 1356T446 1410H455Q499 1410 595 1365T727 1320T806 1356T877 1393Q916 1393 916 1338T855 1228T739 1172ZM1066 91Q1066 4
968 4Q779 4 779 119Q779 122 788 171T800 259T802 496T763 778T616 861Q545 861 489 827T408 751Q371 684 371 394Q371 264 387 203T403 125Q403 75 348 41T186 7Q106 7 106 62V86Q106 92 132 155T159 271L161 385V502Q161 785 145 836L137 856L127 875Q116 898
116 920Q116 970 263 971Q301 971 351 947T416 922T459 935L482 946Q511 960 564 981T702 1002T857 964T969 838T1010 418Q1010 277 1014 245T1042 161T1066 91Z" />
<glyph unicode="&#xf2;" horiz-adv-x="1121" d="M299 560V502Q299 330 363 230T554 130H565Q667 130 730 209T794 427L796 450L797 496V508L796 519Q796 694 729 791T544 889H533L522 888Q417 888 358 799T299 560ZM289 1417V1427Q289 1479 368 1479H396Q467 1479
515 1417Q674 1213 674 1162V1147Q674 1121 625 1121H614Q564 1121 464 1210Q289 1366 289 1417ZM1014 513V479Q1014 247 881 108Q759 -20 566 -20Q548 -20 530 -19Q325 -19 207 115Q90 249 90 480V514Q90 610 119 707Q174 890 336 969Q427 1013 518 1013H585Q676
1012 764 972Q931 895 983 721Q1014 618 1014 513Z" />
<glyph unicode="&#xf3;" horiz-adv-x="1120" d="M526 144H558Q615 144 666 174Q799 252 799 534V546Q799 709 737 802T564 895H542Q432 895 367 807T302 586L300 564L299 529V472Q299 324 361 234T526 144ZM486 1110H464Q422 1110 422 1139V1149Q422 1221 588
1411Q641 1472 711 1472H727Q808 1472 808 1415T628 1198Q529 1110 486 1110ZM90 462V514Q90 632 125 728Q193 913 364 981Q448 1014 551 1014L568 1013Q661 1013 747 979Q926 908 987 706Q1014 616 1014 514V496L1013 479Q1013 141 755 21Q667 -20 564 -20H530Q438
-20 356 12Q192 76 126 257Q90 355 90 462Z" />
<glyph unicode="&#xf4;" horiz-adv-x="1123" d="M530 140H573Q685 140 742 235T800 486V542Q800 709 728 799T561 889H528Q426 889 362 796T298 546V488Q300 466 300 455Q300 326 364 233T530 140ZM839 1157Q839 1125 783 1125T639 1213T548 1301T506 1263T441
1200Q359 1124 306 1124T252 1155Q252 1208 441 1413Q491 1467 549 1467H557Q609 1467 650 1422Q839 1216 839 1157ZM1017 512V478Q1017 361 982 266Q914 82 751 15Q657 -24 548 -24L531 -23Q323 -23 199 120Q146 181 117 278T88 478V495L89 513Q89 729 203 869Q256
933 343 973T518 1014H586Q676 1014 764 974Q924 900 985 721Q1017 625 1017 512Z" />
<glyph unicode="&#xf5;" horiz-adv-x="1121" d="M541 143H574Q679 143 741 233T803 483V551Q801 573 801 584Q801 706 733 799T540 892L529 891Q421 891 359 800T296 541V518Q296 337 363 240T541 143ZM404 1392H429Q472 1392 566 1348T694 1303T769 1338T841
1374Q877 1374 877 1334V1326Q877 1255 815 1203T687 1150L679 1151Q624 1151 536 1195T412 1239T328 1203T255 1167Q218 1167 218 1207V1215Q218 1275 276 1333T404 1392ZM1016 532V480Q1016 246 889 113T548 -20L531 -19Q230 -19 126 258Q91 351 91 464V516Q91
733 205 871Q256 933 345 974T536 1016H570Q665 1016 752 980Q915 912 975 753Q1016 645 1016 532Z" />
<glyph unicode="&#xf6;" horiz-adv-x="1117" d="M529 134H561Q651 134 714 213T778 433L780 455L781 490V547Q781 706 717 799T548 893H516Q406 893 349 796T292 527V515Q292 330 353 232T529 134ZM247 1289Q247 1400 351 1400H375Q416 1400 441 1380T467 1327Q469
1321 469 1316L471 1301V1274Q471 1234 449 1206T389 1178Q381 1176 378 1176L359 1174H347L317 1178Q250 1178 250 1251L247 1266V1289ZM614 1282L616 1314Q616 1330 638 1356T697 1383Q705 1385 709 1385L725 1387H749L779 1382Q842 1382 842 1308L845 1288V1256Q845
1210 819 1184T757 1158Q749 1156 745 1156L729 1155H725L721 1156H713L690 1159Q657 1159 635 1186T613 1259V1279L614 1282ZM512 1014H579Q670 1014 758 974Q924 897 981 707Q1008 617 1008 514V497L1007 480Q1007 381 978 284Q920 91 744 19Q652 -19 558 -19H524Q412
-19 327 22T190 125T110 283T81 480V498L82 515Q82 622 112 714Q170 888 315 963Q413 1014 512 1014Z" />
<glyph unicode="&#xf7;" horiz-adv-x="1115" d="M429 936V956Q434 976 434 995T463 1038T546 1062H559Q619 1062 643 1038T668 986L673 955V931Q670 922 670 903T645 858T584 833L568 830H560L547 829H543Q429 829 429 936ZM164 527Q107 527 107 576V596L108 606Q108
664 151 671Q175 675 560 675H921Q998 675 998 636V596Q998 538 954 531Q935 528 544 528H513L472 527H164ZM432 234V266Q435 278 435 298T464 342T554 367H558L562 366L586 364Q590 363 607 363T648 339T673 266V234Q670 225 670 206T647 163T591 139Q581 136
576 136L555 134H539Q432 134 432 234Z" />
<glyph unicode="&#xf8;" horiz-adv-x="1137" d="M679 808V821Q679 840 655 862T576 884H535Q430 884 365 790T300 523V488L301 479V462Q303 444 303 436Q303 355 339 283Q347 268 354 268Q367 268 457 398T613 660T679 808ZM440 160V147Q440 105 512 105H525Q636
105 710 226T785 515Q787 533 787 541L789 574V637L785 681Q785 736 768 736Q760 736 693 602T533 324T440 160ZM240 -65H226Q175 -65 175 -11L192 90L137 260Q105 359 105 464V485Q105 740 247 882Q318 953 407 981T623 1009L707 1006Q746 1006 800 1032T868 1058H882Q935
1058 935 1006L919 905Q919 898 961 768T1003 529V509Q1003 267 873 126T504 -15L400 -11Q361 -11 307 -38T240 -65Z" />
<glyph unicode="&#xf9;" horiz-adv-x="1162" d="M650 1134H640L634 1135Q596 1135 491 1217Q304 1362 304 1422V1427L305 1432Q305 1484 380 1484H395Q464 1484 524 1416Q692 1224 692 1164L691 1160Q691 1134 650 1134ZM1034 107Q1034 27 908 27Q844 27 799 54T731
81Q730 81 637 41T460 1Q273 1 199 136Q143 237 143 572Q143 714 139 766T111 869T87 938Q87 990 198 990T334 909Q352 849 352 590T374 268Q418 144 526 144Q670 144 732 240Q776 308 776 579Q776 718 767 769T751 851T744 889Q744 939 792 965T908 991T987 938Q989
928 989 728V418L991 335Q991 233 1012 176T1034 107Z" />
<glyph unicode="&#xfa;" horiz-adv-x="1161" d="M731 1482H747Q822 1482 822 1429V1424Q822 1365 675 1250T491 1135H486L481 1136H475Q436 1136 436 1162V1171Q436 1220 608 1417Q665 1482 731 1482ZM1039 98Q1039 27 899 27Q841 27 796 55T745 83T639 42T454
1T299 37T193 145Q143 245 143 585Q143 753 139 785T112 870T88 926V948Q88 991 197 991T331 925T357 589Q357 318 381 260Q428 146 540 146Q541 146 542 146Q685 146 746 264Q775 320 775 535T758 819T741 903Q741 950 793 972T913 994T989 928Q990 921 990 663T993
310T1018 166T1039 98Z" />
<glyph unicode="&#xfb;" horiz-adv-x="1161" d="M338 1142H322Q269 1142 269 1171Q269 1222 458 1428Q508 1483 564 1483H572Q622 1483 664 1437Q858 1225 858 1172Q858 1142 806 1142H783Q739 1142 646 1243Q635 1255 623 1267T605 1286T582 1310T564 1327T471
1235T338 1142ZM1040 94Q1040 14 910 14Q847 14 802 42T732 71Q730 71 639 30T459 -11Q271 -11 195 125Q141 222 141 594Q141 744 136 783T108 867T85 935Q85 988 197 988T336 906Q354 851 354 574T382 238T449 157T547 134T658 163T735 234Q775 300 775 515T759
807T742 888Q742 929 782 959T900 990T989 935Q991 926 991 594T1008 194Q1012 179 1026 144T1040 94Z" />
<glyph unicode="&#xfc;" horiz-adv-x="1161" d="M376 1175H341Q332 1178 323 1178Q255 1178 255 1246Q251 1262 251 1268L250 1284V1292L251 1296Q251 1402 365 1402H369Q420 1402 445 1381T471 1327Q473 1319 473 1316L475 1300V1281L470 1247Q470 1223 446 1199T376
1175ZM864 1293V1289Q864 1175 765 1175H730Q718 1178 704 1178T665 1198T639 1272V1299L643 1326Q643 1397 715 1397Q727 1400 730 1400L753 1402H761L765 1401H772L801 1396Q864 1396 864 1293ZM346 855T346 577T375 238T443 156T547 135T666 170T746 264T773
516T756 806L751 827L745 848Q738 876 738 886Q738 929 777 959T892 990T982 937Q984 929 984 659T986 313T995 214T1015 152T1030 102V83Q1030 68 1006 45T911 21T796 48T733 75T688 62L666 51Q556 -6 462 -6Q271 -6 192 130Q137 225 137 597Q137 739 131 782T103
872T81 936Q81 989 191 989T329 907Q346 855 346 577Z" />
<glyph unicode="&#xfd;" horiz-adv-x="1070" d="M479 1118H463Q420 1118 420 1149V1154Q420 1224 598 1424Q647 1479 699 1479H715Q748 1479 776 1458T804 1418L803 1414Q803 1385 653 1252T479 1118ZM744 903Q744 996 868 996H896Q979 996 979 924Q979 893 942
813T869 616Q692 50 614 -99Q461 -390 273 -390Q211 -390 176 -359Q163 -347 163 -320T210 -262Q223 -253 289 -236T394 -181Q469 -106 469 1Q469 50 381 206T259 441Q75 863 75 908T107 970T199 988Q301 988 335 925Q346 905 364 793T450 477T550 273Q560 273
578 296Q632 366 688 556T744 903Z" />
<glyph unicode="&#xfe;" horiz-adv-x="1162" d="M569 116H590Q698 116 761 214T825 486V533Q825 699 763 789T604 879L594 878Q495 878 438 821T381 672Q379 652 379 641L377 587V403Q377 229 406 186Q453 116 569 116ZM402 -110Q402 -136 415 -182T429 -277T372
-359T244 -393T151 -376T129 -332Q130 -306 150 -238T170 30L172 86L174 226V311L175 368Q175 368 175 782Q175 1198 158 1263Q152 1285 138 1319T124 1375Q124 1422 239 1422H263Q332 1422 358 1358Q374 1318 379 1180T392 1009Q403 961 441 961Q458 961 533 982T677
1004T820 972Q963 911 1019 738Q1050 641 1050 539V509Q1050 392 1012 289Q937 89 756 28Q700 9 602 2T453 -27T402 -110Z" />
<glyph unicode="&#xff;" horiz-adv-x="1080" d="M450 1256Q450 1151 350 1151H322Q237 1151 237 1219Q234 1228 234 1234L231 1258V1275L235 1307Q235 1381 304 1381L325 1384H352L381 1380Q444 1380 444 1323Q448 1311 448 1304L450 1276V1256ZM614 1269V1277Q614
1334 638 1358T691 1382Q699 1384 702 1384L717 1386H748Q785 1386 810 1366T836 1312Q838 1306 838 1301L840 1286V1266L835 1232Q835 1165 764 1165Q752 1162 749 1162L729 1160H714L681 1165Q659 1165 637 1187T614 1269ZM95 910Q95 976 233 976Q328 976 354
903Q360 886 367 843L370 820Q381 736 420 607Q521 267 554 267Q604 267 677 487T751 887Q751 987 865 987H893Q981 987 981 921Q981 883 946 806T876 615Q710 60 637 -82T475 -307T291 -391Q231 -391 205 -370T179 -335Q179 -299 223 -269Q238 -259 303 -242T406
-189Q486 -111 486 -8Q486 48 407 186T280 426Q95 826 95 890V910Z" />
<glyph unicode="&#x2013;" horiz-adv-x="1081" d="M865 642Q935 642 955 632T975 587V567Q975 505 927 497Q891 491 519 491H328L288 490H188Q134 490 121 502T107 554V564Q107 626 155 634Q191 640 544 640L846 642H865Z" />
<glyph unicode="&#x2014;" horiz-adv-x="1612" d="M1311 641Q1466 641 1491 631T1517 579V564Q1517 502 1437 494Q1397 490 782 490H515L453 489H203Q137 489 114 498T90 550V565Q90 627 168 635Q207 639 824 639L1280 641H1311Z" />
<glyph unicode="&#x2018;" horiz-adv-x="507" d="M375 1075V1062Q375 1019 341 995T259 971H252Q179 971 153 1012T126 1140L127 1147Q127 1272 190 1372T322 1472H328Q367 1472 367 1429Q367 1419 335 1361T303 1256Q303 1244 339 1184T375 1075Z" />
<glyph unicode="&#x2019;" horiz-adv-x="503" d="M145 999V1009Q145 1026 180 1082T216 1181Q216 1192 184 1251T151 1362Q151 1467 260 1467H288Q340 1467 367 1437T394 1357L396 1343V1300Q396 1197 328 1081T189 965H183Q145 965 145 999Z" />
<glyph unicode="&#x201a;" horiz-adv-x="502" d="M131 -201V-191L173 -107Q197 -59 197 -30T166 51T134 158Q134 265 250 265Q251 265 252 265H266Q326 265 353 234T381 134V105Q381 -5 313 -122T177 -239H171Q131 -239 131 -201Z" />
<glyph unicode="&#x201c;" horiz-adv-x="855" d="M113 1134V1148Q113 1264 175 1370T309 1476H315Q355 1476 355 1428Q355 1416 315 1349Q290 1299 290 1271T325 1184T361 1071L360 1065Q360 1024 331 998T246 972H239Q168 972 141 1011T113 1134ZM728 1080V1060Q728
1021 695 998T614 974H607Q481 974 481 1120V1163Q481 1264 542 1369T676 1475H681Q722 1475 722 1428L683 1350Q657 1298 657 1271T692 1188T728 1080Z" />
<glyph unicode="&#x201d;" horiz-adv-x="852" d="M378 1305Q378 1305 376 1269Q376 1170 303 1070T175 969L170 970H164Q131 970 131 1008V1013Q131 1015 165 1083T199 1174T168 1255T136 1366Q136 1472 237 1472H272Q315 1472 345 1445T376 1368L378 1354L379
1333V1312L378 1305ZM747 1304Q747 1197 681 1083T543 969H537Q498 969 498 1008V1013Q498 1031 532 1084T566 1167T535 1254T503 1366T531 1445T604 1471H640Q692 1471 718 1441T745 1361L747 1347V1304Z" />
<glyph unicode="&#x201e;" horiz-adv-x="857" d="M121 -205V-195Q121 -193 153 -129T185 -39T154 45T122 155T152 234T234 261H248L255 260Q305 260 334 234T364 156L366 142V93L361 44Q361 -20 296 -131T171 -243H154Q121 -243 121 -205ZM737 65Q737 -22 667
-132T536 -242H531Q491 -242 491 -199Q491 -195 523 -131T555 -27Q555 -17 524 46T492 158T522 234T606 261H627Q641 259 648 259Q687 259 713 229T740 136V100Q737 79 737 65Z" />
<glyph unicode="&#x2022;" horiz-adv-x="869" d="M440 396H406Q306 396 243 465T179 634V660Q179 762 255 832T435 902H452Q468 900 476 900Q554 900 620 834T687 679V637Q687 534 612 465T440 396Z" />
<glyph unicode="&#x2039;" horiz-adv-x="754" d="M111 549Q111 575 312 776T559 977T605 929V920Q605 879 460 716T314 543T387 456T477 360Q605 217 605 168T558 119H548Q528 119 320 305T111 538V549Z" />
<glyph unicode="&#x203a;" horiz-adv-x="755" d="M204 118Q156 118 156 167T302 380T448 553Q448 554 301 718T154 931T195 980H205Q236 980 439 788T642 558T441 320T204 118Z" />
</font>
</defs>
</svg>
