<?xml version="1.0" standalone="no"?>
<!DOCTYPE svg PUBLIC "-//W3C//DTD SVG 1.1//EN" "http://www.w3.org/Graphics/SVG/1.1/DTD/svg11.dtd">
<svg xmlns="http://www.w3.org/2000/svg">
<defs >
<font id="PalanquinDark" horiz-adv-x="846" ><font-face
    font-family="Palanquin Dark Medium"
    units-per-em="1000"
    panose-1="2 11 6 4 2 2 3 2 2 4"
    ascent="1320"
    descent="-491"
    alphabetic="0" />
<glyph unicode=" " glyph-name="space" horiz-adv-x="231" />
<glyph unicode="!" glyph-name="exclam" horiz-adv-x="249" d="M66 245L48 706H200L183 200L66 245ZM204 79Q204 45 181 23T124 0Q91 0 68 22T45 79Q45 113 68 135T124 158Q158 158 181 136T204 79Z" />
<glyph unicode="&quot;" glyph-name="quotedbl" horiz-adv-x="381" d="M371 647Q371 590 331 531T231 442L200 510Q222 527 239 545T263 589Q245 593 228 614T211 662Q211 690 234 716T291 742Q324 742 347 716T371 647ZM178 647Q178 590 138 531T38 442L7 510Q29
527 46 545T69 589Q52 593 35 614T18 662Q18 690 40 716T97 742Q131 742 154 716T178 647Z" />
<glyph unicode="#" glyph-name="numbersign" horiz-adv-x="586" d="M533 517Q528 491 522 465T510 413H555L565 305H485L461 204H555L565 96H436Q429 68 424 40T411 -15L288 -10L312 96H200Q193 68 187 40T174 -15L52 -10L76 96H31L20 204H101Q106 229 112 254T124
305H31L20 413H150L174 517H298Q292 491 286 465T273 413H385L409 517H533ZM249 305Q243 280 237 255T226 204H336L360 305H249Z" />
<glyph unicode="$" glyph-name="dollar" horiz-adv-x="556" d="M147 -125V3Q117 12 91 23T50 44Q60 72 69 101T89 159Q118 143 166 128T255 113Q310 113 338 131T366 180Q366 252 204 304T41 507Q41 560 70 602T153 669V805L250 801V693Q257 694 265 694T281 695Q287
695 292 695T303 693V805H402V673Q422 667 441 659T476 642Q465 614 453 587T429 532Q391 548 358 559T283 570Q247 570 220 552T193 508Q193 434 355 380T518 178Q518 123 487 80T398 11V-126L299 -115V-11Q289 -12 279 -12T258 -13H245V-125H147Z" />
<glyph unicode="%" glyph-name="percent" horiz-adv-x="955" d="M699 706L401 0H251L549 706H699ZM27 528Q27 609 78 655T198 702Q270 702 319 656T369 528Q369 448 318 401T196 354Q127 354 77 400T27 528ZM199 598Q177 598 162 581T146 529Q146 492 160 475T197
457Q220 457 235 474T251 527Q251 561 237 579T199 598ZM586 174Q586 255 636 301T757 347Q828 347 877 301T927 174Q927 94 876 47T755 0Q685 0 636 46T586 174ZM757 244Q735 244 720 227T704 175Q704 138 718 120T756 102Q779 102 794 120T809 173Q809 207 795
225T757 244Z" />
<glyph unicode="&amp;" glyph-name="ampersand" horiz-adv-x="690" d="M328 571Q290 571 272 550T254 506Q254 479 271 453T329 391L479 258Q491 289 499 324T509 397Q542 384 575 371T640 344Q636 294 624 247T591 159L669 92Q647 65 626 38T582 -16L506 51Q469
20 420 3T310 -15Q199 -15 120 43T41 217Q41 269 67 318T134 403Q120 424 112 448T104 501Q104 579 163 637T320 696Q372 696 421 680T511 641L465 531Q433 547 400 559T328 571ZM311 112Q338 112 361 120T404 143Q365 179 326 214T246 286L226 304Q211 285 203
264T195 220Q195 165 229 139T311 112Z" />
<glyph unicode="&apos;" glyph-name="quotesingle" horiz-adv-x="188" d="M178 647Q178 590 138 531T38 442L7 510Q29 527 46 545T69 589Q52 593 35 614T18 662Q18 690 40 716T97 742Q131 742 154 716T178 647Z" />
<glyph unicode="(" glyph-name="parenleft" horiz-adv-x="307" d="M41 321Q41 418 74 506T168 682L290 645Q247 586 215 492T182 322Q182 245 214 148T289 -1L168 -39Q109 39 75 130T41 321Z" />
<glyph unicode=")" glyph-name="parenright" horiz-adv-x="307" d="M266 321Q266 225 232 137T138 -39L17 -2Q60 57 92 151T124 321Q124 397 93 494T18 643L139 682Q197 604 231 512T266 321Z" />
<glyph unicode="*" glyph-name="asterisk" horiz-adv-x="400" d="M201 511Q195 504 165 463T131 414L39 480L109 575Q94 579 65 584T17 593Q16 593 14 593T11 594L42 698L141 674Q141 690 141 722T143 772H259V674L359 698L390 594L292 575L362 480L271 414L201 511Z" />
<glyph unicode="+" glyph-name="plus" horiz-adv-x="527" d="M510 217H336V3L199 8V217H26L17 331H199V531H336V331H500L510 217Z" />
<glyph unicode="," glyph-name="comma" horiz-adv-x="196" d="M182 51Q182 -6 142 -65T41 -154L10 -86Q32 -69 49 -51T73 -8Q55 -4 39 18T22 66Q22 95 44 120T100 146Q134 146 158 120T182 51Z" />
<glyph unicode="-" glyph-name="hyphen" horiz-adv-x="313" d="M296 216H28L17 332H286L296 216Z" />
<glyph unicode="." glyph-name="period" horiz-adv-x="179" d="M168 79Q168 45 146 23T90 0Q56 0 33 22T10 79Q10 113 33 135T90 158Q123 158 145 136T168 79Z" />
<glyph unicode="/" glyph-name="slash" horiz-adv-x="462" d="M457 706L158 0H6L304 706H457Z" />
<glyph unicode="0" glyph-name="zero" horiz-adv-x="640" d="M320 579Q435 579 513 504T591 287Q591 148 512 68T319 -13Q208 -13 128 65T48 285Q48 423 127 501T320 579ZM320 110Q372 110 411 155T451 283Q451 367 412 411T319 456Q268 456 229 413T190 288Q190
202 228 156T320 110Z" />
<glyph unicode="1" glyph-name="one" horiz-adv-x="461" d="M61 107H178V391L118 359L51 469L227 566H326V107H406Q410 80 412 53T419 0H73L61 107Z" />
<glyph unicode="2" glyph-name="two" horiz-adv-x="513" d="M445 401Q445 340 413 288T309 175L235 114H455L472 0H35V98L223 263Q275 309 293 338T313 396Q313 423 292 441T234 460Q198 460 154 435T98 403L35 502Q65 526 116 552T238 579Q355 579 400 523T445 401Z" />
<glyph unicode="3" glyph-name="three" horiz-adv-x="546" d="M480 404Q480 361 455 324T401 273Q432 261 461 219T491 121Q491 37 425 -20T245 -77Q190 -77 129 -57T19 -9L95 89Q136 64 171 53T247 42Q287 42 318 63T350 122Q350 162 320 185T226 209H164L147
324H219Q274 324 306 344T338 397Q338 423 315 441T250 460Q211 460 175 445T108 409L38 508Q88 543 143 561T258 579Q365 579 422 528T480 404Z" />
<glyph unicode="4" glyph-name="four" horiz-adv-x="604" d="M563 57H471V-67H323V57H46L27 173L361 571H471V176H574L563 57ZM192 176H323V341L192 176Z" />
<glyph unicode="5" glyph-name="five" horiz-adv-x="542" d="M77 197L95 566H471L455 448H220L216 347Q231 355 248 359T286 363Q394 363 449 299T504 149Q504 50 438 -13T255 -77Q200 -77 139 -58T31 -10L104 93Q146 70 180 59T258 47Q306 47 338 74T370 149Q370
193 345 218T282 243Q251 243 231 228T205 197H77Z" />
<glyph unicode="6" glyph-name="six" horiz-adv-x="578" d="M427 536Q364 521 306 477T217 375Q242 390 269 399T322 409Q421 409 484 349T547 206Q547 121 486 54T322 -13Q207 -13 128 56T48 264Q48 377 135 491T361 634L427 536ZM309 304Q268 304 236 281T191
230Q199 173 230 140T315 107Q358 107 382 136T407 201Q407 241 382 272T309 304Z" />
<glyph unicode="7" glyph-name="seven" horiz-adv-x="513" d="M41 -33L307 448H53L37 566H459L496 507L182 -72L41 -33Z" />
<glyph unicode="8" glyph-name="eight" horiz-adv-x="583" d="M292 -13Q179 -13 114 44T48 189Q48 237 79 280T150 340Q117 359 95 392T73 464Q73 540 133 591T292 643Q388 643 449 592T510 464Q510 425 488 392T432 340Q472 323 503 280T534 189Q534 104 470
46T292 -13ZM213 461Q213 432 233 413T292 386Q330 393 350 413T370 461Q370 484 348 503T290 523Q256 523 235 504T213 461ZM291 106Q330 106 362 129T395 190Q395 221 369 249T292 286Q241 278 215 250T188 190Q188 153 220 130T291 106Z" />
<glyph unicode="9" glyph-name="nine" horiz-adv-x="578" d="M149 30Q213 45 270 88T358 189Q335 174 309 166T259 157Q159 157 95 217T31 360Q31 445 94 512T259 579Q374 579 451 510T529 302Q529 189 442 76T217 -69L149 30ZM268 262Q310 262 341 285T387 335Q378
393 347 426T263 459Q220 459 196 430T171 365Q171 325 196 294T268 262Z" />
<glyph unicode=":" glyph-name="colon" horiz-adv-x="179" d="M168 395Q168 362 146 339T90 316Q56 316 33 339T10 395Q10 428 33 451T90 475Q123 475 145 452T168 395ZM168 79Q168 45 146 23T90 0Q56 0 33 22T10 79Q10 113 33 135T90 158Q123 158 145 136T168 79Z" />
<glyph unicode=";" glyph-name="semicolon" horiz-adv-x="193" d="M179 395Q179 362 156 339T100 316Q66 316 43 339T19 395Q19 428 42 451T100 475Q133 475 156 452T179 395ZM178 63Q178 6 138 -53T38 -142L6 -74Q28 -57 45 -39T69 4Q52 8 35 30T18 78Q18 107
41 132T97 158Q131 158 154 132T178 63Z" />
<glyph unicode="&lt;" glyph-name="less" horiz-adv-x="357" d="M304 12L21 215V280L304 482L330 358L173 248L330 137L304 12Z" />
<glyph unicode="=" glyph-name="equal" horiz-adv-x="506" d="M486 305H32L21 414H476L486 305ZM486 96H32L21 204H476L486 96Z" />
<glyph unicode="&gt;" glyph-name="greater" horiz-adv-x="357" d="M54 482L337 280V214L54 12L27 136L184 247L27 357L54 482Z" />
<glyph unicode="?" glyph-name="question" horiz-adv-x="439" d="M419 518Q419 461 374 408T251 317L235 187L126 226L119 389Q188 411 233 446T278 517Q278 546 257 563T204 580Q175 580 131 567T33 519L14 646Q61 675 108 688T207 701Q308 701 363 650T419 518ZM252
79Q252 45 229 23T173 0Q139 0 116 22T93 79Q93 113 116 135T173 158Q206 158 229 136T252 79Z" />
<glyph unicode="@" glyph-name="at" horiz-adv-x="817" d="M588 387L565 195Q565 184 570 178T581 171Q606 171 631 206T657 302Q657 384 601 440T446 497Q339 497 257 424T174 226Q174 124 244 67T406 10Q437 10 485 16T573 42Q583 17 591 -7T609 -57Q552 -87
499 -94T397 -101Q263 -101 154 -14T44 229Q44 381 152 496T445 611Q588 611 683 524T778 307Q778 184 716 121T573 57Q553 57 533 63T497 81Q480 71 459 65T415 59Q322 59 278 105T234 224Q234 319 301 378T458 438Q481 438 504 437T551 434L588 387ZM413 174Q446
174 451 232T464 333Q421 333 390 305T358 227Q358 208 370 191T413 174Z" />
<glyph unicode="A" glyph-name="A" horiz-adv-x="671" d="M333 489L252 269H416L333 489ZM403 680L663 18L517 0L460 151H210L154 0H7L269 680H403Z" />
<glyph unicode="B" glyph-name="B" horiz-adv-x="649" d="M566 486Q565 449 549 419T506 366Q550 341 578 300T606 200Q606 99 533 50T351 0H79V680H324Q428 680 497 635T566 486ZM309 560H225V409H313Q359 409 385 427T412 483Q412 526 385 543T309 560ZM351
291H225V118H345Q394 118 424 139T454 201Q454 244 426 267T351 291Z" />
<glyph unicode="C" glyph-name="C" horiz-adv-x="597" d="M364 571Q290 571 247 508T204 338Q204 240 243 175T361 109Q403 109 439 118T504 142L559 32Q520 11 465 -1T364 -14Q203 -14 127 87T51 337Q51 494 133 594T366 694Q403 694 456 683T553 646L508 543Q461
558 433 564T364 571Z" />
<glyph unicode="D" glyph-name="D" horiz-adv-x="708" d="M342 0H79V680H342Q501 680 580 586T659 344Q659 186 574 93T342 0ZM344 559H225V120H337Q413 120 460 172T507 344Q507 443 467 501T344 559Z" />
<glyph unicode="E" glyph-name="E" horiz-adv-x="583" d="M562 0H79V680H500Q504 651 509 622T519 564H225V400H416L436 284H225V114H542L562 0Z" />
<glyph unicode="F" glyph-name="F" horiz-adv-x="513" d="M429 277H225V0H79V680H482Q487 652 492 622T501 564H225V392H410L429 277Z" />
<glyph unicode="G" glyph-name="G" horiz-adv-x="663" d="M597 36Q557 14 498 0T378 -14Q217 -14 134 85T51 337Q51 496 144 595T390 694Q427 694 486 683T588 646L542 543Q495 558 464 564T392 571Q311 571 258 513T204 338Q204 227 250 168T377 109Q404 109
425 111T465 118V268H332V379H597V36Z" />
<glyph unicode="H" glyph-name="H" horiz-adv-x="713" d="M225 685V397H487V680H633V0H487V280H225V0H79V680L225 685Z" />
<glyph unicode="I" glyph-name="I" horiz-adv-x="305" d="M225 680V0H79V680H225Z" />
<glyph unicode="J" glyph-name="J" horiz-adv-x="314" d="M238 680V153Q238 81 202 44T69 -23L10 88Q64 108 77 127T90 183V680H238Z" />
<glyph unicode="K" glyph-name="K" horiz-adv-x="659" d="M217 680V411L478 695L589 611L378 383L659 0H474L278 276L217 210V0H70V680H217Z" />
<glyph unicode="L" glyph-name="L" horiz-adv-x="551" d="M541 0H79V680H226V115H522L541 0Z" />
<glyph unicode="M" glyph-name="M" horiz-adv-x="771" d="M371 202L225 386V0H79V680H175L397 384Q448 457 498 531T599 680H692V0H544V371Q516 331 487 291T428 210Q414 209 400 206T371 202Z" />
<glyph unicode="N" glyph-name="N" horiz-adv-x="746" d="M666 680V0H523L225 428V0H79V680H221L519 249V680H666Z" />
<glyph unicode="O" glyph-name="O" horiz-adv-x="742" d="M370 695Q532 695 611 593T690 344Q690 186 606 86T370 -14Q210 -14 131 88T51 337Q51 494 135 594T370 695ZM369 109Q447 109 492 167T538 344Q538 443 499 507T372 571Q297 571 251 508T204 338Q204
238 243 174T369 109Z" />
<glyph unicode="P" glyph-name="P" horiz-adv-x="626" d="M79 0V680H316Q428 680 508 626T589 453Q589 335 503 280T308 224H226V0H79ZM312 560H226V343H314Q367 343 399 370T435 448Q435 506 403 533T312 560Z" />
<glyph unicode="Q" glyph-name="Q" horiz-adv-x="742" d="M370 695Q532 695 611 593T690 344Q690 272 671 210T618 101L683 36L595 -41L527 23Q494 6 455 -4T370 -14Q210 -14 131 88T51 337Q51 494 135 594T370 695ZM369 109Q385 109 400 112T428 121L345 202L443
280L515 207Q526 233 532 267T538 344Q538 443 499 507T372 571Q297 571 251 508T204 338Q204 238 243 174T369 109Z" />
<glyph unicode="R" glyph-name="R" horiz-adv-x="652" d="M311 560H225V361H313Q366 361 400 385T435 459Q435 512 402 536T311 560ZM480 0Q446 60 413 122T347 244Q337 243 327 243T307 243H225V0H79V680H316Q428 680 508 628T589 463Q589 400 559 355T481 284Q521
213 561 142T642 0H480Z" />
<glyph unicode="S" glyph-name="S" horiz-adv-x="556" d="M42 507Q43 588 106 641T282 695Q333 695 385 680T477 642L430 532Q391 548 358 559T284 570Q244 570 219 554T193 508Q193 477 226 455T313 406Q386 369 452 317T519 178Q519 96 451 42T259 -13Q213 -13
146 4T51 44L90 160Q119 144 167 129T256 113Q311 113 339 131T367 180Q367 209 329 234T245 281Q174 317 108 368T42 507Z" />
<glyph unicode="T" glyph-name="T" horiz-adv-x="594" d="M7 680H567L587 564H359V0H212V564H7V680Z" />
<glyph unicode="U" glyph-name="U" horiz-adv-x="719" d="M219 680V260Q219 182 258 146T358 109Q421 109 459 146T498 260V680H645V251Q645 134 567 62T358 -11Q228 -11 150 60T72 251V680H219Z" />
<glyph unicode="V" glyph-name="V" horiz-adv-x="671" d="M268 0L7 662L152 680L337 190L516 680H663L402 0H268Z" />
<glyph unicode="W" glyph-name="W" horiz-adv-x="1071" d="M689 0L532 463L381 0H244L7 662L152 680L314 197L464 680H605L763 198L916 680H1064L826 0H689Z" />
<glyph unicode="X" glyph-name="X" horiz-adv-x="691" d="M7 10L251 342L16 659Q55 664 93 670T171 680L341 451L518 680H683L422 340L674 0H506L333 232Q288 172 244 111T154 -10L7 10Z" />
<glyph unicode="Y" glyph-name="Y" horiz-adv-x="626" d="M236 0V266L7 663L159 680L309 409L466 680H619L383 262V0H236Z" />
<glyph unicode="Z" glyph-name="Z" horiz-adv-x="587" d="M564 569L190 114H553L568 0H33L17 109L381 564H61L46 680H548L564 569Z" />
<glyph unicode="[" glyph-name="bracketleft" horiz-adv-x="366" d="M215 580V27H340Q345 -1 349 -30T359 -87H69V696H359Q355 667 350 638T340 580H215Z" />
<glyph unicode="\" glyph-name="backslash" horiz-adv-x="462" d="M304 -4L6 710H158L457 -4H304Z" />
<glyph unicode="]" glyph-name="bracketright" horiz-adv-x="366" d="M149 27V580H24Q20 609 16 638T7 696H297V-87H7L24 27H149Z" />
<glyph unicode="^" glyph-name="asciicircum" horiz-adv-x="468" d="M162 142H13L184 401H284L454 142H307L235 256L162 142Z" />
<glyph unicode="_" glyph-name="underscore" horiz-adv-x="421" d="M404 0H28L17 115H394L404 0Z" />
<glyph unicode="`" glyph-name="grave" horiz-adv-x="241" d="M14 764H163L228 589H115L14 764Z" />
<glyph unicode="a" glyph-name="a" horiz-adv-x="514" d="M219 106Q242 106 266 116T312 147V208H228Q199 208 183 191T167 151Q167 133 182 120T219 106ZM251 499Q342 499 400 447T459 313V0H387L355 40Q330 18 294 3T219 -12Q129 -12 86 32T42 149Q42 225 93
264T228 303H311Q309 334 290 352T238 370Q207 370 169 361T103 339L64 455Q95 473 153 486T251 499Z" />
<glyph unicode="b" glyph-name="b" horiz-adv-x="591" d="M212 706V471Q238 486 269 494T327 503Q438 503 495 430T552 247Q552 137 495 63T324 -11Q287 -11 246 3T171 42Q164 32 156 21T140 0H66V695L212 706ZM401 246Q401 298 377 339T289 380Q272 380 251 373T212
356V140Q230 127 252 119T294 111Q353 111 377 155T401 246Z" />
<glyph unicode="c" glyph-name="c" horiz-adv-x="486" d="M300 376Q251 376 221 339T190 242Q190 183 220 148T300 112Q331 112 356 119T415 142L456 38Q420 10 372 -1T293 -12Q175 -12 107 56T38 242Q38 360 106 429T293 499Q324 499 371 488T456 449L415 345Q381
361 356 368T300 376Z" />
<glyph unicode="d" glyph-name="d" horiz-adv-x="598" d="M301 112Q320 112 343 120T385 140V346Q366 361 342 370T296 380Q237 380 214 336T190 246Q190 193 214 153T301 112ZM533 706V0H457L422 48Q393 23 351 6T262 -12Q152 -12 95 61T38 244Q38 354 97 428T270
503Q295 503 326 495T385 472V695L533 706Z" />
<glyph unicode="e" glyph-name="e" horiz-adv-x="548" d="M288 499Q402 499 457 424T512 246V198H196Q206 157 237 134T318 111Q351 111 379 118T441 142L484 38Q447 10 394 -1T310 -12Q187 -12 113 54T38 242Q38 360 107 429T288 499ZM284 377Q250 377 226 355T195
293H372Q365 331 343 354T284 377Z" />
<glyph unicode="f" glyph-name="f" horiz-adv-x="405" d="M292 702Q319 702 352 692T401 667L359 563Q343 570 328 574T300 578Q266 578 250 556T234 498V467H340L373 352H234V0H87V352H10V467H87V517Q87 605 144 653T292 702Z" />
<glyph unicode="g" glyph-name="g" horiz-adv-x="598" d="M189 245Q189 192 213 152T300 111Q319 111 342 119T385 139V346Q365 360 341 370T296 380Q236 380 213 336T189 245ZM532 484V0Q532 -94 470 -152T278 -210Q247 -210 187 -196T86 -154L130 -51Q176 -73
208 -82T275 -92Q329 -92 357 -68T385 -1V21Q357 6 325 -2T262 -11Q152 -11 95 62T38 244Q38 354 97 428T269 503Q306 503 350 487T426 444L457 484H532Z" />
<glyph unicode="h" glyph-name="h" horiz-adv-x="598" d="M358 503Q458 503 500 445T543 302V0H396V297Q396 337 376 358T318 380Q293 380 265 367T212 338V0H66V695L212 706V458Q243 479 283 491T358 503Z" />
<glyph unicode="i" glyph-name="i" horiz-adv-x="271" d="M217 634Q217 600 193 577T134 553Q100 553 77 576T54 634Q54 668 77 692T134 716Q168 716 192 692T217 634ZM208 485V0H61V485H208Z" />
<glyph unicode="j" glyph-name="j" horiz-adv-x="286" d="M65 634Q65 668 89 692T147 716Q181 716 205 692T229 634Q229 600 205 577T147 553Q113 553 89 576T65 634ZM221 485V-7Q221 -79 178 -121T35 -194L-23 -84Q31 -65 52 -41T73 23V485H221Z" />
<glyph unicode="k" glyph-name="k" horiz-adv-x="540" d="M212 706V320L411 499Q432 473 453 447T496 396L361 283Q404 212 448 141T536 0H371L257 196Q246 186 235 177T212 158V0H66V695L212 706Z" />
<glyph unicode="l" glyph-name="l" horiz-adv-x="278" d="M212 706V0H66V695L212 706Z" />
<glyph unicode="m" glyph-name="m" horiz-adv-x="901" d="M664 503Q762 503 804 446T846 303V0H698V297Q698 337 679 358T624 380Q600 380 572 367T520 338Q521 329 522 321T523 303V0H375V297Q375 337 356 358T302 380Q280 380 256 370T208 346V0H61V485H137L171
441Q203 467 249 485T341 503Q395 503 431 485T489 434Q520 463 569 483T664 503Z" />
<glyph unicode="n" glyph-name="n" horiz-adv-x="595" d="M354 503Q454 503 496 446T539 303V0H392V297Q392 337 372 358T315 380Q291 380 262 368T208 339V0H61V485H137L176 436Q208 464 258 483T354 503Z" />
<glyph unicode="o" glyph-name="o" horiz-adv-x="597" d="M298 499Q418 499 488 430T559 239Q559 121 484 55T291 -11Q175 -11 107 56T38 244Q38 363 110 431T298 499ZM293 112Q344 112 375 142T407 239Q407 301 379 338T300 376Q249 376 220 343T190 245Q190
181 216 147T293 112Z" />
<glyph unicode="p" glyph-name="p" horiz-adv-x="591" d="M401 246Q401 298 377 339T289 380Q269 380 249 373T212 356V140Q230 127 252 119T294 111Q353 111 377 155T401 246ZM66 484H140L169 446Q203 473 246 488T327 503Q438 503 495 430T552 247Q552 137 495
63T324 -11Q299 -11 269 -3T212 18V-209L66 -219V484Z" />
<glyph unicode="q" glyph-name="q" horiz-adv-x="598" d="M533 485V-209L385 -219V21Q357 6 325 -3T262 -12Q152 -12 95 61T38 244Q38 354 97 428T270 503Q307 503 351 487T427 445L457 485H533ZM301 112Q320 112 343 120T385 140V346Q366 361 342 370T296 380Q237
380 214 336T190 246Q190 193 214 153T301 112Z" />
<glyph unicode="r" glyph-name="r" horiz-adv-x="370" d="M334 485L364 367Q330 367 288 351T208 302V0H61V484H136L180 420Q210 445 252 465T334 485Z" />
<glyph unicode="s" glyph-name="s" horiz-adv-x="446" d="M249 307Q310 285 363 247T416 144Q416 71 365 30T214 -12Q183 -12 127 2T33 44L76 148Q109 132 144 122T206 112Q236 112 251 120T266 141Q266 157 251 169T201 193Q142 212 89 248T36 347Q36 419 88
459T234 499Q264 499 315 486T405 445L362 341Q329 357 298 366T236 376Q212 376 200 368T188 346Q188 336 201 328T249 307Z" />
<glyph unicode="t" glyph-name="t" horiz-adv-x="403" d="M283 -17Q193 -17 135 29T76 164V364H7V478H76V598L222 622V478H320L352 364H222V186Q222 151 240 129T292 106Q305 106 320 110T350 121L393 17Q376 3 343 -7T283 -17Z" />
<glyph unicode="u" glyph-name="u" horiz-adv-x="588" d="M238 -19Q138 -19 97 39T55 181V485H203V187Q203 147 222 126T278 104Q301 104 328 115T379 142V485H526V0H450L413 46Q381 19 333 0T238 -19Z" />
<glyph unicode="v" glyph-name="v" horiz-adv-x="523" d="M193 0L7 467L156 485L263 198L365 485H516L325 0H193Z" />
<glyph unicode="w" glyph-name="w" horiz-adv-x="790" d="M488 0L391 282L298 0H170L7 467L156 485L239 205L318 485H470L554 205L631 485H782L615 0H488Z" />
<glyph unicode="x" glyph-name="x" horiz-adv-x="560" d="M7 0L188 244L18 464Q55 469 93 475T169 485L278 341L391 485H552L366 228L542 0H378L275 131Q250 98 224 65T171 0H7Z" />
<glyph unicode="y" glyph-name="y" horiz-adv-x="523" d="M166 -16L183 25L7 467L155 485Q182 413 209 341T262 197L364 485H516L300 -61Q276 -120 217 -162T91 -221L40 -102Q76 -88 115 -67T166 -16Z" />
<glyph unicode="z" glyph-name="z" horiz-adv-x="460" d="M427 402Q373 331 318 260T209 117H428L440 0H35L17 77Q61 134 109 201T234 366H54L32 485H420L427 402Z" />
<glyph unicode="{" glyph-name="braceleft" horiz-adv-x="309" d="M246 396Q246 364 237 343T211 309Q229 292 236 272T243 229Q243 195 227 165T211 101Q211 92 219 82T249 72H289L302 -41H234Q156 -41 120 -7T84 85Q84 117 100 156T117 217Q117 236 104 247T75
259H30V358H75Q91 358 104 369T117 400Q117 434 101 465T84 533Q84 593 121 626T241 659H302L289 545H249Q229 545 221 535T212 516Q212 486 229 458T246 396Z" />
<glyph unicode="|" glyph-name="bar" horiz-adv-x="304" d="M225 701V-11Q188 -9 152 -6T79 0V713Q116 710 152 707T225 701Z" />
<glyph unicode="}" glyph-name="braceright" horiz-adv-x="309" d="M62 221Q62 253 71 274T97 308Q84 320 74 338T63 386Q63 418 79 451T95 516Q95 524 88 534T59 545H18L7 659H67Q148 659 186 626T225 533Q225 500 208 461T191 400Q191 381 204 370T233 358H278V259H233Q217
259 204 248T191 217Q191 184 208 151T225 85Q225 25 187 -8T67 -41H7L18 72H59Q81 72 88 82T95 101Q95 131 79 159T62 221Z" />
<glyph unicode="~" glyph-name="asciitilde" horiz-adv-x="483" d="M137 172H18Q18 262 56 308T155 354Q205 354 244 338T314 322Q325 322 335 333T346 363H465Q465 273 430 227T336 181Q285 181 248 197T175 214Q164 214 151 203T137 172Z" />
<glyph unicode="&#xa0;" glyph-name="uni00A0" horiz-adv-x="231" />
<glyph unicode="&#xa1;" glyph-name="exclamdown" horiz-adv-x="249" d="M45 627Q45 660 68 683T124 706Q158 706 181 683T204 627Q204 593 181 570T124 547Q91 547 68 570T45 627ZM183 461L199 0H48L65 505L183 461Z" />
<glyph unicode="&#xa2;" glyph-name="cent" horiz-adv-x="486" d="M300 376Q251 376 221 339T190 242Q190 183 220 148T300 112Q331 112 356 119T415 142L456 38Q436 22 411 12T360 -4V-122L223 -112V-5Q136 14 87 78T38 242Q38 341 86 406T222 491V618H359V490Q384
486 409 476T456 449L415 345Q381 361 356 368T300 376Z" />
<glyph unicode="&#xa3;" glyph-name="sterling" horiz-adv-x="513" d="M44 396H121V499Q121 583 173 633T312 683Q343 683 379 675T437 648Q426 623 415 597T394 545Q379 552 363 556T335 560Q301 560 285 538T269 481V396H392L426 283H269V196Q269 173 265 152T253
114H483Q488 86 493 57T502 0H55V114H62Q93 115 107 137T121 193V283H44V396Z" />
<glyph unicode="&#xa4;" glyph-name="currency" horiz-adv-x="719" d="M246 245Q247 196 280 162T360 127Q408 127 442 161T476 245Q476 295 442 328T360 362Q313 361 280 328T246 245ZM361 -13Q325 -12 291 -4T227 20L119 -91L25 14L129 119Q115 146 107 177T98
244Q98 279 106 311T130 370L21 476L121 579L227 470Q256 485 290 494T361 503Q397 503 430 495T492 471L600 581L695 475L592 373Q607 345 616 313T625 246Q625 209 616 177T592 117L699 14L598 -89L492 19Q464 5 431 -3T361 -13Z" />
<glyph unicode="&#xa5;" glyph-name="yen" horiz-adv-x="626" d="M537 60H383V0H236V60H90L79 163H236V212H90L79 314H208Q157 401 107 488T7 662L159 680L308 408L465 680H619L412 314H527L537 212H383V163H527L537 60Z" />
<glyph unicode="&#xa6;" glyph-name="brokenbar" horiz-adv-x="304" d="M225 701V402L79 414V713Q116 710 152 707T225 701ZM225 287V-11Q188 -9 152 -6T79 0V298Q183 291 203 289T225 287Z" />
<glyph unicode="&#xa7;" glyph-name="section" horiz-adv-x="656" d="M310 299Q344 282 376 263T437 220Q451 228 458 240T466 265Q466 294 428 319T344 366Q312 382 278 401T216 445Q203 438 197 427T190 403Q190 372 223 350T310 299ZM141 595Q142 674 205 727T382
780Q432 780 483 765T575 728L529 618L521 621Q484 636 452 646T383 656Q343 656 318 640T292 594Q292 563 326 540T412 491Q485 454 551 402T617 264Q617 213 589 172T510 107Q513 99 514 91T515 73Q514 -10 447 -64T256 -119Q210 -119 143 -101T47 -61L87 53Q116
38 164 23T253 7Q307 7 335 25T363 75Q363 103 325 128T242 175Q171 211 105 263T38 403Q38 454 66 495T144 559Q143 566 142 576T141 595Z" />
<glyph unicode="&#xa8;" glyph-name="dieresis" horiz-adv-x="368" d="M156 673Q156 644 136 624T86 603Q56 603 35 623T14 673Q14 703 35 723T86 744Q116 744 136 724T156 673ZM354 673Q354 644 334 624T283 603Q255 603 234 623T212 673Q212 703 233 723T283
744Q313 744 333 724T354 673Z" />
<glyph unicode="&#xa9;" glyph-name="copyright" horiz-adv-x="872" d="M436 -45Q259 -45 154 66T48 336Q48 496 153 607T436 718Q614 718 719 607T825 336Q825 178 720 67T436 -45ZM436 46Q569 46 646 130T723 337Q723 461 648 544T436 628Q304 628 226 545T148
337Q148 214 226 130T436 46ZM459 451Q417 451 392 421T366 337Q366 283 391 253T459 223Q487 223 509 230T562 252L600 151Q567 125 524 116T453 106Q347 106 285 168T222 337Q222 444 287 506T453 568Q480 568 523 559T600 524L562 422Q532 437 510 444T459 451Z"
/>
<glyph unicode="&#xaa;" glyph-name="ordfeminine" horiz-adv-x="356" d="M150 452Q164 452 178 456T204 471V490H156Q142 490 135 485T127 470Q127 463 132 458T150 452ZM167 702Q229 702 270 666T311 575V362H259L235 388Q219 374 195 364T145 354Q84 354 54
385T24 465Q24 516 59 544T151 572H199Q195 586 185 593T157 601Q136 601 111 595T66 580L39 672Q60 684 99 693T167 702Z" />
<glyph unicode="&#xab;" glyph-name="guillemotleft" horiz-adv-x="392" d="M353 80L194 222V269L353 412L378 319L300 246L378 172L353 80ZM180 80L21 222V269L180 412L206 319L127 246L206 172L180 80Z" />
<glyph unicode="&#xac;" glyph-name="logicalnot" horiz-adv-x="519" d="M501 356V111L372 117V296H23L14 411H489L501 356Z" />
<glyph unicode="&#xad;" glyph-name="softhyphen" horiz-adv-x="131" />
<glyph unicode="&#xae;" glyph-name="registered" horiz-adv-x="745" d="M362 146Q205 146 113 244T21 483Q21 626 113 724T362 823Q520 823 612 725T704 483Q704 342 612 244T362 146ZM362 227Q480 228 547 301T615 484Q615 594 548 667T362 740Q243 740 176
667T109 484Q109 374 176 301T362 227ZM350 594H317V511H351Q380 511 398 520T417 552Q417 579 399 586T350 594ZM421 302L365 435H317V302H221V672H370Q430 672 475 644T520 555Q520 519 502 494T457 455L529 302H421Z" />
<glyph unicode="&#xaf;" glyph-name="overscore" horiz-adv-x="299" d="M14 729H285V613H14V729Z" />
<glyph unicode="&#xb0;" glyph-name="degree" horiz-adv-x="266" d="M258 603Q258 552 220 518T133 484Q82 484 45 518T7 603Q7 652 44 687T133 723Q182 723 220 688T258 603ZM134 637Q120 637 110 627T99 603Q99 589 109 577T134 565Q148 565 158 576T168 600Q168
615 158 626T134 637Z" />
<glyph unicode="&#xb1;" glyph-name="plusminus" horiz-adv-x="476" d="M455 296H302V143L179 149V296H32L21 396H179V544H302V396H445L455 296ZM454 0H31L23 101H448L454 0Z" />
<glyph unicode="&#xb2;" glyph-name="twosuperior" horiz-adv-x="404" d="M348 638Q348 592 325 553T247 468L204 433H348L362 337H34V422L168 534Q198 559 212 582T227 634Q227 648 214 659T179 670Q152 670 122 652T85 628L36 714Q58 732 95 751T186 771Q273
771 310 728T348 638Z" />
<glyph unicode="&#xb3;" glyph-name="threesuperior" horiz-adv-x="426" d="M365 639Q365 607 346 579T305 540Q328 532 351 501T374 427Q374 364 324 322T189 279Q147 279 102 294T19 329L76 415Q107 396 129 388T180 379Q210 379 228 392T246 428Q246 457 227
472T174 488H128L115 584H168Q210 584 224 600T238 634Q238 646 226 657T182 669Q154 669 131 659T87 632L34 717Q71 743 112 757T198 771Q279 771 322 733T365 639Z" />
<glyph unicode="&#xb4;" glyph-name="acute" horiz-adv-x="241" d="M79 764H228L127 589H14L79 764Z" />
<glyph unicode="&#xb5;" glyph-name="mu" horiz-adv-x="588" d="M248 -19Q238 -19 229 -18T212 -15V-209L66 -219V484H212V186Q212 149 232 126T288 103Q311 103 338 114T388 141V484H535V0H460Q450 11 442 22T424 45Q391 18 343 0T248 -19Z" />
<glyph unicode="&#xb6;" glyph-name="paragraph" horiz-adv-x="980" d="M702 0V564H507V0H360V221H336Q223 221 135 277T47 454Q47 576 128 628T324 680H958V564H849V0H702Z" />
<glyph unicode="&#xb7;" glyph-name="middot" horiz-adv-x="179" d="M168 262Q168 229 146 206T90 183Q56 183 33 206T10 262Q10 296 33 319T90 342Q123 342 145 319T168 262Z" />
<glyph unicode="&#xb8;" glyph-name="cedilla" horiz-adv-x="261" d="M92 13H196L178 -32Q210 -44 228 -72T247 -126Q247 -180 207 -207T116 -235Q94 -235 64 -226T14 -202L47 -123Q59 -129 77 -135T109 -141Q121 -141 131 -138T142 -124Q142 -109 119 -98T55 -81L92 13Z" />
<glyph unicode="&#xb9;" glyph-name="onesuperior" horiz-adv-x="387" d="M59 432H148V619L102 596L51 690L190 763H272V432H335Q342 365 343 352T345 337H68L59 432Z" />
<glyph unicode="&#xba;" glyph-name="ordmasculine" horiz-adv-x="393" d="M24 528Q24 608 70 655T195 702Q278 702 323 654T368 526Q368 448 320 401T190 354Q112 354 68 401T24 528ZM197 601Q172 601 158 584T143 528Q143 492 154 473T193 454Q221 454 235 471T249
526Q249 560 238 580T197 601Z" />
<glyph unicode="&#xbb;" glyph-name="guillemotright" horiz-adv-x="392" d="M38 412L197 269V222L38 80L12 173L91 246L12 319L38 412ZM211 412L371 269V222L211 80L186 173L264 246L186 319L211 412Z" />
<glyph unicode="&#xbc;" glyph-name="onequarter" horiz-adv-x="949" d="M59 432H148V619L102 596L51 690L190 763H272V432H335Q342 365 343 352T345 337H68L59 432ZM656 493Q585 370 514 245T371 0H223L506 493H656ZM910 -79H833V-165H707V-79H503L489 19L743
323H833V21H920Q917 -3 915 -28T910 -79ZM625 21H707V119L625 21Z" />
<glyph unicode="&#xbd;" glyph-name="onehalf" horiz-adv-x="970" d="M59 432H148V619L102 596L51 690L190 763H272V432H335Q342 365 343 352T345 337H68L59 432ZM663 493L378 0H229L512 493H663ZM923 191Q923 145 900 107T823 22Q812 12 801 4T780 -14H924Q928
-38 931 -61T937 -109H610V-24Q644 3 677 31T744 87Q774 112 788 135T803 187Q803 201 790 212T755 224Q739 224 707 209T660 182Q648 203 636 224T612 268Q634 285 671 304T761 324Q848 324 885 281T923 191Z" />
<glyph unicode="&#xbe;" glyph-name="threequarters" horiz-adv-x="959" d="M668 494L383 0H232L517 494H668ZM365 639Q365 607 346 579T305 540Q328 532 351 501T374 427Q374 364 324 322T189 279Q147 279 102 294T19 329L76 415Q107 396 129 388T180 379Q210
379 228 392T246 428Q246 457 227 472T174 488H128L115 584H168Q210 584 224 600T238 634Q238 646 226 657T182 669Q154 669 131 659T87 632L34 717Q71 743 112 757T198 771Q279 771 322 733T365 639ZM921 -79H844V-165H718V-79H514L500 19L754 323H844V22H930L921
-79ZM635 22H718V119L635 22Z" />
<glyph unicode="&#xbf;" glyph-name="questiondown" horiz-adv-x="468" d="M205 585Q205 618 228 641T284 664Q318 664 341 641T364 585Q364 551 341 528T284 505Q251 505 228 528T205 585ZM38 146Q38 203 83 257T206 348L222 477L331 438L339 275Q269 253 224
218T179 146Q179 118 200 101T253 84Q283 84 326 97T424 145L443 18Q396 -11 348 -24T249 -37Q148 -37 93 14T38 146Z" />
<glyph unicode="&#xc0;" glyph-name="Agrave" horiz-adv-x="671" d="M203 913H350L414 739H303L203 913ZM333 489L252 269H416L333 489ZM403 680L663 18L517 0L460 151H210L154 0H7L269 680H403Z" />
<glyph unicode="&#xc1;" glyph-name="Aacute" horiz-adv-x="671" d="M319 913H466L366 739H255L319 913ZM333 489L252 269H416L333 489ZM403 680L663 18L517 0L460 151H210L154 0H7L269 680H403Z" />
<glyph unicode="&#xc2;" glyph-name="Acircumflex" horiz-adv-x="671" d="M268 739H127L286 915H369L528 739H392L330 803L268 739ZM333 489L252 269H416L333 489ZM403 680L663 18L517 0L460 151H210L154 0H7L269 680H403Z" />
<glyph unicode="&#xc3;" glyph-name="Atilde" horiz-adv-x="671" d="M257 750H158Q158 825 193 854T272 883Q306 883 330 866T380 849Q390 849 397 858T405 879H499Q499 804 465 775T387 745Q353 745 331 762T283 780Q273 780 265 770T257 750ZM333 489L252 269H416L333
489ZM403 680L663 18L517 0L460 151H210L154 0H7L269 680H403Z" />
<glyph unicode="&#xc4;" glyph-name="Adieresis" horiz-adv-x="671" d="M303 823Q303 794 283 774T233 753Q204 753 183 773T162 823Q162 853 183 873T233 894Q263 894 283 874T303 823ZM501 823Q501 794 481 774T430 753Q402 753 381 773T359 823Q359 853 380
873T430 894Q461 894 481 874T501 823ZM333 489L252 269H416L333 489ZM403 680L663 18L517 0L460 151H210L154 0H7L269 680H403Z" />
<glyph unicode="&#xc5;" glyph-name="Aring" horiz-adv-x="671" d="M445 848Q445 802 411 773T332 744Q286 744 253 773T220 848Q220 893 253 923T332 954Q377 954 411 924T445 848ZM368 848Q368 863 358 873T333 883Q318 883 307 873T296 848Q296 833 307 822T333
811Q348 811 358 822T368 848ZM333 489L252 269H416L333 489ZM403 680L663 18L517 0L460 151H210L154 0H7L269 680H403Z" />
<glyph unicode="&#xc6;" glyph-name="AE" horiz-adv-x="971" d="M3 19L458 680H889L907 564H614V400H805L824 284H614V114H931Q935 86 940 57T950 0H466V149H248Q222 112 196 75T144 0L3 19ZM328 266H466V468L328 266Z" />
<glyph unicode="&#xc7;" glyph-name="Ccedilla" horiz-adv-x="597" d="M364 571Q290 571 247 508T204 338Q204 240 243 175T361 109Q403 109 439 118T504 142L559 32Q529 16 489 5T411 -10L403 -32Q435 -44 453 -72T472 -126Q472 -180 432 -207T341 -235Q319 -235
289 -226T239 -202L272 -123Q284 -129 302 -135T334 -141Q346 -141 356 -138T367 -124Q367 -109 344 -98T280 -81L308 -9Q176 8 114 104T51 337Q51 494 133 594T366 694Q403 694 456 683T553 646L508 543Q461 558 433 564T364 571Z" />
<glyph unicode="&#xc8;" glyph-name="Egrave" horiz-adv-x="583" d="M178 912H325Q341 869 357 825T389 738H278Q253 781 228 825T178 912ZM562 0H79V680H500Q504 651 509 622T519 564H225V400H416L436 284H225V114H542L562 0Z" />
<glyph unicode="&#xc9;" glyph-name="Eacute" horiz-adv-x="583" d="M285 912H433L332 738H221L285 912ZM562 0H79V680H500Q504 651 509 622T519 564H225V400H416L436 284H225V114H542L562 0Z" />
<glyph unicode="&#xca;" glyph-name="Ecircumflex" horiz-adv-x="583" d="M233 739H93L252 914H335L494 739H357Q342 755 327 771T296 803L233 739ZM562 0H79V680H500Q504 651 509 622T519 564H225V400H416L436 284H225V114H542L562 0Z" />
<glyph unicode="&#xcb;" glyph-name="Edieresis" horiz-adv-x="583" d="M268 823Q268 794 248 774T198 753Q169 753 148 773T127 823Q127 853 148 873T198 894Q228 894 248 874T268 823ZM467 823Q467 794 447 774T395 753Q367 753 346 773T324 823Q324 853 345
873T395 894Q426 894 446 874T467 823ZM563 0H79V680H500L519 564H226V401H417L436 285H226V115H543L563 0Z" />
<glyph unicode="&#xcc;" glyph-name="Igrave" horiz-adv-x="305" d="M27 912H175L238 738H127Q102 781 77 825T27 912ZM225 680V0H79V680H225Z" />
<glyph unicode="&#xcd;" glyph-name="Iacute" horiz-adv-x="305" d="M134 912H282Q257 869 232 825T182 738H70Q86 781 102 825T134 912ZM225 680V0H79V680H225Z" />
<glyph unicode="&#xce;" glyph-name="Icircumflex" horiz-adv-x="305" d="M91 739H-48L110 914H193L352 739H215Q200 755 185 771T154 803L91 739ZM225 680V0H79V680H225Z" />
<glyph unicode="&#xcf;" glyph-name="Idieresis" horiz-adv-x="305" d="M121 823Q121 793 101 773T52 753Q22 753 2 773T-19 823Q-19 852 1 873T52 894Q81 894 101 873T121 823ZM320 823Q320 793 300 773T248 753Q220 753 199 773T178 823Q178 852 199 873T248
894Q279 894 299 873T320 823ZM225 680V0H79V680H225Z" />
<glyph unicode="&#xd0;" glyph-name="Eth" horiz-adv-x="716" d="M349 0H86V284H25Q21 312 18 341T12 398H86V680H349Q509 680 587 586T666 344Q666 186 582 93T349 0ZM325 284H233V120H344Q420 120 467 172T515 344Q515 443 475 501T350 559H233V398H313L325 284Z" />
<glyph unicode="&#xd1;" glyph-name="Ntilde" horiz-adv-x="746" d="M301 750H202Q202 825 237 854T316 883Q350 883 374 866T424 848Q434 848 441 858T449 878H543Q543 803 509 774T431 745Q397 745 375 762T327 780Q317 780 309 770T301 750ZM666 680V0H523L225
428V0H79V680H221L519 248V680H666Z" />
<glyph unicode="&#xd2;" glyph-name="Ograve" horiz-adv-x="742" d="M244 913H391L455 739H344L244 913ZM370 695Q532 695 611 593T690 344Q690 186 606 86T370 -14Q210 -14 131 88T51 337Q51 494 135 594T370 695ZM369 109Q447 109 492 167T538 344Q538 443 499
507T372 571Q297 571 251 508T204 338Q204 238 243 174T369 109Z" />
<glyph unicode="&#xd3;" glyph-name="Oacute" horiz-adv-x="742" d="M356 913H504L404 739H292L356 913ZM370 695Q532 695 611 593T690 344Q690 186 606 86T370 -14Q210 -14 131 88T51 337Q51 494 135 594T370 695ZM369 109Q447 109 492 167T538 344Q538 443 499
507T372 571Q297 571 251 508T204 338Q204 238 243 174T369 109Z" />
<glyph unicode="&#xd4;" glyph-name="Ocircumflex" horiz-adv-x="742" d="M308 739H167L327 915H410L569 739H432L371 803L308 739ZM370 695Q532 695 611 593T690 344Q690 186 606 86T370 -14Q210 -14 131 88T51 337Q51 494 135 594T370 695ZM369 109Q447 109
492 167T538 344Q538 443 499 507T372 571Q297 571 251 508T204 338Q204 238 243 174T369 109Z" />
<glyph unicode="&#xd5;" glyph-name="Otilde" horiz-adv-x="742" d="M296 750H197Q197 825 232 854T310 883Q345 883 369 866T418 849Q428 849 436 858T444 879H538Q538 804 504 775T426 745Q392 745 370 762T322 780Q312 780 304 770T296 750ZM370 695Q532 695
611 593T690 344Q690 186 606 86T370 -14Q210 -14 131 88T51 337Q51 494 135 594T370 695ZM369 109Q447 109 492 167T538 344Q538 443 499 507T372 571Q297 571 251 508T204 338Q204 238 243 174T369 109Z" />
<glyph unicode="&#xd6;" glyph-name="Odieresis" horiz-adv-x="742" d="M342 823Q342 794 322 774T272 753Q242 753 221 773T200 823Q200 853 221 873T272 894Q302 894 322 874T342 823ZM540 823Q540 794 520 774T469 753Q441 753 420 773T398 823Q398 853 419
873T469 894Q499 894 519 874T540 823ZM370 695Q532 695 611 593T690 344Q690 186 606 86T370 -14Q210 -14 131 88T51 337Q51 494 135 594T370 695ZM369 109Q447 109 492 167T538 344Q538 443 499 507T372 571Q297 571 251 508T204 338Q204 238 243 174T369 109Z"
/>
<glyph unicode="&#xd7;" glyph-name="multiply" horiz-adv-x="563" d="M20 46Q64 99 107 152T194 258L28 466L163 486L276 344L391 484H542L349 250Q388 199 437 139T525 29H377L268 164L154 24Q120 30 87 35T20 46Z" />
<glyph unicode="&#xd8;" glyph-name="Oslash" horiz-adv-x="742" d="M370 695Q532 695 611 593T690 344Q690 186 606 86T370 -14Q210 -14 131 88T51 337Q51 494 135 594T370 695ZM204 338Q204 290 213 250T239 180L400 569Q393 570 386 570T372 571Q297 571 251
508T204 338ZM369 109Q447 109 492 167T538 344Q538 387 531 424T508 490L347 111Q351 110 358 110T369 109Z" />
<glyph unicode="&#xd9;" glyph-name="Ugrave" horiz-adv-x="719" d="M240 912H387Q403 869 419 825T451 738H340Q315 781 290 825T240 912ZM219 680V260Q219 182 258 146T358 109Q421 109 459 146T498 260V680H645V251Q645 134 567 62T358 -11Q228 -11 150 60T72
251V680H219Z" />
<glyph unicode="&#xda;" glyph-name="Uacute" horiz-adv-x="719" d="M327 912H475Q450 869 425 825T375 738H263Q279 781 295 825T327 912ZM219 680V260Q219 182 258 146T358 109Q421 109 459 146T498 260V680H645V251Q645 134 567 62T358 -11Q228 -11 150 60T72
251V680H219Z" />
<glyph unicode="&#xdb;" glyph-name="Ucircumflex" horiz-adv-x="719" d="M297 739H156L315 914H398L557 739H421L359 803L297 739ZM219 680V260Q219 182 258 146T358 109Q421 109 459 146T498 260V680H645V251Q645 134 567 62T358 -11Q228 -11 150 60T72 251V680H219Z" />
<glyph unicode="&#xdc;" glyph-name="Udieresis" horiz-adv-x="719" d="M330 823Q330 793 310 773T260 753Q231 753 210 773T189 823Q189 852 210 873T260 894Q290 894 310 873T330 823ZM528 823Q528 793 508 773T457 753Q429 753 408 773T386 823Q386 852 407
873T457 894Q488 894 508 873T528 823ZM219 680V260Q219 182 258 146T358 109Q421 109 459 146T498 260V680H645V251Q645 134 567 62T358 -11Q228 -11 150 60T72 251V680H219Z" />
<glyph unicode="&#xdd;" glyph-name="Yacute" horiz-adv-x="626" d="M277 913H425L324 739H213L277 913ZM236 0V266L7 663L159 680L309 409L466 680H619L383 262V0H236Z" />
<glyph unicode="&#xde;" glyph-name="Thorn" horiz-adv-x="626" d="M225 680V571H316Q428 571 508 518T589 345Q589 226 502 171T307 115H225V0H79V680H225ZM311 453H225V234H313Q366 234 399 261T435 340Q435 398 402 425T311 453Z" />
<glyph unicode="&#xdf;" glyph-name="germandbls" horiz-adv-x="645" d="M310 702Q414 702 488 652T563 506Q563 469 543 429T489 369Q535 356 572 308T610 197Q610 107 544 54T368 0H270V121H356Q397 121 427 144T457 204Q457 244 430 269T365 295H276V407H308Q356
407 383 433T411 494Q411 531 385 553T316 576Q274 576 244 547T213 466V0H66V473Q66 575 131 638T310 702Z" />
<glyph unicode="&#xe0;" glyph-name="agrave" horiz-adv-x="514" d="M125 764H274L339 589H226L125 764ZM219 106Q242 106 266 116T312 147V208H228Q199 208 183 191T167 151Q167 133 182 120T219 106ZM251 499Q342 499 400 447T459 313V0H387L355 40Q330 18 294
3T219 -12Q129 -12 86 32T42 149Q42 225 93 264T228 303H311Q309 334 290 352T238 370Q207 370 169 361T103 339L64 455Q95 473 153 486T251 499Z" />
<glyph unicode="&#xe1;" glyph-name="aacute" horiz-adv-x="514" d="M232 764H381L280 589H168L232 764ZM219 106Q242 106 266 116T312 147V208H228Q199 208 183 191T167 151Q167 133 182 120T219 106ZM251 499Q342 499 400 447T459 313V0H387L355 40Q330 18 294
3T219 -12Q129 -12 86 32T42 149Q42 225 93 264T228 303H311Q309 334 290 352T238 370Q207 370 169 361T103 339L64 455Q95 473 153 486T251 499Z" />
<glyph unicode="&#xe2;" glyph-name="acircumflex" horiz-adv-x="514" d="M202 589H61L221 764H303L463 589H326L264 653L202 589ZM219 106Q242 106 266 116T312 147V208H228Q199 208 183 191T167 151Q167 133 182 120T219 106ZM251 499Q342 499 400 447T459 313V0H387L355
40Q330 18 294 3T219 -12Q129 -12 86 32T42 149Q42 225 93 264T228 303H311Q309 334 290 352T238 370Q207 370 169 361T103 339L64 455Q95 473 153 486T251 499Z" />
<glyph unicode="&#xe3;" glyph-name="atilde" horiz-adv-x="514" d="M182 600H82Q82 675 118 704T197 733Q231 733 255 716T304 699Q314 699 322 708T330 729H425Q425 654 390 625T312 595Q277 595 255 612T208 630Q198 630 190 620T182 600ZM219 106Q242 106
266 116T312 147V208H228Q199 208 183 191T167 151Q167 133 182 120T219 106ZM251 499Q342 499 400 447T459 313V0H387L355 40Q330 18 294 3T219 -12Q129 -12 86 32T42 149Q42 225 93 264T228 303H311Q309 334 290 352T238 370Q207 370 169 361T103 339L64 455Q95
473 153 486T251 499Z" />
<glyph unicode="&#xe4;" glyph-name="adieresis" horiz-adv-x="514" d="M232 673Q232 644 212 624T161 603Q132 603 111 623T90 673Q90 703 111 723T161 744Q191 744 211 724T232 673ZM430 673Q430 644 410 624T359 603Q331 603 310 623T288 673Q288 703 309 723T359
744Q390 744 410 724T430 673ZM219 106Q242 106 266 116T312 147V208H228Q199 208 183 191T167 151Q167 133 182 120T219 106ZM251 499Q342 499 400 447T459 313V0H387L355 40Q330 18 294 3T219 -12Q129 -12 86 32T42 149Q42 225 93 264T228 303H311Q309 334 290
352T238 370Q207 370 169 361T103 339L64 455Q95 473 153 486T251 499Z" />
<glyph unicode="&#xe5;" glyph-name="aring" horiz-adv-x="514" d="M371 698Q371 652 337 623T258 594Q212 594 179 623T145 698Q145 743 178 773T258 804Q303 804 337 774T371 698ZM294 698Q294 713 284 723T258 733Q244 733 233 723T222 698Q222 683 233 672T258
661Q274 661 284 672T294 698ZM219 106Q242 106 266 116T312 147V208H228Q199 208 183 191T167 151Q167 133 182 120T219 106ZM251 499Q342 499 400 447T459 313V0H387L355 40Q330 18 294 3T219 -12Q129 -12 86 32T42 149Q42 225 93 264T228 303H311Q309 334 290
352T238 370Q207 370 169 361T103 339L64 455Q95 473 153 486T251 499Z" />
<glyph unicode="&#xe6;" glyph-name="ae" horiz-adv-x="822" d="M42 145Q42 221 93 258T228 296H311Q309 324 293 347T237 370Q206 370 168 361T103 339L64 454Q95 473 152 486T251 499Q294 499 333 484T400 445Q431 470 472 484T561 499Q677 499 732 424T787
245V198H470Q480 156 511 133T593 110Q627 110 655 117T716 141Q726 116 737 90T759 38Q722 10 669 0T585 -11Q519 -11 467 7T379 62Q355 34 312 12T219 -11Q129 -11 86 31T42 145ZM558 376Q524 376 500 355T468 292H646Q639 330 617 353T558 376ZM219 105Q248
105 274 119T323 157Q320 167 318 178T314 202H227Q198 202 182 186T166 148Q166 130 181 118T219 105Z" />
<glyph unicode="&#xe7;" glyph-name="ccedilla" horiz-adv-x="486" d="M300 376Q251 376 221 339T190 242Q190 183 220 148T300 112Q331 112 356 119T415 142L456 38Q431 19 399 8T339 -8L330 -32Q361 -44 379 -72T398 -126Q398 -180 359 -207T268 -235Q245 -235
215 -226T165 -202L198 -123Q210 -129 229 -135T261 -141Q273 -141 282 -138T292 -124Q292 -109 270 -98T207 -81L236 -6Q143 8 91 73T38 242Q38 360 106 429T293 499Q324 499 371 488T456 449L415 345Q381 361 356 368T300 376Z" />
<glyph unicode="&#xe8;" glyph-name="egrave" horiz-adv-x="548" d="M157 764H305L371 589H259L157 764ZM288 499Q402 499 457 424T512 246V198H196Q206 157 237 134T318 111Q351 111 379 118T441 142L484 38Q447 10 394 -1T310 -12Q187 -12 113 54T38 242Q38
360 107 429T288 499ZM284 377Q250 377 226 355T195 293H372Q365 331 343 354T284 377Z" />
<glyph unicode="&#xe9;" glyph-name="eacute" horiz-adv-x="548" d="M267 764H417L315 589H203L267 764ZM288 499Q402 499 457 424T512 246V198H196Q206 157 237 134T318 111Q351 111 379 118T441 142L484 38Q447 10 394 -1T310 -12Q187 -12 113 54T38 242Q38
360 107 429T288 499ZM284 377Q250 377 226 355T195 293H372Q365 331 343 354T284 377Z" />
<glyph unicode="&#xea;" glyph-name="ecircumflex" horiz-adv-x="548" d="M230 589H89L249 764H331L491 589H355L293 653L230 589ZM288 499Q402 499 457 424T512 246V198H196Q206 157 237 134T318 111Q351 111 379 118T441 142L484 38Q447 10 394 -1T310 -12Q187
-12 113 54T38 242Q38 360 107 429T288 499ZM284 377Q250 377 226 355T195 293H372Q365 331 343 354T284 377Z" />
<glyph unicode="&#xeb;" glyph-name="edieresis" horiz-adv-x="548" d="M456 673Q456 644 436 624T385 603Q356 603 335 623T314 673Q314 703 335 723T385 744Q415 744 435 724T456 673ZM258 673Q258 644 238 624T187 603Q159 603 137 623T115 673Q115 703 137
723T187 744Q217 744 237 724T258 673ZM288 499Q402 499 457 424T512 246V198H196Q206 157 237 134T318 111Q351 111 379 118T441 142L484 38Q447 10 394 -1T310 -12Q187 -12 113 54T38 242Q38 360 107 429T288 499ZM284 377Q250 377 226 355T195 293H372Q365 331
343 354T284 377Z" />
<glyph unicode="&#xec;" glyph-name="igrave" horiz-adv-x="271" d="M-1 764H148L211 588H99L-1 764ZM208 485V0H61V485H208Z" />
<glyph unicode="&#xed;" glyph-name="iacute" horiz-adv-x="271" d="M123 764H273L171 588H58L123 764ZM208 485V0H61V485H208Z" />
<glyph unicode="&#xee;" glyph-name="icircumflex" horiz-adv-x="271" d="M76 588H-64L94 764H176L336 588H199Q184 604 169 620T138 652Q122 636 107 620T76 588ZM208 485V0H61V485H208Z" />
<glyph unicode="&#xef;" glyph-name="idieresis" horiz-adv-x="271" d="M107 673Q107 643 87 623T36 603Q8 603 -12 623T-33 673Q-33 702 -13 723T36 744Q66 744 86 723T107 673ZM305 673Q305 643 285 623T234 603Q205 603 184 623T163 673Q163 702 184 723T234
744Q264 744 284 723T305 673ZM208 485V0H61V485H208Z" />
<glyph unicode="&#xf0;" glyph-name="eth" horiz-adv-x="578" d="M420 611L383 582Q447 521 488 439T529 265Q529 127 452 58T259 -12Q157 -12 94 54T31 207Q31 291 95 350T259 409Q285 409 313 399T366 372Q353 409 330 442T278 501L181 426L117 516L183 567Q162
578 141 586T101 598L168 698Q199 692 230 679T292 650L358 702L420 611ZM263 107Q315 107 346 140T387 231Q373 258 342 281T268 305Q221 305 196 274T171 202Q171 167 195 137T263 107Z" />
<glyph unicode="&#xf1;" glyph-name="ntilde" horiz-adv-x="595" d="M230 600H130Q130 675 166 704T245 733Q279 733 303 716T353 699Q363 699 371 708T379 729H473Q473 654 438 625T360 595Q325 595 304 612T256 630Q246 630 238 620T230 600ZM354 503Q454 503
496 446T539 303V0H392V297Q392 337 372 358T315 380Q291 380 262 368T208 339V0H61V485H137L176 436Q208 464 258 483T354 503Z" />
<glyph unicode="&#xf2;" glyph-name="ograve" horiz-adv-x="597" d="M173 764H323L387 589H274L173 764ZM298 499Q418 499 488 430T559 239Q559 121 484 55T291 -12Q175 -12 107 55T38 244Q38 363 110 431T298 499ZM293 112Q344 112 375 142T407 239Q407 301 379
338T300 376Q249 376 220 343T190 245Q190 181 216 147T293 112Z" />
<glyph unicode="&#xf3;" glyph-name="oacute" horiz-adv-x="597" d="M276 764H424L324 589H211L276 764ZM298 499Q418 499 488 430T559 239Q559 121 484 55T291 -12Q175 -12 107 55T38 244Q38 363 110 431T298 499ZM293 112Q344 112 375 142T407 239Q407 301 379
338T300 376Q249 376 220 343T190 245Q190 181 216 147T293 112Z" />
<glyph unicode="&#xf4;" glyph-name="ocircumflex" horiz-adv-x="597" d="M236 589H95L255 764H337L497 589H360L299 653L236 589ZM298 499Q418 499 488 430T559 239Q559 121 484 55T291 -12Q175 -12 107 55T38 244Q38 363 110 431T298 499ZM293 112Q344 112 375
142T407 239Q407 301 379 338T300 376Q249 376 220 343T190 245Q190 181 216 147T293 112Z" />
<glyph unicode="&#xf5;" glyph-name="otilde" horiz-adv-x="597" d="M223 600H123Q123 675 158 704T237 733Q271 733 295 716T344 699Q355 699 362 708T370 729H466Q466 654 431 625T352 595Q318 595 296 612T248 630Q238 630 231 620T223 600ZM298 499Q418 499
488 430T559 239Q559 121 484 55T291 -12Q175 -12 107 55T38 244Q38 363 110 431T298 499ZM293 112Q344 112 375 142T407 239Q407 301 379 338T300 376Q249 376 220 343T190 245Q190 181 216 147T293 112Z" />
<glyph unicode="&#xf6;" glyph-name="odieresis" horiz-adv-x="597" d="M268 673Q268 644 248 624T197 603Q169 603 148 623T127 673Q127 703 148 723T197 744Q227 744 247 724T268 673ZM466 673Q466 644 446 624T395 603Q367 603 346 623T324 673Q324 703 345
723T395 744Q426 744 446 724T466 673ZM298 499Q418 499 488 430T559 239Q559 121 484 55T291 -12Q175 -12 107 55T38 244Q38 363 110 431T298 499ZM293 112Q344 112 375 142T407 239Q407 301 379 338T300 376Q249 376 220 343T190 245Q190 181 216 147T293 112Z"
/>
<glyph unicode="&#xf7;" glyph-name="divide" horiz-adv-x="485" d="M324 444Q324 410 300 387T241 363Q207 363 183 386T159 444Q159 478 183 502T241 526Q275 526 299 502T324 444ZM467 218H27L17 330H457L467 218ZM324 98Q324 64 300 40T241 16Q207 16 183
40T159 98Q159 132 183 156T241 180Q275 180 299 156T324 98Z" />
<glyph unicode="&#xf8;" glyph-name="oslash" horiz-adv-x="597" d="M38 244Q38 362 109 430T297 499Q418 499 488 430T558 239Q558 121 483 55T290 -11Q174 -11 106 55T38 244ZM300 378Q248 378 218 344T187 245Q187 227 189 211T195 182L306 378H300ZM409 239Q409
256 406 272T399 302Q371 253 343 206T287 109Q340 109 374 140T409 239Z" />
<glyph unicode="&#xf9;" glyph-name="ugrave" horiz-adv-x="588" d="M161 764H310L375 589H263L161 764ZM238 -19Q138 -19 97 39T55 181V485H203V187Q203 147 222 126T278 104Q301 104 328 115T379 142V485H526V0H450L413 46Q381 19 333 0T238 -19Z" />
<glyph unicode="&#xfa;" glyph-name="uacute" horiz-adv-x="588" d="M272 764H422L320 589H208L272 764ZM238 -19Q138 -19 97 39T55 181V485H203V187Q203 147 222 126T278 104Q301 104 328 115T379 142V485H526V0H450L413 46Q381 19 333 0T238 -19Z" />
<glyph unicode="&#xfb;" glyph-name="ucircumflex" horiz-adv-x="588" d="M233 589H92L252 764H334L494 589H357L296 653L233 589ZM238 -19Q138 -19 97 39T55 181V485H203V187Q203 147 222 126T278 104Q301 104 328 115T379 142V485H526V0H450L413 46Q381 19 333
0T238 -19Z" />
<glyph unicode="&#xfc;" glyph-name="udieresis" horiz-adv-x="588" d="M463 673Q463 644 443 624T393 603Q364 603 343 623T322 673Q322 703 343 723T393 744Q423 744 443 724T463 673ZM265 673Q265 644 245 624T195 603Q166 603 145 623T123 673Q123 703 144
723T195 744Q225 744 245 724T265 673ZM238 -19Q138 -19 97 39T55 181V485H203V187Q203 147 222 126T278 104Q301 104 328 115T379 142V485H526V0H450L413 46Q381 19 333 0T238 -19Z" />
<glyph unicode="&#xfd;" glyph-name="yacute" horiz-adv-x="523" d="M233 764H383L281 588H168L233 764ZM166 -16L183 25L7 467L155 485Q182 413 209 341T262 197L364 485H516L300 -61Q276 -120 217 -162T91 -221L40 -102Q76 -88 115 -67T166 -16Z" />
<glyph unicode="&#xfe;" glyph-name="thorn" horiz-adv-x="591" d="M401 246Q401 298 377 339T289 380Q269 380 249 373T212 356V140Q230 127 252 119T294 111Q353 111 377 155T401 246ZM212 699V472Q240 487 270 495T327 503Q438 503 495 430T552 247Q552 137
495 63T324 -11Q299 -11 269 -3T212 18V-209L66 -219V690L212 699Z" />
<glyph unicode="&#xff;" glyph-name="ydieresis" horiz-adv-x="523" d="M432 673Q432 643 412 623T362 603Q333 603 312 623T291 673Q291 702 312 723T362 744Q392 744 412 723T432 673ZM235 673Q235 643 214 623T163 603Q135 603 114 623T92 673Q92 702 113 723T163
744Q193 744 214 723T235 673ZM166 -16L183 25L7 467L155 485Q182 413 209 341T262 197L364 485H516L300 -61Q276 -120 217 -162T91 -221L40 -102Q76 -88 115 -67T166 -16Z" />
<glyph unicode="&#x2013;" glyph-name="endash" horiz-adv-x="421" d="M404 216H28L17 332H394L404 216Z" />
<glyph unicode="&#x2014;" glyph-name="emdash" horiz-adv-x="531" d="M514 216H28L17 332H505L514 216Z" />
<glyph unicode="&#x2018;" glyph-name="quoteleft" horiz-adv-x="188" d="M10 538Q10 595 50 654T150 742L182 675Q160 658 143 641T119 596Q136 592 153 571T170 522Q170 494 148 468T91 442Q57 442 34 469T10 538Z" />
<glyph unicode="&#x2019;" glyph-name="quoteright" horiz-adv-x="188" d="M178 647Q178 590 138 531T38 442L7 510Q29 527 46 545T69 589Q52 593 35 614T18 662Q18 690 40 716T97 742Q131 742 154 716T178 647Z" />
<glyph unicode="&#x201a;" glyph-name="quotesinglbase" horiz-adv-x="188" d="M178 51Q178 -6 138 -65T38 -154L7 -86Q29 -69 46 -51T69 -8Q52 -4 35 18T18 66Q18 95 40 120T97 146Q131 146 154 120T178 51Z" />
<glyph unicode="&#x201c;" glyph-name="quotedblleft" horiz-adv-x="381" d="M10 538Q10 595 50 654T150 742L182 675Q160 658 143 641T119 596Q136 592 153 571T170 522Q170 494 148 468T91 442Q57 442 34 469T10 538ZM203 538Q203 595 243 654T343 742L375 675Q353
658 336 641T312 596Q329 592 346 571T364 522Q364 494 341 468T284 442Q251 442 227 469T203 538Z" />
<glyph unicode="&#x201d;" glyph-name="quotedblright" horiz-adv-x="381" d="M371 647Q371 590 331 531T231 442L200 510Q222 527 239 545T263 589Q245 593 228 614T211 662Q211 690 234 716T291 742Q324 742 347 716T371 647ZM178 647Q178 590 138 531T38 442L7
510Q29 527 46 545T69 589Q52 593 35 614T18 662Q18 690 40 716T97 742Q131 742 154 716T178 647Z" />
<glyph unicode="&#x201e;" glyph-name="quotedblbase" horiz-adv-x="381" d="M371 51Q371 -6 331 -65T231 -154L200 -86Q222 -69 239 -51T263 -8Q245 -4 228 18T211 66Q211 95 234 120T291 146Q324 146 347 120T371 51ZM178 51Q178 -6 138 -65T38 -154L7 -86Q29
-69 46 -51T69 -8Q52 -4 35 18T18 66Q18 95 40 120T97 146Q131 146 154 120T178 51Z" />
<glyph unicode="&#x2022;" glyph-name="bullet" horiz-adv-x="289" d="M31 330Q31 376 64 410T144 444Q191 444 224 410T258 330Q258 283 225 251T144 218Q97 218 64 250T31 330Z" />
<glyph unicode="&#x2039;" glyph-name="guilsinglleft" horiz-adv-x="231" d="M190 75L21 220V274L190 421L216 314L140 247L216 181L190 75Z" />
<glyph unicode="&#x203a;" glyph-name="guilsinglright" horiz-adv-x="231" d="M42 421L211 274V221L42 75L16 181L90 247L16 314L42 421Z" />
</font>
</defs>
</svg>
