<?xml version="1.0" standalone="no"?>
<!DOCTYPE svg PUBLIC "-//W3C//DTD SVG 1.1//EN" "http://www.w3.org/Graphics/SVG/1.1/DTD/svg11.dtd">
<svg xmlns="http://www.w3.org/2000/svg">
<defs >
<font id="Ranga" horiz-adv-x="961" ><font-face
    font-family="Ranga"
    units-per-em="2218"
    panose-1="0 0 0 0 0 0 0 0 0 0"
    ascent="2218"
    descent="-1027"
    alphabetic="0" />
<glyph unicode=" " glyph-name="space" horiz-adv-x="409" />
<glyph unicode="!" glyph-name="exclam" horiz-adv-x="540" d="M121 442Q121 442 346 1456Q358 1501 408 1501H643Q699 1501 688 1454L340 440Q328 395 279 395H166Q110 395 121 442ZM-2 98Q-2 154 38 193T141 233H168Q216 233 257 192T299 98Q299 41 257 2T152
-37H127Q75 -37 37 3T-2 98Z" />
<glyph unicode="&quot;" glyph-name="quotedbl" horiz-adv-x="942" d="M852 1612Q852 1540 835 1469T787 1333T736 1237T686 1159Q668 1130 635 1101T573 1071Q522 1071 522 1114Q522 1167 549 1242T583 1358Q604 1509 604 1616Q604 1657 655 1657H803Q827 1661
839 1649T852 1612ZM545 1612Q545 1540 528 1469T480 1333T429 1237T379 1159Q361 1130 328 1101T266 1071Q215 1071 215 1114Q215 1167 242 1242T276 1358Q297 1509 297 1616Q297 1657 348 1657H496Q520 1661 532 1649T545 1612Z" />
<glyph unicode="#" glyph-name="numbersign" horiz-adv-x="1652" d="M147 653Q147 653 420 653L485 905H246Q215 905 206 922T207 979L240 1108Q246 1135 252 1142T272 1149H547L639 1509Q651 1554 700 1554H870Q926 1554 915 1507L824 1149H1100L1192 1509Q1204
1554 1253 1554H1423Q1479 1554 1468 1507L1377 1149H1569Q1631 1149 1616 1083L1589 963Q1584 940 1564 923T1520 905H1315L1251 653H1444Q1505 653 1491 588L1464 467Q1460 444 1439 427T1395 410H1189L1096 45Q1084 0 1034 0H877Q844 0 831 19T823 66L911 410H636L543
45Q531 0 481 0H324Q291 0 278 19T270 66L358 410H121Q90 410 81 426T82 483L115 612Q121 639 127 646T147 653ZM762 905L698 653H973L1038 905H762Z" />
<glyph unicode="$" glyph-name="dollar" horiz-adv-x="968" d="M127 -82Q95 -82 83 -64T76 -18L103 81Q-25 150 -25 401Q-25 451 18 485L168 569Q199 584 218 575T238 541Q238 539 238 537T238 533T238 528Q230 262 270 262Q310 267 355 335T401 469Q401 481 401
503T402 536T401 565T396 592T385 615T366 634T338 647T299 657Q222 668 173 711T123 827Q123 987 211 1148T431 1379L469 1520Q481 1563 528 1563H676Q731 1563 719 1518L688 1400Q866 1336 825 1042Q822 1023 812 1011T780 981L610 926Q585 923 574 931T565 969Q565
980 566 1004T568 1044T569 1082T566 1120T558 1151T544 1174T520 1184Q493 1171 458 1095T422 954Q422 861 518 846Q561 838 589 826T645 787T686 711T700 590Q700 433 599 285T355 79L324 -39Q312 -82 264 -82H127Z" />
<glyph unicode="%" glyph-name="percent" horiz-adv-x="1710" d="M600 1010Q639 1010 672 1045T725 1133T756 1236T770 1327Q770 1405 715 1405Q671 1405 632 1344T574 1212T555 1090Q555 1047 563 1029T600 1010ZM348 1108Q348 1185 374 1264T448 1412T572 1524T739
1567Q801 1567 850 1545T924 1483Q962 1420 962 1309Q962 1257 947 1196T900 1074T826 962T723 880T596 848Q486 848 426 905Q348 978 348 1108ZM1118 144Q1157 144 1190 179T1243 267T1274 370T1288 461Q1288 539 1233 539Q1189 539 1150 478T1092 346T1073 224Q1073
181 1081 163T1118 144ZM866 242Q866 319 892 398T966 546T1090 658T1257 701Q1319 701 1368 679T1442 617Q1480 554 1480 443Q1480 391 1465 330T1418 208T1344 96T1241 14T1114 -18Q1004 -18 944 39Q866 112 866 242ZM127 -55Q127 -55 -70 -53Q-96 -53 -103 -26T-92
20L1399 1518Q1446 1565 1497 1565Q1497 1565 1696 1565Q1722 1565 1728 1538T1716 1491L213 -18Q189 -42 172 -48T127 -55Z" />
<glyph unicode="&amp;" glyph-name="ampersand" horiz-adv-x="1267" d="M834 885Q834 885 1210 885Q1224 885 1230 877T1229 840L1200 745Q1194 726 1191 717T1179 698T1157 688H1058Q1033 601 994 513T920 369Q906 346 864 284Q983 109 1096 -25Q1110 -39 1105
-60T1069 -90Q1037 -99 998 -106T894 -113T784 -90Q729 -31 656 66Q497 -45 309 -20Q162 2 89 96T37 336Q46 401 71 456T135 554T214 626T304 686Q270 774 258 839T256 975Q272 1087 343 1185T532 1340T780 1378Q816 1374 809 1331L782 1249Q771 1216 733 1208Q672
1208 605 1143T537 981T604 717Q635 641 735 481Q793 584 822 688H795Q783 688 776 690T765 694T761 702T761 712T765 727T770 745L803 860Q810 885 834 885ZM399 476Q313 403 313 309Q313 265 336 230T414 195Q466 195 534 245Q451 377 399 476Z" />
<glyph unicode="&apos;" glyph-name="quotesingle" horiz-adv-x="395" d="M545 1612Q545 1540 528 1469T480 1333T429 1237T379 1159Q361 1130 328 1101T266 1071Q215 1071 215 1114Q215 1167 242 1242T276 1358Q297 1509 297 1616Q297 1657 348 1657H496Q520
1661 532 1649T545 1612Z" />
<glyph unicode="(" glyph-name="parenleft" horiz-adv-x="845" d="M166 369Q166 520 199 673T290 962T425 1226T591 1462T776 1661Q820 1703 872 1698L1016 1681Q1038 1678 1040 1653T1028 1616Q900 1499 791 1358T599 1059T468 729T420 389Q420 205 458 33T563
-238Q573 -256 565 -272T537 -299L365 -342Q327 -363 307 -322Q231 -181 199 -14T166 369Z" />
<glyph unicode=")" glyph-name="parenright" horiz-adv-x="919" d="M719 975Q719 788 670 599T534 245T342 -60T113 -317Q69 -359 16 -354L-127 -340Q-149 -337 -151 -312T-139 -274Q127 -32 296 297T465 954Q465 1138 427 1310T322 1581Q312 1599 320 1615T348
1642L520 1686Q558 1707 578 1665Q655 1524 687 1357T719 975Z" />
<glyph unicode="*" glyph-name="asterisk" horiz-adv-x="890" d="M350 1090L131 1106Q108 1107 98 1129T96 1178L129 1294Q134 1315 152 1328T190 1333L416 1233L426 1468Q427 1493 449 1506T502 1520H610Q638 1520 657 1502T662 1452L563 1231L819 1327Q849 1337
869 1320T889 1270V1184Q889 1123 838 1118L565 1085L715 872Q728 855 723 834T696 799L592 735Q571 721 549 726T518 760L449 999L279 770Q259 743 234 742T197 760L125 840Q89 885 131 920L350 1090Z" />
<glyph unicode="+" glyph-name="plus" horiz-adv-x="966" d="M721 995Q721 995 665 780H909Q970 780 956 715L930 594Q926 571 905 554T860 537H601L537 289Q525 244 475 244H322Q265 244 276 291Q276 291 341 537H113Q82 537 73 553T74 610L100 721Q107 754 122
767T168 780H404L461 997Q473 1042 522 1042H676Q732 1042 721 995Z" />
<glyph unicode="," glyph-name="comma" horiz-adv-x="464" d="M289 219Q289 147 267 67T208 -80T143 -193T86 -274Q15 -362 -27 -362Q-72 -362 -72 -319Q-72 -264 -47 -165T-16 -33Q4 111 4 184Q4 198 12 206T28 216T55 223L240 262Q289 271 289 219Z" />
<glyph unicode="-" glyph-name="hyphen" horiz-adv-x="958" d="M176 780Q176 780 813 780Q874 780 860 715L834 594Q830 571 809 554T764 537Q764 537 150 537Q119 537 110 553T111 610L143 739Q149 765 155 772T176 780Z" />
<glyph unicode="." glyph-name="period" horiz-adv-x="477" d="M61 98Q61 154 102 193T205 233H231Q279 233 320 192T362 98Q362 41 320 2T215 -37H190Q138 -37 100 3T61 98Z" />
<glyph unicode="/" glyph-name="slash" horiz-adv-x="962" d="M879 1556Q879 1556 1053 1556Q1079 1556 1092 1536T1094 1493L326 45Q304 0 264 0H90Q64 0 51 20T49 63L817 1511Q839 1556 879 1556Z" />
<glyph unicode="0" glyph-name="zero" horiz-adv-x="899" d="M344 246Q400 231 466 334T590 662Q621 788 633 890T636 1060T590 1139Q522 1158 459 1054T338 729Q287 540 288 399T344 246ZM55 791Q106 993 196 1144T412 1370T678 1411Q859 1365 904 1160T854 590Q829
496 798 414T726 257T638 128T533 35T410 -13T270 -6Q174 18 112 91T27 271T10 510T55 791Z" />
<glyph unicode="1" glyph-name="one" horiz-adv-x="643" d="M636 1388L641 1393Q664 1394 676 1374T682 1329L350 45Q338 0 289 0H115Q90 0 79 18T74 63L314 994L283 956Q247 911 199 911Q199 911 70 911Q48 911 34 927T24 972T61 1032L326 1278Q334 1285 354
1305T384 1333T410 1355T438 1376T462 1387T487 1393H639L636 1388Z" />
<glyph unicode="2" glyph-name="two" horiz-adv-x="862" d="M301 242L688 258Q749 258 735 193L702 57Q698 34 677 17T633 0H27Q-7 0 -33 25T-60 91T-23 180L532 823Q560 858 586 905Q649 1025 646 1121Q644 1217 565 1217Q513 1217 471 1150T428 997Q428 992
424 983T407 961T373 946L188 918Q168 915 157 923T144 942T141 971Q141 1155 275 1287T604 1419Q686 1419 750 1390T854 1311T910 1192T915 1046T862 880T748 709L301 242Z" />
<glyph unicode="3" glyph-name="three" horiz-adv-x="884" d="M689 719Q780 660 780 471Q780 344 717 230T543 44T303 -29Q219 -29 159 0T66 81T19 190T4 317Q4 369 45 389L229 475Q257 487 275 479T293 449Q293 444 289 403T284 329T286 257T305 195T348 172Q431
172 477 377Q522 582 367 582Q305 582 311 633L326 752Q332 803 387 803Q465 801 527 857T602 1014Q604 1051 602 1093T580 1170T524 1210Q491 1213 459 1143T426 989Q426 984 422 975T405 953T371 938L178 909Q158 906 147 914T134 934T131 963Q131 1084 186 1186T343
1349T573 1411Q657 1411 719 1385T817 1311T870 1207T887 1081Q887 977 832 879T689 719Z" />
<glyph unicode="4" glyph-name="four" horiz-adv-x="964" d="M848 301Q848 301 755 301L690 45Q678 0 629 0H455Q430 0 419 18T414 63L473 301H76Q13 301 -14 334T-35 414T6 510L584 1366Q592 1376 596 1380T613 1389T645 1393Q645 1393 846 1393Q880 1393 886
1370T870 1317L312 525H530L588 756Q600 801 649 801H823Q848 801 859 782T864 737L811 526H911Q972 526 958 465L918 360Q900 301 848 301Z" />
<glyph unicode="5" glyph-name="five" horiz-adv-x="878" d="M489 1156L430 921Q490 938 551 938Q616 938 664 919T739 864T781 788T797 696T795 602T782 514Q730 254 589 108T274 -23Q197 -30 137 -6T45 63T3 166T14 286T82 403Q90 412 94 415T111 423T137 422L260
397Q288 392 296 383T295 346Q267 264 273 218T311 166Q327 164 363 201T443 310T510 459Q531 529 540 589T542 691T510 739Q460 735 406 687T315 573Q299 547 272 557L127 614Q106 622 101 633T102 674L272 1350Q283 1393 334 1393H946Q977 1393 986 1376T985
1319L952 1188Q946 1161 939 1154T911 1147L489 1156Z" />
<glyph unicode="6" glyph-name="six" horiz-adv-x="946" d="M511 957Q577 957 645 952Q788 938 848 847T897 606Q890 523 864 436T791 265T683 114T538 8T360 -33Q222 -33 136 62T40 341T131 793Q177 912 246 1015T389 1189T539 1309T679 1383T788 1407L999 1384Q1018
1382 1028 1356T1030 1301T989 1268Q859 1248 734 1174T511 957ZM407 754Q397 730 393 717Q355 608 334 514T309 356T312 247T336 181T373 160Q415 160 455 208T521 324T564 452T584 547Q598 686 584 732T506 778Q458 778 407 754Z" />
<glyph unicode="7" glyph-name="seven" horiz-adv-x="927" d="M986 1281L987 1280L371 43Q349 -3 293 2L127 8Q90 9 78 32T82 84L676 1146L164 1141Q133 1141 124 1157T125 1214L162 1352Q168 1379 175 1386T203 1393H934Q970 1393 990 1361T987 1282L986 1281Z" />
<glyph unicode="8" glyph-name="eight" horiz-adv-x="929" d="M528 856Q582 871 629 921T680 1022Q683 1060 682 1093T658 1150T594 1180Q538 1188 496 1138T453 1004Q457 914 528 856ZM484 583Q410 539 356 468T301 336Q301 197 387 197Q453 197 496 277T539
451Q539 544 484 583ZM269 687Q218 736 191 808T164 950Q164 1034 198 1118T292 1270T439 1380T627 1423Q769 1423 862 1338T956 1104Q956 1076 952 1048T941 998T923 950T902 908T875 869T848 835T819 803T792 776T765 752T742 731Q842 647 842 457Q842 391 820
323T755 192T653 81T518 2T356 -27Q206 -27 116 57T25 287Q25 358 45 419T104 530T179 613T269 687Z" />
<glyph unicode="9" glyph-name="nine" horiz-adv-x="960" d="M544 486Q483 471 397 471Q331 471 279 502T197 583T151 689T135 801Q135 906 171 1013T270 1211T430 1358T639 1415Q693 1415 739 1399T824 1349T890 1264T929 1142T939 982T912 781T842 539Q795 406
737 303T620 138T497 36T376 -18T262 -33Q203 -33 158 -16T86 30T42 98T19 178T12 264Q12 316 53 336L238 422Q266 433 283 425T301 395Q301 393 297 323T297 216T324 180Q370 180 426 250Q467 303 491 350T544 486ZM598 675Q629 798 647 893T669 1049T669 1147T652
1201T623 1217Q579 1217 532 1154T453 998T418 825Q415 755 442 705T514 655Q565 655 598 675Z" />
<glyph unicode=":" glyph-name="colon" horiz-adv-x="749" d="M266 979Q266 1035 307 1074T410 1114H436Q484 1114 525 1073T567 979Q567 922 525 883T420 844H395Q343 844 305 884T266 979ZM61 98Q61 154 102 193T205 233H231Q279 233 320 192T362 98Q362 41
320 2T215 -37H190Q138 -37 100 3T61 98Z" />
<glyph unicode=";" glyph-name="semicolon" horiz-adv-x="552" d="M266 979Q266 1035 307 1074T410 1114H436Q484 1114 525 1073T567 979Q567 922 525 883T420 844H395Q343 844 305 884T266 979ZM289 219Q289 147 267 67T208 -80T143 -193T86 -274Q15 -362 -27
-362Q-72 -362 -72 -319Q-72 -264 -47 -165T-16 -33Q4 111 4 184Q4 198 12 206T28 216T55 223L240 262Q289 271 289 219Z" />
<glyph unicode="&lt;" glyph-name="less" horiz-adv-x="1028" d="M329 623L811 444Q835 437 845 416T850 369L823 250Q817 218 803 211T760 217L68 508Q43 518 32 540T27 588L47 684Q52 709 71 730T117 758L936 1038Q974 1051 986 1034T991 983L967 868Q961 843
942 823T897 795L329 623Z" />
<glyph unicode="=" glyph-name="equal" horiz-adv-x="1019" d="M823 344Q823 344 76 344Q45 344 36 361T37 418L63 528Q70 561 85 574T131 588H872Q935 588 920 522L893 401Q889 378 868 361T823 344ZM926 756H178Q147 756 138 772T139 829L166 940Q173 973 188
986T233 999H975Q1036 999 1022 934L995 813Q991 790 970 773T926 756Z" />
<glyph unicode="&gt;" glyph-name="greater" horiz-adv-x="1028" d="M691 637L209 815Q185 822 175 843T170 891L197 1008Q203 1040 217 1046T260 1040L952 750Q977 740 988 718T993 670L973 573Q969 548 949 528T903 500L84 219Q46 206 34 223T29 274L53 391Q59
416 78 437T123 465L691 637Z" />
<glyph unicode="?" glyph-name="question" horiz-adv-x="749" d="M322 369Q322 340 307 333T260 328L166 338Q72 347 156 586Q190 680 249 737T383 803Q480 815 524 938Q539 981 554 1086T569 1245Q569 1269 551 1274Q536 1271 512 1251Q463 1210 412 1159Q377
1124 340 1149L238 1206Q221 1217 219 1239T225 1272Q267 1341 365 1420T504 1505Q563 1513 662 1459T780 1354Q804 1289 805 1202T789 1033T751 885T711 774Q681 706 622 655T496 584Q465 576 419 558T362 535Q346 493 334 442T322 369ZM8 98Q8 154 49 193T152
233H178Q226 233 267 192T309 98Q309 41 267 2T162 -37H137Q85 -37 47 3T8 98Z" />
<glyph unicode="@" glyph-name="at" horiz-adv-x="1933" d="M1092 730Q1062 754 1030 762T971 754Q923 718 863 584T803 350Q803 260 850 260T989 428Q1047 532 1092 730ZM1143 964Q1144 967 1145 972T1147 979Q1151 996 1155 1005T1170 1023T1198 1032L1315 1034Q1384
1034 1370 969L1202 346Q1190 295 1202 271T1243 246Q1268 246 1293 254T1352 286T1414 348T1472 451T1522 602Q1546 712 1546 809T1513 987T1421 1126T1268 1217T1053 1249Q825 1249 652 1091T408 672Q391 606 383 535T378 382T400 226T459 79T560 -45T714 -132T926
-172Q954 -173 974 -178T1007 -195T1016 -226T987 -274L940 -326Q917 -350 895 -356T823 -362Q681 -362 561 -316T358 -192T217 -7T135 219T114 467T154 719Q206 892 300 1029T513 1254T769 1388T1051 1434Q1218 1434 1353 1392T1580 1273T1725 1087T1784 845T1753
555Q1721 426 1661 321T1530 150T1382 49T1235 14Q1147 14 1094 42T1005 135Q971 87 917 54T801 20Q749 20 695 52T614 143Q549 289 581 459T689 771T842 973Q906 1024 983 1024Q1043 1024 1143 964Z" />
<glyph unicode="A" glyph-name="A" horiz-adv-x="1044" d="M318 399L141 39Q120 -5 63 -2L-96 4Q-133 5 -145 28T-141 80L543 1397Q564 1437 594 1458T655 1479L891 1481Q929 1481 951 1456T971 1382L895 45Q892 0 834 0H668Q618 0 621 55L643 399H318ZM437 643H660L695
1169L437 643Z" />
<glyph unicode="B" glyph-name="B" horiz-adv-x="1036" d="M462 869L500 866Q678 861 723 1098Q736 1171 715 1207T629 1243H557L462 869ZM276 1243H223Q196 1243 176 1259T162 1296L201 1442Q205 1460 220 1471T248 1483H387H561H651Q837 1483 940 1406T1044
1186Q1044 1108 1022 1026T963 885Q902 788 801 749Q850 715 866 652T872 481Q861 386 810 280T684 111Q664 93 643 79T604 53T560 34T520 20T475 10T432 4T383 1T337 0T284 0T231 0H190H137H16Q-9 0 -20 18T-25 63L276 1243ZM305 254L352 256Q443 261 502 302T596
449Q639 585 580 633Q551 657 408 659L305 254Z" />
<glyph unicode="C" glyph-name="C" horiz-adv-x="890" d="M950 1104Q957 1055 909 1038L729 985Q706 979 686 993T664 1032Q658 1102 649 1139T621 1225Q609 1229 596 1229Q470 1229 350 770Q297 569 295 410T348 233Q369 240 387 253T418 279T449 323T478 374T516
446Q537 485 552 493T600 489L768 416Q788 409 789 384T774 334Q694 206 630 135T483 24T295 -16Q233 -16 164 27Q71 84 32 210T2 492T59 836Q106 1026 185 1174T376 1410T612 1499Q659 1499 721 1483Q821 1459 873 1371T950 1104Z" />
<glyph unicode="D" glyph-name="D" horiz-adv-x="946" d="M553 1230Q553 1230 305 258Q323 256 377 256Q518 256 631 698Q681 894 676 1049T614 1221Q598 1227 553 1230ZM269 1219Q236 1215 207 1209T166 1202Q141 1202 131 1219T123 1260L143 1421Q148 1451 190
1462Q191 1462 215 1467T253 1474T301 1482T366 1490T443 1495T539 1497Q635 1497 709 1474T833 1411T913 1315T958 1196T971 1059Q971 876 905 625Q877 518 841 427T752 254T639 115T498 25T328 -8Q112 -8 37 6Q-2 14 -15 37T-16 106L269 1219Z" />
<glyph unicode="E" glyph-name="E" horiz-adv-x="927" d="M647 0Q647 0 193 0H72H18Q-7 0 -18 18T-23 63L277 1239H203Q172 1239 163 1256T164 1313L197 1442Q203 1469 210 1476T238 1483H389H563H997Q1059 1483 1044 1417L1018 1296Q1014 1273 993 1256T948 1239H558L478
926H827Q885 926 870 860L844 739Q840 716 820 699T778 682H416L305 244H696Q754 244 739 178L713 57Q709 34 689 17T647 0Z" />
<glyph unicode="F" glyph-name="F" horiz-adv-x="884" d="M752 580Q752 580 388 580L252 45Q240 0 190 0H16Q-9 0 -20 18T-25 63L275 1239H203Q172 1239 163 1256T164 1313L197 1442Q203 1469 210 1476T238 1483Q238 1483 387 1483H561H997Q1059 1483 1044 1417L1018
1296Q1014 1273 993 1256T948 1239H556L450 823H801Q858 823 844 758L817 637Q813 614 794 597T752 580Z" />
<glyph unicode="G" glyph-name="G" horiz-adv-x="921" d="M449 715Q449 715 889 715Q922 715 907 670L874 555Q861 512 848 503Q846 495 840 477Q768 252 645 120T358 -12Q244 -12 166 33Q78 86 40 190T2 453Q2 613 59 836Q106 1026 185 1174T376 1410T612 1499Q732
1499 815 1446Q889 1400 921 1311T954 1081Q954 1031 913 1016L682 946Q662 940 654 948T647 979Q647 990 648 1012Q655 1188 610 1200Q541 1220 476 1111T350 770Q297 572 299 424T356 262Q405 249 463 312T558 498H406Q366 498 381 555L418 690Q422 705 428 710T449
715Z" />
<glyph unicode="H" glyph-name="H" horiz-adv-x="1226" d="M334 1438Q346 1483 395 1483H569Q594 1483 605 1464T610 1419L485 926H877L1008 1438Q1020 1483 1069 1483H1243Q1268 1483 1279 1464T1284 1419L934 45Q922 0 872 0H698Q673 0 662 18T657 63L815 682H422L260
45Q248 0 199 0H25Q0 0 -11 18T-16 63L334 1438Z" />
<glyph unicode="I" glyph-name="I" horiz-adv-x="565" d="M326 1438Q338 1483 387 1483H561Q586 1483 597 1464T602 1419L252 45Q240 0 190 0H16Q-9 0 -20 18T-25 63L326 1438Z" />
<glyph unicode="J" glyph-name="J" horiz-adv-x="626" d="M446 1483Q446 1483 623 1483Q648 1483 659 1465T664 1421L313 45Q292 -34 251 -102T165 -215T68 -294T-23 -347T-96 -375Q-143 -388 -160 -358L-215 -244Q-240 -192 -199 -176Q-119 -145 -52 -77T41 84L387
1438Q399 1483 446 1483Z" />
<glyph unicode="K" glyph-name="K" horiz-adv-x="1019" d="M326 1438Q338 1483 387 1483H561Q586 1483 597 1464T602 1419L466 885L879 1456Q887 1466 891 1470T908 1479T940 1483H1141Q1176 1483 1182 1459T1165 1407Q1165 1407 669 754L840 61Q859 0 793 0H631Q569
0 555 51L410 666L252 45Q240 0 190 0H16Q-9 0 -20 18T-25 63L326 1438Z" />
<glyph unicode="L" glyph-name="L" horiz-adv-x="831" d="M645 0Q645 0 190 0H31H16Q-9 0 -20 18T-25 63L326 1438Q338 1483 387 1483H561Q586 1483 597 1464T602 1419L303 244H696Q758 244 743 178L715 57Q711 34 690 17T645 0Z" />
<glyph unicode="M" glyph-name="M" horiz-adv-x="1314" d="M326 1438Q338 1483 387 1483H446H561H584Q608 1483 619 1472T633 1436Q671 1031 657 726L1073 1444Q1086 1466 1100 1474T1135 1483H1157H1245H1331Q1356 1483 1367 1464T1372 1419L1022 45Q1010 0 961
0H786Q761 0 750 18T745 63L904 687Q817 545 770 465Q714 371 639 371L504 385Q433 393 438 467Q448 617 442 790L252 45Q240 0 190 0H16Q-9 0 -20 18T-25 63L326 1438Z" />
<glyph unicode="N" glyph-name="N" horiz-adv-x="1218" d="M326 1438Q338 1483 387 1483H401H528H561Q583 1483 594 1469Q600 1465 604 1459T609 1447T613 1433T616 1419L795 635L999 1438Q1011 1483 1061 1483H1235Q1260 1483 1271 1464T1276 1419L926 45Q914
0 864 0H858H690H684Q662 0 654 19Q647 31 647 45Q645 57 643 63L461 865L252 45Q240 0 190 0H16Q-9 0 -20 18T-25 63L326 1438Z" />
<glyph unicode="O" glyph-name="O" horiz-adv-x="921" d="M350 770Q308 608 295 486T297 299T358 233Q392 233 420 255T483 336Q547 448 610 698Q640 820 656 915T675 1081T663 1189T614 1227Q572 1227 544 1210T483 1139Q418 1033 350 770ZM59 836Q108 1026 187
1173T378 1410T614 1499Q662 1499 719 1486T817 1448Q891 1404 922 1316T954 1083Q954 898 885 625Q851 492 804 381T692 181T542 41T360 -10Q241 -10 168 31Q79 81 42 185T4 451Q4 623 59 836Z" />
<glyph unicode="P" glyph-name="P" horiz-adv-x="962" d="M447 810L522 815Q642 822 688 926Q706 967 721 1050T737 1176Q737 1206 718 1222T676 1239Q667 1239 651 1239T606 1240T557 1241L447 810ZM276 1243H207Q182 1243 170 1260T164 1300L201 1442Q205 1460
220 1471T248 1483H387H561H684Q823 1483 909 1417T995 1217Q995 1089 943 943T831 741Q829 739 827 737T821 731Q794 705 770 688T698 647T573 611T392 597L252 45Q240 0 190 0H16Q-9 0 -20 18T-25 63L276 1243Z" />
<glyph unicode="Q" glyph-name="Q" horiz-adv-x="921" d="M154 -139Q154 -139 178 -31Q182 -6 203 8Q204 8 206 10T211 12Q191 19 168 31Q79 81 42 185T4 451Q4 623 59 836Q108 1026 187 1173T378 1410T614 1499Q662 1499 719 1486T817 1448Q891 1404 922 1316T954
1083Q954 898 885 625Q825 387 721 221T469 7Q573 -22 692 14Q712 21 722 4T727 -45L705 -160Q702 -178 694 -187T666 -203Q523 -250 432 -207Q325 -155 184 -207Q161 -216 154 -196T154 -139ZM350 770Q308 608 295 486T297 299T358 233Q392 233 420 255T483 336Q547
448 610 698Q640 820 656 915T675 1081T663 1189T614 1227Q572 1227 544 1210T483 1139Q418 1033 350 770Z" />
<glyph unicode="R" glyph-name="R" horiz-adv-x="980" d="M445 804L522 815Q578 822 618 846T688 926Q704 975 720 1059T737 1192Q737 1211 718 1225T676 1239Q667 1239 651 1239T606 1240T557 1241L445 804ZM276 1243H207Q182 1243 170 1260T164 1300L201 1442Q205
1460 220 1471T248 1483H387H561H684Q823 1483 909 1417T995 1217Q995 1088 943 942T831 741Q762 672 699 641L782 86Q794 0 727 0H565Q537 0 518 28T492 102L430 597H393L252 45Q240 0 190 0H16Q-9 0 -20 18T-25 63L276 1243Z" />
<glyph unicode="S" glyph-name="S" horiz-adv-x="950" d="M717 1505Q863 1505 931 1393T999 1081Q999 1028 950 1016L801 977Q780 971 755 980T729 1020Q722 1192 666 1264Q660 1267 651 1262Q616 1242 571 1152T526 983Q526 926 550 904T639 862L676 852Q718
840 746 825T801 780T841 699T854 573Q854 465 809 354T693 159T528 21T344 -33Q269 -33 212 -8T123 54T71 144T45 243T39 342Q39 375 51 402T88 438L246 494Q283 506 304 497T326 463Q320 218 356 176Q376 176 391 182Q445 209 492 292T539 481Q539 510 538 526T531
563T513 596T480 621T426 641L393 649Q362 657 333 671T273 711T224 779T205 874Q205 973 247 1084T357 1289T522 1443T717 1505Z" />
<glyph unicode="T" glyph-name="T" horiz-adv-x="905" d="M1020 1239Q1020 1239 726 1239L422 45Q410 0 360 0H186Q161 0 150 18T145 63L445 1239H133Q102 1239 93 1256T94 1313L127 1442Q133 1468 145 1475T188 1483H557H731H1069Q1131 1483 1116 1417L1090 1296Q1086
1273 1065 1256T1020 1239Z" />
<glyph unicode="U" glyph-name="U" horiz-adv-x="1122" d="M442 -14Q247 -14 164 72Q84 153 74 291T115 618L326 1438Q338 1483 387 1483H569Q594 1483 605 1464T610 1419L403 596Q351 401 362 305T461 209Q509 209 546 241T621 361T698 602L911 1438Q923 1483
973 1483H1139Q1164 1483 1175 1464T1180 1419L979 625Q950 511 922 426T848 253T748 111T616 21T442 -14Z" />
<glyph unicode="V" glyph-name="V" horiz-adv-x="1032" d="M378 309L932 1440Q954 1486 1010 1481L1169 1475Q1239 1472 1214 1399L530 82Q511 43 480 22T418 0L182 -2Q145 -5 122 21T102 96L178 1434Q183 1479 240 1479H406Q432 1479 444 1464T453 1423L378 309Z" />
<glyph unicode="W" glyph-name="W" horiz-adv-x="1476" d="M539 1483Q563 1483 569 1465T555 1403Q511 1324 453 1140T355 721T335 335Q469 517 588 784T750 1262L754 1264Q774 1362 793 1430Q803 1460 818 1471T864 1483H1049Q1097 1483 1075 1421Q975 1124 954
850Q922 452 957 302Q1059 430 1147 651T1281 1078T1335 1434Q1336 1454 1337 1461T1348 1476T1376 1483H1561Q1595 1483 1605 1473T1616 1432Q1616 1330 1585 1172T1492 831T1352 480T1167 180T952 0H811Q790 0 779 9T760 41Q703 206 692 460Q618 327 528 204T354
0H201Q155 0 141 41Q53 317 97 737T283 1454Q298 1483 338 1483H539ZM1002 219Q1010 215 1016 215L1002 219Z" />
<glyph unicode="X" glyph-name="X" horiz-adv-x="870" d="M613 688L743 82Q754 43 741 22T692 0H539Q469 0 455 70L413 421L238 35Q227 17 214 9T170 0H-27Q-61 0 -71 21T-59 86L307 769L170 1403Q147 1485 223 1485H375Q445 1485 459 1415L526 1027L729 1450Q740
1468 753 1476T797 1485H991Q1023 1485 1036 1472T1047 1441T1030 1399L613 688Z" />
<glyph unicode="Y" glyph-name="Y" horiz-adv-x="892" d="M535 916Q744 1232 844 1456Q857 1486 905 1483L1079 1475Q1103 1473 1112 1453T1104 1401Q876 1000 580 604L438 45Q426 0 377 0H203Q178 0 167 18T162 63L305 628Q305 764 274 1013T209 1391Q196 1427
210 1453T254 1481L418 1489Q447 1491 459 1482T477 1440Q524 1160 535 916Z" />
<glyph unicode="Z" glyph-name="Z" horiz-adv-x="968" d="M319 1483Q319 1483 1018 1483Q1061 1483 1067 1449V1415L1063 1409L1038 1296Q1034 1273 1013 1256T969 1239H959L349 244H715Q777 244 762 178L735 57Q731 34 710 17T666 0H23Q-12 0 -29 13T-47 47T-41
96L-39 97L670 1239H293Q262 1239 253 1256T254 1313L287 1442Q293 1469 299 1476T319 1483Z" />
<glyph unicode="[" glyph-name="bracketleft" horiz-adv-x="593" d="M574 1522L156 -92H336Q398 -92 383 -158L356 -279Q352 -302 331 -319T287 -336H-84Q-129 -336 -142 -314T-143 -244L360 1702Q377 1765 444 1765H850Q911 1765 897 1700L870 1579Q866 1556
845 1539T801 1522H574Z" />
<glyph unicode="\" glyph-name="backslash" horiz-adv-x="706" d="M279 63Q279 63 156 1477Q149 1556 213 1556H369Q426 1556 430 1493L551 61Q557 0 496 0H334Q285 0 279 63Z" />
<glyph unicode="]" glyph-name="bracketright" horiz-adv-x="593" d="M63 -92L476 1522H295Q234 1522 248 1587L274 1708Q278 1731 299 1748T344 1765H715Q760 1765 773 1743T774 1673L276 -272Q259 -336 193 -336H-213Q-275 -336 -260 -270L-233 -150Q-228 -127
-208 -110T-164 -92H63Z" />
<glyph unicode="^" glyph-name="asciicircum" horiz-adv-x="946" d="M688 1303H707H805Q835 1303 857 1282T879 1223L860 471Q860 436 801 436H645Q592 436 592 473L626 1145L260 471Q260 436 201 436H37Q-16 436 -16 473L428 1212Q453 1255 492 1279T567 1303H688Z" />
<glyph unicode="_" glyph-name="underscore" horiz-adv-x="1232" d="M-39 -43Q-39 -43 967 -43Q1028 -43 1014 -108L987 -229Q983 -252 962 -269T918 -286Q918 -286 -65 -286Q-96 -286 -105 -270T-104 -213L-72 -84Q-66 -58 -60 -51T-39 -43Z" />
<glyph unicode="`" glyph-name="grave" horiz-adv-x="620" d="M354 1483Q396 1483 418 1448L557 1223Q569 1201 560 1190T530 1178H442Q401 1178 373 1206L131 1446Q117 1460 121 1471T137 1483H354Z" />
<glyph unicode="a" glyph-name="a" horiz-adv-x="866" d="M451 12Q451 12 397 141H398L394 150L375 127Q312 52 277 23T205 -6H190Q155 -6 88 61Q-1 150 10 260Q32 482 126 732T307 1049Q376 1102 471 1102Q560 1102 639 1045L641 1055Q645 1072 649 1082T664
1101T692 1110L823 1112Q899 1112 881 1044L656 292Q685 323 700 348Q720 381 752 362L842 303Q874 281 856 256Q784 151 688 76T487 -10Q463 -13 451 12ZM597 874Q517 900 487 879Q445 847 380 670T291 367Q284 329 285 317T301 305Q317 305 348 341T420 446Q512
604 597 874Z" />
<glyph unicode="b" glyph-name="b" horiz-adv-x="876" d="M618 1507Q618 1507 467 913L512 967Q575 1042 610 1071T682 1100H696Q731 1100 799 1032Q888 943 877 834Q855 612 761 362T580 45Q511 -8 416 -8Q326 -8 247 49L246 45Q234 0 184 0H27Q-6 0 -19 19T-27
66L342 1509Q354 1554 403 1554H573Q629 1554 618 1507ZM290 219Q321 209 350 207T399 215Q441 247 507 424T596 727Q603 765 602 776T586 788Q570 788 539 752T467 647Q368 476 301 250L290 219Z" />
<glyph unicode="c" glyph-name="c" horiz-adv-x="616" d="M502 1114Q576 1106 641 1074T731 1014Q747 996 748 975T739 942L645 842Q628 825 617 822T586 827Q491 880 467 874Q440 867 398 793T326 644T283 528Q269 485 253 394T236 268Q236 210 252 207Q356 294
371 309Q399 337 442 309L528 252Q546 241 548 218T541 186Q504 130 414 58T287 -20Q229 -30 133 18T14 117Q-14 183 -16 272T1 448T50 620T110 770T168 874Q342 1132 502 1114Z" />
<glyph unicode="d" glyph-name="d" horiz-adv-x="946" d="M457 12Q457 12 451 27L439 55L403 141H404L400 150L381 127Q318 52 283 23T211 -6H197Q157 -6 112 36T39 141T16 260Q38 482 132 732T313 1049Q382 1102 477 1102Q570 1102 649 1043L774 1509Q786 1554
836 1554H985Q1041 1554 1030 1507L689 305Q714 330 727 350Q749 383 778 360L864 297Q895 273 877 248Q796 146 697 74T494 -10Q466 -13 457 12ZM603 874Q523 900 494 879Q452 847 386 670T297 367Q290 329 291 317T307 305Q346 305 432 470T592 844L603 874Z"
/>
<glyph unicode="e" glyph-name="e" horiz-adv-x="684" d="M303 524Q374 569 425 666T477 844Q477 876 472 887T451 899T417 867T385 803Q345 699 303 524ZM255 301Q246 254 250 241T279 219Q313 226 416 336Q424 344 436 345T457 340L557 279Q569 272 574 257T575
233Q539 163 409 57T229 -39Q33 4 6 129Q-12 217 19 397T115 752T250 991Q296 1035 346 1062T451 1097T555 1083Q698 1022 698 872Q698 770 634 652T467 438T255 301Z" />
<glyph unicode="f" glyph-name="f" horiz-adv-x="636" d="M227 0Q227 0 70 0Q44 0 32 13T25 47L251 901H154Q133 901 127 911T127 950L160 1067Q167 1091 177 1098T205 1106H305L319 1159Q364 1328 440 1430T633 1566Q689 1584 725 1571L913 1522Q941 1515 945
1484T934 1423L881 1323Q867 1294 809 1313L684 1353Q615 1284 569 1116L567 1106H680Q704 1106 711 1096T711 1061L676 946Q663 901 623 901H513L287 45Q275 0 227 0Z" />
<glyph unicode="g" glyph-name="g" horiz-adv-x="851" d="M582 874Q502 900 473 879Q431 847 365 670T276 367Q269 329 271 317T287 305Q303 305 334 341T406 446Q503 612 571 844L582 874ZM375 144L360 127Q297 52 262 23T190 -6H176Q141 -6 74 61Q-15 150 -4
260Q18 482 112 732T293 1049Q362 1102 457 1102Q549 1102 632 1040Q651 1104 696 1104L821 1106Q875 1106 864 1051Q823 886 748 619T605 116T532 -133Q488 -292 391 -344Q338 -373 309 -382T244 -387T162 -354L-47 -236Q-74 -224 -76 -200T-63 -162L2 -74Q20
-55 34 -51T70 -57L248 -154Q283 -172 303 -106L375 144Z" />
<glyph unicode="h" glyph-name="h" horiz-adv-x="890" d="M152 0Q152 0 27 0Q-6 0 -19 19T-27 66L342 1509Q354 1554 403 1554H573Q629 1554 618 1507L447 837L573 1014Q609 1062 644 1085T727 1108H823Q870 1108 899 1079T909 977L659 29Q650 0 608 0H442Q432
0 422 10T416 33L575 614Q576 618 577 622T579 628T581 635Q585 649 586 657T587 671T578 676Q574 676 570 673T562 665T554 653T545 641Q505 582 441 465T300 202T215 39Q193 0 152 0Z" />
<glyph unicode="i" glyph-name="i" horiz-adv-x="505" d="M287 1380Q287 1440 330 1482T438 1524H467Q517 1524 560 1480T604 1380Q604 1320 560 1280T449 1239H422Q368 1239 328 1281T287 1380ZM508 1059Q508 1059 242 45Q230 0 180 0H14Q-42 0 -31 47L236 1061Q248
1106 297 1106H463Q519 1106 508 1059Z" />
<glyph unicode="j" glyph-name="j" horiz-adv-x="516" d="M317 1380Q317 1439 360 1481T469 1524H498Q548 1524 591 1480T635 1380Q635 1320 590 1280T479 1239H453Q399 1239 358 1281T317 1380ZM313 1106Q313 1106 481 1106Q507 1106 519 1093T526 1059L260 45Q239
-34 200 -102T119 -215T28 -295T-58 -347T-129 -375Q-171 -387 -193 -358L-258 -258Q-271 -241 -268 -220T-242 -190Q-165 -160 -97 -86T-4 84L254 1061Q266 1106 313 1106Z" />
<glyph unicode="k" glyph-name="k" horiz-adv-x="899" d="M618 1507Q618 1507 429 764L680 1079Q688 1089 692 1093T709 1102T741 1106H956Q978 1106 986 1095T989 1065T967 1030L572 582L741 61Q760 0 694 0H532Q477 0 457 51L345 435L246 45Q234 0 184 0H27Q-6
0 -19 19T-27 66L342 1509Q354 1554 403 1554H573Q629 1554 618 1507Z" />
<glyph unicode="l" glyph-name="l" horiz-adv-x="497" d="M618 1507Q618 1507 246 45Q234 0 184 0H27Q-6 0 -19 19T-27 66L342 1509Q354 1554 403 1554H573Q629 1554 618 1507Z" />
<glyph unicode="m" glyph-name="m" horiz-adv-x="1294" d="M401 803L551 1012Q587 1060 622 1083T705 1106H805Q852 1106 881 1077T891 975L851 823L993 1006Q1035 1064 1073 1086T1159 1108H1235Q1285 1108 1310 1076T1315 963L1069 29Q1060 -2 1018 -2L852 0Q841
0 833 12T831 49L963 516Q966 528 973 552T985 595T994 632T998 661T993 672Q987 672 981 667T968 651T955 631T939 604T922 575Q872 486 770 277T641 29Q626 -2 590 -2L424 0Q413 0 405 12T403 49L530 516Q532 525 537 542T546 572T554 601T560 629T563 650T562
666T553 672T542 668T529 654T516 636T501 611T485 584Q429 493 324 284T193 39Q164 0 129 0H4Q-14 0 -24 15T-29 53L238 1049Q251 1106 299 1106H430Q468 1106 479 1092T481 1042L401 803Z" />
<glyph unicode="n" glyph-name="n" horiz-adv-x="872" d="M401 803L551 1012Q587 1060 622 1083T705 1106H805Q852 1106 881 1077T891 975L641 29Q632 -2 590 -2L424 0Q413 0 405 12T403 49L530 516Q532 525 537 542T546 572T554 601T560 629T563 650T562 666T553
672T542 668T529 654T516 636T501 611T485 584Q429 493 324 284T193 39Q164 0 129 0H4Q-14 0 -24 15T-29 53L238 1049Q251 1106 299 1106H430Q469 1106 481 1092T481 1042L401 803Z" />
<glyph unicode="o" glyph-name="o" horiz-adv-x="770" d="M420 332Q452 393 477 466T510 580Q521 616 530 683T530 817T483 885Q441 885 409 842T344 715Q343 713 333 687T315 638T294 576T273 504T258 430T252 358Q252 290 261 263T307 229Q342 234 366 255T420
332ZM123 842Q176 963 272 1043T502 1124Q579 1124 636 1095T733 987Q750 955 758 909T767 835T768 743Q768 616 728 481T621 233Q552 118 468 51T293 -16Q227 -16 182 -2T90 63Q44 112 22 192T0 358Q0 582 123 842Z" />
<glyph unicode="p" glyph-name="p" horiz-adv-x="854" d="M496 1059Q496 1059 457 908L506 967Q569 1042 604 1071T676 1100H690Q725 1100 793 1032Q881 944 870 834Q848 612 754 362T573 45Q504 -8 410 -8Q319 -8 238 51L131 -365Q119 -410 70 -410H-88Q-121
-410 -134 -391T-141 -344L219 1061Q231 1106 281 1106H451Q507 1106 496 1059ZM284 219Q315 209 344 207T393 215Q435 247 501 424T590 727Q597 765 596 776T580 788Q564 788 533 752T461 647Q362 476 295 250L284 219Z" />
<glyph unicode="q" glyph-name="q" horiz-adv-x="860" d="M881 1059Q881 1059 516 -365Q504 -410 455 -410H297Q264 -410 251 -391T244 -344L378 180L334 127Q271 52 236 23T164 -6H150Q114 -6 47 61Q-42 150 -31 260Q-9 482 85 732T266 1049Q335 1102 430 1102Q520
1102 600 1044L604 1061Q616 1106 666 1106H836Q892 1106 881 1059ZM555 874Q475 900 446 879Q404 847 339 670T250 367Q243 329 244 317T260 305Q276 305 307 341T379 446Q478 616 545 844L555 874Z" />
<glyph unicode="r" glyph-name="r" horiz-adv-x="690" d="M461 920Q500 977 543 1030Q545 1033 551 1040T559 1050T566 1058T572 1065T578 1071T585 1078T592 1084T600 1090T608 1096Q631 1112 694 1112H807Q833 1112 845 1102T849 1067T801 1008Q760 971 674
864Q621 796 621 770Q621 717 672 670Q679 662 677 654T663 639T633 631L487 618Q452 615 432 631Q420 640 398 680L231 45Q219 0 170 0H4Q-52 0 -41 47L225 1061Q237 1106 287 1106H453Q509 1106 498 1059L461 920Z" />
<glyph unicode="s" glyph-name="s" horiz-adv-x="698" d="M432 1124Q432 1124 467 1124Q551 1124 627 1070T739 940Q746 927 744 906T725 874L625 805Q590 781 563 815Q495 898 432 911Q406 898 379 845T352 741Q350 713 367 689T416 659L453 653Q505 644 538
626T593 561T612 442Q611 372 584 292T511 141T397 24T254 -23H227Q132 -23 65 30T-31 150Q-51 199 -27 227L61 297Q83 317 104 315T137 289Q152 259 189 230T262 197Q300 217 322 279T346 401Q346 439 322 463T256 494L229 498Q153 508 121 552T90 678Q93 787
145 891T276 1060T432 1124Z" />
<glyph unicode="t" glyph-name="t" horiz-adv-x="544" d="M604 1356Q604 1356 541 1106H651Q675 1106 682 1096T682 1061L647 946Q634 901 594 901H488L270 45Q258 0 209 0H51Q18 0 5 19T-2 66L211 901H133Q112 901 106 911T106 950L139 1067Q146 1091 156 1098T184
1106H263L328 1358Q340 1403 389 1403H559Q615 1403 604 1356Z" />
<glyph unicode="u" glyph-name="u" horiz-adv-x="841" d="M464 305L344 135Q295 58 253 28T158 -2H145Q63 -2 23 63T12 238L242 1077Q252 1106 293 1106H453Q493 1106 475 1047L317 516Q299 441 319 436Q340 431 387 518Q597 907 666 1059Q688 1106 733 1106H858Q876
1106 886 1091T891 1053L625 55Q612 0 563 0H436Q374 0 397 74L464 305Z" />
<glyph unicode="v" glyph-name="v" horiz-adv-x="892" d="M415 383Q577 740 655 1075Q665 1118 713 1114L874 1102Q898 1099 911 1085T918 1051Q703 418 506 117Q467 58 437 29T377 0L233 10Q203 15 183 41T166 113Q186 317 185 559T164 1030Q154 1106 213 1106H371Q395
1106 406 1095T420 1059Q449 747 415 383Z" />
<glyph unicode="w" glyph-name="w" horiz-adv-x="1261" d="M407 370Q552 710 625 1030Q624 1035 624 1045T623 1061Q620 1084 634 1095T672 1106H817Q838 1106 848 1095T862 1059Q891 698 871 375Q1023 736 1096 1075Q1104 1118 1149 1114L1303 1102Q1326 1099
1337 1085T1341 1051Q1153 442 958 117Q923 58 896 29T840 0L694 8Q667 10 647 44T631 127Q646 294 646 499Q556 252 473 117Q438 58 411 29T356 0L211 8Q184 10 164 44T147 127Q183 534 139 1061Q136 1084 150 1095T188 1106H352Q375 1106 385 1095T399 1059Q427
702 407 370Z" />
<glyph unicode="x" glyph-name="x" horiz-adv-x="823" d="M8 51Q35 139 85 230T206 433T311 603Q258 831 197 1030Q169 1106 227 1106H385Q430 1106 444 1059Q459 1013 485 919Q543 1025 573 1079Q585 1090 590 1094T610 1102T643 1106H815Q838 1106 839 1094T803
1030Q681 868 554 620Q612 312 625 45Q626 16 636 0L492 10Q460 15 433 41T401 113Q393 185 380 262Q307 114 279 61Q279 0 213 0H68Q35 0 18 13T8 51ZM636 0H637H636Z" />
<glyph unicode="y" glyph-name="y" horiz-adv-x="851" d="M435 246L358 125Q341 99 328 81T300 52T278 34T253 26T228 23T197 23H184Q112 23 63 84Q47 104 35 134T17 210T25 301L242 1077Q252 1106 293 1106H453Q493 1106 475 1047L317 516Q315 510 314 504Q297
439 318 437Q341 434 387 518Q597 907 666 1059Q688 1106 733 1106H827H828H852Q906 1106 895 1051Q854 886 779 619T636 116T563 -133Q519 -292 422 -344Q369 -373 340 -382T275 -387T193 -354L-16 -236Q-43 -224 -45 -200T-33 -162L33 -74Q51 -55 65 -51T100
-57L279 -154Q314 -172 334 -106L435 246Z" />
<glyph unicode="z" glyph-name="z" horiz-adv-x="776" d="M256 207H379L391 254Q400 295 455 299L602 311Q629 313 641 300T647 262L590 45Q578 0 528 0H518H383H-39Q-80 0 -99 22T-114 73T-90 129Q-90 129 486 901H369L356 852Q347 811 293 807L145 795Q118 793
106 806T100 844L160 1065Q172 1106 219 1106H762Q793 1106 817 1085T844 1028T811 942L256 207Z" />
<glyph unicode="{" glyph-name="braceleft" horiz-adv-x="659" d="M424 -332L190 -336Q98 -337 28 -274T-55 -115Q-69 -50 -37 42T41 217T125 378T162 516T96 600L49 618Q0 637 14 698L51 852Q62 898 125 913L207 934Q228 939 245 949T274 968T294 995T308 1024T316
1059T319 1095T320 1134T317 1173T313 1214T309 1253Q302 1344 307 1422T338 1565T408 1676T525 1747T696 1774H942Q1004 1774 989 1708Q989 1708 963 1587Q959 1564 938 1547T895 1530H733Q625 1530 576 1469T545 1264Q555 1174 559 1116T555 985T520 874Q506
854 493 839T461 810T433 788T399 770T369 757T332 742T297 729Q355 682 398 607T426 467Q410 396 333 252T242 78Q202 -22 216 -55T301 -88H485Q547 -88 532 -154L506 -274Q502 -297 481 -314T436 -332H424Z" />
<glyph unicode="|" glyph-name="bar" horiz-adv-x="489" d="M584 1507Q584 1507 104 -365Q92 -410 43 -410H-98Q-131 -410 -144 -391T-152 -344L324 1509Q336 1554 385 1554H539Q595 1554 584 1507Z" />
<glyph unicode="}" glyph-name="braceright" horiz-adv-x="700" d="M276 1769L510 1774Q603 1774 673 1711T756 1552Q770 1487 738 1395T660 1221T575 1059T538 922T604 838L651 819Q700 800 686 739L649 586Q643 563 623 547T575 524L494 504Q473 499 456 489T427
470T407 443T393 414T385 378T381 342T381 302T383 264T387 223T391 184Q402 66 389 -24T333 -186T208 -296T4 -336H-242Q-304 -336 -289 -270L-262 -150Q-258 -127 -238 -110T-195 -92H-33Q75 -92 124 -31T156 174Q148 241 145 284T141 387T150 490T180 563Q192
580 205 595T230 620T257 642T283 658T312 673T340 685T372 697T403 709Q345 756 302 831T274 971Q290 1042 368 1185T459 1360Q499 1460 485 1493T399 1526H215Q154 1526 168 1591L195 1712Q199 1735 220 1752T264 1769H276Z" />
<glyph unicode="~" glyph-name="asciitilde" horiz-adv-x="915" d="M111 756Q111 756 141 877Q148 905 174 918Q230 942 322 945T492 926Q581 901 653 902T813 926Q840 933 854 914T860 860L831 733Q826 714 815 704T778 686Q597 633 475 682Q334 740 150 682Q121
673 111 694T111 756Z" />
<glyph unicode="&#xa0;" glyph-name="nbspace" horiz-adv-x="409" />
<glyph unicode="&#xa1;" glyph-name="exclamdown" horiz-adv-x="540" d="M569 1036Q569 1036 344 23Q332 -23 283 -23H47Q-10 -23 2 25L350 1038Q362 1083 412 1083H524Q580 1083 569 1036ZM379 1358Q379 1417 422 1459T530 1501H559Q609 1501 652 1457T696 1358Q696
1298 652 1258T541 1217H514Q460 1217 420 1259T379 1358Z" />
<glyph unicode="&#xa2;" glyph-name="cent" horiz-adv-x="815" d="M178 -195Q146 -195 134 -177T127 -131L163 0Q105 26 71 80T29 204T24 338T39 471Q82 719 190 879T440 1081L489 1268Q501 1311 549 1311H696Q751 1311 739 1266L690 1076Q765 1044 795 966T804
792T717 610Q697 583 659 590L535 616Q506 621 498 634T498 676Q518 734 529 773T547 844T549 893T530 913Q514 916 475 867T389 725T317 535Q295 453 285 380T279 255T307 197Q320 200 333 212T358 238T382 276T404 318T428 367T451 414Q465 439 494 432L643 367Q692
345 668 297Q558 79 418 12L375 -152Q363 -195 315 -195H178Z" />
<glyph unicode="&#xa3;" glyph-name="sterling" horiz-adv-x="1013" d="M-156 53Q-156 53 -109 207Q-105 232 -84 246Q-83 247 -59 264T-4 307T63 366T136 444T198 532H80Q50 532 42 549T43 606L74 735Q78 762 84 769T104 776H239Q231 901 245 1005T289 1182T363
1310T457 1395T564 1441T675 1457T782 1442Q865 1421 918 1372T991 1261T1009 1135T987 1010Q986 1008 982 994T976 977T969 966T956 953T938 946L772 901Q741 893 731 910T729 952Q812 1164 723 1206Q703 1215 682 1218T636 1216T589 1195T546 1146T511 1065T490
943T487 776H705Q762 776 748 711L723 590Q719 567 699 550T657 532H474Q456 483 429 445T357 364T307 315Q371 305 424 285Q497 257 554 246T682 240T840 274Q860 280 872 261T879 211L836 66Q831 48 819 37T772 16Q705 -3 657 -10T526 -8T350 39Q294 65 217 60T84
40T-35 7T-125 -14Q-150 -15 -157 0T-156 53Z" />
<glyph unicode="&#xa4;" glyph-name="currency" horiz-adv-x="1048" d="M598 427Q661 522 692 633Q703 663 712 719T713 831T664 887Q620 887 587 852T520 746Q520 745 513 731T500 704T484 671T467 630T452 586T437 540T428 494T424 449Q424 393 434 371T481
342Q517 346 541 363T598 427ZM290 851Q292 855 307 880L252 1057Q247 1073 244 1085T242 1106T243 1122T250 1134T260 1144T274 1154T289 1165L412 1227Q439 1245 462 1229T496 1174L529 1060Q604 1086 684 1086Q745 1086 794 1072L870 1188Q876 1198 881 1203T895
1216T915 1223T940 1214L1073 1137Q1107 1116 1110 1098T1090 1051L956 879Q960 851 960 770Q960 665 919 553T807 346L789 322L860 100Q870 71 861 57T817 23L700 -43Q658 -65 633 -52T598 2L561 153Q514 138 466 138Q423 138 391 142L299 -10L292 -18Q285 -27
283 -29T273 -36T261 -42T247 -42T229 -35L86 57Q55 75 51 90T68 141L185 310Q162 371 162 449Q162 636 290 851Z" />
<glyph unicode="&#xa5;" glyph-name="yen" horiz-adv-x="892" d="M49 752Q49 752 891 752Q953 752 938 686L926 629Q922 606 901 589T856 571Q856 571 37 571Q6 571 -3 588T-2 645L16 711Q23 738 29 745T49 752ZM-21 486Q-21 486 821 486Q883 486 868 420L856
363Q852 340 831 323T786 305Q786 305 -33 305Q-64 305 -73 322T-72 379L-54 445Q-47 472 -41 479T-21 486ZM535 916Q744 1232 844 1456Q857 1486 905 1483L1079 1475Q1103 1473 1112 1453T1104 1401Q876 1000 580 604L438 45Q426 0 377 0H203Q178 0 167 18T162
63L305 628Q305 764 274 1013T209 1391Q196 1427 210 1453T254 1481L418 1489Q447 1491 459 1482T477 1440Q524 1160 535 916Z" />
<glyph unicode="&#xa6;" glyph-name="brokenbar" horiz-adv-x="540" d="M586 1513Q586 1513 383 735Q371 690 322 690H168Q112 690 123 737L326 1516Q338 1561 387 1561H541Q598 1561 586 1513ZM307 412L104 -367Q92 -412 43 -412H-111Q-167 -412 -156 -365L47
414Q59 459 109 459H262Q318 459 307 412Z" />
<glyph unicode="&#xa7;" glyph-name="section" horiz-adv-x="901" d="M448 867Q416 837 384 776T352 662Q352 608 444 547Q473 554 495 610T518 711Q518 822 448 867ZM572 380Q575 348 575 311Q575 229 544 144T461 -12T331 -127T168 -172Q113 -172 71 -154T3
-106T-39 -35T-62 49T-68 141Q-68 198 -29 217L145 307Q171 321 189 312T207 279Q207 268 205 235T201 174T199 116T205 69T221 51Q251 54 275 112T299 217Q299 341 211 383Q74 444 74 567Q74 697 139 821T299 1011Q293 1035 293 1063Q293 1179 347 1294T484 1480T645
1552Q714 1552 768 1533T855 1480T909 1403T932 1309T926 1206Q921 1179 887 1155L705 1104Q682 1099 672 1107T662 1141Q663 1152 671 1211T676 1296T647 1327Q620 1312 597 1264T573 1157Q573 1125 605 1090T688 1028Q751 990 772 942T793 807Q793 688 732 568T572
380Z" />
<glyph unicode="&#xa8;" glyph-name="dieresis" horiz-adv-x="1071" d="M662 1356Q662 1412 702 1451T805 1491H831Q879 1491 921 1450T963 1356Q963 1299 921 1260T815 1221H791Q739 1221 701 1261T662 1356ZM252 1356Q252 1412 292 1451T395 1491H422Q470 1491
511 1450T553 1356Q553 1299 511 1260T406 1221H381Q329 1221 291 1261T252 1356Z" />
<glyph unicode="&#xa9;" glyph-name="copyright" horiz-adv-x="1677" d="M748 451Q779 468 803 505T868 621Q879 647 907 639L1049 578Q1071 567 1077 555T1071 512Q1007 382 925 314T717 246Q648 246 599 275T525 351T489 458T480 576T492 690Q517 828 566 933T681
1100T818 1191T965 1221Q1021 1221 1070 1200T1152 1139T1197 1049T1194 937T1128 813Q1111 786 1075 793L958 817Q931 822 923 834T924 874Q942 927 950 958T961 1011T958 1042T938 1055Q922 1057 890 1024T818 916T754 750Q733 674 724 609T720 501T748 451ZM371
819Q341 703 337 600T355 409T429 258T564 159T760 123Q959 123 1098 268T1298 655Q1326 764 1330 866T1312 1058T1242 1215T1112 1321T922 1360Q721 1360 579 1211T371 819ZM154 907Q239 1199 440 1355T918 1511Q1095 1511 1214 1468T1419 1335Q1539 1213 1566
1018T1524 592Q1434 281 1238 125T750 -31Q608 -31 480 12T264 143Q186 222 145 331T103 588T154 907Z" />
<glyph unicode="&#xaa;" glyph-name="ordfeminine" horiz-adv-x="675" d="M438 1146Q392 1140 359 1100T326 1006Q326 984 329 977T344 969Q354 969 373 990T399 1030Q424 1095 438 1146ZM561 1005Q595 1037 606 1061Q616 1084 639 1073L707 1040Q730 1028 719
1010Q679 939 619 886T492 819Q482 817 465 820T444 831L421 874Q383 839 337 827T248 831Q152 873 152 973Q152 1092 249 1188T472 1292L475 1307Q484 1355 479 1369T453 1391Q433 1386 402 1368T354 1331Q342 1319 328 1329L262 1391Q253 1395 250 1405T250 1421Q274
1469 368 1528T514 1577Q542 1571 559 1566T602 1548T644 1516T666 1468Q680 1405 647 1266T561 1005Z" />
<glyph unicode="&#xab;" glyph-name="guillemotleft" horiz-adv-x="892" d="M778 549L887 215Q895 193 885 180T852 166H754Q730 166 711 179T684 213L570 535Q555 583 586 623L848 924Q882 963 932 963H1030Q1055 963 1062 948T1053 909L778 549ZM401 549L510
215Q518 193 508 180T475 166H377Q353 166 334 179T307 213L193 535Q178 583 209 623L471 924Q505 963 555 963H653Q678 963 685 948T676 909L401 549Z" />
<glyph unicode="&#xac;" glyph-name="logicalnot" horiz-adv-x="1847" d="M1270 772H291Q260 772 251 789T252 846L281 958Q291 995 306 1005T356 1016H1513Q1594 1016 1571 928L1432 401Q1420 356 1370 356H1217Q1160 356 1171 403L1270 772Z" />
<glyph unicode="&#xae;" glyph-name="registered" horiz-adv-x="1677" d="M371 819Q341 703 337 601T355 413T429 266T564 170T760 135Q877 135 967 172T1120 281T1225 443T1298 655Q1326 764 1330 864T1312 1053T1242 1207T1112 1310T922 1348Q511 1348 371 819ZM154
907Q239 1199 440 1355T918 1511Q1095 1511 1214 1468T1419 1335Q1539 1213 1566 1018T1524 592Q1434 281 1238 125T750 -31Q608 -31 480 12T264 143Q186 222 145 331T103 588T154 907ZM800 792L870 799Q958 809 1001 874Q1020 923 1020 971Q1020 1015 961 1028Q924
1037 867 1040L800 792ZM642 1029Q632 1027 611 1024T580 1020Q560 1017 550 1031T545 1061L582 1180Q588 1199 621 1208Q680 1222 818 1223T1012 1214Q1048 1207 1074 1199T1132 1174T1184 1134T1219 1073T1233 987Q1233 927 1197 856T1114 750Q1058 701 1011
682L1085 348Q1095 289 1042 289H913Q891 289 876 308T856 358L799 651H763L674 322Q665 291 625 291H487Q467 291 459 303T455 334L642 1029Z" />
<glyph unicode="&#xaf;" glyph-name="overscore" horiz-adv-x="815" d="M143 1493Q143 1493 862 1493Q876 1493 882 1485T881 1448L852 1354Q846 1334 843 1326T831 1307T809 1296H104Q92 1296 85 1298T74 1302T70 1310T71 1321T75 1336T80 1354L113 1468Q118
1483 124 1488T143 1493Z" />
<glyph unicode="&#xb0;" glyph-name="degree" horiz-adv-x="983" d="M412 1339Q412 1287 444 1254T528 1221Q598 1221 656 1273T715 1403Q715 1456 683 1489T596 1522Q525 1522 469 1467T412 1339ZM614 1669Q728 1669 798 1597T868 1413Q868 1335 836 1269T753
1161T641 1096T516 1073Q401 1073 330 1146T258 1331Q258 1391 278 1445T334 1540T415 1609T512 1654T614 1669Z" />
<glyph unicode="&#xb1;" glyph-name="plusminus" horiz-adv-x="1062" d="M51 225Q51 225 768 225Q812 225 803 164L782 49Q779 26 765 10T733 -6H33Q-10 -6 4 63L27 186Q31 211 36 218T51 225ZM829 557H583L532 365Q520 322 473 322H328Q273 322 285 367L334 557H119Q89
557 81 573T82 627L106 733Q113 763 128 775T172 788H395L436 946Q448 989 496 989H641Q696 989 684 944L643 788H877Q936 788 922 727L895 612Q892 589 872 573T829 557Z" />
<glyph unicode="&#xb2;" glyph-name="twosuperior" horiz-adv-x="696" d="M396 838H616Q663 838 651 795L629 692Q625 677 609 666T575 655H121Q79 655 62 690T84 772L485 1194Q493 1203 502 1213Q563 1287 569 1352Q575 1415 514 1415Q487 1415 464 1383T440
1298Q440 1295 437 1289T424 1274T399 1264L240 1245Q225 1243 217 1249T207 1261T205 1280Q205 1400 305 1485T551 1571Q643 1571 704 1529T783 1422T773 1271T664 1104L396 838Z" />
<glyph unicode="&#xb3;" glyph-name="threesuperior" horiz-adv-x="663" d="M613 1125Q678 1089 678 963Q678 835 573 737T319 637Q256 637 211 656T142 708T107 779T96 862Q96 903 123 920L260 977Q291 991 310 981T330 946Q330 945 329 934T328 915T327 895T326
872T327 850T330 829T336 813T344 801T356 797Q387 797 405 830T430 901Q443 967 422 1000T354 1034Q334 1034 324 1041T313 1054T313 1069L324 1145Q330 1180 369 1180Q422 1178 467 1214T522 1313Q526 1400 487 1407Q460 1409 436 1378T412 1298Q412 1293 410
1285T397 1265T371 1251L211 1241Q196 1239 188 1245T178 1260T176 1282Q176 1401 276 1487T522 1573Q646 1573 702 1513T758 1358Q758 1291 718 1229T613 1125Z" />
<glyph unicode="&#xb4;" glyph-name="acute" horiz-adv-x="694" d="M539 1483Q561 1483 567 1469T553 1432L328 1206Q300 1178 258 1178H158Q138 1178 133 1189T137 1212L279 1448Q301 1483 342 1483H539Z" />
<glyph unicode="&#xb5;" glyph-name="mu" horiz-adv-x="841" d="M254 1106Q254 1106 453 1106Q493 1106 475 1047L317 516Q299 441 319 436Q340 431 387 518Q597 907 666 1059Q688 1106 733 1106H858Q876 1106 886 1091T891 1053L625 55Q612 0 563 0H436Q374 0
397 74L458 283L365 135Q316 58 273 28T178 -2H164Q164 -49 150 -104L84 -365Q72 -410 23 -410H-115Q-148 -410 -161 -391T-168 -344L193 1061Q205 1106 254 1106Z" />
<glyph unicode="&#xb6;" glyph-name="paragraph" horiz-adv-x="1384" d="M923 1270L508 -365Q496 -410 446 -410H305Q272 -410 259 -391T252 -344L492 600Q352 625 267 717T182 950Q182 1184 365 1333T831 1483H1532Q1557 1483 1565 1472T1567 1434L1536 1311Q1531
1289 1519 1280T1479 1270H1369L954 -365Q942 -410 893 -410H752Q719 -410 706 -391T698 -344L1109 1270H923Z" />
<glyph unicode="&#xb7;" glyph-name="middot" horiz-adv-x="477" d="M176 717Q176 773 216 812T319 852H346Q394 852 435 811T477 717Q477 660 435 621T330 582H305Q253 582 215 622T176 717Z" />
<glyph unicode="&#xb8;" glyph-name="cedilla" horiz-adv-x="700" d="M403 -68Q403 -68 532 -109Q568 -118 555 -170Q530 -281 426 -350T184 -414Q172 -414 161 -407T147 -389L123 -313Q108 -264 150 -264Q244 -264 298 -215T352 -100Q352 -74 371 -67T403 -68Z" />
<glyph unicode="&#xb9;" glyph-name="onesuperior" horiz-adv-x="458" d="M604 1557L608 1561Q625 1562 634 1549T639 1520L389 684Q379 655 344 655H197Q179 655 170 667T166 696L346 1295L317 1268Q286 1237 254 1237H141Q125 1237 114 1247T107 1277T135 1317L356
1487Q360 1490 374 1502T393 1517T410 1530T428 1543T444 1552T462 1559T477 1561H606L604 1557Z" />
<glyph unicode="&#xba;" glyph-name="ordmasculine" horiz-adv-x="765" d="M467 1010Q506 1010 539 1045T592 1133T623 1236T637 1327Q637 1405 582 1405Q538 1405 499 1344T441 1212T422 1090Q422 1047 430 1029T467 1010ZM215 1108Q215 1185 241 1264T315 1412T439
1524T606 1567Q668 1567 717 1545T791 1483Q829 1420 829 1309Q829 1257 814 1196T767 1074T693 962T590 880T463 848Q353 848 293 905Q215 978 215 1108Z" />
<glyph unicode="&#xbb;" glyph-name="guillemotright" horiz-adv-x="892" d="M719 580L610 913Q602 935 612 949T645 963H743Q766 963 786 950T813 915L928 594Q943 547 911 506L649 205Q615 166 565 166H467Q442 166 435 181T444 219L719 580ZM334 580L225 913Q217
935 227 949T260 963H358Q381 963 401 950T428 915L543 594Q558 547 526 506L264 205Q230 166 180 166H82Q57 166 50 181T59 219L334 580Z" />
<glyph unicode="&#xbc;" glyph-name="onequarter" horiz-adv-x="2045" d="M1782 197Q1782 197 1714 197L1665 29Q1655 0 1618 0H1464Q1445 0 1437 12T1434 41L1479 197H1204Q1156 197 1132 218T1109 270T1137 332L1561 877Q1576 894 1586 900T1616 906H1782Q1803
906 1811 888T1806 850L1405 357H1526L1569 504Q1579 533 1616 533H1770Q1788 533 1796 521T1800 492L1761 357H1833Q1880 360 1868 318L1835 234Q1827 214 1816 206T1782 197ZM272 -55Q272 -55 75 -53Q49 -53 42 -26T53 20L1544 1518Q1591 1565 1642 1565Q1642
1565 1841 1565Q1867 1565 1873 1538T1861 1491L358 -18Q334 -42 317 -48T272 -55ZM700 1776L704 1780Q721 1781 730 1768T735 1739L485 903Q475 874 440 874H293Q275 874 266 886T262 915L442 1514L413 1487Q382 1456 350 1456H237Q221 1456 210 1466T203 1496T231
1536L452 1706Q456 1709 470 1721T489 1736T506 1749T524 1762T540 1771T558 1778T573 1780H702L700 1776Z" />
<glyph unicode="&#xbd;" glyph-name="onehalf" horiz-adv-x="2045" d="M1488 183H1708Q1755 183 1743 140L1721 37Q1717 22 1701 11T1667 0H1213Q1171 0 1154 35T1176 117L1577 539Q1585 548 1594 558Q1655 632 1661 697Q1667 760 1606 760Q1579 760 1556 728T1532
643Q1532 640 1529 634T1516 619T1491 609L1332 590Q1317 588 1309 594T1299 606T1297 625Q1297 745 1397 830T1643 916Q1735 916 1796 874T1875 767T1865 616T1756 449L1488 183ZM272 -55Q272 -55 75 -53Q49 -53 42 -26T53 20L1544 1518Q1591 1565 1642 1565Q1642
1565 1841 1565Q1867 1565 1873 1538T1861 1491L358 -18Q334 -42 317 -48T272 -55ZM700 1776L704 1780Q721 1781 730 1768T735 1739L485 903Q475 874 440 874H293Q275 874 266 886T262 915L442 1514L413 1487Q382 1456 350 1456H237Q221 1456 210 1466T203 1496T231
1536L452 1706Q456 1709 470 1721T489 1736T506 1749T524 1762T540 1771T558 1778T573 1780H702L700 1776Z" />
<glyph unicode="&#xbe;" glyph-name="threequarters" horiz-adv-x="2045" d="M1782 197Q1782 197 1714 197L1665 29Q1655 0 1618 0H1464Q1445 0 1437 12T1434 41L1479 197H1204Q1156 197 1132 218T1109 270T1137 332L1561 877Q1576 894 1586 900T1616 906H1782Q1803
906 1811 888T1806 850L1405 357H1526L1569 504Q1579 533 1616 533H1770Q1788 533 1796 521T1800 492L1761 357H1833Q1880 360 1868 318L1835 234Q1827 214 1816 206T1782 197ZM272 -55Q272 -55 75 -53Q49 -53 42 -26T53 20L1544 1518Q1591 1565 1642 1565Q1642
1565 1841 1565Q1867 1565 1873 1538T1861 1491L358 -18Q334 -42 317 -48T272 -55ZM863 1344Q928 1308 928 1182Q928 1054 823 956T569 856Q506 856 461 875T392 927T357 998T346 1081Q346 1122 373 1139L510 1196Q541 1210 560 1200T580 1165Q580 1164 579 1153T578
1134T577 1114T576 1091T577 1069T580 1048T586 1032T594 1020T606 1016Q637 1016 655 1049T680 1120Q693 1186 672 1219T604 1253Q584 1253 574 1260T563 1273T563 1288L574 1364Q580 1399 619 1399Q672 1397 717 1433T772 1532Q776 1619 737 1626Q710 1628 686
1597T662 1517Q662 1512 660 1504T647 1484T621 1470L461 1460Q446 1458 438 1464T428 1479T426 1501Q426 1620 526 1706T772 1792Q896 1792 952 1732T1008 1577Q1008 1510 968 1448T863 1344Z" />
<glyph unicode="&#xbf;" glyph-name="questiondown" horiz-adv-x="749" d="M776 1346Q776 1289 736 1250T633 1210H606Q558 1210 517 1252T475 1346Q475 1403 517 1442T623 1481H647Q699 1481 737 1441T776 1346ZM446 1116Q442 1144 459 1152T508 1157L614 1147Q673
1141 679 1069T635 899Q579 794 523 738T387 682Q360 683 337 672T301 648T274 611T257 578T246 547Q231 504 216 399T201 240Q201 219 219 216T258 233Q333 296 346 313Q365 333 381 335T418 324L504 266Q521 255 523 233T516 201Q476 140 390 62T266 -20Q207
-28 108 26T-10 131Q-34 196 -34 283T-18 455T22 610T70 733Q104 804 217 875T428 950Q444 989 447 1045T446 1116Z" />
<glyph unicode="&#xc0;" glyph-name="Agrave" horiz-adv-x="1044" d="M661 1929Q703 1929 725 1894L864 1669Q876 1647 867 1636T837 1624H749Q708 1624 680 1652L438 1892Q424 1906 428 1917T444 1929H661ZM318 399L141 39Q120 -5 63 -2L-96 4Q-133 5 -145 28T-141
80L543 1397Q564 1437 594 1458T655 1479L891 1481Q929 1481 951 1456T971 1382L895 45Q892 0 834 0H668Q618 0 621 55L643 399H318ZM437 643H660L695 1169L437 643Z" />
<glyph unicode="&#xc1;" glyph-name="Aacute" horiz-adv-x="1044" d="M1104 1929Q1126 1929 1132 1915T1118 1878L893 1652Q865 1624 823 1624H723Q703 1624 698 1635T702 1658L844 1894Q866 1929 907 1929H1104ZM318 399L141 39Q120 -5 63 -2L-96 4Q-133 5 -145
28T-141 80L543 1397Q564 1437 594 1458T655 1479L891 1481Q929 1481 951 1456T971 1382L895 45Q892 0 834 0H668Q618 0 621 55L643 399H318ZM437 643H660L695 1169L437 643Z" />
<glyph unicode="&#xc2;" glyph-name="Acircumflex" horiz-adv-x="1044" d="M812 1747L688 1624Q673 1609 663 1605T631 1601H514Q491 1601 487 1616T502 1648L774 1898Q811 1929 832 1927L869 1925Q899 1922 918 1888L1057 1636Q1066 1622 1061 1612T1037 1601H910Q889
1601 881 1605T867 1624L812 1747ZM318 399L141 39Q120 -5 63 -2L-96 4Q-133 5 -145 28T-141 80L543 1397Q564 1437 594 1458T655 1479L891 1481Q929 1481 951 1456T971 1382L895 45Q892 0 834 0H668Q618 0 621 55L643 399H318ZM437 643H660L695 1169L437 643Z"
/>
<glyph unicode="&#xc3;" glyph-name="Atilde" horiz-adv-x="1044" d="M416 1693Q416 1693 444 1796Q452 1826 460 1837T481 1855Q536 1882 628 1884T799 1863Q888 1838 960 1839T1120 1863Q1148 1870 1161 1851T1167 1798L1141 1681Q1135 1656 1124 1645T1085
1622Q1046 1606 998 1599T891 1595T782 1620Q640 1678 477 1626Q437 1613 422 1635T416 1693ZM318 399L141 39Q120 -5 63 -2L-96 4Q-133 5 -145 28T-141 80L543 1397Q564 1437 594 1458T655 1479L891 1481Q929 1481 951 1456T971 1382L895 45Q892 0 834 0H668Q618
0 621 55L643 399H318ZM437 643H660L695 1169L437 643Z" />
<glyph unicode="&#xc4;" glyph-name="Adieresis" horiz-adv-x="1044" d="M859 1802Q859 1858 899 1897T1002 1937H1028Q1076 1937 1118 1896T1160 1802Q1160 1745 1118 1706T1012 1667H988Q936 1667 898 1707T859 1802ZM449 1802Q449 1858 489 1897T592 1937H619Q667
1937 708 1896T750 1802Q750 1745 708 1706T603 1667H578Q526 1667 488 1707T449 1802ZM318 399L141 39Q120 -5 63 -2L-96 4Q-133 5 -145 28T-141 80L543 1397Q564 1437 594 1458T655 1479L891 1481Q929 1481 951 1456T971 1382L895 45Q892 0 834 0H668Q618 0 621
55L643 399H318ZM437 643H660L695 1169L437 643Z" />
<glyph unicode="&#xc5;" glyph-name="Aring" horiz-adv-x="1134" d="M686 1483Q666 1423 682 1372T743 1307Q787 1295 832 1326T897 1415Q917 1475 899 1526T836 1591Q793 1605 749 1573T686 1483ZM469 1452Q484 1581 589 1673T827 1765T1044 1673T1114 1452Q1096
1311 973 1216L903 45Q900 0 842 0H676Q626 0 629 55L652 399H325L150 39Q129 -5 72 -2L-88 4Q-125 5 -137 28T-133 80L492 1285Q457 1364 469 1452ZM686 1144Q686 1144 443 643H669L703 1141Q700 1142 695 1143T686 1144Z" />
<glyph unicode="&#xc6;" glyph-name="AE" horiz-adv-x="1568" d="M327 399L100 39Q78 -7 23 -2L-158 4Q-197 6 -208 30T-195 92L674 1397Q733 1483 795 1483H881H1042H1056H1640Q1703 1483 1688 1417L1661 1296Q1657 1273 1636 1256T1591 1239H1098L1045 926H1468Q1526
926 1511 860L1487 739Q1483 716 1463 699T1421 682H1003L929 244H1337Q1399 244 1384 178L1358 57Q1354 34 1333 17T1288 0H834H674H668Q642 0 630 15T621 55L681 399H327ZM480 643H724L819 1183L480 643Z" />
<glyph unicode="&#xc7;" glyph-name="Ccedilla" horiz-adv-x="921" d="M514 -68Q514 -68 643 -109Q679 -118 666 -170Q641 -281 537 -350T295 -414Q283 -414 272 -407T258 -389L234 -313Q219 -264 261 -264Q355 -264 409 -215T463 -100Q463 -74 482 -67T514 -68ZM950
1104Q957 1055 909 1038L729 985Q706 979 686 993T664 1032Q658 1102 649 1139T621 1225Q609 1229 596 1229Q470 1229 350 770Q297 569 295 410T348 233Q369 240 387 253T418 279T449 323T478 374T516 446Q537 485 552 493T600 489L768 416Q788 409 789 384T774
334Q694 206 630 135T483 24T295 -16Q233 -16 164 27Q71 84 32 210T2 492T59 836Q106 1026 185 1174T376 1410T612 1499Q659 1499 721 1483Q821 1459 873 1371T950 1104Z" />
<glyph unicode="&#xc8;" glyph-name="Egrave" horiz-adv-x="927" d="M520 1929Q562 1929 584 1894L723 1669Q735 1647 726 1636T696 1624H608Q567 1624 539 1652L297 1892Q283 1906 287 1917T303 1929H520ZM647 0Q647 0 193 0H72H18Q-7 0 -18 18T-23 63L277 1239H203Q172
1239 163 1256T164 1313L197 1442Q203 1469 210 1476T238 1483H389H563H997Q1059 1483 1044 1417L1018 1296Q1014 1273 993 1256T948 1239H558L478 926H827Q885 926 870 860L844 739Q840 716 820 699T778 682H416L305 244H696Q754 244 739 178L713 57Q709 34 689
17T647 0Z" />
<glyph unicode="&#xc9;" glyph-name="Eacute" horiz-adv-x="927" d="M963 1929Q985 1929 991 1915T977 1878L752 1652Q724 1624 682 1624H582Q562 1624 557 1635T561 1658L703 1894Q725 1929 766 1929H963ZM647 0Q647 0 193 0H72H18Q-7 0 -18 18T-23 63L277 1239H203Q172
1239 163 1256T164 1313L197 1442Q203 1469 210 1476T238 1483H389H563H997Q1059 1483 1044 1417L1018 1296Q1014 1273 993 1256T948 1239H558L478 926H827Q885 926 870 860L844 739Q840 716 820 699T778 682H416L305 244H696Q754 244 739 178L713 57Q709 34 689
17T647 0Z" />
<glyph unicode="&#xca;" glyph-name="Ecircumflex" horiz-adv-x="927" d="M670 1747L546 1624Q531 1609 521 1605T489 1601H372Q349 1601 345 1616T360 1648L632 1898Q669 1929 690 1927L727 1925Q757 1922 776 1888L915 1636Q924 1622 919 1612T895 1601H768Q747
1601 739 1605T725 1624L670 1747ZM647 0Q647 0 193 0H72H18Q-7 0 -18 18T-23 63L277 1239H203Q172 1239 163 1256T164 1313L197 1442Q203 1469 210 1476T238 1483H389H563H997Q1059 1483 1044 1417L1018 1296Q1014 1273 993 1256T948 1239H558L478 926H827Q885
926 870 860L844 739Q840 716 820 699T778 682H416L305 244H696Q754 244 739 178L713 57Q709 34 689 17T647 0Z" />
<glyph unicode="&#xcb;" glyph-name="Edieresis" horiz-adv-x="927" d="M717 1802Q717 1858 757 1897T860 1937H886Q934 1937 976 1896T1018 1802Q1018 1745 976 1706T870 1667H846Q794 1667 756 1707T717 1802ZM307 1802Q307 1858 347 1897T450 1937H477Q525
1937 566 1896T608 1802Q608 1745 566 1706T461 1667H436Q384 1667 346 1707T307 1802ZM647 0Q647 0 193 0H72H18Q-7 0 -18 18T-23 63L277 1239H203Q172 1239 163 1256T164 1313L197 1442Q203 1469 210 1476T238 1483H389H563H997Q1059 1483 1044 1417L1018 1296Q1014
1273 993 1256T948 1239H558L478 926H827Q885 926 870 860L844 739Q840 716 820 699T778 682H416L305 244H696Q754 244 739 178L713 57Q709 34 689 17T647 0Z" />
<glyph unicode="&#xcc;" glyph-name="Igrave" horiz-adv-x="565" d="M326 1438Q338 1483 387 1483H561Q586 1483 597 1464T602 1419L252 45Q240 0 190 0H16Q-9 0 -20 18T-25 63L326 1438ZM330 1929Q371 1929 393 1894L532 1669Q544 1647 536 1636T506 1624H418Q377
1624 348 1653L106 1892Q93 1906 97 1917T113 1929H330Z" />
<glyph unicode="&#xcd;" glyph-name="Iacute" horiz-adv-x="565" d="M326 1438Q338 1483 387 1483H561Q586 1483 597 1464T602 1419L252 45Q240 0 190 0H16Q-9 0 -20 18T-25 63L326 1438ZM811 1929Q833 1929 839 1915T825 1878L600 1653Q571 1624 530 1624H430Q410
1624 406 1635T410 1659L551 1894Q573 1929 614 1929H811Z" />
<glyph unicode="&#xce;" glyph-name="Icircumflex" horiz-adv-x="565" d="M326 1438Q338 1483 387 1483H561Q586 1483 597 1464T602 1419L252 45Q240 0 190 0H16Q-9 0 -20 18T-25 63L326 1438ZM519 1748L395 1624Q380 1609 370 1606T338 1602H221Q198 1602 194
1617T209 1649L481 1898Q518 1929 539 1927L575 1925Q606 1922 625 1888L764 1636Q773 1622 767 1612T743 1602H616Q595 1602 587 1606T573 1624L519 1748Z" />
<glyph unicode="&#xcf;" glyph-name="Idieresis" horiz-adv-x="565" d="M326 1438Q338 1483 387 1483H561Q586 1483 597 1464T602 1419L252 45Q240 0 190 0H16Q-9 0 -20 18T-25 63L326 1438ZM565 1802Q565 1858 606 1897T709 1937H735Q783 1937 824 1896T866 1802Q866
1745 824 1706T719 1667H694Q642 1667 604 1707T565 1802ZM156 1802Q156 1858 196 1897T299 1937H326Q374 1937 415 1896T457 1802Q457 1745 415 1706T309 1667H285Q233 1667 195 1707T156 1802Z" />
<glyph unicode="&#xd0;" glyph-name="Eth" horiz-adv-x="946" d="M166 780Q166 780 803 780Q864 780 850 715L823 594Q819 571 798 554T754 537Q754 537 139 537Q108 537 99 553T100 610L133 739Q139 765 145 772T166 780Z" />
<glyph unicode="&#xd1;" glyph-name="Ntilde" horiz-adv-x="1218" d="M885 1849Q1005 1808 1046 1808Q1080 1808 1104 1815T1171 1843Q1195 1854 1209 1834T1214 1779L1186 1681Q1177 1644 1139 1620Q1110 1601 1085 1593T1014 1585Q986 1585 942 1594T870 1615Q860
1619 836 1630T797 1648T762 1659T725 1665Q661 1665 608 1634Q586 1621 572 1620T553 1627T546 1652T547 1687L553 1753Q560 1808 588 1828Q666 1882 754 1882Q770 1882 790 1878T824 1870T859 1858T885 1849ZM326 1438Q338 1483 387 1483H401H528H561Q583 1483
594 1469Q600 1465 604 1459T609 1447T613 1433T616 1419L795 635L999 1438Q1011 1483 1061 1483H1235Q1260 1483 1271 1464T1276 1419L926 45Q914 0 864 0H858H690H684Q662 0 654 19Q647 31 647 45Q645 57 643 63L461 865L252 45Q240 0 190 0H16Q-9 0 -20 18T-25
63L326 1438Z" />
<glyph unicode="&#xd2;" glyph-name="Ograve" horiz-adv-x="921" d="M530 1929Q572 1929 594 1894L733 1669Q745 1647 736 1636T706 1624H618Q577 1624 549 1652L307 1892Q293 1906 297 1917T313 1929H530ZM350 770Q308 608 295 486T297 299T358 233Q392 233 420
255T483 336Q547 448 610 698Q640 820 656 915T675 1081T663 1189T614 1227Q572 1227 544 1210T483 1139Q418 1033 350 770ZM59 836Q108 1026 187 1173T378 1410T614 1499Q662 1499 719 1486T817 1448Q891 1404 922 1316T954 1083Q954 898 885 625Q851 492 804
381T692 181T542 41T360 -10Q241 -10 168 31Q79 81 42 185T4 451Q4 623 59 836Z" />
<glyph unicode="&#xd3;" glyph-name="Oacute" horiz-adv-x="921" d="M1012 1929Q1034 1929 1040 1915T1026 1878L801 1652Q773 1624 731 1624H631Q611 1624 606 1635T610 1658L752 1894Q774 1929 815 1929H1012ZM350 770Q308 608 295 486T297 299T358 233Q392
233 420 255T483 336Q547 448 610 698Q640 820 656 915T675 1081T663 1189T614 1227Q572 1227 544 1210T483 1139Q418 1033 350 770ZM59 836Q108 1026 187 1173T378 1410T614 1499Q662 1499 719 1486T817 1448Q891 1404 922 1316T954 1083Q954 898 885 625Q851
492 804 381T692 181T542 41T360 -10Q241 -10 168 31Q79 81 42 185T4 451Q4 623 59 836Z" />
<glyph unicode="&#xd4;" glyph-name="Ocircumflex" horiz-adv-x="921" d="M720 1747L596 1624Q581 1609 571 1605T539 1601H422Q399 1601 395 1616T410 1648L682 1898Q719 1929 740 1927L777 1925Q807 1922 826 1888L965 1636Q974 1622 969 1612T945 1601H818Q797
1601 789 1605T775 1624L720 1747ZM350 770Q308 608 295 486T297 299T358 233Q392 233 420 255T483 336Q547 448 610 698Q640 820 656 915T675 1081T663 1189T614 1227Q572 1227 544 1210T483 1139Q418 1033 350 770ZM59 836Q108 1026 187 1173T378 1410T614 1499Q662
1499 719 1486T817 1448Q891 1404 922 1316T954 1083Q954 898 885 625Q851 492 804 381T692 181T542 41T360 -10Q241 -10 168 31Q79 81 42 185T4 451Q4 623 59 836Z" />
<glyph unicode="&#xd5;" glyph-name="Otilde" horiz-adv-x="921" d="M324 1693Q324 1693 352 1796Q360 1826 368 1837T389 1855Q444 1882 536 1884T707 1863Q796 1838 868 1839T1028 1863Q1056 1870 1069 1851T1075 1798L1049 1681Q1043 1656 1032 1645T993 1622Q954
1606 906 1599T799 1595T690 1620Q548 1678 385 1626Q345 1613 330 1635T324 1693ZM350 770Q308 608 295 486T297 299T358 233Q392 233 420 255T483 336Q547 448 610 698Q640 820 656 915T675 1081T663 1189T614 1227Q572 1227 544 1210T483 1139Q418 1033 350
770ZM59 836Q108 1026 187 1173T378 1410T614 1499Q662 1499 719 1486T817 1448Q891 1404 922 1316T954 1083Q954 898 885 625Q851 492 804 381T692 181T542 41T360 -10Q241 -10 168 31Q79 81 42 185T4 451Q4 623 59 836Z" />
<glyph unicode="&#xd6;" glyph-name="Odieresis" horiz-adv-x="921" d="M766 1802Q766 1858 806 1897T909 1937H935Q983 1937 1025 1896T1067 1802Q1067 1745 1025 1706T919 1667H895Q843 1667 805 1707T766 1802ZM356 1802Q356 1858 396 1897T499 1937H526Q574
1937 615 1896T657 1802Q657 1745 615 1706T510 1667H485Q433 1667 395 1707T356 1802ZM350 770Q308 608 295 486T297 299T358 233Q392 233 420 255T483 336Q547 448 610 698Q640 820 656 915T675 1081T663 1189T614 1227Q572 1227 544 1210T483 1139Q418 1033
350 770ZM59 836Q108 1026 187 1173T378 1410T614 1499Q662 1499 719 1486T817 1448Q891 1404 922 1316T954 1083Q954 898 885 625Q851 492 804 381T692 181T542 41T360 -10Q241 -10 168 31Q79 81 42 185T4 451Q4 623 59 836Z" />
<glyph unicode="&#xd7;" glyph-name="multiply" horiz-adv-x="956" d="M621 622L768 162Q778 133 768 118T725 84L608 18Q566 -4 541 9T506 63L423 406L207 51Q206 50 201 44T194 35T186 28T176 22T165 19T152 20T137 27L-6 119Q-37 137 -41 152T-25 203L302 668L168
1098Q163 1114 160 1126T158 1147T159 1163T166 1175T176 1185T190 1195T205 1206L328 1268Q355 1286 378 1270T412 1214L515 854L762 1225Q794 1274 831 1251L965 1174Q999 1153 1001 1134T981 1087L621 622Z" />
<glyph unicode="&#xd8;" glyph-name="Oslash" horiz-adv-x="921" d="M1137 1374Q1137 1374 953 1151Q954 1129 954 1083Q954 898 885 625Q851 492 804 381T692 181T542 41T360 -10Q241 -10 168 31Q119 59 86 103L55 66Q12 12 -14 33L-104 104Q-122 119 -129 128T-134
156T-113 197L8 344Q4 388 4 451Q4 623 59 836Q108 1026 187 1173T378 1410T614 1499Q662 1499 719 1486T817 1448Q852 1427 876 1398L950 1489Q984 1531 1024 1503L1112 1444Q1169 1411 1137 1374ZM350 770Q349 768 348 763T346 754L672 1151Q661 1227 614 1227Q572
1227 544 1210T483 1139Q418 1033 350 770ZM290 350Q299 233 358 233Q392 233 420 255T483 336Q547 448 610 698Q615 717 623 753L290 350Z" />
<glyph unicode="&#xd9;" glyph-name="Ugrave" horiz-adv-x="1122" d="M592 1929Q634 1929 656 1894L795 1669Q807 1647 798 1636T768 1624H680Q639 1624 611 1652L369 1892Q355 1906 359 1917T375 1929H592ZM442 -14Q247 -14 164 72Q84 153 74 291T115 618L326
1438Q338 1483 387 1483H569Q594 1483 605 1464T610 1419L403 596Q351 401 362 305T461 209Q509 209 546 241T621 361T698 602L911 1438Q923 1483 973 1483H1139Q1164 1483 1175 1464T1180 1419L979 625Q950 511 922 426T848 253T748 111T616 21T442 -14Z" />
<glyph unicode="&#xda;" glyph-name="Uacute" horiz-adv-x="1122" d="M1074 1929Q1096 1929 1102 1915T1088 1878L863 1652Q835 1624 793 1624H693Q673 1624 668 1635T672 1658L814 1894Q836 1929 877 1929H1074ZM442 -14Q247 -14 164 72Q84 153 74 291T115 618L326
1438Q338 1483 387 1483H569Q594 1483 605 1464T610 1419L403 596Q351 401 362 305T461 209Q509 209 546 241T621 361T698 602L911 1438Q923 1483 973 1483H1139Q1164 1483 1175 1464T1180 1419L979 625Q950 511 922 426T848 253T748 111T616 21T442 -14Z" />
<glyph unicode="&#xdb;" glyph-name="Ucircumflex" horiz-adv-x="1122" d="M781 1747L657 1624Q642 1609 632 1605T600 1601H483Q460 1601 456 1616T471 1648L743 1898Q780 1929 801 1927L838 1925Q868 1922 887 1888L1026 1636Q1035 1622 1030 1612T1006 1601H879Q858
1601 850 1605T836 1624L781 1747ZM442 -14Q247 -14 164 72Q84 153 74 291T115 618L326 1438Q338 1483 387 1483H569Q594 1483 605 1464T610 1419L403 596Q351 401 362 305T461 209Q509 209 546 241T621 361T698 602L911 1438Q923 1483 973 1483H1139Q1164 1483
1175 1464T1180 1419L979 625Q950 511 922 426T848 253T748 111T616 21T442 -14Z" />
<glyph unicode="&#xdc;" glyph-name="Udieresis" horiz-adv-x="1122" d="M828 1802Q828 1858 868 1897T971 1937H997Q1045 1937 1087 1896T1129 1802Q1129 1745 1087 1706T981 1667H957Q905 1667 867 1707T828 1802ZM418 1802Q418 1858 458 1897T561 1937H588Q636
1937 677 1896T719 1802Q719 1745 677 1706T572 1667H547Q495 1667 457 1707T418 1802ZM442 -14Q247 -14 164 72Q84 153 74 291T115 618L326 1438Q338 1483 387 1483H569Q594 1483 605 1464T610 1419L403 596Q351 401 362 305T461 209Q509 209 546 241T621 361T698
602L911 1438Q923 1483 973 1483H1139Q1164 1483 1175 1464T1180 1419L979 625Q950 511 922 426T848 253T748 111T616 21T442 -14Z" />
<glyph unicode="&#xdd;" glyph-name="Yacute" horiz-adv-x="892" d="M973 1929Q995 1929 1001 1915T987 1878L762 1652Q734 1624 692 1624H592Q572 1624 567 1635T571 1658L713 1894Q735 1929 776 1929H973ZM535 916Q744 1232 844 1456Q857 1486 905 1483L1079
1475Q1103 1473 1112 1453T1104 1401Q876 1000 580 604L438 45Q426 0 377 0H203Q178 0 167 18T162 63L305 628Q305 764 274 1013T209 1391Q196 1427 210 1453T254 1481L418 1489Q447 1491 459 1482T477 1440Q524 1160 535 916Z" />
<glyph unicode="&#xde;" glyph-name="Thorn" horiz-adv-x="962" d="M326 1438Q338 1483 387 1483H561Q586 1483 597 1464T602 1419L582 1341H651Q790 1341 876 1275T963 1075Q963 946 911 800T799 600Q797 598 793 594Q770 570 755 558T703 523T624 489T513 466T356
455L252 45Q240 0 190 0H16Q-9 0 -20 18T-25 63L326 1438ZM411 668L489 674Q599 680 655 784Q672 833 688 917T705 1051Q705 1070 685 1084T643 1098Q634 1098 617 1098T571 1099T521 1100L411 668Z" />
<glyph unicode="&#xdf;" glyph-name="germandbls" horiz-adv-x="995" d="M141 0Q141 0 -14 0Q-40 0 -52 13T-59 47L227 1126Q249 1211 290 1289T390 1434T532 1541T709 1581Q778 1581 838 1554T941 1482T1005 1373T1025 1242T988 1098T887 954Q877 941 848 907T805
856T779 812T766 760Q766 727 785 697T832 637T887 574T934 485T954 362Q954 292 926 222T847 95T719 3T551 -33Q492 -33 447 -16T375 30T331 98T308 178T301 264Q301 289 312 309T342 336L504 387Q533 395 550 387T567 358Q565 295 572 238T606 180Q636 183 650
233T664 336Q664 391 644 429T596 489T540 533T491 596T471 694Q471 868 680 1085Q726 1133 748 1180T771 1261T759 1323T725 1364T682 1378Q625 1378 569 1297T487 1118L201 45Q189 0 141 0Z" />
<glyph unicode="&#xe0;" glyph-name="agrave" horiz-adv-x="880" d="M501 1553Q543 1553 565 1518L704 1293Q716 1271 707 1260T677 1248H589Q548 1248 520 1276L278 1516Q264 1530 268 1541T284 1553H501ZM705 12Q705 12 651 141H652L648 150L629 127Q566 52
531 23T459 -6H444Q409 -6 342 61Q253 150 264 260Q286 482 380 732T561 1049Q630 1102 725 1102Q814 1102 893 1045L895 1055Q899 1072 903 1082T918 1101T946 1110L1077 1112Q1153 1112 1135 1044L910 292Q939 323 954 348Q974 381 1006 362L1096 303Q1128 281
1110 256Q1038 151 942 76T741 -10Q717 -13 705 12ZM851 874Q771 900 741 879Q699 847 634 670T545 367Q538 329 539 317T555 305Q571 305 602 341T674 446Q766 604 851 874Z" />
<glyph unicode="&#xe1;" glyph-name="aacute" horiz-adv-x="880" d="M885 1553Q907 1553 913 1539T899 1502L674 1276Q646 1248 604 1248H504Q484 1248 479 1259T483 1282L625 1518Q647 1553 688 1553H885ZM705 12Q705 12 651 141H652L648 150L629 127Q566 52
531 23T459 -6H444Q409 -6 342 61Q253 150 264 260Q286 482 380 732T561 1049Q630 1102 725 1102Q814 1102 893 1045L895 1055Q899 1072 903 1082T918 1101T946 1110L1077 1112Q1153 1112 1135 1044L910 292Q939 323 954 348Q974 381 1006 362L1096 303Q1128 281
1110 256Q1038 151 942 76T741 -10Q717 -13 705 12ZM851 874Q771 900 741 879Q699 847 634 670T545 367Q538 329 539 317T555 305Q571 305 602 341T674 446Q766 604 851 874Z" />
<glyph unicode="&#xe2;" glyph-name="acircumflex" horiz-adv-x="880" d="M593 1371L469 1248Q454 1233 444 1229T412 1225H295Q272 1225 268 1240T283 1272L555 1522Q592 1553 613 1551L650 1549Q680 1546 699 1512L838 1260Q847 1246 842 1236T818 1225H691Q670
1225 662 1229T648 1248L593 1371ZM705 12Q705 12 651 141H652L648 150L629 127Q566 52 531 23T459 -6H444Q409 -6 342 61Q253 150 264 260Q286 482 380 732T561 1049Q630 1102 725 1102Q814 1102 893 1045L895 1055Q899 1072 903 1082T918 1101T946 1110L1077
1112Q1153 1112 1135 1044L910 292Q939 323 954 348Q974 381 1006 362L1096 303Q1128 281 1110 256Q1038 151 942 76T741 -10Q717 -13 705 12ZM851 874Q771 900 741 879Q699 847 634 670T545 367Q538 329 539 317T555 305Q571 305 602 341T674 446Q766 604 851
874Z" />
<glyph unicode="&#xe3;" glyph-name="atilde" horiz-adv-x="880" d="M197 1317Q197 1317 225 1420Q233 1450 241 1461T262 1479Q317 1506 409 1508T580 1487Q669 1462 741 1463T901 1487Q929 1494 942 1475T948 1422L922 1305Q916 1280 905 1269T866 1246Q827
1230 779 1223T672 1219T563 1244Q421 1302 258 1250Q218 1237 203 1259T197 1317ZM705 12Q705 12 651 141H652L648 150L629 127Q566 52 531 23T459 -6H444Q409 -6 342 61Q253 150 264 260Q286 482 380 732T561 1049Q630 1102 725 1102Q814 1102 893 1045L895 1055Q899
1072 903 1082T918 1101T946 1110L1077 1112Q1153 1112 1135 1044L910 292Q939 323 954 348Q974 381 1006 362L1096 303Q1128 281 1110 256Q1038 151 942 76T741 -10Q717 -13 705 12ZM851 874Q771 900 741 879Q699 847 634 670T545 367Q538 329 539 317T555 305Q571
305 602 341T674 446Q766 604 851 874Z" />
<glyph unicode="&#xe4;" glyph-name="adieresis" horiz-adv-x="880" d="M705 12Q705 12 651 141H652L648 150L629 127Q566 52 531 23T459 -6H444Q409 -6 342 61Q253 150 264 260Q286 482 380 732T561 1049Q630 1102 725 1102Q814 1102 893 1045L895 1055Q899 1072
903 1082T918 1101T946 1110L1077 1112Q1153 1112 1135 1044L910 292Q939 323 954 348Q974 381 1006 362L1096 303Q1128 281 1110 256Q1038 151 942 76T741 -10Q717 -13 705 12ZM851 874Q771 900 741 879Q699 847 634 670T545 367Q538 329 539 317T555 305Q571
305 602 341T674 446Q766 604 851 874ZM895 1426Q895 1482 935 1521T1038 1561H1064Q1112 1561 1154 1520T1196 1426Q1196 1369 1154 1330T1048 1291H1024Q972 1291 934 1331T895 1426ZM485 1426Q485 1482 525 1521T628 1561H655Q703 1561 744 1520T786 1426Q786
1369 744 1330T639 1291H614Q562 1291 524 1331T485 1426Z" />
<glyph unicode="&#xe5;" glyph-name="aring" horiz-adv-x="880" d="M307 1528Q322 1657 427 1749T665 1842T882 1750T952 1528Q935 1399 829 1307T589 1215T373 1307T307 1528ZM530 1553Q510 1493 526 1442T587 1377Q631 1365 676 1396T741 1485Q761 1545 743
1596T680 1661Q637 1675 593 1643T530 1553ZM705 12Q705 12 651 141H652L648 150L629 127Q566 52 531 23T459 -6H444Q409 -6 342 61Q253 150 264 260Q286 482 380 732T561 1049Q630 1102 725 1102Q814 1102 893 1045L895 1055Q899 1072 903 1082T918 1101T946 1110L1077
1112Q1153 1112 1135 1044L910 292Q939 323 954 348Q974 381 1006 362L1096 303Q1128 281 1110 256Q1038 151 942 76T741 -10Q717 -13 705 12ZM851 874Q771 900 741 879Q699 847 634 670T545 367Q538 329 539 317T555 305Q571 305 602 341T674 446Q766 604 851
874Z" />
<glyph unicode="&#xe6;" glyph-name="ae" horiz-adv-x="1013" d="M626 564Q705 601 756 680T807 844Q807 876 801 887T780 899Q764 899 735 861T696 795Q660 703 626 564ZM577 345Q576 343 575 338T573 330Q566 295 565 275T570 243T583 229T608 219Q642 226 745
336Q753 344 765 345T786 340L887 279Q899 272 904 257T905 233Q869 163 739 58T559 -39Q418 -3 366 64Q312 4 246 -15T113 -8Q-31 54 -31 203Q-31 305 34 407T201 583T417 696Q418 702 420 713T424 731Q436 804 428 825T389 856Q355 849 252 739Q244 731 232 730T211
735L111 797Q99 804 93 818T92 842Q128 912 258 1017T438 1114Q579 1078 631 1012Q752 1140 885 1083Q1028 1022 1028 872Q1028 767 963 657T795 464T577 345ZM366 475Q287 437 239 374T190 231Q190 199 196 188T217 176Q234 176 263 208T301 266Q334 348 366 475Z"
/>
<glyph unicode="&#xe7;" glyph-name="ccedilla" horiz-adv-x="815" d="M213 -68Q213 -68 342 -109Q378 -118 365 -170Q340 -281 236 -350T-6 -414Q-18 -414 -29 -407T-43 -389L-67 -313Q-82 -264 -40 -264Q54 -264 108 -215T162 -100Q162 -74 181 -67T213 -68ZM502
1114Q576 1106 641 1074T731 1014Q747 996 748 975T739 942L645 842Q628 825 617 822T586 827Q491 880 467 874Q440 867 398 793T326 644T283 528Q269 485 253 394T236 268Q236 210 252 207Q356 294 371 309Q399 337 442 309L528 252Q546 241 548 218T541 186Q504
130 414 58T287 -20Q229 -30 133 18T14 117Q-14 183 -16 272T1 448T50 620T110 770T168 874Q342 1132 502 1114Z" />
<glyph unicode="&#xe8;" glyph-name="egrave" horiz-adv-x="704" d="M458 1553Q500 1553 522 1518L661 1293Q673 1271 664 1260T634 1248H546Q505 1248 477 1276L235 1516Q221 1530 225 1541T241 1553H458ZM323 524Q394 569 445 666T497 844Q497 876 492 887T471
899T437 867T405 803Q365 699 323 524ZM275 301Q266 254 270 241T299 219Q333 226 436 336Q444 344 456 345T477 340L577 279Q589 272 594 257T595 233Q559 163 429 57T249 -39Q53 4 26 129Q8 217 39 397T135 752T270 991Q316 1035 366 1062T471 1097T575 1083Q718
1022 718 872Q718 770 654 652T487 438T275 301Z" />
<glyph unicode="&#xe9;" glyph-name="eacute" horiz-adv-x="704" d="M885 1553Q907 1553 913 1539T899 1502L674 1276Q646 1248 604 1248H504Q484 1248 479 1259T483 1282L625 1518Q647 1553 688 1553H885ZM323 524Q394 569 445 666T497 844Q497 876 492 887T471
899T437 867T405 803Q365 699 323 524ZM275 301Q266 254 270 241T299 219Q333 226 436 336Q444 344 456 345T477 340L577 279Q589 272 594 257T595 233Q559 163 429 57T249 -39Q53 4 26 129Q8 217 39 397T135 752T270 991Q316 1035 366 1062T471 1097T575 1083Q718
1022 718 872Q718 770 654 652T487 438T275 301Z" />
<glyph unicode="&#xea;" glyph-name="ecircumflex" horiz-adv-x="704" d="M593 1371L469 1248Q454 1233 444 1229T412 1225H295Q272 1225 268 1240T283 1272L555 1522Q592 1553 613 1551L650 1549Q680 1546 699 1512L838 1260Q847 1246 842 1236T818 1225H691Q670
1225 662 1229T648 1248L593 1371ZM323 524Q394 569 445 666T497 844Q497 876 492 887T471 899T437 867T405 803Q365 699 323 524ZM275 301Q266 254 270 241T299 219Q333 226 436 336Q444 344 456 345T477 340L577 279Q589 272 594 257T595 233Q559 163 429 57T249
-39Q53 4 26 129Q8 217 39 397T135 752T270 991Q316 1035 366 1062T471 1097T575 1083Q718 1022 718 872Q718 770 654 652T487 438T275 301Z" />
<glyph unicode="&#xeb;" glyph-name="edieresis" horiz-adv-x="704" d="M323 524Q394 569 445 666T497 844Q497 876 492 887T471 899T437 867T405 803Q365 699 323 524ZM275 301Q266 254 270 241T299 219Q333 226 436 336Q444 344 456 345T477 340L577 279Q589
272 594 257T595 233Q559 163 429 57T249 -39Q53 4 26 129Q8 217 39 397T135 752T270 991Q316 1035 366 1062T471 1097T575 1083Q718 1022 718 872Q718 770 654 652T487 438T275 301ZM895 1426Q895 1482 935 1521T1038 1561H1064Q1112 1561 1154 1520T1196 1426Q1196
1369 1154 1330T1048 1291H1024Q972 1291 934 1331T895 1426ZM485 1426Q485 1482 525 1521T628 1561H655Q703 1561 744 1520T786 1426Q786 1369 744 1330T639 1291H614Q562 1291 524 1331T485 1426Z" />
<glyph unicode="&#xec;" glyph-name="igrave" horiz-adv-x="540" d="M581 1553Q623 1553 645 1518L784 1293Q796 1271 787 1260T757 1248H669Q628 1248 600 1276L358 1516Q344 1530 348 1541T364 1553H581ZM535 1059Q535 1059 268 45Q256 0 207 0H41Q-15 0 -4
47L262 1061Q274 1106 324 1106H489Q546 1106 535 1059Z" />
<glyph unicode="&#xed;" glyph-name="iacute" horiz-adv-x="540" d="M732 1553Q754 1553 760 1539T746 1502L521 1276Q493 1248 451 1248H351Q331 1248 326 1259T330 1282L472 1518Q494 1553 535 1553H732ZM535 1059Q535 1059 268 45Q256 0 207 0H41Q-15 0 -4
47L262 1061Q274 1106 324 1106H489Q546 1106 535 1059Z" />
<glyph unicode="&#xee;" glyph-name="icircumflex" horiz-adv-x="540" d="M695 1371L571 1248Q556 1233 546 1229T514 1225H397Q374 1225 370 1240T385 1272L657 1522Q694 1553 715 1551L752 1549Q782 1546 801 1512L940 1260Q949 1246 944 1236T920 1225H793Q772
1225 764 1229T750 1248L695 1371ZM535 1059Q535 1059 268 45Q256 0 207 0H41Q-15 0 -4 47L262 1061Q274 1106 324 1106H489Q546 1106 535 1059Z" />
<glyph unicode="&#xef;" glyph-name="idieresis" horiz-adv-x="540" d="M485 1425Q485 1481 526 1521T629 1561H655Q703 1561 744 1519T786 1425Q786 1368 744 1329T639 1290H614Q562 1290 524 1330T485 1425ZM76 1425Q76 1482 116 1521T219 1561H246Q294 1561
335 1519T377 1425Q377 1368 335 1329T229 1290H205Q153 1290 115 1330T76 1425ZM535 1059Q535 1059 268 45Q256 0 207 0H41Q-15 0 -4 47L262 1061Q274 1106 324 1106H489Q546 1106 535 1059Z" />
<glyph unicode="&#xf0;" glyph-name="eth" horiz-adv-x="770" d="M305 1374Q305 1374 465 1407Q449 1459 428 1507Q421 1529 431 1542T465 1556H655Q678 1556 694 1542T715 1505Q716 1500 719 1485T725 1460L815 1479Q851 1485 868 1454L920 1358Q931 1340 922
1319T883 1292L762 1267Q775 1192 782 1118Q809 873 768 638T631 251Q625 239 621 233Q552 118 468 51T293 -16Q227 -16 182 -2T90 63Q44 112 22 192T0 358Q0 582 123 842Q176 963 272 1043T502 1124Q520 1124 536 1121Q536 1122 536 1124T535 1128Q527 1175 517
1216L412 1194Q361 1183 338 1227L295 1325Q271 1364 305 1374ZM510 580Q521 616 530 683T530 817T483 885Q441 885 409 842T344 715Q343 713 333 687T315 638T294 576T273 504T258 430T252 358Q252 290 261 263T307 229Q342 234 366 255T420 332Q452 393 477 466T510
580Z" />
<glyph unicode="&#xf1;" glyph-name="ntilde" horiz-adv-x="872" d="M213 1317Q213 1317 241 1420Q249 1450 257 1461T278 1479Q333 1506 425 1508T596 1487Q685 1462 757 1463T917 1487Q945 1494 958 1475T964 1422L938 1305Q932 1280 921 1269T882 1246Q843
1230 795 1223T688 1219T579 1244Q437 1302 274 1250Q234 1237 219 1259T213 1317ZM401 803L551 1012Q587 1060 622 1083T705 1106H805Q852 1106 881 1077T891 975L641 29Q632 -2 590 -2L424 0Q413 0 405 12T403 49L530 516Q532 525 537 542T546 572T554 601T560
629T563 650T562 666T553 672T542 668T529 654T516 636T501 611T485 584Q429 493 324 284T193 39Q164 0 129 0H4Q-14 0 -24 15T-29 53L238 1049Q251 1106 299 1106H430Q469 1106 481 1092T481 1042L401 803Z" />
<glyph unicode="&#xf2;" glyph-name="ograve" horiz-adv-x="804" d="M379 1553Q421 1553 443 1518L582 1293Q594 1271 585 1260T555 1248H467Q426 1248 398 1276L156 1516Q142 1530 146 1541T162 1553H379ZM430 332Q462 393 487 466T520 580Q531 616 540 683T540
817T493 885Q451 885 419 842T354 715Q353 713 343 687T325 638T304 576T283 504T268 430T262 358Q262 290 271 263T317 229Q352 234 376 255T430 332ZM133 842Q186 963 282 1043T512 1124Q589 1124 646 1095T743 987Q760 955 768 909T777 835T778 743Q778 616
738 481T631 233Q562 118 478 51T303 -16Q237 -16 192 -2T100 63Q54 112 32 192T10 358Q10 582 133 842Z" />
<glyph unicode="&#xf3;" glyph-name="oacute" horiz-adv-x="804" d="M861 1553Q883 1553 889 1539T875 1502L650 1276Q622 1248 580 1248H480Q460 1248 455 1259T459 1282L601 1518Q623 1553 664 1553H861ZM430 332Q462 393 487 466T520 580Q531 616 540 683T540
817T493 885Q451 885 419 842T354 715Q353 713 343 687T325 638T304 576T283 504T268 430T262 358Q262 290 271 263T317 229Q352 234 376 255T430 332ZM133 842Q186 963 282 1043T512 1124Q589 1124 646 1095T743 987Q760 955 768 909T777 835T778 743Q778 616
738 481T631 233Q562 118 478 51T303 -16Q237 -16 192 -2T100 63Q54 112 32 192T10 358Q10 582 133 842Z" />
<glyph unicode="&#xf4;" glyph-name="ocircumflex" horiz-adv-x="804" d="M568 1371L444 1248Q429 1233 419 1229T387 1225H270Q247 1225 243 1240T258 1272L530 1522Q567 1553 588 1551L625 1549Q655 1546 674 1512L813 1260Q822 1246 817 1236T793 1225H666Q645
1225 637 1229T623 1248L568 1371ZM430 332Q462 393 487 466T520 580Q531 616 540 683T540 817T493 885Q451 885 419 842T354 715Q353 713 343 687T325 638T304 576T283 504T268 430T262 358Q262 290 271 263T317 229Q352 234 376 255T430 332ZM133 842Q186 963
282 1043T512 1124Q589 1124 646 1095T743 987Q760 955 768 909T777 835T778 743Q778 616 738 481T631 233Q562 118 478 51T303 -16Q237 -16 192 -2T100 63Q54 112 32 192T10 358Q10 582 133 842Z" />
<glyph unicode="&#xf5;" glyph-name="otilde" horiz-adv-x="804" d="M600 1473Q720 1432 762 1432Q815 1432 887 1466Q911 1477 925 1458T930 1403L901 1305Q892 1266 854 1243Q825 1224 800 1216T729 1208Q664 1208 586 1239Q578 1242 552 1254T512 1271T478
1282T440 1288Q377 1288 324 1257Q302 1244 288 1243T269 1251T262 1275T262 1311L268 1376Q275 1432 303 1452Q380 1505 469 1505Q485 1505 506 1501T539 1494T574 1482T600 1473ZM430 332Q462 393 487 466T520 580Q531 616 540 683T541 817T494 885Q452 885 420
842T354 715Q353 713 343 687T325 638T304 576T283 504T268 430T262 358Q262 290 271 263T317 229Q352 234 376 255T430 332ZM133 842Q186 963 282 1043T512 1124Q589 1124 646 1095T743 987Q760 955 768 909T777 835T778 743Q778 616 738 481T631 233Q562 118
478 51T303 -16Q237 -16 192 -2T100 63Q54 112 32 192T10 358Q10 582 133 842Z" />
<glyph unicode="&#xf6;" glyph-name="odieresis" horiz-adv-x="804" d="M430 332Q462 393 487 466T520 580Q531 616 540 683T540 817T493 885Q451 885 419 842T354 715Q353 713 343 687T325 638T304 576T283 504T268 430T262 358Q262 290 271 263T317 229Q352
234 376 255T430 332ZM133 842Q186 963 282 1043T512 1124Q589 1124 646 1095T743 987Q760 955 768 909T777 835T778 743Q778 616 738 481T631 233Q562 118 478 51T303 -16Q237 -16 192 -2T100 63Q54 112 32 192T10 358Q10 582 133 842ZM895 1426Q895 1482 935
1521T1038 1561H1064Q1112 1561 1154 1520T1196 1426Q1196 1369 1154 1330T1048 1291H1024Q972 1291 934 1331T895 1426ZM485 1426Q485 1482 525 1521T628 1561H655Q703 1561 744 1520T786 1426Q786 1369 744 1330T639 1291H614Q562 1291 524 1331T485 1426Z" />
<glyph unicode="&#xf7;" glyph-name="divide" horiz-adv-x="1064" d="M43 825Q43 825 1049 825Q1110 825 1096 760L1069 639Q1065 616 1044 599T1000 582Q1000 582 17 582Q-14 582 -23 598T-22 655L10 784Q16 810 22 817T43 825ZM454 1128Q454 1184 495 1223T598
1263H624Q672 1263 713 1222T755 1128Q755 1071 713 1032T608 993H583Q531 993 493 1033T454 1128ZM247 239Q247 295 288 334T391 374H417Q465 374 506 333T548 239Q548 182 506 143T401 104H376Q324 104 286 144T247 239Z" />
<glyph unicode="&#xf8;" glyph-name="oslash" horiz-adv-x="770" d="M1014 973Q1014 973 768 748V743Q768 616 728 481T621 233Q552 118 468 51T293 -16Q227 -16 182 -2T90 63Q74 80 60 104L-37 16Q-88 -29 -111 -6L-188 78Q-203 96 -208 106T-210 133T-184 170L0
339V358Q0 582 123 842Q176 963 272 1043T502 1124Q575 1124 630 1098T725 1002L846 1112Q866 1129 881 1131T920 1116L999 1044Q1046 1000 1014 973ZM420 332Q467 419 497 528L253 307Q255 271 267 253T307 229Q342 234 366 255T420 332ZM533 806Q524 885 483
885Q441 885 409 842T344 715Q314 641 298 591L533 806Z" />
<glyph unicode="&#xf9;" glyph-name="ugrave" horiz-adv-x="831" d="M501 1553Q543 1553 565 1518L704 1293Q716 1271 707 1260T677 1248H589Q548 1248 520 1276L278 1516Q264 1530 268 1541T284 1553H501ZM464 305L344 135Q295 58 253 28T158 -2H145Q63 -2 23
63T12 238L242 1077Q252 1106 293 1106H453Q493 1106 475 1047L317 516Q299 441 319 436Q340 431 387 518Q597 907 666 1059Q688 1106 733 1106H858Q876 1106 886 1091T891 1053L625 55Q612 0 563 0H436Q374 0 397 74L464 305Z" />
<glyph unicode="&#xfa;" glyph-name="uacute" horiz-adv-x="831" d="M861 1553Q883 1553 889 1539T875 1502L650 1276Q622 1248 580 1248H480Q460 1248 455 1259T459 1282L601 1518Q623 1553 664 1553H861ZM464 305L344 135Q295 58 253 28T158 -2H145Q63 -2 23
63T12 238L242 1077Q252 1106 293 1106H453Q493 1106 475 1047L317 516Q299 441 319 436Q340 431 387 518Q597 907 666 1059Q688 1106 733 1106H858Q876 1106 886 1091T891 1053L625 55Q612 0 563 0H436Q374 0 397 74L464 305Z" />
<glyph unicode="&#xfb;" glyph-name="ucircumflex" horiz-adv-x="831" d="M568 1371L444 1248Q429 1233 419 1229T387 1225H270Q247 1225 243 1240T258 1272L530 1522Q567 1553 588 1551L625 1549Q655 1546 674 1512L813 1260Q822 1246 817 1236T793 1225H666Q645
1225 637 1229T623 1248L568 1371ZM464 305L344 135Q295 58 253 28T158 -2H145Q63 -2 23 63T12 238L242 1077Q252 1106 293 1106H453Q493 1106 475 1047L317 516Q299 441 319 436Q340 431 387 518Q597 907 666 1059Q688 1106 733 1106H858Q876 1106 886 1091T891
1053L625 55Q612 0 563 0H436Q374 0 397 74L464 305Z" />
<glyph unicode="&#xfc;" glyph-name="udieresis" horiz-adv-x="831" d="M464 305L344 135Q295 58 253 28T158 -2H145Q63 -2 23 63T12 238L242 1077Q252 1106 293 1106H453Q493 1106 475 1047L317 516Q299 441 319 436Q340 431 387 518Q597 907 666 1059Q688 1106
733 1106H858Q876 1106 886 1091T891 1053L625 55Q612 0 563 0H436Q374 0 397 74L464 305ZM895 1426Q895 1482 935 1521T1038 1561H1064Q1112 1561 1154 1520T1196 1426Q1196 1369 1154 1330T1048 1291H1024Q972 1291 934 1331T895 1426ZM485 1426Q485 1482 525
1521T628 1561H655Q703 1561 744 1520T786 1426Q786 1369 744 1330T639 1291H614Q562 1291 524 1331T485 1426Z" />
<glyph unicode="&#xfd;" glyph-name="yacute" horiz-adv-x="813" d="M867 1553Q889 1553 895 1539T881 1502L656 1276Q628 1248 586 1248H486Q466 1248 461 1259T465 1282L607 1518Q629 1553 670 1553H867ZM435 246L358 125Q341 99 328 81T300 52T278 34T253 26T228
23T197 23H184Q112 23 63 84Q47 104 35 134T17 210T25 301L242 1077Q252 1106 293 1106H453Q493 1106 475 1047L317 516Q315 510 314 504Q297 439 318 437Q341 434 387 518Q597 907 666 1059Q688 1106 733 1106H827H828H852Q906 1106 895 1051Q854 886 779 619T636
116T563 -133Q519 -292 422 -344Q369 -373 340 -382T275 -387T193 -354L-16 -236Q-43 -224 -45 -200T-33 -162L33 -74Q51 -55 65 -51T100 -57L279 -154Q314 -172 334 -106L435 246Z" />
<glyph unicode="&#xfe;" glyph-name="thorn" horiz-adv-x="837" d="M584 1507Q584 1507 430 908L479 967Q542 1042 577 1071T649 1100H664Q698 1100 766 1032Q855 943 844 834Q822 612 728 362T547 45Q478 -8 383 -8Q292 -8 211 51L104 -365Q92 -410 43 -410H-98Q-131
-410 -144 -391T-152 -344L324 1509Q336 1554 385 1554H539Q595 1554 584 1507ZM258 219Q289 209 318 207T367 215Q409 247 474 424T563 727Q570 765 569 776T553 788Q537 788 506 752T434 647Q335 476 268 250L258 219Z" />
<glyph unicode="&#xff;" glyph-name="ydieresis" horiz-adv-x="813" d="M877 1426Q877 1482 917 1521T1020 1561H1046Q1094 1561 1136 1520T1178 1426Q1178 1369 1136 1330T1030 1291H1006Q954 1291 916 1331T877 1426ZM467 1426Q467 1482 507 1521T610 1561H637Q685
1561 726 1520T768 1426Q768 1369 726 1330T621 1291H596Q544 1291 506 1331T467 1426ZM435 246L358 125Q341 99 328 81T300 52T278 34T253 26T228 23T197 23H184Q112 23 63 84Q47 104 35 134T17 210T25 301L242 1077Q252 1106 293 1106H453Q493 1106 475 1047L317
516Q315 510 314 504Q297 439 318 437Q341 434 387 518Q597 907 666 1059Q688 1106 733 1106H827H828H852Q906 1106 895 1051Q854 886 779 619T636 116T563 -133Q519 -292 422 -344Q369 -373 340 -382T275 -387T193 -354L-16 -236Q-43 -224 -45 -200T-33 -162L33
-74Q51 -55 65 -51T100 -57L279 -154Q314 -172 334 -106L435 246Z" />
<glyph unicode="&#x2013;" glyph-name="endash" horiz-adv-x="1382" d="M176 780Q176 780 1182 780Q1243 780 1229 715L1202 594Q1198 571 1177 554T1133 537Q1133 537 150 537Q119 537 110 553T111 610L143 739Q149 765 155 772T176 780Z" />
<glyph unicode="&#x2014;" glyph-name="emdash" horiz-adv-x="1847" d="M176 780Q176 780 1774 780Q1835 780 1821 715L1794 594Q1790 571 1769 554T1724 537Q1724 537 150 537Q119 537 110 553T111 610L143 739Q149 765 155 772T176 780Z" />
<glyph unicode="&#x2018;" glyph-name="quoteleft" horiz-adv-x="464" d="M96 1087Q96 1159 118 1239T177 1386T242 1500T299 1581L318 1603Q336 1625 364 1647T412 1669Q457 1669 457 1626Q457 1571 432 1471T401 1339Q381 1195 381 1122Q381 1108 373 1100T357
1090T330 1083L145 1044Q96 1035 96 1087Z" />
<glyph unicode="&#x2019;" glyph-name="quoteright" horiz-adv-x="421" d="M525 1653Q525 1581 503 1501T444 1354T379 1241T322 1160Q251 1072 209 1072Q164 1072 164 1115Q164 1170 189 1269T220 1401Q240 1545 240 1618Q240 1632 248 1640T264 1650T291 1657L476
1696Q525 1705 525 1653Z" />
<glyph unicode="&#x201a;" glyph-name="quotesinglbase" horiz-adv-x="655" d="M289 219Q289 147 267 67T208 -80T143 -193T86 -274Q15 -362 -27 -362Q-72 -362 -72 -319Q-72 -264 -47 -165T-16 -33Q4 111 4 184Q4 198 12 206T28 216T55 223L240 262Q289 271 289 219Z" />
<glyph unicode="&#x201c;" glyph-name="quotedblleft" horiz-adv-x="819" d="M573 1087Q573 1159 595 1239T654 1386T719 1500T776 1581L795 1603Q813 1625 841 1647T889 1669Q934 1669 934 1626Q934 1571 909 1471T878 1339Q858 1195 858 1122Q858 1108 850 1100T834
1090T807 1083L622 1044Q573 1035 573 1087ZM164 1087Q164 1159 186 1239T245 1386T310 1500T367 1581L386 1603Q404 1625 432 1647T480 1669Q525 1669 525 1626Q525 1571 500 1471T469 1339Q449 1195 449 1122Q449 1108 441 1100T425 1090T398 1083L213 1044Q164
1035 164 1087Z" />
<glyph unicode="&#x201d;" glyph-name="quotedblright" horiz-adv-x="698" d="M930 1653Q930 1581 908 1501T849 1354T784 1241T727 1160Q656 1072 614 1072Q569 1072 569 1115Q569 1170 594 1269T625 1401Q645 1545 645 1618Q645 1632 653 1640T669 1650T696
1657L881 1696Q930 1705 930 1653ZM520 1653Q520 1581 498 1501T439 1354T374 1241T317 1160Q246 1072 204 1072Q159 1072 159 1115Q159 1170 184 1269T215 1401Q235 1545 235 1618Q235 1632 243 1640T259 1650T286 1657L471 1696Q520 1705 520 1653Z" />
<glyph unicode="&#x201e;" glyph-name="quotedblbase" horiz-adv-x="819" d="M596 219Q596 147 574 67T515 -80T450 -193T393 -274Q322 -362 280 -362Q235 -362 235 -319Q235 -264 260 -165T291 -33Q311 111 311 184Q311 198 319 206T335 216T362 223L547 262Q596
271 596 219ZM289 219Q289 147 267 67T208 -80T143 -193T86 -274Q15 -362 -27 -362Q-72 -362 -72 -319Q-72 -264 -47 -165T-16 -33Q4 111 4 184Q4 198 12 206T28 216T55 223L240 262Q289 271 289 219Z" />
<glyph unicode="&#x2022;" glyph-name="bullet" horiz-adv-x="1101" d="M344 549Q344 678 435 768T655 858T875 768T967 549Q967 419 876 329T655 238T435 328T344 549Z" />
<glyph unicode="&#x2039;" glyph-name="guilsinglleft" horiz-adv-x="585" d="M401 549L510 215Q518 193 508 180T475 166H377Q353 166 334 179T307 213L193 535Q178 583 209 623L471 924Q505 963 555 963H653Q678 963 685 948T676 909L401 549Z" />
<glyph unicode="&#x203a;" glyph-name="guilsinglright" horiz-adv-x="585" d="M334 580L225 913Q217 935 227 949T260 963H358Q381 963 401 950T428 915L543 594Q558 547 526 506L264 205Q230 166 180 166H82Q57 166 50 181T59 219L334 580Z" />
</font>
</defs>
</svg>
