<?xml version="1.0" standalone="no"?>
<!DOCTYPE svg PUBLIC "-//W3C//DTD SVG 1.1//EN" "http://www.w3.org/Graphics/SVG/1.1/DTD/svg11.dtd">
<svg xmlns="http://www.w3.org/2000/svg">
<defs >
<font id="GFSNeohellenic" horiz-adv-x="506" ><font-face
    font-family="GFS Neohellenic"
    units-per-em="1000"
    panose-1="2 0 5 0 0 0 0 9 0 4"
    ascent="877"
    descent="-242"
    alphabetic="0" />
<glyph unicode=" " glyph-name="space" horiz-adv-x="398" />
<glyph unicode="!" glyph-name="exclam" horiz-adv-x="209" d="M223 540Q215 521 202 472T171 342Q148 231 120 93H68Q78 124 125 342Q157 496 157 528Q157 537 156 540H223ZM113 17Q110 2 97 -8T70 -19Q55 -19 47 -9T41 17Q44 32 57 42T85 53Q99 53 107 43T113 17Z" />
<glyph unicode="&quot;" glyph-name="quotedbl" horiz-adv-x="152" d="M128 626L73 449H24L61 630L128 626ZM222 626L167 449H118L157 630L222 626Z" />
<glyph unicode="#" glyph-name="numbersign" horiz-adv-x="770" d="M332 226H505L577 399H404L332 226ZM745 226L724 174H536L461 -1H409L484 174H311L236 -1H184L259 174H95L116 226H280L352 399H188L211 451H375L449 628H501L427 451H600L674 628H726L652 451H840L817
399H629L557 226H745Z" />
<glyph unicode="$" glyph-name="dollar" horiz-adv-x="486" d="M494 634Q492 620 487 596T474 534H436Q437 565 428 573Q413 585 374 596L321 350Q393 324 424 293Q461 256 461 196Q461 178 458 157Q448 88 378 38Q315 -7 244 -7L227 -94H194L213 -10Q205 -10
193 -10T165 -11L147 -94H114L132 -11Q97 -10 33 16Q7 26 -10 23Q-5 51 14 124H52Q50 107 73 89Q86 78 98 70Q121 56 145 52L201 311Q77 351 77 458Q77 467 78 476T81 496Q96 566 149 610Q199 650 274 656L293 746H326L307 661Q317 662 327 662T355 663L373 746H406L387
658Q392 657 406 654T443 644Q489 633 494 634ZM342 602Q331 604 319 604T295 602L246 373Q254 370 265 367T291 360L342 602ZM261 596Q215 582 183 549T147 471Q144 439 162 419Q178 401 216 385L261 596ZM386 174Q387 216 368 238Q353 254 305 274L259 58Q304
66 340 96Q383 130 386 174ZM275 287Q258 294 231 302L177 48Q199 48 225 51L275 287Z" />
<glyph unicode="%" glyph-name="percent" horiz-adv-x="675" d="M216 297Q176 297 152 323T128 393Q128 429 137 470T166 546T214 604T285 627Q325 627 348 601T372 531Q372 495 363 454T335 378T286 320T216 297ZM607 647L216 -88H172L561 647H607ZM224 347Q243
347 260 363T289 405T309 462T316 521Q316 541 307 559T276 577Q257 577 240 561T211 519T191 462T184 403Q184 383 193 365T224 347ZM531 -5Q491 -5 467 21T443 91Q443 127 452 168T481 244T529 302T600 325Q640 325 663 299T687 229Q687 193 678 152T650 76T601
18T531 -5ZM539 45Q558 45 575 61T604 103T624 160T631 219Q631 239 622 257T591 275Q572 275 555 259T526 217T506 160T499 101Q499 81 508 63T539 45Z" />
<glyph unicode="&amp;" glyph-name="ampersand" horiz-adv-x="522" d="M471 288Q444 191 395 124L470 0H384L343 70Q264 -12 147 -12Q-17 -12 -17 134Q-17 157 -12 180Q16 298 166 372Q127 436 127 474Q127 491 131 508Q143 563 188 601Q237 643 304 643Q356 643
382 608Q402 580 402 540Q402 527 399 515Q388 462 355 426T258 356L360 178Q371 197 378 209T388 229Q395 242 399 256T408 288H471ZM338 530Q338 558 322 574Q308 588 291 588Q252 588 221 560Q194 533 193 511Q192 506 192 501T192 491Q192 454 231 399Q338
446 338 530ZM311 118L191 324Q130 298 93 255Q49 205 49 146Q49 62 156 47Q182 43 222 58Q270 77 311 118Z" />
<glyph unicode="&apos;" glyph-name="quotesingle" horiz-adv-x="58" d="M128 626L73 449H24L63 630L128 626Z" />
<glyph unicode="(" glyph-name="parenleft" horiz-adv-x="297" d="M336 654Q228 504 198 451Q169 397 146 333T107 192Q94 133 94 72Q94 -30 153 -224H104Q21 -35 21 89Q21 147 35 215Q48 273 70 329T127 442Q153 487 192 539T286 654H336Z" />
<glyph unicode=")" glyph-name="parenright" horiz-adv-x="297" d="M263 215Q237 93 169 -15Q117 -98 7 -224H-42Q57 -87 97 -18Q128 36 148 88T180 192Q203 304 203 381Q203 450 187 518Q185 529 175 562T147 654H197Q277 470 277 340Q277 309 274 278T263 215Z" />
<glyph unicode="*" glyph-name="asterisk" horiz-adv-x="494" d="M420 470Q391 464 372 455Q366 453 345 442T285 411Q315 392 333 381T356 367Q374 357 396 354L358 306Q351 317 344 324T330 337Q323 342 307 354T263 383Q252 328 247 295T244 247H190Q204 274
210 294Q212 301 216 323T229 383Q193 365 171 354T139 337Q116 322 101 306L84 355Q119 363 217 413Q188 433 170 444T147 458Q129 468 108 470L145 518Q166 489 241 443Q262 537 262 555Q262 565 259 577H313Q296 544 275 442Q348 478 364 488Q385 499 402 518L420
470Z" />
<glyph unicode="+" glyph-name="plus" horiz-adv-x="629" d="M577 263L568 214H346L300 0H247L293 214H88L98 263H303L349 478H402L356 263H577Z" />
<glyph unicode="," glyph-name="comma" horiz-adv-x="191" d="M141 67L128 6Q107 -93 24 -113L31 -78Q74 -71 89 0H61L75 67H141Z" />
<glyph unicode="-" glyph-name="hyphen" horiz-adv-x="313" d="M277 237L265 183H37L49 237H277Z" />
<glyph unicode="." glyph-name="period" horiz-adv-x="261" d="M169 31Q165 15 150 3T117 -10Q101 -10 91 2T84 31Q87 48 102 61T135 74Q152 74 162 61T169 31Z" />
<glyph unicode="/" glyph-name="slash" horiz-adv-x="323" d="M386 647L-8 -88H-72L320 647H386Z" />
<glyph unicode="0" glyph-name="zero" horiz-adv-x="535" d="M497 311Q417 -16 198 -16Q22 -16 22 175Q22 235 38 308Q70 454 137 541Q218 644 337 644Q517 644 517 452Q517 393 497 311ZM423 309Q433 354 437 389T442 452Q442 587 322 583Q168 575 110 308Q93
232 93 183Q93 47 210 47Q364 48 423 309Z" />
<glyph unicode="1" glyph-name="one" horiz-adv-x="535" d="M366 622Q360 598 343 520T297 306Q287 261 278 217T259 127Q241 35 242 0H155Q173 38 194 127Q196 133 233 312Q243 355 255 413T282 546Q268 548 245 546L250 572Q291 584 327 622H366Z" />
<glyph unicode="2" glyph-name="two" horiz-adv-x="535" d="M498 494Q493 355 304 194Q256 153 215 118T137 54H308Q356 54 366 64Q377 75 381 93H427Q420 69 406 -4Q339 -1 288 0T199 1Q173 2 129 2T22 0L30 35Q47 49 87 83T193 173Q230 204 255 225T295 261Q358
320 393 377Q436 444 436 496Q436 538 409 560T339 581Q274 580 230 528Q204 496 188 456H129Q133 467 137 477T146 498Q168 545 204 578Q259 628 353 633Q433 636 471 588Q500 550 498 494Z" />
<glyph unicode="3" glyph-name="three" horiz-adv-x="535" d="M473 509Q473 448 425 397Q377 346 323 343Q434 320 434 206Q434 102 354 42Q280 -12 172 -8Q79 -3 36 19L71 82Q104 66 109 65Q146 52 188 50Q251 49 299 81T363 169Q365 179 366 188T368 206Q368
257 328 287Q289 317 238 314Q238 319 251 378Q319 373 365 418Q406 458 408 509Q408 540 388 559T329 578Q290 577 252 551Q209 522 187 475L139 497Q200 625 330 633Q401 636 439 597Q473 563 473 509Z" />
<glyph unicode="4" glyph-name="four" horiz-adv-x="535" d="M463 629Q441 526 419 424T375 218Q386 217 402 219T440 225L425 153Q411 157 396 158T363 161L342 65Q337 41 339 0H252Q273 41 276 53Q277 57 283 84T300 162Q205 163 45 162L55 209Q100 258 139
302T214 385Q298 479 350 540T424 630Q425 631 443 630Q462 630 463 629ZM367 478Q324 432 265 367T130 216Q196 215 240 215T310 215Q319 259 333 324T367 478Z" />
<glyph unicode="5" glyph-name="five" horiz-adv-x="535" d="M483 627Q478 611 474 591T466 545H416Q417 554 412 563Q407 571 349 571H188Q184 556 177 525T160 445Q171 446 182 446T205 447Q324 447 386 393Q440 345 440 266Q440 173 377 94Q314 14 224 -8Q185
-18 136 -18Q63 -18 1 2L35 65Q96 42 150 42Q225 42 289 89Q351 136 368 211Q372 228 372 249Q372 310 327 346Q279 385 192 385Q182 385 173 385T152 383Q135 378 128 360H85Q136 598 136 628Q212 624 275 622Q315 621 366 622T483 627Z" />
<glyph unicode="6" glyph-name="six" horiz-adv-x="535" d="M495 595Q481 587 466 579T437 562Q401 539 368 515T304 464Q200 372 148 289Q212 343 291 343Q364 343 403 306T442 208Q442 116 371 48Q301 -19 208 -19Q127 -19 83 21T39 130Q39 165 49 201Q70 274
108 332Q128 361 157 394T226 466Q321 560 465 642L495 595ZM375 162Q379 177 379 195Q379 237 352 262T276 288Q237 288 189 265Q142 242 113 212Q99 173 99 143Q99 92 131 64T223 34Q250 34 274 43T319 70T354 111T375 162Z" />
<glyph unicode="7" glyph-name="seven" horiz-adv-x="535" d="M554 628L546 590Q471 514 413 444T313 306Q224 165 184 0Q108 -1 108 0Q162 161 221 266Q307 419 454 567H254Q201 567 189 554Q179 544 172 518H122Q127 535 132 562T145 627Q208 625 259 624T351
622Q413 622 554 628Z" />
<glyph unicode="8" glyph-name="eight" horiz-adv-x="535" d="M328 353Q386 352 416 312T446 211Q446 110 378 50Q311 -8 206 -10Q121 -10 77 37Q39 78 39 142Q39 220 96 285Q154 348 232 353Q179 353 154 393Q133 427 138 478Q144 537 201 584Q260 631 343 631Q479
630 479 511Q479 445 436 399Q392 352 328 353ZM420 508Q420 580 332 580Q280 580 239 548Q197 513 197 462Q197 429 219 408Q245 385 291 385Q342 385 381 421Q420 458 420 508ZM383 211Q383 257 357 286T279 316Q209 316 157 264Q105 213 105 144Q105 99 132
74Q162 44 219 44Q289 44 335 93Q383 142 383 211Z" />
<glyph unicode="9" glyph-name="nine" horiz-adv-x="535" d="M492 406Q450 259 309 127Q277 98 244 72T173 24Q148 11 124 -2T76 -29L45 18Q61 26 77 34T109 51Q184 94 246 148Q295 191 332 234T396 324Q331 270 249 270Q176 270 136 312Q99 349 99 415Q99 437
103 456Q116 529 178 579Q245 632 333 632Q414 632 458 591T503 477Q503 445 492 406ZM427 401Q443 439 443 473Q443 522 411 550T321 578Q258 576 210 528Q161 479 161 418Q161 378 185 353Q213 325 264 325Q304 325 353 348Q375 359 393 372T427 401Z" />
<glyph unicode=":" glyph-name="colon" horiz-adv-x="244" d="M195 363Q191 345 176 333T143 320Q126 320 116 332T110 363Q113 380 128 392T161 405Q177 405 187 392T195 363ZM119 7Q116 -9 100 -22T67 -35Q51 -35 41 -23T34 7Q38 25 53 37T85 50Q102 50 112 38T119 7Z" />
<glyph unicode=";" glyph-name="semicolon" horiz-adv-x="260" d="M221 355Q217 338 202 326T170 313Q154 313 144 325T137 355Q145 387 186 387Q229 387 221 355ZM152 32Q128 -66 49 -82L57 -47Q92 -39 101 -12Q84 -12 73 1T66 33Q69 51 85 64T120 77Q154 77
154 43Q154 40 152 32Z" />
<glyph unicode="&lt;" glyph-name="less" horiz-adv-x="472" d="M480 595L462 519L178 282L361 45L346 -37L118 258L127 304L480 595Z" />
<glyph unicode="=" glyph-name="equal" horiz-adv-x="722" d="M639 192L630 143H88L98 192H639ZM670 365L661 316H119L129 365H670Z" />
<glyph unicode="&gt;" glyph-name="greater" horiz-adv-x="472" d="M362 304L353 258L-2 -37L17 45L304 282L118 519L132 595L362 304Z" />
<glyph unicode="?" glyph-name="question" horiz-adv-x="426" d="M257 260Q209 226 191 207Q158 172 145 125Q144 120 144 115T142 105H77Q78 107 78 110T81 117Q97 196 173 258Q213 291 258 325Q304 369 342 437Q365 480 365 519Q365 599 274 593Q214 588 178
552Q155 529 145 503L106 504Q109 522 113 547T124 605Q139 601 197 619Q260 638 280 640Q423 648 423 528Q423 454 371 377Q324 308 257 260ZM126 28Q123 13 110 3T82 -8Q68 -8 60 2T54 28Q57 43 70 53T98 64Q112 64 120 54T126 28Z" />
<glyph unicode="@" glyph-name="at" horiz-adv-x="935" d="M879 207Q867 163 847 123T799 53T733 6T650 -10Q546 -6 539 89Q524 67 503 49T457 18T406 -2T354 -9Q278 -9 236 37Q198 80 198 148Q198 197 217 241T269 320T346 375T440 396Q551 396 586 297Q617 375
702 408L695 346Q613 279 595 195Q588 167 588 141Q588 59 663 52Q689 49 712 61T753 96T786 149T809 209T824 268T829 318Q829 375 808 415T749 481T664 519T561 531Q472 531 392 495T251 397T154 255T118 85Q118 -66 242 -133Q327 -179 415 -173Q401 -237 399
-233Q240 -233 145 -148Q46 -61 46 87Q46 195 89 287T204 448T372 554T571 593Q637 593 696 577T799 526T869 441T895 320Q895 265 879 207ZM536 195Q539 208 539 222Q539 246 531 267T507 303T470 328T425 337Q392 337 363 321T311 278T276 219T263 156Q263 107
290 78T366 49Q423 49 473 90Q522 130 536 195Z" />
<glyph unicode="A" glyph-name="A" horiz-adv-x="613" d="M585 0H499Q498 22 492 73T474 205H223Q123 39 106 0H23Q93 97 407 633H476Q489 548 500 475T523 338Q548 186 563 102T585 0ZM465 263Q457 326 448 400T428 563Q400 510 357 436T256 263H465Z" />
<glyph unicode="B" glyph-name="B" horiz-adv-x="586" d="M541 459Q529 403 484 364Q444 329 391 321Q429 314 460 280Q495 242 495 191Q495 185 495 179T493 166Q476 73 392 30Q331 -1 250 -1H16Q34 36 55 125L94 308Q133 495 142 542Q152 587 149 626H382Q447
626 489 602Q546 570 546 501Q546 484 541 459ZM477 465Q480 478 480 492Q480 546 426 566Q396 577 364 577L213 576L164 349H315Q353 349 391 364Q462 393 477 465ZM426 170Q427 176 427 181T428 192Q428 249 368 279Q330 298 300 298H154L102 54H257Q403 54 426
170Z" />
<glyph unicode="C" glyph-name="C" horiz-adv-x="533" d="M530 614Q524 589 518 519H471Q472 532 466 554Q446 578 380 575Q265 571 183 463Q105 362 105 244Q105 162 149 107Q195 49 278 49Q339 49 365 71Q378 83 388 106H435Q430 89 424 66T409 13Q405 14 354
3Q326 -4 301 -7T254 -10Q152 -10 91 66Q34 136 34 242Q34 282 43 321Q71 455 164 542Q262 634 396 634Q437 634 481 623Q523 613 530 614Z" />
<glyph unicode="D" glyph-name="D" horiz-adv-x="609" d="M574 303Q551 157 444 75Q346 0 202 0H15Q27 25 40 75Q47 99 60 158T93 312Q101 348 112 402T138 529Q148 584 147 621H341Q456 621 518 560T581 386Q581 367 580 347T574 303ZM499 303Q508 346 508 383Q508
551 320 551H213Q196 470 171 349T112 65H215Q327 65 401 126T499 303Z" />
<glyph unicode="E" glyph-name="E" horiz-adv-x="540" d="M534 624Q521 587 514 528H464Q467 547 462 553Q458 560 399 560H214Q209 539 198 489T170 357Q387 357 423 371L405 285Q361 302 157 297Q145 241 132 184T104 65H315Q370 65 381 77Q390 88 397 108H446Q441
93 436 66T423 0Q363 2 313 3T223 4Q175 4 122 3T9 -3Q20 20 41 100T91 321Q148 587 146 623Q153 622 197 622T326 619Q366 618 417 619T534 624Z" />
<glyph unicode="F" glyph-name="F" horiz-adv-x="525" d="M525 623Q511 579 504 530H454Q455 534 455 537T456 543Q456 562 415 562H204L162 358Q241 358 289 358T356 360Q392 363 415 372L396 289Q377 294 334 297Q277 300 230 300T145 298Q140 273 132 233T113
138Q95 49 98 0H7Q21 27 28 58Q30 65 44 131T85 324Q86 329 97 382T129 539Q141 597 138 624Q161 623 210 622T335 619Q386 618 433 619T525 623Z" />
<glyph unicode="G" glyph-name="G" horiz-adv-x="527" d="M530 613Q526 591 524 568T519 519H472Q470 556 448 567Q431 577 391 577Q275 577 188 467Q106 364 106 244Q106 161 149 108Q197 49 279 49Q321 49 343 57Q378 69 385 106L409 227H394Q360 227 353 224Q337
220 329 196H280Q297 257 300 289Q355 288 402 288T490 288Q482 254 475 220T460 152Q452 112 447 78T440 16Q411 18 341 0Q303 -9 256 -9Q150 -9 90 63Q36 130 36 235Q36 276 45 318Q74 452 165 539Q263 634 396 634Q442 634 480 625Q489 623 510 616Q524 611
530 613Z" />
<glyph unicode="H" glyph-name="H" horiz-adv-x="660" d="M656 624Q638 586 617 495Q617 491 578 310Q523 46 524 0H434Q455 49 506 285H157Q131 163 119 92T107 0H14Q23 19 32 50T52 128Q73 221 92 312T132 496Q148 587 147 624H240Q225 592 207 524T169 350H519Q570
577 567 624H656Z" />
<glyph unicode="I" glyph-name="I" horiz-adv-x="242" d="M231 623Q223 604 214 572T193 494Q183 448 174 402T154 310Q144 264 135 219T116 128Q97 37 98 0H9Q18 19 27 50T47 128Q57 174 67 220T87 312Q124 493 126 495Q142 586 141 623H231Z" />
<glyph unicode="J" glyph-name="J" horiz-adv-x="401" d="M392 625Q384 606 375 574T354 495Q344 449 334 403T314 310Q300 243 291 201T277 141Q258 65 239 35Q203 -18 130 -18Q113 -18 71 -7Q35 3 19 0Q22 14 27 35T40 85H78Q76 65 99 50Q115 38 134 38Q171
38 188 77Q204 111 246 312Q266 405 277 462T294 542Q303 586 301 625H392Z" />
<glyph unicode="K" glyph-name="K" horiz-adv-x="606" d="M618 624Q601 613 573 591T505 534Q465 500 426 467T347 400Q330 387 307 369T255 326Q269 313 289 291T335 238Q451 101 494 0H390Q388 20 381 41T361 82Q340 116 280 190Q210 276 159 318Q177 334 214
365T308 444Q363 489 395 516T436 552Q480 592 488 624H618ZM233 624Q222 601 203 524T156 314L117 131Q107 83 103 51T100 0H9Q18 19 27 50T47 128Q58 174 67 220T87 312Q126 493 126 496Q144 585 142 624H233Z" />
<glyph unicode="L" glyph-name="L" horiz-adv-x="453" d="M443 106Q438 91 433 64T420 -2Q357 1 306 2T215 3Q150 3 8 -3Q26 31 89 327Q99 372 108 415T127 503Q143 587 142 624H233Q215 586 194 492Q184 447 175 403T156 313L102 63H313Q367 63 378 75Q386 83
394 106H443Z" />
<glyph unicode="M" glyph-name="M" horiz-adv-x="763" d="M772 622Q748 590 726 499Q715 462 684 312Q657 184 644 107T629 0H541Q550 19 559 50T579 128Q589 174 598 219T618 310L668 542Q646 496 564 385T338 94Q318 148 302 195T271 286Q237 389 220 455T201
553L149 310Q139 264 130 219T110 129Q92 38 94 0H10Q18 19 27 50T47 128Q58 174 67 220T87 312Q136 536 136 591Q136 611 132 622H233L362 215L667 622H772Z" />
<glyph unicode="N" glyph-name="N" horiz-adv-x="640" d="M647 622Q628 583 609 493L570 310L504 0H443Q411 70 382 131T328 247Q268 377 234 456T189 565L134 310Q124 264 115 219T95 129Q77 38 79 0H0Q8 19 17 50T37 128Q48 174 57 220T77 312Q127 548 127 594Q127
611 124 622Q223 622 224 623Q255 561 282 504T335 393Q449 150 461 88L509 311L548 494Q568 587 565 622H647Z" />
<glyph unicode="O" glyph-name="O" horiz-adv-x="663" d="M630 301Q603 172 502 80Q398 -13 269 -12Q157 -10 93 60Q33 126 33 231Q33 250 35 269T41 308Q71 447 162 535Q262 630 406 632Q523 633 585 564Q641 502 641 396Q641 373 638 350T630 301ZM555 302Q565
348 565 392Q565 568 396 568Q278 568 190 456Q107 352 107 230Q107 149 152 101T283 53Q382 53 459 129Q532 199 555 302Z" />
<glyph unicode="P" glyph-name="P" horiz-adv-x="511" d="M511 439Q481 278 286 265Q277 264 259 264T221 263T180 263T144 263Q142 254 142 251T140 245T138 238T135 224Q130 204 124 174T109 104Q103 70 100 45T98 0H7Q15 19 24 49T45 125Q55 171 64 216T83
308Q93 354 102 400T122 492Q141 585 140 622H362Q414 622 455 598Q516 562 516 484Q516 473 515 462T511 439ZM439 447Q442 463 442 477Q442 556 348 563Q334 564 300 564T211 564Q204 532 191 473T159 325Q219 324 253 324T298 327Q345 333 368 346Q424 375 439
447Z" />
<glyph unicode="Q" glyph-name="Q" horiz-adv-x="663" d="M624 301Q614 255 595 213T544 132Q482 55 399 18L414 -22Q427 -47 443 -75T480 -135H373Q377 -109 359 -53L342 -2Q305 -12 263 -12Q152 -12 87 59Q27 125 27 231Q27 250 29 269T35 308Q64 445 159 534Q258
627 400 632Q517 637 579 566Q635 501 635 394Q635 351 624 301ZM549 302Q559 346 559 387Q559 470 517 517Q472 567 385 567Q266 567 181 456Q102 355 102 231Q102 149 147 101T277 53Q376 53 453 129Q526 199 549 302Z" />
<glyph unicode="R" glyph-name="R" horiz-adv-x="541" d="M513 454Q494 303 326 292Q439 254 436 0H348Q357 23 357 67Q357 137 335 193Q308 263 257 280Q233 287 188 289Q178 289 169 289T149 288Q140 245 131 202T112 116Q104 76 101 48T98 0H8Q16 19 25 49T46
125Q56 171 65 216T84 308Q94 354 103 400T123 492Q133 538 137 570T140 621H362Q516 621 516 487Q516 470 513 454ZM441 456Q444 472 444 488Q444 562 350 566Q324 567 212 566L163 345Q280 342 301 345Q328 349 345 352T370 359Q425 384 441 456Z" />
<glyph unicode="S" glyph-name="S" horiz-adv-x="505" d="M523 605Q520 591 515 567T503 505H465Q466 536 457 544Q419 575 350 575Q278 575 235 548Q181 516 178 449Q175 378 313 344Q489 299 489 186Q489 179 489 172T487 157Q470 55 364 15Q287 -15 173 -10Q134
-9 68 17Q39 28 24 24Q27 38 33 63T49 125H87Q85 108 107 90Q156 48 225 48Q292 48 347 76Q415 111 420 173Q425 223 366 253Q359 256 329 266T245 294Q178 315 152 340Q108 381 113 456Q117 545 201 595Q275 637 373 631Q424 628 471 615Q517 604 523 605Z" />
<glyph unicode="T" glyph-name="T" horiz-adv-x="617" d="M602 622Q597 605 591 578T579 515H529Q530 521 530 526T531 536Q531 556 516 561Q508 564 469 564H341L284 297Q274 252 265 208T245 118Q229 36 230 0H139Q158 40 177 120Q178 126 187 170T214 297L271
565H145Q101 565 91 559Q74 551 65 516H14Q21 538 24 550T28 566Q34 590 37 622H602Z" />
<glyph unicode="U" glyph-name="U" horiz-adv-x="645" d="M639 622Q625 594 611 536Q601 490 587 422T553 260Q523 125 455 63Q370 -13 234 -13Q100 -13 50 73Q22 119 22 185Q22 219 30 262Q41 310 55 381T90 552Q94 575 95 592T95 623H197Q190 608 179 570T154
469Q139 403 127 349T105 250Q98 219 98 189Q98 54 250 54Q340 54 396 105Q444 150 470 250Q475 270 487 333T520 503Q528 546 531 575T534 622H639Z" />
<glyph unicode="V" glyph-name="V" horiz-adv-x="578" d="M571 622Q504 522 200 0H129Q116 84 106 155T85 290Q61 439 46 521T24 622H107Q108 601 114 541T135 380Q155 228 165 151T176 71Q221 149 265 225T354 378Q469 579 479 622H571Z" />
<glyph unicode="W" glyph-name="W" horiz-adv-x="874" d="M871 622Q839 560 756 406T534 0H453Q448 72 438 188T414 469Q364 375 301 259T159 0H80L6 624H96Q97 595 100 534T110 379Q117 279 123 202T136 70Q175 140 301 391Q421 629 421 632L422 633H471Q481
418 507 67Q571 185 669 379Q717 475 747 535T788 622H871Z" />
<glyph unicode="X" glyph-name="X" horiz-adv-x="747" d="M748 622Q719 595 642 522T437 329L629 0H531Q526 18 518 42T499 97L394 290L201 97Q155 54 125 0H10Q77 63 165 145T364 334Q341 372 321 405T284 467Q201 604 179 622H287Q300 583 323 529L408 377L565
526Q584 545 601 569T635 622H748Z" />
<glyph unicode="Y" glyph-name="Y" horiz-adv-x="523" d="M517 624Q476 588 365 463Q332 425 299 388T233 312Q223 266 214 221T194 128Q174 35 176 -1L80 0Q108 57 163 317Q151 346 130 394T80 510Q33 609 15 624H120Q117 616 117 605Q117 577 133 542L209 374L359
541Q406 594 411 624H517Z" />
<glyph unicode="Z" glyph-name="Z" horiz-adv-x="616" d="M615 624L119 62L369 65Q424 67 434 77Q444 87 449 108H500Q494 86 491 74T486 56Q480 31 477 -2Q405 2 349 3T253 3Q167 5 2 0L10 37L474 561H254Q195 561 188 554Q180 546 176 529H125Q129 540 132 552T138
575Q140 585 142 597T146 626Q209 623 260 622T352 621Q445 621 615 624Z" />
<glyph unicode="[" glyph-name="bracketleft" horiz-adv-x="356" d="M413 652L403 607H229L63 -173H238L227 -227H-5L181 652H413Z" />
<glyph unicode="\" glyph-name="backslash" horiz-adv-x="361" d="M263 -10L81 632H134L316 -10H263Z" />
<glyph unicode="]" glyph-name="bracketright" horiz-adv-x="385" d="M359 652L173 -227H-59L-48 -175H128L294 606H118L127 652H359Z" />
<glyph unicode="^" glyph-name="asciicircum" horiz-adv-x="500" d="M450 244H388L250 555L112 244H49L226 626H274L450 244Z" />
<glyph unicode="_" glyph-name="underscore" horiz-adv-x="543" d="M550 -179L536 -242H-7L7 -179H550Z" />
<glyph unicode="`" glyph-name="grave" horiz-adv-x="613" d="M382 465L335 449L238 616L301 639L382 465Z" />
<glyph unicode="a" glyph-name="a" horiz-adv-x="540" d="M531 347Q480 318 450 266Q430 231 425 196Q423 181 422 170T421 151Q421 79 470 48L447 -10Q419 1 400 24Q376 53 377 90Q348 40 293 15Q244 -8 190 -8Q112 -8 70 39Q31 82 31 153Q31 165 32 177T36 202Q53
289 115 342Q179 397 276 397Q333 397 368 369T414 295Q417 312 426 328T448 358T479 382T514 399L531 347ZM369 195Q372 208 372 223Q372 247 364 268T341 304T306 329T261 338Q210 338 164 299Q113 256 103 197Q100 177 100 160Q100 109 126 80T202 50Q261 50
307 90Q356 131 369 195Z" />
<glyph unicode="b" glyph-name="b" horiz-adv-x="440" d="M425 192Q407 92 337 40Q272 -10 179 -8Q110 -6 80 35L77 0H8Q11 11 15 28T27 70Q30 84 47 162T96 384Q115 471 125 530T139 623H211Q200 585 186 527T155 388L147 349Q162 367 194 380T265 394Q343 394
386 353T429 239Q429 228 428 216T425 192ZM362 194Q367 216 367 233Q367 282 337 311T255 341Q187 341 135 293Q128 262 119 213T95 95Q128 47 193 47Q223 47 250 57T300 87T339 133T362 194Z" />
<glyph unicode="c" glyph-name="c" horiz-adv-x="368" d="M365 383L344 330Q303 342 269 342Q234 342 206 330Q117 292 95 193Q92 176 92 161Q92 135 100 114T124 77T160 53T208 47Q267 51 296 68L303 15Q255 -5 194 -8Q116 -12 71 39Q29 85 29 159Q29 185 35
212Q53 293 113 341Q169 385 252 393Q314 398 365 383Z" />
<glyph unicode="d" glyph-name="d" horiz-adv-x="495" d="M490 625Q480 591 467 532T435 388L427 349Q419 311 406 246T373 84Q369 64 365 43T356 0H290L301 42Q254 -8 180 -8Q141 -8 110 4T57 38T23 89T11 155Q11 181 17 208Q38 298 102 347T265 396Q299 396
327 381T366 340L376 387Q414 539 421 625H490ZM355 287Q326 341 256 341Q191 341 142 301Q93 262 79 194Q75 178 75 159Q75 107 106 76T192 46Q226 48 263 66Q298 83 316 104Q329 171 355 287Z" />
<glyph unicode="e" glyph-name="e" horiz-adv-x="424" d="M398 309Q398 224 280 194Q244 184 198 184Q140 184 101 197Q94 172 94 147Q94 50 215 50Q279 50 332 94L350 38Q276 -6 199 -8Q118 -8 72 38Q29 81 29 152Q29 175 35 201Q53 284 118 340Q184 396 267
394Q398 392 398 309ZM278 335Q272 335 266 335T252 333Q163 321 120 245Q151 236 176 236Q210 236 260 248Q335 266 335 303Q335 335 278 335Z" />
<glyph unicode="f" glyph-name="f" horiz-adv-x="295" d="M350 617Q348 609 345 592T336 549Q328 554 320 559T304 569Q279 582 256 582Q204 582 191 531Q189 521 183 486T165 388Q221 388 289 394L277 332Q268 338 156 339Q148 291 135 215T102 32Q91 -31 80
-72T59 -134Q15 -223 -73 -221Q-83 -220 -95 -219T-124 -213Q-161 -205 -170 -204Q-167 -188 -155 -135Q-103 -166 -63 -168Q-17 -170 12 -84Q15 -77 39 39Q50 99 63 173T94 339Q74 338 33 333L45 391Q58 385 103 385L124 505Q135 562 148 581Q186 637 254 634Q259
634 350 617Z" />
<glyph unicode="g" glyph-name="g" horiz-adv-x="510" d="M506 387Q495 341 480 273T444 111Q436 76 429 41T414 -29Q404 -78 388 -111Q332 -233 165 -222Q104 -218 70 -200Q61 -194 26 -181L43 -103Q107 -170 196 -170Q247 -170 287 -143T341 -67Q345 -53 352
-21T370 61Q317 -7 217 -8Q140 -9 94 38Q50 85 50 157Q50 178 55 203Q73 296 143 346Q210 395 303 394Q385 393 424 322L436 388L506 387ZM404 220Q408 274 378 307T293 341Q229 341 180 299Q129 256 116 194Q113 177 113 163Q113 114 145 81T231 47Q286 47 331
82T395 175L404 220Z" />
<glyph unicode="h" glyph-name="h" horiz-adv-x="420" d="M418 81L408 32Q388 17 351 5Q313 -6 291 -4Q285 -4 285 14Q285 28 288 51T299 108Q304 128 308 149T318 190Q330 248 330 279Q330 353 274 353Q227 353 179 323Q168 315 158 307T136 291Q122 221 108
149T77 0H10Q22 49 41 133T86 340Q88 346 90 358T96 387Q110 450 117 486T127 534Q132 560 135 582T141 625H211Q201 591 188 532T156 388L148 353Q194 404 294 404Q395 404 395 300Q395 258 374 179Q364 139 359 111T354 64Q354 58 356 56Q363 53 418 81Z" />
<glyph unicode="i" glyph-name="i" horiz-adv-x="186" d="M207 509Q203 491 185 477T148 462Q130 462 119 476T111 509Q115 528 132 542T168 557Q187 557 199 543T207 509ZM174 378Q173 365 132 206Q95 56 97 55Q104 51 161 78L150 29Q132 15 93 1Q58 -11 35 -9Q29
-8 29 5Q29 31 48 100L72 187Q106 324 106 331Q106 338 99 338Q97 338 91 337T77 333T63 328T57 326L62 379Q92 387 113 390T149 396Q160 398 167 393T174 378Z" />
<glyph unicode="j" glyph-name="j" horiz-adv-x="175" d="M205 509Q201 491 183 477T146 463Q128 463 117 477T109 509Q113 528 130 543T167 558Q185 558 197 543T205 509ZM166 387Q154 352 103 111Q86 32 77 -10T66 -60Q46 -141 29 -168Q-8 -223 -78 -223Q-93
-223 -102 -220Q-112 -213 -145 -202L-128 -124Q-121 -132 -114 -139T-100 -155Q-82 -173 -69 -172Q-30 -167 -14 -127Q-11 -119 2 -60T39 111Q59 205 72 274T94 388L166 387Z" />
<glyph unicode="k" glyph-name="k" horiz-adv-x="418" d="M410 360L213 211Q234 186 272 140T365 26L319 -12L166 178L93 130Q86 103 78 62Q75 31 93 10Q56 -10 23 -10Q9 -10 9 2Q9 30 39 158Q62 255 75 311T92 384Q111 472 121 532T136 625H206Q196 591 183 532T151
388L110 195Q143 219 209 270T378 403L410 360Z" />
<glyph unicode="l" glyph-name="l" horiz-adv-x="194" d="M203 612Q196 570 180 495T136 307Q77 62 78 55Q78 53 81 53Q91 53 142 78L131 29Q113 15 74 1Q39 -11 16 -9Q12 -9 12 3Q12 34 44 164Q54 202 63 239T82 314Q90 349 98 385T115 456Q136 544 136 564Q136
572 129 572Q128 572 121 571T107 567T93 563T86 560L92 613Q121 621 142 625T178 630Q189 632 196 627T203 612Z" />
<glyph unicode="m" glyph-name="m" horiz-adv-x="663" d="M664 81L654 32Q634 17 597 5Q559 -6 537 -4Q531 -4 531 13Q531 26 535 49T547 107Q552 128 557 149T567 191Q574 225 577 248T581 286Q581 350 529 350Q472 350 392 289Q392 253 379 195Q369 147 360
99T340 -1L271 0Q279 32 289 81T314 197Q319 226 322 247T325 282Q325 351 269 353Q218 354 179 329Q171 322 162 315T145 301Q130 228 115 153T82 0H13Q25 48 44 132T90 340Q88 342 84 342Q77 342 61 336Q42 330 47 383Q103 399 134 400Q144 401 151 396T159 382L153
355Q214 404 289 404Q369 404 385 346Q403 361 438 378Q492 403 545 403Q594 403 618 381T642 305Q642 284 638 257T626 195Q600 77 600 64Q600 58 602 56Q609 53 664 81Z" />
<glyph unicode="n" glyph-name="n" horiz-adv-x="443" d="M428 81L418 32Q398 17 361 5Q323 -6 301 -4Q295 -4 295 13Q295 26 299 49T311 107Q316 128 321 149T331 191Q344 249 344 281Q344 351 289 352Q217 353 144 299Q129 227 114 153T82 0H13Q25 48 44 132T90
340Q88 342 84 342Q77 342 61 336Q42 330 47 383Q103 399 134 400Q144 401 151 396T159 382L149 346Q167 361 202 378Q256 403 309 403Q358 403 382 381T406 305Q406 284 402 257T390 195Q364 77 364 64Q364 58 366 56Q373 53 428 81Z" />
<glyph unicode="o" glyph-name="o" horiz-adv-x="470" d="M436 187Q417 93 345 40Q280 -8 194 -8Q116 -8 71 39Q27 83 27 154Q27 177 33 203Q53 288 120 340Q189 394 280 394Q356 394 399 353T442 239Q442 214 436 187ZM373 193Q378 216 378 233Q378 282 350 311T270
341Q207 341 158 299Q108 257 95 194Q91 178 91 159Q91 108 122 78T208 47Q268 47 313 86T373 193Z" />
<glyph unicode="p" glyph-name="p" horiz-adv-x="458" d="M439 192Q419 90 352 39Q289 -10 192 -9Q121 -7 94 36L86 -3Q71 -72 44 -222H-28Q-19 -194 -6 -140T25 -2L40 69Q53 132 65 193T90 316Q95 339 98 357T104 389H173L162 354Q201 397 279 397Q315 397 345
386T398 354T432 304T444 238Q444 227 443 216T439 192ZM374 194Q376 204 377 213T378 231Q378 283 349 312T269 342Q203 342 151 294Q135 226 124 176T106 92Q137 44 206 44Q268 44 314 87Q362 130 374 194Z" />
<glyph unicode="q" glyph-name="q" horiz-adv-x="453" d="M446 388Q444 378 439 357T426 304Q416 259 402 193T367 36L359 -3Q344 -74 317 -222H245Q252 -201 264 -147T297 -5L306 38Q259 -9 185 -9Q106 -9 61 35T16 151Q16 172 20 191Q36 280 107 339Q178 398
271 396Q341 394 370 346L377 388H446ZM358 289Q330 341 261 341Q201 341 148 297Q96 254 84 194Q80 179 80 160Q80 109 112 77T198 44Q266 44 320 101Q331 155 340 202T358 289Z" />
<glyph unicode="r" glyph-name="r" horiz-adv-x="254" d="M287 389L274 328Q260 341 247 341Q190 341 150 283Q126 250 114 207Q109 182 103 150T88 77Q84 58 81 39T73 0L5 -1Q17 48 35 132T78 339Q79 346 80 358T85 388H151L136 322Q173 394 253 396Q273 396 287 389Z" />
<glyph unicode="s" glyph-name="s" horiz-adv-x="310" d="M94 -8Q69 -4 47 0T5 12L20 80Q29 75 36 71T50 64Q61 59 76 55T109 45Q129 40 151 40Q233 40 227 101Q224 132 150 176Q97 209 93 212Q61 238 61 278Q61 288 62 293Q75 393 215 393Q230 393 257 386Q276
381 286 379T301 376Q299 368 296 352T287 309Q253 334 200 338Q174 340 153 329Q127 315 126 287Q124 269 143 255Q153 246 197 222Q283 174 291 108Q297 51 260 19T150 -13Q137 -13 123 -12T94 -8Z" />
<glyph unicode="t" glyph-name="t" horiz-adv-x="257" d="M272 389L262 346H164Q159 323 150 283T126 184Q94 56 97 55Q104 51 161 78L150 29Q132 15 93 1Q58 -11 35 -9Q28 -8 28 10Q28 37 60 174Q67 205 99 345H41Q41 345 46 367Q50 388 109 388Q114 414 120
440T131 492L201 518L173 388Q270 388 272 389Z" />
<glyph unicode="u" glyph-name="u" horiz-adv-x="426" d="M412 388Q399 339 381 257T337 56Q339 54 340 54Q342 54 347 56T359 62T370 68T377 71Q381 64 385 29Q302 -15 278 -9Q267 -7 267 10Q267 16 272 44Q210 -10 127 -9Q21 -8 21 101Q21 140 33 199Q41 231
51 278T76 388H145Q137 357 126 310T99 198Q92 169 89 147T86 110Q86 43 147 42Q199 41 245 72Q278 95 288 113Q290 122 305 190T347 388H412Z" />
<glyph unicode="v" glyph-name="v" horiz-adv-x="373" d="M369 388Q349 356 289 260T128 0H85Q53 175 10 387H84Q97 255 123 84Q226 248 294 388H369Z" />
<glyph unicode="w" glyph-name="w" horiz-adv-x="583" d="M582 388Q562 354 507 258T361 0H319Q315 45 307 117T288 292L115 0H71Q60 86 47 182T16 387H90Q98 299 103 225T112 88Q167 181 206 254T270 385L269 387H340V386Q343 353 348 279T360 87Q393 152 430
226T510 388H582Z" />
<glyph unicode="x" glyph-name="x" horiz-adv-x="432" d="M431 387Q406 361 364 315T258 200Q275 165 299 115T358 0H291Q283 20 266 59T223 158Q154 83 83 0L8 1Q37 30 84 80T198 202Q178 245 157 290T112 387H176Q186 362 201 328T236 248Q256 271 285 306T353
388L431 387Z" />
<glyph unicode="y" glyph-name="y" horiz-adv-x="418" d="M415 387L234 44Q176 -64 157 -95Q91 -196 32 -214Q-1 -224 -35 -224Q-103 -224 -133 -192L-103 -143Q-78 -171 -27 -171Q-14 -171 0 -168Q59 -154 122 -39Q96 69 71 175T20 388L96 387Q106 339 124 251T168
34Q187 70 213 125T275 257Q335 387 336 387Q414 388 415 387Z" />
<glyph unicode="z" glyph-name="z" horiz-adv-x="400" d="M392 388L389 368L108 53L248 52Q286 52 304 67H330L316 -1Q311 -5 4 0L9 25L287 336H197Q144 334 128 320H95L110 388H392Z" />
<glyph unicode="{" glyph-name="braceleft" horiz-adv-x="330" d="M350 629L337 569H295Q251 569 235 491L201 334Q189 274 147 235Q119 210 92 202L102 200Q118 197 131 178Q150 153 150 112Q150 101 149 90T145 66L111 -90Q107 -109 107 -126Q107 -168 139 -168H181L168
-229H113Q82 -229 61 -205T40 -141Q40 -123 44 -107L78 52Q82 72 82 94Q82 173 27 173L39 230Q55 230 71 239T101 263T125 300T140 348L174 508Q186 563 223 597Q258 629 295 629H350Z" />
<glyph unicode="|" glyph-name="bar" horiz-adv-x="223" d="M236 623L56 -228H-14L166 623H236Z" />
<glyph unicode="}" glyph-name="braceright" horiz-adv-x="330" d="M299 230L287 173Q254 173 226 140T186 52L152 -107Q146 -134 134 -156T105 -195T69 -220T31 -229H-24L-11 -168H31Q73 -168 90 -90L124 66Q137 130 175 169Q200 195 224 200L234 202Q215 209
200 227Q176 255 176 298Q176 317 180 334L214 491Q218 510 218 528Q218 569 187 569H145L158 629H213Q245 629 265 606T286 543Q286 524 282 508L248 348Q244 329 244 308Q244 230 299 230Z" />
<glyph unicode="~" glyph-name="asciitilde" horiz-adv-x="493" d="M440 300Q388 200 318 200Q282 200 221 242Q171 275 155 274Q127 273 95 207L53 226Q108 322 161 325Q189 326 252 285Q304 249 329 247Q338 247 349 252T370 268T389 293T403 323Q413 318 422
312T440 300Z" />
<glyph unicode="&#xa0;" glyph-name="ch202" horiz-adv-x="250" />
<glyph unicode="&#xa1;" glyph-name="exclamdown" horiz-adv-x="209" d="M197 428Q194 413 181 403T153 392Q139 392 131 402T125 428Q128 443 141 453T168 464Q183 464 191 454T197 428ZM172 352Q168 339 154 277T117 103Q82 -59 85 -95H18Q33 -73 71 103Q94
212 106 274T120 352H172Z" />
<glyph unicode="&#xa2;" glyph-name="cent" horiz-adv-x="414" d="M381 487L361 434Q344 439 328 441T294 445L197 154Q210 151 225 151Q260 151 313 172L320 121Q306 116 295 112T276 105Q248 98 211 96Q203 95 195 95T178 97L146 0Q146 -1 129 -1Q113 -1 113
0L147 102Q98 115 71 161Q45 204 45 261Q45 287 51 314Q68 392 126 440T269 496L279 497L315 608H348L312 498Q329 497 346 495T381 487ZM261 443Q203 435 164 396T112 297Q108 280 108 259Q108 180 168 164L261 443Z" />
<glyph unicode="&#xa3;" glyph-name="sterling" horiz-adv-x="515" d="M510 607Q507 593 502 569T490 507H452Q453 538 444 546Q409 573 337 576Q273 579 221 545Q164 508 156 448Q151 410 180 337Q313 341 327 349L310 271Q299 278 199 279Q210 231 197 192Q171
118 78 66Q132 81 186 81Q214 81 234 77Q238 76 250 74T282 67Q309 61 327 61Q372 61 419 98L439 22Q365 -10 306 -5Q295 -4 277 0T231 11Q181 23 152 23Q147 23 143 23T133 22Q91 16 16 -5L-9 61Q28 81 55 101Q122 152 134 209Q141 240 130 279Q19 276 5 270L22
348Q29 342 106 339Q87 384 87 419Q87 424 87 430T88 441Q101 537 185 590Q258 636 361 636Q386 636 458 617Q504 606 510 607Z" />
<glyph unicode="&#xa4;" glyph-name="currency" horiz-adv-x="500" d="M466 326Q466 249 420 194L465 149Q467 147 441 124Q430 114 424 109T416 101L375 152Q320 112 250 112Q180 112 125 152L84 101Q77 106 71 112T58 123Q33 147 35 149L80 194Q34 249 34 326Q34
403 80 458L35 503Q36 504 42 509T59 526Q85 550 84 551L125 500Q177 538 250 540Q319 542 375 500L416 551Q415 550 441 525Q447 520 453 514T465 503L420 458Q466 403 466 326ZM410 325Q410 393 362 443Q314 493 251 493Q187 493 139 443Q92 393 92 325Q92 255
139 205Q187 157 251 157Q314 157 362 206Q410 255 410 325Z" />
<glyph unicode="&#xa5;" glyph-name="yen" horiz-adv-x="523" d="M517 624Q491 602 432 538T279 364H401L388 301H231Q228 288 225 272T217 237H376L363 174H203Q174 40 176 -1L80 0Q102 43 132 174H0L13 237H146L159 301H26L39 364H142Q132 387 117 423T80 510Q33
609 15 624H119Q111 593 133 542L208 364L358 541Q405 598 411 624H517Z" />
<glyph unicode="&#xa6;" glyph-name="brokenbar" horiz-adv-x="239" d="M149 392H90V686H149V392ZM149 -16H90V278H149V-16Z" />
<glyph unicode="&#xa7;" glyph-name="section" horiz-adv-x="353" d="M342 618Q340 610 337 594T328 551H294Q290 556 287 561T280 571Q266 582 236 582Q211 582 185 565Q160 549 160 523Q160 486 231 465Q326 436 326 356Q326 299 282 258Q239 218 180 218Q259
191 259 118Q259 101 255 88Q226 -13 99 -13Q91 -13 82 -13T65 -11Q31 -6 2 5Q-13 11 -23 9L-8 77H18Q39 50 78 41Q88 38 102 38Q137 38 165 57Q198 78 198 111Q198 145 157 165Q84 201 71 211Q30 243 30 289Q30 294 30 299T31 310Q40 361 93 399Q137 430 176 430Q94
468 102 530Q108 580 158 609Q200 633 254 633Q290 633 311 625T342 618ZM261 319Q267 335 267 350Q267 382 242 398Q153 399 104 335Q89 315 89 296Q89 272 106 260Q113 259 119 259T134 258Q176 258 212 274T261 319Z" />
<glyph unicode="&#xa8;" glyph-name="dieresis" horiz-adv-x="377" d="M432 504Q429 488 414 475T382 462Q364 462 354 474T348 504Q352 521 367 534T400 547Q416 547 426 534T432 504ZM256 506Q253 490 238 477T206 464Q188 464 178 476T171 506Q175 522 190
535T223 548Q240 548 250 535T256 506Z" />
<glyph unicode="&#xa9;" glyph-name="copyright" horiz-adv-x="732" d="M721 337Q721 189 616 86Q513 -17 365 -17Q219 -17 115 87Q11 191 11 336Q11 481 115 587Q218 692 364 692Q512 692 616 588Q721 484 721 337ZM678 337Q678 465 585 557Q494 648 364 648Q237
648 145 556Q54 465 54 336Q54 207 145 116Q236 25 365 25Q495 25 586 116Q678 208 678 337ZM481 197Q479 174 478 159T476 135Q472 136 441 128Q434 126 423 124T394 120L350 122Q277 136 234 196Q192 254 192 331Q192 422 240 482Q291 547 380 547Q397 547 437
537Q466 530 472 530Q472 522 473 507T477 471H446Q445 476 444 481T438 495Q422 511 378 509Q315 508 274 452Q238 402 238 330Q238 262 277 213Q319 159 384 159Q424 159 439 174Q445 181 449 197H481Z" />
<glyph unicode="&#xaa;" glyph-name="ordfeminine" horiz-adv-x="383" d="M384 512Q315 473 306 400Q303 377 303 367Q303 313 339 291L322 248Q269 268 270 322Q229 250 132 250Q75 250 43 285Q15 316 15 369Q15 385 18 405Q30 469 77 509T196 549Q281 549 298
474Q302 498 323 520T371 550L384 512ZM267 421Q267 456 244 480T185 505Q148 505 112 475Q76 445 68 401Q67 394 67 388T66 374Q66 293 141 293Q191 293 229 332Q267 372 267 421Z" />
<glyph unicode="&#xab;" glyph-name="guillemotleft" horiz-adv-x="606" d="M559 485L545 416L347 281L489 145L475 87L296 255L310 317L559 485ZM361 485L347 416L149 281L291 145L277 87L98 255L112 317L361 485Z" />
<glyph unicode="&#xac;" glyph-name="logicalnot" horiz-adv-x="500" d="M467 50H408V256H33V305H467V50Z" />
<glyph unicode="&#xae;" glyph-name="registered" horiz-adv-x="732" d="M721 337Q721 189 616 86Q513 -17 365 -17Q219 -17 115 87Q11 191 11 336Q11 481 115 587Q218 692 364 692Q512 692 616 588Q721 484 721 337ZM678 337Q678 465 585 557Q494 648 364 648Q237
648 145 556Q54 465 54 336Q54 207 145 116Q236 25 365 25Q495 25 586 116Q678 208 678 337ZM520 138H463Q469 171 443 232Q413 303 365 318Q347 323 319 323Q313 323 307 323T294 322Q294 163 301 138H244Q251 163 251 338Q251 518 244 545H386Q426 545 457 526Q506
498 506 437Q506 347 408 327Q487 302 520 138ZM460 437Q460 483 425 498Q415 500 406 501T386 505Q366 508 296 508L295 362Q333 361 355 361T385 363Q417 368 428 374Q461 391 460 437Z" />
<glyph unicode="&#xaf;" glyph-name="overscore" horiz-adv-x="333" d="M353 512L343 464H35L46 512H353Z" />
<glyph unicode="&#xb0;" glyph-name="degree" horiz-adv-x="348" d="M308 511Q308 481 298 458T269 417T227 391T174 382Q117 382 80 416Q40 452 40 511Q40 568 79 604Q118 640 174 640Q230 640 269 604Q308 568 308 511ZM252 511Q252 553 230 579T174 605Q140
605 118 579T96 511Q96 469 118 443T174 417Q208 417 230 443T252 511Z" />
<glyph unicode="&#xb1;" glyph-name="plusminus" horiz-adv-x="500" d="M443 239H280V84H221V239H58V288H221V436H280V288H443V239ZM443 0H58V49H443V0Z" />
<glyph unicode="&#xb2;" glyph-name="twosuperior" horiz-adv-x="375" d="M303 584Q301 507 187 408L92 327H191Q205 327 212 328T224 333T229 340T233 349H259Q255 337 247 294Q170 299 129 297Q114 298 89 298T28 296L32 316Q42 324 65 344T126 395Q146 412
161 425T186 448Q205 467 219 484T244 517Q266 554 266 582Q266 633 211 633Q175 633 149 604Q134 586 127 562H93Q105 588 136 632Q167 663 221 663Q266 663 287 636Q304 614 303 584Z" />
<glyph unicode="&#xb3;" glyph-name="threesuperior" horiz-adv-x="268" d="M161 500Q226 485 226 423Q226 362 180 325Q135 288 73 290Q19 291 -8 306L13 343Q23 338 28 336T35 332Q46 328 57 327T82 324Q119 323 147 342T184 394Q187 404 187 415Q187 446 164
463T111 479Q111 479 119 516Q152 514 181 537Q210 560 210 593Q210 635 164 634Q109 632 81 574L54 586Q88 661 165 666Q249 670 249 602Q249 584 242 567T223 537T195 513T161 500Z" />
<glyph unicode="&#xb4;" glyph-name="acute" horiz-adv-x="168" d="M156 620L60 453L12 469L93 643L156 620Z" />
<glyph unicode="&#xb5;" glyph-name="uni00B5" horiz-adv-x="453" d="M435 388Q427 365 421 343T409 301Q381 202 380 147Q378 81 407 27L358 -20Q354 -12 351 -5T343 11Q329 47 324 83Q266 -8 182 -8Q91 -8 85 78Q55 -44 55 -96Q55 -141 70 -165L2 -191Q-8 -171
-8 -138Q-8 -118 0 -74T24 40Q29 62 50 148T109 387L174 388L111 145Q126 48 195 48Q238 48 278 88Q308 117 319 146Q317 220 367 388H435Z" />
<glyph unicode="&#xb6;" glyph-name="paragraph" horiz-adv-x="583" d="M597 635L579 549Q552 558 496 561Q479 502 412 183L373 0Q364 -46 360 -77T356 -127H269Q287 -91 308 0L347 185Q363 255 381 348T423 562Q412 562 397 562T360 561Q343 502 276 183L237
0Q228 -46 224 -77T220 -127H133Q152 -89 171 0Q182 46 191 92T211 185L220 223Q210 221 201 221T180 219Q100 214 55 260Q13 300 13 371Q13 397 19 423Q35 502 97 558Q159 614 238 620Q270 620 317 620T428 621Q504 622 531 624Q576 627 597 635Z" />
<glyph unicode="&#xb7;" glyph-name="middot" horiz-adv-x="250" d="M183 299Q183 275 166 258T125 241Q101 241 84 258T66 299Q66 324 83 341T125 358Q149 358 166 341T183 299Z" />
<glyph unicode="&#xb8;" glyph-name="cedilla" horiz-adv-x="492" d="M299 -30Q335 -41 344 -64Q350 -78 350 -92Q350 -112 342 -130T317 -163T277 -187T223 -196Q216 -196 210 -196T197 -195L202 -168Q248 -171 276 -156Q300 -143 300 -115Q300 -96 286 -85Q264
-71 219 -75L230 -25L299 -30Z" />
<glyph unicode="&#xb9;" glyph-name="onesuperior" horiz-adv-x="375" d="M251 651Q248 641 238 597T211 471Q195 395 187 351T180 296H130Q142 322 175 474Q180 499 187 532T203 607Q195 609 181 607L185 622Q208 630 228 651H251Z" />
<glyph unicode="&#xba;" glyph-name="ordmasculine" horiz-adv-x="344" d="M327 383Q314 317 262 275Q209 234 147 234Q79 234 46 277Q14 321 29 385Q41 447 92 489Q143 531 209 531Q278 531 309 491T327 383ZM282 383Q293 431 271 461T203 492Q180 492 159 484T120
462T90 427T72 383Q63 339 87 307Q113 275 158 275Q203 275 237 304T282 383Z" />
<glyph unicode="&#xbb;" glyph-name="guillemotright" horiz-adv-x="606" d="M559 317L546 255L296 87L311 156L509 291L367 427L381 485L559 317ZM357 317L344 255L94 87L109 156L307 291L164 427L179 485L357 317Z" />
<glyph unicode="&#xbc;" glyph-name="onequarter" horiz-adv-x="755" d="M209 633Q207 623 197 578T169 452Q153 376 145 333T138 278H88Q101 302 133 455Q138 480 145 513T161 589Q153 590 140 589L143 604Q166 610 186 633H209ZM582 669L132 -31H94L91 -25L540
674H579L582 669ZM655 315Q648 284 636 227T606 84Q612 84 621 85T642 88L634 48Q626 50 618 51T599 53L587 -2Q586 -9 586 -18T585 -38H537Q542 -27 545 -20T550 -8Q551 -6 554 9T563 53Q511 54 420 53L426 80Q468 126 519 185T633 316Q640 316 645 316T655 315ZM601
230Q577 204 544 168T468 83Q542 81 569 83Q574 108 582 144T601 230Z" />
<glyph unicode="&#xbd;" glyph-name="onehalf" horiz-adv-x="755" d="M95 -28L544 672H583L586 667L136 -33H98L95 -28ZM214 632Q211 622 201 578T174 452Q158 376 150 332T143 277H93Q105 303 138 455Q143 480 150 513T166 588Q158 590 144 588L148 603Q171 611
191 632H214ZM683 288Q681 211 567 112L472 31H571Q585 31 592 32T604 37T609 44T613 53H639Q635 41 627 -2Q550 3 509 1Q494 2 469 2T408 0L412 20Q422 28 445 48T506 99Q526 116 541 129T566 152Q585 171 599 188T624 221Q646 258 646 286Q646 337 591 337Q555
337 529 308Q514 290 507 266H473Q485 292 516 336Q547 367 601 367Q646 367 667 340Q684 318 683 288Z" />
<glyph unicode="&#xbe;" glyph-name="threequarters" horiz-adv-x="686" d="M600 662L150 -38H112L109 -33L558 667H597L600 662ZM199 414Q262 399 262 339Q262 281 217 244Q173 207 112 209Q59 210 34 224L54 260Q63 256 68 254T76 250Q87 246 98 245T121 242Q157
241 185 259T221 310Q224 320 224 331Q224 361 202 378T150 394Q150 398 157 430Q191 428 218 450Q247 473 247 505Q247 546 202 545Q149 543 121 486L94 498Q129 572 203 576Q284 580 284 514Q284 496 278 480T260 450T233 427T199 414ZM625 315Q618 284 606 227T576
84Q582 84 591 85T612 88L604 48Q596 50 588 51T569 53L557 -2Q556 -9 556 -18T555 -38H507Q512 -27 515 -20T520 -8Q521 -6 524 9T533 53Q481 54 390 53L396 80Q438 126 489 185T603 316Q610 316 615 316T625 315ZM571 230Q547 204 514 168T438 83Q512 81 539
83Q544 108 552 144T571 230Z" />
<glyph unicode="&#xbf;" glyph-name="questiondown" horiz-adv-x="426" d="M422 429Q419 414 406 404T379 393Q364 393 356 403T350 429Q353 444 366 454T394 465Q408 465 416 455T422 429ZM399 352Q397 349 396 340Q378 260 303 199Q282 182 261 166T219 132Q172
90 135 20Q111 -22 111 -62Q111 -142 202 -136Q262 -131 298 -95Q320 -73 331 -45L371 -46Q367 -64 363 -89T352 -147Q335 -144 280 -162Q215 -182 196 -183Q53 -191 53 -71Q53 1 106 81Q129 115 157 144T219 197Q267 232 285 250Q317 284 332 332Q333 337 333
342T334 352H399Z" />
<glyph unicode="&#xc0;" glyph-name="Agrave" horiz-adv-x="613" d="M585 0H499Q498 22 492 73T474 205H223Q123 39 106 0H23Q93 97 407 633H476Q489 548 500 475T523 338Q548 186 563 102T585 0ZM465 263Q457 326 448 400T428 563Q400 510 357 436T256 263H465ZM476
703L429 687L332 854L395 877L476 703Z" />
<glyph unicode="&#xc1;" glyph-name="Aacute" horiz-adv-x="613" d="M585 0H499Q498 22 492 73T474 205H223Q123 39 106 0H23Q93 97 407 633H476Q489 548 500 475T523 338Q548 186 563 102T585 0ZM465 263Q457 326 448 400T428 563Q400 510 357 436T256 263H465ZM559
833L462 666L415 682L496 856L559 833Z" />
<glyph unicode="&#xc2;" glyph-name="Acircumflex" horiz-adv-x="613" d="M585 0H499Q498 22 492 73T474 205H223Q123 39 106 0H23Q93 97 407 633H476Q489 548 500 475T523 338Q548 186 563 102T585 0ZM465 263Q457 326 448 400T428 563Q400 510 357 436T256 263H465ZM625
708L585 674L464 774Q461 774 298 669L269 708L473 832Q472 831 549 769Q625 708 625 708Z" />
<glyph unicode="&#xc3;" glyph-name="Atilde" horiz-adv-x="613" d="M585 0H499Q498 22 492 73T474 205H223Q123 39 106 0H23Q93 97 407 633H476Q489 548 500 475T523 338Q548 186 563 102T585 0ZM465 263Q457 326 448 400T428 563Q400 510 357 436T256 263H465ZM645
766Q593 666 523 666Q487 666 426 708Q376 741 360 740Q332 739 300 673L258 692Q313 788 366 791Q394 792 457 751Q509 715 534 713Q543 713 554 718T575 734T594 759T608 789Q618 784 627 778T645 766Z" />
<glyph unicode="&#xc4;" glyph-name="Adieresis" horiz-adv-x="613" d="M585 0H499Q498 22 492 73T474 205H223Q123 39 106 0H23Q93 97 407 633H476Q489 548 500 475T523 338Q548 186 563 102T585 0ZM465 263Q457 326 448 400T428 563Q400 510 357 436T256 263H465ZM597
719Q592 702 576 687T541 672Q520 672 509 685T502 719Q506 739 523 753T561 768Q578 768 589 754T597 719ZM398 722Q395 704 378 689T341 674Q321 674 310 688T303 722Q307 739 324 754T361 769Q381 769 392 754T398 722Z" />
<glyph unicode="&#xc5;" glyph-name="Aring" horiz-adv-x="613" d="M585 0H499Q498 22 492 73T474 205H223Q123 39 106 0H23Q93 97 407 633H476Q489 548 500 475T523 338Q548 186 563 102T585 0ZM465 263Q457 326 448 400T428 563Q400 510 357 436T256 263H465ZM447
663Q414 663 393 683T372 736Q372 758 382 778T408 813T444 838T486 847Q519 847 539 827T560 774Q560 753 551 733T525 698T489 673T447 663ZM526 767Q526 787 513 800T479 813Q465 813 452 807T429 792T413 769T407 743Q407 723 420 710T454 697Q468 697 481
703T504 718T520 740T526 767Z" />
<glyph unicode="&#xc6;" glyph-name="AE" horiz-adv-x="909" d="M944 624Q932 589 923 528H873Q876 547 871 553Q867 560 808 560H623Q618 539 607 489T579 357Q796 357 832 371L814 285Q770 302 567 297Q562 276 555 246T539 177Q536 160 532 132T520 65H725Q779
65 790 77Q798 85 806 108H855Q850 93 845 66T832 0Q772 2 723 3T632 4Q584 4 531 3T418 -3Q440 41 474 205H233Q154 122 107 71T43 0H-45Q15 55 87 131T248 306Q363 437 434 515T532 622V623H533Q552 623 577 623T634 622Q720 620 735 619Q775 618 826 619T944
624ZM549 556Q468 463 286 263H485Q497 312 513 384T549 556Z" />
<glyph unicode="&#xc7;" glyph-name="Ccedilla" horiz-adv-x="524" d="M259 -134Q245 -156 215 -166Q190 -176 160 -174Q127 -171 118 -160L151 -120Q163 -126 178 -126Q211 -126 221 -98Q223 -90 223 -86Q223 -62 179 -48L205 -5Q123 13 77 85Q34 152 34 245Q34
265 36 284T42 323Q70 456 163 543Q260 634 396 634Q437 634 481 623Q523 613 530 614Q524 589 518 519H471Q472 532 466 554Q446 578 380 575Q265 571 183 463Q105 362 105 244Q105 162 149 107Q195 49 278 49Q339 49 365 71Q378 83 388 106H435Q430 89 424 66T409
13Q405 14 354 3Q301 -10 255 -10V-12L242 -29Q275 -49 275 -85Q275 -109 259 -134Z" />
<glyph unicode="&#xc8;" glyph-name="Egrave" horiz-adv-x="540" d="M534 624Q521 587 514 528H464Q467 547 462 553Q458 560 399 560H214Q209 539 198 489T170 357Q387 357 423 371L405 285Q361 302 157 297Q145 241 132 184T104 65H315Q370 65 381 77Q390 88
397 108H446Q441 93 436 66T423 0Q363 2 313 3T223 4Q175 4 122 3T9 -3Q20 20 41 100T91 321Q148 587 146 623Q153 622 197 622T326 619Q366 618 417 619T534 624ZM427 702L380 686L283 853L346 876L427 702Z" />
<glyph unicode="&#xc9;" glyph-name="Eacute" horiz-adv-x="540" d="M534 624Q521 587 514 528H464Q467 547 462 553Q458 560 399 560H214Q209 539 198 489T170 357Q387 357 423 371L405 285Q361 302 157 297Q145 241 132 184T104 65H315Q370 65 381 77Q390 88
397 108H446Q441 93 436 66T423 0Q363 2 313 3T223 4Q175 4 122 3T9 -3Q20 20 41 100T91 321Q148 587 146 623Q153 622 197 622T326 619Q366 618 417 619T534 624ZM459 833L362 666L315 682L396 856L459 833Z" />
<glyph unicode="&#xca;" glyph-name="Ecircumflex" horiz-adv-x="540" d="M534 624Q521 587 514 528H464Q467 547 462 553Q458 560 399 560H214Q209 539 198 489T170 357Q387 357 423 371L405 285Q361 302 157 297Q145 241 132 184T104 65H315Q370 65 381 77Q390
88 397 108H446Q441 93 436 66T423 0Q363 2 313 3T223 4Q175 4 122 3T9 -3Q20 20 41 100T91 321Q148 587 146 623Q153 622 197 622T326 619Q366 618 417 619T534 624ZM542 708L502 674L381 774Q378 774 215 669L186 708L390 832Q389 831 466 769Q542 708 542 708Z"
/>
<glyph unicode="&#xcb;" glyph-name="Edieresis" horiz-adv-x="540" d="M534 624Q521 587 514 528H464Q467 547 462 553Q458 560 399 560H214Q209 539 198 489T170 357Q387 357 423 371L405 285Q361 302 157 297Q145 241 132 184T104 65H315Q370 65 381 77Q390
88 397 108H446Q441 93 436 66T423 0Q363 2 313 3T223 4Q175 4 122 3T9 -3Q20 20 41 100T91 321Q148 587 146 623Q153 622 197 622T326 619Q366 618 417 619T534 624ZM511 719Q506 702 490 687T455 672Q434 672 423 685T416 719Q420 739 437 753T475 768Q492 768
503 754T511 719ZM312 722Q309 704 292 689T255 674Q235 674 224 688T217 722Q221 739 238 754T275 769Q295 769 306 754T312 722Z" />
<glyph unicode="&#xcc;" glyph-name="Igrave" horiz-adv-x="242" d="M231 623Q223 604 214 572T193 494Q183 448 174 402T154 310Q144 264 135 219T116 128Q97 37 98 0H9Q18 19 27 50T47 128Q57 174 67 220T87 312Q124 493 126 495Q142 586 141 623H231ZM222 682L175
666L78 833L141 856L222 682Z" />
<glyph unicode="&#xcd;" glyph-name="Iacute" horiz-adv-x="242" d="M231 623Q223 604 214 572T193 494Q183 448 174 402T154 310Q144 264 135 219T116 128Q97 37 98 0H9Q18 19 27 50T47 128Q57 174 67 220T87 312Q124 493 126 495Q142 586 141 623H231ZM318 833L221
666L174 682L255 856L318 833Z" />
<glyph unicode="&#xce;" glyph-name="Icircumflex" horiz-adv-x="357" d="M231 623Q223 604 214 572T193 494Q183 448 174 402T154 310Q144 264 135 219T116 128Q97 37 98 0H9Q18 19 27 50T47 128Q57 174 67 220T87 312Q124 493 126 495Q142 586 141 623H231ZM380
708L340 674L219 774Q216 774 53 669L24 708L228 832Q227 831 304 769Q380 708 380 708Z" />
<glyph unicode="&#xcf;" glyph-name="Idieresis" horiz-adv-x="332" d="M231 623Q223 604 214 572T193 494Q183 448 174 402T154 310Q144 264 135 219T116 128Q97 37 98 0H9Q18 19 27 50T47 128Q57 174 67 220T87 312Q124 493 126 495Q142 586 141 623H231ZM355
719Q350 702 334 687T299 672Q278 672 267 685T260 719Q264 739 281 753T319 768Q336 768 347 754T355 719ZM156 722Q153 704 136 689T99 674Q79 674 68 688T61 722Q65 739 82 754T119 769Q139 769 150 754T156 722Z" />
<glyph unicode="&#xd0;" glyph-name="Eth" horiz-adv-x="609" d="M574 303Q551 157 444 75Q346 0 202 0H15Q27 25 40 75Q48 104 60 157T89 291H34L45 343H100Q107 374 116 420T138 529Q148 584 147 621H341Q456 621 518 560T581 386Q581 367 580 347T574 303ZM499
303Q508 346 508 383Q508 551 320 551H213Q205 516 194 465T168 343H328L317 291H157Q150 259 139 203T112 65H215Q327 65 401 126T499 303Z" />
<glyph unicode="&#xd1;" glyph-name="Ntilde" horiz-adv-x="640" d="M647 622Q628 583 609 493L570 310L504 0H443Q411 70 382 131T328 247Q268 377 234 456T189 565L134 310Q124 264 115 219T95 129Q77 38 79 0H0Q8 19 17 50T37 128Q48 174 57 220T77 312Q127
548 127 594Q127 611 124 622Q223 622 224 623Q255 561 282 504T335 393Q449 150 461 88L509 311L548 494Q568 587 565 622H647ZM603 766Q551 666 481 666Q445 666 384 708Q334 741 318 740Q290 739 258 673L216 692Q271 788 324 791Q352 792 415 751Q467 715 492
713Q501 713 512 718T533 734T552 759T566 789Q576 784 585 778T603 766Z" />
<glyph unicode="&#xd2;" glyph-name="Ograve" horiz-adv-x="663" d="M630 301Q603 172 502 80Q398 -13 269 -12Q157 -10 93 60Q33 126 33 231Q33 250 35 269T41 308Q71 447 162 535Q262 630 406 632Q523 633 585 564Q641 502 641 396Q641 373 638 350T630 301ZM555
302Q565 348 565 392Q565 568 396 568Q278 568 190 456Q107 352 107 230Q107 149 152 101T283 53Q382 53 459 129Q532 199 555 302ZM456 682L409 666L312 833L375 856L456 682Z" />
<glyph unicode="&#xd3;" glyph-name="Oacute" horiz-adv-x="663" d="M630 301Q603 172 502 80Q398 -13 269 -12Q157 -10 93 60Q33 126 33 231Q33 250 35 269T41 308Q71 447 162 535Q262 630 406 632Q523 633 585 564Q641 502 641 396Q641 373 638 350T630 301ZM555
302Q565 348 565 392Q565 568 396 568Q278 568 190 456Q107 352 107 230Q107 149 152 101T283 53Q382 53 459 129Q532 199 555 302ZM552 833L455 666L408 682L489 856L552 833Z" />
<glyph unicode="&#xd4;" glyph-name="Ocircumflex" horiz-adv-x="663" d="M630 301Q603 172 502 80Q398 -13 269 -12Q157 -10 93 60Q33 126 33 231Q33 250 35 269T41 308Q71 447 162 535Q262 630 406 632Q523 633 585 564Q641 502 641 396Q641 373 638 350T630
301ZM555 302Q565 348 565 392Q565 568 396 568Q278 568 190 456Q107 352 107 230Q107 149 152 101T283 53Q382 53 459 129Q532 199 555 302ZM610 708L570 674L449 774Q446 774 283 669L254 708L458 832Q457 831 534 769Q610 708 610 708Z" />
<glyph unicode="&#xd5;" glyph-name="Otilde" horiz-adv-x="663" d="M630 301Q603 172 502 80Q398 -13 269 -12Q157 -10 93 60Q33 126 33 231Q33 250 35 269T41 308Q71 447 162 535Q262 630 406 632Q523 633 585 564Q641 502 641 396Q641 373 638 350T630 301ZM555
302Q565 348 565 392Q565 568 396 568Q278 568 190 456Q107 352 107 230Q107 149 152 101T283 53Q382 53 459 129Q532 199 555 302ZM621 766Q569 666 499 666Q463 666 402 708Q352 741 336 740Q308 739 276 673L234 692Q289 788 342 791Q370 792 433 751Q485 715
510 713Q519 713 530 718T551 734T570 759T584 789Q594 784 603 778T621 766Z" />
<glyph unicode="&#xd6;" glyph-name="Odieresis" horiz-adv-x="663" d="M630 301Q603 172 502 80Q398 -13 269 -12Q157 -10 93 60Q33 126 33 231Q33 250 35 269T41 308Q71 447 162 535Q262 630 406 632Q523 633 585 564Q641 502 641 396Q641 373 638 350T630 301ZM555
302Q565 348 565 392Q565 568 396 568Q278 568 190 456Q107 352 107 230Q107 149 152 101T283 53Q382 53 459 129Q532 199 555 302ZM573 719Q568 702 552 687T517 672Q496 672 485 685T478 719Q482 739 499 753T537 768Q554 768 565 754T573 719ZM374 722Q371 704
354 689T317 674Q297 674 286 688T279 722Q283 739 300 754T337 769Q357 769 368 754T374 722Z" />
<glyph unicode="&#xd7;" glyph-name="multiply" horiz-adv-x="500" d="M440 164L401 125L250 270L100 125L60 164L210 309L60 454L100 492L250 347L401 492L440 454L290 309L440 164Z" />
<glyph unicode="&#xd8;" glyph-name="Oslash" horiz-adv-x="680" d="M644 305Q613 164 509 75Q402 -16 259 -11L230 -99H176L207 -4Q123 14 76 79Q31 140 31 232Q31 269 40 310Q68 454 165 548Q270 649 413 648H419L457 764H511L472 643Q565 626 611 560Q655 498
655 404Q655 358 644 305ZM567 308Q577 351 577 394Q577 547 450 575L280 56Q385 55 467 131Q541 201 567 308ZM398 581Q276 581 191 473Q110 372 110 249Q110 181 139 132Q171 80 229 64L398 581Z" />
<glyph unicode="&#xd9;" glyph-name="Ugrave" horiz-adv-x="645" d="M639 622Q625 594 611 536Q601 490 587 422T553 260Q523 125 455 63Q370 -13 234 -13Q100 -13 50 73Q22 119 22 185Q22 219 30 262Q41 310 55 381T90 552Q94 575 95 592T95 623H197Q190 608
179 570T154 469Q139 403 127 349T105 250Q98 219 98 189Q98 54 250 54Q340 54 396 105Q444 150 470 250Q475 270 487 333T520 503Q528 546 531 575T534 622H639ZM427 682L380 666L283 833L346 856L427 682Z" />
<glyph unicode="&#xda;" glyph-name="Uacute" horiz-adv-x="645" d="M639 622Q625 594 611 536Q601 490 587 422T553 260Q523 125 455 63Q370 -13 234 -13Q100 -13 50 73Q22 119 22 185Q22 219 30 262Q41 310 55 381T90 552Q94 575 95 592T95 623H197Q190 608
179 570T154 469Q139 403 127 349T105 250Q98 219 98 189Q98 54 250 54Q340 54 396 105Q444 150 470 250Q475 270 487 333T520 503Q528 546 531 575T534 622H639ZM494 833L397 666L350 682L431 856L494 833Z" />
<glyph unicode="&#xdb;" glyph-name="Ucircumflex" horiz-adv-x="645" d="M639 622Q625 594 611 536Q601 490 587 422T553 260Q523 125 455 63Q370 -13 234 -13Q100 -13 50 73Q22 119 22 185Q22 219 30 262Q41 310 55 381T90 552Q94 575 95 592T95 623H197Q190
608 179 570T154 469Q139 403 127 349T105 250Q98 219 98 189Q98 54 250 54Q340 54 396 105Q444 150 470 250Q475 270 487 333T520 503Q528 546 531 575T534 622H639ZM573 708L533 674L412 774Q409 774 246 669L217 708L421 832Q420 831 497 769Q573 708 573 708Z"
/>
<glyph unicode="&#xdc;" glyph-name="Udieresis" horiz-adv-x="645" d="M639 622Q625 594 611 536Q601 490 587 422T553 260Q523 125 455 63Q370 -13 234 -13Q100 -13 50 73Q22 119 22 185Q22 219 30 262Q41 310 55 381T90 552Q94 575 95 592T95 623H197Q190 608
179 570T154 469Q139 403 127 349T105 250Q98 219 98 189Q98 54 250 54Q340 54 396 105Q444 150 470 250Q475 270 487 333T520 503Q528 546 531 575T534 622H639ZM538 719Q533 702 517 687T482 672Q461 672 450 685T443 719Q447 739 464 753T502 768Q519 768 530
754T538 719ZM339 722Q336 704 319 689T282 674Q262 674 251 688T244 722Q248 739 265 754T302 769Q322 769 333 754T339 722Z" />
<glyph unicode="&#xdd;" glyph-name="Yacute" horiz-adv-x="523" d="M517 624Q476 588 365 463Q332 425 299 388T233 312Q223 266 214 221T194 128Q174 35 176 -1L80 0Q108 57 163 317Q151 346 130 394T80 510Q33 609 15 624H120Q117 616 117 605Q117 577 133
542L209 374L359 541Q406 594 411 624H517ZM394 833L297 666L250 682L331 856L394 833Z" />
<glyph unicode="&#xde;" glyph-name="Thorn" horiz-adv-x="496" d="M484 322Q466 224 381 178Q329 149 258 144Q226 144 191 144T118 143Q97 37 98 0H9Q27 38 48 127L87 312Q124 493 126 495Q142 586 141 623H231Q223 606 215 577T196 508L335 505Q387 503 428
477Q488 439 488 362Q488 341 484 322ZM411 330Q415 345 415 360Q415 439 321 446Q307 447 273 447T184 447L154 310Q150 292 145 266T131 204Q190 203 224 203T270 206Q314 212 341 227Q398 259 411 330Z" />
<glyph unicode="&#xdf;" glyph-name="germandbls" horiz-adv-x="527" d="M439 537Q434 469 382 414Q346 377 309 341Q284 306 284 278Q284 264 291 253T309 231T334 210T362 189Q398 154 398 114Q398 109 398 103T396 91Q373 -10 241 -10Q232 -10 223 -10T206
-8Q172 -3 143 8Q128 14 118 12L132 80H158Q190 39 244 39Q278 39 306 58Q338 79 338 112Q338 122 331 132T314 153T290 174T264 195Q226 230 226 274Q226 301 240 332T299 407Q349 456 359 474Q380 510 380 539Q380 570 356 585T297 596Q225 587 198 516Q191 496
179 446T149 311Q125 197 110 120T87 -1H19Q30 33 50 119T99 348Q48 347 31 342L44 400Q58 392 108 394Q132 515 157 559Q204 645 308 647Q377 649 412 612Q442 582 439 537Z" />
<glyph unicode="&#xe0;" glyph-name="agrave" horiz-adv-x="540" d="M531 347Q480 318 450 266Q430 231 425 196Q423 181 422 170T421 151Q421 79 470 48L447 -10Q419 1 400 24Q376 53 377 90Q348 40 293 15Q244 -8 190 -8Q112 -8 70 39Q31 82 31 153Q31 165 32
177T36 202Q53 289 115 342Q179 397 276 397Q333 397 368 369T414 295Q417 312 426 328T448 358T479 382T514 399L531 347ZM369 195Q372 208 372 223Q372 247 364 268T341 304T306 329T261 338Q210 338 164 299Q113 256 103 197Q100 177 100 160Q100 109 126 80T202
50Q261 50 307 90Q356 131 369 195ZM321 465L274 449L177 616L240 639L321 465Z" />
<glyph unicode="&#xe1;" glyph-name="aacute" horiz-adv-x="540" d="M531 347Q480 318 450 266Q430 231 425 196Q423 181 422 170T421 151Q421 79 470 48L447 -10Q419 1 400 24Q376 53 377 90Q348 40 293 15Q244 -8 190 -8Q112 -8 70 39Q31 82 31 153Q31 165 32
177T36 202Q53 289 115 342Q179 397 276 397Q333 397 368 369T414 295Q417 312 426 328T448 358T479 382T514 399L531 347ZM369 195Q372 208 372 223Q372 247 364 268T341 304T306 329T261 338Q210 338 164 299Q113 256 103 197Q100 177 100 160Q100 109 126 80T202
50Q261 50 307 90Q356 131 369 195ZM389 620L293 453L245 469L326 643L389 620Z" />
<glyph unicode="&#xe2;" glyph-name="acircumflex" horiz-adv-x="540" d="M531 347Q480 318 450 266Q430 231 425 196Q423 181 422 170T421 151Q421 79 470 48L447 -10Q419 1 400 24Q376 53 377 90Q348 40 293 15Q244 -8 190 -8Q112 -8 70 39Q31 82 31 153Q31
165 32 177T36 202Q53 289 115 342Q179 397 276 397Q333 397 368 369T414 295Q417 312 426 328T448 358T479 382T514 399L531 347ZM369 195Q372 208 372 223Q372 247 364 268T341 304T306 329T261 338Q210 338 164 299Q113 256 103 197Q100 177 100 160Q100 109
126 80T202 50Q261 50 307 90Q356 131 369 195ZM495 501L454 467L333 567Q331 567 168 462L139 501L343 625Q342 625 419 563Q495 501 495 501Z" />
<glyph unicode="&#xe3;" glyph-name="atilde" horiz-adv-x="540" d="M531 347Q480 318 450 266Q430 231 425 196Q423 181 422 170T421 151Q421 79 470 48L447 -10Q419 1 400 24Q376 53 377 90Q348 40 293 15Q244 -8 190 -8Q112 -8 70 39Q31 82 31 153Q31 165 32
177T36 202Q53 289 115 342Q179 397 276 397Q333 397 368 369T414 295Q417 312 426 328T448 358T479 382T514 399L531 347ZM369 195Q372 208 372 223Q372 247 364 268T341 304T306 329T261 338Q210 338 164 299Q113 256 103 197Q100 177 100 160Q100 109 126 80T202
50Q261 50 307 90Q356 131 369 195ZM505 565Q453 465 382 465Q348 465 285 507Q236 540 219 539Q190 537 159 472L117 491Q173 586 225 589Q257 591 315 549Q364 514 393 512Q402 512 413 517T434 533T453 557T467 587Q485 577 505 565Z" />
<glyph unicode="&#xe4;" glyph-name="adieresis" horiz-adv-x="540" d="M531 347Q480 318 450 266Q430 231 425 196Q423 181 422 170T421 151Q421 79 470 48L447 -10Q419 1 400 24Q376 53 377 90Q348 40 293 15Q244 -8 190 -8Q112 -8 70 39Q31 82 31 153Q31 165
32 177T36 202Q53 289 115 342Q179 397 276 397Q333 397 368 369T414 295Q417 312 426 328T448 358T479 382T514 399L531 347ZM369 195Q372 208 372 223Q372 247 364 268T341 304T306 329T261 338Q210 338 164 299Q113 256 103 197Q100 177 100 160Q100 109 126
80T202 50Q261 50 307 90Q356 131 369 195ZM432 504Q429 488 414 475T382 462Q364 462 354 474T348 504Q352 521 367 534T400 547Q416 547 426 534T432 504ZM256 506Q253 490 238 477T206 464Q188 464 178 476T171 506Q175 522 190 535T223 548Q240 548 250 535T256
506Z" />
<glyph unicode="&#xe5;" glyph-name="aring" horiz-adv-x="540" d="M531 347Q480 318 450 266Q430 231 425 196Q423 181 422 170T421 151Q421 79 470 48L447 -10Q419 1 400 24Q376 53 377 90Q348 40 293 15Q244 -8 190 -8Q112 -8 70 39Q31 82 31 153Q31 165 32
177T36 202Q53 289 115 342Q179 397 276 397Q333 397 368 369T414 295Q417 312 426 328T448 358T479 382T514 399L531 347ZM369 195Q372 208 372 223Q372 247 364 268T341 304T306 329T261 338Q210 338 164 299Q113 256 103 197Q100 177 100 160Q100 109 126 80T202
50Q261 50 307 90Q356 131 369 195ZM270 459Q237 459 217 479T196 532Q196 553 205 573T231 608T267 633T309 643Q342 643 363 623T384 570Q384 548 374 528T348 493T312 468T270 459ZM349 563Q349 583 336 596T302 609Q288 609 276 603T253 588T237 565T231 539Q231
519 244 506T278 493Q291 493 304 499T327 514T343 536T349 563Z" />
<glyph unicode="&#xe6;" glyph-name="ae" horiz-adv-x="641" d="M617 197H314Q309 174 309 156Q309 107 338 77T418 45Q432 45 449 48T485 58T519 73T545 91L563 38Q476 -5 412 -8Q364 -10 326 11T274 72Q254 48 236 32T198 6T158 -8T111 -12Q54 -12 26 15T-3
89Q-3 154 60 199Q107 233 183 248L268 266Q271 285 272 291T273 302Q273 353 211 348Q191 347 170 342T129 328T90 308T58 283L61 344Q73 356 91 366T131 385T174 397T216 402Q236 402 255 398T290 384T317 359T330 323Q373 392 462 395Q495 396 524 386T575 356T609
308T622 245Q622 225 617 197ZM557 250Q558 253 558 259Q558 275 550 290T529 316T500 333T468 340Q387 340 335 250H557ZM256 210Q209 202 172 193T109 171T70 138T56 90Q56 41 116 40Q132 40 149 43T181 54T208 71T229 93L256 210Z" />
<glyph unicode="&#xe7;" glyph-name="ccedilla" horiz-adv-x="395" d="M202 -134Q188 -156 158 -166Q133 -176 103 -174Q70 -171 61 -160L94 -120Q106 -126 121 -126Q154 -126 163 -98Q166 -92 166 -86Q166 -62 122 -48L148 -5Q91 7 59 54Q29 97 29 159Q29 185
35 212Q53 293 113 341Q169 385 252 393Q314 398 365 383L344 330Q303 342 269 342Q234 342 206 330Q117 292 95 193Q92 176 92 161Q92 135 100 114T124 77T160 53T208 47Q267 51 296 68L303 15Q280 5 254 0T198 -8Q200 -10 185 -29Q217 -49 217 -85Q217 -109 202
-134Z" />
<glyph unicode="&#xe8;" glyph-name="egrave" horiz-adv-x="424" d="M398 309Q398 224 280 194Q244 184 198 184Q140 184 101 197Q94 172 94 147Q94 50 215 50Q279 50 332 94L350 38Q276 -6 199 -8Q118 -8 72 38Q29 81 29 152Q29 175 35 201Q53 284 118 340Q184
396 267 394Q398 392 398 309ZM278 335Q272 335 266 335T252 333Q163 321 120 245Q151 236 176 236Q210 236 260 248Q335 266 335 303Q335 335 278 335ZM309 465L262 449L165 616L228 639L309 465Z" />
<glyph unicode="&#xe9;" glyph-name="eacute" horiz-adv-x="424" d="M398 309Q398 224 280 194Q244 184 198 184Q140 184 101 197Q94 172 94 147Q94 50 215 50Q279 50 332 94L350 38Q276 -6 199 -8Q118 -8 72 38Q29 81 29 152Q29 175 35 201Q53 284 118 340Q184
396 267 394Q398 392 398 309ZM278 335Q272 335 266 335T252 333Q163 321 120 245Q151 236 176 236Q210 236 260 248Q335 266 335 303Q335 335 278 335ZM408 620L312 453L264 469L345 643L408 620Z" />
<glyph unicode="&#xea;" glyph-name="ecircumflex" horiz-adv-x="424" d="M398 309Q398 224 280 194Q244 184 198 184Q140 184 101 197Q94 172 94 147Q94 50 215 50Q279 50 332 94L350 38Q276 -6 199 -8Q118 -8 72 38Q29 81 29 152Q29 175 35 201Q53 284 118 340Q184
396 267 394Q398 392 398 309ZM278 335Q272 335 266 335T252 333Q163 321 120 245Q151 236 176 236Q210 236 260 248Q335 266 335 303Q335 335 278 335ZM447 501L406 467L285 567Q283 567 120 462L91 501L295 625Q294 625 371 563Q447 501 447 501Z" />
<glyph unicode="&#xeb;" glyph-name="edieresis" horiz-adv-x="424" d="M398 309Q398 224 280 194Q244 184 198 184Q140 184 101 197Q94 172 94 147Q94 50 215 50Q279 50 332 94L350 38Q276 -6 199 -8Q118 -8 72 38Q29 81 29 152Q29 175 35 201Q53 284 118 340Q184
396 267 394Q398 392 398 309ZM278 335Q272 335 266 335T252 333Q163 321 120 245Q151 236 176 236Q210 236 260 248Q335 266 335 303Q335 335 278 335ZM432 504Q429 488 414 475T382 462Q364 462 354 474T348 504Q352 521 367 534T400 547Q416 547 426 534T432
504ZM256 506Q253 490 238 477T206 464Q188 464 178 476T171 506Q175 522 190 535T223 548Q240 548 250 535T256 506Z" />
<glyph unicode="&#xec;" glyph-name="igrave" horiz-adv-x="186" d="M174 378Q173 365 132 206Q95 56 97 55Q104 51 161 78L150 29Q132 15 93 1Q58 -11 35 -9Q29 -8 29 5Q29 31 48 100L72 187Q106 324 106 331Q106 338 99 338Q97 338 91 337T77 333T63 328T57
326L62 379Q92 387 113 390T149 396Q160 398 167 393T174 378ZM180 465L133 449L36 616L99 639L180 465Z" />
<glyph unicode="&#xed;" glyph-name="iacute" horiz-adv-x="186" d="M174 378Q173 365 132 206Q95 56 97 55Q104 51 161 78L150 29Q132 15 93 1Q58 -11 35 -9Q29 -8 29 5Q29 31 48 100L72 187Q106 324 106 331Q106 338 99 338Q97 338 91 337T77 333T63 328T57
326L62 379Q92 387 113 390T149 396Q160 398 167 393T174 378ZM251 620L155 453L107 469L188 643L251 620Z" />
<glyph unicode="&#xee;" glyph-name="icircumflex" horiz-adv-x="303" d="M205 378Q204 365 163 206Q126 56 128 55Q135 51 192 78L181 29Q163 15 124 1Q89 -11 66 -9Q60 -8 60 5Q60 31 79 100L103 187Q137 324 137 331Q137 338 130 338Q128 338 122 337T108 333T94
328T88 326L93 379Q123 387 144 390T180 396Q191 398 198 393T205 378ZM352 501L311 467L190 567Q188 567 25 462L-4 501L200 625Q199 625 276 563Q352 501 352 501Z" />
<glyph unicode="&#xef;" glyph-name="idieresis" horiz-adv-x="186" d="M174 378Q173 365 132 206Q95 56 97 55Q104 51 161 78L150 29Q132 15 93 1Q58 -11 35 -9Q29 -8 29 5Q29 31 48 100L72 187Q106 324 106 331Q106 338 99 338Q97 338 91 337T77 333T63 328T57
326L62 379Q92 387 113 390T149 396Q160 398 167 393T174 378ZM283 504Q280 488 265 475T233 462Q215 462 205 474T199 504Q203 521 218 534T251 547Q267 547 277 534T283 504ZM107 506Q104 490 89 477T57 464Q39 464 29 476T22 506Q26 522 41 535T74 548Q91 548
101 535T107 506Z" />
<glyph unicode="&#xf0;" glyph-name="eth" horiz-adv-x="489" d="M449 591L326 534Q341 516 353 499T375 466Q445 348 445 252Q445 222 439 194Q421 95 348 41Q284 -8 194 -8Q117 -8 72 42Q27 91 27 164Q27 190 33 216Q53 297 118 346Q188 398 279 394Q321 393
353 382Q331 438 271 504L135 440Q133 438 128 473L247 529Q206 570 168 595L211 642L219 636Q244 617 265 598T304 559L439 623Q442 620 449 591ZM377 194Q379 204 380 213T381 232Q381 281 351 311T270 341Q200 341 154 301T93 194Q89 179 89 163Q89 139 97 118T122
81T159 56T207 47Q237 47 264 57T314 87T353 133T377 194Z" />
<glyph unicode="&#xf1;" glyph-name="ntilde" horiz-adv-x="443" d="M428 81L418 32Q398 17 361 5Q323 -6 301 -4Q295 -4 295 13Q295 26 299 49T311 107Q316 128 321 149T331 191Q344 249 344 281Q344 351 289 352Q217 353 144 299Q129 227 114 153T82 0H13Q25
48 44 132T90 340Q88 342 84 342Q77 342 61 336Q42 330 47 383Q103 399 134 400Q144 401 151 396T159 382L149 346Q167 361 202 378Q256 403 309 403Q358 403 382 381T406 305Q406 284 402 257T390 195Q364 77 364 64Q364 58 366 56Q373 53 428 81ZM458 565Q406
465 335 465Q301 465 238 507Q189 540 172 539Q143 537 112 472L70 491Q126 586 178 589Q210 591 268 549Q317 514 346 512Q355 512 366 517T387 533T406 557T420 587Q438 577 458 565Z" />
<glyph unicode="&#xf2;" glyph-name="ograve" horiz-adv-x="470" d="M436 187Q417 93 345 40Q280 -8 194 -8Q116 -8 71 39Q27 83 27 154Q27 177 33 203Q53 288 120 340Q189 394 280 394Q356 394 399 353T442 239Q442 214 436 187ZM373 193Q378 216 378 233Q378
282 350 311T270 341Q207 341 158 299Q108 257 95 194Q91 178 91 159Q91 108 122 78T208 47Q268 47 313 86T373 193ZM305 465L258 449L161 616L224 639L305 465Z" />
<glyph unicode="&#xf3;" glyph-name="oacute" horiz-adv-x="470" d="M436 187Q417 93 345 40Q280 -8 194 -8Q116 -8 71 39Q27 83 27 154Q27 177 33 203Q53 288 120 340Q189 394 280 394Q356 394 399 353T442 239Q442 214 436 187ZM373 193Q378 216 378 233Q378
282 350 311T270 341Q207 341 158 299Q108 257 95 194Q91 178 91 159Q91 108 122 78T208 47Q268 47 313 86T373 193ZM426 620L330 453L282 469L363 643L426 620Z" />
<glyph unicode="&#xf4;" glyph-name="ocircumflex" horiz-adv-x="470" d="M436 187Q417 93 345 40Q280 -8 194 -8Q116 -8 71 39Q27 83 27 154Q27 177 33 203Q53 288 120 340Q189 394 280 394Q356 394 399 353T442 239Q442 214 436 187ZM373 193Q378 216 378 233Q378
282 350 311T270 341Q207 341 158 299Q108 257 95 194Q91 178 91 159Q91 108 122 78T208 47Q268 47 313 86T373 193ZM468 501L427 467L306 567Q304 567 141 462L112 501L316 625Q315 625 392 563Q468 501 468 501Z" />
<glyph unicode="&#xf5;" glyph-name="otilde" horiz-adv-x="470" d="M436 187Q417 93 345 40Q280 -8 194 -8Q116 -8 71 39Q27 83 27 154Q27 177 33 203Q53 288 120 340Q189 394 280 394Q356 394 399 353T442 239Q442 214 436 187ZM373 193Q378 216 378 233Q378
282 350 311T270 341Q207 341 158 299Q108 257 95 194Q91 178 91 159Q91 108 122 78T208 47Q268 47 313 86T373 193ZM505 565Q453 465 382 465Q348 465 285 507Q236 540 219 539Q190 537 159 472L117 491Q173 586 225 589Q257 591 315 549Q364 514 393 512Q402
512 413 517T434 533T453 557T467 587Q485 577 505 565Z" />
<glyph unicode="&#xf6;" glyph-name="odieresis" horiz-adv-x="470" d="M436 187Q417 93 345 40Q280 -8 194 -8Q116 -8 71 39Q27 83 27 154Q27 177 33 203Q53 288 120 340Q189 394 280 394Q356 394 399 353T442 239Q442 214 436 187ZM373 193Q378 216 378 233Q378
282 350 311T270 341Q207 341 158 299Q108 257 95 194Q91 178 91 159Q91 108 122 78T208 47Q268 47 313 86T373 193ZM432 504Q429 488 414 475T382 462Q364 462 354 474T348 504Q352 521 367 534T400 547Q416 547 426 534T432 504ZM256 506Q253 490 238 477T206
464Q188 464 178 476T171 506Q175 522 190 535T223 548Q240 548 250 535T256 506Z" />
<glyph unicode="&#xf7;" glyph-name="divide" horiz-adv-x="594" d="M355 444Q355 421 338 405T297 388Q275 388 258 405T241 444Q241 467 258 484T297 502Q320 502 337 485T355 444ZM543 228H49V283H543V228ZM355 67Q355 43 338 27T297 10Q275 10 258 27T241
67Q241 89 258 106T297 123Q320 123 337 106T355 67Z" />
<glyph unicode="&#xf8;" glyph-name="oslash" horiz-adv-x="467" d="M438 194Q419 101 349 45Q285 -5 202 -8L179 -78H125L149 -4Q91 8 60 48T28 147Q28 170 34 196Q52 281 121 337Q190 394 280 394L303 465H357L332 388Q444 363 444 245Q444 221 438 194ZM373
193Q378 216 378 233Q378 312 314 334L220 47Q275 52 316 91T373 193ZM262 341Q201 338 155 296Q108 255 95 194Q92 177 92 162Q92 78 168 53L262 341Z" />
<glyph unicode="&#xf9;" glyph-name="ugrave" horiz-adv-x="426" d="M412 388Q399 339 381 257T337 56Q339 54 340 54Q342 54 347 56T359 62T370 68T377 71Q381 64 385 29Q302 -15 278 -9Q267 -7 267 10Q267 16 272 44Q210 -10 127 -9Q21 -8 21 101Q21 140 33
199Q41 231 51 278T76 388H145Q137 357 126 310T99 198Q92 169 89 147T86 110Q86 43 147 42Q199 41 245 72Q278 95 288 113Q290 122 305 190T347 388H412ZM286 465L239 449L142 616L205 639L286 465Z" />
<glyph unicode="&#xfa;" glyph-name="uacute" horiz-adv-x="426" d="M412 388Q399 339 381 257T337 56Q339 54 340 54Q342 54 347 56T359 62T370 68T377 71Q381 64 385 29Q302 -15 278 -9Q267 -7 267 10Q267 16 272 44Q210 -10 127 -9Q21 -8 21 101Q21 140 33
199Q41 231 51 278T76 388H145Q137 357 126 310T99 198Q92 169 89 147T86 110Q86 43 147 42Q199 41 245 72Q278 95 288 113Q290 122 305 190T347 388H412ZM366 620L270 453L222 469L303 643L366 620Z" />
<glyph unicode="&#xfb;" glyph-name="ucircumflex" horiz-adv-x="426" d="M412 388Q399 339 381 257T337 56Q339 54 340 54Q342 54 347 56T359 62T370 68T377 71Q381 64 385 29Q302 -15 278 -9Q267 -7 267 10Q267 16 272 44Q210 -10 127 -9Q21 -8 21 101Q21 140
33 199Q41 231 51 278T76 388H145Q137 357 126 310T99 198Q92 169 89 147T86 110Q86 43 147 42Q199 41 245 72Q278 95 288 113Q290 122 305 190T347 388H412ZM450 501L409 467L288 567Q286 567 123 462L94 501L298 625Q297 625 374 563Q450 501 450 501Z" />
<glyph unicode="&#xfc;" glyph-name="udieresis" horiz-adv-x="426" d="M412 388Q399 339 381 257T337 56Q339 54 340 54Q342 54 347 56T359 62T370 68T377 71Q381 64 385 29Q302 -15 278 -9Q267 -7 267 10Q267 16 272 44Q210 -10 127 -9Q21 -8 21 101Q21 140
33 199Q41 231 51 278T76 388H145Q137 357 126 310T99 198Q92 169 89 147T86 110Q86 43 147 42Q199 41 245 72Q278 95 288 113Q290 122 305 190T347 388H412ZM400 504Q397 488 382 475T350 462Q332 462 322 474T316 504Q320 521 335 534T368 547Q384 547 394 534T400
504ZM224 506Q221 490 206 477T174 464Q156 464 146 476T139 506Q143 522 158 535T191 548Q208 548 218 535T224 506Z" />
<glyph unicode="&#xfd;" glyph-name="yacute" horiz-adv-x="418" d="M415 387L234 44Q176 -64 157 -95Q91 -196 32 -214Q-1 -224 -35 -224Q-103 -224 -133 -192L-103 -143Q-78 -171 -27 -171Q-14 -171 0 -168Q59 -154 122 -39Q96 69 71 175T20 388L96 387Q106
339 124 251T168 34Q187 70 213 125T275 257Q335 387 336 387Q414 388 415 387ZM358 620L262 453L214 469L295 643L358 620Z" />
<glyph unicode="&#xfe;" glyph-name="thorn" horiz-adv-x="448" d="M439 192Q419 90 352 39Q289 -10 192 -9Q121 -7 94 36L86 -3Q71 -72 44 -222H-28Q-19 -194 -6 -140T25 -2Q27 5 38 55T70 200Q79 240 88 279T105 359Q111 384 117 408T129 457Q158 568 154 570Q152
572 149 572Q144 572 126 567Q107 561 106 560L112 613Q141 621 162 625T198 630Q209 632 216 627T223 612Q214 551 169 361Q209 397 279 397Q315 397 345 386T398 354T432 304T444 238Q444 227 443 216T439 192ZM374 194Q376 204 377 213T378 231Q378 283 349
312T269 342Q205 342 153 296Q145 262 134 212T106 92Q137 44 206 44Q268 44 314 87Q362 130 374 194Z" />
<glyph unicode="&#xff;" glyph-name="ydieresis" horiz-adv-x="418" d="M415 387L234 44Q176 -64 157 -95Q91 -196 32 -214Q-1 -224 -35 -224Q-103 -224 -133 -192L-103 -143Q-78 -171 -27 -171Q-14 -171 0 -168Q59 -154 122 -39Q96 69 71 175T20 388L96 387Q106
339 124 251T168 34Q187 70 213 125T275 257Q335 387 336 387Q414 388 415 387ZM385 504Q382 488 367 475T335 462Q317 462 307 474T301 504Q305 521 320 534T353 547Q369 547 379 534T385 504ZM209 506Q206 490 191 477T159 464Q141 464 131 476T124 506Q128 522
143 535T176 548Q193 548 203 535T209 506Z" />
<glyph unicode="&#x2013;" glyph-name="endash" horiz-adv-x="543" d="M550 273L536 211H-7L7 273H550Z" />
<glyph unicode="&#x2014;" glyph-name="emdash" horiz-adv-x="722" d="M729 273L717 212H-7L5 273H729Z" />
<glyph unicode="&#x2018;" glyph-name="quoteleft" horiz-adv-x="165" d="M75 633L156 459L108 443L12 610L75 633Z" />
<glyph unicode="&#x2019;" glyph-name="quoteright" horiz-adv-x="207" d="M198 610L102 443L54 459L135 633L198 610Z" />
<glyph unicode="&#x201a;" glyph-name="quotesinglbase" horiz-adv-x="407" d="M272 37L175 -130L128 -114L209 60L272 37Z" />
<glyph unicode="&#x201c;" glyph-name="quotedblleft" horiz-adv-x="275" d="M75 633L156 459L108 443L12 610L75 633ZM185 633L266 459L218 443L122 610L185 633Z" />
<glyph unicode="&#x201d;" glyph-name="quotedblright" horiz-adv-x="317" d="M308 610L212 443L164 459L245 633L308 610ZM198 610L102 443L54 459L135 633L198 610Z" />
<glyph unicode="&#x201e;" glyph-name="quotedblbase" horiz-adv-x="407" d="M327 39L231 -128L183 -112L264 62L327 39ZM217 39L121 -128L73 -112L154 62L217 39Z" />
<glyph unicode="&#x2022;" glyph-name="bullet" horiz-adv-x="594" d="M466 337Q466 302 453 272T416 219T362 183T297 169Q262 169 232 182T178 218T142 271T128 337Q128 371 141 401T178 455T232 492T297 506Q331 506 361 493T415 456T452 402T466 337Z" />
<glyph unicode="&#x2039;" glyph-name="guilsinglleft" horiz-adv-x="289" d="M287 399L273 330L75 195L217 59L203 1L24 169L38 231L287 399Z" />
<glyph unicode="&#x203a;" glyph-name="guilsinglright" horiz-adv-x="289" d="M265 230L252 168L2 0L17 69L215 204L73 340L87 398L265 230Z" />
</font>
</defs>
</svg>
