<?xml version="1.0" standalone="no"?>
<!DOCTYPE svg PUBLIC "-//W3C//DTD SVG 1.1//EN" "http://www.w3.org/Graphics/SVG/1.1/DTD/svg11.dtd">
<svg xmlns="http://www.w3.org/2000/svg">
<defs >
<font id="ProzaLibre" horiz-adv-x="1295" ><font-face
    font-family="Proza Libre"
    units-per-em="2048"
    panose-1="2 0 5 3 6 0 0 2 0 4"
    ascent="1996"
    descent="-800"
    alphabetic="0" />
<glyph unicode=" " glyph-name="space" horiz-adv-x="390" />
<glyph unicode="!" glyph-name="exclam" horiz-adv-x="778" d="M249 604L165 1465H598L515 604H249ZM384 -20Q338 -20 298 -3T227 44T178 115T160 206Q160 257 179 299T231 372T306 419T394 436Q440 436 480 419T551 372T600 301T618 210Q618 159 599 117T546
44T471 -3T384 -20Z" />
<glyph unicode="&quot;" glyph-name="quotedbl" horiz-adv-x="1357" d="M120 828Q201 919 255 1009T331 1194Q316 1210 296 1225T253 1254T206 1277T157 1293Q149 1316 145 1341T140 1392Q140 1444 160 1486T212 1559T287 1605T374 1622Q416 1622 457 1606T531
1558T584 1476T604 1359Q604 1301 588 1232T532 1084T423 921T252 747L120 828ZM743 828Q824 919 878 1009T954 1194Q939 1210 919 1225T876 1254T829 1277T780 1293Q772 1316 768 1341T763 1392Q763 1444 783 1486T835 1559T910 1605T997 1622Q1039 1622 1080
1606T1154 1558T1207 1476T1227 1359Q1227 1301 1211 1232T1155 1084T1046 921T875 747L743 828Z" />
<glyph unicode="#" glyph-name="numbersign" horiz-adv-x="1788" d="M381 300H140L188 555H429L495 910H254L301 1165H542L598 1465H853L797 1165H1152L1208 1465H1463L1407 1165H1648L1601 910H1360L1294 555H1535L1487 300H1246L1191 0H936L991 300H636L581
0H326L381 300ZM684 555H1039L1105 910H750L684 555Z" />
<glyph unicode="$" glyph-name="dollar" horiz-adv-x="1386" d="M626 239Q669 239 709 247T780 272T829 318T848 385Q848 435 821 471T748 535T646 587T529 637T412 696T310 774T238 879T210 1024Q210 1106 236 1175T312 1299T431 1392T590 1449V1814H845V1465Q875
1465 914 1462T996 1451T1083 1435T1167 1415L1109 1160L1092 1152Q1048 1172 1002 1186T914 1209T836 1222T773 1226Q732 1226 698 1218T640 1192T601 1151T587 1094Q587 1045 614 1010T687 948T789 896T906 846T1023 787T1126 708T1198 601T1226 454Q1226 373
1200 303T1125 178T1006 83T845 22V-350H590V1Q548 1 496 7T388 24T273 53T160 95L217 351L238 361Q296 335 347 313T446 274T537 248T626 239Z" />
<glyph unicode="%" glyph-name="percent" horiz-adv-x="2353" d="M1496 1465H1802L856 0H550L1496 1465ZM570 630Q480 630 405 659T275 741T191 870T160 1038Q160 1138 195 1220T291 1361T434 1452T611 1485Q701 1485 776 1456T906 1372T991 1243T1022 1075Q1022
975 987 893T891 753T747 662T570 630ZM454 1064Q454 1018 464 980T493 915T537 872T594 857Q653 857 690 908T727 1050Q727 1096 717 1134T687 1200T643 1243T586 1258Q527 1258 491 1206T454 1064ZM1741 -20Q1651 -20 1576 9T1446 91T1362 220T1331 388Q1331
488 1366 570T1462 711T1605 802T1782 835Q1872 835 1947 806T2077 722T2162 593T2193 425Q2193 325 2158 243T2062 103T1918 12T1741 -20ZM1625 414Q1625 368 1635 330T1664 265T1708 222T1765 207Q1824 207 1861 258T1898 400Q1898 446 1888 484T1858 550T1814
593T1757 608Q1698 608 1662 556T1625 414Z" />
<glyph unicode="&amp;" glyph-name="ampersand" horiz-adv-x="1579" d="M1159 1171Q1159 1102 1131 1039T1058 921T959 821T852 744Q906 692 960 644T1077 546Q1097 583 1110 609T1131 660T1147 713T1162 784H1442Q1411 683 1371 593T1272 412Q1338 365 1396 328T1519
253L1336 -28Q1272 13 1206 59T1081 150Q1039 109 993 78T892 24T773 -9T631 -20Q508 -20 413 7T252 84T154 200T120 348Q120 421 146 481T214 591T312 681T427 756Q350 834 306 920T261 1101Q261 1188 299 1258T403 1379T558 1457T752 1485Q845 1485 920 1463T1048
1400T1130 1301T1159 1171ZM904 293Q823 361 746 429T592 579Q548 551 521 507T493 406Q493 365 508 331T552 272T622 233T714 219Q763 219 814 235T904 293ZM591 1113Q591 1084 600 1058T625 1008T661 959T702 908Q732 928 760 952T809 1003T844 1061T857 1124Q857
1178 822 1212T726 1246Q664 1246 628 1209T591 1113Z" />
<glyph unicode="&apos;" glyph-name="quotesingle" horiz-adv-x="734" d="M120 828Q201 919 255 1009T331 1194Q316 1210 296 1225T253 1254T206 1277T157 1293Q149 1316 145 1341T140 1392Q140 1444 160 1486T212 1559T287 1605T374 1622Q416 1622 457 1606T531
1558T584 1476T604 1359Q604 1301 588 1232T532 1084T423 921T252 747L120 828Z" />
<glyph unicode="(" glyph-name="parenleft" horiz-adv-x="914" d="M814 1487Q757 1407 710 1315T629 1115T577 884T558 620Q558 481 576 359T629 129T710 -71T814 -243L642 -373Q534 -280 452 -175T313 50T229 306T200 600Q200 915 312 1173T642 1617L814 1487Z" />
<glyph unicode=")" glyph-name="parenright" horiz-adv-x="914" d="M100 -243Q157 -164 204 -71T285 129T337 360T356 624Q356 763 338 885T285 1115T204 1315T100 1487L272 1617Q380 1524 462 1419T601 1194T685 938T714 644Q714 329 602 71T272 -373L100 -243Z" />
<glyph unicode="*" glyph-name="asterisk" horiz-adv-x="1200" d="M502 1058L492 1073L140 992L168 1238L494 1168L504 1183L247 1452L486 1552L590 1227H610L706 1552L952 1460L694 1183L703 1168L1060 1244L1032 996L703 1067L693 1052L944 776L704 670L610
1009H590L494 680L248 772L502 1058Z" />
<glyph unicode="+" glyph-name="plus" horiz-adv-x="1307" d="M786 719H1157V464H786V81H521V464H150V719H521V1102H786V719Z" />
<glyph unicode="," glyph-name="comma" horiz-adv-x="784" d="M140 -358Q221 -267 275 -177T351 8Q336 24 316 39T273 68T226 91T177 107Q169 130 165 155T160 206Q160 258 180 300T232 373T307 419T394 436Q436 436 477 420T551 372T604 290T624 173Q624 115
608 46T552 -102T443 -265T272 -439L140 -358Z" />
<glyph unicode="-" glyph-name="hyphen" horiz-adv-x="986" d="M836 719V464H150V719H836Z" />
<glyph unicode="." glyph-name="period" horiz-adv-x="778" d="M384 -20Q338 -20 298 -3T227 44T178 115T160 206Q160 257 179 299T231 372T306 419T394 436Q440 436 480 419T551 372T600 301T618 210Q618 159 599 117T546 44T471 -3T384 -20Z" />
<glyph unicode="/" glyph-name="slash" horiz-adv-x="991" d="M621 1602H896L355 -308H80L621 1602Z" />
<glyph unicode="0" glyph-name="zero" horiz-adv-x="1476" d="M958 720Q958 838 945 935T905 1101T836 1208T734 1246Q676 1246 635 1210T568 1107T530 948T518 743Q518 625 531 529T571 363T641 257T743 219Q801 219 842 255T908 358T946 516T958 720ZM1376 756Q1376
558 1325 412T1184 170T974 27T713 -20Q575 -20 462 25T269 162T144 389T100 707Q100 905 151 1051T292 1293T503 1437T764 1485Q902 1485 1015 1439T1208 1302T1332 1074T1376 756Z" />
<glyph unicode="1" glyph-name="one" horiz-adv-x="988" d="M402 0V1114H60V1299Q157 1299 235 1310T377 1342T489 1394T577 1465H808V0H402Z" />
<glyph unicode="2" glyph-name="two" horiz-adv-x="1261" d="M81 100Q243 280 355 415T537 655T639 841T671 995Q671 1059 650 1103T594 1174T513 1214T417 1227Q377 1227 340 1221T269 1204T206 1181T152 1157V1334Q195 1367 249 1394T366 1442T497 1473T638
1485Q745 1485 829 1459T971 1383T1059 1260T1090 1093Q1090 1003 1060 913T962 721T789 501T532 239H1161L1112 0H80L81 100Z" />
<glyph unicode="3" glyph-name="three" horiz-adv-x="1191" d="M1057 1193Q1057 1140 1036 1097T975 1014T875 938T740 859V839Q819 822 882 792T990 717T1057 616T1081 490Q1081 433 1063 375T1000 262T884 160T703 77T449 21T110 0V239Q232 239 320 249T470
275T569 315T628 363T656 416T663 469Q663 524 635 562T557 622T440 653T294 656V843Q325 851 362 861T438 886T512 918T576 960T621 1013T638 1079Q638 1117 618 1145T567 1191T495 1218T414 1227Q375 1227 336 1221T261 1205T191 1183T129 1157V1334Q174 1368
231 1396T354 1443T488 1474T627 1485Q732 1485 812 1461T947 1396T1029 1303T1057 1193Z" />
<glyph unicode="4" glyph-name="four" horiz-adv-x="1360" d="M50 514L560 1465H1086V621H1310L1268 382H1086V0H680V382H50V514ZM680 621V1024L688 1230H668L575 1021L362 621H680Z" />
<glyph unicode="5" glyph-name="five" horiz-adv-x="1108" d="M180 1465H989L948 1226H418L394 977Q536 977 648 947T838 862T957 729T998 555Q998 498 982 435T926 310T821 192T657 94T424 26T113 0V239Q240 239 327 260T468 318T545 403T569 505Q569 565 544
608T475 681T374 724T252 738H110L180 1465Z" />
<glyph unicode="6" glyph-name="six" horiz-adv-x="1360" d="M680 803Q700 817 726 831T782 858T847 878T917 886Q984 886 1048 860T1161 784T1240 663T1270 504Q1270 402 1230 308T1112 141T923 24T668 -20Q516 -20 407 28T227 156T123 340T90 557Q90 659 116
766T196 974T331 1164T521 1320T768 1426T1072 1465H1142V1226H1084Q924 1226 814 1181T636 1056T538 865T508 621Q508 539 519 466T554 338T615 251T704 219Q769 219 810 282T852 458Q852 554 820 610T717 667Q707 667 699 666T680 663V803Z" />
<glyph unicode="7" glyph-name="seven" horiz-adv-x="1134" d="M80 1226L122 1465H1054V1353Q918 1016 802 678T585 0H168Q287 310 419 613T700 1226H80Z" />
<glyph unicode="8" glyph-name="eight" horiz-adv-x="1351" d="M398 728Q350 754 307 785T231 856T179 946T160 1061Q160 1152 199 1229T311 1364T486 1453T712 1485Q823 1485 913 1460T1066 1388T1164 1280T1199 1144Q1199 1085 1178 1036T1121 943T1037 865T935
799Q998 767 1055 733T1155 655T1224 555T1250 424Q1250 330 1209 249T1089 108T899 14T648 -20Q520 -20 419 8T247 87T138 204T100 350Q100 414 124 468T190 568T285 653T398 728ZM593 640Q529 598 494 539T461 417Q462 375 479 339T526 277T597 235T688 219Q733
219 770 231T835 267T877 322T893 392Q893 437 872 471T811 533T716 586T593 640ZM725 884Q794 932 824 985T852 1090Q851 1128 836 1157T797 1206T741 1236T675 1246Q641 1246 611 1236T557 1208T519 1162T505 1098Q505 1061 521 1032T565 977T634 929T725 884Z"
/>
<glyph unicode="9" glyph-name="nine" horiz-adv-x="1360" d="M680 662Q660 648 634 634T578 607T513 587T443 579Q375 579 312 605T199 681T120 801T90 961Q90 1063 130 1157T248 1324T437 1441T692 1485Q844 1485 953 1437T1133 1309T1237 1125T1270 908Q1270
806 1244 699T1164 491T1029 301T839 145T592 39T288 0H218V239H276Q436 239 546 284T724 409T822 600T852 844Q852 926 841 999T806 1127T745 1214T656 1246Q591 1246 550 1183T508 1007Q508 911 540 855T643 798Q653 798 661 799T680 802V662Z" />
<glyph unicode=":" glyph-name="colon" horiz-adv-x="818" d="M404 -20Q358 -20 318 -3T247 44T198 115T180 206Q180 257 199 299T251 372T326 419T414 436Q460 436 500 419T571 372T620 301T638 210Q638 159 619 117T566 44T491 -3T404 -20ZM404 624Q358 624
318 641T247 688T198 759T180 850Q180 901 199 943T251 1016T326 1063T414 1080Q460 1080 500 1063T571 1016T620 945T638 854Q638 803 619 761T566 688T491 641T404 624Z" />
<glyph unicode=";" glyph-name="semicolon" horiz-adv-x="824" d="M404 624Q358 624 318 641T247 688T198 759T180 850Q180 901 199 943T251 1016T326 1063T414 1080Q460 1080 500 1063T571 1016T620 945T638 854Q638 803 619 761T566 688T491 641T404 624ZM160
-358Q241 -267 295 -177T371 8Q356 24 336 39T293 68T246 91T197 107Q189 130 185 155T180 206Q180 258 200 300T252 373T327 419T414 436Q456 436 497 420T571 372T624 290T644 173Q644 115 628 46T572 -102T463 -265T292 -439L160 -358Z" />
<glyph unicode="&lt;" glyph-name="less" horiz-adv-x="1172" d="M150 735L962 1174V885L441 602L962 319V30L150 469V735Z" />
<glyph unicode="=" glyph-name="equal" horiz-adv-x="1413" d="M1213 476V221H200V476H1213ZM1213 964V709H200V964H1213Z" />
<glyph unicode="&gt;" glyph-name="greater" horiz-adv-x="1172" d="M1022 469L210 30V319L731 602L210 885V1174L1022 735V469Z" />
<glyph unicode="?" glyph-name="question" horiz-adv-x="1116" d="M467 1249Q439 1249 402 1243T325 1224T245 1195T171 1155L153 1165L90 1367Q153 1401 216 1424T341 1460T460 1479T569 1485Q690 1485 775 1460T913 1392T991 1294T1016 1181Q1016 1111 987 1061T913
970T817 895T721 824T648 742T618 636V604H352Q347 625 345 644T342 687Q342 748 361 796T410 884T473 955T537 1017T585 1077T605 1142Q605 1192 566 1220T467 1249ZM497 -20Q451 -20 411 -3T340 44T291 115T273 206Q273 257 292 299T344 372T418 419T506 436Q552
436 593 419T664 372T713 301T731 211Q731 160 712 118T659 45T584 -3T497 -20Z" />
<glyph unicode="@" glyph-name="at" horiz-adv-x="2410" d="M1370 168Q1331 124 1295 89T1223 30T1149 -7T1066 -20Q989 -20 927 16T822 112T755 245T731 394Q731 489 770 584T884 754T1072 877T1331 924Q1400 924 1491 911T1696 859V262Q1762 292 1807 343T1881
455T1923 583T1936 710Q1936 799 1911 871T1842 999T1738 1096T1608 1163T1459 1202T1301 1215Q1121 1215 974 1155T721 987T558 727T500 395Q500 236 546 105T686 -119T918 -264T1242 -315Q1309 -315 1387 -308T1548 -282T1711 -236T1864 -165V-339Q1787 -402
1699 -446T1517 -517T1332 -557T1154 -570Q1035 -570 917 -547T690 -474T488 -350T327 -171T219 65T180 361Q180 530 222 678T341 949T524 1169T757 1333T1029 1435T1328 1470Q1437 1470 1546 1452T1755 1395T1942 1300T2093 1163T2193 984T2230 761Q2230 613 2175
483T2015 249T1758 68T1410 -48L1370 168ZM1370 663Q1362 668 1349 672T1321 680T1289 686T1258 688Q1210 688 1174 667T1112 611T1073 532T1060 444Q1060 407 1069 370T1095 304T1136 257T1190 238Q1213 238 1238 249T1286 278T1331 320T1370 369V663Z" />
<glyph unicode="A" glyph-name="A" horiz-adv-x="1457" d="M480 1465H979L1417 0H988L906 320H453L372 0H40L480 1465ZM851 539L736 991L689 1217H669L622 991L508 539H851Z" />
<glyph unicode="B" glyph-name="B" horiz-adv-x="1496" d="M1073 816Q1129 802 1186 774T1290 701T1366 598T1396 461Q1396 369 1350 286T1214 139T997 38T705 0H170V1465H764Q903 1465 1009 1442T1188 1376T1296 1274T1333 1145Q1333 1089 1313 1044T1257 959T1174
885T1073 816ZM576 239H735Q792 239 837 256T913 302T961 370T978 452Q978 504 958 540T903 600T822 634T721 645H576V239ZM848 864Q866 876 882 894T910 937T929 989T936 1050Q936 1090 921 1122T879 1178T814 1213T731 1226H576V864H848Z" />
<glyph unicode="C" glyph-name="C" horiz-adv-x="1437" d="M1322 133Q1277 97 1218 69T1093 21T955 -9T814 -20Q661 -20 530 30T304 172T154 396T100 688Q100 816 133 925T225 1123T364 1279T539 1392T739 1461T951 1485Q985 1485 1031 1483T1129 1474T1234 1459T1337
1436L1279 1180L1259 1172Q1173 1214 1094 1230T952 1246Q854 1246 774 1212T637 1114T549 959T518 753Q518 634 552 539T650 377T807 274T1017 238Q1066 238 1108 244T1188 260T1259 282T1322 308V133Z" />
<glyph unicode="D" glyph-name="D" horiz-adv-x="1666" d="M170 1465H770Q963 1465 1111 1418T1361 1282T1514 1067T1566 784Q1566 692 1547 598T1486 417T1378 253T1219 121T1002 32T722 -1L170 0V1465ZM576 239H761Q861 239 934 277T1054 384T1125 547T1148
753Q1148 875 1121 964T1043 1112T915 1198T742 1226H576V239Z" />
<glyph unicode="E" glyph-name="E" horiz-adv-x="1286" d="M170 0V1465H1159L1117 1226H576V864H1043L1006 645H576V239H1166L1124 0H170Z" />
<glyph unicode="F" glyph-name="F" horiz-adv-x="1249" d="M170 0V1465H1159L1117 1226H576V864H1043L1006 645H576V0H170Z" />
<glyph unicode="G" glyph-name="G" horiz-adv-x="1568" d="M1418 84Q1273 31 1140 6T870 -20Q670 -20 525 30T286 170T146 387T100 668Q100 804 133 917T225 1122T365 1281T543 1394T746 1462T965 1485Q1001 1485 1050 1483T1153 1474T1262 1459T1367 1436L1310
1179L1290 1171Q1247 1192 1203 1206T1116 1229T1035 1242T964 1246Q861 1246 779 1213T638 1115T549 956T518 740Q518 625 546 530T627 365T755 258T924 219Q938 219 957 220T995 223T1033 228T1062 235V744H1418V84Z" />
<glyph unicode="H" glyph-name="H" horiz-adv-x="1698" d="M170 0V1465H576V874H1122V1465H1528V0H1122V635H576V0H170Z" />
<glyph unicode="I" glyph-name="I" horiz-adv-x="746" d="M576 0H170V1465H576V0Z" />
<glyph unicode="J" glyph-name="J" horiz-adv-x="746" d="M-134 -346Q-50 -291 8 -236T102 -115T154 33T170 226V1465H576V317Q576 152 539 24T425 -204T235 -378T-34 -507L-134 -346Z" />
<glyph unicode="K" glyph-name="K" horiz-adv-x="1664" d="M576 0H170V1465H576V0ZM1126 0L663 740L1201 1465H1573L1051 836L1614 0H1126Z" />
<glyph unicode="L" glyph-name="L" horiz-adv-x="1196" d="M170 0V1465H576V239H1106L1064 0H170Z" />
<glyph unicode="M" glyph-name="M" horiz-adv-x="2172" d="M140 0L258 1465H825L995 791L1052 493H1072L1136 792L1305 1465H1914L2032 0H1588L1551 931L1550 1213H1525L1462 939L1220 29H848L606 937L541 1213H516V933L480 0H140Z" />
<glyph unicode="N" glyph-name="N" horiz-adv-x="1740" d="M170 0V1465H714L1134 732L1246 501H1266L1256 760V1465H1570V0H1136L600 927L494 1146H474L484 908V0H170Z" />
<glyph unicode="O" glyph-name="O" horiz-adv-x="1746" d="M882 219Q968 219 1033 261T1141 373T1207 533T1229 722Q1229 827 1204 922T1132 1089T1017 1203T864 1246Q778 1246 714 1204T606 1092T540 931T518 743Q518 638 543 543T614 376T728 262T882 219ZM847
-20Q685 -20 548 28T312 168T156 395T100 703Q100 880 158 1024T323 1270T575 1429T899 1485Q1061 1485 1198 1437T1434 1297T1590 1071T1646 763Q1646 586 1587 442T1423 195T1170 36T847 -20Z" />
<glyph unicode="P" glyph-name="P" horiz-adv-x="1456" d="M576 0H170V1465H738Q893 1465 1009 1432T1202 1336T1317 1187T1356 994Q1356 877 1315 782T1201 619T1029 514T815 477Q798 477 783 478T748 482L766 698Q771 697 782 697T802 696Q848 696 879 718T929
776T956 857T964 949Q964 1024 947 1077T898 1163T821 1211T720 1226H576V0Z" />
<glyph unicode="Q" glyph-name="Q" horiz-adv-x="1746" d="M847 -20Q685 -20 548 28T312 168T156 395T100 703Q100 880 158 1024T323 1270T575 1429T899 1485Q1061 1485 1198 1437T1434 1297T1590 1071T1646 763Q1646 643 1619 538T1539 345T1414 189T1248 72L1949
-164L1741 -443L847 -20ZM882 219Q968 219 1033 261T1141 373T1207 533T1229 722Q1229 827 1204 922T1132 1089T1017 1203T864 1246Q778 1246 714 1204T606 1092T540 931T518 743Q518 638 543 543T614 376T728 262T882 219Z" />
<glyph unicode="R" glyph-name="R" horiz-adv-x="1491" d="M576 528V0H170V1465H733Q887 1465 999 1434T1184 1351T1291 1230T1326 1087Q1326 1018 1300 958T1233 846T1143 752T1047 676L1451 0H982L734 528H576ZM576 747H804Q827 760 850 782T892 834T922 903T934
989Q934 1040 919 1083T875 1158T804 1208T705 1226H576V747Z" />
<glyph unicode="S" glyph-name="S" horiz-adv-x="1206" d="M540 219Q580 219 619 227T689 254T739 303T758 377Q758 430 731 467T658 532T556 585T439 635T322 693T220 772T148 881T120 1033Q120 1136 160 1220T274 1362T454 1453T691 1485Q725 1485 772 1483T873
1474T983 1459T1091 1435L1033 1180L1016 1172Q972 1192 927 1206T840 1229T760 1242T693 1246Q603 1246 550 1210T497 1102Q497 1050 524 1014T597 950T699 899T816 850T933 791T1036 712T1108 601T1136 447Q1136 341 1096 255T979 108T794 14T549 -20Q500 -20
443 -15T323 1T196 30T70 75L127 331L148 341Q207 314 258 292T357 254T450 228T540 219Z" />
<glyph unicode="T" glyph-name="T" horiz-adv-x="1415" d="M910 0H504V1226H60L102 1465H1355L1313 1226H910V0Z" />
<glyph unicode="U" glyph-name="U" horiz-adv-x="1544" d="M566 1465V526Q566 449 584 391T634 295T712 238T812 219Q867 219 914 238T996 296T1050 392T1070 525V1465H1384V573Q1384 441 1344 332T1224 145T1026 24T752 -20Q615 -20 505 15T319 120T201 296T160
541V1465H566Z" />
<glyph unicode="V" glyph-name="V" horiz-adv-x="1457" d="M1085 1465H1417L962 0H493L40 1465H469L721 526L768 312H788L835 526L1085 1465Z" />
<glyph unicode="W" glyph-name="W" horiz-adv-x="2184" d="M926 1357H1356L1527 529L1565 312H1585L1618 529L1805 1465H2129L1783 0H1294L1146 713L1107 956H1087L1048 713L901 0H402L55 1465H476L664 529L698 312H718L755 529L926 1357Z" />
<glyph unicode="X" glyph-name="X" horiz-adv-x="1518" d="M35 0L567 726L68 1465H539L696 1207L802 1016H822L934 1212L1091 1465H1459L952 786L1483 0H1012L821 314L722 493H702L598 312L402 0H35Z" />
<glyph unicode="Y" glyph-name="Y" horiz-adv-x="1431" d="M20 1465H485L767 893L1050 1465H1411L919 636V0H513V624L20 1465Z" />
<glyph unicode="Z" glyph-name="Z" horiz-adv-x="1357" d="M742 1212V1232L553 1226H143L185 1465H1244V1389L684 409L575 249V231L760 239H1277L1235 0H80V76L629 1050L742 1212Z" />
<glyph unicode="[" glyph-name="bracketleft" horiz-adv-x="974" d="M240 1602H864V1347H515V-103H864V-358H240V1602Z" />
<glyph unicode="\" glyph-name="backslash" horiz-adv-x="991" d="M911 -308H636L95 1602H370L911 -308Z" />
<glyph unicode="]" glyph-name="bracketright" horiz-adv-x="974" d="M734 -358H110V-103H459V1347H110V1602H734V-358Z" />
<glyph unicode="^" glyph-name="asciicircum" horiz-adv-x="1233" d="M764 1465L1133 665H852L617 1174L381 665H100L470 1465H764Z" />
<glyph unicode="_" glyph-name="underscore" horiz-adv-x="1047" d="M1017 0V-255H30V0H1017Z" />
<glyph unicode="`" glyph-name="grave" horiz-adv-x="986" d="M486 1240L200 1602H590L786 1240H486Z" />
<glyph unicode="a" glyph-name="a" horiz-adv-x="1250" d="M714 152Q682 125 644 95T560 40T463 -3T356 -20Q282 -20 230 9T144 84T96 182T80 285Q80 362 116 427T227 539T414 613T676 640H698V692Q698 769 651 806T524 844Q487 844 447 835T365 810T284 773T208
728L190 738L125 970Q258 1028 378 1054T619 1080Q715 1080 801 1063T954 1005T1059 896T1098 728V334Q1098 295 1113 267T1170 238Q1184 238 1194 239T1220 246V84Q1149 34 1078 7T941 -20Q863 -20 806 20T714 152ZM698 516H672Q606 516 561 506T487 478T447 431T434
367Q434 331 444 307T472 267T512 245T559 238Q591 238 627 249T698 284V516Z" />
<glyph unicode="b" glyph-name="b" horiz-adv-x="1376" d="M140 1602H540V920Q578 949 619 978T706 1029T799 1066T901 1080Q992 1080 1065 1038T1189 926T1268 764T1296 574Q1296 449 1251 341T1119 153T903 26T606 -20Q565 -20 511 -17T396 -6T269 14T140 46V1602ZM540
244Q575 229 605 223T661 216Q718 216 760 243T830 316T872 420T886 538Q886 599 872 651T831 741T764 800T672 822Q645 822 612 814T540 780V244Z" />
<glyph unicode="c" glyph-name="c" horiz-adv-x="1051" d="M978 118Q929 77 882 51T789 9T696 -13T601 -20Q476 -20 379 16T216 119T115 276T80 476Q80 611 131 722T270 912T479 1036T737 1080Q759 1080 787 1079T849 1073T920 1062T996 1044L942 798L924 788Q909
797 888 807T842 825T789 838T732 844Q677 844 633 823T557 762T508 665T490 537Q490 456 512 400T573 307T667 255T788 238Q810 238 831 240T874 247T922 260T978 280V118Z" />
<glyph unicode="d" glyph-name="d" horiz-adv-x="1376" d="M836 818Q798 835 769 839T721 844Q660 844 616 817T544 743T502 638T488 515Q488 451 501 400T537 312T593 257T665 238Q707 238 754 259T836 316V818ZM836 1602H1236V0H890L848 158Q810 124 770 92T687
35T595 -5T491 -20Q395 -20 319 22T190 135T108 295T80 481Q80 607 126 716T254 906T444 1033T677 1080Q725 1080 769 1074T836 1060V1602Z" />
<glyph unicode="e" glyph-name="e" horiz-adv-x="1242" d="M1102 118Q1042 76 983 49T868 7T757 -14T651 -20Q514 -20 408 14T228 114T118 273T80 487Q80 628 129 738T262 924T454 1040T683 1080Q789 1080 877 1049T1028 956T1127 803T1162 594Q1162 549 1158
518T1150 470H490Q490 405 512 361T577 290T678 250T812 238Q873 238 950 247T1102 280V118ZM802 594Q802 660 791 707T761 785T713 830T650 844Q575 844 533 782T490 594H802Z" />
<glyph unicode="f" glyph-name="f" horiz-adv-x="979" d="M222 824H10L34 988L224 1060V1088Q224 1200 257 1297T357 1467T520 1580T746 1622Q799 1622 857 1615T969 1591L918 1364L900 1354Q876 1369 845 1377T784 1386Q697 1386 660 1314T622 1110V1060H944L892
824H622V0H222V824Z" />
<glyph unicode="g" glyph-name="g" horiz-adv-x="1274" d="M290 -90Q198 -58 153 -13T108 84Q108 120 129 150T184 206T261 256T348 302Q267 329 214 369T130 457T87 555T74 652Q74 746 116 824T231 960T406 1048T625 1080Q708 1080 788 1064T926 1012Q941 1020
958 1028T999 1044T1055 1055T1132 1060H1274L1222 824H1068Q1080 798 1089 768T1098 695Q1098 605 1055 530T938 400T769 315T568 284H532Q523 279 512 272T491 255T475 233T468 207Q468 181 491 164T558 146H790Q862 146 935 133T1069 88T1166 6T1204 -119Q1204
-193 1162 -270T1035 -411T821 -515T517 -556Q415 -556 328 -541T176 -497T76 -426T40 -331Q40 -289 61 -256T118 -193T198 -139T290 -90ZM426 687Q426 644 440 610T477 551T532 513T598 500Q631 500 660 512T712 547T747 603T760 677Q760 720 746 754T709 813T655
851T589 864Q556 864 527 852T475 817T439 761T426 687ZM470 -112Q442 -134 421 -158T400 -214Q400 -261 451 -290T603 -320Q664 -320 709 -309T784 -280T829 -240T844 -195Q844 -160 808 -136T696 -112H470Z" />
<glyph unicode="h" glyph-name="h" horiz-adv-x="1386" d="M140 1602H540V892Q581 926 624 960T715 1020T813 1063T922 1080Q992 1080 1051 1055T1154 982T1222 867T1246 718V0H846V658Q846 698 835 728T805 780T761 811T706 822Q662 822 621 801T540 748V0H140V1602Z" />
<glyph unicode="i" glyph-name="i" horiz-adv-x="680" d="M140 1060H540V0H140V1060ZM334 1206Q283 1206 242 1220T172 1260T128 1320T112 1393Q112 1433 129 1469T177 1531T251 1572T346 1588Q397 1588 438 1574T508 1534T552 1474T568 1401Q568 1360 551 1325T503
1263T429 1222T334 1206Z" />
<glyph unicode="j" glyph-name="j" horiz-adv-x="680" d="M-52 -410Q0 -367 37 -313T96 -196T129 -66T140 74V1060H540V172Q540 62 520 -45T447 -247T301 -422T62 -556L-52 -410ZM334 1206Q283 1206 242 1220T172 1260T128 1320T112 1393Q112 1433 129 1469T177
1531T251 1572T346 1588Q397 1588 438 1574T508 1534T552 1474T568 1401Q568 1360 551 1325T503 1263T429 1222T334 1206Z" />
<glyph unicode="k" glyph-name="k" horiz-adv-x="1340" d="M140 1602H540V0H140V1602ZM848 0L570 540L935 1048H1295L941 612L1314 0H848Z" />
<glyph unicode="l" glyph-name="l" horiz-adv-x="680" d="M140 1602H540V0H140V1602Z" />
<glyph unicode="m" glyph-name="m" horiz-adv-x="2044" d="M140 1060H482L528 890Q564 921 605 955T693 1016T789 1062T892 1080Q950 1080 998 1064T1083 1019T1148 956T1190 883Q1232 917 1274 952T1363 1016T1461 1062T1572 1080Q1649 1080 1710 1051T1815 973T1881
857T1904 716V0H1504V658Q1504 735 1467 778T1374 822Q1332 822 1295 801T1220 748Q1222 740 1222 732T1222 716V0H822V658Q822 735 786 778T692 822Q653 822 616 801T540 748V0H140V1060Z" />
<glyph unicode="n" glyph-name="n" horiz-adv-x="1386" d="M140 1060H482L528 890Q562 918 603 951T693 1013T796 1061T912 1080Q986 1080 1047 1055T1153 982T1221 867T1246 718V0H846V658Q846 698 835 729T805 780T760 811T706 822Q661 822 620 800T540 748V0H140V1060Z"
/>
<glyph unicode="o" glyph-name="o" horiz-adv-x="1356" d="M641 -20Q497 -20 392 22T217 137T114 303T80 502Q80 624 124 729T251 913T451 1035T714 1080Q855 1080 960 1039T1136 926T1241 759T1276 557Q1276 432 1231 326T1102 143T901 23T641 -20ZM684 216Q722
216 755 233T813 287T852 380T866 517Q866 591 853 651T816 754T755 820T672 844Q591 844 541 769T490 541Q490 462 504 402T543 300T604 237T684 216Z" />
<glyph unicode="p" glyph-name="p" horiz-adv-x="1376" d="M540 242Q578 225 607 221T655 216Q716 216 760 244T832 317T874 420T888 538Q888 606 875 659T839 748T783 803T711 822Q669 822 622 801T540 744V242ZM528 902Q566 936 606 968T689 1025T781 1065T885
1080Q981 1080 1057 1037T1187 924T1268 763T1296 578Q1296 453 1250 344T1122 154T931 27T695 -20Q651 -20 607 -15T540 0V-536H140V1060H486L528 902Z" />
<glyph unicode="q" glyph-name="q" horiz-adv-x="1376" d="M720 1080Q809 1080 881 1063T1004 1020L1236 1088V-536H836V140Q798 111 757 82T670 31T577 -6T476 -20Q386 -20 313 21T188 132T108 292T80 480Q80 607 127 716T260 907T462 1034T720 1080ZM836 816Q801
831 771 837T714 844Q658 844 616 820T546 754T504 655T490 532Q490 465 504 411T545 319T612 259T704 238Q731 238 764 246T836 280V816Z" />
<glyph unicode="r" glyph-name="r" horiz-adv-x="1066" d="M140 1060H482L528 752Q545 783 562 813T593 869T618 913T632 938Q651 969 673 995T724 1040T788 1069T869 1080Q898 1080 935 1072T1006 1047L962 690Q952 692 936 693T900 696T863 697T832 698Q788
698 745 692T664 675T593 647T540 610V0H140V1060Z" />
<glyph unicode="s" glyph-name="s" horiz-adv-x="1054" d="M124 304L142 314Q184 291 228 273T316 243T402 223T482 216Q522 216 549 223T592 243T616 270T624 302Q624 332 602 350T543 382T460 405T364 429T269 463T186 516T127 597T104 716Q104 798 137 865T236
980T400 1054T629 1080Q663 1080 704 1078T787 1072T868 1062T936 1046L882 798L864 788Q787 818 718 831T599 844Q560 844 534 837T493 818T471 792T464 762Q464 730 486 711T545 679T628 656T724 633T819 601T902 550T961 471T984 354Q984 281 956 214T867 94T711
11T480 -20Q430 -20 377 -16T270 -2T165 22T70 56L124 304Z" />
<glyph unicode="t" glyph-name="t" horiz-adv-x="1047" d="M222 824H10L34 988Q88 1009 127 1027T196 1064T249 1107T294 1161T339 1232T394 1328H594V1060H966L914 824H622V418Q622 318 672 278T821 238Q856 238 893 243T967 264V102Q884 39 782 10T580 -20Q480
-20 412 8T301 87T241 212T222 376V824Z" />
<glyph unicode="u" glyph-name="u" horiz-adv-x="1362" d="M140 1060H540V402Q540 325 576 282T670 238Q709 238 746 259T822 312V1060H1222V0H880L834 170Q798 138 757 105T669 44T573 -2T470 -20Q411 -20 353 1T247 67T170 180T140 344V1060Z" />
<glyph unicode="v" glyph-name="v" horiz-adv-x="1176" d="M30 1060H457L588 494L627 280H647L684 494L817 1060H1146L820 0H356L30 1060Z" />
<glyph unicode="w" glyph-name="w" horiz-adv-x="1845" d="M457 1060L553 494L588 280H606L644 494L759 1028H1189L1304 494L1344 279H1364L1395 494L1494 1060H1815L1540 0H1088L982 479L944 734H924L880 478L763 0H305L30 1060H457Z" />
<glyph unicode="x" glyph-name="x" horiz-adv-x="1212" d="M25 0L408 527L45 1060H505L582 922L661 740H677L753 922L827 1060H1169L807 570L1187 0H729L632 174L552 342H536L461 176L367 0H25Z" />
<glyph unicode="y" glyph-name="y" horiz-adv-x="1176" d="M30 1060H457L588 494L627 280H647L684 494L817 1060H1146L657 -536H314L545 0H356L30 1060Z" />
<glyph unicode="z" glyph-name="z" horiz-adv-x="1104" d="M60 76L422 668L528 810V830L346 824H100L152 1060H1016V984L648 386L546 246V228L724 236H1044L992 0H60V76Z" />
<glyph unicode="{" glyph-name="braceleft" horiz-adv-x="1037" d="M303 276Q303 335 287 377T244 448T179 497T100 531V713Q142 727 179 746T243 795T287 867T303 968V1121Q303 1235 338 1324T441 1475T605 1569T825 1602H927V1347H825Q764 1347 718 1329T640
1280T594 1205T578 1111V968Q578 833 524 749T352 622Q470 578 524 495T578 276V133Q578 82 593 39T640 -36T717 -85T825 -103H927V-358H825Q702 -358 605 -326T441 -232T339 -81T303 123V276Z" />
<glyph unicode="|" glyph-name="bar" horiz-adv-x="715" d="M495 -537H220V1602H495V-537Z" />
<glyph unicode="}" glyph-name="braceright" horiz-adv-x="1037" d="M734 123Q734 9 699 -80T596 -231T432 -325T212 -358H110V-103H212Q273 -103 319 -86T397 -37T443 38T459 133V276Q459 343 472 397T512 494T583 568T685 622Q566 665 513 749T459 968V1111Q459
1162 444 1205T397 1279T320 1329T212 1347H110V1602H212Q335 1602 432 1570T596 1476T698 1325T734 1121V968Q734 909 750 867T793 796T858 747T937 713V531Q895 517 858 498T794 449T750 377T734 276V123Z" />
<glyph unicode="~" glyph-name="asciitilde" horiz-adv-x="1528" d="M989 579Q1042 579 1067 643T1093 852H1348Q1348 697 1315 595T1228 433T1107 349T970 324Q900 324 850 344T763 394T699 460T647 526T597 577T539 597Q486 597 461 533T435 324H180Q180 479
213 581T300 743T421 827T558 852Q628 852 678 832T765 782T829 716T881 650T931 599T989 579Z" />
<glyph unicode="&#xa0;" glyph-name="uni00A0" horiz-adv-x="452" />
<glyph unicode="&#xa1;" glyph-name="exclamdown" horiz-adv-x="778" d="M529 456L613 -405H180L263 456H529ZM394 1080Q440 1080 480 1063T551 1016T600 945T618 854Q618 803 599 761T547 688T472 641T384 624Q338 624 298 641T227 688T178 759T160 850Q160 901
179 943T232 1016T307 1063T394 1080Z" />
<glyph unicode="&#xa2;" glyph-name="cent" horiz-adv-x="1251" d="M1058 310Q1004 265 952 237T849 194V-163H594V177Q489 189 409 230T273 336T189 484T160 668Q160 774 192 867T281 1036T418 1165T594 1249V1606H849V1271H868Q883 1271 906 1269T958 1263T1016
1252T1076 1236L1022 990L1004 980Q989 989 968 999T922 1017T869 1030T812 1036Q757 1036 713 1015T637 954T588 857T570 729Q570 648 592 592T653 499T747 447T868 430Q890 430 911 432T954 439T1002 452T1058 472V310Z" />
<glyph unicode="&#xa3;" glyph-name="sterling" horiz-adv-x="1459" d="M213 838H366V936Q366 1065 412 1167T541 1339T736 1447T981 1485Q1006 1485 1039 1483T1108 1477T1181 1467T1252 1451L1193 1202L1171 1192Q1127 1218 1080 1232T991 1246Q885 1246 829
1178T772 968V838H1160L1120 623H772V560Q772 511 763 469T736 388T697 317T649 253V233L850 239H1259L1217 0H180V76Q238 126 274 177T331 281T359 385T366 488V623H182L213 838Z" />
<glyph unicode="&#xa4;" glyph-name="currency" horiz-adv-x="1659" d="M322 761Q322 833 340 897T393 1018L200 1211L381 1392L575 1197Q635 1232 701 1251T838 1270Q904 1270 967 1252T1087 1201L1278 1392L1459 1211L1269 1021Q1301 965 1319 901T1337 765Q1337
693 1318 628T1265 507L1459 314L1278 133L1083 328Q1023 293 957 275T821 256Q755 256 692 273T572 324L381 133L200 314L390 504Q358 560 340 624T322 761ZM587 761Q587 705 607 659T662 580T739 529T830 511Q876 511 920 529T997 580T1051 660T1072 765Q1072
821 1052 867T997 946T919 997T829 1015Q782 1015 739 997T662 946T608 866T587 761Z" />
<glyph unicode="&#xa5;" glyph-name="yen" horiz-adv-x="1691" d="M519 836L150 1465H615L897 893L1180 1465H1541L1167 836H1416V621H276V836H519ZM1416 481V266H1049V0H643V266H276V481H1416Z" />
<glyph unicode="&#xa6;" glyph-name="brokenbar" horiz-adv-x="715" d="M495 364V-537H220V364H495ZM220 702V1602H495V702H220Z" />
<glyph unicode="&#xa7;" glyph-name="section" horiz-adv-x="1468" d="M449 796Q405 815 367 840T301 901T256 983T240 1092Q240 1187 280 1260T393 1384T571 1459T805 1485Q841 1485 886 1483T978 1476T1073 1463T1162 1443L1106 1190L1088 1181Q1006 1216 930
1231T785 1246Q747 1246 715 1241T660 1225T623 1197T609 1153Q609 1115 636 1089T709 1042T811 1003T928 965T1045 920T1148 858T1220 772T1248 653Q1248 594 1228 545T1177 455T1106 378T1028 312Q1070 293 1106 268T1170 208T1212 128T1228 22Q1228 -74 1187
-149T1071 -278T887 -359T645 -387Q588 -387 531 -382T419 -369T316 -351T226 -329L282 -76L300 -67Q386 -103 475 -125T654 -148Q752 -148 805 -120T859 -39Q859 -1 832 25T759 71T657 109T540 146T423 191T320 252T248 337T220 456Q220 516 240 564T293 653T367
729T449 796ZM909 536Q909 582 887 613T827 666T740 703T637 734Q624 726 611 710T586 673T567 628T559 576Q559 530 581 499T640 446T727 408T830 377Q843 386 857 401T882 438T901 484T909 536Z" />
<glyph unicode="&#xa8;" glyph-name="dieresis" horiz-adv-x="1289" d="M388 1240Q349 1240 315 1254T255 1291T215 1346T200 1413Q200 1449 215 1482T256 1541T317 1582T394 1598Q433 1598 466 1584T525 1546T564 1490T578 1423Q578 1387 564 1354T525 1296T465
1255T388 1240ZM899 1240Q860 1240 826 1254T766 1291T726 1346T711 1413Q711 1449 726 1482T767 1541T828 1582T905 1598Q944 1598 977 1584T1036 1546T1075 1490T1089 1423Q1089 1387 1075 1354T1036 1296T976 1255T899 1240Z" />
<glyph unicode="&#xa9;" glyph-name="copyright" horiz-adv-x="2034" d="M200 726Q200 906 261 1056T432 1314T695 1482T1031 1542Q1217 1542 1365 1481T1618 1312T1778 1058T1834 741Q1834 562 1773 412T1602 154T1339 -14T1002 -75Q877 -75 770 -47T573 32T415
155T298 317T225 509T200 726ZM436 741Q436 623 475 515T589 323T775 190T1027 140Q1168 140 1275 189T1454 319T1562 506T1598 725Q1598 844 1559 953T1444 1145T1258 1277T1007 1327Q866 1327 759 1278T580 1147T472 960T436 741ZM1299 426Q1174 330 1024 330Q946
330 877 356T755 431T673 552T642 714Q642 817 681 896T785 1028T933 1109T1105 1137Q1140 1137 1188 1131T1302 1103L1265 880L1255 876Q1207 900 1169 911T1095 922Q1060 922 1026 912T966 879T923 823T906 740Q906 697 919 661T959 599T1022 559T1108 544Q1143
544 1194 554T1299 597V426Z" />
<glyph unicode="&#xaa;" glyph-name="ordfeminine" horiz-adv-x="1262" d="M701 681Q672 657 640 633T570 589T492 557T405 544Q336 544 289 570T214 636T173 721T160 805Q160 872 194 927T292 1023T447 1086T653 1109H682V1151Q682 1212 646 1241T549 1270Q516
1270 481 1262T411 1241T341 1209T273 1170L258 1178L196 1390Q313 1438 422 1461T640 1485Q723 1485 794 1470T917 1418T998 1322T1028 1174V854Q1028 817 1042 797T1089 776Q1100 776 1107 776T1122 779V635Q1067 597 1012 571T892 544Q825 544 777 577T701 681ZM682
985H625Q541 985 498 959T455 875Q455 848 463 830T486 799T518 782T557 776Q576 776 595 780T630 792T660 806T682 820V985Z" />
<glyph unicode="&#xab;" glyph-name="guillemotleft" horiz-adv-x="1250" d="M90 634L418 1030L607 855L361 574L607 293L418 118L90 514V634ZM613 634L941 1030L1130 855L884 574L1130 293L941 118L613 514V634Z" />
<glyph unicode="&#xac;" glyph-name="logicalnot" horiz-adv-x="1426" d="M1226 190H961V573H150V828H1226V190Z" />
<glyph unicode="&#xad;" glyph-name="uni00AD" horiz-adv-x="986" d="M836 719V464H150V719H836Z" />
<glyph unicode="&#xae;" glyph-name="registered" horiz-adv-x="2034" d="M200 726Q200 906 261 1056T432 1314T695 1482T1031 1542Q1217 1542 1365 1481T1618 1312T1778 1058T1834 741Q1834 562 1773 412T1602 154T1339 -14T1002 -75Q877 -75 770 -47T573 32T415
155T298 317T225 509T200 726ZM436 741Q436 623 475 515T589 323T775 190T1027 140Q1168 140 1275 189T1454 319T1562 506T1598 725Q1598 844 1559 953T1444 1145T1258 1277T1007 1327Q866 1327 759 1278T580 1147T472 960T436 741ZM707 329V1138H1006Q1080 1138
1144 1122T1255 1075T1329 997T1356 892Q1356 849 1343 814T1310 749T1268 696T1226 656L1394 329H1108L1028 512H955V329H707ZM1050 727Q1058 733 1067 742T1085 765T1098 794T1104 831Q1104 876 1078 899T1013 923H955V727H1050Z" />
<glyph unicode="&#xaf;" glyph-name="overscore" horiz-adv-x="1042" d="M842 1495V1240H200V1495H842Z" />
<glyph unicode="&#xb0;" glyph-name="degree" horiz-adv-x="1125" d="M150 1202Q150 1296 184 1373T275 1505T409 1591T570 1622Q653 1622 726 1593T855 1510T943 1382T975 1216Q975 1123 941 1046T850 913T716 828T554 797Q471 797 398 826T269 908T182 1036T150
1202ZM375 1215Q375 1167 391 1129T435 1065T496 1026T568 1012Q602 1012 635 1024T693 1061T734 1120T750 1203Q750 1251 734 1289T690 1353T628 1393T557 1407Q522 1407 490 1395T432 1358T391 1298T375 1215Z" />
<glyph unicode="&#xb1;" glyph-name="plusminus" horiz-adv-x="1407" d="M836 1017H1207V762H836V429H571V762H200V1017H571V1350H836V1017ZM1207 255V0H200V255H1207Z" />
<glyph unicode="&#xb2;" glyph-name="twosuperior" horiz-adv-x="958" d="M81 595Q155 670 219 742T330 881T405 1011T432 1131Q432 1170 419 1197T385 1240T334 1263T271 1270Q229 1270 192 1262T134 1245V1391Q161 1408 199 1425T282 1455T377 1477T480 1485Q564
1485 625 1464T725 1406T784 1323T803 1226Q803 1163 776 1100T702 975T594 851T464 729H858L816 514H80L81 595Z" />
<glyph unicode="&#xb3;" glyph-name="threesuperior" horiz-adv-x="884" d="M771 1293Q771 1251 750 1220T698 1165T629 1123T561 1091V1071Q608 1060 648 1042T719 995T766 927T784 836Q784 797 772 758T731 683T651 616T524 563T344 527T100 514V729Q202 729
264 737T359 760T403 791T414 828Q414 882 354 904T187 922V1071Q217 1076 254 1085T323 1109T377 1144T399 1193Q399 1212 388 1226T358 1250T312 1265T255 1270Q212 1270 177 1262T113 1244V1386Q144 1407 185 1425T273 1456T372 1477T474 1485Q551 1485 607
1469T699 1425T753 1364T771 1293Z" />
<glyph unicode="&#xb4;" glyph-name="acute" horiz-adv-x="982" d="M200 1240L396 1602H782L496 1240H200Z" />
<glyph unicode="&#xb6;" glyph-name="paragraph" horiz-adv-x="1572" d="M661 462Q550 462 447 494T265 589T138 746T90 963Q90 1079 135 1172T265 1330T469 1430T738 1465H1402V-536H1137V1210H926V-536H661V462Z" />
<glyph unicode="&#xb7;" glyph-name="middot" horiz-adv-x="694" d="M344 327Q298 327 258 344T187 391T138 462T120 553Q120 604 139 646T191 719T266 766T354 783Q400 783 440 766T511 719T560 648T578 557Q578 506 559 464T506 391T431 344T344 327Z" />
<glyph unicode="&#xb8;" glyph-name="cedilla" horiz-adv-x="864" d="M595 6Q616 -23 634 -63T652 -158Q652 -211 630 -264T558 -361T432 -430T245 -457H190V-263H241Q291 -263 326 -250T383 -215T416 -166T427 -110Q427 -83 418 -55T387 6H595Z" />
<glyph unicode="&#xb9;" glyph-name="onesuperior" horiz-adv-x="723" d="M247 514V1182H40V1357Q168 1357 255 1385T394 1465H603V514H247Z" />
<glyph unicode="&#xba;" glyph-name="ordmasculine" horiz-adv-x="1332" d="M628 544Q505 544 417 581T271 681T187 823T160 987Q160 1090 198 1181T306 1339T477 1446T702 1485Q823 1485 912 1448T1058 1350T1144 1208T1172 1041Q1172 935 1133 844T1023 687T851
582T628 544ZM671 759Q704 759 731 773T778 816T809 892T820 1004Q820 1064 810 1113T780 1197T731 1251T661 1270Q591 1270 552 1209T512 1023Q512 893 554 826T671 759Z" />
<glyph unicode="&#xbb;" glyph-name="guillemotright" horiz-adv-x="1250" d="M637 514L309 118L120 293L366 574L120 855L309 1030L637 634V514ZM1160 514L832 118L643 293L889 574L643 855L832 1030L1160 634V514Z" />
<glyph unicode="&#xbc;" glyph-name="onequarter" horiz-adv-x="2190" d="M1219 1465H1514L799 0H504L1219 1465ZM1167 334L1463 951H1943V439H2080L2049 224H1943V0H1602V224H1167V334ZM1602 439V650L1606 802H1586L1529 663L1425 439H1602ZM277 514V1182H70V1357Q198
1357 285 1385T424 1465H633V514H277Z" />
<glyph unicode="&#xbd;" glyph-name="onehalf" horiz-adv-x="2208" d="M1219 1465H1514L799 0H504L1219 1465ZM1301 81Q1375 156 1439 228T1550 367T1625 497T1652 617Q1652 656 1639 683T1605 726T1554 749T1491 756Q1449 756 1412 748T1354 731V877Q1381 894
1419 911T1502 941T1597 963T1700 971Q1784 971 1845 950T1945 892T2004 809T2023 712Q2023 649 1996 586T1922 461T1814 337T1684 215H2078L2036 0H1300L1301 81ZM277 514V1182H70V1357Q198 1357 285 1385T424 1465H633V514H277Z" />
<glyph unicode="&#xbe;" glyph-name="threequarters" horiz-adv-x="2260" d="M1289 1465H1584L869 0H574L1289 1465ZM1237 334L1533 951H2013V439H2150L2119 224H2013V0H1672V224H1237V334ZM1672 439V650L1676 802H1656L1599 663L1495 439H1672ZM801 1293Q801
1251 780 1220T728 1165T659 1123T591 1091V1071Q638 1060 678 1042T749 995T796 927T814 836Q814 797 802 758T761 683T681 616T554 563T374 527T130 514V729Q232 729 294 737T389 760T433 791T444 828Q444 882 384 904T217 922V1071Q247 1076 284 1085T353 1109T407
1144T429 1193Q429 1212 418 1226T388 1250T342 1265T285 1270Q242 1270 207 1262T143 1244V1386Q174 1407 215 1425T303 1456T402 1477T504 1485Q581 1485 637 1469T729 1425T783 1364T801 1293Z" />
<glyph unicode="&#xbf;" glyph-name="questiondown" horiz-adv-x="1006" d="M599 -189Q627 -189 664 -183T741 -164T821 -135T895 -95L913 -105L976 -307Q913 -341 850 -364T725 -400T606 -419T497 -425Q376 -425 291 -400T153 -332T75 -235T50 -121Q50 -51 79
-1T153 90T249 165T345 236T418 318T448 424V456H714Q719 435 721 416T724 373Q724 311 705 263T656 176T593 105T529 43T481 -17T461 -82Q461 -132 500 -160T599 -189ZM569 1080Q615 1080 655 1063T726 1016T775 945T793 854Q793 803 774 761T722 688T648 641T560
624Q514 624 473 641T402 688T353 759T335 849Q335 900 354 942T407 1015T482 1063T569 1080Z" />
<glyph unicode="&#xc0;" glyph-name="Agrave" horiz-adv-x="1457" d="M480 1465H979L1417 0H988L906 320H453L372 0H40L480 1465ZM851 539L736 991L689 1217H669L622 991L508 539H851ZM662 1602L376 1964H766L962 1602H662Z" />
<glyph unicode="&#xc1;" glyph-name="Aacute" horiz-adv-x="1457" d="M480 1465H979L1417 0H988L906 320H453L372 0H40L480 1465ZM851 539L736 991L689 1217H669L622 991L508 539H851ZM488 1602L684 1964H1070L784 1602H488Z" />
<glyph unicode="&#xc2;" glyph-name="Acircumflex" horiz-adv-x="1457" d="M480 1465H979L1417 0H988L906 320H453L372 0H40L480 1465ZM851 539L736 991L689 1217H669L622 991L508 539H851ZM306 1602L542 1964H904L1140 1602H840L721 1802L602 1602H306Z" />
<glyph unicode="&#xc3;" glyph-name="Atilde" horiz-adv-x="1457" d="M480 1465H979L1417 0H988L906 320H453L372 0H40L480 1465ZM851 539L736 991L689 1217H669L622 991L508 539H851ZM851 1816Q864 1816 876 1824T898 1849T914 1895T920 1964H1135Q1135 1869
1111 1801T1047 1688T956 1623T851 1602Q809 1602 778 1613T723 1640T681 1676T648 1711T617 1739T585 1750Q572 1750 560 1743T537 1718T521 1672T515 1602H300Q300 1697 324 1765T388 1878T479 1943T583 1964Q625 1964 656 1953T712 1926T755 1890T790 1855T820
1827T851 1816Z" />
<glyph unicode="&#xc4;" glyph-name="Adieresis" horiz-adv-x="1457" d="M480 1465H979L1417 0H988L906 320H453L372 0H40L480 1465ZM851 539L736 991L689 1217H669L622 991L508 539H851ZM476 1602Q437 1602 403 1616T343 1653T303 1708T288 1775Q288 1811 303
1844T344 1903T405 1944T482 1960Q521 1960 554 1946T613 1908T652 1852T666 1785Q666 1749 652 1716T613 1658T553 1617T476 1602ZM987 1602Q948 1602 914 1616T854 1653T814 1708T799 1775Q799 1811 814 1844T855 1903T916 1944T993 1960Q1032 1960 1065 1946T1124
1908T1163 1852T1177 1785Q1177 1749 1163 1716T1124 1658T1064 1617T987 1602Z" />
<glyph unicode="&#xc5;" glyph-name="Aring" horiz-adv-x="1457" d="M480 1465H979L1417 0H988L906 320H453L372 0H40L480 1465ZM851 539L736 991L689 1217H669L622 991L508 539H851ZM640 1724Q640 1679 666 1651T733 1623Q773 1623 800 1651T827 1724Q827 1768
800 1796T733 1824Q693 1824 667 1796T640 1724ZM422 1719Q422 1780 447 1829T516 1912T618 1964T742 1982Q809 1982 864 1964T960 1912T1022 1832T1044 1729Q1044 1667 1019 1619T950 1536T848 1483T724 1465Q657 1465 602 1483T506 1535T444 1616T422 1719Z"
/>
<glyph unicode="&#xc6;" glyph-name="AE" horiz-adv-x="1994" d="M974 0L941 320H488L358 0H20L685 1465H1824L1782 1226H1258L1295 864H1779L1742 645H1316L1357 239H1874L1832 0H974ZM919 539L874 991L862 1217H842L760 991L576 539H919Z" />
<glyph unicode="&#xc7;" glyph-name="Ccedilla" horiz-adv-x="1437" d="M1322 133Q1264 85 1184 52T1012 0Q1032 -28 1048 -67T1065 -158Q1065 -211 1043 -264T971 -361T845 -430T658 -457H603V-263H654Q704 -263 739 -250T796 -215T829 -166T840 -110Q840 -67
815 -20H814Q661 -20 530 30T304 172T154 396T100 688Q100 816 133 925T225 1123T364 1279T539 1392T739 1461T951 1485Q985 1485 1031 1483T1129 1474T1234 1459T1337 1436L1279 1180L1259 1172Q1173 1214 1094 1230T952 1246Q854 1246 774 1212T637 1114T549
959T518 753Q518 634 552 539T650 377T807 274T1017 238Q1066 238 1108 244T1188 260T1259 282T1322 308V133Z" />
<glyph unicode="&#xc8;" glyph-name="Egrave" horiz-adv-x="1286" d="M170 0V1465H1159L1117 1226H576V864H1043L1006 645H576V239H1166L1124 0H170ZM554 1602L268 1964H658L854 1602H554Z" />
<glyph unicode="&#xc9;" glyph-name="Eacute" horiz-adv-x="1286" d="M170 0V1465H1159L1117 1226H576V864H1043L1006 645H576V239H1166L1124 0H170ZM480 1602L676 1964H1062L776 1602H480Z" />
<glyph unicode="&#xca;" glyph-name="Ecircumflex" horiz-adv-x="1286" d="M170 0V1465H1159L1117 1226H576V864H1043L1006 645H576V239H1166L1124 0H170ZM262 1602L498 1964H860L1096 1602H796L677 1802L558 1602H262Z" />
<glyph unicode="&#xcb;" glyph-name="Edieresis" horiz-adv-x="1286" d="M170 0V1465H1159L1117 1226H576V864H1043L1006 645H576V239H1166L1124 0H170ZM409 1602Q370 1602 336 1616T276 1653T236 1708T221 1775Q221 1811 236 1844T277 1903T338 1944T415 1960Q454
1960 487 1946T546 1908T585 1852T599 1785Q599 1749 585 1716T546 1658T486 1617T409 1602ZM920 1602Q881 1602 847 1616T787 1653T747 1708T732 1775Q732 1811 747 1844T788 1903T849 1944T926 1960Q965 1960 998 1946T1057 1908T1096 1852T1110 1785Q1110 1749
1096 1716T1057 1658T997 1617T920 1602Z" />
<glyph unicode="&#xcc;" glyph-name="Igrave" horiz-adv-x="746" d="M576 0H170V1465H576V0ZM280 1602L-6 1964H384L580 1602H280Z" />
<glyph unicode="&#xcd;" glyph-name="Iacute" horiz-adv-x="746" d="M576 0H170V1465H576V0ZM272 1602L-14 1964H376L572 1602H272Z" />
<glyph unicode="&#xce;" glyph-name="Icircumflex" horiz-adv-x="746" d="M576 0H170V1465H576V0ZM-42 1602L194 1964H556L792 1602H492L373 1802L254 1602H-42Z" />
<glyph unicode="&#xcf;" glyph-name="Idieresis" horiz-adv-x="746" d="M576 0H170V1465H576V0ZM116 1602Q77 1602 43 1616T-17 1653T-57 1708T-72 1775Q-72 1811 -57 1844T-16 1903T45 1944T122 1960Q161 1960 194 1946T253 1908T292 1852T306 1785Q306 1749
292 1716T253 1658T193 1617T116 1602ZM627 1602Q588 1602 554 1616T494 1653T454 1708T439 1775Q439 1811 454 1844T495 1903T556 1944T633 1960Q672 1960 705 1946T764 1908T803 1852T817 1785Q817 1749 803 1716T764 1658T704 1617T627 1602Z" />
<glyph unicode="&#xd0;" glyph-name="Eth" horiz-adv-x="1686" d="M190 861V1465H790Q983 1465 1131 1418T1381 1282T1534 1067T1586 784Q1586 692 1567 598T1506 417T1398 253T1239 121T1022 32T742 -1L190 0V606H40V861H190ZM596 861H880V606H596V239H781Q881
239 954 277T1074 384T1145 547T1168 753Q1168 875 1141 964T1063 1112T935 1198T762 1226H596V861Z" />
<glyph unicode="&#xd1;" glyph-name="Ntilde" horiz-adv-x="1740" d="M170 0V1465H714L1134 732L1246 501H1266L1256 760V1465H1570V0H1136L600 927L494 1146H474L484 908V0H170ZM1017 1816Q1030 1816 1042 1824T1064 1849T1080 1895T1086 1964H1301Q1301 1869
1277 1801T1213 1688T1122 1623T1017 1602Q975 1602 944 1613T889 1640T847 1676T814 1711T783 1739T751 1750Q738 1750 726 1743T703 1718T687 1672T681 1602H466Q466 1697 490 1765T554 1878T645 1943T749 1964Q791 1964 822 1953T878 1926T921 1890T956 1855T986
1827T1017 1816Z" />
<glyph unicode="&#xd2;" glyph-name="Ograve" horiz-adv-x="1746" d="M882 219Q968 219 1033 261T1141 373T1207 533T1229 722Q1229 827 1204 922T1132 1089T1017 1203T864 1246Q778 1246 714 1204T606 1092T540 931T518 743Q518 638 543 543T614 376T728 262T882
219ZM847 -20Q685 -20 548 28T312 168T156 395T100 703Q100 880 158 1024T323 1270T575 1429T899 1485Q1061 1485 1198 1437T1434 1297T1590 1071T1646 763Q1646 586 1587 442T1423 195T1170 36T847 -20ZM768 1602L482 1964H872L1068 1602H768Z" />
<glyph unicode="&#xd3;" glyph-name="Oacute" horiz-adv-x="1746" d="M882 219Q968 219 1033 261T1141 373T1207 533T1229 722Q1229 827 1204 922T1132 1089T1017 1203T864 1246Q778 1246 714 1204T606 1092T540 931T518 743Q518 638 543 543T614 376T728 262T882
219ZM847 -20Q685 -20 548 28T312 168T156 395T100 703Q100 880 158 1024T323 1270T575 1429T899 1485Q1061 1485 1198 1437T1434 1297T1590 1071T1646 763Q1646 586 1587 442T1423 195T1170 36T847 -20ZM723 1602L919 1964H1305L1019 1602H723Z" />
<glyph unicode="&#xd4;" glyph-name="Ocircumflex" horiz-adv-x="1746" d="M882 219Q968 219 1033 261T1141 373T1207 533T1229 722Q1229 827 1204 922T1132 1089T1017 1203T864 1246Q778 1246 714 1204T606 1092T540 931T518 743Q518 638 543 543T614 376T728
262T882 219ZM847 -20Q685 -20 548 28T312 168T156 395T100 703Q100 880 158 1024T323 1270T575 1429T899 1485Q1061 1485 1198 1437T1434 1297T1590 1071T1646 763Q1646 586 1587 442T1423 195T1170 36T847 -20ZM456 1602L692 1964H1054L1290 1602H990L871 1802L752
1602H456Z" />
<glyph unicode="&#xd5;" glyph-name="Otilde" horiz-adv-x="1746" d="M882 219Q968 219 1033 261T1141 373T1207 533T1229 722Q1229 827 1204 922T1132 1089T1017 1203T864 1246Q778 1246 714 1204T606 1092T540 931T518 743Q518 638 543 543T614 376T728 262T882
219ZM847 -20Q685 -20 548 28T312 168T156 395T100 703Q100 880 158 1024T323 1270T575 1429T899 1485Q1061 1485 1198 1437T1434 1297T1590 1071T1646 763Q1646 586 1587 442T1423 195T1170 36T847 -20ZM1001 1816Q1014 1816 1026 1824T1048 1849T1064 1895T1070
1964H1285Q1285 1869 1261 1801T1197 1688T1106 1623T1001 1602Q959 1602 928 1613T873 1640T831 1676T798 1711T767 1739T735 1750Q722 1750 710 1743T687 1718T671 1672T665 1602H450Q450 1697 474 1765T538 1878T629 1943T733 1964Q775 1964 806 1953T862 1926T905
1890T940 1855T970 1827T1001 1816Z" />
<glyph unicode="&#xd6;" glyph-name="Odieresis" horiz-adv-x="1746" d="M882 219Q968 219 1033 261T1141 373T1207 533T1229 722Q1229 827 1204 922T1132 1089T1017 1203T864 1246Q778 1246 714 1204T606 1092T540 931T518 743Q518 638 543 543T614 376T728 262T882
219ZM847 -20Q685 -20 548 28T312 168T156 395T100 703Q100 880 158 1024T323 1270T575 1429T899 1485Q1061 1485 1198 1437T1434 1297T1590 1071T1646 763Q1646 586 1587 442T1423 195T1170 36T847 -20ZM615 1602Q576 1602 542 1616T482 1653T442 1708T427 1775Q427
1811 442 1844T483 1903T544 1944T621 1960Q660 1960 693 1946T752 1908T791 1852T805 1785Q805 1749 791 1716T752 1658T692 1617T615 1602ZM1126 1602Q1087 1602 1053 1616T993 1653T953 1708T938 1775Q938 1811 953 1844T994 1903T1055 1944T1132 1960Q1171
1960 1204 1946T1263 1908T1302 1852T1316 1785Q1316 1749 1302 1716T1263 1658T1203 1617T1126 1602Z" />
<glyph unicode="&#xd7;" glyph-name="multiply" horiz-adv-x="1225" d="M792 584L1075 302L895 122L612 404L330 122L150 302L432 584L150 867L330 1047L612 764L895 1047L1075 867L792 584Z" />
<glyph unicode="&#xd8;" glyph-name="Oslash" horiz-adv-x="1746" d="M328 154Q220 247 160 384T100 703Q100 880 158 1024T323 1270T575 1429T899 1485Q988 1485 1069 1471T1223 1427L1334 1585H1609L1417 1312Q1525 1219 1585 1082T1646 763Q1646 586 1587 442T1423
195T1170 36T847 -20Q669 -20 521 38L410 -120H135L328 154ZM882 219Q968 219 1033 261T1141 373T1207 533T1229 722Q1229 792 1218 857T1185 982L695 285Q734 253 781 236T882 219ZM518 743Q518 673 528 608T560 485L1050 1181Q1011 1212 965 1229T864 1246Q778
1246 714 1204T606 1092T540 931T518 743Z" />
<glyph unicode="&#xd9;" glyph-name="Ugrave" horiz-adv-x="1544" d="M566 1465V526Q566 449 584 391T634 295T712 238T812 219Q867 219 914 238T996 296T1050 392T1070 525V1465H1384V573Q1384 441 1344 332T1224 145T1026 24T752 -20Q615 -20 505 15T319 120T201
296T160 541V1465H566ZM702 1602L416 1964H806L1002 1602H702Z" />
<glyph unicode="&#xda;" glyph-name="Uacute" horiz-adv-x="1544" d="M566 1465V526Q566 449 584 391T634 295T712 238T812 219Q867 219 914 238T996 296T1050 392T1070 525V1465H1384V573Q1384 441 1344 332T1224 145T1026 24T752 -20Q615 -20 505 15T319 120T201
296T160 541V1465H566ZM633 1602L829 1964H1215L929 1602H633Z" />
<glyph unicode="&#xdb;" glyph-name="Ucircumflex" horiz-adv-x="1544" d="M566 1465V526Q566 449 584 391T634 295T712 238T812 219Q867 219 914 238T996 296T1050 392T1070 525V1465H1384V573Q1384 441 1344 332T1224 145T1026 24T752 -20Q615 -20 505 15T319
120T201 296T160 541V1465H566ZM356 1602L592 1964H954L1190 1602H890L771 1802L652 1602H356Z" />
<glyph unicode="&#xdc;" glyph-name="Udieresis" horiz-adv-x="1544" d="M566 1465V526Q566 449 584 391T634 295T712 238T812 219Q867 219 914 238T996 296T1050 392T1070 525V1465H1384V573Q1384 441 1344 332T1224 145T1026 24T752 -20Q615 -20 505 15T319
120T201 296T160 541V1465H566ZM519 1602Q480 1602 446 1616T386 1653T346 1708T331 1775Q331 1811 346 1844T387 1903T448 1944T525 1960Q564 1960 597 1946T656 1908T695 1852T709 1785Q709 1749 695 1716T656 1658T596 1617T519 1602ZM1030 1602Q991 1602 957
1616T897 1653T857 1708T842 1775Q842 1811 857 1844T898 1903T959 1944T1036 1960Q1075 1960 1108 1946T1167 1908T1206 1852T1220 1785Q1220 1749 1206 1716T1167 1658T1107 1617T1030 1602Z" />
<glyph unicode="&#xdd;" glyph-name="Yacute" horiz-adv-x="1431" d="M20 1465H485L767 893L1050 1465H1411L919 636V0H513V624L20 1465ZM594 1602L790 1964H1176L890 1602H594Z" />
<glyph unicode="&#xde;" glyph-name="Thorn" horiz-adv-x="1466" d="M576 0H170V1465H576V1220H738Q893 1220 1009 1187T1202 1091T1317 942T1356 749Q1356 632 1315 537T1201 374T1029 269T815 232Q798 232 783 233T748 237L766 453Q771 452 782 452T802 451Q848
451 879 473T929 531T956 612T964 704Q964 779 947 832T898 918T821 966T720 981H576V0Z" />
<glyph unicode="&#xdf;" glyph-name="germandbls" horiz-adv-x="1447" d="M1300 1259Q1300 1204 1284 1164T1244 1093T1192 1037T1140 987T1100 935T1084 872Q1084 829 1107 798T1165 739T1240 682T1316 612T1374 516T1397 382Q1397 294 1366 221T1277 94T1135
10T948 -20Q916 -20 878 -17T800 -8T718 6T637 26L684 278L708 292Q771 256 830 236T929 216Q976 216 1006 244T1036 325Q1036 372 1012 405T952 466T874 522T796 588T736 678T712 805Q712 865 727 905T765 974T814 1025T863 1072T901 1126T916 1202Q916 1248 900
1282T859 1340T803 1374T742 1386Q712 1386 677 1373T611 1328T560 1240T540 1100V0H140V1062Q140 1182 183 1284T307 1462T503 1579T765 1622Q872 1622 969 1599T1139 1529T1256 1415T1300 1259Z" />
<glyph unicode="&#xe0;" glyph-name="agrave" horiz-adv-x="1250" d="M714 152Q682 125 644 95T560 40T463 -3T356 -20Q282 -20 230 9T144 84T96 182T80 285Q80 362 116 427T227 539T414 613T676 640H698V692Q698 769 651 806T524 844Q487 844 447 835T365 810T284
773T208 728L190 738L125 970Q258 1028 378 1054T619 1080Q715 1080 801 1063T954 1005T1059 896T1098 728V334Q1098 295 1113 267T1170 238Q1184 238 1194 239T1220 246V84Q1149 34 1078 7T941 -20Q863 -20 806 20T714 152ZM698 516H672Q606 516 561 506T487 478T447
431T434 367Q434 331 444 307T472 267T512 245T559 238Q591 238 627 249T698 284V516ZM496 1240L210 1602H600L796 1240H496Z" />
<glyph unicode="&#xe1;" glyph-name="aacute" horiz-adv-x="1250" d="M714 152Q682 125 644 95T560 40T463 -3T356 -20Q282 -20 230 9T144 84T96 182T80 285Q80 362 116 427T227 539T414 613T676 640H698V692Q698 769 651 806T524 844Q487 844 447 835T365 810T284
773T208 728L190 738L125 970Q258 1028 378 1054T619 1080Q715 1080 801 1063T954 1005T1059 896T1098 728V334Q1098 295 1113 267T1170 238Q1184 238 1194 239T1220 246V84Q1149 34 1078 7T941 -20Q863 -20 806 20T714 152ZM698 516H672Q606 516 561 506T487 478T447
431T434 367Q434 331 444 307T472 267T512 245T559 238Q591 238 627 249T698 284V516ZM376 1240L572 1602H958L672 1240H376Z" />
<glyph unicode="&#xe2;" glyph-name="acircumflex" horiz-adv-x="1250" d="M714 152Q682 125 644 95T560 40T463 -3T356 -20Q282 -20 230 9T144 84T96 182T80 285Q80 362 116 427T227 539T414 613T676 640H698V692Q698 769 651 806T524 844Q487 844 447 835T365
810T284 773T208 728L190 738L125 970Q258 1028 378 1054T619 1080Q715 1080 801 1063T954 1005T1059 896T1098 728V334Q1098 295 1113 267T1170 238Q1184 238 1194 239T1220 246V84Q1149 34 1078 7T941 -20Q863 -20 806 20T714 152ZM698 516H672Q606 516 561 506T487
478T447 431T434 367Q434 331 444 307T472 267T512 245T559 238Q591 238 627 249T698 284V516ZM440 1240L676 1602H1038L1274 1240H974L855 1440L736 1240H440Z" />
<glyph unicode="&#xe3;" glyph-name="atilde" horiz-adv-x="1250" d="M714 152Q682 125 644 95T560 40T463 -3T356 -20Q282 -20 230 9T144 84T96 182T80 285Q80 362 116 427T227 539T414 613T676 640H698V692Q698 769 651 806T524 844Q487 844 447 835T365 810T284
773T208 728L190 738L125 970Q258 1028 378 1054T619 1080Q715 1080 801 1063T954 1005T1059 896T1098 728V334Q1098 295 1113 267T1170 238Q1184 238 1194 239T1220 246V84Q1149 34 1078 7T941 -20Q863 -20 806 20T714 152ZM698 516H672Q606 516 561 506T487 478T447
431T434 367Q434 331 444 307T472 267T512 245T559 238Q591 238 627 249T698 284V516ZM978 1454Q991 1454 1003 1462T1025 1487T1041 1533T1047 1602H1262Q1262 1507 1238 1439T1174 1326T1083 1261T978 1240Q936 1240 905 1251T850 1278T808 1314T775 1349T744
1377T712 1388Q699 1388 687 1381T664 1356T648 1310T642 1240H427Q427 1335 451 1403T515 1516T606 1581T710 1602Q752 1602 783 1591T839 1564T882 1528T917 1493T947 1465T978 1454Z" />
<glyph unicode="&#xe4;" glyph-name="adieresis" horiz-adv-x="1250" d="M714 152Q682 125 644 95T560 40T463 -3T356 -20Q282 -20 230 9T144 84T96 182T80 285Q80 362 116 427T227 539T414 613T676 640H698V692Q698 769 651 806T524 844Q487 844 447 835T365
810T284 773T208 728L190 738L125 970Q258 1028 378 1054T619 1080Q715 1080 801 1063T954 1005T1059 896T1098 728V334Q1098 295 1113 267T1170 238Q1184 238 1194 239T1220 246V84Q1149 34 1078 7T941 -20Q863 -20 806 20T714 152ZM698 516H672Q606 516 561 506T487
478T447 431T434 367Q434 331 444 307T472 267T512 245T559 238Q591 238 627 249T698 284V516ZM607 1240Q568 1240 534 1254T474 1291T434 1346T419 1413Q419 1449 434 1482T475 1541T536 1582T613 1598Q652 1598 685 1584T744 1546T783 1490T797 1423Q797 1387
783 1354T744 1296T684 1255T607 1240ZM1118 1240Q1079 1240 1045 1254T985 1291T945 1346T930 1413Q930 1449 945 1482T986 1541T1047 1582T1124 1598Q1163 1598 1196 1584T1255 1546T1294 1490T1308 1423Q1308 1387 1294 1354T1255 1296T1195 1255T1118 1240Z"
/>
<glyph unicode="&#xe5;" glyph-name="aring" horiz-adv-x="1250" d="M714 152Q682 125 644 95T560 40T463 -3T356 -20Q282 -20 230 9T144 84T96 182T80 285Q80 362 116 427T227 539T414 613T676 640H698V692Q698 769 651 806T524 844Q487 844 447 835T365 810T284
773T208 728L190 738L125 970Q258 1028 378 1054T619 1080Q715 1080 801 1063T954 1005T1059 896T1098 728V334Q1098 295 1113 267T1170 238Q1184 238 1194 239T1220 246V84Q1149 34 1078 7T941 -20Q863 -20 806 20T714 152ZM698 516H672Q606 516 561 506T487 478T447
431T434 367Q434 331 444 307T472 267T512 245T559 238Q591 238 627 249T698 284V516ZM488 1471Q488 1426 514 1398T581 1370Q621 1370 648 1398T675 1471Q675 1515 648 1543T581 1571Q541 1571 515 1543T488 1471ZM270 1466Q270 1527 295 1576T364 1659T466 1711T590
1729Q657 1729 712 1711T808 1659T870 1579T892 1476Q892 1414 867 1366T798 1283T696 1230T572 1212Q505 1212 450 1230T354 1282T292 1363T270 1466Z" />
<glyph unicode="&#xe6;" glyph-name="ae" horiz-adv-x="1850" d="M718 294Q704 340 701 385T698 494H672Q606 494 561 485T487 457T447 414T434 355Q434 323 444 301T472 265T513 245T561 238Q606 238 645 254T718 294ZM780 175Q742 142 700 108T608 45T502 -2T382
-20Q305 -20 249 6T155 74T99 168T80 273Q80 347 116 410T227 519T413 592T676 618H698V692Q698 769 651 806T527 844Q489 844 449 836T368 812T286 775T208 728L190 738L125 970Q257 1028 379 1054T611 1080Q725 1080 814 1052T969 956Q1036 1018 1117 1049T1299
1080Q1400 1080 1486 1049T1635 958T1734 812T1770 615Q1770 573 1766 542T1758 494H1098Q1098 420 1120 371T1184 292T1285 250T1419 238Q1481 238 1558 247T1710 280V118Q1650 76 1591 49T1476 7T1365 -14T1259 -20Q1091 -20 971 30T780 175ZM1410 618Q1410 734
1369 789T1258 844Q1183 844 1141 784T1098 618H1410Z" />
<glyph unicode="&#xe7;" glyph-name="ccedilla" horiz-adv-x="1051" d="M978 118Q925 74 875 47T774 4Q795 -25 812 -65T830 -158Q830 -211 808 -264T736 -361T610 -430T423 -457H368V-263H419Q469 -263 504 -250T561 -215T594 -166T605 -110Q605 -69 580 -20Q460
-17 367 21T210 124T113 279T80 476Q80 611 131 722T270 912T479 1036T737 1080Q759 1080 787 1079T849 1073T920 1062T996 1044L942 798L924 788Q909 797 888 807T842 825T789 838T732 844Q677 844 633 823T557 762T508 665T490 537Q490 456 512 400T573 307T667
255T788 238Q810 238 831 240T874 247T922 260T978 280V118Z" />
<glyph unicode="&#xe8;" glyph-name="egrave" horiz-adv-x="1242" d="M1102 118Q1042 76 983 49T868 7T757 -14T651 -20Q514 -20 408 14T228 114T118 273T80 487Q80 628 129 738T262 924T454 1040T683 1080Q789 1080 877 1049T1028 956T1127 803T1162 594Q1162
549 1158 518T1150 470H490Q490 405 512 361T577 290T678 250T812 238Q873 238 950 247T1102 280V118ZM802 594Q802 660 791 707T761 785T713 830T650 844Q575 844 533 782T490 594H802ZM540 1240L254 1602H644L840 1240H540Z" />
<glyph unicode="&#xe9;" glyph-name="eacute" horiz-adv-x="1242" d="M1102 118Q1042 76 983 49T868 7T757 -14T651 -20Q514 -20 408 14T228 114T118 273T80 487Q80 628 129 738T262 924T454 1040T683 1080Q789 1080 877 1049T1028 956T1127 803T1162 594Q1162
549 1158 518T1150 470H490Q490 405 512 361T577 290T678 250T812 238Q873 238 950 247T1102 280V118ZM802 594Q802 660 791 707T761 785T713 830T650 844Q575 844 533 782T490 594H802ZM472 1240L668 1602H1054L768 1240H472Z" />
<glyph unicode="&#xea;" glyph-name="ecircumflex" horiz-adv-x="1242" d="M1102 118Q1042 76 983 49T868 7T757 -14T651 -20Q514 -20 408 14T228 114T118 273T80 487Q80 628 129 738T262 924T454 1040T683 1080Q789 1080 877 1049T1028 956T1127 803T1162 594Q1162
549 1158 518T1150 470H490Q490 405 512 361T577 290T678 250T812 238Q873 238 950 247T1102 280V118ZM802 594Q802 660 791 707T761 785T713 830T650 844Q575 844 533 782T490 594H802ZM236 1240L472 1602H834L1070 1240H770L651 1440L532 1240H236Z" />
<glyph unicode="&#xeb;" glyph-name="edieresis" horiz-adv-x="1242" d="M1102 118Q1042 76 983 49T868 7T757 -14T651 -20Q514 -20 408 14T228 114T118 273T80 487Q80 628 129 738T262 924T454 1040T683 1080Q789 1080 877 1049T1028 956T1127 803T1162 594Q1162
549 1158 518T1150 470H490Q490 405 512 361T577 290T678 250T812 238Q873 238 950 247T1102 280V118ZM802 594Q802 660 791 707T761 785T713 830T650 844Q575 844 533 782T490 594H802ZM397 1240Q358 1240 324 1254T264 1291T224 1346T209 1413Q209 1449 224 1482T265
1541T326 1582T403 1598Q442 1598 475 1584T534 1546T573 1490T587 1423Q587 1387 573 1354T534 1296T474 1255T397 1240ZM908 1240Q869 1240 835 1254T775 1291T735 1346T720 1413Q720 1449 735 1482T776 1541T837 1582T914 1598Q953 1598 986 1584T1045 1546T1084
1490T1098 1423Q1098 1387 1084 1354T1045 1296T985 1255T908 1240Z" />
<glyph unicode="&#xec;" glyph-name="igrave" horiz-adv-x="680" d="M140 1060H540V0H140V1060ZM228 1240L-58 1602H332L528 1240H228Z" />
<glyph unicode="&#xed;" glyph-name="iacute" horiz-adv-x="680" d="M140 1060H540V0H140V1060ZM401 1240L597 1602H983L697 1240H401Z" />
<glyph unicode="&#xee;" glyph-name="icircumflex" horiz-adv-x="680" d="M140 1060H540V0H140V1060ZM-71 1240L165 1602H527L763 1240H463L344 1440L225 1240H-71Z" />
<glyph unicode="&#xef;" glyph-name="idieresis" horiz-adv-x="680" d="M140 1060H540V0H140V1060ZM88 1240Q49 1240 15 1254T-45 1291T-85 1346T-100 1413Q-100 1449 -85 1482T-44 1541T17 1582T94 1598Q133 1598 166 1584T225 1546T264 1490T278 1423Q278 1387
264 1354T225 1296T165 1255T88 1240ZM599 1240Q560 1240 526 1254T466 1291T426 1346T411 1413Q411 1449 426 1482T467 1541T528 1582T605 1598Q644 1598 677 1584T736 1546T775 1490T789 1423Q789 1387 775 1354T736 1296T676 1255T599 1240Z" />
<glyph unicode="&#xf0;" glyph-name="eth" horiz-adv-x="1362" d="M468 1313Q420 1335 368 1353T258 1388L358 1602Q482 1573 587 1532T781 1439L1073 1558L1130 1418L930 1337Q1021 1263 1087 1177T1196 995T1261 796T1282 586Q1282 451 1235 340T1102 148T899
24T640 -20Q491 -20 385 27T211 150T112 323T80 520Q80 659 127 763T247 938T407 1044T576 1080Q600 1080 627 1076T681 1064T732 1045T777 1022H797Q771 1080 730 1128T635 1217L316 1087L258 1228L468 1313ZM872 602Q872 647 868 689T853 782Q820 812 778 828T696
844Q652 844 615 827T551 774T509 684T494 556Q494 488 507 427T545 319T608 244T694 216Q779 216 825 310T872 602Z" />
<glyph unicode="&#xf1;" glyph-name="ntilde" horiz-adv-x="1386" d="M140 1060H482L528 890Q562 918 603 951T693 1013T796 1061T912 1080Q986 1080 1047 1055T1153 982T1221 867T1246 718V0H846V658Q846 698 835 729T805 780T760 811T706 822Q661 822 620 800T540
748V0H140V1060ZM811 1454Q824 1454 836 1462T858 1487T874 1533T880 1602H1095Q1095 1507 1071 1439T1007 1326T916 1261T811 1240Q769 1240 738 1251T683 1278T641 1314T608 1349T577 1377T545 1388Q532 1388 520 1381T497 1356T481 1310T475 1240H260Q260 1335
284 1403T348 1516T439 1581T543 1602Q585 1602 616 1591T672 1564T715 1528T750 1493T780 1465T811 1454Z" />
<glyph unicode="&#xf2;" glyph-name="ograve" horiz-adv-x="1356" d="M641 -20Q497 -20 392 22T217 137T114 303T80 502Q80 624 124 729T251 913T451 1035T714 1080Q855 1080 960 1039T1136 926T1241 759T1276 557Q1276 432 1231 326T1102 143T901 23T641 -20ZM684
216Q722 216 755 233T813 287T852 380T866 517Q866 591 853 651T816 754T755 820T672 844Q591 844 541 769T490 541Q490 462 504 402T543 300T604 237T684 216ZM542 1240L256 1602H646L842 1240H542Z" />
<glyph unicode="&#xf3;" glyph-name="oacute" horiz-adv-x="1356" d="M641 -20Q497 -20 392 22T217 137T114 303T80 502Q80 624 124 729T251 913T451 1035T714 1080Q855 1080 960 1039T1136 926T1241 759T1276 557Q1276 432 1231 326T1102 143T901 23T641 -20ZM684
216Q722 216 755 233T813 287T852 380T866 517Q866 591 853 651T816 754T755 820T672 844Q591 844 541 769T490 541Q490 462 504 402T543 300T604 237T684 216ZM486 1240L682 1602H1068L782 1240H486Z" />
<glyph unicode="&#xf4;" glyph-name="ocircumflex" horiz-adv-x="1356" d="M641 -20Q497 -20 392 22T217 137T114 303T80 502Q80 624 124 729T251 913T451 1035T714 1080Q855 1080 960 1039T1136 926T1241 759T1276 557Q1276 432 1231 326T1102 143T901 23T641
-20ZM684 216Q722 216 755 233T813 287T852 380T866 517Q866 591 853 651T816 754T755 820T672 844Q591 844 541 769T490 541Q490 462 504 402T543 300T604 237T684 216ZM258 1240L494 1602H856L1092 1240H792L673 1440L554 1240H258Z" />
<glyph unicode="&#xf5;" glyph-name="otilde" horiz-adv-x="1356" d="M641 -20Q497 -20 392 22T217 137T114 303T80 502Q80 624 124 729T251 913T451 1035T714 1080Q855 1080 960 1039T1136 926T1241 759T1276 557Q1276 432 1231 326T1102 143T901 23T641 -20ZM684
216Q722 216 755 233T813 287T852 380T866 517Q866 591 853 651T816 754T755 820T672 844Q591 844 541 769T490 541Q490 462 504 402T543 300T604 237T684 216ZM808 1454Q821 1454 833 1462T855 1487T871 1533T877 1602H1092Q1092 1507 1068 1439T1004 1326T913
1261T808 1240Q766 1240 735 1251T680 1278T638 1314T605 1349T574 1377T542 1388Q529 1388 517 1381T494 1356T478 1310T472 1240H257Q257 1335 281 1403T345 1516T436 1581T540 1602Q582 1602 613 1591T669 1564T712 1528T747 1493T777 1465T808 1454Z" />
<glyph unicode="&#xf6;" glyph-name="odieresis" horiz-adv-x="1356" d="M641 -20Q497 -20 392 22T217 137T114 303T80 502Q80 624 124 729T251 913T451 1035T714 1080Q855 1080 960 1039T1136 926T1241 759T1276 557Q1276 432 1231 326T1102 143T901 23T641 -20ZM684
216Q722 216 755 233T813 287T852 380T866 517Q866 591 853 651T816 754T755 820T672 844Q591 844 541 769T490 541Q490 462 504 402T543 300T604 237T684 216ZM424 1240Q385 1240 351 1254T291 1291T251 1346T236 1413Q236 1449 251 1482T292 1541T353 1582T430
1598Q469 1598 502 1584T561 1546T600 1490T614 1423Q614 1387 600 1354T561 1296T501 1255T424 1240ZM935 1240Q896 1240 862 1254T802 1291T762 1346T747 1413Q747 1449 762 1482T803 1541T864 1582T941 1598Q980 1598 1013 1584T1072 1546T1111 1490T1125 1423Q1125
1387 1111 1354T1072 1296T1012 1255T935 1240Z" />
<glyph unicode="&#xf7;" glyph-name="divide" horiz-adv-x="1307" d="M1157 719V464H150V719H1157ZM650 831Q616 831 586 844T532 879T496 933T482 1000Q482 1038 496 1070T535 1124T591 1159T657 1172Q691 1172 722 1159T775 1124T811 1070T825 1003Q825 965
811 933T772 879T716 844T650 831ZM650 11Q616 11 586 24T532 59T496 113T482 180Q482 218 496 250T535 304T591 339T657 352Q691 352 722 339T775 304T811 250T825 183Q825 145 811 113T772 59T716 24T650 11Z" />
<glyph unicode="&#xf8;" glyph-name="oslash" horiz-adv-x="1340" d="M254 98Q209 135 176 181T122 278T91 385T80 498Q80 618 124 724T250 909T449 1034T712 1080Q772 1080 824 1072T922 1049L1014 1180H1240L1086 961Q1175 887 1217 782T1260 561Q1260 437 1215
331T1086 147T885 25T626 -20Q566 -20 515 -12T418 10L327 -120H101L254 98ZM490 541Q490 488 496 443L755 812Q736 827 714 835T665 844Q583 844 537 766T490 541ZM675 216Q714 216 746 234T801 290T837 384T850 517Q850 543 848 567T843 615L585 248Q625 216
675 216Z" />
<glyph unicode="&#xf9;" glyph-name="ugrave" horiz-adv-x="1362" d="M140 1060H540V402Q540 325 576 282T670 238Q709 238 746 259T822 312V1060H1222V0H880L834 170Q798 138 757 105T669 44T573 -2T470 -20Q411 -20 353 1T247 67T170 180T140 344V1060ZM556
1240L270 1602H660L856 1240H556Z" />
<glyph unicode="&#xfa;" glyph-name="uacute" horiz-adv-x="1362" d="M140 1060H540V402Q540 325 576 282T670 238Q709 238 746 259T822 312V1060H1222V0H880L834 170Q798 138 757 105T669 44T573 -2T470 -20Q411 -20 353 1T247 67T170 180T140 344V1060ZM490
1240L686 1602H1072L786 1240H490Z" />
<glyph unicode="&#xfb;" glyph-name="ucircumflex" horiz-adv-x="1362" d="M140 1060H540V402Q540 325 576 282T670 238Q709 238 746 259T822 312V1060H1222V0H880L834 170Q798 138 757 105T669 44T573 -2T470 -20Q411 -20 353 1T247 67T170 180T140 344V1060ZM268
1240L504 1602H866L1102 1240H802L683 1440L564 1240H268Z" />
<glyph unicode="&#xfc;" glyph-name="udieresis" horiz-adv-x="1362" d="M140 1060H540V402Q540 325 576 282T670 238Q709 238 746 259T822 312V1060H1222V0H880L834 170Q798 138 757 105T669 44T573 -2T470 -20Q411 -20 353 1T247 67T170 180T140 344V1060ZM426
1240Q387 1240 353 1254T293 1291T253 1346T238 1413Q238 1449 253 1482T294 1541T355 1582T432 1598Q471 1598 504 1584T563 1546T602 1490T616 1423Q616 1387 602 1354T563 1296T503 1255T426 1240ZM937 1240Q898 1240 864 1254T804 1291T764 1346T749 1413Q749
1449 764 1482T805 1541T866 1582T943 1598Q982 1598 1015 1584T1074 1546T1113 1490T1127 1423Q1127 1387 1113 1354T1074 1296T1014 1255T937 1240Z" />
<glyph unicode="&#xfd;" glyph-name="yacute" horiz-adv-x="1176" d="M30 1060H457L588 494L627 280H647L684 494L817 1060H1146L657 -536H314L545 0H356L30 1060ZM436 1240L632 1602H1018L732 1240H436Z" />
<glyph unicode="&#xfe;" glyph-name="thorn" horiz-adv-x="1376" d="M140 1602H540V902Q578 936 618 968T701 1025T793 1065T897 1080Q990 1080 1063 1037T1189 924T1268 763T1296 578Q1296 453 1250 344T1122 154T931 27T695 -20Q651 -20 607 -15T540 0V-536H140V1602ZM540
242Q578 225 607 221T655 216Q716 216 760 244T832 317T874 420T888 538Q888 606 875 659T839 748T783 803T711 822Q669 822 622 801T540 744V242Z" />
<glyph unicode="&#xff;" glyph-name="ydieresis" horiz-adv-x="1176" d="M30 1060H457L588 494L627 280H647L684 494L817 1060H1146L657 -536H314L545 0H356L30 1060ZM611 1240Q572 1240 538 1254T478 1291T438 1346T423 1413Q423 1449 438 1482T479 1541T540
1582T617 1598Q656 1598 689 1584T748 1546T787 1490T801 1423Q801 1387 787 1354T748 1296T688 1255T611 1240ZM1122 1240Q1083 1240 1049 1254T989 1291T949 1346T934 1413Q934 1449 949 1482T990 1541T1051 1582T1128 1598Q1167 1598 1200 1584T1259 1546T1298
1490T1312 1423Q1312 1387 1298 1354T1259 1296T1199 1255T1122 1240Z" />
<glyph unicode="&#x2013;" glyph-name="endash" horiz-adv-x="1037" d="M987 719V464H50V719H987Z" />
<glyph unicode="&#x2014;" glyph-name="emdash" horiz-adv-x="2107" d="M2057 719V464H50V719H2057Z" />
<glyph unicode="&#x2018;" glyph-name="quoteleft" horiz-adv-x="734" d="M614 1551Q533 1460 479 1370T403 1185Q418 1168 438 1153T481 1125T528 1102T577 1086Q585 1063 589 1038T594 987Q594 935 574 893T522 820T447 774T360 757Q318 757 277 773T203 821T150
902T130 1020Q130 1078 146 1147T202 1295T310 1458T482 1632L614 1551Z" />
<glyph unicode="&#x2019;" glyph-name="quoteright" horiz-adv-x="734" d="M120 828Q201 919 255 1009T331 1194Q316 1210 296 1225T253 1254T206 1277T157 1293Q149 1316 145 1341T140 1392Q140 1444 160 1486T212 1559T287 1605T374 1622Q416 1622 457 1606T531
1558T584 1476T604 1359Q604 1301 588 1232T532 1084T423 921T252 747L120 828Z" />
<glyph unicode="&#x201a;" glyph-name="quotesinglbase" horiz-adv-x="734" d="M120 -358Q201 -267 255 -177T331 8Q316 24 296 39T253 68T206 91T157 107Q149 130 145 155T140 206Q140 258 160 300T212 373T287 419T374 436Q416 436 457 420T531 372T584 290T604
173Q604 115 588 46T532 -102T423 -265T252 -439L120 -358Z" />
<glyph unicode="&#x201c;" glyph-name="quotedblleft" horiz-adv-x="1357" d="M1237 1551Q1156 1460 1102 1370T1026 1185Q1041 1168 1061 1153T1104 1125T1151 1102T1200 1086Q1208 1063 1212 1038T1217 987Q1217 935 1197 893T1145 820T1070 774T983 757Q941
757 900 773T826 821T773 902T753 1020Q753 1078 769 1147T825 1295T933 1458T1105 1632L1237 1551ZM614 1551Q533 1460 479 1370T403 1185Q418 1168 438 1153T481 1125T528 1102T577 1086Q585 1063 589 1038T594 987Q594 935 574 893T522 820T447 774T360 757Q318
757 277 773T203 821T150 902T130 1020Q130 1078 146 1147T202 1295T310 1458T482 1632L614 1551Z" />
<glyph unicode="&#x201d;" glyph-name="quotedblright" horiz-adv-x="1357" d="M120 828Q201 919 255 1009T331 1194Q316 1210 296 1225T253 1254T206 1277T157 1293Q149 1316 145 1341T140 1392Q140 1444 160 1486T212 1559T287 1605T374 1622Q416 1622 457 1606T531
1558T584 1476T604 1359Q604 1301 588 1232T532 1084T423 921T252 747L120 828ZM743 828Q824 919 878 1009T954 1194Q939 1210 919 1225T876 1254T829 1277T780 1293Q772 1316 768 1341T763 1392Q763 1444 783 1486T835 1559T910 1605T997 1622Q1039 1622 1080
1606T1154 1558T1207 1476T1227 1359Q1227 1301 1211 1232T1155 1084T1046 921T875 747L743 828Z" />
<glyph unicode="&#x201e;" glyph-name="quotedblbase" horiz-adv-x="1357" d="M120 -358Q201 -267 255 -177T331 8Q316 24 296 39T253 68T206 91T157 107Q149 130 145 155T140 206Q140 258 160 300T212 373T287 419T374 436Q416 436 457 420T531 372T584 290T604
173Q604 115 588 46T532 -102T423 -265T252 -439L120 -358ZM743 -358Q824 -267 878 -177T954 8Q939 24 919 39T876 68T829 91T780 107Q772 130 768 155T763 206Q763 258 783 300T835 373T910 419T997 436Q1039 436 1080 420T1154 372T1207 290T1227 173Q1227 115
1211 46T1155 -102T1046 -265T875 -439L743 -358Z" />
<glyph unicode="&#x2022;" glyph-name="bullet" horiz-adv-x="944" d="M464 301Q409 301 361 322T277 379T221 465T200 573Q200 630 222 679T282 766T370 824T476 845Q531 845 580 824T665 766T723 680T744 573Q744 515 721 466T659 380T570 322T464 301Z" />
<glyph unicode="&#x2039;" glyph-name="guilsinglleft" horiz-adv-x="727" d="M90 634L418 1030L607 855L361 574L607 293L418 118L90 514V634Z" />
<glyph unicode="&#x203a;" glyph-name="guilsinglright" horiz-adv-x="727" d="M637 514L309 118L120 293L366 574L120 855L309 1030L637 634V514Z" />
</font>
</defs>
</svg>
