<?xml version="1.0" standalone="no"?>
<!DOCTYPE svg PUBLIC "-//W3C//DTD SVG 1.1//EN" "http://www.w3.org/Graphics/SVG/1.1/DTD/svg11.dtd">
<svg xmlns="http://www.w3.org/2000/svg">
<defs >
<font id="Taviraj" horiz-adv-x="587" ><font-face
    font-family="Taviraj"
    units-per-em="1000"
    panose-1="0 0 5 0 0 0 0 0 0 0"
    ascent="1172"
    descent="-534"
    alphabetic="0" />
<glyph unicode=" " glyph-name="space" horiz-adv-x="258" />
<glyph unicode="!" glyph-name="exclam" horiz-adv-x="288" d="M93 630L92 647Q92 679 102 694T145 710Q176 710 186 694T197 647L196 630L167 134H123L93 630ZM119 -10T104 4T89 44Q89 69 104 83T145 98Q170 98 184 84T199 44Q199 19 185 5T145 -10Q119 -10 104 4Z" />
<glyph unicode="&quot;" glyph-name="quotedbl" horiz-adv-x="402" d="M69 646Q69 684 78 702T117 721Q145 721 155 703T165 649L135 432H97L69 646ZM237 646Q237 684 246 702T285 721Q313 721 323 703T333 649L303 432H265L237 646Z" />
<glyph unicode="#" glyph-name="numbersign" horiz-adv-x="840" d="M630 468L573 227H740V187H563L517 -10H448L494 187H270L224 -10H155L201 187H32V227H211L268 468H96V509H277L320 691H389L346 509H570L613 691H682L639 509H803V468H630ZM561 468H337L280 227H504L561
468Z" />
<glyph unicode="$" glyph-name="dollar" horiz-adv-x="582" d="M542 94T477 43T308 -10V-91H266V-8Q219 -3 184 11T113 46Q109 48 99 54T84 60Q80 60 78 56T75 43V0H39V190H68Q74 143 104 107T179 51T272 31Q349 31 396 67T443 170Q443 211 419 240T359 289T262
336Q193 365 152 389T81 450T52 543Q52 621 110 663T266 710V789H308V709Q351 705 383 693T446 663Q465 652 470 652Q476 652 476 661V706H513V515H484Q476 587 426 627T304 668Q232 668 192 638T151 555Q151 519 173 493T229 450T320 409Q391 380 435 355T511
288T542 184Q542 94 477 43Z" />
<glyph unicode="%" glyph-name="percent" horiz-adv-x="899" d="M141 4L721 720L755 691L174 -24L141 4ZM126 322T79 372T32 512Q32 601 79 651T219 702Q311 702 358 652T406 512Q406 422 359 372T219 322Q126 322 79 372ZM273 364T298 409T324 512Q324 570 299
615T219 660Q165 660 140 615T115 512Q115 454 140 409T219 364Q273 364 298 409ZM588 -11T540 40T491 180Q491 269 539 319T680 370Q772 370 819 320T867 180Q867 91 820 40T680 -11Q588 -11 540 40ZM734 32T758 76T783 180Q783 238 759 283T680 328Q626 328 601
283T575 180Q575 122 600 77T680 32Q734 32 758 76Z" />
<glyph unicode="&amp;" glyph-name="ampersand" horiz-adv-x="731" d="M174 -10T108 38T42 170Q42 242 87 289T217 385Q173 432 148 481T123 567Q123 635 170 671T296 708Q368 708 413 676T459 576Q459 518 420 477T310 394Q356 343 418 280T494 203Q494 203 546
151Q604 228 618 327H664Q657 269 634 217T574 122L649 45L693 0H581L511 70Q415 -10 281 -10Q174 -10 108 38ZM346 459T377 493T409 576Q409 621 383 645T311 669Q267 669 240 645T213 575Q213 509 288 423Q346 459 377 493ZM347 30T395 48T482 100Q392 189 341
243T252 342Q198 303 167 264T136 173Q136 104 182 67T293 30Q347 30 395 48Z" />
<glyph unicode="&apos;" glyph-name="quotesingle" horiz-adv-x="234" d="M69 646Q69 684 78 702T117 721Q145 721 155 703T165 649L135 432H97L69 646Z" />
<glyph unicode="(" glyph-name="parenleft" horiz-adv-x="272" d="M125 -60T81 51T36 292Q36 421 80 534T214 732L243 722Q171 626 141 519T110 293Q110 46 242 -134L214 -143Q125 -60 81 51Z" />
<glyph unicode=")" glyph-name="parenright" horiz-adv-x="272" d="M29 -134Q162 45 162 293Q162 411 132 518T29 722L57 732Q146 648 191 535T236 292Q236 163 192 52T57 -143L29 -134Z" />
<glyph unicode="*" glyph-name="asterisk" horiz-adv-x="525" d="M243 311T231 324T219 358Q219 372 221 380T231 403Q240 419 244 437T250 488Q222 474 207 459T175 423Q161 405 151 398T123 390Q108 390 96 402T83 431Q83 447 93 459T120 476L140 479Q167 483
187 489T237 511Q175 542 132 542Q113 542 98 557T83 591Q83 608 95 620T124 632Q143 632 152 625T175 601Q188 582 204 566T249 534Q248 568 244 586T231 619Q225 629 222 639T219 663Q219 685 231 698T262 711Q281 711 293 698T305 663Q305 650 302 641T293 619Q284
599 280 582T275 534Q304 550 320 566T349 601Q361 618 371 625T400 632Q416 632 429 620T442 591Q442 572 427 557T392 542Q369 542 345 535T288 511Q315 496 335 490T378 481L404 476Q420 473 431 460T442 431Q442 414 429 402T401 390Q382 390 372 397T348 424Q333
444 318 459T275 488Q276 453 280 436T293 402Q299 391 302 382T305 358Q305 337 293 324T262 311Q243 311 231 324Z" />
<glyph unicode="+" glyph-name="plus" horiz-adv-x="582" d="M244 308H54V359H244V557H338V359H527V308H338V111H244V308Z" />
<glyph unicode="," glyph-name="comma" horiz-adv-x="244" d="M68 -119Q90 -93 101 -70T112 -16Q112 -10 108 -6T95 4Q80 12 72 22T64 51Q64 74 79 89T120 104Q152 104 169 83T186 24Q186 -15 159 -60T96 -138L68 -119Z" />
<glyph unicode="-" glyph-name="hyphen" horiz-adv-x="382" d="M42 305H340V249H42V305Z" />
<glyph unicode="." glyph-name="period" horiz-adv-x="244" d="M95 -10T79 6T62 49Q62 75 78 91T122 107Q149 107 165 91T181 49Q181 23 165 7T122 -10Q95 -10 79 6Z" />
<glyph unicode="/" glyph-name="slash" horiz-adv-x="368" d="M289 706H339L77 0H28L289 706Z" />
<glyph unicode="0" glyph-name="zero" horiz-adv-x="581" d="M159 -10T100 84T41 350Q41 710 290 710Q539 710 539 350Q539 -10 290 -10Q159 -10 100 84ZM371 30T406 113T441 350Q441 503 406 586T290 670Q209 670 174 587T139 350Q139 197 174 114T290 30Q371
30 406 113Z" />
<glyph unicode="1" glyph-name="one" horiz-adv-x="581" d="M148 26H189Q247 26 247 62V641L117 584V632L345 724V62Q345 43 359 35T403 26H443V0H148V26Z" />
<glyph unicode="2" glyph-name="two" horiz-adv-x="581" d="M44 53Q57 104 86 146T152 221T242 294Q296 336 332 370T393 447T418 538Q418 598 385 634T278 670Q220 670 187 644T154 572Q154 557 142 546T110 535Q89 535 76 546T63 578Q63 613 92 643T171 692T285
710Q386 710 448 666T511 529Q511 474 483 429T414 350T308 271Q234 220 189 177T128 80V64H435Q461 64 475 88T498 154H522L510 0H44V53Z" />
<glyph unicode="3" glyph-name="three" horiz-adv-x="581" d="M210 -10T160 7T82 54T53 119Q53 141 66 152T100 163Q120 163 131 153T143 128Q143 82 177 56T270 30Q340 30 381 75T423 199Q423 265 380 308T268 351H186V392H268Q317 392 349 415T397 474T413 545Q413
601 379 635T280 670Q222 670 189 644T156 572Q156 557 144 546T112 535Q92 535 79 546T65 580Q65 616 93 646T172 693T287 710Q380 710 442 667T505 535Q505 478 468 433T372 375V371Q431 358 475 315T519 201Q519 93 449 42T273 -10Q210 -10 160 7Z" />
<glyph unicode="4" glyph-name="four" horiz-adv-x="581" d="M252 26H293Q351 26 351 62V168H31V222L350 703H449V221H555L542 168H449V62Q449 26 508 26H547V0H252V26ZM351 221V628L85 221H351Z" />
<glyph unicode="5" glyph-name="five" horiz-adv-x="581" d="M206 -10T157 7T83 51T57 104Q57 128 68 140T96 152Q111 152 119 143T131 119Q139 73 174 52T263 30Q336 30 377 82T418 216Q418 293 383 345T275 397Q182 397 112 321L78 333L120 700H416Q432 700
442 708T457 737H483L475 638H159L131 386Q196 438 292 438Q408 438 461 375T515 216Q515 152 489 101T408 20T273 -10Q206 -10 157 7Z" />
<glyph unicode="6" glyph-name="six" horiz-adv-x="581" d="M50 -10T50 305Q50 503 117 606T309 710Q369 710 413 692T480 644T504 580Q504 558 493 547T461 535Q421 535 421 576Q421 621 392 645T307 670Q234 670 190 588T145 339Q167 392 216 418T319 445Q382
445 430 418T504 341T531 224Q531 115 470 53T291 -10Q50 -10 50 305ZM361 30T397 80T434 213Q434 298 399 351T296 405Q256 405 224 381T174 315T156 219Q156 140 192 85T293 30Q361 30 397 80Z" />
<glyph unicode="7" glyph-name="seven" horiz-adv-x="581" d="M189 -4T176 7T163 40Q163 187 239 347T433 638H131Q108 638 96 613T82 559H54V700H524V666Q404 523 338 362T265 48Q264 23 252 10T208 -4Q189 -4 176 7Z" />
<glyph unicode="8" glyph-name="eight" horiz-adv-x="581" d="M453 344T492 302T532 188Q532 98 469 44T287 -10Q171 -10 110 42T48 182Q48 246 84 294T180 370Q128 398 100 437T71 536Q71 618 130 664T291 710Q389 710 448 667T507 544Q507 488 473 443T383 374Q453
344 492 302ZM234 670T195 640T155 551Q155 507 179 479T237 434T334 393Q387 414 415 454T444 544Q444 605 403 637T298 670Q234 670 195 640ZM321 30T359 46T420 95T444 174Q444 214 422 241T367 285T277 326L228 347Q179 324 149 278T118 179Q118 131 140 97T199
47T278 30Q321 30 359 46Z" />
<glyph unicode="9" glyph-name="nine" horiz-adv-x="581" d="M210 -10T166 8T99 55T75 119Q75 141 87 152T118 164Q158 164 158 122Q158 78 187 54T272 30Q345 30 389 111T434 360Q412 307 360 279T254 250Q159 250 104 311T48 476Q48 583 109 646T288 710Q529
710 529 393Q529 195 462 93T270 -10Q210 -10 166 8ZM320 292T353 316T404 384T423 480Q423 559 387 614T286 669Q218 669 182 619T145 486Q145 400 179 346T280 292Q320 292 353 316Z" />
<glyph unicode=":" glyph-name="colon" horiz-adv-x="244" d="M95 383T79 399T62 442Q62 467 78 483T122 500Q149 500 165 484T181 442Q181 416 165 400T122 383Q95 383 79 399ZM95 -10T79 6T62 49Q62 75 78 91T122 107Q149 107 165 91T181 49Q181 23 165 7T122
-10Q95 -10 79 6Z" />
<glyph unicode=";" glyph-name="semicolon" horiz-adv-x="244" d="M95 383T79 399T62 442Q62 467 78 483T122 500Q149 500 165 484T181 442Q181 416 165 400T122 383Q95 383 79 399ZM68 -119Q90 -93 101 -70T112 -16Q111 -11 107 -7T100 -1T94 3Q80 12 72 21T64
51Q64 74 79 89T120 104Q152 104 169 83T186 24Q186 -15 159 -60T96 -138L68 -119Z" />
<glyph unicode="&lt;" glyph-name="less" horiz-adv-x="582" d="M46 315V347L528 593V534L135 331L528 127V69L46 315Z" />
<glyph unicode="=" glyph-name="equal" horiz-adv-x="582" d="M51 432H530V381H51V432ZM51 240H530V189H51V240Z" />
<glyph unicode="&gt;" glyph-name="greater" horiz-adv-x="582" d="M50 127L443 331L50 534V593L534 347V315L50 69V127Z" />
<glyph unicode="?" glyph-name="question" horiz-adv-x="467" d="M172 180T172 204Q172 246 185 280T218 340T268 399Q308 442 327 473T347 545Q347 670 223 670Q171 670 141 644T110 572Q110 556 100 546T70 535Q50 535 38 545T26 578Q26 613 51 643T123 691T229
710Q321 710 379 670T438 540Q438 503 424 474T389 422T333 369Q280 324 253 287T226 195Q226 180 229 165H176Q172 180 172 204ZM175 -10T160 4T145 44Q145 70 160 84T200 99Q226 99 240 85T255 44Q255 19 240 5T200 -10Q175 -10 160 4Z" />
<glyph unicode="@" glyph-name="at" horiz-adv-x="802" d="M276 -56T196 -12T75 109T34 287Q34 392 80 479T214 618T418 669Q517 669 595 630T717 517T761 348Q761 288 741 237T685 155T603 125Q569 125 541 146T508 204Q489 165 449 145T368 125Q296 125 255
167T214 284Q214 340 237 387T306 464T415 493Q452 493 490 485T560 459L540 226Q537 196 556 180T605 164Q634 164 659 187T699 253T714 349Q714 432 677 496T574 595T423 630Q321 630 245 587T128 466T87 291Q87 150 164 67T396 -16Q442 -16 496 -7T599 25V-19Q551
-37 496 -46T388 -56Q276 -56 196 -12ZM418 165T445 195T478 273L492 433Q458 448 417 448Q360 448 325 401T289 282Q289 226 311 196T378 165Q418 165 445 195Z" />
<glyph unicode="A" glyph-name="A" horiz-adv-x="733" d="M728 26V0H475V26H492Q514 26 526 34T539 56Q539 64 536 73L486 210H206L155 73Q153 69 153 61Q153 45 168 36T203 26H221V0H5V26H20Q40 26 61 36T88 62L325 684L398 714L648 61Q654 45 672 36T710 26H728ZM472
250L348 591L221 250H472Z" />
<glyph unicode="B" glyph-name="B" horiz-adv-x="609" d="M18 26H47Q76 26 90 34T105 62V637Q105 656 91 664T47 673H18V700H325Q431 700 485 658T539 534Q539 476 506 431T411 370V367Q505 353 542 304T580 189Q580 98 523 49T356 0H18V26ZM302 386Q366 386 404
426T442 531Q442 597 405 628T291 659H203V386H302ZM315 40Q400 40 442 79T485 193Q485 271 441 308T302 346H203V40H315Z" />
<glyph unicode="C" glyph-name="C" horiz-adv-x="671" d="M212 -10T127 84T42 350Q42 462 81 543T196 667T378 710Q489 710 572 650Q573 650 576 648T581 646Q590 646 590 661V705H626V513H597Q589 587 533 627T397 668Q274 668 208 582T141 350Q141 201 202 116T386
31Q456 31 516 65T601 171H640Q622 87 550 39T371 -10Q212 -10 127 84Z" />
<glyph unicode="D" glyph-name="D" horiz-adv-x="689" d="M17 26H47Q105 26 105 62V637Q105 673 47 673H17V700H333Q490 700 569 611T648 350Q648 177 569 89T332 0H17V26ZM330 39Q438 39 493 120T549 350Q549 498 495 579T332 660H203V39H330Z" />
<glyph unicode="E" glyph-name="E" horiz-adv-x="607" d="M571 179L554 0H16V26H44Q103 26 103 62V637Q103 673 44 673H16V700H555V527H528Q524 579 507 619T441 659H201V388H379Q409 388 418 411T431 485H455V251H431Q427 301 418 324T379 348H201V40H456Q499
40 518 81T544 179H571Z" />
<glyph unicode="F" glyph-name="F" horiz-adv-x="580" d="M555 700V527H528Q524 578 507 618T442 659H201V360H364Q394 360 403 384T417 457H441V223H417Q413 272 404 296T364 320H201V62Q201 26 260 26H288V0H16V26H45Q103 26 103 62V637Q103 673 45 673H16V700H555Z" />
<glyph unicode="G" glyph-name="G" horiz-adv-x="713" d="M212 -10T127 84T42 350Q42 462 82 543T198 667T380 710Q435 710 488 693T573 651Q581 646 584 646Q590 646 592 649T594 661V705H630V513H601Q592 587 536 627T398 668Q276 668 209 582T141 350Q141 201
202 116T386 31Q429 31 474 41T550 78V277Q550 304 532 315T474 327H456V350H705V330H693Q663 330 654 314T644 249V69Q590 29 527 10T371 -10Q212 -10 127 84Z" />
<glyph unicode="H" glyph-name="H" horiz-adv-x="773" d="M664 673T664 637V62Q664 26 722 26H751V0H479V26H507Q566 26 566 62V348H207V62Q207 26 265 26H295V0H22V26H51Q80 26 94 34T109 62V637Q109 656 95 664T51 673H22V700H295V673H265Q207 673 207 637V389H566V637Q566
673 507 673H479V700H751V673H722Q664 673 664 637Z" />
<glyph unicode="I" glyph-name="I" horiz-adv-x="324" d="M26 26H55Q113 26 113 62V637Q113 673 55 673H26V700H298V673H270Q211 673 211 637V62Q211 26 270 26H298V0H26V26Z" />
<glyph unicode="J" glyph-name="J" horiz-adv-x="370" d="M34 -93Q96 -80 127 -33T158 90V637Q158 656 144 664T100 673H71V700H344V673H314Q256 673 256 637V89Q256 -9 197 -61T38 -114L34 -93Z" />
<glyph unicode="K" glyph-name="K" horiz-adv-x="701" d="M685 26V0H525L208 324H207V62Q207 26 265 26H295V0H22V26H51Q80 26 94 34T109 62V637Q109 656 95 664T51 673H22V700H295V673H265Q207 673 207 637V386L496 640Q503 647 503 654Q503 673 465 673H450V700H650V673H630Q611
673 598 667T572 649L272 381L574 72Q597 49 614 38T656 26H685Z" />
<glyph unicode="L" glyph-name="L" horiz-adv-x="597" d="M24 26H53Q112 26 112 62V637Q112 673 53 673H24V700H297V673H268Q239 673 225 665T210 637V81Q210 40 270 40H459Q500 40 521 88T549 186H577L560 0H24V26Z" />
<glyph unicode="M" glyph-name="M" horiz-adv-x="903" d="M22 26H51Q80 26 94 34T109 62V637Q109 656 95 664T51 673H22V700H213L446 165L681 700H881V673H852Q823 673 809 665T794 637V62Q794 43 808 35T852 26H881V0H608V26H637Q696 26 696 62V614L455 76H397L159
612V62Q159 26 217 26H247V0H22V26Z" />
<glyph unicode="N" glyph-name="N" horiz-adv-x="755" d="M22 26H51Q80 26 94 34T109 62V637Q109 656 95 664T51 673H22V700H217L595 126V637Q595 656 581 664T537 673H508V700H733V673H703Q645 673 645 637V0H587L159 642V62Q159 26 217 26H247V0H22V26Z" />
<glyph unicode="O" glyph-name="O" horiz-adv-x="755" d="M212 -10T124 84T36 350Q36 520 124 615T378 710Q543 710 631 615T719 350Q719 179 632 85T378 -10Q212 -10 124 84ZM497 32T558 117T620 350Q620 498 559 583T377 668Q258 668 197 583T135 350Q135 202
196 117T377 32Q497 32 558 117Z" />
<glyph unicode="P" glyph-name="P" horiz-adv-x="599" d="M22 26H51Q80 26 94 34T109 62V637Q109 656 95 664T51 673H22V700H364Q580 700 580 487Q580 274 364 274H207V62Q207 26 265 26H295V0H22V26ZM346 314Q417 314 450 359T484 487Q484 659 346 659H207V314H346Z" />
<glyph unicode="Q" glyph-name="Q" horiz-adv-x="755" d="M682 -29Q683 -35 683 -47Q683 -80 666 -108T618 -152T552 -169Q512 -169 479 -154T398 -110Q362 -88 339 -77T293 -66Q245 -66 198 -95L190 -81Q246 -32 306 -5Q174 15 105 107T36 350Q36 520 124 615T378
710Q543 710 631 615T719 350Q719 179 632 85T378 -10Q362 -10 354 -9Q328 -23 313 -35H325Q354 -35 381 -43T452 -70Q492 -87 519 -96T576 -105Q610 -105 631 -87T663 -29H682ZM135 202T196 117T377 32Q497 32 558 117T620 350Q620 498 559 583T377 668Q258 668
197 583T135 350Q135 202 196 117Z" />
<glyph unicode="R" glyph-name="R" horiz-adv-x="667" d="M531 126T543 97T577 48T633 26V0H553Q505 0 478 25T435 102L421 156Q409 208 398 239T364 290H360H207V62Q207 26 265 26H295V0H22V26H51Q80 26 94 34T109 62V637Q109 656 95 664T51 673H22V700H360Q476
700 527 647T578 495Q578 333 445 300Q474 283 488 255T517 175Q531 126 543 97ZM341 331Q482 331 482 495Q482 576 448 617T341 659H207V331H341Z" />
<glyph unicode="S" glyph-name="S" horiz-adv-x="582" d="M242 -10T199 6T114 46Q90 60 84 60Q80 60 78 56T75 43V0H39V190H68Q74 143 104 107T179 51T272 31Q349 31 396 67T443 170Q443 211 419 240T359 289T262 336Q193 365 152 389T81 450T52 543Q52 624 115
667T283 710Q333 710 369 697T447 663Q464 652 470 652Q476 652 476 661V706H513V515H484Q476 587 426 627T304 668Q232 668 192 638T151 555Q151 519 173 493T229 450T320 409Q391 380 435 355T511 288T542 184Q542 92 474 41T299 -10Q242 -10 199 6Z" />
<glyph unicode="T" glyph-name="T" horiz-adv-x="652" d="M190 26H218Q277 26 277 62V659H138Q98 659 82 609T65 508H38V700H614V508H587Q584 561 569 610T514 659H375V62Q375 26 433 26H462V0H190V26Z" />
<glyph unicode="U" glyph-name="U" horiz-adv-x="742" d="M243 -10T174 40T105 204V637Q105 655 90 664T51 673H28V700H280V673H257Q233 673 218 664T203 637V197Q203 104 254 68T397 31Q478 31 532 68T586 197V637Q586 655 572 664T532 673H510V700H713V673H690Q666
673 651 664T636 637V204Q636 93 569 42T375 -10Q243 -10 174 40Z" />
<glyph unicode="V" glyph-name="V" horiz-adv-x="724" d="M89 638Q83 654 69 663T37 673H10V700H262V673H232Q215 673 204 666T193 647Q193 643 195 637L379 105L565 634Q567 642 567 645Q567 658 557 665T531 673H497V700H714V673H682Q664 673 650 663T630 636L398
-4H325L89 638Z" />
<glyph unicode="W" glyph-name="W" horiz-adv-x="1011" d="M1001 700V673H973Q954 673 938 664T917 637L734 -4H673L515 477L347 -4H275L89 638Q84 654 68 663T33 673H10V700H262V673H239Q215 673 203 663T195 636L329 108L487 563L462 638Q456 654 438 663T401
673H383V700H624V673H600Q580 673 566 663T556 639L717 108L853 636Q854 639 854 644Q854 658 842 665T813 673H784V700H1001Z" />
<glyph unicode="X" glyph-name="X" horiz-adv-x="707" d="M697 27V0H445V27H475Q491 27 503 34T516 52Q516 58 512 63L340 308L159 66Q154 61 154 53Q154 42 166 35T193 27H227V0H10V27H42Q57 27 66 34T83 51T94 64L309 352L108 638Q84 673 56 673H29V700H281V673H251Q235
673 223 666T210 648Q210 642 214 637L363 425L519 634Q524 640 524 647Q524 658 512 665T485 673H451V700H668V673H636Q621 673 612 666T595 649T584 636L394 381L618 62Q642 27 670 27H697Z" />
<glyph unicode="Y" glyph-name="Y" horiz-adv-x="689" d="M201 26H229Q288 26 288 62V292L89 638Q80 654 66 663T34 673H10V700H256V673H230Q213 673 200 665T187 646Q187 640 189 637L354 338L531 634Q534 640 534 645Q534 658 520 665T490 673H463V700H679V673H657Q639
673 622 663T596 637L386 291V62Q386 26 444 26H473V0H201V26Z" />
<glyph unicode="Z" glyph-name="Z" horiz-adv-x="571" d="M23 25L432 659H174Q125 659 108 619T87 527H61V700H538V680L129 40H421Q493 40 511 178H537L520 0H23V25Z" />
<glyph unicode="[" glyph-name="bracketleft" horiz-adv-x="294" d="M52 702H255V663H127V-84H255V-124H52V702Z" />
<glyph unicode="\" glyph-name="backslash" horiz-adv-x="368" d="M27 706H76L338 0H289L27 706Z" />
<glyph unicode="]" glyph-name="bracketright" horiz-adv-x="294" d="M37 -84H165V663H37V702H240V-124H37V-84Z" />
<glyph unicode="^" glyph-name="asciicircum" horiz-adv-x="553" d="M239 720H313L510 311H440L276 673L112 311H42L239 720Z" />
<glyph unicode="_" glyph-name="underscore" horiz-adv-x="456" d="M-4 -73H460V-114H-4V-73Z" />
<glyph unicode="`" glyph-name="grave" horiz-adv-x="492" d="M182 663Q149 682 149 706Q149 718 157 726T180 735Q194 735 207 727T228 711L342 605L324 580L182 663Z" />
<glyph unicode="a" glyph-name="a" horiz-adv-x="506" d="M98 -10T64 18T29 96Q29 169 105 216T341 285V337Q341 388 309 414T224 440Q186 440 154 425T122 393Q122 387 124 378T126 364Q126 349 117 338T88 327Q71 327 60 339T48 375Q48 425 105 452T244 480Q336
480 386 440T436 329V58Q436 26 458 26Q472 26 494 34V17Q479 4 456 -3T409 -10Q382 -10 362 1T342 37V67Q302 23 254 7T159 -10Q98 -10 64 18ZM242 30T282 54T341 109V252Q235 231 179 192T122 103Q122 67 144 49T205 30Q242 30 282 54Z" />
<glyph unicode="b" glyph-name="b" horiz-adv-x="583" d="M260 -10T216 11T151 69L125 0H80V636Q80 657 60 657Q50 657 30 649L23 672L149 717H174V399Q198 439 243 459T334 480Q433 480 491 419T549 242Q549 107 491 49T324 -10Q260 -10 216 11ZM388 28T422 84T456
237Q456 440 306 440Q275 440 244 423T194 376T174 306V173Q174 136 190 103T238 49T311 28Q388 28 422 84Z" />
<glyph unicode="c" glyph-name="c" horiz-adv-x="509" d="M155 -10T92 53T28 235Q28 349 92 414T272 480Q320 480 364 466T436 418L446 480H471V314H447Q437 378 398 410T298 442Q214 442 169 385T123 234Q123 140 166 83T282 26Q348 26 390 60T444 167H474Q466
87 415 39T270 -10Q155 -10 92 53Z" />
<glyph unicode="d" glyph-name="d" horiz-adv-x="585" d="M144 -10T88 51T31 245Q31 321 58 374T133 453T242 480Q353 480 405 410V636Q405 657 385 657Q375 657 355 649L349 672L474 717H499V69Q499 51 509 43T541 34H564V11L422 -4L417 74Q367 -10 243 -10Q144
-10 88 51ZM311 28T342 47T389 99T406 168V320Q406 354 387 381T337 424T275 440Q201 440 163 390T124 242Q124 28 269 28Q311 28 342 47Z" />
<glyph unicode="e" glyph-name="e" horiz-adv-x="514" d="M124 258Q123 250 123 234Q123 140 167 83T285 26Q351 26 394 60T450 167H479Q471 87 419 39T273 -10Q157 -10 93 53T28 235Q28 349 92 414T270 480Q374 480 428 425T483 281V258H124ZM214 442T177 403T128
297H400Q398 353 368 397T273 442Q214 442 177 403Z" />
<glyph unicode="f" glyph-name="f" horiz-adv-x="400" d="M342 722T379 695T416 621Q416 598 405 588T376 577Q358 577 348 585T338 609Q338 617 343 627T349 642Q349 661 329 672T283 684Q205 684 205 584V470H348V431H205V57Q205 41 219 33T258 25H278V0H39V25H58Q82
25 97 33T112 57V431H22V470H112V576Q112 647 153 684T269 722Q342 722 379 695Z" />
<glyph unicode="g" glyph-name="g" horiz-adv-x="506" d="M493 480T510 468T528 439Q528 423 520 414T495 405Q484 405 479 409T468 421Q462 430 456 434T436 439Q421 439 397 426Q438 387 438 322Q438 247 384 206T234 165Q172 165 127 183Q97 161 97 137Q97
118 115 106T166 94H327Q388 94 428 68T469 -12Q469 -82 405 -119T230 -156Q136 -156 82 -126T27 -38Q27 21 102 49Q69 58 54 77T38 119Q38 162 95 199Q65 220 49 251T32 322Q32 396 86 438T234 480Q321 480 373 445Q414 480 465 480Q493 480 510 468ZM289 202T317
235T345 322Q345 375 317 408T234 442Q180 442 153 409T125 322Q125 269 152 236T234 202Q289 202 317 235ZM120 23T108 2T95 -39Q95 -79 133 -99T234 -120Q305 -120 346 -96T387 -28Q387 4 366 19T294 34H149Q120 23 108 2Z" />
<glyph unicode="h" glyph-name="h" horiz-adv-x="622" d="M600 25V0H367V25H383Q406 25 420 33T434 57V332Q434 385 407 412T330 439Q295 439 263 422T209 369T188 285V57Q188 41 202 33T240 25H255V0H22V25H41Q65 25 79 33T94 57V636Q94 657 73 657Q64 657 44
649L37 672L163 717H188V395Q210 431 255 455T357 480Q440 480 484 443T528 344V57Q528 41 543 33T582 25H600Z" />
<glyph unicode="i" glyph-name="i" horiz-adv-x="293" d="M112 561T97 576T81 616Q81 641 96 656T138 671Q163 671 178 656T194 616Q194 592 179 577T138 561Q112 561 97 576ZM27 25H46Q70 25 84 33T99 57V394Q99 416 78 416Q73 416 63 413T49 408L42 431L168
475H193V57Q193 41 207 33T246 25H265V0H27V25Z" />
<glyph unicode="j" glyph-name="j" horiz-adv-x="297" d="M139 561T124 576T108 616Q108 641 123 656T164 671Q190 671 205 656T221 616Q221 592 205 577T164 561Q139 561 124 576ZM25 -110Q69 -92 90 -64T116 1T122 97V393Q122 404 116 409T101 414Q93 414 71
406L64 428L190 473H215V102Q215 1 173 -56T30 -132L25 -110Z" />
<glyph unicode="k" glyph-name="k" horiz-adv-x="591" d="M577 25V0H421L196 207L187 200V57Q187 41 202 33T240 25H257V0H21V25H40Q64 25 79 33T94 57V636Q94 657 73 657Q65 657 43 649L36 672L162 717H187V251L380 411Q391 419 391 428Q391 436 384 440T364
444H332V470H528V444H506Q493 444 476 437T446 417L256 258L475 55Q490 41 511 33T550 25H577Z" />
<glyph unicode="l" glyph-name="l" horiz-adv-x="302" d="M33 25H51Q76 25 90 33T105 57V636Q105 657 84 657Q75 657 55 649L48 672L174 717H199V57Q199 41 213 33T252 25H269V0H33V25Z" />
<glyph unicode="m" glyph-name="m" horiz-adv-x="897" d="M875 25V0H639V25H657Q681 25 696 33T711 57V332Q711 385 686 412T620 439Q566 439 530 399T494 285V57Q494 41 509 33T548 25H557V0H339V25H350Q375 25 389 33T404 57V332Q404 385 380 412T313 439Q259
439 224 399T188 285V57Q188 41 203 33T242 25H259V0H22V25H41Q65 25 79 33T94 57V393Q94 414 74 414Q64 414 44 406L38 428L163 473H188V397Q207 432 247 456T340 480Q402 480 439 455T489 387Q505 424 547 452T647 480Q724 480 764 443T805 344V57Q805 41 819
33T858 25H875Z" />
<glyph unicode="n" glyph-name="n" horiz-adv-x="623" d="M600 25V0H367V25H383Q406 25 420 33T434 57V332Q434 385 407 412T330 439Q295 439 263 422T209 369T188 285V57Q188 41 202 33T240 25H255V0H22V25H41Q65 25 79 33T94 57V393Q94 414 73 414Q64 414 44
406L37 428L163 473H188V395Q210 431 255 455T357 480Q440 480 484 443T528 344V57Q528 41 543 33T582 25H600Z" />
<glyph unicode="o" glyph-name="o" horiz-adv-x="563" d="M161 -10T95 54T28 235Q28 352 95 416T282 480Q402 480 468 416T535 235Q535 118 469 54T282 -10Q161 -10 95 54ZM356 28T399 82T442 235Q442 333 399 386T282 440Q207 440 164 387T121 235Q121 136 164
82T282 28Q356 28 399 82Z" />
<glyph unicode="p" glyph-name="p" horiz-adv-x="593" d="M23 -200H42Q66 -200 81 -192T96 -168V393Q96 404 90 409T75 414Q67 414 45 406L38 428L164 473H189V396Q218 441 262 460T355 480Q453 480 509 420T565 247Q565 112 506 51T332 -10Q285 -10 245 10T189
59V-167Q189 -183 204 -191T242 -200H259V-225H23V-200ZM403 28T437 85T472 242Q472 341 436 390T324 440Q295 440 264 423T211 374T189 301V161Q189 105 225 67T326 28Q403 28 437 85Z" />
<glyph unicode="q" glyph-name="q" horiz-adv-x="594" d="M406 56Q358 -10 243 -10Q31 -10 31 247Q31 360 89 420T241 480Q300 480 345 461T414 404L436 473H500V-160Q500 -181 521 -181Q530 -181 550 -173L557 -195L431 -240H406V56ZM332 28T369 68T406 164V308Q406
350 385 380T332 425T268 440Q202 440 163 390T124 242Q124 144 159 86T269 28Q332 28 369 68Z" />
<glyph unicode="r" glyph-name="r" horiz-adv-x="404" d="M356 480T376 470T397 437Q397 418 388 408T361 398Q350 398 344 402T332 413Q325 420 319 423T302 427Q276 427 253 408T214 353T197 270V57Q197 41 212 33T251 25H268V0H31V25H50Q74 25 88 33T103 57V393Q103
414 83 414Q73 414 53 406L47 428L175 473H197V381Q211 424 247 452T327 480Q356 480 376 470Z" />
<glyph unicode="s" glyph-name="s" horiz-adv-x="456" d="M123 -10T76 53L65 -8H40V141H65Q76 89 114 59T209 28Q267 28 298 49T330 110Q330 141 302 158T216 196Q162 216 129 233T71 281T47 359Q47 417 92 448T218 480Q263 480 306 465T372 421L383 480H408V335H383Q371
382 336 411T245 440Q197 440 168 421T139 369Q139 333 169 313T262 272Q315 253 347 238T401 194T424 121Q424 55 372 23T236 -10Q123 -10 76 53Z" />
<glyph unicode="t" glyph-name="t" horiz-adv-x="397" d="M378 91Q373 39 337 15T247 -10Q172 -10 133 21T94 124V431H16V470H94V556L164 603H188V470H329V431H188V126Q188 75 206 51T264 26Q295 26 317 41T344 91H378Z" />
<glyph unicode="u" glyph-name="u" horiz-adv-x="604" d="M550 26T572 34V17Q541 -10 487 -10Q457 -10 439 6T420 55V75Q398 39 353 15T250 -10Q167 -10 123 26T79 125V393Q79 404 73 409T59 414Q49 414 29 406L22 428L147 473H173V137Q173 84 200 57T277 30Q312
30 345 47T399 100T420 184V393Q420 404 414 409T399 414Q391 414 369 406L362 428L491 473H513V58Q513 26 536 26Q550 26 572 34Z" />
<glyph unicode="v" glyph-name="v" horiz-adv-x="545" d="M85 397Q75 425 64 434T29 444H13V470H223V444H207Q168 444 168 424Q168 422 170 414L287 82L404 411Q406 419 406 421Q406 444 365 444H350V470H531V444H508Q473 444 463 417L309 0H233L85 397Z" />
<glyph unicode="w" glyph-name="w" horiz-adv-x="758" d="M743 470V444H730Q713 444 698 438T678 417L558 0H485L378 386L261 0H188L81 383Q79 389 74 408T58 435T26 444H14V470H212V444H197Q150 444 157 414L241 82L355 470H424L537 78L623 411Q624 414 624 420Q624
433 613 438T586 444H571V470H743Z" />
<glyph unicode="x" glyph-name="x" horiz-adv-x="549" d="M536 25V0H329V25H344Q359 25 372 30T386 45Q386 49 381 56L265 200L144 60Q138 53 138 46Q138 37 149 31T174 25H190V0H12V25H25Q40 25 56 31T83 51L240 231L90 418Q70 444 43 444H27V470H230V444H216Q202
444 192 440T181 426Q181 420 186 414L288 287L396 411Q402 419 402 423Q402 433 390 438T363 444H349V470H519V444H507Q492 444 478 437T453 417L313 255L477 51Q497 25 527 25H536Z" />
<glyph unicode="y" glyph-name="y" horiz-adv-x="560" d="M547 470V444H533Q511 444 497 435T474 402L277 -93Q237 -193 138 -193Q96 -193 71 -177T45 -140Q45 -127 52 -118T74 -108Q95 -108 103 -129Q112 -151 137 -151Q174 -151 195 -131T233 -70L261 2L77 418Q66
444 29 444H13V470H223V444H207Q185 444 174 437T168 417L296 95L419 415Q424 429 412 436T381 444H365V470H547Z" />
<glyph unicode="z" glyph-name="z" horiz-adv-x="450" d="M19 22L332 431H115Q99 431 90 404T77 346H53V470H429V440L120 37H343Q366 37 379 65T397 123H420L410 0H19V22Z" />
<glyph unicode="{" glyph-name="braceleft" horiz-adv-x="361" d="M246 -133T206 -119T149 -73T132 15V186Q132 285 19 298V326Q81 335 106 361T132 438V601Q132 659 147 692T203 740T318 755V728Q256 722 230 695T203 601V451Q203 388 175 355T78 312V310Q141
303 172 271T203 179V22Q203 -25 215 -51T251 -89T319 -107V-133Q246 -133 206 -119Z" />
<glyph unicode="|" glyph-name="bar" horiz-adv-x="440" d="M180 753H260V-193H180V753Z" />
<glyph unicode="}" glyph-name="braceright" horiz-adv-x="361" d="M41 -107Q103 -100 130 -76T158 10V189Q158 298 283 310V312Q217 319 188 351T158 440V612Q158 673 130 697T43 728V755Q118 755 158 740T213 692T229 601V438Q229 387 254 361T342 326V298Q229
286 229 186V15Q229 -41 212 -72T155 -118T41 -133V-107Z" />
<glyph unicode="~" glyph-name="asciitilde" horiz-adv-x="583" d="M384 254T352 263T275 291Q240 306 215 313T167 321Q109 321 73 280L53 315Q71 339 101 354T168 369Q194 369 219 362T290 336Q331 319 360 310T418 301Q476 301 511 343L531 308Q513 284 484
269T419 254Q384 254 352 263Z" />
<glyph unicode="&#xa0;" glyph-name="uni00A0" horiz-adv-x="258" />
<glyph unicode="&#xa1;" glyph-name="exclamdown" horiz-adv-x="288" d="M118 370T103 385T88 425Q88 450 103 465T143 480Q168 480 183 465T198 425Q198 400 183 385T143 370Q118 370 103 385ZM112 -239T102 -224T91 -176L92 -159L121 335H165L195 -159L196 -176Q196
-207 185 -223T143 -239Q112 -239 102 -224Z" />
<glyph unicode="&#xa2;" glyph-name="cent" horiz-adv-x="509" d="M465 94T422 47T301 -8V-88H259V-10Q148 -7 87 56T26 235Q26 345 87 410T259 480V561H301V479Q392 469 434 418L445 480H470V314H445Q435 378 396 410T296 442Q212 442 167 385T122 234Q122 140
165 83T280 26Q346 26 388 60T443 167H472Q465 94 422 47Z" />
<glyph unicode="&#xa3;" glyph-name="sterling" horiz-adv-x="578" d="M29 38H102Q120 56 126 79T133 132V337H35V374H133V495Q133 598 180 652T335 707Q391 707 430 693T493 654Q498 648 504 648Q511 648 511 663V704H548V520H519Q511 592 470 629T362 666Q295
666 261 630T226 514V374H437V337H226V140Q226 78 186 39H406Q440 39 457 49T484 82T501 147H527L513 0H29V38Z" />
<glyph unicode="&#xa4;" glyph-name="currency" horiz-adv-x="583" d="M75 111L140 175Q98 230 98 295Q98 360 139 414L74 478L107 512L173 447Q223 488 291 488Q360 488 410 446L476 512L508 478L442 414Q484 361 484 295Q484 228 442 175L506 112L474 79L409
143Q360 102 291 102Q224 102 173 142L108 79L75 111ZM331 146T365 165T419 219T439 294Q439 336 419 370T365 425T291 445Q251 445 218 425T165 371T145 294Q145 253 164 219T217 166T291 146Q331 146 365 165Z" />
<glyph unicode="&#xa5;" glyph-name="yen" horiz-adv-x="689" d="M679 700V673H657Q639 673 622 663T596 637L453 402H598V364H430L386 291V195H598V158H386V62Q386 26 444 26H473V0H201V26H229Q288 26 288 62V158H95V195H288V292L247 364H95V402H225L89 638Q80
654 66 663T34 673H10V700H256V673H230Q213 673 200 665T187 646Q187 640 189 637L319 402H392L531 634Q534 640 534 645Q534 658 520 665T490 673H463V700H679ZM370 364H340L354 338L370 364Z" />
<glyph unicode="&#xa6;" glyph-name="brokenbar" horiz-adv-x="440" d="M180 753H260V339H180V753ZM180 240H260V-193H180V240Z" />
<glyph unicode="&#xa7;" glyph-name="section" horiz-adv-x="582" d="M542 39T542 -45Q542 -137 474 -188T299 -240Q239 -240 191 -222T114 -186T83 -169Q80 -169 78 -174T75 -187V-230H39V-38H68Q74 -85 104 -121T179 -178T272 -198Q349 -198 396 -162T443 -60Q443
-18 419 12T358 62T260 108Q192 138 151 161T81 222T52 314Q52 361 74 395T138 451Q97 478 75 513T52 596Q52 677 115 719T283 762Q333 762 372 748T448 714Q463 705 467 705Q476 705 476 718V758H512V568H483Q475 640 425 680T303 721Q231 721 191 691T150 608Q150
570 173 543T230 497T324 454Q394 425 437 401T510 337T541 237Q541 146 473 95Q542 39 542 -45ZM151 289T174 262T231 217T323 174Q332 170 360 158T411 134Q443 168 443 222Q443 264 419 293T359 342T261 389Q235 400 202 415Q151 387 151 326Q151 289 174 262Z"
/>
<glyph unicode="&#xa8;" glyph-name="dieresis" horiz-adv-x="492" d="M117 579T104 592T91 626Q91 647 104 660T137 674Q159 674 172 661T185 626Q185 605 172 592T137 579Q117 579 104 592ZM333 579T320 592T307 626Q307 647 320 660T354 674Q375 674 388 661T401
626Q401 605 388 592T354 579Q333 579 320 592Z" />
<glyph unicode="&#xa9;" glyph-name="copyright" horiz-adv-x="819" d="M306 -10T223 37T93 167T46 356Q46 461 93 544T223 675T410 722Q513 722 595 675T725 545T772 356Q772 251 725 168T596 37T410 -10Q306 -10 223 37ZM501 31T573 73T685 190T726 356Q726
448 686 521T573 637T410 680Q319 680 247 638T133 522T92 356Q92 264 133 190T246 74T410 31Q501 31 573 73ZM316 129T262 187T208 353Q208 455 261 515T412 576Q455 576 490 564T542 534L548 574H573V445H549Q538 540 433 540Q359 540 322 488T284 352Q284 270
318 218T429 165Q477 165 512 189T558 263H584Q576 203 532 166T416 129Q316 129 262 187Z" />
<glyph unicode="&#xaa;" glyph-name="ordfeminine" horiz-adv-x="413" d="M22 341T22 425Q22 476 77 513T261 558V607Q261 644 239 658T176 673Q151 673 126 664T101 643Q101 637 102 632T103 618Q103 607 94 601T70 594Q55 594 47 603T39 628Q39 665 81 686T189
708Q345 708 345 601V405Q345 389 350 382T365 375Q375 375 398 382V367Q384 354 364 348T323 341Q299 341 283 351T267 382V398Q248 370 210 356T136 341Q22 341 22 425ZM189 380T217 394T261 434V526Q104 518 104 435Q104 410 119 395T159 380Q189 380 217 394Z"
/>
<glyph unicode="&#xab;" glyph-name="guillemotleft" horiz-adv-x="493" d="M37 254V271L228 486L251 454L124 262L251 70L228 39L37 254ZM233 254V271L424 486L447 454L320 262L447 70L424 39L233 254Z" />
<glyph unicode="&#xac;" glyph-name="logicalnot" horiz-adv-x="481" d="M382 333H39V371H430V180H382V333Z" />
<glyph unicode="&#xad;" glyph-name="uni00AD" horiz-adv-x="382" d="M41 305H341V249H41V305Z" />
<glyph unicode="&#xae;" glyph-name="registered" horiz-adv-x="819" d="M513 722T595 675T725 545T772 356Q772 251 725 168T596 37T410 -10Q306 -10 223 37T93 167T46 356Q46 461 93 544T223 675T410 722Q513 722 595 675ZM501 31T573 73T685 190T726 356Q726
448 686 521T573 637T410 680Q319 680 247 638T133 522T92 356Q92 264 133 190T246 74T410 31Q501 31 573 73ZM567 161T606 159V138H508L409 324H352V189Q352 172 359 166T389 159H409V138H228V159H248Q270 159 278 166T286 189V521Q286 549 254 549H234V571H441Q579
571 579 450Q579 398 553 366T476 326L555 182Q567 161 606 159ZM352 356H425Q471 356 492 379T513 450Q513 496 492 518T425 540H352V356Z" />
<glyph unicode="&#xaf;" glyph-name="overscore" horiz-adv-x="492" d="M53 770H439V724H53V770Z" />
<glyph unicode="&#xb0;" glyph-name="degree" horiz-adv-x="318" d="M101 460T64 497T27 591Q27 647 64 683T159 720Q218 720 254 684T291 591Q291 535 254 498T159 460Q101 460 64 497ZM197 500T221 526T246 591Q246 629 222 655T159 682Q121 682 96 655T71 591Q71
553 96 527T159 500Q197 500 221 526Z" />
<glyph unicode="&#xb1;" glyph-name="plusminus" horiz-adv-x="582" d="M246 331H56V382H246V572H340V382H529V331H340V141H246V331ZM51 58H530V7H51V58Z" />
<glyph unicode="&#xb2;" glyph-name="uni00B2" horiz-adv-x="387" d="M39 311Q51 352 77 381T152 450Q187 478 206 497T239 541T253 596Q253 630 233 650T177 671Q136 671 122 654T101 607Q98 593 91 585T68 577Q38 577 38 610Q38 653 80 680T187 708Q253 708
295 679T338 590Q338 545 310 513T227 440Q183 406 159 383T123 329H291Q317 329 325 382H343L335 275H39V311Z" />
<glyph unicode="&#xb3;" glyph-name="uni00B3" horiz-adv-x="387" d="M113 268T75 293T36 361Q36 395 67 395Q83 395 91 387T99 367Q99 307 172 307Q216 307 238 329T261 394Q261 428 238 453T176 478H123V516H174Q214 516 233 541T253 599Q253 633 235 652T181
671Q140 671 122 655T104 607Q104 595 96 587T72 578Q57 578 49 587T41 613Q41 656 80 682T184 708Q248 708 291 681T334 599Q334 565 316 537T266 497Q301 488 322 462T343 395Q343 331 297 300T181 268Q113 268 75 293Z" />
<glyph unicode="&#xb4;" glyph-name="acute" horiz-adv-x="492" d="M161 605L275 711Q283 719 296 727T323 735Q338 735 346 726T354 705Q354 682 321 663L179 580L161 605Z" />
<glyph unicode="&#xb6;" glyph-name="paragraph" horiz-adv-x="498" d="M152 25H171Q221 25 221 57V310Q132 314 83 368T34 513Q34 700 232 700H464V674H445Q422 674 409 666T395 642V57Q395 25 445 25H464V0H338V663H278V0H152V25ZM221 663Q151 662 116 624T80
514Q80 434 120 393T221 349V663Z" />
<glyph unicode="&#xb7;" glyph-name="middot" horiz-adv-x="281" d="M109 279T91 298T73 350Q73 383 91 402T140 421Q172 421 190 401T208 350Q208 319 190 299T140 279Q109 279 91 298Z" />
<glyph unicode="&#xb8;" glyph-name="cedilla" horiz-adv-x="492" d="M192 -214T165 -209L171 -180Q180 -182 202 -182Q290 -182 290 -128Q290 -105 264 -97T207 -88L195 -72L244 13H287L251 -55Q291 -55 322 -71T353 -126Q353 -174 313 -194T214 -214Q192 -214
165 -209Z" />
<glyph unicode="&#xb9;" glyph-name="uni00B9" horiz-adv-x="387" d="M61 301H100Q155 301 155 335V644L75 612V650L245 712V335Q245 301 301 301H339V275H61V301Z" />
<glyph unicode="&#xba;" glyph-name="ordmasculine" horiz-adv-x="364" d="M102 341T59 390T15 524Q15 610 58 659T181 708Q261 708 305 659T349 524Q349 439 305 390T181 341Q102 341 59 390ZM224 387T248 424T273 524Q273 587 249 624T182 662Q140 662 115 625T90
524Q90 461 115 424T182 387Q224 387 248 424Z" />
<glyph unicode="&#xbb;" glyph-name="guillemotright" horiz-adv-x="493" d="M45 70L173 262L45 454L67 486L259 271V254L67 39L45 70ZM241 70L369 262L241 454L263 486L455 271V254L263 39L241 70Z" />
<glyph unicode="&#xbc;" glyph-name="onequarter" horiz-adv-x="896" d="M53 301H91Q147 301 147 335V644L66 612V650L236 712V335Q236 301 292 301H330V275H53V301ZM657 706H703L274 0H228L657 706ZM491 132L682 428H774V142H842L837 104H774V60Q774 42 788 34T831
26H861V0H599V26H629Q685 26 685 60V104H491V132ZM685 142V362L542 142H685Z" />
<glyph unicode="&#xbd;" glyph-name="onehalf" horiz-adv-x="896" d="M53 301H91Q147 301 147 335V644L66 612V650L236 712V335Q236 301 292 301H330V275H53V301ZM650 706H696L266 0H221L650 706ZM554 36Q566 77 592 106T667 175Q702 203 721 222T754 266T768
321Q768 355 748 375T692 396Q651 396 637 379T616 332Q613 318 606 310T583 302Q553 302 553 335Q553 378 595 405T702 433Q768 433 810 404T853 315Q853 270 825 238T742 165Q698 131 674 108T638 54H806Q832 54 840 107H858L850 0H554V36Z" />
<glyph unicode="&#xbe;" glyph-name="threequarters" horiz-adv-x="896" d="M43 377T51 386T73 395Q89 395 97 387T106 367Q106 307 179 307Q222 307 244 329T267 394Q267 429 244 453T182 478H129V516H181Q221 516 241 541T261 599Q261 632 242 651T188 671Q147
671 129 655T111 607Q111 595 103 587T79 578Q64 578 56 587T48 613Q48 655 89 681T194 708Q258 708 299 681T340 599Q340 565 322 537T273 497Q308 488 329 462T350 395Q350 330 305 299T191 268Q123 268 83 293T43 361Q43 377 51 386ZM650 706H696L266 0H221L650
706ZM485 132L677 428H769V142H837L831 104H769V60Q769 26 825 26H855V0H594V26H624Q680 26 680 60V104H485V132ZM680 142V362L537 142H680Z" />
<glyph unicode="&#xbf;" glyph-name="questiondown" horiz-adv-x="467" d="M242 370T227 385T212 425Q212 450 227 465T267 480Q292 480 307 465T322 425Q322 400 307 385T267 370Q242 370 227 385ZM145 -240T88 -201T31 -73Q31 -21 57 15T134 96Q169 127 190
150T226 204T241 274Q241 283 238 305H291Q296 285 296 266Q296 221 282 185T248 122T195 59Q156 16 138 -12T120 -76Q120 -134 149 -167T244 -200Q296 -200 326 -173T357 -102Q357 -87 367 -77T397 -66Q440 -66 440 -109Q440 -143 415 -173T344 -222T237 -240Q145
-240 88 -201Z" />
<glyph unicode="&#xc0;" glyph-name="Agrave" horiz-adv-x="733" d="M272 883T272 908Q272 920 280 928T304 937Q325 937 349 913L464 807L446 782L303 865Q272 883 272 908ZM728 26V0H475V26H492Q514 26 526 34T539 56Q539 64 536 73L486 210H206L155 73Q153
69 153 61Q153 45 168 36T203 26H221V0H5V26H20Q40 26 61 36T88 62L325 684L398 714L648 61Q654 45 672 36T710 26H728ZM472 250L348 591L221 250H472Z" />
<glyph unicode="&#xc1;" glyph-name="Aacute" horiz-adv-x="733" d="M288 782L271 807L386 914Q387 915 399 926T430 937Q446 937 455 928T464 907Q464 884 430 865L288 782ZM728 26V0H475V26H492Q514 26 526 34T539 56Q539 64 536 73L486 210H206L155 73Q153
69 153 61Q153 45 168 36T203 26H221V0H5V26H20Q40 26 61 36T88 62L325 684L398 714L648 61Q654 45 672 36T710 26H728ZM472 250L348 591L221 250H472Z" />
<glyph unicode="&#xc2;" glyph-name="Acircumflex" horiz-adv-x="733" d="M235 782L216 803L340 932H393L517 803L498 782L390 868Q374 879 367 879Q358 879 343 868L235 782ZM728 26V0H475V26H492Q514 26 526 34T539 56Q539 64 536 73L486 210H206L155 73Q153
69 153 61Q153 45 168 36T203 26H221V0H5V26H20Q40 26 61 36T88 62L325 684L398 714L648 61Q654 45 672 36T710 26H728ZM472 250L348 591L221 250H472Z" />
<glyph unicode="&#xc3;" glyph-name="Atilde" horiz-adv-x="733" d="M264 839T249 825T223 780L201 791Q211 833 236 860T300 887Q317 887 333 881T378 860Q403 847 419 841T452 834Q476 834 490 849T518 896L539 885Q529 841 504 813T439 785Q423 785 407 791T364
812Q341 825 324 832T288 839Q264 839 249 825ZM728 26V0H475V26H492Q514 26 526 34T539 56Q539 64 536 73L486 210H206L155 73Q153 69 153 61Q153 45 168 36T203 26H221V0H5V26H20Q40 26 61 36T88 62L325 684L398 714L648 61Q654 45 672 36T710 26H728ZM472 250L348
591L221 250H472Z" />
<glyph unicode="&#xc4;" glyph-name="Adieresis" horiz-adv-x="733" d="M229 781T217 794T204 827Q204 848 216 861T250 875Q271 875 284 862T297 827Q297 807 285 794T250 781Q229 781 217 794ZM445 781T432 794T419 827Q419 848 432 861T466 875Q487 875 500
862T513 827Q513 807 501 794T466 781Q445 781 432 794ZM728 26V0H475V26H492Q514 26 526 34T539 56Q539 64 536 73L486 210H206L155 73Q153 69 153 61Q153 45 168 36T203 26H221V0H5V26H20Q40 26 61 36T88 62L325 684L398 714L648 61Q654 45 672 36T710 26H728ZM472
250L348 591L221 250H472Z" />
<glyph unicode="&#xc5;" glyph-name="Aring" horiz-adv-x="733" d="M324 753T298 777T271 842Q271 882 297 906T366 931Q407 931 433 907T459 842Q459 802 433 778T366 753Q324 753 298 777ZM343 896T328 882T313 842Q313 818 328 804T366 789Q389 789 404 803T419
842Q419 866 404 881T366 896Q343 896 328 882ZM728 26V0H475V26H492Q514 26 526 34T539 56Q539 64 536 73L486 210H206L155 73Q153 69 153 61Q153 45 168 36T203 26H221V0H5V26H20Q40 26 61 36T88 62L325 684L398 714L648 61Q654 45 672 36T710 26H728ZM472 250L348
591L221 250H472Z" />
<glyph unicode="&#xc6;" glyph-name="AE" horiz-adv-x="978" d="M11 26H26Q56 26 74 42T109 88L447 647Q450 652 450 657Q450 663 446 668T436 673H405V700H926V527H899Q897 576 879 617T812 659H591V388H753Q782 388 791 412T805 485H829V251H805Q801 300 792
324T753 348H591V40H827Q870 40 890 81T916 179H942L925 0H416V26H439Q463 26 478 35T493 62V210H244L159 65Q156 61 156 56Q156 44 173 35T209 26H227V0H11V26ZM493 250V622L268 250H493Z" />
<glyph unicode="&#xc7;" glyph-name="Ccedilla" horiz-adv-x="671" d="M623 92T558 44T396 -9L370 -58Q410 -58 441 -74T472 -129Q472 -177 432 -197T333 -217Q311 -217 284 -212L290 -183Q299 -185 321 -185Q409 -185 409 -131Q409 -108 383 -100T326 -91L314
-75L352 -10Q202 -4 122 90T42 350Q42 462 81 543T196 667T378 710Q489 710 572 650Q573 650 576 648T581 646Q590 646 590 661V705H626V513H597Q589 587 533 627T397 668Q274 668 208 582T141 350Q141 201 202 116T386 31Q456 31 516 65T601 171H640Q623 92 558
44Z" />
<glyph unicode="&#xc8;" glyph-name="Egrave" horiz-adv-x="607" d="M233 883T233 908Q233 920 241 928T265 937Q286 937 310 913L425 807L407 782L264 865Q233 883 233 908ZM571 179L554 0H16V26H44Q103 26 103 62V637Q103 673 44 673H16V700H555V527H528Q524
579 507 619T441 659H201V388H379Q409 388 418 411T431 485H455V251H431Q427 301 418 324T379 348H201V40H456Q499 40 518 81T544 179H571Z" />
<glyph unicode="&#xc9;" glyph-name="Eacute" horiz-adv-x="607" d="M256 782L239 807L354 914Q355 915 367 926T398 937Q414 937 423 928T432 907Q432 884 398 865L256 782ZM571 179L554 0H16V26H44Q103 26 103 62V637Q103 673 44 673H16V700H555V527H528Q524
579 507 619T441 659H201V388H379Q409 388 418 411T431 485H455V251H431Q427 301 418 324T379 348H201V40H456Q499 40 518 81T544 179H571Z" />
<glyph unicode="&#xca;" glyph-name="Ecircumflex" horiz-adv-x="607" d="M196 782L177 803L301 932H354L478 803L459 782L351 868Q335 879 328 879Q319 879 304 868L196 782ZM571 179L554 0H16V26H44Q103 26 103 62V637Q103 673 44 673H16V700H555V527H528Q524
579 507 619T441 659H201V388H379Q409 388 418 411T431 485H455V251H431Q427 301 418 324T379 348H201V40H456Q499 40 518 81T544 179H571Z" />
<glyph unicode="&#xcb;" glyph-name="Edieresis" horiz-adv-x="607" d="M204 781T192 794T179 827Q179 848 191 861T225 875Q246 875 259 862T272 827Q272 807 260 794T225 781Q204 781 192 794ZM420 781T407 794T394 827Q394 848 407 861T441 875Q462 875 475
862T488 827Q488 807 476 794T441 781Q420 781 407 794ZM571 179L554 0H16V26H44Q103 26 103 62V637Q103 673 44 673H16V700H555V527H528Q524 579 507 619T441 659H201V388H379Q409 388 418 411T431 485H455V251H431Q427 301 418 324T379 348H201V40H456Q499 40
518 81T544 179H571Z" />
<glyph unicode="&#xcc;" glyph-name="Igrave" horiz-adv-x="324" d="M97 865Q66 883 66 908Q66 920 74 928T98 937Q119 937 143 913L258 807L240 782L97 865ZM26 26H55Q113 26 113 62V637Q113 673 55 673H26V700H298V673H270Q211 673 211 637V62Q211 26 270 26H298V0H26V26Z"
/>
<glyph unicode="&#xcd;" glyph-name="Iacute" horiz-adv-x="324" d="M65 807L180 914Q181 915 193 926T224 937Q240 937 249 928T258 907Q258 884 224 865L82 782L65 807ZM26 26H55Q113 26 113 62V637Q113 673 55 673H26V700H298V673H270Q211 673 211 637V62Q211
26 270 26H298V0H26V26Z" />
<glyph unicode="&#xce;" glyph-name="Icircumflex" horiz-adv-x="324" d="M11 803L135 932H188L312 803L293 782L185 868Q169 879 162 879Q153 879 138 868L30 782L11 803ZM26 26H55Q113 26 113 62V637Q113 673 55 673H26V700H298V673H270Q211 673 211 637V62Q211
26 270 26H298V0H26V26Z" />
<glyph unicode="&#xcf;" glyph-name="Idieresis" horiz-adv-x="324" d="M32 781T20 794T7 827Q7 848 19 861T53 875Q74 875 87 862T100 827Q100 807 88 794T53 781Q32 781 20 794ZM248 781T235 794T222 827Q222 848 235 861T269 875Q290 875 303 862T316 827Q316
807 304 794T269 781Q248 781 235 794ZM26 26H55Q113 26 113 62V637Q113 673 55 673H26V700H298V673H270Q211 673 211 637V62Q211 26 270 26H298V0H26V26Z" />
<glyph unicode="&#xd0;" glyph-name="Eth" horiz-adv-x="689" d="M490 700T569 611T648 350Q648 177 569 89T332 0H17V26H47Q105 26 105 62V326H27V372H105V637Q105 673 47 673H17V700H333Q490 700 569 611ZM438 39T493 120T549 350Q549 498 495 579T332 660H203V372H413V326H203V39H330Q438
39 493 120Z" />
<glyph unicode="&#xd1;" glyph-name="Ntilde" horiz-adv-x="755" d="M218 791Q228 833 253 860T317 887Q334 887 350 881T395 860Q420 847 436 841T469 834Q493 834 507 849T535 896L556 885Q546 841 521 813T456 785Q440 785 424 791T381 812Q358 825 341 832T305
839Q281 839 266 825T240 780L218 791ZM22 26H51Q80 26 94 34T109 62V637Q109 656 95 664T51 673H22V700H217L595 126V637Q595 656 581 664T537 673H508V700H733V673H703Q645 673 645 637V0H587L159 642V62Q159 26 217 26H247V0H22V26Z" />
<glyph unicode="&#xd2;" glyph-name="Ograve" horiz-adv-x="755" d="M298 865Q267 883 267 908Q267 920 275 928T299 937Q320 937 344 913L459 807L441 782L298 865ZM212 -10T124 84T36 350Q36 520 124 615T378 710Q543 710 631 615T719 350Q719 179 632 85T378
-10Q212 -10 124 84ZM497 32T558 117T620 350Q620 498 559 583T377 668Q258 668 197 583T135 350Q135 202 196 117T377 32Q497 32 558 117Z" />
<glyph unicode="&#xd3;" glyph-name="Oacute" horiz-adv-x="755" d="M281 807L396 914Q397 915 409 926T440 937Q456 937 465 928T474 907Q474 884 440 865L298 782L281 807ZM212 -10T124 84T36 350Q36 520 124 615T378 710Q543 710 631 615T719 350Q719 179 632
85T378 -10Q212 -10 124 84ZM497 32T558 117T620 350Q620 498 559 583T377 668Q258 668 197 583T135 350Q135 202 196 117T377 32Q497 32 558 117Z" />
<glyph unicode="&#xd4;" glyph-name="Ocircumflex" horiz-adv-x="755" d="M227 803L351 932H404L528 803L509 782L401 868Q384 879 378 879Q369 879 354 868L246 782L227 803ZM212 -10T124 84T36 350Q36 520 124 615T378 710Q543 710 631 615T719 350Q719 179
632 85T378 -10Q212 -10 124 84ZM497 32T558 117T620 350Q620 498 559 583T377 668Q258 668 197 583T135 350Q135 202 196 117T377 32Q497 32 558 117Z" />
<glyph unicode="&#xd5;" glyph-name="Otilde" horiz-adv-x="755" d="M205 791Q215 833 240 860T304 887Q321 887 337 881T382 860Q407 847 423 841T456 834Q480 834 494 849T522 896L543 885Q533 841 508 813T443 785Q427 785 411 791T368 812Q345 825 328 832T292
839Q268 839 253 825T227 780L205 791ZM212 -10T124 84T36 350Q36 520 124 615T378 710Q543 710 631 615T719 350Q719 179 632 85T378 -10Q212 -10 124 84ZM497 32T558 117T620 350Q620 498 559 583T377 668Q258 668 197 583T135 350Q135 202 196 117T377 32Q497
32 558 117Z" />
<glyph unicode="&#xd6;" glyph-name="Odieresis" horiz-adv-x="755" d="M248 781T236 794T223 827Q223 848 235 861T269 875Q290 875 303 862T316 827Q316 807 304 794T269 781Q248 781 236 794ZM464 781T451 794T438 827Q438 848 451 861T485 875Q506 875 519
862T532 827Q532 807 520 794T485 781Q464 781 451 794ZM212 -10T124 84T36 350Q36 520 124 615T378 710Q543 710 631 615T719 350Q719 179 632 85T378 -10Q212 -10 124 84ZM497 32T558 117T620 350Q620 498 559 583T377 668Q258 668 197 583T135 350Q135 202 196
117T377 32Q497 32 558 117Z" />
<glyph unicode="&#xd7;" glyph-name="multiply" horiz-adv-x="582" d="M68 160L240 332L68 504L116 553L291 377L466 553L513 504L341 332L513 160L466 111L291 288L116 111L68 160Z" />
<glyph unicode="&#xd8;" glyph-name="Oslash" horiz-adv-x="755" d="M667 584T693 513T719 350Q719 179 632 85T378 -10Q242 -10 158 54L97 -22L59 4L123 85Q36 180 36 350Q36 520 124 615T378 710Q498 710 579 658L632 725L671 699L616 630Q667 584 693 513ZM135
230T176 151L538 607Q477 668 377 668Q258 668 197 583T135 350Q135 230 176 151ZM497 32T558 117T620 350Q620 487 568 569L202 110Q264 32 377 32Q497 32 558 117Z" />
<glyph unicode="&#xd9;" glyph-name="Ugrave" horiz-adv-x="742" d="M319 865Q288 883 288 908Q288 920 296 928T320 937Q341 937 365 913L480 807L462 782L319 865ZM243 -10T174 40T105 204V637Q105 655 90 664T51 673H28V700H280V673H257Q233 673 218 664T203
637V197Q203 104 254 68T397 31Q478 31 532 68T586 197V637Q586 655 572 664T532 673H510V700H713V673H690Q666 673 651 664T636 637V204Q636 93 569 42T375 -10Q243 -10 174 40Z" />
<glyph unicode="&#xda;" glyph-name="Uacute" horiz-adv-x="742" d="M288 807L403 914Q404 915 416 926T447 937Q463 937 472 928T481 907Q481 884 447 865L305 782L288 807ZM243 -10T174 40T105 204V637Q105 655 90 664T51 673H28V700H280V673H257Q233 673 218
664T203 637V197Q203 104 254 68T397 31Q478 31 532 68T586 197V637Q586 655 572 664T532 673H510V700H713V673H690Q666 673 651 664T636 637V204Q636 93 569 42T375 -10Q243 -10 174 40Z" />
<glyph unicode="&#xdb;" glyph-name="Ucircumflex" horiz-adv-x="742" d="M233 803L357 932H410L534 803L515 782L407 868Q390 879 384 879Q375 879 360 868L252 782L233 803ZM243 -10T174 40T105 204V637Q105 655 90 664T51 673H28V700H280V673H257Q233 673 218
664T203 637V197Q203 104 254 68T397 31Q478 31 532 68T586 197V637Q586 655 572 664T532 673H510V700H713V673H690Q666 673 651 664T636 637V204Q636 93 569 42T375 -10Q243 -10 174 40Z" />
<glyph unicode="&#xdc;" glyph-name="Udieresis" horiz-adv-x="742" d="M254 781T242 794T229 827Q229 848 241 861T275 875Q296 875 309 862T322 827Q322 807 310 794T275 781Q254 781 242 794ZM470 781T457 794T444 827Q444 848 457 861T491 875Q512 875 525
862T538 827Q538 807 526 794T491 781Q470 781 457 794ZM243 -10T174 40T105 204V637Q105 655 90 664T51 673H28V700H280V673H257Q233 673 218 664T203 637V197Q203 104 254 68T397 31Q478 31 532 68T586 197V637Q586 655 572 664T532 673H510V700H713V673H690Q666
673 651 664T636 637V204Q636 93 569 42T375 -10Q243 -10 174 40Z" />
<glyph unicode="&#xdd;" glyph-name="Yacute" horiz-adv-x="689" d="M269 824L384 931Q385 932 397 943T428 954Q444 954 453 945T462 924Q462 901 428 882L286 799L269 824ZM201 26H229Q288 26 288 62V292L89 638Q80 654 66 663T34 673H10V700H256V673H230Q213
673 200 665T187 646Q187 640 189 637L354 338L531 634Q534 640 534 645Q534 658 520 665T490 673H463V700H679V673H657Q639 673 622 663T596 637L386 291V62Q386 26 444 26H473V0H201V26Z" />
<glyph unicode="&#xde;" glyph-name="Thorn" horiz-adv-x="599" d="M22 26H51Q80 26 94 34T109 62V637Q109 656 95 664T51 673H22V700H207V588H364Q479 588 529 532T580 375Q580 162 364 162H207V62Q207 26 265 26H295V0H22V26ZM346 203Q484 203 484 375Q484 548
346 548H207V203H346Z" />
<glyph unicode="&#xdf;" glyph-name="germandbls" horiz-adv-x="703" d="M420 333T449 312T538 267Q584 249 612 234T661 191T681 124Q681 61 638 26T517 -10Q404 -10 357 53L345 -8H320V141H346Q357 88 390 58T477 28Q532 28 560 50T588 110Q588 141 563 158T483
196Q433 216 402 233T349 281T327 359Q327 417 372 447T479 483Q479 567 448 624T326 682Q276 682 244 654T211 568V57Q211 41 225 33T264 25H283V0H45V25H64Q88 25 102 33T117 57V431H47V470H117V551Q117 606 145 644T219 702T322 722Q471 722 518 645T565 485V451Q493
451 457 431T420 372Q420 333 449 312Z" />
<glyph unicode="&#xe0;" glyph-name="agrave" horiz-adv-x="506" d="M183 630Q152 648 152 673Q152 685 160 693T184 702Q205 702 229 678L344 572L326 547L183 630ZM98 -10T64 18T29 96Q29 169 105 216T341 285V337Q341 388 309 414T224 440Q186 440 154 425T122
393Q122 387 124 378T126 364Q126 349 117 338T88 327Q71 327 60 339T48 375Q48 425 105 452T244 480Q336 480 386 440T436 329V58Q436 26 458 26Q472 26 494 34V17Q479 4 456 -3T409 -10Q382 -10 362 1T342 37V67Q302 23 254 7T159 -10Q98 -10 64 18ZM242 30T282
54T341 109V252Q235 231 179 192T122 103Q122 67 144 49T205 30Q242 30 282 54Z" />
<glyph unicode="&#xe1;" glyph-name="aacute" horiz-adv-x="506" d="M167 572L282 679Q283 680 295 691T326 702Q342 702 351 693T360 672Q360 649 326 630L184 547L167 572ZM98 -10T64 18T29 96Q29 169 105 216T341 285V337Q341 388 309 414T224 440Q186 440
154 425T122 393Q122 387 124 378T126 364Q126 349 117 338T88 327Q71 327 60 339T48 375Q48 425 105 452T244 480Q336 480 386 440T436 329V58Q436 26 458 26Q472 26 494 34V17Q479 4 456 -3T409 -10Q382 -10 362 1T342 37V67Q302 23 254 7T159 -10Q98 -10 64
18ZM242 30T282 54T341 109V252Q235 231 179 192T122 103Q122 67 144 49T205 30Q242 30 282 54Z" />
<glyph unicode="&#xe2;" glyph-name="acircumflex" horiz-adv-x="506" d="M99 568L223 697H276L400 568L381 547L273 633Q257 644 250 644Q241 644 226 633L118 547L99 568ZM98 -10T64 18T29 96Q29 169 105 216T341 285V337Q341 388 309 414T224 440Q186 440 154
425T122 393Q122 387 124 378T126 364Q126 349 117 338T88 327Q71 327 60 339T48 375Q48 425 105 452T244 480Q336 480 386 440T436 329V58Q436 26 458 26Q472 26 494 34V17Q479 4 456 -3T409 -10Q382 -10 362 1T342 37V67Q302 23 254 7T159 -10Q98 -10 64 18ZM242
30T282 54T341 109V252Q235 231 179 192T122 103Q122 67 144 49T205 30Q242 30 282 54Z" />
<glyph unicode="&#xe3;" glyph-name="atilde" horiz-adv-x="506" d="M85 559Q95 601 120 628T184 655Q201 655 217 649T262 628Q287 615 303 609T336 602Q360 602 374 617T402 664L423 653Q413 609 388 581T323 553Q307 553 291 559T248 580Q225 593 208 600T172
607Q148 607 133 593T107 548L85 559ZM98 -10T64 18T29 96Q29 169 105 216T341 285V337Q341 388 309 414T224 440Q186 440 154 425T122 393Q122 387 124 378T126 364Q126 349 117 338T88 327Q71 327 60 339T48 375Q48 425 105 452T244 480Q336 480 386 440T436
329V58Q436 26 458 26Q472 26 494 34V17Q479 4 456 -3T409 -10Q382 -10 362 1T342 37V67Q302 23 254 7T159 -10Q98 -10 64 18ZM242 30T282 54T341 109V252Q235 231 179 192T122 103Q122 67 144 49T205 30Q242 30 282 54Z" />
<glyph unicode="&#xe4;" glyph-name="adieresis" horiz-adv-x="506" d="M117 546T105 559T92 592Q92 613 104 626T138 640Q159 640 172 627T185 592Q185 572 173 559T138 546Q117 546 105 559ZM333 546T320 559T307 592Q307 613 320 626T354 640Q375 640 388 627T401
592Q401 572 389 559T354 546Q333 546 320 559ZM98 -10T64 18T29 96Q29 169 105 216T341 285V337Q341 388 309 414T224 440Q186 440 154 425T122 393Q122 387 124 378T126 364Q126 349 117 338T88 327Q71 327 60 339T48 375Q48 425 105 452T244 480Q336 480 386
440T436 329V58Q436 26 458 26Q472 26 494 34V17Q479 4 456 -3T409 -10Q382 -10 362 1T342 37V67Q302 23 254 7T159 -10Q98 -10 64 18ZM242 30T282 54T341 109V252Q235 231 179 192T122 103Q122 67 144 49T205 30Q242 30 282 54Z" />
<glyph unicode="&#xe5;" glyph-name="aring" horiz-adv-x="506" d="M211 545T185 569T158 634Q158 674 184 698T253 723Q294 723 320 699T346 634Q346 594 320 570T253 545Q211 545 185 569ZM276 581T291 595T306 634Q306 658 291 673T253 688Q230 688 215 674T200
634Q200 610 215 596T253 581Q276 581 291 595ZM98 -10T64 18T29 96Q29 169 105 216T341 285V337Q341 388 309 414T224 440Q186 440 154 425T122 393Q122 387 124 378T126 364Q126 349 117 338T88 327Q71 327 60 339T48 375Q48 425 105 452T244 480Q336 480 386
440T436 329V58Q436 26 458 26Q472 26 494 34V17Q479 4 456 -3T409 -10Q382 -10 362 1T342 37V67Q302 23 254 7T159 -10Q98 -10 64 18ZM242 30T282 54T341 109V252Q235 231 179 192T122 103Q122 67 144 49T205 30Q242 30 282 54Z" />
<glyph unicode="&#xe6;" glyph-name="ae" horiz-adv-x="807" d="M100 -10T65 18T29 96Q29 167 101 213T324 283Q329 316 341 346Q338 393 306 416T224 440Q186 440 154 425T122 393Q122 387 124 378T126 364Q126 350 117 340T87 329Q70 329 59 341T48 375Q48 425
105 452T244 480Q296 480 336 464T397 417Q457 480 563 480Q667 480 721 425T776 281V258H417Q416 250 416 234Q416 140 460 83T578 26Q644 26 687 60T742 167H773Q765 87 713 39T566 -10Q500 -10 450 12T369 76Q330 31 277 11T169 -10Q100 -10 65 18ZM692 297Q691
353 661 397T567 442Q506 442 469 403T421 297H692ZM244 30T286 52T350 103Q321 156 321 247Q224 224 173 187T122 103Q122 67 144 49T205 30Q244 30 286 52Z" />
<glyph unicode="&#xe7;" glyph-name="ccedilla" horiz-adv-x="509" d="M466 88T417 40T276 -10L249 -61Q289 -61 320 -77T351 -132Q351 -180 311 -200T212 -220Q190 -220 163 -215L169 -186Q178 -188 200 -188Q288 -188 288 -134Q288 -111 262 -103T205 -94L193
-78L233 -8Q135 2 82 64T28 235Q28 349 92 414T272 480Q320 480 364 466T436 418L446 480H471V314H447Q437 378 398 410T298 442Q214 442 169 385T123 234Q123 140 166 83T282 26Q348 26 390 60T444 167H474Q466 88 417 40Z" />
<glyph unicode="&#xe8;" glyph-name="egrave" horiz-adv-x="514" d="M171 648T171 673Q171 685 179 693T203 702Q224 702 248 678L363 572L345 547L202 630Q171 648 171 673ZM124 258Q123 250 123 234Q123 140 167 83T285 26Q351 26 394 60T450 167H479Q471 87
419 39T273 -10Q157 -10 93 53T28 235Q28 349 92 414T270 480Q374 480 428 425T483 281V258H124ZM214 442T177 403T128 297H400Q398 353 368 397T273 442Q214 442 177 403Z" />
<glyph unicode="&#xe9;" glyph-name="eacute" horiz-adv-x="514" d="M199 547L182 572L297 679Q298 680 310 691T341 702Q357 702 366 693T375 672Q375 649 341 630L199 547ZM124 258Q123 250 123 234Q123 140 167 83T285 26Q351 26 394 60T450 167H479Q471 87
419 39T273 -10Q157 -10 93 53T28 235Q28 349 92 414T270 480Q374 480 428 425T483 281V258H124ZM214 442T177 403T128 297H400Q398 353 368 397T273 442Q214 442 177 403Z" />
<glyph unicode="&#xea;" glyph-name="ecircumflex" horiz-adv-x="514" d="M135 547L116 568L240 697H293L417 568L398 547L290 633Q273 644 267 644Q258 644 243 633L135 547ZM124 258Q123 250 123 234Q123 140 167 83T285 26Q351 26 394 60T450 167H479Q471 87
419 39T273 -10Q157 -10 93 53T28 235Q28 349 92 414T270 480Q374 480 428 425T483 281V258H124ZM214 442T177 403T128 297H400Q398 353 368 397T273 442Q214 442 177 403Z" />
<glyph unicode="&#xeb;" glyph-name="edieresis" horiz-adv-x="514" d="M139 546T127 559T114 592Q114 613 126 626T160 640Q181 640 194 627T207 592Q207 572 195 559T160 546Q139 546 127 559ZM355 546T342 559T329 592Q329 613 342 626T376 640Q397 640 410
627T423 592Q423 572 411 559T376 546Q355 546 342 559ZM124 258Q123 250 123 234Q123 140 167 83T285 26Q351 26 394 60T450 167H479Q471 87 419 39T273 -10Q157 -10 93 53T28 235Q28 349 92 414T270 480Q374 480 428 425T483 281V258H124ZM214 442T177 403T128
297H400Q398 353 368 397T273 442Q214 442 177 403Z" />
<glyph unicode="&#xec;" glyph-name="igrave" horiz-adv-x="308" d="M89 630Q58 648 58 673Q58 685 66 693T90 702Q111 702 135 678L250 572L232 547L89 630ZM35 25H53Q77 25 92 33T107 57V394Q107 416 86 416Q80 416 71 413T57 408L49 431L175 475H201V57Q201
41 215 33T254 25H273V0H35V25Z" />
<glyph unicode="&#xed;" glyph-name="iacute" horiz-adv-x="308" d="M57 572L172 679Q173 680 185 691T216 702Q232 702 241 693T250 672Q250 649 216 630L74 547L57 572ZM35 25H53Q77 25 92 33T107 57V394Q107 416 86 416Q80 416 71 413T57 408L49 431L175 475H201V57Q201
41 215 33T254 25H273V0H35V25Z" />
<glyph unicode="&#xee;" glyph-name="icircumflex" horiz-adv-x="308" d="M2 568L126 697H179L303 568L284 547L176 633Q160 644 153 644Q144 644 129 633L21 547L2 568ZM35 25H53Q77 25 92 33T107 57V394Q107 416 86 416Q80 416 71 413T57 408L49 431L175 475H201V57Q201
41 215 33T254 25H273V0H35V25Z" />
<glyph unicode="&#xef;" glyph-name="idieresis" horiz-adv-x="308" d="M23 546T11 559T-2 592Q-2 613 10 626T44 640Q65 640 78 627T91 592Q91 572 79 559T44 546Q23 546 11 559ZM239 546T226 559T213 592Q213 613 226 626T260 640Q281 640 294 627T307 592Q307
572 295 559T260 546Q239 546 226 559ZM35 25H53Q77 25 92 33T107 57V394Q107 416 86 416Q80 416 71 413T57 408L49 431L175 475H201V57Q201 41 215 33T254 25H273V0H35V25Z" />
<glyph unicode="&#xf0;" glyph-name="eth" horiz-adv-x="579" d="M438 590T486 490T535 292Q535 149 470 70T272 -10Q195 -10 141 25T59 119T31 248Q31 310 57 368T139 464T278 502Q321 502 361 485T428 434Q412 486 379 539T300 639L137 546L121 591Q221 649
262 673Q212 713 153 740L181 776Q254 745 311 701Q332 713 417 765L439 778L469 735L351 668Q438 590 486 490ZM352 28T395 97T439 270Q439 320 419 364T363 435T282 462Q237 462 201 435T145 359T125 248Q125 189 142 139T194 58T274 28Q352 28 395 97Z" />
<glyph unicode="&#xf1;" glyph-name="ntilde" horiz-adv-x="623" d="M205 604T190 590T164 545L142 556Q152 598 177 625T241 652Q258 652 274 646T319 625Q344 612 360 606T393 599Q417 599 431 614T459 661L480 650Q470 606 445 578T380 550Q364 550 348 556T305
577Q282 590 265 597T229 604Q205 604 190 590ZM600 25V0H367V25H383Q406 25 420 33T434 57V332Q434 385 407 412T330 439Q295 439 263 422T209 369T188 285V57Q188 41 202 33T240 25H255V0H22V25H41Q65 25 79 33T94 57V393Q94 414 73 414Q64 414 44 406L37 428L163
473H188V395Q210 431 255 455T357 480Q440 480 484 443T528 344V57Q528 41 543 33T582 25H600Z" />
<glyph unicode="&#xf2;" glyph-name="ograve" horiz-adv-x="563" d="M216 630Q185 648 185 673Q185 685 193 693T217 702Q238 702 262 678L377 572L359 547L216 630ZM161 -10T95 54T28 235Q28 352 95 416T282 480Q402 480 468 416T535 235Q535 118 469 54T282
-10Q161 -10 95 54ZM356 28T399 82T442 235Q442 333 399 386T282 440Q207 440 164 387T121 235Q121 136 164 82T282 28Q356 28 399 82Z" />
<glyph unicode="&#xf3;" glyph-name="oacute" horiz-adv-x="563" d="M184 572L299 679Q300 680 312 691T343 702Q359 702 368 693T377 672Q377 649 343 630L201 547L184 572ZM161 -10T95 54T28 235Q28 352 95 416T282 480Q402 480 468 416T535 235Q535 118 469
54T282 -10Q161 -10 95 54ZM356 28T399 82T442 235Q442 333 399 386T282 440Q207 440 164 387T121 235Q121 136 164 82T282 28Q356 28 399 82Z" />
<glyph unicode="&#xf4;" glyph-name="ocircumflex" horiz-adv-x="563" d="M130 568L254 697H307L431 568L412 547L304 633Q287 644 281 644Q272 644 257 633L149 547L130 568ZM161 -10T95 54T28 235Q28 352 95 416T282 480Q402 480 468 416T535 235Q535 118 469
54T282 -10Q161 -10 95 54ZM356 28T399 82T442 235Q442 333 399 386T282 440Q207 440 164 387T121 235Q121 136 164 82T282 28Q356 28 399 82Z" />
<glyph unicode="&#xf5;" glyph-name="otilde" horiz-adv-x="563" d="M111 556Q121 598 146 625T210 652Q227 652 243 646T288 625Q313 612 329 606T362 599Q386 599 400 614T428 661L449 650Q439 606 414 578T349 550Q333 550 317 556T274 577Q251 590 234 597T198
604Q174 604 159 590T133 545L111 556ZM161 -10T95 54T28 235Q28 352 95 416T282 480Q402 480 468 416T535 235Q535 118 469 54T282 -10Q161 -10 95 54ZM356 28T399 82T442 235Q442 333 399 386T282 440Q207 440 164 387T121 235Q121 136 164 82T282 28Q356 28
399 82Z" />
<glyph unicode="&#xf6;" glyph-name="odieresis" horiz-adv-x="563" d="M151 546T139 559T126 592Q126 613 138 626T172 640Q193 640 206 627T219 592Q219 572 207 559T172 546Q151 546 139 559ZM367 546T354 559T341 592Q341 613 354 626T388 640Q409 640 422
627T435 592Q435 572 423 559T388 546Q367 546 354 559ZM161 -10T95 54T28 235Q28 352 95 416T282 480Q402 480 468 416T535 235Q535 118 469 54T282 -10Q161 -10 95 54ZM356 28T399 82T442 235Q442 333 399 386T282 440Q207 440 164 387T121 235Q121 136 164 82T282
28Q356 28 399 82Z" />
<glyph unicode="&#xf7;" glyph-name="divide" horiz-adv-x="582" d="M263 442T248 457T232 497Q232 522 247 537T288 553Q314 553 329 538T344 497Q344 473 329 458T288 442Q263 442 248 457ZM54 359H528V308H54V359ZM261 114T246 129T231 170Q231 194 246 209T287
225Q313 225 328 210T343 170Q343 145 328 130T287 114Q261 114 246 129Z" />
<glyph unicode="&#xf8;" glyph-name="oslash" horiz-adv-x="563" d="M493 399T514 350T535 235Q535 118 469 54T282 -10Q202 -10 144 19L105 -34L70 -8L108 43Q28 106 28 235Q28 352 95 416T282 480Q358 480 413 454L457 513L494 487L452 430Q493 399 514 350ZM121
155T151 101L378 407Q341 440 282 440Q207 440 164 387T121 235Q121 155 151 101ZM356 28T399 82T442 235Q442 320 409 373L179 65Q221 28 282 28Q356 28 399 82Z" />
<glyph unicode="&#xf9;" glyph-name="ugrave" horiz-adv-x="604" d="M202 648T202 673Q202 685 210 693T234 702Q255 702 279 678L394 572L376 547L233 630Q202 648 202 673ZM550 26T572 34V17Q541 -10 487 -10Q457 -10 439 6T420 55V75Q398 39 353 15T250 -10Q167
-10 123 26T79 125V393Q79 404 73 409T59 414Q49 414 29 406L22 428L147 473H173V137Q173 84 200 57T277 30Q312 30 345 47T399 100T420 184V393Q420 404 414 409T399 414Q391 414 369 406L362 428L491 473H513V58Q513 26 536 26Q550 26 572 34Z" />
<glyph unicode="&#xfa;" glyph-name="uacute" horiz-adv-x="604" d="M237 547L220 572L335 679Q336 680 348 691T379 702Q395 702 404 693T413 672Q413 649 379 630L237 547ZM550 26T572 34V17Q541 -10 487 -10Q457 -10 439 6T420 55V75Q398 39 353 15T250 -10Q167
-10 123 26T79 125V393Q79 404 73 409T59 414Q49 414 29 406L22 428L147 473H173V137Q173 84 200 57T277 30Q312 30 345 47T399 100T420 184V393Q420 404 414 409T399 414Q391 414 369 406L362 428L491 473H513V58Q513 26 536 26Q550 26 572 34Z" />
<glyph unicode="&#xfb;" glyph-name="ucircumflex" horiz-adv-x="604" d="M165 547L146 568L270 697H323L447 568L428 547L320 633Q303 644 297 644Q288 644 273 633L165 547ZM550 26T572 34V17Q541 -10 487 -10Q457 -10 439 6T420 55V75Q398 39 353 15T250 -10Q167
-10 123 26T79 125V393Q79 404 73 409T59 414Q49 414 29 406L22 428L147 473H173V137Q173 84 200 57T277 30Q312 30 345 47T399 100T420 184V393Q420 404 414 409T399 414Q391 414 369 406L362 428L491 473H513V58Q513 26 536 26Q550 26 572 34Z" />
<glyph unicode="&#xfc;" glyph-name="udieresis" horiz-adv-x="604" d="M167 546T155 559T142 592Q142 613 154 626T188 640Q209 640 222 627T235 592Q235 572 223 559T188 546Q167 546 155 559ZM383 546T370 559T357 592Q357 613 370 626T404 640Q425 640 438
627T451 592Q451 572 439 559T404 546Q383 546 370 559ZM550 26T572 34V17Q541 -10 487 -10Q457 -10 439 6T420 55V75Q398 39 353 15T250 -10Q167 -10 123 26T79 125V393Q79 404 73 409T59 414Q49 414 29 406L22 428L147 473H173V137Q173 84 200 57T277 30Q312
30 345 47T399 100T420 184V393Q420 404 414 409T399 414Q391 414 369 406L362 428L491 473H513V58Q513 26 536 26Q550 26 572 34Z" />
<glyph unicode="&#xfd;" glyph-name="yacute" horiz-adv-x="560" d="M218 547L201 572L316 679Q317 680 329 691T360 702Q376 702 385 693T394 672Q394 649 360 630L218 547ZM547 470V444H533Q511 444 497 435T474 402L277 -93Q237 -193 138 -193Q96 -193 71 -177T45
-140Q45 -127 52 -118T74 -108Q95 -108 103 -129Q112 -151 137 -151Q174 -151 195 -131T233 -70L261 2L77 418Q66 444 29 444H13V470H223V444H207Q185 444 174 437T168 417L296 95L419 415Q424 429 412 436T381 444H365V470H547Z" />
<glyph unicode="&#xfe;" glyph-name="thorn" horiz-adv-x="593" d="M23 -200H41Q65 -200 80 -192T95 -168V629Q95 651 74 651Q68 651 59 648T45 643L38 666L164 710H189V396Q217 440 261 460T354 480Q452 480 508 420T564 247Q564 112 505 51T331 -10Q284 -10
244 10T189 59V-167Q189 -183 203 -191T242 -200H259V-225H23V-200ZM471 28T471 242Q471 341 436 390T324 440Q295 440 263 423T210 374T189 301V161Q189 105 225 67T326 28Q471 28 471 242Z" />
<glyph unicode="&#xff;" glyph-name="ydieresis" horiz-adv-x="560" d="M168 546T156 559T143 592Q143 613 155 626T189 640Q210 640 223 627T236 592Q236 572 224 559T189 546Q168 546 156 559ZM384 546T371 559T358 592Q358 613 371 626T405 640Q426 640 439
627T452 592Q452 572 440 559T405 546Q384 546 371 559ZM547 470V444H533Q511 444 497 435T474 402L277 -93Q237 -193 138 -193Q96 -193 71 -177T45 -140Q45 -127 52 -118T74 -108Q95 -108 103 -129Q112 -151 137 -151Q174 -151 195 -131T233 -70L261 2L77 418Q66
444 29 444H13V470H223V444H207Q185 444 174 437T168 417L296 95L419 415Q424 429 412 436T381 444H365V470H547Z" />
<glyph unicode="&#x2013;" glyph-name="endash" horiz-adv-x="629" d="M42 305H587V249H42V305Z" />
<glyph unicode="&#x2014;" glyph-name="emdash" horiz-adv-x="949" d="M42 305H907V249H42V305Z" />
<glyph unicode="&#x2018;" glyph-name="quoteleft" horiz-adv-x="241" d="M93 482T78 499T62 550Q62 595 90 637T162 713L179 697Q131 649 131 601Q131 590 135 582T148 563Q165 544 165 526Q165 507 152 495T117 482Q93 482 78 499Z" />
<glyph unicode="&#x2019;" glyph-name="quoteright" horiz-adv-x="241" d="M59 495Q107 541 107 590Q107 601 104 608T96 621T90 629Q82 638 78 646T73 666Q73 684 86 697T121 710Q145 710 160 693T176 641Q176 596 148 554T76 478L59 495Z" />
<glyph unicode="&#x201a;" glyph-name="quotesinglbase" horiz-adv-x="241" d="M59 -23Q107 23 107 72Q107 83 104 90T96 103T90 111Q82 120 78 128T73 148Q73 166 86 179T121 192Q145 192 160 175T176 123Q176 78 148 36T76 -40L59 -23Z" />
<glyph unicode="&#x201c;" glyph-name="quotedblleft" horiz-adv-x="393" d="M93 482T78 499T62 550Q62 595 90 637T162 713L179 697Q131 649 131 601Q131 590 135 582T148 563Q165 544 165 526Q165 507 152 495T117 482Q93 482 78 499ZM245 482T230 499T214 550Q214
595 242 637T314 713L331 697Q283 649 283 601Q283 590 287 582T300 563Q317 544 317 526Q317 507 304 495T269 482Q245 482 230 499Z" />
<glyph unicode="&#x201d;" glyph-name="quotedblright" horiz-adv-x="393" d="M59 495Q107 541 107 590Q107 601 104 608T96 621T90 629Q82 638 78 646T73 666Q73 684 86 697T121 710Q145 710 160 693T176 641Q176 596 148 554T76 478L59 495ZM211 495Q259 541
259 590Q259 601 256 608T248 621T242 629Q234 638 230 646T225 666Q225 684 238 697T273 710Q297 710 312 693T328 641Q328 596 300 554T228 478L211 495Z" />
<glyph unicode="&#x201e;" glyph-name="quotedblbase" horiz-adv-x="393" d="M59 -23Q107 23 107 72Q107 83 104 90T96 103T90 111Q82 120 78 128T73 148Q73 166 86 179T121 192Q145 192 160 175T176 123Q176 78 148 36T76 -40L59 -23ZM211 -23Q259 23 259 72Q259
83 256 90T248 103T242 111Q234 120 230 128T225 148Q225 166 238 179T273 192Q297 192 312 175T328 123Q328 78 300 36T228 -40L211 -23Z" />
<glyph unicode="&#x2022;" glyph-name="bullet" horiz-adv-x="268" d="M101 270T81 291T61 347Q61 382 81 402T135 423Q167 423 186 402T206 347Q206 313 187 292T135 270Q101 270 81 291Z" />
<glyph unicode="&#x2039;" glyph-name="guilsinglleft" horiz-adv-x="301" d="M40 254V271L232 486L255 454L128 262L255 70L232 39L40 254Z" />
<glyph unicode="&#x203a;" glyph-name="guilsinglright" horiz-adv-x="301" d="M45 70L173 262L45 454L67 486L259 271V254L67 39L45 70Z" />
</font>
</defs>
</svg>
