<?xml version="1.0" standalone="no"?>
<!DOCTYPE svg PUBLIC "-//W3C//DTD SVG 1.1//EN" "http://www.w3.org/Graphics/SVG/1.1/DTD/svg11.dtd">
<svg xmlns="http://www.w3.org/2000/svg">
<defs >
<font id="Kurale" horiz-adv-x="558" ><font-face
    font-family="Kurale"
    units-per-em="1000"
    panose-1="0 0 5 0 0 0 0 0 0 0"
    ascent="1095"
    descent="-383"
    alphabetic="0" />
<glyph unicode=" " glyph-name="space" horiz-adv-x="309" />
<glyph unicode="!" glyph-name="exclam" horiz-adv-x="246" d="M92 180T88 221Q74 363 64 492T54 672Q74 695 112 695Q146 695 168 672Q168 581 134 221Q132 200 127 190T112 180Q92 180 88 221ZM96 -13T76 8T56 46Q56 65 75 85T112 106Q129 106 148 86T168 46Q168
29 148 8T112 -13Q96 -13 76 8Z" />
<glyph unicode="&quot;" glyph-name="quotedbl" horiz-adv-x="343" d="M64 519T63 535Q51 584 43 641T34 729Q51 755 81 755Q111 755 127 729Q127 702 120 646T99 535Q97 526 93 523T81 519Q64 519 63 535ZM222 519T218 522T212 535Q200 583 192 641T184 729Q198
755 229 755Q260 755 276 729Q276 702 269 646T248 535Q245 519 229 519Q222 519 218 522Z" />
<glyph unicode="#" glyph-name="numbersign" horiz-adv-x="696" d="M80 0L136 204H46L62 263H151L186 385H96L113 443H204L260 650H325L268 443H430L486 650H552L494 443H585L568 385H478L443 263H534L518 204H427L370 0H307L362 204H200L144 0H80ZM217 263H379L411
385H251L217 263Z" />
<glyph unicode="$" glyph-name="dollar" horiz-adv-x="581" d="M229 1Q152 8 101 45T49 146Q49 189 76 215T146 242Q158 242 161 241T165 231Q165 229 157 217T143 190T137 153Q137 106 173 79T260 51Q304 51 336 78T369 152Q369 184 352 206T309 244T237 279Q181
304 146 326T85 385T60 479Q60 520 78 557T135 620T229 650V768Q237 779 254 785T286 791V648Q350 640 392 609T434 526Q434 485 406 458T337 430Q325 430 321 431T316 441Q316 443 324 455T338 483T345 520Q345 557 317 579T251 601Q201 601 174 572T146 503Q146
461 166 434T214 389T294 350Q348 327 381 307T437 253T460 168Q460 100 413 54T286 1V-117Q278 -128 262 -133T229 -138V1Z" />
<glyph unicode="%" glyph-name="percent" horiz-adv-x="1018" d="M120 253T83 313T46 457Q46 514 66 561T124 635T214 662Q288 662 329 608T370 470Q370 410 350 361T291 282T199 253Q120 253 83 313ZM294 0L565 650H631L357 0H294ZM250 295T271 340T293 457Q293
528 272 573T208 619Q165 619 143 574T121 457Q121 385 143 340T208 295Q250 295 271 340ZM627 -13T590 47T553 192Q553 280 598 338T721 396Q795 396 836 343T877 205Q877 145 857 96T798 17T706 -13Q627 -13 590 47ZM757 30T778 75T800 192Q800 262 778 308T715
354Q672 354 651 309T629 192Q629 120 650 75T715 30Q757 30 778 75Z" />
<glyph unicode="&amp;" glyph-name="ampersand" horiz-adv-x="668" d="M153 -13T91 36T28 174Q28 236 70 282T192 351Q132 365 98 402T63 500Q63 542 88 579T165 640T287 663Q351 663 395 633T439 555Q439 519 418 498T360 476Q342 476 342 485Q342 487 351 501T360
546Q360 580 338 600T277 621Q224 621 194 587T163 505Q163 444 194 412T273 379Q279 379 282 373T286 358Q286 352 283 347T274 341Q203 322 167 277T131 175Q131 139 147 107T193 55T264 35Q326 35 364 68T403 160Q403 206 381 233L347 232Q307 229 287 219T256
198T240 186Q233 186 228 195T222 215Q222 247 256 257T357 272Q409 275 441 281T495 303T518 352Q518 378 508 393T484 421T470 437Q470 443 482 446T509 450Q549 450 577 424T605 356Q605 250 426 237Q446 220 458 195T470 144Q470 106 449 70T380 11T259 -13Q153
-13 91 36Z" />
<glyph unicode="&apos;" glyph-name="quotesingle" horiz-adv-x="178" d="M64 519T63 535Q51 584 43 641T34 729Q51 755 81 755Q111 755 127 729Q127 702 120 646T99 535Q97 526 93 523T81 519Q64 519 63 535Z" />
<glyph unicode="(" glyph-name="parenleft" horiz-adv-x="352" d="M176 -53T114 47T52 300Q52 450 114 551T291 701V661Q227 619 188 525T149 300Q149 168 188 75T291 -61V-101Q176 -53 114 47Z" />
<glyph unicode=")" glyph-name="parenright" horiz-adv-x="352" d="M28 -61Q92 -19 130 74T169 300Q169 431 130 525T28 661V701Q143 653 205 552T267 300Q267 148 205 47T28 -101V-61Z" />
<glyph unicode="*" glyph-name="asterisk" horiz-adv-x="574" d="M340 372T326 378Q322 388 288 458Q269 495 260 518Q254 504 220 436L192 379Q183 373 169 373Q145 373 132 391T119 433Q125 438 197 507Q220 530 229 538L168 546L78 559Q63 576 63 593Q63 613
75 628T106 647L241 573L235 610Q222 685 214 725Q231 752 260 752Q274 752 286 745T307 725L277 573Q301 584 361 617Q383 630 413 646Q433 642 444 629T456 595Q456 574 442 559Q418 556 341 545L290 538L334 496L400 433Q400 406 386 389T351 372Q340 372 326
378Z" />
<glyph unicode="+" glyph-name="plus" horiz-adv-x="621" d="M247 132V290H89V357H247V517H314V357H473V290H314V132H247Z" />
<glyph unicode="," glyph-name="comma" horiz-adv-x="191" d="M6 -95L48 -13Q59 11 59 25Q59 35 54 42T38 58L21 69L17 91L33 97Q60 107 83 107Q110 107 126 93T143 47Q143 22 125 -5T68 -74L33 -112L6 -95Z" />
<glyph unicode="-" glyph-name="hyphen" horiz-adv-x="355" d="M30 247T35 264T53 292L292 302Q292 283 286 266T268 237L30 229Q30 247 35 264Z" />
<glyph unicode="." glyph-name="period" horiz-adv-x="191" d="M69 -13T50 8T30 46Q30 65 49 85T85 106Q101 106 122 85T143 46Q143 29 122 8T85 -13Q69 -13 50 8Z" />
<glyph unicode="/" glyph-name="slash" horiz-adv-x="371" d="M0 -58L271 708H337L63 -58H0Z" />
<glyph unicode="0" glyph-name="zero" horiz-adv-x="693" d="M216 -13T160 36T79 162T54 326Q54 420 87 496T181 618T325 663Q404 663 460 621T544 507T573 345Q573 246 541 165T448 35T303 -13Q216 -13 160 36ZM392 39T434 119T477 324Q477 449 435 530T313 612Q233
612 191 531T149 324Q149 199 191 119T313 39Q392 39 434 119Z" />
<glyph unicode="1" glyph-name="one" horiz-adv-x="418" d="M77 31L116 40Q141 46 152 54T169 76T174 120V558L63 486Q43 489 27 507T0 548L251 665Q274 660 287 631L264 616V182Q264 126 273 93T305 31L315 15L305 0H88L77 31Z" />
<glyph unicode="2" glyph-name="two" horiz-adv-x="596" d="M34 46Q179 165 254 244T356 379T383 494Q383 550 348 581T265 613Q216 613 180 583T144 497Q144 475 150 461T164 434T172 419Q172 411 168 410T151 408Q110 408 83 435T55 504Q55 555 84 591T162 645T265
663Q367 663 426 619T486 493Q486 405 402 308T161 82H503Q503 58 496 36T473 0H58L34 46Z" />
<glyph unicode="3" glyph-name="three" horiz-adv-x="596" d="M207 -13T159 4T82 54T52 134Q52 176 79 202T148 229Q160 229 164 228T168 219Q168 216 160 204T147 178T141 142Q141 97 175 71T260 45Q313 45 352 78T392 173Q392 225 359 267T236 309Q205 309 186
305T163 300Q149 300 149 315Q149 327 157 333T200 346Q303 365 337 407T372 501Q372 554 338 583T259 613Q217 613 188 589T158 520Q158 497 164 482T178 455T185 441Q185 430 166 430Q124 430 97 457T69 526Q69 591 125 627T260 663Q313 663 362 645T441 592T472
506Q472 448 437 407T338 341Q412 324 451 277T490 167Q490 81 429 34T262 -13Q207 -13 159 4Z" />
<glyph unicode="4" glyph-name="four" horiz-adv-x="608" d="M254 31L292 40Q317 46 328 53T344 76T349 120V146H28L237 650H295L312 636L116 205H349V326Q349 355 345 372T328 409L340 424L439 435V205H523Q523 162 503 146H440Q441 109 451 83T480 31L491 15L480
0H264L254 31Z" />
<glyph unicode="5" glyph-name="five" horiz-adv-x="596" d="M207 -13T159 4T82 54T52 134Q52 176 79 202T148 229Q160 229 164 228T168 219Q168 216 160 204T147 178T141 142Q141 97 175 71T260 45Q293 45 323 60T373 104T392 175Q392 234 352 280T204 326Q170
326 107 314L88 349L104 650H457Q457 626 450 604T427 568H161L148 363Q203 376 261 376Q339 376 390 348T466 275T490 175Q490 89 428 38T262 -13Q207 -13 159 4Z" />
<glyph unicode="6" glyph-name="six" horiz-adv-x="646" d="M224 -13T167 29T81 141T52 297Q52 399 83 482T177 614T328 663Q408 663 458 629T508 540Q508 494 481 465T411 436Q401 436 397 438T393 445Q393 448 400 460T413 487T419 521Q419 562 394 587T326
612Q263 612 224 565T167 446T149 296Q149 267 150 254Q168 311 216 345T337 380Q426 380 473 329T521 197Q521 138 497 91T423 15T304 -13Q224 -13 167 29ZM348 45T379 83T410 184Q410 244 384 281T304 318Q248 318 217 278T186 177Q186 118 212 82T291 45Q348
45 379 83Z" />
<glyph unicode="7" glyph-name="seven" horiz-adv-x="496" d="M62 31L82 36Q118 46 137 65T174 126L345 568H33Q17 581 10 603T2 650H441L257 181Q234 128 234 86Q234 55 248 31L257 15L239 0H72L62 31Z" />
<glyph unicode="8" glyph-name="eight" horiz-adv-x="616" d="M172 -15T111 25T49 149Q49 204 83 247T169 320Q116 349 90 387T64 482Q64 530 87 572T157 640T272 666Q371 666 431 625T492 499Q492 449 461 408T381 339Q446 305 477 262T509 162Q509 82 446 34T271
-15Q172 -15 111 25ZM395 431T395 500Q395 551 363 583T272 615Q223 615 191 583T159 509Q159 471 185 444T277 387L335 360Q395 431 395 500ZM333 35T371 62T409 138Q409 183 387 208T310 258L213 300Q179 264 162 226T145 152Q145 100 179 68T272 35Q333 35 371
62Z" />
<glyph unicode="9" glyph-name="nine" horiz-adv-x="646" d="M186 -13T135 22T84 114Q84 151 109 173T175 196Q184 196 189 193T194 186Q194 183 184 164T173 119Q173 83 198 61T264 39Q349 39 387 116T425 306Q425 339 424 354Q401 307 355 279T247 250Q191 250
151 276T91 346T70 439Q70 496 95 547T171 631T291 663Q407 663 464 564T521 309Q521 217 493 144T407 29T265 -13Q186 -13 135 22ZM347 314T379 357T411 458Q411 517 381 560T298 604Q241 604 210 561T179 459Q179 401 208 358T289 314Q347 314 379 357Z" />
<glyph unicode=":" glyph-name="colon" horiz-adv-x="191" d="M69 313T50 334T30 372Q30 391 49 412T85 433Q101 433 122 412T143 372Q143 356 122 335T85 313Q69 313 50 334ZM69 -13T50 8T30 46Q30 65 49 85T85 106Q101 106 122 85T143 46Q143 29 122 8T85 -13Q69
-13 50 8Z" />
<glyph unicode=";" glyph-name="semicolon" horiz-adv-x="191" d="M69 313T50 334T30 372Q30 391 49 412T85 433Q101 433 122 412T143 372Q143 356 122 335T85 313Q69 313 50 334ZM6 -95L48 -13Q59 11 59 25Q59 35 54 42T38 58L21 69L17 91L33 97Q60 107 83 107Q110
107 126 93T143 47Q143 22 125 -5T68 -74L33 -112L6 -95Z" />
<glyph unicode="&lt;" glyph-name="less" horiz-adv-x="621" d="M473 134L89 290V357L473 514V443L167 323L473 204V134Z" />
<glyph unicode="=" glyph-name="equal" horiz-adv-x="621" d="M89 388V455H473V388H89ZM89 191V260H473V191H89Z" />
<glyph unicode="&gt;" glyph-name="greater" horiz-adv-x="621" d="M89 134V204L396 323L89 443V514L473 357V290L89 134Z" />
<glyph unicode="?" glyph-name="question" horiz-adv-x="538" d="M148 253Q223 318 262 366T313 450T326 523Q326 579 296 607T216 636Q177 636 154 615T131 558Q131 521 141 504T151 483Q151 473 135 473Q96 473 71 498T46 563Q46 599 70 627T138 672T237 688Q319
688 374 646T430 529Q430 435 303 311Q266 276 250 257T227 213L223 195H205L148 253ZM195 -13T176 8T156 46Q156 65 175 85T211 106Q228 106 248 85T268 46Q268 29 248 8T211 -13Q195 -13 176 8Z" />
<glyph unicode="@" glyph-name="at" horiz-adv-x="892" d="M278 -100T205 -57T91 61T50 227Q50 331 101 419T241 560T435 612Q531 612 604 569T718 451T759 285Q759 226 736 168T669 72T563 33Q514 33 484 63T453 151Q425 118 391 100T323 82Q275 82 243 121T211
231Q211 301 236 353T306 433T410 461Q438 461 502 451L562 443L568 434L560 418Q550 403 549 393Q529 165 529 153Q529 118 542 99T576 80Q596 80 618 103T655 174T670 289Q670 367 642 428T559 525T430 560Q345 560 278 515T174 394T137 225Q137 146 165 84T249
-13T380 -48Q428 -48 466 -39T542 -7L564 -46Q518 -73 473 -86T375 -100Q278 -100 205 -57ZM389 150T410 164T452 208L468 389Q441 409 409 409Q357 409 329 362T300 255Q300 209 320 180T369 150Q389 150 410 164Z" />
<glyph unicode="A" glyph-name="A" horiz-adv-x="639" d="M-15 31L6 36Q43 47 59 62T89 120L231 530Q241 562 241 574Q241 591 232 600T201 614L180 619L191 650H365L548 126Q563 83 579 62T630 15L618 0H413L403 31L425 36Q446 41 455 50T465 77Q465 87 461 100T454
120L411 247H202L180 181Q160 119 160 86Q160 53 173 31L180 15L163 0H-3L-15 31ZM222 304H393L306 558L222 304Z" />
<glyph unicode="B" glyph-name="B" horiz-adv-x="589" d="M40 31L62 36Q96 47 107 63T119 120V568Q119 580 115 584T100 589H47L36 623Q75 638 139 650T261 663Q386 663 446 614T506 485Q506 434 483 393T411 329Q471 309 505 269T539 179Q539 96 484 48T305 0H52L40
31ZM373 47T409 84T445 183Q445 236 407 272T303 309Q268 309 242 320Q229 327 229 341Q229 356 241 356Q246 356 258 354T287 352Q348 352 382 387T417 483Q417 541 379 577T271 613Q210 613 210 570V166Q210 91 239 69T310 47Q373 47 409 84Z" />
<glyph unicode="C" glyph-name="C" horiz-adv-x="559" d="M227 -13T162 31T65 152T32 324Q32 421 64 497T162 618T324 663Q383 663 429 646T501 599T527 530Q527 484 500 455T432 425Q411 425 411 436Q411 438 419 450T433 479T439 518Q439 560 408 586T324 613Q257
613 215 571T153 464T134 324Q134 249 158 186T226 87T329 50Q387 50 430 71T500 131Q503 135 506 135Q515 135 525 127T535 109Q535 106 533 102Q453 -13 321 -13Q227 -13 162 31Z" />
<glyph unicode="D" glyph-name="D" horiz-adv-x="663" d="M36 31L58 36Q86 45 100 60T115 110V568Q115 580 110 584T95 589H43L32 623Q75 638 144 650T277 663Q466 663 549 569T632 324Q632 232 598 159T497 43T331 0H47L36 31ZM534 46T534 326Q534 403 508 468T427
573T294 613Q205 613 205 570V159Q205 94 232 70T303 46Q534 46 534 326Z" />
<glyph unicode="E" glyph-name="E" horiz-adv-x="551" d="M471 -13Q464 -6 456 -3T433 0H51L40 29L60 34Q93 44 104 59T115 114V469Q115 523 106 556T75 619L63 636L75 650H352Q431 650 454 669L472 681L485 669V508L454 497L449 519Q437 568 418 584T352 600H263Q228
600 217 586T205 530V356H320Q343 356 359 365T392 397L399 407L417 397V242L387 231L381 254Q371 285 351 295T281 305H205V120Q205 91 209 77T226 57T263 52H360Q393 52 411 58T439 82T459 132L465 152L495 143V-13L478 -22L471 -13Z" />
<glyph unicode="F" glyph-name="F" horiz-adv-x="495" d="M40 15L52 31Q75 61 84 94T94 182V469Q94 522 85 555T52 619L40 636L52 650H320Q361 650 385 654T425 669L440 681L454 669V508L425 497L418 519Q409 553 399 569T371 593T320 600H240Q205 600 194 586T183
530V347H290Q312 347 328 356T360 389L368 399L387 389V233L355 223L351 243Q342 274 321 285T251 296H183V120Q183 78 194 63T240 36L262 31L251 0H52L40 15Z" />
<glyph unicode="G" glyph-name="G" horiz-adv-x="625" d="M286 -253T249 -235T193 -186T174 -123Q174 -77 204 -45T289 -13Q306 -13 306 -22Q306 -26 293 -39T271 -72T261 -120Q261 -157 286 -181T354 -205Q414 -205 443 -160T473 -11V75Q400 15 313 15Q221 15
158 58T64 175T32 341Q32 429 65 502T166 619T331 663Q394 663 444 645T522 595T550 521Q550 474 523 444T453 414Q440 414 438 416T435 426Q435 429 442 441T455 470T460 508Q460 555 425 584T331 613Q260 613 215 572T150 470T130 345Q130 270 153 208T219 110T320
74Q412 74 473 135V181Q473 222 461 238T413 265L394 271L404 303H595L606 287L595 271Q572 241 563 207T553 119V15Q553 -253 339 -253Q286 -253 249 -235Z" />
<glyph unicode="H" glyph-name="H" horiz-adv-x="705" d="M36 31L58 36Q93 47 104 62T115 120V530Q115 572 104 588T58 614L36 619L47 650H246L258 636L246 619Q223 590 214 557T205 469V357H501V530Q501 571 489 588T442 614L423 619L434 650H631L645 636L631
619Q609 589 600 556T590 469V114Q590 75 601 60T646 34L665 29L655 0H434L423 31L442 36Q478 47 489 62T501 120V303H205V114Q205 75 216 60T260 34L278 29L270 0H47L36 31Z" />
<glyph unicode="I" glyph-name="I" horiz-adv-x="319" d="M36 31L58 36Q93 47 104 62T115 120V530Q115 572 104 588T58 614L36 619L47 650H246L258 636L246 619Q223 590 214 557T205 469V114Q205 75 216 60T260 34L278 29L270 0H47L36 31Z" />
<glyph unicode="J" glyph-name="J" horiz-adv-x="425" d="M93 -13T56 5T1 54T-18 117Q-18 162 12 194T97 227Q105 227 109 224T114 217Q114 213 101 199T79 167T70 119Q70 82 92 58T152 34Q247 34 247 159V530Q247 571 235 588T188 614L168 619L179 650H376L389
636L376 619Q354 590 346 557T337 469V214Q337 96 287 42T146 -13Q93 -13 56 5Z" />
<glyph unicode="K" glyph-name="K" horiz-adv-x="605" d="M36 31L58 36Q93 47 104 62T115 120V530Q115 572 104 588T58 614L36 619L47 650H246L258 636L246 619Q223 590 214 557T205 469V114Q205 75 216 60T260 34L278 29L270 0H47L36 31ZM465 -13T438 9T386 76L277
272Q268 289 259 297T230 313Q227 315 227 323Q227 345 245 345H266L390 527Q401 546 404 556T408 579Q408 591 403 603T396 619L389 636L405 650H570L581 619L560 614Q538 609 522 599T489 565L326 329Q366 311 389 271L504 64Q515 48 521 43T539 37Q558 37 574
50L589 23Q553 -13 506 -13Q465 -13 438 9Z" />
<glyph unicode="L" glyph-name="L" horiz-adv-x="497" d="M451 -13Q446 -6 437 -3T412 0H51L40 29L60 34Q93 44 104 59T115 114V530Q115 572 104 588T58 614L36 619L47 650H246L258 636L246 619Q223 590 214 557T205 469V120Q205 91 209 77T226 57T263 52H342Q389
52 408 68T440 132L445 152L477 143V-13L458 -22L451 -13Z" />
<glyph unicode="M" glyph-name="M" horiz-adv-x="834" d="M14 31L34 36Q70 47 83 62T99 120L124 479Q125 490 126 511T128 549Q128 580 117 593T76 614L54 619L63 650H229L416 194L607 650H738L752 636L742 619Q724 594 717 569T709 505Q709 490 710 466T713 425L730
176Q735 120 749 83T794 15L782 0H583L572 31L593 36Q622 45 634 59T646 101L645 135L617 514L428 64H379L189 514L169 233Q164 156 164 145Q164 108 171 82T196 31L208 15L193 0H23L14 31Z" />
<glyph unicode="N" glyph-name="N" horiz-adv-x="705" d="M31 31L52 36Q87 47 98 62T109 120V530Q109 572 98 588T52 614L31 619L42 650H188L534 137V530Q534 571 522 588T476 614L454 619L467 650H637L650 636L637 619Q615 590 606 557T597 469V80Q597 52 610
31L621 15L610 0H519L174 513V182Q174 126 182 93T214 31L226 15L214 0H42L31 31Z" />
<glyph unicode="O" glyph-name="O" horiz-adv-x="663" d="M233 -13T166 31T66 152T32 324Q32 420 65 497T166 618T331 663Q429 663 496 619T598 497T632 324Q632 228 598 152T497 32T331 -13Q233 -13 166 31ZM391 40T437 77T509 179T534 321Q534 387 515 453T452
566T337 612Q273 612 226 573T155 466T130 316Q130 196 181 118T327 40Q391 40 437 77Z" />
<glyph unicode="P" glyph-name="P" horiz-adv-x="539" d="M36 31L58 36Q92 45 103 61T115 120V568Q115 580 110 584T95 589H43L32 623Q71 638 135 650T258 663Q391 663 456 603T521 448Q521 389 498 341T426 265T305 236Q273 236 249 244T225 268Q225 277 228
283T239 290Q242 290 254 287T283 283Q351 283 389 327T428 444Q428 518 388 565T273 613Q205 613 205 570V182Q205 126 214 94T246 31L258 15L246 0H47L36 31Z" />
<glyph unicode="Q" glyph-name="Q" horiz-adv-x="663" d="M579 -201T543 -170T477 -72L441 4Q391 -13 331 -13Q239 -13 172 28T68 145T32 324Q32 428 68 504T172 622T331 663Q423 663 491 622T595 504T632 324Q632 231 601 159T511 42L557 -59Q572 -95 595 -112T651
-129Q670 -129 684 -123T701 -117Q704 -117 707 -119T710 -126Q710 -158 686 -179T625 -201Q579 -201 543 -170ZM502 153T518 206T534 321Q534 405 509 471T439 575T337 612Q276 612 229 575T156 470T130 316Q130 187 184 115Q182 119 182 133Q182 177 212 203T296
229Q346 229 391 200T473 114Q502 153 518 206ZM374 40T414 63Q388 117 352 147T280 178Q254 178 238 162T222 120Q222 84 251 62T327 40Q374 40 414 63Z" />
<glyph unicode="R" glyph-name="R" horiz-adv-x="579" d="M437 -13T410 11T354 94L285 239Q277 257 266 265T224 283Q207 292 207 306Q207 326 222 326Q226 326 236 323T265 320Q332 320 370 358T409 461Q409 530 368 571T256 613Q222 613 204 602T186 570V182Q186
127 195 95T228 31L239 15L228 0H29L18 31L39 36Q73 45 85 62T97 120V568Q97 579 93 584T77 589H25L14 623Q57 640 121 651T239 663Q364 663 433 611T503 465Q503 394 464 346T356 280Q380 263 394 236L478 64Q490 37 513 37Q530 37 547 50L563 23Q522 -13 479
-13Q437 -13 410 11Z" />
<glyph unicode="S" glyph-name="S" horiz-adv-x="518" d="M200 -13T149 5T69 57T40 133Q40 179 69 209T144 239Q153 239 158 236T163 229Q163 226 155 213T140 184T134 146Q134 98 170 68T265 38Q317 38 349 65T381 141Q381 180 361 207T312 251T232 291Q175 316
140 338T80 396T55 487Q55 533 77 573T145 638T254 663Q312 663 358 646T430 599T456 530Q456 484 429 455T359 425Q341 425 341 436Q341 438 348 450T362 479T368 518Q368 559 336 586T254 613Q200 613 171 583T142 508Q142 474 161 450T208 410T286 371Q346 344
383 321T447 260T473 164Q473 83 419 35T265 -13Q200 -13 149 5Z" />
<glyph unicode="T" glyph-name="T" horiz-adv-x="539" d="M173 15L184 31Q207 61 216 93T225 182V530Q225 573 219 586T193 600H152Q119 600 102 593T74 569T54 519L49 497L18 508V669L33 681L49 669Q73 650 151 650H388Q467 650 490 669L506 681L521 669V508L490
497L485 519Q472 568 453 584T387 600H345Q326 600 320 586T313 530V120Q313 78 324 63T372 36L394 31L383 0H184L173 15Z" />
<glyph unicode="U" glyph-name="U" horiz-adv-x="669" d="M233 -13T167 39T101 198V530Q101 572 90 588T43 614L21 619L33 650H230L242 636L230 619Q208 589 199 556T190 469V198Q190 127 236 86T351 45Q419 45 464 86T509 198V530Q509 572 498 588T451 614L430
619L441 650H613L625 636L613 619Q590 590 581 557T572 469V198Q572 92 508 40T339 -13Q233 -13 167 39Z" />
<glyph unicode="V" glyph-name="V" horiz-adv-x="618" d="M86 525Q71 567 54 589T4 636L16 650H221L230 619L211 614Q189 609 179 600T169 574Q169 564 174 549T180 530L326 76L454 470Q472 524 472 553Q470 605 430 614L409 619L420 650H592L604 636L590 619Q558
580 540 529L365 0H263L86 525Z" />
<glyph unicode="W" glyph-name="W" horiz-adv-x="984" d="M86 525Q71 567 54 589T4 636L16 650H221L230 619L211 614Q189 609 179 600T169 574Q169 564 174 549T180 530L326 76L461 497L453 525Q440 566 423 588T371 636L384 650H587L598 619L576 614Q555 610
546 601T536 574Q536 562 546 530L694 76L820 470Q839 522 839 553Q837 605 797 614L777 619L787 650H960L972 636L958 619Q924 578 907 529L733 0H630L497 395L365 0H263L86 525Z" />
<glyph unicode="X" glyph-name="X" horiz-adv-x="615" d="M10 31L30 36Q53 42 69 52T101 85L263 320L107 539Q67 600 26 636L37 650H253L263 619L241 614Q207 606 207 575Q207 562 213 548T227 521L320 389L412 527Q425 546 429 556T433 579Q433 593 420 619L411
636L430 650H596L607 619L586 614Q564 609 548 598T517 565L356 337L521 104Q540 75 557 55T600 15L587 0H372L361 31L383 36Q418 45 418 76Q418 96 397 129L299 267L204 123Q192 104 188 94T184 71Q184 59 195 31L205 15L186 0H20L10 31Z" />
<glyph unicode="Y" glyph-name="Y" horiz-adv-x="566" d="M186 15L197 31Q220 61 230 94T240 182V267L95 521Q69 566 50 590T4 636L16 650H221L230 619L211 614Q189 609 179 600T169 574Q169 563 197 518L296 346L397 529Q408 551 408 566Q408 585 397 597T370
614L351 619L360 650H533L544 636L531 619Q493 572 468 523L326 274V120Q326 79 339 62T387 36L406 31L396 0H197L186 15Z" />
<glyph unicode="Z" glyph-name="Z" horiz-adv-x="533" d="M473 -13Q465 0 436 0H18L378 600H186Q153 600 135 593T107 569T88 519L82 497L52 508V669L65 681L82 669Q96 659 120 655T186 650H517L159 52H362Q396 52 414 58T442 81T461 132L468 152L498 143V-13L480
-22L473 -13Z" />
<glyph unicode="[" glyph-name="bracketleft" horiz-adv-x="387" d="M114 701H326V657L254 647Q228 643 217 633T205 600V1Q205 -23 216 -33T254 -47L326 -58V-101H114V701Z" />
<glyph unicode="\" glyph-name="backslash" horiz-adv-x="371" d="M271 -58L0 708H64L337 -58H271Z" />
<glyph unicode="]" glyph-name="bracketright" horiz-adv-x="387" d="M25 -58L98 -47Q124 -43 135 -33T146 1V600Q146 623 135 633T98 647L25 657V701H237V-101H25V-58Z" />
<glyph unicode="^" glyph-name="asciicircum" horiz-adv-x="621" d="M87 360L241 650H320L475 360H401L279 591L161 360H87Z" />
<glyph unicode="_" glyph-name="underscore" horiz-adv-x="355" d="M-23 -58T-18 -41T0 -13H345Q345 -32 340 -49T321 -77H-23Q-23 -58 -18 -41Z" />
<glyph unicode="`" glyph-name="grave" horiz-adv-x="288" d="M100 566Q73 579 61 595T49 631Q49 671 87 688L229 547L202 517L100 566Z" />
<glyph unicode="a" glyph-name="a" horiz-adv-x="546" d="M160 -13T123 12T63 87T40 208Q40 325 103 393T275 461Q311 461 373 450Q419 442 456 439L468 428L455 411Q448 399 446 393T443 375V80Q443 52 472 52Q494 52 517 68L534 45Q510 18 483 3T434 -13Q396
-13 379 9T362 83Q326 30 288 9T204 -13Q160 -13 123 12ZM315 58T362 140V385Q323 411 274 411Q209 411 173 363T136 225Q136 139 165 99T239 58Q315 58 362 140Z" />
<glyph unicode="b" glyph-name="b" horiz-adv-x="533" d="M206 -13T161 2T88 45V611Q88 622 84 626T70 631H31L22 654Q48 678 82 693T143 709Q156 709 164 701T172 680V67Q211 38 266 38Q327 38 362 88T397 225Q397 309 363 360T272 411Q247 411 233 406T215 400Q210
400 206 406T201 419Q201 430 210 437Q251 461 302 461Q357 461 400 433T468 356T493 242Q493 170 463 112T379 20T259 -13Q206 -13 161 2Z" />
<glyph unicode="c" glyph-name="c" horiz-adv-x="460" d="M197 -13T147 18T69 103T40 224Q40 296 67 349T144 432T260 461Q330 461 374 428T419 341Q419 302 394 278T330 253Q321 253 317 255T313 262Q313 265 319 275T331 299T336 337Q336 373 313 393T250 414Q198
414 167 364T135 230Q135 146 172 97T274 48Q307 48 336 59T394 94Q396 96 402 96Q410 96 417 88T425 70Q425 63 423 63Q391 26 349 7T260 -13Q197 -13 147 18Z" />
<glyph unicode="d" glyph-name="d" horiz-adv-x="546" d="M160 -13T123 12T63 87T40 208Q40 325 103 393T275 461Q328 461 361 450V611Q361 622 357 626T344 631H304L296 654Q321 678 355 693T414 709Q427 709 435 701T443 680V80Q443 52 472 52Q494 52 517 68L534
45Q510 18 483 3T434 -13Q396 -13 379 9T362 83Q326 30 288 9T204 -13Q160 -13 123 12ZM315 58T362 140V385Q323 411 274 411Q209 411 173 363T136 225Q136 139 165 99T239 58Q315 58 362 140Z" />
<glyph unicode="e" glyph-name="e" horiz-adv-x="479" d="M186 -13T139 16T66 97T40 219Q40 291 69 346T151 431T275 461Q349 461 389 422T430 328Q430 290 410 255T350 198T257 176Q227 176 192 186T157 218Q157 226 161 232T170 238Q173 238 188 233T229 227Q284
227 314 257T344 329Q344 365 321 391T258 417Q199 417 167 366T134 219Q134 138 168 93T268 47Q348 47 400 99Q403 102 408 102Q416 102 424 94T433 77Q433 74 431 72T429 68Q395 28 349 8T249 -13Q186 -13 139 16Z" />
<glyph unicode="f" glyph-name="f" horiz-adv-x="302" d="M-32 -216T-63 -191T-95 -124Q-95 -89 -70 -66T-6 -42Q11 -42 11 -52Q11 -54 4 -63T-9 -85T-15 -117Q-15 -145 -1 -161T35 -177Q62 -177 80 -153T99 -82V394H19Q19 418 22 425T40 437L99 450Q99 572 141
640T267 709Q326 709 364 681T402 607Q402 569 377 545T313 520Q296 520 296 529Q296 532 302 542T313 566T318 604Q318 633 302 650T258 668Q218 668 199 629T180 520V450H308Q308 431 302 416T286 394H180V-12Q180 -106 139 -161T17 -216Q-32 -216 -63 -191Z"
/>
<glyph unicode="g" glyph-name="g" horiz-adv-x="545" d="M206 -253T171 -235T119 -187T101 -123Q101 -77 132 -45T217 -13Q225 -13 229 -15T233 -22Q233 -26 221 -39T199 -72T189 -120Q189 -156 210 -180T268 -205Q324 -205 350 -159T376 -34V109Q339 58 300
36T217 14Q173 14 136 36T76 102T54 208Q54 325 117 393T290 461Q324 461 386 450Q396 449 422 445T471 439L480 428L470 411Q463 401 460 394T457 375V-20Q457 -131 404 -192T257 -253Q206 -253 171 -235ZM290 83T321 103T376 166V385Q337 411 289 411Q223 411
186 363T148 225Q148 152 178 118T254 83Q290 83 321 103Z" />
<glyph unicode="h" glyph-name="h" horiz-adv-x="578" d="M422 -15T406 8T390 82V297Q390 344 372 368T312 392Q273 392 243 361T197 274T180 145Q180 103 186 77T210 28L221 14L210 0H51L40 28L60 33Q83 37 90 51T98 101V611Q98 622 94 626T80 631H39L32 654Q58
678 91 693T150 709Q163 709 171 701T180 680V326Q203 385 251 423T351 461Q417 461 444 423T472 297V78Q472 47 498 47Q519 47 543 65L562 43Q537 16 510 1T459 -15Q422 -15 406 8Z" />
<glyph unicode="i" glyph-name="i" horiz-adv-x="282" d="M123 537T103 558T83 596Q83 613 102 634T138 655Q155 655 175 634T195 596Q195 579 175 558T138 537Q123 537 103 558ZM131 -13T115 9T98 83V363Q98 375 94 380T80 385H39L32 407Q58 431 91 446T150 461Q163
461 171 454T180 434V80Q180 49 207 49Q228 49 253 68L270 45Q245 19 218 3T168 -13Q131 -13 115 9Z" />
<glyph unicode="j" glyph-name="j" horiz-adv-x="264" d="M118 537T99 558T79 596Q79 613 98 634T134 655Q151 655 171 634T191 596Q191 579 171 558T134 537Q118 537 99 558ZM-37 -253T-69 -228T-101 -160Q-101 -125 -76 -102T-12 -78Q5 -78 5 -88Q5 -90 -2 -99T-14
-120T-20 -152Q-20 -180 -6 -196T30 -213Q57 -213 75 -189T94 -118V363Q94 375 90 380T76 385H35L28 407Q54 431 87 446T146 461Q159 461 167 454T176 434V-48Q176 -142 135 -197T12 -253Q-37 -253 -69 -228Z" />
<glyph unicode="k" glyph-name="k" horiz-adv-x="528" d="M385 -13T368 -3T338 26T305 83L237 211L229 214Q212 218 212 232Q212 238 215 244T226 250Q229 250 244 246T283 241Q332 241 360 270T388 336Q388 363 372 381T326 400Q259 400 220 330T180 145Q180
102 186 76T210 28L221 14L210 0H51L40 28L60 33Q83 37 90 51T98 101V611Q98 622 94 626T80 631H39L32 654Q58 678 91 693T150 709Q163 709 171 701T180 680V326Q203 386 248 423T345 461Q405 461 437 427T470 344Q470 293 434 253T336 205L405 70Q419 45 443 45Q456
45 469 51T491 68L511 45Q468 -13 413 -13Q385 -13 368 -3Z" />
<glyph unicode="l" glyph-name="l" horiz-adv-x="272" d="M121 -13T105 9T88 83V611Q88 622 84 626T70 631H31L22 654Q48 678 82 693T143 709Q156 709 164 701T172 680L170 80Q170 65 177 57T197 49Q222 49 242 68L260 45Q237 19 209 3T159 -13Q121 -13 105 9Z" />
<glyph unicode="m" glyph-name="m" horiz-adv-x="852" d="M696 -13T680 9T663 83V299Q663 392 596 392Q559 392 530 363T483 280T465 156V145Q465 99 472 71T504 14L493 0H384V299Q384 345 367 368T315 392Q276 392 247 361T201 274T185 145Q185 103 191 77T214
28L225 14L214 0H55L46 28L63 33Q87 37 94 51T102 101V355Q102 366 98 370T84 375H45L36 399Q62 423 96 438T156 453Q169 453 177 445T185 425V326Q208 386 253 423T349 461Q405 461 433 429T465 326Q488 385 534 423T629 461Q690 461 717 422T745 299V80Q745 49
771 49Q794 49 816 68L834 45Q810 18 783 3T733 -13Q696 -13 680 9Z" />
<glyph unicode="n" glyph-name="n" horiz-adv-x="582" d="M426 -13T410 9T394 83V299Q394 345 374 368T315 392Q276 392 247 361T201 274T185 145Q185 103 191 77T214 28L225 14L214 0H55L46 28L63 33Q87 37 94 51T102 101V355Q102 366 98 370T84 375H45L36 399Q62
423 96 438T156 453Q169 453 177 445T185 425V326Q208 385 255 423T354 461Q417 461 446 422T476 299V80Q476 49 503 49Q525 49 548 68L565 45Q542 19 514 3T463 -13Q426 -13 410 9Z" />
<glyph unicode="o" glyph-name="o" horiz-adv-x="523" d="M160 -13T100 51T40 225Q40 334 100 397T262 461Q329 461 379 432T456 350T483 225Q483 153 456 99T378 16T262 -13Q160 -13 100 51ZM317 36T352 87T388 223Q388 266 376 309T337 383T265 414Q206 414
171 362T135 224Q135 138 168 87T260 36Q317 36 352 87Z" />
<glyph unicode="p" glyph-name="p" horiz-adv-x="539" d="M53 -228L63 -213Q80 -190 87 -165T94 -96V345Q94 358 90 365T75 375L28 386V414Q42 427 82 439T152 451Q175 451 175 409V405Q233 461 306 461Q361 461 405 433T473 356T498 242Q498 170 472 112T401
20T299 -13Q245 -13 209 12Q200 17 200 28Q200 38 203 44T214 51Q217 51 233 44T277 36Q333 36 367 89T402 225Q402 303 368 352T276 402Q246 402 222 394T175 367V-141Q175 -176 182 -190T213 -209L231 -213L223 -240H63L53 -228Z" />
<glyph unicode="q" glyph-name="q" horiz-adv-x="533" d="M297 -211L325 -197Q347 -189 354 -176T362 -132V83Q326 30 288 9T204 -13Q160 -13 123 12T63 87T40 208Q40 325 103 393T275 461Q310 461 374 450Q421 442 458 439L469 428L457 411Q455 408 450 399T445
375V-106Q445 -150 449 -172T468 -213L477 -228L467 -240H297V-211ZM315 58T362 140V385Q323 411 274 411Q209 411 173 363T136 225Q136 139 165 99T239 58Q315 58 362 140Z" />
<glyph unicode="r" glyph-name="r" horiz-adv-x="396" d="M46 28L63 33Q87 37 94 51T102 101V355Q102 366 98 370T84 375H45L36 399Q62 423 96 438T156 453Q169 453 177 445T185 425V326H190Q206 387 238 424T309 461Q347 461 371 437T396 369Q396 335 371 312T308
289Q290 289 290 298Q290 301 297 312T309 334T314 360Q314 377 306 386T285 396Q264 396 241 370T202 287T185 142Q185 101 191 76T214 28L225 14L214 0H55L46 28Z" />
<glyph unicode="s" glyph-name="s" horiz-adv-x="436" d="M139 -13T94 18T49 101Q49 131 70 151T125 172Q132 172 138 169T144 161Q144 158 138 144T132 109Q132 72 158 52T218 32Q256 32 280 52T304 104Q304 133 279 152T205 191Q161 210 132 227T81 272T60 340Q60
393 107 427T225 461Q290 461 332 437T374 369Q374 334 353 312T298 290Q278 290 278 303Q278 307 285 321T293 353Q293 385 270 401T218 418Q181 418 160 400T138 353Q138 319 166 298T245 257Q289 238 318 222T367 182T387 124Q387 62 338 25T207 -13Q139 -13
94 18Z" />
<glyph unicode="t" glyph-name="t" horiz-adv-x="308" d="M131 -13T110 10T89 75V394H10Q10 418 14 425T32 437Q80 449 100 477T130 551Q132 565 139 568T173 572V450H290Q290 431 285 416T270 394H173V101Q173 73 180 62T207 50Q234 50 268 79L285 55Q262 25
229 6T168 -13Q131 -13 110 10Z" />
<glyph unicode="u" glyph-name="u" horiz-adv-x="572" d="M166 -13T130 26T94 137V363Q94 385 76 385H35L28 407Q51 431 84 446T146 461Q159 461 167 454T176 434V159Q176 105 198 77T263 48Q324 48 358 100T392 246Q392 312 385 349T356 423L345 437L356 450L468
461V80Q468 52 492 52Q515 52 537 68L555 45Q533 19 506 3T454 -13Q418 -13 402 8T386 75Q364 34 323 11T231 -13Q166 -13 130 26Z" />
<glyph unicode="v" glyph-name="v" horiz-adv-x="500" d="M195 -13T167 5T122 62T95 173L65 363Q63 376 60 380T48 385H9L0 407Q24 430 56 445T114 461Q139 461 144 434L184 149Q192 95 208 71T254 46Q310 46 339 110T368 266Q368 309 358 350T327 424L319 438L329
449L438 461Q442 397 442 365Q442 245 415 160T342 31T242 -13Q195 -13 167 5Z" />
<glyph unicode="w" glyph-name="w" horiz-adv-x="736" d="M195 -13T167 5T122 62T95 173L65 363Q63 376 60 380T48 385H9L0 407Q24 430 56 445T114 461Q139 461 144 434L184 149Q192 95 208 71T254 46Q283 46 305 77T340 159T352 267Q352 310 342 351T312 425L303
438L313 450L419 461Q425 413 425 365Q425 321 419 277L438 149Q446 94 462 70T511 46Q540 46 562 77T597 159T610 267Q610 310 600 351T570 425L562 438L571 450L678 461Q682 397 682 365Q682 245 658 160T593 31T504 -13Q452 -13 422 13T376 101Q352 45 318 16T242
-13Q195 -13 167 5Z" />
<glyph unicode="x" glyph-name="x" horiz-adv-x="500" d="M337 -13T303 51L229 176Q148 85 148 58Q148 49 152 43T166 28L183 14L173 0H32L21 19Q126 122 210 210L110 380Q102 394 93 399T72 405Q62 405 38 394L18 420Q56 461 102 461Q165 461 198 399L271 275Q351
367 351 394Q351 402 347 408T334 423L314 437L326 450H468L477 432L453 408Q360 317 290 241L391 70Q399 55 407 50T429 45Q445 45 462 56L483 29Q461 7 442 -3T399 -13Q337 -13 303 51Z" />
<glyph unicode="y" glyph-name="y" horiz-adv-x="551" d="M214 -253T179 -235T126 -186T108 -123Q108 -77 139 -45T224 -13Q232 -13 236 -15T240 -22Q240 -26 228 -39T206 -72T196 -120Q196 -156 217 -180T275 -205Q331 -205 358 -159T385 -34V100Q363 60 322
37T229 14Q165 14 130 53T94 164V364Q94 376 90 381T76 386H35L28 408Q51 432 84 447T146 462Q159 462 167 455T176 435V185Q176 131 198 103T261 75Q322 75 356 120T390 247Q390 322 384 358T354 424L344 438L354 451L465 462V-20Q465 -131 411 -192T264 -253Q214
-253 179 -235Z" />
<glyph unicode="z" glyph-name="z" horiz-adv-x="434" d="M360 -9T337 -5T271 0H39L30 28L283 397H148Q113 397 100 390T81 359L70 312L42 321V460L52 473Q72 459 95 455T161 450H387Q404 434 404 411L380 396L142 52H283Q318 52 333 60T352 91L362 138L391 129V-11L380
-21Q360 -9 337 -5Z" />
<glyph unicode="{" glyph-name="braceleft" horiz-adv-x="316" d="M159 -90T114 -23T69 145Q69 215 54 244T0 282V316Q39 324 54 354T69 454Q69 556 114 623T256 701L262 661Q215 650 192 594T169 454Q169 383 143 347T70 300Q117 290 143 254T169 145Q169 62
192 6T262 -61L256 -101Q159 -90 114 -23Z" />
<glyph unicode="|" glyph-name="bar" horiz-adv-x="351" d="M114 -75V674H205V-75H114Z" />
<glyph unicode="}" glyph-name="braceright" horiz-adv-x="316" d="M23 -61Q70 -50 93 6T116 145Q116 218 142 254T215 300Q168 310 142 346T116 454Q116 538 93 594T23 661L30 701Q126 690 171 623T216 454Q216 384 231 354T286 316V282Q247 274 232 245T216
145Q216 44 171 -23T30 -101L23 -61Z" />
<glyph unicode="~" glyph-name="asciitilde" horiz-adv-x="621" d="M124 263T89 292V360Q134 331 181 331Q206 331 227 338T283 360Q315 375 337 382T386 390Q436 390 473 360V292Q430 321 381 321Q356 321 333 314T281 292Q247 277 226 270T178 263Q124 263 89 292Z" />
<glyph unicode="&#xa0;" glyph-name="uni00A0" horiz-adv-x="309" />
<glyph unicode="&#xa1;" glyph-name="exclamdown" horiz-adv-x="222" d="M94 344T74 365T54 404Q54 421 74 441T110 462Q127 462 146 442T166 404Q166 385 147 365T110 344Q94 344 74 365ZM75 -245T54 -223Q54 -171 64 -42T88 229Q93 271 110 271Q130 271 134
229Q168 -131 168 -223Q146 -245 110 -245Q75 -245 54 -223Z" />
<glyph unicode="&#xa2;" glyph-name="cent" horiz-adv-x="486" d="M216 91Q136 102 88 165T39 324Q39 419 86 482T216 560V704Q225 716 240 721T272 727V563Q336 561 377 527T418 442Q418 403 393 379T328 354Q319 354 316 356T312 362Q312 365 318 376T329 401T334
438Q334 473 311 495T248 517Q197 517 165 464T133 326Q133 246 168 197T263 148Q326 148 381 194Q384 197 390 197Q398 197 404 190T411 173Q411 166 409 164Q354 101 272 91V-53Q264 -65 248 -70T216 -76V91Z" />
<glyph unicode="&#xa3;" glyph-name="sterling" horiz-adv-x="539" d="M28 39Q77 72 105 123T133 224Q133 241 129 273H28Q28 315 48 330H115Q113 339 105 368T93 420T89 462Q89 553 143 608T309 663Q384 663 437 631T491 539Q491 498 463 470T394 442Q383 442
379 444T375 454Q375 456 382 467T396 495T402 532Q402 570 374 591T309 613Q255 613 221 579T186 449Q186 408 204 330H400Q400 313 395 298T379 273H209Q209 224 193 175T144 82H503Q503 58 496 36T473 0H51L28 39Z" />
<glyph unicode="&#xa4;" glyph-name="currency" horiz-adv-x="576" d="M57 78T50 92T43 121L132 211Q101 262 101 327Q101 392 132 443L28 550Q38 561 53 567T82 574L170 485Q219 521 286 521Q355 521 405 484L509 588Q520 578 527 563T534 534L442 441Q473 388
473 327Q473 268 442 215L549 107Q520 82 494 82L405 173Q360 135 286 135Q218 135 172 170L68 67Q57 78 50 92ZM326 184T354 223T383 330Q383 398 359 435T292 473Q246 473 218 434T190 325Q190 257 214 221T280 184Q326 184 354 223Z" />
<glyph unicode="&#xa5;" glyph-name="yen" horiz-adv-x="566" d="M194 15L206 31Q229 62 238 94T248 182V211H60Q60 254 81 268H247L196 357H60Q60 400 81 414H164L103 521Q76 567 58 591T13 636L23 650H229L239 619L219 614Q197 610 188 601T178 574Q178 567
187 550T206 518L305 346L406 529Q417 551 417 566Q417 585 406 597T378 614L358 619L369 650H541L553 636L539 619Q501 572 476 523L413 414H524Q524 373 503 357H381L335 274V268H524Q524 227 503 211H335V120Q335 79 347 62T395 36L414 31L404 0H206L194 15Z"
/>
<glyph unicode="&#xa6;" glyph-name="brokenbar" horiz-adv-x="317" d="M114 410V674H205V410H114ZM114 -75V190H205V-75H114Z" />
<glyph unicode="&#xa7;" glyph-name="section" horiz-adv-x="397" d="M144 322Q105 369 85 414T64 497Q64 565 104 613T231 662Q291 662 329 635T367 563Q367 524 342 499T277 473Q261 473 261 483Q261 486 267 496T277 520T282 558Q282 586 263 603T214 621Q176
621 151 598T126 533Q126 500 144 464T210 371Q290 277 290 201Q290 186 282 156L144 322ZM107 -231T69 -203T31 -131Q31 -92 56 -68T119 -43Q137 -43 137 -52Q137 -55 131 -65T120 -90T115 -127Q115 -156 134 -173T184 -191Q222 -191 247 -168T272 -102Q272 -69
254 -33T188 59Q108 157 108 229Q108 254 115 275L255 107Q293 62 313 17T334 -67Q334 -134 293 -182T166 -231Q107 -231 69 -203Z" />
<glyph unicode="&#xa8;" glyph-name="dieresis" horiz-adv-x="381" d="M88 537T69 558T49 596Q49 613 68 634T104 655Q121 655 141 634T162 596Q162 579 142 558T104 537Q88 537 69 558ZM260 537T241 558T221 596Q221 613 240 634T275 655Q292 655 313 634T334
596Q334 579 313 558T275 537Q260 537 241 558Z" />
<glyph unicode="&#xa9;" glyph-name="copyright" horiz-adv-x="704" d="M282 189T222 224T127 320T91 451Q91 522 126 582T222 677T353 713Q424 713 484 678T579 582T614 451Q614 381 579 321T484 225T353 189Q282 189 222 224ZM417 213T471 245T558 332T590 451Q590
516 558 570T472 657T353 689Q288 689 234 657T147 571T114 451Q114 387 146 332T234 245T353 213Q417 213 471 245ZM278 271T237 322T195 454Q195 533 236 585T356 637Q402 637 437 615L444 631H468V533Q461 521 437 521L425 567Q396 604 356 604Q305 604 282
560T259 454Q259 392 286 351T359 310Q390 310 413 322T452 358L476 339Q453 305 424 288T356 271Q278 271 237 322Z" />
<glyph unicode="&#xaa;" glyph-name="ordfeminine" horiz-adv-x="360" d="M91 326T66 349T40 409Q40 456 76 482T173 509Q203 509 222 505V558Q222 624 178 624Q129 624 129 556Q114 541 93 541Q78 541 68 551T58 576Q58 611 93 636T178 662Q236 662 263 634T290
546V396Q290 381 303 381Q313 381 335 394L352 370Q306 326 274 326Q250 326 238 338T223 375Q208 352 183 339T129 326Q91 326 66 349ZM184 376T202 402T222 470Q215 473 186 473Q151 473 133 459T114 418Q114 399 125 388T156 376Q184 376 202 402Z" />
<glyph unicode="&#xab;" glyph-name="guillemotleft" horiz-adv-x="458" d="M85 165T66 201T46 254Q46 268 66 305T146 440Q169 438 187 430T224 399Q212 376 185 345T100 254Q153 196 182 163T224 106Q205 83 187 75T146 64Q85 165 66 201ZM321 88T312 104Q265
180 250 209T234 254Q234 268 253 301T336 440Q358 438 376 430T412 399Q392 360 290 254Q391 147 412 106Q395 83 377 75T336 64Q321 88 312 104Z" />
<glyph unicode="&#xac;" glyph-name="logicalnot" horiz-adv-x="563" d="M411 151V290H89V357H473V151H411Z" />
<glyph unicode="&#xad;" glyph-name="uni00AD" horiz-adv-x="600" d="M30 247T35 264T53 292L292 302Q292 283 286 266T268 237L30 229Q30 247 35 264Z" />
<glyph unicode="&#xae;" glyph-name="registered" horiz-adv-x="704" d="M282 189T222 224T127 320T91 451Q91 522 126 582T222 677T353 713Q424 713 484 678T579 582T614 451Q614 381 579 321T484 225T353 189Q282 189 222 224ZM417 213T471 245T558 332T590
451Q590 516 558 570T472 657T353 689Q288 689 234 657T147 571T114 451Q114 387 146 332T234 245T353 213Q417 213 471 245ZM221 298L241 310Q246 313 248 315T250 324V590L221 602Q221 623 233 631H334Q406 631 438 605T471 534Q471 504 454 478T405 438Q408
434 414 428T424 416L479 313L506 304Q506 284 494 276H416L407 285L411 292Q412 295 414 300T416 309Q416 311 414 315T409 324L367 405Q362 416 356 420T336 425H309V315L339 307Q339 286 325 276H221V298ZM337 457Q374 457 391 478T408 531Q408 560 391 577T334
595Q323 595 316 592T309 580V457H337Z" />
<glyph unicode="&#xaf;" glyph-name="overscore" horiz-adv-x="368" d="M51 579T57 600T75 631H318Q318 610 313 590T295 559H51Q51 579 57 600Z" />
<glyph unicode="&#xb0;" glyph-name="degree" horiz-adv-x="394" d="M123 326T80 372T36 494Q36 571 79 616T196 662Q271 662 314 617T357 494Q357 418 314 372T196 326Q123 326 80 372ZM230 369T254 403T279 497Q279 556 259 587T201 619Q161 619 137 585T113
491Q113 433 134 401T192 369Q230 369 254 403Z" />
<glyph unicode="&#xb1;" glyph-name="plusminus" horiz-adv-x="563" d="M247 132V290H89V357H247V517H314V357H473V290H314V132H247ZM89 0V67H473V0H89Z" />
<glyph unicode="&#xb2;" glyph-name="uni00B2" horiz-adv-x="351" d="M25 295Q110 365 154 411T213 490T229 558Q229 588 212 604T170 620Q145 620 127 604T109 560Q109 548 117 532T126 511Q126 501 104 501Q76 501 57 518T38 563Q38 611 77 637T172 663Q237
663 274 635T311 557Q311 506 263 449T129 322H321Q321 304 316 288T298 261H42L25 295Z" />
<glyph unicode="&#xb3;" glyph-name="uni00B3" horiz-adv-x="351" d="M113 255T74 279T35 347Q35 374 54 391T102 409Q116 409 120 407T124 396Q123 395 121 393T118 387Q117 386 112 377T107 352Q107 328 125 314T168 300Q196 300 215 318T234 369Q234 398 218
420T156 443Q147 443 119 439Q118 438 112 438Q95 438 95 453Q95 464 100 469T131 478Q187 488 206 511T225 563Q225 590 208 605T167 621Q147 621 133 608T118 572Q118 556 128 536L133 526Q133 520 128 518T113 515Q84 515 65 531T46 575Q46 618 81 640T168 663Q222
663 262 637T303 564Q303 533 285 509T233 471Q272 457 292 429T313 365Q313 312 275 284T168 255Q113 255 74 279Z" />
<glyph unicode="&#xb4;" glyph-name="acute" horiz-adv-x="261" d="M58 547L197 688Q236 670 236 631Q236 591 186 566L83 517L58 547Z" />
<glyph unicode="&#xb5;" glyph-name="uni00B5" horiz-adv-x="557" d="M75 -178L63 -166L75 -148Q82 -139 84 -130T87 -103V345Q87 358 83 365T67 375L20 386V414Q35 427 76 439T146 451Q158 451 163 441T168 409V159Q168 48 260 48Q313 48 347 90T381 198V370Q381
382 379 391T369 411L357 428L369 439L462 451V0L452 -13Q416 -13 399 8T381 75Q361 36 324 12T247 -13Q199 -13 168 18V-189L75 -178Z" />
<glyph unicode="&#xb6;" glyph-name="paragraph" horiz-adv-x="559" d="M217 -183T180 -155T143 -82Q143 -43 167 -19T230 6Q248 6 248 -3Q248 -6 238 -24T227 -78Q227 -107 246 -125T296 -143Q334 -143 359 -119T385 -53Q385 -20 366 16T300 107L156 275Q108
332 85 387T61 490Q61 541 85 580T153 641T253 663Q303 663 383 649Q434 641 456 639L468 628L455 612Q443 592 443 576V-18Q443 -86 403 -134T277 -183Q217 -183 180 -155ZM360 450Q360 526 327 569T226 613Q188 613 160 587T131 515Q131 476 152 428T222 324L360
163V450Z" />
<glyph unicode="&#xb7;" glyph-name="middot" horiz-adv-x="173" d="M69 232T50 253T30 291Q30 310 49 331T85 352Q101 352 122 331T143 291Q143 275 122 254T85 232Q69 232 50 253Z" />
<glyph unicode="&#xb8;" glyph-name="cedilla" horiz-adv-x="316" d="M108 -267T79 -249T50 -197Q50 -174 67 -160T107 -145Q124 -145 124 -153Q124 -156 117 -166T110 -193Q110 -209 121 -219T147 -229Q174 -229 189 -209T205 -161Q205 -133 190 -114T144 -94Q120
-94 95 -108L77 -93L169 28H206L135 -63Q152 -60 169 -60Q212 -60 241 -86T271 -162Q271 -206 236 -236T148 -267Q108 -267 79 -249Z" />
<glyph unicode="&#xb9;" glyph-name="uni00B9" horiz-adv-x="289" d="M59 295L89 304Q106 308 111 315T117 344V581L63 547Q47 551 34 564T13 593L172 666Q189 662 205 637L188 628V381Q188 347 192 328T211 295L222 281L210 267H69L59 295Z" />
<glyph unicode="&#xba;" glyph-name="ordmasculine" horiz-adv-x="394" d="M123 326T80 372T36 494Q36 571 79 616T196 662Q271 662 314 617T357 494Q357 418 314 372T196 326Q123 326 80 372ZM237 369T258 401T279 489Q279 548 255 584T191 621Q156 621 135 587T113
494Q113 437 137 403T201 369Q237 369 258 401Z" />
<glyph unicode="&#xbb;" glyph-name="guillemotright" horiz-adv-x="458" d="M101 67T83 75T46 106Q57 129 88 165T169 254Q117 308 87 342T46 399Q64 422 82 430T124 440Q186 338 205 303T224 254Q224 238 208 207T142 95Q138 87 133 79T124 64Q101 67 83 75ZM290
67T272 75T234 106Q246 129 275 162T358 254Q301 314 274 345T234 399Q253 422 271 430T313 440Q371 345 391 307T412 254Q412 236 392 199T313 64Q290 67 272 75Z" />
<glyph unicode="&#xbc;" glyph-name="onequarter" horiz-adv-x="922" d="M116 295L147 304Q165 308 170 315T176 344V581L121 547Q105 550 92 563T70 593L229 666Q247 661 263 637L246 628V381Q246 348 251 329T270 295L279 281L268 267H128L116 295ZM266 0L537
650H603L329 0H266ZM648 28L680 36Q696 40 701 47T706 77V86H515L644 395H688L705 381L592 132H706V198Q706 217 704 226T693 247L705 260L779 268V132H829Q829 101 811 86H779Q781 65 786 52T801 28L811 15L800 0H660L648 28Z" />
<glyph unicode="&#xbd;" glyph-name="onehalf" horiz-adv-x="922" d="M116 295L147 304Q165 308 170 315T176 344V581L121 547Q105 550 92 563T70 593L229 666Q247 661 263 637L246 628V381Q246 348 251 329T270 295L279 281L268 267H128L116 295ZM248 0L520 650H585L312
0H248ZM525 34Q610 104 654 150T714 229T730 297Q730 327 713 343T671 359Q646 359 628 343T610 299Q610 287 618 271T627 250Q627 240 605 240Q577 240 558 258T539 303Q539 350 578 376T672 402Q737 402 774 374T812 296Q812 245 764 189T630 62H822Q822 20 799
0H542L525 34Z" />
<glyph unicode="&#xbe;" glyph-name="threequarters" horiz-adv-x="922" d="M142 255T103 279T64 347Q64 374 83 391T131 409Q144 409 148 407T152 396Q150 396 147 387Q146 384 141 375T136 352Q136 328 154 314T197 300Q225 300 244 318T264 369Q264 397 247
420T185 443Q176 443 148 439Q147 438 142 438Q124 438 124 453Q124 464 129 469T160 478Q216 488 235 511T254 563Q254 591 237 606T196 621Q176 621 162 608T147 572Q147 556 157 536L162 526Q162 520 158 518T143 515Q113 515 94 531T75 575Q75 618 110 640T197
663Q251 663 291 637T331 564Q331 532 313 509T263 471Q301 457 322 429T343 365Q343 312 304 284T197 255Q142 255 103 279ZM294 0L565 650H631L357 0H294ZM648 28L680 36Q696 40 701 47T706 77V86H515L644 395H688L705 381L592 132H706V198Q706 217 704 226T693
247L705 260L779 268V132H829Q829 101 811 86H779Q781 65 786 52T801 28L811 15L800 0H660L648 28Z" />
<glyph unicode="&#xbf;" glyph-name="questiondown" horiz-adv-x="486" d="M259 344T239 365T219 404Q219 421 239 441T276 462Q292 462 311 442T331 404Q331 385 312 365T276 344Q259 344 239 365ZM197 -238T154 -219T84 -164T58 -79Q58 18 185 140Q221 173 237
192T261 237L265 255H282L339 197Q264 133 225 84T174 -2T161 -74Q161 -129 191 -157T271 -186Q310 -186 333 -165T356 -108Q356 -72 346 -54T336 -33Q336 -22 353 -22Q391 -22 416 -47T441 -112Q441 -168 388 -203T250 -238Q197 -238 154 -219Z" />
<glyph unicode="&#xc0;" glyph-name="Agrave" horiz-adv-x="639" d="M280 767Q229 790 229 831Q229 871 268 890L409 747L384 717L280 767ZM-15 31L6 36Q43 47 59 62T89 120L231 530Q241 562 241 574Q241 591 232 600T201 614L180 619L191 650H365L548 126Q563
83 579 62T630 15L618 0H413L403 31L425 36Q446 41 455 50T465 77Q465 87 461 100T454 120L411 247H202L180 181Q160 119 160 86Q160 53 173 31L180 15L163 0H-3L-15 31ZM222 304H393L306 558L222 304Z" />
<glyph unicode="&#xc1;" glyph-name="Aacute" horiz-adv-x="639" d="M230 747L371 890Q409 871 409 831Q409 790 359 767L257 717L230 747ZM-15 31L6 36Q43 47 59 62T89 120L231 530Q241 562 241 574Q241 591 232 600T201 614L180 619L191 650H365L548 126Q563
83 579 62T630 15L618 0H413L403 31L425 36Q446 41 455 50T465 77Q465 87 461 100T454 120L411 247H202L180 181Q160 119 160 86Q160 53 173 31L180 15L163 0H-3L-15 31ZM222 304H393L306 558L222 304Z" />
<glyph unicode="&#xc2;" glyph-name="Acircumflex" horiz-adv-x="639" d="M195 741Q223 791 256 832T308 884H331Q348 874 381 833T443 741L414 717L319 791L226 717L195 741ZM-15 31L6 36Q43 47 59 62T89 120L231 530Q241 562 241 574Q241 591 232 600T201 614L180
619L191 650H365L548 126Q563 83 579 62T630 15L618 0H413L403 31L425 36Q446 41 455 50T465 77Q465 87 461 100T454 120L411 247H202L180 181Q160 119 160 86Q160 53 173 31L180 15L163 0H-3L-15 31ZM222 304H393L306 558L222 304Z" />
<glyph unicode="&#xc3;" glyph-name="Atilde" horiz-adv-x="639" d="M172 765Q202 805 232 828T288 852Q301 852 310 848T337 834Q348 826 356 823T373 819Q396 819 436 856L466 827Q438 787 407 763T351 739Q336 739 326 743T299 757Q291 762 282 766T264 771Q237
771 204 735L172 765ZM-15 31L6 36Q43 47 59 62T89 120L231 530Q241 562 241 574Q241 591 232 600T201 614L180 619L191 650H365L548 126Q563 83 579 62T630 15L618 0H413L403 31L425 36Q446 41 455 50T465 77Q465 87 461 100T454 120L411 247H202L180 181Q160
119 160 86Q160 53 173 31L180 15L163 0H-3L-15 31ZM222 304H393L306 558L222 304Z" />
<glyph unicode="&#xc4;" glyph-name="Adieresis" horiz-adv-x="639" d="M217 737T198 758T178 796Q178 813 197 834T232 856Q249 856 270 835T291 796Q291 779 270 758T232 737Q217 737 198 758ZM389 737T369 758T349 796Q349 813 368 834T404 856Q421 856 441
835T462 796Q462 779 442 758T404 737Q389 737 369 758ZM-15 31L6 36Q43 47 59 62T89 120L231 530Q241 562 241 574Q241 591 232 600T201 614L180 619L191 650H365L548 126Q563 83 579 62T630 15L618 0H413L403 31L425 36Q446 41 455 50T465 77Q465 87 461 100T454
120L411 247H202L180 181Q160 119 160 86Q160 53 173 31L180 15L163 0H-3L-15 31ZM222 304H393L306 558L222 304Z" />
<glyph unicode="&#xc5;" glyph-name="Aring" horiz-adv-x="639" d="M270 700T243 727T216 796Q216 839 243 866T318 894Q369 894 396 867T423 796Q423 754 396 727T318 700Q270 700 243 727ZM337 744T347 758T357 796Q357 820 347 835T318 850Q301 850 290 835T279
796Q279 775 290 760T318 744Q337 744 347 758ZM-15 31L6 36Q43 47 59 62T89 120L231 530Q241 562 241 574Q241 591 232 600T201 614L180 619L191 650H365L548 126Q563 83 579 62T630 15L618 0H413L403 31L425 36Q446 41 455 50T465 77Q465 87 461 100T454 120L411
247H202L180 181Q160 119 160 86Q160 53 173 31L180 15L163 0H-3L-15 31ZM222 304H393L306 558L222 304Z" />
<glyph unicode="&#xc6;" glyph-name="AE" horiz-adv-x="873" d="M791 -13Q783 0 753 0H371L361 29L381 34Q415 44 426 59T437 114V277H257L181 140Q169 117 166 103T162 71Q162 59 167 47T174 31L182 15L165 0H-2L-13 31L9 36Q33 42 49 52T79 85L394 650H672Q752
650 775 669L792 681L807 669V508L775 497L770 519Q761 552 751 569T722 593T671 600H583Q548 600 537 586T525 530V328H640Q662 328 679 337T712 370L719 381L737 370V216L706 205L701 226Q693 257 673 267T603 277H525V120Q525 91 529 77T546 57T583 52H681Q714
52 732 58T760 82T780 132L785 152L815 143V-13L798 -22L791 -13ZM285 328H437V603L285 328Z" />
<glyph unicode="&#xc7;" glyph-name="Ccedilla" horiz-adv-x="559" d="M230 -267T200 -249T170 -197Q170 -174 187 -160T228 -145Q244 -145 244 -153Q244 -156 237 -166T230 -193Q230 -209 241 -219T268 -229Q294 -229 309 -209T325 -161Q325 -133 310 -114T264
-94Q240 -94 215 -108L197 -93L262 -7Q149 13 91 103T32 324Q32 421 64 497T162 618T324 663Q383 663 429 646T501 599T527 530Q527 484 500 455T432 425Q411 425 411 436Q411 438 419 450T433 479T439 518Q439 560 408 586T324 613Q257 613 215 571T153 464T134
324Q134 249 158 186T226 87T329 50Q387 50 430 71T500 131Q503 135 506 135Q515 135 525 127T535 109Q535 106 533 102Q453 -13 321 -13L295 -12L256 -63Q274 -60 290 -60Q333 -60 362 -86T392 -162Q392 -206 357 -236T270 -267Q230 -267 200 -249Z" />
<glyph unicode="&#xc8;" glyph-name="Egrave" horiz-adv-x="551" d="M241 767Q190 790 190 831Q190 871 229 890L370 747L344 717L241 767ZM471 -13Q464 -6 456 -3T433 0H51L40 29L60 34Q93 44 104 59T115 114V469Q115 523 106 556T75 619L63 636L75 650H352Q431
650 454 669L472 681L485 669V508L454 497L449 519Q437 568 418 584T352 600H263Q228 600 217 586T205 530V356H320Q343 356 359 365T392 397L399 407L417 397V242L387 231L381 254Q371 285 351 295T281 305H205V120Q205 91 209 77T226 57T263 52H360Q393 52 411
58T439 82T459 132L465 152L495 143V-13L478 -22L471 -13Z" />
<glyph unicode="&#xc9;" glyph-name="Eacute" horiz-adv-x="551" d="M218 747L358 890Q396 871 396 831Q396 790 347 767L244 717L218 747ZM471 -13Q464 -6 456 -3T433 0H51L40 29L60 34Q93 44 104 59T115 114V469Q115 523 106 556T75 619L63 636L75 650H352Q431
650 454 669L472 681L485 669V508L454 497L449 519Q437 568 418 584T352 600H263Q228 600 217 586T205 530V356H320Q343 356 359 365T392 397L399 407L417 397V242L387 231L381 254Q371 285 351 295T281 305H205V120Q205 91 209 77T226 57T263 52H360Q393 52 411
58T439 82T459 132L465 152L495 143V-13L478 -22L471 -13Z" />
<glyph unicode="&#xca;" glyph-name="Ecircumflex" horiz-adv-x="551" d="M165 741Q193 791 225 832T277 884H302Q319 874 352 833T413 741L385 717L289 791L195 717L165 741ZM471 -13Q464 -6 456 -3T433 0H51L40 29L60 34Q93 44 104 59T115 114V469Q115 523 106
556T75 619L63 636L75 650H352Q431 650 454 669L472 681L485 669V508L454 497L449 519Q437 568 418 584T352 600H263Q228 600 217 586T205 530V356H320Q343 356 359 365T392 397L399 407L417 397V242L387 231L381 254Q371 285 351 295T281 305H205V120Q205 91 209
77T226 57T263 52H360Q393 52 411 58T439 82T459 132L465 152L495 143V-13L478 -22L471 -13Z" />
<glyph unicode="&#xcb;" glyph-name="Edieresis" horiz-adv-x="551" d="M186 737T166 758T146 796Q146 813 165 834T201 856Q218 856 239 835T260 796Q260 779 239 758T201 737Q186 737 166 758ZM358 737T338 758T318 796Q318 813 337 834T373 856Q390 856 411
835T432 796Q432 779 411 758T373 737Q358 737 338 758ZM471 -13Q464 -6 456 -3T433 0H51L40 29L60 34Q93 44 104 59T115 114V469Q115 523 106 556T75 619L63 636L75 650H352Q431 650 454 669L472 681L485 669V508L454 497L449 519Q437 568 418 584T352 600H263Q228
600 217 586T205 530V356H320Q343 356 359 365T392 397L399 407L417 397V242L387 231L381 254Q371 285 351 295T281 305H205V120Q205 91 209 77T226 57T263 52H360Q393 52 411 58T439 82T459 132L465 152L495 143V-13L478 -22L471 -13Z" />
<glyph unicode="&#xcc;" glyph-name="Igrave" horiz-adv-x="319" d="M120 767Q69 790 69 831Q69 870 108 890L249 747L224 717L120 767ZM36 31L58 36Q93 47 104 62T115 120V530Q115 572 104 588T58 614L36 619L47 650H246L258 636L246 619Q223 590 214 557T205
469V114Q205 75 216 60T260 34L278 29L270 0H47L36 31Z" />
<glyph unicode="&#xcd;" glyph-name="Iacute" horiz-adv-x="319" d="M78 747L218 890Q257 870 257 831Q257 791 207 767L104 717L78 747ZM36 31L58 36Q93 47 104 62T115 120V530Q115 572 104 588T58 614L36 619L47 650H246L258 636L246 619Q223 590 214 557T205
469V114Q205 75 216 60T260 34L278 29L270 0H47L36 31Z" />
<glyph unicode="&#xce;" glyph-name="Icircumflex" horiz-adv-x="319" d="M36 741Q64 791 96 832T148 884H173Q190 874 223 833T285 741L256 717L160 791L66 717L36 741ZM36 31L58 36Q93 47 104 62T115 120V530Q115 572 104 588T58 614L36 619L47 650H246L258
636L246 619Q223 590 214 557T205 469V114Q205 75 216 60T260 34L278 29L270 0H47L36 31Z" />
<glyph unicode="&#xcf;" glyph-name="Idieresis" horiz-adv-x="319" d="M57 737T38 758T18 796Q18 813 37 834T72 856Q89 856 110 835T131 796Q131 779 110 758T72 737Q57 737 38 758ZM229 737T209 758T189 796Q189 813 208 834T244 856Q261 856 282 835T303 796Q303
779 282 758T244 737Q229 737 209 758ZM36 31L58 36Q93 47 104 62T115 120V530Q115 572 104 588T58 614L36 619L47 650H246L258 636L246 619Q223 590 214 557T205 469V114Q205 75 216 60T260 34L278 29L270 0H47L36 31Z" />
<glyph unicode="&#xd0;" glyph-name="Eth" horiz-adv-x="663" d="M36 31L58 36Q86 45 100 60T115 110V302H10Q10 319 14 334T30 357H115V568Q115 580 110 584T95 589H43L32 623Q75 638 144 650T277 663Q466 663 549 569T632 324Q632 232 598 159T497 43T331 0H47L36
31ZM534 46T534 326Q534 403 508 468T427 573T294 613Q205 613 205 570V357H381Q381 341 376 326T360 302H205V159Q205 94 232 70T303 46Q534 46 534 326Z" />
<glyph unicode="&#xd1;" glyph-name="Ntilde" horiz-adv-x="705" d="M213 765Q243 805 273 828T329 852Q342 852 351 848T378 834Q389 826 397 823T414 819Q437 819 477 856L507 827Q479 787 448 763T392 739Q377 739 367 743T341 757Q339 758 328 764T306 771Q278
771 245 735L213 765ZM31 31L52 36Q87 47 98 62T109 120V530Q109 572 98 588T52 614L31 619L42 650H188L534 137V530Q534 571 522 588T476 614L454 619L467 650H637L650 636L637 619Q615 590 606 557T597 469V80Q597 52 610 31L621 15L610 0H519L174 513V182Q174
126 182 93T214 31L226 15L214 0H42L31 31Z" />
<glyph unicode="&#xd2;" glyph-name="Ograve" horiz-adv-x="663" d="M292 767Q241 790 241 831Q241 870 279 890L421 747L395 717L292 767ZM233 -13T166 31T66 152T32 324Q32 420 65 497T166 618T331 663Q429 663 496 619T598 497T632 324Q632 228 598 152T497
32T331 -13Q233 -13 166 31ZM391 40T437 77T509 179T534 321Q534 387 515 453T452 566T337 612Q273 612 226 573T155 466T130 316Q130 196 181 118T327 40Q391 40 437 77Z" />
<glyph unicode="&#xd3;" glyph-name="Oacute" horiz-adv-x="663" d="M242 747L383 890Q421 870 421 831Q421 791 371 767L268 717L242 747ZM233 -13T166 31T66 152T32 324Q32 420 65 497T166 618T331 663Q429 663 496 619T598 497T632 324Q632 228 598 152T497
32T331 -13Q233 -13 166 31ZM391 40T437 77T509 179T534 321Q534 387 515 453T452 566T337 612Q273 612 226 573T155 466T130 316Q130 196 181 118T327 40Q391 40 437 77Z" />
<glyph unicode="&#xd4;" glyph-name="Ocircumflex" horiz-adv-x="663" d="M208 741Q236 791 268 832T320 884H344Q361 874 394 833T456 741L427 717L331 791L238 717L208 741ZM233 -13T166 31T66 152T32 324Q32 420 65 497T166 618T331 663Q429 663 496 619T598
497T632 324Q632 228 598 152T497 32T331 -13Q233 -13 166 31ZM391 40T437 77T509 179T534 321Q534 387 515 453T452 566T337 612Q273 612 226 573T155 466T130 316Q130 196 181 118T327 40Q391 40 437 77Z" />
<glyph unicode="&#xd5;" glyph-name="Otilde" horiz-adv-x="663" d="M185 765Q215 805 246 828T302 852Q324 852 350 834Q361 826 369 823T387 819Q411 819 449 856L479 827Q450 787 419 763T363 739Q348 739 337 743T312 757Q304 762 295 766T277 771Q265 771
249 762T217 735L185 765ZM233 -13T166 31T66 152T32 324Q32 420 65 497T166 618T331 663Q429 663 496 619T598 497T632 324Q632 228 598 152T497 32T331 -13Q233 -13 166 31ZM391 40T437 77T509 179T534 321Q534 387 515 453T452 566T337 612Q273 612 226 573T155
466T130 316Q130 196 181 118T327 40Q391 40 437 77Z" />
<glyph unicode="&#xd6;" glyph-name="Odieresis" horiz-adv-x="663" d="M230 737T210 758T190 796Q190 813 209 834T245 856Q262 856 283 835T304 796Q304 779 283 758T245 737Q230 737 210 758ZM401 737T381 758T361 796Q361 813 381 834T417 856Q434 856 454
835T475 796Q475 779 455 758T417 737Q401 737 381 758ZM233 -13T166 31T66 152T32 324Q32 420 65 497T166 618T331 663Q429 663 496 619T598 497T632 324Q632 228 598 152T497 32T331 -13Q233 -13 166 31ZM391 40T437 77T509 179T534 321Q534 387 515 453T452
566T337 612Q273 612 226 573T155 466T130 316Q130 196 181 118T327 40Q391 40 437 77Z" />
<glyph unicode="&#xd7;" glyph-name="multiply" horiz-adv-x="621" d="M149 144L101 192L231 323L101 454L149 503L280 372L411 503L460 454L329 323L460 192L411 144L280 274L149 144Z" />
<glyph unicode="&#xd8;" glyph-name="Oslash" horiz-adv-x="663" d="M190 18Q112 56 72 137T32 324Q32 420 65 497T166 618T331 663Q368 663 416 652L436 708H501L474 631Q552 592 592 511T632 324Q632 228 598 152T497 32T331 -13Q293 -13 247 -2L228 -58H164L190
18ZM396 602Q362 612 337 612Q273 612 226 573T155 466T130 316Q130 240 151 179T213 81L396 602ZM391 40T437 77T509 179T534 321Q534 389 514 457T451 567L266 51Q294 40 327 40Q391 40 437 77Z" />
<glyph unicode="&#xd9;" glyph-name="Ugrave" horiz-adv-x="669" d="M295 767Q244 790 244 831Q244 870 282 890L424 747L397 717L295 767ZM233 -13T167 39T101 198V530Q101 572 90 588T43 614L21 619L33 650H230L242 636L230 619Q208 589 199 556T190 469V198Q190
127 236 86T351 45Q419 45 464 86T509 198V530Q509 572 498 588T451 614L430 619L441 650H613L625 636L613 619Q590 590 581 557T572 469V198Q572 92 508 40T339 -13Q233 -13 167 39Z" />
<glyph unicode="&#xda;" glyph-name="Uacute" horiz-adv-x="669" d="M277 747L418 890Q456 870 456 831Q456 791 406 767L304 717L277 747ZM233 -13T167 39T101 198V530Q101 572 90 588T43 614L21 619L33 650H230L242 636L230 619Q208 589 199 556T190 469V198Q190
127 236 86T351 45Q419 45 464 86T509 198V530Q509 572 498 588T451 614L430 619L441 650H613L625 636L613 619Q590 590 581 557T572 469V198Q572 92 508 40T339 -13Q233 -13 167 39Z" />
<glyph unicode="&#xdb;" glyph-name="Ucircumflex" horiz-adv-x="669" d="M226 741Q254 791 286 832T338 884H361Q379 874 412 833T474 741L444 717L349 791L256 717L226 741ZM233 -13T167 39T101 198V530Q101 572 90 588T43 614L21 619L33 650H230L242 636L230
619Q208 589 199 556T190 469V198Q190 127 236 86T351 45Q419 45 464 86T509 198V530Q509 572 498 588T451 614L430 619L441 650H613L625 636L613 619Q590 590 581 557T572 469V198Q572 92 508 40T339 -13Q233 -13 167 39Z" />
<glyph unicode="&#xdc;" glyph-name="Udieresis" horiz-adv-x="669" d="M244 737T225 758T205 796Q205 813 224 834T260 856Q277 856 297 835T318 796Q318 779 298 758T260 737Q244 737 225 758ZM416 737T396 758T376 796Q376 813 396 834T432 856Q448 856 468
835T489 796Q489 779 469 758T432 737Q416 737 396 758ZM233 -13T167 39T101 198V530Q101 572 90 588T43 614L21 619L33 650H230L242 636L230 619Q208 589 199 556T190 469V198Q190 127 236 86T351 45Q419 45 464 86T509 198V530Q509 572 498 588T451 614L430 619L441
650H613L625 636L613 619Q590 590 581 557T572 469V198Q572 92 508 40T339 -13Q233 -13 167 39Z" />
<glyph unicode="&#xdd;" glyph-name="Yacute" horiz-adv-x="566" d="M237 747L377 890Q416 870 416 831Q416 791 365 767L263 717L237 747ZM186 15L197 31Q220 61 230 94T240 182V267L95 521Q69 566 50 590T4 636L16 650H221L230 619L211 614Q189 609 179 600T169
574Q169 563 197 518L296 346L397 529Q408 551 408 566Q408 585 397 597T370 614L351 619L360 650H533L544 636L531 619Q493 572 468 523L326 274V120Q326 79 339 62T387 36L406 31L396 0H197L186 15Z" />
<glyph unicode="&#xde;" glyph-name="Thorn" horiz-adv-x="539" d="M36 31L58 36Q93 47 104 62T115 120V530Q115 572 104 588T58 614L36 619L47 650H246L258 636L246 619Q215 578 208 526Q255 544 309 544Q370 544 418 515T494 437T521 328Q521 270 498 223T426
147T305 118Q272 118 249 126T225 148Q225 172 239 172Q242 172 254 169T283 165Q351 165 389 208T428 326Q428 402 391 449T283 497Q205 497 205 451V114Q205 75 216 60T260 34L278 29L270 0H47L36 31Z" />
<glyph unicode="&#xdf;" glyph-name="germandbls" horiz-adv-x="575" d="M334 -13T290 10Q281 16 281 28Q281 51 296 51Q301 51 326 42T395 33Q428 33 453 51T479 106Q479 140 456 166T390 216L321 250Q284 272 268 296T251 357Q251 380 264 403T305 461Q337 502
353 530T369 592Q369 629 348 645T296 662Q237 662 209 616T180 491V182Q180 126 189 94T222 31L232 15L222 0H22L12 31L33 36Q68 47 79 62T91 120V477Q91 550 119 602T199 682T316 709Q376 709 414 679T452 592Q452 561 436 536T386 476Q358 446 345 427T331 385Q331
362 342 345T380 314L443 282Q559 224 559 131Q559 93 538 60T479 7T394 -13Q334 -13 290 10Z" />
<glyph unicode="&#xe0;" glyph-name="agrave" horiz-adv-x="546" d="M234 566Q207 579 196 595T184 631Q184 670 223 688L363 547L338 517L234 566ZM160 -13T123 12T63 87T40 208Q40 325 103 393T275 461Q311 461 373 450Q419 442 456 439L468 428L455 411Q448
399 446 393T443 375V80Q443 52 472 52Q494 52 517 68L534 45Q510 18 483 3T434 -13Q396 -13 379 9T362 83Q326 30 288 9T204 -13Q160 -13 123 12ZM315 58T362 140V385Q323 411 274 411Q209 411 173 363T136 225Q136 139 165 99T239 58Q315 58 362 140Z" />
<glyph unicode="&#xe1;" glyph-name="aacute" horiz-adv-x="546" d="M184 547L324 688Q362 671 362 631Q362 611 351 595T313 566L210 517L184 547ZM160 -13T123 12T63 87T40 208Q40 325 103 393T275 461Q311 461 373 450Q419 442 456 439L468 428L455 411Q448
399 446 393T443 375V80Q443 52 472 52Q494 52 517 68L534 45Q510 18 483 3T434 -13Q396 -13 379 9T362 83Q326 30 288 9T204 -13Q160 -13 123 12ZM315 58T362 140V385Q323 411 274 411Q209 411 173 363T136 225Q136 139 165 99T239 58Q315 58 362 140Z" />
<glyph unicode="&#xe2;" glyph-name="acircumflex" horiz-adv-x="546" d="M149 540Q177 590 210 631T262 684H286Q303 674 335 633T397 540L369 517L273 590L180 517L149 540ZM160 -13T123 12T63 87T40 208Q40 325 103 393T275 461Q311 461 373 450Q419 442 456
439L468 428L455 411Q448 399 446 393T443 375V80Q443 52 472 52Q494 52 517 68L534 45Q510 18 483 3T434 -13Q396 -13 379 9T362 83Q326 30 288 9T204 -13Q160 -13 123 12ZM315 58T362 140V385Q323 411 274 411Q209 411 173 363T136 225Q136 139 165 99T239 58Q315
58 362 140Z" />
<glyph unicode="&#xe3;" glyph-name="atilde" horiz-adv-x="546" d="M126 564Q156 604 186 627T242 651Q255 651 266 647T291 633Q300 628 309 624T327 619Q351 619 390 655L420 627Q392 587 361 563T305 539Q290 539 279 543T253 557Q233 570 218 570Q190 570
158 535L126 564ZM160 -13T123 12T63 87T40 208Q40 325 103 393T275 461Q311 461 373 450Q419 442 456 439L468 428L455 411Q448 399 446 393T443 375V80Q443 52 472 52Q494 52 517 68L534 45Q510 18 483 3T434 -13Q396 -13 379 9T362 83Q326 30 288 9T204 -13Q160
-13 123 12ZM315 58T362 140V385Q323 411 274 411Q209 411 173 363T136 225Q136 139 165 99T239 58Q315 58 362 140Z" />
<glyph unicode="&#xe4;" glyph-name="adieresis" horiz-adv-x="546" d="M170 537T151 558T131 596Q131 613 150 634T186 655Q203 655 223 634T244 596Q244 579 224 558T186 537Q170 537 151 558ZM342 537T323 558T303 596Q303 613 322 634T357 655Q374 655 395
634T416 596Q416 579 395 558T357 537Q342 537 323 558ZM160 -13T123 12T63 87T40 208Q40 325 103 393T275 461Q311 461 373 450Q419 442 456 439L468 428L455 411Q448 399 446 393T443 375V80Q443 52 472 52Q494 52 517 68L534 45Q510 18 483 3T434 -13Q396 -13
379 9T362 83Q326 30 288 9T204 -13Q160 -13 123 12ZM315 58T362 140V385Q323 411 274 411Q209 411 173 363T136 225Q136 139 165 99T239 58Q315 58 362 140Z" />
<glyph unicode="&#xe5;" glyph-name="aring" horiz-adv-x="546" d="M224 500T197 527T170 596Q170 638 197 665T272 693Q323 693 350 666T377 596Q377 554 350 527T272 500Q224 500 197 527ZM291 543T301 558T312 596Q312 620 302 634T272 649Q255 649 244 634T233
596Q233 574 244 559T272 543Q291 543 301 558ZM160 -13T123 12T63 87T40 208Q40 325 103 393T275 461Q311 461 373 450Q419 442 456 439L468 428L455 411Q448 399 446 393T443 375V80Q443 52 472 52Q494 52 517 68L534 45Q510 18 483 3T434 -13Q396 -13 379 9T362
83Q326 30 288 9T204 -13Q160 -13 123 12ZM315 58T362 140V385Q323 411 274 411Q209 411 173 363T136 225Q136 139 165 99T239 58Q315 58 362 140Z" />
<glyph unicode="&#xe6;" glyph-name="ae" horiz-adv-x="784" d="M145 -13T110 5T58 54T40 120Q40 159 60 195T120 254T214 277Q245 277 283 266T322 234Q322 227 318 221T309 215Q305 215 288 221T241 227Q187 227 157 195T127 119Q127 84 149 60T213 36Q276 36
310 86T345 229Q345 311 311 356T211 402Q164 402 138 392T96 372T77 361Q69 361 61 370T53 388Q53 398 77 415T141 447T229 461Q283 461 325 440T396 380Q426 419 473 440T580 461Q654 461 694 422T734 328Q734 290 714 255T655 198T562 176Q532 176 496 186T460
218Q460 226 465 232T475 238Q478 238 493 233T533 227Q588 227 618 257T648 329Q648 365 626 391T563 417Q504 417 471 366T438 219Q438 138 472 93T572 47Q652 47 704 99Q707 102 713 102Q721 102 728 94T736 77Q736 71 733 68Q699 28 653 8T553 -13Q491 -13
444 15T371 96Q348 44 302 16T194 -13Q145 -13 110 5Z" />
<glyph unicode="&#xe7;" glyph-name="ccedilla" horiz-adv-x="460" d="M170 -267T141 -249T111 -197Q111 -174 128 -160T168 -145Q185 -145 185 -153Q185 -156 179 -166T172 -193Q172 -209 183 -219T209 -229Q235 -229 250 -209T266 -161Q266 -133 251 -114T205
-94Q183 -94 156 -108L138 -93L205 -5Q130 13 85 75T40 224Q40 296 67 349T144 432T260 461Q330 461 374 428T419 341Q419 302 394 278T330 253Q321 253 317 255T313 262Q313 265 319 275T331 299T336 337Q336 373 313 393T250 414Q198 414 167 364T135 230Q135
146 172 97T274 48Q307 48 336 59T394 94Q396 96 402 96Q410 96 417 88T425 70Q425 63 423 63Q391 26 349 7T260 -13L236 -12L196 -63Q214 -60 230 -60Q273 -60 302 -86T332 -162Q332 -206 297 -236T210 -267Q170 -267 141 -249Z" />
<glyph unicode="&#xe8;" glyph-name="egrave" horiz-adv-x="479" d="M200 566Q173 579 161 595T149 631Q149 669 188 688L329 547L304 517L200 566ZM186 -13T139 16T66 97T40 219Q40 291 69 346T151 431T275 461Q349 461 389 422T430 328Q430 290 410 255T350
198T257 176Q227 176 192 186T157 218Q157 226 161 232T170 238Q173 238 188 233T229 227Q284 227 314 257T344 329Q344 365 321 391T258 417Q199 417 167 366T134 219Q134 138 168 93T268 47Q348 47 400 99Q403 102 408 102Q416 102 424 94T433 77Q433 74 431
72T429 68Q395 28 349 8T249 -13Q186 -13 139 16Z" />
<glyph unicode="&#xe9;" glyph-name="eacute" horiz-adv-x="479" d="M149 547L290 688Q328 670 328 631Q328 591 278 566L176 517L149 547ZM186 -13T139 16T66 97T40 219Q40 291 69 346T151 431T275 461Q349 461 389 422T430 328Q430 290 410 255T350 198T257
176Q227 176 192 186T157 218Q157 226 161 232T170 238Q173 238 188 233T229 227Q284 227 314 257T344 329Q344 365 321 391T258 417Q199 417 167 366T134 219Q134 138 168 93T268 47Q348 47 400 99Q403 102 408 102Q416 102 424 94T433 77Q433 74 431 72T429 68Q395
28 349 8T249 -13Q186 -13 139 16Z" />
<glyph unicode="&#xea;" glyph-name="ecircumflex" horiz-adv-x="479" d="M116 540Q144 590 177 631T229 684H253Q269 674 302 632T364 540L336 517L240 590L146 517L116 540ZM186 -13T139 16T66 97T40 219Q40 291 69 346T151 431T275 461Q349 461 389 422T430
328Q430 290 410 255T350 198T257 176Q227 176 192 186T157 218Q157 226 161 232T170 238Q173 238 188 233T229 227Q284 227 314 257T344 329Q344 365 321 391T258 417Q199 417 167 366T134 219Q134 138 168 93T268 47Q348 47 400 99Q403 102 408 102Q416 102 424
94T433 77Q433 74 431 72T429 68Q395 28 349 8T249 -13Q186 -13 139 16Z" />
<glyph unicode="&#xeb;" glyph-name="edieresis" horiz-adv-x="479" d="M137 537T118 558T98 596Q98 613 117 634T152 655Q169 655 190 634T211 596Q211 579 190 558T152 537Q137 537 118 558ZM309 537T290 558T270 596Q270 613 289 634T324 655Q341 655 362 634T383
596Q383 579 362 558T324 537Q309 537 290 558ZM186 -13T139 16T66 97T40 219Q40 291 69 346T151 431T275 461Q349 461 389 422T430 328Q430 290 410 255T350 198T257 176Q227 176 192 186T157 218Q157 226 161 232T170 238Q173 238 188 233T229 227Q284 227 314
257T344 329Q344 365 321 391T258 417Q199 417 167 366T134 219Q134 138 168 93T268 47Q348 47 400 99Q403 102 408 102Q416 102 424 94T433 77Q433 74 431 72T429 68Q395 28 349 8T249 -13Q186 -13 139 16Z" />
<glyph unicode="&#xec;" glyph-name="igrave" horiz-adv-x="282" d="M103 566Q76 579 64 595T52 631Q52 670 91 688L231 547L206 517L103 566ZM131 -13T115 9T98 83V363Q98 375 94 380T80 385H39L32 407Q58 431 91 446T150 461Q163 461 171 454T180 434V80Q180
49 207 49Q228 49 253 68L270 45Q245 19 218 3T168 -13Q131 -13 115 9Z" />
<glyph unicode="&#xed;" glyph-name="iacute" horiz-adv-x="282" d="M52 547L192 688Q230 671 230 631Q230 611 219 595T181 566L78 517L52 547ZM131 -13T115 9T98 83V363Q98 375 94 380T80 385H39L32 407Q58 431 91 446T150 461Q163 461 171 454T180 434V80Q180
49 207 49Q228 49 253 68L270 45Q245 19 218 3T168 -13Q131 -13 115 9Z" />
<glyph unicode="&#xee;" glyph-name="icircumflex" horiz-adv-x="282" d="M18 540Q47 591 79 632T130 684H153Q170 674 204 632T266 540L237 517L142 590L48 517L18 540ZM131 -13T115 9T98 83V363Q98 375 94 380T80 385H39L32 407Q58 431 91 446T150 461Q163 461
171 454T180 434V80Q180 49 207 49Q228 49 253 68L270 45Q245 19 218 3T168 -13Q131 -13 115 9Z" />
<glyph unicode="&#xef;" glyph-name="idieresis" horiz-adv-x="282" d="M39 537T20 558T0 596Q0 613 19 634T55 655Q72 655 92 634T113 596Q113 579 93 558T55 537Q39 537 20 558ZM211 537T192 558T172 596Q172 613 191 634T227 655Q244 655 264 634T285 596Q285
579 265 558T227 537Q211 537 192 558ZM131 -13T115 9T98 83V363Q98 375 94 380T80 385H39L32 407Q58 431 91 446T150 461Q163 461 171 454T180 434V80Q180 49 207 49Q228 49 253 68L270 45Q245 19 218 3T168 -13Q131 -13 115 9Z" />
<glyph unicode="&#xf0;" glyph-name="eth" horiz-adv-x="528" d="M160 -13T100 49T39 216Q39 321 99 382T265 443Q342 443 391 390Q375 471 348 538L258 493Q258 529 262 545T277 566L323 589Q275 674 214 674Q181 674 163 654T144 602Q144 574 153 558T172 531T183
517Q183 506 168 506Q121 506 94 534T67 603Q67 632 83 658T133 700T215 716Q266 716 309 690T383 619L506 682Q506 645 502 629T486 606L411 570Q451 493 470 394T490 216Q490 147 462 95T384 15T265 -13Q160 -13 100 49ZM335 36T370 82T405 208Q405 291 366 343T262
396Q203 396 168 348T133 216Q133 134 172 85T275 36Q335 36 370 82Z" />
<glyph unicode="&#xf1;" glyph-name="ntilde" horiz-adv-x="582" d="M144 564Q174 604 204 627T260 651Q282 651 308 633Q317 628 326 624T345 619Q370 619 407 655L438 627Q409 587 378 563T322 539Q307 539 297 543T271 556Q263 561 254 565T236 570Q224 570
208 562T176 535L144 564ZM426 -13T410 9T394 83V299Q394 345 374 368T315 392Q276 392 247 361T201 274T185 145Q185 103 191 77T214 28L225 14L214 0H55L46 28L63 33Q87 37 94 51T102 101V355Q102 366 98 370T84 375H45L36 399Q62 423 96 438T156 453Q169 453
177 445T185 425V326Q208 385 255 423T354 461Q417 461 446 422T476 299V80Q476 49 503 49Q525 49 548 68L565 45Q542 19 514 3T463 -13Q426 -13 410 9Z" />
<glyph unicode="&#xf2;" glyph-name="ograve" horiz-adv-x="523" d="M218 566Q191 579 179 595T167 631Q167 669 206 688L347 547L321 517L218 566ZM160 -13T100 51T40 225Q40 334 100 397T262 461Q329 461 379 432T456 350T483 225Q483 153 456 99T378 16T262
-13Q160 -13 100 51ZM317 36T352 87T388 223Q388 266 376 309T337 383T265 414Q206 414 171 362T135 224Q135 138 168 87T260 36Q317 36 352 87Z" />
<glyph unicode="&#xf3;" glyph-name="oacute" horiz-adv-x="523" d="M191 547L331 688Q370 669 370 631Q370 591 320 566L217 517L191 547ZM160 -13T100 51T40 225Q40 334 100 397T262 461Q329 461 379 432T456 350T483 225Q483 153 456 99T378 16T262 -13Q160
-13 100 51ZM317 36T352 87T388 223Q388 266 376 309T337 383T265 414Q206 414 171 362T135 224Q135 138 168 87T260 36Q317 36 352 87Z" />
<glyph unicode="&#xf4;" glyph-name="ocircumflex" horiz-adv-x="523" d="M141 540Q170 591 202 632T253 684H276Q293 674 327 632T389 540L359 517L264 590L170 517L141 540ZM160 -13T100 51T40 225Q40 334 100 397T262 461Q329 461 379 432T456 350T483 225Q483
153 456 99T378 16T262 -13Q160 -13 100 51ZM317 36T352 87T388 223Q388 266 376 309T337 383T265 414Q206 414 171 362T135 224Q135 138 168 87T260 36Q317 36 352 87Z" />
<glyph unicode="&#xf5;" glyph-name="otilde" horiz-adv-x="523" d="M117 564Q147 604 177 627T233 651Q255 651 283 633Q292 628 301 624T319 619Q344 619 381 655L411 627Q383 587 352 563T296 539Q281 539 269 543T245 557Q236 562 228 566T210 570Q181 570
149 535L117 564ZM160 -13T100 51T40 225Q40 334 100 397T262 461Q329 461 379 432T456 350T483 225Q483 153 456 99T378 16T262 -13Q160 -13 100 51ZM317 36T352 87T388 223Q388 266 376 309T337 383T265 414Q206 414 171 362T135 224Q135 138 168 87T260 36Q317
36 352 87Z" />
<glyph unicode="&#xf6;" glyph-name="odieresis" horiz-adv-x="523" d="M162 537T143 558T123 596Q123 613 142 634T178 655Q195 655 215 634T236 596Q236 579 216 558T178 537Q162 537 143 558ZM333 537T314 558T294 596Q294 613 313 634T349 655Q366 655 386
634T407 596Q407 579 387 558T349 537Q333 537 314 558ZM160 -13T100 51T40 225Q40 334 100 397T262 461Q329 461 379 432T456 350T483 225Q483 153 456 99T378 16T262 -13Q160 -13 100 51ZM317 36T352 87T388 223Q388 266 376 309T337 383T265 414Q206 414 171
362T135 224Q135 138 168 87T260 36Q317 36 352 87Z" />
<glyph unicode="&#xf7;" glyph-name="divide" horiz-adv-x="621" d="M263 416T244 436T225 474Q225 492 244 513T279 534Q296 534 316 513T337 474Q337 457 317 437T279 416Q263 416 244 436ZM89 290V357H473V290H89ZM263 113T244 134T225 172Q225 190 244 210T279
231Q296 231 316 211T337 172Q337 155 317 134T279 113Q263 113 244 134Z" />
<glyph unicode="&#xf8;" glyph-name="oslash" horiz-adv-x="523" d="M162 7Q104 33 72 90T40 225Q40 334 100 397T262 461Q290 461 321 454L342 513H391L364 439Q420 412 451 357T483 225Q483 153 456 99T378 16T262 -13Q238 -13 206 -6L186 -62H138L162 7ZM305
406Q286 414 265 414Q206 414 171 362T135 224Q135 118 184 67L305 406ZM317 36T352 87T388 223Q388 264 377 306T342 377L224 43Q243 36 260 36Q317 36 352 87Z" />
<glyph unicode="&#xf9;" glyph-name="ugrave" horiz-adv-x="557" d="M230 566Q203 579 192 595T180 631Q180 671 218 688L359 547L334 517L230 566ZM166 -13T130 26T94 137V363Q94 385 76 385H35L28 407Q51 431 84 446T146 461Q159 461 167 454T176 434V159Q176
105 198 77T263 48Q324 48 358 100T392 246Q392 312 385 349T356 423L345 437L356 450L468 461V80Q468 52 492 52Q515 52 537 68L555 45Q533 19 506 3T454 -13Q418 -13 402 8T386 75Q364 34 323 11T231 -13Q166 -13 130 26Z" />
<glyph unicode="&#xfa;" glyph-name="uacute" horiz-adv-x="557" d="M214 547L354 688Q393 670 393 631Q393 591 343 566L240 517L214 547ZM166 -13T130 26T94 137V363Q94 385 76 385H35L28 407Q51 431 84 446T146 461Q159 461 167 454T176 434V159Q176 105 198
77T263 48Q324 48 358 100T392 246Q392 312 385 349T356 423L345 437L356 450L468 461V80Q468 52 492 52Q515 52 537 68L555 45Q533 19 506 3T454 -13Q418 -13 402 8T386 75Q364 34 323 11T231 -13Q166 -13 130 26Z" />
<glyph unicode="&#xfb;" glyph-name="ucircumflex" horiz-adv-x="557" d="M153 540Q181 590 214 631T266 684H290Q307 674 340 633T402 540L373 517L277 590L184 517L153 540ZM166 -13T130 26T94 137V363Q94 385 76 385H35L28 407Q51 431 84 446T146 461Q159 461
167 454T176 434V159Q176 105 198 77T263 48Q324 48 358 100T392 246Q392 312 385 349T356 423L345 437L356 450L468 461V80Q468 52 492 52Q515 52 537 68L555 45Q533 19 506 3T454 -13Q418 -13 402 8T386 75Q364 34 323 11T231 -13Q166 -13 130 26Z" />
<glyph unicode="&#xfc;" glyph-name="udieresis" horiz-adv-x="557" d="M176 537T156 558T136 596Q136 613 155 634T191 655Q208 655 228 634T249 596Q249 579 229 558T191 537Q176 537 156 558ZM347 537T328 558T308 596Q308 613 327 634T362 655Q379 655 400
634T421 596Q421 579 400 558T362 537Q347 537 328 558ZM166 -13T130 26T94 137V363Q94 385 76 385H35L28 407Q51 431 84 446T146 461Q159 461 167 454T176 434V159Q176 105 198 77T263 48Q324 48 358 100T392 246Q392 312 385 349T356 423L345 437L356 450L468
461V80Q468 52 492 52Q515 52 537 68L555 45Q533 19 506 3T454 -13Q418 -13 402 8T386 75Q364 34 323 11T231 -13Q166 -13 130 26Z" />
<glyph unicode="&#xfd;" glyph-name="yacute" horiz-adv-x="551" d="M214 547L354 688Q393 670 393 631Q393 591 343 566L240 517L214 547ZM214 -253T179 -235T126 -186T108 -123Q108 -77 139 -45T224 -13Q232 -13 236 -15T240 -22Q240 -26 228 -39T206 -72T196
-120Q196 -156 217 -180T275 -205Q331 -205 358 -159T385 -34V100Q363 60 322 37T229 14Q165 14 130 53T94 164V364Q94 376 90 381T76 386H35L28 408Q51 432 84 447T146 462Q159 462 167 455T176 435V185Q176 131 198 103T261 75Q322 75 356 120T390 247Q390 322
384 358T354 424L344 438L354 451L465 462V-20Q465 -131 411 -192T264 -253Q214 -253 179 -235Z" />
<glyph unicode="&#xfe;" glyph-name="thorn" horiz-adv-x="539" d="M53 -228L63 -213Q80 -190 87 -165T94 -96V603Q94 616 90 623T75 632L28 642V672Q42 685 82 697T152 709Q175 709 175 667V405Q233 461 306 461Q361 461 405 433T473 356T498 242Q498 170 472
112T401 20T299 -13Q245 -13 209 12Q200 17 200 28Q200 38 203 44T214 51Q217 51 233 44T277 36Q333 36 367 89T402 225Q402 303 368 352T276 402Q246 402 222 394T175 367V-141Q175 -176 182 -190T213 -209L231 -213L223 -240H63L53 -228Z" />
<glyph unicode="&#xff;" glyph-name="ydieresis" horiz-adv-x="551" d="M174 537T154 558T134 596Q134 613 153 634T189 655Q206 655 226 634T247 596Q247 579 227 558T189 537Q174 537 154 558ZM345 537T326 558T306 596Q306 613 325 634T360 655Q377 655 398
634T419 596Q419 579 398 558T360 537Q345 537 326 558ZM214 -253T179 -235T126 -186T108 -123Q108 -77 139 -45T224 -13Q232 -13 236 -15T240 -22Q240 -26 228 -39T206 -72T196 -120Q196 -156 217 -180T275 -205Q331 -205 358 -159T385 -34V100Q363 60 322 37T229
14Q165 14 130 53T94 164V364Q94 376 90 381T76 386H35L28 408Q51 432 84 447T146 462Q159 462 167 455T176 435V185Q176 131 198 103T261 75Q322 75 356 120T390 247Q390 322 384 358T354 424L344 438L354 451L465 462V-20Q465 -131 411 -192T264 -253Q214 -253
179 -235Z" />
<glyph unicode="&#x2013;" glyph-name="endash" horiz-adv-x="779" d="M46 247T51 264T69 292L662 302Q662 283 656 266T637 237L46 229Q46 247 51 264Z" />
<glyph unicode="&#x2014;" glyph-name="emdash" horiz-adv-x="910" d="M46 247T51 264T69 292L778 302Q778 283 772 266T754 237L46 229Q46 247 51 264Z" />
<glyph unicode="&#x2018;" glyph-name="quoteleft" horiz-adv-x="225" d="M64 476T48 490T31 536Q31 561 48 587T104 656L141 695L167 678L126 596Q115 572 115 558Q115 548 119 541T135 525L152 514L157 492L141 486Q114 476 91 476Q64 476 48 490Z" />
<glyph unicode="&#x2019;" glyph-name="quoteright" horiz-adv-x="225" d="M37 489L79 571Q89 592 89 608Q89 618 85 625T69 641L52 653L48 674L64 681Q88 690 114 690Q174 690 174 631Q174 606 156 579T100 510L64 472L37 489Z" />
<glyph unicode="&#x201a;" glyph-name="quotesinglbase" horiz-adv-x="173" d="M6 -95L48 -13Q59 11 59 25Q59 35 54 42T38 58L21 69L17 91L33 97Q60 107 83 107Q110 107 126 93T143 47Q143 22 125 -5T68 -74L33 -112L6 -95Z" />
<glyph unicode="&#x201c;" glyph-name="quotedblleft" horiz-adv-x="379" d="M64 476T48 490T31 536Q31 561 48 587T104 656L141 695L167 678L126 596Q115 572 115 558Q115 548 119 541T135 525L152 514L157 492L141 486Q114 476 91 476Q64 476 48 490ZM170 476T170
536Q170 561 188 587T244 656L279 695L307 678L265 596Q255 575 255 558Q255 548 259 541T274 525L292 514L296 492L279 486Q254 476 229 476Q170 476 170 536Z" />
<glyph unicode="&#x201d;" glyph-name="quotedblright" horiz-adv-x="379" d="M37 489L79 571Q89 592 89 608Q89 618 85 625T69 641L52 653L48 674L64 681Q88 690 114 690Q174 690 174 631Q174 606 156 579T100 510L64 472L37 489ZM177 489L218 571Q229 595 229
608Q229 618 225 625T209 641L191 653L188 674L204 681Q228 690 254 690Q313 690 313 631Q313 606 295 579T239 510L204 472L177 489Z" />
<glyph unicode="&#x201e;" glyph-name="quotedblbase" horiz-adv-x="313" d="M6 -94L48 -12Q59 12 59 26Q59 36 54 43T38 59L21 70L17 92L33 98Q60 108 83 108Q110 108 126 94T143 48Q143 23 125 -3T68 -72L33 -111L6 -94ZM146 -94L188 -12Q197 11 197 26Q197
36 193 43T178 59L160 70L156 92L173 98Q198 108 223 108Q281 108 281 48Q281 23 263 -4T208 -72L173 -111L146 -94Z" />
<glyph unicode="&#x2022;" glyph-name="bullet" horiz-adv-x="239" d="M104 195T87 208T57 239T44 273Q44 290 56 309T85 342T118 355Q132 355 150 342T182 309T195 273Q195 259 182 240T151 208T118 195Q104 195 87 208Z" />
<glyph unicode="&#x2039;" glyph-name="guilsinglleft" horiz-adv-x="269" d="M85 165T66 201T46 254Q46 268 66 305T146 440Q169 438 187 430T224 399Q212 376 185 345T100 254Q153 196 182 163T224 106Q205 83 187 75T146 64Q85 165 66 201Z" />
<glyph unicode="&#x203a;" glyph-name="guilsinglright" horiz-adv-x="269" d="M101 67T83 75T46 106Q57 129 88 165T169 254Q117 308 87 342T46 399Q64 422 82 430T124 440Q186 338 205 303T224 254Q224 238 208 207T142 95Q138 87 133 79T124 64Q101 67 83 75Z" />
</font>
</defs>
</svg>
