<?xml version="1.0" standalone="no"?>
<!DOCTYPE svg PUBLIC "-//W3C//DTD SVG 1.1//EN" "http://www.w3.org/Graphics/SVG/1.1/DTD/svg11.dtd">
<svg xmlns="http://www.w3.org/2000/svg">
<defs >
<font id="Heebo" horiz-adv-x="1104" ><font-face
    font-family="Heebo ExtraBold"
    units-per-em="2048"
    panose-1="0 0 9 0 0 0 0 0 0 0"
    ascent="2146"
    descent="-862"
    alphabetic="0" />
<glyph unicode=" " glyph-name="space" horiz-adv-x="510" />
<glyph unicode="!" glyph-name="exclam" horiz-adv-x="561" d="M161 457L123 1456H455L417 457H161ZM339 311T378 290T440 231T462 147Q462 100 440 63T379 4T288 -18Q237 -18 198 3T136 62T114 147Q114 193 136 230T197 289T288 311Q339 311 378 290Z" />
<glyph unicode="&quot;" glyph-name="quotedbl" horiz-adv-x="654" d="M220 975H46V1537H261V1398L220 975ZM558 975H385V1537H599V1398L558 975Z" />
<glyph unicode="#" glyph-name="numbersign" horiz-adv-x="1206" d="M909 860L863 590H1088V410H832L762 0H572L642 410H463L394 0H203L273 410H48V590H304L350 860H123V1040H381L452 1456H641L571 1040H749L820 1456H1011L940 1040H1164V860H909ZM718 860H540L494
590H672L718 860Z" />
<glyph unicode="$" glyph-name="dollar" horiz-adv-x="1181" d="M798 800T889 743T1034 600T1088 387Q1088 272 1039 186T899 48T688 -17V-217H529V-17Q408 -4 309 49T149 205T88 464H400Q400 338 458 283T607 227Q689 227 732 271T776 385Q776 440 758 477T698
541T585 598Q433 658 341 714T196 855T142 1069Q142 1181 192 1268T335 1409T549 1474V1686H708V1471Q825 1453 911 1393T1045 1234T1092 1006H780Q780 1118 735 1173T611 1229Q532 1229 493 1184T454 1067Q454 1019 471 986T530 923T647 863Q798 800 889 743Z"
/>
<glyph unicode="%" glyph-name="percent" horiz-adv-x="1516" d="M93 1260T130 1328T239 1437T412 1477Q515 1477 587 1437T696 1329T733 1176V1099Q733 1016 697 948T588 840T414 800Q312 800 240 840T130 948T93 1099V1176Q93 1260 130 1328ZM326 187L1037 1325L1186
1247L475 109L326 187ZM297 1048T327 1013T414 977Q470 977 499 1012T529 1099V1176Q529 1229 499 1264T412 1300Q357 1300 327 1264T297 1176V1099Q297 1048 327 1013ZM787 441T824 509T933 617T1107 657Q1210 657 1282 617T1391 509T1428 357V280Q1428 196 1392
128T1283 20T1109 -20Q1007 -20 934 20T824 128T787 280V357Q787 441 824 509ZM991 248T1006 220T1049 174T1109 157Q1174 157 1199 190T1224 280V357Q1224 409 1194 444T1107 480Q1051 480 1021 445T991 357V280Q991 248 1006 220Z" />
<glyph unicode="&amp;" glyph-name="ampersand" horiz-adv-x="1361" d="M982 0L911 81Q826 29 737 4T540 -21Q396 -21 288 31T122 177T64 391Q64 472 95 536T182 652T324 766Q257 859 224 934T191 1087Q191 1201 241 1289T382 1427T595 1477Q706 1477 791 1430T924
1304T971 1130Q971 1034 919 953T777 808L688 745L924 473Q982 587 982 724H1246Q1246 432 1113 254L1333 0H982ZM533 1225T500 1187T466 1091Q466 1051 486 1008T548 912L619 958Q676 995 696 1030T717 1108Q717 1137 702 1164T659 1208T594 1225Q533 1225 500
1187ZM653 231T738 278L467 588L451 577Q409 538 393 499T377 412Q377 359 400 318T465 254T559 231Q653 231 738 278Z" />
<glyph unicode="&apos;" glyph-name="quotesingle" horiz-adv-x="324" d="M248 969H54V1536H279V1379L248 969Z" />
<glyph unicode="(" glyph-name="parenleft" horiz-adv-x="721" d="M123 856T195 1068T382 1418T622 1609L681 1446Q599 1386 532 1276T422 994T379 594V564Q379 336 421 164T531 -118T681 -290L622 -452Q497 -399 383 -262T196 89T123 566V592Q123 856 195 1068Z" />
<glyph unicode=")" glyph-name="parenright" horiz-adv-x="722" d="M618 313T542 99T347 -257T100 -452L40 -290Q121 -229 189 -119T299 164T342 564V594Q342 822 299 994T189 1276T40 1447L100 1609Q228 1557 347 1415T542 1059T618 592V566Q618 313 542 99Z" />
<glyph unicode="*" glyph-name="asterisk" horiz-adv-x="940" d="M27 1048L89 1234L403 1105L381 1456H586L563 1098L869 1225L931 1036L606 946L820 681L655 565L473 858L290 575L125 686L347 958L27 1048Z" />
<glyph unicode="+" glyph-name="plus" horiz-adv-x="1107" d="M1050 543H698V146H405V543H52V823H405V1206H698V823H1050V543Z" />
<glyph unicode="," glyph-name="comma" horiz-adv-x="525" d="M400 -74T344 -190T199 -384L39 -304L61 -263Q88 -211 105 -174T133 -86T145 25V252H401L400 43Q400 -74 344 -190Z" />
<glyph unicode="-" glyph-name="hyphen" horiz-adv-x="854" d="M130 500V753H711V500H130Z" />
<glyph unicode="." glyph-name="period" horiz-adv-x="607" d="M347 318T387 297T448 238T470 153Q470 107 449 70T387 11T296 -11Q245 -11 205 10T144 69T122 153Q122 200 143 237T205 296T296 318Q347 318 387 297Z" />
<glyph unicode="/" glyph-name="slash" horiz-adv-x="744" d="M-21 -125L498 1456H724L206 -125H-21Z" />
<glyph unicode="0" glyph-name="zero" horiz-adv-x="1181" d="M1089 390T1028 252T855 47T592 -20Q440 -20 328 47T153 252T91 597V859Q91 1067 153 1205T326 1409T590 1476Q741 1476 853 1410T1027 1205T1089 859V597Q1089 390 1028 252ZM778 1075T731 1149T590
1224Q497 1224 450 1150T403 902V557Q403 382 450 307T592 232Q684 232 731 307T778 557V902Q778 1075 731 1149Z" />
<glyph unicode="1" glyph-name="one" horiz-adv-x="1181" d="M506 0V1088L167 988V1237L787 1457H818V0H506Z" />
<glyph unicode="2" glyph-name="two" horiz-adv-x="1181" d="M95 0V213L565 708Q662 815 704 891T746 1028Q746 1123 701 1174T571 1225Q512 1225 468 1195T401 1112T378 991H65Q65 1124 129 1235T310 1412T578 1477Q733 1477 841 1428T1004 1284T1059 1058Q1059
961 1020 872T911 693T725 485L500 252H1101V0H95Z" />
<glyph unicode="3" glyph-name="three" horiz-adv-x="1181" d="M965 706T1027 619T1090 409Q1090 276 1021 179T832 31T561 -20Q431 -20 316 26T129 168T56 403H369Q369 355 395 316T468 255T570 232Q634 232 681 255T753 320T778 415Q778 523 721 572T554 622H395V785V865H554Q654
865 704 915T755 1055Q755 1130 708 1177T570 1225Q522 1225 481 1208T414 1157T388 1081H77Q77 1200 142 1290T318 1428T561 1477Q712 1477 826 1429T1004 1288T1067 1061Q1067 963 1009 880T847 748Q965 706 1027 619Z" />
<glyph unicode="4" glyph-name="four" horiz-adv-x="1181" d="M1123 311H967V0H655V311H74L57 510L654 1456H900H967V563H1123V311ZM655 563V1033L634 997L361 563H655Z" />
<glyph unicode="5" glyph-name="five" horiz-adv-x="1181" d="M213 1456H1046V1201H468L433 904Q469 924 526 941T647 958Q789 958 889 901T1041 733T1094 469Q1094 337 1039 226T871 48T596 -20Q467 -20 352 33T166 184T94 411H405Q412 328 462 280T594 232Q693
232 737 303T782 490Q782 603 727 666T561 730Q492 730 450 709T375 652L127 713L213 1456Z" />
<glyph unicode="6" glyph-name="six" horiz-adv-x="1181" d="M834 980T927 915T1068 736T1116 481Q1116 340 1053 226T877 46T617 -20Q463 -20 344 51T159 254T93 564V684Q93 924 189 1103T455 1378T846 1475H893V1219H875Q682 1219 560 1127T411 862Q465 917
539 948T702 980Q834 980 927 915ZM666 232T710 264T779 353T804 481Q804 556 779 612T708 699T601 730Q532 730 481 697T405 612V518Q405 376 458 304T609 232Q666 232 710 264Z" />
<glyph unicode="7" glyph-name="seven" horiz-adv-x="1181" d="M541 0H212L767 1204H57V1456H1096V1282L541 0Z" />
<glyph unicode="8" glyph-name="eight" horiz-adv-x="1181" d="M970 699T1030 609T1090 401Q1090 266 1026 171T850 28T592 -20Q447 -20 334 28T155 171T90 401Q90 519 150 609T318 751Q225 801 173 883T121 1068Q121 1198 180 1290T346 1429T590 1477Q729 1477
835 1430T1000 1290T1059 1068Q1059 964 1008 882T864 750Q970 699 1030 609ZM515 1225T475 1179T434 1051Q434 968 475 920T592 871Q666 871 706 919T747 1051Q747 1132 706 1178T590 1225Q515 1225 475 1179ZM677 232T727 284T777 426Q777 516 726 568T590 620Q505
620 454 568T403 426Q403 336 454 284T592 232Q677 232 727 284Z" />
<glyph unicode="9" glyph-name="nine" horiz-adv-x="1181" d="M726 1477T839 1406T1017 1200T1081 881V770Q1081 521 991 344T731 74T328 -18H303V243H323Q526 243 636 322T766 570Q713 522 647 495T510 467Q377 467 281 528T135 701T84 958Q84 1100 146 1219T322
1407T581 1477Q726 1477 839 1406ZM653 703T699 733T770 811V941Q770 1080 718 1152T579 1225Q523 1225 481 1187T417 1088T395 959Q395 846 445 775T591 703Q653 703 699 733Z" />
<glyph unicode=":" glyph-name="colon" horiz-adv-x="595" d="M602 318T642 297T703 238T725 153Q725 107 704 70T642 11T551 -11Q500 -11 460 10T399 69T377 153Q377 200 398 237T460 296T551 318Q602 318 642 297ZM346 1123T386 1102T447 1043T469 958Q469 912
448 875T386 816T295 794Q244 794 204 815T143 874T121 958Q121 1005 142 1042T204 1101T295 1123Q346 1123 386 1102Z" />
<glyph unicode=";" glyph-name="semicolon" horiz-adv-x="562" d="M332 1123T372 1102T433 1043T455 958Q455 912 434 875T372 816T281 794Q230 794 190 815T129 874T107 958Q107 1005 128 1042T190 1101T281 1123Q332 1123 372 1102ZM423 -74T367 -190T222 -384L62
-304L84 -263Q111 -211 128 -174T156 -86T168 25V252H424L423 43Q423 -74 367 -190Z" />
<glyph unicode="&lt;" glyph-name="less" horiz-adv-x="1044" d="M923 806L364 612L923 423V124L51 486V705V742L923 1104V806Z" />
<glyph unicode="=" glyph-name="equal" horiz-adv-x="1185" d="M133 730V982H1042V730H133ZM133 292V545H1042V292H133Z" />
<glyph unicode="&gt;" glyph-name="greater" horiz-adv-x="1055" d="M991 741V521V485L116 123V421L678 615L116 806V1103L991 741Z" />
<glyph unicode="?" glyph-name="question" horiz-adv-x="1031" d="M346 593T378 679T492 835Q571 901 609 953T647 1067Q647 1223 503 1223Q440 1223 397 1182T352 1058H39Q41 1199 101 1292T265 1431T503 1476Q646 1476 748 1431T904 1297T959 1081Q959 1004
931 943T860 833T736 712Q730 705 716 693Q661 644 640 591T616 457H346Q346 593 378 679ZM536 316T575 295T637 236T659 152Q659 106 637 69T576 10T485 -12Q434 -12 395 9T333 68T311 152Q311 198 333 235T394 294T485 316Q536 316 575 295Z" />
<glyph unicode="@" glyph-name="at" horiz-adv-x="1834" d="M1212 1412T1389 1312T1659 1028T1751 601Q1751 565 1750 546Q1745 396 1697 268T1551 59T1307 -21Q1224 -21 1161 15T1065 119Q1016 51 950 17T802 -17Q714 -17 648 29T545 162T509 363Q509 397 512
434Q531 601 597 727T764 921T985 990Q1058 990 1112 976T1204 940T1297 880L1246 296Q1244 272 1244 263Q1244 201 1273 176T1347 150Q1407 150 1454 200T1530 339T1561 537Q1563 579 1563 599Q1563 796 1497 940T1296 1164T960 1243Q761 1243 612 1142T379 863T284
460Q283 438 283 397Q283 70 441 -99T895 -268Q979 -268 1070 -250T1226 -202L1264 -364Q1198 -407 1094 -430T891 -453Q632 -453 450 -356T171 -68T75 400Q75 440 76 460Q88 734 200 950T509 1289T964 1412Q1212 1412 1389 1312ZM918 170T961 206T1036 334L1076
794Q1039 804 1004 804Q890 804 828 711T747 434Q744 403 744 376Q744 275 777 223T875 170Q918 170 961 206Z" />
<glyph unicode="A" glyph-name="A" horiz-adv-x="1387" d="M947 281H439L348 0H2L541 1456H760H844L1385 0H1039L947 281ZM862 543L693 1062L525 543H862Z" />
<glyph unicode="B" glyph-name="B" horiz-adv-x="1314" d="M1108 716T1166 629T1225 430Q1225 217 1088 109T689 0H245H121V1456H637Q904 1456 1048 1356T1193 1055Q1193 951 1143 869T988 746Q1108 716 1166 629ZM446 1194V848H637Q756 848 812 890T869 1017Q869
1110 814 1152T637 1194H446ZM796 261T848 309T901 435Q901 624 702 624H446V261H689Q796 261 848 309Z" />
<glyph unicode="C" glyph-name="C" horiz-adv-x="1342" d="M1272 339T1199 224T995 44T687 -20Q499 -20 362 65T152 310T79 686V770Q79 985 154 1145T366 1391T687 1477Q868 1477 997 1411T1197 1227T1283 956H959Q951 1086 889 1148T687 1211Q544 1211 476 1106T408
772V686Q408 530 435 434T524 292T687 246Q818 246 883 306T957 491H1281Q1272 339 1199 224Z" />
<glyph unicode="D" glyph-name="D" horiz-adv-x="1328" d="M774 1456T926 1368T1163 1122T1249 759V696Q1249 492 1164 334T927 88T579 0H261H121V1456H446H579Q774 1456 926 1368ZM919 761Q919 973 832 1083T579 1194H446V261H579Q744 261 831 372T919 696V761Z" />
<glyph unicode="E" glyph-name="E" horiz-adv-x="1149" d="M446 1194V874H1010V621H446V261H1110V0H337H121V1456H446H1110V1194H446Z" />
<glyph unicode="F" glyph-name="F" horiz-adv-x="1122" d="M446 1194V846H1017V585H446V0H121V1456H446H1082V1194H446Z" />
<glyph unicode="G" glyph-name="G" horiz-adv-x="1396" d="M1250 133T1176 88T987 11T725 -20Q533 -20 390 63T168 305T89 686V769Q89 991 166 1150T382 1393T704 1477Q982 1477 1124 1346T1291 985H978Q961 1099 900 1157T714 1216Q572 1216 495 1103T418 771V686Q418
241 745 241Q896 241 968 306V539H709V774H1292V181Q1250 133 1176 88Z" />
<glyph unicode="H" glyph-name="H" horiz-adv-x="1444" d="M1322 1456V0H998V613H446V0H121V1456H446V874H998V1456H1322Z" />
<glyph unicode="I" glyph-name="I" horiz-adv-x="608" d="M142 0V1456H466V0H142Z" />
<glyph unicode="J" glyph-name="J" horiz-adv-x="1148" d="M1028 1456V454Q1028 312 964 205T787 39T534 -20Q387 -20 276 30T102 182T39 437H364Q364 329 406 285T534 241Q614 241 659 297T705 454V1456H1028Z" />
<glyph unicode="K" glyph-name="K" horiz-adv-x="1305" d="M597 562L446 398V0H121V1456H446V809L573 992L917 1456H1316L812 809L1324 0H940L597 562Z" />
<glyph unicode="L" glyph-name="L" horiz-adv-x="1110" d="M1070 261V0H337H121V1456H446V261H1070Z" />
<glyph unicode="M" glyph-name="M" horiz-adv-x="1795" d="M1672 0H1347V358L1379 1063L1005 0H787L413 1063L445 358V0H121V1456H395H546L896 430L1246 1456H1672V0Z" />
<glyph unicode="N" glyph-name="N" horiz-adv-x="1443" d="M997 0L446 922V0H121V1456H446L997 533V1456H1321V0H997Z" />
<glyph unicode="O" glyph-name="O" horiz-adv-x="1414" d="M1335 478T1256 316T1034 67T708 -20Q523 -20 381 67T159 316T79 697V758Q79 977 158 1139T379 1389T706 1476Q890 1476 1033 1389T1255 1140T1335 758V697Q1335 478 1256 316ZM1006 978T928 1093T706
1209Q560 1209 484 1094T407 760V697Q407 479 485 363T708 246Q851 246 928 363T1006 697V760Q1006 978 928 1093Z" />
<glyph unicode="P" glyph-name="P" horiz-adv-x="1327" d="M865 1456T991 1393T1184 1219T1251 966Q1251 826 1184 721T992 558T696 500H446V0H121V1456H696Q865 1456 991 1393ZM811 762T867 816T923 964Q923 1027 899 1079T824 1162T696 1194H446V762H696Q811
762 867 816Z" />
<glyph unicode="Q" glyph-name="Q" horiz-adv-x="1414" d="M1335 500T1270 348T1087 103L1323 -85L1119 -264L809 -13Q764 -20 708 -20Q523 -20 381 67T159 316T79 697V758Q79 977 158 1139T379 1389T706 1476Q890 1476 1033 1389T1255 1140T1335 758V697Q1335
500 1270 348ZM408 479T485 363T708 246Q851 246 928 363T1006 697V760Q1006 978 928 1093T706 1209Q560 1209 484 1095T408 760V697Q408 479 485 363Z" />
<glyph unicode="R" glyph-name="R" horiz-adv-x="1321" d="M1274 15V0H926L663 520H446V0H121V1456H678Q846 1456 968 1406T1156 1257T1222 1016Q1222 858 1156 760T965 605L1274 15ZM446 782H678Q785 782 841 836T897 987Q897 1085 842 1139T678 1194H446V782Z" />
<glyph unicode="S" glyph-name="S" horiz-adv-x="1270" d="M454 652T348 710T176 857T111 1068Q111 1190 181 1282T376 1425T660 1476Q819 1476 941 1420T1131 1262T1199 1025H875Q875 1114 819 1166T653 1219Q548 1219 492 1176T435 1065Q435 1001 503 956T713
866Q958 790 1078 677T1199 388Q1199 260 1134 168T948 28T666 -20Q511 -20 375 33T153 196T67 468H392Q392 344 462 290T666 236Q769 236 821 278T874 386Q874 436 853 470T774 535T602 604Q454 652 348 710Z" />
<glyph unicode="T" glyph-name="T" horiz-adv-x="1279" d="M1239 1194H798V0H473V1194H39V1456H798H1239V1194Z" />
<glyph unicode="U" glyph-name="U" horiz-adv-x="1354" d="M1242 502Q1242 336 1172 219T974 41T678 -20Q509 -20 382 40T183 218T111 502V1456H436V502Q436 241 678 241Q796 241 856 304T917 502V1456H1242V502Z" />
<glyph unicode="V" glyph-name="V" horiz-adv-x="1346" d="M1345 1456L845 0H608H499L2 1456H362L672 384L983 1456H1345Z" />
<glyph unicode="W" glyph-name="W" horiz-adv-x="1786" d="M1756 1456L1440 0H1234H1109L892 921L677 0H494H346L29 1456H351L534 463L755 1456H924H1030L1252 463L1435 1456H1756Z" />
<glyph unicode="X" glyph-name="X" horiz-adv-x="1305" d="M909 1456H1280L865 734L1291 0H916L653 498L389 0H14L441 734L25 1456H396L653 967L909 1456Z" />
<glyph unicode="Y" glyph-name="Y" horiz-adv-x="1276" d="M924 1456H1276L802 525V0H473V525L-1 1456H352L638 817L924 1456Z" />
<glyph unicode="Z" glyph-name="Z" horiz-adv-x="1245" d="M1191 261V0H150H70V182L774 1194H69V1456H1071H1179V1279L481 261H1191Z" />
<glyph unicode="[" glyph-name="bracketleft" horiz-adv-x="573" d="M427 1464V-108H558V-346H115V1703H558V1464H427Z" />
<glyph unicode="\" glyph-name="backslash" horiz-adv-x="869" d="M312 1456L920 -125H598L-10 1456H312Z" />
<glyph unicode="]" glyph-name="bracketright" horiz-adv-x="573" d="M458 1703V-346H14V-108H146V1464H14V1703H458Z" />
<glyph unicode="^" glyph-name="asciicircum" horiz-adv-x="906" d="M627 729L454 1182L282 729H41L340 1456H515H568L867 729H627Z" />
<glyph unicode="_" glyph-name="underscore" horiz-adv-x="910" d="M0 -243V0H908V-243H0Z" />
<glyph unicode="`" glyph-name="grave" horiz-adv-x="686" d="M332 1224L53 1536H388L587 1224H332Z" />
<glyph unicode="a" glyph-name="a" horiz-adv-x="1093" d="M991 174T1002 117T1036 17V0H722Q704 40 693 96Q595 -20 425 -20Q324 -20 240 21T107 137T58 305Q58 476 184 568T561 661H678V720Q678 793 643 833T533 874Q467 874 431 843T394 752H83Q83 850 140
930T304 1056T550 1102Q679 1102 778 1059T934 929T991 718V270Q991 174 1002 117ZM560 214T608 241T678 308V485H566Q466 485 418 440T370 324Q370 275 404 245T496 214Q560 214 608 241Z" />
<glyph unicode="b" glyph-name="b" horiz-adv-x="1153" d="M810 1102T904 1033T1045 840T1092 553V532Q1092 366 1046 242T905 49T672 -20Q501 -20 399 115L385 0H105V1536H417V989Q516 1102 670 1102Q810 1102 904 1033ZM781 553Q781 690 740 770T592 850Q464
850 417 750V331Q464 231 594 231Q702 231 741 307T781 532V553Z" />
<glyph unicode="c" glyph-name="c" horiz-adv-x="1067" d="M1016 382Q1016 265 956 174T793 31T563 -20Q400 -20 287 51T117 245T60 528V553Q60 712 116 836T286 1031T562 1102Q696 1102 798 1051T958 902T1016 671H723Q722 750 679 800T555 850Q449 850 411 771T372
553V528Q372 387 410 310T557 232Q632 232 677 272T723 382H1016Z" />
<glyph unicode="d" glyph-name="d" horiz-adv-x="1153" d="M1048 1536V0H767L752 117Q646 -20 481 -20Q349 -20 254 50T110 245T60 528V549Q60 714 109 839T254 1033T483 1102Q635 1102 735 986V1536H1048ZM623 232T666 258T735 335V747Q686 850 562 850Q463 850
418 769T372 549V528Q372 392 416 312T560 232Q623 232 666 258Z" />
<glyph unicode="e" glyph-name="e" horiz-adv-x="1111" d="M1064 439H385Q403 343 468 288T634 232Q712 232 778 260T891 347L1038 172Q981 91 871 36T614 -20Q447 -20 323 50T133 241T67 505V543Q67 704 128 830T304 1029T580 1102Q733 1102 842 1038T1007 854T1064
572V439ZM758 671Q758 755 713 802T578 850Q419 850 386 646H758V671Z" />
<glyph unicode="f" glyph-name="f" horiz-adv-x="738" d="M575 1305T534 1271T493 1172V1082H706V855H493V0H180V855H22V1082H180V1172Q180 1295 229 1381T369 1512T586 1557Q656 1557 738 1536V1296Q700 1305 651 1305Q575 1305 534 1271Z" />
<glyph unicode="g" glyph-name="g" horiz-adv-x="1174" d="M1069 1082V41Q1069 -106 1003 -211T816 -371T535 -426Q424 -426 311 -383T132 -262L267 -71Q314 -123 379 -153T522 -184Q634 -184 695 -125T757 42V92Q656 -20 502 -20Q369 -20 270 50T117 246T63 528V549Q63
713 116 838T270 1032T504 1102Q678 1102 775 983L787 1082H1069ZM701 232T757 318V764Q703 850 583 850Q482 850 429 767T375 549V528Q375 397 427 315T581 232Q701 232 757 318Z" />
<glyph unicode="h" glyph-name="h" horiz-adv-x="1151" d="M861 1102T956 1001T1051 675V0H738V677Q738 774 698 812T574 850Q459 850 409 770V0H97V1536H409V966Q462 1031 533 1066T691 1102Q861 1102 956 1001Z" />
<glyph unicode="i" glyph-name="i" horiz-adv-x="553" d="M353 1521T401 1477T449 1361Q449 1291 401 1247T275 1202Q197 1202 150 1246T102 1361Q102 1432 149 1476T275 1521Q353 1521 401 1477ZM120 0V1082H433V0H120Z" />
<glyph unicode="j" glyph-name="j" horiz-adv-x="543" d="M352 1521T400 1477T448 1361Q448 1291 400 1247T274 1202Q196 1202 148 1246T100 1361Q100 1432 148 1476T274 1521Q352 1521 400 1477ZM436 -43Q436 -233 334 -335T46 -437Q-37 -437 -106 -420V-173Q-47
-182 -12 -182Q124 -182 124 -43V1082H436V-43Z" />
<glyph unicode="k" glyph-name="k" horiz-adv-x="1107" d="M517 419L417 320V0H105V1537H417V704L462 763L728 1082H1102L718 633L1132 0H774L517 419Z" />
<glyph unicode="l" glyph-name="l" horiz-adv-x="553" d="M120 0V1536H433V0H120Z" />
<glyph unicode="m" glyph-name="m" horiz-adv-x="1769" d="M1485 1102T1574 1004T1664 684V0H1351V684Q1351 750 1334 786T1286 836T1204 850Q1146 850 1105 822T1040 744V722V0H728V682Q728 749 711 786T662 836T580 850Q525 850 484 826T417 756V0H105V1082H398L408
959Q462 1028 540 1065T717 1102Q817 1102 889 1062T1000 938Q1053 1017 1134 1059T1321 1102Q1485 1102 1574 1004Z" />
<glyph unicode="n" glyph-name="n" horiz-adv-x="1151" d="M872 1102T961 1004T1051 683V0H738V685Q738 779 699 814T575 850Q464 850 409 760V0H98V1082H390L401 957Q457 1028 535 1065T710 1102Q872 1102 961 1004Z" />
<glyph unicode="o" glyph-name="o" horiz-adv-x="1155" d="M60 710T120 835T297 1031T576 1102Q739 1102 856 1031T1033 836T1094 551V530Q1094 371 1034 246T857 51T578 -20Q415 -20 298 50T121 245T60 530V551Q60 710 120 835ZM372 393T420 313T578 232Q685
232 733 313T782 530V551Q782 685 734 767T576 850Q469 850 421 768T372 551V530Q372 393 420 313Z" />
<glyph unicode="p" glyph-name="p" horiz-adv-x="1153" d="M805 1102T900 1035T1043 844T1092 554V533Q1092 374 1043 249T900 52T672 -20Q516 -20 417 93V-416H105V1082H395L406 979Q507 1102 670 1102Q805 1102 900 1035ZM780 554Q780 691 735 770T591 850Q525
850 483 827T417 755V331Q465 232 593 232Q692 232 736 314T780 533V554Z" />
<glyph unicode="q" glyph-name="q" horiz-adv-x="1154" d="M1048 1082V-416H735V92Q636 -20 481 -20Q348 -20 253 51T109 247T60 531V552Q60 717 109 841T253 1034T483 1102Q653 1102 755 968L776 1082H1048ZM685 232T735 328V757Q688 850 562 850Q463 850 418
770T372 552V531Q372 395 416 314T560 232Q685 232 735 328Z" />
<glyph unicode="r" glyph-name="r" horiz-adv-x="761" d="M703 1102T738 1090L734 788Q657 796 626 796Q544 796 493 770T417 692V0H105V1082H398L408 949Q449 1023 509 1062T647 1102Q703 1102 738 1090Z" />
<glyph unicode="s" glyph-name="s" horiz-adv-x="1052" d="M286 468T184 548T81 762Q81 854 133 932T285 1056T519 1102Q659 1102 763 1058T924 934T981 751H669Q669 815 633 850T518 885Q455 885 417 855T378 778Q378 732 422 704T569 656Q696 633 785 595T928
489T982 313Q982 218 925 142T763 23T519 -20Q373 -20 266 33T102 171T46 346H340Q343 272 394 235T526 198Q600 198 640 226T681 303Q681 333 663 354T597 393T463 430Q286 468 184 548Z" />
<glyph unicode="t" glyph-name="t" horiz-adv-x="698" d="M629 236T666 243V8Q584 -20 484 -20Q327 -20 244 59T160 308V855H12V1082H160V1350H472V1082H653V855H472V346Q472 282 497 259T582 236Q629 236 666 243Z" />
<glyph unicode="u" glyph-name="u" horiz-adv-x="1151" d="M1052 1082V0H759L750 114Q698 49 625 15T458 -20Q289 -20 193 78T97 382V1082H409V380Q409 305 447 269T554 232Q687 232 739 324V1082H1052Z" />
<glyph unicode="v" glyph-name="v" horiz-adv-x="1046" d="M1035 1082L676 0H479H368L8 1082H336L522 378L708 1082H1035Z" />
<glyph unicode="w" glyph-name="w" horiz-adv-x="1497" d="M1468 1082L1202 0H1011H939L747 651L553 0H392H292L25 1082H325L451 419L636 1082H832H857L1041 424L1168 1082H1468Z" />
<glyph unicode="x" glyph-name="x" horiz-adv-x="1048" d="M698 1082H1027L730 554L1040 0H710L528 326L348 0H17L328 554L32 1082H363L528 777L698 1082Z" />
<glyph unicode="y" glyph-name="y" horiz-adv-x="1044" d="M1046 1082L612 -161Q587 -233 550 -292T442 -394T261 -437Q219 -437 195 -433T127 -417V-183L171 -184Q252 -184 290 -160T348 -83L378 -6L0 1082H334L522 440L712 1082H1046Z" />
<glyph unicode="z" glyph-name="z" horiz-adv-x="1048" d="M978 252V0H150H71V184L562 830H89V1082H859H965V904L472 252H978Z" />
<glyph unicode="{" glyph-name="braceleft" horiz-adv-x="671" d="M490 -7T522 -82T634 -188L575 -360Q381 -306 298 -186T215 106V309Q215 404 174 456T45 508V672V729Q132 729 173 781T215 929V1132Q215 1303 298 1423T575 1597L634 1426Q555 1396 523 1321T490
1132V929Q490 826 445 746T309 619Q400 573 445 493T490 309V106Q490 -7 522 -82Z" />
<glyph unicode="|" glyph-name="bar" horiz-adv-x="521" d="M173 -270V1456H352V-270H173Z" />
<glyph unicode="}" glyph-name="braceright" horiz-adv-x="671" d="M457 834T498 782T627 729V568V508Q540 508 499 456T457 309V106Q457 -65 374 -185T97 -360L38 -188Q117 -158 149 -83T182 106V309Q182 413 227 493T366 619Q273 665 228 745T182 929V1132Q182
1245 150 1320T38 1426L97 1597Q291 1543 374 1423T457 1132V929Q457 834 498 782Z" />
<glyph unicode="~" glyph-name="asciitilde" horiz-adv-x="1313" d="M1210 667T1168 571T1050 422T876 370Q798 370 736 400T602 500Q559 542 524 561T451 581Q396 581 362 532T327 408L101 411Q101 542 142 637T259 783T432 833Q510 833 576 802T709 704Q751
663 786 643T858 623Q894 623 923 646T968 709T984 798L1210 797Q1210 667 1168 571Z" />
<glyph unicode="&#xa1;" glyph-name="exclamdown" horiz-adv-x="596" d="M249 774T210 795T148 854T126 938Q126 984 148 1021T209 1080T300 1102Q351 1102 390 1081T452 1022T474 938Q474 892 452 855T391 796T300 774Q249 774 210 795ZM427 628L465 -371H133L171
628H427Z" />
<glyph unicode="&#xa2;" glyph-name="cent" horiz-adv-x="1194" d="M672 232T717 272T762 382H1055Q1055 281 1010 199T886 62T705 -11V-245H505V-13Q372 7 281 82T145 271T99 528V553Q99 695 144 810T281 1000T505 1095V1318H705V1093Q811 1075 889 1020T1011
876T1055 671H762Q762 750 719 800T594 850Q488 850 450 771T411 553V528Q411 387 449 310T596 232Q672 232 717 272Z" />
<glyph unicode="&#xa3;" glyph-name="sterling" horiz-adv-x="1223" d="M1168 261V0H104V261H202Q243 272 255 313T268 424L264 566H101V819H256L249 1039Q249 1175 305 1273T463 1423T703 1475Q850 1475 954 1423T1113 1275T1167 1051H860Q860 1137 818 1175T707
1214Q646 1214 609 1169T572 1039L582 819H890V566H592L597 446Q597 387 584 342T539 261H1168Z" />
<glyph unicode="&#xa4;" glyph-name="currency" horiz-adv-x="1408" d="M1301 512T1276 424T1203 259L1342 118L1200 -27L1068 108Q992 46 900 13T707 -20Q606 -20 514 12T346 106L217 -26L76 118L211 256Q163 332 137 421T111 608Q111 710 139 802T220 973L76
1120L217 1264L359 1119Q434 1175 522 1204T707 1234Q803 1234 891 1204T1055 1117L1200 1265L1342 1120L1194 970Q1245 893 1273 801T1301 608Q1301 512 1276 424ZM819 172T912 229T1061 387T1116 608Q1116 729 1061 828T913 985T707 1043Q594 1043 500 986T352
829T297 608Q297 487 352 387T501 230T707 172Q819 172 912 229Z" />
<glyph unicode="&#xa5;" glyph-name="yen" horiz-adv-x="1103" d="M780 742H990V557H710V452H990V268H710V0H386V268H82V452H386V557H82V742H324L10 1456H345L553 915L759 1456H1093L780 742Z" />
<glyph unicode="&#xa6;" glyph-name="brokenbar" horiz-adv-x="520" d="M124 698V1456H399V698H124ZM124 525H399V-270H124V525Z" />
<glyph unicode="&#xa7;" glyph-name="section" horiz-adv-x="1294" d="M1099 173T1132 102T1166 -67Q1166 -187 1102 -271T919 -398T642 -442Q493 -442 370 -403T171 -272T94 -28H405Q405 -120 471 -154T642 -189Q745 -189 799 -158T854 -68Q854 -28 830 0T746
53T576 110Q414 152 310 204T150 335T94 530Q94 619 135 688T253 802Q185 854 151 924T116 1092Q116 1207 181 1294T365 1428T642 1476Q805 1476 923 1427T1104 1282T1167 1051H856Q856 1127 801 1175T642 1224Q534 1224 482 1188T429 1094Q429 1049 451 1021T530
970T704 915Q868 874 972 822T1132 690T1188 494Q1188 404 1148 336T1031 224Q1099 173 1132 102ZM406 517T428 487T507 430T681 369Q747 352 812 331Q845 353 862 386T880 459Q880 503 855 534T770 594T599 655Q516 678 468 696Q406 654 406 567Q406 517 428 487Z"
/>
<glyph unicode="&#xa8;" glyph-name="dieresis" horiz-adv-x="983" d="M279 1496T312 1479T365 1431T384 1365Q384 1329 365 1299T313 1252T239 1234Q199 1234 166 1251T114 1299T95 1365Q95 1401 114 1431T166 1478T239 1496Q279 1496 312 1479ZM782 1496T815
1479T867 1431T886 1365Q886 1329 867 1299T815 1252T742 1234Q702 1234 669 1251T616 1299T597 1365Q597 1401 616 1431T668 1478T742 1496Q782 1496 815 1479Z" />
<glyph unicode="&#xa9;" glyph-name="copyright" horiz-adv-x="1608" d="M989 1476T1152 1378T1410 1108T1506 729Q1506 521 1411 350T1152 79T796 -20Q602 -20 440 79T182 349T86 729Q86 937 181 1108T439 1377T796 1476Q989 1476 1152 1378ZM956 105T1090 187T1304
413T1383 729Q1383 902 1304 1044T1091 1269T796 1351Q635 1351 501 1269T287 1045T208 729Q208 556 287 413T501 188T796 105Q956 105 1090 187ZM1117 442T1029 362T782 282Q676 282 597 330T476 466T433 669V788Q433 902 475 990T597 1126T782 1175Q940 1175
1029 1095T1118 861H962Q962 955 918 997T782 1040Q689 1040 639 972T588 789V669Q588 554 638 486T782 417Q873 417 917 459T961 596H1117Q1117 442 1029 362Z" />
<glyph unicode="&#xaa;" glyph-name="ordfeminine" horiz-adv-x="907" d="M603 705Q592 739 586 773Q552 736 502 714T385 691Q267 691 202 752T136 919Q136 1031 221 1090T477 1150H579V1201Q579 1263 550 1295T463 1328Q398 1328 362 1303T325 1229L152 1243Q152
1310 190 1363T300 1446T463 1476Q597 1476 675 1405T754 1200V886Q754 784 780 705H603ZM311 881T340 858T428 835Q466 835 508 853T579 897V1033H478Q396 1033 354 1002T311 923Q311 881 340 858Z" />
<glyph unicode="&#xab;" glyph-name="guillemotleft" horiz-adv-x="1038" d="M562 518L799 119H603L326 509V522V528L603 918H799L562 518ZM706 518L943 119H747L470 509V522V528L747 918H943L706 518Z" />
<glyph unicode="&#xac;" glyph-name="logicalnot" horiz-adv-x="1127" d="M961 805V634V374H761V634H126V805H961Z" />
<glyph unicode="&#xad;" glyph-name="uni00AD" horiz-adv-x="600" d="M130 500V753H711V500H130Z" />
<glyph unicode="&#xae;" glyph-name="registered" horiz-adv-x="1608" d="M989 1476T1152 1378T1410 1108T1506 729Q1506 521 1411 350T1152 79T796 -20Q602 -20 440 79T182 349T86 729Q86 937 181 1108T439 1377T796 1476Q989 1476 1152 1378ZM956 105T1090 187T1304
413T1383 729Q1383 902 1304 1044T1091 1269T796 1351Q635 1351 501 1269T287 1045T208 729Q208 556 287 413T501 188T796 105Q956 105 1090 187ZM1104 459Q1104 371 1121 332V316H966Q953 350 953 460V514Q953 586 920 619T810 653H652V316H501V1166H782Q933 1166
1020 1098T1107 903Q1107 793 999 731Q1104 674 1104 515V459ZM857 787T907 817T957 903Q957 952 941 980T886 1020T782 1033H652V787H784Q857 787 907 817Z" />
<glyph unicode="&#xaf;" glyph-name="overscore" horiz-adv-x="1045" d="M174 1286V1457H866V1286H174Z" />
<glyph unicode="&#xb0;" glyph-name="degree" horiz-adv-x="804" d="M476 1476T538 1439T637 1337T674 1197Q674 1122 638 1059T539 958T402 921Q328 921 265 958T164 1058T126 1197Q126 1272 163 1336T264 1438T402 1476Q476 1476 538 1439ZM454 1073T489 1108T524
1197Q524 1252 489 1288T402 1325Q368 1325 340 1308T294 1262T277 1197Q277 1144 313 1109T402 1073Q454 1073 489 1108Z" />
<glyph unicode="&#xb1;" glyph-name="plusminus" horiz-adv-x="1102" d="M1003 964V703H683V350H410V703H87V964H410V1291H683V964H1003ZM108 256H978V1H108V256Z" />
<glyph unicode="&#xb2;" glyph-name="uni00B2" horiz-adv-x="765" d="M72 667V811L358 1066Q407 1107 433 1150T460 1217Q460 1254 437 1274T370 1295Q322 1295 296 1265T269 1190H54Q54 1266 91 1329T199 1430T360 1468Q510 1468 592 1403T674 1217Q674 1158
651 1112T582 1021T451 912L355 839H695V667H72Z" />
<glyph unicode="&#xb3;" glyph-name="uni00B3" horiz-adv-x="765" d="M621 1053T660 1009T699 889Q699 817 655 764T535 684T363 656Q283 656 211 681T92 763T45 907H261Q261 875 293 852T377 829Q431 829 458 853T485 912Q485 1000 365 1000H275V1088V1140H365Q418
1140 444 1162T471 1224Q471 1252 446 1273T369 1295Q329 1295 302 1281T274 1241H60Q60 1314 101 1365T212 1442T363 1468Q509 1468 597 1409T685 1241Q685 1181 649 1138T549 1072Q621 1053 660 1009Z" />
<glyph unicode="&#xb4;" glyph-name="acute" horiz-adv-x="685" d="M628 1536L350 1224H96L293 1536H628Z" />
<glyph unicode="&#xb6;" glyph-name="paragraph" horiz-adv-x="1003" d="M654 520H571Q416 520 305 580T137 746T79 988Q79 1123 136 1229T305 1395T571 1456H878V0H654V520Z" />
<glyph unicode="&#xb7;" glyph-name="middot" horiz-adv-x="636" d="M365 854T404 833T466 773T488 689Q488 643 466 605T405 546T314 524Q263 524 223 545T161 605T139 689Q139 735 161 773T223 832T314 854Q365 854 404 833Z" />
<glyph unicode="&#xb8;" glyph-name="cedilla" horiz-adv-x="559" d="M348 -51Q412 -62 455 -103T498 -224Q498 -298 457 -353T334 -438T137 -469L130 -289Q177 -289 204 -270T231 -211Q231 -172 200 -157T93 -136L124 9H359L348 -51Z" />
<glyph unicode="&#xb9;" glyph-name="uni00B9" horiz-adv-x="765" d="M322 667V1205L139 1167V1332L516 1453H535V667H322Z" />
<glyph unicode="&#xba;" glyph-name="ordmasculine" horiz-adv-x="938" d="M118 1224T160 1304T281 1430T464 1476Q570 1476 648 1431T769 1305T811 1121V1044Q811 941 769 861T649 735T466 690Q361 690 282 735T161 860T118 1044V1121Q118 1224 160 1304ZM293
951T337 894T466 836Q549 836 592 893T636 1044V1121Q636 1213 592 1270T464 1328Q381 1328 337 1271T293 1121V1044Q293 951 337 894Z" />
<glyph unicode="&#xbb;" glyph-name="guillemotright" horiz-adv-x="1038" d="M554 527V514V508L278 118H82L318 518L82 917H278L554 527ZM957 527V514V508L681 118H485L721 518L485 917H681L957 527Z" />
<glyph unicode="&#xbf;" glyph-name="questiondown" horiz-adv-x="1031" d="M503 775T464 796T402 855T380 939Q380 985 402 1022T463 1081T554 1103Q605 1103 644 1082T706 1023T728 939Q728 893 706 856T645 797T554 775Q503 775 464 796ZM684 497T654 414T543
261Q485 207 454 174T404 100T384 10Q384 -62 420 -97T522 -133Q591 -133 634 -92T680 33H992Q990 -108 930 -201T766 -340T529 -385Q312 -385 192 -283T71 10Q71 87 101 150T177 264T304 390L323 407Q360 440 379 472T405 540T414 634H684Q684 497 654 414Z" />
<glyph unicode="&#xc0;" glyph-name="Agrave" horiz-adv-x="1387" d="M947 281H439L348 0H2L541 1456H760H844L1385 0H1039L947 281ZM862 543L693 1062L525 543H862ZM616 1534L337 1846H671L870 1534H616Z" />
<glyph unicode="&#xc1;" glyph-name="Aacute" horiz-adv-x="1387" d="M947 281H439L348 0H2L541 1456H760H844L1385 0H1039L947 281ZM862 543L693 1062L525 543H862ZM1072 1846L794 1534H541L737 1846H1072Z" />
<glyph unicode="&#xc2;" glyph-name="Acircumflex" horiz-adv-x="1387" d="M947 281H439L348 0H2L541 1456H760H844L1385 0H1039L947 281ZM862 543L693 1062L525 543H862ZM1099 1553H852L695 1691L539 1553H298V1569L606 1846H786L1099 1566V1553Z" />
<glyph unicode="&#xc3;" glyph-name="Atilde" horiz-adv-x="1387" d="M947 281H439L348 0H2L541 1456H760H844L1385 0H1039L947 281ZM862 543L693 1062L525 543H862ZM1077 1763T1048 1701T965 1602T847 1565Q804 1565 771 1576T696 1610Q657 1630 631 1639T571
1649Q536 1649 514 1626T491 1558L314 1568Q314 1639 343 1701T425 1801T542 1839Q578 1839 608 1829T686 1796Q726 1776 756 1766T818 1755Q854 1755 877 1779T901 1847L1077 1836Q1077 1763 1048 1701Z" />
<glyph unicode="&#xc4;" glyph-name="Adieresis" horiz-adv-x="1387" d="M947 281H439L348 0H2L541 1456H760H844L1385 0H1039L947 281ZM862 543L693 1062L525 543H862ZM483 1806T516 1789T569 1741T588 1675Q588 1639 569 1609T517 1562T443 1544Q403 1544 370
1561T318 1609T299 1675Q299 1711 318 1741T370 1788T443 1806Q483 1806 516 1789ZM986 1806T1019 1789T1071 1741T1090 1675Q1090 1639 1071 1609T1019 1562T946 1544Q906 1544 873 1561T820 1609T801 1675Q801 1711 820 1741T872 1788T946 1806Q986 1806 1019
1789Z" />
<glyph unicode="&#xc5;" glyph-name="Aring" horiz-adv-x="1387" d="M947 281H439L348 0H2L541 1456H760H844L1385 0H1039L947 281ZM862 543L693 1062L525 543H862ZM760 1933T811 1906T892 1832T921 1730Q921 1675 892 1629T812 1557T697 1530Q633 1530 582 1556T502
1629T473 1730Q473 1785 502 1831T582 1905T697 1933Q760 1933 811 1906ZM745 1625T774 1655T803 1730Q803 1775 774 1806T697 1837Q650 1837 621 1806T591 1730Q591 1685 620 1655T697 1625Q745 1625 774 1655Z" />
<glyph unicode="&#xc6;" glyph-name="AE" horiz-adv-x="1926" d="M1859 255V0H1127H962L948 331H532L372 0H9L771 1456H968H1213H1798V1201H1223L1237 873H1717V618H1248L1263 255H1859ZM937 593L915 1121L659 593H937Z" />
<glyph unicode="&#xc7;" glyph-name="Ccedilla" horiz-adv-x="1342" d="M818 246T883 306T957 491H1281Q1273 356 1215 250T1051 76T803 -12L796 -52Q860 -63 903 -104T946 -225Q946 -299 905 -354T782 -439T585 -470L578 -290Q625 -290 652 -271T679 -212Q679
-173 648 -158T541 -137L568 -10Q414 15 305 106T137 345T79 686V770Q79 985 154 1145T366 1391T687 1477Q868 1477 997 1411T1197 1227T1283 956H959Q951 1086 889 1148T687 1211Q544 1211 476 1106T408 772V686Q408 530 435 434T524 292T687 246Q818 246 883
306Z" />
<glyph unicode="&#xc8;" glyph-name="Egrave" horiz-adv-x="1149" d="M446 1194V874H1010V621H446V261H1110V0H337H121V1456H446H1110V1194H446ZM560 1535L281 1847H615L814 1535H560Z" />
<glyph unicode="&#xc9;" glyph-name="Eacute" horiz-adv-x="1149" d="M446 1194V874H1010V621H446V261H1110V0H337H121V1456H446H1110V1194H446ZM1016 1847L738 1535H485L681 1847H1016Z" />
<glyph unicode="&#xca;" glyph-name="Ecircumflex" horiz-adv-x="1149" d="M446 1194V874H1010V621H446V261H1110V0H337H121V1456H446H1110V1194H446ZM1043 1554H796L639 1692L483 1554H242V1570L550 1847H730L1043 1567V1554Z" />
<glyph unicode="&#xcb;" glyph-name="Edieresis" horiz-adv-x="1149" d="M446 1194V874H1010V621H446V261H1110V0H337H121V1456H446H1110V1194H446ZM427 1807T460 1790T513 1742T532 1676Q532 1640 513 1610T461 1563T387 1545Q347 1545 314 1562T262 1610T243
1676Q243 1712 262 1742T314 1789T387 1807Q427 1807 460 1790ZM930 1807T963 1790T1015 1742T1034 1676Q1034 1640 1015 1610T963 1563T890 1545Q850 1545 817 1562T764 1610T745 1676Q745 1712 764 1742T816 1789T890 1807Q930 1807 963 1790Z" />
<glyph unicode="&#xcc;" glyph-name="Igrave" horiz-adv-x="608" d="M142 0V1456H466V0H142ZM223 1535L-56 1847H278L477 1535H223Z" />
<glyph unicode="&#xcd;" glyph-name="Iacute" horiz-adv-x="608" d="M142 0V1456H466V0H142ZM679 1847L401 1535H148L344 1847H679Z" />
<glyph unicode="&#xce;" glyph-name="Icircumflex" horiz-adv-x="608" d="M142 0V1456H466V0H142ZM707 1554H460L303 1692L147 1554H-94V1570L214 1847H394L707 1567V1554Z" />
<glyph unicode="&#xcf;" glyph-name="Idieresis" horiz-adv-x="608" d="M142 0V1456H466V0H142ZM90 1807T123 1790T176 1742T195 1676Q195 1640 176 1610T124 1563T50 1545Q10 1545 -23 1562T-75 1610T-94 1676Q-94 1712 -75 1742T-23 1789T50 1807Q90 1807 123
1790ZM593 1807T626 1790T678 1742T697 1676Q697 1640 678 1610T626 1563T553 1545Q513 1545 480 1562T427 1610T408 1676Q408 1712 427 1742T479 1789T553 1807Q593 1807 626 1790Z" />
<glyph unicode="&#xd0;" glyph-name="Eth" horiz-adv-x="1328" d="M774 1456T926 1368T1163 1122T1249 759V696Q1249 492 1164 334T927 88T579 0H261H121V638H-24V826H121V1456H446H579Q774 1456 926 1368ZM919 761Q919 973 832 1083T579 1194H446V826H690V638H446V261H579Q744
261 831 372T919 696V761Z" />
<glyph unicode="&#xd1;" glyph-name="Ntilde" horiz-adv-x="1443" d="M997 0L446 922V0H121V1456H446L997 533V1456H1321V0H997ZM1107 1763T1078 1701T995 1602T877 1565Q834 1565 801 1576T726 1610Q687 1630 661 1639T601 1649Q566 1649 544 1626T521 1558L344
1568Q344 1639 373 1701T455 1801T572 1839Q608 1839 638 1829T716 1796Q756 1776 786 1766T848 1755Q884 1755 907 1779T931 1847L1107 1836Q1107 1763 1078 1701Z" />
<glyph unicode="&#xd2;" glyph-name="Ograve" horiz-adv-x="1414" d="M1335 478T1256 316T1034 67T708 -20Q523 -20 381 67T159 316T79 697V758Q79 977 158 1139T379 1389T706 1476Q890 1476 1033 1389T1255 1140T1335 758V697Q1335 478 1256 316ZM1006 978T928
1093T706 1209Q560 1209 484 1094T407 760V697Q407 479 485 363T708 246Q851 246 928 363T1006 697V760Q1006 978 928 1093ZM626 1534L347 1846H681L880 1534H626Z" />
<glyph unicode="&#xd3;" glyph-name="Oacute" horiz-adv-x="1414" d="M1335 478T1256 316T1034 67T708 -20Q523 -20 381 67T159 316T79 697V758Q79 977 158 1139T379 1389T706 1476Q890 1476 1033 1389T1255 1140T1335 758V697Q1335 478 1256 316ZM1006 978T928
1093T706 1209Q560 1209 484 1094T407 760V697Q407 479 485 363T708 246Q851 246 928 363T1006 697V760Q1006 978 928 1093ZM1082 1846L804 1534H551L747 1846H1082Z" />
<glyph unicode="&#xd4;" glyph-name="Ocircumflex" horiz-adv-x="1414" d="M1335 478T1256 316T1034 67T708 -20Q523 -20 381 67T159 316T79 697V758Q79 977 158 1139T379 1389T706 1476Q890 1476 1033 1389T1255 1140T1335 758V697Q1335 478 1256 316ZM1006 978T928
1093T706 1209Q560 1209 484 1094T407 760V697Q407 479 485 363T708 246Q851 246 928 363T1006 697V760Q1006 978 928 1093ZM1109 1553H862L705 1691L549 1553H308V1569L616 1846H796L1109 1566V1553Z" />
<glyph unicode="&#xd5;" glyph-name="Otilde" horiz-adv-x="1414" d="M1335 478T1256 316T1034 67T708 -20Q523 -20 381 67T159 316T79 697V758Q79 977 158 1139T379 1389T706 1476Q890 1476 1033 1389T1255 1140T1335 758V697Q1335 478 1256 316ZM1006 978T928
1093T706 1209Q560 1209 484 1094T407 760V697Q407 479 485 363T708 246Q851 246 928 363T1006 697V760Q1006 978 928 1093ZM1087 1763T1058 1701T975 1602T857 1565Q814 1565 781 1576T706 1610Q667 1630 641 1639T581 1649Q546 1649 524 1626T501 1558L324 1568Q324
1639 353 1701T435 1801T552 1839Q588 1839 618 1829T696 1796Q736 1776 766 1766T828 1755Q864 1755 887 1779T911 1847L1087 1836Q1087 1763 1058 1701Z" />
<glyph unicode="&#xd6;" glyph-name="Odieresis" horiz-adv-x="1414" d="M1335 478T1256 316T1034 67T708 -20Q523 -20 381 67T159 316T79 697V758Q79 977 158 1139T379 1389T706 1476Q890 1476 1033 1389T1255 1140T1335 758V697Q1335 478 1256 316ZM1006 978T928
1093T706 1209Q560 1209 484 1094T407 760V697Q407 479 485 363T708 246Q851 246 928 363T1006 697V760Q1006 978 928 1093ZM493 1806T526 1789T579 1741T598 1675Q598 1639 579 1609T527 1562T453 1544Q413 1544 380 1561T328 1609T309 1675Q309 1711 328 1741T380
1788T453 1806Q493 1806 526 1789ZM996 1806T1029 1789T1081 1741T1100 1675Q1100 1639 1081 1609T1029 1562T956 1544Q916 1544 883 1561T830 1609T811 1675Q811 1711 830 1741T882 1788T956 1806Q996 1806 1029 1789Z" />
<glyph unicode="&#xd7;" glyph-name="multiply" horiz-adv-x="1086" d="M718 687L1020 379L839 200L540 505L241 200L60 379L361 687L60 994L241 1173L540 868L839 1173L1020 994L718 687Z" />
<glyph unicode="&#xd8;" glyph-name="Oslash" horiz-adv-x="1410" d="M1245 1204T1294 1067T1344 758V697Q1344 478 1265 316T1043 67T717 -20Q552 -20 424 48L341 -95H144L286 148Q191 243 140 382T88 697V758Q88 977 167 1139T388 1389T715 1476Q885 1476 1017
1403L1085 1518H1281L1154 1299Q1245 1204 1294 1067ZM417 544T456 440L875 1159Q808 1209 715 1209Q569 1209 493 1095T417 760V697Q417 544 456 440ZM1015 760Q1015 901 981 1003L565 290Q629 246 717 246Q860 246 937 363T1015 697V760Z" />
<glyph unicode="&#xd9;" glyph-name="Ugrave" horiz-adv-x="1354" d="M1242 502Q1242 336 1172 219T974 41T678 -20Q509 -20 382 40T183 218T111 502V1456H436V502Q436 241 678 241Q796 241 856 304T917 502V1456H1242V502ZM593 1534L314 1846H648L847 1534H593Z" />
<glyph unicode="&#xda;" glyph-name="Uacute" horiz-adv-x="1354" d="M1242 502Q1242 336 1172 219T974 41T678 -20Q509 -20 382 40T183 218T111 502V1456H436V502Q436 241 678 241Q796 241 856 304T917 502V1456H1242V502ZM1049 1846L771 1534H518L714 1846H1049Z" />
<glyph unicode="&#xdb;" glyph-name="Ucircumflex" horiz-adv-x="1354" d="M1242 502Q1242 336 1172 219T974 41T678 -20Q509 -20 382 40T183 218T111 502V1456H436V502Q436 241 678 241Q796 241 856 304T917 502V1456H1242V502ZM1076 1553H829L672 1691L516 1553H275V1569L583
1846H763L1076 1566V1553Z" />
<glyph unicode="&#xdc;" glyph-name="Udieresis" horiz-adv-x="1354" d="M1242 502Q1242 336 1172 219T974 41T678 -20Q509 -20 382 40T183 218T111 502V1456H436V502Q436 241 678 241Q796 241 856 304T917 502V1456H1242V502ZM460 1806T493 1789T546 1741T565
1675Q565 1639 546 1609T494 1562T420 1544Q380 1544 347 1561T295 1609T276 1675Q276 1711 295 1741T347 1788T420 1806Q460 1806 493 1789ZM963 1806T996 1789T1048 1741T1067 1675Q1067 1639 1048 1609T996 1562T923 1544Q883 1544 850 1561T797 1609T778 1675Q778
1711 797 1741T849 1788T923 1806Q963 1806 996 1789Z" />
<glyph unicode="&#xdd;" glyph-name="Yacute" horiz-adv-x="1276" d="M924 1456H1276L802 525V0H473V525L-1 1456H352L638 817L924 1456ZM1016 1846L738 1534H485L681 1846H1016Z" />
<glyph unicode="&#xde;" glyph-name="Thorn" horiz-adv-x="1256" d="M823 1195T946 1137T1133 976T1197 738Q1197 604 1134 501T947 339T649 281H438V0H125V1456H438V1195H649Q823 1195 946 1137ZM768 533T826 591T884 736Q884 826 826 885T649 944H438V533H649Q768
533 826 591Z" />
<glyph unicode="&#xdf;" glyph-name="germandbls" horiz-adv-x="1310" d="M135 0V1100Q135 1250 194 1353T364 1508T628 1561Q748 1561 846 1518T1001 1389T1059 1184Q1059 1117 1046 1077T1005 992Q981 952 970 919T958 834Q958 800 984 767T1065 682Q1122 628
1158 587T1221 489T1247 364Q1247 244 1194 158T1038 26T787 -20Q708 -20 630 -6T513 33L569 278Q607 259 662 246T784 232Q855 232 895 266T936 360Q936 393 921 421T882 472T817 531Q763 576 729 612T670 699T646 817Q646 881 660 921T701 1010Q725 1053 737
1086T749 1169Q749 1231 707 1270T599 1310Q525 1310 486 1261T447 1094V0H135Z" />
<glyph unicode="&#xe0;" glyph-name="agrave" horiz-adv-x="1093" d="M991 174T1002 117T1036 17V0H722Q704 40 693 96Q595 -20 425 -20Q324 -20 240 21T107 137T58 305Q58 476 184 568T561 661H678V720Q678 793 643 833T533 874Q467 874 431 843T394 752H83Q83
850 140 930T304 1056T550 1102Q679 1102 778 1059T934 929T991 718V270Q991 174 1002 117ZM560 214T608 241T678 308V485H566Q466 485 418 440T370 324Q370 275 404 245T496 214Q560 214 608 241ZM464 1224L185 1536H519L718 1224H464Z" />
<glyph unicode="&#xe1;" glyph-name="aacute" horiz-adv-x="1093" d="M991 174T1002 117T1036 17V0H722Q704 40 693 96Q595 -20 425 -20Q324 -20 240 21T107 137T58 305Q58 476 184 568T561 661H678V720Q678 793 643 833T533 874Q467 874 431 843T394 752H83Q83
850 140 930T304 1056T550 1102Q679 1102 778 1059T934 929T991 718V270Q991 174 1002 117ZM560 214T608 241T678 308V485H566Q466 485 418 440T370 324Q370 275 404 245T496 214Q560 214 608 241ZM920 1536L642 1224H389L585 1536H920Z" />
<glyph unicode="&#xe2;" glyph-name="acircumflex" horiz-adv-x="1093" d="M991 174T1002 117T1036 17V0H722Q704 40 693 96Q595 -20 425 -20Q324 -20 240 21T107 137T58 305Q58 476 184 568T561 661H678V720Q678 793 643 833T533 874Q467 874 431 843T394 752H83Q83
850 140 930T304 1056T550 1102Q679 1102 778 1059T934 929T991 718V270Q991 174 1002 117ZM560 214T608 241T678 308V485H566Q466 485 418 440T370 324Q370 275 404 245T496 214Q560 214 608 241ZM947 1243H700L543 1381L387 1243H146V1259L454 1536H634L947 1256V1243Z"
/>
<glyph unicode="&#xe3;" glyph-name="atilde" horiz-adv-x="1093" d="M991 174T1002 117T1036 17V0H722Q704 40 693 96Q595 -20 425 -20Q324 -20 240 21T107 137T58 305Q58 476 184 568T561 661H678V720Q678 793 643 833T533 874Q467 874 431 843T394 752H83Q83
850 140 930T304 1056T550 1102Q679 1102 778 1059T934 929T991 718V270Q991 174 1002 117ZM560 214T608 241T678 308V485H566Q466 485 418 440T370 324Q370 275 404 245T496 214Q560 214 608 241ZM925 1453T896 1391T813 1292T695 1255Q652 1255 619 1266T544
1300Q505 1320 479 1329T419 1339Q384 1339 362 1316T339 1248L162 1258Q162 1329 191 1391T273 1491T390 1529Q426 1529 456 1519T534 1486Q574 1466 604 1456T666 1445Q702 1445 725 1469T749 1537L925 1526Q925 1453 896 1391Z" />
<glyph unicode="&#xe4;" glyph-name="adieresis" horiz-adv-x="1093" d="M991 174T1002 117T1036 17V0H722Q704 40 693 96Q595 -20 425 -20Q324 -20 240 21T107 137T58 305Q58 476 184 568T561 661H678V720Q678 793 643 833T533 874Q467 874 431 843T394 752H83Q83
850 140 930T304 1056T550 1102Q679 1102 778 1059T934 929T991 718V270Q991 174 1002 117ZM560 214T608 241T678 308V485H566Q466 485 418 440T370 324Q370 275 404 245T496 214Q560 214 608 241ZM331 1496T364 1479T417 1431T436 1365Q436 1329 417 1299T365
1252T291 1234Q251 1234 218 1251T166 1299T147 1365Q147 1401 166 1431T218 1478T291 1496Q331 1496 364 1479ZM834 1496T867 1479T919 1431T938 1365Q938 1329 919 1299T867 1252T794 1234Q754 1234 721 1251T668 1299T649 1365Q649 1401 668 1431T720 1478T794
1496Q834 1496 867 1479Z" />
<glyph unicode="&#xe5;" glyph-name="aring" horiz-adv-x="1093" d="M991 174T1002 117T1036 17V0H722Q704 40 693 96Q595 -20 425 -20Q324 -20 240 21T107 137T58 305Q58 476 184 568T561 661H678V720Q678 793 643 833T533 874Q467 874 431 843T394 752H83Q83
850 140 930T304 1056T550 1102Q679 1102 778 1059T934 929T991 718V270Q991 174 1002 117ZM560 214T608 241T678 308V485H566Q466 485 418 440T370 324Q370 275 404 245T496 214Q560 214 608 241ZM608 1623T659 1596T740 1522T769 1420Q769 1365 740 1319T660
1247T545 1220Q481 1220 430 1246T350 1319T321 1420Q321 1475 350 1521T430 1595T545 1623Q608 1623 659 1596ZM593 1315T622 1345T651 1420Q651 1465 622 1496T545 1527Q498 1527 469 1496T439 1420Q439 1375 468 1345T545 1315Q593 1315 622 1345Z" />
<glyph unicode="&#xe6;" glyph-name="ae" horiz-adv-x="1730" d="M1681 440H1027Q1039 343 1101 288T1280 232Q1373 232 1436 249T1571 302L1650 101Q1588 51 1478 16T1243 -20Q1120 -20 1023 16T859 121Q799 59 702 20T475 -20Q344 -20 252 22T112 141T64 323Q64
482 193 567T571 653H722V703Q722 772 684 811T576 850Q500 850 456 820T412 742L100 761Q100 860 159 937T327 1058T579 1102Q680 1102 762 1077T902 1002Q1032 1103 1225 1102Q1366 1102 1468 1043T1626 873T1681 612V440ZM1376 672Q1376 756 1338 803T1225 850Q1056
850 1029 646H1376V672ZM376 266T415 236T534 206Q582 206 634 226T722 276V454H573Q511 454 467 436T399 386T376 319Q376 266 415 236Z" />
<glyph unicode="&#xe7;" glyph-name="ccedilla" horiz-adv-x="1067" d="M632 232T677 272T723 382H1016Q1016 283 973 202T854 67T678 -8L670 -52Q734 -63 777 -104T820 -225Q820 -299 779 -354T656 -439T459 -470L452 -290Q499 -290 526 -271T553 -212Q553 -173
522 -158T415 -137L442 -9Q317 16 232 91T103 278T60 528V553Q60 712 116 836T286 1031T562 1102Q696 1102 798 1051T958 902T1016 671H723Q722 750 679 800T555 850Q449 850 411 771T372 553V528Q372 387 410 310T557 232Q632 232 677 272Z" />
<glyph unicode="&#xe8;" glyph-name="egrave" horiz-adv-x="1111" d="M1064 439H385Q403 343 468 288T634 232Q712 232 778 260T891 347L1038 172Q981 91 871 36T614 -20Q447 -20 323 50T133 241T67 505V543Q67 704 128 830T304 1029T580 1102Q733 1102 842 1038T1007
854T1064 572V439ZM758 671Q758 755 713 802T578 850Q419 850 386 646H758V671ZM460 1225L181 1537H515L714 1225H460Z" />
<glyph unicode="&#xe9;" glyph-name="eacute" horiz-adv-x="1111" d="M1064 439H385Q403 343 468 288T634 232Q712 232 778 260T891 347L1038 172Q981 91 871 36T614 -20Q447 -20 323 50T133 241T67 505V543Q67 704 128 830T304 1029T580 1102Q733 1102 842 1038T1007
854T1064 572V439ZM758 671Q758 755 713 802T578 850Q419 850 386 646H758V671ZM916 1537L638 1225H385L581 1537H916Z" />
<glyph unicode="&#xea;" glyph-name="ecircumflex" horiz-adv-x="1111" d="M1064 439H385Q403 343 468 288T634 232Q712 232 778 260T891 347L1038 172Q981 91 871 36T614 -20Q447 -20 323 50T133 241T67 505V543Q67 704 128 830T304 1029T580 1102Q733 1102 842
1038T1007 854T1064 572V439ZM758 671Q758 755 713 802T578 850Q419 850 386 646H758V671ZM943 1244H696L539 1382L383 1244H142V1260L450 1537H630L943 1257V1244Z" />
<glyph unicode="&#xeb;" glyph-name="edieresis" horiz-adv-x="1111" d="M1064 439H385Q403 343 468 288T634 232Q712 232 778 260T891 347L1038 172Q981 91 871 36T614 -20Q447 -20 323 50T133 241T67 505V543Q67 704 128 830T304 1029T580 1102Q733 1102 842
1038T1007 854T1064 572V439ZM758 671Q758 755 713 802T578 850Q419 850 386 646H758V671ZM327 1497T360 1480T413 1432T432 1366Q432 1330 413 1300T361 1253T287 1235Q247 1235 214 1252T162 1300T143 1366Q143 1402 162 1432T214 1479T287 1497Q327 1497 360
1480ZM830 1497T863 1480T915 1432T934 1366Q934 1330 915 1300T863 1253T790 1235Q750 1235 717 1252T664 1300T645 1366Q645 1402 664 1432T716 1479T790 1497Q830 1497 863 1480Z" />
<glyph unicode="&#xec;" glyph-name="igrave" horiz-adv-x="572" d="M129 0V1082H442V0H129ZM207 1205L-72 1517H262L461 1205H207Z" />
<glyph unicode="&#xed;" glyph-name="iacute" horiz-adv-x="572" d="M129 0V1082H442V0H129ZM663 1517L385 1205H132L328 1517H663Z" />
<glyph unicode="&#xee;" glyph-name="icircumflex" horiz-adv-x="572" d="M129 0V1082H442V0H129ZM690 1224H443L286 1362L130 1224H-111V1240L197 1517H377L690 1237V1224Z" />
<glyph unicode="&#xef;" glyph-name="idieresis" horiz-adv-x="572" d="M129 0V1082H442V0H129ZM74 1477T107 1460T160 1412T179 1346Q179 1310 160 1280T108 1233T34 1215Q-6 1215 -39 1232T-91 1280T-110 1346Q-110 1382 -91 1412T-39 1459T34 1477Q74 1477
107 1460ZM577 1477T610 1460T662 1412T681 1346Q681 1310 662 1280T610 1233T537 1215Q497 1215 464 1232T411 1280T392 1346Q392 1382 411 1412T463 1459T537 1477Q577 1477 610 1460Z" />
<glyph unicode="&#xf0;" glyph-name="eth" horiz-adv-x="1173" d="M980 1182T1047 1017T1114 654V588Q1114 410 1046 272T857 57T584 -20Q435 -20 319 44T139 220T75 468Q75 617 128 728T283 901T528 963Q660 963 765 894Q714 1042 602 1146L418 1031L340 1148L483
1237Q371 1306 230 1341L329 1579Q570 1530 745 1401L912 1505L989 1389L857 1306Q980 1182 1047 1017ZM692 232T747 320T802 552V656Q772 688 721 708T597 728Q493 728 440 660T387 468Q387 401 411 347T480 263T588 232Q692 232 747 320Z" />
<glyph unicode="&#xf1;" glyph-name="ntilde" horiz-adv-x="1151" d="M872 1102T961 1004T1051 683V0H738V685Q738 779 699 814T575 850Q464 850 409 760V0H98V1082H390L401 957Q457 1028 535 1065T710 1102Q872 1102 961 1004ZM958 1453T929 1391T846 1292T728
1255Q685 1255 652 1266T577 1300Q538 1320 512 1329T452 1339Q417 1339 395 1316T372 1248L195 1258Q195 1329 224 1391T306 1491T423 1529Q459 1529 489 1519T567 1486Q607 1466 637 1456T699 1445Q735 1445 758 1469T782 1537L958 1526Q958 1453 929 1391Z"
/>
<glyph unicode="&#xf2;" glyph-name="ograve" horiz-adv-x="1155" d="M60 710T120 835T297 1031T576 1102Q739 1102 856 1031T1033 836T1094 551V530Q1094 371 1034 246T857 51T578 -20Q415 -20 298 50T121 245T60 530V551Q60 710 120 835ZM372 393T420 313T578
232Q685 232 733 313T782 530V551Q782 685 734 767T576 850Q469 850 421 768T372 551V530Q372 393 420 313ZM497 1224L218 1536H552L751 1224H497Z" />
<glyph unicode="&#xf3;" glyph-name="oacute" horiz-adv-x="1155" d="M60 710T120 835T297 1031T576 1102Q739 1102 856 1031T1033 836T1094 551V530Q1094 371 1034 246T857 51T578 -20Q415 -20 298 50T121 245T60 530V551Q60 710 120 835ZM372 393T420 313T578
232Q685 232 733 313T782 530V551Q782 685 734 767T576 850Q469 850 421 768T372 551V530Q372 393 420 313ZM953 1536L675 1224H422L618 1536H953Z" />
<glyph unicode="&#xf4;" glyph-name="ocircumflex" horiz-adv-x="1155" d="M60 710T120 835T297 1031T576 1102Q739 1102 856 1031T1033 836T1094 551V530Q1094 371 1034 246T857 51T578 -20Q415 -20 298 50T121 245T60 530V551Q60 710 120 835ZM372 393T420 313T578
232Q685 232 733 313T782 530V551Q782 685 734 767T576 850Q469 850 421 768T372 551V530Q372 393 420 313ZM980 1243H733L576 1381L420 1243H179V1259L487 1536H667L980 1256V1243Z" />
<glyph unicode="&#xf5;" glyph-name="otilde" horiz-adv-x="1155" d="M60 710T120 835T297 1031T576 1102Q739 1102 856 1031T1033 836T1094 551V530Q1094 371 1034 246T857 51T578 -20Q415 -20 298 50T121 245T60 530V551Q60 710 120 835ZM372 393T420 313T578
232Q685 232 733 313T782 530V551Q782 685 734 767T576 850Q469 850 421 768T372 551V530Q372 393 420 313ZM957 1453T928 1391T845 1292T727 1255Q684 1255 651 1266T576 1300Q537 1320 511 1329T451 1339Q416 1339 394 1316T371 1248L194 1258Q194 1329 223 1391T305
1491T422 1529Q458 1529 488 1519T566 1486Q606 1466 636 1456T698 1445Q734 1445 757 1469T781 1537L957 1526Q957 1453 928 1391Z" />
<glyph unicode="&#xf6;" glyph-name="odieresis" horiz-adv-x="1155" d="M60 710T120 835T297 1031T576 1102Q739 1102 856 1031T1033 836T1094 551V530Q1094 371 1034 246T857 51T578 -20Q415 -20 298 50T121 245T60 530V551Q60 710 120 835ZM372 393T420 313T578
232Q685 232 733 313T782 530V551Q782 685 734 767T576 850Q469 850 421 768T372 551V530Q372 393 420 313ZM364 1496T397 1479T450 1431T469 1365Q469 1329 450 1299T398 1252T324 1234Q284 1234 251 1251T199 1299T180 1365Q180 1401 199 1431T251 1478T324 1496Q364
1496 397 1479ZM867 1496T900 1479T952 1431T971 1365Q971 1329 952 1299T900 1252T827 1234Q787 1234 754 1251T701 1299T682 1365Q682 1401 701 1431T753 1478T827 1496Q867 1496 900 1479Z" />
<glyph unicode="&#xf7;" glyph-name="divide" horiz-adv-x="1167" d="M658 1247T706 1203T754 1087Q754 1017 706 972T580 927Q502 927 454 972T405 1087Q405 1158 453 1202T580 1247Q658 1247 706 1203ZM62 566V805H1097V566H62ZM658 437T706 393T754 277Q754
207 706 162T580 117Q502 117 454 162T405 277Q405 348 453 392T580 437Q658 437 706 393Z" />
<glyph unicode="&#xf8;" glyph-name="oslash" horiz-adv-x="1154" d="M991 934T1042 816T1094 551V530Q1094 371 1034 246T857 51T578 -20Q483 -20 405 4L332 -144H164L268 70Q167 141 114 260T60 530V551Q60 710 120 835T297 1031T576 1102Q676 1102 757 1075L827
1218H995L893 1007Q991 934 1042 816ZM372 417T402 346L643 840Q614 850 576 850Q469 850 421 768T372 551V530Q372 417 402 346ZM782 551Q782 654 755 724L519 239Q544 232 578 232Q685 232 733 313T782 530V551Z" />
<glyph unicode="&#xf9;" glyph-name="ugrave" horiz-adv-x="1151" d="M1052 1082V0H759L750 114Q698 49 625 15T458 -20Q289 -20 193 78T97 382V1082H409V380Q409 305 447 269T554 232Q687 232 739 324V1082H1052ZM495 1224L216 1536H550L749 1224H495Z" />
<glyph unicode="&#xfa;" glyph-name="uacute" horiz-adv-x="1151" d="M1052 1082V0H759L750 114Q698 49 625 15T458 -20Q289 -20 193 78T97 382V1082H409V380Q409 305 447 269T554 232Q687 232 739 324V1082H1052ZM951 1536L673 1224H420L616 1536H951Z" />
<glyph unicode="&#xfb;" glyph-name="ucircumflex" horiz-adv-x="1151" d="M1052 1082V0H759L750 114Q698 49 625 15T458 -20Q289 -20 193 78T97 382V1082H409V380Q409 305 447 269T554 232Q687 232 739 324V1082H1052ZM978 1243H731L574 1381L418 1243H177V1259L485
1536H665L978 1256V1243Z" />
<glyph unicode="&#xfc;" glyph-name="udieresis" horiz-adv-x="1151" d="M1052 1082V0H759L750 114Q698 49 625 15T458 -20Q289 -20 193 78T97 382V1082H409V380Q409 305 447 269T554 232Q687 232 739 324V1082H1052ZM362 1496T395 1479T448 1431T467 1365Q467
1329 448 1299T396 1252T322 1234Q282 1234 249 1251T197 1299T178 1365Q178 1401 197 1431T249 1478T322 1496Q362 1496 395 1479ZM865 1496T898 1479T950 1431T969 1365Q969 1329 950 1299T898 1252T825 1234Q785 1234 752 1251T699 1299T680 1365Q680 1401 699
1431T751 1478T825 1496Q865 1496 898 1479Z" />
<glyph unicode="&#xfd;" glyph-name="yacute" horiz-adv-x="1044" d="M1046 1082L612 -161Q587 -233 550 -292T442 -394T261 -437Q219 -437 195 -433T127 -417V-183L171 -184Q252 -184 290 -160T348 -83L378 -6L0 1082H334L522 440L712 1082H1046ZM901 1536L623
1224H370L566 1536H901Z" />
<glyph unicode="&#xfe;" glyph-name="thorn" horiz-adv-x="1156" d="M805 1102T900 1035T1043 844T1092 554V533Q1092 374 1043 249T900 52T672 -20Q517 -20 418 92V-416H105V1536H418V993Q516 1102 670 1102Q805 1102 900 1035ZM780 554Q780 691 735 770T591
850Q464 850 418 757V329Q466 232 593 232Q692 232 736 314T780 533V554Z" />
<glyph unicode="&#xff;" glyph-name="ydieresis" horiz-adv-x="1044" d="M1046 1082L612 -161Q587 -233 550 -292T442 -394T261 -437Q219 -437 195 -433T127 -417V-183L171 -184Q252 -184 290 -160T348 -83L378 -6L0 1082H334L522 440L712 1082H1046ZM312 1496T345
1479T398 1431T417 1365Q417 1329 398 1299T346 1252T272 1234Q232 1234 199 1251T147 1299T128 1365Q128 1401 147 1431T199 1478T272 1496Q312 1496 345 1479ZM815 1496T848 1479T900 1431T919 1365Q919 1329 900 1299T848 1252T775 1234Q735 1234 702 1251T649
1299T630 1365Q630 1401 649 1431T701 1478T775 1496Q815 1496 848 1479Z" />
<glyph unicode="&#x2013;" glyph-name="endash" horiz-adv-x="1281" d="M149 584V839H1194V584H149Z" />
<glyph unicode="&#x2014;" glyph-name="emdash" horiz-adv-x="1553" d="M98 584V839H1491V584H98Z" />
<glyph unicode="&#x2018;" glyph-name="quoteleft" horiz-adv-x="494" d="M106 1299T159 1403T289 1574L430 1495Q389 1426 367 1358T344 1202V1044H106V1203Q106 1299 159 1403Z" />
<glyph unicode="&#x2019;" glyph-name="quoteright" horiz-adv-x="483" d="M387 1279T334 1175T204 1003L62 1083Q103 1152 126 1220T149 1376V1536H387V1375Q387 1279 334 1175Z" />
<glyph unicode="&#x201a;" glyph-name="quotesinglbase" horiz-adv-x="531" d="M399 -33T346 -137T216 -309L74 -229Q112 -166 132 -96T152 64V243H400L399 63Q399 -33 346 -137Z" />
<glyph unicode="&#x201c;" glyph-name="quotedblleft" horiz-adv-x="852" d="M113 1299T166 1403T296 1574L437 1495Q396 1426 374 1358T351 1202V1044H113V1203Q113 1299 166 1403ZM461 1299T514 1403T644 1574L785 1495Q744 1426 722 1358T699 1202V1044H461V1203Q461
1299 514 1403Z" />
<glyph unicode="&#x201d;" glyph-name="quotedblright" horiz-adv-x="858" d="M401 1279T348 1175T218 1003L76 1083Q117 1152 140 1220T163 1376V1536H401V1375Q401 1279 348 1175ZM755 1279T702 1175T572 1003L430 1083Q471 1152 494 1220T517 1376V1536H755V1375Q755
1279 702 1175Z" />
<glyph unicode="&#x201e;" glyph-name="quotedblbase" horiz-adv-x="849" d="M399 -40T349 -150T225 -329L74 -249Q112 -182 132 -108T152 64V267H400L399 63Q399 -40 349 -150ZM751 -5T726 -79T659 -218T568 -329L417 -249Q458 -176 481 -103T504 64V267H752L751
63Q751 -5 726 -79Z" />
<glyph unicode="&#x2022;" glyph-name="bullet" horiz-adv-x="747" d="M135 833T165 887T250 971T379 1002Q455 1002 510 972T595 888T625 764V727Q625 658 596 605T511 522T381 492Q307 492 252 522T166 605T135 727V764Q135 833 165 887Z" />
<glyph unicode="&#x2039;" glyph-name="guilsinglleft" horiz-adv-x="644" d="M344 518L581 119H385L108 509V522V528L385 918H581L344 518Z" />
<glyph unicode="&#x203a;" glyph-name="guilsinglright" horiz-adv-x="620" d="M551 527V514V508L275 118H79L315 518L79 917H275L551 527Z" />
</font>
</defs>
</svg>
