<?xml version="1.0" standalone="no"?>
<!DOCTYPE svg PUBLIC "-//W3C//DTD SVG 1.1//EN" "http://www.w3.org/Graphics/SVG/1.1/DTD/svg11.dtd">
<svg xmlns="http://www.w3.org/2000/svg">
<defs >
<font id="WorkSans" horiz-adv-x="612" ><font-face
    font-family="Work Sans Black"
    units-per-em="1000"
    panose-1="0 0 10 0 0 0 0 0 0 0"
    ascent="930"
    descent="-243"
    alphabetic="0" />
<glyph unicode=" " glyph-name="space" horiz-adv-x="250" />
<glyph unicode="!" glyph-name="exclam" horiz-adv-x="321" d="M280 496L256 220H64L40 496V660H280V496ZM216 185T246 160T277 89Q277 43 247 18T160 -7Q104 -7 74 18T43 89Q43 135 73 160T160 185Q216 185 246 160Z" />
<glyph unicode="&quot;" glyph-name="quotedbl" horiz-adv-x="477" d="M414 373H267V670H446L414 373ZM197 373H50V670H229L197 373Z" />
<glyph unicode="#" glyph-name="numbersign" horiz-adv-x="721" d="M561 389L542 271H649V142H522L499 0H352L374 142H269L247 0H99L121 142H30V271H142L160 389H72V518H181L203 660H351L329 518H434L456 660H604L581 518H691V389H561ZM413 389H308L290 271H395L413 389Z" />
<glyph unicode="$" glyph-name="dollar" horiz-adv-x="653" d="M301 1Q198 5 132 28T11 96L102 235Q167 155 301 149V246Q219 261 165 278T70 337T30 450Q30 538 101 594T301 659V740H366V660Q469 657 531 630T649 552L551 426Q516 468 471 488T366 512V408Q446
394 502 375T598 314T639 197Q639 109 563 58T366 1V-80H301V1ZM301 508Q271 503 255 492T238 464Q238 449 253 439T301 421V508ZM432 157T432 188Q432 218 366 233V150Q432 157 432 188Z" />
<glyph unicode="%" glyph-name="percent" horiz-adv-x="992" d="M320 670T376 618T432 478Q432 391 376 339T228 286Q136 286 80 338T24 478Q24 565 80 617T228 670Q320 670 376 618ZM657 661H823L337 0H171L657 661ZM208 522T198 511T187 478Q187 457 197 446T228
434Q248 434 258 445T269 478Q269 499 259 510T228 522Q208 522 198 511ZM856 374T912 322T968 182Q968 95 912 43T764 -10Q672 -10 616 42T560 182Q560 269 616 321T764 374Q856 374 912 322ZM744 226T734 215T723 182Q723 161 733 150T764 138Q784 138 794 149T805
182Q805 203 795 214T764 226Q744 226 734 215Z" />
<glyph unicode="&amp;" glyph-name="ampersand" horiz-adv-x="662" d="M640 -10Q574 -10 532 0T442 43Q372 -10 257 -10Q144 -10 77 37T10 178Q10 225 36 270T125 339Q90 382 79 413T67 487Q67 534 92 576T169 644T299 670Q378 670 429 645T502 582T525 500Q525
439 488 392T380 320L409 292L465 238Q478 279 478 329H624Q619 224 564 158Q593 145 618 145Q628 145 652 149L640 -10ZM284 529T272 516T259 477Q259 461 268 445T302 400Q329 423 338 442T348 486Q348 506 336 517T305 529Q284 529 272 516ZM309 133T328 136L307
156Q239 220 218 241Q209 230 206 219T203 191Q203 164 225 149T287 133Q309 133 328 136Z" />
<glyph unicode="&apos;" glyph-name="quotesingle" horiz-adv-x="260" d="M197 373H50V670H229L197 373Z" />
<glyph unicode="(" glyph-name="parenleft" horiz-adv-x="418" d="M421 626Q343 557 308 475T272 267Q272 141 307 59T421 -93L318 -193Q71 -54 71 267Q71 589 318 726L421 626Z" />
<glyph unicode=")" glyph-name="parenright" horiz-adv-x="418" d="M347 589T347 267Q347 -54 100 -193L-3 -93Q75 -24 110 58T146 267Q146 392 111 474T-3 626L100 726Q347 589 347 267Z" />
<glyph unicode="*" glyph-name="asterisk" horiz-adv-x="599" d="M424 425L515 309L387 216L305 339L299 354L293 339L211 216L83 309L175 425L187 435L171 436L29 476L78 627L216 575L230 566L226 583L220 730H378L372 583L368 566L382 575L521 627L570 476L427
436L412 435L424 425Z" />
<glyph unicode="+" glyph-name="plus" horiz-adv-x="604" d="M559 254H390V55H215V254H45V407H215V606H390V407H559V254Z" />
<glyph unicode="," glyph-name="comma" horiz-adv-x="306" d="M213 206T245 164T278 57Q278 -17 237 -76T119 -166L22 -104Q77 -81 112 -56T164 6L159 10Q146 -4 127 -4Q86 -4 56 21T25 95Q25 151 57 178T148 206Q213 206 245 164Z" />
<glyph unicode="-" glyph-name="hyphen" horiz-adv-x="540" d="M465 184H75V359H465V184Z" />
<glyph unicode="." glyph-name="period" horiz-adv-x="306" d="M212 206T244 178T276 99Q276 48 244 20T153 -8Q94 -8 62 20T30 99Q30 150 62 178T153 206Q212 206 244 178Z" />
<glyph unicode="/" glyph-name="slash" horiz-adv-x="488" d="M219 -70H6L269 700H482L219 -70Z" />
<glyph unicode="0" glyph-name="zero" horiz-adv-x="658" d="M180 -10T108 74T36 330Q36 501 108 585T329 670Q478 670 550 586T622 330Q622 159 550 75T329 -10Q180 -10 108 74ZM355 165T369 179T388 228T394 330Q394 397 389 431T369 480T329 495Q303 495 289
481T270 432T264 330Q264 263 269 229T289 180T329 165Q355 165 369 179Z" />
<glyph unicode="1" glyph-name="one" horiz-adv-x="459" d="M403 660V0H180V442Q108 378 33 367L20 554Q80 561 139 592T222 660H403Z" />
<glyph unicode="2" glyph-name="two" horiz-adv-x="605" d="M51 140Q195 216 270 295T346 435Q346 461 333 478T292 495Q258 495 242 467T228 378L29 426Q27 507 63 561T163 643T308 670Q402 670 462 637T548 555T575 455Q575 363 506 292T319 165V163Q381 169
476 169H579V0H51V140Z" />
<glyph unicode="3" glyph-name="three" horiz-adv-x="600" d="M426 670T492 620T559 476Q559 421 535 389T481 345T435 332V328Q456 328 486 319T544 277T571 182Q571 124 536 81T438 14T299 -10Q178 -10 110 28T17 158L227 243Q225 196 243 179T291 161Q349 161
349 211Q349 236 335 248T287 260H242V392H274Q307 392 321 405T336 446Q336 471 323 485T287 499Q226 499 227 417L26 479Q37 583 110 626T304 670Q426 670 492 620Z" />
<glyph unicode="4" glyph-name="four" horiz-adv-x="670" d="M654 126H565V0H365V126H26V222L296 660H565V277H654V126ZM236 277H365V405L368 515H366Q348 464 314 408L236 277Z" />
<glyph unicode="5" glyph-name="five" horiz-adv-x="583" d="M421 428T467 403T538 335T562 236Q562 151 524 96T422 16T285 -10Q191 -10 125 15T8 109L208 225Q213 189 230 173T288 156Q321 156 340 172T359 220Q359 248 341 264T285 280Q234 280 208 257L38
289L82 660H521V489H245L236 421Q234 405 229 386H230Q247 407 281 417T356 428Q421 428 467 403Z" />
<glyph unicode="6" glyph-name="six" horiz-adv-x="615" d="M436 670T501 634T590 519L405 432Q391 493 333 493Q292 493 267 460T241 357V342H242Q260 373 295 389T388 406Q446 406 493 382T568 312T596 207Q596 106 525 48T324 -10Q183 -10 110 72T36 330Q36
504 120 587T347 670Q436 670 501 634ZM301 265T285 251T269 209Q269 182 285 168T330 153Q359 153 375 167T391 209Q391 236 375 250T330 265Q301 265 285 251Z" />
<glyph unicode="7" glyph-name="seven" horiz-adv-x="650" d="M625 660V506Q510 401 466 279T421 0H193Q193 145 241 261T400 485H43V660H625Z" />
<glyph unicode="8" glyph-name="eight" horiz-adv-x="634" d="M444 667T516 616T589 474Q589 423 560 387T477 331V330Q604 291 604 173Q604 88 529 39T317 -10Q181 -10 106 39T30 173Q30 291 157 330V331Q103 350 74 386T45 474Q45 564 117 615T317 667Q444 667
516 616ZM288 509T272 494T256 453Q256 427 272 412T317 397Q346 397 362 412T378 453Q378 479 362 494T317 509Q288 509 272 494ZM348 148T365 163T382 204Q382 231 365 245T317 260Q286 260 269 246T252 204Q252 178 269 163T317 148Q348 148 365 163Z" />
<glyph unicode="9" glyph-name="nine" horiz-adv-x="610" d="M584 670T584 324Q584 148 507 69T287 -10Q194 -10 131 23T35 131L239 204Q247 157 292 157Q330 157 352 186T374 274V295H371Q359 269 321 251T231 232Q176 232 128 258T51 331T21 440Q21 549 93 609T298
670Q584 670 584 324ZM260 497T245 483T229 441Q229 414 244 400T290 385Q320 385 335 399T351 441Q351 468 336 482T290 497Q260 497 245 483Z" />
<glyph unicode=":" glyph-name="colon" horiz-adv-x="306" d="M212 510T244 482T276 403Q276 352 244 324T153 296Q94 296 62 324T30 403Q30 454 62 482T153 510Q212 510 244 482ZM212 206T244 178T276 99Q276 48 244 20T153 -8Q94 -8 62 20T30 99Q30 150 62 178T153
206Q212 206 244 178Z" />
<glyph unicode=";" glyph-name="semicolon" horiz-adv-x="306" d="M92 296T60 324T28 403Q28 454 60 482T151 510Q210 510 242 482T274 403Q274 352 242 324T151 296Q92 296 60 324ZM213 206T245 164T278 57Q278 -17 237 -76T119 -166L22 -104Q77 -81 112 -56T164
6L159 10Q146 -4 127 -4Q86 -4 56 21T25 95Q25 151 57 178T148 206Q213 206 245 164Z" />
<glyph unicode="&lt;" glyph-name="less" horiz-adv-x="604" d="M557 386L235 295L557 203V-10L57 203V386L557 599V386Z" />
<glyph unicode="=" glyph-name="equal" horiz-adv-x="604" d="M539 366H65V511H539V366ZM539 139H65V284H539V139Z" />
<glyph unicode="&gt;" glyph-name="greater" horiz-adv-x="604" d="M547 386V203L47 -10V203L369 295L47 386V599L547 386Z" />
<glyph unicode="?" glyph-name="question" horiz-adv-x="651" d="M614 670T614 481Q614 387 564 344T422 290L405 218H218L202 372Q364 376 364 445Q364 490 316 490Q255 490 254 413L28 490Q35 571 107 620T331 670Q614 670 614 481ZM369 185T399 160T430 89Q430
43 400 18T313 -7Q257 -7 227 18T196 89Q196 135 226 160T313 185Q369 185 399 160Z" />
<glyph unicode="@" glyph-name="at" horiz-adv-x="920" d="M600 660T689 616T830 481T881 260Q881 169 848 112T764 29T655 4Q543 4 500 84Q473 43 440 24T362 4Q288 4 247 54T206 183Q206 324 269 396T436 469Q477 469 498 446T523 398L544 457H713L665 187Q662
168 662 153Q662 129 673 119T709 109Q744 109 768 148T793 260Q793 419 710 496T484 574Q382 574 303 533T180 412T135 223Q135 121 178 50T291 -56T440 -92Q515 -92 556 -80T632 -41L680 -110Q632 -144 579 -160T435 -176Q322 -176 232 -130T90 7T38 223Q38 354
96 453T255 606T484 660Q600 660 689 616ZM448 325T434 311T410 272T401 214Q401 157 434 157Q446 157 455 164T467 185L482 287Q483 293 483 302Q483 315 479 320T463 325Q448 325 434 311Z" />
<glyph unicode="A" glyph-name="A" horiz-adv-x="689" d="M431 126H253L222 0H-10L204 660H484L699 0H461L431 126ZM397 271L344 491H341L315 379L288 271H397Z" />
<glyph unicode="B" glyph-name="B" horiz-adv-x="704" d="M50 660H428Q553 659 614 616T675 484Q675 423 638 383T526 332V331Q610 322 651 281T692 174Q692 87 633 44T454 0H50V660ZM375 404Q437 404 437 452Q437 500 375 500H273V404H375ZM392 152Q454 152 454
201Q454 248 392 248H273V152H392Z" />
<glyph unicode="C" glyph-name="C" horiz-adv-x="677" d="M619 -10T365 -10Q261 -10 186 30T70 146T29 330Q29 437 69 513T185 630T365 670Q481 670 563 621T665 470L465 392Q457 453 436 474T371 495Q319 495 293 455T267 330Q267 245 292 205T369 165Q416 165
437 186T464 255L670 202Q619 -10 365 -10Z" />
<glyph unicode="D" glyph-name="D" horiz-adv-x="716" d="M528 660T607 575T687 330Q687 171 608 86T374 0H50V660H374Q528 660 607 575ZM403 166T426 204T449 330Q449 418 426 456T341 494H283V166H341Q403 166 426 204Z" />
<glyph unicode="E" glyph-name="E" horiz-adv-x="626" d="M610 171V0H50V660H598V489H283V407H537V249H283V171H610Z" />
<glyph unicode="F" glyph-name="F" horiz-adv-x="614" d="M283 489V397H537V226H283V0H50V660H597V489H283Z" />
<glyph unicode="G" glyph-name="G" horiz-adv-x="722" d="M371 372H677V0H523L515 75Q464 -10 336 -10Q249 -10 180 28T70 143T29 328Q29 490 119 580T371 670Q494 670 566 628T679 489L462 411Q449 495 379 495Q321 495 294 456T267 330Q267 238 296 199T387
159Q431 159 456 176T482 228V229H371V372Z" />
<glyph unicode="H" glyph-name="H" horiz-adv-x="747" d="M697 660V0H464V246H283V0H50V660H283V417H464V660H697Z" />
<glyph unicode="I" glyph-name="I" horiz-adv-x="333" d="M283 0H50V660H283V0Z" />
<glyph unicode="J" glyph-name="J" horiz-adv-x="657" d="M622 272Q622 137 540 64T308 -10Q164 -10 94 52T23 222Q23 256 29 290L262 329Q257 295 257 259Q257 208 273 187T323 165Q357 165 373 194T389 289V660H622V272Z" />
<glyph unicode="K" glyph-name="K" horiz-adv-x="717" d="M337 247L283 173V0H50V660H283V414L455 660H703L501 398L721 0H460L337 247Z" />
<glyph unicode="L" glyph-name="L" horiz-adv-x="605" d="M582 171V0H50V660H283V171H582Z" />
<glyph unicode="M" glyph-name="M" horiz-adv-x="948" d="M898 0H695V229L698 451H695L567 0H381L255 451H251L254 229V0H50V660H376L452 367L481 244H483L512 367L588 660H898V0Z" />
<glyph unicode="N" glyph-name="N" horiz-adv-x="746" d="M696 0H444L286 300L250 381H248L252 245V0H50V660H302L460 359L496 279H498L494 415V660H696V0Z" />
<glyph unicode="O" glyph-name="O" horiz-adv-x="729" d="M523 670T611 581T700 330Q700 169 612 80T365 -10Q261 -10 186 30T70 146T29 330Q29 437 69 513T185 630T365 670Q523 670 611 581ZM314 495T291 456T267 330Q267 244 290 205T365 165Q416 165 439 204T462
330Q462 416 439 455T365 495Q314 495 291 456Z" />
<glyph unicode="P" glyph-name="P" horiz-adv-x="706" d="M677 660T677 429Q677 322 607 266T400 210H283V0H50V660H400Q677 660 677 429ZM405 370T424 385T444 432Q444 464 425 479T362 494H283V370H362Q405 370 424 385Z" />
<glyph unicode="Q" glyph-name="Q" horiz-adv-x="729" d="M563 -53T595 -42T648 -14L700 -155Q643 -209 507 -209Q402 -209 349 -164T296 -45Q296 -32 300 -6Q171 12 100 99T29 330Q29 437 69 513T185 630T365 670Q523 670 611 581T700 330Q700 184 627 96T420
-7Q423 -32 448 -42T525 -53Q563 -53 595 -42ZM314 495T291 456T267 330Q267 244 290 205T365 165Q416 165 439 204T462 330Q462 416 439 455T365 495Q314 495 291 456Z" />
<glyph unicode="R" glyph-name="R" horiz-adv-x="705" d="M342 219H278V0H50V660H408Q540 660 607 605T675 439Q675 294 556 244L712 0H459L342 219ZM278 372H361Q405 372 423 385T442 433Q442 466 424 480T361 494H278V372Z" />
<glyph unicode="S" glyph-name="S" horiz-adv-x="646" d="M435 670T504 647T641 565L539 420Q494 462 448 480T344 499Q309 499 288 489T267 461Q267 450 287 444T357 429Q502 403 565 351T629 203Q629 135 590 87T484 15T334 -10Q217 -10 147 12T10 83L110 241Q152
200 202 181T317 161Q390 161 390 191Q390 207 367 215T292 232Q216 246 163 264T69 325T28 443Q28 511 64 562T169 641T337 670Q435 670 504 647Z" />
<glyph unicode="T" glyph-name="T" horiz-adv-x="686" d="M666 489H460V0H227V489H20V660H666V489Z" />
<glyph unicode="U" glyph-name="U" horiz-adv-x="708" d="M673 284Q673 -10 354 -10Q35 -10 35 284V660H269V266Q269 216 290 191T354 165Q396 165 418 190T440 266V660H673V284Z" />
<glyph unicode="V" glyph-name="V" horiz-adv-x="707" d="M492 0H215L-8 660H235L326 299L358 170L388 297L481 660H715L492 0Z" />
<glyph unicode="W" glyph-name="W" horiz-adv-x="1021" d="M435 0H179L-8 660H243L320 183L413 660H613L711 186L786 660H1028L840 0H593L541 248L515 417H512L486 248L435 0Z" />
<glyph unicode="X" glyph-name="X" horiz-adv-x="704" d="M432 0L345 171L265 0H2L221 329L10 660H285L362 495L440 660H694L484 335L713 0H432Z" />
<glyph unicode="Y" glyph-name="Y" horiz-adv-x="713" d="M473 229V0H240V229L9 660H241L311 509L358 389L405 509L475 660H704L473 229Z" />
<glyph unicode="Z" glyph-name="Z" horiz-adv-x="637" d="M622 166V0H25V159L360 494H29V660H611V501L278 166H622Z" />
<glyph unicode="[" glyph-name="bracketleft" horiz-adv-x="420" d="M279 550V-17H399V-168H84V701H399V550H279Z" />
<glyph unicode="\" glyph-name="backslash" horiz-adv-x="488" d="M219 700L482 -70H269L6 700H219Z" />
<glyph unicode="]" glyph-name="bracketright" horiz-adv-x="420" d="M336 -168H21V-17H141V550H21V701H336V-168Z" />
<glyph unicode="^" glyph-name="asciicircum" horiz-adv-x="647" d="M428 355L324 578L219 355H23L229 720H418L624 355H428Z" />
<glyph unicode="_" glyph-name="underscore" horiz-adv-x="539" d="M539 -220H0V-45H539V-220Z" />
<glyph unicode="`" glyph-name="grave" horiz-adv-x="500" d="M333 553H171L68 730H273L333 553Z" />
<glyph unicode="a" glyph-name="a" horiz-adv-x="588" d="M589 123T597 127L579 10Q545 -10 505 -10Q444 -10 403 11T348 74Q325 35 281 13T170 -10Q92 -10 54 20T16 109Q16 172 61 209T211 270L310 292V312Q310 335 299 348T265 361Q241 361 227 348T212 300L22
329Q30 415 94 462T278 510Q411 510 474 459T538 304V164Q538 123 572 123Q589 123 597 127ZM286 115T298 127T310 164V212L277 202Q256 196 244 183T232 150Q232 133 242 124T267 115Q286 115 298 127Z" />
<glyph unicode="b" glyph-name="b" horiz-adv-x="627" d="M501 510T551 441T602 247Q602 124 553 57T411 -10Q351 -10 309 24T247 117L241 0H39V700H269V416Q289 460 324 485T410 510Q501 510 551 441ZM344 151T357 172T370 250Q370 306 357 327T318 348Q293 348
281 325T269 254V246Q269 196 281 174T318 151Q344 151 357 172Z" />
<glyph unicode="c" glyph-name="c" horiz-adv-x="576" d="M436 510T497 461T561 340L349 278Q352 355 309 355Q278 355 265 332T251 247Q251 187 265 166T308 145Q329 145 340 161T353 211L559 147Q559 104 530 69T444 12T309 -10Q167 -10 94 57T20 250Q20 374
92 442T297 510Q436 510 497 461Z" />
<glyph unicode="d" glyph-name="d" horiz-adv-x="627" d="M588 700V0H381L374 99Q352 48 312 19T216 -10Q124 -10 75 57T25 247Q25 372 75 441T217 510Q268 510 303 485T358 416V700H588ZM333 151T345 173T358 246V254Q358 302 346 325T309 348Q283 348 270 327T257
250Q257 194 270 173T309 151Q333 151 345 173Z" />
<glyph unicode="e" glyph-name="e" horiz-adv-x="583" d="M563 228T558 206H240Q245 169 261 156T309 143Q358 143 369 186L554 136Q537 64 471 27T309 -10Q167 -10 94 57T20 250Q20 374 92 442T297 510Q426 510 494 444T563 266Q563 228 558 206ZM272 358T258
343T240 291H348Q345 325 334 341T298 358Q272 358 258 343Z" />
<glyph unicode="f" glyph-name="f" horiz-adv-x="430" d="M284 500H426V345H300V0H70V345H3V500H70V520Q70 625 135 672T298 720Q390 720 433 687L418 554Q407 562 394 566T361 570Q323 570 304 556T284 508V500Z" />
<glyph unicode="g" glyph-name="g" horiz-adv-x="578" d="M585 142T585 -28Q585 -122 507 -168T281 -215Q138 -215 73 -188T8 -107Q8 -74 30 -50T105 -15Q21 18 21 97Q21 132 44 160T106 202Q20 244 20 339Q20 510 290 510Q347 510 388 503Q395 571 431 617T536
663Q550 663 558 662L577 520Q560 524 541 524Q512 524 492 513T462 483Q560 442 560 339Q560 170 290 170Q227 170 179 179Q166 175 166 163Q166 142 209 142H382Q585 142 585 -28ZM270 391T259 378T248 340Q248 316 259 303T290 289Q310 289 321 302T332 340Q332
364 321 377T290 391Q270 391 259 378ZM356 -76T383 -70T411 -51Q411 -43 403 -40T375 -36H236Q199 -36 187 -39T174 -53Q174 -65 202 -70T295 -76Q356 -76 383 -70Z" />
<glyph unicode="h" glyph-name="h" horiz-adv-x="620" d="M499 510T540 466T582 342V0H352V282Q352 315 344 328T317 341Q292 341 281 322T269 262V0H39V700H269V398Q289 453 329 481T425 510Q499 510 540 466Z" />
<glyph unicode="i" glyph-name="i" horiz-adv-x="308" d="M86 532T58 554T29 628Q29 680 57 702T154 724Q222 724 250 702T279 628Q279 576 251 554T154 532Q86 532 58 554ZM269 0H39V500H269V0Z" />
<glyph unicode="j" glyph-name="j" horiz-adv-x="306" d="M223 724T251 703T279 628Q279 575 251 554T153 532Q85 532 57 553T29 628Q29 681 57 702T153 724Q223 724 251 703ZM269 -13Q269 -119 217 -167T48 -215Q-46 -215 -104 -184L-76 -51Q-58 -64 -25 -64Q7
-64 23 -47T39 7V500H269V-13Z" />
<glyph unicode="k" glyph-name="k" horiz-adv-x="658" d="M333 175L269 97V0H39V700H269V323L415 500H662L484 304L673 0H423L333 175Z" />
<glyph unicode="l" glyph-name="l" horiz-adv-x="341" d="M269 199Q269 168 278 155T310 141Q328 141 346 146L336 22Q318 8 282 -1T212 -10Q119 -10 79 30T39 164V700H269V199Z" />
<glyph unicode="m" glyph-name="m" horiz-adv-x="933" d="M812 510T853 466T895 342V0H665V282Q665 315 657 327T630 340Q605 340 594 321T582 262V0H352V282Q352 315 344 327T317 340Q292 340 281 321T269 262V0H39V500H246L251 391Q273 449 317 479T425 510Q482
510 519 484T573 410Q597 459 638 484T738 510Q812 510 853 466Z" />
<glyph unicode="n" glyph-name="n" horiz-adv-x="620" d="M499 510T540 466T582 342V0H352V282Q352 315 344 327T317 340Q292 340 281 321T269 262V0H39V500H246L251 391Q273 449 317 479T425 510Q499 510 540 466Z" />
<glyph unicode="o" glyph-name="o" horiz-adv-x="598" d="M432 510T505 442T578 250Q578 126 505 58T299 -10Q166 -10 93 58T20 250Q20 374 93 442T299 510Q432 510 505 442ZM279 355T269 346T255 315T251 250Q251 207 255 185T269 154T299 145Q319 145 329 154T343
185T347 250Q347 293 343 315T329 346T299 355Q279 355 269 346Z" />
<glyph unicode="p" glyph-name="p" horiz-adv-x="627" d="M503 510T552 443T602 253Q602 128 552 59T410 -10Q359 -10 324 15T269 84V-210H39V500H241L247 383Q266 442 308 476T411 510Q503 510 552 443ZM344 152T357 173T370 250Q370 306 357 327T318 349Q294
349 282 327T269 254V246Q269 198 281 175T318 152Q344 152 357 173Z" />
<glyph unicode="q" glyph-name="q" horiz-adv-x="627" d="M588 500V-210H358V84Q338 40 303 15T217 -10Q126 -10 76 59T25 253Q25 376 74 443T216 510Q276 510 318 476T380 383L386 500H588ZM334 152T346 175T358 246V254Q358 304 346 326T309 349Q283 349 270
328T257 250Q257 194 270 173T309 152Q334 152 346 175Z" />
<glyph unicode="r" glyph-name="r" horiz-adv-x="444" d="M433 510T450 498L431 310Q422 317 405 321T368 326Q322 326 296 304T269 240V0H39V500H246L251 375Q287 510 398 510Q433 510 450 498Z" />
<glyph unicode="s" glyph-name="s" horiz-adv-x="537" d="M178 -10T114 7T6 64L107 186Q136 160 174 144T254 128Q273 128 285 131T298 143Q298 152 281 159T223 175Q115 196 66 235T16 336Q16 380 45 419T136 484T287 510Q375 510 434 489T528 437L434 326Q388
372 298 372Q271 372 259 367T247 354Q247 342 308 334Q423 318 476 279T529 170Q529 92 465 41T271 -10Q178 -10 114 7Z" />
<glyph unicode="t" glyph-name="t" horiz-adv-x="445" d="M441 24Q416 9 374 0T292 -10Q184 -10 131 31T78 168V345H1V500H78V606L308 670V500H434V345H308V204Q308 170 322 156T368 141Q405 141 431 154L441 24Z" />
<glyph unicode="u" glyph-name="u" horiz-adv-x="620" d="M581 500V0H374L369 106Q347 48 305 19T200 -10Q120 -10 79 31T38 162V500H268V219Q268 186 276 173T305 160Q351 160 351 239V500H581Z" />
<glyph unicode="v" glyph-name="v" horiz-adv-x="588" d="M437 0H151L-10 500H228L274 254L292 135H296L314 255L360 500H598L437 0Z" />
<glyph unicode="w" glyph-name="w" horiz-adv-x="942" d="M815 0H529L493 154L473 276H469L450 155L413 0H127L-9 500H229L269 261L284 148H288L308 262L358 500H584L635 259L654 148H658L673 260L713 500H951L815 0Z" />
<glyph unicode="x" glyph-name="x" horiz-adv-x="627" d="M384 0L311 153L240 0H-11L162 254L-7 500H247L314 355L383 500H634L465 250L638 0H384Z" />
<glyph unicode="y" glyph-name="y" horiz-adv-x="594" d="M457 56Q423 -45 383 -103T287 -188T149 -215Q56 -215 -5 -182L37 -37Q53 -46 72 -50T126 -54Q158 -54 173 -48T195 -27L198 -19L135 128L-8 500H243L288 242L307 125L329 243L379 500H604L457 56Z" />
<glyph unicode="z" glyph-name="z" horiz-adv-x="502" d="M22 132L178 304L225 350L152 348H22V500H479V368L326 198L277 150L359 152H489V0H22V132Z" />
<glyph unicode="{" glyph-name="braceleft" horiz-adv-x="466" d="M339 338T318 310T252 267Q296 252 317 224T339 149V45Q339 -9 366 -32T453 -56V-193Q345 -193 283 -175T191 -113T162 8V94Q162 150 137 174T50 198V335Q111 335 136 359T162 439V526Q162 602
191 645T282 707T453 726V589Q393 589 366 566T339 489V384Q339 338 318 310Z" />
<glyph unicode="|" glyph-name="bar" horiz-adv-x="372" d="M288 -168H84V701H288V-168Z" />
<glyph unicode="}" glyph-name="braceright" horiz-adv-x="466" d="M304 383T329 359T416 335V198Q355 198 330 174T304 94V8Q304 -69 275 -112T184 -174T13 -193V-56Q73 -56 100 -33T127 45V149Q127 195 148 223T214 267Q170 282 149 310T127 384V489Q127 542
100 565T13 589V726Q121 726 183 708T275 646T304 526V439Q304 383 329 359Z" />
<glyph unicode="~" glyph-name="asciitilde" horiz-adv-x="635" d="M588 342T543 285T411 228Q373 228 349 237T296 265Q281 276 272 280T251 285Q234 285 225 274T213 236H43Q47 346 92 403T224 460Q262 460 286 451T339 423Q354 412 363 408T384 403Q401 403
410 414T422 452H592Q588 342 543 285Z" />
<glyph unicode="&#xa0;" glyph-name="uni00A0" horiz-adv-x="250" />
<glyph unicode="&#xa1;" glyph-name="exclamdown" horiz-adv-x="321" d="M105 315T75 340T44 411Q44 457 74 482T161 507Q217 507 247 482T278 411Q278 365 248 340T161 315Q105 315 75 340ZM41 4L65 280H257L281 4V-160H41V4Z" />
<glyph unicode="&#xa2;" glyph-name="cent" horiz-adv-x="581" d="M403 322T386 344T340 373V126Q398 138 406 203L566 148Q571 81 511 38T340 -10V-100H282V-9Q158 -1 94 65T29 250Q29 368 95 435T282 509V600H340V509Q461 503 515 456T567 340L405 287Q403 322
386 344ZM227 189T240 162T282 128V372Q253 364 240 336T227 247Q227 189 240 162Z" />
<glyph unicode="&#xa3;" glyph-name="sterling" horiz-adv-x="622" d="M603 164T603 139Q603 100 587 66T537 11T458 -10Q409 -10 372 6T293 51Q235 -10 151 -10Q96 -10 60 15T24 87Q24 135 62 159T156 184Q185 184 198 183Q193 230 170 271H33V345H119Q91 384
81 414T70 479Q70 529 98 572T183 643T325 670Q552 670 586 482L403 401Q389 465 370 489T320 513Q297 513 283 501T268 467Q268 434 302 384L326 345H513V271H352Q356 251 356 223Q356 185 347 150Q384 139 414 139Q474 139 468 211L595 191Q603 164 603 139ZM170
61T180 71T196 108Q176 115 153 115Q135 115 126 108T116 88Q116 75 125 68T151 61Q170 61 180 71Z" />
<glyph unicode="&#xa4;" glyph-name="currency" horiz-adv-x="634" d="M532 285T516 243L620 156L490 27L399 136Q364 123 318 123Q275 123 234 136L143 27L14 156L118 243Q102 285 102 330Q102 374 118 416L14 503L143 632L234 523Q275 536 318 536Q364 536 399
523L490 632L620 503L516 415Q532 375 532 330Q532 285 516 243ZM342 276T355 290T369 330Q369 355 356 369T318 384Q293 384 279 370T265 330Q265 305 279 291T318 276Q342 276 355 290Z" />
<glyph unicode="&#xa5;" glyph-name="yen" horiz-adv-x="717" d="M553 310H663V251H472V190H663V131H472V0H245V131H54V190H245V251H54V310H164L235 306L9 660H241L317 478L358 374H360L401 479L477 660H708L482 306L553 310Z" />
<glyph unicode="&#xa6;" glyph-name="brokenbar" horiz-adv-x="284" d="M244 310H40V701H244V310ZM244 -168H40V223H244V-168Z" />
<glyph unicode="&#xa7;" glyph-name="section" horiz-adv-x="639" d="M620 185T553 131Q562 106 562 74Q562 -16 497 -63T314 -110Q221 -110 167 -88T69 -17L176 86Q203 54 232 41T312 28Q362 28 383 33T404 53Q404 67 380 76T294 89Q151 99 85 142T18 264Q18
360 85 416Q76 442 76 472Q76 563 142 616T324 670Q417 670 471 648T569 577L462 474Q435 506 406 519T326 532Q282 532 258 521T234 493Q234 479 258 471T344 457Q487 446 553 403T620 282Q620 185 553 131ZM396 245T456 220Q471 230 471 245Q471 264 444 275T346
292Q242 301 182 326Q167 316 167 301Q167 282 194 271T292 254Q396 245 456 220Z" />
<glyph unicode="&#xa8;" glyph-name="dieresis" horiz-adv-x="500" d="M180 720T207 697T235 629Q235 585 208 562T130 538Q81 538 55 562T28 629Q28 672 54 696T130 720Q180 720 207 697ZM417 720T444 697T472 629Q472 585 445 562T367 538Q318 538 292 562T265
629Q265 672 291 696T367 720Q417 720 444 697Z" />
<glyph unicode="&#xa9;" glyph-name="copyright" horiz-adv-x="740" d="M473 670T551 628T673 509T716 330Q716 228 673 151T552 32T370 -10Q267 -10 189 32T67 151T24 330Q24 432 67 509T188 628T370 670Q473 670 551 628ZM278 542T220 485T162 332Q162 236 220
179T379 122Q462 122 510 155T585 265L467 309Q456 276 437 264T386 251Q304 251 304 330Q304 369 325 390T386 411Q417 411 433 401T461 362L570 412Q551 478 505 510T379 542Q278 542 220 485Z" />
<glyph unicode="&#xaa;" glyph-name="ordfeminine" horiz-adv-x="476" d="M237 507V519Q237 536 229 545T205 554Q168 554 167 510L30 531Q35 592 81 626T214 660Q310 660 355 624T401 513V416Q401 386 426 386Q438 386 444 389L431 306Q405 292 365 292Q327 292
301 307T264 351Q247 324 215 308T136 292Q26 292 26 376Q26 421 58 448T166 491L237 507ZM220 381T228 390T237 416V450L213 443Q198 439 190 429T181 406Q181 394 188 388T206 381Q220 381 228 390ZM39 230H435V117H39V230Z" />
<glyph unicode="&#xab;" glyph-name="guillemotleft" horiz-adv-x="647" d="M221 265L337 69H149L24 265L149 461H337L221 265ZM507 265L623 69H435L310 265L435 461H623L507 265Z" />
<glyph unicode="&#xac;" glyph-name="logicalnot" horiz-adv-x="604" d="M544 407V75H369V254H60V407H544Z" />
<glyph unicode="&#xad;" glyph-name="uni00AD" horiz-adv-x="540" d="M465 184H75V359H465V184Z" />
<glyph unicode="&#xae;" glyph-name="registered" horiz-adv-x="740" d="M473 670T551 628T673 509T716 330Q716 228 673 151T552 32T370 -10Q267 -10 189 32T67 151T24 330Q24 432 67 509T188 628T370 670Q473 670 551 628ZM209 523V163H343V281H363L414 163H574L483
293Q555 321 555 402Q555 453 519 488T430 523H209ZM428 427T428 390Q428 353 391 353H343V427H391Q428 427 428 390Z" />
<glyph unicode="&#xaf;" glyph-name="overscore" horiz-adv-x="500" d="M444 551H56V681H444V551Z" />
<glyph unicode="&#xb0;" glyph-name="degree" horiz-adv-x="519" d="M155 270T96 323T36 470Q36 563 95 616T260 670Q364 670 423 617T483 470Q483 376 424 323T260 270Q155 270 96 323ZM289 408T306 425T324 471Q324 499 307 516T260 533Q231 533 213 516T195
471Q195 443 213 426T260 408Q289 408 306 425Z" />
<glyph unicode="&#xb1;" glyph-name="plusminus" horiz-adv-x="604" d="M559 506V360H380V206H225V360H45V506H225V660H380V506H559ZM45 141H559V1H45V141Z" />
<glyph unicode="&#xb2;" glyph-name="uni00B2" horiz-adv-x="410" d="M22 430Q72 451 109 472Q165 504 193 534T222 589Q222 616 196 616Q160 616 163 551L7 589Q7 659 58 697T198 735Q298 735 344 696T390 603Q390 537 325 495Q287 470 231 454V452Q276 457 341
457H392V333H22V430Z" />
<glyph unicode="&#xb3;" glyph-name="uni00B3" horiz-adv-x="391" d="M277 735T321 706T366 619Q366 581 344 559T279 533V528Q373 528 373 449Q373 392 328 360T202 327Q118 327 69 351T-1 431L146 482Q145 437 187 437Q218 437 218 465Q218 477 211 482T187
488H165V562H183Q197 562 205 569T213 590Q213 617 186 617Q149 617 148 571L7 616Q15 677 65 706T192 735Q277 735 321 706Z" />
<glyph unicode="&#xb4;" glyph-name="acute" horiz-adv-x="500" d="M432 730L329 553H167L227 730H432Z" />
<glyph unicode="&#xb5;" glyph-name="uni00B5" horiz-adv-x="621" d="M582 500V0H375L370 97Q340 9 269 -6V-210H39V500H269V219Q269 186 277 173T306 160Q352 160 352 239V500H582Z" />
<glyph unicode="&#xb6;" glyph-name="paragraph" horiz-adv-x="809" d="M759 -100H576V488H482V-100H299V224Q164 225 97 277T30 441Q30 553 100 606T320 660H759V-100Z" />
<glyph unicode="&#xb7;" glyph-name="middot" horiz-adv-x="306" d="M212 459T244 431T276 352Q276 301 244 273T153 245Q94 245 62 273T30 352Q30 403 62 431T153 459Q212 459 244 431Z" />
<glyph unicode="&#xb8;" glyph-name="cedilla" horiz-adv-x="500" d="M208 42Q302 36 353 1T404 -90Q404 -156 360 -185T243 -215Q193 -215 162 -203T109 -171L154 -76Q182 -104 228 -104Q253 -104 267 -93T282 -60Q282 -37 257 -22T168 2L208 42Z" />
<glyph unicode="&#xb9;" glyph-name="uni00B9" horiz-adv-x="335" d="M301 730V333H143V526Q143 550 146 587Q85 544 25 543V672Q61 675 106 693T168 730H301Z" />
<glyph unicode="&#xba;" glyph-name="ordmasculine" horiz-adv-x="464" d="M140 292T87 340T34 476Q34 563 87 611T232 660Q324 660 377 612T430 476Q430 389 377 341T232 292Q140 292 87 340ZM251 392T258 410T266 476Q266 524 259 542T232 560Q213 560 206 542T198
476Q198 429 205 411T232 392Q251 392 258 410ZM36 230H428V117H36V230Z" />
<glyph unicode="&#xbb;" glyph-name="guillemotright" horiz-adv-x="647" d="M212 461L337 265L212 69H24L140 265L24 461H212ZM498 461L623 265L498 69H310L426 265L310 461H498Z" />
<glyph unicode="&#xbc;" glyph-name="onequarter" horiz-adv-x="949" d="M301 665V268H143V461Q143 485 146 522Q85 479 25 478V607Q61 610 106 628T168 665H301ZM636 661H783L307 0H160L636 661ZM936 71H883V-4H743V71H541V141L689 394H883V174H936V71ZM743 174V227Q743
250 745 290L746 310H743Q733 281 714 247L673 174H743Z" />
<glyph unicode="&#xbd;" glyph-name="onehalf" horiz-adv-x="1018" d="M301 665V268H143V461Q143 485 146 522Q85 479 25 478V607Q61 610 106 628T168 665H301ZM636 661H783L307 0H160L636 661ZM630 93Q679 114 717 135Q773 167 801 197T830 252Q830 279 804 279Q768
279 771 214L615 252Q615 322 666 360T806 398Q906 398 952 359T998 266Q998 200 933 158Q895 133 839 117V115Q884 120 949 120H1000V-4H630V93Z" />
<glyph unicode="&#xbe;" glyph-name="threequarters" horiz-adv-x="1005" d="M277 670T321 641T366 554Q366 516 344 494T279 468V463Q373 463 373 384Q373 327 328 295T202 262Q118 262 69 286T-1 366L146 417Q145 372 187 372Q218 372 218 400Q218 412 211 417T187
423H165V497H183Q197 497 205 504T213 525Q213 552 186 552Q149 552 148 506L7 551Q15 612 65 641T192 670Q277 670 321 641ZM692 661H839L363 0H216L692 661ZM992 71H939V-4H799V71H597V141L745 394H939V174H992V71ZM799 174V227Q799 250 801 290L802 310H799Q789
281 770 247L729 174H799Z" />
<glyph unicode="&#xbf;" glyph-name="questiondown" horiz-adv-x="651" d="M282 316T252 341T221 412Q221 458 251 483T338 508Q394 508 424 483T455 412Q455 366 425 341T338 316Q282 316 252 341ZM37 -169T37 20Q37 114 87 157T229 211L246 283H433L449 129Q287
125 287 56Q287 11 335 11Q396 11 397 88L623 11Q616 -70 544 -119T320 -169Q37 -169 37 20Z" />
<glyph unicode="&#xc0;" glyph-name="Agrave" horiz-adv-x="689" d="M252 709L156 876H362L415 709H252ZM431 126H253L222 0H-10L204 660H484L699 0H461L431 126ZM397 271L344 491H341L315 379L288 271H397Z" />
<glyph unicode="&#xc1;" glyph-name="Aacute" horiz-adv-x="689" d="M416 709H253L306 876H512L416 709ZM431 126H253L222 0H-10L204 660H484L699 0H461L431 126ZM397 271L344 491H341L315 379L288 271H397Z" />
<glyph unicode="&#xc2;" glyph-name="Acircumflex" horiz-adv-x="689" d="M290 709H129L237 876H451L559 709H398L344 778L290 709ZM431 126H253L222 0H-10L204 660H484L699 0H461L431 126ZM397 271L344 491H341L315 379L288 271H397Z" />
<glyph unicode="&#xc3;" glyph-name="Atilde" horiz-adv-x="689" d="M431 126H253L222 0H-10L204 660H484L699 0H461L431 126ZM397 271L344 491H341L315 379L288 271H397ZM550 703T408 703Q377 703 359 711T320 735Q309 744 301 748T282 753Q256 753 252 705H134Q138
881 280 881Q311 881 329 873T368 849Q379 840 387 836T406 831Q420 831 427 842T436 879H554Q550 703 408 703Z" />
<glyph unicode="&#xc4;" glyph-name="Adieresis" horiz-adv-x="689" d="M431 126H253L222 0H-10L204 660H484L699 0H461L431 126ZM397 271L344 491H341L315 379L288 271H397ZM274 880T301 857T329 789Q329 745 302 722T224 698Q175 698 149 722T122 789Q122 832
148 856T224 880Q274 880 301 857ZM511 880T538 857T566 789Q566 745 539 722T461 698Q412 698 386 722T359 789Q359 832 385 856T461 880Q511 880 538 857Z" />
<glyph unicode="&#xc5;" glyph-name="Aring" horiz-adv-x="689" d="M431 126H253L222 0H-10L210 648Q179 679 179 730Q179 793 223 830T345 867Q423 867 467 830T511 730Q511 679 478 648L699 0H461L431 126ZM321 768T308 756T295 721Q295 698 308 686T345 674Q369
674 382 686T395 721Q395 744 382 756T345 768Q321 768 308 756ZM397 271L371 379L345 491H340L315 379L288 271H397Z" />
<glyph unicode="&#xc6;" glyph-name="AE" horiz-adv-x="904" d="M888 161V0H401V185H266L220 0H-10L204 660H876V499H615V403H815V254H615V161H888ZM401 321V507H345L299 321H401Z" />
<glyph unicode="&#xc7;" glyph-name="Ccedilla" horiz-adv-x="677" d="M630 33T460 -1Q508 -36 508 -90Q508 -156 464 -185T347 -215Q297 -215 266 -203T213 -171L258 -76Q286 -104 332 -104Q357 -104 371 -93T386 -60Q386 -25 330 -9Q188 2 109 90T29 330Q29
437 69 513T185 630T365 670Q481 670 563 621T665 470L465 392Q457 453 436 474T371 495Q319 495 293 455T267 330Q267 245 292 205T369 165Q416 165 437 186T464 255L670 202Q630 33 460 -1Z" />
<glyph unicode="&#xc8;" glyph-name="Egrave" horiz-adv-x="626" d="M251 709L155 876H361L414 709H251ZM610 171V0H50V660H598V489H283V407H537V249H283V171H610Z" />
<glyph unicode="&#xc9;" glyph-name="Eacute" horiz-adv-x="626" d="M391 709H228L281 876H487L391 709ZM610 171V0H50V660H598V489H283V407H537V249H283V171H610Z" />
<glyph unicode="&#xca;" glyph-name="Ecircumflex" horiz-adv-x="626" d="M259 709H98L206 876H420L528 709H367L313 778L259 709ZM610 171V0H50V660H598V489H283V407H537V249H283V171H610Z" />
<glyph unicode="&#xcb;" glyph-name="Edieresis" horiz-adv-x="626" d="M610 171V0H50V660H598V489H283V407H537V249H283V171H610ZM243 880T270 857T298 789Q298 745 271 722T193 698Q144 698 118 722T91 789Q91 832 117 856T193 880Q243 880 270 857ZM480 880T507
857T535 789Q535 745 508 722T430 698Q381 698 355 722T328 789Q328 832 354 856T430 880Q480 880 507 857Z" />
<glyph unicode="&#xcc;" glyph-name="Igrave" horiz-adv-x="333" d="M237 709H74L-22 876H184L237 709ZM283 0H50V660H283V0Z" />
<glyph unicode="&#xcd;" glyph-name="Iacute" horiz-adv-x="333" d="M334 876L238 709H75L128 876H334ZM283 0H50V660H283V0Z" />
<glyph unicode="&#xce;" glyph-name="Icircumflex" horiz-adv-x="333" d="M220 709L166 778L112 709H-49L59 876H273L381 709H220ZM283 0H50V660H283V0Z" />
<glyph unicode="&#xcf;" glyph-name="Idieresis" horiz-adv-x="333" d="M100 880T127 856T154 789Q154 746 127 722T52 698Q5 698 -20 722T-46 789Q-46 832 -21 856T52 880Q100 880 127 856ZM325 880T352 856T379 789Q379 746 352 722T277 698Q230 698 205 722T179
789Q179 832 204 856T277 880Q325 880 352 856ZM283 0H50V660H283V0Z" />
<glyph unicode="&#xd0;" glyph-name="Eth" horiz-adv-x="746" d="M558 660T637 575T717 330Q717 171 638 86T404 0H80V279H6V375H80V660H404Q558 660 637 575ZM433 166T456 204T479 330Q479 418 456 456T371 494H313V375H399V279H313V166H371Q433 166 456 204Z" />
<glyph unicode="&#xd1;" glyph-name="Ntilde" horiz-adv-x="746" d="M696 0H444L286 300L250 381H248L252 245V0H50V660H302L460 359L496 279H498L494 415V660H696V0ZM579 703T437 703Q406 703 388 711T349 735Q338 744 330 748T311 753Q285 753 281 705H163Q167
881 309 881Q340 881 358 873T397 849Q408 840 416 836T435 831Q449 831 456 842T465 879H583Q579 703 437 703Z" />
<glyph unicode="&#xd2;" glyph-name="Ograve" horiz-adv-x="729" d="M436 709H273L177 876H383L436 709ZM523 670T611 581T700 330Q700 169 612 80T365 -10Q261 -10 186 30T70 146T29 330Q29 437 69 513T185 630T365 670Q523 670 611 581ZM314 495T291 456T267
330Q267 244 290 205T365 165Q416 165 439 204T462 330Q462 416 439 455T365 495Q314 495 291 456Z" />
<glyph unicode="&#xd3;" glyph-name="Oacute" horiz-adv-x="729" d="M533 876L437 709H274L327 876H533ZM523 670T611 581T700 330Q700 169 612 80T365 -10Q261 -10 186 30T70 146T29 330Q29 437 69 513T185 630T365 670Q523 670 611 581ZM314 495T291 456T267
330Q267 244 290 205T365 165Q416 165 439 204T462 330Q462 416 439 455T365 495Q314 495 291 456Z" />
<glyph unicode="&#xd4;" glyph-name="Ocircumflex" horiz-adv-x="729" d="M419 709L365 778L311 709H150L258 876H472L580 709H419ZM523 670T611 581T700 330Q700 169 612 80T365 -10Q261 -10 186 30T70 146T29 330Q29 437 69 513T185 630T365 670Q523 670 611
581ZM314 495T291 456T267 330Q267 244 290 205T365 165Q416 165 439 204T462 330Q462 416 439 455T365 495Q314 495 291 456Z" />
<glyph unicode="&#xd5;" glyph-name="Otilde" horiz-adv-x="729" d="M523 670T611 581T700 330Q700 169 612 80T365 -10Q261 -10 186 30T70 146T29 330Q29 437 69 513T185 630T365 670Q523 670 611 581ZM314 495T291 456T267 330Q267 244 290 205T365 165Q416
165 439 204T462 330Q462 416 439 455T365 495Q314 495 291 456ZM571 703T429 703Q398 703 380 711T341 735Q330 744 322 748T303 753Q277 753 273 705H155Q159 881 301 881Q332 881 350 873T389 849Q400 840 408 836T427 831Q441 831 448 842T457 879H575Q571
703 429 703Z" />
<glyph unicode="&#xd6;" glyph-name="Odieresis" horiz-adv-x="729" d="M523 670T611 581T700 330Q700 169 612 80T365 -10Q261 -10 186 30T70 146T29 330Q29 437 69 513T185 630T365 670Q523 670 611 581ZM314 495T291 456T267 330Q267 244 290 205T365 165Q416
165 439 204T462 330Q462 416 439 455T365 495Q314 495 291 456ZM295 880T322 857T350 789Q350 745 323 722T245 698Q196 698 170 722T143 789Q143 832 169 856T245 880Q295 880 322 857ZM532 880T559 857T587 789Q587 745 560 722T482 698Q433 698 407 722T380
789Q380 832 406 856T482 880Q532 880 559 857Z" />
<glyph unicode="&#xd7;" glyph-name="multiply" horiz-adv-x="604" d="M420 332L568 184L450 66L302 214L154 66L36 184L184 332L36 480L154 598L302 450L450 598L568 480L420 332Z" />
<glyph unicode="&#xd8;" glyph-name="Oslash" horiz-adv-x="729" d="M700 495T700 330Q700 169 612 80T365 -10Q259 -10 182 32L144 -21H48L120 77Q75 121 52 185T29 330Q29 437 69 513T185 630T365 670Q471 670 547 629L584 680H679L608 584Q700 495 700 330ZM314
495T291 456T267 330Q267 288 271 263L423 476Q401 495 365 495Q314 495 291 456ZM416 165T439 204T462 330Q462 364 459 389L310 181Q332 165 365 165Q416 165 439 204Z" />
<glyph unicode="&#xd9;" glyph-name="Ugrave" horiz-adv-x="708" d="M425 709H262L166 876H372L425 709ZM673 284Q673 -10 354 -10Q35 -10 35 284V660H269V266Q269 216 290 191T354 165Q396 165 418 190T440 266V660H673V284Z" />
<glyph unicode="&#xda;" glyph-name="Uacute" horiz-adv-x="708" d="M522 876L426 709H263L316 876H522ZM673 284Q673 -10 354 -10Q35 -10 35 284V660H269V266Q269 216 290 191T354 165Q396 165 418 190T440 266V660H673V284Z" />
<glyph unicode="&#xdb;" glyph-name="Ucircumflex" horiz-adv-x="708" d="M408 709L354 778L300 709H139L247 876H461L569 709H408ZM673 284Q673 -10 354 -10Q35 -10 35 284V660H269V266Q269 216 290 191T354 165Q396 165 418 190T440 266V660H673V284Z" />
<glyph unicode="&#xdc;" glyph-name="Udieresis" horiz-adv-x="708" d="M673 284Q673 -10 354 -10Q35 -10 35 284V660H269V266Q269 216 290 191T354 165Q396 165 418 190T440 266V660H673V284ZM284 880T311 857T339 789Q339 745 312 722T234 698Q185 698 159 722T132
789Q132 832 158 856T234 880Q284 880 311 857ZM521 880T548 857T576 789Q576 745 549 722T471 698Q422 698 396 722T369 789Q369 832 395 856T471 880Q521 880 548 857Z" />
<glyph unicode="&#xdd;" glyph-name="Yacute" horiz-adv-x="713" d="M524 876L428 709H265L318 876H524ZM473 229V0H240V229L9 660H241L311 509L358 389L405 509L475 660H704L473 229Z" />
<glyph unicode="&#xde;" glyph-name="Thorn" horiz-adv-x="692" d="M522 571T593 512T663 337Q664 222 593 163T392 103H283V0H50V660H283V571H392Q522 571 593 512ZM431 267T430 337Q431 406 354 406H283V267H354Q431 267 430 337Z" />
<glyph unicode="&#xdf;" glyph-name="germandbls" horiz-adv-x="666" d="M551 345T600 300T649 175Q649 124 626 82T553 15T429 -10Q342 -10 293 22L323 167Q334 155 345 150T376 145Q400 145 414 161T428 208Q428 236 412 250T365 265H310L338 417H364Q389 418
403 436T417 486Q417 516 400 533T355 550Q308 550 289 523T269 431V0H39V437Q39 570 114 637T356 705Q490 705 564 652T638 507Q638 464 618 427T560 369T473 347V345Q551 345 600 300Z" />
<glyph unicode="&#xe0;" glyph-name="agrave" horiz-adv-x="588" d="M589 123T597 127L579 10Q545 -10 505 -10Q444 -10 403 11T348 74Q325 35 281 13T170 -10Q92 -10 54 20T16 109Q16 172 61 209T211 270L310 292V312Q310 335 299 348T265 361Q241 361 227 348T212
300L22 329Q30 415 94 462T278 510Q411 510 474 459T538 304V164Q538 123 572 123Q589 123 597 127ZM286 115T298 127T310 164V212L277 202Q256 196 244 183T232 150Q232 133 242 124T267 115Q286 115 298 127ZM360 553H198L95 730H300L360 553Z" />
<glyph unicode="&#xe1;" glyph-name="aacute" horiz-adv-x="588" d="M589 123T597 127L579 10Q545 -10 505 -10Q444 -10 403 11T348 74Q325 35 281 13T170 -10Q92 -10 54 20T16 109Q16 172 61 209T211 270L310 292V312Q310 335 299 348T265 361Q241 361 227 348T212
300L22 329Q30 415 94 462T278 510Q411 510 474 459T538 304V164Q538 123 572 123Q589 123 597 127ZM286 115T298 127T310 164V212L277 202Q256 196 244 183T232 150Q232 133 242 124T267 115Q286 115 298 127ZM447 730L344 553H182L242 730H447Z" />
<glyph unicode="&#xe2;" glyph-name="acircumflex" horiz-adv-x="588" d="M589 123T597 127L579 10Q545 -10 505 -10Q444 -10 403 11T348 74Q325 35 281 13T170 -10Q92 -10 54 20T16 109Q16 172 61 209T211 270L310 292V312Q310 335 299 348T265 361Q241 361 227
348T212 300L22 329Q30 415 94 462T278 510Q411 510 474 459T538 304V164Q538 123 572 123Q589 123 597 127ZM286 115T298 127T310 164V212L277 202Q256 196 244 183T232 150Q232 133 242 124T267 115Q286 115 298 127ZM334 547L277 618L220 547H64L170 724H384L490
547H334Z" />
<glyph unicode="&#xe3;" glyph-name="atilde" horiz-adv-x="588" d="M589 123T597 127L579 10Q545 -10 505 -10Q444 -10 403 11T348 74Q325 35 281 13T170 -10Q92 -10 54 20T16 109Q16 172 61 209T211 270L310 292V312Q310 335 299 348T265 361Q241 361 227 348T212
300L22 329Q30 415 94 462T278 510Q411 510 474 459T538 304V164Q538 123 572 123Q589 123 597 127ZM286 115T298 127T310 164V212L277 202Q256 196 244 183T232 150Q232 133 242 124T267 115Q286 115 298 127ZM483 543T341 543Q310 543 292 551T253 575Q242 584
234 588T215 593Q189 593 185 545H67Q71 721 213 721Q244 721 262 713T301 689Q312 680 320 676T339 671Q353 671 360 682T369 719H487Q483 543 341 543Z" />
<glyph unicode="&#xe4;" glyph-name="adieresis" horiz-adv-x="588" d="M589 123T597 127L579 10Q545 -10 505 -10Q444 -10 403 11T348 74Q325 35 281 13T170 -10Q92 -10 54 20T16 109Q16 172 61 209T211 270L310 292V312Q310 335 299 348T265 361Q241 361 227
348T212 300L22 329Q30 415 94 462T278 510Q411 510 474 459T538 304V164Q538 123 572 123Q589 123 597 127ZM286 115T298 127T310 164V212L277 202Q256 196 244 183T232 150Q232 133 242 124T267 115Q286 115 298 127ZM207 720T234 697T262 629Q262 585 235 562T157
538Q108 538 82 562T55 629Q55 672 81 696T157 720Q207 720 234 697ZM444 720T471 697T499 629Q499 585 472 562T394 538Q345 538 319 562T292 629Q292 672 318 696T394 720Q444 720 471 697Z" />
<glyph unicode="&#xe5;" glyph-name="aring" horiz-adv-x="588" d="M589 123T597 127L579 10Q545 -10 505 -10Q444 -10 403 11T348 74Q325 35 281 13T170 -10Q92 -10 54 20T16 109Q16 172 61 209T211 270L310 292V312Q310 335 299 348T265 361Q241 361 227 348T212
300L22 329Q30 415 94 462T278 510Q411 510 474 459T538 304V164Q538 123 572 123Q589 123 597 127ZM286 115T298 127T310 164V212L277 202Q256 196 244 183T232 150Q232 133 242 124T267 115Q286 115 298 127ZM347 781T384 749T421 658Q421 599 384 567T280 535Q213
535 176 567T139 658Q139 717 176 749T280 781Q347 781 384 749ZM261 697T251 687T240 658Q240 639 250 629T280 619Q299 619 309 629T320 658Q320 677 310 687T280 697Q261 697 251 687Z" />
<glyph unicode="&#xe6;" glyph-name="ae" horiz-adv-x="873" d="M853 228T848 206H531Q537 170 556 157T609 143Q633 143 643 153T659 186L844 136Q827 64 761 27T599 -10Q467 -10 410 83Q380 41 322 16T179 -10Q95 -10 56 21T16 107Q16 152 34 181T93 230T202
264L311 287V312Q311 362 265 362Q239 362 227 349T212 300L22 330Q29 414 86 462T257 510Q313 510 359 494T438 448Q497 510 597 510Q719 510 786 444T853 266Q853 228 848 206ZM560 358T547 342T530 285H638Q636 323 625 340T588 358Q560 358 547 342ZM284 106T297
119T311 161V207L278 199Q251 192 239 180T227 146Q227 127 236 117T264 106Q284 106 297 119Z" />
<glyph unicode="&#xe7;" glyph-name="ccedilla" horiz-adv-x="576" d="M329 145T340 161T353 211L559 147Q559 97 520 58T407 0Q458 -35 458 -90Q458 -156 414 -185T297 -215Q247 -215 216 -203T163 -171L208 -76Q236 -104 282 -104Q307 -104 321 -93T336 -60Q336
-26 281 -9Q153 -3 87 64T20 250Q20 374 92 442T297 510Q436 510 497 461T561 340L349 278Q352 355 309 355Q278 355 265 332T251 247Q251 187 265 166T308 145Q329 145 340 161Z" />
<glyph unicode="&#xe8;" glyph-name="egrave" horiz-adv-x="583" d="M563 228T558 206H240Q245 169 261 156T309 143Q358 143 369 186L554 136Q537 64 471 27T309 -10Q167 -10 94 57T20 250Q20 374 92 442T297 510Q426 510 494 444T563 266Q563 228 558 206ZM272
358T258 343T240 291H348Q345 325 334 341T298 358Q272 358 258 343ZM379 553H217L114 730H319L379 553Z" />
<glyph unicode="&#xe9;" glyph-name="eacute" horiz-adv-x="583" d="M563 228T558 206H240Q245 169 261 156T309 143Q358 143 369 186L554 136Q537 64 471 27T309 -10Q167 -10 94 57T20 250Q20 374 92 442T297 510Q426 510 494 444T563 266Q563 228 558 206ZM272
358T258 343T240 291H348Q345 325 334 341T298 358Q272 358 258 343ZM466 730L363 553H201L261 730H466Z" />
<glyph unicode="&#xea;" glyph-name="ecircumflex" horiz-adv-x="583" d="M563 228T558 206H240Q245 169 261 156T309 143Q358 143 369 186L554 136Q537 64 471 27T309 -10Q167 -10 94 57T20 250Q20 374 92 442T297 510Q426 510 494 444T563 266Q563 228 558 206ZM272
358T258 343T240 291H348Q345 325 334 341T298 358Q272 358 258 343ZM353 547L296 618L239 547H83L189 724H403L509 547H353Z" />
<glyph unicode="&#xeb;" glyph-name="edieresis" horiz-adv-x="583" d="M563 228T558 206H240Q245 169 261 156T309 143Q358 143 369 186L554 136Q537 64 471 27T309 -10Q167 -10 94 57T20 250Q20 374 92 442T297 510Q426 510 494 444T563 266Q563 228 558 206ZM272
358T258 343T240 291H348Q345 325 334 341T298 358Q272 358 258 343ZM226 720T253 697T281 629Q281 585 254 562T176 538Q127 538 101 562T74 629Q74 672 100 696T176 720Q226 720 253 697ZM463 720T490 697T518 629Q518 585 491 562T413 538Q364 538 338 562T311
629Q311 672 337 696T413 720Q463 720 490 697Z" />
<glyph unicode="&#xec;" glyph-name="igrave" horiz-adv-x="308" d="M269 0H39V500H269V0ZM493 553H331L228 730H433L493 553Z" />
<glyph unicode="&#xed;" glyph-name="iacute" horiz-adv-x="308" d="M269 0H39V500H269V0ZM580 730L477 553H315L375 730H580Z" />
<glyph unicode="&#xee;" glyph-name="icircumflex" horiz-adv-x="308" d="M269 0H39V500H269V0ZM467 547L410 618L353 547H197L303 724H517L623 547H467Z" />
<glyph unicode="&#xef;" glyph-name="idieresis" horiz-adv-x="308" d="M-49 535T-49 629Q-49 723 47 723Q143 723 143 629Q143 535 47 535Q-49 535 -49 629ZM165 535T165 629Q165 723 261 723Q357 723 357 629Q357 535 261 535Q165 535 165 629ZM269 0H39V500H269V0Z" />
<glyph unicode="&#xf0;" glyph-name="eth" horiz-adv-x="593" d="M478 602Q572 481 572 313Q572 193 544 123T454 22T289 -10Q167 -10 97 57T27 246Q27 367 95 434T278 502Q370 502 402 434Q384 510 332 569L183 544L172 604L288 614Q247 651 156 717H341Q393
692 442 643L567 670L582 610L478 602ZM335 145T346 166T357 246Q357 313 346 337T306 362Q278 362 268 338T258 246Q258 189 268 167T306 145Q335 145 346 166Z" />
<glyph unicode="&#xf1;" glyph-name="ntilde" horiz-adv-x="620" d="M499 510T540 466T582 342V0H352V282Q352 315 344 327T317 340Q292 340 281 321T269 262V0H39V500H246L251 391Q273 449 317 479T425 510Q499 510 540 466ZM515 543T373 543Q342 543 324 551T285
575Q274 584 266 588T247 593Q221 593 217 545H99Q103 721 245 721Q276 721 294 713T333 689Q344 680 352 676T371 671Q385 671 392 682T401 719H519Q515 543 373 543Z" />
<glyph unicode="&#xf2;" glyph-name="ograve" horiz-adv-x="598" d="M432 510T505 442T578 250Q578 126 505 58T299 -10Q166 -10 93 58T20 250Q20 374 93 442T299 510Q432 510 505 442ZM279 355T269 346T255 315T251 250Q251 207 255 185T269 154T299 145Q319
145 329 154T343 185T347 250Q347 293 343 315T329 346T299 355Q279 355 269 346ZM382 553H220L117 730H322L382 553Z" />
<glyph unicode="&#xf3;" glyph-name="oacute" horiz-adv-x="598" d="M432 510T505 442T578 250Q578 126 505 58T299 -10Q166 -10 93 58T20 250Q20 374 93 442T299 510Q432 510 505 442ZM279 355T269 346T255 315T251 250Q251 207 255 185T269 154T299 145Q319
145 329 154T343 185T347 250Q347 293 343 315T329 346T299 355Q279 355 269 346ZM469 730L366 553H204L264 730H469Z" />
<glyph unicode="&#xf4;" glyph-name="ocircumflex" horiz-adv-x="598" d="M432 510T505 442T578 250Q578 126 505 58T299 -10Q166 -10 93 58T20 250Q20 374 93 442T299 510Q432 510 505 442ZM279 355T269 346T255 315T251 250Q251 207 255 185T269 154T299 145Q319
145 329 154T343 185T347 250Q347 293 343 315T329 346T299 355Q279 355 269 346ZM356 547L299 618L242 547H86L192 724H406L512 547H356Z" />
<glyph unicode="&#xf5;" glyph-name="otilde" horiz-adv-x="598" d="M432 510T505 442T578 250Q578 126 505 58T299 -10Q166 -10 93 58T20 250Q20 374 93 442T299 510Q432 510 505 442ZM279 355T269 346T255 315T251 250Q251 207 255 185T269 154T299 145Q319
145 329 154T343 185T347 250Q347 293 343 315T329 346T299 355Q279 355 269 346ZM505 543T363 543Q332 543 314 551T275 575Q264 584 256 588T237 593Q211 593 207 545H89Q93 721 235 721Q266 721 284 713T323 689Q334 680 342 676T361 671Q375 671 382 682T391
719H509Q505 543 363 543Z" />
<glyph unicode="&#xf6;" glyph-name="odieresis" horiz-adv-x="598" d="M432 510T505 442T578 250Q578 126 505 58T299 -10Q166 -10 93 58T20 250Q20 374 93 442T299 510Q432 510 505 442ZM279 355T269 346T255 315T251 250Q251 207 255 185T269 154T299 145Q319
145 329 154T343 185T347 250Q347 293 343 315T329 346T299 355Q279 355 269 346ZM229 720T256 697T284 629Q284 585 257 562T179 538Q130 538 104 562T77 629Q77 672 103 696T179 720Q229 720 256 697ZM466 720T493 697T521 629Q521 585 494 562T416 538Q367 538
341 562T314 629Q314 672 340 696T416 720Q466 720 493 697Z" />
<glyph unicode="&#xf7;" glyph-name="divide" horiz-adv-x="604" d="M347 651T372 627T397 558Q397 514 372 490T302 466Q256 466 231 490T206 558Q206 602 231 626T302 651Q347 651 372 627ZM560 254H44V407H560V254ZM347 195T372 171T397 102Q397 58 372 34T302
10Q256 10 231 34T206 102Q206 146 231 170T302 195Q347 195 372 171Z" />
<glyph unicode="&#xf8;" glyph-name="oslash" horiz-adv-x="598" d="M394 510T462 473L499 520H566L504 443Q578 375 578 250Q578 126 505 58T299 -10Q207 -10 144 23L111 -21H44L100 52Q20 120 20 250Q20 374 93 442T299 510Q394 510 462 473ZM252 218L267 243L336
336Q327 355 299 355Q279 355 269 346T255 315T251 250V218H252ZM319 145T329 154T343 185T347 250V269H346L331 245L266 158Q275 145 299 145Q319 145 329 154Z" />
<glyph unicode="&#xf9;" glyph-name="ugrave" horiz-adv-x="620" d="M581 500V0H374L369 106Q347 48 305 19T200 -10Q120 -10 79 31T38 162V500H268V219Q268 186 276 173T305 160Q351 160 351 239V500H581ZM387 553H225L122 730H327L387 553Z" />
<glyph unicode="&#xfa;" glyph-name="uacute" horiz-adv-x="620" d="M581 500V0H374L369 106Q347 48 305 19T200 -10Q120 -10 79 31T38 162V500H268V219Q268 186 276 173T305 160Q351 160 351 239V500H581ZM474 730L371 553H209L269 730H474Z" />
<glyph unicode="&#xfb;" glyph-name="ucircumflex" horiz-adv-x="620" d="M581 500V0H374L369 106Q347 48 305 19T200 -10Q120 -10 79 31T38 162V500H268V219Q268 186 276 173T305 160Q351 160 351 239V500H581ZM361 547L304 618L247 547H91L197 724H411L517 547H361Z" />
<glyph unicode="&#xfc;" glyph-name="udieresis" horiz-adv-x="620" d="M581 500V0H374L369 106Q347 48 305 19T200 -10Q120 -10 79 31T38 162V500H268V219Q268 186 276 173T305 160Q351 160 351 239V500H581ZM234 720T261 697T289 629Q289 585 262 562T184 538Q135
538 109 562T82 629Q82 672 108 696T184 720Q234 720 261 697ZM471 720T498 697T526 629Q526 585 499 562T421 538Q372 538 346 562T319 629Q319 672 345 696T421 720Q471 720 498 697Z" />
<glyph unicode="&#xfd;" glyph-name="yacute" horiz-adv-x="594" d="M457 56Q423 -45 383 -103T287 -188T149 -215Q56 -215 -5 -182L37 -37Q53 -46 72 -50T126 -54Q158 -54 173 -48T195 -27L198 -19L135 128L-8 500H243L288 242L307 125L329 243L379 500H604L457
56ZM493 730L390 553H228L288 730H493Z" />
<glyph unicode="&#xfe;" glyph-name="thorn" horiz-adv-x="627" d="M469 510T510 484T577 401T602 258Q602 155 571 95T497 13T409 -10Q311 -10 269 77V-210H39V700H269V401Q288 452 325 481T418 510Q469 510 510 484ZM348 152T359 172T370 250Q370 308 359 328T318
349Q294 349 282 327T269 254V246Q269 198 281 175T318 152Q348 152 359 172Z" />
<glyph unicode="&#xff;" glyph-name="ydieresis" horiz-adv-x="594" d="M457 56Q423 -45 383 -103T287 -188T149 -215Q56 -215 -5 -182L37 -37Q53 -46 72 -50T126 -54Q158 -54 173 -48T195 -27L198 -19L135 128L-8 500H243L288 242L307 125L329 243L379 500H604L457
56ZM253 720T280 697T308 629Q308 585 281 562T203 538Q154 538 128 562T101 629Q101 672 127 696T203 720Q253 720 280 697ZM490 720T517 697T545 629Q545 585 518 562T440 538Q391 538 365 562T338 629Q338 672 364 696T440 720Q490 720 517 697Z" />
<glyph unicode="&#x2013;" glyph-name="endash" horiz-adv-x="710" d="M635 184H75V359H635V184Z" />
<glyph unicode="&#x2014;" glyph-name="emdash" horiz-adv-x="1000" d="M925 184H75V359H925V184Z" />
<glyph unicode="&#x2018;" glyph-name="quoteleft" horiz-adv-x="320" d="M98 314T66 356T33 463Q33 537 74 596T192 686L289 624Q234 601 199 576T147 514L152 510Q165 524 184 524Q225 524 255 499T286 425Q286 369 254 342T163 314Q98 314 66 356Z" />
<glyph unicode="&#x2019;" glyph-name="quoteright" horiz-adv-x="320" d="M228 683T260 641T293 534Q293 460 252 401T134 311L37 373Q92 396 127 421T179 483L174 487Q161 473 142 473Q101 473 71 498T40 572Q40 628 72 655T163 683Q228 683 260 641Z" />
<glyph unicode="&#x201a;" glyph-name="quotesinglbase" horiz-adv-x="306" d="M213 206T245 164T278 57Q278 -17 237 -76T119 -166L22 -104Q77 -81 112 -56T164 6L159 10Q146 -4 127 -4Q86 -4 56 21T25 95Q25 151 57 178T148 206Q213 206 245 164Z" />
<glyph unicode="&#x201c;" glyph-name="quotedblleft" horiz-adv-x="603" d="M98 314T66 356T33 463Q33 537 74 596T192 686L289 624Q234 601 199 576T147 514L152 510Q165 524 184 524Q225 524 255 499T286 425Q286 369 254 342T163 314Q98 314 66 356ZM381 314T349
356T316 463Q316 537 357 596T475 686L572 624Q517 601 482 576T430 514L435 510Q448 524 467 524Q508 524 538 499T569 425Q569 369 537 342T446 314Q381 314 349 356Z" />
<glyph unicode="&#x201d;" glyph-name="quotedblright" horiz-adv-x="595" d="M228 683T260 641T293 534Q293 460 252 401T134 311L37 373Q92 396 127 421T179 483L174 487Q161 473 142 473Q101 473 71 498T40 572Q40 628 72 655T163 683Q228 683 260 641ZM503
683T535 641T568 534Q568 460 527 401T409 311L312 373Q367 396 402 421T454 483L449 487Q436 473 417 473Q376 473 346 498T315 572Q315 628 347 655T438 683Q503 683 535 641Z" />
<glyph unicode="&#x201e;" glyph-name="quotedblbase" horiz-adv-x="581" d="M213 206T245 164T278 57Q278 -17 237 -76T119 -166L22 -104Q77 -81 112 -56T164 6L159 10Q146 -4 127 -4Q86 -4 56 21T25 95Q25 151 57 178T148 206Q213 206 245 164ZM488 206T520
164T553 57Q553 -17 512 -76T394 -166L297 -104Q352 -81 387 -56T439 6L434 10Q421 -4 402 -4Q361 -4 331 21T300 95Q300 151 332 178T423 206Q488 206 520 164Z" />
<glyph unicode="&#x2022;" glyph-name="bullet" horiz-adv-x="430" d="M297 497T342 454T388 330Q388 250 343 207T215 163Q133 163 88 206T42 330Q42 410 87 453T215 497Q297 497 342 454Z" />
<glyph unicode="&#x2039;" glyph-name="guilsinglleft" horiz-adv-x="361" d="M221 265L337 69H149L24 265L149 461H337L221 265Z" />
<glyph unicode="&#x203a;" glyph-name="guilsinglright" horiz-adv-x="361" d="M212 461L337 265L212 69H24L140 265L24 461H212Z" />
</font>
</defs>
</svg>
