<?xml version="1.0" standalone="no"?>
<!DOCTYPE svg PUBLIC "-//W3C//DTD SVG 1.1//EN" "http://www.w3.org/Graphics/SVG/1.1/DTD/svg11.dtd">
<svg xmlns="http://www.w3.org/2000/svg">
<defs >
<font id="Copse" horiz-adv-x="1116" ><font-face
    font-family="Copse"
    units-per-em="2048"
    panose-1="2 0 5 3 8 0 0 2 0 4"
    ascent="1991"
    descent="-483"
    alphabetic="0" />
<glyph unicode=" " glyph-name="space" horiz-adv-x="440" />
<glyph unicode="!" glyph-name="exclam" horiz-adv-x="596" d="M173 64Q163 90 163 120Q163 149 173 174Q182 200 200 218Q238 258 296 259Q354 258 396 218Q438 179 438 134Q438 89 427 64T396 20Q354 -19 296 -20Q206 -20 173 64ZM299 391Q213 391 213 435L165
1494Q165 1525 299 1525Q432 1525 432 1492L382 432Q382 405 327 394Q312 391 299 391Z" />
<glyph unicode="&quot;" glyph-name="quotedbl" horiz-adv-x="760" d="M459 1538Q460 1570 536 1580Q554 1582 569 1583H579Q590 1583 604 1582Q624 1580 644 1576Q692 1565 692 1534L640 1140Q636 1110 563 1110Q497 1110 494 1140L459 1538ZM67 1534Q67 1583
191 1583Q253 1583 276 1567T300 1538L265 1140Q262 1110 196 1110Q154 1110 137 1121T119 1140L67 1534Z" />
<glyph unicode="#" glyph-name="numbersign" horiz-adv-x="1190" d="M353 1060L419 1505Q422 1523 450 1524T489 1525Q499 1525 511 1525T535 1522Q561 1518 561 1505L497 1060H784L850 1505Q853 1523 881 1524T920 1525Q930 1525 942 1525T966 1522Q992 1518
992 1505L928 1060H1090Q1116 1060 1126 1009Q1128 996 1129 985V981Q1129 972 1127 960Q1124 946 1120 934Q1110 906 1090 906H906L861 596H1009Q1036 596 1046 546Q1048 533 1048 522Q1048 510 1046 496Q1042 482 1038 470Q1028 442 1009 442H839L776 0Q774 -17
743 -18T701 -20H679Q668 -20 656 -18Q630 -15 629 0L694 442H408L345 0Q343 -17 312 -18T270 -20H248Q236 -20 224 -18Q198 -15 198 0L263 442H101Q72 442 62 494Q60 507 60 519Q60 530 62 544Q65 556 70 568Q82 596 101 596H285L331 906H185Q156 906 146 958Q144
971 144 982Q144 1028 159 1044T185 1060H353ZM430 596H716L762 906H475L430 596Z" />
<glyph unicode="$" glyph-name="dollar" horiz-adv-x="1130" d="M490 1608Q490 1636 561 1636Q632 1636 632 1608V1481Q785 1472 904 1402Q1044 1321 1044 1197Q1044 1133 1000 1087Q957 1043 891 1043Q826 1043 782 1087Q737 1132 737 1183Q737 1233 766 1291Q711
1323 632 1327V850Q836 756 908 699T1019 580T1057 432Q1057 345 1025 274Q992 204 936 152Q824 49 632 26V-142Q632 -170 561 -170Q490 -170 490 -142V21Q327 32 206 101Q65 181 65 300Q65 366 110 411T219 456Q284 456 328 411Q372 365 372 300Q372 292 370 282L364
261Q361 250 358 240T352 223Q410 180 490 175V681Q305 761 237 822T134 949T100 1101Q100 1187 130 1251T214 1362Q317 1452 490 1475V1608ZM830 321Q846 358 846 400Q846 442 830 472Q813 502 784 528Q737 570 632 619V184Q785 213 830 321ZM490 1318Q311 1286
311 1135Q311 1015 490 919V1318Z" />
<glyph unicode="%" glyph-name="percent" horiz-adv-x="1281" d="M912 92Q1042 92 1042 281Q1042 429 971 477Q946 494 912 494Q785 494 785 305Q785 158 854 109Q878 92 912 92ZM348 883Q280 883 230 908Q182 933 148 974Q82 1055 81 1182Q81 1322 166 1413Q252
1505 386 1505Q515 1505 588 1414Q654 1332 654 1206Q654 1066 569 975Q483 883 348 883ZM894 -20Q826 -20 776 5Q728 30 694 71Q628 152 627 279Q627 419 712 510Q798 602 932 602Q1061 602 1134 511Q1200 429 1200 303Q1200 163 1115 72Q1029 -20 894 -20ZM1059
1505Q1079 1537 1155 1537Q1217 1537 1217 1505L233 0Q211 -30 130 -30Q67 -30 67 0L1059 1505ZM365 992Q495 992 495 1181Q495 1329 424 1377Q399 1394 365 1394Q238 1394 238 1205Q238 1058 307 1009Q331 992 365 992Z" />
<glyph unicode="&amp;" glyph-name="ampersand" horiz-adv-x="1354" d="M1298 807Q1323 807 1323 737Q1323 666 1288 666H1227Q1205 481 1025 263L1046 230Q1077 181 1122 161T1238 141Q1262 141 1262 76Q1262 29 1248 15T1223 0H1053Q977 0 885 103Q714 -20 506
-20Q316 -20 196 89Q74 200 74 376Q74 501 134 604Q186 693 330 837L286 909Q197 1060 197 1200Q198 1336 298 1427Q406 1525 590 1525Q785 1524 883 1414Q958 1329 958 1205Q958 1085 895 976Q836 874 680 714L935 376Q1052 545 1052 650Q1052 666 1039 666H915Q886
666 876 720Q874 734 874 748Q874 807 900 807H1298ZM424 712Q307 595 307 423Q308 286 370 208Q429 134 512 134Q673 134 793 225L424 712ZM588 840Q753 986 753 1187Q752 1312 660 1356Q630 1370 587 1371H583Q542 1371 508 1359Q472 1347 448 1326Q399 1283
399 1228Q399 1173 414 1126T456 1031Q498 954 588 840Z" />
<glyph unicode="&apos;" glyph-name="quotesingle" horiz-adv-x="379" d="M73 1534Q73 1583 189 1583Q260 1583 283 1568T306 1538L263 1140Q260 1110 194 1110Q120 1110 117 1140L73 1534Z" />
<glyph unicode="(" glyph-name="parenleft" horiz-adv-x="636" d="M513 -233Q500 -239 481 -239Q461 -239 439 -227Q200 30 120 436Q92 576 92 727Q92 1014 194 1276Q284 1506 439 1675Q449 1684 482 1684Q514 1684 537 1663T560 1614Q352 1258 316 954Q304 848
304 730Q303 725 303 721Q303 607 316 503Q328 396 358 288Q417 78 560 -166Q560 -211 513 -233Z" />
<glyph unicode=")" glyph-name="parenright" horiz-adv-x="637" d="M197 -227Q175 -239 156 -239Q136 -239 123 -233Q110 -228 100 -218Q76 -197 76 -166Q284 187 320 503Q332 611 333 730V739Q333 852 321 955Q308 1061 278 1166Q220 1370 76 1614Q76 1641 99
1662T146 1684Q187 1684 197 1675Q438 1414 516 1018Q544 880 544 727Q544 294 331 -50Q268 -152 197 -227Z" />
<glyph unicode="*" glyph-name="asterisk" horiz-adv-x="676" d="M124 1479L129 1478L276 1411L259 1569Q259 1590 311 1598Q324 1600 336 1600Q347 1600 362 1598Q378 1598 390 1594Q419 1586 419 1570V1569L399 1409L544 1476Q546 1477 554 1477Q562 1477 573
1463T592 1428Q610 1387 610 1359Q610 1330 596 1324L435 1291L549 1175Q552 1170 552 1161Q552 1151 539 1135T508 1104Q464 1070 446 1070Q427 1070 423 1077L334 1222L257 1080Q251 1073 240 1073Q228 1073 209 1081T170 1104Q124 1137 124 1163Q124 1168 127
1173L236 1295L80 1325Q66 1329 66 1349Q66 1369 70 1389T82 1429Q100 1479 124 1479Z" />
<glyph unicode="+" glyph-name="plus" horiz-adv-x="1042" d="M592 162Q592 141 520 141Q448 141 448 162V575H100Q72 575 62 627Q60 640 60 652Q59 653 59 655Q59 665 62 677Q64 690 69 702Q81 729 99 729H448V1098Q448 1119 520 1119Q592 1119 592 1098V729H942Q968
729 978 679Q980 666 981 655Q981 610 967 593T942 575H592V162Z" />
<glyph unicode="," glyph-name="comma" horiz-adv-x="505" d="M180 -16Q106 23 106 113Q106 172 148 212T235 252Q280 252 307 241T354 212Q398 172 399 113Q399 -63 134 -270Q105 -270 90 -254T74 -211Q180 -92 180 -16Z" />
<glyph unicode="-" glyph-name="hyphen" horiz-adv-x="750" d="M600 689Q626 689 636 630Q638 616 638 604Q638 552 624 533T599 513H152Q124 513 114 574Q112 588 112 600Q112 612 114 627T122 656Q134 689 153 689H600Z" />
<glyph unicode="." glyph-name="period" horiz-adv-x="487" d="M106 115Q106 210 190 244Q216 254 245 254Q274 254 299 244Q324 232 342 214Q381 174 381 115Q381 23 299 -10Q274 -20 245 -20Q215 -20 190 -10T146 18Q106 56 106 115Z" />
<glyph unicode="/" glyph-name="slash" horiz-adv-x="913" d="M707 1606Q756 1638 782 1638Q807 1638 820 1637Q832 1636 844 1632Q872 1624 872 1606L206 -141Q166 -170 109 -170Q63 -170 49 -160T34 -141L707 1606Z" />
<glyph unicode="0" glyph-name="zero" horiz-adv-x="1200" d="M302 1434T401 1479T628 1525Q756 1525 846 1469Q937 1414 995 1314Q1106 1124 1106 778Q1106 411 964 197Q820 -20 574 -20Q334 -20 204 226Q94 432 94 679Q94 925 129 1080T233 1335ZM602 1360Q384
1360 340 996Q327 891 327 770V753Q327 326 480 191Q532 145 602 145Q671 145 722 191Q772 237 806 318Q872 479 873 753Q873 1192 733 1314Q681 1360 602 1360Z" />
<glyph unicode="1" glyph-name="one" horiz-adv-x="1200" d="M1052 141Q1077 141 1077 71Q1077 0 1041 0H318Q295 0 295 55V58Q295 105 322 133Q330 141 338 141H487Q578 141 592 166Q596 174 596 184V1151Q596 1212 575 1212Q568 1212 548 1204L502 1186Q476
1176 447 1163T391 1140Q325 1114 311 1114Q297 1114 285 1123Q274 1132 264 1146Q242 1177 242 1204Q242 1230 258 1240L716 1525Q807 1525 807 1505V141H1052Z" />
<glyph unicode="2" glyph-name="two" horiz-adv-x="1200" d="M297 1009Q232 1009 188 1053Q143 1098 143 1174Q143 1250 183 1317T288 1430Q419 1524 595 1525Q794 1525 916 1436Q1039 1346 1039 1195V1193Q1039 962 853 783Q800 731 740 682L620 584Q397 402
338 211H891L931 348Q958 370 986 370Q1041 370 1065 319L1019 0H173V75Q173 354 373 574Q430 636 490 692L606 802Q731 920 779 1028Q806 1089 806 1178Q806 1267 741 1319T561 1371Q436 1371 376 1300Q408 1284 429 1246T450 1169Q450 1130 438 1102T406 1053Q364
1009 297 1009Z" />
<glyph unicode="3" glyph-name="three" horiz-adv-x="1200" d="M378 205Q438 134 563 134Q680 134 752 210Q826 287 826 416Q826 532 755 620Q678 716 545 731V824Q718 873 782 1013Q808 1068 808 1130Q808 1192 791 1233T742 1305Q675 1371 563 1371Q438 1371
378 1300Q410 1284 431 1246T452 1169Q452 1130 440 1102T408 1053Q365 1009 299 1009Q234 1009 190 1053Q145 1098 145 1174Q145 1250 185 1317T290 1430Q421 1524 597 1525Q791 1525 907 1420Q1019 1318 1019 1161V1159Q1019 972 862 856Q818 823 771 802Q896
739 951 679Q1059 559 1059 406V404Q1059 238 928 113Q789 -20 582 -20Q418 -20 288 74Q145 178 145 340V342Q145 407 190 452Q234 496 299 496Q359 496 404 454Q450 411 450 341Q450 271 378 205Z" />
<glyph unicode="4" glyph-name="four" horiz-adv-x="1200" d="M1090 570Q1115 570 1115 508Q1115 456 1098 436T1070 416H907V141H1054Q1079 141 1079 71Q1079 0 1043 0H418Q395 0 395 55V58Q395 105 422 133Q430 141 438 141H587Q678 141 692 166Q696 174 696
184V416H143Q102 440 96 485L555 1525Q730 1525 730 1393L314 570H696V918Q696 1020 907 1020V570H1090Z" />
<glyph unicode="5" glyph-name="five" horiz-adv-x="1200" d="M378 205Q438 134 575 134Q686 134 760 210Q840 292 840 428Q840 581 743 672Q649 760 489 760H245V1505H1003Q1003 1395 991 1362Q966 1294 893 1294H399V914H553Q801 914 944 768Q1073 636 1073
439Q1073 230 934 104Q797 -19 579 -20Q417 -20 288 74Q145 178 145 340Q145 406 190 451T299 496Q364 496 408 451Q452 405 452 339Q452 273 378 205Z" />
<glyph unicode="6" glyph-name="six" horiz-adv-x="1200" d="M839 1300Q779 1371 662 1371H660Q534 1371 443 1226Q342 1066 342 809Q411 881 546 909Q595 919 676 919Q756 919 841 887Q926 856 987 794Q1115 665 1115 443Q1115 237 959 104Q813 -20 628 -20Q109
-20 109 710Q109 1114 291 1334Q448 1525 658 1525H660Q959 1524 1044 1320Q1072 1252 1072 1192Q1072 1132 1060 1104T1027 1054Q982 1009 918 1009Q854 1009 810 1054Q766 1100 765 1165Q765 1262 839 1300ZM624 765Q566 765 520 748T438 702Q370 649 342 577Q342
409 412 278Q490 134 614 134Q730 134 805 222Q882 313 882 459Q882 582 812 670Q736 764 624 765Z" />
<glyph unicode="7" glyph-name="seven" horiz-adv-x="1200" d="M608 0Q608 -20 492 -20Q375 -20 375 0Q428 556 706 1014Q794 1158 899 1310H262L225 1186Q219 1167 181 1167Q97 1167 91 1215L129 1505H1101Q1136 1505 1136 1440L988 1182Q850 935 789 779T695
508Q631 282 608 0Z" />
<glyph unicode="8" glyph-name="eight" horiz-adv-x="1200" d="M93 392Q93 626 357 836Q270 908 235 964Q164 1076 164 1200Q164 1332 288 1427Q415 1525 604 1525Q809 1525 937 1424Q1052 1333 1052 1205Q1052 1016 912 858Q874 814 836 778Q975 703 1023 646T1092
533T1113 392Q1113 306 1073 228T964 95Q823 -20 625 -20Q366 -20 226 96Q93 205 93 389V392ZM487 761Q326 589 326 413Q326 290 402 213Q480 134 610 134Q731 134 811 220Q880 294 880 365Q880 436 852 486T771 582Q693 650 487 761ZM702 850Q847 1037 847 1157V1160Q847
1254 774 1314Q706 1371 604 1371Q493 1370 427 1314Q366 1262 366 1201Q366 1139 393 1094T466 1008Q537 944 702 850Z" />
<glyph unicode="9" glyph-name="nine" horiz-adv-x="1200" d="M368 205Q428 134 566 134Q695 134 775 268Q865 419 865 696Q801 624 661 596Q612 586 532 586Q451 586 366 618T220 712Q92 841 92 1062Q92 1268 248 1401Q394 1525 579 1525Q1098 1525 1098 795Q1098
174 780 26Q680 -20 579 -20Q478 -20 403 3T268 72Q135 173 135 338V340Q135 406 180 451T289 496Q354 496 398 451Q442 405 442 340Q442 243 368 205ZM583 740Q641 740 687 758Q732 774 768 802Q838 856 865 928Q864 1125 794 1246Q721 1371 593 1371Q477 1370
402 1282Q325 1191 325 1046V1043Q325 921 394 834Q468 740 583 740Z" />
<glyph unicode=":" glyph-name="colon" horiz-adv-x="559" d="M142 772Q142 830 181 870Q218 908 264 909H268Q310 909 334 899Q360 888 378 870Q417 831 417 775V769Q417 713 378 674Q340 636 294 635Q218 635 180 674T142 772ZM142 162Q142 222 181 262Q219
302 263 302H264Q309 301 334 290Q360 280 378 262Q417 223 417 165V159Q417 103 378 64Q340 26 295 26Q293 25 291 25Q249 25 224 35Q199 46 181 64Q142 104 142 162Z" />
<glyph unicode=";" glyph-name="semicolon" horiz-adv-x="573" d="M224 635T186 673T147 772Q147 866 229 899Q254 909 284 909Q313 909 338 899Q364 888 382 870Q421 831 421 775V769Q421 713 382 674Q344 636 298 635Q224 635 186 673ZM216 -16Q142 23 142 113Q142
172 184 212T271 252Q316 252 343 241T390 212Q434 172 435 113Q435 -63 170 -270Q141 -270 126 -254T110 -211Q216 -92 216 -16Z" />
<glyph unicode="&lt;" glyph-name="less" horiz-adv-x="1075" d="M331 642L967 196Q967 120 905 96L106 558Q56 588 56 641Q56 701 109 731L900 1174Q946 1159 962 1101Q966 1084 967 1068L331 642Z" />
<glyph unicode="=" glyph-name="equal" horiz-adv-x="1165" d="M1005 916Q1032 916 1042 865Q1044 852 1044 841Q1044 830 1042 816Q1038 802 1034 790Q1024 762 1005 762H159Q130 762 120 814Q118 827 118 838Q118 884 133 900T159 916H1005ZM1005 543Q1032 543
1042 493Q1044 480 1044 469Q1044 457 1042 443Q1038 429 1034 417Q1024 389 1005 389H163Q134 389 124 441Q122 454 122 466Q122 477 124 490T132 516Q144 543 162 543H1005Z" />
<glyph unicode="&gt;" glyph-name="greater" horiz-adv-x="1074" d="M108 1068Q108 1125 146 1158Q158 1169 175 1174L966 731Q1019 701 1019 641Q1019 588 969 558L170 96Q108 120 108 196L744 642L108 1068Z" />
<glyph unicode="?" glyph-name="question" horiz-adv-x="947" d="M313 1360Q336 1319 336 1281Q336 1243 325 1218T295 1174Q254 1134 210 1134Q166 1134 140 1144Q115 1156 96 1174Q56 1213 56 1267Q56 1320 78 1356T136 1420T216 1468T307 1500Q397 1524 483
1525H485Q569 1525 646 1496Q724 1467 776 1418Q882 1319 883 1167Q883 1018 766 896Q714 842 650 793L521 692V445Q521 400 458 386Q440 382 420 382Q326 382 326 445V715Q362 748 402 778L479 838Q569 911 603 960Q666 1053 666 1147Q666 1248 603 1310Q541 1370
437 1371Q356 1371 313 1360ZM302 38T292 63T281 119Q281 149 291 174T321 218Q363 258 407 259H410Q451 259 476 248Q501 236 520 218Q561 178 561 134Q561 89 550 64T520 20Q479 -20 435 -20Q391 -20 366 -10T321 19Z" />
<glyph unicode="@" glyph-name="at" horiz-adv-x="1843" d="M929 1024Q1029 1024 1162 987L1202 1038Q1208 1040 1214 1040H1229Q1288 1040 1333 1004Q1346 994 1352 981L1297 766V189Q1297 154 1306 145Q1320 130 1359 130Q1398 130 1439 155T1516 230Q1598 348
1598 509Q1598 669 1553 791T1422 1005Q1238 1201 930 1201Q620 1200 431 1006Q233 803 233 448Q234 162 416 -17Q602 -200 887 -200Q1172 -200 1348 -84Q1394 -104 1424 -168Q1432 -186 1435 -202Q1218 -350 912 -350Q522 -350 298 -140Q68 76 68 459Q68 857 317
1109Q473 1267 698 1326Q809 1355 964 1355Q1119 1355 1272 1292T1534 1118Q1760 887 1760 529Q1760 304 1631 148Q1500 -11 1302 -11H1299Q1196 -11 1156 41Q1142 59 1132 85Q1049 18 921 -10Q875 -20 826 -20Q460 -20 460 512Q460 740 598 885Q730 1024 929 1024ZM867
134Q982 134 1102 234V805Q1019 870 914 870Q756 870 690 686Q665 616 665 512Q665 407 681 336T724 219Q775 134 867 134Z" />
<glyph unicode="A" glyph-name="A" horiz-adv-x="1424" d="M13 0Q-12 0 -12 57Q-12 109 12 133Q20 141 48 141Q122 141 145 198L654 1505Q662 1525 693 1525Q760 1525 768 1505L1301 141H1418Q1444 141 1444 81Q1444 31 1430 16T1405 0H920Q895 0 895 55Q895 107
910 124T936 141Q1060 141 1060 165Q1060 174 1052 190L933 499H426L287 141H459Q485 141 485 83Q485 31 472 16T449 0H13ZM485 653H874L681 1157L485 653Z" />
<glyph unicode="B" glyph-name="B" horiz-adv-x="1329" d="M678 -10L427 0H125Q100 0 100 57Q100 106 128 134Q136 142 159 142H163Q167 141 171 141Q194 141 218 144Q247 146 263 151Q291 160 291 184V1348Q291 1364 278 1364H115Q86 1364 76 1418Q74 1432 74
1446Q74 1505 100 1505H614Q1157 1505 1157 1137Q1157 1023 1075 932Q996 845 881 814Q1050 790 1150 690Q1249 590 1249 438Q1249 120 933 23Q825 -10 678 -10ZM502 298Q502 219 541 182T675 144Q768 144 832 158T937 206Q1016 271 1016 437Q1016 580 884 662Q771
733 610 733H502V298ZM655 887Q841 887 901 1005Q924 1050 924 1123Q924 1196 896 1242T814 1312Q727 1351 502 1351V887H655Z" />
<glyph unicode="C" glyph-name="C" horiz-adv-x="1274" d="M925 1335Q866 1371 770 1371Q674 1371 594 1332Q516 1293 458 1221Q336 1068 335 823Q335 316 584 186Q663 144 745 144Q746 144 747 145Q829 145 877 158T965 189T1034 228Q1092 268 1107 268Q1121
268 1135 257T1161 230Q1188 195 1188 169Q1188 142 1170 126T1113 84T1018 35Q883 -20 741 -20Q599 -20 486 24Q374 69 288 162Q102 364 102 734Q102 1120 296 1330Q476 1525 774 1525H777Q934 1525 1065 1449Q1210 1365 1210 1241Q1210 1177 1166 1131Q1123 1087
1057 1087Q992 1087 948 1131Q903 1176 903 1237Q903 1297 925 1335Z" />
<glyph unicode="D" glyph-name="D" horiz-adv-x="1517" d="M73 1442Q73 1505 99 1505H681Q1076 1505 1250 1315Q1412 1138 1413 758V755Q1413 375 1184 176Q982 1 681 0H128Q101 0 101 57Q101 103 127 133Q134 141 161 141Q187 141 216 144Q246 146 262 151Q290
160 290 184V1350Q290 1364 278 1364H114Q86 1364 76 1416Q74 1430 73 1442ZM501 154H648Q862 154 1012 293Q1180 450 1180 723Q1180 1191 888 1312Q794 1351 673 1351H501V154Z" />
<glyph unicode="E" glyph-name="E" horiz-adv-x="1288" d="M964 516T892 516Q820 516 820 543V694H501V154H1031L1107 303Q1117 322 1145 322Q1172 322 1187 319T1214 311Q1241 300 1241 281Q1241 276 1240 274L1148 0H128Q101 0 101 59Q102 110 126 134Q134 142
158 142H161Q165 141 170 141Q193 141 217 144Q246 146 262 151Q290 160 290 184V1350Q290 1364 278 1364H114Q86 1364 76 1416Q74 1430 73 1442Q73 1505 99 1505H1199V1214Q1199 1180 1129 1180Q1058 1180 1058 1202Q1058 1286 1036 1310Q997 1351 894 1351H501V848H755Q801
848 809 870Q822 902 822 999Q822 1022 882 1022Q934 1022 949 1008T964 985V557Q964 516 892 516Z" />
<glyph unicode="F" glyph-name="F" horiz-adv-x="1236" d="M964 516T892 516Q820 516 820 543V694H501V141H716Q742 141 742 80Q742 32 727 16T701 0H128Q101 0 101 59Q102 110 126 134Q134 142 158 142H161Q165 141 170 141Q193 141 217 144Q246 146 262 151Q290
160 290 184V1350Q290 1364 278 1364H114Q86 1364 76 1416Q74 1430 73 1442Q73 1505 99 1505H1199V1214Q1199 1180 1129 1180Q1058 1180 1058 1202Q1058 1286 1036 1310Q997 1351 894 1351H501V848H755Q801 848 809 870Q822 902 822 999Q822 1022 882 1022Q934
1022 949 1008T964 985V557Q964 516 892 516Z" />
<glyph unicode="G" glyph-name="G" horiz-adv-x="1363" d="M1279 632Q1304 632 1304 562Q1304 491 1269 491H1198V147Q1114 75 1044 44Q897 -20 721 -20Q554 -20 411 74Q190 220 122 520Q100 620 100 777Q100 934 152 1082Q203 1232 293 1330Q471 1525 770 1525H778Q961
1525 1091 1450Q1233 1369 1233 1241Q1232 1177 1188 1131Q1145 1087 1080 1087Q1015 1087 971 1131Q926 1176 926 1238Q926 1299 942 1336Q865 1371 769 1371Q672 1371 592 1332Q514 1293 456 1221Q334 1068 333 823V819Q333 315 580 186Q659 144 770 144Q772
144 773 145Q886 145 987 186V475Q987 491 974 491H811Q782 492 772 546Q770 560 770 573Q770 632 796 632H1279Z" />
<glyph unicode="H" glyph-name="H" horiz-adv-x="1612" d="M669 141Q695 141 695 80Q695 32 680 16T654 0H122Q99 0 99 57V60Q99 107 126 134Q134 142 158 142H161Q165 141 170 141Q193 141 217 144Q246 146 262 151Q290 160 290 184V1348Q290 1364 277 1364H114Q86
1364 76 1417Q74 1431 73 1444Q73 1505 99 1505H691Q716 1505 716 1435Q716 1364 681 1364H501V848H1111V1348Q1111 1364 1099 1364H935Q906 1364 896 1417Q894 1431 894 1444Q894 1505 921 1505H1512Q1537 1505 1537 1435Q1537 1364 1502 1364H1322V141H1490Q1517
141 1517 80Q1517 31 1502 16T1476 0H945Q921 0 921 57Q921 108 948 134Q956 142 980 142H983Q987 141 992 141Q1015 141 1039 144Q1067 146 1083 151Q1111 160 1111 184V694H501V141H669Z" />
<glyph unicode="I" glyph-name="I" horiz-adv-x="791" d="M670 141Q696 141 696 80Q696 32 681 16T655 0H123Q100 0 100 57Q100 106 128 134Q136 142 159 142H163Q167 141 171 141Q194 141 218 144Q247 146 263 151Q291 160 291 184V1348Q291 1364 278 1364H115Q86
1364 76 1418Q74 1432 74 1446Q74 1505 100 1505H692Q717 1505 717 1435Q717 1364 682 1364H502V141H670Z" />
<glyph unicode="J" glyph-name="J" horiz-adv-x="756" d="M674 1505Q699 1505 699 1435Q699 1364 664 1364H484V68Q484 -119 384 -271Q314 -375 206 -418Q150 -440 103 -440Q55 -440 30 -430Q4 -420 -14 -402Q-53 -363 -53 -306V-303Q-53 -208 30 -174Q55 -164
84 -164Q159 -164 201 -231Q273 -186 273 0V1348Q273 1364 260 1364H97Q68 1364 58 1418Q56 1432 56 1446Q56 1505 82 1505H674Z" />
<glyph unicode="K" glyph-name="K" horiz-adv-x="1487" d="M670 141Q696 141 696 80Q696 32 681 16T655 0H123Q100 0 100 57Q100 106 128 134Q136 142 159 142H163Q167 141 171 141Q194 141 218 144Q247 146 263 151Q291 160 291 184V1348Q291 1364 278 1364H115Q86
1364 76 1418Q74 1432 74 1446Q74 1505 100 1505H640Q665 1505 665 1435Q665 1364 630 1364H502V141H670ZM1460 141Q1484 141 1484 76Q1484 29 1470 15T1445 0H1275Q1206 0 1136 62Q1116 80 1100 102L569 796L1094 1364H962Q936 1364 936 1422Q936 1474 949 1489T972
1505H1409Q1434 1505 1434 1448Q1434 1396 1410 1372Q1402 1364 1386 1364Q1369 1364 1352 1361T1323 1351Q1303 1341 1285 1321L828 803L1268 230Q1303 184 1346 163T1460 141Z" />
<glyph unicode="L" glyph-name="L" horiz-adv-x="1183" d="M691 1505Q716 1505 716 1435Q716 1364 681 1364H501V154H970L1047 303Q1057 322 1085 322Q1112 322 1127 319T1154 311Q1182 299 1182 281Q1182 276 1181 274L1088 0H122Q99 0 99 59V62Q99 107 126 134Q134
142 158 142H161Q165 141 170 141Q193 141 217 144Q246 146 262 151Q290 160 290 184V1348Q290 1364 277 1364H114Q86 1364 76 1418Q74 1432 74 1444Q73 1446 73 1449Q73 1458 75 1466Q76 1476 79 1484Q86 1504 99 1505H691Z" />
<glyph unicode="M" glyph-name="M" horiz-adv-x="1969" d="M612 141Q638 141 638 80Q638 32 623 16T597 0H125Q100 0 100 57Q100 106 128 134Q136 142 159 142H163Q167 141 171 141Q194 141 218 144Q247 146 263 151Q291 160 291 184V1348Q291 1364 278 1364H115Q86
1364 76 1418Q74 1432 74 1446Q74 1505 100 1505H398Q426 1505 439 1476L988 320L1469 1485Q1478 1505 1495 1505H1870Q1895 1505 1895 1435Q1895 1364 1860 1364H1680V141H1848Q1874 141 1874 80Q1874 32 1859 16T1833 0H1303Q1278 0 1278 57Q1278 106 1306 134Q1314
142 1337 142H1341Q1345 141 1349 141Q1372 141 1396 144Q1425 146 1441 151Q1469 160 1469 184V1119L1020 0Q1008 -12 980 -12Q926 -12 905 0L445 1023V141H612Z" />
<glyph unicode="N" glyph-name="N" horiz-adv-x="1667" d="M74 1446Q74 1505 100 1505H448L1241 345V1348Q1241 1364 1228 1364H1065Q1036 1364 1026 1418Q1024 1432 1024 1446Q1024 1505 1050 1505H1584Q1609 1505 1609 1435Q1609 1364 1574 1364H1395V-2Q1395
-20 1321 -20Q1250 -20 1239 -2L445 1127V141H613Q640 141 640 80Q640 30 625 15T598 0H125Q100 0 100 57Q100 106 128 134Q136 142 159 142H163Q167 141 171 141Q194 141 218 144Q247 146 263 151Q291 160 291 184V1348Q291 1364 278 1364H115Q86 1364 76 1418Q74
1432 74 1446Z" />
<glyph unicode="O" glyph-name="O" horiz-adv-x="1501" d="M734 -20Q602 -20 488 24Q374 69 288 161Q102 361 102 731Q102 1117 294 1328Q473 1525 774 1525Q1077 1524 1239 1310Q1398 1100 1398 716Q1398 350 1198 154Q1022 -20 734 -20ZM581 187Q661 145 753
145Q844 145 917 175Q990 206 1046 274Q1168 423 1168 729Q1168 994 1046 1176Q922 1360 741 1360Q566 1360 452 1215Q332 1064 332 823Q332 318 581 187Z" />
<glyph unicode="P" glyph-name="P" horiz-adv-x="1221" d="M724 141Q750 141 750 80Q750 32 735 16T709 0H123Q99 0 99 56V59Q99 107 126 134Q134 142 158 142H161Q165 141 170 141Q193 141 217 144Q246 146 262 151Q290 160 290 184V1349Q290 1364 277 1364H114Q86
1364 76 1418Q74 1432 73 1446Q73 1505 100 1505H656Q887 1504 1023 1394Q1160 1283 1160 1090Q1160 629 501 629V141H724ZM501 783Q711 784 805 834Q927 899 927 1064V1067Q927 1233 828 1294Q736 1351 501 1351V783Z" />
<glyph unicode="Q" glyph-name="Q" horiz-adv-x="1502" d="M1360 -439Q997 -439 740 -20H732Q456 -20 288 162Q103 362 103 727V731Q103 1117 295 1328Q474 1525 775 1525Q1078 1524 1240 1310Q1399 1100 1399 716Q1399 306 1157 116Q1083 58 996 25Q1161 -285
1388 -285Q1496 -285 1636 -201Q1643 -197 1654 -197Q1664 -197 1678 -206Q1694 -216 1706 -231Q1734 -265 1734 -296Q1734 -327 1712 -342T1657 -374Q1624 -392 1579 -406Q1478 -439 1367 -439H1360ZM582 187Q662 145 754 145Q845 145 918 175Q991 206 1047 274Q1169
423 1169 729Q1168 994 1046 1176Q922 1360 742 1360Q566 1360 452 1215Q333 1065 333 827V823Q333 318 582 187Z" />
<glyph unicode="R" glyph-name="R" horiz-adv-x="1355" d="M724 141Q750 141 750 80Q750 32 735 16T709 0H123Q99 0 99 56V59Q99 107 126 134Q134 142 158 142H161Q165 141 170 141Q193 141 217 144Q246 146 262 151Q290 160 290 184V1349Q290 1364 277 1364H114Q86
1364 76 1418Q74 1432 73 1446Q73 1505 100 1505H656Q887 1504 1023 1394Q1160 1283 1160 1090Q1160 788 869 682L1149 230Q1179 181 1225 161T1341 141Q1365 141 1365 76Q1365 29 1351 15T1326 0H1156Q1080 0 1015 60Q995 78 981 102L653 636Q590 629 501 629V141H724ZM501
783Q711 784 805 834Q927 899 927 1064V1067Q927 1233 828 1294Q736 1351 501 1351V783Z" />
<glyph unicode="S" glyph-name="S" horiz-adv-x="1177" d="M362 169Q427 134 523 134Q619 134 677 152Q734 168 776 200Q864 267 865 377V378Q865 504 660 622Q602 656 534 689L391 762Q118 906 118 1147Q118 1332 268 1434Q402 1525 609 1525H618Q772 1525 904
1456Q1062 1375 1062 1241Q1062 1177 1018 1131Q975 1087 909 1087Q844 1087 800 1131Q755 1176 755 1241Q755 1294 784 1335Q725 1371 643 1371Q560 1371 506 1356Q452 1342 412 1314Q330 1257 329 1151V1149Q329 1071 416 1008Q458 976 520 944L655 874Q876 764
965 671Q1076 556 1076 395Q1076 211 932 96T567 -20Q397 -20 252 51Q83 134 83 260Q83 326 128 371T237 416Q302 416 346 371Q390 325 390 272Q390 219 362 169Z" />
<glyph unicode="T" glyph-name="T" horiz-adv-x="1275" d="M910 141Q937 141 937 74Q937 31 922 16T896 0H365Q341 0 341 57Q341 108 368 134Q376 142 400 142H403Q407 141 412 141Q435 141 459 144Q488 146 504 151Q531 159 531 184V1351H196L152 1203Q143 1177
102 1177Q52 1178 26 1208Q18 1218 18 1228V1232L56 1505H1217L1255 1232V1228Q1255 1192 1200 1180Q1188 1177 1175 1177H1169Q1130 1177 1121 1203L1077 1351H742V141H910Z" />
<glyph unicode="U" glyph-name="U" horiz-adv-x="1545" d="M1291 555Q1291 -20 772 -20Q492 -20 370 132Q258 271 258 569V1348Q258 1364 245 1364H82Q54 1364 44 1418Q42 1432 41 1444Q41 1505 67 1505H639Q664 1505 664 1435Q664 1364 629 1364H469V578Q469
237 663 167Q724 145 804 145Q884 145 946 170T1048 249Q1126 352 1126 575V1348Q1126 1364 1113 1364H969Q940 1364 930 1418Q928 1432 928 1446Q928 1505 954 1505H1470Q1496 1505 1496 1441Q1496 1393 1483 1379T1460 1364H1291V555Z" />
<glyph unicode="V" glyph-name="V" horiz-adv-x="1426" d="M1412 1505Q1437 1505 1437 1448Q1437 1396 1413 1372Q1404 1364 1376 1364Q1300 1364 1280 1307L777 0Q769 -20 716 -20Q667 -20 657 0L117 1364H7Q-19 1364 -19 1424Q-19 1473 -5 1489T20 1505H505Q530
1505 530 1450Q530 1397 515 1381T489 1364Q365 1364 365 1340Q365 1331 373 1315L744 348L1119 1364H966Q940 1364 940 1422Q940 1474 953 1489T976 1505H1412Z" />
<glyph unicode="W" glyph-name="W" horiz-adv-x="2059" d="M2023 1505Q2048 1505 2048 1448Q2048 1396 2024 1372Q2016 1364 1988 1364Q1914 1364 1891 1307L1481 0Q1475 -20 1440 -20Q1369 -20 1361 0L1030 848L753 0Q747 -20 698 -20Q649 -20 639 0L98 1364H-11Q-37
1364 -37 1424Q-37 1473 -23 1489T2 1505H487Q512 1505 512 1450Q512 1397 497 1381T471 1364Q347 1364 347 1340Q347 1331 355 1315L715 376L944 1067L828 1364H711Q685 1364 685 1424Q685 1473 699 1489T724 1505H1209Q1234 1505 1234 1450Q1234 1397 1219 1381T1193
1364Q1069 1364 1069 1340Q1069 1331 1077 1315L1436 376L1733 1364H1577Q1551 1364 1551 1422Q1551 1474 1564 1489T1587 1505H2023Z" />
<glyph unicode="X" glyph-name="X" horiz-adv-x="1383" d="M1344 141Q1370 141 1370 80Q1370 32 1355 16T1329 0H801Q774 0 774 61Q774 108 802 134Q810 141 816 141H945L646 618L371 171Q364 161 364 154Q364 141 382 141H487Q513 141 513 81Q513 32 498 16T472
0H43Q17 0 17 61Q17 108 43 134Q50 141 71 141Q92 141 116 145T158 158Q186 170 205 196L554 765L179 1364H57Q30 1364 30 1422Q30 1472 44 1488T69 1505H580Q603 1505 603 1448Q603 1395 588 1380T561 1364Q450 1364 450 1342Q450 1335 459 1317L716 906L1034
1364H869Q843 1364 843 1423Q843 1474 856 1489T879 1505H1320Q1344 1505 1344 1447Q1344 1396 1329 1380T1304 1364Q1232 1364 1194 1321L807 761L1156 204Q1190 148 1290 142Q1309 141 1327 141H1344Z" />
<glyph unicode="Y" glyph-name="Y" horiz-adv-x="1284" d="M268 0Q243 0 243 57V60Q243 107 270 134Q277 141 284 141H435Q526 141 540 166Q544 174 544 184V559L107 1364H-5Q-31 1364 -31 1424Q-31 1473 -17 1489T8 1505H501Q526 1505 526 1448Q526 1396 511
1380T485 1364Q379 1364 379 1329Q379 1319 385 1307L670 735L986 1364H830Q804 1364 804 1422Q804 1474 817 1489T840 1505H1276Q1301 1505 1301 1448Q1301 1396 1277 1372Q1268 1364 1240 1364Q1174 1364 1152 1321L755 559V141H1000Q1026 141 1026 80Q1026 32
1011 16T985 0H268Z" />
<glyph unicode="Z" glyph-name="Z" horiz-adv-x="1280" d="M80 75L902 1351H258L214 1203Q205 1177 164 1177Q114 1178 88 1208Q80 1218 80 1228V1232L118 1505H1202L1199 1437L374 154H1000L1077 303Q1087 322 1115 322Q1142 322 1157 319T1184 311Q1212 299
1212 281Q1212 276 1211 274L1118 0H80V75Z" />
<glyph unicode="[" glyph-name="bracketleft" horiz-adv-x="654" d="M614 -19Q644 -19 644 -89Q644 -160 614 -160H185V1671H614Q647 1671 647 1601Q647 1530 614 1530H380V-19H614Z" />
<glyph unicode="\" glyph-name="backslash" horiz-adv-x="913" d="M41 1606Q41 1638 116 1638Q157 1638 206 1606L879 -141Q879 -170 804 -170Q747 -170 707 -141L41 1606Z" />
<glyph unicode="]" glyph-name="bracketright" horiz-adv-x="654" d="M40 1530Q7 1530 7 1601Q7 1671 40 1671H469V-160H40Q10 -160 10 -89Q10 -19 40 -19H274V1530H40Z" />
<glyph unicode="^" glyph-name="asciicircum" horiz-adv-x="1180" d="M135 834Q59 834 59 920L512 1409Q542 1444 576 1444Q626 1444 659 1409L1118 918Q1118 880 1098 857T1042 834L580 1239L135 834Z" />
<glyph unicode="_" glyph-name="underscore" horiz-adv-x="1178" d="M1178 -164V-287H0V-164H1178Z" />
<glyph unicode="`" glyph-name="grave" horiz-adv-x="1065" d="M211 1423Q211 1532 301 1570Q326 1581 355 1581H360L633 1296Q632 1253 612 1230Q576 1188 535 1188L211 1423Z" />
<glyph unicode="a" glyph-name="a" horiz-adv-x="1045" d="M378 880Q390 854 390 821Q390 788 380 763Q368 738 350 720Q312 682 253 681Q160 681 126 763Q116 788 116 825Q116 861 137 893T192 948T270 985T359 1007Q438 1021 532 1021Q625 1021 693 991T802
910Q871 821 871 658V141H1039Q1066 141 1066 82Q1066 56 1056 31T1025 0Q969 -16 865 -16Q760 -16 748 -13T726 0Q707 17 688 69Q566 -20 394 -20Q240 -20 152 62Q69 138 69 261V264Q69 417 182 503Q281 579 429 579H676Q676 746 649 794T583 861T480 880H378ZM430
134Q556 134 676 234V429H458Q378 429 340 402Q271 354 271 291Q271 173 369 143Q398 134 430 134Z" />
<glyph unicode="b" glyph-name="b" horiz-adv-x="1099" d="M342 207Q437 140 530 140Q721 140 786 322Q812 394 812 503Q812 612 787 678Q762 742 725 780Q659 846 565 847Q478 847 396 798Q366 780 342 753V207ZM342 939Q480 1021 589 1021Q697 1021 772 986Q848
950 902 884Q1017 744 1017 510V502Q1017 261 878 119Q748 -14 542 -14Q462 -14 362 46Q338 60 321 69L251 -16Q241 -22 226 -22Q196 -22 147 2Q104 23 102 44L147 225V1409H-29Q-58 1409 -68 1461Q-70 1475 -70 1491Q-70 1535 -44 1545T27 1563T120 1574Q213 1582
297 1583Q340 1583 342 1498V939Z" />
<glyph unicode="c" glyph-name="c" horiz-adv-x="1004" d="M655 880H562Q458 880 383 801Q287 700 287 510Q287 232 442 158Q491 134 542 134Q593 134 634 145T714 174Q754 191 790 213L861 256Q865 259 875 259Q884 259 898 248T924 220Q950 182 950 157Q950
132 939 123Q748 -20 523 -20Q314 -20 196 125Q82 265 82 510Q82 750 227 890Q363 1020 574 1021Q800 1020 887 922Q920 884 920 841Q920 798 910 773Q898 748 880 730Q840 691 783 691Q726 691 686 730Q646 768 646 806Q646 844 655 880Z" />
<glyph unicode="d" glyph-name="d" horiz-adv-x="1147" d="M1122 141Q1148 141 1148 80Q1148 35 1133 18T1111 1T1083 -2T1030 -8Q943 -16 895 -16Q846 -16 832 -12Q818 -9 808 0Q789 16 770 69Q648 -20 483 -20Q289 -20 184 126Q83 266 83 512V515Q83 755 232
894Q368 1021 583 1021Q684 1021 759 1001V1409H583Q554 1409 544 1458Q542 1472 542 1488Q542 1536 569 1546T640 1563T732 1574Q824 1582 909 1583H910Q952 1583 954 1498V141H1122ZM510 134Q639 134 759 234V802Q676 867 571 867Q384 867 314 686Q288 617 288
512Q288 407 309 336T362 219Q424 134 510 134Z" />
<glyph unicode="e" glyph-name="e" horiz-adv-x="1041" d="M81 514Q81 638 122 734Q162 828 230 892Q368 1020 571 1021H574Q760 1021 861 904Q962 788 962 569Q962 522 919 488Q877 455 813 455H286Q304 221 449 155Q495 134 546 134Q597 134 637 145T714 174T786
214Q859 260 872 260Q884 259 898 248Q910 236 922 220Q948 182 949 156V154Q949 130 938 122Q755 -20 522 -20Q313 -20 196 126Q81 268 81 514ZM757 605V609Q757 807 642 853Q606 867 562 867Q518 867 470 851Q422 834 382 802Q293 729 286 605H757Z" />
<glyph unicode="f" glyph-name="f" horiz-adv-x="792" d="M93 0Q66 0 66 61Q66 109 81 125T107 141H117Q233 141 249 164Q255 172 255 184V847H64Q64 957 77 979T107 1001H117Q233 1001 249 1024Q255 1032 255 1044V1170Q255 1458 434 1549Q500 1583 569 1583Q638
1583 676 1576T744 1550Q814 1507 814 1417Q814 1358 774 1318Q736 1280 677 1280Q584 1280 550 1362Q540 1387 540 1417V1449H539Q458 1449 452 1280Q450 1232 450 1184V1001H719Q744 1001 744 942Q744 884 720 856Q713 847 701 847H450V141H676Q703 141 703 80Q703
32 688 16T662 0H93Z" />
<glyph unicode="g" glyph-name="g" horiz-adv-x="1130" d="M826 892Q902 806 902 712Q902 618 865 551T766 439Q643 348 468 348Q429 348 393 354Q359 312 359 278Q359 244 393 220T485 195H688Q884 195 970 110Q1037 44 1037 -82Q1037 -218 909 -320Q758 -440
493 -440Q276 -440 156 -342Q106 -301 85 -255T63 -166Q63 -123 77 -84T116 -12Q140 22 171 52L235 117Q223 132 211 146Q199 160 190 176Q169 214 169 267Q169 319 253 408Q185 453 147 523T108 681Q108 768 146 831T246 936Q365 1016 528 1016Q587 1016 645 1001H1011Q1101
1001 1122 940Q1128 922 1128 901Q1128 880 1119 861T1096 830Q1066 804 1030 804Q1028 803 1027 803Q993 803 976 814Q960 825 942 840Q894 881 826 892ZM258 -137Q258 -286 499 -286Q634 -286 732 -229Q842 -166 842 -72Q842 7 734 35Q696 45 641 45H369L335
8Q258 -76 258 -137ZM319 599T367 551T477 502Q539 502 576 519T640 566Q691 625 691 712V715Q691 784 642 834Q592 886 532 886Q472 886 435 872Q398 858 372 832Q318 778 318 690Q318 689 319 689Q319 599 367 551Z" />
<glyph unicode="h" glyph-name="h" horiz-adv-x="1249" d="M747 141Q851 141 851 184V481Q851 673 829 729T773 809T679 833Q545 833 405 721V141H573Q599 141 599 80Q599 32 584 16T558 0H48Q22 0 22 61Q22 109 37 125T63 141H73Q189 141 204 164Q210 172 210
184V1409H34Q6 1410 -4 1460Q-6 1474 -7 1489Q-7 1535 20 1545T91 1563Q136 1570 184 1574Q276 1582 360 1583Q402 1583 404 1498Q404 1473 405 1446V911Q534 985 664 1013Q702 1021 726 1021Q922 1021 992 919Q1046 841 1046 643V141H1202Q1228 141 1228 80Q1228
32 1213 16T1187 0H733Q706 0 706 61Q706 109 721 125T747 141Z" />
<glyph unicode="i" glyph-name="i" horiz-adv-x="662" d="M327 1272Q234 1272 200 1354Q190 1379 190 1409Q190 1504 273 1538Q298 1548 327 1548Q385 1548 424 1509T464 1409Q464 1350 424 1310Q386 1272 327 1272ZM89 0Q63 0 63 61Q63 109 78 125T104 141H114Q231
141 246 164Q251 171 251 181V847H75Q46 848 36 898Q34 912 34 927Q34 973 61 983T132 1001T224 1012Q316 1020 401 1021H402Q444 1021 446 936V141H614Q640 141 640 80Q640 32 625 16T599 0H89Z" />
<glyph unicode="j" glyph-name="j" horiz-adv-x="568" d="M144 -231Q234 -231 234 0V847H58Q28 848 20 896Q18 910 17 925Q17 971 43 982Q148 1021 384 1021H385Q426 1021 428 936Q428 912 429 884V68Q429 -123 337 -271Q232 -440 45 -440Q-48 -440 -82 -358Q-92
-333 -92 -303Q-92 -208 -9 -174Q16 -164 45 -164Q118 -164 144 -231ZM310 1272Q216 1272 182 1354Q172 1379 172 1409Q172 1504 256 1538Q282 1548 310 1548Q368 1548 407 1509T447 1409V1406Q447 1349 408 1310Q370 1272 310 1272Z" />
<glyph unicode="k" glyph-name="k" horiz-adv-x="1209" d="M48 0Q22 0 22 61Q22 109 37 125T63 141H73Q189 141 204 164Q210 172 210 184V1409H34Q6 1410 -4 1460Q-6 1474 -7 1489Q-7 1535 20 1545T91 1563Q136 1570 184 1574Q276 1582 360 1583Q402 1583 404
1498Q404 1473 405 1446V141H510Q537 141 537 80Q537 31 522 16T496 0H48ZM1154 141Q1181 141 1181 78Q1181 32 1166 16T1140 0H879L417 600L820 1001H1032Q1060 1001 1070 949Q1072 935 1072 922Q1072 860 1046 860Q949 860 914 846T863 815L644 593L994 208Q1054
141 1154 141Z" />
<glyph unicode="l" glyph-name="l" horiz-adv-x="621" d="M48 0Q22 0 22 61Q22 109 37 125T63 141H73Q189 141 204 164Q210 172 210 184V1409H34Q6 1410 -4 1460Q-6 1474 -7 1489Q-7 1535 20 1545T91 1563Q136 1570 184 1574Q276 1582 360 1583Q402 1583 404 1498Q404
1473 405 1446V141H573Q599 141 599 80Q599 32 584 16T558 0H48Z" />
<glyph unicode="m" glyph-name="m" horiz-adv-x="1931" d="M1883 141Q1910 141 1910 71Q1910 0 1873 0H1414Q1388 0 1388 61Q1388 110 1412 134Q1419 141 1427 141H1429Q1533 141 1533 184V481Q1533 675 1511 735T1455 821T1361 847Q1250 847 1087 718V141H1242Q1269
141 1269 71Q1269 0 1228 0H773Q747 0 747 59V63Q747 109 772 134Q779 141 786 141H788Q892 141 892 184V481Q892 675 870 735T814 821T720 847Q609 847 446 718V141H614Q640 141 640 82Q640 33 625 17T599 0H91Q63 0 63 57Q63 109 78 125T104 141H114Q229 141
245 164Q251 172 251 184V847H75Q46 848 36 898Q34 912 34 924Q34 971 60 981T128 1000Q169 1008 214 1012Q304 1022 349 1022H353Q397 1021 406 1012Q416 1002 420 986Q425 969 425 915V896Q576 980 700 1011Q740 1021 767 1021Q952 1021 1033 880Q1188 970 1334
1009Q1378 1021 1441 1021Q1504 1021 1566 995T1664 918Q1728 830 1728 638V141H1883Z" />
<glyph unicode="n" glyph-name="n" horiz-adv-x="1290" d="M773 0Q747 0 747 61Q747 109 762 125T788 141Q892 141 892 184V481Q892 675 870 735T814 821T720 847Q609 847 446 718V141H614Q640 141 640 80Q640 32 625 16T599 0H89Q63 0 63 61Q63 109 78 125T104
141H114Q229 141 245 164Q251 172 251 184V847H75Q44 848 36 896Q34 910 34 925Q34 971 60 981T128 1000Q169 1008 214 1012Q304 1022 349 1022H353Q397 1021 406 1012Q416 1002 420 986Q425 969 425 915V896Q576 980 700 1011Q740 1021 802 1021Q863 1021 925
995T1023 918Q1087 830 1087 638V141H1242Q1269 141 1269 80Q1269 32 1254 16T1228 0H773Z" />
<glyph unicode="o" glyph-name="o" horiz-adv-x="1093" d="M517 -20Q410 -20 329 20Q248 60 192 132Q80 277 80 512Q80 758 232 896Q370 1021 580 1021H583Q779 1021 898 872Q1012 730 1012 504Q1012 252 872 112Q740 -20 517 -20ZM334 757T310 688T285 517Q285
415 304 344Q324 274 358 228Q427 134 549 134Q675 134 744 244Q807 344 807 506Q806 777 648 846Q600 867 551 867Q501 867 456 852T372 797Z" />
<glyph unicode="p" glyph-name="p" horiz-adv-x="1177" d="M63 -438Q36 -438 36 -377Q36 -329 51 -313T77 -297Q202 -297 219 -274Q225 -266 225 -254V847H48Q18 848 10 896Q8 910 7 926Q7 973 30 980T87 995T166 1008Q260 1021 316 1021Q371 1021 380 1016Q390
1012 394 1000Q399 988 399 941V924Q536 1002 618 1016Q648 1022 703 1022H712Q774 1021 849 986T979 884Q1095 744 1095 506Q1095 258 958 118Q829 -14 620 -14Q538 -14 450 31Q430 41 420 45V-297H642Q669 -297 669 -358Q669 -406 654 -422T628 -438H63ZM420
195Q489 140 608 140Q798 140 864 322Q890 394 890 503Q890 611 865 676T802 780Q736 847 642 847H639Q553 847 474 794Q444 774 420 746V195Z" />
<glyph unicode="q" glyph-name="q" d="M524 -439Q497 -439 497 -376Q497 -330 512 -314T538 -298H622Q738 -298 754 -274Q759 -267 759 -258V64Q692 9 566 -13Q526 -20 455 -20Q384 -20 309 18T184 126Q83 266 83 512V515Q83 755 232 894Q368 1021 581 1021Q686
1021 819 984L882 1066Q888 1068 894 1068H909Q968 1068 1013 1032Q1026 1022 1032 1009L954 763V-298H1118Q1144 -298 1144 -357Q1144 -407 1129 -423T1103 -439H524ZM759 234V802Q676 867 571 867Q384 867 314 686Q288 617 288 512Q288 407 311 336T369 219Q435
134 537 134Q639 134 759 234Z" />
<glyph unicode="r" glyph-name="r" horiz-adv-x="901" d="M423 947L422 907Q422 895 422 883T421 861Q538 968 656 1008Q694 1020 735 1021H737Q776 1021 807 1006Q839 990 858 968Q892 928 892 885Q892 841 881 816T850 773Q808 734 767 734Q725 734 703 745T664
775Q628 813 628 860Q570 833 540 798Q510 763 490 733L446 665V141H689Q712 141 712 80Q712 31 698 16T671 0H89Q61 0 61 63Q62 109 88 134Q96 141 123 141Q150 141 178 143T223 151Q251 160 251 184V843H75Q36 843 36 921Q36 971 61 982T128 1000Q170 1008 214
1012Q298 1020 347 1021H355Q396 1021 404 1016Q414 1012 418 1002Q423 992 423 959V947Z" />
<glyph unicode="s" glyph-name="s" horiz-adv-x="926" d="M347 134H461Q600 134 648 219Q662 245 662 276Q662 307 648 329T602 371Q555 400 446 433T279 491T180 550Q94 622 94 748Q94 933 301 997Q379 1021 455 1021Q530 1021 594 1011Q660 1001 712 977Q831
922 831 820V815Q831 759 792 720Q754 682 694 681Q600 681 566 763Q556 788 556 804Q556 820 568 880H469Q388 880 349 852Q278 803 278 744Q278 666 418 618L494 592Q687 528 742 483T822 385T847 264Q847 195 820 145Q794 94 746 58Q643 -20 478 -20Q332 -20
216 24Q130 56 94 116Q76 146 76 181Q76 215 86 240Q98 266 116 284Q155 322 214 322Q272 322 312 283Q352 245 352 197V196Q351 146 347 134Z" />
<glyph unicode="t" glyph-name="t" horiz-adv-x="731" d="M422 -20Q217 -20 217 257V847H27Q27 957 40 979T70 1001H80Q203 1001 228 1024Q238 1032 239 1044L282 1265Q294 1320 412 1320V1001H682Q707 1001 707 942Q706 884 682 856Q675 847 664 847H412V257Q412
145 478 145Q553 145 584 156T628 168Q639 168 650 161T670 141Q687 115 687 87Q687 57 668 48Q539 -20 422 -20Z" />
<glyph unicode="u" glyph-name="u" horiz-adv-x="1234" d="M834 96Q675 -20 547 -20Q295 -20 223 182Q199 249 199 338V847H58Q21 847 21 923Q21 973 41 978Q209 1021 348 1021Q392 1021 394 941V411Q394 216 494 178Q524 166 569 166Q613 166 653 176T726 200Q756
215 780 232L823 264V847H686Q645 847 645 921Q645 968 671 978T736 997Q774 1004 815 1010Q893 1020 940 1021H943Q986 1021 996 1010Q1008 1000 1012 982Q1018 957 1018 894V141H1186Q1213 141 1213 76Q1213 6 1172 0Q1070 -16 990 -16Q910 -16 896 -8Q882 0
872 14Q856 36 834 96Z" />
<glyph unicode="v" glyph-name="v" horiz-adv-x="1096" d="M1067 1001Q1092 1001 1092 944Q1092 892 1068 868Q1060 860 1044 860Q1027 860 1012 858Q998 856 988 850Q972 841 963 817L629 0Q622 -18 590 -19Q558 -20 542 -20Q486 -20 477 0L142 860H30Q4 860
4 920Q4 969 18 985T43 1001H477Q502 1001 502 944Q502 892 487 876T461 860Q373 860 373 817L571 268L813 860H682Q656 860 656 918Q656 970 669 985T692 1001H1067Z" />
<glyph unicode="w" glyph-name="w" horiz-adv-x="1563" d="M1531 1001Q1555 1001 1555 931Q1555 860 1515 860Q1452 860 1436 836Q1430 828 1427 817L1183 0Q1176 -20 1115 -20Q1043 -20 1036 0L801 587L562 0Q555 -17 525 -18T485 -20H462Q448 -20 436 -18Q406
-14 403 0L162 860H33Q8 860 8 921Q8 969 23 985T47 1001H481Q506 1001 506 944Q506 892 491 876T465 860Q377 860 377 817L513 216L762 906Q771 925 812 925Q856 925 864 907L1118 202L1277 860H1146Q1120 860 1120 919Q1120 968 1133 984T1156 1001H1531Z" />
<glyph unicode="x" glyph-name="x" horiz-adv-x="1174" d="M1113 141Q1139 141 1139 80Q1139 32 1124 16T1098 0H673Q646 0 646 61Q646 108 674 134Q682 141 688 141H771L550 415L374 171Q367 161 367 154Q367 141 385 141H442Q468 141 468 81Q468 32 453 16T427
0H61Q35 0 35 61Q35 108 61 134Q68 141 99 141Q130 141 166 158T219 196L465 520L192 860H70Q43 860 43 918Q43 968 57 984T82 1001H519Q542 1001 542 944Q542 891 527 876T500 860Q436 860 436 842Q436 835 443 826L633 588L836 860H712Q686 860 686 919Q686 970
699 985T722 1001H1106Q1130 1001 1130 943Q1130 892 1115 876T1090 860Q1014 860 980 817L715 486L945 197Q986 148 1064 142Q1080 141 1097 141H1113Z" />
<glyph unicode="y" glyph-name="y" horiz-adv-x="1098" d="M1069 1001Q1094 1001 1094 944Q1094 892 1070 868Q1062 860 1046 860Q1029 860 1014 858Q1000 856 990 850Q974 841 965 817L543 -260Q511 -343 439 -391T262 -440Q122 -440 66 -348Q46 -314 46 -275Q45
-273 45 -272Q45 -235 56 -210Q66 -184 84 -166Q124 -126 171 -126H173Q221 -127 247 -140Q272 -154 288 -176Q316 -217 317 -286Q349 -286 372 -250T413 -173T443 -96T464 -31T476 6L144 860H32Q6 860 6 920Q6 969 20 985T45 1001H479Q504 1001 504 944Q504 893
489 877T463 860Q375 860 375 817L578 223L815 860H684Q658 860 658 918Q658 970 671 985T694 1001H1069Z" />
<glyph unicode="z" glyph-name="z" horiz-adv-x="1007" d="M75 736Q75 739 79 759L123 1001H923V890L354 150H769L816 259Q826 280 851 280Q876 280 890 277Q902 274 914 268Q940 256 940 238Q940 233 939 231L867 0H89V110L658 851H265L235 741Q224 699 150 699Q75
699 75 736Z" />
<glyph unicode="{" glyph-name="braceleft" horiz-adv-x="667" d="M637 -19Q665 -19 665 -89Q665 -160 637 -160H473Q334 -160 272 -94Q206 -23 206 150V471Q206 547 189 568Q162 601 91 611Q62 615 62 683Q62 744 91 750Q161 760 178 782Q206 817 206 891V1352Q206
1603 356 1654Q406 1671 473 1671H637Q665 1671 665 1602Q665 1530 637 1530H558Q458 1530 426 1482Q401 1445 401 1346V901Q401 777 304 716Q270 694 221 682Q401 630 401 457V148Q401 56 420 30Q455 -19 558 -19H637Z" />
<glyph unicode="|" glyph-name="bar" horiz-adv-x="516" d="M335 -455Q335 -483 258 -483Q181 -483 181 -455V1608Q181 1636 258 1636Q335 1636 335 1608V-455Z" />
<glyph unicode="}" glyph-name="braceright" horiz-adv-x="667" d="M2 1602Q2 1671 30 1671H198Q331 1671 394 1600Q460 1526 461 1352V883Q461 815 478 795Q506 760 576 750Q605 744 605 683Q605 641 595 627T562 609T518 598Q494 590 482 574Q461 548 461 478V150Q461
-100 311 -145Q261 -160 194 -160H30Q2 -160 2 -89Q2 -19 30 -19H114Q211 -19 242 24Q266 57 266 157V457Q266 629 446 682Q266 727 266 903V1346Q266 1446 246 1476Q209 1530 109 1530H30Q2 1530 2 1602Z" />
<glyph unicode="~" glyph-name="asciitilde" horiz-adv-x="1218" d="M203 465Q166 466 144 486Q109 520 109 557Q174 676 288 732Q336 756 381 756Q425 756 462 745T540 718T626 683Q670 664 710 648Q806 610 841 610Q876 610 901 625T947 662T985 705T1016 739Q1054
739 1076 718Q1114 682 1114 647Q1060 526 946 467Q898 442 850 442Q801 442 760 452T676 476Q632 490 588 508L504 540Q410 574 375 575H372Q338 575 313 561Q286 547 265 529T229 493T203 465Z" />
<glyph unicode="&#xa0;" glyph-name="uni00A0" horiz-adv-x="440" />
<glyph unicode="&#xa1;" glyph-name="exclamdown" horiz-adv-x="568" d="M409 956Q419 930 419 901Q419 871 409 846Q400 820 382 801Q345 761 286 761Q228 761 186 801T144 886Q144 931 155 956T186 1000Q228 1040 286 1040Q376 1040 409 956ZM283 626Q369 626
369 582L416 -409Q367 -439 276 -439Q184 -439 150 -407L200 585Q200 612 254 623Q268 626 283 626Z" />
<glyph unicode="&#xa2;" glyph-name="cent" horiz-adv-x="1002" d="M467 1171H608V1403Q579 1432 538 1432Q496 1432 467 1403V1171ZM608 0Q583 -27 539 -27Q494 -27 467 0V295H608V0ZM638 1075H545Q441 1075 366 996Q270 895 270 705Q270 426 425 352Q473 328
523 328Q524 328 525 329Q576 329 617 340T697 368T772 408L844 451Q848 454 858 454Q867 454 881 442Q894 430 906 414Q932 376 933 352V349Q933 327 922 318Q731 175 506 175Q298 175 180 320Q66 460 65 705Q65 946 210 1086Q346 1216 557 1216Q783 1216 870
1118Q903 1080 903 1037Q903 993 893 968T864 925Q824 886 766 886Q708 886 668 925Q628 963 628 1000Q628 1001 629 1001Q629 1039 638 1075Z" />
<glyph unicode="&#xa3;" glyph-name="sterling" horiz-adv-x="1164" d="M499 190Q648 134 750 134Q833 134 864 153Q919 187 966 282Q978 305 1004 305Q1030 305 1045 301Q1060 298 1072 290Q1101 273 1105 247Q1040 37 912 -6Q870 -20 827 -20Q783 -20 733 -14Q682
-10 626 0Q504 21 396 52Q383 46 363 34T318 10Q257 -20 220 -20Q183 -20 155 -9T106 24Q61 69 61 134Q61 200 106 245T215 290Q267 290 301 270L347 244Q388 348 388 606H156Q128 606 118 657Q116 670 116 682Q115 683 115 685Q115 695 118 707Q120 720 125 732Q137
760 156 760H388V1193Q388 1360 506 1450Q604 1525 743 1525H747Q912 1525 986 1479Q1007 1465 1007 1420Q1006 1351 966 1309Q954 1296 942 1296Q930 1296 900 1310Q826 1345 738 1345H735Q669 1345 638 1300Q599 1244 599 1110V760H862Q888 760 898 709Q900 696
901 685Q901 639 887 623T862 606H599Q595 567 592 522T580 424Q559 302 499 190Z" />
<glyph unicode="&#xa4;" glyph-name="currency" horiz-adv-x="1184" d="M820 250Q709 175 587 175Q465 175 359 244L246 126Q189 126 143 172Q99 216 99 267L215 384Q133 509 133 651Q133 792 213 912L97 1028Q98 1087 144 1130Q188 1171 244 1171L360 1055Q463
1121 587 1121Q710 1121 818 1048L940 1173H943Q997 1173 1041 1132Q1087 1089 1087 1032L962 905Q1040 784 1040 649Q1040 513 966 395L1089 271Q1089 218 1042 172Q997 128 943 128H941L820 250ZM591 365Q650 365 697 387T779 449Q849 529 849 649Q849 773 779
853Q705 938 590 938Q478 938 404 853Q334 771 333 649Q334 531 404 449Q476 365 591 365Z" />
<glyph unicode="&#xa5;" glyph-name="yen" horiz-adv-x="1275" d="M358 0Q333 0 333 57V60Q333 107 360 134Q367 141 374 141H437Q528 141 542 166Q546 174 546 184V412H216Q188 412 178 464Q176 477 176 489Q175 490 175 492Q175 502 178 514Q180 526 185 538Q197
566 216 566H543L448 785H212Q184 785 174 837Q172 850 171 861Q171 907 186 923T212 939H381L197 1364H85Q59 1364 59 1424Q59 1473 73 1489T98 1505H568Q593 1505 593 1448Q593 1396 578 1380T552 1364Q446 1364 446 1329Q446 1325 452 1307L679 782L918 1364H832Q806
1364 806 1422Q806 1474 819 1489T842 1505H1192Q1217 1505 1217 1448Q1217 1396 1193 1372Q1184 1364 1156 1364Q1085 1364 1068 1321L912 939H1058Q1084 939 1094 888Q1096 875 1097 864V860Q1097 851 1095 839Q1092 825 1088 813Q1078 785 1058 785H849L760
566H1058Q1084 566 1094 516Q1096 503 1097 492V488Q1097 478 1095 466Q1092 452 1088 440Q1078 412 1058 412H757V141H946Q972 141 972 80Q972 32 957 16T931 0H358Z" />
<glyph unicode="&#xa6;" glyph-name="brokenbar" horiz-adv-x="522" d="M184 1608Q184 1636 261 1636Q338 1636 338 1608V694H184V1608ZM338 -455Q338 -483 261 -483Q184 -483 184 -455V516H338V-455Z" />
<glyph unicode="&#xa7;" glyph-name="section" horiz-adv-x="1148" d="M768 1393Q709 1429 627 1429Q544 1429 489 1415T395 1372Q312 1312 312 1208Q312 1128 400 1064Q442 1032 502 1002L638 932Q859 822 949 733Q1060 624 1060 476H1059Q1059 392 1000 238Q1060
147 1060 48Q1060 -52 1022 -128Q984 -206 916 -260Q773 -375 555 -375H551Q381 -375 236 -304Q67 -221 67 -95Q67 -29 112 16T221 61Q286 61 330 16Q374 -30 374 -95Q374 -125 363 -149T346 -187Q411 -222 507 -222Q603 -222 661 -202Q718 -183 760 -149Q848 -76
849 34V35Q849 153 644 260L375 396Q102 540 102 773Q102 863 140 952L161 1001Q101 1092 101 1197Q101 1301 142 1372Q184 1444 252 1491Q386 1583 597 1583Q752 1582 888 1512Q1045 1432 1045 1300V1298Q1044 1234 1000 1188Q957 1144 892 1144Q827 1144 783
1188Q738 1233 738 1283Q738 1333 768 1393ZM843 384Q849 408 849 451Q849 494 821 535T748 613T643 682L318 853Q313 825 313 789Q313 753 334 715T398 640Q470 577 632 493L843 384Z" />
<glyph unicode="&#xa8;" glyph-name="dieresis" horiz-adv-x="1065" d="M178 1327Q178 1422 258 1456Q282 1466 312 1466Q342 1466 368 1456Q394 1444 412 1426Q451 1387 451 1330V1324Q451 1267 412 1228Q374 1190 328 1190Q252 1190 215 1229T178 1327ZM766
1190Q674 1190 641 1272Q631 1297 631 1327Q631 1422 711 1456Q736 1466 766 1466Q824 1466 864 1426Q902 1388 903 1327Q903 1233 821 1200Q796 1190 766 1190Z" />
<glyph unicode="&#xa9;" glyph-name="copyright" horiz-adv-x="1686" d="M67 756Q67 965 172 1143Q275 1318 451 1420Q632 1525 843 1525Q1054 1525 1235 1420Q1412 1318 1514 1143Q1619 965 1619 756V748Q1619 539 1514 361Q1412 188 1235 85Q1054 -20 843 -20Q522
-20 294 205Q150 347 94 546Q67 642 67 745V756ZM297 1126T248 1007T198 752Q198 615 247 496T384 289T589 149T843 98Q1114 98 1301 288T1488 752Q1488 1024 1301 1215Q1113 1407 843 1407Q707 1407 589 1356T384 1215ZM931 1103Q894 1113 849 1113Q803 1113 755
1097T666 1039Q570 943 570 753Q570 474 725 400Q773 376 823 376Q824 376 825 377Q876 377 917 388T997 416T1072 456L1144 499Q1198 484 1220 426Q1226 408 1226 396Q1226 378 1222 366Q1045 223 806 223Q598 223 480 368Q366 508 365 753Q365 994 510 1135Q646
1267 857 1267Q1083 1266 1170 1168Q1203 1130 1203 1087Q1203 1044 1193 1019T1164 976Q1124 937 1066 937Q1008 937 968 976Q929 1013 929 1071V1088Q929 1094 931 1103Z" />
<glyph unicode="&#xaa;" glyph-name="ordfeminine" horiz-adv-x="915" d="M760 727Q779 727 787 686Q789 676 789 666Q789 627 778 614T759 600H150Q129 600 121 642Q119 652 119 662Q119 672 121 683Q122 694 126 704Q134 727 150 727H760ZM326 1431Q333 1415
333 1387Q333 1359 309 1335T248 1310Q210 1310 186 1334T161 1392Q161 1425 175 1445T212 1479T264 1503Q292 1512 322 1516Q378 1524 436 1525H438Q494 1525 539 1505Q584 1484 612 1450Q664 1387 664 1283V962H770Q786 962 786 934Q786 876 760 871Q720 862
604 862Q583 862 571 880T547 933Q492 889 380 866Q346 859 308 859Q270 859 234 873Q198 888 175 912Q131 959 131 1024Q131 1089 150 1130T202 1199Q269 1257 359 1257H541Q541 1354 498 1394T374 1435Q345 1435 326 1431ZM278 1113T269 1094T260 1052Q260 1029
267 1014T286 990Q306 976 340 976Q342 975 345 975Q376 975 402 982Q430 988 457 998Q509 1016 541 1037V1160H380Q330 1160 304 1137Z" />
<glyph unicode="&#xab;" glyph-name="guillemotleft" horiz-adv-x="1186" d="M581 429Q542 460 542 513Q542 568 582 601L1003 935Q1035 935 1056 913Q1093 874 1093 840L786 535L1093 184Q1093 150 1073 129Q1037 90 1004 90L581 429ZM84 429Q43 462 43 502Q43
570 84 602L505 935Q535 935 556 913Q593 874 593 840L287 535L593 184Q593 150 574 128Q540 90 506 90L84 429Z" />
<glyph unicode="&#xac;" glyph-name="logicalnot" horiz-adv-x="1119" d="M933 729Q1005 729 1005 645V285Q1005 258 955 248Q942 246 931 246Q884 246 868 260T851 285V575H124Q96 575 86 627Q84 640 84 652Q83 653 83 655Q83 665 86 677Q88 690 93 702Q105 729
123 729H933Z" />
<glyph unicode="&#xad;" glyph-name="uni00AD" horiz-adv-x="750" d="M647 689Q672 689 682 630Q684 616 685 604Q685 552 671 533T646 513H199Q172 513 162 574Q160 588 160 600Q159 602 159 604Q159 615 162 627Q164 642 169 656Q181 689 200 689H647Z" />
<glyph unicode="&#xae;" glyph-name="registered" horiz-adv-x="1088" d="M68 980Q68 1177 207 1316T545 1456Q741 1456 880 1317T1020 980Q1020 784 880 644Q742 506 545 505Q346 506 208 644Q68 784 68 980ZM575 756Q585 752 585 726Q585 699 570 693H350Q341
702 341 717Q341 732 346 743T357 756Q383 756 388 760T393 773V1189Q393 1195 388 1195H346Q331 1199 331 1226Q331 1252 341 1258H569Q656 1258 707 1217T759 1103Q759 988 645 947L754 779Q773 751 832 746Q913 850 913 981Q912 1138 804 1248Q694 1359 544
1359Q393 1359 284 1248Q176 1138 176 981Q176 826 284 714Q391 604 544 604Q679 604 781 693H738Q696 693 671 732L544 932Q518 930 491 930V756H575ZM491 1001Q576 1001 602 1012Q652 1034 652 1102Q652 1192 491 1192V1001Z" />
<glyph unicode="&#xaf;" glyph-name="overscore" horiz-adv-x="1065" d="M208 1237Q192 1237 192 1304Q192 1371 208 1371H845Q856 1371 858 1354T860 1287Q860 1237 845 1237H208Z" />
<glyph unicode="&#xb0;" glyph-name="degree" horiz-adv-x="855" d="M348 954Q384 940 428 940Q429 939 430 939Q472 939 508 954Q545 968 572 994Q628 1048 628 1140Q628 1229 572 1287Q514 1347 426 1347Q342 1347 284 1287Q227 1228 227 1140Q228 1002 348
954ZM428 785Q349 785 284 811T170 884Q67 985 67 1140Q67 1294 170 1399T426 1504Q586 1504 688 1399Q788 1295 788 1140Q788 983 688 884T428 785Z" />
<glyph unicode="&#xb1;" glyph-name="plusminus" horiz-adv-x="1093" d="M968 154Q994 154 1004 104Q1006 91 1007 80V76Q1007 66 1005 54Q1002 40 998 28Q988 0 968 0H126Q98 0 88 52Q86 65 85 76Q85 122 100 138T126 154H968ZM98 646Q81 646 81 718Q81 790 98
790H474V1098Q474 1114 546 1114Q618 1114 618 1098V790H995Q1011 790 1011 718Q1011 646 995 646H618V308Q618 292 546 292Q474 292 474 308V646H98Z" />
<glyph unicode="&#xb2;" glyph-name="uni00B2" horiz-adv-x="808" d="M298 1261T269 1232T197 1203Q153 1203 123 1232T93 1310Q93 1358 115 1398T177 1466Q259 1524 396 1525H400Q611 1525 674 1404Q696 1365 696 1304V1302Q695 1239 670 1191T605 1106T516 1039T418
974Q304 894 267 793H595L623 871Q640 884 669 884Q697 884 713 855L682 647H113V690Q114 884 312 1044Q438 1145 474 1195T510 1290Q510 1334 498 1360Q486 1387 466 1404Q427 1436 376 1436Q325 1436 299 1427T250 1395Q282 1382 294 1334Q298 1320 298 1308Q298
1261 269 1232Z" />
<glyph unicode="&#xb3;" glyph-name="uni00B3" horiz-adv-x="800" d="M252 764Q293 723 382 723H384Q443 723 480 772Q517 820 517 897V903Q517 970 496 1000Q456 1058 370 1067V1121Q437 1155 460 1181Q504 1232 504 1306Q504 1360 463 1398Q423 1435 378 1435H376Q287
1435 247 1395Q278 1380 292 1337Q296 1325 296 1316Q296 1262 267 1232T193 1202Q148 1202 119 1232T89 1315Q89 1366 117 1405T191 1470Q284 1524 406 1525Q610 1525 672 1398Q690 1360 691 1318V1315Q691 1274 676 1242Q660 1210 636 1184Q589 1134 517 1108Q616
1067 648 1039Q719 977 719 880Q719 698 531 650Q473 634 411 634Q409 634 407 635Q343 635 288 649Q234 664 190 690Q90 750 89 843Q89 893 120 921T185 950Q218 950 236 943T268 921Q298 891 298 845Q298 798 252 764Z" />
<glyph unicode="&#xb4;" glyph-name="acute" horiz-adv-x="1065" d="M539 1188Q497 1188 476 1212Q440 1253 440 1296L713 1581H716Q778 1581 819 1538Q862 1494 862 1423L539 1188Z" />
<glyph unicode="&#xb5;" glyph-name="uni00B5" horiz-adv-x="1239" d="M525 -20Q340 -20 281 139Q295 -43 369 -365Q361 -397 328 -418T250 -439Q164 -439 164 -380V1001H359V635Q359 270 454 194Q488 166 541 166Q594 166 640 201T720 308Q789 459 789 754V1001H934Q983
1001 983 961V315Q983 210 1000 182T1032 147T1067 141H1151Q1180 132 1180 94Q1180 12 1137 0Q1130 -1 1110 -3L1066 -8Q1000 -14 962 -14Q923 -14 895 -2T845 36Q799 94 799 203Q767 103 727 63Q647 -20 525 -20Z" />
<glyph unicode="&#xb6;" glyph-name="paragraph" horiz-adv-x="1579" d="M549 0Q524 0 524 57Q524 106 552 134Q560 142 583 142H587Q591 141 595 141Q618 141 642 144Q671 146 687 151Q715 160 715 184V629H563Q332 630 196 740Q59 851 59 1044Q59 1276 228 1390T718
1505H1484Q1509 1505 1509 1435Q1509 1364 1474 1364H1294V141H1462Q1488 141 1488 80Q1488 32 1473 16T1447 0H549ZM355 1282T324 1230T292 1089Q292 1001 326 942T418 847Q528 779 715 779V1351Q498 1351 427 1317ZM1083 1348Q1083 1364 1070 1364H926V141H945Q1061
141 1077 164Q1083 172 1083 184V1348Z" />
<glyph unicode="&#xb7;" glyph-name="middot" horiz-adv-x="522" d="M261 428Q168 428 134 509Q124 534 124 564Q124 594 134 619Q146 644 164 662Q203 700 261 700Q354 700 388 619Q398 594 398 564Q398 534 388 509Q376 484 358 466Q318 428 261 428Z" />
<glyph unicode="&#xb8;" glyph-name="cedilla" horiz-adv-x="1188" d="M649 -240Q649 -179 513 -179L474 -131L526 15H685L649 -90Q764 -110 804 -182Q817 -204 817 -232V-236Q817 -440 449 -440Q429 -440 419 -420Q409 -402 409 -382Q409 -328 438 -328Q580 -328
632 -278Q649 -263 649 -242V-240Z" />
<glyph unicode="&#xb9;" glyph-name="uni00B9" horiz-adv-x="720" d="M617 750Q632 750 632 699Q632 647 611 647H130Q118 647 118 682Q118 750 142 750H228Q291 750 291 775V1283Q291 1318 282 1318Q272 1318 251 1309L158 1270Q136 1261 128 1261Q119 1261 111
1270T94 1293Q76 1322 76 1338Q76 1339 77 1339Q77 1355 86 1361L424 1525H439Q476 1525 476 1513V750H617Z" />
<glyph unicode="&#xba;" glyph-name="ordmasculine" horiz-adv-x="913" d="M766 727Q785 727 793 686Q795 676 795 666Q795 627 784 614T765 600H156Q135 600 127 642Q125 652 125 662Q125 672 127 683Q128 694 132 704Q140 727 156 727H766ZM430 837Q352 837
294 864Q234 890 194 937Q112 1033 112 1187Q112 1349 224 1442Q324 1525 477 1525H480Q625 1525 710 1426Q792 1331 792 1182Q792 1016 690 924Q594 837 434 837H430ZM261 1186Q261 1062 314 1001T454 939Q546 939 596 1011Q642 1077 642 1162Q642 1246 628 1291T587
1366Q537 1423 452 1423H449Q326 1423 279 1304Q261 1258 261 1186Z" />
<glyph unicode="&#xbb;" glyph-name="guillemotright" horiz-adv-x="1184" d="M603 595Q643 563 643 523Q643 455 602 423L182 90Q151 90 130 112Q93 151 93 185L399 490L93 841V844Q93 875 112 896Q147 935 181 935L603 595ZM1102 595Q1143 560 1143 521Q1143
455 1101 423L681 90Q649 90 628 112Q592 151 592 185L898 490L592 841Q592 874 612 896Q647 935 680 935L1102 595Z" />
<glyph unicode="&#xbc;" glyph-name="onequarter" horiz-adv-x="1770" d="M1326 1505Q1346 1537 1422 1537Q1484 1537 1484 1505L500 0Q478 -30 397 -30Q334 -30 334 0L1326 1505ZM1018 228Q992 240 986 280L1304 880Q1373 880 1423 842Q1467 808 1467 776L1137
341H1382V530Q1382 575 1506 586Q1538 589 1567 589V341H1697Q1714 341 1714 293Q1714 258 1702 243T1683 228H1567V103H1672Q1689 103 1689 52Q1689 0 1664 0H1209Q1193 0 1193 42Q1193 72 1205 87T1223 103H1306Q1382 103 1382 128V228H1018ZM609 750Q624 750
624 699Q624 647 603 647H122Q110 647 110 682Q110 750 134 750H220Q283 750 283 775V1283Q283 1318 274 1318Q264 1318 243 1309L150 1270Q128 1261 120 1261Q111 1261 103 1270T86 1293Q68 1322 68 1338Q68 1339 69 1339Q69 1355 78 1361L416 1525H431Q468 1525
468 1513V750H609Z" />
<glyph unicode="&#xbd;" glyph-name="onehalf" horiz-adv-x="1767" d="M1318 1505Q1338 1537 1414 1537Q1476 1537 1476 1505L492 0Q470 -30 389 -30Q326 -30 326 0L1318 1505ZM601 750Q616 750 616 699Q616 647 595 647H114Q102 647 102 682Q102 750 126 750H212Q275
750 275 775V1283Q275 1318 266 1318Q256 1318 235 1309L142 1270Q120 1261 112 1261Q103 1261 95 1270T78 1293Q60 1322 60 1338Q60 1339 61 1339Q61 1355 70 1361L408 1525H423Q460 1525 460 1513V750H601ZM1281 614T1252 585T1180 556Q1136 556 1106 585T1076
663Q1076 711 1098 751Q1120 792 1160 820Q1242 878 1379 878Q1592 878 1656 756Q1678 716 1678 654Q1678 592 1653 544T1588 459T1498 392Q1450 362 1402 328Q1288 248 1250 146H1578L1606 224Q1623 237 1652 237Q1680 237 1696 208L1665 0H1096V43Q1096 236 1294
396Q1420 497 1456 548T1493 643Q1493 687 1482 713T1450 757Q1411 789 1360 789Q1308 789 1282 780T1233 748Q1266 736 1278 688Q1281 677 1281 666V661Q1281 614 1252 585Z" />
<glyph unicode="&#xbe;" glyph-name="threequarters" horiz-adv-x="1831" d="M1338 1505Q1358 1537 1434 1537Q1496 1537 1496 1505L512 0Q490 -30 409 -30Q346 -30 346 0L1338 1505ZM1080 228Q1054 240 1048 280L1366 880Q1435 880 1485 842Q1529 808 1529 776L1199
341H1444V530Q1444 575 1568 586Q1600 589 1629 589V341H1759Q1776 341 1776 293Q1776 258 1764 243T1745 228H1629V103H1734Q1751 103 1751 52Q1751 0 1726 0H1271Q1255 0 1255 42Q1255 72 1267 87T1285 103H1368Q1444 103 1444 128V228H1080ZM246 764Q287 723
376 723H378Q437 723 474 772Q511 820 511 897V903Q511 970 490 1000Q450 1058 364 1067V1121Q431 1155 454 1181Q498 1232 498 1306Q498 1360 457 1398Q417 1435 372 1435H370Q281 1435 241 1395Q272 1380 286 1337Q290 1325 290 1316Q290 1262 261 1232T187 1202Q142
1202 113 1232T83 1315Q83 1366 111 1405T185 1470Q278 1524 400 1525Q604 1525 666 1398Q684 1360 685 1318V1315Q685 1274 670 1242Q654 1210 630 1184Q583 1134 511 1108Q610 1067 642 1039Q713 977 713 880Q713 698 525 650Q467 634 405 634Q403 634 401 635Q337
635 282 649Q228 664 184 690Q84 750 83 843Q83 893 114 921T179 950Q212 950 230 943T262 921Q292 891 292 845Q292 798 246 764Z" />
<glyph unicode="&#xbf;" glyph-name="questiondown" horiz-adv-x="949" d="M653 -273Q630 -232 630 -194Q630 -156 641 -130Q652 -104 671 -86Q712 -47 756 -47Q800 -47 826 -58Q852 -68 870 -86Q910 -126 910 -179Q910 -233 888 -269T830 -333T750 -381Q705 -402
659 -414Q569 -438 484 -438Q398 -438 320 -409T190 -331Q84 -232 83 -80Q83 68 200 190Q252 244 316 294L445 395V550Q445 595 508 609Q526 613 546 613Q640 613 640 550V372Q585 323 525 281Q465 240 415 192Q300 83 300 -60Q300 -162 363 -224Q425 -284 529
-284H564Q609 -284 653 -273ZM663 960T674 935T685 879Q685 849 674 824Q662 798 644 779Q605 739 561 739Q516 739 491 749T446 779Q405 820 405 865Q405 909 416 934T446 978Q487 1018 531 1018Q575 1018 600 1008T644 979Z" />
<glyph unicode="&#xc0;" glyph-name="Agrave" horiz-adv-x="1424" d="M13 0Q-12 0 -12 57Q-12 109 12 133Q20 141 48 141Q122 141 145 198L654 1505Q662 1525 693 1525Q760 1525 768 1505L1301 141H1418Q1444 141 1444 81Q1444 31 1430 16T1405 0H920Q895 0 895
55Q895 107 910 124T936 141Q1060 141 1060 165Q1060 174 1052 190L933 499H426L287 141H459Q485 141 485 83Q485 31 472 16T449 0H13ZM485 653H874L681 1157L485 653ZM321 1833Q321 1942 411 1980Q436 1991 465 1991H470L743 1706Q742 1663 722 1640Q686 1598
645 1598L321 1833Z" />
<glyph unicode="&#xc1;" glyph-name="Aacute" horiz-adv-x="1424" d="M13 0Q-12 0 -12 57Q-12 109 12 133Q20 141 48 141Q122 141 145 198L654 1505Q662 1525 693 1525Q760 1525 768 1505L1301 141H1418Q1444 141 1444 81Q1444 31 1430 16T1405 0H920Q895 0 895
55Q895 107 910 124T936 141Q1060 141 1060 165Q1060 174 1052 190L933 499H426L287 141H459Q485 141 485 83Q485 31 472 16T449 0H13ZM485 653H874L681 1157L485 653ZM782 1598Q740 1598 719 1622Q683 1663 683 1706L956 1991H959Q1021 1991 1062 1948Q1105 1904
1105 1833L782 1598Z" />
<glyph unicode="&#xc2;" glyph-name="Acircumflex" horiz-adv-x="1424" d="M13 0Q-12 0 -12 57Q-12 109 12 133Q20 141 48 141Q122 141 145 198L654 1505Q662 1525 693 1525Q760 1525 768 1505L1301 141H1418Q1444 141 1444 81Q1444 31 1430 16T1405 0H920Q895
0 895 55Q895 107 910 124T936 141Q1060 141 1060 165Q1060 174 1052 190L933 499H426L287 141H459Q485 141 485 83Q485 31 472 16T449 0H13ZM485 653H874L681 1157L485 653ZM465 1609Q431 1610 412 1632Q381 1670 381 1709L637 1886Q680 1914 708 1914Q744 1914
786 1886L1042 1709Q1042 1646 991 1618Q976 1610 958 1609L713 1726L465 1609Z" />
<glyph unicode="&#xc3;" glyph-name="Atilde" horiz-adv-x="1424" d="M13 0Q-12 0 -12 57Q-12 109 12 133Q20 141 48 141Q122 141 145 198L654 1505Q662 1525 693 1525Q760 1525 768 1505L1301 141H1418Q1444 141 1444 81Q1444 31 1430 16T1405 0H920Q895 0 895
55Q895 107 910 124T936 141Q1060 141 1060 165Q1060 174 1052 190L933 499H426L287 141H459Q485 141 485 83Q485 31 472 16T449 0H13ZM485 653H874L681 1157L485 653ZM382 1627Q342 1628 322 1648Q288 1682 288 1719Q354 1836 468 1893Q516 1917 567 1917Q618
1917 654 1895T726 1845T796 1795T866 1772Q899 1772 924 1787T970 1824T1008 1867T1039 1901Q1077 1901 1099 1880Q1137 1844 1137 1809Q1084 1688 970 1629Q922 1604 873 1604Q824 1604 795 1614T739 1638T690 1670T644 1702Q590 1736 554 1737H551Q517 1737
492 1723Q465 1709 444 1691T408 1655T382 1627Z" />
<glyph unicode="&#xc4;" glyph-name="Adieresis" horiz-adv-x="1424" d="M13 0Q-12 0 -12 57Q-12 109 12 133Q20 141 48 141Q122 141 145 198L654 1505Q662 1525 693 1525Q760 1525 768 1505L1301 141H1418Q1444 141 1444 81Q1444 31 1430 16T1405 0H920Q895 0
895 55Q895 107 910 124T936 141Q1060 141 1060 165Q1060 174 1052 190L933 499H426L287 141H459Q485 141 485 83Q485 31 472 16T449 0H13ZM485 653H874L681 1157L485 653ZM355 1757V1759Q355 1852 434 1886Q458 1896 489 1896Q519 1896 544 1886Q570 1874 588
1856Q628 1816 628 1757Q628 1698 588 1658Q550 1620 504 1620Q428 1620 392 1659T355 1757ZM943 1620Q851 1620 818 1702Q808 1727 808 1757Q808 1852 888 1886Q913 1896 943 1896Q1002 1896 1042 1856Q1080 1818 1080 1757Q1080 1663 998 1630Q973 1620 943 1620Z"
/>
<glyph unicode="&#xc5;" glyph-name="Aring" horiz-adv-x="1420" d="M11 0Q-14 0 -14 57Q-14 109 10 133Q18 141 46 141Q120 141 143 198L652 1505Q660 1525 691 1525Q758 1525 766 1505L1299 141H1416Q1442 141 1442 81Q1442 31 1428 16T1403 0H918Q893 0 893
55Q893 107 908 124T934 141Q1058 141 1058 165Q1058 174 1050 190L931 499H424L285 141H457Q483 141 483 83Q483 31 470 16T447 0H11ZM483 653H872L679 1157L483 653ZM488 1608Q488 1652 504 1690Q520 1729 548 1758Q610 1821 705 1821Q800 1821 862 1758Q922
1697 922 1608Q922 1520 862 1460Q800 1398 705 1397Q610 1398 548 1460Q488 1518 488 1608ZM627 1612Q627 1577 650 1553T709 1528Q744 1528 767 1552T791 1612Q791 1647 768 1671T709 1696Q674 1696 651 1672T627 1612Z" />
<glyph unicode="&#xc6;" glyph-name="AE" horiz-adv-x="1875" d="M1549 453T1477 453Q1405 453 1405 480V631H1068L1086 154H1370Q1513 154 1561 171T1638 218T1682 303Q1686 323 1725 323H1731Q1744 323 1762 320Q1824 311 1825 282V274Q1811 172 1780 97T1733
0H713Q686 0 686 59Q686 110 710 134Q718 142 742 142H745Q750 141 756 141Q778 141 801 143Q830 145 846 150Q875 159 875 184L858 631H467L273 141H385Q411 141 411 83Q411 31 398 16T375 0H-12Q-37 0 -37 57Q-37 108 -21 125T4 143Q52 147 80 157T120 198L615
1469Q629 1505 671 1505H1784V1214Q1784 1180 1714 1180Q1643 1180 1643 1202Q1643 1286 1621 1310Q1582 1351 1479 1351H1040L1062 785H1340Q1386 785 1394 807Q1407 839 1407 936Q1407 959 1467 959Q1519 959 1534 945T1549 922V494Q1549 453 1477 453ZM829 1350V1351Q829
1364 812 1364Q755 1364 735 1313L526 785H852L829 1350Z" />
<glyph unicode="&#xc7;" glyph-name="Ccedilla" horiz-adv-x="1277" d="M926 1335Q867 1371 771 1371Q675 1371 596 1332T458 1221Q336 1068 336 823Q336 316 585 186Q664 144 746 144Q747 144 748 145Q830 145 878 158T966 189T1035 228Q1093 268 1108 268Q1122
268 1136 257T1162 230Q1189 195 1189 169Q1189 142 1171 126T1114 84Q1074 58 1018 35Q883 -20 742 -20Q600 -20 487 24T288 162Q103 363 103 730V734Q103 1120 297 1330Q477 1525 775 1525H778Q935 1525 1066 1449Q1211 1365 1211 1241Q1210 1177 1166 1131Q1123
1087 1058 1087Q993 1087 949 1131Q904 1176 904 1237Q904 1297 926 1335ZM785 -240Q785 -179 649 -179L610 -131L662 15H821L785 -90Q900 -110 940 -182Q953 -204 953 -232V-236Q953 -440 585 -440Q565 -440 555 -420Q545 -402 545 -382Q545 -328 574 -328Q716
-328 768 -278Q785 -263 785 -242V-240Z" />
<glyph unicode="&#xc8;" glyph-name="Egrave" horiz-adv-x="1288" d="M964 516T892 516Q820 516 820 543V694H501V154H1031L1107 303Q1117 322 1145 322Q1172 322 1187 319T1214 311Q1241 300 1241 281Q1241 276 1240 274L1148 0H128Q101 0 101 59Q102 110 126
134Q134 142 158 142H161Q165 141 170 141Q193 141 217 144Q246 146 262 151Q290 160 290 184V1350Q290 1364 278 1364H114Q86 1364 76 1416Q74 1430 73 1442Q73 1505 99 1505H1199V1214Q1199 1180 1129 1180Q1058 1180 1058 1202Q1058 1286 1036 1310Q997 1351
894 1351H501V848H755Q801 848 809 870Q822 902 822 999Q822 1022 882 1022Q934 1022 949 1008T964 985V557Q964 516 892 516ZM411 1833Q411 1942 501 1980Q526 1991 555 1991H560L833 1706Q832 1663 812 1640Q776 1598 735 1598L411 1833Z" />
<glyph unicode="&#xc9;" glyph-name="Eacute" horiz-adv-x="1288" d="M964 516T892 516Q820 516 820 543V694H501V154H1031L1107 303Q1117 322 1145 322Q1172 322 1187 319T1214 311Q1241 300 1241 281Q1241 276 1240 274L1148 0H128Q101 0 101 59Q102 110 126
134Q134 142 158 142H161Q165 141 170 141Q193 141 217 144Q246 146 262 151Q290 160 290 184V1350Q290 1364 278 1364H114Q86 1364 76 1416Q74 1430 73 1442Q73 1505 99 1505H1199V1214Q1199 1180 1129 1180Q1058 1180 1058 1202Q1058 1286 1036 1310Q997 1351
894 1351H501V848H755Q801 848 809 870Q822 902 822 999Q822 1022 882 1022Q934 1022 949 1008T964 985V557Q964 516 892 516ZM683 1598Q641 1598 620 1622Q584 1663 584 1706L857 1991H860Q922 1991 963 1948Q1006 1904 1006 1833L683 1598Z" />
<glyph unicode="&#xca;" glyph-name="Ecircumflex" horiz-adv-x="1288" d="M964 516T892 516Q820 516 820 543V694H501V154H1031L1107 303Q1117 322 1145 322Q1172 322 1187 319T1214 311Q1241 300 1241 281Q1241 276 1240 274L1148 0H128Q101 0 101 59Q102 110
126 134Q134 142 158 142H161Q165 141 170 141Q193 141 217 144Q246 146 262 151Q290 160 290 184V1350Q290 1364 278 1364H114Q86 1364 76 1416Q74 1430 73 1442Q73 1505 99 1505H1199V1214Q1199 1180 1129 1180Q1058 1180 1058 1202Q1058 1286 1036 1310Q997
1351 894 1351H501V848H755Q801 848 809 870Q822 902 822 999Q822 1022 882 1022Q934 1022 949 1008T964 985V557Q964 516 892 516ZM450 1609Q416 1610 397 1632Q366 1670 366 1709L622 1886Q664 1914 692 1914Q728 1914 771 1886L1027 1709Q1027 1646 976 1618Q961
1610 943 1609L698 1726L450 1609Z" />
<glyph unicode="&#xcb;" glyph-name="Edieresis" horiz-adv-x="1288" d="M964 516T892 516Q820 516 820 543V694H501V154H1031L1107 303Q1117 322 1145 322Q1172 322 1187 319T1214 311Q1241 300 1241 281Q1241 276 1240 274L1148 0H128Q101 0 101 59Q102 110
126 134Q134 142 158 142H161Q165 141 170 141Q193 141 217 144Q246 146 262 151Q290 160 290 184V1350Q290 1364 278 1364H114Q86 1364 76 1416Q74 1430 73 1442Q73 1505 99 1505H1199V1214Q1199 1180 1129 1180Q1058 1180 1058 1202Q1058 1286 1036 1310Q997
1351 894 1351H501V848H755Q801 848 809 870Q822 902 822 999Q822 1022 882 1022Q934 1022 949 1008T964 985V557Q964 516 892 516ZM324 1757Q324 1852 404 1886Q428 1896 458 1896Q488 1896 514 1886Q540 1874 558 1856Q597 1817 597 1760V1754Q597 1697 558 1658Q520
1620 474 1620Q398 1620 361 1659T324 1757ZM912 1620Q820 1620 787 1702Q777 1727 777 1757Q777 1852 857 1886Q882 1896 912 1896Q970 1896 1010 1856Q1048 1818 1049 1757Q1049 1663 967 1630Q942 1620 912 1620Z" />
<glyph unicode="&#xcc;" glyph-name="Igrave" horiz-adv-x="791" d="M670 141Q696 141 696 80Q696 32 681 16T655 0H123Q100 0 100 57Q100 106 128 134Q136 142 159 142H163Q167 141 171 141Q194 141 218 144Q247 146 263 151Q291 160 291 184V1348Q291 1364 278
1364H115Q86 1364 76 1418Q74 1432 74 1446Q74 1505 100 1505H692Q717 1505 717 1435Q717 1364 682 1364H502V141H670ZM57 1833Q57 1942 147 1980Q172 1991 201 1991H206L479 1706Q478 1663 458 1640Q422 1598 381 1598L57 1833Z" />
<glyph unicode="&#xcd;" glyph-name="Iacute" horiz-adv-x="791" d="M670 141Q696 141 696 80Q696 32 681 16T655 0H123Q100 0 100 57Q100 106 128 134Q136 142 159 142H163Q167 141 171 141Q194 141 218 144Q247 146 263 151Q291 160 291 184V1348Q291 1364 278
1364H115Q86 1364 76 1418Q74 1432 74 1446Q74 1505 100 1505H692Q717 1505 717 1435Q717 1364 682 1364H502V141H670ZM412 1598Q370 1598 349 1622Q313 1663 313 1706L586 1991H589Q651 1991 692 1948Q735 1904 735 1833L412 1598Z" />
<glyph unicode="&#xce;" glyph-name="Icircumflex" horiz-adv-x="791" d="M670 141Q696 141 696 80Q696 32 681 16T655 0H123Q100 0 100 57Q100 106 128 134Q136 142 159 142H163Q167 141 171 141Q194 141 218 144Q247 146 263 151Q291 160 291 184V1348Q291 1364
278 1364H115Q86 1364 76 1418Q74 1432 74 1446Q74 1505 100 1505H692Q717 1505 717 1435Q717 1364 682 1364H502V141H670ZM145 1609Q111 1610 92 1632Q61 1670 61 1709L317 1886Q360 1914 388 1914Q424 1914 466 1886L722 1709Q722 1646 671 1618Q656 1610 638
1609L393 1726L145 1609Z" />
<glyph unicode="&#xcf;" glyph-name="Idieresis" horiz-adv-x="791" d="M670 141Q696 141 696 80Q696 32 681 16T655 0H123Q100 0 100 57Q100 106 128 134Q136 142 159 142H163Q167 141 171 141Q194 141 218 144Q247 146 263 151Q291 160 291 184V1348Q291 1364
278 1364H115Q86 1364 76 1418Q74 1432 74 1446Q74 1505 100 1505H692Q717 1505 717 1435Q717 1364 682 1364H502V141H670ZM35 1757V1759Q35 1852 114 1886Q138 1896 169 1896Q199 1896 224 1886Q250 1874 268 1856Q308 1816 308 1757Q308 1698 268 1658Q230 1620
184 1620Q108 1620 72 1659T35 1757ZM623 1620Q531 1620 498 1702Q488 1727 488 1757Q488 1852 568 1886Q593 1896 623 1896Q682 1896 722 1856Q760 1818 760 1757Q760 1663 678 1630Q653 1620 623 1620Z" />
<glyph unicode="&#xd0;" glyph-name="Eth" horiz-adv-x="1527" d="M130 848H765V694H130V848ZM83 1442Q83 1505 109 1505H691Q1086 1505 1260 1315Q1422 1138 1423 758V755Q1423 375 1194 176Q992 1 691 0H138Q111 0 111 57Q111 103 137 133Q144 141 171 141Q197
141 226 144Q256 146 272 151Q300 160 300 184V1350Q300 1364 288 1364H124Q96 1364 86 1416Q84 1430 83 1442ZM511 154H658Q872 154 1022 293Q1190 450 1190 723Q1190 1191 898 1312Q804 1351 683 1351H511V154Z" />
<glyph unicode="&#xd1;" glyph-name="Ntilde" horiz-adv-x="1667" d="M74 1446Q74 1505 100 1505H448L1241 345V1348Q1241 1364 1228 1364H1065Q1036 1364 1026 1418Q1024 1432 1024 1446Q1024 1505 1050 1505H1584Q1609 1505 1609 1435Q1609 1364 1574 1364H1395V-2Q1395
-20 1321 -20Q1250 -20 1239 -2L445 1127V141H613Q640 141 640 80Q640 30 625 15T598 0H125Q100 0 100 57Q100 106 128 134Q136 142 159 142H163Q167 141 171 141Q194 141 218 144Q247 146 263 151Q291 160 291 184V1348Q291 1364 278 1364H115Q86 1364 76 1418Q74
1432 74 1446ZM515 1627Q476 1628 456 1648Q422 1682 421 1719Q486 1836 600 1893Q648 1917 700 1917Q751 1917 787 1895T859 1845T929 1795T999 1772Q1032 1772 1057 1787T1103 1824T1141 1867T1172 1901Q1210 1901 1232 1880Q1270 1844 1270 1809Q1216 1688 1102
1629Q1054 1604 1006 1604Q957 1604 928 1614T872 1638T822 1670Q798 1688 776 1702Q722 1736 687 1737H684Q650 1737 625 1723Q598 1709 577 1691T541 1655T515 1627Z" />
<glyph unicode="&#xd2;" glyph-name="Ograve" horiz-adv-x="1501" d="M734 -20Q602 -20 488 24Q374 69 288 161Q102 361 102 731Q102 1117 294 1328Q473 1525 774 1525Q1077 1524 1239 1310Q1398 1100 1398 716Q1398 350 1198 154Q1022 -20 734 -20ZM581 187Q661
145 753 145Q844 145 917 175Q990 206 1046 274Q1168 423 1168 729Q1168 994 1046 1176Q922 1360 741 1360Q566 1360 452 1215Q332 1064 332 823Q332 318 581 187ZM379 1833Q379 1942 469 1980Q494 1991 523 1991H528L801 1706Q800 1663 780 1640Q744 1598 703
1598L379 1833Z" />
<glyph unicode="&#xd3;" glyph-name="Oacute" horiz-adv-x="1501" d="M734 -20Q602 -20 488 24Q374 69 288 161Q102 361 102 731Q102 1117 294 1328Q473 1525 774 1525Q1077 1524 1239 1310Q1398 1100 1398 716Q1398 350 1198 154Q1022 -20 734 -20ZM581 187Q661
145 753 145Q844 145 917 175Q990 206 1046 274Q1168 423 1168 729Q1168 994 1046 1176Q922 1360 741 1360Q566 1360 452 1215Q332 1064 332 823Q332 318 581 187ZM775 1598Q733 1598 712 1622Q676 1663 676 1706L949 1991H952Q1014 1991 1055 1948Q1098 1904 1098
1833L775 1598Z" />
<glyph unicode="&#xd4;" glyph-name="Ocircumflex" horiz-adv-x="1501" d="M734 -20Q602 -20 488 24Q374 69 288 161Q102 361 102 731Q102 1117 294 1328Q473 1525 774 1525Q1077 1524 1239 1310Q1398 1100 1398 716Q1398 350 1198 154Q1022 -20 734 -20ZM581
187Q661 145 753 145Q844 145 917 175Q990 206 1046 274Q1168 423 1168 729Q1168 994 1046 1176Q922 1360 741 1360Q566 1360 452 1215Q332 1064 332 823Q332 318 581 187ZM509 1609Q475 1610 456 1632Q425 1670 425 1709L681 1886Q724 1914 752 1914Q788 1914
830 1886L1086 1709Q1086 1646 1035 1618Q1020 1610 1002 1609L757 1726L509 1609Z" />
<glyph unicode="&#xd5;" glyph-name="Otilde" horiz-adv-x="1501" d="M421 1627Q382 1628 362 1648Q328 1682 327 1719Q392 1836 506 1893Q554 1917 606 1917Q657 1917 693 1895T765 1845T835 1795T905 1772Q938 1772 963 1787T1009 1824T1047 1867T1078 1901Q1116
1901 1138 1880Q1176 1844 1176 1809Q1122 1688 1008 1629Q960 1604 912 1604Q863 1604 834 1614T778 1638T728 1670Q704 1688 682 1702Q628 1736 593 1737H590Q556 1737 531 1723Q504 1709 483 1691T447 1655T421 1627ZM734 -20Q602 -20 488 24Q374 69 288 161Q102
361 102 731Q102 1117 294 1328Q473 1525 774 1525Q1077 1524 1239 1310Q1398 1100 1398 716Q1398 350 1198 154Q1022 -20 734 -20ZM581 187Q661 145 753 145Q844 145 917 175Q990 206 1046 274Q1168 423 1168 729Q1168 994 1046 1176Q922 1360 741 1360Q566 1360
452 1215Q332 1064 332 823Q332 318 581 187Z" />
<glyph unicode="&#xd6;" glyph-name="Odieresis" horiz-adv-x="1501" d="M734 -20Q602 -20 488 24Q374 69 288 161Q102 361 102 731Q102 1117 294 1328Q473 1525 774 1525Q1077 1524 1239 1310Q1398 1100 1398 716Q1398 350 1198 154Q1022 -20 734 -20ZM581 187Q661
145 753 145Q844 145 917 175Q990 206 1046 274Q1168 423 1168 729Q1168 994 1046 1176Q922 1360 741 1360Q566 1360 452 1215Q332 1064 332 823Q332 318 581 187ZM386 1757Q386 1852 466 1886Q490 1896 520 1896Q550 1896 576 1886Q602 1874 620 1856Q659 1817
659 1760V1754Q659 1697 620 1658Q582 1620 536 1620Q460 1620 423 1659T386 1757ZM974 1620Q882 1620 849 1702Q839 1727 839 1757Q839 1852 919 1886Q944 1896 974 1896Q1032 1896 1072 1856Q1110 1818 1111 1757Q1111 1663 1029 1630Q1004 1620 974 1620Z" />
<glyph unicode="&#xd7;" glyph-name="multiply" horiz-adv-x="1143" d="M93 1004Q93 1087 161 1108Q180 1114 199 1114L568 762L943 1128Q1049 1122 1049 1022L679 657L1058 295Q1058 244 1031 214T951 184L568 549L191 178Q153 178 129 201Q85 242 85 285L460
653L93 1004Z" />
<glyph unicode="&#xd8;" glyph-name="Oslash" horiz-adv-x="1522" d="M1288 1506Q1342 1532 1367 1532Q1392 1532 1404 1531T1428 1528Q1454 1522 1454 1506L248 -39Q176 -66 151 -66H112Q99 -64 88 -62Q63 -56 63 -39L1288 1506ZM744 -20Q612 -20 498 24T298
161Q113 360 113 727V731Q113 1117 305 1328Q484 1525 785 1525Q1088 1524 1250 1310Q1409 1100 1409 716V712Q1409 349 1210 154Q1032 -20 744 -20ZM592 187Q672 145 764 145Q855 145 928 175Q1001 206 1057 274Q1179 423 1179 729Q1178 994 1056 1176Q932 1360
752 1360Q576 1360 462 1215Q343 1065 343 827V823Q343 318 592 187Z" />
<glyph unicode="&#xd9;" glyph-name="Ugrave" horiz-adv-x="1545" d="M1291 555Q1291 -20 772 -20Q492 -20 370 132Q258 271 258 569V1348Q258 1364 245 1364H82Q54 1364 44 1418Q42 1432 41 1444Q41 1505 67 1505H639Q664 1505 664 1435Q664 1364 629 1364H469V578Q469
237 663 167Q724 145 804 145Q884 145 946 170T1048 249Q1126 352 1126 575V1348Q1126 1364 1113 1364H969Q940 1364 930 1418Q928 1432 928 1446Q928 1505 954 1505H1470Q1496 1505 1496 1441Q1496 1393 1483 1379T1460 1364H1291V555ZM447 1833Q447 1942 537
1980Q562 1991 591 1991H596L869 1706Q868 1663 848 1640Q812 1598 771 1598L447 1833Z" />
<glyph unicode="&#xda;" glyph-name="Uacute" horiz-adv-x="1545" d="M1291 555Q1291 -20 772 -20Q492 -20 370 132Q258 271 258 569V1348Q258 1364 245 1364H82Q54 1364 44 1418Q42 1432 41 1444Q41 1505 67 1505H639Q664 1505 664 1435Q664 1364 629 1364H469V578Q469
237 663 167Q724 145 804 145Q884 145 946 170T1048 249Q1126 352 1126 575V1348Q1126 1364 1113 1364H969Q940 1364 930 1418Q928 1432 928 1446Q928 1505 954 1505H1470Q1496 1505 1496 1441Q1496 1393 1483 1379T1460 1364H1291V555ZM857 1598Q815 1598 794
1622Q758 1663 758 1706L1031 1991H1034Q1096 1991 1137 1948Q1180 1904 1180 1833L857 1598Z" />
<glyph unicode="&#xdb;" glyph-name="Ucircumflex" horiz-adv-x="1545" d="M1291 555Q1291 -20 772 -20Q492 -20 370 132Q258 271 258 569V1348Q258 1364 245 1364H82Q54 1364 44 1418Q42 1432 41 1444Q41 1505 67 1505H639Q664 1505 664 1435Q664 1364 629 1364H469V578Q469
237 663 167Q724 145 804 145Q884 145 946 170T1048 249Q1126 352 1126 575V1348Q1126 1364 1113 1364H969Q940 1364 930 1418Q928 1432 928 1446Q928 1505 954 1505H1470Q1496 1505 1496 1441Q1496 1393 1483 1379T1460 1364H1291V555ZM556 1609Q522 1610 503
1632Q472 1670 472 1709L728 1886Q770 1914 798 1914Q834 1914 877 1886L1133 1709Q1133 1646 1082 1618Q1067 1610 1049 1609L804 1726L556 1609Z" />
<glyph unicode="&#xdc;" glyph-name="Udieresis" horiz-adv-x="1545" d="M1291 555Q1291 -20 772 -20Q492 -20 370 132Q258 271 258 569V1348Q258 1364 245 1364H82Q54 1364 44 1418Q42 1432 41 1444Q41 1505 67 1505H639Q664 1505 664 1435Q664 1364 629 1364H469V578Q469
237 663 167Q724 145 804 145Q884 145 946 170T1048 249Q1126 352 1126 575V1348Q1126 1364 1113 1364H969Q940 1364 930 1418Q928 1432 928 1446Q928 1505 954 1505H1470Q1496 1505 1496 1441Q1496 1393 1483 1379T1460 1364H1291V555ZM445 1757V1759Q445 1852
524 1886Q548 1896 579 1896Q609 1896 634 1886Q660 1874 678 1856Q718 1816 718 1757Q718 1698 678 1658Q640 1620 594 1620Q518 1620 482 1659T445 1757ZM1033 1620Q941 1620 908 1702Q898 1727 898 1757Q898 1852 978 1886Q1003 1896 1033 1896Q1092 1896 1132
1856Q1170 1818 1170 1757Q1170 1663 1088 1630Q1063 1620 1033 1620Z" />
<glyph unicode="&#xdd;" glyph-name="Yacute" horiz-adv-x="1284" d="M268 0Q243 0 243 57V60Q243 107 270 134Q277 141 284 141H435Q526 141 540 166Q544 174 544 184V559L107 1364H-5Q-31 1364 -31 1424Q-31 1473 -17 1489T8 1505H501Q526 1505 526 1448Q526
1396 511 1380T485 1364Q379 1364 379 1329Q379 1319 385 1307L670 735L986 1364H830Q804 1364 804 1422Q804 1474 817 1489T840 1505H1276Q1301 1505 1301 1448Q1301 1396 1277 1372Q1268 1364 1240 1364Q1174 1364 1152 1321L755 559V141H1000Q1026 141 1026
80Q1026 32 1011 16T985 0H268ZM721 1598Q679 1598 658 1622Q622 1663 622 1706L895 1991H898Q960 1991 1001 1948Q1044 1904 1044 1833L721 1598Z" />
<glyph unicode="&#xde;" glyph-name="Thorn" horiz-adv-x="1219" d="M125 0Q100 0 100 57Q100 106 128 134Q136 142 159 142H163Q167 141 171 141Q194 141 218 144Q247 146 263 151Q291 160 291 184V1348Q291 1364 278 1364H115Q86 1364 76 1418Q74 1432 74 1446Q74
1505 100 1505H692Q717 1505 717 1435Q717 1364 682 1364H502V1182H655Q1016 1182 1122 964Q1157 894 1157 800V795Q1157 334 502 334V141H670Q696 141 696 80Q696 32 681 16T655 0H125ZM924 752Q924 836 890 890T798 974Q697 1028 502 1028V488Q708 488 804 536Q924
598 924 752Z" />
<glyph unicode="&#xdf;" glyph-name="germandbls" horiz-adv-x="1191" d="M725 143Q757 134 806 134Q854 134 877 144T916 172Q950 207 950 255Q950 303 933 335T888 390T824 430L750 464Q656 507 621 545Q551 620 551 732Q551 874 681 1002Q758 1078 784 1134T811
1248Q811 1305 792 1341Q772 1376 744 1396Q696 1428 621 1429H619Q545 1429 494 1394Q441 1359 407 1306Q342 1205 342 1077V86L251 -14Q240 -20 224 -20Q168 -20 120 20Q106 32 102 44L147 225V1082Q147 1293 258 1429Q383 1583 614 1583Q888 1583 986 1402Q1022
1336 1022 1257Q1022 1178 1002 1130T951 1043T884 970T818 904Q746 829 746 777Q746 724 763 695T808 644Q836 624 872 606L946 569Q1042 521 1076 479Q1145 397 1145 279Q1144 143 1052 62Q958 -20 805 -20Q694 -20 586 24Q508 56 472 116Q454 146 454 181Q454
215 464 240Q476 266 494 284Q533 322 592 322Q650 322 690 283Q729 246 729 187V184Q729 157 725 143Z" />
<glyph unicode="&#xe0;" glyph-name="agrave" horiz-adv-x="1045" d="M378 880Q390 854 390 821Q390 788 380 763Q368 738 350 720Q312 682 253 681Q160 681 126 763Q116 788 116 825Q116 861 137 893T192 948T270 985T359 1007Q438 1021 532 1021Q625 1021 693
991T802 910Q871 821 871 658V141H1039Q1066 141 1066 82Q1066 56 1056 31T1025 0Q969 -16 865 -16Q760 -16 748 -13T726 0Q707 17 688 69Q566 -20 394 -20Q240 -20 152 62Q69 138 69 261V264Q69 417 182 503Q281 579 429 579H676Q676 746 649 794T583 861T480
880H378ZM430 134Q556 134 676 234V429H458Q378 429 340 402Q271 354 271 291Q271 173 369 143Q398 134 430 134ZM210 1423Q210 1532 300 1570Q325 1581 354 1581H359L632 1296Q632 1253 612 1230Q576 1188 534 1188L210 1423Z" />
<glyph unicode="&#xe1;" glyph-name="aacute" horiz-adv-x="1045" d="M378 880Q390 854 390 821Q390 788 380 763Q368 738 350 720Q312 682 253 681Q160 681 126 763Q116 788 116 825Q116 861 137 893T192 948T270 985T359 1007Q438 1021 532 1021Q625 1021 693
991T802 910Q871 821 871 658V141H1039Q1066 141 1066 82Q1066 56 1056 31T1025 0Q969 -16 865 -16Q760 -16 748 -13T726 0Q707 17 688 69Q566 -20 394 -20Q240 -20 152 62Q69 138 69 261V264Q69 417 182 503Q281 579 429 579H676Q676 746 649 794T583 861T480
880H378ZM430 134Q556 134 676 234V429H458Q378 429 340 402Q271 354 271 291Q271 173 369 143Q398 134 430 134ZM522 1188Q480 1188 459 1212Q423 1253 423 1296L696 1581H699Q761 1581 802 1538Q845 1494 845 1423L522 1188Z" />
<glyph unicode="&#xe2;" glyph-name="acircumflex" horiz-adv-x="1045" d="M378 880Q390 854 390 821Q390 788 380 763Q368 738 350 720Q312 682 253 681Q160 681 126 763Q116 788 116 825Q116 861 137 893T192 948T270 985T359 1007Q438 1021 532 1021Q625 1021
693 991T802 910Q871 821 871 658V141H1039Q1066 141 1066 82Q1066 56 1056 31T1025 0Q969 -16 865 -16Q760 -16 748 -13T726 0Q707 17 688 69Q566 -20 394 -20Q240 -20 152 62Q69 138 69 261V264Q69 417 182 503Q281 579 429 579H676Q676 746 649 794T583 861T480
880H378ZM430 134Q556 134 676 234V429H458Q378 429 340 402Q271 354 271 291Q271 173 369 143Q398 134 430 134ZM244 1200Q210 1200 191 1222Q160 1260 160 1300L416 1477Q458 1505 486 1505Q522 1505 565 1477L821 1300Q821 1236 770 1208Q755 1200 737 1200L492
1317L244 1200Z" />
<glyph unicode="&#xe3;" glyph-name="atilde" horiz-adv-x="1045" d="M378 880Q390 854 390 821Q390 788 380 763Q368 738 350 720Q312 682 253 681Q160 681 126 763Q116 788 116 825Q116 861 137 893T192 948T270 985T359 1007Q438 1021 532 1021Q625 1021 693
991T802 910Q871 821 871 658V141H1039Q1066 141 1066 82Q1066 56 1056 31T1025 0Q969 -16 865 -16Q760 -16 748 -13T726 0Q707 17 688 69Q566 -20 394 -20Q240 -20 152 62Q69 138 69 261V264Q69 417 182 503Q281 579 429 579H676Q676 746 649 794T583 861T480
880H378ZM430 134Q556 134 676 234V429H458Q378 429 340 402Q271 354 271 291Q271 173 369 143Q398 134 430 134ZM151 1217Q112 1218 92 1238Q58 1272 57 1309Q122 1426 236 1483Q284 1507 336 1507Q387 1507 423 1485T495 1435T565 1385T635 1362Q668 1362 693
1377T739 1414T777 1457T808 1491Q846 1491 868 1470Q906 1434 906 1399Q852 1278 738 1219Q690 1194 642 1194Q593 1194 564 1204T508 1228T458 1260Q434 1278 412 1292Q358 1326 323 1327H320Q286 1327 261 1313Q234 1299 213 1281T177 1245T151 1217Z" />
<glyph unicode="&#xe4;" glyph-name="adieresis" horiz-adv-x="1045" d="M378 880Q390 854 390 821Q390 788 380 763Q368 738 350 720Q312 682 253 681Q160 681 126 763Q116 788 116 825Q116 861 137 893T192 948T270 985T359 1007Q438 1021 532 1021Q625 1021
693 991T802 910Q871 821 871 658V141H1039Q1066 141 1066 82Q1066 56 1056 31T1025 0Q969 -16 865 -16Q760 -16 748 -13T726 0Q707 17 688 69Q566 -20 394 -20Q240 -20 152 62Q69 138 69 261V264Q69 417 182 503Q281 579 429 579H676Q676 746 649 794T583 861T480
880H378ZM430 134Q556 134 676 234V429H458Q378 429 340 402Q271 354 271 291Q271 173 369 143Q398 134 430 134ZM114 1327Q114 1422 194 1456Q218 1466 248 1466Q278 1466 304 1456Q330 1444 348 1426Q387 1387 387 1330V1324Q387 1267 348 1228Q310 1190 264
1190Q188 1190 151 1229T114 1327ZM702 1190Q610 1190 577 1272Q567 1297 567 1327Q567 1422 647 1456Q672 1466 702 1466Q760 1466 800 1426Q838 1388 839 1327Q839 1233 757 1200Q732 1190 702 1190Z" />
<glyph unicode="&#xe5;" glyph-name="aring" horiz-adv-x="1045" d="M378 880Q390 854 390 821Q390 788 380 763Q368 738 350 720Q312 682 253 681Q160 681 126 763Q116 788 116 825Q116 861 137 893T192 948T270 985T359 1007Q438 1021 532 1021Q625 1021 693
991T802 910Q871 821 871 658V141H1039Q1066 141 1066 82Q1066 56 1056 31T1025 0Q969 -16 865 -16Q760 -16 748 -13T726 0Q707 17 688 69Q566 -20 394 -20Q240 -20 152 62Q69 138 69 261V264Q69 417 182 503Q281 579 429 579H676Q676 746 649 794T583 861T480
880H378ZM430 134Q556 134 676 234V429H458Q378 429 340 402Q271 354 271 291Q271 173 369 143Q398 134 430 134ZM257 1334Q257 1378 272 1416T316 1483Q378 1546 474 1546Q570 1546 632 1483Q691 1423 691 1336V1330Q691 1243 632 1184Q570 1122 474 1122Q378
1122 316 1184Q257 1243 257 1331V1334ZM396 1337Q396 1302 419 1278T478 1253Q513 1253 536 1277T560 1337Q560 1372 537 1396T478 1421Q443 1421 420 1397T396 1337Z" />
<glyph unicode="&#xe6;" glyph-name="ae" horiz-adv-x="1590" d="M380 871Q392 845 392 817Q392 788 382 763Q370 738 352 720Q314 682 255 681Q162 681 128 763Q118 788 118 825Q118 861 137 893T187 948T258 985Q296 999 338 1007Q411 1021 477 1021Q543 1021
586 1010Q630 1000 664 980Q732 942 766 880Q876 980 1024 1011Q1072 1021 1143 1021Q1214 1021 1287 990T1410 898Q1511 777 1511 558Q1511 512 1468 478T1358 444H837Q848 289 918 212T1099 134Q1203 134 1333 212L1403 253Q1408 255 1412 257T1426 259Q1435
259 1448 248T1473 219Q1498 180 1498 155Q1498 129 1488 122Q1305 -20 1089 -20Q872 -20 756 112L690 69Q554 -20 396 -20Q242 -20 154 62Q71 138 71 261V264Q71 419 184 510Q287 593 431 593H633Q642 674 642 691Q642 878 482 878H464Q452 878 437 877T406 875T380
871ZM680 235Q646 317 634 443H466Q383 443 328 400T273 303Q273 250 286 220Q298 192 320 172Q362 135 418 135Q421 134 424 134Q475 134 508 143Q543 151 573 165Q625 189 680 235ZM1307 594Q1306 804 1190 852Q1154 866 1111 867H1108Q1066 867 1019 850Q972
832 932 798Q843 720 835 594H1307Z" />
<glyph unicode="&#xe7;" glyph-name="ccedilla" horiz-adv-x="1004" d="M655 880H562Q458 880 383 801Q287 700 287 510Q287 232 442 158Q491 134 542 134Q593 134 634 145T714 174Q754 191 790 213L861 256Q865 259 875 259Q884 259 898 248T924 220Q950 182
950 157Q950 132 939 123Q748 -20 523 -20Q314 -20 196 125Q82 265 82 510Q82 750 227 890Q363 1020 574 1021Q800 1020 887 922Q920 884 920 841Q920 798 910 773Q898 748 880 730Q840 691 783 691Q726 691 686 730Q646 768 646 806Q646 844 655 880ZM570 -240Q570
-179 434 -179L395 -131L447 15H606L570 -90Q684 -110 724 -182Q738 -206 738 -236Q738 -440 370 -440Q350 -440 340 -420Q330 -402 330 -382Q330 -328 359 -328Q500 -328 552 -278Q570 -262 570 -240Z" />
<glyph unicode="&#xe8;" glyph-name="egrave" horiz-adv-x="1042" d="M81 514Q81 638 122 734Q162 828 230 892Q368 1020 571 1021H574Q760 1021 861 904Q962 788 962 569Q962 522 919 488Q877 455 813 455H286Q304 221 449 155Q495 134 546 134Q597 134 637 145T714
174T786 214Q859 260 872 260Q884 259 898 248Q910 236 922 220Q948 182 949 156V154Q949 130 938 122Q755 -20 522 -20Q313 -20 196 126Q81 268 81 514ZM757 605V609Q757 807 642 853Q606 867 562 867Q518 867 470 851Q422 834 382 802Q293 729 286 605H757ZM239
1423Q239 1532 329 1570Q354 1581 383 1581H388L661 1296Q660 1253 640 1230Q604 1188 563 1188L239 1423Z" />
<glyph unicode="&#xe9;" glyph-name="eacute" horiz-adv-x="1042" d="M81 514Q81 638 122 734Q162 828 230 892Q368 1020 571 1021H574Q760 1021 861 904Q962 788 962 569Q962 522 919 488Q877 455 813 455H286Q304 221 449 155Q495 134 546 134Q597 134 637 145T714
174T786 214Q859 260 872 260Q884 259 898 248Q910 236 922 220Q948 182 949 156V154Q949 130 938 122Q755 -20 522 -20Q313 -20 196 126Q81 268 81 514ZM757 605V609Q757 807 642 853Q606 867 562 867Q518 867 470 851Q422 834 382 802Q293 729 286 605H757ZM573
1188Q531 1188 510 1212Q474 1253 474 1296L747 1581H750Q812 1581 853 1538Q896 1494 896 1423L573 1188Z" />
<glyph unicode="&#xea;" glyph-name="ecircumflex" horiz-adv-x="1042" d="M81 514Q81 638 122 734Q162 828 230 892Q368 1020 571 1021H574Q760 1021 861 904Q962 788 962 569Q962 522 919 488Q877 455 813 455H286Q304 221 449 155Q495 134 546 134Q597 134
637 145T714 174T786 214Q859 260 872 260Q884 259 898 248Q910 236 922 220Q948 182 949 156V154Q949 130 938 122Q755 -20 522 -20Q313 -20 196 126Q81 268 81 514ZM757 605V609Q757 807 642 853Q606 867 562 867Q518 867 470 851Q422 834 382 802Q293 729 286
605H757ZM298 1200Q264 1200 245 1222Q214 1260 214 1300L470 1477Q512 1505 540 1505Q576 1505 619 1477L875 1300Q875 1236 824 1208Q809 1200 791 1200L546 1317L298 1200Z" />
<glyph unicode="&#xeb;" glyph-name="edieresis" horiz-adv-x="1042" d="M81 514Q81 638 122 734Q162 828 230 892Q368 1020 571 1021H574Q760 1021 861 904Q962 788 962 569Q962 522 919 488Q877 455 813 455H286Q304 221 449 155Q495 134 546 134Q597 134 637
145T714 174T786 214Q859 260 872 260Q884 259 898 248Q910 236 922 220Q948 182 949 156V154Q949 130 938 122Q755 -20 522 -20Q313 -20 196 126Q81 268 81 514ZM757 605V609Q757 807 642 853Q606 867 562 867Q518 867 470 851Q422 834 382 802Q293 729 286 605H757ZM206
1327Q206 1422 286 1456Q310 1466 340 1466Q370 1466 396 1456Q422 1444 440 1426Q479 1387 479 1330V1324Q479 1267 440 1228Q402 1190 356 1190Q280 1190 243 1229T206 1327ZM794 1190Q702 1190 669 1272Q659 1297 659 1327Q659 1422 739 1456Q764 1466 794 1466Q852
1466 892 1426Q930 1388 931 1327Q931 1233 849 1200Q824 1190 794 1190Z" />
<glyph unicode="&#xec;" glyph-name="igrave" horiz-adv-x="662" d="M22 1423Q22 1532 112 1570Q137 1581 166 1581H171L444 1296Q444 1253 424 1230Q388 1188 346 1188L22 1423ZM89 0Q63 0 63 61Q63 109 78 125T104 141H114Q231 141 246 164Q251 171 251 181V847H75Q46
848 36 898Q34 912 34 927Q34 973 61 983T132 1001T224 1012Q316 1020 401 1021H402Q444 1021 446 936V141H614Q640 141 640 80Q640 32 625 16T599 0H89Z" />
<glyph unicode="&#xed;" glyph-name="iacute" horiz-adv-x="662" d="M356 1188Q314 1188 293 1212Q257 1253 257 1296L530 1581H533Q595 1581 636 1538Q679 1494 679 1423L356 1188ZM89 0Q63 0 63 61Q63 109 78 125T104 141H114Q231 141 246 164Q251 171 251 181V847H75Q46
848 36 898Q34 912 34 927Q34 973 61 983T132 1001T224 1012Q316 1020 401 1021H402Q444 1021 446 936V141H614Q640 141 640 80Q640 32 625 16T599 0H89Z" />
<glyph unicode="&#xee;" glyph-name="icircumflex" horiz-adv-x="662" d="M89 0Q63 0 63 61Q63 109 78 125T104 141H114Q231 141 246 164Q251 171 251 181V847H75Q46 848 36 898Q34 912 34 927Q34 973 61 983T132 1001T224 1012Q316 1020 401 1021H402Q444 1021
446 936V141H614Q640 141 640 80Q640 32 625 16T599 0H89ZM59 1200Q25 1200 6 1222Q-25 1260 -25 1300L231 1477Q274 1505 302 1505Q338 1505 380 1477L636 1300Q636 1236 585 1208Q570 1200 552 1200L307 1317L59 1200Z" />
<glyph unicode="&#xef;" glyph-name="idieresis" horiz-adv-x="662" d="M-44 1327Q-44 1422 36 1456Q60 1466 90 1466Q120 1466 146 1456Q172 1444 190 1426Q229 1387 229 1330V1324Q229 1267 190 1228Q152 1190 106 1190Q30 1190 -7 1229T-44 1327ZM544 1190Q452
1190 419 1272Q409 1297 409 1327Q409 1422 489 1456Q514 1466 544 1466Q602 1466 642 1426Q680 1388 681 1327Q681 1233 599 1200Q574 1190 544 1190ZM89 0Q63 0 63 61Q63 109 78 125T104 141H114Q231 141 246 164Q251 171 251 181V847H75Q46 848 36 898Q34 912
34 927Q34 973 61 983T132 1001T224 1012Q316 1020 401 1021H402Q444 1021 446 936V141H614Q640 141 640 80Q640 32 625 16T599 0H89Z" />
<glyph unicode="&#xf0;" glyph-name="eth" horiz-adv-x="1113" d="M722 953Q666 1093 508 1232L307 1069L221 1174L401 1317Q305 1386 204 1435Q179 1447 179 1482Q179 1516 195 1540Q224 1583 253 1583Q276 1583 378 1526T539 1427L735 1583Q737 1583 748 1568L817
1483L647 1345Q927 1108 990 754Q1011 636 1011 505Q1011 374 974 276T871 112Q739 -20 513 -20Q310 -20 192 132Q78 278 78 510Q78 722 224 866Q362 1002 537 1002Q646 1002 722 953ZM806 506Q806 848 536 848Q440 848 368 766Q284 669 283 510V507Q283 234 438
158Q486 134 550 134Q613 134 661 163T742 244Q806 346 806 506Z" />
<glyph unicode="&#xf1;" glyph-name="ntilde" horiz-adv-x="1290" d="M773 0Q747 0 747 61Q747 109 762 125T788 141Q892 141 892 184V481Q892 675 870 735T814 821T720 847Q609 847 446 718V141H614Q640 141 640 80Q640 32 625 16T599 0H89Q63 0 63 61Q63 109
78 125T104 141H114Q229 141 245 164Q251 172 251 184V847H75Q44 848 36 896Q34 910 34 925Q34 971 60 981T128 1000Q169 1008 214 1012Q304 1022 349 1022H353Q397 1021 406 1012Q416 1002 420 986Q425 969 425 915V896Q576 980 700 1011Q740 1021 802 1021Q863
1021 925 995T1023 918Q1087 830 1087 638V141H1242Q1269 141 1269 80Q1269 32 1254 16T1228 0H773ZM323 1217Q284 1218 264 1238Q230 1272 229 1309Q294 1426 408 1483Q456 1507 508 1507Q559 1507 595 1485T667 1435T737 1385T807 1362Q840 1362 865 1377T911
1414T949 1457T980 1491Q1018 1491 1040 1470Q1078 1434 1078 1399Q1024 1278 910 1219Q862 1194 814 1194Q765 1194 736 1204T680 1228T630 1260Q606 1278 584 1292Q530 1326 495 1327H492Q458 1327 433 1313Q406 1299 385 1281T349 1245T323 1217Z" />
<glyph unicode="&#xf2;" glyph-name="ograve" horiz-adv-x="1093" d="M517 -20Q410 -20 329 20Q248 60 192 132Q80 277 80 512Q80 758 232 896Q370 1021 580 1021H583Q779 1021 898 872Q1012 730 1012 504Q1012 252 872 112Q740 -20 517 -20ZM334 757T310 688T285
517Q285 415 304 344Q324 274 358 228Q427 134 549 134Q675 134 744 244Q807 344 807 506Q806 777 648 846Q600 867 551 867Q501 867 456 852T372 797ZM244 1423Q244 1532 334 1570Q359 1581 388 1581H393L666 1296Q666 1253 646 1230Q610 1188 568 1188L244 1423Z"
/>
<glyph unicode="&#xf3;" glyph-name="oacute" horiz-adv-x="1093" d="M517 -20Q410 -20 329 20Q248 60 192 132Q80 277 80 512Q80 758 232 896Q370 1021 580 1021H583Q779 1021 898 872Q1012 730 1012 504Q1012 252 872 112Q740 -20 517 -20ZM334 757T310 688T285
517Q285 415 304 344Q324 274 358 228Q427 134 549 134Q675 134 744 244Q807 344 807 506Q806 777 648 846Q600 867 551 867Q501 867 456 852T372 797ZM579 1188Q537 1188 516 1212Q480 1253 480 1296L753 1581H756Q818 1581 859 1538Q902 1494 902 1423L579 1188Z"
/>
<glyph unicode="&#xf4;" glyph-name="ocircumflex" horiz-adv-x="1093" d="M517 -20Q410 -20 329 20Q248 60 192 132Q80 277 80 512Q80 758 232 896Q370 1021 580 1021H583Q779 1021 898 872Q1012 730 1012 504Q1012 252 872 112Q740 -20 517 -20ZM334 757T310
688T285 517Q285 415 304 344Q324 274 358 228Q427 134 549 134Q675 134 744 244Q807 344 807 506Q806 777 648 846Q600 867 551 867Q501 867 456 852T372 797ZM331 1200Q297 1200 278 1222Q247 1260 247 1300L503 1477Q546 1505 574 1505Q610 1505 652 1477L908
1300Q908 1236 857 1208Q842 1200 824 1200L579 1317L331 1200Z" />
<glyph unicode="&#xf5;" glyph-name="otilde" horiz-adv-x="1093" d="M240 1217Q203 1218 181 1238Q146 1272 146 1309Q220 1430 326 1483Q374 1507 425 1507Q476 1507 512 1485T584 1435T655 1385T725 1362Q758 1362 782 1377T828 1414T866 1457T898 1491Q936
1491 958 1470Q996 1434 996 1399Q942 1278 828 1219Q780 1194 731 1194Q682 1194 653 1204T597 1228T548 1260T502 1292Q448 1326 412 1327H409Q375 1327 350 1313Q323 1299 302 1281T266 1245T240 1217ZM517 -20Q410 -20 329 20Q248 60 192 132Q80 277 80 512Q80
758 232 896Q370 1021 580 1021H583Q779 1021 898 872Q1012 730 1012 504Q1012 252 872 112Q740 -20 517 -20ZM334 757T310 688T285 517Q285 415 304 344Q324 274 358 228Q427 134 549 134Q675 134 744 244Q807 344 807 506Q806 777 648 846Q600 867 551 867Q501
867 456 852T372 797Z" />
<glyph unicode="&#xf6;" glyph-name="odieresis" horiz-adv-x="1093" d="M517 -20Q410 -20 329 20Q248 60 192 132Q80 277 80 512Q80 758 232 896Q370 1021 580 1021H583Q779 1021 898 872Q1012 730 1012 504Q1012 252 872 112Q740 -20 517 -20ZM334 757T310 688T285
517Q285 415 304 344Q324 274 358 228Q427 134 549 134Q675 134 744 244Q807 344 807 506Q806 777 648 846Q600 867 551 867Q501 867 456 852T372 797ZM181 1327V1329Q181 1422 260 1456Q284 1466 315 1466Q345 1466 370 1456Q396 1444 414 1426Q454 1386 454 1327Q454
1268 414 1228Q376 1190 330 1190Q254 1190 218 1229T181 1327ZM769 1190Q677 1190 644 1272Q634 1297 634 1327Q634 1422 714 1456Q739 1466 769 1466Q828 1466 868 1426Q906 1388 906 1327Q906 1233 824 1200Q799 1190 769 1190Z" />
<glyph unicode="&#xf7;" glyph-name="divide" horiz-adv-x="1065" d="M610 856T585 846T516 836Q471 836 433 873T395 957Q395 1002 405 1027T433 1070Q471 1108 516 1108Q560 1108 585 1098T628 1070Q666 1033 667 988V983Q667 941 657 917Q647 892 629 874ZM395
324Q395 383 433 423T516 463Q560 463 585 453T628 423Q666 383 667 324Q667 231 585 198Q560 188 531 188Q501 188 476 198T433 226Q395 264 395 324ZM954 725Q980 725 990 675Q992 662 993 651Q993 604 979 588T954 571H112Q84 571 74 623Q72 636 72 648Q71 649
71 651Q71 661 74 673Q76 686 81 698Q93 725 111 725H954Z" />
<glyph unicode="&#xf8;" glyph-name="oslash" horiz-adv-x="1095" d="M907 864Q1015 721 1015 504Q1015 257 863 112Q725 -20 516 -20Q390 -20 295 44L233 -39Q214 -66 122 -66Q40 -66 40 -39L185 153Q83 299 83 512Q84 759 236 897Q374 1022 583 1022Q703 1022
798 964L857 1042Q874 1064 907 1065T951 1067Q961 1067 976 1066Q992 1066 1006 1064Q1040 1058 1040 1042L907 864ZM790 707L390 171Q448 134 533 134Q618 134 666 163T747 244Q810 344 810 490Q810 636 790 707ZM702 838Q646 871 575 871Q504 871 458 855Q413
838 375 798Q288 705 288 510Q288 382 304 311L702 838Z" />
<glyph unicode="&#xf9;" glyph-name="ugrave" horiz-adv-x="1234" d="M834 96Q675 -20 547 -20Q295 -20 223 182Q199 249 199 338V847H58Q21 847 21 923Q21 973 41 978Q209 1021 348 1021Q392 1021 394 941V411Q394 216 494 178Q524 166 569 166Q613 166 653 176T726
200Q756 215 780 232L823 264V847H686Q645 847 645 921Q645 968 671 978T736 997Q774 1004 815 1010Q893 1020 940 1021H943Q986 1021 996 1010Q1008 1000 1012 982Q1018 957 1018 894V141H1186Q1213 141 1213 76Q1213 6 1172 0Q1070 -16 990 -16Q910 -16 896 -8Q882
0 872 14Q856 36 834 96ZM293 1423Q293 1532 383 1570Q408 1581 437 1581H442L715 1296Q714 1253 694 1230Q658 1188 617 1188L293 1423Z" />
<glyph unicode="&#xfa;" glyph-name="uacute" horiz-adv-x="1234" d="M834 96Q675 -20 547 -20Q295 -20 223 182Q199 249 199 338V847H58Q21 847 21 923Q21 973 41 978Q209 1021 348 1021Q392 1021 394 941V411Q394 216 494 178Q524 166 569 166Q613 166 653 176T726
200Q756 215 780 232L823 264V847H686Q645 847 645 921Q645 968 671 978T736 997Q774 1004 815 1010Q893 1020 940 1021H943Q986 1021 996 1010Q1008 1000 1012 982Q1018 957 1018 894V141H1186Q1213 141 1213 76Q1213 6 1172 0Q1070 -16 990 -16Q910 -16 896 -8Q882
0 872 14Q856 36 834 96ZM627 1188Q585 1188 564 1212Q528 1253 528 1296L801 1581H804Q866 1581 907 1538Q950 1494 950 1423L627 1188Z" />
<glyph unicode="&#xfb;" glyph-name="ucircumflex" horiz-adv-x="1234" d="M834 96Q675 -20 547 -20Q295 -20 223 182Q199 249 199 338V847H58Q21 847 21 923Q21 973 41 978Q209 1021 348 1021Q392 1021 394 941V411Q394 216 494 178Q524 166 569 166Q613 166
653 176T726 200Q756 215 780 232L823 264V847H686Q645 847 645 921Q645 968 671 978T736 997Q774 1004 815 1010Q893 1020 940 1021H943Q986 1021 996 1010Q1008 1000 1012 982Q1018 957 1018 894V141H1186Q1213 141 1213 76Q1213 6 1172 0Q1070 -16 990 -16Q910
-16 896 -8Q882 0 872 14Q856 36 834 96ZM351 1200Q317 1200 298 1222Q267 1260 267 1300L523 1477Q566 1505 594 1505Q630 1505 672 1477L928 1300Q928 1236 877 1208Q862 1200 844 1200L599 1317L351 1200Z" />
<glyph unicode="&#xfc;" glyph-name="udieresis" horiz-adv-x="1234" d="M834 96Q675 -20 547 -20Q295 -20 223 182Q199 249 199 338V847H58Q21 847 21 923Q21 973 41 978Q209 1021 348 1021Q392 1021 394 941V411Q394 216 494 178Q524 166 569 166Q613 166 653
176T726 200Q756 215 780 232L823 264V847H686Q645 847 645 921Q645 968 671 978T736 997Q774 1004 815 1010Q893 1020 940 1021H943Q986 1021 996 1010Q1008 1000 1012 982Q1018 957 1018 894V141H1186Q1213 141 1213 76Q1213 6 1172 0Q1070 -16 990 -16Q910 -16
896 -8Q882 0 872 14Q856 36 834 96ZM227 1327V1329Q227 1422 306 1456Q330 1466 361 1466Q391 1466 416 1456Q442 1444 460 1426Q500 1386 500 1327Q500 1268 460 1228Q422 1190 376 1190Q300 1190 264 1229T227 1327ZM815 1190Q723 1190 690 1272Q680 1297 680
1327Q680 1422 760 1456Q785 1466 815 1466Q874 1466 914 1426Q952 1388 952 1327Q952 1233 870 1200Q845 1190 815 1190Z" />
<glyph unicode="&#xfd;" glyph-name="yacute" horiz-adv-x="1099" d="M1069 1001Q1094 1001 1094 944Q1094 892 1070 868Q1062 860 1046 860Q1029 860 1014 858Q1000 856 990 850Q974 841 965 817L543 -260Q511 -343 439 -391T262 -440Q122 -440 66 -348Q46 -314
46 -275Q45 -273 45 -272Q45 -235 56 -210Q66 -184 84 -166Q124 -126 171 -126H173Q221 -127 247 -140Q272 -154 288 -176Q316 -217 317 -286Q349 -286 372 -250T413 -173T443 -96T464 -31T476 6L144 860H32Q6 860 6 920Q6 969 20 985T45 1001H479Q504 1001 504
944Q504 893 489 877T463 860Q375 860 375 817L578 223L815 860H684Q658 860 658 918Q658 970 671 985T694 1001H1069ZM656 1188Q614 1188 593 1212Q557 1253 557 1296L830 1581H833Q895 1581 936 1538Q979 1494 979 1423L656 1188Z" />
<glyph unicode="&#xfe;" glyph-name="thorn" horiz-adv-x="1093" d="M-21 -438Q-48 -438 -48 -377Q-48 -329 -33 -313T-7 -297Q118 -297 135 -274Q141 -266 141 -254V1409H-36Q-64 1410 -74 1460Q-76 1474 -77 1489Q-77 1534 -50 1545T21 1564Q66 1571 114 1575Q211
1583 290 1583Q332 1583 335 1498Q336 1473 336 1446V938Q482 1021 586 1021Q690 1021 765 986T895 884Q1011 744 1011 506Q1011 258 874 118Q745 -14 536 -14Q454 -14 366 31Q346 41 336 45V-297H558Q585 -297 585 -358Q585 -406 570 -422T544 -438H-21ZM336 195Q405
140 524 140Q714 140 780 322Q806 394 806 503Q806 611 781 676T718 780Q652 847 558 847Q470 847 390 796Q360 777 336 749V195Z" />
<glyph unicode="&#xff;" glyph-name="ydieresis" horiz-adv-x="1099" d="M1069 1001Q1094 1001 1094 944Q1094 892 1070 868Q1062 860 1046 860Q1029 860 1014 858Q1000 856 990 850Q974 841 965 817L543 -260Q511 -343 439 -391T262 -440Q122 -440 66 -348Q46
-314 46 -275Q45 -273 45 -272Q45 -235 56 -210Q66 -184 84 -166Q124 -126 171 -126H173Q221 -127 247 -140Q272 -154 288 -176Q316 -217 317 -286Q349 -286 372 -250T413 -173T443 -96T464 -31T476 6L144 860H32Q6 860 6 920Q6 969 20 985T45 1001H479Q504 1001
504 944Q504 893 489 877T463 860Q375 860 375 817L578 223L815 860H684Q658 860 658 918Q658 970 671 985T694 1001H1069ZM230 1327Q230 1422 310 1456Q334 1466 364 1466Q394 1466 420 1456Q446 1444 464 1426Q503 1387 503 1330V1324Q503 1267 464 1228Q426
1190 380 1190Q304 1190 267 1229T230 1327ZM818 1190Q726 1190 693 1272Q683 1297 683 1327Q683 1422 763 1456Q788 1466 818 1466Q876 1466 916 1426Q954 1388 955 1327Q955 1233 873 1200Q848 1190 818 1190Z" />
<glyph unicode="&#x2013;" glyph-name="endash" horiz-adv-x="1103" d="M951 689Q978 689 988 639Q990 626 990 615Q990 570 976 553T951 535H154Q126 535 116 587Q114 600 114 612Q113 613 113 615Q113 625 116 637Q118 650 123 662Q135 689 153 689H951Z" />
<glyph unicode="&#x2014;" glyph-name="emdash" horiz-adv-x="1979" d="M1827 689Q1854 689 1864 638Q1866 625 1866 614Q1866 566 1852 551T1827 535H154Q126 535 116 586Q114 599 114 611Q113 612 113 614Q113 624 116 636Q118 649 123 661Q135 689 154 689H1827Z" />
<glyph unicode="&#x2018;" glyph-name="quoteleft" horiz-adv-x="443" d="M285 1329Q359 1290 359 1200Q358 1140 316 1100Q275 1060 231 1060Q230 1060 230 1061Q185 1061 158 1072Q130 1084 110 1102Q66 1142 66 1200Q66 1376 331 1583Q360 1583 375 1567T391
1524Q285 1405 285 1329Z" />
<glyph unicode="&#x2019;" glyph-name="quoteright" horiz-adv-x="447" d="M186 1315Q112 1354 112 1444Q112 1504 154 1544Q195 1584 240 1584H241Q286 1583 313 1572Q340 1560 360 1542Q404 1502 405 1444Q405 1268 140 1061Q111 1061 96 1077T80 1120Q186 1239
186 1315Z" />
<glyph unicode="&#x201a;" glyph-name="quotesinglbase" horiz-adv-x="505" d="M180 -16Q106 23 106 113Q106 172 148 212T235 252Q280 252 307 241T354 212Q398 172 399 113Q399 -63 134 -270Q105 -270 90 -254T74 -211Q180 -92 180 -16Z" />
<glyph unicode="&#x201c;" glyph-name="quotedblleft" horiz-adv-x="842" d="M285 1329Q359 1290 359 1200Q358 1140 316 1100Q275 1060 231 1060Q230 1060 230 1061Q185 1061 158 1072Q130 1084 110 1102Q66 1142 66 1200Q66 1376 331 1583Q360 1583 375 1567T391
1524Q285 1405 285 1329ZM684 1329Q758 1290 758 1200Q758 1140 716 1100Q675 1060 630 1060L629 1061Q584 1061 557 1072Q530 1084 510 1102Q466 1142 465 1200Q465 1376 730 1583Q759 1583 774 1567T790 1524Q684 1405 684 1329Z" />
<glyph unicode="&#x201d;" glyph-name="quotedblright" horiz-adv-x="845" d="M585 1315Q511 1354 511 1444Q512 1504 554 1544Q595 1584 639 1584H641Q685 1583 712 1572Q740 1560 760 1542Q804 1502 804 1444Q804 1268 539 1061Q510 1061 495 1077T479 1120Q585
1239 585 1315ZM186 1315Q112 1354 112 1444Q112 1504 154 1544Q195 1584 240 1584H241Q286 1583 313 1572Q340 1560 360 1542Q404 1502 405 1444Q405 1268 140 1061Q111 1061 96 1077T80 1120Q186 1239 186 1315Z" />
<glyph unicode="&#x201e;" glyph-name="quotedblbase" horiz-adv-x="904" d="M579 -16Q505 23 505 113Q506 172 548 212T635 252Q679 252 706 241Q734 230 754 212Q798 172 798 113Q798 -63 533 -270Q504 -270 489 -254T473 -211Q579 -92 579 -16ZM180 -16Q106
23 106 113Q106 172 148 212T235 252Q280 252 307 241T354 212Q398 172 399 113Q399 -63 134 -270Q105 -270 90 -254T74 -211Q180 -92 180 -16Z" />
<glyph unicode="&#x2022;" glyph-name="bullet" horiz-adv-x="713" d="M354 514Q300 514 254 533T173 587Q100 660 100 770Q100 882 173 956Q245 1030 354 1030Q464 1030 539 956T614 770Q614 660 539 587T354 514Z" />
<glyph unicode="&#x2039;" glyph-name="guilsinglleft" horiz-adv-x="686" d="M83 429Q43 462 43 502Q43 571 83 602L504 935Q535 935 556 913Q593 874 593 840L287 535L593 184Q593 150 573 129Q537 90 505 90L83 429Z" />
<glyph unicode="&#x203a;" glyph-name="guilsinglright" horiz-adv-x="686" d="M602 595Q643 562 643 523Q643 457 601 423L181 90Q151 90 130 112Q93 151 93 185L398 490L93 841Q93 875 112 897Q146 935 180 935L602 595Z" />
</font>
</defs>
</svg>
