<?xml version="1.0" standalone="no"?>
<!DOCTYPE svg PUBLIC "-//W3C//DTD SVG 1.1//EN" "http://www.w3.org/Graphics/SVG/1.1/DTD/svg11.dtd">
<svg xmlns="http://www.w3.org/2000/svg">
<defs >
<font id="Sansita" horiz-adv-x="475" ><font-face
    font-family="Sansita"
    units-per-em="1000"
    panose-1="3 6 5 2 3 6 2 2 5 6"
    ascent="1020"
    descent="-180"
    alphabetic="0" />
<glyph unicode=" " glyph-name="space" horiz-adv-x="175" />
<glyph unicode="!" glyph-name="exclam" horiz-adv-x="245" d="M158 680T173 664T188 613Q188 573 182 499L158 209Q146 200 125 200Q97 200 88 215T77 264L65 659Q76 669 92 674T125 680Q158 680 173 664ZM154 106T174 90T194 44Q194 13 173 -3T118 -20Q85 -20
65 -4T45 42Q45 73 66 89T121 106Q154 106 174 90Z" />
<glyph unicode="&quot;" glyph-name="quotedbl" horiz-adv-x="384" d="M60 626T46 704Q68 710 89 710Q133 710 150 690T168 623Q168 590 155 550T128 491H60Q60 626 46 704ZM230 626T216 704Q238 710 259 710Q303 710 321 690T339 623Q339 590 326 551T298 491H230Q230
626 216 704Z" />
<glyph unicode="#" glyph-name="numbersign" horiz-adv-x="541" d="M405 663T421 653V491H533Q542 471 542 456Q542 433 530 420T494 406H421V263H533Q542 243 542 228Q542 205 530 192T494 178H421V52Q421 26 407 13T366 0Q343 0 327 10V178H214V52Q214 26 199
13T158 0Q136 0 120 10V178H7Q-2 198 -2 213Q-2 236 11 249T47 263H120V406H7Q-2 426 -2 441Q-2 464 11 477T47 491H120V611Q120 637 134 650T175 663Q198 663 214 653V491H327V611Q327 637 342 650T383 663Q405 663 421 653ZM327 406H214V263H327V406Z" />
<glyph unicode="$" glyph-name="dollar" horiz-adv-x="541" d="M482 79T431 36T307 -18V-60Q307 -117 260 -117Q235 -117 221 -108V-20Q156 -12 108 21T60 124Q60 160 81 182T137 205Q172 205 189 189Q181 167 181 139Q181 44 272 44Q316 44 344 68T372 135Q372
166 356 191T315 234T247 279Q195 311 163 336T107 399T84 491Q84 567 130 606T240 657V697Q240 725 250 740T286 755Q309 755 326 746V658Q388 651 431 619T475 521Q475 485 454 463T397 440Q362 440 345 456Q353 478 353 506Q353 594 275 594Q237 594 216 576T194
521Q194 485 212 458T256 411T327 363Q377 333 408 309T460 249T482 165Q482 79 431 36Z" />
<glyph unicode="%" glyph-name="percent" horiz-adv-x="923" d="M660 687T674 677T698 651L319 11Q307 -9 296 -19T268 -29Q254 -29 240 -19T216 7L596 647Q607 667 618 677T646 687Q660 687 674 677ZM370 674T370 483Q370 386 332 333T208 280Q44 280 44 477Q44
570 83 622T208 674Q370 674 370 483ZM167 626T154 585T141 479Q141 410 153 370T208 330Q250 330 261 370T273 479Q273 543 261 584T208 626Q167 626 154 585ZM879 375T879 184Q879 87 841 34T717 -19Q553 -19 553 178Q553 271 592 323T717 375Q879 375 879 184ZM676
327T663 286T650 180Q650 111 661 71T717 31Q759 31 770 71T782 180Q782 244 770 285T717 327Q676 327 663 286Z" />
<glyph unicode="&amp;" glyph-name="ampersand" horiz-adv-x="681" d="M681 71T681 47Q681 13 657 -3T592 -20Q562 -20 526 -8T451 28Q377 -22 289 -22Q178 -22 109 30T40 184Q40 300 156 351Q110 440 110 510Q110 593 167 636T317 680Q500 680 500 554Q500 518
479 496T423 473Q388 473 371 489Q379 511 379 539Q379 610 308 610Q267 610 245 586T223 514Q223 459 256 392T342 260T454 146Q468 188 468 246Q468 312 425 358Q437 365 455 369T488 374Q540 374 562 343T585 257Q585 217 570 176T525 97Q576 74 611 74Q645
74 667 85Q681 71 681 47ZM163 132T204 92T315 51Q359 51 392 68Q338 111 285 169T192 288Q179 276 171 254T163 202Q163 132 204 92Z" />
<glyph unicode="&apos;" glyph-name="quotesingle" horiz-adv-x="214" d="M60 626T46 704Q68 710 89 710Q133 710 150 690T168 623Q168 590 155 550T128 491H60Q60 626 46 704Z" />
<glyph unicode="(" glyph-name="parenleft" horiz-adv-x="375" d="M416 800T429 779Q333 709 283 584T233 300Q233 141 283 16T429 -179Q416 -200 382 -200Q313 -200 250 -130T148 56T109 300Q109 428 147 543T249 729T382 800Q416 800 429 779Z" />
<glyph unicode=")" glyph-name="parenright" horiz-adv-x="374" d="M73 800T134 731T231 546T266 300Q266 170 231 55T135 -129T0 -199Q-36 -199 -54 -178Q42 -108 92 17T143 300Q143 458 93 583T-54 779Q-36 800 0 800Q73 800 134 731Z" />
<glyph unicode="*" glyph-name="asterisk" horiz-adv-x="427" d="M394 592T402 569Q405 560 405 553Q405 513 330 489Q306 482 284 478L375 382Q368 360 348 345Q335 336 322 336Q290 336 251 390Q234 411 214 454L142 321Q118 321 99 335Q79 349 79 371Q79 400
111 441Q126 462 146 482L22 505Q19 517 19 529Q19 540 22 550Q33 583 72 583Q92 583 127 572Q156 562 182 548L164 683Q184 697 207 697Q238 697 249 671T260 604Q260 580 255 548L375 605Q394 592 402 569Z" />
<glyph unicode="+" glyph-name="plus" horiz-adv-x="541" d="M477 263T477 248Q477 225 464 212T428 198H312V58Q312 32 298 19T257 6Q234 6 218 16V198H72Q63 218 63 233Q63 256 76 269T112 283H218V415Q218 441 233 454T274 467Q296 467 312 457V283H468Q477
263 477 248Z" />
<glyph unicode="," glyph-name="comma" horiz-adv-x="235" d="M153 98T173 76T193 12Q193 -20 178 -51T137 -101T80 -121Q59 -121 42 -114Q79 -59 79 8Q79 30 74 47T58 85Q81 98 114 98Q153 98 173 76Z" />
<glyph unicode="-" glyph-name="hyphen" horiz-adv-x="411" d="M48 207T48 232Q48 278 105 281L352 289Q357 281 360 270T363 249Q363 225 348 214T305 200L59 192Q48 207 48 232Z" />
<glyph unicode="." glyph-name="period" horiz-adv-x="241" d="M154 106T174 90T194 44Q194 13 173 -3T118 -20Q85 -20 65 -4T45 42Q45 73 66 89T121 106Q154 106 174 90Z" />
<glyph unicode="/" glyph-name="slash" horiz-adv-x="328" d="M292 798T292 753Q292 743 289 722L134 -196Q122 -200 97 -200Q36 -200 36 -155Q36 -145 39 -124L194 794Q206 798 231 798Q292 798 292 753Z" />
<glyph unicode="0" glyph-name="zero" horiz-adv-x="541" d="M395 680T449 586T503 339Q503 184 449 81T269 -22Q144 -22 91 75T37 327Q37 481 90 580T269 680Q395 680 449 586ZM335 48T356 124T377 332Q377 455 356 532T269 610Q205 610 184 533T163 332Q163
200 183 124T269 48Q335 48 356 124Z" />
<glyph unicode="1" glyph-name="one" horiz-adv-x="541" d="M499 74V0H66V74H246V532Q168 485 139 471T89 456Q35 456 35 522Q145 565 331 676L363 660V74H499Z" />
<glyph unicode="2" glyph-name="two" horiz-adv-x="541" d="M351 680T413 631T476 488Q476 433 453 383T374 273T215 127Q197 112 179 94L490 95L483 0H35L28 73Q131 153 239 267Q293 329 321 379T350 487Q350 535 317 561T232 588Q119 588 73 459Q53 468 45 486T34
538Q39 583 70 615T147 663T242 680Q351 680 413 631Z" />
<glyph unicode="3" glyph-name="three" horiz-adv-x="541" d="M337 679T398 639T460 518Q460 463 430 419T347 351Q414 338 454 296T495 190Q495 126 461 78T366 4T225 -22Q143 -22 86 10T29 110Q29 150 54 162Q99 70 223 70Q294 70 331 100T369 190Q369 249 330
277T223 305Q197 305 173 302V365Q247 367 294 399T341 494Q341 540 308 563T213 587Q162 587 127 562T77 488Q56 495 47 509T38 547Q38 590 67 620T141 664T234 679Q337 679 398 639Z" />
<glyph unicode="4" glyph-name="four" horiz-adv-x="541" d="M436 218H525L518 144H436V0H319V144H47Q30 144 20 155T10 186Q10 208 32 242L319 660H436V218ZM319 520L111 218H319V520Z" />
<glyph unicode="5" glyph-name="five" horiz-adv-x="541" d="M447 559H166L154 398Q199 403 246 403Q489 403 489 200Q489 136 456 86T365 7T234 -22Q144 -22 86 11T27 110Q27 150 52 162Q99 70 230 70Q293 70 328 104T363 200Q363 265 316 295T186 325Q133 325
59 311L85 660H440L447 559Z" />
<glyph unicode="6" glyph-name="six" horiz-adv-x="541" d="M374 680T416 657T459 591Q459 577 453 567T433 548Q393 589 328 589Q246 589 206 529T161 369Q177 407 218 428T310 449Q399 449 447 386T495 225Q495 155 468 99T389 10T270 -22Q37 -22 37 307Q37
405 69 490T165 628T320 680Q374 680 416 657ZM221 375T198 331T170 218Q173 148 196 98T270 48Q322 48 345 99T369 218Q369 278 344 326T270 375Q221 375 198 331Z" />
<glyph unicode="7" glyph-name="seven" horiz-adv-x="541" d="M515 660L522 587L246 -22L114 0L407 566L36 565L43 660H515Z" />
<glyph unicode="8" glyph-name="eight" horiz-adv-x="541" d="M477 470T442 429T351 357Q420 317 462 271T504 163Q504 69 440 24T270 -22Q167 -22 102 24T37 162Q37 219 76 267T176 343Q121 383 90 422T59 513Q59 594 119 637T271 680Q362 680 419 641T477 523Q477
470 442 429ZM190 486T217 457T294 394Q324 417 340 450T357 523Q357 562 333 586T271 610Q233 610 212 587T190 523Q190 486 217 457ZM373 182T354 208T308 254T231 305Q200 278 182 240T164 162Q164 109 191 79T270 48Q320 48 346 75T373 152Q373 182 354 208Z"
/>
<glyph unicode="9" glyph-name="nine" horiz-adv-x="541" d="M495 680T495 351Q495 253 463 168T367 30T212 -22Q158 -22 116 1T73 67Q73 81 79 91T99 110Q139 69 204 69Q288 69 327 129T371 289Q352 250 312 230T222 209Q133 209 85 272T37 433Q37 503 64 559T143
648T262 680Q495 680 495 351ZM210 610T187 559T163 440Q163 378 186 331T262 283Q316 283 339 327T362 440Q362 508 338 559T262 610Q210 610 187 559Z" />
<glyph unicode=":" glyph-name="colon" horiz-adv-x="251" d="M160 529T180 513T200 467Q200 436 179 420T124 403Q91 403 71 419T51 465Q51 496 72 512T127 529Q160 529 180 513ZM160 106T180 90T200 44Q200 13 179 -3T124 -20Q91 -20 71 -4T51 42Q51 73 72 89T127
106Q160 106 180 90Z" />
<glyph unicode=";" glyph-name="semicolon" horiz-adv-x="257" d="M166 529T186 513T206 467Q206 436 185 420T130 403Q97 403 77 419T57 465Q57 496 78 512T133 529Q166 529 186 513ZM165 98T185 76T205 12Q205 -20 190 -51T149 -101T92 -121Q71 -121 54 -114Q91
-59 91 8Q91 30 86 47T70 85Q93 98 126 98Q165 98 185 76Z" />
<glyph unicode="&lt;" glyph-name="less" horiz-adv-x="541" d="M419 135T427 120T436 90Q436 66 419 54T376 42L86 275L324 456Q342 469 354 475T381 482Q406 482 421 468T436 429L233 275L406 146Q419 135 427 120Z" />
<glyph unicode="=" glyph-name="equal" horiz-adv-x="541" d="M63 284T63 299Q63 322 76 335T112 349H468Q477 329 477 314Q477 291 464 278T428 264H72Q63 284 63 299ZM63 123T63 138Q63 161 76 174T112 188H468Q477 168 477 153Q477 130 464 117T428 103H72Q63
123 63 138Z" />
<glyph unicode="&gt;" glyph-name="greater" horiz-adv-x="541" d="M455 249L217 68Q196 54 185 48T160 42Q135 42 120 56T105 95L308 249L135 378Q122 389 114 404T105 434Q105 458 122 470T165 482L455 249Z" />
<glyph unicode="?" glyph-name="question" horiz-adv-x="414" d="M288 680T342 647T396 540Q396 501 381 468T344 409T286 348Q241 304 220 276T199 212Q195 208 184 206T162 203Q138 203 127 215T115 251Q115 276 131 300T183 366Q228 417 252 456T276 540Q276
576 257 598T197 620Q162 620 141 603T120 551Q120 533 129 502Q114 491 85 491Q47 491 25 510T2 566Q2 629 62 654T200 680Q288 680 342 647ZM195 106T215 90T235 44Q235 13 214 -3T159 -20Q126 -20 106 -4T86 42Q86 73 107 89T162 106Q195 106 215 90Z" />
<glyph unicode="@" glyph-name="at" horiz-adv-x="830" d="M523 601T606 566T738 459T786 286Q786 222 763 171T696 91T589 61Q555 61 526 72T481 109Q454 61 381 61Q330 61 296 90T262 168Q262 284 464 284V339Q464 374 456 391T419 409Q372 409 372 362Q372
345 378 328Q367 320 342 320Q315 320 297 333T279 372Q279 411 322 433T427 455Q498 455 527 425T556 321V151Q556 129 565 119T599 108Q651 108 672 149T693 261Q693 397 622 468T415 540Q329 540 267 504T171 401T138 248Q138 113 210 41T418 -32Q471 -32 513
-24T582 10Q599 -1 599 -24Q599 -62 546 -80T419 -98Q309 -98 224 -57T92 62T44 248Q44 351 89 431T218 556T415 601Q523 601 606 566ZM360 238T360 171Q360 147 373 132T409 117Q437 117 450 137T464 189V238Q360 238 360 171Z" />
<glyph unicode="A" glyph-name="A" horiz-adv-x="503" d="M332 660L503 0H385L345 168H149L110 0H0L183 660H332ZM167 242H328L247 585L167 242Z" />
<glyph unicode="B" glyph-name="B" horiz-adv-x="540" d="M465 466T440 429T376 369Q442 356 477 309T513 193Q513 126 476 81T378 13T244 -10Q160 -10 60 5V656Q178 664 248 664Q350 664 407 629T465 508Q465 466 440 429ZM200 386T228 386Q287 386 316 413T345
498Q345 594 241 594Q210 594 177 589V389Q200 386 228 386ZM213 60T244 60Q314 60 351 92T389 190Q389 265 349 291T222 318Q195 318 177 315V66Q213 60 244 60Z" />
<glyph unicode="C" glyph-name="C" horiz-adv-x="512" d="M209 610T185 531T160 332Q160 213 186 142T295 70Q347 70 384 99T437 179Q458 172 467 158T476 120Q476 75 449 43T378 -5T285 -22Q149 -22 92 72T34 327Q34 487 95 583T294 680Q382 680 434 645T487
534Q487 498 466 476T409 453Q374 453 357 469Q365 491 365 519Q365 610 285 610Q209 610 185 531Z" />
<glyph unicode="D" glyph-name="D" horiz-adv-x="564" d="M178 664T268 664Q530 664 530 346Q530 -10 244 -10Q160 -10 60 5V656Q178 664 268 664ZM314 60T350 95T397 187T408 332Q408 448 377 521T261 594Q224 594 177 589V66Q213 60 244 60Q314 60 350 95Z" />
<glyph unicode="E" glyph-name="E" horiz-adv-x="438" d="M395 660V586H177V376H365V302H177V74H409L402 0H60V660H395Z" />
<glyph unicode="F" glyph-name="F" horiz-adv-x="417" d="M395 660V586H177V362H365V288H177V0H60V660H395Z" />
<glyph unicode="G" glyph-name="G" horiz-adv-x="546" d="M216 610T188 531T160 332Q160 210 188 133T301 56Q348 56 387 69L383 303L492 317V19Q456 0 400 -11T298 -22Q156 -22 95 70T34 327Q34 489 98 584T305 680Q394 680 449 645T504 534Q504 498 483 476T426
453Q393 453 374 469Q382 491 382 519Q382 562 360 586T296 610Q216 610 188 531Z" />
<glyph unicode="H" glyph-name="H" horiz-adv-x="578" d="M518 660V0H401V297H177V0H60V660H177V371H401V660H518Z" />
<glyph unicode="I" glyph-name="I" horiz-adv-x="237" d="M177 660V0H60V660H177Z" />
<glyph unicode="J" glyph-name="J" horiz-adv-x="237" d="M177 -18T148 -89T36 -160Q7 -160 -15 -148T-38 -113Q20 -113 40 -66T60 59V660H177V95Q177 -18 148 -89Z" />
<glyph unicode="K" glyph-name="K" horiz-adv-x="495" d="M177 0H60V660H177V0ZM381 660H502L310 353L516 0H388L198 334L381 660Z" />
<glyph unicode="L" glyph-name="L" horiz-adv-x="400" d="M60 660H177V74H395L388 0H60V660Z" />
<glyph unicode="M" glyph-name="M" horiz-adv-x="729" d="M669 660V0H552V551L392 0H314L154 553V0H60V660H236L369 185L501 660H669Z" />
<glyph unicode="N" glyph-name="N" horiz-adv-x="568" d="M419 0L154 452V0H60V660H149L414 208V660H508V0H419Z" />
<glyph unicode="O" glyph-name="O" horiz-adv-x="581" d="M547 680T547 339Q547 -22 291 -22Q151 -22 93 71T34 327Q34 487 94 583T291 680Q547 680 547 339ZM371 48T396 127T421 332Q421 451 395 530T291 610Q212 610 186 531T160 332Q160 207 185 128T291 48Q371
48 396 127Z" />
<glyph unicode="P" glyph-name="P" horiz-adv-x="495" d="M485 387T434 334T297 280Q265 280 241 290T217 326Q293 326 329 361T365 470Q365 533 335 563T241 594Q210 594 177 589V0H60V656Q178 664 248 664Q362 664 423 620T485 474Q485 387 434 334Z" />
<glyph unicode="Q" glyph-name="Q" horiz-adv-x="581" d="M547 680T547 339Q547 -22 291 -22Q393 -45 460 -45Q485 -45 504 -41T539 -23Q562 -55 562 -81Q562 -113 541 -128T483 -143Q450 -143 417 -135T339 -111Q299 -98 272 -91T219 -84Q182 -84 164 -92Q157
-85 153 -76T149 -57Q149 -13 214 -13Q117 11 76 99T34 327Q34 487 94 583T291 680Q547 680 547 339ZM212 610T186 531T160 332Q160 207 185 128T291 48Q371 48 396 127T421 332Q421 451 395 530T291 610Q212 610 186 531Z" />
<glyph unicode="R" glyph-name="R" horiz-adv-x="531" d="M485 411T451 363T356 298L530 0H402L224 316Q218 327 218 336Q293 336 329 369T365 475Q365 535 335 564T241 594Q210 594 177 589V0H60V656Q178 664 248 664Q485 664 485 479Q485 411 451 363Z" />
<glyph unicode="S" glyph-name="S" horiz-adv-x="472" d="M330 680T382 647T435 541Q435 505 414 483T357 460Q322 460 305 476Q313 498 313 526Q313 614 235 614Q197 614 176 596T154 541Q154 508 171 481T213 433T283 382Q335 347 366 320T420 254T442 165Q442
76 381 27T223 -22Q135 -22 78 13T20 124Q20 160 41 182T97 205Q132 205 149 189Q142 169 142 139Q142 44 232 44Q276 44 304 68T332 135Q332 168 315 195T273 243T203 294Q151 329 120 356T66 422T44 511Q44 591 100 635T244 680Q330 680 382 647Z" />
<glyph unicode="T" glyph-name="T" horiz-adv-x="401" d="M420 660L413 586H259V0H142V586H-15V660H420Z" />
<glyph unicode="U" glyph-name="U" horiz-adv-x="547" d="M492 173T475 110T410 12T274 -22Q188 -22 141 6T74 92T55 241V660H172V252Q172 186 178 145T209 76T282 48Q331 48 355 77T385 151T391 263V660H492V274Q492 173 475 110Z" />
<glyph unicode="V" glyph-name="V" horiz-adv-x="479" d="M484 660L308 0H158L-5 660H113L244 75L374 660H484Z" />
<glyph unicode="W" glyph-name="W" horiz-adv-x="795" d="M800 660L638 0H488L391 474L294 0H144L-5 660H113L230 75L346 660H457L574 75L690 660H800Z" />
<glyph unicode="X" glyph-name="X" horiz-adv-x="516" d="M508 660L320 340L515 0H387L249 248L121 0H1L199 337L15 660H143L270 430L388 660H508Z" />
<glyph unicode="Y" glyph-name="Y" horiz-adv-x="504" d="M310 305V0H193V293L1 660H129L259 389L382 660H502L310 305Z" />
<glyph unicode="Z" glyph-name="Z" horiz-adv-x="420" d="M400 660L407 587L129 74H416L409 0H11L4 73L282 586H22L29 660H400Z" />
<glyph unicode="[" glyph-name="bracketleft" horiz-adv-x="301" d="M341 778T341 760Q341 724 297 724H197V-124H297Q341 -124 341 -160Q341 -178 335 -190H80V790H335Q341 778 341 760Z" />
<glyph unicode="\" glyph-name="backslash" horiz-adv-x="328" d="M122 798T134 794L289 -124Q292 -145 292 -155Q292 -200 231 -200Q206 -200 194 -196L39 722Q36 743 36 753Q36 798 97 798Q122 798 134 794Z" />
<glyph unicode="]" glyph-name="bracketright" horiz-adv-x="301" d="M-34 -190Q-40 -178 -40 -160Q-40 -124 4 -124H104V724H4Q-40 724 -40 760Q-40 778 -34 790H222V-190H-34Z" />
<glyph unicode="^" glyph-name="asciicircum" horiz-adv-x="478" d="M326 544T367 468T471 344Q455 295 409 295Q360 295 315 353T235 537Q189 409 149 352T68 295Q23 295 7 344Q72 381 121 465T198 660H300Q326 544 367 468Z" />
<glyph unicode="_" glyph-name="underscore" horiz-adv-x="508" d="M7 -120T7 -94Q7 -68 22 -57T66 -46H493Q501 -61 501 -86Q501 -134 443 -134H16Q7 -120 7 -94Z" />
<glyph unicode="`" glyph-name="grave" horiz-adv-x="239" d="M94 621Q58 637 34 656T10 702Q10 722 23 738T57 759L229 607L204 572L94 621Z" />
<glyph unicode="a" glyph-name="a" horiz-adv-x="500" d="M318 11T282 -5T199 -22Q130 -22 84 20T37 129Q37 291 326 291V378Q326 428 311 452T254 477Q219 477 196 459T173 407Q173 386 181 362Q167 351 141 351Q105 351 84 369T63 421Q63 469 117 499T261 530Q327
530 365 511T419 451T436 342V82Q436 33 467 16Q459 1 444 -7T408 -15Q379 -15 360 1T337 46Q318 11 282 -5ZM282 45T304 78T326 162V241Q157 241 157 133Q157 93 178 69T238 45Q282 45 304 78Z" />
<glyph unicode="b" glyph-name="b" horiz-adv-x="524" d="M180 599Q180 490 170 439Q189 481 227 505T311 530Q406 530 449 454T492 262Q492 134 437 56T268 -22Q219 -22 165 -10T70 25V700L180 712V599ZM224 38T273 38Q334 38 353 100T372 257Q372 342 354 397T278
453Q220 453 200 399T180 260V68Q224 38 273 38Z" />
<glyph unicode="c" glyph-name="c" horiz-adv-x="446" d="M148 471T148 253Q148 164 170 110T258 55Q302 55 333 78T376 145Q393 137 400 127T408 98Q408 62 385 35T324 -7T248 -22Q138 -22 85 49T32 242Q32 371 89 450T263 530Q331 530 375 502T419 416Q419 382
398 364T341 346Q330 346 319 349T300 357Q308 381 308 402Q308 471 248 471Q148 471 148 253Z" />
<glyph unicode="d" glyph-name="d" horiz-adv-x="527" d="M453 33T484 16Q476 1 461 -7T425 -15Q396 -15 377 1T354 46Q338 13 303 -4T226 -22Q124 -22 78 56T32 256Q32 382 86 456T256 530Q304 530 343 517V700L453 712V82Q453 33 484 16ZM297 470T251 470Q190
470 171 412T152 261Q152 172 174 109T255 45Q299 45 321 78T343 162V439Q297 470 251 470Z" />
<glyph unicode="e" glyph-name="e" horiz-adv-x="458" d="M411 130T411 98Q411 62 387 35T325 -7T248 -22Q138 -22 85 49T32 242Q32 371 89 450T264 530Q338 530 383 492T428 383Q428 296 368 261T203 226Q174 226 148 228Q151 149 174 102T258 55Q302 55 335
77T388 141Q411 130 411 98ZM194 473T172 417T148 278Q178 276 192 276Q318 276 318 377Q318 418 301 445T248 473Q194 473 172 417Z" />
<glyph unicode="f" glyph-name="f" horiz-adv-x="313" d="M76 -12V465H5V510H76L79 564Q88 720 257 720Q320 720 365 701T411 635Q411 601 390 583T333 565Q307 565 293 576Q301 600 301 621Q301 647 289 661T251 676Q212 676 199 647T185 564V510H294V465H186V0L76 -12Z" />
<glyph unicode="g" glyph-name="g" horiz-adv-x="519" d="M293 -141T315 -110T342 -34T347 77V104Q328 76 295 62T225 48Q127 48 82 114T36 291Q36 404 91 467T254 530Q304 530 355 511L453 522V101Q453 4 436 -61T371 -163T238 -200Q167 -200 117 -172T66 -86Q66
-52 87 -34T144 -16Q170 -16 184 -27Q177 -48 177 -72Q177 -141 247 -141Q293 -141 315 -110ZM296 470T250 470Q195 470 175 421T154 296Q154 215 174 165T254 115Q299 115 321 148T343 232V438Q296 470 250 470Z" />
<glyph unicode="h" glyph-name="h" horiz-adv-x="532" d="M180 599Q180 490 170 439Q191 484 229 507T318 530Q402 530 435 484T468 342V82Q468 33 499 16Q491 1 473 -7T435 -15Q396 -15 377 7T358 69V328Q358 391 344 422T282 453Q221 453 201 399T180 260V0H70V700L180
712V599Z" />
<glyph unicode="i" glyph-name="i" horiz-adv-x="244" d="M155 720T175 704T196 658Q196 627 175 611T119 594Q86 594 66 610T46 656Q46 687 67 703T122 720Q155 720 175 704ZM174 82Q174 33 205 16Q197 1 179 -7T140 -15Q102 -15 83 7T64 69V510H174V82Z" />
<glyph unicode="j" glyph-name="j" horiz-adv-x="247" d="M159 720T179 704T200 658Q200 627 179 611T123 594Q90 594 70 610T50 656Q50 687 71 703T126 720Q159 720 179 704ZM181 -200T41 -200Q13 -200 -8 -189T-29 -156Q27 -156 48 -111T70 7V510H181V35Q181
-200 41 -200Z" />
<glyph unicode="k" glyph-name="k" horiz-adv-x="477" d="M70 0V700L180 712V0H70ZM361 510H477L304 298L481 0H353L194 280L361 510Z" />
<glyph unicode="l" glyph-name="l" horiz-adv-x="252" d="M178 712V82Q178 33 209 16Q201 1 183 -7T144 -15Q106 -15 87 7T68 69V700L178 712Z" />
<glyph unicode="m" glyph-name="m" horiz-adv-x="809" d="M66 510L158 522L163 432Q182 480 221 505T314 530Q373 530 406 507T453 437Q492 530 595 530Q679 530 712 484T745 342V82Q745 33 776 16Q768 1 750 -7T712 -15Q673 -15 654 7T635 69V328Q635 391 621
422T559 453Q502 453 483 399T464 260V0H354V328Q354 391 340 422T278 453Q217 453 197 399T176 260V0H66V510Z" />
<glyph unicode="n" glyph-name="n" horiz-adv-x="528" d="M66 510L158 522L163 432Q182 480 221 505T314 530Q398 530 431 484T464 342V82Q464 33 495 16Q487 1 469 -7T431 -15Q392 -15 373 7T354 69V328Q354 391 340 422T278 453Q217 453 197 399T176 260V0H66V510Z" />
<glyph unicode="o" glyph-name="o" horiz-adv-x="503" d="M363 530T417 458T471 262Q471 131 419 55T251 -22Q137 -22 85 51T32 252Q32 376 86 453T251 530Q363 530 417 458ZM313 38T332 99T351 257Q351 346 331 408T251 470Q152 470 152 257Q152 160 170 99T251
38Q313 38 332 99Z" />
<glyph unicode="p" glyph-name="p" horiz-adv-x="523" d="M411 530T451 455T491 262Q491 134 436 56T267 -22Q219 -22 180 -9V-181L70 -193V510L162 522L167 432Q209 530 317 530Q411 530 451 455ZM226 453T203 412T180 307V69Q226 38 272 38Q333 38 352 100T371
257Q371 346 354 399T278 453Q226 453 203 412Z" />
<glyph unicode="q" glyph-name="q" horiz-adv-x="524" d="M344 -91Q344 -11 355 46Q339 13 304 -4T227 -22Q125 -22 79 56T32 256Q32 382 86 456T255 530Q305 530 356 511L454 522V-180L344 -192V-91ZM297 470T251 470Q190 470 171 412T152 261Q152 173 174 109T256
45Q300 45 322 78T344 162V438Q297 470 251 470Z" />
<glyph unicode="r" glyph-name="r" horiz-adv-x="395" d="M201 453T189 396T176 258V0H66V510L158 522L163 432Q177 477 212 503T293 530Q343 530 372 501T402 422Q402 341 324 341Q298 341 284 352Q291 378 291 397Q291 453 244 453Q201 453 189 396Z" />
<glyph unicode="s" glyph-name="s" horiz-adv-x="444" d="M198 477T180 462T162 417Q162 378 188 354T270 299Q314 275 340 256T386 208T405 136Q405 60 351 19T212 -22Q139 -22 90 3T40 86Q40 120 61 138T118 156Q144 156 158 145Q150 121 150 100Q150 68 170
50T224 31Q261 31 280 50T300 108Q300 147 274 171T192 226Q148 251 122 270T76 318T57 390Q57 457 111 493T242 530Q313 530 358 505T404 421Q404 387 383 369T325 351Q299 351 285 362Q293 386 293 407Q293 440 277 458T228 477Q198 477 180 462Z" />
<glyph unicode="t" glyph-name="t" horiz-adv-x="285" d="M5 465L4 495Q49 513 89 543T158 609H189V510H281V465H187V101Q187 71 198 56T233 37Q228 14 207 0T157 -15Q76 -15 76 77V465H5Z" />
<glyph unicode="u" glyph-name="u" horiz-adv-x="532" d="M462 82Q462 33 493 16Q485 1 470 -7T434 -15Q405 -15 386 1T363 46Q347 13 312 -4T235 -22Q163 -22 126 9T76 95T64 236V510H174V241Q174 180 178 141T203 73T264 45Q308 45 330 78T352 162V510H462V82Z" />
<glyph unicode="v" glyph-name="v" horiz-adv-x="422" d="M423 510L274 0H138L0 510H114L216 67L318 510H423Z" />
<glyph unicode="w" glyph-name="w" horiz-adv-x="691" d="M692 510L554 0H418L339 359L263 0H127L0 510H114L205 67L296 510H405L496 67L587 510H692Z" />
<glyph unicode="x" glyph-name="x" horiz-adv-x="446" d="M214 179L120 0H5L172 253L17 510H145L237 344L321 510H437L280 269L442 0H314L214 179Z" />
<glyph unicode="y" glyph-name="y" horiz-adv-x="423" d="M423 510L196 -193L86 -180L185 48H135L8 510H122L217 115L319 510H423Z" />
<glyph unicode="z" glyph-name="z" horiz-adv-x="380" d="M356 510L363 451L129 67L370 75L363 0H17L10 61L241 442L19 429L27 510H356Z" />
<glyph unicode="{" glyph-name="braceleft" horiz-adv-x="328" d="M265 800T308 793V748H284Q246 748 234 722T222 638V432Q222 378 203 348T141 311Q177 308 193 291T214 251T218 190V-19Q218 -73 229 -110T278 -147H302L299 -193Q251 -200 221 -200Q170 -200
145 -182T112 -134T104 -54V165Q104 221 91 250T31 280L33 336Q105 336 105 451V669Q105 718 115 746T152 787T227 800Q265 800 308 793Z" />
<glyph unicode="|" glyph-name="bar" horiz-adv-x="254" d="M179 800H75V-200H179V800Z" />
<glyph unicode="}" glyph-name="braceright" horiz-adv-x="380" d="M106 378T125 348T186 311Q150 308 134 291T114 252T110 190V-19Q110 -73 99 -110T50 -147H26L29 -193Q77 -200 107 -200Q158 -200 183 -182T216 -134T223 -54V165Q223 221 236 250T297 280L295
336Q258 336 240 366T222 451V669Q222 718 212 746T176 787T101 800Q63 800 20 793V748H44Q82 748 94 722T106 638V432Q106 378 125 348Z" />
<glyph unicode="~" glyph-name="asciitilde" horiz-adv-x="541" d="M355 251T329 256T277 267Q197 287 160 287Q124 287 102 273T80 234Q80 221 86 207T104 182Q110 192 129 199T169 206Q185 206 210 201T262 190Q344 170 380 170Q416 170 438 184T460 223Q460
236 454 250T436 275Q430 265 411 258T371 251Q355 251 329 256Z" />
<glyph unicode="&#xa0;" glyph-name="uni00A0" horiz-adv-x="175" />
<glyph unicode="&#xa1;" glyph-name="exclamdown" horiz-adv-x="245" d="M157 530T177 514T197 468Q197 437 176 421T121 404Q88 404 68 420T48 466Q48 497 69 513T124 530Q157 530 177 514ZM148 310T157 295T168 246L180 -149Q169 -159 153 -164T120 -170Q87
-170 72 -154T57 -103Q57 -63 63 11L87 301Q99 310 120 310Q148 310 157 295Z" />
<glyph unicode="&#xa2;" glyph-name="cent" horiz-adv-x="541" d="M465 202T472 192T480 163Q480 128 458 102T404 61T341 43V8Q341 -49 294 -49Q269 -49 255 -40V49Q173 67 124 129T74 307Q74 428 123 496T254 585V629Q254 657 264 672T300 687Q322 687 340 678V595Q397
594 444 569T491 481Q491 447 470 429T412 411Q386 411 372 422Q380 446 380 467Q380 536 319 536Q190 536 190 318Q190 229 218 175T330 120Q374 120 405 143T448 210Q465 202 472 192Z" />
<glyph unicode="&#xa3;" glyph-name="sterling" horiz-adv-x="541" d="M377 460T360 476Q368 498 368 526Q368 571 353 593T299 616Q260 616 247 587T233 504V401H395Q401 389 401 372Q401 338 359 338H233V210Q233 122 177 85H462L455 0H65L58 63Q96 77 110 103T125
176V338H58Q52 350 52 367Q52 401 94 401H125V504Q125 583 172 621T305 660Q391 660 440 636T489 541Q489 505 468 483T412 460Q377 460 360 476Z" />
<glyph unicode="&#xa4;" glyph-name="currency" horiz-adv-x="541" d="M436 278T415 242L500 160L433 98L353 185Q316 168 269 168Q222 168 186 185L107 98L40 160L124 243Q104 281 104 332Q104 381 125 421L23 508L76 571L179 477Q219 501 270 501Q321 501 361
477L463 571L516 508L415 421Q436 384 436 332Q436 278 415 242ZM314 235T338 263T363 334Q363 378 338 406T270 435Q228 435 203 407T177 334Q177 291 201 263T269 235Q314 235 338 263Z" />
<glyph unicode="&#xa5;" glyph-name="yen" horiz-adv-x="541" d="M328 249V178H454Q460 166 460 149Q460 115 418 115H328V0H211V115H83Q77 127 77 144Q77 178 119 178H211V249H83Q77 261 77 278Q77 312 119 312H200L19 660H147L277 389L400 660H521L332 312H454Q460
300 460 283Q460 249 418 249H328Z" />
<glyph unicode="&#xa6;" glyph-name="brokenbar" horiz-adv-x="255" d="M180 388V660H75V388H180ZM180 0V272H75V0H180Z" />
<glyph unicode="&#xa7;" glyph-name="section" horiz-adv-x="495" d="M369 63T388 32T407 -41Q407 -106 354 -142T222 -179Q156 -179 108 -153T60 -71Q60 -36 80 -19T133 -2Q160 -2 175 -13Q170 -35 170 -52Q170 -88 188 -108T241 -128Q270 -128 286 -113T303
-69Q303 -29 275 0T187 70Q141 103 114 125T68 180T48 253Q48 302 76 338T160 409Q126 437 107 469T88 545Q88 586 113 617T181 664T272 680Q337 680 386 653T436 571Q436 537 416 520T362 503Q336 503 321 514Q325 531 325 554Q325 589 309 609T258 629Q228 629
210 614T192 569Q192 531 220 502T307 432Q353 399 381 376T428 320T448 248Q448 199 418 162T334 91Q369 63 388 32ZM151 249T169 222T210 177T287 124Q316 145 330 165T344 216Q344 262 315 293T225 363L207 375Q179 355 165 335T151 285Q151 249 169 222Z" />
<glyph unicode="&#xa8;" glyph-name="dieresis" horiz-adv-x="369" d="M318 720T338 704T359 658Q359 627 338 611T282 594Q249 594 229 610T209 656Q209 687 230 703T285 720Q318 720 338 704ZM119 720T139 704T160 658Q160 627 139 611T83 594Q50 594 30 610T10
656Q10 687 31 703T86 720Q119 720 139 704Z" />
<glyph unicode="&#xa9;" glyph-name="copyright" horiz-adv-x="799" d="M501 615T582 570T710 445T756 263Q756 161 711 84T585 -36T400 -79Q296 -79 216 -37T90 83T44 263Q44 364 90 444T217 570T400 615Q501 615 582 570ZM318 553T259 516T169 414T138 263Q138
133 206 58T400 -17Q526 -17 594 58T662 263Q662 348 631 413T541 516T400 553Q318 553 259 516ZM466 468T499 447T532 382Q532 358 514 345T469 331Q447 331 434 339Q440 354 440 371Q440 395 433 407T405 420Q369 420 356 375T342 271Q342 210 357 173T418 136Q448
136 470 151T501 194Q513 189 518 182T524 162Q524 122 489 99T407 76Q325 76 284 125T243 263Q243 356 286 412T416 468Q466 468 499 447Z" />
<glyph unicode="&#xaa;" glyph-name="ordfeminine" horiz-adv-x="435" d="M283 674T312 644T342 540V356Q342 321 364 309Q351 283 316 283Q295 283 282 295T266 328Q239 280 166 280Q115 280 82 309T48 387Q48 503 249 503V558Q249 593 241 610T204 628Q157 628
157 581Q157 564 163 547Q152 539 127 539Q100 539 83 552T65 591Q65 630 108 652T212 674Q283 674 312 644ZM145 457T145 390Q145 366 158 351T194 336Q222 336 235 356T249 408V457Q145 457 145 390ZM373 216T373 202Q373 183 363 173T334 162H66Q59 178 59 192Q59
211 69 221T98 232H366Q373 216 373 202Z" />
<glyph unicode="&#xab;" glyph-name="guillemotleft" horiz-adv-x="493" d="M158 509H252L171 317L252 126H157L38 317L158 509ZM358 509H455L369 317L450 126H355L236 317L358 509Z" />
<glyph unicode="&#xac;" glyph-name="logicalnot" horiz-adv-x="541" d="M465 11Q441 0 425 0Q398 0 383 14T368 54V199H44Q35 219 35 234Q35 257 48 270T84 284H465V11Z" />
<glyph unicode="&#xad;" glyph-name="uni00AD" horiz-adv-x="411" d="M48 207T48 232Q48 278 105 281L352 289Q357 281 360 270T363 249Q363 225 348 214T305 200L59 192Q48 207 48 232Z" />
<glyph unicode="&#xae;" glyph-name="registered" horiz-adv-x="799" d="M501 680T582 635T710 510T756 328Q756 226 711 149T585 29T400 -14Q296 -14 216 28T90 148T44 328Q44 429 90 509T217 635T400 680Q501 680 582 635ZM318 618T259 581T169 479T138 328Q138
198 206 123T400 48Q526 48 594 123T662 328Q662 413 631 478T541 581T400 618Q318 618 259 581ZM470 531T509 508T548 425Q548 386 529 359T472 322L562 152H464L382 330Q379 335 379 341Q417 341 435 359T453 419Q453 486 389 486Q381 486 361 484V152H270V527Q338
531 400 531Q470 531 509 508Z" />
<glyph unicode="&#xaf;" glyph-name="overscore" horiz-adv-x="295" d="M285 674T285 656Q285 635 271 624T227 612H17Q10 628 10 648Q10 670 23 682T61 694H277Q285 674 285 656Z" />
<glyph unicode="&#xb0;" glyph-name="degree" horiz-adv-x="363" d="M134 370T96 390T36 446T14 529Q14 601 60 642T181 684Q256 684 302 643T349 529Q349 458 302 414T181 370Q134 370 96 390ZM220 426T238 455T256 529Q256 572 238 600T181 628Q144 628 126
600T107 529Q107 484 125 455T181 426Q220 426 238 455Z" />
<glyph unicode="&#xb1;" glyph-name="plusminus" horiz-adv-x="541" d="M452 309T452 294Q452 270 440 257T403 244H317V170Q317 144 303 131T262 118Q239 118 223 128V244H97Q88 264 88 279Q88 303 100 316T137 329H223V414Q223 440 237 453T278 466Q301 466
317 456V329H443Q452 309 452 294ZM424 93Q431 74 431 61Q431 14 386 14H112Q105 33 105 46Q105 93 150 93H424Z" />
<glyph unicode="&#xb2;" glyph-name="uni00B2" horiz-adv-x="360" d="M236 673T269 646T302 561Q302 530 291 506T254 455T170 369Q162 364 157 359T146 350H310L306 285H54L50 337L150 443Q178 474 194 500T210 557Q210 610 160 610Q130 610 109 593T78 546Q55
553 55 586Q55 629 90 651T176 673Q236 673 269 646Z" />
<glyph unicode="&#xb3;" glyph-name="uni00B3" horiz-adv-x="363" d="M227 672T260 651T293 581Q293 549 276 524T229 486Q268 478 290 455T313 395Q313 335 269 305T156 274Q111 274 81 292T50 349Q50 380 66 387Q91 336 156 336Q185 336 203 351T221 395Q221
454 151 454Q132 454 121 452V499Q159 499 182 516T206 567Q206 588 193 599T156 610Q129 610 111 596T83 554Q61 562 61 597Q61 634 93 653T171 672Q227 672 260 651Z" />
<glyph unicode="&#xb4;" glyph-name="acute" horiz-adv-x="239" d="M182 759Q202 754 215 738T229 702Q229 675 205 656T144 621L35 572L10 607L182 759Z" />
<glyph unicode="&#xb5;" glyph-name="uni00B5" horiz-adv-x="538" d="M468 33T499 16Q491 1 476 -7T440 -15Q411 -15 392 1T369 46Q353 13 318 -4T241 -22Q207 -22 180 -14V-180L70 -192V510L180 522V241Q180 180 184 141T209 73T270 45Q314 45 336 78T358 162V510H468V82Q468
33 499 16Z" />
<glyph unicode="&#xb6;" glyph-name="paragraph" horiz-adv-x="674" d="M178 -126T228 -126Q280 -126 299 -92T319 7V265Q281 254 243 254Q149 254 99 310T48 463Q48 575 116 622T312 670Q374 670 423 660V35Q423 -75 383 -137T248 -200Q198 -200 165 -180T131
-128Q131 -118 135 -110T146 -98Q178 -126 228 -126ZM713 620T697 602T641 583Q616 583 599 588V0L501 -15V660H713Q713 620 697 602Z" />
<glyph unicode="&#xb7;" glyph-name="middot" horiz-adv-x="241" d="M154 323T174 307T194 261Q194 230 173 214T118 197Q85 197 65 213T45 259Q45 290 66 306T121 323Q154 323 174 307Z" />
<glyph unicode="&#xb8;" glyph-name="cedilla" horiz-adv-x="246" d="M176 -64T206 -86T236 -154Q236 -198 197 -225T105 -253Q68 -253 39 -240T10 -197Q10 -181 20 -172Q45 -200 90 -200Q118 -200 136 -190T155 -157Q155 -131 133 -121T74 -111Q51 -111 32 -114L79
11H126L97 -65Q106 -64 125 -64Q176 -64 206 -86Z" />
<glyph unicode="&#xb9;" glyph-name="uni00B9" horiz-adv-x="335" d="M292 339V285H53V339H131V587Q121 577 106 571T78 565Q37 565 37 613Q72 623 116 642T190 680L219 671V339H292Z" />
<glyph unicode="&#xba;" glyph-name="ordmasculine" horiz-adv-x="435" d="M377 674T377 483Q377 386 339 333T215 280Q51 280 51 477Q51 570 90 622T215 674Q377 674 377 483ZM257 330T268 370T280 479Q280 543 268 584T215 626Q174 626 161 585T148 479Q148
410 159 370T215 330Q257 330 268 370ZM59 178T59 192Q59 211 69 221T98 232H366Q373 216 373 202Q373 183 363 173T334 162H66Q59 178 59 192Z" />
<glyph unicode="&#xbb;" glyph-name="guillemotright" horiz-adv-x="493" d="M135 509L257 317L138 126H43L124 317L38 509H135ZM336 509L456 317L337 126H241L322 317L241 509H336Z" />
<glyph unicode="&#xbc;" glyph-name="onequarter" horiz-adv-x="795" d="M510 720T510 682Q510 670 504 646L326 -89Q314 -91 301 -91Q251 -91 251 -53Q251 -41 257 -17L435 718Q447 720 460 720Q510 720 510 682ZM201 671V339H274V285H34V339H112V587Q102 577
87 571T59 565Q18 565 18 613Q53 623 97 642T171 680L201 671ZM723 138H776L772 84H723V0H635V84H489Q478 84 473 91T467 110Q467 121 478 141L625 388H723V138ZM635 305L540 138H635V305Z" />
<glyph unicode="&#xbd;" glyph-name="onehalf" horiz-adv-x="795" d="M529 720T529 682Q529 670 523 646L345 -89Q333 -91 320 -91Q270 -91 270 -53Q270 -41 276 -17L454 718Q466 720 479 720Q529 720 529 682ZM219 671V339H292V285H53V339H131V587Q121 577 106
571T78 565Q37 565 37 613Q72 623 116 642T190 680L219 671ZM690 388T723 361T756 276Q756 245 745 221T708 170T623 84L600 65H764L760 0H508L504 52L604 158Q632 189 648 215T664 272Q664 325 614 325Q584 325 563 308T532 261Q509 268 509 301Q509 344 544 366T630
388Q690 388 723 361Z" />
<glyph unicode="&#xbe;" glyph-name="threequarters" horiz-adv-x="795" d="M510 720T510 682Q510 670 504 646L326 -89Q314 -91 301 -91Q251 -91 251 -53Q251 -41 257 -17L435 718Q447 720 460 720Q510 720 510 682ZM208 672T241 651T274 581Q274 549 257 524T210
486Q249 478 271 455T294 395Q294 335 250 305T137 274Q92 274 62 292T31 349Q31 380 47 387Q72 336 137 336Q166 336 184 351T203 395Q203 425 184 439T132 454Q113 454 102 452V499Q140 499 163 516T187 567Q187 588 174 599T137 610Q110 610 92 596T64 554Q42
562 42 597Q42 634 74 653T152 672Q208 672 241 651ZM723 138H776L772 84H723V0H635V84H489Q478 84 473 91T467 110Q467 121 478 141L625 388H723V138ZM635 305L540 138H635V305Z" />
<glyph unicode="&#xbf;" glyph-name="questiondown" horiz-adv-x="414" d="M270 530T290 514T310 468Q310 437 289 421T234 404Q201 404 181 420T161 466Q161 497 182 513T237 530Q270 530 290 514ZM283 308T283 260Q283 235 267 211T215 145Q170 94 146 55T122
-29Q122 -65 141 -87T201 -109Q236 -109 257 -92T279 -40Q279 -22 270 9Q285 20 313 20Q352 20 374 1T396 -55Q396 -118 336 -143T198 -169Q111 -169 57 -136T2 -29Q2 10 17 43T55 102T113 163Q158 207 179 235T200 299Q204 303 215 305T237 308Q283 308 283 260Z"
/>
<glyph unicode="&#xc0;" glyph-name="Agrave" horiz-adv-x="503" d="M332 660L503 0H385L345 168H149L110 0H0L183 660H332ZM167 242H328L247 585L167 242ZM200 720Q149 724 120 737T90 786Q90 801 97 814T118 837L331 753L320 711L200 720Z" />
<glyph unicode="&#xc1;" glyph-name="Aacute" horiz-adv-x="503" d="M332 660L503 0H385L345 168H149L110 0H0L183 660H332ZM167 242H328L247 585L167 242ZM387 837Q400 828 408 815T416 786Q416 750 386 737T305 720L186 711L175 753L387 837Z" />
<glyph unicode="&#xc2;" glyph-name="Acircumflex" horiz-adv-x="503" d="M332 660L503 0H385L345 168H149L110 0H0L183 660H332ZM167 242H328L247 585L167 242ZM135 669L106 704L251 836H255L404 704L374 669L254 742L135 669Z" />
<glyph unicode="&#xc3;" glyph-name="Atilde" horiz-adv-x="503" d="M332 660L503 0H385L345 168H149L110 0H0L183 660H332ZM167 242H328L247 585L167 242ZM390 812T397 798T404 769Q404 745 387 733T343 720Q320 720 258 732Q200 744 181 744Q144 744 128 729Q115
737 108 751T101 780Q101 804 118 816T162 829Q190 829 248 816Q255 815 281 810T324 805Q361 805 377 820Q390 812 397 798Z" />
<glyph unicode="&#xc4;" glyph-name="Adieresis" horiz-adv-x="503" d="M332 660L503 0H385L345 168H149L110 0H0L183 660H332ZM167 242H328L247 585L167 242ZM387 836T407 820T428 774Q428 743 407 727T351 710Q318 710 298 726T278 772Q278 803 299 819T354
836Q387 836 407 820ZM188 836T208 820T229 774Q229 743 208 727T152 710Q119 710 99 726T79 772Q79 803 100 819T155 836Q188 836 208 820Z" />
<glyph unicode="&#xc5;" glyph-name="Aring" horiz-adv-x="503" d="M332 660L503 0H385L345 168H149L110 0H0L183 660H332ZM167 242H328L247 585L167 242ZM210 702T181 725T152 786Q152 824 180 845T252 867Q296 867 324 846T353 786Q353 748 324 725T252 702Q210
702 181 725ZM273 736T284 750T295 786Q295 807 284 820T252 833Q232 833 221 820T210 786Q210 764 220 750T252 736Q273 736 284 750Z" />
<glyph unicode="&#xc6;" glyph-name="AE" horiz-adv-x="675" d="M631 660V586H428V376H601V302H428V74H645L638 0H310V168H135L65 0H-46L255 660H631ZM310 586L166 242H310V586Z" />
<glyph unicode="&#xc7;" glyph-name="Ccedilla" horiz-adv-x="512" d="M458 172T467 158T476 120Q476 76 449 44T379 -4T287 -22L271 -65Q280 -64 299 -64Q350 -64 380 -86T410 -154Q410 -198 371 -225T279 -253Q242 -253 213 -240T184 -197Q184 -181 194 -172Q219
-200 264 -200Q292 -200 310 -190T329 -157Q329 -131 307 -121T248 -111Q225 -111 206 -114L242 -19Q129 -4 82 87T34 327Q34 487 95 583T294 680Q382 680 434 645T487 534Q487 498 466 476T409 453Q374 453 357 469Q365 491 365 519Q365 610 285 610Q209 610 185
531T160 332Q160 213 186 142T295 70Q347 70 384 99T437 179Q458 172 467 158Z" />
<glyph unicode="&#xc8;" glyph-name="Egrave" horiz-adv-x="438" d="M395 660V586H177V376H365V302H177V74H409L402 0H60V660H395ZM173 720Q122 724 93 737T63 786Q63 801 70 814T91 837L304 753L293 711L173 720Z" />
<glyph unicode="&#xc9;" glyph-name="Eacute" horiz-adv-x="438" d="M395 660V586H177V376H365V302H177V74H409L402 0H60V660H395ZM363 837Q376 828 384 815T392 786Q392 750 362 737T281 720L162 711L151 753L363 837Z" />
<glyph unicode="&#xca;" glyph-name="Ecircumflex" horiz-adv-x="438" d="M395 660V586H177V376H365V302H177V74H409L402 0H60V660H395ZM111 669L82 704L227 836H231L380 704L350 669L230 742L111 669Z" />
<glyph unicode="&#xcb;" glyph-name="Edieresis" horiz-adv-x="438" d="M395 660V586H177V376H365V302H177V74H409L402 0H60V660H395ZM363 836T383 820T404 774Q404 743 383 727T327 710Q294 710 274 726T254 772Q254 803 275 819T330 836Q363 836 383 820ZM164
836T184 820T205 774Q205 743 184 727T128 710Q95 710 75 726T55 772Q55 803 76 819T131 836Q164 836 184 820Z" />
<glyph unicode="&#xcc;" glyph-name="Igrave" horiz-adv-x="237" d="M177 660V0H60V660H177ZM320 720Q269 724 240 737T210 786Q210 801 217 814T238 837L451 753L440 711L320 720Z" />
<glyph unicode="&#xcd;" glyph-name="Iacute" horiz-adv-x="237" d="M177 660V0H60V660H177ZM254 837Q267 828 275 815T283 786Q283 750 253 737T172 720L53 711L42 753L254 837Z" />
<glyph unicode="&#xce;" glyph-name="Icircumflex" horiz-adv-x="237" d="M177 660V0H60V660H177ZM256 669L227 704L372 836H376L525 704L495 669L375 742L256 669Z" />
<glyph unicode="&#xcf;" glyph-name="Idieresis" horiz-adv-x="237" d="M177 660V0H60V660H177ZM252 836T272 820T293 774Q293 743 272 727T216 710Q183 710 163 726T143 772Q143 803 164 819T219 836Q252 836 272 820ZM309 836T329 820T350 774Q350 743 329 727T273
710Q240 710 220 726T200 772Q200 803 221 819T276 836Q309 836 329 820Z" />
<glyph unicode="&#xd0;" glyph-name="Eth" horiz-adv-x="574" d="M540 664T540 346Q540 -10 254 -10Q170 -10 70 5V297H-6Q-14 310 -14 334Q-14 377 39 377H70V656Q188 664 278 664Q540 664 540 346ZM324 60T360 95T407 187T418 332Q418 448 387 521T271 594Q234
594 187 589V377H320Q328 364 328 340Q328 297 275 297H187V66Q223 60 254 60Q324 60 360 95Z" />
<glyph unicode="&#xd1;" glyph-name="Ntilde" horiz-adv-x="568" d="M419 0L154 452V0H60V660H149L414 208V660H508V0H419ZM420 812T427 798T434 769Q434 745 417 733T373 720Q350 720 288 732Q230 744 211 744Q174 744 158 729Q145 737 138 751T131 780Q131 804
148 816T192 829Q220 829 278 816Q285 815 311 810T354 805Q391 805 407 820Q420 812 427 798Z" />
<glyph unicode="&#xd2;" glyph-name="Ograve" horiz-adv-x="581" d="M547 680T547 339Q547 -22 291 -22Q151 -22 93 71T34 327Q34 487 94 583T291 680Q547 680 547 339ZM371 48T396 127T421 332Q421 451 395 530T291 610Q212 610 186 531T160 332Q160 207 185
128T291 48Q371 48 396 127ZM237 720Q186 724 157 737T127 786Q127 801 134 814T155 837L368 753L357 711L237 720Z" />
<glyph unicode="&#xd3;" glyph-name="Oacute" horiz-adv-x="581" d="M547 680T547 339Q547 -22 291 -22Q151 -22 93 71T34 327Q34 487 94 583T291 680Q547 680 547 339ZM371 48T396 127T421 332Q421 451 395 530T291 610Q212 610 186 531T160 332Q160 207 185
128T291 48Q371 48 396 127ZM427 837Q440 828 448 815T456 786Q456 750 426 737T345 720L226 711L215 753L427 837Z" />
<glyph unicode="&#xd4;" glyph-name="Ocircumflex" horiz-adv-x="581" d="M547 680T547 339Q547 -22 291 -22Q151 -22 93 71T34 327Q34 487 94 583T291 680Q547 680 547 339ZM371 48T396 127T421 332Q421 451 395 530T291 610Q212 610 186 531T160 332Q160 207
185 128T291 48Q371 48 396 127ZM173 669L144 704L289 836H293L442 704L412 669L292 742L173 669Z" />
<glyph unicode="&#xd5;" glyph-name="Otilde" horiz-adv-x="581" d="M547 680T547 339Q547 -22 291 -22Q151 -22 93 71T34 327Q34 487 94 583T291 680Q547 680 547 339ZM371 48T396 127T421 332Q421 451 395 530T291 610Q212 610 186 531T160 332Q160 207 185
128T291 48Q371 48 396 127ZM428 812T435 798T442 769Q442 745 425 733T381 720Q358 720 296 732Q238 744 219 744Q182 744 166 729Q153 737 146 751T139 780Q139 804 156 816T200 829Q228 829 286 816Q293 815 319 810T362 805Q399 805 415 820Q428 812 435 798Z"
/>
<glyph unicode="&#xd6;" glyph-name="Odieresis" horiz-adv-x="581" d="M547 680T547 339Q547 -22 291 -22Q151 -22 93 71T34 327Q34 487 94 583T291 680Q547 680 547 339ZM371 48T396 127T421 332Q421 451 395 530T291 610Q212 610 186 531T160 332Q160 207 185
128T291 48Q371 48 396 127ZM425 836T445 820T466 774Q466 743 445 727T389 710Q356 710 336 726T316 772Q316 803 337 819T392 836Q425 836 445 820ZM226 836T246 820T267 774Q267 743 246 727T190 710Q157 710 137 726T117 772Q117 803 138 819T193 836Q226 836
246 820Z" />
<glyph unicode="&#xd7;" glyph-name="multiply" horiz-adv-x="541" d="M486 96T486 70Q486 46 469 34T426 22L274 182L161 49Q135 19 109 19Q84 19 69 33T54 72L210 248L113 344Q83 374 83 400Q83 424 100 436T143 448L269 314L359 416Q372 430 384 438T412 446Q436
446 451 432T467 393L333 248L456 126Q486 96 486 70Z" />
<glyph unicode="&#xd8;" glyph-name="Oslash" horiz-adv-x="581" d="M575 657T560 636L505 559Q547 476 547 339Q547 -22 291 -22Q189 -22 128 31L68 -53Q53 -50 34 -39T14 -11Q14 3 29 24L79 94Q34 177 34 327Q34 487 94 583T291 680Q395 680 457 623L521 713Q536
710 555 699T575 671Q575 657 560 636ZM160 264T165 215L393 534Q361 610 291 610Q212 610 186 531T160 332Q160 264 165 215ZM421 391T416 435L190 118Q222 48 291 48Q371 48 396 127T421 332Q421 391 416 435Z" />
<glyph unicode="&#xd9;" glyph-name="Ugrave" horiz-adv-x="547" d="M492 173T475 110T410 12T274 -22Q188 -22 141 6T74 92T55 241V660H172V252Q172 186 178 145T209 76T282 48Q331 48 355 77T385 151T391 263V660H492V274Q492 173 475 110ZM228 720Q177 724
148 737T118 786Q118 801 125 814T146 837L359 753L348 711L228 720Z" />
<glyph unicode="&#xda;" glyph-name="Uacute" horiz-adv-x="547" d="M492 173T475 110T410 12T274 -22Q188 -22 141 6T74 92T55 241V660H172V252Q172 186 178 145T209 76T282 48Q331 48 355 77T385 151T391 263V660H492V274Q492 173 475 110ZM418 837Q431 828
439 815T447 786Q447 750 417 737T336 720L217 711L206 753L418 837Z" />
<glyph unicode="&#xdb;" glyph-name="Ucircumflex" horiz-adv-x="547" d="M492 173T475 110T410 12T274 -22Q188 -22 141 6T74 92T55 241V660H172V252Q172 186 178 145T209 76T282 48Q331 48 355 77T385 151T391 263V660H492V274Q492 173 475 110ZM165 669L136
704L281 836H285L434 704L404 669L284 742L165 669Z" />
<glyph unicode="&#xdc;" glyph-name="Udieresis" horiz-adv-x="547" d="M492 173T475 110T410 12T274 -22Q188 -22 141 6T74 92T55 241V660H172V252Q172 186 178 145T209 76T282 48Q331 48 355 77T385 151T391 263V660H492V274Q492 173 475 110ZM417 836T437 820T458
774Q458 743 437 727T381 710Q348 710 328 726T308 772Q308 803 329 819T384 836Q417 836 437 820ZM218 836T238 820T259 774Q259 743 238 727T182 710Q149 710 129 726T109 772Q109 803 130 819T185 836Q218 836 238 820Z" />
<glyph unicode="&#xdd;" glyph-name="Yacute" horiz-adv-x="504" d="M310 305V0H193V293L1 660H129L259 389L382 660H502L310 305ZM394 837Q407 828 415 815T423 786Q423 750 393 737T312 720L193 711L182 753L394 837Z" />
<glyph unicode="&#xde;" glyph-name="Thorn" horiz-adv-x="495" d="M177 536Q225 538 248 538Q362 538 423 494T485 348Q485 261 434 208T297 154Q265 154 241 164T217 200Q293 200 329 235T365 344Q365 407 335 437T241 468Q210 468 177 463V0H60V660H177V536Z" />
<glyph unicode="&#xdf;" glyph-name="germandbls" horiz-adv-x="600" d="M70 641T125 680T282 720Q362 720 420 695T478 609Q478 580 460 557T407 502Q377 476 362 457T347 417Q347 378 373 354T455 299Q499 275 525 256T571 208T590 136Q590 60 536 19T397 -22Q324
-22 275 3T225 86Q225 120 246 138T303 156Q314 156 325 153T344 145Q336 121 336 100Q336 67 356 49T409 31Q446 31 465 50T485 108Q485 147 459 171T377 226Q333 251 307 270T261 318T242 390Q242 419 260 442T313 497Q343 523 358 542T373 582Q373 626 347 651T276
676Q221 676 201 645T180 549V95Q180 -140 41 -140Q13 -140 -8 -129T-29 -96Q27 -96 48 -51T70 67V549Q70 641 125 680Z" />
<glyph unicode="&#xe0;" glyph-name="agrave" horiz-adv-x="500" d="M318 11T282 -5T199 -22Q130 -22 84 20T37 129Q37 291 326 291V378Q326 428 311 452T254 477Q219 477 196 459T173 407Q173 386 181 362Q167 351 141 351Q105 351 84 369T63 421Q63 469 117
499T261 530Q327 530 365 511T419 451T436 342V82Q436 33 467 16Q459 1 444 -7T408 -15Q379 -15 360 1T337 46Q318 11 282 -5ZM282 45T304 78T326 162V241Q157 241 157 133Q157 93 178 69T238 45Q282 45 304 78ZM196 621Q160 637 136 656T112 702Q112 722 125 738T159
759L331 607L306 572L196 621Z" />
<glyph unicode="&#xe1;" glyph-name="aacute" horiz-adv-x="500" d="M318 11T282 -5T199 -22Q130 -22 84 20T37 129Q37 291 326 291V378Q326 428 311 452T254 477Q219 477 196 459T173 407Q173 386 181 362Q167 351 141 351Q105 351 84 369T63 421Q63 469 117
499T261 530Q327 530 365 511T419 451T436 342V82Q436 33 467 16Q459 1 444 -7T408 -15Q379 -15 360 1T337 46Q318 11 282 -5ZM282 45T304 78T326 162V241Q157 241 157 133Q157 93 178 69T238 45Q282 45 304 78ZM338 759Q358 754 371 738T385 702Q385 675 361 656T300
621L191 572L166 607L338 759Z" />
<glyph unicode="&#xe2;" glyph-name="acircumflex" horiz-adv-x="500" d="M318 11T282 -5T199 -22Q130 -22 84 20T37 129Q37 291 326 291V378Q326 428 311 452T254 477Q219 477 196 459T173 407Q173 386 181 362Q167 351 141 351Q105 351 84 369T63 421Q63 469
117 499T261 530Q327 530 365 511T419 451T436 342V82Q436 33 467 16Q459 1 444 -7T408 -15Q379 -15 360 1T337 46Q318 11 282 -5ZM282 45T304 78T326 162V241Q157 241 157 133Q157 93 178 69T238 45Q282 45 304 78ZM129 575L100 610L245 742H249L398 610L368 575L248
648L129 575Z" />
<glyph unicode="&#xe3;" glyph-name="atilde" horiz-adv-x="500" d="M318 11T282 -5T199 -22Q130 -22 84 20T37 129Q37 291 326 291V378Q326 428 311 452T254 477Q219 477 196 459T173 407Q173 386 181 362Q167 351 141 351Q105 351 84 369T63 421Q63 469 117
499T261 530Q327 530 365 511T419 451T436 342V82Q436 33 467 16Q459 1 444 -7T408 -15Q379 -15 360 1T337 46Q318 11 282 -5ZM282 45T304 78T326 162V241Q157 241 157 133Q157 93 178 69T238 45Q282 45 304 78ZM385 689T392 675T399 646Q399 622 382 610T338 597Q316
597 254 609Q196 621 176 621Q139 621 123 606Q110 614 103 628T96 657Q96 681 113 693T158 706Q182 706 242 694Q300 682 319 682Q356 682 373 697Q385 689 392 675Z" />
<glyph unicode="&#xe4;" glyph-name="adieresis" horiz-adv-x="500" d="M318 11T282 -5T199 -22Q130 -22 84 20T37 129Q37 291 326 291V378Q326 428 311 452T254 477Q219 477 196 459T173 407Q173 386 181 362Q167 351 141 351Q105 351 84 369T63 421Q63 469 117
499T261 530Q327 530 365 511T419 451T436 342V82Q436 33 467 16Q459 1 444 -7T408 -15Q379 -15 360 1T337 46Q318 11 282 -5ZM282 45T304 78T326 162V241Q157 241 157 133Q157 93 178 69T238 45Q282 45 304 78ZM382 720T402 704T423 658Q423 627 402 611T346 594Q313
594 293 610T273 656Q273 687 294 703T349 720Q382 720 402 704ZM183 720T203 704T224 658Q224 627 203 611T147 594Q114 594 94 610T74 656Q74 687 95 703T150 720Q183 720 203 704Z" />
<glyph unicode="&#xe5;" glyph-name="aring" horiz-adv-x="500" d="M318 11T282 -5T199 -22Q130 -22 84 20T37 129Q37 291 326 291V378Q326 428 311 452T254 477Q219 477 196 459T173 407Q173 386 181 362Q167 351 141 351Q105 351 84 369T63 421Q63 469 117 499T261
530Q327 530 365 511T419 451T436 342V82Q436 33 467 16Q459 1 444 -7T408 -15Q379 -15 360 1T337 46Q318 11 282 -5ZM282 45T304 78T326 162V241Q157 241 157 133Q157 93 178 69T238 45Q282 45 304 78ZM202 563T171 589T140 660Q140 704 170 729T248 754Q295 754
325 729T356 660Q356 616 325 590T248 563Q202 563 171 589ZM273 597T285 614T298 660Q298 687 286 703T248 720Q223 720 211 704T198 660Q198 632 210 615T248 597Q273 597 285 614Z" />
<glyph unicode="&#xe6;" glyph-name="ae" horiz-adv-x="746" d="M699 130T699 98Q699 62 675 35T613 -7T536 -22Q418 -22 362 66Q345 22 308 0T219 -22Q139 -22 88 17T37 129Q37 221 118 254T326 287V378Q326 428 311 452T254 477Q219 477 196 459T173 407Q173
386 181 362Q167 351 141 351Q105 351 84 369T63 421Q63 469 117 499T261 530Q314 530 348 518T404 478Q461 530 552 530Q626 530 671 492T716 383Q716 297 656 264T491 230Q462 230 436 232Q439 151 462 103T546 55Q590 55 623 77T676 141Q699 130 699 98ZM482
473T460 417T436 282L481 280Q542 280 574 302T607 377Q607 418 589 445T536 473Q482 473 460 417ZM326 237Q249 237 203 215T157 133Q157 93 178 69T238 45Q282 45 304 78T326 162V237Z" />
<glyph unicode="&#xe7;" glyph-name="ccedilla" horiz-adv-x="446" d="M393 137T400 127T408 98Q408 62 385 35T324 -7T248 -22H240L224 -65Q233 -64 252 -64Q303 -64 333 -86T363 -154Q363 -198 324 -225T232 -253Q195 -253 166 -240T137 -197Q137 -181 147 -172Q172
-200 217 -200Q245 -200 263 -190T282 -157Q282 -131 260 -121T201 -111Q178 -111 159 -114L195 -17Q112 0 72 68T32 242Q32 371 89 450T263 530Q331 530 375 502T419 416Q419 382 398 364T341 346Q330 346 319 349T300 357Q308 381 308 402Q308 471 248 471Q148
471 148 253Q148 164 170 110T258 55Q302 55 333 78T376 145Q393 137 400 127Z" />
<glyph unicode="&#xe8;" glyph-name="egrave" horiz-adv-x="458" d="M411 130T411 98Q411 62 387 35T325 -7T248 -22Q138 -22 85 49T32 242Q32 371 89 450T264 530Q338 530 383 492T428 383Q428 296 368 261T203 226Q174 226 148 228Q151 149 174 102T258 55Q302
55 335 77T388 141Q411 130 411 98ZM194 473T172 417T148 278Q178 276 192 276Q318 276 318 377Q318 418 301 445T248 473Q194 473 172 417ZM195 621Q159 637 135 656T111 702Q111 722 124 738T158 759L330 607L305 572L195 621Z" />
<glyph unicode="&#xe9;" glyph-name="eacute" horiz-adv-x="458" d="M411 130T411 98Q411 62 387 35T325 -7T248 -22Q138 -22 85 49T32 242Q32 371 89 450T264 530Q338 530 383 492T428 383Q428 296 368 261T203 226Q174 226 148 228Q151 149 174 102T258 55Q302
55 335 77T388 141Q411 130 411 98ZM194 473T172 417T148 278Q178 276 192 276Q318 276 318 377Q318 418 301 445T248 473Q194 473 172 417ZM337 759Q357 754 370 738T384 702Q384 675 360 656T299 621L190 572L165 607L337 759Z" />
<glyph unicode="&#xea;" glyph-name="ecircumflex" horiz-adv-x="458" d="M411 130T411 98Q411 62 387 35T325 -7T248 -22Q138 -22 85 49T32 242Q32 371 89 450T264 530Q338 530 383 492T428 383Q428 296 368 261T203 226Q174 226 148 228Q151 149 174 102T258
55Q302 55 335 77T388 141Q411 130 411 98ZM194 473T172 417T148 278Q178 276 192 276Q318 276 318 377Q318 418 301 445T248 473Q194 473 172 417ZM128 575L99 610L244 742H248L397 610L367 575L247 648L128 575Z" />
<glyph unicode="&#xeb;" glyph-name="edieresis" horiz-adv-x="458" d="M411 130T411 98Q411 62 387 35T325 -7T248 -22Q138 -22 85 49T32 242Q32 371 89 450T264 530Q338 530 383 492T428 383Q428 296 368 261T203 226Q174 226 148 228Q151 149 174 102T258 55Q302
55 335 77T388 141Q411 130 411 98ZM194 473T172 417T148 278Q178 276 192 276Q318 276 318 377Q318 418 301 445T248 473Q194 473 172 417ZM381 720T401 704T422 658Q422 627 401 611T345 594Q312 594 292 610T272 656Q272 687 293 703T348 720Q381 720 401 704ZM182
720T202 704T223 658Q223 627 202 611T146 594Q113 594 93 610T73 656Q73 687 94 703T149 720Q182 720 202 704Z" />
<glyph unicode="&#xec;" glyph-name="igrave" horiz-adv-x="244" d="M174 82Q174 33 205 16Q197 1 179 -7T140 -15Q102 -15 83 7T64 69V510H174V82ZM323 621Q287 637 263 656T239 702Q239 722 252 738T286 759L458 607L433 572L323 621Z" />
<glyph unicode="&#xed;" glyph-name="iacute" horiz-adv-x="244" d="M174 82Q174 33 205 16Q197 1 179 -7T140 -15Q102 -15 83 7T64 69V510H174V82ZM209 759Q229 754 242 738T256 702Q256 675 232 656T171 621L62 572L37 607L209 759Z" />
<glyph unicode="&#xee;" glyph-name="icircumflex" horiz-adv-x="244" d="M174 82Q174 33 205 16Q197 1 179 -7T140 -15Q102 -15 83 7T64 69V510H174V82ZM256 575L227 610L372 742H376L525 610L495 575L375 648L256 575Z" />
<glyph unicode="&#xef;" glyph-name="idieresis" horiz-adv-x="244" d="M174 82Q174 33 205 16Q197 1 179 -7T140 -15Q102 -15 83 7T64 69V510H174V82ZM253 720T273 704T294 658Q294 627 273 611T217 594Q184 594 164 610T144 656Q144 687 165 703T220 720Q253
720 273 704ZM310 720T330 704T351 658Q351 627 330 611T274 594Q241 594 221 610T201 656Q201 687 222 703T277 720Q310 720 330 704Z" />
<glyph unicode="&#xf0;" glyph-name="eth" horiz-adv-x="532" d="M331 720T391 647L478 678Q485 672 490 662T496 642Q496 632 488 625T461 610L424 596Q454 540 468 467T482 315Q482 167 430 74T257 -20Q187 -20 136 11T59 99T32 227Q32 347 90 420T258 493Q303
493 342 480Q337 528 326 561L233 527Q227 533 222 543T216 563Q214 583 245 594L296 613Q264 648 213 648Q199 648 184 644T159 633Q149 644 149 665Q149 691 173 705T236 720Q331 720 391 647ZM356 40T356 301Q356 343 355 364T351 403Q308 433 258 433Q196 433
177 374T158 234Q158 157 180 99T257 40Q356 40 356 301Z" />
<glyph unicode="&#xf1;" glyph-name="ntilde" horiz-adv-x="528" d="M66 510L158 522L163 432Q182 480 221 505T314 530Q398 530 431 484T464 342V82Q464 33 495 16Q487 1 469 -7T431 -15Q392 -15 373 7T354 69V328Q354 391 340 422T278 453Q217 453 197 399T176
260V0H66V510ZM421 689T428 675T435 646Q435 622 418 610T374 597Q352 597 290 609Q232 621 212 621Q175 621 159 606Q146 614 139 628T132 657Q132 681 149 693T194 706Q218 706 278 694Q336 682 355 682Q392 682 409 697Q421 689 428 675Z" />
<glyph unicode="&#xf2;" glyph-name="ograve" horiz-adv-x="503" d="M363 530T417 458T471 262Q471 131 419 55T251 -22Q137 -22 85 51T32 252Q32 376 86 453T251 530Q363 530 417 458ZM313 38T332 99T351 257Q351 346 331 408T251 470Q152 470 152 257Q152 160
170 99T251 38Q313 38 332 99ZM199 621Q163 637 139 656T115 702Q115 722 128 738T162 759L334 607L309 572L199 621Z" />
<glyph unicode="&#xf3;" glyph-name="oacute" horiz-adv-x="503" d="M363 530T417 458T471 262Q471 131 419 55T251 -22Q137 -22 85 51T32 252Q32 376 86 453T251 530Q363 530 417 458ZM313 38T332 99T351 257Q351 346 331 408T251 470Q152 470 152 257Q152 160
170 99T251 38Q313 38 332 99ZM341 759Q361 754 374 738T388 702Q388 675 364 656T303 621L194 572L169 607L341 759Z" />
<glyph unicode="&#xf4;" glyph-name="ocircumflex" horiz-adv-x="503" d="M363 530T417 458T471 262Q471 131 419 55T251 -22Q137 -22 85 51T32 252Q32 376 86 453T251 530Q363 530 417 458ZM313 38T332 99T351 257Q351 346 331 408T251 470Q152 470 152 257Q152
160 170 99T251 38Q313 38 332 99ZM132 575L103 610L248 742H252L401 610L371 575L251 648L132 575Z" />
<glyph unicode="&#xf5;" glyph-name="otilde" horiz-adv-x="503" d="M363 530T417 458T471 262Q471 131 419 55T251 -22Q137 -22 85 51T32 252Q32 376 86 453T251 530Q363 530 417 458ZM313 38T332 99T351 257Q351 346 331 408T251 470Q152 470 152 257Q152 160
170 99T251 38Q313 38 332 99ZM388 689T395 675T402 646Q402 622 385 610T341 597Q319 597 257 609Q199 621 179 621Q142 621 126 606Q113 614 106 628T99 657Q99 681 116 693T161 706Q185 706 245 694Q303 682 322 682Q359 682 376 697Q388 689 395 675Z" />
<glyph unicode="&#xf6;" glyph-name="odieresis" horiz-adv-x="503" d="M363 530T417 458T471 262Q471 131 419 55T251 -22Q137 -22 85 51T32 252Q32 376 86 453T251 530Q363 530 417 458ZM313 38T332 99T351 257Q351 346 331 408T251 470Q152 470 152 257Q152
160 170 99T251 38Q313 38 332 99ZM385 720T405 704T426 658Q426 627 405 611T349 594Q316 594 296 610T276 656Q276 687 297 703T352 720Q385 720 405 704ZM186 720T206 704T227 658Q227 627 206 611T150 594Q117 594 97 610T77 656Q77 687 98 703T153 720Q186
720 206 704Z" />
<glyph unicode="&#xf7;" glyph-name="divide" horiz-adv-x="541" d="M337 370T319 356T271 342Q242 342 225 355T207 393Q207 418 226 433T274 448Q303 448 320 434T337 395Q337 370 319 356ZM63 218T63 233Q63 256 76 269T112 283H468Q477 263 477 248Q477 225
464 212T428 198H72Q63 218 63 233ZM337 61T319 47T271 33Q242 33 225 46T207 84Q207 109 226 124T274 139Q303 139 320 125T337 86Q337 61 319 47Z" />
<glyph unicode="&#xf8;" glyph-name="oslash" horiz-adv-x="503" d="M495 531T480 510L430 439Q471 372 471 262Q471 131 419 55T251 -22Q174 -22 125 12L79 -53Q63 -50 44 -39T24 -11Q24 3 39 24L72 70Q32 137 32 252Q32 376 86 453T251 530Q327 530 376 496L441
587Q456 584 475 573T495 545Q495 531 480 510ZM152 210T154 185L324 423Q299 470 251 470Q152 470 152 257Q152 210 154 185ZM351 291T348 325L177 85Q202 38 251 38Q313 38 332 99T351 257Q351 291 348 325Z" />
<glyph unicode="&#xf9;" glyph-name="ugrave" horiz-adv-x="532" d="M462 82Q462 33 493 16Q485 1 470 -7T434 -15Q405 -15 386 1T363 46Q347 13 312 -4T235 -22Q163 -22 126 9T76 95T64 236V510H174V241Q174 180 178 141T203 73T264 45Q308 45 330 78T352 162V510H462V82ZM212
621Q176 637 152 656T128 702Q128 722 141 738T175 759L347 607L322 572L212 621Z" />
<glyph unicode="&#xfa;" glyph-name="uacute" horiz-adv-x="532" d="M462 82Q462 33 493 16Q485 1 470 -7T434 -15Q405 -15 386 1T363 46Q347 13 312 -4T235 -22Q163 -22 126 9T76 95T64 236V510H174V241Q174 180 178 141T203 73T264 45Q308 45 330 78T352 162V510H462V82ZM354
759Q374 754 387 738T401 702Q401 675 377 656T316 621L207 572L182 607L354 759Z" />
<glyph unicode="&#xfb;" glyph-name="ucircumflex" horiz-adv-x="532" d="M462 82Q462 33 493 16Q485 1 470 -7T434 -15Q405 -15 386 1T363 46Q347 13 312 -4T235 -22Q163 -22 126 9T76 95T64 236V510H174V241Q174 180 178 141T203 73T264 45Q308 45 330 78T352
162V510H462V82ZM145 575L116 610L261 742H265L414 610L384 575L264 648L145 575Z" />
<glyph unicode="&#xfc;" glyph-name="udieresis" horiz-adv-x="532" d="M462 82Q462 33 493 16Q485 1 470 -7T434 -15Q405 -15 386 1T363 46Q347 13 312 -4T235 -22Q163 -22 126 9T76 95T64 236V510H174V241Q174 180 178 141T203 73T264 45Q308 45 330 78T352
162V510H462V82ZM398 720T418 704T439 658Q439 627 418 611T362 594Q329 594 309 610T289 656Q289 687 310 703T365 720Q398 720 418 704ZM199 720T219 704T240 658Q240 627 219 611T163 594Q130 594 110 610T90 656Q90 687 111 703T166 720Q199 720 219 704Z"
/>
<glyph unicode="&#xfd;" glyph-name="yacute" horiz-adv-x="423" d="M423 510L196 -193L86 -180L185 48H135L8 510H122L217 115L319 510H423ZM308 759Q328 754 341 738T355 702Q355 675 331 656T270 621L161 572L136 607L308 759Z" />
<glyph unicode="&#xfe;" glyph-name="thorn" horiz-adv-x="523" d="M180 599Q180 490 170 439Q212 530 317 530Q411 530 451 455T491 262Q491 134 436 56T267 -22Q219 -22 180 -9V-181L70 -193V700L180 712V599ZM226 453T203 412T180 307V69Q226 38 272 38Q333
38 352 100T371 257Q371 346 354 399T278 453Q226 453 203 412Z" />
<glyph unicode="&#xff;" glyph-name="ydieresis" horiz-adv-x="423" d="M423 510L196 -193L86 -180L185 48H135L8 510H122L217 115L319 510H423ZM352 720T372 704T393 658Q393 627 372 611T316 594Q283 594 263 610T243 656Q243 687 264 703T319 720Q352 720 372
704ZM153 720T173 704T194 658Q194 627 173 611T117 594Q84 594 64 610T44 656Q44 687 65 703T120 720Q153 720 173 704Z" />
<glyph unicode="&#x2013;" glyph-name="endash" horiz-adv-x="442" d="M7 211T7 237Q7 284 65 284H426Q435 268 435 244Q435 197 376 197H16Q7 211 7 237Z" />
<glyph unicode="&#x2014;" glyph-name="emdash" horiz-adv-x="868" d="M7 211T7 237Q7 284 65 284H852Q861 268 861 244Q861 219 846 208T801 197H16Q7 211 7 237Z" />
<glyph unicode="&#x2018;" glyph-name="quoteleft" horiz-adv-x="233" d="M83 491T63 513T43 577Q43 609 58 640T99 690T156 710Q177 710 194 703Q157 648 157 581Q157 559 162 542T178 504Q155 491 122 491Q83 491 63 513Z" />
<glyph unicode="&#x2019;" glyph-name="quoteright" horiz-adv-x="232" d="M150 710T170 688T190 624Q190 592 175 561T134 511T77 491Q56 491 39 498Q76 553 76 620Q76 642 71 659T55 697Q78 710 111 710Q150 710 170 688Z" />
<glyph unicode="&#x201a;" glyph-name="quotesinglbase" horiz-adv-x="232" d="M150 98T170 76T190 12Q190 -20 175 -51T134 -101T77 -121Q56 -121 39 -114Q76 -59 76 8Q76 30 71 47T55 85Q78 98 111 98Q150 98 170 76Z" />
<glyph unicode="&#x201c;" glyph-name="quotedblleft" horiz-adv-x="422" d="M82 491T62 513T42 577Q42 609 57 640T98 690T155 710Q176 710 193 703Q156 648 156 581Q156 559 161 542T177 504Q154 491 121 491Q82 491 62 513ZM271 491T251 513T231 577Q231 609
246 640T288 690T345 710Q366 710 383 703Q346 648 346 581Q346 559 351 542T367 504Q344 491 311 491Q271 491 251 513Z" />
<glyph unicode="&#x201d;" glyph-name="quotedblright" horiz-adv-x="422" d="M150 710T170 688T190 624Q190 592 175 561T134 511T77 491Q56 491 39 498Q76 553 76 620Q76 642 71 659T55 697Q78 710 111 710Q150 710 170 688ZM340 710T360 688T380 624Q380 592
365 561T324 511T266 491Q245 491 228 498Q265 553 265 620Q265 642 260 659T244 697Q267 710 300 710Q340 710 360 688Z" />
<glyph unicode="&#x201e;" glyph-name="quotedblbase" horiz-adv-x="422" d="M150 98T170 76T190 12Q190 -20 175 -51T134 -101T77 -121Q56 -121 39 -114Q76 -59 76 8Q76 30 71 47T55 85Q78 98 111 98Q150 98 170 76ZM340 98T360 76T380 12Q380 -20 365 -51T324
-101T266 -121Q245 -121 228 -114Q265 -59 265 8Q265 30 260 47T244 85Q267 98 300 98Q340 98 360 76Z" />
<glyph unicode="&#x2022;" glyph-name="bullet" horiz-adv-x="253" d="M150 338T175 318T201 259Q201 220 174 199T105 178Q62 178 37 198T11 257Q11 296 38 317T109 338Q150 338 175 318Z" />
<glyph unicode="&#x2039;" glyph-name="guilsinglleft" horiz-adv-x="290" d="M158 509H252L171 317L252 126H157L38 317L158 509Z" />
<glyph unicode="&#x203a;" glyph-name="guilsinglright" horiz-adv-x="290" d="M252 317L133 126H38L119 317L38 509H132L252 317Z" />
</font>
</defs>
</svg>
