<?xml version="1.0" standalone="no"?>
<!DOCTYPE svg PUBLIC "-//W3C//DTD SVG 1.1//EN" "http://www.w3.org/Graphics/SVG/1.1/DTD/svg11.dtd">
<svg xmlns="http://www.w3.org/2000/svg">
<defs >
<font id="Amethysta" horiz-adv-x="1142" ><font-face
    font-family="Amethysta"
    units-per-em="2048"
    panose-1="2 0 0 0 0 0 0 0 0 0"
    ascent="2022"
    descent="-563"
    alphabetic="0" />
<glyph unicode=" " glyph-name="space" horiz-adv-x="696" />
<glyph unicode="!" glyph-name="exclam" horiz-adv-x="559" d="M281 225Q333 225 369 189T406 100Q406 47 370 10T281 -27Q227 -27 191 10T154 100T190 189T281 225ZM344 338H229L195 1536H379L344 338Z" />
<glyph unicode="&quot;" glyph-name="quotedbl" horiz-adv-x="688" d="M141 969L104 1499H270L229 969H141ZM428 969L391 1499H557L516 969H428Z" />
<glyph unicode="#" glyph-name="numbersign" horiz-adv-x="1405" d="M309 -43L174 -20L322 463H102V573H354L459 913H205V1024H494L657 1559L793 1536L635 1024H942L1106 1559L1241 1536L1083 1024H1352V913H1051L946 573H1249V463H911L758 -43L623 -20L770 463H463L309
-43ZM602 913L498 573H803L907 913H602Z" />
<glyph unicode="$" glyph-name="dollar" horiz-adv-x="1155" d="M532 -129V-2Q422 -1 333 13T139 59V410H188L283 150Q423 111 532 111V670Q316 767 225 867T133 1108Q133 1192 164 1259T250 1371T377 1442T532 1477V1606H625V1481Q772 1478 946 1434V1100H907L803
1348Q696 1368 625 1368V838Q860 725 941 637T1022 399Q1022 304 991 231T903 111T778 38T625 2V-129H532ZM825 346Q825 437 783 499T625 625V119Q714 136 769 191T825 346ZM328 1157Q328 1080 369 1019T532 887V1362Q435 1346 382 1295T328 1157Z" />
<glyph unicode="%" glyph-name="percent" horiz-adv-x="1765" d="M1114 305Q1114 262 1128 223T1169 155T1231 108T1309 90Q1351 90 1388 108T1452 156T1495 227T1511 311Q1511 355 1496 395T1454 465T1391 512T1313 530Q1272 530 1236 513T1172 465T1130 393T1114
305ZM684 1130Q684 1221 627 1285T485 1350Q401 1350 344 1284T287 1124Q287 1037 343 973T481 909Q566 909 625 974T684 1130ZM825 1130Q825 991 726 896T485 801Q340 801 247 889T154 1116Q154 1261 249 1354T487 1448Q635 1448 730 1360T825 1130ZM1653 311Q1653
173 1554 78T1313 -18Q1168 -18 1075 70T981 297Q981 442 1076 535T1315 629Q1462 629 1557 541T1653 311ZM1321 1475L623 -47H489L1188 1475H1321Z" />
<glyph unicode="&amp;" glyph-name="ampersand" horiz-adv-x="1540" d="M1051 721V762H1462V721L1323 655Q1243 441 1135 289L1298 111L1509 41V0H1126L999 137Q799 -41 535 -41Q448 -41 372 -19T236 45T141 156T106 313Q106 366 114 408T142 487T185 553T251
615T334 674T442 741L346 848Q242 964 242 1122Q242 1194 270 1261T347 1381T470 1465T631 1497Q804 1497 904 1401T1004 1169Q1004 1046 935 959T696 770L1067 365Q1144 480 1212 649L1051 721ZM602 78Q794 78 934 207L518 659Q328 520 328 340Q328 200 400 139T602
78ZM422 1176Q422 1070 483 1004L621 852Q746 935 791 1007T836 1165Q836 1275 782 1337T641 1399Q544 1399 483 1331T422 1176Z" />
<glyph unicode="&apos;" glyph-name="quotesingle" horiz-adv-x="401" d="M141 969L104 1499H270L229 969H141Z" />
<glyph unicode="(" glyph-name="parenleft" horiz-adv-x="659" d="M573 -428Q390 -271 279 -1T168 614Q168 957 279 1227T573 1657L627 1608Q497 1428 427 1167T356 614Q356 322 427 62T629 -379L573 -428Z" />
<glyph unicode=")" glyph-name="parenright" horiz-adv-x="659" d="M86 -428L30 -379Q160 -199 231 61T303 614Q303 905 233 1166T32 1608L86 1657Q268 1498 379 1228T491 614Q491 269 380 -1T86 -428Z" />
<glyph unicode="*" glyph-name="asterisk" horiz-adv-x="852" d="M397 1366L340 1681L381 1712H475L516 1681L459 1366H397ZM492 1262L725 1040L709 991L633 936L582 938L442 1227L492 1262ZM412 1227L274 936H223L147 991L133 1040L365 1264L412 1227ZM483 1348L766
1501L807 1470L836 1382L819 1333L502 1290L483 1348ZM354 1292L35 1333L20 1380L49 1470L92 1499L375 1348L354 1292Z" />
<glyph unicode="+" glyph-name="plus" horiz-adv-x="1270" d="M707 739H1167V608H707V141H567V608H102V739H567V1206H707V739Z" />
<glyph unicode="," glyph-name="comma" horiz-adv-x="555" d="M186 100Q186 152 223 188T313 225Q380 225 411 178T442 57Q442 -77 357 -184T145 -328L113 -266Q198 -226 256 -168T315 -45L313 -27Q260 -27 223 10T186 100Z" />
<glyph unicode="-" glyph-name="hyphen" horiz-adv-x="840" d="M102 676H737V553H102V676Z" />
<glyph unicode="." glyph-name="period" horiz-adv-x="477" d="M240 225Q292 225 328 189T365 100Q365 47 329 10T240 -27Q186 -27 150 10T113 100T149 189T240 225Z" />
<glyph unicode="/" glyph-name="slash" horiz-adv-x="856" d="M55 -377H-102L801 1536H958L55 -377Z" />
<glyph unicode="0" glyph-name="zero" horiz-adv-x="1288" d="M637 1403Q567 1403 517 1378T430 1307T372 1199T337 1062T320 904T315 733Q315 647 319 565T336 409T371 273T430 165T517 94T637 68Q705 68 755 93T840 163T897 270T932 407T949 564T954 735Q954
821 950 904T933 1061T898 1198T841 1306T755 1377T637 1403ZM625 -41Q488 -41 388 17T228 181T141 425T113 733Q113 903 145 1043T241 1290T409 1456T651 1516Q760 1516 846 1477T989 1369T1085 1201T1140 987T1157 735Q1157 566 1126 427T1031 182T864 18T625
-41Z" />
<glyph unicode="1" glyph-name="one" horiz-adv-x="879" d="M94 1221L72 1309L483 1499H561V119L766 78V0H106V78L373 119V1286L94 1221Z" />
<glyph unicode="2" glyph-name="two" horiz-adv-x="1157" d="M1042 393V0H92V131L502 547Q774 823 774 1106Q774 1248 696 1325T467 1403Q392 1403 297 1382L190 1085H129V1454Q288 1516 489 1516Q591 1516 677 1497T835 1435T948 1316T989 1137Q989 1070 985
1027T962 924T907 807T806 671T645 498L309 162H903L971 393H1042Z" />
<glyph unicode="3" glyph-name="three" horiz-adv-x="1081" d="M113 27V408H164L272 111Q370 68 459 68Q603 68 686 141T770 373Q770 516 686 605T473 694H369V831H471Q545 831 600 878T681 991T707 1128Q707 1401 434 1401Q369 1401 287 1384L180 1087H119V1456Q280
1516 453 1516Q525 1516 588 1505T710 1467T811 1399T878 1292T903 1143Q903 1034 835 932T651 780V772Q730 746 784 716T882 640T947 528T969 373Q969 238 900 144T714 4T444 -41Q273 -41 113 27Z" />
<glyph unicode="4" glyph-name="four" horiz-adv-x="1149" d="M721 1516H860V471H1057V313H860V0H676V313H10V475L721 1516ZM164 471H676V1233L164 471Z" />
<glyph unicode="5" glyph-name="five" horiz-adv-x="1053" d="M92 27V408H143L252 111Q348 68 438 68Q506 68 566 87T674 143T751 243T780 387Q780 449 771 502T736 610T669 705T556 768T391 793Q283 793 133 760V1475H922V1317H272V903Q398 928 500 928Q609 928
694 899T832 823T919 713T967 588T981 461Q981 345 934 249T808 91T626 -6T408 -41Q248 -41 92 27Z" />
<glyph unicode="6" glyph-name="six" horiz-adv-x="1212" d="M629 68Q689 68 745 92T844 165T912 288T938 461Q938 563 911 634T839 750T734 815T608 836Q478 836 324 764Q322 747 321 721T319 659Q319 525 335 416T387 230T482 110T629 68ZM907 1419Q678 1419
524 1266T332 836Q519 965 676 965Q875 965 1008 831T1141 473Q1141 319 1072 201T887 21T629 -41Q373 -41 243 140T113 668Q113 799 142 923T231 1154T372 1342T566 1469T805 1516Q918 1516 1032 1489L1022 1411Q973 1419 907 1419Z" />
<glyph unicode="7" glyph-name="seven" horiz-adv-x="1083" d="M971 1401L483 0H272L799 1315H180L137 1104H31V1475H971V1401Z" />
<glyph unicode="8" glyph-name="eight" horiz-adv-x="1149" d="M993 1137Q993 1042 923 953T731 791Q798 757 840 732T928 671T999 597T1041 508T1057 393Q1057 313 1023 236T927 97T773 -3T569 -41Q460 -41 368 -5T217 92T125 230T92 389Q92 511 165 616T385
782Q254 849 201 935T147 1130Q147 1221 183 1296T280 1418T414 1490T569 1516Q770 1516 881 1413T993 1137ZM553 694L469 737Q370 683 327 604T283 395Q283 251 362 160T569 68Q696 68 774 157T852 362Q852 405 841 441T799 521T707 607T553 694ZM346 1155Q346
1060 405 993T625 844L653 829Q725 887 766 965T807 1114Q807 1245 747 1325T569 1405Q468 1405 407 1338T346 1155Z" />
<glyph unicode="9" glyph-name="nine" horiz-adv-x="1212" d="M305 55Q534 55 688 208T881 639Q695 510 537 510Q338 510 205 644T72 1001Q72 1156 141 1274T326 1454T584 1516Q840 1516 970 1335T1100 807Q1100 676 1071 552T982 321T841 133T647 6T408 -41Q288
-41 180 -14L190 63Q239 55 305 55ZM584 1407Q524 1407 470 1383T371 1313T300 1190T274 1014Q274 915 300 841T373 724T477 660T604 639Q735 639 889 711Q893 745 893 815Q893 952 877 1057T826 1242T730 1365T584 1407Z" />
<glyph unicode=":" glyph-name="colon" horiz-adv-x="559" d="M281 227Q306 227 329 217T369 190T396 150T406 102Q406 76 397 53T370 13T330 -15T281 -25Q254 -25 231 -15T191 12T164 52T154 102Q154 129 164 151T191 191T231 217T281 227ZM281 1036Q333 1036
369 1000T406 911Q406 858 370 821T281 784Q227 784 191 821T154 911T190 1000T281 1036Z" />
<glyph unicode=";" glyph-name="semicolon" horiz-adv-x="637" d="M362 1036Q414 1036 450 1000T487 911T451 821T362 784Q309 784 273 821T236 911T272 1000T362 1036ZM227 100Q227 152 264 188T354 225Q421 225 452 178T483 57Q483 -77 398 -184T186 -328L154
-266Q239 -226 297 -168T356 -45L354 -27Q301 -27 264 10T227 100Z" />
<glyph unicode="&lt;" glyph-name="less" horiz-adv-x="1229" d="M92 618V725L1075 1217V1051L276 672L1075 285V121L92 618Z" />
<glyph unicode="=" glyph-name="equal" horiz-adv-x="1272" d="M102 889H1169V766H102V889ZM102 535H1169V412H102V535Z" />
<glyph unicode="&gt;" glyph-name="greater" horiz-adv-x="1229" d="M1137 725V618L154 121V285L952 672L154 1051V1217L1137 725Z" />
<glyph unicode="?" glyph-name="question" horiz-adv-x="1014" d="M953 1156Q950 912 752 745L526 545V356H424V600L621 811Q680 882 708 961T737 1125Q737 1272 643 1342T426 1402Q351 1402 281 1382L174 1085H113V1455Q280 1516 464 1516Q693 1516 821 1421T953
1156ZM475 -27Q423 -27 387 9T350 98Q350 151 386 188T475 225Q529 225 565 188T602 98T566 9T475 -27Z" />
<glyph unicode="@" glyph-name="at" horiz-adv-x="1894" d="M1141 266V395L1135 397Q1065 307 1024 266T933 204T813 182Q748 182 701 208T627 281T588 384T575 506Q575 576 591 645T641 785T733 915T869 1020T1059 1089T1305 1108V315Q1377 315 1435 343T1532
420T1597 536T1635 679T1647 840Q1647 1060 1477 1197T1036 1335Q919 1335 811 1301T611 1201T453 1045T347 837T309 586Q309 449 347 335T452 141T610 6T806 -76T1026 -102Q1206 -102 1409 -16L1442 -80Q1328 -150 1204 -187T969 -225Q840 -225 719 -195T489 -99T299
60T171 290T123 588Q123 774 192 937T382 1215T671 1397T1032 1464Q1256 1464 1429 1382T1697 1154T1792 823Q1792 539 1637 359T1225 178Q1187 178 1164 205T1141 266ZM872 330Q938 330 996 367T1128 500V999Q1062 999 1002 969T897 890T818 778T767 649T750 520Q750
433 785 382T872 330Z" />
<glyph unicode="A" glyph-name="A" horiz-adv-x="1452" d="M979 485H451L305 94L473 41V0H-4V41L170 113L692 1475H784L1319 113L1483 41V0H971V41L1133 94L979 485ZM707 1169L492 592H938L715 1169H707Z" />
<glyph unicode="B" glyph-name="B" horiz-adv-x="1352" d="M1194 1128Q1194 1009 1130 927T958 797V786Q1109 741 1194 644T1280 410Q1280 217 1139 109T735 0H113V41L297 113V1362L113 1434V1475H664Q944 1475 1069 1385T1194 1128ZM492 729V106H762Q861 106
932 152T1036 267T1069 414Q1069 472 1049 527T992 627T895 701T762 729H492ZM492 836H715Q849 836 918 914T987 1112Q987 1235 919 1301T692 1368H492V836Z" />
<glyph unicode="C" glyph-name="C" horiz-adv-x="1348" d="M1255 37Q1080 -25 897 -25Q773 -25 661 2T450 90T279 236T165 446T123 721Q123 909 184 1060T350 1308T596 1456T897 1507Q1067 1507 1241 1452L1239 1071H1198L1073 1356Q989 1393 852 1393Q772 1393
701 1372T565 1302T452 1179T376 990T348 733Q348 581 392 457T514 252T692 128T909 84Q1011 84 1102 113L1212 442H1253L1255 37Z" />
<glyph unicode="D" glyph-name="D" horiz-adv-x="1550" d="M113 1475H733Q890 1475 1020 1428T1245 1289T1394 1057T1448 735Q1448 519 1357 352T1103 92T731 0H113V41L297 113V1362L113 1434V1475ZM719 1368H492V106H725Q826 106 917 145T1080 258T1194 450T1237
715Q1237 1030 1102 1199T719 1368Z" />
<glyph unicode="E" glyph-name="E" horiz-adv-x="1280" d="M113 0V41L297 113V1362L113 1434V1475H926L1116 1501L1147 1475V1073H1106L979 1368H492V805L907 825L946 811L926 678L492 694V106H999L1126 401H1167V0H113Z" />
<glyph unicode="F" glyph-name="F" horiz-adv-x="1198" d="M492 113L737 41V0H113V41L297 113V1362L113 1434V1475H864L1055 1501L1085 1475V1071H1042L915 1368H492V784L907 805L946 791L926 657L492 674V113Z" />
<glyph unicode="G" glyph-name="G" horiz-adv-x="1464" d="M1321 74Q1263 46 1210 27T1104 -4T998 -21T887 -27Q786 -27 691 -5T510 59T354 165T232 312T152 498T123 721Q123 851 154 960T240 1156T371 1309T540 1419T735 1485T948 1507Q1131 1507 1296 1452L1294
1071H1253L1130 1354Q1031 1386 922 1386Q811 1386 708 1349T526 1232T400 1029T352 733Q352 572 398 451T523 247T709 124T934 82Q1038 82 1137 111V596L877 647V709H1321L1362 668L1321 541V74Z" />
<glyph unicode="H" glyph-name="H" horiz-adv-x="1729" d="M1237 113V696H492V113L676 41V0H123V41L297 113V1362L113 1434V1475H666V1434L492 1362V803H1237V1362L1053 1434V1475H1585V1438L1432 1362V113L1616 41V0H1063V41L1237 113Z" />
<glyph unicode="I" glyph-name="I" horiz-adv-x="788" d="M492 1362V113L676 41V0H123V41L297 113V1362L113 1434V1475H666V1434L492 1362Z" />
<glyph unicode="J" glyph-name="J" horiz-adv-x="680" d="M455 1362V229Q455 36 349 -86T23 -270L16 -205Q158 -124 209 -29T260 246V1362L76 1434V1475H629V1434L455 1362Z" />
<glyph unicode="K" glyph-name="K" horiz-adv-x="1430" d="M1403 1475V1427L1206 1354L762 797L1231 123L1419 47V0H1077L602 707H481V113L666 41V0H123V41L297 113V1362L113 1434V1475H655V1434L481 1362V799L633 827L1055 1368L901 1427V1475H1403Z" />
<glyph unicode="L" glyph-name="L" horiz-adv-x="1249" d="M1178 0H113V41L297 113V1362L113 1434V1475H676V1434L502 1362V117H1010L1137 412H1178V0Z" />
<glyph unicode="M" glyph-name="M" horiz-adv-x="1888" d="M1386 1475H1786V1434L1612 1362V113L1796 41V0H1294V41L1454 113V1260H1442L971 0H870L420 1264H410V123L573 41V0H102V41L276 123V1362L92 1434V1475H569L573 1380L940 315H948L1386 1475Z" />
<glyph unicode="N" glyph-name="N" horiz-adv-x="1587" d="M1341 1352V0H1247L520 1073L395 1298H383L389 1051V123L553 41V0H82V41L256 123V1362L72 1434V1475H512L532 1376L1047 625L1206 362H1219L1208 602V1352L1044 1434V1475H1516V1434L1341 1352Z" />
<glyph unicode="O" glyph-name="O" horiz-adv-x="1606" d="M793 -41Q600 -41 449 52T210 323T123 733Q123 907 177 1055T326 1305T548 1463T819 1520Q962 1520 1084 1464T1295 1306T1433 1058T1483 735Q1483 561 1429 414T1281 168T1062 14T793 -41ZM805 1407Q665
1407 559 1321T395 1082T338 733Q338 435 466 252T805 68Q1013 68 1140 253T1268 735Q1268 1033 1140 1220T805 1407Z" />
<glyph unicode="P" glyph-name="P" horiz-adv-x="1268" d="M481 600V113L707 41V0H113V41L297 113V1362L113 1434V1475H653Q783 1475 884 1446T1054 1362T1160 1233T1196 1065Q1196 970 1163 884T1060 733T882 630T623 591Q556 591 481 600ZM682 1370H481V707Q519
702 553 700T618 697Q730 697 802 725T917 801T976 913T993 1049Q993 1210 913 1290T682 1370Z" />
<glyph unicode="Q" glyph-name="Q" horiz-adv-x="1626" d="M815 1391Q708 1391 622 1343T475 1208T381 1000T348 733Q348 586 381 467T474 262T621 131T815 84Q921 84 1006 131T1152 264T1245 469T1278 735Q1278 882 1245 1002T1151 1209T1005 1343T815 1391ZM1503
735Q1503 583 1460 452T1341 228T1163 74T942 -10Q1017 -173 1161 -279L1317 -258L1337 -295L1096 -426Q867 -289 764 -23Q626 -16 509 39T306 189T172 424T123 733Q123 907 179 1053T331 1297T556 1449T829 1503Q972 1503 1095 1449T1309 1298T1451 1055T1503
735Z" />
<glyph unicode="R" glyph-name="R" horiz-adv-x="1444" d="M1073 0L758 618Q729 614 699 612T636 610Q599 610 561 613T481 621V113L707 41V0H113V41L297 113V1362L113 1434V1475H676Q806 1475 907 1446T1077 1362T1183 1233T1219 1065Q1219 930 1150 826T944
666L1235 98L1382 41V0H1073ZM705 1370H481V727Q522 722 558 720T630 717Q1016 717 1016 1049Q1016 1210 936 1290T705 1370Z" />
<glyph unicode="S" glyph-name="S" horiz-adv-x="1120" d="M252 131Q409 92 514 92Q568 92 620 103T714 143T781 217T807 334Q807 380 794 420T747 501T653 582T502 674Q402 728 330 776T210 877T140 989T117 1126Q117 1503 588 1503Q755 1503 940 1456V1110H899L791
1364Q685 1386 600 1386Q457 1386 377 1332T297 1163Q297 1123 308 1087T353 1012T449 929T612 829Q712 775 786 729T910 635T983 529T1008 397Q1008 277 968 197T861 67T703 -4T514 -25Q456 -25 407 -22T309 -11T211 9T102 39V399H154L252 131Z" />
<glyph unicode="T" glyph-name="T" horiz-adv-x="1251" d="M10 1475L41 1501L231 1475H1020L1210 1501L1241 1475V1061H1200L1075 1366L727 1380V113L911 41V0H369V41L543 113V1380L182 1364L51 1061H10V1475Z" />
<glyph unicode="U" glyph-name="U" horiz-adv-x="1585" d="M827 68Q928 68 1003 91T1136 167T1223 314T1253 543V1352L1069 1434V1475H1554V1434L1386 1352V557Q1386 252 1248 106T831 -41Q733 -41 655 -26T504 30T384 135T308 303T279 543V1362L94 1434V1475H647V1434L473
1362V569Q473 68 827 68Z" />
<glyph unicode="V" glyph-name="V" horiz-adv-x="1386" d="M465 1475V1434L301 1374L713 303H721L1130 1374L981 1434V1475H1438V1434L1264 1362L725 -20H647L115 1362L-51 1434V1475H465Z" />
<glyph unicode="W" glyph-name="W" horiz-adv-x="2021" d="M514 1475V1434L338 1366L616 293H625L987 1475H1116L1452 315H1460L1741 1364L1567 1434V1475H2046V1434L1872 1362L1493 -20H1399L1020 1133H1014L657 -20H549L133 1362L-51 1434V1475H514Z" />
<glyph unicode="X" glyph-name="X" horiz-adv-x="1477" d="M913 1415V1475H1427V1415L1229 1331L834 778L1282 129L1462 59V0H885V59L1065 125L723 623L365 121L539 59V0H14V59L215 137L645 735L229 1341L45 1415V1475H606V1415L446 1341L758 891L1081 1343L913 1415Z" />
<glyph unicode="Y" glyph-name="Y" horiz-adv-x="1268" d="M446 1475V1434L315 1382L659 702H668L1034 1380L899 1434V1475H1319V1434L1165 1362L729 565V113L913 41V0H371V41L545 113V563L113 1362L-51 1434V1475H446Z" />
<glyph unicode="Z" glyph-name="Z" horiz-adv-x="1276" d="M111 1475L141 1501L332 1475H1153L1174 1384L1053 1239L319 117H995L1122 412H1163V0L1133 -27L942 0H82L61 90L182 236L905 1358H276L152 1063H111V1475Z" />
<glyph unicode="[" glyph-name="bracketleft" horiz-adv-x="664" d="M612 -375H205V1649H612V1536H379V-262H612V-375Z" />
<glyph unicode="\" glyph-name="backslash" horiz-adv-x="856" d="M958 -377H801L-102 1536H55L958 -377Z" />
<glyph unicode="]" glyph-name="bracketright" horiz-adv-x="643" d="M31 1649H438V-375H31V-262H264V1536H31V1649Z" />
<glyph unicode="^" glyph-name="asciicircum" horiz-adv-x="1108" d="M522 1483H631L1001 1085L940 1024L575 1350L213 1024L152 1085L522 1483Z" />
<glyph unicode="_" glyph-name="underscore" horiz-adv-x="1042" d="M-6 -125H1049V-248H-6V-125Z" />
<glyph unicode="`" glyph-name="grave" horiz-adv-x="453" d="M33 1556L229 1206L174 1167L-127 1470L-115 1511L33 1556Z" />
<glyph unicode="a" glyph-name="a" horiz-adv-x="1085" d="M1055 88V51L838 -16Q774 -30 730 -2T686 96Q556 -25 381 -25Q236 -25 164 50T92 238Q92 323 130 388T227 493T368 558T526 594T686 606V702Q686 842 642 897T496 952Q419 952 315 928L209 696H160V981Q250
1013 350 1031T526 1049Q691 1049 780 983T870 764V139L1055 88ZM465 92Q522 92 582 119T686 195V524Q486 515 381 443T276 258Q276 172 331 132T465 92Z" />
<glyph unicode="b" glyph-name="b" horiz-adv-x="1180" d="M256 -45H195V1376L10 1448V1489L358 1561L379 1540V958Q483 1049 651 1049Q734 1049 812 1012T952 907T1050 736T1087 512Q1087 384 1045 280T930 111T767 10T573 -25Q442 -25 313 35L256 -45ZM578 946Q460
946 379 852V172Q429 115 478 97T584 78Q677 78 745 141T846 300T879 512Q879 703 797 824T578 946Z" />
<glyph unicode="c" glyph-name="c" horiz-adv-x="1006" d="M565 -25Q471 -25 386 13T235 120T131 291T92 512Q92 641 131 745T238 915T396 1016T588 1051Q735 1051 877 985V676H836L725 944Q665 958 606 958Q449 958 374 842T299 512Q299 308 398 199T670 90Q729
90 776 105T893 160L924 96Q835 26 752 1T565 -25Z" />
<glyph unicode="d" glyph-name="d" horiz-adv-x="1231" d="M1169 88V51L821 -25L801 -4V92Q681 -25 518 -25Q435 -25 358 12T222 117T128 287T92 512Q92 631 132 732T242 901T405 1008T604 1047Q699 1047 801 1014V1376L616 1448V1489L965 1561L985 1540V139L1169
88ZM801 201V895Q708 946 625 946Q484 946 393 822T301 512Q301 318 376 200T588 82Q713 82 801 201Z" />
<glyph unicode="e" glyph-name="e" horiz-adv-x="1057" d="M946 506H299Q300 394 331 311T415 181T531 112T670 90Q774 90 893 160L924 100Q840 26 756 1T565 -25Q472 -25 386 14T235 123T131 294T92 512Q92 623 120 714T196 867T305 970T433 1030T567 1049Q652
1049 724 1018T853 925T942 763T975 535L946 506ZM571 952Q456 952 388 861T303 612H780Q780 772 726 862T571 952Z" />
<glyph unicode="f" glyph-name="f" horiz-adv-x="805" d="M451 885V113L707 41V0H82V41L266 113V881L72 936V977L266 1018V1120Q266 1227 304 1313T405 1452T548 1533T715 1561Q746 1561 798 1553T877 1534V1229H836L694 1468Q607 1468 552 1424T474 1310T451
1141V1018H733L768 1006V946L451 885Z" />
<glyph unicode="g" glyph-name="g" horiz-adv-x="1178" d="M383 -39Q285 -99 285 -229Q285 -288 314 -327T388 -390T488 -424T594 -434Q647 -434 700 -424T796 -393T866 -342T893 -270Q893 -207 862 -169T776 -109T649 -75T493 -55Q458 -51 431 -47T383 -39ZM584
279Q481 279 395 311Q332 269 332 205Q332 168 374 146T485 115T635 97T799 72T949 26T1059 -63T1102 -209Q1102 -278 1069 -335T983 -428T857 -490T711 -526T559 -537Q344 -537 223 -463T102 -268Q102 -95 293 -16Q174 24 174 133Q174 261 330 346Q243 399 197
484T150 664Q150 737 179 805T261 928T399 1016T584 1049Q672 1049 745 1024H1147V983L928 905Q1018 800 1018 664Q1018 591 989 523T906 400T769 312T584 279ZM358 664Q358 527 418 454T584 381Q689 381 749 454T809 664Q809 800 749 873T584 946Q478 946 418
873T358 664Z" />
<glyph unicode="h" glyph-name="h" horiz-adv-x="1309" d="M604 41V0H61V41L246 113V1376L61 1448V1489L410 1561L430 1540V907Q500 973 595 1011T782 1049Q917 1049 1005 967T1094 723V113L1278 41V0H735V41L909 113V662Q909 806 858 862T682 918Q533 918 430
829V113L604 41Z" />
<glyph unicode="i" glyph-name="i" horiz-adv-x="696" d="M635 41V0H82V41L266 113V864L82 936V977L430 1049L451 1028V113L635 41ZM199 1350Q199 1402 235 1438T326 1475Q378 1475 414 1439T451 1350Q451 1296 415 1260T326 1223Q272 1223 236 1259T199 1350Z" />
<glyph unicode="j" glyph-name="j" horiz-adv-x="528" d="M55 936V977L403 1049L424 1028V66Q424 -43 415 -121T381 -269T313 -387T204 -473T43 -537L37 -471Q77 -449 108 -422T160 -365T196 -295T220 -214T233 -117T238 -7T240 123V864L55 936ZM193 1350Q193
1402 229 1438T319 1475Q371 1475 407 1439T444 1350Q444 1296 408 1260T319 1223T230 1259T193 1350Z" />
<glyph unicode="k" glyph-name="k" horiz-adv-x="1192" d="M594 41V0H61V41L246 113V1376L61 1448V1489L410 1561L430 1540V559L520 580L819 932L688 983V1024H1124V983L952 915L659 571L1008 111V113L1182 41V0H877L502 483H430V113L594 41Z" />
<glyph unicode="l" glyph-name="l" horiz-adv-x="696" d="M614 41V0H61V41L246 113V1376L61 1448V1489L410 1561L430 1540V113L614 41Z" />
<glyph unicode="m" glyph-name="m" horiz-adv-x="1942" d="M614 41V0H72V41L256 113V864L72 936V977L420 1049L440 1028V909Q509 975 599 1012T782 1049Q872 1049 945 1007T1055 879Q1124 958 1223 1003T1425 1049Q1485 1049 1538 1030T1633 973T1701 870T1726
723V113L1911 41V0H1368V41L1542 113V662Q1542 805 1493 861T1325 918Q1176 918 1073 821Q1083 771 1083 723V113L1257 41V0H725V41L899 113V662Q899 805 850 861T682 918Q540 918 440 829V113L614 41Z" />
<glyph unicode="n" glyph-name="n" horiz-adv-x="1319" d="M614 41V0H72V41L256 113V864L72 936V977L420 1049L440 1028V907Q511 973 606 1011T793 1049Q927 1049 1015 967T1104 723V113L1288 41V0H745V41L920 113V662Q920 806 869 862T692 918Q543 918 440 829V113L614
41Z" />
<glyph unicode="o" glyph-name="o" horiz-adv-x="1163" d="M582 1049Q696 1049 787 1010T941 901T1037 731T1071 512Q1071 393 1038 294T942 124T788 14T582 -25Q466 -25 375 14T221 124T125 293T92 512Q92 632 125 731T222 900T376 1010T582 1049ZM364 837Q287
712 287 512Q287 413 306 331T363 189T456 96T582 63Q653 63 709 96T803 188T862 330T883 512Q883 610 863 692T804 834T709 927T582 961Q440 961 364 837Z" />
<glyph unicode="p" glyph-name="p" horiz-adv-x="1180" d="M604 -471V-512H10V-471L195 -399V864L10 936V977L358 1049L379 1028V926Q435 995 499 1022T649 1049Q732 1049 810 1012T950 907T1049 736T1087 512Q1087 375 1045 269T933 101T777 7T598 -25Q479 -25
379 18V-399L604 -471ZM606 946Q543 946 482 917T379 836V201Q408 144 467 111T598 78Q641 78 680 92T756 139T820 221T863 344T879 512Q879 706 807 826T606 946Z" />
<glyph unicode="q" glyph-name="q" horiz-adv-x="1180" d="M555 -512V-471L801 -399V90Q742 33 667 4T518 -25Q435 -25 358 12T222 117T128 287T92 512Q92 615 120 703T196 853T310 961T450 1027T606 1049Q738 1049 860 991L924 1079H985V-399L1169 -471V-512H555ZM588
82Q708 82 801 201V852Q751 909 702 927T596 946Q502 946 434 883T333 724T301 512Q301 318 376 200T588 82Z" />
<glyph unicode="r" glyph-name="r" horiz-adv-x="870" d="M676 41V0H72V41L256 113V864L72 936V977L420 1049L440 1028V905Q592 1049 840 1049V827L799 813L653 893Q608 893 550 874T440 817V113L676 41Z" />
<glyph unicode="s" glyph-name="s" horiz-adv-x="954" d="M174 338L281 111Q294 103 313 97T354 85T399 77T444 74Q495 74 536 84T608 114T654 162T670 227Q670 274 632 316T523 399L416 459Q359 489 310 521T223 591T165 675T143 778Q143 847 170 898T247 982T367
1032T524 1049Q656 1049 788 1006L784 717H743L637 952Q599 957 572 960T526 963Q472 963 433 951T368 918T330 871T317 817Q317 784 329 758T366 707T428 660T514 610Q584 572 629 548T695 510Q852 405 852 268Q852 194 817 139T724 46T594 -10T449 -29Q411 -29
367 -24T279 -10T195 11T123 39V338H174Z" />
<glyph unicode="t" glyph-name="t" horiz-adv-x="834" d="M399 885V328Q399 260 409 214T440 146T484 115T539 106Q599 106 639 116T727 156L758 92Q617 -25 449 -25Q351 -25 283 52T215 270V885L29 936V977L223 1018L297 1294H399V1018H692L727 1006V946L399 885Z" />
<glyph unicode="u" glyph-name="u" horiz-adv-x="1288" d="M31 936V977L379 1049L399 1028V362Q399 219 449 163T616 106Q754 106 858 193V864L674 936V977L1022 1049L1042 1028V139L1227 88V51L879 -25L858 -4V115Q789 49 698 12T516 -25Q456 -25 403 -6T308
51T240 154T215 301V864L31 936Z" />
<glyph unicode="v" glyph-name="v" horiz-adv-x="1085" d="M1116 1024V983L973 911V918L616 -2L506 -25L111 911L-31 983V1024H459V983L303 922L592 231L840 924L692 983V1024H1116Z" />
<glyph unicode="w" glyph-name="w" horiz-adv-x="1556" d="M1087 -25L791 750L539 -2L428 -25L100 918L-31 983V1024H459V983L293 918L512 244L774 1024H883L1163 264L1343 918L1176 983V1024H1587V983L1452 915L1198 -2L1087 -25Z" />
<glyph unicode="x" glyph-name="x" horiz-adv-x="1053" d="M616 983V1024H1036V983L885 924L625 563L942 111L1122 41V0H596V41L739 86L500 428L258 88L410 41V0H-33V41L147 111L438 514H440L158 918L-18 983V1024H492V983L365 936L563 651L766 934L616 983Z" />
<glyph unicode="y" glyph-name="y" horiz-adv-x="1128" d="M-41 983V1024H489V983L334 922L629 252L870 926L723 983V1024H1159V983L975 911L647 0L422 -537L252 -506L233 -465L551 35L143 918V911L-41 983Z" />
<glyph unicode="z" glyph-name="z" horiz-adv-x="932" d="M891 1024V922L293 102H723L840 348H881V0H92V102L690 922H260L143 676H102V1024H891Z" />
<glyph unicode="{" glyph-name="braceleft" horiz-adv-x="840" d="M154 575V653Q248 653 299 763T350 1044V1284Q350 1459 440 1536T737 1614H768V1536Q688 1532 642 1520T569 1479T533 1407T524 1292V1096Q524 1008 514 931T484 787T429 676T348 614Q524 554
524 174V-53Q524 -126 532 -168T568 -239T642 -281T768 -297V-375H737Q531 -375 441 -297T350 -45V225Q350 391 301 483T154 575Z" />
<glyph unicode="|" glyph-name="bar" horiz-adv-x="500" d="M315 -504L184 -506V1567H315V-504Z" />
<glyph unicode="}" glyph-name="braceright" horiz-adv-x="840" d="M686 653V575Q589 575 540 483T490 225V-45Q490 -219 400 -297T103 -375H72V-297Q152 -293 198 -281T271 -240T307 -168T316 -53V174Q316 554 492 614Q446 630 411 675T356 787T326 930T316 1096V1292Q316
1365 308 1407T272 1478T198 1520T72 1536V1614H103Q309 1614 399 1537T490 1284V1044Q490 873 541 763T686 653Z" />
<glyph unicode="~" glyph-name="asciitilde" horiz-adv-x="1663" d="M1114 592Q1179 592 1284 637T1475 748L1509 711Q1500 699 1484 680T1417 612T1316 526T1194 457T1057 426Q991 426 916 459T784 532T660 605T541 639Q467 639 387 604T186 496L154 535Q164
546 181 564T250 628T352 711T470 776T594 805Q649 805 704 783T806 730T899 667T1002 614T1114 592Z" />
<glyph unicode="&#xa1;" glyph-name="exclamdown" horiz-adv-x="559" d="M278 1161Q226 1161 190 1197T153 1286Q153 1339 189 1376T278 1413Q332 1413 368 1376T405 1286T369 1197T278 1161ZM215 1048H330L364 -150H180L215 1048Z" />
<glyph unicode="&#xa2;" glyph-name="cent" horiz-adv-x="1057" d="M553 -51V98Q368 113 241 261T113 635Q113 873 236 1012T553 1169V1300H645V1171Q775 1165 897 1108V799H856L745 1067Q697 1078 645 1081V215Q659 213 690 213Q749 213 796 228T913 283L944
219Q806 110 645 100V-51H553ZM319 635Q319 477 380 374T553 233V1073Q319 1020 319 635Z" />
<glyph unicode="&#xa3;" glyph-name="sterling" horiz-adv-x="1137" d="M1124 231L1188 217Q1157 141 1122 90T1050 14T977 -21T897 -31Q839 -31 753 8T579 86T426 125Q381 125 317 96T196 32T123 -8L82 61Q301 169 301 422Q301 540 276 680L150 684V786L258 791Q225
978 225 1104Q225 1202 259 1275T355 1393T495 1459T666 1481Q851 1481 1001 1440V1124H961L823 1358Q745 1370 692 1370Q637 1370 591 1361T502 1329T436 1265T412 1165Q412 1133 414 1100T420 1023T428 955T439 873T449 799L799 815L838 801L817 668L465 676Q477
548 477 487Q477 357 438 266V262Q487 281 532 281Q595 281 684 242T854 164T977 125Q1014 125 1043 147T1124 231Z" />
<glyph unicode="&#xa4;" glyph-name="currency" horiz-adv-x="1137" d="M184 455L113 530L279 696Q217 784 217 911Q217 1031 279 1122L113 1286L188 1362L350 1200Q444 1270 567 1270Q697 1270 786 1200L948 1362L1024 1286L858 1124Q922 1035 922 911Q922 786
860 694L1024 530L952 455L784 616Q694 551 571 551Q442 551 352 618L184 455ZM567 1143Q468 1143 406 1078T344 911Q344 807 406 742T571 676Q672 676 734 741T797 911Q797 1014 734 1078T567 1143Z" />
<glyph unicode="&#xa5;" glyph-name="yen" horiz-adv-x="1227" d="M449 1475V1434L317 1382L664 698H666L1022 1380L887 1434V1475H1319V1434L1165 1362L801 698H1022V575H733L729 565V494H1022V371H729V113L913 41V0H371V41L545 113V371H262V494H545V563L539
575H262V698H471L113 1362L-51 1434V1475H449Z" />
<glyph unicode="&#xa6;" glyph-name="brokenbar" horiz-adv-x="500" d="M315 676H184V1423H315V676ZM184 406H315V-350L184 -352V406Z" />
<glyph unicode="&#xa7;" glyph-name="section" horiz-adv-x="1126" d="M383 -152Q508 -182 598 -184Q699 -187 753 -143T807 -12Q807 62 756 109T512 266Q467 292 443 307T379 350T315 403T267 464T231 540T219 629Q219 850 438 977Q350 1033 302 1097T254 1251Q254
1380 356 1459T635 1538Q767 1538 924 1497V1217H874L825 1409Q715 1452 616 1452Q526 1452 470 1410T414 1286Q414 1230 465 1181T674 1036Q877 915 951 835T1026 639Q1026 536 976 455T819 272Q894 217 928 161T963 27Q963 -39 939 -96T869 -198T748 -269T578
-295Q440 -295 246 -236V96H293L383 -152ZM580 897L532 922Q369 822 369 674Q369 595 423 539T614 403L725 336Q850 479 850 600Q850 687 781 756T580 897Z" />
<glyph unicode="&#xa8;" glyph-name="dieresis" horiz-adv-x="819" d="M109 1341Q109 1365 118 1385T142 1421T179 1445T225 1454Q249 1454 270 1445T306 1421T329 1386T338 1341Q338 1317 330 1296T306 1259T270 1234T225 1225Q201 1225 180 1234T143 1258T118
1295T109 1341ZM451 1341Q451 1364 460 1384T484 1420T520 1445T565 1454Q589 1454 610 1445T646 1421T671 1385T680 1341Q680 1317 671 1296T647 1259T610 1234T565 1225Q541 1225 520 1234T484 1258T460 1295T451 1341Z" />
<glyph unicode="&#xa9;" glyph-name="copyright" horiz-adv-x="1692" d="M1456 731Q1456 816 1437 896T1382 1046T1293 1174T1173 1274T1027 1339T856 1362Q726 1362 614 1314T418 1180T286 977T238 723Q238 594 282 479T407 275T599 136T848 84Q978 84 1089 134T1282
272T1410 478T1456 731ZM1579 731Q1579 582 1522 443T1367 202T1133 37T844 -25Q643 -25 475 75T210 347T113 723Q113 876 171 1014T328 1253T565 1411T856 1470Q1010 1470 1145 1412T1375 1255T1524 1020T1579 731ZM1100 338Q1000 303 901 303Q815 303 740 328T605
401T510 531T475 715Q475 920 596 1034T901 1149Q998 1149 1092 1118V909H1049L977 1047Q919 1055 868 1054T773 1030T698 970T649 869T631 721Q631 544 702 471T909 397Q954 397 997 410L1055 561H1098L1100 338Z" />
<glyph unicode="&#xaa;" glyph-name="ordfeminine" horiz-adv-x="1018" d="M987 606V571L784 508Q723 496 674 524T625 616V618Q504 502 360 502Q226 502 159 571T92 745Q92 822 125 882T211 979T336 1041T478 1076T625 1090V1178Q625 1308 594 1348T467 1389Q393
1389 299 1366L217 1171H156V1436Q237 1467 330 1483T496 1499Q649 1499 732 1438T815 1235V653L987 606ZM428 625Q480 625 532 647T625 709V1001Q448 991 362 928T276 764Q276 625 428 625Z" />
<glyph unicode="&#xab;" glyph-name="guillemotleft" horiz-adv-x="969" d="M332 594L631 143L598 117L113 571V616L598 1071L631 1044L332 594ZM686 594L897 209L864 182L492 573V614L864 1006L897 979L686 594Z" />
<glyph unicode="&#xac;" glyph-name="logicalnot" horiz-adv-x="1321" d="M1167 313H1053V557H102V694H1167V313Z" />
<glyph unicode="&#xad;" glyph-name="uni00AD" horiz-adv-x="922" d="M102 676H819V553H102V676Z" />
<glyph unicode="&#xae;" glyph-name="registered" horiz-adv-x="1692" d="M1456 731Q1456 816 1437 896T1382 1046T1293 1174T1173 1274T1027 1339T856 1362Q726 1362 614 1314T418 1180T286 977T238 723Q238 594 282 479T407 275T599 136T848 84Q978 84 1089
134T1282 272T1410 478T1456 731ZM1579 731Q1579 582 1522 443T1367 202T1133 37T844 -25Q643 -25 475 75T210 347T113 723Q113 876 171 1014T328 1253T565 1411T856 1470Q1010 1470 1145 1412T1375 1255T1524 1020T1579 731ZM1053 328L866 662Q809 655 733 666V399L854
358V328H510V358L610 399V1057L510 1098V1128H838Q980 1128 1056 1068T1133 907Q1133 835 1095 778T983 688L1149 393L1243 358V328H1053ZM844 1044H733V750Q837 734 897 749T980 799T1004 895Q1004 979 966 1011T844 1044Z" />
<glyph unicode="&#xaf;" glyph-name="overscore" horiz-adv-x="1042" d="M-6 1432H1049V1309H-6V1432Z" />
<glyph unicode="&#xb0;" glyph-name="degree" horiz-adv-x="766" d="M168 1012Q78 1102 78 1227Q78 1289 102 1344T168 1441T265 1507T383 1532Q445 1532 500 1508T597 1442T663 1345T688 1227Q688 1165 664 1110T598 1013T501 947T383 922Q258 922 168 1012ZM383
1036Q423 1036 457 1050T517 1090T558 1151T573 1227Q573 1266 558 1300T517 1361T457 1402T383 1417Q342 1417 308 1402T248 1362T208 1301T193 1227Q193 1185 207 1150T246 1090T307 1050T383 1036Z" />
<glyph unicode="&#xb1;" glyph-name="plusminus" horiz-adv-x="1270" d="M707 842H1167V711H707V367H567V711H102V842H567V1227H707V842ZM102 193H1167V61H102V193Z" />
<glyph unicode="&#xb2;" glyph-name="twosuperior" horiz-adv-x="727" d="M655 903L653 649H78V760L350 1055Q425 1133 449 1181T473 1290Q473 1376 402 1408T207 1415L141 1241H88V1477Q160 1499 233 1509T378 1514T506 1487T596 1415T631 1292Q631 1221 590
1153T440 979L242 784H565L610 903H655Z" />
<glyph unicode="&#xb3;" glyph-name="threesuperior" horiz-adv-x="795" d="M295 1120Q377 1120 430 1170T483 1290Q483 1363 445 1394T334 1425Q273 1425 225 1415L168 1241H115V1477Q266 1520 365 1520Q483 1520 553 1463T623 1298Q623 1232 579 1171T463 1092V1085Q657
1059 657 860Q657 752 567 690T356 627Q230 627 113 674V909H152L211 752Q273 725 352 725Q424 725 468 760T512 868Q512 955 466 989T295 1030V1120Z" />
<glyph unicode="&#xb4;" glyph-name="acute" horiz-adv-x="479" d="M121 1206L317 1556L465 1516L477 1470L176 1167L121 1206Z" />
<glyph unicode="&#xb5;" glyph-name="mu" horiz-adv-x="1292" d="M1241 88V47L893 -25L872 -4V117Q801 50 707 13T520 -25Q407 -25 322 35Q360 -210 492 -430L471 -471L279 -512L248 -471L209 301V911L25 983V1024H393V362Q393 218 444 162T621 106Q767 106 872
195V1024H1057V160L1241 88Z" />
<glyph unicode="&#xb6;" glyph-name="paragraph" horiz-adv-x="1149" d="M944 1374V1251H838V-166H715V1251H569V-166H446V678Q300 686 207 782T113 1026Q113 1179 213 1276T465 1374H944Z" />
<glyph unicode="&#xb7;" glyph-name="middot" horiz-adv-x="487" d="M117 506Q117 558 153 594T244 631Q296 631 332 595T369 506Q369 452 333 416T244 379Q190 379 154 415T117 506Z" />
<glyph unicode="&#xb8;" glyph-name="cedilla" horiz-adv-x="702" d="M291 0H362L342 -82Q447 -86 507 -139T567 -270Q567 -330 545 -374T483 -444T396 -480T293 -492Q217 -492 143 -473V-397Q204 -406 233 -406Q406 -406 406 -272Q406 -150 260 -127L291 0Z" />
<glyph unicode="&#xb9;" glyph-name="onesuperior" horiz-adv-x="711" d="M639 649H94V727L301 768V1335L100 1278L72 1362L365 1499H457V768L639 727V649Z" />
<glyph unicode="&#xba;" glyph-name="ordmasculine" horiz-adv-x="1053" d="M92 999Q92 1111 121 1203T207 1361T343 1463T526 1499Q628 1499 708 1463T845 1361T931 1203T961 999Q961 888 932 796T846 639T709 538T526 502Q424 502 343 538T207 639T122 796T92
999ZM272 999Q272 908 288 833T337 705T417 622T526 592Q587 592 635 621T717 704T768 833T786 999Q786 1091 769 1166T718 1296T636 1379T526 1409Q465 1409 418 1380T339 1297T289 1168T272 999Z" />
<glyph unicode="&#xbb;" glyph-name="guillemotright" horiz-adv-x="969" d="M338 143L637 594L338 1044L371 1071L856 616V571L371 117L338 143ZM72 209L283 594L72 979L104 1006L477 614V573L104 182L72 209Z" />
<glyph unicode="&#xbc;" glyph-name="onequarter" horiz-adv-x="1917" d="M700 649H155V727L362 768V1335L161 1278L133 1362L426 1499H518V768L700 727V649ZM698 -47H565L1264 1475H1397L698 -47ZM1667 888V302L1784 282V188H1667V1H1511V188H1085V304L1548 888H1667ZM1511
302V681L1208 302H1511Z" />
<glyph unicode="&#xbd;" glyph-name="onehalf" horiz-adv-x="1966" d="M1833 255L1831 1H1256V112L1528 407Q1603 485 1627 533T1651 642Q1651 728 1580 760T1385 767L1319 593H1266V829Q1338 851 1411 861T1556 866T1684 839T1774 767T1809 644Q1809 573 1768
505T1618 331L1420 136H1743L1788 255H1833ZM700 649H155V727L362 768V1335L161 1278L133 1362L426 1499H518V768L700 727V649ZM698 -47H565L1264 1475H1397L698 -47Z" />
<glyph unicode="&#xbe;" glyph-name="threequarters" horiz-adv-x="1835" d="M1585 888V302L1702 282V188H1585V1H1429V188H1003V304L1466 888H1585ZM1429 302V681L1126 302H1429ZM616 -47H483L1182 1475H1315L616 -47ZM315 1120Q397 1120 450 1170T503 1290Q503
1363 465 1394T354 1425Q293 1425 245 1415L188 1241H135V1477Q286 1520 385 1520Q503 1520 573 1463T643 1298Q643 1232 599 1171T483 1092V1085Q677 1059 677 860Q677 752 587 690T376 627Q250 627 133 674V909H172L231 752Q293 725 372 725Q444 725 488 760T532
868Q532 955 486 989T315 1030V1120Z" />
<glyph unicode="&#xbf;" glyph-name="questiondown" horiz-adv-x="1014" d="M61 116Q64 360 262 527L488 727V916H590V672L393 461Q334 390 306 311T277 147Q277 0 371 -70T588 -130Q663 -130 733 -110L840 187H901V-183Q734 -244 550 -244Q321 -244 193 -149T61
116ZM539 1299Q591 1299 627 1263T664 1174Q664 1121 628 1084T539 1047Q485 1047 449 1084T412 1174T448 1263T539 1299Z" />
<glyph unicode="&#xc0;" glyph-name="Agrave" horiz-adv-x="1452" d="M979 485H451L305 94L473 41V0H-4V41L170 113L692 1475H784L1319 113L1483 41V0H971V41L1133 94L979 485ZM707 1169L492 592H938L715 1169H707ZM847 1645L812 1585L410 1735L404 1776L521 1878L847
1645Z" />
<glyph unicode="&#xc1;" glyph-name="Aacute" horiz-adv-x="1452" d="M979 485H451L305 94L473 41V0H-4V41L170 113L692 1475H784L1319 113L1483 41V0H971V41L1133 94L979 485ZM707 1169L492 592H938L715 1169H707ZM930 1878L1047 1776L1041 1735L640 1585L605
1645L930 1878Z" />
<glyph unicode="&#xc2;" glyph-name="Acircumflex" horiz-adv-x="1452" d="M979 485H451L305 94L473 41V0H-4V41L170 113L692 1475H784L1319 113L1483 41V0H971V41L1133 94L979 485ZM707 1169L492 592H938L715 1169H707ZM677 1903H792L1066 1642V1614L999 1573L739
1778H730L470 1573L403 1614V1642L677 1903Z" />
<glyph unicode="&#xc3;" glyph-name="Atilde" horiz-adv-x="1452" d="M979 485H451L305 94L473 41V0H-4V41L170 113L692 1475H784L1319 113L1483 41V0H971V41L1133 94L979 485ZM707 1169L492 592H938L715 1169H707ZM925 1739Q960 1742 1002 1758T1088 1817L1127
1776Q1108 1748 1083 1717T1027 1659T960 1616T882 1598Q847 1598 813 1612T747 1642T683 1673T623 1687Q578 1687 540 1667T447 1604L411 1651Q432 1678 458 1708T515 1765T579 1809T649 1826Q684 1826 715 1812T777 1782T839 1752T891 1738T925 1739Z" />
<glyph unicode="&#xc4;" glyph-name="Adieresis" horiz-adv-x="1452" d="M979 485H451L305 94L473 41V0H-4V41L170 113L692 1475H784L1319 113L1483 41V0H971V41L1133 94L979 485ZM707 1169L492 592H938L715 1169H707ZM441 1751Q441 1776 449 1797T474 1834T511
1859T558 1868Q582 1868 603 1859T640 1834T665 1797T675 1751Q675 1725 666 1704T641 1666T604 1641T558 1632Q532 1632 511 1641T474 1666T450 1703T441 1751ZM814 1751Q814 1776 823 1797T849 1834T886 1859T933 1868Q958 1868 979 1859T1016 1834T1041 1797T1050
1751Q1050 1725 1041 1704T1017 1666T980 1641T933 1632Q908 1632 887 1641T849 1666T824 1703T814 1751Z" />
<glyph unicode="&#xc5;" glyph-name="Aring" horiz-adv-x="1452" d="M979 485H451L305 94L473 41V0H-4V41L170 113L692 1475H784L1319 113L1483 41V0H971V41L1133 94L979 485ZM707 1169L492 592H938L715 1169H707ZM535 1741Q535 1784 552 1822T598 1889T665 1935T746
1952Q788 1952 826 1935T894 1889T940 1822T957 1741Q957 1698 940 1660T895 1592T828 1545T746 1528Q704 1528 666 1545T598 1591T552 1658T535 1741ZM744 1628Q768 1628 788 1636T824 1660T848 1695T857 1739Q857 1762 849 1782T825 1817T789 1840T744 1849Q721
1849 701 1841T666 1817T643 1782T634 1739Q634 1716 642 1696T666 1661T701 1637T744 1628Z" />
<glyph unicode="&#xc6;" glyph-name="AE" horiz-adv-x="1993" d="M1010 0V485H557L344 96L563 41V0H31V41L205 113L948 1475H1640L1831 1501L1862 1475V1073H1821L1694 1368H1204V805L1620 825L1659 811L1638 678L1204 694V106H1714L1841 401H1882V0L1851 -27L1661
0H1010ZM1010 1313L614 592H1010V1313Z" />
<glyph unicode="&#xc7;" glyph-name="Ccedilla" horiz-adv-x="1348" d="M1255 37Q1081 -24 899 -25L885 -82Q990 -86 1050 -139T1110 -270Q1110 -330 1088 -374T1026 -444T939 -480T836 -492Q760 -492 686 -473V-397Q747 -406 776 -406Q948 -406 948 -272Q948
-150 803 -127L828 -23Q741 -17 660 2Q548 30 450 90T279 236T165 446T123 721Q123 909 184 1060T350 1308T596 1456T897 1507Q1067 1507 1241 1452L1239 1071H1198L1073 1356Q989 1393 852 1393Q772 1393 701 1372T565 1302T452 1179T376 990T348 733Q348 581
392 457T514 252T692 128T909 84Q1011 84 1102 113L1212 442H1253L1255 37Z" />
<glyph unicode="&#xc8;" glyph-name="Egrave" horiz-adv-x="1280" d="M113 0V41L297 113V1362L113 1434V1475H926L1116 1501L1147 1475V1073H1106L979 1368H492V805L907 825L946 811L926 678L492 694V106H999L1126 401H1167V0H113ZM821 1645L786 1585L384 1735L378
1776L495 1878L821 1645Z" />
<glyph unicode="&#xc9;" glyph-name="Eacute" horiz-adv-x="1280" d="M113 0V41L297 113V1362L113 1434V1475H926L1116 1501L1147 1475V1073H1106L979 1368H492V805L907 825L946 811L926 678L492 694V106H999L1126 401H1167V0H113ZM834 1878L951 1776L945 1735L544
1585L509 1645L834 1878Z" />
<glyph unicode="&#xca;" glyph-name="Ecircumflex" horiz-adv-x="1280" d="M113 0V41L297 113V1362L113 1434V1475H926L1116 1501L1147 1475V1073H1106L979 1368H492V805L907 825L946 811L926 678L492 694V106H999L1126 401H1167V0H113ZM632 1903H747L1021 1642V1614L954
1573L694 1778H685L425 1573L358 1614V1642L632 1903Z" />
<glyph unicode="&#xcb;" glyph-name="Edieresis" horiz-adv-x="1280" d="M113 0V41L297 113V1362L113 1434V1475H926L1116 1501L1147 1475V1073H1106L979 1368H492V805L907 825L946 811L926 678L492 694V106H999L1126 401H1167V0H113ZM405 1751Q405 1776 413 1797T438
1834T475 1859T522 1868Q546 1868 567 1859T604 1834T629 1797T639 1751Q639 1725 630 1704T605 1666T568 1641T522 1632Q496 1632 475 1641T438 1666T414 1703T405 1751ZM778 1751Q778 1776 787 1797T813 1834T850 1859T897 1868Q922 1868 943 1859T980 1834T1005
1797T1014 1751Q1014 1725 1005 1704T981 1666T944 1641T897 1632Q872 1632 851 1641T813 1666T788 1703T778 1751Z" />
<glyph unicode="&#xcc;" glyph-name="Igrave" horiz-adv-x="788" d="M492 1362V113L676 41V0H123V41L297 113V1362L113 1434V1475H666V1434L492 1362ZM615 1645L580 1585L178 1735L172 1776L289 1878L615 1645Z" />
<glyph unicode="&#xcd;" glyph-name="Iacute" horiz-adv-x="788" d="M492 1362V113L676 41V0H123V41L297 113V1362L113 1434V1475H666V1434L492 1362ZM497 1878L614 1776L608 1735L207 1585L172 1645L497 1878Z" />
<glyph unicode="&#xce;" glyph-name="Icircumflex" horiz-adv-x="889" d="M541 1362V113L725 41V0H172V41L346 113V1362L162 1434V1475H715V1434L541 1362ZM387 1903H502L776 1642V1614L709 1573L449 1778H440L180 1573L113 1614V1642L387 1903Z" />
<glyph unicode="&#xcf;" glyph-name="Idieresis" horiz-adv-x="834" d="M515 1362V113L699 41V0H146V41L320 113V1362L136 1434V1475H689V1434L515 1362ZM112 1751Q112 1776 120 1797T145 1834T182 1859T229 1868Q253 1868 274 1859T311 1834T336 1797T346 1751Q346
1725 337 1704T312 1666T275 1641T229 1632Q203 1632 182 1641T145 1666T121 1703T112 1751ZM485 1751Q485 1776 494 1797T520 1834T557 1859T604 1868Q629 1868 650 1859T687 1834T712 1797T721 1751Q721 1725 712 1704T688 1666T651 1641T604 1632Q579 1632 558
1641T520 1666T495 1703T485 1751Z" />
<glyph unicode="&#xd0;" glyph-name="Eth" horiz-adv-x="1597" d="M150 1475H770Q927 1475 1057 1428T1282 1289T1431 1057T1485 735Q1485 519 1394 352T1140 92T768 0H150V41L334 113V678H113V801H334V1362L150 1434V1475ZM756 1368H528V801H891V678H528V106H762Q863
106 954 145T1117 258T1231 450T1274 715Q1274 1030 1139 1199T756 1368Z" />
<glyph unicode="&#xd1;" glyph-name="Ntilde" horiz-adv-x="1587" d="M1341 1352V0H1247L520 1073L395 1298H383L389 1051V123L553 41V0H82V41L256 123V1362L72 1434V1475H512L532 1376L1047 625L1206 362H1219L1208 602V1352L1044 1434V1475H1516V1434L1341 1352ZM969
1739Q1004 1742 1046 1758T1132 1817L1171 1776Q1152 1748 1127 1717T1071 1659T1004 1616T926 1598Q891 1598 857 1612T791 1642T727 1673T667 1687Q622 1687 584 1667T491 1604L455 1651Q476 1678 502 1708T559 1765T623 1809T693 1826Q728 1826 759 1812T821
1782T883 1752T935 1738T969 1739Z" />
<glyph unicode="&#xd2;" glyph-name="Ograve" horiz-adv-x="1606" d="M793 -41Q600 -41 449 52T210 323T123 733Q123 907 177 1055T326 1305T548 1463T819 1520Q962 1520 1084 1464T1295 1306T1433 1058T1483 735Q1483 561 1429 414T1281 168T1062 14T793 -41ZM805
1407Q665 1407 559 1321T395 1082T338 733Q338 435 466 252T805 68Q1013 68 1140 253T1268 735Q1268 1033 1140 1220T805 1407ZM994 1645L959 1585L557 1735L551 1776L668 1878L994 1645Z" />
<glyph unicode="&#xd3;" glyph-name="Oacute" horiz-adv-x="1606" d="M793 -41Q600 -41 449 52T210 323T123 733Q123 907 177 1055T326 1305T548 1463T819 1520Q962 1520 1084 1464T1295 1306T1433 1058T1483 735Q1483 561 1429 414T1281 168T1062 14T793 -41ZM805
1407Q665 1407 559 1321T395 1082T338 733Q338 435 466 252T805 68Q1013 68 1140 253T1268 735Q1268 1033 1140 1220T805 1407ZM907 1878L1024 1776L1018 1735L617 1585L582 1645L907 1878Z" />
<glyph unicode="&#xd4;" glyph-name="Ocircumflex" horiz-adv-x="1606" d="M793 -41Q600 -41 449 52T210 323T123 733Q123 907 177 1055T326 1305T548 1463T819 1520Q962 1520 1084 1464T1295 1306T1433 1058T1483 735Q1483 561 1429 414T1281 168T1062 14T793
-41ZM805 1407Q665 1407 559 1321T395 1082T338 733Q338 435 466 252T805 68Q1013 68 1140 253T1268 735Q1268 1033 1140 1220T805 1407ZM745 1903H860L1134 1642V1614L1067 1573L807 1778H798L538 1573L471 1614V1642L745 1903Z" />
<glyph unicode="&#xd5;" glyph-name="Otilde" horiz-adv-x="1606" d="M793 -41Q600 -41 449 52T210 323T123 733Q123 907 177 1055T326 1305T548 1463T819 1520Q962 1520 1084 1464T1295 1306T1433 1058T1483 735Q1483 561 1429 414T1281 168T1062 14T793 -41ZM805
1407Q665 1407 559 1321T395 1082T338 733Q338 435 466 252T805 68Q1013 68 1140 253T1268 735Q1268 1033 1140 1220T805 1407ZM959 1739Q994 1742 1036 1758T1122 1817L1161 1776Q1142 1748 1117 1717T1061 1659T994 1616T916 1598Q881 1598 847 1612T781 1642T717
1673T657 1687Q612 1687 574 1667T481 1604L445 1651Q466 1678 492 1708T549 1765T613 1809T683 1826Q718 1826 749 1812T811 1782T873 1752T925 1738T959 1739Z" />
<glyph unicode="&#xd6;" glyph-name="Odieresis" horiz-adv-x="1606" d="M793 -41Q600 -41 449 52T210 323T123 733Q123 907 177 1055T326 1305T548 1463T819 1520Q962 1520 1084 1464T1295 1306T1433 1058T1483 735Q1483 561 1429 414T1281 168T1062 14T793 -41ZM805
1407Q665 1407 559 1321T395 1082T338 733Q338 435 466 252T805 68Q1013 68 1140 253T1268 735Q1268 1033 1140 1220T805 1407ZM498 1751Q498 1776 506 1797T531 1834T568 1859T615 1868Q639 1868 660 1859T697 1834T722 1797T732 1751Q732 1725 723 1704T698 1666T661
1641T615 1632Q589 1632 568 1641T531 1666T507 1703T498 1751ZM871 1751Q871 1776 880 1797T906 1834T943 1859T990 1868Q1015 1868 1036 1859T1073 1834T1098 1797T1107 1751Q1107 1725 1098 1704T1074 1666T1037 1641T990 1632Q965 1632 944 1641T906 1666T881
1703T871 1751Z" />
<glyph unicode="&#xd7;" glyph-name="multiply" horiz-adv-x="1270" d="M639 770L965 1096L1057 1004L731 678L1063 348L965 250L633 580L305 252L213 344L541 672L211 1004L309 1102L639 770Z" />
<glyph unicode="&#xd8;" glyph-name="Oslash" horiz-adv-x="1626" d="M358 -109H205L354 139Q244 240 184 390T123 733Q123 907 179 1053T331 1297T556 1449T829 1503Q1015 1503 1161 1415L1235 1536H1389L1268 1337Q1379 1237 1441 1083T1503 735Q1503 561 1447
417T1296 176T1073 28T803 -25Q609 -25 461 61L358 -109ZM1278 735Q1278 1019 1161 1196L551 178Q662 84 815 84Q1025 84 1151 261T1278 735ZM815 1391Q602 1391 475 1210T348 733Q348 456 459 283L1071 1298Q959 1391 815 1391Z" />
<glyph unicode="&#xd9;" glyph-name="Ugrave" horiz-adv-x="1585" d="M827 68Q928 68 1003 91T1136 167T1223 314T1253 543V1352L1069 1434V1475H1554V1434L1386 1352V557Q1386 252 1248 106T831 -41Q733 -41 655 -26T504 30T384 135T308 303T279 543V1362L94
1434V1475H647V1434L473 1362V569Q473 68 827 68ZM998 1645L963 1585L561 1735L555 1776L672 1878L998 1645Z" />
<glyph unicode="&#xda;" glyph-name="Uacute" horiz-adv-x="1585" d="M827 68Q928 68 1003 91T1136 167T1223 314T1253 543V1352L1069 1434V1475H1554V1434L1386 1352V557Q1386 252 1248 106T831 -41Q733 -41 655 -26T504 30T384 135T308 303T279 543V1362L94
1434V1475H647V1434L473 1362V569Q473 68 827 68ZM1050 1878L1167 1776L1161 1735L760 1585L725 1645L1050 1878Z" />
<glyph unicode="&#xdb;" glyph-name="Ucircumflex" horiz-adv-x="1585" d="M827 68Q928 68 1003 91T1136 167T1223 314T1253 543V1352L1069 1434V1475H1554V1434L1386 1352V557Q1386 252 1248 106T831 -41Q733 -41 655 -26T504 30T384 135T308 303T279 543V1362L94
1434V1475H647V1434L473 1362V569Q473 68 827 68ZM823 1903H938L1212 1642V1614L1145 1573L885 1778H876L616 1573L549 1614V1642L823 1903Z" />
<glyph unicode="&#xdc;" glyph-name="Udieresis" horiz-adv-x="1585" d="M827 68Q928 68 1003 91T1136 167T1223 314T1253 543V1352L1069 1434V1475H1554V1434L1386 1352V557Q1386 252 1248 106T831 -41Q733 -41 655 -26T504 30T384 135T308 303T279 543V1362L94
1434V1475H647V1434L473 1362V569Q473 68 827 68ZM587 1751Q587 1776 595 1797T620 1834T657 1859T704 1868Q728 1868 749 1859T786 1834T811 1797T821 1751Q821 1725 812 1704T787 1666T750 1641T704 1632Q678 1632 657 1641T620 1666T596 1703T587 1751ZM960
1751Q960 1776 969 1797T995 1834T1032 1859T1079 1868Q1104 1868 1125 1859T1162 1834T1187 1797T1196 1751Q1196 1725 1187 1704T1163 1666T1126 1641T1079 1632Q1054 1632 1033 1641T995 1666T970 1703T960 1751Z" />
<glyph unicode="&#xdd;" glyph-name="Yacute" horiz-adv-x="1268" d="M446 1475V1434L315 1382L659 702H668L1034 1380L899 1434V1475H1319V1434L1165 1362L729 565V113L913 41V0H371V41L545 113V563L113 1362L-51 1434V1475H446ZM827 1878L944 1776L938 1735L537
1585L502 1645L827 1878Z" />
<glyph unicode="&#xde;" glyph-name="Thorn" horiz-adv-x="1325" d="M481 1362V1249H653Q913 1249 1054 1138T1196 840Q1196 754 1170 679T1090 539T951 433T749 375T481 375V113L666 41V0H123V41L297 113V1362L113 1434V1475H655V1434L481 1362ZM682 1145H481V481Q569
468 639 472T762 487T855 525T921 580T964 651T986 733T993 823Q993 983 913 1064T682 1145Z" />
<glyph unicode="&#xdf;" glyph-name="germandbls" horiz-adv-x="1188" d="M41 885V963L240 1018V1157Q240 1252 276 1331T372 1459T504 1534T653 1561Q829 1561 920 1478T1012 1214Q838 1132 776 1057T713 868Q713 824 735 782T793 705T872 633T957 555T1036 470T1094
368T1116 246Q1116 176 1089 120T1016 30T915 -23T799 -41Q652 -41 506 8V205H586L643 68Q690 49 754 49Q856 49 901 90T946 240Q946 286 917 332T845 414T752 495T658 584T586 692T557 827Q557 958 637 1072T864 1253Q864 1317 848 1361T801 1428T737 1459T659
1468Q549 1468 484 1389T418 1176V0H55V43L240 115V885H41Z" />
<glyph unicode="&#xe0;" glyph-name="agrave" horiz-adv-x="1085" d="M1055 88V51L838 -16Q774 -30 730 -2T686 96Q556 -25 381 -25Q236 -25 164 50T92 238Q92 323 130 388T227 493T368 558T526 594T686 606V702Q686 842 642 897T496 952Q419 952 315 928L209
696H160V981Q250 1013 350 1031T526 1049Q691 1049 780 983T870 764V139L1055 88ZM465 92Q522 92 582 119T686 195V524Q486 515 381 443T276 258Q276 172 331 132T465 92ZM393 1556L589 1206L534 1167L233 1470L245 1511L393 1556Z" />
<glyph unicode="&#xe1;" glyph-name="aacute" horiz-adv-x="1085" d="M1055 88V51L838 -16Q774 -30 730 -2T686 96Q556 -25 381 -25Q236 -25 164 50T92 238Q92 323 130 388T227 493T368 558T526 594T686 606V702Q686 842 642 897T496 952Q419 952 315 928L209
696H160V981Q250 1013 350 1031T526 1049Q691 1049 780 983T870 764V139L1055 88ZM465 92Q522 92 582 119T686 195V524Q486 515 381 443T276 258Q276 172 331 132T465 92ZM439 1206L635 1556L783 1516L795 1470L494 1167L439 1206Z" />
<glyph unicode="&#xe2;" glyph-name="acircumflex" horiz-adv-x="1085" d="M1055 88V51L838 -16Q774 -30 730 -2T686 96Q556 -25 381 -25Q236 -25 164 50T92 238Q92 323 130 388T227 493T368 558T526 594T686 606V702Q686 842 642 897T496 952Q419 952 315 928L209
696H160V981Q250 1013 350 1031T526 1049Q691 1049 780 983T870 764V139L1055 88ZM465 92Q522 92 582 119T686 195V524Q486 515 381 443T276 258Q276 172 331 132T465 92ZM582 1554L830 1208L818 1186L736 1165L539 1391H531L332 1165L256 1186L244 1210L488 1554H582Z"
/>
<glyph unicode="&#xe3;" glyph-name="atilde" horiz-adv-x="1085" d="M1055 88V51L838 -16Q774 -30 730 -2T686 96Q556 -25 381 -25Q236 -25 164 50T92 238Q92 323 130 388T227 493T368 558T526 594T686 606V702Q686 842 642 897T496 952Q419 952 315 928L209
696H160V981Q250 1013 350 1031T526 1049Q691 1049 780 983T870 764V139L1055 88ZM465 92Q522 92 582 119T686 195V524Q486 515 381 443T276 258Q276 172 331 132T465 92ZM695 1358Q781 1373 850 1450L893 1413Q889 1406 883 1395T854 1352T808 1296T750 1248T680
1217Q625 1207 525 1247T385 1280Q345 1273 313 1252T232 1184L189 1227Q193 1234 200 1246T231 1289T278 1344T335 1391T398 1419Q433 1426 473 1416T544 1389T616 1362T695 1358Z" />
<glyph unicode="&#xe4;" glyph-name="adieresis" horiz-adv-x="1085" d="M1055 88V51L838 -16Q774 -30 730 -2T686 96Q556 -25 381 -25Q236 -25 164 50T92 238Q92 323 130 388T227 493T368 558T526 594T686 606V702Q686 842 642 897T496 952Q419 952 315 928L209
696H160V981Q250 1013 350 1031T526 1049Q691 1049 780 983T870 764V139L1055 88ZM465 92Q522 92 582 119T686 195V524Q486 515 381 443T276 258Q276 172 331 132T465 92ZM230 1341Q230 1365 239 1385T263 1421T300 1445T346 1454Q370 1454 391 1445T427 1421T450
1386T459 1341Q459 1317 451 1296T427 1259T391 1234T346 1225Q322 1225 301 1234T264 1258T239 1295T230 1341ZM572 1341Q572 1364 581 1384T605 1420T641 1445T686 1454Q710 1454 731 1445T767 1421T792 1385T801 1341Q801 1317 792 1296T768 1259T731 1234T686
1225Q662 1225 641 1234T605 1258T581 1295T572 1341Z" />
<glyph unicode="&#xe5;" glyph-name="aring" horiz-adv-x="1085" d="M1055 88V51L838 -16Q774 -30 730 -2T686 96Q556 -25 381 -25Q236 -25 164 50T92 238Q92 323 130 388T227 493T368 558T526 594T686 606V702Q686 842 642 897T496 952Q419 952 315 928L209 696H160V981Q250
1013 350 1031T526 1049Q691 1049 780 983T870 764V139L1055 88ZM465 92Q522 92 582 119T686 195V524Q486 515 381 443T276 258Q276 172 331 132T465 92ZM319 1391Q319 1434 336 1472T382 1539T449 1585T530 1602Q572 1602 610 1585T678 1539T724 1472T741 1391Q741
1348 724 1310T679 1242T612 1195T530 1178Q488 1178 450 1195T382 1241T336 1308T319 1391ZM528 1278Q552 1278 572 1286T608 1310T632 1345T641 1389Q641 1412 633 1432T609 1467T573 1490T528 1499Q505 1499 485 1491T450 1467T427 1432T418 1389Q418 1366 426
1346T450 1311T485 1287T528 1278Z" />
<glyph unicode="&#xe6;" glyph-name="ae" horiz-adv-x="1640" d="M1540 506H893Q894 394 925 311T1009 181T1125 112T1264 90Q1368 90 1487 160L1518 100Q1434 26 1350 1T1159 -25Q1055 -25 961 23T799 158Q737 66 629 21T381 -25Q236 -25 164 50T92 238Q92 323
130 388T227 493T368 558T526 594T686 606V702Q686 842 642 897T496 952Q419 952 315 928L209 696H160V981Q250 1013 350 1031T526 1049Q626 1049 705 1004T827 885Q901 963 993 1006T1161 1049Q1246 1049 1318 1018T1447 925T1536 763T1569 535L1540 506ZM465
86Q565 86 625 167T686 383V487V524Q291 508 291 258Q291 170 340 128T465 86ZM1165 952Q1050 952 982 861T897 612H1374Q1374 772 1320 862T1165 952Z" />
<glyph unicode="&#xe7;" glyph-name="ccedilla" horiz-adv-x="995" d="M924 96Q841 31 766 5T600 -25L586 -82Q691 -86 751 -139T811 -270Q811 -330 789 -374T727 -444T640 -480T537 -492Q461 -492 387 -473V-397Q448 -406 477 -406Q649 -406 649 -272Q649 -150
504 -127L528 -23Q440 -16 362 25T223 134T128 300T92 512Q92 641 131 745T238 915T396 1016T588 1051Q735 1051 877 985V676H836L725 944Q665 958 606 958Q449 958 374 842T299 512Q299 308 398 199T670 90Q729 90 776 105T893 160L924 96Z" />
<glyph unicode="&#xe8;" glyph-name="egrave" horiz-adv-x="1047" d="M946 506H299Q300 394 331 311T415 181T531 112T670 90Q774 90 893 160L924 100Q840 26 756 1T565 -25Q472 -25 386 14T235 123T131 294T92 512Q92 623 120 714T196 867T305 970T433 1030T567
1049Q652 1049 724 1018T853 925T942 763T975 535L946 506ZM571 952Q456 952 388 861T303 612H780Q780 772 726 862T571 952ZM434 1556L630 1206L575 1167L274 1470L286 1511L434 1556Z" />
<glyph unicode="&#xe9;" glyph-name="eacute" horiz-adv-x="1047" d="M946 506H299Q300 394 331 311T415 181T531 112T670 90Q774 90 893 160L924 100Q840 26 756 1T565 -25Q472 -25 386 14T235 123T131 294T92 512Q92 623 120 714T196 867T305 970T433 1030T567
1049Q652 1049 724 1018T853 925T942 763T975 535L946 506ZM571 952Q456 952 388 861T303 612H780Q780 772 726 862T571 952ZM490 1206L686 1556L834 1516L846 1470L545 1167L490 1206Z" />
<glyph unicode="&#xea;" glyph-name="ecircumflex" horiz-adv-x="1047" d="M946 506H299Q300 394 331 311T415 181T531 112T670 90Q774 90 893 160L924 100Q840 26 756 1T565 -25Q472 -25 386 14T235 123T131 294T92 512Q92 623 120 714T196 867T305 970T433 1030T567
1049Q652 1049 724 1018T853 925T942 763T975 535L946 506ZM571 952Q456 952 388 861T303 612H780Q780 772 726 862T571 952ZM622 1554L870 1208L858 1186L776 1165L579 1391H571L372 1165L296 1186L284 1210L528 1554H622Z" />
<glyph unicode="&#xeb;" glyph-name="edieresis" horiz-adv-x="1047" d="M946 506H299Q300 394 331 311T415 181T531 112T670 90Q774 90 893 160L924 100Q840 26 756 1T565 -25Q472 -25 386 14T235 123T131 294T92 512Q92 623 120 714T196 867T305 970T433 1030T567
1049Q652 1049 724 1018T853 925T942 763T975 535L946 506ZM571 952Q456 952 388 861T303 612H780Q780 772 726 862T571 952ZM271 1341Q271 1365 280 1385T304 1421T341 1445T387 1454Q411 1454 432 1445T468 1421T491 1386T500 1341Q500 1317 492 1296T468 1259T432
1234T387 1225Q363 1225 342 1234T305 1258T280 1295T271 1341ZM613 1341Q613 1364 622 1384T646 1420T682 1445T727 1454Q751 1454 772 1445T808 1421T833 1385T842 1341Q842 1317 833 1296T809 1259T772 1234T727 1225Q703 1225 682 1234T646 1258T622 1295T613
1341Z" />
<glyph unicode="&#xec;" glyph-name="igrave" horiz-adv-x="741" d="M680 41V0H127V41L311 113V864L127 936V977L475 1049L496 1028V113L680 41ZM242 1556L438 1206L383 1167L82 1470L94 1511L242 1556Z" />
<glyph unicode="&#xed;" glyph-name="iacute" horiz-adv-x="696" d="M635 41V0H82V41L266 113V864L82 936V977L430 1049L451 1028V113L635 41ZM252 1206L448 1556L596 1516L608 1470L307 1167L252 1206Z" />
<glyph unicode="&#xee;" glyph-name="icircumflex" horiz-adv-x="731" d="M670 41V0H117V41L301 113V864L117 936V977L465 1049L486 1028V113L670 41ZM420 1554L668 1208L656 1186L574 1165L377 1391H369L170 1165L94 1186L82 1210L326 1554H420Z" />
<glyph unicode="&#xef;" glyph-name="idieresis" horiz-adv-x="745" d="M684 41V0H131V41L315 113V864L131 936V977L479 1049L500 1028V113L684 41ZM339 1341Q339 1365 348 1385T372 1421T409 1445T455 1454Q479 1454 500 1445T536 1421T559 1386T568 1341Q568
1317 560 1296T536 1259T500 1234T455 1225Q431 1225 410 1234T373 1258T348 1295T339 1341ZM681 1341Q681 1364 690 1384T714 1420T750 1445T795 1454Q819 1454 840 1445T876 1421T901 1385T910 1341Q910 1317 901 1296T877 1259T840 1234T795 1225Q771 1225 750
1234T714 1258T690 1295T681 1341Z" />
<glyph unicode="&#xf0;" glyph-name="eth" horiz-adv-x="1192" d="M420 1192L346 1247L444 1354Q375 1399 281 1442L346 1491Q468 1444 510 1423L604 1526L676 1470L592 1378Q823 1243 951 1023T1079 506Q1079 382 1051 283T965 109T812 -6T590 -47Q460 -47 360
23T208 210T156 471Q156 613 205 722T359 898T612 965Q715 965 811 913Q721 1147 520 1300L420 1192ZM885 469Q885 636 850 782Q756 854 625 854Q492 854 422 770T352 496Q352 270 422 159T598 47Q670 47 723 71T806 133T855 228T879 342T885 469Z" />
<glyph unicode="&#xf1;" glyph-name="ntilde" horiz-adv-x="1319" d="M614 41V0H72V41L256 113V864L72 936V977L420 1049L440 1028V907Q511 973 606 1011T793 1049Q927 1049 1015 967T1104 723V113L1288 41V0H745V41L920 113V662Q920 806 869 862T692 918Q543
918 440 829V113L614 41ZM897 1358Q983 1373 1052 1450L1095 1413Q1091 1406 1085 1395T1056 1352T1010 1296T952 1248T882 1217Q827 1207 727 1247T587 1280Q547 1273 515 1252T434 1184L391 1227Q395 1234 402 1246T433 1289T480 1344T537 1391T600 1419Q635
1426 675 1416T746 1389T818 1362T897 1358Z" />
<glyph unicode="&#xf2;" glyph-name="ograve" horiz-adv-x="1163" d="M582 1049Q696 1049 787 1010T941 901T1037 731T1071 512Q1071 393 1038 294T942 124T788 14T582 -25Q466 -25 375 14T221 124T125 293T92 512Q92 632 125 731T222 900T376 1010T582 1049ZM364
837Q287 712 287 512Q287 413 306 331T363 189T456 96T582 63Q653 63 709 96T803 188T862 330T883 512Q883 610 863 692T804 834T709 927T582 961Q440 961 364 837ZM451 1556L647 1206L592 1167L291 1470L303 1511L451 1556Z" />
<glyph unicode="&#xf3;" glyph-name="oacute" horiz-adv-x="1163" d="M582 1049Q696 1049 787 1010T941 901T1037 731T1071 512Q1071 393 1038 294T942 124T788 14T582 -25Q466 -25 375 14T221 124T125 293T92 512Q92 632 125 731T222 900T376 1010T582 1049ZM364
837Q287 712 287 512Q287 413 306 331T363 189T456 96T582 63Q653 63 709 96T803 188T862 330T883 512Q883 610 863 692T804 834T709 927T582 961Q440 961 364 837ZM506 1206L702 1556L850 1516L862 1470L561 1167L506 1206Z" />
<glyph unicode="&#xf4;" glyph-name="ocircumflex" horiz-adv-x="1163" d="M582 1049Q696 1049 787 1010T941 901T1037 731T1071 512Q1071 393 1038 294T942 124T788 14T582 -25Q466 -25 375 14T221 124T125 293T92 512Q92 632 125 731T222 900T376 1010T582 1049ZM364
837Q287 712 287 512Q287 413 306 331T363 189T456 96T582 63Q653 63 709 96T803 188T862 330T883 512Q883 610 863 692T804 834T709 927T582 961Q440 961 364 837ZM639 1554L887 1208L875 1186L793 1165L596 1391H588L389 1165L313 1186L301 1210L545 1554H639Z"
/>
<glyph unicode="&#xf5;" glyph-name="otilde" horiz-adv-x="1163" d="M582 1049Q696 1049 787 1010T941 901T1037 731T1071 512Q1071 393 1038 294T942 124T788 14T582 -25Q466 -25 375 14T221 124T125 293T92 512Q92 632 125 731T222 900T376 1010T582 1049ZM364
837Q287 712 287 512Q287 413 306 331T363 189T456 96T582 63Q653 63 709 96T803 188T862 330T883 512Q883 610 863 692T804 834T709 927T582 961Q440 961 364 837ZM752 1358Q838 1373 907 1450L950 1413Q946 1406 940 1395T911 1352T865 1296T807 1248T737 1217Q682
1207 582 1247T442 1280Q402 1273 370 1252T289 1184L246 1227Q250 1234 257 1246T288 1289T335 1344T392 1391T455 1419Q490 1426 530 1416T601 1389T673 1362T752 1358Z" />
<glyph unicode="&#xf6;" glyph-name="odieresis" horiz-adv-x="1163" d="M582 1049Q696 1049 787 1010T941 901T1037 731T1071 512Q1071 393 1038 294T942 124T788 14T582 -25Q466 -25 375 14T221 124T125 293T92 512Q92 632 125 731T222 900T376 1010T582 1049ZM364
837Q287 712 287 512Q287 413 306 331T363 189T456 96T582 63Q653 63 709 96T803 188T862 330T883 512Q883 610 863 692T804 834T709 927T582 961Q440 961 364 837ZM287 1341Q287 1365 296 1385T320 1421T357 1445T403 1454Q427 1454 448 1445T484 1421T507 1386T516
1341Q516 1317 508 1296T484 1259T448 1234T403 1225Q379 1225 358 1234T321 1258T296 1295T287 1341ZM629 1341Q629 1364 638 1384T662 1420T698 1445T743 1454Q767 1454 788 1445T824 1421T849 1385T858 1341Q858 1317 849 1296T825 1259T788 1234T743 1225Q719
1225 698 1234T662 1258T638 1295T629 1341Z" />
<glyph unicode="&#xf7;" glyph-name="divide" horiz-adv-x="1272" d="M102 739H1167V608H102V739ZM510 260Q510 313 546 349T637 385Q690 385 726 349T762 260Q762 206 726 170T637 133Q583 133 547 169T510 260ZM637 1167Q690 1167 726 1131T762 1042Q762 989
726 952T637 915Q583 915 547 952T510 1042T546 1131T637 1167Z" />
<glyph unicode="&#xf8;" glyph-name="oslash" horiz-adv-x="1163" d="M92 512Q92 754 222 901T582 1049Q732 1049 850 977L924 1108H1071L948 891Q1071 746 1071 512Q1071 270 941 123T582 -25Q482 -25 395 6L338 -92H190L281 68Q189 137 141 251T92 512ZM287
512Q287 296 371 176L766 883Q688 961 582 961Q441 961 364 837T287 512ZM883 512Q883 653 840 764L469 88Q521 63 582 63Q723 63 803 187T883 512Z" />
<glyph unicode="&#xf9;" glyph-name="ugrave" horiz-adv-x="1288" d="M31 936V977L379 1049L399 1028V362Q399 219 449 163T616 106Q754 106 858 193V864L674 936V977L1022 1049L1042 1028V139L1227 88V51L879 -25L858 -4V115Q789 49 698 12T516 -25Q456 -25 403
-6T308 51T240 154T215 301V864L31 936ZM482 1556L678 1206L623 1167L322 1470L334 1511L482 1556Z" />
<glyph unicode="&#xfa;" glyph-name="uacute" horiz-adv-x="1288" d="M31 936V977L379 1049L399 1028V362Q399 219 449 163T616 106Q754 106 858 193V864L674 936V977L1022 1049L1042 1028V139L1227 88V51L879 -25L858 -4V115Q789 49 698 12T516 -25Q456 -25 403
-6T308 51T240 154T215 301V864L31 936ZM537 1206L733 1556L881 1516L893 1470L592 1167L537 1206Z" />
<glyph unicode="&#xfb;" glyph-name="ucircumflex" horiz-adv-x="1288" d="M31 936V977L379 1049L399 1028V362Q399 219 449 163T616 106Q754 106 858 193V864L674 936V977L1022 1049L1042 1028V139L1227 88V51L879 -25L858 -4V115Q789 49 698 12T516 -25Q456
-25 403 -6T308 51T240 154T215 301V864L31 936ZM670 1554L918 1208L906 1186L824 1165L627 1391H619L420 1165L344 1186L332 1210L576 1554H670Z" />
<glyph unicode="&#xfc;" glyph-name="udieresis" horiz-adv-x="1288" d="M31 936V977L379 1049L399 1028V362Q399 219 449 163T616 106Q754 106 858 193V864L674 936V977L1022 1049L1042 1028V139L1227 88V51L879 -25L858 -4V115Q789 49 698 12T516 -25Q456 -25
403 -6T308 51T240 154T215 301V864L31 936ZM318 1341Q318 1365 327 1385T351 1421T388 1445T434 1454Q458 1454 479 1445T515 1421T538 1386T547 1341Q547 1317 539 1296T515 1259T479 1234T434 1225Q410 1225 389 1234T352 1258T327 1295T318 1341ZM660 1341Q660
1364 669 1384T693 1420T729 1445T774 1454Q798 1454 819 1445T855 1421T880 1385T889 1341Q889 1317 880 1296T856 1259T819 1234T774 1225Q750 1225 729 1234T693 1258T669 1295T660 1341Z" />
<glyph unicode="&#xfd;" glyph-name="yacute" horiz-adv-x="1128" d="M-41 983V1024H489V983L334 922L629 252L870 926L723 983V1024H1159V983L975 911L647 0L422 -537L252 -506L233 -465L551 35L143 918V911L-41 983ZM518 1206L714 1556L862 1516L874 1470L573
1167L518 1206Z" />
<glyph unicode="&#xfe;" glyph-name="thorn" horiz-adv-x="1180" d="M604 -471V-512H10V-471L195 -399V1376L10 1448V1489L358 1561L379 1540V926Q435 995 499 1022T649 1049Q733 1049 812 1012T952 904T1050 735T1087 512Q1087 373 1046 272T937 105T780 7T598
-25Q478 -25 379 18V-399L604 -471ZM606 946Q543 946 482 917T379 836V201Q408 144 467 111T598 78Q649 78 699 101T790 175T854 309T879 512Q879 607 861 687T807 824T722 914T606 946Z" />
<glyph unicode="&#xff;" glyph-name="ydieresis" horiz-adv-x="1128" d="M-41 983V1024H489V983L334 922L629 252L870 926L723 983V1024H1159V983L975 911L647 0L422 -537L252 -506L233 -465L551 35L143 918V911L-41 983ZM299 1341Q299 1365 308 1385T332 1421T369
1445T415 1454Q439 1454 460 1445T496 1421T519 1386T528 1341Q528 1317 520 1296T496 1259T460 1234T415 1225Q391 1225 370 1234T333 1258T308 1295T299 1341ZM641 1341Q641 1364 650 1384T674 1420T710 1445T755 1454Q779 1454 800 1445T836 1421T861 1385T870
1341Q870 1317 861 1296T837 1259T800 1234T755 1225Q731 1225 710 1234T674 1258T650 1295T641 1341Z" />
<glyph unicode="&#x2013;" glyph-name="endash" horiz-adv-x="1262" d="M102 678H1159V555H102V678Z" />
<glyph unicode="&#x2014;" glyph-name="emdash" horiz-adv-x="1958" d="M102 676H1855V553H102V676Z" />
<glyph unicode="&#x2018;" glyph-name="quoteleft" horiz-adv-x="555" d="M410 1087Q410 1035 373 999T283 963Q216 963 185 1010T154 1130Q154 1265 239 1372T451 1516L483 1454Q398 1414 340 1356T281 1233L283 1214Q336 1214 373 1178T410 1087Z" />
<glyph unicode="&#x2019;" glyph-name="quoteright" horiz-adv-x="555" d="M145 1391Q145 1443 182 1479T272 1516Q339 1516 370 1469T401 1348Q401 1213 316 1106T104 963L72 1024Q157 1064 215 1122T274 1245L272 1264Q219 1264 182 1300T145 1391Z" />
<glyph unicode="&#x201a;" glyph-name="quotesinglbase" horiz-adv-x="555" d="M186 100Q186 152 223 188T313 225Q380 225 411 178T442 57Q442 -77 357 -184T145 -328L113 -266Q198 -226 256 -168T315 -45L313 -27Q260 -27 223 10T186 100Z" />
<glyph unicode="&#x201c;" glyph-name="quotedblleft" horiz-adv-x="965" d="M410 1087Q410 1035 373 999T283 963Q216 963 185 1010T154 1130Q154 1265 239 1372T451 1516L483 1454Q398 1414 340 1356T281 1233L283 1214Q336 1214 373 1178T410 1087ZM819 1087Q819
1035 783 999T692 963Q626 963 595 1010T563 1130Q563 1265 648 1372T860 1516L893 1454Q808 1414 749 1356T690 1233L692 1214Q746 1214 782 1178T819 1087Z" />
<glyph unicode="&#x201d;" glyph-name="quotedblright" horiz-adv-x="965" d="M555 1391Q555 1443 591 1479T682 1516Q748 1516 779 1469T811 1348Q811 1213 726 1106T514 963L481 1024Q567 1064 625 1122T684 1245L682 1264Q628 1264 592 1300T555 1391ZM145
1391Q145 1443 182 1479T272 1516Q339 1516 370 1469T401 1348Q401 1213 316 1106T104 963L72 1024Q157 1064 215 1122T274 1245L272 1264Q219 1264 182 1300T145 1391Z" />
<glyph unicode="&#x201e;" glyph-name="quotedblbase" horiz-adv-x="965" d="M723 223Q789 223 820 176T852 55Q852 -79 767 -186T555 -330L522 -268Q608 -228 666 -170T725 -47L723 -29Q669 -29 633 8T596 98T632 187T723 223ZM186 98Q186 150 223 186T313 223Q380
223 411 176T442 55Q442 -79 357 -186T145 -330L113 -268Q198 -228 256 -170T315 -47L313 -29Q260 -29 223 8T186 98Z" />
<glyph unicode="&#x2022;" glyph-name="bullet" horiz-adv-x="897" d="M205 770Q205 822 226 869T282 952T365 1009T465 1030Q517 1030 564 1009T646 953T702 870T723 770Q723 718 702 671T646 589T564 533T465 512Q412 512 365 533T283 589T226 672T205 770Z" />
<glyph unicode="&#x2039;" glyph-name="guilsinglleft" horiz-adv-x="702" d="M332 594L631 143L598 117L113 571V616L598 1071L631 1044L332 594Z" />
<glyph unicode="&#x203a;" glyph-name="guilsinglright" horiz-adv-x="702" d="M72 143L371 594L72 1044L104 1071L590 616V571L104 117L72 143Z" />
</font>
</defs>
</svg>
