<?xml version="1.0" standalone="no"?>
<!DOCTYPE svg PUBLIC "-//W3C//DTD SVG 1.1//EN" "http://www.w3.org/Graphics/SVG/1.1/DTD/svg11.dtd">
<svg xmlns="http://www.w3.org/2000/svg">
<defs >
<font id="Sevillana" horiz-adv-x="744" ><font-face
    font-family="Sevillana"
    units-per-em="2048"
    panose-1="2 0 5 0 0 0 0 2 0 2"
    ascent="2062"
    descent="-717"
    alphabetic="0" />
<glyph unicode=" " glyph-name="space" horiz-adv-x="500" />
<glyph unicode="!" glyph-name="exclam" horiz-adv-x="623" d="M205 66Q205 111 235 141T311 172Q356 172 387 142T418 66Q418 20 387 -10T311 -41Q266 -41 236 -11T205 66ZM279 459Q279 422 290 398T318 359T357 339T401 334V272Q319 272 266 314T213 459V1679H352L317
1196Q313 1135 307 1041T295 842T284 635T279 459Z" />
<glyph unicode="&quot;" glyph-name="quotedbl" horiz-adv-x="424" d="M92 1679H178L164 1307H106L92 1679ZM246 1679H332L317 1307H260L246 1679Z" />
<glyph unicode="#" glyph-name="numbersign" horiz-adv-x="1255" d="M770 614H426L350 0H285L360 614H92V676H367L410 1024H92V1085H418L489 1659H555L483 1085H827L899 1659H965L893 1085H1163V1024H885L842 676H1163V614H836L760 0H694L770 614ZM432 676H776L819
1024H475L432 676Z" />
<glyph unicode="$" glyph-name="dollar" horiz-adv-x="1049" d="M537 1903H602V1716Q692 1704 743 1646T795 1495Q795 1405 750 1351T618 1296Q553 1296 508 1335T463 1446Q463 1489 482 1521T537 1571V1657Q463 1649 416 1595T369 1446Q369 1370 415 1300T531
1156T683 1007T834 844T951 661T997 449Q997 260 897 130T602 -31V-287H537V-39Q522 -41 510 -41T483 -41Q389 -41 310 -9T174 79T84 214T51 389Q51 494 86 567T174 687T289 753T410 774Q481 774 537 753T632 692T690 602T711 494Q711 434 685 372T602 274V35Q731
72 792 178T854 420Q854 520 810 606T700 771T555 924T411 1079T300 1247T256 1440Q256 1491 273 1541T326 1629T414 1691T537 1720V1903ZM492 246Q375 246 329 320T283 506H348Q348 467 354 431T376 368T421 324T492 307Q557 307 601 351T645 494Q645 596 579
654T410 713Q354 713 302 696T209 639T143 539T117 389Q117 285 156 214T251 100T370 39T485 20Q498 20 511 20T537 23V250Q526 246 515 246T492 246ZM528 1446Q528 1407 553 1383T618 1358Q668 1358 698 1392T729 1497Q729 1556 698 1600T602 1655V1524Q573 1524
551 1506T528 1446Z" />
<glyph unicode="%" glyph-name="percent" horiz-adv-x="1057" d="M815 1679H880L245 0H180L815 1679ZM310 1720Q420 1720 480 1637T541 1399Q541 1245 481 1163T310 1081Q199 1081 138 1163T76 1399Q76 1554 137 1637T310 1720ZM310 1673Q175 1673 175 1403Q175
1128 310 1128Q443 1128 443 1399Q443 1673 310 1673ZM750 599Q860 599 920 516T981 278Q981 124 921 42T750 -40Q639 -40 578 42T516 278Q516 433 577 516T750 599ZM750 552Q615 552 615 282Q615 7 750 7Q883 7 883 278Q883 552 750 552Z" />
<glyph unicode="&amp;" glyph-name="ampersand" horiz-adv-x="1286" d="M1071 -41Q1004 -41 944 -18T827 49Q774 6 706 -17T557 -41Q461 -41 370 -16T208 66T94 213T51 434Q51 522 69 596T121 733T201 854T305 967Q281 1059 268 1145T254 1311Q254 1403 278 1477T349
1606T460 1690T610 1720Q702 1720 758 1669T815 1530Q815 1487 805 1443T763 1347T674 1227T522 1067Q498 1042 476 1019T432 973Q451 920 473 867T522 758Q575 774 629 774Q696 774 758 753T870 685T949 566T979 389Q979 236 903 129Q950 76 992 48T1081 20Q1126
20 1153 41T1195 97T1215 170T1221 246V311H1286V246Q1286 123 1236 41T1071 -41ZM319 492Q319 547 339 597T401 686Q383 727 368 770T338 854Q272 762 239 662T205 438Q205 229 302 125T555 20Q610 20 669 35T780 90Q709 160 635 264Q594 246 539 246Q479 246
438 266T371 320T332 399T319 492ZM362 1313Q362 1196 403 1057Q420 1069 428 1077Q520 1157 581 1222T681 1342T734 1443T750 1532Q750 1589 715 1624T612 1659Q547 1659 500 1633T422 1560T377 1450T362 1313ZM723 395Q762 330 795 277T862 180Q885 221 899 272T913
389Q913 477 890 538T826 639T735 695T629 713Q590 713 549 702Q590 625 633 548T723 395ZM539 307Q571 307 598 317L563 375Q526 432 493 495T428 625Q385 571 385 492Q385 393 432 350T539 307Z" />
<glyph unicode="&apos;" glyph-name="quotesingle" horiz-adv-x="270" d="M92 1679H178L164 1307H106L92 1679Z" />
<glyph unicode="(" glyph-name="parenleft" horiz-adv-x="643" d="M307 829Q307 735 312 627T330 411T368 203T433 26T529 -97T664 -143V-205Q532 -205 438 -125T283 95T193 424T164 829Q164 1047 192 1235T282 1562T438 1783T664 1864V1802Q586 1802 530 1756T433
1633T369 1456T331 1249T312 1033T307 829Z" />
<glyph unicode=")" glyph-name="parenright" horiz-adv-x="643" d="M336 829Q336 924 331 1032T313 1248T275 1456T210 1633T114 1756T-20 1802V1864Q111 1864 205 1783T360 1563T450 1235T479 829Q479 612 451 424T361 96T205 -125T-20 -205V-143Q57 -143 113
-97T210 25T274 202T312 410T331 626T336 829Z" />
<glyph unicode="*" glyph-name="asterisk" horiz-adv-x="664" d="M453 1423Q449 1393 430 1366L553 1262L512 1217L403 1341Q377 1325 348 1319L362 1159H297L311 1319Q276 1325 256 1343L147 1217L106 1262L231 1370Q213 1399 211 1425L51 1409V1470L211 1454Q213
1481 231 1509L106 1618L147 1663L256 1536Q276 1554 311 1561L297 1720H362L348 1561Q379 1556 406 1538L512 1663L553 1618L430 1511Q451 1485 453 1454L612 1470V1409L453 1423Z" />
<glyph unicode="+" glyph-name="plus" horiz-adv-x="512" d="M225 471H10V532H225V743H287V532H502V471H287V252H225V471Z" />
<glyph unicode="," glyph-name="comma" horiz-adv-x="410" d="M98 61Q98 109 126 140T201 172Q248 172 279 136T311 31Q311 -66 267 -133T145 -201V-139Q199 -137 236 -94T274 2H254Q231 -41 182 -41Q141 -41 120 -14T98 61Z" />
<glyph unicode="-" glyph-name="hyphen" horiz-adv-x="645" d="M563 471H82V532H563V471Z" />
<glyph unicode="." glyph-name="period" horiz-adv-x="410" d="M98 66Q98 111 129 141T205 172Q250 172 280 142T311 66Q311 20 281 -10T205 -41Q160 -41 129 -11T98 66Z" />
<glyph unicode="/" glyph-name="slash" horiz-adv-x="1024" d="M797 1679H862L227 0H162L797 1679Z" />
<glyph unicode="0" glyph-name="zero" horiz-adv-x="1065" d="M532 1720Q764 1720 887 1498T1010 840Q1010 403 888 181T532 -41Q299 -41 177 181T55 840Q55 1276 177 1498T532 1720ZM373 1620Q317 1573 285 1499T236 1326T214 1105T209 840Q209 762 212 671T226
489T259 312T316 163T405 59T532 20Q606 20 658 59T747 162T804 312T837 488T853 671T856 840Q856 918 854 1009T843 1191T815 1367T762 1516T679 1620T557 1659Q494 1659 446 1619T397 1501Q397 1432 428 1395T508 1358Q549 1358 573 1382T598 1446Q598 1491 570
1507T512 1524V1585Q578 1585 621 1549T664 1446Q664 1380 619 1338T508 1296Q428 1296 384 1346T340 1475Q340 1513 354 1553T395 1620H373Z" />
<glyph unicode="1" glyph-name="one" horiz-adv-x="1065" d="M430 10Q541 10 608 51T713 161T763 322T776 514Q776 594 766 698T743 911T719 1122T709 1300Q709 1358 711 1403T721 1524H700Q690 1450 655 1380Q627 1321 572 1254T420 1135V1204Q449 1221 489 1250T570
1333T645 1469T696 1679H831Q827 1626 826 1577T825 1475Q825 1358 839 1249T870 1027T901 800T915 555Q915 442 893 334T814 139T664 1T426 -51Q332 -51 255 -20T124 68T40 204T10 379Q10 483 45 557T133 677T248 743T369 764Q440 764 496 743T591 682T649 592T670
483Q670 442 658 398T619 319T550 260T451 236Q334 236 288 310T242 496H307Q307 457 313 421T335 358T380 314T451 297Q510 297 557 341T604 483Q604 586 538 644T369 702Q313 702 261 685T168 629T102 529T76 379Q76 274 111 204T201 90T317 29T430 10Z" />
<glyph unicode="2" glyph-name="two" horiz-adv-x="1065" d="M502 1720Q676 1720 768 1621T860 1356Q860 1274 835 1202T766 1066T667 942T551 821Q498 768 448 720T353 620T273 510T211 385L229 377Q248 412 272 444T326 502T393 543T473 559Q547 559 591 520T663
421T710 289T748 152Q768 82 790 51T852 20Q885 20 904 39T933 90T944 157T946 223V311H1012V225Q1012 168 1003 119T972 35T916 -20T827 -41Q762 -41 719 -5T647 96Q625 147 610 202T573 303T518 377T430 406Q362 406 316 354T243 233T204 98T193 0H127Q125 12
125 25V86Q125 233 155 344T232 539T334 687T438 807Q496 870 548 931T638 1055T698 1186T721 1335Q721 1436 702 1499T648 1598T571 1646T481 1659Q379 1659 311 1594T242 1407Q242 1366 252 1327T282 1260T335 1214T412 1196Q446 1196 480 1213T530 1266Q549
1303 553 1349T557 1458H623Q623 1432 622 1400T617 1337T602 1274T573 1217Q549 1182 504 1159T406 1135Q348 1135 305 1155T234 1212T191 1298T176 1405Q176 1477 200 1535T268 1634T370 1697T502 1720Z" />
<glyph unicode="3" glyph-name="three" horiz-adv-x="1065" d="M524 1030Q657 1012 749 962T900 840T984 680T1010 498Q1010 371 969 272T857 103T689 -4T479 -41Q385 -41 308 -9T177 79T93 214T63 389Q63 494 98 567T186 687T302 753T422 774Q494 774 550 753T644
692T702 602T723 494Q723 453 711 409T672 329T603 270T504 246Q387 246 341 320T295 506H360Q360 467 366 431T389 368T433 324T504 307Q563 307 610 351T657 494Q657 596 591 654T422 713Q367 713 315 696T221 639T155 539T129 389Q129 285 165 214T255 100T370
39T483 20Q575 20 646 56T763 155T832 306T856 498Q856 616 821 708T725 865T581 964T403 999V1061Q455 1067 512 1086T618 1144T699 1240T731 1382Q731 1462 712 1515T660 1600T584 1645T492 1659Q389 1659 321 1594T252 1407Q252 1366 262 1327T292 1260T345
1214T422 1196Q457 1196 489 1212T539 1264Q557 1300 562 1347T567 1458H633Q633 1432 632 1400T626 1336T611 1272T582 1214Q557 1180 513 1158T416 1135Q358 1135 315 1155T244 1212T201 1298T186 1405Q186 1477 211 1535T279 1634T381 1697T512 1720Q608 1720
675 1693T786 1618T849 1511T870 1386Q870 1335 850 1281T787 1180T680 1098T524 1051V1030Z" />
<glyph unicode="4" glyph-name="four" horiz-adv-x="1065" d="M430 20Q541 20 608 61T713 172T763 333T776 524Q776 586 769 661T753 817T733 979T717 1135H336V1196Q371 1233 382 1282T393 1368Q393 1444 348 1503T236 1597L326 1720Q381 1681 415 1643T467 1566T490
1491T496 1419Q496 1343 462 1290T395 1217V1196H711Q709 1221 709 1243T709 1288Q709 1411 715 1504T731 1679H836Q831 1626 830 1577T829 1475Q829 1397 833 1330T846 1196H961V1135H854Q864 1065 874 999T894 864T909 721T915 565Q915 453 893 345T814 150T664
11T426 -41Q332 -41 255 -9T124 79T40 214T10 389Q10 494 45 567T133 687T248 753T369 774Q440 774 496 753T591 692T649 602T670 494Q670 453 658 409T619 329T550 270T451 246Q334 246 288 320T242 506H307Q307 467 313 431T335 368T380 324T451 307Q510 307
557 351T604 494Q604 596 538 654T369 713Q313 713 261 696T168 639T102 539T76 389Q76 285 111 214T201 100T317 39T430 20Z" />
<glyph unicode="5" glyph-name="five" horiz-adv-x="1065" d="M442 -41Q348 -41 272 -9T141 79T57 214T27 389Q27 494 61 567T149 687T265 753T385 774Q457 774 513 753T607 692T665 602T686 494Q686 453 674 409T635 329T566 270T467 246Q350 246 304 320T258
506H324Q324 467 330 431T352 368T396 324T467 307Q526 307 573 351T621 494Q621 596 554 654T385 713Q330 713 278 696T184 639T118 539T92 389Q92 285 128 214T218 100T333 39T446 20Q539 20 609 56T726 155T795 306T819 498Q819 616 785 708T689 865T544 964T367
999V1061Q377 1098 382 1150T387 1262Q387 1346 365 1418T313 1548Q281 1614 240 1671L289 1720Q322 1696 358 1675Q391 1659 436 1645T539 1630Q592 1630 639 1644T721 1675Q760 1696 795 1720L850 1677Q842 1626 839 1583T836 1503Q836 1397 868 1318T958 1204V1135Q905
1155 872 1195T820 1282T794 1379T786 1473Q786 1524 793 1559Q795 1577 799 1593L780 1604Q737 1544 686 1511T561 1477Q498 1477 450 1505T379 1565L362 1550Q387 1513 408 1468Q424 1430 438 1378T453 1262Q453 1200 447 1145T432 1061Q582 1044 685 991T853
859T945 686T973 498Q973 371 932 272T821 103T653 -4T442 -41Z" />
<glyph unicode="6" glyph-name="six" horiz-adv-x="1065" d="M59 551Q59 657 82 769T147 987T241 1193T356 1378Q410 1454 465 1517T565 1626Q618 1679 666 1720L709 1669Q666 1632 618 1581Q578 1538 529 1475T426 1331Q381 1262 342 1175T275 990T230 787T213
571Q213 313 306 167T588 20Q645 20 708 38T823 100T908 214T942 389Q942 477 919 538T855 639T764 695T657 713Q551 713 483 654T414 492Q414 393 461 350T567 307Q610 307 638 323T682 367T704 431T711 506H776Q776 395 730 321T567 246Q508 246 467 266T400
320T361 399T348 492Q348 549 369 600T431 690T528 751T657 774Q725 774 787 753T899 685T978 566T1008 389Q1008 293 978 214T894 79T763 -9T592 -41Q330 -41 195 108T59 551Z" />
<glyph unicode="7" glyph-name="seven" horiz-adv-x="807" d="M764 1135H563Q528 1049 497 961T436 786Q395 657 373 529T350 307Q350 272 352 223T365 129T400 52T469 20Q504 20 524 39T556 90T570 157T573 223V311H639V225Q639 168 630 119T598 35T540 -20T451
-41Q324 -41 268 50T211 303Q211 401 235 532T307 795Q336 881 374 966T453 1135H285V1196H485Q526 1278 567 1349T639 1475Q676 1536 707 1587L690 1602Q639 1534 571 1506T436 1477Q358 1477 297 1508T178 1606L160 1593Q162 1575 166 1554Q170 1536 172 1514T174
1462Q174 1421 167 1376T142 1287T89 1203T0 1135V1204Q57 1245 90 1311T123 1499Q123 1538 120 1582T109 1677L164 1720Q209 1696 258 1675Q299 1659 352 1645T461 1630Q532 1630 586 1644T678 1675Q721 1696 752 1720L807 1673Q776 1610 739 1534Q709 1468 669
1382T588 1196H764V1135Z" />
<glyph unicode="8" glyph-name="eight" horiz-adv-x="1065" d="M221 1419Q221 1511 269 1567T401 1624Q467 1624 507 1584T547 1477Q547 1405 504 1370T395 1335V1397Q424 1397 452 1413T481 1475Q481 1516 460 1539T397 1563Q350 1563 319 1529T287 1423Q287
1346 343 1272T483 1133L522 1102Q606 1192 649 1271T692 1442Q692 1550 638 1604T498 1659H451V1720H498Q588 1720 651 1699T755 1641T813 1556T831 1456Q831 1346 764 1252T578 1059Q649 1001 723 938T856 801T952 640T989 449Q989 328 952 237T851 84T701 -9T522
-41Q424 -41 341 -13T200 71T109 209T76 399Q76 496 107 580T190 739T307 883T440 1020Q350 1112 286 1208T221 1419ZM836 389Q836 481 800 564T711 720T595 856T481 975Q420 920 360 856T251 719T172 567T141 401Q141 297 173 225T256 106T372 39T504 18Q659 18
747 120T836 389Z" />
<glyph unicode="9" glyph-name="nine" horiz-adv-x="1065" d="M850 1237Q850 1126 828 1004T764 760T666 525T541 313Q485 236 432 171T338 59Q289 4 244 -41L199 8Q242 49 287 104Q326 152 374 218T473 369Q596 573 646 792T696 1231Q696 1356 677 1438T624 1569T547
1638T457 1659Q354 1659 286 1594T217 1407Q217 1366 227 1327T258 1260T310 1214T387 1196Q422 1196 455 1213T506 1266Q524 1303 528 1349T532 1458H598Q598 1432 597 1400T592 1337T578 1274T549 1217Q524 1182 479 1159T381 1135Q324 1135 281 1155T209 1212T166
1298T152 1405Q152 1477 176 1535T244 1634T346 1697T477 1720Q573 1720 644 1685T761 1585T828 1432T850 1237Z" />
<glyph unicode=":" glyph-name="colon" horiz-adv-x="410" d="M98 66Q98 111 129 141T205 172Q250 172 280 142T311 66Q311 20 281 -10T205 -41Q160 -41 129 -11T98 66ZM98 754Q98 799 129 829T205 860Q250 860 280 830T311 754Q311 709 281 678T205 647Q160 647
129 678T98 754Z" />
<glyph unicode=";" glyph-name="semicolon" horiz-adv-x="410" d="M98 754Q98 799 129 829T205 860Q250 860 280 830T311 754Q311 709 281 678T205 647Q160 647 129 678T98 754ZM98 61Q98 109 126 140T201 172Q248 172 279 136T311 31Q311 -66 267 -133T145 -201V-139Q199
-137 236 -94T274 2H254Q231 -41 182 -41Q141 -41 120 -14T98 61Z" />
<glyph unicode="&lt;" glyph-name="less" horiz-adv-x="512" d="M477 276L10 477V526L479 727L500 674L106 506L502 338L477 276Z" />
<glyph unicode="=" glyph-name="equal" horiz-adv-x="512" d="M502 553H10V614H502V553ZM502 389H10V451H502V389Z" />
<glyph unicode="&gt;" glyph-name="greater" horiz-adv-x="512" d="M35 727L502 526V477L33 276L12 330L406 498L10 666L35 727Z" />
<glyph unicode="?" glyph-name="question" horiz-adv-x="1018" d="M426 459Q426 387 464 361T549 334V272Q471 272 416 312T360 459Q360 532 393 594T475 716T580 835T686 961T768 1107T801 1284Q801 1456 716 1557T446 1659Q399 1659 338 1643T221 1584T128 1474T90
1300Q90 1210 115 1148T183 1045T277 986T385 967Q489 967 552 1027T616 1190Q616 1288 567 1330T461 1372Q416 1372 386 1353T340 1298Q328 1272 324 1240T319 1174H254Q254 1217 261 1257T287 1333Q309 1376 353 1405T461 1434Q522 1434 565 1412T633 1354T670
1277T682 1194Q682 1145 666 1093T612 999T518 932T379 905Q332 905 271 921T155 982T63 1102T25 1298Q25 1391 58 1468T151 1602T290 1689T461 1720Q565 1720 644 1698T788 1626Q864 1571 902 1483T940 1290Q940 1186 902 1104T807 955T683 828T559 711T464 592T426
459ZM371 66Q371 111 401 141T477 172Q522 172 553 142T584 66Q584 20 553 -10T477 -41Q432 -41 402 -11T371 66Z" />
<glyph unicode="@" glyph-name="at" horiz-adv-x="1638" d="M772 -487Q631 -487 500 -434T270 -268T111 23T51 449Q51 631 101 789T248 1067T485 1253T809 1321Q1001 1321 1147 1254T1391 1067T1538 790T1587 449Q1587 197 1503 78T1282 -41Q1241 -41 1201 -33T1127
-4T1065 53T1024 141H1004Q985 70 931 15T784 -41Q700 -41 643 -5T550 92T498 234T481 408Q481 625 568 742T809 860Q965 860 1051 744T1137 358Q1137 279 1140 228T1153 139Q1184 20 1296 20Q1348 20 1389 44T1459 119T1505 251T1522 449Q1522 618 1474 765T1334
1023T1110 1196T809 1260Q643 1260 514 1197T297 1023T163 766T117 449Q117 221 173 55T321 -218T531 -377T772 -428Q831 -428 894 -414T1010 -366T1095 -276T1128 -135H1194Q1194 -225 1159 -291T1066 -401T931 -465T772 -487ZM809 799Q614 799 614 412Q614 219
662 120T809 20Q905 20 954 118T1004 408Q1004 600 955 699T809 799Z" />
<glyph unicode="A" glyph-name="A" horiz-adv-x="1710" d="M1704 1679V1618Q1688 1618 1667 1615T1620 1604T1573 1581T1532 1546Q1487 1493 1472 1412T1456 1182Q1456 1120 1458 1064T1462 948T1466 822T1468 676Q1468 627 1466 574T1457 468T1438 368T1407 283Q1376
221 1321 163T1182 82V61H1460Q1516 61 1547 82T1596 138T1619 211T1624 287V352H1690V287Q1690 225 1680 173T1643 82T1570 22T1452 0H963V61Q1036 61 1103 82T1212 145Q1255 188 1279 239T1314 349T1327 471T1329 598Q1329 705 1323 819H1116Q1104 750 1091 683T1061
555Q1026 420 979 311T863 123T696 2T467 -41Q373 -41 296 -9T165 79T81 214T51 389Q51 494 86 567T174 687T289 753T410 774Q481 774 537 753T632 692T690 602T711 494Q711 453 699 409T660 329T591 270T492 246Q375 246 329 320T283 506H348Q348 467 354 431T376
368T421 324T492 307Q551 307 598 351T645 494Q645 596 579 654T410 713Q354 713 302 696T209 639T143 539T117 389Q117 285 152 214T242 100T358 39T471 20Q588 20 674 60T821 172T924 343T995 561Q1026 684 1050 821T1099 1086T1154 1323T1225 1499Q1237 1520
1262 1548T1329 1597V1618Q1225 1618 1111 1585T911 1481Q852 1432 814 1363T776 1204Q776 1135 807 1098T887 1061Q928 1061 952 1085T977 1149Q977 1194 949 1210T891 1227V1288Q956 1288 999 1253T1042 1149Q1042 1083 998 1041T889 999Q803 999 757 1054T711
1202Q711 1305 759 1385T881 1526Q1001 1622 1153 1650T1495 1679H1704ZM1292 1491Q1262 1446 1238 1380T1195 1233T1160 1063T1126 881H1321Q1319 922 1319 965T1319 1055Q1319 1143 1322 1210T1334 1331T1359 1427T1401 1507Q1432 1552 1469 1577T1544 1618Q1458
1614 1397 1584T1292 1491Z" />
<glyph unicode="B" glyph-name="B" horiz-adv-x="1706" d="M965 1182Q965 1059 971 927T977 635Q977 311 857 135T467 -41Q373 -41 296 -9T165 79T81 214T51 389Q51 494 86 567T174 687T289 753T410 774Q481 774 537 753T632 692T690 602T711 494Q711 453 699
409T660 329T591 270T492 246Q375 246 329 320T283 506H348Q348 467 354 431T376 368T421 324T492 307Q551 307 598 351T645 494Q645 596 579 654T410 713Q354 713 302 696T209 639T143 539T117 389Q117 285 152 214T242 100T358 39T471 20Q592 20 664 66T775 188T825
360T838 557Q838 666 833 796T827 1055Q827 1237 843 1348T901 1536Q827 1530 756 1507T627 1442T535 1341T500 1204Q500 1135 530 1098T610 1061Q651 1061 675 1085T700 1149Q700 1194 672 1210T614 1227V1288Q680 1288 723 1253T766 1149Q766 1083 721 1041T610
999Q524 999 479 1054T434 1202Q434 1298 479 1371T597 1494T761 1570T944 1599Q993 1657 1064 1688T1219 1720V1659Q1190 1659 1140 1646T1053 1595Q1169 1585 1251 1551T1384 1467T1459 1355T1483 1227Q1483 1114 1421 1022T1227 903V883Q1346 877 1427 836T1560
733T1633 592T1655 434Q1655 344 1633 258T1564 106T1444 -1T1270 -41Q1192 -41 1132 -12T1040 66Q1012 109 999 166T985 311H1051Q1051 186 1096 109Q1118 68 1162 44T1257 20Q1346 20 1395 66T1467 179T1496 319T1501 449Q1501 537 1481 610T1414 737T1297 819T1124
848H1087V909H1116Q1176 909 1216 939T1282 1015T1318 1115T1329 1221Q1329 1303 1305 1359T1237 1452T1137 1508T1012 1534Q985 1479 975 1395T965 1182Z" />
<glyph unicode="C" glyph-name="C" horiz-adv-x="1270" d="M801 -41Q649 -41 549 21T389 186T304 422T279 696Q279 874 313 1038Q203 1079 127 1168T51 1399Q51 1491 99 1547T231 1604Q297 1604 337 1564T377 1456Q377 1384 334 1350T225 1315V1376Q254 1376 282
1392T311 1454Q311 1495 290 1518T227 1542Q180 1542 149 1509T117 1403Q117 1290 177 1217T330 1104Q362 1235 413 1348T532 1544T686 1673T874 1720Q993 1720 1051 1653T1110 1489Q1110 1382 1067 1292T948 1138T770 1036T549 999Q498 999 453 1006Q442 932 437
852T432 713Q432 604 439 519T459 369T493 252T541 162Q588 94 657 57T799 20Q856 20 919 38T1034 100T1119 214T1153 389Q1153 477 1130 538T1066 639T975 695T868 713Q762 713 694 654T625 492Q625 393 672 350T778 307Q821 307 849 323T893 367T915 431T922
506H987Q987 395 941 321T778 246Q719 246 678 266T611 320T572 399T559 492Q559 549 580 600T642 690T739 751T868 774Q936 774 998 753T1110 685T1189 566T1219 389Q1219 293 1189 214T1104 79T972 -9T801 -41ZM547 1061Q655 1061 746 1092T904 1180T1007 1315T1044
1483Q1044 1565 1000 1612T872 1659Q784 1659 717 1608T599 1473T515 1284T463 1067Q502 1061 547 1061Z" />
<glyph unicode="D" glyph-name="D" horiz-adv-x="1720" d="M965 1182Q965 1059 971 927T977 635Q977 311 857 135T467 -41Q373 -41 296 -9T165 79T81 214T51 389Q51 494 86 567T174 687T289 753T410 774Q481 774 537 753T632 692T690 602T711 494Q711 453 699
409T660 329T591 270T492 246Q375 246 329 320T283 506H348Q348 467 354 431T376 368T421 324T492 307Q551 307 598 351T645 494Q645 596 579 654T410 713Q354 713 302 696T209 639T143 539T117 389Q117 285 152 214T242 100T358 39T471 20Q592 20 664 66T775 188T825
360T838 557Q838 666 833 796T827 1055Q827 1237 843 1348T901 1536Q827 1530 756 1507T627 1442T535 1341T500 1204Q500 1135 530 1098T610 1061Q651 1061 675 1085T700 1149Q700 1194 672 1210T614 1227V1288Q680 1288 723 1253T766 1149Q766 1083 721 1041T610
999Q524 999 479 1054T434 1202Q434 1300 481 1374T602 1498T766 1573T944 1599Q993 1657 1064 1688T1219 1720V1659Q1190 1659 1140 1646T1053 1593Q1221 1575 1337 1499T1528 1304T1635 1027T1669 690Q1669 569 1650 440T1584 205T1459 29T1262 -41Q1186 -41
1133 -15T1047 59T1000 171T985 311H1051Q1051 252 1062 199T1097 106T1162 43T1260 20Q1323 20 1367 54T1439 143T1483 270T1506 415T1514 561T1516 688Q1516 825 1496 967T1420 1231T1266 1435T1012 1534Q983 1479 974 1395T965 1182Z" />
<glyph unicode="E" glyph-name="E" horiz-adv-x="1257" d="M117 1403Q117 1323 148 1263T232 1160T353 1094T496 1063Q463 1118 452 1178T440 1292Q440 1415 499 1514T659 1671Q709 1700 761 1710T872 1720Q993 1720 1051 1654T1110 1489Q1110 1393 1075 1311T979
1166T833 1061T647 1006Q700 930 788 922V860Q745 860 685 842T569 777T472 655T432 459Q432 250 528 135T786 20Q844 20 907 38T1022 100T1107 214T1141 389Q1141 477 1118 538T1054 639T963 695T856 713Q750 713 681 654T612 492Q612 393 659 350T766 307Q809
307 836 323T880 367T903 431T909 506H975Q975 395 929 321T766 246Q707 246 666 266T598 320T559 399T547 492Q547 549 568 600T630 690T727 751T856 774Q924 774 986 753T1098 685T1176 566T1206 389Q1206 293 1177 214T1092 79T960 -9T788 -41Q692 -41 601 -15T439
68T323 215T279 434Q279 602 379 729T678 895V915Q594 942 543 999Q453 999 365 1023T207 1096T94 1219T51 1399Q51 1491 99 1547T231 1604Q297 1604 337 1564T377 1456Q377 1384 334 1350T225 1315V1376Q254 1376 282 1392T311 1454Q311 1495 290 1518T227 1542Q180
1542 149 1509T117 1403ZM868 1659Q795 1659 740 1628T649 1546T597 1428T580 1286Q580 1155 614 1063Q709 1073 788 1108T924 1198T1012 1326T1044 1483Q1044 1565 998 1612T868 1659Z" />
<glyph unicode="F" glyph-name="F" horiz-adv-x="1055" d="M1053 1618Q946 1618 834 1585T635 1481Q575 1432 538 1363T500 1204Q500 1135 530 1098T610 1061Q651 1061 675 1085T700 1149Q700 1194 672 1210T614 1227V1288Q680 1288 723 1253T766 1149Q766 1083
722 1041T612 999Q526 999 480 1054T434 1202Q434 1305 482 1385T604 1526Q725 1622 876 1650T1219 1679V1618Q1188 1618 1137 1604T1047 1546Q991 1483 978 1377T965 1141Q965 1073 967 1011T971 881H1135V819H973Q975 778 976 732T977 635Q977 311 857 135T467
-41Q373 -41 296 -9T165 79T81 214T51 389Q51 494 86 567T174 687T289 753T410 774Q481 774 537 753T632 692T690 602T711 494Q711 453 699 409T660 329T591 270T492 246Q375 246 329 320T283 506H348Q348 467 354 431T376 368T421 324T492 307Q551 307 598 351T645
494Q645 596 579 654T410 713Q354 713 302 696T209 639T143 539T117 389Q117 285 152 214T242 100T358 39T471 20Q592 20 664 66T775 188T825 360T838 557Q838 621 836 684T829 819H672V881H827V1014Q827 1112 832 1201T854 1358Q874 1436 920 1499T1053 1597V1618Z"
/>
<glyph unicode="G" glyph-name="G" horiz-adv-x="1313" d="M1018 272H997Q985 184 956 124T884 27T795 -25T702 -41Q582 -41 501 18T371 179T301 414T279 696Q279 874 313 1038Q203 1079 127 1168T51 1399Q51 1491 99 1547T231 1604Q297 1604 337 1564T377 1456Q377
1384 334 1350T225 1315V1376Q254 1376 282 1392T311 1454Q311 1495 290 1518T227 1542Q180 1542 149 1509T117 1403Q117 1290 177 1217T330 1104Q350 1184 376 1257T438 1395Q524 1561 641 1640T874 1720Q993 1720 1051 1653T1110 1489Q1110 1382 1067 1292T948
1138T770 1036T549 999Q498 999 453 1006Q442 932 437 862T432 731Q432 569 447 438T497 214T587 71T721 20Q862 20 936 204T1010 758H844V819H1300V758H1145V90Q1192 137 1219 184T1247 291V311H1313V293Q1313 207 1265 140T1145 10V-14Q1145 -76 1143 -144T1134
-281T1112 -414T1075 -532Q1040 -612 979 -664T836 -717Q752 -717 706 -664T659 -512Q659 -428 693 -357T780 -224T899 -109T1026 -8L1018 272ZM547 1061Q655 1061 746 1092T904 1180T1007 1315T1044 1483Q1044 1565 1000 1612T872 1659Q784 1659 717 1608T599
1473T515 1284T463 1067Q502 1061 547 1061ZM725 -512Q725 -584 758 -619T838 -655Q893 -655 932 -619T991 -516Q1004 -475 1012 -418T1023 -300T1027 -182T1028 -78Q973 -121 919 -167T821 -265T752 -378T725 -512Z" />
<glyph unicode="H" glyph-name="H" horiz-adv-x="1763" d="M1053 1618Q946 1618 834 1585T635 1481Q575 1432 538 1363T500 1204Q500 1135 530 1098T610 1061Q651 1061 675 1085T700 1149Q700 1194 672 1210T614 1227V1288Q680 1288 723 1253T766 1149Q766 1083
722 1041T612 999Q526 999 480 1054T434 1202Q434 1305 482 1385T604 1526Q725 1622 876 1650T1219 1679V1618Q1188 1618 1137 1604T1047 1546Q991 1483 978 1377T965 1141Q965 1073 967 1011T971 881H1374Q1372 915 1372 954T1372 1034Q1372 1135 1377 1210T1393
1343T1422 1444T1464 1526Q1511 1597 1590 1638T1763 1679V1618Q1733 1618 1681 1604T1591 1546Q1567 1518 1552 1485T1527 1407T1514 1303T1509 1161Q1509 1100 1511 1047T1515 937T1520 819T1522 676Q1522 627 1520 574T1511 468T1491 368T1460 283Q1430 221
1375 163T1235 82V61H1513Q1569 61 1600 82T1649 138T1672 211T1677 287V352H1743V287Q1743 225 1733 173T1696 82T1623 22T1505 0H1016V61Q1090 61 1157 82T1266 145Q1309 188 1332 239T1367 349T1380 471T1382 598Q1382 655 1380 708T1376 819H973Q975 778 976
732T977 635Q977 311 857 135T467 -41Q373 -41 296 -9T165 79T81 214T51 389Q51 494 86 567T174 687T289 753T410 774Q481 774 537 753T632 692T690 602T711 494Q711 453 699 409T660 329T591 270T492 246Q375 246 329 320T283 506H348Q348 467 354 431T376 368T421
324T492 307Q551 307 598 351T645 494Q645 596 579 654T410 713Q354 713 302 696T209 639T143 539T117 389Q117 285 152 214T242 100T358 39T471 20Q592 20 664 66T775 188T825 360T838 557Q838 666 833 775T827 1014Q827 1112 832 1201T854 1358Q874 1436 920
1499T1053 1597V1618Z" />
<glyph unicode="I" glyph-name="I" horiz-adv-x="1055" d="M1053 1618Q946 1618 834 1585T635 1481Q575 1432 538 1363T500 1204Q500 1135 530 1098T610 1061Q651 1061 675 1085T700 1149Q700 1194 672 1210T614 1227V1288Q680 1288 723 1253T766 1149Q766 1083
722 1041T612 999Q526 999 480 1054T434 1202Q434 1305 482 1385T604 1526Q725 1622 876 1650T1219 1679V1618Q1188 1618 1137 1604T1047 1546Q991 1483 978 1377T965 1141Q965 1079 967 1023T971 907T975 781T977 635Q977 311 857 135T467 -41Q373 -41 296 -9T165
79T81 214T51 389Q51 494 86 567T174 687T289 753T410 774Q481 774 537 753T632 692T690 602T711 494Q711 453 699 409T660 329T591 270T492 246Q375 246 329 320T283 506H348Q348 467 354 431T376 368T421 324T492 307Q551 307 598 351T645 494Q645 596 579 654T410
713Q354 713 302 696T209 639T143 539T117 389Q117 285 152 214T242 100T358 39T471 20Q592 20 664 66T775 188T825 360T838 557Q838 666 833 775T827 1014Q827 1106 828 1193T848 1355T915 1492T1053 1597V1618Z" />
<glyph unicode="J" glyph-name="J" horiz-adv-x="752" d="M451 557Q444 772 444 1014Q444 1112 449 1201T471 1358Q492 1436 537 1500T670 1597V1618Q618 1618 563 1610T453 1585T346 1542T252 1481Q193 1432 155 1363T117 1204Q117 1135 147 1098T227 1061Q268
1061 292 1085T317 1149Q317 1194 289 1210T231 1227V1288Q297 1288 340 1253T383 1149Q383 1083 338 1041T227 999Q141 999 96 1054T51 1202Q51 1303 100 1385T221 1526Q344 1620 495 1649T836 1679V1618Q793 1618 749 1603T666 1546Q637 1516 620 1470T594 1369T584
1256T582 1141V111Q629 158 656 205T684 311V332H750V313Q750 227 702 160T582 31V6Q582 -55 580 -124T571 -261T549 -394T512 -512Q477 -592 416 -644T272 -696Q188 -696 142 -643T96 -492Q96 -420 121 -357T190 -238T286 -133T395 -41Q414 -25 431 -12T465 14L451
557ZM162 -492Q162 -563 194 -599T274 -635Q330 -635 369 -598T428 -496Q440 -455 448 -397T461 -277T466 -158T467 -57Q412 -100 358 -146T259 -245T189 -358T162 -492Z" />
<glyph unicode="K" glyph-name="K" horiz-adv-x="1804" d="M1063 909H1092Q1151 909 1187 922T1243 964T1273 1039T1288 1151Q1303 1282 1321 1367T1370 1511Q1419 1606 1497 1642T1679 1679V1618Q1616 1618 1572 1597T1499 1529T1454 1411T1430 1239Q1423 1149
1408 1089T1365 989T1295 931T1194 901V881Q1313 872 1379 823T1476 704T1513 550T1520 393Q1520 287 1526 215T1545 100T1581 39T1636 20Q1669 20 1688 38T1719 86T1735 151T1739 223V311H1804V225Q1804 104 1761 32T1606 -41Q1538 -41 1492 -12T1419 73T1379
206T1366 377Q1366 469 1362 554T1334 704T1256 809T1104 848H1063V909ZM1053 1618Q946 1618 834 1585T635 1481Q575 1432 538 1363T500 1204Q500 1135 530 1098T610 1061Q651 1061 675 1085T700 1149Q700 1194 672 1210T614 1227V1288Q680 1288 723 1253T766 1149Q766
1083 722 1041T612 999Q526 999 480 1054T434 1202Q434 1305 482 1385T604 1526Q725 1622 876 1650T1219 1679V1618Q1188 1618 1137 1604T1047 1546Q991 1483 978 1377T965 1141Q965 1079 967 1023T971 907T975 781T977 635Q977 311 857 135T467 -41Q373 -41 296
-9T165 79T81 214T51 389Q51 494 86 567T174 687T289 753T410 774Q481 774 537 753T632 692T690 602T711 494Q711 453 699 409T660 329T591 270T492 246Q375 246 329 320T283 506H348Q348 467 354 431T376 368T421 324T492 307Q551 307 598 351T645 494Q645 596
579 654T410 713Q354 713 302 696T209 639T143 539T117 389Q117 285 152 214T242 100T358 39T471 20Q592 20 664 66T775 188T825 360T838 557Q838 666 833 775T827 1014Q827 1112 832 1201T854 1358Q874 1436 920 1499T1053 1597V1618Z" />
<glyph unicode="L" glyph-name="L" horiz-adv-x="934" d="M117 1403Q117 1325 146 1266T227 1163T344 1095T481 1061Q481 1161 486 1238T504 1375T534 1482T578 1567Q625 1638 702 1679T874 1720Q993 1720 1051 1653T1110 1489Q1110 1391 1073 1307T972 1159T817
1053T623 1001Q627 930 629 852T631 676Q631 627 629 574T620 468T600 368T569 283Q539 221 484 163T344 82V61H705Q760 61 791 82T840 138T863 211T868 287V352H934V287Q934 225 924 173T887 82T814 22T696 0H125V61Q199 61 266 82T375 145Q418 188 441 239T476
349T489 471T492 598Q492 694 488 792T481 999Q399 1008 322 1035T185 1112T88 1232T51 1399Q51 1491 99 1547T231 1604Q297 1604 337 1564T377 1456Q377 1384 334 1350T225 1315V1376Q254 1376 282 1392T311 1454Q311 1495 290 1518T227 1542Q180 1542 149 1509T117
1403ZM872 1659Q793 1659 744 1620T667 1516T629 1364T618 1182Q618 1151 618 1123T621 1065Q715 1075 792 1110T926 1200T1013 1327T1044 1483Q1044 1565 1000 1612T872 1659Z" />
<glyph unicode="M" glyph-name="M" horiz-adv-x="2273" d="M2294 1618Q2263 1618 2212 1604T2122 1546Q2073 1493 2057 1399T2040 1141Q2040 1079 2042 1029T2046 927T2050 815T2052 676Q2052 627 2050 574T2041 468T2022 368T1991 283Q1960 221 1905 163T1765
82V61H2044Q2099 61 2131 82T2180 138T2203 211T2208 287V352H2273V287Q2273 225 2263 173T2227 82T2154 22T2036 0H1546V61Q1620 61 1687 82T1796 145Q1839 188 1862 239T1897 349T1911 471T1913 598Q1913 651 1911 699T1908 796T1905 897T1903 1014Q1903 1239
1929 1360Q1952 1458 2004 1516T2128 1597V1618Q2052 1618 1985 1569T1870 1444Q1829 1378 1797 1291T1737 1100T1683 878T1632 633Q1622 578 1609 520T1581 404T1551 291T1516 190Q1481 102 1424 51T1274 0H1202V61H1272Q1378 68 1378 147Q1378 195 1362 297T1321
525T1268 782T1214 1018Q1204 1059 1182 1141T1126 1315Q1106 1231 1093 1134T1069 936T1048 738T1022 555Q997 422 961 312T861 123T702 2T467 -41Q373 -41 296 -9T165 79T81 214T51 389Q51 494 86 567T174 687T289 753T410 774Q481 774 537 753T632 692T690 602T711
494Q711 453 699 409T660 329T591 270T492 246Q375 246 329 320T283 506H348Q348 467 354 431T376 368T421 324T492 307Q551 307 598 351T645 494Q645 596 579 654T410 713Q354 713 302 696T209 639T143 539T117 389Q117 285 152 214T242 100T358 39T471 20Q594
20 678 60T817 171T904 341T958 561Q977 662 989 776T1014 1005T1044 1225T1087 1413L1077 1440Q1032 1540 970 1599T809 1659Q725 1659 683 1613T641 1497Q641 1427 671 1393T752 1358Q793 1358 817 1382T842 1446Q842 1491 813 1507T756 1524V1585Q821 1585 864
1549T907 1446Q907 1380 862 1338T752 1296Q666 1296 621 1349T575 1495Q575 1599 643 1659T815 1720Q930 1720 1014 1674T1158 1548T1261 1362T1333 1137Q1358 1042 1380 952T1423 769T1462 579T1497 371H1513Q1522 403 1530 441T1545 519T1560 598T1575 670Q1624
918 1674 1119T1804 1454Q1888 1591 1997 1638Q2091 1679 2228 1679H2294V1618Z" />
<glyph unicode="N" glyph-name="N" horiz-adv-x="1886" d="M662 1659Q578 1659 535 1613T492 1497Q492 1427 522 1393T602 1358Q643 1358 667 1382T692 1446Q692 1491 664 1507T606 1524V1585Q672 1585 715 1549T758 1446Q758 1380 713 1338T602 1296Q516 1296
471 1349T426 1495Q426 1599 493 1659T666 1720Q793 1720 886 1659T1044 1489Q1106 1386 1154 1270T1247 1001Q1294 844 1343 681T1434 377Q1438 362 1441 350T1448 326Q1468 381 1476 442T1485 573Q1485 635 1483 706T1479 853T1475 1003T1473 1147Q1473 1325
1494 1427T1575 1593Q1655 1679 1792 1679V1618Q1747 1618 1701 1605T1618 1548Q1589 1516 1573 1467T1549 1362T1540 1249T1538 1141Q1538 1079 1540 1019T1544 895T1548 761T1550 608Q1550 510 1538 419T1487 244L1479 229Q1518 131 1565 76T1681 20Q1726 20
1753 41T1795 97T1815 170T1821 246V311H1886V246Q1886 123 1836 41T1671 -41Q1597 -41 1541 -17T1441 57T1361 179T1292 348Q1251 465 1202 618T1096 977Q1090 1004 1074 1055T1036 1169T986 1303T930 1438Q901 1356 897 1263T893 1079Q893 958 898 833T903 573Q903
442 886 331T820 136T687 6T467 -41Q373 -41 296 -9T165 79T81 214T51 389Q51 494 86 567T174 687T289 753T410 774Q481 774 537 753T632 692T690 602T711 494Q711 453 699 409T660 329T591 270T492 246Q375 246 329 320T283 506H348Q348 467 354 431T376 368T421
324T492 307Q551 307 598 351T645 494Q645 596 579 654T410 713Q354 713 302 696T209 639T143 539T117 389Q117 285 152 214T241 100T356 39T469 20Q590 20 662 64T774 184T825 360T838 573Q838 684 833 805T827 1055Q827 1192 836 1303T893 1509Q852 1577 798
1618T662 1659Z" />
<glyph unicode="O" glyph-name="O" horiz-adv-x="1139" d="M569 1720Q817 1720 952 1498T1087 840Q1087 403 952 181T569 -41Q322 -41 187 181T51 840Q51 1276 186 1498T569 1720ZM430 1501Q430 1432 461 1395T541 1358Q582 1358 606 1382T631 1446Q631 1491 602
1507T545 1524V1585Q610 1585 653 1549T696 1446Q696 1380 651 1338T541 1296Q461 1296 417 1346T373 1475Q373 1513 387 1553T428 1620H406Q371 1595 333 1528T272 1391Q256 1341 244 1286T223 1166T210 1019T205 840Q205 756 210 663T230 478T271 304T338 159T435
58T569 20Q645 20 702 58T800 158T866 304T907 478T928 662T934 840Q934 924 929 1017T911 1201T874 1375T812 1520T719 1621T590 1659Q526 1659 478 1619T430 1501Z" />
<glyph unicode="P" glyph-name="P" horiz-adv-x="1434" d="M965 1182Q965 1059 971 927T977 635Q977 311 857 135T467 -41Q373 -41 296 -9T165 79T81 214T51 389Q51 494 86 567T174 687T289 753T410 774Q481 774 537 753T632 692T690 602T711 494Q711 453 699
409T660 329T591 270T492 246Q375 246 329 320T283 506H348Q348 467 354 431T376 368T421 324T492 307Q551 307 598 351T645 494Q645 596 579 654T410 713Q354 713 302 696T209 639T143 539T117 389Q117 285 152 214T242 100T358 39T471 20Q592 20 664 66T775 188T825
360T838 557Q838 666 833 796T827 1055Q827 1237 843 1348T901 1536Q827 1530 756 1507T627 1442T535 1341T500 1204Q500 1135 530 1098T610 1061Q651 1061 675 1085T700 1149Q700 1194 672 1210T614 1227V1288Q680 1288 723 1253T766 1149Q766 1083 721 1041T610
999Q524 999 479 1054T434 1202Q434 1298 479 1371T597 1494T761 1570T944 1599Q993 1657 1064 1688T1219 1720V1659Q1190 1659 1140 1646T1053 1593Q1163 1581 1256 1543T1416 1444T1519 1300T1556 1116Q1556 1059 1542 993T1494 870T1405 776T1266 739Q1147 739
1093 818T1038 1063H1104Q1104 1012 1111 965T1136 881T1183 823T1255 801Q1333 801 1368 886T1403 1112Q1403 1305 1301 1411T1012 1534Q985 1479 975 1395T965 1182Z" />
<glyph unicode="Q" glyph-name="Q" horiz-adv-x="1102" d="M51 156Q51 229 101 275T248 322Q305 322 356 304T456 256T549 194T637 127Q707 186 756 271T836 458T883 676T899 909Q899 1028 886 1160T835 1402T726 1586T541 1659Q428 1659 348 1600T218 1448T146
1242T123 1020Q123 877 145 776T209 609T307 512T434 481Q545 481 600 548T655 719Q655 811 610 856T504 901Q459 901 431 884T388 839T367 775T360 702H295Q295 752 306 799T343 882T409 940T504 963Q559 963 600 944T667 890T707 812T721 719Q721 672 707 620T659
523T571 450T434 420Q336 420 266 462T149 581T80 770T57 1020Q57 1192 96 1323T201 1542T356 1675T541 1720Q686 1720 784 1655T942 1479T1027 1223T1053 918Q1053 838 1040 747T1000 563T934 385T844 227Q786 145 702 82Q745 53 787 37T872 20Q928 20 959 41T1008
97T1031 170T1036 246V311H1102V246Q1102 184 1091 132T1052 41T980 -19T868 -41Q801 -41 745 -19T637 37Q569 0 493 -20T332 -41Q242 -41 188 -23T103 25T62 90T51 156ZM240 260Q186 260 152 235T117 156Q117 90 175 55T338 20Q406 20 465 36T573 82Q532 113 494
144T414 201T330 243T240 260Z" />
<glyph unicode="R" glyph-name="R" horiz-adv-x="1810" d="M1202 825Q1321 817 1386 776T1482 675T1519 541T1526 393Q1526 287 1532 215T1551 100T1587 39T1642 20Q1675 20 1694 38T1725 86T1741 151T1745 223V311H1810V225Q1810 104 1767 32T1612 -41Q1544 -41
1498 -12T1425 73T1385 206T1372 377Q1372 469 1368 546T1339 677T1260 762T1108 793H1067V854Q1208 856 1288 947T1368 1190Q1368 1274 1342 1336T1267 1440T1153 1504T1012 1534Q983 1479 974 1395T965 1182Q965 1059 971 927T977 635Q977 311 857 135T467 -41Q373
-41 296 -9T165 79T81 214T51 389Q51 494 86 567T174 687T289 753T410 774Q481 774 537 753T632 692T690 602T711 494Q711 453 699 409T660 329T591 270T492 246Q375 246 329 320T283 506H348Q348 467 354 431T376 368T421 324T492 307Q551 307 598 351T645 494Q645
596 579 654T410 713Q354 713 302 696T209 639T143 539T117 389Q117 285 152 214T242 100T358 39T471 20Q592 20 664 66T775 188T825 360T838 557Q838 666 833 796T827 1055Q827 1237 843 1348T901 1536Q827 1530 756 1507T627 1442T535 1341T500 1204Q500 1135
530 1098T610 1061Q651 1061 675 1085T700 1149Q700 1194 672 1210T614 1227V1288Q680 1288 723 1253T766 1149Q766 1083 721 1041T610 999Q524 999 479 1054T434 1202Q434 1298 479 1371T597 1494T761 1570T944 1599Q993 1657 1064 1688T1219 1720V1659Q1190 1659
1140 1646T1053 1595Q1159 1585 1246 1556T1394 1476T1489 1356T1522 1198Q1522 1143 1507 1082T1454 969T1356 883T1202 846V825Z" />
<glyph unicode="S" glyph-name="S" horiz-adv-x="1290" d="M1235 467Q1235 358 1201 266T1102 106T939 -2T715 -41Q621 -41 544 -9T412 79T326 214T295 389Q295 494 330 567T418 687T533 753T653 774Q725 774 781 753T875 692T933 602T954 494Q954 453 942 409T904
329T835 270T735 246Q618 246 572 320T526 506H592Q592 467 598 431T620 368T664 324T735 307Q795 307 842 351T889 494Q889 596 823 654T653 713Q598 713 546 696T453 639T386 539T360 389Q360 285 397 214T488 100T604 39T717 20Q811 20 881 52T999 139T1069
267T1092 420Q1092 504 1063 584T990 741T892 894T786 1042Q678 999 549 999Q459 999 370 1021T210 1093T95 1218T51 1399Q51 1491 99 1547T231 1604Q297 1604 337 1564T377 1456Q377 1384 334 1350T225 1315V1376Q254 1376 282 1392T311 1454Q311 1495 290 1518T227
1542Q180 1542 149 1509T117 1403Q117 1317 153 1253T251 1146T390 1083T547 1061Q602 1061 652 1069T750 1094Q686 1188 650 1272T614 1446Q614 1501 631 1550T683 1637T766 1697T879 1720Q993 1720 1051 1654T1110 1489Q1110 1368 1057 1271T911 1108Q967 1040
1024 966T1128 811T1205 645T1235 467ZM1044 1479Q1044 1513 1036 1546T1010 1603T962 1643T891 1659Q825 1659 780 1611T735 1468Q735 1391 775 1314T874 1155Q954 1212 999 1294T1044 1479Z" />
<glyph unicode="T" glyph-name="T" horiz-adv-x="1055" d="M1053 1618Q946 1618 834 1585T635 1481Q575 1432 538 1363T500 1204Q500 1135 530 1098T610 1061Q651 1061 675 1085T700 1149Q700 1194 672 1210T614 1227V1288Q680 1288 723 1253T766 1149Q766 1083
722 1041T612 999Q526 999 480 1054T434 1202Q434 1305 482 1385T604 1526Q723 1620 875 1649T1214 1679H1505V1618H1266Q1206 1618 1149 1606T1049 1546Q989 1483 977 1377T965 1141Q965 1079 967 1023T971 907T975 781T977 635Q977 311 857 135T467 -41Q373 -41
296 -9T165 79T81 214T51 389Q51 494 86 567T174 687T289 753T410 774Q481 774 537 753T632 692T690 602T711 494Q711 453 699 409T660 329T591 270T492 246Q375 246 329 320T283 506H348Q348 467 354 431T376 368T421 324T492 307Q551 307 598 351T645 494Q645
596 579 654T410 713Q354 713 302 696T209 639T143 539T117 389Q117 285 152 214T242 100T358 39T471 20Q592 20 664 66T775 188T825 360T838 557Q838 666 833 775T827 1014Q827 1112 832 1201T854 1358Q874 1436 920 1499T1053 1597V1618Z" />
<glyph unicode="U" glyph-name="U" horiz-adv-x="1329" d="M1200 608Q1200 543 1197 470T1182 325T1147 187T1084 70T986 -11T846 -41Q719 -41 640 21T518 186T460 421T444 692V1014Q444 1112 449 1201T471 1358Q492 1436 539 1499T670 1597V1618Q563 1618 451
1585T252 1481Q193 1432 155 1363T117 1204Q117 1135 147 1098T227 1061Q268 1061 292 1085T317 1149Q317 1194 289 1210T231 1227V1288Q297 1288 340 1253T383 1149Q383 1083 339 1041T229 999Q143 999 97 1054T51 1202Q51 1305 99 1385T221 1526Q283 1575 351
1605T496 1652T658 1674T840 1679V1618Q809 1618 761 1604T674 1546Q618 1483 608 1375T598 1137V692Q598 563 603 440T637 223Q668 123 725 72T858 20Q922 20 966 47T1040 119T1089 221T1118 340T1131 461T1135 573Q1135 635 1133 706T1128 853T1124 1003T1122
1147Q1122 1325 1143 1427T1225 1593Q1305 1679 1442 1679V1618Q1397 1618 1351 1605T1268 1548Q1239 1516 1223 1467T1199 1362T1190 1249T1188 1141Q1188 1079 1190 1019T1194 895T1198 761T1200 608Z" />
<glyph unicode="V" glyph-name="V" horiz-adv-x="1276" d="M287 1659Q203 1659 160 1613T117 1497Q117 1427 147 1393T227 1358Q268 1358 292 1382T317 1446Q317 1491 289 1507T231 1524V1585Q297 1585 340 1549T383 1446Q383 1380 338 1338T227 1296Q141 1296
96 1349T51 1495Q51 1599 118 1659T291 1720Q375 1720 431 1698T537 1630Q588 1583 633 1511T715 1353T782 1177T836 1001Q879 844 921 693T1001 369H1018Q1053 502 1079 656T1130 960T1183 1244T1251 1473Q1303 1593 1382 1636T1573 1679V1618H1550Q1460 1618
1407 1580T1321 1470Q1288 1399 1264 1300T1219 1087T1179 852T1137 613T1088 385T1024 190Q983 90 918 45T770 0H705V61H776Q881 61 881 147Q881 186 863 281T814 499T751 756T686 1008Q670 1071 648 1149T597 1303T537 1449T469 1563Q395 1659 287 1659Z" />
<glyph unicode="W" glyph-name="W" horiz-adv-x="1954" d="M1997 1470Q1962 1407 1934 1314T1880 1110T1833 878T1790 633Q1772 520 1745 405T1677 190Q1632 86 1573 43T1432 0H1366V61H1438Q1542 61 1542 147Q1542 197 1522 292T1471 500T1405 735T1343 958Q1321
1036 1294 1135T1247 1321H1231Q1212 1253 1198 1183T1169 1026T1134 834T1087 592Q1065 479 1037 384T967 190Q922 86 863 43T721 0H655V61H727Q831 61 831 147Q831 195 813 295T769 517T714 767T662 999Q651 1047 636 1112T598 1250T546 1396T479 1534Q406 1659
293 1659Q209 1659 166 1613T123 1497Q123 1427 153 1393T233 1358Q274 1358 299 1382T324 1446Q324 1491 295 1507T238 1524V1585Q303 1585 346 1549T389 1446Q389 1380 344 1338T233 1296Q147 1296 99 1349T51 1495Q51 1599 122 1659T297 1720Q410 1720 488 1667T625
1522T727 1307T809 1042Q850 895 887 723T952 375H969Q987 440 1000 500T1026 627Q1051 752 1072 875T1117 1113T1166 1323T1223 1489Q1270 1595 1334 1637T1479 1679H1540V1618H1458Q1411 1618 1388 1599T1364 1532Q1364 1495 1375 1439T1404 1313T1445 1164T1491
1001Q1511 922 1533 848T1577 699T1620 544T1661 375H1677Q1692 440 1705 518T1731 668Q1772 918 1816 1126T1927 1473Q1987 1591 2063 1635T2251 1679V1618H2228Q2136 1618 2085 1579T1997 1470Z" />
<glyph unicode="X" glyph-name="X" horiz-adv-x="1671" d="M1262 1470Q1214 1378 1178 1230T1098 889Q1106 848 1119 792T1149 670T1183 534T1223 393Q1247 311 1270 243T1322 125T1384 48T1466 20Q1511 20 1538 41T1580 97T1600 170T1606 246V311H1671V246Q1671
123 1621 41T1456 -41Q1313 -41 1227 57T1081 348Q1053 438 1033 538T999 709H979Q975 655 970 562T930 344Q883 170 773 65T467 -41Q373 -41 296 -9T165 79T81 214T51 389Q51 494 86 567T174 687T289 753T410 774Q481 774 537 753T632 692T690 602T711 494Q711
453 699 409T660 329T591 270T492 246Q375 246 329 320T283 506H348Q348 467 354 431T376 368T421 324T492 307Q551 307 598 351T645 494Q645 596 579 654T410 713Q354 713 302 696T209 639T143 539T117 389Q117 285 152 214T242 100T358 39T471 20Q569 20 641
54T762 147T841 289T890 467T918 670T934 889Q928 932 916 998T885 1142T842 1297T786 1440Q764 1487 741 1527T688 1596T623 1642T539 1659Q455 1659 412 1613T369 1497Q369 1427 399 1393T479 1358Q520 1358 544 1382T569 1446Q569 1491 541 1507T483 1524V1585Q549
1585 592 1549T635 1446Q635 1380 590 1338T479 1296Q393 1296 348 1349T303 1495Q303 1599 370 1659T543 1720Q778 1720 901 1487Q946 1401 978 1300T1051 1047H1071Q1102 1192 1129 1292T1194 1473Q1249 1591 1325 1635T1511 1679V1618H1489Q1397 1618 1347 1579T1262
1470Z" />
<glyph unicode="Y" glyph-name="Y" horiz-adv-x="1196" d="M1180 1473Q1231 1593 1306 1636T1493 1679V1618H1470Q1380 1618 1330 1579T1249 1470Q1221 1409 1199 1319T1155 1121T1113 892T1069 651Q1042 510 1002 384T892 164T722 15T473 -41Q379 -41 302 -9T171
79T87 214T57 389Q57 494 92 567T180 687T295 753T416 774Q487 774 543 753T638 692T696 602T717 494Q717 453 705 409T666 329T597 270T498 246Q381 246 335 320T289 506H354Q354 467 360 431T383 368T427 324T498 307Q557 307 604 351T651 494Q651 596 585 654T416
713Q360 713 308 696T215 639T149 539T123 389Q123 285 159 214T249 100T364 39T477 20Q590 20 691 69T868 258Q856 319 829 434T766 685T693 961T625 1212Q600 1298 568 1390T489 1550Q457 1599 411 1629T305 1659Q221 1659 179 1613T137 1497Q137 1427 168 1393T248
1358Q289 1358 313 1382T338 1446Q338 1491 310 1507T252 1524V1585Q317 1585 360 1549T403 1446Q403 1380 358 1338T248 1296Q162 1296 117 1349T72 1495Q72 1599 139 1659T311 1720Q393 1720 455 1695T569 1612Q629 1546 671 1454T748 1262Q807 1085 860 890T954
508H975Q999 625 1021 760T1068 1027T1118 1276T1180 1473Z" />
<glyph unicode="Z" glyph-name="Z" horiz-adv-x="1559" d="M1507 416Q1507 205 1388 82T1036 -41Q907 -41 805 2T610 104Q555 35 481 -3T307 -41Q225 -41 175 -23T98 25T61 90T51 156Q51 223 100 272T248 322Q346 322 433 291T612 219Q649 285 677 364T724 528T757
697T782 860H590V922H791Q813 1083 838 1190T899 1378Q915 1415 940 1454T1006 1522V1542Q956 1554 896 1558T791 1563Q573 1563 451 1479T328 1204Q328 1135 358 1098T438 1061Q479 1061 503 1085T528 1149Q528 1194 500 1210T442 1227V1288Q508 1288 551 1253T594
1149Q594 1083 550 1041T440 999Q354 999 308 1053T262 1200Q262 1331 320 1422T475 1571Q586 1636 727 1657T1049 1679H1294V1618Q1229 1618 1178 1596T1085 1537T1014 1454T963 1358Q928 1280 905 1178T858 922H1049V860H848Q836 778 822 690T787 515T739 346T672
195Q762 156 857 127T1067 98Q1141 98 1208 116T1328 174T1411 272T1442 414Q1442 498 1419 555T1355 647T1264 697T1157 713Q1051 713 982 654T913 492Q913 393 960 350T1067 307Q1110 307 1137 323T1181 367T1204 431T1210 506H1276Q1276 395 1228 321T1067 246Q1008
246 967 266T899 320T860 399T848 492Q848 549 869 600T932 690T1030 751T1159 774Q1227 774 1289 754T1400 690T1477 579T1507 416ZM242 260Q188 260 153 235T117 156Q117 90 163 55T313 20Q391 20 449 52T555 137Q475 186 400 223T242 260Z" />
<glyph unicode="[" glyph-name="bracketleft" horiz-adv-x="508" d="M508 -205H164V1864H508V1802H297V-143H508V-205Z" />
<glyph unicode="\" glyph-name="backslash" horiz-adv-x="1024" d="M866 0H793L158 1679H231L866 0Z" />
<glyph unicode="]" glyph-name="bracketright" horiz-adv-x="508" d="M0 -143H211V1802H0V1864H344V-205H0V-143Z" />
<glyph unicode="^" glyph-name="asciicircum" horiz-adv-x="807" d="M442 1679L750 1245L694 1206L403 1616L113 1206L63 1243L373 1679H442Z" />
<glyph unicode="_" glyph-name="underscore" horiz-adv-x="778" d="M696 -164H82V-102H696V-164Z" />
<glyph unicode="`" glyph-name="grave" horiz-adv-x="451" d="M96 1202L397 956L356 905L55 1151L96 1202Z" />
<glyph unicode="a" glyph-name="a" horiz-adv-x="991" d="M379 860Q535 860 621 743T707 358Q707 293 709 233T721 125T755 49T823 20Q858 20 878 41T909 94T923 160T926 223V311H991V225Q991 168 983 119T954 35T895 -20T801 -41Q715 -41 663 7T594 141H573Q555
70 501 15T354 -41Q272 -41 215 -5T121 92T68 234T51 408Q51 625 138 742T379 860ZM379 799Q184 799 184 412Q184 219 232 120T379 20Q475 20 524 118T573 408Q573 600 524 699T379 799Z" />
<glyph unicode="b" glyph-name="b" horiz-adv-x="829" d="M451 793Q360 793 308 699T256 412Q256 219 304 120T451 20Q547 20 596 118T645 408Q645 793 451 793ZM434 1055Q502 1163 532 1262T563 1456Q563 1542 536 1598T449 1655Q393 1655 358 1611T303 1496T274
1336T260 1155Q260 1133 259 1105T257 1041T256 954T256 836Q311 889 355 945T434 1055ZM629 1464Q629 1366 598 1270T515 1085T396 916T256 770V727H276Q309 780 364 817T496 854Q575 854 629 816T717 718T764 580T778 422Q778 207 691 83T449 -41Q377 -41 310
-8T195 102Q154 172 139 272T123 494V651Q102 629 81 614T41 588Q18 575 0 565V627Q33 643 68 668T123 715Q123 782 123 829T124 917T126 1000T129 1102Q133 1210 148 1324T203 1530Q233 1606 292 1663T438 1720Q530 1720 579 1651T629 1464Z" />
<glyph unicode="c" glyph-name="c" horiz-adv-x="662" d="M51 412Q51 506 74 589T143 731T252 825T399 860Q438 860 476 851T542 822T588 771T606 698Q606 645 574 605T479 565Q414 565 385 605T356 709H422Q422 678 434 653T481 627Q506 627 523 642T541 696Q541
748 500 773T399 799Q297 799 241 701T184 410Q184 348 191 281T221 155T285 58T395 20Q455 20 493 48T555 119T587 213T596 311H662Q662 260 650 199T606 84T521 -5T385 -41Q297 -41 234 -8T130 84T71 226T51 412Z" />
<glyph unicode="d" glyph-name="d" horiz-adv-x="991" d="M707 406Q707 276 712 204T733 88Q750 51 773 36T825 20Q860 20 880 43T911 98T924 165T926 223V311H991V225Q991 170 983 122T954 37T895 -20T801 -41Q715 -41 661 9T594 141H573Q557 63 498 11T360 -41Q276
-41 217 -6T121 89T68 229T51 399Q51 481 66 563T117 711T211 819T358 860Q424 860 475 829T553 733H573V1524H553Q547 1489 520 1457T451 1425V1487Q481 1495 503 1518T541 1570T565 1628T573 1679H707V406ZM379 799Q184 799 184 412Q184 219 231 120T377 20Q473
20 523 118T573 408Q573 600 522 699T379 799Z" />
<glyph unicode="e" glyph-name="e" horiz-adv-x="731" d="M51 410Q51 504 72 587T136 730T240 825T385 860Q508 860 580 787T653 598Q653 520 626 460T547 358T426 297T272 276H190Q197 231 209 186T243 105T303 44T395 20Q459 20 499 47T562 116T595 210T604
311H670Q670 242 655 179T605 66T517 -12T385 -41Q223 -41 137 70T51 410ZM184 338H260Q373 338 446 401T520 588Q520 625 514 662T493 731T450 780T377 799Q315 799 278 762T220 669T192 543T184 410V338Z" />
<glyph unicode="f" glyph-name="f" horiz-adv-x="529" d="M256 500Q256 418 257 352T260 227T264 113T270 0H137Q129 121 126 241T123 492V758H0V819H123Q123 889 124 953T129 1102Q135 1210 149 1324T203 1530Q233 1606 292 1663T438 1720Q530 1720 579 1651T629
1464Q629 1350 585 1224T465 985Q430 934 396 894T332 819H471V758H256V500ZM426 1034Q498 1147 530 1250T563 1456Q563 1542 536 1598T449 1655Q393 1655 358 1611T302 1496T272 1336T260 1155Q258 1116 257 1023T256 819Q301 866 345 920T426 1034Z" />
<glyph unicode="g" glyph-name="g" horiz-adv-x="874" d="M874 293Q874 207 826 140T707 10V-14Q707 -76 705 -144T695 -281T674 -414T637 -532Q602 -612 541 -664T397 -717Q313 -717 267 -664T221 -512Q221 -430 255 -359T342 -226T461 -110T594 -4V141H573Q565
104 546 72T499 15T435 -25T356 -41Q272 -41 215 -5T121 92T68 234T51 408Q51 625 138 742T379 860Q451 860 505 836T600 766Q649 711 672 631T702 440Q707 381 707 292T707 104V90Q754 135 781 182T809 291V311H874V293ZM379 799Q184 799 184 412Q184 219 232
120T379 20Q475 20 524 118T573 408Q573 600 524 699T379 799ZM594 -78Q539 -121 484 -167T385 -265T315 -378T287 -512Q287 -584 319 -619T399 -655Q455 -655 492 -619T553 -516Q584 -422 589 -318T594 -133V-78Z" />
<glyph unicode="h" glyph-name="h" horiz-adv-x="1022" d="M434 1055Q502 1163 532 1262T563 1456Q563 1542 536 1598T449 1655Q393 1655 358 1611T303 1496T274 1336T260 1155Q260 1133 259 1105T257 1041T256 954T256 836Q311 889 355 945T434 1055ZM737 395Q737
326 739 264T750 150Q760 88 785 54T852 20Q887 20 907 39T939 90T953 157T956 223V311H1022V227Q1022 170 1013 121T983 36T925 -20T834 -41Q776 -41 728 -18T651 59Q623 111 614 185T604 395V582Q604 625 597 663T573 731T526 776T449 793Q399 793 362 761T301
682Q287 649 278 609T264 528T258 449T256 379Q256 319 256 278T258 195T263 109T270 0H137Q127 131 125 241T123 436V651Q102 629 81 614T41 588Q18 575 0 565V627Q35 643 69 668T123 715Q123 782 123 829T124 917T126 1000T129 1102Q133 1210 148 1324T203 1530Q233
1606 292 1663T438 1720Q530 1720 579 1651T629 1464Q629 1366 598 1270T515 1085T396 916T256 770V727H276Q309 780 364 817T496 854Q616 854 676 783T737 582V395Z" />
<glyph unicode="i" glyph-name="i" horiz-adv-x="541" d="M188 1157Q227 1157 256 1129T285 1061Q285 1022 256 995T188 967Q150 967 122 994T94 1061Q94 1100 122 1128T188 1157ZM123 664H102Q96 629 69 597T0 565V627Q31 635 53 658T91 710T114 768T123 819H256V395Q256
326 258 264T268 150Q279 88 304 54T371 20Q406 20 426 39T457 90T472 157T475 223V311H541V227Q541 170 532 121T501 36T444 -20T352 -41Q295 -41 247 -18T170 59Q141 111 132 185T123 395V664Z" />
<glyph unicode="j" glyph-name="j" horiz-adv-x="424" d="M123 664H102Q96 629 69 597T0 565V627Q33 637 56 660T94 711T116 768T123 819H256V90Q303 137 330 184T358 291V311H424V293Q424 207 376 140T256 10V-14Q256 -76 254 -144T245 -281T224 -414T186 -532Q152
-612 91 -664T-53 -717Q-137 -717 -183 -664T-229 -512Q-229 -428 -196 -357T-108 -223T12 -107T139 -6L123 664ZM-164 -512Q-164 -584 -131 -619T-51 -655Q4 -655 43 -619T102 -516Q115 -475 123 -417T135 -297T140 -179T141 -78Q86 -121 32 -167T-67 -265T-137
-378T-164 -512ZM193 1157Q231 1157 260 1129T289 1061Q289 1022 260 995T193 967Q154 967 126 994T98 1061Q98 1100 126 1128T193 1157Z" />
<glyph unicode="k" glyph-name="k" horiz-adv-x="983" d="M434 1055Q502 1163 532 1262T563 1456Q563 1542 536 1598T449 1655Q393 1655 358 1611T303 1496T274 1336T260 1155Q260 1133 259 1105T257 1041T256 954T256 836Q311 889 355 945T434 1055ZM629 1464Q629
1366 598 1270T515 1085T396 916T256 770V727H276Q309 780 365 817T498 854Q594 854 644 802T694 672Q694 627 676 589T629 525T564 483T492 467V446Q530 446 577 437T653 399Q688 367 702 322T719 186Q721 90 748 55T817 20Q852 20 871 39T901 89T914 154T918
223V311H983V225Q983 164 974 115T944 31T885 -22T791 -41Q741 -41 694 -21T625 39Q602 74 594 122T586 227Q586 317 553 366T432 416H358V477H403Q430 477 459 487T513 519T552 574T567 655Q567 733 533 763T451 793Q420 793 393 779T344 742T306 691T281 633Q272
608 268 578T261 517T257 463T256 426Q256 305 258 200T270 0H137Q129 102 126 207T123 399V631Q106 614 85 602T45 582Q23 571 0 565V627Q33 641 67 659T123 694V754Q123 846 124 921T129 1102Q133 1225 148 1331T203 1530Q217 1565 238 1598T289 1660T355 1704T434
1720Q528 1720 578 1651T629 1464Z" />
<glyph unicode="l" glyph-name="l" horiz-adv-x="541" d="M123 395V629Q94 612 59 593T0 565V627Q29 637 65 660T123 700Q123 766 123 815T124 908T126 997T129 1102Q133 1210 148 1324T203 1530Q233 1606 292 1663T438 1720Q530 1720 579 1651T629 1464Q629 1407
616 1344T581 1218T529 1095T465 985Q406 897 353 838T256 737V395Q256 326 258 265T268 152Q279 92 302 56T371 20Q406 20 426 39T457 90T472 157T475 223V311H541V225Q541 168 532 119T500 35T442 -20T352 -41Q293 -41 246 -18T170 59Q141 111 132 185T123 395ZM426
1034Q498 1147 530 1250T563 1456Q563 1542 536 1598T449 1655Q393 1655 358 1611T302 1496T272 1336T260 1155Q258 1116 257 1023T256 819Q301 866 345 920T426 1034Z" />
<glyph unicode="m" glyph-name="m" horiz-adv-x="1479" d="M903 799Q858 799 826 776T770 713Q754 684 745 643T731 559T726 475T725 403Q725 342 725 295T727 204T731 112T739 0H606Q602 53 599 114T594 232T592 332T592 393V592Q592 635 587 672T567 737T523
782T449 799Q389 799 350 763T289 666Q276 635 270 592T261 509T257 438T256 395Q256 336 256 292T258 205T263 114T270 0H137Q127 96 125 195T123 395V664H102Q96 629 69 597T0 565V627Q31 635 53 658T91 710T114 768T123 819H256V733H276Q309 791 366 825T492
860Q575 860 631 822T715 733H735Q762 782 818 821T946 860Q1012 860 1059 840T1135 782T1179 694T1194 582V395Q1194 326 1196 264T1206 150Q1217 88 1242 54T1309 20Q1343 20 1363 39T1395 90T1410 157T1413 223V311H1479V227Q1479 170 1470 121T1439 36T1382
-20T1290 -41Q1233 -41 1185 -18T1108 59Q1079 111 1070 185T1061 395V582Q1061 625 1054 665T1030 734T981 781T903 799Z" />
<glyph unicode="n" glyph-name="n" horiz-adv-x="1022" d="M276 733Q315 793 369 826T492 860Q621 860 679 786T737 582V395Q737 326 739 264T750 150Q760 88 785 54T852 20Q887 20 907 39T939 90T953 157T956 223V311H1022V227Q1022 170 1013 121T983 36T925
-20T834 -41Q776 -41 728 -18T651 59Q623 111 614 185T604 395V582Q604 625 597 665T573 734T526 781T449 799Q397 799 361 767T301 688Q285 653 277 614T263 535T257 455T256 385Q256 326 256 283T258 198T263 110T270 0H137Q127 131 125 241T123 436V664H102Q96
629 69 597T0 565V627Q31 635 53 658T91 710T114 768T123 819H256V733H276Z" />
<glyph unicode="o" glyph-name="o" horiz-adv-x="758" d="M707 410Q707 195 621 77T379 -41Q225 -41 138 77T51 410Q51 625 138 742T379 860Q469 860 531 821T633 719T689 575T707 410ZM573 410Q573 469 567 536T542 662T483 760T381 799Q334 799 311 772T287
707Q287 666 304 647T346 627Q381 627 391 652T401 709H467Q467 647 442 606T350 565Q303 565 272 594T240 672Q240 688 246 714T270 766H250Q215 719 200 621T184 410Q184 338 193 269T224 144T284 54T379 20Q471 20 522 116T573 410Z" />
<glyph unicode="p" glyph-name="p" horiz-adv-x="829" d="M451 799Q352 799 304 700T256 408Q256 217 305 119T451 20Q549 20 597 119T645 412Q645 799 451 799ZM123 664H102Q96 629 69 597T0 565V627Q31 635 53 658T91 710T114 768T123 819H256V733H276Q313 793
368 826T492 860Q633 860 705 743T778 408Q778 276 747 179T653 25Q614 -12 570 -26T467 -41Q389 -41 332 7T256 141H236Q238 61 242 -46T252 -267T265 -488T279 -676H145Q141 -612 137 -512T130 -300T125 -77T123 123V664Z" />
<glyph unicode="q" glyph-name="q" horiz-adv-x="758" d="M707 123Q707 14 704 -128T696 -403H842V-465H694L684 -676H551Q555 -631 558 -578T565 -465H422V-403H569Q580 -258 585 -112T594 141H573Q555 68 500 14T358 -41Q272 -41 214 -5T119 92T67 234T51 408Q51
510 73 594T138 737T240 828T379 860Q535 860 621 743T707 408V123ZM379 799Q184 799 184 412Q184 219 232 120T379 20Q475 20 524 118T573 408Q573 600 524 699T379 799Z" />
<glyph unicode="r" glyph-name="r" horiz-adv-x="657" d="M256 733H276Q317 793 370 826T489 860Q557 860 607 822T657 702Q657 643 624 604T530 565Q469 565 439 603T408 709H473Q473 678 485 653T532 627Q557 627 574 644T592 700Q592 750 559 774T475 799Q408
799 363 762T291 666Q279 637 272 597T261 518T257 447T256 395Q256 336 256 292T258 205T263 114T270 0H137Q129 96 126 190T123 393V664H102Q96 629 69 597T0 565V627Q31 635 53 658T91 710T114 768T123 819H256V733Z" />
<glyph unicode="s" glyph-name="s" horiz-adv-x="602" d="M379 766Q379 731 364 702T330 651Q369 608 409 566T480 478T531 379T551 258Q551 184 527 128T460 34T363 -22T248 -41Q188 -41 142 -22T65 30T17 107T0 201Q0 293 50 349T186 406Q213 406 239 398T287
371T323 325T338 260Q338 182 290 149T170 115V176Q209 176 240 193T272 260Q272 295 250 319T182 344Q121 344 94 301T66 201Q66 168 77 136T111 79T168 37T244 20Q340 20 379 80T418 233Q418 293 403 340T363 428T307 508T248 590Q199 565 131 565V627Q186 629
217 641Q201 670 194 695T186 745Q186 799 214 829T289 860Q334 860 356 832T379 766ZM268 764Q268 733 291 698Q313 727 313 766Q313 774 309 784T291 795Q279 795 274 786T268 764Z" />
<glyph unicode="t" glyph-name="t" horiz-adv-x="541" d="M123 758H0V819H123V1118H256V819H451V758H256V395Q256 326 258 265T268 152Q279 92 302 56T371 20Q406 20 426 39T457 90T472 157T475 223V311H541V225Q541 168 532 119T500 35T442 -20T352 -41Q293 -41
246 -18T170 59Q141 111 132 185T123 395V758Z" />
<glyph unicode="u" glyph-name="u" horiz-adv-x="1055" d="M770 395Q770 342 770 304T772 238T775 188T780 145Q788 92 813 56T885 20Q920 20 940 40T972 92T986 158T989 223V311H1055V225Q1055 170 1047 122T1017 37T959 -20T864 -41Q778 -41 725 9T657 141H637Q614
63 561 11T414 -41Q342 -41 282 -12T186 76Q152 133 138 210T123 395V664H102Q96 629 69 597T0 565V627Q31 635 53 658T91 710T114 768T123 819H256V395Q256 283 265 218T301 104Q324 63 360 42T444 20Q496 20 532 49T592 129T626 247T637 395V664H616Q610 629
580 597T508 565V627Q539 635 562 658T603 710T629 768T637 819H770V395Z" />
<glyph unicode="v" glyph-name="v" horiz-adv-x="829" d="M406 700Q406 662 424 645T467 627Q502 627 513 652T524 709H590Q590 645 561 605T467 565Q406 565 373 602T340 698Q340 778 391 819T512 860Q582 860 633 826T716 732T763 589T778 412Q778 326 762 244T707
100T607 -2T453 -41Q369 -41 307 -8T203 85T143 228T123 412V664H102Q96 629 69 597T0 565V627Q31 635 53 658T91 710T114 768T123 819H256V446Q256 391 259 318T280 178T340 66T455 20Q524 20 562 62T618 167T641 303T645 434Q645 526 642 591T625 700Q592 799
504 799Q461 799 434 775T406 700Z" />
<glyph unicode="w" glyph-name="w" horiz-adv-x="1243" d="M918 799Q874 799 847 775T819 700Q819 662 837 645T881 627Q915 627 926 652T938 709H1004Q1004 645 975 605T881 565Q819 565 787 602T754 698Q754 778 805 819T926 860Q995 860 1046 826T1129 732T1176
589T1192 412Q1192 328 1178 247T1129 102T1036 -2T887 -41Q782 -41 720 8T631 141H610Q594 61 543 10T403 -41Q317 -41 263 -4T177 94T134 234T123 395V664H102Q96 629 69 597T0 565V627Q31 635 53 658T91 710T114 768T123 819H256V395Q256 311 264 243T291 125T346
48T436 20Q489 20 520 50T565 124T583 220T586 317V543H719V362Q719 305 722 245T742 134T794 52T893 20Q952 20 986 59T1036 156T1056 283T1059 410Q1059 502 1056 579T1038 700Q1022 754 990 776T918 799Z" />
<glyph unicode="x" glyph-name="x" horiz-adv-x="991" d="M240 -41Q129 -41 65 25T0 201Q0 293 50 349T186 406Q213 406 239 398T287 371T323 325T338 260Q338 182 290 149T170 115V176Q209 176 240 193T272 260Q272 295 250 319T182 344Q121 344 94 301T66 201Q66
133 112 77T244 20Q309 20 352 50T420 131Q446 184 454 259T463 406Q463 496 457 568T435 692T388 771T309 799Q272 799 246 777T205 723Q193 696 188 669T178 618Q174 592 174 565H109Q109 606 115 658T143 756Q166 801 209 830T309 860Q371 860 416 821T481 702H502Q543
784 607 822T748 860Q819 860 874 821T930 700Q930 647 902 606T813 565Q752 565 725 603T698 709H764Q764 672 775 650T815 627Q838 627 851 648T864 705Q864 748 835 773T756 799Q700 799 668 766T619 677T597 546T592 387Q592 344 595 282T614 161T664 61T762
20Q821 20 855 54T904 135T923 231T926 311H991Q991 262 983 201T950 86T878 -4T756 -41Q651 -41 588 15T498 176H477Q457 74 397 17T240 -41Z" />
<glyph unicode="y" glyph-name="y" horiz-adv-x="938" d="M637 664H616Q610 629 583 597T514 565V627Q547 637 570 660T608 711T630 768T637 819H770V90Q817 137 844 184T872 291V311H938V293Q938 207 890 140T770 10V-14Q770 -76 768 -144T759 -281T738 -414T700
-532Q666 -612 605 -664T461 -717Q377 -717 331 -664T285 -512Q285 -428 319 -356T408 -221T528 -105T657 -4V141H637Q618 63 561 11T410 -41Q328 -41 274 -9T186 80T138 217T123 395V664H102Q96 629 69 597T0 565V627Q31 635 53 658T91 710T114 768T123 819H256V395Q256
326 261 260T284 140T340 53T440 20Q492 20 529 49T590 129T625 247T637 395V664ZM350 -512Q350 -584 383 -619T463 -655Q518 -655 556 -619T616 -516Q647 -422 652 -318T657 -133V-78Q602 -121 547 -167T449 -265T378 -378T350 -512Z" />
<glyph unicode="z" glyph-name="z" horiz-adv-x="672" d="M186 799Q135 799 101 775T66 700Q66 662 83 645T125 627Q160 627 172 652T184 709H250Q250 645 222 605T127 565Q63 565 32 600T0 698Q0 739 17 770T62 820T125 850T195 860Q336 860 420 755T504 432Q504
375 493 313T456 196T391 102T297 51V31Q352 25 391 0Q438 37 478 69T546 136T590 208T606 291V311H672V293Q672 240 654 195T603 110T528 32T436 -43Q496 -119 496 -252Q496 -322 481 -403T429 -555T336 -671T195 -717Q111 -717 65 -664T18 -512Q18 -440 45 -376T115
-253T214 -144T330 -45Q289 0 205 0H113V61H207Q303 61 337 155T371 430Q371 541 358 611T320 724T261 782T186 799ZM84 -512Q84 -584 117 -619T197 -655Q264 -655 302 -610T359 -502T384 -372T389 -262Q389 -221 385 -178T365 -98Q311 -139 261 -182T172 -276T109
-386T84 -512Z" />
<glyph unicode="{" glyph-name="braceleft" horiz-adv-x="614" d="M104 829Q197 811 248 761T324 640T355 483T360 309Q360 182 365 86T401 -59Q434 -111 479 -127T584 -143V-205Q477 -205 407 -172T294 -68T235 117T217 395Q217 473 210 548T184 681T127 774T31
809H0V870H31Q90 870 127 905T183 998T210 1131T217 1284Q217 1448 234 1561T294 1747T406 1851T584 1884V1823Q524 1823 479 1807T401 1739Q371 1690 366 1594T360 1370Q360 1282 355 1196T325 1040T248 919T104 850V829Z" />
<glyph unicode="|" glyph-name="bar" horiz-adv-x="1024" d="M479 1679H545V0H479V1679Z" />
<glyph unicode="}" glyph-name="braceright" horiz-adv-x="614" d="M510 850Q418 868 367 918T290 1039T259 1196T254 1370Q254 1497 249 1593T213 1739Q180 1790 135 1806T31 1823V1884Q137 1884 208 1852T320 1747T379 1562T397 1284Q397 1206 403 1132T430
999T487 905T584 870H614V809H584Q524 809 488 774T431 681T404 548T397 395Q397 231 380 118T321 -67T208 -172T31 -205V-143Q90 -143 135 -127T213 -59Q244 -10 249 86T254 309Q254 397 259 483T289 640T366 761T510 829V850Z" />
<glyph unicode="~" glyph-name="asciitilde" horiz-adv-x="614" d="M432 504Q393 504 362 518T301 550T245 583T186 598Q150 598 130 570T106 504H41Q45 569 86 614T186 659Q227 659 260 645T322 613T377 580T432 565Q469 565 487 594T508 659H573Q569 594 532
549T432 504Z" />
<glyph unicode="&#xa0;" glyph-name="nbspace" horiz-adv-x="500" />
<glyph unicode="&#xa1;" glyph-name="exclamdown" horiz-adv-x="623" d="M418 1613Q418 1568 388 1538T312 1507Q267 1507 236 1537T205 1613Q205 1659 236 1689T312 1720Q357 1720 387 1690T418 1613ZM344 1220Q344 1257 333 1281T305 1320T266 1340T222 1345V1407Q304
1407 357 1365T410 1220V0H271L306 483Q310 544 316 638T328 837T339 1044T344 1220Z" />
<glyph unicode="&#xa2;" glyph-name="cent" horiz-adv-x="713" d="M51 412Q51 500 71 577T131 714T227 811T356 858V1024H422V860Q496 856 551 816T606 698Q606 645 574 605T479 565Q449 565 422 575V23Q473 29 507 58T560 129T588 219T596 311H662Q662 262 652
205T614 96T540 7T422 -39V-205H356V-39Q276 -33 218 1T123 94T69 233T51 412ZM356 709H422V696Q424 668 436 648T481 627Q506 627 523 642T541 696Q541 748 500 773T399 799Q297 799 241 701T184 410Q184 354 190 291T215 172T267 76T356 25V709Z" />
<glyph unicode="&#xa3;" glyph-name="sterling" horiz-adv-x="1272" d="M0 0V61Q74 61 141 82T250 145Q293 188 316 239T351 349T364 471T367 598Q367 662 364 726T358 860H203V922H356V1055Q356 1155 360 1234T376 1374T404 1482T449 1567Q498 1638 573 1679T743
1720Q848 1720 915 1660T983 1503Q983 1411 934 1359T809 1307Q737 1307 697 1348T657 1456Q657 1528 700 1561T809 1595V1534Q780 1534 752 1518T723 1456Q723 1417 745 1393T809 1368Q858 1368 888 1401T918 1505Q918 1567 874 1613T745 1659Q715 1659 664 1645T575
1587Q528 1532 511 1439T494 1182Q494 1114 496 1052T500 922H672V860H502Q504 819 505 773T506 676Q506 627 504 574T495 468T475 368T444 283Q414 221 359 163T219 82V61H709Q801 61 882 82T1024 152T1120 274T1155 453Q1155 537 1130 594T1064 687T973 738T872
754Q766 754 698 696T629 535Q629 436 677 392T782 348Q827 348 857 367T903 422Q915 449 920 480T926 547H991Q991 504 984 463T958 387Q936 344 892 316T788 287Q727 287 684 307T615 362T576 442T563 535Q563 586 581 636T638 726T735 790T877 815Q924 815 983
800T1095 743T1185 630T1221 444Q1221 340 1182 257T1078 117T923 30T733 0H0Z" />
<glyph unicode="&#xa4;" glyph-name="currency" horiz-adv-x="786" d="M61 455L139 532Q102 578 82 634T61 754Q61 817 81 873T139 977L61 1055L102 1100L182 1020Q225 1057 279 1078T393 1100Q453 1100 507 1079T604 1020L684 1100L725 1055L647 977Q684 930
704 874T725 754Q725 690 704 634T647 532L725 455L684 410L604 489Q561 453 507 432T393 410Q334 410 280 431T182 489L102 410L61 455ZM127 754Q127 694 147 643T205 553T290 493T393 471Q449 471 497 492T581 553T638 643T659 754Q659 813 639 865T582 955T497
1015T393 1038Q338 1038 290 1016T205 956T148 866T127 754Z" />
<glyph unicode="&#xa5;" glyph-name="yen" horiz-adv-x="1536" d="M1157 1473Q1210 1593 1288 1636T1477 1679V1618H1454Q1364 1618 1313 1579T1227 1470Q1182 1384 1156 1246T1106 944H1221V883H1096L1087 823H1221V762H1077L1057 651Q1028 510 988 384T882 164T715
15T467 -41Q373 -41 296 -9T165 79T81 214T51 389Q51 494 86 567T174 687T289 753T410 774Q481 774 537 753T632 692T690 602T711 494Q711 453 699 409T660 329T591 270T492 246Q375 246 329 320T283 506H348Q348 467 354 431T376 368T421 324T492 307Q551 307
598 351T645 494Q645 596 579 654T410 713Q354 713 302 696T209 639T143 539T117 389Q117 285 152 214T242 100T358 39T471 20Q584 20 685 69T862 258Q854 293 843 346T817 464T786 606T750 762H600V823H735Q731 838 728 852T721 883H600V944H707Q690 1016 673
1084T639 1212Q618 1286 594 1365T535 1509T450 1617T330 1659Q246 1659 204 1613T162 1497Q162 1427 192 1393T272 1358Q313 1358 337 1382T362 1446Q362 1491 334 1507T276 1524V1585Q342 1585 385 1549T428 1446Q428 1380 383 1338T272 1296Q186 1296 141 1349T96
1495Q96 1599 163 1659T336 1720Q406 1720 460 1701T559 1645Q637 1579 687 1475T768 1264Q821 1085 867 890T948 508H969Q995 625 1014 760T1053 1027T1097 1276T1157 1473Z" />
<glyph unicode="&#xa6;" glyph-name="brokenbar" horiz-adv-x="1024" d="M479 1679H545V963H479V1679ZM479 717H545V0H479V717Z" />
<glyph unicode="&#xa7;" glyph-name="section" horiz-adv-x="1651" d="M512 737Q512 793 530 844T580 935T656 1003T754 1044Q748 1075 743 1109T735 1175T732 1237T731 1284Q731 1386 758 1476T842 1633T984 1739T1184 1778Q1278 1778 1355 1746T1486 1658T1569
1522T1599 1348Q1599 1243 1565 1170T1477 1050T1361 984T1241 963Q1169 963 1113 984T1019 1044T961 1133T940 1243Q940 1284 952 1328T991 1408T1059 1467T1159 1491Q1276 1491 1322 1416T1368 1231H1303Q1303 1270 1297 1305T1274 1369T1230 1413T1159 1430Q1100
1430 1053 1386T1006 1243Q1006 1141 1072 1083T1241 1024Q1296 1024 1348 1041T1442 1098T1508 1198T1534 1348Q1534 1452 1498 1522T1409 1636T1296 1697T1184 1716Q1094 1716 1035 1679T939 1581T887 1442T870 1284Q870 1227 876 1160T893 1044Q946 1032 992
1005T1072 936T1124 845T1143 737Q1143 680 1125 630T1072 539T993 469T897 428Q903 397 908 364T915 298T919 239T920 193Q920 90 892 0T808 -156T667 -262T467 -301Q373 -301 296 -270T165 -182T81 -46T51 129Q51 233 86 307T174 427T289 493T410 514Q481 514
537 493T632 432T690 342T711 233Q711 193 699 149T660 69T591 10T492 -14Q375 -14 329 60T283 246H348Q348 207 354 171T376 108T421 64T492 47Q551 47 598 91T645 233Q645 336 579 394T410 453Q354 453 302 436T209 379T143 279T117 129Q117 25 152 -46T241 -160T355
-221T467 -240Q555 -240 615 -203T712 -105T764 35T780 193Q780 248 773 315T756 430Q702 442 658 470T582 539T531 631T512 737ZM578 737Q578 684 597 638T650 558T730 504T827 483Q879 483 925 503T1004 558T1057 638T1077 737Q1077 788 1058 835T1005 916T925
970T827 991Q776 991 730 971T650 917T597 836T578 737Z" />
<glyph unicode="&#xa8;" glyph-name="dieresis" horiz-adv-x="451" d="M106 1139Q141 1139 167 1113T193 1053Q193 1016 167 992T106 967Q70 967 45 991T20 1053Q20 1087 45 1113T106 1139ZM344 1139Q379 1139 404 1113T430 1053Q430 1016 405 992T344 967Q307
967 283 991T258 1053Q258 1087 282 1113T344 1139Z" />
<glyph unicode="&#xa9;" glyph-name="copyright" horiz-adv-x="1864" d="M51 840Q51 1022 120 1181T310 1461T590 1650T932 1720Q1114 1720 1274 1651T1553 1461T1742 1182T1812 840Q1812 657 1743 498T1554 218T1274 29T932 -41Q750 -41 590 28T310 218T121 497T51
840ZM117 840Q117 670 180 521T354 261T613 85T932 20Q1100 20 1248 85T1507 260T1682 520T1747 840Q1747 1010 1683 1159T1508 1419T1249 1594T932 1659Q762 1659 614 1595T355 1420T181 1160T117 840ZM1280 1325Q1280 1233 1232 1177T1098 1120Q1032 1120 988
1162T944 1270Q944 1337 987 1373T1096 1409V1348Q1067 1348 1039 1332T1010 1270Q1010 1231 1034 1207T1100 1182Q1149 1182 1181 1219T1214 1327Q1214 1419 1154 1471T977 1524Q895 1524 822 1481T698 1366Q657 1307 631 1237T589 1095T567 953T561 825Q561 713
573 594T626 377T741 217T946 154Q1004 154 1067 172T1181 233T1266 347T1300 522Q1300 610 1277 671T1214 772T1123 828T1016 846Q909 846 841 787T772 625Q772 526 819 483T926 440Q969 440 996 456T1040 500T1063 564T1069 639H1135Q1135 528 1089 454T926 379Q866
379 825 399T758 453T719 532T707 625Q707 682 728 734T790 824T888 884T1018 907Q1085 907 1147 886T1258 818T1336 699T1366 522Q1366 426 1337 347T1252 212T1119 124T948 92Q809 92 708 146T540 295T441 517T408 795Q408 975 465 1146T639 1436Q723 1522 814
1555T979 1589Q1114 1589 1197 1522T1280 1325Z" />
<glyph unicode="&#xaa;" glyph-name="ordfeminine" horiz-adv-x="721" d="M285 1720Q395 1720 455 1633T516 1350Q516 1317 517 1278T526 1207T551 1151T596 1128Q621 1128 635 1142T656 1178T665 1224T666 1270V1331H717V1270Q717 1188 690 1135T580 1081Q516
1081 483 1118T438 1214H424Q412 1161 373 1121T268 1081Q209 1081 168 1107T101 1176T63 1276T51 1399Q51 1552 113 1636T285 1720ZM285 1673Q150 1673 150 1403Q150 1128 285 1128Q418 1128 418 1399Q418 1673 285 1673Z" />
<glyph unicode="&#xab;" glyph-name="guillemotleft" horiz-adv-x="874" d="M545 907L586 868L150 401L588 -66L541 -111L61 397L545 907ZM832 907L873 868L437 401L875 -66L828 -111L348 397L832 907Z" />
<glyph unicode="&#xac;" glyph-name="logicalnot" horiz-adv-x="512" d="M440 532H10V594H502V420H440V532Z" />
<glyph unicode="&#xad;" glyph-name="uni00AD" horiz-adv-x="645" d="M563 471H82V532H563V471Z" />
<glyph unicode="&#xae;" glyph-name="registered" horiz-adv-x="1475" d="M51 1036Q51 1178 105 1302T253 1519T471 1666T737 1720Q879 1720 1003 1666T1221 1520T1369 1303T1423 1036Q1423 895 1369 770T1222 553T1004 407T737 352Q596 352 471 406T253 553T106
770T51 1036ZM117 1038Q117 909 166 797T299 600T495 467T737 418Q866 418 979 467T1176 600T1309 796T1358 1038Q1358 1167 1309 1280T1176 1477T979 1610T737 1659Q608 1659 496 1610T299 1477T166 1280T117 1038ZM526 1034Q530 1176 548 1280T614 1454Q537 1452
470 1431T354 1369T278 1272T250 1141Q250 997 352 997Q393 997 415 1022T438 1085Q438 1130 412 1146T356 1163V1225Q422 1225 463 1189T504 1085Q504 1020 461 978T352 936Q266 936 225 991T184 1139Q184 1221 220 1290T315 1410T455 1488T625 1516Q635 1516
645 1516T666 1513Q713 1561 771 1580T901 1599V1538Q879 1538 842 1531T770 1501Q989 1454 989 1280Q989 1194 943 1133T799 1063V1042Q852 1036 886 1019T939 971T965 896T975 791Q977 719 997 687T1059 655Q1090 655 1107 672T1134 717T1148 782T1151 858V946H1217V860Q1217
737 1177 666T1038 594Q944 594 898 650T852 831Q852 922 826 967T715 1012H694V1073H711Q772 1073 822 1124T872 1272Q872 1337 837 1383T715 1446Q676 1391 662 1301T647 1061Q647 940 649 835T662 635H541Q532 737 529 842T526 1034Z" />
<glyph unicode="&#xaf;" glyph-name="overscore" horiz-adv-x="451" d="M444 1022H6V1083H444V1022Z" />
<glyph unicode="&#xb0;" glyph-name="degree" horiz-adv-x="614" d="M94 1505Q94 1597 155 1658T307 1720Q399 1720 460 1659T522 1505Q522 1415 461 1354T307 1292Q217 1292 156 1353T94 1505ZM160 1505Q160 1444 204 1399T307 1354Q369 1354 413 1399T457 1505Q457
1569 413 1614T307 1659Q248 1659 204 1614T160 1505Z" />
<glyph unicode="&#xb1;" glyph-name="plusminus" horiz-adv-x="512" d="M225 553H10V614H225V805H287V614H502V553H287V449H225V553ZM502 352H10V414H502V352Z" />
<glyph unicode="&#xb2;" glyph-name="twosuperior" horiz-adv-x="465" d="M385 1589Q385 1546 367 1514T319 1454T254 1405T187 1358T128 1304T92 1237L102 1233Q119 1255 139 1273T188 1292Q227 1292 247 1267T283 1211T313 1154T356 1128Q389 1128 401 1157T414
1219V1253H465V1221Q465 1200 461 1176T444 1131T406 1096T342 1081Q301 1081 279 1097T241 1133T211 1169T174 1186Q143 1186 123 1158T98 1096H53Q51 1098 51 1104V1126Q51 1180 61 1222T89 1295T125 1351T164 1397Q184 1419 205 1439T243 1482T271 1532T283
1593Q283 1634 256 1653T195 1673Q154 1673 130 1655T106 1608Q106 1577 124 1567T166 1556V1509Q109 1509 81 1537T53 1606Q53 1655 95 1687T203 1720Q295 1720 340 1683T385 1589Z" />
<glyph unicode="&#xb3;" glyph-name="threesuperior" horiz-adv-x="543" d="M309 1452Q391 1444 441 1397T492 1278Q492 1186 425 1134T242 1081Q152 1081 102 1128T51 1243Q51 1282 64 1307T98 1349T143 1373T188 1380Q254 1380 282 1350T311 1278Q311 1237 280
1211T205 1184V1231Q227 1231 243 1241T260 1278Q260 1333 188 1333Q156 1333 129 1313T102 1243Q102 1208 116 1186T152 1151T197 1134T240 1128Q307 1128 348 1165T389 1278Q389 1321 373 1349T331 1396T272 1423T203 1432V1479Q258 1479 298 1506T338 1593Q338
1634 312 1653T250 1673Q209 1673 186 1655T162 1608Q162 1577 180 1567T221 1556V1509Q164 1509 137 1537T109 1606Q109 1655 151 1687T258 1720Q348 1720 394 1686T440 1597Q440 1550 409 1517T309 1473V1452Z" />
<glyph unicode="&#xb4;" glyph-name="acute" horiz-adv-x="451" d="M395 1151L94 905L57 952L358 1198L395 1151Z" />
<glyph unicode="&#xb5;" glyph-name="mu" horiz-adv-x="1055" d="M449 -41Q418 -41 386 -32T329 -2T284 54T256 135H236Q238 55 242 -58T252 -291T265 -523T279 -717H145Q141 -653 137 -547T130 -321T125 -83T123 123V664H102Q96 629 69 597T0 565V627Q31 635
53 658T91 710T114 768T123 819H256V408Q256 213 306 117T449 20Q500 20 536 49T594 129T626 247T637 395V664H616Q610 629 580 597T508 565V627Q539 635 562 658T603 710T629 768T637 819H770V395Q770 342 770 304T772 238T775 188T780 145Q788 92 813 56T885
20Q920 20 940 40T972 92T986 158T989 223V311H1055V225Q1055 170 1047 122T1017 37T959 -20T864 -41Q778 -41 726 5T657 135H637Q621 57 569 8T449 -41Z" />
<glyph unicode="&#xb6;" glyph-name="paragraph" horiz-adv-x="1270" d="M1219 1618Q1174 1618 1130 1604T1049 1546Q1028 1522 1013 1489T986 1409T970 1297T965 1141Q965 969 972 782T979 375Q979 51 858 -125T467 -301Q373 -301 296 -270T165 -182T81 -46T51
129Q51 233 86 307T174 427T289 493T410 514Q481 514 537 493T632 432T690 342T711 233Q711 193 699 149T660 69T591 10T492 -14Q375 -14 329 60T283 246H348Q348 207 354 171T376 108T421 64T492 47Q551 47 598 91T645 233Q645 336 579 394T410 453Q354 453 302
436T209 379T143 279T117 129Q117 25 152 -46T242 -160T358 -221T471 -240Q592 -240 664 -194T776 -72T827 100T840 297Q840 319 839 372T837 494T835 639T832 784T828 910T825 995H805Q797 948 760 909T662 870Q545 870 488 953T430 1188Q430 1323 477 1416T605
1567T795 1652T1030 1679H1219V1618Z" />
<glyph unicode="&#xb7;" glyph-name="middot" horiz-adv-x="410" d="M98 435Q98 480 129 510T205 541Q250 541 280 511T311 435Q311 389 281 359T205 328Q160 328 129 358T98 435Z" />
<glyph unicode="&#xb8;" glyph-name="cedilla" horiz-adv-x="451" d="M182 0H248L186 -111Q231 -111 270 -122T338 -157T383 -222T399 -319Q399 -412 347 -468T209 -524Q150 -524 102 -489T53 -377Q53 -299 101 -266T221 -233V-295Q182 -295 151 -311T119 -377Q119
-412 143 -437T213 -463Q274 -463 304 -420T334 -319Q334 -258 300 -215T180 -172H117V-111L182 0Z" />
<glyph unicode="&#xb9;" glyph-name="onesuperior" horiz-adv-x="506" d="M362 1278Q362 1307 356 1343T343 1418T330 1492T324 1556Q324 1579 328 1606T336 1663H315Q309 1628 295 1597Q283 1571 260 1544T201 1499V1546Q211 1552 224 1563T251 1595T275 1645T293
1720H399Q397 1700 396 1666T395 1614Q395 1569 404 1526T425 1441T445 1359T455 1278Q455 1192 403 1137T238 1081Q154 1081 103 1128T51 1243Q51 1282 64 1307T98 1349T143 1373T188 1380Q254 1380 282 1350T311 1278Q311 1237 280 1211T205 1184V1231Q227 1231
243 1241T260 1278Q260 1333 188 1333Q156 1333 129 1313T102 1243Q102 1208 116 1186T152 1151T197 1134T240 1128Q307 1128 334 1168T362 1278Z" />
<glyph unicode="&#xba;" glyph-name="ordmasculine" horiz-adv-x="567" d="M285 1720Q395 1720 455 1637T516 1399Q516 1245 456 1163T285 1081Q174 1081 113 1163T51 1399Q51 1554 112 1637T285 1720ZM285 1673Q150 1673 150 1403Q150 1128 285 1128Q418 1128
418 1399Q418 1673 285 1673Z" />
<glyph unicode="&#xbb;" glyph-name="guillemotright" horiz-adv-x="874" d="M43 -110L2 -71L438 396L0 863L47 908L527 400L43 -110ZM329 -110L288 -71L724 396L286 863L333 908L813 400L329 -110Z" />
<glyph unicode="&#xbc;" glyph-name="onequarter" horiz-adv-x="922" d="M1015 1679H1080L445 0H380L1015 1679ZM362 1278Q362 1307 356 1343T343 1418T330 1492T324 1556Q324 1579 328 1606T336 1663H315Q309 1628 295 1597Q283 1571 260 1544T201 1499V1546Q211
1552 224 1563T251 1595T275 1645T293 1720H399Q397 1700 396 1666T395 1614Q395 1569 404 1526T425 1441T445 1359T455 1278Q455 1192 403 1137T238 1081Q154 1081 103 1128T51 1243Q51 1282 64 1307T98 1349T143 1373T188 1380Q254 1380 282 1350T311 1278Q311
1237 280 1211T205 1184V1231Q227 1231 243 1241T260 1278Q260 1333 188 1333Q156 1333 129 1313T102 1243Q102 1208 116 1186T152 1151T197 1134T240 1128Q307 1128 334 1168T362 1278ZM848 378H826Q838 321 854 266T871 157Q871 71 819 16T654 -40Q570 -40 519
7T467 122Q467 161 480 186T514 228T559 252T604 259Q670 259 698 229T727 157Q727 116 696 90T621 63V110Q643 110 659 120T676 157Q676 212 604 212Q572 212 545 192T518 122Q518 87 532 65T568 30T613 13T656 7Q723 7 750 47T778 157Q778 202 767 263T750 378H600V415Q615
435 615 466Q615 485 602 503T566 538L613 599Q654 577 667 552T680 499Q680 476 670 459T645 435V415H746V435Q746 489 751 522T764 599H815Q813 579 812 545T811 493Q811 452 817 415H848V378Z" />
<glyph unicode="&#xbd;" glyph-name="onehalf" horiz-adv-x="881" d="M1015 1679H1080L445 0H380L1015 1679ZM362 1278Q362 1307 356 1343T343 1418T330 1492T324 1556Q324 1579 328 1606T336 1663H315Q309 1628 295 1597Q283 1571 260 1544T201 1499V1546Q211
1552 224 1563T251 1595T275 1645T293 1720H399Q397 1700 396 1666T395 1614Q395 1569 404 1526T425 1441T445 1359T455 1278Q455 1192 403 1137T238 1081Q154 1081 103 1128T51 1243Q51 1282 64 1307T98 1349T143 1373T188 1380Q254 1380 282 1350T311 1278Q311
1237 280 1211T205 1184V1231Q227 1231 243 1241T260 1278Q260 1333 188 1333Q156 1333 129 1313T102 1243Q102 1208 116 1186T152 1151T197 1134T240 1128Q307 1128 334 1168T362 1278ZM801 468Q801 425 783 393T735 333T670 284T603 237T544 183T508 116L518
112Q535 134 555 152T604 171Q643 171 663 146T699 90T729 33T772 7Q805 7 817 36T830 98V132H881V100Q881 79 877 55T860 10T822 -25T758 -40Q717 -40 695 -24T657 12T627 48T590 65Q559 65 539 37T514 -25H469Q467 -23 467 -17V5Q467 59 477 101T505 174T541
230T580 276Q600 298 621 318T659 361T687 411T699 472Q699 513 672 532T611 552Q570 552 546 534T522 487Q522 456 540 446T582 435V388Q525 388 497 416T469 485Q469 534 511 566T619 599Q711 599 756 562T801 468Z" />
<glyph unicode="&#xbe;" glyph-name="threequarters" horiz-adv-x="979" d="M815 1679H880L245 0H180L815 1679ZM905 378H883Q895 321 911 266T928 157Q928 71 876 16T711 -40Q627 -40 576 7T524 122Q524 161 537 186T571 228T616 252T661 259Q727 259 755 229T784
157Q784 116 753 90T678 63V110Q700 110 716 120T733 157Q733 212 661 212Q629 212 602 192T575 122Q575 87 589 65T625 30T670 13T713 7Q780 7 807 47T835 157Q835 202 824 263T807 378H657V415Q672 435 672 466Q672 485 659 503T623 538L670 599Q711 577 724
552T737 499Q737 476 727 459T702 435V415H803V435Q803 489 808 522T821 599H872Q870 579 869 545T868 493Q868 452 874 415H905V378ZM329 1452Q411 1444 461 1397T512 1278Q512 1186 445 1134T262 1081Q172 1081 122 1128T71 1243Q71 1282 84 1307T118 1349T163
1373T208 1380Q274 1380 302 1350T331 1278Q331 1237 300 1211T225 1184V1231Q247 1231 263 1241T280 1278Q280 1333 208 1333Q176 1333 149 1313T122 1243Q122 1208 136 1186T172 1151T217 1134T260 1128Q327 1128 368 1165T409 1278Q409 1321 393 1349T351 1396T292
1423T223 1432V1479Q278 1479 318 1506T358 1593Q358 1634 332 1653T270 1673Q229 1673 206 1655T182 1608Q182 1577 200 1567T241 1556V1509Q184 1509 157 1537T129 1606Q129 1655 171 1687T278 1720Q368 1720 414 1686T460 1597Q460 1550 429 1517T329 1473V1452Z"
/>
<glyph unicode="&#xbf;" glyph-name="questiondown" horiz-adv-x="1018" d="M592 1220Q592 1292 554 1318T469 1345V1407Q547 1407 602 1367T658 1220Q658 1147 625 1085T543 963T438 844T332 718T250 572T217 395Q217 223 302 122T572 20Q619 20 680 36T797 95T890
205T928 379Q928 469 903 531T835 634T741 693T633 712Q529 712 466 652T402 489Q402 391 451 349T557 307Q602 307 632 326T678 381Q690 407 694 439T699 505H764Q764 462 757 422T731 346Q709 303 665 274T557 245Q496 245 453 267T385 325T348 402T336 485Q336
534 352 586T406 680T500 747T639 774Q686 774 747 758T863 697T955 577T993 381Q993 288 960 211T867 77T728 -10T557 -41Q453 -41 374 -19T230 53Q154 108 116 196T78 389Q78 493 116 575T211 724T335 851T459 968T554 1087T592 1220ZM647 1613Q647 1568 617
1538T541 1507Q496 1507 465 1537T434 1613Q434 1659 465 1689T541 1720Q586 1720 616 1690T647 1613Z" />
<glyph unicode="&#xc0;" glyph-name="Agrave" horiz-adv-x="1710" d="M1704 1679V1618Q1688 1618 1667 1615T1620 1604T1573 1581T1532 1546Q1487 1493 1472 1412T1456 1182Q1456 1120 1458 1064T1462 948T1466 822T1468 676Q1468 627 1466 574T1457 468T1438
368T1407 283Q1376 221 1321 163T1182 82V61H1460Q1516 61 1547 82T1596 138T1619 211T1624 287V352H1690V287Q1690 225 1680 173T1643 82T1570 22T1452 0H963V61Q1036 61 1103 82T1212 145Q1255 188 1279 239T1314 349T1327 471T1329 598Q1329 705 1323 819H1116Q1104
750 1091 683T1061 555Q1026 420 979 311T863 123T696 2T467 -41Q373 -41 296 -9T165 79T81 214T51 389Q51 494 86 567T174 687T289 753T410 774Q481 774 537 753T632 692T690 602T711 494Q711 453 699 409T660 329T591 270T492 246Q375 246 329 320T283 506H348Q348
467 354 431T376 368T421 324T492 307Q551 307 598 351T645 494Q645 596 579 654T410 713Q354 713 302 696T209 639T143 539T117 389Q117 285 152 214T242 100T358 39T471 20Q588 20 674 60T821 172T924 343T995 561Q1026 684 1050 821T1099 1086T1154 1323T1225
1499Q1237 1520 1262 1548T1329 1597V1618Q1225 1618 1111 1585T911 1481Q852 1432 814 1363T776 1204Q776 1135 807 1098T887 1061Q928 1061 952 1085T977 1149Q977 1194 949 1210T891 1227V1288Q956 1288 999 1253T1042 1149Q1042 1083 998 1041T889 999Q803
999 757 1054T711 1202Q711 1305 759 1385T881 1526Q1001 1622 1153 1650T1495 1679H1704ZM1292 1491Q1262 1446 1238 1380T1195 1233T1160 1063T1126 881H1321Q1319 922 1319 965T1319 1055Q1319 1143 1322 1210T1334 1331T1359 1427T1401 1507Q1432 1552 1469
1577T1544 1618Q1458 1614 1397 1584T1292 1491ZM1224 2062L1525 1816L1484 1765L1183 2011L1224 2062Z" />
<glyph unicode="&#xc1;" glyph-name="Aacute" horiz-adv-x="1710" d="M1704 1679V1618Q1688 1618 1667 1615T1620 1604T1573 1581T1532 1546Q1487 1493 1472 1412T1456 1182Q1456 1120 1458 1064T1462 948T1466 822T1468 676Q1468 627 1466 574T1457 468T1438
368T1407 283Q1376 221 1321 163T1182 82V61H1460Q1516 61 1547 82T1596 138T1619 211T1624 287V352H1690V287Q1690 225 1680 173T1643 82T1570 22T1452 0H963V61Q1036 61 1103 82T1212 145Q1255 188 1279 239T1314 349T1327 471T1329 598Q1329 705 1323 819H1116Q1104
750 1091 683T1061 555Q1026 420 979 311T863 123T696 2T467 -41Q373 -41 296 -9T165 79T81 214T51 389Q51 494 86 567T174 687T289 753T410 774Q481 774 537 753T632 692T690 602T711 494Q711 453 699 409T660 329T591 270T492 246Q375 246 329 320T283 506H348Q348
467 354 431T376 368T421 324T492 307Q551 307 598 351T645 494Q645 596 579 654T410 713Q354 713 302 696T209 639T143 539T117 389Q117 285 152 214T242 100T358 39T471 20Q588 20 674 60T821 172T924 343T995 561Q1026 684 1050 821T1099 1086T1154 1323T1225
1499Q1237 1520 1262 1548T1329 1597V1618Q1225 1618 1111 1585T911 1481Q852 1432 814 1363T776 1204Q776 1135 807 1098T887 1061Q928 1061 952 1085T977 1149Q977 1194 949 1210T891 1227V1288Q956 1288 999 1253T1042 1149Q1042 1083 998 1041T889 999Q803
999 757 1054T711 1202Q711 1305 759 1385T881 1526Q1001 1622 1153 1650T1495 1679H1704ZM1292 1491Q1262 1446 1238 1380T1195 1233T1160 1063T1126 881H1321Q1319 922 1319 965T1319 1055Q1319 1143 1322 1210T1334 1331T1359 1427T1401 1507Q1432 1552 1469
1577T1544 1618Q1458 1614 1397 1584T1292 1491ZM1790 2011L1489 1765L1452 1812L1753 2058L1790 2011Z" />
<glyph unicode="&#xc2;" glyph-name="Acircumflex" horiz-adv-x="1710" d="M1704 1679V1618Q1688 1618 1667 1615T1620 1604T1573 1581T1532 1546Q1487 1493 1472 1412T1456 1182Q1456 1120 1458 1064T1462 948T1466 822T1468 676Q1468 627 1466 574T1457 468T1438
368T1407 283Q1376 221 1321 163T1182 82V61H1460Q1516 61 1547 82T1596 138T1619 211T1624 287V352H1690V287Q1690 225 1680 173T1643 82T1570 22T1452 0H963V61Q1036 61 1103 82T1212 145Q1255 188 1279 239T1314 349T1327 471T1329 598Q1329 705 1323 819H1116Q1104
750 1091 683T1061 555Q1026 420 979 311T863 123T696 2T467 -41Q373 -41 296 -9T165 79T81 214T51 389Q51 494 86 567T174 687T289 753T410 774Q481 774 537 753T632 692T690 602T711 494Q711 453 699 409T660 329T591 270T492 246Q375 246 329 320T283 506H348Q348
467 354 431T376 368T421 324T492 307Q551 307 598 351T645 494Q645 596 579 654T410 713Q354 713 302 696T209 639T143 539T117 389Q117 285 152 214T242 100T358 39T471 20Q588 20 674 60T821 172T924 343T995 561Q1026 684 1050 821T1099 1086T1154 1323T1225
1499Q1237 1520 1262 1548T1329 1597V1618Q1225 1618 1111 1585T911 1481Q852 1432 814 1363T776 1204Q776 1135 807 1098T887 1061Q928 1061 952 1085T977 1149Q977 1194 949 1210T891 1227V1288Q956 1288 999 1253T1042 1149Q1042 1083 998 1041T889 999Q803
999 757 1054T711 1202Q711 1305 759 1385T881 1526Q1001 1622 1153 1650T1495 1679H1704ZM1292 1491Q1262 1446 1238 1380T1195 1233T1160 1063T1126 881H1321Q1319 922 1319 965T1319 1055Q1319 1143 1322 1210T1334 1331T1359 1427T1401 1507Q1432 1552 1469
1577T1544 1618Q1458 1614 1397 1584T1292 1491ZM1722 1833L1679 1784L1478 1958L1271 1784L1231 1831L1480 2044L1722 1833Z" />
<glyph unicode="&#xc3;" glyph-name="Atilde" horiz-adv-x="1710" d="M1704 1679V1618Q1688 1618 1667 1615T1620 1604T1573 1581T1532 1546Q1487 1493 1472 1412T1456 1182Q1456 1120 1458 1064T1462 948T1466 822T1468 676Q1468 627 1466 574T1457 468T1438
368T1407 283Q1376 221 1321 163T1182 82V61H1460Q1516 61 1547 82T1596 138T1619 211T1624 287V352H1690V287Q1690 225 1680 173T1643 82T1570 22T1452 0H963V61Q1036 61 1103 82T1212 145Q1255 188 1279 239T1314 349T1327 471T1329 598Q1329 705 1323 819H1116Q1104
750 1091 683T1061 555Q1026 420 979 311T863 123T696 2T467 -41Q373 -41 296 -9T165 79T81 214T51 389Q51 494 86 567T174 687T289 753T410 774Q481 774 537 753T632 692T690 602T711 494Q711 453 699 409T660 329T591 270T492 246Q375 246 329 320T283 506H348Q348
467 354 431T376 368T421 324T492 307Q551 307 598 351T645 494Q645 596 579 654T410 713Q354 713 302 696T209 639T143 539T117 389Q117 285 152 214T242 100T358 39T471 20Q588 20 674 60T821 172T924 343T995 561Q1026 684 1050 821T1099 1086T1154 1323T1225
1499Q1237 1520 1262 1548T1329 1597V1618Q1225 1618 1111 1585T911 1481Q852 1432 814 1363T776 1204Q776 1135 807 1098T887 1061Q928 1061 952 1085T977 1149Q977 1194 949 1210T891 1227V1288Q956 1288 999 1253T1042 1149Q1042 1083 998 1041T889 999Q803
999 757 1054T711 1202Q711 1305 759 1385T881 1526Q1001 1622 1153 1650T1495 1679H1704ZM1292 1491Q1262 1446 1238 1380T1195 1233T1160 1063T1126 881H1321Q1319 922 1319 965T1319 1055Q1319 1143 1322 1210T1334 1331T1359 1427T1401 1507Q1432 1552 1469
1577T1544 1618Q1458 1614 1397 1584T1292 1491ZM1600 1829Q1561 1829 1533 1845T1480 1881T1430 1918T1375 1935Q1342 1935 1326 1906T1309 1839H1244Q1244 1904 1280 1950T1375 1997Q1416 1997 1445 1981T1500 1944T1548 1907T1600 1890Q1633 1890 1649 1920T1665
1986H1731Q1731 1921 1695 1875T1600 1829Z" />
<glyph unicode="&#xc4;" glyph-name="Adieresis" horiz-adv-x="1710" d="M1704 1679V1618Q1688 1618 1667 1615T1620 1604T1573 1581T1532 1546Q1487 1493 1472 1412T1456 1182Q1456 1120 1458 1064T1462 948T1466 822T1468 676Q1468 627 1466 574T1457 468T1438
368T1407 283Q1376 221 1321 163T1182 82V61H1460Q1516 61 1547 82T1596 138T1619 211T1624 287V352H1690V287Q1690 225 1680 173T1643 82T1570 22T1452 0H963V61Q1036 61 1103 82T1212 145Q1255 188 1279 239T1314 349T1327 471T1329 598Q1329 705 1323 819H1116Q1104
750 1091 683T1061 555Q1026 420 979 311T863 123T696 2T467 -41Q373 -41 296 -9T165 79T81 214T51 389Q51 494 86 567T174 687T289 753T410 774Q481 774 537 753T632 692T690 602T711 494Q711 453 699 409T660 329T591 270T492 246Q375 246 329 320T283 506H348Q348
467 354 431T376 368T421 324T492 307Q551 307 598 351T645 494Q645 596 579 654T410 713Q354 713 302 696T209 639T143 539T117 389Q117 285 152 214T242 100T358 39T471 20Q588 20 674 60T821 172T924 343T995 561Q1026 684 1050 821T1099 1086T1154 1323T1225
1499Q1237 1520 1262 1548T1329 1597V1618Q1225 1618 1111 1585T911 1481Q852 1432 814 1363T776 1204Q776 1135 807 1098T887 1061Q928 1061 952 1085T977 1149Q977 1194 949 1210T891 1227V1288Q956 1288 999 1253T1042 1149Q1042 1083 998 1041T889 999Q803
999 757 1054T711 1202Q711 1305 759 1385T881 1526Q1001 1622 1153 1650T1495 1679H1704ZM1292 1491Q1262 1446 1238 1380T1195 1233T1160 1063T1126 881H1321Q1319 922 1319 965T1319 1055Q1319 1143 1322 1210T1334 1331T1359 1427T1401 1507Q1432 1552 1469
1577T1544 1618Q1458 1614 1397 1584T1292 1491ZM1357 1999Q1392 1999 1418 1973T1444 1913Q1444 1876 1418 1852T1357 1827Q1321 1827 1296 1851T1271 1913Q1271 1947 1296 1973T1357 1999ZM1595 1999Q1630 1999 1655 1973T1681 1913Q1681 1876 1656 1852T1595
1827Q1558 1827 1534 1851T1509 1913Q1509 1947 1533 1973T1595 1999Z" />
<glyph unicode="&#xc5;" glyph-name="Aring" horiz-adv-x="1710" d="M1704 1679V1618Q1688 1618 1667 1615T1620 1604T1573 1581T1532 1546Q1487 1493 1472 1412T1456 1182Q1456 1120 1458 1064T1462 948T1466 822T1468 676Q1468 627 1466 574T1457 468T1438 368T1407
283Q1376 221 1321 163T1182 82V61H1460Q1516 61 1547 82T1596 138T1619 211T1624 287V352H1690V287Q1690 225 1680 173T1643 82T1570 22T1452 0H963V61Q1036 61 1103 82T1212 145Q1255 188 1279 239T1314 349T1327 471T1329 598Q1329 705 1323 819H1116Q1104 750
1091 683T1061 555Q1026 420 979 311T863 123T696 2T467 -41Q373 -41 296 -9T165 79T81 214T51 389Q51 494 86 567T174 687T289 753T410 774Q481 774 537 753T632 692T690 602T711 494Q711 453 699 409T660 329T591 270T492 246Q375 246 329 320T283 506H348Q348
467 354 431T376 368T421 324T492 307Q551 307 598 351T645 494Q645 596 579 654T410 713Q354 713 302 696T209 639T143 539T117 389Q117 285 152 214T242 100T358 39T471 20Q588 20 674 60T821 172T924 343T995 561Q1026 684 1050 821T1099 1086T1154 1323T1225
1499Q1237 1520 1262 1548T1329 1597V1618Q1225 1618 1111 1585T911 1481Q852 1432 814 1363T776 1204Q776 1135 807 1098T887 1061Q928 1061 952 1085T977 1149Q977 1194 949 1210T891 1227V1288Q956 1288 999 1253T1042 1149Q1042 1083 998 1041T889 999Q803
999 757 1054T711 1202Q711 1305 759 1385T881 1526Q1001 1622 1153 1650T1495 1679H1704ZM1292 1491Q1262 1446 1238 1380T1195 1233T1160 1063T1126 881H1321Q1319 922 1319 965T1319 1055Q1319 1143 1322 1210T1334 1331T1359 1427T1401 1507Q1432 1552 1469
1577T1544 1618Q1458 1614 1397 1584T1292 1491ZM1342 1913Q1342 1974 1385 2017T1489 2060Q1551 2060 1594 2017T1637 1913Q1637 1851 1594 1808T1489 1765Q1428 1765 1385 1808T1342 1913ZM1407 1913Q1407 1878 1430 1853T1489 1827Q1524 1827 1547 1852T1571
1913Q1571 1947 1548 1973T1489 1999Q1454 1999 1431 1973T1407 1913Z" />
<glyph unicode="&#xc6;" glyph-name="AE" horiz-adv-x="2515" d="M1704 1679V1618Q1688 1618 1667 1615T1620 1604T1573 1581T1532 1546Q1487 1493 1472 1412T1456 1182Q1456 1120 1458 1064T1462 948T1466 822T1468 676Q1468 627 1466 574T1457 468T1438 368T1407
283Q1376 221 1321 163T1182 82V61H1460Q1526 61 1558 91T1608 164Q1573 217 1555 282T1536 434Q1536 602 1636 729T1935 895V915Q1864 940 1815 983T1735 1078T1691 1186T1677 1292Q1677 1415 1729 1514T1882 1671Q1931 1700 1982 1710T2093 1720Q2150 1720 2195
1702T2272 1653T2321 1582T2339 1499Q2339 1407 2293 1352T2163 1296Q2097 1296 2055 1336T2013 1444Q2013 1516 2056 1550T2165 1585V1524Q2136 1524 2108 1508T2079 1446Q2079 1405 2102 1382T2167 1358Q2214 1358 2243 1390T2273 1495Q2273 1561 2227 1610T2089
1659Q2015 1659 1963 1628T1878 1546T1831 1428T1817 1286Q1817 1204 1837 1139T1891 1027T1970 955T2066 922V860Q2017 860 1952 842T1828 777T1730 655T1690 459Q1690 250 1786 135T2044 20Q2101 20 2164 38T2279 100T2364 214T2398 389Q2398 477 2375 538T2311
639T2220 695T2114 713Q2007 713 1939 654T1870 492Q1870 393 1917 350T2023 307Q2066 307 2094 323T2138 367T2160 431T2167 506H2232Q2232 395 2186 321T2023 246Q1964 246 1923 266T1856 320T1817 399T1804 492Q1804 549 1825 600T1887 690T1984 751T2114 774Q2181
774 2243 753T2355 685T2434 566T2464 389Q2464 293 2434 214T2349 79T2217 -9T2046 -41Q1935 -41 1832 -7T1655 104Q1630 55 1582 28T1452 0H963V61Q1036 61 1103 82T1212 145Q1255 188 1279 239T1314 349T1327 471T1329 598Q1329 705 1323 819H1116Q1104 750
1091 683T1061 555Q1026 420 979 311T863 123T696 2T467 -41Q373 -41 296 -9T165 79T81 214T51 389Q51 494 86 567T174 687T289 753T410 774Q481 774 537 753T632 692T690 602T711 494Q711 453 699 409T660 329T591 270T492 246Q375 246 329 320T283 506H348Q348
467 354 431T376 368T421 324T492 307Q551 307 598 351T645 494Q645 596 579 654T410 713Q354 713 302 696T209 639T143 539T117 389Q117 285 152 214T242 100T358 39T471 20Q588 20 674 60T821 172T924 343T995 561Q1026 684 1050 821T1099 1086T1154 1323T1225
1499Q1237 1520 1262 1548T1329 1597V1618Q1225 1618 1111 1585T911 1481Q852 1432 814 1363T776 1204Q776 1135 807 1098T887 1061Q928 1061 952 1085T977 1149Q977 1194 949 1210T891 1227V1288Q956 1288 999 1253T1042 1149Q1042 1083 998 1041T889 999Q803
999 757 1054T711 1202Q711 1305 759 1385T881 1526Q1001 1622 1153 1650T1495 1679H1704ZM1292 1491Q1262 1446 1238 1380T1195 1233T1160 1063T1126 881H1321Q1319 922 1319 965T1319 1055Q1319 1143 1322 1210T1335 1331T1362 1427T1407 1507Q1440 1550 1473
1573T1544 1618Q1458 1614 1397 1584T1292 1491Z" />
<glyph unicode="&#xc7;" glyph-name="Ccedilla" horiz-adv-x="1270" d="M279 696Q279 874 313 1038Q203 1079 127 1168T51 1399Q51 1491 99 1547T231 1604Q297 1604 337 1564T377 1456Q377 1384 334 1350T225 1315V1376Q254 1376 282 1392T311 1454Q311 1495 290
1518T227 1542Q180 1542 149 1509T117 1403Q117 1290 177 1217T330 1104Q362 1235 413 1348T532 1544T686 1673T874 1720Q993 1720 1051 1653T1110 1489Q1110 1382 1067 1292T948 1138T770 1036T549 999Q498 999 453 1006Q442 932 437 852T432 713Q432 604 439
519T459 369T493 252T541 162Q588 94 657 57T799 20Q856 20 919 38T1034 100T1119 214T1153 389Q1153 477 1130 538T1066 639T975 695T868 713Q762 713 694 654T625 492Q625 393 672 350T778 307Q821 307 849 323T893 367T915 431T922 506H987Q987 395 941 321T778
246Q719 246 678 266T611 320T572 399T559 492Q559 549 580 600T642 690T739 751T868 774Q936 774 998 753T1110 685T1189 566T1219 389Q1219 297 1190 219T1108 84T981 -6T817 -41L778 -111Q823 -111 862 -122T929 -157T974 -222T991 -319Q991 -412 939 -468T801
-524Q741 -524 693 -489T645 -377Q645 -299 693 -266T813 -233V-295Q774 -295 743 -311T711 -377Q711 -412 735 -437T805 -463Q866 -463 896 -420T926 -319Q926 -258 892 -215T772 -172H709V-111L752 -39Q614 -29 523 36T378 203T302 433T279 696ZM547 1061Q655
1061 746 1092T904 1180T1007 1315T1044 1483Q1044 1565 1000 1612T872 1659Q784 1659 717 1608T599 1473T515 1284T463 1067Q502 1061 547 1061Z" />
<glyph unicode="&#xc8;" glyph-name="Egrave" horiz-adv-x="1257" d="M117 1403Q117 1323 148 1263T232 1160T353 1094T496 1063Q463 1118 452 1178T440 1292Q440 1415 499 1514T659 1671Q709 1700 761 1710T872 1720Q993 1720 1051 1654T1110 1489Q1110 1393
1075 1311T979 1166T833 1061T647 1006Q700 930 788 922V860Q745 860 685 842T569 777T472 655T432 459Q432 250 528 135T786 20Q844 20 907 38T1022 100T1107 214T1141 389Q1141 477 1118 538T1054 639T963 695T856 713Q750 713 681 654T612 492Q612 393 659 350T766
307Q809 307 836 323T880 367T903 431T909 506H975Q975 395 929 321T766 246Q707 246 666 266T598 320T559 399T547 492Q547 549 568 600T630 690T727 751T856 774Q924 774 986 753T1098 685T1176 566T1206 389Q1206 293 1177 214T1092 79T960 -9T788 -41Q692 -41
601 -15T439 68T323 215T279 434Q279 602 379 729T678 895V915Q594 942 543 999Q453 999 365 1023T207 1096T94 1219T51 1399Q51 1491 99 1547T231 1604Q297 1604 337 1564T377 1456Q377 1384 334 1350T225 1315V1376Q254 1376 282 1392T311 1454Q311 1495 290
1518T227 1542Q180 1542 149 1509T117 1403ZM868 1659Q795 1659 740 1628T649 1546T597 1428T580 1286Q580 1155 614 1063Q709 1073 788 1108T924 1198T1012 1326T1044 1483Q1044 1565 998 1612T868 1659ZM600 2062L901 1816L860 1765L559 2011L600 2062Z" />
<glyph unicode="&#xc9;" glyph-name="Eacute" horiz-adv-x="1257" d="M117 1403Q117 1323 148 1263T232 1160T353 1094T496 1063Q463 1118 452 1178T440 1292Q440 1415 499 1514T659 1671Q709 1700 761 1710T872 1720Q993 1720 1051 1654T1110 1489Q1110 1393
1075 1311T979 1166T833 1061T647 1006Q700 930 788 922V860Q745 860 685 842T569 777T472 655T432 459Q432 250 528 135T786 20Q844 20 907 38T1022 100T1107 214T1141 389Q1141 477 1118 538T1054 639T963 695T856 713Q750 713 681 654T612 492Q612 393 659 350T766
307Q809 307 836 323T880 367T903 431T909 506H975Q975 395 929 321T766 246Q707 246 666 266T598 320T559 399T547 492Q547 549 568 600T630 690T727 751T856 774Q924 774 986 753T1098 685T1176 566T1206 389Q1206 293 1177 214T1092 79T960 -9T788 -41Q692 -41
601 -15T439 68T323 215T279 434Q279 602 379 729T678 895V915Q594 942 543 999Q453 999 365 1023T207 1096T94 1219T51 1399Q51 1491 99 1547T231 1604Q297 1604 337 1564T377 1456Q377 1384 334 1350T225 1315V1376Q254 1376 282 1392T311 1454Q311 1495 290
1518T227 1542Q180 1542 149 1509T117 1403ZM868 1659Q795 1659 740 1628T649 1546T597 1428T580 1286Q580 1155 614 1063Q709 1073 788 1108T924 1198T1012 1326T1044 1483Q1044 1565 998 1612T868 1659ZM1143 2011L842 1765L805 1812L1106 2058L1143 2011Z" />
<glyph unicode="&#xca;" glyph-name="Ecircumflex" horiz-adv-x="1257" d="M117 1403Q117 1323 148 1263T232 1160T353 1094T496 1063Q463 1118 452 1178T440 1292Q440 1415 499 1514T659 1671Q709 1700 761 1710T872 1720Q993 1720 1051 1654T1110 1489Q1110
1393 1075 1311T979 1166T833 1061T647 1006Q700 930 788 922V860Q745 860 685 842T569 777T472 655T432 459Q432 250 528 135T786 20Q844 20 907 38T1022 100T1107 214T1141 389Q1141 477 1118 538T1054 639T963 695T856 713Q750 713 681 654T612 492Q612 393
659 350T766 307Q809 307 836 323T880 367T903 431T909 506H975Q975 395 929 321T766 246Q707 246 666 266T598 320T559 399T547 492Q547 549 568 600T630 690T727 751T856 774Q924 774 986 753T1098 685T1176 566T1206 389Q1206 293 1177 214T1092 79T960 -9T788
-41Q692 -41 601 -15T439 68T323 215T279 434Q279 602 379 729T678 895V915Q594 942 543 999Q453 999 365 1023T207 1096T94 1219T51 1399Q51 1491 99 1547T231 1604Q297 1604 337 1564T377 1456Q377 1384 334 1350T225 1315V1376Q254 1376 282 1392T311 1454Q311
1495 290 1518T227 1542Q180 1542 149 1509T117 1403ZM868 1659Q795 1659 740 1628T649 1546T597 1428T580 1286Q580 1155 614 1063Q709 1073 788 1108T924 1198T1012 1326T1044 1483Q1044 1565 998 1612T868 1659ZM1098 1833L1055 1784L854 1958L647 1784L607
1831L856 2044L1098 1833Z" />
<glyph unicode="&#xcb;" glyph-name="Edieresis" horiz-adv-x="1257" d="M117 1403Q117 1323 148 1263T232 1160T353 1094T496 1063Q463 1118 452 1178T440 1292Q440 1415 499 1514T659 1671Q709 1700 761 1710T872 1720Q993 1720 1051 1654T1110 1489Q1110 1393
1075 1311T979 1166T833 1061T647 1006Q700 930 788 922V860Q745 860 685 842T569 777T472 655T432 459Q432 250 528 135T786 20Q844 20 907 38T1022 100T1107 214T1141 389Q1141 477 1118 538T1054 639T963 695T856 713Q750 713 681 654T612 492Q612 393 659 350T766
307Q809 307 836 323T880 367T903 431T909 506H975Q975 395 929 321T766 246Q707 246 666 266T598 320T559 399T547 492Q547 549 568 600T630 690T727 751T856 774Q924 774 986 753T1098 685T1176 566T1206 389Q1206 293 1177 214T1092 79T960 -9T788 -41Q692 -41
601 -15T439 68T323 215T279 434Q279 602 379 729T678 895V915Q594 942 543 999Q453 999 365 1023T207 1096T94 1219T51 1399Q51 1491 99 1547T231 1604Q297 1604 337 1564T377 1456Q377 1384 334 1350T225 1315V1376Q254 1376 282 1392T311 1454Q311 1495 290
1518T227 1542Q180 1542 149 1509T117 1403ZM868 1659Q795 1659 740 1628T649 1546T597 1428T580 1286Q580 1155 614 1063Q709 1073 788 1108T924 1198T1012 1326T1044 1483Q1044 1565 998 1612T868 1659ZM733 1999Q768 1999 794 1973T820 1913Q820 1876 794 1852T733
1827Q697 1827 672 1851T647 1913Q647 1947 672 1973T733 1999ZM971 1999Q1006 1999 1031 1973T1057 1913Q1057 1876 1032 1852T971 1827Q934 1827 910 1851T885 1913Q885 1947 909 1973T971 1999Z" />
<glyph unicode="&#xcc;" glyph-name="Igrave" horiz-adv-x="1055" d="M1053 1618Q946 1618 834 1585T635 1481Q575 1432 538 1363T500 1204Q500 1135 530 1098T610 1061Q651 1061 675 1085T700 1149Q700 1194 672 1210T614 1227V1288Q680 1288 723 1253T766 1149Q766
1083 722 1041T612 999Q526 999 480 1054T434 1202Q434 1305 482 1385T604 1526Q725 1622 876 1650T1219 1679V1618Q1188 1618 1137 1604T1047 1546Q991 1483 978 1377T965 1141Q965 1079 967 1023T971 907T975 781T977 635Q977 311 857 135T467 -41Q373 -41 296
-9T165 79T81 214T51 389Q51 494 86 567T174 687T289 753T410 774Q481 774 537 753T632 692T690 602T711 494Q711 453 699 409T660 329T591 270T492 246Q375 246 329 320T283 506H348Q348 467 354 431T376 368T421 324T492 307Q551 307 598 351T645 494Q645 596
579 654T410 713Q354 713 302 696T209 639T143 539T117 389Q117 285 152 214T242 100T358 39T471 20Q592 20 664 66T775 188T825 360T838 557Q838 666 833 775T827 1014Q827 1106 828 1193T848 1355T915 1492T1053 1597V1618ZM856 2062L1157 1816L1116 1765L815
2011L856 2062Z" />
<glyph unicode="&#xcd;" glyph-name="Iacute" horiz-adv-x="1055" d="M1053 1618Q946 1618 834 1585T635 1481Q575 1432 538 1363T500 1204Q500 1135 530 1098T610 1061Q651 1061 675 1085T700 1149Q700 1194 672 1210T614 1227V1288Q680 1288 723 1253T766 1149Q766
1083 722 1041T612 999Q526 999 480 1054T434 1202Q434 1305 482 1385T604 1526Q725 1622 876 1650T1219 1679V1618Q1188 1618 1137 1604T1047 1546Q991 1483 978 1377T965 1141Q965 1079 967 1023T971 907T975 781T977 635Q977 311 857 135T467 -41Q373 -41 296
-9T165 79T81 214T51 389Q51 494 86 567T174 687T289 753T410 774Q481 774 537 753T632 692T690 602T711 494Q711 453 699 409T660 329T591 270T492 246Q375 246 329 320T283 506H348Q348 467 354 431T376 368T421 324T492 307Q551 307 598 351T645 494Q645 596
579 654T410 713Q354 713 302 696T209 639T143 539T117 389Q117 285 152 214T242 100T358 39T471 20Q592 20 664 66T775 188T825 360T838 557Q838 666 833 775T827 1014Q827 1106 828 1193T848 1355T915 1492T1053 1597V1618ZM1333 2011L1032 1765L995 1812L1296
2058L1333 2011Z" />
<glyph unicode="&#xce;" glyph-name="Icircumflex" horiz-adv-x="1055" d="M1053 1618Q946 1618 834 1585T635 1481Q575 1432 538 1363T500 1204Q500 1135 530 1098T610 1061Q651 1061 675 1085T700 1149Q700 1194 672 1210T614 1227V1288Q680 1288 723 1253T766
1149Q766 1083 722 1041T612 999Q526 999 480 1054T434 1202Q434 1305 482 1385T604 1526Q725 1622 876 1650T1219 1679V1618Q1188 1618 1137 1604T1047 1546Q991 1483 978 1377T965 1141Q965 1079 967 1023T971 907T975 781T977 635Q977 311 857 135T467 -41Q373
-41 296 -9T165 79T81 214T51 389Q51 494 86 567T174 687T289 753T410 774Q481 774 537 753T632 692T690 602T711 494Q711 453 699 409T660 329T591 270T492 246Q375 246 329 320T283 506H348Q348 467 354 431T376 368T421 324T492 307Q551 307 598 351T645 494Q645
596 579 654T410 713Q354 713 302 696T209 639T143 539T117 389Q117 285 152 214T242 100T358 39T471 20Q592 20 664 66T775 188T825 360T838 557Q838 666 833 775T827 1014Q827 1106 828 1193T848 1355T915 1492T1053 1597V1618ZM1210 1833L1167 1784L966 1958L759
1784L719 1831L968 2044L1210 1833Z" />
<glyph unicode="&#xcf;" glyph-name="Idieresis" horiz-adv-x="1055" d="M1053 1618Q946 1618 834 1585T635 1481Q575 1432 538 1363T500 1204Q500 1135 530 1098T610 1061Q651 1061 675 1085T700 1149Q700 1194 672 1210T614 1227V1288Q680 1288 723 1253T766
1149Q766 1083 722 1041T612 999Q526 999 480 1054T434 1202Q434 1305 482 1385T604 1526Q725 1622 876 1650T1219 1679V1618Q1188 1618 1137 1604T1047 1546Q991 1483 978 1377T965 1141Q965 1079 967 1023T971 907T975 781T977 635Q977 311 857 135T467 -41Q373
-41 296 -9T165 79T81 214T51 389Q51 494 86 567T174 687T289 753T410 774Q481 774 537 753T632 692T690 602T711 494Q711 453 699 409T660 329T591 270T492 246Q375 246 329 320T283 506H348Q348 467 354 431T376 368T421 324T492 307Q551 307 598 351T645 494Q645
596 579 654T410 713Q354 713 302 696T209 639T143 539T117 389Q117 285 152 214T242 100T358 39T471 20Q592 20 664 66T775 188T825 360T838 557Q838 666 833 775T827 1014Q827 1106 828 1193T848 1355T915 1492T1053 1597V1618ZM890 1999Q925 1999 951 1973T977
1913Q977 1876 951 1852T890 1827Q854 1827 829 1851T804 1913Q804 1947 829 1973T890 1999ZM1128 1999Q1163 1999 1188 1973T1214 1913Q1214 1876 1189 1852T1128 1827Q1091 1827 1067 1851T1042 1913Q1042 1947 1066 1973T1128 1999Z" />
<glyph unicode="&#xd0;" glyph-name="Eth" horiz-adv-x="1720" d="M965 1182Q965 1110 967 1036T973 881H1141V819H975Q977 774 977 728T977 635Q977 311 857 135T467 -41Q373 -41 296 -9T165 79T81 214T51 389Q51 494 86 567T174 687T289 753T410 774Q481 774
537 753T632 692T690 602T711 494Q711 453 699 409T660 329T591 270T492 246Q375 246 329 320T283 506H348Q348 467 354 431T376 368T421 324T492 307Q551 307 598 351T645 494Q645 596 579 654T410 713Q354 713 302 696T209 639T143 539T117 389Q117 285 152 214T242
100T358 39T471 20Q592 20 664 66T775 188T825 360T838 557Q838 616 836 682T831 819H682V881H829Q827 924 827 968T827 1055Q827 1237 843 1348T901 1536Q827 1530 756 1507T627 1442T535 1341T500 1204Q500 1135 530 1098T610 1061Q651 1061 675 1085T700 1149Q700
1194 672 1210T614 1227V1288Q680 1288 723 1253T766 1149Q766 1083 721 1041T610 999Q524 999 479 1054T434 1202Q434 1300 481 1374T602 1498T766 1573T944 1599Q993 1657 1064 1688T1219 1720V1659Q1190 1659 1140 1646T1053 1593Q1221 1575 1337 1499T1528
1304T1635 1027T1669 690Q1669 569 1650 440T1584 205T1459 29T1262 -41Q1186 -41 1133 -15T1047 59T1000 171T985 311H1051Q1051 252 1062 199T1097 106T1162 43T1260 20Q1323 20 1367 54T1439 143T1483 270T1506 415T1514 561T1516 688Q1516 825 1496 967T1420
1231T1266 1435T1012 1534Q983 1479 974 1395T965 1182Z" />
<glyph unicode="&#xd1;" glyph-name="Ntilde" horiz-adv-x="1886" d="M662 1659Q578 1659 535 1613T492 1497Q492 1427 522 1393T602 1358Q643 1358 667 1382T692 1446Q692 1491 664 1507T606 1524V1585Q672 1585 715 1549T758 1446Q758 1380 713 1338T602 1296Q516
1296 471 1349T426 1495Q426 1599 493 1659T666 1720Q793 1720 886 1659T1044 1489Q1106 1386 1154 1270T1247 1001Q1294 844 1343 681T1434 377Q1438 362 1441 350T1448 326Q1468 381 1476 442T1485 573Q1485 635 1483 706T1479 853T1475 1003T1473 1147Q1473
1325 1494 1427T1575 1593Q1655 1679 1792 1679V1618Q1747 1618 1701 1605T1618 1548Q1589 1516 1573 1467T1549 1362T1540 1249T1538 1141Q1538 1079 1540 1019T1544 895T1548 761T1550 608Q1550 510 1538 419T1487 244L1479 229Q1518 131 1565 76T1681 20Q1726
20 1753 41T1795 97T1815 170T1821 246V311H1886V246Q1886 123 1836 41T1671 -41Q1597 -41 1541 -17T1441 57T1361 179T1292 348Q1251 465 1202 618T1096 977Q1090 1004 1074 1055T1036 1169T986 1303T930 1438Q901 1356 897 1263T893 1079Q893 958 898 833T903
573Q903 442 886 331T820 136T687 6T467 -41Q373 -41 296 -9T165 79T81 214T51 389Q51 494 86 567T174 687T289 753T410 774Q481 774 537 753T632 692T690 602T711 494Q711 453 699 409T660 329T591 270T492 246Q375 246 329 320T283 506H348Q348 467 354 431T376
368T421 324T492 307Q551 307 598 351T645 494Q645 596 579 654T410 713Q354 713 302 696T209 639T143 539T117 389Q117 285 152 214T241 100T356 39T469 20Q590 20 662 64T774 184T825 360T838 573Q838 684 833 805T827 1055Q827 1192 836 1303T893 1509Q852 1577
798 1618T662 1659ZM1333 1829Q1294 1829 1266 1845T1213 1881T1163 1918T1108 1935Q1075 1935 1059 1906T1042 1839H977Q977 1904 1013 1950T1108 1997Q1149 1997 1178 1981T1233 1944T1281 1907T1333 1890Q1366 1890 1382 1920T1398 1986H1464Q1464 1921 1428
1875T1333 1829Z" />
<glyph unicode="&#xd2;" glyph-name="Ograve" horiz-adv-x="1139" d="M569 1720Q817 1720 952 1498T1087 840Q1087 403 952 181T569 -41Q322 -41 187 181T51 840Q51 1276 186 1498T569 1720ZM430 1501Q430 1432 461 1395T541 1358Q582 1358 606 1382T631 1446Q631
1491 602 1507T545 1524V1585Q610 1585 653 1549T696 1446Q696 1380 651 1338T541 1296Q461 1296 417 1346T373 1475Q373 1513 387 1553T428 1620H406Q371 1595 333 1528T272 1391Q256 1341 244 1286T223 1166T210 1019T205 840Q205 756 210 663T230 478T271 304T338
159T435 58T569 20Q645 20 702 58T800 158T866 304T907 478T928 662T934 840Q934 924 929 1017T911 1201T874 1375T812 1520T719 1621T590 1659Q526 1659 478 1619T430 1501ZM323 2062L624 1816L583 1765L282 2011L323 2062Z" />
<glyph unicode="&#xd3;" glyph-name="Oacute" horiz-adv-x="1139" d="M569 1720Q817 1720 952 1498T1087 840Q1087 403 952 181T569 -41Q322 -41 187 181T51 840Q51 1276 186 1498T569 1720ZM430 1501Q430 1432 461 1395T541 1358Q582 1358 606 1382T631 1446Q631
1491 602 1507T545 1524V1585Q610 1585 653 1549T696 1446Q696 1380 651 1338T541 1296Q461 1296 417 1346T373 1475Q373 1513 387 1553T428 1620H406Q371 1595 333 1528T272 1391Q256 1341 244 1286T223 1166T210 1019T205 840Q205 756 210 663T230 478T271 304T338
159T435 58T569 20Q645 20 702 58T800 158T866 304T907 478T928 662T934 840Q934 924 929 1017T911 1201T874 1375T812 1520T719 1621T590 1659Q526 1659 478 1619T430 1501ZM868 2011L567 1765L530 1812L831 2058L868 2011Z" />
<glyph unicode="&#xd4;" glyph-name="Ocircumflex" horiz-adv-x="1139" d="M569 1720Q817 1720 952 1498T1087 840Q1087 403 952 181T569 -41Q322 -41 187 181T51 840Q51 1276 186 1498T569 1720ZM430 1501Q430 1432 461 1395T541 1358Q582 1358 606 1382T631
1446Q631 1491 602 1507T545 1524V1585Q610 1585 653 1549T696 1446Q696 1380 651 1338T541 1296Q461 1296 417 1346T373 1475Q373 1513 387 1553T428 1620H406Q371 1595 333 1528T272 1391Q256 1341 244 1286T223 1166T210 1019T205 840Q205 756 210 663T230 478T271
304T338 159T435 58T569 20Q645 20 702 58T800 158T866 304T907 478T928 662T934 840Q934 924 929 1017T911 1201T874 1375T812 1520T719 1621T590 1659Q526 1659 478 1619T430 1501ZM817 1833L774 1784L573 1958L366 1784L326 1831L575 2044L817 1833Z" />
<glyph unicode="&#xd5;" glyph-name="Otilde" horiz-adv-x="1139" d="M569 1720Q817 1720 952 1498T1087 840Q1087 403 952 181T569 -41Q322 -41 187 181T51 840Q51 1276 186 1498T569 1720ZM430 1501Q430 1432 461 1395T541 1358Q582 1358 606 1382T631 1446Q631
1491 602 1507T545 1524V1585Q610 1585 653 1549T696 1446Q696 1380 651 1338T541 1296Q461 1296 417 1346T373 1475Q373 1513 387 1553T428 1620H406Q371 1595 333 1528T272 1391Q256 1341 244 1286T223 1166T210 1019T205 840Q205 756 210 663T230 478T271 304T338
159T435 58T569 20Q645 20 702 58T800 158T866 304T907 478T928 662T934 840Q934 924 929 1017T911 1201T874 1375T812 1520T719 1621T590 1659Q526 1659 478 1619T430 1501ZM698 1829Q659 1829 631 1845T578 1881T528 1918T473 1935Q440 1935 424 1906T407 1839H342Q342
1904 378 1950T473 1997Q514 1997 543 1981T598 1944T646 1907T698 1890Q731 1890 747 1920T763 1986H829Q829 1921 793 1875T698 1829Z" />
<glyph unicode="&#xd6;" glyph-name="Odieresis" horiz-adv-x="1139" d="M569 1720Q817 1720 952 1498T1087 840Q1087 403 952 181T569 -41Q322 -41 187 181T51 840Q51 1276 186 1498T569 1720ZM430 1501Q430 1432 461 1395T541 1358Q582 1358 606 1382T631 1446Q631
1491 602 1507T545 1524V1585Q610 1585 653 1549T696 1446Q696 1380 651 1338T541 1296Q461 1296 417 1346T373 1475Q373 1513 387 1553T428 1620H406Q371 1595 333 1528T272 1391Q256 1341 244 1286T223 1166T210 1019T205 840Q205 756 210 663T230 478T271 304T338
159T435 58T569 20Q645 20 702 58T800 158T866 304T907 478T928 662T934 840Q934 924 929 1017T911 1201T874 1375T812 1520T719 1621T590 1659Q526 1659 478 1619T430 1501ZM452 1999Q487 1999 513 1973T539 1913Q539 1876 513 1852T452 1827Q416 1827 391 1851T366
1913Q366 1947 391 1973T452 1999ZM690 1999Q725 1999 750 1973T776 1913Q776 1876 751 1852T690 1827Q653 1827 629 1851T604 1913Q604 1947 628 1973T690 1999Z" />
<glyph unicode="&#xd7;" glyph-name="multiply" horiz-adv-x="512" d="M33 322L215 502L37 682L78 725L256 543L438 725L481 678L301 498L479 319L438 276L260 457L76 274L33 322Z" />
<glyph unicode="&#xd8;" glyph-name="Oslash" horiz-adv-x="1139" d="M252 92Q154 199 103 385T51 840Q51 1276 186 1498T569 1720Q731 1720 846 1622L885 1720H950L893 1577Q989 1468 1038 1285T1087 840Q1087 403 952 181T569 -41Q414 -41 301 49L266 -41H201L252
92ZM934 840Q934 913 930 994T917 1155T890 1312T846 1452L340 152Q381 92 437 56T569 20Q645 20 702 58T800 158T866 304T907 478T928 662T934 840ZM430 1501Q430 1432 461 1395T541 1358Q582 1358 606 1382T631 1446Q631 1491 602 1507T545 1524V1585Q610 1585
653 1549T696 1446Q696 1380 651 1338T541 1296Q461 1296 417 1346T373 1475Q373 1513 387 1553T428 1620H406Q371 1595 333 1528T272 1391Q256 1341 244 1286T223 1166T210 1019T205 840Q205 766 209 684T224 521T254 363T303 221L809 1524Q770 1585 717 1622T590
1659Q526 1659 478 1619T430 1501Z" />
<glyph unicode="&#xd9;" glyph-name="Ugrave" horiz-adv-x="1329" d="M1200 608Q1200 543 1197 470T1182 325T1147 187T1084 70T986 -11T846 -41Q719 -41 640 21T518 186T460 421T444 692V1014Q444 1112 449 1201T471 1358Q492 1436 539 1499T670 1597V1618Q563
1618 451 1585T252 1481Q193 1432 155 1363T117 1204Q117 1135 147 1098T227 1061Q268 1061 292 1085T317 1149Q317 1194 289 1210T231 1227V1288Q297 1288 340 1253T383 1149Q383 1083 339 1041T229 999Q143 999 97 1054T51 1202Q51 1305 99 1385T221 1526Q283
1575 351 1605T496 1652T658 1674T840 1679V1618Q809 1618 761 1604T674 1546Q618 1483 608 1375T598 1137V692Q598 563 603 440T637 223Q668 123 725 72T858 20Q922 20 966 47T1040 119T1089 221T1118 340T1131 461T1135 573Q1135 635 1133 706T1128 853T1124
1003T1122 1147Q1122 1325 1143 1427T1225 1593Q1305 1679 1442 1679V1618Q1397 1618 1351 1605T1268 1548Q1239 1516 1223 1467T1199 1362T1190 1249T1188 1141Q1188 1079 1190 1019T1194 895T1198 761T1200 608ZM741 2062L1042 1816L1001 1765L700 2011L741 2062Z"
/>
<glyph unicode="&#xda;" glyph-name="Uacute" horiz-adv-x="1329" d="M1200 608Q1200 543 1197 470T1182 325T1147 187T1084 70T986 -11T846 -41Q719 -41 640 21T518 186T460 421T444 692V1014Q444 1112 449 1201T471 1358Q492 1436 539 1499T670 1597V1618Q563
1618 451 1585T252 1481Q193 1432 155 1363T117 1204Q117 1135 147 1098T227 1061Q268 1061 292 1085T317 1149Q317 1194 289 1210T231 1227V1288Q297 1288 340 1253T383 1149Q383 1083 339 1041T229 999Q143 999 97 1054T51 1202Q51 1305 99 1385T221 1526Q283
1575 351 1605T496 1652T658 1674T840 1679V1618Q809 1618 761 1604T674 1546Q618 1483 608 1375T598 1137V692Q598 563 603 440T637 223Q668 123 725 72T858 20Q922 20 966 47T1040 119T1089 221T1118 340T1131 461T1135 573Q1135 635 1133 706T1128 853T1124
1003T1122 1147Q1122 1325 1143 1427T1225 1593Q1305 1679 1442 1679V1618Q1397 1618 1351 1605T1268 1548Q1239 1516 1223 1467T1199 1362T1190 1249T1188 1141Q1188 1079 1190 1019T1194 895T1198 761T1200 608ZM1265 2011L964 1765L927 1812L1228 2058L1265
2011Z" />
<glyph unicode="&#xdb;" glyph-name="Ucircumflex" horiz-adv-x="1329" d="M1200 608Q1200 543 1197 470T1182 325T1147 187T1084 70T986 -11T846 -41Q719 -41 640 21T518 186T460 421T444 692V1014Q444 1112 449 1201T471 1358Q492 1436 539 1499T670 1597V1618Q563
1618 451 1585T252 1481Q193 1432 155 1363T117 1204Q117 1135 147 1098T227 1061Q268 1061 292 1085T317 1149Q317 1194 289 1210T231 1227V1288Q297 1288 340 1253T383 1149Q383 1083 339 1041T229 999Q143 999 97 1054T51 1202Q51 1305 99 1385T221 1526Q283
1575 351 1605T496 1652T658 1674T840 1679V1618Q809 1618 761 1604T674 1546Q618 1483 608 1375T598 1137V692Q598 563 603 440T637 223Q668 123 725 72T858 20Q922 20 966 47T1040 119T1089 221T1118 340T1131 461T1135 573Q1135 635 1133 706T1128 853T1124
1003T1122 1147Q1122 1325 1143 1427T1225 1593Q1305 1679 1442 1679V1618Q1397 1618 1351 1605T1268 1548Q1239 1516 1223 1467T1199 1362T1190 1249T1188 1141Q1188 1079 1190 1019T1194 895T1198 761T1200 608ZM1116 1833L1073 1784L872 1958L665 1784L625 1831L874
2044L1116 1833Z" />
<glyph unicode="&#xdc;" glyph-name="Udieresis" horiz-adv-x="1329" d="M1200 608Q1200 543 1197 470T1182 325T1147 187T1084 70T986 -11T846 -41Q719 -41 640 21T518 186T460 421T444 692V1014Q444 1112 449 1201T471 1358Q492 1436 539 1499T670 1597V1618Q563
1618 451 1585T252 1481Q193 1432 155 1363T117 1204Q117 1135 147 1098T227 1061Q268 1061 292 1085T317 1149Q317 1194 289 1210T231 1227V1288Q297 1288 340 1253T383 1149Q383 1083 339 1041T229 999Q143 999 97 1054T51 1202Q51 1305 99 1385T221 1526Q283
1575 351 1605T496 1652T658 1674T840 1679V1618Q809 1618 761 1604T674 1546Q618 1483 608 1375T598 1137V692Q598 563 603 440T637 223Q668 123 725 72T858 20Q922 20 966 47T1040 119T1089 221T1118 340T1131 461T1135 573Q1135 635 1133 706T1128 853T1124
1003T1122 1147Q1122 1325 1143 1427T1225 1593Q1305 1679 1442 1679V1618Q1397 1618 1351 1605T1268 1548Q1239 1516 1223 1467T1199 1362T1190 1249T1188 1141Q1188 1079 1190 1019T1194 895T1198 761T1200 608ZM792 1999Q827 1999 853 1973T879 1913Q879 1876
853 1852T792 1827Q756 1827 731 1851T706 1913Q706 1947 731 1973T792 1999ZM1030 1999Q1065 1999 1090 1973T1116 1913Q1116 1876 1091 1852T1030 1827Q993 1827 969 1851T944 1913Q944 1947 968 1973T1030 1999Z" />
<glyph unicode="&#xdd;" glyph-name="Yacute" horiz-adv-x="1196" d="M1180 1473Q1231 1593 1306 1636T1493 1679V1618H1470Q1380 1618 1330 1579T1249 1470Q1221 1409 1199 1319T1155 1121T1113 892T1069 651Q1042 510 1002 384T892 164T722 15T473 -41Q379 -41
302 -9T171 79T87 214T57 389Q57 494 92 567T180 687T295 753T416 774Q487 774 543 753T638 692T696 602T717 494Q717 453 705 409T666 329T597 270T498 246Q381 246 335 320T289 506H354Q354 467 360 431T383 368T427 324T498 307Q557 307 604 351T651 494Q651
596 585 654T416 713Q360 713 308 696T215 639T149 539T123 389Q123 285 159 214T249 100T364 39T477 20Q590 20 691 69T868 258Q856 319 829 434T766 685T693 961T625 1212Q600 1298 568 1390T489 1550Q457 1599 411 1629T305 1659Q221 1659 179 1613T137 1497Q137
1427 168 1393T248 1358Q289 1358 313 1382T338 1446Q338 1491 310 1507T252 1524V1585Q317 1585 360 1549T403 1446Q403 1380 358 1338T248 1296Q162 1296 117 1349T72 1495Q72 1599 139 1659T311 1720Q393 1720 455 1695T569 1612Q629 1546 671 1454T748 1262Q807
1085 860 890T954 508H975Q999 625 1021 760T1068 1027T1118 1276T1180 1473ZM1165 2011L864 1765L827 1812L1128 2058L1165 2011Z" />
<glyph unicode="&#xde;" glyph-name="Thorn" horiz-adv-x="1608" d="M965 1182Q965 1059 971 927T977 635Q977 311 857 135T467 -41Q373 -41 296 -9T165 79T81 214T51 389Q51 494 86 567T174 687T289 753T410 774Q481 774 537 753T632 692T690 602T711 494Q711
453 699 409T660 329T591 270T492 246Q375 246 329 320T283 506H348Q348 467 354 431T376 368T421 324T492 307Q551 307 598 351T645 494Q645 596 579 654T410 713Q354 713 302 696T209 639T143 539T117 389Q117 285 152 214T242 100T358 39T471 20Q592 20 664
66T775 188T825 360T838 557Q838 666 833 796T827 1055Q827 1194 836 1315T868 1534Q799 1524 733 1499T615 1432T532 1334T500 1204Q500 1135 530 1098T610 1061Q651 1061 675 1085T700 1149Q700 1194 672 1210T614 1227V1288Q680 1288 723 1253T766 1149Q766
1083 721 1041T610 999Q524 999 479 1054T434 1202Q434 1290 473 1360T574 1479T718 1556T885 1595Q905 1671 944 1729Q995 1808 1069 1853T1247 1901V1839Q1217 1839 1167 1824T1075 1767Q1053 1743 1034 1701T999 1597Q1122 1591 1224 1557T1401 1460T1515 1310T1556
1116Q1556 1059 1542 993T1494 870T1405 776T1266 739Q1147 739 1093 818T1038 1063H1104Q1104 1012 1111 965T1136 881T1183 823T1255 801Q1333 801 1368 886T1403 1112Q1403 1311 1295 1418T987 1536Q977 1466 971 1378T965 1182Z" />
<glyph unicode="&#xdf;" glyph-name="germandbls" horiz-adv-x="905" d="M123 758H0V819H123Q123 889 124 953T129 1102Q135 1210 149 1324T203 1530Q233 1606 292 1663T438 1720Q530 1720 579 1651T629 1464Q629 1350 592 1220T506 979Q483 932 459 885T418 809V788Q444
782 480 768T553 736T624 696T686 653Q756 594 805 500T854 268Q854 195 831 137T766 39T670 -20T551 -41Q440 -41 372 25T303 201Q303 293 353 349T489 406Q516 406 542 398T590 371T626 325T641 260Q641 182 593 149T473 115V176Q512 176 543 193T575 260Q575
295 553 319T485 344Q424 344 397 301T369 201Q369 168 380 135T414 77T471 36T547 20Q598 20 631 38T684 88T713 157T721 236Q721 283 718 330T703 423T666 514T598 604Q541 664 472 702T365 758V819Q375 836 398 878T457 991Q520 1143 541 1253T563 1456Q563
1542 536 1598T449 1655Q393 1655 358 1611T302 1496T272 1336T260 1155Q258 1116 257 1023T256 819V500Q256 418 257 352T261 227T266 113T272 0H139Q131 121 127 253T123 514V758Z" />
<glyph unicode="&#xe0;" glyph-name="agrave" horiz-adv-x="991" d="M379 860Q535 860 621 743T707 358Q707 293 709 233T721 125T755 49T823 20Q858 20 878 41T909 94T923 160T926 223V311H991V225Q991 168 983 119T954 35T895 -20T801 -41Q715 -41 663 7T594
141H573Q555 70 501 15T354 -41Q272 -41 215 -5T121 92T68 234T51 408Q51 625 138 742T379 860ZM379 799Q184 799 184 412Q184 219 232 120T379 20Q475 20 524 118T573 408Q573 600 524 699T379 799ZM151 1202L452 956L411 905L110 1151L151 1202Z" />
<glyph unicode="&#xe1;" glyph-name="aacute" horiz-adv-x="991" d="M379 860Q535 860 621 743T707 358Q707 293 709 233T721 125T755 49T823 20Q858 20 878 41T909 94T923 160T926 223V311H991V225Q991 168 983 119T954 35T895 -20T801 -41Q715 -41 663 7T594
141H573Q555 70 501 15T354 -41Q272 -41 215 -5T121 92T68 234T51 408Q51 625 138 742T379 860ZM379 799Q184 799 184 412Q184 219 232 120T379 20Q475 20 524 118T573 408Q573 600 524 699T379 799ZM694 1151L393 905L356 952L657 1198L694 1151Z" />
<glyph unicode="&#xe2;" glyph-name="acircumflex" horiz-adv-x="991" d="M379 860Q535 860 621 743T707 358Q707 293 709 233T721 125T755 49T823 20Q858 20 878 41T909 94T923 160T926 223V311H991V225Q991 168 983 119T954 35T895 -20T801 -41Q715 -41 663
7T594 141H573Q555 70 501 15T354 -41Q272 -41 215 -5T121 92T68 234T51 408Q51 625 138 742T379 860ZM379 799Q184 799 184 412Q184 219 232 120T379 20Q475 20 524 118T573 408Q573 600 524 699T379 799ZM633 943L590 894L389 1068L182 894L142 941L391 1154L633
943Z" />
<glyph unicode="&#xe3;" glyph-name="atilde" horiz-adv-x="991" d="M379 860Q535 860 621 743T707 358Q707 293 709 233T721 125T755 49T823 20Q858 20 878 41T909 94T923 160T926 223V311H991V225Q991 168 983 119T954 35T895 -20T801 -41Q715 -41 663 7T594
141H573Q555 70 501 15T354 -41Q272 -41 215 -5T121 92T68 234T51 408Q51 625 138 742T379 860ZM379 799Q184 799 184 412Q184 219 232 120T379 20Q475 20 524 118T573 408Q573 600 524 699T379 799ZM510 969Q471 969 443 985T390 1021T340 1058T285 1075Q252 1075
236 1046T219 979H154Q154 1044 190 1090T285 1137Q326 1137 355 1121T410 1084T458 1047T510 1030Q543 1030 559 1060T575 1126H641Q641 1061 605 1015T510 969Z" />
<glyph unicode="&#xe4;" glyph-name="adieresis" horiz-adv-x="991" d="M379 860Q535 860 621 743T707 358Q707 293 709 233T721 125T755 49T823 20Q858 20 878 41T909 94T923 160T926 223V311H991V225Q991 168 983 119T954 35T895 -20T801 -41Q715 -41 663 7T594
141H573Q555 70 501 15T354 -41Q272 -41 215 -5T121 92T68 234T51 408Q51 625 138 742T379 860ZM379 799Q184 799 184 412Q184 219 232 120T379 20Q475 20 524 118T573 408Q573 600 524 699T379 799ZM262 1139Q297 1139 323 1113T349 1053Q349 1016 323 992T262
967Q226 967 201 991T176 1053Q176 1087 201 1113T262 1139ZM500 1139Q535 1139 560 1113T586 1053Q586 1016 561 992T500 967Q463 967 439 991T414 1053Q414 1087 438 1113T500 1139Z" />
<glyph unicode="&#xe5;" glyph-name="aring" horiz-adv-x="991" d="M379 860Q535 860 621 743T707 358Q707 293 709 233T721 125T755 49T823 20Q858 20 878 41T909 94T923 160T926 223V311H991V225Q991 168 983 119T954 35T895 -20T801 -41Q715 -41 663 7T594
141H573Q555 70 501 15T354 -41Q272 -41 215 -5T121 92T68 234T51 408Q51 625 138 742T379 860ZM379 799Q184 799 184 412Q184 219 232 120T379 20Q475 20 524 118T573 408Q573 600 524 699T379 799ZM232 1053Q232 1114 275 1157T379 1200Q441 1200 484 1157T527
1053Q527 991 484 948T379 905Q318 905 275 948T232 1053ZM297 1053Q297 1018 320 993T379 967Q414 967 437 992T461 1053Q461 1087 438 1113T379 1139Q344 1139 321 1113T297 1053Z" />
<glyph unicode="&#xe6;" glyph-name="ae" horiz-adv-x="1243" d="M696 819V733H717Q743 793 797 826T926 860Q987 860 1032 839T1107 781T1151 697T1165 598Q1165 520 1138 460T1059 358T938 297T784 276H702Q709 231 721 186T755 105T815 44T907 20Q971 20 1011
47T1074 116T1107 210T1116 311H1182Q1182 242 1167 179T1117 66T1029 -12T897 -41Q809 -41 726 -2T594 141H573Q555 66 499 13T356 -41Q203 -41 127 77T51 410Q51 625 133 742T352 860Q420 860 472 828T553 733H573V819H696ZM379 799Q184 799 184 412Q184 219
232 120T379 20Q475 20 524 118T573 408Q573 600 524 699T379 799ZM696 338H772Q885 338 958 401T1032 588Q1032 625 1026 662T1005 731T961 780T889 799Q827 799 791 764T733 674T704 549T696 410V338Z" />
<glyph unicode="&#xe7;" glyph-name="ccedilla" horiz-adv-x="662" d="M51 412Q51 506 74 589T143 731T252 825T399 860Q438 860 476 851T542 822T588 771T606 698Q606 645 574 605T479 565Q414 565 385 605T356 709H422Q422 678 434 653T481 627Q506 627 523
642T541 696Q541 748 500 773T399 799Q297 799 241 701T184 410Q184 348 191 281T221 155T285 58T395 20Q455 20 493 48T555 119T587 213T596 311H662Q662 262 651 204T612 94T537 6T418 -39L379 -111Q424 -111 463 -122T530 -157T575 -222T592 -319Q592 -412 540
-468T401 -524Q342 -524 294 -489T246 -377Q246 -299 294 -266T414 -233V-295Q375 -295 343 -311T311 -377Q311 -412 335 -437T406 -463Q467 -463 496 -420T526 -319Q526 -258 493 -215T373 -172H309V-111L350 -39Q193 -27 122 95T51 412Z" />
<glyph unicode="&#xe8;" glyph-name="egrave" horiz-adv-x="731" d="M51 410Q51 504 72 587T136 730T240 825T385 860Q508 860 580 787T653 598Q653 520 626 460T547 358T426 297T272 276H190Q197 231 209 186T243 105T303 44T395 20Q459 20 499 47T562 116T595
210T604 311H670Q670 242 655 179T605 66T517 -12T385 -41Q223 -41 137 70T51 410ZM184 338H260Q373 338 446 401T520 588Q520 625 514 662T493 731T450 780T377 799Q315 799 278 762T220 669T192 543T184 410V338ZM149 1202L450 956L409 905L108 1151L149 1202Z"
/>
<glyph unicode="&#xe9;" glyph-name="eacute" horiz-adv-x="731" d="M51 410Q51 504 72 587T136 730T240 825T385 860Q508 860 580 787T653 598Q653 520 626 460T547 358T426 297T272 276H190Q197 231 209 186T243 105T303 44T395 20Q459 20 499 47T562 116T595
210T604 311H670Q670 242 655 179T605 66T517 -12T385 -41Q223 -41 137 70T51 410ZM184 338H260Q373 338 446 401T520 588Q520 625 514 662T493 731T450 780T377 799Q315 799 278 762T220 669T192 543T184 410V338ZM674 1151L373 905L336 952L637 1198L674 1151Z"
/>
<glyph unicode="&#xea;" glyph-name="ecircumflex" horiz-adv-x="731" d="M51 410Q51 504 72 587T136 730T240 825T385 860Q508 860 580 787T653 598Q653 520 626 460T547 358T426 297T272 276H190Q197 231 209 186T243 105T303 44T395 20Q459 20 499 47T562 116T595
210T604 311H670Q670 242 655 179T605 66T517 -12T385 -41Q223 -41 137 70T51 410ZM184 338H260Q373 338 446 401T520 588Q520 625 514 662T493 731T450 780T377 799Q315 799 278 762T220 669T192 543T184 410V338ZM627 973L584 924L383 1098L176 924L136 971L385
1184L627 973Z" />
<glyph unicode="&#xeb;" glyph-name="edieresis" horiz-adv-x="731" d="M51 410Q51 504 72 587T136 730T240 825T385 860Q508 860 580 787T653 598Q653 520 626 460T547 358T426 297T272 276H190Q197 231 209 186T243 105T303 44T395 20Q459 20 499 47T562 116T595
210T604 311H670Q670 242 655 179T605 66T517 -12T385 -41Q223 -41 137 70T51 410ZM184 338H260Q373 338 446 401T520 588Q520 625 514 662T493 731T450 780T377 799Q315 799 278 762T220 669T192 543T184 410V338ZM251 1139Q286 1139 312 1113T338 1053Q338 1016
312 992T251 967Q215 967 190 991T165 1053Q165 1087 190 1113T251 1139ZM489 1139Q524 1139 549 1113T575 1053Q575 1016 550 992T489 967Q452 967 428 991T403 1053Q403 1087 427 1113T489 1139Z" />
<glyph unicode="&#xec;" glyph-name="igrave" horiz-adv-x="541" d="M123 664H102Q96 629 69 597T0 565V627Q31 635 53 658T91 710T114 768T123 819H256V395Q256 326 258 264T268 150Q279 88 304 54T371 20Q406 20 426 39T457 90T472 157T475 223V311H541V227Q541
170 532 121T501 36T444 -20T352 -41Q295 -41 247 -18T170 59Q141 111 132 185T123 395V664ZM-69 1202L232 956L191 905L-110 1151L-69 1202Z" />
<glyph unicode="&#xed;" glyph-name="iacute" horiz-adv-x="541" d="M123 664H102Q96 629 69 597T0 565V627Q31 635 53 658T91 710T114 768T123 819H256V395Q256 326 258 264T268 150Q279 88 304 54T371 20Q406 20 426 39T457 90T472 157T475 223V311H541V227Q541
170 532 121T501 36T444 -20T352 -41Q295 -41 247 -18T170 59Q141 111 132 185T123 395V664ZM495 1151L194 905L157 952L458 1198L495 1151Z" />
<glyph unicode="&#xee;" glyph-name="icircumflex" horiz-adv-x="541" d="M123 664H102Q96 629 69 597T0 565V627Q31 635 53 658T91 710T114 768T123 819H256V395Q256 326 258 264T268 150Q279 88 304 54T371 20Q406 20 426 39T457 90T472 157T475 223V311H541V227Q541
170 532 121T501 36T444 -20T352 -41Q295 -41 247 -18T170 59Q141 111 132 185T123 395V664ZM689 973L646 924L445 1098L238 924L198 971L447 1184L689 973Z" />
<glyph unicode="&#xef;" glyph-name="idieresis" horiz-adv-x="541" d="M123 664H102Q96 629 69 597T0 565V627Q31 635 53 658T91 710T114 768T123 819H256V395Q256 326 258 264T268 150Q279 88 304 54T371 20Q406 20 426 39T457 90T472 157T475 223V311H541V227Q541
170 532 121T501 36T444 -20T352 -41Q295 -41 247 -18T170 59Q141 111 132 185T123 395V664ZM330 1139Q365 1139 391 1113T417 1053Q417 1016 391 992T330 967Q294 967 269 991T244 1053Q244 1087 269 1113T330 1139ZM568 1139Q603 1139 628 1113T654 1053Q654
1016 629 992T568 967Q531 967 507 991T482 1053Q482 1087 506 1113T568 1139Z" />
<glyph unicode="&#xf0;" glyph-name="eth" horiz-adv-x="762" d="M379 799Q184 799 184 412Q184 219 231 120T377 20Q473 20 523 118T573 408Q573 600 522 699T379 799ZM637 1298L498 1212Q549 1143 589 1063T655 899T696 728T711 559Q711 426 700 331T655 160Q610
53 538 6T373 -41Q217 -41 134 68T51 408Q51 492 67 572T120 717T214 821T358 860Q436 860 483 821T553 733H573Q571 762 560 811T529 919T479 1042T412 1161L258 1067L225 1118L377 1210Q330 1276 281 1321T182 1411L225 1468Q274 1438 336 1385T459 1262L604
1350L637 1298Z" />
<glyph unicode="&#xf1;" glyph-name="ntilde" horiz-adv-x="1022" d="M276 733Q315 793 369 826T492 860Q621 860 679 786T737 582V395Q737 326 739 264T750 150Q760 88 785 54T852 20Q887 20 907 39T939 90T953 157T956 223V311H1022V227Q1022 170 1013 121T983
36T925 -20T834 -41Q776 -41 728 -18T651 59Q623 111 614 185T604 395V582Q604 625 597 665T573 734T526 781T449 799Q397 799 361 767T301 688Q285 653 277 614T263 535T257 455T256 385Q256 326 256 283T258 198T263 110T270 0H137Q127 131 125 241T123 436V664H102Q96
629 69 597T0 565V627Q31 635 53 658T91 710T114 768T123 819H256V733H276ZM565 969Q526 969 498 985T445 1021T395 1058T340 1075Q307 1075 291 1046T274 979H209Q209 1044 245 1090T340 1137Q381 1137 410 1121T465 1084T513 1047T565 1030Q598 1030 614 1060T630
1126H696Q696 1061 660 1015T565 969Z" />
<glyph unicode="&#xf2;" glyph-name="ograve" horiz-adv-x="758" d="M707 410Q707 195 621 77T379 -41Q225 -41 138 77T51 410Q51 625 138 742T379 860Q469 860 531 821T633 719T689 575T707 410ZM573 410Q573 469 567 536T542 662T483 760T381 799Q334 799 311
772T287 707Q287 666 304 647T346 627Q381 627 391 652T401 709H467Q467 647 442 606T350 565Q303 565 272 594T240 672Q240 688 246 714T270 766H250Q215 719 200 621T184 410Q184 338 193 269T224 144T284 54T379 20Q471 20 522 116T573 410ZM127 1202L428 956L387
905L86 1151L127 1202Z" />
<glyph unicode="&#xf3;" glyph-name="oacute" horiz-adv-x="758" d="M707 410Q707 195 621 77T379 -41Q225 -41 138 77T51 410Q51 625 138 742T379 860Q469 860 531 821T633 719T689 575T707 410ZM573 410Q573 469 567 536T542 662T483 760T381 799Q334 799 311
772T287 707Q287 666 304 647T346 627Q381 627 391 652T401 709H467Q467 647 442 606T350 565Q303 565 272 594T240 672Q240 688 246 714T270 766H250Q215 719 200 621T184 410Q184 338 193 269T224 144T284 54T379 20Q471 20 522 116T573 410ZM674 1151L373 905L336
952L637 1198L674 1151Z" />
<glyph unicode="&#xf4;" glyph-name="ocircumflex" horiz-adv-x="758" d="M707 410Q707 195 621 77T379 -41Q225 -41 138 77T51 410Q51 625 138 742T379 860Q469 860 531 821T633 719T689 575T707 410ZM573 410Q573 469 567 536T542 662T483 760T381 799Q334 799
311 772T287 707Q287 666 304 647T346 627Q381 627 391 652T401 709H467Q467 647 442 606T350 565Q303 565 272 594T240 672Q240 688 246 714T270 766H250Q215 719 200 621T184 410Q184 338 193 269T224 144T284 54T379 20Q471 20 522 116T573 410ZM625 973L582
924L381 1098L174 924L134 971L383 1184L625 973Z" />
<glyph unicode="&#xf5;" glyph-name="otilde" horiz-adv-x="758" d="M707 410Q707 195 621 77T379 -41Q225 -41 138 77T51 410Q51 625 138 742T379 860Q469 860 531 821T633 719T689 575T707 410ZM573 410Q573 469 567 536T542 662T483 760T381 799Q334 799 311
772T287 707Q287 666 304 647T346 627Q381 627 391 652T401 709H467Q467 647 442 606T350 565Q303 565 272 594T240 672Q240 688 246 714T270 766H250Q215 719 200 621T184 410Q184 338 193 269T224 144T284 54T379 20Q471 20 522 116T573 410ZM506 969Q467 969
439 985T386 1021T336 1058T281 1075Q248 1075 232 1046T215 979H150Q150 1044 186 1090T281 1137Q322 1137 351 1121T406 1084T454 1047T506 1030Q539 1030 555 1060T571 1126H637Q637 1061 601 1015T506 969Z" />
<glyph unicode="&#xf6;" glyph-name="odieresis" horiz-adv-x="758" d="M707 410Q707 195 621 77T379 -41Q225 -41 138 77T51 410Q51 625 138 742T379 860Q469 860 531 821T633 719T689 575T707 410ZM573 410Q573 469 567 536T542 662T483 760T381 799Q334 799
311 772T287 707Q287 666 304 647T346 627Q381 627 391 652T401 709H467Q467 647 442 606T350 565Q303 565 272 594T240 672Q240 688 246 714T270 766H250Q215 719 200 621T184 410Q184 338 193 269T224 144T284 54T379 20Q471 20 522 116T573 410ZM258 1139Q293
1139 319 1113T345 1053Q345 1016 319 992T258 967Q222 967 197 991T172 1053Q172 1087 197 1113T258 1139ZM496 1139Q531 1139 556 1113T582 1053Q582 1016 557 992T496 967Q459 967 435 991T410 1053Q410 1087 434 1113T496 1139Z" />
<glyph unicode="&#xf7;" glyph-name="divide" horiz-adv-x="512" d="M150 289Q150 334 180 364T256 395Q301 395 331 365T362 289Q362 244 332 213T256 182Q211 182 181 213T150 289ZM150 719Q150 764 180 794T256 825Q301 825 331 795T362 719Q362 674 332 643T256
612Q211 612 181 643T150 719ZM502 471H10V532H502V471Z" />
<glyph unicode="&#xf8;" glyph-name="oslash" horiz-adv-x="758" d="M379 860Q444 860 508 834L535 901H600L561 803Q707 692 707 408Q707 193 621 76T379 -41Q309 -41 250 -14L223 -84H158L197 16Q51 127 51 408Q51 625 138 742T379 860ZM379 799Q184 799 184
412Q184 215 233 117L479 760Q436 799 379 799ZM573 408Q573 598 522 700L276 57Q319 20 379 20Q475 20 524 118T573 408Z" />
<glyph unicode="&#xf9;" glyph-name="ugrave" horiz-adv-x="1055" d="M770 395Q770 342 770 304T772 238T775 188T780 145Q788 92 813 56T885 20Q920 20 940 40T972 92T986 158T989 223V311H1055V225Q1055 170 1047 122T1017 37T959 -20T864 -41Q778 -41 725 9T657
141H637Q614 63 561 11T414 -41Q342 -41 282 -12T186 76Q152 133 138 210T123 395V664H102Q96 629 69 597T0 565V627Q31 635 53 658T91 710T114 768T123 819H256V395Q256 283 265 218T301 104Q324 63 360 42T444 20Q496 20 532 49T592 129T626 247T637 395V664H616Q610
629 580 597T508 565V627Q539 635 562 658T603 710T629 768T637 819H770V395ZM209 1202L510 956L469 905L168 1151L209 1202Z" />
<glyph unicode="&#xfa;" glyph-name="uacute" horiz-adv-x="1055" d="M770 395Q770 342 770 304T772 238T775 188T780 145Q788 92 813 56T885 20Q920 20 940 40T972 92T986 158T989 223V311H1055V225Q1055 170 1047 122T1017 37T959 -20T864 -41Q778 -41 725 9T657
141H637Q614 63 561 11T414 -41Q342 -41 282 -12T186 76Q152 133 138 210T123 395V664H102Q96 629 69 597T0 565V627Q31 635 53 658T91 710T114 768T123 819H256V395Q256 283 265 218T301 104Q324 63 360 42T444 20Q496 20 532 49T592 129T626 247T637 395V664H616Q610
629 580 597T508 565V627Q539 635 562 658T603 710T629 768T637 819H770V395ZM762 1151L461 905L424 952L725 1198L762 1151Z" />
<glyph unicode="&#xfb;" glyph-name="ucircumflex" horiz-adv-x="1055" d="M770 395Q770 342 770 304T772 238T775 188T780 145Q788 92 813 56T885 20Q920 20 940 40T972 92T986 158T989 223V311H1055V225Q1055 170 1047 122T1017 37T959 -20T864 -41Q778 -41
725 9T657 141H637Q614 63 561 11T414 -41Q342 -41 282 -12T186 76Q152 133 138 210T123 395V664H102Q96 629 69 597T0 565V627Q31 635 53 658T91 710T114 768T123 819H256V395Q256 283 265 218T301 104Q324 63 360 42T444 20Q496 20 532 49T592 129T626 247T637
395V664H616Q610 629 580 597T508 565V627Q539 635 562 658T603 710T629 768T637 819H770V395ZM700 973L657 924L456 1098L249 924L209 971L458 1184L700 973Z" />
<glyph unicode="&#xfc;" glyph-name="udieresis" horiz-adv-x="1055" d="M770 395Q770 342 770 304T772 238T775 188T780 145Q788 92 813 56T885 20Q920 20 940 40T972 92T986 158T989 223V311H1055V225Q1055 170 1047 122T1017 37T959 -20T864 -41Q778 -41 725
9T657 141H637Q614 63 561 11T414 -41Q342 -41 282 -12T186 76Q152 133 138 210T123 395V664H102Q96 629 69 597T0 565V627Q31 635 53 658T91 710T114 768T123 819H256V395Q256 283 265 218T301 104Q324 63 360 42T444 20Q496 20 532 49T592 129T626 247T637 395V664H616Q610
629 580 597T508 565V627Q539 635 562 658T603 710T629 768T637 819H770V395ZM323 1139Q358 1139 384 1113T410 1053Q410 1016 384 992T323 967Q287 967 262 991T237 1053Q237 1087 262 1113T323 1139ZM561 1139Q596 1139 621 1113T647 1053Q647 1016 622 992T561
967Q524 967 500 991T475 1053Q475 1087 499 1113T561 1139Z" />
<glyph unicode="&#xfd;" glyph-name="yacute" horiz-adv-x="938" d="M637 664H616Q610 629 583 597T514 565V627Q547 637 570 660T608 711T630 768T637 819H770V90Q817 137 844 184T872 291V311H938V293Q938 207 890 140T770 10V-14Q770 -76 768 -144T759 -281T738
-414T700 -532Q666 -612 605 -664T461 -717Q377 -717 331 -664T285 -512Q285 -428 319 -356T408 -221T528 -105T657 -4V141H637Q618 63 561 11T410 -41Q328 -41 274 -9T186 80T138 217T123 395V664H102Q96 629 69 597T0 565V627Q31 635 53 658T91 710T114 768T123
819H256V395Q256 326 261 260T284 140T340 53T440 20Q492 20 529 49T590 129T625 247T637 395V664ZM350 -512Q350 -584 383 -619T463 -655Q518 -655 556 -619T616 -516Q647 -422 652 -318T657 -133V-78Q602 -121 547 -167T449 -265T378 -378T350 -512ZM723 1151L422
905L385 952L686 1198L723 1151Z" />
<glyph unicode="&#xfe;" glyph-name="thorn" horiz-adv-x="829" d="M451 799Q352 799 304 700T256 408Q256 217 305 119T451 20Q549 20 597 119T645 412Q645 799 451 799ZM123 1524H102Q96 1489 69 1457T0 1425V1487Q31 1495 53 1518T91 1570T114 1628T123 1679H256V733H276Q315
797 370 828T492 860Q633 860 705 743T778 408Q778 276 746 179T653 27Q614 -8 570 -24T467 -41Q428 -41 392 -27T329 12T282 69T256 141H236Q238 61 242 -53T252 -288T265 -522T279 -717H145Q141 -653 137 -547T130 -321T125 -83T123 123V1524Z" />
<glyph unicode="&#xff;" glyph-name="ydieresis" horiz-adv-x="938" d="M637 664H616Q610 629 583 597T514 565V627Q547 637 570 660T608 711T630 768T637 819H770V90Q817 137 844 184T872 291V311H938V293Q938 207 890 140T770 10V-14Q770 -76 768 -144T759 -281T738
-414T700 -532Q666 -612 605 -664T461 -717Q377 -717 331 -664T285 -512Q285 -428 319 -356T408 -221T528 -105T657 -4V141H637Q618 63 561 11T410 -41Q328 -41 274 -9T186 80T138 217T123 395V664H102Q96 629 69 597T0 565V627Q31 635 53 658T91 710T114 768T123
819H256V395Q256 326 261 260T284 140T340 53T440 20Q492 20 529 49T590 129T625 247T637 395V664ZM350 -512Q350 -584 383 -619T463 -655Q518 -655 556 -619T616 -516Q647 -422 652 -318T657 -133V-78Q602 -121 547 -167T449 -265T378 -378T350 -512ZM313 1139Q348
1139 374 1113T400 1053Q400 1016 374 992T313 967Q277 967 252 991T227 1053Q227 1087 252 1113T313 1139ZM551 1139Q586 1139 611 1113T637 1053Q637 1016 612 992T551 967Q514 967 490 991T465 1053Q465 1087 489 1113T551 1139Z" />
<glyph unicode="&#x2013;" glyph-name="endash" horiz-adv-x="645" d="M563 471H82V532H563V471Z" />
<glyph unicode="&#x2014;" glyph-name="emdash" horiz-adv-x="901" d="M819 471H82V532H819V471Z" />
<glyph unicode="&#x2018;" glyph-name="quoteleft" horiz-adv-x="410" d="M311 1458Q311 1410 283 1379T208 1347Q161 1347 130 1383T98 1488Q98 1585 142 1652T264 1720V1658Q210 1656 173 1613T135 1517H155Q178 1560 227 1560Q268 1560 289 1533T311 1458Z" />
<glyph unicode="&#x2019;" glyph-name="quoteright" horiz-adv-x="410" d="M98 1609Q98 1657 126 1688T201 1720Q248 1720 279 1684T311 1579Q311 1482 267 1415T145 1347V1409Q199 1411 236 1454T274 1550H254Q231 1507 182 1507Q141 1507 120 1534T98 1609Z" />
<glyph unicode="&#x201a;" glyph-name="quotesinglbase" horiz-adv-x="410" d="M98 61Q98 109 126 140T201 172Q248 172 279 136T311 31Q311 -66 267 -133T145 -201V-139Q199 -137 236 -94T274 2H254Q231 -41 182 -41Q141 -41 120 -14T98 61Z" />
<glyph unicode="&#x201c;" glyph-name="quotedblleft" horiz-adv-x="676" d="M311 1458Q311 1410 283 1379T208 1347Q161 1347 130 1383T98 1488Q98 1585 142 1652T264 1720V1658Q210 1656 173 1613T135 1517H155Q178 1560 227 1560Q268 1560 289 1533T311 1458ZM578
1458Q578 1410 550 1379T475 1347Q428 1347 397 1383T365 1488Q365 1585 409 1652T531 1720V1658Q477 1656 440 1613T402 1517H422Q445 1560 494 1560Q535 1560 556 1533T578 1458Z" />
<glyph unicode="&#x201d;" glyph-name="quotedblright" horiz-adv-x="676" d="M98 1609Q98 1657 126 1688T201 1720Q248 1720 279 1684T311 1579Q311 1482 267 1415T145 1347V1409Q199 1411 236 1454T274 1550H254Q231 1507 182 1507Q141 1507 120 1534T98 1609ZM365
1609Q365 1657 393 1688T468 1720Q515 1720 546 1684T578 1579Q578 1482 534 1415T412 1347V1409Q466 1411 503 1454T541 1550H521Q498 1507 449 1507Q408 1507 387 1534T365 1609Z" />
<glyph unicode="&#x201e;" glyph-name="quotedblbase" horiz-adv-x="676" d="M98 61Q98 109 126 140T201 172Q248 172 279 136T311 31Q311 -66 267 -133T145 -201V-139Q199 -137 236 -94T274 2H254Q231 -41 182 -41Q141 -41 120 -14T98 61ZM365 61Q365 109 393
140T468 172Q515 172 546 136T578 31Q578 -66 534 -133T412 -201V-139Q466 -137 503 -94T541 2H521Q498 -41 449 -41Q408 -41 387 -14T365 61Z" />
<glyph unicode="&#x2022;" glyph-name="bullet" horiz-adv-x="606" d="M98 442Q98 528 157 587T303 647Q389 647 448 588T508 442Q508 356 449 297T303 238Q217 238 158 297T98 442Z" />
<glyph unicode="&#x2039;" glyph-name="guilsinglleft" horiz-adv-x="588" d="M545 907L586 868L150 401L588 -66L541 -111L61 397L545 907Z" />
<glyph unicode="&#x203a;" glyph-name="guilsinglright" horiz-adv-x="588" d="M43 -110L2 -71L438 396L0 863L47 908L527 400L43 -110Z" />
</font>
</defs>
</svg>
