<?xml version="1.0" standalone="no"?>
<!DOCTYPE svg PUBLIC "-//W3C//DTD SVG 1.1//EN" "http://www.w3.org/Graphics/SVG/1.1/DTD/svg11.dtd">
<svg xmlns="http://www.w3.org/2000/svg">
<defs >
<font id="GoblinOne" horiz-adv-x="1653" ><font-face
    font-family="Goblin One"
    units-per-em="2048"
    panose-1="2 10 9 2 7 4 0 6 7 4"
    ascent="1920"
    descent="-640"
    alphabetic="0" />
<glyph unicode=" " glyph-name="space" horiz-adv-x="618" />
<glyph unicode="!" glyph-name="exclam" horiz-adv-x="739" d="M231 598Q223 640 215 702T197 840T178 1000T160 1174T144 1351T131 1522H608Q603 1440 596 1352T580 1174T562 1000T543 840T524 703T508 598H231ZM120 210Q120 262 139 307T192 387T271 440T369
460Q421 460 466 441T546 387T599 308T619 210Q619 158 600 113T546 34T467 -19T369 -39Q317 -39 272 -20T193 33T140 112T120 210Z" />
<glyph unicode="&quot;" glyph-name="quotedbl" horiz-adv-x="1118" d="M753 1106Q743 1132 729 1172T701 1259T672 1356T646 1452T627 1536T620 1596Q620 1640 634 1671T673 1723T731 1753T804 1763Q843 1763 876 1754T935 1724T974 1672T988 1596Q988 1574 981
1536T963 1452T937 1356T908 1259T879 1172T855 1106H753ZM263 1106Q253 1132 239 1172T211 1259T182 1356T156 1452T137 1536T130 1596Q130 1640 144 1671T183 1723T241 1753T314 1763Q353 1763 386 1754T445 1724T484 1672T498 1596Q498 1574 491 1536T473 1452T447
1356T418 1259T389 1172T365 1106H263Z" />
<glyph unicode="#" glyph-name="numbersign" horiz-adv-x="1908" d="M453 370H130V578H511L590 860H223V1068H649L752 1434H973L869 1068H1199L1302 1434H1523L1419 1068H1763V860H1360L1281 578H1670V370H1222L1118 0H899L1003 370H672L568 0H349L453 370ZM1061
578L1140 860H810L731 578H1061Z" />
<glyph unicode="$" glyph-name="dollar" horiz-adv-x="1944" d="M165 489Q262 425 369 370T590 273T825 209T1071 185Q1119 185 1163 191T1241 210T1295 246T1316 301Q1316 330 1299 359T1234 416T1098 466T872 508Q686 532 549 570T322 667T188 809T144 1006Q144
1115 193 1201T336 1348T562 1440T862 1472Q879 1472 901 1471T936 1468L958 1710H1178L1153 1438Q1219 1426 1281 1410T1394 1377L1590 1485H1727V1005Q1620 1068 1512 1116T1297 1196T1089 1245T895 1262Q835 1262 787 1253T705 1229T653 1194T635 1150Q635 1117
653 1091T723 1041T869 997T1115 950Q1216 933 1308 914T1479 869T1621 805T1730 716T1799 594T1824 431Q1824 307 1764 218T1602 72T1365 -12T1079 -39Q1065 -39 1051 -39T1018 -37L996 -285H770L799 -9Q727 6 658 29T522 86L362 -14H165V489Z" />
<glyph unicode="%" glyph-name="percent" horiz-adv-x="2029" d="M525 771Q453 771 381 791T250 853T156 961T120 1121Q120 1213 156 1279T250 1388T380 1451T525 1472Q597 1472 669 1452T800 1389T894 1280T931 1121Q931 1029 895 963T800 855T670 792T525 771ZM1409
1434H1720L615 0H306L1409 1434ZM525 898Q597 898 631 956T666 1121Q666 1231 634 1290T525 1350Q452 1350 418 1291T384 1121Q384 1012 418 955T525 898ZM1098 311Q1098 403 1134 469T1228 578T1358 641T1503 662Q1575 662 1647 642T1778 579T1872 470T1909 311Q1909
219 1873 153T1778 45T1648 -18T1503 -39Q1431 -39 1359 -19T1228 43T1134 151T1098 311ZM1362 311Q1362 202 1396 145T1503 88Q1575 88 1609 146T1644 311Q1644 421 1612 480T1503 540Q1430 540 1396 481T1362 311Z" />
<glyph unicode="&amp;" glyph-name="ampersand" horiz-adv-x="2299" d="M110 345Q110 419 150 478T259 582T415 657T601 706Q491 791 435 876T378 1058Q378 1128 404 1186T477 1290T589 1370T731 1427T894 1461T1072 1472Q1226 1472 1348 1445T1556 1369T1686
1251T1731 1098Q1731 1023 1696 960T1597 848T1442 770T1240 731Q1333 684 1432 639T1632 549Q1637 584 1639 620T1642 694Q1642 730 1639 766L2043 630Q2043 501 2011 399Q2086 371 2153 349T2279 310L2007 -39Q1946 -19 1876 11T1728 78Q1599 15 1424 -12T1027
-39Q902 -39 785 -31T567 -5T381 42T237 114T143 214T110 345ZM1043 839Q1102 855 1151 877T1235 929T1289 997T1309 1085Q1309 1127 1293 1159T1246 1215T1173 1250T1078 1262Q1019 1262 974 1248T897 1209T849 1151T833 1079Q833 1017 889 958T1043 839ZM618
399Q618 355 637 321T689 262T768 220T866 193T974 178T1085 173Q1194 173 1276 189T1420 236Q1299 300 1180 365T947 492Q903 515 863 537T786 582Q749 567 719 547T666 504T631 455T618 399Z" />
<glyph unicode="&apos;" glyph-name="quotesingle" horiz-adv-x="628" d="M263 1106Q253 1132 239 1172T211 1259T182 1356T156 1452T137 1536T130 1596Q130 1640 144 1671T183 1723T241 1753T314 1763Q353 1763 386 1754T445 1724T484 1672T498 1596Q498 1574
491 1536T473 1452T447 1356T418 1259T389 1172T365 1106H263Z" />
<glyph unicode="(" glyph-name="parenleft" horiz-adv-x="912" d="M110 717Q110 855 137 976T213 1199T328 1382T471 1522T632 1616T803 1660L852 1527Q765 1494 700 1414T591 1225T526 984T504 717Q504 582 525 451T590 209T699 20T852 -93L803 -226Q717 -217
633 -182T471 -89T328 51T214 234T138 457T110 717Z" />
<glyph unicode=")" glyph-name="parenright" horiz-adv-x="912" d="M60 -93Q147 -60 212 19T320 209T386 450T408 717Q408 852 386 983T321 1224T212 1414T60 1527L109 1660Q194 1651 279 1616T441 1523T584 1383T698 1200T774 977T802 717Q802 579 775 458T699
235T584 52T441 -88T279 -182T109 -226L60 -93Z" />
<glyph unicode="*" glyph-name="asterisk" horiz-adv-x="938" d="M468 931Q442 931 418 939T376 962T346 998T334 1046Q334 1057 344 1092T368 1174T399 1269T430 1359Q402 1327 368 1288T301 1213T243 1151T209 1120Q195 1112 182 1109T154 1105Q119 1105 89
1125T40 1178Q20 1212 20 1254Q20 1283 33 1309T74 1353Q83 1358 118 1367T200 1386T298 1407T391 1425Q349 1433 298 1443T200 1463T118 1483T74 1498Q45 1514 32 1540T19 1595Q19 1636 40 1672Q58 1704 89 1725T155 1746Q182 1746 208 1731Q217 1726 242 1700T300
1639T367 1564T430 1492Q416 1532 399 1581T368 1677T344 1758T334 1804Q334 1831 345 1852T375 1889T418 1912T468 1920Q493 1920 517 1912T561 1889T592 1853T604 1804Q604 1793 594 1758T570 1677T538 1582T507 1492Q535 1524 569 1563T636 1639T693 1701T729
1733Q742 1741 755 1744T780 1747Q816 1747 847 1726T896 1673Q917 1635 917 1595Q917 1566 905 1540T864 1499Q854 1493 819 1484T736 1465T638 1444T545 1425Q586 1417 637 1407T736 1387T818 1367T864 1353Q892 1337 905 1311T918 1256Q918 1217 896 1179Q877
1147 847 1126T783 1105Q755 1105 730 1120Q721 1126 695 1152T637 1213T570 1288T507 1359Q521 1319 538 1270T569 1174T594 1093T604 1046Q604 1019 593 998T562 962T518 939T468 931Z" />
<glyph unicode="+" glyph-name="plus" horiz-adv-x="1294" d="M526 609H143V851H526V1234H768V851H1151V609H768V227H526V609Z" />
<glyph unicode="," glyph-name="comma" horiz-adv-x="748" d="M120 203Q121 258 138 305T188 386T267 440T370 460Q427 460 474 440T555 383T609 295T628 180Q628 20 555 -110T339 -337L235 -278Q286 -217 319 -155T371 -31Q366 -32 351 -32Q303 -32 261 -15T187
34T138 109T120 203Z" />
<glyph unicode="-" glyph-name="hyphen" horiz-adv-x="1294" d="M143 851H1151V609H143V851Z" />
<glyph unicode="." glyph-name="period" horiz-adv-x="739" d="M120 210Q120 262 139 307T192 387T271 440T369 460Q421 460 466 441T546 387T599 308T619 210Q619 158 600 113T546 34T467 -19T369 -39Q317 -39 272 -20T193 33T140 112T120 210Z" />
<glyph unicode="/" glyph-name="slash" horiz-adv-x="910" d="M551 1569H822L357 -151H88L551 1569Z" />
<glyph unicode="0" glyph-name="zero" horiz-adv-x="2026" d="M140 717Q140 849 175 956T273 1147T420 1292T600 1393T802 1452T1012 1472Q1116 1472 1221 1453T1424 1393T1605 1292T1752 1147T1850 956T1886 717Q1886 585 1851 478T1753 287T1606 142T1424 40T1222
-19T1012 -39Q908 -39 803 -20T601 38T420 138T274 283T176 475T140 717ZM708 717Q708 599 726 499T782 324T877 208T1012 166Q1090 166 1147 209T1243 326T1299 500T1318 717Q1318 834 1301 936T1246 1114T1151 1233T1012 1277Q934 1277 877 1234T783 1115T727
937T708 717Z" />
<glyph unicode="1" glyph-name="one" horiz-adv-x="1135" d="M342 254V1080L60 1244L670 1434H849V254L1120 0H71L342 254Z" />
<glyph unicode="2" glyph-name="two" horiz-adv-x="1906" d="M204 0Q181 55 166 113T150 241Q150 325 174 390T239 505T337 591T459 655T596 701T739 737Q857 763 948 785T1101 837T1195 909T1227 1019Q1227 1080 1204 1125T1141 1199T1046 1243T929 1258Q855
1258 800 1241T707 1186T650 1086T631 934H186Q182 958 180 986T178 1036Q178 1123 207 1189T289 1304T414 1385T574 1436T759 1464T960 1472Q1167 1472 1318 1441T1568 1351T1713 1207T1761 1011Q1761 936 1734 877T1659 771T1548 688T1411 624T1258 576T1102
539Q1006 519 924 497T783 448T689 387T655 306Q655 296 656 285T659 264H1322L1727 619V0H204Z" />
<glyph unicode="3" glyph-name="three" horiz-adv-x="1983" d="M135 385Q135 409 136 437T143 492H619Q619 327 716 246T999 164Q1067 164 1124 176T1222 216T1287 286T1310 393Q1310 470 1273 516T1170 588T1013 621T811 629L838 789Q922 789 992 800T1113 839T1191
910T1219 1019Q1219 1143 1148 1205T952 1268Q819 1268 750 1191T680 951H206Q201 961 199 987T196 1036Q196 1120 230 1185T321 1299T454 1381T614 1434T786 1463T954 1472Q1164 1472 1320 1443T1579 1357T1732 1218T1783 1028Q1783 977 1764 937T1712 865T1636
810T1543 770T1442 744T1342 730Q1395 730 1455 725T1574 708T1687 672T1782 613T1848 526T1873 405Q1873 301 1809 219T1624 79T1334 -8T954 -39Q855 -39 756 -31T566 -3T396 49T259 128T168 238T135 385Z" />
<glyph unicode="4" glyph-name="four" horiz-adv-x="1959" d="M20 486L895 1434H1498V576H1889V370H1498V254L1769 0H680L991 254V370H20V486ZM991 576V1188L473 576H991Z" />
<glyph unicode="5" glyph-name="five" horiz-adv-x="1962" d="M160 359Q160 371 161 383T165 408L654 465Q640 451 633 428T626 379Q626 341 643 299T697 221T793 162T937 139Q1014 139 1077 156T1184 210T1253 300T1278 429Q1278 511 1250 567T1172 657T1054
705T908 720Q830 720 757 706T618 669T499 621T405 570L202 655L282 1434Q358 1430 463 1426T690 1418T944 1412T1205 1410Q1293 1410 1377 1411T1533 1415T1663 1422T1758 1434Q1763 1417 1765 1399T1768 1362Q1768 1271 1750 1212T1691 1117T1582 1067T1415 1053Q1275
1053 1157 1072T930 1114Q877 1126 826 1136T723 1155T621 1169T517 1174Q517 1173 515 1155T510 1108T503 1042T495 964T486 883T478 809Q534 837 610 862T771 905T946 934T1121 945Q1203 945 1289 938T1458 910T1612 857T1739 772T1825 648T1857 480Q1857 352
1788 255T1596 93T1305 -5T941 -39Q773 -39 630 -14T383 60T219 185T160 359Z" />
<glyph unicode="6" glyph-name="six" horiz-adv-x="1922" d="M127 693Q127 859 184 1001T356 1248T642 1412T1041 1472Q1128 1472 1215 1465T1381 1442T1529 1401T1647 1339T1726 1256T1755 1148Q1755 1133 1752 1117T1744 1086L1332 1027Q1337 1042 1339 1058T1341
1097Q1341 1123 1322 1153T1263 1208T1167 1249T1034 1266Q933 1266 862 1239T744 1157T677 1021T656 833Q703 854 760 870T882 898T1014 915T1150 921Q1231 921 1312 911T1468 877T1608 819T1720 736T1795 624T1823 483Q1823 388 1792 312T1706 178T1574 79T1407
12T1215 -27T1008 -39Q127 -39 127 693ZM660 629Q663 526 685 439T749 288T856 188T1008 152Q1081 152 1135 173T1225 233T1277 324T1295 443Q1295 504 1276 552T1219 634T1129 686T1008 704Q928 704 836 684T660 629Z" />
<glyph unicode="7" glyph-name="seven" horiz-adv-x="1791" d="M435 98Q435 167 456 231T515 357T603 475T712 586T831 693T954 795Q1023 852 1086 906T1197 1014T1276 1121T1309 1227L595 1171L170 791L200 1479L434 1434H1666Q1681 1380 1681 1325Q1681 1255
1660 1184T1602 1042T1519 901T1421 761Q1362 681 1306 602T1205 445T1133 291T1105 141Q1105 88 1122 57T1177 0H459Q446 24 441 44T435 98Z" />
<glyph unicode="8" glyph-name="eight" horiz-adv-x="1878" d="M100 351Q100 421 134 474T224 565T354 629T507 668Q437 697 377 733T272 815T202 918T176 1046Q176 1126 208 1188T295 1298T424 1379T582 1432T756 1462T933 1472Q1089 1472 1225 1450T1461 1382T1620
1268T1678 1106Q1678 1051 1655 1006T1592 926T1496 864T1374 821Q1456 799 1529 767T1657 686T1745 574T1778 422Q1778 300 1717 213T1544 70T1276 -13T929 -40Q735 -40 582 -11T321 70T157 194T100 351ZM691 1079Q691 1030 726 998T820 943T957 905T1121 874Q1293
921 1293 1075Q1293 1129 1263 1165T1186 1222T1084 1252T979 1261Q916 1261 863 1248T772 1210T712 1152T691 1079ZM528 420Q528 365 564 321T660 245T798 196T962 179Q1045 179 1112 187T1226 216T1298 269T1323 350Q1323 384 1295 411T1217 460T1100 500T957
536Q897 550 835 565T710 599Q670 587 637 569T579 529T542 479T528 420Z" />
<glyph unicode="9" glyph-name="nine" horiz-adv-x="1935" d="M167 285Q167 300 170 316T178 347L594 406Q590 388 588 372T585 336Q585 310 601 280T655 225T751 184T898 167Q999 167 1069 194T1183 276T1246 412T1266 600Q1219 579 1163 563T1045 535T916 518T782
512Q701 512 620 522T464 556T324 614T212 697T137 809T109 950Q109 1045 140 1121T226 1255T358 1354T525 1421T717 1460T924 1472Q1366 1472 1580 1290T1795 740Q1795 574 1739 432T1571 185T1289 21T891 -39Q803 -39 716 -32T548 -9T398 32T277 94T197 177T167
285ZM924 729Q1004 729 1091 749T1262 804Q1259 907 1239 992T1178 1138T1075 1233T924 1267Q777 1267 707 1193T637 990Q637 929 656 881T713 799T803 747T924 729Z" />
<glyph unicode=":" glyph-name="colon" horiz-adv-x="739" d="M369 647Q317 647 272 666T193 719T140 798T120 896Q120 948 139 993T192 1073T271 1126T369 1146Q421 1146 466 1127T546 1073T599 994T619 896Q619 844 600 799T546 720T467 667T369 647ZM120 210Q120
262 139 307T192 387T271 440T369 460Q421 460 466 441T546 387T599 308T619 210Q619 158 600 113T546 34T467 -19T369 -39Q317 -39 272 -20T193 33T140 112T120 210Z" />
<glyph unicode=";" glyph-name="semicolon" horiz-adv-x="748" d="M369 647Q317 647 272 666T193 719T140 798T120 896Q120 948 139 993T192 1073T271 1126T369 1146Q421 1146 466 1127T546 1073T599 994T619 896Q619 844 600 799T546 720T467 667T369 647ZM120
203Q121 258 138 305T188 386T267 440T370 460Q427 460 474 440T555 383T609 295T628 180Q628 20 555 -110T339 -337L235 -278Q286 -217 319 -155T371 -31Q366 -32 351 -32Q303 -32 261 -15T187 34T138 109T120 203Z" />
<glyph unicode="&lt;" glyph-name="less" horiz-adv-x="982" d="M132 730L668 1266L839 1094L475 730L839 366L668 195L132 730Z" />
<glyph unicode="=" glyph-name="equal" horiz-adv-x="1294" d="M143 1071H1151V829H143V1071ZM143 521H1151V279H143V521Z" />
<glyph unicode="&gt;" glyph-name="greater" horiz-adv-x="982" d="M143 366L507 730L143 1094L314 1266L850 730L314 195L143 366Z" />
<glyph unicode="?" glyph-name="question" horiz-adv-x="1766" d="M690 597Q681 620 677 641T673 682Q673 728 695 762T752 823T833 871T926 910T1019 946T1100 985T1158 1033T1180 1096Q1180 1143 1155 1178T1087 1238T991 1274T878 1286Q808 1286 744 1270T630
1217T551 1123T521 982Q521 962 523 940T532 895L134 972Q130 996 128 1019T126 1064Q126 1148 154 1212T232 1325T351 1407T501 1461T673 1491T858 1500Q1033 1500 1179 1478T1431 1410T1596 1292T1655 1121Q1655 1051 1628 1001T1557 914T1457 852T1341 806T1226
770T1125 734T1054 692T1027 634Q1027 615 1034 597H690ZM621 210Q621 262 640 307T693 387T772 440T870 460Q922 460 967 441T1047 387T1100 308T1120 210Q1120 158 1101 113T1047 34T968 -19T870 -39Q818 -39 773 -20T694 33T641 112T621 210Z" />
<glyph unicode="@" glyph-name="at" horiz-adv-x="2911" d="M126 381Q126 532 169 669T297 923T505 1134T786 1296T1138 1399T1556 1435Q1861 1435 2091 1377T2476 1218T2707 980T2785 685Q2785 533 2733 409T2586 197T2360 61T2069 12Q1884 12 1785 51T1656 176Q1581
93 1454 49T1127 4Q1026 4 937 29T781 106T675 234T636 414Q636 522 675 612T781 774T938 899T1130 989T1340 1042T1554 1060Q1650 1060 1741 1050T1919 1016T2086 950T2241 846L2124 283Q2123 278 2123 273T2123 263Q2123 221 2150 200T2234 179Q2321 179 2389
223T2505 338T2578 496T2603 668Q2603 821 2525 936T2307 1129T1972 1246T1544 1285Q1342 1285 1174 1252T871 1160T635 1019T467 839T366 629T332 399Q332 245 391 126T581 -76T922 -200T1434 -243Q1511 -243 1600 -239T1783 -227T1969 -208T2146 -181T2301 -148T2422
-108L2478 -214Q2432 -243 2331 -274T2087 -332T1767 -375T1390 -392Q1049 -392 809 -337T417 -180T196 64T126 381ZM1136 409Q1136 368 1149 331T1190 266T1256 222T1348 205Q1391 205 1432 216T1507 247T1568 297T1609 365Q1667 523 1691 618T1715 742Q1715 766
1702 791T1663 836T1597 870T1503 884Q1424 884 1357 848T1241 748T1164 597T1136 409Z" />
<glyph unicode="A" glyph-name="A" horiz-adv-x="2126" d="M234 251L705 1189L490 1434H1662L1481 1180L1903 253L2166 0H1116L1334 251L1291 356H631L584 251L871 0H-60L234 251ZM1207 565L978 1129L725 565H1207Z" />
<glyph unicode="B" glyph-name="B" horiz-adv-x="2108" d="M341 254V1180L31 1434Q104 1435 195 1435T383 1437T577 1438T760 1439T915 1440T1025 1441Q1120 1441 1224 1437T1428 1420T1619 1380T1778 1309T1887 1199T1928 1041Q1928 962 1901 907T1823 815T1699
758T1531 727Q1641 716 1731 694T1884 634T1983 536T2018 393Q2018 301 1978 236T1869 126T1710 55T1519 15T1314 -3T1115 -7Q1070 -7 995 -7T825 -6T626 -5T415 -3T210 -2T30 0L341 254ZM994 819Q1025 819 1066 820T1151 826T1237 843T1313 876T1367 931T1388
1012Q1388 1082 1352 1124T1258 1188T1130 1218T994 1225H868V819H994ZM1064 209Q1109 209 1157 210T1251 219T1338 239T1411 278T1460 340T1478 430Q1478 487 1453 526T1377 589T1247 624T1064 635H868V209H1064Z" />
<glyph unicode="C" glyph-name="C" horiz-adv-x="2054" d="M90 717Q90 850 129 958T237 1150T400 1294T604 1394T837 1453T1084 1472Q1176 1472 1258 1461T1411 1432T1543 1389T1651 1339L1724 1434H1933V926L1668 876Q1644 957 1597 1027T1484 1148T1335 1228T1153
1258Q1027 1258 937 1214T790 1095T705 922T678 717Q678 586 716 485T824 316T987 212T1195 177Q1283 177 1361 199T1498 268T1595 386T1641 554H1947Q1947 459 1917 378T1831 231T1697 115T1523 30T1317 -21T1085 -39Q971 -39 853 -24T624 27T416 119T247 261T132
458T90 717Z" />
<glyph unicode="D" glyph-name="D" horiz-adv-x="2154" d="M341 254V1180L31 1434Q108 1435 207 1435T413 1437T630 1438T837 1439T1012 1440T1135 1441Q1311 1441 1452 1423T1700 1362Q1795 1324 1864 1264T1977 1126T2043 958T2064 767Q2064 582 1995 438T1798
195T1492 45T1095 -7Q1066 -7 1001 -7T847 -7T653 -5T439 -4T225 -2T30 0L341 254ZM1064 209Q1188 209 1271 249T1404 361T1475 534T1496 757Q1496 869 1468 956T1387 1103T1258 1194T1084 1225H868V209H1064Z" />
<glyph unicode="E" glyph-name="E" horiz-adv-x="1972" d="M311 254V1180L30 1434H1847L1827 938L1428 1205H838V874H1440V654H838V229H1428L1837 473V0H30L311 254Z" />
<glyph unicode="F" glyph-name="F" horiz-adv-x="1949" d="M311 254V1180L30 1434H1887L1867 938L1468 1205H838V774H1480V554H838V254L1249 0H30L311 254Z" />
<glyph unicode="G" glyph-name="G" horiz-adv-x="2154" d="M90 689Q90 819 127 928T230 1124T387 1276T588 1385T821 1450T1074 1472Q1152 1472 1230 1462T1383 1434T1524 1391T1649 1336L1725 1434H1949V946H1695Q1653 1021 1594 1079T1463 1177T1311 1237T1145
1258Q1052 1258 968 1226T821 1128T721 961T684 720Q684 587 724 486T833 316T991 212T1182 177Q1270 177 1334 189T1450 234V484L1159 764H1962V0H1725L1670 100Q1611 62 1544 36T1404 -7T1254 -31T1098 -39Q963 -39 836 -23T596 28T391 120T231 257T127 445T90
689Z" />
<glyph unicode="H" glyph-name="H" horiz-adv-x="2206" d="M311 254V1181L30 1434H828V886H1378V1434H2157L1895 1180V254L2176 0H1378V677H828V0H30L311 254Z" />
<glyph unicode="I" glyph-name="I" horiz-adv-x="1101" d="M292 1180L60 1434H809V254L1041 0H292V1180Z" />
<glyph unicode="J" glyph-name="J" horiz-adv-x="1209" d="M130 168Q172 156 206 151T282 146Q332 146 377 152T457 183T511 256T531 387V1180L279 1434H1038V347Q1038 237 1009 158T922 27T779 -49T580 -74Q499 -74 428 -65T297 -40T194 -4T125 38L130 168Z" />
<glyph unicode="K" glyph-name="K" horiz-adv-x="2060" d="M311 254V1181L30 1434H1000L828 1181V750L1393 1180L1240 1434H2090L1375 873L1835 254L2110 0H1208L1294 138L991 572L828 443V254L1040 0H30L311 254Z" />
<glyph unicode="L" glyph-name="L" horiz-adv-x="1837" d="M311 254V1180L30 1434H1219L838 1180V229H1368L1777 583V0H30L311 254Z" />
<glyph unicode="M" glyph-name="M" horiz-adv-x="2465" d="M303 253V1144L5 1434H729L1230 662L1681 1434H2450L2138 1190V254L2429 0H1351L1631 254V771L1201 0H1056L575 763V253L876 0H42L303 253Z" />
<glyph unicode="N" glyph-name="N" horiz-adv-x="2113" d="M313 254V1152L5 1434H769L1575 714V1180L1295 1434H2098L1847 1180V0H1575L585 904V254L886 0H42L313 254Z" />
<glyph unicode="O" glyph-name="O" horiz-adv-x="2066" d="M90 717Q90 855 130 965T240 1159T402 1302T599 1399T815 1454T1032 1472Q1148 1472 1263 1455T1483 1400T1678 1303T1834 1159T1938 965T1976 717Q1976 581 1937 472T1830 279T1671 135T1475 36T1257
-21T1032 -39Q921 -39 808 -22T591 32T395 128T236 271T129 465T90 717ZM678 717Q678 599 704 499T777 324T889 208T1032 166Q1110 166 1175 209T1287 326T1361 500T1388 717Q1388 834 1363 936T1292 1114T1179 1233T1032 1277Q954 1277 889 1234T777 1115T704
937T678 717Z" />
<glyph unicode="P" glyph-name="P" horiz-adv-x="2065" d="M341 254V1180L31 1434Q127 1435 235 1436T452 1437T668 1439T865 1440T1027 1441T1139 1441Q1240 1441 1343 1435T1541 1410T1719 1361T1863 1278T1959 1155T1995 985Q1995 879 1965 801T1876 667T1736
576T1548 521T1319 494T1053 486Q1015 486 967 487T868 490V254L1279 0H30L341 254ZM994 709Q1118 709 1201 720T1334 762T1405 844T1426 977Q1426 1058 1398 1107T1317 1182T1188 1217T1014 1225H868V709H994Z" />
<glyph unicode="Q" glyph-name="Q" horiz-adv-x="2066" d="M90 717Q90 855 129 965T235 1159T394 1302T590 1399T808 1454T1032 1472Q1143 1472 1256 1455T1474 1400T1670 1303T1830 1159T1937 965T1976 717Q1976 583 1940 477T1840 287T1690 144T1504 45Q1506
10 1513 -19T1538 -70T1585 -104T1662 -116Q1676 -116 1698 -115T1744 -112T1794 -105T1841 -96L1806 -404Q1777 -410 1746 -415T1683 -423T1622 -427T1571 -429Q1473 -429 1401 -400T1281 -319T1209 -193T1183 -31Q1145 -35 1108 -37T1032 -39Q921 -39 808 -22T591
32T395 128T236 271T129 465T90 717ZM743 387Q800 433 881 459T1060 486Q1145 486 1210 463T1327 401Q1356 468 1372 548T1388 717Q1388 834 1363 936T1292 1114T1179 1233T1032 1277Q954 1277 889 1234T777 1115T704 937T678 717Q678 622 694 539T743 387ZM827
259Q869 214 920 190T1032 166Q1108 166 1173 208Q1153 262 1103 290T993 318Q948 318 904 304T827 259Z" />
<glyph unicode="R" glyph-name="R" horiz-adv-x="2186" d="M341 254V1180L31 1434Q125 1435 226 1436T427 1437T622 1439T800 1440T952 1441T1065 1441Q1160 1441 1264 1437T1468 1420T1659 1380T1818 1309T1927 1199T1968 1041Q1968 971 1943 915T1872 815T1759
738T1612 681Q1675 672 1730 639T1827 554T1891 436T1915 292V234L2196 0H1212L1364 213V336Q1364 388 1349 431T1308 506T1248 555T1175 573H868V254L1049 0H30L341 254ZM1014 769Q1119 769 1197 778T1326 812T1403 881T1428 994Q1428 1047 1410 1085T1361 1148T1289
1189T1201 1212T1107 1222T1014 1225H868V769H1014Z" />
<glyph unicode="S" glyph-name="S" horiz-adv-x="1944" d="M182 489Q279 425 386 370T607 273T842 209T1088 185Q1136 185 1180 191T1258 210T1312 246T1333 301Q1333 330 1316 359T1251 416T1115 466T889 508Q703 532 566 570T339 667T205 809T161 1006Q161 1115
210 1201T353 1348T579 1440T879 1472Q948 1472 1018 1465T1156 1444T1289 1414T1411 1377L1607 1485H1744V1005Q1637 1068 1529 1116T1314 1196T1106 1245T912 1262Q852 1262 804 1253T722 1229T670 1194T652 1150Q652 1117 670 1091T740 1041T886 997T1132 950Q1233
933 1325 914T1496 869T1638 805T1747 716T1816 594T1841 431Q1841 307 1781 218T1619 72T1382 -12T1096 -39Q956 -39 813 -10T539 86L379 -14H182V489Z" />
<glyph unicode="T" glyph-name="T" horiz-adv-x="1838" d="M654 253V1234H453L75 814L54 1434H649L654 1430V1434H1784L1763 814L1375 1234H1181V253L1535 0H312L654 253Z" />
<glyph unicode="U" glyph-name="U" horiz-adv-x="2027" d="M291 1181L10 1434H1062L808 1181V727Q808 583 829 484T894 322T1002 232T1154 204Q1207 204 1253 212T1337 243T1405 303T1455 399T1487 538T1498 727V1180L1280 1434H2037L1781 1180V667Q1781 526 1758
419T1692 233T1587 102T1447 19T1277 -26T1081 -39Q863 -39 712 5T468 137T333 358T291 667V1181Z" />
<glyph unicode="V" glyph-name="V" horiz-adv-x="1979" d="M285 1181L-42 1434H987L831 1212L1140 413L1393 1204L1227 1434H2037L1739 1201L1278 0H779L285 1181Z" />
<glyph unicode="W" glyph-name="W" horiz-adv-x="2669" d="M210 1207L-40 1434H889L762 1198L992 363L1185 1200L1050 1434H1889L1759 1192L1972 353L2179 1193L2050 1434H2729L2504 1230L2140 0H1581L1386 783L1220 0H631L210 1207Z" />
<glyph unicode="X" glyph-name="X" horiz-adv-x="2091" d="M424 322L751 694L392 1150L14 1434H1022L926 1298L1156 986L1366 1256L1183 1434H2078L1646 1119L1345 762L1719 286L2101 0H1095L1190 136L935 471L703 178L885 0H-10L424 322Z" />
<glyph unicode="Y" glyph-name="Y" horiz-adv-x="1939" d="M731 254V450L258 1191L-40 1434H949L814 1242L1092 743L1318 1233L1154 1434H1999L1656 1184L1238 450V254L1508 0H479L731 254Z" />
<glyph unicode="Z" glyph-name="Z" horiz-adv-x="1838" d="M914 1205H466L159 787V1434H1738L889 229H1422L1729 647V0H50L914 1205Z" />
<glyph unicode="[" glyph-name="bracketleft" horiz-adv-x="974" d="M230 1658H894V1465H578V-32H894V-225H230V1658Z" />
<glyph unicode="\" glyph-name="backslash" horiz-adv-x="910" d="M88 1569H359L822 -151H553L88 1569Z" />
<glyph unicode="]" glyph-name="bracketright" horiz-adv-x="974" d="M396 -32V1465H80V1658H744V-225H80V-32H396Z" />
<glyph unicode="^" glyph-name="asciicircum" horiz-adv-x="1443" d="M81 460L722 1472L1362 460L1153 329L723 1059L291 329L81 460Z" />
<glyph unicode="_" glyph-name="underscore" horiz-adv-x="1508" d="M1528 -72V-294H-20V-72H1528Z" />
<glyph unicode="`" glyph-name="grave" horiz-adv-x="1016" d="M100 1624H601L911 1208H700L100 1624Z" />
<glyph unicode="a" glyph-name="a" horiz-adv-x="1764" d="M94 258Q94 338 127 396T216 496T347 564T506 604T678 624T851 630Q898 630 950 629T1056 625Q1054 697 1044 753T1009 848T941 907T829 928Q785 928 742 917T664 882T605 821T573 729L172 784Q172 852
199 905T275 999T388 1068T529 1113T687 1138T852 1146Q951 1146 1041 1138T1210 1107T1351 1048T1460 954T1529 818T1554 634V282Q1554 202 1593 170T1701 138V23Q1692 14 1671 4T1615 -16T1533 -32T1425 -39Q1351 -39 1292 -32T1190 -6T1117 45T1073 126Q1023
82 960 51T827 0T682 -29T535 -39Q487 -39 436 -34T336 -17T243 17T166 72T114 151T94 258ZM611 302Q611 275 625 253T663 216T719 193T787 185Q824 185 869 193T954 222T1024 274T1057 354V456Q1043 457 1031 457T1007 457Q900 457 825 447T703 416T633 367T611
302Z" />
<glyph unicode="b" glyph-name="b" horiz-adv-x="1970" d="M311 244V1330L49 1554L788 1584V922Q859 1036 974 1091T1236 1146Q1391 1146 1509 1099T1708 969T1829 776T1870 540Q1870 428 1834 324T1722 139T1528 10T1243 -39Q1091 -39 975 13T788 177V0H40L311
244ZM788 553Q788 463 812 400T876 298T965 240T1066 222Q1127 222 1178 243T1266 305T1323 409T1344 553Q1344 635 1324 698T1266 805T1178 871T1066 893Q1012 893 962 875T874 816T812 711T788 553Z" />
<glyph unicode="c" glyph-name="c" horiz-adv-x="1729" d="M100 562Q100 704 161 813T331 996T586 1108T904 1146Q1068 1146 1188 1114T1388 1033L1597 1154V670L1347 640Q1328 704 1295 759T1216 854T1110 916T981 939Q917 939 854 921T740 860T658 744T626 562Q626
470 658 401T744 286T867 216T1010 193Q1073 193 1143 200T1282 229T1413 287T1521 383L1623 303Q1593 227 1531 164T1380 56T1180 -14T941 -39Q741 -39 585 0T321 115T157 303T100 562Z" />
<glyph unicode="d" glyph-name="d" horiz-adv-x="1950" d="M100 540Q100 670 143 780T267 972T461 1099T714 1146Q786 1146 854 1134T982 1095T1093 1026T1182 924V1330L920 1554L1659 1584V244L1930 0H1182V183Q1111 70 998 16T744 -39Q574 -39 452 8T252 134T137
319T100 540ZM626 553Q626 471 646 409T704 306T792 243T904 222Q955 222 1004 240T1093 297T1157 400T1182 553Q1182 646 1159 710T1097 815T1008 874T904 893Q843 893 792 871T704 806T647 699T626 553Z" />
<glyph unicode="e" glyph-name="e" horiz-adv-x="1709" d="M100 537Q100 659 135 752T231 912T372 1025T544 1097T731 1135T919 1146Q1064 1146 1189 1114T1407 1011T1551 825T1604 543H627Q631 439 662 372T744 265T858 209T990 193Q1051 193 1122 200T1264 226T1400
280T1513 369L1615 289Q1590 228 1545 180T1442 96T1317 34T1178 -8T1036 -31T900 -39Q717 -39 570 -1T318 110T157 291T100 537ZM1120 699Q1120 773 1107 823T1066 905T999 949T904 963Q790 963 723 894T635 699H1120Z" />
<glyph unicode="f" glyph-name="f" horiz-adv-x="1282" d="M311 244V903H49V1107H311V1238Q311 1366 364 1462T509 1623T718 1719T968 1751Q1017 1751 1076 1747T1194 1732T1309 1699T1408 1645T1477 1563T1503 1449Q1503 1441 1503 1432T1501 1415L1134 1320Q1136
1334 1137 1347T1138 1373Q1138 1412 1127 1444T1094 1501T1041 1538T970 1552Q908 1552 872 1522T817 1438T793 1314T788 1161V1107H1159V903H788V244L1159 0H40L311 244Z" />
<glyph unicode="g" glyph-name="g" horiz-adv-x="1764" d="M40 -212Q40 -168 67 -132T140 -67T247 -16T376 21Q318 33 271 50T191 90T139 142T120 206Q120 247 145 279T211 336T303 375T405 396Q351 421 307 455T231 530T182 621T164 729Q164 833 220 911T368
1042T577 1120T817 1146Q930 1146 1038 1124T1236 1057Q1247 1115 1278 1157T1351 1226T1444 1266T1545 1279Q1609 1279 1660 1265T1747 1223T1802 1151T1822 1051Q1822 1030 1818 1007T1805 957L1550 899Q1553 920 1553 939Q1553 973 1544 996T1521 1035T1489
1056T1453 1063Q1413 1063 1388 1040T1352 981Q1408 932 1439 870T1471 729Q1471 625 1415 547T1266 417T1055 338T814 312Q657 312 517 353Q506 345 500 336T493 316Q493 291 516 273T598 242T755 223T1004 217Q1210 217 1349 198T1574 139T1695 40T1732 -98Q1732
-202 1671 -273T1493 -390T1209 -455T829 -475Q649 -475 504 -459T255 -411T96 -329T40 -212ZM590 729Q590 670 608 627T657 556T729 515T817 502Q863 502 904 516T977 558T1026 628T1044 729Q1044 789 1027 833T980 906T908 949T817 963Q771 963 730 949T657 906T608
833T590 729ZM530 -127Q530 -161 543 -191T593 -243T691 -277T853 -290Q927 -290 1003 -286T1142 -268T1243 -229T1282 -161Q1282 -119 1259 -90T1177 -44T1015 -18T755 -10Q717 -10 680 -9T606 -6Q571 -27 551 -58T530 -127Z" />
<glyph unicode="h" glyph-name="h" horiz-adv-x="1997" d="M311 244V1330L49 1554L788 1584V901Q863 1019 980 1082T1247 1146Q1363 1146 1453 1111T1605 1005T1699 829T1731 584V244L2002 0H1070L1254 244V563Q1254 627 1242 684T1205 784T1139 852T1043 877Q987
877 940 853T859 782T807 668T788 513V244L972 0H40L311 244Z" />
<glyph unicode="i" glyph-name="i" horiz-adv-x="1055" d="M522 1235Q468 1235 421 1255T338 1311T283 1393T262 1495Q262 1549 282 1596T338 1679T420 1735T522 1756Q576 1756 623 1736T706 1680T762 1597T783 1495Q783 1441 763 1394T707 1311T624 1256T522
1235ZM311 244V853L49 1077L778 1107V244L1049 0H40L311 244Z" />
<glyph unicode="j" glyph-name="j" horiz-adv-x="1058" d="M582 1235Q528 1235 481 1255T398 1311T343 1393T322 1495Q322 1549 342 1596T398 1679T480 1735T582 1756Q636 1756 683 1736T766 1680T822 1597T843 1495Q843 1441 823 1394T767 1311T684 1256T582
1235ZM115 -59Q103 -101 103 -137Q103 -175 112 -209T140 -270T183 -311T241 -327Q284 -327 311 -302T354 -235T375 -138T381 -20V853L119 1077L848 1107V-66Q848 -191 804 -281T684 -428T509 -513T298 -540Q218 -540 140 -518T0 -452T-101 -345T-140 -198Q-140
-188 -140 -179T-138 -159L115 -59Z" />
<glyph unicode="k" glyph-name="k" horiz-adv-x="1861" d="M311 244V1330L49 1554L778 1584V596L1153 885L986 1107H1768L1209 679L1698 144L1882 0H1010L1114 146L877 424L778 348V214L942 0H40L311 244Z" />
<glyph unicode="l" glyph-name="l" horiz-adv-x="1069" d="M311 244V1330L49 1554L778 1584V244L1049 0H40L311 244Z" />
<glyph unicode="m" glyph-name="m" horiz-adv-x="2807" d="M311 244V853L49 1077L768 1107V901Q843 1019 960 1082T1227 1146Q1393 1146 1492 1075T1636 860Q1708 997 1833 1071T2119 1146Q2235 1146 2317 1111T2452 1005T2529 829T2553 584V240L2554 244L2805
0H1923L2096 242V563Q2096 627 2089 684T2062 784T2007 852T1915 877Q1822 877 1757 813T1670 629Q1670 618 1670 607T1671 584V244L1855 0H1020L1204 244V563Q1204 627 1197 684T1170 784T1115 852T1023 877Q967 877 920 853T839 782T787 668T768 513V244L952
0H40L311 244Z" />
<glyph unicode="n" glyph-name="n" horiz-adv-x="1997" d="M311 244V853L49 1077L788 1107V890Q860 1013 977 1079T1247 1146Q1363 1146 1453 1111T1605 1005T1699 829T1731 584V244L2002 0H1070L1254 244V563Q1254 627 1242 684T1205 784T1139 852T1043 877Q987
877 940 853T859 782T807 668T788 513V244L972 0H40L311 244Z" />
<glyph unicode="o" glyph-name="o" horiz-adv-x="1848" d="M100 553Q100 704 161 815T333 1000T594 1110T924 1146Q1103 1146 1254 1110T1515 1001T1686 816T1748 553Q1748 396 1687 284T1515 100T1254 -5T924 -39Q745 -39 594 -6T333 100T162 284T100 553ZM626
553Q626 461 649 386T713 259T808 178T924 149Q985 149 1039 177T1134 258T1198 386T1222 553Q1222 646 1199 722T1135 852T1040 936T924 966Q863 966 809 936T714 852T650 722T626 553Z" />
<glyph unicode="p" glyph-name="p" horiz-adv-x="1970" d="M311 833L40 1077L788 1107V922Q859 1036 974 1091T1236 1146Q1391 1146 1509 1099T1708 969T1829 776T1870 540Q1870 428 1834 324T1722 139T1528 10T1243 -39Q1091 -39 975 13T788 177V-192L1159 -436H40L311
-192V833ZM788 553Q788 463 812 400T876 298T965 240T1066 222Q1127 222 1178 243T1266 305T1323 409T1344 553Q1344 635 1324 698T1266 805T1178 871T1066 893Q1012 893 962 875T874 816T812 711T788 553Z" />
<glyph unicode="q" glyph-name="q" horiz-adv-x="1900" d="M100 544Q100 692 150 804T288 993T495 1107T751 1146Q831 1146 906 1132T1051 1086T1180 1003T1289 877L1659 1107V-192L1930 -436H811L1182 -192V184Q1148 123 1100 81T995 12T874 -27T744 -39Q573
-39 451 8T251 135T137 321T100 544ZM626 553Q626 471 646 409T704 306T792 243T904 222Q955 222 1004 240T1093 297T1157 400T1182 553Q1182 646 1159 710T1097 815T1008 874T904 893Q843 893 792 871T704 806T647 699T626 553Z" />
<glyph unicode="r" glyph-name="r" horiz-adv-x="1559" d="M311 244V853L49 1077L788 1107V895Q827 957 877 1004T985 1082T1105 1130T1231 1146Q1314 1146 1374 1118T1474 1040T1532 920T1551 770Q1551 744 1549 717T1541 664L1176 631Q1180 647 1180 661T1181
690Q1181 731 1172 765T1144 823T1097 861T1030 875Q990 875 957 859T897 816T850 754T816 680T795 602T788 529V254L1136 0H50L311 244Z" />
<glyph unicode="s" glyph-name="s" horiz-adv-x="1661" d="M179 408Q255 358 342 316T524 242T716 192T912 174Q949 174 985 179T1050 194T1096 222T1114 265Q1114 286 1101 302T1049 333T943 358T764 378Q690 384 615 393T471 420T341 464T236 530T165 625T139
754Q139 850 185 923T309 1045T492 1120T712 1146Q837 1146 959 1117T1202 1032L1464 1140V744Q1381 793 1293 830T1117 893T946 930T790 943Q742 943 703 936T636 917T592 889T576 855Q576 837 589 823T643 797T758 773T954 749Q1073 737 1182 714T1376 648T1510
538T1560 369Q1560 296 1534 237T1462 133T1357 56T1230 2T1091 -29T953 -39Q821 -39 692 -6T441 91L179 -26V408Z" />
<glyph unicode="t" glyph-name="t" horiz-adv-x="1399" d="M232 903H60V1058Q131 1058 193 1078T307 1134T401 1215T472 1313T516 1418T532 1522H729V1107H1220V903H729V454Q729 361 751 306T809 223T887 187T970 179Q1072 179 1131 237T1191 417Q1191 426 1191
436T1189 457L1361 406Q1364 379 1364 355Q1364 282 1341 224T1278 123T1184 48T1067 -2T938 -30T805 -39Q674 -39 568 -13T388 70T273 217T232 437V903Z" />
<glyph unicode="u" glyph-name="u" horiz-adv-x="1958" d="M255 833L-16 1077L732 1107V544Q732 480 744 423T781 323T847 255T943 230Q999 230 1046 254T1126 324T1179 439T1198 594V833L934 1077L1675 1107V237L1937 13L1198 -17V205Q1123 87 1006 24T739 -39Q506
-39 381 102T255 523V833Z" />
<glyph unicode="v" glyph-name="v" horiz-adv-x="1829" d="M234 852L-48 1107H864L753 949L1022 252L1231 908L1075 1107H1864L1605 900L1235 0H666L234 852Z" />
<glyph unicode="w" glyph-name="w" horiz-adv-x="2723" d="M196 851L-86 1107H813L696 941L936 213L1135 934L1014 1107H1823L1706 941L1946 213L2145 934L2024 1107H2743L2503 874L2184 0H1575L1365 524L1174 0H565L196 851Z" />
<glyph unicode="x" glyph-name="x" horiz-adv-x="1759" d="M324 237L599 575L342 859L-10 1107H859L781 995L986 761L1137 982L1050 1107H1769L1432 873L1164 544L1435 245L1769 0H920L997 111L781 355L612 123L699 0H-10L324 237Z" />
<glyph unicode="y" glyph-name="y" horiz-adv-x="1752" d="M471 67Q459 23 459 -19Q459 -67 472 -110T514 -187T588 -239T700 -259Q755 -259 797 -238T870 -181T923 -98T958 0H641L255 890L0 1107H889L772 941L1012 213L1211 934L1090 1107H1819L1584 914L1250
0Q1197 -146 1132 -238T989 -383T818 -455T616 -475Q486 -475 385 -447T213 -366T107 -239T70 -71Q70 -48 73 -21T81 27L471 67Z" />
<glyph unicode="z" glyph-name="z" horiz-adv-x="1688" d="M811 893H423L179 575V1107H1578L852 214H1322L1569 552V0H70L811 893Z" />
<glyph unicode="{" glyph-name="braceleft" horiz-adv-x="967" d="M224 180Q224 226 230 271T247 359Q260 415 270 465T280 553Q280 597 259 622T180 648V786Q238 786 259 811T280 881Q280 919 270 969T247 1075Q237 1118 231 1163T224 1254Q224 1302 234 1349T272
1440T344 1520T460 1586T629 1634T858 1660L907 1527Q817 1513 760 1489T669 1431T623 1359T610 1276Q610 1240 616 1202T631 1125Q641 1079 649 1034T657 947Q657 907 646 871T607 805T529 753T402 717Q479 704 528 682T606 629T646 563T657 487Q657 445 649 400T631
309Q623 271 617 233T610 158Q610 114 622 75T668 3T759 -54T907 -93L858 -226Q727 -219 629 -200T461 -152T345 -86T272 -6T235 84T224 180Z" />
<glyph unicode="|" glyph-name="bar" horiz-adv-x="658" d="M230 1758H428V-525H230V1758Z" />
<glyph unicode="}" glyph-name="braceright" horiz-adv-x="967" d="M60 -93Q150 -79 207 -55T298 3T344 75T357 158Q357 194 351 232T336 309Q326 355 318 400T310 487Q310 527 321 563T360 629T438 681T565 717Q488 730 439 752T361 805T321 871T310 947Q310
989 318 1034T336 1125Q344 1163 350 1201T357 1276Q357 1319 345 1358T299 1431T208 1488T60 1527L109 1660Q240 1653 338 1634T506 1586T622 1520T695 1440T732 1350T743 1254Q743 1208 737 1163T720 1075Q707 1019 697 969T687 881Q687 837 708 812T787 786V648Q729
648 708 623T687 553Q687 515 697 465T720 359Q730 316 736 271T743 180Q743 132 733 85T695 -6T623 -86T507 -152T338 -200T109 -226L60 -93Z" />
<glyph unicode="~" glyph-name="asciitilde" horiz-adv-x="1547" d="M94 620Q120 660 164 702T262 780T373 837T484 860Q572 860 658 842T832 803Q913 783 992 768T1150 752Q1170 752 1198 755T1258 766T1318 784T1367 809L1453 734Q1426 694 1382 652T1284 575T1173
518T1063 496Q966 496 875 515T693 557Q616 576 542 590T396 604Q376 604 347 600T288 589T229 570T180 545L94 620Z" />
<glyph unicode="&#xa1;" glyph-name="exclamdown" horiz-adv-x="739" d="M370 538Q318 538 273 557T193 611T140 690T120 788Q120 840 139 885T193 964T272 1017T370 1037Q422 1037 467 1018T546 964T599 885T619 788Q619 736 600 691T546 611T467 558T370 538ZM508
400Q515 358 524 296T542 158T561 -2T579 -176T595 -353T608 -524H131Q136 -442 143 -353T159 -176T177 -3T196 158T214 295T231 400H508Z" />
<glyph unicode="&#xa2;" glyph-name="cent" horiz-adv-x="1754" d="M100 660Q100 788 157 892T314 1071T549 1190T840 1242L861 1528H1081L1060 1235Q1166 1222 1247 1195T1388 1131L1597 1252V768L1347 738Q1328 802 1295 857T1216 952T1110 1014T981 1037Q917
1037 854 1019T740 958T658 842T626 660Q626 568 658 499T744 384T867 314T1010 291Q1073 291 1143 298T1282 327T1413 385T1521 481L1623 401Q1594 327 1535 266T1391 160T1202 89T975 59L954 -235H728L754 69Q598 86 476 132T271 253T144 430T100 660Z" />
<glyph unicode="&#xa3;" glyph-name="sterling" horiz-adv-x="1955" d="M32 232Q32 282 59 330T132 415T241 474T372 497Q420 497 470 494Q457 523 444 552T416 610H140V830H323Q306 878 297 923T287 1013Q287 1134 330 1221T468 1363T712 1445T1073 1472Q1159
1472 1245 1465T1411 1441T1558 1400T1677 1340T1756 1258T1785 1152Q1785 1085 1747 1008L1325 957Q1330 978 1332 999T1334 1045Q1334 1097 1316 1139T1263 1210T1179 1256T1069 1272Q1003 1272 955 1253T876 1200T830 1123T815 1027Q815 980 824 931T847 830H1406V610H901Q906
581 909 553T912 495Q912 457 905 423L1030 394Q1051 389 1081 384T1147 373T1219 364T1289 356T1348 350T1389 348Q1517 348 1586 395T1677 531L1811 509Q1829 451 1837 396T1846 294Q1846 227 1826 167T1758 61T1635 -12T1448 -39Q1373 -39 1289 -23T1118 19T945
78T778 145Q729 63 632 12T392 -39Q330 -39 267 -23T151 27T65 112T32 232ZM249 193Q249 145 285 114T382 82Q419 82 450 93T502 122T536 165T548 217Q548 224 548 230T546 244Q486 270 443 286T378 302Q321 302 285 273T249 193Z" />
<glyph unicode="&#xa4;" glyph-name="currency" horiz-adv-x="1573" d="M271 390Q226 460 202 541T178 714Q178 805 202 886T272 1039L65 1245L255 1433L462 1228Q532 1272 613 1296T784 1320Q874 1320 955 1295T1108 1225L1318 1433L1508 1245L1297 1036Q1342
966 1366 885T1390 714Q1390 625 1366 544T1298 393L1508 186L1318 -2L1110 203Q1039 158 957 133T784 108Q693 108 612 132T460 201L255 -2L65 186L271 390ZM406 714Q406 636 435 567T516 447T636 367T784 337Q862 337 931 366T1051 447T1131 567T1161 714Q1161
792 1132 861T1051 981T931 1061T784 1091Q705 1091 636 1062T516 981T436 861T406 714Z" />
<glyph unicode="&#xa5;" glyph-name="yen" horiz-adv-x="1939" d="M264 422H731V440L667 542H264V742H542L262 1191L-40 1434H949L814 1242L1092 743L1324 1233L1160 1434H1999L1640 1184L1402 742H1730V542H1295L1238 440V422H1730V222H1240L1488 0H499L729 222H264V422Z"
/>
<glyph unicode="&#xa6;" glyph-name="brokenbar" horiz-adv-x="658" d="M230 1758H428V775H230V1758ZM428 458V-525H230V458H428Z" />
<glyph unicode="&#xa7;" glyph-name="section" horiz-adv-x="1741" d="M218 191Q294 141 381 96T563 16T755 -39T951 -60Q988 -60 1024 -55T1089 -40T1135 -12T1153 31Q1153 52 1139 66T1087 93T980 116T803 141Q729 150 655 162T511 192T381 236T275 302T204
394T178 520Q178 623 232 697T376 818Q334 836 300 859T242 915T204 988T190 1080Q190 1176 236 1249T360 1371T543 1446T763 1472Q888 1472 1010 1436T1253 1344L1515 1452V1046Q1432 1095 1344 1136T1168 1206T997 1252T841 1269Q793 1269 754 1262T687 1243T643
1215T627 1181Q627 1163 641 1151T696 1127T811 1105T1005 1077Q1085 1066 1160 1052T1303 1018T1427 969T1524 901T1588 809T1611 690Q1611 635 1596 591T1553 510T1487 447T1403 398Q1448 379 1484 355T1545 297T1585 223T1599 130Q1599 58 1573 0T1501 -103T1396
-180T1268 -232T1130 -263T992 -273Q860 -273 731 -237T480 -136L218 -253V191ZM615 631Q615 610 629 591T684 554T799 520T993 487L1072 476Q1118 487 1141 514T1165 581Q1165 605 1151 626T1099 666T992 701T815 731L706 744Q678 737 661 724T633 695T619 663T615
631Z" />
<glyph unicode="&#xa8;" glyph-name="dieresis" horiz-adv-x="1016" d="M810 1224Q768 1224 731 1239T667 1280T624 1343T608 1421Q608 1463 624 1499T667 1562T731 1604T810 1619Q852 1619 889 1604T954 1563T998 1500T1014 1421Q1014 1379 998 1343T955 1281T890
1239T810 1224ZM204 1224Q162 1224 125 1239T61 1280T18 1343T2 1421Q2 1463 18 1499T61 1562T125 1604T204 1619Q246 1619 283 1604T348 1563T392 1500T408 1421Q408 1379 392 1343T349 1281T284 1239T204 1224Z" />
<glyph unicode="&#xa9;" glyph-name="copyright" horiz-adv-x="1754" d="M56 717Q56 821 85 918T168 1099T296 1252T462 1370T658 1447T876 1474Q989 1474 1094 1447T1290 1371T1456 1252T1584 1099T1667 918T1697 717Q1697 613 1668 516T1585 335T1456 182T1290
64T1094 -13T876 -40Q763 -40 658 -13T462 63T296 182T168 335T86 515T56 717ZM228 713Q228 579 279 461T418 255T624 116T876 65Q1010 65 1128 116T1334 255T1473 461T1524 713Q1524 802 1501 885T1436 1040T1334 1171T1203 1272T1048 1338T876 1361Q787 1361
704 1338T549 1273T418 1171T317 1040T251 885T228 713ZM374 699Q374 783 396 848T457 963T548 1047T658 1102T779 1133T903 1143Q1001 1143 1076 1119T1202 1065L1231 1103H1342V831L1172 802Q1160 848 1140 888T1091 959T1022 1006T931 1023Q865 1023 818 1002T740
940T695 842T680 712Q680 637 699 582T752 490T827 436T914 418Q959 418 1002 428T1078 463T1134 525T1162 619H1342Q1340 537 1302 475T1200 371T1052 308T872 286Q813 286 754 296T639 327T535 381T451 460T395 565T374 699Z" />
<glyph unicode="&#xaa;" glyph-name="ordfeminine" horiz-adv-x="1350" d="M444 884Q398 884 347 896T252 936T179 1010T150 1126Q150 1185 172 1228T231 1303T317 1353T422 1383T534 1398T645 1402Q674 1402 707 1401T774 1398Q772 1447 765 1485T741 1550T699
1590T631 1604Q603 1604 576 1597T527 1572T488 1528T467 1460L180 1507Q180 1557 201 1596T259 1663T344 1711T445 1743T552 1761T657 1766Q750 1766 831 1750T974 1692T1070 1575T1105 1385V1123Q1105 1063 1129 1040T1199 1017V929Q1186 915 1137 900T1009 884Q962
884 925 889T860 907T814 944T785 1004Q754 972 714 950T630 913T538 891T444 884ZM604 1051Q627 1051 656 1057T710 1078T754 1117T775 1176V1273H743Q609 1273 551 1242T493 1156Q493 1136 502 1117T526 1084T561 1060T604 1051Z" />
<glyph unicode="&#xab;" glyph-name="guillemotleft" d="M1437 1121L1563 1045L1258 581L1563 123L1437 47L790 584L1437 1121ZM737 1121L863 1045L558 581L863 123L737 47L90 584L737 1121Z" />
<glyph unicode="&#xac;" glyph-name="logicalnot" horiz-adv-x="1404" d="M143 1234H1254V667H1012V992H143V1234Z" />
<glyph unicode="&#xad;" glyph-name="uni00AD" horiz-adv-x="1368" d="M180 851H1188V609H180V851Z" />
<glyph unicode="&#xae;" glyph-name="registered" horiz-adv-x="1754" d="M56 717Q56 821 85 918T168 1099T296 1252T462 1370T658 1447T876 1474Q989 1474 1094 1447T1290 1371T1456 1252T1584 1099T1667 918T1697 717Q1697 613 1668 516T1585 335T1456 182T1290
64T1094 -13T876 -40Q763 -40 658 -13T462 63T296 182T168 335T86 515T56 717ZM228 713Q228 579 279 461T418 255T624 116T876 65Q1010 65 1128 116T1334 255T1473 461T1524 713Q1524 802 1501 885T1436 1040T1334 1171T1203 1272T1048 1338T876 1361Q787 1361
704 1338T549 1273T418 1171T317 1040T251 885T228 713ZM493 474V972L404 1110Q455 1111 520 1111T651 1112T773 1113T865 1114Q914 1114 967 1112T1072 1103T1170 1081T1252 1042T1308 983T1329 898Q1329 822 1279 776T1144 703Q1177 698 1206 681T1256 636T1289
573T1302 495V463L1376 337H941L1018 450V518Q1018 546 1011 569T990 610T959 636T921 646H763V474L856 337H382L493 474ZM838 752Q892 752 932 757T998 775T1038 811T1051 872Q1051 915 1031 940T980 978T911 994T838 997H763V752H838Z" />
<glyph unicode="&#xaf;" glyph-name="overscore" horiz-adv-x="1016" d="M4 1851H1012V1609H4V1851Z" />
<glyph unicode="&#xb0;" glyph-name="degree" horiz-adv-x="940" d="M469 981Q385 981 311 1013T182 1100T95 1229T63 1387Q63 1471 95 1545T182 1675T311 1763T469 1795Q553 1795 627 1763T757 1676T845 1546T877 1387Q877 1303 845 1229T758 1100T628 1013T469
981ZM469 1172Q514 1172 553 1189T622 1235T669 1303T686 1387Q686 1432 669 1471T623 1540T554 1587T469 1604Q425 1604 386 1587T317 1541T271 1472T254 1387Q254 1343 271 1304T317 1235T385 1189T469 1172Z" />
<glyph unicode="&#xb1;" glyph-name="plusminus" horiz-adv-x="1294" d="M526 719H143V961H526V1344H768V961H1151V719H768V337H526V719ZM143 242H1151V0H143V242Z" />
<glyph unicode="&#xb2;" glyph-name="twosuperior" horiz-adv-x="1375" d="M200 1026Q185 1058 176 1093T167 1170Q167 1241 196 1289T274 1371T383 1424T508 1460T633 1488T742 1521T819 1567T849 1637Q849 1673 835 1700T798 1745T745 1772T683 1781Q589 1781
545 1739T500 1598Q500 1576 508 1546L209 1592Q206 1607 205 1620T204 1648Q204 1701 225 1741T284 1810T371 1858T478 1888T597 1904T718 1909Q963 1909 1088 1837T1213 1632Q1213 1562 1181 1515T1097 1435T977 1382T839 1347T702 1320T582 1293T497 1255T465
1196Q465 1194 465 1191T466 1184H986L1193 1387V1026H200Z" />
<glyph unicode="&#xb3;" glyph-name="threesuperior" horiz-adv-x="1415" d="M690 1003Q631 1003 570 1009T451 1030T343 1065T254 1115T194 1181T172 1265Q172 1278 173 1292T176 1320H506Q506 1225 560 1178T711 1130Q796 1130 840 1165T884 1261Q884 1303 865
1330T809 1374T721 1397T605 1404L620 1500Q729 1500 779 1538T830 1652Q830 1709 797 1748T699 1787Q622 1787 583 1743T543 1598H216Q213 1605 212 1620T210 1648Q210 1698 232 1737T292 1805T379 1854T481 1886T588 1903T690 1909Q944 1909 1078 1841T1212 1643Q1212
1613 1197 1589T1158 1545T1101 1512T1035 1489T966 1473T903 1464Q935 1464 974 1461T1053 1451T1132 1430T1200 1395T1248 1342T1266 1270Q1266 1207 1224 1158T1105 1074T922 1021T690 1003Z" />
<glyph unicode="&#xb4;" glyph-name="acute" horiz-adv-x="1016" d="M415 1624H916L316 1208H105L415 1624Z" />
<glyph unicode="&#xb5;" glyph-name="mu" horiz-adv-x="1932" d="M220 1077L687 1120V576Q687 492 700 425T741 310T815 237T925 212Q988 212 1031 235T1102 298T1141 394T1153 513V1077L1630 1120V237L1892 83L1253 -17L1173 156Q1148 114 1118 85T1053 37T981
9T905 0Q832 0 776 19T687 92V-436H220V1077Z" />
<glyph unicode="&#xb6;" glyph-name="paragraph" horiz-adv-x="1975" d="M772 486Q597 486 467 508T250 584T121 727T78 951Q78 1065 115 1155T234 1309T441 1407T746 1441Q776 1441 820 1441T910 1439T999 1437T1070 1434V500Q1038 497 1001 495T924 490T845
487T772 486ZM1277 -46V1434H1944L1634 1180V-46L1945 -300H896L1277 -46Z" />
<glyph unicode="&#xb7;" glyph-name="middot" horiz-adv-x="739" d="M369 501Q317 501 272 520T193 573T140 652T120 750Q120 802 139 847T192 927T271 980T369 1000Q421 1000 466 981T546 927T599 848T619 750Q619 698 600 653T546 574T467 521T369 501Z" />
<glyph unicode="&#xb8;" glyph-name="cedilla" horiz-adv-x="1016" d="M230 -182Q266 -244 322 -276T463 -309Q484 -309 502 -306T535 -296T558 -276T566 -247Q566 -223 552 -210T515 -189T463 -179T402 -177L435 91L659 43V-91Q720 -91 771 -103T860 -141T918
-203T939 -289Q939 -343 904 -382T813 -447T688 -485T551 -497Q475 -497 403 -486T269 -447T158 -376T77 -264L230 -182Z" />
<glyph unicode="&#xb9;" glyph-name="onesuperior" horiz-adv-x="973" d="M343 1172V1644L164 1748L497 1886H671V1172L834 1026H180L343 1172Z" />
<glyph unicode="&#xba;" glyph-name="ordmasculine" horiz-adv-x="1350" d="M676 884Q559 884 460 909T289 989T176 1126T135 1324Q135 1438 176 1521T289 1659T460 1740T676 1766Q792 1766 890 1740T1061 1660T1173 1522T1214 1324Q1214 1209 1174 1126T1061
989T891 910T676 884ZM676 1034Q715 1034 750 1053T811 1110T852 1202T868 1324Q868 1393 853 1447T811 1540T750 1598T676 1618Q635 1618 600 1598T538 1540T497 1448T481 1324Q481 1256 496 1202T538 1111T599 1054T676 1034Z" />
<glyph unicode="&#xbb;" glyph-name="guillemotright" horiz-adv-x="1633" d="M1074 581L770 1045L896 1121L1543 584L896 47L770 123L1074 581ZM394 581L90 1045L216 1121L863 584L216 47L90 123L394 581Z" />
<glyph unicode="&#xbc;" glyph-name="onequarter" horiz-adv-x="2400" d="M363 695V1257L164 1331L577 1469H691V695L854 549H200L363 695ZM1432 1434H1663L828 0H599L1432 1434ZM1186 312L1722 936H2124V370H2319V219H2124V146L2287 0H1615L1778 146V219H1186V312ZM1778
370V724L1464 370H1778Z" />
<glyph unicode="&#xbd;" glyph-name="onehalf" horiz-adv-x="2607" d="M363 695V1257L164 1331L577 1469H691V695L854 549H200L363 695ZM1460 1434H1691L856 0H627L1460 1434ZM1399 144Q1399 215 1428 265T1506 352T1615 414T1740 459T1865 497T1974 537T2051
588T2081 661Q2081 697 2067 724T2030 769T1977 796T1915 805Q1822 805 1780 763T1738 622Q1738 600 1746 570L1431 616Q1428 631 1427 644T1426 672Q1426 725 1448 765T1508 834T1598 882T1708 912T1828 928T1950 933Q2195 933 2320 861T2445 656Q2445 586 2416
536T2338 450T2229 390T2103 346T1978 310T1868 274T1791 231T1761 170Q1761 168 1761 165T1762 158H2181L2425 361V0H1432Q1417 32 1408 67T1399 144Z" />
<glyph unicode="&#xbe;" glyph-name="threequarters" horiz-adv-x="2744" d="M189 812Q189 825 190 839T193 867H506Q506 820 521 782T565 718T633 677T721 662Q806 662 850 697T894 793Q894 835 875 865T819 916T731 946T615 956L630 1062Q738 1062 789 1107T840
1228Q840 1285 807 1324T709 1363Q632 1363 588 1319T543 1174H243Q240 1181 239 1196T237 1224Q237 1275 257 1313T312 1381T392 1430T488 1462T590 1479T690 1485Q816 1485 913 1467T1075 1415T1174 1333T1208 1224Q1208 1179 1177 1144T1099 1085T1000 1046T903
1027Q935 1027 972 1022T1048 1006T1122 977T1185 934T1229 876T1246 802Q1246 739 1207 690T1095 606T919 553T690 535Q601 535 512 550T351 598T234 683T189 812ZM1740 1434H1971L1136 0H907L1740 1434ZM1509 312L2045 936H2447V370H2642V219H2447V146L2610 0H1938L2101
146V219H1509V312ZM2101 370V724L1787 370H2101Z" />
<glyph unicode="&#xbf;" glyph-name="questiondown" horiz-adv-x="1766" d="M646 787Q646 839 665 884T719 963T798 1016T896 1036Q948 1036 993 1017T1072 963T1125 884T1145 787Q1145 735 1126 690T1072 610T993 557T896 537Q844 537 799 556T719 610T666 689T646
787ZM111 -124Q111 -54 138 -4T209 83T309 145T425 191T540 227T641 263T712 305T739 363Q739 382 732 400H1076Q1085 377 1089 356T1093 315Q1093 254 1056 213T962 141T840 87T718 39T624 -19T586 -99Q586 -146 611 -181T679 -241T775 -277T888 -289Q958 -289
1022 -273T1136 -220T1215 -126T1245 15Q1245 35 1243 57T1234 102L1632 25Q1636 1 1638 -22T1640 -67Q1640 -151 1612 -215T1534 -328T1415 -410T1265 -464T1093 -494T908 -503Q733 -503 587 -481T335 -413T170 -295T111 -124Z" />
<glyph unicode="&#xc0;" glyph-name="Agrave" horiz-adv-x="2126" d="M321 1879H972L1382 1563H1031L321 1879ZM234 251L705 1189L495 1434H1662L1481 1180L1903 253L2166 0H1116L1334 251L1291 356H631L584 251L871 0H-60L234 251ZM1207 565L978 1129L725 565H1207Z" />
<glyph unicode="&#xc1;" glyph-name="Aacute" horiz-adv-x="2126" d="M1120 1879H1791L1081 1563H710L1120 1879ZM234 251L705 1189L495 1434H1662L1481 1180L1903 253L2166 0H1116L1334 251L1291 356H631L584 251L871 0H-60L234 251ZM1207 565L978 1129L725 565H1207Z" />
<glyph unicode="&#xc2;" glyph-name="Acircumflex" horiz-adv-x="2126" d="M833 1879H1274L1685 1563H1384L1053 1679L714 1563H413L833 1879ZM234 251L705 1189L495 1434H1662L1481 1180L1903 253L2166 0H1116L1334 251L1291 356H631L584 251L871 0H-60L234 251ZM1207
565L978 1129L725 565H1207Z" />
<glyph unicode="&#xc3;" glyph-name="Atilde" horiz-adv-x="2126" d="M440 1681Q466 1715 505 1753T596 1824T711 1878T850 1900Q916 1900 976 1886T1097 1852Q1167 1829 1238 1811T1388 1792Q1444 1792 1492 1808T1593 1850L1679 1775Q1652 1741 1613 1703T1523
1632T1408 1578T1269 1556Q1195 1556 1128 1573T992 1613Q929 1633 865 1648T730 1664Q674 1664 626 1648T526 1606L440 1681ZM234 251L705 1189L495 1434H1662L1481 1180L1903 253L2166 0H1116L1334 251L1291 356H631L584 251L871 0H-60L234 251ZM1207 565L978
1129L725 565H1207Z" />
<glyph unicode="&#xc4;" glyph-name="Adieresis" horiz-adv-x="2126" d="M1355 1542Q1313 1542 1276 1555T1212 1593T1169 1652T1153 1729Q1153 1771 1169 1806T1212 1865T1276 1903T1355 1917Q1397 1917 1434 1904T1499 1866T1543 1806T1559 1729Q1559 1687 1543
1653T1500 1594T1435 1556T1355 1542ZM749 1542Q707 1542 670 1555T606 1593T563 1652T547 1729Q547 1771 563 1806T606 1865T670 1903T749 1917Q791 1917 828 1904T893 1866T937 1806T953 1729Q953 1687 937 1653T894 1594T829 1556T749 1542ZM234 251L705 1189L495
1434H1662L1481 1180L1903 253L2166 0H1116L1334 251L1291 356H631L584 251L871 0H-60L234 251ZM1207 565L978 1129L725 565H1207Z" />
<glyph unicode="&#xc5;" glyph-name="Aring" horiz-adv-x="2126" d="M234 251L705 1189L495 1434H909Q861 1471 833 1526T804 1648Q804 1704 825 1753T883 1840T969 1898T1075 1920Q1131 1920 1180 1899T1267 1840T1325 1754T1347 1648Q1347 1582 1318 1527T1241
1434H1662L1481 1180L1903 253L2166 0H1116L1334 251L1291 356H631L584 251L871 0H-60L234 251ZM1075 1520Q1102 1520 1125 1530T1166 1557T1194 1598T1204 1648Q1204 1675 1194 1698T1167 1739T1126 1767T1075 1777Q1048 1777 1025 1767T985 1740T957 1699T947
1648Q947 1621 957 1598T984 1558T1025 1530T1075 1520ZM1207 565L978 1129L725 565H1207Z" />
<glyph unicode="&#xc6;" glyph-name="AE" horiz-adv-x="2725" d="M103 222L923 1307L783 1434H2600L2580 938L2181 1205H1591V874H2193V654H1591V229H2181L2590 473V0H783L1064 254V356H548L443 206L598 0H-213L103 222ZM1064 565V1088L695 565H1064Z" />
<glyph unicode="&#xc7;" glyph-name="Ccedilla" horiz-adv-x="2057" d="M721 -202Q757 -264 813 -296T954 -329Q975 -329 993 -326T1026 -316T1049 -296T1057 -267Q1057 -243 1043 -230T1006 -209T954 -199T893 -197L913 -30Q811 -20 710 3T518 67T348 165T213
304T123 486T90 717Q90 850 129 958T237 1150T400 1294T604 1394T837 1453T1084 1472Q1176 1472 1258 1461T1411 1432T1543 1389T1651 1339L1724 1434H1933V926L1668 876Q1644 957 1597 1027T1484 1148T1335 1228T1153 1258Q1027 1258 937 1214T790 1095T705 922T678
717Q678 586 716 485T824 316T987 212T1195 177Q1283 177 1361 199T1498 268T1595 386T1641 554H1947Q1947 417 1886 311T1718 129T1465 12T1150 -37V-111Q1211 -111 1262 -123T1351 -161T1409 -223T1430 -309Q1430 -363 1395 -402T1304 -467T1179 -505T1042 -517Q966
-517 894 -506T760 -467T649 -396T568 -284L721 -202Z" />
<glyph unicode="&#xc8;" glyph-name="Egrave" horiz-adv-x="1972" d="M338 1879H989L1399 1563H1048L338 1879ZM311 254V1180L30 1434H1847L1827 938L1428 1205H838V874H1440V654H838V229H1428L1837 473V0H30L311 254Z" />
<glyph unicode="&#xc9;" glyph-name="Eacute" horiz-adv-x="1972" d="M1137 1879H1808L1098 1563H727L1137 1879ZM311 254V1180L30 1434H1847L1827 938L1428 1205H838V874H1440V654H838V229H1428L1837 473V0H30L311 254Z" />
<glyph unicode="&#xca;" glyph-name="Ecircumflex" horiz-adv-x="1972" d="M850 1879H1291L1702 1563H1401L1070 1679L731 1563H430L850 1879ZM311 254V1180L30 1434H1847L1827 938L1428 1205H838V874H1440V654H838V229H1428L1837 473V0H30L311 254Z" />
<glyph unicode="&#xcb;" glyph-name="Edieresis" horiz-adv-x="1972" d="M1372 1542Q1330 1542 1293 1555T1229 1593T1186 1652T1170 1729Q1170 1771 1186 1806T1229 1865T1293 1903T1372 1917Q1414 1917 1451 1904T1516 1866T1560 1806T1576 1729Q1576 1687 1560
1653T1517 1594T1452 1556T1372 1542ZM766 1542Q724 1542 687 1555T623 1593T580 1652T564 1729Q564 1771 580 1806T623 1865T687 1903T766 1917Q808 1917 845 1904T910 1866T954 1806T970 1729Q970 1687 954 1653T911 1594T846 1556T766 1542ZM311 254V1180L30
1434H1847L1827 938L1428 1205H838V874H1440V654H838V229H1428L1837 473V0H30L311 254Z" />
<glyph unicode="&#xcc;" glyph-name="Igrave" horiz-adv-x="1101" d="M-220 1879H431L841 1563H490L-220 1879ZM292 1180L60 1434H809V254L1041 0H292V1180Z" />
<glyph unicode="&#xcd;" glyph-name="Iacute" horiz-adv-x="1101" d="M579 1879H1250L540 1563H169L579 1879ZM292 1180L60 1434H809V254L1041 0H292V1180Z" />
<glyph unicode="&#xce;" glyph-name="Icircumflex" horiz-adv-x="1101" d="M292 1879H733L1144 1563H843L512 1679L173 1563H-128L292 1879ZM292 1180L60 1434H809V254L1041 0H292V1180Z" />
<glyph unicode="&#xcf;" glyph-name="Idieresis" horiz-adv-x="1101" d="M814 1542Q772 1542 735 1555T671 1593T628 1652T612 1729Q612 1771 628 1806T671 1865T735 1903T814 1917Q856 1917 893 1904T958 1866T1002 1806T1018 1729Q1018 1687 1002 1653T959 1594T894
1556T814 1542ZM208 1542Q166 1542 129 1555T65 1593T22 1652T6 1729Q6 1771 22 1806T65 1865T129 1903T208 1917Q250 1917 287 1904T352 1866T396 1806T412 1729Q412 1687 396 1653T353 1594T288 1556T208 1542ZM292 1180L60 1434H809V254L1041 0H292V1180Z" />
<glyph unicode="&#xd0;" glyph-name="Eth" horiz-adv-x="2154" d="M341 254V582H145V802H341V1180L31 1434Q108 1435 207 1435T413 1437T630 1438T837 1439T1012 1440T1135 1441Q1311 1441 1452 1423T1700 1362Q1795 1324 1864 1264T1977 1126T2043 958T2064 767Q2064
582 1995 438T1798 195T1492 45T1095 -7Q1066 -7 1001 -7T847 -7T653 -5T439 -4T225 -2T30 0L341 254ZM1064 209Q1188 209 1271 249T1404 361T1475 534T1496 757Q1496 869 1468 956T1387 1103T1258 1194T1084 1225H868V802H1131V582H868V209H1064Z" />
<glyph unicode="&#xd1;" glyph-name="Ntilde" horiz-adv-x="2113" d="M438 1681Q464 1715 503 1753T594 1824T709 1878T848 1900Q914 1900 974 1886T1095 1852Q1165 1829 1236 1811T1386 1792Q1442 1792 1490 1808T1591 1850L1677 1775Q1650 1741 1611 1703T1521
1632T1406 1578T1267 1556Q1193 1556 1126 1573T990 1613Q927 1633 863 1648T728 1664Q672 1664 624 1648T524 1606L438 1681ZM313 253V1152L5 1434H769L1575 714V1180L1295 1434H2098L1847 1180V0H1575L585 904V253L886 0H42L313 253Z" />
<glyph unicode="&#xd2;" glyph-name="Ograve" horiz-adv-x="2066" d="M301 1879H952L1362 1563H1011L301 1879ZM90 717Q90 855 130 965T240 1159T402 1302T599 1399T815 1454T1032 1472Q1148 1472 1263 1455T1483 1400T1678 1303T1834 1159T1938 965T1976 717Q1976
581 1937 472T1830 279T1671 135T1475 36T1257 -21T1032 -39Q921 -39 808 -22T591 32T395 128T236 271T129 465T90 717ZM678 717Q678 599 704 499T777 324T889 208T1032 166Q1110 166 1175 209T1287 326T1361 500T1388 717Q1388 834 1363 936T1292 1114T1179 1233T1032
1277Q954 1277 889 1234T777 1115T704 937T678 717Z" />
<glyph unicode="&#xd3;" glyph-name="Oacute" horiz-adv-x="2066" d="M1100 1879H1771L1061 1563H690L1100 1879ZM90 717Q90 855 130 965T240 1159T402 1302T599 1399T815 1454T1032 1472Q1148 1472 1263 1455T1483 1400T1678 1303T1834 1159T1938 965T1976 717Q1976
581 1937 472T1830 279T1671 135T1475 36T1257 -21T1032 -39Q921 -39 808 -22T591 32T395 128T236 271T129 465T90 717ZM678 717Q678 599 704 499T777 324T889 208T1032 166Q1110 166 1175 209T1287 326T1361 500T1388 717Q1388 834 1363 936T1292 1114T1179 1233T1032
1277Q954 1277 889 1234T777 1115T704 937T678 717Z" />
<glyph unicode="&#xd4;" glyph-name="Ocircumflex" horiz-adv-x="2066" d="M813 1879H1254L1665 1563H1364L1033 1679L694 1563H393L813 1879ZM90 717Q90 855 130 965T240 1159T402 1302T599 1399T815 1454T1032 1472Q1148 1472 1263 1455T1483 1400T1678 1303T1834
1159T1938 965T1976 717Q1976 581 1937 472T1830 279T1671 135T1475 36T1257 -21T1032 -39Q921 -39 808 -22T591 32T395 128T236 271T129 465T90 717ZM678 717Q678 599 704 499T777 324T889 208T1032 166Q1110 166 1175 209T1287 326T1361 500T1388 717Q1388 834
1363 936T1292 1114T1179 1233T1032 1277Q954 1277 889 1234T777 1115T704 937T678 717Z" />
<glyph unicode="&#xd5;" glyph-name="Otilde" horiz-adv-x="2066" d="M420 1681Q446 1715 485 1753T576 1824T691 1878T830 1900Q896 1900 956 1886T1077 1852Q1147 1829 1218 1811T1368 1792Q1424 1792 1472 1808T1573 1850L1659 1775Q1632 1741 1593 1703T1503
1632T1388 1578T1249 1556Q1175 1556 1108 1573T972 1613Q909 1633 845 1648T710 1664Q654 1664 606 1648T506 1606L420 1681ZM90 717Q90 855 130 965T240 1159T402 1302T599 1399T815 1454T1032 1472Q1148 1472 1263 1455T1483 1400T1678 1303T1834 1159T1938
965T1976 717Q1976 581 1937 472T1830 279T1671 135T1475 36T1257 -21T1032 -39Q921 -39 808 -22T591 32T395 128T236 271T129 465T90 717ZM678 717Q678 599 704 499T777 324T889 208T1032 166Q1110 166 1175 209T1287 326T1361 500T1388 717Q1388 834 1363 936T1292
1114T1179 1233T1032 1277Q954 1277 889 1234T777 1115T704 937T678 717Z" />
<glyph unicode="&#xd6;" glyph-name="Odieresis" horiz-adv-x="2066" d="M1335 1542Q1293 1542 1256 1555T1192 1593T1149 1652T1133 1729Q1133 1771 1149 1806T1192 1865T1256 1903T1335 1917Q1377 1917 1414 1904T1479 1866T1523 1806T1539 1729Q1539 1687 1523
1653T1480 1594T1415 1556T1335 1542ZM729 1542Q687 1542 650 1555T586 1593T543 1652T527 1729Q527 1771 543 1806T586 1865T650 1903T729 1917Q771 1917 808 1904T873 1866T917 1806T933 1729Q933 1687 917 1653T874 1594T809 1556T729 1542ZM90 717Q90 855 130
965T240 1159T402 1302T599 1399T815 1454T1032 1472Q1148 1472 1263 1455T1483 1400T1678 1303T1834 1159T1938 965T1976 717Q1976 581 1937 472T1830 279T1671 135T1475 36T1257 -21T1032 -39Q921 -39 808 -22T591 32T395 128T236 271T129 465T90 717ZM678 717Q678
599 704 499T777 324T889 208T1032 166Q1110 166 1175 209T1287 326T1361 500T1388 717Q1388 834 1363 936T1292 1114T1179 1233T1032 1277Q954 1277 889 1234T777 1115T704 937T678 717Z" />
<glyph unicode="&#xd7;" glyph-name="multiply" horiz-adv-x="1247" d="M143 366L452 675L143 985L315 1156L624 847L933 1156L1104 985L795 675L1104 366L933 195L624 504L315 195L143 366Z" />
<glyph unicode="&#xd8;" glyph-name="Oslash" horiz-adv-x="2066" d="M90 717Q90 855 130 965T240 1159T402 1302T599 1399T815 1454T1032 1472Q1099 1472 1165 1466L1223 1679H1374L1310 1446Q1445 1420 1566 1365T1778 1221T1922 1008T1976 717Q1976 581 1937
472T1830 279T1671 135T1475 36T1257 -21T1032 -39Q1001 -39 970 -38T908 -34L857 -221H708L764 -14Q631 11 509 65T294 207T146 422T90 717ZM1111 1265Q1073 1277 1032 1277Q954 1277 889 1234T777 1115T704 937T678 717Q678 642 689 573T720 444T770 335T836
250L1111 1265ZM965 175Q996 166 1032 166Q1110 166 1175 209T1287 326T1361 500T1388 717Q1388 865 1349 986T1239 1183L965 175Z" />
<glyph unicode="&#xd9;" glyph-name="Ugrave" horiz-adv-x="2027" d="M409 1879H1060L1470 1563H1119L409 1879ZM291 1181L10 1434H1062L808 1181V727Q808 583 829 484T894 322T1002 232T1154 204Q1207 204 1253 212T1337 243T1405 303T1455 399T1487 538T1498
727V1180L1280 1434H2037L1781 1180V667Q1781 526 1758 419T1692 233T1587 102T1447 19T1277 -26T1081 -39Q863 -39 712 5T468 137T333 358T291 667V1181Z" />
<glyph unicode="&#xda;" glyph-name="Uacute" horiz-adv-x="2027" d="M1208 1879H1879L1169 1563H798L1208 1879ZM291 1181L10 1434H1062L808 1181V727Q808 583 829 484T894 322T1002 232T1154 204Q1207 204 1253 212T1337 243T1405 303T1455 399T1487 538T1498
727V1180L1280 1434H2037L1781 1180V667Q1781 526 1758 419T1692 233T1587 102T1447 19T1277 -26T1081 -39Q863 -39 712 5T468 137T333 358T291 667V1181Z" />
<glyph unicode="&#xdb;" glyph-name="Ucircumflex" horiz-adv-x="2027" d="M921 1879H1362L1773 1563H1472L1141 1679L802 1563H501L921 1879ZM291 1181L10 1434H1062L808 1181V727Q808 583 829 484T894 322T1002 232T1154 204Q1207 204 1253 212T1337 243T1405
303T1455 399T1487 538T1498 727V1180L1280 1434H2037L1781 1180V667Q1781 526 1758 419T1692 233T1587 102T1447 19T1277 -26T1081 -39Q863 -39 712 5T468 137T333 358T291 667V1181Z" />
<glyph unicode="&#xdc;" glyph-name="Udieresis" horiz-adv-x="2027" d="M1443 1542Q1401 1542 1364 1555T1300 1593T1257 1652T1241 1729Q1241 1771 1257 1806T1300 1865T1364 1903T1443 1917Q1485 1917 1522 1904T1587 1866T1631 1806T1647 1729Q1647 1687 1631
1653T1588 1594T1523 1556T1443 1542ZM837 1542Q795 1542 758 1555T694 1593T651 1652T635 1729Q635 1771 651 1806T694 1865T758 1903T837 1917Q879 1917 916 1904T981 1866T1025 1806T1041 1729Q1041 1687 1025 1653T982 1594T917 1556T837 1542ZM291 1181L10
1434H1062L808 1181V727Q808 583 829 484T894 322T1002 232T1154 204Q1207 204 1253 212T1337 243T1405 303T1455 399T1487 538T1498 727V1180L1280 1434H2037L1781 1180V667Q1781 526 1758 419T1692 233T1587 102T1447 19T1277 -26T1081 -39Q863 -39 712 5T468
137T333 358T291 667V1181Z" />
<glyph unicode="&#xdd;" glyph-name="Yacute" horiz-adv-x="1939" d="M1161 1879H1832L1122 1563H751L1161 1879ZM731 224V440L262 1191L-40 1434H949L814 1242L1092 743L1324 1233L1160 1434H1999L1641 1184L1238 440V224L1488 0H499L731 224Z" />
<glyph unicode="&#xde;" glyph-name="Thorn" horiz-adv-x="1935" d="M262 254V1180L30 1434H1011L788 1190Q826 1192 877 1193T1009 1195Q1110 1195 1213 1189T1411 1164T1589 1115T1733 1032T1829 909T1865 739Q1865 633 1835 555T1746 421T1606 330T1418 275T1189
248T923 240Q896 240 877 240T841 242T812 244T785 247L1011 0H30L262 254ZM864 463Q988 463 1071 474T1204 516T1275 598T1296 731Q1296 812 1268 861T1187 936T1058 971T884 979H779V463H864Z" />
<glyph unicode="&#xdf;" glyph-name="germandbls" horiz-adv-x="2176" d="M311 244V1238Q311 1368 366 1464T517 1624T747 1719T1036 1751Q1186 1751 1315 1734T1540 1674T1690 1558T1745 1372Q1745 1310 1711 1258T1624 1161T1512 1078T1400 1005T1314 940T1279
878Q1279 851 1295 833T1348 802T1445 776T1592 749Q1698 731 1797 707T1971 642T2092 535T2138 369Q2138 296 2115 237T2051 133T1956 56T1842 2T1717 -29T1591 -39Q1488 -39 1391 -6T1199 91L937 -26V408Q1000 358 1073 316T1226 242T1387 192T1550 174Q1576
174 1601 179T1647 194T1679 222T1692 265Q1692 285 1683 302T1645 333T1566 359T1432 378Q1374 384 1312 393T1190 417T1076 455T982 511T918 589T894 694Q894 765 922 817T993 913T1086 998T1178 1089T1249 1203T1278 1358Q1278 1419 1259 1462T1209 1532T1140
1573T1062 1586Q963 1586 908 1557T826 1475T794 1350T788 1190V0H40L311 244Z" />
<glyph unicode="&#xe0;" glyph-name="agrave" horiz-adv-x="1764" d="M266 1663H767L1077 1247H866L266 1663ZM94 258Q94 338 127 396T216 496T347 564T506 604T678 624T851 630Q898 630 950 629T1056 625Q1054 697 1044 753T1009 848T941 907T829 928Q785 928
742 917T664 882T605 821T573 729L172 784Q172 852 199 905T275 999T388 1068T529 1113T687 1138T852 1146Q951 1146 1041 1138T1210 1107T1351 1048T1460 954T1529 818T1554 634V282Q1554 202 1593 170T1701 138V23Q1692 14 1671 4T1615 -16T1533 -32T1425 -39Q1351
-39 1292 -32T1190 -6T1117 45T1073 126Q1023 82 960 51T827 0T682 -29T535 -39Q487 -39 436 -34T336 -17T243 17T166 72T114 151T94 258ZM611 302Q611 275 625 253T663 216T719 193T787 185Q824 185 869 193T954 222T1024 274T1057 354V456Q1043 457 1031 457T1007
457Q900 457 825 447T703 416T633 367T611 302Z" />
<glyph unicode="&#xe1;" glyph-name="aacute" horiz-adv-x="1764" d="M971 1663H1472L872 1247H661L971 1663ZM94 258Q94 338 127 396T216 496T347 564T506 604T678 624T851 630Q898 630 950 629T1056 625Q1054 697 1044 753T1009 848T941 907T829 928Q785 928
742 917T664 882T605 821T573 729L172 784Q172 852 199 905T275 999T388 1068T529 1113T687 1138T852 1146Q951 1146 1041 1138T1210 1107T1351 1048T1460 954T1529 818T1554 634V282Q1554 202 1593 170T1701 138V23Q1692 14 1671 4T1615 -16T1533 -32T1425 -39Q1351
-39 1292 -32T1190 -6T1117 45T1073 126Q1023 82 960 51T827 0T682 -29T535 -39Q487 -39 436 -34T336 -17T243 17T166 72T114 151T94 258ZM611 302Q611 275 625 253T663 216T719 193T787 185Q824 185 869 193T954 222T1024 274T1057 354V456Q1043 457 1031 457T1007
457Q900 457 825 447T703 416T633 367T611 302Z" />
<glyph unicode="&#xe2;" glyph-name="acircumflex" horiz-adv-x="1764" d="M699 1663H1040L1420 1247H1229L869 1432L510 1247H319L699 1663ZM94 258Q94 338 127 396T216 496T347 564T506 604T678 624T851 630Q898 630 950 629T1056 625Q1054 697 1044 753T1009
848T941 907T829 928Q785 928 742 917T664 882T605 821T573 729L172 784Q172 852 199 905T275 999T388 1068T529 1113T687 1138T852 1146Q951 1146 1041 1138T1210 1107T1351 1048T1460 954T1529 818T1554 634V282Q1554 202 1593 170T1701 138V23Q1692 14 1671
4T1615 -16T1533 -32T1425 -39Q1351 -39 1292 -32T1190 -6T1117 45T1073 126Q1023 82 960 51T827 0T682 -29T535 -39Q487 -39 436 -34T336 -17T243 17T166 72T114 151T94 258ZM611 302Q611 275 625 253T663 216T719 193T787 185Q824 185 869 193T954 222T1024 274T1057
354V456Q1043 457 1031 457T1007 457Q900 457 825 447T703 416T633 367T611 302Z" />
<glyph unicode="&#xe3;" glyph-name="atilde" horiz-adv-x="1764" d="M380 1422Q404 1459 440 1500T519 1577T610 1635T707 1659Q780 1659 843 1637T962 1589Q1010 1568 1053 1552T1140 1536Q1178 1536 1215 1552T1293 1611L1359 1536Q1335 1499 1299 1458T1220
1381T1129 1322T1032 1299Q993 1299 957 1306T887 1323T822 1347T761 1374Q717 1394 677 1407T597 1420Q559 1420 522 1404T446 1347L380 1422ZM94 258Q94 338 127 396T216 496T347 564T506 604T678 624T851 630Q898 630 950 629T1056 625Q1054 697 1044 753T1009
848T941 907T829 928Q785 928 742 917T664 882T605 821T573 729L172 784Q172 852 199 905T275 999T388 1068T529 1113T687 1138T852 1146Q951 1146 1041 1138T1210 1107T1351 1048T1460 954T1529 818T1554 634V282Q1554 202 1593 170T1701 138V23Q1692 14 1671
4T1615 -16T1533 -32T1425 -39Q1351 -39 1292 -32T1190 -6T1117 45T1073 126Q1023 82 960 51T827 0T682 -29T535 -39Q487 -39 436 -34T336 -17T243 17T166 72T114 151T94 258ZM611 302Q611 275 625 253T663 216T719 193T787 185Q824 185 869 193T954 222T1024 274T1057
354V456Q1043 457 1031 457T1007 457Q900 457 825 447T703 416T633 367T611 302Z" />
<glyph unicode="&#xe4;" glyph-name="adieresis" horiz-adv-x="1764" d="M1172 1263Q1130 1263 1093 1278T1029 1319T986 1382T970 1460Q970 1502 986 1538T1029 1601T1093 1643T1172 1658Q1214 1658 1251 1643T1316 1602T1360 1539T1376 1460Q1376 1418 1360
1382T1317 1320T1252 1278T1172 1263ZM566 1263Q524 1263 487 1278T423 1319T380 1382T364 1460Q364 1502 380 1538T423 1601T487 1643T566 1658Q608 1658 645 1643T710 1602T754 1539T770 1460Q770 1418 754 1382T711 1320T646 1278T566 1263ZM94 258Q94 338 127
396T216 496T347 564T506 604T678 624T851 630Q898 630 950 629T1056 625Q1054 697 1044 753T1009 848T941 907T829 928Q785 928 742 917T664 882T605 821T573 729L172 784Q172 852 199 905T275 999T388 1068T529 1113T687 1138T852 1146Q951 1146 1041 1138T1210
1107T1351 1048T1460 954T1529 818T1554 634V282Q1554 202 1593 170T1701 138V23Q1692 14 1671 4T1615 -16T1533 -32T1425 -39Q1351 -39 1292 -32T1190 -6T1117 45T1073 126Q1023 82 960 51T827 0T682 -29T535 -39Q487 -39 436 -34T336 -17T243 17T166 72T114 151T94
258ZM611 302Q611 275 625 253T663 216T719 193T787 185Q824 185 869 193T954 222T1024 274T1057 354V456Q1043 457 1031 457T1007 457Q900 457 825 447T703 416T633 367T611 302Z" />
<glyph unicode="&#xe5;" glyph-name="aring" horiz-adv-x="1764" d="M871 1235Q815 1235 766 1256T680 1314T622 1400T600 1506Q600 1562 621 1611T679 1698T765 1756T871 1778Q927 1778 976 1757T1063 1698T1121 1612T1143 1506Q1143 1450 1122 1401T1063 1315T977
1257T871 1235ZM871 1378Q898 1378 921 1388T962 1415T990 1456T1000 1506Q1000 1533 990 1556T963 1597T922 1625T871 1635Q844 1635 821 1625T781 1598T753 1557T743 1506Q743 1479 753 1456T780 1416T821 1388T871 1378ZM94 258Q94 338 127 396T216 496T347
564T506 604T678 624T851 630Q898 630 950 629T1056 625Q1054 697 1044 753T1009 848T941 907T829 928Q785 928 742 917T664 882T605 821T573 729L172 784Q172 852 199 905T275 999T388 1068T529 1113T687 1138T852 1146Q951 1146 1041 1138T1210 1107T1351 1048T1460
954T1529 818T1554 634V282Q1554 202 1593 170T1701 138V23Q1692 14 1671 4T1615 -16T1533 -32T1425 -39Q1351 -39 1292 -32T1190 -6T1117 45T1073 126Q1023 82 960 51T827 0T682 -29T535 -39Q487 -39 436 -34T336 -17T243 17T166 72T114 151T94 258ZM611 302Q611
275 625 253T663 216T719 193T787 185Q824 185 869 193T954 222T1024 274T1057 354V456Q1043 457 1031 457T1007 457Q900 457 825 447T703 416T633 367T611 302Z" />
<glyph unicode="&#xe6;" glyph-name="ae" horiz-adv-x="2627" d="M94 258Q94 338 127 396T216 496T347 564T506 604T678 624T851 630Q898 630 950 629T1056 625Q1054 697 1044 753T1009 848T941 907T829 928Q785 928 742 918T664 885T605 826T573 735L172 797Q172
885 222 950T353 1059T538 1124T747 1146Q939 1146 1074 1103T1290 967Q1341 1013 1404 1046T1537 1102T1683 1135T1837 1146Q1982 1146 2107 1114T2325 1011T2469 825T2522 543H1554Q1559 430 1595 361T1688 254T1817 204T1967 191Q2025 191 2090 199T2217 228T2336
283T2431 369L2533 289Q2504 215 2450 155T2314 51T2123 -15T1876 -39Q1791 -39 1702 -31T1528 1T1364 69T1224 186Q1175 126 1101 84T937 14T744 -26T535 -39Q487 -39 436 -34T336 -17T243 17T166 72T114 151T94 258ZM2038 699Q2038 840 1989 901T1843 963Q1725
963 1656 896T1564 699H2038ZM611 302Q611 275 625 253T663 216T719 193T787 185Q824 185 870 189T958 209T1028 260T1057 354V456Q1043 457 1031 457T1007 457Q900 457 825 447T703 416T633 367T611 302Z" />
<glyph unicode="&#xe7;" glyph-name="ccedilla" horiz-adv-x="1729" d="M627 -202Q663 -264 719 -296T860 -329Q881 -329 899 -326T932 -316T955 -296T963 -267Q963 -243 949 -230T912 -209T860 -199T799 -197L819 -35Q648 -23 514 21T288 140T148 321T100 562Q100
696 163 804T335 988T590 1105T904 1146Q1068 1146 1188 1114T1388 1033L1597 1154V670L1347 640Q1328 704 1295 759T1216 854T1110 916T981 939Q917 939 854 921T740 860T658 744T626 562Q626 470 658 401T744 286T867 216T1010 193Q1073 193 1143 200T1282 229T1413
287T1521 383L1623 303Q1596 235 1544 178T1419 78T1254 6T1056 -33V-111Q1117 -111 1168 -123T1257 -161T1315 -223T1336 -309Q1336 -363 1301 -402T1210 -467T1085 -505T948 -517Q872 -517 800 -506T666 -467T555 -396T474 -284L627 -202Z" />
<glyph unicode="&#xe8;" glyph-name="egrave" horiz-adv-x="1709" d="M316 1663H817L1127 1247H916L316 1663ZM100 537Q100 659 135 752T231 912T372 1025T544 1097T731 1135T919 1146Q1064 1146 1189 1114T1407 1011T1551 825T1604 543H627Q631 439 662 372T744
265T858 209T990 193Q1051 193 1122 200T1264 226T1400 280T1513 369L1615 289Q1590 228 1545 180T1442 96T1317 34T1178 -8T1036 -31T900 -39Q717 -39 570 -1T318 110T157 291T100 537ZM1120 699Q1120 773 1107 823T1066 905T999 949T904 963Q790 963 723 894T635
699H1120Z" />
<glyph unicode="&#xe9;" glyph-name="eacute" horiz-adv-x="1709" d="M1021 1663H1522L922 1247H711L1021 1663ZM100 537Q100 659 135 752T231 912T372 1025T544 1097T731 1135T919 1146Q1064 1146 1189 1114T1407 1011T1551 825T1604 543H627Q631 439 662 372T744
265T858 209T990 193Q1051 193 1122 200T1264 226T1400 280T1513 369L1615 289Q1590 228 1545 180T1442 96T1317 34T1178 -8T1036 -31T900 -39Q717 -39 570 -1T318 110T157 291T100 537ZM1120 699Q1120 773 1107 823T1066 905T999 949T904 963Q790 963 723 894T635
699H1120Z" />
<glyph unicode="&#xea;" glyph-name="ecircumflex" horiz-adv-x="1709" d="M749 1663H1090L1470 1247H1279L919 1432L560 1247H369L749 1663ZM100 537Q100 659 135 752T231 912T372 1025T544 1097T731 1135T919 1146Q1064 1146 1189 1114T1407 1011T1551 825T1604
543H627Q631 439 662 372T744 265T858 209T990 193Q1051 193 1122 200T1264 226T1400 280T1513 369L1615 289Q1590 228 1545 180T1442 96T1317 34T1178 -8T1036 -31T900 -39Q717 -39 570 -1T318 110T157 291T100 537ZM1120 699Q1120 773 1107 823T1066 905T999
949T904 963Q790 963 723 894T635 699H1120Z" />
<glyph unicode="&#xeb;" glyph-name="edieresis" horiz-adv-x="1709" d="M1222 1263Q1180 1263 1143 1278T1079 1319T1036 1382T1020 1460Q1020 1502 1036 1538T1079 1601T1143 1643T1222 1658Q1264 1658 1301 1643T1366 1602T1410 1539T1426 1460Q1426 1418 1410
1382T1367 1320T1302 1278T1222 1263ZM616 1263Q574 1263 537 1278T473 1319T430 1382T414 1460Q414 1502 430 1538T473 1601T537 1643T616 1658Q658 1658 695 1643T760 1602T804 1539T820 1460Q820 1418 804 1382T761 1320T696 1278T616 1263ZM100 537Q100 659
135 752T231 912T372 1025T544 1097T731 1135T919 1146Q1064 1146 1189 1114T1407 1011T1551 825T1604 543H627Q631 439 662 372T744 265T858 209T990 193Q1051 193 1122 200T1264 226T1400 280T1513 369L1615 289Q1590 228 1545 180T1442 96T1317 34T1178 -8T1036
-31T900 -39Q717 -39 570 -1T318 110T157 291T100 537ZM1120 699Q1120 773 1107 823T1066 905T999 949T904 963Q790 963 723 894T635 699H1120Z" />
<glyph unicode="&#xec;" glyph-name="igrave" horiz-adv-x="1055" d="M-66 1663H435L745 1247H534L-66 1663ZM311 244V853L49 1077L778 1107V244L1049 0H40L311 244Z" />
<glyph unicode="&#xed;" glyph-name="iacute" horiz-adv-x="1055" d="M639 1663H1140L540 1247H329L639 1663ZM311 244V853L49 1077L778 1107V244L1049 0H40L311 244Z" />
<glyph unicode="&#xee;" glyph-name="icircumflex" horiz-adv-x="1055" d="M367 1663H708L1088 1247H897L537 1432L178 1247H-13L367 1663ZM311 244V853L49 1077L778 1107V244L1049 0H40L311 244Z" />
<glyph unicode="&#xef;" glyph-name="idieresis" horiz-adv-x="1055" d="M840 1263Q798 1263 761 1278T697 1319T654 1382T638 1460Q638 1502 654 1538T697 1601T761 1643T840 1658Q882 1658 919 1643T984 1602T1028 1539T1044 1460Q1044 1418 1028 1382T985 1320T920
1278T840 1263ZM234 1263Q192 1263 155 1278T91 1319T48 1382T32 1460Q32 1502 48 1538T91 1601T155 1643T234 1658Q276 1658 313 1643T378 1602T422 1539T438 1460Q438 1418 422 1382T379 1320T314 1278T234 1263ZM311 244V853L49 1077L778 1107V244L1049 0H40L311
244Z" />
<glyph unicode="&#xf0;" glyph-name="eth" horiz-adv-x="1796" d="M100 495Q100 609 152 690T291 822T490 897T723 921Q790 921 849 915T960 898T1061 871T1157 833Q1157 932 1130 1014T1051 1163L752 991L642 1182L875 1316Q784 1370 670 1404T420 1456L473 1584Q651
1584 815 1553T1123 1459L1436 1639L1546 1448L1343 1331Q1417 1274 1477 1204T1579 1052T1643 874T1666 669Q1666 307 1469 134T865 -39Q771 -39 678 -25T499 18T341 91T215 194T131 328T100 495ZM577 425Q577 366 596 318T651 236T742 184T865 166Q948 166 1001
201T1087 299T1133 446T1153 629Q1111 646 1076 660T1007 683T939 698T865 704Q723 704 650 633T577 425Z" />
<glyph unicode="&#xf1;" glyph-name="ntilde" horiz-adv-x="1997" d="M554 1422Q578 1459 614 1500T693 1577T784 1635T881 1659Q954 1659 1017 1637T1136 1589Q1184 1568 1227 1552T1314 1536Q1352 1536 1389 1552T1467 1611L1533 1536Q1509 1499 1473 1458T1394
1381T1303 1322T1206 1299Q1167 1299 1131 1306T1061 1323T996 1347T935 1374Q891 1394 851 1407T771 1420Q733 1420 696 1404T620 1347L554 1422ZM311 244V853L49 1077L788 1107V890Q860 1013 977 1079T1247 1146Q1363 1146 1453 1111T1605 1005T1699 829T1731
584V244L2002 0H1070L1254 244V563Q1254 627 1242 684T1205 784T1139 852T1043 877Q987 877 940 853T859 782T807 668T788 513V244L972 0H40L311 244Z" />
<glyph unicode="&#xf2;" glyph-name="ograve" horiz-adv-x="1848" d="M321 1663H822L1132 1247H921L321 1663ZM100 553Q100 704 161 815T333 1000T594 1110T924 1146Q1103 1146 1254 1110T1515 1001T1686 816T1748 553Q1748 396 1687 284T1515 100T1254 -5T924
-39Q745 -39 594 -6T333 100T162 284T100 553ZM626 553Q626 461 649 386T713 259T808 178T924 149Q985 149 1039 177T1134 258T1198 386T1222 553Q1222 646 1199 722T1135 852T1040 936T924 966Q863 966 809 936T714 852T650 722T626 553Z" />
<glyph unicode="&#xf3;" glyph-name="oacute" horiz-adv-x="1848" d="M1026 1663H1527L927 1247H716L1026 1663ZM100 553Q100 704 161 815T333 1000T594 1110T924 1146Q1103 1146 1254 1110T1515 1001T1686 816T1748 553Q1748 396 1687 284T1515 100T1254 -5T924
-39Q745 -39 594 -6T333 100T162 284T100 553ZM626 553Q626 461 649 386T713 259T808 178T924 149Q985 149 1039 177T1134 258T1198 386T1222 553Q1222 646 1199 722T1135 852T1040 936T924 966Q863 966 809 936T714 852T650 722T626 553Z" />
<glyph unicode="&#xf4;" glyph-name="ocircumflex" horiz-adv-x="1848" d="M754 1663H1095L1475 1247H1284L924 1432L565 1247H374L754 1663ZM100 553Q100 704 161 815T333 1000T594 1110T924 1146Q1103 1146 1254 1110T1515 1001T1686 816T1748 553Q1748 396
1687 284T1515 100T1254 -5T924 -39Q745 -39 594 -6T333 100T162 284T100 553ZM626 553Q626 461 649 386T713 259T808 178T924 149Q985 149 1039 177T1134 258T1198 386T1222 553Q1222 646 1199 722T1135 852T1040 936T924 966Q863 966 809 936T714 852T650 722T626
553Z" />
<glyph unicode="&#xf5;" glyph-name="otilde" horiz-adv-x="1848" d="M435 1422Q459 1459 495 1500T574 1577T665 1635T762 1659Q835 1659 898 1637T1017 1589Q1065 1568 1108 1552T1195 1536Q1233 1536 1270 1552T1348 1611L1414 1536Q1390 1499 1354 1458T1275
1381T1184 1322T1087 1299Q1048 1299 1012 1306T942 1323T877 1347T816 1374Q772 1394 732 1407T652 1420Q614 1420 577 1404T501 1347L435 1422ZM100 553Q100 704 161 815T333 1000T594 1110T924 1146Q1103 1146 1254 1110T1515 1001T1686 816T1748 553Q1748 396
1687 284T1515 100T1254 -5T924 -39Q745 -39 594 -6T333 100T162 284T100 553ZM626 553Q626 461 649 386T713 259T808 178T924 149Q985 149 1039 177T1134 258T1198 386T1222 553Q1222 646 1199 722T1135 852T1040 936T924 966Q863 966 809 936T714 852T650 722T626
553Z" />
<glyph unicode="&#xf6;" glyph-name="odieresis" horiz-adv-x="1848" d="M1227 1263Q1185 1263 1148 1278T1084 1319T1041 1382T1025 1460Q1025 1502 1041 1538T1084 1601T1148 1643T1227 1658Q1269 1658 1306 1643T1371 1602T1415 1539T1431 1460Q1431 1418 1415
1382T1372 1320T1307 1278T1227 1263ZM621 1263Q579 1263 542 1278T478 1319T435 1382T419 1460Q419 1502 435 1538T478 1601T542 1643T621 1658Q663 1658 700 1643T765 1602T809 1539T825 1460Q825 1418 809 1382T766 1320T701 1278T621 1263ZM100 553Q100 704
161 815T333 1000T594 1110T924 1146Q1103 1146 1254 1110T1515 1001T1686 816T1748 553Q1748 396 1687 284T1515 100T1254 -5T924 -39Q745 -39 594 -6T333 100T162 284T100 553ZM626 553Q626 461 649 386T713 259T808 178T924 149Q985 149 1039 177T1134 258T1198
386T1222 553Q1222 646 1199 722T1135 852T1040 936T924 966Q863 966 809 936T714 852T650 722T626 553Z" />
<glyph unicode="&#xf7;" glyph-name="divide" horiz-adv-x="1294" d="M660 891Q618 891 581 907T515 950T471 1015T455 1096Q455 1138 471 1175T515 1241T580 1285T660 1301Q702 1301 739 1285T805 1241T849 1176T866 1096Q866 1053 850 1016T805 951T740 907T660
891ZM143 781H1151V539H143V781ZM455 223Q455 266 471 303T515 369T580 413T660 429Q702 429 739 413T805 369T849 304T866 223Q866 181 850 144T805 79T740 35T660 19Q618 19 581 35T515 78T471 143T455 223Z" />
<glyph unicode="&#xf8;" glyph-name="oslash" horiz-adv-x="1848" d="M100 553Q100 704 161 815T333 1000T594 1110T924 1146Q953 1146 982 1145T1040 1142L1096 1319H1247L1185 1124Q1311 1101 1415 1055T1593 938T1707 770T1748 553Q1748 396 1687 284T1515
100T1254 -5T924 -39Q895 -39 868 -38T814 -35L762 -201H613L670 -20Q542 1 437 45T257 159T141 327T100 553ZM981 959Q967 962 953 964T924 966Q863 966 809 936T714 852T650 722T626 553Q626 442 659 358T747 221L981 959ZM875 154Q887 152 899 151T924 149Q985
149 1039 177T1134 258T1198 386T1222 553Q1222 660 1191 744T1108 883L875 154Z" />
<glyph unicode="&#xf9;" glyph-name="ugrave" horiz-adv-x="1958" d="M357 1663H858L1168 1247H957L357 1663ZM255 833L-16 1077L732 1107V544Q732 480 744 423T781 323T847 255T943 230Q998 230 1044 253T1125 320T1178 429T1198 577V833L934 1077L1675 1107V237L1937
13L1198 -17V205Q1123 87 1006 24T739 -39Q506 -39 381 102T255 523V833Z" />
<glyph unicode="&#xfa;" glyph-name="uacute" horiz-adv-x="1958" d="M1062 1663H1563L963 1247H752L1062 1663ZM255 833L-16 1077L732 1107V544Q732 480 744 423T781 323T847 255T943 230Q998 230 1044 253T1125 320T1178 429T1198 577V833L934 1077L1675 1107V237L1937
13L1198 -17V205Q1123 87 1006 24T739 -39Q506 -39 381 102T255 523V833Z" />
<glyph unicode="&#xfb;" glyph-name="ucircumflex" horiz-adv-x="1958" d="M790 1663H1131L1511 1247H1320L960 1432L601 1247H410L790 1663ZM255 833L-16 1077L732 1107V544Q732 480 744 423T781 323T847 255T943 230Q998 230 1044 253T1125 320T1178 429T1198
577V833L934 1077L1675 1107V237L1937 13L1198 -17V205Q1123 87 1006 24T739 -39Q506 -39 381 102T255 523V833Z" />
<glyph unicode="&#xfc;" glyph-name="udieresis" horiz-adv-x="1958" d="M1263 1263Q1221 1263 1184 1278T1120 1319T1077 1382T1061 1460Q1061 1502 1077 1538T1120 1601T1184 1643T1263 1658Q1305 1658 1342 1643T1407 1602T1451 1539T1467 1460Q1467 1418 1451
1382T1408 1320T1343 1278T1263 1263ZM657 1263Q615 1263 578 1278T514 1319T471 1382T455 1460Q455 1502 471 1538T514 1601T578 1643T657 1658Q699 1658 736 1643T801 1602T845 1539T861 1460Q861 1418 845 1382T802 1320T737 1278T657 1263ZM255 833L-16 1077L732
1107V544Q732 480 744 423T781 323T847 255T943 230Q999 230 1046 254T1126 324T1179 439T1198 594V833L934 1077L1675 1107V237L1937 13L1198 -17V205Q1123 87 1006 24T739 -39Q506 -39 381 102T255 523V833Z" />
<glyph unicode="&#xfd;" glyph-name="yacute" horiz-adv-x="1752" d="M1115 1663H1616L1016 1247H805L1115 1663ZM471 67Q459 23 459 -19Q459 -67 472 -110T514 -187T588 -239T700 -259Q755 -259 797 -238T870 -181T923 -98T958 0H641L255 890L0 1107H889L772
941L1012 213L1211 934L1090 1107H1819L1584 914L1250 0Q1197 -146 1132 -238T989 -383T818 -455T616 -475Q486 -475 385 -447T213 -366T107 -239T70 -71Q70 -48 73 -21T81 27L471 67Z" />
<glyph unicode="&#xfe;" glyph-name="thorn" horiz-adv-x="1970" d="M311 1330L49 1554L788 1584V953Q864 1054 980 1100T1236 1146Q1391 1146 1509 1099T1708 969T1829 776T1870 540Q1870 428 1834 324T1722 139T1528 10T1243 -39Q1098 -39 981 4T788 147V-192L1159
-436H40L311 -192V1330ZM788 553Q788 463 812 400T876 298T965 240T1066 222Q1127 222 1178 243T1266 305T1323 409T1344 553Q1344 635 1324 698T1266 805T1178 871T1066 893Q1012 893 962 875T874 816T812 711T788 553Z" />
<glyph unicode="&#xff;" glyph-name="ydieresis" horiz-adv-x="1752" d="M1316 1263Q1274 1263 1237 1278T1173 1319T1130 1382T1114 1460Q1114 1502 1130 1538T1173 1601T1237 1643T1316 1658Q1358 1658 1395 1643T1460 1602T1504 1539T1520 1460Q1520 1418 1504
1382T1461 1320T1396 1278T1316 1263ZM710 1263Q668 1263 631 1278T567 1319T524 1382T508 1460Q508 1502 524 1538T567 1601T631 1643T710 1658Q752 1658 789 1643T854 1602T898 1539T914 1460Q914 1418 898 1382T855 1320T790 1278T710 1263ZM471 67Q459 23 459
-19Q459 -67 472 -110T514 -187T588 -239T700 -259Q755 -259 797 -238T870 -181T923 -98T958 0H641L255 890L0 1107H889L772 941L1012 213L1211 934L1090 1107H1819L1584 914L1250 0Q1197 -146 1132 -238T989 -383T818 -455T616 -475Q486 -475 385 -447T213 -366T107
-239T70 -71Q70 -48 73 -21T81 27L471 67Z" />
<glyph unicode="&#x2013;" glyph-name="endash" horiz-adv-x="1244" d="M110 682H1134V460H110V682Z" />
<glyph unicode="&#x2014;" glyph-name="emdash" horiz-adv-x="2268" d="M110 682H2158V460H110V682Z" />
<glyph unicode="&#x2018;" glyph-name="quoteleft" horiz-adv-x="742" d="M374 1063Q323 1063 277 1082T196 1138T141 1224T120 1337Q120 1418 142 1483T202 1601T294 1693T409 1760L476 1697Q409 1658 373 1612T322 1503Q336 1507 352 1510T391 1513Q443 1513
485 1498T558 1455T605 1384T622 1288Q622 1241 606 1200T558 1129T480 1081T374 1063Z" />
<glyph unicode="&#x2019;" glyph-name="quoteright" horiz-adv-x="742" d="M266 1126Q333 1165 369 1211T420 1320Q406 1316 390 1313T351 1310Q299 1310 257 1325T184 1368T137 1439T120 1535Q120 1582 136 1623T184 1694T262 1742T368 1760Q419 1760 465 1741T546
1685T601 1599T622 1486Q622 1405 600 1340T540 1222T448 1130T333 1063L266 1126Z" />
<glyph unicode="&#x201a;" glyph-name="quotesinglbase" horiz-adv-x="742" d="M120 125Q120 172 136 213T184 284T262 332T368 350Q419 350 465 331T546 275T601 189T622 76Q622 -5 600 -70T540 -188T448 -280T333 -347L266 -284Q333 -245 369 -199T420 -90Q406
-94 390 -97T351 -100Q299 -100 257 -85T184 -42T137 29T120 125Z" />
<glyph unicode="&#x201c;" glyph-name="quotedblleft" horiz-adv-x="1342" d="M974 1063Q923 1063 877 1082T796 1138T741 1224T720 1337Q720 1418 742 1483T802 1601T894 1693T1009 1760L1076 1697Q1009 1658 973 1612T922 1503Q936 1507 952 1510T991 1513Q1043
1513 1085 1498T1158 1455T1205 1384T1222 1288Q1222 1241 1206 1200T1158 1129T1080 1081T974 1063ZM374 1063Q323 1063 277 1082T196 1138T141 1224T120 1337Q120 1418 142 1483T202 1601T294 1693T409 1760L476 1697Q409 1658 373 1612T322 1503Q336 1507 352
1510T391 1513Q443 1513 485 1498T558 1455T605 1384T622 1288Q622 1241 606 1200T558 1129T480 1081T374 1063Z" />
<glyph unicode="&#x201d;" glyph-name="quotedblright" horiz-adv-x="1342" d="M866 1126Q933 1165 969 1211T1020 1320Q1006 1316 990 1313T951 1310Q899 1310 857 1325T784 1368T737 1439T720 1535Q720 1582 736 1623T784 1694T862 1742T968 1760Q1019 1760
1065 1741T1146 1685T1201 1599T1222 1486Q1222 1405 1200 1340T1140 1222T1048 1130T933 1063L866 1126ZM266 1126Q333 1165 369 1211T420 1320Q406 1316 390 1313T351 1310Q299 1310 257 1325T184 1368T137 1439T120 1535Q120 1582 136 1623T184 1694T262 1742T368
1760Q419 1760 465 1741T546 1685T601 1599T622 1486Q622 1405 600 1340T540 1222T448 1130T333 1063L266 1126Z" />
<glyph unicode="&#x201e;" glyph-name="quotedblbase" horiz-adv-x="1342" d="M720 125Q720 172 736 213T784 284T862 332T968 350Q1019 350 1065 331T1146 275T1201 189T1222 76Q1222 -5 1200 -70T1140 -188T1048 -280T933 -347L866 -284Q933 -245 969 -199T1020
-90Q1006 -94 990 -97T951 -100Q899 -100 857 -85T784 -42T737 29T720 125ZM120 125Q120 172 136 213T184 284T262 332T368 350Q419 350 465 331T546 275T601 189T622 76Q622 -5 600 -70T540 -188T448 -280T333 -347L266 -284Q333 -245 369 -199T420 -90Q406 -94
390 -97T351 -100Q299 -100 257 -85T184 -42T137 29T120 125Z" />
<glyph unicode="&#x2022;" glyph-name="bullet" horiz-adv-x="861" d="M430 445Q365 445 309 469T210 536T144 634T120 755Q120 819 144 876T210 975T308 1041T430 1066Q494 1066 551 1042T650 975T716 876T741 755Q741 691 717 635T650 536T551 470T430 445Z" />
<glyph unicode="&#x2039;" glyph-name="guilsinglleft" horiz-adv-x="953" d="M737 1121L863 1045L558 581L863 123L737 47L90 584L737 1121Z" />
<glyph unicode="&#x203a;" glyph-name="guilsinglright" horiz-adv-x="953" d="M394 581L90 1045L216 1121L863 584L216 47L90 123L394 581Z" />
</font>
</defs>
</svg>
