<?xml version="1.0" standalone="no"?>
<!DOCTYPE svg PUBLIC "-//W3C//DTD SVG 1.1//EN" "http://www.w3.org/Graphics/SVG/1.1/DTD/svg11.dtd">
<svg xmlns="http://www.w3.org/2000/svg">
<defs >
<font id="Heebo" horiz-adv-x="1048" ><font-face
    font-family="Heebo Light"
    units-per-em="2048"
    panose-1="0 0 4 0 0 0 0 0 0 0"
    ascent="2146"
    descent="-862"
    alphabetic="0" />
<glyph unicode=" " glyph-name="space" horiz-adv-x="499" />
<glyph unicode="!" glyph-name="exclam" horiz-adv-x="462" d="M174 406L167 1456H291L284 406H174ZM274 151T296 129T319 71Q319 37 297 14T236 -9Q199 -9 177 13T154 71Q154 106 176 128T236 151Q274 151 296 129Z" />
<glyph unicode="&quot;" glyph-name="quotedbl" horiz-adv-x="589" d="M224 1083H143L146 1390V1536H244V1397L224 1083ZM460 1083H379L382 1394V1536H479V1397L460 1083Z" />
<glyph unicode="#" glyph-name="numbersign" horiz-adv-x="1191" d="M954 945L871 504H1126V410H853L776 0H676L754 410H440L363 0H263L340 410H85V504H358L441 945H161V1040H459L537 1456H637L559 1040H873L951 1456H1051L972 1040H1201V945H954ZM855 945H541L458
504H772L855 945Z" />
<glyph unicode="$" glyph-name="dollar" horiz-adv-x="1136" d="M1021 251T974 169T841 39T638 -19V-208H536V-20Q421 -12 327 34T174 176T116 419H235Q235 298 285 223T414 117T581 85Q679 85 752 121T863 220T902 359Q902 434 871 488T770 587T575 674Q438 718
350 770T215 901T167 1095Q167 1203 212 1285T342 1417T539 1475V1677H641V1475Q817 1459 914 1344T1011 1028H892Q892 1128 857 1205T753 1327T588 1371Q489 1371 421 1335T320 1236T287 1098Q287 1021 314 968T413 870T616 781Q753 735 839 684T973 554T1021
361Q1021 251 974 169Z" />
<glyph unicode="%" glyph-name="percent" horiz-adv-x="1514" d="M110 1259T145 1327T245 1436T395 1477Q480 1477 544 1437T644 1328T680 1176V1099Q680 1017 645 949T546 840T397 800Q311 800 246 840T146 948T110 1099V1176Q110 1259 145 1327ZM206 1043T227
995T292 917T397 887Q457 887 499 916T562 994T583 1099V1176Q583 1233 562 1281T499 1360T395 1390Q335 1390 292 1360T228 1281T206 1176V1099Q206 1043 227 995ZM360 169L1071 1307L1146 1259L435 121L360 169ZM842 439T877 507T977 616T1127 657Q1212 657 1277
617T1377 508T1412 357V279Q1412 197 1377 129T1278 20T1129 -21Q1043 -21 978 19T878 128T842 279V357Q842 439 877 507ZM939 223T960 175T1024 96T1129 66Q1189 66 1231 95T1294 173T1315 279V357Q1315 416 1294 464T1231 541T1127 570Q1067 570 1025 541T961
464T939 357V279Q939 223 960 175Z" />
<glyph unicode="&amp;" glyph-name="ampersand" horiz-adv-x="1261" d="M1087 0L961 146Q881 67 778 24T561 -20Q423 -20 321 29T163 166T108 371Q108 454 143 524T239 655T390 785L404 795Q320 898 280 979T239 1145Q239 1246 280 1321T396 1436T573 1477Q668
1477 738 1439T846 1335T884 1191Q884 1102 830 1027T690 886L559 785L959 318Q1050 466 1050 652H1161Q1161 403 1032 233L1232 0H1087ZM359 1085T393 1015T493 862L625 961Q695 1013 733 1067T771 1191Q771 1240 748 1282T680 1349T573 1375Q505 1375 457 1345T384
1263T359 1149Q359 1085 393 1015ZM652 82T737 120T890 229L484 701L470 717L423 681Q308 587 268 512T228 371Q228 292 265 227T377 122T561 82Q652 82 737 120Z" />
<glyph unicode="&apos;" glyph-name="quotesingle" horiz-adv-x="349" d="M209 1091H120L125 1387V1536H227V1396L209 1091Z" />
<glyph unicode="(" glyph-name="parenleft" horiz-adv-x="654" d="M141 835T208 1050T379 1417T593 1633L622 1551Q530 1487 447 1348T313 1012T261 592V572Q261 348 312 152T447 -185T622 -393L593 -470Q483 -405 379 -257T208 106T141 574V589Q141 835 208 1050Z" />
<glyph unicode=")" glyph-name="parenright" horiz-adv-x="668" d="M514 322T447 107T276 -257T62 -470L33 -393Q125 -328 208 -188T342 150T394 572V592Q394 814 342 1011T206 1350T33 1556L62 1633Q171 1568 275 1417T447 1051T514 589V574Q514 322 447 107Z" />
<glyph unicode="*" glyph-name="asterisk" horiz-adv-x="869" d="M29 1108L62 1209L393 1087L389 1456H494L485 1084L810 1211L843 1109L509 995L733 700L647 637L433 943L229 639L144 700L362 1001L29 1108Z" />
<glyph unicode="+" glyph-name="plus" horiz-adv-x="1156" d="M1074 628H630V146H510V628H76V741H510V1206H630V741H1074V628Z" />
<glyph unicode="," glyph-name="comma" horiz-adv-x="393" d="M272 -43T235 -128T132 -273L61 -221Q109 -156 131 -94T154 46V189H272V49Q272 -43 235 -128Z" />
<glyph unicode="-" glyph-name="hyphen" horiz-adv-x="586" d="M49 592V694H528V592H49Z" />
<glyph unicode="." glyph-name="period" horiz-adv-x="489" d="M269 156T292 133T316 73Q316 38 293 15T230 -9Q191 -9 169 14T146 73Q146 109 168 132T230 156Q269 156 292 133Z" />
<glyph unicode="/" glyph-name="slash" horiz-adv-x="814" d="M30 -125L638 1456H747L139 -125H30Z" />
<glyph unicode="0" glyph-name="zero" horiz-adv-x="1136" d="M1015 293T900 137T569 -20Q355 -20 238 137T120 608V853Q120 1166 236 1321T567 1477Q783 1477 899 1322T1015 853V608Q1015 293 900 137ZM896 1118T814 1246T567 1375Q405 1375 323 1247T240 868V594Q240
347 324 215T569 82Q732 82 814 213T896 594V868Q896 1118 814 1246Z" />
<glyph unicode="1" glyph-name="one" horiz-adv-x="1136" d="M574 0V1312L179 1165V1277L674 1462H694V0H574Z" />
<glyph unicode="2" glyph-name="two" horiz-adv-x="1136" d="M137 0V93L614 633Q748 785 802 884T857 1075Q857 1164 822 1231T718 1336T553 1374Q453 1374 379 1331T265 1211T225 1036H105Q105 1157 159 1257T315 1417T553 1476Q683 1476 778 1430T925 1295T977
1086Q977 966 901 839T691 560L284 102H1050V0H137Z" />
<glyph unicode="3" glyph-name="three" horiz-adv-x="1136" d="M875 708T943 616T1012 396Q1012 267 955 173T796 30T565 -20Q443 -20 337 27T165 168T99 395H219Q219 304 263 233T385 122T565 82Q721 82 807 162T893 392Q893 544 795 617T525 691H404V770V794H525Q633
794 710 831T826 933T866 1077Q866 1214 789 1294T560 1374Q468 1374 396 1338T282 1233T240 1074H121Q121 1190 178 1281T335 1424T560 1476Q688 1476 784 1429T932 1291T985 1073Q985 1007 957 943T872 828T736 746Q875 708 943 616Z" />
<glyph unicode="4" glyph-name="four" horiz-adv-x="1136" d="M1099 368H872V0H752V368H68V437L741 1456H841H872V470H1099V368ZM752 470V1302L699 1209L215 470H752Z" />
<glyph unicode="5" glyph-name="five" horiz-adv-x="1136" d="M290 1456H1018V1345H393L341 853Q385 885 458 909T615 934Q744 934 842 877T993 714T1047 464Q1047 320 1000 212T856 42T611 -20Q493 -20 397 24T241 160T168 383H283Q299 236 383 159T611 82Q765
82 846 180T927 462Q927 566 888 648T774 778T594 825Q497 825 435 799T313 720L219 747L290 1456Z" />
<glyph unicode="6" glyph-name="six" horiz-adv-x="1136" d="M748 956T843 892T985 719T1033 478Q1033 337 981 224T831 46T602 -20Q460 -20 353 51T188 245T130 515V643Q130 896 207 1080T440 1366T826 1467H844V1363H826Q654 1363 529 1293T334 1093T252 782Q312
865 406 910T614 956Q748 956 843 892ZM697 82T767 134T876 275T914 473Q914 579 878 665T771 803T595 854Q518 854 447 823T323 736T250 614V513Q250 382 296 284T423 134T602 82Q697 82 767 134Z" />
<glyph unicode="7" glyph-name="seven" horiz-adv-x="1136" d="M412 0H288L905 1354H77V1456H1034V1388L412 0Z" />
<glyph unicode="8" glyph-name="eight" horiz-adv-x="1136" d="M883 704T958 608T1033 386Q1033 257 973 166T807 27T570 -20Q437 -20 332 27T167 165T106 386Q106 512 180 608T379 748Q270 791 207 879T144 1082Q144 1205 198 1294T349 1429T568 1476Q690 1476
787 1430T939 1294T995 1082Q995 968 931 880T757 748Q883 704 958 608ZM263 997T302 933T410 833T569 798Q657 798 727 833T836 932T876 1082Q876 1166 836 1232T725 1336T568 1374Q480 1374 411 1339T302 1237T263 1082Q263 997 302 933ZM671 82T748 117T869
222T913 386Q913 477 868 547T745 657T568 696Q469 696 391 657T270 548T226 386Q226 290 269 222T390 118T570 82Q671 82 748 117Z" />
<glyph unicode="9" glyph-name="nine" horiz-adv-x="1136" d="M694 1476T798 1403T953 1199T1005 895V779Q1005 -11 328 -11H302L303 93H328Q873 93 885 675Q824 584 728 531T519 477Q388 477 294 545T151 725T102 965Q102 1106 155 1222T307 1407T541 1476Q694
1476 798 1403ZM621 580T692 616T812 710T885 837V907Q885 1057 842 1161T722 1319T544 1373Q446 1373 373 1318T260 1171T220 970Q220 868 257 779T365 635T534 580Q621 580 692 616Z" />
<glyph unicode=":" glyph-name="colon" horiz-adv-x="430" d="M506 156T529 133T553 73Q553 38 530 15T467 -9Q428 -9 406 14T383 73Q383 109 405 132T467 156Q506 156 529 133ZM252 1079T275 1056T299 996Q299 961 276 938T213 914Q174 914 152 937T129 996Q129
1032 151 1055T213 1079Q252 1079 275 1056Z" />
<glyph unicode=";" glyph-name="semicolon" horiz-adv-x="399" d="M241 1079T264 1056T288 996Q288 961 265 938T202 914Q163 914 141 937T118 996Q118 1032 140 1055T202 1079Q241 1079 264 1056ZM272 -43T235 -128T132 -273L61 -221Q109 -156 131 -94T154 46V189H272V49Q272
-43 235 -128Z" />
<glyph unicode="&lt;" glyph-name="less" horiz-adv-x="1047" d="M905 958L209 656L905 356V230L77 609V687V705L905 1083V958Z" />
<glyph unicode="=" glyph-name="equal" horiz-adv-x="1133" d="M150 829V935H984V829H150ZM150 418V524H984V418H150Z" />
<glyph unicode="&gt;" glyph-name="greater" horiz-adv-x="1062" d="M969 708V629V611L124 232V356L835 660L124 962V1086L969 708Z" />
<glyph unicode="?" glyph-name="question" horiz-adv-x="930" d="M377 490T392 548T442 656T541 767Q613 838 646 877T702 971T724 1102Q724 1225 659 1297T472 1370Q395 1370 335 1340T240 1252T204 1116H84Q85 1227 137 1308T276 1433T472 1476Q589 1476 673
1430T800 1299T844 1103Q844 1018 815 947T736 814T608 681Q548 629 522 560T496 405H376Q377 490 392 548ZM480 151T502 129T525 71Q525 37 503 14T442 -9Q405 -9 383 13T360 71Q360 106 382 128T442 151Q480 151 502 129Z" />
<glyph unicode="@" glyph-name="at" horiz-adv-x="1871" d="M1236 1421T1408 1320T1666 1030T1752 580Q1752 536 1751 513Q1746 378 1704 257T1575 58T1362 -20Q1266 -20 1205 31T1123 176Q1070 80 993 30T824 -20Q740 -20 681 25T591 153T560 348Q560 373 564
427Q579 595 641 722T797 919T999 989Q1062 989 1109 975T1189 940T1268 881L1218 311Q1216 279 1216 266Q1216 151 1264 109T1374 66Q1460 66 1522 124T1618 283T1658 513Q1660 567 1660 593Q1660 945 1492 1136T981 1327Q768 1327 600 1222T333 925T222 478Q220
434 220 413Q220 181 300 6T535 -267T903 -364Q992 -364 1082 -343T1234 -285L1264 -364Q1200 -406 1098 -429T899 -453Q657 -453 482 -348T214 -48T121 416Q121 457 122 478Q134 757 244 970T546 1302T985 1421Q1236 1421 1408 1320ZM928 78T1000 136T1119 333L1164
848Q1097 898 1005 898Q923 898 853 846T734 687T671 427Q667 390 667 347Q667 222 713 150T846 78Q928 78 1000 136Z" />
<glyph unicode="A" glyph-name="A" horiz-adv-x="1280" d="M971 408H309L159 0H31L581 1456H671H698L1249 0H1121L971 408ZM932 513L640 1306L348 513H932Z" />
<glyph unicode="B" glyph-name="B" horiz-adv-x="1255" d="M945 742T1009 692T1108 568T1143 410Q1143 280 1085 188T922 48T677 0H237H185V1456H615Q843 1456 966 1363T1090 1076Q1090 964 1029 880T860 760Q945 742 1009 692ZM308 1351V804H627Q790 804 878
874T966 1078Q966 1217 879 1284T615 1351H308ZM783 104T860 140T978 245T1019 408Q1019 493 983 559T871 663T686 701H308V104H677Q783 104 860 140Z" />
<glyph unicode="C" glyph-name="C" horiz-adv-x="1330" d="M1192 229T1055 105T680 -20Q516 -20 392 62T200 293T132 637V819Q132 1015 200 1163T394 1394T688 1476Q842 1476 955 1420T1134 1258T1215 1001H1092Q1045 1371 688 1371Q555 1371 457 1303T307 1110T255
821V637Q255 476 305 351T451 155T680 84Q870 84 969 175T1092 454H1215Q1192 229 1055 105Z" />
<glyph unicode="D" glyph-name="D" horiz-adv-x="1342" d="M772 1456T913 1374T1134 1142T1213 795V661Q1213 464 1134 314T912 82T583 0H253H185V1456H308H592Q772 1456 913 1374ZM1091 797Q1091 963 1029 1088T854 1282T592 1351H308V104H583Q737 104 852 174T1029
370T1091 661V797Z" />
<glyph unicode="E" glyph-name="E" horiz-adv-x="1165" d="M1090 104V0H271H185V1456H308H1085V1351H308V803H988V698H308V104H1090Z" />
<glyph unicode="F" glyph-name="F" horiz-adv-x="1152" d="M308 1351V786H986V680H308V0H185V1456H308H1087V1351H308Z" />
<glyph unicode="G" glyph-name="G" horiz-adv-x="1401" d="M1204 130T1142 86T975 11T729 -20Q558 -20 426 61T219 294T145 645V822Q145 1021 213 1168T409 1396T710 1476Q867 1476 979 1421T1154 1269T1234 1046H1111Q1087 1191 991 1281T710 1371Q570 1371 471
1303T321 1112T269 824V645Q269 477 326 350T487 154T730 84Q833 84 911 104T1039 152T1113 211V587H722V692H1235V174Q1204 130 1142 86Z" />
<glyph unicode="H" glyph-name="H" horiz-adv-x="1449" d="M1263 1456V0H1140V698H308V0H185V1456H308V803H1140V1456H1263Z" />
<glyph unicode="I" glyph-name="I" horiz-adv-x="546" d="M212 0V1456H335V0H212Z" />
<glyph unicode="J" glyph-name="J" horiz-adv-x="1128" d="M951 1456V434Q951 291 895 189T739 33T511 -20Q378 -20 280 26T127 167T72 402H195Q195 246 277 165T511 84Q601 84 673 124T786 243T828 434V1456H951Z" />
<glyph unicode="K" glyph-name="K" horiz-adv-x="1292" d="M513 723L308 522V0H185V1456H308V673L506 879L1053 1456H1208L598 809L1256 0H1106L513 723Z" />
<glyph unicode="L" glyph-name="L" horiz-adv-x="1080" d="M1027 104V0H272H185V1456H309V104H1027Z" />
<glyph unicode="M" glyph-name="M" horiz-adv-x="1772" d="M1587 0H1464V637L1475 1284L932 0H837L297 1280L308 637V0H185V1456H294H347L885 172L1423 1456H1587V0Z" />
<glyph unicode="N" glyph-name="N" horiz-adv-x="1455" d="M1145 0L309 1246V0H185V1456H309L1146 210V1456H1269V0H1145Z" />
<glyph unicode="O" glyph-name="O" horiz-adv-x="1387" d="M1260 448T1191 297T993 63T694 -20Q526 -20 397 62T197 297T126 650V806Q126 1007 196 1159T395 1393T692 1476Q863 1476 991 1394T1190 1160T1260 806V650Q1260 448 1191 297ZM1138 980T1085 1106T932
1300T692 1368Q556 1368 456 1300T303 1106T249 808V650Q249 478 303 352T457 157T694 88Q834 88 934 156T1086 350T1138 650V808Q1138 980 1085 1106Z" />
<glyph unicode="P" glyph-name="P" horiz-adv-x="1261" d="M838 1456T948 1402T1114 1250T1171 1022Q1171 887 1115 791T949 644T681 593H308V0H185V1456H681Q838 1456 948 1402ZM866 698T957 786T1048 1020Q1048 1113 1009 1187T888 1306T681 1351H308V698H681Q866
698 957 786Z" />
<glyph unicode="Q" glyph-name="Q" horiz-adv-x="1387" d="M1256 441T1183 287T974 53L1239 -178L1154 -255L858 3Q778 -20 690 -20Q521 -20 392 62T192 297T121 650V806Q121 1007 191 1159T390 1393T688 1476Q859 1476 987 1394T1186 1160T1256 806V650Q1256
441 1183 287ZM829 88T929 156T1081 350T1133 650V808Q1133 980 1081 1106T928 1300T688 1368Q552 1368 452 1300T299 1106T245 808V650Q245 478 299 352T453 157T690 88Q829 88 929 156Z" />
<glyph unicode="R" glyph-name="R" horiz-adv-x="1301" d="M1212 13V0H1080L729 607H305V0H182V1456H655Q807 1456 918 1407T1089 1261T1149 1027Q1149 932 1112 852T1006 716T847 633L1212 13ZM682 711Q792 711 869 754T986 870T1026 1027Q1026 1127 983 1200T857
1312T655 1351H305V711H682Z" />
<glyph unicode="S" glyph-name="S" horiz-adv-x="1213" d="M453 729T350 781T191 911T135 1100Q135 1211 197 1296T370 1428T624 1476Q773 1476 886 1419T1061 1262T1123 1041H1000Q1000 1136 955 1211T825 1328T624 1371Q508 1371 426 1335T301 1239T259 1103Q259
1031 296 977T418 877T649 793Q812 749 917 693T1077 556T1133 360Q1133 244 1069 158T891 26T632 -20Q494 -20 370 27T167 172T88 416H212Q212 300 272 226T428 118T632 84Q745 84 830 118T962 214T1009 358Q1009 440 972 496T850 597T611 685Q453 729 350 781Z"
/>
<glyph unicode="T" glyph-name="T" horiz-adv-x="1223" d="M1172 1351H673V0H551V1351H52V1456H673H1172V1351Z" />
<glyph unicode="U" glyph-name="U" horiz-adv-x="1347" d="M1187 470Q1187 311 1120 201T936 36T674 -20Q526 -20 411 35T229 200T163 470V1456H285V470Q285 346 334 259T472 128T674 84Q789 84 877 128T1014 259T1064 470V1456H1187V470Z" />
<glyph unicode="V" glyph-name="V" horiz-adv-x="1264" d="M1233 1456L691 0H591H573L32 1456H166L623 181L632 150L640 181L1099 1456H1233Z" />
<glyph unicode="W" glyph-name="W" horiz-adv-x="1836" d="M1783 1456L1411 0H1312H1293L962 1139L926 1284L889 1139L552 0H457H434L61 1456H187L453 393L499 167L554 384L870 1456H969H981L1292 384L1347 166L1394 394L1657 1456H1783Z" />
<glyph unicode="X" glyph-name="X" horiz-adv-x="1254" d="M1037 1456H1184L702 739L1199 0H1052L628 636L202 0H56L553 739L71 1456H218L628 840L1037 1456Z" />
<glyph unicode="Y" glyph-name="Y" horiz-adv-x="1227" d="M1056 1456H1199L673 549V0H550V549L24 1456H170L611 662L1056 1456Z" />
<glyph unicode="Z" glyph-name="Z" horiz-adv-x="1225" d="M1138 0H135H90V93L955 1352H117V1456H1052H1106V1368L240 104H1138V0Z" />
<glyph unicode="[" glyph-name="bracketleft" horiz-adv-x="491" d="M284 1562V-210H494V-312H164V1664H494V1562H284Z" />
<glyph unicode="\" glyph-name="backslash" horiz-adv-x="807" d="M166 1456L774 -125H657L49 1456H166Z" />
<glyph unicode="]" glyph-name="bracketright" horiz-adv-x="491" d="M331 1664V-312H1V-210H211V1562H1V1664H331Z" />
<glyph unicode="^" glyph-name="asciicircum" horiz-adv-x="853" d="M649 729L421 1299L193 729H78L377 1456H456H466L765 729H649Z" />
<glyph unicode="_" glyph-name="underscore" horiz-adv-x="885" d="M2 -102V0H883V-102H2Z" />
<glyph unicode="`" glyph-name="grave" horiz-adv-x="585" d="M330 1257L103 1536H248L439 1257H330Z" />
<glyph unicode="a" glyph-name="a" horiz-adv-x="1098" d="M935 167T943 108T968 13V0H840Q821 53 816 151Q757 75 664 28T450 -20Q346 -20 267 19T145 129T101 287Q101 392 160 469T331 588T594 630H815V752Q815 869 743 935T536 1002Q454 1002 388 973T284 893T246
783L126 784Q126 865 179 938T327 1057T541 1102Q658 1102 747 1063T885 944T935 750V227Q935 167 943 108ZM588 86T681 145T815 299V538H610Q488 538 401 509T267 426T220 297Q220 238 250 190T335 114T463 86Q588 86 681 145Z" />
<glyph unicode="b" glyph-name="b" horiz-adv-x="1135" d="M743 1102T836 1035T979 843T1028 551V530Q1028 368 979 244T837 50T615 -20Q499 -20 414 24T273 149L267 0H155V1536H275V926Q330 1011 414 1056T613 1102Q743 1102 836 1035ZM907 551Q907 752 829 875T590
998Q466 998 390 937T275 777V288Q316 196 395 140T592 84Q697 84 768 141T873 299T907 530V551Z" />
<glyph unicode="c" glyph-name="c" horiz-adv-x="1056" d="M972 335Q967 234 910 153T760 26T557 -20Q409 -20 305 50T148 243T95 520V562Q95 716 148 838T305 1031T555 1102Q671 1102 764 1055T912 921T972 718H858Q853 804 813 867T705 965T555 1000Q438 1000
362 941T250 782T214 562V520Q214 398 249 300T361 142T557 82Q634 82 700 111T809 198T858 335H972Z" />
<glyph unicode="d" glyph-name="d" horiz-adv-x="1138" d="M980 1536V0H868L862 145Q807 66 723 23T524 -20Q399 -20 305 49T160 244T109 530V551Q109 718 159 842T304 1034T526 1102Q638 1102 721 1058T860 931V1536H980ZM662 84T739 136T860 279V789Q820 882
745 940T549 998Q443 998 371 940T264 782T229 551V530Q229 401 264 300T370 142T547 84Q662 84 739 136Z" />
<glyph unicode="e" glyph-name="e" horiz-adv-x="1059" d="M210 534V511Q210 392 257 294T388 138T580 81Q677 81 751 116T883 229L959 172Q900 85 806 33T575 -20Q436 -20 326 48T153 237T90 511V554Q90 716 153 841T323 1034T554 1102Q688 1102 785 1039T932
864T982 607V534H210ZM464 1000T392 955T273 828T215 636H862V649Q860 743 825 823T720 951T554 1000Q464 1000 392 955Z" />
<glyph unicode="f" glyph-name="f" horiz-adv-x="678" d="M473 1452T418 1391T362 1217V1082H621V984H362V0H243V984H63V1082H243V1217Q243 1380 327 1468T562 1557Q630 1557 690 1540L681 1440Q631 1452 571 1452Q473 1452 418 1391Z" />
<glyph unicode="g" glyph-name="g" horiz-adv-x="1137" d="M980 1082V19Q980 -120 927 -222T775 -378T546 -432Q439 -432 336 -384T169 -247L236 -174Q300 -254 375 -292T539 -330Q692 -330 776 -239T860 15V141Q804 64 720 22T524 -20Q398 -20 304 49T160 244T109
530V551Q109 718 159 842T303 1034T526 1102Q640 1102 724 1057T863 926L868 1082H980ZM664 84T741 137T860 284V784Q822 879 747 938T549 998Q443 998 371 940T264 782T229 551V530Q229 401 264 300T370 142T547 84Q664 84 741 137Z" />
<glyph unicode="h" glyph-name="h" horiz-adv-x="1125" d="M796 1102T884 1007T973 705V0H853V705Q853 865 788 932T598 999Q481 999 398 926T276 743V0H156V1536H276V901Q334 995 425 1048T628 1102Q796 1102 884 1007Z" />
<glyph unicode="i" glyph-name="i" horiz-adv-x="460" d="M269 1476T291 1453T314 1395Q314 1361 292 1339T231 1316Q194 1316 172 1338T149 1395Q149 1430 171 1453T231 1476Q269 1476 291 1453ZM171 0V1082H290V0H171Z" />
<glyph unicode="j" glyph-name="j" horiz-adv-x="468" d="M264 1476T287 1453T310 1395Q310 1361 287 1339T227 1316Q190 1316 168 1338T145 1395Q145 1430 167 1453T227 1476Q264 1476 287 1453ZM286 -129Q286 -278 213 -357T2 -437Q-24 -437 -52 -432T-104 -418L-103
-319Q-55 -333 -13 -333Q74 -333 120 -282T166 -129V1082H286V-129Z" />
<glyph unicode="k" glyph-name="k" horiz-adv-x="1004" d="M413 545L276 414V0H157V1536H276V554L389 676L804 1082H955L496 626L995 0H851L413 545Z" />
<glyph unicode="l" glyph-name="l" horiz-adv-x="460" d="M171 0V1536H290V0H171Z" />
<glyph unicode="m" glyph-name="m" horiz-adv-x="1816" d="M1488 1102T1578 1006T1668 705V0H1549V706Q1549 867 1482 933T1289 999Q1193 999 1123 957T1013 849T968 716V0H848V716Q848 869 780 934T585 999Q459 999 382 927T270 744V0H150V1082H266L269 907Q325
999 414 1050T620 1102Q743 1102 826 1051T944 893Q998 988 1093 1045T1314 1102Q1488 1102 1578 1006Z" />
<glyph unicode="n" glyph-name="n" horiz-adv-x="1126" d="M796 1102T884 1007T973 705V0H853V705Q853 865 788 932T598 999Q481 999 398 926T276 743V0H156V1082H271L275 899Q333 994 424 1048T628 1102Q796 1102 884 1007Z" />
<glyph unicode="o" glyph-name="o" horiz-adv-x="1148" d="M91 714T151 838T320 1032T573 1102Q717 1102 827 1032T997 838T1057 557V525Q1057 368 997 244T828 50T575 -20Q431 -20 321 50T151 244T91 525V557Q91 714 151 838ZM211 404T253 303T378 142T575 82Q688
82 770 142T894 303T937 525V557Q937 676 894 777T769 939T573 1000Q460 1000 378 939T254 777T211 557V525Q211 404 253 303Z" />
<glyph unicode="p" glyph-name="p" horiz-adv-x="1135" d="M1027 530Q1027 368 978 244T836 50T614 -20Q502 -20 417 21T275 137V-416H155V1082H267L273 929Q329 1013 414 1057T612 1102Q742 1102 835 1035T978 843T1027 551V530ZM907 551Q907 680 872 781T764
940T585 998Q465 998 390 941T275 792V271Q318 183 395 133T587 82Q693 82 764 140T871 299T907 530V551Z" />
<glyph unicode="q" glyph-name="q" horiz-adv-x="1143" d="M979 1082V-416H860V134Q804 60 720 20T526 -20Q397 -20 303 49T159 243T109 530V551Q109 719 159 843T303 1034T528 1102Q639 1102 722 1059T862 936L867 1082H979ZM662 82T739 132T860 269V798Q818
887 742 943T551 1000Q445 1000 373 942T265 782T229 551V530Q229 401 264 300T371 140T549 82Q662 82 739 132Z" />
<glyph unicode="r" glyph-name="r" horiz-adv-x="690" d="M656 981Q610 988 576 988Q459 988 383 923T276 746V0H156V1082H273L276 912Q321 1002 397 1052T580 1102Q601 1102 624 1099T660 1090L656 981Z" />
<glyph unicode="s" glyph-name="s" horiz-adv-x="1038" d="M387 531T306 568T181 663T138 808Q138 889 185 956T318 1062T519 1102Q642 1102 732 1061T871 946T919 779H798Q798 836 765 887T669 969T519 1000Q430 1000 372 973T285 903T257 812Q257 760 279 724T365
658T546 601Q680 570 762 529T885 428T925 282Q925 194 876 125T736 18T526 -20Q394 -20 298 24T152 143T102 304H221Q229 187 317 135T526 82Q614 82 677 109T772 180T805 276Q805 353 743 411T515 504Q387 531 306 568Z" />
<glyph unicode="t" glyph-name="t" horiz-adv-x="659" d="M586 -4Q565 -11 530 -15T458 -20Q346 -20 284 45T222 264V984H24V1082H222V1360H343V1082H566V984H343V264Q343 160 380 123T483 85Q519 85 581 96L586 -4Z" />
<glyph unicode="u" glyph-name="u" horiz-adv-x="1125" d="M970 1082V0H855L852 137Q745 -20 508 -20Q340 -20 246 78T152 390V1082H272V388Q272 226 340 155T522 84Q658 84 738 141T850 298V1082H970Z" />
<glyph unicode="v" glyph-name="v" horiz-adv-x="985" d="M946 1082L541 0H453H444L38 1082H162L494 165L822 1082H946Z" />
<glyph unicode="w" glyph-name="w" horiz-adv-x="1545" d="M1474 1082L1159 0H1073H1057L778 859L766 918L752 858L479 0H395H377L63 1082H186L416 249L433 157L457 254L717 1082H803H820L1076 261L1105 148L1127 252L1350 1082H1474Z" />
<glyph unicode="x" glyph-name="x" horiz-adv-x="997" d="M789 1082H931L564 551L946 0H806L497 458L190 0H48L431 551L64 1082H205L496 644L789 1082Z" />
<glyph unicode="y" glyph-name="y" horiz-adv-x="974" d="M944 1082L486 -174Q460 -244 428 -299T335 -395T183 -437Q164 -437 135 -433T91 -424V-324Q101 -327 120 -329T152 -331Q246 -331 299 -284T388 -135L441 9L33 1082H163L500 173L815 1082H944Z" />
<glyph unicode="z" glyph-name="z" horiz-adv-x="997" d="M939 102V0H131H88V89L743 979H108V1082H841H894V994L237 102H939Z" />
<glyph unicode="{" glyph-name="braceleft" horiz-adv-x="677" d="M419 -85T478 -183T667 -325L637 -405Q455 -351 378 -232T300 59V285Q300 408 244 475T69 543V625V648Q187 648 243 715T300 905V1132Q300 1303 377 1423T637 1597L664 1518Q536 1478 478 1378T419
1132V905Q419 795 375 714T237 595Q329 557 374 476T419 285V59Q419 -85 478 -183Z" />
<glyph unicode="|" glyph-name="bar" horiz-adv-x="453" d="M178 -270V1456H280V-270H178Z" />
<glyph unicode="}" glyph-name="braceright" horiz-adv-x="677" d="M376 783T432 716T607 648V571V543Q489 543 433 476T376 285V59Q376 -113 299 -232T39 -405L10 -325Q137 -282 197 -183T257 59V285Q257 397 304 478T450 595Q352 630 305 711T257 905V1132Q257
1277 199 1377T13 1518L39 1597Q222 1543 299 1424T376 1132V905Q376 783 432 716Z" />
<glyph unicode="~" glyph-name="asciitilde" horiz-adv-x="1403" d="M1255 672T1219 594T1116 470T958 423Q901 423 854 439T763 485T660 568Q592 630 545 655T441 681Q352 681 303 621T254 450L146 449Q146 544 181 621T283 743T441 788Q524 788 589 754T740
643Q808 581 855 556T958 530Q1048 530 1099 593T1150 765H1255Q1255 672 1219 594Z" />
<glyph unicode="&#xa1;" glyph-name="exclamdown" horiz-adv-x="453" d="M186 942T164 965T141 1023Q141 1057 163 1079T224 1102Q261 1102 283 1080T306 1023Q306 988 284 965T224 942Q186 942 164 965ZM286 690L292 -360H168L175 690H286Z" />
<glyph unicode="&#xa2;" glyph-name="cent" horiz-adv-x="1115" d="M658 82T725 111T834 198T883 335H997Q993 243 944 167T815 42T637 -17V-245H517V-16Q390 -1 301 72T166 261T120 520V562Q120 705 165 821T300 1010T517 1098V1318H637V1099Q738 1087 818 1038T945
906T997 718H883Q878 804 837 867T729 965T580 1000Q463 1000 387 941T275 782T239 562V520Q239 398 274 300T385 142T581 82Q658 82 725 111Z" />
<glyph unicode="&#xa3;" glyph-name="sterling" horiz-adv-x="1170" d="M244 118T268 197T290 368L281 645H93V750H278L269 1039Q269 1175 320 1273T462 1424T674 1476Q797 1476 885 1428T1020 1291T1067 1088H945Q945 1185 908 1248T807 1342T666 1372Q584 1372
523 1333T427 1219T392 1039L401 750H746V645H405L414 368Q415 284 399 217T349 104H1094V0H97V104H196Q244 118 268 197Z" />
<glyph unicode="&#xa4;" glyph-name="currency" horiz-adv-x="1481" d="M1335 501T1304 404T1214 225L1376 60L1289 -27L1132 133Q1052 60 952 20T740 -20Q630 -20 530 20T349 132L195 -26L110 60L268 222Q209 302 177 401T145 608Q145 722 179 823T278 1006L110
1178L195 1264L361 1094Q440 1161 537 1197T740 1234Q847 1234 944 1198T1120 1093L1289 1265L1376 1178L1204 1003Q1267 922 1301 821T1335 608Q1335 501 1304 404ZM870 91T980 160T1156 348T1221 608Q1221 748 1156 866T981 1054T740 1123Q610 1123 499 1054T323
867T258 608Q258 467 323 349T499 161T740 91Q870 91 980 160Z" />
<glyph unicode="&#xa5;" glyph-name="yen" horiz-adv-x="1057" d="M587 617V413H945V324H587V0H463V324H109V413H463V617H109V706H423L24 1456H163L528 731L893 1456H1030L632 706H945V617H587Z" />
<glyph unicode="&#xa6;" glyph-name="brokenbar" horiz-adv-x="445" d="M160 698V1456H280V698H160ZM160 501H280V-270H160V501Z" />
<glyph unicode="&#xa7;" glyph-name="section" horiz-adv-x="1240" d="M982 110T1028 40T1075 -139Q1075 -250 1018 -330T854 -452T606 -495Q472 -495 359 -453T174 -314T103 -64L223 -62Q223 -181 278 -255T421 -361T606 -393Q715 -393 794 -361T914 -271T955
-141Q955 -70 923 -22T812 66T585 147Q426 187 324 236T165 361T109 551Q109 649 167 720T332 825Q243 875 199 945T154 1120Q154 1227 212 1307T376 1432T624 1476Q772 1476 878 1426T1040 1280T1097 1045H978Q978 1137 937 1212T815 1331T624 1375Q507 1375 429
1342T312 1251T274 1123Q274 1046 305 998T414 911T646 829Q811 785 911 739T1065 619T1120 431Q1120 334 1059 263T888 159Q982 110 1028 40ZM229 473T262 425T379 337T630 251Q700 232 755 214Q870 228 935 286T1000 428Q1000 502 964 552T841 643T596 730Q520
749 455 772Q343 758 286 699T229 553Q229 473 262 425Z" />
<glyph unicode="&#xa8;" glyph-name="dieresis" horiz-adv-x="881" d="M258 1477T280 1455T303 1397Q303 1363 281 1340T220 1317Q182 1317 160 1339T138 1397Q138 1432 160 1454T220 1477Q258 1477 280 1455ZM695 1477T717 1454T740 1396Q740 1361 718 1339T657
1317Q620 1317 598 1339T575 1396Q575 1431 597 1454T657 1477Q695 1477 717 1454Z" />
<glyph unicode="&#xa9;" glyph-name="copyright" horiz-adv-x="1638" d="M1011 1476T1173 1378T1431 1108T1527 729Q1527 521 1432 350T1173 79T817 -21Q624 -21 461 78T203 349T107 729Q107 936 202 1107T461 1377T817 1476Q1011 1476 1173 1378ZM986 66T1129
154T1357 394T1441 729Q1441 912 1357 1063T1130 1302T817 1390Q648 1390 505 1303T277 1064T193 729Q193 546 277 394T504 154T817 66Q986 66 1129 154ZM1122 453T1039 373T807 293Q707 293 632 341T515 478T474 680V777Q474 891 515 978T631 1115T807 1164Q955
1164 1039 1084T1123 851H1024Q1024 1074 807 1074Q734 1074 682 1036T602 930T574 778V680Q574 594 601 527T681 422T807 384Q914 384 968 438T1023 607H1122Q1122 453 1039 373Z" />
<glyph unicode="&#xaa;" glyph-name="ordfeminine" horiz-adv-x="907" d="M649 705Q634 753 629 800Q593 752 536 722T407 691Q288 691 223 750T158 909Q158 1020 242 1080T487 1141H626V1201Q626 1287 585 1333T464 1380Q373 1380 323 1344T272 1237L164 1243Q164
1310 201 1363T307 1446T464 1476Q588 1476 661 1405T735 1200V886Q735 789 761 705H649ZM484 787T541 818T626 891V1058H488Q379 1058 323 1021T266 913Q266 854 305 821T427 787Q484 787 541 818Z" />
<glyph unicode="&#xab;" glyph-name="guillemotleft" horiz-adv-x="933" d="M248 792L524 404H418L123 783V796V802L418 1181H524L248 792ZM557 536L833 148H727L432 527V540V546L727 925H833L557 536Z" />
<glyph unicode="&#xac;" glyph-name="logicalnot" horiz-adv-x="1118" d="M937 776V670V386H817V670H125V776H937Z" />
<glyph unicode="&#xad;" glyph-name="uni00AD" horiz-adv-x="600" d="M49 592V694H528V592H49Z" />
<glyph unicode="&#xae;" glyph-name="registered" horiz-adv-x="1642" d="M1006 1476T1168 1378T1426 1108T1522 729Q1522 521 1427 350T1169 79T813 -21Q619 -21 457 78T199 349T103 729Q103 937 198 1108T456 1377T813 1476Q1006 1476 1168 1378ZM982 66T1125
154T1353 394T1437 729Q1437 912 1353 1063T1126 1302T813 1390Q643 1390 500 1303T272 1064T188 729Q188 546 272 394T499 154T813 66Q982 66 1125 154ZM1103 465Q1103 381 1120 338V322H1018Q1004 356 1004 466V509Q1004 593 966 630T838 667H651V322H553V1161H810Q958
1161 1037 1098T1116 913Q1116 780 975 716Q1103 671 1103 510V465ZM911 759T964 799T1018 911Q1018 968 999 1002T934 1053T810 1070H651V758H831Q911 759 964 799Z" />
<glyph unicode="&#xaf;" glyph-name="overscore" horiz-adv-x="875" d="M137 1344V1441H757V1344H137Z" />
<glyph unicode="&#xb0;" glyph-name="degree" horiz-adv-x="774" d="M454 1476T509 1442T597 1351T630 1227Q630 1159 598 1103T510 1013T389 980Q322 980 266 1013T176 1102T143 1227Q143 1294 176 1351T266 1442T389 1476Q454 1476 509 1442ZM432 1071T466 1091T521
1147T541 1227Q541 1272 521 1308T467 1365T389 1386Q346 1386 311 1365T254 1308T233 1227Q233 1183 253 1148T310 1092T389 1071Q432 1071 466 1091Z" />
<glyph unicode="&#xb1;" glyph-name="plusminus" horiz-adv-x="1086" d="M1001 829V728H610V289H499V728H85V829H499V1267H610V829H1001ZM129 102H964V0H129V102Z" />
<glyph unicode="&#xb2;" glyph-name="uni00B2" horiz-adv-x="740" d="M96 665V741L385 1024Q458 1094 490 1144T522 1238Q522 1302 481 1339T363 1377Q275 1377 229 1333T182 1216H76Q76 1285 110 1341T210 1431T361 1465Q484 1465 556 1405T628 1239Q628 1169
583 1105T443 951L230 753H667V665H96Z" />
<glyph unicode="&#xb3;" glyph-name="uni00B3" horiz-adv-x="740" d="M571 1048T611 1000T652 881Q652 810 615 759T512 681T364 654Q288 654 221 679T113 757T71 885H177Q177 844 201 811T269 760T367 741Q452 741 499 779T546 884Q546 957 493 991T346 1026H268V1084V1107H346Q434
1107 482 1145T530 1242Q530 1302 488 1339T362 1377Q288 1377 240 1342T191 1246H85Q85 1311 121 1361T221 1438T361 1465Q487 1465 561 1407T636 1244Q636 1187 598 1140T491 1069Q571 1048 611 1000Z" />
<glyph unicode="&#xb4;" glyph-name="acute" horiz-adv-x="577" d="M461 1536L229 1257H125L316 1536H461Z" />
<glyph unicode="&#xb6;" glyph-name="paragraph" horiz-adv-x="974" d="M681 520H575Q420 520 309 580T141 746T83 988Q83 1123 140 1229T309 1395T575 1456H802V0H681V520Z" />
<glyph unicode="&#xb7;" glyph-name="middot" horiz-adv-x="504" d="M287 801T310 777T334 717Q334 682 311 659T248 636Q209 636 186 659T163 717Q163 753 186 777T248 801Q287 801 310 777Z" />
<glyph unicode="&#xb8;" glyph-name="cedilla" horiz-adv-x="499" d="M235 -65Q307 -75 353 -114T400 -236Q400 -296 366 -341T265 -410T106 -435L99 -358Q181 -358 240 -328T300 -237Q300 -182 260 -160T125 -128L153 0H246L235 -65Z" />
<glyph unicode="&#xb9;" glyph-name="uni00B9" horiz-adv-x="740" d="M359 665V1328L127 1259V1349L451 1455H464V665H359Z" />
<glyph unicode="&#xba;" glyph-name="ordmasculine" horiz-adv-x="923" d="M135 1232T174 1310T287 1432T458 1476Q557 1476 630 1433T743 1311T782 1132V1033Q782 933 743 855T631 734T460 690Q362 690 288 733T175 855T135 1033V1132Q135 1232 174 1310ZM244
923T298 855T460 786Q564 786 619 855T674 1033V1132Q674 1241 619 1310T458 1380Q354 1380 299 1311T244 1132V1033Q244 923 298 855Z" />
<glyph unicode="&#xbb;" glyph-name="guillemotright" horiz-adv-x="929" d="M516 560V547V541L222 162H116L392 551L116 945H222L516 560ZM835 560V547V541L541 162H435L711 551L435 945H541L835 560Z" />
<glyph unicode="&#xbf;" glyph-name="questiondown" horiz-adv-x="941" d="M448 941T425 964T402 1022Q402 1056 424 1078T485 1101Q523 1101 545 1079T567 1022Q567 987 545 964T485 941Q448 941 425 964ZM550 600T539 550T498 458T404 352L383 331Q321 268 287
226T231 125T208 -9Q208 -137 276 -207T470 -277Q547 -277 606 -246T698 -157T733 -21H852Q851 -135 801 -216T664 -340T470 -383Q350 -383 264 -338T133 -209T88 -11Q88 80 120 157T205 300T337 438Q378 473 398 509T425 586T432 688H551Q550 600 539 550Z" />
<glyph unicode="&#xc0;" glyph-name="Agrave" horiz-adv-x="1280" d="M971 408H309L159 0H31L581 1456H671H698L1249 0H1121L971 408ZM932 513L640 1306L348 513H932ZM605 1572L378 1851H523L714 1572H605Z" />
<glyph unicode="&#xc1;" glyph-name="Aacute" horiz-adv-x="1280" d="M971 408H309L159 0H31L581 1456H671H698L1249 0H1121L971 408ZM932 513L640 1306L348 513H932ZM909 1851L678 1572H573L764 1851H909Z" />
<glyph unicode="&#xc2;" glyph-name="Acircumflex" horiz-adv-x="1280" d="M971 408H309L159 0H31L581 1456H671H698L1249 0H1121L971 408ZM932 513L640 1306L348 513H932ZM921 1574H811L642 1757L475 1574H367V1586L605 1841H681L921 1584V1574Z" />
<glyph unicode="&#xc3;" glyph-name="Atilde" horiz-adv-x="1280" d="M971 408H309L159 0H31L581 1456H671H698L1249 0H1121L971 408ZM932 513L640 1306L348 513H932ZM984 1748T958 1700T887 1625T788 1598Q739 1598 706 1613T634 1657Q599 1683 573 1695T510
1708Q463 1708 432 1676T400 1589L310 1593Q310 1655 336 1703T406 1778T506 1805Q549 1805 580 1791T656 1747Q692 1721 720 1708T783 1695Q830 1695 862 1729T894 1817L984 1811Q984 1748 958 1700Z" />
<glyph unicode="&#xc4;" glyph-name="Adieresis" horiz-adv-x="1280" d="M971 408H309L159 0H31L581 1456H671H698L1249 0H1121L971 408ZM932 513L640 1306L348 513H932ZM464 1792T486 1770T509 1712Q509 1678 487 1655T426 1632Q388 1632 366 1654T344 1712Q344
1747 366 1769T426 1792Q464 1792 486 1770ZM901 1792T923 1769T946 1711Q946 1676 924 1654T863 1632Q826 1632 804 1654T781 1711Q781 1746 803 1769T863 1792Q901 1792 923 1769Z" />
<glyph unicode="&#xc5;" glyph-name="Aring" horiz-adv-x="1280" d="M971 408H309L159 0H31L581 1456H671H698L1249 0H1121L971 408ZM932 513L640 1306L348 513H932ZM697 1906T741 1881T811 1812T837 1715Q837 1662 812 1620T742 1553T644 1528Q590 1528 546 1552T477
1619T451 1715Q451 1768 476 1811T546 1880T644 1906Q697 1906 741 1881ZM695 1600T727 1633T760 1715Q760 1766 728 1800T644 1834Q593 1834 560 1800T527 1715Q527 1667 560 1634T644 1600Q695 1600 727 1633Z" />
<glyph unicode="&#xc6;" glyph-name="AE" horiz-adv-x="1865" d="M1824 102V0H1091H1006L990 390H394L164 0H18L899 1456H983H1065H1762V1354H1069L1092 809H1681V708H1096L1122 102H1824ZM985 502L950 1331L461 502H985Z" />
<glyph unicode="&#xc7;" glyph-name="Ccedilla" horiz-adv-x="1330" d="M870 84T969 175T1092 454H1215Q1193 241 1068 118T728 -19L718 -75Q790 -85 836 -124T883 -246Q883 -306 849 -351T748 -420T589 -445L582 -368Q664 -368 723 -338T783 -247Q783 -192 743
-170T608 -138L634 -18Q483 -7 370 77T194 306T132 637V819Q132 1015 200 1163T394 1394T688 1476Q842 1476 955 1420T1134 1258T1215 1001H1092Q1045 1371 688 1371Q555 1371 457 1303T307 1110T255 821V637Q255 476 305 351T451 155T680 84Q870 84 969 175Z"
/>
<glyph unicode="&#xc8;" glyph-name="Egrave" horiz-adv-x="1165" d="M1090 104V0H271H185V1456H308H1085V1351H308V803H988V698H308V104H1090ZM582 1577L355 1856H500L691 1577H582Z" />
<glyph unicode="&#xc9;" glyph-name="Eacute" horiz-adv-x="1165" d="M1090 104V0H271H185V1456H308H1085V1351H308V803H988V698H308V104H1090ZM886 1856L655 1577H550L741 1856H886Z" />
<glyph unicode="&#xca;" glyph-name="Ecircumflex" horiz-adv-x="1165" d="M1090 104V0H271H185V1456H308H1085V1351H308V803H988V698H308V104H1090ZM897 1579H787L618 1762L451 1579H343V1591L581 1846H657L897 1589V1579Z" />
<glyph unicode="&#xcb;" glyph-name="Edieresis" horiz-adv-x="1165" d="M1090 104V0H271H185V1456H308H1085V1351H308V803H988V698H308V104H1090ZM441 1797T463 1775T486 1717Q486 1683 464 1660T403 1637Q365 1637 343 1659T321 1717Q321 1752 343 1774T403
1797Q441 1797 463 1775ZM878 1797T900 1774T923 1716Q923 1681 901 1659T840 1637Q803 1637 781 1659T758 1716Q758 1751 780 1774T840 1797Q878 1797 900 1774Z" />
<glyph unicode="&#xcc;" glyph-name="Igrave" horiz-adv-x="546" d="M212 0V1456H335V0H212ZM236 1577L9 1856H154L345 1577H236Z" />
<glyph unicode="&#xcd;" glyph-name="Iacute" horiz-adv-x="546" d="M212 0V1456H335V0H212ZM540 1856L309 1577H204L395 1856H540Z" />
<glyph unicode="&#xce;" glyph-name="Icircumflex" horiz-adv-x="546" d="M212 0V1456H335V0H212ZM552 1579H442L273 1762L106 1579H-2V1591L236 1846H312L552 1589V1579Z" />
<glyph unicode="&#xcf;" glyph-name="Idieresis" horiz-adv-x="546" d="M212 0V1456H335V0H212ZM95 1797T117 1775T140 1717Q140 1683 118 1660T57 1637Q19 1637 -3 1659T-25 1717Q-25 1752 -3 1774T57 1797Q95 1797 117 1775ZM532 1797T554 1774T577 1716Q577
1681 555 1659T494 1637Q457 1637 435 1659T412 1716Q412 1751 434 1774T494 1797Q532 1797 554 1774Z" />
<glyph unicode="&#xd0;" glyph-name="Eth" horiz-adv-x="1342" d="M772 1456T913 1374T1134 1142T1213 795V661Q1213 464 1134 314T912 82T583 0H253H185V690H34V792H185V1456H308H592Q772 1456 913 1374ZM1091 797Q1091 963 1029 1088T854 1282T592 1351H308V792H645V690H308V104H583Q737
104 852 174T1029 370T1091 661V797Z" />
<glyph unicode="&#xd1;" glyph-name="Ntilde" horiz-adv-x="1455" d="M1145 0L309 1246V0H185V1456H309L1146 210V1456H1269V0H1145ZM1068 1748T1042 1700T971 1625T872 1598Q823 1598 790 1613T718 1657Q683 1683 657 1695T594 1708Q547 1708 516 1676T484 1589L394
1593Q394 1655 420 1703T490 1778T590 1805Q633 1805 664 1791T740 1747Q776 1721 804 1708T867 1695Q914 1695 946 1729T978 1817L1068 1811Q1068 1748 1042 1700Z" />
<glyph unicode="&#xd2;" glyph-name="Ograve" horiz-adv-x="1387" d="M1260 448T1191 297T993 63T694 -20Q526 -20 397 62T197 297T126 650V806Q126 1007 196 1159T395 1393T692 1476Q863 1476 991 1394T1190 1160T1260 806V650Q1260 448 1191 297ZM1138 980T1085
1106T932 1300T692 1368Q556 1368 456 1300T303 1106T249 808V650Q249 478 303 352T457 157T694 88Q834 88 934 156T1086 350T1138 650V808Q1138 980 1085 1106ZM654 1584L427 1863H572L763 1584H654Z" />
<glyph unicode="&#xd3;" glyph-name="Oacute" horiz-adv-x="1387" d="M1260 448T1191 297T993 63T694 -20Q526 -20 397 62T197 297T126 650V806Q126 1007 196 1159T395 1393T692 1476Q863 1476 991 1394T1190 1160T1260 806V650Q1260 448 1191 297ZM1138 980T1085
1106T932 1300T692 1368Q556 1368 456 1300T303 1106T249 808V650Q249 478 303 352T457 157T694 88Q834 88 934 156T1086 350T1138 650V808Q1138 980 1085 1106ZM958 1863L727 1584H622L813 1863H958Z" />
<glyph unicode="&#xd4;" glyph-name="Ocircumflex" horiz-adv-x="1387" d="M1260 448T1191 297T993 63T694 -20Q526 -20 397 62T197 297T126 650V806Q126 1007 196 1159T395 1393T692 1476Q863 1476 991 1394T1190 1160T1260 806V650Q1260 448 1191 297ZM1138
980T1085 1106T932 1300T692 1368Q556 1368 456 1300T303 1106T249 808V650Q249 478 303 352T457 157T694 88Q834 88 934 156T1086 350T1138 650V808Q1138 980 1085 1106ZM970 1586H860L691 1769L524 1586H416V1598L654 1853H730L970 1596V1586Z" />
<glyph unicode="&#xd5;" glyph-name="Otilde" horiz-adv-x="1387" d="M1260 448T1191 297T993 63T694 -20Q526 -20 397 62T197 297T126 650V806Q126 1007 196 1159T395 1393T692 1476Q863 1476 991 1394T1190 1160T1260 806V650Q1260 448 1191 297ZM1138 980T1085
1106T932 1300T692 1368Q556 1368 456 1300T303 1106T249 808V650Q249 478 303 352T457 157T694 88Q834 88 934 156T1086 350T1138 650V808Q1138 980 1085 1106ZM1033 1759T1007 1711T936 1636T837 1609Q788 1609 755 1624T683 1668Q648 1694 622 1706T559 1719Q512
1719 481 1687T449 1600L359 1604Q359 1666 385 1714T455 1789T555 1816Q598 1816 629 1802T705 1758Q741 1732 769 1719T832 1706Q879 1706 911 1740T943 1828L1033 1822Q1033 1759 1007 1711Z" />
<glyph unicode="&#xd6;" glyph-name="Odieresis" horiz-adv-x="1387" d="M1260 448T1191 297T993 63T694 -20Q526 -20 397 62T197 297T126 650V806Q126 1007 196 1159T395 1393T692 1476Q863 1476 991 1394T1190 1160T1260 806V650Q1260 448 1191 297ZM1138 980T1085
1106T932 1300T692 1368Q556 1368 456 1300T303 1106T249 808V650Q249 478 303 352T457 157T694 88Q834 88 934 156T1086 350T1138 650V808Q1138 980 1085 1106ZM513 1804T535 1782T558 1724Q558 1690 536 1667T475 1644Q437 1644 415 1666T393 1724Q393 1759 415
1781T475 1804Q513 1804 535 1782ZM950 1804T972 1781T995 1723Q995 1688 973 1666T912 1644Q875 1644 853 1666T830 1723Q830 1758 852 1781T912 1804Q950 1804 972 1781Z" />
<glyph unicode="&#xd7;" glyph-name="multiply" horiz-adv-x="1072" d="M888 100L530 465L173 100L94 180L451 545L108 894L187 975L530 625L873 975L952 894L609 545L967 180L888 100Z" />
<glyph unicode="&#xd8;" glyph-name="Oslash" horiz-adv-x="1387" d="M1126 1269Q1191 1182 1225 1064T1260 806V650Q1260 448 1191 297T993 63T694 -20Q511 -20 376 77L275 -84H171L308 134Q221 223 174 354T126 650V806Q126 1007 196 1159T395 1393T692 1476Q803
1476 897 1440T1065 1336L1171 1505H1275L1126 1269ZM249 519T280 414T372 235L1003 1238Q946 1302 868 1335T692 1368Q556 1368 456 1300T303 1106T249 808V650Q249 519 280 414ZM1138 1019T1058 1161L436 172Q541 88 694 88Q834 88 934 156T1086 350T1138 650V808Q1138
1019 1058 1161Z" />
<glyph unicode="&#xd9;" glyph-name="Ugrave" horiz-adv-x="1347" d="M1187 470Q1187 311 1120 201T936 36T674 -20Q526 -20 411 35T229 200T163 470V1456H285V470Q285 346 334 259T472 128T674 84Q789 84 877 128T1014 259T1064 470V1456H1187V470ZM645 1572L418
1851H563L754 1572H645Z" />
<glyph unicode="&#xda;" glyph-name="Uacute" horiz-adv-x="1347" d="M1187 470Q1187 311 1120 201T936 36T674 -20Q526 -20 411 35T229 200T163 470V1456H285V470Q285 346 334 259T472 128T674 84Q789 84 877 128T1014 259T1064 470V1456H1187V470ZM949 1851L718
1572H613L804 1851H949Z" />
<glyph unicode="&#xdb;" glyph-name="Ucircumflex" horiz-adv-x="1347" d="M1187 470Q1187 311 1120 201T936 36T674 -20Q526 -20 411 35T229 200T163 470V1456H285V470Q285 346 334 259T472 128T674 84Q789 84 877 128T1014 259T1064 470V1456H1187V470ZM961
1574H851L682 1757L515 1574H407V1586L645 1841H721L961 1584V1574Z" />
<glyph unicode="&#xdc;" glyph-name="Udieresis" horiz-adv-x="1347" d="M1187 470Q1187 311 1120 201T936 36T674 -20Q526 -20 411 35T229 200T163 470V1456H285V470Q285 346 334 259T472 128T674 84Q789 84 877 128T1014 259T1064 470V1456H1187V470ZM504 1792T526
1770T549 1712Q549 1678 527 1655T466 1632Q428 1632 406 1654T384 1712Q384 1747 406 1769T466 1792Q504 1792 526 1770ZM941 1792T963 1769T986 1711Q986 1676 964 1654T903 1632Q866 1632 844 1654T821 1711Q821 1746 843 1769T903 1792Q941 1792 963 1769Z"
/>
<glyph unicode="&#xdd;" glyph-name="Yacute" horiz-adv-x="1227" d="M1056 1456H1199L673 549V0H550V549L24 1456H170L611 662L1056 1456ZM880 1845L649 1566H544L735 1845H880Z" />
<glyph unicode="&#xde;" glyph-name="Thorn" horiz-adv-x="1215" d="M775 1153T880 1100T1041 952T1096 738Q1096 618 1041 524T881 377T627 324H303V0H183V1456H303V1153H627Q775 1153 880 1100ZM745 426T823 470T939 585T976 736Q976 819 939 890T824 1006T627
1051H303V426H627Q745 426 823 470Z" />
<glyph unicode="&#xdf;" glyph-name="germandbls" horiz-adv-x="1201" d="M152 0V1128Q152 1262 195 1355T320 1496T513 1544Q609 1544 687 1508T811 1403T857 1237Q857 1168 841 1120T792 1014Q762 960 748 920T733 825Q733 782 754 746T807 680T894 608Q959
557 999 518T1068 426T1096 307Q1096 204 1044 130T906 17T720 -21Q636 -21 546 3T415 60L448 161Q489 131 563 106T706 81Q790 81 851 111T945 193T977 307Q977 353 955 392T899 462T809 537Q745 588 706 625T640 713T613 827Q613 889 629 934T678 1039Q709 1095
724 1135T739 1231Q739 1294 710 1342T631 1416T523 1443Q402 1443 337 1367T271 1128V0H152Z" />
<glyph unicode="&#xe0;" glyph-name="agrave" horiz-adv-x="1098" d="M935 167T943 108T968 13V0H840Q821 53 816 151Q757 75 664 28T450 -20Q346 -20 267 19T145 129T101 287Q101 392 160 469T331 588T594 630H815V752Q815 869 743 935T536 1002Q454 1002 388
973T284 893T246 783L126 784Q126 865 179 938T327 1057T541 1102Q658 1102 747 1063T885 944T935 750V227Q935 167 943 108ZM588 86T681 145T815 299V538H610Q488 538 401 509T267 426T220 297Q220 238 250 190T335 114T463 86Q588 86 681 145ZM542 1256L315 1535H460L651
1256H542Z" />
<glyph unicode="&#xe1;" glyph-name="aacute" horiz-adv-x="1098" d="M935 167T943 108T968 13V0H840Q821 53 816 151Q757 75 664 28T450 -20Q346 -20 267 19T145 129T101 287Q101 392 160 469T331 588T594 630H815V752Q815 869 743 935T536 1002Q454 1002 388
973T284 893T246 783L126 784Q126 865 179 938T327 1057T541 1102Q658 1102 747 1063T885 944T935 750V227Q935 167 943 108ZM588 86T681 145T815 299V538H610Q488 538 401 509T267 426T220 297Q220 238 250 190T335 114T463 86Q588 86 681 145ZM846 1535L615 1256H510L701
1535H846Z" />
<glyph unicode="&#xe2;" glyph-name="acircumflex" horiz-adv-x="1098" d="M935 167T943 108T968 13V0H840Q821 53 816 151Q757 75 664 28T450 -20Q346 -20 267 19T145 129T101 287Q101 392 160 469T331 588T594 630H815V752Q815 869 743 935T536 1002Q454 1002
388 973T284 893T246 783L126 784Q126 865 179 938T327 1057T541 1102Q658 1102 747 1063T885 944T935 750V227Q935 167 943 108ZM588 86T681 145T815 299V538H610Q488 538 401 509T267 426T220 297Q220 238 250 190T335 114T463 86Q588 86 681 145ZM858 1258H748L579
1441L412 1258H304V1270L542 1525H618L858 1268V1258Z" />
<glyph unicode="&#xe3;" glyph-name="atilde" horiz-adv-x="1098" d="M935 167T943 108T968 13V0H840Q821 53 816 151Q757 75 664 28T450 -20Q346 -20 267 19T145 129T101 287Q101 392 160 469T331 588T594 630H815V752Q815 869 743 935T536 1002Q454 1002 388
973T284 893T246 783L126 784Q126 865 179 938T327 1057T541 1102Q658 1102 747 1063T885 944T935 750V227Q935 167 943 108ZM588 86T681 145T815 299V538H610Q488 538 401 509T267 426T220 297Q220 238 250 190T335 114T463 86Q588 86 681 145ZM921 1432T895 1384T824
1309T725 1282Q676 1282 643 1297T571 1341Q536 1367 510 1379T447 1392Q400 1392 369 1360T337 1273L247 1277Q247 1339 273 1387T343 1462T443 1489Q486 1489 517 1475T593 1431Q629 1405 657 1392T720 1379Q767 1379 799 1413T831 1501L921 1495Q921 1432 895
1384Z" />
<glyph unicode="&#xe4;" glyph-name="adieresis" horiz-adv-x="1098" d="M935 167T943 108T968 13V0H840Q821 53 816 151Q757 75 664 28T450 -20Q346 -20 267 19T145 129T101 287Q101 392 160 469T331 588T594 630H815V752Q815 869 743 935T536 1002Q454 1002
388 973T284 893T246 783L126 784Q126 865 179 938T327 1057T541 1102Q658 1102 747 1063T885 944T935 750V227Q935 167 943 108ZM588 86T681 145T815 299V538H610Q488 538 401 509T267 426T220 297Q220 238 250 190T335 114T463 86Q588 86 681 145ZM401 1476T423
1454T446 1396Q446 1362 424 1339T363 1316Q325 1316 303 1338T281 1396Q281 1431 303 1453T363 1476Q401 1476 423 1454ZM838 1476T860 1453T883 1395Q883 1360 861 1338T800 1316Q763 1316 741 1338T718 1395Q718 1430 740 1453T800 1476Q838 1476 860 1453Z"
/>
<glyph unicode="&#xe5;" glyph-name="aring" horiz-adv-x="1098" d="M935 167T943 108T968 13V0H840Q821 53 816 151Q757 75 664 28T450 -20Q346 -20 267 19T145 129T101 287Q101 392 160 469T331 588T594 630H815V752Q815 869 743 935T536 1002Q454 1002 388
973T284 893T246 783L126 784Q126 865 179 938T327 1057T541 1102Q658 1102 747 1063T885 944T935 750V227Q935 167 943 108ZM588 86T681 145T815 299V538H610Q488 538 401 509T267 426T220 297Q220 238 250 190T335 114T463 86Q588 86 681 145ZM634 1591T678 1566T748
1497T774 1400Q774 1347 749 1305T679 1238T581 1213Q527 1213 483 1237T414 1304T388 1400Q388 1453 413 1496T483 1565T581 1591Q634 1591 678 1566ZM632 1285T664 1318T697 1400Q697 1451 665 1485T581 1519Q530 1519 497 1485T464 1400Q464 1352 497 1319T581
1285Q632 1285 664 1318Z" />
<glyph unicode="&#xe6;" glyph-name="ae" horiz-adv-x="1732" d="M902 538V510Q902 387 941 291T1061 138T1265 81Q1451 81 1589 200L1636 112Q1497 -20 1265 -20Q1130 -20 1030 34T868 187Q836 133 778 87T634 10T441 -20Q328 -20 249 18T128 128T86 294Q86 398
136 474T284 592T525 633H781V720Q781 854 717 927T528 1000Q438 1000 371 969T269 885T233 766L114 778Q114 871 165 945T311 1060T528 1102Q654 1102 743 1048T871 890Q932 990 1027 1046T1236 1102Q1369 1102 1464 1046T1609 886T1659 638V538H902ZM1144 1000T1073
953T960 824T905 636H1539V668Q1539 763 1506 838T1405 956T1236 1000Q1144 1000 1073 953ZM523 80T587 103T703 162T781 235V536H527Q423 536 351 503T242 414T206 290Q206 194 271 137T458 80Q523 80 587 103Z" />
<glyph unicode="&#xe7;" glyph-name="ccedilla" horiz-adv-x="1056" d="M634 82T700 111T809 198T858 335H972Q967 239 915 161T777 35T588 -19L579 -75Q651 -85 697 -124T744 -246Q744 -306 710 -351T609 -420T450 -445L443 -368Q525 -368 584 -338T644 -247Q644
-192 604 -170T469 -138L496 -17Q367 -2 277 71T141 260T95 520V562Q95 716 148 838T305 1031T555 1102Q671 1102 764 1055T912 921T972 718H858Q853 804 813 867T705 965T555 1000Q438 1000 362 941T250 782T214 562V520Q214 398 249 300T361 142T557 82Q634 82
700 111Z" />
<glyph unicode="&#xe8;" glyph-name="egrave" horiz-adv-x="1059" d="M210 534V511Q210 392 257 294T388 138T580 81Q677 81 751 116T883 229L959 172Q900 85 806 33T575 -20Q436 -20 326 48T153 237T90 511V554Q90 716 153 841T323 1034T554 1102Q688 1102 785
1039T932 864T982 607V534H210ZM464 1000T392 955T273 828T215 636H862V649Q860 743 825 823T720 951T554 1000Q464 1000 392 955ZM529 1256L302 1535H447L638 1256H529Z" />
<glyph unicode="&#xe9;" glyph-name="eacute" horiz-adv-x="1059" d="M210 534V511Q210 392 257 294T388 138T580 81Q677 81 751 116T883 229L959 172Q900 85 806 33T575 -20Q436 -20 326 48T153 237T90 511V554Q90 716 153 841T323 1034T554 1102Q688 1102 785
1039T932 864T982 607V534H210ZM464 1000T392 955T273 828T215 636H862V649Q860 743 825 823T720 951T554 1000Q464 1000 392 955ZM833 1535L602 1256H497L688 1535H833Z" />
<glyph unicode="&#xea;" glyph-name="ecircumflex" horiz-adv-x="1059" d="M210 534V511Q210 392 257 294T388 138T580 81Q677 81 751 116T883 229L959 172Q900 85 806 33T575 -20Q436 -20 326 48T153 237T90 511V554Q90 716 153 841T323 1034T554 1102Q688 1102
785 1039T932 864T982 607V534H210ZM464 1000T392 955T273 828T215 636H862V649Q860 743 825 823T720 951T554 1000Q464 1000 392 955ZM844 1258H734L565 1441L398 1258H290V1270L528 1525H604L844 1268V1258Z" />
<glyph unicode="&#xeb;" glyph-name="edieresis" horiz-adv-x="1059" d="M210 534V511Q210 392 257 294T388 138T580 81Q677 81 751 116T883 229L959 172Q900 85 806 33T575 -20Q436 -20 326 48T153 237T90 511V554Q90 716 153 841T323 1034T554 1102Q688 1102
785 1039T932 864T982 607V534H210ZM464 1000T392 955T273 828T215 636H862V649Q860 743 825 823T720 951T554 1000Q464 1000 392 955ZM388 1476T410 1454T433 1396Q433 1362 411 1339T350 1316Q312 1316 290 1338T268 1396Q268 1431 290 1453T350 1476Q388 1476
410 1454ZM825 1476T847 1453T870 1395Q870 1360 848 1338T787 1316Q750 1316 728 1338T705 1395Q705 1430 727 1453T787 1476Q825 1476 847 1453Z" />
<glyph unicode="&#xec;" glyph-name="igrave" horiz-adv-x="456" d="M168 0V1082H288V0H168ZM193 1244L-34 1523H111L302 1244H193Z" />
<glyph unicode="&#xed;" glyph-name="iacute" horiz-adv-x="456" d="M168 0V1082H288V0H168ZM498 1523L267 1244H162L353 1523H498Z" />
<glyph unicode="&#xee;" glyph-name="icircumflex" horiz-adv-x="456" d="M168 0V1082H288V0H168ZM509 1246H399L230 1429L63 1246H-45V1258L193 1513H269L509 1256V1246Z" />
<glyph unicode="&#xef;" glyph-name="idieresis" horiz-adv-x="456" d="M168 0V1082H288V0H168ZM52 1464T74 1442T97 1384Q97 1350 75 1327T14 1304Q-24 1304 -46 1326T-68 1384Q-68 1419 -46 1441T14 1464Q52 1464 74 1442ZM489 1464T511 1441T534 1383Q534 1348
512 1326T451 1304Q414 1304 392 1326T369 1383Q369 1418 391 1441T451 1464Q489 1464 511 1441Z" />
<glyph unicode="&#xf0;" glyph-name="eth" horiz-adv-x="1192" d="M1055 1049T1055 624V535Q1055 373 999 247T842 50T616 -20Q481 -20 375 44T210 220T150 466Q150 619 204 731T357 904T588 965Q686 965 773 927T920 822Q876 1076 710 1241L484 1101L434 1175L640
1303Q503 1410 297 1475L335 1579Q582 1505 744 1367L939 1488L990 1415L811 1304Q1055 1049 1055 624ZM936 626Q936 645 934 683Q899 758 816 809T610 861Q498 861 422 811T308 672T270 466Q270 369 311 281T432 139T620 84Q715 84 786 142T897 302T936 535V626Z"
/>
<glyph unicode="&#xf1;" glyph-name="ntilde" horiz-adv-x="1126" d="M796 1102T884 1007T973 705V0H853V705Q853 865 788 932T598 999Q481 999 398 926T276 743V0H156V1082H271L275 899Q333 994 424 1048T628 1102Q796 1102 884 1007ZM917 1431T891 1383T820
1308T721 1281Q672 1281 639 1296T567 1340Q532 1366 506 1378T443 1391Q396 1391 365 1359T333 1272L243 1276Q243 1338 269 1386T339 1461T439 1488Q482 1488 513 1474T589 1430Q625 1404 653 1391T716 1378Q763 1378 795 1412T827 1500L917 1494Q917 1431 891
1383Z" />
<glyph unicode="&#xf2;" glyph-name="ograve" horiz-adv-x="1148" d="M91 714T151 838T320 1032T573 1102Q717 1102 827 1032T997 838T1057 557V525Q1057 368 997 244T828 50T575 -20Q431 -20 321 50T151 244T91 525V557Q91 714 151 838ZM211 404T253 303T378
142T575 82Q688 82 770 142T894 303T937 525V557Q937 676 894 777T769 939T573 1000Q460 1000 378 939T254 777T211 557V525Q211 404 253 303ZM534 1255L307 1534H452L643 1255H534Z" />
<glyph unicode="&#xf3;" glyph-name="oacute" horiz-adv-x="1148" d="M91 714T151 838T320 1032T573 1102Q717 1102 827 1032T997 838T1057 557V525Q1057 368 997 244T828 50T575 -20Q431 -20 321 50T151 244T91 525V557Q91 714 151 838ZM211 404T253 303T378
142T575 82Q688 82 770 142T894 303T937 525V557Q937 676 894 777T769 939T573 1000Q460 1000 378 939T254 777T211 557V525Q211 404 253 303ZM838 1534L607 1255H502L693 1534H838Z" />
<glyph unicode="&#xf4;" glyph-name="ocircumflex" horiz-adv-x="1148" d="M91 714T151 838T320 1032T573 1102Q717 1102 827 1032T997 838T1057 557V525Q1057 368 997 244T828 50T575 -20Q431 -20 321 50T151 244T91 525V557Q91 714 151 838ZM211 404T253 303T378
142T575 82Q688 82 770 142T894 303T937 525V557Q937 676 894 777T769 939T573 1000Q460 1000 378 939T254 777T211 557V525Q211 404 253 303ZM849 1257H739L570 1440L403 1257H295V1269L533 1524H609L849 1267V1257Z" />
<glyph unicode="&#xf5;" glyph-name="otilde" horiz-adv-x="1148" d="M91 714T151 838T320 1032T573 1102Q717 1102 827 1032T997 838T1057 557V525Q1057 368 997 244T828 50T575 -20Q431 -20 321 50T151 244T91 525V557Q91 714 151 838ZM211 404T253 303T378
142T575 82Q688 82 770 142T894 303T937 525V557Q937 676 894 777T769 939T573 1000Q460 1000 378 939T254 777T211 557V525Q211 404 253 303ZM913 1431T887 1383T816 1308T717 1281Q668 1281 635 1296T563 1340Q528 1366 502 1378T439 1391Q392 1391 361 1359T329
1272L239 1276Q239 1338 265 1386T335 1461T435 1488Q478 1488 509 1474T585 1430Q621 1404 649 1391T712 1378Q759 1378 791 1412T823 1500L913 1494Q913 1431 887 1383Z" />
<glyph unicode="&#xf6;" glyph-name="odieresis" horiz-adv-x="1148" d="M91 714T151 838T320 1032T573 1102Q717 1102 827 1032T997 838T1057 557V525Q1057 368 997 244T828 50T575 -20Q431 -20 321 50T151 244T91 525V557Q91 714 151 838ZM211 404T253 303T378
142T575 82Q688 82 770 142T894 303T937 525V557Q937 676 894 777T769 939T573 1000Q460 1000 378 939T254 777T211 557V525Q211 404 253 303ZM393 1475T415 1453T438 1395Q438 1361 416 1338T355 1315Q317 1315 295 1337T273 1395Q273 1430 295 1452T355 1475Q393
1475 415 1453ZM830 1475T852 1452T875 1394Q875 1359 853 1337T792 1315Q755 1315 733 1337T710 1394Q710 1429 732 1452T792 1475Q830 1475 852 1452Z" />
<glyph unicode="&#xf7;" glyph-name="divide" horiz-adv-x="1164" d="M619 1172T642 1148T666 1088Q666 1053 643 1030T580 1007Q541 1007 518 1030T495 1088Q495 1124 518 1148T580 1172Q619 1172 642 1148ZM72 644V761H1070V644H72ZM619 375T642 351T666 292Q666
257 643 234T580 210Q541 210 518 233T495 292Q495 328 518 351T580 375Q619 375 642 351Z" />
<glyph unicode="&#xf8;" glyph-name="oslash" horiz-adv-x="1141" d="M951 938T1003 821T1055 557V525Q1055 368 996 244T827 50T573 -20Q463 -20 373 21L294 -140H201L300 63Q200 133 145 253T89 525V557Q89 714 149 838T318 1032T571 1102Q688 1102 786 1054L864
1214H957L857 1010Q951 938 1003 821ZM209 413T245 318T350 163L738 958Q665 1000 571 1000Q458 1000 376 939T252 777T209 557V525Q209 413 245 318ZM935 557Q935 662 902 753T806 906L420 116Q488 82 573 82Q686 82 768 142T892 303T935 525V557Z" />
<glyph unicode="&#xf9;" glyph-name="ugrave" horiz-adv-x="1125" d="M970 1082V0H855L852 137Q745 -20 508 -20Q340 -20 246 78T152 390V1082H272V388Q272 226 340 155T522 84Q658 84 738 141T850 298V1082H970ZM537 1257L310 1536H455L646 1257H537Z" />
<glyph unicode="&#xfa;" glyph-name="uacute" horiz-adv-x="1125" d="M970 1082V0H855L852 137Q745 -20 508 -20Q340 -20 246 78T152 390V1082H272V388Q272 226 340 155T522 84Q658 84 738 141T850 298V1082H970ZM841 1536L610 1257H505L696 1536H841Z" />
<glyph unicode="&#xfb;" glyph-name="ucircumflex" horiz-adv-x="1125" d="M970 1082V0H855L852 137Q745 -20 508 -20Q340 -20 246 78T152 390V1082H272V388Q272 226 340 155T522 84Q658 84 738 141T850 298V1082H970ZM852 1259H742L573 1442L406 1259H298V1271L536
1526H612L852 1269V1259Z" />
<glyph unicode="&#xfc;" glyph-name="udieresis" horiz-adv-x="1125" d="M970 1082V0H855L852 137Q745 -20 508 -20Q340 -20 246 78T152 390V1082H272V388Q272 226 340 155T522 84Q658 84 738 141T850 298V1082H970ZM395 1477T417 1455T440 1397Q440 1363 418
1340T357 1317Q319 1317 297 1339T275 1397Q275 1432 297 1454T357 1477Q395 1477 417 1455ZM832 1477T854 1454T877 1396Q877 1361 855 1339T794 1317Q757 1317 735 1339T712 1396Q712 1431 734 1454T794 1477Q832 1477 854 1454Z" />
<glyph unicode="&#xfd;" glyph-name="yacute" horiz-adv-x="974" d="M944 1082L486 -174Q460 -244 428 -299T335 -395T183 -437Q164 -437 135 -433T91 -424V-324Q101 -327 120 -329T152 -331Q246 -331 299 -284T388 -135L441 9L33 1082H163L500 173L815 1082H944ZM781
1536L550 1257H445L636 1536H781Z" />
<glyph unicode="&#xfe;" glyph-name="thorn" horiz-adv-x="1151" d="M747 1102T840 1035T982 843T1031 551V530Q1031 368 982 244T840 50T619 -20Q506 -20 421 20T279 137V-416H160V1536H279V932Q336 1014 420 1058T616 1102Q747 1102 840 1035ZM911 551Q911 680
876 781T768 940T589 998Q470 998 395 941T279 792V271Q322 183 399 133T591 82Q697 82 768 140T875 299T911 530V551Z" />
<glyph unicode="&#xff;" glyph-name="ydieresis" horiz-adv-x="974" d="M944 1082L486 -174Q460 -244 428 -299T335 -395T183 -437Q164 -437 135 -433T91 -424V-324Q101 -327 120 -329T152 -331Q246 -331 299 -284T388 -135L441 9L33 1082H163L500 173L815 1082H944ZM335
1477T357 1455T380 1397Q380 1363 358 1340T297 1317Q259 1317 237 1339T215 1397Q215 1432 237 1454T297 1477Q335 1477 357 1455ZM772 1477T794 1454T817 1396Q817 1361 795 1339T734 1317Q697 1317 675 1339T652 1396Q652 1431 674 1454T734 1477Q772 1477 794
1454Z" />
<glyph unicode="&#x2013;" glyph-name="endash" horiz-adv-x="1334" d="M159 687V789H1161V687H159Z" />
<glyph unicode="&#x2014;" glyph-name="emdash" horiz-adv-x="1580" d="M127 687V789H1463V687H127Z" />
<glyph unicode="&#x2018;" glyph-name="quoteleft" horiz-adv-x="365" d="M99 1325T136 1410T239 1555L310 1503Q263 1439 241 1376T218 1236V1122H99V1234Q99 1325 136 1410Z" />
<glyph unicode="&#x2019;" glyph-name="quoteright" horiz-adv-x="365" d="M274 1330T237 1245T134 1100L63 1152Q110 1215 132 1278T155 1418V1536H274V1421Q274 1330 237 1245Z" />
<glyph unicode="&#x201a;" glyph-name="quotesinglbase" horiz-adv-x="354" d="M253 -1T216 -87T113 -232L42 -180Q89 -116 111 -53T133 87V206H253V90Q253 -1 216 -87Z" />
<glyph unicode="&#x201c;" glyph-name="quotedblleft" horiz-adv-x="612" d="M100 1325T137 1410T240 1555L311 1503Q264 1439 242 1376T219 1236V1122H100V1234Q100 1325 137 1410ZM351 1325T388 1410T491 1555L562 1503Q515 1439 493 1376T470 1236V1122H351V1234Q351
1325 388 1410Z" />
<glyph unicode="&#x201d;" glyph-name="quotedblright" horiz-adv-x="617" d="M280 1330T243 1245T140 1100L69 1152Q116 1215 138 1278T161 1418V1536H280V1421Q280 1330 243 1245ZM524 1330T487 1245T384 1100L313 1152Q360 1215 382 1278T405 1418V1536H524V1421Q524
1330 487 1245Z" />
<glyph unicode="&#x201e;" glyph-name="quotedblbase" horiz-adv-x="594" d="M253 -4T216 -92T113 -241L42 -189Q89 -123 111 -58T133 87V237H253V90Q253 -4 216 -92ZM487 -4T450 -92T346 -241L275 -189Q323 -123 345 -58T367 87V237H487V90Q487 -4 450 -92Z" />
<glyph unicode="&#x2022;" glyph-name="bullet" horiz-adv-x="663" d="M147 831T197 881T331 931Q388 931 430 908T495 845T518 752V717Q518 639 468 590T332 541Q248 541 198 590T147 717V752Q147 831 197 881Z" />
<glyph unicode="&#x2039;" glyph-name="guilsinglleft" horiz-adv-x="609" d="M233 556L509 168H403L108 547V560V566L403 945H509L233 556Z" />
<glyph unicode="&#x203a;" glyph-name="guilsinglright" horiz-adv-x="609" d="M498 560V547V541L204 162H98L374 551L98 945H204L498 560Z" />
</font>
</defs>
</svg>
