<?xml version="1.0" standalone="no"?>
<!DOCTYPE svg PUBLIC "-//W3C//DTD SVG 1.1//EN" "http://www.w3.org/Graphics/SVG/1.1/DTD/svg11.dtd">
<svg xmlns="http://www.w3.org/2000/svg">
<defs >
<font id="NovaScript" horiz-adv-x="1185" ><font-face
    font-family="Nova Script"
    units-per-em="2048"
    panose-1="2 12 5 4 2 4 4 13 2 4"
    ascent="1966"
    descent="-506"
    alphabetic="0" />
<glyph unicode=" " glyph-name="space" horiz-adv-x="800" />
<glyph unicode="!" glyph-name="exclam" horiz-adv-x="600" d="M203 102Q215 153 258 189T352 225T429 189Q448 163 448 132Q448 117 444 102Q430 49 389 16Q344 -20 294 -20T217 17Q199 40 199 71Q199 84 203 102ZM748 1550H758L518 510L307 420H297L537 1460L748 1550Z" />
<glyph unicode="&quot;" glyph-name="quotedbl" horiz-adv-x="747" d="M945 1550H955L843 1066L670 992H660L772 1476L945 1550ZM664 1550H674L562 1066L389 992H379L491 1476L664 1550Z" />
<glyph unicode="#" glyph-name="numbersign" horiz-adv-x="1368" d="M499 222L568 520H270L272 530L393 702H610L635 810H337L339 820L460 992H677L727 1209L918 1290H928L859 992H967L1017 1209L1208 1290H1218L1149 992H1447L1445 982L1324 810H1107L1082 702H1380L1378
692L1257 520H1040L990 303L799 222H789L858 520H750L700 303L509 222H499ZM792 702H900L925 810H817L792 702Z" />
<glyph unicode="$" glyph-name="dollar" horiz-adv-x="1270" d="M216 288L396 366H406Q458 173 612 152L755 770Q644 804 569 868Q482 942 482 1053Q482 1091 492 1132Q536 1311 690 1428Q797 1509 929 1526L969 1700L1087 1750H1097L1046 1527Q1230 1505 1295
1302L1119 1227H1109Q1081 1331 1006 1354L909 935Q1087 897 1179 779Q1243 697 1243 584Q1242 530 1229 472Q1187 283 1006 132Q861 8 690 -15L649 -190L532 -240H522L573 -19Q306 0 216 288ZM800 967L889 1350Q836 1336 791 1299Q718 1239 696 1147Q690 1122
690 1101Q691 1052 718 1021T800 967ZM864 741L730 161Q817 186 906 265Q996 345 1028 478Q1036 511 1036 541Q1036 602 1003 648Q958 711 864 741Z" />
<glyph unicode="%" glyph-name="percent" horiz-adv-x="2052" d="M1793 380Q1806 436 1806 480Q1806 539 1783 577Q1749 633 1679 633T1552 580Q1479 511 1448 380Q1435 324 1435 280Q1435 219 1460 180Q1494 127 1562 127Q1634 127 1691 181Q1762 248 1793 380ZM1253
383Q1293 557 1437 679Q1556 780 1713 780T1941 680Q2002 594 2002 482Q2002 434 1990 380Q1947 202 1803 80Q1685 -20 1529 -20Q1371 -20 1300 81Q1240 166 1240 274Q1240 328 1253 383ZM952 1130Q965 1186 965 1230Q965 1289 942 1327Q908 1383 838 1383T711
1330Q638 1261 607 1130Q594 1074 594 1030Q594 969 619 930Q653 877 721 877Q793 877 850 931Q921 998 952 1130ZM412 1133Q452 1307 596 1429Q715 1530 872 1530T1100 1430Q1161 1344 1161 1232Q1161 1184 1149 1130Q1106 952 962 830Q844 730 688 730Q530 730
459 831Q399 916 399 1024Q399 1078 412 1133ZM733 -40L607 28L1668 1550H1678L1803 1482L743 -40H733Z" />
<glyph unicode="&amp;" glyph-name="ampersand" horiz-adv-x="1562" d="M787 -40Q418 -40 306 123Q242 216 242 338Q242 399 258 468Q305 671 483 801Q539 842 577 859Q492 947 492 1059Q492 1096 502 1137Q546 1331 695 1434Q835 1530 1008 1530Q1232 1530 1304
1302L1128 1227H1118Q1081 1360 967 1360Q865 1360 790 1298Q711 1232 691 1137Q686 1113 686 1090Q686 1040 715 998Q762 932 873 926T1065 920Q1063 910 1063 886Q1063 854 1067 790Q1074 673 1133 616L1434 977H1444L1573 894L1273 534Q1363 490 1423 398Q1453
352 1453 264Q1453 178 1424 50L1213 -40H1203Q1256 188 1256 270Q1256 339 1160 400L787 -40ZM865 761Q693 761 603 690Q489 599 456 466Q445 421 445 380Q445 306 479 246Q532 152 739 152L1019 480Q895 540 865 761Z" />
<glyph unicode="&apos;" glyph-name="quotesingle" horiz-adv-x="466" d="M664 1550H674L562 1066L389 992H379L491 1476L664 1550Z" />
<glyph unicode="(" glyph-name="parenleft" horiz-adv-x="783" d="M603 -240H593Q391 -166 316 88Q292 169 292 272Q292 398 328 555L420 955Q487 1242 624 1422Q817 1676 1052 1750H1062L1103 1601Q903 1516 778 1344Q679 1208 620 955L528 555Q492 397 492 286Q492
217 506 166Q554 -7 712 -91L603 -240Z" />
<glyph unicode=")" glyph-name="parenright" horiz-adv-x="783" d="M70 -240L29 -91Q226 -7 353 166Q452 301 511 555L603 955Q640 1111 640 1222Q640 1293 625 1344Q573 1519 420 1601L529 1750H539Q738 1676 815 1422Q840 1340 840 1237Q840 1111 803 955L711
555Q645 270 507 88Q314 -166 80 -240H70Z" />
<glyph unicode="*" glyph-name="asterisk" horiz-adv-x="1183" d="M1030 1550H1040L966 1231L1185 1360L1317 1251L1320 1243L1005 1093L1251 943L1244 935L1062 826L902 955L848 717L657 636H647L720 955L502 826L371 935L368 943L681 1093L437 1243L444 1251L625
1360L784 1231L839 1469L1030 1550Z" />
<glyph unicode="+" glyph-name="plus" horiz-adv-x="1214" d="M968 1212H978L893 846H1259L1257 836L1136 664H851L785 379L595 298H585L669 664H303L306 674L426 846H711L777 1131L968 1212Z" />
<glyph unicode="," glyph-name="comma" horiz-adv-x="609" d="M404 278H414Q475 200 475 106Q475 72 467 34Q427 -156 148 -286L117 -236Q253 -123 279 -20Q285 4 285 26Q285 120 193 188L404 278Z" />
<glyph unicode="-" glyph-name="hyphen" horiz-adv-x="1214" d="M303 664L306 674L426 846H1259L1257 836L1136 664H303Z" />
<glyph unicode="." glyph-name="period" horiz-adv-x="600" d="M203 102Q215 153 258 189T352 225T429 189Q448 163 448 132Q448 120 444 102Q429 49 389 16Q345 -20 294 -20Q244 -20 217 17Q199 41 199 70Q199 84 203 102Z" />
<glyph unicode="/" glyph-name="slash" horiz-adv-x="974" d="M119 -140L-7 -72L1193 1650H1203L1329 1582L129 -140H119Z" />
<glyph unicode="0" glyph-name="zero" horiz-adv-x="1424" d="M524 755Q488 596 488 485Q488 416 502 365Q561 150 747 150Q930 150 1090 366Q1189 500 1248 755Q1284 911 1284 1022Q1284 1091 1270 1144Q1213 1360 1026 1360Q841 1360 682 1144Q581 1007 524
755ZM324 754Q391 1046 528 1222Q768 1530 1065 1530Q1366 1530 1460 1222Q1484 1143 1484 1041Q1484 917 1448 755Q1382 465 1244 288Q1004 -20 707 -20T312 287Q287 365 287 470Q287 599 324 754Z" />
<glyph unicode="1" glyph-name="one" horiz-adv-x="714" d="M255 -40L577 1354L283 1138L330 1343L622 1550Q785 1550 785 1419Q785 1390 777 1354L476 50L265 -40H255Z" />
<glyph unicode="2" glyph-name="two" horiz-adv-x="1311" d="M393 0Q189 0 189 140Q189 166 196 198Q266 517 794 732Q1111 861 1159 1059Q1172 1113 1172 1157Q1172 1222 1145 1264Q1086 1360 940 1360Q757 1360 596 1144H586L442 1222Q681 1530 979 1530Q1220
1530 1316 1385Q1376 1294 1376 1176Q1376 1115 1360 1048Q1297 769 870 586Q423 394 383 234Q380 222 380 212Q380 170 432 170H892Q1010 170 1067 287H1077L1211 216Q1101 0 853 0H393Z" />
<glyph unicode="3" glyph-name="three" horiz-adv-x="1250" d="M196 288Q196 288 376 366H386Q448 150 631 150Q772 150 883 251Q978 337 1009 470Q1021 522 1021 564Q1021 631 990 673Q932 751 767 751L675 864L1100 1340H573L576 1350L688 1510H1153Q1305 1510
1305 1411Q1305 1393 1300 1372Q1282 1296 1163 1170L911 909Q1059 905 1150 805Q1225 723 1225 597Q1225 539 1209 472Q1160 266 995 125Q826 -20 591 -20Q293 -20 196 288Z" />
<glyph unicode="4" glyph-name="four" horiz-adv-x="1187" d="M726 -40L818 358H326Q159 358 159 458Q159 473 164 494Q179 565 249 642L1093 1550Q1256 1550 1256 1419Q1256 1390 1248 1354L1057 528H1229L1227 518L1115 358H1018L947 50L736 -40H726ZM857 528L1026
1262L351 528H857Z" />
<glyph unicode="5" glyph-name="five" horiz-adv-x="1270" d="M216 288L396 366H406Q467 150 651 150Q792 150 903 251Q999 338 1029 470Q1040 518 1040 558Q1040 643 992 694Q920 770 793 770Q690 770 589 707L404 808L631 1294Q733 1510 989 1510H1385L1382
1500L1270 1340H964Q848 1340 789 1223L618 882Q723 946 835 946Q1046 946 1158 826Q1244 734 1244 596Q1244 539 1229 472Q1180 265 1015 125Q845 -20 611 -20Q313 -20 216 288Z" />
<glyph unicode="6" glyph-name="six" horiz-adv-x="1367" d="M1460 1222L1280 1144H1270Q1209 1360 1026 1360Q840 1360 682 1144Q583 1009 524 755Q700 964 934 964Q1165 964 1271 817Q1341 720 1341 594Q1341 536 1326 472Q1278 267 1111 125Q941 -20 707 -20Q408
-20 312 288Q287 368 287 471Q287 597 324 755Q393 1049 528 1222Q768 1530 1065 1530Q1363 1530 1460 1222ZM895 792Q769 792 649 694Q551 614 516 470Q506 429 506 392Q506 316 546 258Q619 150 747 150Q894 150 1008 256Q1096 338 1126 470Q1138 523 1138 568Q1138
639 1107 687Q1038 792 895 792Z" />
<glyph unicode="7" glyph-name="seven" horiz-adv-x="979" d="M232 45L994 1340H319L322 1350L434 1510H1034Q1193 1510 1193 1388Q1194 1362 1186 1330Q1175 1285 1067 1106L403 -40H393L232 45Z" />
<glyph unicode="8" glyph-name="eight" horiz-adv-x="1308" d="M260 474Q305 669 489 810Q528 840 577 863Q491 948 491 1058Q491 1094 500 1132Q547 1332 694 1434Q832 1530 1007 1530Q1180 1530 1276 1434Q1344 1366 1344 1249Q1344 1197 1330 1132Q1294 975
1129 863Q1168 840 1193 810Q1279 706 1279 575Q1279 526 1267 472Q1222 269 1053 125Q882 -20 648 -20T312 126Q245 223 245 349Q245 407 260 474ZM689 150Q834 150 951 257Q1037 336 1067 470Q1076 510 1076 546Q1076 616 1041 669Q977 766 831 766Q689 766 577
670Q489 595 459 470Q447 420 447 378Q447 307 480 256Q549 150 689 150ZM1068 1372T971 1372T801 1311Q727 1250 704 1147Q694 1103 694 1070Q694 1024 714 998Q775 922 867 922Q967 922 1054 998Q1112 1049 1134 1147Q1142 1183 1142 1214Q1142 1270 1113 1311Q1068
1372 971 1372Z" />
<glyph unicode="9" glyph-name="nine" horiz-adv-x="1367" d="M256 288L436 366H446Q507 150 690 150Q876 150 1034 366Q1133 501 1192 755Q1016 546 782 546Q551 546 445 693Q375 790 375 916Q375 974 390 1038Q438 1243 605 1385Q775 1530 1009 1530Q1308 1530
1404 1222Q1429 1142 1429 1039Q1429 913 1392 755Q1323 461 1188 288Q948 -20 651 -20Q353 -20 256 288ZM821 718Q947 718 1067 816Q1165 896 1200 1040Q1210 1081 1210 1118Q1210 1194 1170 1252Q1097 1360 969 1360Q822 1360 708 1254Q620 1172 590 1040Q578
987 578 942Q578 871 609 823Q678 718 821 718Z" />
<glyph unicode=":" glyph-name="colon" horiz-adv-x="600" d="M354 753Q366 804 409 840T503 876T580 840Q599 814 599 783Q599 771 595 753Q580 700 540 667Q496 631 445 631Q395 631 368 668Q350 692 350 721Q350 735 354 753ZM203 102Q215 153 258 189T352
225T429 189Q448 163 448 132Q448 120 444 102Q429 49 389 16Q345 -20 294 -20Q244 -20 217 17Q199 41 199 70Q199 84 203 102Z" />
<glyph unicode=";" glyph-name="semicolon" horiz-adv-x="600" d="M404 278H414Q475 200 475 106Q475 72 467 34Q427 -156 148 -286L117 -236Q253 -123 279 -20Q285 4 285 26Q285 120 193 188L404 278ZM354 753Q366 804 409 840T503 876T580 840Q599 814 599 783Q599
771 595 753Q580 700 540 667Q496 631 445 631Q395 631 368 668Q350 692 350 721Q350 735 354 753Z" />
<glyph unicode="&lt;" glyph-name="less" horiz-adv-x="1338" d="M303 664L306 674L428 847L1333 1198L1375 1025L1372 1015L624 738L1244 461L1242 451L1120 278L303 664Z" />
<glyph unicode="=" glyph-name="equal" horiz-adv-x="1214" d="M345 846L348 856L468 1028H1301L1299 1018L1178 846H345ZM261 482L264 492L384 664H1217L1215 654L1094 482H261Z" />
<glyph unicode="&gt;" glyph-name="greater" horiz-adv-x="1338" d="M1375 812L1373 802L1251 629L346 278L304 451L306 461L1054 738L434 1015L437 1025L559 1198L1375 812Z" />
<glyph unicode="?" glyph-name="question" horiz-adv-x="1228" d="M477 102Q489 153 532 189T626 225T703 189Q722 163 722 132Q722 120 718 102Q703 49 663 16Q619 -20 568 -20Q518 -20 491 17Q473 41 473 70Q473 84 477 102ZM402 1222Q641 1530 939 1530Q1178
1530 1276 1385Q1336 1296 1336 1178Q1336 1117 1320 1048Q1251 751 870 593Q788 559 764 454L549 361H539Q602 630 798 722Q1075 852 1122 1049Q1135 1104 1135 1149Q1134 1218 1105 1264Q1044 1360 900 1360Q717 1360 556 1144H546L402 1222Z" />
<glyph unicode="@" glyph-name="at" horiz-adv-x="1397" d="M1018 -40H922Q728 -27 650 50Q576 123 576 225Q576 260 585 300Q624 474 772 573Q896 656 1085 669H1168Q1170 686 1170 702Q1170 766 1136 831Q1072 950 931 950Q746 950 587 734Q491 604 430 345Q393
189 393 78Q393 7 408 -44Q472 -260 652 -260L613 -430Q317 -430 218 -122Q192 -41 192 63Q192 188 229 345Q298 639 433 812Q672 1120 971 1120Q1187 1120 1300 953Q1371 848 1371 721Q1371 665 1357 605L1229 50L1018 -40ZM1136 514Q954 513 873 458Q791 402
773 316Q769 297 769 279Q769 222 812 173Q861 118 1044 118L1136 514Z" />
<glyph unicode="A" glyph-name="A" horiz-adv-x="1454" d="M171 -40L354 755Q421 1046 558 1222Q798 1530 1095 1530Q1393 1530 1490 1222Q1515 1143 1515 1040Q1515 914 1478 755Q1409 458 1276 312Q1193 221 1109 170H1393L1391 160L1279 0H726L728 10L840 170Q987
216 1099 358Q1220 511 1257 670H535L392 50L181 -40H171ZM576 840H1296Q1314 942 1314 1021Q1314 1091 1300 1144Q1243 1360 1056 1360Q868 1360 712 1146Q631 1033 576 840Z" />
<glyph unicode="B" glyph-name="B" horiz-adv-x="1397" d="M171 -40L354 755Q421 1046 558 1222Q798 1530 1095 1530Q1263 1530 1355 1438Q1431 1362 1431 1243Q1431 1196 1419 1141Q1382 970 1201 855Q1247 834 1284 792Q1367 699 1367 571Q1367 520 1354 462Q1306
262 1151 137Q981 0 742 0H549L551 10L663 170H781Q927 170 1042 268Q1124 338 1152 456Q1163 502 1163 542Q1163 607 1133 654Q1068 756 917 756H724L726 766L838 926H956Q1057 926 1132 991Q1200 1050 1222 1146Q1229 1177 1229 1205Q1229 1259 1200 1300Q1156
1360 1056 1360Q870 1360 712 1144Q613 1009 554 755L392 50L181 -40H171Z" />
<glyph unicode="C" glyph-name="C" horiz-adv-x="1366" d="M1355 474Q1315 380 1244 288Q1007 -20 707 -20Q409 -20 312 288Q287 367 287 470Q287 596 324 755Q392 1047 528 1222Q768 1530 1065 1530Q1364 1530 1460 1222L1280 1144H1270Q1212 1360 1026 1360Q841
1360 682 1144Q581 1007 524 755Q488 596 488 485Q488 417 502 366Q561 150 747 150Q932 150 1090 366L1345 474H1355Z" />
<glyph unicode="D" glyph-name="D" horiz-adv-x="1454" d="M171 -40L354 755Q421 1046 558 1222Q798 1530 1095 1530Q1396 1530 1490 1222Q1514 1143 1514 1041Q1514 917 1478 755Q1421 503 1278 314Q1043 0 742 0H549L551 10L663 170H781Q966 170 1124 392Q1228
538 1278 755Q1314 911 1314 1022Q1314 1091 1300 1144Q1243 1360 1056 1360Q870 1360 712 1144Q613 1009 554 755L392 50L181 -40H171Z" />
<glyph unicode="E" glyph-name="E" horiz-adv-x="1366" d="M1355 474Q1315 380 1244 288Q1007 -20 707 -20Q409 -20 312 288Q287 367 287 470Q287 596 324 755Q392 1047 528 1222Q768 1530 1065 1530Q1364 1530 1460 1222L1280 1144H1270Q1212 1360 1026 1360T682
1144Q601 1033 546 840H1144L1142 830L1030 670H507Q488 564 488 484Q488 415 502 366Q564 150 747 150Q932 150 1090 366L1345 474H1355Z" />
<glyph unicode="F" glyph-name="F" horiz-adv-x="1228" d="M171 -40L354 755Q422 1048 558 1222Q798 1530 1095 1530Q1394 1530 1490 1222L1310 1144H1300Q1242 1360 1056 1360T712 1144Q631 1033 576 840H1144L1142 830L1030 670H535L392 50L181 -40H171Z" />
<glyph unicode="G" glyph-name="G" horiz-adv-x="1424" d="M1468 840L1448 755Q1381 466 1244 288Q1006 -20 707 -20Q409 -20 312 288Q287 367 287 470Q287 596 324 755Q392 1047 528 1222Q768 1530 1065 1530Q1364 1530 1460 1222L1280 1144H1270Q1212 1360 1026
1360Q842 1360 682 1144Q581 1008 524 755Q488 596 488 485Q488 417 502 366Q561 150 747 150Q930 150 1090 366Q1172 477 1227 670H850L852 680L964 840H1468Z" />
<glyph unicode="H" glyph-name="H" horiz-adv-x="1454" d="M191 -40L537 1460L748 1550H758L594 840H1296Q1314 942 1314 1021Q1314 1091 1300 1144Q1254 1317 1094 1401L1204 1550H1214Q1415 1476 1490 1222Q1514 1141 1514 1038Q1514 914 1478 755Q1409 460
1276 312Q1194 221 1109 170H1393L1391 160L1279 0H726L728 10L840 170Q987 216 1099 358Q1220 511 1257 670H555L412 50L201 -40H191Z" />
<glyph unicode="I" glyph-name="I" horiz-adv-x="600" d="M191 -40L537 1460L748 1550H758L412 50L201 -40H191Z" />
<glyph unicode="J" glyph-name="J" horiz-adv-x="1308" d="M146 288L326 366H336Q395 150 581 150T924 366Q1025 505 1082 755L1207 1296Q1217 1340 1167 1340H635L638 1350L750 1510H1207Q1415 1510 1415 1361Q1415 1332 1407 1296L1282 755Q1215 466 1078 288Q840
-20 541 -20T146 288Z" />
<glyph unicode="K" glyph-name="K" horiz-adv-x="1352" d="M191 -40L537 1460L748 1550H758L584 797L1301 1550H1311L1468 1467L892 874Q1144 874 1267 703Q1319 631 1319 543Q1319 507 1310 467Q1266 271 1027 170H1291L1289 160L1177 0H624L626 10L738 170Q867
191 962 260Q1082 347 1110 467Q1115 488 1115 509Q1115 570 1070 623Q1000 704 853 704Q722 704 611 601Q519 516 489 384L412 50L201 -40H191Z" />
<glyph unicode="L" glyph-name="L" horiz-adv-x="1108" d="M450 0Q241 0 241 150Q241 179 249 214L537 1460L748 1550H758L449 214Q439 170 489 170H834Q952 170 1009 287H1019L1153 216Q1043 0 795 0H450Z" />
<glyph unicode="M" glyph-name="M" horiz-adv-x="2348" d="M1065 -40L1248 755Q1284 911 1284 1022Q1284 1091 1270 1144Q1213 1360 1026 1360Q840 1360 682 1144Q582 1007 524 755Q488 598 488 487Q488 418 502 366Q548 193 708 109L599 -40H589Q387 34 312 288Q288
369 288 472Q288 597 324 755Q392 1047 528 1222Q767 1530 1065 1530Q1359 1530 1458 1229Q1695 1530 1989 1530Q2287 1530 2384 1222Q2409 1143 2409 1040Q2409 914 2372 755Q2303 458 2170 312Q2087 221 2003 170H2287L2285 160L2173 0H1620L1622 10L1734 170Q1880
216 1993 358Q2116 513 2172 755Q2208 911 2208 1022Q2208 1091 2194 1144Q2137 1360 1950 1360Q1764 1360 1606 1144Q1507 1009 1448 755L1286 50L1075 -40H1065Z" />
<glyph unicode="N" glyph-name="N" horiz-adv-x="1454" d="M171 -40L354 755Q421 1046 558 1222Q798 1530 1095 1530Q1393 1530 1490 1222Q1515 1143 1515 1040Q1515 914 1478 755Q1409 458 1276 312Q1193 221 1109 170H1393L1391 160L1279 0H726L728 10L840 170Q986
216 1099 358Q1222 513 1278 755Q1314 911 1314 1022Q1314 1091 1300 1144Q1243 1360 1056 1360T712 1144Q613 1008 554 755L392 50L181 -40H171Z" />
<glyph unicode="O" glyph-name="O" horiz-adv-x="1424" d="M524 755Q488 596 488 485Q488 416 502 365Q561 150 747 150Q930 150 1090 366Q1189 500 1248 755Q1284 911 1284 1022Q1284 1091 1270 1144Q1213 1360 1026 1360Q841 1360 682 1144Q581 1007 524 755ZM324
754Q391 1046 528 1222Q768 1530 1065 1530Q1366 1530 1460 1222Q1484 1143 1484 1041Q1484 917 1448 755Q1382 465 1244 288Q1004 -20 707 -20T312 287Q287 365 287 470Q287 599 324 754Z" />
<glyph unicode="P" glyph-name="P" horiz-adv-x="1374" d="M171 -40L354 755Q421 1046 558 1222Q798 1530 1095 1530Q1345 1530 1446 1346Q1501 1246 1501 1131Q1501 1070 1486 1005Q1446 832 1291 684Q1099 500 807 500H614L617 510L729 670H847Q1035 670 1137
762Q1254 868 1286 1005Q1299 1061 1299 1109Q1299 1202 1251 1267Q1182 1360 1056 1360Q872 1360 712 1144Q613 1010 554 755L392 50L181 -40H171Z" />
<glyph unicode="Q" glyph-name="Q" horiz-adv-x="1424" d="M707 -20Q409 -20 312 288Q287 367 287 470Q287 596 324 755Q392 1047 528 1222Q768 1530 1065 1530Q1366 1530 1460 1222Q1484 1143 1484 1041Q1484 917 1448 755Q1382 465 1244 288Q1183 210 1121 153L1266
-158L1070 -241H1060L839 236L1035 319H1045L1047 312Q1069 337 1090 366Q1189 499 1248 755Q1284 911 1284 1022Q1284 1091 1270 1144Q1213 1360 1026 1360Q841 1360 682 1144Q583 1009 524 755Q487 595 487 485Q487 416 502 366Q543 230 628 180L707 -20Z" />
<glyph unicode="R" glyph-name="R" horiz-adv-x="1438" d="M171 -40L354 755Q421 1046 558 1222Q798 1530 1095 1530Q1345 1530 1446 1346Q1501 1246 1501 1131Q1501 1070 1486 1005Q1446 833 1291 684Q1191 588 1064 542L1298 43L1103 -40H1093L840 500H614L617
510L729 670H847Q1035 670 1137 762Q1254 868 1286 1005Q1299 1061 1299 1109Q1299 1202 1251 1267Q1182 1360 1056 1360Q872 1360 712 1144Q613 1010 554 755L392 50L181 -40H171Z" />
<glyph unicode="S" glyph-name="S" horiz-adv-x="1210" d="M186 288Q186 288 366 366H376Q435 150 621 150Q750 150 876 265Q966 347 998 478Q1006 511 1006 540Q1006 601 973 646Q914 726 779 756Q631 789 539 868Q453 942 453 1054Q453 1090 462 1132Q505 1313
660 1428Q797 1530 969 1530Q1193 1530 1265 1302L1089 1227H1079Q1043 1360 930 1360Q835 1360 761 1299Q688 1239 666 1147Q660 1122 660 1101Q660 1052 690 1021Q744 963 877 935Q1057 897 1149 779Q1213 697 1213 584Q1213 530 1199 472Q1157 285 976 132Q796
-20 581 -20Q282 -20 186 288Z" />
<glyph unicode="T" glyph-name="T" horiz-adv-x="1066" d="M424 -40L743 1340H622Q503 1340 447 1223H437L304 1294Q413 1510 662 1510H1410L1407 1500L1295 1340H943L645 50L434 -40H424Z" />
<glyph unicode="U" glyph-name="U" horiz-adv-x="1474" d="M1632 1550L1448 755Q1381 466 1244 288Q1006 -20 707 -20T312 288Q287 368 287 471Q287 597 324 755Q393 1051 527 1198Q611 1290 693 1340H409L412 1350L524 1510H1077L1074 1500L962 1340Q816 1294
704 1152Q578 993 524 755Q488 597 488 486Q488 416 502 366Q562 150 747 150Q931 150 1090 366Q1190 502 1248 755L1411 1460L1622 1550H1632Z" />
<glyph unicode="V" glyph-name="V" horiz-adv-x="1474" d="M537 1460L748 1550H758L574 755Q535 587 535 480Q535 410 552 366Q632 150 797 150Q980 150 1140 366Q1237 496 1298 755Q1335 911 1335 1021Q1335 1092 1320 1144Q1270 1319 1114 1401L1224 1550H1234Q1434
1476 1510 1222Q1534 1142 1534 1039Q1534 913 1498 755Q1432 466 1294 288Q1055 -20 757 -20T362 288Q337 367 337 470Q337 596 374 755L537 1460Z" />
<glyph unicode="W" glyph-name="W" horiz-adv-x="2348" d="M1632 1550L1448 755Q1412 597 1412 486Q1412 416 1426 366Q1486 150 1671 150Q1854 150 2014 366Q2114 501 2172 755Q2208 913 2208 1023Q2208 1092 2194 1144Q2147 1317 1988 1401L2098 1550H2108Q2309
1476 2384 1222Q2408 1141 2408 1038Q2408 916 2372 755Q2305 467 2168 288Q1931 -20 1631 -20Q1337 -20 1239 281Q1001 -20 707 -20Q408 -20 312 288Q287 368 287 471Q287 597 324 755Q393 1051 527 1198Q611 1290 693 1340H409L412 1350L524 1510H1077L1074 1500L962
1340Q816 1294 704 1152Q578 993 524 755Q488 597 488 486Q488 416 502 366Q562 150 747 150Q930 150 1090 366Q1190 501 1248 755L1411 1460L1622 1550H1632Z" />
<glyph unicode="X" glyph-name="X" horiz-adv-x="1278" d="M265 -40L110 42L676 730Q526 840 467 996Q415 1133 415 1275Q415 1369 437 1460L648 1550H658Q627 1416 627 1305Q627 1175 669 1076Q717 963 805 886L1351 1550H1361L1517 1467L946 774Q1097 656 1157
511Q1212 378 1212 235Q1212 145 1190 50L979 -40H969Q1001 96 1001 210Q1001 335 963 432Q923 533 817 618L275 -40H265Z" />
<glyph unicode="Y" glyph-name="Y" horiz-adv-x="1372" d="M540 954Q525 890 525 835Q525 735 572 665Q645 554 785 554Q921 554 1035 658Q1147 760 1178 894L1309 1460L1520 1550H1530L1184 50L973 -40H963L1094 530Q935 384 746 384Q488 384 375 588Q322 684
322 805Q322 875 340 954Q369 1082 459 1184Q545 1282 693 1340H409L412 1350L524 1510H1077L1074 1500L962 1340Q797 1300 669 1179Q571 1086 540 954Z" />
<glyph unicode="Z" glyph-name="Z" horiz-adv-x="1208" d="M313 0Q147 0 147 99Q147 115 151 134Q174 244 306 391L1131 1340H496L499 1350L611 1510H1171Q1341 1510 1341 1409Q1341 1393 1337 1374Q1311 1270 1177 1119L352 170H819Q937 170 994 287H1004L1138
216Q1028 0 780 0H313Z" />
<glyph unicode="[" glyph-name="bracketleft" horiz-adv-x="864" d="M684 -240H395Q186 -240 186 -90Q186 -61 194 -26L555 1536Q604 1750 854 1750H1218L1216 1740L1104 1580H815Q765 1580 755 1536L394 -26Q384 -70 434 -70H798L796 -80L684 -240Z" />
<glyph unicode="\" glyph-name="backslash" horiz-adv-x="974" d="M780 -140L375 1582L532 1650H542L947 -72L790 -140H780Z" />
<glyph unicode="]" glyph-name="bracketright" horiz-adv-x="864" d="M-5 -240L-3 -230L109 -70H398Q448 -70 458 -26L819 1536Q829 1580 779 1580H415L417 1590L529 1750H818Q1027 1750 1027 1600Q1027 1571 1019 1536L658 -26Q609 -240 359 -240H-5Z" />
<glyph unicode="^" glyph-name="asciicircum" horiz-adv-x="1321" d="M1059 1550H1069L1422 1088L1230 1006H1220L966 1328L565 1006H555L401 1088L867 1468L1059 1550Z" />
<glyph unicode="_" glyph-name="underscore" horiz-adv-x="1214" d="M55 -410L58 -400L178 -228H1011L1009 -238L888 -410H55Z" />
<glyph unicode="`" glyph-name="grave" horiz-adv-x="648" d="M684 1550H694L776 1205L646 1150H636L488 1466L684 1550Z" />
<glyph unicode="a" glyph-name="a" horiz-adv-x="1173" d="M567 -20Q345 -20 272 211Q252 274 252 353Q252 442 277 550Q327 761 427 889Q607 1120 831 1120Q1057 1120 1126 889Q1145 825 1145 747Q1145 658 1120 550L1033 174Q1023 130 1071 130H1148L1146 120L1034
-40Q825 -40 825 110Q825 139 833 174L920 550Q948 674 948 751Q948 789 941 818Q904 950 791 950T581 818Q520 735 477 550Q449 429 449 352Q449 311 457 282Q493 151 605 150H682L679 140L567 -20Z" />
<glyph unicode="b" glyph-name="b" horiz-adv-x="1173" d="M517 1460L728 1550H738L507 550Q479 425 479 348Q479 310 486 282Q524 150 636 150Q749 150 846 282Q907 365 950 550Q978 671 978 748Q978 789 970 818Q934 949 822 950H745L748 960L860 1120Q1082
1120 1155 889Q1175 826 1175 747Q1175 658 1150 550Q1101 340 1000 211Q819 -20 596 -20Q378 -20 301 211Q281 271 281 349Q281 437 307 550L517 1460Z" />
<glyph unicode="c" glyph-name="c" horiz-adv-x="1098" d="M1065 377Q1025 281 970 211Q790 -20 566 -20Q348 -20 271 211Q251 271 251 349Q251 440 277 550Q323 754 427 889Q605 1120 830 1120Q1054 1120 1125 892L950 818H940Q904 950 790 950Q677 950 580 818Q519
734 477 550Q449 426 449 349Q449 310 456 282Q494 150 606 150Q720 150 816 282L1055 377H1065Z" />
<glyph unicode="d" glyph-name="d" horiz-adv-x="1174" d="M1352 1550L1121 550Q1073 341 971 211Q790 -20 567 -20Q348 -20 272 211Q252 272 252 351Q252 439 277 550Q333 792 562 930H315L317 940L429 1100H897L895 1090L783 930Q643 846 580 766Q505 670 477
550Q449 429 449 352Q449 311 457 282Q493 150 607 150T818 283Q877 364 920 550L1131 1460L1342 1550H1352Z" />
<glyph unicode="e" glyph-name="e" horiz-adv-x="1128" d="M1065 377Q1025 281 970 211Q790 -20 566 -20Q348 -20 271 211Q251 271 251 349Q251 441 277 550Q323 754 427 889Q605 1120 830 1120Q1001 1120 1082 1013Q1145 930 1145 835Q1145 799 1136 762Q1099
609 970 495Q842 382 654 382H577L580 392L691 552Q799 552 859 610Q918 667 942 764Q948 788 948 810Q948 859 921 894Q881 950 790 950Q668 950 580 818Q516 722 477 550Q449 426 449 349Q449 310 456 282Q494 150 606 150Q720 150 816 282L1055 377H1065Z" />
<glyph unicode="f" glyph-name="f" horiz-adv-x="836" d="M171 -40L402 960Q450 1168 552 1299Q732 1530 954 1530H1089L1087 1520L974 1360H915Q804 1360 705 1228Q652 1157 611 1000H967L965 990L853 830H572L392 50L181 -40H171Z" />
<glyph unicode="g" glyph-name="g" horiz-adv-x="1173" d="M566 -20Q347 -20 271 211Q251 272 251 350Q251 441 277 550Q325 759 427 889Q608 1120 830 1120T1125 889Q1145 826 1145 747Q1145 658 1120 550L1025 140Q978 -65 876 -199Q700 -430 473 -430H232L234
-420L347 -260H512Q636 -260 722 -128Q787 -28 825 140L920 550Q948 671 948 748Q948 789 940 818Q904 950 790 950T579 817Q519 735 477 550Q449 427 449 349Q449 311 456 282Q492 151 604 150H681L678 140L566 -20Z" />
<glyph unicode="h" glyph-name="h" horiz-adv-x="1191" d="M191 -40L537 1460L748 1550H758L635 1016Q751 1120 880 1120Q1111 1120 1175 889Q1193 824 1193 748Q1193 657 1168 550Q1112 310 883 170H1130L1128 160L1016 0H548L550 10L662 170Q804 255 865 334Q941
432 968 550Q997 676 997 754Q997 792 990 818Q954 950 839 950Q727 950 630 818Q570 736 527 550L412 50L201 -40H191Z" />
<glyph unicode="i" glyph-name="i" horiz-adv-x="600" d="M504 1407Q516 1458 559 1494T653 1530T730 1494Q749 1468 749 1437Q749 1425 745 1407Q730 1354 690 1321Q646 1285 595 1285Q545 1285 518 1322Q500 1346 500 1375Q500 1389 504 1407ZM441 -40Q232 -40
232 110Q232 139 240 174L442 1050L653 1140H663L440 174Q430 130 478 130H555L553 120L441 -40Z" />
<glyph unicode="j" glyph-name="j" horiz-adv-x="600" d="M504 1407Q516 1458 559 1494T653 1530T730 1494Q749 1468 749 1437Q749 1425 745 1407Q730 1354 690 1321Q646 1285 595 1285Q545 1285 518 1322Q500 1346 500 1375Q500 1389 504 1407ZM-120 -430L3 -250Q68
-217 127 -138Q187 -57 230 130L442 1050L653 1140H663L430 130Q382 -79 280 -209Q99 -440 -123 -440L-120 -430Z" />
<glyph unicode="k" glyph-name="k" horiz-adv-x="1180" d="M191 -40L537 1460L748 1550H758L566 717L1047 1140H1057L1214 1057L846 752Q985 733 1058 659Q1133 583 1133 486Q1133 454 1125 420Q1089 267 872 170H1119L1117 160L1005 0H537L539 10L651 170Q740
196 816 253Q902 318 925 420Q930 442 930 461Q930 514 892 552Q852 592 752 592Q661 592 587 540Q512 487 486 372L412 50L201 -40H191Z" />
<glyph unicode="l" glyph-name="l" horiz-adv-x="600" d="M441 -40Q232 -40 232 110Q232 139 240 174L537 1460L748 1550H758L440 174Q430 130 478 130H555L553 120L441 -40Z" />
<glyph unicode="m" glyph-name="m" horiz-adv-x="1786" d="M784 -40L920 550Q948 673 948 751Q948 790 941 818Q908 950 791 950Q678 950 581 818Q521 736 477 550Q451 440 451 356Q451 315 457 282Q481 151 591 109L482 -40H472Q315 28 271 211Q254 281 254 359Q254
448 277 550Q324 756 427 889Q607 1120 831 1120Q1030 1120 1109 936Q1274 1120 1473 1120Q1694 1120 1769 889Q1789 827 1789 749Q1789 658 1763 550Q1707 308 1478 170H1725L1723 160L1611 0H1143L1145 10L1257 170Q1399 255 1460 334Q1536 431 1563 550Q1591
671 1591 749Q1591 790 1583 818Q1550 950 1433 950Q1320 950 1223 818Q1163 736 1120 550L1005 50L794 -40H784Z" />
<glyph unicode="n" glyph-name="n" horiz-adv-x="1143" d="M835 170Q835 170 1082 170L1080 160L968 0H500L502 10L614 170Q755 255 817 334Q893 432 920 550Q948 673 948 750Q948 791 940 818Q906 950 790 950Q677 950 580 818Q520 736 477 550L362 50L151 -40H141L277
550Q325 759 427 889Q608 1120 830 1120Q1058 1120 1125 889Q1145 820 1145 740Q1145 651 1121 550Q1065 308 835 170Z" />
<glyph unicode="o" glyph-name="o" horiz-adv-x="1143" d="M477 550Q449 426 449 349Q449 310 456 282Q494 150 606 150T816 282Q878 366 920 550Q948 673 948 750Q948 791 940 818Q906 950 790 950Q673 950 577 816Q519 735 477 550ZM277 549Q325 759 427 889Q608
1120 830 1120T1125 889Q1145 826 1145 747Q1145 660 1120 550Q1069 336 970 211Q787 -20 566 -20Q348 -20 271 210Q251 271 251 346Q251 434 277 549Z" />
<glyph unicode="p" glyph-name="p" horiz-adv-x="1164" d="M66 -450L297 550Q345 759 447 889Q628 1120 851 1120Q1070 1120 1146 889Q1166 828 1166 749Q1166 662 1141 550Q1085 308 856 170H1103L1101 160L989 0H521L523 10L635 170Q776 255 838 334Q914 432
941 550Q969 673 969 750Q969 790 961 818Q927 950 811 950Q697 950 600 817Q541 736 498 550L287 -360L76 -450H66Z" />
<glyph unicode="q" glyph-name="q" horiz-adv-x="1163" d="M910 -360L699 -450H689L920 550Q948 675 948 752Q948 790 941 818Q903 950 791 950Q678 950 581 818Q520 735 477 550Q449 429 449 352Q449 311 457 282Q493 151 605 150H682L679 140L567 -20Q345 -20
272 211Q252 274 252 353Q252 440 277 550Q327 761 427 889Q607 1120 831 1120Q1049 1120 1126 889Q1146 829 1146 751Q1146 663 1120 550L910 -360Z" />
<glyph unicode="r" glyph-name="r" horiz-adv-x="726" d="M141 -40L277 550Q325 759 427 889Q608 1120 830 1120H965L962 1110L849 950H790Q677 950 580 818Q520 736 477 550L362 50L151 -40H141Z" />
<glyph unicode="s" glyph-name="s" horiz-adv-x="1003" d="M168 208Q168 208 343 282H353Q389 150 503 150Q612 150 689 222Q751 280 768 351Q773 372 773 391Q773 437 743 467Q699 511 601 527Q476 547 411 603Q345 660 345 752Q345 785 354 825Q385 962 535
1055Q640 1120 757 1120Q954 1120 999 930L824 856H814Q790 950 717 950Q657 950 613 920Q561 885 545 821Q541 805 541 792Q541 752 574 733Q620 706 719 684Q844 657 909 595Q972 535 972 433Q972 391 961 340Q933 211 789 92Q653 -20 463 -20Q239 -20 168 208Z"
/>
<glyph unicode="t" glyph-name="t" horiz-adv-x="754" d="M518 -40Q309 -40 309 110Q309 139 317 174L492 930H235L237 940L349 1100H531L614 1460L825 1550H835L731 1100H988L986 1090L874 930H692L517 174Q507 130 555 130H632L630 120L518 -40Z" />
<glyph unicode="u" glyph-name="u" horiz-adv-x="1173" d="M1256 1140L1120 550Q1072 341 970 211Q789 -20 567 -20Q338 -20 272 211Q253 278 253 357Q253 447 277 550Q334 793 562 930H315L317 940L429 1100H897L895 1090L783 930Q643 846 580 766Q505 670 477
550Q449 429 449 352Q449 311 457 282Q493 150 607 150Q720 150 817 282Q877 364 920 550L1035 1050L1246 1140H1256Z" />
<glyph unicode="v" glyph-name="v" horiz-adv-x="1173" d="M422 1050L633 1140H643L507 550Q479 426 479 349Q479 310 486 282Q524 150 636 150Q749 150 846 282Q907 364 950 550Q976 661 976 745Q976 785 970 818Q946 948 836 991L945 1140H955Q1112 1072 1156
889Q1173 819 1173 741Q1173 652 1150 550Q1104 345 999 211Q819 -20 596 -20Q372 -20 301 211Q282 273 282 351Q282 439 307 550L422 1050Z" />
<glyph unicode="w" glyph-name="w" horiz-adv-x="1786" d="M1256 1140L1120 550Q1092 427 1092 349Q1092 310 1099 282Q1132 150 1249 150Q1362 150 1459 282Q1520 364 1563 550Q1589 661 1589 745Q1589 785 1583 818Q1559 948 1449 991L1558 1140H1568Q1725 1072
1769 889Q1786 819 1786 741Q1786 652 1763 550Q1717 346 1613 211Q1435 -20 1209 -20Q1010 -20 931 164Q766 -20 567 -20Q346 -20 271 211Q251 273 251 351Q251 442 277 550Q333 792 562 930H315L317 940L429 1100H897L895 1090L783 930Q641 845 580 766Q504 669
477 550Q449 429 449 351Q449 310 457 282Q490 150 607 150Q720 150 817 282Q877 364 920 550L1035 1050L1246 1140H1256Z" />
<glyph unicode="x" glyph-name="x" horiz-adv-x="1055" d="M275 -40H265L110 42L512 521Q392 598 344 719Q322 775 322 854Q322 937 347 1050L558 1140H568Q521 937 521 846Q521 814 529 790Q562 702 627 657L1033 1140H1043L1199 1057L793 575Q925 495 971 381Q993
326 993 248Q993 160 967 50L756 -40H746Q790 152 790 253Q790 287 785 310Q767 394 680 441L275 -40Z" />
<glyph unicode="y" glyph-name="y" horiz-adv-x="1193" d="M1256 1140L1025 140Q978 -65 876 -199Q700 -430 473 -430H232L234 -420L347 -260H512Q637 -260 722 -128Q780 -38 807 80Q686 -20 566 -20Q342 -20 271 211Q252 273 252 351Q252 439 277 550Q331 792
562 930H315L317 940L429 1100H897L895 1090L783 930Q643 846 580 766Q505 670 477 550Q449 429 449 352Q449 311 457 282Q493 150 607 150Q720 150 817 282Q877 364 920 550L1035 1050L1246 1140H1256Z" />
<glyph unicode="z" glyph-name="z" horiz-adv-x="1053" d="M293 0Q127 0 127 99Q127 115 131 134Q151 231 314 380L902 930H382L384 940L496 1100H941Q1107 1100 1107 1001Q1107 985 1103 966Q1084 877 921 724L332 170H684Q802 170 859 287H869L1003 216Q893
0 645 0H293Z" />
<glyph unicode="{" glyph-name="braceleft" horiz-adv-x="901" d="M720 -240Q492 -240 383 -95Q314 -3 314 126Q314 190 330 260L423 664H203L206 674L326 846H465L559 1250Q609 1467 776 1605Q951 1750 1179 1750H1255L1253 1740L1140 1580Q995 1580 886 1480Q792
1394 759 1250L530 260Q517 203 517 155Q517 81 549 30Q614 -70 759 -70H835L833 -80L720 -240Z" />
<glyph unicode="|" glyph-name="bar" horiz-adv-x="666" d="M195 -240L637 1676L810 1750H820L378 -166L205 -240H195Z" />
<glyph unicode="}" glyph-name="braceright" horiz-adv-x="901" d="M-5 -240L-3 -230L110 -70Q255 -70 364 30Q458 116 491 260L720 1250Q733 1308 733 1356Q733 1430 701 1480Q636 1580 491 1580H415L417 1590L530 1750Q759 1750 867 1605Q936 1512 936 1383Q936
1319 920 1250L826 846H1046L1044 836L923 664H784L691 260Q641 43 474 -95Q299 -240 71 -240H-5Z" />
<glyph unicode="~" glyph-name="asciitilde" horiz-adv-x="1138" d="M285 583Q368 944 605 944Q739 944 805 843Q859 760 913 760Q985 760 1009 863L1196 944H1206Q1123 583 886 583Q752 583 686 684Q632 767 577 767Q505 767 481 664L295 583H285Z" />
<glyph unicode="&#xa0;" glyph-name="uni00A0" horiz-adv-x="800" />
<glyph unicode="&#xa1;" glyph-name="exclamdown" horiz-adv-x="600" d="M746 1408Q734 1357 691 1321T597 1285T520 1321Q501 1347 501 1378Q501 1393 505 1408Q519 1461 560 1494Q605 1530 655 1530T732 1493Q750 1470 750 1439Q750 1426 746 1408ZM201 -40H191L431
1000L642 1090H652L412 50L201 -40Z" />
<glyph unicode="&#xa2;" glyph-name="cent" horiz-adv-x="1098" d="M452 -240L504 -15Q336 15 271 211Q251 271 251 349Q251 437 277 550Q325 758 427 889Q580 1086 764 1115L805 1290L922 1340H932L881 1117Q1062 1093 1125 892L950 818H940Q913 918 840 942L659
158Q743 182 816 282L1055 377H1065Q1025 281 970 211Q812 8 619 -17L579 -190L462 -240H452ZM544 162L724 938Q647 910 580 818Q519 735 477 550Q449 427 449 349Q449 311 456 282Q481 190 544 162Z" />
<glyph unicode="&#xa3;" glyph-name="sterling" horiz-adv-x="1279" d="M150 0L152 10L264 170H339L438 598H288L290 608L402 768H477L536 1024Q596 1284 763 1416Q907 1530 1068 1530Q1292 1530 1364 1302L1189 1228H1179Q1143 1360 1029 1360Q918 1360 852 1287Q778
1205 736 1024L677 768H1086L1084 758L972 598H638L539 170H1168L1166 160L1054 0H150Z" />
<glyph unicode="&#xa4;" glyph-name="currency" horiz-adv-x="1395" d="M228 336L379 459Q349 529 349 615Q349 677 365 748Q403 918 520 1044L421 1174L430 1181L622 1245L680 1172Q815 1248 985 1248T1256 1172L1346 1245L1511 1181L1516 1174L1356 1044Q1390
968 1390 881Q1390 818 1374 746Q1335 576 1219 450L1319 320L1310 313L1116 249L1059 322Q924 246 754 246Q578 246 476 329L397 265L233 329L228 336ZM795 426Q932 426 1052 529Q1144 608 1175 748Q1186 798 1186 835Q1186 909 1153 965Q1094 1068 943 1068Q806
1068 687 965Q593 884 564 748Q553 697 553 654Q553 582 586 528Q651 426 795 426Z" />
<glyph unicode="&#xa5;" glyph-name="yen" horiz-adv-x="1278" d="M507 -40L615 430H280L283 440L403 612H625L592 760H356L359 770L479 942H553L439 1467L633 1550H643L770 942H998L1421 1550H1431L1524 1500L1128 942H1312L1310 932L1189 760H999L894 612H1236L1234
602L1113 430H815L728 50L517 -40H507ZM871 760H808L823 690L871 760Z" />
<glyph unicode="&#xa6;" glyph-name="brokenbar" horiz-adv-x="666" d="M195 -240L386 587L559 661H569L378 -166L205 -240H195ZM810 1750H820L629 923L456 849H446L637 1676L810 1750Z" />
<glyph unicode="&#xa7;" glyph-name="section" horiz-adv-x="1130" d="M288 170L463 244H473Q497 150 570 150Q630 150 674 180Q726 215 742 279Q746 295 746 308Q746 348 713 367Q667 394 568 416Q444 443 378 505Q313 566 313 667Q313 711 325 760Q354 890 498
1008L598 878Q536 820 519 749Q514 728 514 709Q514 663 544 633Q588 589 686 573Q811 553 876 497T941 348Q941 314 932 275Q900 137 752 45Q647 -20 530 -20Q333 -20 288 170ZM1190 1340L1015 1266H1005Q982 1360 909 1360Q851 1360 805 1330Q748 1293 736 1231Q733
1216 733 1204Q733 1164 766 1143Q812 1115 911 1094Q1035 1067 1101 1005Q1165 945 1165 844Q1165 800 1153 750Q1121 618 981 502L881 632Q946 693 960 761Q964 781 964 799Q964 844 934 877Q893 921 792 937Q669 957 603 1013T537 1162Q537 1196 546 1235Q578
1374 726 1465Q832 1530 948 1530Q1145 1530 1190 1340Z" />
<glyph unicode="&#xa8;" glyph-name="dieresis" horiz-adv-x="840" d="M774 1407Q786 1458 829 1494T923 1530T1000 1494Q1019 1468 1019 1437Q1019 1425 1015 1407Q1000 1354 960 1321Q916 1285 865 1285Q815 1285 788 1322Q770 1346 770 1375Q770 1389 774 1407ZM473
1407Q485 1458 528 1494T622 1530T699 1494Q718 1468 718 1437Q718 1425 714 1407Q699 1354 659 1321Q615 1285 564 1285Q514 1285 487 1322Q469 1346 469 1375Q469 1389 473 1407Z" />
<glyph unicode="&#xa9;" glyph-name="copyright" horiz-adv-x="1401" d="M1145 632Q1118 562 1077 506Q958 342 784 342Q621 342 568 510Q554 554 554 609Q554 675 573 755Q609 909 681 1000Q811 1166 974 1166Q1149 1166 1198 977L1076 924H1050Q1028 1032 947
1032Q868 1032 797 938Q750 876 723 755Q706 679 706 627Q706 596 712 572Q739 478 817 478Q891 478 962 572L1104 632H1145ZM1008 1331Q1117 1331 1208 1288Q1293 1248 1358 1161Q1420 1078 1436 975Q1442 937 1442 896Q1442 832 1425 754Q1398 636 1335 535Q1272
435 1171 350Q1072 267 962 223Q855 180 743 180T541 223Q454 265 392 350Q329 436 313 535Q307 572 307 612Q307 680 324 754Q352 874 415 975Q480 1078 579 1161Q682 1247 788 1289Q896 1331 1008 1331ZM990 1251Q893 1251 801 1215T621 1105Q534 1032 478 944T399
759L398 754Q385 696 385 641Q385 603 391 566Q404 487 460 406Q512 331 587 296Q665 259 761 259Q856 259 951 296Q1042 332 1131 406Q1215 477 1271 565Q1325 649 1350 754Q1365 816 1365 874Q1365 911 1359 945Q1343 1034 1292 1105Q1237 1181 1164 1215Q1086
1251 990 1251Z" />
<glyph unicode="&#xaa;" glyph-name="ordfeminine" horiz-adv-x="955" d="M772 910L781 950Q735 920 686 920Q583 920 541 982Q511 1026 511 1079Q511 1103 517 1130Q536 1217 615 1280Q690 1340 783 1340Q825 1340 856 1317Q857 1343 855 1350Q839 1405 795 1405H658L665
1435L733 1530H824Q946 1530 987 1404Q998 1370 998 1327Q998 1281 985 1225L924 962L801 910H772ZM655 1132Q647 1093 662 1070Q678 1045 716 1045Q751 1045 784 1071Q813 1094 821 1129Q829 1165 810 1190T756 1215Q718 1215 690 1191Q663 1168 655 1132ZM303
664L306 674L426 846H1000L998 836L877 664H303Z" />
<glyph unicode="&#xab;" glyph-name="guillemotleft" horiz-adv-x="1208" d="M894 304L718 792L1120 1284H1130L1286 1202L950 795L1097 386L904 304H894ZM509 304L333 792L735 1284H745L901 1202L565 795L712 386L519 304H509Z" />
<glyph unicode="&#xac;" glyph-name="logicalnot" horiz-adv-x="1214" d="M303 664L306 674L426 846H1259L1257 836L950 402H735L937 664H303Z" />
<glyph unicode="&#xad;" glyph-name="uni00AD" horiz-adv-x="1214" d="M303 664L306 674L426 846H1259L1257 836L1136 664H303Z" />
<glyph unicode="&#xae;" glyph-name="registered" horiz-adv-x="1401" d="M1008 1331Q1117 1331 1208 1288Q1293 1248 1358 1161Q1420 1078 1436 975Q1442 937 1442 896Q1442 832 1425 754Q1398 636 1335 535Q1272 435 1171 350Q1072 267 962 223Q855 180 743
180T541 223Q454 265 392 350Q329 437 313 535Q307 573 307 613Q307 681 324 754Q352 874 415 975T579 1161Q678 1243 786 1288Q892 1331 1008 1331ZM990 1251Q893 1251 801 1215T621 1105Q534 1032 478 944T399 759L398 754Q384 696 384 641Q384 601 391 566Q404
489 460 406Q477 381 497 361L587 748Q622 901 694 994Q823 1161 988 1161Q1123 1161 1180 1059Q1211 1004 1211 940Q1211 917 1203 874Q1183 777 1096 697Q1053 657 1002 632L1114 392L1131 406Q1214 476 1271 565Q1326 651 1350 754Q1365 818 1365 876Q1365 912
1359 945Q1343 1032 1292 1105Q1239 1180 1164 1215Q1086 1251 990 1251ZM737 748L733 731H864Q947 731 989 769Q1041 816 1053 874Q1058 898 1058 919Q1058 958 1038 987Q1010 1026 957 1026Q882 1026 811 930Q765 868 737 748ZM533 329Q560 309 587 296Q662 259
761 259Q856 259 951 296Q1015 321 1077 365L986 326H962L836 596H702L652 380L533 329Z" />
<glyph unicode="&#xaf;" glyph-name="overscore" horiz-adv-x="1214" d="M457 1328L459 1338L580 1510H1413L1410 1500L1290 1328H457Z" />
<glyph unicode="&#xb0;" glyph-name="degree" horiz-adv-x="1038" d="M952 1130Q965 1186 965 1230Q965 1289 942 1327Q908 1383 838 1383T711 1330Q638 1261 607 1130Q594 1074 594 1030Q594 969 619 930Q653 877 721 877Q793 877 850 931Q921 998 952 1130ZM412
1133Q452 1307 596 1429Q715 1530 872 1530T1100 1430Q1161 1344 1161 1232Q1161 1184 1149 1130Q1106 952 962 830Q844 730 688 730Q530 730 459 831Q399 916 399 1024Q399 1078 412 1133Z" />
<glyph unicode="&#xb1;" glyph-name="plusminus" horiz-adv-x="1214" d="M206 243L208 253L329 425H1162L1160 415L1039 243H206ZM1017 1383L933 1017H1299L1296 1007L1176 835H891L825 550L634 469H624L709 835H343L345 845L466 1017H751L817 1302L1007 1383H1017Z" />
<glyph unicode="&#xb2;" glyph-name="uni00B2" horiz-adv-x="860" d="M466 730Q392 730 363 762Q343 784 343 819Q343 836 347 854Q393 1036 666 1144Q810 1201 825 1270Q830 1293 830 1311Q830 1336 820 1356Q799 1395 735 1395Q659 1395 588 1301H562L464 1353Q604
1530 766 1530Q900 1530 952 1449Q984 1399 984 1334Q984 1297 976 1264Q942 1122 715 1025Q598 975 549 938Q497 899 492 874Q490 865 497 865H727Q767 865 794 924H824L912 877Q842 730 696 730H466Z" />
<glyph unicode="&#xb3;" glyph-name="uni00B3" horiz-adv-x="845" d="M358 900L480 953H506Q527 845 613 845Q672 845 718 887Q758 924 771 980Q774 993 774 1005Q774 1029 760 1049Q737 1080 655 1080L592 1158L785 1375H543L552 1411L622 1510H870Q966 1510
966 1444Q966 1434 962 1416Q952 1371 886 1300L793 1204Q846 1192 883 1151Q927 1102 927 1035Q927 1010 921 981Q897 867 803 790Q707 712 578 712Q408 712 358 900Z" />
<glyph unicode="&#xb4;" glyph-name="acute" horiz-adv-x="648" d="M670 1550H680L836 1466L542 1150H532L428 1205L670 1550Z" />
<glyph unicode="&#xb5;" glyph-name="uni00B5" horiz-adv-x="1203" d="M1286 1140L1150 550Q1102 340 1001 211Q821 -20 597 -20Q470 -20 392 54L297 -360L86 -450H76L307 550Q363 792 592 930H345L347 940L459 1100H927L925 1090L813 930Q673 846 610 766Q535
670 507 550Q479 429 479 352Q479 311 487 282Q523 150 637 150Q750 150 847 282Q907 364 950 550L1065 1050L1276 1140H1286Z" />
<glyph unicode="&#xb6;" glyph-name="paragraph" horiz-adv-x="1180" d="M771 -40L919 604Q808 554 693 554Q534 554 446 669Q373 764 373 900Q373 968 391 1045Q446 1278 621 1420Q757 1530 918 1530Q1084 1530 1168 1424Q1240 1333 1240 1197Q1240 1127 1221
1046L992 50L918 19L1176 1137H1112L847 -12L781 -40H771Z" />
<glyph unicode="&#xb7;" glyph-name="middot" horiz-adv-x="600" d="M354 753Q366 804 409 840T503 876T580 840Q599 814 599 783Q599 771 595 753Q580 700 540 667Q496 631 445 631Q395 631 368 668Q350 692 350 721Q350 735 354 753Z" />
<glyph unicode="&#xb8;" glyph-name="cedilla" horiz-adv-x="609" d="M278 278Q456 171 456 20Q456 -10 449 -42Q419 -178 284 -286H274L105 -196Q258 -110 287 12Q292 33 292 55Q292 138 224 228L278 278Z" />
<glyph unicode="&#xb9;" glyph-name="uni00B9" horiz-adv-x="672" d="M436 710L590 1376L443 1268L482 1438L646 1550Q715 1550 740 1518Q757 1496 757 1465Q757 1449 753 1432L598 764L472 710H436Z" />
<glyph unicode="&#xba;" glyph-name="ordmasculine" horiz-adv-x="955" d="M671 1226Q657 1166 657 1129Q657 1112 660 1100Q674 1045 719 1045Q763 1045 804 1100Q833 1140 852 1225Q865 1284 865 1320Q865 1337 862 1350Q849 1405 802 1405Q754 1405 717 1351Q691
1314 671 1226ZM530 1226Q555 1333 610 1404Q708 1530 831 1530T994 1404Q1005 1369 1005 1326Q1005 1280 992 1225Q966 1116 911 1046Q812 920 690 920Q576 920 529 1043Q516 1077 516 1121T530 1226ZM303 664L306 674L426 846H1000L998 836L877 664H303Z" />
<glyph unicode="&#xbb;" glyph-name="guillemotright" horiz-adv-x="1208" d="M454 304H444L289 386L626 795L478 1202L670 1284H680L856 792L454 304ZM839 304H829L674 386L1011 795L863 1202L1055 1284H1065L1241 792L839 304Z" />
<glyph unicode="&#xbc;" glyph-name="onequarter" horiz-adv-x="1470" d="M436 710L590 1376L443 1268L482 1438L646 1550Q715 1550 740 1518Q757 1496 757 1465Q757 1449 753 1432L598 764L472 710H436ZM1035 -40L1081 159H860Q757 159 757 226Q757 238 760 252Q770
296 809 340L1240 800Q1311 800 1337 768Q1355 746 1355 714Q1355 700 1351 682L1262 294H1348L1340 258L1270 159H1231L1197 14L1071 -40H1035ZM1112 294L1172 556L932 294H1112ZM343 -40L217 28L1278 1550H1288L1413 1482L353 -40H343Z" />
<glyph unicode="&#xbd;" glyph-name="onehalf" horiz-adv-x="1553" d="M940 0Q866 0 837 32Q817 54 817 89Q817 106 821 124Q867 306 1140 414Q1284 471 1299 540Q1304 563 1304 581Q1304 606 1294 626Q1273 665 1209 665Q1133 665 1062 571H1036L938 623Q1078
800 1240 800Q1374 800 1426 719Q1458 669 1458 604Q1458 567 1450 534Q1416 392 1189 295Q1072 245 1023 208Q971 169 966 144Q964 135 971 135H1201Q1241 135 1268 194H1298L1386 147Q1316 0 1170 0H940ZM436 710L590 1376L443 1268L482 1438L646 1550Q715 1550
740 1518Q757 1496 757 1465Q757 1449 753 1432L598 764L472 710H436ZM343 -40L217 28L1278 1550H1288L1413 1482L353 -40H343Z" />
<glyph unicode="&#xbe;" glyph-name="threequarters" horiz-adv-x="1666" d="M1231 -40L1277 159H1056Q953 159 953 226Q953 236 956 252Q964 294 1005 340L1436 800Q1507 800 1533 768Q1551 746 1551 714Q1551 700 1547 682L1458 294H1544L1536 258L1466 159H1427L1393
14L1267 -40H1231ZM1308 294L1368 556L1128 294H1308ZM358 900L480 953H506Q527 845 613 845Q672 845 718 887Q758 924 771 980Q774 993 774 1005Q774 1029 760 1049Q737 1080 655 1080L592 1158L785 1375H543L552 1411L622 1510H870Q966 1510 966 1444Q966 1434
962 1416Q952 1371 886 1300L793 1204Q846 1192 883 1151Q927 1102 927 1035Q927 1010 921 981Q897 867 803 790Q707 712 578 712Q408 712 358 900ZM539 -40L413 28L1474 1550H1484L1609 1482L549 -40H539Z" />
<glyph unicode="&#xbf;" glyph-name="questiondown" horiz-adv-x="1228" d="M1100 1408Q1088 1357 1045 1321T951 1285T874 1321Q855 1347 855 1378Q855 1390 859 1408Q874 1461 914 1494Q958 1530 1009 1530Q1059 1530 1086 1493Q1104 1469 1104 1440Q1104 1426
1100 1408ZM1175 288Q936 -20 638 -20Q399 -20 301 125Q241 214 241 332Q241 393 257 462Q326 759 707 917Q789 951 813 1056L1028 1149H1038Q975 880 779 788Q502 658 455 461Q442 406 442 361Q443 292 472 246Q533 150 677 150Q860 150 1021 366H1031L1175 288Z"
/>
<glyph unicode="&#xc0;" glyph-name="Agrave" horiz-adv-x="1454" d="M171 -40L354 755Q421 1046 558 1222Q798 1530 1095 1530Q1393 1530 1490 1222Q1515 1143 1515 1040Q1515 914 1478 755Q1409 458 1276 312Q1193 221 1109 170H1393L1391 160L1279 0H726L728
10L840 170Q987 216 1099 358Q1220 511 1257 670H535L392 50L181 -40H171ZM576 840H1296Q1314 942 1314 1021Q1314 1091 1300 1144Q1243 1360 1056 1360Q868 1360 712 1146Q631 1033 576 840ZM1080 1966H1090L1172 1621L1043 1566H1033L884 1882L1080 1966Z" />
<glyph unicode="&#xc1;" glyph-name="Aacute" horiz-adv-x="1454" d="M171 -40L354 755Q421 1046 558 1222Q798 1530 1095 1530Q1393 1530 1490 1222Q1515 1143 1515 1040Q1515 914 1478 755Q1409 458 1276 312Q1193 221 1109 170H1393L1391 160L1279 0H726L728
10L840 170Q987 216 1099 358Q1220 511 1257 670H535L392 50L181 -40H171ZM576 840H1296Q1314 942 1314 1021Q1314 1091 1300 1144Q1243 1360 1056 1360Q868 1360 712 1146Q631 1033 576 840ZM1301 1966H1311L1467 1882L1174 1566H1164L1059 1621L1301 1966Z" />
<glyph unicode="&#xc2;" glyph-name="Acircumflex" horiz-adv-x="1454" d="M171 -40L354 755Q421 1046 558 1222Q798 1530 1095 1530Q1393 1530 1490 1222Q1515 1143 1515 1040Q1515 914 1478 755Q1409 458 1276 312Q1193 221 1109 170H1393L1391 160L1279 0H726L728
10L840 170Q987 216 1099 358Q1220 511 1257 670H535L392 50L181 -40H171ZM576 840H1296Q1314 942 1314 1021Q1314 1091 1300 1144Q1243 1360 1056 1360Q868 1360 712 1146Q631 1033 576 840ZM838 1621L1051 1882L1247 1966H1257L1390 1621L1262 1566H1252L1150
1774L954 1566H944L838 1621Z" />
<glyph unicode="&#xc3;" glyph-name="Atilde" horiz-adv-x="1454" d="M171 -40L354 755Q421 1046 558 1222Q798 1530 1095 1530Q1393 1530 1490 1222Q1515 1143 1515 1040Q1515 914 1478 755Q1409 458 1276 312Q1193 221 1109 170H1393L1391 160L1279 0H726L728
10L840 170Q987 216 1099 358Q1220 511 1257 670H535L392 50L181 -40H171ZM576 840H1296Q1314 942 1314 1021Q1314 1091 1300 1144Q1243 1360 1056 1360Q868 1360 712 1146Q631 1033 576 840ZM879 1638Q945 1924 1086 1924Q1150 1924 1207 1854Q1247 1805 1271
1805Q1305 1805 1321 1877L1442 1924H1448Q1382 1638 1241 1638Q1176 1638 1120 1708Q1081 1757 1057 1757Q1023 1757 1006 1685L885 1638H879Z" />
<glyph unicode="&#xc4;" glyph-name="Adieresis" horiz-adv-x="1454" d="M1186 1802Q1198 1853 1241 1889T1335 1925T1412 1889Q1431 1863 1431 1832Q1431 1820 1427 1802Q1412 1749 1372 1716Q1328 1680 1277 1680Q1227 1680 1200 1717Q1182 1741 1182 1770Q1182
1784 1186 1802ZM885 1802Q897 1853 940 1889T1034 1925T1111 1889Q1130 1863 1130 1832Q1130 1820 1126 1802Q1111 1749 1071 1716Q1027 1680 976 1680Q926 1680 899 1717Q881 1741 881 1770Q881 1784 885 1802ZM171 -40L354 755Q421 1046 558 1222Q798 1530 1095
1530Q1393 1530 1490 1222Q1515 1143 1515 1040Q1515 914 1478 755Q1409 458 1276 312Q1193 221 1109 170H1393L1391 160L1279 0H726L728 10L840 170Q987 216 1099 358Q1220 511 1257 670H535L392 50L181 -40H171ZM576 840H1296Q1314 942 1314 1021Q1314 1091 1300
1144Q1243 1360 1056 1360Q868 1360 712 1146Q631 1033 576 840Z" />
<glyph unicode="&#xc5;" glyph-name="Aring" horiz-adv-x="1454" d="M171 -40L354 755Q421 1046 558 1222Q798 1530 1095 1530Q1393 1530 1490 1222Q1515 1143 1515 1040Q1515 914 1478 755Q1409 458 1276 312Q1193 221 1109 170H1393L1391 160L1279 0H726L728
10L840 170Q987 216 1099 358Q1220 511 1257 670H535L392 50L181 -40H171ZM576 840H1296Q1314 942 1314 1021Q1314 1091 1300 1144Q1243 1360 1056 1360Q868 1360 712 1146Q631 1033 576 840ZM1104 1588Q1022 1588 978 1637Q943 1677 943 1732Q943 1753 948 1777Q965
1858 1043 1917Q1108 1966 1189 1966Q1269 1966 1313 1917Q1348 1878 1348 1824Q1348 1802 1342 1777Q1321 1689 1251 1636Q1187 1588 1104 1588ZM1165 1862Q1131 1862 1106 1841Q1080 1819 1071 1777Q1067 1759 1067 1746Q1067 1723 1077 1712Q1095 1692 1125
1692Q1157 1692 1183 1714Q1208 1734 1217 1777Q1221 1795 1221 1808Q1221 1829 1211 1842Q1195 1861 1165 1862Z" />
<glyph unicode="&#xc6;" glyph-name="AE" horiz-adv-x="2318" d="M576 840H1296Q1314 942 1314 1021Q1314 1091 1300 1144Q1243 1360 1056 1360Q872 1360 714 1145Q628 1028 576 840ZM2307 474Q2267 380 2196 288Q1959 -20 1659 -20Q1365 -20 1267 279Q1077 33
847 -40H837L796 109Q993 193 1120 366Q1202 478 1257 670H535L392 50L181 -40H171L354 755Q421 1046 558 1222Q798 1530 1095 1530Q1390 1530 1487 1231Q1723 1530 2017 1530Q2316 1530 2412 1222L2232 1144H2222Q2164 1360 1978 1360T1634 1144Q1553 1033 1498
840H2096L2094 830L1982 670H1459Q1440 564 1440 484Q1440 415 1454 366Q1516 150 1699 150Q1884 150 2042 366L2297 474H2307Z" />
<glyph unicode="&#xc7;" glyph-name="Ccedilla" horiz-adv-x="1366" d="M1355 474Q1315 380 1244 288Q1033 14 772 -16Q808 -75 808 -143Q808 -174 801 -206Q771 -342 636 -450H626L457 -360Q610 -274 639 -152Q644 -131 644 -109Q644 -63 623 -13Q395 26 312
288Q287 367 287 470Q287 596 324 755Q392 1047 528 1222Q768 1530 1065 1530Q1364 1530 1460 1222L1280 1144H1270Q1212 1360 1026 1360Q841 1360 682 1144Q581 1007 524 755Q488 596 488 485Q488 417 502 366Q561 150 747 150Q932 150 1090 366L1345 474H1355Z"
/>
<glyph unicode="&#xc8;" glyph-name="Egrave" horiz-adv-x="1366" d="M1355 474Q1315 380 1244 288Q1007 -20 707 -20Q409 -20 312 288Q287 367 287 470Q287 596 324 755Q392 1047 528 1222Q768 1530 1065 1530Q1364 1530 1460 1222L1280 1144H1270Q1212 1360
1026 1360T682 1144Q601 1033 546 840H1144L1142 830L1030 670H507Q488 564 488 484Q488 415 502 366Q564 150 747 150Q932 150 1090 366L1345 474H1355ZM1046 1966H1056L1139 1621L1009 1566H999L851 1882L1046 1966Z" />
<glyph unicode="&#xc9;" glyph-name="Eacute" horiz-adv-x="1366" d="M1355 474Q1315 380 1244 288Q1007 -20 707 -20Q409 -20 312 288Q287 367 287 470Q287 596 324 755Q392 1047 528 1222Q768 1530 1065 1530Q1364 1530 1460 1222L1280 1144H1270Q1212 1360
1026 1360T682 1144Q601 1033 546 840H1144L1142 830L1030 670H507Q488 564 488 484Q488 415 502 366Q564 150 747 150Q932 150 1090 366L1345 474H1355ZM1283 1966H1293L1450 1882L1156 1566H1146L1042 1621L1283 1966Z" />
<glyph unicode="&#xca;" glyph-name="Ecircumflex" horiz-adv-x="1366" d="M1355 474Q1315 380 1244 288Q1007 -20 707 -20Q409 -20 312 288Q287 367 287 470Q287 596 324 755Q392 1047 528 1222Q768 1530 1065 1530Q1364 1530 1460 1222L1280 1144H1270Q1212
1360 1026 1360T682 1144Q601 1033 546 840H1144L1142 830L1030 670H507Q488 564 488 484Q488 415 502 366Q564 150 747 150Q932 150 1090 366L1345 474H1355ZM825 1621L1038 1882L1233 1966H1243L1377 1621L1248 1566H1238L1136 1774L940 1566H930L825 1621Z"
/>
<glyph unicode="&#xcb;" glyph-name="Edieresis" horiz-adv-x="1366" d="M1186 1802Q1198 1853 1241 1889T1335 1925T1412 1889Q1431 1863 1431 1832Q1431 1820 1427 1802Q1412 1749 1372 1716Q1328 1680 1277 1680Q1227 1680 1200 1717Q1182 1741 1182 1770Q1182
1784 1186 1802ZM885 1802Q897 1853 940 1889T1034 1925T1111 1889Q1130 1863 1130 1832Q1130 1820 1126 1802Q1111 1749 1071 1716Q1027 1680 976 1680Q926 1680 899 1717Q881 1741 881 1770Q881 1784 885 1802ZM1355 474Q1315 380 1244 288Q1007 -20 707 -20Q409
-20 312 288Q287 367 287 470Q287 596 324 755Q392 1047 528 1222Q768 1530 1065 1530Q1364 1530 1460 1222L1280 1144H1270Q1212 1360 1026 1360T682 1144Q601 1033 546 840H1144L1142 830L1030 670H507Q488 564 488 484Q488 415 502 366Q564 150 747 150Q932
150 1090 366L1345 474H1355Z" />
<glyph unicode="&#xcc;" glyph-name="Igrave" horiz-adv-x="600" d="M696 1966H706L788 1621L659 1566H649L500 1882L696 1966ZM191 -40L537 1460L748 1550H758L412 50L201 -40H191Z" />
<glyph unicode="&#xcd;" glyph-name="Iacute" horiz-adv-x="600" d="M802 1966H812L968 1882L675 1566H665L560 1621L802 1966ZM191 -40L537 1460L748 1550H758L412 50L201 -40H191Z" />
<glyph unicode="&#xce;" glyph-name="Icircumflex" horiz-adv-x="600" d="M191 -40L537 1460L748 1550H758L412 50L201 -40H191ZM398 1621L610 1882L806 1966H816L950 1621L821 1566H811L709 1774L513 1566H503L398 1621Z" />
<glyph unicode="&#xcf;" glyph-name="Idieresis" horiz-adv-x="600" d="M745 1802Q757 1853 800 1889T894 1925T971 1889Q990 1863 990 1832Q990 1820 986 1802Q971 1749 931 1716Q887 1680 836 1680Q786 1680 759 1717Q741 1741 741 1770Q741 1784 745 1802ZM444
1802Q456 1853 499 1889T593 1925T670 1889Q689 1863 689 1832Q689 1820 685 1802Q670 1749 630 1716Q586 1680 535 1680Q485 1680 458 1717Q440 1741 440 1770Q440 1784 444 1802ZM191 -40L537 1460L748 1550H758L412 50L201 -40H191Z" />
<glyph unicode="&#xd0;" glyph-name="Eth" horiz-adv-x="1454" d="M171 -40L334 670H205L207 680L319 840H376Q442 1072 558 1222Q796 1530 1095 1530Q1396 1530 1490 1222Q1514 1143 1514 1041Q1514 917 1478 755Q1421 504 1278 314Q1042 0 742 0H549L551 10L663
170H781Q966 170 1124 392Q1228 538 1278 755Q1314 911 1314 1022Q1314 1091 1300 1144Q1243 1360 1056 1360Q870 1360 712 1144Q630 1032 576 840H1045L1043 830L931 670H534L392 50L181 -40H171Z" />
<glyph unicode="&#xd1;" glyph-name="Ntilde" horiz-adv-x="1454" d="M171 -40L354 755Q421 1046 558 1222Q798 1530 1095 1530Q1393 1530 1490 1222Q1515 1143 1515 1040Q1515 914 1478 755Q1409 458 1276 312Q1193 221 1109 170H1393L1391 160L1279 0H726L728
10L840 170Q986 216 1099 358Q1222 513 1278 755Q1314 911 1314 1022Q1314 1091 1300 1144Q1243 1360 1056 1360T712 1144Q613 1008 554 755L392 50L181 -40H171ZM879 1638Q945 1924 1086 1924Q1150 1924 1207 1854Q1247 1805 1271 1805Q1305 1805 1321 1877L1442
1924H1448Q1382 1638 1241 1638Q1176 1638 1120 1708Q1081 1757 1057 1757Q1023 1757 1006 1685L885 1638H879Z" />
<glyph unicode="&#xd2;" glyph-name="Ograve" horiz-adv-x="1424" d="M524 755Q488 596 488 485Q488 416 502 365Q561 150 747 150Q930 150 1090 366Q1189 500 1248 755Q1284 911 1284 1022Q1284 1091 1270 1144Q1213 1360 1026 1360Q841 1360 682 1144Q581 1007
524 755ZM324 754Q391 1046 528 1222Q768 1530 1065 1530Q1366 1530 1460 1222Q1484 1143 1484 1041Q1484 917 1448 755Q1382 465 1244 288Q1004 -20 707 -20T312 287Q287 365 287 470Q287 599 324 754ZM1050 1966H1060L1142 1621L1013 1566H1003L854 1882L1050
1966Z" />
<glyph unicode="&#xd3;" glyph-name="Oacute" horiz-adv-x="1424" d="M524 755Q488 596 488 485Q488 416 502 365Q561 150 747 150Q930 150 1090 366Q1189 500 1248 755Q1284 911 1284 1022Q1284 1091 1270 1144Q1213 1360 1026 1360Q841 1360 682 1144Q581 1007
524 755ZM324 754Q391 1046 528 1222Q768 1530 1065 1530Q1366 1530 1460 1222Q1484 1143 1484 1041Q1484 917 1448 755Q1382 465 1244 288Q1004 -20 707 -20T312 287Q287 365 287 470Q287 599 324 754ZM1271 1966H1281L1437 1882L1144 1566H1134L1029 1621L1271
1966Z" />
<glyph unicode="&#xd4;" glyph-name="Ocircumflex" horiz-adv-x="1424" d="M524 755Q488 596 488 485Q488 416 502 365Q561 150 747 150Q930 150 1090 366Q1189 500 1248 755Q1284 911 1284 1022Q1284 1091 1270 1144Q1213 1360 1026 1360Q841 1360 682 1144Q581
1007 524 755ZM324 754Q391 1046 528 1222Q768 1530 1065 1530Q1366 1530 1460 1222Q1484 1143 1484 1041Q1484 917 1448 755Q1382 465 1244 288Q1004 -20 707 -20T312 287Q287 365 287 470Q287 599 324 754ZM808 1621L1021 1882L1217 1966H1227L1360 1621L1232
1566H1222L1120 1774L924 1566H914L808 1621Z" />
<glyph unicode="&#xd5;" glyph-name="Otilde" horiz-adv-x="1424" d="M524 755Q488 596 488 485Q488 416 502 365Q561 150 747 150Q930 150 1090 366Q1189 500 1248 755Q1284 911 1284 1022Q1284 1091 1270 1144Q1213 1360 1026 1360Q841 1360 682 1144Q581 1007
524 755ZM324 754Q391 1046 528 1222Q768 1530 1065 1530Q1366 1530 1460 1222Q1484 1143 1484 1041Q1484 917 1448 755Q1382 465 1244 288Q1004 -20 707 -20T312 287Q287 365 287 470Q287 599 324 754ZM849 1638Q915 1924 1056 1924Q1120 1924 1177 1854Q1217
1805 1241 1805Q1275 1805 1291 1877L1412 1924H1418Q1352 1638 1211 1638Q1146 1638 1090 1708Q1051 1757 1027 1757Q993 1757 976 1685L855 1638H849Z" />
<glyph unicode="&#xd6;" glyph-name="Odieresis" horiz-adv-x="1424" d="M524 755Q488 596 488 485Q488 416 502 365Q561 150 747 150Q930 150 1090 366Q1189 500 1248 755Q1284 911 1284 1022Q1284 1091 1270 1144Q1213 1360 1026 1360Q841 1360 682 1144Q581
1007 524 755ZM324 754Q391 1046 528 1222Q768 1530 1065 1530Q1366 1530 1460 1222Q1484 1143 1484 1041Q1484 917 1448 755Q1382 465 1244 288Q1004 -20 707 -20T312 287Q287 365 287 470Q287 599 324 754ZM1186 1802Q1198 1853 1241 1889T1335 1925T1412 1889Q1431
1863 1431 1832Q1431 1820 1427 1802Q1412 1749 1372 1716Q1328 1680 1277 1680Q1227 1680 1200 1717Q1182 1741 1182 1770Q1182 1784 1186 1802ZM885 1802Q897 1853 940 1889T1034 1925T1111 1889Q1130 1863 1130 1832Q1130 1820 1126 1802Q1111 1749 1071 1716Q1027
1680 976 1680Q926 1680 899 1717Q881 1741 881 1770Q881 1784 885 1802Z" />
<glyph unicode="&#xd7;" glyph-name="multiply" horiz-adv-x="1075" d="M270 489L265 496L583 755L384 1014L393 1021L586 1085L741 884L989 1085L1154 1021L1159 1014L840 755L1040 496L1031 489L837 425L682 626L434 425L270 489Z" />
<glyph unicode="&#xd8;" glyph-name="Oslash" horiz-adv-x="1424" d="M402 -40H392L299 10L386 135Q340 200 312 288Q287 367 287 470Q287 596 324 755Q392 1047 528 1222Q768 1530 1065 1530Q1210 1530 1307 1458L1371 1550H1381L1473 1499L1386 1375Q1432 1312
1460 1222Q1485 1142 1485 1039Q1485 913 1448 755Q1380 465 1244 288Q1007 -20 707 -20Q563 -20 466 52L402 -40ZM526 755Q488 591 488 481Q488 414 502 366Q507 349 517 323L1193 1294Q1129 1360 1026 1360Q848 1360 684 1144Q586 1016 526 755ZM1256 1188L581
217Q645 150 747 150Q930 150 1090 366Q1186 496 1248 755Q1286 914 1286 1026Q1286 1094 1272 1145Q1266 1167 1256 1188Z" />
<glyph unicode="&#xd9;" glyph-name="Ugrave" horiz-adv-x="1474" d="M1632 1550L1448 755Q1381 466 1244 288Q1006 -20 707 -20T312 288Q287 368 287 471Q287 597 324 755Q393 1051 527 1198Q611 1290 693 1340H409L412 1350L524 1510H1077L1074 1500L962 1340Q816
1294 704 1152Q578 993 524 755Q488 597 488 486Q488 416 502 366Q562 150 747 150Q931 150 1090 366Q1190 502 1248 755L1411 1460L1622 1550H1632ZM1150 1966H1160L1242 1621L1113 1566H1103L954 1882L1150 1966Z" />
<glyph unicode="&#xda;" glyph-name="Uacute" horiz-adv-x="1474" d="M1632 1550L1448 755Q1381 466 1244 288Q1006 -20 707 -20T312 288Q287 368 287 471Q287 597 324 755Q393 1051 527 1198Q611 1290 693 1340H409L412 1350L524 1510H1077L1074 1500L962 1340Q816
1294 704 1152Q578 993 524 755Q488 597 488 486Q488 416 502 366Q562 150 747 150Q931 150 1090 366Q1190 502 1248 755L1411 1460L1622 1550H1632ZM1371 1966H1381L1537 1882L1244 1566H1234L1129 1621L1371 1966Z" />
<glyph unicode="&#xdb;" glyph-name="Ucircumflex" horiz-adv-x="1474" d="M1632 1550L1448 755Q1381 466 1244 288Q1006 -20 707 -20T312 288Q287 368 287 471Q287 597 324 755Q393 1051 527 1198Q611 1290 693 1340H409L412 1350L524 1510H1077L1074 1500L962
1340Q816 1294 704 1152Q578 993 524 755Q488 597 488 486Q488 416 502 366Q562 150 747 150Q931 150 1090 366Q1190 502 1248 755L1411 1460L1622 1550H1632ZM908 1621L1121 1882L1317 1966H1327L1460 1621L1332 1566H1322L1220 1774L1024 1566H1014L908 1621Z"
/>
<glyph unicode="&#xdc;" glyph-name="Udieresis" horiz-adv-x="1474" d="M1632 1550L1448 755Q1381 466 1244 288Q1006 -20 707 -20T312 288Q287 368 287 471Q287 597 324 755Q393 1051 527 1198Q611 1290 693 1340H409L412 1350L524 1510H1077L1074 1500L962
1340Q816 1294 704 1152Q578 993 524 755Q488 597 488 486Q488 416 502 366Q562 150 747 150Q931 150 1090 366Q1190 502 1248 755L1411 1460L1622 1550H1632ZM1249 1802Q1261 1853 1304 1889T1398 1925T1475 1889Q1494 1863 1494 1832Q1494 1820 1490 1802Q1475
1749 1435 1716Q1391 1680 1340 1680Q1290 1680 1263 1717Q1245 1741 1245 1770Q1245 1784 1249 1802ZM948 1802Q960 1853 1003 1889T1097 1925T1174 1889Q1193 1863 1193 1832Q1193 1820 1189 1802Q1174 1749 1134 1716Q1090 1680 1039 1680Q989 1680 962 1717Q944
1741 944 1770Q944 1784 948 1802Z" />
<glyph unicode="&#xdd;" glyph-name="Yacute" horiz-adv-x="1372" d="M540 954Q525 890 525 835Q525 735 572 665Q645 554 785 554Q921 554 1035 658Q1147 760 1178 894L1309 1460L1520 1550H1530L1184 50L973 -40H963L1094 530Q935 384 746 384Q488 384 375 588Q322
684 322 805Q322 875 340 954Q369 1082 459 1184Q545 1282 693 1340H409L412 1350L524 1510H1077L1074 1500L962 1340Q797 1300 669 1179Q571 1086 540 954ZM1271 1966H1281L1437 1882L1144 1566H1134L1029 1621L1271 1966Z" />
<glyph unicode="&#xde;" glyph-name="Thorn" horiz-adv-x="1394" d="M191 -40L537 1460L748 1550H758L671 1173Q855 1333 1070 1333Q1318 1333 1420 1149Q1476 1048 1476 932Q1476 872 1461 808Q1421 637 1265 487Q1073 303 782 303H589L591 313L703 473H821Q1008
473 1111 565Q1231 672 1261 808Q1273 862 1273 910Q1273 1002 1225 1070Q1158 1163 1030 1163Q845 1163 687 947Q587 810 529 558L412 50L201 -40H191Z" />
<glyph unicode="&#xdf;" glyph-name="germandbls" horiz-adv-x="1249" d="M171 -40L402 960Q449 1167 552 1299Q732 1530 954 1530Q1130 1530 1217 1434Q1287 1357 1287 1246Q1287 1198 1274 1145Q1232 967 1040 864Q1096 851 1140 805Q1222 719 1222 589Q1222
536 1208 472Q1162 278 982 128Q808 -17 590 -20H510L513 -10L623 149Q745 149 865 248Q973 337 1004 468Q1017 523 1017 566Q1017 628 993 667Q938 763 781 763L783 773L901 944Q953 960 995 998Q1053 1050 1075 1147Q1084 1186 1084 1218Q1084 1273 1054 1311Q1004
1370 928 1370Q813 1370 705 1228Q645 1149 605 975L392 50L181 -40H171Z" />
<glyph unicode="&#xe0;" glyph-name="agrave" horiz-adv-x="1173" d="M567 -20Q345 -20 272 211Q252 274 252 353Q252 442 277 550Q327 761 427 889Q607 1120 831 1120Q1057 1120 1126 889Q1145 825 1145 747Q1145 658 1120 550L1033 174Q1023 130 1071 130H1148L1146
120L1034 -40Q825 -40 825 110Q825 139 833 174L920 550Q948 674 948 751Q948 789 941 818Q904 950 791 950T581 818Q520 735 477 550Q449 429 449 352Q449 311 457 282Q493 151 605 150H682L679 140L567 -20ZM793 1566H803L885 1221L755 1166H745L597 1482L793
1566Z" />
<glyph unicode="&#xe1;" glyph-name="aacute" horiz-adv-x="1173" d="M567 -20Q345 -20 272 211Q252 274 252 353Q252 442 277 550Q327 761 427 889Q607 1120 831 1120Q1057 1120 1126 889Q1145 825 1145 747Q1145 658 1120 550L1033 174Q1023 130 1071 130H1148L1146
120L1034 -40Q825 -40 825 110Q825 139 833 174L920 550Q948 674 948 751Q948 789 941 818Q904 950 791 950T581 818Q520 735 477 550Q449 429 449 352Q449 311 457 282Q493 151 605 150H682L679 140L567 -20ZM1025 1566H1035L1191 1482L897 1166H887L783 1221L1025
1566Z" />
<glyph unicode="&#xe2;" glyph-name="acircumflex" horiz-adv-x="1173" d="M567 -20Q345 -20 272 211Q252 274 252 353Q252 442 277 550Q327 761 427 889Q607 1120 831 1120Q1057 1120 1126 889Q1145 825 1145 747Q1145 658 1120 550L1033 174Q1023 130 1071 130H1148L1146
120L1034 -40Q825 -40 825 110Q825 139 833 174L920 550Q948 674 948 751Q948 789 941 818Q904 950 791 950T581 818Q520 735 477 550Q449 429 449 352Q449 311 457 282Q493 151 605 150H682L679 140L567 -20ZM556 1221L769 1482L965 1566H975L1108 1221L979 1166H969L867
1374L671 1166H661L556 1221Z" />
<glyph unicode="&#xe3;" glyph-name="atilde" horiz-adv-x="1173" d="M567 -20Q345 -20 272 211Q252 274 252 353Q252 442 277 550Q327 761 427 889Q607 1120 831 1120Q1057 1120 1126 889Q1145 825 1145 747Q1145 658 1120 550L1033 174Q1023 130 1071 130H1148L1146
120L1034 -40Q825 -40 825 110Q825 139 833 174L920 550Q948 674 948 751Q948 789 941 818Q904 950 791 950T581 818Q520 735 477 550Q449 429 449 352Q449 311 457 282Q493 151 605 150H682L679 140L567 -20ZM606 1232Q672 1518 813 1518Q877 1518 934 1448Q974
1399 998 1399Q1032 1399 1049 1471L1169 1518H1175Q1109 1232 968 1232Q905 1232 848 1302Q808 1351 784 1351Q750 1351 733 1279L612 1232H606Z" />
<glyph unicode="&#xe4;" glyph-name="adieresis" horiz-adv-x="1173" d="M922 1407Q934 1458 977 1494T1071 1530T1148 1494Q1167 1468 1167 1437Q1167 1425 1163 1407Q1148 1354 1108 1321Q1064 1285 1013 1285Q963 1285 936 1322Q918 1346 918 1375Q918 1389
922 1407ZM621 1407Q633 1458 676 1494T770 1530T847 1494Q866 1468 866 1437Q866 1425 862 1407Q847 1354 807 1321Q763 1285 712 1285Q662 1285 635 1322Q617 1346 617 1375Q617 1389 621 1407ZM567 -20Q345 -20 272 211Q252 274 252 353Q252 442 277 550Q327
761 427 889Q607 1120 831 1120Q1057 1120 1126 889Q1145 825 1145 747Q1145 658 1120 550L1033 174Q1023 130 1071 130H1148L1146 120L1034 -40Q825 -40 825 110Q825 139 833 174L920 550Q948 674 948 751Q948 789 941 818Q904 950 791 950T581 818Q520 735 477
550Q449 429 449 352Q449 311 457 282Q493 151 605 150H682L679 140L567 -20Z" />
<glyph unicode="&#xe5;" glyph-name="aring" horiz-adv-x="1173" d="M827 1188Q745 1188 701 1237Q666 1277 666 1332Q666 1353 671 1377Q688 1458 766 1517Q831 1566 912 1566Q992 1566 1036 1517Q1071 1478 1071 1424Q1071 1402 1065 1377Q1044 1289 974 1236Q910
1188 827 1188ZM888 1462Q854 1462 829 1441Q803 1419 794 1377Q790 1359 790 1346Q790 1323 800 1312Q818 1292 848 1292Q880 1292 906 1314Q931 1334 940 1377Q944 1395 944 1408Q944 1429 934 1442Q918 1461 888 1462ZM567 -20Q345 -20 272 211Q252 274 252
353Q252 442 277 550Q327 761 427 889Q607 1120 831 1120Q1057 1120 1126 889Q1145 825 1145 747Q1145 658 1120 550L1033 174Q1023 130 1071 130H1148L1146 120L1034 -40Q825 -40 825 110Q825 139 833 174L920 550Q948 674 948 751Q948 789 941 818Q904 950 791
950T581 818Q520 735 477 550Q449 429 449 352Q449 311 457 282Q493 151 605 150H682L679 140L567 -20Z" />
<glyph unicode="&#xe6;" glyph-name="ae" horiz-adv-x="1771" d="M784 -40L920 550Q948 675 948 752Q948 790 941 818Q903 950 791 950Q678 950 581 818Q520 735 477 550Q449 429 449 352Q449 311 457 282Q493 151 605 150H682L679 140L567 -20Q345 -20 272 211Q252
274 252 353Q252 440 277 550Q325 759 427 889Q608 1120 831 1120Q1027 1120 1109 935Q1273 1120 1473 1120Q1644 1120 1725 1013Q1788 930 1788 835Q1788 799 1779 762Q1742 609 1613 495Q1485 382 1297 382H1220L1222 392L1334 552Q1442 552 1502 610Q1561 667
1585 764Q1591 788 1591 810Q1591 858 1564 894Q1524 950 1433 950Q1311 950 1223 818Q1159 722 1120 550Q1092 426 1092 349Q1092 309 1099 282Q1137 150 1249 150Q1363 150 1459 282L1698 377H1708Q1668 281 1613 211Q1433 -20 1209 -20Q1083 -20 1004 56L794
-40H784Z" />
<glyph unicode="&#xe7;" glyph-name="ccedilla" horiz-adv-x="1098" d="M1065 377Q1025 282 970 211Q817 15 633 -15Q668 -72 668 -140Q668 -172 660 -206Q627 -344 495 -450H485L316 -360Q471 -273 498 -152Q503 -130 503 -108Q503 -62 481 -10Q332 28 271 211Q251
271 251 349Q251 440 277 550Q323 754 427 889Q605 1120 830 1120Q1054 1120 1125 892L950 818H940Q904 950 790 950Q677 950 580 818Q519 734 477 550Q449 426 449 349Q449 310 456 282Q494 150 606 150Q720 150 816 282L1055 377H1065Z" />
<glyph unicode="&#xe8;" glyph-name="egrave" horiz-adv-x="1128" d="M1065 377Q1025 281 970 211Q790 -20 566 -20Q348 -20 271 211Q251 271 251 349Q251 441 277 550Q323 754 427 889Q605 1120 830 1120Q1001 1120 1082 1013Q1145 930 1145 835Q1145 799 1136
762Q1099 609 970 495Q842 382 654 382H577L580 392L691 552Q799 552 859 610Q918 667 942 764Q948 788 948 810Q948 859 921 894Q881 950 790 950Q668 950 580 818Q516 722 477 550Q449 426 449 349Q449 310 456 282Q494 150 606 150Q720 150 816 282L1055 377H1065ZM813
1566H823L905 1221L775 1166H765L617 1482L813 1566Z" />
<glyph unicode="&#xe9;" glyph-name="eacute" horiz-adv-x="1128" d="M1065 377Q1025 281 970 211Q790 -20 566 -20Q348 -20 271 211Q251 271 251 349Q251 441 277 550Q323 754 427 889Q605 1120 830 1120Q1001 1120 1082 1013Q1145 930 1145 835Q1145 799 1136
762Q1099 609 970 495Q842 382 654 382H577L580 392L691 552Q799 552 859 610Q918 667 942 764Q948 788 948 810Q948 859 921 894Q881 950 790 950Q668 950 580 818Q516 722 477 550Q449 426 449 349Q449 310 456 282Q494 150 606 150Q720 150 816 282L1055 377H1065ZM1045
1566H1055L1211 1482L917 1166H907L803 1221L1045 1566Z" />
<glyph unicode="&#xea;" glyph-name="ecircumflex" horiz-adv-x="1128" d="M1065 377Q1025 281 970 211Q790 -20 566 -20Q348 -20 271 211Q251 271 251 349Q251 441 277 550Q323 754 427 889Q605 1120 830 1120Q1001 1120 1082 1013Q1145 930 1145 835Q1145 799
1136 762Q1099 609 970 495Q842 382 654 382H577L580 392L691 552Q799 552 859 610Q918 667 942 764Q948 788 948 810Q948 859 921 894Q881 950 790 950Q668 950 580 818Q516 722 477 550Q449 426 449 349Q449 310 456 282Q494 150 606 150Q720 150 816 282L1055
377H1065ZM576 1221L789 1482L985 1566H995L1128 1221L999 1166H989L887 1374L691 1166H681L576 1221Z" />
<glyph unicode="&#xeb;" glyph-name="edieresis" horiz-adv-x="1128" d="M922 1407Q934 1458 977 1494T1071 1530T1148 1494Q1167 1468 1167 1437Q1167 1425 1163 1407Q1148 1354 1108 1321Q1064 1285 1013 1285Q963 1285 936 1322Q918 1346 918 1375Q918 1389
922 1407ZM621 1407Q633 1458 676 1494T770 1530T847 1494Q866 1468 866 1437Q866 1425 862 1407Q847 1354 807 1321Q763 1285 712 1285Q662 1285 635 1322Q617 1346 617 1375Q617 1389 621 1407ZM1065 377Q1025 281 970 211Q790 -20 566 -20Q348 -20 271 211Q251
271 251 349Q251 441 277 550Q323 754 427 889Q605 1120 830 1120Q1001 1120 1082 1013Q1145 930 1145 835Q1145 799 1136 762Q1099 609 970 495Q842 382 654 382H577L580 392L691 552Q799 552 859 610Q918 667 942 764Q948 788 948 810Q948 859 921 894Q881 950
790 950Q668 950 580 818Q516 722 477 550Q449 426 449 349Q449 310 456 282Q494 150 606 150Q720 150 816 282L1055 377H1065Z" />
<glyph unicode="&#xec;" glyph-name="igrave" horiz-adv-x="600" d="M441 -40Q232 -40 232 110Q232 139 240 174L442 1050L653 1140H663L440 174Q430 130 478 130H555L553 120L441 -40ZM604 1566H614L696 1221L566 1166H556L408 1482L604 1566Z" />
<glyph unicode="&#xed;" glyph-name="iacute" horiz-adv-x="600" d="M441 -40Q232 -40 232 110Q232 139 240 174L442 1050L653 1140H663L440 174Q430 130 478 130H555L553 120L441 -40ZM710 1566H720L876 1482L582 1166H572L468 1221L710 1566Z" />
<glyph unicode="&#xee;" glyph-name="icircumflex" horiz-adv-x="600" d="M441 -40Q232 -40 232 110Q232 139 240 174L442 1050L653 1140H663L440 174Q430 130 478 130H555L553 120L441 -40ZM306 1221L519 1482L715 1566H725L858 1221L729 1166H719L617 1374L421
1166H411L306 1221Z" />
<glyph unicode="&#xef;" glyph-name="idieresis" horiz-adv-x="600" d="M654 1407Q666 1458 709 1494T803 1530T880 1494Q899 1468 899 1437Q899 1425 895 1407Q880 1354 840 1321Q796 1285 745 1285Q695 1285 668 1322Q650 1346 650 1375Q650 1389 654 1407ZM353
1407Q365 1458 408 1494T502 1530T579 1494Q598 1468 598 1437Q598 1425 594 1407Q579 1354 539 1321Q495 1285 444 1285Q394 1285 367 1322Q349 1346 349 1375Q349 1389 353 1407ZM441 -40Q232 -40 232 110Q232 139 240 174L442 1050L653 1140H663L440 174Q430
130 478 130H555L553 120L441 -40Z" />
<glyph unicode="&#xf0;" glyph-name="eth" horiz-adv-x="1180" d="M255 452Q293 614 392 733Q548 920 783 920H860L858 910L746 750Q640 750 552 652Q485 577 454 450Q440 392 440 344Q440 288 458 248Q500 150 606 150Q710 150 798 248Q867 325 896 450L966 755Q1006
929 1006 1034Q1006 1106 988 1147L819 1039H809L668 1107L928 1273Q873 1353 782 1401L892 1550H902Q1027 1503 1104 1386L1222 1461H1232L1374 1393L1166 1260Q1175 1236 1178 1222Q1200 1134 1200 1032Q1200 903 1166 755L1096 450Q1057 281 958 167Q797 -20
566 -20Q338 -20 262 165Q236 228 236 307Q236 374 255 452Z" />
<glyph unicode="&#xf1;" glyph-name="ntilde" horiz-adv-x="1143" d="M835 170Q835 170 1082 170L1080 160L968 0H500L502 10L614 170Q755 255 817 334Q893 432 920 550Q948 673 948 750Q948 791 940 818Q906 950 790 950Q677 950 580 818Q520 736 477 550L362
50L151 -40H141L277 550Q325 759 427 889Q608 1120 830 1120Q1058 1120 1125 889Q1145 820 1145 740Q1145 651 1121 550Q1065 308 835 170ZM626 1232Q692 1518 833 1518Q897 1518 954 1448Q994 1399 1018 1399Q1052 1399 1069 1471L1189 1518H1195Q1129 1232 988
1232Q925 1232 868 1302Q828 1351 804 1351Q770 1351 753 1279L632 1232H626Z" />
<glyph unicode="&#xf2;" glyph-name="ograve" horiz-adv-x="1143" d="M477 550Q449 426 449 349Q449 310 456 282Q494 150 606 150T816 282Q878 366 920 550Q948 673 948 750Q948 791 940 818Q906 950 790 950Q673 950 577 816Q519 735 477 550ZM277 549Q325 759
427 889Q608 1120 830 1120T1125 889Q1145 826 1145 747Q1145 660 1120 550Q1069 336 970 211Q787 -20 566 -20Q348 -20 271 210Q251 271 251 346Q251 434 277 549ZM813 1566H823L905 1221L775 1166H765L617 1482L813 1566Z" />
<glyph unicode="&#xf3;" glyph-name="oacute" horiz-adv-x="1143" d="M477 550Q449 426 449 349Q449 310 456 282Q494 150 606 150T816 282Q878 366 920 550Q948 673 948 750Q948 791 940 818Q906 950 790 950Q673 950 577 816Q519 735 477 550ZM277 549Q325 759
427 889Q608 1120 830 1120T1125 889Q1145 826 1145 747Q1145 660 1120 550Q1069 336 970 211Q787 -20 566 -20Q348 -20 271 210Q251 271 251 346Q251 434 277 549ZM1045 1566H1055L1211 1482L917 1166H907L803 1221L1045 1566Z" />
<glyph unicode="&#xf4;" glyph-name="ocircumflex" horiz-adv-x="1143" d="M477 550Q449 426 449 349Q449 310 456 282Q494 150 606 150T816 282Q878 366 920 550Q948 673 948 750Q948 791 940 818Q906 950 790 950Q673 950 577 816Q519 735 477 550ZM277 549Q325
759 427 889Q608 1120 830 1120T1125 889Q1145 826 1145 747Q1145 660 1120 550Q1069 336 970 211Q787 -20 566 -20Q348 -20 271 210Q251 271 251 346Q251 434 277 549ZM576 1221L789 1482L985 1566H995L1128 1221L999 1166H989L887 1374L691 1166H681L576 1221Z"
/>
<glyph unicode="&#xf5;" glyph-name="otilde" horiz-adv-x="1143" d="M477 550Q449 426 449 349Q449 310 456 282Q494 150 606 150T816 282Q878 366 920 550Q948 673 948 750Q948 791 940 818Q906 950 790 950Q673 950 577 816Q519 735 477 550ZM277 549Q325 759
427 889Q608 1120 830 1120T1125 889Q1145 826 1145 747Q1145 660 1120 550Q1069 336 970 211Q787 -20 566 -20Q348 -20 271 210Q251 271 251 346Q251 434 277 549ZM626 1232Q692 1518 833 1518Q897 1518 954 1448Q994 1399 1018 1399Q1052 1399 1069 1471L1189
1518H1195Q1129 1232 988 1232Q925 1232 868 1302Q828 1351 804 1351Q770 1351 753 1279L632 1232H626Z" />
<glyph unicode="&#xf6;" glyph-name="odieresis" horiz-adv-x="1143" d="M477 550Q449 426 449 349Q449 310 456 282Q494 150 606 150T816 282Q878 366 920 550Q948 673 948 750Q948 791 940 818Q906 950 790 950Q673 950 577 816Q519 735 477 550ZM277 549Q325
759 427 889Q608 1120 830 1120T1125 889Q1145 826 1145 747Q1145 660 1120 550Q1069 336 970 211Q787 -20 566 -20Q348 -20 271 210Q251 271 251 346Q251 434 277 549ZM922 1407Q934 1458 977 1494T1071 1530T1148 1494Q1167 1468 1167 1437Q1167 1425 1163 1407Q1148
1354 1108 1321Q1064 1285 1013 1285Q963 1285 936 1322Q918 1346 918 1375Q918 1389 922 1407ZM621 1407Q633 1458 676 1494T770 1530T847 1494Q866 1468 866 1437Q866 1425 862 1407Q847 1354 807 1321Q763 1285 712 1285Q662 1285 635 1322Q617 1346 617 1375Q617
1389 621 1407Z" />
<glyph unicode="&#xf7;" glyph-name="divide" horiz-adv-x="1214" d="M738 1087Q750 1138 793 1174T887 1210T964 1174Q983 1148 983 1117Q983 1103 979 1085Q966 1035 924 1001Q880 965 829 965Q779 965 752 1002Q734 1026 734 1054Q734 1069 738 1087ZM586 427Q598
478 641 514T735 550T812 514Q831 488 831 457Q831 441 828 427Q817 377 773 341T677 305Q627 305 600 342Q582 367 582 394Q582 409 586 427ZM303 664L306 674L426 846H1259L1257 836L1136 664H303Z" />
<glyph unicode="&#xf8;" glyph-name="oslash" horiz-adv-x="1143" d="M356 -40H346L253 10L320 106Q291 151 271 211Q251 270 251 348Q251 437 277 550Q325 758 427 889Q606 1120 830 1120Q927 1120 994 1076L1039 1140H1049L1142 1089L1077 995Q1106 950 1125
889Q1145 825 1145 746Q1145 657 1120 550Q1071 341 970 211Q791 -20 566 -20Q469 -20 401 25L356 -40ZM885 918Q847 950 790 950Q675 950 579 817Q519 733 477 550Q449 427 449 350Q449 320 453 297L885 918ZM943 803L511 183Q549 150 606 150Q716 150 816 282Q887
375 923 550Q948 672 948 742Q948 777 943 803Z" />
<glyph unicode="&#xf9;" glyph-name="ugrave" horiz-adv-x="1173" d="M1256 1140L1120 550Q1072 341 970 211Q789 -20 567 -20Q338 -20 272 211Q253 278 253 357Q253 447 277 550Q334 793 562 930H315L317 940L429 1100H897L895 1090L783 930Q643 846 580 766Q505
670 477 550Q449 429 449 352Q449 311 457 282Q493 150 607 150Q720 150 817 282Q877 364 920 550L1035 1050L1246 1140H1256ZM893 1566H903L985 1221L855 1166H845L697 1482L893 1566Z" />
<glyph unicode="&#xfa;" glyph-name="uacute" horiz-adv-x="1173" d="M1256 1140L1120 550Q1072 341 970 211Q789 -20 567 -20Q338 -20 272 211Q253 278 253 357Q253 447 277 550Q334 793 562 930H315L317 940L429 1100H897L895 1090L783 930Q643 846 580 766Q505
670 477 550Q449 429 449 352Q449 311 457 282Q493 150 607 150Q720 150 817 282Q877 364 920 550L1035 1050L1246 1140H1256ZM1125 1566H1135L1291 1482L997 1166H987L883 1221L1125 1566Z" />
<glyph unicode="&#xfb;" glyph-name="ucircumflex" horiz-adv-x="1173" d="M1256 1140L1120 550Q1072 341 970 211Q789 -20 567 -20Q338 -20 272 211Q253 278 253 357Q253 447 277 550Q334 793 562 930H315L317 940L429 1100H897L895 1090L783 930Q643 846 580
766Q505 670 477 550Q449 429 449 352Q449 311 457 282Q493 150 607 150Q720 150 817 282Q877 364 920 550L1035 1050L1246 1140H1256ZM656 1221L869 1482L1065 1566H1075L1208 1221L1079 1166H1069L967 1374L771 1166H761L656 1221Z" />
<glyph unicode="&#xfc;" glyph-name="udieresis" horiz-adv-x="1173" d="M1256 1140L1120 550Q1072 341 970 211Q789 -20 567 -20Q338 -20 272 211Q253 278 253 357Q253 447 277 550Q334 793 562 930H315L317 940L429 1100H897L895 1090L783 930Q643 846 580 766Q505
670 477 550Q449 429 449 352Q449 311 457 282Q493 150 607 150Q720 150 817 282Q877 364 920 550L1035 1050L1246 1140H1256ZM1003 1407Q1015 1458 1058 1494T1152 1530T1229 1494Q1248 1468 1248 1437Q1248 1425 1244 1407Q1229 1354 1189 1321Q1145 1285 1094
1285Q1044 1285 1017 1322Q999 1346 999 1375Q999 1389 1003 1407ZM702 1407Q714 1458 757 1494T851 1530T928 1494Q947 1468 947 1437Q947 1425 943 1407Q928 1354 888 1321Q844 1285 793 1285Q743 1285 716 1322Q698 1346 698 1375Q698 1389 702 1407Z" />
<glyph unicode="&#xfd;" glyph-name="yacute" horiz-adv-x="1193" d="M1256 1140L1025 140Q978 -65 876 -199Q700 -430 473 -430H232L234 -420L347 -260H512Q637 -260 722 -128Q780 -38 807 80Q686 -20 566 -20Q342 -20 271 211Q252 273 252 351Q252 439 277 550Q331
792 562 930H315L317 940L429 1100H897L895 1090L783 930Q643 846 580 766Q505 670 477 550Q449 429 449 352Q449 311 457 282Q493 150 607 150Q720 150 817 282Q877 364 920 550L1035 1050L1246 1140H1256ZM1125 1566H1135L1291 1482L997 1166H987L883 1221L1125
1566Z" />
<glyph unicode="&#xfe;" glyph-name="thorn" horiz-adv-x="1193" d="M96 -450L537 1460L748 1550H758L635 1016Q760 1120 881 1120Q1099 1120 1176 889Q1196 829 1196 751Q1196 660 1170 550Q1123 342 1021 211Q842 -20 617 -20H540L543 -10L655 150Q770 150 867
282Q929 366 971 550Q999 673 999 750Q999 791 991 818Q955 950 841 950T630 817Q571 736 528 550L317 -360L106 -450H96Z" />
<glyph unicode="&#xff;" glyph-name="ydieresis" horiz-adv-x="1193" d="M1256 1140L1025 140Q978 -65 876 -199Q700 -430 473 -430H232L234 -420L347 -260H512Q637 -260 722 -128Q780 -38 807 80Q686 -20 566 -20Q342 -20 271 211Q252 273 252 351Q252 439 277
550Q331 792 562 930H315L317 940L429 1100H897L895 1090L783 930Q643 846 580 766Q505 670 477 550Q449 429 449 352Q449 311 457 282Q493 150 607 150Q720 150 817 282Q877 364 920 550L1035 1050L1246 1140H1256ZM1003 1407Q1015 1458 1058 1494T1152 1530T1229
1494Q1248 1468 1248 1437Q1248 1425 1244 1407Q1229 1354 1189 1321Q1145 1285 1094 1285Q1044 1285 1017 1322Q999 1346 999 1375Q999 1389 1003 1407ZM702 1407Q714 1458 757 1494T851 1530T928 1494Q947 1468 947 1437Q947 1425 943 1407Q928 1354 888 1321Q844
1285 793 1285Q743 1285 716 1322Q698 1346 698 1375Q698 1389 702 1407Z" />
<glyph unicode="&#x2013;" glyph-name="endash" horiz-adv-x="1214" d="M303 664L306 674L426 846H1259L1257 836L1136 664H303Z" />
<glyph unicode="&#x2014;" glyph-name="emdash" horiz-adv-x="1214" d="M178 664L181 674L301 846H1384L1382 836L1261 664H178Z" />
<glyph unicode="&#x2018;" glyph-name="quoteleft" horiz-adv-x="609" d="M753 1550L784 1500Q647 1386 621 1284Q615 1260 615 1238Q617 1144 707 1076L497 986H487Q425 1064 425 1158Q425 1194 434 1232Q479 1424 753 1550Z" />
<glyph unicode="&#x2019;" glyph-name="quoteright" horiz-adv-x="609" d="M698 1550H708Q769 1471 769 1377Q769 1343 761 1306Q720 1116 442 986L410 1036Q547 1149 573 1252Q579 1276 579 1298Q577 1392 487 1460L698 1550Z" />
<glyph unicode="&#x201a;" glyph-name="quotesinglbase" horiz-adv-x="609" d="M404 278H414Q475 200 475 106Q475 72 467 34Q427 -156 148 -286L117 -236Q253 -123 279 -20Q285 4 285 26Q285 121 193 188L404 278Z" />
<glyph unicode="&#x201c;" glyph-name="quotedblleft" horiz-adv-x="924" d="M1068 1550L1099 1500Q962 1386 936 1284Q930 1260 930 1238Q932 1144 1022 1076L812 986H802Q740 1064 740 1158Q740 1194 749 1232Q794 1424 1068 1550ZM753 1550L784 1500Q647 1386
621 1284Q615 1260 615 1238Q617 1144 707 1076L497 986H487Q425 1064 425 1158Q425 1194 434 1232Q479 1424 753 1550Z" />
<glyph unicode="&#x201d;" glyph-name="quotedblright" horiz-adv-x="924" d="M1012 1550H1022Q1083 1471 1083 1377Q1083 1343 1075 1306Q1034 1116 756 986L724 1036Q861 1149 887 1252Q893 1276 893 1298Q891 1392 801 1460L1012 1550ZM698 1550H708Q769 1471
769 1377Q769 1343 761 1306Q720 1116 442 986L410 1036Q547 1149 573 1252Q579 1276 579 1298Q577 1392 487 1460L698 1550Z" />
<glyph unicode="&#x201e;" glyph-name="quotedblbase" horiz-adv-x="924" d="M718 278H728Q789 199 789 105Q789 71 781 34Q740 -156 462 -286L430 -236Q567 -123 593 -20Q599 4 599 26Q597 120 507 188L718 278ZM404 278H414Q475 199 475 105Q475 71 467 34Q426
-156 148 -286L116 -236Q253 -123 279 -20Q285 4 285 26Q283 120 193 188L404 278Z" />
<glyph unicode="&#x2022;" glyph-name="bullet" horiz-adv-x="1038" d="M324 757Q364 931 508 1053Q627 1154 784 1154T1012 1054Q1073 968 1073 856Q1073 808 1061 754Q1018 576 874 454Q756 354 600 354Q442 354 371 455Q311 540 311 648Q311 702 324 757Z" />
<glyph unicode="&#x2039;" glyph-name="guilsinglleft" horiz-adv-x="823" d="M509 304L333 792L735 1284H745L901 1202L565 795L712 386L519 304H509Z" />
<glyph unicode="&#x203a;" glyph-name="guilsinglright" horiz-adv-x="823" d="M444 304L289 386L626 795L478 1202L670 1284H680L856 792L454 304H444Z" />
</font>
</defs>
</svg>
