<?xml version="1.0" standalone="no"?>
<!DOCTYPE svg PUBLIC "-//W3C//DTD SVG 1.1//EN" "http://www.w3.org/Graphics/SVG/1.1/DTD/svg11.dtd">
<svg xmlns="http://www.w3.org/2000/svg">
<defs >
<font id="Dynalight" horiz-adv-x="609" ><font-face
    font-family="Dynalight"
    units-per-em="2048"
    panose-1="3 2 5 2 3 5 7 7 10 3"
    ascent="1840"
    descent="-645"
    alphabetic="0" />
<glyph unicode=" " glyph-name="space" horiz-adv-x="490" />
<glyph unicode="!" glyph-name="exclam" horiz-adv-x="445" d="M41 199H14L495 1397H636L41 199ZM51 66Q51 37 30 16T-20 -6Q-49 -6 -69 15T-90 66Q-90 95 -70 115T-20 135Q9 135 30 115T51 66Z" />
<glyph unicode="&quot;" glyph-name="quotedbl" horiz-adv-x="332" d="M354 994H307L428 1357H553L354 994ZM186 994H141L260 1357H385L186 994Z" />
<glyph unicode="#" glyph-name="numbersign" horiz-adv-x="674" d="M-24 204L78 436H-52L-31 482H97L205 727H69L90 773H224L316 982H367L275 773H417L509 982H559L467 773H604L583 727H448L340 482H483L462 436H321L219 204H169L271 436H129L27 204H-24ZM290
482L398 727H256L148 482H290Z" />
<glyph unicode="$" glyph-name="dollar" horiz-adv-x="680" d="M475 1138Q506 1129 532 1116T579 1086T618 1052T649 1017L565 949Q512 1048 458 1086L327 683Q353 650 378 616T424 545T456 469T469 387Q469 319 442 267T371 179T273 125T167 107Q160 107 154
107T141 108L76 -93L30 -79L93 115Q58 123 28 137T-27 168T-71 204T-105 241L-21 309Q11 250 43 215T108 162L247 588Q220 622 193 657T145 730T110 804T97 881Q97 953 123 1004T191 1088T284 1136T387 1151Q408 1151 429 1148L482 1311L526 1295L475 1138ZM195
923Q195 873 223 826T292 727L415 1107Q395 1112 378 1112Q342 1112 309 1101T251 1066T210 1007T195 923ZM369 354Q369 401 344 448T282 543L154 147Q159 146 164 146T176 146Q212 146 246 160T308 202T352 267T369 354Z" />
<glyph unicode="%" glyph-name="percent" horiz-adv-x="1077" d="M199 657Q135 657 96 700T56 818Q56 893 86 965T163 1094T270 1185T390 1220Q454 1220 493 1177T533 1059Q533 984 503 912T426 783T319 692T199 657ZM212 700Q239 700 266 717T319 763T367 831T406
913T432 1000T442 1086Q442 1135 424 1157T378 1180Q351 1180 324 1163T270 1116T222 1047T183 965T157 878T147 792Q147 742 166 721T212 700ZM124 0H40L843 1219H927L124 0ZM577 0Q513 0 474 43T434 161Q434 236 464 308T541 437T648 528T768 563Q832 563 871
520T911 402Q911 327 881 255T804 126T697 35T577 0ZM590 43Q617 43 644 60T697 106T745 174T784 256T810 343T820 429Q820 478 802 500T756 523Q729 523 702 506T648 459T600 390T561 308T535 221T525 135Q525 85 544 64T590 43Z" />
<glyph unicode="&amp;" glyph-name="ampersand" horiz-adv-x="886" d="M778 207H516Q493 160 458 120T380 49T287 2T185 -16Q154 -16 117 -9T46 19T-9 76T-32 169Q-32 229 -8 280T52 373T132 448T215 504T282 542T318 563Q325 567 325 574Q325 586 310 594T275
614T241 643T225 690Q225 726 251 765T317 837T404 890T494 911Q535 909 568 896Q596 885 619 862T644 794L539 710Q546 734 546 756Q546 804 525 832T467 860Q441 860 418 852T378 829T350 795T340 753Q340 738 347 725T364 701T385 682T406 668Q422 658 440 644T458
609Q458 597 448 586T412 564Q380 550 342 528T266 474T193 401T134 311Q98 237 98 176Q98 122 128 90T222 57Q259 57 295 69T363 101T422 148T470 207H436Q395 207 366 218T317 247T289 289T280 337Q280 367 290 392T320 436T366 465T425 475Q445 475 467 468T507
445T537 404T549 343Q549 331 548 320T545 297H824L778 207ZM324 367Q324 341 346 319T419 297H510Q516 321 516 344Q516 396 490 422T419 448Q402 448 385 443T355 428T333 403T324 367Z" />
<glyph unicode="&apos;" glyph-name="quotesingle" horiz-adv-x="164" d="M186 994H141L260 1357H385L186 994Z" />
<glyph unicode="(" glyph-name="parenleft" horiz-adv-x="602" d="M98 -106Q66 -18 48 82T29 288Q29 394 48 501T111 713Q139 781 182 855T278 1004T393 1154T518 1295T649 1421T778 1524H811Q641 1365 511 1185T291 821T155 454T109 107Q109 52 114 -2T131 -106H98Z" />
<glyph unicode=")" glyph-name="parenright" horiz-adv-x="602" d="M-197 -106Q-41 42 88 215T310 572T454 942T505 1301Q505 1358 500 1413T483 1524H515Q553 1458 572 1366T592 1168Q592 993 540 827T390 501T152 191T-164 -106H-197Z" />
<glyph unicode="*" glyph-name="asterisk" horiz-adv-x="492" d="M376 979L303 818L222 870L343 1005L173 1032L203 1123L355 1046L328 1219H425L398 1046L550 1123L580 1032L409 1005L531 871L451 818L376 979Z" />
<glyph unicode="+" glyph-name="plus" horiz-adv-x="800" d="M354 547L243 271H159L271 547H7L38 623H301L413 898H497L385 623H663L632 547H354Z" />
<glyph unicode="," glyph-name="comma" horiz-adv-x="268" d="M-132 -102Q-117 -93 -103 -82T-75 -59T-53 -34T-40 -9Q-67 -3 -83 17T-100 61Q-100 92 -79 113T-29 135Q3 135 24 114T46 60Q46 33 32 6T-6 -48T-57 -96T-114 -133L-132 -102Z" />
<glyph unicode="-" glyph-name="hyphen" horiz-adv-x="800" d="M55 412L94 528H601L562 412H55Z" />
<glyph unicode="." glyph-name="period" horiz-adv-x="268" d="M46 63Q46 33 25 12T-28 -10Q-57 -10 -78 11T-100 63Q-100 92 -79 113T-28 135Q3 135 24 114T46 63Z" />
<glyph unicode="/" glyph-name="slash" horiz-adv-x="526" d="M-162 0H-250L688 1397H776L-162 0Z" />
<glyph unicode="0" glyph-name="zero" horiz-adv-x="987" d="M237 -23Q173 -23 122 -1T35 63T-20 168T-40 312Q-40 422 -12 532T65 743T180 931T321 1082T478 1183T640 1220Q704 1220 755 1198T842 1134T897 1030T917 886Q917 776 889 666T812 454T697 266T556
115T399 14T237 -23ZM249 28Q308 28 371 71T495 185T610 348T706 540T772 739T796 924Q796 1049 754 1112T626 1176Q567 1176 504 1133T381 1018T266 853T170 659T105 459T81 274Q81 28 249 28Z" />
<glyph unicode="1" glyph-name="one" horiz-adv-x="635" d="M136 0H13L468 1087L34 618L0 652L512 1205H640L136 0Z" />
<glyph unicode="2" glyph-name="two" horiz-adv-x="885" d="M79 590Q64 645 64 702Q64 800 104 893T215 1059T381 1176T586 1221Q647 1221 697 1201T784 1146T840 1064T860 960Q860 857 822 774T717 619T563 485T376 361T172 237T-32 100Q-17 107 -5 111T20 117T50
119T91 120Q147 120 211 115T345 110Q374 110 397 113T441 122T478 140T513 167L549 148L414 -17Q356 -10 301 -1T189 17T75 30T-48 36Q-90 36 -134 23T-215 -19L-239 12Q-120 105 -2 185T224 339T424 483T585 627T692 781T731 956Q731 1001 718 1040T679 1107T619
1152T541 1169Q457 1169 388 1134T270 1045T194 923T167 790Q167 755 176 722T203 662L79 590Z" />
<glyph unicode="3" glyph-name="three" horiz-adv-x="858" d="M203 731Q225 741 248 748T297 760Q348 773 402 797T501 858T575 942T604 1052Q604 1115 570 1146T483 1178Q437 1178 398 1161T326 1113T268 1042T225 955L146 1057Q196 1102 243 1133T334 1183T421
1210T504 1218Q551 1218 593 1207T668 1173T719 1119T738 1045Q738 988 709 943T634 862T530 801T417 761Q475 753 519 729T594 668T639 586T654 491Q654 413 627 345T552 220T442 116T307 30T159 -38T8 -89T-133 -124T-255 -144L-259 -104Q-182 -96 -96 -75T76
-19T240 64T377 175T472 314T508 481Q508 523 500 564T471 637T415 690T326 711Q297 711 270 705T217 689L203 731Z" />
<glyph unicode="4" glyph-name="four" horiz-adv-x="933" d="M-156 255Q-67 327 20 408T188 575T344 748T484 919T603 1078T700 1218L813 1164Q787 1124 736 1058T615 912T463 745T292 573T114 415T-57 287Q-31 301 -8 310T37 325T81 333T130 336Q173 336 215
330T298 317T381 302T463 290L711 881H833L585 288Q637 290 683 297T758 317L739 272Q694 255 651 244T558 224L465 0H342L431 214H415Q365 214 316 221T220 236T127 251T35 258Q-10 258 -52 250T-137 222L-156 255Z" />
<glyph unicode="5" glyph-name="five" horiz-adv-x="886" d="M7 598L339 1178Q372 1191 404 1198T476 1205Q518 1205 557 1197T633 1180T706 1162T781 1154Q818 1154 855 1164T936 1201L950 1167Q903 1132 863 1108T788 1069T721 1048T659 1041Q614 1041 580 1050T517
1072T464 1093T415 1103Q388 1103 361 1095L95 627Q121 654 153 678T223 722T307 753T403 765Q475 765 529 743T619 684T674 596T693 491Q693 413 666 345T591 220T481 116T346 30T198 -38T47 -89T-94 -124T-216 -144L-220 -104Q-143 -96 -57 -75T115 -19T279 64T416
175T511 314T547 481Q547 519 539 557T511 627T456 677T365 697Q318 697 277 685T198 650T127 598T64 533L7 598Z" />
<glyph unicode="6" glyph-name="six" horiz-adv-x="962" d="M952 1175Q826 1150 707 1097T483 971T295 807T157 617Q191 651 232 683T322 740T424 780T536 795Q614 795 667 768T754 696T802 598T817 491Q817 431 797 370T741 251T654 144T545 57T417 -1T278 -23Q198
-23 136 3T30 74T-36 182T-59 317Q-59 430 -18 536T95 737T264 913T474 1056T709 1158T952 1211V1175ZM485 731Q421 731 363 708T255 649T168 573T105 496Q91 452 84 409T77 322Q77 267 86 214T120 119T185 52T289 26Q342 26 392 45T486 97T566 175T629 272T670
380T685 492Q685 540 675 583T641 660T579 712T485 731Z" />
<glyph unicode="7" glyph-name="seven" horiz-adv-x="730" d="M-78 0Q-25 155 41 279T181 506T334 691T491 849T646 991T790 1130Q748 1118 686 1109Q633 1101 554 1095T369 1089Q329 1089 295 1086T231 1071T173 1038T118 983L83 1002L226 1224Q269 1213 321
1205Q366 1198 424 1193T550 1187Q635 1187 725 1196T900 1231L925 1208Q844 1111 764 1032T606 875T456 715T315 530T186 299T73 0H-78Z" />
<glyph unicode="8" glyph-name="eight" horiz-adv-x="882" d="M553 1221Q600 1221 643 1206T720 1162T772 1091T792 993Q792 932 767 885T700 800T602 732T484 674Q519 635 554 596T617 515T664 426T682 322Q682 239 644 176T543 71T399 7T233 -15Q160 -15 100
3T-4 55T-71 138T-95 250Q-95 337 -57 399T42 509T180 591T337 660Q314 688 294 718T258 782T233 852T224 929Q224 995 252 1049T327 1141T433 1200T553 1221ZM563 321Q563 362 546 400T500 474T437 548T367 624Q295 594 227 560T107 483T22 384T-10 252Q-10 152
52 95T233 37Q298 37 357 57T463 115T536 205T563 321ZM347 960Q347 884 378 824T454 710Q509 735 557 763T641 826T697 904T718 1001Q718 1037 709 1068T680 1122T632 1159T564 1172Q518 1172 479 1158T410 1116T364 1049T347 960Z" />
<glyph unicode="9" glyph-name="nine" horiz-adv-x="962" d="M-110 23Q16 48 135 101T359 227T546 391T684 580Q650 546 609 514T519 458T418 418T306 403Q228 403 175 430T88 502T40 600T25 707Q25 767 45 828T101 947T188 1054T297 1141T425 1199T564 1221Q644
1221 706 1195T812 1124T878 1016T901 881Q901 768 860 662T747 461T578 285T368 142T133 40T-110 -13V23ZM357 467Q421 467 479 490T586 548T673 625T736 702Q765 789 765 876Q765 931 756 984T722 1079T657 1146T553 1172Q473 1172 402 1131T276 1023T189 873T157
706Q157 658 167 615T201 538T263 486T357 467Z" />
<glyph unicode=":" glyph-name="colon" horiz-adv-x="432" d="M272 558Q272 527 251 506T198 484Q169 484 148 505T127 558Q127 587 148 608T198 630Q229 630 250 609T272 558ZM55 63Q55 33 34 12T-18 -10Q-47 -10 -68 11T-90 63Q-90 92 -69 113T-18 135Q13 135
34 114T55 63Z" />
<glyph unicode=";" glyph-name="semicolon" horiz-adv-x="432" d="M-122 -102Q-107 -93 -93 -82T-65 -59T-43 -34T-30 -9Q-57 -3 -73 17T-90 61Q-90 92 -69 113T-19 135Q13 135 34 114T56 60Q56 33 42 6T4 -48T-47 -96T-104 -133L-122 -102ZM272 558Q272 527 251
506T198 484Q169 484 148 505T127 558Q127 587 148 608T198 630Q229 630 250 609T272 558Z" />
<glyph unicode="&lt;" glyph-name="less" horiz-adv-x="800" d="M60 584L629 898L586 791L184 569L463 289L431 212L60 584Z" />
<glyph unicode="=" glyph-name="equal" horiz-adv-x="800" d="M-9 444L22 520H607L576 444H-9ZM63 651L94 727H679L648 651H63Z" />
<glyph unicode="&gt;" glyph-name="greater" horiz-adv-x="800" d="M598 526L29 212L72 319L474 541L195 821L227 898L598 526Z" />
<glyph unicode="?" glyph-name="question" horiz-adv-x="840" d="M197 63Q197 33 176 12T123 -10Q94 -10 73 11T51 63Q51 92 72 113T123 135Q154 135 175 114T197 63ZM133 199Q163 278 203 344T290 470T386 584T481 690T570 795T643 905T692 1027T711 1165Q711
1202 702 1237T673 1299T626 1342T560 1359Q503 1359 449 1333T354 1264T287 1165T262 1051Q262 989 296 953T393 917Q418 917 437 924T471 940T494 958T507 972L520 946Q499 922 474 906T424 880T375 866T333 861Q298 861 266 871T209 903T169 955T154 1026Q154
1077 172 1124T223 1212T297 1288T389 1346T490 1383T592 1397Q646 1397 691 1379T770 1329T821 1254T840 1158Q840 1083 817 1017T754 891T662 775T553 665T439 556T330 446T238 328T174 199H133Z" />
<glyph unicode="@" glyph-name="at" horiz-adv-x="1426" d="M882 373Q918 373 961 396T1047 462T1130 561T1202 687T1252 832T1271 988Q1271 1083 1253 1147T1199 1251T1115 1308T1002 1325Q888 1325 784 1281T592 1162T431 989T308 783T230 565T202 354Q202 271
222 209T279 106T370 44T490 23Q540 23 604 37T734 84L753 49Q672 2 593 -16T439 -35Q373 -35 307 -15T189 52T105 171T72 351Q72 482 109 608T210 848T363 1056T553 1220T768 1328T993 1367Q1082 1367 1152 1342T1270 1268T1343 1152T1368 999Q1368 919 1345 837T1282
677T1188 533T1070 415T937 335T799 305Q779 305 759 318T739 359Q739 385 747 412T772 483Q781 507 798 547T832 626T861 696T874 730Q874 738 867 738Q860 738 851 725Q846 718 830 696T792 642T743 574T690 502T641 438T601 393Q559 351 527 327T463 303Q452
303 440 307T416 322T398 353T391 403Q391 448 411 503T467 616T552 728T658 827T778 900T906 937V921Q853 905 804 872T713 797T635 706T574 610T536 521T522 450Q522 434 527 424T540 413Q549 413 568 428T611 470T665 532T724 604T783 680T837 753Q876 805 901
839T944 893T978 922T1010 930Q1037 930 1047 919T1059 897Q1061 886 1057 874T1049 851L869 424Q866 416 864 408T861 394Q861 386 866 380T882 373Z" />
<glyph unicode="A" glyph-name="A" horiz-adv-x="1471" d="M1214 534H1315L1272 442H1176L990 0H857L1042 442H607Q603 434 600 428T592 414Q515 275 441 191T299 60T171 -2T61 -18Q18 -18 -18 -5T-82 33T-124 94T-140 175Q-140 260 -96 327T28 440T216 510T456
534H521Q629 718 718 856T882 1094T1019 1260T1137 1364T1241 1418T1339 1434Q1402 1434 1439 1397T1476 1277Q1476 1219 1456 1140T1392 956L1214 534ZM1328 1397Q1295 1397 1264 1389T1196 1351T1113 1266T1003 1113T855 876T659 534H1080L1257 956Q1315 1096
1349 1188T1384 1334Q1384 1366 1371 1381T1328 1397ZM69 32Q135 32 187 64T284 150T368 270T447 406L468 442H409Q266 442 170 420T16 360T-66 276T-91 179Q-91 151 -83 125T-55 78T-6 45T69 32Z" />
<glyph unicode="B" glyph-name="B" horiz-adv-x="1274" d="M606 -18Q549 -18 498 -3T399 36T310 89T228 149Q174 74 111 30T-30 -15Q-58 -15 -86 -6T-138 21T-175 69T-190 139Q-190 177 -176 211T-134 271T-69 312T16 328Q54 328 93 311T175 266Q201 326 229 402T295
573Q323 648 353 727T416 881T482 1024T551 1141Q605 1220 652 1271T746 1354T838 1404T937 1434Q953 1438 970 1439T1005 1441Q1054 1441 1102 1425T1189 1378T1250 1300T1274 1193Q1274 1141 1257 1101T1211 1029T1146 970T1070 918Q1032 893 1000 875T943 841T906
811T892 779Q892 759 912 718T957 619T1002 493T1023 351Q1023 268 991 201T902 84T770 9T606 -18ZM592 41Q657 41 711 66T805 133T867 229T889 342Q889 399 872 457T833 566T794 660T776 727Q776 748 788 765T822 801T878 841T953 893Q993 921 1027 953T1087 1023T1127
1101T1142 1191Q1142 1240 1128 1276T1086 1337T1022 1373T938 1385Q911 1385 887 1378T846 1361Q808 1337 771 1291T698 1182T628 1046T561 893T498 735T439 582Q399 479 357 381T263 202Q302 173 342 145T423 93T506 56T592 41ZM-41 35Q-10 35 15 45T63 77T107
131T149 209Q111 237 75 254T6 272Q-31 272 -58 260T-104 228T-132 184T-142 136Q-142 89 -115 62T-41 35Z" />
<glyph unicode="C" glyph-name="C" horiz-adv-x="1054" d="M791 764Q904 818 968 926T1032 1179Q1032 1226 1022 1266T990 1335T938 1380T867 1397Q803 1397 739 1370T613 1295T494 1182T386 1039T293 877T221 705T175 533T158 370Q158 284 176 223T226 122T302
64T399 45Q409 45 440 47T517 64T619 107T734 190L759 154Q695 92 632 57T515 6T422 -14T367 -18Q312 -18 251 0T137 61T51 178T16 363Q16 468 38 570T101 767T196 948T314 1109T448 1243T588 1345T726 1411T854 1434Q918 1434 971 1415T1062 1361T1122 1278T1144
1170Q1144 1104 1117 1037T1044 911T938 806T811 737L791 764Z" />
<glyph unicode="D" glyph-name="D" horiz-adv-x="1410" d="M575 -18Q523 -18 479 -6T397 27T326 74T264 128Q205 54 142 20T4 -15Q-23 -15 -50 -7T-100 19T-137 64T-151 130Q-151 169 -135 205T-89 268T-19 312T70 328Q112 328 149 308T224 257Q254 317 287 395T362
573L492 883H373Q323 883 274 893T187 926T126 983T102 1065Q102 1133 147 1199T274 1318T474 1402T737 1434Q846 1434 949 1395T1132 1281T1261 1098T1310 850Q1310 753 1284 651T1211 453T1097 271T949 121T773 20T575 -18ZM620 883L426 420Q366 277 305 185Q334
158 364 133T427 87T496 55T572 43Q658 43 735 79T879 179T1000 325T1091 502T1149 695T1170 887Q1170 993 1144 1086T1062 1248T923 1357T721 1397Q606 1397 512 1371T352 1302T249 1207T213 1100Q213 1072 222 1049T253 1009T313 983T407 973H529L676 1323H804L657
973H979L942 883H620ZM-4 35Q26 35 51 44T100 74T146 124T192 196Q157 228 124 250T53 272Q15 272 -13 259T-62 226T-92 181T-102 133Q-102 88 -76 62T-4 35Z" />
<glyph unicode="E" glyph-name="E" horiz-adv-x="927" d="M165 1020Q259 1029 342 1044Q354 1112 388 1181T474 1307T590 1399T728 1435Q780 1435 813 1401T847 1312Q847 1267 819 1226T739 1148T612 1080T444 1024Q448 1000 456 979T471 937T484 898T490 856Q490
794 460 752T385 677T288 612T190 541T115 444T85 303Q85 237 109 188T173 106T259 57T352 41Q382 41 417 44T497 63T594 110T710 196L736 164Q668 107 610 72T500 16T398 -11T297 -18Q225 -18 162 1T51 57T-23 149T-51 276Q-51 358 -20 418T59 522T160 601T262
665T340 726T372 794Q372 808 367 824T354 863T342 913T336 978Q336 983 336 988T337 1000Q302 993 265 988T190 977L165 1020ZM440 1066Q588 1105 669 1168T750 1317Q750 1355 732 1372T681 1390Q651 1390 610 1368T531 1304T467 1204T440 1072V1066Z" />
<glyph unicode="F" glyph-name="F" horiz-adv-x="1311" d="M439 0L640 469Q603 468 558 466T470 459T390 449T332 434L326 462Q367 486 414 503T509 532T600 551T680 561L871 1006Q899 1073 932 1128Q868 1142 805 1160T681 1197T564 1234T458 1268Q392 1287 339
1287Q276 1287 237 1269T177 1226T148 1175T140 1130Q140 1103 151 1079T182 1036T232 1007T300 996Q326 996 365 1001T449 1024L408 928Q389 921 363 916T305 911Q262 911 223 923T155 959T108 1019T90 1103Q90 1172 124 1222T212 1306T336 1356T476 1373Q526
1373 584 1354T706 1308T838 1249T976 1194Q1025 1262 1079 1308T1185 1382T1284 1422T1369 1434Q1406 1434 1433 1425T1477 1399T1502 1361T1511 1315Q1511 1265 1482 1225T1405 1157T1299 1113T1179 1098Q1144 1098 1109 1101T1037 1109Q1025 1086 1014 1063T991
1013L804 567H1119L1078 471H763L566 0H439ZM1364 1400Q1331 1400 1294 1385T1219 1339T1144 1266T1071 1168Q1133 1154 1192 1154Q1258 1154 1304 1172T1380 1217T1424 1275T1438 1331Q1438 1360 1420 1380T1364 1400Z" />
<glyph unicode="G" glyph-name="G" horiz-adv-x="1119" d="M806 813Q919 863 983 962T1047 1196Q1047 1239 1037 1276T1005 1340T953 1382T882 1397Q797 1397 712 1356T548 1246T401 1087T282 899T202 699T173 509Q173 435 191 382T241 295T317 244T414 228Q430
228 458 231T522 245T604 279T699 341L806 594H933L785 239Q761 180 729 126T652 23T546 -67T401 -139L388 -111Q444 -88 485 -48T557 37T606 124T638 195L664 257Q617 226 575 208T497 180T432 168T382 165Q327 165 266 180T152 234T66 337T31 498Q31 621 70 738T176
959T329 1150T509 1300T695 1399T869 1434Q933 1434 986 1416T1077 1366T1137 1289T1159 1189Q1159 1127 1132 1065T1059 948T953 851T826 786L806 813Z" />
<glyph unicode="H" glyph-name="H" horiz-adv-x="1343" d="M153 0L339 435Q282 438 244 452T182 488T148 536T138 589Q138 640 161 672T216 723T285 749T347 756Q412 756 468 738L576 989Q598 1042 621 1095T662 1197T691 1287T703 1356Q703 1374 696 1385T673
1397Q602 1386 510 1329Q471 1305 424 1268T321 1178T203 1053T71 887L50 1022Q147 1122 241 1198T420 1327T574 1407T691 1434Q747 1434 771 1401T795 1315Q795 1281 787 1242T767 1160T738 1074T703 989L572 685Q613 656 645 616T704 524H955L1321 1397H1447L1081
524H1184L1144 435H1044L862 0H735L736 2Q738 35 739 65T740 125Q740 219 730 295T699 435H464L277 0H153ZM197 614Q197 598 204 582T228 553T268 532T328 524H377L453 701Q401 717 339 717Q273 717 235 688T197 614ZM781 147Q781 137 781 128T780 109L917 435H740Q781
307 781 147ZM661 524Q619 604 557 649L503 524H661Z" />
<glyph unicode="I" glyph-name="I" horiz-adv-x="914" d="M847 635Q793 574 742 522T636 429Q595 351 544 272T429 128T292 23T133 -18Q53 -18 7 24T-40 133L58 195Q45 147 45 113Q45 66 66 45T116 24Q192 24 280 102T463 344Q416 333 368 333Q317 333 266 350T173
401T105 489T79 617Q79 719 117 819T216 1010T355 1178T509 1313T658 1402T779 1434Q828 1434 861 1383T894 1225Q894 1116 848 951T699 557Q692 543 686 528Q718 559 749 594T815 667L847 635ZM417 388Q455 388 494 399Q519 447 544 501T595 616Q640 724 679 827T747
1022T792 1188T809 1313Q809 1353 797 1375T759 1397Q730 1397 678 1364T565 1275T441 1142T326 980T242 802T209 622Q209 565 226 522T271 448T338 403T417 388Z" />
<glyph unicode="J" glyph-name="J" horiz-adv-x="1065" d="M640 -94Q617 -90 595 -87T553 -78Q492 -191 426 -294T290 -475T148 -599T1 -645Q-29 -645 -51 -634T-89 -604T-112 -562T-120 -512Q-120 -372 -30 -231T258 54Q197 102 158 158T95 276T62 399T53 521Q53
654 91 773T192 995T338 1180T510 1321T690 1410T858 1442Q895 1442 927 1433T984 1398T1021 1330T1035 1220Q1035 1116 993 953T849 557Q826 506 802 449T749 329Q777 341 805 353T863 379L879 337Q838 320 799 303T721 266Q688 192 652 117T576 -34Q595 -39 614
-43T654 -53L640 -94ZM190 527Q190 443 198 376T221 256T260 163T313 92Q378 135 452 178T612 264Q650 366 682 456T742 616Q785 726 823 828T890 1018T935 1177T952 1300Q952 1357 932 1380T864 1404Q799 1404 724 1370T574 1276T430 1133T307 953T222 747T190
527ZM372 -248Q400 -205 426 -157T477 -58Q428 -42 387 -23T309 18Q238 -37 181 -96T83 -216T20 -342T-3 -473Q-3 -514 15 -527T52 -540Q108 -540 190 -470T372 -248ZM358 55Q388 34 423 18T499 -12Q523 39 545 91T587 198Q526 164 469 129T358 55Z" />
<glyph unicode="K" glyph-name="K" horiz-adv-x="1203" d="M1483 1291Q1394 1272 1316 1243T1170 1180T1044 1108T939 1034Q829 949 748 853Q746 809 745 765T745 666Q746 562 749 461T761 267T782 98T818 -37T873 -126T949 -158Q973 -158 991 -153T1025 -137T1059
-113T1097 -82L1123 -114Q1099 -136 1075 -155T1025 -189T969 -212T900 -221Q852 -221 812 -203T739 -142T683 -27T645 153T625 411T625 756Q625 770 637 793T675 850Q739 929 833 1014T1036 1178T1255 1324T1465 1434L1483 1291ZM153 0L576 989Q598 1042 621 1095T662
1197T691 1287T703 1356Q703 1374 696 1385T673 1397Q602 1386 510 1329Q471 1305 424 1268T321 1178T203 1053T71 887L50 1022Q147 1122 241 1198T420 1327T574 1407T691 1434Q747 1434 771 1401T795 1315Q795 1281 787 1242T767 1160T738 1074T703 989L277 0H153Z"
/>
<glyph unicode="L" glyph-name="L" horiz-adv-x="1080" d="M860 244Q831 155 790 103T706 24T620 -10T545 -18Q495 -18 453 -5T372 29T301 76T238 130Q183 64 118 25T-25 -15Q-52 -15 -79 -7T-129 19T-166 64T-180 130Q-180 169 -164 205T-118 268T-48 312T41
328Q89 328 131 308T216 257Q246 315 273 382T324 522T371 669T414 815Q452 949 493 1047T576 1213T662 1325T747 1393T830 1425T910 1434Q960 1434 999 1420T1065 1382T1106 1325T1120 1255Q1120 1218 1106 1185T1068 1123T1012 1072T943 1036L913 1153Q939 1154
965 1161T1013 1184T1047 1221T1061 1274Q1061 1296 1053 1318T1026 1358T977 1386T904 1397Q855 1397 814 1370T737 1297T673 1190T619 1060T572 921T531 782Q510 712 485 636T431 483T366 335T290 200Q319 178 349 157T413 120T484 94T564 84Q608 84 647 90T718
114T776 167T816 257L860 244ZM-33 35Q28 35 80 76T177 187Q138 223 101 247T24 272Q-14 272 -42 259T-91 226T-121 181T-131 133Q-131 88 -105 62T-33 35Z" />
<glyph unicode="M" glyph-name="M" horiz-adv-x="1714" d="M1029 704Q1102 819 1168 898T1292 1027T1397 1099T1482 1122Q1542 1122 1566 1088T1590 996Q1590 963 1583 924T1565 844T1538 761T1507 680L1339 272Q1276 118 1237 20T1198 -127Q1198 -147 1206 -159T1234
-172Q1241 -172 1254 -168T1285 -151T1329 -117T1384 -60L1415 -87Q1377 -131 1347 -157T1291 -196T1246 -214T1209 -218Q1176 -218 1154 -208T1118 -180T1098 -140T1092 -93Q1092 -54 1102 -10T1129 82T1166 178T1207 272L1381 680Q1403 732 1425 785T1465 888T1494
977T1505 1045Q1505 1065 1498 1076T1474 1087Q1411 1077 1328 1008Q1293 979 1250 934T1156 823T1049 668T928 462L736 0H607L998 934Q1020 987 1042 1041T1083 1143T1113 1233T1125 1301Q1125 1343 1095 1343Q1031 1334 947 1264Q911 1234 868 1189T775 1076T667
919T545 710L241 0H116L576 1079Q598 1132 621 1186T662 1288T691 1378T703 1446Q703 1487 673 1487Q602 1479 510 1424Q471 1400 423 1364T320 1276T202 1152T70 987L50 1112Q147 1212 241 1288T420 1417T574 1497T691 1524Q748 1524 771 1492T795 1405Q795 1371
787 1331T766 1249T737 1163T703 1079L656 970Q729 1081 796 1159T921 1285T1027 1356T1113 1378Q1170 1378 1193 1346T1216 1260Q1216 1226 1208 1186T1188 1104T1159 1018T1125 934L1029 704Z" />
<glyph unicode="N" glyph-name="N" horiz-adv-x="1310" d="M1092 954Q1114 1007 1137 1060T1180 1163T1211 1249T1223 1314Q1223 1334 1214 1345T1188 1356Q1108 1356 1005 1283Q961 1252 908 1203T796 1084T671 921T535 704L235 0H110L576 1098Q598 1150 619
1203T657 1304T684 1392T695 1461Q695 1507 663 1507Q595 1500 505 1445Q467 1422 420 1386T318 1297T201 1173T70 1008L50 1130Q147 1230 240 1307T415 1436T566 1515T681 1542Q740 1542 764 1507T789 1415Q789 1381 782 1342T763 1262T736 1179T703 1098L624
914Q723 1058 807 1151T962 1299T1092 1375T1201 1397Q1255 1397 1282 1363T1309 1271Q1309 1238 1302 1199T1283 1119T1256 1036T1224 954L943 291Q878 138 840 39T802 -108Q802 -128 810 -140T838 -153Q845 -153 858 -149T889 -132T933 -98T988 -41L1019 -68Q981
-112 951 -138T895 -177T850 -195T813 -199Q780 -199 758 -189T722 -161T702 -121T696 -74Q696 -35 706 9T733 101T770 197T811 291L1092 954Z" />
<glyph unicode="O" glyph-name="O" horiz-adv-x="1162" d="M1039 1131Q1039 1153 1037 1182T1030 1241T1015 1299T989 1350T950 1387T895 1401Q850 1401 806 1374T720 1299T644 1189T582 1055T541 909T526 762Q526 655 556 602T659 549Q684 549 703 555T736 569T758
585T768 598L778 571Q758 541 735 524T689 497T646 484T612 481Q524 481 475 552T426 755Q426 827 447 905T504 1059T589 1203T690 1323T800 1405T909 1436Q945 1436 986 1418T1064 1357T1123 1240T1147 1057Q1147 917 1109 783T1007 528T859 305T683 130T496 15T316
-27Q247 -27 191 1T96 81T36 202T15 358Q15 437 29 526T78 713Q109 801 146 875T224 1011T305 1122T385 1209Q475 1298 569 1352L587 1329Q526 1277 464 1192Q437 1156 408 1109T347 1003T285 873T225 717Q187 608 168 510T149 328Q149 262 161 208T198 115T256
55T333 33Q398 33 475 81T631 211T783 403T914 634T1005 884T1039 1131Z" />
<glyph unicode="P" glyph-name="P" horiz-adv-x="1081" d="M-100 0L79 427H23Q0 427 -21 427T-59 428L-2 525Q30 523 60 523T119 523L308 971Q354 1080 417 1166T554 1313T711 1404T879 1436Q931 1436 985 1419T1082 1367T1153 1280T1181 1155Q1181 1071 1147
991T1053 838T909 701T729 582Q660 543 592 517T457 473T329 446T210 432L29 0H-100ZM248 525Q330 528 398 536T524 557T631 588T723 629Q802 671 863 735T965 874T1027 1025T1048 1170Q1048 1234 1032 1278T989 1349T928 1387T859 1399Q820 1399 768 1378T659
1308T544 1176T435 971L248 525Z" />
<glyph unicode="Q" glyph-name="Q" horiz-adv-x="1180" d="M469 0Q372 -50 272 -77T72 -104Q-33 -104 -33 -40Q-33 -16 -16 7T39 49T135 78T275 89H506Q585 148 655 223T786 385T894 566T977 756T1029 947T1047 1131Q1047 1189 1034 1238T996 1323T935 1378T854
1398Q769 1398 685 1360T525 1255T382 1099T268 907T193 695T165 478Q165 437 174 405T200 350T237 315T281 303Q294 303 314 306T359 320T413 355T472 420L491 399Q456 344 419 311T345 259T278 234T224 227Q174 227 137 248T76 305T40 385T28 475Q28 596 61 714T154
938T293 1136T465 1293T657 1397T857 1435Q888 1435 922 1429T991 1406T1057 1363T1112 1293T1150 1193T1165 1057Q1165 917 1123 780T1006 516T832 281T615 89H890L853 0H469ZM81 -67Q153 -67 223 -50T360 0H174Q142 0 114 -3T64 -13T30 -27T17 -43Q17 -56 34
-61T81 -67Z" />
<glyph unicode="R" glyph-name="R" horiz-adv-x="1081" d="M1141 1155Q1141 1052 1101 974T994 835T842 729T667 647Q614 625 581 613T530 593T505 581T498 571Q498 569 500 561Q551 406 619 245Q648 176 683 100T759 -56T846 -216T945 -371L809 -406Q698 -229
593 1T396 498Q392 509 389 520T386 543Q386 572 400 585T447 611T532 640T659 694Q732 730 795 774T906 876T981 1006T1008 1167Q1008 1233 992 1277T948 1349T887 1387T817 1399Q778 1399 727 1380T620 1313T506 1181T395 971L-11 0H-140L266 971Q312 1081 375
1167T512 1313T670 1404T837 1436Q890 1436 944 1419T1042 1367T1113 1280T1141 1155Z" />
<glyph unicode="S" glyph-name="S" horiz-adv-x="1069" d="M971 1194Q939 1253 907 1291T843 1352T778 1384T711 1393Q663 1393 617 1377T535 1327T477 1245T455 1132Q455 1078 483 1023T552 911T643 793T733 669T803 537T831 395Q831 302 786 226T665 95T491
12T288 -18Q208 -18 141 0T24 53T-52 140T-80 260Q-80 308 -68 355T-29 448T42 540T149 631L228 537Q181 513 138 484T62 417T10 336T-10 237Q-10 199 7 163T61 99T156 53T295 35Q369 35 441 56T571 118T663 221T699 366Q699 420 673 477T606 593T519 713T432 836T365
962T338 1091Q338 1187 376 1252T474 1358T606 1416T748 1434Q812 1434 861 1420T949 1382T1017 1330T1069 1270L971 1194Z" />
<glyph unicode="T" glyph-name="T" horiz-adv-x="1316" d="M1512 1065Q1383 1143 1268 1193T1050 1275L517 0H388L939 1305Q849 1326 776 1333T646 1341Q533 1341 434 1314T260 1241T143 1139T100 1020Q100 985 123 965T191 944H449L417 856H163Q117 856 84 888T50
982Q50 1046 77 1104T153 1212T270 1304T421 1373T598 1418T795 1434Q862 1434 937 1424T1105 1387T1313 1311T1576 1184L1512 1065Z" />
<glyph unicode="U" glyph-name="U" horiz-adv-x="1398" d="M576 989Q598 1042 621 1095T662 1197T691 1287T703 1356Q703 1374 696 1385T673 1397Q602 1386 510 1329Q471 1305 424 1268T321 1178T203 1053T71 887L50 1022Q147 1122 241 1198T420 1327T574 1407T691
1434Q748 1434 774 1401T801 1315Q801 1281 793 1242T773 1160T744 1074T709 989L467 424Q446 373 427 322T394 224T372 140T363 79Q363 35 406 35Q422 35 453 41T528 71T630 141T757 267T905 465T1072 752L1349 1397H1478L973 209Q955 165 947 134T939 82Q939
56 949 46T973 35Q1007 35 1037 54T1104 115T1186 224T1298 390L1325 373Q1261 274 1212 200T1118 78T1031 5T937 -20Q928 -20 909 -18T871 -4T837 31T822 97Q822 129 833 174T870 281L934 431Q845 298 765 212T616 74T487 3T379 -18Q314 -18 283 21T251 118Q251
149 258 186T277 264T304 345T335 424L576 989Z" />
<glyph unicode="V" glyph-name="V" horiz-adv-x="1259" d="M1187 651Q1177 663 1162 682T1131 730L1125 715Q1081 607 1028 511T918 333T804 187T692 76T591 7T509 -18Q438 -18 405 39T371 192Q371 277 396 382T462 604L597 989Q614 1038 631 1087T661 1183T681
1268T689 1337Q689 1365 681 1381T652 1397Q649 1397 629 1395T574 1379T489 1335T376 1249T238 1108T77 897L50 1022Q141 1122 230 1198T399 1327T546 1407T660 1434Q726 1434 758 1392T791 1283Q791 1251 786 1215T773 1140T753 1064T729 989L581 557Q561 497
544 435T515 315T495 204T488 111Q488 73 498 58T530 43Q561 43 604 69T696 141T798 252T902 394T1001 558T1087 737Q1092 748 1096 759T1105 783Q1090 822 1080 873T1069 994Q1069 1063 1079 1112T1105 1193T1143 1240T1185 1255Q1194 1255 1203 1251T1221 1236T1234
1210T1239 1169Q1239 1106 1218 1006T1149 777Q1162 752 1178 728T1217 677L1187 651ZM1112 952Q1112 888 1125 840Q1137 877 1148 915T1167 987T1180 1051T1185 1100Q1185 1114 1182 1127T1169 1140Q1157 1140 1147 1125T1129 1083T1117 1022T1112 952Z" />
<glyph unicode="W" glyph-name="W" horiz-adv-x="1617" d="M530 43Q554 43 586 66T656 131T734 233T812 365Q839 429 858 486T900 604L1137 1255H1256L1008 557Q987 497 969 440T939 328T920 226T913 137Q913 93 927 68T968 43Q999 43 1035 69T1110 141T1191 252T1273
394T1356 558T1435 737Q1440 748 1444 759T1453 783Q1438 822 1428 873T1417 994Q1417 1063 1427 1112T1453 1193T1491 1240T1533 1255Q1542 1255 1551 1251T1569 1236T1582 1210T1587 1169Q1587 1106 1566 1006T1497 777Q1510 752 1526 728T1565 677L1535 651Q1525
663 1510 682T1479 730L1473 715Q1407 553 1336 418T1197 187T1064 36T947 -18Q912 -18 888 -3T847 39T823 105T815 191Q815 217 816 244T822 300Q769 207 724 146T639 48T568 -3T509 -18Q438 -18 405 39T371 192Q371 277 396 382T462 604L597 989Q614 1038 631
1087T661 1183T681 1268T689 1337Q689 1365 681 1381T652 1397Q649 1397 629 1395T574 1379T489 1335T376 1249T238 1108T77 897L50 1022Q141 1122 230 1198T399 1327T546 1407T660 1434Q726 1434 758 1392T791 1283Q791 1251 786 1215T773 1140T753 1064T729 989L581
557Q561 497 544 435T515 315T495 204T488 111Q488 73 498 58T530 43ZM1460 952Q1460 888 1473 840Q1485 877 1496 915T1515 987T1528 1051T1533 1100Q1533 1114 1530 1127T1517 1140Q1505 1140 1495 1125T1477 1083T1465 1022T1460 952Z" />
<glyph unicode="X" glyph-name="X" horiz-adv-x="1259" d="M1001 163Q957 109 923 74T860 19T806 -10T754 -18Q718 -18 695 -4T657 37T636 101T629 185L622 576Q576 519 532 466T449 365T375 277T314 206Q306 197 290 178T251 136T198 86T131 38T52 -1T-38 -23L-20
119Q-1 113 21 114T66 123T112 141T156 165Q205 195 254 237Q290 271 333 316T422 415T519 529T621 653L614 1044Q612 1132 611 1198T604 1308T587 1374T557 1396Q547 1396 529 1393T483 1377T419 1335T336 1258T236 1133T117 950L97 1097Q183 1196 255 1260T386
1363T494 1417T581 1434Q628 1435 659 1417T708 1360T735 1259T744 1113L747 811Q802 880 856 946T959 1072T1053 1182T1135 1268Q1171 1299 1211 1324Q1246 1345 1289 1363T1380 1381Q1385 1381 1389 1381T1399 1380L1340 1259Q1292 1257 1246 1237T1164 1194Q1122
1167 1083 1133Q1066 1116 1033 1077T955 984T858 865T748 730L754 183Q755 120 767 93T814 66Q836 66 858 78T900 109T938 150T973 190L1001 163Z" />
<glyph unicode="Y" glyph-name="Y" horiz-adv-x="1344" d="M576 989Q598 1042 621 1095T662 1197T691 1287T703 1356Q703 1374 696 1385T673 1397Q602 1386 510 1329Q471 1305 424 1268T321 1178T203 1053T71 887L50 1022Q147 1122 241 1198T420 1327T574 1407T691
1434Q748 1434 774 1401T801 1315Q801 1281 793 1242T773 1160T744 1074T709 989L467 424Q446 373 427 322T394 224T372 140T363 79Q363 35 406 35Q422 35 452 41T527 71T629 139T754 264T900 459T1067 742L1286 1255H1415L1001 281Q980 232 956 176T904 60T844
-59T773 -178H907L866 -266H710Q666 -322 615 -370T506 -454T382 -510T242 -530Q198 -530 167 -520T115 -492T86 -450T77 -397Q77 -386 81 -365T100 -320T141 -270T209 -225T314 -191T463 -178H642Q693 -94 750 18T870 281L933 429Q844 297 765 211T616 73T487
2T379 -18Q314 -18 283 21T251 118Q251 149 258 186T277 264T304 345T335 424L576 989ZM241 -489Q281 -489 321 -480T403 -446T490 -378T584 -266H422Q374 -266 321 -271T223 -292T149 -334T120 -405Q120 -444 148 -466T241 -489Z" />
<glyph unicode="Z" glyph-name="Z" horiz-adv-x="1270" d="M985 388Q1014 364 1031 329T1049 245Q1049 176 1015 126T927 42T803 -8T663 -25Q587 -25 516 -16T379 6T253 37T141 69Q75 27 19 4T-84 -19Q-115 -19 -137 -12T-173 8T-194 36T-201 68Q-201 112 -160
142T-39 172Q7 172 58 166T166 148Q249 215 340 309T522 509T699 728T860 944T993 1138T1087 1289Q988 1289 908 1298T755 1318T610 1339T454 1348Q391 1348 352 1330T292 1287T263 1236T255 1191Q255 1164 266 1140T297 1097T347 1068T415 1057Q441 1057 480 1062T564
1085L523 989Q504 982 478 977T420 972Q377 972 338 984T270 1020T223 1080T205 1164Q205 1233 239 1283T327 1367T451 1417T591 1434Q637 1434 681 1431T771 1422T867 1410T976 1399T1104 1390T1259 1386Q1231 1313 1172 1213T1031 999T853 764T651 529T440 312T235
135Q348 113 478 92T761 71Q838 71 884 85T956 120T990 164T999 205Q999 243 969 269T900 305L985 388ZM-81 24Q-46 24 -5 40T82 87Q35 100 -3 108T-71 117Q-95 117 -110 113T-135 103T-149 88T-153 71Q-153 55 -138 40T-81 24Z" />
<glyph unicode="[" glyph-name="bracketleft" horiz-adv-x="657" d="M-133 -106L545 1524H797L777 1475H636L-3 -57H138L119 -106H-133Z" />
<glyph unicode="\" glyph-name="backslash" horiz-adv-x="526" d="M304 0L150 1434H222L376 0H304Z" />
<glyph unicode="]" glyph-name="bracketright" horiz-adv-x="657" d="M-108 -106L-89 -57H52L695 1475H553L573 1524H825L143 -106H-108Z" />
<glyph unicode="^" glyph-name="asciicircum" horiz-adv-x="750" d="M188 984L545 1397H654L687 984H576L567 1315L306 984H188Z" />
<glyph unicode="_" glyph-name="underscore" horiz-adv-x="512" d="M-219 -254L-180 -168H299L260 -254H-219Z" />
<glyph unicode="`" glyph-name="grave" horiz-adv-x="500" d="M307 844L217 1038H342L340 844H307Z" />
<glyph unicode="a" glyph-name="a" horiz-adv-x="701" d="M344 170Q340 161 337 151T334 134Q334 122 339 118T354 114Q368 114 388 128T430 169L613 395L638 375L417 102Q393 72 372 52T333 21T296 4T258 -1Q228 -1 208 16T188 61Q188 91 199 123T233 203Q241
220 252 247T277 305T303 367T326 423T342 466T349 486Q349 496 342 496Q333 496 323 481Q317 473 299 447T255 385T199 307T139 225T82 152T36 100Q-12 52 -49 25T-122 -3Q-134 -3 -148 2T-175 19T-196 54T-204 112Q-204 164 -181 227T-116 355T-19 484T102 597T240
682T386 723V705Q325 687 269 650T164 563T75 459T6 349T-38 247T-54 165Q-54 147 -49 135T-33 123Q-22 123 -1 141T49 189T110 259T177 342T244 429T307 512Q351 572 380 611T430 673T468 706T505 715Q526 715 534 704T542 677Q542 664 539 650T530 625Q526 616
513 583T480 503T440 403T399 303T364 219T344 170Z" />
<glyph unicode="b" glyph-name="b" horiz-adv-x="800" d="M734 371Q639 253 544 184T361 76T194 23T56 0V18Q123 42 181 82T288 170T374 271T438 375T477 472T491 551Q491 571 485 584T468 598Q457 598 436 579T386 528T324 454T256 367T188 277T125 193Q81 133
51 94T0 32T-39 -1T-75 -10Q-97 -10 -105 0T-113 27Q-113 40 -109 54T-100 80L136 642Q120 618 100 588T51 521T-14 437T-98 332L-123 352Q-53 437 -4 502T81 618T141 708T184 782T218 849T253 919L379 1219H500L86 240Q82 231 82 223Q82 213 89 213Q98 213 109
227Q114 235 132 261T177 325T234 406T296 490T354 565T400 618Q448 666 485 695T560 724Q572 724 586 719T613 700T634 663T643 605Q643 537 611 462T525 314T402 179T257 72Q291 82 343 104T455 163T581 256T709 391L734 371Z" />
<glyph unicode="c" glyph-name="c" horiz-adv-x="585" d="M513 364Q444 276 387 215T282 113T196 50T128 16T75 3T35 0Q28 0 12 1T-25 9T-68 26T-108 58T-138 108T-150 181Q-150 261 -121 332T-47 463T56 570T170 651T277 701T360 719Q378 719 396 714T428 696T452
665T461 619Q461 602 458 586Q454 566 433 546T385 509T329 482T281 471Q317 518 338 563T360 639Q360 657 352 668T325 680Q293 680 254 652T176 577T98 472T31 352T-16 233T-34 131Q-34 105 -28 88T-11 60T16 45T49 40Q85 40 127 56T223 111T342 216T488 384L513
364Z" />
<glyph unicode="d" glyph-name="d" horiz-adv-x="701" d="M344 170Q340 161 337 151T334 134Q334 122 339 118T354 114Q368 114 388 128T430 169L613 395L638 375L417 102Q393 72 372 52T333 21T296 4T258 -1Q228 -1 208 16T188 61Q188 91 200 123T233 203Q243
227 259 264T291 339T322 412T345 465Q349 474 349 482Q349 492 342 492Q335 492 323 477Q292 437 256 386T182 282T103 177T24 86T-53 22T-122 -3Q-134 -3 -148 2T-175 20T-196 56T-204 114Q-204 171 -180 236T-113 367T-13 493T110 603T246 684T386 723V705Q324
684 267 646T161 558T73 454T5 346T-39 246T-54 165Q-54 147 -49 135T-33 123Q-22 123 -1 141T49 189T110 259T177 342T244 429T307 512Q352 572 386 626T444 723Q472 772 493 815L663 1219H784L344 170V170Z" />
<glyph unicode="e" glyph-name="e" horiz-adv-x="573" d="M37 40Q73 40 115 56T211 111T330 216T476 384L501 364Q432 276 374 215T268 113T182 50T113 16T60 3T21 0Q-3 0 -33 7T-89 32T-132 83T-150 166Q-150 241 -126 311T-61 442T29 555T132 642T234 699T320
719Q373 719 396 688T420 607Q420 562 400 520T347 441T271 372T180 318T84 282T-7 269Q-20 231 -27 197T-35 134Q-35 80 -14 60T37 40ZM287 678Q260 678 222 644T144 554T66 432T3 297Q74 309 132 345T232 430T296 533T319 632Q319 659 310 668T287 678Z" />
<glyph unicode="f" glyph-name="f" horiz-adv-x="500" d="M429 365Q367 287 311 226T198 112T81 9T-49 -98L-204 -473L-346 -518L136 643Q120 618 99 588T50 519T-15 435T-98 332L-123 352Q-60 429 -13 491T70 604T131 696T177 774T213 842T245 906Q277 982 310
1043T380 1147T454 1213T534 1236Q573 1236 596 1208T620 1139Q620 1064 584 986T490 830T360 679T214 538L-19 -25Q22 5 69 43T168 131T280 243T404 385L429 365ZM248 619Q320 689 381 757T486 891T554 1019T579 1139Q579 1157 573 1175T547 1193Q512 1193 477
1139T402 991L248 619Z" />
<glyph unicode="g" glyph-name="g" horiz-adv-x="699" d="M630 365Q582 305 538 255T451 162T363 79T271 0L175 -231Q143 -308 110 -370T38 -475T-44 -541T-141 -564Q-176 -564 -200 -553T-239 -523T-260 -483T-267 -441Q-267 -375 -230 -320T-134 -213T-1 -112T147
-4L343 468Q349 483 349 486Q349 496 342 496Q333 496 323 481Q317 473 299 447T255 385T199 307T139 225T82 152T36 100Q-12 52 -49 25T-122 -3Q-134 -3 -148 2T-175 19T-196 54T-204 112Q-204 164 -181 227T-116 355T-19 484T102 597T240 682T386 723V705Q325
687 269 650T164 563T75 459T6 349T-38 247T-54 165Q-54 147 -49 135T-33 123Q-22 123 -1 141T49 189T110 259T177 342T244 429T307 512Q351 572 380 611T431 673T470 706T507 715Q528 715 536 704T544 677Q544 664 541 650T532 625L300 69Q366 126 441 202T605
385L630 365ZM122 -65Q42 -123 -23 -169T-133 -258T-203 -345T-228 -442Q-228 -456 -224 -471T-212 -498T-189 -517T-155 -525Q-105 -525 -64 -469T17 -319L122 -65Z" />
<glyph unicode="h" glyph-name="h" horiz-adv-x="763" d="M91 248Q89 243 88 239Q85 231 85 226Q85 216 93 216Q104 216 117 236L326 547Q358 595 383 628T431 683T474 713T517 723Q555 723 575 708T595 664Q595 647 590 629T580 596L406 170Q402 160 399 151T396
134Q396 122 401 118T416 114Q430 114 450 128T492 169L675 395L700 375L479 102Q455 72 434 52T395 21T358 4T320 -1Q290 -1 270 16T250 61Q250 86 262 120T295 203L457 586Q460 593 460 601Q460 621 441 621Q433 621 424 616T404 596L74 106Q35 48 6 24T-52 -1Q-98
-1 -98 43Q-98 66 -87 100T-55 182L141 651Q125 626 104 596T54 526T-12 439T-98 332L-123 352Q-55 436 -5 502T82 621T144 718T190 798T227 870T262 940L379 1219H500L91 248V248Z" />
<glyph unicode="i" glyph-name="i" horiz-adv-x="441" d="M370 1115Q400 1115 417 1094T434 1043Q434 1027 429 1011T413 981T388 960T354 951Q325 951 307 973T289 1024Q289 1045 296 1061T315 1090T341 1108T370 1115ZM133 573Q136 580 136 584Q136 590 133
592T124 595Q114 595 106 584L-92 339L-117 359L108 637Q134 669 162 693T222 718Q251 718 264 703T277 668Q277 649 270 625T252 575L84 170Q80 160 77 151T74 134Q74 122 79 118T94 114Q108 114 128 128T170 169L353 395L378 375L157 102Q133 72 112 52T73 21T36
4T-2 -1Q-32 -1 -52 16T-72 61Q-72 86 -60 120T-27 203L133 573Z" />
<glyph unicode="j" glyph-name="j" horiz-adv-x="437" d="M368 365Q319 303 274 252T183 157T93 72T-2 -10L-205 -477L-356 -518Q-225 -226 -119 9Q-74 109 -31 206T48 381T106 512T133 573Q136 580 136 584Q136 590 133 592T124 595Q114 595 106 584L-92 339L-117
359L108 637Q134 669 162 693T222 718Q251 718 264 703T277 668Q277 649 270 625T251 575L28 61Q95 118 173 196T343 385L368 365ZM370 1115Q400 1115 417 1094T434 1043Q434 1027 429 1011T413 981T388 960T354 951Q325 951 307 973T289 1024Q289 1045 296 1061T315
1090T341 1108T370 1115Z" />
<glyph unicode="k" glyph-name="k" horiz-adv-x="775" d="M377 90Q395 90 413 97T447 116T478 141T504 169L687 395L712 375L491 102Q442 42 402 21T318 0Q296 0 275 10T237 38T210 81T199 136Q199 176 215 213T258 285T317 350T383 409Q416 437 437 463T470 514T487
562T492 606Q492 622 484 633T463 644Q446 644 430 628T403 596L77 109Q38 51 9 26T-55 0Q-78 0 -87 11T-97 43Q-96 66 -85 100T-54 182L141 651Q125 626 104 596T54 526T-12 439T-98 332L-123 352Q-56 434 -7 499T79 618T142 713T188 793T224 864T259 933L378
1219H499Q424 1041 367 905T268 667T196 495T147 378Q101 269 92 248Q88 237 88 229Q88 216 96 216Q107 216 120 236L357 600Q392 654 431 688T512 723Q528 723 544 718T573 701T595 667T604 614Q604 565 581 529T524 463T449 405T374 347T316 277T293 187Q293
139 316 115T377 90Z" />
<glyph unicode="l" glyph-name="l" horiz-adv-x="415" d="M58 170Q54 160 51 151T48 134Q48 122 53 118T68 114Q82 114 102 128T144 169L327 395L352 375L131 102Q107 72 88 52T51 21T16 4T-21 -1Q-51 -1 -71 16T-91 61Q-91 86 -79 120T-46 203L143 654Q127 629
106 598T56 528T-11 441T-98 332L-123 352Q-54 437 -3 504T85 626T148 723T194 804T230 876T266 948L380 1219H500L58 170Z" />
<glyph unicode="m" glyph-name="m" horiz-adv-x="1095" d="M422 106Q384 47 354 23T296 -1Q250 -1 250 43Q250 66 261 100T293 182L470 597Q473 604 473 608Q473 617 467 620T456 624Q445 624 436 616T419 596L96 106Q57 48 28 24T-30 -1Q-76 -1 -76 43Q-76 66
-65 100T-33 182L133 573Q136 580 136 584Q136 590 133 592T124 595Q114 595 106 584L-92 339L-117 359L108 637Q134 669 162 693T222 718Q251 718 264 703T277 668Q277 649 270 625T252 575L113 248Q107 234 107 226Q107 216 115 216Q126 216 139 236L358 572Q385
614 406 642T449 687T492 711T543 718Q572 718 587 703T603 668Q603 649 596 625T578 575L439 248Q433 234 433 226Q433 216 441 216Q452 216 465 236L658 547Q689 595 714 628T762 683T806 713T849 723Q887 723 907 708T927 664Q927 647 922 629T912 596L738 170Q734
160 731 151T728 134Q728 122 733 118T748 114Q762 114 782 128T824 169L1007 395L1032 375L811 102Q787 72 766 52T727 21T690 4T652 -1Q622 -1 602 16T582 61Q582 86 594 120T627 203L789 586Q792 593 792 601Q792 610 786 615T772 621Q764 621 754 615T736 596L422
106Z" />
<glyph unicode="n" glyph-name="n" horiz-adv-x="787" d="M133 573Q136 580 136 584Q136 590 133 592T124 595Q114 595 106 584L-92 339L-117 359L108 637Q134 669 162 693T222 718Q251 718 264 703T277 668Q277 649 270 625T252 575L113 248Q107 234 107 226Q107
216 115 216Q126 216 139 236L348 547Q380 595 405 628T453 683T496 713T539 723Q577 723 597 708T617 664Q617 647 612 629T602 596L428 170Q424 160 421 151T418 134Q418 122 423 118T438 114Q452 114 472 128T514 169L697 395L722 375L501 102Q477 72 456 52T417
21T380 4T342 -1Q312 -1 292 16T272 61Q272 86 284 120T317 203L479 586Q482 593 482 601Q482 621 463 621Q455 621 446 616T426 596L96 106Q57 48 28 24T-30 -1Q-76 -1 -76 43Q-76 66 -65 100T-33 182L133 573V573Z" />
<glyph unicode="o" glyph-name="o" horiz-adv-x="668" d="M594 362Q562 321 534 293T479 247T427 220T375 208Q345 164 309 126T232 59T146 14T55 -3Q18 -3 -17 9T-79 47T-123 111T-140 202Q-140 283 -111 362T-30 511T95 635T256 723L265 709Q188 642 133 566T41
414T-12 265T-30 134Q-30 115 -26 98T-14 67T7 45T36 37Q58 37 84 52T139 92T195 153T251 228Q203 254 182 302T161 408Q161 461 180 511T229 601T295 663T365 687Q383 687 404 679T443 652T473 601T485 521Q485 457 462 386T399 245Q417 249 435 258T474 283T518
323T570 383L594 362ZM198 411Q198 357 215 317T270 257Q297 300 320 346T360 436T387 521T397 594Q397 610 392 620T380 635T364 643T349 645Q330 645 304 626T255 574T215 499T198 411Z" />
<glyph unicode="p" glyph-name="p" horiz-adv-x="798" d="M732 371Q637 253 542 184T359 76T192 23T54 0V18Q121 42 179 82T286 170T372 271T436 375T475 472T489 551Q489 571 483 584T466 598Q451 598 425 575T363 513T288 421T206 311T124 193T48 77T-14 -27T-57
-108Q-76 -149 -96 -196T-137 -292T-177 -387T-213 -474L-354 -518Q-339 -484 -322 -445T-288 -364T-253 -282T-219 -202Q-182 -113 -144 -24L135 642Q120 618 100 589T51 523T-14 437T-100 329L-125 349Q-63 425 -18 484T61 588T118 668T159 732T191 787T219 841L239
889H361L102 272Q98 263 98 255Q98 245 105 245Q112 245 123 259Q128 266 145 290T187 349T241 422T298 498T353 567T398 618Q446 666 483 695T558 724Q570 724 584 719T611 700T632 663T641 605Q641 537 609 462T523 314T400 179T255 72Q289 82 341 104T453 163T579
256T707 391L732 371Z" />
<glyph unicode="q" glyph-name="q" horiz-adv-x="700" d="M304 72Q369 129 444 204T605 385L630 365Q586 310 546 264T466 178T386 100T303 27Q302 -8 297 -65T280 -189T251 -321T208 -442T148 -530T68 -564Q18 -564 -1 -536T-21 -468Q-21 -450 -18 -431T-9 -393T4
-355T17 -321L343 468Q349 483 349 486Q349 496 342 496Q333 496 323 481Q317 473 299 447T255 385T199 307T139 225T82 152T36 100Q-12 52 -49 25T-122 -3Q-134 -3 -148 2T-175 19T-196 54T-204 112Q-204 164 -181 227T-116 355T-19 484T102 597T240 682T386 723V705Q325
687 269 650T164 563T75 459T6 349T-38 247T-54 165Q-54 147 -49 135T-33 123Q-22 123 -1 141T49 189T110 259T177 342T244 429T307 512Q351 572 380 611T431 673T470 706T507 715Q528 715 536 704T544 677Q544 664 541 650T532 625L304 72ZM96 -517Q117 -517 137
-493T175 -430T208 -338T236 -230T256 -118T268 -14L96 -431Q94 -435 91 -442T85 -459T80 -478T78 -495Q78 -506 83 -511T96 -517Z" />
<glyph unicode="r" glyph-name="r" horiz-adv-x="501" d="M142 170Q138 160 135 151T132 134Q132 122 137 118T152 114Q166 114 186 128T228 169L411 395L436 375L215 102Q191 72 171 52T132 21T96 4T59 -1Q29 -1 11 16T-8 61Q-8 86 4 120T37 203L177 537Q182
549 187 562T196 587T202 608T205 623Q205 628 202 630T193 633Q180 633 165 634T135 639Q118 615 96 585T46 518T-18 434T-98 332L-123 352Q-47 449 8 520T103 649Q80 659 65 676T49 723Q49 734 55 754T74 793T106 826T150 840Q170 840 187 829T205 793Q205 776
193 749T149 684Q164 677 178 676T207 675Q226 675 241 676T271 678Q299 678 310 664T321 632Q321 613 313 586T296 539L142 170V170Z" />
<glyph unicode="s" glyph-name="s" horiz-adv-x="512" d="M-186 44Q-186 59 -174 80T-144 119T-106 151T-70 165Q-50 165 -47 153T-44 125T-46 98T-31 85Q11 85 47 121T109 213T151 338T166 474Q166 531 155 567T129 630Q95 581 41 510T-98 332L-123 352Q-43 454
14 528T112 662Q107 673 104 682T100 702Q100 725 113 749T146 794T190 826T238 839Q250 839 264 833T278 805Q278 798 271 786T256 761T240 736T233 717Q233 709 239 691T253 645T267 581T274 499Q274 443 260 388T222 281T165 183T94 101Q169 142 252 212T421
391L446 371Q386 294 322 234T194 129T68 55T-52 10Q-69 5 -85 3T-119 0Q-130 0 -142 1T-164 8T-180 21T-186 44Z" />
<glyph unicode="t" glyph-name="t" horiz-adv-x="445" d="M384 943H667L648 902H367L58 170Q54 160 50 148T46 124Q46 112 53 105T73 97Q96 97 124 119T174 169L357 395L382 375L171 114Q122 54 78 27T-5 -1Q-20 -1 -35 3T-62 16T-81 38T-89 70Q-89 95 -78 124T-46
203L143 654Q127 629 106 598T56 528T-11 441T-98 332L-123 352Q-30 466 30 548T129 693T194 805T243 902H0L19 943H264L343 1130H463L384 943Z" />
<glyph unicode="u" glyph-name="u" horiz-adv-x="799" d="M102 219Q91 195 84 170T77 127Q77 104 89 99T115 93Q130 93 150 114T193 171T243 252T297 346T351 443T404 533Q439 589 462 625T506 684T545 714T593 723Q614 723 627 712T640 685Q640 672 637 658T628
633Q624 624 611 590T578 509T537 407T496 305T461 219T440 170Q436 161 433 151T430 134Q430 122 435 118T450 114Q464 114 484 128T526 169L709 395L734 375L513 102Q489 72 468 52T429 21T392 4T354 -1Q324 -1 304 16T284 61Q284 91 295 123T329 203Q337 220
348 247T373 305T399 367T422 423T438 466T445 486Q445 496 438 496Q429 496 419 481Q356 385 309 298T219 144T133 38T34 -1Q1 -1 -22 23T-46 93Q-46 111 -43 130T-34 165T-25 195T-17 214L133 573Q136 580 136 584Q136 590 133 592T124 595Q114 595 106 584L-92
339L-117 359L108 637Q134 669 162 693T222 718Q251 718 264 703T277 668Q277 649 270 625T252 575L102 219Z" />
<glyph unicode="v" glyph-name="v" horiz-adv-x="778" d="M133 573Q136 580 136 584Q136 590 133 592T124 595Q114 595 106 584L-92 339L-117 359L108 637Q134 669 162 693T222 718Q251 718 264 703T277 668Q277 649 270 625T252 575L98 193Q84 158 75 130T66
79Q66 64 74 55T96 45Q113 45 139 62T196 110T261 180T331 265Q314 290 306 324T298 400Q298 460 319 517T373 621T448 695T531 723Q570 723 592 698T615 622Q615 581 600 534T560 438T499 339T423 243Q435 240 450 240Q477 240 502 244T554 264T611 307T680 383L704
362Q668 315 636 285T574 238T513 214T451 207Q420 207 398 214Q355 167 309 127T217 58T131 11T55 -6Q14 -6 -10 20T-34 101Q-34 136 -22 184T14 287L133 573ZM337 402Q337 337 356 298Q390 346 421 395T476 490T513 575T527 643Q527 656 523 667T503 679Q485
679 457 658T402 599T356 511T337 402Z" />
<glyph unicode="w" glyph-name="w" horiz-adv-x="1100" d="M601 642L420 193Q406 158 397 130T388 79Q388 64 396 55T418 45Q434 45 458 61T513 105T576 170T642 251Q625 278 618 313T610 390Q610 450 632 509T690 616T769 693T853 723Q892 723 914 698T937 622Q937
579 921 530T877 428T810 324T729 224Q742 220 762 220Q789 220 815 227T869 252T930 301T1001 381L1025 360Q952 265 890 226T763 187Q728 187 704 197Q662 153 618 116T531 52T449 10T377 -6Q336 -6 312 20T288 101Q288 114 290 129T295 161Q226 84 162 39T47
-6Q6 -6 -18 20T-42 101Q-42 136 -30 184T6 287L125 573Q128 580 128 584Q128 590 125 592T116 595Q106 595 98 584L-100 339L-125 359L100 637Q126 669 154 693T214 718Q243 718 256 703T269 668Q269 649 262 625T244 575L90 193Q76 158 67 130T58 79Q58 64 66
55T88 45Q105 45 132 63T191 112T260 185T331 274Q332 277 333 280T336 287L483 642H601ZM649 392Q649 327 667 284Q703 333 736 384T794 483T834 572T849 643Q849 656 845 667T825 679Q807 679 777 656T719 594T670 502T649 392Z" />
<glyph unicode="x" glyph-name="x" horiz-adv-x="681" d="M164 254Q114 190 74 147T2 75T-54 32T-97 9T-132 1T-161 0V96Q-159 95 -155 94Q-151 93 -136 93Q-120 93 -93 99T-28 127T57 189T160 299L134 575Q132 590 121 590Q114 590 109 586T99 575L-92 339L-117
359L108 637Q121 653 132 667T155 693T180 711T208 718Q237 718 246 703T257 668L277 454Q339 536 381 583T453 655T507 688T558 700L568 582Q564 583 560 585Q555 587 549 588T535 589Q519 589 496 582T442 556T370 500T281 405L306 144Q308 132 313 123T332 114Q344
114 365 128T408 169L591 395L616 375L395 102Q371 72 353 52T318 21T286 4T251 -1Q221 -1 203 15T182 61L164 254Z" />
<glyph unicode="y" glyph-name="y" horiz-adv-x="790" d="M721 365Q671 303 626 252T536 157T445 72T350 -10L148 -477L-3 -518Q116 -253 212 -39Q253 52 292 140T364 300T418 420T443 477Q445 482 445 489T438 496Q429 496 419 481Q356 385 309 298T219 144T133
38T34 -1Q1 -1 -22 23T-46 93Q-46 111 -43 130T-34 165T-25 195T-17 214L133 573Q136 580 136 584Q136 590 133 592T124 595Q114 595 106 584L-92 339L-117 359L108 637Q134 669 162 693T222 718Q251 718 264 703T277 668Q277 649 270 625T252 575L102 219Q91 195
84 170T77 127Q77 104 89 99T115 93Q130 93 150 114T193 171T243 252T297 346T351 443T404 533Q439 589 462 625T506 684T545 714T593 723Q614 723 627 712T640 685Q640 672 637 658T628 633L380 60Q448 117 526 195T696 385L721 365Z" />
<glyph unicode="z" glyph-name="z" horiz-adv-x="571" d="M501 365Q449 300 404 249T314 155T225 71T129 -11Q130 -16 130 -20T130 -29Q130 -84 115 -142T75 -256T18 -361T-49 -448T-118 -507T-180 -529Q-201 -529 -220 -516T-239 -468Q-239 -426 -213 -376T-147
-274T-61 -175T24 -90Q26 -73 27 -57T29 -25Q29 -1 25 21T13 62Q-13 49 -37 42T-85 35Q-105 35 -119 44T-133 72Q-133 84 -126 96T-105 119T-70 136T-18 143Q-1 143 13 140T41 131Q83 174 121 232T189 349T236 461T254 546Q254 584 238 600T199 617Q164 617 122
585T35 496Q12 468 -11 440Q-31 416 -52 389T-92 339L-117 359Q-104 375 -83 401T-42 452Q-18 481 7 512Q93 621 172 674T310 728Q326 728 343 722T375 702T399 665T409 605Q409 551 381 483T306 345T200 212T80 104Q95 88 105 69T122 28Q195 87 283 173T476 385L501
365ZM-182 -497Q-163 -497 -136 -467T-80 -388T-27 -277T13 -149Q-17 -177 -55 -218T-126 -305T-182 -393T-205 -466Q-205 -477 -203 -483T-197 -493T-189 -496T-182 -497ZM-87 58Q-67 58 -47 66T-7 88Q-26 105 -54 105Q-84 105 -96 95T-108 75Q-108 69 -103 64T-87
58Z" />
<glyph unicode="{" glyph-name="braceleft" horiz-adv-x="647" d="M155 726Q180 733 208 751T263 793T311 845T344 902Q355 928 363 969T381 1056T400 1146T425 1225Q440 1262 464 1294T517 1355T578 1406T641 1449Q714 1493 796 1525L807 1495Q744 1464 687 1422Q663
1404 638 1382T589 1334T546 1279T513 1217Q496 1176 489 1132T476 1044T465 958T444 882Q435 861 419 835T379 784T328 738T266 705Q288 688 296 664T305 612Q305 569 288 529T244 448T188 368T131 286T88 199T70 103Q70 58 81 24T106 -35Q122 -63 142 -85L122
-106Q122 -106 101 -89T55 -42T10 29T-11 120Q-11 169 4 214T43 302T93 384T143 460T181 532T197 602Q197 613 195 627T187 657T172 685T150 705L155 726Z" />
<glyph unicode="|" glyph-name="bar" horiz-adv-x="500" d="M210 -328V1433H290V-328H210Z" />
<glyph unicode="}" glyph-name="braceright" horiz-adv-x="647" d="M501 693Q475 686 447 668T393 626T345 574T312 517Q301 491 292 450T274 363T255 273T231 194Q216 157 192 125T139 64T78 13T15 -30Q-58 -74 -140 -106L-151 -76Q-88 -45 -31 -3Q-7 15 18 37T67
84T109 139T143 202Q159 242 166 286T179 375T191 461T212 537Q221 558 237 584T277 635T328 681T390 714Q368 731 360 755T351 807Q351 850 368 890T412 971T468 1051T525 1133T568 1220T586 1316Q586 1361 575 1395T550 1454Q534 1482 514 1504L534 1525Q534
1525 555 1508T601 1461T646 1390T667 1299Q667 1250 652 1205T613 1117T563 1035T513 959T475 887T459 817Q459 806 461 792T469 762T484 734T506 714L501 693Z" />
<glyph unicode="~" glyph-name="asciitilde" horiz-adv-x="800" d="M659 690Q632 636 607 598T556 534T503 497T443 485Q401 485 373 505T322 550T281 595T238 616Q208 616 180 588T116 485H36Q88 594 136 642T240 690Q280 690 307 670T355 625T398 580T447 559Q461
559 476 564T507 584T541 623T579 690H659V690Z" />
<glyph unicode="&#xa0;" glyph-name="nbspace" horiz-adv-x="490" />
<glyph unicode="&#xa1;" glyph-name="exclamdown" horiz-adv-x="445" d="M225 680H252L-229 -518H-370L225 680ZM215 813Q215 842 236 863T286 885Q315 885 335 864T356 813Q356 784 336 764T286 744Q257 744 236 764T215 813Z" />
<glyph unicode="&#xa2;" glyph-name="cent" horiz-adv-x="550" d="M407 878Q411 879 418 879Q434 879 450 874T479 858T500 830T508 789Q508 782 508 775T506 760Q502 742 483 724T440 691T390 667T347 657Q379 699 399 737T419 803Q419 818 412 828T391 840L153
274Q194 278 245 305T367 400L392 376Q343 328 304 300T233 258T178 239T136 234L38 0L0 15L94 237Q75 240 52 248T9 275T-26 322T-40 396Q-40 458 -21 514T31 619T106 709T192 782T280 835T360 868L455 1093L491 1077L407 878ZM64 356Q64 319 76 301T111 277L342
826Q313 810 281 779T218 708T160 620T111 526T77 435T64 356Z" />
<glyph unicode="&#xa3;" glyph-name="sterling" horiz-adv-x="942" d="M397 549Q380 500 361 450T319 351T273 256T220 170Q244 153 269 137T321 109T379 89T445 81Q482 81 513 85T571 104T619 144T658 216L698 205Q674 130 639 86T567 20T493 -9T429 -15Q387
-15 351 -5T284 23T225 62T172 107Q124 52 69 20T-49 -13Q-72 -13 -95 -6T-137 16T-168 54T-180 109Q-180 142 -166 172T-127 225T-68 262T6 276Q46 276 81 260T151 220Q187 290 217 375T273 549H91L114 601H289Q296 626 303 650T317 699Q349 812 384 894T456 1034T530
1128T604 1184T676 1211T744 1219Q786 1219 818 1207T873 1175T908 1127T920 1068Q920 1037 909 1009T877 957T829 915T772 884L737 983Q759 984 781 990T821 1008T850 1039T861 1084Q861 1102 854 1119T833 1148T795 1169T739 1177Q679 1177 634 1130T552 1008T488
845T436 671Q431 654 425 637T414 601H701L678 549H397ZM-56 33Q-6 33 36 67T116 158Q84 186 54 205T-8 224Q-40 224 -63 214T-102 188T-126 151T-134 112Q-134 77 -112 55T-56 33Z" />
<glyph unicode="&#xa4;" glyph-name="currency" horiz-adv-x="800" d="M555 790Q582 751 593 713T604 635Q604 594 594 557T555 480Q580 455 608 427T663 372Q647 356 636 345T611 319L502 428Q466 405 424 392T347 378Q307 378 269 390T194 429Q169 403 140 375T85
320Q71 335 59 346T33 372L143 482Q116 519 104 557T91 635Q91 676 102 713T143 790Q117 815 88 844T33 899L84 950L194 841Q231 867 272 879T351 892Q390 892 428 881T503 843L547 887Q563 903 579 920T610 951Q626 935 637 925T663 899L555 790ZM215 501Q242
474 276 462T347 450Q382 450 416 462T476 497T519 555T536 635Q536 673 521 707T480 766T420 807T347 822Q307 822 273 807T215 765T176 705T162 635Q162 597 174 564T215 501Z" />
<glyph unicode="&#xa5;" glyph-name="yen" horiz-adv-x="1112" d="M597 -54Q556 -129 506 -199T393 -324T257 -412T94 -445Q34 -445 -6 -422T-70 -364L2 -293Q8 -308 15 -327T35 -364T67 -393T117 -405Q147 -405 184 -392T265 -341T360 -234T471 -54H167L190 -2H498Q509
18 519 40T541 86H224L247 138H565Q576 161 586 185T608 236L748 567Q679 471 618 408T502 307T402 254T317 239Q262 239 236 271T209 353Q209 379 215 410T231 476T253 544T280 610L374 831Q393 875 412 918T446 1000T471 1072T481 1128Q481 1143 474 1152T446
1162Q435 1162 407 1155T331 1118T217 1029T63 867L43 964Q109 1022 172 1067T290 1143T392 1189T471 1205Q519 1205 547 1177T576 1105Q576 1076 570 1043T552 974T528 902T499 831L404 610Q386 568 370 525T342 442T323 371T316 320Q316 306 324 300T344 293Q354
293 378 299T438 327T522 389T626 495T748 659T887 892L1026 1219H1148L731 236Q721 213 711 189T689 138H834L811 86H666Q656 64 646 43T624 -2H777L754 -54H597Z" />
<glyph unicode="&#xa6;" glyph-name="brokenbar" horiz-adv-x="800" d="M210 778V1434H290V778H210ZM210 -327V329H290V-327H210Z" />
<glyph unicode="&#xa7;" glyph-name="section" horiz-adv-x="800" d="M648 634Q648 580 631 536T584 459T516 402T436 367Q455 332 467 297T479 225Q479 153 453 102T385 18T292 -30T189 -45Q141 -45 101 -33T27 -1T-31 42T-73 89L11 157Q57 71 101 33T198 -6Q234
-6 267 5T325 40T366 99T381 183Q381 224 361 264T310 345T244 429T178 518T128 613T107 719Q107 773 124 816T171 894T239 951T319 986Q299 1021 288 1056T276 1128Q276 1200 302 1251T370 1335T463 1383T566 1398Q614 1398 654 1386T728 1354T786 1310T828 1264L744
1196Q698 1282 654 1320T557 1359Q521 1359 488 1348T430 1313T389 1254T374 1170Q374 1129 394 1089T445 1008T511 924T577 835T627 739T648 634ZM548 601Q548 643 527 685T475 771T407 859T341 950Q314 941 290 923T247 880T218 823T207 752Q207 710 228 667T280
581T347 493T414 403Q441 412 465 430T508 473T537 530T548 601Z" />
<glyph unicode="&#xa8;" glyph-name="dieresis" horiz-adv-x="500" d="M479 939Q479 910 458 889T407 867Q376 867 355 888T334 939Q334 970 355 991T407 1013Q436 1013 457 992T479 939ZM266 939Q266 910 245 889T192 867Q163 867 142 888T121 939Q121 970 142
991T192 1013Q223 1013 244 992T266 939Z" />
<glyph unicode="&#xa9;" glyph-name="copyright" horiz-adv-x="1536" d="M842 1253Q753 1253 669 1227T510 1154T373 1043T265 904T194 744T169 573Q169 467 203 376T302 217T460 111T671 72Q758 72 842 98T1001 170T1140 279T1250 417T1323 575T1349 744Q1349
851 1314 944T1214 1105T1054 1213T842 1253ZM854 1325Q979 1325 1084 1282T1266 1162T1386 981T1429 756Q1429 652 1400 556T1317 375T1192 222T1034 104T854 27T660 0Q535 0 430 43T250 163T132 342T90 566Q90 670 119 767T200 948T323 1101T479 1220T659 1297T854
1325ZM871 719Q907 737 934 764T981 826T1009 899T1019 980Q1019 1039 994 1075T923 1111Q870 1111 817 1081T716 1001T625 885T551 746T503 599T485 458Q485 361 520 310T621 259Q627 259 647 260T696 268T760 294T834 347L853 319Q812 279 771 257T696 224T636
211T600 208Q562 208 520 219T441 259T382 335T358 454Q358 545 383 631T452 794T552 935T671 1046T795 1119T914 1145Q959 1145 995 1133T1058 1098T1098 1044T1112 974Q1112 931 1093 887T1043 805T970 736T886 691L871 719Z" />
<glyph unicode="&#xaa;" glyph-name="ordfeminine" horiz-adv-x="512" d="M447 865Q440 851 440 841Q440 827 454 827Q465 827 471 833T494 858L629 1010L655 986L493 803Q458 763 430 749T373 734Q347 734 333 746T319 776Q319 796 327 817T352 871Q361 889 372
914T395 963T413 1004T421 1025Q421 1031 416 1031Q409 1031 402 1021Q396 1013 374 985T324 923T268 855T218 802Q183 770 155 752T93 733Q84 733 74 736T54 748T39 772T33 810Q33 844 50 886T97 973T168 1059T257 1135T357 1191T464 1219V1198Q420 1186 380 1162T304
1105T241 1037T193 966T162 900T151 846Q151 832 154 827T163 822Q175 822 202 847T264 911T336 994T406 1078Q438 1118 460 1144T498 1186T527 1208T555 1214Q570 1214 577 1207T585 1189Q585 1180 582 1171T576 1154Q573 1148 564 1127T541 1076T514 1013T486
949T462 896T447 865ZM-10 599L14 647H430L406 599H-10Z" />
<glyph unicode="&#xab;" glyph-name="guillemotleft" horiz-adv-x="655" d="M-10 371L324 598L279 496L92 371L170 246L125 143L-10 371ZM195 371L529 598L484 496L297 371L375 246L330 143L195 371Z" />
<glyph unicode="&#xac;" glyph-name="logicalnot" horiz-adv-x="800" d="M562 627H41L72 703H677L564 421H480L562 627Z" />
<glyph unicode="&#xad;" glyph-name="uni00AD" horiz-adv-x="800" d="M55 412L94 528H601L562 412H55Z" />
<glyph unicode="&#xae;" glyph-name="registered" horiz-adv-x="1024" d="M608 1261Q523 1261 446 1225T309 1128T215 989T180 828Q180 761 201 703T264 603T364 536T497 511Q580 511 658 547T796 642T892 779T928 939Q928 1007 906 1066T843 1168T742 1236T608
1261ZM615 1326Q699 1326 769 1297T891 1217T970 1097T999 947Q999 843 956 752T842 593T679 486T490 446Q406 446 337 475T217 554T138 674T110 823Q110 926 152 1018T264 1178T426 1286T615 1326ZM774 1081Q774 1040 761 1010T725 956T668 916T595 885Q572 877
568 869T564 851Q564 849 572 831T596 781T631 711T676 627L598 601Q579 637 565 665T539 719T514 775T486 842Q484 846 483 852T481 862Q481 873 488 878T509 889T544 901T593 921Q647 949 670 989T694 1077Q694 1092 691 1106T681 1131T663 1149T635 1156Q620
1156 604 1152T572 1133T538 1089T503 1011L367 626H288L425 1011Q441 1058 465 1092T517 1147T577 1179T641 1189Q665 1189 688 1183T731 1163T762 1129T774 1081Z" />
<glyph unicode="&#xaf;" glyph-name="overscore" horiz-adv-x="500" d="M120 911L140 976H499L476 911H120Z" />
<glyph unicode="&#xb0;" glyph-name="degree" horiz-adv-x="354" d="M472 1119Q472 1088 458 1059T421 1006T367 969T303 955Q252 955 227 983T201 1054Q201 1085 215 1114T252 1167T305 1205T369 1219Q417 1219 444 1191T472 1119ZM309 985Q330 985 347 1001T376
1040T395 1089T402 1135Q402 1166 390 1176T362 1186Q347 1186 331 1173T302 1139T279 1091T270 1036Q270 1012 279 999T309 985Z" />
<glyph unicode="&#xb1;" glyph-name="plusminus" horiz-adv-x="800" d="M354 547L243 271H159L271 547H7L38 623H301L413 898H497L385 623H663L632 547H354ZM-133 87L-102 163H523L492 87H-133Z" />
<glyph unicode="&#xb2;" glyph-name="twosuperior" horiz-adv-x="611" d="M147 808Q136 847 136 881Q136 945 164 1006T240 1114T354 1190T496 1219Q546 1219 583 1205T645 1167T682 1110T695 1042Q695 977 669 925T599 828T496 744T369 666T230 586T90 498Q100
502 105 505T116 509T130 510T155 511Q193 511 237 508T330 504Q354 504 372 508T404 518T429 534T453 554L485 537L378 414Q298 424 223 436T59 448Q30 448 0 440T-56 413L-76 436Q6 497 87 548T241 647T378 740T487 832T560 932T586 1046Q586 1106 556 1141T465
1177Q407 1177 361 1157T284 1103T236 1028T219 943Q219 897 244 860L147 808Z" />
<glyph unicode="&#xb3;" glyph-name="threesuperior" horiz-adv-x="592" d="M209 902Q224 908 240 913T274 920Q307 928 342 944T407 984T456 1040T476 1111Q476 1152 455 1169T402 1186Q372 1186 347 1174T299 1142T260 1095T231 1038L170 1114Q239 1174 300
1196T417 1219Q449 1219 480 1212T535 1190T573 1154T588 1106Q588 1070 568 1041T515 988T443 948T364 921Q403 915 434 899T486 859T519 807T530 746Q530 678 497 623T409 523T285 446T146 390T9 352T-107 333L-110 366Q-57 371 2 385T119 422T229 476T322 547T386
635T410 740Q410 767 405 792T386 838T350 871T294 883Q274 883 255 879T219 869L209 902Z" />
<glyph unicode="&#xb4;" glyph-name="acute" horiz-adv-x="500" d="M224 844H175L319 1038H464L224 844Z" />
<glyph unicode="&#xb5;" glyph-name="mu" horiz-adv-x="680" d="M483 208Q426 138 390 97T328 34T285 6T248 -1Q221 -1 210 13T197 47T200 92T212 137Q163 63 121 31T34 -1Q23 -1 10 2T-15 15T-34 44T-37 95L-44 94Q-59 55 -74 9T-104 -84T-133 -173T-159 -244L-300
-288Q-270 -219 -230 -126T-140 87T-27 355T112 682H229L35 219Q24 195 17 175T10 138Q10 115 21 104T50 93Q78 93 101 101T148 132T198 196T256 302T330 461T426 682H543Q540 675 530 652T506 595T473 518T436 432T399 345T366 266T339 205T324 170Q320 161 317
151T314 134Q314 122 319 118T334 114Q341 114 350 118T374 135T408 170T458 228L483 208Z" />
<glyph unicode="&#xb6;" glyph-name="paragraph" horiz-adv-x="934" d="M489 0H422L993 1359Q968 1357 944 1354T893 1346L329 0H262L553 694Q495 681 424 681Q361 681 306 692T209 728T144 788T120 875Q120 940 157 1002T259 1121T415 1226T612 1310T835 1369T1074
1397L489 0ZM476 729Q525 729 572 738L820 1329Q712 1301 611 1254T431 1148T305 1019T257 879Q257 840 275 812T323 765T392 738T476 729Z" />
<glyph unicode="&#xb7;" glyph-name="middot" horiz-adv-x="268" d="M135 554Q135 524 114 503T61 481Q32 481 11 502T-11 554Q-11 583 10 604T61 626Q92 626 113 605T135 554Z" />
<glyph unicode="&#xb8;" glyph-name="cedilla" horiz-adv-x="500" d="M61 -91Q78 -81 102 -78T149 -74Q188 -74 213 -95T239 -148Q239 -177 222 -203T177 -250T110 -282T30 -294Q-14 -294 -40 -284T-80 -265L-64 -241Q-55 -247 -33 -256T24 -265Q51 -265 74 -258T114
-236T141 -203T151 -160Q151 -131 136 -118T100 -104Q78 -104 62 -112T27 -137H0L104 10H131L61 -91Z" />
<glyph unicode="&#xb9;" glyph-name="onesuperior" horiz-adv-x="438" d="M166 422H61L356 1112L65 817L36 846L389 1205H498L166 422Z" />
<glyph unicode="&#xba;" glyph-name="ordmasculine" horiz-adv-x="488" d="M608 978Q561 922 523 900T447 873Q425 843 399 818T342 774T280 744T214 733Q187 733 162 741T116 767T84 809T72 870Q72 925 93 977T152 1075T243 1158T361 1219L374 1203Q318 1158
278 1108T212 1009T174 912T162 825Q162 799 169 783T200 767Q215 767 233 776T271 802T311 841T352 889Q320 907 306 939T292 1008Q292 1044 306 1077T341 1137T389 1179T440 1195Q453 1195 468 1190T497 1172T519 1138T528 1084Q528 1044 513 999T472 910Q495
915 521 934T586 999L608 978ZM329 1010Q329 942 373 918Q408 969 431 1024T454 1123Q454 1140 446 1148T429 1157Q414 1157 397 1146T364 1114T339 1067T329 1010ZM0 599L24 647H400L376 599H0Z" />
<glyph unicode="&#xbb;" glyph-name="guillemotright" horiz-adv-x="655" d="M274 371L-60 143L-15 246L171 371L94 496L139 598L274 371ZM479 371L145 143L190 246L376 371L298 496L343 598L479 371Z" />
<glyph unicode="&#xbc;" glyph-name="onequarter" horiz-adv-x="1137" d="M347 148Q421 204 489 271T615 405T722 537T805 651L888 609Q874 588 847 555T783 482T702 399T611 313T516 234T423 169Q452 180 473 182T509 184Q554 184 596 176T681 162L807 459H900L774
161Q799 163 820 166T855 175L845 139Q822 131 801 125T755 114L707 0H613L658 108Q605 109 555 120T456 131Q431 131 408 131T361 120L347 148ZM84 0H0L853 1219H937L84 0ZM210 577H116L345 1112L125 890L96 917L379 1205H477L210 577Z" />
<glyph unicode="&#xbd;" glyph-name="onehalf" horiz-adv-x="1227" d="M210 577H116L345 1112L125 890L96 917L379 1205H477L210 577ZM84 0H0L853 1219H937L84 0ZM576 305Q567 335 567 363Q567 414 589 463T651 550T744 611T857 634Q897 634 928 623T982 592T1015
547T1027 492Q1027 440 1007 399T953 324T873 259T775 198T666 136T554 66Q571 74 584 75T610 77Q625 77 638 76T663 74T690 72T724 71Q764 71 793 82T843 111L869 97L773 -11Q708 -3 644 6T507 16Q484 16 460 10T415 -12L396 11Q462 60 527 101T650 179T759 252T846
325T904 404T925 495Q925 512 921 529T907 561T878 584T833 593Q791 593 757 578T697 537T659 480T645 413Q645 395 650 379T664 348L576 305Z" />
<glyph unicode="&#xbe;" glyph-name="threequarters" horiz-adv-x="1218" d="M428 148Q502 204 570 271T696 405T803 537T886 651L969 609Q955 588 928 555T864 482T783 399T692 313T597 234T504 169Q533 180 554 182T590 184Q635 184 677 176T762 162L888 459H981L855
161Q880 163 901 166T936 175L926 139Q903 131 882 125T836 114L788 0H694L739 108Q686 109 636 120T537 131Q512 131 489 131T442 120L428 148ZM165 0H81L934 1219H1018L165 0ZM40 560Q100 576 155 602T253 664T321 742T347 835Q347 852 343 871T329 906T301 933T256
944Q240 944 225 941T195 933L186 965Q197 970 208 973T232 979H233Q235 979 235 979T238 980Q264 986 292 998T345 1030T384 1075T400 1133Q400 1165 383 1176T341 1188Q317 1188 297 1179T260 1153T230 1115T207 1069L155 1135Q211 1183 259 1201T353 1219Q419
1219 459 1196T500 1129Q500 1099 484 1075T442 1033T383 1001T315 980Q384 969 419 930T454 840Q454 775 416 725T318 636T187 571T51 530L40 560Z" />
<glyph unicode="&#xbf;" glyph-name="questiondown" horiz-adv-x="840" d="M542 812Q542 842 563 863T616 885Q645 885 666 864T688 812Q688 783 667 762T616 740Q585 740 564 761T542 812ZM606 676Q576 597 536 531T449 405T353 291T258 185T169 80T96 -30T47
-152T28 -290Q28 -327 37 -362T66 -424T113 -467T179 -484Q236 -484 290 -458T385 -389T452 -290T477 -176Q477 -114 443 -78T346 -42Q320 -42 301 -49T268 -65T245 -83T232 -97L219 -71Q240 -47 265 -31T315 -5T364 9T406 14Q440 14 472 4T530 -28T570 -80T585
-151Q585 -202 567 -249T516 -337T442 -413T350 -471T249 -508T147 -522Q93 -522 48 -504T-31 -454T-82 -379T-101 -283Q-101 -208 -78 -142T-15 -16T77 100T186 210T300 319T409 429T501 547T565 676H606Z" />
<glyph unicode="&#xc0;" glyph-name="Agrave" horiz-adv-x="1471" d="M1214 534H1315L1272 442H1176L990 0H857L1042 442H607Q603 434 600 428T592 414Q515 275 441 191T299 60T171 -2T61 -18Q18 -18 -18 -5T-82 33T-124 94T-140 175Q-140 260 -96 327T28 440T216
510T456 534H521Q629 718 718 856T882 1094T1019 1260T1137 1364T1241 1418T1339 1434Q1402 1434 1439 1397T1476 1277Q1476 1219 1456 1140T1392 956L1214 534ZM1328 1397Q1295 1397 1264 1389T1196 1351T1113 1266T1003 1113T855 876T659 534H1080L1257 956Q1315
1096 1349 1188T1384 1334Q1384 1366 1371 1381T1328 1397ZM69 32Q135 32 187 64T284 150T368 270T447 406L468 442H409Q266 442 170 420T16 360T-66 276T-91 179Q-91 151 -83 125T-55 78T-6 45T69 32ZM1390 1536L1300 1730H1425L1423 1536H1390Z" />
<glyph unicode="&#xc1;" glyph-name="Aacute" horiz-adv-x="1471" d="M1214 534H1315L1272 442H1176L990 0H857L1042 442H607Q603 434 600 428T592 414Q515 275 441 191T299 60T171 -2T61 -18Q18 -18 -18 -5T-82 33T-124 94T-140 175Q-140 260 -96 327T28 440T216
510T456 534H521Q629 718 718 856T882 1094T1019 1260T1137 1364T1241 1418T1339 1434Q1402 1434 1439 1397T1476 1277Q1476 1219 1456 1140T1392 956L1214 534ZM1328 1397Q1295 1397 1264 1389T1196 1351T1113 1266T1003 1113T855 876T659 534H1080L1257 956Q1315
1096 1349 1188T1384 1334Q1384 1366 1371 1381T1328 1397ZM69 32Q135 32 187 64T284 150T368 270T447 406L468 442H409Q266 442 170 420T16 360T-66 276T-91 179Q-91 151 -83 125T-55 78T-6 45T69 32ZM1307 1536H1258L1402 1730H1547L1307 1536Z" />
<glyph unicode="&#xc2;" glyph-name="Acircumflex" horiz-adv-x="1471" d="M1214 534H1315L1272 442H1176L990 0H857L1042 442H607Q603 434 600 428T592 414Q515 275 441 191T299 60T171 -2T61 -18Q18 -18 -18 -5T-82 33T-124 94T-140 175Q-140 260 -96 327T28
440T216 510T456 534H521Q629 718 718 856T882 1094T1019 1260T1137 1364T1241 1418T1339 1434Q1402 1434 1439 1397T1476 1277Q1476 1219 1456 1140T1392 956L1214 534ZM1328 1397Q1295 1397 1264 1389T1196 1351T1113 1266T1003 1113T855 876T659 534H1080L1257
956Q1315 1096 1349 1188T1384 1334Q1384 1366 1371 1381T1328 1397ZM69 32Q135 32 187 64T284 150T368 270T447 406L468 442H409Q266 442 170 420T16 360T-66 276T-91 179Q-91 151 -83 125T-55 78T-6 45T69 32ZM1439 1536L1405 1668L1260 1536H1185L1390 1728H1481L1540
1536H1439Z" />
<glyph unicode="&#xc3;" glyph-name="Atilde" horiz-adv-x="1471" d="M1214 534H1315L1272 442H1176L990 0H857L1042 442H607Q603 434 600 428T592 414Q515 275 441 191T299 60T171 -2T61 -18Q18 -18 -18 -5T-82 33T-124 94T-140 175Q-140 260 -96 327T28 440T216
510T456 534H521Q629 718 718 856T882 1094T1019 1260T1137 1364T1241 1418T1339 1434Q1402 1434 1439 1397T1476 1277Q1476 1219 1456 1140T1392 956L1214 534ZM1328 1397Q1295 1397 1264 1389T1196 1351T1113 1266T1003 1113T855 876T659 534H1080L1257 956Q1315
1096 1349 1188T1384 1334Q1384 1366 1371 1381T1328 1397ZM69 32Q135 32 187 64T284 150T368 270T447 406L468 442H409Q266 442 170 420T16 360T-66 276T-91 179Q-91 151 -83 125T-55 78T-6 45T69 32ZM1610 1719Q1571 1631 1535 1592T1452 1552Q1428 1552 1410
1565T1375 1593T1345 1622T1312 1635Q1301 1635 1292 1632T1272 1619T1252 1593T1228 1552H1175Q1213 1642 1247 1680T1324 1719Q1348 1719 1365 1706T1397 1678T1429 1649T1465 1636Q1475 1636 1485 1639T1507 1651T1531 1676T1557 1719H1610V1719Z" />
<glyph unicode="&#xc4;" glyph-name="Adieresis" horiz-adv-x="1471" d="M1214 534H1315L1272 442H1176L990 0H857L1042 442H607Q603 434 600 428T592 414Q515 275 441 191T299 60T171 -2T61 -18Q18 -18 -18 -5T-82 33T-124 94T-140 175Q-140 260 -96 327T28 440T216
510T456 534H521Q629 718 718 856T882 1094T1019 1260T1137 1364T1241 1418T1339 1434Q1402 1434 1439 1397T1476 1277Q1476 1219 1456 1140T1392 956L1214 534ZM1328 1397Q1295 1397 1264 1389T1196 1351T1113 1266T1003 1113T855 876T659 534H1080L1257 956Q1315
1096 1349 1188T1384 1334Q1384 1366 1371 1381T1328 1397ZM69 32Q135 32 187 64T284 150T368 270T447 406L468 442H409Q266 442 170 420T16 360T-66 276T-91 179Q-91 151 -83 125T-55 78T-6 45T69 32ZM1562 1631Q1562 1602 1541 1581T1490 1559Q1459 1559 1438
1580T1417 1631Q1417 1662 1438 1683T1490 1705Q1519 1705 1540 1684T1562 1631ZM1349 1631Q1349 1602 1328 1581T1275 1559Q1246 1559 1225 1580T1204 1631Q1204 1662 1225 1683T1275 1705Q1306 1705 1327 1684T1349 1631Z" />
<glyph unicode="&#xc5;" glyph-name="Aring" horiz-adv-x="1471" d="M1214 534H1315L1272 442H1176L990 0H857L1042 442H607Q603 434 600 428T592 414Q515 275 441 191T299 60T171 -2T61 -18Q18 -18 -18 -5T-82 33T-124 94T-140 175Q-140 260 -96 327T28 440T216
510T456 534H521Q629 718 718 856T882 1094T1019 1260T1137 1364T1241 1418T1339 1434Q1402 1434 1439 1397T1476 1277Q1476 1219 1456 1140T1392 956L1214 534ZM1328 1397Q1295 1397 1264 1389T1196 1351T1113 1266T1003 1113T855 876T659 534H1080L1257 956Q1315
1096 1349 1188T1384 1334Q1384 1366 1371 1381T1328 1397ZM69 32Q135 32 187 64T284 150T368 270T447 406L468 442H409Q266 442 170 420T16 360T-66 276T-91 179Q-91 151 -83 125T-55 78T-6 45T69 32ZM1445 1840Q1499 1840 1533 1810T1568 1729Q1568 1682 1547
1643T1494 1576T1424 1532T1349 1516Q1295 1516 1263 1546T1230 1625Q1230 1668 1249 1707T1298 1775T1367 1822T1445 1840ZM1442 1806Q1410 1806 1385 1787T1341 1740T1313 1678T1303 1618Q1303 1584 1316 1567T1354 1550Q1385 1550 1410 1569T1455 1616T1484
1676T1495 1736Q1495 1769 1481 1787T1442 1806Z" />
<glyph unicode="&#xc6;" glyph-name="AE" horiz-adv-x="1900" d="M-140 175Q-140 260 -96 327T28 440T216 510T456 534H521Q629 718 718 856T882 1094T1019 1260T1137 1364T1241 1418T1339 1434Q1402 1434 1439 1397T1476 1277Q1476 1263 1475 1249T1471 1218Q1498
1263 1532 1302T1608 1371T1695 1418T1791 1435Q1843 1435 1876 1401T1910 1312Q1910 1267 1882 1226T1802 1148T1675 1080T1507 1024Q1512 999 1519 978T1534 937T1547 898T1553 856Q1553 794 1523 752T1448 677T1351 612T1253 541T1178 444T1148 303Q1148 237
1172 188T1236 106T1322 57T1415 41Q1445 41 1480 44T1560 63T1657 110T1773 196L1799 164Q1731 107 1673 72T1563 16T1461 -11T1360 -18Q1308 -18 1261 -9T1173 20T1100 68T1047 135L990 0H857L1042 442H607Q603 434 600 428T592 414Q515 275 441 191T299 60T171
-2T61 -18Q18 -18 -18 -5T-82 33T-124 94T-140 175ZM1328 1397Q1295 1397 1264 1389T1196 1351T1113 1266T1003 1113T855 876T659 534H1080L1257 956Q1315 1096 1349 1188T1384 1334Q1384 1366 1371 1381T1328 1397ZM69 32Q135 32 187 64T284 150T368 270T447 406L468
442H409Q266 442 170 420T16 360T-66 276T-91 179Q-91 151 -83 125T-55 78T-6 45T69 32ZM1503 1066Q1651 1105 1732 1168T1813 1317Q1813 1355 1795 1372T1744 1390Q1714 1390 1673 1368T1594 1304T1530 1204T1503 1072V1066ZM1250 618Q1286 641 1319 661T1378
703T1419 746T1435 794Q1435 807 1430 823T1418 861T1405 910T1399 973Q1397 968 1396 964T1392 956L1250 618Z" />
<glyph unicode="&#xc7;" glyph-name="Ccedilla" horiz-adv-x="1054" d="M791 764Q904 818 968 926T1032 1179Q1032 1226 1022 1266T990 1335T938 1380T867 1397Q803 1397 739 1370T613 1295T494 1182T386 1039T293 877T221 705T175 533T158 370Q158 284 176 223T226
122T302 64T399 45Q409 45 440 47T517 64T619 107T734 190L759 154Q695 92 632 57T515 6T422 -14T367 -18Q358 -18 349 -18T330 -16L278 -91Q295 -81 319 -78T366 -74Q405 -74 430 -95T456 -148Q456 -177 439 -203T394 -250T327 -282T247 -294Q203 -294 177 -284T137
-265L153 -241Q162 -247 184 -256T241 -265Q268 -265 291 -258T331 -236T358 -203T368 -160Q368 -131 353 -118T317 -104Q295 -104 279 -112T244 -137H217L304 -13Q253 -5 202 19T110 87T42 199T16 363Q16 468 38 570T101 767T196 948T314 1109T448 1243T588 1345T726
1411T854 1434Q918 1434 971 1415T1062 1361T1122 1278T1144 1170Q1144 1104 1117 1037T1044 911T938 806T811 737L791 764Z" />
<glyph unicode="&#xc8;" glyph-name="Egrave" horiz-adv-x="837" d="M165 1020Q259 1029 342 1044Q354 1112 388 1181T474 1307T590 1399T728 1435Q780 1435 813 1401T847 1312Q847 1267 819 1226T739 1148T612 1080T444 1024Q448 1000 456 979T471 937T484 898T490
856Q490 794 460 752T385 677T288 612T190 541T115 444T85 303Q85 237 109 188T173 106T259 57T352 41Q382 41 417 44T497 63T594 110T710 196L736 164Q668 107 610 72T500 16T398 -11T297 -18Q225 -18 162 1T51 57T-23 149T-51 276Q-51 358 -20 418T59 522T160
601T262 665T340 726T372 794Q372 808 367 824T354 863T342 913T336 978Q336 983 336 988T337 1000Q302 993 265 988T190 977L165 1020ZM440 1066Q588 1105 669 1168T750 1317Q750 1355 732 1372T681 1390Q651 1390 610 1368T531 1304T467 1204T440 1072V1066ZM727
1535L637 1729H762L760 1535H727Z" />
<glyph unicode="&#xc9;" glyph-name="Eacute" horiz-adv-x="837" d="M165 1020Q259 1029 342 1044Q354 1112 388 1181T474 1307T590 1399T728 1435Q780 1435 813 1401T847 1312Q847 1267 819 1226T739 1148T612 1080T444 1024Q448 1000 456 979T471 937T484 898T490
856Q490 794 460 752T385 677T288 612T190 541T115 444T85 303Q85 237 109 188T173 106T259 57T352 41Q382 41 417 44T497 63T594 110T710 196L736 164Q668 107 610 72T500 16T398 -11T297 -18Q225 -18 162 1T51 57T-23 149T-51 276Q-51 358 -20 418T59 522T160
601T262 665T340 726T372 794Q372 808 367 824T354 863T342 913T336 978Q336 983 336 988T337 1000Q302 993 265 988T190 977L165 1020ZM440 1066Q588 1105 669 1168T750 1317Q750 1355 732 1372T681 1390Q651 1390 610 1368T531 1304T467 1204T440 1072V1066ZM644
1535H595L739 1729H884L644 1535Z" />
<glyph unicode="&#xca;" glyph-name="Ecircumflex" horiz-adv-x="837" d="M165 1020Q259 1029 342 1044Q354 1112 388 1181T474 1307T590 1399T728 1435Q780 1435 813 1401T847 1312Q847 1267 819 1226T739 1148T612 1080T444 1024Q448 1000 456 979T471 937T484
898T490 856Q490 794 460 752T385 677T288 612T190 541T115 444T85 303Q85 237 109 188T173 106T259 57T352 41Q382 41 417 44T497 63T594 110T710 196L736 164Q668 107 610 72T500 16T398 -11T297 -18Q225 -18 162 1T51 57T-23 149T-51 276Q-51 358 -20 418T59
522T160 601T262 665T340 726T372 794Q372 808 367 824T354 863T342 913T336 978Q336 983 336 988T337 1000Q302 993 265 988T190 977L165 1020ZM440 1066Q588 1105 669 1168T750 1317Q750 1355 732 1372T681 1390Q651 1390 610 1368T531 1304T467 1204T440 1072V1066ZM776
1535L742 1667L597 1535H522L727 1727H818L877 1535H776Z" />
<glyph unicode="&#xcb;" glyph-name="Edieresis" horiz-adv-x="837" d="M165 1020Q259 1029 342 1044Q354 1112 388 1181T474 1307T590 1399T728 1435Q780 1435 813 1401T847 1312Q847 1267 819 1226T739 1148T612 1080T444 1024Q448 1000 456 979T471 937T484
898T490 856Q490 794 460 752T385 677T288 612T190 541T115 444T85 303Q85 237 109 188T173 106T259 57T352 41Q382 41 417 44T497 63T594 110T710 196L736 164Q668 107 610 72T500 16T398 -11T297 -18Q225 -18 162 1T51 57T-23 149T-51 276Q-51 358 -20 418T59
522T160 601T262 665T340 726T372 794Q372 808 367 824T354 863T342 913T336 978Q336 983 336 988T337 1000Q302 993 265 988T190 977L165 1020ZM440 1066Q588 1105 669 1168T750 1317Q750 1355 732 1372T681 1390Q651 1390 610 1368T531 1304T467 1204T440 1072V1066ZM899
1630Q899 1601 878 1580T827 1558Q796 1558 775 1579T754 1630Q754 1661 775 1682T827 1704Q856 1704 877 1683T899 1630ZM686 1630Q686 1601 665 1580T612 1558Q583 1558 562 1579T541 1630Q541 1661 562 1682T612 1704Q643 1704 664 1683T686 1630Z" />
<glyph unicode="&#xcc;" glyph-name="Igrave" horiz-adv-x="914" d="M847 635Q793 574 742 522T636 429Q595 351 544 272T429 128T292 23T133 -18Q53 -18 7 24T-40 133L58 195Q45 147 45 113Q45 66 66 45T116 24Q192 24 280 102T463 344Q416 333 368 333Q317 333
266 350T173 401T105 489T79 617Q79 719 117 819T216 1010T355 1178T509 1313T658 1402T779 1434Q828 1434 861 1383T894 1225Q894 1116 848 951T699 557Q692 543 686 528Q718 559 749 594T815 667L847 635ZM417 388Q455 388 494 399Q519 447 544 501T595 616Q640
724 679 827T747 1022T792 1188T809 1313Q809 1353 797 1375T759 1397Q730 1397 678 1364T565 1275T441 1142T326 980T242 802T209 622Q209 565 226 522T271 448T338 403T417 388ZM776 1534L686 1728H811L809 1534H776Z" />
<glyph unicode="&#xcd;" glyph-name="Iacute" horiz-adv-x="914" d="M847 635Q793 574 742 522T636 429Q595 351 544 272T429 128T292 23T133 -18Q53 -18 7 24T-40 133L58 195Q45 147 45 113Q45 66 66 45T116 24Q192 24 280 102T463 344Q416 333 368 333Q317 333
266 350T173 401T105 489T79 617Q79 719 117 819T216 1010T355 1178T509 1313T658 1402T779 1434Q828 1434 861 1383T894 1225Q894 1116 848 951T699 557Q692 543 686 528Q718 559 749 594T815 667L847 635ZM417 388Q455 388 494 399Q519 447 544 501T595 616Q640
724 679 827T747 1022T792 1188T809 1313Q809 1353 797 1375T759 1397Q730 1397 678 1364T565 1275T441 1142T326 980T242 802T209 622Q209 565 226 522T271 448T338 403T417 388ZM693 1534H644L788 1728H933L693 1534Z" />
<glyph unicode="&#xce;" glyph-name="Icircumflex" horiz-adv-x="914" d="M847 635Q793 574 742 522T636 429Q595 351 544 272T429 128T292 23T133 -18Q53 -18 7 24T-40 133L58 195Q45 147 45 113Q45 66 66 45T116 24Q192 24 280 102T463 344Q416 333 368 333Q317
333 266 350T173 401T105 489T79 617Q79 719 117 819T216 1010T355 1178T509 1313T658 1402T779 1434Q828 1434 861 1383T894 1225Q894 1116 848 951T699 557Q692 543 686 528Q718 559 749 594T815 667L847 635ZM417 388Q455 388 494 399Q519 447 544 501T595 616Q640
724 679 827T747 1022T792 1188T809 1313Q809 1353 797 1375T759 1397Q730 1397 678 1364T565 1275T441 1142T326 980T242 802T209 622Q209 565 226 522T271 448T338 403T417 388ZM825 1534L791 1666L646 1534H571L776 1726H867L926 1534H825Z" />
<glyph unicode="&#xcf;" glyph-name="Idieresis" horiz-adv-x="914" d="M847 635Q793 574 742 522T636 429Q595 351 544 272T429 128T292 23T133 -18Q53 -18 7 24T-40 133L58 195Q45 147 45 113Q45 66 66 45T116 24Q192 24 280 102T463 344Q416 333 368 333Q317
333 266 350T173 401T105 489T79 617Q79 719 117 819T216 1010T355 1178T509 1313T658 1402T779 1434Q828 1434 861 1383T894 1225Q894 1116 848 951T699 557Q692 543 686 528Q718 559 749 594T815 667L847 635ZM417 388Q455 388 494 399Q519 447 544 501T595 616Q640
724 679 827T747 1022T792 1188T809 1313Q809 1353 797 1375T759 1397Q730 1397 678 1364T565 1275T441 1142T326 980T242 802T209 622Q209 565 226 522T271 448T338 403T417 388ZM948 1629Q948 1600 927 1579T876 1557Q845 1557 824 1578T803 1629Q803 1660 824
1681T876 1703Q905 1703 926 1682T948 1629ZM735 1629Q735 1600 714 1579T661 1557Q632 1557 611 1578T590 1629Q590 1660 611 1681T661 1703Q692 1703 713 1682T735 1629Z" />
<glyph unicode="&#xd0;" glyph-name="Eth" horiz-adv-x="1410" d="M575 -18Q523 -18 479 -6T397 27T326 74T264 128Q205 54 142 20T4 -15Q-23 -15 -50 -7T-100 19T-137 64T-151 130Q-151 169 -135 205T-89 268T-19 312T70 328Q112 328 149 308T224 257Q251 312
281 382T348 539H153L181 601H373L491 883H373Q323 883 274 893T187 926T126 983T102 1065Q102 1133 147 1199T274 1318T474 1402T737 1434Q846 1434 949 1395T1132 1281T1261 1098T1310 850Q1310 753 1284 651T1211 453T1097 271T949 121T773 20T575 -18ZM476
539L426 420Q366 277 305 185Q334 158 364 133T427 87T496 55T572 43Q658 43 735 79T879 179T1000 325T1091 502T1149 695T1170 887Q1170 993 1144 1086T1062 1248T923 1357T721 1397Q606 1397 512 1371T352 1302T249 1207T213 1100Q213 1072 222 1049T253 1009T313
983T407 973H529L676 1323H804L657 973H979L942 883H620L502 601H727L699 539H476ZM-4 35Q26 35 51 44T100 74T146 124T192 196Q157 228 124 250T53 272Q15 272 -13 259T-62 226T-92 181T-102 133Q-102 88 -76 62T-4 35Z" />
<glyph unicode="&#xd1;" glyph-name="Ntilde" horiz-adv-x="1310" d="M1092 954Q1114 1007 1137 1060T1180 1163T1211 1249T1223 1314Q1223 1334 1214 1345T1188 1356Q1108 1356 1005 1283Q961 1252 908 1203T796 1084T671 921T535 704L235 0H110L576 1098Q598
1150 619 1203T657 1304T684 1392T695 1461Q695 1507 663 1507Q595 1500 505 1445Q467 1422 420 1386T318 1297T201 1173T70 1008L50 1130Q147 1230 240 1307T415 1436T566 1515T681 1542Q740 1542 764 1507T789 1415Q789 1381 782 1342T763 1262T736 1179T703
1098L624 914Q723 1058 807 1151T962 1299T1092 1375T1201 1397Q1255 1397 1282 1363T1309 1271Q1309 1238 1302 1199T1283 1119T1256 1036T1224 954L943 291Q878 138 840 39T802 -108Q802 -128 810 -140T838 -153Q845 -153 858 -149T889 -132T933 -98T988 -41L1019
-68Q981 -112 951 -138T895 -177T850 -195T813 -199Q780 -199 758 -189T722 -161T702 -121T696 -74Q696 -35 706 9T733 101T770 197T811 291L1092 954ZM1299 1722Q1260 1634 1224 1595T1141 1555Q1117 1555 1099 1568T1064 1596T1034 1625T1001 1638Q990 1638 981
1635T961 1622T941 1596T917 1555H864Q902 1645 936 1683T1013 1722Q1037 1722 1054 1709T1086 1681T1118 1652T1154 1639Q1164 1639 1174 1642T1196 1654T1220 1679T1246 1722H1299V1722Z" />
<glyph unicode="&#xd2;" glyph-name="Ograve" horiz-adv-x="1162" d="M1039 1131Q1039 1153 1037 1182T1030 1241T1015 1299T989 1350T950 1387T895 1401Q850 1401 806 1374T720 1299T644 1189T582 1055T541 909T526 762Q526 655 556 602T659 549Q684 549 703
555T736 569T758 585T768 598L778 571Q758 541 735 524T689 497T646 484T612 481Q524 481 475 552T426 755Q426 827 447 905T504 1059T589 1203T690 1323T800 1405T909 1436Q945 1436 986 1418T1064 1357T1123 1240T1147 1057Q1147 917 1109 783T1007 528T859 305T683
130T496 15T316 -27Q247 -27 191 1T96 81T36 202T15 358Q15 437 29 526T78 713Q109 801 146 875T224 1011T305 1122T385 1209Q475 1298 569 1352L587 1329Q526 1277 464 1192Q437 1156 408 1109T347 1003T285 873T225 717Q187 608 168 510T149 328Q149 262 161
208T198 115T256 55T333 33Q398 33 475 81T631 211T783 403T914 634T1005 884T1039 1131ZM896 1537L806 1731H931L929 1537H896Z" />
<glyph unicode="&#xd3;" glyph-name="Oacute" horiz-adv-x="1162" d="M1039 1131Q1039 1153 1037 1182T1030 1241T1015 1299T989 1350T950 1387T895 1401Q850 1401 806 1374T720 1299T644 1189T582 1055T541 909T526 762Q526 655 556 602T659 549Q684 549 703
555T736 569T758 585T768 598L778 571Q758 541 735 524T689 497T646 484T612 481Q524 481 475 552T426 755Q426 827 447 905T504 1059T589 1203T690 1323T800 1405T909 1436Q945 1436 986 1418T1064 1357T1123 1240T1147 1057Q1147 917 1109 783T1007 528T859 305T683
130T496 15T316 -27Q247 -27 191 1T96 81T36 202T15 358Q15 437 29 526T78 713Q109 801 146 875T224 1011T305 1122T385 1209Q475 1298 569 1352L587 1329Q526 1277 464 1192Q437 1156 408 1109T347 1003T285 873T225 717Q187 608 168 510T149 328Q149 262 161
208T198 115T256 55T333 33Q398 33 475 81T631 211T783 403T914 634T1005 884T1039 1131ZM813 1537H764L908 1731H1053L813 1537Z" />
<glyph unicode="&#xd4;" glyph-name="Ocircumflex" horiz-adv-x="1162" d="M1039 1131Q1039 1153 1037 1182T1030 1241T1015 1299T989 1350T950 1387T895 1401Q850 1401 806 1374T720 1299T644 1189T582 1055T541 909T526 762Q526 655 556 602T659 549Q684 549
703 555T736 569T758 585T768 598L778 571Q758 541 735 524T689 497T646 484T612 481Q524 481 475 552T426 755Q426 827 447 905T504 1059T589 1203T690 1323T800 1405T909 1436Q945 1436 986 1418T1064 1357T1123 1240T1147 1057Q1147 917 1109 783T1007 528T859
305T683 130T496 15T316 -27Q247 -27 191 1T96 81T36 202T15 358Q15 437 29 526T78 713Q109 801 146 875T224 1011T305 1122T385 1209Q475 1298 569 1352L587 1329Q526 1277 464 1192Q437 1156 408 1109T347 1003T285 873T225 717Q187 608 168 510T149 328Q149
262 161 208T198 115T256 55T333 33Q398 33 475 81T631 211T783 403T914 634T1005 884T1039 1131ZM945 1537L911 1669L766 1537H691L896 1729H987L1046 1537H945Z" />
<glyph unicode="&#xd5;" glyph-name="Otilde" horiz-adv-x="1162" d="M1039 1131Q1039 1153 1037 1182T1030 1241T1015 1299T989 1350T950 1387T895 1401Q850 1401 806 1374T720 1299T644 1189T582 1055T541 909T526 762Q526 655 556 602T659 549Q684 549 703
555T736 569T758 585T768 598L778 571Q758 541 735 524T689 497T646 484T612 481Q524 481 475 552T426 755Q426 827 447 905T504 1059T589 1203T690 1323T800 1405T909 1436Q945 1436 986 1418T1064 1357T1123 1240T1147 1057Q1147 917 1109 783T1007 528T859 305T683
130T496 15T316 -27Q247 -27 191 1T96 81T36 202T15 358Q15 437 29 526T78 713Q109 801 146 875T224 1011T305 1122T385 1209Q475 1298 569 1352L587 1329Q526 1277 464 1192Q437 1156 408 1109T347 1003T285 873T225 717Q187 608 168 510T149 328Q149 262 161
208T198 115T256 55T333 33Q398 33 475 81T631 211T783 403T914 634T1005 884T1039 1131ZM1116 1720Q1077 1632 1041 1593T958 1553Q934 1553 916 1566T881 1594T851 1623T818 1636Q807 1636 798 1633T778 1620T758 1594T734 1553H681Q719 1643 753 1681T830 1720Q854
1720 871 1707T903 1679T935 1650T971 1637Q981 1637 991 1640T1013 1652T1037 1677T1063 1720H1116V1720Z" />
<glyph unicode="&#xd6;" glyph-name="Odieresis" horiz-adv-x="1162" d="M1039 1131Q1039 1153 1037 1182T1030 1241T1015 1299T989 1350T950 1387T895 1401Q850 1401 806 1374T720 1299T644 1189T582 1055T541 909T526 762Q526 655 556 602T659 549Q684 549 703
555T736 569T758 585T768 598L778 571Q758 541 735 524T689 497T646 484T612 481Q524 481 475 552T426 755Q426 827 447 905T504 1059T589 1203T690 1323T800 1405T909 1436Q945 1436 986 1418T1064 1357T1123 1240T1147 1057Q1147 917 1109 783T1007 528T859 305T683
130T496 15T316 -27Q247 -27 191 1T96 81T36 202T15 358Q15 437 29 526T78 713Q109 801 146 875T224 1011T305 1122T385 1209Q475 1298 569 1352L587 1329Q526 1277 464 1192Q437 1156 408 1109T347 1003T285 873T225 717Q187 608 168 510T149 328Q149 262 161
208T198 115T256 55T333 33Q398 33 475 81T631 211T783 403T914 634T1005 884T1039 1131ZM1068 1632Q1068 1603 1047 1582T996 1560Q965 1560 944 1581T923 1632Q923 1663 944 1684T996 1706Q1025 1706 1046 1685T1068 1632ZM855 1632Q855 1603 834 1582T781 1560Q752
1560 731 1581T710 1632Q710 1663 731 1684T781 1706Q812 1706 833 1685T855 1632Z" />
<glyph unicode="&#xd7;" glyph-name="multiply" horiz-adv-x="800" d="M353 638L600 847L643 794L396 585L567 377L503 323L333 531L87 323L43 377L289 585L119 794L182 847L353 638Z" />
<glyph unicode="&#xd8;" glyph-name="Oslash" horiz-adv-x="1162" d="M1066 1354Q1101 1309 1124 1238T1147 1057Q1147 917 1109 783T1007 528T859 305T683 130T496 15T316 -27Q271 -27 233 -16T162 18L48 -150L-6 -115L113 60Q65 112 40 188T15 358Q15 437 29
526T78 713Q109 801 146 875T224 1011T305 1122T385 1209Q475 1298 569 1352L587 1329Q526 1277 464 1192Q437 1156 408 1109T347 1003T285 873T225 717Q187 608 168 510T149 328Q149 229 177 156L462 576Q445 610 436 654T426 755Q426 827 447 905T504 1059T589
1203T690 1323T800 1405T909 1436Q935 1436 963 1427T1019 1398L1113 1537L1166 1501L1066 1354ZM1039 1131Q1039 1162 1035 1203T1019 1285L557 602Q588 549 659 549Q684 549 703 555T736 569T758 585T768 598L778 571Q758 541 735 524T689 497T646 484T612 481Q545
481 502 521L213 93Q259 33 333 33Q398 33 475 81T631 211T783 403T914 634T1005 884T1039 1131ZM526 762Q526 739 527 718T531 679L988 1352Q971 1374 949 1387T895 1401Q850 1401 806 1374T720 1299T644 1189T582 1055T541 909T526 762Z" />
<glyph unicode="&#xd9;" glyph-name="Ugrave" horiz-adv-x="1398" d="M576 989Q598 1042 621 1095T662 1197T691 1287T703 1356Q703 1374 696 1385T673 1397Q602 1386 510 1329Q471 1305 424 1268T321 1178T203 1053T71 887L50 1022Q147 1122 241 1198T420 1327T574
1407T691 1434Q748 1434 774 1401T801 1315Q801 1281 793 1242T773 1160T744 1074T709 989L467 424Q446 373 427 322T394 224T372 140T363 79Q363 35 406 35Q422 35 453 41T528 71T630 141T757 267T905 465T1072 752L1349 1397H1478L973 209Q955 165 947 134T939
82Q939 56 949 46T973 35Q1007 35 1037 54T1104 115T1186 224T1298 390L1325 373Q1261 274 1212 200T1118 78T1031 5T937 -20Q928 -20 909 -18T871 -4T837 31T822 97Q822 129 833 174T870 281L934 431Q845 298 765 212T616 74T487 3T379 -18Q314 -18 283 21T251
118Q251 149 258 186T277 264T304 345T335 424L576 989ZM1102 1520L1012 1714H1137L1135 1520H1102Z" />
<glyph unicode="&#xda;" glyph-name="Uacute" horiz-adv-x="1398" d="M576 989Q598 1042 621 1095T662 1197T691 1287T703 1356Q703 1374 696 1385T673 1397Q602 1386 510 1329Q471 1305 424 1268T321 1178T203 1053T71 887L50 1022Q147 1122 241 1198T420 1327T574
1407T691 1434Q748 1434 774 1401T801 1315Q801 1281 793 1242T773 1160T744 1074T709 989L467 424Q446 373 427 322T394 224T372 140T363 79Q363 35 406 35Q422 35 453 41T528 71T630 141T757 267T905 465T1072 752L1349 1397H1478L973 209Q955 165 947 134T939
82Q939 56 949 46T973 35Q1007 35 1037 54T1104 115T1186 224T1298 390L1325 373Q1261 274 1212 200T1118 78T1031 5T937 -20Q928 -20 909 -18T871 -4T837 31T822 97Q822 129 833 174T870 281L934 431Q845 298 765 212T616 74T487 3T379 -18Q314 -18 283 21T251
118Q251 149 258 186T277 264T304 345T335 424L576 989ZM1019 1520H970L1114 1714H1259L1019 1520Z" />
<glyph unicode="&#xdb;" glyph-name="Ucircumflex" horiz-adv-x="1398" d="M576 989Q598 1042 621 1095T662 1197T691 1287T703 1356Q703 1374 696 1385T673 1397Q602 1386 510 1329Q471 1305 424 1268T321 1178T203 1053T71 887L50 1022Q147 1122 241 1198T420
1327T574 1407T691 1434Q748 1434 774 1401T801 1315Q801 1281 793 1242T773 1160T744 1074T709 989L467 424Q446 373 427 322T394 224T372 140T363 79Q363 35 406 35Q422 35 453 41T528 71T630 141T757 267T905 465T1072 752L1349 1397H1478L973 209Q955 165 947
134T939 82Q939 56 949 46T973 35Q1007 35 1037 54T1104 115T1186 224T1298 390L1325 373Q1261 274 1212 200T1118 78T1031 5T937 -20Q928 -20 909 -18T871 -4T837 31T822 97Q822 129 833 174T870 281L934 431Q845 298 765 212T616 74T487 3T379 -18Q314 -18 283
21T251 118Q251 149 258 186T277 264T304 345T335 424L576 989ZM1151 1520L1117 1652L972 1520H897L1102 1712H1193L1252 1520H1151Z" />
<glyph unicode="&#xdc;" glyph-name="Udieresis" horiz-adv-x="1398" d="M576 989Q598 1042 621 1095T662 1197T691 1287T703 1356Q703 1374 696 1385T673 1397Q602 1386 510 1329Q471 1305 424 1268T321 1178T203 1053T71 887L50 1022Q147 1122 241 1198T420
1327T574 1407T691 1434Q748 1434 774 1401T801 1315Q801 1281 793 1242T773 1160T744 1074T709 989L467 424Q446 373 427 322T394 224T372 140T363 79Q363 35 406 35Q422 35 453 41T528 71T630 141T757 267T905 465T1072 752L1349 1397H1478L973 209Q955 165 947
134T939 82Q939 56 949 46T973 35Q1007 35 1037 54T1104 115T1186 224T1298 390L1325 373Q1261 274 1212 200T1118 78T1031 5T937 -20Q928 -20 909 -18T871 -4T837 31T822 97Q822 129 833 174T870 281L934 431Q845 298 765 212T616 74T487 3T379 -18Q314 -18 283
21T251 118Q251 149 258 186T277 264T304 345T335 424L576 989ZM1274 1615Q1274 1586 1253 1565T1202 1543Q1171 1543 1150 1564T1129 1615Q1129 1646 1150 1667T1202 1689Q1231 1689 1252 1668T1274 1615ZM1061 1615Q1061 1586 1040 1565T987 1543Q958 1543 937
1564T916 1615Q916 1646 937 1667T987 1689Q1018 1689 1039 1668T1061 1615Z" />
<glyph unicode="&#xdd;" glyph-name="Yacute" horiz-adv-x="1344" d="M576 989Q598 1042 621 1095T662 1197T691 1287T703 1356Q703 1374 696 1385T673 1397Q602 1386 510 1329Q471 1305 424 1268T321 1178T203 1053T71 887L50 1022Q147 1122 241 1198T420 1327T574
1407T691 1434Q748 1434 774 1401T801 1315Q801 1281 793 1242T773 1160T744 1074T709 989L467 424Q446 373 427 322T394 224T372 140T363 79Q363 35 406 35Q422 35 452 41T527 71T629 139T754 264T900 459T1067 742L1286 1255H1415L1001 281Q980 232 956 176T904
60T844 -59T773 -178H907L866 -266H710Q666 -322 615 -370T506 -454T382 -510T242 -530Q198 -530 167 -520T115 -492T86 -450T77 -397Q77 -386 81 -365T100 -320T141 -270T209 -225T314 -191T463 -178H642Q693 -94 750 18T870 281L933 429Q844 297 765 211T616
73T487 2T379 -18Q314 -18 283 21T251 118Q251 149 258 186T277 264T304 345T335 424L576 989ZM241 -489Q281 -489 321 -480T403 -446T490 -378T584 -266H422Q374 -266 321 -271T223 -292T149 -334T120 -405Q120 -444 148 -466T241 -489ZM1039 1473H990L1134 1667H1279L1039
1473Z" />
<glyph unicode="&#xde;" glyph-name="Thorn" horiz-adv-x="1095" d="M-101 0L19 285H-37Q-60 285 -81 285T-119 286L-62 383Q-30 381 0 381T59 381L192 695Q193 699 197 707L487 1397H613L473 1063Q541 1111 614 1135T763 1160Q815 1160 869 1143T966 1091T1037
1004T1065 879Q1065 798 1031 729T937 601T793 492T613 402Q483 347 365 323T150 291L28 0H-101ZM284 611L188 383Q321 389 422 406T607 455Q686 485 747 531T849 636T911 760T932 894Q932 958 916 1002T873 1073T812 1111T743 1123Q704 1123 652 1102T543 1032T428
900T319 695L284 611Z" />
<glyph unicode="&#xdf;" glyph-name="germandbls" horiz-adv-x="752" d="M58 38Q58 51 64 62T81 83T103 97T128 102Q144 102 153 98T172 89T192 79T223 75Q259 75 292 112T351 208T392 337T408 474Q408 527 403 560T391 616T380 653T374 685Q374 705 383 722T406
756T440 795T480 845Q533 919 561 987T589 1124Q589 1135 587 1148T580 1174T567 1194T547 1203Q529 1203 512 1188T476 1144T440 1077T402 991L-204 -473L-346 -518L136 643Q120 618 99 588T50 519T-15 435T-98 332L-123 352Q-60 429 -13 491T70 604T131 696T177
774T213 842T245 906Q277 982 313 1043T390 1147T471 1213T554 1236Q584 1236 605 1226T641 1199T663 1159T670 1109Q670 1065 654 1023T610 940T547 859T475 776Q473 774 473 772T473 767Q473 759 479 733T493 670T507 589T514 499Q514 442 499 386T459 277T399
178T324 96Q401 137 487 207T661 391L686 371Q622 289 554 226T417 117T284 43T160 5Q135 0 115 0Q92 0 75 8T58 38Z" />
<glyph unicode="&#xe0;" glyph-name="agrave" horiz-adv-x="701" d="M344 170Q340 161 337 151T334 134Q334 122 339 118T354 114Q368 114 388 128T430 169L613 395L638 375L417 102Q393 72 372 52T333 21T296 4T258 -1Q228 -1 208 16T188 61Q188 91 199 123T233
203Q241 220 252 247T277 305T303 367T326 423T342 466T349 486Q349 496 342 496Q333 496 323 481Q317 473 299 447T255 385T199 307T139 225T82 152T36 100Q-12 52 -49 25T-122 -3Q-134 -3 -148 2T-175 19T-196 54T-204 112Q-204 164 -181 227T-116 355T-19 484T102
597T240 682T386 723V705Q325 687 269 650T164 563T75 459T6 349T-38 247T-54 165Q-54 147 -49 135T-33 123Q-22 123 -1 141T49 189T110 259T177 342T244 429T307 512Q351 572 380 611T430 673T468 706T505 715Q526 715 534 704T542 677Q542 664 539 650T530 625Q526
616 513 583T480 503T440 403T399 303T364 219T344 170ZM512 844L422 1038H547L545 844H512Z" />
<glyph unicode="&#xe1;" glyph-name="aacute" horiz-adv-x="701" d="M344 170Q340 161 337 151T334 134Q334 122 339 118T354 114Q368 114 388 128T430 169L613 395L638 375L417 102Q393 72 372 52T333 21T296 4T258 -1Q228 -1 208 16T188 61Q188 91 199 123T233
203Q241 220 252 247T277 305T303 367T326 423T342 466T349 486Q349 496 342 496Q333 496 323 481Q317 473 299 447T255 385T199 307T139 225T82 152T36 100Q-12 52 -49 25T-122 -3Q-134 -3 -148 2T-175 19T-196 54T-204 112Q-204 164 -181 227T-116 355T-19 484T102
597T240 682T386 723V705Q325 687 269 650T164 563T75 459T6 349T-38 247T-54 165Q-54 147 -49 135T-33 123Q-22 123 -1 141T49 189T110 259T177 342T244 429T307 512Q351 572 380 611T430 673T468 706T505 715Q526 715 534 704T542 677Q542 664 539 650T530 625Q526
616 513 583T480 503T440 403T399 303T364 219T344 170ZM429 844H380L524 1038H669L429 844Z" />
<glyph unicode="&#xe2;" glyph-name="acircumflex" horiz-adv-x="691" d="M344 170Q340 161 337 151T334 134Q334 122 339 118T354 114Q368 114 388 128T430 169L613 395L638 375L417 102Q393 72 372 52T333 21T296 4T258 -1Q228 -1 208 16T188 61Q188 91 199
123T233 203Q241 220 252 247T277 305T303 367T326 423T342 466T349 486Q349 496 342 496Q333 496 323 481Q317 473 299 447T255 385T199 307T139 225T82 152T36 100Q-12 52 -49 25T-122 -3Q-134 -3 -148 2T-175 19T-196 54T-204 112Q-204 164 -181 227T-116 355T-19
484T102 597T240 682T386 723V705Q325 687 269 650T164 563T75 459T6 349T-38 247T-54 165Q-54 147 -49 135T-33 123Q-22 123 -1 141T49 189T110 259T177 342T244 429T307 512Q351 572 380 611T430 673T468 706T505 715Q526 715 534 704T542 677Q542 664 539 650T530
625Q526 616 513 583T480 503T440 403T399 303T364 219T344 170ZM561 844L527 976L382 844H307L512 1036H603L662 844H561Z" />
<glyph unicode="&#xe3;" glyph-name="atilde" horiz-adv-x="701" d="M344 170Q340 161 337 151T334 134Q334 122 339 118T354 114Q368 114 388 128T430 169L613 395L638 375L417 102Q393 72 372 52T333 21T296 4T258 -1Q228 -1 208 16T188 61Q188 91 199 123T233
203Q241 220 252 247T277 305T303 367T326 423T342 466T349 486Q349 496 342 496Q333 496 323 481Q317 473 299 447T255 385T199 307T139 225T82 152T36 100Q-12 52 -49 25T-122 -3Q-134 -3 -148 2T-175 19T-196 54T-204 112Q-204 164 -181 227T-116 355T-19 484T102
597T240 682T386 723V705Q325 687 269 650T164 563T75 459T6 349T-38 247T-54 165Q-54 147 -49 135T-33 123Q-22 123 -1 141T49 189T110 259T177 342T244 429T307 512Q351 572 380 611T430 673T468 706T505 715Q526 715 534 704T542 677Q542 664 539 650T530 625Q526
616 513 583T480 503T440 403T399 303T364 219T344 170ZM732 1027Q693 939 657 900T574 860Q550 860 532 873T497 901T467 930T434 943Q423 943 414 940T394 927T374 901T350 860H297Q335 950 369 988T446 1027Q470 1027 487 1014T519 986T551 957T587 944Q597
944 607 947T629 959T653 984T679 1027H732V1027Z" />
<glyph unicode="&#xe4;" glyph-name="adieresis" horiz-adv-x="701" d="M344 170Q340 161 337 151T334 134Q334 122 339 118T354 114Q368 114 388 128T430 169L613 395L638 375L417 102Q393 72 372 52T333 21T296 4T258 -1Q228 -1 208 16T188 61Q188 91 199 123T233
203Q241 220 252 247T277 305T303 367T326 423T342 466T349 486Q349 496 342 496Q333 496 323 481Q317 473 299 447T255 385T199 307T139 225T82 152T36 100Q-12 52 -49 25T-122 -3Q-134 -3 -148 2T-175 19T-196 54T-204 112Q-204 164 -181 227T-116 355T-19 484T102
597T240 682T386 723V705Q325 687 269 650T164 563T75 459T6 349T-38 247T-54 165Q-54 147 -49 135T-33 123Q-22 123 -1 141T49 189T110 259T177 342T244 429T307 512Q351 572 380 611T430 673T468 706T505 715Q526 715 534 704T542 677Q542 664 539 650T530 625Q526
616 513 583T480 503T440 403T399 303T364 219T344 170ZM684 939Q684 910 663 889T612 867Q581 867 560 888T539 939Q539 970 560 991T612 1013Q641 1013 662 992T684 939ZM471 939Q471 910 450 889T397 867Q368 867 347 888T326 939Q326 970 347 991T397 1013Q428
1013 449 992T471 939Z" />
<glyph unicode="&#xe5;" glyph-name="aring" horiz-adv-x="701" d="M344 170Q340 161 337 151T334 134Q334 122 339 118T354 114Q368 114 388 128T430 169L613 395L638 375L417 102Q393 72 372 52T333 21T296 4T258 -1Q228 -1 208 16T188 61Q188 91 199 123T233
203Q241 220 252 247T277 305T303 367T326 423T342 466T349 486Q349 496 342 496Q333 496 323 481Q317 473 299 447T255 385T199 307T139 225T82 152T36 100Q-12 52 -49 25T-122 -3Q-134 -3 -148 2T-175 19T-196 54T-204 112Q-204 164 -181 227T-116 355T-19 484T102
597T240 682T386 723V705Q325 687 269 650T164 563T75 459T6 349T-38 247T-54 165Q-54 147 -49 135T-33 123Q-22 123 -1 141T49 189T110 259T177 342T244 429T307 512Q351 572 380 611T430 673T468 706T505 715Q526 715 534 704T542 677Q542 664 539 650T530 625Q526
616 513 583T480 503T440 403T399 303T364 219T344 170ZM567 1148Q621 1148 655 1118T690 1037Q690 990 669 951T616 884T546 840T471 824Q417 824 385 854T352 933Q352 976 371 1015T420 1083T489 1130T567 1148ZM564 1114Q532 1114 507 1095T463 1048T435 986T425
926Q425 892 438 875T476 858Q507 858 532 877T577 924T606 984T617 1044Q617 1077 603 1095T564 1114Z" />
<glyph unicode="&#xe6;" glyph-name="ae" horiz-adv-x="927" d="M391 40Q427 40 469 56T565 111T684 216T830 384L855 364Q786 276 728 215T622 113T536 50T467 16T414 3T375 0Q351 0 321 7T265 32T222 83T204 166Q204 232 223 294T275 413Q250 377 217 332T151
242T88 159T36 100Q-12 52 -49 25T-122 -3Q-134 -3 -148 2T-175 19T-196 54T-204 112Q-204 164 -181 227T-116 355T-19 484T102 597T240 682T386 723V705Q325 687 269 650T164 563T75 459T6 349T-38 247T-54 165Q-54 147 -49 135T-33 123Q-22 123 -1 141T49 189T110
259T177 342T244 429T307 512Q351 572 381 612T432 677T470 712T504 723Q524 723 531 714T539 690Q539 686 539 683T537 674Q575 695 610 707T674 719Q727 719 750 688T774 607Q774 562 754 520T701 441T625 372T534 318T438 282T347 269Q334 231 327 197T319 134Q319
80 340 60T391 40ZM641 678Q614 678 576 644T498 554T420 432T357 297Q428 309 486 345T586 430T650 533T673 632Q673 659 664 668T641 678Z" />
<glyph unicode="&#xe7;" glyph-name="ccedilla" horiz-adv-x="585" d="M513 364Q445 278 389 217T286 116T201 52T134 18T81 3T40 0L-23 -91Q-6 -81 18 -78T65 -74Q104 -74 129 -95T155 -148Q155 -177 138 -203T93 -250T26 -282T-54 -294Q-98 -294 -124 -284T-164
-265L-148 -241Q-139 -247 -117 -256T-60 -265Q-33 -265 -10 -258T30 -236T57 -203T67 -160Q67 -131 52 -118T16 -104Q-6 -104 -22 -112T-57 -137H-84L13 1Q-6 3 -34 11T-87 39T-131 93T-150 181Q-150 261 -121 332T-47 463T56 570T170 651T277 701T360 719Q378
719 396 714T428 696T452 665T461 619Q461 602 458 586Q454 566 433 546T385 509T329 482T281 471Q317 518 338 563T360 639Q360 657 352 668T325 680Q293 680 254 652T176 577T98 472T31 352T-16 233T-34 131Q-34 105 -28 88T-11 60T16 45T49 40Q85 40 127 56T223
111T342 216T488 384L513 364Z" />
<glyph unicode="&#xe8;" glyph-name="egrave" horiz-adv-x="573" d="M37 40Q73 40 115 56T211 111T330 216T476 384L501 364Q432 276 374 215T268 113T182 50T113 16T60 3T21 0Q-3 0 -33 7T-89 32T-132 83T-150 166Q-150 241 -126 311T-61 442T29 555T132 642T234
699T320 719Q373 719 396 688T420 607Q420 562 400 520T347 441T271 372T180 318T84 282T-7 269Q-20 231 -27 197T-35 134Q-35 80 -14 60T37 40ZM287 678Q260 678 222 644T144 554T66 432T3 297Q74 309 132 345T232 430T296 533T319 632Q319 659 310 668T287 678ZM385
844L295 1038H420L418 844H385Z" />
<glyph unicode="&#xe9;" glyph-name="eacute" horiz-adv-x="573" d="M37 40Q73 40 115 56T211 111T330 216T476 384L501 364Q432 276 374 215T268 113T182 50T113 16T60 3T21 0Q-3 0 -33 7T-89 32T-132 83T-150 166Q-150 241 -126 311T-61 442T29 555T132 642T234
699T320 719Q373 719 396 688T420 607Q420 562 400 520T347 441T271 372T180 318T84 282T-7 269Q-20 231 -27 197T-35 134Q-35 80 -14 60T37 40ZM287 678Q260 678 222 644T144 554T66 432T3 297Q74 309 132 345T232 430T296 533T319 632Q319 659 310 668T287 678ZM302
844H253L397 1038H542L302 844Z" />
<glyph unicode="&#xea;" glyph-name="ecircumflex" horiz-adv-x="573" d="M37 40Q73 40 115 56T211 111T330 216T476 384L501 364Q432 276 374 215T268 113T182 50T113 16T60 3T21 0Q-3 0 -33 7T-89 32T-132 83T-150 166Q-150 241 -126 311T-61 442T29 555T132
642T234 699T320 719Q373 719 396 688T420 607Q420 562 400 520T347 441T271 372T180 318T84 282T-7 269Q-20 231 -27 197T-35 134Q-35 80 -14 60T37 40ZM287 678Q260 678 222 644T144 554T66 432T3 297Q74 309 132 345T232 430T296 533T319 632Q319 659 310 668T287
678ZM434 844L400 976L255 844H180L385 1036H476L535 844H434Z" />
<glyph unicode="&#xeb;" glyph-name="edieresis" horiz-adv-x="573" d="M37 40Q73 40 115 56T211 111T330 216T476 384L501 364Q432 276 374 215T268 113T182 50T113 16T60 3T21 0Q-3 0 -33 7T-89 32T-132 83T-150 166Q-150 241 -126 311T-61 442T29 555T132 642T234
699T320 719Q373 719 396 688T420 607Q420 562 400 520T347 441T271 372T180 318T84 282T-7 269Q-20 231 -27 197T-35 134Q-35 80 -14 60T37 40ZM287 678Q260 678 222 644T144 554T66 432T3 297Q74 309 132 345T232 430T296 533T319 632Q319 659 310 668T287 678ZM557
939Q557 910 536 889T485 867Q454 867 433 888T412 939Q412 970 433 991T485 1013Q514 1013 535 992T557 939ZM344 939Q344 910 323 889T270 867Q241 867 220 888T199 939Q199 970 220 991T270 1013Q301 1013 322 992T344 939Z" />
<glyph unicode="&#xec;" glyph-name="igrave" horiz-adv-x="441" d="M133 573Q136 580 136 584Q136 590 133 592T124 595Q114 595 106 584L-92 339L-117 359L108 637Q134 669 162 693T222 718Q251 718 264 703T277 668Q277 649 270 625T252 575L84 170Q80 160
77 151T74 134Q74 122 79 118T94 114Q108 114 128 128T170 169L353 395L378 375L157 102Q133 72 112 52T73 21T36 4T-2 -1Q-32 -1 -52 16T-72 61Q-72 86 -60 120T-27 203L133 573V573ZM524 844L434 1038H559L557 844H524Z" />
<glyph unicode="&#xed;" glyph-name="iacute" horiz-adv-x="441" d="M133 573Q136 580 136 584Q136 590 133 592T124 595Q114 595 106 584L-92 339L-117 359L108 637Q134 669 162 693T222 718Q251 718 264 703T277 668Q277 649 270 625T252 575L84 170Q80 160
77 151T74 134Q74 122 79 118T94 114Q108 114 128 128T170 169L353 395L378 375L157 102Q133 72 112 52T73 21T36 4T-2 -1Q-32 -1 -52 16T-72 61Q-72 86 -60 120T-27 203L133 573V573ZM441 844H392L536 1038H681L441 844Z" />
<glyph unicode="&#xee;" glyph-name="icircumflex" horiz-adv-x="441" d="M133 573Q136 580 136 584Q136 590 133 592T124 595Q114 595 106 584L-92 339L-117 359L108 637Q134 669 162 693T222 718Q251 718 264 703T277 668Q277 649 270 625T252 575L84 170Q80
160 77 151T74 134Q74 122 79 118T94 114Q108 114 128 128T170 169L353 395L378 375L157 102Q133 72 112 52T73 21T36 4T-2 -1Q-32 -1 -52 16T-72 61Q-72 86 -60 120T-27 203L133 573V573ZM573 844L539 976L394 844H319L524 1036H615L674 844H573Z" />
<glyph unicode="&#xef;" glyph-name="idieresis" horiz-adv-x="441" d="M133 573Q136 580 136 584Q136 590 133 592T124 595Q114 595 106 584L-92 339L-117 359L108 637Q134 669 162 693T222 718Q251 718 264 703T277 668Q277 649 270 625T252 575L84 170Q80 160
77 151T74 134Q74 122 79 118T94 114Q108 114 128 128T170 169L353 395L378 375L157 102Q133 72 112 52T73 21T36 4T-2 -1Q-32 -1 -52 16T-72 61Q-72 86 -60 120T-27 203L133 573V573ZM696 939Q696 910 675 889T624 867Q593 867 572 888T551 939Q551 970 572 991T624
1013Q653 1013 674 992T696 939ZM483 939Q483 910 462 889T409 867Q380 867 359 888T338 939Q338 970 359 991T409 1013Q440 1013 461 992T483 939Z" />
<glyph unicode="&#xf0;" glyph-name="eth" horiz-adv-x="608" d="M333 1058Q363 1014 391 964T440 855T473 728T486 578Q486 512 470 443T425 310T356 188T269 89T167 22T55 -3Q18 -3 -17 9T-79 47T-123 111T-140 202Q-140 263 -122 323T-72 440T6 544T104 627T218
683T341 703Q352 703 363 702T385 698Q378 796 352 876T288 1027L102 901L76 939L264 1067Q241 1103 216 1137T165 1203L199 1226Q223 1197 250 1165T306 1095L483 1216L508 1177L333 1058ZM388 631Q388 639 388 647T387 663Q379 665 371 666T352 667Q291 667 239
639T145 564T70 460T15 342T-18 228T-30 134Q-30 115 -27 98T-16 67T3 45T32 37Q62 37 100 62T178 131T255 232T322 357T370 493T388 631Z" />
<glyph unicode="&#xf1;" glyph-name="ntilde" horiz-adv-x="787" d="M133 573Q136 580 136 584Q136 590 133 592T124 595Q114 595 106 584L-92 339L-117 359L108 637Q134 669 162 693T222 718Q251 718 264 703T277 668Q277 649 270 625T252 575L113 248Q107 234
107 226Q107 216 115 216Q126 216 139 236L348 547Q380 595 405 628T453 683T496 713T539 723Q577 723 597 708T617 664Q617 647 612 629T602 596L428 170Q424 160 421 151T418 134Q418 122 423 118T438 114Q452 114 472 128T514 169L697 395L722 375L501 102Q477
72 456 52T417 21T380 4T342 -1Q312 -1 292 16T272 61Q272 86 284 120T317 203L479 586Q482 593 482 601Q482 621 463 621Q455 621 446 616T426 596L96 106Q57 48 28 24T-30 -1Q-76 -1 -76 43Q-76 66 -65 100T-33 182L133 573V573ZM661 1027Q622 939 586 900T503
860Q479 860 461 873T426 901T396 930T363 943Q352 943 343 940T323 927T303 901T279 860H226Q264 950 298 988T375 1027Q399 1027 416 1014T448 986T480 957T516 944Q526 944 536 947T558 959T582 984T608 1027H661V1027Z" />
<glyph unicode="&#xf2;" glyph-name="ograve" horiz-adv-x="668" d="M594 362Q562 321 534 293T479 247T427 220T375 208Q345 164 309 126T232 59T146 14T55 -3Q18 -3 -17 9T-79 47T-123 111T-140 202Q-140 283 -111 362T-30 511T95 635T256 723L265 709Q188 642
133 566T41 414T-12 265T-30 134Q-30 115 -26 98T-14 67T7 45T36 37Q58 37 84 52T139 92T195 153T251 228Q203 254 182 302T161 408Q161 461 180 511T229 601T295 663T365 687Q383 687 404 679T443 652T473 601T485 521Q485 457 462 386T399 245Q417 249 435 258T474
283T518 323T570 383L594 362ZM198 411Q198 357 215 317T270 257Q297 300 320 346T360 436T387 521T397 594Q397 610 392 620T380 635T364 643T349 645Q330 645 304 626T255 574T215 499T198 411ZM373 844L283 1038H408L406 844H373Z" />
<glyph unicode="&#xf3;" glyph-name="oacute" horiz-adv-x="668" d="M594 362Q562 321 534 293T479 247T427 220T375 208Q345 164 309 126T232 59T146 14T55 -3Q18 -3 -17 9T-79 47T-123 111T-140 202Q-140 283 -111 362T-30 511T95 635T256 723L265 709Q188 642
133 566T41 414T-12 265T-30 134Q-30 115 -26 98T-14 67T7 45T36 37Q58 37 84 52T139 92T195 153T251 228Q203 254 182 302T161 408Q161 461 180 511T229 601T295 663T365 687Q383 687 404 679T443 652T473 601T485 521Q485 457 462 386T399 245Q417 249 435 258T474
283T518 323T570 383L594 362ZM198 411Q198 357 215 317T270 257Q297 300 320 346T360 436T387 521T397 594Q397 610 392 620T380 635T364 643T349 645Q330 645 304 626T255 574T215 499T198 411ZM290 844H241L385 1038H530L290 844Z" />
<glyph unicode="&#xf4;" glyph-name="ocircumflex" horiz-adv-x="668" d="M594 362Q562 321 534 293T479 247T427 220T375 208Q345 164 309 126T232 59T146 14T55 -3Q18 -3 -17 9T-79 47T-123 111T-140 202Q-140 283 -111 362T-30 511T95 635T256 723L265 709Q188
642 133 566T41 414T-12 265T-30 134Q-30 115 -26 98T-14 67T7 45T36 37Q58 37 84 52T139 92T195 153T251 228Q203 254 182 302T161 408Q161 461 180 511T229 601T295 663T365 687Q383 687 404 679T443 652T473 601T485 521Q485 457 462 386T399 245Q417 249 435
258T474 283T518 323T570 383L594 362ZM198 411Q198 357 215 317T270 257Q297 300 320 346T360 436T387 521T397 594Q397 610 392 620T380 635T364 643T349 645Q330 645 304 626T255 574T215 499T198 411ZM422 844L388 976L243 844H168L373 1036H464L523 844H422Z"
/>
<glyph unicode="&#xf5;" glyph-name="otilde" horiz-adv-x="668" d="M594 362Q562 321 534 293T479 247T427 220T375 208Q345 164 309 126T232 59T146 14T55 -3Q18 -3 -17 9T-79 47T-123 111T-140 202Q-140 283 -111 362T-30 511T95 635T256 723L265 709Q188 642
133 566T41 414T-12 265T-30 134Q-30 115 -26 98T-14 67T7 45T36 37Q58 37 84 52T139 92T195 153T251 228Q203 254 182 302T161 408Q161 461 180 511T229 601T295 663T365 687Q383 687 404 679T443 652T473 601T485 521Q485 457 462 386T399 245Q417 249 435 258T474
283T518 323T570 383L594 362ZM198 411Q198 357 215 317T270 257Q297 300 320 346T360 436T387 521T397 594Q397 610 392 620T380 635T364 643T349 645Q330 645 304 626T255 574T215 499T198 411ZM593 1027Q554 939 518 900T435 860Q411 860 393 873T358 901T328
930T295 943Q284 943 275 940T255 927T235 901T211 860H158Q196 950 230 988T307 1027Q331 1027 348 1014T380 986T412 957T448 944Q458 944 468 947T490 959T514 984T540 1027H593V1027Z" />
<glyph unicode="&#xf6;" glyph-name="odieresis" horiz-adv-x="668" d="M594 362Q562 321 534 293T479 247T427 220T375 208Q345 164 309 126T232 59T146 14T55 -3Q18 -3 -17 9T-79 47T-123 111T-140 202Q-140 283 -111 362T-30 511T95 635T256 723L265 709Q188
642 133 566T41 414T-12 265T-30 134Q-30 115 -26 98T-14 67T7 45T36 37Q58 37 84 52T139 92T195 153T251 228Q203 254 182 302T161 408Q161 461 180 511T229 601T295 663T365 687Q383 687 404 679T443 652T473 601T485 521Q485 457 462 386T399 245Q417 249 435
258T474 283T518 323T570 383L594 362ZM198 411Q198 357 215 317T270 257Q297 300 320 346T360 436T387 521T397 594Q397 610 392 620T380 635T364 643T349 645Q330 645 304 626T255 574T215 499T198 411ZM545 939Q545 910 524 889T473 867Q442 867 421 888T400
939Q400 970 421 991T473 1013Q502 1013 523 992T545 939ZM332 939Q332 910 311 889T258 867Q229 867 208 888T187 939Q187 970 208 991T258 1013Q289 1013 310 992T332 939Z" />
<glyph unicode="&#xf7;" glyph-name="divide" horiz-adv-x="800" d="M467 763Q467 732 446 711T394 690Q365 690 344 711T322 763Q322 792 343 813T394 835Q425 835 446 814T467 763ZM339 408Q339 377 318 356T265 334Q236 334 215 355T193 408Q193 437 214 458T265
480Q296 480 317 459T339 408ZM7 547L38 623H663L632 547H7Z" />
<glyph unicode="&#xf8;" glyph-name="oslash" horiz-adv-x="668" d="M440 655Q460 636 472 604T485 521Q485 457 462 386T399 245Q417 249 435 258T474 283T518 323T570 383L594 362Q562 321 534 293T479 247T427 220T375 208Q345 164 309 126T232 59T146 14T55
-3Q23 -3 -6 6T-62 33L-209 -148L-243 -124L-93 61Q-115 87 -127 122T-140 202Q-140 283 -111 362T-30 511T95 635T256 723L265 709Q189 643 134 568T42 417T-11 270T-30 139L162 377Q161 385 161 392T161 408Q161 461 180 511T229 601T295 663T365 687Q385 687
406 678L552 859L584 833L440 655ZM36 37Q58 37 84 52T139 92T195 153T251 228Q222 244 203 269T173 325L-21 83Q-13 63 0 50T36 37ZM202 361Q209 326 225 299T270 257Q297 300 320 346T360 436T387 521T397 594V601L202 361ZM349 645Q330 645 305 627T257 577T217
506T198 421L374 639Q360 645 349 645Z" />
<glyph unicode="&#xf9;" glyph-name="ugrave" horiz-adv-x="799" d="M102 219Q91 195 84 170T77 127Q77 104 89 99T115 93Q130 93 150 114T193 171T243 252T297 346T351 443T404 533Q439 589 462 625T506 684T545 714T593 723Q614 723 627 712T640 685Q640 672
637 658T628 633Q624 624 611 590T578 509T537 407T496 305T461 219T440 170Q436 161 433 151T430 134Q430 122 435 118T450 114Q464 114 484 128T526 169L709 395L734 375L513 102Q489 72 468 52T429 21T392 4T354 -1Q324 -1 304 16T284 61Q284 91 295 123T329
203Q337 220 348 247T373 305T399 367T422 423T438 466T445 486Q445 496 438 496Q429 496 419 481Q356 385 309 298T219 144T133 38T34 -1Q1 -1 -22 23T-46 93Q-46 111 -43 130T-34 165T-25 195T-17 214L133 573Q136 580 136 584Q136 590 133 592T124 595Q114 595
106 584L-92 339L-117 359L108 637Q134 669 162 693T222 718Q251 718 264 703T277 668Q277 649 270 625T252 575L102 219ZM451 844L361 1038H486L484 844H451Z" />
<glyph unicode="&#xfa;" glyph-name="uacute" horiz-adv-x="799" d="M102 219Q91 195 84 170T77 127Q77 104 89 99T115 93Q130 93 150 114T193 171T243 252T297 346T351 443T404 533Q439 589 462 625T506 684T545 714T593 723Q614 723 627 712T640 685Q640 672
637 658T628 633Q624 624 611 590T578 509T537 407T496 305T461 219T440 170Q436 161 433 151T430 134Q430 122 435 118T450 114Q464 114 484 128T526 169L709 395L734 375L513 102Q489 72 468 52T429 21T392 4T354 -1Q324 -1 304 16T284 61Q284 91 295 123T329
203Q337 220 348 247T373 305T399 367T422 423T438 466T445 486Q445 496 438 496Q429 496 419 481Q356 385 309 298T219 144T133 38T34 -1Q1 -1 -22 23T-46 93Q-46 111 -43 130T-34 165T-25 195T-17 214L133 573Q136 580 136 584Q136 590 133 592T124 595Q114 595
106 584L-92 339L-117 359L108 637Q134 669 162 693T222 718Q251 718 264 703T277 668Q277 649 270 625T252 575L102 219ZM368 844H319L463 1038H608L368 844Z" />
<glyph unicode="&#xfb;" glyph-name="ucircumflex" horiz-adv-x="799" d="M102 219Q91 195 84 170T77 127Q77 104 89 99T115 93Q130 93 150 114T193 171T243 252T297 346T351 443T404 533Q439 589 462 625T506 684T545 714T593 723Q614 723 627 712T640 685Q640
672 637 658T628 633Q624 624 611 590T578 509T537 407T496 305T461 219T440 170Q436 161 433 151T430 134Q430 122 435 118T450 114Q464 114 484 128T526 169L709 395L734 375L513 102Q489 72 468 52T429 21T392 4T354 -1Q324 -1 304 16T284 61Q284 91 295 123T329
203Q337 220 348 247T373 305T399 367T422 423T438 466T445 486Q445 496 438 496Q429 496 419 481Q356 385 309 298T219 144T133 38T34 -1Q1 -1 -22 23T-46 93Q-46 111 -43 130T-34 165T-25 195T-17 214L133 573Q136 580 136 584Q136 590 133 592T124 595Q114 595
106 584L-92 339L-117 359L108 637Q134 669 162 693T222 718Q251 718 264 703T277 668Q277 649 270 625T252 575L102 219ZM500 844L466 976L321 844H246L451 1036H542L601 844H500Z" />
<glyph unicode="&#xfc;" glyph-name="udieresis" horiz-adv-x="799" d="M102 219Q91 195 84 170T77 127Q77 104 89 99T115 93Q130 93 150 114T193 171T243 252T297 346T351 443T404 533Q439 589 462 625T506 684T545 714T593 723Q614 723 627 712T640 685Q640
672 637 658T628 633Q624 624 611 590T578 509T537 407T496 305T461 219T440 170Q436 161 433 151T430 134Q430 122 435 118T450 114Q464 114 484 128T526 169L709 395L734 375L513 102Q489 72 468 52T429 21T392 4T354 -1Q324 -1 304 16T284 61Q284 91 295 123T329
203Q337 220 348 247T373 305T399 367T422 423T438 466T445 486Q445 496 438 496Q429 496 419 481Q356 385 309 298T219 144T133 38T34 -1Q1 -1 -22 23T-46 93Q-46 111 -43 130T-34 165T-25 195T-17 214L133 573Q136 580 136 584Q136 590 133 592T124 595Q114 595
106 584L-92 339L-117 359L108 637Q134 669 162 693T222 718Q251 718 264 703T277 668Q277 649 270 625T252 575L102 219ZM623 939Q623 910 602 889T551 867Q520 867 499 888T478 939Q478 970 499 991T551 1013Q580 1013 601 992T623 939ZM410 939Q410 910 389
889T336 867Q307 867 286 888T265 939Q265 970 286 991T336 1013Q367 1013 388 992T410 939Z" />
<glyph unicode="&#xfd;" glyph-name="yacute" horiz-adv-x="790" d="M721 365Q671 303 626 252T536 157T445 72T350 -10L148 -477L-3 -518Q116 -253 212 -39Q253 52 292 140T364 300T418 420T443 477Q445 482 445 489T438 496Q429 496 419 481Q356 385 309 298T219
144T133 38T34 -1Q1 -1 -22 23T-46 93Q-46 111 -43 130T-34 165T-25 195T-17 214L133 573Q136 580 136 584Q136 590 133 592T124 595Q114 595 106 584L-92 339L-117 359L108 637Q134 669 162 693T222 718Q251 718 264 703T277 668Q277 649 270 625T252 575L102
219Q91 195 84 170T77 127Q77 104 89 99T115 93Q130 93 150 114T193 171T243 252T297 346T351 443T404 533Q439 589 462 625T506 684T545 714T593 723Q614 723 627 712T640 685Q640 672 637 658T628 633L380 60Q448 117 526 195T696 385L721 365ZM367 844H318L462
1038H607L367 844Z" />
<glyph unicode="&#xfe;" glyph-name="thorn" horiz-adv-x="798" d="M732 371Q637 253 542 184T359 76T192 23T54 0V18Q121 42 179 82T286 170T372 271T436 375T475 472T489 551Q489 571 483 584T466 598Q451 598 425 575T363 513T288 421T206 311T124 193T48 77T-14
-27T-57 -108Q-76 -149 -96 -196T-137 -292T-177 -387T-213 -474L-354 -518Q-339 -484 -322 -445T-288 -364T-253 -282T-219 -202Q-182 -113 -144 -24L136 643Q121 619 101 590T52 523T-13 438T-100 329L-125 349Q-31 466 27 542T121 672T178 765T222 847L378 1219H500L102
272Q98 263 98 255Q98 245 105 245Q112 245 123 259Q128 266 145 290T187 349T241 422T298 498T353 567T398 618Q446 666 483 695T558 724Q570 724 584 719T611 700T632 663T641 605Q641 537 609 462T523 314T400 179T255 72Q289 82 341 104T453 163T579 256T707
391L732 371Z" />
<glyph unicode="&#xff;" glyph-name="ydieresis" horiz-adv-x="790" d="M721 365Q671 303 626 252T536 157T445 72T350 -10L148 -477L-3 -518Q116 -253 212 -39Q253 52 292 140T364 300T418 420T443 477Q445 482 445 489T438 496Q429 496 419 481Q356 385 309
298T219 144T133 38T34 -1Q1 -1 -22 23T-46 93Q-46 111 -43 130T-34 165T-25 195T-17 214L133 573Q136 580 136 584Q136 590 133 592T124 595Q114 595 106 584L-92 339L-117 359L108 637Q134 669 162 693T222 718Q251 718 264 703T277 668Q277 649 270 625T252
575L102 219Q91 195 84 170T77 127Q77 104 89 99T115 93Q130 93 150 114T193 171T243 252T297 346T351 443T404 533Q439 589 462 625T506 684T545 714T593 723Q614 723 627 712T640 685Q640 672 637 658T628 633L380 60Q448 117 526 195T696 385L721 365ZM622 939Q622
910 601 889T550 867Q519 867 498 888T477 939Q477 970 498 991T550 1013Q579 1013 600 992T622 939ZM409 939Q409 910 388 889T335 867Q306 867 285 888T264 939Q264 970 285 991T335 1013Q366 1013 387 992T409 939Z" />
<glyph unicode="&#x2013;" glyph-name="endash" horiz-adv-x="1024" d="M25 427L62 513H855L816 427H25Z" />
<glyph unicode="&#x2014;" glyph-name="emdash" horiz-adv-x="2048" d="M-117 427L-80 513H2007L1968 427H-117Z" />
<glyph unicode="&#x2018;" glyph-name="quoteleft" horiz-adv-x="220" d="M330 1295Q315 1286 300 1275T273 1252T251 1227T238 1202Q265 1196 281 1176T298 1132Q298 1101 277 1080T227 1058Q195 1058 174 1079T152 1133Q152 1160 166 1187T204 1241T255 1289T312
1326L330 1295Z" />
<glyph unicode="&#x2019;" glyph-name="quoteright" horiz-adv-x="220" d="M152 1089Q167 1098 181 1109T209 1132T231 1157T244 1182Q217 1188 201 1208T184 1252Q184 1283 205 1304T255 1326Q287 1326 308 1305T330 1251Q330 1224 316 1197T278 1143T227 1095T170
1058L152 1089Z" />
<glyph unicode="&#x201a;" glyph-name="quotesinglbase" horiz-adv-x="220" d="M-132 -102Q-117 -93 -103 -82T-75 -59T-53 -34T-40 -9Q-67 -3 -83 17T-100 61Q-100 92 -79 113T-29 135Q3 135 24 114T46 60Q46 33 32 6T-6 -48T-57 -96T-114 -133L-132 -102Z" />
<glyph unicode="&#x201c;" glyph-name="quotedblleft" horiz-adv-x="410" d="M330 1295Q315 1286 300 1275T273 1252T251 1227T238 1202Q265 1196 281 1176T298 1132Q298 1101 277 1080T227 1058Q195 1058 174 1079T152 1133Q152 1160 166 1187T204 1241T255 1289T312
1326L330 1295ZM520 1295Q505 1286 490 1275T463 1252T441 1227T428 1202Q455 1196 471 1176T488 1132Q488 1101 467 1080T417 1058Q385 1058 364 1079T342 1133Q342 1160 356 1187T394 1241T445 1289T502 1326L520 1295Z" />
<glyph unicode="&#x201d;" glyph-name="quotedblright" horiz-adv-x="410" d="M342 1089Q357 1098 371 1109T399 1132T421 1157T434 1182Q407 1188 391 1208T374 1252Q374 1283 395 1304T445 1326Q477 1326 498 1305T520 1251Q520 1224 506 1197T468 1143T417
1095T360 1058L342 1089ZM152 1089Q167 1098 181 1109T209 1132T231 1157T244 1182Q217 1188 201 1208T184 1252Q184 1283 205 1304T255 1326Q287 1326 308 1305T330 1251Q330 1224 316 1197T278 1143T227 1095T170 1058L152 1089Z" />
<glyph unicode="&#x201e;" glyph-name="quotedblbase" horiz-adv-x="410" d="M58 -102Q73 -93 87 -82T115 -59T137 -34T150 -9Q123 -3 107 17T90 61Q90 92 111 113T161 135Q193 135 214 114T236 60Q236 33 222 6T184 -48T133 -96T76 -133L58 -102ZM-132 -102Q-117
-93 -103 -82T-75 -59T-53 -34T-40 -9Q-67 -3 -83 17T-100 61Q-100 92 -79 113T-29 135Q3 135 24 114T46 60Q46 33 32 6T-6 -48T-57 -96T-114 -133L-132 -102Z" />
<glyph unicode="&#x2022;" glyph-name="bullet" horiz-adv-x="450" d="M322 691Q322 667 313 647T289 611T254 587T210 578Q187 578 167 586T131 610T108 646T99 691Q99 713 107 733T131 768T166 792T210 801Q233 801 253 792T289 768T313 733T322 691Z" />
<glyph unicode="&#x2039;" glyph-name="guilsinglleft" horiz-adv-x="450" d="M-10 371L324 598L279 496L92 371L170 246L125 143L-10 371Z" />
<glyph unicode="&#x203a;" glyph-name="guilsinglright" horiz-adv-x="450" d="M274 371L-60 143L-15 246L171 371L94 496L139 598L274 371Z" />
</font>
</defs>
</svg>
