<?xml version="1.0" standalone="no"?>
<!DOCTYPE svg PUBLIC "-//W3C//DTD SVG 1.1//EN" "http://www.w3.org/Graphics/SVG/1.1/DTD/svg11.dtd">
<svg xmlns="http://www.w3.org/2000/svg">
<defs >
<font id="Biryani" horiz-adv-x="545" ><font-face
    font-family="Biryani ExtraLight"
    units-per-em="1000"
    panose-1="0 0 3 0 0 0 0 0 0 0"
    ascent="1109"
    descent="-656"
    alphabetic="0" />
<glyph unicode=" " glyph-name="space" horiz-adv-x="220" />
<glyph unicode="!" glyph-name="exclam" horiz-adv-x="284" d="M106 758H178L166 230H118L106 758ZM110 151H174V0H110V151Z" />
<glyph unicode="&quot;" glyph-name="quotedbl" horiz-adv-x="444" d="M114 758H170V456H114V758ZM274 758H330V456H274V758Z" />
<glyph unicode="#" glyph-name="numbersign" horiz-adv-x="703" d="M516 437L491 237H612V183H484L460 0H404L428 183H235L211 0H155L179 183H60V237H186L211 437H90V491H218L242 674H298L274 491H467L491 674H547L523 491H642V437H516ZM460 437H267L242 237H435L460
437Z" />
<glyph unicode="$" glyph-name="dollar" horiz-adv-x="600" d="M499 87T448 39T305 -16V-96H249V-16Q199 -14 155 -2T59 36V92Q154 42 249 36V313L239 316Q162 337 117 377T72 500Q72 585 118 633T249 687V758H305V687Q348 684 382 674T463 641V585Q422 607 385
619T305 635V358L329 351Q410 329 455 289T500 166Q499 87 448 39ZM131 445T161 418T249 373V635Q189 628 160 592T130 499Q131 445 161 418ZM442 223T406 251T307 297L305 298V36Q376 42 409 77T442 169Q442 223 406 251Z" />
<glyph unicode="%" glyph-name="percent" horiz-adv-x="1013" d="M696 773H754L337 -33H279L696 773ZM185 304T142 329T73 398T47 494Q47 546 72 589T141 657T237 683Q289 683 332 658T400 589T426 494Q426 442 401 399T332 330T237 304Q185 304 142 329ZM294
356T331 396T368 494Q368 552 332 591T237 631Q179 631 142 592T105 494Q105 436 142 396T237 356Q294 356 331 396ZM725 -17T682 8T613 77T587 173Q587 225 612 268T681 336T777 362Q829 362 872 337T940 268T966 173Q966 121 941 78T872 9T777 -17Q725 -17 682
8ZM834 35T871 75T908 173Q908 231 872 270T777 310Q719 310 682 271T645 173Q645 115 682 75T777 35Q834 35 871 75Z" />
<glyph unicode="&amp;" glyph-name="ampersand" horiz-adv-x="814" d="M784 54V0H756Q662 0 543 95Q493 42 433 13T306 -17Q229 -17 175 13T94 95T67 208Q67 263 90 303T145 371T234 436Q193 490 174 529T154 618Q154 689 200 734T319 779Q390 779 433 738T476
630Q476 542 353 458L304 425Q347 368 411 297T539 169Q584 233 608 317T634 498H692Q692 397 662 303T578 136Q681 54 757 54H784ZM267 727T240 698T212 618Q212 577 227 541T274 463L331 502Q375 532 396 563T418 631Q418 675 393 701T319 727Q267 727 240 698ZM363
35T414 59T506 128Q400 228 262 396Q217 366 189 342T143 284T125 208Q125 162 146 123T207 59T306 35Q363 35 414 59Z" />
<glyph unicode="&apos;" glyph-name="quotesingle" horiz-adv-x="284" d="M114 758H170V456H114V758Z" />
<glyph unicode="(" glyph-name="parenleft" horiz-adv-x="326" d="M189 -80T154 -24T87 131T56 359Q56 488 87 586T153 741T230 847L266 820Q226 766 197 716T141 573T114 359Q114 237 140 145T196 3T266 -102L230 -129Q189 -80 154 -24Z" />
<glyph unicode=")" glyph-name="parenright" horiz-adv-x="326" d="M60 -102Q100 -48 129 2T185 145T212 359Q212 481 186 573T130 715T60 820L96 847Q137 798 172 742T239 587T270 359Q270 230 239 132T173 -23T96 -129L60 -102Z" />
<glyph unicode="*" glyph-name="asterisk" horiz-adv-x="618" d="M345 623L538 523L511 476L327 591L336 375H282L291 591L107 476L80 523L273 623L80 724L107 771L291 655L282 872H336L327 655L511 771L538 724L345 623Z" />
<glyph unicode="+" glyph-name="plus" horiz-adv-x="550" d="M483 310H303V129L247 128V310H67V364H247V544L303 545V364H483V310Z" />
<glyph unicode="," glyph-name="comma" horiz-adv-x="284" d="M137 151H197L131 -151H77L137 151Z" />
<glyph unicode="-" glyph-name="hyphen" horiz-adv-x="454" d="M80 324H374V268H80V324Z" />
<glyph unicode="." glyph-name="period" horiz-adv-x="284" d="M110 151H174V0H110V151Z" />
<glyph unicode="/" glyph-name="slash" horiz-adv-x="397" d="M326 931H382L71 -177H15L326 931Z" />
<glyph unicode="0" glyph-name="zero" horiz-adv-x="550" d="M170 -17T119 71T67 336Q67 509 118 598T275 688Q376 688 429 598T483 336Q483 161 430 72T275 -17Q170 -17 119 71ZM347 35T386 112T425 341Q425 485 385 560T275 636Q125 636 125 336Q125 184 162
110T275 35Q347 35 386 112Z" />
<glyph unicode="1" glyph-name="one" horiz-adv-x="550" d="M429 54V0H121V54H247V620H141V674H303V54H429Z" />
<glyph unicode="2" glyph-name="two" horiz-adv-x="550" d="M62 54Q207 189 271 254T370 377T405 493Q405 562 366 599T261 636Q169 636 87 595V651Q172 688 261 688Q350 688 406 638T463 494Q463 432 432 374T353 264T221 133Q181 96 139 54H493V0H62V54Z" />
<glyph unicode="3" glyph-name="three" horiz-adv-x="550" d="M411 339T442 294T473 185Q473 92 416 38T260 -17Q170 -17 87 18V74Q124 55 169 45T260 35Q335 35 375 74T415 187Q415 258 368 295T231 332H167V384H231Q316 384 360 417T405 514Q405 571 367 603T260
636Q219 636 176 628T97 601V657Q172 688 260 688Q354 688 408 641T463 514Q463 459 435 421T351 359Q411 339 442 294Z" />
<glyph unicode="4" glyph-name="four" horiz-adv-x="550" d="M533 160H410V-17H354V160H30V214L354 683H410V214H533V160ZM354 214V586L92 214H354Z" />
<glyph unicode="5" glyph-name="five" horiz-adv-x="550" d="M353 429T415 370T478 211Q478 102 415 43T240 -17Q155 -17 82 12V67Q157 35 240 35Q420 35 420 211Q420 291 373 334T240 377Q169 377 93 347L100 674H439V620H155L150 419Q195 429 240 429Q353 429 415 370Z" />
<glyph unicode="6" glyph-name="six" horiz-adv-x="550" d="M343 418T390 391T464 315T491 200Q491 135 464 86T390 10T285 -17Q182 -17 125 51T67 241Q67 374 143 487T356 686L387 645Q302 590 240 522T148 373Q207 418 280 418Q343 418 390 391ZM350 35T391
79T433 200Q433 277 390 321T280 366Q234 366 195 348T129 300Q125 275 125 241Q126 136 168 86T285 35Q350 35 391 79Z" />
<glyph unicode="7" glyph-name="seven" horiz-adv-x="550" d="M505 674V620L244 -17H182L450 620H83V674H505Z" />
<glyph unicode="8" glyph-name="eight" horiz-adv-x="550" d="M428 328T459 283T490 177Q490 119 462 75T384 7T275 -17Q215 -17 166 7T89 75T60 177Q60 237 91 282T175 351Q132 375 107 416T82 507Q82 558 108 599T178 664T275 688Q328 688 372 665T442 600T468
507Q468 457 443 416T375 351Q428 328 459 283ZM219 636T180 600T140 507Q140 450 179 414T275 378Q332 378 371 414T410 507Q410 563 371 599T275 636Q219 636 180 600ZM342 35T387 73T432 177Q432 241 387 280T275 319Q208 319 163 280T118 177Q118 112 163 74T275
35Q342 35 387 73Z" />
<glyph unicode="9" glyph-name="nine" horiz-adv-x="550" d="M367 688T424 620T482 430Q482 297 406 184T193 -15L162 26Q247 81 309 149T401 298Q342 253 269 253Q206 253 159 280T85 356T58 471Q58 536 85 585T159 661T264 688Q367 688 424 620ZM315 305T354
323T420 371Q424 396 424 430Q423 535 381 585T264 636Q199 636 158 592T116 471Q116 394 159 350T269 305Q315 305 354 323Z" />
<glyph unicode=":" glyph-name="colon" horiz-adv-x="284" d="M110 151H174V0H110V151ZM110 546H174V395H110V546Z" />
<glyph unicode=";" glyph-name="semicolon" horiz-adv-x="284" d="M137 151H197L131 -151H77L137 151ZM110 546H174V395H110V546Z" />
<glyph unicode="&lt;" glyph-name="less" horiz-adv-x="550" d="M132 337L465 141L437 97L67 316V358L438 578L465 533L132 337Z" />
<glyph unicode="=" glyph-name="equal" horiz-adv-x="550" d="M67 464H483V410H67V464ZM67 264H483V210H67V264Z" />
<glyph unicode="&gt;" glyph-name="greater" horiz-adv-x="550" d="M418 337L85 141L113 97L483 316V358L112 578L85 533L418 337Z" />
<glyph unicode="?" glyph-name="question" horiz-adv-x="550" d="M226 267Q226 310 238 339T268 388T321 439L348 463Q379 491 392 516T405 577Q405 646 366 683T261 720Q169 720 87 679V735Q172 772 261 772Q350 772 406 722T463 578Q463 527 445 492T390 426L363
402Q329 372 314 356T291 318T282 267V230H226V267ZM222 151H286V0H222V151Z" />
<glyph unicode="@" glyph-name="at" horiz-adv-x="986" d="M625 157Q617 128 617 112Q617 88 634 77T690 66Q745 66 784 104T843 204T863 337Q863 497 773 583T522 670Q416 670 325 614T178 457T123 228Q123 112 163 25T284 -111T486 -160Q555 -160 617 -142T748
-87L768 -137Q694 -174 629 -193T486 -212Q363 -212 268 -161T120 -10T67 228Q67 372 129 484T295 659T522 722Q643 722 733 675T871 541T919 337Q919 243 890 170T809 55T690 14Q572 14 564 97Q503 27 433 27Q364 27 325 67T285 187Q286 275 319 348T407 464T528
506Q616 506 650 430L668 490H723L625 157ZM636 382Q594 452 528 452Q475 452 433 413T367 313T341 187Q341 129 363 105T433 81Q473 81 509 106T577 177L636 382Z" />
<glyph unicode="A" glyph-name="A" horiz-adv-x="689" d="M506 254H183L85 0H25L320 767H368L664 0H604L506 254ZM485 308L344 674L203 308H485Z" />
<glyph unicode="B" glyph-name="B" horiz-adv-x="690" d="M612 340T612 202Q612 100 553 50T355 0H120V758H355Q480 758 531 709T582 555Q582 433 477 385Q612 340 612 202ZM176 406H355Q440 406 482 443T524 559Q524 613 509 644T456 691T355 706H176V406ZM554
282T504 318T355 354H176V52H355Q464 52 509 88T554 204Q554 282 504 318Z" />
<glyph unicode="C" glyph-name="C" horiz-adv-x="703" d="M308 -17T228 32T108 171T67 378Q67 490 106 579T225 720T424 772Q477 772 518 764T608 735V679Q525 720 424 720Q331 720 264 677T161 557T125 381Q125 278 160 200T262 79T424 35Q480 35 534 50T648
94L668 44Q610 14 546 -1T424 -17Q308 -17 228 32Z" />
<glyph unicode="D" glyph-name="D" horiz-adv-x="794" d="M542 758T632 662T722 378Q722 190 633 95T365 0H120V758H365Q542 758 632 662ZM513 52T588 131T664 381Q664 548 588 627T365 706H176V52H365Q513 52 588 131Z" />
<glyph unicode="E" glyph-name="E" horiz-adv-x="624" d="M564 54V0H120V758H559V704H176V408H509V354H176V54H564Z" />
<glyph unicode="F" glyph-name="F" horiz-adv-x="609" d="M176 704V398H509V344H176V0H120V758H559V704H176Z" />
<glyph unicode="G" glyph-name="G" horiz-adv-x="780" d="M685 463V53Q626 19 556 1T424 -17Q308 -17 228 32T108 171T67 378Q67 490 106 579T225 720T424 772Q490 772 535 760T638 722V663Q587 691 538 705T424 720Q331 720 264 677T161 557T125 381Q125 278
160 200T262 79T424 35Q475 35 524 48T629 85V409H300V463H685Z" />
<glyph unicode="H" glyph-name="H" horiz-adv-x="775" d="M655 758V0H599V354H176V0H120V758H176V408H599V758H655Z" />
<glyph unicode="I" glyph-name="I" horiz-adv-x="296" d="M120 758H176V0H120V758Z" />
<glyph unicode="J" glyph-name="J" horiz-adv-x="296" d="M31 -81T11 -77V-23Q31 -27 57 -27Q83 -27 96 -18T114 14T120 86V758H176V80Q176 15 166 -19T129 -67T52 -81Q31 -81 11 -77Z" />
<glyph unicode="K" glyph-name="K" horiz-adv-x="660" d="M236 376L176 316V0H120V758H176V389L542 758H615L278 419L620 0H545L236 376Z" />
<glyph unicode="L" glyph-name="L" horiz-adv-x="554" d="M514 54V0H120V758H176V54H514Z" />
<glyph unicode="M" glyph-name="M" horiz-adv-x="906" d="M786 758V0H730V664L469 306H437L176 664V0H120V758H176L453 379L730 758H786Z" />
<glyph unicode="N" glyph-name="N" horiz-adv-x="775" d="M655 758V0H600L176 655V0H120V758H175L599 103V758H655Z" />
<glyph unicode="O" glyph-name="O" horiz-adv-x="829" d="M302 -17T224 34T106 175T67 378Q67 489 106 578T224 719T415 772Q526 772 604 720T722 578T762 378Q762 265 723 176T605 35T415 -17Q302 -17 224 34ZM505 35T570 80T670 205T704 381Q704 475 670 552T570
674T415 720Q323 720 258 675T159 551T125 378Q125 281 158 203T257 80T415 35Q505 35 570 80Z" />
<glyph unicode="P" glyph-name="P" horiz-adv-x="642" d="M592 758T592 545Q592 442 536 388T365 334H176V0H120V758H365Q592 758 592 545ZM534 630T492 668T365 706H176V386H365Q534 386 534 548Q534 630 492 668Z" />
<glyph unicode="Q" glyph-name="Q" horiz-adv-x="829" d="M762 279T731 197T641 62L752 -64H678L597 30Q520 -17 415 -17Q302 -17 224 34T106 175T67 378Q67 489 106 578T224 719T415 772Q526 772 604 720T722 578T762 378Q762 279 731 197ZM125 281T158 203T257
80T415 35Q498 35 560 74L419 237H489L602 106Q651 153 677 224T704 381Q704 475 670 552T570 674T415 720Q323 720 258 675T159 551T125 378Q125 281 158 203Z" />
<glyph unicode="R" glyph-name="R" horiz-adv-x="689" d="M353 344H176V0H120V758H365Q592 758 592 550Q592 371 417 347L632 0H566L353 344ZM176 396H365Q534 396 534 553Q534 632 492 669T365 706H176V396Z" />
<glyph unicode="S" glyph-name="S" horiz-adv-x="629" d="M176 -17T66 36V92Q175 35 315 35Q410 35 454 77T499 188Q499 252 458 285T344 339L276 358Q220 374 180 396T115 458T89 563Q89 665 147 718T312 772Q374 772 421 761T520 725V669Q423 720 312 720Q228
720 188 678T147 562Q148 497 186 465T297 412L366 393Q425 377 466 355T532 292T557 187Q556 92 492 38T315 -17Q176 -17 66 36Z" />
<glyph unicode="T" glyph-name="T" horiz-adv-x="614" d="M574 704H335V0H279V704H40V758H574V704Z" />
<glyph unicode="U" glyph-name="U" horiz-adv-x="766" d="M249 -17T182 52T115 248V758H171V248Q171 143 224 89T383 35Q488 35 541 89T595 248V758H651V248Q651 121 585 52T383 -17Q249 -17 182 52Z" />
<glyph unicode="V" glyph-name="V" horiz-adv-x="709" d="M674 758L379 -9H331L35 758H95L355 84L614 758H674Z" />
<glyph unicode="W" glyph-name="W" horiz-adv-x="1048" d="M1013 758L778 -9H730L524 661L319 -9H271L35 758H95L295 90L494 758H554L754 90L953 758H1013Z" />
<glyph unicode="X" glyph-name="X" horiz-adv-x="706" d="M593 0L355 352L117 0H49L318 390L67 758H134L356 430L577 758H644L393 390L661 0H593Z" />
<glyph unicode="Y" glyph-name="Y" horiz-adv-x="703" d="M379 292V0H323V292L35 758H95L351 341L608 758H668L379 292Z" />
<glyph unicode="Z" glyph-name="Z" horiz-adv-x="708" d="M628 54V0H80V52L529 704H93V758H595V706L147 54H628Z" />
<glyph unicode="[" glyph-name="bracketleft" horiz-adv-x="324" d="M264 -75V-129H120V847H259V793H176V-75H264Z" />
<glyph unicode="\" glyph-name="backslash" horiz-adv-x="397" d="M15 931H71L382 -177H326L15 931Z" />
<glyph unicode="]" glyph-name="bracketright" horiz-adv-x="324" d="M204 -129H60V-75H148V793H65V847H204V-129Z" />
<glyph unicode="^" glyph-name="asciicircum" horiz-adv-x="550" d="M471 138L275 471L79 138L34 167L254 536H296L516 165L471 138Z" />
<glyph unicode="_" glyph-name="underscore" horiz-adv-x="500" d="M0 -77H500V-131H0V-77Z" />
<glyph unicode="`" glyph-name="grave" horiz-adv-x="649" d="M182 809H250L358 656H303L182 809Z" />
<glyph unicode="a" glyph-name="a" horiz-adv-x="493" d="M322 546T362 517T415 438T428 313V0H374V59Q334 22 295 5T210 -13Q164 -13 124 9T59 74T35 173Q35 262 91 312T240 362Q272 362 308 354T374 329Q373 388 363 422T322 476T230 496H176V546H245Q322 546
362 517ZM250 41T292 59T374 115V277Q316 308 240 308Q178 308 135 277T91 173Q91 105 128 73T210 41Q250 41 292 59Z" />
<glyph unicode="b" glyph-name="b" horiz-adv-x="623" d="M427 562T491 488T556 272Q556 131 492 57T318 -17Q276 -17 234 3T154 57V0H100V846H154V488Q192 522 234 542T318 562Q427 562 491 488ZM408 37T454 97T500 272Q500 388 454 448T318 508Q233 508 154
434V111Q233 37 318 37Q408 37 454 97Z" />
<glyph unicode="c" glyph-name="c" horiz-adv-x="546" d="M201 -16T134 63T67 274Q67 405 134 483T325 562Q367 562 397 556T464 535V477Q428 494 396 501T325 508Q220 507 172 443T123 275Q123 168 171 103T325 37Q397 37 488 78L508 28Q418 -17 325 -17Q201
-16 134 63Z" />
<glyph unicode="d" glyph-name="d" horiz-adv-x="623" d="M523 846V0H469V57Q431 23 389 3T305 -17Q196 -17 132 57T67 273Q67 414 131 488T305 562Q347 562 389 542T469 488V846H523ZM390 37T469 111V434Q390 508 305 508Q215 508 169 448T123 273Q123 157 169
97T305 37Q390 37 469 111Z" />
<glyph unicode="e" glyph-name="e" horiz-adv-x="572" d="M123 275Q123 168 171 103T325 37Q397 37 488 78L508 28Q420 -17 325 -17Q201 -17 134 62T67 274Q67 366 98 431T184 529T305 562Q406 562 463 497T522 310V289H123V275ZM234 508T188 467T128 343H465Q459
428 420 468T305 508Q234 508 188 467Z" />
<glyph unicode="f" glyph-name="f" horiz-adv-x="298" d="M190 805T177 790T163 732V546H273V492H163V0H109V492H41V546H109V738Q109 808 136 833T232 859Q253 859 273 855V801Q253 805 227 805Q190 805 177 790Z" />
<glyph unicode="g" glyph-name="g" horiz-adv-x="600" d="M523 546V-18Q523 -93 507 -142T442 -221T300 -251Q246 -251 207 -243T121 -215V-155Q208 -197 285 -197Q368 -197 407 -176T458 -116T469 -8V77Q431 43 389 23T305 3Q234 3 181 36T97 132T67 283Q67 419
131 490T305 562Q347 562 389 542T469 488V546H523ZM390 57T469 131V434Q390 508 305 508Q217 508 170 448T123 283Q123 177 170 117T305 57Q390 57 469 131Z" />
<glyph unicode="h" glyph-name="h" horiz-adv-x="612" d="M425 558T471 506T517 330V0H463V330Q463 395 451 432T409 487T328 504Q281 504 237 483T154 426V0H100V846H154V480Q192 515 238 536T328 558Q425 558 471 506Z" />
<glyph unicode="i" glyph-name="i" horiz-adv-x="254" d="M100 808H154V657H100V808ZM100 546H154V0H100V546Z" />
<glyph unicode="j" glyph-name="j" horiz-adv-x="254" d="M100 808H154V657H100V808ZM10 -251T-10 -247V-193Q10 -197 36 -197Q62 -197 75 -188T94 -156T100 -84V546H154V-90Q154 -155 144 -189T107 -237T31 -251Q10 -251 -10 -247Z" />
<glyph unicode="k" glyph-name="k" horiz-adv-x="547" d="M221 289L154 221V0H100V846H154V293L405 546H477L259 327L517 0H449L221 289Z" />
<glyph unicode="l" glyph-name="l" horiz-adv-x="289" d="M155 -13T128 12T100 108V846H154V114Q154 71 167 56T218 41Q244 41 264 45V-9Q244 -13 223 -13Q155 -13 128 12Z" />
<glyph unicode="m" glyph-name="m" horiz-adv-x="950" d="M788 558T834 506T880 330V0H826V330Q826 395 814 432T772 487T691 504Q642 504 596 479T511 412Q517 376 517 330V0H463V330Q463 395 451 432T409 487T328 504Q281 504 237 483T154 426V0H100V546H154V480Q192
515 238 536T328 558Q394 558 436 535T498 460Q537 503 588 530T691 558Q788 558 834 506Z" />
<glyph unicode="n" glyph-name="n" horiz-adv-x="612" d="M425 558T471 506T517 330V0H463V330Q463 395 451 432T409 487T328 504Q237 504 154 426V0H100V546H154V480Q193 515 238 536T328 558Q425 558 471 506Z" />
<glyph unicode="o" glyph-name="o" horiz-adv-x="649" d="M242 -17T184 21T96 125T67 273Q67 355 96 420T183 524T325 562Q408 562 466 524T553 421T582 273Q582 191 553 125T466 21T325 -17Q242 -17 184 21ZM388 37T433 68T502 153T526 273Q526 339 503 392T434
477T325 508Q261 508 216 477T147 393T123 273Q123 207 146 154T215 69T325 37Q388 37 433 68Z" />
<glyph unicode="p" glyph-name="p" horiz-adv-x="623" d="M427 562T491 488T556 272Q556 131 492 57T318 -17Q276 -17 234 3T154 57V-234H100V546H154V488Q192 522 234 542T318 562Q427 562 491 488ZM408 37T454 97T500 272Q500 388 454 448T318 508Q233 508 154
434V111Q233 37 318 37Q408 37 454 97Z" />
<glyph unicode="q" glyph-name="q" horiz-adv-x="623" d="M523 546V-234H469V57Q431 23 389 3T305 -17Q196 -17 132 57T67 273Q67 414 131 488T305 562Q347 562 389 542T469 488V546H523ZM390 37T469 111V434Q390 508 305 508Q215 508 169 448T123 273Q123 157
169 97T305 37Q390 37 469 111Z" />
<glyph unicode="r" glyph-name="r" horiz-adv-x="381" d="M351 558V504H328Q281 504 237 483T154 426V0H100V546H154V480Q192 515 238 536T328 558H351Z" />
<glyph unicode="s" glyph-name="s" horiz-adv-x="488" d="M190 -17T147 -8T56 24V87Q145 37 245 37Q311 37 340 66T370 141Q370 187 345 208T265 245L215 259Q151 277 112 311T72 418Q72 483 115 522T242 562Q290 562 326 553T400 526V468Q357 488 325 498T242
508Q183 508 156 482T128 417Q128 372 154 350T231 313L281 299Q328 286 358 271T407 224T426 140Q426 66 377 25T245 -17Q190 -17 147 -8Z" />
<glyph unicode="t" glyph-name="t" horiz-adv-x="339" d="M256 41T293 49V-5Q258 -13 227 -13Q180 -13 155 -1T119 38T109 114V492H41V546H109V736H163V546H291V492H163V114Q163 71 176 56T227 41Q256 41 293 49Z" />
<glyph unicode="u" glyph-name="u" horiz-adv-x="612" d="M512 546V0H458V66Q420 31 374 10T284 -12Q187 -12 141 40T95 216V546H149V216Q149 151 161 114T203 59T284 42Q331 42 375 63T458 120V546H512Z" />
<glyph unicode="v" glyph-name="v" horiz-adv-x="535" d="M515 546L292 -9H244L20 546H78L268 75L457 546H515Z" />
<glyph unicode="w" glyph-name="w" horiz-adv-x="812" d="M792 546L609 -9H561L406 458L252 -9H204L20 546H78L228 79L377 546H435L585 79L734 546H792Z" />
<glyph unicode="x" glyph-name="x" horiz-adv-x="560" d="M450 0L276 241L110 0H42L242 285L52 546H120L281 324L443 546H509L314 278L518 0H450Z" />
<glyph unicode="y" glyph-name="y" horiz-adv-x="535" d="M515 546L260 -89Q229 -167 214 -195T176 -237T107 -251Q86 -251 66 -247V-193Q86 -197 112 -197Q134 -197 148 -187T173 -156T204 -84L239 3L20 546H78L268 75L457 546H515Z" />
<glyph unicode="z" glyph-name="z" horiz-adv-x="517" d="M457 52V0H67V52L373 494H85V546H435V494L130 52H457Z" />
<glyph unicode="{" glyph-name="braceleft" horiz-adv-x="324" d="M176 432T162 402T111 359Q148 346 162 315T176 219V-2Q176 -45 189 -60T240 -75Q266 -75 286 -71V-125Q266 -129 245 -129Q176 -129 148 -104T120 -8V219Q120 267 115 290T96 323T56 332H45V386H56Q82
386 95 395T114 427T120 499V726Q120 796 148 821T245 847Q266 847 286 843V789Q266 793 240 793Q203 793 190 778T176 720V499Q176 432 162 402Z" />
<glyph unicode="|" glyph-name="bar" horiz-adv-x="296" d="M120 847H176V-129H120V847Z" />
<glyph unicode="}" glyph-name="braceright" horiz-adv-x="324" d="M148 432T162 402T213 359Q176 346 162 315T148 219V-2Q148 -45 135 -60T84 -75Q58 -75 38 -71V-125Q58 -129 79 -129Q148 -129 176 -104T204 -8V219Q204 267 209 290T228 323T268 332H279V386H268Q242
386 229 395T210 427T204 499V726Q204 796 176 821T79 847Q58 847 38 843V789Q58 793 84 793Q121 793 134 778T148 720V499Q148 432 162 402Z" />
<glyph unicode="~" glyph-name="asciitilde" horiz-adv-x="550" d="M337 276T315 289T262 327Q240 347 224 357T187 367Q154 367 128 348T71 297L44 331Q78 372 110 395T187 419Q223 419 246 406T298 368Q319 349 334 340T370 330Q403 330 428 345T480 387L506
354Q473 317 443 297T370 276Q337 276 315 289Z" />
<glyph unicode="&#xa0;" glyph-name="uni00A0" horiz-adv-x="220" />
<glyph unicode="&#xa1;" glyph-name="exclamdown" horiz-adv-x="284" d="M110 758H174V607H110V758ZM118 528H166L178 0H106L118 528Z" />
<glyph unicode="&#xa2;" glyph-name="cent" horiz-adv-x="550" d="M434 -10T354 -16V-96H298V-16Q188 -6 129 72T69 274Q69 397 128 474T298 561V641H354V561Q384 560 409 554T466 535V477Q407 504 354 507V38Q417 45 490 78L510 28Q434 -10 354 -16ZM125 176T166
112T298 39V506Q208 497 167 435T125 275Q125 176 166 112Z" />
<glyph unicode="&#xa3;" glyph-name="sterling" horiz-adv-x="550" d="M502 54V0H47V54H142V324H77V378H142V497Q142 572 160 613T217 671T325 688Q388 688 426 670V613Q400 626 375 630T320 634Q269 634 243 622T207 580T196 491V378H378V324H196V54H502Z" />
<glyph unicode="&#xa4;" glyph-name="currency" horiz-adv-x="550" d="M43 133L128 219Q87 268 87 336Q87 402 126 450L40 537L72 570L159 483Q210 521 272 521Q339 521 392 478L479 564L511 531L423 443Q458 394 458 336Q458 270 419 222L506 136L472 103L386
190Q336 151 272 151Q211 151 162 187L75 100L43 133ZM307 199T337 217T386 267T404 336Q404 373 386 404T338 454T272 473Q236 473 206 455T159 405T141 336Q141 299 158 268T206 218T272 199Q307 199 337 217Z" />
<glyph unicode="&#xa5;" glyph-name="yen" horiz-adv-x="550" d="M333 341H450V287H303V187H450V133H303V0H247V133H100V187H247V287H100V341H217L11 674H71L275 341L480 674H540L333 341Z" />
<glyph unicode="&#xa6;" glyph-name="brokenbar" horiz-adv-x="296" d="M120 847H176V471H120V847ZM120 247H176V-129H120V247Z" />
<glyph unicode="&#xa7;" glyph-name="section" horiz-adv-x="550" d="M498 247T467 215T378 161Q454 118 454 37Q453 -27 403 -64T267 -101Q177 -101 105 -72V-14Q179 -49 267 -49Q332 -49 364 -25T396 38Q396 78 366 101T281 139L231 153Q171 169 133 187T73
236T51 315Q51 404 169 442Q138 461 122 488T106 556Q106 623 151 655T279 688Q329 688 365 680T442 651V595Q399 616 363 626T279 636Q222 636 193 615T164 555Q164 516 190 497T266 463L316 449Q399 426 448 392T499 297Q498 247 467 215ZM373 202T407 229T441
298Q441 333 404 355T300 395L250 409Q245 410 235 414Q175 403 143 378T109 314Q110 285 123 267T164 236T247 207L297 193L311 189Q373 202 407 229Z" />
<glyph unicode="&#xa8;" glyph-name="dieresis" horiz-adv-x="649" d="M395 788H449V677H395V788ZM200 788H254V677H200V788Z" />
<glyph unicode="&#xa9;" glyph-name="copyright" horiz-adv-x="935" d="M358 -17T266 34T121 176T67 378Q67 484 121 574T267 718T468 772Q575 772 667 719T813 575T868 378Q868 267 814 177T668 35T468 -17Q358 -17 266 34ZM559 35T637 80T763 204T810 380Q810
471 763 549T636 673T468 720Q375 720 297 674T172 549T125 378Q125 281 171 203T295 80T468 35Q559 35 637 80ZM403 155T358 184T290 265T267 378Q267 476 318 538T468 600Q499 600 522 596T572 580V524Q527 548 468 548Q402 548 364 501T325 381Q325 299 362
254T468 208Q498 208 526 215T586 236L606 190Q573 173 537 164T468 155Q403 155 358 184Z" />
<glyph unicode="&#xaa;" glyph-name="ordfeminine" horiz-adv-x="397" d="M251 674T281 653T321 597T332 508V284H280V322Q229 275 168 275Q114 275 75 311T36 408Q36 471 78 506T190 542Q238 542 280 521Q279 558 272 580T243 614T182 626H136V674H193Q251 674
281 653ZM225 327T280 375V470Q240 490 190 490Q149 490 120 471T90 408Q90 367 114 347T168 327Q225 327 280 375Z" />
<glyph unicode="&#xab;" glyph-name="guillemotleft" horiz-adv-x="736" d="M421 270L611 74L572 36L366 249V291L572 504L611 466L421 270ZM175 270L365 74L326 36L120 249V291L326 504L365 466L175 270Z" />
<glyph unicode="&#xac;" glyph-name="logicalnot" horiz-adv-x="550" d="M483 364V129L427 128V310H67V364H483Z" />
<glyph unicode="&#xae;" glyph-name="registered" horiz-adv-x="721" d="M439 769T505 730T611 625T650 483Q650 402 611 337T506 234T361 196Q281 196 215 233T110 336T71 483Q71 559 110 625T215 730T361 769Q439 769 505 730ZM425 243T480 274T568 361T601
485Q601 548 568 602T479 689T361 722Q296 722 241 690T153 602T120 483Q120 415 152 360T240 274T361 243Q425 243 480 274ZM473 466T417 450L487 338H433L369 444H312V338H265V628H372Q424 628 448 607T473 537Q473 466 417 450ZM312 487H373Q402 487 413 497T424
537Q424 564 413 574T373 585H312V487Z" />
<glyph unicode="&#xaf;" glyph-name="overscore" horiz-adv-x="649" d="M170 757H479V709H170V757Z" />
<glyph unicode="&#xb0;" glyph-name="degree" horiz-adv-x="473" d="M185 309T142 334T73 403T47 499Q47 551 72 594T141 662T237 688Q289 688 332 663T400 594T426 499Q426 447 401 404T332 335T237 309Q185 309 142 334ZM294 361T331 401T368 499Q368 557 332
596T237 636Q179 636 142 597T105 499Q105 441 142 401T237 361Q294 361 331 401Z" />
<glyph unicode="&#xb1;" glyph-name="plusminus" horiz-adv-x="550" d="M483 310H303V129L247 128V310H67V364H247V544L303 545V364H483V310ZM67 54H483V0H67V54Z" />
<glyph unicode="&#xb2;" glyph-name="uni00B2" horiz-adv-x="390" d="M44 185Q133 284 182 346T256 455T281 543Q281 586 257 608T186 631Q121 631 61 601V656Q122 683 186 683Q255 683 296 647T337 544Q337 498 311 447T246 347T140 222L107 185H351V131H44V185Z" />
<glyph unicode="&#xb3;" glyph-name="uni00B3" horiz-adv-x="390" d="M289 402T314 367T340 283Q340 205 295 163T170 120Q108 120 57 140V195Q111 172 170 172Q221 172 252 201T283 285Q283 336 248 363T149 391H114V443H149Q211 443 243 468T276 544Q276 585
249 608T170 631Q114 631 64 611V665Q114 683 170 683Q250 683 291 646T333 544Q333 452 240 417Q289 402 314 367Z" />
<glyph unicode="&#xb4;" glyph-name="acute" horiz-adv-x="649" d="M401 809H469L348 656H293L401 809Z" />
<glyph unicode="&#xb6;" glyph-name="paragraph" horiz-adv-x="642" d="M306 334H277Q163 334 107 388T50 545Q50 758 277 758H522V-100H466V706H362V-100H306V334Z" />
<glyph unicode="&#xb7;" glyph-name="middot" horiz-adv-x="284" d="M110 413H174V262H110V413Z" />
<glyph unicode="&#xb8;" glyph-name="cedilla" horiz-adv-x="649" d="M398 -72T426 -97T455 -165Q455 -209 423 -236T333 -263Q285 -263 241 -243V-195Q287 -216 333 -216Q369 -216 386 -201T404 -165Q404 -119 346 -119Q312 -119 261 -136L303 1H354L331 -73Q336
-72 346 -72Q398 -72 426 -97Z" />
<glyph unicode="&#xb9;" glyph-name="uni00B9" horiz-adv-x="390" d="M305 185V131H85V185H168V619H99V673H222V185H305Z" />
<glyph unicode="&#xba;" glyph-name="ordmasculine" horiz-adv-x="517" d="M199 275T156 302T90 377T67 482Q67 540 89 586T155 660T259 688Q319 688 362 661T427 587T450 482Q450 424 428 377T362 303T259 275Q199 275 156 302ZM328 329T361 371T394 482Q394
549 361 591T259 634Q190 634 157 592T123 482Q123 414 156 372T259 329Q328 329 361 371Z" />
<glyph unicode="&#xbb;" glyph-name="guillemotright" horiz-adv-x="736" d="M315 270L125 74L164 36L370 249V291L164 504L125 466L315 270ZM561 270L371 74L410 36L616 249V291L410 504L371 466L561 270Z" />
<glyph unicode="&#xbc;" glyph-name="onequarter" horiz-adv-x="959" d="M305 185V131H85V185H168V619H99V673H222V185H305ZM704 773H762L345 -33H287L704 773ZM949 136H872V0H818V136H589V188L824 551H872V188H949V136ZM818 188V458L641 188H818Z" />
<glyph unicode="&#xbd;" glyph-name="onehalf" horiz-adv-x="1027" d="M305 185V131H85V185H168V619H99V673H222V185H305ZM704 773H762L345 -33H287L704 773ZM681 54Q770 153 819 215T893 324T918 412Q918 455 894 477T823 500Q758 500 698 470V525Q759 552 823
552Q892 552 933 516T974 413Q974 367 948 316T883 216T777 91L744 54H988V0H681V54Z" />
<glyph unicode="&#xbe;" glyph-name="threequarters" horiz-adv-x="954" d="M289 402T314 367T340 283Q340 205 295 163T170 120Q108 120 57 140V195Q111 172 170 172Q221 172 252 201T283 285Q283 336 248 363T149 391H114V443H149Q211 443 243 468T276 544Q276
585 249 608T170 631Q114 631 64 611V665Q114 683 170 683Q250 683 291 646T333 544Q333 452 240 417Q289 402 314 367ZM699 773H757L340 -33H282L699 773ZM944 136H867V0H813V136H584V188L819 551H867V188H944V136ZM813 188V458L636 188H813Z" />
<glyph unicode="&#xbf;" glyph-name="questiondown" horiz-adv-x="550" d="M328 607H264V758H328V607ZM200 -14T144 36T87 180Q87 231 105 266T160 332L187 356Q221 386 236 402T259 440T268 491V528H324V491Q324 448 312 419T282 370T229 319L202 295Q171 267
158 242T145 181Q145 112 184 75T289 38Q381 38 463 79V23Q378 -14 289 -14Q200 -14 144 36Z" />
<glyph unicode="&#xc0;" glyph-name="Agrave" horiz-adv-x="689" d="M506 254H183L85 0H25L320 767H368L664 0H604L506 254ZM485 308L344 674L203 308H485ZM467 989H535L643 836H588L467 989Z" />
<glyph unicode="&#xc1;" glyph-name="Aacute" horiz-adv-x="689" d="M506 254H183L85 0H25L320 767H368L664 0H604L506 254ZM485 308L344 674L203 308H485ZM676 989H744L623 836H568L676 989Z" />
<glyph unicode="&#xc2;" glyph-name="Acircumflex" horiz-adv-x="689" d="M506 254H183L85 0H25L320 767H368L664 0H604L506 254ZM485 308L344 674L203 308H485ZM680 836L600 950L519 836H451L572 989H627L748 836H680Z" />
<glyph unicode="&#xc3;" glyph-name="Atilde" horiz-adv-x="689" d="M506 254H183L85 0H25L320 767H368L664 0H604L506 254ZM485 308L344 674L203 308H485ZM461 911T481 934T531 957Q559 957 590 940L627 920Q644 910 658 910Q690 910 690 957H740Q738 908 718
885T668 862Q641 862 610 879L573 899Q555 909 541 909Q509 909 509 862H459Q461 911 481 934Z" />
<glyph unicode="&#xc4;" glyph-name="Adieresis" horiz-adv-x="689" d="M506 254H183L85 0H25L320 767H368L664 0H604L506 254ZM485 308L344 674L203 308H485ZM670 968H724V857H670V968ZM475 968H529V857H475V968Z" />
<glyph unicode="&#xc5;" glyph-name="Aring" horiz-adv-x="689" d="M506 254H183L85 0H25L320 767H368L664 0H604L506 254ZM485 308L344 674L203 308H485ZM561 820T534 846T507 912Q507 951 533 977T600 1003Q639 1003 665 977T692 912Q692 873 666 847T600 820Q561
820 534 846ZM622 858T636 873T651 912Q651 937 637 951T600 966Q578 966 563 951T548 912Q548 888 563 873T600 858Q622 858 636 873Z" />
<glyph unicode="&#xc6;" glyph-name="AE" horiz-adv-x="1060" d="M1000 54V0H556V254H262L97 0H35L531 758H995V704H612V408H945V354H612V54H1000ZM556 308V704H555L297 308H556Z" />
<glyph unicode="&#xc7;" glyph-name="Ccedilla" horiz-adv-x="703" d="M497 -72T525 -97T554 -165Q554 -209 522 -236T432 -263Q384 -263 340 -243V-195Q386 -216 432 -216Q468 -216 485 -201T503 -165Q503 -119 445 -119Q411 -119 360 -136L397 -16Q290 -10 216
41T105 178T67 378Q67 490 106 579T225 720T424 772Q477 772 518 764T608 735V679Q525 720 424 720Q331 720 264 677T161 557T125 381Q125 278 160 200T262 79T424 35Q480 35 534 50T648 94L668 44Q615 17 558 2T448 -16L430 -73Q435 -72 445 -72Q497 -72 525 -97Z"
/>
<glyph unicode="&#xc8;" glyph-name="Egrave" horiz-adv-x="624" d="M564 54V0H120V758H559V704H176V408H509V354H176V54H564ZM460 989H528L636 836H581L460 989Z" />
<glyph unicode="&#xc9;" glyph-name="Eacute" horiz-adv-x="624" d="M564 54V0H120V758H559V704H176V408H509V354H176V54H564ZM669 989H737L616 836H561L669 989Z" />
<glyph unicode="&#xca;" glyph-name="Ecircumflex" horiz-adv-x="624" d="M564 54V0H120V758H559V704H176V408H509V354H176V54H564ZM673 836L593 950L512 836H444L565 989H620L741 836H673Z" />
<glyph unicode="&#xcb;" glyph-name="Edieresis" horiz-adv-x="624" d="M564 54V0H120V758H559V704H176V408H509V354H176V54H564ZM663 968H717V857H663V968ZM468 968H522V857H468V968Z" />
<glyph unicode="&#xcc;" glyph-name="Igrave" horiz-adv-x="296" d="M120 758H176V0H120V758ZM15 989H83L191 836H136L15 989Z" />
<glyph unicode="&#xcd;" glyph-name="Iacute" horiz-adv-x="296" d="M120 758H176V0H120V758ZM224 989H292L171 836H116L224 989Z" />
<glyph unicode="&#xce;" glyph-name="Icircumflex" horiz-adv-x="296" d="M120 758H176V0H120V758ZM228 836L148 950L67 836H-1L120 989H175L296 836H228Z" />
<glyph unicode="&#xcf;" glyph-name="Idieresis" horiz-adv-x="296" d="M120 758H176V0H120V758ZM218 968H272V857H218V968ZM23 968H77V857H23V968Z" />
<glyph unicode="&#xd0;" glyph-name="Eth" horiz-adv-x="794" d="M542 758T632 662T722 378Q722 190 633 95T365 0H120V355H27V407H120V758H365Q542 758 632 662ZM513 52T588 131T664 381Q664 548 588 627T365 706H176V407H382V355H176V52H365Q513 52 588 131Z" />
<glyph unicode="&#xd1;" glyph-name="Ntilde" horiz-adv-x="775" d="M655 758V0H600L176 655V0H120V758H175L599 103V758H655ZM520 911T540 934T590 957Q618 957 649 940L686 920Q703 910 717 910Q749 910 749 957H799Q797 908 777 885T727 862Q700 862 669 879L632
899Q614 909 600 909Q568 909 568 862H518Q520 911 540 934Z" />
<glyph unicode="&#xd2;" glyph-name="Ograve" horiz-adv-x="829" d="M302 -17T224 34T106 175T67 378Q67 489 106 578T224 719T415 772Q526 772 604 720T722 578T762 378Q762 265 723 176T605 35T415 -17Q302 -17 224 34ZM505 35T570 80T670 205T704 381Q704 475
670 552T570 674T415 720Q323 720 258 675T159 551T125 378Q125 281 158 203T257 80T415 35Q505 35 570 80ZM282 989H350L458 836H403L282 989Z" />
<glyph unicode="&#xd3;" glyph-name="Oacute" horiz-adv-x="829" d="M302 -17T224 34T106 175T67 378Q67 489 106 578T224 719T415 772Q526 772 604 720T722 578T762 378Q762 265 723 176T605 35T415 -17Q302 -17 224 34ZM505 35T570 80T670 205T704 381Q704 475
670 552T570 674T415 720Q323 720 258 675T159 551T125 378Q125 281 158 203T257 80T415 35Q505 35 570 80ZM491 989H559L438 836H383L491 989Z" />
<glyph unicode="&#xd4;" glyph-name="Ocircumflex" horiz-adv-x="829" d="M302 -17T224 34T106 175T67 378Q67 489 106 578T224 719T415 772Q526 772 604 720T722 578T762 378Q762 265 723 176T605 35T415 -17Q302 -17 224 34ZM505 35T570 80T670 205T704 381Q704
475 670 552T570 674T415 720Q323 720 258 675T159 551T125 378Q125 281 158 203T257 80T415 35Q505 35 570 80ZM495 836L415 950L334 836H266L387 989H442L563 836H495Z" />
<glyph unicode="&#xd5;" glyph-name="Otilde" horiz-adv-x="829" d="M302 -17T224 34T106 175T67 378Q67 489 106 578T224 719T415 772Q526 772 604 720T722 578T762 378Q762 265 723 176T605 35T415 -17Q302 -17 224 34ZM505 35T570 80T670 205T704 381Q704 475
670 552T570 674T415 720Q323 720 258 675T159 551T125 378Q125 281 158 203T257 80T415 35Q505 35 570 80ZM276 911T296 934T346 957Q374 957 405 940L442 920Q459 910 473 910Q505 910 505 957H555Q553 908 533 885T483 862Q456 862 425 879L388 899Q370 909
356 909Q324 909 324 862H274Q276 911 296 934Z" />
<glyph unicode="&#xd6;" glyph-name="Odieresis" horiz-adv-x="829" d="M302 -17T224 34T106 175T67 378Q67 489 106 578T224 719T415 772Q526 772 604 720T722 578T762 378Q762 265 723 176T605 35T415 -17Q302 -17 224 34ZM505 35T570 80T670 205T704 381Q704
475 670 552T570 674T415 720Q323 720 258 675T159 551T125 378Q125 281 158 203T257 80T415 35Q505 35 570 80ZM485 968H539V857H485V968ZM290 968H344V857H290V968Z" />
<glyph unicode="&#xd8;" glyph-name="Oslash" horiz-adv-x="829" d="M698 623Q730 573 746 511T762 378Q762 265 723 176T605 35T415 -17Q332 -17 267 11T158 93L63 0L28 34L129 133Q67 232 67 378Q67 489 106 578T224 719T415 772Q496 772 560 744T669 663L766
758L800 723L698 623ZM125 261T172 175L627 622Q589 668 535 694T415 720Q323 720 258 675T159 551T125 378Q125 261 172 175ZM704 496T655 581L199 134Q237 87 291 61T415 35Q505 35 570 80T669 203T704 378Q704 496 655 581Z" />
<glyph unicode="&#xd9;" glyph-name="Ugrave" horiz-adv-x="766" d="M249 -17T182 52T115 248V758H171V248Q171 143 224 89T383 35Q488 35 541 89T595 248V758H651V248Q651 121 585 52T383 -17Q249 -17 182 52ZM506 989H574L682 836H627L506 989Z" />
<glyph unicode="&#xda;" glyph-name="Uacute" horiz-adv-x="766" d="M249 -17T182 52T115 248V758H171V248Q171 143 224 89T383 35Q488 35 541 89T595 248V758H651V248Q651 121 585 52T383 -17Q249 -17 182 52ZM715 989H783L662 836H607L715 989Z" />
<glyph unicode="&#xdb;" glyph-name="Ucircumflex" horiz-adv-x="766" d="M249 -17T182 52T115 248V758H171V248Q171 143 224 89T383 35Q488 35 541 89T595 248V758H651V248Q651 121 585 52T383 -17Q249 -17 182 52ZM719 836L639 950L558 836H490L611 989H666L787
836H719Z" />
<glyph unicode="&#xdc;" glyph-name="Udieresis" horiz-adv-x="766" d="M709 968H763V857H709V968ZM514 968H568V857H514V968ZM249 -17T182 52T115 248V758H171V248Q171 143 224 89T383 35Q488 35 541 89T595 248V758H651V248Q651 121 585 52T383 -17Q249 -17 182 52Z" />
<glyph unicode="&#xdd;" glyph-name="Yacute" horiz-adv-x="703" d="M379 292V0H323V292L35 758H95L351 341L608 758H668L379 292ZM683 989H751L630 836H575L683 989Z" />
<glyph unicode="&#xde;" glyph-name="Thorn" horiz-adv-x="642" d="M592 596T592 383Q592 280 536 226T365 172H176V0H120V758H176V596H365Q592 596 592 383ZM534 468T492 506T365 544H176V224H365Q534 224 534 386Q534 468 492 506Z" />
<glyph unicode="&#xdf;" glyph-name="germandbls" horiz-adv-x="595" d="M335 -17T307 -12T247 8V65Q286 49 312 43T366 37Q489 37 492 141Q492 172 477 193T441 227T382 257Q340 275 314 292T269 337T251 410Q251 449 264 476T303 543Q332 583 347 616T362 698Q362
754 337 779T258 805Q203 805 179 781T154 698V0H100V698Q100 786 139 822T263 859Q335 859 375 818T416 698Q416 636 399 596T350 509Q328 477 318 456T307 409Q307 374 331 354T408 307Q452 285 480 267T528 217T548 140Q544 62 496 23T366 -17Q335 -17 307 -12Z"
/>
<glyph unicode="&#xe0;" glyph-name="agrave" horiz-adv-x="493" d="M322 546T362 517T415 438T428 313V0H374V59Q334 22 295 5T210 -13Q164 -13 124 9T59 74T35 173Q35 262 91 312T240 362Q272 362 308 354T374 329Q373 388 363 422T322 476T230 496H176V546H245Q322
546 362 517ZM250 41T292 59T374 115V277Q316 308 240 308Q178 308 135 277T91 173Q91 105 128 73T210 41Q250 41 292 59ZM377 809H445L553 656H498L377 809Z" />
<glyph unicode="&#xe1;" glyph-name="aacute" horiz-adv-x="493" d="M322 546T362 517T415 438T428 313V0H374V59Q334 22 295 5T210 -13Q164 -13 124 9T59 74T35 173Q35 262 91 312T240 362Q272 362 308 354T374 329Q373 388 363 422T322 476T230 496H176V546H245Q322
546 362 517ZM250 41T292 59T374 115V277Q316 308 240 308Q178 308 135 277T91 173Q91 105 128 73T210 41Q250 41 292 59ZM596 809H664L543 656H488L596 809Z" />
<glyph unicode="&#xe2;" glyph-name="acircumflex" horiz-adv-x="493" d="M322 546T362 517T415 438T428 313V0H374V59Q334 22 295 5T210 -13Q164 -13 124 9T59 74T35 173Q35 262 91 312T240 362Q272 362 308 354T374 329Q373 388 363 422T322 476T230 496H176V546H245Q322
546 362 517ZM250 41T292 59T374 115V277Q316 308 240 308Q178 308 135 277T91 173Q91 105 128 73T210 41Q250 41 292 59ZM600 656L520 770L439 656H371L492 809H547L668 656H600Z" />
<glyph unicode="&#xe3;" glyph-name="atilde" horiz-adv-x="493" d="M322 546T362 517T415 438T428 313V0H374V59Q334 22 295 5T210 -13Q164 -13 124 9T59 74T35 173Q35 262 91 312T240 362Q272 362 308 354T374 329Q373 388 363 422T322 476T230 496H176V546H245Q322
546 362 517ZM250 41T292 59T374 115V277Q316 308 240 308Q178 308 135 277T91 173Q91 105 128 73T210 41Q250 41 292 59ZM381 731T401 754T451 777Q479 777 510 760L547 740Q564 730 578 730Q610 730 610 777H660Q658 728 638 705T588 682Q561 682 530 699L493
719Q475 729 461 729Q429 729 429 682H379Q381 731 401 754Z" />
<glyph unicode="&#xe4;" glyph-name="adieresis" horiz-adv-x="493" d="M322 546T362 517T415 438T428 313V0H374V59Q334 22 295 5T210 -13Q164 -13 124 9T59 74T35 173Q35 262 91 312T240 362Q272 362 308 354T374 329Q373 388 363 422T322 476T230 496H176V546H245Q322
546 362 517ZM250 41T292 59T374 115V277Q316 308 240 308Q178 308 135 277T91 173Q91 105 128 73T210 41Q250 41 292 59ZM590 788H644V677H590V788ZM395 788H449V677H395V788Z" />
<glyph unicode="&#xe5;" glyph-name="aring" horiz-adv-x="493" d="M322 546T362 517T415 438T428 313V0H374V59Q334 22 295 5T210 -13Q164 -13 124 9T59 74T35 173Q35 262 91 312T240 362Q272 362 308 354T374 329Q373 388 363 422T322 476T230 496H176V546H245Q322
546 362 517ZM250 41T292 59T374 115V277Q316 308 240 308Q178 308 135 277T91 173Q91 105 128 73T210 41Q250 41 292 59ZM481 640T454 666T427 732Q427 771 453 797T520 823Q559 823 585 797T612 732Q612 693 586 667T520 640Q481 640 454 666ZM542 678T556 693T571
732Q571 757 557 771T520 786Q498 786 483 771T468 732Q468 708 483 693T520 678Q542 678 556 693Z" />
<glyph unicode="&#xe6;" glyph-name="ae" horiz-adv-x="879" d="M430 275Q430 169 478 104T632 37Q704 37 795 78L815 28Q727 -17 632 -17Q561 -17 508 10T422 87Q368 37 317 12T210 -13Q164 -13 124 9T59 74T35 173Q35 262 91 312T240 362Q272 362 308 354T374
329Q373 388 363 422T322 476T230 496H176V546H245Q317 546 356 519T412 442Q442 500 494 531T612 562Q713 562 770 497T829 310V289H430V275ZM541 508T495 467T435 343H772Q766 428 727 468T612 508Q541 508 495 467ZM256 41T304 65T397 138Q374 198 374 274V277Q316
308 240 308Q178 308 135 277T91 173Q91 105 128 73T210 41Q256 41 304 65Z" />
<glyph unicode="&#xe7;" glyph-name="ccedilla" horiz-adv-x="546" d="M378 -72T406 -97T435 -165Q435 -209 403 -236T313 -263Q265 -263 221 -243V-195Q267 -216 313 -216Q349 -216 366 -201T384 -165Q384 -119 326 -119Q292 -119 241 -136L279 -14Q177 1 122
78T67 274Q67 405 134 483T325 562Q367 562 397 556T464 535V477Q428 494 396 501T325 508Q220 507 172 443T123 275Q123 168 171 103T325 37Q397 37 488 78L508 28Q419 -16 328 -17L311 -73Q316 -72 326 -72Q378 -72 406 -97Z" />
<glyph unicode="&#xe8;" glyph-name="egrave" horiz-adv-x="572" d="M123 275Q123 168 171 103T325 37Q397 37 488 78L508 28Q420 -17 325 -17Q201 -17 134 62T67 274Q67 366 98 431T184 529T305 562Q406 562 463 497T522 310V289H123V275ZM234 508T188 467T128
343H465Q459 428 420 468T305 508Q234 508 188 467ZM417 809H485L593 656H538L417 809Z" />
<glyph unicode="&#xe9;" glyph-name="eacute" horiz-adv-x="572" d="M123 275Q123 168 171 103T325 37Q397 37 488 78L508 28Q420 -17 325 -17Q201 -17 134 62T67 274Q67 366 98 431T184 529T305 562Q406 562 463 497T522 310V289H123V275ZM234 508T188 467T128
343H465Q459 428 420 468T305 508Q234 508 188 467ZM636 809H704L583 656H528L636 809Z" />
<glyph unicode="&#xea;" glyph-name="ecircumflex" horiz-adv-x="572" d="M123 275Q123 168 171 103T325 37Q397 37 488 78L508 28Q420 -17 325 -17Q201 -17 134 62T67 274Q67 366 98 431T184 529T305 562Q406 562 463 497T522 310V289H123V275ZM234 508T188 467T128
343H465Q459 428 420 468T305 508Q234 508 188 467ZM640 656L560 770L479 656H411L532 809H587L708 656H640Z" />
<glyph unicode="&#xeb;" glyph-name="edieresis" horiz-adv-x="572" d="M123 275Q123 168 171 103T325 37Q397 37 488 78L508 28Q420 -17 325 -17Q201 -17 134 62T67 274Q67 366 98 431T184 529T305 562Q406 562 463 497T522 310V289H123V275ZM234 508T188 467T128
343H465Q459 428 420 468T305 508Q234 508 188 467ZM630 788H684V677H630V788ZM435 788H489V677H435V788Z" />
<glyph unicode="&#xec;" glyph-name="igrave" horiz-adv-x="254" d="M100 546H154V0H100V546ZM-17 809H51L159 656H104L-17 809Z" />
<glyph unicode="&#xed;" glyph-name="iacute" horiz-adv-x="254" d="M100 546H154V0H100V546ZM202 809H270L149 656H94L202 809Z" />
<glyph unicode="&#xee;" glyph-name="icircumflex" horiz-adv-x="254" d="M100 546H154V0H100V546ZM206 656L126 770L45 656H-23L98 809H153L274 656H206Z" />
<glyph unicode="&#xef;" glyph-name="idieresis" horiz-adv-x="254" d="M100 546H154V0H100V546ZM196 788H250V677H196V788ZM1 788H55V677H1V788Z" />
<glyph unicode="&#xf0;" glyph-name="eth" horiz-adv-x="617" d="M453 693T501 569T550 313Q550 164 488 74T309 -17Q197 -17 132 57T67 272Q67 422 134 492T308 562Q348 562 391 542T471 486Q451 560 415 627T327 746L237 664L204 689L296 775Q265 802 227 823L258
862Q295 842 333 810L402 874L437 847L365 781Q453 693 501 569ZM494 370T486 417Q397 508 308 508Q228 508 176 456T123 272Q123 147 173 92T309 37Q395 37 444 108T494 313Q494 370 486 417Z" />
<glyph unicode="&#xf1;" glyph-name="ntilde" horiz-adv-x="612" d="M425 558T471 506T517 330V0H463V330Q463 395 451 432T409 487T328 504Q237 504 154 426V0H100V546H154V480Q193 515 238 536T328 558Q425 558 471 506ZM424 731T444 754T494 777Q522 777 553
760L590 740Q607 730 621 730Q653 730 653 777H703Q701 728 681 705T631 682Q604 682 573 699L536 719Q518 729 504 729Q472 729 472 682H422Q424 731 444 754Z" />
<glyph unicode="&#xf2;" glyph-name="ograve" horiz-adv-x="649" d="M242 -17T184 21T96 125T67 273Q67 355 96 420T183 524T325 562Q408 562 466 524T553 421T582 273Q582 191 553 125T466 21T325 -17Q242 -17 184 21ZM388 37T433 68T502 153T526 273Q526 339
503 392T434 477T325 508Q261 508 216 477T147 393T123 273Q123 207 146 154T215 69T325 37Q388 37 433 68ZM437 809H505L613 656H558L437 809Z" />
<glyph unicode="&#xf3;" glyph-name="oacute" horiz-adv-x="649" d="M242 -17T184 21T96 125T67 273Q67 355 96 420T183 524T325 562Q408 562 466 524T553 421T582 273Q582 191 553 125T466 21T325 -17Q242 -17 184 21ZM388 37T433 68T502 153T526 273Q526 339
503 392T434 477T325 508Q261 508 216 477T147 393T123 273Q123 207 146 154T215 69T325 37Q388 37 433 68ZM656 809H724L603 656H548L656 809Z" />
<glyph unicode="&#xf4;" glyph-name="ocircumflex" horiz-adv-x="649" d="M242 -17T184 21T96 125T67 273Q67 355 96 420T183 524T325 562Q408 562 466 524T553 421T582 273Q582 191 553 125T466 21T325 -17Q242 -17 184 21ZM388 37T433 68T502 153T526 273Q526
339 503 392T434 477T325 508Q261 508 216 477T147 393T123 273Q123 207 146 154T215 69T325 37Q388 37 433 68ZM660 656L580 770L499 656H431L552 809H607L728 656H660Z" />
<glyph unicode="&#xf5;" glyph-name="otilde" horiz-adv-x="649" d="M242 -17T184 21T96 125T67 273Q67 355 96 420T183 524T325 562Q408 562 466 524T553 421T582 273Q582 191 553 125T466 21T325 -17Q242 -17 184 21ZM388 37T433 68T502 153T526 273Q526 339
503 392T434 477T325 508Q261 508 216 477T147 393T123 273Q123 207 146 154T215 69T325 37Q388 37 433 68ZM441 731T461 754T511 777Q539 777 570 760L607 740Q624 730 638 730Q670 730 670 777H720Q718 728 698 705T648 682Q621 682 590 699L553 719Q535 729
521 729Q489 729 489 682H439Q441 731 461 754Z" />
<glyph unicode="&#xf6;" glyph-name="odieresis" horiz-adv-x="649" d="M242 -17T184 21T96 125T67 273Q67 355 96 420T183 524T325 562Q408 562 466 524T553 421T582 273Q582 191 553 125T466 21T325 -17Q242 -17 184 21ZM388 37T433 68T502 153T526 273Q526
339 503 392T434 477T325 508Q261 508 216 477T147 393T123 273Q123 207 146 154T215 69T325 37Q388 37 433 68ZM650 788H704V677H650V788ZM455 788H509V677H455V788Z" />
<glyph unicode="&#xf7;" glyph-name="divide" horiz-adv-x="550" d="M243 190H307V39H243V190ZM67 364H483V310H67V364ZM243 635H307V484H243V635Z" />
<glyph unicode="&#xf8;" glyph-name="oslash" horiz-adv-x="649" d="M543 440Q582 370 582 273Q582 191 553 125T466 21T325 -17Q263 -17 215 4T134 65L63 0L28 34L106 105Q67 177 67 273Q67 355 96 420T183 524T325 562Q386 562 434 541T515 481L587 546L621
511L543 440ZM123 200T150 146L473 441Q419 508 325 508Q261 508 216 477T147 393T123 273Q123 200 150 146ZM526 345T499 400L176 104Q232 37 325 37Q388 37 433 68T502 153T526 273Q526 345 499 400Z" />
<glyph unicode="&#xf9;" glyph-name="ugrave" horiz-adv-x="612" d="M512 546V0H458V66Q420 31 374 10T284 -12Q187 -12 141 40T95 216V546H149V216Q149 151 161 114T203 59T284 42Q331 42 375 63T458 120V546H512ZM414 809H482L590 656H535L414 809Z" />
<glyph unicode="&#xfa;" glyph-name="uacute" horiz-adv-x="612" d="M512 546V0H458V66Q420 31 374 10T284 -12Q187 -12 141 40T95 216V546H149V216Q149 151 161 114T203 59T284 42Q331 42 375 63T458 120V546H512ZM633 809H701L580 656H525L633 809Z" />
<glyph unicode="&#xfb;" glyph-name="ucircumflex" horiz-adv-x="612" d="M512 546V0H458V66Q420 31 374 10T284 -12Q187 -12 141 40T95 216V546H149V216Q149 151 161 114T203 59T284 42Q331 42 375 63T458 120V546H512ZM637 656L557 770L476 656H408L529 809H584L705
656H637Z" />
<glyph unicode="&#xfc;" glyph-name="udieresis" horiz-adv-x="612" d="M512 546V0H458V66Q420 31 374 10T284 -12Q187 -12 141 40T95 216V546H149V216Q149 151 161 114T203 59T284 42Q331 42 375 63T458 120V546H512ZM627 788H681V677H627V788ZM432 788H486V677H432V788Z"
/>
<glyph unicode="&#xfd;" glyph-name="yacute" horiz-adv-x="535" d="M515 546L260 -89Q229 -167 214 -195T176 -237T107 -251Q86 -251 66 -247V-193Q86 -197 112 -197Q134 -197 148 -187T173 -156T204 -84L239 3L20 546H78L268 75L457 546H515ZM599 809H667L546
656H491L599 809Z" />
<glyph unicode="&#xfe;" glyph-name="thorn" horiz-adv-x="623" d="M427 562T491 488T556 272Q556 131 492 57T318 -17Q276 -17 234 3T154 57V-234H100V846H154V488Q192 522 234 542T318 562Q427 562 491 488ZM408 37T454 97T500 272Q500 388 454 448T318 508Q233
508 154 434V111Q233 37 318 37Q408 37 454 97Z" />
<glyph unicode="&#xff;" glyph-name="ydieresis" horiz-adv-x="535" d="M515 546L260 -89Q229 -167 214 -195T176 -237T107 -251Q86 -251 66 -247V-193Q86 -197 112 -197Q134 -197 148 -187T173 -156T204 -84L239 3L20 546H78L268 75L457 546H515ZM593 788H647V677H593V788ZM398
788H452V677H398V788Z" />
<glyph unicode="&#x2013;" glyph-name="endash" horiz-adv-x="500" d="M0 323H500V269H0V323Z" />
<glyph unicode="&#x2014;" glyph-name="emdash" horiz-adv-x="1000" d="M125 323H875V269H125V323Z" />
<glyph unicode="&#x2018;" glyph-name="quoteleft" horiz-adv-x="284" d="M147 456H207L141 758H87L147 456Z" />
<glyph unicode="&#x2019;" glyph-name="quoteright" horiz-adv-x="284" d="M137 758H197L131 456H77L137 758Z" />
<glyph unicode="&#x201a;" glyph-name="quotesinglbase" horiz-adv-x="284" d="M137 151H197L131 -151H77L137 151Z" />
<glyph unicode="&#x201c;" glyph-name="quotedblleft" horiz-adv-x="444" d="M141 758L207 456H147L87 758H141ZM367 456H307L247 758H301L367 456Z" />
<glyph unicode="&#x201d;" glyph-name="quotedblright" horiz-adv-x="444" d="M137 758H197L131 456H77L137 758ZM297 758H357L291 456H237L297 758Z" />
<glyph unicode="&#x201e;" glyph-name="quotedblbase" horiz-adv-x="444" d="M137 151H197L131 -151H77L137 151ZM357 151L291 -151H237L297 151H357Z" />
<glyph unicode="&#x2022;" glyph-name="bullet" horiz-adv-x="347" d="M129 272T97 304T65 381Q65 426 97 457T174 489Q220 489 251 458T282 381Q282 336 251 304T174 272Q129 272 97 304Z" />
<glyph unicode="&#x2039;" glyph-name="guilsinglleft" horiz-adv-x="490" d="M175 270L365 74L326 36L120 249V291L326 504L365 466L175 270Z" />
<glyph unicode="&#x203a;" glyph-name="guilsinglright" horiz-adv-x="490" d="M315 270L125 74L164 36L370 249V291L164 504L125 466L315 270Z" />
</font>
</defs>
</svg>
