<?xml version="1.0" standalone="no"?>
<!DOCTYPE svg PUBLIC "-//W3C//DTD SVG 1.1//EN" "http://www.w3.org/Graphics/SVG/1.1/DTD/svg11.dtd">
<svg xmlns="http://www.w3.org/2000/svg">
<defs >
<font id="UncialAntiqua" horiz-adv-x="1167" ><font-face
    font-family="Uncial Antiqua"
    units-per-em="2048"
    panose-1="2 0 5 5 0 0 0 2 0 4"
    ascent="2019"
    descent="-676"
    alphabetic="0" />
<glyph unicode=" " glyph-name="space" horiz-adv-x="512" />
<glyph unicode="!" glyph-name="exclam" horiz-adv-x="586" d="M369 453Q368 445 348 433T302 407T253 380T223 358L154 1434H428L369 453ZM143 125Q143 157 155 185T189 235T238 268T299 281Q331 281 359 269T409 235T442 186T455 125Q455 93 443 65T409 15T360
-18T299 -31Q267 -31 239 -19T189 15T156 64T143 125Z" />
<glyph unicode="&quot;" glyph-name="quotedbl" horiz-adv-x="711" d="M268 991H162L100 1434H326L268 991ZM551 991H444L383 1434H608L551 991Z" />
<glyph unicode="#" glyph-name="numbersign" horiz-adv-x="1020" d="M621 1282L524 963H653L750 1282H891L795 963H922L885 827H756L674 553H809L770 418H633L549 131H406L492 418H362L279 131H135L221 418H96L135 553H260L342 827H211L248 963H383L479 1282H621ZM403
553H530L612 827H485L403 553Z" />
<glyph unicode="$" glyph-name="dollar" horiz-adv-x="870" d="M467 1108Q478 1110 488 1110T510 1110Q575 1110 624 1104T707 1098Q700 1073 698 1051T696 1010Q696 988 699 968T711 924H686Q673 951 662 975T630 1016T571 1044T467 1057V795H471Q496 793 529
789T596 777T665 754T725 717T768 663T784 588Q784 523 758 479T687 405T586 361T467 338V0H403V334Q377 332 353 332T305 332Q255 332 225 335T174 342T142 349T115 352Q121 375 123 395T125 432Q125 455 121 475T111 518L135 520Q150 487 179 462T245 419T322
392T399 383H403V662H399Q355 666 303 674T204 704T127 763T96 866Q96 926 124 968T196 1038T294 1081T403 1104V1436H467V1108ZM584 537Q584 564 576 583T551 615T514 637T467 651V391Q523 407 553 445T584 537ZM299 928Q299 898 308 877T332 841T365 818T403
805V1051Q383 1045 365 1035T332 1009T308 974T299 928Z" />
<glyph unicode="%" glyph-name="percent" horiz-adv-x="1700" d="M807 811Q807 730 774 674T687 583T568 532T440 516Q373 516 308 533T190 586T105 677T72 809Q72 886 104 941T189 1033T308 1086T442 1104Q508 1104 573 1088T690 1036T774 945T807 811ZM631 811Q631
858 618 901T580 977T519 1029T438 1049Q395 1049 360 1031T300 982T262 908T248 815Q248 764 261 720T300 642T359 589T436 569Q477 569 512 587T574 638T616 715T631 811ZM1628 270Q1628 189 1595 133T1508 42T1390 -9T1262 -25Q1195 -25 1129 -8T1011 46T926
137T893 268Q893 345 925 400T1010 492T1129 545T1264 563Q1330 563 1395 547T1512 495T1596 404T1628 270ZM1452 270Q1452 317 1439 360T1401 436T1341 488T1260 508Q1217 508 1182 491T1121 442T1083 367T1069 274Q1069 223 1082 179T1121 101T1180 49T1257 29Q1298
29 1333 47T1395 98T1437 174T1452 270ZM1473 1075L399 0H225L1298 1075H1473Z" />
<glyph unicode="&amp;" glyph-name="ampersand" horiz-adv-x="1569" d="M430 825Q400 855 370 888T314 957T274 1034T258 1118Q258 1214 298 1280T404 1387T551 1446T715 1464Q769 1464 824 1456T931 1431T1028 1387T1106 1322T1159 1233T1178 1118Q1178 1056
1153 1001T1082 897T971 810T825 739L1186 362Q1218 425 1235 491T1253 621L1505 504Q1468 425 1421 356T1315 227L1534 0H1229L1141 90Q1047 33 939 2T713 -29Q637 -29 562 -21T418 8T290 60T188 140T119 252T94 401Q94 465 115 525T179 639T288 736T444 809L430
825ZM387 369Q387 314 409 256T474 149T576 69T713 37Q812 35 898 75T1053 182L598 651Q490 597 439 529T387 369ZM948 1157Q948 1232 926 1279T869 1352T794 1388T715 1397Q674 1397 634 1385T561 1344T508 1269T487 1153Q487 1119 511 1080T569 1002T638 929T696
872Q746 890 791 917T872 979T927 1059T948 1157Z" />
<glyph unicode="&apos;" glyph-name="quotesingle" horiz-adv-x="428" d="M268 991H162L100 1434H326L268 991Z" />
<glyph unicode="(" glyph-name="parenleft" horiz-adv-x="670" d="M647 -178H584Q485 -124 394 -39T232 160T120 418T78 731Q78 895 118 1027T227 1269T388 1472T584 1653H647Q566 1550 504 1412Q477 1353 452 1281T406 1123T374 939T362 731Q362 617 374 518T406
333T451 176T504 48Q566 -85 647 -178Z" />
<glyph unicode=")" glyph-name="parenright" horiz-adv-x="670" d="M23 -178Q103 -85 165 48Q192 105 217 176T263 332T295 517T307 731Q307 841 295 939T263 1122T218 1280T165 1412Q103 1550 23 1653H86Q155 1595 219 1535T340 1408T442 1269T522 1113T573 935T592
731Q592 561 550 418T438 161T277 -39T86 -178H23Z" />
<glyph unicode="*" glyph-name="asterisk" horiz-adv-x="836" d="M739 1130L479 1098L676 938L520 819L416 1051L313 819L158 938L354 1098L96 1130L156 1313L379 1171L319 1434H514L455 1171L676 1313L739 1130Z" />
<glyph unicode="+" glyph-name="plus" horiz-adv-x="1083" d="M412 623H80V758H412V1151H670V758H1004V623H670V227H412V623Z" />
<glyph unicode="," glyph-name="comma" horiz-adv-x="492" d="M133 -197Q158 -164 165 -127T165 -51T138 27T86 104L244 262L401 104Q388 66 366 25T314 -59T244 -144T158 -225L133 -197Z" />
<glyph unicode="-" glyph-name="hyphen" horiz-adv-x="1243" d="M1083 758V623H160V758H1083Z" />
<glyph unicode="." glyph-name="period" horiz-adv-x="528" d="M109 125Q109 157 121 185T154 235T203 268T264 281Q296 281 324 269T374 235T407 186T420 125Q420 93 408 65T374 15T325 -18T264 -31Q232 -31 204 -19T154 15T121 64T109 125Z" />
<glyph unicode="/" glyph-name="slash" horiz-adv-x="997" d="M936 1434L315 0H59L680 1434H936Z" />
<glyph unicode="0" glyph-name="zero" horiz-adv-x="1634" d="M1532 541Q1532 438 1502 356T1420 210T1298 102T1149 27T985 -15T817 -29Q730 -29 643 -15T477 30T328 107T209 217T129 360T100 539Q100 638 129 718T209 862T329 971T479 1047T647 1091T823 1106Q908
1106 994 1092T1159 1049T1306 974T1424 866T1503 722T1532 541ZM1221 541Q1221 639 1193 729T1113 887T984 997T813 1038Q723 1038 649 1001T523 898T441 743T412 549Q412 444 441 351T522 188T647 78T809 37Q895 37 970 75T1101 182T1189 342T1221 541Z" />
<glyph unicode="1" glyph-name="one" horiz-adv-x="811" d="M758 37V0H78V37Q135 38 171 47T228 70T258 103T270 143V936Q267 959 258 977T227 1009T169 1030T78 1038V1075H565V178Q565 149 571 123T598 78T657 48T758 37Z" />
<glyph unicode="2" glyph-name="two" horiz-adv-x="1432" d="M1327 719Q1327 635 1294 575T1204 472T1072 399T914 345T745 297T579 244T431 175T317 78H1341Q1303 41 1277 -8T1235 -102Q1217 -155 1206 -209L1159 -219Q1164 -201 1165 -183T1167 -152Q1167 -101
1142 -71T1068 -25T952 -5T799 0H86Q165 89 246 152T407 262T560 341T699 403T819 461T913 528T973 617T995 741Q995 793 980 849T929 953T838 1032T700 1063Q624 1063 567 1039T467 977T398 893T353 804T327 724T317 670L106 788Q167 879 230 942T366 1045T523
1102T709 1120Q836 1120 948 1098T1145 1027T1278 903T1327 719Z" />
<glyph unicode="3" glyph-name="three" horiz-adv-x="1487" d="M684 -383Q584 -383 489 -361T311 -295T158 -183T41 -25L297 98Q307 20 339 -55T423 -189T543 -285T696 -322Q730 -322 773 -314T861 -287T948 -239T1024 -168T1078 -70T1098 57Q1098 125 1082 177T1038
267T973 331T892 372T803 394T711 401H514V500H711Q784 500 837 521T926 579T979 663T997 764Q997 827 974 879T911 969T817 1028T698 1049Q647 1049 595 1034T495 987T407 907T338 793L166 918Q212 962 267 997T389 1058T534 1096T705 1110Q773 1110 844 1102T982
1077T1108 1033T1211 966T1281 875T1307 758Q1307 697 1286 649T1232 563T1157 500T1077 459Q1148 444 1208 413T1313 335T1383 226T1409 86Q1409 0 1376 -67T1286 -187T1157 -277T1003 -337T840 -372T684 -383Z" />
<glyph unicode="4" glyph-name="four" horiz-adv-x="1370" d="M1284 -406H743V-369Q782 -369 808 -361T850 -340T872 -310T879 -272V0H12Q92 159 169 288T323 523T479 714T643 870H709Q666 799 628 729T557 591T495 461T443 344Q388 216 348 102H879V1075H1149V102H1249V0H1149V-270Q1149
-285 1154 -302T1175 -334T1216 -359T1284 -369V-406Z" />
<glyph unicode="5" glyph-name="five" horiz-adv-x="1462" d="M1397 98Q1397 1 1367 -73T1284 -202T1164 -293T1018 -352T859 -383T702 -393Q602 -393 500 -373T307 -311T143 -208T29 -61L260 49Q278 -20 316 -87T410 -208T540 -295T702 -328Q764 -328 833 -306T959
-234T1054 -108T1092 78Q1092 172 1068 246T996 372T874 451T702 479Q652 479 604 472T509 451T419 422T339 389Q252 349 174 299L326 1075H1288Q1268 1035 1258 990T1242 906T1236 840T1235 809L1200 803Q1186 870 1149 912T1062 977T955 1009T844 1018H580L492
512Q546 532 595 540T702 549Q836 549 939 530T1120 477T1250 399T1335 304T1382 201T1397 98Z" />
<glyph unicode="6" glyph-name="six" horiz-adv-x="1542" d="M1438 492Q1438 402 1411 329T1336 197T1224 97T1087 26T934 -15T778 -29Q700 -29 621 -14T467 34T327 121T214 253T137 435T109 672Q109 858 160 1006T306 1259T531 1419T823 1475Q925 1475 1002 1463T1146
1419T1275 1335T1409 1202L1206 1079Q1186 1152 1157 1214T1085 1321T987 1391T856 1417Q762 1417 686 1373T553 1248T462 1055T420 807Q463 858 518 890T633 941T750 967T858 975Q979 975 1084 949T1268 865T1392 715T1438 492ZM1126 471Q1126 587 1096 668T1017
800T906 874T778 897Q715 897 655 869T546 787T469 654T440 471Q440 359 470 276T548 137T656 55T778 27Q839 27 901 54T1013 137T1094 275T1126 471Z" />
<glyph unicode="7" glyph-name="seven" horiz-adv-x="1180" d="M1180 1075V999Q980 675 827 336T567 -365H254Q329 -185 405 -10T568 337T757 673T987 997H504Q451 997 392 989T275 956T163 889T66 776L25 782Q51 824 66 875T88 971Q96 1023 98 1075H1180Z" />
<glyph unicode="8" glyph-name="eight" horiz-adv-x="1563" d="M1153 412Q1153 495 1126 560T1048 672T929 742T776 766Q702 766 635 740T518 668T438 556T408 412Q408 334 430 266T497 146T612 66T776 37Q875 37 946 67T1063 148T1131 268T1153 412ZM518 813Q457
822 403 849T307 915T241 1000T217 1094Q217 1167 242 1223T309 1320T408 1388T526 1433T652 1457T776 1464Q836 1464 901 1458T1029 1436T1148 1393T1248 1325T1316 1227T1341 1094Q1341 1048 1317 1002T1252 916T1159 850T1051 813Q1127 805 1201 772T1334 687T1429
566T1466 422Q1466 325 1436 254T1354 132T1234 51T1089 2T932 -22T776 -29Q704 -29 626 -21T472 7T328 60T209 143T127 262T96 422Q96 499 134 567T234 687T370 773T518 813ZM776 1397Q715 1397 666 1376T581 1318T526 1228T506 1114Q506 1052 524 999T576 907T661
846T776 823Q846 823 898 845T984 905T1036 997T1053 1114Q1053 1179 1034 1231T979 1320T892 1377T776 1397Z" />
<glyph unicode="9" glyph-name="nine" horiz-adv-x="1505" d="M88 590Q88 679 115 752T190 884T302 984T439 1055T591 1096T748 1110Q826 1110 905 1095T1059 1047T1199 960T1312 828T1389 647T1417 410Q1417 224 1365 76T1219 -177T994 -337T702 -393Q601 -393
524 -381T380 -337T251 -254T117 -121L319 2Q339 -71 369 -133T441 -240T539 -310T670 -336Q764 -336 840 -292T973 -167T1063 26T1106 274Q1063 223 1008 191T893 140T776 114T668 106Q547 106 442 132T258 217T134 367T88 590ZM399 610Q399 484 429 402T508 271T619
204T748 184Q811 184 871 210T979 289T1056 422T1085 610Q1085 737 1055 822T977 960T869 1033T748 1055Q686 1055 624 1034T512 961T431 824T399 610Z" />
<glyph unicode=":" glyph-name="colon" horiz-adv-x="580" d="M133 125Q133 157 145 185T179 235T228 268T289 281Q321 281 349 269T399 235T432 186T444 125Q444 93 432 65T399 15T350 -18T289 -31Q257 -31 229 -19T179 15T146 64T133 125ZM133 733Q133 765 145
793T179 843T228 876T289 889Q321 889 349 877T399 843T432 794T444 733Q444 701 432 673T399 623T350 590T289 578Q257 578 229 590T179 623T146 672T133 733Z" />
<glyph unicode=";" glyph-name="semicolon" horiz-adv-x="573" d="M176 -197Q201 -164 208 -127T208 -51T181 27T129 104L287 262L444 104Q431 66 409 25T357 -59T287 -144T201 -225L176 -197ZM129 733Q129 765 141 793T175 843T224 876T285 889Q317 889 345 877T395
843T428 794T440 733Q440 701 428 673T395 623T346 590T285 578Q253 578 225 590T175 623T142 672T129 733Z" />
<glyph unicode="&lt;" glyph-name="less" horiz-adv-x="922" d="M786 1171V1024L205 702V690L786 375V219L72 627V768L786 1171Z" />
<glyph unicode="=" glyph-name="equal" horiz-adv-x="1300" d="M1112 553V418H188V553H1112ZM1112 963V827H188V963H1112Z" />
<glyph unicode="&gt;" glyph-name="greater" horiz-adv-x="922" d="M850 768V627L135 219V375L717 690V702L135 1024V1171L850 768Z" />
<glyph unicode="?" glyph-name="question" horiz-adv-x="1262" d="M602 397H520Q520 482 544 540T606 644T687 726T767 807T829 906T854 1044Q854 1136 830 1200T766 1303T674 1360T565 1378Q507 1378 456 1359T362 1303T286 1217T231 1104L63 1227Q114 1293 172
1337T296 1408T434 1446T584 1458Q654 1458 725 1448T862 1416T985 1359T1084 1275T1151 1162T1176 1016Q1176 940 1152 886T1087 791T995 721T889 667T784 617T692 562T627 493T602 397ZM748 150Q748 113 734 80T694 21T636 -18T565 -33Q528 -33 495 -19T437 21T398
79T383 150Q383 187 397 220T437 278T495 317T565 332Q602 332 635 318T694 278T733 220T748 150Z" />
<glyph unicode="@" glyph-name="at" horiz-adv-x="1700" d="M1278 807Q1253 797 1233 775Q1216 756 1202 723T1186 635Q1185 589 1185 539T1184 447T1184 377T1184 346Q1184 320 1193 294T1217 246T1253 212T1294 199Q1331 199 1355 225T1394 295T1415 396T1421
518Q1421 670 1382 786T1271 980T1100 1097T881 1137Q802 1137 729 1114T592 1048T476 948T386 821T328 675T307 518Q307 399 339 289T440 93T618 -44T881 -96Q906 -96 936 -92T996 -82T1050 -69T1087 -55L1108 -104Q1052 -124 998 -135T881 -147Q675 -147 527
-101T282 32T140 241T94 516Q94 626 125 718T212 883T343 1012T506 1104T689 1159T881 1178Q1036 1178 1171 1142T1408 1030T1567 835T1626 549Q1626 457 1602 380T1528 247T1405 159T1233 127Q1213 127 1183 132T1120 152T1059 194T1014 266Q1001 245 982 225T935
188T873 162T791 152Q705 152 643 180T540 254T479 358T459 477Q459 542 481 608T550 727T670 813T848 846Q896 846 934 836T1003 812T1054 783T1087 756Q1129 788 1177 805T1268 825L1278 807ZM999 383Q999 406 1000 438T1002 503T1004 567T1006 618V627Q1004
644 998 673T975 730T930 778T854 799Q808 799 771 777T707 717T666 626T651 512Q651 434 668 378T712 286T775 233T848 215Q889 215 916 232T961 274T986 329T999 383Z" />
<glyph unicode="A" glyph-name="A" horiz-adv-x="1628" d="M1741 53Q1650 16 1575 3T1440 -10Q1392 -10 1357 -5T1297 9Q1268 18 1247 29Q1203 54 1170 94T1111 180T1063 275T1022 367L997 420Q896 391 809 354T653 280T539 213T473 168Q436 127 390 95T287 41T160
6T6 -6L-4 37Q93 53 163 99T285 212T372 364T436 543Q452 597 478 657T542 773T628 879T739 963Q722 995 706 1028T674 1096Q653 1136 632 1184T583 1274T516 1344T420 1372Q380 1372 342 1363T268 1341L254 1382Q341 1411 430 1431T608 1452Q650 1452 691 1447T770
1427Q803 1415 834 1388T893 1323T945 1242T991 1156T1030 1075T1061 1008Q1149 819 1236 630T1423 256Q1441 223 1461 191T1507 134T1564 94T1634 80Q1648 80 1672 83T1726 98L1741 53ZM795 848Q769 806 748 761T708 670T675 577T645 489Q630 443 613 400T573
315Q648 359 749 407T965 489L795 848Z" />
<glyph unicode="B" glyph-name="B" horiz-adv-x="1591" d="M1360 1110Q1360 1055 1332 1003T1255 906T1143 823T1008 758Q1019 760 1030 760T1053 760Q1136 760 1217 746T1364 695T1469 592T1509 426Q1509 347 1487 285T1425 175T1333 93T1222 34T1100 -4T977
-27T863 -38T766 -41Q724 -41 679 -39T589 -32T501 -23T418 -12Q326 1 238 18L248 1255Q248 1276 241 1301T215 1347T160 1382T68 1397V1434H737Q879 1434 994 1422T1190 1375T1316 1277T1360 1110ZM1026 1112Q1026 1190 1001 1241T935 1322T842 1364T737 1376Q683
1376 649 1365T595 1334T568 1290T561 1237L557 76Q591 58 634 45Q671 33 722 24T836 14Q891 14 955 33T1074 93T1165 196T1202 344Q1202 415 1184 467T1135 557T1064 619T980 656T890 675T803 680Q771 680 743 678T694 673Q669 669 649 666L633 705Q743 718 829
766Q866 786 901 816T964 888T1009 985T1026 1112Z" />
<glyph unicode="C" glyph-name="C" horiz-adv-x="1507" d="M1417 1116L1372 1114Q1343 1177 1297 1226T1193 1309T1071 1360T944 1378Q868 1378 801 1348T678 1266T578 1145T503 997T456 834T440 670Q440 589 459 511T513 363T599 233T713 131T851 63T1010 39Q1086
39 1144 53T1244 90T1316 138T1364 189T1392 231T1407 256L1391 115Q1365 80 1320 51T1213 -1T1078 -36T920 -49Q810 -49 707 -27T512 36T346 137T216 274T130 442T98 639Q101 801 154 930T297 1156T506 1316T760 1411Q831 1428 923 1433T1108 1438Q1198 1438 1277
1436T1411 1434Q1400 1387 1396 1351T1391 1282Q1391 1237 1398 1199T1417 1116Z" />
<glyph unicode="D" glyph-name="D" horiz-adv-x="1825" d="M797 -49Q652 -49 524 0T299 137T146 348T90 616Q90 753 147 875T310 1098T567 1277T905 1403L829 1456Q758 1504 727 1569T696 1704Q696 1754 710 1803T751 1894T812 1968T889 2019L913 1982Q846 1934
846 1872Q846 1815 898 1750T1049 1614Q1216 1492 1342 1385T1554 1171T1684 956T1731 719Q1731 590 1694 484T1592 292T1438 142T1245 36T1027 -28T797 -49ZM1393 637Q1393 737 1372 826T1302 1002T1174 1173T977 1348Q898 1331 827 1296T695 1210T585 1096T501
961T447 812T428 655Q428 577 445 502T493 358T571 231T674 131T800 65T946 41Q1039 41 1120 84T1262 206T1358 394T1393 637Z" />
<glyph unicode="E" glyph-name="E" horiz-adv-x="1509" d="M1372 1114Q1343 1177 1297 1226T1193 1309T1071 1360T944 1378Q875 1378 814 1354T701 1287T605 1186T530 1060T476 918T446 770H1298Q1277 728 1266 682T1250 595Q1244 548 1243 504L1210 498Q1197
562 1178 604T1121 670T1020 703T854 713H440V670Q440 589 459 511T513 363T599 233T713 131T851 63T1010 39Q1086 39 1144 53T1244 90T1316 138T1364 189T1392 231T1407 256L1391 115Q1368 83 1324 54T1220 1T1084 -37T922 -51Q755 -51 607 -2T346 137T167 354T98
639Q101 801 154 930T297 1156T506 1316T760 1411Q831 1428 923 1433T1108 1438Q1198 1438 1277 1436T1411 1434Q1400 1387 1396 1351T1391 1282Q1391 1237 1398 1199T1417 1116L1372 1114Z" />
<glyph unicode="F" glyph-name="F" horiz-adv-x="1368" d="M68 1434H1335Q1315 1394 1305 1349T1289 1264T1283 1198T1282 1167L1247 1161Q1233 1228 1196 1270T1109 1335T1002 1367T891 1376H561V647H1206Q1185 605 1174 559T1158 473Q1152 426 1151 381L1118
375Q1107 429 1092 465T1052 526T988 563T891 582T752 589T561 590V-113Q561 -135 544 -162T500 -223T439 -293T369 -372T301 -459T244 -553V1266Q244 1286 237 1309T210 1351T156 1384T68 1397V1434Z" />
<glyph unicode="G" glyph-name="G" horiz-adv-x="1716" d="M733 606Q761 634 807 669T918 736T1068 788T1257 809Q1332 809 1404 791T1532 731T1624 625T1659 465Q1659 388 1626 320T1535 195T1399 92T1232 15T1045 -34T852 -51Q747 -51 651 -30T471 31T319 131T201
267T125 437T98 639Q100 748 128 842T205 1015T320 1158T464 1272T627 1356T801 1411Q837 1420 879 1425T967 1433T1061 1437T1157 1438Q1248 1438 1330 1436T1468 1434Q1457 1387 1453 1351T1448 1282Q1448 1237 1455 1199T1475 1116L1430 1114Q1400 1178 1352
1226T1246 1307T1123 1356T993 1372Q888 1372 807 1338T664 1248T560 1118T491 967T452 810T440 666Q440 531 479 417T586 219T748 88T952 41Q1030 41 1089 59T1190 108T1261 177T1306 259T1330 343T1337 420Q1337 478 1318 530T1263 621T1175 682T1055 705Q996
705 946 690T858 654T793 613T754 582L733 606Z" />
<glyph unicode="H" glyph-name="H" horiz-adv-x="1819" d="M737 0H68V37Q122 37 156 48T210 79T237 123T244 176V1673Q244 1693 237 1716T210 1758T156 1791T68 1804V1841H561V1329Q595 1358 638 1384T734 1431T849 1463T985 1475Q1075 1475 1165 1456T1337 1399T1491
1305T1614 1173T1696 1005T1726 801Q1726 680 1692 579T1603 394T1476 244T1331 126Q1157 6 936 -66L907 -41Q1038 34 1141 155Q1185 206 1227 273T1302 423T1355 605T1376 823Q1376 968 1345 1077T1257 1258T1125 1367T958 1403Q877 1403 806 1375T681 1294T596
1167T561 999V176Q561 156 567 132T592 87T645 52T737 37V0Z" />
<glyph unicode="I" glyph-name="I" horiz-adv-x="829" d="M750 0H80V37Q134 37 168 48T222 79T249 123T256 176V1266Q256 1286 249 1309T222 1351T168 1384T80 1397V1434H750V1397Q695 1397 661 1386T607 1355T580 1310T573 1257V176Q573 156 579 132T604 87T658
52T750 37V0Z" />
<glyph unicode="J" glyph-name="J" horiz-adv-x="795" d="M68 1434H737V1397Q684 1397 650 1386T596 1356T569 1313T561 1262V573Q561 393 535 248T467 -13T371 -217T261 -370Q129 -521 -39 -594L-57 -561Q27 -481 93 -354Q121 -300 148 -231T196 -77T231 111T244
334V1266Q244 1286 237 1309T210 1351T156 1384T68 1397V1434Z" />
<glyph unicode="K" glyph-name="K" horiz-adv-x="1651" d="M737 0H68V37Q121 37 155 47T209 76T236 119T244 170V1673Q244 1693 237 1716T210 1758T156 1791T68 1804V1841H561V176Q561 156 567 132T592 87T645 52T737 37V0ZM1700 12Q1609 -25 1531 -38T1389 -51Q1300
-51 1219 -17T1066 73T929 201T807 348T699 498T604 631Q718 720 819 822Q862 865 906 915T991 1021T1066 1136T1122 1257Q1124 1262 1125 1267T1126 1278Q1126 1296 1117 1317T1086 1356T1030 1385T946 1397V1434H1495Q1462 1302 1403 1192T1267 991T1102 832T922
713Q1039 580 1138 458T1321 243T1472 95T1593 39Q1607 39 1632 42T1686 57L1700 12Z" />
<glyph unicode="L" glyph-name="L" horiz-adv-x="1241" d="M68 1841H561V78H1288Q1250 41 1224 -8T1182 -102Q1164 -155 1153 -209L1106 -219Q1111 -201 1112 -183T1114 -150Q1114 -84 1073 -52T954 -9T766 2T516 0H68V37Q121 37 155 47T209 76T236 119T244 170V1673Q244
1693 237 1716T210 1758T156 1791T68 1804V1841Z" />
<glyph unicode="M" glyph-name="M" horiz-adv-x="2617" d="M1133 762Q1133 841 1127 919T1105 1069T1065 1202T1004 1309T920 1381T809 1407Q720 1407 650 1356T529 1218T453 1019T426 784Q426 649 455 540T530 344T628 194T727 88T807 24T846 0H463Q444 9 411
40T337 120T255 234T179 377T124 543T102 727Q102 785 112 863T151 1023T227 1186T351 1329T531 1431T778 1470Q872 1470 948 1453T1087 1405T1197 1333T1282 1245Q1319 1292 1370 1333T1487 1404T1636 1452T1823 1470Q1961 1470 2066 1439T2249 1356T2378 1235T2461
1092T2506 941T2519 797Q2519 671 2481 568T2383 382T2249 235T2101 125T1965 48T1862 0H1774Q1779 2 1812 24T1892 90T1992 198T2090 351T2165 550T2195 799Q2195 940 2162 1053T2074 1244T1945 1365T1792 1407Q1728 1407 1678 1381T1590 1310T1526 1203T1482
1070T1458 920T1450 762V0H1133V762Z" />
<glyph unicode="N" glyph-name="N" horiz-adv-x="1673" d="M82 1434H584L1341 514V1266Q1341 1286 1334 1309T1307 1351T1253 1384T1165 1397V1434H1608V1397Q1553 1397 1519 1386T1466 1355T1439 1310T1432 1257V0H1341L348 1198V176Q348 156 354 132T379 87T432
52T524 37V0H82V37Q136 37 170 48T224 79T251 123T258 176V1307Q234 1334 214 1351T174 1378T131 1393T82 1397V1434Z" />
<glyph unicode="O" glyph-name="O" horiz-adv-x="1761" d="M96 717Q96 800 119 887T187 1056T298 1210T451 1337T645 1422T877 1454Q1006 1454 1114 1425T1310 1345T1464 1224T1575 1073T1642 900T1665 717Q1665 629 1643 539T1576 365T1465 207T1311 78T1115
-9T877 -41Q750 -41 643 -10T450 77T297 206T186 364T119 538T96 717ZM440 721Q440 636 449 553T480 395T534 255T616 142T727 66T870 37Q950 37 1015 65T1130 143T1216 258T1276 398T1311 553T1325 711Q1325 790 1316 870T1285 1023T1229 1161T1146 1272T1033
1347T887 1374Q807 1374 744 1350T631 1282T546 1178T487 1045T453 890T440 721Z" />
<glyph unicode="P" glyph-name="P" horiz-adv-x="1716" d="M1616 758Q1616 597 1558 453T1390 198T1121 24T760 -41Q709 -41 659 -36T561 -16V-227Q561 -251 545 -279T502 -339T441 -409T372 -489T303 -577T244 -676V1266Q244 1286 237 1309T210 1351T156 1384T68
1397V1434H561Q623 1434 701 1430T866 1415T1041 1382T1213 1326T1369 1241T1498 1122T1584 963T1616 758ZM1288 682Q1288 817 1253 918T1160 1093T1026 1216T870 1295T709 1340T561 1360V78Q617 47 683 37T809 27Q903 27 975 57T1101 137T1190 254T1247 394T1278
541T1288 682Z" />
<glyph unicode="Q" glyph-name="Q" horiz-adv-x="1714" d="M1649 1397Q1594 1397 1560 1384T1507 1352T1480 1309T1473 1266V-227Q1473 -251 1457 -279T1413 -339T1352 -409T1283 -489T1214 -577T1155 -676V-16Q1107 -30 1057 -35T956 -41Q754 -41 595 23T326
198T158 452T100 758Q100 873 131 963T218 1122T346 1241T503 1325T675 1381T850 1414T1014 1430T1155 1434H1649V1397ZM907 27Q966 27 1032 37T1155 78V1360Q1087 1355 1007 1341T847 1296T691 1216T557 1093T463 918T428 682Q428 615 437 541T468 394T526 255T615
138T740 57T907 27Z" />
<glyph unicode="R" glyph-name="R" horiz-adv-x="1573" d="M1567 12Q1476 -25 1403 -38T1274 -51Q1204 -51 1135 -14T1001 80T879 208T777 345T700 467T655 549Q782 570 882 625Q925 649 966 682T1039 760T1090 863T1110 995Q1110 1062 1093 1116T1048 1213T983
1286T906 1337T826 1366T750 1376Q697 1376 663 1365T608 1336T581 1293T573 1241V176Q573 156 579 132T604 87T658 52T750 37V0H80V37Q133 37 167 47T221 76T248 119T256 170V1266Q256 1286 249 1309T222 1351T168 1384T80 1397V1434H750Q892 1434 1018 1409T1238
1331T1388 1194T1444 993Q1444 894 1404 820T1297 693T1146 606T973 551Q1007 489 1048 427T1134 308T1224 202T1313 117T1393 60T1460 39Q1474 39 1498 42T1552 57L1567 12Z" />
<glyph unicode="S" glyph-name="S" horiz-adv-x="1442" d="M496 -27Q403 -27 345 -23T249 -14T187 -4T137 0Q148 45 153 82T158 152Q158 197 150 235T131 317L176 319Q204 256 260 204T385 113T529 53T672 31Q753 31 821 59T938 133T1014 239T1042 362Q1042 431
1011 474T927 544T807 583T668 604Q615 610 553 618T427 642T306 684T203 752T131 852T104 993Q104 1090 142 1162T242 1285T386 1370T552 1423T722 1450T877 1458Q938 1458 991 1454T1090 1446T1174 1438T1245 1434Q1234 1387 1230 1351T1225 1280Q1225 1237 1232
1199T1251 1116L1206 1114Q1190 1151 1176 1187T1143 1254T1095 1312T1022 1358T913 1388T756 1399Q694 1399 636 1377T532 1317T458 1225T430 1108Q430 1053 450 1014T504 948T578 904T661 878T740 864T803 858Q850 854 910 846T1032 822T1153 778T1259 708T1334
605T1362 461Q1362 352 1325 274T1223 141T1074 54T892 3T694 -21T496 -27Z" />
<glyph unicode="T" glyph-name="T" horiz-adv-x="1466" d="M1102 0H432V37Q487 37 521 48T574 79T601 123T608 176V1356H481Q428 1356 370 1348T253 1315T141 1247T43 1135L2 1141Q29 1183 43 1233T66 1329Q74 1381 76 1434H1470Q1456 1406 1448 1376T1435 1317T1429
1261T1427 1214Q1427 1203 1427 1195T1428 1180Q1429 1173 1430 1167L1393 1161Q1389 1206 1368 1238T1315 1291T1245 1326T1171 1345T1102 1354T1051 1356H926V176Q926 156 932 132T957 87T1010 52T1102 37V0Z" />
<glyph unicode="U" glyph-name="U" horiz-adv-x="1833" d="M1083 1434H1753V1397Q1699 1397 1665 1386T1611 1355T1584 1310T1577 1257V176Q1577 156 1583 132T1608 87T1661 52T1753 37V0H1260V150Q1224 111 1181 77T1086 16T971 -25T836 -41Q746 -41 656 -22T484
35T330 129T207 260T124 428T94 633Q94 753 121 854T194 1039T298 1189T417 1307Q560 1427 741 1499L768 1475Q764 1472 739 1449T678 1381T601 1268T525 1104T467 886T444 610Q444 465 475 357T563 176T695 67T862 31Q943 31 1015 62T1141 149T1228 282T1260 453V1257Q1260
1277 1254 1301T1229 1347T1175 1382T1083 1397V1434Z" />
<glyph unicode="V" glyph-name="V" horiz-adv-x="1630" d="M-68 1434H623V1397Q585 1397 561 1392T523 1377T504 1354T498 1323Q498 1309 499 1294T506 1260Q578 969 682 690T922 135Q989 266 1054 405T1176 689T1278 980T1352 1276V1286Q1352 1310 1343 1330T1314
1365T1261 1388T1180 1397V1434H1622Q1587 1324 1541 1204T1442 962T1330 716T1214 478T1099 256T993 61L639 0Q487 311 371 626T170 1264Q161 1285 144 1308T97 1351T28 1384T-68 1397V1434Z" />
<glyph unicode="W" glyph-name="W" horiz-adv-x="2273" d="M-63 1434H606V1397Q568 1397 543 1392T504 1376T483 1352T477 1321V1313Q511 1168 550 1034T633 761T724 474T823 152Q880 307 922 441T995 693T1047 913T1085 1108L1049 1257Q1042 1278 1026 1302T981
1348T912 1383T813 1397V1434H1483V1397Q1444 1397 1419 1392T1380 1376T1360 1352T1354 1321V1309Q1386 1165 1419 1031T1489 759T1567 473T1659 152Q1730 346 1783 508T1875 809T1941 1063T1987 1282V1286Q1987 1310 1978 1330T1949 1365T1896 1388T1815 1397V1434H2257Q2205
1269 2141 1095T2007 746T1863 398T1720 61L1386 0Q1320 215 1266 408T1163 786Q1098 600 1029 418T885 61L551 0Q497 175 447 335T349 648T257 951T174 1257H172Q165 1278 149 1302T105 1348T35 1383T-63 1397V1434Z" />
<glyph unicode="X" glyph-name="X" horiz-adv-x="1563" d="M51 37Q108 37 156 50T243 85T310 130T354 176L664 606Q634 664 602 728T537 856T475 981T420 1096Q398 1139 372 1188T314 1278T243 1347T156 1374Q115 1374 77 1364T4 1341L-10 1382Q33 1397 79 1412T174
1439T270 1458T365 1466Q410 1466 450 1458T526 1427Q562 1406 600 1359T676 1254T749 1130T817 1008Q831 980 845 954T874 901L1130 1257Q1138 1266 1147 1279T1164 1306T1177 1332T1182 1354Q1182 1374 1160 1385T1081 1397V1434H1546V1397Q1489 1397 1441 1383T1353
1348T1286 1303T1243 1257L922 809Q955 744 988 678T1059 544T1139 404T1231 256Q1253 221 1279 190T1332 134T1388 95T1442 80Q1456 80 1480 83T1534 98L1548 53Q1457 16 1384 3T1255 -10Q1210 -10 1178 -5T1122 9Q1096 18 1077 29Q1033 54 993 94T915 182T847
277T791 367Q778 385 758 424T711 514L453 158Q437 136 427 116T416 80Q416 60 438 49T516 37V0H51V37Z" />
<glyph unicode="Y" glyph-name="Y" horiz-adv-x="1503" d="M1081 0H412V37Q465 37 499 47T553 76T580 119T588 170V586L182 1257H180Q168 1277 148 1301T96 1347T22 1382T-78 1397V1434H612V1397Q546 1397 522 1381T498 1339Q498 1321 506 1300T526 1257L881 694Q973
809 1054 947T1210 1257Q1227 1293 1227 1319Q1227 1353 1196 1375T1087 1397V1434H1530Q1464 1327 1390 1214T1236 992T1073 780T905 594V168Q905 148 912 125T938 83T992 50T1081 37V0Z" />
<glyph unicode="Z" glyph-name="Z" horiz-adv-x="1434" d="M80 0L59 55V57H61L1051 1376H504Q450 1376 393 1368T285 1336T198 1270T147 1161L113 1167Q113 1171 112 1198T106 1264T90 1348T59 1434H1352L1372 1376L373 57H930Q984 57 1041 65T1148 97T1235 163T1286
272L1321 266Q1321 262 1322 235T1328 169T1343 85T1374 0H80Z" />
<glyph unicode="[" glyph-name="bracketleft" horiz-adv-x="737" d="M694 -205H180V1638H694V1565H465V-131H694V-205Z" />
<glyph unicode="\" glyph-name="backslash" horiz-adv-x="997" d="M317 1434L938 0H682L61 1434H317Z" />
<glyph unicode="]" glyph-name="bracketright" horiz-adv-x="737" d="M43 -131H272V1565H43V1638H557V-205H43V-131Z" />
<glyph unicode="^" glyph-name="asciicircum" horiz-adv-x="780" d="M780 1001H530L315 1294L125 1001H0L287 1434H485L780 1001Z" />
<glyph unicode="_" glyph-name="underscore" horiz-adv-x="1423" d="M1174 -166V-301H250V-166H1174Z" />
<glyph unicode="`" glyph-name="grave" horiz-adv-x="424" d="M225 1475L424 1182H315L0 1475H225Z" />
<glyph unicode="a" glyph-name="a" horiz-adv-x="1442" d="M696 1118Q771 1118 833 1102T944 1063T1028 1014T1085 967Q1116 991 1152 1010T1225 1044T1298 1065T1368 1075L1380 1042Q1340 1026 1308 990Q1281 959 1258 905T1233 764Q1232 713 1232 658T1232 550T1231
448T1230 361T1229 300T1229 272Q1229 185 1251 131T1302 46Q1335 10 1376 -6L1364 -39Q1315 -37 1259 -22T1150 20T1052 84T979 170Q959 132 928 96T852 32T746 -13T606 -31Q476 -31 378 15T213 137T114 308T80 500Q80 573 97 647T149 789T235 918T355 1022T509
1092T696 1118ZM700 74Q770 74 816 106T889 184T930 281T948 371L956 750Q954 771 949 801T932 863T904 927T859 985T795 1026T707 1042Q632 1042 571 1004T467 901T401 748T377 563Q377 435 404 343T477 191T581 103T700 74Z" />
<glyph unicode="b" glyph-name="b" horiz-adv-x="1413" d="M90 1575H528Q528 1492 523 1422T510 1291T492 1176T471 1071Q524 1090 582 1100T709 1110Q820 1110 909 1087T1068 1024T1187 928T1269 809T1316 676T1331 537Q1331 471 1316 404T1269 273T1187 155T1068
58T909 -7T709 -31Q602 -31 515 -8T359 57T240 153T156 272T107 403T90 537V555Q91 643 102 710T130 836T164 954T197 1081T219 1237T223 1442Q222 1457 217 1473T196 1504T156 1528T90 1538V1575ZM395 541Q395 446 408 356T456 196T550 83T702 37Q763 37 811 57T895
114T956 198T997 301T1020 415T1030 532Q1030 591 1024 652T1004 769T967 875T909 961T826 1019T715 1040Q626 1040 566 1001T468 895T413 741T395 559V541Z" />
<glyph unicode="c" glyph-name="c" horiz-adv-x="1210" d="M1135 807L1102 805Q1079 852 1043 889T964 951T873 990T780 1004Q691 1004 619 959T496 843T417 682T389 506Q389 414 420 330T508 181T647 78T831 39Q915 39 970 62T1059 115T1108 171T1128 203L1114
86Q1096 60 1062 37T981 -3T877 -29T754 -39Q605 -39 483 -8T272 88T135 250T86 479Q89 597 119 687T202 844T328 956T491 1028T683 1067T899 1079Q973 1079 1028 1077T1130 1075Q1121 1040 1118 1001T1114 936Q1114 901 1119 870T1135 807Z" />
<glyph unicode="d" glyph-name="d" horiz-adv-x="1473" d="M997 162Q973 126 938 92T855 30T746 -14T608 -31Q478 -31 380 15T215 137T116 308T82 500Q82 573 96 647T141 789T217 918T327 1022T473 1092T657 1118Q715 1118 766 1109T859 1084T936 1049T997 1010V1440Q997
1455 992 1472T971 1504T930 1528T862 1538V1577H1288V135Q1288 120 1293 103T1314 72T1355 47T1423 37V0H997V162ZM682 74Q747 74 796 98T880 158T937 237T973 320T992 389T997 428V819L920 715Q915 806 888 878Q876 909 858 938T814 991T751 1028T668 1042Q593
1042 538 1004T448 901T396 748T379 563Q379 435 403 343T469 191T565 103T682 74Z" />
<glyph unicode="e" glyph-name="e" horiz-adv-x="1337" d="M397 625Q395 603 395 583T395 541Q395 446 407 356T451 196T542 83T692 37Q751 37 797 56T879 108T939 187T981 285L1217 205Q1181 154 1131 111T1017 37T873 -13T698 -31Q591 -31 504 -8T349 57T230
153T146 272T96 403T80 537Q80 600 94 666T140 797T218 917T332 1017T485 1085T678 1110Q835 1110 945 1071T1127 966T1234 811T1278 625H397ZM684 1040Q611 1040 561 1013T477 939T427 829T401 692H965Q959 764 944 827T897 937T814 1012T684 1040Z" />
<glyph unicode="f" glyph-name="f" horiz-adv-x="1075" d="M610 -406H49V-369Q91 -369 117 -361T159 -338T180 -304T186 -264V928Q186 943 181 960T160 992T119 1016T51 1026V1075H1040Q1025 1045 1018 1008T1006 938T1002 881T1001 854L975 850Q964 900 936 931T869
981T787 1005T702 1012H477V485H944Q927 453 919 415T906 343Q902 303 901 264L874 260Q862 319 842 352T780 400T665 419T477 422V-270Q477 -285 482 -302T502 -334T543 -359T610 -369V-406Z" />
<glyph unicode="g" glyph-name="g" horiz-adv-x="1260" d="M29 1012Q57 1067 64 1121T72 1217Q72 1228 72 1236T71 1251Q70 1258 70 1264L106 1270Q110 1225 131 1193T184 1140T254 1105T329 1086T397 1077T449 1075H1210Q1183 1019 1175 965T1167 870Q1167 859
1167 851T1168 836Q1168 829 1169 823L1133 817Q1129 862 1108 894T1055 947T985 982T911 1001T842 1010T791 1012H606Q561 1010 520 994T448 947T399 873T381 774Q381 700 415 640T507 529T636 434T784 346T932 257T1062 161T1153 49T1188 -88Q1188 -153 1162
-210T1077 -311T925 -380T698 -406Q583 -406 490 -382T322 -314T193 -209T100 -74L358 72Q364 -9 385 -82T445 -212T542 -302T682 -338Q724 -338 761 -326T827 -292T871 -239T887 -170Q887 -119 853 -73T763 17T636 104T491 195T345 295T218 407T128 539T94 696Q94
758 114 807T169 895T248 962T342 1012H29Z" />
<glyph unicode="h" glyph-name="h" horiz-adv-x="1411" d="M623 0H49V37Q91 37 117 45T158 68T178 101T184 141V1245Q184 1260 179 1277T158 1308T117 1333T49 1343V1380H487V895Q507 930 535 963T600 1025T685 1074T793 1106Q877 1121 943 1111T1059 1073T1144
1002T1201 905T1233 792T1243 672V141Q1243 126 1248 108T1267 75T1307 48T1378 37V0H817V37Q859 37 885 45T926 68T946 101T952 141V733Q952 811 934 865T886 950T816 992T731 991Q669 976 624 939T549 849T504 731T487 596V141Q487 126 492 108T511 75T552 48T623
37V0Z" />
<glyph unicode="i" glyph-name="i" horiz-adv-x="680" d="M621 0H59V37Q101 37 127 45T169 68T189 101T195 141V932Q195 947 190 965T171 999T130 1025T59 1036V1075H621V1036Q581 1036 555 1028T513 1007T491 977T485 940V141Q485 126 490 108T509 75T550 48T621
37V0ZM186 1341Q186 1373 198 1401T232 1451T281 1484T342 1497Q374 1497 402 1485T452 1451T485 1402T498 1341Q498 1309 486 1281T452 1231T403 1198T342 1186Q310 1186 282 1198T232 1231T199 1280T186 1341Z" />
<glyph unicode="j" glyph-name="j" horiz-adv-x="662" d="M53 1075H614V1036Q575 1036 549 1029T508 1008T486 978T479 942L481 279Q481 114 428 -13T280 -229T57 -362T-223 -408Q-260 -408 -286 -407T-332 -406T-372 -404T-414 -403Q-404 -368 -401 -329T-397
-264Q-397 -229 -403 -198T-418 -135L-385 -133Q-340 -227 -268 -279T-104 -332Q-31 -332 23 -292T113 -186T166 -36T184 135L186 940Q184 955 179 972T159 1003T119 1027T53 1036V1075Z" />
<glyph unicode="k" glyph-name="k" horiz-adv-x="1405" d="M623 0H49V37Q88 37 114 44T155 65T177 95T184 133V1245Q184 1260 179 1277T158 1308T117 1333T49 1343V1380H487V1026Q538 1060 608 1083T772 1106Q880 1106 972 1086T1131 1023T1236 917T1274 766Q1274
682 1239 619T1145 510T1014 434T864 385Q928 316 995 254T1125 143T1238 67T1319 39Q1328 39 1347 41T1389 53L1401 8Q1330 -18 1269 -28T1155 -39Q1096 -39 1031 -15T902 48T778 133T666 225T577 310T520 371Q646 398 745 451Q787 473 828 503T900 572T951 659T971
766Q971 843 951 892T897 971T823 1011T741 1022Q698 1022 653 1006T571 955T511 870T487 750V141Q487 126 492 108T511 75T552 48T623 37V0Z" />
<glyph unicode="l" glyph-name="l" horiz-adv-x="659" d="M49 37Q88 37 114 44T155 65T177 95T184 133V1440Q184 1455 179 1472T158 1504T117 1528T49 1538V1577H475V135Q475 120 480 103T501 72T542 47T610 37V0H49V37Z" />
<glyph unicode="m" glyph-name="m" horiz-adv-x="1991" d="M59 1075H498V963Q521 993 550 1019T614 1064T691 1095T784 1106Q843 1106 894 1090T986 1046T1059 977T1112 889Q1135 932 1166 971T1239 1041T1331 1088T1448 1106Q1539 1106 1609 1070T1728 972T1800
827T1825 651V135Q1825 120 1830 103T1851 72T1892 47T1960 37V0H1389V37Q1428 37 1454 44T1495 65T1517 95T1524 133V713Q1524 790 1512 843T1479 929T1430 976T1370 991Q1329 991 1292 969T1225 900T1179 779T1161 602V141Q1161 126 1166 108T1185 75T1225 48T1296
37V0H725V37Q764 37 790 44T831 65T853 95T860 133V713Q860 790 848 843T816 929T767 976T707 991Q667 991 630 970T564 903T518 786T500 616V123Q500 108 506 93T528 66T569 45T633 37V0H59V37Q101 37 127 45T169 68T189 101T195 141V934Q195 949 190 967T171
1000T130 1027T59 1038V1075Z" />
<glyph unicode="n" glyph-name="n" horiz-adv-x="1511" d="M621 0H59V37Q101 37 127 45T169 68T189 101T195 141V938Q195 953 190 970T169 1002T128 1026T59 1036V1075H621V1036Q581 1036 555 1028T513 1007T491 977T485 940V686Q520 617 569 539T684 382T835
232T1026 104V932Q1026 947 1022 965T1003 999T962 1025T891 1036V1075H1452V1036Q1412 1036 1386 1028T1345 1007T1323 977T1317 940V135Q1317 120 1322 103T1343 72T1384 47T1452 37V0H1026Q953 18 878 61T732 158T598 273T485 385V141Q485 126 490 108T509 75T550
48T621 37V0Z" />
<glyph unicode="o" glyph-name="o" horiz-adv-x="1403" d="M80 537Q80 600 96 666T145 797T228 917T347 1017T503 1085T698 1110Q810 1110 899 1087T1058 1024T1177 928T1259 809T1306 676T1321 537Q1321 471 1306 404T1259 273T1177 155T1058 58T899 -7T698 -31Q591
-31 504 -8T349 57T230 153T146 272T96 403T80 537ZM385 541Q385 446 398 356T446 196T540 83T692 37Q753 37 801 57T885 114T946 198T987 301T1010 415T1020 532Q1020 591 1014 652T994 769T957 875T898 961T816 1019T705 1040Q613 1040 552 999T454 888T402 729T385
541Z" />
<glyph unicode="p" glyph-name="p" horiz-adv-x="1368" d="M47 1075H535Q618 1075 705 1064T876 1026T1034 958T1163 855T1251 713T1284 526Q1284 406 1241 304T1120 128T934 11T696 -31Q627 -31 581 -18T498 16L588 84Q613 56 642 44T713 31Q771 31 820 63T906
159T962 314T983 524Q983 627 959 703T897 833T809 922T711 977T616 1004T537 1012H475V-264Q475 -279 479 -297T498 -331T538 -358T608 -369V-406H47V-369Q89 -369 115 -361T157 -338T178 -304T184 -264V942Q184 957 179 975T160 1010T118 1036T47 1047V1075Z"
/>
<glyph unicode="q" glyph-name="q" horiz-adv-x="1374" d="M88 483Q88 598 122 686T214 840T349 951T511 1023T685 1063T856 1075H1323V1036Q1279 1036 1253 1026T1212 1000T1193 966T1188 932V-264Q1188 -279 1192 -297T1211 -331T1252 -358T1323 -369V-406H762V-369Q833
-369 864 -346T895 -289V61Q844 16 781 -12T641 -41Q533 -41 433 -15T257 72T134 233T88 483ZM668 20Q698 20 737 34T811 74T871 136T895 215V1012H893Q855 1012 804 1003T696 972T585 910T487 810T416 665T389 467Q389 392 406 313T458 168T545 62T668 20Z" />
<glyph unicode="r" glyph-name="r" horiz-adv-x="1317" d="M1288 8Q1217 -18 1158 -28T1049 -39Q990 -39 934 -13T826 54T731 146T651 247T590 341T551 412Q648 428 725 469Q758 487 789 511T844 570T884 647T899 745Q899 821 871 870T802 949T712 989T623 1001Q583
1001 557 993T515 972T493 942T487 905V141Q487 126 492 108T511 75T552 48T623 37V0H59V37Q101 37 127 45T169 68T189 101T195 141V938Q195 953 190 970T169 1002T128 1026T59 1036V1075H623Q731 1075 835 1057T1020 998T1152 896T1202 745Q1202 675 1171 622T1089
530T973 464T838 420Q876 350 926 282T1027 159T1125 72T1206 39Q1216 39 1234 41T1276 53L1288 8Z" />
<glyph unicode="s" glyph-name="s" horiz-adv-x="1135" d="M387 -20Q316 -20 272 -16T199 -5T152 5T115 10Q123 44 126 72T129 123Q129 157 123 186T109 248L143 250Q165 202 207 166T302 104T412 66T520 53Q583 53 632 69T715 115T766 184T784 272Q784 323 764
355T707 408T623 437T520 453Q478 457 430 463T334 481T242 513T163 564T109 639T88 745Q88 817 117 871T193 964T303 1028T430 1067T560 1088T678 1094Q772 1094 842 1085T961 1075Q951 1040 948 1008T944 950Q944 918 949 889T965 827L930 825Q912 867 896 902T846
963T752 1003T586 1018Q552 1018 515 1007T448 972T397 913T377 831Q377 769 404 733T471 678T552 652T623 643Q659 640 706 634T803 616T901 583T987 531T1048 454T1071 346Q1071 264 1041 205T960 106T840 40T695 2T540 -15T387 -20Z" />
<glyph unicode="t" glyph-name="t" horiz-adv-x="1292" d="M51 1012Q79 1067 86 1121T94 1217Q94 1228 94 1236T93 1251Q92 1258 92 1264L129 1270Q132 1225 153 1193T206 1140T276 1105T351 1086T419 1077T471 1075H1253Q1226 1019 1218 965T1210 870Q1210 859
1210 851T1211 836Q1211 829 1212 823L1176 817Q1172 862 1151 894T1098 947T1028 982T954 1001T885 1010T834 1012H815Q720 1007 646 966T520 857T441 702T412 520Q412 425 428 338T479 183T571 77T709 37Q768 37 811 56T885 108T938 187T977 285L1212 205Q1176
154 1130 111T1023 37T886 -13T715 -31Q614 -31 531 -9T381 52T265 143T182 257T133 384T117 516Q117 600 142 675T214 814T332 928T492 1012H51Z" />
<glyph unicode="u" glyph-name="u" horiz-adv-x="1479" d="M590 1038Q548 1038 522 1030T481 1007T461 974T455 934V342Q455 264 479 210T541 125T625 83T717 84Q781 99 830 137T912 231T963 353T981 494V934Q981 949 977 967T958 1000T917 1027T846 1038V1075H1419V1038Q1378
1038 1352 1030T1310 1007T1290 974T1284 934V141Q1284 126 1289 108T1308 75T1348 48T1419 37V0H981V203Q960 164 931 127T862 59T771 5T655 -31Q570 -46 501 -36T378 2T283 73T217 170T177 283T164 403V940Q164 955 159 972T138 1003T97 1028T29 1038V1075H590V1038Z"
/>
<glyph unicode="v" glyph-name="v" horiz-adv-x="1290" d="M-37 1075H545V1036Q513 1036 493 1031T462 1015T451 985T455 942Q507 719 580 503T754 78Q804 175 847 280T927 495T992 718T1040 942Q1046 970 1035 988T1003 1016T957 1031T909 1036V1075H1278Q1251
992 1218 901T1149 716T1074 527T995 343T916 173T838 25L483 -20Q369 212 287 454T145 942Q140 958 128 975T93 1005T39 1027T-37 1036V1075Z" />
<glyph unicode="w" glyph-name="w" horiz-adv-x="1991" d="M1358 1075H1931V1038Q1891 1038 1865 1030T1824 1009T1802 979T1796 942V135Q1796 120 1801 103T1822 72T1863 47T1931 37V0H1493V111Q1469 81 1440 55T1376 10T1298 -20T1206 -31Q1146 -31 1096 -15T1004
29T931 98T877 186Q854 143 824 104T752 35T659 -13T543 -31Q451 -31 381 5T263 103T191 248T166 424V940Q166 955 161 972T140 1003T99 1028T31 1038V1075H602V1038Q562 1038 536 1030T495 1009T473 979T467 942V362Q467 285 479 232T512 146T561 99T621 84Q662
84 700 107T766 180T812 308T829 494V940Q829 955 824 972T803 1003T762 1028T694 1038V1075H1266V1038Q1224 1038 1198 1030T1156 1007T1136 974T1130 934V362Q1130 285 1142 232T1175 146T1224 99T1284 84Q1323 84 1360 105T1427 171T1473 285T1491 453V952Q1491
967 1484 982T1461 1009T1420 1030T1358 1038V1075Z" />
<glyph unicode="x" glyph-name="x" horiz-adv-x="1298" d="M84 37Q128 37 165 45T232 67T283 98T317 131L545 436Q520 478 494 525T441 620T390 714T346 801Q329 835 304 870T250 933T188 980T123 999Q94 999 65 991T8 975L-2 1016Q31 1026 72 1037T159 1058T250
1073T340 1079Q407 1079 458 1055T551 987T632 882T713 745L737 698L950 983Q958 996 958 1010Q958 1022 943 1029T885 1036V1075H1249V1036Q1206 1036 1169 1028T1103 1006T1052 975T1018 942L780 625Q809 573 839 522T903 418T972 309T1049 193Q1066 168 1085
146T1126 107T1168 80T1208 70Q1219 70 1238 72T1282 84L1292 39Q1221 13 1160 3T1047 -8Q969 -8 912 10T809 65T723 153T641 274L586 365L412 131H414Q398 111 387 94T375 63Q375 51 391 44T451 37V0H84V37Z" />
<glyph unicode="y" glyph-name="y" horiz-adv-x="1409" d="M786 1075H1360V1038Q1318 1038 1292 1030T1251 1007T1231 974T1225 934L1223 160Q1223 70 1202 -1T1144 -128T1056 -226T945 -299T818 -351T682 -387Q658 -392 626 -396T558 -402T486 -406T416 -408Q341
-408 286 -406T184 -403Q194 -368 197 -329T201 -264Q201 -229 196 -198T180 -135L213 -133Q235 -180 271 -217T350 -279T442 -318T535 -332Q624 -332 695 -305T817 -227T895 -106T922 53V180Q902 145 874 112T809 50T724 1T616 -31Q532 -46 466 -36T350 2T265
73T208 170T176 283T166 403V940Q166 955 161 972T140 1003T99 1028T31 1038V1075H592V1038Q552 1038 526 1030T485 1009T463 979T457 942V342Q457 264 475 210T523 125T593 83T678 84Q742 99 788 137T864 231T908 353T922 494V934Q922 949 917 967T898 1000T857
1027T786 1038V1075Z" />
<glyph unicode="z" glyph-name="z" horiz-adv-x="1122" d="M74 0L59 51V53L754 1022H399Q358 1022 315 1016T233 991T167 942T127 860L100 864Q100 901 96 938Q92 970 84 1006T59 1075H1047L1063 1022L367 53H725Q767 53 811 59T893 83T959 132T997 215L1026 209Q1026
172 1030 135Q1034 103 1041 67T1065 0H74Z" />
<glyph unicode="{" glyph-name="braceleft" horiz-adv-x="784" d="M750 -207H641Q598 -207 553 -200T464 -175T383 -128T316 -54T271 50T254 190V418Q254 469 238 517T189 604T108 666T-2 690V727Q57 727 104 750T185 811T236 897T254 997V1239Q254 1357 285 1433T370
1554T493 1616T641 1634H750V1585Q693 1573 653 1553T587 1501T549 1422T537 1309V1102Q537 1023 520 950T463 822T361 736T207 709Q302 707 365 678T467 596T521 472T537 315V119Q537 43 546 -7T579 -90T644 -139T750 -166V-207Z" />
<glyph unicode="|" glyph-name="bar" horiz-adv-x="631" d="M180 1640H451V-205H180V1640Z" />
<glyph unicode="}" glyph-name="braceright" horiz-adv-x="784" d="M35 -166Q99 -157 140 -140T206 -90T239 -8T248 119V315Q248 400 264 471T318 595T419 677T578 709Q487 705 424 736T322 822T266 950T248 1102V1309Q248 1375 236 1421T198 1500T132 1553T35
1585V1634H143Q221 1634 291 1617T414 1555T498 1434T530 1239V997Q530 946 548 898T599 811T679 750T786 727V690Q724 690 677 667T597 605T547 518T530 418V190Q530 111 514 51T468 -54T401 -127T320 -174T232 -199T143 -207H35V-166Z" />
<glyph unicode="~" glyph-name="asciitilde" horiz-adv-x="1100" d="M1006 956Q1000 891 980 827T924 713T838 631T723 600Q671 600 630 613T554 647T492 690T436 733T382 766T322 780Q277 780 251 759T211 709T194 650T190 600H121Q124 667 139 731T188 845T275
925T408 956Q455 956 494 943T566 911T627 868T683 826T736 793T791 780Q832 780 858 800T901 849T923 907T930 956H1006Z" />
<glyph unicode="&#xa0;" glyph-name="nbspace" horiz-adv-x="512" />
<glyph unicode="&#xa1;" glyph-name="exclamdown" horiz-adv-x="582" d="M215 745Q216 753 236 765T282 791T331 818T360 840L430 -236H156L215 745ZM440 1073Q440 1041 428 1013T395 963T346 930T285 918Q253 918 225 930T175 963T142 1012T129 1073Q129 1105
141 1133T175 1183T224 1216T285 1229Q317 1229 345 1217T395 1183T428 1134T440 1073Z" />
<glyph unicode="&#xa2;" glyph-name="cent" horiz-adv-x="928" d="M670 1096Q716 1096 752 1095T819 1094Q813 1069 810 1042T807 995Q807 971 811 950T821 905L799 903Q777 950 737 981T651 1028L471 397Q532 367 610 367Q668 367 707 383T769 421T804 460T817
481L807 401Q794 383 770 367T714 339T641 320T555 313Q499 313 451 319L360 0H297L389 330Q320 345 265 373T170 445T109 546T88 676Q91 793 131 871T241 998T403 1069T606 1094L702 1436H766L670 1096ZM299 694Q299 616 330 547T418 430L590 1042H573Q511 1042
461 1011T374 930T319 818T299 694Z" />
<glyph unicode="&#xa3;" glyph-name="sterling" horiz-adv-x="1362" d="M571 485H836L813 412H571V78H1298Q1260 41 1234 -8T1192 -102Q1174 -155 1163 -209L1116 -219Q1130 -158 1122 -117T1082 -49T994 -12T854 0H78V37Q128 37 161 46T215 72T243 111T252 158V412H117L139
485H252V643Q252 751 295 835T418 976T613 1064T872 1094Q966 1094 1036 1085T1155 1075Q1146 1040 1143 1008T1139 950Q1139 918 1144 889T1159 827L1124 825Q1106 867 1082 902T1020 963T930 1003T801 1018Q750 1018 708 1000T635 943T588 843T571 696V485Z"
/>
<glyph unicode="&#xa4;" glyph-name="currency" horiz-adv-x="633" d="M420 885Q420 936 410 968T385 1018T351 1044T315 1051Q298 1051 280 1042T247 1012T223 960T213 885Q213 843 222 812T247 761T280 730T315 719Q333 719 351 729T385 759T410 810T420 885ZM207
1083Q257 1112 315 1112Q341 1112 365 1107T412 1090L475 1174L543 1133L475 1044Q506 1014 524 973T543 885Q543 838 526 798T479 727L543 645L477 604L418 680Q395 669 369 663T315 657Q255 657 201 688L137 604L72 645L141 737Q117 768 104 805T90 885Q90 928
104 966T145 1034L72 1133L139 1174L207 1083Z" />
<glyph unicode="&#xa5;" glyph-name="yen" horiz-adv-x="1731" d="M668 686L322 1257Q310 1277 289 1301T237 1347T163 1382T63 1397V1434H754V1397Q688 1397 664 1381T639 1339Q639 1321 647 1300T668 1257L1022 694Q1114 809 1195 947T1352 1257Q1360 1274 1364
1289T1368 1319Q1368 1353 1337 1375T1229 1397V1434H1671Q1614 1341 1550 1243T1418 1049T1278 860T1133 686H1343V551H1047V428H1343V293H1047V176Q1047 156 1053 132T1078 87T1131 52T1223 37V0H553V37Q606 37 640 47T694 76T721 119T729 170V293H420V428H729V551H420V686H668Z"
/>
<glyph unicode="&#xa6;" glyph-name="brokenbar" horiz-adv-x="631" d="M180 1640H451V-205H180V1640Z" />
<glyph unicode="&#xa7;" glyph-name="section" horiz-adv-x="1473" d="M506 -272Q413 -272 355 -268T259 -259T197 -250T147 -246Q158 -201 163 -164T168 -94Q168 -49 160 -11T141 72L186 74Q214 11 270 -42T395 -133T539 -193T682 -215Q763 -215 831 -187T949
-113T1025 -6T1053 117Q1053 185 1021 228T937 298T817 337T678 358Q625 364 563 372T438 396T317 438T214 506T142 607T115 748Q115 822 137 881T201 989Q160 1029 138 1085T115 1219Q115 1316 153 1388T253 1511T396 1596T563 1648T733 1675T887 1683Q948 1683
1001 1679T1101 1671T1185 1663T1255 1659Q1244 1612 1240 1576T1235 1505Q1235 1462 1242 1424T1262 1341L1217 1339Q1200 1376 1186 1412T1153 1479T1105 1537T1033 1583T923 1613T766 1624Q704 1624 646 1602T542 1542T468 1450T440 1333Q440 1278 460 1239T514
1173T589 1130T671 1104T750 1090T813 1083Q861 1079 921 1071T1043 1047T1164 1003T1269 933T1344 830T1372 686Q1372 608 1352 545T1296 432Q1330 392 1351 338T1372 215Q1372 106 1335 28T1233 -105T1084 -192T902 -242T704 -266T506 -272ZM678 829Q625 834
564 842T440 866V862Q440 807 460 768T514 702T589 659T671 633T750 619T813 612Q863 607 925 599T1053 573V588Q1053 656 1021 699T937 769T817 808T678 829Z" />
<glyph unicode="&#xa8;" glyph-name="dieresis" horiz-adv-x="571" d="M227 1319Q227 1295 219 1274T195 1238T160 1213T115 1204Q91 1204 70 1213T34 1237T9 1274T0 1319Q0 1342 9 1363T33 1399T70 1424T115 1434Q139 1434 159 1425T195 1400T218 1363T227 1319ZM571
1319Q571 1295 563 1274T539 1238T504 1213T459 1204Q435 1204 414 1213T378 1237T353 1274T344 1319Q344 1342 353 1363T377 1399T414 1424T459 1434Q483 1434 503 1425T539 1400T562 1363T571 1319Z" />
<glyph unicode="&#xa9;" glyph-name="copyright" horiz-adv-x="932" d="M109 700Q109 755 129 813T193 920T304 999T463 1030Q560 1030 628 1001T739 925T801 819T821 700Q821 643 802 585T739 479T628 403T463 373Q371 373 305 402T195 479T130 584T109 700ZM143
700Q143 649 162 597T220 502T320 433T463 406Q550 406 611 432T711 501T768 596T786 700Q786 755 769 808T712 903T612 971T463 997Q380 997 320 969T220 897T162 801T143 700ZM608 811Q591 846 558 865T489 885Q457 885 431 867T387 819T360 755T350 686Q350
652 361 621T394 565T443 525T506 510Q533 510 552 516T585 532T605 551T614 567H627L623 526Q607 503 570 488T481 473Q433 473 390 487T313 528T261 593T240 678Q241 725 257 762T299 828T360 876T432 907Q455 912 482 912T537 913H629Q623 880 623 862Q623 851
625 838T633 811H608Z" />
<glyph unicode="&#xaa;" glyph-name="ordfeminine" horiz-adv-x="1182" d="M578 1456Q631 1456 674 1445T752 1418T810 1383T850 1350Q895 1384 947 1403T1047 1425L1055 1403Q1026 1391 1004 1366Q984 1344 969 1307T952 1208Q951 1155 951 1096T950 987T950
903T950 864Q950 803 965 765T1001 706Q1024 681 1053 670L1044 647Q1009 648 970 658T894 686T825 732T774 793Q760 767 739 742T686 696T612 664T514 651Q423 651 354 684T239 770T169 889T145 1024Q145 1100 172 1177T254 1316T389 1417T578 1456ZM580 725Q630
725 662 748T713 804T742 874T754 938L760 1174Q757 1238 738 1288Q730 1309 717 1330T686 1367T642 1393T584 1403Q531 1403 489 1377T416 1304T369 1197T352 1067Q352 978 371 914T423 807T496 745T580 725ZM1055 573V500H145V573H1055Z" />
<glyph unicode="&#xab;" glyph-name="guillemotleft" horiz-adv-x="1212" d="M586 891V743L209 545V532L586 340V184L76 469V610L586 891ZM1079 891V743L702 545V532L1079 340V184L569 469V610L1079 891Z" />
<glyph unicode="&#xac;" glyph-name="logicalnot" horiz-adv-x="1245" d="M1077 758V369H868V623H154V758H1077Z" />
<glyph unicode="&#xad;" glyph-name="uni00AD" horiz-adv-x="1139" d="M979 758V623H160V758H979Z" />
<glyph unicode="&#xae;" glyph-name="registered" horiz-adv-x="932" d="M702 494Q672 483 650 478T610 473Q578 473 547 496T491 551T447 612T424 655Q460 662 489 678Q514 692 534 716T555 780Q555 808 546 827T522 860T492 879T461 885Q433 885 425 875T416
850V545Q416 540 417 534T424 523T438 514T465 510V489H260V510Q291 510 302 520T313 543V858Q313 869 303 880T260 891V913H461Q503 913 540 906T605 882T649 841T666 780Q666 751 655 729T625 691T583 665T535 649Q548 623 565 598T601 554T635 522T664 510Q669
510 675 511T694 518L702 494ZM109 700Q109 755 129 813T193 920T304 999T463 1030Q560 1030 628 1001T739 925T801 819T821 700Q821 643 802 585T739 479T628 403T463 373Q371 373 305 402T195 479T130 584T109 700ZM156 700Q156 649 173 597T227 502T322 433T463
406Q550 406 611 432T711 501T768 596T786 700Q786 755 769 808T712 903T612 971T463 997Q380 997 322 969T227 897T173 801T156 700Z" />
<glyph unicode="&#xaf;" glyph-name="overscore" horiz-adv-x="545" d="M545 1245H0V1339H545V1245Z" />
<glyph unicode="&#xb0;" glyph-name="degree" horiz-adv-x="633" d="M543 1239Q543 1192 525 1151T477 1079T405 1030T315 1012Q268 1012 227 1030T156 1078T108 1150T90 1239Q90 1286 107 1327T155 1399T227 1448T315 1466Q362 1466 403 1448T476 1400T525 1328T543
1239ZM420 1239Q420 1290 410 1322T385 1372T351 1398T315 1405Q298 1405 280 1396T247 1366T223 1315T213 1239Q213 1197 222 1166T247 1115T280 1084T315 1073Q333 1073 351 1083T385 1113T410 1164T420 1239Z" />
<glyph unicode="&#xb1;" glyph-name="plusminus" horiz-adv-x="1161" d="M451 623H119V758H451V1151H709V758H1042V623H709V227H451V623ZM1042 135V0H119V135H1042Z" />
<glyph unicode="&#xb2;" glyph-name="twosuperior" horiz-adv-x="872" d="M758 893Q758 842 736 808T676 749T590 710T489 680Q459 671 428 661T367 640T311 614T266 584H778Q752 560 737 532T711 479Q700 450 694 422L651 408Q653 422 655 435T657 459Q657 481
645 494T611 513T556 522T483 524H104Q148 573 189 607T269 666T343 706T410 737Q445 752 474 767T525 800T559 844T571 905Q571 929 564 955T541 1004T498 1040T434 1055Q380 1055 345 1029T290 969T260 901T250 854L123 926Q155 975 189 1009T261 1064T342 1094T438
1104Q503 1104 561 1093T663 1056T732 990T758 893Z" />
<glyph unicode="&#xb3;" glyph-name="threesuperior" horiz-adv-x="901" d="M410 336Q359 336 310 348T218 384T138 444T76 530L223 602Q229 562 244 524T285 455T343 406T416 387Q440 387 472 396T534 426T585 481T606 567Q606 615 590 646T547 695T488 721T422
729H313V799H422Q456 799 481 809T523 835T547 874T555 920Q555 949 545 973T516 1015T472 1043T416 1053Q393 1053 369 1045T321 1020T277 978T242 918L133 995Q186 1046 256 1075T420 1104Q472 1104 527 1095T627 1063T702 1006T731 918Q731 891 723 869T700
828T669 795T635 770Q700 750 741 704T782 582Q782 514 745 467T652 391T531 349T410 336Z" />
<glyph unicode="&#xb4;" glyph-name="acute" horiz-adv-x="424" d="M424 1475L109 1182H0L199 1475H424Z" />
<glyph unicode="&#xb5;" glyph-name="mu" horiz-adv-x="1556" d="M905 1075H1479V1038Q1437 1038 1411 1030T1369 1007T1349 974T1343 934V135Q1343 120 1348 103T1369 72T1410 47T1479 37V0H1040V203Q1019 164 990 127T922 59T831 5T715 -31Q658 -40 608 -39T514
-27V-406H223V940Q223 955 218 972T197 1003T156 1028T88 1038V1075H649V1038Q608 1038 582 1030T540 1007T520 974T514 934V342Q514 264 538 210T600 125T684 83T776 84Q838 99 886 136T968 225T1020 343T1040 479V940Q1040 955 1035 972T1014 1003T973 1028T905
1038V1075Z" />
<glyph unicode="&#xb6;" glyph-name="paragraph" horiz-adv-x="1427" d="M82 844Q82 959 116 1047T208 1201T343 1312T505 1384T679 1424T850 1436H1317V1397Q1273 1397 1247 1387T1206 1360T1187 1326T1182 1292V141Q1183 126 1187 108T1206 75T1247 48T1317
37V0H756V37Q791 37 815 43T854 60T878 85T889 117V422Q838 377 775 348T635 319Q570 319 504 330T377 367T262 432T168 531T105 667T82 844Z" />
<glyph unicode="&#xb7;" glyph-name="middot" horiz-adv-x="545" d="M117 717Q117 749 129 777T162 827T211 860T272 872Q304 872 332 860T382 827T415 778T428 717Q428 685 416 657T382 607T333 574T272 561Q240 561 212 573T162 607T129 656T117 717Z" />
<glyph unicode="&#xb8;" glyph-name="cedilla" horiz-adv-x="426" d="M426 -227Q426 -280 408 -316T359 -375T285 -408T193 -418Q153 -418 118 -403T57 -361T15 -299T0 -223H51Q51 -256 64 -282T97 -325T136 -352T168 -362Q202 -362 224 -349T261 -316T281 -272T287
-227Q287 -184 271 -159T234 -122T189 -107T150 -104L240 72H293L236 -61Q268 -61 302 -72T363 -104T408 -156T426 -227Z" />
<glyph unicode="&#xb9;" glyph-name="onesuperior" horiz-adv-x="584" d="M481 518H121V557Q150 558 168 561T196 571T211 585T217 602V993Q215 1003 211 1011T196 1024T167 1033T121 1036V1075H385V616Q385 604 388 594T401 575T430 562T481 557V518Z" />
<glyph unicode="&#xba;" glyph-name="ordmasculine" horiz-adv-x="1159" d="M145 1055Q145 1121 170 1192T249 1321T384 1418T578 1456Q695 1456 778 1421T913 1329T990 1200T1014 1055Q1014 986 990 916T913 788T778 694T578 657Q467 657 385 693T250 786T171
915T145 1055ZM358 1059Q358 992 367 930T401 818T466 739T573 707Q637 707 680 738T751 819T789 930T803 1053Q803 1115 794 1178T759 1293T692 1376T582 1409Q518 1409 476 1380T407 1303T370 1191T358 1059ZM1014 573V500H145V573H1014Z" />
<glyph unicode="&#xbb;" glyph-name="guillemotright" horiz-adv-x="1212" d="M1137 610V469L627 184V340L1004 532V545L627 743V891L1137 610ZM643 610V469L133 184V340L510 532V545L133 743V891L643 610Z" />
<glyph unicode="&#xbc;" glyph-name="onequarter" horiz-adv-x="1415" d="M510 518H150V557Q179 558 197 561T225 571T240 585T246 602V993Q243 1013 224 1024T150 1036V1075H414V616Q414 604 417 594T430 575T459 562T510 557V518ZM1356 1075L283 0H109L1182
1075H1356ZM1225 -203H934V-164Q974 -164 987 -153T1001 -127V0H563Q605 84 645 151T726 274T807 374T891 455H946Q907 389 874 322T815 198Q786 133 762 72H1001V455H1157V72H1208V0H1157V-125Q1157 -137 1170 -150T1225 -164V-203Z" />
<glyph unicode="&#xbd;" glyph-name="onehalf" horiz-adv-x="1546" d="M487 518H127V557Q156 558 174 561T202 571T217 585T223 602V993Q221 1003 217 1011T202 1024T173 1033T127 1036V1075H391V616Q391 604 394 594T407 575T436 562T487 557V518ZM1333 1075L260
0H86L1159 1075H1333ZM1454 369Q1454 317 1432 283T1372 225T1286 186T1186 156Q1155 147 1124 137T1063 115T1008 89T963 59H1475Q1449 35 1433 7T1407 -45Q1396 -73 1391 -102L1348 -117Q1350 -103 1352 -89T1354 -66Q1354 -44 1342 -31T1307 -11T1252 -2T1180
0H801Q845 49 886 83T966 142T1039 182T1106 213Q1141 228 1171 243T1222 276T1256 320T1268 381Q1268 405 1261 431T1237 479T1194 515T1130 530Q1076 530 1041 504T986 444T956 377T946 330L819 401Q851 450 885 484T957 539T1038 570T1135 580Q1200 580 1258
569T1359 532T1428 466T1454 369Z" />
<glyph unicode="&#xbe;" glyph-name="threequarters" horiz-adv-x="1733" d="M1673 1075L600 0H426L1499 1075H1673ZM1542 -203H1251V-164Q1292 -164 1305 -153T1319 -127V0H881Q923 84 963 151T1044 274T1124 374T1208 455H1264Q1224 389 1191 322T1132 198Q1103
133 1079 72H1319V455H1475V72H1526V0H1475V-125Q1475 -137 1488 -150T1542 -164V-203ZM408 336Q357 336 308 348T216 384T136 444T74 530L221 602Q227 562 242 524T283 455T341 406T414 387Q438 387 470 396T532 426T583 481T604 567Q604 615 588 646T545 695T486
721T420 729H311V799H420Q454 799 479 809T521 835T545 874T553 920Q553 949 543 973T514 1015T470 1043T414 1053Q391 1053 367 1045T319 1020T275 978T240 918L131 995Q184 1046 254 1075T418 1104Q470 1104 525 1095T625 1063T700 1006T729 918Q729 891 721
869T698 828T667 795T633 770Q698 750 739 704T780 582Q780 514 743 467T650 391T529 349T408 336Z" />
<glyph unicode="&#xbf;" glyph-name="questiondown" horiz-adv-x="1257" d="M655 823H737Q737 759 723 711T685 624T631 554T570 494T509 435T456 367T418 284T403 176Q403 84 427 20T491 -83T584 -140T692 -158Q750 -158 801 -139T896 -83T972 4T1026 117L1194
-6Q1143 -72 1085 -116T961 -188T824 -226T674 -238Q604 -238 533 -228T396 -196T273 -139T173 -55T107 59T82 205Q82 281 106 335T171 430T263 499T368 554T473 603T565 658T630 727T655 823ZM510 1071Q510 1108 524 1141T564 1199T622 1238T692 1253Q729 1253
762 1239T820 1199T859 1141T874 1071Q874 1034 860 1001T820 943T762 904T692 889Q655 889 622 903T564 943T525 1001T510 1071Z" />
<glyph unicode="&#xc0;" glyph-name="Agrave" horiz-adv-x="1628" d="M1741 53Q1650 16 1575 3T1440 -10Q1392 -10 1357 -5T1297 9Q1268 18 1247 29Q1203 54 1170 94T1111 180T1063 275T1022 367L997 420Q896 391 809 354T653 280T539 213T473 168Q436 127 390
95T287 41T160 6T6 -6L-4 37Q93 53 163 99T285 212T372 364T436 543Q452 597 478 657T542 773T628 879T739 963Q722 995 706 1028T674 1096Q653 1136 632 1184T583 1274T516 1344T420 1372Q380 1372 342 1363T268 1341L254 1382Q341 1411 430 1431T608 1452Q650
1452 691 1447T770 1427Q803 1415 834 1388T893 1323T945 1242T991 1156T1030 1075T1061 1008Q1149 819 1236 630T1423 256Q1441 223 1461 191T1507 134T1564 94T1634 80Q1648 80 1672 83T1726 98L1741 53ZM795 848Q769 806 748 761T708 670T675 577T645 489Q630
443 613 400T573 315Q648 359 749 407T965 489L795 848ZM573 1829L772 1536H663L348 1829H573Z" />
<glyph unicode="&#xc1;" glyph-name="Aacute" horiz-adv-x="1628" d="M1741 53Q1650 16 1575 3T1440 -10Q1392 -10 1357 -5T1297 9Q1268 18 1247 29Q1203 54 1170 94T1111 180T1063 275T1022 367L997 420Q896 391 809 354T653 280T539 213T473 168Q436 127 390
95T287 41T160 6T6 -6L-4 37Q93 53 163 99T285 212T372 364T436 543Q452 597 478 657T542 773T628 879T739 963Q722 995 706 1028T674 1096Q653 1136 632 1184T583 1274T516 1344T420 1372Q380 1372 342 1363T268 1341L254 1382Q341 1411 430 1431T608 1452Q650
1452 691 1447T770 1427Q803 1415 834 1388T893 1323T945 1242T991 1156T1030 1075T1061 1008Q1149 819 1236 630T1423 256Q1441 223 1461 191T1507 134T1564 94T1634 80Q1648 80 1672 83T1726 98L1741 53ZM795 848Q769 806 748 761T708 670T675 577T645 489Q630
443 613 400T573 315Q648 359 749 407T965 489L795 848ZM1079 1829L764 1536H655L854 1829H1079Z" />
<glyph unicode="&#xc2;" glyph-name="Acircumflex" horiz-adv-x="1628" d="M1741 53Q1650 16 1575 3T1440 -10Q1392 -10 1357 -5T1297 9Q1268 18 1247 29Q1203 54 1170 94T1111 180T1063 275T1022 367L997 420Q896 391 809 354T653 280T539 213T473 168Q436 127
390 95T287 41T160 6T6 -6L-4 37Q93 53 163 99T285 212T372 364T436 543Q452 597 478 657T542 773T628 879T739 963Q722 995 706 1028T674 1096Q653 1136 632 1184T583 1274T516 1344T420 1372Q380 1372 342 1363T268 1341L254 1382Q341 1411 430 1431T608 1452Q650
1452 691 1447T770 1427Q803 1415 834 1388T893 1323T945 1242T991 1156T1030 1075T1061 1008Q1149 819 1236 630T1423 256Q1441 223 1461 191T1507 134T1564 94T1634 80Q1648 80 1672 83T1726 98L1741 53ZM795 848Q769 806 748 761T708 670T675 577T645 489Q630
443 613 400T573 315Q648 359 749 407T965 489L795 848ZM1056 1536H888L743 1734L614 1536H530L723 1829H858L1056 1536Z" />
<glyph unicode="&#xc3;" glyph-name="Atilde" horiz-adv-x="1628" d="M1741 53Q1650 16 1575 3T1440 -10Q1392 -10 1357 -5T1297 9Q1268 18 1247 29Q1203 54 1170 94T1111 180T1063 275T1022 367L997 420Q896 391 809 354T653 280T539 213T473 168Q436 127 390
95T287 41T160 6T6 -6L-4 37Q93 53 163 99T285 212T372 364T436 543Q452 597 478 657T542 773T628 879T739 963Q722 995 706 1028T674 1096Q653 1136 632 1184T583 1274T516 1344T420 1372Q380 1372 342 1363T268 1341L254 1382Q341 1411 430 1431T608 1452Q650
1452 691 1447T770 1427Q803 1415 834 1388T893 1323T945 1242T991 1156T1030 1075T1061 1008Q1149 819 1236 630T1423 256Q1441 223 1461 191T1507 134T1564 94T1634 80Q1648 80 1672 83T1726 98L1741 53ZM795 848Q769 806 748 761T708 670T675 577T645 489Q630
443 613 400T573 315Q648 359 749 407T965 489L795 848ZM1049 1808Q1045 1758 1030 1710T987 1623T922 1560T834 1536Q774 1536 732 1557T657 1604T593 1651T527 1673Q492 1673 472 1657T442 1619T429 1574T426 1536H373Q375 1587 387 1636T424 1723T490 1785T592
1808Q646 1808 686 1787T759 1741T823 1694T885 1673Q916 1673 936 1688T969 1726T985 1770T991 1808H1049Z" />
<glyph unicode="&#xc4;" glyph-name="Adieresis" horiz-adv-x="1628" d="M1741 53Q1650 16 1575 3T1440 -10Q1392 -10 1357 -5T1297 9Q1268 18 1247 29Q1203 54 1170 94T1111 180T1063 275T1022 367L997 420Q896 391 809 354T653 280T539 213T473 168Q436 127
390 95T287 41T160 6T6 -6L-4 37Q93 53 163 99T285 212T372 364T436 543Q452 597 478 657T542 773T628 879T739 963Q722 995 706 1028T674 1096Q653 1136 632 1184T583 1274T516 1344T420 1372Q380 1372 342 1363T268 1341L254 1382Q341 1411 430 1431T608 1452Q650
1452 691 1447T770 1427Q803 1415 834 1388T893 1323T945 1242T991 1156T1030 1075T1061 1008Q1149 819 1236 630T1423 256Q1441 223 1461 191T1507 134T1564 94T1634 80Q1648 80 1672 83T1726 98L1741 53ZM795 848Q769 806 748 761T708 670T675 577T645 489Q630
443 613 400T573 315Q648 359 749 407T965 489L795 848ZM739 1673Q739 1649 731 1628T707 1592T672 1567T627 1558Q603 1558 582 1567T546 1591T521 1628T512 1673Q512 1696 521 1717T545 1753T582 1778T627 1788Q651 1788 671 1779T707 1754T730 1717T739 1673ZM1083
1673Q1083 1649 1075 1628T1051 1592T1016 1567T971 1558Q947 1558 926 1567T890 1591T865 1628T856 1673Q856 1696 865 1717T889 1753T926 1778T971 1788Q995 1788 1015 1779T1051 1754T1074 1717T1083 1673Z" />
<glyph unicode="&#xc5;" glyph-name="Aring" horiz-adv-x="1628" d="M1741 53Q1650 16 1575 3T1440 -10Q1392 -10 1357 -5T1297 9Q1268 18 1247 29Q1203 54 1170 94T1111 180T1063 275T1022 367L997 420Q896 391 809 354T653 280T539 213T473 168Q436 127 390
95T287 41T160 6T6 -6L-4 37Q93 53 163 99T285 212T372 364T436 543Q452 597 478 657T542 773T628 879T739 963Q722 995 706 1028T674 1096Q653 1136 632 1184T583 1274T516 1344T420 1372Q380 1372 342 1363T268 1341L254 1382Q341 1411 430 1431T608 1452Q650
1452 691 1447T770 1427Q803 1415 834 1388T893 1323T945 1242T991 1156T1030 1075T1061 1008Q1149 819 1236 630T1423 256Q1441 223 1461 191T1507 134T1564 94T1634 80Q1648 80 1672 83T1726 98L1741 53ZM795 848Q769 806 748 761T708 670T675 577T645 489Q630
443 613 400T573 315Q648 359 749 407T965 489L795 848ZM1020 1704Q1020 1657 1002 1616T954 1543T882 1494T792 1476Q745 1476 704 1494T633 1543T585 1615T567 1704Q567 1751 584 1792T632 1864T704 1913T792 1931Q839 1931 880 1913T953 1865T1002 1793T1020
1704ZM897 1704Q897 1755 887 1787T862 1837T828 1863T792 1870Q775 1870 757 1861T724 1831T700 1779T690 1704Q690 1662 699 1631T724 1580T757 1549T792 1538Q810 1538 828 1548T862 1578T887 1629T897 1704Z" />
<glyph unicode="&#xc6;" glyph-name="AE" horiz-adv-x="2370" d="M2232 1114Q2204 1177 2157 1226T2053 1309T1931 1360T1804 1378Q1735 1378 1674 1354T1561 1287T1466 1186T1390 1060T1337 918T1307 770H2159Q2138 728 2127 682T2110 595Q2104 548 2103 504L2071
498Q2058 562 2039 604T1982 670T1880 703T1714 713H1300V670Q1300 589 1319 511T1373 363T1459 233T1573 131T1711 63T1870 39Q1946 39 2004 53T2104 90T2176 138T2224 189T2252 231T2267 256L2251 115Q2228 83 2184 54T2080 1T1944 -37T1782 -51Q1650 -51 1529
-20T1306 69T1128 210T1008 397Q1005 404 1002 409T997 420Q896 391 809 354T653 280T539 213T473 168Q436 127 390 95T287 41T160 6T6 -6L-4 37Q93 53 163 99T285 212T372 364T436 543Q452 597 478 657T542 773T628 879T739 963Q722 995 706 1028T674 1096Q659
1125 640 1167T596 1251T544 1324T485 1364Q468 1367 452 1369T420 1372Q380 1372 342 1363T268 1341L254 1382Q341 1411 430 1431T608 1452Q650 1452 691 1447T770 1427Q802 1415 832 1388T889 1326T940 1248T986 1164T1024 1084T1055 1016Q1098 1094 1158 1158T1291
1271T1447 1355T1620 1411Q1691 1428 1783 1433T1968 1438Q2058 1438 2137 1436T2271 1434Q2260 1387 2256 1351T2251 1282Q2251 1237 2258 1199T2277 1116L2232 1114ZM795 848Q769 806 748 761T708 670T675 577T645 489Q630 443 613 400T573 315Q648 359 749 407T965
489L795 848Z" />
<glyph unicode="&#xc7;" glyph-name="Ccedilla" horiz-adv-x="1505" d="M969 -248Q969 -300 951 -336T902 -395T827 -428T735 -438Q695 -438 660 -423T599 -381T558 -319T543 -244H594Q594 -277 607 -303T640 -346T679 -373T711 -383Q745 -383 767 -370T803 -336T823
-293T829 -248Q829 -204 814 -180T776 -143T731 -128T692 -125L737 -33Q603 -10 487 47T284 190T147 389T96 639Q99 801 152 930T295 1156T504 1316T758 1411Q829 1428 921 1433T1106 1438Q1196 1438 1275 1436T1409 1434Q1398 1387 1394 1351T1389 1282Q1389 1237
1396 1199T1415 1116L1370 1114Q1341 1177 1295 1226T1191 1309T1069 1360T942 1378Q866 1378 799 1348T676 1266T576 1145T501 997T454 834T438 670Q438 589 457 511T511 363T597 233T711 131T849 63T1008 39Q1084 39 1142 53T1242 90T1314 138T1361 189T1390
231T1405 256L1389 115Q1363 80 1318 51T1211 -1T1076 -36T918 -49Q887 -49 857 -47T797 -41L778 -82Q810 -82 844 -93T905 -125T951 -177T969 -248Z" />
<glyph unicode="&#xc8;" glyph-name="Egrave" horiz-adv-x="1509" d="M1372 1114Q1343 1177 1297 1226T1193 1309T1071 1360T944 1378Q875 1378 814 1354T701 1287T605 1186T530 1060T476 918T446 770H1298Q1277 728 1266 682T1250 595Q1244 548 1243 504L1210
498Q1197 562 1178 604T1121 670T1020 703T854 713H440V670Q440 589 459 511T513 363T599 233T713 131T851 63T1010 39Q1086 39 1144 53T1244 90T1316 138T1364 189T1392 231T1407 256L1391 115Q1368 83 1324 54T1220 1T1084 -37T922 -51Q755 -51 607 -2T346 137T167
354T98 639Q101 801 154 930T297 1156T506 1316T760 1411Q831 1428 923 1433T1108 1438Q1198 1438 1277 1436T1411 1434Q1400 1387 1396 1351T1391 1282Q1391 1237 1398 1199T1417 1116L1372 1114ZM770 1829L969 1536H860L545 1829H770Z" />
<glyph unicode="&#xc9;" glyph-name="Eacute" horiz-adv-x="1509" d="M1372 1114Q1343 1177 1297 1226T1193 1309T1071 1360T944 1378Q875 1378 814 1354T701 1287T605 1186T530 1060T476 918T446 770H1298Q1277 728 1266 682T1250 595Q1244 548 1243 504L1210
498Q1197 562 1178 604T1121 670T1020 703T854 713H440V670Q440 589 459 511T513 363T599 233T713 131T851 63T1010 39Q1086 39 1144 53T1244 90T1316 138T1364 189T1392 231T1407 256L1391 115Q1368 83 1324 54T1220 1T1084 -37T922 -51Q755 -51 607 -2T346 137T167
354T98 639Q101 801 154 930T297 1156T506 1316T760 1411Q831 1428 923 1433T1108 1438Q1198 1438 1277 1436T1411 1434Q1400 1387 1396 1351T1391 1282Q1391 1237 1398 1199T1417 1116L1372 1114ZM1231 1829L916 1536H807L1006 1829H1231Z" />
<glyph unicode="&#xca;" glyph-name="Ecircumflex" horiz-adv-x="1509" d="M1372 1114Q1343 1177 1297 1226T1193 1309T1071 1360T944 1378Q875 1378 814 1354T701 1287T605 1186T530 1060T476 918T446 770H1298Q1277 728 1266 682T1250 595Q1244 548 1243 504L1210
498Q1197 562 1178 604T1121 670T1020 703T854 713H440V670Q440 589 459 511T513 363T599 233T713 131T851 63T1010 39Q1086 39 1144 53T1244 90T1316 138T1364 189T1392 231T1407 256L1391 115Q1368 83 1324 54T1220 1T1084 -37T922 -51Q755 -51 607 -2T346 137T167
354T98 639Q101 801 154 930T297 1156T506 1316T760 1411Q831 1428 923 1433T1108 1438Q1198 1438 1277 1436T1411 1434Q1400 1387 1396 1351T1391 1282Q1391 1237 1398 1199T1417 1116L1372 1114ZM1151 1536H983L838 1734L709 1536H625L818 1829H953L1151 1536Z"
/>
<glyph unicode="&#xcb;" glyph-name="Edieresis" horiz-adv-x="1509" d="M1372 1114Q1343 1177 1297 1226T1193 1309T1071 1360T944 1378Q875 1378 814 1354T701 1287T605 1186T530 1060T476 918T446 770H1298Q1277 728 1266 682T1250 595Q1244 548 1243 504L1210
498Q1197 562 1178 604T1121 670T1020 703T854 713H440V670Q440 589 459 511T513 363T599 233T713 131T851 63T1010 39Q1086 39 1144 53T1244 90T1316 138T1364 189T1392 231T1407 256L1391 115Q1368 83 1324 54T1220 1T1084 -37T922 -51Q755 -51 607 -2T346 137T167
354T98 639Q101 801 154 930T297 1156T506 1316T760 1411Q831 1428 923 1433T1108 1438Q1198 1438 1277 1436T1411 1434Q1400 1387 1396 1351T1391 1282Q1391 1237 1398 1199T1417 1116L1372 1114ZM825 1673Q825 1649 817 1628T793 1592T758 1567T713 1558Q689
1558 668 1567T632 1591T607 1628T598 1673Q598 1696 607 1717T631 1753T668 1778T713 1788Q737 1788 757 1779T793 1754T816 1717T825 1673ZM1169 1673Q1169 1649 1161 1628T1137 1592T1102 1567T1057 1558Q1033 1558 1012 1567T976 1591T951 1628T942 1673Q942
1696 951 1717T975 1753T1012 1778T1057 1788Q1081 1788 1101 1779T1137 1754T1160 1717T1169 1673Z" />
<glyph unicode="&#xcc;" glyph-name="Igrave" horiz-adv-x="829" d="M750 0H80V37Q134 37 168 48T222 79T249 123T256 176V1266Q256 1286 249 1309T222 1351T168 1384T80 1397V1434H750V1397Q695 1397 661 1386T607 1355T580 1310T573 1257V176Q573 156 579 132T604
87T658 52T750 37V0ZM274 1829L473 1536H364L49 1829H274Z" />
<glyph unicode="&#xcd;" glyph-name="Iacute" horiz-adv-x="829" d="M750 0H80V37Q134 37 168 48T222 79T249 123T256 176V1266Q256 1286 249 1309T222 1351T168 1384T80 1397V1434H750V1397Q695 1397 661 1386T607 1355T580 1310T573 1257V176Q573 156 579 132T604
87T658 52T750 37V0ZM786 1829L471 1536H362L561 1829H786Z" />
<glyph unicode="&#xce;" glyph-name="Icircumflex" horiz-adv-x="829" d="M750 0H80V37Q134 37 168 48T222 79T249 123T256 176V1266Q256 1286 249 1309T222 1351T168 1384T80 1397V1434H750V1397Q695 1397 661 1386T607 1355T580 1310T573 1257V176Q573 156 579
132T604 87T658 52T750 37V0ZM678 1536H510L365 1734L236 1536H152L345 1829H480L678 1536Z" />
<glyph unicode="&#xcf;" glyph-name="Idieresis" horiz-adv-x="829" d="M750 0H80V37Q134 37 168 48T222 79T249 123T256 176V1266Q256 1286 249 1309T222 1351T168 1384T80 1397V1434H750V1397Q695 1397 661 1386T607 1355T580 1310T573 1257V176Q573 156 579
132T604 87T658 52T750 37V0ZM356 1673Q356 1649 348 1628T324 1592T289 1567T244 1558Q220 1558 199 1567T163 1591T138 1628T129 1673Q129 1696 138 1717T162 1753T199 1778T244 1788Q268 1788 288 1779T324 1754T347 1717T356 1673ZM700 1673Q700 1649 692 1628T668
1592T633 1567T588 1558Q564 1558 543 1567T507 1591T482 1628T473 1673Q473 1696 482 1717T506 1753T543 1778T588 1788Q612 1788 632 1779T668 1754T691 1717T700 1673Z" />
<glyph unicode="&#xd0;" glyph-name="Eth" horiz-adv-x="2019" d="M301 758Q327 869 394 968T564 1150T802 1297T1100 1403L1024 1456Q953 1504 922 1569T891 1704Q891 1754 905 1803T945 1894T1006 1968T1083 2019L1108 1982Q1040 1934 1040 1872Q1040 1815 1092
1750T1243 1614Q1411 1492 1537 1385T1749 1171T1879 956T1925 719Q1925 590 1888 484T1786 292T1632 142T1439 36T1221 -28T991 -49Q846 -49 718 0T493 137T341 348T285 616V623H18V758H301ZM1587 637Q1587 737 1566 826T1496 1002T1368 1173T1171 1348Q1065 1325
974 1269T812 1134T694 958T631 758H942V623H623Q628 511 667 406T775 220T936 90T1141 41Q1234 41 1315 84T1457 206T1552 394T1587 637Z" />
<glyph unicode="&#xd1;" glyph-name="Ntilde" horiz-adv-x="1673" d="M82 1434H584L1341 514V1266Q1341 1286 1334 1309T1307 1351T1253 1384T1165 1397V1434H1608V1397Q1553 1397 1519 1386T1466 1355T1439 1310T1432 1257V0H1341L348 1198V176Q348 156 354 132T379
87T432 52T524 37V0H82V37Q136 37 170 48T224 79T251 123T258 176V1307Q234 1334 214 1351T174 1378T131 1393T82 1397V1434ZM1182 1808Q1178 1758 1163 1710T1120 1623T1055 1560T967 1536Q907 1536 865 1557T790 1604T726 1651T660 1673Q625 1673 605 1657T575
1619T562 1574T559 1536H506Q508 1587 520 1636T557 1723T623 1785T725 1808Q779 1808 819 1787T892 1741T956 1694T1018 1673Q1049 1673 1069 1688T1102 1726T1118 1770T1124 1808H1182Z" />
<glyph unicode="&#xd2;" glyph-name="Ograve" horiz-adv-x="1761" d="M96 717Q96 800 119 887T187 1056T298 1210T451 1337T645 1422T877 1454Q1006 1454 1114 1425T1310 1345T1464 1224T1575 1073T1642 900T1665 717Q1665 629 1643 539T1576 365T1465 207T1311
78T1115 -9T877 -41Q750 -41 643 -10T450 77T297 206T186 364T119 538T96 717ZM440 721Q440 636 449 553T480 395T534 255T616 142T727 66T870 37Q950 37 1015 65T1130 143T1216 258T1276 398T1311 553T1325 711Q1325 790 1316 870T1285 1023T1229 1161T1146 1272T1033
1347T887 1374Q807 1374 744 1350T631 1282T546 1178T487 1045T453 890T440 721ZM723 1829L922 1536H813L498 1829H723Z" />
<glyph unicode="&#xd3;" glyph-name="Oacute" horiz-adv-x="1761" d="M96 717Q96 800 119 887T187 1056T298 1210T451 1337T645 1422T877 1454Q1006 1454 1114 1425T1310 1345T1464 1224T1575 1073T1642 900T1665 717Q1665 629 1643 539T1576 365T1465 207T1311
78T1115 -9T877 -41Q750 -41 643 -10T450 77T297 206T186 364T119 538T96 717ZM440 721Q440 636 449 553T480 395T534 255T616 142T727 66T870 37Q950 37 1015 65T1130 143T1216 258T1276 398T1311 553T1325 711Q1325 790 1316 870T1285 1023T1229 1161T1146 1272T1033
1347T887 1374Q807 1374 744 1350T631 1282T546 1178T487 1045T453 890T440 721ZM1245 1829L930 1536H821L1020 1829H1245Z" />
<glyph unicode="&#xd4;" glyph-name="Ocircumflex" horiz-adv-x="1761" d="M96 717Q96 800 119 887T187 1056T298 1210T451 1337T645 1422T877 1454Q1006 1454 1114 1425T1310 1345T1464 1224T1575 1073T1642 900T1665 717Q1665 629 1643 539T1576 365T1465 207T1311
78T1115 -9T877 -41Q750 -41 643 -10T450 77T297 206T186 364T119 538T96 717ZM440 721Q440 636 449 553T480 395T534 255T616 142T727 66T870 37Q950 37 1015 65T1130 143T1216 258T1276 398T1311 553T1325 711Q1325 790 1316 870T1285 1023T1229 1161T1146 1272T1033
1347T887 1374Q807 1374 744 1350T631 1282T546 1178T487 1045T453 890T440 721ZM1142 1536H974L829 1734L700 1536H616L809 1829H944L1142 1536Z" />
<glyph unicode="&#xd5;" glyph-name="Otilde" horiz-adv-x="1761" d="M96 717Q96 800 119 887T187 1056T298 1210T451 1337T645 1422T877 1454Q1006 1454 1114 1425T1310 1345T1464 1224T1575 1073T1642 900T1665 717Q1665 629 1643 539T1576 365T1465 207T1311
78T1115 -9T877 -41Q750 -41 643 -10T450 77T297 206T186 364T119 538T96 717ZM440 721Q440 636 449 553T480 395T534 255T616 142T727 66T870 37Q950 37 1015 65T1130 143T1216 258T1276 398T1311 553T1325 711Q1325 790 1316 870T1285 1023T1229 1161T1146 1272T1033
1347T887 1374Q807 1374 744 1350T631 1282T546 1178T487 1045T453 890T440 721ZM1219 1808Q1215 1758 1200 1710T1157 1623T1092 1560T1004 1536Q944 1536 902 1557T827 1604T763 1651T697 1673Q662 1673 642 1657T612 1619T599 1574T596 1536H543Q545 1587 557
1636T594 1723T660 1785T762 1808Q816 1808 856 1787T929 1741T993 1694T1055 1673Q1086 1673 1106 1688T1139 1726T1155 1770T1161 1808H1219Z" />
<glyph unicode="&#xd6;" glyph-name="Odieresis" horiz-adv-x="1761" d="M96 717Q96 800 119 887T187 1056T298 1210T451 1337T645 1422T877 1454Q1006 1454 1114 1425T1310 1345T1464 1224T1575 1073T1642 900T1665 717Q1665 629 1643 539T1576 365T1465 207T1311
78T1115 -9T877 -41Q750 -41 643 -10T450 77T297 206T186 364T119 538T96 717ZM440 721Q440 636 449 553T480 395T534 255T616 142T727 66T870 37Q950 37 1015 65T1130 143T1216 258T1276 398T1311 553T1325 711Q1325 790 1316 870T1285 1023T1229 1161T1146 1272T1033
1347T887 1374Q807 1374 744 1350T631 1282T546 1178T487 1045T453 890T440 721ZM821 1673Q821 1649 813 1628T789 1592T754 1567T709 1558Q685 1558 664 1567T628 1591T603 1628T594 1673Q594 1696 603 1717T627 1753T664 1778T709 1788Q733 1788 753 1779T789
1754T812 1717T821 1673ZM1165 1673Q1165 1649 1157 1628T1133 1592T1098 1567T1053 1558Q1029 1558 1008 1567T972 1591T947 1628T938 1673Q938 1696 947 1717T971 1753T1008 1778T1053 1788Q1077 1788 1097 1779T1133 1754T1156 1717T1165 1673Z" />
<glyph unicode="&#xd7;" glyph-name="multiply" horiz-adv-x="1126" d="M279 270H115L451 635L123 1071H403L604 803L852 1071H1020L680 705L1008 270H727L524 537L279 270Z" />
<glyph unicode="&#xd8;" glyph-name="Oslash" horiz-adv-x="1761" d="M1464 1434L1366 1309Q1440 1256 1496 1189T1589 1045T1646 885T1665 717Q1665 629 1643 539T1576 365T1465 207T1311 78T1115 -9T877 -41Q739 -41 627 -6T424 92L352 0H219L342 160Q281 216
235 282T158 420T112 567T96 717Q96 800 119 887T187 1056T298 1210T451 1337T645 1422T877 1454Q994 1454 1093 1431T1276 1364L1331 1434H1464ZM1325 711Q1325 825 1305 937T1239 1143L541 242Q592 151 672 95T870 37Q950 37 1015 65T1130 143T1216 258T1276
398T1311 553T1325 711ZM440 721Q440 624 452 530T492 352L1178 1237Q1127 1300 1056 1337T887 1374Q807 1374 744 1350T631 1282T546 1178T487 1045T453 890T440 721Z" />
<glyph unicode="&#xd9;" glyph-name="Ugrave" horiz-adv-x="1833" d="M1083 1434H1753V1397Q1699 1397 1665 1386T1611 1355T1584 1310T1577 1257V176Q1577 156 1583 132T1608 87T1661 52T1753 37V0H1260V150Q1224 111 1181 77T1086 16T971 -25T836 -41Q746 -41
656 -22T484 35T330 129T207 260T124 428T94 633Q94 753 121 854T194 1039T298 1189T417 1307Q560 1427 741 1499L768 1475Q764 1472 739 1449T678 1381T601 1268T525 1104T467 886T444 610Q444 465 475 357T563 176T695 67T862 31Q943 31 1015 62T1141 149T1228
282T1260 453V1257Q1260 1277 1254 1301T1229 1347T1175 1382T1083 1397V1434ZM782 1829L981 1536H872L557 1829H782Z" />
<glyph unicode="&#xda;" glyph-name="Uacute" horiz-adv-x="1833" d="M1083 1434H1753V1397Q1699 1397 1665 1386T1611 1355T1584 1310T1577 1257V176Q1577 156 1583 132T1608 87T1661 52T1753 37V0H1260V150Q1224 111 1181 77T1086 16T971 -25T836 -41Q746 -41
656 -22T484 35T330 129T207 260T124 428T94 633Q94 753 121 854T194 1039T298 1189T417 1307Q560 1427 741 1499L768 1475Q764 1472 739 1449T678 1381T601 1268T525 1104T467 886T444 610Q444 465 475 357T563 176T695 67T862 31Q943 31 1015 62T1141 149T1228
282T1260 453V1257Q1260 1277 1254 1301T1229 1347T1175 1382T1083 1397V1434ZM1298 1829L983 1536H874L1073 1829H1298Z" />
<glyph unicode="&#xdb;" glyph-name="Ucircumflex" horiz-adv-x="1833" d="M1083 1434H1753V1397Q1699 1397 1665 1386T1611 1355T1584 1310T1577 1257V176Q1577 156 1583 132T1608 87T1661 52T1753 37V0H1260V150Q1224 111 1181 77T1086 16T971 -25T836 -41Q746
-41 656 -22T484 35T330 129T207 260T124 428T94 633Q94 753 121 854T194 1039T298 1189T417 1307Q560 1427 741 1499L768 1475Q764 1472 739 1449T678 1381T601 1268T525 1104T467 886T444 610Q444 465 475 357T563 176T695 67T862 31Q943 31 1015 62T1141 149T1228
282T1260 453V1257Q1260 1277 1254 1301T1229 1347T1175 1382T1083 1397V1434ZM1185 1536H1017L872 1734L743 1536H659L852 1829H987L1185 1536Z" />
<glyph unicode="&#xdc;" glyph-name="Udieresis" horiz-adv-x="1833" d="M1083 1434H1753V1397Q1699 1397 1665 1386T1611 1355T1584 1310T1577 1257V176Q1577 156 1583 132T1608 87T1661 52T1753 37V0H1260V150Q1224 111 1181 77T1086 16T971 -25T836 -41Q746
-41 656 -22T484 35T330 129T207 260T124 428T94 633Q94 753 121 854T194 1039T298 1189T417 1307Q560 1427 741 1499L768 1475Q764 1472 739 1449T678 1381T601 1268T525 1104T467 886T444 610Q444 465 475 357T563 176T695 67T862 31Q943 31 1015 62T1141 149T1228
282T1260 453V1257Q1260 1277 1254 1301T1229 1347T1175 1382T1083 1397V1434ZM864 1673Q864 1649 856 1628T832 1592T797 1567T752 1558Q728 1558 707 1567T671 1591T646 1628T637 1673Q637 1696 646 1717T670 1753T707 1778T752 1788Q776 1788 796 1779T832 1754T855
1717T864 1673ZM1208 1673Q1208 1649 1200 1628T1176 1592T1141 1567T1096 1558Q1072 1558 1051 1567T1015 1591T990 1628T981 1673Q981 1696 990 1717T1014 1753T1051 1778T1096 1788Q1120 1788 1140 1779T1176 1754T1199 1717T1208 1673Z" />
<glyph unicode="&#xdd;" glyph-name="Yacute" horiz-adv-x="1503" d="M1081 0H412V37Q465 37 499 47T553 76T580 119T588 170V586L182 1257H180Q168 1277 148 1301T96 1347T22 1382T-78 1397V1434H612V1397Q546 1397 522 1381T498 1339Q498 1321 506 1300T526
1257L881 694Q973 809 1054 947T1210 1257Q1227 1293 1227 1319Q1227 1353 1196 1375T1087 1397V1434H1530Q1464 1327 1390 1214T1236 992T1073 780T905 594V168Q905 148 912 125T938 83T992 50T1081 37V0ZM1192 1829L877 1536H768L967 1829H1192Z" />
<glyph unicode="&#xde;" glyph-name="Thorn" horiz-adv-x="1675" d="M1616 614Q1616 484 1558 366T1390 157T1121 13T760 -41Q709 -41 659 -36T561 -16V-236Q561 -258 544 -285T500 -346T439 -416T369 -495T301 -582T244 -676V1266Q244 1286 237 1309T210 1351T156
1384T68 1397V1434H561V1188H637Q686 1188 754 1187T901 1178T1062 1155T1225 1111T1376 1042T1500 940T1585 800T1616 614ZM1288 539Q1288 671 1252 765T1156 924T1019 1026T862 1084T703 1110T561 1118V78Q617 47 683 37T809 27Q903 27 975 49T1101 110T1190
200T1247 307T1278 423T1288 539Z" />
<glyph unicode="&#xdf;" glyph-name="germandbls" horiz-adv-x="1671" d="M946 -20Q875 -20 831 -16T758 -5T711 5T674 10Q682 44 685 72T688 123Q688 157 682 186T668 248L702 250Q724 202 766 166T861 104T971 66T1079 53Q1142 53 1191 69T1274 115T1325 184T1343
272Q1343 323 1323 355T1266 408T1182 437T1079 453Q1037 457 989 463T893 481T801 513T722 564T668 639T647 745Q647 817 671 873T732 975T812 1063T891 1148T952 1241T977 1354Q977 1384 973 1421T958 1497T930 1572T887 1638T826 1684T743 1702Q696 1702 662
1679T603 1613T563 1514T539 1387T527 1239T524 1079V0H98V37Q142 37 168 48T209 74T228 108T233 141V1012H23V1079H233Q233 1268 266 1398T365 1608T524 1723T741 1759Q787 1759 841 1751T950 1723T1055 1673T1145 1597T1207 1492T1231 1354Q1231 1288 1209 1233T1155
1130T1084 1041T1013 964T958 895T936 831Q936 769 963 733T1030 678T1111 652T1182 643Q1218 640 1265 634T1362 616T1460 583T1546 531T1607 454T1630 346Q1630 264 1600 205T1519 106T1399 40T1254 2T1099 -15T946 -20Z" />
<glyph unicode="&#xe0;" glyph-name="agrave" horiz-adv-x="1442" d="M696 1118Q771 1118 833 1102T944 1063T1028 1014T1085 967Q1116 991 1152 1010T1225 1044T1298 1065T1368 1075L1380 1042Q1340 1026 1308 990Q1281 959 1258 905T1233 764Q1232 713 1232
658T1232 550T1231 448T1230 361T1229 300T1229 272Q1229 185 1251 131T1302 46Q1335 10 1376 -6L1364 -39Q1315 -37 1259 -22T1150 20T1052 84T979 170Q959 132 928 96T852 32T746 -13T606 -31Q476 -31 378 15T213 137T114 308T80 500Q80 573 97 647T149 789T235
918T355 1022T509 1092T696 1118ZM700 74Q770 74 816 106T889 184T930 281T948 371L956 750Q954 771 949 801T932 863T904 927T859 985T795 1026T707 1042Q632 1042 571 1004T467 901T401 748T377 563Q377 435 404 343T477 191T581 103T700 74ZM544 1475L743 1182H634L319
1475H544Z" />
<glyph unicode="&#xe1;" glyph-name="aacute" horiz-adv-x="1442" d="M696 1118Q771 1118 833 1102T944 1063T1028 1014T1085 967Q1116 991 1152 1010T1225 1044T1298 1065T1368 1075L1380 1042Q1340 1026 1308 990Q1281 959 1258 905T1233 764Q1232 713 1232
658T1232 550T1231 448T1230 361T1229 300T1229 272Q1229 185 1251 131T1302 46Q1335 10 1376 -6L1364 -39Q1315 -37 1259 -22T1150 20T1052 84T979 170Q959 132 928 96T852 32T746 -13T606 -31Q476 -31 378 15T213 137T114 308T80 500Q80 573 97 647T149 789T235
918T355 1022T509 1092T696 1118ZM700 74Q770 74 816 106T889 184T930 281T948 371L956 750Q954 771 949 801T932 863T904 927T859 985T795 1026T707 1042Q632 1042 571 1004T467 901T401 748T377 563Q377 435 404 343T477 191T581 103T700 74ZM1061 1475L746 1182H637L836
1475H1061Z" />
<glyph unicode="&#xe2;" glyph-name="acircumflex" horiz-adv-x="1442" d="M696 1118Q771 1118 833 1102T944 1063T1028 1014T1085 967Q1116 991 1152 1010T1225 1044T1298 1065T1368 1075L1380 1042Q1340 1026 1308 990Q1281 959 1258 905T1233 764Q1232 713
1232 658T1232 550T1231 448T1230 361T1229 300T1229 272Q1229 185 1251 131T1302 46Q1335 10 1376 -6L1364 -39Q1315 -37 1259 -22T1150 20T1052 84T979 170Q959 132 928 96T852 32T746 -13T606 -31Q476 -31 378 15T213 137T114 308T80 500Q80 573 97 647T149
789T235 918T355 1022T509 1092T696 1118ZM700 74Q770 74 816 106T889 184T930 281T948 371L956 750Q954 771 949 801T932 863T904 927T859 985T795 1026T707 1042Q632 1042 571 1004T467 901T401 748T377 563Q377 435 404 343T477 191T581 103T700 74ZM993 1182H825L680
1380L551 1182H467L660 1475H795L993 1182Z" />
<glyph unicode="&#xe3;" glyph-name="atilde" horiz-adv-x="1442" d="M696 1118Q771 1118 833 1102T944 1063T1028 1014T1085 967Q1116 991 1152 1010T1225 1044T1298 1065T1368 1075L1380 1042Q1340 1026 1308 990Q1281 959 1258 905T1233 764Q1232 713 1232
658T1232 550T1231 448T1230 361T1229 300T1229 272Q1229 185 1251 131T1302 46Q1335 10 1376 -6L1364 -39Q1315 -37 1259 -22T1150 20T1052 84T979 170Q959 132 928 96T852 32T746 -13T606 -31Q476 -31 378 15T213 137T114 308T80 500Q80 573 97 647T149 789T235
918T355 1022T509 1092T696 1118ZM700 74Q770 74 816 106T889 184T930 281T948 371L956 750Q954 771 949 801T932 863T904 927T859 985T795 1026T707 1042Q632 1042 571 1004T467 901T401 748T377 563Q377 435 404 343T477 191T581 103T700 74ZM1067 1454Q1063
1404 1048 1356T1005 1269T940 1206T852 1182Q792 1182 750 1203T675 1250T611 1297T545 1319Q510 1319 490 1303T460 1265T447 1220T444 1182H391Q393 1233 405 1282T442 1369T508 1431T610 1454Q664 1454 704 1433T777 1387T841 1340T903 1319Q934 1319 954 1334T987
1372T1003 1416T1009 1454H1067Z" />
<glyph unicode="&#xe4;" glyph-name="adieresis" horiz-adv-x="1442" d="M696 1118Q771 1118 833 1102T944 1063T1028 1014T1085 967Q1116 991 1152 1010T1225 1044T1298 1065T1368 1075L1380 1042Q1340 1026 1308 990Q1281 959 1258 905T1233 764Q1232 713 1232
658T1232 550T1231 448T1230 361T1229 300T1229 272Q1229 185 1251 131T1302 46Q1335 10 1376 -6L1364 -39Q1315 -37 1259 -22T1150 20T1052 84T979 170Q959 132 928 96T852 32T746 -13T606 -31Q476 -31 378 15T213 137T114 308T80 500Q80 573 97 647T149 789T235
918T355 1022T509 1092T696 1118ZM700 74Q770 74 816 106T889 184T930 281T948 371L956 750Q954 771 949 801T932 863T904 927T859 985T795 1026T707 1042Q632 1042 571 1004T467 901T401 748T377 563Q377 435 404 343T477 191T581 103T700 74ZM671 1319Q671 1295
663 1274T639 1238T604 1213T559 1204Q535 1204 514 1213T478 1237T453 1274T444 1319Q444 1342 453 1363T477 1399T514 1424T559 1434Q583 1434 603 1425T639 1400T662 1363T671 1319ZM1015 1319Q1015 1295 1007 1274T983 1238T948 1213T903 1204Q879 1204 858
1213T822 1237T797 1274T788 1319Q788 1342 797 1363T821 1399T858 1424T903 1434Q927 1434 947 1425T983 1400T1006 1363T1015 1319Z" />
<glyph unicode="&#xe5;" glyph-name="aring" horiz-adv-x="1442" d="M696 1118Q771 1118 833 1102T944 1063T1028 1014T1085 967Q1116 991 1152 1010T1225 1044T1298 1065T1368 1075L1380 1042Q1340 1026 1308 990Q1281 959 1258 905T1233 764Q1232 713 1232 658T1232
550T1231 448T1230 361T1229 300T1229 272Q1229 185 1251 131T1302 46Q1335 10 1376 -6L1364 -39Q1315 -37 1259 -22T1150 20T1052 84T979 170Q959 132 928 96T852 32T746 -13T606 -31Q476 -31 378 15T213 137T114 308T80 500Q80 573 97 647T149 789T235 918T355
1022T509 1092T696 1118ZM700 74Q770 74 816 106T889 184T930 281T948 371L956 750Q954 771 949 801T932 863T904 927T859 985T795 1026T707 1042Q632 1042 571 1004T467 901T401 748T377 563Q377 435 404 343T477 191T581 103T700 74ZM906 1411Q906 1364 888 1323T840
1250T768 1201T678 1183Q631 1183 590 1201T519 1250T471 1322T453 1411Q453 1458 470 1499T518 1571T590 1620T678 1638Q725 1638 766 1620T839 1572T888 1500T906 1411ZM783 1411Q783 1462 773 1494T748 1544T714 1570T678 1577Q661 1577 643 1568T610 1538T586
1486T576 1411Q576 1369 585 1338T610 1287T643 1256T678 1245Q696 1245 714 1255T748 1285T773 1336T783 1411Z" />
<glyph unicode="&#xe6;" glyph-name="ae" horiz-adv-x="2204" d="M1264 625Q1262 603 1262 583T1262 541Q1262 446 1274 356T1318 196T1409 83T1559 37Q1618 37 1664 56T1745 108T1805 187T1847 285L2083 205Q2047 154 1998 111T1884 37T1740 -13T1565 -31Q1405
-31 1289 19T1098 152Q1059 112 1011 79T904 21T776 -17T625 -31Q514 -31 412 -18T232 28T108 112T61 242Q61 301 92 344T173 418T286 470T414 506T538 532T641 553Q702 568 751 586T836 623T897 659T936 688Q928 757 910 820T858 932T773 1010T647 1042Q588 1042
542 1023T460 971T400 892T358 795L123 874Q159 925 209 968T323 1042T465 1092T637 1110Q794 1110 908 1061T1100 934Q1136 972 1181 1004T1282 1060T1402 1097T1544 1110Q1701 1110 1812 1071T1994 966T2100 811T2144 625H1264ZM944 555Q944 567 944 579T942
604Q913 579 852 548T680 483Q622 465 567 449T468 408T398 346T371 250Q371 182 398 141T465 77T550 47T633 39Q713 39 771 80T868 191T925 356T944 555ZM1550 1040Q1477 1040 1427 1013T1344 939T1293 829T1268 692H1831Q1825 764 1810 827T1763 937T1680 1012T1550
1040Z" />
<glyph unicode="&#xe7;" glyph-name="ccedilla" horiz-adv-x="1210" d="M823 -268Q823 -321 805 -357T756 -416T682 -449T590 -459Q550 -459 515 -444T454 -402T412 -340T397 -264H449Q449 -297 462 -323T494 -366T533 -393T565 -403Q599 -403 621 -390T658 -357T678
-313T684 -268Q684 -225 669 -200T631 -163T586 -148T547 -145L606 -29Q488 -15 392 23T228 124T123 276T86 479Q89 597 119 687T202 844T328 956T491 1028T683 1067T899 1079Q973 1079 1028 1077T1130 1075Q1121 1040 1118 1001T1114 936Q1114 901 1119 870T1135
807L1102 805Q1079 852 1043 889T964 951T873 990T780 1004Q691 1004 619 959T496 843T417 682T389 506Q389 414 420 330T508 181T647 78T831 39Q915 39 970 62T1059 115T1108 171T1128 203L1114 86Q1096 60 1062 37T981 -3T877 -29T754 -39Q729 -39 706 -38T662
-35L633 -102Q665 -102 699 -113T760 -145T805 -197T823 -268Z" />
<glyph unicode="&#xe8;" glyph-name="egrave" horiz-adv-x="1337" d="M397 625Q395 603 395 583T395 541Q395 446 407 356T451 196T542 83T692 37Q751 37 797 56T879 108T939 187T981 285L1217 205Q1181 154 1131 111T1017 37T873 -13T698 -31Q591 -31 504 -8T349
57T230 153T146 272T96 403T80 537Q80 600 94 666T140 797T218 917T332 1017T485 1085T678 1110Q835 1110 945 1071T1127 966T1234 811T1278 625H397ZM684 1040Q611 1040 561 1013T477 939T427 829T401 692H965Q959 764 944 827T897 937T814 1012T684 1040ZM538
1475L737 1182H628L313 1475H538Z" />
<glyph unicode="&#xe9;" glyph-name="eacute" horiz-adv-x="1337" d="M397 625Q395 603 395 583T395 541Q395 446 407 356T451 196T542 83T692 37Q751 37 797 56T879 108T939 187T981 285L1217 205Q1181 154 1131 111T1017 37T873 -13T698 -31Q591 -31 504 -8T349
57T230 153T146 272T96 403T80 537Q80 600 94 666T140 797T218 917T332 1017T485 1085T678 1110Q835 1110 945 1071T1127 966T1234 811T1278 625H397ZM684 1040Q611 1040 561 1013T477 939T427 829T401 692H965Q959 764 944 827T897 937T814 1012T684 1040ZM1061
1475L746 1182H637L836 1475H1061Z" />
<glyph unicode="&#xea;" glyph-name="ecircumflex" horiz-adv-x="1337" d="M397 625Q395 603 395 583T395 541Q395 446 407 356T451 196T542 83T692 37Q751 37 797 56T879 108T939 187T981 285L1217 205Q1181 154 1131 111T1017 37T873 -13T698 -31Q591 -31 504
-8T349 57T230 153T146 272T96 403T80 537Q80 600 94 666T140 797T218 917T332 1017T485 1085T678 1110Q835 1110 945 1071T1127 966T1234 811T1278 625H397ZM684 1040Q611 1040 561 1013T477 939T427 829T401 692H965Q959 764 944 827T897 937T814 1012T684 1040ZM975
1182H807L662 1380L533 1182H449L642 1475H777L975 1182Z" />
<glyph unicode="&#xeb;" glyph-name="edieresis" horiz-adv-x="1337" d="M397 625Q395 603 395 583T395 541Q395 446 407 356T451 196T542 83T692 37Q751 37 797 56T879 108T939 187T981 285L1217 205Q1181 154 1131 111T1017 37T873 -13T698 -31Q591 -31 504
-8T349 57T230 153T146 272T96 403T80 537Q80 600 94 666T140 797T218 917T332 1017T485 1085T678 1110Q835 1110 945 1071T1127 966T1234 811T1278 625H397ZM684 1040Q611 1040 561 1013T477 939T427 829T401 692H965Q959 764 944 827T897 937T814 1012T684 1040ZM620
1319Q620 1295 612 1274T588 1238T553 1213T508 1204Q484 1204 463 1213T427 1237T402 1274T393 1319Q393 1342 402 1363T426 1399T463 1424T508 1434Q532 1434 552 1425T588 1400T611 1363T620 1319ZM964 1319Q964 1295 956 1274T932 1238T897 1213T852 1204Q828
1204 807 1213T771 1237T746 1274T737 1319Q737 1342 746 1363T770 1399T807 1424T852 1434Q876 1434 896 1425T932 1400T955 1363T964 1319Z" />
<glyph unicode="&#xec;" glyph-name="igrave" horiz-adv-x="680" d="M621 0H59V37Q101 37 127 45T169 68T189 101T195 141V932Q195 947 190 965T171 999T130 1025T59 1036V1075H621V1036Q581 1036 555 1028T513 1007T491 977T485 940V141Q485 126 490 108T509
75T550 48T621 37V0ZM449 1475L648 1182H539L224 1475H449Z" />
<glyph unicode="&#xed;" glyph-name="iacute" horiz-adv-x="680" d="M621 0H59V37Q101 37 127 45T169 68T189 101T195 141V932Q195 947 190 965T171 999T130 1025T59 1036V1075H621V1036Q581 1036 555 1028T513 1007T491 977T485 940V141Q485 126 490 108T509
75T550 48T621 37V0ZM733 1475L418 1182H309L508 1475H733Z" />
<glyph unicode="&#xee;" glyph-name="icircumflex" horiz-adv-x="680" d="M621 0H59V37Q101 37 127 45T169 68T189 101T195 141V932Q195 947 190 965T171 999T130 1025T59 1036V1075H621V1036Q581 1036 555 1028T513 1007T491 977T485 940V141Q485 126 490 108T509
75T550 48T621 37V0ZM602 1182H434L289 1380L160 1182H76L269 1475H404L602 1182Z" />
<glyph unicode="&#xef;" glyph-name="idieresis" horiz-adv-x="680" d="M621 0H59V37Q101 37 127 45T169 68T189 101T195 141V932Q195 947 190 965T171 999T130 1025T59 1036V1075H621V1036Q581 1036 555 1028T513 1007T491 977T485 940V141Q485 126 490 108T509
75T550 48T621 37V0ZM282 1319Q282 1295 274 1274T250 1238T215 1213T170 1204Q146 1204 125 1213T89 1237T64 1274T55 1319Q55 1342 64 1363T88 1399T125 1424T170 1434Q194 1434 214 1425T250 1400T273 1363T282 1319ZM626 1319Q626 1295 618 1274T594 1238T559
1213T514 1204Q490 1204 469 1213T433 1237T408 1274T399 1319Q399 1342 408 1363T432 1399T469 1424T514 1434Q538 1434 558 1425T594 1400T617 1363T626 1319Z" />
<glyph unicode="&#xf0;" glyph-name="eth" horiz-adv-x="1409" d="M385 541Q385 446 398 356T446 196T540 83T692 37Q753 37 801 57T885 114T946 198T987 301T1010 415T1020 532Q1020 591 1014 652T994 769T957 875T898 961T816 1019T705 1040Q613 1040 552 999T454
888T402 729T385 541ZM705 1329Q654 1371 595 1407T469 1475L510 1499Q556 1486 610 1467Q656 1450 715 1424T840 1358L1262 1452V1358L944 1286Q1016 1232 1084 1160T1204 995T1289 789T1321 537Q1321 471 1306 404T1259 273T1177 155T1058 58T899 -7T698 -31Q591
-31 504 -8T349 57T230 153T146 272T96 403T80 537Q80 600 96 666T145 797T228 917T347 1017T503 1085T698 1110Q757 1110 809 1103T907 1083Q859 1177 786 1251L338 1153V1247L705 1329Z" />
<glyph unicode="&#xf1;" glyph-name="ntilde" horiz-adv-x="1511" d="M1098 1454Q1094 1404 1079 1356T1036 1269T971 1206T883 1182Q823 1182 781 1203T706 1250T642 1297T576 1319Q541 1319 521 1303T491 1265T478 1220T475 1182H422Q424 1233 436 1282T473
1369T539 1431T641 1454Q695 1454 735 1433T808 1387T872 1340T934 1319Q965 1319 985 1334T1018 1372T1034 1416T1040 1454H1098ZM621 0H59V37Q101 37 127 45T169 68T189 101T195 141V938Q195 953 190 970T169 1002T128 1026T59 1036V1075H621V1036Q581 1036 555
1028T513 1007T491 977T485 940V686Q520 617 569 539T684 382T835 232T1026 104V932Q1026 947 1022 965T1003 999T962 1025T891 1036V1075H1452V1036Q1412 1036 1386 1028T1345 1007T1323 977T1317 940V135Q1317 120 1322 103T1343 72T1384 47T1452 37V0H1026Q953
18 878 61T732 158T598 273T485 385V141Q485 126 490 108T509 75T550 48T621 37V0Z" />
<glyph unicode="&#xf2;" glyph-name="ograve" horiz-adv-x="1403" d="M80 537Q80 600 96 666T145 797T228 917T347 1017T503 1085T698 1110Q810 1110 899 1087T1058 1024T1177 928T1259 809T1306 676T1321 537Q1321 471 1306 404T1259 273T1177 155T1058 58T899
-7T698 -31Q591 -31 504 -8T349 57T230 153T146 272T96 403T80 537ZM385 541Q385 446 398 356T446 196T540 83T692 37Q753 37 801 57T885 114T946 198T987 301T1010 415T1020 532Q1020 591 1014 652T994 769T957 875T898 961T816 1019T705 1040Q613 1040 552 999T454
888T402 729T385 541ZM542 1475L741 1182H632L317 1475H542Z" />
<glyph unicode="&#xf3;" glyph-name="oacute" horiz-adv-x="1403" d="M80 537Q80 600 96 666T145 797T228 917T347 1017T503 1085T698 1110Q810 1110 899 1087T1058 1024T1177 928T1259 809T1306 676T1321 537Q1321 471 1306 404T1259 273T1177 155T1058 58T899
-7T698 -31Q591 -31 504 -8T349 57T230 153T146 272T96 403T80 537ZM385 541Q385 446 398 356T446 196T540 83T692 37Q753 37 801 57T885 114T946 198T987 301T1010 415T1020 532Q1020 591 1014 652T994 769T957 875T898 961T816 1019T705 1040Q613 1040 552 999T454
888T402 729T385 541ZM1081 1475L766 1182H657L856 1475H1081Z" />
<glyph unicode="&#xf4;" glyph-name="ocircumflex" horiz-adv-x="1403" d="M80 537Q80 600 96 666T145 797T228 917T347 1017T503 1085T698 1110Q810 1110 899 1087T1058 1024T1177 928T1259 809T1306 676T1321 537Q1321 471 1306 404T1259 273T1177 155T1058
58T899 -7T698 -31Q591 -31 504 -8T349 57T230 153T146 272T96 403T80 537ZM385 541Q385 446 398 356T446 196T540 83T692 37Q753 37 801 57T885 114T946 198T987 301T1010 415T1020 532Q1020 591 1014 652T994 769T957 875T898 961T816 1019T705 1040Q613 1040
552 999T454 888T402 729T385 541ZM962 1182H794L649 1380L520 1182H436L629 1475H764L962 1182Z" />
<glyph unicode="&#xf5;" glyph-name="otilde" horiz-adv-x="1403" d="M80 537Q80 600 96 666T145 797T228 917T347 1017T503 1085T698 1110Q810 1110 899 1087T1058 1024T1177 928T1259 809T1306 676T1321 537Q1321 471 1306 404T1259 273T1177 155T1058 58T899
-7T698 -31Q591 -31 504 -8T349 57T230 153T146 272T96 403T80 537ZM385 541Q385 446 398 356T446 196T540 83T692 37Q753 37 801 57T885 114T946 198T987 301T1010 415T1020 532Q1020 591 1014 652T994 769T957 875T898 961T816 1019T705 1040Q613 1040 552 999T454
888T402 729T385 541ZM1038 1454Q1034 1404 1019 1356T976 1269T911 1206T823 1182Q763 1182 721 1203T646 1250T582 1297T516 1319Q481 1319 461 1303T431 1265T418 1220T415 1182H362Q364 1233 376 1282T413 1369T479 1431T581 1454Q635 1454 675 1433T748 1387T812
1340T874 1319Q905 1319 925 1334T958 1372T974 1416T980 1454H1038Z" />
<glyph unicode="&#xf6;" glyph-name="odieresis" horiz-adv-x="1403" d="M80 537Q80 600 96 666T145 797T228 917T347 1017T503 1085T698 1110Q810 1110 899 1087T1058 1024T1177 928T1259 809T1306 676T1321 537Q1321 471 1306 404T1259 273T1177 155T1058 58T899
-7T698 -31Q591 -31 504 -8T349 57T230 153T146 272T96 403T80 537ZM385 541Q385 446 398 356T446 196T540 83T692 37Q753 37 801 57T885 114T946 198T987 301T1010 415T1020 532Q1020 591 1014 652T994 769T957 875T898 961T816 1019T705 1040Q613 1040 552 999T454
888T402 729T385 541ZM641 1319Q641 1295 633 1274T609 1238T574 1213T529 1204Q505 1204 484 1213T448 1237T423 1274T414 1319Q414 1342 423 1363T447 1399T484 1424T529 1434Q553 1434 573 1425T609 1400T632 1363T641 1319ZM985 1319Q985 1295 977 1274T953
1238T918 1213T873 1204Q849 1204 828 1213T792 1237T767 1274T758 1319Q758 1342 767 1363T791 1399T828 1424T873 1434Q897 1434 917 1425T953 1400T976 1363T985 1319Z" />
<glyph unicode="&#xf7;" glyph-name="divide" horiz-adv-x="1149" d="M725 410Q725 380 714 354T684 307T638 276T582 264Q551 264 524 275T477 307T446 353T434 410Q434 440 445 466T477 512T524 543T582 555Q612 555 638 544T683 512T714 466T725 410ZM725 979Q725
948 714 922T684 876T638 845T582 834Q551 834 524 845T477 875T446 921T434 979Q434 1009 445 1035T477 1081T524 1112T582 1124Q612 1124 638 1113T683 1082T714 1036T725 979ZM1036 758V623H113V758H1036Z" />
<glyph unicode="&#xf8;" glyph-name="oslash" horiz-adv-x="1403" d="M1270 1075L1153 952Q1197 911 1228 862T1280 760T1311 650T1321 537Q1321 471 1306 404T1259 273T1177 155T1058 58T899 -7T698 -31Q581 -31 488 -4T324 74L254 0H121L248 135Q205 177 174
225T121 325T90 430T80 537Q80 600 96 666T145 797T228 917T347 1017T503 1085T698 1110Q817 1110 910 1084T1075 1012L1137 1075H1270ZM1020 532Q1020 594 1014 657T991 780L442 201Q477 128 537 84T692 37Q753 37 801 57T885 114T946 198T987 301T1010 415T1020
532ZM385 541Q385 479 390 419T408 305L952 881Q934 916 911 945T857 996T789 1028T705 1040Q613 1040 552 999T454 888T402 729T385 541Z" />
<glyph unicode="&#xf9;" glyph-name="ugrave" horiz-adv-x="1479" d="M590 1038Q548 1038 522 1030T481 1007T461 974T455 934V342Q455 264 479 210T541 125T625 83T717 84Q781 99 830 137T912 231T963 353T981 494V934Q981 949 977 967T958 1000T917 1027T846
1038V1075H1419V1038Q1378 1038 1352 1030T1310 1007T1290 974T1284 934V141Q1284 126 1289 108T1308 75T1348 48T1419 37V0H981V203Q960 164 931 127T862 59T771 5T655 -31Q570 -46 501 -36T378 2T283 73T217 170T177 283T164 403V940Q164 955 159 972T138 1003T97
1028T29 1038V1075H590V1038ZM555 1475L754 1182H645L330 1475H555Z" />
<glyph unicode="&#xfa;" glyph-name="uacute" horiz-adv-x="1479" d="M590 1038Q548 1038 522 1030T481 1007T461 974T455 934V342Q455 264 479 210T541 125T625 83T717 84Q781 99 830 137T912 231T963 353T981 494V934Q981 949 977 967T958 1000T917 1027T846
1038V1075H1419V1038Q1378 1038 1352 1030T1310 1007T1290 974T1284 934V141Q1284 126 1289 108T1308 75T1348 48T1419 37V0H981V203Q960 164 931 127T862 59T771 5T655 -31Q570 -46 501 -36T378 2T283 73T217 170T177 283T164 403V940Q164 955 159 972T138 1003T97
1028T29 1038V1075H590V1038ZM1096 1475L781 1182H672L871 1475H1096Z" />
<glyph unicode="&#xfb;" glyph-name="ucircumflex" horiz-adv-x="1479" d="M590 1038Q548 1038 522 1030T481 1007T461 974T455 934V342Q455 264 479 210T541 125T625 83T717 84Q781 99 830 137T912 231T963 353T981 494V934Q981 949 977 967T958 1000T917 1027T846
1038V1075H1419V1038Q1378 1038 1352 1030T1310 1007T1290 974T1284 934V141Q1284 126 1289 108T1308 75T1348 48T1419 37V0H981V203Q960 164 931 127T862 59T771 5T655 -31Q570 -46 501 -36T378 2T283 73T217 170T177 283T164 403V940Q164 955 159 972T138 1003T97
1028T29 1038V1075H590V1038ZM987 1182H819L674 1380L545 1182H461L654 1475H789L987 1182Z" />
<glyph unicode="&#xfc;" glyph-name="udieresis" horiz-adv-x="1479" d="M590 1038Q548 1038 522 1030T481 1007T461 974T455 934V342Q455 264 479 210T541 125T625 83T717 84Q781 99 830 137T912 231T963 353T981 494V934Q981 949 977 967T958 1000T917 1027T846
1038V1075H1419V1038Q1378 1038 1352 1030T1310 1007T1290 974T1284 934V141Q1284 126 1289 108T1308 75T1348 48T1419 37V0H981V203Q960 164 931 127T862 59T771 5T655 -31Q570 -46 501 -36T378 2T283 73T217 170T177 283T164 403V940Q164 955 159 972T138 1003T97
1028T29 1038V1075H590V1038ZM665 1319Q665 1295 657 1274T633 1238T598 1213T553 1204Q529 1204 508 1213T472 1237T447 1274T438 1319Q438 1342 447 1363T471 1399T508 1424T553 1434Q577 1434 597 1425T633 1400T656 1363T665 1319ZM1009 1319Q1009 1295 1001
1274T977 1238T942 1213T897 1204Q873 1204 852 1213T816 1237T791 1274T782 1319Q782 1342 791 1363T815 1399T852 1424T897 1434Q921 1434 941 1425T977 1400T1000 1363T1009 1319Z" />
<glyph unicode="&#xfd;" glyph-name="yacute" horiz-adv-x="1409" d="M786 1075H1360V1038Q1318 1038 1292 1030T1251 1007T1231 974T1225 934L1223 160Q1223 70 1202 -1T1144 -128T1056 -226T945 -299T818 -351T682 -387Q658 -392 626 -396T558 -402T486 -406T416
-408Q341 -408 286 -406T184 -403Q194 -368 197 -329T201 -264Q201 -229 196 -198T180 -135L213 -133Q235 -180 271 -217T350 -279T442 -318T535 -332Q624 -332 695 -305T817 -227T895 -106T922 53V180Q902 145 874 112T809 50T724 1T616 -31Q532 -46 466 -36T350
2T265 73T208 170T176 283T166 403V940Q166 955 161 972T140 1003T99 1028T31 1038V1075H592V1038Q552 1038 526 1030T485 1009T463 979T457 942V342Q457 264 475 210T523 125T593 83T678 84Q742 99 788 137T864 231T908 353T922 494V934Q922 949 917 967T898 1000T857
1027T786 1038V1075ZM1073 1475L758 1182H649L848 1475H1073Z" />
<glyph unicode="&#xfe;" glyph-name="thorn" horiz-adv-x="1346" d="M25 1436H453V1075H512Q595 1075 683 1064T854 1026T1011 958T1141 855T1229 713T1262 526Q1262 406 1219 304T1098 128T912 11T674 -31Q605 -31 559 -18T475 16L565 84Q590 56 619 44T690 31Q748
31 798 63T884 159T940 314T961 524Q961 627 937 703T874 833T787 922T688 977T593 1004T514 1012H453V-264Q453 -279 457 -297T476 -331T516 -358T586 -369V-406H25V-369Q66 -369 92 -361T134 -338T156 -304T162 -264V1303Q162 1318 157 1336T137 1370T95 1396T25
1407V1436Z" />
<glyph unicode="&#xff;" glyph-name="ydieresis" horiz-adv-x="1409" d="M786 1075H1360V1038Q1318 1038 1292 1030T1251 1007T1231 974T1225 934L1223 160Q1223 70 1202 -1T1144 -128T1056 -226T945 -299T818 -351T682 -387Q658 -392 626 -396T558 -402T486 -406T416
-408Q341 -408 286 -406T184 -403Q194 -368 197 -329T201 -264Q201 -229 196 -198T180 -135L213 -133Q235 -180 271 -217T350 -279T442 -318T535 -332Q624 -332 695 -305T817 -227T895 -106T922 53V180Q902 145 874 112T809 50T724 1T616 -31Q532 -46 466 -36T350
2T265 73T208 170T176 283T166 403V940Q166 955 161 972T140 1003T99 1028T31 1038V1075H592V1038Q552 1038 526 1030T485 1009T463 979T457 942V342Q457 264 475 210T523 125T593 83T678 84Q742 99 788 137T864 231T908 353T922 494V934Q922 949 917 967T898 1000T857
1027T786 1038V1075ZM637 1319Q637 1295 629 1274T605 1238T570 1213T525 1204Q501 1204 480 1213T444 1237T419 1274T410 1319Q410 1342 419 1363T443 1399T480 1424T525 1434Q549 1434 569 1425T605 1400T628 1363T637 1319ZM981 1319Q981 1295 973 1274T949
1238T914 1213T869 1204Q845 1204 824 1213T788 1237T763 1274T754 1319Q754 1342 763 1363T787 1399T824 1424T869 1434Q893 1434 913 1425T949 1400T972 1363T981 1319Z" />
<glyph unicode="&#x2013;" glyph-name="endash" horiz-adv-x="1139" d="M979 758V623H160V758H979Z" />
<glyph unicode="&#x2014;" glyph-name="emdash" horiz-adv-x="1753" d="M1593 758V623H160V758H1593Z" />
<glyph unicode="&#x2018;" glyph-name="quoteleft" horiz-adv-x="463" d="M338 1407Q313 1374 306 1337T306 1261T333 1183T385 1106L227 948L70 1106Q83 1143 105 1184T157 1269T227 1354T313 1436L338 1407Z" />
<glyph unicode="&#x2019;" glyph-name="quoteright" horiz-adv-x="471" d="M139 977Q164 1010 171 1047T171 1123T144 1201T92 1278L250 1436L408 1278Q395 1240 373 1199T320 1115T250 1030T164 948L139 977Z" />
<glyph unicode="&#x201a;" glyph-name="quotesinglbase" horiz-adv-x="492" d="M133 -197Q158 -164 165 -127T165 -51T138 27T86 104L244 262L401 104Q388 66 366 25T314 -59T244 -144T158 -225L133 -197Z" />
<glyph unicode="&#x201c;" glyph-name="quotedblleft" horiz-adv-x="819" d="M694 1407Q670 1374 663 1337T662 1261T690 1183T741 1106L584 948L426 1106Q439 1143 461 1184T514 1269T584 1354T670 1436L694 1407ZM338 1407Q313 1374 306 1337T306 1261T333 1183T385
1106L227 948L70 1106Q83 1143 105 1184T157 1269T227 1354T313 1436L338 1407Z" />
<glyph unicode="&#x201d;" glyph-name="quotedblright" horiz-adv-x="827" d="M139 977Q164 1010 171 1047T171 1123T144 1201T92 1278L250 1436L408 1278Q395 1240 373 1199T320 1115T250 1030T164 948L139 977ZM496 977Q520 1010 527 1047T528 1123T500 1201T449
1278L606 1436L764 1278Q751 1240 729 1199T676 1115T606 1030T520 948L496 977Z" />
<glyph unicode="&#x201e;" glyph-name="quotedblbase" horiz-adv-x="848" d="M133 -197Q158 -164 165 -127T165 -51T138 27T86 104L244 262L401 104Q388 66 366 25T314 -59T244 -144T158 -225L133 -197ZM489 -197Q514 -164 521 -127T521 -51T494 27T442 104L600
262L758 104Q745 66 723 25T670 -59T600 -144T514 -225L489 -197Z" />
<glyph unicode="&#x2022;" glyph-name="bullet" horiz-adv-x="838" d="M674 686Q674 633 654 587T599 505T518 450T418 430Q365 430 319 450T238 505T184 586T164 686Q164 739 183 785T237 865T318 920T418 940Q471 940 517 920T599 866T654 785T674 686Z" />
<glyph unicode="&#x2039;" glyph-name="guilsinglleft" horiz-adv-x="719" d="M586 891V743L209 545V532L586 340V184L76 469V610L586 891Z" />
<glyph unicode="&#x203a;" glyph-name="guilsinglright" horiz-adv-x="719" d="M643 610V469L133 184V340L510 532V545L133 743V891L643 610Z" />
</font>
</defs>
</svg>
