<?xml version="1.0" standalone="no"?>
<!DOCTYPE svg PUBLIC "-//W3C//DTD SVG 1.1//EN" "http://www.w3.org/Graphics/SVG/1.1/DTD/svg11.dtd">
<svg xmlns="http://www.w3.org/2000/svg">
<defs >
<font id="Rubik" horiz-adv-x="542" ><font-face
    font-family="Rubik Light"
    units-per-em="1000"
    panose-1="0 0 4 0 0 0 0 0 0 0"
    ascent="935"
    descent="-250"
    alphabetic="0" />
<glyph unicode=" " glyph-name="space" horiz-adv-x="258" />
<glyph unicode="!" glyph-name="exclam" horiz-adv-x="225" d="M94 143T88 149T82 165V678Q82 688 88 694T104 700H121Q131 700 137 694T143 678V165Q143 155 137 149T121 143H104Q94 143 88 149ZM83 0T77 6T71 22V60Q71 70 77 76T93 83H131Q141 83 147 77T154
60V22Q154 12 148 6T131 0H93Q83 0 77 6Z" />
<glyph unicode="&quot;" glyph-name="quotedbl" horiz-adv-x="340" d="M79 508T77 527L62 690V692Q62 700 67 705T81 710H126Q135 710 140 705T145 690L130 527Q128 508 113 508H94Q79 508 77 527ZM212 508T210 527L195 690V692Q195 700 200 705T214 710H259Q268
710 273 705T278 690L263 527Q261 508 246 508H227Q212 508 210 527Z" />
<glyph unicode="#" glyph-name="numbersign" horiz-adv-x="701" d="M176 39T170 45T165 60L185 191H74Q64 191 58 197T52 213V227Q52 237 58 243T74 249H193L222 445H100Q90 445 84 451T78 467V481Q78 491 84 497T100 503H231L251 634Q253 643 258 649T273 655H291Q300
655 306 649T311 634L291 503H458L478 634Q480 643 485 649T500 655H518Q527 655 533 649T538 634L518 503H627Q637 503 643 497T649 481V467Q649 457 643 451T627 445H510L481 249H601Q611 249 617 243T623 227V213Q623 203 617 197T601 191H472L453 60Q451 51
445 45T430 39H412Q403 39 397 45T392 60L412 191H245L226 60Q224 51 218 45T203 39H185Q176 39 170 45ZM254 249H420L449 445H283L254 249Z" />
<glyph unicode="$" glyph-name="dollar" horiz-adv-x="596" d="M279 -100T273 -94T267 -78V-8Q199 -3 149 23T73 87T44 170Q44 178 50 184T65 190H85Q103 190 107 170Q114 122 162 86T300 50Q395 50 441 84T488 181Q488 219 466 243T400 286T270 333Q193 358 150
382T85 441T64 530Q64 603 117 652T267 709V778Q267 788 273 794T289 800H308Q318 800 324 794T330 778V708Q393 702 438 675T506 611T531 535Q531 527 526 521T510 515H490Q483 515 476 519T468 535Q462 585 415 617T295 650Q218 650 173 620T127 530Q127 491
147 466T209 422T330 377Q412 351 458 327T527 269T551 181Q551 97 493 48T330 -9V-78Q330 -88 324 -94T308 -100H289Q279 -100 273 -94Z" />
<glyph unicode="%" glyph-name="percent" horiz-adv-x="741" d="M130 350T94 384T54 480Q53 497 53 523Q53 551 54 569Q57 632 92 668T194 705Q261 705 296 669T334 569Q336 533 336 523Q336 514 334 480Q331 419 295 385T194 350Q130 350 94 384ZM99 0T94 5T88
20Q88 26 92 31L585 681Q593 692 599 696T618 700H635Q644 700 649 695T655 680Q655 674 651 669L158 19Q150 9 144 5T125 0H108Q99 0 94 5ZM235 401T254 425T276 483Q278 521 278 525Q278 532 276 566Q274 601 255 625T194 649Q153 649 134 625T112 566Q111 549
111 525Q111 502 112 483Q115 449 134 425T194 401Q235 401 254 425ZM483 -6T447 30T407 129Q406 146 406 172Q406 200 407 218Q410 281 445 317T547 354Q614 354 649 318T687 218Q689 182 689 172Q689 163 687 129Q684 67 648 31T547 -6Q483 -6 447 30ZM588 50T607
74T629 132Q631 170 631 174Q631 181 629 215Q627 250 608 274T547 298Q506 298 487 274T465 215Q464 198 464 174Q464 151 465 132Q468 98 487 74T547 50Q588 50 607 74Z" />
<glyph unicode="&amp;" glyph-name="ampersand" horiz-adv-x="674" d="M217 -10T167 15T89 84T61 184Q61 248 99 291T205 375Q153 430 133 468T112 550Q112 593 134 630T197 688T286 710Q336 710 375 689T437 632T460 550Q460 506 439 473T386 415T303 363L494
176Q538 250 549 344Q550 354 555 360T571 366H590Q600 366 606 360T612 344Q608 232 540 131L638 35Q647 26 647 19Q647 0 627 0H605Q587 0 577 10L503 84Q414 -10 281 -10Q217 -10 167 15ZM329 445T363 475T397 550Q397 595 366 622T286 650Q240 650 208 623T175
550Q175 519 192 489T260 407Q329 445 363 475ZM328 50T373 70T457 129L247 332Q187 298 156 265T124 184Q124 122 170 86T281 50Q328 50 373 70Z" />
<glyph unicode="&apos;" glyph-name="quotesingle" horiz-adv-x="207" d="M79 508T77 527L62 690V692Q62 700 67 705T81 710H126Q135 710 140 705T145 690L130 527Q128 508 113 508H94Q79 508 77 527Z" />
<glyph unicode="(" glyph-name="parenleft" horiz-adv-x="319" d="M189 -159T144 -110T82 38T64 309Q64 480 81 579T144 727T272 776Q281 776 287 770T294 754V740Q294 731 288 725T275 718Q217 718 185 682T138 557T123 309Q123 149 137 61T184 -64T275 -101Q282
-101 288 -107T294 -123V-137Q294 -146 288 -152T272 -159Q189 -159 144 -110Z" />
<glyph unicode=")" glyph-name="parenright" horiz-adv-x="319" d="M38 -159T32 -153T25 -137V-123Q25 -114 31 -108T44 -101Q102 -101 134 -64T181 61T196 309Q196 469 182 557T135 681T44 718Q37 718 31 724T25 740V754Q25 763 31 769T47 776Q130 776 175 728T237
580T255 309Q255 138 238 39T175 -110T47 -159Q38 -159 32 -153Z" />
<glyph unicode="*" glyph-name="asterisk" horiz-adv-x="446" d="M110 447Q101 453 101 465Q101 471 105 477Q105 478 111 484L187 556L83 569L75 571Q67 573 63 581T61 599L74 637Q76 645 84 649T101 651L109 647L201 597L182 700L181 708Q181 716 187 723T203
730H243Q252 730 258 723T265 708L264 700L244 596L337 647L345 651Q347 652 350 652Q358 652 364 648T372 637L385 599L386 593Q386 586 382 580T371 571L363 569L258 555L335 484Q341 478 341 477Q345 471 345 465Q345 453 336 447L304 423Q298 420 291 420Q278
420 273 428Q273 429 272 430T269 435L223 531L177 435Q175 431 174 430T173 428Q168 420 155 420Q148 420 142 423L110 447Z" />
<glyph unicode="+" glyph-name="plus" horiz-adv-x="628" d="M296 33T290 39T284 55V274H67Q57 274 51 280T45 296V310Q45 320 51 326T67 332H284V545Q284 555 290 561T306 567H321Q331 567 337 561T343 545V332H561Q571 332 577 326T583 310V296Q583 286 577
280T561 274H343V55Q343 45 337 39T321 33H306Q296 33 290 39Z" />
<glyph unicode="," glyph-name="comma" horiz-adv-x="237" d="M65 -75T61 -69T59 -54L78 66Q81 93 103 93H148Q155 93 159 88T163 77Q163 68 159 59L116 -54Q111 -65 106 -70T90 -75H73Q65 -75 61 -69Z" />
<glyph unicode="-" glyph-name="hyphen" horiz-adv-x="487" d="M86 271T80 277T74 293V307Q74 317 80 323T96 329H391Q401 329 407 323T413 307V293Q413 283 407 277T391 271H96Q86 271 80 277Z" />
<glyph unicode="." glyph-name="period" horiz-adv-x="238" d="M85 0T79 6T73 22V70Q73 80 79 86T95 93H143Q153 93 159 87T166 70V22Q166 12 160 6T143 0H95Q85 0 79 6Z" />
<glyph unicode="/" glyph-name="slash" horiz-adv-x="459" d="M39 -84T33 -78T27 -64Q27 -60 30 -52L374 771Q376 776 381 781T396 786H413Q421 786 427 780T433 766Q433 762 430 754L86 -69Q84 -74 79 -79T64 -84H47Q39 -84 33 -78Z" />
<glyph unicode="0" glyph-name="zero" horiz-adv-x="616" d="M182 -10T127 66T68 266L67 349L68 434Q71 558 126 634T308 710Q434 710 489 634T548 434Q549 406 549 349Q549 293 548 266Q545 142 490 66T308 -10Q182 -10 127 66ZM394 50T438 107T485 271Q486 300
486 351Q486 402 485 429Q483 533 439 591T308 650Q222 650 178 592T131 429L130 351L131 271Q133 165 177 108T308 50Q394 50 438 107Z" />
<glyph unicode="1" glyph-name="one" horiz-adv-x="398" d="M266 0T260 6T254 22V618L75 480Q67 475 61 475Q51 475 44 484L33 498Q28 505 28 512Q28 522 37 529L250 693Q260 700 276 700H295Q305 700 311 694T317 678V22Q317 12 311 6T295 0H276Q266 0 260 6Z" />
<glyph unicode="2" glyph-name="two" horiz-adv-x="560" d="M64 0T58 6T52 22V37Q52 57 77 79L336 338Q391 389 410 424T429 507Q429 574 391 612T281 650Q214 650 174 611T126 506Q125 495 118 489T103 483H83Q73 483 68 488T62 502Q64 551 88 599T161 678T281
710Q388 710 440 652T492 507Q492 447 466 399T383 298L149 60H484Q495 60 501 54T507 37V22Q507 12 501 6T484 0H74Q64 0 58 6Z" />
<glyph unicode="3" glyph-name="three" horiz-adv-x="576" d="M214 -10T161 14T78 77T47 161Q47 170 53 175T68 180H82Q92 180 99 176T109 157Q123 98 172 74T286 50Q366 50 414 88T462 198Q462 336 296 336H208Q198 336 192 342T186 358V373Q186 384 195 397L401
640H99Q89 640 83 646T77 662V677Q77 687 83 693T99 700H472Q483 700 489 694T495 677V662Q495 653 487 643L276 396H296Q402 396 463 346T525 198Q525 134 494 87T409 15T286 -10Q214 -10 161 14Z" />
<glyph unicode="4" glyph-name="four" horiz-adv-x="595" d="M396 0T390 6T384 22V180H54Q44 180 38 186T32 202V218Q32 233 43 248L347 683Q352 691 362 695T384 700H425Q435 700 441 694T447 678V240H538Q548 240 554 234T560 218V202Q560 192 554 186T538 180H447V22Q447
12 441 6T425 0H406Q396 0 390 6ZM111 240H384V629L111 240Z" />
<glyph unicode="5" glyph-name="five" horiz-adv-x="572" d="M210 -10T159 16T80 85T50 175V177Q50 185 55 189T70 194H89Q99 194 105 190T114 171Q129 110 175 80T280 50Q357 50 407 96T458 224Q458 274 435 311T370 368T280 388Q240 388 216 378T166 349Q151
338 142 333T121 328H103Q94 328 87 334T81 350L111 677Q112 688 117 694T133 700H459Q469 700 475 694T481 678V662Q481 652 475 646T459 640H172L151 414Q204 448 280 448Q348 448 402 422T489 346T521 224Q521 149 489 96T403 17T280 -10Q210 -10 159 16Z" />
<glyph unicode="6" glyph-name="six" horiz-adv-x="582" d="M221 -10T166 23T83 110T55 226Q55 313 118 403L315 680Q316 682 320 687T331 696T346 700H365Q374 700 379 694T385 678Q385 673 380 665L230 453Q260 461 298 461Q375 461 430 429T513 342T541 226Q541
164 513 110T430 23T298 -10Q221 -10 166 23ZM346 50T387 70T453 131T478 226Q478 281 453 320T387 380T298 401Q250 401 209 381T143 321T118 226Q118 171 143 131T209 71T298 50Q346 50 387 70Z" />
<glyph unicode="7" glyph-name="seven" horiz-adv-x="487" d="M144 0T139 6T133 22L135 31L392 640H51Q41 640 35 646T29 662V677Q29 687 35 693T51 700H437Q448 700 454 694T460 677V662Q460 643 453 625L200 25Q195 13 190 7T174 0H153Q144 0 139 6Z" />
<glyph unicode="8" glyph-name="eight" horiz-adv-x="618" d="M239 -10T183 14T93 85T60 197Q60 259 90 304T173 374Q131 397 108 435T85 526Q85 613 148 661T309 710Q406 710 469 662T533 526Q533 474 510 436T445 374Q498 349 528 304T558 197Q558 132 525 85T436
14T309 -10Q239 -10 183 14ZM377 405T423 438T470 526Q470 583 424 616T309 650Q240 650 194 617T148 526Q148 469 194 436T309 403Q377 405 423 438ZM388 50T441 90T495 197Q495 263 442 303T309 343Q229 343 176 303T123 197Q123 130 176 90T309 50Q388 50 441
90Z" />
<glyph unicode="9" glyph-name="nine" horiz-adv-x="572" d="M192 0T187 6T181 22Q181 28 186 35L344 257Q314 249 279 249Q203 249 150 282T69 368T42 479Q42 537 69 590T149 676T279 710Q355 710 409 677T490 590T517 479Q517 427 500 387T458 311L252 20Q251
18 247 13T236 4T221 0H201Q192 0 187 6ZM326 309T366 330T430 390T454 479Q454 530 430 569T366 629T279 650Q232 650 192 629T129 569T105 479Q105 428 128 390T192 330T279 309Q326 309 366 330Z" />
<glyph unicode=":" glyph-name="colon" horiz-adv-x="241" d="M86 350T80 356T74 372V420Q74 430 80 436T96 443H144Q154 443 160 437T167 420V372Q167 362 161 356T144 350H96Q86 350 80 356ZM86 0T80 6T74 22V70Q74 80 80 86T96 93H144Q154 93 160 87T167 70V22Q167
12 161 6T144 0H96Q86 0 80 6Z" />
<glyph unicode=";" glyph-name="semicolon" horiz-adv-x="259" d="M98 350T92 356T86 372V420Q86 430 92 436T108 443H156Q166 443 172 437T179 420V372Q179 362 173 356T156 350H108Q98 350 92 356ZM80 -75T76 -69T74 -54L93 66Q96 93 118 93H163Q169 93 173
88T178 77Q178 68 174 59L131 -54Q126 -65 121 -70T105 -75H88Q80 -75 76 -69Z" />
<glyph unicode="&lt;" glyph-name="less" horiz-adv-x="481" d="M381 84T363 96L68 300Q52 311 46 321T39 346V358Q39 372 45 382T68 404L363 608Q381 620 390 620Q399 620 404 615T410 600V583Q410 573 406 567T389 552L100 352L389 152Q401 144 405 138T410
121V104Q410 95 405 90T390 84Q381 84 363 96Z" />
<glyph unicode="=" glyph-name="equal" horiz-adv-x="571" d="M88 396T82 402T76 418V432Q76 442 82 448T98 454H473Q483 454 489 448T495 432V418Q495 408 489 402T473 396H98Q88 396 82 402ZM88 146T82 152T76 168V182Q76 192 82 198T98 204H473Q483 204 489
198T495 182V168Q495 158 489 152T473 146H98Q88 146 82 152Z" />
<glyph unicode="&gt;" glyph-name="greater" horiz-adv-x="480" d="M82 84T77 89T71 104V121Q71 131 75 137T92 152L381 352L92 552Q80 560 76 566T71 583V600Q71 609 76 614T91 620Q100 620 118 608L413 404Q429 393 435 383T442 358V346Q442 332 436 322T413
300L118 96Q100 84 91 84Q82 84 77 89Z" />
<glyph unicode="?" glyph-name="question" horiz-adv-x="503" d="M237 143T231 149T225 165V213Q225 254 239 287T273 344T326 403Q367 446 385 473T404 536Q404 589 359 620T255 652Q192 652 150 619T96 513Q92 491 72 491H56Q47 491 41 496T35 511Q36 566 65
611T143 683T255 710Q322 710 369 686T440 622T464 536Q464 484 440 446T369 359Q327 315 307 284T286 213V165Q286 155 280 149T264 143H247Q237 143 231 149ZM225 0T219 6T213 22V60Q213 70 219 76T235 83H273Q283 83 289 77T296 60V22Q296 12 290 6T273 0H235Q225
0 219 6Z" />
<glyph unicode="@" glyph-name="at" horiz-adv-x="826" d="M253 -113T167 -36T64 187Q61 216 61 274Q61 333 64 358Q81 502 168 581T403 661Q573 661 661 584T757 358Q759 316 759 294Q759 245 757 225Q748 79 628 79Q586 79 561 98T522 138Q481 69 397 69Q321
69 277 122T233 273Q233 370 277 424T397 478Q435 478 459 464T500 429V448Q500 458 506 464T522 470H539Q549 470 555 464T561 448V230Q561 185 579 161T628 137Q667 137 681 166T696 231Q698 251 698 295Q698 333 696 353Q687 477 618 540T403 603Q282 603 211
538T125 353Q122 328 122 274Q122 221 125 192Q138 74 209 10T403 -55Q471 -55 515 -43T575 -21T625 15Q626 16 632 21T649 27H675Q684 27 690 21T696 6Q696 -1 691 -8Q644 -56 577 -84T403 -113Q253 -113 167 -36ZM453 127T476 165T500 273Q500 342 477 381T397
420Q343 420 319 381T294 273Q294 210 319 169T397 127Q453 127 476 165Z" />
<glyph unicode="A" glyph-name="A" horiz-adv-x="650" d="M36 0T30 6T24 20L26 31L279 680Q287 700 308 700H342Q363 700 371 680L624 31L626 20Q626 12 620 6T606 0H586Q577 0 572 5T564 15L502 175H148L86 15Q84 10 79 5T64 0H44Q36 0 30 6ZM172 235H478L325
629L172 235Z" />
<glyph unicode="B" glyph-name="B" horiz-adv-x="653" d="M106 0T100 6T94 22V677Q94 687 100 693T116 700H377Q476 700 527 649T578 521Q578 462 552 424T490 369Q533 347 562 302T592 198Q592 146 568 101T496 28T384 0H116Q106 0 100 6ZM364 396Q438 396 476
428T515 521Q515 580 477 610T364 640H157V396H364ZM374 60Q447 60 488 98T529 198Q529 260 488 298T374 336H157V60H374Z" />
<glyph unicode="C" glyph-name="C" horiz-adv-x="651" d="M201 -10T136 63T66 261Q65 288 65 349Q65 411 66 439Q71 563 136 636T331 710Q420 710 479 678T566 596T598 494V492Q598 484 592 479T577 474H557Q539 474 535 495Q516 580 466 615T331 650Q237 650
185 597T129 434Q128 407 128 351Q128 295 129 266Q133 156 185 103T331 50Q416 50 466 85T535 205Q539 226 557 226H577Q586 226 592 221T598 206Q595 154 567 105T479 23T331 -10Q201 -10 136 63Z" />
<glyph unicode="D" glyph-name="D" horiz-adv-x="677" d="M106 0T100 6T94 22V677Q94 687 100 693T116 700H329Q433 700 493 670T579 580T607 430Q608 400 608 351Q608 301 607 271Q605 175 580 117T495 29T334 0H116Q106 0 100 6ZM329 60Q409 60 455 81T521 149T544
276Q545 306 545 351Q545 395 544 425Q542 537 492 588T324 640H157V60H329Z" />
<glyph unicode="E" glyph-name="E" horiz-adv-x="592" d="M106 0T100 6T94 22V677Q94 687 100 693T116 700H506Q517 700 523 694T529 677V662Q529 652 523 646T506 640H157V385H484Q495 385 501 379T507 362V347Q507 337 501 331T484 325H157V60H514Q525 60 531
54T537 37V22Q537 12 531 6T514 0H116Q106 0 100 6Z" />
<glyph unicode="F" glyph-name="F" horiz-adv-x="570" d="M106 0T100 6T94 22V677Q94 687 100 693T116 700H502Q513 700 519 694T525 677V662Q525 652 519 646T502 640H157V371H482Q493 371 499 365T505 348V333Q505 323 499 317T482 311H157V22Q157 12 151 6T134
0H116Q106 0 100 6Z" />
<glyph unicode="G" glyph-name="G" horiz-adv-x="664" d="M209 -10T140 62T67 255Q66 285 66 350Q66 415 67 445Q71 566 140 638T334 710Q419 710 477 678T563 603T594 525V523Q594 515 588 510T573 505H551Q542 505 538 509T530 525Q513 578 465 614T334 650Q241
650 188 599T130 440Q129 410 129 350Q129 290 130 260Q134 152 187 101T334 50Q427 50 484 103T541 260V311H367Q357 311 351 317T345 334V348Q345 358 351 364T367 371H581Q592 371 598 365T604 348V260Q604 180 572 119T479 24T334 -10Q209 -10 140 62Z" />
<glyph unicode="H" glyph-name="H" horiz-adv-x="700" d="M106 0T100 6T94 22V677Q94 687 100 693T116 700H134Q145 700 151 694T157 677V385H543V677Q543 687 549 693T565 700H583Q594 700 600 694T606 677V22Q606 12 600 6T583 0H565Q555 0 549 6T543 22V325H157V22Q157
12 151 6T134 0H116Q106 0 100 6Z" />
<glyph unicode="I" glyph-name="I" horiz-adv-x="251" d="M106 0T100 6T94 22V678Q94 688 100 694T116 700H135Q145 700 151 694T157 678V22Q157 12 151 6T135 0H116Q106 0 100 6Z" />
<glyph unicode="J" glyph-name="J" horiz-adv-x="618" d="M184 -10T117 41T45 194Q45 204 50 210T66 216H86Q96 216 101 210T108 195Q114 121 163 86T288 50Q374 50 420 106T467 256V640H98Q88 640 82 646T76 662V678Q76 688 82 694T98 700H507Q518 700 524 694T530
677V255Q530 135 467 63T288 -10Q184 -10 117 41Z" />
<glyph unicode="K" glyph-name="K" horiz-adv-x="575" d="M106 0T100 6T94 22V677Q94 687 100 693T116 700H134Q145 700 151 694T157 677V417L460 685Q468 691 476 695T498 700H514Q522 700 528 694T534 680Q534 672 529 667L190 365L550 34Q556 28 556 20Q556
12 550 6T536 0H519Q506 0 498 4T481 15L157 311V22Q157 12 151 6T134 0H116Q106 0 100 6Z" />
<glyph unicode="L" glyph-name="L" horiz-adv-x="548" d="M106 0T100 6T94 22V678Q94 688 100 694T116 700H135Q145 700 151 694T157 678V60H502Q513 60 519 54T525 37V22Q525 12 519 6T502 0H116Q106 0 100 6Z" />
<glyph unicode="M" glyph-name="M" horiz-adv-x="780" d="M107 0T101 6T94 22V677Q94 688 100 694T117 700H142Q157 700 163 687L390 245L618 687Q625 700 639 700H663Q674 700 680 694T686 677V22Q686 12 680 6T663 0H645Q635 0 629 6T623 22V564L432 188Q423
168 401 168H379Q357 168 348 188L157 564V22Q157 12 151 6T135 0H117Q107 0 101 6Z" />
<glyph unicode="N" glyph-name="N" horiz-adv-x="684" d="M106 0T100 6T94 22V677Q94 687 100 693T116 700H137Q150 700 158 688L527 124V677Q527 687 533 693T549 700H567Q578 700 584 694T590 677V23Q590 13 584 7T568 0H546Q533 0 525 12L157 574V22Q157 12
151 6T134 0H116Q106 0 100 6Z" />
<glyph unicode="O" glyph-name="O" horiz-adv-x="662" d="M74 -10T67 266Q66 296 66 350Q66 404 67 434Q71 570 141 640T331 710Q451 710 521 640T595 434Q597 374 597 350Q597 326 595 266Q588 -10 331 -10Q74 -10 67 266ZM421 50T474 104T532 271Q534 331 534
350Q534 369 532 429Q528 541 474 595T331 650Q242 650 188 596T130 429Q129 399 129 350Q129 301 130 271Q134 159 187 105T331 50Q421 50 474 104Z" />
<glyph unicode="P" glyph-name="P" horiz-adv-x="628" d="M106 0T100 6T94 22V677Q94 687 100 693T116 700H359Q466 700 527 647T589 493Q589 393 528 340T359 286H157V22Q157 12 151 6T134 0H116Q106 0 100 6ZM354 346Q440 346 483 383T526 493Q526 565 483 602T354
640H157V346H354Z" />
<glyph unicode="Q" glyph-name="Q" horiz-adv-x="662" d="M532 -65T515 -42L471 19Q411 -10 331 -10Q74 -10 67 266Q66 296 66 350Q66 404 67 434Q71 570 141 640T331 710Q451 710 521 640T595 434Q597 374 597 350Q597 326 595 266Q590 123 522 56L586 -34Q589
-40 589 -45Q589 -53 583 -59T569 -65H547Q532 -65 515 -42ZM421 50T474 104T532 271Q534 331 534 350Q534 369 532 429Q528 541 474 595T331 650Q242 650 188 596T130 429Q129 399 129 350Q129 301 130 271Q134 159 187 105T331 50Q421 50 474 104Z" />
<glyph unicode="R" glyph-name="R" horiz-adv-x="640" d="M106 0T100 6T94 22V677Q94 687 100 693T116 700H349Q457 700 518 649T579 498Q579 419 540 371T428 305L589 31Q592 25 592 20Q592 12 586 6T572 0H560Q545 0 538 6T522 27L363 296H157V22Q157 12 151
6T134 0H116Q106 0 100 6ZM344 356Q431 356 473 391T516 498Q516 569 474 604T344 640H157V356H344Z" />
<glyph unicode="S" glyph-name="S" horiz-adv-x="605" d="M226 -10T169 15T81 82T48 170Q48 178 54 184T69 190H89Q107 190 111 170Q118 122 166 86T304 50Q399 50 445 84T492 181Q492 219 470 243T404 286T274 333Q197 358 154 382T89 441T68 530Q68 581 95 622T175
686T299 710Q373 710 426 684T506 617T535 535Q535 527 530 521T514 515H494Q487 515 480 519T472 535Q466 585 419 617T299 650Q222 650 177 620T131 530Q131 491 151 466T213 422T334 377Q416 351 462 327T531 269T555 181Q555 91 488 41T304 -10Q226 -10 169
15Z" />
<glyph unicode="T" glyph-name="T" horiz-adv-x="557" d="M259 0T253 6T247 22V640H49Q39 640 33 646T27 662V677Q27 687 33 693T49 700H507Q518 700 524 694T530 677V662Q530 652 524 646T507 640H310V22Q310 12 304 6T287 0H269Q259 0 253 6Z" />
<glyph unicode="U" glyph-name="U" horiz-adv-x="691" d="M221 -10T155 59T88 271V677Q88 687 94 693T110 700H128Q139 700 145 694T151 677V268Q151 158 202 104T346 50Q438 50 489 104T540 268V677Q540 688 546 694T563 700H581Q591 700 597 694T603 677V271Q603
128 537 59T346 -10Q221 -10 155 59Z" />
<glyph unicode="V" glyph-name="V" horiz-adv-x="638" d="M280 0T271 24L39 669L37 680Q37 688 43 694T57 700H78Q87 700 92 695T100 685L319 73L538 685Q540 690 545 695T560 700H581Q589 700 595 694T601 680L599 669L367 24Q358 0 333 0H305Q280 0 271 24Z" />
<glyph unicode="W" glyph-name="W" horiz-adv-x="788" d="M203 0T197 5T187 24L50 668L48 680Q48 688 54 694T68 700H89Q108 700 111 685L228 115L352 522Q360 545 383 545H405Q428 545 436 522L560 115L677 685Q680 700 699 700H720Q728 700 734 694T740 680L738
668L601 24Q598 11 592 6T573 0H558Q535 0 527 24L394 446L261 24Q254 0 230 0H215Q203 0 197 5Z" />
<glyph unicode="X" glyph-name="X" horiz-adv-x="609" d="M42 0T36 6T30 20Q30 27 34 33L267 356L43 667Q39 673 39 680Q39 688 45 694T59 700H83Q96 700 106 685L307 405L504 685Q515 700 527 700H549Q557 700 563 694T569 680Q569 673 565 667L344 354L576 33Q580
27 580 20Q580 12 574 6T560 0H536Q524 0 513 15L304 304L95 15Q85 0 72 0H50Q42 0 36 6Z" />
<glyph unicode="Y" glyph-name="Y" horiz-adv-x="632" d="M296 0T290 6T284 22V267L40 667Q36 675 36 680Q36 688 42 694T56 700H76Q90 700 99 685L316 332L533 685Q542 700 556 700H576Q584 700 590 694T596 680Q596 675 592 667L348 267V22Q348 12 342 6T325
0H306Q296 0 290 6Z" />
<glyph unicode="Z" glyph-name="Z" horiz-adv-x="579" d="M54 0T48 6T42 23V43Q42 60 49 70T57 81L451 640H73Q63 640 57 646T51 662V677Q51 687 57 693T73 700H504Q515 700 521 694T527 677V657Q527 646 524 639T514 621L122 60H514Q525 60 531 54T537 37V22Q537
12 531 6T514 0H64Q54 0 48 6Z" />
<glyph unicode="[" glyph-name="bracketleft" horiz-adv-x="301" d="M90 -159T84 -153T78 -137V754Q78 764 84 770T100 776H251Q261 776 267 770T273 754V740Q273 730 267 724T251 718H139V-101H251Q261 -101 267 -107T273 -123V-137Q273 -147 267 -153T251 -159H100Q90
-159 84 -153Z" />
<glyph unicode="\" glyph-name="backslash" horiz-adv-x="459" d="M386 -84T381 -79T373 -69L29 754Q26 762 26 766Q26 774 32 780T46 786H63Q72 786 77 781T85 771L429 -52Q432 -60 432 -64Q432 -72 426 -78T412 -84H395Q386 -84 381 -79Z" />
<glyph unicode="]" glyph-name="bracketright" horiz-adv-x="301" d="M40 -159T34 -153T28 -137V-123Q28 -113 34 -107T50 -101H162V718H50Q40 718 34 724T28 740V754Q28 764 34 770T50 776H201Q211 776 217 770T223 754V-137Q223 -147 217 -153T201 -159H50Q40
-159 34 -153Z" />
<glyph unicode="^" glyph-name="asciicircum" horiz-adv-x="418" d="M73 575T73 586Q73 594 85 606L172 691Q181 700 188 702T204 705H214Q224 705 230 703T246 691L333 606Q345 594 345 586Q345 575 331 575H314Q307 575 300 577T289 582L209 642L129 582Q125
579 118 577T104 575H87Q73 575 73 586Z" />
<glyph unicode="_" glyph-name="underscore" horiz-adv-x="753" d="M79 -28T73 -22T67 -6V8Q67 18 73 24T89 30H664Q674 30 680 24T686 8V-6Q686 -16 680 -22T664 -28H89Q79 -28 73 -22Z" />
<glyph unicode="`" glyph-name="grave" horiz-adv-x="311" d="M204 595T198 597T184 605L75 694Q70 699 70 706Q70 725 89 725H130Q144 725 151 722T167 707L236 624Q241 619 241 611Q241 595 225 595H215Q204 595 198 597Z" />
<glyph unicode="a" glyph-name="a" horiz-adv-x="536" d="M173 -10T132 10T67 64T42 139Q42 205 95 247T240 301L398 323V358Q398 413 365 442T262 472Q211 472 179 452T137 404Q133 392 128 388T113 383H99Q90 383 84 389T77 405Q77 427 97 456T159 508T262 530Q369
530 414 479T459 355V22Q459 12 453 6T437 0H420Q410 0 404 6T398 22V69Q376 36 334 13T221 -10Q173 -10 132 10ZM304 48T351 96T398 234V268L269 250Q187 239 145 212T103 144Q103 98 141 73T231 48Q304 48 351 96Z" />
<glyph unicode="b" glyph-name="b" horiz-adv-x="580" d="M201 -10T143 69V22Q143 12 137 6T121 0H104Q94 0 88 6T82 22V688Q82 698 88 704T104 710H121Q131 710 137 704T143 688V451Q202 530 311 530Q419 530 470 460T525 288Q526 278 526 260Q526 242 525 232Q522
131 471 61T311 -10Q201 -10 143 69ZM386 48T423 99T464 232Q465 242 465 260Q465 353 429 412T305 472Q252 472 216 447T162 384T143 302L142 263L143 224Q146 153 186 101T305 48Q386 48 423 99Z" />
<glyph unicode="c" glyph-name="c" horiz-adv-x="536" d="M174 -10T117 50T57 220L56 260L57 300Q60 409 117 469T278 530Q344 530 390 507T460 447T485 371Q486 362 479 356T463 349H449Q439 349 435 353T425 370Q405 425 369 448T278 472Q206 472 164 429T118
295L117 260L118 225Q121 135 163 92T278 48Q333 48 369 71T425 150Q430 162 434 166T449 171H463Q472 171 479 165T485 149Q483 110 460 74T391 14T278 -10Q174 -10 117 50Z" />
<glyph unicode="d" glyph-name="d" horiz-adv-x="580" d="M161 -10T110 60T55 232L54 260L55 288Q58 389 109 459T269 530Q378 530 437 451V688Q437 698 443 704T459 710H476Q486 710 492 704T498 688V22Q498 12 492 6T476 0H459Q449 0 443 6T437 22V69Q379 -10
269 -10Q161 -10 110 60ZM354 48T394 100T437 224Q438 234 438 263Q438 292 437 302Q436 345 418 383T364 447T275 472Q194 472 157 421T116 288L115 260Q115 167 151 108T275 48Q354 48 394 100Z" />
<glyph unicode="e" glyph-name="e" horiz-adv-x="546" d="M179 -10T121 52T55 220L54 260L55 300Q63 404 120 467T274 530Q378 530 436 461T495 272V257Q495 247 489 241T472 235H116V225Q118 178 137 138T192 73T274 48Q329 48 363 69T413 113Q422 125 426 128T443
131H459Q468 131 474 126T480 113Q480 92 454 63T380 12T274 -10Q179 -10 121 52ZM434 291V295Q434 372 391 422T274 472Q201 472 159 422T116 295V291H434Z" />
<glyph unicode="f" glyph-name="f" horiz-adv-x="360" d="M142 0T136 6T130 22V462H41Q31 462 25 468T19 484V498Q19 508 25 514T41 520H130V577Q130 653 163 696T281 740H333Q343 740 349 734T355 718V704Q355 694 349 688T333 682H281Q230 682 211 656T191 572V520H323Q333
520 339 514T345 498V484Q345 474 339 468T323 462H191V22Q191 12 185 6T169 0H152Q142 0 136 6Z" />
<glyph unicode="g" glyph-name="g" horiz-adv-x="581" d="M197 -220T150 -193T85 -132T66 -71Q66 -62 72 -56T88 -50H102Q111 -50 116 -54T126 -71Q157 -162 270 -162Q356 -162 397 -127T438 0V69Q380 -10 270 -10Q162 -10 111 60T56 232L55 260L56 288Q59 389
110 459T270 530Q379 530 438 451V497Q438 507 444 513T460 520H476Q486 520 492 514T499 497V10Q499 -97 449 -158T275 -220Q197 -220 150 -193ZM355 48T395 100T438 224Q439 234 439 260Q439 286 438 296Q435 367 395 419T276 472Q195 472 158 421T117 288L116
260L117 232Q120 151 157 100T276 48Q355 48 395 100Z" />
<glyph unicode="h" glyph-name="h" horiz-adv-x="591" d="M94 0T88 6T82 22V688Q82 698 88 704T104 710H121Q131 710 137 704T143 688V451Q173 490 211 510T311 530Q409 530 462 468T515 306V22Q515 12 509 6T493 0H476Q466 0 460 6T454 22V301Q454 382 415 427T301
472Q229 472 186 427T143 301V22Q143 12 137 6T121 0H104Q94 0 88 6Z" />
<glyph unicode="i" glyph-name="i" horiz-adv-x="223" d="M82 627T76 633T70 649V687Q70 697 76 703T92 710H130Q140 710 146 704T153 687V649Q153 639 147 633T130 627H92Q82 627 76 633ZM93 0T87 6T81 22V498Q81 508 87 514T103 520H120Q130 520 136 514T142
498V22Q142 12 136 6T120 0H103Q93 0 87 6Z" />
<glyph unicode="j" glyph-name="j" horiz-adv-x="233" d="M91 627T85 633T79 649V687Q79 697 85 703T101 710H139Q149 710 155 704T162 687V649Q162 639 156 633T139 627H101Q91 627 85 633ZM-14 -190T-20 -184T-26 -168V-154Q-26 -144 -20 -138T-4 -132H0Q55
-132 72 -104T90 -22V498Q90 508 96 514T112 520H129Q139 520 145 514T151 498V-22Q151 -101 118 -145T0 -190H-4Q-14 -190 -20 -184Z" />
<glyph unicode="k" glyph-name="k" horiz-adv-x="487" d="M94 0T88 6T82 22V688Q82 698 88 704T104 710H121Q131 710 137 704T143 688V334L366 503Q382 515 388 517T408 520H427Q436 520 441 515T447 500Q447 489 434 480L181 288L459 40Q472 28 472 20Q472 11
467 6T452 0H436Q421 0 414 2T394 17L143 240V22Q143 12 137 6T121 0H104Q94 0 88 6Z" />
<glyph unicode="l" glyph-name="l" horiz-adv-x="225" d="M94 0T88 6T82 22V688Q82 698 88 704T104 710H121Q131 710 137 704T143 688V22Q143 12 137 6T121 0H104Q94 0 88 6Z" />
<glyph unicode="m" glyph-name="m" horiz-adv-x="878" d="M93 0T87 6T81 22V498Q81 508 87 514T103 520H120Q130 520 136 514T142 498V463Q168 496 202 513T285 530Q397 530 445 436Q469 479 513 504T615 530Q698 530 750 474T802 313V22Q802 12 796 6T780 0H763Q753
0 747 6T741 22V303Q741 394 704 433T605 472Q551 472 512 433T472 303V22Q472 12 466 6T450 0H433Q423 0 417 6T411 22V303Q411 393 372 432T275 472Q221 472 182 433T142 304V22Q142 12 136 6T120 0H103Q93 0 87 6Z" />
<glyph unicode="n" glyph-name="n" horiz-adv-x="590" d="M93 0T87 6T81 22V498Q81 508 87 514T103 520H120Q130 520 136 514T142 498V451Q172 490 210 510T310 530Q408 530 461 468T514 306V22Q514 12 508 6T492 0H475Q465 0 459 6T453 22V301Q453 382 414 427T300
472Q228 472 185 427T142 301V22Q142 12 136 6T120 0H103Q93 0 87 6Z" />
<glyph unicode="o" glyph-name="o" horiz-adv-x="558" d="M175 -10T118 53T57 218L56 260L57 302Q60 403 117 466T279 530Q383 530 440 467T501 302Q502 292 502 260Q502 228 501 218Q498 117 441 54T279 -10Q175 -10 118 53ZM350 48T393 93T440 223Q441 233 441
260Q441 287 440 297Q437 381 394 426T279 472Q208 472 165 427T118 297L117 260L118 223Q121 139 164 94T279 48Q350 48 393 93Z" />
<glyph unicode="p" glyph-name="p" horiz-adv-x="581" d="M94 -190T88 -184T82 -168V498Q82 508 88 514T104 520H121Q131 520 137 514T143 498V451Q201 530 311 530Q419 530 470 462T525 293Q526 283 526 260Q526 237 525 227Q522 127 471 59T311 -10Q202 -10
143 69V-168Q143 -178 137 -184T121 -190H104Q94 -190 88 -184ZM386 48T423 99T464 232Q465 242 465 260Q465 353 429 412T305 472Q226 472 186 420T143 296L142 257L143 218Q144 175 162 137T216 73T305 48Q386 48 423 99Z" />
<glyph unicode="q" glyph-name="q" horiz-adv-x="581" d="M450 -190T444 -184T438 -168V69Q379 -10 270 -10Q162 -10 111 58T56 227L55 260L56 293Q59 393 110 461T270 530Q380 530 438 451V498Q438 508 444 514T460 520H477Q487 520 493 514T499 498V-168Q499
-178 493 -184T477 -190H460Q450 -190 444 -184ZM329 48T365 73T419 136T438 218Q439 228 439 257Q439 286 438 296Q435 367 395 419T276 472Q195 472 158 421T117 288L116 260Q116 167 152 108T276 48Q329 48 365 73Z" />
<glyph unicode="r" glyph-name="r" horiz-adv-x="348" d="M93 0T87 6T81 22V497Q81 507 87 513T103 520H119Q129 520 135 514T142 497V451Q178 520 278 520H315Q325 520 331 514T337 498V484Q337 474 331 468T315 462H272Q212 462 177 427T142 332V22Q142 12 136
6T119 0H103Q93 0 87 6Z" />
<glyph unicode="s" glyph-name="s" horiz-adv-x="492" d="M181 -10T137 12T70 62T47 107Q47 116 54 121T69 127H84Q91 127 95 125T106 114Q128 83 159 66T246 48Q308 48 346 71T384 139Q384 166 369 183T319 212T216 241Q127 261 95 296T62 385Q62 422 82 455T143
509T241 530Q301 530 342 510T404 462T425 418Q425 409 419 404T403 398H388Q374 398 366 411Q346 441 321 456T241 472Q183 472 153 448T123 385Q123 361 135 345T180 316T276 288Q369 267 407 232T445 139Q445 98 422 64T354 10T246 -10Q181 -10 137 12Z" />
<glyph unicode="t" glyph-name="t" horiz-adv-x="359" d="M182 0T151 44T120 167V462H42Q32 462 26 468T20 484V498Q20 508 26 514T42 520H120V688Q120 698 126 704T142 710H159Q169 710 175 704T181 688V520H305Q315 520 321 514T327 498V484Q327 474 321 468T305
462H181V171Q181 115 199 87T261 58H315Q325 58 331 52T337 36V22Q337 12 331 6T315 0H256Q182 0 151 44Z" />
<glyph unicode="u" glyph-name="u" horiz-adv-x="585" d="M178 -10T127 52T76 214V498Q76 508 82 514T98 520H115Q125 520 131 514T137 498V219Q137 48 286 48Q358 48 400 93T443 219V498Q443 508 449 514T465 520H482Q492 520 498 514T504 498V22Q504 12 498
6T482 0H465Q455 0 449 6T443 22V69Q413 30 375 10T276 -10Q178 -10 127 52Z" />
<glyph unicode="v" glyph-name="v" horiz-adv-x="536" d="M232 0T222 25L38 489L36 500Q36 508 42 514T56 520H77Q86 520 91 515T99 505L268 73L437 505Q439 510 444 515T459 520H480Q488 520 494 514T500 500L498 489L314 25Q304 0 276 0H260Q232 0 222 25Z" />
<glyph unicode="w" glyph-name="w" horiz-adv-x="786" d="M203 0T196 6T184 25L43 489L41 500Q41 508 47 514T61 520H80Q89 520 95 515T102 505L225 89L356 500Q358 508 365 514T383 520H403Q414 520 421 514T430 500L561 89L684 505Q685 510 691 515T706 520H725Q733
520 739 514T745 500L743 489L602 25Q597 12 590 6T570 0H553Q526 0 519 25L393 419L267 25Q260 0 233 0H216Q203 0 196 6Z" />
<glyph unicode="x" glyph-name="x" horiz-adv-x="518" d="M47 0T41 6T35 20Q35 30 43 40L219 266L52 480Q44 490 44 500Q44 508 50 514T64 520H85Q94 520 98 517T110 505L260 312L410 504Q411 505 415 510T424 517T435 520H455Q463 520 469 514T475 500Q475 490
467 480L298 263L474 40Q482 30 482 20Q482 12 476 6T462 0H441Q427 0 416 15L258 217L100 15Q93 7 89 4T75 0H55Q47 0 41 6Z" />
<glyph unicode="y" glyph-name="y" horiz-adv-x="532" d="M161 -190T155 -184T149 -170Q149 -165 155 -150L232 30L41 480Q35 495 35 500Q35 508 41 514T55 520H76Q92 520 99 505L267 109L439 505Q447 520 462 520H482Q490 520 496 514T502 500Q502 495 496 480L212
-175Q205 -190 189 -190H169Q161 -190 155 -184Z" />
<glyph unicode="z" glyph-name="z" horiz-adv-x="490" d="M54 0T48 6T42 22V39Q42 50 56 70L350 462H74Q64 462 58 468T52 484V498Q52 508 58 514T74 520H410Q420 520 426 514T432 498V481Q432 470 418 450L126 58H430Q440 58 446 52T452 36V22Q452 12 446 6T430
0H64Q54 0 48 6Z" />
<glyph unicode="{" glyph-name="braceleft" horiz-adv-x="344" d="M215 -159T179 -126T132 -35T122 131Q122 185 109 213T66 263L61 266Q47 275 42 283T37 303V315Q37 327 42 335T61 352L67 356Q96 377 109 405T122 487Q122 593 132 652T178 743T290 776H295Q305
776 311 770T317 754V740Q317 730 311 724T295 718H290Q240 718 218 693T189 619T183 466Q183 408 165 370T108 309Q147 286 165 248T183 152Q183 48 189 -1T217 -76T290 -101H295Q305 -101 311 -107T317 -123V-137Q317 -147 311 -153T295 -159H290Q215 -159 179
-126Z" />
<glyph unicode="|" glyph-name="bar" horiz-adv-x="219" d="M91 -208T85 -202T79 -186V874Q79 884 85 890T101 896H118Q128 896 134 890T140 874V-186Q140 -196 134 -202T118 -208H101Q91 -208 85 -202Z" />
<glyph unicode="}" glyph-name="braceright" horiz-adv-x="344" d="M129 776T165 743T212 652T222 486Q222 432 235 404T278 354L283 351Q297 342 302 334T307 314V302Q307 290 302 282T283 265L277 261Q248 240 235 212T222 130Q222 24 212 -35T166 -126T54 -159H49Q39
-159 33 -153T27 -137V-123Q27 -113 33 -107T49 -101H54Q104 -101 126 -76T155 -2T161 151Q161 209 179 247T236 308Q197 331 179 369T161 465Q161 569 155 618T127 693T54 718H49Q39 718 33 724T27 740V754Q27 764 33 770T49 776H54Q129 776 165 743Z" />
<glyph unicode="~" glyph-name="asciitilde" horiz-adv-x="563" d="M87 252T82 257T77 269V292Q77 304 93 317T134 338T187 347Q217 347 240 342T290 328Q318 320 336 316T378 312Q399 312 414 318T441 332T457 343Q467 347 470 347Q478 347 482 343T487 330V307Q487
295 471 282T430 261T377 252Q350 252 329 256T278 270Q252 278 232 282T186 287Q165 287 150 281T123 267T107 256Q97 252 94 252Q87 252 82 257Z" />
<glyph unicode="&#xa0;" glyph-name="uni00A0" horiz-adv-x="258" />
<glyph unicode="&#xa1;" glyph-name="exclamdown" horiz-adv-x="217" d="M138 519T144 513T150 497V459Q150 449 144 443T128 436H90Q80 436 74 442T67 459V497Q67 507 73 513T90 519H128Q138 519 144 513ZM127 376T133 370T139 354V-159Q139 -169 133 -175T117
-181H100Q90 -181 84 -175T78 -159V354Q78 364 84 370T100 376H117Q127 376 133 370Z" />
<glyph unicode="&#xa2;" glyph-name="cent" horiz-adv-x="544" d="M256 -100T250 -94T244 -78V-8Q159 1 111 61T61 220L60 260L61 300Q63 399 111 459T244 528V588Q244 598 250 604T266 610H282Q292 610 298 604T304 588V529Q367 523 408 496T469 434T489 371Q490
362 483 356T467 349H453Q443 349 439 353T429 370Q391 472 274 472Q209 472 167 428T122 295L121 260L122 225Q125 136 167 92T274 48Q391 48 429 150Q434 162 438 166T453 171H467Q476 171 483 165T489 149Q488 120 469 86T409 24T304 -9V-78Q304 -88 298 -94T282
-100H266Q256 -100 250 -94Z" />
<glyph unicode="&#xa3;" glyph-name="sterling" horiz-adv-x="658" d="M402 -5T370 12T299 62Q270 88 248 100T200 113Q157 113 140 90T115 21Q112 0 94 0H71Q62 0 57 5T52 19Q54 87 86 124T170 171Q169 200 157 275L151 315H74Q64 315 58 321T52 337V353Q52 363
58 369T74 375H144Q141 413 141 456Q141 526 165 584T240 676T366 711Q438 711 488 681T565 602T593 495Q593 486 587 480T572 473H554Q546 473 539 479T531 494Q504 651 365 651Q287 651 246 598T204 455Q204 408 208 375H419Q429 375 435 369T441 353V337Q441
327 435 321T419 315H217L220 292Q232 212 234 169Q266 163 289 149T346 107Q378 80 399 68T449 55Q492 55 510 79T535 149Q536 155 541 161T554 168H579Q588 168 593 163T598 149Q597 76 556 36T449 -5Q402 -5 370 12Z" />
<glyph unicode="&#xa4;" glyph-name="currency" horiz-adv-x="578" d="M78 101Q71 110 71 117Q71 125 78 132L121 174Q79 228 79 300Q79 372 121 426L78 468Q71 477 71 484Q71 492 78 499L90 511Q97 518 106 518Q115 518 121 511L163 468Q220 510 289 510Q358
510 415 468L457 511Q464 518 473 518Q482 518 488 511L500 499Q507 493 507 484Q507 475 500 468L457 426Q499 369 499 300Q499 231 457 174L500 132Q507 126 507 117Q507 108 500 101L488 89Q481 82 473 82Q466 82 457 89L415 132Q361 90 289 90Q217 90 163 132L121
89Q114 82 106 82Q99 82 90 89L78 101ZM330 150T364 170T419 224T439 300Q439 341 419 375T365 430T289 450Q248 450 214 430T159 376T139 300Q139 259 159 225T213 170T289 150Q330 150 364 170Z" />
<glyph unicode="&#xa5;" glyph-name="yen" horiz-adv-x="586" d="M550 675T546 667L330 303H473Q483 303 489 297T495 281V265Q495 255 489 249T473 243H325V183H473Q483 183 489 177T495 161V145Q495 135 489 129T473 123H325V22Q325 12 319 6T302 0H283Q273
0 267 6T261 22V123H113Q103 123 97 129T91 145V161Q91 171 97 177T113 183H261V243H113Q103 243 97 249T91 265V281Q91 291 97 297T113 303H256L40 667Q36 675 36 680Q36 688 42 694T56 700H78Q92 700 101 685L293 361L485 685Q494 700 508 700H530Q538 700 544
694T550 680Q550 675 546 667Z" />
<glyph unicode="&#xa6;" glyph-name="brokenbar" horiz-adv-x="225" d="M94 475T88 481T82 497V807Q82 817 88 823T104 829H121Q131 829 137 823T143 807V497Q143 487 137 481T121 475H104Q94 475 88 481ZM94 0T88 6T82 22V332Q82 342 88 348T104 354H121Q131
354 137 348T143 332V22Q143 12 137 6T121 0H104Q94 0 88 6Z" />
<glyph unicode="&#xa7;" glyph-name="section" horiz-adv-x="553" d="M208 -140T165 -120T100 -68T76 -6V-4Q76 4 82 9T97 14H115Q124 14 129 10T139 -6Q151 -40 179 -61T272 -82Q332 -82 363 -53T394 22Q394 53 383 71T343 101T256 132Q178 156 133 181T67 242T46
330Q46 402 124 460Q98 491 98 548Q98 589 119 626T181 686T281 710Q345 710 388 690T453 638T477 576V574Q477 566 471 561T456 556H438Q429 556 424 560T414 576Q402 610 374 631T281 652Q221 652 190 623T159 548Q159 517 170 499T210 469T297 438Q375 414 420
389T486 328T507 240Q507 168 429 110Q455 79 455 22Q455 -19 434 -56T372 -116T272 -140Q208 -140 165 -120ZM415 169T430 190T446 241Q446 273 433 296T382 341T272 383Q208 402 171 423Q138 401 123 380T107 329Q107 297 120 274T171 229T281 187Q345 168 382
147Q415 169 430 190Z" />
<glyph unicode="&#xa8;" glyph-name="dieresis" horiz-adv-x="376" d="M82 627T76 633T70 649V687Q70 697 76 703T92 710H130Q140 710 146 704T153 687V649Q153 639 147 633T130 627H92Q82 627 76 633ZM235 627T229 633T223 649V687Q223 697 229 703T245 710H283Q293
710 299 704T306 687V649Q306 639 300 633T283 627H245Q235 627 229 633Z" />
<glyph unicode="&#xa9;" glyph-name="copyright" horiz-adv-x="834" d="M319 -10T237 38T106 169T57 350Q57 448 105 530T236 661T417 710Q515 710 597 662T728 531T777 350Q777 252 729 170T598 39T417 -10Q319 -10 237 38ZM498 45T567 86T676 198T717 350Q717
432 677 502T567 613T417 655Q336 655 267 614T158 502T117 350Q117 268 157 198T267 87T417 45Q498 45 567 86ZM344 158T301 203T255 317L254 351L255 385Q257 453 300 498T417 544Q467 544 503 528T557 487T575 437Q575 427 569 421T553 415H536Q527 415 522
420T513 434Q503 459 481 472T417 486Q363 486 341 456T316 385L315 351L316 317Q318 277 340 247T417 216Q458 216 480 229T513 268Q517 277 522 282T536 287H553Q563 287 569 281T575 265Q575 240 557 216T503 175T417 158Q344 158 301 203Z" />
<glyph unicode="&#xaa;" glyph-name="ordfeminine" horiz-adv-x="367" d="M109 429T84 451T58 505Q58 544 88 569T171 602L234 611Q234 622 225 634T184 647Q167 647 157 644T136 634Q124 627 114 627H97Q75 627 75 642Q75 652 90 667T130 694T187 705Q236 705
265 675T295 598V456Q295 446 289 440T273 434H256Q246 434 240 440T234 456V463Q226 449 202 439T151 429Q109 429 84 451ZM198 483T216 504T234 559L187 552Q148 546 134 535T120 507Q120 496 131 490T160 483Q198 483 216 504Z" />
<glyph unicode="&#xab;" glyph-name="guillemotleft" horiz-adv-x="603" d="M266 92T252 104L64 286Q49 301 47 321V337Q49 357 64 372L252 554Q266 566 276 566Q285 566 290 561T296 546V529Q296 518 292 511T278 493L109 329L278 165Q288 155 292 148T296 129V112Q296
103 291 98T276 92Q266 92 252 104ZM515 92T501 104L313 286Q298 301 296 321V337Q298 357 313 372L501 554Q515 566 525 566Q534 566 539 561T545 546V529Q545 518 541 511T527 493L358 329L527 165Q537 155 541 148T545 129V112Q545 103 540 98T525 92Q515 92
501 104Z" />
<glyph unicode="&#xac;" glyph-name="logicalnot" horiz-adv-x="581" d="M455 170T449 176T443 192V292H98Q88 292 82 298T76 314V328Q76 338 82 344T98 350H483Q493 350 499 344T505 328V192Q505 182 499 176T483 170H465Q455 170 449 176Z" />
<glyph unicode="&#xad;" glyph-name="uni00AD" horiz-adv-x="250" />
<glyph unicode="&#xae;" glyph-name="registered" horiz-adv-x="834" d="M319 -10T237 38T106 169T57 350Q57 448 105 530T236 661T417 710Q515 710 597 662T728 531T777 350Q777 252 729 170T598 39T417 -10Q319 -10 237 38ZM498 45T567 86T676 198T717 350Q717
432 677 502T567 613T417 655Q336 655 267 614T158 502T117 350Q117 268 157 198T267 87T417 45Q498 45 567 86ZM294 168T288 174T282 190V512Q282 522 288 528T304 534H432Q494 534 531 507T568 418Q568 379 549 352T496 313L565 204Q569 198 569 190Q569 181
564 175T547 168H533Q515 168 504 187L432 302H343V190Q343 180 337 174T321 168H304Q294 168 288 174ZM430 360Q507 360 507 418Q507 476 430 476H343V360H430Z" />
<glyph unicode="&#xaf;" glyph-name="overscore" horiz-adv-x="383" d="M82 622T76 628T70 644V658Q70 668 76 674T92 680H291Q301 680 307 674T313 658V644Q313 634 307 628T291 622H92Q82 622 76 628Z" />
<glyph unicode="&#xb0;" glyph-name="degree" horiz-adv-x="378" d="M132 448T93 485T53 579Q53 635 92 672T189 710Q246 710 285 673T325 579Q325 523 286 486T189 448Q132 448 93 485ZM223 503T244 524T265 579Q265 613 244 634T189 655Q155 655 134 634T113
579Q113 545 134 524T189 503Q223 503 244 524Z" />
<glyph unicode="&#xb1;" glyph-name="plusminus" horiz-adv-x="556" d="M260 193T254 199T248 215V373H91Q81 373 75 379T69 395V409Q69 419 75 425T91 431H248V585Q248 595 254 601T270 607H286Q296 607 302 601T308 585V431H465Q475 431 481 425T487 409V395Q487
385 481 379T465 373H308V215Q308 205 302 199T286 193H270Q260 193 254 199ZM91 0T85 6T79 22V36Q79 46 85 52T101 58H455Q465 58 471 52T477 36V22Q477 12 471 6T455 0H101Q91 0 85 6Z" />
<glyph unicode="&#xb2;" glyph-name="uni00B2" horiz-adv-x="335" d="M43 350T37 356T31 372V389Q31 397 36 404T55 422L104 457Q159 497 182 515T218 552T231 594Q231 619 212 634T166 650Q135 650 122 639T104 619T98 607Q92 596 87 593T74 589H59Q41 589 41
606Q41 629 58 652T104 690T166 705Q221 705 255 672T289 594Q289 558 274 531T227 477T130 406H282Q292 406 298 400T304 384V372Q304 362 298 356T282 350H53Q43 350 37 356Z" />
<glyph unicode="&#xb3;" glyph-name="uni00B3" horiz-adv-x="336" d="M101 345T66 368T29 425V427Q29 434 35 439T46 444H66Q78 444 88 430Q99 415 112 408T163 401Q197 401 219 414T241 451Q241 478 223 489T169 501H129Q119 501 113 507T107 523V540Q107 551
119 563L208 644H66Q56 644 50 650T44 666V678Q44 688 50 694T66 700H264Q274 700 280 694T286 678V666Q286 654 283 646T270 627L194 557Q248 554 273 525T299 451Q299 401 264 373T163 345Q101 345 66 368Z" />
<glyph unicode="&#xb4;" glyph-name="acute" horiz-adv-x="311" d="M70 595T70 611Q70 619 75 624L144 707Q153 718 160 721T181 725H222Q241 725 241 706Q241 699 236 694L127 605Q119 599 113 597T96 595H86Q70 595 70 611Z" />
<glyph unicode="&#xb5;" glyph-name="uni00B5" horiz-adv-x="586" d="M88 -200T82 -194T76 -178V498Q76 508 82 514T98 520H115Q125 520 131 514T137 498V219Q137 168 159 129T218 69T293 48Q331 48 367 69T426 129T449 219V498Q449 508 455 514T471 520H488Q498
520 504 514T510 498V22Q510 12 504 6T488 0H471Q461 0 455 6T449 22V69Q420 31 384 11T293 -10Q239 -10 203 10T137 69V-178Q137 -188 131 -194T115 -200H98Q88 -200 82 -194Z" />
<glyph unicode="&#xb6;" glyph-name="paragraph" horiz-adv-x="491" d="M221 -100T215 -94T209 -78V346Q161 346 121 370T56 434T32 523Q32 571 56 611T120 676T209 700H388Q398 700 404 694T410 678V-78Q410 -88 404 -94T388 -100H371Q361 -100 355 -94T349 -78V642H270V-78Q270
-88 264 -94T248 -100H231Q221 -100 215 -94Z" />
<glyph unicode="&#xb7;" glyph-name="middot" horiz-adv-x="330" d="M124 200T95 229T65 300Q65 341 94 370T165 400Q206 400 235 371T265 300Q265 259 236 230T165 200Q124 200 95 229Z" />
<glyph unicode="&#xb8;" glyph-name="cedilla" horiz-adv-x="320" d="M134 -220T114 -213T83 -196T71 -177Q71 -172 74 -169L88 -156Q92 -152 97 -152Q101 -152 111 -158T130 -169T156 -174Q174 -174 186 -163T199 -134Q199 -117 187 -107T156 -96Q142 -96 128
-101T109 -106Q101 -106 96 -100L80 -83Q77 -80 77 -75Q77 -70 80 -63T85 -53L120 27H178L136 -58Q149 -50 174 -50Q207 -50 228 -73T250 -132Q250 -170 226 -195T158 -220Q134 -220 114 -213Z" />
<glyph unicode="&#xb9;" glyph-name="uni00B9" horiz-adv-x="231" d="M136 350T130 356T124 372V623L61 576Q56 572 48 572Q38 572 30 581L23 591Q18 598 18 605Q18 615 27 622L123 693Q133 700 146 700H160Q170 700 176 694T182 678V372Q182 362 176 356T160
350H146Q136 350 130 356Z" />
<glyph unicode="&#xba;" glyph-name="ordmasculine" horiz-adv-x="361" d="M128 429T96 457T61 540L60 567L61 594Q64 648 97 676T181 705Q231 705 264 677T301 594Q302 589 302 567Q302 545 301 540Q298 485 266 457T181 429Q128 429 96 457ZM237 487T240 545Q241
550 241 567Q241 584 240 589Q238 616 223 631T181 647Q154 647 139 632T122 589L121 567L122 545Q125 487 181 487Q237 487 240 545Z" />
<glyph unicode="&#xbb;" glyph-name="guillemotright" horiz-adv-x="603" d="M69 92T64 97T58 112V129Q58 140 62 147T76 165L245 329L76 493Q66 503 62 510T58 529V546Q58 555 63 560T78 566Q88 566 102 554L290 372Q305 357 307 337V321Q305 301 290 286L102
104Q88 92 78 92Q69 92 64 97ZM318 92T313 97T307 112V129Q307 140 311 147T325 165L494 329L325 493Q315 503 311 510T307 529V546Q307 555 312 560T327 566Q337 566 351 554L539 372Q554 357 556 337V321Q554 301 539 286L351 104Q337 92 327 92Q318 92 313 97Z"
/>
<glyph unicode="&#xbc;" glyph-name="onequarter" horiz-adv-x="717" d="M136 350T130 356T124 372V623L61 576Q56 572 48 572Q38 572 30 581L23 591Q18 598 18 605Q18 615 27 622L123 693Q133 700 146 700H160Q170 700 176 694T182 678V372Q182 362 176 356T160
350H146Q136 350 130 356ZM38 0T33 5T27 20Q27 26 31 31L524 681Q532 692 538 696T557 700H574Q583 700 588 695T594 680Q594 674 590 669L97 19Q89 8 83 4T64 0H47Q38 0 33 5ZM554 -2T548 4T542 20V73H395Q385 73 379 79T373 95V108Q373 122 385 138L522 330Q535
348 552 348H578Q588 348 594 342T600 326V129H635Q645 129 651 123T657 107V95Q657 85 651 79T635 73H600V20Q600 10 594 4T578 -2H564Q554 -2 548 4ZM448 129H542V264L448 129Z" />
<glyph unicode="&#xbd;" glyph-name="onehalf" horiz-adv-x="726" d="M136 350T130 356T124 372V623L61 576Q56 572 48 572Q38 572 30 581L23 591Q18 598 18 605Q18 615 27 622L123 693Q133 700 146 700H160Q170 700 176 694T182 678V372Q182 362 176 356T160
350H146Q136 350 130 356ZM38 0T33 5T27 20Q27 26 31 31L524 681Q532 692 538 696T557 700H574Q583 700 588 695T594 680Q594 674 590 669L97 19Q89 8 83 4T64 0H47Q38 0 33 5ZM396 0T390 6T384 22V39Q384 47 389 54T408 72L457 107Q512 147 535 165T571 202T584
244Q584 269 565 284T519 300Q488 300 475 289T457 269T451 257Q445 246 440 243T427 239H412Q394 239 394 256Q394 279 411 302T457 340T519 355Q574 355 608 322T642 244Q642 208 627 181T580 127T483 56H635Q645 56 651 50T657 34V22Q657 12 651 6T635 0H406Q396
0 390 6Z" />
<glyph unicode="&#xbe;" glyph-name="threequarters" horiz-adv-x="807" d="M101 345T66 368T29 425V427Q29 434 35 439T46 444H66Q78 444 88 430Q99 415 112 408T163 401Q197 401 219 414T241 451Q241 478 223 489T169 501H129Q119 501 113 507T107 523V540Q107
551 119 563L208 644H66Q56 644 50 650T44 666V678Q44 688 50 694T66 700H264Q274 700 280 694T286 678V666Q286 654 283 646T270 627L194 557Q248 554 273 525T299 451Q299 401 264 373T163 345Q101 345 66 368ZM143 0T138 5T132 20Q132 26 136 31L629 681Q637
692 643 696T662 700H679Q688 700 693 695T699 680Q699 674 695 669L202 19Q194 8 188 4T169 0H152Q143 0 138 5ZM661 -2T655 4T649 20V73H502Q492 73 486 79T480 95V108Q480 122 492 138L629 330Q642 348 659 348H685Q695 348 701 342T707 326V129H742Q752 129
758 123T764 107V95Q764 85 758 79T742 73H707V20Q707 10 701 4T685 -2H671Q661 -2 655 4ZM555 129H649V264L555 129Z" />
<glyph unicode="&#xbf;" glyph-name="questiondown" horiz-adv-x="496" d="M275 520T281 514T287 498V460Q287 450 281 444T265 437H227Q217 437 211 443T204 460V498Q204 508 210 514T227 520H265Q275 520 281 514ZM263 377T269 371T275 355V307Q275 266 261
233T227 176T174 117Q133 74 115 47T96 -16Q96 -69 141 -100T245 -132Q308 -132 350 -99T404 7Q408 29 428 29H444Q453 29 459 24T465 9Q464 -46 435 -91T357 -163T245 -190Q178 -190 131 -166T60 -102T36 -16Q36 36 60 74T131 161Q173 205 193 236T214 307V355Q214
365 220 371T236 377H253Q263 377 269 371Z" />
<glyph unicode="&#xc0;" glyph-name="Agrave" horiz-adv-x="650" d="M36 0T30 6T24 20L26 31L279 680Q287 700 308 700H342Q363 700 371 680L624 31L626 20Q626 12 620 6T606 0H586Q577 0 572 5T564 15L502 175H148L86 15Q84 10 79 5T64 0H44Q36 0 30 6ZM172 235H478L325
629L172 235ZM321 750T315 752T301 760L192 849Q187 854 187 861Q187 880 206 880H252Q266 880 273 877T289 862L358 779Q363 774 363 766Q363 750 347 750H332Q321 750 315 752Z" />
<glyph unicode="&#xc1;" glyph-name="Aacute" horiz-adv-x="650" d="M36 0T30 6T24 20L26 31L279 680Q287 700 308 700H342Q363 700 371 680L624 31L626 20Q626 12 620 6T606 0H586Q577 0 572 5T564 15L502 175H148L86 15Q84 10 79 5T64 0H44Q36 0 30 6ZM172 235H478L325
629L172 235ZM297 750T297 766Q297 774 302 779L371 862Q380 873 387 876T408 880H454Q473 880 473 861Q473 854 468 849L359 760Q351 754 345 752T328 750H313Q297 750 297 766Z" />
<glyph unicode="&#xc2;" glyph-name="Acircumflex" horiz-adv-x="650" d="M36 0T30 6T24 20L26 31L279 680Q287 700 308 700H342Q363 700 371 680L624 31L626 20Q626 12 620 6T606 0H586Q577 0 572 5T564 15L502 175H148L86 15Q84 10 79 5T64 0H44Q36 0 30 6ZM172
235H478L325 629L172 235ZM189 750T189 761Q189 769 201 781L288 866Q297 875 304 877T320 880H330Q340 880 346 878T362 866L449 781Q461 769 461 761Q461 750 447 750H430Q423 750 416 752T405 757L325 817L245 757Q241 754 234 752T220 750H203Q189 750 189
761Z" />
<glyph unicode="&#xc3;" glyph-name="Atilde" horiz-adv-x="650" d="M36 0T30 6T24 20L26 31L279 680Q287 700 308 700H342Q363 700 371 680L624 31L626 20Q626 12 620 6T606 0H586Q577 0 572 5T564 15L502 175H148L86 15Q84 10 79 5T64 0H44Q36 0 30 6ZM172 235H478L325
629L172 235ZM357 745T345 749T313 765Q289 779 277 779Q269 779 265 776T255 764Q247 750 236 750H216Q209 750 205 755T200 766Q200 795 222 819T274 844Q291 844 304 839T335 824Q337 823 349 817T372 810Q380 810 384 813T394 825Q398 833 402 836T413 840H433Q440
840 444 835T449 824Q449 795 426 770T374 745Q357 745 345 749Z" />
<glyph unicode="&#xc4;" glyph-name="Adieresis" horiz-adv-x="650" d="M36 0T30 6T24 20L26 31L279 680Q287 700 308 700H342Q363 700 371 680L624 31L626 20Q626 12 620 6T606 0H586Q577 0 572 5T564 15L502 175H148L86 15Q84 10 79 5T64 0H44Q36 0 30 6ZM172
235H478L325 629L172 235ZM204 750T198 756T192 772V810Q192 820 198 826T214 833H252Q262 833 268 827T275 810V772Q275 762 269 756T252 750H214Q204 750 198 756ZM387 750T381 756T375 772V810Q375 820 381 826T397 833H435Q445 833 451 827T458 810V772Q458
762 452 756T435 750H397Q387 750 381 756Z" />
<glyph unicode="&#xc5;" glyph-name="Aring" horiz-adv-x="650" d="M36 0T30 6T24 20L26 31L279 680Q287 700 308 700H342Q363 700 371 680L624 31L626 20Q626 12 620 6T606 0H586Q577 0 572 5T564 15L502 175H148L86 15Q84 10 79 5T64 0H44Q36 0 30 6ZM172 235H478L325
629L172 235ZM291 740T268 761T245 815Q245 848 268 869T325 890Q359 890 382 869T405 815Q405 782 382 761T325 740Q291 740 268 761ZM338 785T346 793T355 815Q355 828 347 836T325 845Q312 845 304 837T295 815Q295 802 303 794T325 785Q338 785 346 793Z" />
<glyph unicode="&#xc6;" glyph-name="AE" horiz-adv-x="920" d="M17 0T11 6T5 20Q5 26 9 34L375 681Q385 700 401 700H834Q845 700 851 694T857 677V662Q857 652 851 646T834 640H485V385H812Q823 385 829 379T835 362V347Q835 337 829 331T812 325H485V60H842Q853
60 859 54T865 37V22Q865 12 859 6T842 0H444Q434 0 428 6T422 22V175H160L70 15Q62 0 48 0H25Q17 0 11 6ZM194 235H422V633H421L194 235Z" />
<glyph unicode="&#xc7;" glyph-name="Ccedilla" horiz-adv-x="651" d="M306 -220T286 -213T255 -196T243 -177Q243 -172 246 -169L260 -156Q264 -152 269 -152Q273 -152 283 -158T302 -169T328 -174Q346 -174 358 -163T371 -134Q371 -117 359 -107T328 -96Q314
-96 300 -101T281 -106Q273 -106 268 -100L252 -83Q249 -80 249 -75Q249 -70 252 -63T257 -53L277 -6Q173 9 122 79T66 261Q65 288 65 349Q65 411 66 439Q71 563 136 636T331 710Q420 710 479 678T566 596T598 494V492Q598 484 592 479T577 474H557Q539 474 535
495Q516 580 466 615T331 650Q237 650 185 597T129 434Q128 407 128 351Q128 295 129 266Q133 156 185 103T331 50Q416 50 466 85T535 205Q539 226 557 226H577Q586 226 592 221T598 206Q595 154 567 105T479 23T331 -10L308 -58Q321 -50 346 -50Q379 -50 400 -73T422
-132Q422 -170 398 -195T330 -220Q306 -220 286 -213Z" />
<glyph unicode="&#xc8;" glyph-name="Egrave" horiz-adv-x="592" d="M106 0T100 6T94 22V677Q94 687 100 693T116 700H506Q517 700 523 694T529 677V662Q529 652 523 646T506 640H157V385H484Q495 385 501 379T507 362V347Q507 337 501 331T484 325H157V60H514Q525
60 531 54T537 37V22Q537 12 531 6T514 0H116Q106 0 100 6ZM292 750T286 752T272 760L163 849Q158 854 158 861Q158 880 177 880H223Q237 880 244 877T260 862L329 779Q334 774 334 766Q334 750 318 750H303Q292 750 286 752Z" />
<glyph unicode="&#xc9;" glyph-name="Eacute" horiz-adv-x="592" d="M106 0T100 6T94 22V677Q94 687 100 693T116 700H506Q517 700 523 694T529 677V662Q529 652 523 646T506 640H157V385H484Q495 385 501 379T507 362V347Q507 337 501 331T484 325H157V60H514Q525
60 531 54T537 37V22Q537 12 531 6T514 0H116Q106 0 100 6ZM268 750T268 766Q268 774 273 779L342 862Q351 873 358 876T379 880H425Q444 880 444 861Q444 854 439 849L330 760Q322 754 316 752T299 750H284Q268 750 268 766Z" />
<glyph unicode="&#xca;" glyph-name="Ecircumflex" horiz-adv-x="592" d="M106 0T100 6T94 22V677Q94 687 100 693T116 700H506Q517 700 523 694T529 677V662Q529 652 523 646T506 640H157V385H484Q495 385 501 379T507 362V347Q507 337 501 331T484 325H157V60H514Q525
60 531 54T537 37V22Q537 12 531 6T514 0H116Q106 0 100 6ZM160 750T160 761Q160 769 172 781L259 866Q268 875 275 877T291 880H301Q311 880 317 878T333 866L420 781Q432 769 432 761Q432 750 418 750H401Q394 750 387 752T376 757L296 817L216 757Q212 754 205
752T191 750H174Q160 750 160 761Z" />
<glyph unicode="&#xcb;" glyph-name="Edieresis" horiz-adv-x="592" d="M106 0T100 6T94 22V677Q94 687 100 693T116 700H506Q517 700 523 694T529 677V662Q529 652 523 646T506 640H157V385H484Q495 385 501 379T507 362V347Q507 337 501 331T484 325H157V60H514Q525
60 531 54T537 37V22Q537 12 531 6T514 0H116Q106 0 100 6ZM175 750T169 756T163 772V810Q163 820 169 826T185 833H223Q233 833 239 827T246 810V772Q246 762 240 756T223 750H185Q175 750 169 756ZM358 750T352 756T346 772V810Q346 820 352 826T368 833H406Q416
833 422 827T429 810V772Q429 762 423 756T406 750H368Q358 750 352 756Z" />
<glyph unicode="&#xcc;" glyph-name="Igrave" horiz-adv-x="251" d="M106 0T100 6T94 22V678Q94 688 100 694T116 700H135Q145 700 151 694T157 678V22Q157 12 151 6T135 0H116Q106 0 100 6ZM122 750T116 752T102 760L-7 849Q-12 854 -12 861Q-12 880 7 880H53Q67
880 74 877T90 862L159 779Q164 774 164 766Q164 750 148 750H133Q122 750 116 752Z" />
<glyph unicode="&#xcd;" glyph-name="Iacute" horiz-adv-x="251" d="M106 0T100 6T94 22V678Q94 688 100 694T116 700H135Q145 700 151 694T157 678V22Q157 12 151 6T135 0H116Q106 0 100 6ZM98 750T98 766Q98 774 103 779L172 862Q181 873 188 876T209 880H255Q274
880 274 861Q274 854 269 849L160 760Q152 754 146 752T129 750H114Q98 750 98 766Z" />
<glyph unicode="&#xce;" glyph-name="Icircumflex" horiz-adv-x="251" d="M106 0T100 6T94 22V678Q94 688 100 694T116 700H135Q145 700 151 694T157 678V22Q157 12 151 6T135 0H116Q106 0 100 6ZM-10 750T-10 761Q-10 769 2 781L89 866Q98 875 105 877T121 880H131Q141
880 147 878T163 866L250 781Q262 769 262 761Q262 750 248 750H231Q224 750 217 752T206 757L126 817L46 757Q42 754 35 752T21 750H4Q-10 750 -10 761Z" />
<glyph unicode="&#xcf;" glyph-name="Idieresis" horiz-adv-x="251" d="M106 0T100 6T94 22V678Q94 688 100 694T116 700H135Q145 700 151 694T157 678V22Q157 12 151 6T135 0H116Q106 0 100 6ZM5 750T-1 756T-7 772V810Q-7 820 -1 826T15 833H53Q63 833 69 827T76
810V772Q76 762 70 756T53 750H15Q5 750 -1 756ZM188 750T182 756T176 772V810Q176 820 182 826T198 833H236Q246 833 252 827T259 810V772Q259 762 253 756T236 750H198Q188 750 182 756Z" />
<glyph unicode="&#xd0;" glyph-name="Eth" horiz-adv-x="683" d="M112 0T106 6T100 22V322H37Q27 322 21 328T15 344V360Q15 370 21 376T37 382H100V677Q100 687 106 693T122 700H335Q439 700 499 670T585 580T613 430Q614 400 614 351Q614 301 613 271Q611 175
586 117T501 29T340 0H122Q112 0 106 6ZM335 60Q415 60 461 81T527 149T550 276Q551 306 551 351Q551 395 550 425Q548 537 498 588T330 640H163V382H313Q323 382 329 376T335 360V344Q335 334 329 328T313 322H163V60H335Z" />
<glyph unicode="&#xd1;" glyph-name="Ntilde" horiz-adv-x="684" d="M106 0T100 6T94 22V677Q94 687 100 693T116 700H137Q150 700 158 688L527 124V677Q527 687 533 693T549 700H567Q578 700 584 694T590 677V23Q590 13 584 7T568 0H546Q533 0 525 12L157 574V22Q157
12 151 6T134 0H116Q106 0 100 6ZM374 745T362 749T330 765Q306 779 294 779Q286 779 282 776T272 764Q264 750 253 750H233Q226 750 222 755T217 766Q217 795 239 819T291 844Q308 844 321 839T352 824Q354 823 366 817T389 810Q397 810 401 813T411 825Q415 833
419 836T430 840H450Q457 840 461 835T466 824Q466 795 443 770T391 745Q374 745 362 749Z" />
<glyph unicode="&#xd2;" glyph-name="Ograve" horiz-adv-x="662" d="M74 -10T67 266Q66 296 66 350Q66 404 67 434Q71 570 141 640T331 710Q451 710 521 640T595 434Q597 374 597 350Q597 326 595 266Q588 -10 331 -10Q74 -10 67 266ZM421 50T474 104T532 271Q534
331 534 350Q534 369 532 429Q528 541 474 595T331 650Q242 650 188 596T130 429Q129 399 129 350Q129 301 130 271Q134 159 187 105T331 50Q421 50 474 104ZM327 750T321 752T307 760L198 849Q193 854 193 861Q193 880 212 880H258Q272 880 279 877T295 862L364
779Q369 774 369 766Q369 750 353 750H338Q327 750 321 752Z" />
<glyph unicode="&#xd3;" glyph-name="Oacute" horiz-adv-x="662" d="M74 -10T67 266Q66 296 66 350Q66 404 67 434Q71 570 141 640T331 710Q451 710 521 640T595 434Q597 374 597 350Q597 326 595 266Q588 -10 331 -10Q74 -10 67 266ZM421 50T474 104T532 271Q534
331 534 350Q534 369 532 429Q528 541 474 595T331 650Q242 650 188 596T130 429Q129 399 129 350Q129 301 130 271Q134 159 187 105T331 50Q421 50 474 104ZM303 750T303 766Q303 774 308 779L377 862Q386 873 393 876T414 880H460Q479 880 479 861Q479 854 474
849L365 760Q357 754 351 752T334 750H319Q303 750 303 766Z" />
<glyph unicode="&#xd4;" glyph-name="Ocircumflex" horiz-adv-x="662" d="M74 -10T67 266Q66 296 66 350Q66 404 67 434Q71 570 141 640T331 710Q451 710 521 640T595 434Q597 374 597 350Q597 326 595 266Q588 -10 331 -10Q74 -10 67 266ZM421 50T474 104T532
271Q534 331 534 350Q534 369 532 429Q528 541 474 595T331 650Q242 650 188 596T130 429Q129 399 129 350Q129 301 130 271Q134 159 187 105T331 50Q421 50 474 104ZM195 750T195 761Q195 769 207 781L294 866Q303 875 310 877T326 880H336Q346 880 352 878T368
866L455 781Q467 769 467 761Q467 750 453 750H436Q429 750 422 752T411 757L331 817L251 757Q247 754 240 752T226 750H209Q195 750 195 761Z" />
<glyph unicode="&#xd5;" glyph-name="Otilde" horiz-adv-x="662" d="M74 -10T67 266Q66 296 66 350Q66 404 67 434Q71 570 141 640T331 710Q451 710 521 640T595 434Q597 374 597 350Q597 326 595 266Q588 -10 331 -10Q74 -10 67 266ZM421 50T474 104T532 271Q534
331 534 350Q534 369 532 429Q528 541 474 595T331 650Q242 650 188 596T130 429Q129 399 129 350Q129 301 130 271Q134 159 187 105T331 50Q421 50 474 104ZM363 745T351 749T319 765Q295 779 283 779Q275 779 271 776T261 764Q253 750 242 750H222Q215 750 211
755T206 766Q206 795 228 819T280 844Q297 844 310 839T341 824Q343 823 355 817T378 810Q386 810 390 813T400 825Q404 833 408 836T419 840H439Q446 840 450 835T455 824Q455 795 432 770T380 745Q363 745 351 749Z" />
<glyph unicode="&#xd6;" glyph-name="Odieresis" horiz-adv-x="662" d="M74 -10T67 266Q66 296 66 350Q66 404 67 434Q71 570 141 640T331 710Q451 710 521 640T595 434Q597 374 597 350Q597 326 595 266Q588 -10 331 -10Q74 -10 67 266ZM421 50T474 104T532 271Q534
331 534 350Q534 369 532 429Q528 541 474 595T331 650Q242 650 188 596T130 429Q129 399 129 350Q129 301 130 271Q134 159 187 105T331 50Q421 50 474 104ZM210 750T204 756T198 772V810Q198 820 204 826T220 833H258Q268 833 274 827T281 810V772Q281 762 275
756T258 750H220Q210 750 204 756ZM393 750T387 756T381 772V810Q381 820 387 826T403 833H441Q451 833 457 827T464 810V772Q464 762 458 756T441 750H403Q393 750 387 756Z" />
<glyph unicode="&#xd7;" glyph-name="multiply" horiz-adv-x="541" d="M74 148Q67 157 67 164Q67 172 74 179L227 332L74 486Q67 495 67 502Q67 510 74 517L86 529Q93 536 102 536Q111 536 117 529L270 375L424 529Q431 536 440 536Q449 536 455 529L467 517Q474
511 474 502Q474 493 467 486L313 332L467 179Q474 173 474 164Q474 155 467 148L455 136Q448 129 440 129Q433 129 424 136L270 289L117 136Q110 129 102 129Q95 129 86 136L74 148Z" />
<glyph unicode="&#xd8;" glyph-name="Oslash" horiz-adv-x="682" d="M106 -10T81 222L43 208Q35 205 30 205Q21 205 16 209T11 223V242Q11 253 15 257T33 267L77 284Q76 304 76 341Q76 368 78 434Q82 570 152 640T342 710Q449 710 517 654T601 488L638 502Q645
505 651 505Q660 505 665 501T670 487V468Q670 457 666 453T648 443L606 427Q608 371 608 347Q608 324 606 266Q599 -10 342 -10Q106 -10 81 222ZM540 464Q528 559 476 604T342 650Q253 650 199 596T141 429Q139 361 139 340V309L540 464ZM432 50T485 104T543 271Q544
307 544 365V403L142 246Q151 146 204 98T342 50Q432 50 485 104Z" />
<glyph unicode="&#xd9;" glyph-name="Ugrave" horiz-adv-x="691" d="M221 -10T155 59T88 271V677Q88 687 94 693T110 700H128Q139 700 145 694T151 677V268Q151 158 202 104T346 50Q438 50 489 104T540 268V677Q540 688 546 694T563 700H581Q591 700 597 694T603
677V271Q603 128 537 59T346 -10Q221 -10 155 59ZM342 750T336 752T322 760L213 849Q208 854 208 861Q208 880 227 880H273Q287 880 294 877T310 862L379 779Q384 774 384 766Q384 750 368 750H353Q342 750 336 752Z" />
<glyph unicode="&#xda;" glyph-name="Uacute" horiz-adv-x="691" d="M221 -10T155 59T88 271V677Q88 687 94 693T110 700H128Q139 700 145 694T151 677V268Q151 158 202 104T346 50Q438 50 489 104T540 268V677Q540 688 546 694T563 700H581Q591 700 597 694T603
677V271Q603 128 537 59T346 -10Q221 -10 155 59ZM318 750T318 766Q318 774 323 779L392 862Q401 873 408 876T429 880H475Q494 880 494 861Q494 854 489 849L380 760Q372 754 366 752T349 750H334Q318 750 318 766Z" />
<glyph unicode="&#xdb;" glyph-name="Ucircumflex" horiz-adv-x="691" d="M221 -10T155 59T88 271V677Q88 687 94 693T110 700H128Q139 700 145 694T151 677V268Q151 158 202 104T346 50Q438 50 489 104T540 268V677Q540 688 546 694T563 700H581Q591 700 597
694T603 677V271Q603 128 537 59T346 -10Q221 -10 155 59ZM210 750T210 761Q210 769 222 781L309 866Q318 875 325 877T341 880H351Q361 880 367 878T383 866L470 781Q482 769 482 761Q482 750 468 750H451Q444 750 437 752T426 757L346 817L266 757Q262 754 255
752T241 750H224Q210 750 210 761Z" />
<glyph unicode="&#xdc;" glyph-name="Udieresis" horiz-adv-x="691" d="M221 -10T155 59T88 271V677Q88 687 94 693T110 700H128Q139 700 145 694T151 677V268Q151 158 202 104T346 50Q438 50 489 104T540 268V677Q540 688 546 694T563 700H581Q591 700 597 694T603
677V271Q603 128 537 59T346 -10Q221 -10 155 59ZM225 750T219 756T213 772V810Q213 820 219 826T235 833H273Q283 833 289 827T296 810V772Q296 762 290 756T273 750H235Q225 750 219 756ZM408 750T402 756T396 772V810Q396 820 402 826T418 833H456Q466 833 472
827T479 810V772Q479 762 473 756T456 750H418Q408 750 402 756Z" />
<glyph unicode="&#xdd;" glyph-name="Yacute" horiz-adv-x="632" d="M296 0T290 6T284 22V267L40 667Q36 675 36 680Q36 688 42 694T56 700H76Q90 700 99 685L316 332L533 685Q542 700 556 700H576Q584 700 590 694T596 680Q596 675 592 667L348 267V22Q348 12
342 6T325 0H306Q296 0 290 6ZM288 750T288 766Q288 774 293 779L362 862Q371 873 378 876T399 880H445Q464 880 464 861Q464 854 459 849L350 760Q342 754 336 752T319 750H304Q288 750 288 766Z" />
<glyph unicode="&#xde;" glyph-name="Thorn" horiz-adv-x="633" d="M106 0T100 6T94 22V678Q94 688 100 694T116 700H135Q145 700 151 694T157 678V557H359Q466 557 527 504T589 350Q589 250 528 197T359 143H157V22Q157 12 151 6T134 0H116Q106 0 100 6ZM354
203Q440 203 483 240T526 350Q526 422 483 459T354 497H157V203H354Z" />
<glyph unicode="&#xdf;" glyph-name="germandbls" horiz-adv-x="568" d="M94 0T88 6T82 22V502Q82 592 132 651T284 710Q352 710 398 684T465 616T487 528Q487 469 460 431T397 377Q516 339 516 202Q516 154 494 108T422 31T300 0H225Q215 0 209 6T203 22V36Q203
46 209 52T225 58H290Q369 58 412 98T455 202Q455 266 412 306T290 347H225Q215 347 209 353T203 369V383Q203 393 209 399T225 405H280Q426 406 426 528Q426 582 387 617T284 652Q218 652 181 613T143 497V22Q143 12 137 6T121 0H104Q94 0 88 6Z" />
<glyph unicode="&#xe0;" glyph-name="agrave" horiz-adv-x="536" d="M173 -10T132 10T67 64T42 139Q42 205 95 247T240 301L398 323V358Q398 413 365 442T262 472Q211 472 179 452T137 404Q133 392 128 388T113 383H99Q90 383 84 389T77 405Q77 427 97 456T159
508T262 530Q369 530 414 479T459 355V22Q459 12 453 6T437 0H420Q410 0 404 6T398 22V69Q376 36 334 13T221 -10Q173 -10 132 10ZM304 48T351 96T398 234V268L269 250Q187 239 145 212T103 144Q103 98 141 73T231 48Q304 48 351 96ZM262 595T256 597T242 605L133
694Q128 699 128 706Q128 725 147 725H188Q202 725 209 722T225 707L294 624Q299 619 299 611Q299 595 283 595H273Q262 595 256 597Z" />
<glyph unicode="&#xe1;" glyph-name="aacute" horiz-adv-x="536" d="M173 -10T132 10T67 64T42 139Q42 205 95 247T240 301L398 323V358Q398 413 365 442T262 472Q211 472 179 452T137 404Q133 392 128 388T113 383H99Q90 383 84 389T77 405Q77 427 97 456T159
508T262 530Q369 530 414 479T459 355V22Q459 12 453 6T437 0H420Q410 0 404 6T398 22V69Q376 36 334 13T221 -10Q173 -10 132 10ZM304 48T351 96T398 234V268L269 250Q187 239 145 212T103 144Q103 98 141 73T231 48Q304 48 351 96ZM213 595T213 611Q213 619 218
624L287 707Q296 718 303 721T324 725H365Q384 725 384 706Q384 699 379 694L270 605Q262 599 256 597T239 595H229Q213 595 213 611Z" />
<glyph unicode="&#xe2;" glyph-name="acircumflex" horiz-adv-x="536" d="M173 -10T132 10T67 64T42 139Q42 205 95 247T240 301L398 323V358Q398 413 365 442T262 472Q211 472 179 452T137 404Q133 392 128 388T113 383H99Q90 383 84 389T77 405Q77 427 97 456T159
508T262 530Q369 530 414 479T459 355V22Q459 12 453 6T437 0H420Q410 0 404 6T398 22V69Q376 36 334 13T221 -10Q173 -10 132 10ZM304 48T351 96T398 234V268L269 250Q187 239 145 212T103 144Q103 98 141 73T231 48Q304 48 351 96ZM124 595T124 606Q124 614 136
626L223 711Q232 720 238 722T255 725H265Q274 725 281 723T297 711L384 626Q396 614 396 606Q396 595 382 595H365Q358 595 351 597T340 602L260 662L180 602Q176 599 169 597T155 595H138Q124 595 124 606Z" />
<glyph unicode="&#xe3;" glyph-name="atilde" horiz-adv-x="536" d="M173 -10T132 10T67 64T42 139Q42 205 95 247T240 301L398 323V358Q398 413 365 442T262 472Q211 472 179 452T137 404Q133 392 128 388T113 383H99Q90 383 84 389T77 405Q77 427 97 456T159
508T262 530Q369 530 414 479T459 355V22Q459 12 453 6T437 0H420Q410 0 404 6T398 22V69Q376 36 334 13T221 -10Q173 -10 132 10ZM304 48T351 96T398 234V268L269 250Q187 239 145 212T103 144Q103 98 141 73T231 48Q304 48 351 96ZM291 590T280 595T251 610Q243
615 235 619T218 624Q210 624 206 621T196 609Q188 595 177 595H157Q150 595 146 600T141 611Q141 640 161 662T212 684Q229 684 241 679T269 664Q277 659 285 655T303 650Q311 650 315 653T325 665Q329 673 333 676T344 680H364Q371 680 375 675T380 664Q380 635
359 613T308 590Q291 590 280 595Z" />
<glyph unicode="&#xe4;" glyph-name="adieresis" horiz-adv-x="536" d="M173 -10T132 10T67 64T42 139Q42 205 95 247T240 301L398 323V358Q398 413 365 442T262 472Q211 472 179 452T137 404Q133 392 128 388T113 383H99Q90 383 84 389T77 405Q77 427 97 456T159
508T262 530Q369 530 414 479T459 355V22Q459 12 453 6T437 0H420Q410 0 404 6T398 22V69Q376 36 334 13T221 -10Q173 -10 132 10ZM304 48T351 96T398 234V268L269 250Q187 239 145 212T103 144Q103 98 141 73T231 48Q304 48 351 96ZM159 627T153 633T147 649V687Q147
697 153 703T169 710H207Q217 710 223 704T230 687V649Q230 639 224 633T207 627H169Q159 627 153 633ZM312 627T306 633T300 649V687Q300 697 306 703T322 710H360Q370 710 376 704T383 687V649Q383 639 377 633T360 627H322Q312 627 306 633Z" />
<glyph unicode="&#xe5;" glyph-name="aring" horiz-adv-x="536" d="M173 -10T132 10T67 64T42 139Q42 205 95 247T240 301L398 323V358Q398 413 365 442T262 472Q211 472 179 452T137 404Q133 392 128 388T113 383H99Q90 383 84 389T77 405Q77 427 97 456T159
508T262 530Q369 530 414 479T459 355V22Q459 12 453 6T437 0H420Q410 0 404 6T398 22V69Q376 36 334 13T221 -10Q173 -10 132 10ZM304 48T351 96T398 234V268L269 250Q187 239 145 212T103 144Q103 98 141 73T231 48Q304 48 351 96ZM226 590T203 611T180 665Q180
698 203 719T260 740Q294 740 317 719T340 665Q340 632 317 611T260 590Q226 590 203 611ZM273 635T281 643T290 665Q290 678 282 686T260 695Q247 695 239 687T230 665Q230 652 238 644T260 635Q273 635 281 643Z" />
<glyph unicode="&#xe6;" glyph-name="ae" horiz-adv-x="881" d="M170 -10T129 9T66 63T43 139Q43 205 97 248T241 304L399 326V358Q399 413 366 442T263 472Q211 472 179 452T137 404Q133 392 128 388T113 383H99Q90 383 84 389T77 405Q77 427 97 456T160 508T263
530Q334 530 377 506T441 442Q499 530 615 530Q739 530 784 453T830 272V257Q830 247 824 241T807 235H461V225Q463 164 485 124T542 66T614 48Q656 48 693 64T753 113Q761 125 766 128T783 131H795Q804 131 810 126T816 111Q816 93 792 64T722 13T614 -10Q480
-10 427 100Q369 -10 222 -10Q170 -10 129 9ZM769 291V295Q769 374 730 423T615 472Q575 472 541 453T485 393T461 295V291H769ZM305 48T352 96T399 234V268L270 250Q188 239 146 212T104 144Q104 98 142 73T232 48Q305 48 352 96Z" />
<glyph unicode="&#xe7;" glyph-name="ccedilla" horiz-adv-x="536" d="M253 -220T233 -213T202 -196T190 -177Q190 -172 193 -169L207 -156Q211 -152 216 -152Q220 -152 230 -158T249 -169T275 -174Q293 -174 305 -163T318 -134Q318 -117 306 -107T275 -96Q261
-96 247 -101T228 -106Q220 -106 215 -100L199 -83Q196 -80 196 -75Q196 -70 199 -63T204 -53L225 -5Q145 9 102 67T57 220L56 260L57 300Q60 409 117 469T278 530Q344 530 390 507T460 447T485 371Q486 362 479 356T463 349H449Q439 349 435 353T425 370Q405 425
369 448T278 472Q206 472 164 429T118 295L117 260L118 225Q121 135 163 92T278 48Q333 48 369 71T425 150Q430 162 434 166T449 171H463Q472 171 479 165T485 149Q483 110 460 74T391 14T278 -10L255 -58Q268 -50 293 -50Q326 -50 347 -73T369 -132Q369 -170 345
-195T277 -220Q253 -220 233 -213Z" />
<glyph unicode="&#xe8;" glyph-name="egrave" horiz-adv-x="546" d="M179 -10T121 52T55 220L54 260L55 300Q63 404 120 467T274 530Q378 530 436 461T495 272V257Q495 247 489 241T472 235H116V225Q118 178 137 138T192 73T274 48Q329 48 363 69T413 113Q422
125 426 128T443 131H459Q468 131 474 126T480 113Q480 92 454 63T380 12T274 -10Q179 -10 121 52ZM434 291V295Q434 372 391 422T274 472Q201 472 159 422T116 295V291H434ZM270 595T264 597T250 605L141 694Q136 699 136 706Q136 725 155 725H196Q210 725 217
722T233 707L302 624Q307 619 307 611Q307 595 291 595H281Q270 595 264 597Z" />
<glyph unicode="&#xe9;" glyph-name="eacute" horiz-adv-x="546" d="M179 -10T121 52T55 220L54 260L55 300Q63 404 120 467T274 530Q378 530 436 461T495 272V257Q495 247 489 241T472 235H116V225Q118 178 137 138T192 73T274 48Q329 48 363 69T413 113Q422
125 426 128T443 131H459Q468 131 474 126T480 113Q480 92 454 63T380 12T274 -10Q179 -10 121 52ZM434 291V295Q434 372 391 422T274 472Q201 472 159 422T116 295V291H434ZM243 595T243 611Q243 619 248 624L317 707Q326 718 333 721T354 725H395Q414 725 414
706Q414 699 409 694L300 605Q292 599 286 597T269 595H259Q243 595 243 611Z" />
<glyph unicode="&#xea;" glyph-name="ecircumflex" horiz-adv-x="546" d="M179 -10T121 52T55 220L54 260L55 300Q63 404 120 467T274 530Q378 530 436 461T495 272V257Q495 247 489 241T472 235H116V225Q118 178 137 138T192 73T274 48Q329 48 363 69T413 113Q422
125 426 128T443 131H459Q468 131 474 126T480 113Q480 92 454 63T380 12T274 -10Q179 -10 121 52ZM434 291V295Q434 372 391 422T274 472Q201 472 159 422T116 295V291H434ZM138 595T138 606Q138 614 150 626L237 711Q246 720 252 722T269 725H279Q288 725 295
723T311 711L398 626Q410 614 410 606Q410 595 396 595H379Q372 595 365 597T354 602L274 662L194 602Q190 599 183 597T169 595H152Q138 595 138 606Z" />
<glyph unicode="&#xeb;" glyph-name="edieresis" horiz-adv-x="546" d="M179 -10T121 52T55 220L54 260L55 300Q63 404 120 467T274 530Q378 530 436 461T495 272V257Q495 247 489 241T472 235H116V225Q118 178 137 138T192 73T274 48Q329 48 363 69T413 113Q422
125 426 128T443 131H459Q468 131 474 126T480 113Q480 92 454 63T380 12T274 -10Q179 -10 121 52ZM434 291V295Q434 372 391 422T274 472Q201 472 159 422T116 295V291H434ZM168 627T162 633T156 649V687Q156 697 162 703T178 710H216Q226 710 232 704T239 687V649Q239
639 233 633T216 627H178Q168 627 162 633ZM321 627T315 633T309 649V687Q309 697 315 703T331 710H369Q379 710 385 704T392 687V649Q392 639 386 633T369 627H331Q321 627 315 633Z" />
<glyph unicode="&#xec;" glyph-name="igrave" horiz-adv-x="223" d="M93 0T87 6T81 22V498Q81 508 87 514T103 520H120Q130 520 136 514T142 498V22Q142 12 136 6T120 0H103Q93 0 87 6ZM363 595T357 597T343 605L234 694Q229 699 229 706Q229 725 248 725H289Q303
725 310 722T326 707L395 624Q400 619 400 611Q400 595 384 595H374Q363 595 357 597Z" />
<glyph unicode="&#xed;" glyph-name="iacute" horiz-adv-x="223" d="M93 0T87 6T81 22V498Q81 508 87 514T103 520H120Q130 520 136 514T142 498V22Q142 12 136 6T120 0H103Q93 0 87 6ZM79 595T79 611Q79 619 84 624L153 707Q162 718 169 721T190 725H231Q250
725 250 706Q250 699 245 694L136 605Q128 599 122 597T105 595H95Q79 595 79 611Z" />
<glyph unicode="&#xee;" glyph-name="icircumflex" horiz-adv-x="223" d="M93 0T87 6T81 22V498Q81 508 87 514T103 520H120Q130 520 136 514T142 498V22Q142 12 136 6T120 0H103Q93 0 87 6ZM231 595T231 606Q231 614 243 626L330 711Q339 720 345 722T362 725H372Q381
725 388 723T404 711L491 626Q503 614 503 606Q503 595 489 595H472Q465 595 458 597T447 602L367 662L287 602Q283 599 276 597T262 595H245Q231 595 231 606Z" />
<glyph unicode="&#xef;" glyph-name="idieresis" horiz-adv-x="223" d="M93 0T87 6T81 22V498Q81 508 87 514T103 520H120Q130 520 136 514T142 498V22Q142 12 136 6T120 0H103Q93 0 87 6ZM261 627T255 633T249 649V687Q249 697 255 703T271 710H309Q319 710 325
704T332 687V649Q332 639 326 633T309 627H271Q261 627 255 633ZM414 627T408 633T402 649V687Q402 697 408 703T424 710H462Q472 710 478 704T485 687V649Q485 639 479 633T462 627H424Q414 627 408 633Z" />
<glyph unicode="&#xf0;" glyph-name="eth" horiz-adv-x="550" d="M203 -10T154 21T80 106T54 228Q54 336 111 403T273 470Q352 470 405 431Q382 501 340 553L244 516Q237 513 231 513Q222 513 217 517T212 531V550Q212 561 216 565T234 575L296 599Q269 625 229
658Q212 671 212 680Q212 689 217 694T232 700H252Q272 700 288 687Q331 649 357 622L450 658Q458 661 463 661Q472 661 477 657T482 643V624Q482 613 478 609T460 599L398 575Q443 516 467 435T492 232V229Q492 123 435 57T273 -10Q203 -10 154 21ZM348 48T389
98T431 228V232Q431 311 390 361T273 412Q197 412 156 362T115 232V226Q117 148 158 98T273 48Q348 48 389 98Z" />
<glyph unicode="&#xf1;" glyph-name="ntilde" horiz-adv-x="590" d="M93 0T87 6T81 22V498Q81 508 87 514T103 520H120Q130 520 136 514T142 498V451Q172 490 210 510T310 530Q408 530 461 468T514 306V22Q514 12 508 6T492 0H475Q465 0 459 6T453 22V301Q453
382 414 427T300 472Q228 472 185 427T142 301V22Q142 12 136 6T120 0H103Q93 0 87 6ZM328 590T317 595T288 610Q280 615 272 619T255 624Q247 624 243 621T233 609Q225 595 214 595H194Q187 595 183 600T178 611Q178 640 198 662T249 684Q266 684 278 679T306
664Q314 659 322 655T340 650Q348 650 352 653T362 665Q366 673 370 676T381 680H401Q408 680 412 675T417 664Q417 635 396 613T345 590Q328 590 317 595Z" />
<glyph unicode="&#xf2;" glyph-name="ograve" horiz-adv-x="558" d="M175 -10T118 53T57 218L56 260L57 302Q60 403 117 466T279 530Q383 530 440 467T501 302Q502 292 502 260Q502 228 501 218Q498 117 441 54T279 -10Q175 -10 118 53ZM350 48T393 93T440 223Q441
233 441 260Q441 287 440 297Q437 381 394 426T279 472Q208 472 165 427T118 297L117 260L118 223Q121 139 164 94T279 48Q350 48 393 93ZM275 595T269 597T255 605L146 694Q141 699 141 706Q141 725 160 725H201Q215 725 222 722T238 707L307 624Q312 619 312
611Q312 595 296 595H286Q275 595 269 597Z" />
<glyph unicode="&#xf3;" glyph-name="oacute" horiz-adv-x="558" d="M175 -10T118 53T57 218L56 260L57 302Q60 403 117 466T279 530Q383 530 440 467T501 302Q502 292 502 260Q502 228 501 218Q498 117 441 54T279 -10Q175 -10 118 53ZM350 48T393 93T440 223Q441
233 441 260Q441 287 440 297Q437 381 394 426T279 472Q208 472 165 427T118 297L117 260L118 223Q121 139 164 94T279 48Q350 48 393 93ZM246 595T246 611Q246 619 251 624L320 707Q329 718 336 721T357 725H398Q417 725 417 706Q417 699 412 694L303 605Q295
599 289 597T272 595H262Q246 595 246 611Z" />
<glyph unicode="&#xf4;" glyph-name="ocircumflex" horiz-adv-x="558" d="M175 -10T118 53T57 218L56 260L57 302Q60 403 117 466T279 530Q383 530 440 467T501 302Q502 292 502 260Q502 228 501 218Q498 117 441 54T279 -10Q175 -10 118 53ZM350 48T393 93T440
223Q441 233 441 260Q441 287 440 297Q437 381 394 426T279 472Q208 472 165 427T118 297L117 260L118 223Q121 139 164 94T279 48Q350 48 393 93ZM143 595T143 606Q143 614 155 626L242 711Q251 720 257 722T274 725H284Q293 725 300 723T316 711L403 626Q415
614 415 606Q415 595 401 595H384Q377 595 370 597T359 602L279 662L199 602Q195 599 188 597T174 595H157Q143 595 143 606Z" />
<glyph unicode="&#xf5;" glyph-name="otilde" horiz-adv-x="558" d="M175 -10T118 53T57 218L56 260L57 302Q60 403 117 466T279 530Q383 530 440 467T501 302Q502 292 502 260Q502 228 501 218Q498 117 441 54T279 -10Q175 -10 118 53ZM350 48T393 93T440 223Q441
233 441 260Q441 287 440 297Q437 381 394 426T279 472Q208 472 165 427T118 297L117 260L118 223Q121 139 164 94T279 48Q350 48 393 93ZM310 590T299 595T270 610Q262 615 254 619T237 624Q229 624 225 621T215 609Q207 595 196 595H176Q169 595 165 600T160
611Q160 640 180 662T231 684Q248 684 260 679T288 664Q296 659 304 655T322 650Q330 650 334 653T344 665Q348 673 352 676T363 680H383Q390 680 394 675T399 664Q399 635 378 613T327 590Q310 590 299 595Z" />
<glyph unicode="&#xf6;" glyph-name="odieresis" horiz-adv-x="558" d="M175 -10T118 53T57 218L56 260L57 302Q60 403 117 466T279 530Q383 530 440 467T501 302Q502 292 502 260Q502 228 501 218Q498 117 441 54T279 -10Q175 -10 118 53ZM350 48T393 93T440
223Q441 233 441 260Q441 287 440 297Q437 381 394 426T279 472Q208 472 165 427T118 297L117 260L118 223Q121 139 164 94T279 48Q350 48 393 93ZM173 627T167 633T161 649V687Q161 697 167 703T183 710H221Q231 710 237 704T244 687V649Q244 639 238 633T221
627H183Q173 627 167 633ZM326 627T320 633T314 649V687Q314 697 320 703T336 710H374Q384 710 390 704T397 687V649Q397 639 391 633T374 627H336Q326 627 320 633Z" />
<glyph unicode="&#xf7;" glyph-name="divide" horiz-adv-x="565" d="M248 430T242 436T236 452V500Q236 510 242 516T258 523H306Q316 523 322 517T329 500V452Q329 442 323 436T306 430H258Q248 430 242 436ZM85 272T79 278T73 294V308Q73 318 79 324T95 330H470Q480
330 486 324T492 308V294Q492 284 486 278T470 272H95Q85 272 79 278ZM248 80T242 86T236 102V150Q236 160 242 166T258 173H306Q316 173 322 167T329 150V102Q329 92 323 86T306 80H258Q248 80 242 86Z" />
<glyph unicode="&#xf8;" glyph-name="oslash" horiz-adv-x="594" d="M208 -10T156 32T85 144L47 129Q39 126 34 126Q25 126 20 130T15 144V163Q15 174 19 178T37 188L76 203Q74 222 74 259Q74 288 75 302Q78 397 131 463T297 530Q387 530 439 486T509 371L547
386Q555 389 560 389Q569 389 574 385T579 371V352Q579 341 575 337T557 327L518 312Q520 286 520 256L519 218Q516 123 463 57T297 -10Q208 -10 156 32ZM452 349Q439 412 397 442T297 472Q229 472 184 431T136 302L135 266L136 226L452 349ZM365 48T410 89T458
218Q459 226 459 251Q459 278 458 289L142 166Q157 106 198 77T297 48Q365 48 410 89Z" />
<glyph unicode="&#xf9;" glyph-name="ugrave" horiz-adv-x="585" d="M178 -10T127 52T76 214V498Q76 508 82 514T98 520H115Q125 520 131 514T137 498V219Q137 48 286 48Q358 48 400 93T443 219V498Q443 508 449 514T465 520H482Q492 520 498 514T504 498V22Q504
12 498 6T482 0H465Q455 0 449 6T443 22V69Q413 30 375 10T276 -10Q178 -10 127 52ZM287 595T281 597T267 605L158 694Q153 699 153 706Q153 725 172 725H213Q227 725 234 722T250 707L319 624Q324 619 324 611Q324 595 308 595H298Q287 595 281 597Z" />
<glyph unicode="&#xfa;" glyph-name="uacute" horiz-adv-x="585" d="M178 -10T127 52T76 214V498Q76 508 82 514T98 520H115Q125 520 131 514T137 498V219Q137 48 286 48Q358 48 400 93T443 219V498Q443 508 449 514T465 520H482Q492 520 498 514T504 498V22Q504
12 498 6T482 0H465Q455 0 449 6T443 22V69Q413 30 375 10T276 -10Q178 -10 127 52ZM255 595T255 611Q255 619 260 624L329 707Q338 718 345 721T366 725H407Q426 725 426 706Q426 699 421 694L312 605Q304 599 298 597T281 595H271Q255 595 255 611Z" />
<glyph unicode="&#xfb;" glyph-name="ucircumflex" horiz-adv-x="585" d="M178 -10T127 52T76 214V498Q76 508 82 514T98 520H115Q125 520 131 514T137 498V219Q137 48 286 48Q358 48 400 93T443 219V498Q443 508 449 514T465 520H482Q492 520 498 514T504 498V22Q504
12 498 6T482 0H465Q455 0 449 6T443 22V69Q413 30 375 10T276 -10Q178 -10 127 52ZM154 595T154 606Q154 614 166 626L253 711Q262 720 268 722T285 725H295Q304 725 311 723T327 711L414 626Q426 614 426 606Q426 595 412 595H395Q388 595 381 597T370 602L290
662L210 602Q206 599 199 597T185 595H168Q154 595 154 606Z" />
<glyph unicode="&#xfc;" glyph-name="udieresis" horiz-adv-x="585" d="M178 -10T127 52T76 214V498Q76 508 82 514T98 520H115Q125 520 131 514T137 498V219Q137 48 286 48Q358 48 400 93T443 219V498Q443 508 449 514T465 520H482Q492 520 498 514T504 498V22Q504
12 498 6T482 0H465Q455 0 449 6T443 22V69Q413 30 375 10T276 -10Q178 -10 127 52ZM184 627T178 633T172 649V687Q172 697 178 703T194 710H232Q242 710 248 704T255 687V649Q255 639 249 633T232 627H194Q184 627 178 633ZM337 627T331 633T325 649V687Q325 697
331 703T347 710H385Q395 710 401 704T408 687V649Q408 639 402 633T385 627H347Q337 627 331 633Z" />
<glyph unicode="&#xfd;" glyph-name="yacute" horiz-adv-x="532" d="M161 -190T155 -184T149 -170Q149 -165 155 -150L232 30L41 480Q35 495 35 500Q35 508 41 514T55 520H76Q92 520 99 505L267 109L439 505Q447 520 462 520H482Q490 520 496 514T502 500Q502
495 496 480L212 -175Q205 -190 189 -190H169Q161 -190 155 -184ZM233 595T233 611Q233 619 238 624L307 707Q316 718 323 721T344 725H385Q404 725 404 706Q404 699 399 694L290 605Q282 599 276 597T259 595H249Q233 595 233 611Z" />
<glyph unicode="&#xfe;" glyph-name="thorn" horiz-adv-x="581" d="M94 -190T88 -184T82 -168V688Q82 698 88 704T104 710H121Q131 710 137 704T143 688V451Q201 530 311 530Q419 530 470 462T525 293Q526 283 526 260Q526 237 525 227Q522 127 471 59T311 -10Q202
-10 143 69V-168Q143 -178 137 -184T121 -190H104Q94 -190 88 -184ZM386 48T423 99T464 232Q465 242 465 260Q465 353 429 412T305 472Q226 472 186 420T143 296L142 257L143 218Q144 175 162 137T216 73T305 48Q386 48 423 99Z" />
<glyph unicode="&#xff;" glyph-name="ydieresis" horiz-adv-x="532" d="M161 -190T155 -184T149 -170Q149 -165 155 -150L232 30L41 480Q35 495 35 500Q35 508 41 514T55 520H76Q92 520 99 505L267 109L439 505Q447 520 462 520H482Q490 520 496 514T502 500Q502
495 496 480L212 -175Q205 -190 189 -190H169Q161 -190 155 -184ZM161 627T155 633T149 649V687Q149 697 155 703T171 710H209Q219 710 225 704T232 687V649Q232 639 226 633T209 627H171Q161 627 155 633ZM314 627T308 633T302 649V687Q302 697 308 703T324 710H362Q372
710 378 704T385 687V649Q385 639 379 633T362 627H324Q314 627 308 633Z" />
<glyph unicode="&#x2013;" glyph-name="endash" horiz-adv-x="577" d="M86 271T80 277T74 293V307Q74 317 80 323T96 329H481Q491 329 497 323T503 307V293Q503 283 497 277T481 271H96Q86 271 80 277Z" />
<glyph unicode="&#x2014;" glyph-name="emdash" horiz-adv-x="767" d="M86 271T80 277T74 293V307Q74 317 80 323T96 329H671Q681 329 687 323T693 307V293Q693 283 687 277T671 271H96Q86 271 80 277Z" />
<glyph unicode="&#x2018;" glyph-name="quoteleft" horiz-adv-x="220" d="M67 542T63 547T59 558Q59 567 63 576L106 689Q111 700 116 705T132 710H149Q157 710 161 704T163 689L144 569Q141 542 119 542H74Q67 542 63 547Z" />
<glyph unicode="&#x2019;" glyph-name="quoteright" horiz-adv-x="213" d="M70 542T66 548T64 563L83 683Q86 710 108 710H153Q159 710 163 705T168 694Q168 685 164 676L121 563Q116 552 111 547T95 542H78Q70 542 66 548Z" />
<glyph unicode="&#x201a;" glyph-name="quotesinglbase" horiz-adv-x="237" d="M65 -75T61 -69T59 -54L78 66Q81 93 103 93H148Q155 93 159 88T163 77Q163 68 159 59L116 -54Q111 -65 106 -70T90 -75H73Q65 -75 61 -69Z" />
<glyph unicode="&#x201c;" glyph-name="quotedblleft" horiz-adv-x="354" d="M67 542T63 547T59 558Q59 567 63 576L106 689Q111 700 116 705T132 710H149Q157 710 161 704T163 689L144 569Q141 542 119 542H74Q67 542 63 547ZM201 542T197 547T193 558Q193 567
197 576L240 689Q245 700 250 705T266 710H283Q291 710 295 704T297 689L278 569Q275 542 253 542H208Q201 542 197 547Z" />
<glyph unicode="&#x201d;" glyph-name="quotedblright" horiz-adv-x="347" d="M70 542T66 548T64 563L83 683Q86 710 108 710H153Q159 710 163 705T168 694Q168 685 164 676L121 563Q116 552 111 547T95 542H78Q70 542 66 548ZM204 542T200 548T198 563L217 683Q220
710 242 710H287Q293 710 297 705T302 694Q302 685 298 676L255 563Q250 552 245 547T229 542H212Q204 542 200 548Z" />
<glyph unicode="&#x201e;" glyph-name="quotedblbase" horiz-adv-x="371" d="M65 -75T61 -69T59 -54L78 66Q81 93 103 93H148Q155 93 159 88T163 77Q163 68 159 59L116 -54Q111 -65 106 -70T90 -75H73Q65 -75 61 -69ZM199 -75T195 -69T193 -54L212 66Q215 93 237
93H282Q289 93 293 88T297 77Q297 68 293 59L250 -54Q245 -65 240 -70T224 -75H207Q199 -75 195 -69Z" />
<glyph unicode="&#x2022;" glyph-name="bullet" horiz-adv-x="380" d="M149 200T120 229T90 300Q90 341 119 370T190 400Q231 400 260 371T290 300Q290 259 261 230T190 200Q149 200 120 229Z" />
<glyph unicode="&#x2039;" glyph-name="guilsinglleft" horiz-adv-x="354" d="M266 92T252 104L64 286Q49 301 47 321V337Q49 357 64 372L252 554Q266 566 276 566Q285 566 290 561T296 546V529Q296 518 292 511T278 493L109 329L278 165Q288 155 292 148T296
129V112Q296 103 291 98T276 92Q266 92 252 104Z" />
<glyph unicode="&#x203a;" glyph-name="guilsinglright" horiz-adv-x="354" d="M69 92T64 97T58 112V129Q58 140 62 147T76 165L245 329L76 493Q66 503 62 510T58 529V546Q58 555 63 560T78 566Q88 566 102 554L290 372Q305 357 307 337V321Q305 301 290 286L102
104Q88 92 78 92Q69 92 64 97Z" />
</font>
</defs>
</svg>
