<?xml version="1.0" standalone="no"?>
<!DOCTYPE svg PUBLIC "-//W3C//DTD SVG 1.1//EN" "http://www.w3.org/Graphics/SVG/1.1/DTD/svg11.dtd">
<svg xmlns="http://www.w3.org/2000/svg">
<defs >
<font id="NunitoSans" horiz-adv-x="551" ><font-face
    font-family="Nunito Sans Light"
    units-per-em="1000"
    panose-1="0 0 4 0 0 0 0 0 0 0"
    ascent="1011"
    descent="-353"
    alphabetic="0" />
<glyph unicode=" " glyph-name="space" horiz-adv-x="252" />
<glyph unicode="!" glyph-name="exclam" horiz-adv-x="220" d="M85 173L107 705H184L123 173H85ZM55 86H140L134 0H49L55 86Z" />
<glyph unicode="&quot;" glyph-name="quotedbl" horiz-adv-x="408" d="M101 434L105 705H179L142 434H101ZM297 434L301 705H375L338 434H297Z" />
<glyph unicode="#" glyph-name="numbersign" horiz-adv-x="600" d="M588 477H482L416 236H549L545 186H403L352 0H299L350 186H176L125 0H73L124 186H26L30 236H137L203 477H69L73 527H217L265 705H318L269 527H443L492 705H544L496 527H592L588 477ZM364 236L430
477H256L190 236H364Z" />
<glyph unicode="$" glyph-name="dollar" horiz-adv-x="600" d="M152 472T176 446T236 404T333 369Q401 348 442 330T511 278T540 191Q540 106 480 52T318 -8L310 -115H254L262 -8Q120 3 39 87L69 136Q119 88 172 68T297 47Q383 47 430 84T477 187Q477 223 455
246T399 283T307 315Q237 336 193 356T119 413T88 509Q88 568 117 613T198 685T319 713L328 820H383L374 711Q500 697 569 621L538 572Q499 616 447 637T323 658Q244 658 198 619T152 513Q152 472 176 446Z" />
<glyph unicode="%" glyph-name="percent" horiz-adv-x="923" d="M255 -23L211 6L685 728L730 699L255 -23ZM164 282T122 331T80 472Q80 585 126 649T253 713Q332 713 373 665T415 522Q415 409 369 346T242 282Q164 282 122 331ZM297 330T326 381T356 529Q356 599
331 632T253 666Q197 666 168 615T139 465Q139 396 164 363T242 330Q297 330 326 381ZM610 -7T569 41T527 182Q527 296 572 360T700 424Q779 424 820 376T861 233Q861 120 816 57T688 -7Q610 -7 569 41ZM744 41T773 92T802 240Q802 310 777 343T700 376Q644 376
615 325T586 176Q586 106 611 74T689 41Q744 41 773 92Z" />
<glyph unicode="&amp;" glyph-name="ampersand" horiz-adv-x="656" d="M578 0L494 95Q452 46 397 20T277 -7Q213 -7 163 15T86 79T58 173Q58 237 97 288T227 395Q227 395 227 395T228 396Q179 452 161 487T143 563Q143 630 188 671T307 712Q376 712 416 675T457
575Q457 523 426 483T310 386L489 183Q536 275 539 409H596Q590 246 526 141L651 0H578ZM204 531T218 503T276 425Q348 471 374 502T400 571Q400 612 375 636T308 661Q261 661 233 634T204 563Q204 531 218 503ZM389 45T459 135L263 356H262Q183 306 151 266T118
174Q118 115 161 80T279 45Q389 45 459 135Z" />
<glyph unicode="&apos;" glyph-name="quotesingle" horiz-adv-x="211" d="M101 434L105 705H179L142 434H101Z" />
<glyph unicode="(" glyph-name="parenleft" horiz-adv-x="297" d="M104 -5T104 184Q104 328 142 463T255 717L298 697Q232 571 199 444T166 180Q166 6 229 -175L184 -191Q104 -5 104 184Z" />
<glyph unicode=")" glyph-name="parenright" horiz-adv-x="297" d="M2 -171Q68 -45 101 83T135 346Q135 520 72 701L117 717Q197 531 197 342Q197 198 158 63T45 -191L2 -171Z" />
<glyph unicode="*" glyph-name="asterisk" horiz-adv-x="449" d="M438 562V512L284 516L364 385L322 360L249 496L175 360L132 385L213 516L58 512V562L213 557L132 688L175 714L249 578L322 714L364 688L284 557L438 562Z" />
<glyph unicode="+" glyph-name="plus" horiz-adv-x="600" d="M549 309L545 258H326L309 40H259L276 258H57L61 309H280L298 528H348L330 309H549Z" />
<glyph unicode="," glyph-name="comma" horiz-adv-x="220" d="M140 86L135 20Q132 -18 118 -48T73 -106L43 -81Q82 -42 89 0H49L55 86H140Z" />
<glyph unicode="-" glyph-name="hyphen" horiz-adv-x="421" d="M74 240L79 292H350L346 240H74Z" />
<glyph unicode="." glyph-name="period" horiz-adv-x="220" d="M55 86H140L134 0H49L55 86Z" />
<glyph unicode="/" glyph-name="slash" horiz-adv-x="269" d="M10 -61L-41 -41L274 749L326 729L10 -61Z" />
<glyph unicode="0" glyph-name="zero" horiz-adv-x="600" d="M182 -8T123 70T64 299Q64 429 94 522T183 664T322 713Q436 713 495 635T554 406Q554 209 486 101T295 -8Q182 -8 123 70ZM392 47T441 140T490 417Q490 540 449 599T322 658Q227 658 178 565T128 288Q128
165 169 106T297 47Q392 47 441 140Z" />
<glyph unicode="1" glyph-name="one" horiz-adv-x="600" d="M339 54H496L491 0H118L123 54H277L324 624L192 543L163 591L345 705H391L339 54Z" />
<glyph unicode="2" glyph-name="two" horiz-adv-x="600" d="M160 54H521L516 0H71L75 46L348 324Q413 390 439 438T466 538Q466 593 431 626T336 659Q279 659 228 639T124 574L103 623Q147 665 209 689T336 713Q424 713 476 666T528 539Q528 475 496 417T388 281L160 54Z" />
<glyph unicode="3" glyph-name="three" horiz-adv-x="600" d="M453 345T484 304T516 202Q516 139 488 92T406 19T281 -7Q214 -7 155 16T50 83L79 132Q129 88 178 68T284 47Q363 47 408 87T454 200Q454 331 290 331H215L220 385H289Q370 385 418 427T466 543Q466
596 430 627T334 659Q278 659 227 639T124 574L103 623Q147 665 209 689T337 713Q424 713 476 667T528 544Q528 482 493 432T396 360Q453 345 484 304Z" />
<glyph unicode="4" glyph-name="four" horiz-adv-x="600" d="M558 213L553 160H444L431 0H370L383 160H49L53 207L436 705H487L448 213H558ZM124 213H387L417 594L124 213Z" />
<glyph unicode="5" glyph-name="five" horiz-adv-x="600" d="M199 652L177 375Q206 405 248 421T336 438Q398 438 445 413T519 341T545 235Q545 164 515 109T429 24T303 -7Q238 -7 180 16T74 83L104 132Q153 89 202 68T305 47Q386 47 434 97T482 232Q482 301 441
342T331 384Q218 384 156 293H109L141 705H555L551 652H199Z" />
<glyph unicode="6" glyph-name="six" horiz-adv-x="599" d="M260 659T202 579T131 348L128 312Q155 370 207 404T325 438Q390 438 440 412T517 337T544 225Q544 158 515 105T433 22T315 -8Q196 -8 132 70T67 293Q67 420 102 515T203 661T355 713Q416 713 472 690T575
623L545 574Q452 659 356 659Q260 659 202 579ZM269 384T230 362T168 299T146 208Q146 135 192 91T315 46Q389 46 435 95T481 225Q481 297 437 340T318 384Q269 384 230 362Z" />
<glyph unicode="7" glyph-name="seven" horiz-adv-x="600" d="M110 705H563L560 660L178 0H112L490 651H106L110 705Z" />
<glyph unicode="8" glyph-name="eight" horiz-adv-x="600" d="M544 322T544 189Q544 130 514 86T426 18T292 -6Q173 -6 110 42T47 181Q47 245 86 295T194 363Q143 382 116 422T89 518Q89 576 118 620T202 688T329 713Q436 713 495 667T554 540Q554 475 519 427T424
359Q544 322 544 189ZM152 453T194 419T317 384Q401 384 446 424T491 534Q491 594 450 626T328 659Q243 659 198 621T152 514Q152 453 194 419ZM381 48T431 85T481 190Q481 263 439 296T299 330Q110 330 110 181Q110 48 289 48Q381 48 431 85Z" />
<glyph unicode="9" glyph-name="nine" horiz-adv-x="600" d="M423 713T487 635T552 412Q552 285 517 190T416 44T264 -8Q203 -8 147 15T44 82L73 131Q167 46 263 46Q359 46 417 126T488 357L491 393Q465 335 413 301T294 267Q229 267 179 293T102 368T75 480Q75
547 104 600T186 683T304 713Q423 713 487 635ZM350 321T389 343T451 406T473 497Q473 570 427 614T304 659Q230 659 184 610T138 480Q138 408 182 365T301 321Q350 321 389 343Z" />
<glyph unicode=":" glyph-name="colon" horiz-adv-x="220" d="M87 485H172L165 400H80L87 485ZM55 86H140L134 0H49L55 86Z" />
<glyph unicode=";" glyph-name="semicolon" horiz-adv-x="220" d="M87 485H172L165 400H80L87 485ZM55 86H140L135 20Q132 -18 118 -48T73 -106L43 -81Q82 -42 89 0H49L55 86Z" />
<glyph unicode="&lt;" glyph-name="less" horiz-adv-x="600" d="M567 535L563 479L122 284L532 88L528 33L58 259L61 309L567 535Z" />
<glyph unicode="=" glyph-name="equal" horiz-adv-x="600" d="M557 409L553 358H65L69 409H557ZM541 209L538 158H50L53 209H541Z" />
<glyph unicode="&gt;" glyph-name="greater" horiz-adv-x="600" d="M79 535L549 309L546 259L40 33L44 88L484 284L75 479L79 535Z" />
<glyph unicode="?" glyph-name="question" horiz-adv-x="436" d="M178 190Q181 236 197 274T233 339T286 404Q329 453 349 487T370 566Q370 609 339 634T254 659Q153 659 52 574L31 623Q75 665 136 689T258 713Q340 713 387 675T434 572Q434 532 420 499T387 441T331
376Q281 323 254 282T217 186L214 173H177L178 190ZM140 0L147 86H232L225 0H140Z" />
<glyph unicode="@" glyph-name="at" horiz-adv-x="922" d="M350 -150T255 -97T108 52T56 275Q56 405 111 503T262 656T476 710Q604 710 694 657T830 520T876 345Q876 244 846 181T771 91T677 64Q623 64 593 87T562 154H560Q536 113 497 89T407 64Q344 64 303 109T262
237Q262 304 288 364T363 461T474 498Q523 498 559 474T605 413H606L618 485H671L623 205Q620 186 620 171Q620 137 636 123T686 109Q717 109 748 132T801 208T823 345Q823 422 785 494T668 612T476 659Q372 659 289 612T157 478T109 275Q109 162 153 78T280 -53T477
-99Q563 -99 628 -73T728 0H799Q756 -70 672 -110T477 -150Q350 -150 255 -97ZM471 109T509 141T568 223T589 330Q589 389 560 420T479 452Q429 452 392 422T334 343T314 241Q314 178 344 144T418 109Q471 109 509 141Z" />
<glyph unicode="A" glyph-name="A" horiz-adv-x="720" d="M612 0L546 188H167L72 0H7L368 705H424L675 0H612ZM194 242H527L391 631L194 242Z" />
<glyph unicode="B" glyph-name="B" horiz-adv-x="670" d="M542 344T572 304T602 204Q602 107 540 54T364 0H72L127 705H389Q498 705 555 661T612 533Q612 470 579 425T483 359Q542 344 572 304ZM185 652L164 385H375Q458 385 504 422T550 531Q550 652 387 652H185ZM450
53T495 89T540 199Q540 331 376 331H160L138 53H364Q450 53 495 89Z" />
<glyph unicode="C" glyph-name="C" horiz-adv-x="677" d="M277 -8T211 31T108 145T72 322Q72 440 112 528T228 665T405 713Q483 713 546 690T654 621L624 573Q576 618 525 638T403 658Q320 658 260 618T168 501T136 321Q136 190 199 119T378 47Q497 47 590 133L612
84Q514 -8 365 -8Q277 -8 211 31Z" />
<glyph unicode="D" glyph-name="D" horiz-adv-x="731" d="M127 705H349Q507 705 592 621T677 383Q677 264 636 178T515 46T324 0H72L127 705ZM322 54Q465 54 538 139T612 384Q612 651 347 651H185L138 54H322Z" />
<glyph unicode="E" glyph-name="E" horiz-adv-x="579" d="M559 652H185L164 385H518L513 331H160L138 53H512L507 0H72L127 705H562L559 652Z" />
<glyph unicode="F" glyph-name="F" horiz-adv-x="553" d="M549 652H185L164 385H508L503 331H160L134 0H72L127 705H552L549 652Z" />
<glyph unicode="G" glyph-name="G" horiz-adv-x="719" d="M403 361H645L620 40Q576 19 512 6T389 -8Q235 -8 153 76T71 312Q71 433 113 523T234 663T417 712Q565 712 659 621L629 572Q578 618 529 638T417 658Q329 658 266 617T169 499T135 316Q135 186 199 116T389
46Q433 46 480 54T567 78L585 309H399L403 361Z" />
<glyph unicode="H" glyph-name="H" horiz-adv-x="754" d="M638 705H699L644 0H583L609 331H159L133 0H72L127 705H189L164 385H613L638 705Z" />
<glyph unicode="I" glyph-name="I" horiz-adv-x="244" d="M72 0L127 705H189L134 0H72Z" />
<glyph unicode="J" glyph-name="J" horiz-adv-x="311" d="M-24 46L31 50Q143 59 154 184L194 705H256L215 183Q202 10 34 -2L-23 -6L-24 46Z" />
<glyph unicode="K" glyph-name="K" horiz-adv-x="613" d="M630 705L221 361L596 0H518L160 340L134 0H72L127 705H189L164 381L544 705H630Z" />
<glyph unicode="L" glyph-name="L" horiz-adv-x="533" d="M72 0L127 705H189L138 54H502L498 0H72Z" />
<glyph unicode="M" glyph-name="M" horiz-adv-x="840" d="M733 705H785L730 0H671L718 580L434 111H388L177 579L131 0H72L128 705H180L416 172L733 705Z" />
<glyph unicode="N" glyph-name="N" horiz-adv-x="735" d="M622 705H680L625 0H577L178 603L130 0H72L127 705H177L575 106L622 705Z" />
<glyph unicode="O" glyph-name="O" horiz-adv-x="757" d="M284 -8T215 31T109 145T72 322Q72 440 112 528T225 665T395 713Q490 713 559 674T665 560T702 383Q702 265 663 177T550 40T378 -8Q284 -8 215 31ZM459 48T517 88T607 203T638 383Q638 516 575 586T395
657Q315 657 257 617T167 501T136 321Q136 189 199 119T379 48Q459 48 517 88Z" />
<glyph unicode="P" glyph-name="P" horiz-adv-x="638" d="M496 705T553 654T611 514Q611 406 545 352T363 297H157L134 0H72L127 705H388Q496 705 553 654ZM549 350T549 512Q549 580 509 616T386 652H184L161 350H362Q549 350 549 512Z" />
<glyph unicode="Q" glyph-name="Q" horiz-adv-x="757" d="M702 238T644 139T475 7Q493 -1 508 -17T537 -62L593 -166L541 -195L473 -69Q440 -10 359 -7Q273 -4 209 35T108 148T72 322Q72 440 112 528T225 665T395 713Q490 713 559 674T665 560T702 383Q702 238
644 139ZM459 48T517 88T607 203T638 383Q638 516 575 586T395 657Q315 657 257 617T167 501T136 321Q136 189 199 119T379 48Q459 48 517 88Z" />
<glyph unicode="R" glyph-name="R" horiz-adv-x="682" d="M455 306T472 287T504 236L611 0H544L443 226Q423 272 392 289T305 306H158L134 0H72L127 705H404Q511 705 568 658T626 521Q626 431 577 378T431 314Q455 306 472 287ZM380 359Q473 359 519 397T565 517Q565
586 525 619T403 652H185L162 359H380Z" />
<glyph unicode="S" glyph-name="S" horiz-adv-x="607" d="M219 -8T155 14T37 84L66 133Q120 87 176 67T302 46Q395 46 444 82T493 182Q493 220 470 245T410 284T314 315Q239 336 193 355T115 414T83 517Q83 576 114 620T202 689T337 713Q410 713 473 689T582 621L552
572Q456 659 337 659Q244 659 195 622T146 519Q146 476 171 448T235 405T336 372Q409 351 452 333T526 279T556 185Q556 96 488 44T302 -8Q219 -8 155 14Z" />
<glyph unicode="T" glyph-name="T" horiz-adv-x="590" d="M246 0L297 651H45L49 705H615L611 651H358L307 0H246Z" />
<glyph unicode="U" glyph-name="U" horiz-adv-x="720" d="M218 -8T153 54T87 234Q87 246 89 272L122 705H184L150 275Q149 263 149 241Q149 47 345 47Q452 47 509 100T574 264L608 705H669L635 271Q624 131 551 62T345 -8Q218 -8 153 54Z" />
<glyph unicode="V" glyph-name="V" horiz-adv-x="680" d="M645 705H709L349 0H293L43 705H107L327 78L645 705Z" />
<glyph unicode="W" glyph-name="W" horiz-adv-x="1096" d="M1034 705H1095L795 0H741L577 608L317 0H264L73 705H135L298 87L561 705L609 704L772 88L1034 705Z" />
<glyph unicode="X" glyph-name="X" horiz-adv-x="638" d="M644 705L363 361L603 0H530L326 314L71 0H-3L293 363L67 705H139L332 409L570 705H644Z" />
<glyph unicode="Y" glyph-name="Y" horiz-adv-x="591" d="M634 705L333 337L306 0H245L272 338L28 705H97L305 390L563 705H634Z" />
<glyph unicode="Z" glyph-name="Z" horiz-adv-x="584" d="M573 705L570 660L104 53H533L528 0H24L28 45L494 652H76L80 705H573Z" />
<glyph unicode="[" glyph-name="bracketleft" horiz-adv-x="297" d="M78 -180L148 705H327L324 655H204L142 -130H262L258 -180H78Z" />
<glyph unicode="\" glyph-name="backslash" horiz-adv-x="269" d="M210 -61L19 735L75 749L266 -47L210 -61Z" />
<glyph unicode="]" glyph-name="bracketright" horiz-adv-x="297" d="M152 -180H-27L-24 -130H96L158 655H38L42 705H222L152 -180Z" />
<glyph unicode="^" glyph-name="asciicircum" horiz-adv-x="600" d="M542 140H489L326 563L97 140H42L306 628H355L542 140Z" />
<glyph unicode="_" glyph-name="underscore" horiz-adv-x="500" d="M-17 -43L-13 0H475L472 -43H-17Z" />
<glyph unicode="`" glyph-name="grave" horiz-adv-x="300" d="M151 550L39 751H111L197 550H151Z" />
<glyph unicode="a" glyph-name="a" horiz-adv-x="526" d="M454 497T454 337Q454 321 453 312L428 0H368L375 83Q351 39 311 16T221 -7Q148 -7 102 32T56 132Q56 186 85 218T179 265T355 280H390L393 314Q394 322 394 336Q394 392 368 418T286 444Q201 444 119
391L99 439Q135 465 187 481T288 497Q454 497 454 337ZM293 46T336 88T384 199L387 235H358Q260 235 209 225T139 194T120 136Q120 95 150 71T231 46Q293 46 336 88Z" />
<glyph unicode="b" glyph-name="b" horiz-adv-x="573" d="M379 497T426 468T499 386T525 262Q525 182 497 121T417 27T298 -7Q239 -7 195 19T130 93L122 0H61L117 705H178L154 408Q178 450 222 473T318 497Q379 497 426 468ZM373 47T417 105T462 264Q462 349 421
396T306 444Q229 444 185 386T140 225Q140 138 180 93T296 47Q373 47 417 105Z" />
<glyph unicode="c" glyph-name="c" horiz-adv-x="475" d="M201 -7T152 22T76 104T49 227Q49 308 78 369T161 463T289 497Q341 497 386 480T463 433L436 385Q398 416 364 430T288 444Q205 444 159 386T113 225Q113 142 154 95T272 47Q311 47 343 60T414 105L434
58Q403 28 359 11T266 -7Q201 -7 152 22Z" />
<glyph unicode="d" glyph-name="d" horiz-adv-x="573" d="M529 705L474 0H413L420 83Q395 41 352 17T256 -7Q195 -7 148 22T75 104T49 227Q49 307 77 368T157 463T276 497Q335 497 379 472T444 399L468 705H529ZM345 47T389 105T434 265Q434 352 394 398T278 444Q201
444 157 387T113 228Q113 141 153 94T268 47Q345 47 389 105Z" />
<glyph unicode="e" glyph-name="e" horiz-adv-x="526" d="M112 235V225Q112 141 154 94T275 47Q370 47 438 105L458 58Q428 28 377 11T273 -7Q169 -7 109 56T49 227Q49 307 78 368T161 463T287 497Q378 497 430 443T483 284Q483 261 480 235H112ZM216 447T172
404T116 280H427Q430 362 393 404T290 447Q216 447 172 404Z" />
<glyph unicode="f" glyph-name="f" horiz-adv-x="315" d="M184 485H326L323 436H181L146 0H85L119 436H23L27 485H123L125 511Q132 607 180 653T325 705L362 707L363 657L316 654Q253 650 223 618T187 518L184 485Z" />
<glyph unicode="g" glyph-name="g" horiz-adv-x="577" d="M516 485L480 28Q464 -187 260 -187Q140 -187 51 -120L78 -72Q128 -106 168 -119T261 -133Q408 -133 420 25L427 107Q404 63 360 39T261 15Q165 15 108 76T50 239Q50 316 78 374T158 465T278 497Q338 497
382 471T448 398L455 485H516ZM349 69T393 123T438 274Q438 355 397 399T281 444Q202 444 158 389T114 237Q114 155 154 112T271 69Q349 69 393 123Z" />
<glyph unicode="h" glyph-name="h" horiz-adv-x="561" d="M402 497T445 456T488 334Q488 316 487 307L463 0H402L426 303Q427 311 427 326Q427 443 311 443Q237 443 194 400T144 281L122 0H61L117 705H178L154 408Q179 451 222 474T321 497Q402 497 445 456Z" />
<glyph unicode="i" glyph-name="i" horiz-adv-x="222" d="M61 0L99 485H160L122 0H61ZM106 690H186L180 613H100L106 690Z" />
<glyph unicode="j" glyph-name="j" horiz-adv-x="222" d="M122 1Q115 -88 72 -131T-59 -180L-103 -183L-105 -134L-61 -131Q-2 -126 27 -97T60 -7L99 485H160L122 1ZM106 690H186L180 613H100L106 690Z" />
<glyph unicode="k" glyph-name="k" horiz-adv-x="484" d="M481 485L212 251L469 0H390L141 240L122 0H61L117 705H178L143 260L399 485H481Z" />
<glyph unicode="l" glyph-name="l" horiz-adv-x="222" d="M61 0L117 705H178L122 0H61Z" />
<glyph unicode="m" glyph-name="m" horiz-adv-x="843" d="M694 497T732 456T771 336Q771 317 770 307L746 0H685L709 303Q710 313 710 330Q710 388 685 415T607 443Q540 443 501 401T456 280L434 0H373L397 303Q398 313 398 330Q398 388 373 415T295 443Q228 443
189 401T144 280L122 0H61L99 485H159L153 408Q201 497 307 497Q423 497 452 404Q476 448 520 472T619 497Q694 497 732 456Z" />
<glyph unicode="n" glyph-name="n" horiz-adv-x="561" d="M402 497T445 456T488 334Q488 316 487 307L463 0H402L426 303Q427 311 427 326Q427 443 311 443Q237 443 194 400T144 281L122 0H61L99 485H159L153 406Q178 449 221 473T321 497Q402 497 445 456Z" />
<glyph unicode="o" glyph-name="o" horiz-adv-x="545" d="M201 -7T152 22T76 104T49 227Q49 308 77 369T158 463T279 497Q345 497 394 468T470 386T497 262Q497 182 469 121T388 27T266 -7Q201 -7 152 22ZM346 47T390 105T434 265Q434 350 393 397T279 444Q201
444 157 386T113 224Q113 138 153 93T269 47Q346 47 390 105Z" />
<glyph unicode="p" glyph-name="p" horiz-adv-x="573" d="M379 497T426 468T499 386T525 262Q525 182 497 121T417 27T298 -7Q239 -7 195 19T130 93L108 -180H47L99 485H160L154 408Q178 450 222 473T318 497Q379 497 426 468ZM373 47T417 105T462 264Q462 349
421 396T306 444Q229 444 185 386T140 225Q140 138 180 93T296 47Q373 47 417 105Z" />
<glyph unicode="q" glyph-name="q" horiz-adv-x="573" d="M512 485L459 -180H398L419 82Q395 40 351 17T255 -7Q194 -7 147 22T74 104T48 228Q48 308 76 369T156 463T275 497Q334 497 378 471T444 397L451 485H512ZM344 47T388 105T433 265Q433 352 393 398T277
444Q200 444 156 386T112 226Q112 141 152 94T267 47Q344 47 388 105Z" />
<glyph unicode="r" glyph-name="r" horiz-adv-x="339" d="M349 497V444L306 440Q230 433 191 394T145 284L122 0H61L99 485H159L153 404Q178 447 219 468T324 495L349 497Z" />
<glyph unicode="s" glyph-name="s" horiz-adv-x="478" d="M170 -7T121 10T36 58L63 105Q103 74 140 60T225 46Q354 46 354 127Q354 153 338 169T298 195T233 217Q182 232 151 245T98 285T76 355Q76 421 126 459T262 497Q313 497 357 480T431 433L405 386Q338 444
263 444Q203 444 171 422T139 358Q139 332 155 316T193 291T259 268Q309 254 340 241T394 200T416 130Q416 67 364 30T224 -7Q170 -7 121 10Z" />
<glyph unicode="t" glyph-name="t" horiz-adv-x="327" d="M159 171Q158 164 158 151Q158 99 184 72T262 45Q286 45 305 49L298 -2Q278 -6 254 -6Q179 -6 138 33T97 144Q97 158 98 166L119 436H23L27 485H123L135 635H196L184 485H326L323 436H180L159 171Z" />
<glyph unicode="u" glyph-name="u" horiz-adv-x="553" d="M492 485L453 0H394L400 85Q375 41 333 17T237 -7Q157 -7 115 34T72 157Q72 174 73 183L97 485H158L134 188Q133 180 133 164Q133 47 246 47Q317 47 360 90T409 210L431 485H492Z" />
<glyph unicode="v" glyph-name="v" horiz-adv-x="509" d="M448 485H512L266 0H204L35 485H98L240 62L448 485Z" />
<glyph unicode="w" glyph-name="w" horiz-adv-x="836" d="M758 485H823L608 0H545L430 406L252 0H189L51 485H114L226 72L407 485H467L581 74L758 485Z" />
<glyph unicode="x" glyph-name="x" horiz-adv-x="512" d="M501 485L294 249L474 0H399L254 205L76 0H0L220 251L49 485H125L259 296L425 485H501Z" />
<glyph unicode="y" glyph-name="y" horiz-adv-x="509" d="M448 485H512L174 -180H112L204 1L35 485H98L240 62L448 485Z" />
<glyph unicode="z" glyph-name="z" horiz-adv-x="499" d="M463 485L460 439L115 50H440L436 0H30L33 42L383 436H77L80 485H463Z" />
<glyph unicode="{" glyph-name="braceleft" horiz-adv-x="334" d="M214 321T192 296T139 263Q169 256 187 231T202 162L183 -84Q180 -130 222 -130H299L295 -180H216Q165 -180 142 -156T122 -87L140 156Q141 162 141 174Q141 205 126 220T74 237L51 239L54 287L79
288Q120 291 137 310T158 370L176 612Q181 657 205 681T274 705H364L361 655H285Q241 655 237 609L218 364Q214 321 192 296Z" />
<glyph unicode="|" glyph-name="bar" horiz-adv-x="253" d="M62 -180L132 705H193L123 -180H62Z" />
<glyph unicode="}" glyph-name="braceright" horiz-adv-x="334" d="M286 287L283 239L259 237Q219 235 201 216T179 156L161 -87Q156 -132 132 -156T62 -180H-27L-24 -130H52Q97 -130 100 -84L119 162Q122 205 145 230T198 263Q169 270 151 295T136 364L154 609Q158
655 114 655H38L42 705H121Q223 705 215 612L196 370Q193 329 207 310T263 288L286 287Z" />
<glyph unicode="~" glyph-name="asciitilde" horiz-adv-x="600" d="M550 313Q501 218 415 218Q383 218 355 229T283 265Q251 283 231 292T191 301Q130 301 98 233L57 255Q105 350 191 350Q223 350 252 338T323 303Q356 284 376 276T416 267Q449 267 471 285T509
334L550 313Z" />
<glyph unicode="&#xa0;" glyph-name="uni00A0" horiz-adv-x="252" />
<glyph unicode="&#xa1;" glyph-name="exclamdown" horiz-adv-x="220" d="M80 400L87 485H172L165 400H80ZM96 312H134L115 -180H38L96 312Z" />
<glyph unicode="&#xa2;" glyph-name="cent" horiz-adv-x="600" d="M250 444T205 386T159 225Q159 142 200 95T318 47Q357 47 389 60T460 105L480 58Q450 29 410 12T323 -7L315 -115H260L268 -3Q188 11 142 72T95 227Q95 342 152 414T308 496L317 605H372L364 496Q450
487 509 433L482 385Q444 416 409 430T334 444Q250 444 205 386Z" />
<glyph unicode="&#xa3;" glyph-name="sterling" horiz-adv-x="600" d="M438 713T493 689T591 621L560 572Q522 613 475 636T380 659Q317 659 280 623T238 518L227 378H413L409 328H223L201 54H543L539 0H30L35 54H140L162 328H56L60 378H166L177 517Q185 609 238
661T379 713Q438 713 493 689Z" />
<glyph unicode="&#xa4;" glyph-name="currency" horiz-adv-x="600" d="M514 368T528 328T542 245Q542 202 528 162T489 90L542 36L502 -4L450 50Q384 -3 302 -3Q260 -3 221 11T151 52L97 -4L58 36L113 91Q61 159 61 245Q61 331 112 398L58 454L97 494L151 438Q182
464 221 478T302 493Q384 493 450 440L502 494L542 454L489 400Q514 368 528 328ZM351 50T393 76T459 147T484 245Q484 298 460 343T393 414T301 440Q251 440 209 414T143 343T118 245Q118 192 142 147T209 76T301 50Q351 50 393 76Z" />
<glyph unicode="&#xa5;" glyph-name="yen" horiz-adv-x="600" d="M636 705L374 380H537L533 330H338L330 230H525L521 180H326L312 0H250L265 180H69L73 230H269L277 330H81L85 380H248L36 705H107L310 387L565 705H636Z" />
<glyph unicode="&#xa6;" glyph-name="brokenbar" horiz-adv-x="253" d="M106 371L132 705H193L167 371H106ZM63 -180L89 154H150L124 -180H63Z" />
<glyph unicode="&#xa7;" glyph-name="section" horiz-adv-x="524" d="M476 151T458 115T410 54Q420 28 420 -4Q420 -88 369 -137T231 -186Q173 -186 126 -171T36 -122L64 -75Q108 -107 145 -120T231 -133Q292 -133 326 -101T360 -11Q360 28 340 56T272 113L189
162Q116 205 84 244T52 335Q52 376 69 413T116 474Q107 500 107 530Q107 613 160 662T298 712Q345 712 391 694T467 647L441 600Q405 631 370 645T293 659Q236 659 202 625T168 535Q168 497 188 470T255 414L338 364Q412 319 444 279T476 188Q476 151 458 115ZM415
136T415 186Q415 219 392 246T313 308L235 356Q175 393 144 428Q112 391 112 341Q112 309 135 281T214 218L292 170Q355 132 383 98Q415 136 415 186Z" />
<glyph unicode="&#xa8;" glyph-name="dieresis" horiz-adv-x="300" d="M65 688H140L134 615H59L65 688ZM231 688H306L300 615H225L231 688Z" />
<glyph unicode="&#xa9;" glyph-name="copyright" horiz-adv-x="815" d="M308 -5T227 42T98 171T50 353Q50 453 97 534T226 663T408 710Q508 710 589 663T718 535T765 353Q765 253 718 172T589 43T408 -5Q308 -5 227 42ZM496 35T568 77T681 191T723 353Q723 442
682 514T568 628T408 670Q320 670 248 629T134 515T92 353Q92 264 133 192T247 77T408 35Q496 35 568 77ZM322 137T269 195T215 353Q215 452 268 510T414 568Q455 568 494 554T562 513L541 470Q509 496 479 508T416 520Q349 520 313 477T276 353Q276 273 312 229T416
185Q449 185 479 197T541 235L562 192Q534 166 495 152T414 137Q322 137 269 195Z" />
<glyph unicode="&#xaa;" glyph-name="ordfeminine" horiz-adv-x="328" d="M253 710T281 684T309 608L308 593L294 413H239L243 458Q229 434 206 421T153 408Q110 408 82 432T54 494Q54 542 94 562T232 582H252L253 600Q257 666 195 666Q145 666 96 634L81 675Q107
692 138 701T201 710Q253 710 281 684ZM198 451T221 473T248 533L249 549H232Q163 549 137 538T110 497Q110 477 125 464T163 451Q198 451 221 473Z" />
<glyph unicode="&#xab;" glyph-name="guillemotleft" horiz-adv-x="416" d="M142 90L61 249L63 281L169 440L215 422L122 265L188 107L142 90ZM311 90L230 249L232 281L338 440L384 422L291 265L357 107L311 90Z" />
<glyph unicode="&#xac;" glyph-name="logicalnot" horiz-adv-x="600" d="M557 414L537 154H488L505 364H66L69 414H557Z" />
<glyph unicode="&#xad;" glyph-name="uni00AD" horiz-adv-x="421" d="M74 240L79 292H350L346 240H74Z" />
<glyph unicode="&#xae;" glyph-name="registered" horiz-adv-x="815" d="M517 710T598 663T727 535T774 353Q774 253 727 172T598 43T417 -5Q317 -5 236 42T107 171T59 353Q59 453 106 534T235 663T417 710Q517 710 598 663ZM505 35T577 77T690 191T732 353Q732
442 691 514T577 628T417 670Q329 670 257 629T143 515T101 353Q101 264 142 192T256 77T417 35Q505 35 577 77ZM503 312T522 276L594 142H530L458 276Q445 299 430 307T388 316H328L314 142H257L290 563H450Q593 563 593 447Q593 395 562 362T474 322Q503 312
522 276ZM442 364Q535 364 535 445Q535 484 513 500T442 516H344L331 364H442Z" />
<glyph unicode="&#xaf;" glyph-name="overscore" horiz-adv-x="300" d="M32 626L37 677H332L328 626H32Z" />
<glyph unicode="&#xb0;" glyph-name="degree" horiz-adv-x="364" d="M168 423T136 441T84 493T65 566Q65 607 84 640T135 691T208 710Q269 710 310 669T351 566Q351 505 310 464T208 423Q168 423 136 441ZM249 469T275 496T301 566Q301 609 275 636T208 664Q167
664 141 637T115 566Q115 523 141 496T208 469Q249 469 275 496Z" />
<glyph unicode="&#xb1;" glyph-name="plusminus" horiz-adv-x="600" d="M334 348H552L549 298H329L315 118H265L279 298H61L64 348H284L298 528H348L334 348ZM37 0L41 51H529L525 0H37Z" />
<glyph unicode="&#xb2;" glyph-name="uni00B2" horiz-adv-x="380" d="M135 330H338L334 282H59L62 325L221 486Q255 521 270 546T285 599Q285 629 267 645T216 661Q188 661 156 649T96 613L73 654Q103 679 141 694T220 709Q278 709 310 680T343 602Q343 566 324
531T263 456L135 330Z" />
<glyph unicode="&#xb3;" glyph-name="uni00B3" horiz-adv-x="380" d="M300 489T318 465T336 404Q336 345 296 312T191 279Q149 279 111 294T43 334L72 375Q129 327 189 327Q231 327 255 346T280 403Q280 440 258 456T193 473H142L146 520H189Q235 520 260 540T286
601Q286 630 267 645T216 661Q188 661 156 649T96 613L73 654Q103 679 141 694T220 709Q277 709 310 681T343 609Q343 568 323 540T267 498Q300 489 318 465Z" />
<glyph unicode="&#xb4;" glyph-name="acute" horiz-adv-x="300" d="M197 550H151L265 751H346L197 550Z" />
<glyph unicode="&#xb5;" glyph-name="uni00B5" horiz-adv-x="553" d="M492 485L453 0H394L400 85Q375 41 333 17T237 -7Q163 -7 123 30L106 -180H45L97 485H158L134 188Q133 180 133 164Q133 47 246 47Q317 47 360 90T409 210L431 485H492Z" />
<glyph unicode="&#xb6;" glyph-name="paragraph" horiz-adv-x="569" d="M443 -180H386L452 652H331L265 -180H208L247 323Q167 325 118 373T69 500Q69 591 124 648T279 705H513L443 -180Z" />
<glyph unicode="&#xb7;" glyph-name="middot" horiz-adv-x="220" d="M73 308H158L151 222H66L73 308Z" />
<glyph unicode="&#xb8;" glyph-name="cedilla" horiz-adv-x="300" d="M198 -41T218 -58T238 -108Q238 -146 209 -168T125 -191Q104 -191 80 -187T38 -172L52 -134Q90 -148 126 -148Q155 -148 171 -139T187 -110Q187 -96 178 -89T152 -81Q133 -81 105 -91L87 -76L105
20H155L143 -43Q157 -41 165 -41Q198 -41 218 -58Z" />
<glyph unicode="&#xb9;" glyph-name="uni00B9" horiz-adv-x="380" d="M250 330H324L320 282H116L119 330H194L219 638L147 595L124 638L234 705H280L250 330Z" />
<glyph unicode="&#xba;" glyph-name="ordmasculine" horiz-adv-x="333" d="M121 408T85 446T48 546Q48 619 89 664T201 710Q262 710 298 673T335 573Q335 498 293 453T181 408Q121 408 85 446ZM227 454T252 485T277 572Q277 616 257 640T199 664Q154 664 130 633T105
546Q105 501 125 478T182 454Q227 454 252 485Z" />
<glyph unicode="&#xbb;" glyph-name="guillemotright" horiz-adv-x="416" d="M81 90L35 108L130 265L62 423L109 440L190 281L188 249L81 90ZM250 90L204 108L299 265L231 423L278 440L359 281L357 249L250 90Z" />
<glyph unicode="&#xbc;" glyph-name="onequarter" horiz-adv-x="926" d="M250 330H324L320 282H116L119 330H194L219 638L147 595L124 638L234 705H280L250 330ZM257 -23L213 7L686 728L730 698L257 -23ZM891 136L886 89H824L817 0H760L767 89H574L577 132L803
423H850L828 136H891ZM635 136H771L786 332L635 136Z" />
<glyph unicode="&#xbd;" glyph-name="onehalf" horiz-adv-x="926" d="M250 330H324L320 282H116L119 330H194L219 638L147 595L124 638L234 705H280L250 330ZM257 -23L213 7L686 728L730 698L257 -23ZM659 48H862L858 0H583L586 43L745 204Q779 239 794 264T809
317Q809 347 791 363T740 379Q712 379 680 367T620 331L597 372Q627 397 665 412T744 427Q802 427 834 398T867 320Q867 284 848 249T787 174L659 48Z" />
<glyph unicode="&#xbe;" glyph-name="threequarters" horiz-adv-x="926" d="M300 489T318 465T336 404Q336 345 296 312T191 279Q149 279 111 294T43 334L72 375Q129 327 189 327Q231 327 255 346T280 403Q280 440 258 456T193 473H142L146 520H189Q235 520 260
540T286 601Q286 630 267 645T216 661Q188 661 156 649T96 613L73 654Q103 679 141 694T220 709Q277 709 310 681T343 609Q343 568 323 540T267 498Q300 489 318 465ZM257 -23L213 7L686 728L730 698L257 -23ZM891 136L886 89H824L817 0H760L767 89H574L577 132L803
423H850L828 136H891ZM635 136H771L786 332L635 136Z" />
<glyph unicode="&#xbf;" glyph-name="questiondown" horiz-adv-x="436" d="M204 400L211 485H296L289 400H204ZM102 -187T54 -148T6 -47Q6 -9 19 21T52 73T107 128Q156 173 183 209T219 299L221 313H258L257 295Q254 251 239 217T203 158T150 101Q108 59 89 30T69
-41Q69 -83 100 -108T186 -133Q236 -133 285 -113T386 -48L408 -97Q364 -139 304 -163T184 -187Q102 -187 54 -148Z" />
<glyph unicode="&#xc0;" glyph-name="Agrave" horiz-adv-x="720" d="M612 0L546 188H167L72 0H7L368 705H424L675 0H612ZM194 242H527L391 631L194 242ZM378 765L264 915H334L424 765H378Z" />
<glyph unicode="&#xc1;" glyph-name="Aacute" horiz-adv-x="720" d="M612 0L546 188H167L72 0H7L368 705H424L675 0H612ZM194 242H527L391 631L194 242ZM424 765H378L488 915H567L424 765Z" />
<glyph unicode="&#xc2;" glyph-name="Acircumflex" horiz-adv-x="720" d="M612 0L546 188H167L72 0H7L368 705H424L675 0H612ZM194 242H527L391 631L194 242ZM326 765H263L390 915H436L539 765H478L412 873L326 765Z" />
<glyph unicode="&#xc3;" glyph-name="Atilde" horiz-adv-x="720" d="M612 0L546 188H167L72 0H7L368 705H424L675 0H612ZM194 242H527L391 631L194 242ZM248 842T273 869T338 896Q358 896 376 888T420 863Q440 850 453 844T478 837Q501 837 514 852T529 893H568Q566
842 541 815T476 788Q456 788 438 796T395 821Q374 834 362 840T337 846Q314 846 301 831T285 791H246Q248 842 273 869Z" />
<glyph unicode="&#xc4;" glyph-name="Adieresis" horiz-adv-x="720" d="M612 0L546 188H167L72 0H7L368 705H424L675 0H612ZM194 242H527L391 631L194 242ZM290 877H365L359 805H284L290 877ZM456 877H531L525 805H450L456 877Z" />
<glyph unicode="&#xc5;" glyph-name="Aring" horiz-adv-x="720" d="M554 188H167L93 40L18 0L342 657L374 678Q342 686 322 712T301 771Q301 812 329 840T399 868Q440 868 469 840T498 771Q498 738 478 712T425 678L657 48L623 0L554 188ZM350 750T364 735T399
720Q420 720 434 735T449 771Q449 793 435 808T399 823Q378 823 364 808T350 771Q350 750 364 735ZM194 242H534L394 623L405 663L194 242Z" />
<glyph unicode="&#xc6;" glyph-name="AE" horiz-adv-x="989" d="M969 651H527L562 385H927L923 331H570L607 54H922L917 0H557L532 188H183L57 0H-13L467 705H972L969 651ZM219 242H525L475 623L219 242Z" />
<glyph unicode="&#xc7;" glyph-name="Ccedilla" horiz-adv-x="677" d="M320 658T260 618T168 501T136 321Q136 190 199 119T378 47Q497 47 590 133L612 84Q518 -4 379 -8L372 -43Q386 -41 394 -41Q427 -41 447 -58T467 -108Q467 -146 438 -168T354 -191Q333 -191
309 -187T267 -172L281 -134Q319 -148 355 -148Q384 -148 400 -139T416 -110Q416 -96 407 -89T381 -81Q362 -81 334 -91L316 -76L329 -6Q210 6 141 92T72 322Q72 440 112 528T228 665T405 713Q483 713 546 690T654 621L624 573Q576 618 525 638T403 658Q320 658
260 618Z" />
<glyph unicode="&#xc8;" glyph-name="Egrave" horiz-adv-x="579" d="M559 652H185L164 385H518L513 331H160L138 53H512L507 0H72L127 705H562L559 652ZM340 765L226 915H296L386 765H340Z" />
<glyph unicode="&#xc9;" glyph-name="Eacute" horiz-adv-x="579" d="M559 652H185L164 385H518L513 331H160L138 53H512L507 0H72L127 705H562L559 652ZM386 765H340L450 915H529L386 765Z" />
<glyph unicode="&#xca;" glyph-name="Ecircumflex" horiz-adv-x="579" d="M559 652H185L164 385H518L513 331H160L138 53H512L507 0H72L127 705H562L559 652ZM288 765H225L352 915H398L501 765H440L374 873L288 765Z" />
<glyph unicode="&#xcb;" glyph-name="Edieresis" horiz-adv-x="579" d="M559 652H185L164 385H518L513 331H160L138 53H512L507 0H72L127 705H562L559 652ZM252 877H327L321 805H246L252 877ZM418 877H493L487 805H412L418 877Z" />
<glyph unicode="&#xcc;" glyph-name="Igrave" horiz-adv-x="244" d="M72 0L127 705H189L134 0H72ZM140 765L26 915H96L186 765H140Z" />
<glyph unicode="&#xcd;" glyph-name="Iacute" horiz-adv-x="244" d="M72 0L127 705H189L134 0H72ZM186 765H140L250 915H329L186 765Z" />
<glyph unicode="&#xce;" glyph-name="Icircumflex" horiz-adv-x="244" d="M72 0L127 705H189L134 0H72ZM88 765H25L152 915H198L301 765H240L174 873L88 765Z" />
<glyph unicode="&#xcf;" glyph-name="Idieresis" horiz-adv-x="244" d="M72 0L127 705H189L134 0H72ZM52 877H127L121 805H46L52 877ZM218 877H293L287 805H212L218 877Z" />
<glyph unicode="&#xd0;" glyph-name="Eth" horiz-adv-x="740" d="M516 705T600 621T685 383Q685 264 644 178T524 46T333 0H81L107 332H12L17 383H111L136 705H358Q516 705 600 621ZM474 54T547 139T621 384Q621 516 555 583T356 651H194L173 383H367L362 332H169L147
54H331Q474 54 547 139Z" />
<glyph unicode="&#xd1;" glyph-name="Ntilde" horiz-adv-x="735" d="M622 705H680L625 0H577L178 603L130 0H72L127 705H177L575 106L622 705ZM256 842T281 869T346 896Q366 896 384 888T428 863Q448 850 461 844T486 837Q509 837 522 852T537 893H576Q574 842
549 815T484 788Q464 788 446 796T403 821Q382 834 370 840T345 846Q322 846 309 831T293 791H254Q256 842 281 869Z" />
<glyph unicode="&#xd2;" glyph-name="Ograve" horiz-adv-x="757" d="M284 -8T215 31T109 145T72 322Q72 440 112 528T225 665T395 713Q490 713 559 674T665 560T702 383Q702 265 663 177T550 40T378 -8Q284 -8 215 31ZM459 48T517 88T607 203T638 383Q638 516
575 586T395 657Q315 657 257 617T167 501T136 321Q136 189 199 119T379 48Q459 48 517 88ZM396 765L282 915H352L442 765H396Z" />
<glyph unicode="&#xd3;" glyph-name="Oacute" horiz-adv-x="757" d="M284 -8T215 31T109 145T72 322Q72 440 112 528T225 665T395 713Q490 713 559 674T665 560T702 383Q702 265 663 177T550 40T378 -8Q284 -8 215 31ZM459 48T517 88T607 203T638 383Q638 516
575 586T395 657Q315 657 257 617T167 501T136 321Q136 189 199 119T379 48Q459 48 517 88ZM442 765H396L506 915H585L442 765Z" />
<glyph unicode="&#xd4;" glyph-name="Ocircumflex" horiz-adv-x="757" d="M284 -8T215 31T109 145T72 322Q72 440 112 528T225 665T395 713Q490 713 559 674T665 560T702 383Q702 265 663 177T550 40T378 -8Q284 -8 215 31ZM459 48T517 88T607 203T638 383Q638
516 575 586T395 657Q315 657 257 617T167 501T136 321Q136 189 199 119T379 48Q459 48 517 88ZM344 765H281L408 915H454L557 765H496L430 873L344 765Z" />
<glyph unicode="&#xd5;" glyph-name="Otilde" horiz-adv-x="757" d="M284 -8T215 31T109 145T72 322Q72 440 112 528T225 665T395 713Q490 713 559 674T665 560T702 383Q702 265 663 177T550 40T378 -8Q284 -8 215 31ZM459 48T517 88T607 203T638 383Q638 516
575 586T395 657Q315 657 257 617T167 501T136 321Q136 189 199 119T379 48Q459 48 517 88ZM266 842T291 869T356 896Q376 896 394 888T438 863Q458 850 471 844T496 837Q519 837 532 852T547 893H586Q584 842 559 815T494 788Q474 788 456 796T413 821Q392 834
380 840T355 846Q332 846 319 831T303 791H264Q266 842 291 869Z" />
<glyph unicode="&#xd6;" glyph-name="Odieresis" horiz-adv-x="757" d="M284 -8T215 31T109 145T72 322Q72 440 112 528T225 665T395 713Q490 713 559 674T665 560T702 383Q702 265 663 177T550 40T378 -8Q284 -8 215 31ZM459 48T517 88T607 203T638 383Q638 516
575 586T395 657Q315 657 257 617T167 501T136 321Q136 189 199 119T379 48Q459 48 517 88ZM308 877H383L377 805H302L308 877ZM474 877H549L543 805H468L474 877Z" />
<glyph unicode="&#xd7;" glyph-name="multiply" horiz-adv-x="600" d="M533 482L338 284L521 85L483 50L301 247L107 50L73 85L268 283L85 482L124 518L305 320L500 518L533 482Z" />
<glyph unicode="&#xd8;" glyph-name="Oslash" horiz-adv-x="757" d="M654 594T678 530T702 383Q702 265 663 177T550 40T378 -8Q278 -8 208 36L157 -41L114 -13L167 67Q121 109 97 174T72 322Q72 440 112 528T225 665T395 713Q498 713 567 668L619 746L662 718L608
637Q654 594 678 530ZM136 187T200 117L535 620Q480 657 395 657Q315 657 257 617T167 501T136 321Q136 187 200 117ZM459 48T517 88T607 203T638 383Q638 515 575 587L240 84Q296 48 379 48Q459 48 517 88Z" />
<glyph unicode="&#xd9;" glyph-name="Ugrave" horiz-adv-x="720" d="M218 -8T153 54T87 234Q87 246 89 272L122 705H184L150 275Q149 263 149 241Q149 47 345 47Q452 47 509 100T574 264L608 705H669L635 271Q624 131 551 62T345 -8Q218 -8 153 54ZM378 765L264
915H334L424 765H378Z" />
<glyph unicode="&#xda;" glyph-name="Uacute" horiz-adv-x="720" d="M218 -8T153 54T87 234Q87 246 89 272L122 705H184L150 275Q149 263 149 241Q149 47 345 47Q452 47 509 100T574 264L608 705H669L635 271Q624 131 551 62T345 -8Q218 -8 153 54ZM424 765H378L488
915H567L424 765Z" />
<glyph unicode="&#xdb;" glyph-name="Ucircumflex" horiz-adv-x="720" d="M218 -8T153 54T87 234Q87 246 89 272L122 705H184L150 275Q149 263 149 241Q149 47 345 47Q452 47 509 100T574 264L608 705H669L635 271Q624 131 551 62T345 -8Q218 -8 153 54ZM326 765H263L390
915H436L539 765H478L412 873L326 765Z" />
<glyph unicode="&#xdc;" glyph-name="Udieresis" horiz-adv-x="720" d="M218 -8T153 54T87 234Q87 246 89 272L122 705H184L150 275Q149 263 149 241Q149 47 345 47Q452 47 509 100T574 264L608 705H669L635 271Q624 131 551 62T345 -8Q218 -8 153 54ZM290 877H365L359
805H284L290 877ZM456 877H531L525 805H450L456 877Z" />
<glyph unicode="&#xdd;" glyph-name="Yacute" horiz-adv-x="591" d="M634 705L333 337L306 0H245L272 338L28 705H97L305 390L563 705H634ZM359 765H313L423 915H502L359 765Z" />
<glyph unicode="&#xde;" glyph-name="Thorn" horiz-adv-x="638" d="M489 546T544 501T599 369Q599 276 539 224T365 171H147L133 0H72L127 705H189L176 546H387Q489 546 544 501ZM452 224T494 260T537 368Q537 433 499 463T384 493H172L151 224H362Q452 224 494 260Z" />
<glyph unicode="&#xdf;" glyph-name="germandbls" horiz-adv-x="598" d="M100 492Q109 600 169 654T323 709Q394 709 435 679T476 593Q476 548 452 517T384 450Q350 422 334 403T318 360Q318 328 343 310T421 273Q464 257 491 243T537 203T556 139Q556 74 507
34T375 -7Q326 -7 278 10T196 58L223 105Q263 74 300 60T378 46Q431 46 462 70T494 136Q494 169 468 187T388 223Q345 238 319 251T274 289T255 350Q255 391 277 419T341 481Q379 511 398 534T417 589Q417 621 392 639T322 657Q174 657 161 489L122 0H61L100 492Z"
/>
<glyph unicode="&#xe0;" glyph-name="agrave" horiz-adv-x="526" d="M454 497T454 337Q454 321 453 312L428 0H368L375 83Q351 39 311 16T221 -7Q148 -7 102 32T56 132Q56 186 85 218T179 265T355 280H390L393 314Q394 322 394 336Q394 392 368 418T286 444Q201
444 119 391L99 439Q135 465 187 481T288 497Q454 497 454 337ZM293 46T336 88T384 199L387 235H358Q260 235 209 225T139 194T120 136Q120 95 150 71T231 46Q293 46 336 88ZM273 550L161 751H233L319 550H273Z" />
<glyph unicode="&#xe1;" glyph-name="aacute" horiz-adv-x="526" d="M454 497T454 337Q454 321 453 312L428 0H368L375 83Q351 39 311 16T221 -7Q148 -7 102 32T56 132Q56 186 85 218T179 265T355 280H390L393 314Q394 322 394 336Q394 392 368 418T286 444Q201
444 119 391L99 439Q135 465 187 481T288 497Q454 497 454 337ZM293 46T336 88T384 199L387 235H358Q260 235 209 225T139 194T120 136Q120 95 150 71T231 46Q293 46 336 88ZM319 550H273L387 751H468L319 550Z" />
<glyph unicode="&#xe2;" glyph-name="acircumflex" horiz-adv-x="526" d="M454 497T454 337Q454 321 453 312L428 0H368L375 83Q351 39 311 16T221 -7Q148 -7 102 32T56 132Q56 186 85 218T179 265T355 280H390L393 314Q394 322 394 336Q394 392 368 418T286 444Q201
444 119 391L99 439Q135 465 187 481T288 497Q454 497 454 337ZM293 46T336 88T384 199L387 235H358Q260 235 209 225T139 194T120 136Q120 95 150 71T231 46Q293 46 336 88ZM222 550H158L288 751H336L434 550H373L309 701L222 550Z" />
<glyph unicode="&#xe3;" glyph-name="atilde" horiz-adv-x="526" d="M454 497T454 337Q454 321 453 312L428 0H368L375 83Q351 39 311 16T221 -7Q148 -7 102 32T56 132Q56 186 85 218T179 265T355 280H390L393 314Q394 322 394 336Q394 392 368 418T286 444Q201
444 119 391L99 439Q135 465 187 481T288 497Q454 497 454 337ZM293 46T336 88T384 199L387 235H358Q260 235 209 225T139 194T120 136Q120 95 150 71T231 46Q293 46 336 88ZM145 652T169 679T234 706Q255 706 273 698T317 673Q338 660 350 654T375 648Q398 648
411 663T427 703H466Q463 652 438 625T374 598Q353 598 335 606T291 631Q272 643 259 649T234 656Q211 656 198 641T182 601H143Q145 652 169 679Z" />
<glyph unicode="&#xe4;" glyph-name="adieresis" horiz-adv-x="526" d="M454 497T454 337Q454 321 453 312L428 0H368L375 83Q351 39 311 16T221 -7Q148 -7 102 32T56 132Q56 186 85 218T179 265T355 280H390L393 314Q394 322 394 336Q394 392 368 418T286 444Q201
444 119 391L99 439Q135 465 187 481T288 497Q454 497 454 337ZM293 46T336 88T384 199L387 235H358Q260 235 209 225T139 194T120 136Q120 95 150 71T231 46Q293 46 336 88ZM187 688H262L256 615H181L187 688ZM353 688H428L422 615H347L353 688Z" />
<glyph unicode="&#xe5;" glyph-name="aring" horiz-adv-x="526" d="M454 497T454 337Q454 321 453 312L428 0H368L375 83Q351 39 311 16T221 -7Q148 -7 102 32T56 132Q56 186 85 218T179 265T355 280H390L393 314Q394 322 394 336Q394 392 368 418T286 444Q201
444 119 391L99 439Q135 465 187 481T288 497Q454 497 454 337ZM293 46T336 88T384 199L387 235H358Q260 235 209 225T139 194T120 136Q120 95 150 71T231 46Q293 46 336 88ZM263 554T234 582T205 651Q205 691 234 719T304 747Q345 747 374 719T403 651Q403 610
374 582T304 554Q263 554 234 582ZM326 599T340 614T354 651Q354 672 340 687T304 702Q283 702 269 687T255 651Q255 629 269 614T304 599Q326 599 340 614Z" />
<glyph unicode="&#xe6;" glyph-name="ae" horiz-adv-x="857" d="M451 235V225Q451 141 493 94T615 47Q654 47 695 61T770 105L790 58Q761 29 711 11T614 -7Q537 -7 486 28T413 126Q390 64 339 29T221 -7Q148 -7 102 32T56 132Q56 186 85 218T179 265T355 280H393L396
314Q397 323 397 338Q397 393 371 418T288 444Q201 444 119 391L99 439Q135 465 187 481T290 497Q414 497 446 408Q476 451 521 474T623 497Q712 497 763 443T815 283Q815 261 812 235H451ZM554 447T510 404T455 280H759Q762 362 726 404T626 447Q554 447 510 404ZM293
46T337 91T388 208L390 235H358Q260 235 209 225T139 194T120 136Q120 95 149 71T228 46Q293 46 337 91Z" />
<glyph unicode="&#xe7;" glyph-name="ccedilla" horiz-adv-x="475" d="M205 444T159 386T113 225Q113 142 154 95T272 47Q311 47 343 60T414 105L434 58Q404 28 361 11T270 -7L263 -43Q277 -41 285 -41Q318 -41 338 -58T358 -108Q358 -146 329 -168T245 -191Q224
-191 200 -187T158 -172L172 -134Q210 -148 246 -148Q275 -148 291 -139T307 -110Q307 -96 298 -89T272 -81Q253 -81 225 -91L207 -76L221 -3Q141 11 95 72T49 227Q49 308 78 369T161 463T289 497Q341 497 386 480T463 433L436 385Q398 416 364 430T288 444Q205
444 159 386Z" />
<glyph unicode="&#xe8;" glyph-name="egrave" horiz-adv-x="526" d="M112 235V225Q112 141 154 94T275 47Q370 47 438 105L458 58Q428 28 377 11T273 -7Q169 -7 109 56T49 227Q49 307 78 368T161 463T287 497Q378 497 430 443T483 284Q483 261 480 235H112ZM216
447T172 404T116 280H427Q430 362 393 404T290 447Q216 447 172 404ZM277 550L165 751H237L323 550H277Z" />
<glyph unicode="&#xe9;" glyph-name="eacute" horiz-adv-x="526" d="M112 235V225Q112 141 154 94T275 47Q370 47 438 105L458 58Q428 28 377 11T273 -7Q169 -7 109 56T49 227Q49 307 78 368T161 463T287 497Q378 497 430 443T483 284Q483 261 480 235H112ZM216
447T172 404T116 280H427Q430 362 393 404T290 447Q216 447 172 404ZM323 550H277L391 751H472L323 550Z" />
<glyph unicode="&#xea;" glyph-name="ecircumflex" horiz-adv-x="526" d="M112 235V225Q112 141 154 94T275 47Q370 47 438 105L458 58Q428 28 377 11T273 -7Q169 -7 109 56T49 227Q49 307 78 368T161 463T287 497Q378 497 430 443T483 284Q483 261 480 235H112ZM216
447T172 404T116 280H427Q430 362 393 404T290 447Q216 447 172 404ZM226 550H162L292 751H340L438 550H377L313 701L226 550Z" />
<glyph unicode="&#xeb;" glyph-name="edieresis" horiz-adv-x="526" d="M112 235V225Q112 141 154 94T275 47Q370 47 438 105L458 58Q428 28 377 11T273 -7Q169 -7 109 56T49 227Q49 307 78 368T161 463T287 497Q378 497 430 443T483 284Q483 261 480 235H112ZM216
447T172 404T116 280H427Q430 362 393 404T290 447Q216 447 172 404ZM191 688H266L260 615H185L191 688ZM357 688H432L426 615H351L357 688Z" />
<glyph unicode="&#xec;" glyph-name="igrave" horiz-adv-x="222" d="M61 0L99 485H160L122 0H61ZM112 550L0 751H72L158 550H112Z" />
<glyph unicode="&#xed;" glyph-name="iacute" horiz-adv-x="222" d="M61 0L99 485H160L122 0H61ZM158 550H112L226 751H307L158 550Z" />
<glyph unicode="&#xee;" glyph-name="icircumflex" horiz-adv-x="222" d="M61 0L99 485H160L122 0H61ZM61 550H-3L127 751H175L273 550H212L148 701L61 550Z" />
<glyph unicode="&#xef;" glyph-name="idieresis" horiz-adv-x="222" d="M61 0L99 485H160L122 0H61ZM26 688H101L95 615H20L26 688ZM192 688H267L261 615H186L192 688Z" />
<glyph unicode="&#xf0;" glyph-name="eth" horiz-adv-x="549" d="M418 586Q505 484 505 322Q505 156 440 75T264 -7Q165 -7 106 51T47 208Q47 281 75 337T156 424T276 455Q337 455 381 430T447 363Q439 484 364 565L202 504L190 548L327 599Q269 643 193 666L212
711Q314 681 384 621L516 670L528 627L418 586ZM344 47T388 99T433 245Q433 318 392 359T277 401Q199 401 155 349T111 206Q111 129 151 88T267 47Q344 47 388 99Z" />
<glyph unicode="&#xf1;" glyph-name="ntilde" horiz-adv-x="561" d="M402 497T445 456T488 334Q488 316 487 307L463 0H402L426 303Q427 311 427 326Q427 443 311 443Q237 443 194 400T144 281L122 0H61L99 485H159L153 406Q178 449 221 473T321 497Q402 497 445
456ZM153 652T177 679T242 706Q263 706 281 698T325 673Q346 660 358 654T383 648Q406 648 419 663T435 703H474Q471 652 446 625T382 598Q361 598 343 606T299 631Q280 643 267 649T242 656Q219 656 206 641T190 601H151Q153 652 177 679Z" />
<glyph unicode="&#xf2;" glyph-name="ograve" horiz-adv-x="545" d="M201 -7T152 22T76 104T49 227Q49 308 77 369T158 463T279 497Q345 497 394 468T470 386T497 262Q497 182 469 121T388 27T266 -7Q201 -7 152 22ZM346 47T390 105T434 265Q434 350 393 397T279
444Q201 444 157 386T113 224Q113 138 153 93T269 47Q346 47 390 105ZM274 550L162 751H234L320 550H274Z" />
<glyph unicode="&#xf3;" glyph-name="oacute" horiz-adv-x="545" d="M201 -7T152 22T76 104T49 227Q49 308 77 369T158 463T279 497Q345 497 394 468T470 386T497 262Q497 182 469 121T388 27T266 -7Q201 -7 152 22ZM346 47T390 105T434 265Q434 350 393 397T279
444Q201 444 157 386T113 224Q113 138 153 93T269 47Q346 47 390 105ZM320 550H274L388 751H469L320 550Z" />
<glyph unicode="&#xf4;" glyph-name="ocircumflex" horiz-adv-x="545" d="M201 -7T152 22T76 104T49 227Q49 308 77 369T158 463T279 497Q345 497 394 468T470 386T497 262Q497 182 469 121T388 27T266 -7Q201 -7 152 22ZM346 47T390 105T434 265Q434 350 393
397T279 444Q201 444 157 386T113 224Q113 138 153 93T269 47Q346 47 390 105ZM223 550H159L289 751H337L435 550H374L310 701L223 550Z" />
<glyph unicode="&#xf5;" glyph-name="otilde" horiz-adv-x="545" d="M201 -7T152 22T76 104T49 227Q49 308 77 369T158 463T279 497Q345 497 394 468T470 386T497 262Q497 182 469 121T388 27T266 -7Q201 -7 152 22ZM346 47T390 105T434 265Q434 350 393 397T279
444Q201 444 157 386T113 224Q113 138 153 93T269 47Q346 47 390 105ZM146 652T170 679T235 706Q256 706 274 698T318 673Q339 660 351 654T376 648Q399 648 412 663T428 703H467Q464 652 439 625T375 598Q354 598 336 606T292 631Q273 643 260 649T235 656Q212
656 199 641T183 601H144Q146 652 170 679Z" />
<glyph unicode="&#xf6;" glyph-name="odieresis" horiz-adv-x="545" d="M201 -7T152 22T76 104T49 227Q49 308 77 369T158 463T279 497Q345 497 394 468T470 386T497 262Q497 182 469 121T388 27T266 -7Q201 -7 152 22ZM346 47T390 105T434 265Q434 350 393 397T279
444Q201 444 157 386T113 224Q113 138 153 93T269 47Q346 47 390 105ZM188 688H263L257 615H182L188 688ZM354 688H429L423 615H348L354 688Z" />
<glyph unicode="&#xf7;" glyph-name="divide" horiz-adv-x="600" d="M267 440L274 529H360L353 440H267ZM549 309L545 258H57L61 309H549ZM235 39L242 128H328L321 39H235Z" />
<glyph unicode="&#xf8;" glyph-name="oslash" horiz-adv-x="545" d="M462 410T479 365T497 262Q497 182 469 121T388 27T266 -7Q202 -7 154 21L113 -41L73 -16L116 49Q83 80 66 125T49 227Q49 308 77 369T158 463T279 497Q342 497 392 469L433 531L474 507L430
441Q462 410 479 365ZM112 143T148 98L362 423Q327 444 279 444Q201 444 157 385T112 224Q112 143 148 98ZM346 47T390 105T434 265Q434 343 398 392L184 67Q219 47 269 47Q346 47 390 105Z" />
<glyph unicode="&#xf9;" glyph-name="ugrave" horiz-adv-x="553" d="M492 485L453 0H394L400 85Q375 41 333 17T237 -7Q157 -7 115 34T72 157Q72 174 73 183L97 485H158L134 188Q133 180 133 164Q133 47 246 47Q317 47 360 90T409 210L431 485H492ZM277 550L165
751H237L323 550H277Z" />
<glyph unicode="&#xfa;" glyph-name="uacute" horiz-adv-x="553" d="M492 485L453 0H394L400 85Q375 41 333 17T237 -7Q157 -7 115 34T72 157Q72 174 73 183L97 485H158L134 188Q133 180 133 164Q133 47 246 47Q317 47 360 90T409 210L431 485H492ZM323 550H277L391
751H472L323 550Z" />
<glyph unicode="&#xfb;" glyph-name="ucircumflex" horiz-adv-x="553" d="M492 485L453 0H394L400 85Q375 41 333 17T237 -7Q157 -7 115 34T72 157Q72 174 73 183L97 485H158L134 188Q133 180 133 164Q133 47 246 47Q317 47 360 90T409 210L431 485H492ZM226 550H162L292
751H340L438 550H377L313 701L226 550Z" />
<glyph unicode="&#xfc;" glyph-name="udieresis" horiz-adv-x="553" d="M492 485L453 0H394L400 85Q375 41 333 17T237 -7Q157 -7 115 34T72 157Q72 174 73 183L97 485H158L134 188Q133 180 133 164Q133 47 246 47Q317 47 360 90T409 210L431 485H492ZM191 688H266L260
615H185L191 688ZM357 688H432L426 615H351L357 688Z" />
<glyph unicode="&#xfd;" glyph-name="yacute" horiz-adv-x="509" d="M448 485H512L174 -180H112L204 1L35 485H98L240 62L448 485ZM302 550H256L370 751H451L302 550Z" />
<glyph unicode="&#xfe;" glyph-name="thorn" horiz-adv-x="573" d="M379 497T426 468T499 386T525 262Q525 182 497 121T417 27T298 -7Q239 -7 195 19T130 93L108 -180H47L117 705H178L154 408Q178 450 222 473T318 497Q379 497 426 468ZM373 47T417 105T462 264Q462
349 421 396T306 444Q229 444 185 386T140 225Q140 138 180 93T296 47Q373 47 417 105Z" />
<glyph unicode="&#xff;" glyph-name="ydieresis" horiz-adv-x="509" d="M448 485H512L174 -180H112L204 1L35 485H98L240 62L448 485ZM170 688H245L239 615H164L170 688ZM336 688H411L405 615H330L336 688Z" />
<glyph unicode="&#x2013;" glyph-name="endash" horiz-adv-x="500" d="M0 244L3 287H503L500 244H0Z" />
<glyph unicode="&#x2014;" glyph-name="emdash" horiz-adv-x="1000" d="M0 244L3 287H1003L1000 244H0Z" />
<glyph unicode="&#x2018;" glyph-name="quoteleft" horiz-adv-x="220" d="M164 664T154 645T141 604H181L174 518H89L94 582Q97 620 111 651T157 710L186 685Q164 664 154 645Z" />
<glyph unicode="&#x2019;" glyph-name="quoteright" horiz-adv-x="220" d="M189 705L184 642Q181 604 167 573T122 513L92 538Q114 560 124 579T137 619H97L104 705H189Z" />
<glyph unicode="&#x201a;" glyph-name="quotesinglbase" horiz-adv-x="220" d="M140 86L135 20Q132 -18 118 -48T73 -106L43 -81Q82 -42 89 0H49L55 86H140Z" />
<glyph unicode="&#x201c;" glyph-name="quotedblleft" horiz-adv-x="374" d="M164 664T154 645T141 604H181L174 518H89L94 582Q97 620 111 651T157 710L186 685Q164 664 154 645ZM318 664T308 645T295 604H335L328 518H243L248 582Q251 620 265 651T311 710L340
685Q318 664 308 645Z" />
<glyph unicode="&#x201d;" glyph-name="quotedblright" horiz-adv-x="374" d="M189 705L184 642Q181 604 167 573T122 513L92 538Q114 560 124 579T137 619H97L104 705H189ZM343 705L338 642Q335 604 321 573T276 513L246 538Q268 560 278 579T291 619H251L258 705H343Z" />
<glyph unicode="&#x201e;" glyph-name="quotedblbase" horiz-adv-x="374" d="M140 86L135 20Q132 -18 118 -48T73 -106L43 -81Q82 -42 89 0H49L55 86H140ZM294 86L289 20Q286 -18 272 -48T227 -106L197 -81Q236 -42 243 0H203L209 86H294Z" />
<glyph unicode="&#x2022;" glyph-name="bullet" horiz-adv-x="524" d="M215 88T173 111T107 175T82 265Q82 311 105 352T170 418T263 443Q311 443 352 420T419 356T444 265Q444 217 420 177T354 112T263 88Q215 88 173 111Z" />
<glyph unicode="&#x2039;" glyph-name="guilsinglleft" horiz-adv-x="247" d="M142 90L61 249L63 281L169 440L215 422L122 265L188 107L142 90Z" />
<glyph unicode="&#x203a;" glyph-name="guilsinglright" horiz-adv-x="247" d="M81 90L35 108L130 265L62 423L109 440L190 281L188 249L81 90Z" />
</font>
</defs>
</svg>
