<?xml version="1.0" standalone="no"?>
<!DOCTYPE svg PUBLIC "-//W3C//DTD SVG 1.1//EN" "http://www.w3.org/Graphics/SVG/1.1/DTD/svg11.dtd">
<svg xmlns="http://www.w3.org/2000/svg">
<defs >
<font id="Prompt" horiz-adv-x="598" ><font-face
    font-family="Prompt Medium"
    units-per-em="1000"
    panose-1="0 0 6 0 0 0 0 0 0 0"
    ascent="1090"
    descent="-422"
    alphabetic="0" />
<glyph unicode=" " glyph-name="space" horiz-adv-x="360" />
<glyph unicode="!" glyph-name="exclam" horiz-adv-x="222" d="M149 699H270L166 209H45L149 699ZM31 -15T15 0T-1 40Q-1 75 25 100T87 125Q113 125 129 110T145 71Q145 36 118 11T57 -15Q31 -15 15 0Z" />
<glyph unicode="&quot;" glyph-name="quotedbl" horiz-adv-x="349" d="M138 699H233L192 506H97L138 699ZM312 699H407L366 506H271L312 699Z" />
<glyph unicode="#" glyph-name="numbersign" horiz-adv-x="771" d="M118 161H24L43 254H164L249 426H122L142 519H295L384 699H494L405 519H596L685 699H796L707 519H791L771 426H661L576 254H692L673 161H530L451 0H340L419 161H228L149 0H39L118 161ZM465 254L550
426H359L274 254H465Z" />
<glyph unicode="$" glyph-name="dollar" horiz-adv-x="567" d="M179 -14Q124 -12 75 -1T-5 27L18 136Q99 93 201 88L248 312L247 313Q177 344 140 385T102 483Q102 504 106 521Q122 594 183 644T332 709L352 802H460L441 712Q522 706 584 675L561 569Q492 606
419 610L372 390Q447 355 483 317T520 223Q520 206 515 181Q498 102 442 53T288 -9L268 -103H160L179 -14ZM308 596Q275 583 257 558T238 497Q238 479 247 465T275 438L308 596ZM365 126T378 182Q381 194 381 204Q381 239 346 263L312 103Q365 126 378 182Z" />
<glyph unicode="%" glyph-name="percent" horiz-adv-x="891" d="M186 347T145 387T104 491Q104 511 108 530Q119 581 151 623T229 689T330 714Q396 714 437 673T479 569Q479 547 475 530Q464 479 432 438T352 372T252 347Q186 347 145 387ZM679 699H802L267 0H144L679
699ZM301 436T328 452T371 494T387 551Q387 583 367 602T310 621Q281 621 255 605T212 563T196 504Q196 473 215 455T271 436Q301 436 328 452ZM547 -15T506 25T465 129Q465 149 469 168Q480 219 512 261T590 327T691 352Q757 352 798 311T840 207Q840 185 836
168Q825 117 793 76T713 10T613 -15Q547 -15 506 25ZM662 74T689 90T732 132T748 189Q748 221 728 240T671 259Q642 259 616 243T573 201T557 142Q557 111 576 93T632 74Q662 74 689 90Z" />
<glyph unicode="&amp;" glyph-name="ampersand" horiz-adv-x="782" d="M140 -15T81 24T22 134Q22 152 27 175Q41 242 87 288T225 383Q194 418 178 449T162 516Q162 533 166 549Q182 623 243 668T397 714Q469 714 513 677T558 581Q558 571 554 549Q542 492 505
451T391 366L528 205Q548 230 562 269T588 362H691Q675 284 653 232T590 131L702 0H554L501 60Q398 -15 238 -15Q140 -15 81 24ZM395 460T423 491T452 567Q452 595 434 611T379 627Q339 627 310 603T272 541Q271 536 271 526Q271 503 284 482T328 424Q395 460 423
491ZM311 69T359 85T444 129L291 315Q225 287 190 253T145 175Q142 162 142 150Q142 110 173 90T257 69Q311 69 359 85Z" />
<glyph unicode="&apos;" glyph-name="quotesingle" horiz-adv-x="175" d="M138 699H233L192 506H97L138 699Z" />
<glyph unicode="(" glyph-name="parenleft" horiz-adv-x="340" d="M29 -54T29 110Q29 186 47 270Q103 531 291 714H421Q228 519 175 270Q158 187 158 115Q158 -41 233 -174H103Q29 -54 29 110Z" />
<glyph unicode=")" glyph-name="parenright" horiz-adv-x="340" d="M126 21T179 270Q196 353 196 425Q196 581 121 714H251Q325 594 325 431Q325 354 307 270Q251 9 63 -174H-66Q126 21 179 270Z" />
<glyph unicode="*" glyph-name="asterisk" horiz-adv-x="441" d="M119 420L220 528L110 570L154 635L253 596L275 699H362L340 596L456 636L471 567L343 526L399 418L327 374L276 475L183 373L119 420Z" />
<glyph unicode="+" glyph-name="plus" horiz-adv-x="412" d="M157 249H42L64 350H179L203 465H304L280 350H396L374 249H258L234 133H133L157 249Z" />
<glyph unicode="," glyph-name="comma" horiz-adv-x="293" d="M83 56H214L73 -148H-42L83 56Z" />
<glyph unicode="-" glyph-name="hyphen" horiz-adv-x="412" d="M64 350H396L374 249H42L64 350Z" />
<glyph unicode="." glyph-name="period" horiz-adv-x="182" d="M23 0T11 11T-1 40Q-1 65 18 83T62 102Q80 102 91 91T103 61Q103 37 84 19T41 0Q23 0 11 11Z" />
<glyph unicode="/" glyph-name="slash" horiz-adv-x="488" d="M426 714H549L113 0H-10L426 714Z" />
<glyph unicode="0" glyph-name="zero" horiz-adv-x="682" d="M177 -15T115 52T52 238Q52 289 64 349Q100 521 198 617T442 714Q551 714 614 646T678 458Q678 408 666 349Q630 178 531 82T287 -15Q177 -15 115 52ZM395 99T454 165T538 348Q551 410 551 452Q551
598 419 598Q336 598 276 531T191 348Q179 291 179 244Q179 99 312 99Q395 99 454 165Z" />
<glyph unicode="1" glyph-name="one" horiz-adv-x="374" d="M258 565L87 458L112 576L306 699H412L264 0H138L258 565Z" />
<glyph unicode="2" glyph-name="two" horiz-adv-x="585" d="M7 82L172 209Q243 262 251 268Q316 317 350 345T410 407T444 480Q448 499 448 517Q448 557 423 577T345 598Q293 598 237 581T132 531L158 652Q259 714 385 714Q477 714 528 668T580 544Q580 519 574
490Q563 441 535 399T464 318T348 221L199 105H517L495 0H-10L7 82Z" />
<glyph unicode="3" glyph-name="three" horiz-adv-x="580" d="M143 -15T88 -5T-5 25L15 122Q101 79 208 79Q293 79 342 109T403 197Q406 212 406 226Q406 268 369 286T256 305H169L190 403H274Q344 403 390 429T449 510Q452 525 452 538Q452 620 333 620Q277 620
229 607T126 564L147 662Q248 714 370 714Q469 714 525 671T582 555Q582 534 578 515Q567 463 531 421T435 355Q484 340 509 307T534 228Q534 208 530 191Q510 95 431 40T205 -15Q143 -15 88 -5Z" />
<glyph unicode="4" glyph-name="four" horiz-adv-x="609" d="M339 166H5L21 241L455 699H579L486 261H594L574 166H466L431 0H304L339 166ZM377 261L439 552L164 261H377Z" />
<glyph unicode="5" glyph-name="five" horiz-adv-x="577" d="M131 -15T80 -3T-4 30L19 137Q55 111 105 97T203 82Q376 82 405 219Q409 238 409 258Q409 306 376 330T272 355Q237 355 197 348T123 329L77 359L176 699H586L564 594H269L222 434Q279 446 346 446Q437
446 488 399T539 273Q539 248 533 219Q508 103 425 44T187 -15Q131 -15 80 -3Z" />
<glyph unicode="6" glyph-name="six" horiz-adv-x="619" d="M160 -15T101 42T41 204Q41 247 51 291Q80 426 140 521T288 665T480 714Q541 714 585 700L564 598Q528 616 469 616Q371 616 302 558T198 388Q238 423 289 439T398 456Q481 456 532 410T583 282Q583
256 577 226Q553 118 471 52T259 -15Q160 -15 101 42ZM343 78T390 117T450 220Q455 247 455 264Q455 311 427 337T340 363Q280 363 231 323T169 220Q165 203 165 183Q165 136 193 107T279 78Q343 78 390 117Z" />
<glyph unicode="7" glyph-name="seven" horiz-adv-x="545" d="M461 594H106L128 699H613L594 611L189 0H66L461 594Z" />
<glyph unicode="8" glyph-name="eight" horiz-adv-x="612" d="M150 -15T88 28T26 149Q26 167 31 194Q45 259 86 303T186 364Q154 381 137 411T120 479Q120 500 124 519Q143 610 218 662T407 714Q499 714 555 673T612 559Q612 538 608 519Q597 467 563 427T480
364Q521 350 544 318T568 238Q568 221 563 194Q541 92 461 39T252 -15Q150 -15 88 28ZM397 400T437 429T488 509Q491 526 491 539Q491 578 465 599T387 621Q329 621 291 591T241 509Q238 496 238 483Q238 444 265 422T341 400Q397 400 437 429ZM342 76T384 109T439
202Q442 217 442 231Q442 276 411 300T325 325Q262 325 216 292T157 202Q153 185 153 166Q153 76 272 76Q342 76 384 109Z" />
<glyph unicode="9" glyph-name="nine" horiz-adv-x="619" d="M126 -15T81 -1L103 101Q138 83 197 83Q295 83 364 141T469 311Q390 243 273 243Q191 243 138 291T84 420Q84 445 90 473Q113 582 192 648T407 714Q469 714 518 688T596 612T624 491Q624 453 615 408Q586
273 526 178T378 34T186 -15Q126 -15 81 -1ZM387 336T435 376T497 479Q501 496 501 517Q501 564 473 592T387 621Q319 621 275 583T216 479Q211 452 211 435Q211 388 239 362T327 336Q387 336 435 376Z" />
<glyph unicode=":" glyph-name="colon" horiz-adv-x="212" d="M107 356T93 371T78 409Q78 440 103 464T159 488Q182 488 197 473T213 436Q213 405 188 381T131 356Q107 356 93 371ZM36 16T21 31T5 68Q5 99 30 123T87 148Q110 148 125 133T141 96Q141 65 116 41T59
16Q36 16 21 31Z" />
<glyph unicode=";" glyph-name="semicolon" horiz-adv-x="293" d="M182 356T168 371T153 409Q153 440 178 464T234 488Q257 488 272 473T288 436Q288 405 263 381T206 356Q182 356 168 371ZM83 56H214L73 -148H-42L83 56Z" />
<glyph unicode="&lt;" glyph-name="less" horiz-adv-x="543" d="M49 280L68 369L579 596L553 466L212 319L490 172L464 52L49 280Z" />
<glyph unicode="=" glyph-name="equal" horiz-adv-x="534" d="M96 502H550L529 403H75L96 502ZM49 282H503L482 183H28L49 282Z" />
<glyph unicode="&gt;" glyph-name="greater" horiz-adv-x="543" d="M27 182L367 329L90 476L116 596L531 369L512 280L1 52L27 182Z" />
<glyph unicode="?" glyph-name="question" horiz-adv-x="520" d="M158 232Q171 291 201 331T289 407L319 425Q367 454 388 473T417 524Q420 536 420 547Q420 578 394 594T308 611Q260 611 208 600T111 570L133 675Q176 692 228 703T330 714Q429 714 487 675T545
564Q545 543 541 524Q533 487 514 461T471 415T397 364Q347 331 329 317T298 283T279 231L274 209H153L158 232ZM138 -15T122 0T106 40Q106 75 132 100T194 125Q220 125 236 110T252 71Q252 36 225 11T164 -15Q138 -15 122 0Z" />
<glyph unicode="@" glyph-name="at" horiz-adv-x="911" d="M226 -76T133 -5T40 197Q40 240 50 284Q77 411 151 508T336 659T583 714Q735 714 821 645T908 452Q908 414 899 370Q873 250 815 180T659 109Q623 109 598 126T563 176Q533 143 492 126T403 109Q341 109
300 143T259 241Q259 259 264 286Q279 354 317 408T414 493T543 524Q585 524 626 515T696 489L636 265Q632 252 632 238Q632 216 643 205T674 193Q717 193 745 238T791 370Q801 420 801 452Q801 538 744 578T563 619Q462 619 378 580T237 465T158 284Q149 242 149
206Q149 17 404 17Q505 17 595 45L576 -45Q487 -76 384 -76Q226 -76 133 -5ZM476 196T505 220T544 280L584 427Q562 438 523 438Q471 438 429 398T374 295Q369 268 369 254Q369 224 384 210T432 196Q476 196 505 220Z" />
<glyph unicode="A" glyph-name="A" horiz-adv-x="762" d="M418 699H541L672 0H547L517 161H221L124 0H-10L418 699ZM504 266L454 563L278 266H504Z" />
<glyph unicode="B" glyph-name="B" horiz-adv-x="658" d="M158 699H482Q561 699 609 659T657 550Q657 528 653 511Q644 462 612 423T535 362Q575 345 595 316T615 245Q615 228 610 201Q592 107 524 54T359 0H10L158 699ZM408 408Q456 408 484 430T523 503Q527
520 527 538Q527 573 506 586T443 599H263L222 408H408ZM351 100Q404 100 437 122T482 200Q486 216 486 233Q486 272 462 289T388 306H201L157 100H351Z" />
<glyph unicode="C" glyph-name="C" horiz-adv-x="704" d="M272 -15T203 20T95 119T56 269Q56 305 66 355Q89 466 151 546T307 670T515 714Q661 714 743 645L717 524Q646 598 502 598Q425 598 361 568T252 481T192 349Q184 314 184 276Q184 192 237 146T396 100Q470
100 531 118T651 178L626 57Q530 -15 360 -15Q272 -15 203 20Z" />
<glyph unicode="D" glyph-name="D" horiz-adv-x="706" d="M158 699H392Q487 699 556 666T661 571T698 428Q698 389 691 353Q657 178 541 89T243 0H10L158 699ZM257 105Q384 105 461 170T563 353Q572 394 572 428Q572 507 524 550T374 594H263L159 105H257Z" />
<glyph unicode="E" glyph-name="E" horiz-adv-x="563" d="M158 699H631L609 594H263L222 402H479L457 297H200L159 105H505L483 0H10L158 699Z" />
<glyph unicode="F" glyph-name="F" horiz-adv-x="553" d="M158 699H631L609 593H263L221 397H478L458 302H201L137 0H10L158 699Z" />
<glyph unicode="G" glyph-name="G" horiz-adv-x="713" d="M270 -15T201 18T93 114T54 262Q54 305 64 349Q88 461 153 543T312 670T515 714Q658 714 742 647L716 526Q678 563 627 580T502 598Q384 598 300 531T192 349Q183 309 183 272Q183 189 234 144T390 99Q465
99 522 125L555 282H437L459 383H704L635 57Q575 20 508 3T360 -15Q270 -15 201 18Z" />
<glyph unicode="H" glyph-name="H" horiz-adv-x="709" d="M158 699H285L223 409H559L621 699H747L599 0H473L537 304H201L137 0H10L158 699Z" />
<glyph unicode="I" glyph-name="I" horiz-adv-x="247" d="M158 699H285L137 0H10L158 699Z" />
<glyph unicode="J" glyph-name="J" horiz-adv-x="386" d="M48 -15T17 -10T-30 4L-7 110Q7 103 28 100T71 96Q123 96 150 117T189 189L297 699H424L314 182Q293 84 236 35T78 -15Q48 -15 17 -10Z" />
<glyph unicode="K" glyph-name="K" horiz-adv-x="686" d="M158 699H285L218 383L572 699H724L341 352L593 0H444L207 331L137 0H10L158 699Z" />
<glyph unicode="L" glyph-name="L" horiz-adv-x="543" d="M158 699H285L159 105H495L473 0H10L158 699Z" />
<glyph unicode="M" glyph-name="M" horiz-adv-x="836" d="M158 699H277L402 187L745 699H874L726 0H606L702 454L398 0H338L226 454L130 0H10L158 699Z" />
<glyph unicode="N" glyph-name="N" horiz-adv-x="694" d="M158 699H278L502 212L605 699H732L584 0H464L240 488L137 0H10L158 699Z" />
<glyph unicode="O" glyph-name="O" horiz-adv-x="821" d="M267 -15T199 19T92 116T54 263Q54 299 64 349Q87 457 151 540T309 668T512 714Q600 714 668 680T775 581T814 432Q814 393 805 349Q782 241 719 159T562 31T357 -15Q267 -15 199 19ZM449 100T510 130T616
217T677 349Q686 391 686 426Q686 509 637 553T488 598Q420 598 358 567T252 480T192 349Q183 306 183 269Q183 100 382 100Q449 100 510 130Z" />
<glyph unicode="P" glyph-name="P" horiz-adv-x="614" d="M158 699H438Q533 699 591 650T649 520Q649 492 644 471Q620 360 542 303T341 246H189L137 0H10L158 699ZM348 351Q491 351 517 471Q522 496 522 512Q522 557 492 575T400 594H263L211 351H348Z" />
<glyph unicode="Q" glyph-name="Q" horiz-adv-x="814" d="M279 0T207 34T95 129T56 274Q56 316 64 352Q86 461 149 542T306 669T512 714Q602 714 670 681T777 585T815 438Q815 402 805 352Q789 280 744 215T639 111H767L744 0H377Q279 0 207 34ZM496 115T574 177T677
352Q686 391 686 426Q686 508 636 553T488 598Q418 598 356 568T251 483T192 352Q184 310 184 279Q184 115 385 115Q496 115 574 177Z" />
<glyph unicode="R" glyph-name="R" horiz-adv-x="634" d="M158 699H450Q548 699 600 658T652 538Q652 508 645 477Q628 400 579 346T454 269L540 0H410L329 256H191L137 0H10L158 699ZM355 361Q425 361 465 389T518 477Q523 500 523 515Q523 558 495 576T411 594H263L213
361H355Z" />
<glyph unicode="S" glyph-name="S" horiz-adv-x="567" d="M146 -15T88 -4T-5 27L18 136Q108 88 221 88Q290 88 329 113T378 182Q381 194 381 205Q381 238 353 258T247 313Q177 344 140 385T102 483Q102 504 106 521Q118 578 158 622T260 690T394 714Q454 714 499
705T584 675L561 569Q483 611 394 611Q330 611 291 588T241 521Q238 509 238 498Q238 475 251 459T289 430T368 392Q445 357 482 319T520 224Q520 208 515 181Q495 87 419 36T208 -15Q146 -15 88 -4Z" />
<glyph unicode="T" glyph-name="T" horiz-adv-x="589" d="M307 594H96L118 699H667L645 594H434L308 0H181L307 594Z" />
<glyph unicode="U" glyph-name="U" horiz-adv-x="707" d="M223 -15T168 13T84 91T55 205Q55 240 62 272L153 699H280L189 270Q182 239 182 212Q182 154 217 127T325 100Q403 100 458 143T532 270L623 699H750L659 272Q598 -15 300 -15Q223 -15 168 13Z" />
<glyph unicode="V" glyph-name="V" horiz-adv-x="762" d="M138 699H269L363 170L682 699H820L393 0H270L138 699Z" />
<glyph unicode="W" glyph-name="W" horiz-adv-x="994" d="M138 699H270L304 205L546 699H644L676 205L920 699H1052L705 0H590L553 486L310 0H189L138 699Z" />
<glyph unicode="X" glyph-name="X" horiz-adv-x="742" d="M323 353L144 699H285L414 449L650 699H795L466 350L648 0H507L375 254L135 0H-10L323 353Z" />
<glyph unicode="Y" glyph-name="Y" horiz-adv-x="714" d="M300 266L138 699H268L382 388L633 699H772L421 266L365 0H244L300 266Z" />
<glyph unicode="Z" glyph-name="Z" horiz-adv-x="619" d="M7 83L482 594H125L147 699H659L641 616L168 105H551L529 0H-10L7 83Z" />
<glyph unicode="[" glyph-name="bracketleft" horiz-adv-x="319" d="M157 787H406L383 682H261L118 9H240L218 -96H-31L157 787Z" />
<glyph unicode="\" glyph-name="backslash" horiz-adv-x="488" d="M141 714H264L398 0H275L141 714Z" />
<glyph unicode="]" glyph-name="bracketright" horiz-adv-x="319" d="M-19 9H103L246 682H124L147 787H396L208 -96H-41L-19 9Z" />
<glyph unicode="^" glyph-name="asciicircum" horiz-adv-x="564" d="M334 719H434L556 387H439L363 601L197 387H72L334 719Z" />
<glyph unicode="_" glyph-name="underscore" horiz-adv-x="488" d="M-10 0H398L374 -111H-34L-10 0Z" />
<glyph unicode="`" glyph-name="grave" horiz-adv-x="282" d="M147 743H280L312 569H196L147 743Z" />
<glyph unicode="a" glyph-name="a" horiz-adv-x="660" d="M179 -15T133 8T60 76T33 179Q33 210 40 239Q56 314 100 372T208 463T348 495Q465 495 521 433L531 480H657L555 0H433L444 56Q405 19 355 2T239 -15Q179 -15 133 8ZM345 84T393 113T469 191L490 288Q485
338 451 367T358 396Q287 396 235 353T168 239Q163 211 163 193Q163 84 291 84Q345 84 393 113Z" />
<glyph unicode="b" glyph-name="b" horiz-adv-x="665" d="M257 -15T217 1T143 56L132 0H10L167 739H293L228 433Q267 464 319 479T427 495Q487 495 533 471T606 403T632 300Q632 268 625 239Q601 122 519 54T318 -15Q257 -15 217 1ZM376 84T429 127T497 239Q502
266 502 285Q502 337 470 366T375 396Q321 396 272 367T197 288L176 191Q183 142 218 113T308 84Q376 84 429 127Z" />
<glyph unicode="c" glyph-name="c" horiz-adv-x="548" d="M199 -15T147 9T64 77T34 183Q34 209 40 239Q66 361 155 428T378 495Q490 495 547 451L526 350Q498 373 458 384T370 396Q293 396 239 358T168 239Q163 218 163 192Q163 136 198 110T301 84Q402 84 486
132L464 32Q384 -15 267 -15Q199 -15 147 9Z" />
<glyph unicode="d" glyph-name="d" horiz-adv-x="665" d="M179 -15T133 9T60 77T34 180Q34 208 40 239Q56 315 99 373T207 463T348 495Q406 495 448 480T521 433L586 739H712L555 0H433L444 56Q398 18 350 2T239 -15Q179 -15 133 9ZM345 84T393 113T469 191L490
288Q485 337 449 366T358 396Q287 396 235 353T168 239Q163 214 163 197Q163 144 195 114T291 84Q345 84 393 113Z" />
<glyph unicode="e" glyph-name="e" horiz-adv-x="609" d="M165 -15T99 36T33 180Q33 202 40 239Q66 358 147 426T361 495Q464 495 520 442T577 304Q577 278 571 249L559 191H150L149 177Q149 128 188 106T313 84Q359 84 409 92T498 114L477 17Q440 3 385 -6T276
-15Q165 -15 99 36ZM458 277Q461 294 461 308Q461 352 431 374T338 396Q272 396 227 364T168 277H458Z" />
<glyph unicode="f" glyph-name="f" horiz-adv-x="364" d="M122 384H51L72 480H143L160 563Q178 652 238 698T388 744Q436 744 469 730L447 628Q423 640 391 640Q346 640 320 620T284 554L269 480H386L365 384H248L167 0H41L122 384Z" />
<glyph unicode="g" glyph-name="g" horiz-adv-x="665" d="M170 -230T122 -221T46 -197L67 -97Q138 -131 236 -131Q325 -131 371 -95T432 16L438 47Q398 16 348 1T243 -15Q183 -15 136 9T62 79T35 183Q35 211 41 241Q65 358 147 426T348 495Q408 495 450 478T523
424L535 480H657L561 29Q534 -101 453 -165T219 -230Q170 -230 122 -221ZM345 84T394 113T469 192L490 289Q483 339 449 367T358 396Q285 396 235 354T169 241Q164 220 164 194Q164 141 196 113T291 84Q345 84 394 113Z" />
<glyph unicode="h" glyph-name="h" horiz-adv-x="610" d="M167 739H293L225 419Q308 495 417 495Q494 495 534 454T574 348Q574 328 569 303L505 0H379L442 302Q446 321 446 338Q446 368 429 382T372 396Q328 396 282 376T202 314L136 0H10L167 739Z" />
<glyph unicode="i" glyph-name="i" horiz-adv-x="263" d="M174 564T158 579T142 619Q142 654 169 679T230 705Q256 705 272 690T289 650Q289 615 262 590T200 564Q174 564 158 579ZM119 480H247L145 0H17L119 480Z" />
<glyph unicode="j" glyph-name="j" horiz-adv-x="257" d="M169 564T153 579T137 619Q137 653 164 678T225 704Q250 704 266 689T283 649Q283 615 256 590T195 564Q169 564 153 579ZM-143 -231T-176 -218L-154 -116Q-130 -128 -95 -128Q-54 -128 -30 -108T3 -43L115
480H241L127 -56Q108 -145 51 -188T-95 -231Q-143 -231 -176 -218Z" />
<glyph unicode="k" glyph-name="k" horiz-adv-x="589" d="M167 739H293L193 269L429 480H577L313 241L499 0H351L183 222L136 0H10L167 739Z" />
<glyph unicode="l" glyph-name="l" horiz-adv-x="246" d="M167 739H293L136 0H10L167 739Z" />
<glyph unicode="m" glyph-name="m" horiz-adv-x="872" d="M112 480H230L216 417Q257 455 304 475T395 495Q450 495 480 476T520 421Q560 457 609 476T704 495Q774 495 807 463T840 373Q840 348 834 318L767 0H646L709 301Q714 328 714 342Q714 371 699 383T649
396Q579 396 525 341Q522 318 516 289L455 0H333L397 303Q402 331 402 346Q402 373 389 384T343 396Q308 396 271 377T199 319L132 0H10L112 480Z" />
<glyph unicode="n" glyph-name="n" horiz-adv-x="610" d="M112 480H234L220 415Q262 453 314 474T417 495Q494 495 534 455T574 350Q574 330 569 303L505 0H379L440 291Q445 316 445 331Q445 364 426 380T365 396Q322 396 280 376T202 314L136 0H10L112 480Z" />
<glyph unicode="o" glyph-name="o" horiz-adv-x="642" d="M162 -15T98 37T34 181Q34 203 41 240Q65 358 153 426T376 495Q482 495 545 442T609 296Q609 270 603 240Q577 120 489 53T267 -15Q162 -15 98 37ZM357 84T407 127T473 240Q479 267 479 291Q479 396 355
396Q285 396 236 355T171 240Q165 213 165 191Q165 140 195 112T288 84Q357 84 407 127Z" />
<glyph unicode="p" glyph-name="p" horiz-adv-x="665" d="M112 480H234L221 422Q268 459 318 477T427 495Q520 495 576 443T633 302Q633 278 626 241Q601 125 520 55T318 -15Q263 -15 218 0T145 47L89 -219H-37L112 480ZM376 84T429 128T498 241Q502 260 502 282Q502
336 470 366T375 396Q321 396 273 367T197 289L176 192Q181 143 217 114T308 84Q376 84 429 128Z" />
<glyph unicode="q" glyph-name="q" horiz-adv-x="665" d="M438 47Q399 16 347 1T239 -15Q180 -15 134 9T61 79T34 182Q34 204 41 241Q57 317 100 374T208 463T348 495Q407 495 449 477T522 422L535 480H657L508 -219H382L438 47ZM345 84T394 113T469 192L490 289Q483
338 448 367T358 396Q283 396 234 354T169 241Q164 214 164 196Q164 143 196 114T291 84Q345 84 394 113Z" />
<glyph unicode="r" glyph-name="r" horiz-adv-x="407" d="M112 480H234L217 403Q254 442 312 461T439 480L418 384Q345 384 287 362T197 291L136 0H10L112 480Z" />
<glyph unicode="s" glyph-name="s" horiz-adv-x="499" d="M141 -15T85 -3T0 30L23 137Q57 113 107 99T206 84Q254 84 278 92T307 124Q308 128 308 134Q308 155 285 167T196 198Q127 218 94 246T61 320Q61 334 64 350Q79 422 144 458T306 495Q354 495 401 485T475
459L453 356Q426 373 385 384T301 396Q252 396 225 387T192 350Q191 347 191 341Q191 327 203 318T244 299T306 281Q378 261 408 232T438 159Q438 144 435 126Q422 58 366 22T193 -15Q141 -15 85 -3Z" />
<glyph unicode="t" glyph-name="t" horiz-adv-x="388" d="M136 -15T102 16T68 104Q68 126 74 153L123 384H51L72 480H144L174 624H300L270 480H385L364 384H249L203 169Q198 142 198 130Q198 105 212 95T260 84Q295 84 328 98L308 2Q262 -15 199 -15Q136 -15 102 16Z" />
<glyph unicode="u" glyph-name="u" horiz-adv-x="610" d="M117 -15T77 23T37 128Q37 156 42 177L107 480H233L171 189Q166 162 166 147Q166 114 185 99T246 84Q289 84 331 104T409 166L476 480H602L500 0H378L391 65Q349 24 298 5T194 -15Q117 -15 77 23Z" />
<glyph unicode="v" glyph-name="v" horiz-adv-x="594" d="M92 480H215L274 148L475 480H606L306 0H188L92 480Z" />
<glyph unicode="w" glyph-name="w" horiz-adv-x="830" d="M92 480H218L246 155L412 480H522L548 155L716 480H842L583 0H470L437 326L266 0H147L92 480Z" />
<glyph unicode="x" glyph-name="x" horiz-adv-x="630" d="M248 249L106 480H242L333 331L488 480H628L385 246L536 0H401L300 164L129 0H-10L248 249Z" />
<glyph unicode="y" glyph-name="y" horiz-adv-x="600" d="M115 -230T67 -221T-9 -197L12 -97Q83 -131 181 -131Q268 -131 311 -96T377 16L394 78Q311 -2 197 -2Q120 -2 80 36T40 141Q40 169 45 190L107 480H233L174 202Q169 175 169 160Q169 127 188 112T249 97Q292
97 334 117T412 179L476 480H602L506 29Q478 -101 398 -165T164 -230Q115 -230 67 -221Z" />
<glyph unicode="z" glyph-name="z" horiz-adv-x="501" d="M6 79L326 384H78L99 480H505L488 401L169 96H431L411 0H-10L6 79Z" />
<glyph unicode="{" glyph-name="braceleft" horiz-adv-x="344" d="M52 -97T52 -30Q52 -12 56 5L101 219Q104 233 104 243Q104 290 54 290H31L55 401H78Q139 401 155 471L200 685Q211 736 240 761T312 787H421L398 681H362Q341 681 331 672T316 639L276 444Q258
361 186 338V336Q234 321 234 265Q234 247 230 230L191 51Q189 37 189 33Q189 20 196 15T219 9H255L233 -97H124Q52 -97 52 -30Z" />
<glyph unicode="|" glyph-name="bar" horiz-adv-x="207" d="M162 812H289L86 -144H-41L162 812Z" />
<glyph unicode="}" glyph-name="braceright" horiz-adv-x="344" d="M-9 9H27Q48 9 58 18T73 51L114 245Q133 332 204 351V353Q156 371 156 424Q156 442 160 459L198 639Q201 650 201 657Q201 681 170 681H134L157 787H266Q338 787 338 720Q338 702 334 685L289
471Q286 458 286 447Q286 401 336 401H359L335 290H312Q251 290 235 219L190 5Q179 -46 150 -71T78 -97H-31L-9 9Z" />
<glyph unicode="~" glyph-name="asciitilde" horiz-adv-x="541" d="M365 263T339 271T279 294Q240 309 219 316T171 323Q101 323 46 264L70 377Q90 401 122 414T193 427Q221 427 246 419T309 396Q344 381 367 374T416 367Q486 367 541 426L517 313Q496 289 464
276T393 263Q365 263 339 271Z" />
<glyph unicode="&#xa0;" glyph-name="uni00A0" horiz-adv-x="360" />
<glyph unicode="&#xa1;" glyph-name="exclamdown" horiz-adv-x="222" d="M122 410T106 425T90 464Q90 498 116 524T177 550Q202 550 218 534T235 494Q235 485 234 480Q227 450 202 430T148 410Q122 410 106 425ZM69 321H190L86 -169H-35L69 321Z" />
<glyph unicode="&#xa2;" glyph-name="cent" horiz-adv-x="548" d="M216 -11Q133 1 84 52T34 183Q34 209 40 239Q63 348 136 413T323 491L342 581H450L431 492Q503 485 547 451L526 350Q483 386 410 394L345 86Q421 95 486 132L464 32Q405 -3 324 -12L305 -101H197L216
-11ZM301 387Q250 373 216 336T168 239Q163 217 163 191Q163 113 238 91L301 387Z" />
<glyph unicode="&#xa3;" glyph-name="sterling" horiz-adv-x="492" d="M12 105H90L136 320H63L85 425H158L179 523Q198 615 265 664T428 714Q476 714 509 700L488 598Q462 610 431 610Q324 610 304 514L285 425H449L427 320H263L217 105H424L402 0H-10L12 105Z" />
<glyph unicode="&#xa4;" glyph-name="currency" d="M13 112L112 175Q99 201 99 236Q99 258 103 275Q115 331 154 376L84 439L151 505L224 435Q283 473 349 473Q415 473 458 435L561 505L600 439L502 376Q515 349 515 314Q515 292 511 275Q498 218 460 175L531
112L463 45L389 114Q329 77 265 77Q200 77 157 114L53 45L13 112ZM318 170T348 188T396 237T414 301Q414 337 392 359T329 381Q296 381 267 363T219 315T200 250Q200 214 222 192T285 170Q318 170 348 188Z" />
<glyph unicode="&#xa5;" glyph-name="yen" horiz-adv-x="714" d="M264 95H127L145 179H281L295 243H158L176 326H277L138 699H268L382 388L633 699H772L469 326H571L553 243H416L402 179H540L522 95H385L365 0H244L264 95Z" />
<glyph unicode="&#xa6;" glyph-name="brokenbar" horiz-adv-x="207" d="M162 812H289L206 423H79L162 812ZM42 245H169L86 -144H-41L42 245Z" />
<glyph unicode="&#xa7;" glyph-name="section" horiz-adv-x="567" d="M113 -170T55 -159T-38 -128L-15 -19Q30 -43 82 -55T188 -67Q258 -67 297 -43T345 27Q348 39 348 49Q348 71 334 87T295 117T215 156Q139 191 104 230T68 323Q68 341 73 366Q82 408 109 441Q102
459 102 482Q102 504 106 521Q118 578 158 622T260 690T394 714Q454 714 499 705T584 675L561 569Q483 611 394 611Q329 611 290 587T241 518Q239 508 239 503Q239 473 269 449T368 391Q451 351 486 317T521 229Q521 208 515 181Q506 141 481 106Q486 86 486 65Q486
45 482 26Q440 -170 175 -170Q113 -170 55 -159ZM411 178T414 192Q416 206 416 211Q416 241 390 261T297 312Q262 328 232 347T190 382Q180 363 178 350Q176 340 176 335Q176 306 203 284T289 234Q336 212 363 196T404 161Q411 178 414 192Z" />
<glyph unicode="&#xa8;" glyph-name="dieresis" horiz-adv-x="450" d="M155 578T140 593T125 631Q125 663 151 687T208 711Q231 711 246 696T261 658Q261 626 236 602T179 578Q155 578 140 593ZM392 578T377 593T362 631Q362 663 388 687T445 711Q468 711 483
696T498 658Q498 626 473 602T416 578Q392 578 377 593Z" />
<glyph unicode="&#xa9;" glyph-name="copyright" horiz-adv-x="817" d="M267 -15T199 21T93 123T55 271Q55 309 64 349Q87 457 152 540T310 668T510 714Q598 714 666 680T772 582T810 434Q810 394 801 349Q778 242 714 159T556 31T355 -15Q267 -15 199 21ZM451
91T515 121T626 210T689 349Q698 393 698 430Q698 516 647 561T488 607Q414 607 350 576T240 487T177 349Q168 307 168 271Q168 184 221 138T378 91Q451 91 515 121ZM333 129T293 149T228 207T204 297Q204 326 209 348Q231 452 302 510T478 568Q575 568 625 530L606
439Q583 459 548 468T472 478Q343 478 314 348Q309 327 309 302Q309 259 334 239T415 219Q502 219 574 261L555 170Q484 129 383 129Q333 129 293 149Z" />
<glyph unicode="&#xaa;" glyph-name="ordfeminine" horiz-adv-x="425" d="M153 349T120 375T86 444Q86 456 89 469Q101 526 145 558T257 591Q323 591 363 564L366 574Q368 582 368 595Q368 620 349 631T285 643Q217 643 163 620L178 691Q202 701 240 707T311 714Q385
714 422 686T459 605Q459 586 455 569L411 360H326L333 393Q279 349 204 349Q153 349 120 375ZM270 415T297 426T341 459L349 497Q317 525 265 525Q193 525 181 469Q179 459 179 454Q179 434 193 425T240 415Q270 415 297 426Z" />
<glyph unicode="&#xab;" glyph-name="guillemotleft" horiz-adv-x="628" d="M55 308L62 340L343 546L389 461L189 318L328 176L248 103L55 308ZM303 308L310 340L591 546L637 461L437 318L576 176L496 103L303 308Z" />
<glyph unicode="&#xac;" glyph-name="logicalnot" horiz-adv-x="446" d="M283 254H43L64 350H430L384 132H258L283 254Z" />
<glyph unicode="&#xad;" glyph-name="uni00AD" horiz-adv-x="412" d="M64 350H396L374 249H42L64 350Z" />
<glyph unicode="&#xae;" glyph-name="registered" horiz-adv-x="817" d="M267 -15T199 21T93 123T55 271Q55 309 64 349Q87 457 152 540T310 668T510 714Q598 714 666 680T772 582T810 434Q810 394 801 349Q778 242 714 159T556 31T355 -15Q267 -15 199 21ZM451
91T515 121T626 210T689 349Q698 393 698 430Q698 516 647 561T488 607Q414 607 350 576T240 487T177 349Q168 307 168 271Q168 184 221 138T378 91Q451 91 515 121ZM328 557H497Q557 557 591 532T625 458Q625 444 622 427Q612 382 580 351T499 308L546 146H448L401
302H371L338 146H241L328 557ZM454 376Q491 376 510 388T535 427Q537 441 537 445Q537 465 523 473T477 482H409L386 376H454Z" />
<glyph unicode="&#xaf;" glyph-name="overscore" horiz-adv-x="403" d="M134 678H457L439 594H116L134 678Z" />
<glyph unicode="&#xb0;" glyph-name="degree" horiz-adv-x="368" d="M178 439T144 473T110 556Q110 570 113 583Q126 644 175 685T288 727Q337 727 370 694T404 612Q404 598 401 583Q389 523 340 481T227 439Q178 439 144 473ZM271 516T294 536T323 583Q325 595
325 600Q325 622 312 635T271 649Q240 649 215 624T189 567Q189 544 202 530T243 516Q271 516 294 536Z" />
<glyph unicode="&#xb1;" glyph-name="plusminus" horiz-adv-x="412" d="M162 269H47L68 370H183L208 485H309L284 370H400L379 269H263L238 153H137L162 269ZM11 101H343L322 0H-10L11 101Z" />
<glyph unicode="&#xb2;" glyph-name="uni00B2" horiz-adv-x="342" d="M81 429L158 484Q231 535 256 557T281 606Q281 631 243 631Q219 631 186 622T131 599L148 680Q169 692 203 700T265 709Q320 709 348 685T377 623Q377 608 375 601Q367 566 346 545T270 484L211
442H345L330 370H68L81 429Z" />
<glyph unicode="&#xb3;" glyph-name="uni00B3" horiz-adv-x="347" d="M111 360T70 379L85 450Q104 440 132 435T184 429Q215 429 234 437T258 466Q259 469 259 474Q259 488 245 495T200 502H151L166 570H214Q271 570 278 603Q281 620 267 629T223 639Q177 639
127 613L142 684Q194 709 266 709Q321 709 350 686T379 627Q379 597 362 574T311 536Q356 523 356 480Q356 466 354 459Q344 413 301 387T189 360Q111 360 70 379Z" />
<glyph unicode="&#xb4;" glyph-name="acute" horiz-adv-x="282" d="M217 743H349L226 569H110L217 743Z" />
<glyph unicode="&#xb6;" glyph-name="paragraph" horiz-adv-x="758" d="M346 261H287Q195 261 143 308T91 442Q91 475 98 509Q124 631 210 696T416 762H829L639 -134H512L680 657H557L389 -134H262L346 261Z" />
<glyph unicode="&#xb7;" glyph-name="middot" horiz-adv-x="182" d="M75 245T63 257T51 286Q51 310 70 328T114 347Q132 347 143 336T155 307Q155 283 136 264T93 245Q75 245 63 257Z" />
<glyph unicode="&#xb8;" glyph-name="cedilla" horiz-adv-x="315" d="M1 -248T-23 -245T-60 -236L-45 -167Q-35 -172 -20 -175T10 -179Q69 -179 78 -138Q79 -135 79 -128Q79 -85 -10 -85L42 0H155L123 -52Q158 -59 176 -79T195 -129Q195 -185 149 -216T28 -248Q1
-248 -23 -245Z" />
<glyph unicode="&#xb9;" glyph-name="uni00B9" horiz-adv-x="236" d="M200 605L106 546L124 632L229 699H314L244 370H150L200 605Z" />
<glyph unicode="&#xba;" glyph-name="ordmasculine" horiz-adv-x="483" d="M188 348T143 385T97 488Q97 506 102 531Q120 616 183 665T343 714Q419 714 464 676T510 573Q510 556 505 531Q487 444 424 396T265 348Q188 348 143 385ZM329 421T364 451T410 531Q414
548 414 568Q414 641 328 641Q278 641 243 612T197 531Q193 507 193 497Q193 421 281 421Q329 421 364 451Z" />
<glyph unicode="&#xbb;" glyph-name="guillemotright" horiz-adv-x="628" d="M28 188L227 330L89 473L169 546L362 340L355 308L74 103L28 188ZM276 188L475 330L337 473L417 546L610 340L603 308L322 103L276 188Z" />
<glyph unicode="&#xbc;" glyph-name="onequarter" horiz-adv-x="733" d="M586 699H715L180 0H51L586 699ZM200 605L106 546L124 632L229 699H314L244 370H150L200 605ZM517 68H363L377 132L565 329H666L625 136H671L657 68H611L597 0H503L517 68ZM545 136L568
241L465 136H545Z" />
<glyph unicode="&#xbd;" glyph-name="onehalf" horiz-adv-x="749" d="M586 699H715L180 0H51L586 699ZM200 605L106 546L124 632L229 699H314L244 370H150L200 605ZM409 59L487 114Q560 165 585 187T610 235Q610 261 571 261Q547 261 514 252T459 229L476 310Q498
322 532 330T594 339Q648 339 677 315T706 252Q706 245 704 231Q699 207 687 189T657 157T599 114L540 72H674L659 0H397L409 59Z" />
<glyph unicode="&#xbe;" glyph-name="threequarters" horiz-adv-x="745" d="M111 360T70 379L85 450Q104 440 132 435T184 429Q215 429 234 437T258 466Q259 469 259 474Q259 488 245 495T200 502H151L166 570H214Q271 570 278 603Q281 620 267 629T223 639Q177
639 127 613L142 684Q194 709 266 709Q318 709 349 687T380 629Q380 623 378 613Q367 560 311 536Q356 523 356 480Q356 466 354 459Q344 413 301 387T189 360Q111 360 70 379ZM598 699H727L192 0H63L598 699ZM529 68H375L389 132L577 329H678L637 136H683L669
68H623L609 0H515L529 68ZM557 136L580 241L477 136H557Z" />
<glyph unicode="&#xbf;" glyph-name="questiondown" horiz-adv-x="520" d="M313 410T297 425T281 464Q281 499 307 524T368 550Q394 550 410 534T426 494Q426 459 400 435T339 410Q313 410 297 425ZM99 -179T43 -141T-13 -32Q-13 -14 -8 11Q0 48 19 74T62 120T136
171Q185 204 204 218T235 252T254 304L259 326H380L375 303Q362 244 332 204T244 128L214 110Q166 81 145 62T116 11Q113 -3 113 -14Q113 -44 138 -60T224 -76Q272 -76 324 -65T422 -35L400 -140Q357 -157 305 -168T202 -179Q99 -179 43 -141Z" />
<glyph unicode="&#xc0;" glyph-name="Agrave" horiz-adv-x="762" d="M359 916H492L524 742H408L359 916ZM418 699H541L672 0H547L517 161H221L124 0H-10L418 699ZM504 266L454 563L278 266H504Z" />
<glyph unicode="&#xc1;" glyph-name="Aacute" horiz-adv-x="762" d="M523 916H656L533 742H417L523 916ZM418 699H541L672 0H547L517 161H221L124 0H-10L418 699ZM504 266L454 563L278 266H504Z" />
<glyph unicode="&#xc2;" glyph-name="Acircumflex" horiz-adv-x="762" d="M449 913H561L670 742H549L494 841L397 742H266L449 913ZM418 699H541L672 0H547L517 161H221L124 0H-10L418 699ZM504 266L454 563L278 266H504Z" />
<glyph unicode="&#xc3;" glyph-name="Atilde" horiz-adv-x="762" d="M296 845Q338 888 405 888Q427 888 446 882T497 863Q522 851 542 845T584 838Q646 838 694 889L672 786Q633 744 564 744Q539 744 518 750T468 770Q442 782 424 788T385 794Q356 794 329 782T274
742L296 845ZM418 699H541L672 0H547L517 161H221L124 0H-10L418 699ZM504 266L454 563L278 266H504Z" />
<glyph unicode="&#xc4;" glyph-name="Adieresis" horiz-adv-x="762" d="M328 752T313 767T298 805Q298 836 324 860T380 885Q403 885 418 870T433 832Q433 800 408 776T351 752Q328 752 313 767ZM564 752T549 767T534 805Q534 837 560 861T617 885Q640 885 655
870T670 832Q670 800 645 776T588 752Q564 752 549 767ZM418 699H541L672 0H547L517 161H221L124 0H-10L418 699ZM504 266L454 563L278 266H504Z" />
<glyph unicode="&#xc5;" glyph-name="Aring" horiz-adv-x="762" d="M403 675Q386 688 377 707T368 751Q368 765 371 778Q382 831 425 867T522 903Q567 903 595 875T623 805Q623 792 620 778Q613 745 594 719T545 675L672 0H547L517 161H221L124 0H-10L403 675ZM509
727T528 747T548 792Q548 809 538 819T506 829Q482 829 463 810T443 765Q443 748 453 738T484 727Q509 727 528 747ZM504 266L454 563L278 266H504Z" />
<glyph unicode="&#xc6;" glyph-name="AE" horiz-adv-x="924" d="M469 699H982L960 594H649L608 402H830L808 297H586L545 105H856L834 0H396L432 171H241L126 0H-10L469 699ZM452 266L522 594H519L309 266H452Z" />
<glyph unicode="&#xc7;" glyph-name="Ccedilla" horiz-adv-x="704" d="M281 -248T257 -245T219 -236L235 -167Q245 -172 260 -175T290 -179Q349 -179 358 -138Q359 -135 359 -128Q359 -85 270 -85L313 -12Q237 -3 179 34T89 131T57 269Q57 310 66 355Q89 466 151
546T307 670T515 714Q661 714 743 645L717 524Q646 598 502 598Q425 598 361 568T252 481T192 349Q184 314 184 276Q184 192 237 146T396 100Q470 100 531 118T651 178L626 57Q553 1 426 -12L402 -52Q437 -56 456 -76T475 -126Q475 -183 429 -215T308 -248Q281
-248 257 -245Z" />
<glyph unicode="&#xc8;" glyph-name="Egrave" horiz-adv-x="573" d="M278 916H411L443 742H327L278 916ZM158 699H631L609 594H263L222 402H479L457 297H200L159 105H505L483 0H10L158 699Z" />
<glyph unicode="&#xc9;" glyph-name="Eacute" horiz-adv-x="563" d="M412 916H545L422 742H306L412 916ZM158 699H631L609 594H263L222 402H479L457 297H200L159 105H505L483 0H10L158 699Z" />
<glyph unicode="&#xca;" glyph-name="Ecircumflex" horiz-adv-x="573" d="M349 913H461L570 742H449L394 841L297 742H166L349 913ZM158 699H631L609 594H263L222 402H479L457 297H200L159 105H505L483 0H10L158 699Z" />
<glyph unicode="&#xcb;" glyph-name="Edieresis" horiz-adv-x="573" d="M236 752T221 767T206 805Q206 836 232 860T288 885Q311 885 326 870T341 832Q341 800 316 776T259 752Q236 752 221 767ZM472 752T457 767T442 805Q442 837 468 861T525 885Q548 885 563
870T578 832Q578 800 553 776T496 752Q472 752 457 767ZM158 699H631L609 594H263L222 402H479L457 297H200L159 105H505L483 0H10L158 699Z" />
<glyph unicode="&#xcc;" glyph-name="Igrave" horiz-adv-x="253" d="M106 916H239L271 742H155L106 916ZM161 699H288L140 0H13L161 699Z" />
<glyph unicode="&#xcd;" glyph-name="Iacute" horiz-adv-x="253" d="M263 916H396L273 742H157L263 916ZM161 699H288L140 0H13L161 699Z" />
<glyph unicode="&#xce;" glyph-name="Icircumflex" horiz-adv-x="253" d="M194 913H306L415 742H294L239 841L142 742H11L194 913ZM161 699H288L140 0H13L161 699Z" />
<glyph unicode="&#xcf;" glyph-name="Idieresis" horiz-adv-x="253" d="M73 752T58 767T43 805Q43 836 69 860T125 885Q148 885 163 870T178 832Q178 800 153 776T96 752Q73 752 58 767ZM309 752T294 767T279 805Q279 837 305 861T362 885Q385 885 400 870T415
832Q415 800 390 776T333 752Q309 752 294 767ZM161 699H288L140 0H13L161 699Z" />
<glyph unicode="&#xd0;" glyph-name="Eth" horiz-adv-x="725" d="M92 301H33L54 397H113L177 699H411Q506 699 575 666T680 571T717 428Q717 389 710 353Q676 178 560 89T262 0H29L92 301ZM276 105Q403 105 480 170T582 353Q591 394 591 428Q591 507 543 550T393
594H282L240 397H412L391 301H219L178 105H276Z" />
<glyph unicode="&#xd1;" glyph-name="Ntilde" horiz-adv-x="694" d="M269 845Q311 888 378 888Q400 888 419 882T470 863Q495 851 515 845T557 838Q619 838 667 889L645 786Q606 744 537 744Q512 744 491 750T441 770Q415 782 397 788T358 794Q329 794 302 782T247
742L269 845ZM158 699H278L502 212L605 699H732L584 0H464L240 488L137 0H10L158 699Z" />
<glyph unicode="&#xd2;" glyph-name="Ograve" horiz-adv-x="821" d="M400 916H533L565 742H449L400 916ZM267 -15T199 19T92 116T54 263Q54 299 64 349Q87 457 151 540T309 668T512 714Q600 714 668 680T775 581T814 432Q814 393 805 349Q782 241 719 159T562
31T357 -15Q267 -15 199 19ZM449 100T510 130T616 217T677 349Q686 391 686 426Q686 509 637 553T488 598Q420 598 358 567T252 480T192 349Q183 306 183 269Q183 100 382 100Q449 100 510 130Z" />
<glyph unicode="&#xd3;" glyph-name="Oacute" horiz-adv-x="821" d="M545 916H678L555 742H439L545 916ZM267 -15T199 19T92 116T54 263Q54 299 64 349Q87 457 151 540T309 668T512 714Q600 714 668 680T775 581T814 432Q814 393 805 349Q782 241 719 159T562
31T357 -15Q267 -15 199 19ZM449 100T510 130T616 217T677 349Q686 391 686 426Q686 509 637 553T488 598Q420 598 358 567T252 480T192 349Q183 306 183 269Q183 100 382 100Q449 100 510 130Z" />
<glyph unicode="&#xd4;" glyph-name="Ocircumflex" horiz-adv-x="821" d="M478 913H590L699 742H578L523 841L426 742H295L478 913ZM267 -15T199 19T92 116T54 263Q54 299 64 349Q87 457 151 540T309 668T512 714Q600 714 668 680T775 581T814 432Q814 393 805
349Q782 241 719 159T562 31T357 -15Q267 -15 199 19ZM449 100T510 130T616 217T677 349Q686 391 686 426Q686 509 637 553T488 598Q420 598 358 567T252 480T192 349Q183 306 183 269Q183 100 382 100Q449 100 510 130Z" />
<glyph unicode="&#xd5;" glyph-name="Otilde" horiz-adv-x="821" d="M326 845Q368 888 435 888Q457 888 476 882T527 863Q552 851 572 845T614 838Q676 838 724 889L702 786Q663 744 594 744Q569 744 548 750T498 770Q472 782 454 788T415 794Q386 794 359 782T304
742L326 845ZM267 -15T199 19T92 116T54 263Q54 299 64 349Q87 457 151 540T309 668T512 714Q600 714 668 680T775 581T814 432Q814 393 805 349Q782 241 719 159T562 31T357 -15Q267 -15 199 19ZM449 100T510 130T616 217T677 349Q686 391 686 426Q686 509 637
553T488 598Q420 598 358 567T252 480T192 349Q183 306 183 269Q183 100 382 100Q449 100 510 130Z" />
<glyph unicode="&#xd6;" glyph-name="Odieresis" horiz-adv-x="821" d="M357 752T342 767T327 805Q327 836 353 860T409 885Q432 885 447 870T462 832Q462 800 437 776T380 752Q357 752 342 767ZM593 752T578 767T563 805Q563 837 589 861T646 885Q669 885 684
870T699 832Q699 800 674 776T617 752Q593 752 578 767ZM267 -15T199 19T92 116T54 263Q54 299 64 349Q87 457 151 540T309 668T512 714Q600 714 668 680T775 581T814 432Q814 393 805 349Q782 241 719 159T562 31T357 -15Q267 -15 199 19ZM449 100T510 130T616
217T677 349Q686 391 686 426Q686 509 637 553T488 598Q420 598 358 567T252 480T192 349Q183 306 183 269Q183 100 382 100Q449 100 510 130Z" />
<glyph unicode="&#xd7;" glyph-name="multiply" horiz-adv-x="387" d="M193 232L95 152L38 223L136 304L72 386L156 454L219 373L322 458L379 386L276 301L340 220L257 151L193 232Z" />
<glyph unicode="&#xd8;" glyph-name="Oslash" horiz-adv-x="821" d="M177 30Q119 66 87 126T55 263Q55 304 64 349Q87 457 151 540T309 668T512 714Q551 714 593 706L641 784H765L692 665Q750 628 782 569T814 432Q814 393 805 349Q782 241 719 159T563 31T357
-15Q316 -15 278 -7L230 -86H106L177 30ZM525 596Q501 598 488 598Q420 598 358 567T252 480T192 349Q183 306 183 268Q183 177 242 135L525 596ZM449 100T510 130T616 217T677 349Q686 390 686 426Q686 516 628 561L345 101Q356 100 382 100Q449 100 510 130Z"
/>
<glyph unicode="&#xd9;" glyph-name="Ugrave" horiz-adv-x="707" d="M339 916H472L504 742H388L339 916ZM223 -15T168 13T84 91T55 205Q55 240 62 272L153 699H280L189 270Q182 239 182 212Q182 154 217 127T325 100Q403 100 458 143T532 270L623 699H750L659
272Q598 -15 300 -15Q223 -15 168 13Z" />
<glyph unicode="&#xda;" glyph-name="Uacute" horiz-adv-x="707" d="M483 916H616L493 742H377L483 916ZM223 -15T168 13T84 91T55 205Q55 240 62 272L153 699H280L189 270Q182 239 182 212Q182 154 217 127T325 100Q403 100 458 143T532 270L623 699H750L659
272Q598 -15 300 -15Q223 -15 168 13Z" />
<glyph unicode="&#xdb;" glyph-name="Ucircumflex" horiz-adv-x="707" d="M421 913H533L642 742H521L466 841L369 742H238L421 913ZM223 -15T168 13T84 91T55 205Q55 240 62 272L153 699H280L189 270Q182 239 182 212Q182 154 217 127T325 100Q403 100 458 143T532
270L623 699H750L659 272Q598 -15 300 -15Q223 -15 168 13Z" />
<glyph unicode="&#xdc;" glyph-name="Udieresis" horiz-adv-x="707" d="M300 752T285 767T270 805Q270 836 296 860T352 885Q375 885 390 870T405 832Q405 800 380 776T323 752Q300 752 285 767ZM536 752T521 767T506 805Q506 837 532 861T589 885Q612 885 627
870T642 832Q642 800 617 776T560 752Q536 752 521 767ZM223 -15T168 13T84 91T55 205Q55 240 62 272L153 699H280L189 270Q182 239 182 212Q182 154 217 127T325 100Q403 100 458 143T532 270L623 699H750L659 272Q598 -15 300 -15Q223 -15 168 13Z" />
<glyph unicode="&#xdd;" glyph-name="Yacute" horiz-adv-x="726" d="M492 916H625L502 742H386L492 916ZM306 266L144 699H274L388 388L639 699H778L427 266L371 0H250L306 266Z" />
<glyph unicode="&#xde;" glyph-name="Thorn" horiz-adv-x="614" d="M158 699H285L258 570H419Q512 570 567 526T623 401Q623 374 618 351Q595 240 523 187T326 133H165L137 0H10L158 699ZM324 238Q391 238 434 262T491 351Q495 370 495 388Q495 432 467 448T383
465H235L187 238H324Z" />
<glyph unicode="&#xdf;" glyph-name="germandbls" horiz-adv-x="648" d="M241 -15T200 4L225 121Q261 100 330 100Q392 100 427 132T475 220Q478 237 478 249Q478 288 449 306T364 324H307L330 430H375Q470 430 492 528Q495 542 495 554Q495 588 471 607T396 627Q333
627 293 598T239 506L132 0H5L110 498Q135 615 211 679T420 744Q487 744 533 720T602 657T625 569Q625 547 621 528Q611 480 581 440T506 381Q606 350 606 253Q606 229 600 202Q579 101 509 43T326 -15Q241 -15 200 4Z" />
<glyph unicode="&#xe0;" glyph-name="agrave" horiz-adv-x="660" d="M340 709H473L505 535H389L340 709ZM179 -15T133 8T60 76T33 179Q33 210 40 239Q56 314 100 372T208 463T348 495Q465 495 521 433L531 480H657L555 0H433L444 56Q405 19 355 2T239 -15Q179
-15 133 8ZM345 84T393 113T469 191L490 288Q485 338 451 367T358 396Q287 396 235 353T168 239Q163 211 163 193Q163 84 291 84Q345 84 393 113Z" />
<glyph unicode="&#xe1;" glyph-name="aacute" horiz-adv-x="660" d="M465 709H598L475 535H359L465 709ZM179 -15T133 8T60 76T33 179Q33 210 40 239Q56 314 100 372T208 463T348 495Q465 495 521 433L531 480H657L555 0H433L444 56Q405 19 355 2T239 -15Q179
-15 133 8ZM345 84T393 113T469 191L490 288Q485 338 451 367T358 396Q287 396 235 353T168 239Q163 211 163 193Q163 84 291 84Q345 84 393 113Z" />
<glyph unicode="&#xe2;" glyph-name="acircumflex" horiz-adv-x="660" d="M403 706H515L624 535H503L448 634L351 535H220L403 706ZM179 -15T133 8T60 76T33 179Q33 210 40 239Q56 314 100 372T208 463T348 495Q465 495 521 433L531 480H657L555 0H433L444 56Q405
19 355 2T239 -15Q179 -15 133 8ZM345 84T393 113T469 191L490 288Q485 338 451 367T358 396Q287 396 235 353T168 239Q163 211 163 193Q163 84 291 84Q345 84 393 113Z" />
<glyph unicode="&#xe3;" glyph-name="atilde" horiz-adv-x="660" d="M263 636Q305 679 372 679Q394 679 413 673T464 654Q489 642 509 636T551 629Q613 629 661 680L639 577Q600 535 531 535Q506 535 485 541T435 561Q409 573 391 579T352 585Q323 585 296 573T241
533L263 636ZM179 -15T133 8T60 76T33 179Q33 210 40 239Q56 314 100 372T208 463T348 495Q465 495 521 433L531 480H657L555 0H433L444 56Q405 19 355 2T239 -15Q179 -15 133 8ZM345 84T393 113T469 191L490 288Q485 338 451 367T358 396Q287 396 235 353T168
239Q163 211 163 193Q163 84 291 84Q345 84 393 113Z" />
<glyph unicode="&#xe4;" glyph-name="adieresis" horiz-adv-x="660" d="M277 545T262 560T247 598Q247 629 273 653T329 678Q352 678 367 663T382 625Q382 593 357 569T300 545Q277 545 262 560ZM513 545T498 560T483 598Q483 630 509 654T566 678Q589 678 604
663T619 625Q619 593 594 569T537 545Q513 545 498 560ZM179 -15T133 8T60 76T33 179Q33 210 40 239Q56 314 100 372T208 463T348 495Q465 495 521 433L531 480H657L555 0H433L444 56Q405 19 355 2T239 -15Q179 -15 133 8ZM345 84T393 113T469 191L490 288Q485
338 451 367T358 396Q287 396 235 353T168 239Q163 211 163 193Q163 84 291 84Q345 84 393 113Z" />
<glyph unicode="&#xe5;" glyph-name="aring" horiz-adv-x="660" d="M385 535T357 562T329 632Q329 646 332 659Q343 712 386 748T483 784Q528 784 556 756T584 686Q584 673 581 659Q570 606 528 571T430 535Q385 535 357 562ZM470 608T489 628T509 673Q509 690
499 700T467 710Q443 710 424 691T404 646Q404 629 414 619T445 608Q470 608 489 628ZM179 -15T133 8T60 76T33 179Q33 210 40 239Q56 314 100 372T208 463T348 495Q465 495 521 433L531 480H657L555 0H433L444 56Q405 19 355 2T239 -15Q179 -15 133 8ZM345 84T393
113T469 191L490 288Q485 338 451 367T358 396Q287 396 235 353T168 239Q163 211 163 193Q163 84 291 84Q345 84 393 113Z" />
<glyph unicode="&#xe6;" glyph-name="ae" horiz-adv-x="969" d="M112 -15T65 20T18 117Q18 137 22 153Q39 233 100 278T256 323Q347 323 405 286L408 299Q412 321 412 329Q412 364 385 380T296 396Q252 396 207 388T126 364L147 463Q180 477 232 486T332 495Q397
495 439 477T504 425Q545 458 601 476T721 495Q827 495 882 445T938 310Q938 278 931 249L919 191H512Q507 135 545 110T673 84Q719 84 769 92T858 114L837 17Q800 3 745 -6T636 -15Q502 -15 434 62Q385 25 328 5T190 -15Q112 -15 65 20ZM818 277Q821 294 821 307Q821
396 698 396Q633 396 589 364T530 277H818ZM274 77T311 92T373 136L385 192Q339 231 268 231Q166 231 150 153Q147 140 147 130Q147 103 167 90T233 77Q274 77 311 92Z" />
<glyph unicode="&#xe7;" glyph-name="ccedilla" horiz-adv-x="548" d="M178 -248T154 -245T116 -236L132 -167Q142 -172 157 -175T187 -179Q246 -179 255 -138Q256 -135 256 -128Q256 -85 167 -85L211 -10Q130 3 82 53T34 182Q34 209 40 239Q66 361 155 428T378
495Q490 495 547 451L526 350Q498 373 458 384T370 396Q293 396 239 358T168 239Q163 218 163 192Q163 136 198 110T301 84Q402 84 486 132L464 32Q406 -3 323 -12L299 -52Q334 -56 353 -76T372 -126Q372 -183 326 -215T205 -248Q178 -248 154 -245Z" />
<glyph unicode="&#xe8;" glyph-name="egrave" horiz-adv-x="609" d="M255 709H388L420 535H304L255 709ZM165 -15T99 36T33 180Q33 202 40 239Q66 358 147 426T361 495Q464 495 520 442T577 304Q577 278 571 249L559 191H150L149 177Q149 128 188 106T313 84Q359
84 409 92T498 114L477 17Q440 3 385 -6T276 -15Q165 -15 99 36ZM458 277Q461 294 461 308Q461 352 431 374T338 396Q272 396 227 364T168 277H458Z" />
<glyph unicode="&#xe9;" glyph-name="eacute" horiz-adv-x="609" d="M387 709H520L397 535H281L387 709ZM165 -15T99 36T33 180Q33 202 40 239Q66 358 147 426T361 495Q464 495 520 442T577 304Q577 278 571 249L559 191H150L149 177Q149 128 188 106T313 84Q359
84 409 92T498 114L477 17Q440 3 385 -6T276 -15Q165 -15 99 36ZM458 277Q461 294 461 308Q461 352 431 374T338 396Q272 396 227 364T168 277H458Z" />
<glyph unicode="&#xea;" glyph-name="ecircumflex" horiz-adv-x="609" d="M337 706H449L558 535H437L382 634L285 535H154L337 706ZM165 -15T99 36T33 180Q33 202 40 239Q66 358 147 426T361 495Q464 495 520 442T577 304Q577 278 571 249L559 191H150L149 177Q149
128 188 106T313 84Q359 84 409 92T498 114L477 17Q440 3 385 -6T276 -15Q165 -15 99 36ZM458 277Q461 294 461 308Q461 352 431 374T338 396Q272 396 227 364T168 277H458Z" />
<glyph unicode="&#xeb;" glyph-name="edieresis" horiz-adv-x="609" d="M213 545T198 560T183 598Q183 629 209 653T265 678Q288 678 303 663T318 625Q318 593 293 569T236 545Q213 545 198 560ZM449 545T434 560T419 598Q419 630 445 654T502 678Q525 678 540
663T555 625Q555 593 530 569T473 545Q449 545 434 560ZM165 -15T99 36T33 180Q33 202 40 239Q66 358 147 426T361 495Q464 495 520 442T577 304Q577 278 571 249L559 191H150L149 177Q149 128 188 106T313 84Q359 84 409 92T498 114L477 17Q440 3 385 -6T276 -15Q165
-15 99 36ZM458 277Q461 294 461 308Q461 352 431 374T338 396Q272 396 227 364T168 277H458Z" />
<glyph unicode="&#xec;" glyph-name="igrave" horiz-adv-x="248" d="M61 709H194L226 535H110L61 709ZM112 480H240L138 0H10L112 480Z" />
<glyph unicode="&#xed;" glyph-name="iacute" horiz-adv-x="248" d="M214 709H347L224 535H108L214 709ZM112 480H240L138 0H10L112 480Z" />
<glyph unicode="&#xee;" glyph-name="icircumflex" horiz-adv-x="248" d="M148 706H260L369 535H248L193 634L96 535H-35L148 706ZM112 480H240L138 0H10L112 480Z" />
<glyph unicode="&#xef;" glyph-name="idieresis" horiz-adv-x="248" d="M27 545T12 560T-3 598Q-3 629 23 653T79 678Q102 678 117 663T132 625Q132 593 107 569T50 545Q27 545 12 560ZM263 545T248 560T233 598Q233 630 259 654T316 678Q339 678 354 663T369
625Q369 593 344 569T287 545Q263 545 248 560ZM112 480H240L138 0H10L112 480Z" />
<glyph unicode="&#xf0;" glyph-name="eth" horiz-adv-x="634" d="M147 -15T89 35T30 169Q30 194 36 221Q60 332 136 392T344 453Q392 453 433 437T498 391Q506 436 506 471Q506 513 494 544L341 477L358 558L449 598Q416 616 372 616Q343 616 305 611T245 597L267
699Q291 705 329 709T393 714Q507 714 564 648L693 705L676 624L597 589Q615 543 615 474Q615 409 597 322Q561 155 472 70T248 -15Q147 -15 89 35ZM333 82T378 121T436 218Q440 240 440 250Q440 297 410 325T331 354Q261 354 218 318T161 218Q157 202 157 185Q157
137 188 110T273 82Q333 82 378 121Z" />
<glyph unicode="&#xf1;" glyph-name="ntilde" horiz-adv-x="610" d="M166 638Q208 681 275 681Q297 681 316 675T367 656Q392 644 412 638T454 631Q516 631 564 682L542 579Q503 537 434 537Q409 537 388 543T338 563Q312 575 294 581T255 587Q226 587 199 575T144
535L166 638ZM112 480H234L220 415Q262 453 314 474T417 495Q494 495 534 455T574 350Q574 330 569 303L505 0H379L440 291Q445 316 445 331Q445 364 426 380T365 396Q322 396 280 376T202 314L136 0H10L112 480Z" />
<glyph unicode="&#xf2;" glyph-name="ograve" horiz-adv-x="642" d="M274 709H407L439 535H323L274 709ZM162 -15T98 37T34 181Q34 203 41 240Q65 358 153 426T376 495Q482 495 545 442T609 296Q609 270 603 240Q577 120 489 53T267 -15Q162 -15 98 37ZM357 84T407
127T473 240Q479 267 479 291Q479 396 355 396Q285 396 236 355T171 240Q165 213 165 191Q165 140 195 112T288 84Q357 84 407 127Z" />
<glyph unicode="&#xf3;" glyph-name="oacute" horiz-adv-x="642" d="M410 709H543L420 535H304L410 709ZM162 -15T98 37T34 181Q34 203 41 240Q65 358 153 426T376 495Q482 495 545 442T609 296Q609 270 603 240Q577 120 489 53T267 -15Q162 -15 98 37ZM357 84T407
127T473 240Q479 267 479 291Q479 396 355 396Q285 396 236 355T171 240Q165 213 165 191Q165 140 195 112T288 84Q357 84 407 127Z" />
<glyph unicode="&#xf4;" glyph-name="ocircumflex" horiz-adv-x="678" d="M381 706H493L602 535H481L426 634L329 535H198L381 706ZM198 -15T134 37T70 181Q70 203 77 240Q101 358 189 426T412 495Q518 495 581 442T645 296Q645 270 639 240Q613 120 525 53T303
-15Q198 -15 134 37ZM393 84T443 127T509 240Q515 267 515 291Q515 396 391 396Q321 396 272 355T207 240Q201 213 201 191Q201 140 231 112T324 84Q393 84 443 127Z" />
<glyph unicode="&#xf5;" glyph-name="otilde" horiz-adv-x="670" d="M223 651Q265 694 332 694Q354 694 373 688T424 669Q449 657 469 651T511 644Q573 644 621 695L599 592Q560 550 491 550Q466 550 445 556T395 576Q369 588 351 594T312 600Q283 600 256 588T201
548L223 651ZM190 -15T126 37T62 181Q62 203 69 240Q93 358 181 426T404 495Q510 495 573 442T637 296Q637 270 631 240Q605 120 517 53T295 -15Q190 -15 126 37ZM385 84T435 127T501 240Q507 267 507 291Q507 396 383 396Q313 396 264 355T199 240Q193 213 193
191Q193 140 223 112T316 84Q385 84 435 127Z" />
<glyph unicode="&#xf6;" glyph-name="odieresis" horiz-adv-x="660" d="M242 545T227 560T212 598Q212 629 238 653T294 678Q317 678 332 663T347 625Q347 593 322 569T265 545Q242 545 227 560ZM478 545T463 560T448 598Q448 630 474 654T531 678Q554 678 569
663T584 625Q584 593 559 569T502 545Q478 545 463 560ZM180 -15T116 37T52 181Q52 203 59 240Q83 358 171 426T394 495Q500 495 563 442T627 296Q627 270 621 240Q595 120 507 53T285 -15Q180 -15 116 37ZM375 84T425 127T491 240Q497 267 497 291Q497 396 373
396Q303 396 254 355T189 240Q183 213 183 191Q183 140 213 112T306 84Q375 84 425 127Z" />
<glyph unicode="&#xf7;" glyph-name="divide" horiz-adv-x="412" d="M217 383T205 395T192 426Q192 434 193 438Q197 462 217 478T261 495Q281 495 293 483T306 450Q306 442 305 438Q300 415 280 399T237 383Q217 383 205 395ZM64 350H396L374 249H42L64 350ZM158
104T145 116T132 148Q132 175 153 195T201 216Q221 216 233 204T246 172Q246 145 226 125T178 104Q158 104 145 116Z" />
<glyph unicode="&#xf8;" glyph-name="oslash" horiz-adv-x="642" d="M121 20Q80 45 57 86T34 180Q34 211 41 240Q65 358 153 426T376 495Q388 495 412 493L457 566H581L516 461Q561 436 585 394T609 296Q609 270 603 240Q577 120 489 53T267 -15Q245 -15 225 -12L180
-86H56L121 20ZM352 396Q283 395 235 354T171 240Q165 215 165 191Q165 151 185 123L352 396ZM356 84T407 127T473 240Q479 267 479 290Q479 337 455 362L284 84Q356 84 407 127Z" />
<glyph unicode="&#xf9;" glyph-name="ugrave" horiz-adv-x="610" d="M247 709H380L412 535H296L247 709ZM117 -15T77 23T37 128Q37 156 42 177L107 480H233L171 189Q166 162 166 147Q166 114 185 99T246 84Q289 84 331 104T409 166L476 480H602L500 0H378L391
65Q349 24 298 5T194 -15Q117 -15 77 23Z" />
<glyph unicode="&#xfa;" glyph-name="uacute" horiz-adv-x="610" d="M386 709H519L396 535H280L386 709ZM117 -15T77 23T37 128Q37 156 42 177L107 480H233L171 189Q166 162 166 147Q166 114 185 99T246 84Q289 84 331 104T409 166L476 480H602L500 0H378L391
65Q349 24 298 5T194 -15Q117 -15 77 23Z" />
<glyph unicode="&#xfb;" glyph-name="ucircumflex" horiz-adv-x="610" d="M321 706H433L542 535H421L366 634L269 535H138L321 706ZM117 -15T77 23T37 128Q37 156 42 177L107 480H233L171 189Q166 162 166 147Q166 114 185 99T246 84Q289 84 331 104T409 166L476
480H602L500 0H378L391 65Q349 24 298 5T194 -15Q117 -15 77 23Z" />
<glyph unicode="&#xfc;" glyph-name="udieresis" horiz-adv-x="610" d="M202 545T187 560T172 598Q172 629 198 653T254 678Q277 678 292 663T307 625Q307 593 282 569T225 545Q202 545 187 560ZM438 545T423 560T408 598Q408 630 434 654T491 678Q514 678 529
663T544 625Q544 593 519 569T462 545Q438 545 423 560ZM117 -15T77 23T37 128Q37 156 42 177L107 480H233L171 189Q166 162 166 147Q166 114 185 99T246 84Q289 84 331 104T409 166L476 480H602L500 0H378L391 65Q349 24 298 5T194 -15Q117 -15 77 23Z" />
<glyph unicode="&#xfd;" glyph-name="yacute" horiz-adv-x="600" d="M394 709H527L404 535H288L394 709ZM115 -230T67 -221T-9 -197L12 -97Q83 -131 181 -131Q268 -131 311 -96T377 16L394 78Q311 -2 197 -2Q120 -2 80 36T40 141Q40 169 45 190L107 480H233L174
202Q169 175 169 160Q169 127 188 112T249 97Q292 97 334 117T412 179L476 480H602L506 29Q478 -101 398 -165T164 -230Q115 -230 67 -221Z" />
<glyph unicode="&#xfe;" glyph-name="thorn" horiz-adv-x="665" d="M158 699H284L228 433Q267 464 319 479T427 495Q519 495 575 443T632 301Q632 273 626 241Q601 125 519 55T318 -15Q263 -15 218 0T145 47L89 -219H-37L158 699ZM376 84T429 128T498 241Q503
269 503 288Q503 396 375 396Q321 396 273 367T197 289L176 192Q181 143 217 114T308 84Q376 84 429 128Z" />
<glyph unicode="&#xff;" glyph-name="ydieresis" horiz-adv-x="600" d="M218 545T203 560T188 598Q188 629 214 653T270 678Q293 678 308 663T323 625Q323 593 298 569T241 545Q218 545 203 560ZM454 545T439 560T424 598Q424 630 450 654T507 678Q530 678 545
663T560 625Q560 593 535 569T478 545Q454 545 439 560ZM115 -230T67 -221T-9 -197L12 -97Q83 -131 181 -131Q268 -131 311 -96T377 16L394 78Q311 -2 197 -2Q120 -2 80 36T40 141Q40 169 45 190L107 480H233L174 202Q169 175 169 160Q169 127 188 112T249 97Q292
97 334 117T412 179L476 480H602L506 29Q478 -101 398 -165T164 -230Q115 -230 67 -221Z" />
<glyph unicode="&#x2013;" glyph-name="endash" horiz-adv-x="654" d="M64 350H638L616 249H42L64 350Z" />
<glyph unicode="&#x2014;" glyph-name="emdash" horiz-adv-x="796" d="M64 350H780L758 249H42L64 350Z" />
<glyph unicode="&#x2018;" glyph-name="quoteleft" horiz-adv-x="265" d="M221 714H326L220 518H100L221 714Z" />
<glyph unicode="&#x2019;" glyph-name="quoteright" horiz-adv-x="268" d="M207 714H329L208 518H100L207 714Z" />
<glyph unicode="&#x201a;" glyph-name="quotesinglbase" horiz-adv-x="268" d="M71 71H193L71 -125H-37L71 71Z" />
<glyph unicode="&#x201c;" glyph-name="quotedblleft" horiz-adv-x="426" d="M221 714H319L212 518H100L221 714ZM390 714H487L381 518H269L390 714Z" />
<glyph unicode="&#x201d;" glyph-name="quotedblright" horiz-adv-x="426" d="M207 714H319L198 518H100L207 714ZM375 714H487L366 518H269L375 714Z" />
<glyph unicode="&#x201e;" glyph-name="quotedblbase" horiz-adv-x="426" d="M71 71H183L61 -125H-37L71 71ZM239 71H351L229 -125H132L239 71Z" />
<glyph unicode="&#x2022;" glyph-name="bullet" horiz-adv-x="266" d="M93 205T72 225T51 278Q51 308 67 334T110 375T166 391Q199 391 220 371T241 318Q241 288 225 262T182 221T126 205Q93 205 72 225Z" />
<glyph unicode="&#x2039;" glyph-name="guilsinglleft" horiz-adv-x="380" d="M55 308L62 340L343 546L389 461L189 318L328 176L248 103L55 308Z" />
<glyph unicode="&#x203a;" glyph-name="guilsinglright" horiz-adv-x="380" d="M28 188L227 330L89 473L169 546L362 340L355 308L74 103L28 188Z" />
</font>
</defs>
</svg>
