<?xml version="1.0" standalone="no"?>
<!DOCTYPE svg PUBLIC "-//W3C//DTD SVG 1.1//EN" "http://www.w3.org/Graphics/SVG/1.1/DTD/svg11.dtd">
<svg xmlns="http://www.w3.org/2000/svg">
<defs >
<font id="Cuprum" horiz-adv-x="477" ><font-face
    font-family="Cuprum"
    units-per-em="1000"
    panose-1="0 0 8 0 0 0 0 0 0 0"
    ascent="895"
    descent="-260"
    alphabetic="0" />
<glyph unicode=" " glyph-name="space" horiz-adv-x="250" />
<glyph unicode="!" glyph-name="exclam" horiz-adv-x="260" d="M112 185L183 700H323L212 185H112ZM68 -10L89 110H209L188 -10H68Z" />
<glyph unicode="&quot;" glyph-name="quotedbl" horiz-adv-x="370" d="M146 465L163 700H283L216 465H146ZM316 465L333 700H453L386 465H316Z" />
<glyph unicode="#" glyph-name="numbersign" horiz-adv-x="590" d="M80 0L144 195H54L68 275H172L221 425H124L139 505H249L313 700H428L364 505H454L518 700H633L569 505H659L644 425H540L491 275H588L574 195H464L400 0H285L349 195H259L195 0H80ZM276 275H387L436
425H325L276 275Z" />
<glyph unicode="$" glyph-name="dollar" horiz-adv-x="465" d="M198 -10H193Q144 -10 102 -4T36 10L46 65H186Q203 65 211 66L254 308Q210 330 183 348T137 399T118 481Q118 500 123 530Q137 606 188 653T324 708L339 790H409L395 709Q432 708 464 703T516 690L506
635H381L339 392Q383 369 408 351T451 303T470 226Q470 203 466 180Q438 22 269 -4L254 -90H184L198 -10ZM309 623Q255 597 243 530Q241 512 241 506Q241 462 276 432L309 623ZM334 112T346 180Q348 196 348 201Q348 241 317 269L284 85Q334 112 346 180Z" />
<glyph unicode="%" glyph-name="percent" horiz-adv-x="720" d="M190 410T155 442T120 528Q120 544 123 560Q135 628 184 669T305 710Q367 710 401 679T436 592Q436 577 433 560Q421 492 372 451T252 410Q190 410 155 442ZM105 0L618 700H738L225 0H105ZM288 480T307
500T333 560Q336 574 336 586Q336 613 324 626T292 640Q268 640 249 620T223 560Q221 542 221 535Q221 508 232 494T264 480Q288 480 307 500ZM476 -10T441 22T406 108Q406 124 409 140Q421 208 470 249T591 290Q653 290 687 259T722 172Q722 157 719 140Q707 72
658 31T538 -10Q476 -10 441 22ZM574 60T593 80T619 140Q622 154 622 166Q622 193 610 206T578 220Q554 220 535 200T509 140Q506 127 506 114Q506 87 518 74T550 60Q574 60 593 80Z" />
<glyph unicode="&amp;" glyph-name="ampersand" horiz-adv-x="545" d="M139 -10T101 27T62 134Q62 159 66 180Q74 223 87 265T113 330H208L181 180Q177 157 177 136Q177 97 191 81T226 65Q249 65 274 89T323 160Q259 280 234 348T208 474Q208 498 213 530Q227
613 285 661T430 710Q479 710 521 704T586 690L576 635H436Q401 635 371 606T333 530Q328 498 328 474Q328 434 341 387T388 275L453 390H573L444 170L535 0H405L369 68Q335 27 299 9T208 -10Q139 -10 101 27Z" />
<glyph unicode="&apos;" glyph-name="quotesingle" horiz-adv-x="200" d="M146 465L163 700H283L216 465H146Z" />
<glyph unicode="(" glyph-name="parenleft" horiz-adv-x="266" d="M129 -116T109 -29T88 148Q88 219 99 280Q119 392 180 519T342 750L392 720Q328 615 290 512T229 280Q208 162 208 65Q208 -46 237 -160L176 -190Q129 -116 109 -29Z" />
<glyph unicode=")" glyph-name="parenright" horiz-adv-x="266" d="M-28 -160Q36 -55 74 48T135 280Q156 397 156 494Q156 606 126 720L188 750Q234 676 255 588T276 410Q276 341 265 280Q245 168 184 41T22 -190L-28 -160Z" />
<glyph unicode="*" glyph-name="asterisk" horiz-adv-x="450" d="M217 310L139 357L222 474L108 500L146 592L274 563L298 700H398L374 563L512 592L518 500L394 474L435 357L341 310L300 428L217 310Z" />
<glyph unicode="+" glyph-name="plus" horiz-adv-x="450" d="M195 90L225 260H75L89 340H239L269 510H359L329 340H479L465 260H315L285 90H195Z" />
<glyph unicode="," glyph-name="comma" horiz-adv-x="195" d="M18 -120L59 110H179L98 -120H18Z" />
<glyph unicode="-" glyph-name="hyphen" horiz-adv-x="380" d="M75 260L89 340H409L395 260H75Z" />
<glyph unicode="." glyph-name="period" horiz-adv-x="200" d="M38 -10L59 110H179L158 -10H38Z" />
<glyph unicode="/" glyph-name="slash" horiz-adv-x="420" d="M0 0L423 700H543L120 0H0Z" />
<glyph unicode="0" glyph-name="zero" horiz-adv-x="530" d="M181 -10T137 41T92 206Q92 272 106 350Q140 542 213 626T390 710Q472 710 516 660T561 496Q561 434 546 350Q513 158 441 74T263 -10Q181 -10 137 41ZM316 60T357 125T426 350Q443 442 443 507Q443
579 425 609T377 640Q336 640 296 575T226 350Q210 255 210 194Q210 121 228 91T275 60Q316 60 357 125Z" />
<glyph unicode="1" glyph-name="one" horiz-adv-x="305" d="M224 620H119L129 680Q155 688 199 694T293 700H358L235 0H115L224 620Z" />
<glyph unicode="2" glyph-name="two" horiz-adv-x="420" d="M30 90Q155 208 216 272T313 390T358 500Q362 521 362 543Q362 635 276 635H136L146 690Q172 698 216 704T310 710Q483 710 483 558Q483 526 478 500Q468 441 424 376T318 246T149 80H399L385 0H15L30 90Z" />
<glyph unicode="3" glyph-name="three" horiz-adv-x="435" d="M124 -10T82 -4T16 10L26 65H166Q230 65 266 95T313 190Q317 211 317 234Q317 282 292 304T212 326H132L146 405H216Q273 405 307 435T352 525Q354 535 354 552Q354 592 331 613T266 635H136L146 690Q172
698 216 704T310 710Q391 710 433 673T476 568Q476 545 472 525Q463 471 431 433T350 372L349 368Q390 354 413 316T436 227Q436 208 433 190Q398 -10 173 -10Q124 -10 82 -4Z" />
<glyph unicode="4" glyph-name="four" horiz-adv-x="485" d="M285 0L314 170H54L70 260L398 700H528L449 250H504L489 170H434L405 0H285ZM179 250H329L376 520H372L179 250Z" />
<glyph unicode="5" glyph-name="five" horiz-adv-x="465" d="M154 -10T112 -4T46 10L56 65H196Q260 65 296 97T345 200Q349 223 349 246Q349 295 324 317T244 340H114L178 700H528L515 625H285L248 415H278Q377 415 424 377T471 260Q471 233 465 200Q446 94 382
42T203 -10Q154 -10 112 -4Z" />
<glyph unicode="6" glyph-name="six" horiz-adv-x="475" d="M160 -10T117 28T74 141Q74 169 80 200L119 420Q145 566 212 638T380 710Q429 710 471 704T536 690L526 635H396Q339 635 299 585T237 410Q260 417 287 421T334 425Q408 425 447 387T487 270Q487 241
481 205Q442 -10 243 -10Q160 -10 117 28ZM291 60T319 95T361 205Q368 251 368 271Q368 317 347 336T277 355H227L200 200Q194 169 194 145Q194 102 210 81T255 60Q291 60 319 95Z" />
<glyph unicode="7" glyph-name="seven" horiz-adv-x="430" d="M194 269T394 620H129L143 700H523L507 610Q408 435 340 288T225 0H105Q194 269 394 620Z" />
<glyph unicode="8" glyph-name="eight" horiz-adv-x="500" d="M155 -10T109 27T62 135Q62 159 66 180Q78 248 122 294T229 363V367Q192 380 167 414T141 498Q141 516 144 535Q158 615 218 662T375 710Q459 710 503 673T547 571Q547 555 544 535Q532 469 491 426T399
367V363Q444 344 471 307T499 217Q499 200 496 180Q480 88 418 39T248 -10Q155 -10 109 27ZM360 422T387 453T424 535Q426 553 426 559Q426 596 408 618T362 640Q330 640 301 611T264 535Q261 517 261 502Q261 466 277 443T322 409Q360 422 387 453ZM303 60T334
91T376 180Q379 197 379 211Q379 249 361 273T306 320Q254 294 225 263T186 180Q183 162 183 146Q183 104 204 82T260 60Q303 60 334 91Z" />
<glyph unicode="9" glyph-name="nine" horiz-adv-x="475" d="M169 -10T127 -4T61 10L71 65H201Q258 65 298 115T361 290Q338 283 311 279T263 275Q189 275 150 313T110 428Q110 453 117 495Q136 603 196 656T355 710Q523 710 523 558Q523 526 518 500L479 280Q453
134 386 62T218 -10Q169 -10 127 -4ZM370 345L398 500Q403 533 403 553Q403 597 387 618T342 640Q306 640 278 605T237 495Q230 457 230 427Q230 383 250 364T320 345H370Z" />
<glyph unicode=":" glyph-name="colon" horiz-adv-x="200" d="M107 380L128 500H248L227 380H107ZM38 -10L59 110H179L158 -10H38Z" />
<glyph unicode=";" glyph-name="semicolon" horiz-adv-x="190" d="M107 380L128 500H248L227 380H107ZM18 -120L59 110H179L98 -120H18Z" />
<glyph unicode="&lt;" glyph-name="less" horiz-adv-x="405" d="M365 5L75 200L93 305L453 500L432 380L200 257L199 252L387 125L365 5Z" />
<glyph unicode="=" glyph-name="equal" horiz-adv-x="450" d="M90 345L105 430H495L480 345H90ZM59 170L74 255H464L449 170H59Z" />
<glyph unicode="&gt;" glyph-name="greater" horiz-adv-x="405" d="M40 5L62 125L294 252L295 257L107 380L128 500L418 305L400 200L40 5Z" />
<glyph unicode="?" glyph-name="question" horiz-adv-x="395" d="M149 251T176 292T248 378Q287 417 308 447T336 520Q339 537 339 550Q339 592 316 613T251 635H121L131 690Q157 698 201 704T295 710Q376 710 418 673T460 566Q460 541 456 520Q445 460 417 421T340
335Q297 294 273 262T237 185H137Q149 251 176 292ZM93 -10L114 110H234L213 -10H93Z" />
<glyph unicode="@" glyph-name="at" horiz-adv-x="850" d="M260 -90T175 -15T89 206Q89 257 99 310Q133 503 250 606T545 710Q704 710 789 637T875 436Q875 403 869 365Q851 266 812 206T706 118T535 90L526 120H521Q497 100 472 90T414 80Q357 80 319 121T281
239Q281 267 287 300Q309 427 373 483T555 540Q594 540 633 534T696 520L632 155Q671 155 705 203T759 365Q765 401 765 433Q765 533 705 586T532 640Q405 640 322 559T209 310Q199 257 199 210Q199 95 263 40T457 -15H597L587 -70Q560 -78 517 -84T424 -90Q260
-90 175 -15ZM474 150T489 156T514 170L567 470H542Q490 470 457 432T407 300Q401 267 401 242Q401 195 417 173T456 150Q474 150 489 156Z" />
<glyph unicode="A" glyph-name="A" horiz-adv-x="540" d="M15 0L318 700H468L525 0H400L386 175H214L140 0H15ZM244 255H383L367 540H363L244 255Z" />
<glyph unicode="B" glyph-name="B" horiz-adv-x="530" d="M186 -10T146 -6T71 10L191 690Q230 701 271 705T370 710Q466 710 513 673T561 567Q561 545 557 525Q549 479 517 439T436 377L435 373Q482 356 507 320T532 232Q532 210 528 190Q510 90 443 40T243 -10Q186
-10 146 -6ZM306 405Q355 405 388 434T431 520Q434 537 434 550Q434 592 411 613T346 635H301L261 405H306ZM256 65Q320 65 356 96T404 195Q408 216 408 239Q408 286 383 308T303 330H248L201 65H256Z" />
<glyph unicode="C" glyph-name="C" horiz-adv-x="455" d="M183 -10T137 36T90 194Q90 261 106 350Q130 487 169 566T264 677T395 710Q444 710 486 704T551 690L541 635H421Q351 635 303 572T226 350Q213 273 213 217Q213 133 243 99T331 65H451L441 10Q415 2 371
-4T278 -10Q183 -10 137 36Z" />
<glyph unicode="D" glyph-name="D" horiz-adv-x="545" d="M186 -10T146 -6T71 10L191 690Q230 701 271 705T370 710Q473 710 524 660T575 492Q575 427 561 350Q538 217 495 138T390 25T243 -10Q186 -10 146 -6ZM256 65Q322 65 367 128T441 350Q456 436 456 491Q456
570 430 602T356 635H301L201 65H256Z" />
<glyph unicode="E" glyph-name="E" horiz-adv-x="475" d="M70 0L193 700H558L544 620H299L261 405H476L462 325H247L204 80H449L435 0H70Z" />
<glyph unicode="F" glyph-name="F" horiz-adv-x="455" d="M70 0L193 700H558L544 620H299L258 390H463L449 310H244L190 0H70Z" />
<glyph unicode="G" glyph-name="G" horiz-adv-x="525" d="M190 -10T140 36T90 196Q90 254 106 350Q131 488 170 566T267 677T405 710Q454 710 496 704T561 690L551 635H421Q351 635 303 572T226 350Q213 273 213 217Q213 133 243 99T331 65H356L412 380H532L466
10Q440 2 396 -4T298 -10Q190 -10 140 36Z" />
<glyph unicode="H" glyph-name="H" horiz-adv-x="560" d="M70 0L193 700H313L259 395H439L493 700H613L490 0H370L425 315H245L190 0H70Z" />
<glyph unicode="I" glyph-name="I" horiz-adv-x="260" d="M70 0L193 700H313L190 0H70Z" />
<glyph unicode="J" glyph-name="J" horiz-adv-x="375" d="M49 -10T1 10L11 65H111Q156 65 188 105T237 240L318 700H438L357 240Q333 107 271 49T98 -10Q49 -10 1 10Z" />
<glyph unicode="K" glyph-name="K" horiz-adv-x="520" d="M70 0L193 700H313L257 380L478 700H613L367 355L510 0H375L248 330L190 0H70Z" />
<glyph unicode="L" glyph-name="L" horiz-adv-x="445" d="M70 0L193 700H313L204 80H449L435 0H70Z" />
<glyph unicode="M" glyph-name="M" horiz-adv-x="760" d="M50 0L213 700H343L417 225H421L663 700H793L710 0H595L651 474H647L449 85H339L279 474H275L165 0H50Z" />
<glyph unicode="N" glyph-name="N" horiz-adv-x="570" d="M70 0L193 700H313L422 240H427L508 700H623L500 0H380L271 460H266L185 0H70Z" />
<glyph unicode="O" glyph-name="O" horiz-adv-x="550" d="M185 -10T139 41T92 207Q92 273 106 350Q140 543 214 626T400 710Q488 710 534 660T581 495Q581 434 566 350Q532 157 459 74T273 -10Q185 -10 139 41ZM333 60T375 126T446 350Q462 440 462 502Q462 576
442 608T387 640Q339 640 297 574T226 350Q211 265 211 199Q211 60 285 60Q333 60 375 126Z" />
<glyph unicode="P" glyph-name="P" horiz-adv-x="515" d="M191 690Q230 701 271 705T370 710Q473 710 521 671T569 544Q569 510 561 460Q536 321 475 261T310 200Q298 200 271 203T227 210L190 0H70L191 690ZM294 280Q353 280 388 319T441 460Q448 499 448 533Q448
589 425 612T356 635H301L239 280H294Z" />
<glyph unicode="Q" glyph-name="Q" horiz-adv-x="555" d="M185 -10T139 41T92 207Q92 273 106 350Q140 543 214 626T400 710Q488 710 534 660T581 495Q581 434 566 350Q548 245 515 174T440 60Q480 60 504 55T557 40L548 -10H273Q185 -10 139 41ZM333 60T375 126T446
350Q462 440 462 502Q462 576 442 608T387 640Q339 640 297 574T226 350Q210 260 210 199Q210 122 231 91T285 60Q333 60 375 126Z" />
<glyph unicode="R" glyph-name="R" horiz-adv-x="535" d="M191 690Q230 701 271 705T370 710Q473 710 521 672T570 548Q570 516 562 470Q546 375 509 325T414 250L505 0H370L294 225H229L190 0H70L191 690ZM298 305Q357 305 391 342T442 470Q449 506 449 537Q449
590 426 612T356 635H301L243 305H298Z" />
<glyph unicode="S" glyph-name="S" horiz-adv-x="465" d="M144 -10T102 -4T36 10L46 65H186Q259 65 297 93T346 180Q348 196 348 202Q348 240 324 262T250 310Q207 333 181 351T137 401T118 481Q118 500 123 530Q138 614 199 662T360 710Q409 710 451 704T516
690L506 635H366Q317 635 284 607T243 530Q241 521 241 506Q241 477 254 456T287 422T343 390Q384 368 409 350T452 302T470 226Q470 203 466 180Q450 87 384 39T193 -10Q144 -10 102 -4Z" />
<glyph unicode="T" glyph-name="T" horiz-adv-x="450" d="M165 0L274 620H119L133 700H563L549 620H394L285 0H165Z" />
<glyph unicode="U" glyph-name="U" horiz-adv-x="550" d="M182 -10T138 29T93 154Q93 192 102 240L183 700H303L222 240Q214 196 214 158Q214 105 232 83T285 60Q330 60 362 100T412 240L493 700H613L532 240Q508 107 446 49T273 -10Q182 -10 138 29Z" />
<glyph unicode="V" glyph-name="V" horiz-adv-x="520" d="M185 0L138 700H263L285 155H289L503 700H628L335 0H185Z" />
<glyph unicode="W" glyph-name="W" horiz-adv-x="750" d="M140 0L138 700H263L259 195H263L425 570H525L555 195H559L733 700H858L610 0H480L445 390H441L270 0H140Z" />
<glyph unicode="X" glyph-name="X" horiz-adv-x="490" d="M10 0L218 360L148 700H273L322 440L463 700H588L398 360L480 0H355L295 285L135 0H10Z" />
<glyph unicode="Y" glyph-name="Y" horiz-adv-x="480" d="M180 0L217 210L128 700H253L302 365H306L473 700H598L337 210L300 0H180Z" />
<glyph unicode="Z" glyph-name="Z" horiz-adv-x="435" d="M20 0L33 75L389 620H134L148 700H538L525 625L169 80H424L410 0H20Z" />
<glyph unicode="[" glyph-name="bracketleft" horiz-adv-x="285" d="M38 -180L200 740H415L403 670H308L170 -110H265L253 -180H38Z" />
<glyph unicode="\" glyph-name="backslash" horiz-adv-x="420" d="M300 0L123 700H243L420 0H300Z" />
<glyph unicode="]" glyph-name="bracketright" horiz-adv-x="285" d="M-31 -180L-19 -110H75L213 670H118L130 740H345L183 -180H-31Z" />
<glyph unicode="^" glyph-name="asciicircum" horiz-adv-x="475" d="M184 395L109 450L308 700H413L524 450L429 395L344 595H339L184 395Z" />
<glyph unicode="_" glyph-name="underscore" horiz-adv-x="320" d="M-14 -80L0 0H320L305 -80H-14Z" />
<glyph unicode="`" glyph-name="grave" horiz-adv-x="200" d="M183 560L115 690H220L253 560H183Z" />
<glyph unicode="a" glyph-name="a" horiz-adv-x="490" d="M145 -10T110 29T74 152Q74 197 84 250Q108 390 171 450T349 510Q400 510 436 503T509 480L425 0H340L330 30H325Q275 -10 208 -10Q145 -10 110 29ZM278 60T293 66T319 80L382 440H337Q288 440 255 398T204
250Q194 197 194 158Q194 60 260 60Q278 60 293 66Z" />
<glyph unicode="b" glyph-name="b" horiz-adv-x="495" d="M182 -10T146 -3T73 20L193 700H313L275 485Q315 510 364 510Q508 510 508 345Q508 304 499 250Q474 110 411 50T233 -10Q182 -10 146 -3ZM245 60Q294 60 327 102T379 250Q388 304 388 340Q388 394 371
417T322 440Q304 440 289 434T264 420L200 60H245Z" />
<glyph unicode="c" glyph-name="c" horiz-adv-x="395" d="M160 -10T118 29T75 156Q75 198 84 250Q108 389 168 449T329 510Q364 510 398 504T456 490L447 440H337Q288 440 255 398T204 250Q195 198 195 161Q195 105 216 83T280 60H390L381 10Q355 2 319 -4T248
-10Q160 -10 118 29Z" />
<glyph unicode="d" glyph-name="d" horiz-adv-x="495" d="M145 -10T110 29T74 152Q74 197 84 250Q108 387 165 448T309 510Q360 510 390 485L428 700H548L425 0H340L330 30H325Q275 -10 208 -10Q145 -10 110 29ZM277 60T289 65T319 80L379 420Q371 428 358 434T327
440Q285 440 254 398T204 250Q194 197 194 158Q194 60 260 60Q277 60 289 65Z" />
<glyph unicode="e" glyph-name="e" horiz-adv-x="465" d="M166 -10T121 29T75 157Q75 198 84 250Q108 389 169 449T339 510Q415 510 457 477T500 386Q500 372 497 355Q484 281 428 243T276 205H196Q191 173 191 154Q191 105 216 83T295 60H405L396 10Q370 2 334
-4T263 -10Q166 -10 121 29ZM288 275Q328 275 354 304T380 382Q380 413 365 429T323 445Q293 445 273 431T236 380T208 275H288Z" />
<glyph unicode="f" glyph-name="f" horiz-adv-x="340" d="M-26 -210T-55 -204T-103 -190L-94 -140H-24Q50 -140 67 -40L148 415H93L106 490H161L168 530Q185 627 232 663T353 700Q382 700 416 694T469 680L461 630H381Q306 630 288 530L281 490H416L406 435Q379
427 344 421T273 415H268L187 -40Q170 -137 123 -173T2 -210Q-26 -210 -55 -204Z" />
<glyph unicode="g" glyph-name="g" horiz-adv-x="490" d="M137 -210T103 -204T46 -190L55 -140H165Q223 -140 257 -105T307 15Q270 -10 218 -10Q74 -10 74 153Q74 197 84 250Q108 390 171 450T349 510Q400 510 436 503T509 480L432 40Q408 -93 346 -151T172 -210Q137
-210 103 -204ZM278 60T293 66T319 80L382 440H337Q288 440 255 398T204 250Q194 197 194 158Q194 60 260 60Q278 60 293 66Z" />
<glyph unicode="h" glyph-name="h" horiz-adv-x="510" d="M193 700H313L274 480Q317 510 379 510Q441 510 476 486T511 398Q511 380 506 350L445 0H325L386 350Q389 365 389 376Q389 410 370 425T322 440Q304 440 289 434T264 420L190 0H70L193 700Z" />
<glyph unicode="i" glyph-name="i" horiz-adv-x="260" d="M168 560L189 680H309L288 560H168ZM70 0L158 500H278L190 0H70Z" />
<glyph unicode="j" glyph-name="j" horiz-adv-x="265" d="M173 560L194 680H314L293 560H173ZM-47 -210T-93 -190L-84 -140H-14Q14 -140 36 -115T67 -40L163 500H283L187 -40Q170 -137 123 -173T2 -210Q-47 -210 -93 -190Z" />
<glyph unicode="k" glyph-name="k" horiz-adv-x="460" d="M70 0L193 700H313L240 285L398 500H528L351 265L450 0H320L233 245L190 0H70Z" />
<glyph unicode="l" glyph-name="l" horiz-adv-x="260" d="M70 0L193 700H313L190 0H70Z" />
<glyph unicode="m" glyph-name="m" horiz-adv-x="740" d="M153 500H238L247 470H252Q302 510 374 510Q445 510 477 470Q533 510 614 510Q673 510 707 485T741 398Q741 380 736 350L675 0H555L616 350Q619 365 619 377Q619 410 601 425T557 440Q526 440 494 425Q496
413 496 400Q496 373 491 350L430 0H310L371 350Q374 365 374 377Q374 410 357 425T317 440Q299 440 284 434T259 420L185 0H65L153 500Z" />
<glyph unicode="n" glyph-name="n" horiz-adv-x="505" d="M153 500H238L247 470H252Q302 510 374 510Q436 510 471 486T506 398Q506 380 501 350L440 0H320L381 350Q384 365 384 376Q384 410 365 425T317 440Q299 440 284 434T259 420L185 0H65L153 500Z" />
<glyph unicode="o" glyph-name="o" horiz-adv-x="480" d="M157 -10T116 29T74 155Q74 190 84 250Q108 389 168 449T329 510Q411 510 452 471T493 343Q493 303 484 250Q459 111 399 51T238 -10Q157 -10 116 29ZM287 55T315 98T364 250Q375 316 375 352Q375 403
360 424T318 445Q280 445 252 402T204 250Q193 191 193 146Q193 96 207 76T249 55Q287 55 315 98Z" />
<glyph unicode="p" glyph-name="p" horiz-adv-x="490" d="M153 500H238L247 470H252Q302 510 369 510Q503 510 503 346Q503 304 494 250Q469 113 412 52T268 -10Q219 -10 187 15L149 -200H29L153 500ZM292 60T323 102T374 250Q383 304 383 340Q383 394 366 417T317
440Q300 440 288 435T259 420L199 80Q206 72 219 66T250 60Q292 60 323 102Z" />
<glyph unicode="q" glyph-name="q" horiz-adv-x="490" d="M307 15Q269 -10 218 -10Q74 -10 74 153Q74 197 84 250Q108 390 171 450T349 510Q400 510 436 503T509 480L389 -200H269L307 15ZM278 60T293 66T319 80L382 440H337Q288 440 255 398T204 250Q194 197
194 158Q194 60 260 60Q278 60 293 66Z" />
<glyph unicode="r" glyph-name="r" horiz-adv-x="360" d="M153 500H238L246 460H251Q299 500 373 500H438L423 415H313Q296 415 280 409T254 395L185 0H65L153 500Z" />
<glyph unicode="s" glyph-name="s" horiz-adv-x="415" d="M133 -10T99 -4T41 10L50 60H160Q218 60 249 76T287 130Q288 134 288 141Q288 166 268 181T206 217Q170 233 147 247T108 284T92 342Q92 355 95 370Q109 449 161 479T314 510Q349 510 383 504T441 490L432
440H322Q275 440 246 422T216 369Q216 344 236 329T298 293Q334 277 357 263T396 226T412 168Q412 155 409 140Q399 81 370 49T293 3T168 -10Q133 -10 99 -4Z" />
<glyph unicode="t" glyph-name="t" horiz-adv-x="365" d="M167 -10T133 15T98 105Q98 134 103 160L148 415H93L106 490H161L182 610H302L281 490H416L406 435Q379 427 344 421T273 415H268L223 160Q220 139 220 124Q220 90 234 75T270 60H360L351 10Q331 2 294
-4T228 -10Q167 -10 133 15Z" />
<glyph unicode="u" glyph-name="u" horiz-adv-x="505" d="M156 -10T121 14T86 102Q86 120 91 150L153 500H273L211 150Q209 141 209 125Q209 90 227 75T275 60Q293 60 308 66T334 80L408 500H528L440 0H355L345 30H340Q290 -10 218 -10Q156 -10 121 14Z" />
<glyph unicode="v" glyph-name="v" horiz-adv-x="470" d="M160 0L103 500H223L255 125H259L423 500H543L310 0H160Z" />
<glyph unicode="w" glyph-name="w" horiz-adv-x="650" d="M115 0L103 500H223L222 150H226L350 400H440L476 150H480L603 500H723L535 0H405L370 245H366L245 0H115Z" />
<glyph unicode="x" glyph-name="x" horiz-adv-x="430" d="M10 0L174 255L103 500H228L272 325L378 500H503L344 255L420 0H295L247 185L135 0H10Z" />
<glyph unicode="y" glyph-name="y" horiz-adv-x="505" d="M152 -210T118 -204T61 -190L70 -140H180Q239 -140 273 -104T323 20Q281 -10 218 -10Q156 -10 121 14T86 102Q86 120 91 150L153 500H273L211 150Q209 141 209 125Q209 90 227 75T275 60Q293 60 308 66T334
80L408 500H528L447 40Q423 -93 361 -151T187 -210Q152 -210 118 -204Z" />
<glyph unicode="z" glyph-name="z" horiz-adv-x="400" d="M20 0L32 70L314 425H104L118 500H468L455 430L173 75H388L375 0H20Z" />
<glyph unicode="{" glyph-name="braceleft" horiz-adv-x="300" d="M175 -180T132 -156T88 -63Q88 -35 93 -10L116 120Q120 140 120 160Q120 196 106 215T63 245L75 315Q114 327 138 355T172 440L195 570Q207 638 236 675T311 726T430 740L418 670Q333 670 315
570L296 460Q287 408 270 375T230 322T174 282V278Q206 255 222 229T238 158Q238 133 232 100L213 -10Q209 -29 209 -47Q209 -85 227 -97T280 -110L268 -180Q175 -180 132 -156Z" />
<glyph unicode="|" glyph-name="bar" horiz-adv-x="260" d="M34 -200L193 700H313L154 -200H34Z" />
<glyph unicode="}" glyph-name="braceright" horiz-adv-x="300" d="M-19 -110Q21 -110 46 -91T83 -10L102 100Q111 152 128 185T168 238T224 278V282Q192 305 176 331T160 402Q160 427 166 460L185 570Q188 588 188 602Q188 670 118 670L130 740Q223 740 266 716T310
623Q310 595 305 570L282 440Q278 420 278 400Q278 364 292 345T335 315L323 245Q284 233 260 205T226 120L203 -10Q191 -78 162 -115T87 -166T-31 -180L-19 -110Z" />
<glyph unicode="~" glyph-name="asciitilde" horiz-adv-x="460" d="M135 185T111 213T87 295Q87 325 95 370H175Q172 355 172 343Q172 320 181 308T207 295Q220 295 231 302T260 325Q287 348 311 361T371 375Q423 375 446 347T470 264Q470 228 463 190H383Q386
205 386 217Q386 240 377 252T351 265Q338 265 327 258T298 235Q271 212 247 199T187 185Q135 185 111 213Z" />
<glyph unicode="&#xa0;" glyph-name="uni00A0" horiz-adv-x="250" />
<glyph unicode="&#xa1;" glyph-name="exclamdown" horiz-adv-x="260" d="M174 590L195 710H315L294 590H174ZM60 0L170 515H270L200 0H60Z" />
<glyph unicode="&#xa2;" glyph-name="cent" horiz-adv-x="395" d="M223 -9Q148 -4 111 35T74 155Q74 190 84 250Q107 383 163 444T314 509L325 570H395L384 506Q426 500 456 490L447 440H372L305 60H390L381 10Q341 -3 293 -7L284 -60H214L223 -9ZM301 434Q267
421 243 378T204 250Q194 199 194 160Q194 121 204 99T236 68L301 434Z" />
<glyph unicode="&#xa3;" glyph-name="sterling" horiz-adv-x="435" d="M55 60Q82 76 98 107T127 210L145 315H90L104 395H159L178 500Q193 588 224 633T303 694T430 710Q480 710 526 690L516 635H416Q369 635 341 608T298 500L279 395H424L410 315H265L251 234Q232
126 174 84V80H429L415 0H45L55 60Z" />
<glyph unicode="&#xa4;" glyph-name="currency" horiz-adv-x="520" d="M52 185L134 255Q123 275 123 314Q123 332 126 350Q131 377 142 403T168 445L110 515L181 575L239 510Q258 523 289 531T355 540Q390 540 417 532T459 510L541 575L590 515L508 445Q519 425
519 386Q519 368 516 350Q511 323 500 297T474 255L532 185L462 125L403 190Q384 177 354 169T288 160Q253 160 225 169T183 190L102 125L52 185ZM333 235T362 266T401 350Q404 367 404 382Q404 421 386 443T341 465Q309 465 280 434T241 350Q238 334 238 318Q238
279 256 257T301 235Q333 235 362 266Z" />
<glyph unicode="&#xa5;" glyph-name="yen" horiz-adv-x="480" d="M180 0L214 195H99L113 275H205L196 325H122L136 405H181L128 700H253L302 365H306L473 700H598L440 405H486L472 325H398L371 275H463L449 195H334L300 0H180Z" />
<glyph unicode="&#xa6;" glyph-name="brokenbar" horiz-adv-x="260" d="M124 310L189 680H309L244 310H124ZM34 -200L99 170H219L154 -200H34Z" />
<glyph unicode="&#xa7;" glyph-name="section" horiz-adv-x="465" d="M125 -210T87 -204T26 -190L35 -140H160Q218 -140 253 -115T296 -50Q297 -45 297 -36Q297 -6 275 13T206 58Q165 80 141 97T98 143T80 213Q80 224 84 250Q93 302 127 341T211 405Q178 427 161
452T143 516Q143 532 146 550Q159 621 221 665T385 710Q427 710 465 704T526 690L517 640H392Q341 640 307 615T266 550Q265 545 265 536Q265 506 286 487T352 442Q391 420 415 403T456 357T473 287Q473 276 469 250Q459 197 426 159T347 100Q381 77 400 50T419
-18Q419 -34 416 -50Q403 -121 339 -165T167 -210Q125 -210 87 -204ZM334 168T349 250Q350 255 350 266Q350 298 330 321T274 365Q218 332 204 250Q202 238 202 233Q202 177 278 135Q334 168 349 250Z" />
<glyph unicode="&#xa8;" glyph-name="dieresis" horiz-adv-x="310" d="M120 570L141 690H251L230 570H120ZM280 570L301 690H411L390 570H280Z" />
<glyph unicode="&#xa9;" glyph-name="copyright" horiz-adv-x="840" d="M319 -20T248 16T138 118T99 272Q99 312 106 350Q125 459 186 543T341 673T546 720Q643 720 714 684T824 582T863 428Q863 388 856 350Q837 241 776 157T621 27T416 -20Q319 -20 248 16ZM511
50T579 85T694 189T756 350Q763 388 763 425Q763 532 702 591T534 650Q451 650 383 615T269 512T206 350Q199 314 199 276Q199 169 260 110T428 50Q511 50 579 85ZM375 130T337 159T298 268Q298 307 306 350Q321 437 351 485T425 551T530 570Q595 570 651 550L643
500H538Q507 500 485 489T445 445T416 350Q409 312 409 283Q409 234 428 217T485 200H600L591 150Q564 142 527 136T452 130Q375 130 337 159Z" />
<glyph unicode="&#xaa;" glyph-name="ordfeminine" horiz-adv-x="305" d="M158 395T136 412T114 466Q114 474 116 490Q133 590 239 590Q255 590 271 588T293 585L295 600Q296 604 296 611Q296 645 248 645H168L177 693Q213 705 269 705Q327 705 355 689T383 631Q383
618 380 600L345 400H275L269 420Q250 408 233 402T194 395Q158 395 136 412ZM248 455T258 457T271 460L283 530H248Q229 530 217 520T201 490Q198 475 207 465T235 455Q248 455 258 457Z" />
<glyph unicode="&#xab;" glyph-name="guillemotleft" horiz-adv-x="510" d="M198 20L64 250L279 480L354 425L194 253L193 247L293 75L198 20ZM398 20L264 250L479 480L554 425L394 253L393 247L493 75L398 20Z" />
<glyph unicode="&#xac;" glyph-name="logicalnot" horiz-adv-x="445" d="M372 240L374 335H89L103 415H488L457 240H372Z" />
<glyph unicode="&#xad;" glyph-name="uni00AD" horiz-adv-x="360" d="M75 260L89 340H389L375 260H75Z" />
<glyph unicode="&#xae;" glyph-name="registered" horiz-adv-x="840" d="M319 -20T248 16T138 118T99 272Q99 312 106 350Q125 459 186 543T341 673T546 720Q643 720 714 684T824 582T863 428Q863 388 856 350Q837 241 776 157T621 27T416 -20Q319 -20 248 16ZM511
50T579 85T694 189T756 350Q763 388 763 425Q763 532 702 591T534 650Q451 650 383 615T269 512T206 350Q199 314 199 276Q199 169 260 110T428 50Q511 50 579 85ZM361 550Q396 560 429 565T510 570Q590 570 629 545T668 465Q668 450 665 430Q655 374 630 348T568
305L624 140H509L465 285H425L399 140H289L361 550ZM472 355Q504 355 526 373T555 430Q557 444 557 449Q557 475 542 487T498 500H463L437 355H472Z" />
<glyph unicode="&#xaf;" glyph-name="overscore" horiz-adv-x="280" d="M131 630L143 700H383L371 630H131Z" />
<glyph unicode="&#xb0;" glyph-name="degree" horiz-adv-x="410" d="M205 390T169 422T133 513Q133 531 136 550Q150 625 201 667T330 710Q398 710 434 678T470 588Q470 578 466 550Q453 475 403 433T273 390Q205 390 169 422ZM310 460T332 484T361 550Q364 565
364 577Q364 607 351 623T317 640Q293 640 271 617T241 550Q239 541 239 525Q239 494 252 477T286 460Q310 460 332 484Z" />
<glyph unicode="&#xb1;" glyph-name="plusminus" horiz-adv-x="450" d="M206 150L232 300H82L97 380H247L275 540H365L337 380H487L472 300H322L296 150H206ZM37 45L52 125H442L427 45H37Z" />
<glyph unicode="&#xb2;" glyph-name="uni00B2" horiz-adv-x="270" d="M111 465Q180 512 218 546T261 605Q264 621 254 633T223 645H153L162 694Q178 699 202 702T249 705Q349 705 349 631Q349 619 346 605Q340 572 308 539T206 460H321L310 400H100L111 465Z" />
<glyph unicode="&#xb3;" glyph-name="uni00B3" horiz-adv-x="270" d="M136 395T101 406L110 455H190Q212 455 225 464T241 490Q243 505 234 515T207 525H157L168 585H213Q233 585 243 596T254 621Q254 632 245 638T217 645H143L152 694Q189 705 239 705Q288 705
314 690T341 640Q341 634 339 620Q335 596 318 580T283 560Q300 557 313 542T326 501Q326 491 325 485Q316 435 281 415T179 395Q136 395 101 406Z" />
<glyph unicode="&#xb4;" glyph-name="acute" horiz-adv-x="190" d="M118 560L176 690H291L193 560H118Z" />
<glyph unicode="&#xb5;" glyph-name="uni00B5" horiz-adv-x="505" d="M153 500H273L214 170Q212 160 212 142Q212 104 230 82T275 60Q293 60 308 66T334 80L408 500H528L440 0H355L345 30H340Q316 10 294 0T243 -10Q207 -10 187 15L149 -200H29L153 500Z" />
<glyph unicode="&#xb6;" glyph-name="paragraph" horiz-adv-x="565" d="M283 330Q202 330 159 367T116 473Q116 495 120 515Q129 564 159 606T239 674T348 700H668L654 620H594L449 -200H339L484 620H444L299 -200H189L283 330Z" />
<glyph unicode="&#xb7;" glyph-name="middot" horiz-adv-x="280" d="M131 290L152 410H272L251 290H131Z" />
<glyph unicode="&#xb8;" glyph-name="cedilla" horiz-adv-x="215" d="M43 -170T27 -167T3 -160T-7 -155L-1 -121H63Q103 -121 103 -95Q103 -79 76 -79H21L37 15H92L84 -30H99Q137 -30 157 -45T178 -87Q178 -123 148 -146T65 -170Q43 -170 27 -167Z" />
<glyph unicode="&#xb9;" glyph-name="uni00B9" horiz-adv-x="200" d="M197 640H142L151 688Q167 693 195 696T253 700H293L240 400H155L197 640Z" />
<glyph unicode="&#xba;" glyph-name="ordmasculine" horiz-adv-x="320" d="M179 395T151 423T122 507Q122 530 126 550Q140 626 182 665T284 705Q333 705 361 677T390 594Q390 571 386 550Q373 474 331 435T229 395Q179 395 151 423ZM260 455T276 477T301 550Q306
578 306 594Q306 645 273 645Q253 645 237 623T211 550Q207 529 207 508Q207 481 216 468T240 455Q260 455 276 477Z" />
<glyph unicode="&#xbb;" glyph-name="guillemotright" horiz-adv-x="510" d="M118 20L43 75L203 247L204 253L104 425L199 480L334 250L118 20ZM318 20L243 75L403 247L404 253L304 425L399 480L534 250L318 20Z" />
<glyph unicode="&#xbc;" glyph-name="onequarter" horiz-adv-x="590" d="M40 0L553 700H663L150 0H40ZM217 640H162L171 688Q187 693 215 696T273 700H313L260 400H175L217 640ZM425 0L434 55H294L305 115L477 300H562L530 115H555L544 55H519L510 0H425ZM380
115H445L460 200L380 115Z" />
<glyph unicode="&#xbd;" glyph-name="onehalf" horiz-adv-x="620" d="M50 0L563 700H673L160 0H50ZM232 640H177L186 688Q202 693 230 696T288 700H328L275 400H190L232 640ZM361 65Q429 111 467 146T511 205Q513 221 504 233T473 245H403L411 294Q427 299 451
302T498 305Q598 305 598 230Q598 223 596 205Q590 172 558 139T455 60H570L560 0H350L361 65Z" />
<glyph unicode="&#xbe;" glyph-name="threequarters" horiz-adv-x="605" d="M146 395T111 406L120 455H200Q222 455 235 464T251 490Q253 505 244 515T217 525H167L178 585H223Q243 585 253 596T264 621Q264 632 255 638T227 645H153L162 694Q199 705 249 705Q298
705 324 690T351 640Q351 634 349 620Q345 596 328 580T293 560Q310 557 323 542T336 501Q336 491 335 485Q326 435 291 415T189 395Q146 395 111 406ZM55 0L568 700H678L165 0H55ZM440 0L449 55H309L320 115L492 300H577L545 115H570L559 55H534L525 0H440ZM395
115H460L475 200L395 115Z" />
<glyph unicode="&#xbf;" glyph-name="questiondown" horiz-adv-x="395" d="M284 590L305 710H425L404 590H284ZM142 -10T100 27T57 134Q57 159 61 180Q68 222 85 254T123 310T177 365Q220 405 244 437T280 515H380Q372 469 355 435T319 377T269 321Q231 284 210
254T181 180Q178 164 178 150Q178 108 201 87T266 65H396L386 10Q360 2 316 -4T223 -10Q142 -10 100 27Z" />
<glyph unicode="&#xc0;" glyph-name="Agrave" horiz-adv-x="540" d="M372 750L320 880H435L447 750H372ZM15 0L318 700H468L525 0H400L386 175H214L140 0H15ZM244 255H383L367 540H363L244 255Z" />
<glyph unicode="&#xc1;" glyph-name="Aacute" horiz-adv-x="540" d="M362 750L420 880H535L437 750H362ZM15 0L318 700H468L525 0H400L386 175H214L140 0H15ZM244 255H383L367 540H363L244 255Z" />
<glyph unicode="&#xc2;" glyph-name="Acircumflex" horiz-adv-x="540" d="M270 750L373 880H478L535 750H458L414 820L346 750H270ZM15 0L318 700H468L525 0H400L386 175H214L140 0H15ZM244 255H383L367 540H363L244 255Z" />
<glyph unicode="&#xc3;" glyph-name="Atilde" horiz-adv-x="540" d="M15 0L318 700H468L525 0H400L386 175H214L140 0H15ZM244 255H383L367 540H363L244 255ZM431 760T420 768T396 790Q387 801 382 805T369 810Q358 810 349 800T335 770H275Q300 890 376 890Q393
890 404 882T428 860Q437 849 442 845T455 840Q466 840 475 850T489 880H549Q535 816 510 788T448 760Q431 760 420 768Z" />
<glyph unicode="&#xc4;" glyph-name="Adieresis" horiz-adv-x="540" d="M267 750L288 870H398L377 750H267ZM427 750L448 870H558L537 750H427ZM15 0L318 700H468L525 0H400L386 175H214L140 0H15ZM244 255H383L367 540H363L244 255Z" />
<glyph unicode="&#xc5;" glyph-name="Aring" horiz-adv-x="540" d="M360 725T338 744T316 795Q316 838 348 866T427 895Q464 895 486 876T508 826Q508 783 476 754T397 725Q360 725 338 744ZM419 780T429 788T442 810Q445 824 438 832T418 840Q406 840 396 832T382
810Q380 796 387 788T407 780Q419 780 429 788ZM15 0L318 700H468L525 0H400L386 175H214L140 0H15ZM244 255H383L367 540H363L244 255Z" />
<glyph unicode="&#xc6;" glyph-name="AE" horiz-adv-x="755" d="M0 0L363 700H838L824 620H579L541 405H756L742 325H527L484 80H729L715 0H350L380 175H210L119 0H0ZM251 255H394L459 620H440L251 255Z" />
<glyph unicode="&#xc7;" glyph-name="Ccedilla" horiz-adv-x="455" d="M228 -170T212 -167T187 -160T177 -155L183 -121H248Q288 -121 288 -95Q288 -79 261 -79H206L219 -4Q155 9 123 57T90 198Q90 256 106 350Q130 487 169 566T264 677T395 710Q444 710 486 704T551
690L541 635H421Q351 635 303 572T226 350Q213 273 213 217Q213 133 243 99T331 65H451L441 10Q415 2 374 -4T283 -10H273L269 -30H284Q322 -30 342 -45T363 -87Q363 -123 333 -146T250 -170Q228 -170 212 -167Z" />
<glyph unicode="&#xc8;" glyph-name="Egrave" horiz-adv-x="475" d="M362 750L310 880H425L437 750H362ZM70 0L193 700H558L544 620H299L261 405H476L462 325H247L204 80H449L435 0H70Z" />
<glyph unicode="&#xc9;" glyph-name="Eacute" horiz-adv-x="475" d="M347 750L405 880H520L422 750H347ZM70 0L193 700H558L544 620H299L261 405H476L462 325H247L204 80H449L435 0H70Z" />
<glyph unicode="&#xca;" glyph-name="Ecircumflex" horiz-adv-x="475" d="M252 750L355 880H460L517 750H440L396 820L328 750H252ZM70 0L193 700H558L544 620H299L261 405H476L462 325H247L204 80H449L435 0H70Z" />
<glyph unicode="&#xcb;" glyph-name="Edieresis" horiz-adv-x="475" d="M249 760L270 880H380L359 760H249ZM409 760L430 880H540L519 760H409ZM70 0L193 700H558L544 620H299L261 405H476L462 325H247L204 80H449L435 0H70Z" />
<glyph unicode="&#xcc;" glyph-name="Igrave" horiz-adv-x="255" d="M222 750L170 880H285L297 750H222ZM65 0L188 700H308L185 0H65Z" />
<glyph unicode="&#xcd;" glyph-name="Iacute" horiz-adv-x="255" d="M222 750L280 880H395L297 750H222ZM70 0L193 700H313L190 0H70Z" />
<glyph unicode="&#xce;" glyph-name="Icircumflex" horiz-adv-x="235" d="M117 750L220 880H325L382 750H305L261 820L193 750H117ZM55 0L178 700H298L175 0H55Z" />
<glyph unicode="&#xcf;" glyph-name="Idieresis" horiz-adv-x="250" d="M124 760L145 880H255L234 760H124ZM284 760L305 880H415L394 760H284ZM65 0L188 700H308L185 0H65Z" />
<glyph unicode="&#xd0;" glyph-name="Eth" horiz-adv-x="560" d="M201 -10T161 -6T86 10L140 315H65L79 395H154L206 690Q245 701 286 705T385 710Q488 710 539 660T590 492Q590 427 576 350Q553 217 510 138T405 25T258 -10Q201 -10 161 -6ZM271 65Q337 65 382
128T456 350Q471 436 471 491Q471 570 445 602T371 635H316L274 395H379L365 315H260L216 65H271Z" />
<glyph unicode="&#xd1;" glyph-name="Ntilde" horiz-adv-x="570" d="M297 745T297 817Q297 833 302 865H362Q361 860 361 852Q361 839 366 832T380 825Q387 825 395 830T415 845Q434 860 448 867T479 875Q507 875 522 858T537 802Q537 779 533 755H473Q474 760
474 768Q474 781 469 788T455 795Q448 795 440 790T420 775Q401 760 387 753T356 745Q297 745 297 817ZM70 0L193 700H313L422 240H427L508 700H623L500 0H380L271 460H266L185 0H70Z" />
<glyph unicode="&#xd2;" glyph-name="Ograve" horiz-adv-x="550" d="M374 760L321 890H436L449 760H374ZM185 -10T139 41T92 207Q92 273 106 350Q140 543 214 626T400 710Q488 710 534 660T581 495Q581 434 566 350Q532 157 459 74T273 -10Q185 -10 139 41ZM333
60T375 126T446 350Q462 440 462 502Q462 576 442 608T387 640Q339 640 297 574T226 350Q211 265 211 199Q211 60 285 60Q333 60 375 126Z" />
<glyph unicode="&#xd3;" glyph-name="Oacute" horiz-adv-x="550" d="M364 760L421 890H536L439 760H364ZM185 -10T139 41T92 207Q92 273 106 350Q140 543 214 626T400 710Q488 710 534 660T581 495Q581 434 566 350Q532 157 459 74T273 -10Q185 -10 139 41ZM333
60T375 126T446 350Q462 440 462 502Q462 576 442 608T387 640Q339 640 297 574T226 350Q211 265 211 199Q211 60 285 60Q333 60 375 126Z" />
<glyph unicode="&#xd4;" glyph-name="Ocircumflex" horiz-adv-x="550" d="M279 760L381 890H486L544 760H467L423 830L355 760H279ZM185 -10T139 41T92 207Q92 273 106 350Q140 543 214 626T400 710Q488 710 534 660T581 495Q581 434 566 350Q532 157 459 74T273
-10Q185 -10 139 41ZM333 60T375 126T446 350Q462 440 462 502Q462 576 442 608T387 640Q339 640 297 574T226 350Q211 265 211 199Q211 60 285 60Q333 60 375 126Z" />
<glyph unicode="&#xd5;" glyph-name="Otilde" horiz-adv-x="550" d="M185 -10T139 41T92 207Q92 273 106 350Q140 543 214 626T400 710Q488 710 534 660T581 495Q581 434 566 350Q532 157 459 74T273 -10Q185 -10 139 41ZM333 60T375 126T446 350Q462 440 462
502Q462 576 442 608T387 640Q339 640 297 574T226 350Q211 265 211 199Q211 60 285 60Q333 60 375 126ZM441 760T430 768T406 790Q397 801 392 805T379 810Q368 810 359 800T345 770H285Q310 890 386 890Q403 890 414 882T438 860Q447 849 452 845T465 840Q476
840 485 850T499 880H559Q545 816 520 788T458 760Q441 760 430 768Z" />
<glyph unicode="&#xd6;" glyph-name="Odieresis" horiz-adv-x="550" d="M274 760L295 880H405L384 760H274ZM434 760L455 880H565L544 760H434ZM185 -10T139 41T92 207Q92 273 106 350Q140 543 214 626T400 710Q488 710 534 660T581 495Q581 434 566 350Q532 157
459 74T273 -10Q185 -10 139 41ZM333 60T375 126T446 350Q462 440 462 502Q462 576 442 608T387 640Q339 640 297 574T226 350Q211 265 211 199Q211 60 285 60Q333 60 375 126Z" />
<glyph unicode="&#xd7;" glyph-name="multiply" horiz-adv-x="420" d="M128 160L78 220L208 330L117 440L188 500L278 390L408 500L457 440L328 330L418 220L348 160L257 270L128 160Z" />
<glyph unicode="&#xd8;" glyph-name="Oslash" horiz-adv-x="550" d="M166 -10T122 62L76 10L33 50L100 125Q92 163 92 208Q92 274 106 350Q140 543 214 626T400 710Q506 710 550 637L596 690L639 650L573 575Q580 541 580 494Q580 428 566 350Q532 157 459 74T273
-10Q166 -10 122 62ZM460 535Q456 591 436 615T387 640Q339 640 297 574T226 350Q215 286 213 254L460 535ZM333 60T375 126T446 350Q452 382 459 445L211 164Q220 60 285 60Q333 60 375 126Z" />
<glyph unicode="&#xd9;" glyph-name="Ugrave" horiz-adv-x="550" d="M375 740L323 870H438L450 740H375ZM182 -10T138 29T93 154Q93 192 102 240L183 700H303L222 240Q214 196 214 158Q214 105 232 83T285 60Q330 60 362 100T412 240L493 700H613L532 240Q508
107 446 49T273 -10Q182 -10 138 29Z" />
<glyph unicode="&#xda;" glyph-name="Uacute" horiz-adv-x="550" d="M360 740L418 870H533L435 740H360ZM182 -10T138 29T93 154Q93 192 102 240L183 700H303L222 240Q214 196 214 158Q214 105 232 83T285 60Q330 60 362 100T412 240L493 700H613L532 240Q508
107 446 49T273 -10Q182 -10 138 29Z" />
<glyph unicode="&#xdb;" glyph-name="Ucircumflex" horiz-adv-x="550" d="M273 740L376 870H481L538 740H461L417 810L349 740H273ZM182 -10T138 29T93 154Q93 192 102 240L183 700H303L222 240Q214 196 214 158Q214 105 232 83T285 60Q330 60 362 100T412 240L493
700H613L532 240Q508 107 446 49T273 -10Q182 -10 138 29Z" />
<glyph unicode="&#xdc;" glyph-name="Udieresis" horiz-adv-x="550" d="M270 740L291 860H401L380 740H270ZM430 740L451 860H561L540 740H430ZM182 -10T138 29T93 154Q93 192 102 240L183 700H303L222 240Q214 196 214 158Q214 105 232 83T285 60Q330 60 362
100T412 240L493 700H613L532 240Q508 107 446 49T273 -10Q182 -10 138 29Z" />
<glyph unicode="&#xdd;" glyph-name="Yacute" horiz-adv-x="480" d="M329 740L387 870H502L404 740H329ZM180 0L217 210L128 700H253L302 365H306L473 700H598L337 210L300 0H180Z" />
<glyph unicode="&#xde;" glyph-name="Thorn" horiz-adv-x="525" d="M195 710H315L301 635Q432 628 495 575T558 422Q558 386 551 350Q527 216 442 144T201 65L188 -10H68L195 710ZM298 144T356 199T431 350Q436 382 436 404Q436 476 397 516T288 560L214 140Q298
144 356 199Z" />
<glyph unicode="&#xdf;" glyph-name="germandbls" horiz-adv-x="550" d="M317 -10T289 -4T236 10L245 60H330Q367 60 394 78T428 135Q429 140 429 150Q429 175 415 193T371 233Q336 261 319 283T302 341Q302 382 321 409T378 467Q407 491 422 508T441 550Q443
566 443 571Q443 603 425 619T381 635Q344 635 314 601T272 495L185 0H65L152 495Q189 710 395 710Q476 710 520 674T564 579Q564 565 561 550Q554 512 535 488T481 437Q455 417 441 402T424 365Q421 346 433 331T473 292Q510 261 530 234T551 164Q551 150 548
135Q534 53 483 22T338 -10Q317 -10 289 -4Z" />
<glyph unicode="&#xe0;" glyph-name="agrave" horiz-adv-x="490" d="M329 560L277 690H392L404 560H329ZM145 -10T110 29T74 152Q74 197 84 250Q108 390 171 450T349 510Q400 510 436 503T509 480L425 0H340L330 30H325Q275 -10 208 -10Q145 -10 110 29ZM278 60T293
66T319 80L382 440H337Q288 440 255 398T204 250Q194 197 194 158Q194 60 260 60Q278 60 293 66Z" />
<glyph unicode="&#xe1;" glyph-name="aacute" horiz-adv-x="490" d="M308 560L366 690H481L383 560H308ZM145 -10T110 29T74 152Q74 197 84 250Q108 390 171 450T349 510Q400 510 436 503T509 480L425 0H340L330 30H325Q275 -10 208 -10Q145 -10 110 29ZM278 60T293
66T319 80L382 440H337Q288 440 255 398T204 250Q194 197 194 158Q194 60 260 60Q278 60 293 66Z" />
<glyph unicode="&#xe2;" glyph-name="acircumflex" horiz-adv-x="490" d="M221 550L324 680H429L486 550H409L366 620L297 550H221ZM145 -10T110 29T74 152Q74 197 84 250Q108 390 171 450T349 510Q400 510 436 503T509 480L425 0H340L330 30H325Q275 -10 208
-10Q145 -10 110 29ZM278 60T293 66T319 80L382 440H337Q288 440 255 398T204 250Q194 197 194 158Q194 60 260 60Q278 60 293 66Z" />
<glyph unicode="&#xe3;" glyph-name="atilde" horiz-adv-x="490" d="M145 -10T110 29T74 152Q74 197 84 250Q108 390 171 450T349 510Q400 510 436 503T509 480L425 0H340L330 30H325Q275 -10 208 -10Q145 -10 110 29ZM278 60T293 66T319 80L382 440H337Q288 440
255 398T204 250Q194 197 194 158Q194 60 260 60Q278 60 293 66ZM404 560T393 568T369 590Q360 601 355 605T342 610Q331 610 322 600T308 570H248Q273 690 349 690Q366 690 377 682T401 660Q410 649 415 645T428 640Q439 640 448 650T462 680H522Q508 616 483
588T421 560Q404 560 393 568Z" />
<glyph unicode="&#xe4;" glyph-name="adieresis" horiz-adv-x="490" d="M218 560L239 680H349L328 560H218ZM378 560L399 680H509L488 560H378ZM145 -10T110 29T74 152Q74 197 84 250Q108 390 171 450T349 510Q400 510 436 503T509 480L425 0H340L330 30H325Q275
-10 208 -10Q145 -10 110 29ZM278 60T293 66T319 80L382 440H337Q288 440 255 398T204 250Q194 197 194 158Q194 60 260 60Q278 60 293 66Z" />
<glyph unicode="&#xe5;" glyph-name="aring" horiz-adv-x="490" d="M312 535T290 554T268 604Q268 647 300 676T379 705Q416 705 438 686T460 636Q460 593 428 564T349 535Q312 535 290 554ZM371 590T381 598T394 620Q396 634 389 642T369 650Q357 650 347 642T334
620Q331 606 339 598T359 590Q371 590 381 598ZM145 -10T110 29T74 152Q74 197 84 250Q108 390 171 450T349 510Q400 510 436 503T509 480L425 0H340L330 30H325Q275 -10 208 -10Q145 -10 110 29ZM278 60T293 66T319 80L382 440H337Q288 440 255 398T204 250Q194
197 194 158Q194 60 260 60Q278 60 293 66Z" />
<glyph unicode="&#xe6;" glyph-name="ae" horiz-adv-x="715" d="M135 -10T98 14T60 98Q60 120 64 140Q79 224 128 257T256 290Q291 290 339 280L349 340Q352 358 352 372Q352 410 330 425T262 440H162L171 490Q197 498 231 504T294 510Q393 510 434 450Q463 479
498 494T579 510Q662 510 706 479T751 390Q751 375 748 360Q722 215 527 215H447Q441 182 441 158Q441 105 466 83T545 60H655L646 10Q620 2 584 -4T513 -10Q453 -10 418 5T363 50Q333 21 296 6T203 -10Q135 -10 98 14ZM540 285Q581 285 606 311T631 386Q631 416
616 430T573 445Q529 445 503 412T460 285H540ZM263 60T278 66T304 80L328 220H273Q243 220 218 201T184 140Q182 126 182 121Q182 90 200 75T245 60Q263 60 278 66Z" />
<glyph unicode="&#xe7;" glyph-name="ccedilla" horiz-adv-x="395" d="M188 -170T172 -167T147 -160T137 -155L143 -121H208Q248 -121 248 -95Q248 -79 221 -79H166L179 -2Q126 11 100 49T74 156Q74 192 84 250Q108 389 168 449T329 510Q364 510 398 504T456 490L447
440H337Q288 440 255 398T204 250Q195 198 195 161Q195 105 216 83T280 60H390L381 10Q355 2 319 -4T248 -10L232 -9L233 -10L229 -30H244Q282 -30 302 -45T323 -87Q323 -123 293 -146T210 -170Q188 -170 172 -167Z" />
<glyph unicode="&#xe8;" glyph-name="egrave" horiz-adv-x="465" d="M293 560L241 690H356L368 560H293ZM166 -10T121 29T75 157Q75 198 84 250Q108 389 169 449T339 510Q415 510 457 477T500 386Q500 372 497 355Q484 281 428 243T276 205H196Q191 173 191 154Q191
105 216 83T295 60H405L396 10Q370 2 334 -4T263 -10Q166 -10 121 29ZM288 275Q328 275 354 304T380 382Q380 413 365 429T323 445Q293 445 273 431T236 380T208 275H288Z" />
<glyph unicode="&#xe9;" glyph-name="eacute" horiz-adv-x="465" d="M283 560L341 690H456L358 560H283ZM166 -10T121 29T75 157Q75 198 84 250Q108 389 169 449T339 510Q415 510 457 477T500 386Q500 372 497 355Q484 281 428 243T276 205H196Q191 173 191 154Q191
105 216 83T295 60H405L396 10Q370 2 334 -4T263 -10Q166 -10 121 29ZM288 275Q328 275 354 304T380 382Q380 413 365 429T323 445Q293 445 273 431T236 380T208 275H288Z" />
<glyph unicode="&#xea;" glyph-name="ecircumflex" horiz-adv-x="465" d="M196 550L299 680H404L461 550H384L341 620L272 550H196ZM166 -10T121 29T75 157Q75 198 84 250Q108 389 169 449T339 510Q415 510 457 477T500 386Q500 372 497 355Q484 281 428 243T276
205H196Q191 173 191 154Q191 105 216 83T295 60H405L396 10Q370 2 334 -4T263 -10Q166 -10 121 29ZM288 275Q328 275 354 304T380 382Q380 413 365 429T323 445Q293 445 273 431T236 380T208 275H288Z" />
<glyph unicode="&#xeb;" glyph-name="edieresis" horiz-adv-x="465" d="M193 560L214 680H324L303 560H193ZM353 560L374 680H484L463 560H353ZM166 -10T121 29T75 157Q75 198 84 250Q108 389 169 449T339 510Q415 510 457 477T500 386Q500 372 497 355Q484 281
428 243T276 205H196Q191 173 191 154Q191 105 216 83T295 60H405L396 10Q370 2 334 -4T263 -10Q166 -10 121 29ZM288 275Q328 275 354 304T380 382Q380 413 365 429T323 445Q293 445 273 431T236 380T208 275H288Z" />
<glyph unicode="&#xec;" glyph-name="igrave" horiz-adv-x="260" d="M193 560L141 690H256L268 560H193ZM70 0L158 500H278L190 0H70Z" />
<glyph unicode="&#xed;" glyph-name="iacute" horiz-adv-x="260" d="M188 560L246 690H361L263 560H188ZM70 0L158 500H278L190 0H70Z" />
<glyph unicode="&#xee;" glyph-name="icircumflex" horiz-adv-x="245" d="M86 550L189 680H294L351 550H274L231 620L162 550H86ZM65 0L153 500H273L185 0H65Z" />
<glyph unicode="&#xef;" glyph-name="idieresis" horiz-adv-x="250" d="M88 560L109 680H219L198 560H88ZM248 560L269 680H379L358 560H248ZM65 0L153 500H273L185 0H65Z" />
<glyph unicode="&#xf0;" glyph-name="eth" horiz-adv-x="485" d="M71 -10T71 147Q71 178 77 215Q98 329 156 384T307 440Q363 440 393 415Q400 459 400 484Q400 518 390 539L329 479L286 520L354 590Q330 614 288 633T195 660L210 710Q278 706 332 691T419 650L486
717L529 676L462 611Q485 583 497 540T510 442Q510 398 501 350L477 215Q438 -10 238 -10Q71 -10 71 147ZM283 55T312 93T357 215L381 350Q374 358 360 364T325 370Q277 370 245 334T197 215Q190 179 190 148Q190 100 206 78T249 55Q283 55 312 93Z" />
<glyph unicode="&#xf1;" glyph-name="ntilde" horiz-adv-x="505" d="M275 560T260 577T245 633Q245 656 249 680H309Q308 675 308 667Q308 654 313 647T327 640Q334 640 342 645T362 660Q381 675 395 682T426 690Q485 690 485 618Q485 602 480 570H420Q421 575
421 583Q421 596 416 603T402 610Q395 610 387 605T367 590Q348 575 334 568T303 560Q275 560 260 577ZM153 500H238L247 470H252Q302 510 374 510Q436 510 471 486T506 398Q506 380 501 350L440 0H320L381 350Q384 365 384 376Q384 410 365 425T317 440Q299 440
284 434T259 420L185 0H65L153 500Z" />
<glyph unicode="&#xf2;" glyph-name="ograve" horiz-adv-x="480" d="M303 560L251 690H366L378 560H303ZM157 -10T116 29T74 155Q74 190 84 250Q108 389 168 449T329 510Q411 510 452 471T493 343Q493 303 484 250Q459 111 399 51T238 -10Q157 -10 116 29ZM287
55T315 98T364 250Q375 316 375 352Q375 403 360 424T318 445Q280 445 252 402T204 250Q193 191 193 146Q193 96 207 76T249 55Q287 55 315 98Z" />
<glyph unicode="&#xf3;" glyph-name="oacute" horiz-adv-x="480" d="M293 560L351 690H466L368 560H293ZM157 -10T116 29T74 155Q74 190 84 250Q108 389 168 449T329 510Q411 510 452 471T493 343Q493 303 484 250Q459 111 399 51T238 -10Q157 -10 116 29ZM287
55T315 98T364 250Q375 316 375 352Q375 403 360 424T318 445Q280 445 252 402T204 250Q193 191 193 146Q193 96 207 76T249 55Q287 55 315 98Z" />
<glyph unicode="&#xf4;" glyph-name="ocircumflex" horiz-adv-x="480" d="M205 550L308 680H413L470 550H393L350 620L281 550H205ZM157 -10T116 29T74 155Q74 190 84 250Q108 389 168 449T329 510Q411 510 452 471T493 343Q493 303 484 250Q459 111 399 51T238
-10Q157 -10 116 29ZM287 55T315 98T364 250Q375 316 375 352Q375 403 360 424T318 445Q280 445 252 402T204 250Q193 191 193 146Q193 96 207 76T249 55Q287 55 315 98Z" />
<glyph unicode="&#xf5;" glyph-name="otilde" horiz-adv-x="480" d="M157 -10T116 29T74 155Q74 190 84 250Q108 389 168 449T329 510Q411 510 452 471T493 343Q493 303 484 250Q459 111 399 51T238 -10Q157 -10 116 29ZM287 55T315 98T364 250Q375 316 375 352Q375
403 360 424T318 445Q280 445 252 402T204 250Q193 191 193 146Q193 96 207 76T249 55Q287 55 315 98ZM370 560T359 568T335 590Q326 601 321 605T308 610Q297 610 288 600T274 570H214Q239 690 315 690Q332 690 343 682T367 660Q376 649 381 645T394 640Q405 640
414 650T428 680H488Q474 616 449 588T387 560Q370 560 359 568Z" />
<glyph unicode="&#xf6;" glyph-name="odieresis" horiz-adv-x="480" d="M203 560L224 680H334L313 560H203ZM363 560L384 680H494L473 560H363ZM157 -10T116 29T74 155Q74 190 84 250Q108 389 168 449T329 510Q411 510 452 471T493 343Q493 303 484 250Q459 111
399 51T238 -10Q157 -10 116 29ZM287 55T315 98T364 250Q375 316 375 352Q375 403 360 424T318 445Q280 445 252 402T204 250Q193 191 193 146Q193 96 207 76T249 55Q287 55 315 98Z" />
<glyph unicode="&#xf7;" glyph-name="divide" horiz-adv-x="450" d="M246 405L265 515H365L346 405H246ZM74 255L90 345H480L464 255H74ZM189 85L209 195H309L289 85H189Z" />
<glyph unicode="&#xf8;" glyph-name="oslash" horiz-adv-x="490" d="M147 -10T107 43L71 10L35 60L83 104Q79 134 79 154Q79 199 89 250Q113 389 173 449T334 510Q432 510 469 456L506 490L542 440L493 395Q498 370 498 343Q498 303 489 250Q464 111 404 51T243
-10Q147 -10 107 43ZM378 374Q373 445 323 445Q285 445 257 402T209 250L202 213L378 374ZM292 55T320 98T369 250Q373 277 374 287L198 126Q203 55 254 55Q292 55 320 98Z" />
<glyph unicode="&#xf9;" glyph-name="ugrave" horiz-adv-x="505" d="M323 560L271 690H386L398 560H323ZM156 -10T121 14T86 102Q86 120 91 150L153 500H273L211 150Q209 141 209 125Q209 90 227 75T275 60Q293 60 308 66T334 80L408 500H528L440 0H355L345 30H340Q290
-10 218 -10Q156 -10 121 14Z" />
<glyph unicode="&#xfa;" glyph-name="uacute" horiz-adv-x="505" d="M308 560L366 690H481L383 560H308ZM156 -10T121 14T86 102Q86 120 91 150L153 500H273L211 150Q209 141 209 125Q209 90 227 75T275 60Q293 60 308 66T334 80L408 500H528L440 0H355L345 30H340Q290
-10 218 -10Q156 -10 121 14Z" />
<glyph unicode="&#xfb;" glyph-name="ucircumflex" horiz-adv-x="505" d="M219 550L322 680H427L484 550H407L364 620L295 550H219ZM156 -10T121 14T86 102Q86 120 91 150L153 500H273L211 150Q209 141 209 125Q209 90 227 75T275 60Q293 60 308 66T334 80L408
500H528L440 0H355L345 30H340Q290 -10 218 -10Q156 -10 121 14Z" />
<glyph unicode="&#xfc;" glyph-name="udieresis" horiz-adv-x="505" d="M218 560L239 680H349L328 560H218ZM378 560L399 680H509L488 560H378ZM156 -10T121 14T86 102Q86 120 91 150L153 500H273L211 150Q209 141 209 125Q209 90 227 75T275 60Q293 60 308 66T334
80L408 500H528L440 0H355L345 30H340Q290 -10 218 -10Q156 -10 121 14Z" />
<glyph unicode="&#xfd;" glyph-name="yacute" horiz-adv-x="505" d="M308 560L366 690H481L383 560H308ZM152 -210T118 -204T61 -190L70 -140H180Q239 -140 273 -104T323 20Q281 -10 218 -10Q156 -10 121 14T86 102Q86 120 91 150L153 500H273L211 150Q209 141
209 125Q209 90 227 75T275 60Q293 60 308 66T334 80L408 500H528L447 40Q423 -93 361 -151T187 -210Q152 -210 118 -204Z" />
<glyph unicode="&#xfe;" glyph-name="thorn" horiz-adv-x="495" d="M193 700H313L275 485Q315 510 364 510Q508 510 508 345Q508 304 499 250Q474 113 417 52T273 -10Q224 -10 192 15L154 -200H34L193 700ZM297 60T328 102T379 250Q388 304 388 340Q388 394 371
417T322 440Q304 440 289 434T264 420L204 80Q211 72 224 66T255 60Q297 60 328 102Z" />
<glyph unicode="&#xff;" glyph-name="ydieresis" horiz-adv-x="505" d="M218 560L239 680H349L328 560H218ZM378 560L399 680H509L488 560H378ZM152 -210T118 -204T61 -190L70 -140H180Q239 -140 273 -104T323 20Q281 -10 218 -10Q156 -10 121 14T86 102Q86 120
91 150L153 500H273L211 150Q209 141 209 125Q209 90 227 75T275 60Q293 60 308 66T334 80L408 500H528L447 40Q423 -93 361 -151T187 -210Q152 -210 118 -204Z" />
<glyph unicode="&#x2013;" glyph-name="endash" horiz-adv-x="480" d="M72 240L86 320H506L492 240H72Z" />
<glyph unicode="&#x2014;" glyph-name="emdash" horiz-adv-x="660" d="M72 240L86 320H686L672 240H72Z" />
<glyph unicode="&#x2018;" glyph-name="quoteleft" horiz-adv-x="195" d="M123 475L204 705H284L243 475H123Z" />
<glyph unicode="&#x2019;" glyph-name="quoteright" horiz-adv-x="195" d="M123 475L164 705H284L203 475H123Z" />
<glyph unicode="&#x201a;" glyph-name="quotesinglbase" horiz-adv-x="195" d="M18 -120L59 110H179L98 -120H18Z" />
<glyph unicode="&#x201c;" glyph-name="quotedblleft" horiz-adv-x="365" d="M118 475L199 705H279L238 475H118ZM288 475L369 705H449L408 475H288Z" />
<glyph unicode="&#x201d;" glyph-name="quotedblright" horiz-adv-x="365" d="M123 475L164 705H284L203 475H123ZM293 475L334 705H454L373 475H293Z" />
<glyph unicode="&#x201e;" glyph-name="quotedblbase" horiz-adv-x="365" d="M18 -120L59 110H179L98 -120H18ZM188 -120L229 110H349L268 -120H188Z" />
<glyph unicode="&#x2022;" glyph-name="bullet" horiz-adv-x="270" d="M90 260L122 439H302L270 260H90Z" />
<glyph unicode="&#x2039;" glyph-name="guilsinglleft" horiz-adv-x="325" d="M210 0L64 250L298 500L373 445L194 253L193 247L304 55L210 0Z" />
<glyph unicode="&#x203a;" glyph-name="guilsinglright" horiz-adv-x="325" d="M115 0L39 55L218 247L219 253L108 445L203 500L349 250L115 0Z" />
</font>
</defs>
</svg>
