<?xml version="1.0" standalone="no"?>
<!DOCTYPE svg PUBLIC "-//W3C//DTD SVG 1.1//EN" "http://www.w3.org/Graphics/SVG/1.1/DTD/svg11.dtd">
<svg xmlns="http://www.w3.org/2000/svg">
<defs >
<font id="Trirong" horiz-adv-x="593" ><font-face
    font-family="Trirong"
    units-per-em="1000"
    panose-1="0 0 5 0 0 0 0 0 0 0"
    ascent="1200"
    descent="-534"
    alphabetic="0" />
<glyph unicode=" " glyph-name="space" horiz-adv-x="261" />
<glyph unicode="!" glyph-name="exclam" horiz-adv-x="291" d="M95 598Q95 613 93 639Q93 710 145 710Q198 710 198 639Q196 611 196 598L166 129H125L95 598ZM121 -10T107 4T92 42Q92 67 106 81T146 96Q170 96 184 82T199 42Q199 18 185 4T146 -10Q121 -10 107 4Z" />
<glyph unicode="&quot;" glyph-name="quotedbl" horiz-adv-x="407" d="M71 649V654Q71 688 80 705T117 723Q144 723 154 706T164 655V649L133 435H100L71 649ZM243 649V654Q243 688 252 705T289 723Q315 723 325 706T335 655V649L305 435H272L243 649Z" />
<glyph unicode="#" glyph-name="numbersign" horiz-adv-x="851" d="M638 472L579 225H750V188H570L523 -10H459L506 188H271L224 -10H160L207 188H35V225H216L275 472H99V509H284L328 693H392L348 509H583L627 693H691L647 509H814V472H638ZM574 472H339L280 225H515L574
472Z" />
<glyph unicode="$" glyph-name="dollar" horiz-adv-x="545" d="M524 101T464 50T309 -9V-95H273V-10Q198 -9 139 16T47 82L58 218H80Q93 187 98 95Q125 64 166 46T259 27Q304 27 343 43T406 92T430 170Q430 215 406 246T347 297T253 343Q189 370 151 392T86 452T59
543Q59 621 116 663T273 710V785H309V710Q433 706 499 638L489 521H466Q453 554 447 629Q424 650 391 661T315 673Q236 673 195 643T153 556Q153 523 173 499T223 458T308 417Q378 386 420 361T493 292T524 184Q524 101 464 50Z" />
<glyph unicode="%" glyph-name="percent" horiz-adv-x="910" d="M144 1L732 720L763 694L172 -23L144 1ZM128 324T81 374T33 514Q33 603 80 653T221 704Q313 704 361 654T409 514Q409 425 361 375T221 324Q128 324 81 374ZM277 359T303 406T330 514Q330 574 304
621T221 668Q164 668 138 621T111 514Q111 454 137 407T221 359Q277 359 303 406ZM596 -10T548 40T500 179Q500 268 548 318T688 369Q781 369 829 319T877 179Q877 91 829 41T688 -10Q596 -10 548 40ZM745 25T771 72T798 179Q798 239 772 286T688 334Q632 334 606
287T579 179Q579 120 605 73T688 25Q745 25 771 72Z" />
<glyph unicode="&amp;" glyph-name="ampersand" horiz-adv-x="740" d="M621 81L700 0H593L548 45L525 68Q423 -10 286 -10Q178 -10 112 38T45 170Q45 220 69 258T130 325T222 384Q127 502 127 569Q127 637 174 673T301 710Q379 710 421 677T463 580Q463 540 443
508T393 453T312 396Q362 341 516 187L556 147Q618 223 632 325H673Q666 267 643 215T582 121L621 81ZM213 543T231 507T290 422Q352 458 385 494T419 579Q419 625 392 649T317 674Q269 674 241 650T213 578Q213 543 231 507ZM413 27T500 93Q454 139 454 139Q398
195 342 252T248 354Q195 316 165 274T135 173Q135 103 182 65T297 27Q413 27 500 93Z" />
<glyph unicode="&apos;" glyph-name="quotesingle" horiz-adv-x="235" d="M71 649V654Q71 688 80 705T117 723Q144 723 154 706T164 655V649L133 435H100L71 649Z" />
<glyph unicode="(" glyph-name="parenleft" horiz-adv-x="255" d="M37 45T37 292Q37 415 75 522T187 716H227Q158 621 134 526T110 292Q110 157 138 55T227 -129H187Q37 45 37 292Z" />
<glyph unicode=")" glyph-name="parenright" horiz-adv-x="255" d="M97 -35T121 58T145 290Q145 427 117 529T27 716H68Q217 541 217 292Q217 44 68 -129H28Q97 -35 121 58Z" />
<glyph unicode="*" glyph-name="asterisk" horiz-adv-x="531" d="M134 344T125 353T116 376Q116 385 121 396T134 413L235 501L114 532Q70 542 70 574Q70 588 81 595T107 603Q118 603 131 598L250 532L232 672Q230 688 238 699T265 711Q284 711 294 699T302 672L281
532L401 598Q413 603 424 603Q439 603 450 596T461 574Q461 561 451 550T429 535L296 501L398 413Q405 406 411 395T417 375Q417 362 408 354T385 345Q373 345 362 351T344 366L266 484L185 365Q171 344 149 344Q134 344 125 353Z" />
<glyph unicode="+" glyph-name="plus" horiz-adv-x="588" d="M249 310H56V358H249V557H339V358H532V310H339V111H249V310Z" />
<glyph unicode="," glyph-name="comma" horiz-adv-x="247" d="M76 -111Q121 -59 126 -2Q121 -4 112 -4Q92 -4 78 10T63 46Q63 71 78 87T120 104Q153 104 169 83T186 31Q186 -10 164 -58T109 -136L76 -111Z" />
<glyph unicode="-" glyph-name="hyphen" horiz-adv-x="386" d="M43 304H342V251H43V304Z" />
<glyph unicode="." glyph-name="period" horiz-adv-x="247" d="M96 -10T81 6T65 48Q65 73 80 89T123 105Q150 105 165 89T181 48Q181 22 166 6T123 -10Q96 -10 81 6Z" />
<glyph unicode="/" glyph-name="slash" horiz-adv-x="372" d="M297 708H341L75 0H32L297 708Z" />
<glyph unicode="0" glyph-name="zero" horiz-adv-x="587" d="M161 -10T102 84T43 350Q43 522 102 616T293 710Q425 710 484 617T544 350Q544 177 485 84T293 -10Q161 -10 102 84ZM377 27T413 111T450 350Q450 504 414 588T293 673Q210 673 174 589T137 350Q137
195 173 111T293 27Q377 27 413 111Z" />
<glyph unicode="1" glyph-name="one" horiz-adv-x="587" d="M123 17Q202 33 254 33V647L121 590V634L347 725V33Q418 30 478 18V0H123V17Z" />
<glyph unicode="2" glyph-name="two" horiz-adv-x="587" d="M47 44Q61 97 91 140T156 217T247 293Q306 340 338 371T393 443T416 534Q416 593 378 633T270 673Q223 673 176 655T97 606L78 636Q114 667 167 688T285 710Q386 710 448 667T510 533Q510 476 484 430T418
351T314 270Q258 230 225 203T164 140T125 62H476Q478 79 487 108T504 152H528L517 0H47V44Z" />
<glyph unicode="3" glyph-name="three" horiz-adv-x="587" d="M210 -10T153 10T59 63L78 92Q108 65 159 46T258 27Q333 27 378 73T424 199Q424 241 406 276T352 332T270 353H189V391H270Q316 391 348 413T397 470T413 540Q413 599 376 636T268 673Q221 673 174
655T95 607L76 636Q113 668 165 689T283 710Q384 710 446 669T509 541Q509 482 470 434T370 376V371Q430 360 473 316T516 201Q516 93 447 42T276 -10Q210 -10 153 10Z" />
<glyph unicode="4" glyph-name="four" horiz-adv-x="587" d="M257 16Q317 32 361 32V169H34V221L360 700H454V227H563L551 169H454V33Q505 32 555 16V0H257V16ZM361 227V632H359L88 227H361Z" />
<glyph unicode="5" glyph-name="five" horiz-adv-x="587" d="M204 -10T150 9T58 63L77 92Q108 64 157 46T253 27Q332 27 378 80T424 215Q424 295 388 347T271 400Q223 400 184 381T109 324L78 334L120 700H483L477 641H154L125 382Q192 438 293 438Q410 438 464
375T518 216Q518 153 489 102T404 20T269 -10Q204 -10 150 9Z" />
<glyph unicode="6" glyph-name="six" horiz-adv-x="587" d="M53 -10T53 306Q53 509 126 609T333 710Q401 710 443 690T519 636L499 607Q470 636 430 654T341 673Q267 673 209 600T143 339Q161 390 207 418T309 446Q415 446 476 387T537 224Q537 116 474 53T295
-10Q53 -10 53 306ZM368 27T406 79T445 215Q445 300 406 354T297 409Q233 409 194 357T154 221Q154 169 171 125T220 54T298 27Q368 27 406 79Z" />
<glyph unicode="7" glyph-name="seven" horiz-adv-x="587" d="M193 197T266 361T430 641H103Q94 574 82 550H57V700H529V668Q461 597 402 478T304 230T256 0H164Q193 197 266 361Z" />
<glyph unicode="8" glyph-name="eight" horiz-adv-x="587" d="M164 -10T107 47T49 190Q49 261 89 307T196 373Q144 387 107 435T70 540Q70 622 130 666T293 710Q395 710 455 666T516 540Q516 483 480 435T390 373Q457 353 497 307T537 190Q537 104 480 47T293
-10Q164 -10 107 47ZM355 388T390 433T425 543Q425 606 386 639T293 673Q236 673 199 640T162 543Q162 479 197 434T293 388Q355 388 390 433ZM331 27T366 45T423 100T445 187Q445 265 405 308T293 352Q222 352 182 309T142 187Q142 135 163 99T219 45T292 27Q331
27 366 45Z" />
<glyph unicode="9" glyph-name="nine" horiz-adv-x="587" d="M186 -10T143 10T69 62L88 92Q116 63 157 45T247 27Q322 27 381 99T445 357Q431 308 382 279T279 249Q173 249 112 309T51 474Q51 581 114 645T293 710Q536 710 536 393Q536 191 463 91T255 -10Q186
-10 143 10ZM333 288T365 312T416 379T434 477Q434 529 417 573T368 645T290 673Q220 673 182 620T143 482Q143 397 182 343T291 288Q333 288 365 312Z" />
<glyph unicode=":" glyph-name="colon" horiz-adv-x="247" d="M96 385T81 401T65 442Q65 468 80 484T123 500Q150 500 165 484T181 442Q181 417 166 401T123 385Q96 385 81 401ZM96 -10T81 6T65 48Q65 73 80 89T123 105Q150 105 165 89T181 48Q181 22 166 6T123
-10Q96 -10 81 6Z" />
<glyph unicode=";" glyph-name="semicolon" horiz-adv-x="247" d="M96 385T81 401T65 442Q65 468 80 484T123 500Q150 500 165 484T181 442Q181 417 166 401T123 385Q96 385 81 401ZM76 -111Q121 -59 126 -2Q116 -4 112 -4Q92 -4 78 10T63 46Q63 71 78 87T120
104Q153 104 169 83T186 31Q186 -10 164 -58T109 -136L76 -111Z" />
<glyph unicode="&lt;" glyph-name="less" horiz-adv-x="588" d="M49 316V347L535 591V537L132 332L535 126V72L49 316Z" />
<glyph unicode="=" glyph-name="equal" horiz-adv-x="588" d="M53 431H535V383H53V431ZM53 238H535V190H53V238Z" />
<glyph unicode="&gt;" glyph-name="greater" horiz-adv-x="588" d="M53 126L456 332L53 537V591L539 347V316L53 72V126Z" />
<glyph unicode="?" glyph-name="question" horiz-adv-x="467" d="M176 199T180 222Q187 278 210 316T276 401Q314 444 332 474T350 545Q350 603 317 638T208 673Q121 673 47 608L29 635Q114 710 234 710Q320 710 377 670T435 546Q435 508 422 478T389 427T336
373Q299 339 277 313T240 251T224 166H176Q176 199 180 222ZM176 -10T162 4T147 43Q147 68 161 82T200 96Q225 96 239 82T254 43Q254 18 240 4T200 -10Q176 -10 162 4Z" />
<glyph unicode="@" glyph-name="at" horiz-adv-x="812" d="M281 -57T200 -13T78 109T36 287Q36 393 83 480T218 619T425 670Q525 670 604 631T727 518T772 349Q772 289 752 238T695 156T613 126Q579 126 552 148T520 209H516Q499 169 460 148T379 126Q301 126
261 170T221 291Q221 346 244 392T313 465T421 493Q459 493 497 485T567 460L550 227Q550 196 572 179T618 162Q649 162 674 186T714 252T729 350Q729 434 691 498T585 598T430 634Q325 634 247 590T126 468T84 291Q84 150 164 66T403 -19Q449 -19 503 -10T606
20V-19Q502 -57 395 -57Q281 -57 200 -13ZM428 163T457 194T490 276L502 438Q469 451 423 451Q365 451 328 403T291 282Q291 226 315 195T385 163Q428 163 457 194Z" />
<glyph unicode="A" glyph-name="A" horiz-adv-x="723" d="M682 24T716 12V0H466V12Q501 25 547 30L493 182H193L138 30Q182 25 221 11V0H7V13Q24 19 47 24T85 32L330 704H393L638 31Q682 24 716 12ZM481 217L344 604L205 217H481Z" />
<glyph unicode="B" glyph-name="B" horiz-adv-x="605" d="M36 12Q60 21 77 25T117 31V669Q67 677 36 687V700H323Q442 700 494 660T546 535Q546 478 514 432T416 373V368Q501 354 538 304T575 191Q575 95 523 48T354 0H36V12ZM309 386Q380 386 417 425T454 532Q454
600 421 631T313 663H210V386H309ZM344 35Q416 35 450 75T485 194Q485 269 445 309T331 350H210V35H344Z" />
<glyph unicode="C" glyph-name="C" horiz-adv-x="619" d="M210 -10T129 85T47 350Q47 519 130 614T367 710Q498 710 574 641L565 519H541Q529 554 522 631Q498 650 464 661T391 673Q266 673 204 585T141 350Q141 201 199 114T384 27Q422 27 470 41T559 81L572
54Q537 23 484 7T368 -10Q210 -10 129 85Z" />
<glyph unicode="D" glyph-name="D" horiz-adv-x="669" d="M40 12Q79 26 119 30V669Q81 675 40 688V700H340Q492 700 561 612T631 350Q631 178 561 89T339 0H40V12ZM337 35Q446 35 491 116T537 350Q537 501 492 582T339 663H211V35H337Z" />
<glyph unicode="E" glyph-name="E" horiz-adv-x="613" d="M565 144L551 0H40V12Q81 27 123 31V669Q87 673 40 688V700H551V554H530Q522 568 514 605T503 663H216V362H424Q426 380 431 404T443 445H459V243H443Q436 260 431 284T424 326H216V35H506Q507 56 520
92T543 144H565Z" />
<glyph unicode="F" glyph-name="F" horiz-adv-x="570" d="M544 700V554H522Q514 568 506 605T495 663H216V362H424Q426 380 431 404T443 445H459V243H443Q436 260 431 284T424 326H216V30Q268 22 300 11V0H40V12Q82 25 123 30V669Q72 677 40 688V700H544Z" />
<glyph unicode="G" glyph-name="G" horiz-adv-x="671" d="M203 -10T120 85T37 350Q37 461 76 542T189 666T366 710Q438 710 503 691T602 641L593 519H569Q556 558 550 631Q528 649 480 661T390 673Q264 673 198 585T131 350Q131 201 191 114T376 27Q403 27 439
34T501 55V309Q454 318 422 327V339H660V329Q628 312 590 307V49Q553 21 490 6T360 -10Q203 -10 120 85Z" />
<glyph unicode="H" glyph-name="H" horiz-adv-x="791" d="M707 672T670 668V30Q716 23 751 11V0H500V10Q526 20 541 24T578 30V337H212V30Q259 21 290 11V0H40V12Q79 26 119 30V669Q76 676 40 688V700H290V688Q263 678 249 675T212 669V373H578V669Q545 674 500
688V700H751V687Q707 672 670 668Z" />
<glyph unicode="I" glyph-name="I" horiz-adv-x="341" d="M43 12Q86 25 124 30V669Q82 675 43 688V700H298V687Q264 676 216 669V30Q257 24 298 11V0H43V12Z" />
<glyph unicode="J" glyph-name="J" horiz-adv-x="473" d="M81 -10T21 39L36 63Q87 33 148 33Q260 33 260 143V668Q218 674 181 686V700H432V687Q389 672 353 668V143Q353 69 305 30T175 -10Q81 -10 21 39Z" />
<glyph unicode="K" glyph-name="K" horiz-adv-x="736" d="M40 12Q58 18 81 23T120 30V669Q72 676 40 688V700H294V687Q258 675 213 669V326L515 655Q521 661 521 665Q521 673 497 678T448 684V700H649V684Q640 682 626 680T600 675T581 662L346 409L643 30Q693
21 726 11V0H566L291 351L213 265V30Q253 24 294 11V0H40V12Z" />
<glyph unicode="L" glyph-name="L" horiz-adv-x="599" d="M40 12Q81 25 124 30V669Q78 676 43 688V700H297V687Q261 676 217 669V35H498Q499 56 512 92T536 144H557L543 0H40V12Z" />
<glyph unicode="M" glyph-name="M" horiz-adv-x="913" d="M40 11Q77 22 120 29V669Q72 676 40 688V700H227L451 156L688 700H873V688Q836 676 793 668V29Q836 22 873 11V0H620V11Q654 22 700 30V630L458 77H404L166 636V30Q212 22 246 11V0H40V11Z" />
<glyph unicode="N" glyph-name="N" horiz-adv-x="778" d="M40 11Q77 22 120 29V669Q72 676 40 688V700H222L612 117V670Q571 676 532 688V700H738V688Q703 677 657 669V0H604L166 649V30Q212 22 246 11V0H40V11Z" />
<glyph unicode="O" glyph-name="O" horiz-adv-x="715" d="M202 -10T120 85T37 350Q37 519 119 614T357 710Q511 710 594 615T678 350Q678 181 595 86T357 -10Q202 -10 120 85ZM469 27T527 115T585 350Q585 496 527 584T357 673Q245 673 188 585T130 350Q130 203
187 115T357 27Q469 27 527 115Z" />
<glyph unicode="P" glyph-name="P" horiz-adv-x="609" d="M36 12Q55 18 79 23T117 30V669Q74 676 38 688V700H336Q465 700 521 647T578 492Q578 396 524 337T361 277H210V30Q252 24 291 11V0H36V12ZM341 312Q415 312 451 362T487 493Q487 573 451 618T341 663H210V312H341Z"
/>
<glyph unicode="Q" glyph-name="Q" horiz-adv-x="715" d="M430 -57T475 -89T591 -127V-159Q478 -150 413 -112T331 -9Q188 -1 113 93T37 350Q37 519 119 614T357 710Q511 710 594 615T678 350Q678 199 612 106T419 -6Q430 -57 475 -89ZM130 204T187 116T357 27Q469
27 527 115T585 350Q585 496 527 584T357 673Q246 673 188 585T130 350Q130 204 187 116Z" />
<glyph unicode="R" glyph-name="R" horiz-adv-x="668" d="M621 21T643 12V0H497L333 300H214V30Q253 24 295 11V0H40V12Q58 18 81 23T121 30V669Q79 675 42 688V700H371Q485 700 535 648T586 502Q586 418 543 366T415 303L570 30Q621 21 643 12ZM214 336H345Q422
336 458 380T494 503Q494 582 458 622T345 663H214V336Z" />
<glyph unicode="S" glyph-name="S" horiz-adv-x="545" d="M190 -10T129 15T34 82L44 218H67Q76 193 85 95Q111 64 152 46T245 27Q316 27 366 64T416 170Q416 215 392 246T333 298T239 344Q175 372 137 394T73 452T46 543Q46 625 109 667T279 710Q416 710 485 638L475
521H452Q439 558 433 629Q410 650 377 661T302 673Q222 673 181 643T140 556Q140 523 160 499T211 457T295 416Q364 386 406 361T479 292T510 184Q510 125 479 81T392 14T268 -10Q190 -10 129 15Z" />
<glyph unicode="T" glyph-name="T" horiz-adv-x="639" d="M188 12Q222 21 273 30V663H88Q86 640 78 599T61 543H40V700H598V543H577Q569 557 561 598T550 663H365V30Q414 22 450 11V0H188V12Z" />
<glyph unicode="U" glyph-name="U" horiz-adv-x="770" d="M119 -10T119 213V669Q73 676 38 688V700H292V687Q257 675 211 669V203Q211 27 411 27Q499 27 552 68T606 203V670Q565 674 524 688V700H732V688Q686 673 650 668V213Q650 -10 388 -10Q119 -10 119 213Z" />
<glyph unicode="V" glyph-name="V" horiz-adv-x="725" d="M93 668Q50 675 17 688V700H266V687Q231 674 183 669L380 74L577 669Q525 676 493 689V700H707V687Q667 672 631 666L399 -5H325L93 668Z" />
<glyph unicode="W" glyph-name="W" horiz-adv-x="1014" d="M94 667Q60 673 17 688V700H265V687Q231 673 183 668L319 112L494 666H539L735 77L891 672Q863 677 826 687V700H996V689Q965 675 937 671L759 -5H680L500 536L330 -5H265L94 667Z" />
<glyph unicode="X" glyph-name="X" horiz-adv-x="688" d="M644 23T678 12V0H428V10Q470 28 516 32L329 321L116 28Q151 21 181 11V0H13V12Q35 21 68 28L307 355L106 667Q66 675 34 687V700H283V686Q241 671 195 667L354 420L537 670Q500 677 473 688V700H642V688Q607
674 584 670L377 385L605 31Q644 23 678 12Z" />
<glyph unicode="Y" glyph-name="Y" horiz-adv-x="710" d="M231 11Q277 26 312 30V302L94 667Q55 673 17 687V700H268V686Q225 671 183 667L376 342L581 670Q552 676 517 688V700H692V686Q669 676 637 671L404 301V30Q445 24 486 11V0H231V11Z" />
<glyph unicode="Z" glyph-name="Z" horiz-adv-x="577" d="M26 23L443 663H113Q111 642 103 605T86 554H64V700H543V683L124 35H480Q482 57 495 93T518 144H540L525 0H26V23Z" />
<glyph unicode="[" glyph-name="bracketleft" horiz-adv-x="298" d="M56 703H257V668H126V-87H257V-125H56V703Z" />
<glyph unicode="\" glyph-name="backslash" horiz-adv-x="336" d="M13 708H56L323 0H279L13 708Z" />
<glyph unicode="]" glyph-name="bracketright" horiz-adv-x="298" d="M41 -87H171V668H41V703H241V-125H41V-87Z" />
<glyph unicode="^" glyph-name="asciicircum" horiz-adv-x="560" d="M244 722H316L515 313H450L280 684L110 313H45L244 722Z" />
<glyph unicode="_" glyph-name="underscore" horiz-adv-x="462" d="M-3 -77H464V-114H-3V-77Z" />
<glyph unicode="`" glyph-name="grave" horiz-adv-x="498" d="M188 667Q158 685 157 710Q157 722 165 729T186 737Q209 737 231 715Q269 681 346 608L330 585L188 667Z" />
<glyph unicode="a" glyph-name="a" horiz-adv-x="538" d="M114 -10T72 27T30 134Q30 211 85 245T225 280H373V360Q373 417 339 444T243 471Q204 471 163 460T86 430L79 461Q119 482 169 494T273 507Q362 507 413 469T464 366V38Q499 31 533 22V14L373 -2V71Q332
27 286 9T194 -10Q114 -10 72 27ZM267 27T309 52T373 112V244H247Q183 244 151 216T119 135Q119 81 148 54T226 27Q267 27 309 52Z" />
<glyph unicode="b" glyph-name="b" horiz-adv-x="598" d="M274 -10T228 13T159 76Q154 44 140 0H81V665Q39 673 11 683V690L171 707V437Q213 479 257 493T347 507Q411 507 461 479T539 396T568 261Q568 123 506 57T333 -10Q274 -10 228 13ZM404 25T441 88T478
256Q478 363 440 417T317 471Q274 471 236 449T171 393V169Q171 109 211 67T321 25Q404 25 441 88Z" />
<glyph unicode="c" glyph-name="c" horiz-adv-x="496" d="M210 -10T152 22T62 112T30 248Q30 370 101 438T293 507Q401 507 472 447L465 338H445Q439 353 435 382T430 436Q377 471 318 471Q223 471 172 412T121 242Q121 185 141 136T205 55T313 24Q353 24 394
37T466 73L475 47Q445 22 397 6T289 -10Q210 -10 152 22Z" />
<glyph unicode="d" glyph-name="d" horiz-adv-x="591" d="M147 -10T89 52T30 246Q30 368 93 437T264 507Q310 507 350 493T427 439V665Q385 673 358 683V690L517 707V38Q557 30 586 22V15L447 -5Q442 27 438 83Q412 37 363 14T252 -10Q147 -10 89 52ZM344 25T385
66T427 171V394Q362 471 285 471Q201 471 161 407T120 245Q120 141 158 83T277 25Q344 25 385 66Z" />
<glyph unicode="e" glyph-name="e" horiz-adv-x="534" d="M503 248H118Q119 150 168 87T312 24Q352 24 395 37T471 73L480 47Q451 23 401 7T290 -10Q211 -10 152 22T60 113T27 248Q27 371 94 439T280 507Q355 507 405 475T479 390T503 271V248ZM423 283Q423 328
409 371T364 442T282 471Q207 471 167 418T119 283H423Z" />
<glyph unicode="f" glyph-name="f" horiz-adv-x="400" d="M260 679T236 650T211 559V498H362V462H211V30Q258 23 295 11V0H40V11Q91 27 121 30V462H26V498H121V540Q121 626 159 671T272 716Q326 716 374 700L367 666Q333 679 302 679Q260 679 236 650Z" />
<glyph unicode="g" glyph-name="g" horiz-adv-x="526" d="M427 117T461 83T496 -10Q496 -153 248 -153Q150 -153 94 -121T37 -28Q37 27 90 60Q69 71 59 88T49 126Q49 180 106 214Q73 234 56 267T39 342Q39 420 95 463T251 507Q350 507 405 464Q419 479 428 497T438
526H506Q501 502 484 477T436 432Q463 396 463 342Q463 264 407 221T251 178Q197 178 152 192Q120 172 120 149Q120 130 138 124T195 117H364Q427 117 461 83ZM191 471T160 435T128 342Q128 286 159 250T251 213Q311 213 342 249T374 342Q374 398 343 434T251 471Q191
471 160 435ZM328 -115T371 -93T414 -23Q414 9 393 26T330 44H165Q154 44 134 46Q109 19 109 -22Q109 -67 148 -91T255 -115Q328 -115 371 -93Z" />
<glyph unicode="h" glyph-name="h" horiz-adv-x="660" d="M600 24T640 11V0H393V11Q432 25 470 30V358Q470 418 441 444T364 471Q324 471 280 451T201 392V30Q239 24 277 11V0H31V11Q71 26 111 30V665Q69 673 41 683V690L201 707V430Q236 464 286 485T395 507Q469
507 514 469T560 366V30Q600 24 640 11Z" />
<glyph unicode="i" glyph-name="i" horiz-adv-x="303" d="M119 551T104 566T88 605Q88 629 103 644T144 660Q169 660 184 645T200 605Q200 581 185 566T144 551Q119 551 104 566ZM26 11Q45 18 72 23T106 30V463Q66 470 36 480V488L196 504V30Q242 22 276 11V0H26V11Z" />
<glyph unicode="j" glyph-name="j" horiz-adv-x="309" d="M144 551T129 566T114 605Q114 629 129 644T169 660Q194 660 209 645T225 605Q225 581 210 566T169 551Q144 551 129 566ZM26 -123T-18 -104L-12 -71Q16 -85 52 -85Q91 -85 111 -62T131 5V463Q88 471 62
480V488L222 504V9Q222 -58 184 -90T83 -123Q26 -123 -18 -104Z" />
<glyph unicode="k" glyph-name="k" horiz-adv-x="630" d="M571 25T613 11V0H470L266 243L201 178V30Q244 23 281 11V0H31V11Q75 26 111 30V665Q69 673 41 683V690L201 707V231L417 450Q422 453 422 456Q424 460 424 464Q414 468 398 472Q390 475 376 479T355 487V498H567V487Q556
481 516 470Q485 462 480 459L316 294L534 30Q571 25 613 11Z" />
<glyph unicode="l" glyph-name="l" horiz-adv-x="313" d="M31 11Q53 18 111 30V665Q69 673 41 683V690L201 707V30Q244 23 281 11V0H31V11Z" />
<glyph unicode="m" glyph-name="m" horiz-adv-x="948" d="M888 24T928 11V0H681V11Q727 26 757 30V358Q757 418 729 444T652 471Q616 471 582 451T520 396Q523 381 523 366V30Q562 24 598 11V0H361V11Q408 26 436 30V358Q436 471 333 471Q297 471 263 451T201
395V30Q241 24 281 11V0H31V11Q71 24 111 30V464Q69 472 41 482V489L201 506V434Q230 464 270 485T360 507Q416 507 455 486T512 424Q541 459 585 483T683 507Q757 507 802 469T848 366V30Q888 24 928 11Z" />
<glyph unicode="n" glyph-name="n" horiz-adv-x="660" d="M607 23T640 11V0H394V11Q437 25 470 30V358Q470 418 441 444T364 471Q324 471 280 451T201 392V30Q241 24 281 11V0H31V11Q71 24 111 30V464Q69 472 41 482V489L201 506V430Q236 464 286 485T395 507Q469
507 514 469T560 366V30Q607 23 640 11Z" />
<glyph unicode="o" glyph-name="o" horiz-adv-x="580" d="M165 -10T96 58T26 248Q26 370 95 438T290 507Q414 507 483 439T553 248Q553 126 484 58T290 -10Q165 -10 96 58ZM369 25T416 84T463 248Q463 352 416 411T290 471Q209 471 163 412T116 248Q116 144 162
85T290 25Q369 25 416 84Z" />
<glyph unicode="p" glyph-name="p" horiz-adv-x="602" d="M8 -231Q39 -222 89 -213V464Q46 472 19 481V489L179 506V433Q217 476 262 491T349 507Q457 507 516 445T576 261Q576 122 515 56T340 -10Q289 -10 246 8T179 64V-213Q219 -219 259 -232V-244H8V-231ZM411
25T448 88T485 256Q485 364 449 417T328 471Q284 471 246 448T179 388V169Q179 130 196 97T248 45T328 25Q411 25 448 88Z" />
<glyph unicode="q" glyph-name="q" horiz-adv-x="603" d="M343 -233Q385 -218 424 -213V66Q401 27 358 9T263 -10Q153 -10 90 53T26 255Q26 336 55 393T134 478T248 507Q358 507 424 434V506L584 489V482Q554 472 514 464V-214Q558 -221 594 -232V-244H343V-233ZM320
25T354 44T406 97T424 169V392Q398 426 359 448T278 471Q194 471 156 417T117 256Q117 150 154 88T274 25Q320 25 354 44Z" />
<glyph unicode="r" glyph-name="r" horiz-adv-x="416" d="M20 11Q54 24 100 30V464Q56 472 31 482V489L180 506L188 420H192Q208 456 242 481T316 507Q365 507 399 485L382 438Q357 457 326 457Q285 457 250 430T190 360V30Q234 23 270 11V0H20V11Z" />
<glyph unicode="s" glyph-name="s" horiz-adv-x="464" d="M171 -10T121 6T40 50L47 175H68Q73 161 77 125T83 63Q128 25 205 25Q267 25 302 52T338 126Q338 164 306 185T208 230Q153 251 120 267T64 313T40 386Q40 446 93 476T226 507Q339 507 401 455L392 352H370Q364
367 361 393T357 442Q312 472 245 472Q192 472 160 454T128 397Q128 370 145 351T189 319T260 289Q315 268 348 251T404 204T428 132Q428 63 374 27T237 -10Q171 -10 121 6Z" />
<glyph unicode="t" glyph-name="t" horiz-adv-x="383" d="M356 5Q311 -10 254 -10Q183 -10 143 26T103 137V462H16V498H103V553Q141 569 150 633H193V498H343V462H193V137Q193 77 216 52T284 27Q313 27 349 39L356 5Z" />
<glyph unicode="u" glyph-name="u" horiz-adv-x="633" d="M569 27T610 15V7L450 -9V56Q413 28 365 9T263 -10Q184 -10 138 27T92 129V464Q48 472 22 482V489L182 506V139Q182 79 210 52T288 25Q325 25 370 44T450 93V464Q408 472 381 482V489L540 506V31Q569 27 610 15Z" />
<glyph unicode="v" glyph-name="v" horiz-adv-x="565" d="M75 470Q30 477 8 487V498H239V486Q215 475 162 468L294 73L438 469Q390 475 363 486V498H556V487Q532 477 490 470L314 0H241L75 470Z" />
<glyph unicode="w" glyph-name="w" horiz-adv-x="790" d="M76 470Q72 471 48 475T8 486V498H241V485Q207 473 165 468L261 99L383 448H436L561 81L662 468Q621 475 586 487V498H781V487Q756 477 713 470L585 0H520L395 366L267 0H204L76 470Z" />
<glyph unicode="x" glyph-name="x" horiz-adv-x="575" d="M541 20T572 11V0H339V11Q379 24 411 29L276 212L125 29Q163 23 201 11V0H3V10Q35 22 74 27L252 245L86 469Q44 476 16 487V498H246V486Q212 474 176 468L298 302L435 469Q386 476 362 487V498H559V487Q532
475 486 469L322 269L500 27Q541 20 572 11Z" />
<glyph unicode="y" glyph-name="y" horiz-adv-x="564" d="M559 498V487Q534 478 490 470L297 -46Q277 -100 260 -130T214 -176T140 -192Q92 -192 48 -174L62 -130Q106 -144 139 -144Q169 -144 187 -134T220 -100T253 -27L264 3L72 471Q28 476 5 487V498H237V486Q213
477 158 469L299 97L437 471Q397 474 364 486V498H559Z" />
<glyph unicode="z" glyph-name="z" horiz-adv-x="470" d="M22 21L355 462H103Q94 398 83 372H57V498H448V470L118 34H381Q384 52 393 81T410 124H437L427 0H22V21Z" />
<glyph unicode="{" glyph-name="braceleft" horiz-adv-x="384" d="M251 -122T209 -105T153 -53T140 49V169Q140 221 117 244T28 268V321Q89 322 114 341T140 404V564Q140 619 155 650T214 695T341 710V676Q300 674 274 666T234 636T219 572V400Q219 355 190 329T106
295Q219 273 219 188V16Q219 -27 233 -49T273 -78T341 -87V-122Q251 -122 209 -105Z" />
<glyph unicode="|" glyph-name="bar" horiz-adv-x="446" d="M185 754H260V-195H185V754Z" />
<glyph unicode="}" glyph-name="braceright" horiz-adv-x="384" d="M42 -87Q84 -86 110 -79T150 -49T165 16V188Q165 274 277 295Q224 302 195 328T165 400V572Q165 614 151 636T110 666T42 676V710Q126 710 169 696T228 650T244 564V419Q244 383 253 363T286
332T355 321V268Q310 268 286 257T253 225T244 169V24Q244 -31 229 -62T170 -107T42 -122V-87Z" />
<glyph unicode="~" glyph-name="asciitilde" horiz-adv-x="589" d="M56 314Q80 338 111 353T174 368Q201 368 228 361T297 340Q337 326 365 319T422 311Q480 311 532 368V317Q510 292 481 279T419 265Q388 265 359 272T286 295Q246 309 221 316T170 323Q143 323
113 307T56 265V314Z" />
<glyph unicode="&#xa0;" glyph-name="uni00A0" horiz-adv-x="261" />
<glyph unicode="&#xa1;" glyph-name="exclamdown" horiz-adv-x="291" d="M121 400T107 414T92 453Q92 477 106 491T146 506Q170 506 184 492T199 453Q199 428 185 414T146 400Q121 400 107 414ZM114 -214T104 -195T93 -141L94 -125L125 366H166L197 -125L198 -141Q198
-174 187 -194T145 -214Q114 -214 104 -195Z" />
<glyph unicode="&#xa2;" glyph-name="cent" horiz-adv-x="496" d="M448 24T405 9T309 -9V-92H273V-10Q198 -7 144 26T60 117T30 248Q30 365 95 433T273 506V582H309V507Q406 502 472 447L465 338H445Q439 353 435 382T430 436Q377 471 315 471Q220 471 171 412T121
242Q121 185 141 136T205 55T313 24Q353 24 394 37T466 73L475 47Q448 24 405 9Z" />
<glyph unicode="&#xa3;" glyph-name="sterling" horiz-adv-x="585" d="M31 34H105Q124 54 130 76T137 132V339H38V374H137V532Q137 616 196 663T360 710Q477 710 549 638L533 612Q505 641 464 658T377 676Q306 676 266 639T226 522V374H442V339H226V139Q226 108
216 83T181 35H475Q476 56 489 92T513 144H534L520 0H31V34Z" />
<glyph unicode="&#xa4;" glyph-name="currency" horiz-adv-x="589" d="M78 111L144 174Q101 229 101 295Q101 363 143 416L77 480L106 510L173 445Q226 488 294 488Q362 488 416 445L483 510L512 480L445 415Q487 363 487 295Q487 227 444 174L511 111L481 81L415
145Q362 102 294 102Q227 102 173 145L107 80L78 111ZM337 143T372 163T427 217T448 294Q448 337 427 372T371 427T295 448Q253 448 218 428T163 373T142 294Q142 252 162 218T218 163T295 143Q337 143 372 163Z" />
<glyph unicode="&#xa5;" glyph-name="yen" horiz-adv-x="712" d="M699 700V686Q677 677 645 671L474 401H616V367H453L411 301V193H616V159H411V30Q451 24 492 11V0H238V11Q279 26 318 30V159H109V193H318V302L279 367H109V401H259L101 667Q62 673 24 687V700H276V686Q231
671 189 667L347 401H421L589 670Q557 677 524 688V700H699ZM399 367H368L383 341L399 367Z" />
<glyph unicode="&#xa6;" glyph-name="brokenbar" horiz-adv-x="446" d="M185 754H260V342H185V754ZM185 239H260V-195H185V239Z" />
<glyph unicode="&#xa7;" glyph-name="section" horiz-adv-x="550" d="M512 46T512 -41Q512 -100 481 -143T395 -209T271 -232Q193 -232 131 -207T36 -140L46 -3H69Q79 -29 87 -127Q113 -158 154 -176T248 -195Q319 -195 368 -159T418 -55Q418 -10 395 21T336 71T242
116Q177 144 139 165T75 223T48 315Q48 365 72 400T141 455Q97 482 73 516T48 599Q48 680 110 721T282 762Q418 762 487 690L478 573H454Q448 592 443 622T436 681Q387 725 304 725Q224 725 183 697T142 612Q142 579 162 555T211 515T296 474Q365 444 408 419T481
350T512 243Q512 156 443 103Q512 46 512 -41ZM134 292T155 267T209 224T297 183Q305 179 335 166T391 138Q426 175 426 230Q426 276 401 308T340 360T242 407L201 425Q134 399 134 327Q134 292 155 267Z" />
<glyph unicode="&#xa8;" glyph-name="dieresis" horiz-adv-x="498" d="M119 584T107 596T94 629Q94 649 106 662T139 675Q158 675 170 662T183 629Q183 609 171 597T139 584Q119 584 107 596ZM338 584T326 596T314 629Q314 649 326 662T358 675Q379 675 391 662T404
629Q404 609 392 597T358 584Q338 584 326 596Z" />
<glyph unicode="&#xa9;" glyph-name="copyright" horiz-adv-x="830" d="M310 -10T227 37T96 168T48 357Q48 462 95 545T226 676T415 724Q520 724 603 677T734 546T782 357Q782 252 735 169T604 38T415 -10Q310 -10 227 37ZM509 28T583 70T699 188T741 357Q741
450 699 525T583 642T415 685Q321 685 247 643T130 525T88 357Q88 264 130 189T246 71T415 28Q509 28 583 70ZM369 132T322 159T247 238T220 357Q220 463 273 522T431 581Q465 581 500 571T554 544L549 458H531Q527 466 523 489T517 527Q506 537 485 545T435 553Q350
553 315 501T280 357Q280 272 317 218T435 163Q458 163 492 172T546 198L550 174Q531 155 498 144T429 132Q369 132 322 159Z" />
<glyph unicode="&#xaa;" glyph-name="ordfeminine" horiz-adv-x="364" d="M77 386T51 412T24 478Q24 522 54 548T139 574H241V613Q241 650 219 666T156 682Q105 682 56 659L51 684Q103 710 172 710Q236 710 269 685T303 612V422Q312 420 352 411V404L241 391V440Q220
413 191 400T130 386Q77 386 51 412ZM175 415T198 429T241 472V547H153Q117 547 101 529T85 480Q85 451 101 433T151 415Q175 415 198 429Z" />
<glyph unicode="&#xab;" glyph-name="guillemotleft" horiz-adv-x="498" d="M151 162T38 252V271Q156 369 230 483L267 428Q246 391 207 347T122 262Q168 223 207 178T267 96L230 42Q151 162 38 252ZM347 161T231 252V271Q352 371 424 483L460 428Q439 391 401
347T316 262Q362 222 401 177T460 96L424 42Q347 161 231 252Z" />
<glyph unicode="&#xac;" glyph-name="logicalnot" horiz-adv-x="487" d="M392 335H42V370H434V181H392V335Z" />
<glyph unicode="&#xad;" glyph-name="uni00AD" horiz-adv-x="386" d="M43 304H342V251H43V304Z" />
<glyph unicode="&#xae;" glyph-name="registered" horiz-adv-x="830" d="M520 724T603 677T734 546T782 357Q782 252 735 169T604 38T415 -10Q310 -10 227 37T96 168T48 357Q48 462 95 545T226 676T415 724Q520 724 603 677ZM509 28T583 70T699 188T741 357Q741
450 699 525T583 642T415 685Q321 685 247 643T130 525T88 357Q88 264 130 189T246 71T415 28Q509 28 583 70ZM573 159Q605 154 616 149V139H522L420 327H349V159Q380 155 399 149V139H238V149Q265 158 288 160V548Q262 549 236 560V571H444Q515 571 548 540T582
451Q582 398 554 366T469 328L573 159ZM349 354H427Q476 354 498 378T521 452Q521 499 499 521T427 544H349V354Z" />
<glyph unicode="&#xaf;" glyph-name="overscore" horiz-adv-x="498" d="M53 765H445V730H53V765Z" />
<glyph unicode="&#xb0;" glyph-name="degree" horiz-adv-x="322" d="M103 464T67 501T30 593Q30 648 66 685T161 722Q219 722 255 685T292 593Q292 538 256 501T161 464Q103 464 67 501ZM201 500T227 527T253 593Q253 632 227 659T161 686Q121 686 95 659T68 593Q68
554 94 527T161 500Q201 500 227 527Z" />
<glyph unicode="&#xb1;" glyph-name="plusminus" horiz-adv-x="588" d="M249 333H56V381H249V573H339V381H532V333H339V142H249V333ZM51 55H533V7H51V55Z" />
<glyph unicode="&#xb2;" glyph-name="uni00B2" horiz-adv-x="391" d="M39 311Q51 353 79 383T154 451Q205 491 230 522T255 599Q255 632 234 654T174 676Q148 676 119 665T66 633L51 658Q70 678 107 694T190 710Q255 710 295 682T336 598Q336 564 321 537T284
488T223 436Q182 404 157 380T116 326H306Q309 338 315 354T327 381H346L339 276H39V311Z" />
<glyph unicode="&#xb3;" glyph-name="uni00B3" horiz-adv-x="391" d="M140 270T102 285T43 322L58 347Q81 326 112 315T171 303Q215 303 239 328T263 397Q263 434 241 458T178 483H119V519H176Q218 519 238 543T259 602Q259 635 236 655T172 676Q147 676 118 664T68
635L54 659Q75 679 111 694T194 710Q259 710 297 684T336 605Q336 571 317 542T266 503V499Q302 490 323 465T344 399Q344 334 301 302T185 270Q140 270 102 285Z" />
<glyph unicode="&#xb4;" glyph-name="acute" horiz-adv-x="498" d="M164 608L278 714Q301 737 323 737Q337 737 345 729T354 709Q354 685 322 667L180 585L164 608Z" />
<glyph unicode="&#xb6;" glyph-name="paragraph" horiz-adv-x="517" d="M155 11Q185 21 235 30V311Q145 315 96 368T46 513Q46 700 244 700H490V689Q452 675 408 669V30Q448 24 489 11V0H356V666H288V0H155V11ZM235 666Q162 666 124 627T86 514Q86 432 129 390T235
347V666Z" />
<glyph unicode="&#xb7;" glyph-name="middot" horiz-adv-x="284" d="M111 282T94 300T76 351Q76 383 93 402T141 421Q172 421 190 402T208 351Q208 320 190 301T141 282Q111 282 94 300Z" />
<glyph unicode="&#xb8;" glyph-name="cedilla" horiz-adv-x="498" d="M202 -219T164 -201L180 -172Q209 -184 244 -184Q278 -184 298 -171T319 -132Q319 -113 302 -104T259 -95Q249 -95 235 -97L213 -69L253 12H298L262 -65Q267 -64 277 -64Q321 -65 345 -83T369
-132Q369 -174 336 -196T249 -219Q202 -219 164 -201Z" />
<glyph unicode="&#xb9;" glyph-name="uni00B9" horiz-adv-x="391" d="M78 294Q119 305 161 308V649L79 618V651L246 712V307Q290 305 325 294V276H78V294Z" />
<glyph unicode="&#xba;" glyph-name="ordmasculine" horiz-adv-x="362" d="M103 386T60 429T17 548Q17 623 60 666T181 710Q259 710 302 667T345 548Q345 473 302 430T181 386Q103 386 60 429ZM226 421T251 455T277 548Q277 607 252 641T181 675Q137 675 111 641T85
548Q85 489 111 455T181 421Q226 421 251 455Z" />
<glyph unicode="&#xbb;" glyph-name="guillemotright" horiz-adv-x="498" d="M38 96Q59 133 98 178T183 262Q137 302 98 346T38 428L75 483Q149 369 267 271V252Q154 162 75 42L38 96ZM231 96Q251 132 290 177T375 262Q329 302 291 346T231 428L267 483Q339 371
460 271V252Q347 163 267 42L231 96Z" />
<glyph unicode="&#xbc;" glyph-name="onequarter" horiz-adv-x="906" d="M65 294Q106 305 148 308V649L66 618V651L233 712V307Q275 305 313 294V276H65V294ZM666 708H706L270 0H231L666 708ZM622 18Q659 28 687 29V105H484V131L683 428H772V139H836V105H772V30Q801
27 832 18V0H622V18ZM687 139V373L529 139H687Z" />
<glyph unicode="&#xbd;" glyph-name="onehalf" horiz-adv-x="906" d="M65 294Q106 305 148 308V649L66 618V651L233 712V307Q275 305 313 294V276H65V294ZM658 708H698L262 0H222L658 708ZM554 33Q567 76 595 106T669 174Q703 201 722 220T755 264T769 321Q769
355 748 377T688 399Q662 399 634 388T581 355L566 380Q586 400 623 416T705 432Q771 432 811 404T851 320Q851 273 823 239T737 159Q695 125 671 102T631 49H822Q825 62 830 78T842 104H861L855 0H554V33Z" />
<glyph unicode="&#xbe;" glyph-name="threequarters" horiz-adv-x="906" d="M148 270T110 285T51 322L66 347Q89 326 120 315T179 303Q223 303 247 328T271 397Q271 434 249 458T186 483H127V519H184Q226 519 246 543T267 602Q267 635 244 655T180 676Q155 676
126 664T76 635L62 659Q83 679 119 694T202 710Q267 710 305 684T344 605Q344 571 325 542T274 503V499Q310 490 331 465T352 399Q352 334 309 302T193 270Q148 270 110 285ZM664 708H704L268 0H229L664 708ZM622 18Q659 28 687 29V105H484V131L683 428H772V139H836V105H772V30Q801
27 832 18V0H622V18ZM687 139V373L529 139H687Z" />
<glyph unicode="&#xbf;" glyph-name="questiondown" horiz-adv-x="467" d="M241 388T227 402T213 441Q213 466 227 480T265 494Q290 494 304 480T319 441Q319 416 305 402T265 388Q241 388 227 402ZM145 -226T88 -186T31 -62Q31 -25 44 4T76 55T129 109Q166 143
188 168T226 231T242 318H290V299Q290 249 276 211T243 146T192 84Q154 44 135 13T116 -61Q116 -119 149 -154T259 -189Q304 -189 345 -172T419 -124L437 -151Q352 -226 232 -226Q145 -226 88 -186Z" />
<glyph unicode="&#xc0;" glyph-name="Agrave" horiz-adv-x="723" d="M232 888T232 911Q232 922 240 930T264 938Q286 938 308 916L424 809L408 786L266 868Q232 888 232 911ZM682 24T716 12V0H466V12Q501 25 547 30L493 182H193L138 30Q182 25 221 11V0H7V13Q24
19 47 24T85 32L330 704H393L638 31Q682 24 716 12ZM481 217L344 604L205 217H481Z" />
<glyph unicode="&#xc1;" glyph-name="Aacute" horiz-adv-x="723" d="M321 786L305 809L419 915Q442 938 464 938Q479 938 487 930T495 911Q495 888 463 868L321 786ZM682 24T716 12V0H466V12Q501 25 547 30L493 182H193L138 30Q182 25 221 11V0H7V13Q24 19 47
24T85 32L330 704H393L638 31Q682 24 716 12ZM481 217L344 604L205 217H481Z" />
<glyph unicode="&#xc2;" glyph-name="Acircumflex" horiz-adv-x="723" d="M340 863T308 833T246 780L209 812Q241 834 280 869T340 934H383Q404 905 443 869T514 812L476 780Q446 802 415 832T364 889H359Q340 863 308 833ZM682 24T716 12V0H466V12Q501 25 547
30L493 182H193L138 30Q182 25 221 11V0H7V13Q24 19 47 24T85 32L330 704H393L638 31Q682 24 716 12ZM481 217L344 604L205 217H481Z" />
<glyph unicode="&#xc3;" glyph-name="Atilde" horiz-adv-x="723" d="M262 843T245 828T222 786H189Q196 837 221 861T287 886Q308 886 327 878T373 855Q392 843 406 837T433 831Q456 831 473 845T498 891H530Q523 842 499 815T431 787Q414 787 398 794T350 817Q328
830 313 836T285 843Q262 843 245 828ZM682 24T716 12V0H466V12Q501 25 547 30L493 182H193L138 30Q182 25 221 11V0H7V13Q24 19 47 24T85 32L330 704H393L638 31Q682 24 716 12ZM481 217L344 604L205 217H481Z" />
<glyph unicode="&#xc4;" glyph-name="Adieresis" horiz-adv-x="723" d="M223 785T211 797T198 830Q198 851 210 864T242 877Q262 877 274 864T287 830Q287 810 275 798T242 785Q223 785 211 797ZM442 785T430 797T418 830Q418 851 430 864T462 877Q482 877 494
864T507 830Q507 810 495 798T462 785Q442 785 430 797ZM682 24T716 12V0H466V12Q501 25 547 30L493 182H193L138 30Q182 25 221 11V0H7V13Q24 19 47 24T85 32L330 704H393L638 31Q682 24 716 12ZM481 217L344 604L205 217H481Z" />
<glyph unicode="&#xc5;" glyph-name="Aring" horiz-adv-x="723" d="M320 739T294 763T268 826Q268 866 294 890T361 915Q402 915 427 891T453 826Q453 787 428 763T361 739Q320 739 294 763ZM336 882T320 867T303 826Q303 801 319 786T361 771Q386 771 401 786T417
826Q417 851 402 866T361 882Q336 882 320 867ZM682 24T716 12V0H466V12Q501 25 547 30L493 182H193L138 30Q182 25 221 11V0H7V13Q24 19 47 24T85 32L330 704H393L638 31Q682 24 716 12ZM481 217L344 604L205 217H481Z" />
<glyph unicode="&#xc6;" glyph-name="AE" horiz-adv-x="998" d="M7 12Q41 24 81 32L470 674Q465 675 449 678T421 688V700H936V554H914Q906 568 898 605T887 663H600V377H809Q811 394 816 419T827 460H844V258H827Q821 276 816 300T809 341H600V35H890Q892 56
905 92T928 144H950L935 0H425V12Q467 25 508 30V182H229L139 30Q188 25 225 11V0H7V12ZM508 217V650H503L251 217H508Z" />
<glyph unicode="&#xc7;" glyph-name="Ccedilla" horiz-adv-x="619" d="M537 24T486 8T374 -10L347 -68Q398 -68 425 -84T453 -135Q453 -177 420 -199T333 -222Q285 -222 249 -204L265 -175Q294 -187 328 -187Q362 -187 382 -174T403 -135Q403 -116 386 -107T344
-98Q333 -98 319 -100L297 -72L329 -8Q190 3 119 97T47 350Q47 519 130 614T367 710Q498 710 574 641L565 519H541Q529 554 522 631Q498 650 464 661T391 673Q266 673 204 585T141 350Q141 201 199 114T384 27Q422 27 470 41T559 81L572 54Q537 24 486 8Z" />
<glyph unicode="&#xc8;" glyph-name="Egrave" horiz-adv-x="613" d="M243 888T243 911Q243 922 251 930T275 938Q297 938 319 916L435 809L419 786L277 868Q243 888 243 911ZM565 144L551 0H40V12Q81 27 123 31V669Q87 673 40 688V700H551V554H530Q522 568 514
605T503 663H216V362H424Q426 380 431 404T443 445H459V243H443Q436 260 431 284T424 326H216V35H506Q507 56 520 92T543 144H565Z" />
<glyph unicode="&#xc9;" glyph-name="Eacute" horiz-adv-x="613" d="M248 786L232 809L346 915Q369 938 391 938Q406 938 414 930T422 911Q422 888 390 868L248 786ZM565 144L551 0H40V12Q81 27 123 31V669Q87 673 40 688V700H551V554H530Q522 568 514 605T503
663H216V362H424Q426 380 431 404T443 445H459V243H443Q436 260 431 284T424 326H216V35H506Q507 56 520 92T543 144H565Z" />
<glyph unicode="&#xca;" glyph-name="Ecircumflex" horiz-adv-x="613" d="M319 863T287 833T225 780L188 812Q220 834 259 869T319 934H362Q383 905 422 869T493 812L455 780Q425 802 394 832T343 889H338Q319 863 287 833ZM565 144L551 0H40V12Q81 27 123 31V669Q87
673 40 688V700H551V554H530Q522 568 514 605T503 663H216V362H424Q426 380 431 404T443 445H459V243H443Q436 260 431 284T424 326H216V35H506Q507 56 520 92T543 144H565Z" />
<glyph unicode="&#xcb;" glyph-name="Edieresis" horiz-adv-x="613" d="M213 785T201 797T188 830Q188 851 200 864T232 877Q252 877 264 864T277 830Q277 810 265 798T232 785Q213 785 201 797ZM432 785T420 797T408 830Q408 851 420 864T452 877Q472 877 484
864T497 830Q497 810 485 798T452 785Q432 785 420 797ZM565 144L551 0H40V12Q81 27 123 31V669Q87 673 40 688V700H551V554H530Q522 568 514 605T503 663H216V362H424Q426 380 431 404T443 445H459V243H443Q436 260 431 284T424 326H216V35H506Q507 56 520 92T543
144H565Z" />
<glyph unicode="&#xcc;" glyph-name="Igrave" horiz-adv-x="341" d="M107 868Q73 888 73 911Q73 922 81 930T105 938Q127 938 149 916L265 809L249 786L107 868ZM43 12Q86 25 124 30V669Q82 675 43 688V700H298V687Q264 676 216 669V30Q257 24 298 11V0H43V12Z" />
<glyph unicode="&#xcd;" glyph-name="Iacute" horiz-adv-x="341" d="M73 809L187 915Q210 938 232 938Q247 938 255 930T263 911Q263 888 231 868L89 786L73 809ZM43 12Q86 25 124 30V669Q82 675 43 688V700H298V687Q264 676 216 669V30Q257 24 298 11V0H43V12Z" />
<glyph unicode="&#xce;" glyph-name="Icircumflex" horiz-adv-x="341" d="M17 812Q49 834 88 869T148 934H191Q212 905 251 869T322 812L284 780Q254 802 223 832T172 889H167Q148 863 116 833T54 780L17 812ZM43 12Q86 25 124 30V669Q82 675 43 688V700H298V687Q264
676 216 669V30Q257 24 298 11V0H43V12Z" />
<glyph unicode="&#xcf;" glyph-name="Idieresis" horiz-adv-x="341" d="M40 785T28 797T15 830Q15 851 27 864T59 877Q79 877 91 864T104 830Q104 810 92 798T59 785Q40 785 28 797ZM259 785T247 797T235 830Q235 851 247 864T279 877Q299 877 311 864T324 830Q324
810 312 798T279 785Q259 785 247 797ZM43 12Q86 25 124 30V669Q82 675 43 688V700H298V687Q264 676 216 669V30Q257 24 298 11V0H43V12Z" />
<glyph unicode="&#xd0;" glyph-name="Eth" horiz-adv-x="669" d="M492 700T561 612T631 350Q631 178 561 89T339 0H40V12Q79 26 119 30V315H47V350H119V669Q81 675 40 688V700H340Q492 700 561 612ZM446 35T491 116T537 350Q537 501 492 582T339 663H211V350H379V315H211V35H337Q446
35 491 116Z" />
<glyph unicode="&#xd1;" glyph-name="Ntilde" horiz-adv-x="778" d="M229 837T254 861T320 886Q341 886 360 878T406 855Q425 843 439 837T466 831Q489 831 506 845T531 891H563Q556 842 532 815T464 787Q447 787 431 794T383 817Q361 830 346 836T318 843Q295
843 278 828T255 786H222Q229 837 254 861ZM40 11Q77 22 120 29V669Q72 676 40 688V700H222L612 117V670Q571 676 532 688V700H738V688Q703 677 657 669V0H604L166 649V30Q212 22 246 11V0H40V11Z" />
<glyph unicode="&#xd2;" glyph-name="Ograve" horiz-adv-x="715" d="M290 868Q256 888 256 911Q256 922 264 930T288 938Q310 938 332 916L448 809L432 786L290 868ZM202 -10T120 85T37 350Q37 519 119 614T357 710Q511 710 594 615T678 350Q678 181 595 86T357
-10Q202 -10 120 85ZM469 27T527 115T585 350Q585 496 527 584T357 673Q245 673 188 585T130 350Q130 203 187 115T357 27Q469 27 527 115Z" />
<glyph unicode="&#xd3;" glyph-name="Oacute" horiz-adv-x="715" d="M265 809L379 915Q402 938 424 938Q439 938 447 930T455 911Q455 888 423 868L281 786L265 809ZM202 -10T120 85T37 350Q37 519 119 614T357 710Q511 710 594 615T678 350Q678 181 595 86T357
-10Q202 -10 120 85ZM469 27T527 115T585 350Q585 496 527 584T357 673Q245 673 188 585T130 350Q130 203 187 115T357 27Q469 27 527 115Z" />
<glyph unicode="&#xd4;" glyph-name="Ocircumflex" horiz-adv-x="715" d="M204 812Q236 834 275 869T335 934H378Q399 905 438 869T509 812L471 780Q441 802 410 832T359 889H354Q335 863 303 833T241 780L204 812ZM202 -10T120 85T37 350Q37 519 119 614T357
710Q511 710 594 615T678 350Q678 181 595 86T357 -10Q202 -10 120 85ZM469 27T527 115T585 350Q585 496 527 584T357 673Q245 673 188 585T130 350Q130 203 187 115T357 27Q469 27 527 115Z" />
<glyph unicode="&#xd5;" glyph-name="Otilde" horiz-adv-x="715" d="M193 837T218 861T284 886Q305 886 324 878T370 855Q389 843 403 837T430 831Q453 831 470 845T495 891H527Q520 842 496 815T428 787Q411 787 395 794T347 817Q325 830 310 836T282 843Q259
843 242 828T219 786H186Q193 837 218 861ZM202 -10T120 85T37 350Q37 519 119 614T357 710Q511 710 594 615T678 350Q678 181 595 86T357 -10Q202 -10 120 85ZM469 27T527 115T585 350Q585 496 527 584T357 673Q245 673 188 585T130 350Q130 203 187 115T357 27Q469
27 527 115Z" />
<glyph unicode="&#xd6;" glyph-name="Odieresis" horiz-adv-x="715" d="M227 785T215 797T202 830Q202 851 214 864T246 877Q266 877 278 864T291 830Q291 810 279 798T246 785Q227 785 215 797ZM446 785T434 797T422 830Q422 851 434 864T466 877Q486 877 498
864T511 830Q511 810 499 798T466 785Q446 785 434 797ZM202 -10T120 85T37 350Q37 519 119 614T357 710Q511 710 594 615T678 350Q678 181 595 86T357 -10Q202 -10 120 85ZM469 27T527 115T585 350Q585 496 527 584T357 673Q245 673 188 585T130 350Q130 203 187
115T357 27Q469 27 527 115Z" />
<glyph unicode="&#xd7;" glyph-name="multiply" horiz-adv-x="588" d="M70 160L245 333L70 506L115 552L294 375L473 552L518 506L343 333L518 160L473 114L294 291L115 114L70 160Z" />
<glyph unicode="&#xd8;" glyph-name="Oslash" horiz-adv-x="715" d="M625 588T651 516T678 350Q678 181 595 86T357 -10Q241 -10 162 46L109 -30L79 -8L134 70Q86 117 62 188T37 350Q37 519 119 614T357 710Q467 710 544 659L586 720L618 698L574 635Q625 588
651 516ZM130 216T177 132L508 608Q451 673 357 673Q245 673 188 585T130 350Q130 216 177 132ZM469 27T527 115T585 350Q585 491 533 576L199 99Q257 27 357 27Q469 27 527 115Z" />
<glyph unicode="&#xd9;" glyph-name="Ugrave" horiz-adv-x="770" d="M323 868Q289 888 289 911Q289 922 297 930T321 938Q343 938 365 916L481 809L465 786L323 868ZM119 -10T119 213V669Q73 676 38 688V700H292V687Q257 675 211 669V203Q211 27 411 27Q499 27
552 68T606 203V670Q565 674 524 688V700H732V688Q686 673 650 668V213Q650 -10 388 -10Q119 -10 119 213Z" />
<glyph unicode="&#xda;" glyph-name="Uacute" horiz-adv-x="770" d="M313 809L427 915Q450 938 472 938Q487 938 495 930T503 911Q503 888 471 868L329 786L313 809ZM119 -10T119 213V669Q73 676 38 688V700H292V687Q257 675 211 669V203Q211 27 411 27Q499 27
552 68T606 203V670Q565 674 524 688V700H732V688Q686 673 650 668V213Q650 -10 388 -10Q119 -10 119 213Z" />
<glyph unicode="&#xdb;" glyph-name="Ucircumflex" horiz-adv-x="770" d="M232 812Q264 834 303 869T363 934H406Q427 905 466 869T537 812L499 780Q469 802 438 832T387 889H382Q363 863 331 833T269 780L232 812ZM119 -10T119 213V669Q73 676 38 688V700H292V687Q257
675 211 669V203Q211 27 411 27Q499 27 552 68T606 203V670Q565 674 524 688V700H732V688Q686 673 650 668V213Q650 -10 388 -10Q119 -10 119 213Z" />
<glyph unicode="&#xdc;" glyph-name="Udieresis" horiz-adv-x="770" d="M266 785T254 797T241 830Q241 851 253 864T285 877Q305 877 317 864T330 830Q330 810 318 798T285 785Q266 785 254 797ZM485 785T473 797T461 830Q461 851 473 864T505 877Q525 877 537
864T550 830Q550 810 538 798T505 785Q485 785 473 797ZM119 -10T119 213V669Q73 676 38 688V700H292V687Q257 675 211 669V203Q211 27 411 27Q499 27 552 68T606 203V670Q565 674 524 688V700H732V688Q686 673 650 668V213Q650 -10 388 -10Q119 -10 119 213Z"
/>
<glyph unicode="&#xdd;" glyph-name="Yacute" horiz-adv-x="710" d="M283 809L397 915Q420 938 442 938Q457 938 465 930T473 911Q473 888 441 868L299 786L283 809ZM231 11Q277 26 312 30V302L94 667Q55 673 17 687V700H268V686Q225 671 183 667L376 342L581
670Q552 676 517 688V700H692V686Q669 676 637 671L404 301V30Q445 24 486 11V0H231V11Z" />
<glyph unicode="&#xde;" glyph-name="Thorn" horiz-adv-x="609" d="M36 12Q84 26 118 30V669Q77 675 38 688V700H210V562H361Q475 562 527 506T579 355Q579 259 525 200T362 140H210V30Q250 24 291 11V0H36V12ZM341 175Q416 175 451 225T487 356Q487 437 451 482T338
527H210V175H341Z" />
<glyph unicode="&#xdf;" glyph-name="germandbls" horiz-adv-x="700" d="M403 370T419 351T459 319T524 289Q574 268 604 251T655 204T677 132Q677 62 627 26T495 -10Q435 -10 393 5T319 50L327 175H348Q354 160 358 124T362 63Q385 44 410 35T470 25Q527 25 555
51T584 120Q584 148 568 168T528 201T464 231Q416 251 387 268T337 314T316 386Q316 439 358 467T462 500Q462 573 433 637T318 701Q271 701 239 671T207 582V30Q249 24 288 11V0H36V11Q90 27 117 30V462H22V498H117V551Q117 642 171 689T320 737Q464 737 505 657T546
487V471Q482 471 443 453T403 397Q403 370 419 351Z" />
<glyph unicode="&#xe0;" glyph-name="agrave" horiz-adv-x="538" d="M200 666Q166 686 166 709Q166 720 174 728T198 736Q220 736 242 714L358 607L342 584L200 666ZM114 -10T72 27T30 134Q30 211 85 245T225 280H373V360Q373 417 339 444T243 471Q204 471 163
460T86 430L79 461Q119 482 169 494T273 507Q362 507 413 469T464 366V38Q499 31 533 22V14L373 -2V71Q332 27 286 9T194 -10Q114 -10 72 27ZM267 27T309 52T373 112V244H247Q183 244 151 216T119 135Q119 81 148 54T226 27Q267 27 309 52Z" />
<glyph unicode="&#xe1;" glyph-name="aacute" horiz-adv-x="538" d="M183 607L297 713Q320 736 342 736Q357 736 365 728T373 709Q373 686 341 666L199 584L183 607ZM114 -10T72 27T30 134Q30 211 85 245T225 280H373V360Q373 417 339 444T243 471Q204 471 163
460T86 430L79 461Q119 482 169 494T273 507Q362 507 413 469T464 366V38Q499 31 533 22V14L373 -2V71Q332 27 286 9T194 -10Q114 -10 72 27ZM267 27T309 52T373 112V244H247Q183 244 151 216T119 135Q119 81 148 54T226 27Q267 27 309 52Z" />
<glyph unicode="&#xe2;" glyph-name="acircumflex" horiz-adv-x="538" d="M120 610Q152 632 191 667T251 732H294Q315 703 354 667T425 610L387 578Q357 600 326 630T275 687H270Q251 661 219 631T157 578L120 610ZM114 -10T72 27T30 134Q30 211 85 245T225 280H373V360Q373
417 339 444T243 471Q204 471 163 460T86 430L79 461Q119 482 169 494T273 507Q362 507 413 469T464 366V38Q499 31 533 22V14L373 -2V71Q332 27 286 9T194 -10Q114 -10 72 27ZM267 27T309 52T373 112V244H247Q183 244 151 216T119 135Q119 81 148 54T226 27Q267
27 309 52Z" />
<glyph unicode="&#xe3;" glyph-name="atilde" horiz-adv-x="538" d="M101 635T126 659T192 684Q213 684 232 676T278 653Q297 641 311 635T338 629Q361 629 378 643T403 689H435Q428 640 404 613T336 585Q319 585 303 592T255 615Q233 628 218 634T190 641Q167
641 150 626T127 584H94Q101 635 126 659ZM114 -10T72 27T30 134Q30 211 85 245T225 280H373V360Q373 417 339 444T243 471Q204 471 163 460T86 430L79 461Q119 482 169 494T273 507Q362 507 413 469T464 366V38Q499 31 533 22V14L373 -2V71Q332 27 286 9T194 -10Q114
-10 72 27ZM267 27T309 52T373 112V244H247Q183 244 151 216T119 135Q119 81 148 54T226 27Q267 27 309 52Z" />
<glyph unicode="&#xe4;" glyph-name="adieresis" horiz-adv-x="538" d="M134 583T122 595T109 628Q109 649 121 662T153 675Q173 675 185 662T198 628Q198 608 186 596T153 583Q134 583 122 595ZM353 583T341 595T329 628Q329 649 341 662T373 675Q393 675 405
662T418 628Q418 608 406 596T373 583Q353 583 341 595ZM114 -10T72 27T30 134Q30 211 85 245T225 280H373V360Q373 417 339 444T243 471Q204 471 163 460T86 430L79 461Q119 482 169 494T273 507Q362 507 413 469T464 366V38Q499 31 533 22V14L373 -2V71Q332 27
286 9T194 -10Q114 -10 72 27ZM267 27T309 52T373 112V244H247Q183 244 151 216T119 135Q119 81 148 54T226 27Q267 27 309 52Z" />
<glyph unicode="&#xe5;" glyph-name="aring" horiz-adv-x="538" d="M228 570T202 594T176 657Q176 697 202 721T269 746Q310 746 335 722T361 657Q361 618 336 594T269 570Q228 570 202 594ZM294 602T309 617T325 657Q325 682 310 697T269 713Q244 713 228 698T211
657Q211 632 227 617T269 602Q294 602 309 617ZM114 -10T72 27T30 134Q30 211 85 245T225 280H373V360Q373 417 339 444T243 471Q204 471 163 460T86 430L79 461Q119 482 169 494T273 507Q362 507 413 469T464 366V38Q499 31 533 22V14L373 -2V71Q332 27 286 9T194
-10Q114 -10 72 27ZM267 27T309 52T373 112V244H247Q183 244 151 216T119 135Q119 81 148 54T226 27Q267 27 309 52Z" />
<glyph unicode="&#xe6;" glyph-name="ae" horiz-adv-x="872" d="M123 -10T77 26T30 134Q30 211 88 248T231 285H367Q368 298 372 324Q376 351 377 360Q377 415 341 443T243 471Q204 471 163 460T86 430L79 461Q119 482 169 494T273 507Q332 507 373 487T434 431Q466
467 514 487T621 507Q695 507 744 476T818 391T842 273V249H455Q457 144 509 84T656 24Q696 24 737 37T809 73L818 47Q788 22 741 6T634 -10Q566 -10 512 15T422 89Q379 35 319 13T199 -10Q123 -10 77 26ZM762 286Q761 361 727 417T620 473Q543 473 502 420T456
286H762ZM276 27T325 52T401 115Q368 173 366 249H253Q189 249 154 218T119 135Q119 80 150 54T230 27Q276 27 325 52Z" />
<glyph unicode="&#xe7;" glyph-name="ccedilla" horiz-adv-x="496" d="M343 -65T370 -81T398 -132Q398 -174 365 -196T278 -219Q230 -219 194 -201L210 -172Q239 -184 273 -184Q307 -184 327 -171T348 -132Q348 -113 331 -104T289 -95Q278 -95 264 -97L242 -69L272
-10Q198 -6 144 27T60 117T30 248Q30 370 101 438T293 507Q401 507 472 447L465 338H445Q439 353 435 382T430 436Q377 471 318 471Q223 471 172 412T121 242Q121 185 141 136T205 55T313 24Q353 24 394 37T466 73L475 47Q449 25 409 10T318 -9L292 -65Q343 -65
370 -81Z" />
<glyph unicode="&#xe8;" glyph-name="egrave" horiz-adv-x="534" d="M175 686T175 709Q175 720 183 728T207 736Q229 736 251 714L367 607L351 584L209 666Q175 686 175 709ZM503 248H118Q119 150 168 87T312 24Q352 24 395 37T471 73L480 47Q451 23 401 7T290
-10Q211 -10 152 22T60 113T27 248Q27 371 94 439T280 507Q355 507 405 475T479 390T503 271V248ZM423 283Q423 328 409 371T364 442T282 471Q207 471 167 418T119 283H423Z" />
<glyph unicode="&#xe9;" glyph-name="eacute" horiz-adv-x="534" d="M205 584L189 607L303 713Q326 736 348 736Q363 736 371 728T379 709Q379 686 347 666L205 584ZM503 248H118Q119 150 168 87T312 24Q352 24 395 37T471 73L480 47Q451 23 401 7T290 -10Q211
-10 152 22T60 113T27 248Q27 371 94 439T280 507Q355 507 405 475T479 390T503 271V248ZM423 283Q423 328 409 371T364 442T282 471Q207 471 167 418T119 283H423Z" />
<glyph unicode="&#xea;" glyph-name="ecircumflex" horiz-adv-x="534" d="M251 661T219 631T157 578L120 610Q152 632 191 667T251 732H294Q315 703 354 667T425 610L387 578Q357 600 326 630T275 687H270Q251 661 219 631ZM503 248H118Q119 150 168 87T312 24Q352
24 395 37T471 73L480 47Q451 23 401 7T290 -10Q211 -10 152 22T60 113T27 248Q27 371 94 439T280 507Q355 507 405 475T479 390T503 271V248ZM423 283Q423 328 409 371T364 442T282 471Q207 471 167 418T119 283H423Z" />
<glyph unicode="&#xeb;" glyph-name="edieresis" horiz-adv-x="534" d="M144 583T132 595T119 628Q119 649 131 662T163 675Q183 675 195 662T208 628Q208 608 196 596T163 583Q144 583 132 595ZM363 583T351 595T339 628Q339 649 351 662T383 675Q403 675 415
662T428 628Q428 608 416 596T383 583Q363 583 351 595ZM503 248H118Q119 150 168 87T312 24Q352 24 395 37T471 73L480 47Q451 23 401 7T290 -10Q211 -10 152 22T60 113T27 248Q27 371 94 439T280 507Q355 507 405 475T479 390T503 271V248ZM423 283Q423 328 409
371T364 442T282 471Q207 471 167 418T119 283H423Z" />
<glyph unicode="&#xec;" glyph-name="igrave" horiz-adv-x="323" d="M75 666Q41 686 41 709Q41 720 49 728T73 736Q95 736 117 714L233 607L217 584L75 666ZM36 11Q55 18 82 23T116 30V463Q76 470 46 480V488L206 504V30Q252 22 286 11V0H36V11Z" />
<glyph unicode="&#xed;" glyph-name="iacute" horiz-adv-x="323" d="M61 607L175 713Q198 736 220 736Q235 736 243 728T251 709Q251 686 219 666L77 584L61 607ZM36 11Q55 18 82 23T116 30V463Q76 470 46 480V488L206 504V30Q252 22 286 11V0H36V11Z" />
<glyph unicode="&#xee;" glyph-name="icircumflex" horiz-adv-x="323" d="M8 610Q40 632 79 667T139 732H182Q203 703 242 667T313 610L275 578Q245 600 214 630T163 687H158Q139 661 107 631T45 578L8 610ZM36 11Q55 18 82 23T116 30V463Q76 470 46 480V488L206
504V30Q252 22 286 11V0H36V11Z" />
<glyph unicode="&#xef;" glyph-name="idieresis" horiz-adv-x="323" d="M31 583T19 595T6 628Q6 649 18 662T50 675Q70 675 82 662T95 628Q95 608 83 596T50 583Q31 583 19 595ZM250 583T238 595T226 628Q226 649 238 662T270 675Q290 675 302 662T315 628Q315
608 303 596T270 583Q250 583 238 595ZM36 11Q55 18 82 23T116 30V463Q76 470 46 480V488L206 504V30Q252 22 286 11V0H36V11Z" />
<glyph unicode="&#xf0;" glyph-name="eth" horiz-adv-x="597" d="M453 593T502 493T552 292Q552 150 486 70T289 -10Q212 -10 157 25T74 119T45 248Q45 310 72 368T155 464T294 502Q340 502 383 483T453 426Q437 482 402 539T317 644L152 551L137 593L282 676Q230
717 170 744L196 777Q269 747 327 702Q395 741 458 780L485 739L365 671Q453 593 502 493ZM344 25T383 57T442 146T462 270Q462 321 441 366T383 439T298 466Q251 466 214 438T156 360T135 248Q135 188 153 137T207 56T291 25Q344 25 383 57Z" />
<glyph unicode="&#xf1;" glyph-name="ntilde" horiz-adv-x="660" d="M219 641T202 626T179 584H146Q153 635 178 659T244 684Q265 684 284 676T330 653Q349 641 363 635T390 629Q413 629 430 643T455 689H487Q480 640 456 613T388 585Q371 585 355 592T307 615Q285
628 270 634T242 641Q219 641 202 626ZM607 23T640 11V0H394V11Q437 25 470 30V358Q470 418 441 444T364 471Q324 471 280 451T201 392V30Q241 24 281 11V0H31V11Q71 24 111 30V464Q69 472 41 482V489L201 506V430Q236 464 286 485T395 507Q469 507 514 469T560
366V30Q607 23 640 11Z" />
<glyph unicode="&#xf2;" glyph-name="ograve" horiz-adv-x="580" d="M223 666Q189 686 189 709Q189 720 197 728T221 736Q243 736 265 714L381 607L365 584L223 666ZM165 -10T96 58T26 248Q26 370 95 438T290 507Q414 507 483 439T553 248Q553 126 484 58T290
-10Q165 -10 96 58ZM369 25T416 84T463 248Q463 352 416 411T290 471Q209 471 163 412T116 248Q116 144 162 85T290 25Q369 25 416 84Z" />
<glyph unicode="&#xf3;" glyph-name="oacute" horiz-adv-x="580" d="M197 607L311 713Q334 736 356 736Q371 736 379 728T387 709Q387 686 355 666L213 584L197 607ZM165 -10T96 58T26 248Q26 370 95 438T290 507Q414 507 483 439T553 248Q553 126 484 58T290
-10Q165 -10 96 58ZM369 25T416 84T463 248Q463 352 416 411T290 471Q209 471 163 412T116 248Q116 144 162 85T290 25Q369 25 416 84Z" />
<glyph unicode="&#xf4;" glyph-name="ocircumflex" horiz-adv-x="580" d="M137 610Q169 632 208 667T268 732H311Q332 703 371 667T442 610L404 578Q374 600 343 630T292 687H287Q268 661 236 631T174 578L137 610ZM165 -10T96 58T26 248Q26 370 95 438T290 507Q414
507 483 439T553 248Q553 126 484 58T290 -10Q165 -10 96 58ZM369 25T416 84T463 248Q463 352 416 411T290 471Q209 471 163 412T116 248Q116 144 162 85T290 25Q369 25 416 84Z" />
<glyph unicode="&#xf5;" glyph-name="otilde" horiz-adv-x="580" d="M125 635T150 659T216 684Q237 684 256 676T302 653Q321 641 335 635T362 629Q385 629 402 643T427 689H459Q452 640 428 613T360 585Q343 585 327 592T279 615Q257 628 242 634T214 641Q191
641 174 626T151 584H118Q125 635 150 659ZM165 -10T96 58T26 248Q26 370 95 438T290 507Q414 507 483 439T553 248Q553 126 484 58T290 -10Q165 -10 96 58ZM369 25T416 84T463 248Q463 352 416 411T290 471Q209 471 163 412T116 248Q116 144 162 85T290 25Q369
25 416 84Z" />
<glyph unicode="&#xf6;" glyph-name="odieresis" horiz-adv-x="580" d="M160 583T148 595T135 628Q135 649 147 662T179 675Q199 675 211 662T224 628Q224 608 212 596T179 583Q160 583 148 595ZM379 583T367 595T355 628Q355 649 367 662T399 675Q419 675 431
662T444 628Q444 608 432 596T399 583Q379 583 367 595ZM165 -10T96 58T26 248Q26 370 95 438T290 507Q414 507 483 439T553 248Q553 126 484 58T290 -10Q165 -10 96 58ZM369 25T416 84T463 248Q463 352 416 411T290 471Q209 471 163 412T116 248Q116 144 162 85T290
25Q369 25 416 84Z" />
<glyph unicode="&#xf7;" glyph-name="divide" horiz-adv-x="588" d="M267 445T253 460T238 500Q238 524 252 538T291 553Q316 553 330 539T345 500Q345 476 331 461T291 445Q267 445 253 460ZM55 358H533V310H55V358ZM266 115T251 130T236 168Q236 192 250 207T290
222Q315 222 329 207T344 168Q344 144 330 130T290 115Q266 115 251 130Z" />
<glyph unicode="&#xf8;" glyph-name="oslash" horiz-adv-x="580" d="M509 420T531 368T553 248Q553 126 484 58T290 -10Q204 -10 144 23L102 -33L71 -10L111 44Q70 77 48 129T26 248Q26 370 95 438T290 507Q374 507 433 475L470 525L503 501L467 453Q509 420 531
368ZM116 157T152 99L399 430Q356 471 290 471Q209 471 163 412T116 248Q116 157 152 99ZM369 25T416 84T463 248Q463 339 426 398L178 68Q223 25 290 25Q369 25 416 84Z" />
<glyph unicode="&#xf9;" glyph-name="ugrave" horiz-adv-x="633" d="M213 686T213 709Q213 720 221 728T245 736Q267 736 289 714L405 607L389 584L247 666Q213 686 213 709ZM569 27T610 15V7L450 -9V56Q413 28 365 9T263 -10Q184 -10 138 27T92 129V464Q48 472
22 482V489L182 506V139Q182 79 210 52T288 25Q325 25 370 44T450 93V464Q408 472 381 482V489L540 506V31Q569 27 610 15Z" />
<glyph unicode="&#xfa;" glyph-name="uacute" horiz-adv-x="633" d="M248 584L232 607L346 713Q369 736 391 736Q406 736 414 728T422 709Q422 686 390 666L248 584ZM569 27T610 15V7L450 -9V56Q413 28 365 9T263 -10Q184 -10 138 27T92 129V464Q48 472 22 482V489L182
506V139Q182 79 210 52T288 25Q325 25 370 44T450 93V464Q408 472 381 482V489L540 506V31Q569 27 610 15Z" />
<glyph unicode="&#xfb;" glyph-name="ucircumflex" horiz-adv-x="633" d="M288 661T256 631T194 578L157 610Q189 632 228 667T288 732H331Q352 703 391 667T462 610L424 578Q394 600 363 630T312 687H307Q288 661 256 631ZM569 27T610 15V7L450 -9V56Q413 28
365 9T263 -10Q184 -10 138 27T92 129V464Q48 472 22 482V489L182 506V139Q182 79 210 52T288 25Q325 25 370 44T450 93V464Q408 472 381 482V489L540 506V31Q569 27 610 15Z" />
<glyph unicode="&#xfc;" glyph-name="udieresis" horiz-adv-x="633" d="M180 583T168 595T155 628Q155 649 167 662T199 675Q219 675 231 662T244 628Q244 608 232 596T199 583Q180 583 168 595ZM399 583T387 595T375 628Q375 649 387 662T419 675Q439 675 451
662T464 628Q464 608 452 596T419 583Q399 583 387 595ZM569 27T610 15V7L450 -9V56Q413 28 365 9T263 -10Q184 -10 138 27T92 129V464Q48 472 22 482V489L182 506V139Q182 79 210 52T288 25Q325 25 370 44T450 93V464Q408 472 381 482V489L540 506V31Q569 27 610
15Z" />
<glyph unicode="&#xfd;" glyph-name="yacute" horiz-adv-x="564" d="M226 584L210 607L324 713Q347 736 369 736Q384 736 392 728T400 709Q400 686 368 666L226 584ZM559 498V487Q534 478 490 470L297 -46Q277 -100 260 -130T214 -176T140 -192Q92 -192 48 -174L62
-130Q106 -144 139 -144Q169 -144 187 -134T220 -100T253 -27L264 3L72 471Q28 476 5 487V498H237V486Q213 477 158 469L299 97L437 471Q397 474 364 486V498H559Z" />
<glyph unicode="&#xfe;" glyph-name="thorn" horiz-adv-x="602" d="M8 -231Q39 -222 89 -213V666Q49 673 19 682V691L179 707V433Q217 476 262 491T349 507Q457 507 516 445T576 261Q576 122 515 56T340 -10Q289 -10 246 8T179 64V-213Q219 -219 259 -232V-244H8V-231ZM411
25T448 88T485 256Q485 364 449 417T328 471Q284 471 246 448T179 388V169Q179 130 196 97T248 45T328 25Q411 25 448 88Z" />
<glyph unicode="&#xff;" glyph-name="ydieresis" horiz-adv-x="564" d="M163 583T151 595T138 628Q138 649 150 662T182 675Q202 675 214 662T227 628Q227 608 215 596T182 583Q163 583 151 595ZM382 583T370 595T358 628Q358 649 370 662T402 675Q422 675 434
662T447 628Q447 608 435 596T402 583Q382 583 370 595ZM559 498V487Q534 478 490 470L297 -46Q277 -100 260 -130T214 -176T140 -192Q92 -192 48 -174L62 -130Q106 -144 139 -144Q169 -144 187 -134T220 -100T253 -27L264 3L72 471Q28 476 5 487V498H237V486Q213
477 158 469L299 97L437 471Q397 474 364 486V498H559Z" />
<glyph unicode="&#x2013;" glyph-name="endash" horiz-adv-x="636" d="M43 304H592V251H43V304Z" />
<glyph unicode="&#x2014;" glyph-name="emdash" horiz-adv-x="960" d="M43 304H917V251H43V304Z" />
<glyph unicode="&#x2018;" glyph-name="quoteleft" horiz-adv-x="244" d="M96 472T80 493T63 545Q63 586 85 634T140 712L173 688Q128 634 123 578Q131 580 134 580Q156 580 171 566T186 530Q186 505 171 489T129 472Q96 472 80 493Z" />
<glyph unicode="&#x2019;" glyph-name="quoteright" horiz-adv-x="244" d="M76 494Q96 517 109 545T126 604Q121 602 112 602Q92 602 78 616T63 651Q63 676 78 693T120 710Q153 710 169 689T186 637Q186 596 164 548T109 469L76 494Z" />
<glyph unicode="&#x201a;" glyph-name="quotesinglbase" horiz-adv-x="244" d="M76 -7Q96 16 109 44T126 102Q121 101 112 101Q92 101 78 115T63 150Q63 175 78 191T120 208Q153 208 169 187T186 135Q186 94 164 46T109 -32L76 -7Z" />
<glyph unicode="&#x201c;" glyph-name="quotedblleft" horiz-adv-x="397" d="M96 472T80 493T63 545Q63 586 85 634T140 712L173 688Q128 634 123 578Q131 580 134 580Q156 580 171 566T186 530Q186 505 171 489T129 472Q96 472 80 493ZM249 472T233 493T216 545Q216
586 238 634T293 712L326 688Q281 634 276 578Q284 580 287 580Q309 580 324 566T339 530Q339 505 324 489T282 472Q249 472 233 493Z" />
<glyph unicode="&#x201d;" glyph-name="quotedblright" horiz-adv-x="397" d="M76 494Q96 517 109 545T126 604Q121 602 112 602Q92 602 78 616T63 651Q63 676 78 693T120 710Q153 710 169 689T186 637Q186 596 164 548T109 469L76 494ZM239 494Q259 517 272 545T289
604Q284 602 275 602Q255 602 241 616T226 651Q226 676 241 693T283 710Q316 710 332 689T349 637Q349 596 327 548T272 469L239 494Z" />
<glyph unicode="&#x201e;" glyph-name="quotedblbase" horiz-adv-x="397" d="M76 -7Q96 16 109 44T126 102Q121 101 112 101Q92 101 78 115T63 150Q63 175 78 191T120 208Q153 208 169 187T186 135Q186 94 164 46T109 -32L76 -7ZM239 -7Q259 16 272 44T289 102Q284
101 275 101Q255 101 241 115T226 150Q226 175 241 191T283 208Q316 208 332 187T349 135Q349 94 327 46T272 -32L239 -7Z" />
<glyph unicode="&#x2022;" glyph-name="bullet" horiz-adv-x="271" d="M104 271T85 292T65 347Q65 382 84 402T136 423Q168 423 187 403T206 347Q206 314 187 293T136 271Q104 271 85 292Z" />
<glyph unicode="&#x2039;" glyph-name="guilsinglleft" horiz-adv-x="305" d="M151 162T38 252V271Q156 369 230 483L267 428Q246 391 207 347T122 262Q168 223 207 178T267 96L230 42Q151 162 38 252Z" />
<glyph unicode="&#x203a;" glyph-name="guilsinglright" horiz-adv-x="305" d="M38 96Q59 133 98 178T183 262Q137 302 98 346T38 428L75 483Q149 369 267 271V252Q154 162 75 42L38 96Z" />
</font>
</defs>
</svg>
