<?xml version="1.0" standalone="no"?>
<!DOCTYPE svg PUBLIC "-//W3C//DTD SVG 1.1//EN" "http://www.w3.org/Graphics/SVG/1.1/DTD/svg11.dtd">
<svg xmlns="http://www.w3.org/2000/svg">
<defs >
<font id="DavidLibre" horiz-adv-x="1029" ><font-face
    font-family="David Libre"
    units-per-em="2048"
    panose-1="0 0 5 0 0 0 0 0 0 0"
    ascent="1528"
    descent="-449"
    alphabetic="0" />
<glyph unicode=" " glyph-name="space" horiz-adv-x="420" />
<glyph unicode="!" glyph-name="exclam" horiz-adv-x="736" d="M326 602Q287 1038 287 1084Q287 1114 298 1131Q328 1182 352 1215T403 1271Q414 1279 421 1279Q427 1279 431 1274T436 1260L438 1157Q441 947 441 944V525Q441 503 438 489Q429 460 412 429T382
376Q380 374 376 368T364 362Q347 362 342 414L326 602ZM270 74T270 82Q270 91 276 97Q336 157 364 199Q370 208 380 208Q385 208 389 205T396 200Q406 193 446 155Q489 114 500 108Q515 97 515 86Q515 81 512 75T506 65Q496 46 463 9T412 -39Q406 -43 400 -43Q393
-43 387 -39Q369 -29 335 3T279 61Q270 74 270 82Z" />
<glyph unicode="&quot;" glyph-name="quotedbl" horiz-adv-x="1009" d="M221 939Q221 957 222 968T229 987Q286 1055 344 1113Q353 1122 364 1122Q373 1122 378 1113Q383 1103 385 1087T389 1062L391 1031Q392 1010 393 982T395 925Q395 907 385 837Q376 761 332
487Q327 459 303 459Q296 459 289 466T282 489L221 939ZM641 939Q641 957 642 968T650 987Q697 1043 765 1113Q775 1122 785 1122Q792 1122 799 1113Q804 1105 806 1096T808 1077T810 1062Q812 1036 814 998T816 925Q816 909 810 865L807 837Q796 753 753 487Q748
459 724 459Q717 459 710 466T703 489L641 939Z" />
<glyph unicode="#" glyph-name="numbersign" horiz-adv-x="1022" d="M735 1255T740 1267T756 1286L803 1319Q807 1321 817 1328T835 1335Q848 1335 848 1320Q848 1313 844 1296T837 1268Q828 1235 828 1235Q760 937 760 941Q760 937 762 936T769 934H975Q1002
934 1002 916Q1002 907 993 893Q975 865 953 837T910 785Q899 771 865 771H737Q726 771 722 768T717 756L662 491Q662 482 670 482H864Q891 482 891 464Q891 457 882 441Q855 398 816 353Q800 334 799 333Q787 319 754 319H636Q624 319 623 313T620 306Q613 272
595 175Q590 148 583 111T566 29Q557 -17 541 -38Q536 -44 521 -60T489 -95Q468 -118 460 -118Q451 -118 446 -114T441 -101Q441 -95 447 -72T459 -29Q484 66 515 186T547 312Q547 319 536 319H317Q309 319 306 316T301 305L242 29Q231 -20 217 -38Q212 -44 197
-60T165 -95Q142 -118 137 -118Q127 -118 122 -114T116 -101Q116 -95 122 -72T135 -29Q196 183 224 306Q224 319 214 319H17Q-9 319 -9 335Q-9 343 -5 349Q15 381 42 415T88 468Q104 482 125 482H255Q269 482 269 493Q283 551 307 673L325 760Q325 764 322 767T315
771H129Q102 771 102 787Q102 793 106 801Q126 833 153 867T199 920Q217 934 236 934H346Q360 934 362 948L414 1236Q419 1274 439 1286L486 1319Q495 1325 503 1330T518 1335Q530 1335 530 1320Q530 1310 518 1264L511 1235Q474 1077 460 1014T443 941Q443 934
455 934H665Q676 934 681 948L708 1098L732 1236Q735 1255 740 1267ZM342 489Q342 482 355 482H568Q578 482 583 485T588 494L601 554Q643 754 643 761Q643 765 640 768T631 771H417Q412 771 408 767T402 756L342 489Z" />
<glyph unicode="$" glyph-name="dollar" horiz-adv-x="1020" d="M94 58T90 51T86 39Q86 29 99 22Q144 -4 243 -17T416 -31Q429 -31 432 -35T436 -52Q436 -102 432 -202Q428 -300 428 -347Q428 -356 431 -363T443 -371Q451 -371 459 -364Q499 -313 511 -285Q516
-273 518 -265T520 -240Q520 -206 518 -134Q516 -64 516 -31Q516 -24 518 -22T524 -18T532 -14Q625 27 700 102T818 258T860 395Q860 479 812 537T676 638Q599 677 522 720Q513 725 508 733T503 749V1081Q503 1087 508 1091T520 1096Q550 1096 576 1089T642 1068L672
1057Q679 1054 690 1054Q703 1054 713 1065Q728 1078 756 1116T799 1180Q807 1191 807 1199Q807 1203 804 1208T795 1217Q727 1242 662 1253T513 1264Q503 1264 503 1269L502 1327Q501 1343 501 1371Q501 1388 499 1393T487 1399Q484 1399 479 1394Q458 1371 445
1351T428 1327Q419 1312 419 1292V1257Q419 1249 416 1245T403 1238Q346 1218 310 1194T250 1145T192 1072Q154 1021 137 969T120 860Q120 749 195 694Q235 663 309 622T428 559Q439 555 439 543L438 151Q438 131 423 131Q391 131 330 146T226 176Q208 181 200
181Q195 181 188 174Q124 104 95 61Q94 58 90 51ZM244 995T265 1027T324 1077T407 1096Q424 1096 424 1074Q424 1038 428 912Q432 804 432 788Q432 782 429 778T421 774Q417 774 416 776L390 789Q344 812 315 831T265 881T244 956Q244 995 265 1027ZM511 316Q508
430 508 496Q508 501 511 504T518 508Q522 508 523 506Q546 494 584 470T643 431Q668 412 684 375T701 292Q701 257 684 223T645 169Q623 149 589 138T529 127Q513 127 513 145L511 316Z" />
<glyph unicode="%" glyph-name="percent" horiz-adv-x="1020" d="M189 715T228 691T312 667Q376 667 424 714T501 817Q526 862 547 927T568 1050Q568 1127 547 1183T472 1278Q453 1290 437 1295T398 1301Q358 1301 323 1281Q280 1256 229 1203T156 1113Q138 1083
127 1047T115 949Q115 872 130 828T169 747Q189 715 228 691ZM116 26T116 18Q116 0 137 0Q145 0 149 2Q164 7 186 21T231 52Q243 61 252 78T277 135Q325 243 530 591L550 624Q600 705 748 963T908 1257Q916 1277 916 1285Q916 1296 905 1296Q893 1296 880 1289Q824
1254 797 1235Q785 1226 778 1217T763 1190Q737 1129 640 946T436 586Q218 217 122 36Q116 26 116 18ZM294 816T265 870T236 1002Q236 1069 255 1116T315 1163Q391 1163 423 1096Q430 1081 436 1034T443 948Q443 877 422 847T351 816Q294 816 265 870ZM541 44T579
20T662 -4Q726 -4 773 42T851 147Q876 192 897 257T918 380Q918 448 897 509T828 602Q785 631 747 631Q727 631 710 625T674 609Q628 583 582 535T508 445Q464 381 462 287Q462 202 478 156T518 77Q541 44 579 20ZM644 145T615 197T586 325Q586 397 604 445T663
493Q698 493 727 477T773 424Q780 408 787 362T794 277Q794 207 773 176T699 145Q644 145 615 197Z" />
<glyph unicode="&amp;" glyph-name="ampersand" horiz-adv-x="1357" d="M589 1291T647 1291Q691 1290 729 1268T792 1199T816 1082Q816 1004 751 925T604 783L619 763Q650 722 758 576T961 315Q988 348 1006 396T1025 489Q1025 540 1013 575T980 650Q977 659 977
663Q977 673 985 681Q1010 707 1049 745T1104 797Q1106 799 1109 802T1115 805Q1122 805 1129 792Q1143 765 1155 711T1168 606Q1168 507 1131 425T1019 249Q1091 156 1147 99Q1149 97 1154 91T1159 82Q1159 80 1154 77Q1102 45 1029 5Q1015 -2 1005 -2Q999 -2
995 1T989 5Q971 23 931 71T884 131Q828 93 782 67T673 21T539 0Q462 0 382 39T247 162T193 369Q193 463 237 541T331 668T417 740Q397 773 384 797T355 865Q339 908 339 975Q339 1054 393 1132T525 1255Q589 1291 647 1291ZM459 1046T478 1003T535 896L557 858Q613
901 641 944T670 1045Q670 1077 653 1106T608 1152T554 1170Q518 1170 489 1152T459 1093Q459 1046 478 1003ZM344 335T382 270T487 166T640 127Q703 127 753 151T831 199Q786 248 640 438T472 665Q447 649 418 616T367 531T344 414Q344 335 382 270Z" />
<glyph unicode="&apos;" glyph-name="quotesingle" horiz-adv-x="556" d="M221 939Q221 957 222 968T229 987Q286 1055 344 1113Q353 1122 364 1122Q373 1122 378 1113Q383 1103 385 1087T389 1062L391 1031Q392 1010 393 982T395 925Q395 895 385 837Q372 753
367 716Q359 667 351 609T332 487Q327 459 303 459Q296 459 289 466T282 489L221 939Z" />
<glyph unicode="(" glyph-name="parenleft" horiz-adv-x="736" d="M317 458T335 358T385 176Q418 90 458 21T552 -127Q564 -146 564 -159Q564 -172 561 -179Q524 -254 491 -299Q483 -310 473 -310Q463 -310 455 -299Q315 -113 248 52Q210 143 190 254T169 448Q169
529 184 599T220 722T274 846Q295 889 342 972T402 1075Q427 1122 453 1156Q465 1169 493 1197T545 1243Q549 1246 554 1248T563 1251Q575 1251 575 1235Q575 1230 530 1143T471 1030L424 941Q373 829 345 730T317 536Q317 458 335 358Z" />
<glyph unicode=")" glyph-name="parenright" horiz-adv-x="736" d="M575 375T547 280T470 91Q440 33 399 -42T346 -135Q322 -175 291 -215Q279 -228 251 -256T199 -303Q185 -310 181 -310Q169 -310 169 -294Q169 -288 260 -115Q277 -81 293 -50T319 0Q370 111
398 211T426 405Q426 482 408 582T359 765Q326 851 286 920T192 1068Q187 1076 183 1084T179 1100Q179 1113 183 1120Q222 1198 253 1240Q261 1251 270 1251Q281 1251 289 1240Q353 1153 405 1070T496 889Q534 797 554 686T575 493Q575 375 547 280Z" />
<glyph unicode="*" glyph-name="asterisk" horiz-adv-x="736" d="M369 1132T364 1132Q361 1132 355 1129Q349 1126 323 1107Q308 1097 289 1085T265 1070Q263 1068 258 1068Q253 1068 249 1072T244 1082Q244 1090 251 1110T262 1138Q276 1170 276 1178Q276 1193
270 1199Q252 1214 225 1231T195 1251Q188 1257 188 1264Q188 1276 202 1276H292Q312 1276 317 1292L326 1319Q331 1334 340 1360T351 1389Q354 1399 364 1399Q368 1399 371 1397T376 1389L387 1361Q409 1302 412 1292Q417 1276 438 1276H523Q537 1276 537 1264Q537
1261 534 1257T527 1249Q483 1220 459 1199Q453 1193 453 1178Q453 1169 466 1136Q482 1096 482 1084Q482 1077 479 1073T470 1068Q469 1068 468 1069T464 1070Q454 1074 396 1115Q389 1120 384 1123T375 1129Q369 1132 364 1132Z" />
<glyph unicode="+" glyph-name="plus" horiz-adv-x="1022" d="M147 500Q130 500 124 507T118 527V604Q118 619 124 626T147 633Q175 632 259 631T445 627L439 927Q439 951 468 951H545Q558 951 564 945T571 923Q570 891 568 791T566 627Q635 627 738 629T874 633Q888
633 894 628T900 604V527Q900 514 894 507T871 500Q837 500 746 502T566 506L571 199Q571 183 565 177T545 171H468Q453 171 446 177T439 199Q440 229 441 316T445 506L147 500Z" />
<glyph unicode="," glyph-name="comma" horiz-adv-x="736" d="M310 16T303 46T285 108Q284 111 283 114T282 122Q282 130 287 138Q301 159 332 198T387 265Q395 272 403 272Q413 272 417 263Q437 230 456 180T475 81Q475 11 441 -72Q431 -96 387 -177T301 -324T248
-390Q241 -390 235 -387T229 -378Q229 -370 252 -285Q280 -183 295 -119T310 -22Q310 16 303 46Z" />
<glyph unicode="-" glyph-name="hyphen" horiz-adv-x="734" d="M185 583T193 585T215 588H636Q663 588 663 570Q663 560 652 545Q606 473 571 434Q563 424 554 422T527 420H104Q77 420 77 435Q77 444 81 450Q101 483 129 520T174 574Q185 583 193 585Z" />
<glyph unicode="." glyph-name="period" horiz-adv-x="736" d="M244 74T244 82Q244 90 249 97Q275 122 299 150T337 199Q343 208 353 208Q360 208 364 205T369 200Q379 193 419 155Q462 114 473 108Q487 96 487 86Q487 80 484 74T479 65Q470 48 437 10T385 -39Q379
-43 373 -43Q367 -43 361 -39Q341 -28 307 4T253 61Q244 74 244 82Z" />
<glyph unicode="/" glyph-name="slash" horiz-adv-x="736" d="M434 809T541 1096Q547 1113 553 1124T571 1145L638 1201Q660 1219 674 1219Q679 1219 682 1215T686 1206Q686 1201 683 1190T677 1170Q662 1132 539 832L407 508L388 459Q257 126 199 -7Q185 -39
173 -65T151 -101Q146 -106 123 -126T81 -156Q68 -163 61 -163Q41 -163 41 -145Q41 -139 48 -118Q64 -79 81 -40T114 36Q128 69 187 205T301 479Q434 809 541 1096Z" />
<glyph unicode="0" glyph-name="zero" horiz-adv-x="1022" d="M135 739T160 870T248 1084Q294 1144 333 1182T419 1244T523 1267Q619 1267 701 1210T830 1074Q877 994 892 880T908 629Q908 506 884 407Q860 320 821 234T708 77Q670 42 644 22T579 -14T491 -29Q406
-29 341 13T224 138Q184 203 160 339T135 609Q135 739 160 870ZM591 147T621 156T667 185Q688 210 702 257T725 362Q747 498 747 619Q747 768 713 901Q691 992 624 1046T466 1100Q407 1100 378 1067T337 993Q294 858 294 656Q294 558 308 458T344 292Q357 256 387
223T462 168T561 147Q591 147 621 156Z" />
<glyph unicode="1" glyph-name="one" horiz-adv-x="1022" d="M135 94T171 144Q178 156 187 161T219 166H375Q402 166 422 187T443 246Q443 285 444 305L445 368Q445 675 421 887Q406 1023 310 1023H235Q217 1023 204 1029T190 1050Q190 1060 197 1068Q247 1113
343 1177T515 1279Q524 1286 541 1286Q557 1286 567 1277T581 1249Q590 1186 595 1062T600 903Q600 850 602 762T605 576Q611 274 611 228Q611 198 623 182T665 166H864Q871 166 877 161T884 147Q884 143 876 131Q863 110 847 90T812 47Q814 49 790 22Q777 5 768
2T737 -2H135Q113 -2 102 0T91 12Q91 19 97 29Q135 94 171 144Z" />
<glyph unicode="2" glyph-name="two" horiz-adv-x="1022" d="M194 122T246 203T368 380L400 424Q420 453 455 500Q509 573 544 625T604 735T629 844Q629 881 613 921T564 995T487 1045Q445 1061 370 1071T233 1082Q219 1082 211 1086T202 1098Q202 1101 205 1106T210
1115Q228 1145 310 1247Q315 1253 326 1260T351 1267Q383 1267 416 1264Q526 1251 610 1220T747 1124Q788 1076 806 1033T824 918Q824 847 781 770T658 595Q616 543 557 454T455 288T410 190Q410 183 414 178T423 172H882Q901 172 901 159Q901 150 896 144Q880
115 854 74T810 14Q802 7 796 5T780 2H192Q161 2 161 24Q161 27 165 41Q194 122 246 203Z" />
<glyph unicode="3" glyph-name="three" horiz-adv-x="1022" d="M230 163T237 172T249 181Q251 181 253 180T256 179Q387 138 460 138Q586 138 652 204Q675 228 691 268T708 342Q708 400 688 440T624 516Q587 546 500 567T335 588Q325 588 325 599Q325 605 328
609L352 643Q388 697 405 715Q421 732 459 742Q494 751 535 775T605 838T634 921Q634 975 607 1000T539 1043Q489 1065 412 1078T249 1091Q228 1091 228 1108Q228 1116 233 1125Q254 1156 339 1255Q351 1267 366 1267Q397 1267 460 1259T592 1231T704 1178Q754
1140 773 1098T792 1002Q792 938 754 871T629 746Q622 740 622 735Q622 731 627 726T640 718Q711 696 763 653T843 553T871 438Q871 338 814 235T674 65Q614 17 547 -5T416 -27Q348 -27 274 -12T158 22Q150 25 144 29T138 38Q138 40 140 44T144 50Q159 76 186 111T226
159Q230 163 237 172Z" />
<glyph unicode="4" glyph-name="four" horiz-adv-x="1022" d="M563 370T556 375T530 380H171Q129 380 110 418T91 506Q91 559 118 640T179 797T233 908Q304 1033 392 1123T600 1279Q611 1286 626 1286Q642 1286 654 1276T669 1249Q683 1132 688 972T697 604V571Q698
558 703 554T717 550H916Q934 550 934 537Q934 529 930 523Q917 501 896 467T855 403Q847 392 839 387T816 382H718Q707 382 704 379T701 366Q701 339 702 313L703 144Q703 120 694 101Q648 10 606 -36Q595 -45 588 -45Q579 -45 574 -38T568 -16Q568 123 564 285L563
355Q563 370 556 375ZM522 1043T501 1043Q492 1043 480 1036Q435 1013 403 982T340 910Q301 853 257 750T212 607Q212 579 222 565T251 550H541Q547 550 552 556T557 571Q556 647 548 780T523 1019Q522 1043 501 1043Z" />
<glyph unicode="5" glyph-name="five" horiz-adv-x="1022" d="M234 183T248 183Q251 183 265 179Q305 165 372 155T486 144Q528 144 561 153T620 185Q654 213 676 260T699 357Q699 405 675 449T611 523Q574 551 513 563T368 575H294Q255 575 236 592T215 634Q210
727 209 817T207 1041Q207 1049 205 1064T202 1091Q202 1118 210 1134L224 1163Q247 1210 260 1234T291 1278Q296 1286 308 1286Q326 1286 332 1276Q358 1229 369 1215Q375 1208 382 1206T402 1204H812Q828 1204 835 1199T843 1185Q843 1182 840 1175T833 1163Q827
1155 815 1134Q780 1076 760 1048Q752 1039 743 1036T717 1033H376Q359 1033 352 1027T344 1005Q345 976 346 909T349 799Q349 777 362 762T393 746H503Q573 746 654 713T793 610T851 432Q851 376 832 324T772 205T761 190Q696 92 602 32T403 -29Q343 -29 271 -16T152
20Q142 25 139 29T135 39Q135 48 142 60Q194 134 226 172Q234 183 248 183Z" />
<glyph unicode="6" glyph-name="six" horiz-adv-x="1022" d="M253 728T377 910T588 1190Q599 1203 613 1212T633 1224Q661 1240 709 1261T774 1283Q790 1283 790 1271Q790 1263 778 1246T741 1195L724 1172Q672 1101 547 921T421 727Q421 725 422 724T426 722Q427
723 469 752T593 781Q728 781 821 684Q868 638 893 570T918 414Q918 327 869 238T744 82Q617 -29 473 -29Q382 -29 300 25T168 166T118 342Q118 416 139 478T199 619Q253 728 377 910ZM685 573T630 602T509 631Q447 631 393 603T305 523T272 405Q272 331 307 269T405
171T541 135Q606 135 657 165T736 248T765 369Q765 408 755 450T722 522Q685 573 630 602Z" />
<glyph unicode="7" glyph-name="seven" horiz-adv-x="1022" d="M268 245T314 329T457 575L486 624Q576 776 626 872T676 1012Q676 1023 669 1027T648 1031H127Q111 1031 100 1042T88 1068Q88 1072 90 1076T93 1082Q123 1136 161 1188T231 1274Q235 1278 241 1282T251
1286Q268 1286 274 1264Q282 1235 291 1223T317 1208T373 1204H900Q920 1204 926 1197T932 1180Q932 1157 898 1084Q870 1023 818 940T679 726Q667 708 658 695T643 672Q576 572 519 465T436 277Q425 245 417 214T409 171Q409 145 390 120Q368 87 328 47T248 -25Q241
-31 233 -36T219 -41Q212 -41 208 -37T204 -25Q204 71 244 183Q268 245 314 329Z" />
<glyph unicode="8" glyph-name="eight" horiz-adv-x="1022" d="M116 438T173 509T323 633Q333 637 333 645Q333 649 330 652Q270 683 225 746T179 910Q179 942 190 983T222 1052Q248 1093 295 1141T378 1213Q410 1237 448 1252T539 1267Q617 1267 682 1232T786
1135T824 997Q824 918 782 848T676 730L657 716Q643 707 638 701Q636 699 636 694Q636 685 641 683Q667 669 705 643T774 593Q823 554 852 497T882 376Q882 318 855 253T780 133Q725 69 640 20T480 -29Q421 -29 345 2T217 88Q116 192 116 326Q116 438 173 509ZM596
788T633 834T670 937Q670 981 641 1021T564 1086T464 1111Q423 1111 395 1086T354 1023T340 946Q340 883 383 839T486 767Q514 753 523 753Q533 753 537 756Q596 788 633 834ZM717 384T693 424T631 489Q602 508 563 529T481 572Q476 574 452 586Q448 588 443 588Q438
588 434 586Q408 577 372 551T306 481T277 380Q277 312 311 257T406 169T545 137Q631 137 674 189T717 335Q717 384 693 424Z" />
<glyph unicode="9" glyph-name="nine" horiz-adv-x="1022" d="M586 466T579 466Q575 465 539 454T453 443Q392 443 334 466T228 537Q116 651 116 814Q116 895 142 962T221 1098Q275 1171 360 1219T536 1267Q636 1267 725 1214T869 1073T923 884Q923 796 893 711T810
537Q768 467 680 336T545 140Q526 114 500 88Q483 73 437 40T346 -19T285 -45Q276 -45 272 -38T267 -22Q267 -12 274 0Q303 44 345 103Q586 450 586 457Q586 466 579 466ZM415 1104T368 1076T292 1002Q262 955 262 872Q262 801 284 750T349 660Q383 630 435 613T537
595Q587 595 620 608T683 650Q715 683 735 732T756 844Q756 923 717 982T612 1072T470 1104Q415 1104 368 1076Z" />
<glyph unicode=":" glyph-name="colon" horiz-adv-x="736" d="M244 500T244 509Q244 518 249 523Q274 548 298 576T337 626Q343 634 353 634Q358 634 362 632T369 627Q383 617 422 580Q458 544 473 534Q487 524 487 513Q487 507 484 500T479 491Q470 474 437 436T385
387Q379 383 373 383Q367 383 361 387Q341 398 307 430T253 487Q244 500 244 509ZM244 74T244 82Q244 90 249 97Q275 122 299 150T337 199Q343 208 353 208Q360 208 364 205T369 200Q379 193 419 155Q462 114 473 108Q487 96 487 86Q487 80 484 74T479 65Q470 48
437 10T385 -39Q379 -43 373 -43Q367 -43 361 -39Q341 -28 307 4T253 61Q244 74 244 82Z" />
<glyph unicode=";" glyph-name="semicolon" horiz-adv-x="736" d="M244 569T241 575T238 586Q238 596 244 600Q300 658 332 703Q338 711 347 711Q355 711 364 704Q378 694 417 657Q453 621 468 611Q482 601 482 590Q482 584 478 578T473 568Q464 551 431 513T380
464Q372 460 368 460Q363 460 355 464Q336 476 302 508T248 564Q244 569 241 575ZM310 16T303 46T285 108Q284 111 283 114T282 122Q282 130 287 138Q301 159 332 198T387 265Q395 272 403 272Q413 272 417 263Q437 230 456 180T475 81Q475 11 441 -72Q431 -96
387 -177T301 -324T248 -390Q241 -390 235 -387T229 -378Q229 -370 252 -285Q280 -183 295 -119T310 -22Q310 16 303 46Z" />
<glyph unicode="&lt;" glyph-name="less" horiz-adv-x="1022" d="M160 508T152 512T140 521T135 537V597Q135 611 141 617T165 631Q290 693 451 783L511 816Q566 847 667 906T801 984Q811 989 817 989Q827 989 837 971L874 903Q880 897 880 889Q880 876 864 867Q828
848 722 792T571 711L317 568Q388 527 516 455L573 423Q649 381 739 334T865 267Q882 259 882 246Q882 239 876 231L838 163Q828 145 819 145Q812 145 803 151L513 319Q465 345 328 417T163 506Q160 508 152 512Z" />
<glyph unicode="=" glyph-name="equal" horiz-adv-x="1022" d="M601 830T718 832T874 835Q888 835 894 830T900 807V730Q900 716 894 710T871 703Q831 704 730 706T541 708Q438 708 317 706T147 703Q130 703 124 709T118 730V807Q118 821 124 828T147 835Q192
834 328 832T537 830Q601 830 718 832ZM601 441T718 443T874 446Q886 446 893 440T900 417V340Q900 313 871 313Q831 314 712 316T541 319Q480 319 338 317T147 313Q130 313 124 320T118 340V417Q118 432 124 439T147 446Q192 445 328 443T537 441Q601 441 718
443Z" />
<glyph unicode="&gt;" glyph-name="greater" horiz-adv-x="1022" d="M500 309T373 234T202 133Q192 127 183 127Q177 127 173 131T165 142L122 210Q116 218 116 226Q116 234 120 240T131 249Q172 270 295 333T473 428Q620 512 715 570L473 710Q429 736 305 799T138
884Q122 897 122 907Q122 915 127 921L165 993Q174 1009 188 1009Q196 1009 202 1005Q243 981 347 920T541 807Q603 771 812 661L869 631Q885 623 892 616T900 597V537Q900 527 893 520T869 503L547 333Q500 309 373 234Z" />
<glyph unicode="?" glyph-name="question" horiz-adv-x="736" d="M231 546T245 576T282 636Q296 656 328 696Q391 775 423 830T455 946Q455 1021 413 1061T310 1117T149 1147Q129 1150 129 1165Q129 1177 168 1222T226 1285Q232 1291 238 1292T255 1294Q293 1294
361 1278T479 1233Q535 1201 570 1146T606 1025Q606 960 579 898T513 782T416 663Q380 623 380 573Q380 554 390 529T423 479Q434 469 434 457Q434 452 432 447T428 436Q423 421 401 389T366 346Q357 337 346 337Q338 337 330 342Q291 372 261 417T231 511Q231
546 245 576ZM229 78T229 86Q229 95 235 101Q294 160 323 202Q329 212 339 212Q344 212 348 209T355 204Q369 194 408 157Q444 121 459 111Q473 101 473 89Q473 84 470 78T464 68Q455 51 422 14T371 -36Q367 -39 359 -39Q351 -39 346 -36Q327 -24 293 8T238 65Q229
78 229 86Z" />
<glyph unicode="A" glyph-name="A" horiz-adv-x="1219" d="M270 111Q268 103 268 99Q268 76 303 64T416 43V0H0V43Q78 57 113 70T158 111L530 1237Q550 1259 579 1277T647 1317L1067 111Q1077 82 1106 66T1198 43V0H776V43Q844 47 875 58T906 94Q906 102 903 111L789
445H381L270 111ZM582 1049L411 535H758L582 1049Z" />
<glyph unicode="B" glyph-name="B" horiz-adv-x="1126" d="M486 -14T331 -8T123 0H50V43Q116 56 155 73T195 104V1190Q132 1183 50 1168L41 1230Q127 1254 247 1272T469 1290Q602 1290 700 1258T852 1164T905 1020Q905 914 854 836T715 723Q800 707 868 655T976
525T1016 356Q1016 244 959 161T797 32T559 -14Q486 -14 331 -8ZM355 725H389Q750 725 750 971Q750 1080 673 1143T413 1206Q395 1206 355 1204V725ZM355 104Q355 97 364 89Q422 70 537 70Q632 70 703 101T813 190T852 322Q852 401 816 476T704 601T520 650Q445
650 355 635V104Z" />
<glyph unicode="C" glyph-name="C" horiz-adv-x="1098" d="M445 -30T330 45T142 260T70 586Q70 793 152 953T373 1202T676 1290Q777 1290 860 1263T999 1190Q1009 1182 977 1142T909 1067L874 1073Q820 1123 749 1151T592 1180Q514 1180 429 1123T285 941T225
623Q225 455 287 334T446 152T643 90Q703 90 790 130T981 256Q990 252 1002 233T1018 211Q896 80 788 25T571 -30Q445 -30 330 45Z" />
<glyph unicode="D" glyph-name="D" horiz-adv-x="1214" d="M50 0V43Q116 56 155 73T195 104V1188Q210 1190 96 1175Q80 1172 50 1168L41 1230Q131 1255 266 1272T518 1290Q703 1290 839 1217T1049 1006T1123 676Q1123 442 1036 290T820 69T559 0H50ZM355 154Q355
132 365 118Q380 100 420 92T537 84Q635 84 731 147T890 335T953 637Q953 814 895 942T724 1138T453 1206Q403 1206 355 1203V154Z" />
<glyph unicode="E" glyph-name="E" horiz-adv-x="1016" d="M50 0V43Q116 56 155 73T195 104V1155Q195 1168 157 1186T50 1217V1260H856L889 1235Q886 1186 874 1119T848 1010H803Q799 1099 779 1134T721 1170H355V735H760L786 707Q768 677 742 644T694 596Q662
626 620 638T496 651H355V154Q355 132 370 119T430 98T559 90H688Q755 90 791 101T855 148T911 262L954 244Q947 167 936 103T913 0H50Z" />
<glyph unicode="F" glyph-name="F" horiz-adv-x="979" d="M50 43Q116 56 155 73T195 104V1155Q195 1168 157 1186T50 1217V1260H866L897 1235Q896 1187 884 1120T858 1010H811Q808 1099 789 1134T729 1170H355V735H729L758 707Q736 675 710 643T664 596Q634 626
591 638T467 651H355V104Q355 76 530 43V0H50V43Z" />
<glyph unicode="G" glyph-name="G" horiz-adv-x="1194" d="M913 1077Q851 1137 778 1158T598 1180Q535 1180 447 1126T292 949T225 637Q225 461 285 337T442 152T645 90Q789 90 890 146V485Q890 509 844 529T684 567V610H1145V567Q1091 554 1066 532T1040 485V154Q945
76 873 36T744 -17T618 -30Q478 -30 353 39T149 247T70 582Q70 798 159 958T400 1204T737 1290Q807 1290 893 1263T1042 1188Q1062 1173 946 1071L913 1077Z" />
<glyph unicode="H" glyph-name="H" horiz-adv-x="1339" d="M50 43Q116 56 155 73T195 104V1155Q195 1168 157 1186T50 1217V1260H500V1217Q433 1203 394 1186T355 1155V705H965V1155Q965 1168 927 1186T820 1217V1260H1270V1217Q1203 1203 1164 1186T1125 1155V104Q1125
91 1163 74T1270 43V0H820V43Q886 56 925 73T965 104V615H355V104Q355 91 393 74T500 43V0H50V43Z" />
<glyph unicode="I" glyph-name="I" horiz-adv-x="610" d="M70 43Q136 56 175 73T215 104V1155Q215 1168 177 1186T70 1217V1260H520V1217Q453 1203 414 1186T375 1155V104Q375 91 413 74T520 43V0H70V43Z" />
<glyph unicode="J" glyph-name="J" horiz-adv-x="625" d="M410 205Q410 57 384 -36T317 -182T211 -288Q161 -328 90 -354T-25 -380Q-63 -380 -101 -366T-164 -332T-190 -300Q-190 -284 -147 -248T-74 -200Q-21 -235 11 -246T84 -257Q124 -257 161 -222T224 -100T250
133V1155Q250 1189 55 1217V1260H555V1217Q488 1203 449 1186T410 1155V205Z" />
<glyph unicode="K" glyph-name="K" horiz-adv-x="1184" d="M50 43Q116 56 155 73T195 104V1155Q195 1168 157 1186T50 1217V1260H500V1217Q433 1203 394 1186T355 1155V646L764 1128Q795 1165 795 1182Q795 1199 772 1205T690 1217V1260H1110V1217Q1035 1207 1002
1197T940 1155L502 671L985 127Q1010 99 1042 88T1114 77Q1140 77 1167 80L1174 37Q1098 13 1045 0T948 -14Q918 -14 896 -5T854 29L355 639V104Q355 91 393 74T500 43V0H50V43Z" />
<glyph unicode="L" glyph-name="L" horiz-adv-x="975" d="M50 0V43Q116 56 155 73T195 104V1155Q195 1168 157 1186T50 1217V1260H500V1217Q433 1203 394 1186T355 1155V164Q355 126 396 108T541 90H684Q751 90 786 101T846 147T901 262L944 244Q933 117 903 0H50Z" />
<glyph unicode="M" glyph-name="M" horiz-adv-x="1651" d="M1425 104Q1425 91 1463 74T1570 43V0H1115V43Q1183 57 1226 74T1270 104L1261 1040L823 0H774L329 1033L320 104Q320 91 358 74T465 43V0H60V43Q126 56 165 73T205 104L215 1177Q180 1197 142 1207T70
1217V1260H356Q370 1260 378 1254T393 1233T420 1176L818 274L1200 1176Q1218 1218 1227 1234T1243 1255T1264 1260H1550V1217Q1522 1217 1487 1208T1415 1181L1425 104Z" />
<glyph unicode="N" glyph-name="N" horiz-adv-x="1329" d="M50 43Q96 49 129 59T178 82T195 104V1149Q136 1204 50 1217V1260H262Q282 1260 293 1255T317 1236T358 1182L1015 276V1155Q1015 1170 979 1188T870 1217V1260H1280V1217Q1213 1208 1174 1190T1135 1155V-30Q1088
-24 1059 -11T1016 21L315 993V104Q315 95 331 84T379 61T460 43V0H50V43Z" />
<glyph unicode="O" glyph-name="O" horiz-adv-x="1229" d="M420 -30T306 58T131 294T70 612Q70 791 145 947T350 1197T633 1290Q791 1290 905 1200T1079 962T1138 647Q1138 469 1061 313T854 64T575 -30Q420 -30 306 58ZM487 1175T402 1110T271 924T225 641Q225
494 277 367T416 165T604 90Q716 90 801 152T935 335T983 629Q983 768 935 894T800 1097T604 1175Q487 1175 402 1110Z" />
<glyph unicode="P" glyph-name="P" horiz-adv-x="1071" d="M50 43Q116 56 155 73T195 104V1190Q139 1183 50 1168L41 1230Q141 1257 266 1273T510 1290Q654 1290 760 1249T924 1129T982 936Q982 807 916 716T755 580T573 535Q479 535 412 565L389 640Q455 610
543 610Q608 610 674 643T783 741T827 895Q827 1000 778 1070T645 1173T453 1206Q419 1206 355 1204V104Q355 72 530 43V0H50V43Z" />
<glyph unicode="Q" glyph-name="Q" horiz-adv-x="1229" d="M1050 -305T997 -283T896 -227T778 -139Q726 -99 691 -74T620 -27Q598 -30 575 -30Q431 -30 316 56T135 290T70 612Q70 791 145 947T350 1197T633 1290Q791 1290 905 1200T1079 962T1138 647Q1138 508
1090 381T957 157T765 12Q811 -12 884 -59Q962 -109 1012 -134T1108 -160Q1133 -160 1164 -144T1255 -82L1282 -117Q1236 -201 1185 -253T1102 -305Q1050 -305 997 -283ZM487 1175T402 1110T271 924T225 641Q225 494 277 367T416 165T604 90Q716 90 801 152T935
335T983 629Q983 768 935 894T800 1097T604 1175Q487 1175 402 1110Z" />
<glyph unicode="R" glyph-name="R" horiz-adv-x="1149" d="M50 43Q116 56 155 73T195 104V1189Q135 1181 104 1176L50 1168L41 1230Q159 1259 254 1274T469 1290Q619 1290 722 1251T876 1144T927 987Q927 849 851 757T645 625L948 139Q972 105 1002 91T1079 77Q1101
77 1128 80L1139 37Q984 -14 915 -14Q887 -14 859 2T817 41L514 602Q497 600 461 600Q406 600 355 611V104Q355 91 393 74T500 43V0H50V43ZM355 691Q397 684 444 684Q602 684 687 754T772 956Q772 1071 688 1138T432 1206Q394 1206 355 1203V691Z" />
<glyph unicode="S" glyph-name="S" horiz-adv-x="975" d="M373 -30T287 -3T131 68Q124 72 121 102T117 177Q117 275 131 324L172 319Q216 206 302 148T496 90Q556 90 615 122T712 209T750 324Q750 396 711 448T615 534T459 613Q350 663 285 703T173 808T127 967Q127
1037 168 1112T300 1238T526 1290Q617 1290 701 1264T823 1198Q826 1195 826 1189Q826 1169 798 1128T745 1065L709 1071Q657 1133 594 1161T467 1190Q397 1190 350 1163T280 1096T257 1014Q257 962 291 921T377 850T519 775Q637 718 709 672T833 552T885 377Q885
282 835 188T683 32T440 -30Q373 -30 287 -3Z" />
<glyph unicode="T" glyph-name="T" horiz-adv-x="1128" d="M307 43Q392 60 431 79T471 115V1170H172Q150 1170 135 1159T102 1111T53 995L10 1014Q15 1073 24 1140T43 1260H1053L1083 1235Q1080 1143 1053 1000H1008Q993 1074 984 1106T959 1154T915 1170H631V115Q631
100 671 80T795 43V0H307V43Z" />
<glyph unicode="U" glyph-name="U" horiz-adv-x="1339" d="M1130 524Q1130 351 1074 226T914 36T666 -30Q525 -30 420 21T255 179T195 444V1155Q195 1168 157 1186T50 1217V1260H500V1217Q433 1203 394 1186T355 1155V494Q355 300 445 193T705 85Q796 85 863 141T965
289T1000 483V1155Q1000 1168 962 1186T855 1217V1260H1275V1217Q1208 1203 1169 1186T1130 1155V524Z" />
<glyph unicode="V" glyph-name="V" horiz-adv-x="1331" d="M752 59Q731 -1 602 -30L162 1151Q152 1177 118 1193T20 1217V1260H455V1217Q385 1212 355 1201T324 1167Q324 1161 327 1153L680 203L1016 1151Q1018 1155 1018 1163Q1018 1184 985 1195T874 1217V1260H1290V1217Q1212
1202 1178 1190T1135 1151L752 59Z" />
<glyph unicode="W" glyph-name="W" horiz-adv-x="1741" d="M1321 59Q1308 -2 1182 -30L856 944L569 59Q556 21 516 2T418 -30L158 1147Q153 1172 122 1188T20 1217V1260H449V1217Q370 1209 341 1195T312 1158Q312 1151 313 1147L512 250L836 1260H891L1245 250L1432
1155Q1436 1176 1397 1190T1278 1217V1260H1702V1217Q1618 1200 1586 1186T1550 1155L1321 59Z" />
<glyph unicode="X" glyph-name="X" horiz-adv-x="1260" d="M778 43Q843 50 871 60T899 90Q899 103 883 127L604 535L352 127Q339 107 339 92Q339 70 373 59T481 43V0H31V43Q99 48 144 67T213 127L530 644L197 1133Q176 1163 158 1178T114 1202T41 1217V1260H492V1217Q426
1211 398 1201T369 1171Q369 1156 385 1133L632 770L858 1133Q870 1153 870 1167Q870 1190 837 1200T727 1217V1260H1180V1217Q1103 1208 1063 1191T997 1133L706 662L1071 127Q1099 86 1133 69T1229 43V0H778V43Z" />
<glyph unicode="Y" glyph-name="Y" horiz-adv-x="1217" d="M360 43Q444 60 484 79T524 115V537Q455 688 351 866T168 1151Q153 1169 136 1180T88 1199T4 1206L0 1249Q149 1270 219 1270Q266 1270 297 1231Q370 1137 460 983T623 680L891 1151Q897 1162 897 1170Q897
1187 870 1198T780 1217V1260H1176V1217Q1104 1203 1069 1189T1020 1151L684 541V115Q684 100 724 80T850 43V0H360V43Z" />
<glyph unicode="Z" glyph-name="Z" horiz-adv-x="1071" d="M88 0L59 45L770 1160H311Q288 1160 263 1139T215 1074T178 963L121 975L150 1276Q200 1265 236 1263T340 1260H956L981 1217L276 100H799Q828 100 849 118T890 179T936 307L991 293Q981 78 979 0H88Z" />
<glyph unicode="[" glyph-name="bracketleft" horiz-adv-x="736" d="M142 -40T144 66T147 214Q152 401 152 552Q152 676 141 933Q135 1081 135 1096Q135 1157 163 1199T248 1242H629Q636 1242 641 1241T647 1236Q647 1233 641 1228Q601 1175 564 1151Q554 1143
548 1141T534 1138H335Q315 1138 296 1122T276 1077Q273 1032 272 839T270 541Q271 432 275 242T282 -81Q282 -112 297 -128T340 -144H617Q632 -144 638 -145T645 -152Q645 -155 641 -161T634 -171Q596 -219 566 -238Q559 -243 552 -244T532 -246H296Q218 -246
185 -221Q162 -202 152 -179T142 -125Q142 -40 144 66Z" />
<glyph unicode="\" glyph-name="backslash" horiz-adv-x="736" d="M254 712T207 820T106 1040Q104 1044 93 1065T81 1098Q81 1109 86 1131Q92 1151 100 1173Q105 1183 109 1195Q119 1219 131 1219Q142 1219 149 1204L402 573L417 534Q492 344 538 234T636 14Q648
-7 648 -29Q648 -42 643 -78T633 -138Q631 -146 625 -154T613 -163Q606 -163 601 -156T588 -133L335 508Q254 712 207 820Z" />
<glyph unicode="]" glyph-name="bracketright" horiz-adv-x="734" d="M512 -246T434 -246H197Q185 -246 178 -245T163 -238Q147 -226 93 -169Q91 -166 88 -161T84 -152Q84 -147 90 -146T113 -144H389Q417 -144 432 -128T448 -81L450 -1Q459 503 459 541Q459 645
458 838T453 1077Q452 1105 434 1121T395 1138H195Q187 1138 181 1140T165 1151Q130 1175 88 1228Q82 1233 82 1236Q82 1240 87 1241T101 1242H482Q538 1242 566 1200T595 1096Q595 1081 589 933Q577 652 577 552Q577 438 583 214Q584 172 586 66T588 -125Q588
-156 578 -178T545 -221Q512 -246 434 -246Z" />
<glyph unicode="^" glyph-name="asciicircum" horiz-adv-x="1022" d="M768 852T843 726T944 556Q949 547 949 536Q949 530 946 526T935 518L867 475Q859 470 851 470Q836 470 828 484Q806 525 741 649T643 828L597 911Q527 1037 508 1068L375 831Q349 787 282
661T193 491Q181 475 171 475Q164 475 156 480L84 520Q68 529 68 543Q68 551 72 557Q96 597 167 718T270 894Q306 956 416 1165L446 1222Q454 1238 461 1245T480 1253H539Q551 1253 558 1246T573 1222L744 900Q768 852 843 726Z" />
<glyph unicode="`" glyph-name="grave" horiz-adv-x="653" d="M30 1424L52 1465Q81 1471 128 1479T198 1489L438 1078Q412 1056 382 1047L30 1424Z" />
<glyph unicode="a" glyph-name="a" horiz-adv-x="940" d="M669 -30T647 17T623 143Q538 57 450 14T293 -30Q241 -30 193 -7T112 64T80 186Q80 257 104 308T170 401Q207 438 253 464T388 515T623 561V702Q623 775 587 817T465 860Q420 860 379 843T313 795T292
724Q293 713 264 700T196 676T133 666Q125 666 122 667L108 706Q138 771 209 830T371 924T544 960Q653 960 713 903T773 742V178Q773 100 813 100Q846 100 911 127L926 82Q844 25 788 -2T702 -30Q669 -30 647 17ZM623 486Q516 469 454 452T359 416T302 372Q244
311 244 229Q244 180 262 152T305 112T352 100Q476 100 623 227V486Z" />
<glyph unicode="b" glyph-name="b" horiz-adv-x="1040" d="M428 -30T336 4T140 96V1296Q140 1358 131 1383T98 1415T10 1430V1470Q99 1491 150 1507T253 1550Q263 1540 274 1530T290 1516V727Q353 803 418 855T540 934T637 960Q728 960 799 904T910 741T950 492Q950
372 890 251T719 50T469 -30Q428 -30 336 4ZM539 825T495 804T396 735T290 610V203Q360 150 439 125T567 100Q645 100 701 143T786 258T815 408Q815 536 781 630T690 775T567 825Q539 825 495 804Z" />
<glyph unicode="c" glyph-name="c" horiz-adv-x="895" d="M366 -30T278 28T135 193T80 444Q80 586 147 704T332 891T590 960Q657 960 724 938T825 881Q829 858 809 803T768 717L731 727Q718 755 689 783T612 830T500 850Q428 850 367 807T268 680T230 475Q230
365 272 280T385 147T537 100Q581 100 611 107T685 142T801 231L840 190Q756 91 696 44T586 -16T465 -30Q366 -30 278 28Z" />
<glyph unicode="d" glyph-name="d" horiz-adv-x="1065" d="M795 -30T775 17T747 169Q663 68 588 19T416 -30Q339 -30 261 28T132 195T80 444Q80 562 141 682T310 881T551 960Q604 960 649 947T745 897V1274Q745 1355 738 1386T702 1429T600 1446V1485Q671 1494
727 1509T864 1550L895 1520V254Q895 187 900 154T918 106Q924 98 939 98Q964 98 1038 127L1051 84Q959 22 908 -4T829 -30Q795 -30 775 17ZM712 787T652 818T520 850Q434 850 369 808T267 682T230 475Q230 368 270 282T370 148T487 100Q530 100 572 122T653 176T745
261V730Q712 787 652 818Z" />
<glyph unicode="e" glyph-name="e" horiz-adv-x="946" d="M230 490Q231 385 267 296T371 154T526 100Q574 100 612 109T700 147T823 236Q841 226 860 195Q772 98 710 51T593 -13T465 -30Q362 -30 274 28T133 191T80 434Q80 570 139 690T301 881Q348 914 410 937T524
960Q646 960 723 898T833 745T866 557Q834 521 756 490H230ZM664 580Q686 580 694 587T702 616Q702 663 685 717T622 813T496 855Q428 855 374 821T284 724T236 580H664Z" />
<glyph unicode="f" glyph-name="f" horiz-adv-x="637" d="M646 1382T598 1403T520 1425Q480 1425 442 1389T377 1261T350 1016V930H608L637 901Q618 872 588 841T539 800Q471 835 350 835V102Q350 90 395 78T559 43V0H60V43Q124 54 162 71T200 102V835H66L45 863L123
930H200V961Q200 1109 226 1203T293 1352T399 1458Q450 1499 518 1524T629 1550Q667 1550 711 1532T786 1490T817 1454Q817 1439 770 1399T690 1343Q646 1382 598 1403Z" />
<glyph unicode="g" glyph-name="g" horiz-adv-x="999" d="M430 295Q388 260 367 233T346 196Q346 169 401 148T602 110Q802 88 886 25T970 -120Q970 -225 895 -312T703 -450T467 -500Q366 -500 265 -471T97 -381T30 -229Q30 -189 50 -151T130 -64T297 42Q182 83
182 153Q182 175 213 213T326 309Q223 337 162 414T100 602Q100 697 155 779T299 911T485 960Q543 960 596 943T693 895Q785 904 847 920T969 960L989 930Q986 923 977 901T957 862T932 830Q851 816 775 813Q830 734 830 641Q830 543 773 464T624 340T434 295H430ZM380
860T339 836T269 767T240 659Q240 586 270 528T361 435T514 400Q555 400 596 423T663 492T690 600Q690 672 659 731T565 825T416 860Q380 860 339 836ZM299 -32T254 -70T194 -135T180 -190Q180 -245 227 -292T353 -367T522 -395Q610 -395 678 -365T783 -280T820
-157Q820 -117 794 -89T702 -39T518 -4Q448 3 388 16Q299 -32 254 -70Z" />
<glyph unicode="h" glyph-name="h" horiz-adv-x="1130" d="M670 43Q743 62 776 76T810 104V633Q810 713 797 755T756 814T682 830Q610 830 519 757T345 549V104Q345 89 382 73T485 43V0H55V43Q130 63 162 76T195 104V1298Q195 1357 187 1380T152 1412T55 1430V1470Q140
1486 195 1503T308 1550L345 1516V684Q400 766 472 829T615 926T739 960Q799 960 849 936T929 863T960 741V104Q960 90 991 77T1100 43V0H670V43Z" />
<glyph unicode="i" glyph-name="i" horiz-adv-x="555" d="M190 1124T190 1220Q190 1257 205 1288T247 1338T305 1356Q390 1356 390 1261Q390 1204 357 1164T274 1124Q190 1124 190 1220ZM70 43Q135 56 172 73T210 104V670Q210 749 204 778T170 820T70 840V880Q135
892 206 914T326 960H360V104Q360 90 396 73T500 43V0H70V43Z" />
<glyph unicode="j" glyph-name="j" horiz-adv-x="530" d="M185 1124T185 1220Q185 1257 200 1288T242 1338T300 1356Q385 1356 385 1261Q385 1204 352 1164T270 1124Q185 1124 185 1220ZM112 -442T49 -471T-54 -500Q-92 -500 -131 -488T-195 -459T-220 -431Q-220
-415 -173 -375T-93 -320Q-63 -346 -30 -355T45 -365Q113 -365 159 -272T205 43V670Q205 748 199 777T165 819T65 840V880Q140 893 189 910T318 960H355V99Q355 -47 331 -142T267 -294T165 -400Q112 -442 49 -471Z" />
<glyph unicode="k" glyph-name="k" horiz-adv-x="1024" d="M55 43Q133 63 164 75T195 104V1296Q195 1358 184 1383T149 1415T55 1430V1470Q140 1488 201 1506T308 1550L345 1516V530L653 799Q697 839 697 859Q697 875 674 881T610 887V930H989V887Q940 882 904
869T829 825L488 552L864 111Q888 84 915 72T985 60Q1006 60 1018 61L1024 18Q969 5 916 -2T840 -10Q798 -10 773 2T725 43L345 522V104Q345 93 352 86T382 68T455 43V0H55V43Z" />
<glyph unicode="l" glyph-name="l" horiz-adv-x="555" d="M60 43Q143 57 176 72T210 104V1296Q210 1356 199 1381T162 1414T70 1430V1470Q154 1487 211 1503T324 1550L360 1516V104Q360 88 396 72T510 43V0H60V43Z" />
<glyph unicode="m" glyph-name="m" horiz-adv-x="1645" d="M1186 43Q1259 62 1292 76T1325 104V633Q1325 715 1314 759T1278 822T1212 840Q1146 840 1066 769T910 573V104Q910 90 941 77T1051 43V0H621V43Q694 62 727 76T760 104V633Q760 715 749 759T714 822T647
840Q582 840 508 773T345 573V104Q345 89 382 73T485 43V0H55V43Q130 63 162 76T195 104V711Q195 767 187 790T152 822T55 840V880Q124 891 177 910T295 960L330 925L341 696Q427 824 520 892T688 960Q910 960 910 725V704Q992 826 1084 893T1253 960Q1353 960
1414 905T1475 741V104Q1475 90 1506 77T1616 43V0H1186V43Z" />
<glyph unicode="n" glyph-name="n" horiz-adv-x="1130" d="M670 43Q743 62 776 76T810 104V633Q810 714 798 756T758 814T682 830Q613 830 524 762T345 549V104Q345 89 382 73T485 43V0H55V43Q130 63 162 76T195 104V711Q195 768 188 790T153 822T55 840V880Q171
898 295 960L330 925L341 676Q397 761 470 826T614 925T739 960Q799 960 849 936T929 863T960 741V104Q960 90 991 77T1100 43V0H670V43Z" />
<glyph unicode="o" glyph-name="o" horiz-adv-x="1030" d="M372 -30T278 31T132 200T80 444Q80 575 142 694T308 887T535 960Q658 960 752 899T898 729T950 485Q950 354 887 235T720 43T496 -30Q372 -30 278 31ZM362 850T299 749T235 473Q235 372 280 282T394
136T524 80Q661 80 728 179T795 455Q795 557 752 648T642 795T506 850Q362 850 299 749Z" />
<glyph unicode="p" glyph-name="p" horiz-adv-x="1085" d="M563 -30T489 4T345 98V-375Q345 -411 514 -437V-480H55V-437Q126 -420 160 -406T195 -375V711Q195 765 186 790T149 826T55 840V880Q125 895 181 913T295 960L330 925L339 727Q402 803 468 855T592 934T690
960Q781 960 852 904T964 741T1005 492Q1005 377 950 255T806 51T623 -30Q563 -30 489 4ZM595 835T552 813T454 741T345 610V213Q428 150 494 125T621 100Q693 100 749 137T838 248T870 426Q870 539 836 633T744 781T623 835Q595 835 552 813Z" />
<glyph unicode="q" glyph-name="q" horiz-adv-x="1055" d="M575 -437Q666 -423 705 -408T745 -375V166Q661 66 587 18T416 -30Q339 -30 261 28T132 195T80 444Q80 552 123 644T228 800T344 895Q400 925 456 942T551 960Q612 960 666 941T782 867Q809 884 840 910T895
960L926 930Q924 923 917 894T902 818T895 717V-375Q895 -411 1034 -437V-480H575V-437ZM745 730Q712 787 652 818T520 850Q443 850 377 807T271 680T230 475Q230 368 270 282T370 148T487 100Q530 100 572 122T653 176T745 261V730Z" />
<glyph unicode="r" glyph-name="r" horiz-adv-x="811" d="M684 676Q673 752 644 786T573 820Q541 820 500 785T417 676T345 496V104Q345 88 385 72T514 43V0H55V43Q125 59 160 73T195 104V686Q195 746 189 774T172 813Q159 826 135 831T55 840V880Q149 904 200
920T295 960L330 925L343 698Q401 818 473 889T627 960Q705 960 770 923Q778 918 778 891Q778 851 762 785T727 676H684Z" />
<glyph unicode="s" glyph-name="s" horiz-adv-x="791" d="M306 -30T238 -11T106 43Q101 45 98 66T95 118Q95 162 100 210T113 283L156 272Q159 217 192 171T282 97T406 70Q478 70 524 113T570 227Q570 271 543 306T475 366T363 428L322 449Q255 483 209 516T134
594T104 700Q104 780 145 839T255 929T401 960Q468 960 546 939T664 883Q667 880 667 872Q667 848 647 798T614 733L575 741Q530 808 479 839T375 870Q333 870 301 852T252 806T234 750Q234 714 258 685T318 634T417 579L455 559Q532 520 581 487T665 403T700 283Q700
155 637 86T496 -7T356 -30Q306 -30 238 -11Z" />
<glyph unicode="t" glyph-name="t" horiz-adv-x="705" d="M268 -30T219 30T170 221V835H41L20 863L98 930H170V1176L289 1280L320 1255V930H647L676 901Q656 872 625 841T575 800Q505 835 372 835H320V307Q320 226 330 182T364 119T428 100Q514 100 647 168L676
117Q582 48 491 9T344 -30Q268 -30 219 30Z" />
<glyph unicode="u" glyph-name="u" horiz-adv-x="1085" d="M776 -30T765 166Q651 52 567 11T408 -30Q301 -30 236 38T170 279V711Q170 780 163 805T133 838T41 854V894Q111 903 167 918T292 960L320 921V334Q320 200 358 145T473 90Q539 90 609 130T765 262V711Q765
774 756 802T718 840T625 854V894Q689 902 750 918T885 960L915 921V254Q915 188 920 151T938 104Q946 99 960 99Q995 99 1059 127L1069 82Q991 31 933 1T850 -30Q776 -30 765 166Z" />
<glyph unicode="v" glyph-name="v" horiz-adv-x="1010" d="M596 59Q571 -5 461 -30L131 819Q122 846 97 860T20 887V930H406V887Q340 878 314 869T288 840Q288 832 293 819L539 178L770 819Q774 830 774 839Q774 858 751 868T666 887V930H989V887Q947 877 927
869T897 850T879 819L596 59Z" />
<glyph unicode="w" glyph-name="w" horiz-adv-x="1446" d="M1104 59Q1086 -2 967 -30L729 648L524 59Q503 -4 391 -30L129 825Q124 844 97 860T20 887V930H406V887Q333 879 306 868T278 839Q278 833 281 825L469 190L715 930H784L1044 190L1217 825Q1218 828 1218
833Q1218 852 1191 864T1100 887V930H1425V887Q1384 878 1365 870T1337 852T1325 825L1104 59Z" />
<glyph unicode="x" glyph-name="x" horiz-adv-x="1030" d="M614 43Q659 47 683 55T708 86Q708 104 688 131L490 400L301 131Q286 111 286 93Q286 68 316 58T399 43V0H20V43Q93 54 130 77T193 137L436 475L201 797Q180 827 162 843T113 871T31 887V930H451V887Q402
882 378 872T354 842Q354 825 373 799L534 577L688 799Q708 826 708 845Q708 864 685 873T614 887V930H995V887Q918 881 873 859T799 797L589 502L856 137Q886 100 921 76T1016 43V0H614V43Z" />
<glyph unicode="y" glyph-name="y" horiz-adv-x="1010" d="M545 -82Q492 -223 421 -317T273 -455T127 -500Q78 -500 38 -492T-24 -472T-47 -447Q-47 -439 -26 -411T22 -353T70 -312Q122 -343 180 -343Q218 -343 250 -330Q274 -322 307 -287T374 -200T430 -92L459
-23L131 819Q122 846 97 860T20 887V930H406V887Q340 878 314 869T288 840Q288 832 293 819L539 182L770 819Q773 828 773 836Q773 856 748 866T655 887V930H989V887Q947 877 927 869T897 850T879 819L545 -82Z" />
<glyph unicode="z" glyph-name="z" horiz-adv-x="905" d="M102 0L76 45L631 840H285Q247 840 217 807T168 690L119 702L137 946Q177 935 209 933T313 930H805L827 887L270 90H692Q717 90 738 129T782 258L829 248Q829 179 826 106T817 0H102Z" />
<glyph unicode="{" glyph-name="braceleft" horiz-adv-x="732" d="M303 456T325 434T359 379T371 298V4Q371 -51 390 -99T460 -171L575 -224Q586 -230 586 -236Q586 -242 571 -249Q550 -262 518 -274Q501 -279 489 -279Q474 -279 419 -256Q345 -225 304 -185T246
-88T228 55V339Q228 377 224 399T203 443T149 480Q138 485 134 491T129 506Q129 522 149 532Q186 549 203 569T224 612T228 672V930Q228 1017 245 1074T303 1172T419 1242Q457 1259 543 1283Q567 1291 571 1291Q586 1291 586 1279Q586 1272 581 1264Q574 1250 552
1209Q542 1192 530 1187Q515 1179 470 1161Q371 1121 371 982V713Q371 664 359 632T326 578T262 523Q260 522 256 517T251 506Q251 500 253 496T258 489T262 487Q303 456 325 434Z" />
<glyph unicode="|" glyph-name="bar" horiz-adv-x="589" d="M233 648T236 890T246 1289Q246 1319 270 1319H313Q327 1319 333 1311T340 1291Q344 1123 347 880T351 520Q351 392 348 167T340 -279Q340 -292 334 -300T313 -308H270Q246 -308 246 -277Q241 -53 237
192T233 520Q233 648 236 890Z" />
<glyph unicode="}" glyph-name="braceright" horiz-adv-x="732" d="M431 555T410 577T376 632T364 713V1007Q364 1061 345 1109T274 1181L159 1235Q149 1239 149 1247Q149 1252 163 1260Q185 1274 217 1285Q234 1291 246 1291Q256 1291 281 1281T315 1267Q389
1236 430 1196T490 1099T508 956V672Q508 634 512 612T532 568T586 530Q597 524 601 520T606 506Q606 489 586 479Q549 462 533 442T512 399T508 339V81Q508 -6 491 -63T432 -161T315 -231Q278 -248 192 -272Q167 -279 163 -279Q149 -279 149 -269Q149 -261 154
-253Q159 -241 164 -233T172 -218L183 -199Q188 -190 192 -185T204 -176Q216 -169 235 -162T265 -151Q364 -110 364 29V298Q364 347 376 379T410 433T473 487Q475 488 479 493T484 506Q484 511 482 515T477 521T473 523Q431 555 410 577Z" />
<glyph unicode="&#xa0;" glyph-name="uni00A0" horiz-adv-x="420" />
<glyph unicode="&#xa3;" glyph-name="sterling" horiz-adv-x="1022" d="M560 1396T470 1344Q434 1325 371 1272Q308 1217 282 1180Q202 1064 202 951Q202 922 217 857L233 792L235 783Q235 771 231 763Q201 731 159 682L129 648Q122 639 122 633Q122 619 138 619Q140
619 150 619T188 620Q217 622 270 622Q281 622 284 611Q309 517 321 438Q330 379 330 355Q330 288 303 255Q279 222 214 181Q185 166 171 140L141 88Q128 68 120 51T111 27Q111 11 127 11Q143 11 177 13Q203 16 228 16Q305 16 450 -9Q550 -29 641 -29Q713 -29 790
-2Q822 9 837 27Q893 101 925 163Q930 176 930 179Q930 188 920 188Q916 188 901 182Q823 153 763 152Q701 152 663 158L610 166Q541 176 499 180T405 185Q404 185 402 186T400 190Q438 275 464 339Q484 388 484 441Q484 507 455 620Q455 626 464 626L634 634Q673
641 690 655Q738 688 801 751Q809 761 809 767Q809 781 792 781Q704 781 609 783Q515 785 423 785Q421 785 416 794Q355 1053 355 1104Q355 1158 380 1192Q397 1214 421 1227T473 1240Q574 1240 708 1181Q726 1175 732 1175Q747 1175 756 1188Q830 1288 837 1306Q838
1312 839 1316T841 1322Q841 1336 826 1344Q742 1396 643 1396Q560 1396 470 1344Z" />
<glyph unicode="&#xa4;" glyph-name="currency" horiz-adv-x="1147" d="M263 99Q256 92 251 92Q244 92 233 102L190 145Q182 155 182 161Q182 169 190 178L310 292Q284 328 270 372T256 462Q256 583 323 674L190 803Q182 811 182 819Q182 825 190 835L233 879Q242
888 250 888Q257 888 263 880Q275 868 310 831T390 747Q490 823 622 823Q663 823 703 809T778 771Q817 810 846 840T884 880Q892 888 898 888Q905 888 914 879L957 835Q965 825 965 818Q965 811 957 803L848 699Q901 615 901 511Q901 457 881 404T826 303L957 178Q965
169 965 161Q965 155 957 145L914 102Q904 92 897 92Q893 92 884 99Q872 111 836 148T756 233Q663 163 541 163Q454 163 378 221L263 99ZM375 397T434 336T613 274Q661 274 699 301T757 374T778 470Q778 539 750 596T669 688T543 722Q493 722 455 691T396 610T375
508Q375 397 434 336Z" />
<glyph unicode="&#xa7;" glyph-name="section" horiz-adv-x="874" d="M464 -192T491 -186T529 -171Q558 -152 572 -119T586 -50Q586 -2 562 35T491 91Q452 112 409 128T301 166Q239 186 210 197Q158 222 132 264T106 361Q106 447 158 520T299 652L276 662Q223
684 197 725T171 821Q171 931 251 1018T446 1158Q513 1178 568 1178Q599 1178 655 1165T732 1142Q744 1133 744 1127Q744 1122 740 1108Q734 1084 724 1053T704 1000Q699 984 690 984Q685 984 674 993Q616 1032 567 1050T455 1068Q376 1068 338 1022T299 893Q299
854 329 824T398 778Q483 743 624 694Q697 669 741 627T785 515Q785 473 770 430T727 357Q702 321 665 286T585 222Q717 169 717 53Q717 9 705 -35T665 -111Q600 -190 508 -251T330 -312Q278 -312 224 -294T127 -248Q116 -241 116 -233Q116 -226 122 -214Q133 -185
172 -115Q182 -97 188 -97Q191 -97 194 -100T199 -104Q244 -150 308 -171T445 -192Q464 -192 491 -186ZM439 619T390 619Q309 619 271 574T233 446Q233 406 262 378T333 332L364 321Q454 291 511 291Q524 291 551 299T599 317Q626 337 639 367T652 434Q652 480
628 514T557 570L473 609Q439 619 390 619Z" />
<glyph unicode="&#xa8;" glyph-name="dieresis" horiz-adv-x="801" d="M100 1124T100 1220Q100 1257 115 1288T157 1338T215 1356Q300 1356 300 1261Q300 1204 267 1164T184 1124Q100 1124 100 1220ZM500 1124T500 1220Q500 1257 515 1288T557 1338T615 1356Q700
1356 700 1261Q700 1204 667 1164T584 1124Q500 1124 500 1220Z" />
<glyph unicode="&#xa9;" glyph-name="copyright" horiz-adv-x="1540" d="M591 -30T447 58T222 298T140 631Q140 811 221 962T447 1202T769 1290Q948 1290 1092 1202T1318 963T1400 631Q1400 450 1318 299T1092 59T769 -30Q591 -30 447 58ZM615 1204T491 1127T297
919T226 631Q226 473 296 342T491 133T769 56Q925 56 1049 133T1244 341T1314 631Q1314 788 1244 919T1049 1127T769 1204Q615 1204 491 1127ZM659 217T579 264T448 398T398 602Q398 732 455 833T608 989T820 1044Q891 1044 948 1027T1046 981Q1053 975 1027 936T982
883L958 887Q912 923 869 943T771 963Q720 963 665 931T569 823T529 627Q529 527 576 454T691 343T820 305Q866 305 912 324T1031 397Q1037 395 1046 383T1058 369Q973 286 898 252T747 217Q659 217 579 264Z" />
<glyph unicode="&#xaa;" glyph-name="ordfeminine" horiz-adv-x="524" d="M376 711T362 732T341 794Q296 752 250 732T166 711Q120 711 85 739T49 825Q49 888 98 935T246 1010L338 1034V1051Q338 1118 321 1148T252 1178Q225 1178 200 1158T174 1106Q174 1094
178 1083Q180 1077 158 1070T110 1058T74 1055L66 1075Q72 1114 113 1151T209 1211T299 1235Q348 1235 376 1217T417 1156T430 1038V842Q430 798 444 782Q448 780 456 780Q477 780 508 793L514 768Q471 739 440 725T391 711Q376 711 362 732ZM295 981Q212 958 180
926T147 848Q147 811 163 796T199 780Q265 780 338 840V992L295 981ZM51 659H485V586H51V659Z" />
<glyph unicode="&#xab;" glyph-name="guillemotleft" horiz-adv-x="736" d="M226 682T253 694T291 711Q298 715 306 715Q313 715 318 712T323 703Q323 694 317 683Q302 651 276 602Q270 590 262 575T246 543Q240 534 240 522Q240 517 242 511T249 500L330 417Q337
410 337 398Q337 392 333 382T326 369Q291 310 260 276Q253 267 242 267Q236 267 224 276Q187 308 148 352T88 431Q79 445 76 454T72 472Q72 486 79 498Q95 530 122 571T174 643Q187 660 201 667T219 677Q226 682 253 694ZM528 681T552 693T593 711Q600 715 609
715Q616 715 621 712T626 703Q626 694 620 683Q605 651 579 602Q573 590 565 575T549 543Q543 534 543 522Q543 517 545 511T552 500L633 417Q640 410 640 398Q640 392 636 382T629 369Q603 321 563 276Q554 267 545 267Q539 267 527 276Q490 308 450 353T390 431Q375
455 375 472Q375 486 382 498Q397 529 424 570T477 643Q486 655 494 661T511 671T522 677Q528 681 552 693Z" />
<glyph unicode="&#xac;" glyph-name="logicalnot" horiz-adv-x="975" d="M605 537T496 537Q398 537 287 535T133 532Q116 532 110 539T104 559V636Q104 651 110 658T133 665Q173 664 296 662T493 660Q557 660 670 662T821 665Q834 665 840 660T846 636V559Q846
484 848 363T851 202Q851 186 845 180T824 174H747Q733 174 726 180T718 202L724 534Q605 537 496 537Z" />
<glyph unicode="&#xae;" glyph-name="registered" horiz-adv-x="810" d="M311 738T236 784T118 910T75 1084Q75 1179 117 1258T235 1383T404 1430Q498 1430 574 1384T693 1258T736 1084Q736 989 693 910T574 785T404 738Q311 738 236 784ZM327 1371T265 1333T168
1228T133 1084Q133 1005 168 940T265 836T404 797Q482 797 544 835T642 939T677 1084Q677 1162 642 1228T545 1332T404 1371Q327 1371 265 1333ZM254 905Q298 914 298 924V1250L254 1244L252 1273Q290 1282 320 1286T387 1291Q460 1291 499 1265T539 1196Q539 1151
512 1120T439 1077L542 934Q549 924 560 921T594 919L596 898Q539 881 522 881Q514 881 505 886T491 899L386 1070H384Q370 1070 353 1073V924Q353 920 364 915T396 905V887H254V905ZM353 1109Q363 1107 380 1107Q478 1107 478 1187Q478 1256 376 1256Q361 1256
353 1255V1109Z" />
<glyph unicode="&#xaf;" glyph-name="overscore" horiz-adv-x="1010" d="M189 1175L167 1200Q171 1220 183 1250T208 1305H821L843 1281Q838 1258 823 1221T804 1175H189Z" />
<glyph unicode="&#xb0;" glyph-name="degree" horiz-adv-x="522" d="M248 778T289 806T376 884Q410 927 427 980T445 1095Q444 1140 423 1185T360 1260T263 1291Q244 1291 225 1286T190 1271Q86 1210 46 1151Q43 1145 31 1126T10 1077T0 1012Q0 953 19 900T82
812T190 778Q248 778 289 806ZM177 907T148 948T118 1045Q118 1097 138 1133T192 1170Q231 1170 262 1148T311 1088T328 1011Q328 957 303 932T221 907Q177 907 148 948Z" />
<glyph unicode="&#xb1;" glyph-name="plusminus" horiz-adv-x="1022" d="M161 534Q145 534 139 541T133 561V638Q133 653 139 660T161 667Q188 666 268 665T448 662L443 951Q443 963 449 970T472 977H549Q575 977 575 948Q574 917 572 821T570 662Q639 662 734
664T858 667Q871 667 877 661T884 638V561Q884 548 878 541T855 534L570 539Q571 439 572 356T575 244Q575 215 549 215H472Q457 215 450 221T443 244L448 539L161 534ZM571 131T694 133T858 137Q884 137 884 108V31Q884 17 878 11T855 4Q813 5 706 7T511 9Q415
9 309 7T161 4Q145 4 139 10T133 31V108Q133 122 139 129T161 137Q199 136 316 134T508 131Q571 131 694 133Z" />
<glyph unicode="&#xb4;" glyph-name="acute" horiz-adv-x="653" d="M247 1053T217 1075L451 1489Q475 1487 524 1480T596 1466L619 1427L274 1047Q247 1053 217 1075Z" />
<glyph unicode="&#xb6;" glyph-name="paragraph" horiz-adv-x="973" d="M846 60L848 -46Q848 -75 838 -86Q806 -135 780 -161Q769 -174 760 -174Q749 -174 749 -161L750 -122Q753 -91 753 -39V1014Q753 1026 746 1031Q742 1033 688 1040Q683 1040 681 1039T679
1033V-84Q679 -111 681 -135T683 -165Q683 -193 679 -210T658 -251Q635 -284 618 -305T564 -361Q557 -368 547 -368Q532 -368 532 -351Q532 -350 541 -318Q543 -310 555 -269T575 -191T583 -131Q586 -36 586 214V780Q586 964 585 1045Q585 1049 581 1053T570 1059Q511
1072 438 1072Q389 1072 348 1039T284 947T260 816Q260 755 291 706T374 628T482 600Q502 600 513 598T525 588Q525 583 513 566Q473 510 439 472Q430 461 423 457T405 452Q390 452 371 459Q235 504 171 587T106 795Q106 867 149 942T272 1075Q346 1127 404 1154T527
1181Q595 1181 674 1171T889 1138Q901 1136 901 1127Q901 1121 893 1113Q875 1095 861 1063T846 985V60Z" />
<glyph unicode="&#xb7;" glyph-name="middot" horiz-adv-x="659" d="M204 566T201 569T197 579Q197 589 207 595Q239 625 298 697Q306 708 313 708Q316 708 321 705T328 699Q334 694 370 658T438 602Q448 598 448 586Q448 582 443 575Q360 481 344 468Q337 460
328 460Q324 460 315 466Q287 485 255 516T204 566Q204 566 201 569Z" />
<glyph unicode="&#xb8;" glyph-name="cedilla" horiz-adv-x="469" d="M78 -395Q175 -378 222 -345T270 -276Q270 -243 245 -229T156 -209Q158 -206 173 -161T229 14L307 12L268 -104Q329 -117 368 -147T408 -229Q408 -307 333 -364T100 -444L78 -395Z" />
<glyph unicode="&#xba;" glyph-name="ordmasculine" horiz-adv-x="578" d="M207 711T156 743T77 833T49 963Q49 1032 84 1095T177 1196T305 1235Q369 1235 419 1203T499 1113T528 983Q528 916 491 853T393 751T272 711Q207 711 156 743ZM214 1176T179 1120T143
977Q143 922 166 874T226 797T305 768Q341 768 370 794T417 865T434 967Q434 1022 412 1070T353 1147T272 1176Q214 1176 179 1120ZM61 659H516V586H61V659Z" />
<glyph unicode="&#xbb;" glyph-name="guillemotright" horiz-adv-x="736" d="M187 299T166 290Q146 281 129 272Q114 267 109 267Q103 267 98 270T93 279Q93 289 99 299Q116 336 147 392Q155 409 171 439Q176 448 176 460Q176 465 173 471T166 482L86 564Q79 572
79 585Q79 590 83 600T89 613Q127 674 156 706Q165 715 174 715Q180 715 192 706Q229 675 268 630T328 552Q344 525 344 511Q344 500 337 484Q318 450 291 408T242 339Q233 327 225 321T208 311T197 305Q187 299 166 290ZM496 303T469 291L431 272Q414 267 410
267Q404 267 400 270T395 279Q395 290 400 299Q417 336 448 392Q456 409 472 439Q477 448 477 460Q477 465 475 471T468 482L387 564Q380 572 380 585Q380 590 384 600T390 613Q428 674 457 706Q466 715 475 715Q481 715 493 706Q530 675 569 630T629 552Q645 525
645 511Q645 500 638 484Q619 450 592 408T543 339Q534 327 526 321T509 311T498 305Q496 303 469 291Z" />
<glyph unicode="&#xc0;" glyph-name="Agrave" horiz-adv-x="1219" d="M270 111Q268 103 268 99Q268 76 303 64T416 43V0H0V43Q78 57 113 70T158 111L530 1237Q550 1259 579 1277T647 1317L1067 111Q1077 82 1106 66T1198 43V0H776V43Q844 47 875 58T906 94Q906
102 903 111L789 445H381L270 111ZM582 1049L411 535H758L582 1049ZM262 1610L270 1655Q288 1674 336 1700T389 1729L776 1412Q771 1406 763 1395T748 1378T731 1367L262 1610Z" />
<glyph unicode="&#xc1;" glyph-name="Aacute" horiz-adv-x="1219" d="M270 111Q268 103 268 99Q268 76 303 64T416 43V0H0V43Q78 57 113 70T158 111L530 1237Q550 1259 579 1277T647 1317L1067 111Q1077 82 1106 66T1198 43V0H776V43Q844 47 875 58T906 94Q906
102 903 111L789 445H381L270 111ZM582 1049L411 535H758L582 1049ZM454 1373T447 1379T433 1396T422 1412L809 1729Q817 1725 863 1699T927 1655L936 1610L467 1367Q454 1373 447 1379Z" />
<glyph unicode="&#xc2;" glyph-name="Acircumflex" horiz-adv-x="1219" d="M270 111Q268 103 268 99Q268 76 303 64T416 43V0H0V43Q78 57 113 70T158 111L530 1237Q550 1259 579 1277T647 1317L1067 111Q1077 82 1106 66T1198 43V0H776V43Q844 47 875 58T906 94Q906
102 903 111L789 445H381L270 111ZM582 1049L411 535H758L582 1049ZM598 1575L327 1367Q315 1373 309 1379T295 1395T282 1412L546 1721H653L915 1412Q912 1408 905 1396T890 1378T872 1367L598 1575Z" />
<glyph unicode="&#xc3;" glyph-name="Atilde" horiz-adv-x="1219" d="M270 111Q268 103 268 99Q268 76 303 64T416 43V0H0V43Q78 57 113 70T158 111L530 1237Q550 1259 579 1277T647 1317L1067 111Q1077 82 1106 66T1198 43V0H776V43Q844 47 875 58T906 94Q906
102 903 111L789 445H381L270 111ZM582 1049L411 535H758L582 1049ZM668 1401T640 1416T567 1461Q528 1488 504 1501T454 1514Q417 1514 385 1485T311 1393L258 1413Q298 1506 361 1572T497 1639Q534 1639 568 1622T646 1573Q679 1549 700 1538T741 1526Q815 1526
886 1649L940 1626Q900 1534 836 1468T700 1401Q668 1401 640 1416Z" />
<glyph unicode="&#xc4;" glyph-name="Adieresis" horiz-adv-x="1219" d="M270 111Q268 103 268 99Q268 76 303 64T416 43V0H0V43Q78 57 113 70T158 111L530 1237Q550 1259 579 1277T647 1317L1067 111Q1077 82 1106 66T1198 43V0H776V43Q844 47 875 58T906 94Q906
102 903 111L789 445H381L270 111ZM582 1049L411 535H758L582 1049ZM299 1404T299 1500Q299 1537 314 1568T356 1618T414 1636Q499 1636 499 1541Q499 1484 466 1444T383 1404Q299 1404 299 1500ZM699 1404T699 1500Q699 1537 714 1568T756 1618T814 1636Q899 1636
899 1541Q899 1484 866 1444T783 1404Q699 1404 699 1500Z" />
<glyph unicode="&#xc5;" glyph-name="Aring" horiz-adv-x="1219" d="M270 111Q268 103 268 99Q268 76 303 64T416 43V0H0V43Q78 57 113 70T158 111L530 1237Q550 1259 579 1277T647 1317L1067 111Q1077 82 1106 66T1198 43V0H776V43Q844 47 875 58T906 94Q906
102 903 111L789 445H381L270 111ZM582 1049L411 535H758L582 1049ZM524 1370T489 1391T433 1447T413 1524Q413 1590 445 1644T527 1729T630 1760Q672 1760 707 1739T764 1681T785 1604Q785 1539 753 1486T670 1401T568 1370Q524 1370 489 1391ZM566 1684T535 1651T503
1565Q503 1517 527 1482T589 1446Q632 1446 663 1477T695 1563Q695 1613 671 1648T609 1684Q566 1684 535 1651Z" />
<glyph unicode="&#xc6;" glyph-name="AE" horiz-adv-x="1595" d="M631 0V43Q697 56 735 73T774 104V651H505L285 111Q281 103 281 95Q281 74 313 63T416 43V0H0V43Q76 56 111 70T158 111L571 1133Q574 1141 574 1146Q574 1170 531 1183T381 1217V1260H1438L1468
1235Q1465 1182 1453 1115T1427 1010H1382Q1378 1100 1359 1135T1300 1170H934V735H1339L1366 707Q1346 676 1320 644T1274 596Q1244 626 1201 638T1075 651H934V154Q934 132 950 119T1011 98T1141 90H1270Q1337 90 1373 101T1435 148T1491 262L1536 244Q1523 115
1493 0H631ZM774 1157T767 1162T748 1168Q733 1168 719 1159T696 1131L539 735H774V1148Q774 1157 767 1162Z" />
<glyph unicode="&#xc7;" glyph-name="Ccedilla" horiz-adv-x="1098" d="M914 99T821 43T635 -26L609 -104Q670 -117 709 -147T749 -229Q749 -307 674 -364T441 -444L419 -395Q516 -378 563 -345T611 -276Q611 -243 586 -229T497 -209Q498 -206 510 -170T556 -30Q432
-25 320 51T139 265T70 586Q70 793 152 953T373 1202T676 1290Q777 1290 860 1263T999 1190Q1009 1182 977 1142T909 1067L874 1073Q820 1123 749 1151T592 1180Q514 1180 429 1123T285 941T225 623Q225 455 287 334T446 152T643 90Q703 90 790 130T981 256Q990
252 1002 233T1018 211Q914 99 821 43Z" />
<glyph unicode="&#xc8;" glyph-name="Egrave" horiz-adv-x="1016" d="M50 0V43Q116 56 155 73T195 104V1155Q195 1168 157 1186T50 1217V1260H856L889 1235Q886 1186 874 1119T848 1010H803Q799 1099 779 1134T721 1170H355V735H760L786 707Q768 677 742 644T694
596Q662 626 620 638T496 651H355V154Q355 132 370 119T430 98T559 90H688Q755 90 791 101T855 148T911 262L954 244Q947 167 936 103T913 0H50ZM165 1610L173 1655Q191 1674 239 1700T292 1729L679 1412Q674 1406 666 1395T651 1378T634 1367L165 1610Z" />
<glyph unicode="&#xc9;" glyph-name="Eacute" horiz-adv-x="1016" d="M50 0V43Q116 56 155 73T195 104V1155Q195 1168 157 1186T50 1217V1260H856L889 1235Q886 1186 874 1119T848 1010H803Q799 1099 779 1134T721 1170H355V735H760L786 707Q768 677 742 644T694
596Q662 626 620 638T496 651H355V154Q355 132 370 119T430 98T559 90H688Q755 90 791 101T855 148T911 262L954 244Q947 167 936 103T913 0H50ZM357 1373T350 1379T336 1396T325 1412L712 1729Q720 1725 766 1699T830 1655L839 1610L370 1367Q357 1373 350 1379Z"
/>
<glyph unicode="&#xca;" glyph-name="Ecircumflex" horiz-adv-x="1016" d="M50 0V43Q116 56 155 73T195 104V1155Q195 1168 157 1186T50 1217V1260H856L889 1235Q886 1186 874 1119T848 1010H803Q799 1099 779 1134T721 1170H355V735H760L786 707Q768 677 742
644T694 596Q662 626 620 638T496 651H355V154Q355 132 370 119T430 98T559 90H688Q755 90 791 101T855 148T911 262L954 244Q947 167 936 103T913 0H50ZM501 1575L230 1367Q218 1373 212 1379T198 1395T185 1412L449 1721H556L818 1412Q815 1408 808 1396T793
1378T775 1367L501 1575Z" />
<glyph unicode="&#xcb;" glyph-name="Edieresis" horiz-adv-x="1016" d="M50 0V43Q116 56 155 73T195 104V1155Q195 1168 157 1186T50 1217V1260H856L889 1235Q886 1186 874 1119T848 1010H803Q799 1099 779 1134T721 1170H355V735H760L786 707Q768 677 742 644T694
596Q662 626 620 638T496 651H355V154Q355 132 370 119T430 98T559 90H688Q755 90 791 101T855 148T911 262L954 244Q947 167 936 103T913 0H50ZM202 1404T202 1500Q202 1537 217 1568T259 1618T317 1636Q402 1636 402 1541Q402 1484 369 1444T286 1404Q202 1404
202 1500ZM602 1404T602 1500Q602 1537 617 1568T659 1618T717 1636Q802 1636 802 1541Q802 1484 769 1444T686 1404Q602 1404 602 1500Z" />
<glyph unicode="&#xcc;" glyph-name="Igrave" horiz-adv-x="610" d="M70 43Q136 56 175 73T215 104V1155Q215 1168 177 1186T70 1217V1260H520V1217Q453 1203 414 1186T375 1155V104Q375 91 413 74T520 43V0H70V43ZM-42 1610L-34 1655Q-16 1674 32 1700T85 1729L472
1412Q467 1406 459 1395T444 1378T427 1367L-42 1610Z" />
<glyph unicode="&#xcd;" glyph-name="Iacute" horiz-adv-x="610" d="M70 43Q136 56 175 73T215 104V1155Q215 1168 177 1186T70 1217V1260H520V1217Q453 1203 414 1186T375 1155V104Q375 91 413 74T520 43V0H70V43ZM150 1373T143 1379T129 1396T118 1412L505 1729Q513
1725 559 1699T623 1655L632 1610L163 1367Q150 1373 143 1379Z" />
<glyph unicode="&#xce;" glyph-name="Icircumflex" horiz-adv-x="610" d="M70 43Q136 56 175 73T215 104V1155Q215 1168 177 1186T70 1217V1260H520V1217Q453 1203 414 1186T375 1155V104Q375 91 413 74T520 43V0H70V43ZM294 1575L23 1367Q11 1373 5 1379T-9 1395T-22
1412L242 1721H349L611 1412Q608 1408 601 1396T586 1378T568 1367L294 1575Z" />
<glyph unicode="&#xcf;" glyph-name="Idieresis" horiz-adv-x="610" d="M70 43Q136 56 175 73T215 104V1155Q215 1168 177 1186T70 1217V1260H520V1217Q453 1203 414 1186T375 1155V104Q375 91 413 74T520 43V0H70V43ZM-5 1404T-5 1500Q-5 1537 10 1568T52 1618T110
1636Q195 1636 195 1541Q195 1484 162 1444T79 1404Q-5 1404 -5 1500ZM395 1404T395 1500Q395 1537 410 1568T452 1618T510 1636Q595 1636 595 1541Q595 1484 562 1444T479 1404Q395 1404 395 1500Z" />
<glyph unicode="&#xd0;" glyph-name="Eth" horiz-adv-x="1214" d="M703 1290T839 1217T1049 1006T1123 676Q1123 442 1036 290T820 69T559 0H50V43Q116 56 155 73T195 104V615H49L27 640Q37 674 49 705H195V1188Q210 1190 96 1175Q80 1172 50 1168L41 1230Q131
1255 266 1272T518 1290Q703 1290 839 1217ZM635 84T731 147T890 335T953 637Q953 814 895 942T724 1138T453 1206Q403 1206 355 1203V705H614L639 682L614 615H355V154Q355 132 365 118Q380 100 420 92T537 84Q635 84 731 147Z" />
<glyph unicode="&#xd1;" glyph-name="Ntilde" horiz-adv-x="1329" d="M50 43Q96 49 129 59T178 82T195 104V1149Q136 1204 50 1217V1260H262Q282 1260 293 1255T317 1236T358 1182L1015 276V1155Q1015 1170 979 1188T870 1217V1260H1280V1217Q1213 1208 1174 1190T1135
1155V-30Q1088 -24 1059 -11T1016 21L315 993V104Q315 95 331 84T379 61T460 43V0H50V43ZM734 1401T706 1416T633 1461Q594 1488 570 1501T520 1514Q483 1514 451 1485T377 1393L324 1413Q364 1506 427 1572T563 1639Q600 1639 634 1622T712 1573Q745 1549 766
1538T807 1526Q881 1526 952 1649L1006 1626Q966 1534 902 1468T766 1401Q734 1401 706 1416Z" />
<glyph unicode="&#xd2;" glyph-name="Ograve" horiz-adv-x="1229" d="M420 -30T306 58T131 294T70 612Q70 791 145 947T350 1197T633 1290Q791 1290 905 1200T1079 962T1138 647Q1138 469 1061 313T854 64T575 -30Q420 -30 306 58ZM487 1175T402 1110T271 924T225
641Q225 494 277 367T416 165T604 90Q716 90 801 152T935 335T983 629Q983 768 935 894T800 1097T604 1175Q487 1175 402 1110ZM278 1610L286 1655Q304 1674 352 1700T405 1729L792 1412Q787 1406 779 1395T764 1378T747 1367L278 1610Z" />
<glyph unicode="&#xd3;" glyph-name="Oacute" horiz-adv-x="1229" d="M420 -30T306 58T131 294T70 612Q70 791 145 947T350 1197T633 1290Q791 1290 905 1200T1079 962T1138 647Q1138 469 1061 313T854 64T575 -30Q420 -30 306 58ZM487 1175T402 1110T271 924T225
641Q225 494 277 367T416 165T604 90Q716 90 801 152T935 335T983 629Q983 768 935 894T800 1097T604 1175Q487 1175 402 1110ZM470 1373T463 1379T449 1396T438 1412L825 1729Q833 1725 879 1699T943 1655L952 1610L483 1367Q470 1373 463 1379Z" />
<glyph unicode="&#xd4;" glyph-name="Ocircumflex" horiz-adv-x="1229" d="M420 -30T306 58T131 294T70 612Q70 791 145 947T350 1197T633 1290Q791 1290 905 1200T1079 962T1138 647Q1138 469 1061 313T854 64T575 -30Q420 -30 306 58ZM487 1175T402 1110T271
924T225 641Q225 494 277 367T416 165T604 90Q716 90 801 152T935 335T983 629Q983 768 935 894T800 1097T604 1175Q487 1175 402 1110ZM614 1575L343 1367Q331 1373 325 1379T311 1395T298 1412L562 1721H669L931 1412Q928 1408 921 1396T906 1378T888 1367L614
1575Z" />
<glyph unicode="&#xd5;" glyph-name="Otilde" horiz-adv-x="1229" d="M420 -30T306 58T131 294T70 612Q70 791 145 947T350 1197T633 1290Q791 1290 905 1200T1079 962T1138 647Q1138 469 1061 313T854 64T575 -30Q420 -30 306 58ZM487 1175T402 1110T271 924T225
641Q225 494 277 367T416 165T604 90Q716 90 801 152T935 335T983 629Q983 768 935 894T800 1097T604 1175Q487 1175 402 1110ZM684 1401T656 1416T583 1461Q544 1488 520 1501T470 1514Q433 1514 401 1485T327 1393L274 1413Q314 1506 377 1572T513 1639Q550 1639
584 1622T662 1573Q695 1549 716 1538T757 1526Q831 1526 902 1649L956 1626Q916 1534 852 1468T716 1401Q684 1401 656 1416Z" />
<glyph unicode="&#xd6;" glyph-name="Odieresis" horiz-adv-x="1229" d="M420 -30T306 58T131 294T70 612Q70 791 145 947T350 1197T633 1290Q791 1290 905 1200T1079 962T1138 647Q1138 469 1061 313T854 64T575 -30Q420 -30 306 58ZM487 1175T402 1110T271 924T225
641Q225 494 277 367T416 165T604 90Q716 90 801 152T935 335T983 629Q983 768 935 894T800 1097T604 1175Q487 1175 402 1110ZM315 1404T315 1500Q315 1537 330 1568T372 1618T430 1636Q515 1636 515 1541Q515 1484 482 1444T399 1404Q315 1404 315 1500ZM715
1404T715 1500Q715 1537 730 1568T772 1618T830 1636Q915 1636 915 1541Q915 1484 882 1444T799 1404Q715 1404 715 1500Z" />
<glyph unicode="&#xd7;" glyph-name="multiply" horiz-adv-x="1022" d="M459 416T357 315T222 181Q212 171 202 171Q194 171 183 179L129 235Q118 246 118 255Q118 263 129 274Q163 306 252 391T426 559Q348 636 261 721T140 838Q139 839 136 844T133 855Q133
865 144 876L197 930Q205 941 217 941Q225 941 236 930Q269 895 354 807T513 645Q562 694 660 797T790 935Q798 944 807 944Q816 944 828 932L884 879Q893 865 893 858Q893 851 882 838Q848 804 761 718T600 559Q683 477 769 394T889 279Q900 268 900 260Q900 249
889 240L835 186Q825 176 814 176Q803 176 794 186Q763 217 679 302T513 473Q459 416 357 315Z" />
<glyph unicode="&#xd8;" glyph-name="Oslash" horiz-adv-x="1229" d="M1069 1010T1103 892T1138 647Q1138 469 1061 313T854 64T575 -30Q411 -30 286 74L233 -2Q218 -15 187 -26T104 -53L76 -20L204 162Q139 250 105 367T70 612Q70 791 145 947T350 1197T633 1290Q797
1290 921 1187L975 1264Q1026 1295 1102 1313L1130 1280L1003 1099Q1069 1010 1103 892ZM834 1063Q787 1116 729 1145T604 1175Q487 1175 402 1110T271 924T225 641Q225 549 246 464T305 307L834 1063ZM377 203Q426 149 484 120T604 90Q716 90 801 152T935 335T983
629Q983 717 963 802T905 959L377 203Z" />
<glyph unicode="&#xd9;" glyph-name="Ugrave" horiz-adv-x="1339" d="M1130 524Q1130 351 1074 226T914 36T666 -30Q525 -30 420 21T255 179T195 444V1155Q195 1168 157 1186T50 1217V1260H500V1217Q433 1203 394 1186T355 1155V494Q355 300 445 193T705 85Q796
85 863 141T965 289T1000 483V1155Q1000 1168 962 1186T855 1217V1260H1275V1217Q1208 1203 1169 1186T1130 1155V524ZM340 1610L348 1655Q366 1674 414 1700T467 1729L854 1412Q849 1406 841 1395T826 1378T809 1367L340 1610Z" />
<glyph unicode="&#xda;" glyph-name="Uacute" horiz-adv-x="1339" d="M1130 524Q1130 351 1074 226T914 36T666 -30Q525 -30 420 21T255 179T195 444V1155Q195 1168 157 1186T50 1217V1260H500V1217Q433 1203 394 1186T355 1155V494Q355 300 445 193T705 85Q796
85 863 141T965 289T1000 483V1155Q1000 1168 962 1186T855 1217V1260H1275V1217Q1208 1203 1169 1186T1130 1155V524ZM532 1373T525 1379T511 1396T500 1412L887 1729Q895 1725 941 1699T1005 1655L1014 1610L545 1367Q532 1373 525 1379Z" />
<glyph unicode="&#xdb;" glyph-name="Ucircumflex" horiz-adv-x="1339" d="M1130 524Q1130 351 1074 226T914 36T666 -30Q525 -30 420 21T255 179T195 444V1155Q195 1168 157 1186T50 1217V1260H500V1217Q433 1203 394 1186T355 1155V494Q355 300 445 193T705
85Q796 85 863 141T965 289T1000 483V1155Q1000 1168 962 1186T855 1217V1260H1275V1217Q1208 1203 1169 1186T1130 1155V524ZM676 1575L405 1367Q393 1373 387 1379T373 1395T360 1412L624 1721H731L993 1412Q990 1408 983 1396T968 1378T950 1367L676 1575Z"
/>
<glyph unicode="&#xdc;" glyph-name="Udieresis" horiz-adv-x="1339" d="M1130 524Q1130 351 1074 226T914 36T666 -30Q525 -30 420 21T255 179T195 444V1155Q195 1168 157 1186T50 1217V1260H500V1217Q433 1203 394 1186T355 1155V494Q355 300 445 193T705 85Q796
85 863 141T965 289T1000 483V1155Q1000 1168 962 1186T855 1217V1260H1275V1217Q1208 1203 1169 1186T1130 1155V524ZM377 1404T377 1500Q377 1537 392 1568T434 1618T492 1636Q577 1636 577 1541Q577 1484 544 1444T461 1404Q377 1404 377 1500ZM777 1404T777
1500Q777 1537 792 1568T834 1618T892 1636Q977 1636 977 1541Q977 1484 944 1444T861 1404Q777 1404 777 1500Z" />
<glyph unicode="&#xdd;" glyph-name="Yacute" horiz-adv-x="1217" d="M360 43Q444 60 484 79T524 115V537Q455 688 351 866T168 1151Q153 1169 136 1180T88 1199T4 1206L0 1249Q149 1270 219 1270Q266 1270 297 1231Q370 1137 460 983T623 680L891 1151Q897 1162
897 1170Q897 1187 870 1198T780 1217V1260H1176V1217Q1104 1203 1069 1189T1020 1151L684 541V115Q684 100 724 80T850 43V0H360V43ZM459 1373T452 1379T438 1396T427 1412L814 1729Q822 1725 868 1699T932 1655L941 1610L472 1367Q459 1373 452 1379Z" />
<glyph unicode="&#xde;" glyph-name="Thorn" horiz-adv-x="1071" d="M49 43Q115 56 155 73T195 104V1155Q195 1168 156 1186T49 1217V1260H530V1217Q433 1201 394 1186T355 1155V1014Q418 1020 510 1020Q654 1020 760 979T924 859T982 666Q982 537 916 446T755
310T573 265Q477 265 412 298L389 369Q427 352 464 346T543 340Q608 340 674 373T783 471T827 625Q827 731 778 801T645 903T453 936Q403 936 355 933V104Q355 72 530 43V0H49V43Z" />
<glyph unicode="&#xdf;" glyph-name="germandbls" horiz-adv-x="1157" d="M692 -30T634 -18T527 13T469 47Q463 58 463 115Q463 167 468 218T483 283L522 270Q531 202 569 157T660 91T768 70Q815 70 853 88T914 140T937 217Q937 282 906 328T830 405T708 476Q633
515 589 545T514 620T483 729Q483 797 509 841T572 911T670 965Q720 989 748 1006T796 1052T815 1122Q815 1195 789 1264T706 1379T565 1425Q495 1425 447 1390T372 1265T345 1016V0H55V43Q119 54 157 71T195 102V961Q195 1112 221 1206T287 1352T393 1458Q448
1502 515 1526T653 1550Q760 1550 831 1494T934 1355T967 1190Q967 1101 936 1044T861 957T750 895Q705 874 681 860T640 823T623 770Q623 736 645 709T699 662T792 612Q879 569 933 532T1027 434T1067 283Q1067 200 1031 129T919 14T729 -30Q692 -30 634 -18Z"
/>
<glyph unicode="&#xe0;" glyph-name="agrave" horiz-adv-x="940" d="M669 -30T647 17T623 143Q538 57 450 14T293 -30Q241 -30 193 -7T112 64T80 186Q80 257 104 308T170 401Q207 438 253 464T388 515T623 561V702Q623 775 587 817T465 860Q420 860 379 843T313
795T292 724Q293 713 264 700T196 676T133 666Q125 666 122 667L108 706Q138 771 209 830T371 924T544 960Q653 960 713 903T773 742V178Q773 100 813 100Q846 100 911 127L926 82Q844 25 788 -2T702 -30Q669 -30 647 17ZM623 486Q516 469 454 452T359 416T302
372Q244 311 244 229Q244 180 262 152T305 112T352 100Q476 100 623 227V486ZM186 1424L208 1465Q229 1471 279 1479T354 1489L594 1078Q572 1057 538 1047L186 1424Z" />
<glyph unicode="&#xe1;" glyph-name="aacute" horiz-adv-x="940" d="M669 -30T647 17T623 143Q538 57 450 14T293 -30Q241 -30 193 -7T112 64T80 186Q80 257 104 308T170 401Q207 438 253 464T388 515T623 561V702Q623 775 587 817T465 860Q420 860 379 843T313
795T292 724Q293 713 264 700T196 676T133 666Q125 666 122 667L108 706Q138 771 209 830T371 924T544 960Q653 960 713 903T773 742V178Q773 100 813 100Q846 100 911 127L926 82Q844 25 788 -2T702 -30Q669 -30 647 17ZM623 486Q516 469 454 452T359 416T302
372Q244 311 244 229Q244 180 262 152T305 112T352 100Q476 100 623 227V486ZM409 1052T380 1075L614 1489Q640 1487 689 1480T759 1466L782 1427L437 1047Q409 1052 380 1075Z" />
<glyph unicode="&#xe2;" glyph-name="acircumflex" horiz-adv-x="940" d="M669 -30T647 17T623 143Q538 57 450 14T293 -30Q241 -30 193 -7T112 64T80 186Q80 257 104 308T170 401Q207 438 253 464T388 515T623 561V702Q623 775 587 817T465 860Q420 860 379 843T313
795T292 724Q293 713 264 700T196 676T133 666Q125 666 122 667L108 706Q138 771 209 830T371 924T544 960Q653 960 713 903T773 742V178Q773 100 813 100Q846 100 911 127L926 82Q844 25 788 -2T702 -30Q669 -30 647 17ZM623 486Q516 469 454 452T359 416T302
372Q244 311 244 229Q244 180 262 152T305 112T352 100Q476 100 623 227V486ZM479 1315L208 1047Q196 1053 190 1059T176 1075T163 1092L427 1471H534L796 1092Q793 1088 786 1076T771 1058T753 1047L479 1315Z" />
<glyph unicode="&#xe3;" glyph-name="atilde" horiz-adv-x="940" d="M669 -30T647 17T623 143Q538 57 450 14T293 -30Q241 -30 193 -7T112 64T80 186Q80 257 104 308T170 401Q207 438 253 464T388 515T623 561V702Q623 775 587 817T465 860Q420 860 379 843T313
795T292 724Q293 713 264 700T196 676T133 666Q125 666 122 667L108 706Q138 771 209 830T371 924T544 960Q653 960 713 903T773 742V178Q773 100 813 100Q846 100 911 127L926 82Q844 25 788 -2T702 -30Q669 -30 647 17ZM623 486Q516 469 454 452T359 416T302
372Q244 311 244 229Q244 180 262 152T305 112T352 100Q476 100 623 227V486ZM549 1121T521 1136T448 1181Q409 1208 385 1221T335 1234Q298 1234 266 1205T192 1113L139 1133Q179 1226 242 1292T378 1359Q415 1359 449 1342T527 1293Q560 1269 581 1258T622 1246Q696
1246 767 1369L821 1346Q781 1254 717 1188T581 1121Q549 1121 521 1136Z" />
<glyph unicode="&#xe4;" glyph-name="adieresis" horiz-adv-x="940" d="M669 -30T647 17T623 143Q538 57 450 14T293 -30Q241 -30 193 -7T112 64T80 186Q80 257 104 308T170 401Q207 438 253 464T388 515T623 561V702Q623 775 587 817T465 860Q420 860 379 843T313
795T292 724Q293 713 264 700T196 676T133 666Q125 666 122 667L108 706Q138 771 209 830T371 924T544 960Q653 960 713 903T773 742V178Q773 100 813 100Q846 100 911 127L926 82Q844 25 788 -2T702 -30Q669 -30 647 17ZM623 486Q516 469 454 452T359 416T302
372Q244 311 244 229Q244 180 262 152T305 112T352 100Q476 100 623 227V486ZM180 1124T180 1220Q180 1257 195 1288T237 1338T295 1356Q380 1356 380 1261Q380 1204 347 1164T264 1124Q180 1124 180 1220ZM580 1124T580 1220Q580 1257 595 1288T637 1338T695 1356Q780
1356 780 1261Q780 1204 747 1164T664 1124Q580 1124 580 1220Z" />
<glyph unicode="&#xe5;" glyph-name="aring" horiz-adv-x="940" d="M669 -30T647 17T623 143Q538 57 450 14T293 -30Q241 -30 193 -7T112 64T80 186Q80 257 104 308T170 401Q207 438 253 464T388 515T623 561V702Q623 775 587 817T465 860Q420 860 379 843T313
795T292 724Q293 713 264 700T196 676T133 666Q125 666 122 667L108 706Q138 771 209 830T371 924T544 960Q653 960 713 903T773 742V178Q773 100 813 100Q846 100 911 127L926 82Q844 25 788 -2T702 -30Q669 -30 647 17ZM623 486Q516 469 454 452T359 416T302
372Q244 311 244 229Q244 180 262 152T305 112T352 100Q476 100 623 227V486ZM405 1050T370 1071T314 1127T294 1204Q294 1270 326 1324T408 1409T511 1440Q553 1440 588 1419T645 1361T666 1284Q666 1219 634 1166T551 1081T449 1050Q405 1050 370 1071ZM447 1364T416
1331T384 1245Q384 1197 408 1162T470 1126Q513 1126 544 1157T576 1243Q576 1293 552 1328T490 1364Q447 1364 416 1331Z" />
<glyph unicode="&#xe6;" glyph-name="ae" horiz-adv-x="1417" d="M776 489Q774 466 774 418Q774 339 802 266T884 148T1008 102Q1056 102 1092 110T1176 148T1292 236Q1310 226 1329 195Q1252 103 1189 54T1069 -12T944 -30Q854 -30 777 25T658 179Q604 114 536
67T402 -5T293 -30Q241 -30 193 -7T112 64T80 186Q80 308 176 403T463 553Q522 569 623 576V662Q623 753 590 806T467 860Q430 860 387 840T315 786T285 713Q285 694 292 676Q295 666 267 653T199 630T135 620Q125 620 122 621L108 657Q117 731 192 801T365 916T535
960Q622 960 673 925T749 816Q809 891 883 925T1024 960Q1138 960 1208 900T1307 749T1337 557Q1300 519 1225 489H776ZM1133 580Q1154 580 1162 587T1171 616Q1171 720 1127 790T995 860Q958 860 917 836T839 750T785 580H1133ZM623 485Q548 480 526 473Q244 404
244 229Q244 180 262 152T305 112T352 100Q410 100 488 137T637 243Q623 302 623 365V485Z" />
<glyph unicode="&#xe7;" glyph-name="ccedilla" horiz-adv-x="895" d="M742 75T676 30T541 -26L515 -104Q576 -117 615 -147T655 -229Q655 -307 580 -364T347 -444L325 -395Q422 -378 469 -345T517 -276Q517 -243 492 -229T403 -209Q404 -206 416 -170T462 -30Q363
-29 276 29T134 194T80 444Q80 586 147 704T332 891T590 960Q657 960 724 938T825 881Q829 858 809 803T768 717L731 727Q718 755 689 783T612 830T500 850Q428 850 367 807T268 680T230 475Q230 365 272 280T385 147T537 100Q581 100 611 107T685 142T801 231L840
190Q742 75 676 30Z" />
<glyph unicode="&#xe8;" glyph-name="egrave" horiz-adv-x="946" d="M230 490Q231 385 267 296T371 154T526 100Q574 100 612 109T700 147T823 236Q841 226 860 195Q772 98 710 51T593 -13T465 -30Q362 -30 274 28T133 191T80 434Q80 570 139 690T301 881Q348
914 410 937T524 960Q646 960 723 898T833 745T866 557Q834 521 756 490H230ZM664 580Q686 580 694 587T702 616Q702 663 685 717T622 813T496 855Q428 855 374 821T284 724T236 580H664ZM216 1424L238 1465Q259 1471 309 1479T384 1489L624 1078Q602 1057 568
1047L216 1424Z" />
<glyph unicode="&#xe9;" glyph-name="eacute" horiz-adv-x="946" d="M230 490Q231 385 267 296T371 154T526 100Q574 100 612 109T700 147T823 236Q841 226 860 195Q772 98 710 51T593 -13T465 -30Q362 -30 274 28T133 191T80 434Q80 570 139 690T301 881Q348
914 410 937T524 960Q646 960 723 898T833 745T866 557Q834 521 756 490H230ZM664 580Q686 580 694 587T702 616Q702 663 685 717T622 813T496 855Q428 855 374 821T284 724T236 580H664ZM439 1052T410 1075L644 1489Q670 1487 719 1480T789 1466L812 1427L467
1047Q439 1052 410 1075Z" />
<glyph unicode="&#xea;" glyph-name="ecircumflex" horiz-adv-x="946" d="M230 490Q231 385 267 296T371 154T526 100Q574 100 612 109T700 147T823 236Q841 226 860 195Q772 98 710 51T593 -13T465 -30Q362 -30 274 28T133 191T80 434Q80 570 139 690T301 881Q348
914 410 937T524 960Q646 960 723 898T833 745T866 557Q834 521 756 490H230ZM664 580Q686 580 694 587T702 616Q702 663 685 717T622 813T496 855Q428 855 374 821T284 724T236 580H664ZM509 1315L238 1047Q226 1053 220 1059T206 1075T193 1092L457 1471H564L826
1092Q823 1088 816 1076T801 1058T783 1047L509 1315Z" />
<glyph unicode="&#xeb;" glyph-name="edieresis" horiz-adv-x="946" d="M230 490Q231 385 267 296T371 154T526 100Q574 100 612 109T700 147T823 236Q841 226 860 195Q772 98 710 51T593 -13T465 -30Q362 -30 274 28T133 191T80 434Q80 570 139 690T301 881Q348
914 410 937T524 960Q646 960 723 898T833 745T866 557Q834 521 756 490H230ZM664 580Q686 580 694 587T702 616Q702 663 685 717T622 813T496 855Q428 855 374 821T284 724T236 580H664ZM210 1124T210 1220Q210 1257 225 1288T267 1338T325 1356Q410 1356 410
1261Q410 1204 377 1164T294 1124Q210 1124 210 1220ZM610 1124T610 1220Q610 1257 625 1288T667 1338T725 1356Q810 1356 810 1261Q810 1204 777 1164T694 1124Q610 1124 610 1220Z" />
<glyph unicode="&#xec;" glyph-name="igrave" horiz-adv-x="555" d="M70 43Q135 56 172 73T210 104V670Q210 749 204 778T170 820T70 840V880Q135 892 206 914T326 960H360V104Q360 90 396 73T500 43V0H70V43ZM-9 1424L13 1465Q34 1471 84 1479T159 1489L399 1078Q377
1057 343 1047L-9 1424Z" />
<glyph unicode="&#xed;" glyph-name="iacute" horiz-adv-x="555" d="M70 43Q135 56 172 73T210 104V670Q210 749 204 778T170 820T70 840V880Q135 892 206 914T326 960H360V104Q360 90 396 73T500 43V0H70V43ZM214 1052T185 1075L419 1489Q445 1487 494 1480T564
1466L587 1427L242 1047Q214 1052 185 1075Z" />
<glyph unicode="&#xee;" glyph-name="icircumflex" horiz-adv-x="555" d="M70 43Q135 56 172 73T210 104V670Q210 749 204 778T170 820T70 840V880Q135 892 206 914T326 960H360V104Q360 90 396 73T500 43V0H70V43ZM284 1315L13 1047Q1 1053 -5 1059T-19 1075T-32
1092L232 1471H339L601 1092Q598 1088 591 1076T576 1058T558 1047L284 1315Z" />
<glyph unicode="&#xef;" glyph-name="idieresis" horiz-adv-x="555" d="M70 43Q135 56 172 73T210 104V670Q210 749 204 778T170 820T70 840V880Q135 892 206 914T326 960H360V104Q360 90 396 73T500 43V0H70V43ZM-15 1124T-15 1220Q-15 1257 0 1288T42 1338T100
1356Q185 1356 185 1261Q185 1204 152 1164T69 1124Q-15 1124 -15 1220ZM385 1124T385 1220Q385 1257 400 1288T442 1338T500 1356Q585 1356 585 1261Q585 1204 552 1164T469 1124Q385 1124 385 1220Z" />
<glyph unicode="&#xf0;" glyph-name="eth" horiz-adv-x="1020" d="M369 -30T275 31T130 200T80 444Q80 574 141 693T301 886T506 960Q563 960 630 923T750 829Q722 927 673 1008T550 1165L324 1067Q314 1068 296 1070T265 1075T233 1085L223 1122L478 1233Q425
1279 372 1304T254 1330Q234 1330 211 1327L205 1368L406 1440Q519 1365 603 1287L811 1378Q844 1373 860 1370T888 1362T905 1356L911 1321L673 1218Q807 1074 871 915T935 592Q935 378 862 238T686 34T496 -30Q369 -30 275 31ZM398 850T344 801T263 667T235 473Q235
372 278 282T384 136T506 80Q583 80 646 131T747 288T785 551Q785 557 785 566T785 586Q760 660 709 720T596 815T475 850Q398 850 344 801Z" />
<glyph unicode="&#xf1;" glyph-name="ntilde" horiz-adv-x="1130" d="M670 43Q743 62 776 76T810 104V633Q810 714 798 756T758 814T682 830Q613 830 524 762T345 549V104Q345 89 382 73T485 43V0H55V43Q130 63 162 76T195 104V711Q195 768 188 790T153 822T55
840V880Q171 898 295 960L330 925L341 676Q397 761 470 826T614 925T739 960Q799 960 849 936T929 863T960 741V104Q960 90 991 77T1100 43V0H670V43ZM646 1121T618 1136T545 1181Q506 1208 482 1221T432 1234Q395 1234 363 1205T289 1113L236 1133Q276 1226 339
1292T475 1359Q512 1359 546 1342T624 1293Q657 1269 678 1258T719 1246Q793 1246 864 1369L918 1346Q878 1254 814 1188T678 1121Q646 1121 618 1136Z" />
<glyph unicode="&#xf2;" glyph-name="ograve" horiz-adv-x="1030" d="M372 -30T278 31T132 200T80 444Q80 575 142 694T308 887T535 960Q658 960 752 899T898 729T950 485Q950 354 887 235T720 43T496 -30Q372 -30 278 31ZM362 850T299 749T235 473Q235 372 280
282T394 136T524 80Q661 80 728 179T795 455Q795 557 752 648T642 795T506 850Q362 850 299 749ZM241 1424L263 1465Q284 1471 334 1479T409 1489L649 1078Q627 1057 593 1047L241 1424Z" />
<glyph unicode="&#xf3;" glyph-name="oacute" horiz-adv-x="1030" d="M372 -30T278 31T132 200T80 444Q80 575 142 694T308 887T535 960Q658 960 752 899T898 729T950 485Q950 354 887 235T720 43T496 -30Q372 -30 278 31ZM362 850T299 749T235 473Q235 372 280
282T394 136T524 80Q661 80 728 179T795 455Q795 557 752 648T642 795T506 850Q362 850 299 749ZM464 1052T435 1075L669 1489Q695 1487 744 1480T814 1466L837 1427L492 1047Q464 1052 435 1075Z" />
<glyph unicode="&#xf4;" glyph-name="ocircumflex" horiz-adv-x="1030" d="M372 -30T278 31T132 200T80 444Q80 575 142 694T308 887T535 960Q658 960 752 899T898 729T950 485Q950 354 887 235T720 43T496 -30Q372 -30 278 31ZM362 850T299 749T235 473Q235 372
280 282T394 136T524 80Q661 80 728 179T795 455Q795 557 752 648T642 795T506 850Q362 850 299 749ZM534 1315L263 1047Q251 1053 245 1059T231 1075T218 1092L482 1471H589L851 1092Q848 1088 841 1076T826 1058T808 1047L534 1315Z" />
<glyph unicode="&#xf5;" glyph-name="otilde" horiz-adv-x="1030" d="M372 -30T278 31T132 200T80 444Q80 575 142 694T308 887T535 960Q658 960 752 899T898 729T950 485Q950 354 887 235T720 43T496 -30Q372 -30 278 31ZM362 850T299 749T235 473Q235 372 280
282T394 136T524 80Q661 80 728 179T795 455Q795 557 752 648T642 795T506 850Q362 850 299 749ZM604 1121T576 1136T503 1181Q464 1208 440 1221T390 1234Q353 1234 321 1205T247 1113L194 1133Q234 1226 297 1292T433 1359Q470 1359 504 1342T582 1293Q615 1269
636 1258T677 1246Q751 1246 822 1369L876 1346Q836 1254 772 1188T636 1121Q604 1121 576 1136Z" />
<glyph unicode="&#xf6;" glyph-name="odieresis" horiz-adv-x="1030" d="M372 -30T278 31T132 200T80 444Q80 575 142 694T308 887T535 960Q658 960 752 899T898 729T950 485Q950 354 887 235T720 43T496 -30Q372 -30 278 31ZM362 850T299 749T235 473Q235 372
280 282T394 136T524 80Q661 80 728 179T795 455Q795 557 752 648T642 795T506 850Q362 850 299 749ZM235 1124T235 1220Q235 1257 250 1288T292 1338T350 1356Q435 1356 435 1261Q435 1204 402 1164T319 1124Q235 1124 235 1220ZM635 1124T635 1220Q635 1257 650
1288T692 1338T750 1356Q835 1356 835 1261Q835 1204 802 1164T719 1124Q635 1124 635 1220Z" />
<glyph unicode="&#xf7;" glyph-name="divide" horiz-adv-x="1022" d="M475 749T449 774T423 835Q423 872 449 897T513 923Q548 923 574 897T600 835Q600 800 574 775T513 749Q475 749 449 774ZM900 638T900 609V532Q900 519 894 513T871 506Q831 507 730 509T541
511Q438 511 317 509T147 506Q130 506 124 512T118 532V609Q118 624 124 631T147 638Q192 637 328 635T537 633Q608 633 723 635T874 638Q900 638 900 609ZM546 385T572 360T599 298Q599 263 573 238T511 212Q473 212 447 237T421 298Q421 334 447 359T511 385Q546
385 572 360Z" />
<glyph unicode="&#xf8;" glyph-name="oslash" horiz-adv-x="1030" d="M844 815Q895 752 922 668T950 485Q950 354 887 235T720 43T496 -30Q363 -30 261 43L242 18Q221 1 181 -22T117 -53L88 -20L188 112Q136 176 108 260T80 444Q80 575 142 694T308 887T535 960Q670
960 772 885L793 913L819 930Q850 951 873 964T915 983L946 950L844 815ZM678 761Q638 803 594 826T506 850Q362 850 298 748T233 473Q233 357 294 253L678 761ZM356 169Q396 127 440 104T524 80Q662 80 729 179T797 455Q797 570 739 676L356 169Z" />
<glyph unicode="&#xf9;" glyph-name="ugrave" horiz-adv-x="1085" d="M776 -30T765 166Q651 52 567 11T408 -30Q301 -30 236 38T170 279V711Q170 780 163 805T133 838T41 854V894Q111 903 167 918T292 960L320 921V334Q320 200 358 145T473 90Q539 90 609 130T765
262V711Q765 774 756 802T718 840T625 854V894Q689 902 750 918T885 960L915 921V254Q915 188 920 151T938 104Q946 99 960 99Q995 99 1059 127L1069 82Q991 31 933 1T850 -30Q776 -30 765 166ZM251 1424L273 1465Q294 1471 344 1479T419 1489L659 1078Q637 1057
603 1047L251 1424Z" />
<glyph unicode="&#xfa;" glyph-name="uacute" horiz-adv-x="1085" d="M776 -30T765 166Q651 52 567 11T408 -30Q301 -30 236 38T170 279V711Q170 780 163 805T133 838T41 854V894Q111 903 167 918T292 960L320 921V334Q320 200 358 145T473 90Q539 90 609 130T765
262V711Q765 774 756 802T718 840T625 854V894Q689 902 750 918T885 960L915 921V254Q915 188 920 151T938 104Q946 99 960 99Q995 99 1059 127L1069 82Q991 31 933 1T850 -30Q776 -30 765 166ZM474 1052T445 1075L679 1489Q705 1487 754 1480T824 1466L847 1427L502
1047Q474 1052 445 1075Z" />
<glyph unicode="&#xfb;" glyph-name="ucircumflex" horiz-adv-x="1085" d="M776 -30T765 166Q651 52 567 11T408 -30Q301 -30 236 38T170 279V711Q170 780 163 805T133 838T41 854V894Q111 903 167 918T292 960L320 921V334Q320 200 358 145T473 90Q539 90 609
130T765 262V711Q765 774 756 802T718 840T625 854V894Q689 902 750 918T885 960L915 921V254Q915 188 920 151T938 104Q946 99 960 99Q995 99 1059 127L1069 82Q991 31 933 1T850 -30Q776 -30 765 166ZM544 1315L273 1047Q261 1053 255 1059T241 1075T228 1092L492
1471H599L861 1092Q858 1088 851 1076T836 1058T818 1047L544 1315Z" />
<glyph unicode="&#xfc;" glyph-name="udieresis" horiz-adv-x="1085" d="M776 -30T765 166Q651 52 567 11T408 -30Q301 -30 236 38T170 279V711Q170 780 163 805T133 838T41 854V894Q111 903 167 918T292 960L320 921V334Q320 200 358 145T473 90Q539 90 609 130T765
262V711Q765 774 756 802T718 840T625 854V894Q689 902 750 918T885 960L915 921V254Q915 188 920 151T938 104Q946 99 960 99Q995 99 1059 127L1069 82Q991 31 933 1T850 -30Q776 -30 765 166ZM245 1124T245 1220Q245 1257 260 1288T302 1338T360 1356Q445 1356
445 1261Q445 1204 412 1164T329 1124Q245 1124 245 1220ZM645 1124T645 1220Q645 1257 660 1288T702 1338T760 1356Q845 1356 845 1261Q845 1204 812 1164T729 1124Q645 1124 645 1220Z" />
<glyph unicode="&#xfd;" glyph-name="yacute" horiz-adv-x="1010" d="M545 -82Q492 -223 421 -317T273 -455T127 -500Q78 -500 38 -492T-24 -472T-47 -447Q-47 -439 -26 -411T22 -353T70 -312Q122 -343 180 -343Q218 -343 250 -330Q274 -322 307 -287T374 -200T430
-92L459 -23L131 819Q122 846 97 860T20 887V930H406V887Q340 878 314 869T288 840Q288 832 293 819L539 182L770 819Q773 828 773 836Q773 856 748 866T655 887V930H989V887Q947 877 927 869T897 850T879 819L545 -82ZM459 1052T430 1075L664 1489Q690 1487 739
1480T809 1466L832 1427L487 1047Q459 1052 430 1075Z" />
<glyph unicode="&#xfe;" glyph-name="thorn" horiz-adv-x="1085" d="M535 -30T472 -4T345 74V-375Q345 -411 515 -437V-480H55V-437Q126 -420 160 -406T195 -375V1296Q195 1356 184 1381T148 1414T55 1430V1470Q140 1487 196 1504T308 1550L345 1516V733Q441 846
534 903T690 960Q781 960 852 904T964 741T1005 492Q1005 375 946 253T788 51T573 -30Q535 -30 472 -4ZM595 835T552 813T454 741T345 610V213Q423 152 493 121T631 90Q703 90 757 135T841 253T870 408Q870 536 836 633T745 782T623 835Q595 835 552 813Z" />
<glyph unicode="&#xff;" glyph-name="ydieresis" horiz-adv-x="1010" d="M545 -82Q492 -223 421 -317T273 -455T127 -500Q78 -500 38 -492T-24 -472T-47 -447Q-47 -439 -26 -411T22 -353T70 -312Q122 -343 180 -343Q218 -343 250 -330Q274 -322 307 -287T374 -200T430
-92L459 -23L131 819Q122 846 97 860T20 887V930H406V887Q340 878 314 869T288 840Q288 832 293 819L539 182L770 819Q773 828 773 836Q773 856 748 866T655 887V930H989V887Q947 877 927 869T897 850T879 819L545 -82ZM230 1124T230 1220Q230 1257 245 1288T287
1338T345 1356Q430 1356 430 1261Q430 1204 397 1164T314 1124Q230 1124 230 1220ZM630 1124T630 1220Q630 1257 645 1288T687 1338T745 1356Q830 1356 830 1261Q830 1204 797 1164T714 1124Q630 1124 630 1220Z" />
<glyph unicode="&#x2013;" glyph-name="endash" horiz-adv-x="972" d="M215 556T224 558T246 561H810Q837 561 837 543Q837 533 826 518Q812 497 812 497Q809 493 801 480T773 445Q764 435 755 433T727 431H161Q135 431 135 446Q135 451 138 460Q156 492 170 509T204
547Q215 556 224 558Z" />
<glyph unicode="&#x2014;" glyph-name="emdash" horiz-adv-x="1197" d="M215 556T224 558T246 561H1036Q1062 561 1062 543Q1062 532 1052 518L1039 498Q1030 484 1021 473T998 445Q989 435 980 433T954 431H161Q135 431 135 446Q135 451 138 460Q156 492 170
509T204 547Q215 556 224 558Z" />
<glyph unicode="&#x2018;" glyph-name="quoteleft" horiz-adv-x="556" d="M333 686T359 624Q362 617 362 609Q362 601 357 593Q341 570 311 532T256 466Q250 459 240 459Q231 459 226 468Q206 503 188 552T169 650Q169 723 202 803Q213 829 257 910T343 1056T396
1122Q402 1122 408 1119T414 1110Q414 1098 390 1014Q333 805 333 753Q333 686 359 624Z" />
<glyph unicode="&#x2019;" glyph-name="quoteright" horiz-adv-x="556" d="M222 895T197 957Q196 960 195 963T193 971Q193 980 199 987Q214 1008 243 1045T299 1115Q307 1122 315 1122Q323 1122 330 1113Q387 1010 387 930Q387 855 353 778Q343 753 299 672T213
525T159 459Q153 459 148 462T142 472Q142 478 151 512T164 563Q190 657 206 726T222 828Q222 895 197 957Z" />
<glyph unicode="&#x201c;" glyph-name="quotedblleft" horiz-adv-x="1007" d="M333 686T359 624Q362 617 362 609Q362 601 357 593Q341 570 311 532T256 466Q250 459 240 459Q231 459 226 468Q206 503 188 552T169 650Q169 723 202 803Q213 829 257 910T343 1056T396
1122Q402 1122 408 1119T414 1110Q414 1098 390 1014Q333 805 333 753Q333 686 359 624ZM785 691T810 624Q814 614 814 609Q814 603 809 593Q789 566 760 530T708 466Q702 459 692 459Q683 459 677 468Q620 574 620 650Q620 724 655 803Q664 827 708 908T795 1055T848
1122Q854 1122 859 1119T865 1110Q865 1101 842 1014Q785 805 785 753Q785 691 810 624Z" />
<glyph unicode="&#x201d;" glyph-name="quotedblright" horiz-adv-x="1007" d="M222 895T197 957Q196 960 195 963T193 971Q193 980 199 987Q214 1008 243 1045T299 1115Q307 1122 315 1122Q323 1122 330 1113Q387 1010 387 930Q387 855 353 778Q343 753 299 672T213
525T159 459Q153 459 148 462T142 472Q142 478 151 512T164 563Q190 657 206 726T222 828Q222 895 197 957ZM674 892T648 957Q647 960 646 963T645 971Q645 979 650 987Q665 1009 695 1048T751 1115Q758 1122 767 1122Q776 1122 781 1113Q838 1010 838 930Q838
858 805 778Q795 754 751 673T664 525T611 459Q604 459 599 462T593 472Q593 480 616 563Q642 657 658 726T674 828Q674 892 648 957Z" />
<glyph unicode="&#x201e;" glyph-name="quotedblbase" horiz-adv-x="1011" d="M249 16T242 46T224 108Q221 116 221 122Q221 132 226 138Q245 165 274 202T326 265Q334 272 342 272Q351 272 357 263Q377 228 395 179T414 81Q414 5 380 -72Q370 -97 326 -178T240
-324T186 -390Q180 -390 175 -387T169 -378Q169 -370 192 -285Q218 -190 233 -123T249 -22Q249 16 242 46ZM701 12T695 40T683 85T676 108Q672 118 672 122Q672 130 677 138Q696 165 725 201T778 265Q785 272 794 272Q803 272 809 263Q865 158 865 81Q865 5 831
-72Q822 -96 778 -177T691 -324T638 -390Q631 -390 626 -387T620 -378Q620 -370 643 -285Q671 -183 686 -119T701 -22Q701 12 695 40Z" />
<glyph unicode="&#x2022;" glyph-name="bullet" horiz-adv-x="654" d="M311 217T248 264T172 326Q172 327 169 330T166 339Q166 342 174 355L274 496Q278 501 284 504T296 508Q308 508 317 496Q361 445 466 390Q472 388 477 379T482 361Q482 353 480 351L441 295Q432
281 412 253T382 208Q372 195 359 195Q352 195 346 199Q311 217 248 264Z" />
<glyph unicode="&#x2039;" glyph-name="guilsinglleft" horiz-adv-x="418" d="M226 682T253 694T291 711Q298 715 306 715Q313 715 317 712T321 703Q321 690 317 683Q302 651 276 602Q270 590 262 575T246 543Q240 534 240 522Q240 517 242 511T249 500L330 417Q337
410 337 398Q337 392 333 382T326 369Q291 310 260 276Q253 267 242 267Q236 267 224 276Q187 308 148 352T88 431Q79 445 76 454T72 472Q72 486 79 498Q95 530 122 571T174 643Q187 660 201 667T219 677Q226 682 253 694Z" />
<glyph unicode="&#x203a;" glyph-name="guilsinglright" horiz-adv-x="418" d="M182 297T161 287T123 270Q116 267 108 267Q101 267 97 270T93 279Q93 292 97 299Q114 336 145 392Q153 409 169 439Q174 448 174 460Q174 465 172 472T165 482L84 564Q77 572 77
585Q77 590 81 600T88 613Q90 617 108 646T154 706Q163 715 172 715Q178 715 190 706Q227 675 266 630T326 552Q342 527 342 511Q342 496 335 484Q319 452 292 411T240 339Q231 327 223 321T206 311T195 305Q182 297 161 287Z" />
</font>
</defs>
</svg>
