<?xml version="1.0" standalone="no"?>
<!DOCTYPE svg PUBLIC "-//W3C//DTD SVG 1.1//EN" "http://www.w3.org/Graphics/SVG/1.1/DTD/svg11.dtd">
<svg xmlns="http://www.w3.org/2000/svg">
<defs >
<font id="EncodeSansSemiExpanded" horiz-adv-x="1163" ><font-face
    font-family="Encode Sans Semi Expanded Light"
    units-per-em="2000"
    panose-1="0 0 4 5 0 0 0 0 0 0"
    ascent="2060"
    descent="-440"
    alphabetic="0" />
<glyph unicode=" " glyph-name="space" horiz-adv-x="519" />
<glyph unicode="!" glyph-name="exclam" horiz-adv-x="501" d="M211 349L186 906V1480H315V906L291 349H211ZM209 -12T183 12T157 77Q157 117 183 142T251 167Q292 167 318 142T344 77Q344 37 319 13T251 -12Q209 -12 183 12Z" />
<glyph unicode="&quot;" glyph-name="quotedbl" horiz-adv-x="755" d="M176 932L148 1616H278L250 932H176ZM504 932L476 1616H606L578 932H504Z" />
<glyph unicode="#" glyph-name="numbersign" horiz-adv-x="1183" d="M1078 904H857L820 576H1078V472H808L754 0H649L703 472H419L365 0H261L315 472H105V576H327L364 904H105V1008H376L430 1480H534L480 1008H764L818 1480H923L869 1008H1078V904ZM715 576L752
904H468L431 576H715Z" />
<glyph unicode="$" glyph-name="dollar" horiz-adv-x="1113" d="M1026 223T920 119T615 -10V-240H500V-18H487Q394 -18 295 -3T108 43V153Q205 121 302 106T488 90Q695 90 797 165T900 388Q900 470 866 524T760 614T563 679L485 696Q282 741 185 838T87 1094Q87
1261 192 1364T500 1492V1720H615V1498H618Q709 1498 797 1486T962 1450V1339Q799 1390 620 1390Q416 1390 315 1316T213 1101Q213 1020 243 966T341 874T525 811L603 793Q824 744 925 649T1026 394Q1026 223 920 119Z" />
<glyph unicode="%" glyph-name="percent" horiz-adv-x="1861" d="M300 576T210 688T119 1037Q119 1274 209 1386T457 1498Q615 1498 705 1386T795 1037Q795 800 705 688T457 576Q300 576 210 688ZM520 0L1228 1480H1341L633 0H520ZM567 669T627 754T688 1036Q688
1232 627 1318T457 1405Q347 1405 287 1319T226 1039Q226 669 457 669Q567 669 627 754ZM1247 -18T1157 94T1066 443Q1066 680 1156 792T1404 904Q1562 904 1652 792T1742 443Q1742 206 1652 94T1404 -18Q1247 -18 1157 94ZM1514 75T1574 160T1635 441Q1635 638
1574 724T1404 811Q1173 811 1173 445Q1173 75 1404 75Q1514 75 1574 160Z" />
<glyph unicode="&amp;" glyph-name="ampersand" horiz-adv-x="1564" d="M1502 -20L1222 184Q1149 85 1022 34T719 -18Q531 -18 405 35T216 182T154 402Q154 538 223 641T423 806Q370 872 347 937T324 1081Q324 1282 456 1390T852 1498Q998 1498 1117 1467V1356Q998
1390 855 1390Q645 1390 548 1311T451 1080Q451 1007 474 949T558 828T734 679L1187 348Q1209 417 1209 507Q1209 572 1197 643T1161 782H1271Q1315 653 1315 507Q1315 381 1276 283L1564 73L1502 -20ZM1021 83T1137 246L672 585Q561 666 491 733Q280 632 280 414Q280
261 389 172T728 83Q1021 83 1137 246Z" />
<glyph unicode="&apos;" glyph-name="quotesingle" horiz-adv-x="426" d="M176 932L148 1616H278L250 932H176Z" />
<glyph unicode="(" glyph-name="parenleft" horiz-adv-x="686" d="M318 -224T230 35T141 588Q141 882 229 1141T502 1616H640Q446 1390 357 1135T268 588Q268 297 357 42T640 -440H502Q318 -224 230 35Z" />
<glyph unicode=")" glyph-name="parenright" horiz-adv-x="686" d="M240 -213T329 42T418 588Q418 879 329 1134T46 1616H184Q368 1400 456 1141T545 588Q545 294 457 35T184 -440H46Q240 -213 329 42Z" />
<glyph unicode="*" glyph-name="asterisk" horiz-adv-x="918" d="M505 1190L639 1039L746 893L668 836L561 982L459 1158L357 982L250 836L172 893L279 1039L413 1190L217 1233L30 1293L60 1384L245 1323L431 1242L411 1443V1616H507V1443L487 1242L673 1323L858
1384L888 1293L701 1233L505 1190Z" />
<glyph unicode="+" glyph-name="plus" horiz-adv-x="1093" d="M492 366V709H168V811H492V1154H601V811H925V709H601V366H492Z" />
<glyph unicode="," glyph-name="comma" horiz-adv-x="461" d="M274 171T299 142T324 51Q324 -44 301 -136T236 -309H163Q194 -220 210 -150T230 -12Q189 -12 163 13T137 81Q137 122 162 146T228 171Q274 171 299 142Z" />
<glyph unicode="-" glyph-name="hyphen" horiz-adv-x="882" d="M168 509V615H714V509H168Z" />
<glyph unicode="." glyph-name="period" horiz-adv-x="461" d="M189 -12T163 12T137 79Q137 121 163 146T231 171Q272 171 298 146T324 79Q324 38 298 13T231 -12Q189 -12 163 12Z" />
<glyph unicode="/" glyph-name="slash" horiz-adv-x="625" d="M0 -240L504 1616H625L121 -240H0Z" />
<glyph unicode="0" glyph-name="zero" horiz-adv-x="1309" d="M403 -18T267 162T131 740Q131 1139 266 1318T655 1498Q908 1498 1043 1319T1179 740Q1179 342 1043 162T655 -18Q403 -18 267 162ZM782 91T869 151T1005 353T1053 737Q1053 981 1005 1124T870 1328T655
1389Q527 1389 440 1329T304 1127T256 743Q256 499 304 356T439 152T655 91Q782 91 869 151Z" />
<glyph unicode="1" glyph-name="one" horiz-adv-x="767" d="M487 1484H566V0H443V1323L25 1027V1155L487 1484Z" />
<glyph unicode="2" glyph-name="two" horiz-adv-x="1032" d="M960 108V0H70V69L522 630Q644 781 694 887T745 1095Q745 1247 660 1318T399 1390Q210 1390 53 1330V1440Q124 1467 216 1482T406 1498Q869 1498 869 1104Q868 1019 845 942T768 776T620 573L242 108H960Z" />
<glyph unicode="3" glyph-name="three" horiz-adv-x="1050" d="M806 739T890 645T975 403Q975 201 838 92T428 -18Q334 -18 238 -3T57 41V147Q150 117 245 102T428 86Q643 86 748 168T854 408Q854 553 757 630T462 708H270V813H360Q578 813 690 890T802 1119Q802
1252 711 1323T447 1394Q266 1394 101 1338V1444Q180 1470 271 1484T456 1498Q605 1498 710 1454T869 1327T924 1127Q924 996 850 904T645 771Q806 739 890 645Z" />
<glyph unicode="4" glyph-name="four" horiz-adv-x="1226" d="M1181 471V367H957V0H841V367H52V437L683 1480H811L202 471H841L859 980H957V471H1181Z" />
<glyph unicode="5" glyph-name="five" horiz-adv-x="1064" d="M604 831T740 781T939 641T1001 417Q1001 204 863 93T455 -18Q361 -18 265 -3T85 42V148Q175 118 270 102T455 86Q880 86 880 415Q880 520 829 586T661 690T341 740L147 752L198 1480H940V1376H309L272
850L381 844Q604 831 740 781Z" />
<glyph unicode="6" glyph-name="six" horiz-adv-x="1198" d="M873 841T1001 732T1129 412Q1129 273 1071 177T910 31T671 -18Q139 -18 139 693Q139 1099 301 1298T778 1498Q948 1498 1060 1453V1346Q1001 1370 928 1381T782 1393Q523 1393 393 1231T262 727Q335
780 438 810T647 841Q873 841 1001 732ZM827 84T919 165T1011 408Q1011 575 913 657T630 739Q535 739 435 710T263 621Q273 334 376 209T671 84Q827 84 919 165Z" />
<glyph unicode="7" glyph-name="seven" horiz-adv-x="974" d="M14 1480H914V1411L315 0H185L772 1372H14V1480Z" />
<glyph unicode="8" glyph-name="eight" horiz-adv-x="1309" d="M1043 689T1119 601T1195 380Q1195 259 1134 169T953 31T664 -18Q396 -18 255 84T114 375Q114 512 190 612T406 767Q280 825 223 910T166 1116Q166 1234 224 1320T392 1452T654 1498Q806 1498 915
1453T1083 1324T1141 1125Q1141 995 1073 900T873 745Q1043 689 1119 601ZM289 1031T328 970T457 865T705 789Q725 785 755 778Q898 837 963 917T1028 1117Q1028 1254 930 1326T652 1398Q474 1398 382 1325T289 1120Q289 1031 328 970ZM864 82T968 157T1073 373Q1073
459 1033 517T905 616T663 688Q587 703 512 726Q377 681 306 592T234 385Q234 236 344 159T665 82Q864 82 968 157Z" />
<glyph unicode="9" glyph-name="nine" horiz-adv-x="1198" d="M1059 1498T1059 787Q1059 381 897 182T420 -18Q250 -18 138 27V134Q197 110 270 99T416 87Q675 87 805 249T936 753Q863 700 760 670T551 639Q325 639 197 748T69 1068Q69 1207 127 1303T288 1449T527
1498Q1059 1498 1059 787ZM187 905T285 823T568 741Q663 741 763 770T935 859Q925 1146 822 1271T527 1396Q371 1396 279 1315T187 1072Q187 905 285 823Z" />
<glyph unicode=":" glyph-name="colon" horiz-adv-x="461" d="M189 -12T163 12T137 79Q137 121 163 146T231 171Q272 171 298 146T324 79Q324 38 298 13T231 -12Q189 -12 163 12ZM189 911T163 935T137 1002Q137 1044 163 1069T231 1094Q272 1094 298 1069T324
1002Q324 961 298 936T231 911Q189 911 163 935Z" />
<glyph unicode=";" glyph-name="semicolon" horiz-adv-x="461" d="M274 171T299 142T324 51Q324 -44 301 -136T236 -309H163Q194 -220 210 -150T230 -12Q189 -12 163 13T137 81Q137 122 162 146T228 171Q274 171 299 142ZM189 911T163 935T137 1002Q137 1044 163
1069T231 1094Q272 1094 298 1069T324 1002Q324 961 298 936T231 911Q189 911 163 935Z" />
<glyph unicode="&lt;" glyph-name="less" horiz-adv-x="1093" d="M925 1141V1032L288 760L925 488V379L168 707V813L925 1141Z" />
<glyph unicode="=" glyph-name="equal" horiz-adv-x="1093" d="M168 899V1002H925V899H168ZM168 518V621H925V518H168Z" />
<glyph unicode="&gt;" glyph-name="greater" horiz-adv-x="1093" d="M168 1141L925 813V707L168 379V488L804 760L168 1032V1141Z" />
<glyph unicode="?" glyph-name="question" horiz-adv-x="929" d="M363 749Q507 794 590 845T708 962T744 1119Q744 1251 653 1322T388 1393Q208 1393 43 1337V1444Q122 1470 213 1484T397 1498Q546 1498 651 1454T811 1327T866 1126Q866 1016 828 936T705 793T476
679L463 336H384L363 749ZM383 -12T357 12T330 77Q330 117 356 142T424 167Q465 167 491 142T517 77Q517 38 492 13T424 -12Q383 -12 357 12Z" />
<glyph unicode="@" glyph-name="at" horiz-adv-x="2010" d="M1296 1498T1492 1393T1789 1079T1890 567Q1890 366 1844 236T1719 44T1535 -17Q1443 -17 1385 21T1304 129H1293Q1236 61 1143 22T945 -17Q840 -17 764 18T648 118T607 274Q607 412 699 488T989 586L1291
622V724Q1291 828 1257 886T1158 968T990 992Q920 992 840 979T682 938V1044Q750 1069 835 1082T1001 1096Q1138 1096 1227 1061T1364 944T1411 722V254Q1411 159 1446 119T1553 78Q1620 78 1673 126T1757 282T1788 558Q1788 984 1593 1193T1012 1402Q624 1402
427 1186T229 523Q229 217 320 21T594 -269T1056 -364Q1159 -364 1257 -350T1465 -306V-404Q1372 -431 1267 -445T1056 -460Q594 -459 358 -216T121 520Q121 1007 350 1252T1012 1498Q1296 1498 1492 1393ZM1058 84T1142 120T1291 230V533L995 497Q858 481 796
430T733 285Q733 187 792 136T968 84Q1058 84 1142 120Z" />
<glyph unicode="A" glyph-name="A" horiz-adv-x="1400" d="M1234 0L1041 499H356L163 0H37L615 1480H785L1363 0H1234ZM398 607H999L699 1384L398 607Z" />
<glyph unicode="B" glyph-name="B" horiz-adv-x="1304" d="M1067 736T1145 642T1223 402Q1223 264 1157 173T947 35T569 -12Q383 -12 191 14V1454Q294 1475 392 1485T609 1495Q906 1495 1043 1399T1180 1103Q1180 973 1114 885T908 764Q1067 736 1145 642ZM523
1392T451 1386T312 1367V812H662Q868 812 964 881T1061 1099Q1061 1204 1016 1268T875 1362T619 1392Q523 1392 451 1386ZM783 92T895 126T1055 229T1103 407Q1103 563 1001 635T683 708H312V109Q427 92 589 92Q783 92 895 126Z" />
<glyph unicode="C" glyph-name="C" horiz-adv-x="1216" d="M121 -18T121 738Q121 1126 303 1312T820 1498Q914 1498 998 1486T1168 1450V1339Q1003 1388 824 1388Q541 1388 396 1236T250 742Q250 503 317 360T508 154T811 92Q903 92 987 106T1168 153V42Q1002
-18 803 -18Q121 -18 121 738Z" />
<glyph unicode="D" glyph-name="D" horiz-adv-x="1470" d="M467 -11T382 -6T191 13V1454Q286 1474 389 1484T588 1495Q965 1495 1157 1307T1349 740Q1349 359 1153 174T562 -11Q467 -11 382 -6ZM905 98T1063 253T1221 740Q1221 1071 1064 1228T589 1386Q469 1386
314 1362V115Q423 98 582 98Q905 98 1063 253Z" />
<glyph unicode="E" glyph-name="E" horiz-adv-x="1230" d="M313 108H1140V0H191V1480H1130V1372H313V814H1030V706H313V108Z" />
<glyph unicode="F" glyph-name="F" horiz-adv-x="1186" d="M1121 1371H314V807H1022V698H314V0H191V1480H1121V1371Z" />
<glyph unicode="G" glyph-name="G" horiz-adv-x="1426" d="M1250 720V18Q1148 2 1067 -5T896 -12Q512 -12 317 173T121 738Q120 998 211 1167T467 1417T855 1498Q946 1498 1032 1486T1213 1450V1339Q1114 1366 1031 1377T863 1388Q573 1388 412 1234T250 742Q250
412 409 255T891 98Q1022 98 1132 114V720H1250Z" />
<glyph unicode="H" glyph-name="H" horiz-adv-x="1514" d="M191 0V1480H314V817H1200V1480H1324V0H1200V703H314V0H191Z" />
<glyph unicode="I" glyph-name="I" horiz-adv-x="505" d="M191 0V1480H314V0H191Z" />
<glyph unicode="J" glyph-name="J" horiz-adv-x="505" d="M-3 -284Q99 -154 145 -19T191 289V1480H314V262Q306 82 253 -57T79 -342L-3 -284Z" />
<glyph unicode="K" glyph-name="K" horiz-adv-x="1286" d="M1146 0L579 703H314V0H191V1480H314V817H582L1107 1480H1248L678 762L1290 0H1146Z" />
<glyph unicode="L" glyph-name="L" horiz-adv-x="1121" d="M191 0V1480H314V110H1105V0H191Z" />
<glyph unicode="M" glyph-name="M" horiz-adv-x="1820" d="M1481 1480H1625V0H1508V1288L968 203H851L312 1278V0H195V1480H338L912 324L1481 1480Z" />
<glyph unicode="N" glyph-name="N" horiz-adv-x="1541" d="M1233 1480H1351V0H1222L308 1294V0H191V1480H319L1233 186V1480Z" />
<glyph unicode="O" glyph-name="O" horiz-adv-x="1512" d="M562 -18T420 62T200 312T121 740Q121 999 200 1168T421 1417T756 1498Q950 1498 1092 1418T1312 1168T1391 740Q1391 481 1312 312T1091 63T756 -18Q562 -18 420 62ZM996 92T1129 245T1263 735Q1263
1388 756 1388Q516 1388 383 1235T249 745Q249 92 756 92Q996 92 1129 245Z" />
<glyph unicode="P" glyph-name="P" horiz-adv-x="1278" d="M191 1456Q293 1476 385 1485T581 1495Q879 1495 1030 1374T1181 999Q1181 752 1026 626T545 499Q428 499 314 510V0H191V1456ZM728 603T840 646T1004 776T1056 997Q1056 1200 941 1295T588 1390Q440
1390 314 1367V618Q425 603 547 603Q728 603 840 646Z" />
<glyph unicode="Q" glyph-name="Q" horiz-adv-x="1512" d="M1391 380T1240 190T799 -8Q1025 -76 1363 -103L1344 -209Q871 -160 607 -51T232 246T121 739Q121 998 200 1167T421 1417T756 1498Q1052 1498 1221 1313T1391 740Q1391 380 1240 190ZM249 92T756 92Q996
92 1129 245T1263 735Q1263 1388 756 1388Q516 1388 383 1235T249 745Q249 92 756 92Z" />
<glyph unicode="R" glyph-name="R" horiz-adv-x="1362" d="M1147 0L647 629Q591 627 559 627Q494 627 433 630T313 638V0H191V1454Q287 1473 383 1484T594 1495Q796 1495 926 1450T1119 1310T1183 1065Q1185 712 775 643L1290 0H1147ZM383 736T433 734T561 731Q825
731 944 812T1064 1062Q1064 1183 1016 1254T867 1358T600 1391Q514 1391 450 1385T313 1366V743Q383 736 433 734Z" />
<glyph unicode="S" glyph-name="S" horiz-adv-x="1113" d="M395 -18T296 -3T108 44V154Q205 121 303 106T491 90Q696 90 798 165T900 388Q900 470 866 524T760 614T563 679L485 696Q282 741 185 838T87 1094Q87 1220 146 1310T324 1449T616 1498Q707 1498 796
1486T962 1449V1339Q794 1390 617 1390Q415 1390 314 1316T213 1101Q213 1020 243 966T341 874T525 811L603 793Q824 744 925 649T1026 394Q1026 263 964 171T781 30T489 -18Q395 -18 296 -3Z" />
<glyph unicode="T" glyph-name="T" horiz-adv-x="1215" d="M546 0V1370H17V1480H1198V1370H669V0H546Z" />
<glyph unicode="U" glyph-name="U" horiz-adv-x="1485" d="M551 -18T428 43T244 234T183 566V1480H306V551Q306 389 353 288T496 139T744 91Q895 91 991 139T1135 288T1182 551V1480H1302V566Q1302 362 1242 234T1059 44T744 -18Q551 -18 428 43Z" />
<glyph unicode="V" glyph-name="V" horiz-adv-x="1359" d="M1218 1480H1342L768 0H591L17 1480H149L684 95L1218 1480Z" />
<glyph unicode="W" glyph-name="W" horiz-adv-x="2200" d="M2010 1480H2131L1682 0H1518L1101 1345L682 0H518L67 1480H196L606 111L1027 1480H1178L1597 110L2010 1480Z" />
<glyph unicode="X" glyph-name="X" horiz-adv-x="1328" d="M738 753L1304 0H1157L662 656L167 0H22L589 751L38 1480H185L664 848L1145 1480H1287L738 753Z" />
<glyph unicode="Y" glyph-name="Y" horiz-adv-x="1215" d="M1231 1480L670 667V0H546V666L-25 1480H117L611 777L1098 1480H1231Z" />
<glyph unicode="Z" glyph-name="Z" horiz-adv-x="1209" d="M234 109H1143V0H65V70L962 1371H78V1480H1131V1410L234 109Z" />
<glyph unicode="[" glyph-name="bracketleft" horiz-adv-x="686" d="M211 -440V1616H724V1512H333V-336H722V-440H211Z" />
<glyph unicode="\" glyph-name="backslash" horiz-adv-x="630" d="M506 -240L0 1616H124L630 -240H506Z" />
<glyph unicode="]" glyph-name="bracketright" horiz-adv-x="686" d="M-37 -440V-336H353V1512H-38V1616H475V-440H-37Z" />
<glyph unicode="^" glyph-name="asciicircum" horiz-adv-x="1183" d="M1080 740H950L592 1381L233 740H103L522 1480H660L1080 740Z" />
<glyph unicode="_" glyph-name="underscore" horiz-adv-x="1177" d="M96 -104V0H1081V-104H96Z" />
<glyph unicode="`" glyph-name="grave" horiz-adv-x="1134" d="M509 1257L246 1616H383L625 1257H509Z" />
<glyph unicode="a" glyph-name="a" horiz-adv-x="1072" d="M640 1099T730 1064T868 946T915 722V0H811L802 127H792Q735 60 644 22T449 -17Q344 -17 268 18T152 118T111 274Q111 413 205 489T506 588L795 621V725Q795 830 761 889T661 971T489 995Q417 995 336
983T178 943V1049Q246 1073 332 1086T501 1099Q640 1099 730 1064ZM563 83T646 119T795 230V530L512 498Q366 481 302 430T237 284Q237 187 296 135T472 83Q563 83 646 119Z" />
<glyph unicode="b" glyph-name="b" horiz-adv-x="1183" d="M334 -18T172 31V1616H294V963H302Q361 1027 446 1063T634 1099Q762 1099 861 1044T1017 870T1074 562Q1074 272 934 127T517 -18Q334 -18 172 31ZM737 85T842 197T948 550Q948 787 857 889T605 991Q513
991 432 956T294 849V116Q402 85 525 85Q737 85 842 197Z" />
<glyph unicode="c" glyph-name="c" horiz-adv-x="917" d="M110 -19T110 541Q110 827 243 963T636 1099Q766 1099 872 1068V960Q759 992 646 992Q507 992 417 947T282 803T237 545Q237 304 330 197T610 89Q729 89 872 139V31Q736 -19 594 -19Q110 -19 110 541Z" />
<glyph unicode="d" glyph-name="d" horiz-adv-x="1183" d="M427 -18T326 38T168 214T110 519Q110 1099 675 1099Q774 1099 890 1080V1616H1012V0H907L898 125H888Q831 58 747 20T560 -18Q427 -18 326 38ZM674 90T754 127T890 242V970Q845 982 788 988T672 995Q450
995 343 883T235 531Q235 295 326 193T584 90Q674 90 754 127Z" />
<glyph unicode="e" glyph-name="e" horiz-adv-x="1079" d="M988 498H235Q242 281 343 183T644 85Q770 85 934 135V30Q774 -19 631 -19Q374 -19 242 117T110 542Q110 818 227 958T557 1099Q766 1099 877 959T988 540V498ZM403 1004T322 905T235 590H869Q865 805
786 904T556 1004Q403 1004 322 905Z" />
<glyph unicode="f" glyph-name="f" horiz-adv-x="749" d="M501 1530T432 1464T363 1245V1083H752V979H363V0H241V979H20V1083H241V1237Q241 1636 641 1636Q715 1636 795 1623V1516Q719 1530 648 1530Q501 1530 432 1464Z" />
<glyph unicode="g" glyph-name="g" horiz-adv-x="1183" d="M434 -460T344 -446T180 -407V-300Q352 -355 508 -355Q641 -355 724 -319T849 -201T890 18V121H882Q823 57 738 21T549 -16Q422 -16 324 39T168 213T110 520Q110 810 251 954T670 1099Q850 1099 1012
1050V35Q1012 -140 957 -249T791 -409T513 -460Q434 -460 344 -446ZM669 92T750 127T890 235V968Q789 995 659 995Q447 995 341 883T235 532Q235 295 326 194T579 92Q669 92 750 127Z" />
<glyph unicode="h" glyph-name="h" horiz-adv-x="1195" d="M172 1616H294V958H302Q375 1027 469 1063T673 1099Q844 1099 940 1007T1037 711V0H915V706Q915 856 845 921T646 987Q549 987 455 948T294 831V0H172V1616Z" />
<glyph unicode="i" glyph-name="i" horiz-adv-x="466" d="M172 0V1083H294V0H172ZM190 1337T166 1359T142 1421Q142 1461 166 1484T233 1508Q275 1508 299 1485T324 1421Q324 1382 300 1360T233 1337Q190 1337 166 1359Z" />
<glyph unicode="j" glyph-name="j" horiz-adv-x="466" d="M-22 -405Q80 -274 126 -139T172 168V1083H294V175Q294 -14 239 -163T60 -462L-22 -405ZM189 1345T165 1367T141 1429Q141 1469 165 1492T232 1516Q274 1516 298 1493T323 1429Q323 1390 299 1368T232
1345Q189 1345 165 1367Z" />
<glyph unicode="k" glyph-name="k" horiz-adv-x="1067" d="M939 0L510 502H294V0H172V1616H294V607H510L909 1083H1049L613 556L1081 0H939Z" />
<glyph unicode="l" glyph-name="l" horiz-adv-x="466" d="M172 0V1616H294V0H172Z" />
<glyph unicode="m" glyph-name="m" horiz-adv-x="1759" d="M1423 1099T1512 1006T1602 711V0H1480V706Q1480 856 1418 922T1243 988Q1162 988 1081 951T941 835Q951 784 951 714V0H830V706Q830 856 770 922T599 988Q515 988 434 948T294 827V0H172V1083H276L285
955H295Q361 1026 446 1062T627 1099Q833 1099 909 938Q987 1022 1080 1060T1266 1099Q1423 1099 1512 1006Z" />
<glyph unicode="n" glyph-name="n" horiz-adv-x="1195" d="M172 1083H276L285 955H295Q369 1025 465 1062T668 1099Q842 1099 939 1006T1037 707V0H915V704Q915 855 846 921T646 988Q551 988 457 950T294 832V0H172V1083Z" />
<glyph unicode="o" glyph-name="o" horiz-adv-x="1162" d="M359 -19T235 118T110 541Q110 823 235 961T581 1099Q804 1099 928 963T1052 541Q1052 259 927 120T581 -19Q359 -19 235 118ZM748 85T837 192T927 539Q927 782 838 889T581 996Q414 996 325 890T235
543Q235 300 324 193T581 85Q748 85 837 192Z" />
<glyph unicode="p" glyph-name="p" horiz-adv-x="1183" d="M172 1083H277L287 956H295Q352 1023 436 1061T623 1099Q755 1099 856 1045T1015 870T1074 562Q1074 -18 508 -18Q416 -18 294 0V-440H172V1083ZM733 86T840 198T948 550Q948 788 856 889T600 991Q510
991 431 954T294 839V111Q338 99 396 93T512 86Q733 86 840 198Z" />
<glyph unicode="q" glyph-name="q" horiz-adv-x="1183" d="M890 118H882Q823 54 738 18T549 -18Q421 -18 323 37T167 211T110 519Q110 1099 670 1099Q850 1099 1012 1050V-440H890V118ZM669 90T750 125T890 232V968Q789 995 659 995Q447 995 341 883T235 531Q235
294 326 192T579 90Q669 90 750 125Z" />
<glyph unicode="r" glyph-name="r" horiz-adv-x="757" d="M172 1083H275L285 937H295Q356 1010 450 1051T642 1093Q691 1093 742 1084V968Q698 976 638 976Q547 976 451 935T294 815V0H172V1083Z" />
<glyph unicode="s" glyph-name="s" horiz-adv-x="948" d="M266 -19T127 25V130Q210 105 284 95T441 84Q600 84 673 135T747 284Q747 365 703 408T550 472L392 502Q244 531 177 603T109 793Q109 884 155 952T297 1060T539 1099Q682 1099 807 1064V960Q735 980 673
988T541 997Q376 997 303 943T229 796Q229 722 271 676T418 609L576 579Q729 549 798 481T867 292Q867 146 758 64T438 -19Q266 -19 127 25Z" />
<glyph unicode="t" glyph-name="t" horiz-adv-x="777" d="M675 90T764 109V1Q681 -18 593 -18Q418 -18 326 70T233 344V979H12V1083H233L252 1480H355V1083H744V979H355V364Q355 218 419 154T615 90Q675 90 764 109Z" />
<glyph unicode="u" glyph-name="u" horiz-adv-x="1185" d="M351 -18T254 74T157 369V1083H279V375Q279 225 348 159T544 93Q638 93 731 132T891 250V1083H1013V0H909L900 123H891Q817 54 722 18T522 -18Q351 -18 254 74Z" />
<glyph unicode="v" glyph-name="v" horiz-adv-x="1100" d="M950 1083H1074L629 0H470L26 1083H157L554 105L950 1083Z" />
<glyph unicode="w" glyph-name="w" horiz-adv-x="1753" d="M1562 1083H1680L1338 0H1189L878 962L566 0H417L73 1083H196L496 124L804 1083H954L1261 126L1562 1083Z" />
<glyph unicode="x" glyph-name="x" horiz-adv-x="1059" d="M605 548L1035 0H888L529 458L171 0H28L455 546L36 1083H182L532 636L882 1083H1023L605 548Z" />
<glyph unicode="y" glyph-name="y" horiz-adv-x="1100" d="M950 1083H1074L449 -440H325L506 0H470L26 1083H157L550 97L950 1083Z" />
<glyph unicode="z" glyph-name="z" horiz-adv-x="957" d="M225 104H899V0H65V75L726 979H78V1083H886V1008L225 104Z" />
<glyph unicode="{" glyph-name="braceleft" horiz-adv-x="726" d="M373 765T338 706T226 624Q302 601 337 542T373 377V-102Q373 -235 438 -294T640 -353H764V-449Q709 -460 632 -460Q251 -460 251 -99V392Q251 486 208 528T73 571H44V676H73Q164 676 207 718T251
855V1275Q251 1636 632 1636Q709 1636 764 1625V1529H640Q504 1529 439 1470T373 1278V870Q373 765 338 706Z" />
<glyph unicode="|" glyph-name="bar" horiz-adv-x="496" d="M191 -440V1616H306V-440H191Z" />
<glyph unicode="}" glyph-name="braceright" horiz-adv-x="726" d="M681 676V571H652Q562 571 519 529T475 392V-99Q475 -460 94 -460Q15 -460 -38 -449V-353H85Q222 -353 287 -294T353 -102V377Q353 482 388 541T500 624Q424 646 389 705T353 870V1278Q353 1411
288 1470T85 1529H-38V1625Q15 1636 94 1636Q475 1636 475 1275V855Q475 761 518 719T652 676H681Z" />
<glyph unicode="~" glyph-name="asciitilde" horiz-adv-x="1093" d="M675 646T631 662T527 709Q473 736 439 749T370 762Q311 762 262 736T168 654V772Q203 817 255 840T369 864Q417 864 459 849T567 801Q620 774 654 761T722 748Q839 748 925 856V738Q889 693
838 670T723 646Q675 646 631 662Z" />
<glyph unicode="&#xa0;" glyph-name="uni00A0" horiz-adv-x="519" />
<glyph unicode="&#xa1;" glyph-name="exclamdown" horiz-adv-x="501" d="M292 1095T318 1070T344 1004Q344 963 318 938T251 912Q209 912 183 937T157 1004Q157 1046 183 1070T251 1095Q292 1095 318 1070ZM211 730H291L315 175V-380H186V175L211 730Z" />
<glyph unicode="&#xa2;" glyph-name="cent" horiz-adv-x="927" d="M504 992T415 947T281 803T237 545Q237 304 330 197T610 89Q729 89 872 139V31Q757 -11 642 -18V-240H533V-17Q110 17 110 541Q110 797 217 932T533 1093V1323H642V1099Q756 1099 872 1068V960Q755
992 644 992Q504 992 415 947Z" />
<glyph unicode="&#xa3;" glyph-name="sterling" horiz-adv-x="1335" d="M1244 106V0H78V106H317V699H78V801H317V1037Q317 1271 452 1384T857 1498Q948 1498 1036 1486T1201 1450V1339Q1038 1390 859 1390Q645 1390 542 1309T438 1040V801H1012V699H438V106H1244Z" />
<glyph unicode="&#xa4;" glyph-name="currency" horiz-adv-x="1183" d="M955 451L1058 352L980 274L881 376L804 474Q762 438 709 420T592 401Q529 401 475 419T379 473L302 376L203 274L125 352L228 451L328 529Q267 617 267 740Q267 862 328 950L228 1029L124
1128L201 1206L300 1104L379 1005Q421 1040 475 1058T592 1077Q654 1077 708 1059T804 1005L883 1104L982 1206L1060 1128L955 1029L855 950Q916 862 916 740Q916 617 855 529L955 451ZM662 488T715 518T797 604T827 740Q827 814 800 871T720 960T594 992Q523 992
470 962T387 875T357 740Q357 662 386 605T469 518T592 488Q662 488 715 518Z" />
<glyph unicode="&#xa5;" glyph-name="yen" horiz-adv-x="1257" d="M1255 1480L742 740H1019V649H690V399H1019V308H690V0H567V308H239V399H567V649H239V740H514L-1 1480H141L632 776L1122 1480H1255Z" />
<glyph unicode="&#xa6;" glyph-name="brokenbar" horiz-adv-x="496" d="M191 836V1616H306V836H191ZM191 -440V340H306V-440H191Z" />
<glyph unicode="&#xa7;" glyph-name="section" horiz-adv-x="1064" d="M899 411T899 291Q899 145 791 63T468 -19Q301 -19 161 24V125Q244 101 318 91T472 81Q634 81 707 132T781 281Q781 336 762 372T701 431T585 470L419 502Q274 531 207 602T139 791Q139 854
164 907T238 1000Q163 1069 163 1190Q163 1281 209 1349T351 1457T595 1496Q731 1496 859 1463V1362Q788 1381 728 1389T600 1397Q431 1397 356 1343T281 1195Q281 1121 324 1075T470 1008L638 976Q789 946 857 878T925 692Q925 562 825 478Q899 411 899 291ZM611
569Q688 554 742 530Q815 587 815 682Q815 764 769 809T611 877L446 909Q377 922 320 947Q248 888 248 796Q248 720 293 671T445 601L611 569Z" />
<glyph unicode="&#xa8;" glyph-name="dieresis" horiz-adv-x="1134" d="M298 1338T275 1360T251 1421Q251 1460 274 1483T337 1507Q376 1507 399 1484T423 1421Q423 1383 400 1361T337 1338Q298 1338 275 1360ZM758 1338T735 1360T711 1421Q711 1460 734 1483T797
1507Q836 1507 859 1484T883 1421Q883 1383 860 1361T797 1338Q758 1338 735 1360Z" />
<glyph unicode="&#xa9;" glyph-name="copyright" horiz-adv-x="1731" d="M645 -22T476 73T214 340T121 740Q121 967 214 1139T476 1407T866 1502Q1087 1502 1255 1407T1517 1140T1610 740Q1610 513 1517 341T1256 73T866 -22Q645 -22 476 73ZM1062 68T1209 151T1438
386T1519 740Q1519 941 1438 1093T1210 1329T866 1412Q670 1412 522 1329T293 1094T212 740Q212 539 293 387T522 151T866 68Q1062 68 1209 151ZM786 324T698 370T561 509T512 734Q512 930 620 1037T929 1144Q1031 1144 1121 1117V1023Q1026 1049 935 1049Q779
1049 699 972T618 737Q618 579 695 499T914 419Q1014 419 1121 458V364Q1028 324 905 324Q786 324 698 370Z" />
<glyph unicode="&#xaa;" glyph-name="ordfeminine" horiz-adv-x="907" d="M540 1494T618 1465T737 1366T777 1181V610H680L671 711H663Q613 657 536 626T372 595Q283 595 219 624T121 706T87 832Q87 945 166 1007T420 1086L663 1111V1189Q663 1269 635 1314T550
1379T405 1398Q277 1398 144 1355V1452Q204 1472 276 1483T419 1494Q540 1494 618 1465ZM474 687T542 715T663 798V1033L430 1009Q309 996 256 956T203 844Q203 768 251 728T400 687Q474 687 542 715Z" />
<glyph unicode="&#xab;" glyph-name="guillemotleft" horiz-adv-x="1043" d="M417 138L128 562L417 985H548L258 562L548 138H417ZM825 138L536 562L825 985H956L666 562L956 138H825Z" />
<glyph unicode="&#xac;" glyph-name="logicalnot" horiz-adv-x="1381" d="M1115 193V709H168V811H1224V193H1115Z" />
<glyph unicode="&#xad;" glyph-name="uni00AD" horiz-adv-x="882" d="M168 509V615H714V509H168Z" />
<glyph unicode="&#xae;" glyph-name="registered" horiz-adv-x="1544" d="M951 1498T1089 1420T1305 1202T1382 882Q1382 702 1305 563T1090 346T772 268Q593 268 455 345T239 562T162 882Q162 1062 239 1202T454 1420T772 1498Q951 1498 1089 1420ZM930 348T1049
414T1234 601T1299 882Q1299 1043 1234 1164T1050 1351T772 1418Q614 1418 495 1352T310 1164T245 882Q245 722 310 601T494 414T772 348Q930 348 1049 414ZM1006 939T973 896T873 834L1031 600H939L788 821Q779 820 759 820H644L643 600H562V1192H759Q880 1192
943 1144T1006 1005Q1006 939 973 896ZM773 893Q851 893 888 920T925 1005Q925 1063 888 1091T773 1119H644V893H773Z" />
<glyph unicode="&#xaf;" glyph-name="overscore" horiz-adv-x="1134" d="M252 1379V1467H882V1379H252Z" />
<glyph unicode="&#xb0;" glyph-name="degree" horiz-adv-x="1017" d="M409 805T330 849T207 973T162 1151Q162 1250 206 1329T330 1452T509 1497Q609 1497 688 1453T811 1329T856 1151Q856 1052 812 973T688 850T509 805Q409 805 330 849ZM582 895T639 926T729
1016T761 1151Q761 1228 729 1286T640 1375T509 1406Q436 1406 379 1375T289 1286T257 1151Q257 1074 289 1016T378 927T509 895Q582 895 639 926Z" />
<glyph unicode="&#xb1;" glyph-name="plusminus" horiz-adv-x="1093" d="M492 328V667H168V770H492V1109H601V770H925V667H601V328H492ZM168 0V103H925V0H168Z" />
<glyph unicode="&#xb2;" glyph-name="uni00B2" horiz-adv-x="806" d="M728 -43V-136H92V-77L407 297Q492 397 527 464T563 597Q563 694 504 739T324 785Q191 785 80 744V837Q180 876 334 876Q669 876 669 608Q669 524 630 445T493 253L240 -43H728Z" />
<glyph unicode="&#xb3;" glyph-name="uni00B3" horiz-adv-x="806" d="M609 364T667 300T725 137Q725 0 627 -74T334 -148Q193 -148 70 -109V-19Q196 -61 333 -61Q623 -61 623 144Q623 333 358 333H215V421H291Q438 421 513 469T588 614Q588 698 525 743T342 789Q210
789 99 750V840Q152 858 218 867T352 876Q515 876 602 810T690 622Q690 535 640 475T500 386Q609 364 667 300Z" />
<glyph unicode="&#xb4;" glyph-name="acute" horiz-adv-x="1134" d="M509 1257L751 1616H888L625 1257H509Z" />
<glyph unicode="&#xb5;" glyph-name="uni00B5" horiz-adv-x="1185" d="M1013 1083V0H909L900 123H891Q820 54 729 18T536 -18Q360 -18 279 90V-440H157V1083H279V375Q279 225 348 159T544 93Q638 93 731 132T891 250V1083H1013Z" />
<glyph unicode="&#xb6;" glyph-name="paragraph" horiz-adv-x="1278" d="M753 509Q674 499 585 499Q334 499 216 625T97 999Q97 1253 213 1374T561 1495Q712 1495 855 1480V0H753V509ZM985 0V1480H1087V0H985Z" />
<glyph unicode="&#xb7;" glyph-name="middot" horiz-adv-x="461" d="M189 468T163 492T137 558Q137 600 163 625T231 651Q272 651 298 625T324 558Q324 517 299 493T231 468Q189 468 163 492Z" />
<glyph unicode="&#xb8;" glyph-name="cedilla" horiz-adv-x="1134" d="M687 -113T729 -152T772 -258Q772 -330 721 -369T574 -409Q527 -409 480 -400T398 -372V-301Q480 -342 572 -342Q633 -342 663 -321T693 -255Q693 -210 663 -189T570 -167H532V20H609V-107Q687
-113 729 -152Z" />
<glyph unicode="&#xb9;" glyph-name="uni00B9" horiz-adv-x="806" d="M499 -43H737V-136H143V-43H394V737L143 559V664L430 868H499V-43Z" />
<glyph unicode="&#xba;" glyph-name="ordmasculine" horiz-adv-x="996" d="M310 595T202 708T94 1046Q94 1270 202 1382T498 1494Q686 1494 794 1382T902 1046Q902 822 794 709T498 595Q310 595 202 708ZM636 692T710 776T785 1046Q785 1232 711 1314T498 1397Q361
1397 286 1315T211 1046Q211 692 498 692Q636 692 710 776Z" />
<glyph unicode="&#xbb;" glyph-name="guillemotright" horiz-adv-x="1043" d="M88 138L377 562L88 985H218L508 562L218 138H88ZM496 138L785 562L496 985H626L916 562L626 138H496Z" />
<glyph unicode="&#xbc;" glyph-name="onequarter" horiz-adv-x="1886" d="M499 709H737V616H143V709H394V1489L143 1311V1416L430 1620H499V709ZM476 -136L1301 1616H1410L585 -136H476ZM1862 192V104H1714V-136H1617V104H1111V165L1505 864H1609L1232 192H1617L1637
526H1714V192H1862Z" />
<glyph unicode="&#xbd;" glyph-name="onehalf" horiz-adv-x="1886" d="M499 709H737V616H143V709H394V1489L143 1311V1416L430 1620H499V709ZM476 -136L1301 1616H1410L585 -136H476ZM1808 -43V-136H1172V-77L1487 297Q1572 397 1607 464T1643 597Q1643 694 1584
739T1404 785Q1271 785 1160 744V837Q1260 876 1414 876Q1749 876 1749 608Q1749 524 1710 445T1573 253L1320 -43H1808Z" />
<glyph unicode="&#xbe;" glyph-name="threequarters" horiz-adv-x="1886" d="M609 1116T667 1052T725 889Q725 752 627 678T334 604Q193 604 70 643V733Q196 691 333 691Q623 691 623 896Q623 1085 358 1085H215V1173H291Q438 1173 513 1221T588 1366Q588 1450
525 1495T342 1541Q210 1541 99 1502V1592Q152 1610 218 1619T352 1628Q515 1628 602 1562T690 1374Q690 1287 640 1227T500 1138Q609 1116 667 1052ZM476 -136L1301 1616H1410L585 -136H476ZM1862 192V104H1714V-136H1617V104H1111V165L1505 864H1609L1232 192H1617L1637
526H1714V192H1862Z" />
<glyph unicode="&#xbf;" glyph-name="questiondown" horiz-adv-x="929" d="M546 1095T572 1071T598 1006Q598 965 573 941T505 916Q464 916 438 941T412 1006Q412 1045 437 1070T505 1095Q546 1095 572 1071ZM566 334Q422 289 339 238T221 123T185 -29Q185 -155
277 -224T541 -294Q720 -294 886 -239V-346Q807 -372 716 -386T531 -400Q383 -400 278 -357T118 -231T63 -36Q63 71 101 149T224 290T453 404L466 748H545L566 334Z" />
<glyph unicode="&#xc0;" glyph-name="Agrave" horiz-adv-x="1400" d="M1234 0L1041 499H356L163 0H37L615 1480H785L1363 0H1234ZM398 607H999L699 1384L398 607ZM643 1611L421 1890H559L759 1611H643Z" />
<glyph unicode="&#xc1;" glyph-name="Aacute" horiz-adv-x="1400" d="M1234 0L1041 499H356L163 0H37L615 1480H785L1363 0H1234ZM398 607H999L699 1384L398 607ZM643 1611L843 1890H981L759 1611H643Z" />
<glyph unicode="&#xc2;" glyph-name="Acircumflex" horiz-adv-x="1400" d="M1234 0L1041 499H356L163 0H37L615 1480H785L1363 0H1234ZM398 607H999L699 1384L398 607ZM1025 1611H904L701 1830L498 1611H377L642 1890H760L1025 1611Z" />
<glyph unicode="&#xc3;" glyph-name="Atilde" horiz-adv-x="1400" d="M1234 0L1041 499H356L163 0H37L615 1480H785L1363 0H1234ZM398 607H999L699 1384L398 607ZM816 1681T779 1691T685 1721Q638 1739 607 1747T542 1756Q487 1756 446 1739T366 1685V1778Q398
1810 441 1825T543 1841Q586 1841 623 1831T717 1801Q764 1783 795 1775T860 1766Q915 1766 956 1782T1036 1836V1743Q1004 1711 961 1696T859 1681Q816 1681 779 1691Z" />
<glyph unicode="&#xc4;" glyph-name="Adieresis" horiz-adv-x="1400" d="M1234 0L1041 499H356L163 0H37L615 1480H785L1363 0H1234ZM398 607H999L699 1384L398 607ZM413 1672T390 1693T367 1752Q367 1789 390 1811T453 1833Q492 1833 515 1811T538 1752Q538 1715
515 1694T453 1672Q413 1672 390 1693ZM910 1672T887 1693T864 1752Q864 1789 887 1811T949 1833Q989 1833 1012 1811T1035 1752Q1035 1715 1012 1694T949 1672Q910 1672 887 1693Z" />
<glyph unicode="&#xc5;" glyph-name="Aring" horiz-adv-x="1400" d="M1041 499H356L163 0H37L613 1474Q566 1497 539 1541T512 1643Q512 1697 537 1740T605 1807T703 1832Q757 1832 800 1808T869 1740T894 1643Q894 1585 866 1540T788 1471L1363 0H1234L1041 499ZM649
1767T615 1734T581 1643Q581 1586 615 1552T703 1518Q757 1518 791 1552T825 1643Q825 1700 791 1733T703 1767Q649 1767 615 1734ZM398 607H999L699 1384L398 607Z" />
<glyph unicode="&#xc6;" glyph-name="AE" horiz-adv-x="1913" d="M1096 108H1823V0H981L943 499H361L164 0H37L624 1480H1813V1372H996L1040 814H1714V706H1049L1096 108ZM403 607H935L876 1372H705L403 607Z" />
<glyph unicode="&#xc7;" glyph-name="Ccedilla" horiz-adv-x="1216" d="M541 1388T396 1236T250 742Q250 503 317 360T508 154T811 92Q903 92 987 106T1168 153V42Q1002 -18 803 -18H783V-106Q870 -110 919 -148T968 -257Q968 -332 912 -370T752 -409Q701 -409
649 -399T554 -371V-301Q654 -342 748 -342Q888 -342 888 -254Q888 -167 746 -167H706V-14Q121 38 121 738Q121 1126 303 1312T820 1498Q914 1498 998 1486T1168 1450V1339Q1003 1388 824 1388Q541 1388 396 1236Z" />
<glyph unicode="&#xc8;" glyph-name="Egrave" horiz-adv-x="1230" d="M313 108H1140V0H191V1480H1130V1372H313V814H1030V706H313V108ZM624 1611L402 1890H540L740 1611H624Z" />
<glyph unicode="&#xc9;" glyph-name="Eacute" horiz-adv-x="1230" d="M313 108H1140V0H191V1480H1130V1372H313V814H1030V706H313V108ZM624 1611L824 1890H962L740 1611H624Z" />
<glyph unicode="&#xca;" glyph-name="Ecircumflex" horiz-adv-x="1230" d="M313 108H1140V0H191V1480H1130V1372H313V814H1030V706H313V108ZM1006 1611H885L682 1830L479 1611H358L623 1890H741L1006 1611Z" />
<glyph unicode="&#xcb;" glyph-name="Edieresis" horiz-adv-x="1230" d="M313 108H1140V0H191V1480H1130V1372H313V814H1030V706H313V108ZM394 1672T371 1693T348 1752Q348 1789 371 1811T434 1833Q473 1833 496 1811T519 1752Q519 1715 496 1694T434 1672Q394
1672 371 1693ZM891 1672T868 1693T845 1752Q845 1789 868 1811T930 1833Q970 1833 993 1811T1016 1752Q1016 1715 993 1694T930 1672Q891 1672 868 1693Z" />
<glyph unicode="&#xcc;" glyph-name="Igrave" horiz-adv-x="505" d="M191 0V1480H314V0H191ZM194 1611L-28 1890H110L310 1611H194Z" />
<glyph unicode="&#xcd;" glyph-name="Iacute" horiz-adv-x="505" d="M191 0V1480H314V0H191ZM194 1611L394 1890H532L310 1611H194Z" />
<glyph unicode="&#xce;" glyph-name="Icircumflex" horiz-adv-x="505" d="M191 0V1480H314V0H191ZM576 1611H455L252 1830L49 1611H-72L193 1890H311L576 1611Z" />
<glyph unicode="&#xcf;" glyph-name="Idieresis" horiz-adv-x="505" d="M191 0V1480H314V0H191ZM-36 1672T-59 1693T-82 1752Q-82 1789 -59 1811T4 1833Q43 1833 66 1811T89 1752Q89 1715 66 1694T4 1672Q-36 1672 -59 1693ZM461 1672T438 1693T415 1752Q415 1789
438 1811T500 1833Q540 1833 563 1811T586 1752Q586 1715 563 1694T500 1672Q461 1672 438 1693Z" />
<glyph unicode="&#xd0;" glyph-name="Eth" horiz-adv-x="1470" d="M965 1495T1157 1307T1349 740Q1349 359 1153 174T562 -11Q467 -11 382 -6T191 13V716H5V808H191V1454Q286 1474 389 1484T588 1495Q965 1495 1157 1307ZM905 98T1063 253T1221 740Q1221 1071
1064 1228T589 1386Q469 1386 314 1362V808H691V716H314V115Q423 98 582 98Q905 98 1063 253Z" />
<glyph unicode="&#xd1;" glyph-name="Ntilde" horiz-adv-x="1541" d="M1233 1480H1351V0H1222L308 1294V0H191V1480H319L1233 186V1480ZM886 1681T849 1691T755 1721Q708 1739 677 1747T612 1756Q557 1756 516 1739T436 1685V1778Q468 1810 511 1825T613 1841Q656
1841 693 1831T787 1801Q834 1783 865 1775T930 1766Q985 1766 1026 1782T1106 1836V1743Q1074 1711 1031 1696T929 1681Q886 1681 849 1691Z" />
<glyph unicode="&#xd2;" glyph-name="Ograve" horiz-adv-x="1512" d="M562 -18T420 62T200 312T121 740Q121 999 200 1168T421 1417T756 1498Q950 1498 1092 1418T1312 1168T1391 740Q1391 481 1312 312T1091 63T756 -18Q562 -18 420 62ZM996 92T1129 245T1263
735Q1263 1388 756 1388Q516 1388 383 1235T249 745Q249 92 756 92Q996 92 1129 245ZM698 1611L476 1890H614L814 1611H698Z" />
<glyph unicode="&#xd3;" glyph-name="Oacute" horiz-adv-x="1512" d="M562 -18T420 62T200 312T121 740Q121 999 200 1168T421 1417T756 1498Q950 1498 1092 1418T1312 1168T1391 740Q1391 481 1312 312T1091 63T756 -18Q562 -18 420 62ZM996 92T1129 245T1263
735Q1263 1388 756 1388Q516 1388 383 1235T249 745Q249 92 756 92Q996 92 1129 245ZM698 1611L898 1890H1036L814 1611H698Z" />
<glyph unicode="&#xd4;" glyph-name="Ocircumflex" horiz-adv-x="1512" d="M562 -18T420 62T200 312T121 740Q121 999 200 1168T421 1417T756 1498Q950 1498 1092 1418T1312 1168T1391 740Q1391 481 1312 312T1091 63T756 -18Q562 -18 420 62ZM996 92T1129 245T1263
735Q1263 1388 756 1388Q516 1388 383 1235T249 745Q249 92 756 92Q996 92 1129 245ZM1080 1611H959L756 1830L553 1611H432L697 1890H815L1080 1611Z" />
<glyph unicode="&#xd5;" glyph-name="Otilde" horiz-adv-x="1512" d="M562 -18T420 62T200 312T121 740Q121 999 200 1168T421 1417T756 1498Q950 1498 1092 1418T1312 1168T1391 740Q1391 481 1312 312T1091 63T756 -18Q562 -18 420 62ZM996 92T1129 245T1263
735Q1263 1388 756 1388Q516 1388 383 1235T249 745Q249 92 756 92Q996 92 1129 245ZM871 1681T834 1691T740 1721Q693 1739 662 1747T597 1756Q542 1756 501 1739T421 1685V1778Q453 1810 496 1825T598 1841Q641 1841 678 1831T772 1801Q819 1783 850 1775T915
1766Q970 1766 1011 1782T1091 1836V1743Q1059 1711 1016 1696T914 1681Q871 1681 834 1691Z" />
<glyph unicode="&#xd6;" glyph-name="Odieresis" horiz-adv-x="1512" d="M562 -18T420 62T200 312T121 740Q121 999 200 1168T421 1417T756 1498Q950 1498 1092 1418T1312 1168T1391 740Q1391 481 1312 312T1091 63T756 -18Q562 -18 420 62ZM996 92T1129 245T1263
735Q1263 1388 756 1388Q516 1388 383 1235T249 745Q249 92 756 92Q996 92 1129 245ZM468 1672T445 1693T422 1752Q422 1789 445 1811T508 1833Q547 1833 570 1811T593 1752Q593 1715 570 1694T508 1672Q468 1672 445 1693ZM965 1672T942 1693T919 1752Q919 1789
942 1811T1004 1833Q1044 1833 1067 1811T1090 1752Q1090 1715 1067 1694T1004 1672Q965 1672 942 1693Z" />
<glyph unicode="&#xd7;" glyph-name="multiply" horiz-adv-x="1004" d="M204 391L132 462L430 760L132 1058L204 1129L502 832L800 1129L871 1058L573 760L871 462L800 391L502 688L204 391Z" />
<glyph unicode="&#xd8;" glyph-name="Oslash" horiz-adv-x="1512" d="M1391 1093T1391 740Q1391 481 1312 312T1091 63T756 -18Q486 -18 327 131L205 -23L137 30L268 195Q121 387 121 740Q121 999 200 1168T421 1417T756 1498Q1026 1498 1185 1349L1307 1503L1375
1450L1244 1285Q1391 1093 1391 740ZM249 458T348 296L1110 1255Q984 1388 756 1388Q516 1388 383 1235T249 745Q249 458 348 296ZM996 92T1129 245T1263 735Q1263 1022 1164 1184L402 225Q528 92 756 92Q996 92 1129 245Z" />
<glyph unicode="&#xd9;" glyph-name="Ugrave" horiz-adv-x="1485" d="M551 -18T428 43T244 234T183 566V1480H306V551Q306 389 353 288T496 139T744 91Q895 91 991 139T1135 288T1182 551V1480H1302V566Q1302 362 1242 234T1059 44T744 -18Q551 -18 428 43ZM686
1611L464 1890H602L802 1611H686Z" />
<glyph unicode="&#xda;" glyph-name="Uacute" horiz-adv-x="1485" d="M551 -18T428 43T244 234T183 566V1480H306V551Q306 389 353 288T496 139T744 91Q895 91 991 139T1135 288T1182 551V1480H1302V566Q1302 362 1242 234T1059 44T744 -18Q551 -18 428 43ZM686
1611L886 1890H1024L802 1611H686Z" />
<glyph unicode="&#xdb;" glyph-name="Ucircumflex" horiz-adv-x="1485" d="M551 -18T428 43T244 234T183 566V1480H306V551Q306 389 353 288T496 139T744 91Q895 91 991 139T1135 288T1182 551V1480H1302V566Q1302 362 1242 234T1059 44T744 -18Q551 -18 428 43ZM1068
1611H947L744 1830L541 1611H420L685 1890H803L1068 1611Z" />
<glyph unicode="&#xdc;" glyph-name="Udieresis" horiz-adv-x="1485" d="M551 -18T428 43T244 234T183 566V1480H306V551Q306 389 353 288T496 139T744 91Q895 91 991 139T1135 288T1182 551V1480H1302V566Q1302 362 1242 234T1059 44T744 -18Q551 -18 428 43ZM456
1672T433 1693T410 1752Q410 1789 433 1811T496 1833Q535 1833 558 1811T581 1752Q581 1715 558 1694T496 1672Q456 1672 433 1693ZM953 1672T930 1693T907 1752Q907 1789 930 1811T992 1833Q1032 1833 1055 1811T1078 1752Q1078 1715 1055 1694T992 1672Q953 1672
930 1693Z" />
<glyph unicode="&#xdd;" glyph-name="Yacute" horiz-adv-x="1215" d="M1231 1480L670 667V0H546V666L-25 1480H117L611 777L1098 1480H1231ZM550 1611L750 1890H888L666 1611H550Z" />
<glyph unicode="&#xde;" glyph-name="Thorn" horiz-adv-x="1288" d="M191 1481H314V1236Q446 1258 582 1258Q879 1258 1030 1137T1181 762Q1181 516 1026 389T546 262Q428 262 314 273V0H191V1481ZM728 367T840 410T1004 540T1056 760Q1056 963 941 1058T588 1153Q440
1153 314 1130V382Q415 367 547 367Q728 367 840 410Z" />
<glyph unicode="&#xdf;" glyph-name="germandbls" horiz-adv-x="1427" d="M1210 548T1278 480T1346 292Q1346 146 1237 64T915 -19Q746 -19 606 24V128Q688 104 762 94T917 84Q1079 84 1152 135T1226 284Q1226 365 1182 408T1030 472L872 502Q723 531 656 602T588
790Q588 882 634 950T776 1057T1015 1096Q1060 1096 1097 1092Q1105 1150 1105 1195Q1105 1375 1010 1455T750 1536Q558 1536 461 1435T363 1114V0H241V976H20V1083H241V1118Q241 1375 372 1505T746 1636Q882 1636 985 1589T1147 1441T1206 1188Q1206 1142 1199
1085T1179 984Q1097 997 1024 997Q857 997 783 943T708 796Q708 723 751 676T897 609L1055 579Q1210 548 1278 480Z" />
<glyph unicode="&#xe0;" glyph-name="agrave" horiz-adv-x="1072" d="M640 1099T730 1064T868 946T915 722V0H811L802 127H792Q735 60 644 22T449 -17Q344 -17 268 18T152 118T111 274Q111 413 205 489T506 588L795 621V725Q795 830 761 889T661 971T489 995Q417
995 336 983T178 943V1049Q246 1073 332 1086T501 1099Q640 1099 730 1064ZM563 83T646 119T795 230V530L512 498Q366 481 302 430T237 284Q237 187 296 135T472 83Q563 83 646 119ZM475 1257L212 1616H349L591 1257H475Z" />
<glyph unicode="&#xe1;" glyph-name="aacute" horiz-adv-x="1072" d="M640 1099T730 1064T868 946T915 722V0H811L802 127H792Q735 60 644 22T449 -17Q344 -17 268 18T152 118T111 274Q111 413 205 489T506 588L795 621V725Q795 830 761 889T661 971T489 995Q417
995 336 983T178 943V1049Q246 1073 332 1086T501 1099Q640 1099 730 1064ZM563 83T646 119T795 230V530L512 498Q366 481 302 430T237 284Q237 187 296 135T472 83Q563 83 646 119ZM475 1257L717 1616H854L591 1257H475Z" />
<glyph unicode="&#xe2;" glyph-name="acircumflex" horiz-adv-x="1072" d="M640 1099T730 1064T868 946T915 722V0H811L802 127H792Q735 60 644 22T449 -17Q344 -17 268 18T152 118T111 274Q111 413 205 489T506 588L795 621V725Q795 830 761 889T661 971T489
995Q417 995 336 983T178 943V1049Q246 1073 332 1086T501 1099Q640 1099 730 1064ZM563 83T646 119T795 230V530L512 498Q366 481 302 430T237 284Q237 187 296 135T472 83Q563 83 646 119ZM833 1257H725L533 1547L341 1257H233L475 1616H591L833 1257Z" />
<glyph unicode="&#xe3;" glyph-name="atilde" horiz-adv-x="1072" d="M640 1099T730 1064T868 946T915 722V0H811L802 127H792Q735 60 644 22T449 -17Q344 -17 268 18T152 118T111 274Q111 413 205 489T506 588L795 621V725Q795 830 761 889T661 971T489 995Q417
995 336 983T178 943V1049Q246 1073 332 1086T501 1099Q640 1099 730 1064ZM563 83T646 119T795 230V530L512 498Q366 481 302 430T237 284Q237 187 296 135T472 83Q563 83 646 119ZM640 1359T604 1370T516 1402Q469 1421 441 1429T385 1438Q335 1438 295 1420T218
1364V1461Q280 1525 386 1525Q426 1525 462 1514T550 1482Q597 1463 624 1455T681 1446Q731 1446 771 1464T848 1520V1423Q786 1359 680 1359Q640 1359 604 1370Z" />
<glyph unicode="&#xe4;" glyph-name="adieresis" horiz-adv-x="1072" d="M640 1099T730 1064T868 946T915 722V0H811L802 127H792Q735 60 644 22T449 -17Q344 -17 268 18T152 118T111 274Q111 413 205 489T506 588L795 621V725Q795 830 761 889T661 971T489 995Q417
995 336 983T178 943V1049Q246 1073 332 1086T501 1099Q640 1099 730 1064ZM563 83T646 119T795 230V530L512 498Q366 481 302 430T237 284Q237 187 296 135T472 83Q563 83 646 119ZM264 1338T241 1360T217 1421Q217 1460 240 1483T303 1507Q342 1507 365 1484T389
1421Q389 1383 366 1361T303 1338Q264 1338 241 1360ZM724 1338T701 1360T677 1421Q677 1460 700 1483T763 1507Q802 1507 825 1484T849 1421Q849 1383 826 1361T763 1338Q724 1338 701 1360Z" />
<glyph unicode="&#xe5;" glyph-name="aring" horiz-adv-x="1072" d="M640 1099T730 1064T868 946T915 722V0H811L802 127H792Q735 60 644 22T449 -17Q344 -17 268 18T152 118T111 274Q111 413 205 489T506 588L795 621V725Q795 830 761 889T661 971T489 995Q417
995 336 983T178 943V1049Q246 1073 332 1086T501 1099Q640 1099 730 1064ZM563 83T646 119T795 230V530L512 498Q366 481 302 430T237 284Q237 187 296 135T472 83Q563 83 646 119ZM479 1253T436 1277T367 1345T342 1442Q342 1496 367 1539T435 1607T533 1632Q587
1632 630 1608T699 1540T724 1442Q724 1388 699 1345T631 1278T533 1253Q479 1253 436 1277ZM587 1318T621 1351T655 1442Q655 1500 621 1533T533 1567Q479 1567 445 1534T411 1442Q411 1385 445 1352T533 1318Q587 1318 621 1351Z" />
<glyph unicode="&#xe6;" glyph-name="ae" horiz-adv-x="1751" d="M1660 498H915Q922 282 1023 184T1319 85Q1445 85 1607 135V30Q1450 -19 1307 -19Q996 -19 875 184Q779 74 676 29T457 -17Q350 -17 272 18T153 118T111 275Q111 421 213 505T535 590H795V725Q795
830 761 889T660 971T489 995Q417 995 337 983T178 943V1049Q247 1074 331 1086T498 1099Q653 1099 747 1051T877 892Q929 996 1019 1048T1235 1100Q1439 1100 1549 960T1660 542V498ZM1081 1004T1001 905T915 590H1541Q1536 806 1458 905T1231 1004Q1081 1004
1001 905ZM574 83T666 128T834 274Q800 370 796 499H536Q237 499 237 284Q237 187 297 135T475 83Q574 83 666 128Z" />
<glyph unicode="&#xe7;" glyph-name="ccedilla" horiz-adv-x="917" d="M507 992T417 947T282 803T237 545Q237 304 330 197T610 89Q729 89 872 139V31Q736 -19 594 -19H586V-107Q664 -113 706 -152T749 -258Q749 -330 698 -369T551 -409Q504 -409 457 -400T375
-372V-301Q457 -342 549 -342Q610 -342 640 -321T670 -255Q670 -210 640 -189T547 -167H509V-14Q110 33 110 541Q110 827 243 963T636 1099Q766 1099 872 1068V960Q759 992 646 992Q507 992 417 947Z" />
<glyph unicode="&#xe8;" glyph-name="egrave" horiz-adv-x="1079" d="M988 498H235Q242 281 343 183T644 85Q770 85 934 135V30Q774 -19 631 -19Q374 -19 242 117T110 542Q110 818 227 958T557 1099Q766 1099 877 959T988 540V498ZM403 1004T322 905T235 590H869Q865
805 786 904T556 1004Q403 1004 322 905ZM501 1257L238 1616H375L617 1257H501Z" />
<glyph unicode="&#xe9;" glyph-name="eacute" horiz-adv-x="1079" d="M988 498H235Q242 281 343 183T644 85Q770 85 934 135V30Q774 -19 631 -19Q374 -19 242 117T110 542Q110 818 227 958T557 1099Q766 1099 877 959T988 540V498ZM403 1004T322 905T235 590H869Q865
805 786 904T556 1004Q403 1004 322 905ZM501 1257L743 1616H880L617 1257H501Z" />
<glyph unicode="&#xea;" glyph-name="ecircumflex" horiz-adv-x="1079" d="M988 498H235Q242 281 343 183T644 85Q770 85 934 135V30Q774 -19 631 -19Q374 -19 242 117T110 542Q110 818 227 958T557 1099Q766 1099 877 959T988 540V498ZM403 1004T322 905T235
590H869Q865 805 786 904T556 1004Q403 1004 322 905ZM859 1257H751L559 1547L367 1257H259L501 1616H617L859 1257Z" />
<glyph unicode="&#xeb;" glyph-name="edieresis" horiz-adv-x="1079" d="M988 498H235Q242 281 343 183T644 85Q770 85 934 135V30Q774 -19 631 -19Q374 -19 242 117T110 542Q110 818 227 958T557 1099Q766 1099 877 959T988 540V498ZM403 1004T322 905T235 590H869Q865
805 786 904T556 1004Q403 1004 322 905ZM290 1338T267 1360T243 1421Q243 1460 266 1483T329 1507Q368 1507 391 1484T415 1421Q415 1383 392 1361T329 1338Q290 1338 267 1360ZM750 1338T727 1360T703 1421Q703 1460 726 1483T789 1507Q828 1507 851 1484T875
1421Q875 1383 852 1361T789 1338Q750 1338 727 1360Z" />
<glyph unicode="&#xec;" glyph-name="igrave" horiz-adv-x="466" d="M172 0V1083H294V0H172ZM175 1257L-88 1616H49L291 1257H175Z" />
<glyph unicode="&#xed;" glyph-name="iacute" horiz-adv-x="466" d="M172 0V1083H294V0H172ZM175 1257L417 1616H554L291 1257H175Z" />
<glyph unicode="&#xee;" glyph-name="icircumflex" horiz-adv-x="466" d="M172 0V1083H294V0H172ZM533 1257H425L233 1547L41 1257H-67L175 1616H291L533 1257Z" />
<glyph unicode="&#xef;" glyph-name="idieresis" horiz-adv-x="466" d="M172 0V1083H294V0H172ZM-36 1338T-59 1360T-83 1421Q-83 1460 -60 1483T3 1507Q42 1507 65 1484T89 1421Q89 1383 66 1361T3 1338Q-36 1338 -59 1360ZM424 1338T401 1360T377 1421Q377 1460
400 1483T463 1507Q502 1507 525 1484T549 1421Q549 1383 526 1361T463 1338Q424 1338 401 1360Z" />
<glyph unicode="&#xf0;" glyph-name="eth" horiz-adv-x="1162" d="M917 1156T984 963T1051 578Q1051 277 927 129T583 -19Q359 -19 235 118T110 541Q110 730 167 854T329 1038T575 1098Q745 1098 849 1002Q785 1163 680 1302L223 1228L209 1311L619 1378Q502 1509
351 1616H509Q636 1527 742 1398L1013 1442L1027 1359L800 1322Q917 1156 984 963ZM747 85T837 194T927 538Q927 781 838 888T581 995Q414 995 325 889T235 543Q235 299 324 192T583 85Q747 85 837 194Z" />
<glyph unicode="&#xf1;" glyph-name="ntilde" horiz-adv-x="1195" d="M172 1083H276L285 955H295Q369 1025 465 1062T668 1099Q842 1099 939 1006T1037 707V0H915V704Q915 855 846 921T646 988Q551 988 457 950T294 832V0H172V1083ZM713 1359T677 1370T589 1402Q542
1421 514 1429T458 1438Q408 1438 368 1420T291 1364V1461Q353 1525 459 1525Q499 1525 535 1514T623 1482Q670 1463 697 1455T754 1446Q804 1446 844 1464T921 1520V1423Q859 1359 753 1359Q713 1359 677 1370Z" />
<glyph unicode="&#xf2;" glyph-name="ograve" horiz-adv-x="1162" d="M359 -19T235 118T110 541Q110 823 235 961T581 1099Q804 1099 928 963T1052 541Q1052 259 927 120T581 -19Q359 -19 235 118ZM748 85T837 192T927 539Q927 782 838 889T581 996Q414 996 325
890T235 543Q235 300 324 193T581 85Q748 85 837 192ZM523 1257L260 1616H397L639 1257H523Z" />
<glyph unicode="&#xf3;" glyph-name="oacute" horiz-adv-x="1162" d="M359 -19T235 118T110 541Q110 823 235 961T581 1099Q804 1099 928 963T1052 541Q1052 259 927 120T581 -19Q359 -19 235 118ZM748 85T837 192T927 539Q927 782 838 889T581 996Q414 996 325
890T235 543Q235 300 324 193T581 85Q748 85 837 192ZM523 1257L765 1616H902L639 1257H523Z" />
<glyph unicode="&#xf4;" glyph-name="ocircumflex" horiz-adv-x="1162" d="M359 -19T235 118T110 541Q110 823 235 961T581 1099Q804 1099 928 963T1052 541Q1052 259 927 120T581 -19Q359 -19 235 118ZM748 85T837 192T927 539Q927 782 838 889T581 996Q414 996
325 890T235 543Q235 300 324 193T581 85Q748 85 837 192ZM881 1257H773L581 1547L389 1257H281L523 1616H639L881 1257Z" />
<glyph unicode="&#xf5;" glyph-name="otilde" horiz-adv-x="1162" d="M359 -19T235 118T110 541Q110 823 235 961T581 1099Q804 1099 928 963T1052 541Q1052 259 927 120T581 -19Q359 -19 235 118ZM748 85T837 192T927 539Q927 782 838 889T581 996Q414 996 325
890T235 543Q235 300 324 193T581 85Q748 85 837 192ZM688 1359T652 1370T564 1402Q517 1421 489 1429T433 1438Q383 1438 343 1420T266 1364V1461Q328 1525 434 1525Q474 1525 510 1514T598 1482Q645 1463 672 1455T729 1446Q779 1446 819 1464T896 1520V1423Q834
1359 728 1359Q688 1359 652 1370Z" />
<glyph unicode="&#xf6;" glyph-name="odieresis" horiz-adv-x="1162" d="M359 -19T235 118T110 541Q110 823 235 961T581 1099Q804 1099 928 963T1052 541Q1052 259 927 120T581 -19Q359 -19 235 118ZM748 85T837 192T927 539Q927 782 838 889T581 996Q414 996
325 890T235 543Q235 300 324 193T581 85Q748 85 837 192ZM312 1338T289 1360T265 1421Q265 1460 288 1483T351 1507Q390 1507 413 1484T437 1421Q437 1383 414 1361T351 1338Q312 1338 289 1360ZM772 1338T749 1360T725 1421Q725 1460 748 1483T811 1507Q850 1507
873 1484T897 1421Q897 1383 874 1361T811 1338Q772 1338 749 1360Z" />
<glyph unicode="&#xf7;" glyph-name="divide" horiz-adv-x="1093" d="M507 1017T482 1041T457 1104Q457 1144 481 1168T546 1192Q586 1192 610 1168T635 1104Q635 1064 611 1041T546 1017Q507 1017 482 1041ZM168 709V811H925V709H168ZM506 328T482 351T457 414Q457
454 481 478T546 503Q586 503 610 479T635 414Q635 375 611 352T546 328Q506 328 482 351Z" />
<glyph unicode="&#xf8;" glyph-name="oslash" horiz-adv-x="1162" d="M1052 807T1052 541Q1052 259 927 120T581 -19Q396 -19 282 73L209 -25L142 26L222 133Q110 275 110 541Q110 823 235 961T581 1099Q766 1099 878 1010L952 1108L1019 1057L939 950Q1052 807
1052 541ZM413 997T323 891T233 543Q233 342 298 229L813 918Q730 997 581 997Q413 997 323 891ZM749 84T839 191T929 539Q929 743 863 854L347 165Q431 84 581 84Q749 84 839 191Z" />
<glyph unicode="&#xf9;" glyph-name="ugrave" horiz-adv-x="1185" d="M351 -18T254 74T157 369V1083H279V375Q279 225 348 159T544 93Q638 93 731 132T891 250V1083H1013V0H909L900 123H891Q817 54 722 18T522 -18Q351 -18 254 74ZM527 1257L264 1616H401L643 1257H527Z" />
<glyph unicode="&#xfa;" glyph-name="uacute" horiz-adv-x="1185" d="M351 -18T254 74T157 369V1083H279V375Q279 225 348 159T544 93Q638 93 731 132T891 250V1083H1013V0H909L900 123H891Q817 54 722 18T522 -18Q351 -18 254 74ZM527 1257L769 1616H906L643 1257H527Z" />
<glyph unicode="&#xfb;" glyph-name="ucircumflex" horiz-adv-x="1185" d="M351 -18T254 74T157 369V1083H279V375Q279 225 348 159T544 93Q638 93 731 132T891 250V1083H1013V0H909L900 123H891Q817 54 722 18T522 -18Q351 -18 254 74ZM885 1257H777L585 1547L393
1257H285L527 1616H643L885 1257Z" />
<glyph unicode="&#xfc;" glyph-name="udieresis" horiz-adv-x="1185" d="M351 -18T254 74T157 369V1083H279V375Q279 225 348 159T544 93Q638 93 731 132T891 250V1083H1013V0H909L900 123H891Q817 54 722 18T522 -18Q351 -18 254 74ZM316 1338T293 1360T269 1421Q269
1460 292 1483T355 1507Q394 1507 417 1484T441 1421Q441 1383 418 1361T355 1338Q316 1338 293 1360ZM776 1338T753 1360T729 1421Q729 1460 752 1483T815 1507Q854 1507 877 1484T901 1421Q901 1383 878 1361T815 1338Q776 1338 753 1360Z" />
<glyph unicode="&#xfd;" glyph-name="yacute" horiz-adv-x="1100" d="M950 1083H1074L449 -440H325L506 0H470L26 1083H157L550 97L950 1083ZM493 1257L735 1616H872L609 1257H493Z" />
<glyph unicode="&#xfe;" glyph-name="thorn" horiz-adv-x="1183" d="M172 1616H294V960H302Q361 1026 445 1062T632 1099Q761 1099 860 1044T1016 870T1074 562Q1074 -18 508 -18Q416 -18 294 0V-440H172V1616ZM733 86T840 198T948 550Q948 787 857 889T603 991Q513
991 432 954T294 841V111Q338 99 396 93T512 86Q733 86 840 198Z" />
<glyph unicode="&#xff;" glyph-name="ydieresis" horiz-adv-x="1100" d="M950 1083H1074L449 -440H325L506 0H470L26 1083H157L550 97L950 1083ZM282 1338T259 1360T235 1421Q235 1460 258 1483T321 1507Q360 1507 383 1484T407 1421Q407 1383 384 1361T321 1338Q282
1338 259 1360ZM742 1338T719 1360T695 1421Q695 1460 718 1483T781 1507Q820 1507 843 1484T867 1421Q867 1383 844 1361T781 1338Q742 1338 719 1360Z" />
<glyph unicode="&#x2013;" glyph-name="endash" horiz-adv-x="950" d="M0 512V611H950V512H0Z" />
<glyph unicode="&#x2014;" glyph-name="emdash" horiz-adv-x="1900" d="M0 512V611H1900V512H0Z" />
<glyph unicode="&#x2018;" glyph-name="quoteleft" horiz-adv-x="461" d="M272 1318T298 1293T324 1226Q324 1186 300 1161T235 1136Q138 1136 138 1256Q138 1350 161 1442T225 1616H298Q268 1529 252 1458T232 1318Q272 1318 298 1293Z" />
<glyph unicode="&#x2019;" glyph-name="quoteright" horiz-adv-x="461" d="M274 1628T299 1598T324 1507Q324 1412 301 1320T236 1147H163Q194 1236 210 1306T230 1445Q189 1445 163 1470T137 1537Q137 1578 162 1603T228 1628Q274 1628 299 1598Z" />
<glyph unicode="&#x201a;" glyph-name="quotesinglbase" horiz-adv-x="461" d="M274 171T299 142T324 51Q324 -44 301 -136T236 -309H163Q194 -220 210 -150T230 -12Q189 -12 163 13T137 81Q137 122 162 146T228 171Q274 171 299 142Z" />
<glyph unicode="&#x201c;" glyph-name="quotedblleft" horiz-adv-x="802" d="M272 1318T298 1293T324 1226Q324 1186 300 1161T235 1136Q138 1136 138 1256Q138 1350 161 1442T225 1616H298Q268 1529 252 1458T232 1318Q272 1318 298 1293ZM612 1318T638 1293T664
1226Q664 1186 640 1161T575 1136Q478 1136 478 1256Q478 1350 501 1442T565 1616H638Q608 1529 592 1458T572 1318Q612 1318 638 1293Z" />
<glyph unicode="&#x201d;" glyph-name="quotedblright" horiz-adv-x="802" d="M274 1628T299 1598T324 1507Q324 1412 301 1320T236 1147H163Q194 1236 210 1306T230 1445Q189 1445 163 1470T137 1537Q137 1578 162 1603T228 1628Q274 1628 299 1598ZM614 1628T639
1598T664 1507Q664 1412 641 1320T576 1147H503Q534 1236 550 1306T570 1445Q529 1445 503 1470T477 1537Q477 1578 502 1603T568 1628Q614 1628 639 1598Z" />
<glyph unicode="&#x201e;" glyph-name="quotedblbase" horiz-adv-x="802" d="M274 171T299 142T324 51Q324 -44 301 -136T236 -309H163Q194 -220 210 -150T230 -12Q189 -12 163 13T137 81Q137 122 162 146T228 171Q274 171 299 142ZM614 171T639 142T664 51Q664
-44 641 -136T576 -309H503Q534 -220 550 -150T570 -12Q529 -12 503 13T477 81Q477 122 502 146T568 171Q614 171 639 142Z" />
<glyph unicode="&#x2022;" glyph-name="bullet" horiz-adv-x="722" d="M299 336T248 365T167 445T137 560Q137 624 167 675T248 755T361 784Q423 784 474 755T555 675T585 560Q585 496 555 445T474 365T361 336Q299 336 248 365Z" />
<glyph unicode="&#x2039;" glyph-name="guilsinglleft" horiz-adv-x="635" d="M417 138L128 562L417 985H548L258 562L548 138H417Z" />
<glyph unicode="&#x203a;" glyph-name="guilsinglright" horiz-adv-x="635" d="M88 138L377 562L88 985H218L508 562L218 138H88Z" />
</font>
</defs>
</svg>
