<?xml version="1.0" standalone="no"?>
<!DOCTYPE svg PUBLIC "-//W3C//DTD SVG 1.1//EN" "http://www.w3.org/Graphics/SVG/1.1/DTD/svg11.dtd">
<svg xmlns="http://www.w3.org/2000/svg">
<defs >
<font id="Montserrat" horiz-adv-x="604" ><font-face
    font-family="Montserrat Medium"
    units-per-em="1000"
    panose-1="0 0 6 0 0 0 0 0 0 0"
    ascent="968"
    descent="-251"
    alphabetic="0" />
<glyph unicode=" " glyph-name="space" horiz-adv-x="245" />
<glyph unicode="!" glyph-name="exclam" horiz-adv-x="222" d="M61 693H186V519L164 228H83L61 519V693ZM153 135T172 115T192 64Q192 32 173 12T123 -9Q94 -9 75 12T55 64Q55 95 74 115T123 135Q153 135 172 115Z" />
<glyph unicode="&quot;" glyph-name="quotedbl" horiz-adv-x="383" d="M60 700H160V445H60V700ZM224 700H324V445H224V700Z" />
<glyph unicode="#" glyph-name="numbersign" horiz-adv-x="728" d="M693 429H553L533 265H670L660 167H521L500 0H404L425 167H258L237 0H141L162 167H24L34 265H174L194 429H57L66 526H206L228 700H323L302 526H469L491 700H586L565 526H703L693 429ZM437 265L457
429H290L270 265H437Z" />
<glyph unicode="$" glyph-name="dollar" horiz-adv-x="628" d="M212 492T231 473T280 441T361 413Q432 392 477 371T555 309T587 201Q587 116 528 62T372 -5V-145H273V-6Q203 2 138 31T23 104L79 218Q132 169 198 141T321 113Q377 113 409 134T441 193Q441 223
422 242T372 274T290 301Q219 322 174 342T97 402T65 509Q65 589 121 642T273 708V838L372 839V709Q429 703 483 684T580 637L526 520Q472 553 416 571T316 589Q268 589 240 571T212 521Q212 492 231 473Z" />
<glyph unicode="%" glyph-name="percent" horiz-adv-x="972" d="M308 702T358 647T408 493Q408 395 358 339T220 282Q133 282 83 338T33 493Q33 590 83 646T220 702Q308 702 358 647ZM172 626T146 591T119 493Q119 429 145 394T220 358Q269 358 296 393T323 493Q323
556 296 591T220 626Q172 626 146 591ZM688 700H787L277 0H177L688 700ZM839 417T889 362T939 208Q939 110 889 54T751 -3Q664 -3 614 53T564 208Q564 305 614 361T751 417Q839 417 889 362ZM703 341T677 306T650 208Q650 144 676 109T751 73Q800 73 827 108T854
208Q854 271 827 306T751 341Q703 341 677 306Z" />
<glyph unicode="&amp;" glyph-name="ampersand" horiz-adv-x="669" d="M595 -23L489 82Q395 -6 281 -6Q218 -6 167 19T86 90T56 193Q56 259 95 303T204 385Q171 431 156 469T140 545Q140 617 191 661T327 706Q380 706 422 687T487 634T510 555Q510 490 466 448T342
365Q400 301 478 224Q511 274 536 346L621 283Q593 210 551 153L662 45L595 -23ZM243 496T290 430Q346 459 376 487T406 555Q406 587 385 606T328 626Q290 626 267 603T243 545Q243 496 290 430ZM355 92T419 151Q317 252 257 320Q212 294 188 267T164 203Q164 154
199 123T286 92Q355 92 419 151Z" />
<glyph unicode="&apos;" glyph-name="quotesingle" horiz-adv-x="219" d="M60 700H160V445H60V700Z" />
<glyph unicode="(" glyph-name="parenleft" horiz-adv-x="320" d="M252 654T221 542T189 309Q189 188 220 76T308 -124H190Q130 -38 99 73T67 309Q67 433 98 544T190 742H308Q252 654 221 542Z" />
<glyph unicode=")" glyph-name="parenright" horiz-adv-x="320" d="M130 742Q190 656 221 545T253 309Q253 185 222 74T130 -124H12Q68 -36 99 76T131 309Q131 430 100 542T12 742H130Z" />
<glyph unicode="*" glyph-name="asterisk" horiz-adv-x="356" d="M144 720H212L211 620L298 671L332 609L242 560L332 511L298 448L210 500L212 400H144L146 501L58 450L25 511L113 560L25 609L58 672L145 620L144 720Z" />
<glyph unicode="+" glyph-name="plus" horiz-adv-x="501" d="M467 370V280H293V108H208V280H35V370H208V543H293V370H467Z" />
<glyph unicode="," glyph-name="comma" horiz-adv-x="221" d="M140 133T159 114T179 63Q179 48 175 36T161 7L98 -114H33L75 5Q45 25 45 63Q45 94 64 113T112 133Q140 133 159 114Z" />
<glyph unicode="-" glyph-name="hyphen" horiz-adv-x="370" d="M59 350H310V260H59V350Z" />
<glyph unicode="." glyph-name="period" horiz-adv-x="225" d="M142 135T161 115T181 64Q181 32 162 12T112 -9Q83 -9 64 12T44 64Q44 95 63 115T112 135Q142 135 161 115Z" />
<glyph unicode="/" glyph-name="slash" horiz-adv-x="337" d="M294 815H404L86 -115H-25L294 815Z" />
<glyph unicode="0" glyph-name="zero" horiz-adv-x="706" d="M499 706T577 614T655 350Q655 179 577 87T354 -5Q209 -5 131 87T53 350Q53 522 131 614T354 706Q499 706 577 614ZM271 600T231 540T191 350Q191 222 231 161T354 100Q437 100 477 161T517 350Q517
479 477 539T354 600Q271 600 231 540Z" />
<glyph unicode="1" glyph-name="one" horiz-adv-x="382" d="M1 700H282V0H148V582H1V700Z" />
<glyph unicode="2" glyph-name="two" horiz-adv-x="590" d="M556 117V0H38V97L302 369Q340 407 363 444T386 508Q386 546 356 567T273 589Q227 589 175 566T77 502L24 605Q86 653 154 679T292 706Q361 706 414 684T496 622T526 528Q526 477 491 420T393 297L215 117H556Z" />
<glyph unicode="3" glyph-name="three" horiz-adv-x="593" d="M433 399T490 349T548 218Q548 152 514 102T417 23T270 -6Q199 -6 130 15T11 73L64 177Q106 142 157 124T261 105Q334 105 375 135T417 216Q417 268 376 295T259 323H153V404L341 586H46L45 700H513V617L299
412L336 408Q433 399 490 349Z" />
<glyph unicode="4" glyph-name="four" horiz-adv-x="600" d="M568 280V165H467V0H343V165H8V264L236 700H365L151 280H343V442H467V280H568Z" />
<glyph unicode="5" glyph-name="five" horiz-adv-x="620" d="M395 444T455 417T547 342T580 232Q580 161 546 107T450 24T306 -6Q240 -6 169 16T42 77L95 182Q140 147 191 128T293 108Q359 108 397 138T436 222Q436 273 398 301T285 329Q249 329 190 327T99 321V700H549V583H223V444H316Q395
444 455 417Z" />
<glyph unicode="6" glyph-name="six" horiz-adv-x="633" d="M484 574T444 585T362 597Q268 597 221 534T176 362Q203 408 249 431T360 455Q464 455 525 394T586 231Q586 159 555 106T468 23T336 -6Q247 -6 182 35T83 153T48 337Q48 448 85 531T192 660T354 706Q408
706 465 692T566 652L515 552Q484 574 444 585ZM270 352T232 316T195 227Q194 197 209 170T254 125T330 107Q390 107 426 140T462 232Q462 287 428 319T334 352Q270 352 232 316Z" />
<glyph unicode="7" glyph-name="seven" horiz-adv-x="575" d="M9 700H549V600L261 0H119L398 583H129L128 484H9V700Z" />
<glyph unicode="8" glyph-name="eight" horiz-adv-x="632" d="M424 706T487 657T551 522Q551 474 525 435T453 374Q515 351 550 304T586 196Q586 135 553 89T459 19T315 -6Q233 -6 172 18T77 88T44 194Q44 256 81 303T183 374Q134 398 107 438T79 527Q79 609 142
657T314 706Q424 706 487 657ZM257 610T225 585T192 515Q192 470 224 445T315 420Q373 420 405 445T437 515Q437 560 405 585T315 610Q257 610 225 585ZM246 316T208 288T170 209Q170 157 208 128T315 99Q383 99 421 127T460 208Q460 259 422 287T314 316Q246 316
208 288Z" />
<glyph unicode="9" glyph-name="nine" horiz-adv-x="631" d="M144 127T184 116T264 104Q358 104 405 166T450 338Q423 293 376 269T266 245Q163 245 103 306T43 470Q43 542 73 595T160 677T291 706Q380 706 444 665T543 547T578 364Q578 253 541 169T434 40T273
-6Q220 -6 163 9T61 49L113 148Q144 127 184 116ZM238 593T202 560T166 469Q166 413 200 381T293 349Q357 349 394 384T430 473Q431 521 397 557T297 593Q238 593 202 560Z" />
<glyph unicode=":" glyph-name="colon" horiz-adv-x="225" d="M142 432T161 412T181 361Q181 329 162 309T112 288Q83 288 64 309T44 361Q44 392 63 412T112 432Q142 432 161 412ZM142 135T161 115T181 64Q181 32 162 12T112 -9Q83 -9 64 12T44 64Q44 95 63 115T112
135Q142 135 161 115Z" />
<glyph unicode=";" glyph-name="semicolon" horiz-adv-x="223" d="M142 432T161 412T181 361Q181 329 162 309T112 288Q83 288 64 309T44 361Q44 392 63 412T112 432Q142 432 161 412ZM140 133T159 114T179 63Q179 48 175 36T161 7L98 -114H33L75 5Q45 25 45 63Q45
94 64 113T112 133Q140 133 159 114Z" />
<glyph unicode="&lt;" glyph-name="less" horiz-adv-x="501" d="M467 568V468L121 325L467 182V83L35 268V382L467 568Z" />
<glyph unicode="=" glyph-name="equal" horiz-adv-x="501" d="M35 476H467V386H35V476ZM35 264H467V175H35V264Z" />
<glyph unicode="&gt;" glyph-name="greater" horiz-adv-x="501" d="M34 88V188L380 331L34 474V573L466 388V274L34 88Z" />
<glyph unicode="?" glyph-name="question" horiz-adv-x="451" d="M24 587T81 642T235 698Q329 698 384 654T440 528Q440 490 427 461T396 412T347 365Q306 330 286 302T265 231H165Q165 271 177 301T205 350T251 396Q285 427 301 450T317 508Q317 547 293 566T224
586Q178 586 152 562T124 489H23Q24 587 81 642ZM243 135T262 115T282 64Q282 32 263 12T213 -9Q184 -9 165 12T145 64Q145 95 164 115T213 135Q243 135 262 115Z" />
<glyph unicode="@" glyph-name="at" horiz-adv-x="958" d="M704 125T715 112T747 99Q771 99 791 121T825 182T838 270Q838 368 795 447T672 572T485 618Q385 618 302 571T169 444T120 267Q120 173 166 97T293 -23T472 -66Q519 -66 571 -51T664 -6L707 -81Q664
-113 598 -132T472 -152Q348 -152 248 -98T89 53T31 267Q31 388 91 487T256 643T485 701Q610 701 711 646T869 493T927 273Q927 199 903 143T835 55T736 24Q689 24 659 44T620 105L618 123Q588 80 545 58T451 36Q391 36 339 65T256 148T224 269Q224 335 251 389T327
475T440 507Q479 507 511 494T565 464T592 436V496H704V152Q704 125 715 112ZM410 403T378 366T345 274Q345 218 378 178T464 138Q519 138 551 177T584 273Q584 328 551 365T462 403Q410 403 378 366Z" />
<glyph unicode="A" glyph-name="A" horiz-adv-x="747" d="M604 0L542 148H200L138 0H-1L306 700H445L748 0H604ZM248 263H494L372 557L248 263Z" />
<glyph unicode="B" glyph-name="B" horiz-adv-x="709" d="M509 700T573 653T638 525Q638 467 606 426T516 370Q586 357 625 310T665 193Q665 103 596 52T406 0H86V700H397Q509 700 573 653ZM442 414T471 437T501 501Q501 541 472 563T390 584H220V414H390Q442
414 471 437ZM454 115T490 140T526 210Q526 253 490 277T390 301H220V116H390Q454 115 490 140Z" />
<glyph unicode="C" glyph-name="C" horiz-adv-x="696" d="M556 541T506 565T403 589Q338 589 284 558T199 473T168 353Q168 288 199 234T284 148T403 116Q453 116 503 138T593 199L672 111Q617 55 544 23T396 -10Q295 -10 211 38T79 168T31 351Q31 451 80 533T213
662T401 709Q476 709 548 679T671 596L593 498Q556 541 506 565Z" />
<glyph unicode="D" glyph-name="D" horiz-adv-x="773" d="M482 700T565 656T695 531T742 350Q742 249 695 170T563 45T372 0H86V700H377Q482 700 565 656ZM444 118T495 147T576 229T605 349Q605 416 575 469T493 552T375 582H220V118H380Q444 118 495 147Z" />
<glyph unicode="E" glyph-name="E" horiz-adv-x="661" d="M86 700H599V583H220V410H560V293H220V117H611V0H86V700Z" />
<glyph unicode="F" glyph-name="F" horiz-adv-x="583" d="M86 700H569L568 583H220V394H537V277H220V0H86V700Z" />
<glyph unicode="G" glyph-name="G" horiz-adv-x="747" d="M561 348H678V82Q623 41 548 16T401 -10Q298 -10 214 38T80 168T31 351Q31 451 81 532T217 661T409 709Q484 709 557 682T683 608L607 509Q567 547 515 568T409 589Q343 589 288 558T200 471T168 351Q168
285 200 230T288 143T410 111Q446 111 485 122T561 155V348Z" />
<glyph unicode="H" glyph-name="H" horiz-adv-x="790" d="M86 700H220V401H569V700H703V0H569V284H220V0H86V700Z" />
<glyph unicode="I" glyph-name="I" horiz-adv-x="306" d="M86 700H220V0H86V700Z" />
<glyph unicode="J" glyph-name="J" horiz-adv-x="509" d="M437 113T377 54T213 -6Q83 -6 -3 99L60 199Q95 162 134 142T209 121Q253 121 277 147T302 223V581H61V700H437V220Q437 113 377 54Z" />
<glyph unicode="K" glyph-name="K" horiz-adv-x="726" d="M711 0H550L330 300L220 179V0H86V700H220V351L536 700H694L425 404L711 0Z" />
<glyph unicode="L" glyph-name="L" horiz-adv-x="541" d="M86 700H220V121H522V0H86V700Z" />
<glyph unicode="M" glyph-name="M" horiz-adv-x="940" d="M86 700H239L471 249L701 700H854V0H731V502L513 72H427L208 502V0H86V700Z" />
<glyph unicode="N" glyph-name="N" horiz-adv-x="790" d="M574 700H704V0H577L217 482V0H86V700H213L574 217V700Z" />
<glyph unicode="O" glyph-name="O" horiz-adv-x="809" d="M508 709T593 662T728 533T777 351Q777 251 728 169T594 38T404 -10Q300 -10 215 38T80 168T31 351Q31 451 80 533T214 662T404 709Q508 709 593 662ZM342 589T287 558T200 472T168 351Q168 285 200 230T287
143T406 111Q469 111 523 143T608 230T640 351Q640 417 609 471T523 557T406 589Q342 589 287 558Z" />
<glyph unicode="P" glyph-name="P" horiz-adv-x="675" d="M505 700T577 637T650 459Q650 339 578 273T373 206H220V0H86V700H373Q505 700 577 637ZM442 324T482 357T523 455Q523 519 483 551T366 583H220V324H366Q442 324 482 357Z" />
<glyph unicode="Q" glyph-name="Q" horiz-adv-x="816" d="M817 -80Q777 -116 725 -136T623 -157Q557 -157 500 -119T403 -10Q299 -10 214 38T80 168T31 351Q31 451 80 533T214 662T404 709Q508 709 593 662T728 533T777 351Q777 273 747 205T661 86T534 11Q587
-45 639 -45Q693 -45 765 11L817 -80ZM168 285T200 230T287 143T406 111Q469 111 523 143T608 230T640 351Q640 417 609 471T523 557T406 589Q342 589 287 558T200 472T168 351Q168 285 200 230Z" />
<glyph unicode="R" glyph-name="R" horiz-adv-x="723" d="M524 0L403 207Q395 206 378 206H220V0H86V700H378Q514 700 588 637T662 459Q662 377 627 319T523 232L677 0H524ZM220 324H378Q454 324 494 357T534 455Q534 519 494 551T378 583H220V324Z" />
<glyph unicode="S" glyph-name="S" horiz-adv-x="628" d="M472 553T416 571T316 589Q268 589 240 571T212 521Q212 492 231 473T280 441T361 413Q432 392 477 371T555 309T587 201Q587 137 553 90T458 17T319 -8Q237 -8 159 22T23 104L79 218Q132 169 198 141T321
113Q377 113 409 134T441 193Q441 223 422 242T372 274T290 301Q219 322 174 342T97 402T65 509Q65 570 97 615T189 686T327 711Q395 711 461 691T580 637L526 520Q472 553 416 571Z" />
<glyph unicode="T" glyph-name="T" horiz-adv-x="588" d="M8 700H579V581H361V0H226V581H8V700Z" />
<glyph unicode="U" glyph-name="U" horiz-adv-x="756" d="M207 205T254 158T380 111Q459 111 504 158T550 288V700H684V288Q684 197 647 130T542 26T380 -10Q286 -10 217 26T110 129T73 288V700H207V288Q207 205 254 158Z" />
<glyph unicode="V" glyph-name="V" horiz-adv-x="701" d="M2 700H146L352 149L560 700H698L418 0H279L2 700Z" />
<glyph unicode="W" glyph-name="W" horiz-adv-x="1076" d="M935 700H1074L837 0H698L538 531L375 0H238L2 700H146L311 145L475 700H607L772 143L935 700Z" />
<glyph unicode="X" glyph-name="X" horiz-adv-x="704" d="M29 700H186L347 470L508 700H667L432 365L687 0H526L347 250L170 0H13L265 359L29 700Z" />
<glyph unicode="Y" glyph-name="Y" horiz-adv-x="649" d="M649 700L394 229V0H260V224L-1 700H135L326 371L514 700H649Z" />
<glyph unicode="Z" glyph-name="Z" horiz-adv-x="668" d="M48 700H628V606L216 117H633V0H35V95L447 583H47L48 700Z" />
<glyph unicode="[" glyph-name="bracketleft" horiz-adv-x="336" d="M78 742H318V638H195V-20H318V-124H78V742Z" />
<glyph unicode="\" glyph-name="backslash" horiz-adv-x="337" d="M43 815L362 -115H251L-67 815H43Z" />
<glyph unicode="]" glyph-name="bracketright" horiz-adv-x="336" d="M258 742V-124H18V-20H141V638H18V742H258Z" />
<glyph unicode="^" glyph-name="asciicircum" horiz-adv-x="547" d="M516 134H416L273 447L130 134H31L216 525H330L516 134Z" />
<glyph unicode="_" glyph-name="underscore" horiz-adv-x="571" d="M0 -126H570V-204H0V-126Z" />
<glyph unicode="`" glyph-name="grave" horiz-adv-x="333" d="M178 760L279 616L177 606L53 709L178 760Z" />
<glyph unicode="a" glyph-name="a" horiz-adv-x="590" d="M397 0V65Q369 30 325 12T224 -6Q168 -6 126 15T60 75T37 160Q37 235 90 277T240 321H396V335Q396 382 365 408T275 434Q199 434 116 384L69 474Q132 509 183 524T304 540Q408 540 465 490T524 350L525
0H397ZM311 94T351 120T396 186V234H261Q209 234 185 219T160 168Q160 134 185 114T255 94Q311 94 351 120Z" />
<glyph unicode="b" glyph-name="b" horiz-adv-x="681" d="M471 539T528 505T617 408T649 265Q649 185 618 124T530 29T398 -5Q338 -5 292 18T216 87V0H86V742H216V447Q245 492 290 515T396 539Q471 539 528 505ZM433 107T475 152T517 269Q517 340 475 385T367
430Q300 430 258 385T216 269Q216 197 258 152T367 107Q433 107 475 152Z" />
<glyph unicode="c" glyph-name="c" horiz-adv-x="564" d="M395 425T309 425Q244 425 204 381T163 267Q163 195 203 151T309 107Q405 107 453 170L534 103Q498 51 439 23T302 -5Q223 -5 162 29T66 124T32 266Q32 347 66 409T162 505T304 539Q377 539 434 514T528
441L449 366Q395 425 309 425Z" />
<glyph unicode="d" glyph-name="d" horiz-adv-x="683" d="M597 742V0H467V86Q438 41 393 18T287 -6Q211 -6 154 28T64 125T32 269Q32 349 63 410T152 506T284 540Q345 540 391 516T467 447V742H597ZM382 103T424 148T467 266Q467 338 425 383T315 429Q248 429
206 384T163 266Q164 194 206 149T315 103Q382 103 424 148Z" />
<glyph unicode="e" glyph-name="e" horiz-adv-x="592" d="M432 539T496 466T561 261Q561 235 560 222H165Q178 165 218 133T318 100Q359 100 396 115T462 160L532 87Q492 43 435 19T307 -5Q225 -5 163 29T66 124T32 266Q32 346 66 408T163 504T304 539Q432 539
496 466ZM442 309Q440 368 403 403T305 438Q248 438 210 404T162 309H442Z" />
<glyph unicode="f" glyph-name="f" horiz-adv-x="365" d="M274 636T255 619T235 568V513H369V418H235V0H105V418H35V513H105V564Q105 623 131 664T200 727T295 748Q345 748 393 725L370 620Q330 636 304 636Q274 636 255 619Z" />
<glyph unicode="g" glyph-name="g" horiz-adv-x="642" d="M570 535V51Q570 -25 536 -81T438 -168T290 -199Q168 -199 64 -128L116 -34Q192 -90 283 -90Q355 -90 397 -53T440 48V111Q413 70 370 49T270 27Q200 27 146 59T62 150T32 285Q32 360 62 417T146 507T270
539Q326 539 369 517T440 455V535H570ZM361 129T400 171T440 282Q440 350 401 392T298 435Q235 435 196 392T155 282Q156 214 195 172T298 129Q361 129 400 171Z" />
<glyph unicode="h" glyph-name="h" horiz-adv-x="672" d="M501 540T554 485T607 334V0H476V296Q476 352 444 384T357 417Q292 416 254 373T216 263V0H86V742H216V433Q271 538 409 540Q501 540 554 485Z" />
<glyph unicode="i" glyph-name="i" horiz-adv-x="291" d="M81 535H211V0H81V535ZM177 765T198 743T219 687Q219 654 198 632T145 610Q113 610 92 632T71 687Q71 721 92 743T145 765Q177 765 198 743Z" />
<glyph unicode="j" glyph-name="j" horiz-adv-x="284" d="M-10 -89T13 -90Q46 -91 63 -69T81 -3V535H211V-23Q211 -106 167 -152T43 -199Q-12 -199 -61 -179L-33 -81Q-10 -89 13 -90ZM177 765T198 743T219 687Q219 654 198 632T145 610Q113 610 92 632T71 687Q71
721 92 743T145 765Q177 765 198 743Z" />
<glyph unicode="k" glyph-name="k" horiz-adv-x="605" d="M443 0L298 234L216 148V0H86V742H216V312L436 534H586L388 328L598 0H443Z" />
<glyph unicode="l" glyph-name="l" horiz-adv-x="302" d="M86 742H216V0H86V742Z" />
<glyph unicode="m" glyph-name="m" horiz-adv-x="1041" d="M873 540T925 485T977 334V0H846V296Q846 353 815 385T729 418Q667 416 631 373T594 264V0H463V296Q463 353 432 385T347 418Q284 416 248 373T211 264V0H81V535H211V436Q264 538 399 540Q469 540 516
507T583 412Q634 538 782 540Q873 540 925 485Z" />
<glyph unicode="n" glyph-name="n" horiz-adv-x="666" d="M495 540T548 485T601 334V0H470V296Q470 352 438 384T351 417Q286 416 249 373T211 263V0H81V535H211V435Q266 538 403 540Q495 540 548 485Z" />
<glyph unicode="o" glyph-name="o" horiz-adv-x="628" d="M398 539T461 505T560 410T596 268Q596 187 561 125T462 29T315 -5Q231 -5 167 29T68 125T32 268Q32 348 67 409T167 505T315 539Q398 539 461 505ZM247 428T205 383T163 266Q163 194 205 149T315 104Q381
104 423 149T465 266Q465 338 423 383T315 428Q247 428 205 383Z" />
<glyph unicode="p" glyph-name="p" horiz-adv-x="681" d="M471 539T528 505T617 408T649 265Q649 185 618 124T530 29T398 -5Q338 -5 292 18T216 87V-194H86V535H216V447Q245 492 290 515T396 539Q471 539 528 505ZM433 107T475 152T517 269Q517 340 475 385T367
430Q300 430 258 385T216 269Q216 197 258 152T367 107Q433 107 475 152Z" />
<glyph unicode="q" glyph-name="q" horiz-adv-x="683" d="M597 535V-194H467V86Q438 41 393 18T287 -6Q211 -6 154 28T64 125T32 269Q32 349 63 410T152 506T284 540Q345 540 391 516T467 447V535H597ZM382 103T424 148T467 266Q467 338 425 383T315 429Q248 429
206 384T163 266Q164 194 206 149T315 103Q382 103 424 148Z" />
<glyph unicode="r" glyph-name="r" horiz-adv-x="403" d="M238 484T284 511T393 540V414Q310 419 261 376T211 258V0H81V535H211V432Q238 484 284 511Z" />
<glyph unicode="s" glyph-name="s" horiz-adv-x="482" d="M359 413T318 426T241 439Q208 439 189 428T169 392Q169 367 193 354T271 325Q327 308 363 292T425 243T452 157Q452 79 392 37T241 -5Q179 -5 120 14T20 70L65 161Q101 130 151 113T246 95Q282 95 303
107T325 145Q325 173 300 187T219 218Q165 234 131 249T72 296T47 379Q47 458 104 499T249 541Q302 541 353 526T445 484L398 390Q359 413 318 426Z" />
<glyph unicode="t" glyph-name="t" horiz-adv-x="415" d="M394 33Q330 -6 260 -6Q191 -6 147 34T103 154V418H28L27 513H103V660H232V513H385V418H232V177Q232 140 246 125T288 109Q318 109 364 131L394 33Z" />
<glyph unicode="u" glyph-name="u" horiz-adv-x="656" d="M575 535V0H444V99Q390 -5 258 -5Q168 -5 116 50T64 200V535H195V238Q195 182 225 150T310 118Q372 119 408 162T444 271V535H575Z" />
<glyph unicode="v" glyph-name="v" horiz-adv-x="537" d="M-1 534L135 535L275 128L412 535H543L339 0H205L-1 534Z" />
<glyph unicode="w" glyph-name="w" horiz-adv-x="905" d="M-1 534L133 535L264 131L391 535H522L651 131L779 535H910L716 0H583L455 377L328 0H195L-1 534Z" />
<glyph unicode="x" glyph-name="x" horiz-adv-x="568" d="M24 535H174L285 361L399 535H542L372 274L554 0H404L285 187L156 0H11L198 274L24 535Z" />
<glyph unicode="y" glyph-name="y" horiz-adv-x="544" d="M285 -133T239 -166T128 -200Q89 -200 58 -189T-5 -152L51 -53Q70 -67 86 -73T120 -80Q173 -80 198 -26L214 9L-7 535H128L280 146L419 535H550L310 -67Q285 -133 239 -166Z" />
<glyph unicode="z" glyph-name="z" horiz-adv-x="541" d="M52 534H498V448L204 106L506 105V-1L42 0V86L336 428L52 429V534Z" />
<glyph unicode="{" glyph-name="braceleft" horiz-adv-x="350" d="M232 376T216 358T174 326T140 309L159 299Q188 284 202 274T224 246T232 196V46Q232 9 252 -6T325 -22V-126H275Q188 -126 151 -96T114 6V205Q114 232 105 243T73 255H40V362H73Q95 362 104 373T114
412V611Q114 683 151 713T275 743H325V639Q273 639 253 624T232 571V420Q232 376 216 358Z" />
<glyph unicode="|" glyph-name="bar" horiz-adv-x="277" d="M89 808H188V-114H89V808Z" />
<glyph unicode="}" glyph-name="braceright" horiz-adv-x="350" d="M310 362V255H277Q255 255 246 244T236 205V6Q236 -66 199 -96T75 -126H25V-22Q77 -22 97 -7T118 46V196Q118 227 126 245T148 274T191 299L210 309Q201 313 171 328T130 365T118 420V571Q118
608 98 623T25 639V743H75Q162 743 199 713T236 611V412Q236 385 245 374T277 362H310Z" />
<glyph unicode="~" glyph-name="asciitilde" horiz-adv-x="501" d="M438 245T338 245Q312 245 290 254T244 278Q223 289 212 294T190 299Q153 299 153 250H64Q64 401 165 401Q189 401 209 393T257 368Q278 356 289 351T312 346Q349 346 349 395H438Q438 245 338 245Z" />
<glyph unicode="&#xa0;" glyph-name="uni00A0" horiz-adv-x="245" />
<glyph unicode="&#xa1;" glyph-name="exclamdown" horiz-adv-x="222" d="M95 399T76 419T56 470Q56 502 75 522T125 543Q154 543 173 522T193 470Q193 439 174 419T125 399Q95 399 76 419ZM187 -159H62V15L84 306H165L187 15V-159Z" />
<glyph unicode="&#xa2;" glyph-name="cent" horiz-adv-x="600" d="M473 15T356 -1V-145H257V-2Q190 7 139 43T60 137T32 266Q32 375 93 448T257 536V689H356V535Q411 528 455 504T528 441L449 366Q395 425 309 425Q244 425 204 381T163 267Q163 195 203 151T309
107Q405 107 453 170L534 103Q473 15 356 -1Z" />
<glyph unicode="&#xa3;" glyph-name="sterling" horiz-adv-x="551" d="M250 109H524V0H35V109H116V318H35V380H116V480Q116 588 173 647T336 706Q394 706 446 683T537 617L485 513Q420 586 349 586Q301 586 276 559T250 477V380H424V318H250V109Z" />
<glyph unicode="&#xa4;" glyph-name="currency" horiz-adv-x="708" d="M621 241T575 174L676 73L602 -5L496 100Q431 59 354 59Q277 59 212 100L106 -5L32 73L133 174Q88 242 88 320Q88 398 131 463L32 562L106 641L208 539Q275 582 354 582Q433 582 500 539L602
641L676 562L577 463Q621 399 621 320Q621 241 575 174ZM398 169T436 189T496 244T518 320Q518 361 496 396T436 452T354 473Q310 473 273 453T213 397T191 320Q191 279 213 245T272 190T354 169Q398 169 436 189Z" />
<glyph unicode="&#xa5;" glyph-name="yen" horiz-adv-x="650" d="M650 700L437 308H592V245H403L395 230V189H592V126H395V0H260V126H62V189H260V226L249 245H62V308H215L0 700H135L327 371L514 700H650Z" />
<glyph unicode="&#xa6;" glyph-name="brokenbar" horiz-adv-x="277" d="M89 808H188V463H89V808ZM89 231H188V-114H89V231Z" />
<glyph unicode="&#xa7;" glyph-name="section" horiz-adv-x="511" d="M336 602T266 602Q226 602 203 588T179 550Q179 520 207 504T298 469Q356 451 392 435T455 387T482 306Q482 263 452 227T377 176Q420 156 439 132T458 66Q458 22 432 -12T357 -66T247 -86Q185
-86 126 -67T20 -10L58 75Q103 42 151 25T244 7Q286 7 312 23T339 63Q339 92 311 107T222 143Q164 162 128 178T65 226T39 305Q39 351 70 384T157 433Q105 456 85 481T64 545Q64 588 88 622T159 675T265 694Q370 694 464 638L423 554Q336 602 266 602ZM202 368T178
354T154 313Q154 282 188 262T274 242Q318 242 341 257T365 299Q365 329 332 348T247 368Q202 368 178 354Z" />
<glyph unicode="&#xa8;" glyph-name="dieresis" horiz-adv-x="382" d="M142 751T160 732T178 684Q178 655 160 637T114 618Q86 618 68 636T50 684Q50 713 68 732T114 751Q142 751 160 732ZM323 751T341 732T360 684Q360 656 342 637T295 618Q268 618 250 637T231
684Q231 713 249 732T295 751Q323 751 341 732Z" />
<glyph unicode="&#xa9;" glyph-name="copyright" horiz-adv-x="740" d="M463 689T540 644T663 520T708 350Q708 259 663 181T540 56T368 9Q275 9 198 55T76 179T31 348Q31 439 76 517T198 642T370 689Q463 689 540 644ZM294 623T231 586T131 485T94 348Q94 274
130 212T229 112T368 75Q445 75 508 112T608 212T645 350Q645 424 609 486T509 586T370 623Q294 623 231 586ZM449 437T425 448T377 460Q329 460 297 429T264 350Q264 303 296 271T377 239Q400 239 424 249T468 278L507 235Q481 209 445 194T373 178Q324 178 284
200T221 262T197 349Q197 396 220 435T285 496T376 519Q412 519 446 505T507 464L468 417Q449 437 425 448Z" />
<glyph unicode="&#xaa;" glyph-name="ordfeminine" horiz-adv-x="387" d="M251 458V505Q234 480 206 467T140 454Q89 454 59 480T29 551Q29 596 62 619T157 644H251V655Q250 681 232 695T179 709Q130 709 72 681L49 744Q131 780 199 780Q266 780 303 750T340 666L341
458H251ZM227 515T251 560V598H175Q147 598 132 588T116 559Q116 539 130 527T170 515Q227 515 251 560Z" />
<glyph unicode="&#xab;" glyph-name="guillemotleft" horiz-adv-x="469" d="M135 440H243L136 262L243 85H135L18 262L135 440ZM326 440H434L327 262L434 85H326L209 262L326 440Z" />
<glyph unicode="&#xac;" glyph-name="logicalnot" horiz-adv-x="566" d="M494 412V142H398V322H35V412H494Z" />
<glyph unicode="&#xad;" glyph-name="uni00AD" horiz-adv-x="370" d="M59 350H310V260H59V350Z" />
<glyph unicode="&#xae;" glyph-name="registered" horiz-adv-x="740" d="M463 689T540 644T663 520T708 350Q708 259 663 181T540 56T368 9Q275 9 198 55T76 179T31 348Q31 439 76 517T198 642T370 689Q463 689 540 644ZM445 75T508 112T608 212T645 350Q645 424
609 486T509 586T370 623Q294 623 231 586T131 485T94 348Q94 274 130 212T229 112T368 75Q445 75 508 112ZM514 372T497 345T447 303L521 193H449L390 291H378H304V193H241V525H378Q443 525 478 496T514 411Q514 372 497 345ZM304 344H378Q414 344 434 361T454
410Q454 441 434 457T378 473H304V344Z" />
<glyph unicode="&#xaf;" glyph-name="overscore" horiz-adv-x="349" d="M26 726H325V643H26V726Z" />
<glyph unicode="&#xb0;" glyph-name="degree" horiz-adv-x="354" d="M246 812T281 778T316 696Q316 649 281 615T198 581Q150 581 116 615T81 696Q81 744 115 778T198 812Q246 812 281 778ZM172 756T154 739T135 696Q135 672 153 655T198 637Q224 637 243 654T262
696Q262 721 243 738T198 756Q172 756 154 739Z" />
<glyph unicode="&#xb1;" glyph-name="plusminus" horiz-adv-x="501" d="M293 438H467V350H293V183H208V350H35V438H208V606H293V438ZM35 14V104H467V14H35Z" />
<glyph unicode="&#xb2;" glyph-name="uni00B2" horiz-adv-x="364" d="M199 602T211 622T224 658Q224 678 209 689T165 700Q139 700 108 686T48 648L12 717Q94 778 180 778Q243 778 282 749T322 671Q322 610 241 534L141 434H338V360H22V423L178 582Q199 602 211 622Z" />
<glyph unicode="&#xb3;" glyph-name="uni00B3" horiz-adv-x="358" d="M268 594T299 565T330 488Q330 429 286 392T168 355Q126 355 84 368T14 402L52 476Q100 427 161 427Q197 427 217 443T238 487Q238 515 218 529T160 544H95V595L203 701H34V771H310V717L195
604L217 601Q268 594 299 565Z" />
<glyph unicode="&#xb4;" glyph-name="acute" horiz-adv-x="350" d="M167 760L292 709L164 606L63 616L167 760Z" />
<glyph unicode="&#xb5;" glyph-name="uni00B5" horiz-adv-x="677" d="M597 535V0H466V99Q412 -5 280 -5Q245 -5 216 4V-194H86V535H217V238Q217 182 247 150T332 118Q394 119 430 162T466 271V535H597Z" />
<glyph unicode="&#xb6;" glyph-name="paragraph" horiz-adv-x="625" d="M208 345T189 345Q119 345 76 376T16 451T-2 540Q-2 594 22 640T97 714T228 742H539V-108H439V662H317V-108H219V346Q208 345 189 345Z" />
<glyph unicode="&#xb7;" glyph-name="middot" horiz-adv-x="228" d="M146 365T167 343T188 287Q188 254 167 232T114 210Q82 210 61 232T40 287Q40 321 61 343T114 365Q146 365 167 343Z" />
<glyph unicode="&#xb8;" glyph-name="cedilla" horiz-adv-x="301" d="M218 0L198 -53Q240 -60 260 -81T280 -133Q280 -177 247 -200T161 -224Q112 -224 61 -203L85 -133Q116 -144 142 -144Q161 -144 172 -137T183 -120Q183 -109 170 -102T133 -95H103L137 8L218 0Z" />
<glyph unicode="&#xb9;" glyph-name="uni00B9" horiz-adv-x="245" d="M4 775H180V360H86V698H4V775Z" />
<glyph unicode="&#xba;" glyph-name="ordmasculine" horiz-adv-x="409" d="M283 779T332 735T381 617Q381 544 332 500T204 455Q125 455 76 499T27 617Q27 690 76 734T204 779Q283 779 332 735ZM166 704T143 680T119 616Q119 576 142 552T204 528Q242 528 265
552T289 616Q289 656 266 680T204 704Q166 704 143 680Z" />
<glyph unicode="&#xbb;" glyph-name="guillemotright" horiz-adv-x="479" d="M142 84H34L141 262L34 439H142L259 262L142 84ZM333 84H225L332 262L225 439H333L450 262L333 84Z" />
<glyph unicode="&#xbc;" glyph-name="onequarter" horiz-adv-x="781" d="M4 700H180V285H86V623H4V700ZM557 700H656L146 0H46L557 700ZM565 415H654L519 164H629V261H717V164H777V94H717V0H629V94H424V159L565 415Z" />
<glyph unicode="&#xbd;" glyph-name="onehalf" horiz-adv-x="815" d="M4 700H180V285H86V623H4V700ZM557 700H656L146 0H46L557 700ZM650 242T662 262T675 298Q675 318 660 329T616 340Q590 340 559 326T499 288L463 357Q545 418 631 418Q694 418 733 389T773
311Q773 250 692 174L592 74H789V0H473V63L629 222Q650 242 662 262Z" />
<glyph unicode="&#xbe;" glyph-name="threequarters" horiz-adv-x="864" d="M268 521T299 492T330 415Q330 356 286 319T168 282Q126 282 84 295T14 329L52 403Q100 354 161 354Q197 354 217 370T238 414Q238 442 218 456T160 471H95V522L203 628H34V698H310V644L195
531L217 528Q268 521 299 492ZM640 700H739L229 0H129L640 700ZM648 415H737L602 164H712V261H800V164H860V94H800V0H712V94H507V159L648 415Z" />
<glyph unicode="&#xbf;" glyph-name="questiondown" horiz-adv-x="451" d="M208 399T189 419T169 470Q169 502 188 522T238 543Q267 543 286 522T306 470Q306 439 287 419T238 399Q208 399 189 419ZM427 -53T370 -108T216 -164Q122 -164 67 -120T11 6Q11 44 24
73T55 122T104 169Q145 204 165 232T186 303H286Q286 263 274 233T246 184T200 138Q166 107 150 84T134 26Q134 -13 158 -32T227 -52Q273 -52 299 -28T327 45H428Q427 -53 370 -108Z" />
<glyph unicode="&#xc0;" glyph-name="Agrave" horiz-adv-x="747" d="M604 0L542 148H200L138 0H-1L306 700H445L748 0H604ZM248 263H494L372 557L248 263ZM330 910L431 766L329 756L205 859L330 910Z" />
<glyph unicode="&#xc1;" glyph-name="Aacute" horiz-adv-x="747" d="M604 0L542 148H200L138 0H-1L306 700H445L748 0H604ZM248 263H494L372 557L248 263ZM412 910L537 859L409 756L308 766L412 910Z" />
<glyph unicode="&#xc2;" glyph-name="Acircumflex" horiz-adv-x="747" d="M604 0L542 148H200L138 0H-1L306 700H445L748 0H604ZM248 263H494L372 557L248 263ZM545 761H429L374 824L319 761H203L311 905H437L545 761Z" />
<glyph unicode="&#xc3;" glyph-name="Atilde" horiz-adv-x="747" d="M604 0L542 148H200L138 0H-1L306 700H445L748 0H604ZM248 263H494L372 557L248 263ZM541 757T453 757Q431 757 411 765T365 787Q333 805 320 805Q305 805 299 794T293 760H210Q210 901 297
901Q319 901 339 893T385 871Q417 853 430 853Q445 853 451 864T457 897H541Q541 757 453 757Z" />
<glyph unicode="&#xc4;" glyph-name="Adieresis" horiz-adv-x="747" d="M604 0L542 148H200L138 0H-1L306 700H445L748 0H604ZM248 263H494L372 557L248 263ZM311 891T329 872T348 824Q348 796 330 777T284 757Q256 757 238 776T219 824Q219 853 237 872T284 891Q311
891 329 872ZM493 891T511 872T529 824Q529 796 511 777T465 757Q437 757 419 776T400 824Q400 853 418 872T465 891Q493 891 511 872Z" />
<glyph unicode="&#xc5;" glyph-name="Aring" horiz-adv-x="747" d="M604 0L542 148H200L138 0H-1L306 700H445L748 0H604ZM248 263H494L372 557L248 263ZM420 969T453 936T487 857Q487 811 454 778T374 744Q327 744 294 777T261 857Q261 903 294 936T374 969Q420
969 453 936ZM354 905T339 891T324 857Q324 837 339 823T374 809Q394 809 409 823T424 857Q424 876 409 890T374 905Q354 905 339 891Z" />
<glyph unicode="&#xc6;" glyph-name="AE" horiz-adv-x="1065" d="M624 117H1015V0H491V164H231L140 0H-1L404 700H1003V583H624V410H965V293H624V117ZM290 269H491V590H468L290 269Z" />
<glyph unicode="&#xc7;" glyph-name="Ccedilla" horiz-adv-x="696" d="M623 62T560 31T431 -8L414 -53Q456 -60 476 -81T496 -133Q496 -177 463 -200T377 -224Q328 -224 277 -203L301 -133Q332 -144 358 -144Q377 -144 388 -137T399 -120Q399 -109 386 -102T349
-95H319L348 -7Q258 4 186 53T72 181T31 351Q31 451 80 533T213 662T401 709Q476 709 548 679T671 596L593 498Q556 541 506 565T403 589Q338 589 284 558T199 473T168 353Q168 288 199 234T284 148T403 116Q453 116 503 138T593 199L672 111Q623 62 560 31Z" />
<glyph unicode="&#xc8;" glyph-name="Egrave" horiz-adv-x="661" d="M86 700H599V583H220V410H560V293H220V117H611V0H86V700ZM307 910L408 766L306 756L182 859L307 910Z" />
<glyph unicode="&#xc9;" glyph-name="Eacute" horiz-adv-x="661" d="M86 700H599V583H220V410H560V293H220V117H611V0H86V700ZM389 910L514 859L386 756L285 766L389 910Z" />
<glyph unicode="&#xca;" glyph-name="Ecircumflex" horiz-adv-x="661" d="M86 700H599V583H220V410H560V293H220V117H611V0H86V700ZM522 761H406L351 824L296 761H180L288 905H414L522 761Z" />
<glyph unicode="&#xcb;" glyph-name="Edieresis" horiz-adv-x="661" d="M86 700H599V583H220V410H560V293H220V117H611V0H86V700ZM288 891T306 872T325 824Q325 796 307 777T261 757Q233 757 215 776T196 824Q196 853 214 872T261 891Q288 891 306 872ZM470 891T488
872T506 824Q506 796 488 777T442 757Q414 757 396 776T377 824Q377 853 395 872T442 891Q470 891 488 872Z" />
<glyph unicode="&#xcc;" glyph-name="Igrave" horiz-adv-x="306" d="M86 700H220V0H86V700ZM109 910L210 766L108 756L-16 859L109 910Z" />
<glyph unicode="&#xcd;" glyph-name="Iacute" horiz-adv-x="306" d="M86 700H220V0H86V700ZM191 910L316 859L188 756L87 766L191 910Z" />
<glyph unicode="&#xce;" glyph-name="Icircumflex" horiz-adv-x="306" d="M86 700H220V0H86V700ZM324 761H208L153 824L98 761H-18L90 905H216L324 761Z" />
<glyph unicode="&#xcf;" glyph-name="Idieresis" horiz-adv-x="306" d="M86 700H220V0H86V700ZM90 891T108 872T127 824Q127 796 109 777T63 757Q35 757 17 776T-2 824Q-2 853 16 872T63 891Q90 891 108 872ZM272 891T290 872T308 824Q308 796 290 777T244 757Q216
757 198 776T179 824Q179 853 197 872T244 891Q272 891 290 872Z" />
<glyph unicode="&#xd0;" glyph-name="Eth" horiz-adv-x="773" d="M482 700T565 656T694 531T741 350Q741 249 694 170T563 45T373 0H86V314H15V387H86V700H377Q482 700 565 656ZM444 118T495 147T576 229T606 349Q606 416 576 469T492 552T374 582H220V387H409V314H220V118H380Q444
118 495 147Z" />
<glyph unicode="&#xd1;" glyph-name="Ntilde" horiz-adv-x="790" d="M574 700H704V0H577L217 482V0H86V700H213L574 217V700ZM571 757T483 757Q461 757 441 765T395 787Q363 805 350 805Q335 805 329 794T323 760H240Q240 901 327 901Q349 901 369 893T415 871Q447
853 460 853Q475 853 481 864T487 897H571Q571 757 483 757Z" />
<glyph unicode="&#xd2;" glyph-name="Ograve" horiz-adv-x="809" d="M508 709T593 662T728 533T777 351Q777 251 728 169T594 38T404 -10Q300 -10 215 38T80 168T31 351Q31 451 80 533T214 662T404 709Q508 709 593 662ZM342 589T287 558T200 472T168 351Q168
285 200 230T287 143T406 111Q469 111 523 143T608 230T640 351Q640 417 609 471T523 557T406 589Q342 589 287 558ZM360 910L461 766L359 756L235 859L360 910Z" />
<glyph unicode="&#xd3;" glyph-name="Oacute" horiz-adv-x="809" d="M508 709T593 662T728 533T777 351Q777 251 728 169T594 38T404 -10Q300 -10 215 38T80 168T31 351Q31 451 80 533T214 662T404 709Q508 709 593 662ZM342 589T287 558T200 472T168 351Q168
285 200 230T287 143T406 111Q469 111 523 143T608 230T640 351Q640 417 609 471T523 557T406 589Q342 589 287 558ZM442 910L567 859L439 756L338 766L442 910Z" />
<glyph unicode="&#xd4;" glyph-name="Ocircumflex" horiz-adv-x="809" d="M508 709T593 662T728 533T777 351Q777 251 728 169T594 38T404 -10Q300 -10 215 38T80 168T31 351Q31 451 80 533T214 662T404 709Q508 709 593 662ZM342 589T287 558T200 472T168 351Q168
285 200 230T287 143T406 111Q469 111 523 143T608 230T640 351Q640 417 609 471T523 557T406 589Q342 589 287 558ZM575 761H459L404 824L349 761H233L341 905H467L575 761Z" />
<glyph unicode="&#xd5;" glyph-name="Otilde" horiz-adv-x="809" d="M508 709T593 662T728 533T777 351Q777 251 728 169T594 38T404 -10Q300 -10 215 38T80 168T31 351Q31 451 80 533T214 662T404 709Q508 709 593 662ZM342 589T287 558T200 472T168 351Q168
285 200 230T287 143T406 111Q469 111 523 143T608 230T640 351Q640 417 609 471T523 557T406 589Q342 589 287 558ZM571 757T483 757Q461 757 441 765T395 787Q363 805 350 805Q335 805 329 794T323 760H240Q240 901 327 901Q349 901 369 893T415 871Q447 853
460 853Q475 853 481 864T487 897H571Q571 757 483 757Z" />
<glyph unicode="&#xd6;" glyph-name="Odieresis" horiz-adv-x="809" d="M508 709T593 662T728 533T777 351Q777 251 728 169T594 38T404 -10Q300 -10 215 38T80 168T31 351Q31 451 80 533T214 662T404 709Q508 709 593 662ZM342 589T287 558T200 472T168 351Q168
285 200 230T287 143T406 111Q469 111 523 143T608 230T640 351Q640 417 609 471T523 557T406 589Q342 589 287 558ZM341 891T359 872T378 824Q378 796 360 777T314 757Q286 757 268 776T249 824Q249 853 267 872T314 891Q341 891 359 872ZM523 891T541 872T559
824Q559 796 541 777T495 757Q467 757 449 776T430 824Q430 853 448 872T495 891Q523 891 541 872Z" />
<glyph unicode="&#xd7;" glyph-name="multiply" horiz-adv-x="501" d="M433 447L312 325L433 203L373 140L251 263L128 140L68 203L189 325L68 447L128 510L251 387L373 510L433 447Z" />
<glyph unicode="&#xd8;" glyph-name="Oslash" horiz-adv-x="809" d="M703 579T740 507T777 349Q777 250 728 169T594 40T404 -7Q318 -7 243 26L190 -55H87L169 70Q104 119 68 191T31 349Q31 448 80 529T214 656T404 703Q490 703 563 671L618 755H721L638 628Q703
579 740 507ZM168 300T187 256T241 179L494 566Q452 583 406 583Q342 583 287 552T200 468T168 349Q168 300 187 256ZM469 113T523 144T608 230T640 349Q640 399 621 443T567 520L313 132Q357 113 406 113Q469 113 523 144Z" />
<glyph unicode="&#xd9;" glyph-name="Ugrave" horiz-adv-x="756" d="M207 205T254 158T380 111Q459 111 504 158T550 288V700H684V288Q684 197 647 130T542 26T380 -10Q286 -10 217 26T110 129T73 288V700H207V288Q207 205 254 158ZM335 910L436 766L334 756L210
859L335 910Z" />
<glyph unicode="&#xda;" glyph-name="Uacute" horiz-adv-x="756" d="M207 205T254 158T380 111Q459 111 504 158T550 288V700H684V288Q684 197 647 130T542 26T380 -10Q286 -10 217 26T110 129T73 288V700H207V288Q207 205 254 158ZM417 910L542 859L414 756L313
766L417 910Z" />
<glyph unicode="&#xdb;" glyph-name="Ucircumflex" horiz-adv-x="756" d="M207 205T254 158T380 111Q459 111 504 158T550 288V700H684V288Q684 197 647 130T542 26T380 -10Q286 -10 217 26T110 129T73 288V700H207V288Q207 205 254 158ZM550 761H434L379 824L324
761H208L316 905H442L550 761Z" />
<glyph unicode="&#xdc;" glyph-name="Udieresis" horiz-adv-x="756" d="M207 205T254 158T380 111Q459 111 504 158T550 288V700H684V288Q684 197 647 130T542 26T380 -10Q286 -10 217 26T110 129T73 288V700H207V288Q207 205 254 158ZM316 891T334 872T353 824Q353
796 335 777T289 757Q261 757 243 776T224 824Q224 853 242 872T289 891Q316 891 334 872ZM498 891T516 872T534 824Q534 796 516 777T470 757Q442 757 424 776T405 824Q405 853 423 872T470 891Q498 891 516 872Z" />
<glyph unicode="&#xdd;" glyph-name="Yacute" horiz-adv-x="649" d="M649 700L394 229V0H260V224L-1 700H135L326 371L514 700H649ZM362 910L487 859L359 756L258 766L362 910Z" />
<glyph unicode="&#xde;" glyph-name="Thorn" horiz-adv-x="681" d="M502 603T579 542T657 367Q657 249 580 184T360 119H220V0H86V700H220V603H360Q502 603 579 542ZM436 229T477 263T519 363Q519 426 478 459T355 493H220V229H355Q436 229 477 263Z" />
<glyph unicode="&#xdf;" glyph-name="germandbls" horiz-adv-x="656" d="M73 568T104 626T193 716T332 748Q403 748 457 724T541 656T572 552Q572 496 542 450T461 382Q530 366 571 323T612 212Q612 150 579 102T486 27T345 0H295V100H350Q412 100 448 130T485
210Q485 261 443 289T328 318H314V418Q375 418 410 448T445 533Q445 584 414 613T331 643Q271 643 237 605T202 499V0H73V489Q73 568 104 626Z" />
<glyph unicode="&#xe0;" glyph-name="agrave" horiz-adv-x="590" d="M397 0V65Q369 30 325 12T224 -6Q168 -6 126 15T60 75T37 160Q37 235 90 277T240 321H396V335Q396 382 365 408T275 434Q199 434 116 384L69 474Q132 509 183 524T304 540Q408 540 465 490T524
350L525 0H397ZM311 94T351 120T396 186V234H261Q209 234 185 219T160 168Q160 134 185 114T255 94Q311 94 351 120ZM250 760L351 616L249 606L125 709L250 760Z" />
<glyph unicode="&#xe1;" glyph-name="aacute" horiz-adv-x="590" d="M397 0V65Q369 30 325 12T224 -6Q168 -6 126 15T60 75T37 160Q37 235 90 277T240 321H396V335Q396 382 365 408T275 434Q199 434 116 384L69 474Q132 509 183 524T304 540Q408 540 465 490T524
350L525 0H397ZM311 94T351 120T396 186V234H261Q209 234 185 219T160 168Q160 134 185 114T255 94Q311 94 351 120ZM331 760L456 709L328 606L227 616L331 760Z" />
<glyph unicode="&#xe2;" glyph-name="acircumflex" horiz-adv-x="590" d="M397 0V65Q369 30 325 12T224 -6Q168 -6 126 15T60 75T37 160Q37 235 90 277T240 321H396V335Q396 382 365 408T275 434Q199 434 116 384L69 474Q132 509 183 524T304 540Q408 540 465
490T524 350L525 0H397ZM311 94T351 120T396 186V234H261Q209 234 185 219T160 168Q160 134 185 114T255 94Q311 94 351 120ZM464 613H348L293 676L238 613H122L230 757H356L464 613Z" />
<glyph unicode="&#xe3;" glyph-name="atilde" horiz-adv-x="590" d="M397 0V65Q369 30 325 12T224 -6Q168 -6 126 15T60 75T37 160Q37 235 90 277T240 321H396V335Q396 382 365 408T275 434Q199 434 116 384L69 474Q132 509 183 524T304 540Q408 540 465 490T524
350L525 0H397ZM311 94T351 120T396 186V234H261Q209 234 185 219T160 168Q160 134 185 114T255 94Q311 94 351 120ZM460 602T372 602Q350 602 330 610T284 632Q252 650 239 650Q224 650 218 639T212 605H129Q129 746 216 746Q238 746 258 738T304 716Q336 698
349 698Q364 698 370 709T376 742H460Q460 602 372 602Z" />
<glyph unicode="&#xe4;" glyph-name="adieresis" horiz-adv-x="590" d="M397 0V65Q369 30 325 12T224 -6Q168 -6 126 15T60 75T37 160Q37 235 90 277T240 321H396V335Q396 382 365 408T275 434Q199 434 116 384L69 474Q132 509 183 524T304 540Q408 540 465 490T524
350L525 0H397ZM311 94T351 120T396 186V234H261Q209 234 185 219T160 168Q160 134 185 114T255 94Q311 94 351 120ZM231 751T249 732T267 684Q267 655 249 637T203 618Q175 618 157 636T139 684Q139 713 157 732T203 751Q231 751 249 732ZM412 751T430 732T449
684Q449 656 431 637T384 618Q357 618 339 637T320 684Q320 713 338 732T384 751Q412 751 430 732Z" />
<glyph unicode="&#xe5;" glyph-name="aring" horiz-adv-x="590" d="M397 0V65Q369 30 325 12T224 -6Q168 -6 126 15T60 75T37 160Q37 235 90 277T240 321H396V335Q396 382 365 408T275 434Q199 434 116 384L69 474Q132 509 183 524T304 540Q408 540 465 490T524
350L525 0H397ZM311 94T351 120T396 186V234H261Q209 234 185 219T160 168Q160 134 185 114T255 94Q311 94 351 120ZM339 804T372 771T406 692Q406 646 373 613T293 579Q246 579 213 612T180 692Q180 738 213 771T293 804Q339 804 372 771ZM273 740T258 726T243
692Q243 672 258 658T293 644Q313 644 328 658T343 692Q343 711 328 725T293 740Q273 740 258 726Z" />
<glyph unicode="&#xe6;" glyph-name="ae" horiz-adv-x="973" d="M531 192T553 163T611 117T687 100Q728 100 765 115T832 160L902 87Q860 42 803 19T677 -5Q600 -5 542 26T451 117Q420 56 363 25T226 -6Q141 -6 89 38T37 157Q37 230 90 269T241 309H398V337Q397
384 366 409T276 434Q193 434 101 384L69 477Q193 540 304 540Q367 540 414 522T489 467Q559 539 673 539Q756 539 818 502T912 396T941 238H530V225Q531 192 553 163ZM808 368T771 406T674 444Q617 444 577 407T529 307H810Q808 368 771 406ZM216 241T188 222T160
168Q160 130 186 108T256 85Q353 85 399 170L398 241H266Q216 241 188 222Z" />
<glyph unicode="&#xe7;" glyph-name="ccedilla" horiz-adv-x="564" d="M503 58T454 31T342 -3L323 -53Q365 -60 385 -81T405 -133Q405 -177 372 -200T286 -224Q237 -224 186 -203L210 -133Q241 -144 267 -144Q286 -144 297 -137T308 -120Q308 -109 295 -102T258
-95H228L259 -2Q191 7 140 43T60 136T32 266Q32 347 66 409T162 505T304 539Q377 539 434 514T528 441L449 366Q395 425 309 425Q244 425 204 381T163 267Q163 195 203 151T309 107Q405 107 453 170L534 103Q503 58 454 31Z" />
<glyph unicode="&#xe8;" glyph-name="egrave" horiz-adv-x="592" d="M432 539T496 466T561 261Q561 235 560 222H165Q178 165 218 133T318 100Q359 100 396 115T462 160L532 87Q492 43 435 19T307 -5Q225 -5 163 29T66 124T32 266Q32 346 66 408T163 504T304 539Q432
539 496 466ZM442 309Q440 368 403 403T305 438Q248 438 210 404T162 309H442ZM256 759L357 615L255 605L131 708L256 759Z" />
<glyph unicode="&#xe9;" glyph-name="eacute" horiz-adv-x="592" d="M432 539T496 466T561 261Q561 235 560 222H165Q178 165 218 133T318 100Q359 100 396 115T462 160L532 87Q492 43 435 19T307 -5Q225 -5 163 29T66 124T32 266Q32 346 66 408T163 504T304 539Q432
539 496 466ZM442 309Q440 368 403 403T305 438Q248 438 210 404T162 309H442ZM337 759L462 708L334 605L233 615L337 759Z" />
<glyph unicode="&#xea;" glyph-name="ecircumflex" horiz-adv-x="592" d="M432 539T496 466T561 261Q561 235 560 222H165Q178 165 218 133T318 100Q359 100 396 115T462 160L532 87Q492 43 435 19T307 -5Q225 -5 163 29T66 124T32 266Q32 346 66 408T163 504T304
539Q432 539 496 466ZM442 309Q440 368 403 403T305 438Q248 438 210 404T162 309H442ZM470 612H354L299 675L244 612H128L236 756H362L470 612Z" />
<glyph unicode="&#xeb;" glyph-name="edieresis" horiz-adv-x="592" d="M432 539T496 466T561 261Q561 235 560 222H165Q178 165 218 133T318 100Q359 100 396 115T462 160L532 87Q492 43 435 19T307 -5Q225 -5 163 29T66 124T32 266Q32 346 66 408T163 504T304
539Q432 539 496 466ZM442 309Q440 368 403 403T305 438Q248 438 210 404T162 309H442ZM237 750T255 731T273 683Q273 654 255 636T209 617Q181 617 163 635T145 683Q145 712 163 731T209 750Q237 750 255 731ZM418 750T436 731T455 683Q455 655 437 636T390 617Q363
617 345 636T326 683Q326 712 344 731T390 750Q418 750 436 731Z" />
<glyph unicode="&#xec;" glyph-name="igrave" horiz-adv-x="291" d="M81 535H211V0H81V535ZM103 760L204 616L102 606L-22 709L103 760Z" />
<glyph unicode="&#xed;" glyph-name="iacute" horiz-adv-x="291" d="M81 535H211V0H81V535ZM184 760L309 709L181 606L80 616L184 760Z" />
<glyph unicode="&#xee;" glyph-name="icircumflex" horiz-adv-x="291" d="M81 535H211V0H81V535ZM317 613H201L146 676L91 613H-25L83 757H209L317 613Z" />
<glyph unicode="&#xef;" glyph-name="idieresis" horiz-adv-x="291" d="M81 535H211V0H81V535ZM92 751T110 732T129 684Q129 656 111 637T65 617Q37 617 19 636T0 684Q0 713 18 732T65 751Q92 751 110 732ZM257 751T275 732T293 684Q293 656 275 637T229 617Q201
617 183 636T164 684Q164 713 182 732T229 751Q257 751 275 732Z" />
<glyph unicode="&#xf0;" glyph-name="eth" horiz-adv-x="594" d="M482 539T522 451T563 271Q563 188 528 125T430 28T282 -6Q207 -6 151 22T63 103T32 225Q32 291 60 340T139 417T259 444Q314 444 361 424T432 369Q416 471 310 567L133 485L103 547L249 615Q190
657 117 689L204 748Q285 712 350 662L489 726L518 663L408 612Q482 539 522 451ZM350 109T387 141T424 228Q424 284 387 317T289 350Q229 350 193 318T157 232Q157 177 193 143T289 109Q350 109 387 141Z" />
<glyph unicode="&#xf1;" glyph-name="ntilde" horiz-adv-x="666" d="M495 540T548 485T601 334V0H470V296Q470 352 438 384T351 417Q286 416 249 373T211 263V0H81V535H211V435Q266 538 403 540Q495 540 548 485ZM515 602T427 602Q405 602 385 610T339 632Q307
650 294 650Q279 650 273 639T267 605H184Q184 746 271 746Q293 746 313 738T359 716Q391 698 404 698Q419 698 425 709T431 742H515Q515 602 427 602Z" />
<glyph unicode="&#xf2;" glyph-name="ograve" horiz-adv-x="628" d="M398 539T461 505T560 410T596 268Q596 187 561 125T462 29T315 -5Q231 -5 167 29T68 125T32 268Q32 348 67 409T167 505T315 539Q398 539 461 505ZM247 428T205 383T163 266Q163 194 205 149T315
104Q381 104 423 149T465 266Q465 338 423 383T315 428Q247 428 205 383ZM272 760L373 616L271 606L147 709L272 760Z" />
<glyph unicode="&#xf3;" glyph-name="oacute" horiz-adv-x="628" d="M398 539T461 505T560 410T596 268Q596 187 561 125T462 29T315 -5Q231 -5 167 29T68 125T32 268Q32 348 67 409T167 505T315 539Q398 539 461 505ZM247 428T205 383T163 266Q163 194 205 149T315
104Q381 104 423 149T465 266Q465 338 423 383T315 428Q247 428 205 383ZM353 760L478 709L350 606L249 616L353 760Z" />
<glyph unicode="&#xf4;" glyph-name="ocircumflex" horiz-adv-x="628" d="M398 539T461 505T560 410T596 268Q596 187 561 125T462 29T315 -5Q231 -5 167 29T68 125T32 268Q32 348 67 409T167 505T315 539Q398 539 461 505ZM247 428T205 383T163 266Q163 194 205
149T315 104Q381 104 423 149T465 266Q465 338 423 383T315 428Q247 428 205 383ZM486 613H370L315 676L260 613H144L252 757H378L486 613Z" />
<glyph unicode="&#xf5;" glyph-name="otilde" horiz-adv-x="628" d="M398 539T461 505T560 410T596 268Q596 187 561 125T462 29T315 -5Q231 -5 167 29T68 125T32 268Q32 348 67 409T167 505T315 539Q398 539 461 505ZM247 428T205 383T163 266Q163 194 205 149T315
104Q381 104 423 149T465 266Q465 338 423 383T315 428Q247 428 205 383ZM482 602T394 602Q372 602 352 610T306 632Q274 650 261 650Q246 650 240 639T234 605H151Q151 746 238 746Q260 746 280 738T326 716Q358 698 371 698Q386 698 392 709T398 742H482Q482
602 394 602Z" />
<glyph unicode="&#xf6;" glyph-name="odieresis" horiz-adv-x="628" d="M398 539T461 505T560 410T596 268Q596 187 561 125T462 29T315 -5Q231 -5 167 29T68 125T32 268Q32 348 67 409T167 505T315 539Q398 539 461 505ZM247 428T205 383T163 266Q163 194 205
149T315 104Q381 104 423 149T465 266Q465 338 423 383T315 428Q247 428 205 383ZM253 751T271 732T289 684Q289 655 271 637T225 618Q197 618 179 636T161 684Q161 713 179 732T225 751Q253 751 271 732ZM434 751T452 732T471 684Q471 656 453 637T406 618Q379
618 361 637T342 684Q342 713 360 732T406 751Q434 751 452 732Z" />
<glyph unicode="&#xf7;" glyph-name="divide" horiz-adv-x="501" d="M278 579T297 559T316 509Q316 480 297 461T250 441Q222 441 204 460T185 509Q185 540 203 559T250 579Q278 579 297 559ZM34 370H467V280H34V370ZM278 223T297 203T316 153Q316 124 297 105T250
85Q222 85 204 104T185 153Q185 184 203 203T250 223Q278 223 297 203Z" />
<glyph unicode="&#xf8;" glyph-name="oslash" horiz-adv-x="628" d="M546 443T571 389T596 268Q596 187 561 125T462 29T315 -5Q246 -5 187 20L111 -92H28L128 55Q82 91 57 145T32 268Q32 348 67 409T167 505T315 539Q384 539 442 514L519 627H602L501 479Q546
443 571 389ZM156 195T193 149L381 425Q348 438 315 438Q244 438 200 391T156 266Q156 195 193 149ZM385 93T429 141T473 266Q473 336 435 383L247 107Q278 93 315 93Q385 93 429 141Z" />
<glyph unicode="&#xf9;" glyph-name="ugrave" horiz-adv-x="656" d="M575 535V0H444V99Q390 -5 258 -5Q168 -5 116 50T64 200V535H195V238Q195 182 225 150T310 118Q372 119 408 162T444 271V535H575ZM285 760L386 616L284 606L160 709L285 760Z" />
<glyph unicode="&#xfa;" glyph-name="uacute" horiz-adv-x="656" d="M575 535V0H444V99Q390 -5 258 -5Q168 -5 116 50T64 200V535H195V238Q195 182 225 150T310 118Q372 119 408 162T444 271V535H575ZM366 760L491 709L363 606L262 616L366 760Z" />
<glyph unicode="&#xfb;" glyph-name="ucircumflex" horiz-adv-x="656" d="M575 535V0H444V99Q390 -5 258 -5Q168 -5 116 50T64 200V535H195V238Q195 182 225 150T310 118Q372 119 408 162T444 271V535H575ZM499 613H383L328 676L273 613H157L265 757H391L499 613Z" />
<glyph unicode="&#xfc;" glyph-name="udieresis" horiz-adv-x="656" d="M575 535V0H444V99Q390 -5 258 -5Q168 -5 116 50T64 200V535H195V238Q195 182 225 150T310 118Q372 119 408 162T444 271V535H575ZM266 751T284 732T302 684Q302 655 284 637T238 618Q210
618 192 636T174 684Q174 713 192 732T238 751Q266 751 284 732ZM447 751T465 732T484 684Q484 656 466 637T419 618Q392 618 374 637T355 684Q355 713 373 732T419 751Q447 751 465 732Z" />
<glyph unicode="&#xfd;" glyph-name="yacute" horiz-adv-x="544" d="M285 -133T239 -166T128 -200Q89 -200 58 -189T-5 -152L51 -53Q70 -67 86 -73T120 -80Q173 -80 198 -26L214 9L-7 535H128L280 146L419 535H550L310 -67Q285 -133 239 -166ZM312 760L437 709L309
606L208 616L312 760Z" />
<glyph unicode="&#xfe;" glyph-name="thorn" horiz-adv-x="681" d="M245 494T291 516T396 539Q471 539 528 505T617 408T649 265Q649 185 618 124T530 29T398 -5Q338 -5 292 18T216 84V-194H86V742H216V451Q245 494 291 516ZM300 430T258 385T216 269Q216 197
258 152T367 107Q433 107 475 152T517 269Q517 340 475 385T367 430Q300 430 258 385Z" />
<glyph unicode="&#xff;" glyph-name="ydieresis" horiz-adv-x="544" d="M285 -133T239 -166T128 -200Q89 -200 58 -189T-5 -152L51 -53Q70 -67 86 -73T120 -80Q173 -80 198 -26L214 9L-7 535H128L280 146L419 535H550L310 -67Q285 -133 239 -166ZM212 751T230
732T248 684Q248 655 230 637T184 618Q156 618 138 636T120 684Q120 713 138 732T184 751Q212 751 230 732ZM393 751T411 732T430 684Q430 656 412 637T365 618Q338 618 320 637T301 684Q301 713 319 732T365 751Q393 751 411 732Z" />
<glyph unicode="&#x2013;" glyph-name="endash" horiz-adv-x="406" d="M0 349H406V260H0V349Z" />
<glyph unicode="&#x2014;" glyph-name="emdash" horiz-adv-x="679" d="M0 349H679V260H0V349Z" />
<glyph unicode="&#x2018;" glyph-name="quoteleft" horiz-adv-x="221" d="M167 604T167 565Q167 534 148 515T100 495Q72 495 53 514T33 565Q33 580 37 592T51 621L114 742H179L137 623Q167 604 167 565Z" />
<glyph unicode="&#x2019;" glyph-name="quoteright" horiz-adv-x="221" d="M140 742T159 723T179 672Q179 657 175 645T161 616L98 495H33L75 614Q45 634 45 672Q45 703 64 722T112 742Q140 742 159 723Z" />
<glyph unicode="&#x201a;" glyph-name="quotesinglbase" horiz-adv-x="221" d="M140 133T159 114T179 63Q179 48 175 36T161 7L98 -114H33L75 5Q45 25 45 63Q45 94 64 113T112 133Q140 133 159 114Z" />
<glyph unicode="&#x201c;" glyph-name="quotedblleft" horiz-adv-x="380" d="M167 604T167 565Q167 534 148 515T100 495Q72 495 53 514T33 565Q33 580 37 592T51 621L114 742H179L137 623Q167 604 167 565ZM326 604T326 565Q326 534 307 515T259 495Q231 495
212 514T192 565Q192 580 196 592T210 621L273 742H338L296 623Q326 604 326 565Z" />
<glyph unicode="&#x201d;" glyph-name="quotedblright" horiz-adv-x="380" d="M140 742T159 723T179 672Q179 657 175 645T161 616L98 495H33L75 614Q45 634 45 672Q45 703 64 722T112 742Q140 742 159 723ZM299 742T318 723T338 672Q338 657 334 645T320 616L257
495H192L234 614Q204 634 204 672Q204 703 223 722T271 742Q299 742 318 723Z" />
<glyph unicode="&#x201e;" glyph-name="quotedblbase" horiz-adv-x="380" d="M140 133T159 114T179 63Q179 48 175 36T161 7L98 -114H33L75 5Q45 25 45 63Q45 94 64 113T112 133Q140 133 159 114ZM299 133T318 114T338 63Q338 48 334 36T320 7L257 -114H192L234
5Q204 25 204 63Q204 94 223 113T271 133Q299 133 318 114Z" />
<glyph unicode="&#x2022;" glyph-name="bullet" horiz-adv-x="293" d="M191 378T220 348T250 271Q250 224 221 193T146 162Q102 162 73 193T44 271Q44 317 73 347T146 378Q191 378 220 348Z" />
<glyph unicode="&#x2039;" glyph-name="guilsinglleft" horiz-adv-x="277" d="M135 440H243L136 262L243 85H135L18 262L135 440Z" />
<glyph unicode="&#x203a;" glyph-name="guilsinglright" horiz-adv-x="277" d="M142 84H34L141 262L34 439H142L259 262L142 84Z" />
</font>
</defs>
</svg>
