<?xml version="1.0" standalone="no"?>
<!DOCTYPE svg PUBLIC "-//W3C//DTD SVG 1.1//EN" "http://www.w3.org/Graphics/SVG/1.1/DTD/svg11.dtd">
<svg xmlns="http://www.w3.org/2000/svg">
<defs >
<font id="TenaliRamakrishna" horiz-adv-x="335" ><font-face
    font-family="Tenali Ramakrishna"
    units-per-em="750"
    panose-1="0 0 0 0 0 0 0 0 0 0"
    ascent="661"
    descent="-512"
    alphabetic="0" />
<glyph unicode=" " glyph-name="space" horiz-adv-x="195" />
<glyph unicode="!" glyph-name="exclam" horiz-adv-x="168" d="M116 367Q109 345 106 295L101 85H67L62 295Q62 330 52 367H116ZM70 -5T61 4T52 27T61 50T84 59T106 50T116 28T107 5T84 -5Z" />
<glyph unicode="&quot;" glyph-name="quotedbl" horiz-adv-x="221" d="M172 372Q165 339 165 272H129Q129 339 121 372H172ZM100 372Q92 336 92 272H56Q56 339 48 372H100Z" />
<glyph unicode="#" glyph-name="numbersign" horiz-adv-x="331" d="M138 209V155H192V209H138ZM108 239Q106 275 101 298H146Q139 269 139 239H192Q190 269 185 299H229Q223 268 223 239Q259 241 282 246V201Q262 206 223 209V155Q251 157 282 163V118Q253 124
223 124Q223 95 229 65H185Q191 96 192 125H138Q141 85 146 65H101Q106 88 108 124Q78 124 49 118V163Q79 157 108 155V209Q68 206 48 201V246Q76 241 108 239Z" />
<glyph unicode="$" glyph-name="dollar" horiz-adv-x="271" d="M149 -44H124V-4Q122 -5 118 -5Q67 -5 29 31V94H32Q42 73 55 59Q84 26 121 26H124V187L106 197Q47 230 47 289Q47 329 84 356Q101 367 124 371V411H149V372Q179 372 204 349V298H201Q199 301 198
305T194 313Q175 341 149 342V230L177 215Q246 179 246 110Q246 45 182 10Q167 2 149 -2V-44ZM124 340Q91 324 91 294T124 243V340ZM149 174V30Q168 36 181 52Q200 73 200 104Q200 146 159 168L149 174Z" />
<glyph unicode="%" glyph-name="percent" horiz-adv-x="382" d="M289 31Q300 43 300 68T289 105Q280 119 265 119Q250 119 240 105T229 68T239 31T265 17Q280 17 289 31ZM265 141Q296 141 315 119T334 68T315 17T264 -5T214 18Q196 37 196 68T214 118Q234 141
265 141ZM142 262Q153 276 153 299Q153 322 142 336Q133 349 118 349Q103 349 93 336Q82 325 82 300T93 262Q103 249 118 249Q133 249 142 262ZM168 349Q186 330 186 300T168 248T118 226T66 249Q48 272 48 300T67 350T118 372Q149 372 168 349ZM81 0Q103 28 119
63L226 298Q243 333 251 367H304Q276 326 268 304L160 70Q146 42 135 0H81Z" />
<glyph unicode="&amp;" glyph-name="ampersand" horiz-adv-x="441" d="M250 129L215 172Q198 196 166 196T112 172T90 110T109 50Q127 32 150 32T191 52L250 129ZM329 0Q318 31 295 65L268 103L237 62Q215 34 197 0H176Q105 0 76 26Q36 61 36 112T73 195Q89 210
114 219Q66 241 66 291Q66 331 103 357Q126 372 162 372T224 349V298H221Q219 301 217 305T213 313Q194 342 167 342T125 329T111 291Q111 245 164 226H238Q255 195 277 165L309 206Q334 240 348 268H405Q377 243 355 214L297 139L357 56Q375 30 405 0H329Z" />
<glyph unicode="&apos;" glyph-name="quotesingle" horiz-adv-x="148" d="M100 372Q92 336 92 272H56Q56 339 48 372H100Z" />
<glyph unicode="(" glyph-name="parenleft" horiz-adv-x="196" d="M160 429Q97 327 97 184T160 -61H129Q48 52 48 183Q48 314 129 429H160Z" />
<glyph unicode=")" glyph-name="parenright" horiz-adv-x="196" d="M67 429Q148 314 148 183Q148 52 67 -61H36Q99 41 99 184T36 429H67Z" />
<glyph unicode="*" glyph-name="asterisk" horiz-adv-x="295" d="M133 292Q133 329 125 367H170Q163 331 163 292Q199 311 224 336L246 297Q211 285 178 266Q221 243 246 235L224 196Q195 222 163 240Q163 196 170 165H125Q133 201 133 240Q100 224 71 196L48
235Q88 248 118 266Q91 280 48 297L71 336Q96 313 133 292Z" />
<glyph unicode="+" glyph-name="plus" horiz-adv-x="300" d="M132 210Q132 235 124 283H176Q169 245 169 210V200H178Q214 200 252 207V155Q216 163 178 163H169V153Q169 116 176 79H124Q132 127 132 153V163H122Q84 163 48 155V207Q85 200 122 200H132V210Z" />
<glyph unicode="," glyph-name="comma" horiz-adv-x="165" d="M87 69Q117 42 117 11Q117 -43 48 -71V-69Q75 -41 75 -5Q75 18 52 34L87 69Z" />
<glyph unicode="-" glyph-name="hyphen" horiz-adv-x="300" d="M122 163Q84 163 48 155V207Q85 200 122 200H178Q214 200 252 207V155Q216 163 178 163H122Z" />
<glyph unicode="." glyph-name="period" horiz-adv-x="161" d="M80 -5Q67 -5 58 4T48 27T58 50Q69 59 80 59T103 50Q111 40 111 27T103 4Q93 -5 80 -5Z" />
<glyph unicode="/" glyph-name="slash" horiz-adv-x="274" d="M2 -44Q27 -9 40 19L189 342Q206 382 212 411H271Q251 381 234 348L86 26Q73 2 61 -44H2Z" />
<glyph unicode="0" glyph-name="zero" horiz-adv-x="342" d="M80 39Q36 89 36 184T80 329Q117 372 171 372T261 329Q305 279 305 184T261 39Q224 -5 171 -5T80 39ZM114 303Q90 267 90 184T114 63Q138 26 172 26T228 63Q252 101 252 183Q252 265 228 303T170 342Q136
342 114 303Z" />
<glyph unicode="1" glyph-name="one" horiz-adv-x="185" d="M124 73Q124 48 132 0H69Q76 34 76 73V287Q76 307 74 325L21 273L2 296L69 360L132 372Q124 316 124 299V73Z" />
<glyph unicode="2" glyph-name="two" horiz-adv-x="304" d="M195 37Q232 37 268 45V0H29Q42 84 154 171Q209 213 209 262Q209 296 191 317Q168 342 136 342Q86 342 50 273H48V336Q85 372 138 372T223 344Q262 311 262 262Q262 195 171 138Q99 91 78 37H195Z" />
<glyph unicode="3" glyph-name="three" horiz-adv-x="279" d="M120 337Q89 337 47 330V367H226L231 337Q207 313 183 280L142 220Q181 220 212 195Q249 166 249 114T213 28T119 -5T25 31V94H27Q36 73 49 59Q79 26 116 26T176 50Q195 73 195 111T174 170Q148 194
105 194L92 211L180 337H120Z" />
<glyph unicode="4" glyph-name="four" horiz-adv-x="303" d="M238 73Q238 42 245 0H182Q190 40 190 73V88H15L5 118Q28 140 51 172L147 303Q169 333 182 367H245Q238 325 238 295V119Q247 121 256 122T274 125V88H238V73ZM190 118V314L48 118H190Z" />
<glyph unicode="5" glyph-name="five" horiz-adv-x="279" d="M222 330Q182 337 149 337H96L91 223Q107 226 121 226Q176 226 212 195T249 112T213 28T119 -5T25 31V94H27Q36 73 49 59Q79 26 116 26T174 48T195 111T173 173T114 196Q96 196 81 189L44 220L66 367H222V330Z" />
<glyph unicode="6" glyph-name="six" horiz-adv-x="328" d="M115 189Q95 161 95 121T116 53T171 26T224 55Q241 79 241 122Q241 165 224 189Q202 217 169 217T115 189ZM262 279H259Q228 342 187 342T118 306T90 208Q124 249 175 249T258 211T291 122T259 33T172
-5T80 39Q36 89 36 180T84 328Q121 372 177 372T262 342V279Z" />
<glyph unicode="7" glyph-name="seven" horiz-adv-x="249" d="M85 337Q56 337 12 330V367H222L227 337Q219 321 213 304T199 269L136 72Q125 39 123 0H59Q79 45 87 69L174 337H85Z" />
<glyph unicode="8" glyph-name="eight" horiz-adv-x="299" d="M167 226Q206 246 206 284Q206 311 191 326T155 342T118 330Q103 318 103 290T139 241L167 226ZM29 108Q29 174 100 209Q58 241 58 284T94 357Q116 372 151 372T213 348T241 280T195 210Q269 176 269
106Q269 61 235 27Q200 -5 149 -5T64 27Q29 59 29 108ZM132 190Q65 164 65 107Q65 71 89 49T147 26T202 47T223 103T170 168L132 190Z" />
<glyph unicode="9" glyph-name="nine" horiz-adv-x="328" d="M213 313Q191 342 157 342T105 314T87 244T104 179Q125 149 158 149T212 177T232 245T213 313ZM65 89H69Q99 26 144 26Q182 26 209 59Q238 97 238 160Q204 119 153 119T69 157T36 246T70 334Q101 372
156 372T247 329Q291 279 291 186T244 40Q207 -5 151 -5T65 26V89Z" />
<glyph unicode=":" glyph-name="colon" horiz-adv-x="161" d="M58 4Q49 15 49 27T58 50Q69 59 81 59T103 50Q112 41 112 28T103 5T81 -5T58 4ZM58 161Q48 170 48 183T57 206T80 215Q93 215 103 206Q111 197 111 183Q111 169 102 160T80 151Q67 151 58 161Z" />
<glyph unicode=";" glyph-name="semicolon" horiz-adv-x="165" d="M58 161Q48 170 48 183T57 206T80 215Q93 215 103 206Q111 197 111 183Q111 169 102 160T80 151Q67 151 58 161ZM87 69Q117 42 117 11Q117 -43 48 -71V-69Q75 -41 75 -5Q75 18 52 34L87 69Z" />
<glyph unicode="&lt;" glyph-name="less" horiz-adv-x="329" d="M48 202Q85 212 118 227L205 269Q238 285 268 306V242Q225 230 198 219L106 178L198 134Q237 114 268 109V56Q238 76 205 93L118 134Q85 151 48 159V202Z" />
<glyph unicode="=" glyph-name="equal" horiz-adv-x="300" d="M48 163Q82 155 122 155H178Q217 155 252 163V110Q217 118 178 118H122Q82 118 48 110V163ZM178 244Q204 244 252 252V200Q214 207 178 207H122Q85 207 48 200V252Q96 244 122 244H178Z" />
<glyph unicode="&gt;" glyph-name="greater" horiz-adv-x="329" d="M280 159Q243 149 210 134L124 93Q102 83 61 56V119Q104 131 130 144L223 183L130 228Q91 246 61 252V306Q92 283 124 269L210 227Q229 218 280 202V159Z" />
<glyph unicode="?" glyph-name="question" horiz-adv-x="290" d="M36 336Q73 372 128 372T220 339Q254 307 254 262Q254 206 190 164Q138 132 138 88H112Q112 153 166 195Q205 225 205 261T182 320T125 342T61 309Q56 301 50 293T39 273H36V336ZM104 4Q95 15 95
27T104 50Q115 59 126 59T148 50T159 28T150 5T127 -5T104 4Z" />
<glyph unicode="@" glyph-name="at" horiz-adv-x="329" d="M172 -74Q217 -74 247 -11H250V-74Q221 -105 170 -105T80 -61Q36 -11 36 84Q36 179 80 229Q117 272 169 272T253 234Q281 197 281 134V73Q281 39 287 0H224Q226 6 226 13T228 27Q207 -5 183 -5Q147 -5
131 16Q106 46 106 85T132 153Q149 175 179 175T231 145Q231 193 213 217T165 242T108 204Q82 165 82 83T109 -36T172 -74ZM150 84Q150 26 189 26Q205 26 218 42T231 84T220 127Q205 146 187 146T160 127Q150 109 150 84Z" />
<glyph unicode="A" glyph-name="A" horiz-adv-x="385" d="M0 0Q23 30 37 63L146 298Q159 327 170 367H214Q224 330 239 298L347 63Q360 33 385 0H316Q304 46 291 70L245 169H123L78 70Q62 29 54 0H0ZM136 197H234L184 309L136 197Z" />
<glyph unicode="B" glyph-name="B" horiz-adv-x="283" d="M42 0Q48 36 48 73V295Q48 330 42 367H130Q171 367 199 345T227 285T198 222Q186 210 177 207Q202 204 221 189Q258 159 258 111T223 32T126 0H42ZM97 73Q97 66 100 30H126Q164 30 187 51Q210 72 210 108T187
165Q165 189 126 189H97V73ZM100 337Q97 304 97 295V219H131Q152 219 167 236T182 278T170 319Q155 337 131 337H100Z" />
<glyph unicode="C" glyph-name="C" horiz-adv-x="374" d="M316 270Q273 342 212 342T114 293T78 183Q78 122 112 76Q151 26 208 26Q282 26 334 101H337V50Q282 -5 207 -5T79 49T25 183Q25 262 78 317Q131 372 202 372T318 334V270H316Z" />
<glyph unicode="D" glyph-name="D" horiz-adv-x="386" d="M42 0Q48 36 48 73V295Q48 330 42 367H179Q261 367 311 314T361 186T312 56T179 0H42ZM97 73Q97 63 100 30H179Q237 30 275 78Q307 118 307 186T271 295T179 337H100Q97 307 97 295V73Z" />
<glyph unicode="E" glyph-name="E" horiz-adv-x="262" d="M97 73Q97 66 100 30H165Q205 30 238 37V0H42Q48 36 48 73V295Q48 330 42 367H209V330Q167 337 136 337H100Q99 326 98 315T97 295V199H136Q161 199 209 207V162Q178 169 136 169H97V73Z" />
<glyph unicode="F" glyph-name="F" horiz-adv-x="253" d="M209 162Q178 169 136 169H97V73Q97 34 105 0H42Q48 36 48 73V295Q48 332 42 367H209V330Q167 337 136 337H100Q99 326 98 315T97 295V199H136Q161 199 209 207V162Z" />
<glyph unicode="G" glyph-name="G" horiz-adv-x="395" d="M359 199V77Q301 -5 208 -5Q133 -5 77 50Q25 104 25 183Q25 262 78 317Q131 372 208 372Q271 372 318 334V271H316Q310 283 302 291Q264 342 208 342T115 295T78 185T112 76Q151 26 211 26T311 88V169H297Q257
169 223 162V199H359Z" />
<glyph unicode="H" glyph-name="H" horiz-adv-x="381" d="M277 0Q285 36 285 73V169H97V73Q97 34 105 0H42Q48 36 48 73V295Q48 330 42 367H105Q97 331 97 295V199H285V295Q285 331 277 367H341Q333 338 333 295V73Q333 34 341 0H277Z" />
<glyph unicode="I" glyph-name="I" horiz-adv-x="146" d="M105 367Q97 331 97 295V73Q97 34 105 0H42Q48 36 48 73V295Q48 330 42 367H105Z" />
<glyph unicode="J" glyph-name="J" horiz-adv-x="146" d="M105 367Q97 331 97 295V28Q97 -48 5 -48V-46Q48 -27 48 28V295Q48 330 42 367H105Z" />
<glyph unicode="K" glyph-name="K" horiz-adv-x="347" d="M105 367Q97 331 97 295V192L210 310Q229 330 255 367H319Q289 347 264 320L139 190L289 45Q315 20 347 0H259Q237 32 211 56L107 156L97 146V73Q97 34 105 0H42Q48 36 48 73V295Q48 330 42 367H105Z" />
<glyph unicode="L" glyph-name="L" horiz-adv-x="243" d="M97 73Q97 66 100 30H165Q205 30 238 37V0H42Q48 36 48 73V295Q48 330 42 367H105Q97 331 97 295V73Z" />
<glyph unicode="M" glyph-name="M" horiz-adv-x="497" d="M76 58V35Q76 20 78 0H29Q40 33 43 72L62 295Q63 301 63 308V345Q63 356 61 367H112Q120 335 137 298L246 59L360 298Q373 331 384 367H436Q434 356 434 345V309Q434 302 435 295L454 72Q457 33 468 0H406Q408
11 408 21V56Q408 64 407 73L388 283L291 70Q279 43 267 0H216Q205 38 192 70L96 283L77 73Q76 65 76 58Z" />
<glyph unicode="N" glyph-name="N" horiz-adv-x="381" d="M341 367Q333 338 333 295V73Q333 34 341 0H290Q270 37 252 63L84 290V73Q84 36 90 0H42Q48 36 48 73V295Q48 330 42 367H92Q110 330 131 304L299 80V295Q299 338 291 367H341Z" />
<glyph unicode="O" glyph-name="O" horiz-adv-x="415" d="M302 291Q264 342 208 342T115 294T78 183T114 73T207 26T300 73T337 183T302 291ZM337 50Q282 -5 207 -5T79 49T25 183Q25 262 78 317Q131 372 207 372T337 317Q391 260 391 183Q391 106 337 50Z" />
<glyph unicode="P" glyph-name="P" horiz-adv-x="283" d="M42 0Q48 36 48 73V295Q48 330 42 367H126Q186 367 221 336Q258 305 258 259T222 180T126 148H97V73Q97 34 105 0H42ZM100 337Q97 304 97 295V179H126Q162 179 183 200T205 257T185 314Q160 337 126 337H100Z" />
<glyph unicode="Q" glyph-name="Q" horiz-adv-x="415" d="M325 0Q316 13 306 25Q261 -5 208 -5Q132 -5 79 49T25 183Q25 262 78 317Q131 372 207 372T337 317Q391 260 391 185T339 51L345 45Q372 20 403 0H325ZM261 134Q275 114 306 81L309 79Q337 132 337 189T302
291Q264 342 208 342T115 295T78 184T114 73T208 26Q250 26 281 52L241 89Q216 111 183 134H261Z" />
<glyph unicode="R" glyph-name="R" horiz-adv-x="307" d="M100 337Q97 304 97 295V179H126Q162 179 183 200T205 257T185 314Q160 337 126 337H100ZM144 149L126 148H97V73Q97 34 105 0H42Q48 36 48 73V295Q48 330 42 367H126Q186 367 221 336Q258 305 258 258T221
179Q214 174 207 169T192 161L261 57Q282 26 307 0H234Q215 44 199 65L144 149Z" />
<glyph unicode="S" glyph-name="S" horiz-adv-x="257" d="M21 94Q58 26 111 26Q151 26 171 49T191 104Q191 146 149 168L96 197Q37 230 37 289Q37 331 74 357Q95 372 132 372T194 349V298H192Q186 307 183 313Q165 342 138 342T99 330Q81 315 81 288T118 241L167
215Q237 179 237 110Q237 59 202 29Q165 -5 112 -5T19 31V94H21Z" />
<glyph unicode="T" glyph-name="T" horiz-adv-x="270" d="M265 330Q221 337 192 337H162Q160 326 160 316V73Q160 34 167 0H103Q110 34 110 73V316Q110 326 108 337H78Q49 337 5 330V367H265V330Z" />
<glyph unicode="U" glyph-name="U" horiz-adv-x="381" d="M341 367Q333 338 333 295V73Q333 34 341 0H277Q280 11 281 21T284 43Q239 -5 181 -5T85 37T48 157V295Q48 330 42 367H105Q97 331 97 295V157Q97 101 115 74Q141 32 189 32T265 70Q285 100 285 157V295Q285
331 277 367H341Z" />
<glyph unicode="V" glyph-name="V" horiz-adv-x="385" d="M170 0Q159 43 146 70L37 304Q20 340 0 367H69Q78 330 93 298L200 63L306 298Q322 333 330 367H385Q370 347 347 304L239 70Q224 37 214 0H170Z" />
<glyph unicode="W" glyph-name="W" horiz-adv-x="482" d="M111 0Q108 39 99 72L32 299Q23 333 5 367H69Q72 330 81 295L147 73L212 295Q223 328 226 367H273Q276 330 286 295L351 73L417 295Q427 328 431 367H478Q464 344 450 299L385 72Q376 47 371 0H316Q313
39 303 72L241 283L180 72Q170 39 166 0H111Z" />
<glyph unicode="X" glyph-name="X" horiz-adv-x="336" d="M10 0Q32 20 58 56L145 178L56 310Q37 337 10 367H84Q94 336 117 302L174 219L234 303Q254 331 270 367H327Q300 341 279 312L192 190L281 57Q295 35 327 0H253Q242 28 220 65L163 149L103 64Q81 35 66 0H10Z" />
<glyph unicode="Y" glyph-name="Y" horiz-adv-x="321" d="M129 0Q136 34 136 73V155L44 309Q24 341 0 367H70Q80 336 101 301L168 185L236 301Q246 320 267 367H321Q289 329 279 309L185 153V73Q185 35 192 0H129Z" />
<glyph unicode="Z" glyph-name="Z" horiz-adv-x="330" d="M119 337Q88 337 46 330V367H301L311 337Q285 314 261 283L78 30H238Q281 30 311 37V0H25L15 30Q42 56 63 85L244 337H119Z" />
<glyph unicode="[" glyph-name="bracketleft" horiz-adv-x="195" d="M110 -31Q141 -31 183 -24V-61H42Q48 -35 48 12V355Q48 381 42 429H183V391Q146 397 110 397H100Q97 382 97 355V12L100 -31H110Z" />
<glyph unicode="\" glyph-name="backslash" horiz-adv-x="274" d="M212 -44Q202 -7 189 26L40 348Q25 381 2 411H61Q74 365 86 342L234 19Q249 -12 271 -44H212Z" />
<glyph unicode="]" glyph-name="bracketright" horiz-adv-x="195" d="M96 -31L99 12V355Q99 388 95 397H85Q48 397 12 391V429H154Q147 385 147 355V12Q147 -38 154 -61H12V-24Q54 -31 85 -31H96Z" />
<glyph unicode="^" glyph-name="asciicircum" horiz-adv-x="281" d="M169 372Q182 331 231 295V291H172Q150 315 140 347Q129 315 108 291H48V295Q99 330 111 372H169Z" />
<glyph unicode="_" glyph-name="underscore" horiz-adv-x="300" d="M48 -10Q82 -17 122 -17H178Q217 -17 252 -10V-55Q217 -47 178 -47H122Q82 -47 48 -55V-10Z" />
<glyph unicode="`" glyph-name="grave" horiz-adv-x="194" d="M111 291Q65 329 48 370V372H107Q107 331 146 295V291H111Z" />
<glyph unicode="a" glyph-name="a" horiz-adv-x="330" d="M281 73Q281 42 288 0H225Q227 6 227 13T229 27Q201 -5 155 -5Q96 -5 61 38T25 133T59 229Q95 272 150 272T228 242Q228 251 225 260L288 272Q281 230 281 199V73ZM211 212Q189 242 155 242T100 212Q78
186 78 134Q78 82 100 55Q120 26 154 26T210 54T232 134Q232 186 211 212Z" />
<glyph unicode="b" glyph-name="b" horiz-adv-x="330" d="M230 212Q208 242 175 242T119 212Q97 186 97 134Q97 82 119 55Q141 26 174 26T230 55Q252 82 252 134Q252 186 230 212ZM42 0Q48 39 48 73V287Q48 322 42 360L105 372Q97 339 97 299V238Q125 272 180
272T270 230T305 133T270 39Q235 -5 175 -5Q127 -5 101 27Q102 20 102 13T105 0H42Z" />
<glyph unicode="c" glyph-name="c" horiz-adv-x="281" d="M251 86V39Q215 -5 156 -5T61 37T25 132T59 229Q95 272 155 272Q202 272 236 244V179H234Q226 198 213 212Q190 242 156 242T100 212Q78 186 78 134Q78 82 100 55Q120 26 155 26Q214 26 249 86H251Z" />
<glyph unicode="d" glyph-name="d" horiz-adv-x="330" d="M211 212Q189 242 155 242T100 212Q78 186 78 134Q78 82 100 55Q120 26 154 26T210 54T232 134Q232 186 211 212ZM281 73Q281 42 288 0H225Q227 6 227 13T229 27Q201 -5 155 -5Q96 -5 61 38T25 133T59
229Q95 272 150 272T232 238V287Q232 326 225 360L288 372Q281 330 281 299V73Z" />
<glyph unicode="e" glyph-name="e" horiz-adv-x="301" d="M261 86V39Q224 -5 160 -5T61 38T25 133T59 229Q95 272 156 272T253 224Q276 189 276 134L275 119H78Q81 76 100 55Q123 26 166 26Q224 26 258 86H261ZM226 149Q226 191 210 212Q187 242 154 242T100 212Q81
190 78 149H226Z" />
<glyph unicode="f" glyph-name="f" horiz-adv-x="205" d="M97 73Q97 36 105 0H42Q48 36 48 73V189Q30 189 12 181V226Q30 219 48 219V258Q48 305 71 333Q103 372 152 372Q178 372 199 362V306H197Q181 342 152 342T106 315Q97 296 97 258V219Q134 219 168 226V181Q134
189 97 189V73Z" />
<glyph unicode="g" glyph-name="g" horiz-adv-x="330" d="M211 212Q189 242 155 242T100 212Q78 186 78 134Q78 82 100 55Q120 26 154 26T210 54T232 134Q232 186 211 212ZM288 272Q281 230 281 199V33Q281 -27 251 -61Q215 -105 154 -105T57 -78V-15H59Q66 -38
81 -50Q106 -74 148 -74T211 -47Q232 -17 232 30Q205 -5 151 -5T61 38T25 133T59 229Q95 272 150 272T228 242Q228 251 225 260L288 272Z" />
<glyph unicode="h" glyph-name="h" horiz-adv-x="332" d="M42 0Q48 36 48 73V287Q48 322 42 360L105 372Q97 339 97 299V238Q125 272 177 272T261 234Q284 206 284 159V73Q284 34 291 0H228Q235 36 235 73V159Q235 196 224 211Q206 242 166 242Q126 242 108 211Q97
196 97 159V73Q97 34 105 0H42Z" />
<glyph unicode="i" glyph-name="i" horiz-adv-x="146" d="M42 0Q48 36 48 73V187Q48 223 42 260L105 272Q97 239 97 199V73Q97 34 105 0H42ZM73 307Q60 307 51 316T42 339T50 363Q61 372 73 372Q85 372 95 363Q105 354 105 341T96 317T73 307Z" />
<glyph unicode="j" glyph-name="j" horiz-adv-x="146" d="M105 272Q97 239 97 199V-28Q97 -105 5 -105V-102Q48 -83 48 -28V187Q48 223 42 260L105 272ZM73 307Q60 307 51 316T42 339T50 363Q61 372 73 372Q85 372 95 363Q105 354 105 341T96 317T73 307Z" />
<glyph unicode="k" glyph-name="k" horiz-adv-x="309" d="M42 0Q48 36 48 73V287Q48 322 42 360L105 372Q97 339 97 299V154L157 210Q185 235 204 268H268Q238 244 212 220L138 151L251 45Q284 16 309 0H221Q204 28 172 56L106 117L97 107V73Q97 34 105 0H42Z" />
<glyph unicode="l" glyph-name="l" horiz-adv-x="146" d="M42 0Q48 36 48 73V287Q48 322 42 360L105 372Q97 339 97 299V73Q97 34 105 0H42Z" />
<glyph unicode="m" glyph-name="m" horiz-adv-x="497" d="M335 242Q273 242 273 159V73Q273 34 281 0H217Q224 36 224 73V159Q224 197 213 212Q196 242 161 242T108 213Q97 196 97 159V73Q97 34 105 0H42Q48 36 48 73V187Q48 223 42 260L105 272Q102 262 100 240Q129
272 176 272T252 232Q285 272 340 272T426 234Q448 204 448 159V73Q448 34 455 0H392Q400 34 400 73V159Q400 194 389 212Q370 242 335 242Z" />
<glyph unicode="n" glyph-name="n" horiz-adv-x="332" d="M42 0Q48 36 48 73V187Q48 223 42 260L105 272Q102 262 100 240Q126 272 178 272T261 234Q284 206 284 159V73Q284 34 291 0H228Q235 36 235 73V159Q235 196 224 211Q206 242 166 242Q126 242 108 211Q97
196 97 159V73Q97 34 105 0H42Z" />
<glyph unicode="o" glyph-name="o" horiz-adv-x="311" d="M211 212Q189 242 155 242T100 212Q78 186 78 134Q78 82 100 55Q120 26 154 26T210 54T232 134Q232 186 211 212ZM251 39Q215 -5 156 -5T61 38T25 133T59 229Q95 272 155 272Q215 272 250 230T286 133T251 39Z" />
<glyph unicode="p" glyph-name="p" horiz-adv-x="330" d="M230 212Q208 242 175 242T119 212Q97 186 97 134Q97 82 119 55Q141 26 174 26T230 55Q252 82 252 134Q252 186 230 212ZM105 272Q102 262 100 240Q129 272 175 272Q235 272 270 230T305 133T270 39Q235
-5 180 -5T97 30V-27Q97 -65 105 -100H42Q48 -63 48 -27V187Q48 223 42 260L105 272Z" />
<glyph unicode="q" glyph-name="q" horiz-adv-x="330" d="M211 212Q189 242 155 242T100 212Q78 186 78 134Q78 82 100 55Q120 26 154 26T210 54T232 134Q232 186 211 212ZM281 -27Q281 -56 288 -100H225Q232 -65 232 -27V30Q205 -5 151 -5T61 38T25 133T59 229Q95
272 150 272T228 242Q228 251 225 260L288 272Q281 230 281 199V-27Z" />
<glyph unicode="r" glyph-name="r" horiz-adv-x="212" d="M42 0Q48 36 48 73V187Q48 223 42 260L105 272Q102 262 100 240Q126 272 165 272Q187 272 207 262V207H205Q185 242 156 242T108 211Q97 196 97 159V73Q97 34 105 0H42Z" />
<glyph unicode="s" glyph-name="s" horiz-adv-x="214" d="M159 208Q144 242 114 242Q101 242 90 236T79 213T104 181L149 154Q195 127 195 85T166 19T102 -5Q60 -3 50 3Q28 17 19 26V90H21Q44 26 101 26Q123 26 137 40T151 76T126 114L87 137Q37 167 37 209Q37
238 61 258Q79 272 109 272Q139 272 161 258V208H159Z" />
<glyph unicode="t" glyph-name="t" horiz-adv-x="199" d="M124 255Q153 255 195 262V217Q161 225 124 225V73Q124 34 132 0H69Q75 36 75 73V225Q39 225 5 217V262Q49 255 75 255V287Q75 322 69 360L132 372Q124 339 124 299V255Z" />
<glyph unicode="u" glyph-name="u" horiz-adv-x="332" d="M284 73Q284 30 291 0H228Q229 6 229 13T232 27Q205 -5 153 -5T71 34Q48 63 48 109V187Q48 223 42 260L105 272Q97 239 97 199V109Q97 73 108 56Q127 26 166 26Q235 26 235 109V187Q235 223 228 260L291
272Q284 239 284 199V73Z" />
<glyph unicode="v" glyph-name="v" horiz-adv-x="296" d="M125 0Q112 47 101 70L37 205Q30 224 0 268H69Q79 230 93 198L155 63L217 198Q232 230 241 268H296Q284 253 276 237T258 205L194 70Q181 42 169 0H125Z" />
<glyph unicode="w" glyph-name="w" horiz-adv-x="419" d="M94 0Q89 39 77 72L31 201Q22 228 0 268H64Q68 236 81 196L130 61L175 196Q186 232 192 268H241Q244 236 258 196L306 61L351 196Q363 232 369 268H419Q396 227 388 201L342 72Q330 39 325 0H271Q266 39
254 72L209 197L164 72Q152 36 148 0H94Z" />
<glyph unicode="x" glyph-name="x" horiz-adv-x="285" d="M10 0Q39 27 60 52L118 127L58 212Q40 238 10 268H84Q97 234 119 204L148 165L179 206Q204 237 217 268H275Q247 244 224 214L166 139L227 56Q245 30 275 0H199Q184 35 163 64L137 101L106 62Q82 32 67 0H10Z" />
<glyph unicode="y" glyph-name="y" horiz-adv-x="332" d="M42 260Q47 261 56 263T77 267T105 272Q97 239 97 199V109Q97 73 108 56Q127 26 166 26Q205 26 224 56Q235 73 235 109V187Q235 223 228 260L291 272Q284 239 284 199V33Q284 -25 254 -61Q216 -105 161
-105T69 -78V-15H71Q81 -40 93 -50Q120 -74 157 -74T213 -47Q235 -19 235 30Q207 -5 153 -5T71 34Q48 66 48 109V187Q48 223 42 260Z" />
<glyph unicode="z" glyph-name="z" horiz-adv-x="267" d="M120 238Q83 238 47 230V268H238L246 238Q235 225 223 212T198 183L78 30H175Q216 30 247 37V0H25L15 30Q42 57 63 85L183 238H120Z" />
<glyph unicode="{" glyph-name="braceleft" horiz-adv-x="208" d="M171 425Q127 406 127 351V259Q127 192 58 184Q127 177 127 109V16Q127 -36 171 -58V-60Q80 -60 80 16V109Q80 162 36 183V185Q80 207 80 259V351Q80 429 171 429V425Z" />
<glyph unicode="|" glyph-name="bar" horiz-adv-x="161" d="M100 29Q100 -12 107 -44H54Q61 -2 61 29V339Q61 369 54 411H107Q100 380 100 339V29Z" />
<glyph unicode="}" glyph-name="braceright" horiz-adv-x="208" d="M36 429Q127 429 127 351V259Q127 207 171 185V183Q127 162 127 109V16Q127 -60 36 -60V-58Q80 -36 80 16V109Q80 177 150 184Q80 192 80 259V351Q80 406 36 425V429Z" />
<glyph unicode="~" glyph-name="asciitilde" horiz-adv-x="294" d="M48 199Q71 225 97 225T146 207L174 185Q188 175 199 175Q230 175 242 225H244V161Q224 134 198 134T147 152L120 174Q106 184 94 184Q62 184 51 134H48V199Z" />
<glyph unicode="&#xa0;" glyph-name="nbsp" horiz-adv-x="195" />
<glyph unicode="&#xa2;" glyph-name="cent" horiz-adv-x="281" d="M164 -44H139V-4Q91 2 58 40T25 134Q25 189 58 227T139 272V312H164V272Q206 270 236 244V179H234Q224 200 213 212Q193 239 164 242V26Q216 29 249 86H251V39Q217 -1 164 -4V-44ZM139 240Q116
235 100 212Q78 186 78 134Q78 82 100 55Q115 33 139 27V240Z" />
<glyph unicode="&#xa9;" glyph-name="copyright" horiz-adv-x="365" d="M236 270Q216 306 188 306T140 283Q124 260 124 231T141 179T187 157T245 195H254V164Q225 133 184 133T116 162Q88 190 88 231T116 302Q145 331 180 331T244 310V270H236ZM87 331Q126 372
183 372T278 331T316 230T277 134Q237 94 182 94Q127 94 88 134T48 232T87 331ZM102 319Q66 284 66 235T99 149T181 111T263 145T298 233T264 320T183 354T102 319Z" />
<glyph unicode="&#xae;" glyph-name="registered" horiz-adv-x="365" d="M267 150Q298 182 298 234T264 320T183 354T102 319Q66 284 66 235T99 149T177 111T254 137H227Q220 157 209 172L183 212H167V179Q167 164 172 137H129Q133 153 133 179V289Q133 315 129
331H177Q210 331 227 314Q247 297 247 272T227 228Q224 225 217 221L249 174Q256 162 267 150ZM87 331Q126 372 183 372T278 331T316 230T277 134Q237 94 182 94Q127 94 88 134T48 232T87 331ZM167 237H177Q193 237 202 246Q211 255 211 271T202 297T177 306H168Q167
301 167 298V237Z" />
<glyph unicode="&#xbc;" glyph-name="onequarter" horiz-adv-x="388" d="M321 42Q321 28 326 0H283Q287 20 287 42V44H201L194 65Q201 72 207 79T220 94L267 160Q279 175 285 194H326Q321 166 321 152V70Q329 70 340 74V44H321V42ZM287 69V147L231 69H287ZM76
0Q97 28 114 63L222 298Q237 332 245 367H300Q279 341 262 304L154 70Q140 38 130 0H76ZM82 180Q87 198 87 222V333L64 311L48 329L86 364L126 372Q121 352 121 334V222Q121 204 126 180H82Z" />
<glyph unicode="&#xbd;" glyph-name="onehalf" horiz-adv-x="405" d="M309 60Q309 97 266 97L256 110L296 164H275Q251 164 234 160V190H333L336 167Q324 155 311 138L296 117Q310 114 325 104Q345 88 345 61T325 16T275 -2T223 19V58H232Q237 46 244 39Q255 22
272 22T299 33T309 60ZM76 0Q97 28 114 63L222 298Q240 344 245 367H300Q279 341 262 304L154 70Q140 38 130 0H76ZM82 180Q87 198 87 222V333L64 311L48 329L86 364L126 372Q121 352 121 334V222Q121 204 126 180H82Z" />
<glyph unicode="&#xbe;" glyph-name="threequarters" horiz-adv-x="404" d="M336 70Q345 70 355 74V44H336V42Q336 24 342 0H298Q303 25 303 42V44H217L210 65Q225 80 235 94L282 160Q292 174 301 194H342Q336 170 336 152V70ZM303 69V147L246 69H303ZM91 0Q107
18 129 63L237 298Q254 337 261 367H315Q295 339 277 304L169 70Q154 29 146 0H91ZM134 241Q134 277 91 277L81 290L122 345H101Q77 345 60 341V370H159L163 348Q148 335 137 319L121 297Q135 295 152 283T170 242T149 196Q132 179 101 179T48 199V239H58Q64 224
70 219Q82 204 99 204Q134 204 134 241Z" />
<glyph unicode="&#xc4;" glyph-name="Adieresis" horiz-adv-x="385" d="M212 419Q204 430 204 442Q204 454 212 465Q222 475 234 475T257 465Q267 455 267 442Q267 429 258 420T236 410T212 419ZM180 442Q180 429 171 420T149 410T126 419T117 442Q117 455 125
465T148 475Q162 475 170 465Q180 455 180 442ZM0 0Q23 30 37 63L146 298Q159 327 170 367H214Q224 330 239 298L347 63Q360 33 385 0H316Q304 46 291 70L245 169H123L78 70Q62 29 54 0H0ZM136 197H234L184 309L136 197Z" />
<glyph unicode="&#xc5;" glyph-name="Aring" horiz-adv-x="385" d="M175 442Q167 436 167 426T174 408T191 400T209 407Q216 415 216 425T209 442Q202 450 192 450T175 442ZM240 425Q240 404 226 390T192 376T158 390T144 425T158 460T191 475T225 461T240 425ZM0
0Q23 30 37 63L146 298Q159 327 170 367H214Q224 330 239 298L347 63Q360 33 385 0H316Q304 46 291 70L245 169H123L78 70Q62 29 54 0H0ZM136 197H234L184 309L136 197Z" />
<glyph unicode="&#xc7;" glyph-name="Ccedilla" horiz-adv-x="374" d="M316 270Q273 342 212 342T114 293T78 183Q78 122 112 76Q151 26 208 26Q282 26 334 101H337V50Q287 0 222 -4Q240 -28 240 -55Q240 -105 172 -105V-71Q204 -71 204 -44Q204 -20 191 -4Q124
2 75 53T25 183T78 317Q131 372 202 372T318 334V270H316Z" />
<glyph unicode="&#xc9;" glyph-name="Eacute" horiz-adv-x="262" d="M214 475V471Q198 429 152 394H118V396Q155 434 155 475H214ZM97 73Q97 66 100 30H165Q205 30 238 37V0H42Q48 36 48 73V295Q48 330 42 367H209V330Q167 337 136 337H100Q99 326 98 315T97 295V199H136Q161
199 209 207V162Q178 169 136 169H97V73Z" />
<glyph unicode="&#xd1;" glyph-name="Ntilde" horiz-adv-x="381" d="M123 454Q138 475 157 475T195 460L216 444Q227 435 236 435Q257 435 267 475H269V424Q253 404 233 404T196 418L176 435Q167 442 156 442Q133 442 125 404H123V454ZM341 367Q333 338 333 295V73Q333
34 341 0H290Q270 37 252 63L84 290V73Q84 36 90 0H42Q48 36 48 73V295Q48 330 42 367H92Q110 330 131 304L299 80V295Q299 338 291 367H341Z" />
<glyph unicode="&#xd7;" glyph-name="multiply" horiz-adv-x="336" d="M10 0Q32 20 58 56L145 178L56 310Q37 337 10 367H84Q94 336 117 302L174 219L234 303Q254 331 270 367H327Q300 341 279 312L192 190L281 57Q295 35 327 0H253Q242 28 220 65L163 149L103
64Q81 35 66 0H10Z" />
<glyph unicode="&#xf7;" glyph-name="divide" horiz-adv-x="317" d="M274 157H16L26 224H285L274 157ZM161 125T172 111T181 72T162 34T127 20T96 34T87 72T106 110T141 125ZM196 384T208 370T217 331T197 293T162 279T131 292T123 330T142 369T176 384Z" />
<glyph unicode="&#x2013;" glyph-name="endash" horiz-adv-x="299" d="M272 153H16L26 224H283L272 153Z" />
<glyph unicode="&#x2014;" glyph-name="emdash" horiz-adv-x="506" d="M447 154H16L25 224H456L447 154Z" />
</font>
</defs>
</svg>
