<?xml version="1.0" standalone="no"?>
<!DOCTYPE svg PUBLIC "-//W3C//DTD SVG 1.1//EN" "http://www.w3.org/Graphics/SVG/1.1/DTD/svg11.dtd">
<svg xmlns="http://www.w3.org/2000/svg">
<defs >
<font id="LibreFranklin" horiz-adv-x="557" ><font-face
    font-family="Libre Franklin Thin"
    units-per-em="1000"
    panose-1="0 0 3 0 0 0 0 0 0 0"
    ascent="966"
    descent="-246"
    alphabetic="0" />
<glyph unicode=" " glyph-name="space" horiz-adv-x="220" />
<glyph unicode="!" glyph-name="exclam" horiz-adv-x="232" d="M117 155Q116 151 114 150T107 148H93Q83 148 85 156L156 736Q157 742 161 742H203Q206 742 207 740T209 735L117 155ZM111 10Q110 4 108 2T98 0H59Q47 0 49 11L58 71Q59 79 65 79H113Q120 79 120
70L111 10Z" />
<glyph unicode="&quot;" glyph-name="quotedbl" horiz-adv-x="371" d="M275 558Q273 553 272 552T265 550H247Q239 550 239 558L245 737Q246 742 251 742H314Q317 742 319 740T320 735L275 558ZM395 558Q393 553 392 552T385 550H367Q359 550 359 558L365 737Q366
742 371 742H434Q437 742 439 740T440 735L395 558Z" />
<glyph unicode="#" glyph-name="numbersign" horiz-adv-x="603" d="M590 498T590 491L587 467Q586 463 584 462T577 460H470L419 288H520Q523 288 525 286T527 281L524 257Q523 253 521 252T514 250H408L336 6Q334 -1 328 0L304 4Q298 5 298 11L368 250H205L133
6Q131 -1 125 0L101 4Q95 5 95 11L165 250H52Q42 250 44 258L47 282Q48 288 52 288H177L227 460H114Q105 460 107 468L110 492Q111 498 115 498H239L309 737Q312 743 316 742L339 738Q349 736 346 726L279 498H442L512 737Q515 743 519 742L542 738Q552 736 549
726L482 498H583Q590 498 590 491ZM430 460H267L216 288H380L430 460Z" />
<glyph unicode="$" glyph-name="dollar" horiz-adv-x="574" d="M522 135T492 89T410 17T294 -10Q285 -10 283 -17L274 -86Q273 -91 272 -92T267 -93H243Q239 -93 237 -91T236 -87L246 -15Q246 -12 246 -11T243 -10Q156 -10 104 20T22 115Q17 125 24 129L41 139Q43
140 47 140Q55 140 57 135Q89 82 131 58T243 33Q252 33 254 41L294 332V336Q294 350 277 359Q213 390 177 414T124 465T107 530Q107 550 109 561Q120 641 185 693T343 752Q347 752 350 754T354 760L361 816Q363 822 367 822H391Q401 822 399 811L391 757Q391 754
391 753T395 751Q454 746 496 722T573 654Q582 647 574 641L548 624L544 622Q542 622 537 632Q517 661 479 681T395 707H393Q385 707 383 698L340 396V391Q340 388 342 386T348 382L374 370Q448 337 485 294T522 191Q522 135 492 89ZM345 702V704Q345 706 343 707T338
708Q266 702 216 660T157 556Q156 550 156 538Q156 502 184 472T282 407Q285 406 290 406Q303 406 306 420L345 702ZM291 36T292 35T295 33Q346 33 387 54T451 111T474 193Q474 236 446 266T351 328Q348 329 343 329Q331 329 330 318L291 38Q291 36 292 35Z" />
<glyph unicode="%" glyph-name="percent" horiz-adv-x="898" d="M360 753T397 711T434 590Q434 575 430 539Q415 437 364 382T240 327Q175 327 138 369T100 491Q100 518 104 543Q118 644 170 698T296 753Q360 753 397 711ZM155 3Q151 -1 148 -2T139 -4H123Q115
-4 115 2Q115 6 118 10L711 746Q714 750 718 750T723 750H743Q747 750 749 748T748 741L155 3ZM298 357T341 409T395 542Q398 565 398 585Q398 648 371 685T294 723Q236 723 193 671T138 538Q135 517 135 497Q135 434 162 396T239 357Q298 357 341 409ZM754 416T791
374T828 254Q828 227 824 202Q809 100 758 45T634 -10Q570 -10 533 32T495 153Q495 181 499 206Q513 307 565 361T690 416Q754 416 791 374ZM671 20T704 44T760 111T790 205Q793 225 793 244Q793 306 765 346T689 386Q652 386 619 362T563 295T533 201Q530 182
530 163Q530 100 558 60T634 20Q671 20 704 44Z" />
<glyph unicode="&amp;" glyph-name="ampersand" horiz-adv-x="740" d="M447 753T488 720T530 629Q530 562 479 505T309 399Q298 396 298 391Q298 388 301 383L457 159Q460 155 462 155Q463 155 466 157T472 163Q520 201 580 273T659 384Q663 391 672 387L688 380Q691
378 693 375T694 368Q674 323 615 253T496 127Q486 121 492 112Q519 82 572 61T674 39Q689 39 687 28L685 13Q683 5 681 3T669 0Q619 0 555 27T456 88L451 90Q446 90 441 84Q388 41 330 18T212 -5Q126 -5 77 39T27 158Q27 167 29 189Q37 249 77 298T201 396Q208
399 212 402T216 409Q216 412 209 422Q159 481 159 544Q159 601 189 649T271 725T381 753Q447 753 488 720ZM328 714T289 690T228 627T206 543Q206 497 239 453L259 428Q261 425 265 425Q271 425 275 428Q379 473 427 516T483 612Q484 618 484 629Q484 671 455
692T379 714Q328 714 289 690ZM254 370T248 370Q243 370 233 365Q160 333 116 278T71 159Q71 102 111 68T217 33Q267 33 319 54T412 111Q428 121 421 133L260 362Q254 370 248 370Z" />
<glyph unicode="&apos;" glyph-name="quotesingle" horiz-adv-x="235" d="M176 558Q174 553 173 552T166 550H148Q140 550 140 558L146 737Q147 742 152 742H215Q218 742 220 740T221 735L176 558Z" />
<glyph unicode="(" glyph-name="parenleft" horiz-adv-x="268" d="M155 -165T154 -158Q115 -72 95 8T75 176Q75 225 83 287Q100 406 154 522T288 738Q293 742 301 742H308Q312 742 313 740T314 733Q245 627 196 511T131 282Q122 218 122 156Q122 8 175 -160Q177
-162 177 -163T172 -165H162Q155 -165 154 -158Z" />
<glyph unicode=")" glyph-name="parenright" horiz-adv-x="268" d="M-37 -165T-38 -163T-39 -156Q30 -50 79 66T144 295Q153 360 153 421Q153 569 100 737Q98 739 98 740T103 742H113Q120 742 121 735Q160 649 180 569T200 401Q200 352 192 290Q175 171 121 55T-13
-161Q-18 -165 -26 -165H-33Q-37 -165 -38 -163Z" />
<glyph unicode="*" glyph-name="asterisk" horiz-adv-x="327" d="M215 573Q215 574 212 571L120 454Q118 452 116 454T113 456L93 471Q88 474 92 479L189 585Q191 588 188 589L83 621Q80 622 80 629L92 651Q94 654 98 652L197 614Q202 612 204 619L213 738Q215
742 220 742H250Q253 742 254 740T255 736L233 617Q233 613 236 614L349 659Q355 661 355 656L360 635Q360 633 360 631T358 628L245 590Q243 589 241 587T240 583L304 484Q307 477 302 474L279 459Q276 457 273 458T271 461L215 573Z" />
<glyph unicode="+" glyph-name="plus" horiz-adv-x="541" d="M488 392T488 385L484 361Q484 357 482 356T475 354H302L278 178Q277 172 272 172H248Q238 172 240 183L264 353H91Q83 353 83 361L87 385Q88 391 92 391H269L293 566Q294 571 295 572T300 573H324Q328
573 330 571T331 567L307 392H481Q488 392 488 385Z" />
<glyph unicode="," glyph-name="comma" horiz-adv-x="187" d="M-13 -134T-8 -125L52 -11Q53 -9 53 -6Q53 0 44 0H35Q28 0 29 6L38 72Q38 75 40 77T46 79H95Q102 79 100 70L92 17Q90 8 88 5L12 -127Q9 -134 1 -134H-6Q-13 -134 -8 -125Z" />
<glyph unicode="-" glyph-name="hyphen" horiz-adv-x="381" d="M309 253Q308 249 306 248T299 246L76 245Q68 245 68 253L72 279Q73 285 77 285L306 286Q309 286 311 284T313 279L309 253Z" />
<glyph unicode="." glyph-name="period" horiz-adv-x="182" d="M86 10Q85 4 83 2T73 0H34Q22 0 24 11L33 71Q34 79 40 79H88Q95 79 95 70L86 10Z" />
<glyph unicode="/" glyph-name="slash" horiz-adv-x="328" d="M-29 -60T-29 -54L334 737Q337 742 342 742H371Q379 742 376 731L17 -53Q14 -60 6 -60H-23Q-29 -60 -29 -54Z" />
<glyph unicode="0" glyph-name="zero" horiz-adv-x="675" d="M501 752T559 681T618 471Q618 428 610 367Q593 243 548 159T438 32T300 -10Q202 -10 144 60T86 265Q86 310 94 369Q111 494 156 580T266 709T404 752Q501 752 559 681ZM402 32T470 115T563 371Q571
433 571 477Q571 595 527 652T403 710Q306 710 236 625T141 367Q133 306 133 264Q133 147 178 90T304 32Q402 32 470 115Z" />
<glyph unicode="1" glyph-name="one" horiz-adv-x="438" d="M356 42T358 40T359 35L354 7Q353 0 348 0H26Q19 0 20 7L24 37Q25 42 30 42H171Q177 42 178 48L267 679Q268 686 261 683L115 628Q105 625 107 634L110 657Q112 666 119 670L263 737Q273 742 286 742H313Q322
742 321 732L224 48Q223 42 228 42H352Q356 42 358 40Z" />
<glyph unicode="2" glyph-name="two" horiz-adv-x="571" d="M307 305Q397 385 446 450T495 584Q495 644 451 677T345 710Q294 710 239 686T144 613Q139 607 133 611L110 633Q108 635 108 637Q108 638 113 645Q160 698 225 725T353 752Q432 752 486 711T540 587Q540
529 514 479T446 383T327 269L84 53Q80 50 80 47Q80 42 87 42H464Q474 42 472 33L469 8Q469 5 467 3T461 0H33Q26 0 24 3T22 13L24 33Q25 45 29 51T42 66L307 305Z" />
<glyph unicode="3" glyph-name="three" horiz-adv-x="624" d="M133 654T138 659Q196 709 249 730T364 752Q428 752 475 731T548 674T573 591Q573 525 529 473T410 396Q405 394 405 392T412 388Q469 374 506 331T544 226Q544 163 509 109T407 23T247 -10Q189 -10
150 2T85 34T29 87Q24 92 28 96L54 117Q58 121 61 117Q91 73 141 53T254 32Q323 32 378 55T466 121T499 221Q499 269 472 302T399 353T302 370H212Q207 370 205 372T203 378L207 404Q207 410 215 410H288Q351 410 406 433T494 497T527 587Q527 641 483 675T365
710Q301 710 258 689T165 629Q161 626 158 626Q153 626 149 632L139 646Q133 654 138 659Z" />
<glyph unicode="4" glyph-name="four" horiz-adv-x="623" d="M470 742T479 742H513Q522 742 521 732L455 263Q454 256 460 256H562Q572 256 572 248L568 223Q567 214 558 214H455Q447 214 446 206L419 8Q418 3 416 2T409 0H379Q372 0 373 10L401 207V209Q401 214
395 214H54Q49 214 47 216T46 225L51 256Q52 262 54 267T62 278L466 738Q470 742 479 742ZM397 256Q404 256 405 264L460 658V660Q460 663 458 663Q456 663 447 653L107 268Q96 256 107 256H397Z" />
<glyph unicode="5" glyph-name="five" horiz-adv-x="641" d="M600 742Q606 742 607 740T608 733L601 706Q600 700 591 700H235Q228 700 226 691L166 416L165 412Q165 408 167 407T173 408Q265 464 366 464Q457 464 515 419T574 282Q574 198 533 131T421 27T263
-10Q196 -10 141 13T41 86Q34 93 40 97L59 114Q65 120 71 113Q146 30 257 30Q335 30 396 61T492 149T527 277Q527 351 480 387T360 424Q303 424 257 405T151 352Q147 351 144 351T136 353L116 369Q111 374 111 377L113 385L189 735Q190 739 192 740T202 742H600Z"
/>
<glyph unicode="6" glyph-name="six" horiz-adv-x="646" d="M533 752T595 675Q598 670 593 666L568 649Q567 648 565 648Q561 648 555 656Q535 683 506 696T434 710Q310 710 237 624T143 395L141 380Q141 375 145 375Q148 375 150 376T154 378Q219 407 265 421T369
436Q470 436 524 387T578 255Q578 182 542 121T443 25T306 -10Q200 -10 143 61T85 264Q85 307 93 365Q119 547 208 649T434 752Q533 752 595 675ZM324 394T264 379T164 340Q141 326 135 308T128 251Q128 198 147 148T207 65T311 32Q370 32 420 61T501 140T532 247Q532
311 490 352T371 394Q324 394 264 379Z" />
<glyph unicode="7" glyph-name="seven" horiz-adv-x="587" d="M595 742Q603 742 602 735L599 711Q597 697 588 686Q508 589 426 458T281 205T194 12Q191 0 182 0H151Q144 0 144 6Q144 9 146 15Q195 146 299 333T536 690Q543 700 533 700H114Q108 700 109 708L116
736Q118 742 125 742H595Z" />
<glyph unicode="8" glyph-name="eight" horiz-adv-x="659" d="M491 752T545 706T599 578Q599 511 564 466T502 400T471 375Q466 370 466 367Q466 364 472 361Q518 341 549 306T581 205Q581 137 544 89T440 15T291 -10Q183 -10 122 35T60 166Q60 217 80 256T131
322T205 380Q212 385 212 388Q212 391 206 395Q166 422 149 446T131 519Q131 584 167 637T265 721T400 752Q491 752 545 706ZM334 710T284 685T205 617T176 525Q176 480 202 454T282 415L389 389Q392 388 398 388Q426 388 463 417T527 492T554 581Q554 640 512
675T395 710Q334 710 284 685ZM366 32T420 54T505 115T536 205Q536 252 510 283T431 328L279 367Q262 372 219 344T141 267T106 162Q106 103 157 68T296 32Q366 32 420 54Z" />
<glyph unicode="9" glyph-name="nine" horiz-adv-x="641" d="M129 -10T75 66Q69 73 74 76L98 91Q102 93 103 93Q106 93 112 86Q134 58 165 45T244 32Q364 32 436 119T528 347Q529 351 529 357Q529 369 517 364Q458 336 411 321T306 306Q206 306 153 356T99 489Q99
563 136 623T235 717T370 752Q473 752 529 681T586 479Q586 350 547 238T429 58T242 -10Q129 -10 75 66ZM352 348T411 365T510 409Q532 422 539 440T546 496Q546 547 528 596T468 677T366 710Q307 710 257 681T176 603T145 496Q145 432 187 390T303 348Q352 348
411 365Z" />
<glyph unicode=":" glyph-name="colon" horiz-adv-x="182" d="M145 431Q144 425 142 423T132 421H93Q81 421 83 432L92 492Q93 500 99 500H147Q156 500 154 491L145 431ZM87 13Q85 7 83 5T73 3H34Q23 3 25 14L33 74Q34 82 40 82H88Q97 82 95 73L87 13Z" />
<glyph unicode=";" glyph-name="semicolon" horiz-adv-x="210" d="M81 421T83 432L92 492Q93 500 99 500H147Q156 500 154 491L145 431Q144 425 142 423T132 421H93Q81 421 83 432ZM-8 -134T-9 -131T-9 -123L51 -9L54 -3Q54 0 46 0H37Q33 0 31 2T29 8L38 74Q39
79 44 79H94Q100 79 100 72L92 15L89 3L13 -129Q9 -134 2 -134H-5Q-8 -134 -9 -131Z" />
<glyph unicode="&lt;" glyph-name="less" horiz-adv-x="523" d="M442 194Q439 178 426 184L78 330Q69 333 71 341L76 376Q76 380 78 382T84 385L473 533L481 535Q491 535 489 523L486 497Q485 493 482 490T472 485L134 358L433 230Q446 224 445 215L442 194Z" />
<glyph unicode="=" glyph-name="equal" horiz-adv-x="541" d="M499 461Q498 457 496 456T489 454L105 453Q96 453 98 461L101 485Q102 491 106 491L495 492Q502 492 502 485L499 461ZM468 241Q467 237 465 236T458 234L75 233Q65 233 67 241L70 265Q71 271 75
271L464 272Q467 272 469 270T471 265L468 241Z" />
<glyph unicode="&gt;" glyph-name="greater" horiz-adv-x="523" d="M65 222T68 225T78 230L415 358L115 485Q102 491 103 499L107 525Q108 535 115 535Q120 535 124 533L471 385Q479 382 478 374L473 339Q473 333 465 330L77 184Q75 183 71 183Q66 183 63 186T61
196L64 217Q65 222 68 225Z" />
<glyph unicode="?" glyph-name="question" horiz-adv-x="514" d="M89 624T91 631Q131 687 196 719T331 752Q420 752 470 710T521 596Q521 588 519 568Q511 510 479 467T387 367Q346 328 321 300T276 236T250 156Q248 150 243 150H216Q212 150 210 153T208 161Q215
209 236 248T282 316T350 386Q407 441 436 480T473 572Q475 588 475 594Q475 648 437 679T330 710Q272 710 213 680T131 608Q128 605 123 607L95 621Q89 624 91 631ZM239 10Q238 4 236 2T226 0H187Q175 0 177 11L186 71Q186 75 187 77T193 79H241Q248 79 248 70L239
10Z" />
<glyph unicode="@" glyph-name="at" horiz-adv-x="834" d="M502 -113T386 -113Q280 -113 204 -72T89 40T49 203Q49 236 53 263Q68 370 131 461T291 607T503 661Q584 661 654 632T768 542T811 392Q811 363 807 338Q797 264 764 205T683 114T582 81Q544 81 525 94T503
140Q503 146 501 146Q499 146 493 138Q431 67 341 67Q293 67 261 106T228 210Q228 233 230 245Q239 309 270 361T349 444T449 475Q489 475 517 456T559 401H560Q564 401 567 407L582 445Q583 448 584 448T589 449H618Q621 449 623 447T624 442L554 213Q544 182
544 161Q544 141 554 133T585 124Q624 124 660 150T722 225T757 336Q760 362 760 384Q760 463 723 515T626 593T500 618Q396 618 310 569T170 438T101 256Q97 220 97 204Q97 127 130 66T232 -32T400 -69Q458 -69 496 -55T586 -8Q591 -5 595 -5Q601 -5 605 -11L615
-27Q617 -30 617 -34Q617 -40 608 -47Q502 -113 386 -113ZM277 223T277 205Q277 160 295 136T348 111Q402 111 452 156T522 268Q533 302 533 334Q533 381 509 406T448 431Q384 431 338 377T280 242Q277 223 277 205Z" />
<glyph unicode="A" glyph-name="A" horiz-adv-x="700" d="M19 0T17 3T16 10L384 732Q387 738 390 740T400 742H433Q449 742 449 731L611 9V6Q611 0 603 0H579Q567 0 567 9L516 232Q515 236 514 237T508 238H186Q178 238 175 230L60 6Q58 0 49 0H24Q19 0 17 3ZM497
278Q507 278 505 289L416 679Q415 688 411 688Q407 688 402 676L203 290Q200 283 200 281T204 278H497Z" />
<glyph unicode="B" glyph-name="B" horiz-adv-x="684" d="M82 0T80 2T78 9L180 731Q181 742 191 742H394Q509 742 571 700T633 579Q633 505 593 455T478 381Q472 380 472 377T477 372Q535 361 568 324T601 227Q601 109 517 55T302 0H86Q82 0 80 2ZM357 395Q458
395 521 440T585 573Q585 638 534 670T386 702H231Q222 702 220 693L180 405V402Q180 395 187 395H357ZM293 40Q408 40 480 78T553 221Q553 291 500 323T354 355H185Q172 355 171 345L130 49V47Q130 40 138 40H293Z" />
<glyph unicode="C" glyph-name="C" horiz-adv-x="695" d="M502 752T554 725T638 653T670 557Q670 547 663 547L629 544Q623 544 622 554Q614 624 565 667T440 710Q335 710 266 646T165 482T133 275Q133 156 186 94T348 32Q427 32 485 70T583 188Q585 192 592 189L622
178Q628 176 625 169Q586 87 510 39T344 -10Q219 -10 153 64T86 276Q86 393 123 501T240 681T443 752Q502 752 554 725Z" />
<glyph unicode="D" glyph-name="D" horiz-adv-x="703" d="M82 0T80 3T78 11L180 735Q181 742 191 742H304Q483 742 565 674T648 465Q648 0 196 0H87Q82 0 80 3ZM194 40Q408 40 504 145T600 465Q600 553 567 605T467 679T293 701H230Q220 701 219 690L131 53L130
48Q130 43 132 42T141 40H194Z" />
<glyph unicode="E" glyph-name="E" horiz-adv-x="612" d="M181 739T182 740T189 742H606Q613 742 611 734L608 710Q607 702 598 702H230Q225 702 223 701T220 694L179 401Q178 395 185 395H477Q484 395 482 387L478 362Q477 358 476 357T469 355H181Q176 355 174
353T171 345L130 48Q129 43 130 42T136 40H519Q528 40 527 32L524 6Q524 3 523 2T517 0H87Q77 0 78 11L180 733Q181 739 182 740Z" />
<glyph unicode="F" glyph-name="F" horiz-adv-x="583" d="M181 739T183 740T190 742H594Q603 742 601 734L598 710Q597 702 589 702H231Q226 702 224 700T220 692L178 391V388Q178 382 185 382H483Q490 382 490 375L488 351Q488 342 479 342H179Q174 342 173 340T169
332L124 6Q123 0 114 0H84Q79 0 78 2T78 11L180 732Q181 739 183 740Z" />
<glyph unicode="G" glyph-name="G" horiz-adv-x="730" d="M216 -10T151 64T86 276Q86 403 127 512T248 686T440 752Q500 752 553 726T637 655T669 560Q669 555 669 553T664 549L627 543H625Q621 543 621 553Q620 596 596 632T531 689T439 710Q340 710 271 650T168
491T134 275Q134 156 186 94T339 32Q414 32 471 67T562 154T603 256L614 334V337Q614 340 612 341T605 342H416Q408 342 409 349L412 372Q413 377 417 377H653Q656 377 658 375T659 370L608 10Q607 4 605 2T596 0H579Q572 0 570 2T568 10L583 116V118Q583 121 581
121Q578 121 575 116Q540 60 478 25T336 -10Q216 -10 151 64Z" />
<glyph unicode="H" glyph-name="H" horiz-adv-x="725" d="M181 366Q175 366 173 359L124 8Q123 3 121 2T114 0H87Q76 0 78 11L180 733Q181 739 182 740T189 742H217Q228 742 225 731L181 414V410Q181 407 182 407T188 406H576Q585 406 586 415L631 734Q632 739
633 740T639 742H668Q679 742 676 731L575 9Q574 4 573 2T566 0H539Q528 0 529 10L578 360Q579 364 578 365T573 366H181Z" />
<glyph unicode="I" glyph-name="I" horiz-adv-x="274" d="M217 742Q228 742 225 731L124 11Q123 3 121 2T112 0H89Q82 0 80 2T78 11L180 733Q181 739 182 740T189 742H217Z" />
<glyph unicode="J" glyph-name="J" horiz-adv-x="399" d="M262 68T226 29T121 -10Q85 -10 59 -2T18 15Q10 20 12 25L27 55Q29 58 30 58Q33 58 40 54Q80 34 124 34Q173 34 195 61T228 155L309 734Q310 739 311 740T317 742H347Q356 742 354 731L272 143Q262 68 226 29Z" />
<glyph unicode="K" glyph-name="K" horiz-adv-x="674" d="M590 0T583 0H544Q537 0 535 6L333 410Q332 413 329 413Q328 413 321 408L169 262Q164 258 161 254T157 245L124 8Q123 3 121 2T114 0H88Q77 0 78 10L180 735Q181 739 182 740T188 742H218Q228 742 226
733L168 322Q167 319 168 319T170 320T174 323L614 737Q619 742 629 742H667Q671 742 671 739T669 733L370 450Q369 449 368 448T367 444L584 10Q590 0 583 0Z" />
<glyph unicode="L" glyph-name="L" horiz-adv-x="587" d="M181 739T183 740T191 742H219Q224 742 225 740T225 731L130 48Q129 43 130 42T136 40H499Q504 40 506 39T507 32L504 6Q504 3 503 2T497 0H87Q76 0 78 11L180 733Q181 739 183 740Z" />
<glyph unicode="M" glyph-name="M" horiz-adv-x="879" d="M79 0T78 2T78 11L180 733Q181 739 182 740T189 742H218Q225 742 226 736L401 63Q403 54 406 54Q410 54 416 66L782 736Q784 740 786 741T793 742H822Q827 742 829 740T830 731L729 9Q728 4 727 2T720
0H693Q682 0 683 10L769 622Q770 625 769 625T767 624L431 10Q428 4 425 2T415 0H382Q376 0 374 2T370 11L212 620Q211 623 210 623T208 620L122 8Q121 3 119 2T112 0H84Q79 0 78 2Z" />
<glyph unicode="N" glyph-name="N" horiz-adv-x="755" d="M698 742Q703 742 705 740T706 731L605 9Q604 4 603 2T596 0H581Q574 0 570 1T563 7L223 638Q220 645 216 645Q212 645 210 636L122 8Q121 3 119 2T112 0H87Q76 0 78 11L180 733Q181 739 182 740T189 742H207Q213
742 216 741T221 734L559 104Q563 97 568 97Q574 97 575 108L663 734Q664 739 665 740T671 742H698Z" />
<glyph unicode="O" glyph-name="O" horiz-adv-x="758" d="M218 -10T152 62T86 273Q86 321 93 369Q119 554 211 653T446 752Q568 752 634 678T701 463Q701 415 694 367Q669 184 577 87T342 -10Q218 -10 152 62ZM471 32T547 116T647 371Q654 421 654 470Q654 590
601 650T445 710Q320 710 243 624T140 367Q133 319 133 273Q133 32 346 32Q471 32 547 116Z" />
<glyph unicode="P" glyph-name="P" horiz-adv-x="674" d="M178 327Q169 327 167 317L124 8Q123 0 116 0H86Q82 0 80 2T78 9L180 731Q181 737 182 739T189 742H411Q523 742 587 700T652 570Q652 452 573 390T361 327H178ZM604 642T554 672T406 702H231Q222 702
220 693L176 379V374Q176 370 177 369T183 367H364Q477 367 540 419T604 572Q604 642 554 672Z" />
<glyph unicode="Q" glyph-name="Q" horiz-adv-x="758" d="M119 556T211 654T445 752Q568 752 634 679T701 465Q701 416 694 367Q676 236 626 153T495 24Q486 19 486 12Q486 -2 503 -22T550 -58T613 -79Q622 -80 620 -88L616 -116Q615 -122 595 -122Q560 -122 515
-94T438 -3Q435 2 424 -1Q385 -10 342 -10Q220 -10 153 62T86 275Q86 323 93 371Q119 556 211 654ZM133 316T133 269Q133 32 344 32Q469 32 546 116T647 371Q654 420 654 468Q654 588 602 649T444 710Q318 710 241 623T140 365Q133 316 133 269Z" />
<glyph unicode="R" glyph-name="R" horiz-adv-x="679" d="M565 10T565 6Q565 0 555 0H527Q518 0 516 10L420 346Q418 351 415 353T402 355H183Q177 355 175 353T171 343L124 10Q123 4 122 2T114 0H88Q76 0 78 10L180 733Q181 739 182 740T189 742H447Q546 742
599 703T652 589Q652 504 604 445T473 365Q469 364 467 362T465 358L564 13Q565 10 565 6ZM479 395T541 439T603 584Q603 644 563 673T442 702H233Q222 702 220 693L179 403V400Q179 395 185 395H363Q479 395 541 439Z" />
<glyph unicode="S" glyph-name="S" horiz-adv-x="618" d="M525 666T482 688T380 710Q321 710 273 688T198 626T171 535Q171 459 275 419L406 369Q478 341 510 303T543 210Q543 140 508 91T412 16T272 -10Q188 -10 132 20T41 115Q39 119 39 121Q39 130 48 134L60
142Q64 146 69 146Q75 146 79 139Q116 82 157 57T274 32Q377 32 437 75T497 205Q497 242 473 269T384 322L241 380Q179 405 152 444T125 531Q125 597 159 647T252 724T384 752Q452 752 501 727T588 654Q592 649 592 647T589 641L564 621L562 620Q558 620 552 629Q525
666 482 688Z" />
<glyph unicode="T" glyph-name="T" horiz-adv-x="623" d="M113 736Q113 739 114 740T120 742H637Q644 742 642 734L638 710Q637 702 628 702H417Q411 702 409 700T405 692L309 9Q308 3 307 2T300 0H271Q265 0 264 2T263 11L359 690V693Q359 698 357 700T348 702H117Q109
702 110 710L113 736Z" />
<glyph unicode="U" glyph-name="U" horiz-adv-x="702" d="M576 108T507 49T314 -10Q204 -10 150 37T96 183Q96 208 101 246L170 732Q171 738 172 740T178 742H206Q218 742 215 731L144 225Q141 201 141 181Q141 106 185 69T318 32Q526 32 553 230L624 734Q625
739 626 740T632 742H656Q664 742 664 732L593 229Q576 108 507 49Z" />
<glyph unicode="V" glyph-name="V" horiz-adv-x="690" d="M708 742T704 732L339 10Q336 4 333 2T323 0H291Q282 0 278 2T273 11L119 733V736Q119 742 127 742H150Q156 742 158 740T162 733L306 63Q309 54 312 54Q316 54 319 61L660 736Q662 740 664 741T671 742H700Q708
742 704 732Z" />
<glyph unicode="W" glyph-name="W" horiz-adv-x="1021" d="M1034 742T1034 732L724 10Q722 4 719 2T708 0H676Q661 0 659 11L569 655Q567 662 564 655L288 10Q285 4 282 2T271 0H239Q224 0 223 11L122 733V736Q122 742 130 742H155Q161 742 163 740T166 733L259
72Q261 63 263 63Q267 63 270 72L553 736Q555 740 557 741T566 742H591Q597 742 599 740T602 733L695 70Q697 62 699 62Q701 62 706 73L989 736Q991 742 1001 742H1026Q1034 742 1034 732Z" />
<glyph unicode="X" glyph-name="X" horiz-adv-x="662" d="M573 4T573 2T567 0H531Q527 0 524 5L350 328Q346 335 342 335Q338 335 334 330L66 3Q63 0 58 0H18Q14 0 14 3Q14 6 18 11L311 371Q317 379 317 384Q317 386 315 392L131 735Q128 742 133 742H172Q175
742 177 741T180 737L344 429Q347 424 350 424Q353 424 358 429L612 739Q615 742 620 742H662Q665 742 665 740T664 735L378 384Q373 379 376 373L570 9Q573 4 573 2Z" />
<glyph unicode="Y" glyph-name="Y" horiz-adv-x="638" d="M655 742T656 738T654 730L358 325Q352 316 351 305L309 12Q308 5 305 3T293 0H272Q261 0 263 12L303 296Q304 300 304 306Q304 312 302 316L116 731L114 737Q114 742 123 742H147Q153 742 156 740T162
732L321 375Q326 364 331 364Q337 364 345 375L605 734Q609 739 612 740T622 742H650Q655 742 656 738Z" />
<glyph unicode="Z" glyph-name="Z" horiz-adv-x="600" d="M17 0T19 8L21 23Q23 33 29 40L542 696Q547 702 539 702H134Q126 702 128 710L131 737Q132 742 137 742H604Q611 742 610 735L608 718Q607 712 602 706L85 47Q79 40 86 40H505Q512 40 512 34L508 6Q507
0 501 0H27Q17 0 19 8Z" />
<glyph unicode="[" glyph-name="bracketleft" horiz-adv-x="268" d="M53 -165T50 -163T48 -156L172 737Q173 740 174 741T180 742H312Q321 742 319 736L316 710Q315 705 309 705H220Q216 705 214 703T211 696L94 -123Q94 -126 95 -127T99 -128H188Q196 -128 196
-137L193 -158Q192 -163 191 -164T185 -165H57Q53 -165 50 -163Z" />
<glyph unicode="\" glyph-name="backslash" horiz-adv-x="328" d="M222 -60T222 -51L83 733Q82 739 83 740T88 742H117Q120 742 122 740T124 735L265 -56Q265 -58 264 -59T260 -60H231Q222 -60 222 -51Z" />
<glyph unicode="]" glyph-name="bracketright" horiz-adv-x="268" d="M-46 -165T-44 -159L-41 -133Q-40 -128 -34 -128H55Q59 -128 61 -126T64 -119L181 700Q181 703 180 704T176 705H87Q79 705 79 714L82 735Q83 740 84 741T90 742H218Q223 742 225 740T227 733L103
-160Q102 -163 101 -164T95 -165H-37Q-46 -165 -44 -159Z" />
<glyph unicode="^" glyph-name="asciicircum" horiz-adv-x="476" d="M270 463Q269 467 266 467T261 461L90 145Q86 139 80 139H49Q45 139 44 142T44 150L237 505Q255 540 275 540Q294 540 303 503L398 145Q399 140 398 139T392 137H362Q358 137 355 139T350 146L270 463Z" />
<glyph unicode="_" glyph-name="underscore" horiz-adv-x="501" d="M381 -94Q380 -98 378 -99T371 -101L27 -102Q18 -102 20 -94L23 -68Q24 -62 28 -62L377 -61Q380 -61 382 -63T384 -68L381 -94Z" />
<glyph unicode="`" glyph-name="grave" horiz-adv-x="272" d="M90 753T96 751L312 657Q314 656 315 653T316 646L307 631Q306 627 304 626T297 627L81 704Q71 708 74 717L89 749Q90 753 96 751Z" />
<glyph unicode="a" glyph-name="a" horiz-adv-x="538" d="M289 -10T181 -10Q109 -10 69 23T28 113Q28 207 105 252T300 308L406 317Q414 318 420 322T427 333L431 364Q433 380 433 388Q433 441 398 471T303 502Q252 502 207 479T121 408Q118 405 116 405T111 407L89
422Q84 425 89 433Q129 482 184 511T307 540Q384 540 428 502T473 396Q473 386 471 366L421 9Q420 3 418 2T411 0H393Q383 0 384 10L391 71Q391 76 389 76Q386 76 382 70Q289 -10 181 -10ZM417 267V271Q417 277 415 279T406 280L316 273Q71 255 71 118Q71 75 102
52T189 28Q226 28 263 41T332 78Q363 100 382 124T404 172L417 267Z" />
<glyph unicode="b" glyph-name="b" horiz-adv-x="592" d="M66 0Q53 0 56 14L157 733Q158 738 160 740T166 742H189Q198 742 196 730L161 477L160 471Q160 468 162 468Q163 468 172 475Q174 477 216 508T353 540Q447 540 492 483T538 330Q538 247 508 169T417 40T268
-10Q201 -10 165 16T113 69Q112 72 108 72Q104 72 102 63L92 12Q91 4 89 2T77 0H66ZM118 176Q117 171 117 160Q117 124 138 94T193 46T266 28Q338 28 390 71T468 182T495 325Q495 409 457 455T344 502Q291 502 241 478T153 414L118 176Z" />
<glyph unicode="c" glyph-name="c" horiz-adv-x="537" d="M398 540T442 512T514 431Q520 424 514 420L489 406L487 405Q485 405 479 413Q445 461 412 481T336 502Q263 502 208 461T124 354T94 215Q94 129 139 79T265 28Q317 28 361 53T446 130Q450 134 452 134T456
131L477 116Q480 114 481 111T480 105Q437 48 380 19T259 -10Q164 -10 108 50T52 212Q52 293 85 368T183 492T333 540Q398 540 442 512Z" />
<glyph unicode="d" glyph-name="d" horiz-adv-x="592" d="M437 0Q432 0 429 3T427 12L435 63L436 67Q436 71 434 71Q431 71 424 64Q346 -10 251 -10Q162 -10 107 44T52 201Q52 282 85 360T182 489T337 540Q386 540 417 525T476 485Q483 480 486 480Q491 480 493
494L527 733Q528 739 529 740T536 742H559Q567 742 567 732L465 11Q464 4 462 2T453 0H437ZM485 427Q452 464 416 483T336 502Q262 502 207 460T123 349T94 207Q94 119 140 74T258 28Q304 28 346 50T415 106T448 171L485 427Z" />
<glyph unicode="e" glyph-name="e" horiz-adv-x="577" d="M166 -10T109 50T52 211Q52 295 86 370T184 493T336 540Q429 540 481 485T533 331Q533 300 529 272Q528 264 523 259T510 254H104Q97 254 95 246T92 208Q92 127 140 78T264 28Q383 28 453 123Q459 129
464 124L485 109Q490 106 487 98Q402 -10 262 -10Q166 -10 109 50ZM472 290Q484 290 489 299T494 339Q494 413 450 457T333 502Q270 502 220 471T139 391T102 290H472Z" />
<glyph unicode="f" glyph-name="f" horiz-adv-x="364" d="M371 530T373 528T374 523L371 500Q370 495 365 495H232Q225 495 223 487L156 10Q155 4 154 2T147 0H124Q114 0 116 11L183 489Q185 495 179 495H65Q59 495 59 502L63 525Q63 530 68 530H181Q190 530 190
538L202 619Q211 682 241 712T331 742H403Q406 742 408 740T409 734L406 713Q405 707 398 707H318Q282 707 266 687T243 626L230 536Q229 532 230 531T235 530H369Q371 530 373 528Z" />
<glyph unicode="g" glyph-name="g" horiz-adv-x="582" d="M104 -175T48 -140T-8 -43Q-8 0 19 36T97 96Q103 99 104 101T102 107Q87 118 80 128T73 152Q73 196 148 224Q154 226 155 230T153 236Q120 255 105 281T89 343Q89 403 119 447T200 515T313 538Q411 538
459 492Q462 489 466 489Q472 489 477 493Q503 510 524 520T568 530Q579 530 583 527T587 516L585 503Q583 495 580 492T568 488Q550 487 539 484T511 473Q495 465 489 460T485 449Q486 447 491 432T497 392Q497 303 433 256T273 209Q224 209 170 199T116 157Q116
141 140 134T219 123L338 116Q476 109 476 -3Q476 -91 401 -133T212 -175Q104 -175 48 -140ZM354 247T406 283T458 397Q458 447 422 473T315 500Q237 500 183 461T129 347Q129 298 166 273T275 247Q354 247 406 283ZM303 -137T368 -107T433 -3Q433 35 411 53T333
75L162 86Q105 72 70 40T35 -37Q35 -137 211 -137Q303 -137 368 -107Z" />
<glyph unicode="h" glyph-name="h" horiz-adv-x="576" d="M64 0Q59 0 57 3T55 10L157 734Q158 739 159 740T165 742H186Q196 742 194 733L156 466Q155 455 162 459Q237 505 277 522T367 540Q438 540 475 507T512 418Q512 410 510 392L456 9Q455 4 454 2T447 0H425Q420
0 418 3T416 10L468 378Q470 398 470 408Q470 502 364 502Q314 502 271 482T152 409L95 8Q94 0 86 0H64Z" />
<glyph unicode="i" glyph-name="i" horiz-adv-x="222" d="M191 659Q190 651 188 648T178 644H151Q139 644 141 659L151 730Q153 742 164 742H190Q195 742 198 738T201 728L191 659ZM95 11Q94 3 92 2T83 0H66Q59 0 57 2T55 11L127 521Q128 527 129 528T136 530H158Q168
530 167 519L95 11Z" />
<glyph unicode="j" glyph-name="j" horiz-adv-x="222" d="M191 659Q190 651 188 648T178 644H151Q139 644 141 659L151 730Q153 742 164 742H190Q195 742 198 738T201 728L191 659ZM77 -116T51 -143T-41 -170Q-85 -170 -96 -168T-107 -160L-104 -139Q-103 -134
-98 -134L-40 -133Q0 -132 20 -112T47 -45L127 521Q128 526 130 528T137 530H159Q169 530 167 519L86 -52Q77 -116 51 -143Z" />
<glyph unicode="k" glyph-name="k" horiz-adv-x="538" d="M470 4T470 2T463 0H432Q424 0 421 8L280 300Q278 302 277 302T272 298L125 168Q116 159 115 151L95 11Q94 3 92 2T83 0H66Q59 0 57 2T55 11L157 733Q158 739 159 740T166 742H188Q199 742 196 731L127
233Q126 230 126 226Q126 224 127 224Q128 224 135 230L460 521Q466 527 469 528T478 530H510Q519 530 519 524Q519 520 512 514L319 341Q312 336 314 330L467 11Q470 4 470 2Z" />
<glyph unicode="l" glyph-name="l" horiz-adv-x="222" d="M95 11Q94 3 92 2T83 0H66Q59 0 57 2T55 11L157 733Q158 739 159 740T166 742H188Q199 742 196 731L95 11Z" />
<glyph unicode="m" glyph-name="m" horiz-adv-x="897" d="M59 0T57 3T55 10L127 522Q128 527 129 528T135 530H156Q166 530 164 521L156 464Q155 455 161 459Q230 504 270 522T357 540Q416 540 449 514T487 452Q487 450 489 450Q491 450 495 454T502 459Q573 505
612 522T698 540Q764 540 798 508T833 419Q833 410 831 392L777 9Q776 4 775 2T768 0H746Q741 0 739 3T737 10L789 378Q791 389 791 410Q791 455 768 478T695 502Q646 502 604 480T513 422Q501 414 496 408T490 392L436 9Q435 0 427 0H405Q401 0 398 3T396 10L448
378Q450 389 450 410Q450 502 354 502Q307 502 266 482T152 409L95 8Q94 0 86 0H64Q59 0 57 3Z" />
<glyph unicode="n" glyph-name="n" horiz-adv-x="576" d="M59 0T57 3T55 10L127 522Q128 527 129 528T135 530H156Q166 530 164 521L155 459Q154 453 155 452T162 455Q218 498 266 519T367 540Q438 540 475 507T512 418Q512 410 510 392L456 9Q455 4 454 2T447
0H425Q420 0 418 3T416 10L468 378Q470 398 470 408Q470 502 364 502Q314 502 271 482T152 409L95 8Q94 0 86 0H64Q59 0 57 3Z" />
<glyph unicode="o" glyph-name="o" horiz-adv-x="598" d="M165 -10T109 50T52 211Q52 304 90 379T193 497T337 540Q434 540 489 478T545 313Q545 221 508 147T405 32T262 -10Q165 -10 109 50ZM333 28T387 64T472 166T503 315Q503 401 459 451T335 502Q268 502
213 465T126 362T94 214Q94 129 140 79T266 28Q333 28 387 64Z" />
<glyph unicode="p" glyph-name="p" horiz-adv-x="590" d="M36 -165T34 -162T32 -155L127 519Q128 526 130 528T139 530H155Q160 530 163 527T165 518L157 467V464Q157 460 159 460Q162 460 168 466Q171 468 192 488T254 524T341 540Q430 540 483 486T537 331Q537
248 504 169T407 40T255 -10Q208 -10 173 5T116 41Q109 46 107 46Q100 46 98 32L72 -156Q71 -162 70 -163T63 -165H40Q36 -165 34 -162ZM329 28T383 70T466 181T495 323Q495 411 450 456T334 502Q286 502 244 481T176 427T145 363L107 103Q141 66 177 47T256 28Q329
28 383 70Z" />
<glyph unicode="q" glyph-name="q" horiz-adv-x="593" d="M402 -165T403 -153L430 35Q431 39 431 44Q431 47 430 47Q428 47 418 40Q386 18 344 4T254 -10Q159 -10 107 49T54 210Q54 291 83 366T174 491T326 540Q377 540 408 528T452 504T481 471Q485 467 487 467Q491
467 494 477L504 518Q505 525 508 527T521 530H529Q535 530 537 527T537 516L443 -156Q442 -165 433 -165H411Q402 -165 403 -153ZM308 28T355 49T439 106L475 354Q476 359 476 370Q476 405 458 435T405 484T328 502Q257 502 204 461T124 354T96 216Q96 128 141
78T261 28Q308 28 355 49Z" />
<glyph unicode="r" glyph-name="r" horiz-adv-x="356" d="M59 0T57 3T55 10L127 522Q128 527 129 528T135 530H156Q166 530 164 521L154 455V453Q154 449 156 449T163 453Q211 501 250 520T332 540Q369 540 367 529L363 503Q363 499 360 499Q356 499 350 499T330
500Q297 500 255 480T181 428T145 364L95 8Q94 0 86 0H64Q59 0 57 3Z" />
<glyph unicode="s" glyph-name="s" horiz-adv-x="501" d="M133 -10T79 21T8 103Q5 110 10 113L33 126Q39 129 42 122Q63 77 105 53T208 28Q245 28 286 40T356 78T386 144Q386 205 282 236L183 266Q72 300 72 376Q72 426 101 463T179 520T283 540Q346 540 392 516T461
446Q464 440 458 437L437 424Q436 423 434 423Q430 423 428 428Q409 464 371 483T280 502Q243 502 205 490T140 451T114 387Q114 363 133 343T199 308L328 266Q377 250 402 220T428 151Q428 100 395 64T310 9T206 -10Q133 -10 79 21Z" />
<glyph unicode="t" glyph-name="t" horiz-adv-x="358" d="M152 0T131 19T109 81Q109 99 112 120L163 489Q164 493 163 494T158 495H65Q59 495 59 502L63 525Q63 530 68 530H162Q165 530 167 532T170 538L202 701Q203 710 212 710H226Q235 710 233 698L210 536Q209
532 210 531T215 530H354Q357 530 359 528T360 523L357 500Q357 497 356 496T351 495H212Q205 495 203 487L152 123Q149 104 149 89Q149 57 161 46T201 35H280Q288 35 288 27L285 10Q284 6 280 3Q259 0 202 0Q152 0 131 19Z" />
<glyph unicode="u" glyph-name="u" horiz-adv-x="571" d="M145 -10T105 25T64 117Q64 131 65 138L119 521Q120 526 122 528T128 530H150Q155 530 157 527T159 520L108 158Q106 140 106 132Q106 28 211 28Q260 28 310 54T421 134L476 522Q477 530 485 530H507Q512
530 514 527T516 520L444 8Q443 3 442 2T436 0H415Q406 0 407 9L416 70V73Q416 79 408 74Q341 26 296 8T210 -10Q145 -10 105 25Z" />
<glyph unicode="v" glyph-name="v" horiz-adv-x="530" d="M531 530T533 527T534 520L255 10Q252 4 248 2T237 0H223Q215 0 210 3T204 11L69 521V524Q69 530 77 530H99Q110 530 110 521L230 67Q232 58 236 58Q240 58 246 70L493 524Q495 528 497 529T504 530H526Q531
530 533 527Z" />
<glyph unicode="w" glyph-name="w" horiz-adv-x="783" d="M778 530T781 527T783 520L563 10Q559 0 546 0H519Q511 0 507 3T502 11L423 447Q422 454 419 454Q416 454 413 445L221 10Q219 4 216 2T205 0H175Q167 0 163 3T158 11L73 521V524Q73 530 81 530H104Q115
530 115 521L191 66Q193 57 196 57Q200 57 204 69L408 525Q409 528 411 529T417 530H440Q451 530 451 521L534 66Q536 57 538 57Q542 57 546 69L744 524Q748 530 757 530H774Q778 530 781 527Z" />
<glyph unicode="x" glyph-name="x" horiz-adv-x="515" d="M446 4T446 2T440 0H406Q402 0 399 2T395 6L261 230Q258 234 256 234Q252 234 247 228L42 4Q39 0 30 0H5Q-5 0 -5 6Q-5 10 0 15L228 260Q237 269 233 277L85 522Q81 530 89 530H120Q127 530 130 524L262
309Q263 305 267 305Q272 305 276 311L465 526Q467 529 470 529T477 530H504Q509 530 510 527T509 521L293 280Q283 270 289 263L441 11Q446 4 446 2Z" />
<glyph unicode="y" glyph-name="y" horiz-adv-x="508" d="M38 -165T19 -165T-8 -163T-15 -156L-13 -141Q-12 -134 -6 -132T19 -129H75Q102 -129 129 -104T174 -44T192 20Q192 26 190 36L67 517V521Q67 530 76 530H100Q105 530 107 529T110 523L223 79Q225 70 229
70Q235 70 240 81L473 522Q476 530 484 530H508Q512 530 512 528T511 522L197 -76Q172 -124 135 -144T46 -165Q38 -165 19 -165Z" />
<glyph unicode="z" glyph-name="z" horiz-adv-x="458" d="M-2 0T0 8L3 29Q4 37 15 49L397 486Q401 490 401 492T396 495H96Q92 495 91 496T91 503L94 524Q95 530 102 530H446Q450 530 450 525L446 500Q445 489 435 479L54 43Q50 39 50 37T54 35H382Q389 35 387
29L384 8Q383 3 382 2T376 0H6Q-2 0 0 8Z" />
<glyph unicode="{" glyph-name="braceleft" horiz-adv-x="267" d="M116 -165T92 -144T68 -89Q68 -78 69 -72L102 163Q103 167 103 176Q103 214 79 241T7 269Q5 269 3 271T2 276L5 303Q6 308 8 308Q63 309 97 340T138 420L171 653Q176 694 206 718T290 742H311Q320
742 318 736L315 710Q314 705 308 705H287Q253 705 236 692T214 651L182 418Q173 360 143 328T72 292Q65 291 63 289T67 285Q103 282 125 259T147 190Q147 181 145 161L112 -74Q111 -79 111 -88Q111 -109 124 -118T169 -128H188Q196 -128 196 -137L193 -158Q192
-163 191 -164T185 -165H166Q116 -165 92 -144Z" />
<glyph unicode="|" glyph-name="bar" horiz-adv-x="267" d="M63 -165Q59 -165 57 -163T55 -159L195 841Q197 847 201 847H226Q235 847 233 836L94 -158Q93 -163 92 -164T87 -165H63Z" />
<glyph unicode="}" glyph-name="braceright" horiz-adv-x="267" d="M-46 -165T-44 -159L-41 -133Q-40 -128 -34 -128H-13Q21 -128 38 -115T60 -74L92 159Q101 217 131 249T202 285Q209 286 211 288T207 292Q171 295 149 318T127 387Q127 396 129 416L162 651Q163
656 163 665Q163 686 150 695T105 705H86Q78 705 78 714L81 735Q82 740 83 741T89 742H108Q158 742 182 721T206 666Q206 655 205 649L172 414Q171 410 171 401Q171 363 195 336T266 308Q268 308 270 306T271 301L268 274Q267 269 265 269Q211 268 177 237T136
157L103 -76Q98 -117 68 -141T-16 -165H-37Q-46 -165 -44 -159Z" />
<glyph unicode="~" glyph-name="asciitilde" horiz-adv-x="542" d="M475 357T447 346T379 335Q351 335 331 340T282 358Q258 368 240 373T200 379Q138 379 94 339L89 337Q86 337 85 344L80 363Q77 369 81 373Q109 393 135 404T197 416Q222 416 243 410T291 393Q320
382 339 377T381 371Q415 371 436 381T475 408Q479 410 481 410Q485 410 486 403L492 382Q493 381 493 378Q493 375 489 370Q475 357 447 346Z" />
<glyph unicode="&#xa0;" glyph-name="uni00A0" horiz-adv-x="220" />
<glyph unicode="&#xa1;" glyph-name="exclamdown" horiz-adv-x="232" d="M173 454T172 453T167 451H119Q112 451 113 461L121 521Q122 527 123 528T131 530H170Q185 530 183 518L174 458Q173 454 172 453ZM83 -165T78 -165H36Q34 -165 32 -163T31 -157L116 376Q116
380 117 381T123 382H137Q149 382 147 373L83 -160Q83 -165 78 -165Z" />
<glyph unicode="&#xa2;" glyph-name="cent" horiz-adv-x="558" d="M498 535T492 531L467 517L465 516Q463 516 457 524Q423 572 390 592T314 613Q241 613 186 572T102 465T72 326Q72 240 117 190T243 139Q295 139 339 164T424 241Q428 245 430 245T434 242L455
227Q458 225 459 222T458 216Q388 122 282 105L269 12Q268 5 266 3T256 0H240Q226 0 229 13L241 101H237Q142 101 86 161T30 323Q30 404 63 479T161 603T311 651H318L330 734Q331 742 339 742H363Q371 742 371 733L359 647Q445 629 492 542Q498 535 492 531Z" />
<glyph unicode="&#xa3;" glyph-name="sterling" horiz-adv-x="597" d="M-20 0T-22 2T-24 9L-21 33Q-21 36 -20 37T-14 39H21Q64 38 98 83T145 216Q152 265 152 355Q151 358 148 358H55Q53 358 51 360T50 365L54 391Q54 396 58 396H142Q145 396 148 398T151 403L142
474Q140 498 140 510Q140 582 172 637T256 722T368 752Q408 752 444 739T503 703T533 657Q535 655 534 654T531 652T528 651L504 640L500 639Q495 639 493 645Q466 709 368 709Q299 709 248 670T187 565Q183 538 183 503Q183 449 191 401Q195 397 197 397H368Q374
397 374 391L370 364Q369 359 364 359H204Q194 359 194 350Q196 324 196 309Q196 274 190 230Q180 157 157 112T111 45Q110 44 108 42T110 40H321Q377 40 415 58T477 119Q483 124 488 122L509 113Q516 108 514 103Q454 0 318 0H-16Q-20 0 -22 2Z" />
<glyph unicode="&#xa4;" glyph-name="currency" horiz-adv-x="513" d="M193 204T155 236L150 238Q147 238 142 233L96 192Q92 188 87 188Q83 188 77 194L68 206Q63 211 63 215Q63 218 68 223L114 263Q121 271 118 280Q100 313 100 352Q100 384 112 415T146 473Q152
479 149 484L114 524Q110 532 110 534Q110 538 115 543L128 554Q132 558 136 558Q141 558 144 552L180 511Q182 509 183 509Q186 509 191 512Q237 541 292 541Q346 541 383 509Q385 508 388 508Q394 508 398 512L450 558Q452 560 455 560Q459 560 463 556L478 539Q482
532 478 527L424 480Q418 474 420 468Q439 435 439 393Q439 329 396 276Q392 272 391 269T393 263L432 218Q438 210 433 205L413 188Q408 183 402 190L364 235Q357 241 352 235Q302 204 248 204Q193 204 155 236ZM291 248T324 268T378 322T398 393Q398 437 368
467T292 498Q254 498 221 478T167 424T146 355Q146 310 176 279T253 248Q291 248 324 268Z" />
<glyph unicode="&#xa5;" glyph-name="yen" horiz-adv-x="578" d="M621 742T623 738T622 730L333 337H477Q480 337 482 335T484 330L481 306Q480 302 478 301T471 299H320L305 197H457Q460 197 462 195T464 190L461 166Q460 162 458 161T451 159H300L279 12Q278
5 275 3T264 0H245Q231 0 233 12L254 158H103Q93 158 95 166L98 190Q99 196 103 196H259L274 298H123Q113 298 115 306L118 330Q119 336 123 336H266L88 731Q87 733 87 737Q87 742 96 742H123Q129 742 132 740T138 732L296 374Q301 365 303 365Q306 365 313 375L577
734Q581 740 584 741T594 742H616Q621 742 623 738Z" />
<glyph unicode="&#xa6;" glyph-name="brokenbar" horiz-adv-x="267" d="M148 443Q144 443 142 445T141 449L195 841Q197 847 201 847H226Q235 847 233 836L179 450Q178 446 177 445T172 443H148ZM63 -165Q59 -165 57 -163T55 -159L110 233Q110 239 115 239H140Q150
239 148 228L94 -158Q93 -163 92 -164T87 -165H63Z" />
<glyph unicode="&#xa7;" glyph-name="section" horiz-adv-x="477" d="M362 168T383 141T404 79Q404 38 378 5T307 -48T205 -68Q142 -68 90 -37T17 46Q14 51 16 52L42 67Q49 71 51 63Q71 22 113 -3T210 -28Q275 -28 318 1T361 79Q361 107 338 131T259 178L166 216Q69
256 69 334Q69 341 71 355Q77 400 112 434T200 486Q148 513 128 541T107 603Q107 611 109 625Q117 680 170 716T302 752Q359 752 402 726T467 658Q472 653 467 651L445 638Q441 636 438 637T434 641Q413 674 381 693T306 712Q235 712 193 685T151 612Q151 587 170
564T238 520L323 483Q385 456 413 422T441 343Q441 285 409 252T322 194Q362 168 383 141ZM293 220T322 233T371 269T395 320Q397 336 397 344Q397 373 379 395T315 437L254 463Q204 458 162 426T115 354Q114 348 114 338Q114 312 132 293T198 252L265 222Q293
220 322 233Z" />
<glyph unicode="&#xa8;" glyph-name="dieresis" horiz-adv-x="181" d="M115 655Q113 647 111 646T102 644H75Q68 644 66 646T65 655L76 733Q77 739 78 740T85 742H117Q128 742 125 731L115 655ZM226 655Q224 647 222 646T213 644H186Q179 644 177 646T176 655L187
733Q188 739 189 740T196 742H228Q239 742 236 731L226 655Z" />
<glyph unicode="&#xa9;" glyph-name="copyright" horiz-adv-x="830" d="M283 -10T207 33T88 151T45 318Q45 348 49 373Q64 476 127 563T284 701T481 752Q576 752 652 709T771 589T815 421Q815 405 811 369Q796 265 733 178T575 41T378 -10Q283 -10 207 33ZM471
34T554 76T694 196T766 373Q770 407 770 424Q770 508 731 573T626 673T479 709Q388 709 305 666T165 546T94 369Q90 344 90 315Q90 230 128 167T232 69T381 34Q471 34 554 76ZM511 590T545 566T605 497Q606 495 606 493T605 491L576 475H575Q571 475 568 481Q550
516 523 533T463 551Q397 551 348 502T288 373Q286 361 286 339Q286 275 319 237T409 198Q449 198 485 220T547 279Q550 282 557 277L575 265Q578 263 578 256Q542 210 498 185T404 159Q329 159 285 206T241 334Q241 354 244 375Q253 437 283 486T360 562T461 590Q511
590 545 566Z" />
<glyph unicode="&#xaa;" glyph-name="ordfeminine" horiz-adv-x="405" d="M310 749T339 724T368 654Q368 647 366 633L343 471Q340 455 340 444Q340 435 343 417Q347 411 340 411H315Q306 411 306 418L305 456Q305 459 303 458T298 454Q268 428 241 417T180 405Q132
405 106 425T79 483Q79 537 122 567T253 605L315 611Q327 613 328 621L331 639Q332 644 332 654Q332 715 251 715Q218 715 194 704T147 663Q144 660 139 663L116 674Q116 674 116 676T116 682Q138 714 174 731T256 749Q310 749 339 724ZM114 469T133 453T189 437Q237
437 275 471Q311 497 314 522L321 571V575Q321 580 313 579L263 575Q129 565 118 495Q114 469 133 453Z" />
<glyph unicode="&#xab;" glyph-name="guillemotleft" horiz-adv-x="421" d="M176 82Q178 79 177 79T171 78H159Q156 78 154 79T151 83L37 251Q32 260 36 264L201 442Q203 445 205 445T208 445H222Q226 445 228 442T228 436L89 262Q83 254 86 250L176 82ZM343 82Q345
79 344 79T338 78H326Q323 78 321 79T318 83L204 251Q199 260 203 264L368 442Q370 445 372 445T375 445H389Q393 445 395 442T395 436L256 262Q250 254 253 250L343 82Z" />
<glyph unicode="&#xac;" glyph-name="logicalnot" horiz-adv-x="541" d="M485 368L465 221Q464 217 463 216T458 214H435Q431 214 429 216T428 220L446 354L91 353Q83 353 83 361L87 385Q88 391 92 391L481 392Q488 392 488 385L485 368Z" />
<glyph unicode="&#xad;" glyph-name="uni00AD" horiz-adv-x="381" d="M528 253Q527 249 525 248T518 246L295 245Q287 245 287 253L291 279Q292 285 296 285L525 286Q528 286 530 284T532 279L528 253Z" />
<glyph unicode="&#xae;" glyph-name="registered" horiz-adv-x="545" d="M216 275T169 302T94 376T67 481Q67 503 69 515Q78 580 117 634T215 720T339 752Q398 752 446 725T521 650T548 544Q548 522 546 511Q537 447 497 393T399 307T276 275Q216 275 169 302ZM336
310T386 335T469 407T510 515Q513 533 513 550Q513 626 466 671T339 717Q279 717 229 692T146 619T105 511Q102 492 102 474Q102 398 149 354T277 310Q336 310 386 335ZM373 393T370 393H346Q344 393 343 394T343 397L316 505Q316 506 316 506T310 507H254Q250
507 248 502L233 396Q233 395 233 394T231 393H208Q203 393 205 397L237 627Q237 628 237 629T238 630H338Q370 630 388 617T406 579L405 570Q398 526 349 510Q347 510 346 509T345 507L373 397Q373 393 370 393ZM374 535T374 575Q374 588 364 595T326 602H267Q266
602 265 602T262 598L253 537Q253 535 255 535H318Q374 535 374 575Z" />
<glyph unicode="&#xaf;" glyph-name="overscore" horiz-adv-x="272" d="M322 691Q321 687 320 686T312 684H77Q68 684 70 693L73 716Q74 722 78 722H320Q322 722 324 720T325 715L322 691Z" />
<glyph unicode="&#xb0;" glyph-name="degree" horiz-adv-x="464" d="M446 681T423 642T360 580T275 558Q216 558 180 593T143 685Q143 734 165 773T227 835T313 858Q372 858 409 823T446 729Q446 681 423 642ZM403 771T379 795T310 819Q255 819 219 782T183 686Q183
644 207 619T275 594Q331 594 367 632T403 730Q403 771 379 795Z" />
<glyph unicode="&#xb1;" glyph-name="plusminus" horiz-adv-x="541" d="M498 462T498 455L494 431Q493 427 491 426T484 424H311L287 248Q286 242 281 242H258Q248 242 250 253L274 423H101Q93 423 93 431L97 455Q97 461 102 461H279L303 636Q304 641 305 642T310
643H334Q338 643 340 641T341 637L317 462H491Q498 462 498 455ZM450 122T450 115L447 91Q446 87 444 86T437 84L53 83Q44 83 46 91L49 115Q50 121 54 121L443 122Q450 122 450 115Z" />
<glyph unicode="&#xb2;" glyph-name="uni00B2" horiz-adv-x="452" d="M191 576Q247 626 278 667T309 751Q309 789 281 810T215 831Q183 831 149 816T89 770Q85 765 82 768L67 782Q65 784 69 790Q99 823 139 840T220 857Q270 857 304 831T338 753Q338 717 322 685T279
625T204 553L51 417Q47 415 48 413T53 410H290Q296 410 295 405L293 389Q293 388 292 386T288 384H19Q11 384 12 392L13 405Q14 412 16 416T24 426L191 576Z" />
<glyph unicode="&#xb3;" glyph-name="uni00B3" horiz-adv-x="467" d="M95 791T94 794T95 799Q131 830 164 843T237 857Q297 857 332 829T368 756Q368 714 341 682T266 633Q263 632 263 631T267 628Q303 619 326 592T350 526Q350 486 328 453T264 399T163 378Q110
378 82 393T26 439Q24 442 26 444L42 458Q44 460 46 458Q83 404 168 404Q234 404 278 436T322 523Q322 568 286 592T198 617H141Q139 617 137 618T136 622L138 638Q138 642 143 642H189Q228 642 262 656T318 696T339 753Q339 787 312 809T238 831Q198 831 170 818T112
780Q108 777 106 777T102 782L95 790Q95 791 94 794Z" />
<glyph unicode="&#xb4;" glyph-name="acute" horiz-adv-x="272" d="M324 715V711Q324 706 317 704L79 627L75 626Q69 626 69 633L65 648Q63 656 68 657L310 751Q312 752 315 751T318 747L324 715Z" />
<glyph unicode="&#xb6;" glyph-name="paragraph" horiz-adv-x="534" d="M458 710Q456 710 454 708T452 704L341 -81Q341 -82 341 -83T338 -85H313Q310 -85 309 -83T308 -79L418 707Q418 710 415 710H380Q378 710 376 708T374 704L263 -81Q263 -85 259 -85H234Q232
-85 230 -84T229 -79L282 302Q282 304 281 304Q219 304 176 328T111 394T89 485Q89 494 91 516Q99 574 132 626T222 710T354 742H512Q518 742 516 737L513 712Q513 710 513 710T510 710H458Z" />
<glyph unicode="&#xb7;" glyph-name="middot" horiz-adv-x="172" d="M138 344Q137 338 135 336T125 334H66Q54 334 56 345L65 405Q66 413 72 413H140Q147 413 147 404L138 344Z" />
<glyph unicode="&#xb8;" glyph-name="cedilla" horiz-adv-x="196" d="M131 -159T100 -181T22 -204Q-20 -204 -48 -182Q-53 -182 -53 -176L-40 -156Q-39 -153 -34 -158Q-25 -166 -14 -170T18 -174Q52 -174 69 -161T87 -122Q87 -103 71 -94T18 -83Q12 -83 12 -78L60
5H94L62 -56Q61 -58 63 -58Q99 -61 115 -77T131 -118Q131 -159 100 -181Z" />
<glyph unicode="&#xb9;" glyph-name="uni00B9" horiz-adv-x="367" d="M211 406T211 402L208 384Q207 380 204 380H1Q-3 380 -2 384L0 403Q1 406 4 406H93Q95 406 97 410L153 807Q155 812 149 810L57 775Q52 773 52 779L54 793Q56 800 60 801L150 844Q157 847 165
847H182Q188 847 187 840L126 410Q125 408 126 407T128 406H206Q211 406 211 402Z" />
<glyph unicode="&#xba;" glyph-name="ordmasculine" horiz-adv-x="419" d="M339 751T374 713T409 609Q409 587 407 575Q396 499 350 453T231 407Q167 407 133 444T98 545Q98 567 100 579Q111 657 158 704T275 751Q339 751 374 713ZM219 716T184 679T141 578Q138
560 138 544Q138 495 162 468T232 440Q287 440 322 478T367 582Q369 602 369 612Q369 660 345 688T274 716Q219 716 184 679Z" />
<glyph unicode="&#xbb;" glyph-name="guillemotright" horiz-adv-x="420" d="M168 259T165 264L75 438Q72 445 79 445H93Q96 445 100 440L215 262Q219 255 214 249L51 81Q50 78 44 78H32Q21 78 24 84L161 252Q168 259 165 264ZM335 259T332 264L242 438Q239 445
246 445H260Q263 445 267 440L382 262Q387 255 381 249L218 81Q217 78 211 78H199Q188 78 191 84L328 252Q335 259 332 264Z" />
<glyph unicode="&#xbc;" glyph-name="onequarter" horiz-adv-x="860" d="M200 302T200 298L197 280Q196 276 193 276H-10Q-14 276 -13 280L-11 299Q-10 302 -7 302H82Q84 302 86 306L142 703Q144 708 138 706L46 671Q41 669 41 675L43 689Q45 696 49 697L139 740Q146
743 154 743H171Q177 743 176 736L115 306Q114 304 115 303T117 302H195Q200 302 200 298ZM160 3Q156 -1 153 -2T144 -4H128Q120 -4 120 2Q120 6 123 10L716 746Q719 750 723 750T728 750H748Q752 750 754 748T753 741L160 3ZM700 467T705 467H727Q732 467 732
460L690 165Q690 161 693 161H757Q764 161 764 156L761 140Q761 135 755 135H690Q685 135 685 130L668 5Q668 2 666 1T661 0H642Q638 0 639 6L656 130Q658 135 652 135H438Q432 135 433 142L436 161Q437 168 443 175L697 464Q700 467 705 467ZM654 161Q658 161
659 166L693 414V415Q693 417 692 417Q690 417 685 411L471 169Q464 161 471 161H654Z" />
<glyph unicode="&#xbd;" glyph-name="onehalf" horiz-adv-x="923" d="M200 302T200 298L197 280Q196 276 193 276H-10Q-14 276 -13 280L-11 299Q-10 302 -7 302H82Q84 302 86 306L142 703Q144 708 138 706L46 671Q41 669 41 675L43 689Q45 696 49 697L139 740Q146
743 154 743H171Q177 743 176 736L115 306Q114 304 115 303T117 302H195Q200 302 200 298ZM173 3Q169 -1 166 -2T157 -4H141Q133 -4 133 2Q133 6 136 10L729 746Q732 750 736 750T741 750H761Q765 750 767 748T766 741L173 3ZM672 192Q728 242 759 283T790 367Q790
405 762 426T696 447Q664 447 630 432T570 386Q566 381 563 384L548 398Q546 400 550 406Q580 439 620 456T701 473Q751 473 785 447T819 369Q819 333 803 301T760 241T685 169L532 33Q528 31 529 29T534 26H771Q777 26 776 21L774 5Q774 4 773 2T769 0H500Q492
0 493 8L494 21Q495 28 497 32T505 42L672 192Z" />
<glyph unicode="&#xbe;" glyph-name="threequarters" horiz-adv-x="882" d="M83 686T82 689T83 694Q119 725 152 738T225 752Q285 752 320 724T356 651Q356 609 329 577T254 528Q251 527 251 526T255 523Q291 514 314 487T338 421Q338 381 316 348T252 294T151
273Q98 273 70 288T14 334Q12 337 14 339L30 353Q32 355 34 353Q71 299 156 299Q222 299 266 331T310 418Q310 463 274 487T186 512H129Q127 512 125 513T124 517L126 533Q126 537 131 537H177Q216 537 250 551T306 591T327 648Q327 682 300 704T226 726Q186 726
158 713T100 675Q96 672 94 672T90 677L83 685Q83 686 82 689ZM260 3Q256 -1 253 -2T244 -4H228Q220 -4 220 2Q220 6 223 10L816 746Q819 750 823 750T828 750H848Q852 750 854 748T853 741L260 3ZM722 467T727 467H749Q754 467 754 460L712 165Q712 161 715 161H779Q786
161 786 156L783 140Q783 135 777 135H712Q707 135 707 130L690 5Q690 2 688 1T683 0H664Q660 0 661 6L678 130Q680 135 674 135H460Q454 135 455 142L458 161Q459 168 465 175L719 464Q722 467 727 467ZM676 161Q680 161 681 166L715 414V415Q715 417 714 417Q712
417 707 411L493 169Q486 161 493 161H676Z" />
<glyph unicode="&#xbf;" glyph-name="questiondown" horiz-adv-x="506" d="M267 520Q268 526 270 528T280 530H319Q331 530 329 519L320 459Q320 455 319 453T313 451H265Q258 451 258 460L267 520ZM424 -48T421 -54Q382 -109 317 -142T181 -175Q93 -175 43 -134T-8
-21Q-8 26 8 60T50 119T117 176Q158 208 183 232T229 292T256 374Q258 380 263 380H290Q294 380 296 377T298 369Q291 318 270 280T222 216T153 157Q100 116 73 84T39 5Q38 -2 38 -16Q38 -70 76 -101T183 -133Q241 -133 300 -103T381 -31Q383 -30 385 -30T390 -30L418
-44Q424 -48 421 -54Z" />
<glyph unicode="&#xc0;" glyph-name="Agrave" horiz-adv-x="700" d="M19 0T17 3T16 10L384 732Q387 738 390 740T400 742H433Q449 742 449 731L611 9V6Q611 0 603 0H579Q567 0 567 9L516 232Q515 236 514 237T508 238H186Q178 238 175 230L60 6Q58 0 49 0H24Q19
0 17 3ZM497 278Q507 278 505 289L416 679Q415 688 411 688Q407 688 402 676L203 290Q200 283 200 281T204 278H497ZM316 965T322 963L538 869Q540 868 541 865T542 858L533 843Q532 839 530 838T523 839L307 916Q297 920 300 929L315 961Q316 965 322 963Z" />
<glyph unicode="&#xc1;" glyph-name="Aacute" horiz-adv-x="700" d="M19 0T17 3T16 10L384 732Q387 738 390 740T400 742H433Q449 742 449 731L611 9V6Q611 0 603 0H579Q567 0 567 9L516 232Q515 236 514 237T508 238H186Q178 238 175 230L60 6Q58 0 49 0H24Q19
0 17 3ZM497 278Q507 278 505 289L416 679Q415 688 411 688Q407 688 402 676L203 290Q200 283 200 281T204 278H497ZM568 927V923Q568 918 561 916L323 839L319 838Q313 838 313 845L309 860Q307 868 312 869L554 963Q556 964 559 963T562 959L568 927Z" />
<glyph unicode="&#xc2;" glyph-name="Acircumflex" horiz-adv-x="700" d="M19 0T17 3T16 10L384 732Q387 738 390 740T400 742H433Q449 742 449 731L611 9V6Q611 0 603 0H579Q567 0 567 9L516 232Q515 236 514 237T508 238H186Q178 238 175 230L60 6Q58 0 49 0H24Q19
0 17 3ZM497 278Q507 278 505 289L416 679Q415 688 411 688Q407 688 402 676L203 290Q200 283 200 281T204 278H497ZM451 911Q446 916 443 916Q441 916 439 914T432 909L363 861Q358 858 355 857T347 856H310Q305 856 304 859T308 867L418 946Q429 954 439 954H457Q463
954 466 950T472 945L559 865Q564 860 564 858T558 856H517Q512 856 508 859T503 863L451 911Z" />
<glyph unicode="&#xc3;" glyph-name="Atilde" horiz-adv-x="700" d="M19 0T17 3T16 10L384 732Q387 738 390 740T400 742H433Q449 742 449 731L611 9V6Q611 0 603 0H579Q567 0 567 9L516 232Q515 236 514 237T508 238H186Q178 238 175 230L60 6Q58 0 49 0H24Q19
0 17 3ZM497 278Q507 278 505 289L416 679Q415 688 411 688Q407 688 402 676L203 290Q200 283 200 281T204 278H497ZM551 895T536 890T497 885Q479 885 466 888T434 898Q407 909 387 909Q370 909 359 905T340 895T328 888Q326 887 322 887Q318 887 317 894L311
910Q310 916 312 919Q334 932 349 937T383 943Q409 943 442 930Q478 918 499 918Q515 918 525 922T551 935Q557 937 558 937Q563 937 565 930L571 912Q574 907 567 903Q551 895 536 890Z" />
<glyph unicode="&#xc4;" glyph-name="Adieresis" horiz-adv-x="700" d="M19 0T17 3T16 10L384 732Q387 738 390 740T400 742H433Q449 742 449 731L611 9V6Q611 0 603 0H579Q567 0 567 9L516 232Q515 236 514 237T508 238H186Q178 238 175 230L60 6Q58 0 49 0H24Q19
0 17 3ZM497 278Q507 278 505 289L416 679Q415 688 411 688Q407 688 402 676L203 290Q200 283 200 281T204 278H497ZM404 867Q402 859 400 858T391 856H364Q357 856 355 858T354 867L365 945Q366 951 367 952T374 954H406Q417 954 414 943L404 867ZM515 867Q513
859 511 858T502 856H475Q468 856 466 858T465 867L476 945Q477 951 478 952T485 954H517Q528 954 525 943L515 867Z" />
<glyph unicode="&#xc5;" glyph-name="Aring" horiz-adv-x="700" d="M19 0T17 3T16 10L384 732Q387 738 390 740T400 742H433Q449 742 449 731L611 9V6Q611 0 603 0H579Q567 0 567 9L516 232Q515 236 514 237T508 238H186Q178 238 175 230L60 6Q58 0 49 0H24Q19
0 17 3ZM497 278Q507 278 505 289L416 679Q415 688 411 688Q407 688 402 676L203 290Q200 283 200 281T204 278H497ZM528 831T495 799T415 766Q376 766 352 791T327 855Q327 883 342 908T384 949T439 964Q478 964 503 940T528 878Q528 831 495 799ZM485 898T472
911T436 924Q409 924 388 905T367 856Q367 835 381 821T416 806Q443 806 464 828T485 877Q485 898 472 911Z" />
<glyph unicode="&#xc6;" glyph-name="AE" horiz-adv-x="964" d="M880 40T879 32L876 6Q876 3 875 2T869 0H469Q459 0 460 11L492 234Q492 238 488 238H234Q227 238 221 230L61 6Q56 0 48 0H23Q18 0 16 3T17 10L533 732Q537 738 540 740T551 742H956Q965 742 963
734L959 708Q958 704 957 703T951 702H613Q608 702 606 700T602 692L561 401Q560 397 561 396T568 395H837Q846 395 844 387L840 361Q840 357 839 356T833 355H565Q554 355 553 345L512 48Q511 42 512 41T518 40H871Q880 40 879 32ZM493 278T496 281T499 288L554
679V682Q554 688 552 688Q548 688 540 676L257 285Q256 284 254 282T253 279T257 278H489Q493 278 496 281Z" />
<glyph unicode="&#xc7;" glyph-name="Ccedilla" horiz-adv-x="695" d="M502 752T554 725T638 653T670 557Q670 547 663 547L629 544Q623 544 622 554Q614 624 565 667T440 710Q335 710 266 646T165 482T133 275Q133 156 186 94T348 32Q427 32 485 70T583 188Q585
192 592 189L622 178Q628 176 625 169Q587 89 514 41T354 -10L330 -56Q329 -58 331 -58Q367 -61 383 -77T399 -118Q399 -159 368 -181T290 -204Q248 -204 220 -182Q215 -182 215 -176L228 -156Q229 -153 234 -158Q243 -166 254 -170T286 -174Q320 -174 337 -161T355
-122Q355 -103 339 -94T286 -83Q280 -83 280 -78L320 -9Q206 -2 146 71T86 276Q86 393 123 501T240 681T443 752Q502 752 554 725Z" />
<glyph unicode="&#xc8;" glyph-name="Egrave" horiz-adv-x="612" d="M181 739T182 740T189 742H606Q613 742 611 734L608 710Q607 702 598 702H230Q225 702 223 701T220 694L179 401Q178 395 185 395H477Q484 395 482 387L478 362Q477 358 476 357T469 355H181Q176
355 174 353T171 345L130 48Q129 43 130 42T136 40H519Q528 40 527 32L524 6Q524 3 523 2T517 0H87Q77 0 78 11L180 733Q181 739 182 740ZM311 965T317 963L533 869Q535 868 536 865T537 858L528 843Q527 839 525 838T518 839L302 916Q292 920 295 929L310 961Q311
965 317 963Z" />
<glyph unicode="&#xc9;" glyph-name="Eacute" horiz-adv-x="612" d="M181 739T182 740T189 742H606Q613 742 611 734L608 710Q607 702 598 702H230Q225 702 223 701T220 694L179 401Q178 395 185 395H477Q484 395 482 387L478 362Q477 358 476 357T469 355H181Q176
355 174 353T171 345L130 48Q129 43 130 42T136 40H519Q528 40 527 32L524 6Q524 3 523 2T517 0H87Q77 0 78 11L180 733Q181 739 182 740ZM563 927V923Q563 918 556 916L318 839L314 838Q308 838 308 845L304 860Q302 868 307 869L549 963Q551 964 554 963T557
959L563 927Z" />
<glyph unicode="&#xca;" glyph-name="Ecircumflex" horiz-adv-x="612" d="M181 739T182 740T189 742H606Q613 742 611 734L608 710Q607 702 598 702H230Q225 702 223 701T220 694L179 401Q178 395 185 395H477Q484 395 482 387L478 362Q477 358 476 357T469 355H181Q176
355 174 353T171 345L130 48Q129 43 130 42T136 40H519Q528 40 527 32L524 6Q524 3 523 2T517 0H87Q77 0 78 11L180 733Q181 739 182 740ZM446 911Q441 916 438 916Q436 916 434 914T427 909L358 861Q353 858 350 857T342 856H305Q300 856 299 859T303 867L413
946Q424 954 434 954H452Q458 954 461 950T467 945L554 865Q559 860 559 858T553 856H512Q507 856 503 859T498 863L446 911Z" />
<glyph unicode="&#xcb;" glyph-name="Edieresis" horiz-adv-x="612" d="M181 739T182 740T189 742H606Q613 742 611 734L608 710Q607 702 598 702H230Q225 702 223 701T220 694L179 401Q178 395 185 395H477Q484 395 482 387L478 362Q477 358 476 357T469 355H181Q176
355 174 353T171 345L130 48Q129 43 130 42T136 40H519Q528 40 527 32L524 6Q524 3 523 2T517 0H87Q77 0 78 11L180 733Q181 739 182 740ZM399 867Q397 859 395 858T386 856H359Q352 856 350 858T349 867L360 945Q361 951 362 952T369 954H401Q412 954 409 943L399
867ZM510 867Q508 859 506 858T497 856H470Q463 856 461 858T460 867L471 945Q472 951 473 952T480 954H512Q523 954 520 943L510 867Z" />
<glyph unicode="&#xcc;" glyph-name="Igrave" horiz-adv-x="274" d="M217 742Q228 742 225 731L124 11Q123 3 121 2T112 0H89Q82 0 80 2T78 11L180 733Q181 739 182 740T189 742H217ZM106 965T112 963L328 869Q330 868 331 865T332 858L323 843Q322 839 320 838T313
839L97 916Q87 920 90 929L105 961Q106 965 112 963Z" />
<glyph unicode="&#xcd;" glyph-name="Iacute" horiz-adv-x="274" d="M217 742Q228 742 225 731L124 11Q123 3 121 2T112 0H89Q82 0 80 2T78 11L180 733Q181 739 182 740T189 742H217ZM358 927V923Q358 918 351 916L113 839L109 838Q103 838 103 845L99 860Q97
868 102 869L344 963Q346 964 349 963T352 959L358 927Z" />
<glyph unicode="&#xce;" glyph-name="Icircumflex" horiz-adv-x="274" d="M217 742Q228 742 225 731L124 11Q123 3 121 2T112 0H89Q82 0 80 2T78 11L180 733Q181 739 182 740T189 742H217ZM241 911Q236 916 233 916Q231 916 229 914T222 909L153 861Q148 858 145
857T137 856H100Q95 856 94 859T98 867L208 946Q219 954 229 954H247Q253 954 256 950T262 945L349 865Q354 860 354 858T348 856H307Q302 856 298 859T293 863L241 911Z" />
<glyph unicode="&#xcf;" glyph-name="Idieresis" horiz-adv-x="274" d="M217 742Q228 742 225 731L124 11Q123 3 121 2T112 0H89Q82 0 80 2T78 11L180 733Q181 739 182 740T189 742H217ZM194 867Q192 859 190 858T181 856H154Q147 856 145 858T144 867L155 945Q156
951 157 952T164 954H196Q207 954 204 943L194 867ZM305 867Q303 859 301 858T292 856H265Q258 856 256 858T255 867L266 945Q267 951 268 952T275 954H307Q318 954 315 943L305 867Z" />
<glyph unicode="&#xd0;" glyph-name="Eth" horiz-adv-x="666" d="M446 742T528 674T611 465Q611 0 159 0H50Q45 0 43 3T41 11L89 353H58Q47 353 49 364L52 387Q52 391 53 393T59 395H95L143 735Q144 742 154 742H267Q446 742 528 674ZM371 40T467 145T563 465Q563
553 530 605T430 679T256 701H193Q183 701 182 690L141 395H352Q356 395 358 393T359 386L356 363Q355 357 352 355T342 353H135L94 53L93 48Q93 43 95 42T104 40H157Q371 40 467 145Z" />
<glyph unicode="&#xd1;" glyph-name="Ntilde" horiz-adv-x="755" d="M698 742Q703 742 705 740T706 731L605 9Q604 4 603 2T596 0H581Q574 0 570 1T563 7L223 638Q220 645 216 645Q212 645 210 636L122 8Q121 3 119 2T112 0H87Q76 0 78 11L180 733Q181 739 182
740T189 742H207Q213 742 216 741T221 734L559 104Q563 97 568 97Q574 97 575 108L663 734Q664 739 665 740T671 742H698ZM595 895T580 890T541 885Q523 885 510 888T478 898Q451 909 431 909Q414 909 403 905T384 895T372 888Q370 887 366 887Q362 887 361 894L355
910Q354 916 356 919Q378 932 393 937T427 943Q453 943 486 930Q522 918 543 918Q559 918 569 922T595 935Q601 937 602 937Q607 937 609 930L615 912Q618 907 611 903Q595 895 580 890Z" />
<glyph unicode="&#xd2;" glyph-name="Ograve" horiz-adv-x="758" d="M218 -10T152 62T86 273Q86 321 93 369Q119 554 211 653T446 752Q568 752 634 678T701 463Q701 415 694 367Q669 184 577 87T342 -10Q218 -10 152 62ZM471 32T547 116T647 371Q654 421 654 470Q654
590 601 650T445 710Q320 710 243 624T140 367Q133 319 133 273Q133 32 346 32Q471 32 547 116ZM347 965T353 963L569 869Q571 868 572 865T573 858L564 843Q563 839 561 838T554 839L338 916Q328 920 331 929L346 961Q347 965 353 963Z" />
<glyph unicode="&#xd3;" glyph-name="Oacute" horiz-adv-x="758" d="M218 -10T152 62T86 273Q86 321 93 369Q119 554 211 653T446 752Q568 752 634 678T701 463Q701 415 694 367Q669 184 577 87T342 -10Q218 -10 152 62ZM471 32T547 116T647 371Q654 421 654 470Q654
590 601 650T445 710Q320 710 243 624T140 367Q133 319 133 273Q133 32 346 32Q471 32 547 116ZM599 927V923Q599 918 592 916L354 839L350 838Q344 838 344 845L340 860Q338 868 343 869L585 963Q587 964 590 963T593 959L599 927Z" />
<glyph unicode="&#xd4;" glyph-name="Ocircumflex" horiz-adv-x="758" d="M218 -10T152 62T86 273Q86 321 93 369Q119 554 211 653T446 752Q568 752 634 678T701 463Q701 415 694 367Q669 184 577 87T342 -10Q218 -10 152 62ZM471 32T547 116T647 371Q654 421
654 470Q654 590 601 650T445 710Q320 710 243 624T140 367Q133 319 133 273Q133 32 346 32Q471 32 547 116ZM482 911Q477 916 474 916Q472 916 470 914T463 909L394 861Q389 858 386 857T378 856H341Q336 856 335 859T339 867L449 946Q460 954 470 954H488Q494
954 497 950T503 945L590 865Q595 860 595 858T589 856H548Q543 856 539 859T534 863L482 911Z" />
<glyph unicode="&#xd5;" glyph-name="Otilde" horiz-adv-x="758" d="M218 -10T152 62T86 273Q86 321 93 369Q119 554 211 653T446 752Q568 752 634 678T701 463Q701 415 694 367Q669 184 577 87T342 -10Q218 -10 152 62ZM471 32T547 116T647 371Q654 421 654 470Q654
590 601 650T445 710Q320 710 243 624T140 367Q133 319 133 273Q133 32 346 32Q471 32 547 116ZM582 895T567 890T528 885Q510 885 497 888T465 898Q438 909 418 909Q401 909 390 905T371 895T359 888Q357 887 353 887Q349 887 348 894L342 910Q341 916 343 919Q365
932 380 937T414 943Q440 943 473 930Q509 918 530 918Q546 918 556 922T582 935Q588 937 589 937Q594 937 596 930L602 912Q605 907 598 903Q582 895 567 890Z" />
<glyph unicode="&#xd6;" glyph-name="Odieresis" horiz-adv-x="758" d="M218 -10T152 62T86 273Q86 321 93 369Q119 554 211 653T446 752Q568 752 634 678T701 463Q701 415 694 367Q669 184 577 87T342 -10Q218 -10 152 62ZM471 32T547 116T647 371Q654 421 654
470Q654 590 601 650T445 710Q320 710 243 624T140 367Q133 319 133 273Q133 32 346 32Q471 32 547 116ZM435 867Q433 859 431 858T422 856H395Q388 856 386 858T385 867L396 945Q397 951 398 952T405 954H437Q448 954 445 943L435 867ZM546 867Q544 859 542 858T533
856H506Q499 856 497 858T496 867L507 945Q508 951 509 952T516 954H548Q559 954 556 943L546 867Z" />
<glyph unicode="&#xd7;" glyph-name="multiply" horiz-adv-x="517" d="M486 534T484 532L300 370L436 213Q436 212 438 210T437 204L418 187Q414 185 413 185Q410 185 405 190L271 345L90 186Q85 183 81 187L66 204Q61 211 67 217L246 374L111 531Q108 535 108
537T111 542L130 559Q134 562 138 558L275 400L456 559Q462 564 467 557L482 540Q486 534 484 532Z" />
<glyph unicode="&#xd8;" glyph-name="Oslash" horiz-adv-x="708" d="M753 719T749 715L648 616Q676 556 676 464Q676 416 669 367Q644 184 552 87T317 -10Q178 -10 112 82L27 -4Q23 -9 18 -9Q15 -9 8 -4L-7 12Q-12 18 -13 20T-10 27L89 124Q61 188 61 276Q61 323
68 369Q94 554 186 653T421 752Q559 752 625 658L713 747Q719 754 726 748L748 726Q753 719 749 715ZM111 318T111 270Q111 208 125 160L593 626Q543 709 419 709Q167 709 118 367Q111 318 111 270ZM627 429T627 471Q627 534 612 581L145 116Q197 33 321 33Q572
33 619 371Q627 429 627 471Z" />
<glyph unicode="&#xd9;" glyph-name="Ugrave" horiz-adv-x="702" d="M576 108T507 49T314 -10Q204 -10 150 37T96 183Q96 208 101 246L170 732Q171 738 172 740T178 742H206Q218 742 215 731L144 225Q141 201 141 181Q141 106 185 69T318 32Q526 32 553 230L624
734Q625 739 626 740T632 742H656Q664 742 664 732L593 229Q576 108 507 49ZM321 965T327 963L543 869Q545 868 546 865T547 858L538 843Q537 839 535 838T528 839L312 916Q302 920 305 929L320 961Q321 965 327 963Z" />
<glyph unicode="&#xda;" glyph-name="Uacute" horiz-adv-x="702" d="M576 108T507 49T314 -10Q204 -10 150 37T96 183Q96 208 101 246L170 732Q171 738 172 740T178 742H206Q218 742 215 731L144 225Q141 201 141 181Q141 106 185 69T318 32Q526 32 553 230L624
734Q625 739 626 740T632 742H656Q664 742 664 732L593 229Q576 108 507 49ZM573 927V923Q573 918 566 916L328 839L324 838Q318 838 318 845L314 860Q312 868 317 869L559 963Q561 964 564 963T567 959L573 927Z" />
<glyph unicode="&#xdb;" glyph-name="Ucircumflex" horiz-adv-x="702" d="M576 108T507 49T314 -10Q204 -10 150 37T96 183Q96 208 101 246L170 732Q171 738 172 740T178 742H206Q218 742 215 731L144 225Q141 201 141 181Q141 106 185 69T318 32Q526 32 553 230L624
734Q625 739 626 740T632 742H656Q664 742 664 732L593 229Q576 108 507 49ZM456 911Q451 916 448 916Q446 916 444 914T437 909L368 861Q363 858 360 857T352 856H315Q310 856 309 859T313 867L423 946Q434 954 444 954H462Q468 954 471 950T477 945L564 865Q569
860 569 858T563 856H522Q517 856 513 859T508 863L456 911Z" />
<glyph unicode="&#xdc;" glyph-name="Udieresis" horiz-adv-x="702" d="M576 108T507 49T314 -10Q204 -10 150 37T96 183Q96 208 101 246L170 732Q171 738 172 740T178 742H206Q218 742 215 731L144 225Q141 201 141 181Q141 106 185 69T318 32Q526 32 553 230L624
734Q625 739 626 740T632 742H656Q664 742 664 732L593 229Q576 108 507 49ZM409 867Q407 859 405 858T396 856H369Q362 856 360 858T359 867L370 945Q371 951 372 952T379 954H411Q422 954 419 943L409 867ZM520 867Q518 859 516 858T507 856H480Q473 856 471
858T470 867L481 945Q482 951 483 952T490 954H522Q533 954 530 943L520 867Z" />
<glyph unicode="&#xdd;" glyph-name="Yacute" horiz-adv-x="638" d="M655 742T656 738T654 730L358 325Q352 316 351 305L309 12Q308 5 305 3T293 0H272Q261 0 263 12L303 296Q304 300 304 306Q304 312 302 316L116 731L114 737Q114 742 123 742H147Q153 742 156
740T162 732L321 375Q326 364 331 364Q337 364 345 375L605 734Q609 739 612 740T622 742H650Q655 742 656 738ZM532 927V923Q532 918 525 916L287 839L283 838Q277 838 277 845L273 860Q271 868 276 869L518 963Q520 964 523 963T526 959L532 927Z" />
<glyph unicode="&#xde;" glyph-name="Thorn" horiz-adv-x="673" d="M613 281T537 232T340 182H157Q149 182 147 172L124 8Q123 0 116 0H86Q82 0 80 2T78 9L180 733Q181 739 182 740T189 742H217Q228 742 225 731L205 583Q204 579 209 579H388Q501 579 565 539T630
418Q630 399 628 388Q613 281 537 232ZM583 410T583 418Q583 483 533 511T384 539H209Q199 539 197 530L155 231Q154 226 155 224T160 222H344Q558 222 581 392Q583 410 583 418Z" />
<glyph unicode="&#xdf;" glyph-name="germandbls" horiz-adv-x="582" d="M448 742T480 710T512 630Q512 588 497 562T460 520T400 486Q397 484 381 476Q324 448 306 435T285 396Q283 380 288 371T308 355T354 336Q400 321 431 307T487 262T513 182Q513 174 511
156Q500 78 440 34T302 -10Q267 -10 231 -1T172 23Q167 26 166 28T166 33L186 57Q188 61 194 55Q219 41 241 35T296 28Q368 28 414 62T469 157Q471 171 471 178Q471 212 453 235T409 270T340 298Q308 308 290 316T257 340T243 384Q243 427 268 453T360 511Q366
514 397 528T446 563T469 614Q470 619 470 628Q470 664 443 684T366 704Q294 704 245 661T184 534L110 9Q110 4 109 2T102 0H78Q74 0 72 2T70 9L137 486V490Q137 493 136 494T131 495H69Q63 495 63 502L67 525Q67 530 72 530H135Q142 530 144 540Q157 634 220 688T375
742Q448 742 480 710Z" />
<glyph unicode="&#xe0;" glyph-name="agrave" horiz-adv-x="538" d="M289 -10T181 -10Q109 -10 69 23T28 113Q28 207 105 252T300 308L406 317Q414 318 420 322T427 333L431 364Q433 380 433 388Q433 441 398 471T303 502Q252 502 207 479T121 408Q118 405 116
405T111 407L89 422Q84 425 89 433Q129 482 184 511T307 540Q384 540 428 502T473 396Q473 386 471 366L421 9Q420 3 418 2T411 0H393Q383 0 384 10L391 71Q391 76 389 76Q386 76 382 70Q289 -10 181 -10ZM417 267V271Q417 277 415 279T406 280L316 273Q71 255
71 118Q71 75 102 52T189 28Q226 28 263 41T332 78Q363 100 382 124T404 172L417 267ZM202 753T208 751L424 657Q426 656 427 653T428 646L419 631Q418 627 416 626T409 627L193 704Q183 708 186 717L201 749Q202 753 208 751Z" />
<glyph unicode="&#xe1;" glyph-name="aacute" horiz-adv-x="538" d="M289 -10T181 -10Q109 -10 69 23T28 113Q28 207 105 252T300 308L406 317Q414 318 420 322T427 333L431 364Q433 380 433 388Q433 441 398 471T303 502Q252 502 207 479T121 408Q118 405 116
405T111 407L89 422Q84 425 89 433Q129 482 184 511T307 540Q384 540 428 502T473 396Q473 386 471 366L421 9Q420 3 418 2T411 0H393Q383 0 384 10L391 71Q391 76 389 76Q386 76 382 70Q289 -10 181 -10ZM417 267V271Q417 277 415 279T406 280L316 273Q71 255
71 118Q71 75 102 52T189 28Q226 28 263 41T332 78Q363 100 382 124T404 172L417 267ZM454 715V711Q454 706 447 704L209 627L205 626Q199 626 199 633L195 648Q193 656 198 657L440 751Q442 752 445 751T448 747L454 715Z" />
<glyph unicode="&#xe2;" glyph-name="acircumflex" horiz-adv-x="538" d="M289 -10T181 -10Q109 -10 69 23T28 113Q28 207 105 252T300 308L406 317Q414 318 420 322T427 333L431 364Q433 380 433 388Q433 441 398 471T303 502Q252 502 207 479T121 408Q118 405
116 405T111 407L89 422Q84 425 89 433Q129 482 184 511T307 540Q384 540 428 502T473 396Q473 386 471 366L421 9Q420 3 418 2T411 0H393Q383 0 384 10L391 71Q391 76 389 76Q386 76 382 70Q289 -10 181 -10ZM417 267V271Q417 277 415 279T406 280L316 273Q71
255 71 118Q71 75 102 52T189 28Q226 28 263 41T332 78Q363 100 382 124T404 172L417 267ZM337 699Q332 704 329 704Q327 704 325 702T318 697L249 649Q244 646 241 645T233 644H196Q191 644 190 647T194 655L304 734Q315 742 325 742H343Q349 742 352 738T358
733L445 653Q450 648 450 646T444 644H403Q398 644 394 647T389 651L337 699Z" />
<glyph unicode="&#xe3;" glyph-name="atilde" horiz-adv-x="538" d="M289 -10T181 -10Q109 -10 69 23T28 113Q28 207 105 252T300 308L406 317Q414 318 420 322T427 333L431 364Q433 380 433 388Q433 441 398 471T303 502Q252 502 207 479T121 408Q118 405 116
405T111 407L89 422Q84 425 89 433Q129 482 184 511T307 540Q384 540 428 502T473 396Q473 386 471 366L421 9Q420 3 418 2T411 0H393Q383 0 384 10L391 71Q391 76 389 76Q386 76 382 70Q289 -10 181 -10ZM417 267V271Q417 277 415 279T406 280L316 273Q71 255
71 118Q71 75 102 52T189 28Q226 28 263 41T332 78Q363 100 382 124T404 172L417 267ZM437 683T422 678T383 673Q365 673 352 676T320 686Q293 697 273 697Q256 697 245 693T226 683T214 676Q212 675 208 675Q204 675 203 682L197 698Q196 704 198 707Q220 720
235 725T269 731Q295 731 328 718Q364 706 385 706Q401 706 411 710T437 723Q443 725 444 725Q449 725 451 718L457 700Q460 695 453 691Q437 683 422 678Z" />
<glyph unicode="&#xe4;" glyph-name="adieresis" horiz-adv-x="538" d="M289 -10T181 -10Q109 -10 69 23T28 113Q28 207 105 252T300 308L406 317Q414 318 420 322T427 333L431 364Q433 380 433 388Q433 441 398 471T303 502Q252 502 207 479T121 408Q118 405
116 405T111 407L89 422Q84 425 89 433Q129 482 184 511T307 540Q384 540 428 502T473 396Q473 386 471 366L421 9Q420 3 418 2T411 0H393Q383 0 384 10L391 71Q391 76 389 76Q386 76 382 70Q289 -10 181 -10ZM417 267V271Q417 277 415 279T406 280L316 273Q71
255 71 118Q71 75 102 52T189 28Q226 28 263 41T332 78Q363 100 382 124T404 172L417 267ZM290 655Q288 647 286 646T277 644H250Q243 644 241 646T240 655L251 733Q252 739 253 740T260 742H292Q303 742 300 731L290 655ZM401 655Q399 647 397 646T388 644H361Q354
644 352 646T351 655L362 733Q363 739 364 740T371 742H403Q414 742 411 731L401 655Z" />
<glyph unicode="&#xe5;" glyph-name="aring" horiz-adv-x="538" d="M289 -10T181 -10Q109 -10 69 23T28 113Q28 207 105 252T300 308L406 317Q414 318 420 322T427 333L431 364Q433 380 433 388Q433 441 398 471T303 502Q252 502 207 479T121 408Q118 405 116
405T111 407L89 422Q84 425 89 433Q129 482 184 511T307 540Q384 540 428 502T473 396Q473 386 471 366L421 9Q420 3 418 2T411 0H393Q383 0 384 10L391 71Q391 76 389 76Q386 76 382 70Q289 -10 181 -10ZM417 267V271Q417 277 415 279T406 280L316 273Q71 255
71 118Q71 75 102 52T189 28Q226 28 263 41T332 78Q363 100 382 124T404 172L417 267ZM428 666T395 634T315 601Q276 601 252 626T227 690Q227 718 242 743T284 784T339 799Q378 799 403 775T428 713Q428 666 395 634ZM385 733T372 746T336 759Q309 759 288 740T267
691Q267 670 281 656T316 641Q343 641 364 663T385 712Q385 733 372 746Z" />
<glyph unicode="&#xe6;" glyph-name="ae" horiz-adv-x="929" d="M456 253T452 248T445 226Q443 210 443 203Q443 159 465 119T526 53T615 28Q685 28 726 54T805 123Q809 127 811 127T816 124L836 109Q841 106 838 98Q805 50 743 20T611 -10Q530 -10 490 24T422
110Q419 113 417 106Q386 73 357 50T282 8T176 -10Q105 -10 66 22T27 112Q27 197 92 247T291 308L404 317Q423 319 426 333L430 364Q432 382 432 389Q432 442 398 472T297 502Q204 502 119 408Q115 405 113 405T108 407L88 422Q84 425 88 433Q127 484 185 512T307
540Q454 540 466 421Q504 480 560 510T688 540Q780 540 832 485T885 330Q885 299 881 272Q879 262 875 258T861 254L469 253Q456 253 452 248ZM628 502T579 476T498 401T456 290H823Q834 290 837 293T843 308Q845 328 845 338Q845 409 801 455T683 502Q628 502
579 476ZM417 272Q417 277 414 278T404 279L308 272Q195 263 138 229T72 136Q71 130 71 119Q71 78 98 54T177 29Q233 29 283 49T366 104T404 178L416 266L417 272Z" />
<glyph unicode="&#xe7;" glyph-name="ccedilla" horiz-adv-x="537" d="M520 424T514 420L489 406L487 405Q485 405 479 413Q445 461 412 481T336 502Q263 502 208 461T124 354T94 215Q94 129 139 79T265 28Q317 28 361 53T446 130Q450 134 452 134T456 131L477
116Q480 114 481 111T480 105Q439 50 385 21T270 -10L246 -56Q245 -58 247 -58Q283 -61 299 -77T315 -118Q315 -159 284 -181T206 -204Q164 -204 136 -182Q131 -182 131 -176L144 -156Q145 -153 150 -158Q159 -166 170 -170T202 -174Q236 -174 253 -161T271 -122Q271
-103 255 -94T202 -83Q196 -83 196 -78L236 -9Q151 -2 102 57T52 212Q52 293 85 368T183 492T333 540Q398 540 442 512T514 431Q520 424 514 420Z" />
<glyph unicode="&#xe8;" glyph-name="egrave" horiz-adv-x="577" d="M166 -10T109 50T52 211Q52 295 86 370T184 493T336 540Q429 540 481 485T533 331Q533 300 529 272Q528 264 523 259T510 254H104Q97 254 95 246T92 208Q92 127 140 78T264 28Q383 28 453 123Q459
129 464 124L485 109Q490 106 487 98Q402 -10 262 -10Q166 -10 109 50ZM472 290Q484 290 489 299T494 339Q494 413 450 457T333 502Q270 502 220 471T139 391T102 290H472ZM233 753T239 751L455 657Q457 656 458 653T459 646L450 631Q449 627 447 626T440 627L224
704Q214 708 217 717L232 749Q233 753 239 751Z" />
<glyph unicode="&#xe9;" glyph-name="eacute" horiz-adv-x="577" d="M166 -10T109 50T52 211Q52 295 86 370T184 493T336 540Q429 540 481 485T533 331Q533 300 529 272Q528 264 523 259T510 254H104Q97 254 95 246T92 208Q92 127 140 78T264 28Q383 28 453 123Q459
129 464 124L485 109Q490 106 487 98Q402 -10 262 -10Q166 -10 109 50ZM472 290Q484 290 489 299T494 339Q494 413 450 457T333 502Q270 502 220 471T139 391T102 290H472ZM485 715V711Q485 706 478 704L240 627L236 626Q230 626 230 633L226 648Q224 656 229 657L471
751Q473 752 476 751T479 747L485 715Z" />
<glyph unicode="&#xea;" glyph-name="ecircumflex" horiz-adv-x="577" d="M166 -10T109 50T52 211Q52 295 86 370T184 493T336 540Q429 540 481 485T533 331Q533 300 529 272Q528 264 523 259T510 254H104Q97 254 95 246T92 208Q92 127 140 78T264 28Q383 28 453
123Q459 129 464 124L485 109Q490 106 487 98Q402 -10 262 -10Q166 -10 109 50ZM472 290Q484 290 489 299T494 339Q494 413 450 457T333 502Q270 502 220 471T139 391T102 290H472ZM368 699Q363 704 360 704Q358 704 356 702T349 697L280 649Q275 646 272 645T264
644H227Q222 644 221 647T225 655L335 734Q346 742 356 742H374Q380 742 383 738T389 733L476 653Q481 648 481 646T475 644H434Q429 644 425 647T420 651L368 699Z" />
<glyph unicode="&#xeb;" glyph-name="edieresis" horiz-adv-x="577" d="M166 -10T109 50T52 211Q52 295 86 370T184 493T336 540Q429 540 481 485T533 331Q533 300 529 272Q528 264 523 259T510 254H104Q97 254 95 246T92 208Q92 127 140 78T264 28Q383 28 453
123Q459 129 464 124L485 109Q490 106 487 98Q402 -10 262 -10Q166 -10 109 50ZM472 290Q484 290 489 299T494 339Q494 413 450 457T333 502Q270 502 220 471T139 391T102 290H472ZM321 655Q319 647 317 646T308 644H281Q274 644 272 646T271 655L282 733Q283 739
284 740T291 742H323Q334 742 331 731L321 655ZM432 655Q430 647 428 646T419 644H392Q385 644 383 646T382 655L393 733Q394 739 395 740T402 742H434Q445 742 442 731L432 655Z" />
<glyph unicode="&#xec;" glyph-name="igrave" horiz-adv-x="222" d="M95 11Q94 3 92 2T83 0H66Q59 0 57 2T55 11L127 521Q128 527 129 528T136 530H158Q168 530 167 519L95 11ZM47 753T53 751L269 657Q271 656 272 653T273 646L264 631Q263 627 261 626T254 627L38
704Q28 708 31 717L46 749Q47 753 53 751Z" />
<glyph unicode="&#xed;" glyph-name="iacute" horiz-adv-x="222" d="M95 11Q94 3 92 2T83 0H66Q59 0 57 2T55 11L127 521Q128 527 129 528T136 530H158Q168 530 167 519L95 11ZM299 715V711Q299 706 292 704L54 627L50 626Q44 626 44 633L40 648Q38 656 43 657L285
751Q287 752 290 751T293 747L299 715Z" />
<glyph unicode="&#xee;" glyph-name="icircumflex" horiz-adv-x="222" d="M95 11Q94 3 92 2T83 0H66Q59 0 57 2T55 11L127 521Q128 527 129 528T136 530H158Q168 530 167 519L95 11ZM182 699Q177 704 174 704Q172 704 170 702T163 697L94 649Q89 646 86 645T78
644H41Q36 644 35 647T39 655L149 734Q160 742 170 742H188Q194 742 197 738T203 733L290 653Q295 648 295 646T289 644H248Q243 644 239 647T234 651L182 699Z" />
<glyph unicode="&#xef;" glyph-name="idieresis" horiz-adv-x="222" d="M95 11Q94 3 92 2T83 0H66Q59 0 57 2T55 11L127 521Q128 527 129 528T136 530H158Q168 530 167 519L95 11ZM135 655Q133 647 131 646T122 644H95Q88 644 86 646T85 655L96 733Q97 739 98
740T105 742H137Q148 742 145 731L135 655ZM246 655Q244 647 242 646T233 644H206Q199 644 197 646T196 655L207 733Q208 739 209 740T216 742H248Q259 742 256 731L246 655Z" />
<glyph unicode="&#xf0;" glyph-name="eth" horiz-adv-x="598" d="M529 176T492 117T395 24T260 -10Q163 -10 107 49T51 207Q51 230 54 254Q65 331 103 391T199 486T324 520Q427 520 489 451Q455 570 348 649L166 553L162 552Q158 552 154 559L147 573Q143 581
148 584L317 671Q283 692 213 725Q208 726 207 729T210 736L230 748Q234 751 239 751Q242 751 247 748Q305 725 356 691L468 751Q471 752 474 751T477 748L486 726Q486 725 487 723T486 718L387 668Q471 606 509 525T547 344Q547 307 540 253Q529 176 492 117ZM323
28T373 58T456 140T499 256Q502 274 502 293Q502 347 481 390T421 457T332 482Q275 482 224 451T139 368T96 252Q94 240 94 216Q94 163 115 120T176 53T266 28Q323 28 373 58Z" />
<glyph unicode="&#xf1;" glyph-name="ntilde" horiz-adv-x="576" d="M59 0T57 3T55 10L127 522Q128 527 129 528T135 530H156Q166 530 164 521L155 459Q154 453 155 452T162 455Q218 498 266 519T367 540Q438 540 475 507T512 418Q512 410 510 392L456 9Q455 4
454 2T447 0H425Q420 0 418 3T416 10L468 378Q470 398 470 408Q470 502 364 502Q314 502 271 482T152 409L95 8Q94 0 86 0H64Q59 0 57 3ZM474 683T459 678T420 673Q402 673 389 676T357 686Q330 697 310 697Q293 697 282 693T263 683T251 676Q249 675 245 675Q241
675 240 682L234 698Q233 704 235 707Q257 720 272 725T306 731Q332 731 365 718Q401 706 422 706Q438 706 448 710T474 723Q480 725 481 725Q486 725 488 718L494 700Q497 695 490 691Q474 683 459 678Z" />
<glyph unicode="&#xf2;" glyph-name="ograve" horiz-adv-x="598" d="M165 -10T109 50T52 211Q52 304 90 379T193 497T337 540Q434 540 489 478T545 313Q545 221 508 147T405 32T262 -10Q165 -10 109 50ZM333 28T387 64T472 166T503 315Q503 401 459 451T335 502Q268
502 213 465T126 362T94 214Q94 129 140 79T266 28Q333 28 387 64ZM237 753T243 751L459 657Q461 656 462 653T463 646L454 631Q453 627 451 626T444 627L228 704Q218 708 221 717L236 749Q237 753 243 751Z" />
<glyph unicode="&#xf3;" glyph-name="oacute" horiz-adv-x="598" d="M165 -10T109 50T52 211Q52 304 90 379T193 497T337 540Q434 540 489 478T545 313Q545 221 508 147T405 32T262 -10Q165 -10 109 50ZM333 28T387 64T472 166T503 315Q503 401 459 451T335 502Q268
502 213 465T126 362T94 214Q94 129 140 79T266 28Q333 28 387 64ZM489 715V711Q489 706 482 704L244 627L240 626Q234 626 234 633L230 648Q228 656 233 657L475 751Q477 752 480 751T483 747L489 715Z" />
<glyph unicode="&#xf4;" glyph-name="ocircumflex" horiz-adv-x="598" d="M165 -10T109 50T52 211Q52 304 90 379T193 497T337 540Q434 540 489 478T545 313Q545 221 508 147T405 32T262 -10Q165 -10 109 50ZM333 28T387 64T472 166T503 315Q503 401 459 451T335
502Q268 502 213 465T126 362T94 214Q94 129 140 79T266 28Q333 28 387 64ZM372 699Q367 704 364 704Q362 704 360 702T353 697L284 649Q279 646 276 645T268 644H231Q226 644 225 647T229 655L339 734Q350 742 360 742H378Q384 742 387 738T393 733L480 653Q485
648 485 646T479 644H438Q433 644 429 647T424 651L372 699Z" />
<glyph unicode="&#xf5;" glyph-name="otilde" horiz-adv-x="598" d="M165 -10T109 50T52 211Q52 304 90 379T193 497T337 540Q434 540 489 478T545 313Q545 221 508 147T405 32T262 -10Q165 -10 109 50ZM333 28T387 64T472 166T503 315Q503 401 459 451T335 502Q268
502 213 465T126 362T94 214Q94 129 140 79T266 28Q333 28 387 64ZM472 683T457 678T418 673Q400 673 387 676T355 686Q328 697 308 697Q291 697 280 693T261 683T249 676Q247 675 243 675Q239 675 238 682L232 698Q231 704 233 707Q255 720 270 725T304 731Q330
731 363 718Q399 706 420 706Q436 706 446 710T472 723Q478 725 479 725Q484 725 486 718L492 700Q495 695 488 691Q472 683 457 678Z" />
<glyph unicode="&#xf6;" glyph-name="odieresis" horiz-adv-x="598" d="M165 -10T109 50T52 211Q52 304 90 379T193 497T337 540Q434 540 489 478T545 313Q545 221 508 147T405 32T262 -10Q165 -10 109 50ZM333 28T387 64T472 166T503 315Q503 401 459 451T335
502Q268 502 213 465T126 362T94 214Q94 129 140 79T266 28Q333 28 387 64ZM325 655Q323 647 321 646T312 644H285Q278 644 276 646T275 655L286 733Q287 739 288 740T295 742H327Q338 742 335 731L325 655ZM436 655Q434 647 432 646T423 644H396Q389 644 387 646T386
655L397 733Q398 739 399 740T406 742H438Q449 742 446 731L436 655Z" />
<glyph unicode="&#xf7;" glyph-name="divide" horiz-adv-x="541" d="M345 502Q344 496 342 494T332 492H273Q261 492 263 503L272 563Q273 571 279 571H347Q356 571 354 562L345 502ZM484 361Q484 357 482 356T475 354L91 353Q83 353 83 361L87 385Q88 391 92
391L481 392Q488 392 488 385L484 361ZM301 184Q299 178 297 176T287 174H228Q217 174 219 185L227 245Q228 253 234 253H302Q311 253 309 244L301 184Z" />
<glyph unicode="&#xf8;" glyph-name="oslash" horiz-adv-x="575" d="M588 506T588 503T585 496L510 431Q534 382 534 313Q534 221 497 147T394 32T251 -10Q197 -10 155 9T86 64L15 3Q12 0 8 0Q2 0 -1 5L-10 17Q-14 23 -14 26Q-14 30 -8 36L64 99Q41 147 41 211Q41
304 79 379T182 497T326 540Q379 540 420 521T489 465L558 525Q562 529 565 529Q570 529 574 523L585 510Q588 506 588 503ZM83 166T98 128L458 438Q413 502 324 502Q257 502 202 465T115 362T83 214Q83 166 98 128ZM492 364T477 403L118 92Q140 61 175 45T255
28Q322 28 376 64T461 166T492 315Q492 364 477 403Z" />
<glyph unicode="&#xf9;" glyph-name="ugrave" horiz-adv-x="571" d="M145 -10T105 25T64 117Q64 131 65 138L119 521Q120 526 122 528T128 530H150Q155 530 157 527T159 520L108 158Q106 140 106 132Q106 28 211 28Q260 28 310 54T421 134L476 522Q477 530 485
530H507Q512 530 514 527T516 520L444 8Q443 3 442 2T436 0H415Q406 0 407 9L416 70V73Q416 79 408 74Q341 26 296 8T210 -10Q145 -10 105 25ZM204 753T210 751L426 657Q428 656 429 653T430 646L421 631Q420 627 418 626T411 627L195 704Q185 708 188 717L203
749Q204 753 210 751Z" />
<glyph unicode="&#xfa;" glyph-name="uacute" horiz-adv-x="571" d="M145 -10T105 25T64 117Q64 131 65 138L119 521Q120 526 122 528T128 530H150Q155 530 157 527T159 520L108 158Q106 140 106 132Q106 28 211 28Q260 28 310 54T421 134L476 522Q477 530 485
530H507Q512 530 514 527T516 520L444 8Q443 3 442 2T436 0H415Q406 0 407 9L416 70V73Q416 79 408 74Q341 26 296 8T210 -10Q145 -10 105 25ZM456 715V711Q456 706 449 704L211 627L207 626Q201 626 201 633L197 648Q195 656 200 657L442 751Q444 752 447 751T450
747L456 715Z" />
<glyph unicode="&#xfb;" glyph-name="ucircumflex" horiz-adv-x="571" d="M145 -10T105 25T64 117Q64 131 65 138L119 521Q120 526 122 528T128 530H150Q155 530 157 527T159 520L108 158Q106 140 106 132Q106 28 211 28Q260 28 310 54T421 134L476 522Q477 530
485 530H507Q512 530 514 527T516 520L444 8Q443 3 442 2T436 0H415Q406 0 407 9L416 70V73Q416 79 408 74Q341 26 296 8T210 -10Q145 -10 105 25ZM339 699Q334 704 331 704Q329 704 327 702T320 697L251 649Q246 646 243 645T235 644H198Q193 644 192 647T196
655L306 734Q317 742 327 742H345Q351 742 354 738T360 733L447 653Q452 648 452 646T446 644H405Q400 644 396 647T391 651L339 699Z" />
<glyph unicode="&#xfc;" glyph-name="udieresis" horiz-adv-x="571" d="M145 -10T105 25T64 117Q64 131 65 138L119 521Q120 526 122 528T128 530H150Q155 530 157 527T159 520L108 158Q106 140 106 132Q106 28 211 28Q260 28 310 54T421 134L476 522Q477 530
485 530H507Q512 530 514 527T516 520L444 8Q443 3 442 2T436 0H415Q406 0 407 9L416 70V73Q416 79 408 74Q341 26 296 8T210 -10Q145 -10 105 25ZM292 655Q290 647 288 646T279 644H252Q245 644 243 646T242 655L253 733Q254 739 255 740T262 742H294Q305 742
302 731L292 655ZM403 655Q401 647 399 646T390 644H363Q356 644 354 646T353 655L364 733Q365 739 366 740T373 742H405Q416 742 413 731L403 655Z" />
<glyph unicode="&#xfd;" glyph-name="yacute" horiz-adv-x="508" d="M38 -165T19 -165T-8 -163T-15 -156L-13 -141Q-12 -134 -6 -132T19 -129H75Q102 -129 129 -104T174 -44T192 20Q192 26 190 36L67 517V521Q67 530 76 530H100Q105 530 107 529T110 523L223 79Q225
70 229 70Q235 70 240 81L473 522Q476 530 484 530H508Q512 530 512 528T511 522L197 -76Q172 -124 135 -144T46 -165Q38 -165 19 -165ZM443 715V711Q443 706 436 704L198 627L194 626Q188 626 188 633L184 648Q182 656 187 657L429 751Q431 752 434 751T437 747L443
715Z" />
<glyph unicode="&#xfe;" glyph-name="thorn" horiz-adv-x="588" d="M196 742T194 730L157 467V464Q157 459 159 459Q161 459 168 466Q171 468 192 488T254 524T341 540Q430 540 483 486T537 331Q537 300 533 273Q521 189 483 125T386 26T255 -10Q208 -10 173 5T116
41Q109 46 107 46Q100 46 98 32L72 -156Q71 -162 70 -163T63 -165H40Q36 -165 34 -162T32 -155L156 731Q158 738 160 740T169 742H185Q196 742 194 730ZM141 66T177 47T256 28Q314 28 364 57T447 142T491 273Q495 309 495 323Q495 411 450 456T334 502Q286 502
244 481T176 427T145 363L107 103Q141 66 177 47Z" />
<glyph unicode="&#xff;" glyph-name="ydieresis" horiz-adv-x="508" d="M38 -165T19 -165T-8 -163T-15 -156L-13 -141Q-12 -134 -6 -132T19 -129H75Q102 -129 129 -104T174 -44T192 20Q192 26 190 36L67 517V521Q67 530 76 530H100Q105 530 107 529T110 523L223
79Q225 70 229 70Q235 70 240 81L473 522Q476 530 484 530H508Q512 530 512 528T511 522L197 -76Q172 -124 135 -144T46 -165Q38 -165 19 -165ZM279 655Q277 647 275 646T266 644H239Q232 644 230 646T229 655L240 733Q241 739 242 740T249 742H281Q292 742 289
731L279 655ZM390 655Q388 647 386 646T377 644H350Q343 644 341 646T340 655L351 733Q352 739 353 740T360 742H392Q403 742 400 731L390 655Z" />
<glyph unicode="&#x2013;" glyph-name="endash" horiz-adv-x="541" d="M468 247Q468 243 466 242T458 240L75 239Q67 239 67 247L71 273Q72 279 76 279L465 280Q468 280 470 278T472 273L468 247Z" />
<glyph unicode="&#x2014;" glyph-name="emdash" horiz-adv-x="862" d="M789 247Q789 243 787 242T779 240L75 239Q67 239 67 247L71 273Q72 279 76 279L786 280Q789 280 791 278T793 273L789 247Z" />
<glyph unicode="&#x2018;" glyph-name="quoteleft" horiz-adv-x="210" d="M267 742T265 736L206 643Q203 637 203 634Q203 628 209 628H226Q233 628 233 622L223 553Q221 546 215 546H142Q137 546 138 551L146 613L149 619L233 736Q235 742 245 742H262Q267 742 265 736Z" />
<glyph unicode="&#x2019;" glyph-name="quoteright" horiz-adv-x="210" d="M87 546T89 552L148 645Q151 651 151 654Q151 660 145 660H128Q121 660 121 666L131 735Q133 742 139 742H212Q217 742 216 737L208 675L205 669L121 552Q120 546 109 546H92Q87 546 89 552Z" />
<glyph unicode="&#x201a;" glyph-name="quotesinglbase" horiz-adv-x="210" d="M-3 -114T-4 -112T-3 -108L56 -15Q58 -12 58 -6Q58 0 52 0H35Q28 0 29 6L38 75Q40 82 46 82H119Q124 82 124 77L115 15L112 9L29 -108Q26 -114 17 -114H0Q-3 -114 -4 -112Z" />
<glyph unicode="&#x201c;" glyph-name="quotedblleft" horiz-adv-x="356" d="M102 546T101 547T100 551L109 613Q109 616 112 619L195 736Q198 742 207 742H224Q227 742 228 740T227 736L168 643Q166 640 166 634Q166 628 172 628H189Q197 628 195 622L185 553Q185
550 183 548T177 546H104Q102 546 101 547ZM248 546T247 547T246 551L255 613Q255 616 258 619L341 736Q344 742 353 742H370Q373 742 374 740T373 736L314 643Q312 640 312 634Q312 628 318 628H335Q343 628 341 622L331 553Q331 550 329 548T323 546H250Q248
546 247 547Z" />
<glyph unicode="&#x201d;" glyph-name="quotedblright" horiz-adv-x="356" d="M87 546T89 552L148 645Q151 651 151 654Q151 660 145 660H128Q121 660 121 666L131 735Q133 742 139 742H212Q217 742 216 737L208 675L205 669L121 552Q120 546 109 546H92Q87 546
89 552ZM233 546T235 552L294 645Q297 651 297 654Q297 660 291 660H274Q267 660 267 666L277 735Q279 742 285 742H358Q363 742 362 737L354 675L351 669L267 552Q266 546 255 546H238Q233 546 235 552Z" />
<glyph unicode="&#x201e;" glyph-name="quotedblbase" horiz-adv-x="319" d="M106 -114T105 -112T106 -108L165 -15Q167 -12 167 -6Q167 0 161 0H144Q137 0 138 6L147 75Q149 82 155 82H228Q233 82 233 77L224 15L221 9L138 -108Q135 -114 126 -114H109Q106 -114
105 -112ZM216 -114T215 -112T216 -108L275 -15Q277 -12 277 -6Q277 0 271 0H254Q247 0 248 6L257 75Q259 82 265 82H338Q343 82 343 77L334 15L331 9L248 -108Q245 -114 236 -114H219Q216 -114 215 -112Z" />
<glyph unicode="&#x2022;" glyph-name="bullet" horiz-adv-x="294" d="M127 305T109 323T90 368Q90 401 114 425T171 449Q199 449 217 431T235 386Q235 353 211 329T155 305Q127 305 109 323Z" />
<glyph unicode="&#x2039;" glyph-name="guilsinglleft" horiz-adv-x="253" d="M176 82Q178 79 177 79T171 78H159Q156 78 154 79T151 83L37 251Q32 260 36 264L201 442Q203 445 205 445T208 445H222Q226 445 228 442T228 436L89 262Q83 254 86 250L176 82Z" />
<glyph unicode="&#x203a;" glyph-name="guilsinglright" horiz-adv-x="254" d="M169 259T166 264L76 438Q73 445 80 445H94Q97 445 101 440L216 262Q221 256 215 249L52 81Q51 78 45 78H33Q22 78 25 84L162 252Q169 259 166 264Z" />
</font>
</defs>
</svg>
