<?xml version="1.0" standalone="no"?>
<!DOCTYPE svg PUBLIC "-//W3C//DTD SVG 1.1//EN" "http://www.w3.org/Graphics/SVG/1.1/DTD/svg11.dtd">
<svg xmlns="http://www.w3.org/2000/svg">
<defs >
<font id="Rubik" horiz-adv-x="603" ><font-face
    font-family="Rubik"
    units-per-em="1000"
    panose-1="0 0 8 0 0 0 0 0 0 0"
    ascent="935"
    descent="-250"
    alphabetic="0" />
<glyph unicode=" " glyph-name="space" horiz-adv-x="213" />
<glyph unicode="!" glyph-name="exclam" horiz-adv-x="295" d="M61 226T56 233T52 252L142 675Q144 686 153 693T172 700H294Q304 700 310 693T315 675L224 252Q222 241 213 234T193 226H72Q61 226 56 233ZM10 0T4 7T0 25L27 154Q29 165 38 172T58 180H187Q197
180 203 173T207 154L180 25Q178 14 169 7T149 0H21Q10 0 4 7Z" />
<glyph unicode="&quot;" glyph-name="quotedbl" horiz-adv-x="458" d="M93 441T97 469L119 679Q120 693 128 701T149 710H265Q275 710 280 705T286 691Q286 687 284 679L216 469Q208 441 181 441H120Q93 441 97 469ZM307 441T311 469L333 679Q334 693 342 701T363
710H480Q489 710 494 705T500 691Q500 687 498 679L430 469Q422 441 395 441H334Q307 441 311 469Z" />
<glyph unicode="#" glyph-name="numbersign" horiz-adv-x="685" d="M95 39T89 45T86 61L120 154H52Q42 154 37 161T33 178L51 262Q53 272 61 279T80 286H168L212 408H132Q122 408 117 415T113 432L131 516Q133 526 141 533T160 540H260L294 634Q297 643 305 649T322
655H405Q414 655 419 649T422 633L388 540H487L521 634Q524 643 532 649T549 655H632Q641 655 646 649T649 633L615 540H683Q693 540 698 533T702 516L684 432Q682 422 674 415T655 408H568L524 286H603Q613 286 618 279T622 262L604 178Q602 168 594 161T575 154H476L442
60Q438 51 431 45T414 39H331Q322 39 317 45T313 61L347 154H249L215 60Q211 51 204 45T187 39H104Q95 39 89 45ZM297 286H395L439 408H341L297 286Z" />
<glyph unicode="$" glyph-name="dollar" horiz-adv-x="675" d="M201 -100T196 -93T192 -75L207 -4Q111 10 59 57T7 167Q7 176 9 192Q10 201 18 207T35 213H168Q180 213 187 209T201 195Q209 171 233 156T300 140Q360 140 394 160T429 213Q429 238 399 252T287
284Q88 325 88 460Q88 484 94 509Q111 591 176 643T344 706L360 775Q362 786 371 793T391 800H478Q488 800 493 793T497 775L481 701Q537 688 578 661T642 600T665 531Q665 526 663 514Q661 505 654 499T638 492H498Q477 492 467 510Q465 531 444 545T387 560Q345
560 318 545T285 501Q283 493 283 489Q283 466 311 452T410 422Q523 401 575 360T627 249Q627 226 621 199Q602 106 532 54T343 -7L330 -75Q328 -85 319 -92T299 -100H212Q201 -100 196 -93Z" />
<glyph unicode="%" glyph-name="percent" horiz-adv-x="843" d="M151 345T113 377T74 462Q74 474 75 480Q80 516 96 574Q112 638 154 671T269 705Q329 705 367 673T406 589Q406 583 404 569Q396 519 383 475Q347 345 209 345Q151 345 113 377ZM54 0T49 4T43 16Q43
24 50 31L682 681Q692 691 700 695T721 700H801Q810 700 815 696T821 684Q821 676 814 669L182 19Q172 9 164 5T143 0H63Q54 0 49 4ZM240 436T254 449T274 483Q288 534 291 566Q293 576 293 582Q293 614 260 614Q237 614 223 601T203 566Q190 515 186 483L185 472Q185
436 218 436Q240 436 254 449ZM538 -5T500 27T461 112Q461 124 462 130Q467 166 483 224Q499 288 541 321T656 355Q716 355 754 323T793 239Q793 233 791 219Q782 166 770 124Q735 -5 596 -5Q538 -5 500 27ZM627 85T641 99T661 133Q675 185 678 216Q680 226 680
231Q680 263 647 263Q624 263 610 250T590 216Q577 161 573 133L572 122Q572 85 605 85Q627 85 641 99Z" />
<glyph unicode="&amp;" glyph-name="ampersand" horiz-adv-x="747" d="M147 -10T89 32T31 149Q31 168 36 195Q49 256 93 302T211 386Q168 445 168 499Q168 511 172 533Q182 581 215 621T304 686T430 710Q515 710 561 671T607 571Q607 552 603 536Q591 479 547
437T427 356L516 241Q518 244 540 271T591 352Q593 358 599 362T615 366H722Q730 366 734 361T737 347Q729 313 684 253T591 147L679 32Q683 26 683 21Q683 12 676 6T660 0H517Q501 0 493 10L459 51Q412 19 361 5T250 -10Q147 -10 89 32ZM405 471T429 492T454 544Q454
564 441 576T404 588Q375 588 352 568T329 517Q329 488 359 450Q405 471 429 492ZM336 121T384 156L282 284Q215 251 203 203Q201 193 201 187Q201 157 223 139T278 121Q336 121 384 156Z" />
<glyph unicode="&apos;" glyph-name="quotesingle" horiz-adv-x="244" d="M93 441T97 469L119 679Q120 693 128 701T149 710H265Q275 710 280 705T286 691Q286 687 284 679L216 468Q212 455 204 448T181 441H120Q93 441 97 469Z" />
<glyph unicode="(" glyph-name="parenleft" horiz-adv-x="388" d="M181 -159T131 -128T52 -32T22 132Q22 209 43 309Q79 479 129 580T255 729T441 776Q452 776 458 769T462 751L443 661Q441 651 432 644T413 636Q334 631 286 551T203 309Q179 191 179 122Q179
55 201 20T274 -19Q284 -20 289 -27T292 -44L273 -134Q272 -144 263 -151T243 -159Q181 -159 131 -128Z" />
<glyph unicode=")" glyph-name="parenright" horiz-adv-x="387" d="M-59 -159T-65 -152T-70 -134L-51 -44Q-48 -34 -40 -27T-21 -19Q58 -14 106 67T189 309Q214 425 214 497Q214 563 192 598T119 636Q109 637 104 644T100 661L119 751Q121 762 130 769T149 776Q211
776 261 745T340 649T370 486Q370 410 349 309Q312 135 265 35T143 -112T-49 -159Q-59 -159 -65 -152Z" />
<glyph unicode="*" glyph-name="asterisk" horiz-adv-x="445" d="M369 681Q377 691 387 691Q396 691 400 684L422 608Q425 604 425 599Q425 592 420 586T408 578L345 542L413 530Q417 529 420 525T423 516Q423 510 418 502L346 441Q340 432 330 432Q320 432 315
440L272 481L266 411Q265 402 257 395T239 391L172 431Q162 434 162 444Q162 452 167 459L203 520L131 488L126 487Q118 487 114 492T110 505L142 590Q142 599 151 605T170 609L234 606L197 656Q195 659 195 665Q195 680 210 686L298 700Q300 701 304 701Q311 701
314 696T317 683L322 620L369 681Z" />
<glyph unicode="+" glyph-name="plus" horiz-adv-x="601" d="M192 33T186 40T182 58L220 239H45Q34 239 29 246T25 264L41 341Q44 352 53 359T72 367H248L285 542Q287 553 296 560T316 567H402Q413 567 418 560T422 542L385 367H559Q570 367 576 360T579 341L563
264Q561 254 552 247T532 239H357L319 58Q317 47 308 40T289 33H203Q192 33 186 40Z" />
<glyph unicode="," glyph-name="comma" horiz-adv-x="289" d="M40 163T51 173T78 183H206Q214 183 218 179T222 167Q222 160 220 157L97 -47Q80 -75 55 -75H-25Q-33 -75 -38 -68T-40 -52L34 148Q40 163 51 173Z" />
<glyph unicode="-" glyph-name="hyphen" horiz-adv-x="475" d="M53 225T48 232T44 250L65 350Q68 361 77 368T96 375H411Q422 375 428 368T431 350L410 250Q408 240 399 233T379 225H64Q53 225 48 232Z" />
<glyph unicode="." glyph-name="period" horiz-adv-x="285" d="M5 0T0 7T-4 25L24 157Q26 168 35 175T55 183H187Q198 183 203 176T207 157L179 25Q177 14 168 7T148 0H16Q5 0 0 7Z" />
<glyph unicode="/" glyph-name="slash" horiz-adv-x="544" d="M-42 -84T-47 -79T-52 -67Q-52 -59 -48 -54L464 761Q480 786 506 786H603Q612 786 616 782T621 770Q621 764 616 756L102 -59Q87 -84 61 -84H-34Q-42 -84 -47 -79Z" />
<glyph unicode="0" glyph-name="zero" horiz-adv-x="683" d="M173 -9T106 48T39 204Q39 230 43 253Q49 294 61 350T85 450Q153 709 413 710Q529 709 598 652T667 496Q667 482 663 450Q648 354 621 253Q587 126 508 59T291 -10Q173 -9 106 48ZM398 141T428 258Q450
343 468 444Q472 474 472 486Q472 523 455 542T399 561Q351 561 322 532T278 444Q256 361 238 258Q234 237 234 215Q234 178 251 160T306 141Q398 141 428 258Z" />
<glyph unicode="1" glyph-name="one" horiz-adv-x="501" d="M201 0T195 7T191 25L289 481L139 383Q130 377 123 377Q111 377 104 389L55 477Q53 483 53 486Q53 494 57 502T70 514L340 693Q353 700 364 700H497Q508 700 513 693T517 675L379 25Q377 14 368 7T349
0H212Q201 0 195 7Z" />
<glyph unicode="2" glyph-name="two" horiz-adv-x="656" d="M6 0T1 7T-3 25L13 100Q20 131 49 150L162 241Q274 314 330 353T418 425T457 487Q460 499 460 510Q460 561 399 561Q359 561 333 538T293 479Q282 456 254 456H122Q112 456 108 462T105 477Q120 543
166 596T281 681T430 713Q540 713 599 668T659 544Q659 517 654 496Q639 425 582 367T419 240L319 157H571Q582 157 587 150T591 132L569 25Q567 15 558 8T538 0H17Q6 0 1 7Z" />
<glyph unicode="3" glyph-name="three" horiz-adv-x="665" d="M186 -10T128 15T45 81T19 164Q19 172 21 186Q23 195 31 201T48 207H186Q198 207 204 203T215 188Q223 139 309 139Q357 139 389 162T430 224Q432 238 432 244Q432 299 346 299H234Q223 299 217 306T214
325L226 384Q232 407 250 418L439 550H163Q152 550 147 557T143 575L164 674Q166 685 175 692T195 700H661Q672 700 677 693T681 674L662 585Q657 564 639 552L462 417L468 415Q542 404 584 367T627 264Q627 241 621 212Q607 145 558 95T436 17T276 -10Q186 -10
128 15Z" />
<glyph unicode="4" glyph-name="four" horiz-adv-x="700" d="M328 0T323 7T319 25L342 135H19Q9 135 3 142T-1 160L21 261Q24 277 37 290L412 683Q429 700 452 700H618Q629 700 634 693T638 675L556 290H644Q656 290 661 283T665 265L643 160Q641 150 632 143T612
135H523L500 25Q498 14 489 7T470 0H339Q328 0 323 7ZM220 283H378L425 504L220 283Z" />
<glyph unicode="5" glyph-name="five" horiz-adv-x="650" d="M188 -11T129 13T38 79T7 172Q7 191 9 200Q10 209 17 215T34 221H175Q188 221 195 216T204 202Q213 139 285 139Q328 139 363 165T408 238Q410 246 410 261Q410 295 390 314T331 333Q306 333 289 327T255
309Q236 297 225 297H86Q76 297 72 305T70 323L180 670Q185 685 196 692T220 700H626Q637 700 643 693T647 675L626 575Q623 564 614 557T595 550H305L266 427Q294 444 325 452T404 461Q459 461 505 437T577 371T604 273Q604 253 599 225Q576 115 494 52T270 -11Q188
-11 129 13Z" />
<glyph unicode="6" glyph-name="six" horiz-adv-x="655" d="M204 -10T147 14T59 83T28 188Q28 213 34 241Q53 329 163 446L388 680Q405 700 428 700H568Q577 700 582 694T585 678Q584 673 582 670T578 665L405 483Q417 486 433 486Q486 483 532 459T607 391T636
292Q636 272 631 245Q616 175 567 117T443 24T282 -10Q204 -10 147 14ZM357 140T393 167T439 242Q442 256 442 267Q442 303 418 323T355 344Q310 344 274 317T227 242Q224 229 224 218Q224 181 248 161T312 140Q357 140 393 167Z" />
<glyph unicode="7" glyph-name="seven" horiz-adv-x="579" d="M82 0T78 6T75 22Q78 30 79 31L417 543H120Q109 543 104 550T100 569L123 674Q125 685 134 692T154 700H627Q638 700 643 693T647 674L627 581Q623 559 606 535L268 24Q252 0 227 0H91Q82 0 78 6Z" />
<glyph unicode="8" glyph-name="eight" horiz-adv-x="678" d="M206 -10T146 15T54 84T22 180Q22 191 26 215Q36 267 71 308T156 371Q135 391 123 418T110 478Q110 497 114 513Q125 570 163 614T264 684T411 710Q486 710 541 687T625 625T654 536Q654 521 651 504Q642
459 619 427T554 371Q586 350 603 317T620 244Q620 221 616 204Q595 108 513 49T289 -10Q206 -10 146 15ZM412 424T446 450T480 517Q480 544 459 560T400 577Q351 577 318 551T284 482Q284 454 304 439T364 423Q412 424 446 450ZM352 122T391 152T430 229Q430 261
406 279T341 298Q287 298 249 269T210 191Q210 159 234 141T299 122Q352 122 391 152Z" />
<glyph unicode="9" glyph-name="nine" horiz-adv-x="646" d="M114 0T110 6T107 22Q108 29 114 35L295 226Q280 223 267 224Q214 227 170 250T98 315T71 410Q71 434 77 459Q91 525 136 582T255 675T420 710Q541 710 605 657T670 518Q670 493 664 466Q652 411 620
366T530 258L507 234L304 20Q287 0 264 0H123Q114 0 110 6ZM392 360T426 387T470 460Q473 474 473 485Q473 520 451 540T390 560Q346 560 312 533T268 460Q265 447 265 435Q265 400 287 380T347 360Q392 360 426 387Z" />
<glyph unicode=":" glyph-name="colon" horiz-adv-x="295" d="M82 350T77 357T74 375L100 501Q102 512 111 519T131 526H263Q274 526 279 519T283 501L257 375Q254 364 245 357T225 350H93Q82 350 77 357ZM8 0T3 7T-1 25L25 151Q27 161 36 168T56 176H188Q199
176 204 169T208 151L182 25Q180 14 171 7T151 0H19Q8 0 3 7Z" />
<glyph unicode=";" glyph-name="semicolon" horiz-adv-x="303" d="M110 350T104 357T100 375L127 501Q129 512 138 519T158 526H290Q301 526 306 519T310 501L283 375Q281 364 272 357T253 350H121Q110 350 104 357ZM-17 -75T-21 -69T-23 -53L51 148Q56 162 67
172T96 183H217Q225 183 230 177T233 163L229 152L108 -47Q91 -75 65 -75H-8Q-17 -75 -21 -69Z" />
<glyph unicode="&lt;" glyph-name="less" horiz-adv-x="519" d="M392 37T384 43L71 291Q60 300 55 307T50 325Q50 332 51 335L58 367Q62 381 70 390T96 410L514 658Q526 664 532 664Q541 664 545 658T548 643L524 530Q521 515 512 507T487 490L245 351L428 211Q430
209 436 204T445 193T449 180Q449 175 448 172L424 58Q422 49 415 43T398 37Q392 37 384 43Z" />
<glyph unicode="=" glyph-name="equal" horiz-adv-x="567" d="M89 359T83 366T80 384L97 466Q99 477 108 484T128 491H523Q533 491 538 484T542 466L525 384Q523 373 514 366T495 359H100Q89 359 83 366ZM36 109T30 116T26 134L44 216Q46 227 55 234T75 241H470Q480
241 485 234T489 216L472 134Q470 123 461 116T442 109H47Q36 109 30 116Z" />
<glyph unicode="&gt;" glyph-name="greater" horiz-adv-x="519" d="M30 37T26 43T23 58L47 172Q50 186 58 194T83 211L326 351L143 490Q133 497 128 503T122 521Q122 527 123 530L147 643Q149 653 156 658T172 664Q177 664 187 658L499 410Q510 401 515 394T520
377Q520 371 519 367L512 335Q509 321 501 311T474 291L57 43Q43 37 39 37Q30 37 26 43Z" />
<glyph unicode="?" glyph-name="question" d="M222 216T217 222T214 236Q215 239 216 244T220 257Q236 298 267 331T349 405Q387 434 407 455T433 496Q436 505 436 513Q436 535 419 548T375 561Q301 561 268 490Q261 478 253 472T231 466H101Q93 466 88 471T83
485Q83 490 84 493Q97 547 141 597T256 678T418 710Q535 710 587 666T640 560Q640 541 635 523Q624 474 594 438T510 355Q476 324 459 306T428 268Q426 263 423 257T415 243Q405 229 398 223T379 216H230Q222 216 217 222ZM176 0T171 7T167 25L192 144Q194 155
203 162T223 170H357Q368 170 374 163T378 144L353 25Q351 14 342 7T321 0H187Q176 0 171 7Z" />
<glyph unicode="@" glyph-name="at" horiz-adv-x="846" d="M193 -132T115 -62T37 132Q37 158 40 186Q43 214 55 272T76 357Q103 444 162 516T310 632T512 676Q684 676 759 611T834 427Q834 397 829 357Q822 300 803 231Q783 160 730 120T616 79Q571 79 543 94T504
129Q483 103 451 86T361 69Q301 69 269 105T236 206Q236 235 244 273Q264 368 317 423T445 478Q481 478 502 466T535 432L537 445Q540 456 549 463T568 470H622Q633 470 638 463T642 445L599 243Q597 227 597 222Q597 179 637 179Q664 179 680 198T702 243Q720
317 725 352Q730 387 730 411Q730 497 675 536T491 576Q368 576 291 517T179 352Q170 327 159 274T145 191Q143 167 143 155Q143 64 200 16T375 -32Q458 -32 501 -19T584 20Q586 21 593 25T606 32T619 34H693Q704 34 709 27T712 9Q711 4 703 -6Q643 -62 557 -97T353
-132Q193 -132 115 -62ZM442 169T466 194T501 273Q506 301 506 317Q506 378 446 378Q370 378 348 273Q343 248 343 233Q343 202 358 186T402 169Q442 169 466 194Z" />
<glyph unicode="A" glyph-name="A" horiz-adv-x="725" d="M-41 0T-46 5T-51 19Q-51 24 -48 30L321 671Q338 700 367 700H529Q559 700 563 671L660 30Q661 16 654 8T636 0H509Q482 0 478 24L462 119H201L143 22Q129 0 105 0H-32Q-41 0 -46 5ZM274 269H452L417 524L274
269Z" />
<glyph unicode="B" glyph-name="B" horiz-adv-x="708" d="M20 0T14 7T10 25L148 674Q150 685 159 692T179 700H474Q581 700 641 659T702 542Q702 525 697 500Q686 450 654 416T585 366Q616 350 635 319T654 248Q654 237 650 213Q628 109 558 55T362 0H31Q20 0
14 7ZM406 423Q448 423 475 450T502 515Q502 539 487 552T441 565H313L282 423H406ZM355 135Q393 135 420 158T454 213Q457 225 457 235Q457 261 440 276T389 292H255L221 135H355Z" />
<glyph unicode="C" glyph-name="C" horiz-adv-x="704" d="M184 -10T110 45T35 206Q35 229 40 261Q52 333 78 439Q111 572 199 641T431 710Q509 710 573 686T675 617T713 508Q713 486 709 467Q707 458 701 452T685 446H541Q527 446 521 451T513 472Q514 520 489
540T416 560Q301 560 271 434Q250 351 235 266Q231 246 231 226Q231 181 254 161T323 140Q370 140 404 160T461 228Q468 243 476 248T498 254H642Q651 254 656 248T659 233Q630 118 539 54T309 -10Q184 -10 110 45Z" />
<glyph unicode="D" glyph-name="D" horiz-adv-x="718" d="M20 0T14 7T10 25L148 674Q150 685 159 692T179 700H425Q504 700 567 674T667 598T704 478Q704 457 699 427Q685 346 667 274Q631 131 550 66T315 0H31Q20 0 14 7ZM325 150Q387 150 424 180T477 276Q498
365 509 425Q512 445 512 461Q512 506 486 528T405 550H310L224 150H325Z" />
<glyph unicode="E" glyph-name="E" horiz-adv-x="641" d="M20 0T14 7T10 25L148 674Q150 685 159 692T179 700H651Q662 700 667 693T671 674L650 575Q648 564 639 557T619 550H303L275 423H570Q581 423 586 416T590 397L571 306Q569 295 560 288T540 280H245L218
150H542Q553 150 558 143T562 124L541 25Q539 14 530 7T511 0H31Q20 0 14 7Z" />
<glyph unicode="F" glyph-name="F" horiz-adv-x="622" d="M20 0T14 7T10 25L148 674Q150 685 159 692T179 700H643Q654 700 660 693T664 674L641 568Q639 557 630 550T611 543H305L275 404H561Q572 404 577 397T581 378L558 272Q557 262 548 255T527 247H242L194
25Q192 14 184 7T164 0H31Q20 0 14 7Z" />
<glyph unicode="G" glyph-name="G" horiz-adv-x="723" d="M184 -10T116 44T48 200Q48 229 54 262Q69 344 93 445Q124 571 222 640T463 710Q551 710 613 684T705 616T736 526Q736 508 734 500Q733 491 725 485T708 478H553Q543 478 538 481T530 492Q524 520 502
540T431 560Q316 560 286 440Q268 365 249 267Q245 241 245 230Q245 140 345 140Q402 140 442 169T495 257L499 275H409Q398 275 393 282T390 301L406 379Q408 390 417 397T437 405H692Q703 405 708 398T712 379L687 263Q669 178 617 117T485 23T310 -10Q184 -10
116 44Z" />
<glyph unicode="H" glyph-name="H" horiz-adv-x="748" d="M20 0T14 7T10 25L148 674Q150 685 159 692T179 700H315Q326 700 332 693T336 674L285 437H522L573 674Q575 685 583 692T603 700H740Q751 700 756 693T760 674L622 25Q620 14 611 7T592 0H455Q444 0 438
7T434 25L487 270H250L198 25Q196 14 187 7T167 0H31Q20 0 14 7Z" />
<glyph unicode="I" glyph-name="I" horiz-adv-x="329" d="M19 0T14 7T10 25L149 675Q151 686 159 693T179 700H321Q331 700 337 693T342 675L203 25Q201 14 192 7T173 0H30Q19 0 14 7Z" />
<glyph unicode="J" glyph-name="J" horiz-adv-x="670" d="M201 -10T140 13T39 80T-1 187Q-1 203 2 221Q4 230 11 236T27 243H171Q185 243 191 237T199 215Q200 176 219 158T281 140Q381 140 407 263L467 545H146Q135 545 130 552T126 570L149 675Q151 686 160
693T179 700H668Q679 700 685 693T689 674L600 257Q572 123 491 57T267 -10Q201 -10 140 13Z" />
<glyph unicode="K" glyph-name="K" horiz-adv-x="662" d="M20 0T14 7T10 25L148 674Q150 685 158 692T178 700H312Q323 700 329 693T333 674L287 459L501 680Q517 700 544 700H701Q710 700 714 695T719 681Q719 673 713 667L412 351L595 33Q598 27 598 23Q598
14 590 7T573 0H425Q399 0 389 20L246 267L194 25Q192 14 184 7T165 0H31Q20 0 14 7Z" />
<glyph unicode="L" glyph-name="L" horiz-adv-x="595" d="M20 0T14 7T10 25L149 675Q151 686 159 693T179 700H318Q329 700 335 693T339 675L228 157H528Q539 157 545 150T548 131L526 25Q524 14 515 7T495 0H31Q20 0 14 7Z" />
<glyph unicode="M" glyph-name="M" horiz-adv-x="831" d="M20 0T14 7T10 25L148 674Q150 685 159 692T179 700H293Q307 700 314 694T325 678L432 370L670 678Q675 686 685 693T709 700H823Q834 700 840 693T844 674L705 25Q703 14 695 7T675 0H548Q537 0 531 7T527
25L603 383L457 191Q438 168 417 168H363Q342 168 334 191L266 392L188 25Q186 14 177 7T158 0H31Q20 0 14 7Z" />
<glyph unicode="N" glyph-name="N" horiz-adv-x="722" d="M20 0T14 7T10 25L148 674Q150 685 158 692T178 700H290Q315 700 321 681L478 306L557 674Q559 685 567 692T587 700H714Q725 700 730 693T734 674L596 26Q594 15 586 8T566 0H454Q440 0 434 5T423 19L264
379L188 25Q186 14 177 7T158 0H31Q20 0 14 7Z" />
<glyph unicode="O" glyph-name="O" horiz-adv-x="715" d="M230 -10T169 15T71 89T35 209Q35 230 40 262Q57 359 77 435Q111 571 197 640T430 710Q507 710 569 684T667 608T703 486Q703 465 698 435Q684 354 661 262Q627 125 541 58T308 -10Q230 -10 169 15ZM377
140T414 171T468 268Q490 359 503 432Q507 452 507 473Q507 560 416 560Q362 560 325 529T271 432Q254 369 235 268Q231 248 231 227Q231 140 323 140Q377 140 414 171Z" />
<glyph unicode="P" glyph-name="P" horiz-adv-x="680" d="M20 0T14 7T10 25L148 674Q150 685 159 692T179 700H447Q559 700 627 654T696 520Q696 495 690 468Q665 352 589 297T380 241H250L204 25Q202 14 194 7T174 0H31Q20 0 14 7ZM387 384Q427 384 457 405T496
469Q500 491 500 499Q500 556 428 556H314L277 384H387Z" />
<glyph unicode="Q" glyph-name="Q" horiz-adv-x="715" d="M437 -65T431 -59T418 -42L394 2Q354 -10 306 -10Q182 -10 115 42T47 198Q47 228 53 262Q67 338 90 435Q122 567 220 638T459 710Q581 710 649 655T717 497Q717 468 711 435Q694 337 674 262Q643 139 562
71L613 -34Q615 -39 614 -44Q613 -52 606 -58T589 -65H451Q437 -65 431 -59ZM391 140T428 171T482 268Q505 363 516 432Q520 460 520 470Q520 516 496 538T427 560Q375 560 338 529T283 432Q261 336 249 268Q245 240 245 230Q245 184 269 162T338 140Q391 140 428
171Z" />
<glyph unicode="R" glyph-name="R" horiz-adv-x="695" d="M34 0T29 7T25 25L162 674Q164 685 173 692T193 700H468Q582 700 644 655T706 526Q706 500 700 471Q686 401 643 352T537 276L620 32Q622 25 621 21Q619 12 612 6T595 0H454Q426 0 419 27L355 244H259L212
25Q210 14 201 7T181 0H44Q34 0 29 7ZM401 391Q444 391 471 412T506 472Q508 480 508 495Q508 523 490 539T436 556H325L290 391H401Z" />
<glyph unicode="S" glyph-name="S" horiz-adv-x="666" d="M193 -10T130 14T35 78T3 168Q3 176 5 192Q6 201 13 207T30 213H164Q177 213 183 209T197 195Q205 171 229 156T297 140Q351 140 384 156T425 202Q426 206 426 213Q426 238 395 252T283 284Q84 325 84
460Q84 484 90 509Q110 603 190 656T398 710Q474 710 534 683T627 615T661 531Q661 526 659 514Q657 505 651 499T636 492H494Q472 492 464 510Q462 531 441 545T384 560Q341 560 315 545T281 501Q280 497 280 490Q280 466 307 452T406 422Q519 401 571 359T623
248Q623 220 618 199Q596 96 511 43T282 -10Q193 -10 130 14Z" />
<glyph unicode="T" glyph-name="T" horiz-adv-x="632" d="M173 0T167 7T163 25L272 537H96Q85 537 79 544T75 562L99 674Q101 685 110 692T130 700H673Q684 700 690 693T694 674L669 562Q667 551 659 544T639 537H463L353 25Q351 14 343 7T323 0H184Q173 0 167 7Z" />
<glyph unicode="U" glyph-name="U" horiz-adv-x="727" d="M194 -10T121 42T47 198Q47 228 55 266L142 674Q144 685 152 692T172 700H309Q320 700 325 693T329 674L242 268Q237 241 237 224Q237 183 259 164T328 144Q444 144 471 268L558 674Q560 685 568 692T588
700H725Q736 700 741 693T745 674L659 266Q628 123 545 57T313 -10Q194 -10 121 42Z" />
<glyph unicode="V" glyph-name="V" horiz-adv-x="697" d="M187 0T178 9T169 30L102 673Q101 685 108 692T126 700H253Q268 700 276 692T285 673L325 221L557 673Q562 684 573 692T599 700H740Q748 700 752 695T757 682Q757 676 754 670L416 30Q398 0 368 0H204Q187
0 178 9Z" />
<glyph unicode="W" glyph-name="W" horiz-adv-x="829" d="M102 0T93 9T85 33L107 677Q108 686 115 693T133 700H260Q289 700 286 675L269 303L383 518Q397 545 421 545H496Q521 545 524 518L548 300L690 677Q694 690 702 695T726 700H861Q869 700 873 696T878
684Q878 681 876 675L641 33Q635 19 623 10T594 0H491Q475 0 468 8T459 26L409 303L262 26Q248 0 219 0H118Q102 0 93 9Z" />
<glyph unicode="X" glyph-name="X" horiz-adv-x="695" d="M-37 0T-42 5T-48 19Q-48 27 -42 33L257 361L104 668Q102 671 102 678Q102 687 108 693T127 700H264Q289 700 298 678L388 497L548 678Q556 688 565 694T590 700H741Q750 700 755 695T760 682Q760 673
754 667L469 336L622 32Q624 26 624 23Q624 14 617 7T598 0H462Q447 0 440 6T428 20L339 197L176 20Q160 0 135 0H-29Q-37 0 -42 5Z" />
<glyph unicode="Y" glyph-name="Y" horiz-adv-x="682" d="M199 0T193 7T189 25L234 238L95 668Q94 671 94 676Q94 686 101 693T120 700H244Q258 700 265 693T275 678L360 428L551 678Q556 686 566 693T591 700H733Q742 700 746 696T751 684Q751 676 745 668L422
238L377 25Q375 14 366 7T346 0H210Q199 0 193 7Z" />
<glyph unicode="Z" glyph-name="Z" horiz-adv-x="653" d="M-12 0T-17 7T-21 26L1 128Q5 149 23 164L413 545H124Q113 545 108 552T104 570L127 674Q129 685 137 692T157 700H666Q677 700 683 693T687 674L665 573Q662 557 644 539L264 157H563Q574 157 579 150T583
131L560 25Q558 14 550 7T530 0H-1Q-12 0 -17 7Z" />
<glyph unicode="[" glyph-name="bracketleft" horiz-adv-x="388" d="M-22 -159T-28 -152T-32 -134L157 751Q159 762 167 769T187 776H439Q450 776 456 769T460 751L440 660Q438 649 429 642T410 635H293L157 -6H273Q284 -6 290 -13T294 -31L271 -134Q269 -145
261 -152T241 -159H-11Q-22 -159 -28 -152Z" />
<glyph unicode="\" glyph-name="backslash" horiz-adv-x="529" d="M295 -84T289 -57L122 758Q120 769 126 777T146 786H231Q258 786 264 759L430 -56Q432 -67 425 -75T406 -84H323Q295 -84 289 -57Z" />
<glyph unicode="]" glyph-name="bracketright" horiz-adv-x="387" d="M415 776T420 769T424 751L236 -134Q234 -145 225 -152T206 -159H-47Q-57 -159 -63 -152T-67 -134L-45 -31Q-43 -20 -34 -13T-15 -6H102L239 635H122Q111 635 106 642T102 660L121 751Q123
762 132 769T151 776H404Q415 776 420 769Z" />
<glyph unicode="^" glyph-name="asciicircum" horiz-adv-x="467" d="M122 588T125 603Q126 610 136 618L263 728Q275 738 283 741T302 745H385Q395 745 402 742T417 728L497 618Q501 610 501 606Q501 588 483 588H433Q411 588 399 595L322 643L223 595Q209 588
187 588H137Q122 588 125 603Z" />
<glyph unicode="_" glyph-name="underscore" horiz-adv-x="732" d="M-18 -75T-23 -68T-27 -49L-6 50Q-4 61 5 68T25 75H620Q631 75 636 68T640 50L618 -49Q616 -60 608 -67T588 -75H-7Q-18 -75 -23 -68Z" />
<glyph unicode="`" glyph-name="grave" horiz-adv-x="301" d="M167 595T160 598T144 610L34 719Q31 724 31 728Q31 738 37 745T53 752H198Q211 752 217 749T231 733L297 625Q300 621 300 615Q300 606 295 601T281 595H179Q167 595 160 598Z" />
<glyph unicode="a" glyph-name="a" horiz-adv-x="630" d="M110 -10T65 35T19 165Q19 199 24 225L39 296Q68 407 133 468T299 530Q355 530 387 515T440 470L446 495Q448 506 456 513T476 520H594Q605 520 611 513T615 495L515 25Q513 14 504 7T485 0H366Q355 0
349 7T345 25L352 56Q317 23 282 7T194 -10Q110 -10 65 35ZM312 129T339 156T378 226Q389 268 394 301Q396 317 396 324Q396 355 380 373T329 391Q286 391 261 365T222 291Q212 257 209 229Q206 211 206 195Q206 163 220 146T268 129Q312 129 339 156Z" />
<glyph unicode="b" glyph-name="b" horiz-adv-x="633" d="M271 -10T233 8T176 56L170 25Q168 14 159 7T139 0H20Q9 0 4 7T0 25L140 685Q142 696 151 703T171 710H300Q311 710 316 703T320 685L275 472Q307 500 341 515T422 530Q506 530 553 483T600 352Q600 330
595 298Q586 251 579 223Q550 110 486 50T324 -10Q271 -10 233 8ZM331 129T356 155T397 229Q407 263 410 291Q412 313 412 323Q412 356 398 373T348 391Q305 391 277 366T238 301Q227 259 223 226Q220 211 220 197Q220 129 288 129Q331 129 356 155Z" />
<glyph unicode="c" glyph-name="c" horiz-adv-x="592" d="M177 -10T127 12T47 77T18 179Q18 198 21 219L38 300Q67 410 145 470T339 530Q419 530 472 502T549 433T574 357L573 346Q572 336 564 329T544 321H408Q388 321 385 341Q383 370 368 383T325 397Q247 397
221 295Q209 241 206 224Q202 196 202 187Q202 154 217 139T263 123Q292 123 313 136T350 177Q356 188 363 193T381 198H517Q528 198 533 191T536 172Q526 138 493 96T397 22T241 -10Q177 -10 127 12Z" />
<glyph unicode="d" glyph-name="d" horiz-adv-x="634" d="M111 -10T65 36T18 168Q18 192 23 225Q30 261 39 296Q67 406 132 468T293 530Q342 530 378 515T434 472L479 685Q481 696 490 703T509 710H638Q649 710 655 703T659 685L518 25Q516 14 507 7T488 0H369Q358
0 352 7T348 25L355 56Q321 23 285 7T196 -10Q111 -10 65 36ZM314 129T342 156T381 226Q392 268 397 301Q399 317 399 324Q399 354 382 372T330 391Q287 391 262 365T222 291Q212 257 209 229Q206 213 206 197Q206 165 220 147T270 129Q314 129 342 156Z" />
<glyph unicode="e" glyph-name="e" horiz-adv-x="595" d="M146 -10T90 37T33 178Q33 212 40 246L47 277Q76 396 160 463T364 530Q471 530 525 478T579 335Q579 303 571 263L566 238Q563 227 554 220T534 212H217L216 206Q213 190 213 174Q213 143 228 125T273
106Q297 106 313 115T346 140Q357 150 363 152T381 155H513Q522 155 527 149T530 134Q523 107 486 73T388 15T250 -10Q146 -10 90 37ZM398 314L399 316Q403 332 403 350Q403 382 387 399T340 417Q302 417 276 390T239 316V314H398Z" />
<glyph unicode="f" glyph-name="f" horiz-adv-x="446" d="M69 0T63 7T59 25L136 384H60Q49 384 44 391T40 409L58 495Q60 506 69 513T89 520H164L171 550Q193 651 255 695T420 740H514Q525 740 530 733T534 715L516 629Q514 618 505 611T485 604H416Q355 604 343
545L337 520H457Q468 520 473 513T477 495L459 409Q457 398 448 391T429 384H309L232 25Q230 14 221 7T202 0H80Q69 0 63 7Z" />
<glyph unicode="g" glyph-name="g" horiz-adv-x="636" d="M123 -220T68 -190T-8 -119T-26 -52Q-25 -41 -16 -34T4 -26H140Q150 -26 155 -30T162 -46Q166 -67 179 -80T227 -93Q313 -93 333 0L347 67Q315 40 281 26T200 12Q112 12 67 55T22 183Q22 206 27 243Q30
265 38 296Q68 408 131 469T293 530Q344 530 382 510T439 458L447 494Q449 505 458 512T478 520H600Q611 520 616 513T620 494L519 15Q494 -103 420 -161T214 -220Q123 -220 68 -190ZM315 147T343 173T383 239Q391 268 396 299Q398 315 398 322Q398 353 382 372T329
391Q248 391 221 291Q213 266 212 247Q209 229 209 213Q209 181 223 164T273 147Q315 147 343 173Z" />
<glyph unicode="h" glyph-name="h" horiz-adv-x="654" d="M9 0T4 7T0 25L140 685Q142 696 151 703T170 710H306Q317 710 323 703T327 685L279 462Q313 495 352 512T440 530Q518 530 564 488T611 367Q611 336 604 304L544 25Q542 14 533 7T514 0H378Q367 0 361
7T357 25L415 298Q419 314 419 330Q419 391 354 391Q314 391 284 367T244 298L186 25Q184 14 175 7T156 0H20Q9 0 4 7Z" />
<glyph unicode="i" glyph-name="i" horiz-adv-x="290" d="M135 592T129 599T125 618L145 711Q147 722 156 729T176 737H301Q312 737 318 730T322 711L301 618Q300 607 291 600T271 592H146Q135 592 129 599ZM9 0T4 7T0 25L99 495Q101 505 110 512T130 520H255Q266
520 271 513T275 495L175 25Q173 14 165 7T145 0H20Q9 0 4 7Z" />
<glyph unicode="j" glyph-name="j" horiz-adv-x="308" d="M146 592T140 599T136 618L156 711Q158 722 167 729T187 737H318Q329 737 335 730T339 711L318 618Q317 607 308 600T288 592H157Q146 592 140 599ZM-143 -190T-148 -183T-152 -165L-134 -79Q-132 -68
-123 -61T-104 -54H-63Q-6 -54 9 16L110 495Q112 505 121 512T141 520H272Q283 520 288 513T292 495L190 12Q147 -190 -65 -190H-133Q-143 -190 -148 -183Z" />
<glyph unicode="k" glyph-name="k" horiz-adv-x="595" d="M9 0T4 7T0 25L140 685Q142 696 151 703T170 710H293Q304 710 309 703T313 685L243 353L404 503Q416 512 423 516T442 520H592Q601 520 606 516T611 504Q611 492 599 481L382 275L524 36Q528 31 528 23Q528
14 521 7T502 0H363Q343 0 333 16L213 218L173 25Q171 14 162 7T143 0H20Q9 0 4 7Z" />
<glyph unicode="l" glyph-name="l" horiz-adv-x="291" d="M9 0T4 7T0 25L140 685Q142 696 151 703T170 710H295Q306 710 312 703T316 685L175 25Q173 14 165 7T145 0H20Q9 0 4 7Z" />
<glyph unicode="m" glyph-name="m" horiz-adv-x="918" d="M9 0T4 7T0 25L99 495Q101 505 110 512T130 520H246Q257 520 262 513T266 495L259 461Q291 493 325 511T410 530Q468 530 504 508T554 444Q588 485 628 507T721 530Q792 530 834 492T877 377Q877 349 869
309L809 25Q807 14 798 7T779 0H656Q645 0 639 7T635 25L694 302Q698 319 698 336Q698 391 644 391Q613 391 587 369T552 302L493 25Q491 14 482 7T463 0H340Q329 0 323 7T319 25L378 302Q382 318 382 335Q382 391 328 391Q297 391 271 370T235 303L176 25Q174
14 165 7T146 0H20Q9 0 4 7Z" />
<glyph unicode="n" glyph-name="n" horiz-adv-x="646" d="M9 0T4 7T0 25L99 495Q101 505 110 512T130 520H253Q263 520 268 513T272 495L264 457Q339 530 437 530Q516 530 560 490T604 372Q604 344 596 304L536 25Q534 14 526 7T506 0H373Q362 0 357 7T353 25L410
298Q415 321 415 335Q415 363 400 377T351 391Q309 391 280 367T240 298L183 25Q181 14 172 7T153 0H20Q9 0 4 7Z" />
<glyph unicode="o" glyph-name="o" horiz-adv-x="613" d="M140 -10T80 38T19 173Q19 194 22 215Q27 260 41 305Q70 414 146 472T347 530Q454 530 516 481T579 343Q579 325 576 305Q565 250 556 215Q526 105 452 48T249 -10Q140 -10 80 38ZM307 116T333 141T374
220Q387 270 391 300Q394 321 394 338Q394 371 379 387T331 404Q289 404 263 378T224 300Q219 282 214 260T206 220Q202 190 202 181Q202 148 217 132T265 116Q307 116 333 141Z" />
<glyph unicode="p" glyph-name="p" horiz-adv-x="634" d="M-31 -190T-36 -183T-40 -165L100 495Q102 506 111 513T130 520H249Q260 520 265 513T269 495L262 459Q295 493 332 511T422 530Q506 530 552 485T599 355Q599 321 594 295Q589 263 579 224Q551 114 486
52T324 -10Q274 -10 238 7T186 56L139 -165Q137 -176 128 -183T109 -190H-20Q-31 -190 -36 -183ZM331 129T356 155T396 229Q405 260 410 291Q412 313 412 321Q412 355 398 373T348 391Q304 391 276 364T237 294Q228 263 221 219Q219 211 219 195Q219 165 235 147T288
129Q331 129 356 155Z" />
<glyph unicode="q" glyph-name="q" horiz-adv-x="634" d="M308 -190T303 -183T299 -165L346 56Q315 23 280 7T197 -10Q113 -10 66 37T19 168Q19 190 24 222Q27 240 40 297Q69 410 133 470T294 530Q347 530 385 511T442 459L449 495Q451 505 460 512T480 520H599Q610
520 615 513T619 495L479 -165Q477 -175 468 -182T448 -190H319Q308 -190 303 -183ZM314 129T342 154T381 219Q388 244 397 294Q399 312 399 321Q399 391 331 391Q252 391 223 291Q214 260 209 229Q207 205 207 196Q207 164 221 147T271 129Q314 129 342 154Z"
/>
<glyph unicode="r" glyph-name="r" horiz-adv-x="463" d="M9 0T4 7T0 25L99 494Q101 505 110 512T130 520H252Q263 520 268 513T272 494L264 456Q290 487 326 503T414 520H472Q482 520 487 513T491 495L468 386Q467 376 458 369T438 361H337Q297 361 271 339T237
277L183 25Q181 14 172 7T152 0H20Q9 0 4 7Z" />
<glyph unicode="s" glyph-name="s" horiz-adv-x="557" d="M148 -10T99 10T29 59T7 115L8 124Q9 135 18 142T36 149H157Q164 149 166 145Q173 141 185 131Q201 117 215 110T252 103Q279 103 298 113T322 143Q323 147 323 154Q323 172 300 183T211 208Q68 238 68
334Q68 352 72 368Q81 409 115 446T205 507T334 530Q402 530 449 511T519 462T543 406L542 398Q541 388 533 381T515 373H405Q396 373 392 377Q381 382 370 392Q356 404 343 410T310 417Q282 417 265 403T248 367Q248 351 271 340T359 316Q441 301 478 267T515
184Q515 169 512 154Q496 79 420 35T224 -10Q148 -10 99 10Z" />
<glyph unicode="t" glyph-name="t" horiz-adv-x="470" d="M87 0T87 140Q87 168 94 199L133 384H55Q44 384 38 391T35 409L52 495Q54 505 63 512T83 520H162L197 685Q199 696 208 703T227 710H350Q361 710 366 703T370 685L335 520H460Q471 520 476 513T480 495L462
409Q460 398 451 391T432 384H306L270 214Q266 197 266 180Q266 161 275 152T308 143H389Q400 143 405 136T409 117L389 25Q387 14 378 7T359 0H274Q87 0 87 140Z" />
<glyph unicode="u" glyph-name="u" horiz-adv-x="644" d="M116 -10T72 31T27 149Q27 178 35 216L94 495Q96 506 105 513T125 520H258Q268 520 273 513T277 495L220 222Q215 199 215 185Q215 157 230 143T279 129Q320 129 349 153T388 222L446 495Q448 505 457
512T477 520H609Q620 520 625 513T629 495L529 25Q527 14 519 7T499 0H377Q366 0 360 7T356 25L364 63Q329 25 291 8T193 -10Q116 -10 72 31Z" />
<glyph unicode="v" glyph-name="v" horiz-adv-x="599" d="M166 0T161 6T152 25L61 491Q59 504 65 512T87 520H199Q212 520 217 514T226 497L271 200L445 499Q457 520 478 520H606Q615 520 620 516T625 503Q625 497 620 489L333 25Q325 13 317 7T294 0H180Q166 0 161 6Z" />
<glyph unicode="w" glyph-name="w" horiz-adv-x="843" d="M113 0T111 25L64 491Q63 502 71 511T92 520H197Q209 520 215 514T223 499L247 222L391 497Q396 506 405 513T427 520H497Q510 520 516 513T524 497L553 222L693 499Q697 507 706 513T727 520H844Q862
520 862 503Q862 496 859 490L617 25Q603 0 579 0H483Q457 0 455 25L415 291L269 25Q257 0 231 0H138Q113 0 111 25Z" />
<glyph unicode="x" glyph-name="x" horiz-adv-x="593" d="M-35 0T-40 5T-45 20Q-45 29 -39 36L181 272L75 485Q73 491 73 493Q73 503 80 511T99 520H223Q242 520 250 502L313 381L428 502Q443 520 463 520H596Q605 520 610 515T616 500Q616 491 609 484L401 259L511
35Q514 29 514 23Q514 13 507 7T488 0H360Q343 0 334 16L268 146L145 16Q138 9 131 5T112 0H-26Q-35 0 -40 5Z" />
<glyph unicode="y" glyph-name="y" horiz-adv-x="609" d="M43 -190T38 -186T33 -173Q33 -166 38 -158L160 34L63 491Q61 503 68 511T90 520H202Q223 520 227 499L282 215L459 499Q472 520 494 520H620Q628 520 633 515T638 503Q638 495 634 490L210 -169Q205 -178
196 -184T175 -190H51Q43 -190 38 -186Z" />
<glyph unicode="z" glyph-name="z" horiz-adv-x="556" d="M-10 0T-16 7T-20 25L-2 108Q2 126 16 137L296 386H90Q79 386 74 393T70 411L88 495Q90 506 99 513T119 520H525Q536 520 541 513T545 495L527 405Q523 390 509 379L237 134H464Q475 134 480 127T484 109L466
25Q464 14 455 7T436 0H1Q-10 0 -16 7Z" />
<glyph unicode="{" glyph-name="braceleft" horiz-adv-x="431" d="M194 -157T134 -105T73 49Q73 86 82 131Q87 158 87 174Q87 224 52 244L40 249Q29 255 25 261T20 278Q20 286 21 290L29 328Q33 343 41 352T65 369L80 375Q141 402 158 487Q178 581 227 645T345
742T494 776H500Q510 776 514 770T517 754L497 658Q496 649 489 643T473 636H469Q405 631 369 594T315 473Q303 411 273 368T207 309Q228 298 240 270T252 203Q252 175 246 145Q238 110 238 77Q238 31 260 9T329 -18H334Q342 -19 346 -25T349 -40L328 -136Q327
-146 319 -152T302 -158H297Q194 -157 134 -105Z" />
<glyph unicode="|" glyph-name="bar" horiz-adv-x="267" d="M-32 -208T-37 -201T-41 -183L183 871Q185 882 194 889T214 896H309Q319 896 324 889T328 871L105 -183Q103 -193 94 -200T74 -208H-21Q-32 -208 -37 -201Z" />
<glyph unicode="}" glyph-name="braceright" horiz-adv-x="431" d="M270 775T330 723T391 570Q391 532 382 487Q377 462 377 445Q377 394 413 374L424 368Q444 357 444 338Q444 332 443 328L435 289Q432 275 424 266T399 249L385 243Q325 217 306 131Q276 -9 185
-82T-30 -158H-36Q-45 -158 -50 -152T-54 -136L-33 -40Q-31 -31 -24 -25T-8 -18H-5Q59 -13 95 24T149 145Q162 207 192 250T258 309Q237 320 225 348T212 416Q212 442 218 472Q227 513 227 541Q227 587 205 609T135 635L131 636Q123 637 119 643T115 658L135 754Q137
763 145 769T162 776H167Q270 775 330 723Z" />
<glyph unicode="~" glyph-name="asciitilde" horiz-adv-x="554" d="M60 211T60 227Q60 230 62 242L79 321Q85 350 121 371T204 393Q236 393 260 388T313 372Q318 371 337 365T375 356T413 353Q436 353 453 361T490 381Q492 382 497 385T509 388Q518 388 521 384T525
372Q525 370 523 358L506 278Q500 249 464 228T381 207Q350 207 327 212T272 227Q245 236 223 241T171 246Q137 246 95 219Q85 212 76 211Q60 211 60 227Z" />
<glyph unicode="&#xa0;" glyph-name="uni00A0" horiz-adv-x="213" />
<glyph unicode="&#xa1;" glyph-name="exclamdown" horiz-adv-x="288" d="M444 518T450 511T454 493L427 364Q425 353 416 346T396 338H267Q257 338 251 345T247 364L274 493Q276 504 285 511T305 518H433Q444 518 450 511ZM393 292T398 285T402 266L312 -157Q310
-168 301 -175T282 -182H160Q150 -182 144 -175T139 -157L230 266Q232 277 241 284T261 292H382Q393 292 398 285Z" />
<glyph unicode="&#xa2;" glyph-name="cent" d="M151 -100T146 -93T142 -75L157 3Q94 22 58 66T21 177Q21 189 25 219L42 300Q66 392 124 449T269 523L282 585Q285 596 294 603T313 610H418Q429 610 435 603T438 585L424 519Q476 506 510 479T561 419T578 358Q578
350 577 346Q576 336 568 329T548 321H412Q392 321 389 341Q387 370 372 383T329 397Q251 397 225 295Q213 241 210 224Q206 196 206 187Q206 154 221 139T267 123Q296 123 317 136T354 177Q360 188 367 193T385 198H521Q532 198 537 191T540 172Q532 143 506 107T430
39T311 -4L298 -75Q296 -86 287 -93T267 -100H162Q151 -100 146 -93Z" />
<glyph unicode="&#xa3;" glyph-name="sterling" horiz-adv-x="725" d="M406 -8T376 2T308 32Q278 47 259 54T218 61Q191 61 173 49T142 13Q136 0 122 0H12Q4 0 0 5T-3 18Q13 81 51 126T145 192Q150 218 152 272H77Q66 272 61 279T57 297L74 377Q76 387 85 394T105
402H152Q153 420 160 449Q187 576 272 643T493 711Q606 711 670 661T735 523Q735 503 730 475Q729 466 721 460T704 453H562Q549 453 542 459T533 479Q531 521 514 541T461 561Q378 561 354 448Q348 414 346 402H492Q503 402 508 395T512 377L495 297Q493 287 484
280T464 272H324Q318 218 312 189Q341 183 376 163Q399 151 414 146T451 140Q481 140 502 154T542 196Q552 208 563 208H659Q668 208 672 203T674 189Q660 128 624 84T541 16T447 -8Q406 -8 376 2Z" />
<glyph unicode="&#xa4;" glyph-name="currency" horiz-adv-x="615" d="M30 103Q26 108 26 116Q26 130 37 139L92 184Q80 214 80 249Q80 273 86 300Q100 365 142 416L106 461Q102 466 102 474Q102 488 114 497L179 551Q190 559 199 559Q209 559 215 551L251 505Q310
537 373 537Q433 537 483 505L538 551Q548 559 557 559Q567 559 573 551L616 497Q620 489 620 485Q620 470 608 461L553 416Q564 383 564 347Q564 327 559 300Q546 238 503 184L539 139Q543 134 543 126Q543 112 532 103L466 49Q458 42 447 42Q436 42 430 49L395
95Q337 63 272 63Q209 63 163 95L108 49Q100 42 89 42Q78 42 72 49L30 103ZM345 190T383 222T433 300Q435 308 435 323Q435 361 410 385T346 410Q312 410 281 392T230 342T210 276Q210 238 234 214T299 190Q345 190 383 222Z" />
<glyph unicode="&#xa5;" glyph-name="yen" horiz-adv-x="695" d="M729 700T734 694T738 679Q737 673 733 668L450 286H556Q567 286 572 279T576 261L559 178Q556 167 547 160T528 153H400L372 25Q370 14 362 7T342 0H205Q195 0 189 7T184 25L211 153H85Q74 153
68 160T65 178L82 261Q84 272 93 279T113 286H218L98 668Q95 672 97 679Q98 688 105 694T122 700H248Q262 700 269 693T279 678L358 436L541 678Q546 686 556 693T581 700H721Q729 700 734 694Z" />
<glyph unicode="&#xa6;" glyph-name="brokenbar" horiz-adv-x="272" d="M116 475T111 482T107 500L171 804Q173 814 182 821T202 829H297Q308 829 313 822T317 804L252 500Q250 489 241 482T221 475H126Q116 475 111 482ZM15 0T10 7T6 25L70 329Q72 339 81 346T101
354H196Q207 354 212 347T216 329L151 25Q149 14 141 7T121 0H26Q15 0 10 7Z" />
<glyph unicode="&#xa7;" glyph-name="section" horiz-adv-x="608" d="M149 -140T103 -120T33 -68T10 -4Q10 5 11 9Q12 19 19 25T37 31H154Q162 31 167 28T177 16Q183 0 196 -10T241 -20Q273 -20 291 -1T310 47Q310 66 288 80T206 108Q120 132 82 167T43 258Q43
280 49 307Q66 387 149 442Q142 457 142 480Q142 496 147 519Q158 571 193 614T286 684T415 710Q483 710 530 690T600 638T623 574Q623 566 622 562Q621 552 613 546T595 540H478Q469 540 464 543T454 556Q448 571 435 580T392 590Q360 590 341 571T322 523Q322
504 344 490T426 462Q512 438 550 403T589 312Q589 290 583 263Q574 222 548 188T483 128Q490 110 490 87Q490 68 486 51Q475 -1 439 -44T346 -114T216 -140Q149 -140 103 -120ZM398 217T411 232T424 271Q424 290 407 303T349 329Q309 341 259 359Q239 355 226
343T210 315Q208 305 208 300Q208 281 225 268T285 240L373 210Q398 217 411 232Z" />
<glyph unicode="&#xa8;" glyph-name="dieresis" horiz-adv-x="404" d="M39 606T34 612T31 628L51 724Q53 734 61 740T79 747H174Q184 747 189 741T192 724L172 628Q170 618 162 612T144 606H49Q39 606 34 612ZM249 606T244 612T241 628L262 724Q263 734 271 740T289
747H384Q394 747 399 741T403 724L382 628Q380 618 373 612T355 606H259Q249 606 244 612Z" />
<glyph unicode="&#xa9;" glyph-name="copyright" horiz-adv-x="807" d="M263 -10T195 29T88 137T48 287Q48 323 55 357Q76 456 138 536T291 663T483 710Q566 710 634 671T742 563T782 413Q782 377 775 343Q754 244 692 164T539 37T347 -10Q263 -10 195 29ZM429
72T500 109T622 211T688 350Q695 379 695 411Q695 473 668 522T591 600T476 628Q401 628 330 591T208 489T142 350Q135 321 135 289Q135 227 162 178T239 100T354 72Q429 72 500 109ZM315 158T274 194T233 288Q233 296 235 314Q238 329 242 351T251 388Q270 461
318 502T446 544Q496 544 531 528T585 486T604 433Q604 426 603 422Q602 412 594 406T576 400H507Q496 400 492 405T486 421Q484 439 473 447T438 455Q382 455 362 385Q351 339 348 317Q346 301 346 292Q346 247 389 247Q413 247 429 255T456 281Q463 291 469 296T486
302H555Q565 302 570 296T573 280Q560 231 514 195T381 158Q315 158 274 194Z" />
<glyph unicode="&#xaa;" glyph-name="ordfeminine" horiz-adv-x="354" d="M123 429T100 448T76 495Q76 504 77 508Q84 545 118 567T210 599L268 608Q271 623 271 624Q271 638 250 638Q239 638 233 636T217 627Q216 626 210 623T197 620H133Q127 620 124 623T122
634Q130 660 160 682T254 705Q308 705 339 683T371 620Q371 609 368 595L337 451Q335 444 330 439T317 434H252Q245 434 241 439T238 451L241 462Q227 447 207 438T162 429Q123 429 100 448ZM219 498T235 511T255 549L219 542Q178 533 176 514V511Q176 498 196
498Q219 498 235 511Z" />
<glyph unicode="&#xab;" glyph-name="guillemotleft" horiz-adv-x="622" d="M226 65T218 73L54 274Q44 288 45 304L56 354Q61 371 77 384L328 585Q337 593 347 593Q356 593 360 587T363 571L342 472Q338 457 333 449T315 430L191 329L272 228Q284 215 284 201Q284
198 282 186L260 87Q258 78 251 72T234 65Q226 65 218 73ZM502 65T495 73L330 274Q319 288 322 304L332 354Q336 369 354 384L604 585Q615 593 623 593Q632 593 636 587T639 571L618 472Q615 457 610 449T592 430L468 329L548 228Q560 215 560 201Q560 198 558
186L537 87Q535 78 528 72T511 65Q502 65 495 73Z" />
<glyph unicode="&#xac;" glyph-name="logicalnot" horiz-adv-x="570" d="M346 92T341 99T337 117L359 217H62Q51 217 46 224T42 243L59 325Q61 335 70 342T90 350H495Q506 350 511 343T515 325L471 117Q469 106 460 99T441 92H357Q346 92 341 99Z" />
<glyph unicode="&#xad;" glyph-name="uni00AD" horiz-adv-x="213" />
<glyph unicode="&#xae;" glyph-name="registered" horiz-adv-x="808" d="M263 -10T195 29T88 137T48 287Q48 323 55 357Q76 456 138 536T290 663T483 710Q567 710 635 671T742 563T782 413Q782 377 775 343Q754 244 692 164T539 37T347 -10Q263 -10 195 29ZM429
72T500 109T622 211T689 350Q696 387 696 411Q696 473 669 522T591 600T476 628Q402 628 331 591T208 489T141 350Q135 320 135 291Q135 229 162 179T239 101T354 72Q429 72 500 109ZM241 168T237 174T234 190L302 512Q304 522 311 528T329 534H459Q516 534 557
510T598 437Q598 426 595 412Q587 374 565 348T512 309L543 204Q544 201 544 195Q544 185 537 177T517 168H457Q436 168 432 187L408 289H363L342 190Q340 180 333 174T315 168H251Q241 168 237 174ZM434 374Q456 374 469 384T485 412Q486 416 486 423Q486 450
451 450H397L381 374H434Z" />
<glyph unicode="&#xaf;" glyph-name="overscore" horiz-adv-x="377" d="M39 604T34 610T31 627L47 701Q49 711 56 717T74 723H359Q369 723 373 717T376 701L361 627Q359 617 351 611T333 604H49Q39 604 34 610Z" />
<glyph unicode="&#xb0;" glyph-name="degree" horiz-adv-x="412" d="M156 368T116 405T76 502Q76 522 80 539Q90 587 121 626T197 687T290 710Q355 710 395 673T436 575Q436 556 432 539Q422 491 390 452T314 391T221 368Q156 368 116 405ZM276 463T305 490T334
558Q334 584 318 599T274 615Q236 615 207 587T178 519Q178 493 193 478T238 463Q276 463 305 490Z" />
<glyph unicode="&#xb1;" glyph-name="plusminus" horiz-adv-x="568" d="M209 188T204 195T200 214L232 360H89Q78 360 73 367T69 386L86 463Q88 474 97 481T116 488H258L289 630Q291 641 300 648T320 656H406Q417 656 422 649T426 630L396 488H537Q548 488 553
481T557 463L540 386Q538 375 530 368T510 360H369L338 214Q336 203 327 196T307 188H220Q209 188 204 195ZM12 0T6 7T2 25L19 103Q21 114 30 121T50 128H450Q461 128 467 121T470 103L454 25Q452 14 443 7T424 0H23Q12 0 6 7Z" />
<glyph unicode="&#xb2;" glyph-name="uni00B2" horiz-adv-x="358" d="M64 350T60 356T57 372L64 407Q66 415 72 422T95 441L148 474Q226 522 253 544T286 589Q287 592 287 598Q287 621 259 621Q241 621 232 614T215 594Q206 583 201 580T187 576H125Q106 576 111
595Q124 642 171 673T278 705Q334 705 365 681T397 617Q397 605 394 593Q385 550 349 517T234 437H353Q363 437 367 431T370 415L362 372Q360 362 353 356T335 350H74Q64 350 60 356Z" />
<glyph unicode="&#xb3;" glyph-name="uni00B3" horiz-adv-x="355" d="M146 345T116 359T75 394T66 436Q67 445 74 450T87 455H128Q141 455 161 451Q166 449 172 443T186 434T211 430Q236 430 251 440T266 468Q266 489 226 489H180Q170 489 166 495T164 510L169
535Q171 545 184 556L252 609H142Q132 609 127 615T124 631L135 678Q137 688 144 694T161 700H386Q396 700 401 694T404 678L395 637Q393 628 389 622T375 610L303 561Q379 548 379 485Q379 444 356 412T291 363T197 345Q146 345 116 359Z" />
<glyph unicode="&#xb4;" glyph-name="acute" horiz-adv-x="347" d="M31 595T31 607Q31 616 39 624L152 733Q165 745 172 748T193 752H331Q339 752 343 747T346 733Q344 725 338 720L180 610Q169 602 160 599T139 595H44Q31 595 31 607Z" />
<glyph unicode="&#xb5;" glyph-name="uni00B5" horiz-adv-x="660" d="M634 520T639 513T643 495L543 25Q541 14 533 7T513 0H391Q380 0 374 7T370 25L378 63Q346 28 304 12T204 -5Q191 -5 184 -4L148 -174Q146 -184 137 -191T117 -199H-20Q-30 -199 -35 -192T-39
-174L102 495Q104 505 113 512T133 520H270Q280 520 285 513T289 495L232 222Q229 209 229 196Q229 164 247 147T295 129Q331 129 362 154T402 222L460 495Q462 505 471 512T491 520H623Q634 520 639 513Z" />
<glyph unicode="&#xb6;" glyph-name="paragraph" horiz-adv-x="638" d="M83 562T117 605T201 674T302 700H630Q640 700 646 693T651 675L491 -75Q489 -85 480 -92T460 -100H374Q363 -100 358 -93T354 -75L493 581H414L275 -75Q273 -85 264 -92T244 -100H158Q147
-100 142 -93T138 -75L222 319Q154 319 111 361T68 469Q68 491 72 510Q83 562 117 605Z" />
<glyph unicode="&#xb7;" glyph-name="middot" horiz-adv-x="327" d="M41 347T64 382T123 439T198 460Q243 460 272 431T301 359Q301 320 279 285T220 229T144 207Q99 207 70 236T41 308Q41 347 64 382Z" />
<glyph unicode="&#xb8;" glyph-name="cedilla" horiz-adv-x="253" d="M82 -220T56 -207T30 -180Q30 -173 37 -169L58 -153Q64 -148 70 -148Q74 -148 86 -154T117 -161Q134 -161 145 -151T157 -125Q157 -115 150 -109T129 -103Q121 -103 107 -106T87 -110Q78 -110
73 -104L55 -80Q52 -76 52 -71Q52 -63 63 -46L111 27H181L126 -49Q144 -43 160 -43Q189 -43 206 -62T223 -111Q223 -123 220 -135Q211 -175 185 -197T115 -220Q82 -220 56 -207Z" />
<glyph unicode="&#xb9;" glyph-name="uni00B9" horiz-adv-x="275" d="M163 350T159 356T156 372L199 577L140 539Q135 535 126 535Q116 535 110 544L90 580Q87 585 87 589Q87 601 100 611L225 693Q236 700 249 700H312Q322 700 327 694T330 678L265 372Q263 362
256 356T238 350H173Q163 350 159 356Z" />
<glyph unicode="&#xba;" glyph-name="ordmasculine" horiz-adv-x="351" d="M152 429T119 453T85 523Q85 535 86 542Q88 557 98 592Q113 649 150 677T253 705Q307 705 342 681T378 611Q378 604 376 592Q375 581 372 567T365 542Q349 484 314 457T210 429Q152 429
119 453ZM235 503T245 512T261 545Q269 573 271 589Q272 595 272 605Q272 618 266 624T246 631Q228 631 218 621T201 589Q193 561 191 545Q190 539 190 529Q190 515 196 509T217 503Q235 503 245 512Z" />
<glyph unicode="&#xbb;" glyph-name="guillemotright" horiz-adv-x="622" d="M33 65T28 71T25 87L46 186Q50 201 55 209T73 228L197 329L116 430Q105 444 105 456Q105 460 107 472L128 571Q130 580 137 586T154 593Q162 593 170 585L334 384Q346 371 343 354L332
304Q329 288 311 274L60 73Q51 65 42 65Q33 65 28 71ZM309 65T304 71T301 87L323 186Q326 201 331 209T349 228L473 329L392 430Q381 444 381 456Q381 460 383 472L404 571Q406 580 413 586T430 593Q438 593 446 585L610 384Q622 372 619 354L608 304Q605 288 587
274L337 73Q326 65 318 65Q309 65 304 71Z" />
<glyph unicode="&#xbc;" glyph-name="onequarter" horiz-adv-x="800" d="M186 350T182 356T179 372L222 577L163 539Q158 535 149 535Q139 535 133 544L113 580Q110 585 110 589Q110 601 123 611L248 693Q259 700 272 700H335Q345 700 350 694T353 678L288 372Q286
362 279 356T261 350H196Q186 350 182 356ZM556 0T552 6T549 22L556 56H406Q396 56 392 62T389 78L399 127Q405 144 417 157L586 332Q603 350 619 350H702Q712 350 717 344T720 328L681 148H716Q726 148 731 142T734 126L724 78Q722 68 715 62T697 56H662L655 22Q653
12 646 6T628 0H566Q556 0 552 6ZM510 145H576L597 238L510 145ZM36 0T31 4T25 16Q25 24 32 31L664 681Q674 691 682 695T703 700H763Q772 700 777 696T783 684Q783 676 776 669L144 19Q134 9 126 5T105 0H45Q36 0 31 4Z" />
<glyph unicode="&#xbd;" glyph-name="onehalf" horiz-adv-x="804" d="M186 350T182 356T179 372L222 577L163 539Q158 535 149 535Q139 535 133 544L113 580Q110 585 110 589Q110 601 123 611L248 693Q259 700 272 700H335Q345 700 350 694T353 678L288 372Q286
362 279 356T261 350H196Q186 350 182 356ZM425 0T421 6T418 22L425 57Q427 65 433 72T456 91L509 124Q587 172 614 194T647 239Q648 242 648 248Q648 271 620 271Q602 271 593 264T576 244Q567 233 562 230T548 226H486Q467 226 472 245Q485 292 532 323T639 355Q695
355 726 331T758 267Q758 255 755 243Q746 200 710 167T595 87H714Q724 87 728 81T731 65L723 22Q721 12 714 6T696 0H435Q425 0 421 6ZM36 0T31 4T25 16Q25 24 32 31L664 681Q674 691 682 695T703 700H763Q772 700 777 696T783 684Q783 676 776 669L144 19Q134
9 126 5T105 0H45Q36 0 31 4Z" />
<glyph unicode="&#xbe;" glyph-name="threequarters" horiz-adv-x="820" d="M159 345T129 359T88 394T79 436Q80 445 87 450T100 455H141Q154 455 174 451Q179 449 185 443T199 434T224 430Q249 430 264 440T279 468Q279 489 239 489H193Q183 489 179 495T177
510L182 535Q184 545 197 556L265 609H155Q145 609 140 615T137 631L148 678Q150 688 157 694T174 700H399Q409 700 414 694T417 678L408 637Q406 628 402 622T388 610L316 561Q392 548 392 485Q392 444 369 412T304 363T210 345Q159 345 129 359ZM579 0T575 6T572
22L579 56H429Q419 56 415 62T412 78L422 127Q428 144 440 157L609 332Q626 350 642 350H725Q735 350 740 344T743 328L704 148H739Q749 148 754 142T757 126L747 78Q745 68 738 62T720 56H685L678 22Q676 12 669 6T651 0H589Q579 0 575 6ZM533 145H599L620 238L533
145ZM59 0T54 4T48 16Q48 24 55 31L687 681Q697 691 705 695T726 700H786Q795 700 800 696T806 684Q806 676 799 669L167 19Q157 9 149 5T128 0H68Q59 0 54 4Z" />
<glyph unicode="&#xbf;" glyph-name="questiondown" horiz-adv-x="598" d="M585 519T590 512T594 494L569 375Q567 364 558 357T538 349H404Q393 349 387 356T383 375L408 494Q410 505 419 512T440 519H574Q585 519 590 512ZM539 303T544 297T547 283Q546 280
545 275T541 262Q525 221 494 188T412 114Q374 85 354 64T328 23Q325 14 325 6Q325 -16 342 -29T386 -42Q460 -42 493 29Q500 41 508 47T530 53H660Q668 53 673 48T678 34Q678 29 677 26Q664 -28 620 -78T505 -159T343 -191Q226 -191 174 -147T121 -41Q121 -22
126 -4Q137 45 167 81T251 164Q285 195 302 213T333 251Q335 256 338 262T346 276Q356 290 363 296T382 303H531Q539 303 544 297Z" />
<glyph unicode="&#xc0;" glyph-name="Agrave" horiz-adv-x="725" d="M-41 0T-46 5T-51 19Q-51 24 -48 30L321 671Q338 700 367 700H529Q559 700 563 671L660 30Q661 16 654 8T636 0H509Q482 0 478 24L462 119H201L143 22Q129 0 105 0H-32Q-41 0 -46 5ZM274 269H452L417
524L274 269ZM406 750T399 753T383 765L273 874Q270 879 270 883Q270 893 276 900T293 907H432Q445 907 451 904T465 888L532 779Q534 775 534 770Q534 761 529 756T515 750H418Q406 750 399 753Z" />
<glyph unicode="&#xc1;" glyph-name="Aacute" horiz-adv-x="725" d="M-41 0T-46 5T-51 19Q-51 24 -48 30L321 671Q338 700 367 700H529Q559 700 563 671L660 30Q661 16 654 8T636 0H509Q482 0 478 24L462 119H201L143 22Q129 0 105 0H-32Q-41 0 -46 5ZM274 269H452L417
524L274 269ZM382 750T378 754T375 765Q377 773 383 778L497 888Q510 900 517 903T538 907H684Q692 907 696 902T699 889Q697 880 691 875L533 765Q522 757 513 754T492 750H389Q382 750 378 754Z" />
<glyph unicode="&#xc2;" glyph-name="Acircumflex" horiz-adv-x="725" d="M-41 0T-46 5T-51 19Q-51 24 -48 30L321 671Q338 700 367 700H529Q559 700 563 671L660 30Q661 16 654 8T636 0H509Q482 0 478 24L462 119H201L143 22Q129 0 105 0H-32Q-41 0 -46 5ZM274
269H452L417 524L274 269ZM257 750T259 764Q260 772 267 778L397 889Q409 899 417 903T436 907H526Q536 907 543 903T557 889L639 778Q644 772 642 764Q640 758 636 754T624 750H575Q556 750 544 757L467 805L369 757Q355 750 335 750H271Q257 750 259 764Z" />
<glyph unicode="&#xc3;" glyph-name="Atilde" horiz-adv-x="725" d="M-41 0T-46 5T-51 19Q-51 24 -48 30L321 671Q338 700 367 700H529Q559 700 563 671L660 30Q661 16 654 8T636 0H509Q482 0 478 24L462 119H201L143 22Q129 0 105 0H-32Q-41 0 -46 5ZM274 269H452L417
524L274 269ZM504 745T489 750T457 766Q447 771 436 775T415 780Q404 780 397 776T381 763Q370 750 359 750H296Q289 750 285 755T282 767Q287 793 303 823T348 876T417 898Q437 898 451 893T484 878Q497 870 506 867T527 863Q538 863 544 867T560 880Q571 893
582 893H645Q653 893 657 888T659 875Q654 849 638 819T594 767T525 745Q504 745 489 750Z" />
<glyph unicode="&#xc4;" glyph-name="Adieresis" horiz-adv-x="725" d="M-41 0T-46 5T-51 19Q-51 24 -48 30L321 671Q338 700 367 700H529Q559 700 563 671L660 30Q661 16 654 8T636 0H509Q482 0 478 24L462 119H201L143 22Q129 0 105 0H-32Q-41 0 -46 5ZM274
269H452L417 524L274 269ZM278 750T273 756T270 773L290 868Q292 878 300 884T318 891H413Q423 891 428 885T431 868L411 773Q409 763 401 757T383 750H288Q278 750 273 756ZM518 750T513 756T510 773L530 868Q532 878 540 884T558 891H653Q663 891 668 885T671
868L651 773Q649 763 641 757T623 750H528Q518 750 513 756Z" />
<glyph unicode="&#xc5;" glyph-name="Aring" horiz-adv-x="725" d="M-41 0T-46 5T-51 19Q-51 24 -48 30L321 671Q338 700 367 700H529Q559 700 563 671L660 30Q661 16 654 8T636 0H509Q482 0 478 24L462 119H201L143 22Q129 0 105 0H-32Q-41 0 -46 5ZM274 269H452L417
524L274 269ZM420 740T398 759T376 810Q376 816 378 828Q387 867 418 892T489 917Q524 917 545 898T567 847Q567 817 551 793T509 754T454 740Q420 740 398 759ZM479 798T491 809T503 835Q503 845 497 851T479 858Q464 858 453 847T441 821Q441 811 447 805T464
798Q479 798 491 809Z" />
<glyph unicode="&#xc6;" glyph-name="AE" horiz-adv-x="992" d="M-35 0T-40 5T-45 18Q-45 26 -41 31L327 672Q334 684 345 692T371 700H1001Q1012 700 1018 693T1022 674L1001 575Q998 564 990 557T970 550H674L646 423H920Q931 423 937 416T941 397L921 306Q919
295 910 288T890 280H616L588 150H893Q904 150 909 143T913 124L892 25Q890 14 881 7T861 0H401Q390 0 385 7T381 25L401 119H206L148 22Q134 0 110 0H-26Q-35 0 -40 5ZM279 269H432L492 548H434L279 269Z" />
<glyph unicode="&#xc7;" glyph-name="Ccedilla" horiz-adv-x="706" d="M227 -220T205 -208T182 -182Q182 -175 190 -169L212 -153Q218 -148 224 -148Q228 -148 240 -154T270 -161Q285 -161 296 -153T310 -131Q312 -119 305 -111T283 -103Q274 -103 260 -106T240
-110Q231 -110 227 -104L211 -84Q208 -80 208 -75Q208 -66 218 -52L248 -6Q150 5 99 56T48 197Q48 227 54 261Q69 353 92 439Q125 569 222 639T460 710Q581 710 654 657T727 512Q727 488 723 467Q721 458 713 452T696 446H554Q540 446 535 451T527 472Q524 521
500 540T428 560Q373 560 337 530T284 434Q263 343 249 266Q245 247 245 227Q245 140 339 140Q385 140 419 160T475 228Q482 243 490 248T513 254H655Q664 254 669 248T672 233Q655 158 603 103T473 19T307 -10L280 -49Q287 -46 296 -45T314 -43Q344 -43 360 -60T377
-107Q377 -155 343 -187T257 -220Q227 -220 205 -208Z" />
<glyph unicode="&#xc8;" glyph-name="Egrave" horiz-adv-x="641" d="M20 0T14 7T10 25L148 674Q150 685 159 692T179 700H651Q662 700 667 693T671 674L650 575Q648 564 639 557T619 550H303L275 423H570Q581 423 586 416T590 397L571 306Q569 295 560 288T540
280H245L218 150H542Q553 150 558 143T562 124L541 25Q539 14 530 7T511 0H31Q20 0 14 7ZM379 750T372 753T356 765L246 874Q243 879 243 883Q243 893 249 900T266 907H405Q418 907 424 904T438 888L505 779Q507 775 507 770Q507 761 502 756T488 750H391Q379 750
372 753Z" />
<glyph unicode="&#xc9;" glyph-name="Eacute" horiz-adv-x="641" d="M20 0T14 7T10 25L148 674Q150 685 159 692T179 700H651Q662 700 667 693T671 674L650 575Q648 564 639 557T619 550H303L275 423H570Q581 423 586 416T590 397L571 306Q569 295 560 288T540
280H245L218 150H542Q553 150 558 143T562 124L541 25Q539 14 530 7T511 0H31Q20 0 14 7ZM346 750T342 754T339 765Q341 773 347 778L461 888Q474 900 481 903T502 907H648Q656 907 660 902T663 889Q661 880 655 875L497 765Q486 757 477 754T456 750H353Q346 750
342 754Z" />
<glyph unicode="&#xca;" glyph-name="Ecircumflex" horiz-adv-x="641" d="M20 0T14 7T10 25L148 674Q150 685 159 692T179 700H651Q662 700 667 693T671 674L650 575Q648 564 639 557T619 550H303L275 423H570Q581 423 586 416T590 397L571 306Q569 295 560 288T540
280H245L218 150H542Q553 150 558 143T562 124L541 25Q539 14 530 7T511 0H31Q20 0 14 7ZM220 750T222 764Q223 772 230 778L360 889Q372 899 380 903T399 907H489Q499 907 506 903T520 889L602 778Q607 772 605 764Q603 758 599 754T587 750H538Q519 750 507 757L430
805L332 757Q318 750 298 750H234Q220 750 222 764Z" />
<glyph unicode="&#xcb;" glyph-name="Edieresis" horiz-adv-x="641" d="M20 0T14 7T10 25L148 674Q150 685 159 692T179 700H651Q662 700 667 693T671 674L650 575Q648 564 639 557T619 550H303L275 423H570Q581 423 586 416T590 397L571 306Q569 295 560 288T540
280H245L218 150H542Q553 150 558 143T562 124L541 25Q539 14 530 7T511 0H31Q20 0 14 7ZM245 750T240 756T237 773L257 868Q259 878 267 884T285 891H380Q390 891 395 885T398 868L378 773Q376 763 368 757T350 750H255Q245 750 240 756ZM485 750T480 756T477
773L497 868Q499 878 507 884T525 891H620Q630 891 635 885T638 868L618 773Q616 763 608 757T590 750H495Q485 750 480 756Z" />
<glyph unicode="&#xcc;" glyph-name="Igrave" horiz-adv-x="329" d="M19 0T14 7T10 25L149 675Q151 686 159 693T179 700H321Q331 700 337 693T342 675L203 25Q201 14 192 7T173 0H30Q19 0 14 7ZM210 750T203 753T187 765L77 874Q74 879 74 883Q74 893 80 900T97
907H236Q249 907 255 904T269 888L336 779Q338 775 338 770Q338 761 333 756T319 750H222Q210 750 203 753Z" />
<glyph unicode="&#xcd;" glyph-name="Iacute" horiz-adv-x="329" d="M19 0T14 7T10 25L149 675Q151 686 159 693T179 700H321Q331 700 337 693T342 675L203 25Q201 14 192 7T173 0H30Q19 0 14 7ZM194 750T190 754T187 765Q189 773 195 778L309 888Q322 900 329
903T350 907H496Q504 907 508 902T511 889Q509 880 503 875L345 765Q334 757 325 754T304 750H201Q194 750 190 754Z" />
<glyph unicode="&#xce;" glyph-name="Icircumflex" horiz-adv-x="329" d="M19 0T14 7T10 25L149 675Q151 686 159 693T179 700H321Q331 700 337 693T342 675L203 25Q201 14 192 7T173 0H30Q19 0 14 7ZM63 750T65 764Q66 772 73 778L203 889Q215 899 223 903T242
907H332Q342 907 349 903T363 889L445 778Q450 772 448 764Q446 758 442 754T430 750H381Q362 750 350 757L273 805L175 757Q161 750 141 750H77Q63 750 65 764Z" />
<glyph unicode="&#xcf;" glyph-name="Idieresis" horiz-adv-x="329" d="M19 0T14 7T10 25L149 675Q151 686 159 693T179 700H321Q331 700 337 693T342 675L203 25Q201 14 192 7T173 0H30Q19 0 14 7ZM83 750T78 756T75 773L95 868Q97 878 105 884T123 891H218Q228
891 233 885T236 868L216 773Q214 763 206 757T188 750H93Q83 750 78 756ZM323 750T318 756T315 773L335 868Q337 878 345 884T363 891H458Q468 891 473 885T476 868L456 773Q454 763 446 757T428 750H333Q323 750 318 756Z" />
<glyph unicode="&#xd0;" glyph-name="Eth" horiz-adv-x="735" d="M37 0T31 7T27 25L84 291H37Q27 291 22 298T18 316L33 389Q34 399 43 406T64 414H110L165 674Q167 685 176 692T196 700H442Q521 700 584 674T684 598T721 478Q721 457 716 427Q702 346 684 274Q648
131 567 66T332 0H48Q37 0 31 7ZM342 150Q404 150 441 180T494 276Q515 365 526 425Q529 445 529 461Q529 506 503 528T422 550H327L298 414H385Q395 414 401 407T405 389L390 316Q388 306 379 299T359 291H271L241 150H342Z" />
<glyph unicode="&#xd1;" glyph-name="Ntilde" horiz-adv-x="722" d="M20 0T14 7T10 25L148 674Q150 685 158 692T178 700H290Q315 700 321 681L478 306L557 674Q559 685 567 692T587 700H714Q725 700 730 693T734 674L596 26Q594 15 586 8T566 0H454Q440 0 434
5T423 19L264 379L188 25Q186 14 177 7T158 0H31Q20 0 14 7ZM499 745T484 750T452 766Q442 771 431 775T410 780Q399 780 392 776T376 763Q365 750 354 750H291Q284 750 280 755T277 767Q282 793 298 823T343 876T412 898Q432 898 446 893T479 878Q492 870 501
867T522 863Q533 863 539 867T555 880Q566 893 577 893H640Q648 893 652 888T654 875Q649 849 633 819T589 767T520 745Q499 745 484 750Z" />
<glyph unicode="&#xd2;" glyph-name="Ograve" horiz-adv-x="715" d="M230 -10T169 15T71 89T35 209Q35 230 40 262Q57 359 77 435Q111 571 197 640T430 710Q507 710 569 684T667 608T703 486Q703 465 698 435Q684 354 661 262Q627 125 541 58T308 -10Q230 -10
169 15ZM377 140T414 171T468 268Q490 359 503 432Q507 452 507 473Q507 560 416 560Q362 560 325 529T271 432Q254 369 235 268Q231 248 231 227Q231 140 323 140Q377 140 414 171ZM398 750T391 753T375 765L265 874Q262 879 262 883Q262 893 268 900T285 907H424Q437
907 443 904T457 888L524 779Q526 775 526 770Q526 761 521 756T507 750H410Q398 750 391 753Z" />
<glyph unicode="&#xd3;" glyph-name="Oacute" horiz-adv-x="715" d="M230 -10T169 15T71 89T35 209Q35 230 40 262Q57 359 77 435Q111 571 197 640T430 710Q507 710 569 684T667 608T703 486Q703 465 698 435Q684 354 661 262Q627 125 541 58T308 -10Q230 -10
169 15ZM377 140T414 171T468 268Q490 359 503 432Q507 452 507 473Q507 560 416 560Q362 560 325 529T271 432Q254 369 235 268Q231 248 231 227Q231 140 323 140Q377 140 414 171ZM375 750T371 754T368 765Q370 773 376 778L490 888Q503 900 510 903T531 907H677Q685
907 689 902T692 889Q690 880 684 875L526 765Q515 757 506 754T485 750H382Q375 750 371 754Z" />
<glyph unicode="&#xd4;" glyph-name="Ocircumflex" horiz-adv-x="715" d="M230 -10T169 15T71 89T35 209Q35 230 40 262Q57 359 77 435Q111 571 197 640T430 710Q507 710 569 684T667 608T703 486Q703 465 698 435Q684 354 661 262Q627 125 541 58T308 -10Q230
-10 169 15ZM377 140T414 171T468 268Q490 359 503 432Q507 452 507 473Q507 560 416 560Q362 560 325 529T271 432Q254 369 235 268Q231 248 231 227Q231 140 323 140Q377 140 414 171ZM249 750T251 764Q252 772 259 778L389 889Q401 899 409 903T428 907H518Q528
907 535 903T549 889L631 778Q636 772 634 764Q632 758 628 754T616 750H567Q548 750 536 757L459 805L361 757Q347 750 327 750H263Q249 750 251 764Z" />
<glyph unicode="&#xd5;" glyph-name="Otilde" horiz-adv-x="715" d="M230 -10T169 15T71 89T35 209Q35 230 40 262Q57 359 77 435Q111 571 197 640T430 710Q507 710 569 684T667 608T703 486Q703 465 698 435Q684 354 661 262Q627 125 541 58T308 -10Q230 -10
169 15ZM377 140T414 171T468 268Q490 359 503 432Q507 452 507 473Q507 560 416 560Q362 560 325 529T271 432Q254 369 235 268Q231 248 231 227Q231 140 323 140Q377 140 414 171ZM504 745T489 750T457 766Q447 771 436 775T415 780Q404 780 397 776T381 763Q370
750 359 750H296Q289 750 285 755T282 767Q287 793 303 823T348 876T417 898Q437 898 451 893T484 878Q497 870 506 867T527 863Q538 863 544 867T560 880Q571 893 582 893H645Q653 893 657 888T659 875Q654 849 638 819T594 767T525 745Q504 745 489 750Z" />
<glyph unicode="&#xd6;" glyph-name="Odieresis" horiz-adv-x="715" d="M230 -10T169 15T71 89T35 209Q35 230 40 262Q57 359 77 435Q111 571 197 640T430 710Q507 710 569 684T667 608T703 486Q703 465 698 435Q684 354 661 262Q627 125 541 58T308 -10Q230 -10
169 15ZM377 140T414 171T468 268Q490 359 503 432Q507 452 507 473Q507 560 416 560Q362 560 325 529T271 432Q254 369 235 268Q231 248 231 227Q231 140 323 140Q377 140 414 171ZM272 750T267 756T264 773L284 868Q286 878 294 884T312 891H407Q417 891 422
885T425 868L405 773Q403 763 395 757T377 750H282Q272 750 267 756ZM512 750T507 756T504 773L524 868Q526 878 534 884T552 891H647Q657 891 662 885T665 868L645 773Q643 763 635 757T617 750H522Q512 750 507 756Z" />
<glyph unicode="&#xd7;" glyph-name="multiply" horiz-adv-x="602" d="M26 177Q22 185 22 189Q22 203 34 213L190 340L90 469Q86 474 86 481Q86 494 97 505L190 580Q198 587 209 587Q219 587 225 580L325 450L484 581Q495 589 504 589Q514 589 520 581L592 490Q596
484 596 478Q596 464 584 455L426 325L526 197Q530 192 530 184Q530 170 519 161L427 86Q416 79 407 79Q398 79 391 86L290 214L133 86Q125 79 114 79Q104 79 98 86L26 177Z" />
<glyph unicode="&#xd8;" glyph-name="Oslash" horiz-adv-x="747" d="M208 -10T143 37T70 177L29 163Q21 160 18 160Q9 160 4 165T1 180L18 259Q21 272 27 278T46 289L79 301Q96 387 109 435Q141 567 239 638T478 710Q586 710 651 665T729 535L773 551Q781 554
785 554Q794 554 798 549T802 534L785 456Q782 443 776 437T756 426L727 415Q714 349 693 262Q660 128 564 59T325 -10Q208 -10 143 37ZM537 466Q538 514 514 537T446 560Q394 560 357 529T302 432Q294 398 290 377L537 466ZM410 140T447 171T501 268L516 339L264
248Q260 193 284 167T357 140Q410 140 447 171Z" />
<glyph unicode="&#xd9;" glyph-name="Ugrave" horiz-adv-x="727" d="M194 -10T121 42T47 198Q47 228 55 266L142 674Q144 685 152 692T172 700H309Q320 700 325 693T329 674L242 268Q237 241 237 224Q237 183 259 164T328 144Q444 144 471 268L558 674Q560 685
568 692T588 700H725Q736 700 741 693T745 674L659 266Q628 123 545 57T313 -10Q194 -10 121 42ZM402 750T395 753T379 765L269 874Q266 879 266 883Q266 893 272 900T289 907H428Q441 907 447 904T461 888L528 779Q530 775 530 770Q530 761 525 756T511 750H414Q402
750 395 753Z" />
<glyph unicode="&#xda;" glyph-name="Uacute" horiz-adv-x="727" d="M194 -10T121 42T47 198Q47 228 55 266L142 674Q144 685 152 692T172 700H309Q320 700 325 693T329 674L242 268Q237 241 237 224Q237 183 259 164T328 144Q444 144 471 268L558 674Q560 685
568 692T588 700H725Q736 700 741 693T745 674L659 266Q628 123 545 57T313 -10Q194 -10 121 42ZM381 750T377 754T374 765Q376 773 382 778L496 888Q509 900 516 903T537 907H683Q691 907 695 902T698 889Q696 880 690 875L532 765Q521 757 512 754T491 750H388Q381
750 377 754Z" />
<glyph unicode="&#xdb;" glyph-name="Ucircumflex" horiz-adv-x="727" d="M194 -10T121 42T47 198Q47 228 55 266L142 674Q144 685 152 692T172 700H309Q320 700 325 693T329 674L242 268Q237 241 237 224Q237 183 259 164T328 144Q444 144 471 268L558 674Q560
685 568 692T588 700H725Q736 700 741 693T745 674L659 266Q628 123 545 57T313 -10Q194 -10 121 42ZM255 750T257 764Q258 772 265 778L395 889Q407 899 415 903T434 907H524Q534 907 541 903T555 889L637 778Q642 772 640 764Q638 758 634 754T622 750H573Q554
750 542 757L465 805L367 757Q353 750 333 750H269Q255 750 257 764Z" />
<glyph unicode="&#xdc;" glyph-name="Udieresis" horiz-adv-x="727" d="M194 -10T121 42T47 198Q47 228 55 266L142 674Q144 685 152 692T172 700H309Q320 700 325 693T329 674L242 268Q237 241 237 224Q237 183 259 164T328 144Q444 144 471 268L558 674Q560
685 568 692T588 700H725Q736 700 741 693T745 674L659 266Q628 123 545 57T313 -10Q194 -10 121 42ZM278 750T273 756T270 773L290 868Q292 878 300 884T318 891H413Q423 891 428 885T431 868L411 773Q409 763 401 757T383 750H288Q278 750 273 756ZM518 750T513
756T510 773L530 868Q532 878 540 884T558 891H653Q663 891 668 885T671 868L651 773Q649 763 641 757T623 750H528Q518 750 513 756Z" />
<glyph unicode="&#xdd;" glyph-name="Yacute" horiz-adv-x="682" d="M199 0T193 7T189 25L234 238L95 668Q94 671 94 676Q94 686 101 693T120 700H244Q258 700 265 693T275 678L360 428L551 678Q556 686 566 693T591 700H733Q742 700 746 696T751 684Q751 676
745 668L422 238L377 25Q375 14 366 7T346 0H210Q199 0 193 7ZM355 750T351 754T348 765Q350 773 356 778L470 888Q483 900 490 903T511 907H657Q665 907 669 902T672 889Q670 880 664 875L506 765Q495 757 486 754T465 750H362Q355 750 351 754Z" />
<glyph unicode="&#xde;" glyph-name="Thorn" horiz-adv-x="680" d="M20 0T14 7T10 25L149 675Q151 686 159 693T179 700H322Q333 700 339 693T343 675L324 586H423Q535 586 603 540T672 406Q672 381 666 354Q641 238 565 183T356 127H226L204 25Q202 14 194 7T174
0H31Q20 0 14 7ZM363 270Q403 270 433 292T472 355Q476 377 476 385Q476 412 460 427T404 442H290L253 270H363Z" />
<glyph unicode="&#xdf;" glyph-name="germandbls" horiz-adv-x="644" d="M23 0T18 7T14 25L108 469Q130 575 210 642T423 710Q536 709 589 665T643 552Q643 530 639 511Q620 423 541 376Q611 343 611 263Q611 240 605 211Q594 159 556 111T452 31T301 0H253Q239
0 233 7T229 25L246 106Q248 117 258 124T281 131H304Q350 131 382 155T422 219Q424 226 424 239Q424 270 402 288T338 306H315Q302 306 297 313T294 332L309 402Q314 427 341 427H361Q405 428 433 447T468 502Q470 514 470 519Q470 545 450 561T395 578Q353 578
324 552T284 472L189 25Q187 15 178 8T158 0H34Q23 0 18 7Z" />
<glyph unicode="&#xe0;" glyph-name="agrave" horiz-adv-x="630" d="M110 -10T65 35T19 165Q19 199 24 225L39 296Q68 407 133 468T299 530Q355 530 387 515T440 470L446 495Q448 506 456 513T476 520H594Q605 520 611 513T615 495L515 25Q513 14 504 7T485 0H366Q355
0 349 7T345 25L352 56Q317 23 282 7T194 -10Q110 -10 65 35ZM312 129T339 156T378 226Q389 268 394 301Q396 317 396 324Q396 355 380 373T329 391Q286 391 261 365T222 291Q212 257 209 229Q206 211 206 195Q206 163 220 146T268 129Q312 129 339 156ZM312 595T305
598T289 610L179 719Q176 724 176 728Q176 738 182 745T198 752H343Q356 752 362 749T376 733L442 625Q445 621 445 615Q445 606 440 601T426 595H324Q312 595 305 598Z" />
<glyph unicode="&#xe1;" glyph-name="aacute" horiz-adv-x="630" d="M110 -10T65 35T19 165Q19 199 24 225L39 296Q68 407 133 468T299 530Q355 530 387 515T440 470L446 495Q448 506 456 513T476 520H594Q605 520 611 513T615 495L515 25Q513 14 504 7T485 0H366Q355
0 349 7T345 25L352 56Q317 23 282 7T194 -10Q110 -10 65 35ZM312 129T339 156T378 226Q389 268 394 301Q396 317 396 324Q396 355 380 373T329 391Q286 391 261 365T222 291Q212 257 209 229Q206 211 206 195Q206 163 220 146T268 129Q312 129 339 156ZM298 595T298
607Q298 616 306 624L419 733Q432 745 439 748T460 752H598Q606 752 610 747T613 733Q611 725 605 720L447 610Q436 602 427 599T406 595H311Q298 595 298 607Z" />
<glyph unicode="&#xe2;" glyph-name="acircumflex" horiz-adv-x="630" d="M110 -10T65 35T19 165Q19 199 24 225L39 296Q68 407 133 468T299 530Q355 530 387 515T440 470L446 495Q448 506 456 513T476 520H594Q605 520 611 513T615 495L515 25Q513 14 504 7T485
0H366Q355 0 349 7T345 25L352 56Q317 23 282 7T194 -10Q110 -10 65 35ZM312 129T339 156T378 226Q389 268 394 301Q396 317 396 324Q396 355 380 373T329 391Q286 391 261 365T222 291Q212 257 209 229Q206 211 206 195Q206 163 220 146T268 129Q312 129 339 156ZM179
595T181 609Q183 617 189 623L319 734Q331 744 339 748T358 752H441Q451 752 458 748T473 734L554 623Q559 617 557 609Q555 603 551 599T539 595H494Q474 595 462 602L385 650L288 602Q273 595 254 595H193Q179 595 181 609Z" />
<glyph unicode="&#xe3;" glyph-name="atilde" horiz-adv-x="630" d="M110 -10T65 35T19 165Q19 199 24 225L39 296Q68 407 133 468T299 530Q355 530 387 515T440 470L446 495Q448 506 456 513T476 520H594Q605 520 611 513T615 495L515 25Q513 14 504 7T485 0H366Q355
0 349 7T345 25L352 56Q317 23 282 7T194 -10Q110 -10 65 35ZM312 129T339 156T378 226Q389 268 394 301Q396 317 396 324Q396 355 380 373T329 391Q286 391 261 365T222 291Q212 257 209 229Q206 211 206 195Q206 163 220 146T268 129Q312 129 339 156ZM425 590T411
595T378 610Q366 618 357 621T337 625Q327 625 321 621T306 609Q299 602 294 599T282 595H219Q212 595 208 600T205 612Q210 638 226 668T270 719T339 741Q359 741 373 736T406 721Q420 713 428 710T448 706Q458 706 464 710T479 723Q491 737 502 737H564Q572 737
576 732T579 719Q570 674 536 632T445 590Q425 590 411 595Z" />
<glyph unicode="&#xe4;" glyph-name="adieresis" horiz-adv-x="630" d="M110 -10T65 35T19 165Q19 199 24 225L39 296Q68 407 133 468T299 530Q355 530 387 515T440 470L446 495Q448 506 456 513T476 520H594Q605 520 611 513T615 495L515 25Q513 14 504 7T485
0H366Q355 0 349 7T345 25L352 56Q317 23 282 7T194 -10Q110 -10 65 35ZM312 129T339 156T378 226Q389 268 394 301Q396 317 396 324Q396 355 380 373T329 391Q286 391 261 365T222 291Q212 257 209 229Q206 211 206 195Q206 163 220 146T268 129Q312 129 339 156ZM210
606T205 612T202 628L222 724Q224 734 232 740T250 747H345Q355 747 360 741T363 724L343 628Q341 618 333 612T315 606H220Q210 606 205 612ZM420 606T415 612T412 628L433 724Q434 734 442 740T460 747H555Q565 747 570 741T574 724L553 628Q551 618 544 612T526
606H430Q420 606 415 612Z" />
<glyph unicode="&#xe5;" glyph-name="aring" horiz-adv-x="630" d="M110 -10T65 35T19 165Q19 199 24 225L39 296Q68 407 133 468T299 530Q355 530 387 515T440 470L446 495Q448 506 456 513T476 520H594Q605 520 611 513T615 495L515 25Q513 14 504 7T485 0H366Q355
0 349 7T345 25L352 56Q317 23 282 7T194 -10Q110 -10 65 35ZM312 129T339 156T378 226Q389 268 394 301Q396 317 396 324Q396 355 380 373T329 391Q286 391 261 365T222 291Q212 257 209 229Q206 211 206 195Q206 163 220 146T268 129Q312 129 339 156ZM336 590T314
609T292 660Q292 666 294 678Q303 717 334 742T405 767Q440 767 461 748T483 697Q483 667 467 643T425 604T370 590Q336 590 314 609ZM395 648T407 659T419 685Q419 695 413 701T395 708Q380 708 369 697T357 671Q357 661 363 655T380 648Q395 648 407 659Z" />
<glyph unicode="&#xe6;" glyph-name="ae" horiz-adv-x="917" d="M96 -10T51 25T5 116Q5 131 8 146Q23 214 88 257T256 316L383 335L386 347Q389 362 389 374Q389 396 377 406T336 417Q315 417 300 410T264 389Q244 376 238 373Q234 366 227 366H111Q101 366 96
372T93 388Q99 415 132 448T224 506T361 530Q474 530 513 476Q590 530 685 530Q796 530 847 476T898 334Q898 301 890 263L885 238Q882 227 873 220T853 212H539L538 206Q534 189 534 172Q534 139 550 123T594 106Q632 106 667 140Q677 150 683 152T702 155H832Q842
155 846 149T849 134Q843 109 807 75T710 15T570 -10Q446 -10 393 67Q307 -10 177 -10Q96 -10 51 25ZM717 314L718 318Q722 335 722 353Q722 384 707 400T661 417Q627 417 601 392T562 318L561 314H717ZM283 108T316 136T361 221L364 233L278 219Q229 210 205 192T180
149Q180 130 196 119T238 108Q283 108 316 136Z" />
<glyph unicode="&#xe7;" glyph-name="ccedilla" horiz-adv-x="592" d="M209 241T206 224Q202 196 202 187Q202 154 217 139T263 123Q292 123 313 136T350 177Q356 188 363 193T381 198H517Q528 198 533 191T536 172Q526 138 493 97T398 23T244 -10L216 -49Q230
-43 250 -43Q279 -43 295 -62T312 -111Q312 -123 309 -135Q301 -175 275 -197T204 -220Q172 -220 146 -207T120 -181Q120 -173 127 -169L148 -153Q154 -148 160 -148Q164 -148 176 -154T207 -161Q222 -161 232 -153T246 -131Q248 -119 241 -111T219 -103Q210 -103
196 -106T176 -110Q168 -110 163 -104L145 -80Q141 -74 141 -70Q141 -62 152 -46L179 -4Q106 11 62 58T17 178Q17 191 21 219L38 300Q67 410 145 470T339 530Q419 530 472 502T549 433T574 357L573 346Q572 336 564 329T544 321H408Q388 321 385 341Q383 370 368
383T325 397Q247 397 221 295Q209 241 206 224Z" />
<glyph unicode="&#xe8;" glyph-name="egrave" horiz-adv-x="595" d="M146 -10T90 37T33 178Q33 212 40 246L47 277Q76 396 160 463T364 530Q471 530 525 478T579 335Q579 303 571 263L566 238Q563 227 554 220T534 212H217L216 206Q213 190 213 174Q213 143 228
125T273 106Q297 106 313 115T346 140Q357 150 363 152T381 155H513Q522 155 527 149T530 134Q523 107 486 73T388 15T250 -10Q146 -10 90 37ZM398 314L399 316Q403 332 403 350Q403 382 387 399T340 417Q302 417 276 390T239 316V314H398ZM306 595T299 598T283
610L173 719Q170 724 170 728Q170 738 176 745T192 752H337Q350 752 356 749T370 733L436 625Q439 621 439 615Q439 606 434 601T420 595H318Q306 595 299 598Z" />
<glyph unicode="&#xe9;" glyph-name="eacute" horiz-adv-x="595" d="M146 -10T90 37T33 178Q33 212 40 246L47 277Q76 396 160 463T364 530Q471 530 525 478T579 335Q579 303 571 263L566 238Q563 227 554 220T534 212H217L216 206Q213 190 213 174Q213 143 228
125T273 106Q297 106 313 115T346 140Q357 150 363 152T381 155H513Q522 155 527 149T530 134Q523 107 486 73T388 15T250 -10Q146 -10 90 37ZM398 314L399 316Q403 332 403 350Q403 382 387 399T340 417Q302 417 276 390T239 316V314H398ZM282 595T282 607Q282
616 290 624L403 733Q416 745 423 748T444 752H582Q590 752 594 747T597 733Q595 725 589 720L431 610Q420 602 411 599T390 595H295Q282 595 282 607Z" />
<glyph unicode="&#xea;" glyph-name="ecircumflex" horiz-adv-x="595" d="M146 -10T90 37T33 178Q33 212 40 246L47 277Q76 396 160 463T364 530Q471 530 525 478T579 335Q579 303 571 263L566 238Q563 227 554 220T534 212H217L216 206Q213 190 213 174Q213 143
228 125T273 106Q297 106 313 115T346 140Q357 150 363 152T381 155H513Q522 155 527 149T530 134Q523 107 486 73T388 15T250 -10Q146 -10 90 37ZM398 314L399 316Q403 332 403 350Q403 382 387 399T340 417Q302 417 276 390T239 316V314H398ZM161 595T163 609Q165
617 171 623L301 734Q313 744 321 748T340 752H423Q433 752 440 748T455 734L536 623Q541 617 539 609Q537 603 533 599T521 595H476Q456 595 444 602L367 650L270 602Q255 595 236 595H175Q161 595 163 609Z" />
<glyph unicode="&#xeb;" glyph-name="edieresis" horiz-adv-x="595" d="M146 -10T90 37T33 178Q33 212 40 246L47 277Q76 396 160 463T364 530Q471 530 525 478T579 335Q579 303 571 263L566 238Q563 227 554 220T534 212H217L216 206Q213 190 213 174Q213 143
228 125T273 106Q297 106 313 115T346 140Q357 150 363 152T381 155H513Q522 155 527 149T530 134Q523 107 486 73T388 15T250 -10Q146 -10 90 37ZM398 314L399 316Q403 332 403 350Q403 382 387 399T340 417Q302 417 276 390T239 316V314H398ZM199 606T194 612T191
628L211 724Q213 734 221 740T239 747H334Q344 747 349 741T352 724L332 628Q330 618 322 612T304 606H209Q199 606 194 612ZM409 606T404 612T401 628L422 724Q423 734 431 740T449 747H544Q554 747 559 741T563 724L542 628Q540 618 533 612T515 606H419Q409
606 404 612Z" />
<glyph unicode="&#xec;" glyph-name="igrave" horiz-adv-x="290" d="M9 0T4 7T0 25L99 495Q101 505 110 512T130 520H255Q266 520 271 513T275 495L175 25Q173 14 165 7T145 0H20Q9 0 4 7ZM160 595T153 598T137 610L27 719Q24 724 24 728Q24 738 30 745T46 752H191Q204
752 210 749T224 733L290 625Q293 621 293 615Q293 606 288 601T274 595H172Q160 595 153 598Z" />
<glyph unicode="&#xed;" glyph-name="iacute" horiz-adv-x="290" d="M9 0T4 7T0 25L99 495Q101 505 110 512T130 520H255Q266 520 271 513T275 495L175 25Q173 14 165 7T145 0H20Q9 0 4 7ZM136 595T136 607Q136 616 144 624L257 733Q270 745 277 748T298 752H436Q444
752 448 747T451 733Q449 725 443 720L285 610Q274 602 265 599T244 595H149Q136 595 136 607Z" />
<glyph unicode="&#xee;" glyph-name="icircumflex" horiz-adv-x="290" d="M9 0T4 7T0 25L99 495Q101 505 110 512T130 520H255Q266 520 271 513T275 495L175 25Q173 14 165 7T145 0H20Q9 0 4 7ZM271 595T273 609Q275 617 281 623L411 734Q423 744 431 748T450
752H533Q543 752 550 748T565 734L646 623Q651 617 649 609Q647 603 643 599T631 595H586Q566 595 554 602L477 650L380 602Q365 595 346 595H285Q271 595 273 609Z" />
<glyph unicode="&#xef;" glyph-name="idieresis" horiz-adv-x="290" d="M9 0T4 7T0 25L99 495Q101 505 110 512T130 520H255Q266 520 271 513T275 495L175 25Q173 14 165 7T145 0H20Q9 0 4 7ZM48 606T43 612T40 628L60 724Q62 734 70 740T88 747H183Q193 747 198
741T201 724L181 628Q179 618 171 612T153 606H58Q48 606 43 612ZM258 606T253 612T250 628L271 724Q272 734 280 740T298 747H393Q403 747 408 741T412 724L391 628Q389 618 382 612T364 606H268Q258 606 253 612Z" />
<glyph unicode="&#xf0;" glyph-name="eth" horiz-adv-x="609" d="M145 -10T87 36T28 169Q28 199 35 230Q59 343 146 406T353 470Q382 470 403 457Q398 495 378 534L258 491L246 488Q237 488 233 493T230 508L235 533Q237 545 243 551T264 563L340 590Q314 623
271 659Q259 669 261 679Q263 688 270 694T287 700H419Q449 700 464 687Q490 661 501 648L599 683Q608 686 612 686Q620 686 624 681T627 666L622 641Q620 629 614 623T594 611L542 592Q589 512 589 400Q589 338 576 269Q572 244 567 226Q539 114 456 52T251 -10Q145
-10 87 36ZM319 116T344 142T380 211Q384 226 389 248Q392 263 392 278Q392 344 326 344Q246 344 223 248Q218 229 215 211Q212 195 212 180Q212 116 277 116Q319 116 344 142Z" />
<glyph unicode="&#xf1;" glyph-name="ntilde" horiz-adv-x="646" d="M9 0T4 7T0 25L99 495Q101 505 110 512T130 520H253Q263 520 268 513T272 495L264 457Q339 530 437 530Q516 530 560 490T604 372Q604 344 596 304L536 25Q534 14 526 7T506 0H373Q362 0 357
7T353 25L410 298Q415 321 415 335Q415 363 400 377T351 391Q309 391 280 367T240 298L183 25Q181 14 172 7T153 0H20Q9 0 4 7ZM435 590T421 595T388 610Q376 618 367 621T347 625Q337 625 331 621T316 609Q309 602 304 599T292 595H229Q222 595 218 600T215 612Q220
638 236 668T280 719T349 741Q369 741 383 736T416 721Q430 713 438 710T458 706Q468 706 474 710T489 723Q501 737 512 737H574Q582 737 586 732T589 719Q580 674 546 632T455 590Q435 590 421 595Z" />
<glyph unicode="&#xf2;" glyph-name="ograve" horiz-adv-x="613" d="M140 -10T80 38T19 173Q19 194 22 215Q27 260 41 305Q70 414 146 472T347 530Q454 530 516 481T579 343Q579 325 576 305Q565 250 556 215Q526 105 452 48T249 -10Q140 -10 80 38ZM307 116T333
141T374 220Q387 270 391 300Q394 321 394 338Q394 371 379 387T331 404Q289 404 263 378T224 300Q219 282 214 260T206 220Q202 190 202 181Q202 148 217 132T265 116Q307 116 333 141ZM314 595T307 598T291 610L181 719Q178 724 178 728Q178 738 184 745T200
752H345Q358 752 364 749T378 733L444 625Q447 621 447 615Q447 606 442 601T428 595H326Q314 595 307 598Z" />
<glyph unicode="&#xf3;" glyph-name="oacute" horiz-adv-x="613" d="M140 -10T80 38T19 173Q19 194 22 215Q27 260 41 305Q70 414 146 472T347 530Q454 530 516 481T579 343Q579 325 576 305Q565 250 556 215Q526 105 452 48T249 -10Q140 -10 80 38ZM307 116T333
141T374 220Q387 270 391 300Q394 321 394 338Q394 371 379 387T331 404Q289 404 263 378T224 300Q219 282 214 260T206 220Q202 190 202 181Q202 148 217 132T265 116Q307 116 333 141ZM288 595T288 607Q288 616 296 624L409 733Q422 745 429 748T450 752H588Q596
752 600 747T603 733Q601 725 595 720L437 610Q426 602 417 599T396 595H301Q288 595 288 607Z" />
<glyph unicode="&#xf4;" glyph-name="ocircumflex" horiz-adv-x="613" d="M140 -10T80 38T19 173Q19 194 22 215Q27 260 41 305Q70 414 146 472T347 530Q454 530 516 481T579 343Q579 325 576 305Q565 250 556 215Q526 105 452 48T249 -10Q140 -10 80 38ZM307
116T333 141T374 220Q387 270 391 300Q394 321 394 338Q394 371 379 387T331 404Q289 404 263 378T224 300Q219 282 214 260T206 220Q202 190 202 181Q202 148 217 132T265 116Q307 116 333 141ZM174 595T176 609Q178 617 184 623L314 734Q326 744 334 748T353
752H436Q446 752 453 748T468 734L549 623Q554 617 552 609Q550 603 546 599T534 595H489Q469 595 457 602L380 650L283 602Q268 595 249 595H188Q174 595 176 609Z" />
<glyph unicode="&#xf5;" glyph-name="otilde" horiz-adv-x="613" d="M140 -10T80 38T19 173Q19 194 22 215Q27 260 41 305Q70 414 146 472T347 530Q454 530 516 481T579 343Q579 325 576 305Q565 250 556 215Q526 105 452 48T249 -10Q140 -10 80 38ZM307 116T333
141T374 220Q387 270 391 300Q394 321 394 338Q394 371 379 387T331 404Q289 404 263 378T224 300Q219 282 214 260T206 220Q202 190 202 181Q202 148 217 132T265 116Q307 116 333 141ZM418 590T404 595T371 610Q359 618 350 621T330 625Q320 625 314 621T299
609Q292 602 287 599T275 595H212Q205 595 201 600T198 612Q203 638 219 668T263 719T332 741Q352 741 366 736T399 721Q413 713 421 710T441 706Q451 706 457 710T472 723Q484 737 495 737H557Q565 737 569 732T572 719Q563 674 529 632T438 590Q418 590 404 595Z"
/>
<glyph unicode="&#xf6;" glyph-name="odieresis" horiz-adv-x="613" d="M140 -10T80 38T19 173Q19 194 22 215Q27 260 41 305Q70 414 146 472T347 530Q454 530 516 481T579 343Q579 325 576 305Q565 250 556 215Q526 105 452 48T249 -10Q140 -10 80 38ZM307 116T333
141T374 220Q387 270 391 300Q394 321 394 338Q394 371 379 387T331 404Q289 404 263 378T224 300Q219 282 214 260T206 220Q202 190 202 181Q202 148 217 132T265 116Q307 116 333 141ZM209 606T204 612T201 628L221 724Q223 734 231 740T249 747H344Q354 747
359 741T362 724L342 628Q340 618 332 612T314 606H219Q209 606 204 612ZM419 606T414 612T411 628L432 724Q433 734 441 740T459 747H554Q564 747 569 741T573 724L552 628Q550 618 543 612T525 606H429Q419 606 414 612Z" />
<glyph unicode="&#xf7;" glyph-name="divide" horiz-adv-x="530" d="M229 415T224 422T220 441L240 533Q242 544 251 551T271 558H369Q380 558 385 551T389 533L370 441Q368 430 359 423T339 415H240Q229 415 224 422ZM43 234T38 241T34 259L52 341Q54 352 62
359T82 367H477Q488 367 493 360T497 341L480 259Q478 249 469 242T449 234H54Q43 234 38 241ZM150 43T145 50T141 68L161 160Q163 171 172 178T191 186H290Q300 186 306 179T310 160L290 68Q288 57 279 50T260 43H161Q150 43 145 50Z" />
<glyph unicode="&#xf8;" glyph-name="oslash" horiz-adv-x="643" d="M177 -10T124 23T54 117L15 103Q8 100 3 100Q-5 100 -9 105T-13 120L-2 172Q0 184 6 190T27 202L51 210Q59 258 71 305Q100 409 181 469T386 530Q477 530 530 498T600 407L641 422Q649 425 653
425Q661 425 665 420T669 405L658 353Q656 341 650 335T629 323L607 315Q603 273 586 215Q558 110 479 50T271 -10Q177 -10 124 23ZM424 344Q424 404 360 404Q282 404 256 311Q251 292 250 281L424 344ZM339 116T364 140T404 218Q405 222 406 229T409 244L232 181Q232
147 248 132T298 116Q339 116 364 140Z" />
<glyph unicode="&#xf9;" glyph-name="ugrave" horiz-adv-x="644" d="M116 -10T72 31T27 149Q27 178 35 216L94 495Q96 506 105 513T125 520H258Q268 520 273 513T277 495L220 222Q215 199 215 185Q215 157 230 143T279 129Q320 129 349 153T388 222L446 495Q448
505 457 512T477 520H609Q620 520 625 513T629 495L529 25Q527 14 519 7T499 0H377Q366 0 360 7T356 25L364 63Q329 25 291 8T193 -10Q116 -10 72 31ZM317 595T310 598T294 610L184 719Q181 724 181 728Q181 738 187 745T203 752H348Q361 752 367 749T381 733L447
625Q450 621 450 615Q450 606 445 601T431 595H329Q317 595 310 598Z" />
<glyph unicode="&#xfa;" glyph-name="uacute" horiz-adv-x="644" d="M116 -10T72 31T27 149Q27 178 35 216L94 495Q96 506 105 513T125 520H258Q268 520 273 513T277 495L220 222Q215 199 215 185Q215 157 230 143T279 129Q320 129 349 153T388 222L446 495Q448
505 457 512T477 520H609Q620 520 625 513T629 495L529 25Q527 14 519 7T499 0H377Q366 0 360 7T356 25L364 63Q329 25 291 8T193 -10Q116 -10 72 31ZM300 595T300 607Q300 616 308 624L421 733Q434 745 441 748T462 752H600Q608 752 612 747T615 733Q613 725 607
720L449 610Q438 602 429 599T408 595H313Q300 595 300 607Z" />
<glyph unicode="&#xfb;" glyph-name="ucircumflex" horiz-adv-x="644" d="M116 -10T72 31T27 149Q27 178 35 216L94 495Q96 506 105 513T125 520H258Q268 520 273 513T277 495L220 222Q215 199 215 185Q215 157 230 143T279 129Q320 129 349 153T388 222L446 495Q448
505 457 512T477 520H609Q620 520 625 513T629 495L529 25Q527 14 519 7T499 0H377Q366 0 360 7T356 25L364 63Q329 25 291 8T193 -10Q116 -10 72 31ZM177 595T179 609Q181 617 187 623L317 734Q329 744 337 748T356 752H439Q449 752 456 748T471 734L552 623Q557
617 555 609Q553 603 549 599T537 595H492Q472 595 460 602L383 650L286 602Q271 595 252 595H191Q177 595 179 609Z" />
<glyph unicode="&#xfc;" glyph-name="udieresis" horiz-adv-x="644" d="M116 -10T72 31T27 149Q27 178 35 216L94 495Q96 506 105 513T125 520H258Q268 520 273 513T277 495L220 222Q215 199 215 185Q215 157 230 143T279 129Q320 129 349 153T388 222L446 495Q448
505 457 512T477 520H609Q620 520 625 513T629 495L529 25Q527 14 519 7T499 0H377Q366 0 360 7T356 25L364 63Q329 25 291 8T193 -10Q116 -10 72 31ZM216 606T211 612T208 628L228 724Q230 734 238 740T256 747H351Q361 747 366 741T369 724L349 628Q347 618 339
612T321 606H226Q216 606 211 612ZM426 606T421 612T418 628L439 724Q440 734 448 740T466 747H561Q571 747 576 741T580 724L559 628Q557 618 550 612T532 606H436Q426 606 421 612Z" />
<glyph unicode="&#xfd;" glyph-name="yacute" horiz-adv-x="609" d="M43 -190T38 -186T33 -173Q33 -166 38 -158L160 34L63 491Q61 503 68 511T90 520H202Q223 520 227 499L282 215L459 499Q472 520 494 520H620Q628 520 633 515T638 503Q638 495 634 490L210
-169Q205 -178 196 -184T175 -190H51Q43 -190 38 -186ZM283 595T283 607Q283 616 291 624L404 733Q417 745 424 748T445 752H583Q591 752 595 747T598 733Q596 725 590 720L432 610Q421 602 412 599T391 595H296Q283 595 283 607Z" />
<glyph unicode="&#xfe;" glyph-name="thorn" horiz-adv-x="634" d="M-31 -190T-36 -183T-40 -165L141 685Q143 696 151 703T171 710H300Q311 710 316 703T320 685L273 466Q301 496 335 513T422 530Q506 530 552 485T599 355Q599 321 594 295Q589 263 579 224Q551
114 486 52T324 -10Q275 -10 239 7T186 56L139 -165Q137 -176 128 -183T109 -190H-20Q-31 -190 -36 -183ZM331 129T356 155T396 229Q405 260 410 291Q412 313 412 321Q412 355 398 373T348 391Q304 391 276 364T237 294Q228 263 221 219Q219 211 219 195Q219 165
235 147T288 129Q331 129 356 155Z" />
<glyph unicode="&#xff;" glyph-name="ydieresis" horiz-adv-x="609" d="M43 -190T38 -186T33 -173Q33 -166 38 -158L160 34L63 491Q61 503 68 511T90 520H202Q223 520 227 499L282 215L459 499Q472 520 494 520H620Q628 520 633 515T638 503Q638 495 634 490L210
-169Q205 -178 196 -184T175 -190H51Q43 -190 38 -186ZM193 606T188 612T185 628L205 724Q207 734 215 740T233 747H328Q338 747 343 741T346 724L326 628Q324 618 316 612T298 606H203Q193 606 188 612ZM403 606T398 612T395 628L416 724Q417 734 425 740T443
747H538Q548 747 553 741T557 724L536 628Q534 618 527 612T509 606H413Q403 606 398 612Z" />
<glyph unicode="&#x2013;" glyph-name="endash" horiz-adv-x="565" d="M53 225T48 232T44 250L65 350Q68 361 77 368T96 375H501Q512 375 518 368T521 350L500 250Q498 240 489 233T469 225H64Q53 225 48 232Z" />
<glyph unicode="&#x2014;" glyph-name="emdash" horiz-adv-x="755" d="M53 225T48 232T44 250L65 350Q68 361 77 368T96 375H691Q702 375 708 368T711 350L690 250Q688 240 679 233T659 225H64Q53 225 48 232Z" />
<glyph unicode="&#x2018;" glyph-name="quoteleft" horiz-adv-x="282" d="M249 472T238 462T211 452H82Q66 452 66 468Q66 474 69 480L191 682Q208 710 234 710H314Q322 710 327 703T328 687L255 487Q249 472 238 462Z" />
<glyph unicode="&#x2019;" glyph-name="quoteright" horiz-adv-x="276" d="M156 690T167 700T194 710H323Q339 710 339 694Q339 688 336 682L214 480Q197 452 171 452H91Q83 452 78 459T77 475L150 675Q156 690 167 700Z" />
<glyph unicode="&#x201a;" glyph-name="quotesinglbase" horiz-adv-x="289" d="M40 163T51 173T78 183H206Q215 183 219 179T223 168Q223 163 219 155L97 -47Q80 -75 55 -75H-25Q-33 -75 -38 -68T-40 -52L34 148Q40 163 51 173Z" />
<glyph unicode="&#x201c;" glyph-name="quotedblleft" horiz-adv-x="516" d="M66 452T66 468Q66 474 69 480L191 682Q208 710 234 710H314Q322 710 327 703T328 687L255 487Q249 472 238 462T211 452H82Q66 452 66 468ZM300 452T300 468Q300 474 303 480L425 682Q442
710 468 710H548Q556 710 561 703T562 687L489 487Q483 472 472 462T445 452H316Q300 452 300 468Z" />
<glyph unicode="&#x201d;" glyph-name="quotedblright" horiz-adv-x="509" d="M156 690T167 700T194 710H323Q339 710 339 694Q339 688 336 682L214 480Q197 452 171 452H91Q83 452 78 459T77 475L150 675Q156 690 167 700ZM389 690T400 700T427 710H555Q564 710
568 706T572 695Q572 690 568 682L446 480Q429 452 404 452H324Q316 452 311 459T309 475L383 675Q389 690 400 700Z" />
<glyph unicode="&#x201e;" glyph-name="quotedblbase" horiz-adv-x="521" d="M40 163T51 173T78 183H206Q215 183 219 179T223 168Q223 163 219 155L97 -47Q80 -75 55 -75H-25Q-33 -75 -38 -68T-40 -52L34 148Q40 163 51 173ZM272 163T283 173T311 183H439Q447
183 451 179T456 167Q456 163 452 155L330 -47Q313 -75 287 -75H208Q200 -75 195 -68T193 -52L267 148Q272 163 283 173Z" />
<glyph unicode="&#x2022;" glyph-name="bullet" horiz-adv-x="383" d="M70 346T92 381T151 438T227 460Q272 460 300 432T329 360Q329 321 307 286T248 229T172 207Q127 207 99 235T70 307Q70 346 92 381Z" />
<glyph unicode="&#x2039;" glyph-name="guilsinglleft" horiz-adv-x="346" d="M226 65T218 73L54 274Q44 288 45 304L56 354Q61 371 77 384L328 585Q337 593 347 593Q356 593 360 587T363 571L342 472Q338 457 333 449T315 430L191 329L272 228Q284 215 284 201Q284
198 282 186L260 87Q258 78 251 72T234 65Q226 65 218 73Z" />
<glyph unicode="&#x203a;" glyph-name="guilsinglright" horiz-adv-x="346" d="M33 65T28 71T25 87L46 186Q50 201 55 209T73 228L197 329L116 430Q105 444 105 456Q105 460 107 472L128 571Q130 580 137 586T154 593Q162 593 170 585L334 384Q346 371 343 354L332
304Q329 288 311 274L60 73Q51 65 42 65Q33 65 28 71Z" />
</font>
</defs>
</svg>
