<?xml version="1.0" standalone="no"?>
<!DOCTYPE svg PUBLIC "-//W3C//DTD SVG 1.1//EN" "http://www.w3.org/Graphics/SVG/1.1/DTD/svg11.dtd">
<svg xmlns="http://www.w3.org/2000/svg">
<defs >
<font id="GentiumBasic" horiz-adv-x="1084" ><font-face
    font-family="Gentium Basic"
    units-per-em="2048"
    panose-1="2 0 5 3 6 0 0 2 0 4"
    ascent="1790"
    descent="-580"
    alphabetic="0" />
<glyph unicode=" " glyph-name="space" horiz-adv-x="510" />
<glyph unicode="!" glyph-name="exclam" horiz-adv-x="633" d="M476 131Q476 91 462 59T422 5T364 -28T293 -40Q263 -40 237 -33T191 -9T160 33T148 95Q148 134 163 166T203 220T262 254T332 266Q359 266 385 258T431 234T464 192T476 131ZM377 412Q358 398 328
390T273 373L244 394L167 1368Q189 1380 221 1396T288 1429T354 1459T406 1480L456 1448L377 412Z" />
<glyph unicode="&quot;" glyph-name="quotedbl" horiz-adv-x="960" d="M347 834Q339 830 323 826T288 819T251 815T221 813L138 1396Q145 1400 163 1407T205 1424T254 1442T303 1459T344 1472T369 1480L420 1452L347 834ZM750 834Q742 830 726 826T691 819T654
815T624 813L541 1396Q552 1402 585 1415T657 1442T728 1467T772 1480L823 1452L750 834Z" />
<glyph unicode="#" glyph-name="numbersign" horiz-adv-x="1036" d="M863 976H1017L1042 951Q1040 940 1034 923T1021 889T1007 855T996 831H822L757 605H911L933 578Q931 568 926 552T913 518T900 485T890 460H716L633 170Q624 163 609 157T576 146T542 136T511
127L485 147L574 460H400L317 170Q308 163 293 157T261 146L227 136Q210 131 197 127L171 147L260 460H94L72 485Q74 495 79 511T92 544T105 578T117 605H302L366 831H203L178 855Q180 866 186 882T199 916T213 950T224 976H408L486 1251Q497 1259 512 1264T545
1274T577 1283T604 1292L633 1270L548 976H722L800 1251Q811 1259 826 1264T859 1274T892 1283T920 1292L947 1270L863 976ZM442 605H616L680 831H507L442 605Z" />
<glyph unicode="$" glyph-name="dollar" horiz-adv-x="1036" d="M285 951Q285 919 298 894T333 849T387 813T455 781V1092Q414 1088 383 1076T330 1044T297 1001T285 951ZM742 317Q742 356 730 387T695 442T642 486T575 522V138Q608 143 638 156T691 192T728 245T742
317ZM575 -128Q557 -144 536 -156T489 -174L455 -145V-9Q370 -6 272 25T87 111Q82 114 80 132T77 177T77 236T80 301T86 361T95 408L168 404Q192 353 220 309T284 231T362 174T455 141V569Q388 593 322 618T202 681T116 771T83 904Q83 947 101 996T162 1090T277
1167T455 1210V1341Q469 1349 478 1355T497 1367T516 1376T541 1384L575 1355V1212Q627 1209 679 1200T776 1176T856 1145T909 1109Q915 1102 908 1072T886 1006T855 938T825 893L756 901Q722 970 679 1015T575 1081V737Q642 713 709 685T831 614T918 513T952 370Q952
310 931 250T865 137T748 48T575 -3V-128Z" />
<glyph unicode="%" glyph-name="percent" horiz-adv-x="1491" d="M1233 290Q1233 436 1198 506T1110 576Q1060 576 1032 520T1004 333Q1004 185 1035 115T1127 44Q1179 44 1206 101T1233 290ZM1438 310Q1438 240 1414 178T1346 70T1242 -4T1110 -31Q1038 -31 981
-4T883 69T821 178T799 310Q799 380 822 442T888 550T991 624T1127 651Q1201 651 1259 624T1356 551T1417 443T1438 310ZM374 7Q363 1 344 -4T302 -14T259 -23T225 -31L201 0L1114 1199Q1124 1204 1143 1209T1185 1220T1227 1229T1259 1236L1285 1206L374 7ZM488
877Q488 950 479 1004T453 1093T414 1145T365 1163Q315 1163 287 1107T259 920Q259 772 290 702T381 632Q433 632 460 689T488 877ZM693 897Q693 828 669 766T601 658T497 584T365 557Q293 557 236 584T138 657T76 766T54 897Q54 967 77 1029T142 1137T245 1211T381
1238Q455 1238 513 1211T611 1138T672 1030T693 897Z" />
<glyph unicode="&amp;" glyph-name="ampersand" horiz-adv-x="1419" d="M497 1130Q497 1078 511 1023T551 908Q598 936 629 969T679 1036T706 1104T714 1171Q714 1241 682 1281T603 1321Q576 1321 556 1306T523 1265T504 1204T497 1130ZM573 114Q630 114 682 131T782
177Q735 222 687 274T591 385T500 505T418 631Q365 567 345 505T325 373Q325 303 347 254T404 173T484 128T573 114ZM1414 748Q1402 733 1387 715T1357 679T1327 646T1300 622Q1263 639 1220 653T1143 670Q1164 641 1170 611T1176 543Q1176 477 1146 402T1060 255Q1081
236 1101 219T1140 186Q1191 143 1246 132T1353 133L1369 60Q1326 41 1279 25T1189 -4T1116 -23T1074 -30Q1049 -30 998 1T881 87Q802 33 709 2T513 -30Q408 -30 325 -6T184 67T96 186T65 352Q65 458 132 564T343 776Q310 852 291 926T272 1073Q272 1154 303 1223T387
1342T512 1421T664 1450Q740 1450 794 1430T883 1375T934 1297T951 1204Q951 1152 925 1098T855 993T756 896T641 812L610 792Q644 735 684 678T769 565T860 458T954 358Q974 394 984 430T995 502Q995 544 982 577T948 634T899 670T842 683L813 718Q818 724 829
735T852 757T878 778T902 792H1383L1414 748Z" />
<glyph unicode="&apos;" glyph-name="quotesingle" horiz-adv-x="557" d="M347 834Q339 830 323 826T288 819T251 815T221 813L138 1396Q145 1400 163 1407T205 1424T254 1442T303 1459T344 1472T369 1480L420 1452L347 834Z" />
<glyph unicode="(" glyph-name="parenleft" horiz-adv-x="679" d="M601 -315Q476 -249 384 -154T229 61T137 322T106 623Q106 787 140 935T239 1208T395 1432T601 1600L655 1525Q595 1465 543 1381T451 1189T389 946T366 651Q366 505 384 374T439 129T530 -78T655
-240L601 -315Z" />
<glyph unicode=")" glyph-name="parenright" horiz-adv-x="679" d="M575 662Q575 498 541 350T442 77T286 -148T80 -316L26 -241Q86 -181 138 -97T230 96T292 339T315 634Q315 779 297 911T242 1156T151 1363T26 1524L80 1599Q204 1533 297 1438T452 1224T544
963T575 662Z" />
<glyph unicode="*" glyph-name="asterisk" horiz-adv-x="907" d="M501 1220L718 1404Q728 1397 747 1383T787 1353T826 1321T852 1298L843 1242L552 1136L820 1040Q819 1028 816 1004T810 954T802 905T794 871L741 851L505 1048L555 770Q544 764 522 755T476 736T429
718T396 708L352 743L405 1048L189 864Q179 871 160 885T120 916T81 947T56 970L64 1026L356 1132L87 1228Q88 1240 91 1264T97 1314T105 1363T113 1397L165 1417L402 1219L352 1498Q363 1504 385 1513T431 1532T478 1550T511 1561L555 1525L501 1220Z" />
<glyph unicode="+" glyph-name="plus" horiz-adv-x="863" d="M506 225Q496 220 482 214T451 203T420 193T393 186L361 216V491H85L53 522Q56 533 61 548T74 579T87 609T99 634H361V902L385 910Q400 915 416 920T447 931T474 939L506 908V634H777L810 603Q807 592
801 577T788 545T775 514T764 491H506V225Z" />
<glyph unicode="," glyph-name="comma" horiz-adv-x="552" d="M480 70Q480 16 457 -46T395 -169T302 -286T189 -380L121 -330Q177 -265 209 -195T241 -38Q241 -16 232 6T205 44T162 70T104 77L88 154Q94 162 113 173T159 195T219 218T282 239T340 254T384 259Q432
236 456 193T480 70Z" />
<glyph unicode="-" glyph-name="hyphen" horiz-adv-x="728" d="M675 554Q672 543 666 527T653 495T640 463T629 440H85L53 472Q56 483 61 498T74 530T87 560T99 585H642L675 554Z" />
<glyph unicode="." glyph-name="period" horiz-adv-x="552" d="M459 131Q459 91 445 59T406 5T348 -28T276 -40Q247 -40 221 -33T174 -9T143 33T131 95Q131 134 146 166T186 220T245 254T315 266Q343 266 369 258T415 234T447 192T459 131Z" />
<glyph unicode="/" glyph-name="slash" horiz-adv-x="975" d="M242 -277Q232 -284 210 -292T163 -309T115 -324T79 -335L35 -303L736 1544Q749 1553 770 1561T815 1576T859 1590T895 1600L940 1571L242 -277Z" />
<glyph unicode="0" glyph-name="zero" horiz-adv-x="1036" d="M714 565Q714 702 699 803T655 972T589 1072T506 1105Q460 1105 426 1080T369 1000T335 858T323 645Q323 370 376 235T530 100Q576 100 611 125T668 205T702 349T714 565ZM975 602Q975 473 941 358T844
157T696 21T506 -30Q402 -30 320 20T180 157T92 358T61 602Q61 731 93 846T187 1047T335 1184T530 1235Q636 1235 719 1185T859 1049T945 848T975 602Z" />
<glyph unicode="1" glyph-name="one" horiz-adv-x="1036" d="M155 0V83Q233 92 285 103T368 127T412 150T425 173V910Q425 950 422 972T407 1008Q401 1014 386 1018T340 1021T265 1014T153 994L124 1075Q152 1081 193 1093T282 1120T379 1152T474 1187T558 1219T621
1245L665 1203V173Q665 163 676 152T715 128T791 104T915 83V0H155Z" />
<glyph unicode="2" glyph-name="two" horiz-adv-x="1036" d="M911 0H112L83 74Q200 211 288 317T441 506T547 651T615 761T650 849T661 924Q661 966 652 1002T625 1066T577 1108T505 1123Q464 1123 435 1105T387 1058T363 993T363 919Q346 910 319 900T260 880T199
864T145 855L110 923Q110 975 147 1030T247 1130T395 1205T573 1235Q650 1235 713 1219T820 1171T889 1092T913 982Q913 937 901 893T861 798T789 688T682 553T536 385T345 174H744Q761 174 774 182T798 205T816 237T829 274Q841 318 846 374L926 355L911 0Z" />
<glyph unicode="3" glyph-name="three" horiz-adv-x="1036" d="M915 381Q915 297 883 222T790 91T646 3T459 -30Q420 -30 372 -21T273 9T172 60T76 134L117 231Q162 197 203 174T282 136T356 115T431 108Q478 108 519 123T591 168T640 245T658 356Q658 425 637
472T582 547T511 588T440 601H417Q408 601 400 600T382 598T357 594L339 684Q425 707 476 738T556 804T592 874T601 940Q601 974 594 1007T571 1066T528 1107T464 1123Q437 1123 414 1110T376 1075T356 1023T360 958Q339 946 313 935T257 915T197 898T139 889L105
950Q105 992 135 1042T221 1134T352 1206T521 1235Q612 1235 676 1211T781 1148T839 1059T858 958Q858 920 843 881T799 807T732 743T645 698Q706 692 756 665T841 594T895 497T915 381Z" />
<glyph unicode="4" glyph-name="four" horiz-adv-x="1036" d="M570 980L251 475H570V980ZM957 445Q936 413 907 383T855 335H800V134Q800 126 806 120T828 106T871 90T939 73V0H360V73Q425 84 466 93T530 111T561 128T570 145V335H96L55 376L536 1167Q560 1175
589 1185T648 1205T706 1226T756 1245L800 1203V475H931L957 445Z" />
<glyph unicode="5" glyph-name="five" horiz-adv-x="1036" d="M919 410Q919 323 893 244T811 103T671 6T470 -30Q424 -30 373 -20T271 10T171 60T78 130L128 220Q181 183 227 160T312 124T385 105T448 100Q498 100 540 120T612 176T659 261T676 367Q676 435 659
487T609 575T533 629T433 648Q353 648 295 624T184 560L137 593Q143 629 151 679T167 785T184 900T200 1016T212 1121T219 1205H745Q774 1205 796 1207T834 1214Q852 1218 866 1223L903 1187Q892 1171 874 1147T836 1098T798 1053T767 1023H335Q333 994 329 957T319
882T307 810T297 754Q342 774 397 784T516 795Q616 795 692 763T818 676T893 553T919 410Z" />
<glyph unicode="6" glyph-name="six" horiz-adv-x="1036" d="M545 645Q502 645 452 617T353 536Q353 418 370 335T417 199T487 122T575 98Q618 98 647 120T693 177T717 257T724 348Q724 442 708 500T667 590T609 633T545 645ZM971 412Q971 365 959 314T924 214T865
121T783 44T678 -10T551 -30Q456 -30 373 6T228 109T131 267T95 473Q95 614 143 743T285 976T521 1151T848 1249L875 1160Q754 1134 666 1087T516 976T418 838T366 681Q429 733 493 759T609 785Q694 785 761 758T875 681T946 563T971 412Z" />
<glyph unicode="7" glyph-name="seven" horiz-adv-x="1036" d="M960 1167Q914 1059 869 950T782 734T702 528T632 340T573 179T530 52Q512 40 485 28T426 5T364 -15T308 -30L259 11Q346 164 414 293T539 542T649 778T756 1023H309Q294 1023 278 1020T244 1002T206
954T165 863L97 888Q100 911 106 955T119 1048T133 1139T147 1205H927L960 1167Z" />
<glyph unicode="8" glyph-name="eight" horiz-adv-x="1036" d="M358 950Q358 912 375 884T421 832T490 790T573 752Q660 843 660 938Q660 990 646 1025T610 1081T558 1110T496 1119Q463 1119 437 1105T394 1068T367 1015T358 950ZM700 309Q700 367 681 409T630
484T555 539T466 583Q434 552 410 522T369 459T345 392T337 315Q337 263 353 222T396 152T458 108T530 93Q571 93 603 110T656 157T689 226T700 309ZM957 352Q957 274 922 205T824 84T677 1T496 -30Q394 -30 316 -4T186 66T106 166T79 285Q79 337 99 386T155 479T242
562T353 632Q308 653 268 677T197 734T148 811T130 915Q130 984 161 1043T247 1144T375 1211T532 1235Q627 1235 697 1215T814 1160T884 1076T907 969Q907 930 891 894T845 825T777 762T691 701Q743 677 791 647T876 576T935 480T957 352Z" />
<glyph unicode="9" glyph-name="nine" horiz-adv-x="1036" d="M511 570Q568 570 616 599T703 674Q701 810 683 894T638 1026T578 1091T510 1108Q426 1108 380 1042T333 856Q333 772 351 717T397 629T455 583T511 570ZM960 731Q960 579 913 448T772 215T536 46T205
-43L180 46Q319 80 414 129T568 239T658 374T697 532Q645 481 581 452T446 423Q358 423 291 453T178 534T109 652T85 795Q85 845 100 897T143 999T211 1091T301 1166T410 1216T536 1235Q628 1235 706 1206T840 1116T928 959T960 731Z" />
<glyph unicode=":" glyph-name="colon" horiz-adv-x="552" d="M459 825Q459 785 445 753T406 699T348 666T276 654Q247 654 221 661T174 685T143 727T131 789Q131 828 146 860T186 914T245 948T315 960Q343 960 369 952T415 928T447 886T459 825ZM459 131Q459
91 445 59T406 5T348 -28T276 -40Q247 -40 221 -33T174 -9T143 33T131 95Q131 134 146 166T186 220T245 254T315 266Q343 266 369 258T415 234T447 192T459 131Z" />
<glyph unicode=";" glyph-name="semicolon" horiz-adv-x="552" d="M480 70Q480 16 457 -46T395 -169T302 -286T189 -380L121 -330Q177 -265 209 -195T241 -38Q241 -16 232 6T205 44T162 70T104 77L88 154Q94 162 113 173T159 195T219 218T282 239T340 254T384
259Q432 236 456 193T480 70ZM459 825Q459 785 445 753T406 699T348 666T276 654Q247 654 221 661T174 685T143 727T131 789Q131 828 146 860T186 914T245 948T315 960Q343 960 369 952T415 928T447 886T459 825Z" />
<glyph unicode="&lt;" glyph-name="less" horiz-adv-x="930" d="M877 333Q855 313 829 287T771 241L85 487L53 526L56 538L61 556L71 590Q73 598 76 606T81 621Q82 624 82 627T85 633L91 648L845 920L877 888Q874 877 870 860T860 823T849 786T841 759L312 569L853
376L877 333Z" />
<glyph unicode="=" glyph-name="equal" horiz-adv-x="930" d="M877 452Q874 441 868 426T855 394T842 364T832 340H85L53 372Q56 383 61 398T74 429T87 459T99 484H845L877 452ZM877 752Q874 741 868 726T855 694T842 663T832 640H85L53 672Q56 682 61 697T74
729T87 759T99 784H845L877 752Z" />
<glyph unicode="&gt;" glyph-name="greater" horiz-adv-x="930" d="M877 635Q874 622 870 606T860 574T849 541T839 513L85 241L53 274Q56 284 60 302T70 339T81 375T90 402L616 592L77 785L53 829Q75 849 103 875T159 920L845 675L877 635Z" />
<glyph unicode="?" glyph-name="question" horiz-adv-x="932" d="M866 1165Q866 1090 841 1029T777 914T693 812T607 716T539 618T507 508L501 412Q482 398 456 389T402 371L370 399L362 508Q359 565 376 620T420 727T479 829T539 928T586 1024T605 1120Q605 1244
565 1303T454 1362Q429 1362 406 1349T366 1313T338 1258T327 1186Q327 1172 330 1154T339 1121Q323 1113 292 1103T227 1085T158 1069T102 1060L67 1098Q65 1106 65 1122V1146Q65 1216 102 1277T203 1383T350 1454T525 1480Q607 1480 671 1457T778 1393T843 1293T866
1165ZM608 131Q608 91 594 59T555 5T497 -28T425 -40Q396 -40 370 -33T323 -9T292 33T280 95Q280 134 295 166T335 220T394 254T464 266Q492 266 518 258T564 234T596 192T608 131Z" />
<glyph unicode="@" glyph-name="at" horiz-adv-x="1796" d="M1044 731Q1022 776 995 802T918 828Q830 828 784 742T738 468Q738 383 752 324T788 229T838 176T893 160Q912 160 928 165T961 183T997 220T1044 280V731ZM1711 572Q1711 487 1691 410T1636 265T1554
144T1451 51T1337 -9T1217 -30Q1187 -30 1161 -22T1114 4T1076 54T1050 132Q1009 84 979 53T920 3T862 -23T792 -30Q741 -30 689 -2T594 83T525 229T498 437Q498 500 511 563T549 684T612 793T698 880T806 939T934 960Q957 960 977 957T1017 944T1058 916T1103
869Q1158 888 1198 908T1283 960L1314 930Q1305 895 1299 857Q1293 825 1289 784T1284 701V285Q1284 224 1298 193T1355 162Q1380 162 1408 185T1461 252T1500 362T1516 512Q1516 683 1474 810T1356 1022T1174 1149T938 1191Q785 1191 668 1138T471 993T351 781T310
524Q310 335 362 192T505 -47T718 -191T978 -240Q1074 -240 1158 -223T1311 -179T1431 -123T1513 -67L1560 -154Q1524 -195 1467 -240T1331 -324T1152 -387T929 -413Q743 -413 588 -353T321 -180T147 96T85 465Q85 586 116 699T205 912T344 1095T524 1237T737 1330T977
1363Q1140 1363 1275 1315T1507 1168T1657 921T1711 572Z" />
<glyph unicode="A" glyph-name="A" horiz-adv-x="1287" d="M747 550L582 1015L432 550H747ZM392 430L296 141Q286 110 320 96T437 73V0H0V73Q68 85 104 98T151 141L500 1207Q524 1227 551 1244T608 1274T667 1298T722 1317L1142 141Q1147 127 1155 116T1177 97T1212
83T1266 73V0H769V73Q847 78 874 93T891 141L789 430H392Z" />
<glyph unicode="B" glyph-name="B" horiz-adv-x="1231" d="M1129 356Q1129 271 1094 203T991 86T829 12T612 -14Q590 -14 558 -14T487 -12T406 -10T324 -7Q229 -4 123 0H43V73Q111 87 145 103T180 134V1165Q142 1161 107 1156T43 1146L30 1230Q75 1241 136 1251T264
1270T400 1284T529 1290Q644 1290 734 1272T888 1218T984 1133T1018 1020Q1018 912 960 835T790 723Q865 711 927 678T1034 597T1104 487T1129 356ZM565 639Q519 639 489 635T430 626V127Q430 120 435 114Q464 102 499 98T575 93Q720 93 793 158T867 337Q867 392
853 446T803 543T710 612T565 639ZM466 1184H449Q440 1184 430 1183V740H449Q549 740 610 760T706 812T753 886T765 971Q765 1021 751 1060T701 1127T609 1169T466 1184Z" />
<glyph unicode="C" glyph-name="C" horiz-adv-x="1143" d="M1071 211Q1007 146 945 100T822 25T702 -17T586 -30Q485 -30 390 12T220 133T100 326T55 586Q55 746 104 876T239 1098T441 1241T691 1290Q745 1290 798 1282T899 1261T986 1229T1052 1190Q1056 1187
1052 1172T1038 1136T1017 1091T991 1044T967 1003T947 977L882 991Q831 1079 766 1118T622 1158Q588 1158 552 1147T480 1111T414 1046T359 946T322 807T308 623Q308 495 341 403T428 252T548 164T681 135Q708 135 744 141T824 163T917 207T1019 279Q1024 275
1032 265T1047 244T1061 224T1071 211Z" />
<glyph unicode="D" glyph-name="D" horiz-adv-x="1304" d="M1221 676Q1221 551 1196 453T1126 279T1023 151T897 65T759 16T619 0H43V73Q111 87 145 103T180 134V1157L43 1138L30 1230Q79 1242 146 1253T288 1272T438 1285T578 1290Q731 1290 851 1249T1053 1128T1178
935T1221 676ZM506 1184Q488 1184 469 1184T430 1182V167Q430 160 432 153Q435 142 443 134T468 119T512 110T582 107Q620 107 662 120T746 161T825 231T891 333T936 467T953 637Q953 770 924 872T839 1043T699 1148T506 1184Z" />
<glyph unicode="E" glyph-name="E" horiz-adv-x="1076" d="M1029 304Q1025 261 1020 214T1009 124T998 48T988 0H43V73Q111 87 145 103T180 134V1125Q180 1137 148 1155T43 1187V1260H924L964 1228Q962 1202 958 1163T948 1083T936 1006T923 950H848Q843 1043
823 1091T766 1140H430V735H828L861 700Q853 686 842 668T818 631T793 598T769 574Q754 589 737 599T697 616T644 626T571 629H430V184Q430 169 437 158T466 138T528 125T634 120H733Q779 120 811 131T869 166T914 231T956 330L1029 304Z" />
<glyph unicode="F" glyph-name="F" horiz-adv-x="1039" d="M43 0V73Q111 87 145 103T180 134V1125Q180 1137 148 1155T43 1187V1260H934L972 1228Q971 1202 967 1163T958 1083T946 1006T933 950H856Q853 1043 833 1091T774 1140H430V735H797L833 700Q824 683 812
664T787 628T762 597T739 574Q724 589 707 599T668 616T615 626T542 629H430V134Q430 128 438 121T465 107T516 91T598 73V0H43Z" />
<glyph unicode="G" glyph-name="G" horiz-adv-x="1232" d="M1095 1188Q1100 1184 1096 1170T1083 1135T1060 1091T1033 1045T1006 1006T984 981L921 995Q888 1043 855 1076T785 1128T710 1156T628 1165Q603 1165 570 1155T501 1121T431 1057T369 959T325 821T308
637Q308 503 339 407T421 249T539 158T676 128Q731 128 774 138T853 165V470Q853 481 849 491T829 512T781 532T692 552V625H1190V552Q1133 538 1113 516T1093 470V169Q1019 108 955 70T834 9T728 -21T633 -30Q560 -30 489 -14T354 36T235 121T140 240T78 393T55
582Q55 748 108 879T255 1102T476 1242T752 1290Q785 1290 830 1283T924 1263T1017 1231T1095 1188Z" />
<glyph unicode="H" glyph-name="H" horiz-adv-x="1399" d="M43 0V73Q111 87 145 103T180 134V1125Q180 1137 148 1155T43 1187V1260H568V1187Q500 1173 465 1156T430 1125V720H950V1125Q950 1137 918 1155T813 1187V1260H1338V1187Q1270 1173 1235 1156T1200 1125V134Q1200
122 1233 105T1338 73V0H813V73Q881 87 915 103T950 134V600H430V134Q430 122 462 105T568 73V0H43Z" />
<glyph unicode="I" glyph-name="I" horiz-adv-x="670" d="M63 0V73Q131 87 165 103T200 134V1125Q200 1137 168 1155T63 1187V1260H588V1187Q520 1173 485 1156T450 1125V134Q450 122 483 105T588 73V0H63Z" />
<glyph unicode="J" glyph-name="J" horiz-adv-x="685" d="M623 1187Q555 1173 520 1156T485 1125V183Q485 73 463 -6T407 -142T330 -239T249 -311Q222 -333 189 -352T119 -386T46 -409T-25 -418Q-70 -418 -113 -408T-189 -382T-244 -351T-265 -323Q-265 -312 -244
-288T-195 -237T-139 -190T-97 -163Q-41 -211 6 -230T92 -250Q118 -250 143 -238T189 -188T222 -78T235 111V1125Q235 1131 229 1138T202 1153T145 1169T48 1187V1260H623V1187Z" />
<glyph unicode="K" glyph-name="K" horiz-adv-x="1267" d="M43 0V73Q111 87 145 103T180 134V1125Q180 1137 148 1155T43 1187V1260H568V1187Q500 1173 465 1156T430 1125V659L802 1098Q825 1125 834 1141T839 1166T811 1179T750 1187V1260H1200V1187Q1168 1183
1146 1179T1106 1169T1075 1152T1045 1125L616 676L1098 165Q1114 147 1131 138T1167 125T1209 121T1257 125L1264 52Q1235 43 1199 32T1127 10T1058 -7T1001 -14Q972 -14 950 -5T907 29L430 625V134Q430 122 462 105T568 73V0H43Z" />
<glyph unicode="L" glyph-name="L" horiz-adv-x="1043" d="M1019 304Q1015 261 1010 214T999 124T988 48T978 0H43V73Q111 87 145 103T180 134V1125Q180 1137 148 1155T43 1187V1260H568V1187Q500 1173 465 1156T430 1125V194Q430 176 438 163T468 140T525 125T616
120H729Q775 120 806 131T862 166T905 231T946 330L1019 304Z" />
<glyph unicode="M" glyph-name="M" horiz-adv-x="1734" d="M1633 1187Q1608 1187 1575 1180T1505 1159L1515 134Q1515 122 1551 105T1660 73V0H1138V73Q1206 87 1245 103T1285 134L1277 947L853 0H759L343 945L335 134Q335 122 368 105T473 73V0H53V73Q122 87
156 103T190 134L200 1152Q165 1172 129 1179T63 1187V1260H409Q419 1260 427 1257T442 1245T459 1220T480 1176L848 341L1223 1176Q1236 1206 1245 1222T1262 1247T1277 1258T1294 1260H1633V1187Z" />
<glyph unicode="N" glyph-name="N" horiz-adv-x="1359" d="M43 0V73Q116 82 148 101T180 134V1114Q115 1175 43 1187V1260H322Q337 1260 346 1258T366 1247T387 1224T418 1182L1030 334V1125Q1030 1131 1024 1139T1002 1156T960 1173T893 1187V1260H1318V1187Q1246
1177 1213 1158T1180 1125V-30Q1084 -22 1026 7T941 74L330 920V134Q330 128 337 120T360 103T403 86T468 73V0H43Z" />
<glyph unicode="O" glyph-name="O" horiz-adv-x="1274" d="M946 629Q946 732 922 828T852 998T744 1116T604 1160Q532 1160 477 1125T384 1023T327 860T308 641Q308 529 334 431T406 261T512 147T642 105Q708 105 763 137T859 234T923 398T946 629ZM1198 647Q1198
556 1176 471T1115 311T1020 173T898 65T755 -5T598 -30Q472 -30 371 23T200 165T93 370T55 612Q55 748 99 871T223 1087T413 1235T656 1290Q788 1290 889 1236T1059 1091T1163 885T1198 647Z" />
<glyph unicode="P" glyph-name="P" horiz-adv-x="1161" d="M43 0V73Q111 87 145 103T180 134V1158Q142 1153 108 1148T43 1138L30 1230Q84 1243 150 1254T287 1273T431 1285T570 1290Q686 1290 781 1267T945 1199T1050 1088T1087 936Q1087 867 1068 809T1017 705T942
624T852 566T756 532T663 520Q617 520 573 527T495 550L464 655Q505 636 536 631T603 625Q646 625 688 640T762 689T815 773T835 895Q835 966 812 1020T746 1110T644 1165T513 1184Q493 1184 473 1184T430 1182V134Q430 128 436 121T461 106T513 90T598 73V0H43Z"
/>
<glyph unicode="Q" glyph-name="Q" horiz-adv-x="1274" d="M946 629Q946 732 922 828T852 998T744 1116T604 1160Q532 1160 477 1125T384 1023T327 860T308 641Q308 529 334 431T406 261T512 147T642 105Q708 105 763 137T859 234T923 398T946 629ZM1417 -125Q1393
-169 1366 -206T1311 -270T1261 -312T1222 -328Q1175 -328 1129 -313T1035 -272T940 -214T846 -148T751 -82T656 -26Q642 -28 627 -29T598 -30Q474 -30 374 22T203 163T94 368T55 612Q55 748 99 871T223 1087T413 1235T656 1290Q788 1290 889 1236T1059 1091T1163
885T1198 647Q1198 546 1171 451T1095 275T979 130T832 26Q888 6 940 -21T1041 -72T1136 -113T1228 -130Q1240 -130 1252 -128T1280 -118T1317 -96T1368 -60L1417 -125Z" />
<glyph unicode="R" glyph-name="R" horiz-adv-x="1239" d="M43 0V73Q111 87 145 103T180 134V1157Q144 1152 110 1148T43 1138L30 1230Q136 1253 260 1271T529 1290Q665 1290 760 1267T916 1203T1004 1107T1032 987Q1032 918 1012 861T955 757T867 676T753 620L1068
184Q1084 163 1098 150T1130 131T1171 123T1229 125L1244 52Q1211 41 1170 30T1089 8T1014 -8T960 -14Q931 -14 904 2T862 41L575 586Q565 585 555 585H536Q510 585 484 587T430 596V134Q430 122 462 105T568 73V0H43ZM485 1184Q472 1184 458 1184T430 1182V706Q457
701 477 700T519 699Q654 699 717 767T780 956Q780 1002 766 1043T719 1116T628 1166T485 1184Z" />
<glyph unicode="S" glyph-name="S" horiz-adv-x="1050" d="M968 377Q968 332 955 285T914 193T846 107T750 36T625 -12T470 -30Q434 -30 388 -23T293 -4T198 27T116 68Q111 70 108 87T104 131T102 191T105 259T112 326T124 384L195 379Q218 320 251 271T325 187T413
133T511 113Q556 113 598 126T672 163T723 224T743 309Q743 370 716 414T645 493T544 556T428 611T312 669T211 740T139 834T112 960Q112 1007 138 1064T220 1172T363 1256T571 1290Q625 1290 677 1283T774 1264T853 1235T906 1198Q911 1194 909 1180T900 1147T883
1106T861 1064T839 1028T820 1005L754 1011Q732 1058 704 1089T644 1140T580 1167T520 1175Q470 1175 435 1162T376 1127T343 1078T332 1022Q332 975 359 939T431 871T533 811T650 753T767 688T868 609T940 508T968 377Z" />
<glyph unicode="T" glyph-name="T" horiz-adv-x="1188" d="M300 0V73Q346 82 376 92T424 111T449 129T456 145V1140H202Q187 1140 174 1130T146 1094T115 1029T76 931L3 958Q5 987 9 1028T20 1112T32 1194T43 1260H1113L1151 1228Q1150 1202 1147 1166T1138 1090T1126
1011T1113 940H1038Q1028 986 1022 1023T1007 1086T987 1126T953 1140H706V145Q706 139 713 131T738 112T786 92T863 73V0H300Z" />
<glyph unicode="U" glyph-name="U" horiz-adv-x="1369" d="M1313 1187Q1245 1173 1210 1156T1175 1125V524Q1175 393 1139 290T1036 116T880 8T681 -30Q578 -30 487 -2T328 85T220 233T180 444V1125Q180 1137 148 1155T43 1187V1260H568V1187Q500 1173 465 1156T430
1125V509Q430 413 447 340T501 216T597 141T743 115Q814 115 863 147T942 232T986 354T1000 498V1125Q1000 1137 968 1155T863 1187V1260H1313V1187Z" />
<glyph unicode="V" glyph-name="V" horiz-adv-x="1361" d="M1328 1187Q1260 1174 1222 1162T1173 1121L797 82Q789 60 767 42T716 10T657 -14T602 -30L147 1121Q136 1147 106 1163T13 1187V1260H523V1187Q443 1181 417 1167T402 1123L727 286L1024 1121Q1029 1136
1026 1146T1007 1163T965 1176T897 1187V1260H1328V1187Z" />
<glyph unicode="W" glyph-name="W" horiz-adv-x="1741" d="M1732 1187Q1688 1178 1659 1170T1613 1155T1589 1140T1580 1125L1351 59Q1346 38 1329 23T1289 -3T1243 -20T1205 -30L864 877L577 59Q570 38 552 23T511 -2T463 -19T418 -30L158 1117Q153 1142 122
1158T20 1187V1260H509V1187Q460 1182 433 1175T394 1158T381 1139T381 1117L552 385L844 1260H944L1279 385L1440 1125Q1442 1137 1431 1146T1399 1162T1349 1175T1286 1187V1260H1732V1187Z" />
<glyph unicode="X" glyph-name="X" horiz-adv-x="1290" d="M733 0V73Q777 77 804 83T843 99T854 123T838 157L602 500L375 157Q360 135 357 121T363 97T401 82T474 73V0H24V73Q89 78 134 97T206 157L515 628L190 1103Q175 1125 161 1139T130 1162T90 1176T34 1187V1260H575V1187Q490
1179 464 1163T468 1103L675 800L866 1103Q880 1126 882 1140T874 1164T837 1179T765 1187V1260H1218V1187Q1182 1183 1154 1177T1103 1162T1065 1138T1035 1103L761 675L1116 157Q1131 136 1145 122T1177 98T1216 83T1267 73V0H733Z" />
<glyph unicode="Y" glyph-name="Y" horiz-adv-x="1255" d="M345 0V73Q390 82 420 92T469 111T494 129T502 145V529Q466 609 421 694T330 858T240 1006T161 1121Q152 1132 142 1141T115 1156T72 1165T4 1169L0 1242Q29 1246 66 1251T141 1260T210 1267T264 1270Q292
1270 320 1258T365 1224Q402 1174 442 1110T524 974T605 827T680 679L914 1121Q929 1147 905 1162T803 1187V1260H1221V1187Q1153 1174 1120 1160T1073 1121L752 523V145Q752 139 759 131T784 112T832 92T910 73V0H345Z" />
<glyph unicode="Z" glyph-name="Z" horiz-adv-x="1116" d="M1044 353Q1042 321 1041 273T1038 174T1035 76T1032 0H88L52 53L725 1130H334Q318 1130 298 1113T259 1065T222 991T193 896L106 915L143 1276Q170 1270 192 1267T236 1262T281 1260H1001L1034 1210L366
130H822Q843 130 860 145T892 191T924 267T959 375L1044 353Z" />
<glyph unicode="[" glyph-name="bracketleft" horiz-adv-x="691" d="M666 -227Q664 -237 659 -251T649 -282T639 -312T629 -335H125V1600H623L664 1567Q662 1555 657 1538T647 1505T637 1475T629 1455H355V-190H623L666 -227Z" />
<glyph unicode="\" glyph-name="backslash" horiz-adv-x="960" d="M878 -335Q866 -331 844 -324T799 -309T756 -293T726 -277L40 1571L85 1600Q100 1596 120 1590T161 1577T201 1561T235 1544L920 -303L878 -335Z" />
<glyph unicode="]" glyph-name="bracketright" horiz-adv-x="691" d="M68 -335L27 -301Q29 -289 33 -272T43 -239T53 -210T61 -190H335V1455H68L25 1491Q27 1501 32 1516T42 1547T52 1577T61 1600H565V-335H68Z" />
<glyph unicode="^" glyph-name="asciicircum" horiz-adv-x="1008" d="M907 635Q882 612 859 597T801 565L764 592L481 1315L231 635Q220 625 206 615T177 595T148 578T123 565L100 592L422 1462Q434 1474 451 1486T487 1511T523 1533T555 1550L907 635Z" />
<glyph unicode="_" glyph-name="underscore" horiz-adv-x="990" d="M937 -162Q934 -173 928 -189T915 -221T902 -252T891 -275H85L53 -243Q56 -233 61 -218T74 -186T87 -155T99 -130H905L937 -162Z" />
<glyph unicode="`" glyph-name="grave" horiz-adv-x="653" d="M452 1086Q446 1080 435 1074T412 1060T387 1048T366 1040L-17 1417L13 1473Q23 1475 54 1481T121 1493T189 1505T234 1512L452 1086Z" />
<glyph unicode="a" glyph-name="a" horiz-adv-x="1023" d="M412 145Q431 145 452 149T498 165T554 197T623 250V471Q563 461 522 452T453 432T408 411T377 387Q351 361 335 331T319 259Q319 225 328 203T352 168T383 150T412 145ZM1016 112Q974 83 929 57T843
12T769 -19T717 -30Q680 -30 655 12T624 129Q579 84 534 54T446 5T364 -22T293 -30Q251 -30 211 -16T138 27T85 99T65 201Q65 269 89 316T151 401Q175 425 206 447T290 491T422 531T623 569V687Q623 718 617 744T596 790T556 819T493 830Q469 830 445 821T403 796T375
756T367 702Q368 696 351 687T308 669T251 650T190 634T138 624T107 622L86 676Q110 736 161 787T282 877T432 938T597 960Q666 960 716 942T798 892T847 815T863 720V238Q863 196 874 178T903 160Q910 160 917 161T935 165T960 173T994 187L1016 112Z" />
<glyph unicode="b" glyph-name="b" horiz-adv-x="1100" d="M804 416Q804 516 787 586T739 702T669 767T582 788Q547 788 493 764T365 678V218Q445 175 506 157T597 138Q649 138 688 160T753 219T791 307T804 416ZM1025 507Q1025 449 1004 387T946 265T859 152T750
58T628 -6T499 -30Q472 -30 430 -21T339 6T234 46T125 96V1266Q125 1312 122 1337T105 1374T68 1391T3 1400V1470Q50 1478 91 1485T171 1502T247 1523T321 1550Q325 1546 332 1540T347 1526Q356 1518 365 1509V802Q415 845 463 875T556 924T638 951T705 960Q779
960 838 928T938 837T1002 695T1025 507Z" />
<glyph unicode="c" glyph-name="c" horiz-adv-x="933" d="M893 190Q828 116 773 73T669 6T573 -23T480 -30Q399 -30 324 2T192 96T100 245T65 444Q65 552 105 646T216 809T387 919T605 960Q638 960 679 955T761 939T834 914T885 881Q886 873 883 853T873 807T857
752T839 697T821 650T806 620L739 630Q706 728 658 781T530 835Q486 835 446 815T374 752T324 640T305 475Q305 395 325 333T381 227T465 161T567 138Q595 138 621 141T678 157T747 192T839 254L893 190Z" />
<glyph unicode="d" glyph-name="d" horiz-adv-x="1148" d="M1141 114Q1095 83 1048 57T961 12T889 -19T844 -30Q772 -30 752 145Q706 98 668 65T592 11T516 -20T431 -30Q364 -30 299 2T181 96T97 245T65 444Q65 544 100 637T200 802T354 917T551 960Q598 960 644
949T745 901V1244Q745 1299 744 1331T730 1381T689 1405T608 1416V1485Q718 1496 806 1514T947 1550L985 1513V299Q985 264 986 240T990 201T997 178T1008 166Q1014 163 1021 162T1039 161T1068 169T1113 187L1141 114ZM745 269V706Q709 764 656 796T535 828Q485
828 443 809T371 750T323 647T305 498Q305 418 325 356T377 250T450 183T532 160Q587 160 636 187T745 269Z" />
<glyph unicode="e" glyph-name="e" horiz-adv-x="991" d="M511 840Q464 840 430 822T373 770T336 688T316 580H649Q672 580 679 587T687 616Q687 646 679 684T651 757T596 816T511 840ZM926 550Q917 540 900 528T863 505T823 484T786 468H313Q315 396 332 336T382
231T459 163T564 138Q595 138 624 141T688 158T766 194T868 259Q874 256 882 247T898 228T912 208T920 195Q851 125 796 81T691 13T590 -21T480 -30Q395 -30 320 4T188 100T98 249T65 442Q65 578 116 684T271 866Q297 885 329 902T397 932T471 952T547 960Q645
960 716 926T834 836T903 705T926 550Z" />
<glyph unicode="f" glyph-name="f" horiz-adv-x="696" d="M891 1454Q891 1443 882 1428T857 1395T823 1359T786 1326T752 1300T726 1283Q678 1343 633 1369T556 1395Q530 1395 507 1379T465 1321T436 1205T425 1016V930H674L711 894Q702 877 689 859T662 823T635
791T613 770Q590 782 548 793T425 805V132Q425 126 434 120T467 108T529 93T627 73V0H53V73Q122 85 153 102T185 132V805H66L38 841L116 930H185V961Q185 1043 196 1110T229 1231T282 1330T354 1413Q391 1449 430 1474T508 1517T583 1542T650 1550Q695 1550 738
1538T815 1511T870 1479T891 1454Z" />
<glyph unicode="g" glyph-name="g" horiz-adv-x="1059" d="M668 600Q668 651 655 695T615 773T551 825T461 845Q436 845 410 834T363 799T329 741T315 659Q315 609 327 565T364 487T429 435T522 415Q551 415 577 426T624 461T656 518T668 600ZM556 -42Q508 -36
466 -28T387 -12Q341 -44 315 -69T275 -114T259 -151T255 -183Q255 -216 279 -246T347 -300T448 -336T575 -350Q634 -350 677 -336T748 -296T791 -239T805 -172Q805 -153 796 -134T760 -98T684 -67T556 -42ZM898 641Q898 564 864 501T773 392T641 321T483 295H473Q435
260 425 239T414 211Q414 202 420 194T448 177T516 159T640 140Q757 125 834 104T956 52T1020 -17T1038 -105Q1038 -152 1017 -199T957 -289T868 -370T758 -434T634 -477T505 -493Q453 -493 397 -487T286 -466T182 -431T96 -379T37 -309T15 -222Q15 -197 25 -171T64
-116T140 -52T266 25Q152 71 152 123Q152 134 161 152T192 195T249 250T334 314Q278 329 232 356T154 420T103 503T85 602Q85 675 121 740T217 854T356 931T523 960Q592 960 652 941T760 890Q847 901 917 923T1029 960L1057 923Q1054 912 1048 897T1034 867T1018
836T1000 808Q966 802 931 798T854 792Q875 757 886 720T898 641Z" />
<glyph unicode="h" glyph-name="h" horiz-adv-x="1190" d="M663 0V73Q735 92 765 106T795 134V573Q795 634 789 673T769 736T734 768T682 778Q624 778 563 742T420 639V134Q420 119 454 103T553 73V0H48V73Q114 90 147 103T180 134V1268Q180 1310 178 1333T163
1370T123 1388T48 1400V1470Q104 1478 148 1486T231 1503T304 1524T376 1550L420 1509V782Q535 876 635 918T814 960Q857 960 897 947T967 903T1016 823T1035 704V134Q1035 127 1041 121T1062 107T1103 92T1168 73V0H663Z" />
<glyph unicode="i" glyph-name="i" horiz-adv-x="615" d="M63 0V73Q131 87 163 103T195 134V648Q195 699 194 730T182 779T143 805T63 818V888Q149 900 226 917T371 960H435V134Q435 122 465 105T568 73V0H63ZM473 1261Q473 1227 460 1199T425 1151T372 1120T305
1109Q277 1109 252 1115T209 1136T179 1170T168 1220Q168 1254 181 1282T216 1329T269 1360T335 1371Q362 1371 387 1365T431 1345T461 1311T473 1261Z" />
<glyph unicode="j" glyph-name="j" horiz-adv-x="590" d="M430 107Q430 -9 410 -88T357 -222T284 -315T203 -385Q176 -406 143 -425T76 -460T8 -484T-54 -493Q-93 -493 -134 -483T-210 -459T-266 -428T-288 -401Q-288 -387 -267 -362T-217 -312T-160 -266T-116
-238Q-100 -258 -77 -273T-30 -298T17 -314T60 -320Q86 -320 109 -306T151 -252T179 -141T190 43V648Q190 699 189 730T176 778T137 804T58 818V888Q111 895 150 902T224 918T290 937T363 960H430V107ZM471 1261Q471 1227 459 1199T424 1151T371 1120T304 1109Q276
1109 251 1115T207 1136T177 1170T166 1220Q166 1254 179 1282T215 1329T268 1360T334 1371Q361 1371 386 1365T429 1345T459 1311T471 1261Z" />
<glyph unicode="k" glyph-name="k" horiz-adv-x="1129" d="M48 0V73Q114 90 147 103T180 134V1266Q180 1312 176 1337T157 1374T117 1391T48 1400V1470Q145 1484 226 1502T376 1550L420 1509V534L683 769Q716 799 725 816T728 843T701 854T655 857V930H1102V857Q1057
852 1014 836T927 788L623 558L984 149Q998 133 1011 124T1042 110T1080 105T1131 106L1137 33Q1108 26 1071 19T1000 5T938 -6T900 -10Q858 -10 829 2T778 43L420 517V134Q420 126 423 120T438 108T471 93T530 73V0H48Z" />
<glyph unicode="l" glyph-name="l" horiz-adv-x="615" d="M53 0V73Q96 80 123 87T167 102T189 118T195 134V1266Q195 1311 190 1336T171 1373T131 1390T63 1400V1470Q113 1477 156 1484T238 1501T315 1522T392 1550L435 1509V134Q435 126 442 119T465 103T509
88T578 73V0H53Z" />
<glyph unicode="m" glyph-name="m" horiz-adv-x="1728" d="M1209 0V73Q1245 82 1267 90T1303 106T1320 120T1325 134V603Q1325 664 1319 701T1300 757T1267 782T1220 788Q1176 788 1117 757T993 663V134Q993 127 998 121T1016 107T1055 92T1119 73V0H636V73Q672
82 695 90T730 106T748 120T753 134V603Q753 664 748 701T732 757T702 782T655 788Q610 788 552 758T420 663V134Q420 119 450 103T545 73V0H48V73Q114 90 147 103T180 134V689Q180 729 178 752T163 787T123 806T48 818V888Q100 894 142 901T221 917T293 936T363
960L405 918L416 794Q472 843 519 875T609 926T689 952T763 960Q811 960 848 948T911 916T953 868T975 808L978 794Q1034 843 1082 875T1172 926T1253 952T1328 960Q1376 960 1419 947T1494 903T1546 823T1565 704V134Q1565 120 1596 107T1706 73V0H1209Z" />
<glyph unicode="n" glyph-name="n" horiz-adv-x="1190" d="M663 0V73Q735 92 765 106T795 134V588Q795 643 790 679T772 738T740 769T690 778Q666 778 639 772T580 750T508 707T420 639V134Q420 119 454 103T553 73V0H48V73Q114 90 147 103T180 134V689Q180 728
179 751T165 787T126 806T48 818V888Q96 893 137 900T217 915T291 935T363 960L405 918L416 774Q533 874 634 917T814 960Q857 960 897 947T967 903T1016 823T1035 704V134Q1035 127 1041 121T1062 107T1103 92T1168 73V0H663Z" />
<glyph unicode="o" glyph-name="o" horiz-adv-x="1075" d="M758 440Q758 519 742 590T695 716T623 803T529 835Q467 835 426 808T361 732T328 617T318 473Q318 394 336 325T386 205T459 125T547 95Q607 95 647 118T712 185T747 293T758 440ZM1010 485Q1010 418
992 354T942 233T864 128T765 44T648 -10T519 -30Q416 -30 332 6T189 105T98 255T65 444Q65 543 101 636T203 801T359 916T558 960Q660 960 743 924T886 825T978 674T1010 485Z" />
<glyph unicode="p" glyph-name="p" horiz-adv-x="1145" d="M855 426Q855 522 835 591T782 704T708 769T623 790Q605 790 588 786T548 770T495 736T420 678V228Q473 197 511 179T579 152T633 141T681 138Q720 138 752 157T807 212T842 303T855 426ZM1080 500Q1080
434 1063 370T1016 246T947 137T865 49T777 -9T691 -30Q662 -30 633 -24T571 -5T501 30T420 83V-345Q420 -361 457 -377T589 -407V-480H48V-407Q114 -391 147 -377T180 -345V689Q180 726 177 750T162 788T123 809T48 818V888Q105 895 147 902T224 917T292 936T363
960L405 918L414 795Q469 844 517 875T605 926T680 952T743 960Q811 960 872 933T980 848T1053 705T1080 500Z" />
<glyph unicode="q" glyph-name="q" horiz-adv-x="1123" d="M525 160Q580 160 629 188T738 270V700Q721 729 697 752T644 793T586 819T528 828Q480 828 440 810T369 752T322 652T305 505Q305 420 324 356T374 248T444 182T525 160ZM568 -480V-407Q662 -393 700
-378T738 -345V138Q693 93 654 61T577 9T498 -20T409 -30Q350 -30 289 2T179 96T97 245T65 444Q65 532 87 601T143 723T217 813T292 873Q320 891 352 907T419 935T487 953T551 960Q580 960 607 956T664 941T724 908T793 850Q817 862 844 877T896 908T941 937T970
960L1009 923Q1000 891 993 854Q987 822 983 781T978 695V-345Q978 -353 984 -361T1005 -377T1045 -392T1109 -407V-480H568Z" />
<glyph unicode="r" glyph-name="r" horiz-adv-x="909" d="M875 916Q881 912 881 891T877 838T864 769T847 695T828 628T810 579H737Q734 619 725 655T703 717T670 759T626 775Q606 775 583 768T533 739T479 677T420 571V134Q420 119 461 103T597 73V0H48V73Q180
103 180 134V664Q180 697 178 719T173 756T166 778T157 791Q150 798 143 802T124 810T94 814T48 818V888Q103 896 143 903T219 918T287 936T363 960L405 918L418 773Q445 812 479 846T551 905T632 945T717 960Q755 960 796 949T875 916Z" />
<glyph unicode="s" glyph-name="s" horiz-adv-x="858" d="M782 283Q782 212 761 162T705 76T627 20T540 -12T455 -26T385 -30Q353 -30 316 -26T239 -12T162 11T90 43Q83 46 80 78T77 156T82 250T97 336L178 325Q188 272 211 229T266 156T337 110T420 93Q492 93
527 119T562 205Q562 245 542 277T487 336T410 386T321 434Q279 455 238 480T163 537T109 607T88 693Q88 755 118 804T199 888T313 941T445 960Q488 960 531 955T615 939T689 915T746 883Q752 878 749 850T736 786T713 716T688 666L619 674Q594 762 547 808T434
855Q374 855 341 828T308 758Q308 726 324 701T369 654T441 610T537 559Q580 537 624 512T703 455T760 381T782 283Z" />
<glyph unicode="t" glyph-name="t" horiz-adv-x="758" d="M736 155Q603 59 511 15T366 -30Q323 -30 285 -14T218 37T172 122T155 244V805H34L5 841L83 930H155V1139L357 1288L395 1255V930H700L736 894Q727 877 714 859T686 823T659 791T635 770Q623 776 605 782T563
793T515 802T462 805H395V337Q395 286 401 251T418 194T445 163T480 153Q498 153 517 156T562 168T618 190T692 228L736 155Z" />
<glyph unicode="u" glyph-name="u" horiz-adv-x="1153" d="M1144 112Q1107 88 1063 63T977 17T903 -17T858 -30Q840 -30 824 -24T793 1T767 52T750 136Q688 82 639 50T549 -1T474 -24T408 -30Q361 -30 316 -17T235 30T177 125T155 279V689Q155 737 154 763T141
803T105 822T34 832V902Q84 906 125 911T205 922T280 938T360 960L395 914V342Q395 280 402 241T425 181T461 151T511 143Q532 143 556 148T610 166T674 203T750 262V689Q750 734 747 761T730 803T691 824T618 832V902Q718 911 799 926T953 960L990 914V284Q990
253 991 233T994 199T1001 177T1013 164Q1025 156 1046 160T1119 187L1144 112Z" />
<glyph unicode="v" glyph-name="v" horiz-adv-x="1040" d="M1027 857Q997 850 980 844T952 831T936 813T924 789L641 82Q632 60 614 42T571 10T520 -14T469 -30L116 789Q105 816 84 831T13 857V930H466V857Q427 852 405 847T372 834T361 816T368 789L583 286L785
789Q791 804 791 814T784 832T757 845T704 857V930H1027V857Z" />
<glyph unicode="w" glyph-name="w" horiz-adv-x="1469" d="M1455 857Q1427 850 1410 844T1381 831T1365 816T1355 795L1134 59Q1128 37 1110 22T1069 -4T1025 -21T990 -30L735 554L532 59Q524 36 506 21T467 -5T425 -21T391 -30L122 795Q116 813 90 829T13 857V930H466V857Q423
852 399 846T365 831T354 813T356 795L506 323L745 930H822L1073 323L1217 795Q1221 806 1221 815T1212 831T1184 845T1130 857V930H1455V857Z" />
<glyph unicode="x" glyph-name="x" horiz-adv-x="1068" d="M562 0V73Q587 75 607 78T639 90T649 114T628 157L481 360L324 157Q304 131 304 116T317 92T353 79T399 73V0H13V73Q50 79 76 88T121 109T153 134T178 163L409 461L186 771Q173 789 160 803T130 829T87
847T24 857V930H519V857Q488 854 469 850T443 836T441 812T463 773L575 616L696 773Q714 797 720 812T719 836T694 849T644 857V930H1025V857Q984 854 956 847T908 829T873 804T844 771L647 516L901 163Q912 148 925 134T955 108T997 87T1054 73V0H562Z" />
<glyph unicode="y" glyph-name="y" horiz-adv-x="1040" d="M1027 857Q997 850 978 844T947 831T929 814T917 789L583 -75Q540 -185 490 -264T384 -394T267 -469T142 -493Q104 -493 67 -486T2 -469T-44 -446T-62 -425Q-62 -416 -45 -391T-5 -336T44 -281T85 -245Q135
-277 185 -284T273 -278Q310 -265 352 -222T430 -92L459 -23L124 789Q113 816 88 831T13 857V930H466V857Q427 852 406 847T376 834T368 816T376 789L582 287L778 789Q784 804 785 814T780 832T753 845T700 857V930H1027V857Z" />
<glyph unicode="z" glyph-name="z" horiz-adv-x="959" d="M882 331Q882 310 882 281T881 218T879 152T877 88T874 35T870 0H87L61 45L590 810H330Q286 810 248 760T183 600L112 620L137 946Q159 940 177 937T214 932T257 930H873L895 887L364 120H707Q725 120
738 135T763 180T786 252T812 348L882 331Z" />
<glyph unicode="{" glyph-name="braceleft" horiz-adv-x="717" d="M693 1523Q615 1474 566 1409T516 1267Q516 1214 522 1174T536 1095T550 1016T557 923Q557 881 543 841T502 765T440 700T362 653Q462 635 509 566T557 385Q557 331 551 285T537 197T523 113T516
28Q516 -13 522 -46T547 -110T597 -167T683 -224L645 -315Q553 -281 481 -246T360 -168T286 -70T260 57Q260 110 266 152T280 236T294 321T301 422Q301 503 266 537T168 571H147Q141 571 136 571T125 569T103 565L86 648Q198 679 249 733T301 863Q301 918 295 958T281
1035T267 1113T260 1210Q260 1277 290 1334T372 1439T497 1526T652 1600L693 1523Z" />
<glyph unicode="|" glyph-name="bar" horiz-adv-x="470" d="M335 -346Q326 -354 310 -362T275 -379T238 -394T208 -405L165 -375V1614Q193 1631 228 1646T292 1670L335 1641V-346Z" />
<glyph unicode="}" glyph-name="braceright" horiz-adv-x="717" d="M632 636Q520 605 469 551T417 421Q417 366 423 326T436 249T450 172T457 75Q457 7 427 -49T345 -154T221 -242T66 -316L25 -238Q103 -189 152 -124T201 18Q201 70 195 110T181 189T167 268T161
362Q161 404 175 444T216 519T278 584T356 631Q255 650 208 719T161 900Q161 954 167 1000T180 1088T194 1171T201 1256Q201 1298 195 1331T170 1394T120 1451T35 1508L73 1599Q165 1566 236 1531T357 1452T431 1355T457 1228Q457 1175 451 1133T437 1049T423 963T417
863Q417 782 452 748T550 714H570Q577 714 582 714T593 716T615 720L632 636Z" />
<glyph unicode="~" glyph-name="asciitilde" horiz-adv-x="999" d="M950 774Q929 725 897 673T826 577T741 505T647 477Q605 477 558 502T463 557T367 612T276 637Q227 637 186 598T102 475L49 502Q70 551 102 603T174 699T259 771T352 799Q398 799 446 774T542
719T635 664T721 639Q769 639 812 678T897 799L950 774Z" />
<glyph unicode="&#xa0;" glyph-name="uni00A0" horiz-adv-x="510" />
<glyph unicode="&#xa1;" glyph-name="exclamdown" horiz-adv-x="633" d="M454 -449Q432 -461 400 -477T333 -510T267 -540T216 -561L165 -530L244 508Q263 522 293 530T348 547L377 527L454 -449ZM474 826Q474 787 459 755T419 701T361 666T291 654Q263 654 237
662T191 686T159 728T147 790Q147 830 161 861T200 915T258 948T330 960Q359 960 385 953T431 929T462 887T474 826Z" />
<glyph unicode="&#xa2;" glyph-name="cent" horiz-adv-x="1036" d="M309 616Q309 549 323 496T362 402T421 335T498 293V941Q460 931 426 908T366 845T325 749T309 616ZM618 7Q600 -9 577 -21T530 -41L498 -9V130Q428 136 356 168T224 258T127 398T89 586Q89 675
118 753T200 893T329 999T498 1063V1199Q512 1208 521 1214T539 1226T558 1236T584 1245L618 1216V1078Q626 1078 634 1078T652 1079Q685 1079 728 1074T812 1058T888 1033T940 999Q942 988 934 958T912 894T885 830T861 786L796 803Q788 818 773 838T737 879T686
917T618 943V277Q647 278 675 285T734 309T801 355T885 429L947 358Q896 301 853 261T770 196T693 156T618 135V7Z" />
<glyph unicode="&#xa3;" glyph-name="sterling" horiz-adv-x="1036" d="M720 521H456Q459 403 431 310T348 139Q393 143 426 144T484 145T531 143T575 141T625 139T689 139Q735 140 768 148T826 178T873 236T915 332L988 307Q984 264 978 216T964 125T951 49T940
0Q895 -25 828 -28T683 -24T520 -6T356 11T206 9T87 -30L49 42Q79 67 102 89T143 137T171 195T187 273T192 378T186 521H71L42 554Q44 561 49 573T59 597T70 622T79 642H179Q177 774 208 883T301 1070T451 1191T652 1235Q678 1235 710 1233T781 1224T861 1203T951
1165Q950 1148 949 1122T944 1064T937 1000T929 938T921 885T912 848H835Q821 972 767 1043T623 1114Q603 1114 579 1110T533 1091T490 1045T457 962T440 831T446 642H728L760 612L720 521Z" />
<glyph unicode="&#xa4;" glyph-name="currency" horiz-adv-x="1036" d="M366 757Q334 725 318 684T301 601Q301 559 316 520T364 449Q398 415 438 400T520 384Q562 384 601 399T673 448Q705 480 721 520T737 602Q737 644 721 684T672 757Q640 789 601 804T520
820Q478 820 438 805T366 757ZM851 183L714 320Q671 290 622 275T520 260Q467 260 417 275T322 322L182 182L140 185Q130 202 119 223T100 266L239 405Q208 449 193 498T178 599Q178 651 193 701T239 797L101 937L103 981Q121 991 142 1001T184 1021L323 881Q414
946 520 946Q571 946 620 930T713 882L851 1020L895 1021L934 935L797 798Q829 753 845 702T861 599Q861 548 846 499T798 404L936 267L937 222L851 183Z" />
<glyph unicode="&#xa5;" glyph-name="yen" horiz-adv-x="1036" d="M229 0V73Q274 82 304 92T352 111T377 129T385 145V388H97L75 412Q77 419 81 432T91 459T101 487T109 508H385V529Q350 606 311 682T232 828T153 958T79 1065Q70 1076 61 1085T34 1100T-9 1109T-77
1113L-81 1186Q-52 1190 -14 1195T63 1204T135 1211T190 1214Q218 1214 246 1202T291 1168Q328 1118 362 1066T431 956T498 835T567 699L760 1065Q775 1091 751 1106T649 1131V1204H1067V1131Q999 1118 966 1104T919 1065L635 526V508H902L927 485L890 388H635V145Q635
139 642 131T668 112T716 92T794 73V0H229Z" />
<glyph unicode="&#xa6;" glyph-name="brokenbar" horiz-adv-x="469" d="M341 775Q331 767 313 759T275 742T235 726L204 716L159 746V1614Q188 1631 227 1646T297 1670L341 1641V775ZM341 -347Q331 -355 313 -363T275 -380T236 -395T204 -406L159 -376V482Q174
491 191 499T227 515T264 529T297 541L341 509V-347Z" />
<glyph unicode="&#xa7;" glyph-name="section" horiz-adv-x="1025" d="M585 559Q607 548 630 536T677 511Q691 531 699 554T707 604Q707 654 691 692T640 763T554 828T430 899Q414 907 398 916T365 935Q344 912 331 884T318 828Q318 784 334 751T383 688T466 628T585
559ZM920 669Q920 584 888 519T809 409Q832 382 846 350T860 278Q860 207 839 157T783 73T705 18T618 -13T534 -27T464 -30Q432 -30 395 -25T318 -11T241 13T169 46Q164 48 161 63T157 103T155 158T158 221T164 283T176 338L256 327Q267 274 290 231T345 156T416
108T499 91Q571 91 605 115T640 200Q640 240 616 271T554 329T470 379T377 427Q329 452 281 484T193 559T130 656T105 779Q105 813 116 847T146 912T191 971T247 1020Q212 1054 190 1092T167 1178Q167 1240 197 1289T278 1371T392 1422T524 1440Q567 1440 610 1435T694
1419T767 1394T824 1361Q830 1356 827 1328T814 1264T792 1194T767 1143L698 1151Q673 1240 626 1287T513 1335Q452 1335 420 1310T387 1240Q387 1207 405 1182T456 1133T535 1086T638 1032Q687 1006 737 975T828 900T894 801T920 669Z" />
<glyph unicode="&#xa8;" glyph-name="dieresis" horiz-adv-x="801" d="M749 1268Q749 1231 737 1199T703 1143T653 1105T592 1091Q534 1091 504 1122T474 1213Q474 1250 487 1282T521 1338T571 1375T630 1389Q686 1389 717 1359T749 1268ZM326 1268Q326 1231 314
1199T280 1143T231 1105T170 1091Q112 1091 82 1122T51 1213Q51 1250 64 1282T98 1338T148 1375T208 1389Q264 1389 295 1359T326 1268Z" />
<glyph unicode="&#xa9;" glyph-name="copyright" horiz-adv-x="1496" d="M1068 412Q1015 355 970 320T883 266T803 241T725 234Q655 234 590 262T473 342T392 470T361 639Q361 733 396 815T493 958T639 1055T824 1091Q857 1091 891 1085T957 1069T1014 1045T1055
1017Q1057 1008 1050 978T1030 913T1005 847T983 805L929 813Q919 847 906 878T873 934T828 973T766 988Q725 988 688 970T622 914T577 815T560 670Q560 601 581 546T637 452T715 393T803 372Q826 372 847 375T893 388T949 416T1023 465Q1024 465 1031 457T1046
439T1060 421T1068 412ZM1292 666Q1292 784 1252 888T1139 1071T966 1194T747 1239Q629 1239 530 1194T358 1071T245 889T204 666Q204 547 244 442T357 259T529 136T747 91Q866 91 966 136T1138 259T1251 442T1292 666ZM1411 666Q1411 570 1389 481T1324 315T1223
174T1090 65T930 -5T747 -30Q651 -30 565 -5T406 65T273 174T172 315T108 481T85 666Q85 810 134 936T272 1156T482 1304T747 1359Q843 1359 929 1335T1090 1265T1223 1156T1324 1016T1388 851T1411 666Z" />
<glyph unicode="&#xaa;" glyph-name="ordfeminine" horiz-adv-x="564" d="M550 800Q504 769 460 748T384 726Q370 726 358 743T340 810Q290 761 244 744T163 726Q143 726 122 732T83 751T54 786T42 840Q42 871 52 900T86 955T145 1001T233 1032L337 1054V1066Q337
1097 336 1120T327 1160T307 1184T269 1192Q254 1192 241 1188T218 1175T205 1153T206 1121Q207 1116 188 1109T143 1095T95 1084T64 1081L53 1107Q66 1141 94 1170T160 1219T240 1250T324 1262Q360 1262 387 1254T432 1226T459 1171T468 1083V887Q468 859 472
847T482 827Q487 824 498 826T538 840L550 800ZM44 586V674H523V586H44ZM337 871V1002L287 991Q236 978 208 950T179 879Q179 861 184 849T196 831T211 821T227 818Q248 818 273 828T337 871Z" />
<glyph unicode="&#xab;" glyph-name="guillemotleft" horiz-adv-x="1054" d="M65 430V465Q65 479 65 490T67 503L464 928L521 883L512 865Q504 847 490 818T458 751T420 674T383 598T351 531T329 485T321 467L522 47L464 2L65 430ZM473 430V465Q473 479 473 490T475
503L871 928L928 883L919 865Q911 847 897 818T865 751T827 674T790 598T758 531T736 485T728 467L929 47L871 2L473 430Z" />
<glyph unicode="&#xac;" glyph-name="logicalnot" horiz-adv-x="1036" d="M951 233Q941 225 926 216T895 197T863 179T835 167L803 200V491H108L75 523Q78 533 83 548T96 578T109 608T121 633H915L951 604V233Z" />
<glyph unicode="&#xad;" glyph-name="uni00AD" horiz-adv-x="728" d="M675 554Q672 543 666 527T653 495T640 463T629 440H85L53 472Q56 483 61 498T74 530T87 560T99 585H642L675 554Z" />
<glyph unicode="&#xae;" glyph-name="registered" horiz-adv-x="730" d="M711 1084Q711 1010 685 944T613 829T503 752T364 723Q290 723 227 751T118 829T46 944T20 1084Q20 1159 46 1224T118 1339T227 1416T364 1445Q439 1445 502 1417T612 1339T685 1225T711
1084ZM637 1084Q637 1143 617 1195T560 1287T474 1348T364 1371Q305 1371 256 1349T170 1287T114 1196T93 1084Q93 1024 113 972T170 881T255 820T364 797Q424 797 474 819T560 881T616 972T637 1084ZM207 884V907Q247 916 247 925V1249Q237 1247 228 1246T209
1244L205 1278Q234 1285 272 1289T352 1293Q395 1293 426 1286T476 1265T505 1234T514 1196Q514 1103 416 1075L510 939Q517 928 526 925T557 923L560 900Q550 897 537 894T510 887T486 882T469 880Q460 880 453 884T441 895L352 1067H344Q338 1067 332 1067T319
1069V925Q319 921 326 917T356 907V884H207ZM341 1256H330Q324 1256 319 1255V1110Q324 1109 329 1109H340Q391 1109 411 1129T432 1187Q432 1216 410 1236T341 1256Z" />
<glyph unicode="&#xaf;" glyph-name="overscore" horiz-adv-x="1010" d="M931 1307Q928 1296 921 1278T904 1239T887 1202T875 1175H111L79 1207Q82 1218 89 1236T105 1273T122 1310T135 1338H899L931 1307Z" />
<glyph unicode="&#xb0;" glyph-name="degree" horiz-adv-x="733" d="M467 995Q467 1020 461 1042T443 1082T415 1110T377 1120Q356 1120 336 1112T301 1087T276 1049T267 998Q267 974 273 952T291 912T319 884T357 873Q378 873 397 881T432 904T457 943T467 995ZM619
1050Q619 982 593 924T524 823T429 756T325 732Q279 732 241 749T174 794T131 861T115 943Q115 1012 141 1070T209 1171T303 1238T409 1262Q452 1262 490 1245T557 1199T602 1132T619 1050Z" />
<glyph unicode="&#xb1;" glyph-name="plusminus" horiz-adv-x="840" d="M506 355Q496 350 482 344T451 333T420 323T393 316L361 346V621H85L53 652Q56 663 61 678T74 709T87 739T99 764H361V1032L385 1040Q400 1045 416 1050T447 1061T474 1069L506 1038V764H777L810
733Q807 722 801 707T788 675T775 644T764 621H506V355ZM810 224Q807 213 801 197T788 165T775 134T764 111H85L53 143Q56 153 61 168T74 200T87 230T99 255H777L810 224Z" />
<glyph unicode="&#xb2;" glyph-name="twosuperior" horiz-adv-x="711" d="M641 620H76L56 664Q179 788 255 871T373 1010T430 1104T445 1174Q445 1225 425 1253T353 1282Q303 1282 283 1249T272 1171Q260 1165 238 1159T190 1148T139 1139T98 1133L74 1174Q74
1205 100 1238T171 1298T275 1343T401 1361Q456 1361 500 1352T575 1323T624 1275T641 1209Q641 1182 634 1156T611 1101T568 1038T499 960T401 861T269 735H521Q544 735 558 753T580 793Q589 819 592 852L651 840L641 620Z" />
<glyph unicode="&#xb3;" glyph-name="threesuperior" horiz-adv-x="711" d="M643 849Q643 798 620 754T554 675T453 622T323 602Q295 602 261 608T190 626T118 658T51 703L79 777Q143 736 195 718T301 699Q364 699 403 735T443 837Q443 877 431 903T399 945T355
966T308 972H292Q286 972 280 972T268 970T250 968L238 1032Q297 1045 330 1064T380 1103T399 1145T403 1184Q403 1225 385 1253T324 1282Q306 1282 291 1275T265 1256T252 1226T255 1188Q240 1180 221 1174T180 1161T136 1151T95 1146L71 1183Q71 1208 92 1239T153
1297T245 1342T364 1361Q428 1361 473 1347T547 1309T589 1255T602 1195Q602 1172 593 1149T565 1104T521 1065T461 1039Q504 1035 538 1019T595 977T630 918T643 849Z" />
<glyph unicode="&#xb4;" glyph-name="acute" horiz-adv-x="653" d="M289 1040Q280 1041 268 1046T242 1058T219 1071T202 1083L414 1512Q426 1511 458 1506T528 1495T597 1483T641 1474L672 1420L289 1040Z" />
<glyph unicode="&#xb5;" glyph-name="mu" horiz-adv-x="1165" d="M1160 97Q1131 76 1093 53T1015 12T940 -19T878 -31Q852 -31 832 -16T797 24T773 85T760 159Q685 58 623 14T498 -31Q454 -31 400 6T296 106V86Q296 -6 311 -81T350 -216T404 -322T464 -399Q449
-404 413 -418T337 -448T261 -479T214 -500L168 -464V694Q168 733 167 756T154 792T118 812T46 824V894Q136 902 211 917T362 960L368 954Q374 948 381 940T396 924T408 910V381Q408 337 423 298T461 231T511 186T561 169Q580 169 600 173T643 192T694 234T758
306V748Q758 764 755 786T746 831T734 872T720 900Q747 905 780 911T848 926T916 942T978 960L1014 914Q1012 901 1010 887T1005 855T1001 814T998 759V298Q998 251 1000 222T1007 175T1019 151T1037 144Q1059 144 1080 150T1135 172L1160 97Z" />
<glyph unicode="&#xb6;" glyph-name="paragraph" horiz-adv-x="1241" d="M867 1143Q829 1152 787 1158V-115Q787 -126 801 -134T826 -146Q838 -143 852 -135T867 -115V1143ZM622 633L623 1174Q603 1175 586 1175T557 1176Q509 1176 463 1160T380 1113T321 1038T298
938Q298 884 314 830T364 732T451 661T578 633H622ZM482 -250V-177Q551 -163 586 -146T621 -115L622 525Q604 522 583 521T535 519Q428 519 337 544T178 617T73 737T35 903Q35 988 70 1059T171 1181T330 1261T539 1290Q561 1290 596 1289T676 1285T768 1281T865
1275Q977 1268 1104 1260H1168V1187Q1100 1173 1065 1156T1030 1125V-115Q1030 -128 1062 -145T1168 -177V-250H482Z" />
<glyph unicode="&#xb7;" glyph-name="middot" horiz-adv-x="419" d="M369 708Q369 669 355 639T317 587T261 555T192 544Q163 544 138 551T93 574T63 614T51 674Q51 712 65 742T104 794T161 827T229 839Q256 839 281 832T325 808T357 767T369 708Z" />
<glyph unicode="&#xb8;" glyph-name="cedilla" horiz-adv-x="469" d="M454 -229Q454 -266 427 -301T352 -365T238 -415T93 -444L56 -373Q143 -360 180 -331T218 -269Q218 -235 195 -221T127 -202L130 -198Q134 -194 142 -173T166 -109T207 14L330 12L291 -89Q369
-103 411 -137T454 -229Z" />
<glyph unicode="&#xb9;" glyph-name="onesuperior" horiz-adv-x="711" d="M109 620V680Q164 686 198 692T253 706T280 720T288 734V1156Q288 1180 286 1193T275 1215Q271 1219 262 1221T233 1223T184 1219T107 1206L87 1265Q117 1271 167 1284T270 1312T371 1342T444
1367L476 1342V734Q476 728 482 721T505 707T555 693T641 680V620H109Z" />
<glyph unicode="&#xba;" glyph-name="ordmasculine" horiz-adv-x="575" d="M404 979Q404 1021 396 1060T372 1129T333 1178T280 1196Q250 1196 230 1182T196 1143T177 1083T171 1005Q171 963 181 924T208 856T247 810T295 792Q355 792 379 843T404 979ZM45 586V674H530V586H45ZM540
1003Q540 952 519 902T461 813T376 750T276 726Q220 726 176 745T100 799T52 880T35 982Q35 1034 54 1084T108 1174T191 1238T299 1263Q353 1263 397 1243T473 1188T522 1105T540 1003Z" />
<glyph unicode="&#xbb;" glyph-name="guillemotright" horiz-adv-x="1054" d="M988 428L591 2L533 47L734 464L533 883L591 928L989 501L988 428ZM580 428L183 2L126 47L326 464L125 883L183 928L581 501L580 428Z" />
<glyph unicode="&#xbc;" glyph-name="onequarter" horiz-adv-x="1275" d="M309 3Q297 -3 281 -7T246 -16T209 -23T178 -30L153 0L1043 1203Q1053 1207 1069 1211T1104 1220T1140 1229T1169 1235L1194 1207L309 3ZM1218 215Q1206 199 1190 184T1161 160H1131V66Q1131
59 1146 53T1208 37V0H879V37Q916 42 939 46T975 55T992 63T997 71V160H728L704 179L978 560Q991 564 1008 569L1043 579Q1061 584 1077 589T1106 598L1131 577V230H1203L1218 215ZM88 637V679Q133 683 162 688T208 699T232 711T239 722V1072Q239 1091 238 1101T229
1119Q226 1122 218 1124T193 1126T150 1122T87 1112L71 1153Q95 1157 134 1167T216 1190T296 1215T355 1235L380 1214V722Q380 717 386 712T407 700T450 689T520 679V637H88ZM997 469L817 230H997V469Z" />
<glyph unicode="&#xbd;" glyph-name="onehalf" horiz-adv-x="1275" d="M88 637V679Q133 683 162 688T208 699T232 711T239 722V1072Q239 1091 238 1101T229 1119Q226 1122 218 1124T193 1126T150 1122T87 1112L71 1153Q95 1157 134 1167T216 1190T296 1215T355
1235L380 1214V722Q380 717 386 712T407 700T450 689T520 679V637H88ZM309 3Q297 -3 281 -7T246 -16T209 -23T178 -30L153 0L1043 1203Q1053 1207 1069 1211T1104 1220T1140 1229T1169 1235L1194 1207L309 3ZM1198 0H741L724 36Q824 135 887 201T987 312T1038 388T1052
444Q1052 485 1033 510T966 535Q943 535 927 527T901 506T888 476T888 441Q878 436 862 432T827 423T790 415T759 411L740 443Q740 468 761 494T818 543T902 579T1004 593Q1094 593 1146 563T1198 471Q1198 439 1182 407T1129 331T1031 230T879 86H1101Q1121 86
1132 100T1150 133Q1157 153 1160 180L1207 170L1198 0Z" />
<glyph unicode="&#xbe;" glyph-name="threequarters" horiz-adv-x="1275" d="M309 3Q297 -3 281 -7T246 -16T209 -23T178 -30L153 0L1043 1203Q1053 1207 1069 1211T1104 1220T1140 1229T1169 1235L1194 1207L309 3ZM1218 215Q1206 199 1190 184T1161 160H1131V66Q1131
59 1146 53T1208 37V0H879V37Q916 42 939 46T975 55T992 63T997 71V160H728L704 179L978 560Q991 564 1008 569L1043 579Q1061 584 1077 589T1106 598L1131 577V230H1203L1218 215ZM534 821Q534 780 515 745T462 682T380 640T275 624Q252 624 224 629T167 644T108
669T53 705L77 751Q129 719 172 706T257 693Q283 693 306 699T346 720T374 756T384 809Q384 842 372 864T342 900T302 920T262 926H249Q244 926 240 926T230 924T215 922L206 967Q254 978 283 993T327 1024T347 1057T352 1089Q352 1122 335 1147T275 1173Q261 1173
249 1168T228 1152T217 1128T219 1098Q196 1087 159 1077T89 1065L70 1095Q70 1115 87 1138T136 1182T211 1217T308 1231Q360 1231 396 1220T456 1189T490 1146T501 1098Q501 1080 493 1061T468 1025T430 994T381 973Q416 970 444 957T492 924T523 877T534 821ZM997
469L817 230H997V469Z" />
<glyph unicode="&#xbf;" glyph-name="questiondown" horiz-adv-x="932" d="M432 508Q450 522 476 531T530 549L562 521L570 412Q573 355 557 301T514 194T455 92T395 -8T348 -105T329 -200Q329 -324 369 -383T478 -442Q503 -442 526 -429T567 -393T595 -338T606
-266Q606 -252 602 -234T593 -201Q609 -192 640 -183T706 -164T775 -149T831 -140L865 -178Q867 -186 867 -202V-226Q867 -297 830 -358T729 -464T583 -534T408 -560Q325 -560 261 -537T154 -473T88 -373T65 -245Q65 -170 90 -109T155 6T239 108T325 204T393 302T426
412L432 508ZM652 826Q652 787 637 755T597 701T538 666T468 654Q440 654 414 662T368 686T336 728T324 790Q324 830 338 861T378 915T436 948T507 960Q536 960 562 953T609 929T640 887T652 826Z" />
<glyph unicode="&#xc0;" glyph-name="Agrave" horiz-adv-x="1287" d="M747 550L582 1015L432 550H747ZM392 430L296 141Q286 110 320 96T437 73V0H0V73Q68 85 104 98T151 141L500 1207Q524 1227 551 1244T608 1274T667 1298T722 1317L1142 141Q1147 127 1155 116T1177
97T1212 83T1266 73V0H769V73Q847 78 874 93T891 141L789 430H392ZM825 1420Q811 1401 797 1385T765 1360L286 1594L296 1657Q303 1665 325 1681T374 1714T425 1746T460 1767L825 1420Z" />
<glyph unicode="&#xc1;" glyph-name="Aacute" horiz-adv-x="1287" d="M747 550L582 1015L432 550H747ZM392 430L296 141Q286 110 320 96T437 73V0H0V73Q68 85 104 98T151 141L500 1207Q524 1227 551 1244T608 1274T667 1298T722 1317L1142 141Q1147 127 1155 116T1177
97T1212 83T1266 73V0H769V73Q847 78 874 93T891 141L789 430H392ZM501 1360Q484 1368 466 1388T433 1427L798 1767Q821 1755 849 1739T902 1707T948 1677T976 1655L985 1603L501 1360Z" />
<glyph unicode="&#xc2;" glyph-name="Acircumflex" horiz-adv-x="1287" d="M747 550L582 1015L432 550H747ZM392 430L296 141Q286 110 320 96T437 73V0H0V73Q68 85 104 98T151 141L500 1207Q524 1227 551 1244T608 1274T667 1298T722 1317L1142 141Q1147 127 1155
116T1177 97T1212 83T1266 73V0H769V73Q847 78 874 93T891 141L789 430H392ZM971 1420Q959 1401 945 1385T913 1360L632 1523L353 1360Q336 1368 322 1384T293 1420L572 1744H694L971 1420Z" />
<glyph unicode="&#xc3;" glyph-name="Atilde" horiz-adv-x="1287" d="M747 550L582 1015L432 550H747ZM392 430L296 141Q286 110 320 96T437 73V0H0V73Q68 85 104 98T151 141L500 1207Q524 1227 551 1244T608 1274T667 1298T722 1317L1142 141Q1147 127 1155 116T1177
97T1212 83T1266 73V0H769V73Q847 78 874 93T891 141L789 430H392ZM1027 1657Q1009 1616 983 1568T924 1477T851 1407T764 1378Q721 1378 682 1394T606 1430T533 1466T458 1483Q435 1483 417 1476T383 1454T350 1418T315 1368L240 1396Q258 1437 283 1486T342 1577T415
1648T501 1677Q547 1677 588 1661T667 1625T739 1589T805 1572Q850 1572 883 1600T950 1687L1027 1657Z" />
<glyph unicode="&#xc4;" glyph-name="Adieresis" horiz-adv-x="1287" d="M747 550L582 1015L432 550H747ZM392 430L296 141Q286 110 320 96T437 73V0H0V73Q68 85 104 98T151 141L500 1207Q524 1227 551 1244T608 1274T667 1298T722 1317L1142 141Q1147 127 1155
116T1177 97T1212 83T1266 73V0H769V73Q847 78 874 93T891 141L789 430H392ZM982 1548Q982 1511 970 1479T936 1423T886 1385T825 1371Q767 1371 737 1402T707 1493Q707 1530 720 1562T754 1618T804 1655T863 1669Q919 1669 950 1639T982 1548ZM559 1548Q559 1511
547 1479T513 1423T464 1385T403 1371Q345 1371 315 1402T284 1493Q284 1530 297 1562T331 1618T381 1655T440 1669Q497 1669 528 1639T559 1548Z" />
<glyph unicode="&#xc5;" glyph-name="Aring" horiz-adv-x="1287" d="M747 550L582 1015L432 550H747ZM392 430L296 141Q286 110 320 96T437 73V0H0V73Q68 85 104 98T151 141L500 1207Q524 1227 551 1244T608 1274T667 1298T722 1317L1142 141Q1147 127 1155 116T1177
97T1212 83T1266 73V0H769V73Q847 78 874 93T891 141L789 430H392ZM706 1563Q706 1611 686 1636T643 1662Q622 1662 607 1654T581 1632T565 1601T559 1565Q559 1519 579 1494T623 1469Q663 1469 684 1496T706 1563ZM841 1604Q841 1551 821 1504T768 1423T691 1368T602
1348Q563 1348 530 1360T474 1396T437 1451T424 1524Q424 1578 444 1625T497 1707T573 1763T664 1783Q704 1783 737 1770T793 1733T828 1676T841 1604Z" />
<glyph unicode="&#xc6;" glyph-name="AE" horiz-adv-x="1655" d="M759 1118Q759 1129 752 1134T735 1138T714 1127T696 1101L547 735H759V1118ZM1609 304Q1604 261 1599 214T1588 124T1577 48T1568 0H624V73Q692 87 725 103T759 134V624H504L308 141Q295 112 318
97T416 73V0H0V73Q62 82 97 97T145 141L534 1103Q541 1120 537 1131T514 1152T463 1170T381 1187V1260H1506L1543 1228Q1541 1202 1538 1163T1529 1083T1516 1006T1502 950H1427Q1422 1043 1403 1091T1345 1140H1009V735H1407L1441 700Q1432 686 1421 667T1396
629T1371 594T1349 569Q1334 584 1314 594T1275 611T1242 621T1225 624H1009V184Q1009 169 1016 158T1046 138T1109 125T1216 120H1311Q1357 120 1390 131T1448 166T1494 231T1536 330L1609 304Z" />
<glyph unicode="&#xc7;" glyph-name="Ccedilla" horiz-adv-x="1143" d="M804 -229Q804 -266 777 -301T702 -365T588 -415T443 -444L406 -373Q493 -360 530 -331T568 -269Q568 -235 545 -221T478 -202L481 -198Q484 -194 492 -173T516 -108Q527 -77 543 -28Q465
-21 389 12Q294 54 220 133T100 326T55 586Q55 746 104 876T239 1098T441 1241T691 1290Q745 1290 798 1282T899 1261T986 1229T1052 1190Q1056 1187 1052 1172T1038 1136T1017 1091T991 1044T967 1003T947 977L882 991Q831 1079 766 1118T622 1158Q588 1158 552
1147T480 1111T414 1046T359 946T322 807T308 623Q308 495 341 403T428 252T548 164T681 135Q708 135 744 141T824 163T917 207T1019 279Q1024 275 1032 265T1047 244T1061 224T1071 211Q1007 146 945 100T822 25T702 -17Q684 -21 666 -23L641 -89Q719 -103 761
-137T804 -229Z" />
<glyph unicode="&#xc8;" glyph-name="Egrave" horiz-adv-x="1076" d="M1029 304Q1025 261 1020 214T1009 124T998 48T988 0H43V73Q111 87 145 103T180 134V1125Q180 1137 148 1155T43 1187V1260H924L964 1228Q962 1202 958 1163T948 1083T936 1006T923 950H848Q843
1043 823 1091T766 1140H430V735H828L861 700Q853 686 842 668T818 631T793 598T769 574Q754 589 737 599T697 616T644 626T571 629H430V184Q430 169 437 158T466 138T528 125T634 120H733Q779 120 811 131T869 166T914 231T956 330L1029 304ZM728 1420Q714 1401
700 1385T668 1360L189 1594L199 1657Q206 1665 228 1681T277 1714T328 1746T363 1767L728 1420Z" />
<glyph unicode="&#xc9;" glyph-name="Eacute" horiz-adv-x="1076" d="M1029 304Q1025 261 1020 214T1009 124T998 48T988 0H43V73Q111 87 145 103T180 134V1125Q180 1137 148 1155T43 1187V1260H924L964 1228Q962 1202 958 1163T948 1083T936 1006T923 950H848Q843
1043 823 1091T766 1140H430V735H828L861 700Q853 686 842 668T818 631T793 598T769 574Q754 589 737 599T697 616T644 626T571 629H430V184Q430 169 437 158T466 138T528 125T634 120H733Q779 120 811 131T869 166T914 231T956 330L1029 304ZM404 1360Q387 1368
369 1388T336 1427L701 1767Q724 1755 752 1739T805 1707T851 1677T879 1655L888 1603L404 1360Z" />
<glyph unicode="&#xca;" glyph-name="Ecircumflex" horiz-adv-x="1076" d="M1029 304Q1025 261 1020 214T1009 124T998 48T988 0H43V73Q111 87 145 103T180 134V1125Q180 1137 148 1155T43 1187V1260H924L964 1228Q962 1202 958 1163T948 1083T936 1006T923 950H848Q843
1043 823 1091T766 1140H430V735H828L861 700Q853 686 842 668T818 631T793 598T769 574Q754 589 737 599T697 616T644 626T571 629H430V184Q430 169 437 158T466 138T528 125T634 120H733Q779 120 811 131T869 166T914 231T956 330L1029 304ZM874 1420Q862 1401
848 1385T816 1360L535 1523L256 1360Q239 1368 225 1384T196 1420L475 1744H597L874 1420Z" />
<glyph unicode="&#xcb;" glyph-name="Edieresis" horiz-adv-x="1076" d="M1029 304Q1025 261 1020 214T1009 124T998 48T988 0H43V73Q111 87 145 103T180 134V1125Q180 1137 148 1155T43 1187V1260H924L964 1228Q962 1202 958 1163T948 1083T936 1006T923 950H848Q843
1043 823 1091T766 1140H430V735H828L861 700Q853 686 842 668T818 631T793 598T769 574Q754 589 737 599T697 616T644 626T571 629H430V184Q430 169 437 158T466 138T528 125T634 120H733Q779 120 811 131T869 166T914 231T956 330L1029 304ZM885 1548Q885 1511
873 1479T839 1423T789 1385T728 1371Q670 1371 640 1402T610 1493Q610 1530 623 1562T657 1618T707 1655T766 1669Q822 1669 853 1639T885 1548ZM462 1548Q462 1511 450 1479T416 1423T367 1385T306 1371Q248 1371 218 1402T187 1493Q187 1530 200 1562T234 1618T284
1655T343 1669Q400 1669 431 1639T462 1548Z" />
<glyph unicode="&#xcc;" glyph-name="Igrave" horiz-adv-x="670" d="M63 0V73Q131 87 165 103T200 134V1125Q200 1137 168 1155T63 1187V1260H588V1187Q520 1173 485 1156T450 1125V134Q450 122 483 105T588 73V0H63ZM517 1420Q503 1401 489 1385T457 1360L-22
1594L-12 1657Q-5 1665 17 1681T66 1714T117 1746T152 1767L517 1420Z" />
<glyph unicode="&#xcd;" glyph-name="Iacute" horiz-adv-x="670" d="M63 0V73Q131 87 165 103T200 134V1125Q200 1137 168 1155T63 1187V1260H588V1187Q520 1173 485 1156T450 1125V134Q450 122 483 105T588 73V0H63ZM193 1360Q176 1368 158 1388T125 1427L490
1767Q513 1755 541 1739T594 1707T640 1677T668 1655L677 1603L193 1360Z" />
<glyph unicode="&#xce;" glyph-name="Icircumflex" horiz-adv-x="670" d="M63 0V73Q131 87 165 103T200 134V1125Q200 1137 168 1155T63 1187V1260H588V1187Q520 1173 485 1156T450 1125V134Q450 122 483 105T588 73V0H63ZM663 1420Q651 1401 637 1385T605 1360L324
1523L45 1360Q28 1368 14 1384T-15 1420L264 1744H386L663 1420Z" />
<glyph unicode="&#xcf;" glyph-name="Idieresis" horiz-adv-x="670" d="M63 0V73Q131 87 165 103T200 134V1125Q200 1137 168 1155T63 1187V1260H588V1187Q520 1173 485 1156T450 1125V134Q450 122 483 105T588 73V0H63ZM674 1548Q674 1511 662 1479T628 1423T578
1385T517 1371Q459 1371 429 1402T399 1493Q399 1530 412 1562T446 1618T496 1655T555 1669Q611 1669 642 1639T674 1548ZM251 1548Q251 1511 239 1479T205 1423T156 1385T95 1371Q37 1371 7 1402T-24 1493Q-24 1530 -11 1562T23 1618T73 1655T132 1669Q189 1669
220 1639T251 1548Z" />
<glyph unicode="&#xd0;" glyph-name="Eth" horiz-adv-x="1304" d="M1221 676Q1221 551 1196 453T1126 279T1023 151T897 65T759 16T619 0H43V73Q111 87 145 103T180 134V615H50L28 639Q30 646 34 659T44 686T53 714T61 735H180V1157L43 1138L30 1230Q79 1242 146
1253T288 1272T438 1285T578 1290Q731 1290 851 1249T1053 1128T1178 935T1221 676ZM506 1184Q488 1184 469 1184T430 1182V735H671L696 712L660 615H430V167Q430 160 432 153Q435 142 443 134T468 119T512 110T582 107Q620 107 662 120T746 161T825 231T891 333T936
467T953 637Q953 770 924 872T839 1043T699 1148T506 1184Z" />
<glyph unicode="&#xd1;" glyph-name="Ntilde" horiz-adv-x="1359" d="M43 0V73Q116 82 148 101T180 134V1114Q115 1175 43 1187V1260H322Q337 1260 346 1258T366 1247T387 1224T418 1182L1030 334V1125Q1030 1131 1024 1139T1002 1156T960 1173T893 1187V1260H1318V1187Q1246
1177 1213 1158T1180 1125V-30Q1084 -22 1026 7T941 74L330 920V134Q330 128 337 120T360 103T403 86T468 73V0H43ZM1074 1657Q1056 1616 1030 1568T971 1477T898 1407T811 1378Q768 1378 729 1394T653 1430T580 1466T505 1483Q482 1483 464 1476T430 1454T397
1418T362 1368L287 1396Q305 1437 330 1486T389 1577T462 1648T548 1677Q594 1677 635 1661T714 1625T786 1589T852 1572Q897 1572 930 1600T997 1687L1074 1657Z" />
<glyph unicode="&#xd2;" glyph-name="Ograve" horiz-adv-x="1274" d="M946 629Q946 732 922 828T852 998T744 1116T604 1160Q532 1160 477 1125T384 1023T327 860T308 641Q308 529 334 431T406 261T512 147T642 105Q708 105 763 137T859 234T923 398T946 629ZM1198
647Q1198 556 1176 471T1115 311T1020 173T898 65T755 -5T598 -30Q472 -30 371 23T200 165T93 370T55 612Q55 748 99 871T223 1087T413 1235T656 1290Q788 1290 889 1236T1059 1091T1163 885T1198 647ZM830 1420Q816 1401 802 1385T770 1360L291 1594L301 1657Q308
1665 330 1681T379 1714T430 1746T465 1767L830 1420Z" />
<glyph unicode="&#xd3;" glyph-name="Oacute" horiz-adv-x="1274" d="M946 629Q946 732 922 828T852 998T744 1116T604 1160Q532 1160 477 1125T384 1023T327 860T308 641Q308 529 334 431T406 261T512 147T642 105Q708 105 763 137T859 234T923 398T946 629ZM1198
647Q1198 556 1176 471T1115 311T1020 173T898 65T755 -5T598 -30Q472 -30 371 23T200 165T93 370T55 612Q55 748 99 871T223 1087T413 1235T656 1290Q788 1290 889 1236T1059 1091T1163 885T1198 647ZM506 1360Q489 1368 471 1388T438 1427L803 1767Q826 1755
854 1739T907 1707T953 1677T981 1655L990 1603L506 1360Z" />
<glyph unicode="&#xd4;" glyph-name="Ocircumflex" horiz-adv-x="1274" d="M946 629Q946 732 922 828T852 998T744 1116T604 1160Q532 1160 477 1125T384 1023T327 860T308 641Q308 529 334 431T406 261T512 147T642 105Q708 105 763 137T859 234T923 398T946
629ZM1198 647Q1198 556 1176 471T1115 311T1020 173T898 65T755 -5T598 -30Q472 -30 371 23T200 165T93 370T55 612Q55 748 99 871T223 1087T413 1235T656 1290Q788 1290 889 1236T1059 1091T1163 885T1198 647ZM976 1420Q964 1401 950 1385T918 1360L637 1523L358
1360Q341 1368 327 1384T298 1420L577 1744H699L976 1420Z" />
<glyph unicode="&#xd5;" glyph-name="Otilde" horiz-adv-x="1274" d="M946 629Q946 732 922 828T852 998T744 1116T604 1160Q532 1160 477 1125T384 1023T327 860T308 641Q308 529 334 431T406 261T512 147T642 105Q708 105 763 137T859 234T923 398T946 629ZM1198
647Q1198 556 1176 471T1115 311T1020 173T898 65T755 -5T598 -30Q472 -30 371 23T200 165T93 370T55 612Q55 748 99 871T223 1087T413 1235T656 1290Q788 1290 889 1236T1059 1091T1163 885T1198 647ZM1032 1657Q1014 1616 988 1568T929 1477T856 1407T769 1378Q726
1378 687 1394T611 1430T538 1466T463 1483Q440 1483 422 1476T388 1454T355 1418T320 1368L245 1396Q263 1437 288 1486T347 1577T420 1648T506 1677Q552 1677 593 1661T672 1625T744 1589T810 1572Q855 1572 888 1600T955 1687L1032 1657Z" />
<glyph unicode="&#xd6;" glyph-name="Odieresis" horiz-adv-x="1274" d="M946 629Q946 732 922 828T852 998T744 1116T604 1160Q532 1160 477 1125T384 1023T327 860T308 641Q308 529 334 431T406 261T512 147T642 105Q708 105 763 137T859 234T923 398T946 629ZM1198
647Q1198 556 1176 471T1115 311T1020 173T898 65T755 -5T598 -30Q472 -30 371 23T200 165T93 370T55 612Q55 748 99 871T223 1087T413 1235T656 1290Q788 1290 889 1236T1059 1091T1163 885T1198 647ZM987 1548Q987 1511 975 1479T941 1423T891 1385T830 1371Q772
1371 742 1402T712 1493Q712 1530 725 1562T759 1618T809 1655T868 1669Q924 1669 955 1639T987 1548ZM564 1548Q564 1511 552 1479T518 1423T469 1385T408 1371Q350 1371 320 1402T289 1493Q289 1530 302 1562T336 1618T386 1655T445 1669Q502 1669 533 1639T564
1548Z" />
<glyph unicode="&#xd7;" glyph-name="multiply" horiz-adv-x="863" d="M83 315L330 563L84 810V844Q94 848 110 855T143 869T177 881T205 890L431 664L656 890Q667 887 684 882T719 869T753 855T779 844V810L532 562L779 315V281Q769 277 752 270T717 256T683
243T658 235L431 462L205 235Q196 237 180 243T145 256T110 270T83 281V315Z" />
<glyph unicode="&#xd8;" glyph-name="Oslash" horiz-adv-x="1274" d="M946 629Q946 697 935 761T904 885L427 230Q471 171 525 138T642 105Q708 105 763 137T859 234T923 398T946 629ZM308 641Q308 569 319 503T351 378L828 1033Q784 1092 728 1126T604 1160Q532
1160 477 1125T384 1023T327 860T308 641ZM1056 1094Q1126 1003 1162 887T1198 647Q1198 556 1176 471T1115 311T1020 173T898 65T755 -5T598 -30Q513 -30 440 -6T306 63L259 -2Q250 -10 228 -18T181 -33T132 -46T96 -53L64 -16L198 168Q129 257 92 371T55 612Q55
748 99 871T223 1087T413 1235T656 1290Q743 1290 815 1266T948 1199L996 1264Q1010 1272 1031 1280T1075 1295T1120 1306T1157 1313L1189 1276L1056 1094Z" />
<glyph unicode="&#xd9;" glyph-name="Ugrave" horiz-adv-x="1369" d="M1313 1187Q1245 1173 1210 1156T1175 1125V524Q1175 393 1139 290T1036 116T880 8T681 -30Q578 -30 487 -2T328 85T220 233T180 444V1125Q180 1137 148 1155T43 1187V1260H568V1187Q500 1173
465 1156T430 1125V509Q430 413 447 340T501 216T597 141T743 115Q814 115 863 147T942 232T986 354T1000 498V1125Q1000 1137 968 1155T863 1187V1260H1313V1187ZM884 1420Q870 1401 856 1385T824 1360L345 1594L355 1657Q362 1665 384 1681T433 1714T484 1746T519
1767L884 1420Z" />
<glyph unicode="&#xda;" glyph-name="Uacute" horiz-adv-x="1369" d="M1313 1187Q1245 1173 1210 1156T1175 1125V524Q1175 393 1139 290T1036 116T880 8T681 -30Q578 -30 487 -2T328 85T220 233T180 444V1125Q180 1137 148 1155T43 1187V1260H568V1187Q500 1173
465 1156T430 1125V509Q430 413 447 340T501 216T597 141T743 115Q814 115 863 147T942 232T986 354T1000 498V1125Q1000 1137 968 1155T863 1187V1260H1313V1187ZM560 1360Q543 1368 525 1388T492 1427L857 1767Q880 1755 908 1739T961 1707T1007 1677T1035 1655L1044
1603L560 1360Z" />
<glyph unicode="&#xdb;" glyph-name="Ucircumflex" horiz-adv-x="1369" d="M1313 1187Q1245 1173 1210 1156T1175 1125V524Q1175 393 1139 290T1036 116T880 8T681 -30Q578 -30 487 -2T328 85T220 233T180 444V1125Q180 1137 148 1155T43 1187V1260H568V1187Q500
1173 465 1156T430 1125V509Q430 413 447 340T501 216T597 141T743 115Q814 115 863 147T942 232T986 354T1000 498V1125Q1000 1137 968 1155T863 1187V1260H1313V1187ZM1030 1420Q1018 1401 1004 1385T972 1360L691 1523L412 1360Q395 1368 381 1384T352 1420L631
1744H753L1030 1420Z" />
<glyph unicode="&#xdc;" glyph-name="Udieresis" horiz-adv-x="1369" d="M1313 1187Q1245 1173 1210 1156T1175 1125V524Q1175 393 1139 290T1036 116T880 8T681 -30Q578 -30 487 -2T328 85T220 233T180 444V1125Q180 1137 148 1155T43 1187V1260H568V1187Q500
1173 465 1156T430 1125V509Q430 413 447 340T501 216T597 141T743 115Q814 115 863 147T942 232T986 354T1000 498V1125Q1000 1137 968 1155T863 1187V1260H1313V1187ZM1041 1548Q1041 1511 1029 1479T995 1423T945 1385T884 1371Q826 1371 796 1402T766 1493Q766
1530 779 1562T813 1618T863 1655T922 1669Q978 1669 1009 1639T1041 1548ZM618 1548Q618 1511 606 1479T572 1423T523 1385T462 1371Q404 1371 374 1402T343 1493Q343 1530 356 1562T390 1618T440 1655T499 1669Q556 1669 587 1639T618 1548Z" />
<glyph unicode="&#xdd;" glyph-name="Yacute" horiz-adv-x="1255" d="M345 0V73Q390 82 420 92T469 111T494 129T502 145V529Q466 609 421 694T330 858T240 1006T161 1121Q152 1132 142 1141T115 1156T72 1165T4 1169L0 1242Q29 1246 66 1251T141 1260T210 1267T264
1270Q292 1270 320 1258T365 1224Q402 1174 442 1110T524 974T605 827T680 679L914 1121Q929 1147 905 1162T803 1187V1260H1221V1187Q1153 1174 1120 1160T1073 1121L752 523V145Q752 139 759 131T784 112T832 92T910 73V0H345ZM495 1360Q478 1368 460 1388T427
1427L792 1767Q815 1755 843 1739T896 1707T942 1677T970 1655L979 1603L495 1360Z" />
<glyph unicode="&#xde;" glyph-name="Thorn" horiz-adv-x="1161" d="M42 0V73Q110 87 145 103T180 134V1125Q180 1137 147 1155T42 1187V1260H598V1187Q547 1178 514 1170T463 1155T437 1140T430 1125V1023Q465 1025 500 1026T570 1028Q686 1028 781 1005T945
937T1050 826T1087 674Q1087 605 1068 547T1017 443T942 362T852 304T756 270T663 258Q617 258 573 265T495 288L464 392Q505 373 536 368T603 363Q646 363 688 378T762 427T815 511T835 633Q835 704 812 757T746 847T644 901T513 920Q473 920 430 917V134Q430
128 436 121T461 106T513 90T598 73V0H42Z" />
<glyph unicode="&#xdf;" glyph-name="germandbls" horiz-adv-x="1288" d="M1236 283Q1236 219 1212 162T1138 63T1015 -5T842 -30Q801 -30 754 -22T666 -3T595 21T558 44Q553 50 551 72T547 125T547 189T550 253T557 306T566 336L646 324Q657 266 679 223T732
151T799 108T873 93Q939 93 977 122T1016 210Q1016 257 997 292T945 356T871 407T787 453T703 501T630 558T578 631T558 729Q558 791 582 831T642 898T720 946T799 990T859 1043T883 1122Q883 1184 865 1235T814 1324T732 1382T625 1403Q582 1403 545 1387T480
1326T436 1203T420 1001V0H48V73Q116 85 148 102T180 132V946Q180 1066 203 1151T262 1295T341 1393T423 1458Q481 1497 559 1523T721 1550Q816 1550 891 1518T1018 1434T1097 1318T1125 1190Q1125 1108 1100 1056T1036 971T953 917T870 877T807 834T781 770Q781
724 814 692T899 633T1008 577T1118 510T1202 417T1236 283Z" />
<glyph unicode="&#xe0;" glyph-name="agrave" horiz-adv-x="1023" d="M412 145Q431 145 452 149T498 165T554 197T623 250V471Q563 461 522 452T453 432T408 411T377 387Q351 361 335 331T319 259Q319 225 328 203T352 168T383 150T412 145ZM1016 112Q974 83 929
57T843 12T769 -19T717 -30Q680 -30 655 12T624 129Q579 84 534 54T446 5T364 -22T293 -30Q251 -30 211 -16T138 27T85 99T65 201Q65 269 89 316T151 401Q175 425 206 447T290 491T422 531T623 569V687Q623 718 617 744T596 790T556 819T493 830Q469 830 445 821T403
796T375 756T367 702Q368 696 351 687T308 669T251 650T190 634T138 624T107 622L86 676Q110 736 161 787T282 877T432 938T597 960Q666 960 716 942T798 892T847 815T863 720V238Q863 196 874 178T903 160Q910 160 917 161T935 165T960 173T994 187L1016 112ZM676
1086Q670 1080 659 1073T636 1060T611 1048T590 1040L208 1417L237 1473Q247 1476 278 1482T345 1494T413 1506T458 1512L676 1086Z" />
<glyph unicode="&#xe1;" glyph-name="aacute" horiz-adv-x="1023" d="M412 145Q431 145 452 149T498 165T554 197T623 250V471Q563 461 522 452T453 432T408 411T377 387Q351 361 335 331T319 259Q319 225 328 203T352 168T383 150T412 145ZM1016 112Q974 83 929
57T843 12T769 -19T717 -30Q680 -30 655 12T624 129Q579 84 534 54T446 5T364 -22T293 -30Q251 -30 211 -16T138 27T85 99T65 201Q65 269 89 316T151 401Q175 425 206 447T290 491T422 531T623 569V687Q623 718 617 744T596 790T556 819T493 830Q469 830 445 821T403
796T375 756T367 702Q368 696 351 687T308 669T251 650T190 634T138 624T107 622L86 676Q110 736 161 787T282 877T432 938T597 960Q666 960 716 942T798 892T847 815T863 720V238Q863 196 874 178T903 160Q910 160 917 161T935 165T960 173T994 187L1016 112ZM455
1040Q446 1041 434 1046T408 1058T385 1071T368 1083L579 1512Q591 1511 623 1507T693 1496T763 1484T807 1474L837 1420L455 1040Z" />
<glyph unicode="&#xe2;" glyph-name="acircumflex" horiz-adv-x="1023" d="M412 145Q431 145 452 149T498 165T554 197T623 250V471Q563 461 522 452T453 432T408 411T377 387Q351 361 335 331T319 259Q319 225 328 203T352 168T383 150T412 145ZM1016 112Q974
83 929 57T843 12T769 -19T717 -30Q680 -30 655 12T624 129Q579 84 534 54T446 5T364 -22T293 -30Q251 -30 211 -16T138 27T85 99T65 201Q65 269 89 316T151 401Q175 425 206 447T290 491T422 531T623 569V687Q623 718 617 744T596 790T556 819T493 830Q469 830
445 821T403 796T375 756T367 702Q368 696 351 687T308 669T251 650T190 634T138 624T107 622L86 676Q110 736 161 787T282 877T432 938T597 960Q666 960 716 942T798 892T847 815T863 720V238Q863 196 874 178T903 160Q910 160 917 161T935 165T960 173T994 187L1016
112ZM854 1107Q842 1088 828 1068T796 1040L515 1263L236 1040Q219 1048 201 1068T169 1107L448 1494H585L854 1107Z" />
<glyph unicode="&#xe3;" glyph-name="atilde" horiz-adv-x="1023" d="M412 145Q431 145 452 149T498 165T554 197T623 250V471Q563 461 522 452T453 432T408 411T377 387Q351 361 335 331T319 259Q319 225 328 203T352 168T383 150T412 145ZM1016 112Q974 83 929
57T843 12T769 -19T717 -30Q680 -30 655 12T624 129Q579 84 534 54T446 5T364 -22T293 -30Q251 -30 211 -16T138 27T85 99T65 201Q65 269 89 316T151 401Q175 425 206 447T290 491T422 531T623 569V687Q623 718 617 744T596 790T556 819T493 830Q469 830 445 821T403
796T375 756T367 702Q368 696 351 687T308 669T251 650T190 634T138 624T107 622L86 676Q110 736 161 787T282 877T432 938T597 960Q666 960 716 942T798 892T847 815T863 720V238Q863 196 874 178T903 160Q910 160 917 161T935 165T960 173T994 187L1016 112ZM909
1377Q891 1336 865 1288T806 1197T733 1127T646 1098Q603 1098 564 1114T488 1150T415 1186T340 1203Q317 1203 299 1196T265 1174T232 1138T197 1088L122 1116Q140 1157 165 1206T224 1297T297 1368T383 1397Q429 1397 470 1381T549 1345T621 1309T687 1292Q732
1292 765 1320T832 1407L909 1377Z" />
<glyph unicode="&#xe4;" glyph-name="adieresis" horiz-adv-x="1023" d="M412 145Q431 145 452 149T498 165T554 197T623 250V471Q563 461 522 452T453 432T408 411T377 387Q351 361 335 331T319 259Q319 225 328 203T352 168T383 150T412 145ZM1016 112Q974 83
929 57T843 12T769 -19T717 -30Q680 -30 655 12T624 129Q579 84 534 54T446 5T364 -22T293 -30Q251 -30 211 -16T138 27T85 99T65 201Q65 269 89 316T151 401Q175 425 206 447T290 491T422 531T623 569V687Q623 718 617 744T596 790T556 819T493 830Q469 830 445
821T403 796T375 756T367 702Q368 696 351 687T308 669T251 650T190 634T138 624T107 622L86 676Q110 736 161 787T282 877T432 938T597 960Q666 960 716 942T798 892T847 815T863 720V238Q863 196 874 178T903 160Q910 160 917 161T935 165T960 173T994 187L1016
112ZM864 1268Q864 1231 852 1199T818 1143T768 1105T707 1091Q649 1091 619 1122T589 1213Q589 1250 602 1282T636 1338T686 1375T745 1389Q801 1389 832 1359T864 1268ZM441 1268Q441 1231 429 1199T395 1143T346 1105T285 1091Q227 1091 197 1122T166 1213Q166
1250 179 1282T213 1338T263 1375T322 1389Q379 1389 410 1359T441 1268Z" />
<glyph unicode="&#xe5;" glyph-name="aring" horiz-adv-x="1023" d="M412 145Q431 145 452 149T498 165T554 197T623 250V471Q563 461 522 452T453 432T408 411T377 387Q351 361 335 331T319 259Q319 225 328 203T352 168T383 150T412 145ZM1016 112Q974 83 929
57T843 12T769 -19T717 -30Q680 -30 655 12T624 129Q579 84 534 54T446 5T364 -22T293 -30Q251 -30 211 -16T138 27T85 99T65 201Q65 269 89 316T151 401Q175 425 206 447T290 491T422 531T623 569V687Q623 718 617 744T596 790T556 819T493 830Q469 830 445 821T403
796T375 756T367 702Q368 696 351 687T308 669T251 650T190 634T138 624T107 622L86 676Q110 736 161 787T282 877T432 938T597 960Q666 960 716 942T798 892T847 815T863 720V238Q863 196 874 178T903 160Q910 160 917 161T935 165T960 173T994 187L1016 112ZM588
1243Q588 1291 568 1316T525 1342Q504 1342 489 1334T463 1312T447 1281T441 1245Q441 1199 461 1174T505 1149Q545 1149 566 1176T588 1243ZM723 1284Q723 1231 703 1184T650 1103T573 1048T484 1028Q445 1028 412 1040T356 1076T319 1131T306 1204Q306 1258 326
1305T379 1387T455 1443T546 1463Q586 1463 619 1450T675 1413T710 1356T723 1284Z" />
<glyph unicode="&#xe6;" glyph-name="ae" horiz-adv-x="1501" d="M1436 550Q1426 540 1410 528T1376 505T1338 483T1302 467H858Q857 463 857 454V441Q857 394 872 342T916 244T990 170T1092 140Q1123 140 1154 145T1218 164T1290 201T1376 259Q1382 256 1390
247T1406 228T1420 208T1428 195Q1368 129 1318 86T1218 17T1118 -19T1006 -30Q963 -30 917 -16T828 26T746 92T680 181Q635 125 586 85T488 20T389 -18T293 -30Q257 -30 217 -18T143 21T87 93T65 201Q65 260 87 314T157 414T279 496T456 558Q483 565 532 569T632
576V655Q632 745 601 787T505 830Q479 830 451 820T400 792T366 749T363 691Q364 684 348 675T307 657T250 638T189 623T138 613T107 612L86 663Q106 716 141 758T221 834T315 890T414 929T508 952T588 960Q663 960 718 936T807 856Q840 885 875 905T945 937T1015
954T1079 960Q1167 960 1234 926T1346 834T1413 703T1436 550ZM645 264Q639 287 636 312T632 365V463Q597 461 567 460T526 456Q463 442 422 421T356 373T322 318T312 259Q312 228 321 206T346 171T378 151T412 145Q435 145 462 151T518 171T580 207T645 264ZM1050
845Q1027 845 999 837T945 800T897 720T865 580H1172Q1193 580 1201 587T1210 616Q1210 669 1199 711T1166 783T1116 829T1050 845Z" />
<glyph unicode="&#xe7;" glyph-name="ccedilla" horiz-adv-x="933" d="M710 -229Q710 -266 683 -301T608 -365T494 -415T349 -444L312 -373Q399 -360 436 -331T474 -269Q474 -235 451 -221T384 -202L387 -198Q390 -194 398 -173T422 -108Q433 -78 449 -29Q384
-23 324 2Q249 35 192 96T100 245T65 444Q65 552 105 646T216 809T387 919T605 960Q638 960 679 955T761 939T834 914T885 881Q886 873 883 853T873 807T857 752T839 697T821 650T806 620L739 630Q706 728 658 781T530 835Q486 835 446 815T374 752T324 640T305
475Q305 395 325 333T381 227T465 161T567 138Q595 138 621 141T678 157T747 192T839 254L893 190Q828 116 773 73T669 6T573 -23H572L547 -89Q625 -103 667 -137T710 -229Z" />
<glyph unicode="&#xe8;" glyph-name="egrave" horiz-adv-x="991" d="M511 840Q464 840 430 822T373 770T336 688T316 580H649Q672 580 679 587T687 616Q687 646 679 684T651 757T596 816T511 840ZM926 550Q917 540 900 528T863 505T823 484T786 468H313Q315 396
332 336T382 231T459 163T564 138Q595 138 624 141T688 158T766 194T868 259Q874 256 882 247T898 228T912 208T920 195Q851 125 796 81T691 13T590 -21T480 -30Q395 -30 320 4T188 100T98 249T65 442Q65 578 116 684T271 866Q297 885 329 902T397 932T471 952T547
960Q645 960 716 926T834 836T903 705T926 550ZM697 1086Q691 1080 680 1073T657 1060T632 1048T611 1040L229 1417L258 1473Q268 1476 299 1482T366 1494T434 1506T479 1512L697 1086Z" />
<glyph unicode="&#xe9;" glyph-name="eacute" horiz-adv-x="991" d="M511 840Q464 840 430 822T373 770T336 688T316 580H649Q672 580 679 587T687 616Q687 646 679 684T651 757T596 816T511 840ZM926 550Q917 540 900 528T863 505T823 484T786 468H313Q315 396
332 336T382 231T459 163T564 138Q595 138 624 141T688 158T766 194T868 259Q874 256 882 247T898 228T912 208T920 195Q851 125 796 81T691 13T590 -21T480 -30Q395 -30 320 4T188 100T98 249T65 442Q65 578 116 684T271 866Q297 885 329 902T397 932T471 952T547
960Q645 960 716 926T834 836T903 705T926 550ZM476 1040Q467 1041 455 1046T429 1058T406 1071T389 1083L600 1512Q612 1511 644 1507T714 1496T784 1484T828 1474L858 1420L476 1040Z" />
<glyph unicode="&#xea;" glyph-name="ecircumflex" horiz-adv-x="991" d="M511 840Q464 840 430 822T373 770T336 688T316 580H649Q672 580 679 587T687 616Q687 646 679 684T651 757T596 816T511 840ZM926 550Q917 540 900 528T863 505T823 484T786 468H313Q315
396 332 336T382 231T459 163T564 138Q595 138 624 141T688 158T766 194T868 259Q874 256 882 247T898 228T912 208T920 195Q851 125 796 81T691 13T590 -21T480 -30Q395 -30 320 4T188 100T98 249T65 442Q65 578 116 684T271 866Q297 885 329 902T397 932T471
952T547 960Q645 960 716 926T834 836T903 705T926 550ZM875 1107Q863 1088 849 1068T817 1040L536 1263L257 1040Q240 1048 222 1068T190 1107L469 1494H606L875 1107Z" />
<glyph unicode="&#xeb;" glyph-name="edieresis" horiz-adv-x="991" d="M511 840Q464 840 430 822T373 770T336 688T316 580H649Q672 580 679 587T687 616Q687 646 679 684T651 757T596 816T511 840ZM926 550Q917 540 900 528T863 505T823 484T786 468H313Q315
396 332 336T382 231T459 163T564 138Q595 138 624 141T688 158T766 194T868 259Q874 256 882 247T898 228T912 208T920 195Q851 125 796 81T691 13T590 -21T480 -30Q395 -30 320 4T188 100T98 249T65 442Q65 578 116 684T271 866Q297 885 329 902T397 932T471
952T547 960Q645 960 716 926T834 836T903 705T926 550ZM885 1268Q885 1231 873 1199T839 1143T789 1105T728 1091Q670 1091 640 1122T610 1213Q610 1250 623 1282T657 1338T707 1375T766 1389Q822 1389 853 1359T885 1268ZM462 1268Q462 1231 450 1199T416 1143T367
1105T306 1091Q248 1091 218 1122T187 1213Q187 1250 200 1282T234 1338T284 1375T343 1389Q400 1389 431 1359T462 1268Z" />
<glyph unicode="&#xec;" glyph-name="igrave" horiz-adv-x="615" d="M63 0V73Q131 87 163 103T195 134V648Q195 699 194 730T182 779T143 805T63 818V888Q149 900 226 917T371 960H435V134Q435 122 465 105T568 73V0H63ZM476 1086Q470 1080 459 1073T436 1060T411
1048T390 1040L8 1417L37 1473Q47 1476 78 1482T145 1494T213 1506T258 1512L476 1086Z" />
<glyph unicode="&#xed;" glyph-name="iacute" horiz-adv-x="615" d="M63 0V73Q131 87 163 103T195 134V648Q195 699 194 730T182 779T143 805T63 818V888Q149 900 226 917T371 960H435V134Q435 122 465 105T568 73V0H63ZM255 1040Q246 1041 234 1046T208 1058T185
1071T168 1083L379 1512Q391 1511 423 1507T493 1496T563 1484T607 1474L637 1420L255 1040Z" />
<glyph unicode="&#xee;" glyph-name="icircumflex" horiz-adv-x="615" d="M63 0V73Q131 87 163 103T195 134V648Q195 699 194 730T182 779T143 805T63 818V888Q149 900 226 917T371 960H435V134Q435 122 465 105T568 73V0H63ZM654 1107Q642 1088 628 1068T596
1040L315 1263L36 1040Q19 1048 1 1068T-31 1107L248 1494H385L654 1107Z" />
<glyph unicode="&#xef;" glyph-name="idieresis" horiz-adv-x="615" d="M63 0V73Q131 87 163 103T195 134V648Q195 699 194 730T182 779T143 805T63 818V888Q149 900 226 917T371 960H435V134Q435 122 465 105T568 73V0H63ZM664 1268Q664 1231 652 1199T618 1143T568
1105T507 1091Q449 1091 419 1122T389 1213Q389 1250 402 1282T436 1338T486 1375T545 1389Q601 1389 632 1359T664 1268ZM241 1268Q241 1231 229 1199T195 1143T146 1105T85 1091Q27 1091 -3 1122T-34 1213Q-34 1250 -21 1282T13 1338T63 1375T122 1389Q179 1389
210 1359T241 1268Z" />
<glyph unicode="&#xf0;" glyph-name="eth" horiz-adv-x="1046" d="M740 612Q724 666 696 706T632 774T560 814T490 828Q400 828 355 738T310 488Q310 409 328 338T376 212T446 127T529 95Q584 95 624 122T689 207T727 354T740 566V612ZM980 607Q980 492 958 400T899
237T815 116T716 33T613 -15T519 -30Q413 -30 329 6T186 105T96 255T65 444Q65 510 80 574T123 695T190 801T279 885T385 940T506 960Q567 960 620 937T714 870Q694 948 660 1013T565 1147L354 1060Q335 1061 320 1062T290 1064T261 1069T229 1078L218 1122L480
1232Q424 1273 352 1295T192 1305L180 1376L448 1470Q475 1452 503 1432T559 1391T612 1350T659 1310L846 1387Q893 1382 921 1378T975 1365L982 1323L743 1224Q872 1080 926 925T980 607Z" />
<glyph unicode="&#xf1;" glyph-name="ntilde" horiz-adv-x="1190" d="M663 0V73Q735 92 765 106T795 134V588Q795 643 790 679T772 738T740 769T690 778Q666 778 639 772T580 750T508 707T420 639V134Q420 119 454 103T553 73V0H48V73Q114 90 147 103T180 134V689Q180
728 179 751T165 787T126 806T48 818V888Q96 893 137 900T217 915T291 935T363 960L405 918L416 774Q533 874 634 917T814 960Q857 960 897 947T967 903T1016 823T1035 704V134Q1035 127 1041 121T1062 107T1103 92T1168 73V0H663ZM1001 1377Q983 1336 957 1288T898
1197T825 1127T738 1098Q695 1098 656 1114T580 1150T507 1186T432 1203Q409 1203 391 1196T357 1174T324 1138T289 1088L214 1116Q232 1157 257 1206T316 1297T389 1368T475 1397Q521 1397 562 1381T641 1345T713 1309T779 1292Q824 1292 857 1320T924 1407L1001
1377Z" />
<glyph unicode="&#xf2;" glyph-name="ograve" horiz-adv-x="1075" d="M758 440Q758 519 742 590T695 716T623 803T529 835Q467 835 426 808T361 732T328 617T318 473Q318 394 336 325T386 205T459 125T547 95Q607 95 647 118T712 185T747 293T758 440ZM1010 485Q1010
418 992 354T942 233T864 128T765 44T648 -10T519 -30Q416 -30 332 6T189 105T98 255T65 444Q65 543 101 636T203 801T359 916T558 960Q660 960 743 924T886 825T978 674T1010 485ZM720 1086Q714 1080 703 1073T680 1060T655 1048T634 1040L252 1417L281 1473Q291
1476 322 1482T389 1494T457 1506T502 1512L720 1086Z" />
<glyph unicode="&#xf3;" glyph-name="oacute" horiz-adv-x="1075" d="M758 440Q758 519 742 590T695 716T623 803T529 835Q467 835 426 808T361 732T328 617T318 473Q318 394 336 325T386 205T459 125T547 95Q607 95 647 118T712 185T747 293T758 440ZM1010 485Q1010
418 992 354T942 233T864 128T765 44T648 -10T519 -30Q416 -30 332 6T189 105T98 255T65 444Q65 543 101 636T203 801T359 916T558 960Q660 960 743 924T886 825T978 674T1010 485ZM499 1040Q490 1041 478 1046T452 1058T429 1071T412 1083L623 1512Q635 1511 667
1507T737 1496T807 1484T851 1474L881 1420L499 1040Z" />
<glyph unicode="&#xf4;" glyph-name="ocircumflex" horiz-adv-x="1075" d="M758 440Q758 519 742 590T695 716T623 803T529 835Q467 835 426 808T361 732T328 617T318 473Q318 394 336 325T386 205T459 125T547 95Q607 95 647 118T712 185T747 293T758 440ZM1010
485Q1010 418 992 354T942 233T864 128T765 44T648 -10T519 -30Q416 -30 332 6T189 105T98 255T65 444Q65 543 101 636T203 801T359 916T558 960Q660 960 743 924T886 825T978 674T1010 485ZM898 1107Q886 1088 872 1068T840 1040L559 1263L280 1040Q263 1048 245
1068T213 1107L492 1494H629L898 1107Z" />
<glyph unicode="&#xf5;" glyph-name="otilde" horiz-adv-x="1075" d="M758 440Q758 519 742 590T695 716T623 803T529 835Q467 835 426 808T361 732T328 617T318 473Q318 394 336 325T386 205T459 125T547 95Q607 95 647 118T712 185T747 293T758 440ZM1010 485Q1010
418 992 354T942 233T864 128T765 44T648 -10T519 -30Q416 -30 332 6T189 105T98 255T65 444Q65 543 101 636T203 801T359 916T558 960Q660 960 743 924T886 825T978 674T1010 485ZM953 1377Q935 1336 909 1288T850 1197T777 1127T690 1098Q647 1098 608 1114T532
1150T459 1186T384 1203Q361 1203 343 1196T309 1174T276 1138T241 1088L166 1116Q184 1157 209 1206T268 1297T341 1368T427 1397Q473 1397 514 1381T593 1345T665 1309T731 1292Q776 1292 809 1320T876 1407L953 1377Z" />
<glyph unicode="&#xf6;" glyph-name="odieresis" horiz-adv-x="1075" d="M758 440Q758 519 742 590T695 716T623 803T529 835Q467 835 426 808T361 732T328 617T318 473Q318 394 336 325T386 205T459 125T547 95Q607 95 647 118T712 185T747 293T758 440ZM1010
485Q1010 418 992 354T942 233T864 128T765 44T648 -10T519 -30Q416 -30 332 6T189 105T98 255T65 444Q65 543 101 636T203 801T359 916T558 960Q660 960 743 924T886 825T978 674T1010 485ZM908 1268Q908 1231 896 1199T862 1143T812 1105T751 1091Q693 1091 663
1122T633 1213Q633 1250 646 1282T680 1338T730 1375T789 1389Q845 1389 876 1359T908 1268ZM485 1268Q485 1231 473 1199T439 1143T390 1105T329 1091Q271 1091 241 1122T210 1213Q210 1250 223 1282T257 1338T307 1375T366 1389Q423 1389 454 1359T485 1268Z"
/>
<glyph unicode="&#xf7;" glyph-name="divide" horiz-adv-x="863" d="M538 324Q538 295 529 270T504 225T465 194T418 182Q372 182 352 208T331 283Q331 312 340 337T366 382T404 412T451 423Q538 423 538 324ZM538 845Q538 816 529 791T504 746T465 715T418 703Q372
703 352 729T331 803Q331 832 340 857T366 902T404 932T451 943Q538 943 538 845ZM810 603Q807 592 801 577T788 545T775 514T764 491H85L53 522Q56 533 61 548T74 579T87 609T99 634H777L810 603Z" />
<glyph unicode="&#xf8;" glyph-name="oslash" horiz-adv-x="1075" d="M760 440Q760 484 752 531T732 616L397 186Q428 147 467 121T547 95Q607 95 647 118T713 185T749 293T760 440ZM316 473Q316 432 323 389T341 311L678 746Q649 785 610 810T529 835Q467 835
426 808T361 732T326 617T316 473ZM997 952L893 818Q947 755 978 669T1010 485Q1010 418 992 354T942 233T864 128T765 44T648 -10T519 -30Q452 -30 390 -13T278 33L264 14Q255 6 235 -4T192 -23T145 -41T107 -53L81 -22L184 111Q130 174 98 260T65 444Q65 543
101 636T203 801T359 916T558 960Q624 960 685 943T795 897L810 915Q823 924 843 934T884 954T928 971T967 983L997 952Z" />
<glyph unicode="&#xf9;" glyph-name="ugrave" horiz-adv-x="1153" d="M1144 112Q1107 88 1063 63T977 17T903 -17T858 -30Q840 -30 824 -24T793 1T767 52T750 136Q688 82 639 50T549 -1T474 -24T408 -30Q361 -30 316 -17T235 30T177 125T155 279V689Q155 737 154
763T141 803T105 822T34 832V902Q84 906 125 911T205 922T280 938T360 960L395 914V342Q395 280 402 241T425 181T461 151T511 143Q532 143 556 148T610 166T674 203T750 262V689Q750 734 747 761T730 803T691 824T618 832V902Q718 911 799 926T953 960L990 914V284Q990
253 991 233T994 199T1001 177T1013 164Q1025 156 1046 160T1119 187L1144 112ZM738 1086Q732 1080 721 1073T698 1060T673 1048T652 1040L270 1417L299 1473Q309 1476 340 1482T407 1494T475 1506T520 1512L738 1086Z" />
<glyph unicode="&#xfa;" glyph-name="uacute" horiz-adv-x="1153" d="M1144 112Q1107 88 1063 63T977 17T903 -17T858 -30Q840 -30 824 -24T793 1T767 52T750 136Q688 82 639 50T549 -1T474 -24T408 -30Q361 -30 316 -17T235 30T177 125T155 279V689Q155 737 154
763T141 803T105 822T34 832V902Q84 906 125 911T205 922T280 938T360 960L395 914V342Q395 280 402 241T425 181T461 151T511 143Q532 143 556 148T610 166T674 203T750 262V689Q750 734 747 761T730 803T691 824T618 832V902Q718 911 799 926T953 960L990 914V284Q990
253 991 233T994 199T1001 177T1013 164Q1025 156 1046 160T1119 187L1144 112ZM517 1040Q508 1041 496 1046T470 1058T447 1071T430 1083L641 1512Q653 1511 685 1507T755 1496T825 1484T869 1474L899 1420L517 1040Z" />
<glyph unicode="&#xfb;" glyph-name="ucircumflex" horiz-adv-x="1153" d="M1144 112Q1107 88 1063 63T977 17T903 -17T858 -30Q840 -30 824 -24T793 1T767 52T750 136Q688 82 639 50T549 -1T474 -24T408 -30Q361 -30 316 -17T235 30T177 125T155 279V689Q155
737 154 763T141 803T105 822T34 832V902Q84 906 125 911T205 922T280 938T360 960L395 914V342Q395 280 402 241T425 181T461 151T511 143Q532 143 556 148T610 166T674 203T750 262V689Q750 734 747 761T730 803T691 824T618 832V902Q718 911 799 926T953 960L990
914V284Q990 253 991 233T994 199T1001 177T1013 164Q1025 156 1046 160T1119 187L1144 112ZM916 1107Q904 1088 890 1068T858 1040L577 1263L298 1040Q281 1048 263 1068T231 1107L510 1494H647L916 1107Z" />
<glyph unicode="&#xfc;" glyph-name="udieresis" horiz-adv-x="1153" d="M1144 112Q1107 88 1063 63T977 17T903 -17T858 -30Q840 -30 824 -24T793 1T767 52T750 136Q688 82 639 50T549 -1T474 -24T408 -30Q361 -30 316 -17T235 30T177 125T155 279V689Q155 737
154 763T141 803T105 822T34 832V902Q84 906 125 911T205 922T280 938T360 960L395 914V342Q395 280 402 241T425 181T461 151T511 143Q532 143 556 148T610 166T674 203T750 262V689Q750 734 747 761T730 803T691 824T618 832V902Q718 911 799 926T953 960L990
914V284Q990 253 991 233T994 199T1001 177T1013 164Q1025 156 1046 160T1119 187L1144 112ZM926 1268Q926 1231 914 1199T880 1143T830 1105T769 1091Q711 1091 681 1122T651 1213Q651 1250 664 1282T698 1338T748 1375T807 1389Q863 1389 894 1359T926 1268ZM503
1268Q503 1231 491 1199T457 1143T408 1105T347 1091Q289 1091 259 1122T228 1213Q228 1250 241 1282T275 1338T325 1375T384 1389Q441 1389 472 1359T503 1268Z" />
<glyph unicode="&#xfd;" glyph-name="yacute" horiz-adv-x="1040" d="M1027 857Q997 850 978 844T947 831T929 814T917 789L583 -75Q540 -185 490 -264T384 -394T267 -469T142 -493Q104 -493 67 -486T2 -469T-44 -446T-62 -425Q-62 -416 -45 -391T-5 -336T44 -281T85
-245Q135 -277 185 -284T273 -278Q310 -265 352 -222T430 -92L459 -23L124 789Q113 816 88 831T13 857V930H466V857Q427 852 406 847T376 834T368 816T376 789L582 287L778 789Q784 804 785 814T780 832T753 845T700 857V930H1027V857ZM484 1040Q475 1041 463 1046T437
1058T414 1071T397 1083L608 1512Q620 1511 652 1507T722 1496T792 1484T836 1474L866 1420L484 1040Z" />
<glyph unicode="&#xfe;" glyph-name="thorn" horiz-adv-x="1145" d="M855 429Q856 521 837 589T787 701T715 768T631 790Q613 790 594 786T551 770T496 736T420 678V228Q471 198 510 180T580 151T638 138T691 135Q730 135 761 157T813 217T844 310T855 429ZM1080
507Q1080 441 1063 376T1017 251T949 140T867 51T777 -8T686 -30Q660 -30 632 -25T571 -7T501 26T420 77V-345Q420 -361 457 -377T589 -407V-480H48V-407Q114 -391 147 -377T180 -345V1270Q180 1313 176 1337T157 1374T116 1390T48 1400V1470Q105 1477 149 1485T232
1503T304 1524T377 1550L420 1508V796Q476 845 524 877T612 927T687 953T750 960Q818 960 878 931T983 844T1054 703T1080 507Z" />
<glyph unicode="&#xff;" glyph-name="ydieresis" horiz-adv-x="1040" d="M1027 857Q997 850 978 844T947 831T929 814T917 789L583 -75Q540 -185 490 -264T384 -394T267 -469T142 -493Q104 -493 67 -486T2 -469T-44 -446T-62 -425Q-62 -416 -45 -391T-5 -336T44
-281T85 -245Q135 -277 185 -284T273 -278Q310 -265 352 -222T430 -92L459 -23L124 789Q113 816 88 831T13 857V930H466V857Q427 852 406 847T376 834T368 816T376 789L582 287L778 789Q784 804 785 814T780 832T753 845T700 857V930H1027V857ZM893 1268Q893 1231
881 1199T847 1143T797 1105T736 1091Q678 1091 648 1122T618 1213Q618 1250 631 1282T665 1338T715 1375T774 1389Q830 1389 861 1359T893 1268ZM470 1268Q470 1231 458 1199T424 1143T375 1105T314 1091Q256 1091 226 1122T195 1213Q195 1250 208 1282T242 1338T292
1375T351 1389Q408 1389 439 1359T470 1268Z" />
<glyph unicode="&#x2013;" glyph-name="endash" horiz-adv-x="990" d="M938 554Q935 543 929 527T916 495T903 463T892 440H85L53 472Q56 483 61 498T74 530T87 560T99 585H906L938 554Z" />
<glyph unicode="&#x2014;" glyph-name="emdash" horiz-adv-x="1645" d="M1592 554Q1589 543 1583 527T1570 495T1557 463T1546 440H85L53 472Q56 483 61 498T74 530T87 560T99 585H1560L1592 554Z" />
<glyph unicode="&#x2018;" glyph-name="quoteleft" horiz-adv-x="529" d="M454 961Q448 953 428 942T381 918T322 895T261 874T209 860T173 856Q122 894 98 943T73 1058Q73 1113 92 1169T145 1278T222 1374T314 1450L379 1400Q343 1352 319 1291T295 1163Q295
1108 332 1073T438 1036L454 961Z" />
<glyph unicode="&#x2019;" glyph-name="quoteright" horiz-adv-x="531" d="M454 1245Q454 1190 435 1134T382 1025T306 929T214 853L148 903Q184 951 208 1013T232 1140Q232 1195 195 1230T89 1267L73 1342Q79 1350 99 1361T146 1385T205 1408T266 1429T318 1443T354
1447Q405 1409 429 1360T454 1245Z" />
<glyph unicode="&#x201a;" glyph-name="quotesinglbase" horiz-adv-x="531" d="M454 36Q454 -19 435 -75T382 -184T306 -280T214 -356L148 -306Q184 -258 208 -196T232 -69Q232 -14 195 21T89 59L73 134Q79 142 99 153T146 176T205 200T266 221T318 235T354 239Q405
201 429 152T454 36Z" />
<glyph unicode="&#x201c;" glyph-name="quotedblleft" horiz-adv-x="1012" d="M458 961Q452 953 432 942T385 918T326 895T265 874T213 860T177 856Q126 894 102 943T77 1058Q77 1113 96 1169T149 1278T226 1374T318 1450L383 1400Q346 1352 323 1291T299 1163Q299
1108 336 1073T442 1036L458 961ZM939 961Q933 953 913 942T866 918T807 895T746 874T694 860T658 856Q607 894 583 943T558 1058Q558 1113 577 1169T630 1278T706 1374T798 1450L864 1400Q827 1352 804 1291T780 1163Q780 1108 816 1073T922 1036L939 961Z" />
<glyph unicode="&#x201d;" glyph-name="quotedblright" horiz-adv-x="1013" d="M454 1245Q454 1190 435 1134T382 1025T306 929T214 853L148 903Q184 951 208 1013T232 1140Q232 1195 195 1230T89 1267L73 1342Q79 1350 99 1361T146 1385T205 1408T266 1429T318
1443T354 1447Q405 1409 429 1360T454 1245ZM934 1245Q934 1190 915 1134T862 1025T786 929T694 853L629 903Q665 951 689 1013T713 1140Q713 1195 676 1230T570 1267L554 1342Q560 1350 580 1361T627 1385T685 1408T746 1429T799 1443T835 1447Q886 1409 910 1360T934
1245Z" />
<glyph unicode="&#x201e;" glyph-name="quotedblbase" horiz-adv-x="1020" d="M454 36Q454 -19 435 -75T382 -184T306 -280T214 -356L148 -306Q184 -258 208 -196T232 -69Q232 -14 195 21T89 59L73 134Q79 142 99 153T146 176T205 200T266 221T318 235T354 239Q405
201 429 152T454 36ZM934 36Q934 -19 915 -75T862 -184T786 -280T694 -356L629 -306Q665 -258 689 -196T713 -69Q713 -14 676 21T570 59L554 134Q560 142 580 153T627 176T685 200T746 221T799 235T835 239Q886 201 910 152T934 36Z" />
<glyph unicode="&#x2022;" glyph-name="bullet" horiz-adv-x="569" d="M498 662Q498 601 481 551T432 465T357 409T260 389Q212 389 177 405T118 452T82 523T70 612Q70 672 88 722T139 808T214 865T309 885Q354 885 389 869T449 823T485 752T498 662Z" />
<glyph unicode="&#x2039;" glyph-name="guilsinglleft" horiz-adv-x="647" d="M464 2L65 430V465Q65 479 65 490T67 503L464 928L521 883L512 865Q504 847 490 818T458 751T420 674T383 598T351 531T329 485T321 467L522 47L464 2Z" />
<glyph unicode="&#x203a;" glyph-name="guilsinglright" horiz-adv-x="647" d="M580 428L183 2L126 47L326 464L125 883L183 928L581 501L580 428Z" />
</font>
</defs>
</svg>
