<?xml version="1.0" standalone="no"?>
<!DOCTYPE svg PUBLIC "-//W3C//DTD SVG 1.1//EN" "http://www.w3.org/Graphics/SVG/1.1/DTD/svg11.dtd">
<svg xmlns="http://www.w3.org/2000/svg">
<defs >
<font id="Ruda" horiz-adv-x="478" ><font-face
    font-family="Ruda"
    units-per-em="1000"
    panose-1="2 0 0 0 0 0 0 0 0 0"
    ascent="922"
    descent="-295"
    alphabetic="0" />
<glyph unicode=" " glyph-name="space" horiz-adv-x="235" />
<glyph unicode="!" glyph-name="exclam" horiz-adv-x="284" d="M94 196L79 699H206L190 196H94ZM74 0V109H212V0H74Z" />
<glyph unicode="&quot;" glyph-name="quotedbl" horiz-adv-x="375" d="M150 721V688L133 464H64L48 721H150ZM327 721V688L309 464H240L225 671L224 721H327Z" />
<glyph unicode="#" glyph-name="numbersign" horiz-adv-x="571" d="M17 183V282H113L133 412H52V511H149L178 695H276L247 511H362L391 695H490L461 511H542V412H445L425 282H507V183H409L381 0H283L311 183H196L168 0H69L97 183H17ZM212 282H327L347 412H232L212 282Z" />
<glyph unicode="$" glyph-name="dollar" horiz-adv-x="531" d="M274 92Q362 92 362 188Q362 229 330 256T230 314T145 355T99 388Q47 431 47 510T90 641T214 707V802H311V710Q381 703 455 683L436 585Q327 606 268 606T189 589T168 530T192 466Q224 439 323 395Q351
383 385 363T431 329T456 297Q482 261 482 203Q482 120 435 64T309 -8V-117H213V-11Q168 -6 122 8T28 48Q37 75 43 91T53 119T62 144Q177 92 274 92Z" />
<glyph unicode="%" glyph-name="percent" horiz-adv-x="812" d="M170 -9L374 393L531 733H633L443 347L273 -9H170ZM270 399T204 399T92 438T45 559T91 678T204 717T317 679T363 559T317 439ZM675 -13T608 -13T495 26T449 146T495 266T608 305T721 267T767 147T721
26ZM137 488T204 488T272 558T205 628T137 558ZM541 76T608 76T675 146T608 216T541 146Z" />
<glyph unicode="&amp;" glyph-name="ampersand" horiz-adv-x="679" d="M253 -13Q149 -13 86 49T23 187T64 312T159 384Q73 441 73 537Q73 613 126 662T274 712T418 662T467 541Q467 439 362 379Q436 329 488 266Q520 322 546 390L645 361Q611 272 554 184Q605
107 648 -9L534 -13Q522 27 482 96Q378 -13 253 -13ZM143 237T143 189T174 111T254 80T347 108T425 180Q356 270 260 328Q206 309 175 273ZM303 445T327 474T351 540T331 600T269 622Q189 622 189 542Q189 469 267 429Q303 445 327 474Z" />
<glyph unicode="&apos;" glyph-name="quotesingle" horiz-adv-x="208" d="M155 723V689L138 466H68L54 675L53 723H155Z" />
<glyph unicode="(" glyph-name="parenleft" horiz-adv-x="336" d="M61 336Q61 682 262 796L312 728Q179 641 179 337T312 -56L262 -124Q173 -74 117 37T61 336Z" />
<glyph unicode=")" glyph-name="parenright" horiz-adv-x="336" d="M23 -56Q156 33 156 337T23 728L74 796Q274 681 274 336T74 -124L23 -56Z" />
<glyph unicode="*" glyph-name="asterisk" horiz-adv-x="420" d="M158 715H261V695L243 590L340 638L360 645L391 546L371 540L259 524L348 443L362 429L283 362L272 378L209 481L145 377L133 361L57 428L70 443L158 524L47 540L28 546L59 645L79 638L176 590L158
695V715Z" />
<glyph unicode="+" glyph-name="plus" horiz-adv-x="630" d="M264 19V243H44V342H264V564H365V342H585V243H365V19H264Z" />
<glyph unicode="," glyph-name="comma" horiz-adv-x="288" d="M88 -20V106H203V52Q203 -104 119 -170L56 -134Q88 -93 88 -20Z" />
<glyph unicode="-" glyph-name="hyphen" horiz-adv-x="319" d="M38 278V376H281V278H38Z" />
<glyph unicode="." glyph-name="period" horiz-adv-x="277" d="M68 0V112H206V0H68Z" />
<glyph unicode="/" glyph-name="slash" horiz-adv-x="462" d="M-4 -98L180 325L333 699H447L268 285L110 -98H-4Z" />
<glyph unicode="0" glyph-name="zero" horiz-adv-x="596" d="M354 -13T298 -13T201 3T124 58Q52 137 52 350Q52 562 124 642Q159 680 200 696T298 712T395 696T472 642Q543 563 543 350Q543 136 472 58Q437 19 396 3ZM172 200T202 144T298 88T394 143T424 327T408
515T367 592T298 611T228 592Q172 550 172 352Q172 200 202 144Z" />
<glyph unicode="1" glyph-name="one" horiz-adv-x="533" d="M73 0V100L243 98L249 581H244L111 443L35 519L244 706L360 698V98L509 100V0H73Z" />
<glyph unicode="2" glyph-name="two" horiz-adv-x="565" d="M51 0V87Q118 158 200 255T303 381T350 457T376 543Q376 608 301 608Q257 608 199 587T91 535L43 622Q80 653 146 682T282 712Q375 712 434 664T494 534Q494 476 461 416T370 284L220 102V96L509 102V0H51Z" />
<glyph unicode="3" glyph-name="three" horiz-adv-x="527" d="M258 89Q310 89 330 113T350 201T322 292T228 321H118V416Q253 427 285 439Q332 456 332 516T310 593T225 611T59 598L45 692Q125 712 219 712Q451 712 451 530Q451 419 356 378V373Q473 341 473 200Q473
106 418 47T244 -13Q187 -13 128 3T38 35L8 51L47 137Q169 89 258 89Z" />
<glyph unicode="4" glyph-name="four" horiz-adv-x="560" d="M21 152V232L186 711L298 696L145 251V246L340 251L366 510H454V253L519 255V152H454L455 0H338L340 152H21Z" />
<glyph unicode="5" glyph-name="five" horiz-adv-x="533" d="M269 89Q322 89 342 116T363 210T335 302T165 328L69 326L124 699H453V600L221 604L196 427Q264 423 311 413T400 380Q484 335 484 212Q484 106 423 47T256 -13Q197 -13 138 6T50 44L20 63L58 149Q180
89 269 89Z" />
<glyph unicode="6" glyph-name="six" horiz-adv-x="575" d="M464 588Q378 609 311 609T214 573T176 425Q227 430 267 430Q391 430 456 381T522 219T461 47T288 -13T114 67T52 332Q52 553 135 638Q175 678 222 695T320 712Q410 712 470 690L490 682L464 588ZM173
254Q173 142 210 108Q238 85 299 85T383 114T407 212T383 306T288 331Q239 331 173 321V254Z" />
<glyph unicode="7" glyph-name="seven" horiz-adv-x="514" d="M27 699H488V627L196 -8L73 2L365 598V604L27 597V699Z" />
<glyph unicode="8" glyph-name="eight" horiz-adv-x="563" d="M64 531Q64 612 120 662T281 712T442 661T498 530Q498 422 400 361Q523 295 523 188Q523 105 456 46T278 -13T103 49T39 196Q39 253 71 299T149 369Q64 431 64 531ZM161 192Q161 86 281 86T402 181Q402
231 370 260T253 317Q206 299 184 272T161 192ZM382 525Q382 618 281 618T179 535Q179 491 206 462T297 406Q382 439 382 525Z" />
<glyph unicode="9" glyph-name="nine" horiz-adv-x="573" d="M284 86Q331 86 352 107Q395 148 398 282Q332 270 278 270Q172 270 112 322T52 483T112 651T284 712T458 631T520 363T462 81T277 -13Q230 -13 178 2T98 34L70 50L106 137Q206 86 284 86ZM354 598Q329
613 270 613T190 583T168 488T187 398T274 371Q328 371 398 391Q398 573 354 598Z" />
<glyph unicode=":" glyph-name="colon" horiz-adv-x="331" d="M100 441V553H238V441H100ZM100 0V112H238V0H100Z" />
<glyph unicode=";" glyph-name="semicolon" horiz-adv-x="331" d="M111 -20V106H226V52Q226 -104 142 -170L79 -134Q111 -93 111 -20ZM100 441V553H238V441H100Z" />
<glyph unicode="&lt;" glyph-name="less" horiz-adv-x="654" d="M67 251V337L608 577V465L212 297V291L608 122V11L67 251Z" />
<glyph unicode="=" glyph-name="equal" horiz-adv-x="637" d="M44 340V440H592V340H44ZM44 143V242H592V143H44Z" />
<glyph unicode="&gt;" glyph-name="greater" horiz-adv-x="656" d="M57 11V122L452 291V297L57 465V577L597 337V251L57 11Z" />
<glyph unicode="?" glyph-name="question" horiz-adv-x="481" d="M62 559L23 649Q35 656 55 666T132 694T240 712Q336 712 397 659T458 522Q458 446 415 399Q392 374 377 361T331 327T286 292T257 254T242 196H139Q139 201 139 206Q139 258 158 298T206 363T266
408Q338 458 338 527Q338 607 249 607Q212 607 166 595T62 559ZM124 0V109H261V0H124Z" />
<glyph unicode="@" glyph-name="at" horiz-adv-x="831" d="M515 -33Q470 -48 408 -48T283 -25T170 44T89 161T58 325T90 491T176 610Q287 702 427 702T667 617T768 387Q768 275 707 196T572 116Q531 116 513 143T491 222H487Q431 116 364 116Q318 116 282 166T245
335T285 501T410 550Q469 550 571 523Q569 384 569 325T569 245T572 212T576 198T584 195Q615 195 651 249T687 383Q687 492 619 556T426 620T222 546T142 332T221 112T415 31Q443 31 505 42L515 -33ZM480 456Q456 464 410 464T353 441T341 336Q341 206 374 206Q409
206 444 291T480 456Z" />
<glyph unicode="A" glyph-name="A" horiz-adv-x="542" d="M-3 0L196 699H338L536 0H415L371 172H163L118 0H-3ZM185 270H349L270 596H264L185 270Z" />
<glyph unicode="B" glyph-name="B" horiz-adv-x="637" d="M328 712Q543 712 543 520Q543 472 531 449T510 414T490 394Q470 380 444 368V364Q561 333 561 209Q561 81 490 30Q427 -13 335 -13Q256 -13 97 4L102 326L97 699Q230 712 328 712ZM214 88Q286 79 342
79T418 108T438 205T409 296T326 319L214 320V88ZM214 409Q286 408 335 408T403 432T423 515T401 598T325 622L214 616V409Z" />
<glyph unicode="C" glyph-name="C" horiz-adv-x="604" d="M324 -13Q202 -13 133 72T64 342Q64 595 176 670Q212 694 251 703T366 712T525 692L512 594Q418 608 339 608T237 585Q188 534 188 339Q188 248 205 188T245 107T314 86T410 100T518 141L554 52Q543 45
524 34T444 5T324 -13Z" />
<glyph unicode="D" glyph-name="D" horiz-adv-x="655" d="M97 699Q247 712 318 712T437 693T514 642T560 563Q590 484 590 358Q590 -13 313 -13Q268 -13 97 0V699ZM311 88Q386 88 412 112Q463 159 463 356T415 592Q392 611 327 611L213 605L214 96Q268 88 311 88Z" />
<glyph unicode="E" glyph-name="E" horiz-adv-x="535" d="M97 0V699H475V597L214 600L209 404H450V305H209L214 100L475 102V0H97Z" />
<glyph unicode="F" glyph-name="F" horiz-adv-x="521" d="M97 0V699H475V594L213 597L209 402H443V304H209L214 0H97Z" />
<glyph unicode="G" glyph-name="G" horiz-adv-x="636" d="M333 377H550V29Q462 -13 341 -13Q293 -13 255 -5T180 28T118 92Q64 181 64 352Q64 569 146 645Q187 683 236 697T370 712T548 691L534 594Q397 608 351 608Q258 608 235 584Q188 537 188 352T237 114Q263
86 334 86T437 97V286L333 292V377Z" />
<glyph unicode="H" glyph-name="H" horiz-adv-x="688" d="M97 0V699H214L211 406H477L474 699H591V0H474L477 305H212L214 0H97Z" />
<glyph unicode="I" glyph-name="I" horiz-adv-x="313" d="M97 -1L101 321L97 699H215L211 389L215 -1H97Z" />
<glyph unicode="J" glyph-name="J" horiz-adv-x="342" d="M0 95Q35 87 66 87T108 96Q133 115 133 233V699H249V241Q249 -13 67 -13Q34 -13 -13 -4L0 95Z" />
<glyph unicode="K" glyph-name="K" horiz-adv-x="621" d="M484 0L217 360L464 699H604L342 365V359L631 0H484ZM215 699V0H97L102 355L97 699H215Z" />
<glyph unicode="L" glyph-name="L" horiz-adv-x="467" d="M97 0V699H214L209 102L464 104V0H97Z" />
<glyph unicode="M" glyph-name="M" horiz-adv-x="821" d="M93 0L116 699H274L407 275H413L544 699H703L727 0H611L609 584H604L473 172H349L215 584H209L210 0H93Z" />
<glyph unicode="N" glyph-name="N" horiz-adv-x="699" d="M97 0V699H250L501 135H506L492 699H603V0H450L200 563H195L208 0H97Z" />
<glyph unicode="O" glyph-name="O" horiz-adv-x="680" d="M340 -13Q292 -13 253 -4T178 30T118 95Q64 182 64 351Q64 564 146 642Q186 680 232 696T340 712T447 696T534 642Q616 564 616 351Q616 108 502 30Q438 -13 340 -13ZM261 102T283 97T352 91T428 108Q494
145 494 348Q494 432 486 483T458 562T411 599T340 608T270 599T224 562T195 483T187 357T193 235T210 161T241 117Z" />
<glyph unicode="P" glyph-name="P" horiz-adv-x="604" d="M97 698Q238 712 342 712T499 651T552 472Q552 328 480 272Q418 222 325 222L214 227V0H97L101 325L97 698ZM214 331Q272 321 335 321T414 349T430 480T402 604Q384 619 324 619T214 611V331Z" />
<glyph unicode="Q" glyph-name="Q" horiz-adv-x="695" d="M422 -4Q382 -13 330 -13T231 3T146 58T85 171T64 351T85 530T146 642T233 696T341 712T448 696T534 642Q616 564 616 353T521 51V45L659 3L621 -97L422 -4ZM261 102T283 97T352 91T428 108Q494 145 494
348Q494 432 486 483T458 562T411 599T341 608T271 599T224 562T195 483T187 357T193 235T210 161T241 117Z" />
<glyph unicode="R" glyph-name="R" horiz-adv-x="667" d="M340 712Q581 712 581 487Q581 321 435 280V275L598 0H461L325 264L215 268V0H97L102 328L99 698Q211 712 340 712ZM214 368Q293 359 352 359T435 388T459 494T435 598Q414 620 349 620T215 611L214 368Z" />
<glyph unicode="S" glyph-name="S" horiz-adv-x="542" d="M283 92Q371 92 371 188Q371 229 338 257T247 311T180 342T149 359T119 379T95 402T73 434Q56 477 56 518Q56 603 114 657T281 712Q360 712 437 690L464 683L445 585Q336 606 279 606T199 588T177 529T204
466T268 426T327 398T361 383T393 366T424 345T450 320T472 288Q491 249 491 204Q491 107 428 47T263 -13Q211 -13 155 2T68 32L37 48Q46 75 52 91T62 119T71 144Q186 92 283 92Z" />
<glyph unicode="T" glyph-name="T" horiz-adv-x="498" d="M-4 699H497V596L302 599L304 0H188L191 599L-4 596V699Z" />
<glyph unicode="U" glyph-name="U" horiz-adv-x="684" d="M97 305V699H214V332Q214 223 225 173T262 106T342 90T422 106T458 172T470 332V699H587V314Q587 124 523 54Q490 17 447 2T342 -13Q218 -13 158 57T97 305Z" />
<glyph unicode="V" glyph-name="V" horiz-adv-x="569" d="M207 0L16 699H139L277 103H283L422 699H546L353 0H207Z" />
<glyph unicode="W" glyph-name="W" horiz-adv-x="785" d="M129 0L28 699H145L209 114H215L313 531H459L557 114H563L626 699H744L641 0H490L389 428H383L283 0H129Z" />
<glyph unicode="X" glyph-name="X" horiz-adv-x="579" d="M5 0L211 350L12 699H145L282 424H288L426 699H559L360 348L567 0H433L290 271H285L139 0H5Z" />
<glyph unicode="Y" glyph-name="Y" horiz-adv-x="547" d="M210 0L213 256L3 699H130L267 352H272L410 699H537L327 256L329 0H210Z" />
<glyph unicode="Z" glyph-name="Z" horiz-adv-x="557" d="M29 0V98L380 596V603L50 596V699H516V601L170 102V97L520 102V0H29Z" />
<glyph unicode="[" glyph-name="bracketleft" horiz-adv-x="330" d="M98 -124V787H296V697L205 700V-37L296 -35V-124H98Z" />
<glyph unicode="\" glyph-name="backslash" horiz-adv-x="464" d="M352 -98L194 285L15 699H129L281 325L465 -98H352Z" />
<glyph unicode="]" glyph-name="bracketright" horiz-adv-x="330" d="M33 -124V-35L126 -37V700L33 697V787H231V-124H33Z" />
<glyph unicode="^" glyph-name="asciicircum" horiz-adv-x="520" d="M50 325L200 700H320L469 325L363 314L263 606H257L157 314L50 325Z" />
<glyph unicode="_" glyph-name="underscore" horiz-adv-x="556" d="M13 -163V-81H543V-163H13Z" />
<glyph unicode="`" glyph-name="grave" horiz-adv-x="623" d="M162 721L194 813L456 720L434 652L162 721Z" />
<glyph unicode="a" glyph-name="a" horiz-adv-x="588" d="M216 -13Q139 -13 93 35T46 180T108 321T289 365L385 364Q385 461 370 481T309 502T209 491T91 457L60 542Q74 548 97 557T185 582T302 598Q501 598 501 382V0H427L411 63H406Q395 54 377 42T308 8T216
-13ZM385 270Q344 276 274 276T187 259Q165 239 165 183T179 106T226 85T298 96T385 130V270Z" />
<glyph unicode="b" glyph-name="b" horiz-adv-x="599" d="M82 757H198V579Q282 598 339 598Q537 598 537 301Q537 -13 320 -13Q274 -13 203 -1T82 28V757ZM198 97Q256 83 308 83T376 98Q417 132 417 318Q417 414 405 460Q400 480 386 488T361 498T323 500Q268
500 198 480V97Z" />
<glyph unicode="c" glyph-name="c" horiz-adv-x="534" d="M467 129Q478 95 501 44Q492 38 477 29T411 3T309 -13Q194 -13 128 62T62 294Q62 468 142 537Q214 598 332 598Q410 598 486 579L473 488Q364 502 306 502T224 478Q182 433 182 286T239 97Q260 82 293
82T370 94T467 129Z" />
<glyph unicode="d" glyph-name="d" horiz-adv-x="604" d="M255 -13Q168 -13 115 61T62 284Q62 490 160 562Q211 598 283 598Q332 598 406 579V757H522V0H446L433 59H427Q398 37 379 25T325 0T255 -13ZM406 476Q345 501 289 501T215 480Q182 438 182 285T220 99Q233
87 264 87Q322 87 385 120L406 131V476Z" />
<glyph unicode="e" glyph-name="e" horiz-adv-x="589" d="M312 -13Q62 -13 62 292T310 598Q421 598 476 534T532 322V250H183Q183 139 221 104Q246 82 288 82Q369 82 459 112L490 123L518 35Q420 -13 312 -13ZM414 372Q414 378 413 398T411 423T408 443T402 462T393
476T380 488T364 496Q350 503 311 503T246 494T207 462T189 412T184 337L414 342V372Z" />
<glyph unicode="f" glyph-name="f" horiz-adv-x="361" d="M109 0V466H42V537L109 551Q115 671 164 720T302 770L374 767L366 673Q316 676 290 676T252 669Q225 653 225 553H354V463H225V0H109Z" />
<glyph unicode="g" glyph-name="g" horiz-adv-x="545" d="M66 -59Q240 -85 321 -85T403 -60Q403 -44 377 -28T246 31T142 77L183 192Q39 239 39 384Q39 497 108 547T290 598Q352 598 520 586V516L456 506Q486 440 486 381Q486 293 425 238T255 182Q251 143 251
138T343 95T468 29T501 -44Q501 -108 437 -143T266 -179Q169 -179 81 -157L53 -150L66 -59ZM201 506T173 481T144 389T170 298T260 274T349 297T374 385Q374 449 367 472T357 498Q351 502 272 506Q201 506 173 481Z" />
<glyph unicode="h" glyph-name="h" horiz-adv-x="607" d="M77 0V757H193V548Q304 599 382 599T493 546T527 386V0H411V358Q411 443 397 469T341 495Q315 495 278 486T193 456V0H77Z" />
<glyph unicode="i" glyph-name="i" horiz-adv-x="310" d="M97 0V585H213V0H97ZM88 663V757H222V663H88Z" />
<glyph unicode="j" glyph-name="j" horiz-adv-x="328" d="M-12 -74Q27 -80 61 -80T105 -57T115 60V585H231V61Q231 -66 183 -122T57 -178L-25 -171L-12 -74ZM106 663V757H240V663H106Z" />
<glyph unicode="k" glyph-name="k" horiz-adv-x="571" d="M198 753V0H82L87 321L82 753H198ZM438 0L199 314L422 582H570L325 319V314L588 0H438Z" />
<glyph unicode="l" glyph-name="l" horiz-adv-x="280" d="M82 0V757H198V0H82Z" />
<glyph unicode="m" glyph-name="m" horiz-adv-x="941" d="M93 0V585H169L182 527H187Q308 599 394 599T512 523Q551 547 573 559T636 585T714 599Q795 599 828 544T861 384V0H745V356Q745 439 734 466T683 494T600 477T531 444Q535 404 535 382V0H419V358Q419
469 393 486Q381 494 356 494Q294 494 209 447V0H93Z" />
<glyph unicode="n" glyph-name="n" horiz-adv-x="620" d="M93 0V585H169L182 527H187Q310 598 394 598T509 543T540 386V0H424V357Q424 446 413 469T362 493T279 477T209 445V0H93Z" />
<glyph unicode="o" glyph-name="o" horiz-adv-x="598" d="M536 142T482 65T300 -13T117 64T62 292T116 520T299 598T482 520T536 292ZM231 79T300 79T393 120T417 292T393 464T300 505T207 464T182 293T206 121Z" />
<glyph unicode="p" glyph-name="p" horiz-adv-x="605" d="M82 -166V585H158L172 525H177Q179 526 194 537T218 553T245 569T279 584Q321 598 356 598Q443 598 493 526T543 303Q543 -13 315 -13Q272 -13 198 -1V-166H82ZM198 102Q266 84 314 84T381 98Q423 131
423 313Q423 380 420 418T405 473T383 493T345 496T280 484T198 449V102Z" />
<glyph unicode="q" glyph-name="q" horiz-adv-x="600" d="M402 -166V15Q337 -13 283 -13T194 1T128 49Q62 119 62 291T118 531T291 598Q337 598 393 589T518 562V-166H402ZM402 487Q346 501 288 501T211 483Q182 449 182 302Q182 130 217 101Q235 86 268 86Q330
86 402 110V487Z" />
<glyph unicode="r" glyph-name="r" horiz-adv-x="416" d="M318 598T347 598T400 590L391 486Q366 488 346 488Q271 488 209 444V0H93V585H166Q175 538 181 524H187Q223 553 270 575Z" />
<glyph unicode="s" glyph-name="s" horiz-adv-x="512" d="M270 83Q309 83 329 101T349 159T323 216T262 244T223 256T200 264T164 276T121 296T82 326Q49 366 49 426Q49 505 99 551T246 598T436 566L418 474Q314 499 252 499T175 483T160 436T188 388T269 354T333
335T367 323T399 307T424 288T446 260Q462 224 462 180Q462 92 410 40T261 -13Q213 -13 160 0T47 39L75 133Q192 83 270 83Z" />
<glyph unicode="t" glyph-name="t" horiz-adv-x="384" d="M104 190V465H37V537L109 551L132 689H221V553H338V463H220V185Q220 118 228 103T273 87L337 90V-3Q303 -11 258 -11Q179 -11 142 30T104 190Z" />
<glyph unicode="u" glyph-name="u" horiz-adv-x="619" d="M80 199V585H196V222Q196 126 209 107Q223 90 260 90Q320 90 410 138V585H526V0H450L436 58H431Q430 57 409 45T379 29T348 15T311 0Q269 -13 235 -13Q80 -13 80 199Z" />
<glyph unicode="v" glyph-name="v" horiz-adv-x="495" d="M176 0L6 585H126L243 97H249L368 585H488L315 0H176Z" />
<glyph unicode="w" glyph-name="w" horiz-adv-x="751" d="M130 0L13 585H129L207 78H212L298 506H449L535 78H541L617 585H734L617 0H461L376 430H370L285 0H130Z" />
<glyph unicode="x" glyph-name="x" horiz-adv-x="528" d="M9 0L191 306L15 585H143L258 370H264L377 585H505L329 305L511 0H379L262 236H256L141 0H9Z" />
<glyph unicode="y" glyph-name="y" horiz-adv-x="499" d="M117 -166L199 54L-5 585H124L248 173H253L375 585H497L292 34L237 -166H117Z" />
<glyph unicode="z" glyph-name="z" horiz-adv-x="488" d="M26 0V84L319 489V495L39 488V585H454V501L162 95V89L460 96V0H26Z" />
<glyph unicode="{" glyph-name="braceleft" horiz-adv-x="443" d="M171 70V190Q171 249 149 267T48 297V384Q124 395 147 414T171 491V588Q171 683 213 734T351 786L416 783L411 698Q358 701 334 701T298 680T286 586V490Q286 413 251 378Q224 351 196 343V337Q286
304 286 187V81Q286 12 296 -12T336 -37L411 -34L416 -121Q373 -123 351 -123Q171 -123 171 70Z" />
<glyph unicode="|" glyph-name="bar" horiz-adv-x="284" d="M95 -87V762H189V-87H95Z" />
<glyph unicode="}" glyph-name="braceright" horiz-adv-x="443" d="M31 -34Q65 -37 100 -37T146 -13T156 81V187Q156 304 246 337V343Q218 351 196 372Q156 413 156 490V586Q156 658 145 679T102 701L31 698L26 783Q69 786 91 786Q187 786 229 735T271 588V491Q271
433 294 414T394 384V297Q316 285 294 267T271 190V70Q271 -123 91 -123L26 -121L31 -34Z" />
<glyph unicode="~" glyph-name="asciitilde" horiz-adv-x="536" d="M142 372Q181 372 273 338T395 304T475 332L510 271Q493 246 462 225T396 204T266 238T138 272T56 238L19 300Q85 372 142 372Z" />
<glyph unicode="&#xa1;" glyph-name="exclamdown" horiz-adv-x="283" d="M80 -113L95 389H191L206 -113H80ZM74 475V585H212V475H74Z" />
<glyph unicode="&#xa2;" glyph-name="cent" horiz-adv-x="534" d="M263 -117V-9Q62 19 62 288T263 592V694H359V597Q419 595 486 579L473 488Q364 502 315 502Q235 502 209 459T182 277T239 97Q260 82 293 82T370 94T467 129L501 44Q444 2 359 -9V-117H263Z" />
<glyph unicode="&#xa3;" glyph-name="sterling" horiz-adv-x="581" d="M64 0V100H154V337H64V424H155Q161 583 224 647T396 712Q462 712 534 692L522 598Q422 612 385 612Q318 612 296 578T271 424H454V337H270V101L519 103V0H64Z" />
<glyph unicode="&#xa4;" glyph-name="currency" horiz-adv-x="656" d="M126 214Q88 273 88 349T127 487L69 546L135 613L195 553Q260 593 331 593T465 554L526 613L592 547L533 489Q575 428 575 351T535 212L594 154L527 88L468 146Q403 106 331 106T192 148L133
88L67 155L126 214ZM187 273T226 237T336 200T441 235T476 348T438 462T332 499T226 463T187 350Z" />
<glyph unicode="&#xa5;" glyph-name="yen" horiz-adv-x="572" d="M49 277V358L181 356L17 699H144L282 358H288L424 699H551L387 356L519 358V277H49ZM49 138V219H519V138H342V0H225V138H49Z" />
<glyph unicode="&#xa6;" glyph-name="brokenbar" horiz-adv-x="284" d="M95 403V762H189V403H95ZM95 -87V272H189V-87H95Z" />
<glyph unicode="&#xa7;" glyph-name="section" horiz-adv-x="554" d="M279 6Q323 6 339 18Q359 32 359 75Q359 114 313 135Q278 151 235 162T151 190T81 240T52 326Q52 401 115 448Q73 487 73 556T126 668T273 711T442 685L423 589Q339 614 259 614Q221 614 203
602T184 556T217 501T297 468T391 440T471 390T504 305Q504 236 439 181Q472 144 472 85Q472 1 413 -46T265 -93Q214 -93 160 -80T78 -52L50 -39L81 57Q194 6 279 6ZM359 230Q393 264 393 290T371 331T315 356T258 374Q214 387 193 396Q163 368 163 330Q163 299
199 283Q221 273 276 257T359 230Z" />
<glyph unicode="&#xa8;" glyph-name="dieresis" horiz-adv-x="588" d="M127 677V770H251V677H127ZM338 677V770H461V677H338Z" />
<glyph unicode="&#xa9;" glyph-name="copyright" horiz-adv-x="839" d="M774 165T674 64T419 -37T164 64T64 320T166 577T421 679T674 578T774 321ZM145 191T217 117T418 42T620 117T693 321T620 525T421 600T220 525T145 320ZM551 141Q499 106 419 106T290 157T241
317Q241 450 298 497Q347 538 428 538Q450 538 485 533T535 521L525 442Q466 451 430 451T378 444Q346 428 346 317Q346 241 362 218T406 194Q462 194 529 219L551 141Z" />
<glyph unicode="&#xaa;" glyph-name="ordfeminine" horiz-adv-x="435" d="M283 336Q214 289 158 289Q42 289 42 424Q42 489 88 520Q123 544 204 548Q231 550 275 550Q275 599 263 613T216 628Q152 628 95 606L76 598L55 673Q144 707 218 707Q364 707 364 557V298H301L287
336H283ZM275 474Q250 476 206 476T148 464T133 423T144 381T178 369Q217 369 275 397V474Z" />
<glyph unicode="&#xab;" glyph-name="guillemotleft" horiz-adv-x="521" d="M182 82L32 337L182 592L268 541L145 340V334L268 133L182 82ZM405 83L256 337L405 590L490 539L369 340V334L490 135L405 83Z" />
<glyph unicode="&#xac;" glyph-name="logicalnot" horiz-adv-x="598" d="M20 243V343H561V118H459V243H20Z" />
<glyph unicode="&#xad;" glyph-name="uni00AD" horiz-adv-x="348" d="M54 259V358H296V259H54Z" />
<glyph unicode="&#xae;" glyph-name="registered" horiz-adv-x="839" d="M774 165T674 64T419 -37T164 64T64 320T166 577T421 679T674 578T774 321ZM145 191T217 117T418 42T620 117T693 321T620 525T421 600T220 525T145 320ZM414 261L361 262V119H269L272 310L270
523Q354 531 425 531Q576 531 576 399Q576 347 555 315T500 271V268L580 119H474L414 261ZM427 453L362 449L361 342Q391 339 424 339T468 352T479 397T468 441T427 453Z" />
<glyph unicode="&#xaf;" glyph-name="overscore" horiz-adv-x="586" d="M137 680V757H455V680H137Z" />
<glyph unicode="&#xb0;" glyph-name="degree" horiz-adv-x="354" d="M243 399T177 399T65 438T18 559T64 678T177 717T290 679T336 559T290 439ZM110 488T177 488T244 558T177 628T110 558Z" />
<glyph unicode="&#xb1;" glyph-name="plusminus" horiz-adv-x="580" d="M44 9V108H535V9H44ZM44 327V425H239V577H340V425H535V327H340V169H239V327H44Z" />
<glyph unicode="&#xb2;" glyph-name="twosuperior" horiz-adv-x="394" d="M59 298V361Q123 431 161 477Q234 562 234 594T202 627Q151 627 82 587L48 661Q71 677 113 692T204 708T287 679T323 600Q323 529 199 392L185 376V372L333 378V298H59Z" />
<glyph unicode="&#xb3;" glyph-name="threesuperior" horiz-adv-x="373" d="M62 395Q133 370 168 370T213 381T223 421T208 461T154 472H102V542Q176 547 195 555T214 587T206 618Q197 628 147 628Q104 626 69 621L61 697Q123 708 168 708Q305 708 305 599Q305
547 267 524Q262 521 251 516V512Q317 494 317 418Q317 360 286 325T183 290Q150 290 114 298T40 321L62 395Z" />
<glyph unicode="&#xb4;" glyph-name="acute" horiz-adv-x="623" d="M189 652L167 720L429 813L461 721L189 652Z" />
<glyph unicode="&#xb5;" glyph-name="mu" horiz-adv-x="620" d="M80 -166V585H196V233Q196 128 209 109Q225 90 261 90T342 106T410 138V585H526V0H451L437 58H431Q306 -13 240 -13Q206 -13 182 0L178 -4L188 -166H80Z" />
<glyph unicode="&#xb6;" glyph-name="paragraph" horiz-adv-x="697" d="M263 -164V184Q154 187 98 246T41 444T101 641T279 699H607V-164H491V598H379V-164H263Z" />
<glyph unicode="&#xb7;" glyph-name="middot" horiz-adv-x="328" d="M134 268T111 287T88 346T110 403T165 421Q242 421 242 345Q242 306 220 287T166 268Z" />
<glyph unicode="&#xb8;" glyph-name="cedilla" horiz-adv-x="504" d="M191 -94Q236 -99 261 -99T297 -93T308 -64T295 12L365 23Q385 -32 385 -77T354 -150T271 -179Q240 -179 191 -170V-94Z" />
<glyph unicode="&#xb9;" glyph-name="onesuperior" horiz-adv-x="392" d="M67 298V378H167V611H163L82 547L36 611L176 707L258 701V378H345V298H67Z" />
<glyph unicode="&#xba;" glyph-name="ordmasculine" horiz-adv-x="371" d="M356 395T318 342T186 289T55 342T16 498T54 654T186 707T317 654T356 498ZM111 421T127 396T185 371T244 396T261 498T245 601T186 626T127 601T111 499Z" />
<glyph unicode="&#xbb;" glyph-name="guillemotright" horiz-adv-x="521" d="M253 133L376 334V340L253 541L339 592L489 337L339 82L253 133ZM31 135L153 334V340L31 539L117 590L266 337L117 83L31 135Z" />
<glyph unicode="&#xbc;" glyph-name="onequarter" horiz-adv-x="953" d="M260 -9L466 393L623 733H728L538 347L367 -9H260ZM585 79V136Q585 145 587 151L686 418L767 409L673 155L773 158L785 305H859V158L899 159V79H859V0H771L772 79H585ZM67 298V378H167V611H163L82
547L36 611L176 707L258 701V378H345V298H67Z" />
<glyph unicode="&#xbd;" glyph-name="onehalf" horiz-adv-x="967" d="M261 -9L466 393L623 733H729L538 347L368 -9H261ZM67 298V378H167V611H163L82 547L36 611L176 707L258 701V378H345V298H67ZM631 0V63Q695 133 733 179Q806 264 806 296T774 329Q723 329 654
289L620 363Q643 379 685 394T776 410T859 381T895 302Q895 231 771 94L757 78V74L905 80V0H631Z" />
<glyph unicode="&#xbe;" glyph-name="threequarters" horiz-adv-x="905" d="M217 -9L423 393L580 733H685L495 347L324 -9H217ZM62 395Q132 370 167 370T212 381T222 421T207 461T153 472H101V542Q175 547 194 555T213 587T206 618Q196 628 146 628Q102 626 68
621L60 697Q122 708 167 708Q304 708 304 599Q304 545 266 522Q260 519 250 515V511Q316 493 316 418Q316 360 285 325T182 290Q120 290 58 314L39 321L62 395ZM537 79V136Q537 145 539 151L637 418L719 409L625 155L724 158L737 305H811V158L851 159V79H811V0H722L724
79H537Z" />
<glyph unicode="&#xbf;" glyph-name="questiondown" horiz-adv-x="481" d="M419 27Q432 1 458 -64Q446 -71 426 -81T349 -109T241 -126Q145 -126 84 -73T22 63Q22 147 81 203Q109 230 144 255T195 293T223 331T239 389H342Q342 384 342 379Q342 327 323 287T275
222T215 177Q143 127 143 59Q143 11 175 -10Q193 -22 231 -22T315 -10T419 27ZM221 476V585H359V476H221Z" />
<glyph unicode="&#xc0;" glyph-name="Agrave" horiz-adv-x="542" d="M-3 0L196 699H338L536 0H415L371 172H163L118 0H-3ZM185 270H349L270 596H264L185 270ZM128 798L154 886L412 809L394 743L128 798Z" />
<glyph unicode="&#xc1;" glyph-name="Aacute" horiz-adv-x="542" d="M-3 0L196 699H338L536 0H415L371 172H163L118 0H-3ZM185 270H349L270 596H264L185 270ZM157 742L138 808L394 887L422 798L157 742Z" />
<glyph unicode="&#xc2;" glyph-name="Acircumflex" horiz-adv-x="542" d="M-3 0L196 699H338L536 0H415L371 172H163L118 0H-3ZM185 270H349L270 596H264L185 270ZM126 738L96 786L237 884H298L440 786L410 738L271 798H264Q256 794 126 738Z" />
<glyph unicode="&#xc3;" glyph-name="Atilde" horiz-adv-x="542" d="M-3 0L196 699H338L536 0H415L371 172H163L118 0H-3ZM185 270H349L270 596H264L185 270ZM165 870Q194 870 275 848T363 825Q376 825 392 867L455 858Q454 746 373 746Q344 746 263 769T174 793T160
783T144 750L82 758Q82 870 165 870Z" />
<glyph unicode="&#xc4;" glyph-name="Adieresis" horiz-adv-x="542" d="M-3 0L196 699H338L536 0H415L371 172H163L118 0H-3ZM185 270H349L270 596H264L185 270ZM103 764V857H223V764H103ZM316 764V857H436V764H316Z" />
<glyph unicode="&#xc5;" glyph-name="Aring" horiz-adv-x="542" d="M-3 0L196 699H338L536 0H415L371 172H163L118 0H-3ZM185 270H349L270 596H264L185 270ZM228 727T201 747T174 815T201 882T268 903T335 883T362 815T335 748T268 727ZM249 848T241 842T232 815T240
788T268 781T295 787T303 814T296 841T269 848Z" />
<glyph unicode="&#xc6;" glyph-name="AE" horiz-adv-x="808" d="M747 699V596L485 599L481 404H723V305H481L485 100L747 102V0H370V171H187L114 0H-7L301 699H747ZM370 270V592H352L217 270H370Z" />
<glyph unicode="&#xc7;" glyph-name="Ccedilla" horiz-adv-x="604" d="M216 -94Q260 -99 286 -99T322 -93T332 -64T325 -13Q64 -13 64 342Q64 595 176 670Q212 694 251 703T366 712T525 692L512 594Q418 608 339 608T237 585Q188 534 188 339Q188 248 205 188T245
107T314 86T410 100T518 141L554 52Q492 10 399 -6Q409 -46 409 -74Q409 -122 378 -150T295 -179Q266 -179 216 -170V-94Z" />
<glyph unicode="&#xc8;" glyph-name="Egrave" horiz-adv-x="535" d="M97 0V699H475V596L214 599L209 404H450V305H209L214 100L475 102V0H97ZM136 798L162 886L421 809L402 743L136 798Z" />
<glyph unicode="&#xc9;" glyph-name="Eacute" horiz-adv-x="535" d="M97 0V699H475V596L214 599L209 404H450V305H209L214 100L475 102V0H97ZM166 742L147 808L403 887L431 798L166 742Z" />
<glyph unicode="&#xca;" glyph-name="Ecircumflex" horiz-adv-x="535" d="M97 0V699H475V596L214 599L209 404H450V305H209L214 100L475 102V0H97ZM280 798L141 738L111 786L253 884H314L455 786L425 738L287 798H280Z" />
<glyph unicode="&#xcb;" glyph-name="Edieresis" horiz-adv-x="535" d="M97 0V699H475V596L214 599L209 404H450V305H209L214 100L475 102V0H97ZM122 764V857H243V764H122ZM335 764V857H455V764H335Z" />
<glyph unicode="&#xcc;" glyph-name="Igrave" horiz-adv-x="313" d="M-3 797L23 886L268 809L249 743L-3 797ZM215 0L97 -1L101 321L97 699H215L211 389L215 0Z" />
<glyph unicode="&#xcd;" glyph-name="Iacute" horiz-adv-x="313" d="M63 742L45 809L288 887L316 797L63 742ZM215 0L97 -1L101 321L97 699H215L211 389L215 0Z" />
<glyph unicode="&#xce;" glyph-name="Icircumflex" horiz-adv-x="313" d="M25 741L-4 792L126 884H187L316 792L287 741L160 798H153L25 741ZM215 0L97 -1L101 321L97 699H215L211 389L215 0Z" />
<glyph unicode="&#xcf;" glyph-name="Idieresis" horiz-adv-x="313" d="M3 764V857H122V764H3ZM191 764V857H310V764H191ZM215 0L97 -1L101 321L97 699H215L211 389L215 0Z" />
<glyph unicode="&#xd0;" glyph-name="Eth" horiz-adv-x="667" d="M110 311H44V402H110V699Q259 712 330 712T449 693T526 642T572 563Q603 481 603 358Q603 -13 326 -13Q279 -13 110 0V311ZM226 311V95Q280 88 323 88Q400 88 425 111Q476 160 476 357T427 592Q406
611 339 611L226 604V402H340V311H226Z" />
<glyph unicode="&#xd1;" glyph-name="Ntilde" horiz-adv-x="699" d="M97 0V699H250L501 135H506L492 699H603V0H450L200 563H195L208 0H97ZM250 870Q279 870 359 848T447 825Q460 825 476 867L539 858Q538 746 457 746Q428 746 347 769T259 793T245 783T229 750L166
758Q167 870 250 870Z" />
<glyph unicode="&#xd2;" glyph-name="Ograve" horiz-adv-x="681" d="M340 -13Q292 -13 253 -4T178 30T118 95Q64 182 64 351Q64 564 146 642Q186 680 232 696T340 712T447 696T534 642Q616 564 616 351Q616 108 502 30Q438 -13 340 -13ZM261 102T283 97T352 91T428
108Q494 145 494 348Q494 432 486 483T458 562T411 599T340 608T270 599T224 562T195 483T187 357T193 235T210 161T241 117ZM208 798L234 886L493 809L474 743L208 798Z" />
<glyph unicode="&#xd3;" glyph-name="Oacute" horiz-adv-x="681" d="M340 -13Q292 -13 253 -4T178 30T118 95Q64 182 64 351Q64 564 146 642Q186 680 232 696T340 712T447 696T534 642Q616 564 616 351Q616 108 502 30Q438 -13 340 -13ZM261 102T283 97T352 91T428
108Q494 145 494 348Q494 432 486 483T458 562T411 599T340 608T270 599T224 562T195 483T187 357T193 235T210 161T241 117ZM237 742L218 808L474 887L502 798L237 742Z" />
<glyph unicode="&#xd4;" glyph-name="Ocircumflex" horiz-adv-x="681" d="M340 -13Q292 -13 253 -4T178 30T118 95Q64 182 64 351Q64 564 146 642Q186 680 232 696T340 712T447 696T534 642Q616 564 616 351Q616 108 502 30Q438 -13 340 -13ZM261 102T283 97T352
91T428 108Q494 145 494 348Q494 432 486 483T458 562T411 599T340 608T270 599T224 562T195 483T187 357T193 235T210 161T241 117ZM202 738L171 786L313 884H374L516 786L486 738L347 798H340L202 738Z" />
<glyph unicode="&#xd5;" glyph-name="Otilde" horiz-adv-x="681" d="M340 -13Q292 -13 253 -4T178 30T118 95Q64 182 64 351Q64 564 146 642Q186 680 232 696T340 712T447 696T534 642Q616 564 616 351Q616 108 502 30Q438 -13 340 -13ZM261 102T283 97T352 91T428
108Q494 145 494 348Q494 432 486 483T458 562T411 599T340 608T270 599T224 562T195 483T187 357T193 235T210 161T241 117ZM238 870Q268 870 348 848T436 825Q449 825 465 867L528 858Q527 746 446 746Q417 746 336 769T247 793T233 783T217 750L154 758Q155
870 238 870Z" />
<glyph unicode="&#xd6;" glyph-name="Odieresis" horiz-adv-x="681" d="M340 -13Q292 -13 253 -4T178 30T118 95Q64 182 64 351Q64 564 146 642Q186 680 232 696T340 712T447 696T534 642Q616 564 616 351Q616 108 502 30Q438 -13 340 -13ZM261 102T283 97T352
91T428 108Q494 145 494 348Q494 432 486 483T458 562T411 599T340 608T270 599T224 562T195 483T187 357T193 235T210 161T241 117ZM176 764V857H297V764H176ZM389 764V857H509V764H389Z" />
<glyph unicode="&#xd7;" glyph-name="multiply" horiz-adv-x="587" d="M117 48L47 119L223 295L48 470L117 540L292 364L470 542L540 471L363 294L538 119L469 49L294 224L117 48Z" />
<glyph unicode="&#xd8;" glyph-name="Oslash" horiz-adv-x="681" d="M146 642Q186 680 232 696T341 712T454 692L470 729H566L527 647Q616 563 616 351Q616 108 502 30Q438 -13 340 -13Q275 -13 228 5L208 -39H111L154 49Q64 136 64 350T146 642ZM271 100Q301
91 349 91T428 108Q494 145 494 348Q494 476 472 532L375 328L271 100ZM411 597Q385 608 334 608T252 590Q187 553 187 348Q187 222 210 165L289 327L411 597Z" />
<glyph unicode="&#xd9;" glyph-name="Ugrave" horiz-adv-x="684" d="M97 305V699H214V332Q214 223 225 173T262 106T342 90T422 106T458 172T470 332V699H587V314Q587 124 523 54Q490 17 447 2T342 -13Q218 -13 158 57T97 305ZM185 798L211 886L470 809L451 743L185 798Z" />
<glyph unicode="&#xda;" glyph-name="Uacute" horiz-adv-x="684" d="M97 305V699H214V332Q214 223 225 173T262 106T342 90T422 106T458 172T470 332V699H587V314Q587 124 523 54Q490 17 447 2T342 -13Q218 -13 158 57T97 305ZM235 742L217 808L473 887L501 798L235 742Z" />
<glyph unicode="&#xdb;" glyph-name="Ucircumflex" horiz-adv-x="684" d="M97 305V699H214V332Q214 223 225 173T262 106T342 90T422 106T458 172T470 332V699H587V314Q587 124 523 54Q490 17 447 2T342 -13Q218 -13 158 57T97 305ZM201 738L170 786L312 884H373L515
786L484 738L346 798H339L201 738Z" />
<glyph unicode="&#xdc;" glyph-name="Udieresis" horiz-adv-x="684" d="M97 305V699H214V332Q214 223 225 173T262 106T342 90T422 106T458 172T470 332V699H587V314Q587 124 523 54Q490 17 447 2T342 -13Q218 -13 158 57T97 305ZM176 762V856H296V762H176ZM389
762V856H509V762H389Z" />
<glyph unicode="&#xdd;" glyph-name="Yacute" horiz-adv-x="547" d="M210 0L213 256L3 699H130L267 352H272L410 699H537L327 256L329 0H210ZM168 742L150 808L406 887L434 798L168 742Z" />
<glyph unicode="&#xde;" glyph-name="Thorn" horiz-adv-x="616" d="M99 343L95 699H212V611Q298 617 348 617Q450 617 505 557T560 378Q560 235 486 178Q421 129 325 129L212 134V0H95L99 343ZM211 238Q274 228 339 228T422 257T439 388T408 509Q390 524 328 524T211
516V238Z" />
<glyph unicode="&#xdf;" glyph-name="germandbls" horiz-adv-x="645" d="M97 0V474Q97 593 160 652T315 712T472 663T537 523Q537 460 509 424T447 375V369Q573 338 573 199Q573 96 514 42T363 -13Q327 -13 283 -5L295 84Q319 80 362 80T428 107T451 199T423 293T330
323H307V409Q371 414 396 438T422 518Q422 622 317 622Q263 622 239 589T214 480V0H97Z" />
<glyph unicode="&#xe0;" glyph-name="agrave" horiz-adv-x="588" d="M216 -13Q139 -13 93 35T46 180T108 321T289 365L385 364Q385 461 370 481T309 502T209 491T91 457L60 542Q74 548 97 557T185 582T302 598Q501 598 501 382V0H427L411 63H406Q395 54 377 42T308
8T216 -13ZM385 270Q344 276 274 276T187 259Q165 239 165 183T179 106T226 85T298 96T385 130V270ZM147 721L179 813L441 720L419 652L147 721Z" />
<glyph unicode="&#xe1;" glyph-name="aacute" horiz-adv-x="588" d="M216 -13Q139 -13 93 35T46 180T108 321T289 365L385 364Q385 461 370 481T309 502T209 491T91 457L60 542Q74 548 97 557T185 582T302 598Q501 598 501 382V0H427L411 63H406Q395 54 377 42T308
8T216 -13ZM385 270Q344 276 274 276T187 259Q165 239 165 183T179 106T226 85T298 96T385 130V270ZM169 652L147 720L409 813L441 721L169 652Z" />
<glyph unicode="&#xe2;" glyph-name="acircumflex" horiz-adv-x="588" d="M216 -13Q139 -13 93 35T46 180T108 321T289 365L385 364Q385 461 370 481T309 502T209 491T91 457L60 542Q74 548 97 557T185 582T302 598Q501 598 501 382V0H427L411 63H406Q395 54 377
42T308 8T216 -13ZM385 270Q344 276 274 276T187 259Q165 239 165 183T179 106T226 85T298 96T385 130V270ZM150 647L117 697L263 804H324L471 697L436 647L297 716H290L150 647Z" />
<glyph unicode="&#xe3;" glyph-name="atilde" horiz-adv-x="588" d="M216 -13Q139 -13 93 35T46 180T108 321T289 365L385 364Q385 461 370 481T309 502T209 491T91 457L60 542Q74 548 97 557T185 582T302 598Q501 598 501 382V0H427L411 63H406Q395 54 377 42T308
8T216 -13ZM385 270Q344 276 274 276T187 259Q165 239 165 183T179 106T226 85T298 96T385 130V270ZM191 786Q221 786 301 765T389 743Q402 743 418 785L481 776Q480 661 399 661Q370 661 289 683T200 706Q186 706 170 663L107 671Q108 786 191 786Z" />
<glyph unicode="&#xe4;" glyph-name="adieresis" horiz-adv-x="588" d="M216 -13Q139 -13 93 35T46 180T108 321T289 365L385 364Q385 461 370 481T309 502T209 491T91 457L60 542Q74 548 97 557T185 582T302 598Q501 598 501 382V0H427L411 63H406Q395 54 377
42T308 8T216 -13ZM385 270Q344 276 274 276T187 259Q165 239 165 183T179 106T226 85T298 96T385 130V270ZM127 677V770H251V677H127ZM338 677V770H461V677H338Z" />
<glyph unicode="&#xe5;" glyph-name="aring" horiz-adv-x="588" d="M216 -13Q139 -13 93 35T46 180T108 321T289 365L385 364Q385 461 370 481T309 502T209 491T91 457L60 542Q74 548 97 557T185 582T302 598Q501 598 501 382V0H427L411 63H406Q395 54 377 42T308
8T216 -13ZM385 270Q344 276 274 276T187 259Q165 239 165 183T179 106T226 85T298 96T385 130V270ZM188 731Q188 821 281 821T375 731Q375 683 349 663T282 642T215 662T188 731ZM261 768T253 761T244 732T253 702T281 694T309 702T318 731T310 760T282 768Z"
/>
<glyph unicode="&#xe6;" glyph-name="ae" horiz-adv-x="919" d="M225 -13Q148 -13 103 35T57 178T121 313T304 354H396Q396 458 381 480T320 502T219 491T102 457L71 543Q115 563 184 580T304 598Q417 598 467 534H471Q531 598 641 598T806 536T861 328V258H514Q514
138 545 108Q562 91 579 87T629 82T709 92T819 123L848 35Q806 16 748 2T641 -13Q509 -13 450 71H446Q399 33 335 10T225 -13ZM396 260Q358 266 289 266T198 250T176 180T193 106T244 85Q306 85 374 118L396 129V260ZM643 503Q564 503 540 468T514 345L743 349Q743
459 722 478Q694 503 643 503Z" />
<glyph unicode="&#xe7;" glyph-name="ccedilla" horiz-adv-x="534" d="M201 -94Q246 -99 271 -99T307 -93T318 -64T311 -13Q196 -13 129 61T62 294Q62 468 142 537Q214 598 332 598Q410 598 486 579L473 488Q364 502 306 502T224 478Q182 433 182 286T239 97Q260
82 293 82T370 94T467 129L501 44Q456 11 384 -5Q395 -47 395 -74Q395 -122 364 -150T281 -179Q251 -179 201 -170V-94Z" />
<glyph unicode="&#xe8;" glyph-name="egrave" horiz-adv-x="589" d="M312 -13Q62 -13 62 292T310 598Q421 598 476 534T532 322V250H183Q183 139 221 104Q246 82 288 82Q369 82 459 112L490 123L518 35Q420 -13 312 -13ZM414 372Q414 378 413 398T411 423T408
443T402 462T393 476T380 488T364 496Q350 503 311 503T246 494T207 462T189 412T184 337L414 342V372ZM148 721L180 813L442 720L420 652L148 721Z" />
<glyph unicode="&#xe9;" glyph-name="eacute" horiz-adv-x="589" d="M312 -13Q62 -13 62 292T310 598Q421 598 476 534T532 322V250H183Q183 139 221 104Q246 82 288 82Q369 82 459 112L490 123L518 35Q420 -13 312 -13ZM414 372Q414 378 413 398T411 423T408
443T402 462T393 476T380 488T364 496Q350 503 311 503T246 494T207 462T189 412T184 337L414 342V372ZM170 652L148 720L410 813L442 721L170 652Z" />
<glyph unicode="&#xea;" glyph-name="ecircumflex" horiz-adv-x="589" d="M312 -13Q62 -13 62 292T310 598Q421 598 476 534T532 322V250H183Q183 139 221 104Q246 82 288 82Q369 82 459 112L490 123L518 35Q420 -13 312 -13ZM414 372Q414 378 413 398T411 423T408
443T402 462T393 476T380 488T364 496Q350 503 311 503T246 494T207 462T189 412T184 337L414 342V372ZM150 647L117 697L263 804H324L471 697L436 647L297 716H290L150 647Z" />
<glyph unicode="&#xeb;" glyph-name="edieresis" horiz-adv-x="589" d="M312 -13Q62 -13 62 292T310 598Q421 598 476 534T532 322V250H183Q183 139 221 104Q246 82 288 82Q369 82 459 112L490 123L518 35Q420 -13 312 -13ZM414 372Q414 378 413 398T411 423T408
443T402 462T393 476T380 488T364 496Q350 503 311 503T246 494T207 462T189 412T184 337L414 342V372ZM127 677V770H251V677H127ZM338 677V770H461V677H338Z" />
<glyph unicode="&#xec;" glyph-name="igrave" horiz-adv-x="310" d="M-9 720L23 813L275 720L253 652L-9 720ZM97 0V585H213V0H97Z" />
<glyph unicode="&#xed;" glyph-name="iacute" horiz-adv-x="310" d="M44 652L22 720L274 813L306 720L44 652ZM97 0V585H213V0H97Z" />
<glyph unicode="&#xee;" glyph-name="icircumflex" horiz-adv-x="310" d="M20 649L-13 700L124 804H185L323 700L288 649L158 716H151L20 649ZM97 0V585H213V0H97Z" />
<glyph unicode="&#xef;" glyph-name="idieresis" horiz-adv-x="310" d="M1 677V770H122V677H1ZM188 677V770H308V677H188ZM97 0V585H213V0H97Z" />
<glyph unicode="&#xf0;" glyph-name="eth" horiz-adv-x="603" d="M294 660L232 706L292 770Q344 742 388 707L491 762L498 681L441 651Q532 545 537 327Q537 289 536 271Q531 132 477 60T300 -13Q65 -13 65 266Q65 383 119 452T291 521Q368 521 428 480L433 483Q412
547 352 607L241 553L233 632L294 660ZM182 154T207 117T301 79T395 116T419 257T394 394T302 428T208 395T182 258Z" />
<glyph unicode="&#xf1;" glyph-name="ntilde" horiz-adv-x="620" d="M93 0V585H169L182 527H187Q310 598 394 598T509 543T540 386V0H424V357Q424 446 413 469T362 493T279 477T209 445V0H93ZM207 786Q236 786 317 765T405 743Q418 743 434 785L497 776Q496 661
415 661Q386 661 305 683T216 706Q202 706 186 663L123 671Q124 786 207 786Z" />
<glyph unicode="&#xf2;" glyph-name="ograve" horiz-adv-x="598" d="M536 142T482 65T300 -13T117 64T62 292T116 520T299 598T482 520T536 292ZM231 79T300 79T393 120T417 292T393 464T300 505T207 464T182 293T206 121ZM152 721L184 813L446 720L424 652L152 721Z" />
<glyph unicode="&#xf3;" glyph-name="oacute" horiz-adv-x="598" d="M536 142T482 65T300 -13T117 64T62 292T116 520T299 598T482 520T536 292ZM231 79T300 79T393 120T417 292T393 464T300 505T207 464T182 293T206 121ZM174 652L152 720L414 813L446 721L174 652Z" />
<glyph unicode="&#xf4;" glyph-name="ocircumflex" horiz-adv-x="598" d="M536 142T482 65T300 -13T117 64T62 292T116 520T299 598T482 520T536 292ZM231 79T300 79T393 120T417 292T393 464T300 505T207 464T182 293T206 121ZM155 647L122 697L268 804H329L476
697L441 647L302 716H295L155 647Z" />
<glyph unicode="&#xf5;" glyph-name="otilde" horiz-adv-x="598" d="M536 142T482 65T300 -13T117 64T62 292T116 520T299 598T482 520T536 292ZM231 79T300 79T393 120T417 292T393 464T300 505T207 464T182 293T206 121ZM196 786Q226 786 306 765T394 743Q407
743 423 785L486 776Q485 661 404 661Q375 661 294 683T205 706Q191 706 175 663L112 671Q113 786 196 786Z" />
<glyph unicode="&#xf6;" glyph-name="odieresis" horiz-adv-x="598" d="M536 142T482 65T300 -13T117 64T62 292T116 520T299 598T482 520T536 292ZM231 79T300 79T393 120T417 292T393 464T300 505T207 464T182 293T206 121ZM132 677V770H256V677H132ZM343 677V770H466V677H343Z"
/>
<glyph unicode="&#xf7;" glyph-name="divide" horiz-adv-x="636" d="M44 243V342H592V243H44ZM248 28V137H387V28H248ZM248 449V559H387V449H248Z" />
<glyph unicode="&#xf8;" glyph-name="oslash" horiz-adv-x="599" d="M132 49Q63 121 63 281T117 520T300 598Q349 598 385 586L404 627H493L455 549Q536 478 536 292Q536 142 482 65T300 -13Q243 -13 199 6L179 -38H90L132 49ZM346 500Q330 505 292 505T230 489T195
428T183 295T190 166L266 324L346 500ZM300 79Q369 79 392 120T416 277T400 437L239 91Q257 79 300 79Z" />
<glyph unicode="&#xf9;" glyph-name="ugrave" horiz-adv-x="619" d="M80 199V585H196V222Q196 126 209 107Q223 90 260 90Q320 90 410 138V585H526V0H450L436 58H431Q430 57 409 45T379 29T348 15T311 0Q269 -13 235 -13Q80 -13 80 199ZM162 721L194 813L456 720L434
652L162 721Z" />
<glyph unicode="&#xfa;" glyph-name="uacute" horiz-adv-x="619" d="M80 199V585H196V222Q196 126 209 107Q223 90 260 90Q320 90 410 138V585H526V0H450L436 58H431Q430 57 409 45T379 29T348 15T311 0Q269 -13 235 -13Q80 -13 80 199ZM185 652L163 720L425 813L457
721L185 652Z" />
<glyph unicode="&#xfb;" glyph-name="ucircumflex" horiz-adv-x="619" d="M80 199V585H196V222Q196 126 209 107Q223 90 260 90Q320 90 410 138V585H526V0H450L436 58H431Q430 57 409 45T379 29T348 15T311 0Q269 -13 235 -13Q80 -13 80 199ZM165 647L132 697L278
804H339L486 697L451 647L312 716H305L165 647Z" />
<glyph unicode="&#xfc;" glyph-name="udieresis" horiz-adv-x="619" d="M80 199V585H196V222Q196 126 209 107Q223 90 260 90Q320 90 410 138V585H526V0H450L436 58H431Q430 57 409 45T379 29T348 15T311 0Q269 -13 235 -13Q80 -13 80 199ZM142 677V770H266V677H142ZM353
677V770H476V677H353Z" />
<glyph unicode="&#xfd;" glyph-name="yacute" horiz-adv-x="499" d="M117 -166L199 54L-5 585H124L248 173H253L375 585H497L292 34L237 -166H117ZM125 652L103 720L365 813L397 721L125 652Z" />
<glyph unicode="&#xfe;" glyph-name="thorn" horiz-adv-x="613" d="M211 97Q288 83 330 83T389 98Q431 133 431 306Q431 410 425 433T416 467T407 483T397 493T385 498T371 500T355 501T326 500Q283 500 211 480V97ZM96 -166V757H211V579Q296 598 351 598Q450
598 500 526T550 297Q550 -13 328 -13Q293 -13 211 0V-166H96Z" />
<glyph unicode="&#xff;" glyph-name="ydieresis" horiz-adv-x="499" d="M117 -166L199 54L-5 585H124L248 173H253L375 585H497L292 34L237 -166H117ZM83 677V770H207V677H83ZM294 677V770H417V677H294Z" />
<glyph unicode="&#x2013;" glyph-name="endash" horiz-adv-x="589" d="M547 376V278H42L43 376H547Z" />
<glyph unicode="&#x2014;" glyph-name="emdash" horiz-adv-x="824" d="M62 278V376H762V278H62Z" />
<glyph unicode="&#x2018;" glyph-name="quoteleft" horiz-adv-x="235" d="M55 535Q55 666 127 736L183 698Q155 653 155 584L161 465H59Q55 493 55 535Z" />
<glyph unicode="&#x2019;" glyph-name="quoteright" horiz-adv-x="235" d="M183 651Q183 520 111 450L55 489Q83 533 83 602L76 722H179Q183 684 183 651Z" />
<glyph unicode="&#x201a;" glyph-name="quotesinglbase" horiz-adv-x="258" d="M112 -138L56 -100Q84 -57 84 13L78 133H179Q184 98 184 62Q183 -71 112 -138Z" />
<glyph unicode="&#x201c;" glyph-name="quotedblleft" horiz-adv-x="411" d="M338 465H235Q231 493 231 534Q232 656 305 729L359 694Q332 652 332 583L338 465ZM52 535Q52 668 124 738L180 700Q152 655 152 584L158 465H56Q52 493 52 535Z" />
<glyph unicode="&#x201d;" glyph-name="quotedblright" horiz-adv-x="411" d="M180 653Q180 531 106 457L52 493Q79 533 79 604L73 722H176Q180 694 180 653ZM360 651Q360 518 288 448L232 487Q260 531 260 602L253 722H356Q360 684 360 651Z" />
<glyph unicode="&#x201e;" glyph-name="quotedblbase" horiz-adv-x="449" d="M110 -138L54 -101Q82 -60 82 11L76 132H177Q182 97 182 61Q181 -73 110 -138ZM362 60Q362 -75 291 -140L235 -102Q263 -61 263 10L257 132H358Q362 104 362 60Z" />
<glyph unicode="&#x2022;" glyph-name="bullet" horiz-adv-x="392" d="M330 359T292 326T197 292T101 325T62 429T100 531T196 563T291 531T330 429Z" />
<glyph unicode="&#x2039;" glyph-name="guilsinglleft" horiz-adv-x="300" d="M182 83L32 337L182 590L269 538L146 340V334L269 136L182 83Z" />
<glyph unicode="&#x203a;" glyph-name="guilsinglright" horiz-adv-x="300" d="M31 136L154 334V340L31 538L119 590L268 337L119 83L31 136Z" />
</font>
</defs>
</svg>
