<?xml version="1.0" standalone="no"?>
<!DOCTYPE svg PUBLIC "-//W3C//DTD SVG 1.1//EN" "http://www.w3.org/Graphics/SVG/1.1/DTD/svg11.dtd">
<svg xmlns="http://www.w3.org/2000/svg">
<defs >
<font id="TradeWinds" horiz-adv-x="520" ><font-face
    font-family="Trade Winds"
    units-per-em="1024"
    panose-1="2 0 0 0 0 0 0 0 0 0"
    ascent="1019"
    descent="-469"
    alphabetic="0" />
<glyph unicode=" " glyph-name="space" horiz-adv-x="317" />
<glyph unicode="!" glyph-name="exclam" horiz-adv-x="307" d="M283 755Q288 747 289 737T292 716Q296 701 305 690T311 659Q309 642 298 625T283 589Q281 574 283 560T283 532Q282 521 274 509T259 484Q246 459 239 435T222 382Q217 368 213 353T209 326Q209
319 211 314T212 303Q211 297 205 290T194 275Q187 269 183 262T173 250Q161 233 156 219T140 193Q136 187 126 181T111 174Q107 174 100 177T86 184T74 193T67 201Q61 214 68 230T79 262Q81 269 80 277T81 291Q83 303 88 312T93 335Q92 347 88 356T79 379Q82 409
93 437T110 493Q111 496 111 499T111 506Q113 511 116 516T120 526Q121 532 120 538T118 549Q120 559 124 568T133 589Q137 599 139 612T146 637Q150 648 154 660T160 683Q162 697 163 708T172 730Q183 736 192 745T210 764Q230 767 248 763T283 755ZM67 141Q83
142 99 137T128 123T149 102T157 73Q157 66 155 56T148 36T140 17T131 4Q128 0 119 -6T103 -14Q89 -18 72 -18T38 -13T11 0T-4 22Q-5 27 -5 33T-4 45Q-3 48 -1 50T3 57Q4 63 3 71T3 86Q4 89 7 93T15 103T23 113T30 120Q38 127 47 131T67 141Z" />
<glyph unicode="&quot;" glyph-name="quotedbl" horiz-adv-x="268" d="M202 740Q209 715 201 689T186 644Q174 601 164 552T138 467Q132 454 121 440T97 427Q91 428 86 435T77 452T70 475T67 498Q67 518 74 541T87 587Q90 603 92 618T99 649Q104 663 108 678T118
708T131 733T147 750Q161 758 175 754T202 740ZM335 746Q337 741 340 735T345 724Q345 704 342 689T333 659T321 632T308 602Q297 570 292 537T274 476Q272 471 268 464T259 449T247 438T236 433Q230 433 224 440T215 459T209 483T208 508Q209 523 215 539T226
574Q231 594 235 619T243 668T255 713T273 744Q279 750 287 751T303 751T319 748T335 746Z" />
<glyph unicode="#" glyph-name="numbersign" horiz-adv-x="654" d="M338 742Q344 720 336 697T318 647Q312 630 310 619T303 593Q300 583 296 571T296 549Q298 547 302 545T312 542Q330 540 339 542T366 544Q378 543 391 541T416 537T438 538T456 552Q458 560
459 565T462 574T465 583T469 596Q471 601 471 605T474 615Q476 622 481 627T488 637Q498 656 501 676T513 716Q535 722 561 723T604 719Q607 702 598 689T584 665Q581 658 580 652T577 637Q575 632 572 627T567 614Q565 608 565 602T562 590Q557 575 553 569T551
547Q564 542 578 543T607 546T634 548T658 538Q661 524 655 515T643 497Q635 483 628 470T605 451Q593 447 583 447T562 447T542 448T522 444Q516 442 511 434T502 414T495 392T490 373Q488 363 488 356T489 340Q485 334 479 323T468 307Q469 302 470 297T474 287Q488
287 499 287T520 288T542 289T568 287Q570 283 573 281T579 274Q577 262 573 247T562 220T546 198T527 186Q521 185 517 185T508 186T499 187T486 188Q476 187 466 185T442 182Q434 162 429 140T420 95T409 50T393 8Q386 2 376 -4T355 -13T332 -16T311 -7Q307 5
305 16T307 41Q309 49 314 55T322 69Q324 77 323 86T323 103Q327 123 332 138T343 171Q323 171 305 172T269 173T233 173T194 168Q186 150 181 135T168 101Q158 76 154 50T133 4Q120 6 110 4T91 0T74 -2T57 4Q50 9 49 18T45 36Q55 60 62 81T79 127Q82 135 87 141T90
158Q78 161 67 161T46 160T24 159T-1 160Q-5 164 -5 168T-4 176T-1 186T1 196Q1 200 -1 203T-4 211Q-4 223 3 235T15 258Q30 260 48 259T78 264Q93 260 104 260T126 271Q127 285 131 303T142 340T153 376T163 407Q166 418 171 429T166 452Q146 448 136 451T106
454Q92 453 79 451T55 459Q55 470 56 482T59 507T67 528T83 542Q97 537 110 540T139 545Q151 546 160 543T176 537T189 536T203 547Q209 555 207 563T210 583Q214 592 217 592T226 601Q227 607 223 610T217 621Q216 632 222 645T233 672Q238 687 240 701T249 723Q258
728 269 728T290 729Q296 730 302 733T314 739T326 743T338 742ZM391 446Q377 447 365 448T341 449T316 450T285 447Q283 443 279 443T272 439Q264 425 257 403T244 358T233 311T221 272Q231 267 237 267T257 267Q267 267 283 267T315 266T345 268T365 274Q369
277 374 288T382 305Q387 319 392 340T402 376Q408 390 415 408T423 440Q418 448 409 447T391 446Z" />
<glyph unicode="$" glyph-name="dollar" horiz-adv-x="479" d="M339 716Q349 712 350 697Q357 691 364 686T371 671Q371 664 364 657T359 643Q360 639 365 636T378 629T393 622T404 617Q427 604 442 581T463 529Q466 513 462 498T450 470T429 447T403 433Q398
431 392 431T380 428Q366 424 349 421T321 428Q316 432 312 438T306 452T304 466T308 474Q313 476 321 480T336 488Q345 492 349 496T354 506T356 519T360 538Q357 543 349 542T335 543Q330 545 329 549T323 558Q319 561 315 562T307 565Q291 572 275 571T243 563T217
545T199 520Q197 515 193 500T189 476Q190 468 198 460T214 443Q226 430 229 421T248 401Q253 398 260 393T271 386Q284 380 295 376T317 364Q320 362 322 360T327 355Q344 344 358 329T392 305Q397 291 399 274T411 246Q406 210 397 181T366 132Q351 119 327 107T280
87Q256 80 226 80Q221 76 218 68T210 52T200 37T189 26Q183 23 176 23T160 22Q149 19 139 17T122 26Q119 32 120 41T123 59T127 78T127 95Q120 95 115 95T104 96Q88 100 71 110T38 135T12 167T0 204Q-2 224 8 245Q11 250 16 257T27 272T41 284T55 292Q63 294 77
295T100 296Q114 295 124 286T132 266Q127 254 118 248T103 224Q101 213 110 207T124 190Q127 185 128 177T134 166Q144 161 153 166T170 174Q208 163 233 171T280 202Q286 227 278 244Q273 253 266 263T250 281Q237 288 223 292T208 313Q199 310 191 312T174 318T159
328T146 338Q141 342 137 345T128 353Q121 358 117 361T110 369T103 378T95 390Q91 397 82 403T70 417Q59 443 63 466T76 519Q77 523 77 526T78 534Q80 538 84 541T93 548T99 557T100 570Q117 583 132 599T167 626Q175 631 190 633T217 639Q232 642 245 646T282
648Q289 657 292 668T301 690T314 708T339 716Z" />
<glyph unicode="%" glyph-name="percent" horiz-adv-x="641" d="M670 693Q659 686 653 676T639 656Q632 648 622 642T602 627Q598 624 595 620T588 612Q585 608 581 605T573 599Q557 582 545 562T516 527Q506 519 492 513T468 495Q463 489 459 483T450 468Q440
456 429 444T411 422Q406 415 403 408T395 394Q384 379 370 364T343 336Q338 330 332 323T317 307Q306 295 297 287T286 261Q266 241 243 216T201 166Q185 150 172 134Q168 129 165 123T158 112Q141 89 121 69T86 29Q78 19 71 7T54 -9Q46 -12 31 -11T8 -6Q0 -2
-5 9T-10 26Q-8 34 -2 42T11 57Q28 76 41 93T70 129Q83 133 93 142T111 163T128 187T147 209Q148 213 148 215T151 223Q186 261 223 304T296 392Q306 405 321 420Q333 435 342 446T370 463Q372 470 371 475T370 486Q412 531 454 573T535 667Q516 667 495 663T453
655T413 651T380 660Q374 625 363 590T331 527Q322 516 314 510T297 494Q292 487 288 481T278 468Q266 455 249 441T213 416T172 399T129 396Q103 401 88 414T63 445Q58 455 57 471T58 507T68 545T87 582Q92 588 99 594T111 607Q115 612 117 617T123 627Q130 635
139 642T157 657Q166 667 174 675T189 689Q197 694 207 698T229 710Q243 718 253 727T275 740Q287 743 305 745T334 744Q349 740 359 729T387 712Q413 701 447 704T514 716Q534 720 552 722T584 729Q597 734 608 743T633 758Q637 762 648 761T664 758Q668 756 673
747T677 732Q676 723 671 713T670 693ZM203 606Q197 598 191 591T181 578Q175 567 168 553T156 524T151 497T158 478Q165 473 174 473T194 475T213 483T229 494Q246 507 260 526T281 567Q294 575 303 590T317 623T322 656T315 681Q296 682 280 676T251 659T225
634T203 606ZM465 335Q472 336 483 336T506 337T529 334T547 329Q550 328 552 324T559 316Q567 311 575 307T586 292Q588 282 586 265T580 236Q575 211 567 192T547 153Q527 116 502 88T445 38Q432 29 416 19T381 2T346 -5T312 4Q307 6 305 10T297 17Q283 25 273
28T258 46Q252 61 253 78T263 125Q267 138 270 147T278 164T288 179T299 197Q313 219 324 234T352 265Q357 270 362 274T373 283Q391 300 413 316T465 335ZM473 274Q464 274 456 268T440 252T425 234T411 220Q399 197 384 180T361 136Q360 132 363 131T364 125Q353
113 351 101T352 79T367 67T393 69Q407 74 418 86T440 112Q448 120 457 131T474 154T490 179T501 204Q503 209 503 214T506 225Q508 230 511 235T515 245Q517 255 508 263T485 267Q483 271 482 272T473 274Z" />
<glyph unicode="&amp;" glyph-name="ampersand" horiz-adv-x="801" d="M903 739Q902 735 903 733T902 725Q899 716 888 709T862 694T832 681T804 669Q798 665 792 661T778 651Q763 643 746 639T714 629Q699 624 683 619T650 609T616 605T582 611Q571 616 559 624T538
639Q527 647 521 650T514 669Q505 667 499 668T487 671T478 676T469 681Q457 684 443 683T414 678T387 668T368 653Q363 648 355 638T340 615T327 591T321 569Q319 562 322 560T325 551Q326 541 324 531T321 509Q319 485 328 463T351 436Q358 434 365 432T382 428Q394
426 410 427T432 423Q433 422 434 417T435 407T435 396T434 388Q433 384 429 378T419 365T409 354T399 348Q388 345 374 345T348 342Q322 338 304 334T260 317Q252 314 246 307T230 292Q220 284 212 280T196 264Q190 247 179 229T162 191Q157 171 157 147T165 113Q167
110 171 107T180 100Q190 92 203 84T237 76Q252 75 269 76T301 79Q308 81 315 83T330 86Q338 87 344 87T358 88Q382 94 400 108T438 135Q450 143 462 147T485 163Q495 190 502 216T506 267Q493 262 482 259T461 247Q456 244 453 239T445 229Q441 225 437 222T427
214Q413 203 399 198T365 183Q360 187 352 191T339 204Q337 207 337 212T336 222Q334 230 330 236T326 247Q327 257 332 264T343 281Q366 299 395 307T458 326Q478 332 497 343T536 356Q554 358 571 355T607 352Q621 353 636 356T665 361Q672 362 678 361T690 361Q712
365 729 373T766 390Q774 386 773 377T771 356Q771 352 773 348T774 339Q773 334 769 329T761 320T753 310T749 299Q720 285 683 278T607 273Q604 244 599 214T590 155T588 101T600 56Q608 42 618 28T640 5Q651 -2 665 -6T690 -20Q683 -32 671 -37T645 -42T615
-39T587 -33Q570 -47 555 -49T526 -37Q516 -27 509 -13T498 20T494 57T500 97Q487 91 476 83T453 66Q442 58 430 49T406 35Q398 32 390 31T373 26Q353 18 331 8T286 -10Q263 -12 239 -18T185 -20Q167 -18 151 -13T118 -1Q113 1 107 1T95 3Q85 6 76 13T55 25Q38
33 25 38T1 58Q-2 63 -6 72T-13 93T-18 114T-20 131Q-22 155 -17 176T-5 223Q0 233 13 237T31 251Q35 258 33 265T33 280Q35 288 42 296T58 313T76 327T92 338Q122 355 157 369T227 397Q215 410 194 420Q186 425 176 426T158 432Q155 435 153 443T147 456Q141 467
135 477T131 507Q137 519 136 523T134 532Q136 567 149 601T181 660Q185 665 190 670T200 678Q210 686 221 688T245 697Q255 702 259 710T272 724Q280 731 295 737T324 748Q338 753 354 757T381 763Q407 765 429 760T478 750Q487 748 497 748T517 745Q539 739 560
732T603 719T647 711T692 715Q706 719 718 728T744 740Q754 742 763 739T784 734Q797 732 813 731T842 731Q850 732 857 735T872 740T887 743T903 739Z" />
<glyph unicode="&apos;" glyph-name="quotesingle" horiz-adv-x="128" d="M202 740Q209 715 201 689T186 644Q174 601 164 552T138 467Q132 454 121 440T97 427Q91 428 86 435T77 452T70 475T67 498Q67 518 74 541T87 587Q90 603 92 618T99 649Q104 663 108 678T118
708T131 733T147 750Q161 758 175 754T202 740Z" />
<glyph unicode="(" glyph-name="parenleft" horiz-adv-x="298" d="M213 497Q212 471 199 444T180 390Q171 350 163 310T153 234Q153 225 154 216T155 196Q154 185 156 176T156 158Q155 153 152 149T147 139Q145 134 149 129T156 118Q158 111 158 103T161 88Q165
77 168 67T175 48Q178 41 183 36T193 23Q196 17 197 11T201 -2Q203 -5 208 -11T218 -24T227 -38T231 -50Q231 -60 225 -62T211 -65T193 -63T178 -62Q168 -66 164 -60T151 -49Q145 -46 138 -46T126 -42Q121 -39 117 -31T108 -15Q97 -1 90 13T74 42Q69 50 64 56T56
69Q54 73 54 78T52 86Q50 91 47 93T43 100Q40 111 38 124T34 151Q32 165 33 178T34 206Q34 211 32 216T31 227Q32 237 36 245T42 262Q45 273 45 284T43 306Q43 310 41 314T39 324Q40 339 45 359T56 396Q60 410 67 425T81 456Q88 472 93 487T104 516Q109 525 116
532T129 548T140 564T145 582Q159 599 172 619T203 657Q208 665 215 670T228 682Q248 705 267 727T306 764Q317 772 338 783T374 800Q378 801 387 803T407 805T426 805T436 799Q437 787 432 781T421 770Q405 759 391 743T361 711Q317 665 283 609T213 497Z" />
<glyph unicode=")" glyph-name="parenright" horiz-adv-x="288" d="M75 241Q76 267 88 293T108 348Q117 387 125 428T135 504Q135 513 134 522T133 542Q134 552 132 562T132 580Q133 585 136 589T140 598Q142 603 138 608T132 620Q130 627 130 634T127 649Q123
660 120 670T113 689Q110 696 104 702T94 715Q92 720 91 726T87 739Q85 743 80 749T69 761T60 775T56 787Q56 797 62 800T77 803T95 800T110 800Q120 803 124 797T137 786Q142 783 149 783T161 779Q166 776 170 768T180 753Q191 739 198 725T214 695Q219 688 223
682T231 669Q233 665 233 660T236 651Q238 646 241 644T245 638Q248 627 250 614T254 588Q256 573 255 559T254 531Q254 526 256 521T257 510Q256 501 252 492T245 475Q243 464 243 453T245 432Q245 427 247 423T249 414Q248 398 242 378T231 341Q226 327 220 312T207
282Q200 265 195 250T183 222Q178 213 172 206T158 190T147 174T142 156Q128 139 115 119T85 80Q80 73 73 68T59 55Q40 33 21 11T-18 -26Q-24 -30 -32 -35T-50 -46T-69 -55T-86 -62Q-90 -64 -100 -65T-120 -67T-139 -67T-148 -61Q-150 -50 -145 -44T-133 -33Q-118
-21 -104 -5T-74 27Q-29 72 5 128T75 241Z" />
<glyph unicode="*" glyph-name="asterisk" horiz-adv-x="445" d="M287 736Q290 740 292 744T299 752Q314 753 330 754T359 755T383 750T398 736Q402 725 392 712T375 687Q364 672 360 660T350 631Q344 617 335 608T324 582Q338 587 349 595T377 610Q386 613 392
620T407 633Q420 641 437 648T470 655Q476 641 478 623T481 585T478 546T470 512Q451 501 431 504T394 508Q391 514 384 514T368 514Q354 515 346 515T326 505Q329 493 337 486T357 474T380 464T402 452Q410 447 419 438T426 416Q426 414 422 408T414 395T405 382T398
374Q393 370 383 367Q378 362 372 354T355 339Q349 336 341 332T325 325T309 320T299 319Q291 322 291 330T285 344Q292 358 288 370T282 397Q282 402 283 407T283 418Q282 426 278 433T272 450Q270 456 271 462T268 471Q256 467 253 457T244 436Q238 424 226 409T209
379Q206 371 205 362T200 347Q195 341 185 337T166 332Q158 331 154 334T141 342Q133 346 125 348T112 355Q100 367 94 382T86 418Q94 426 104 435T125 442Q150 464 176 483T226 523Q215 527 200 526T170 523Q162 530 150 530T124 531T98 530T77 538Q82 551 81
566T86 597Q89 605 95 614T106 632Q113 643 122 655T144 669Q160 671 170 657T184 628Q194 623 207 612T231 593Q236 591 246 590T261 593Q263 614 261 631T255 664T249 696T249 732Q257 734 258 740T265 749Q273 751 276 745T287 736Z" />
<glyph unicode="+" glyph-name="plus" horiz-adv-x="579" d="M325 411Q334 406 348 405T380 404T415 404T451 402Q455 401 458 400T466 398Q471 398 486 400T518 403T547 404T558 393Q556 385 547 379T531 368Q521 359 515 351T501 336Q479 323 454 322T403 324T352
330T303 329Q298 311 299 295T295 259Q294 254 292 249T287 239Q285 228 285 215T280 186Q276 175 272 161T263 134Q260 127 256 117T247 102Q244 99 237 98T222 95T206 93T193 93Q183 93 173 101T163 116Q169 145 180 176T205 227Q205 234 201 235T195 244Q195
250 198 258T204 276Q206 290 207 303T214 329Q192 331 171 330T128 331Q115 333 104 336T78 338Q61 336 41 329T1 321Q-4 338 6 359T26 399Q50 408 74 408T125 407T179 404T236 406Q240 416 242 426T247 447T253 467T267 485Q270 506 273 528T281 572T293 614T314
653Q330 657 345 662T372 663Q374 662 375 658T379 650Q381 645 383 643T386 636Q387 622 376 597T358 548Q354 535 354 522T351 501Q347 493 340 489T331 479Q325 466 328 446T325 411Z" />
<glyph unicode="," glyph-name="comma" horiz-adv-x="197" d="M-16 -116Q-24 -111 -32 -106T-39 -92Q-39 -88 -35 -78T-26 -56T-16 -33T-11 -15Q-19 -19 -29 -22T-50 -19Q-63 -12 -68 1T-72 29T-65 60T-48 86Q-39 96 -30 99T-11 102T10 98T36 92Q49 79 58 60T61
12Q58 -1 53 -21T41 -53Q32 -70 16 -87T-16 -116Z" />
<glyph unicode="-" glyph-name="hyphen" horiz-adv-x="473" d="M434 390Q448 372 441 354T418 326Q414 324 410 324T401 321Q391 316 385 309T370 299Q362 298 352 300T330 305Q307 307 281 306T231 305Q211 305 195 307T168 318Q144 311 117 306T63 304Q46 306
31 312T0 318Q-2 330 1 339T11 357T23 373T34 388Q44 392 54 392T75 392T97 388T120 387Q126 387 131 389T143 392Q153 393 163 393T184 392Q194 392 205 393T222 392Q229 391 234 386T247 381Q252 381 256 384T268 390Q276 392 287 392T310 393T331 393T347 394Q369
396 390 394T434 390Z" />
<glyph unicode="." glyph-name="period" horiz-adv-x="197" d="M22 103Q38 100 52 82T62 41Q56 13 34 -4T-17 -28Q-32 -30 -45 -21T-65 2T-72 34T-62 66Q-57 73 -49 77T-32 87Q-26 92 -18 98T0 106Q5 106 11 105T22 103Z" />
<glyph unicode="/" glyph-name="slash" horiz-adv-x="392" d="M342 535Q342 530 343 526T342 517Q337 506 332 497T317 482Q282 425 246 371T172 263Q151 224 128 188T78 118Q75 113 74 102T68 83Q64 78 56 73T43 57Q41 52 40 47T36 37Q34 33 29 25T17 8T4 -8T-7
-16Q-11 -17 -23 -15T-38 -11Q-43 -9 -49 -7T-61 -3Q-61 1 -63 5T-69 13T-75 22T-77 31Q-76 38 -70 46T-56 62T-40 78T-27 94Q-13 112 -5 131T13 168Q24 185 36 204T63 241Q78 258 92 275T119 309Q122 314 123 319T128 330Q134 338 142 345T158 360Q170 375 178
390T203 415Q205 421 203 424T201 432Q211 448 216 464T231 496Q239 508 250 518T263 545Q282 566 299 592T336 644Q342 653 350 661T365 678Q368 683 369 687T374 696Q376 701 381 707T392 719Q397 726 401 731T411 739Q419 743 430 743T453 738T471 728T479 713Q479
699 469 690T451 672Q445 664 440 656T430 639Q414 617 398 594T365 551Q357 548 352 544T342 535Z" />
<glyph unicode="0" glyph-name="zero" horiz-adv-x="686" d="M482 57Q437 14 373 -9T223 -24Q196 -20 175 -6T136 23Q131 27 127 29T120 35Q116 40 114 45T106 56Q98 65 89 71T75 84Q69 92 68 102T58 120Q57 142 53 162T44 202T35 242T31 286Q31 298 35 311T37
337Q36 346 31 353T26 371Q27 388 38 405T55 439Q58 452 56 464T57 490Q59 497 66 505T78 521Q92 545 107 568T139 610Q152 624 164 636T193 659Q209 671 224 683T255 706T289 727T328 742Q360 752 390 755T452 754Q466 752 488 745T524 732Q543 723 555 707T579
673Q584 665 591 659T602 648Q609 634 613 616T623 579Q627 563 634 548T647 516T657 481T659 440Q657 414 652 380T640 319Q637 306 632 291T620 266Q613 258 606 256T593 246Q590 241 589 233T587 220Q586 212 587 206T588 191Q588 182 582 173T567 154T550 137T534
122Q519 105 508 90T482 57ZM475 411Q479 423 476 437T475 467Q477 483 478 495T479 523Q477 565 467 596T433 644Q421 643 411 645T389 645Q376 642 365 634T344 616T325 595T307 577Q296 555 287 538T267 497Q262 485 256 475T245 455Q238 438 235 416T223 379Q220
374 216 372T209 366Q207 363 208 359T211 350T214 340T214 330Q206 298 206 267T210 209Q212 198 213 186T217 164Q225 138 234 119T265 91Q267 89 266 86T266 80L290 77Q299 88 313 96T338 116Q345 124 358 137T379 164L394 188Q398 196 402 202T410 214Q422
239 428 263T441 314Q445 331 451 348T453 381Q457 389 465 395T475 411Z" />
<glyph unicode="1" glyph-name="one" horiz-adv-x="470" d="M434 707Q432 692 430 675T427 641T423 607T417 577Q412 556 400 534T379 490Q371 457 362 421T343 349Q340 338 336 327T329 304Q328 293 328 283T327 261Q319 228 309 196T292 132Q288 112 286 91T289
49Q292 37 301 31T316 10Q314 5 312 3T308 -5Q287 -11 273 -7T239 1Q228 2 214 2T185 1Q174 0 157 0T129 -1Q114 -3 98 -5T69 -9Q56 -12 41 -19T11 -29T-13 -30T-26 -8Q-3 9 26 24T77 63Q84 73 94 90T110 121Q112 129 112 137T113 153Q115 164 119 175T127 200Q134
233 142 260T163 317Q165 323 168 328T172 337Q173 344 171 350T168 364Q169 385 180 408T196 456Q199 469 199 481T203 505Q208 525 213 541T224 575Q197 569 175 552T129 519Q126 516 125 513T120 506Q114 502 105 500T87 497T71 499T62 511Q59 523 65 532T82
547T103 560T120 572Q147 629 204 659Q207 671 215 679T233 695T254 709T272 724Q280 732 285 743T298 759Q312 767 329 765T359 754Q361 748 362 742T369 732Q374 729 384 729T399 728Q410 724 418 718T434 707Z" />
<glyph unicode="2" glyph-name="two" horiz-adv-x="606" d="M344 110Q349 107 352 103T360 96Q367 92 375 89T392 82Q400 78 408 73T422 66Q439 61 458 66T489 78Q498 82 507 77T532 65Q537 54 532 42T521 24Q519 21 512 16T495 7T477 -2T462 -7Q457 -9 451 -8T439
-8Q428 -10 416 -13T393 -17Q378 -19 360 -19T323 -17Q305 -17 295 -15T269 -9Q258 -6 249 -2T229 5Q217 7 209 8T194 11T180 12T164 13Q137 14 113 10Q102 8 95 2T76 -9Q61 -14 43 -16T16 -16Q5 -13 3 -5T-4 11Q-5 33 -5 50T0 87Q5 107 20 129T43 172Q45 177 45
182T46 193Q48 198 57 202T68 211Q70 214 70 217T72 224Q81 243 95 259T125 291T157 320T185 350Q207 365 222 374T253 392T286 411T329 439Q333 453 341 464T357 484T373 503T388 524Q398 544 406 566T408 612Q405 624 395 631T372 641T344 644T316 639Q309 637
300 633T281 625T264 615T252 606Q244 594 238 575T225 540Q215 514 194 499T143 482Q135 481 126 481T113 483Q106 485 101 492T92 509T89 530T92 553Q95 562 104 570T118 587Q134 612 146 633T177 670Q183 675 192 678T210 687Q218 692 226 696T243 706Q270 723
295 738T353 762Q368 757 381 759T412 760Q436 758 458 750T499 731T534 706T566 679Q576 662 574 639T574 589Q576 575 576 557T573 520T563 487T542 465Q540 452 538 445T532 432T525 421T515 406Q511 399 507 392T499 380Q495 375 490 373T480 367Q466 353 454
345T431 323Q411 301 392 285T351 249Q331 241 315 230T285 200Q261 192 246 172T220 124Q228 122 242 123T273 123Q279 123 290 121Q299 119 312 117T344 110Z" />
<glyph unicode="3" glyph-name="three" horiz-adv-x="606" d="M443 401Q452 388 469 382T502 367Q522 346 525 318T526 252Q526 247 525 241T522 227Q517 209 509 190T492 152T472 118T453 90Q438 72 418 60T381 40Q374 40 373 43T366 48Q358 34 349 26T327 11T301
1T268 -9Q246 -17 218 -20T157 -25Q132 -26 119 -25T86 -24Q70 -24 54 -22T25 -16T1 -6T-13 10Q-17 20 -15 27T-5 39T13 48T36 55Q48 58 58 59T81 63T106 68T137 76Q152 81 160 83T182 94Q196 103 209 106T234 119Q241 124 245 129T254 140Q263 148 277 154T297
172Q291 181 293 186T299 198T309 212T317 236Q320 255 317 271T306 300Q306 306 308 309T310 319Q296 335 274 339T226 341Q214 340 202 335T182 332Q176 333 172 341T164 359T160 380T159 396Q163 413 177 422T202 440Q247 449 280 465T348 503Q353 519 364 528T383
553Q383 558 378 559T374 567Q379 581 382 587T388 599T390 611T385 630Q381 644 369 653T336 663Q328 663 317 661T293 654T271 645T255 636Q249 631 239 627T227 615Q223 604 225 592T223 565Q219 552 209 543T187 525Q179 520 165 518T138 517Q126 519 116 527T94
538Q92 543 90 549T86 561Q92 584 96 603T112 638Q130 661 153 677T202 709Q215 716 226 724T250 738Q264 746 279 749T306 761Q333 761 361 765T416 771Q431 771 446 767T477 758T507 747T536 741Q544 730 555 725T572 707Q576 700 575 693T579 680Q581 675 586
672T594 665Q602 652 604 633T606 599Q605 573 591 547T566 493Q513 438 443 401Z" />
<glyph unicode="4" glyph-name="four" horiz-adv-x="637" d="M606 739Q601 733 599 725T592 709Q589 703 584 699T577 689Q572 681 570 672T564 652Q562 644 558 636T551 620Q544 599 540 573T527 527Q525 522 522 518T516 509Q515 506 515 503T514 497Q511 489
506 483T499 472Q498 467 499 461T500 450Q499 439 496 431T489 413Q485 398 483 382T476 350Q471 329 464 315T461 281Q476 276 487 280T513 285Q518 286 522 285T531 283Q549 283 567 286T598 280Q596 267 588 259T569 242T550 225T538 202Q512 199 495 197T452
190Q434 170 428 144Q420 115 413 86T399 25Q398 17 398 9T395 -4Q389 -14 378 -17T355 -28Q350 -30 345 -35T335 -41Q322 -44 312 -41T294 -32T280 -19T266 -8Q253 -3 253 0T250 6Q239 11 230 12T215 24Q221 33 227 51T239 89T249 129T254 163Q212 165 164 160T73
157Q68 165 60 169T44 181Q39 186 28 194T10 208Q2 214 -4 217T-10 239Q-10 241 -9 247T-7 255Q1 278 19 296T57 337Q75 358 90 378T122 415Q127 421 130 427T137 437Q144 443 151 445T165 452T176 462T179 481Q196 504 213 525T251 567Q257 573 262 582T272 601T284
620T299 635Q303 646 310 654T327 669T343 685T355 705Q363 711 367 719T382 732Q391 737 404 738T431 739Q446 738 471 740T524 743T574 745T606 739ZM324 469Q313 458 306 449T292 430T281 411T266 391Q264 385 258 377T243 361T228 348T220 342Q214 333 210
320T197 299Q193 295 189 293T181 289T175 282T172 271Q195 267 226 267T284 271Q291 305 298 332T314 384T332 436T352 493Q356 501 358 508T365 527Q351 510 344 499T331 481Q326 473 324 469Z" />
<glyph unicode="5" glyph-name="five" horiz-adv-x="600" d="M641 729Q639 689 611 668T548 641Q543 639 539 637T528 634Q516 631 503 631T475 631T447 632T421 628Q405 624 394 620T360 616Q354 616 352 618T349 623T347 626T340 627Q329 623 327 609T321 582Q316
568 312 562T308 542Q301 538 295 531T289 513Q289 509 291 505T294 496Q294 488 293 487T290 476Q286 462 285 454T275 435Q286 436 292 437T306 443Q321 448 333 446T365 447Q372 449 377 449T386 450T396 448T410 443Q417 440 427 437T447 428T465 418T478 406Q480
401 482 395T486 383Q491 375 496 366T503 350Q504 343 501 335T499 319Q501 312 507 311T517 305Q519 302 519 297T521 288Q526 227 506 186Q498 169 481 151T449 118Q434 103 420 88T388 58Q375 48 356 38T319 19Q289 5 247 -5T166 -20Q157 -28 138 -30T98 -34Q82
-35 63 -34T26 -28T-3 -15T-15 8Q-15 21 -1 30T34 46T78 55T118 61Q136 65 154 73T189 91Q200 97 209 100T222 117Q229 121 237 124T252 130T267 138T280 153Q291 171 300 182T321 208Q326 214 334 217T342 229Q343 237 337 240T326 246Q329 253 327 261T322 279T314
297T307 313Q294 327 267 330T213 330Q201 328 190 323T167 310T143 297T118 290Q112 294 110 298T102 309Q100 313 95 318T87 328Q86 333 87 339T87 352Q85 357 83 360T77 366T72 373T70 386Q70 405 79 425T96 466Q101 483 107 500T119 537Q127 564 135 591T148
648Q151 663 153 677T160 702Q180 717 199 732T248 754Q265 752 280 756T313 759Q324 758 329 755T339 749T350 742T368 737Q387 734 410 733T457 731Q492 730 524 726T592 727Q606 730 619 734T641 729Z" />
<glyph unicode="6" glyph-name="six" horiz-adv-x="600" d="M307 488Q313 491 323 491T342 493Q348 495 353 494T366 493Q371 494 374 493T380 489T387 485T400 482Q403 481 409 477T423 466T438 455T449 446Q472 431 490 401T511 335Q513 317 516 305T506 284Q515
268 515 256T514 223Q511 198 506 181T492 141Q486 130 471 118T449 93Q436 70 422 56T385 28Q347 4 304 -10T197 -20Q185 -19 174 -16T150 -11Q138 -9 126 -8T104 -2Q98 1 90 8T73 24T57 41T46 56Q44 60 42 66T37 77Q32 87 29 93T28 113Q20 123 18 130T14 153Q13
158 14 163T14 175Q13 183 11 192T7 211Q6 224 5 236T7 262Q9 270 12 277T16 293Q16 297 15 301T13 309Q12 327 18 342T34 371T52 399T65 428Q72 434 75 441T82 455T89 470T99 484Q113 500 127 513T157 543Q165 551 171 558T186 574Q194 582 203 587T221 599Q235
610 248 622T280 643Q285 645 289 646T299 650Q318 660 339 668T382 684Q399 691 413 700T445 715Q462 720 479 725T513 735Q531 740 549 743T584 751Q591 753 602 751T614 741Q615 736 614 728T609 710T602 694T595 685Q578 676 558 670T529 652Q519 648 513 643T500
633T487 622T470 612Q459 607 448 599T426 586Q421 584 414 579T398 568T384 555T376 546Q363 543 359 536T344 521Q340 519 337 519T331 516Q327 514 326 510T322 502L307 488ZM335 289Q336 307 335 326T328 361T313 384T287 386Q272 380 261 373T242 357T227
335T211 307Q201 290 198 278T190 243Q187 225 186 204T185 161T191 123T204 97Q210 89 221 83T244 81Q249 83 256 88T268 99Q273 104 279 111T289 124Q294 132 298 144T307 167Q309 174 313 179T319 190Q322 198 323 205T326 219Q329 225 333 229T339 241Q334
252 334 262T335 289Z" />
<glyph unicode="7" glyph-name="seven" horiz-adv-x="565" d="M282 3Q270 -7 252 -5T213 -4Q204 -4 194 -6T173 -10T154 -11T141 -2Q135 -12 124 -16T99 -21T73 -20T51 -14Q53 6 66 24T94 60Q108 77 119 95T141 131Q153 151 164 172T187 214Q203 241 214 265T238
321Q247 326 255 331T268 345Q267 371 279 393T303 440Q319 473 331 498T361 556Q371 572 378 586T380 617Q363 620 354 621T338 623T323 620T301 615Q286 611 271 614T246 609Q240 605 236 600T224 588Q218 582 212 576T201 563Q197 558 195 552T189 541Q182 531
176 519T163 496T150 475T136 462Q129 457 119 456T99 455T81 462T71 476Q67 495 73 509T88 538Q97 553 105 578T119 618Q122 625 127 631T136 645Q139 653 139 662T143 679Q146 688 148 693T153 701T157 709T162 720Q164 727 170 733T181 748Q206 750 224 750T259
741Q298 737 336 737T416 738Q421 731 432 732T458 733Q475 731 485 731T507 742Q523 743 536 743T563 744T591 747T623 752Q628 747 635 744T646 736Q648 725 644 716T642 695Q631 675 617 660T589 623Q574 599 563 570T535 514Q532 509 526 506T517 499Q513 492
512 485T506 473Q501 467 495 463T483 453Q475 442 469 431T453 412Q456 392 446 376T427 339Q413 310 398 285T369 229Q363 218 357 208T346 186Q334 164 326 143T312 99T299 52T282 3Z" />
<glyph unicode="8" glyph-name="eight" horiz-adv-x="609" d="M410 364Q421 356 425 345T439 324Q447 316 449 312T456 298Q464 284 471 265T479 230Q483 173 472 134T432 61Q420 55 410 46T390 26T367 6T336 -8Q316 -13 294 -15T249 -19Q219 -21 189 -24T132
-19Q127 -17 124 -13T115 -7Q112 -5 107 -6T99 -6Q94 -4 92 -3T85 -2Q70 9 53 23T28 59Q26 67 25 76T20 95Q17 104 14 114T11 135T12 155T24 173Q22 181 20 188T15 202Q17 222 25 239T43 270Q55 289 65 302T92 333Q104 344 114 356T136 378Q153 390 168 397T195
423Q184 437 176 451T162 479T150 507T137 536Q141 549 137 559T135 581Q136 588 141 594T150 609Q155 622 158 635T171 660Q188 684 212 703T267 734Q278 739 293 742T318 748Q325 749 332 747T347 745Q360 745 373 745T398 745T420 741T439 731Q442 729 445 730T455
729Q465 725 469 719T482 707Q488 704 499 703T521 701T540 697T549 687Q549 680 545 676T533 668T519 663T507 657Q502 655 500 651T492 644Q486 640 472 634T443 623T414 615T393 614Q382 617 375 624T353 631Q341 631 329 626T311 610Q306 602 301 592T297 574Q297
569 300 565T307 554Q312 543 314 534T330 519Q347 521 360 530T383 551Q388 555 390 560T397 569Q403 574 414 579T439 590T466 601T488 613Q517 636 546 657T601 701Q615 710 629 714T660 724Q680 730 697 741T733 760Q753 768 778 777T826 790Q834 790 834 787T833
778T826 769T822 764Q814 756 811 752T802 742Q788 733 772 727T741 711Q715 694 689 678T636 643Q617 631 599 614T566 580Q554 564 549 554T532 531Q508 506 474 483T412 435Q406 430 395 419T384 404Q383 399 386 394T395 383T404 372T410 364ZM239 286Q232
278 228 269T217 251Q215 247 212 244T206 236Q202 228 199 219T191 200Q187 190 184 182T179 167Q179 162 180 157T184 143Q188 120 196 112T220 92Q228 87 235 83T247 78Q261 76 276 85T299 108Q307 123 311 147T316 193Q316 200 316 208T315 222Q314 227 311
233T305 247Q298 264 289 283T269 316Q260 309 253 302T239 286Z" />
<glyph unicode="9" glyph-name="nine" horiz-adv-x="599" d="M279 245Q271 243 266 243T254 243Q245 241 240 245T219 251Q216 251 208 254T191 263T173 273T160 281Q136 295 116 323T90 386Q87 403 83 415T90 436Q80 451 79 463T78 495Q79 519 83 537T95 578Q97
583 102 589T113 601T124 615T133 628Q144 650 158 666T193 696Q211 709 230 720T271 739T319 752T378 757Q389 757 401 755T425 751Q436 750 449 750T471 745Q478 743 487 737T505 722T521 706T534 692Q537 688 539 683T544 673Q550 663 554 657T556 638Q565 629
566 622T572 601Q573 596 573 591T573 579Q576 570 579 562T585 544Q587 530 588 519T588 494Q586 486 584 478T581 463Q581 458 583 455T586 446Q588 428 583 413T570 384T554 356T543 327Q530 313 527 298T512 268Q499 253 486 239T460 208Q452 200 446 192T432
175Q425 167 416 161T399 147Q387 136 374 124T343 100Q339 98 335 96T325 92Q308 82 288 68T247 43Q230 35 217 25T186 9Q169 2 152 1T118 -6Q100 -13 82 -17T47 -27Q44 -28 35 -29T17 -29T-1 -24T-10 -11Q-11 -1 -6 7T6 21T21 31T32 37Q47 47 67 55T94 74Q104
78 111 83T123 95T135 106T152 117Q163 122 171 131T190 145Q195 148 202 153T217 166T230 179T238 188Q244 191 252 200T268 220T279 238T279 245ZM270 436Q270 418 272 399T280 366T296 347T323 350Q338 359 348 368T365 387T380 411T395 441Q400 451 403 458T407
473T410 488T413 508Q415 526 415 547T415 589T408 625T395 648Q388 654 377 658T354 656Q349 653 342 646T330 634Q325 628 320 620T310 606Q305 597 302 585T294 561Q292 553 289 547T283 535Q281 527 281 520T276 506Q274 499 270 495T264 482Q270 472 270 462T270
436Z" />
<glyph unicode=":" glyph-name="colon" horiz-adv-x="264" d="M68 103Q84 100 98 82T109 41Q102 13 80 -4T29 -28Q14 -30 1 -21T-19 2T-26 34T-16 66Q-11 73 -3 77T14 87Q21 92 28 98T46 106Q51 106 57 105T68 103ZM157 452Q173 448 187 430T197 389Q191 361 169
344T117 321Q102 318 90 326T70 349T63 381T73 414Q77 420 85 424T102 434Q109 439 117 446T135 454Q140 455 146 454T157 452Z" />
<glyph unicode=";" glyph-name="semicolon" horiz-adv-x="269" d="M30 -116Q22 -111 14 -106T7 -92Q7 -88 11 -78T20 -56T30 -33T35 -15Q27 -19 17 -22T-4 -19Q-17 -12 -22 1T-26 29T-19 60T-2 86Q7 96 16 99T35 102T56 98T82 92Q95 79 104 60T108 12Q104 -1 99
-21T87 -53Q78 -70 62 -87T30 -116ZM162 452Q178 448 192 430T202 389Q197 361 174 344T122 321Q107 318 95 326T75 349T68 381T78 414Q83 420 91 424T108 434Q114 439 122 446T140 454Q145 455 151 454T162 452Z" />
<glyph unicode="&lt;" glyph-name="less" horiz-adv-x="550" d="M547 637Q558 631 555 618T547 589Q543 575 541 561T530 540Q522 531 506 527T477 515Q462 506 450 499T428 484Q414 488 405 481T386 468Q370 457 352 450T313 436T272 424T231 408Q213 398 196
387T162 369Q155 366 149 366T136 364T124 360T114 350Q117 344 122 341T134 337T148 334T161 329Q164 327 166 323T172 317Q188 308 206 302T243 290Q247 284 246 274T249 257Q255 248 271 249T301 246Q323 240 340 224T379 196Q398 184 417 176T446 151Q439 129
434 108T414 76Q398 76 391 86T372 105Q367 110 361 111T349 117Q344 121 341 126T333 134Q321 142 304 147T268 158Q255 162 246 171T224 188Q219 192 214 193T204 196Q196 201 189 206T174 217Q166 222 159 228T143 239Q136 244 129 246T116 253Q110 258 105
263T93 271Q88 274 82 275T70 279Q63 282 59 287T50 298Q46 300 41 301T32 305Q27 308 22 314T13 326T7 340T5 353Q7 362 16 376T31 396Q38 402 48 406T69 414T92 421T112 428Q130 436 149 449T189 472Q217 485 243 492T294 511Q299 512 302 511T312 510Q325 511
330 522T344 541Q349 545 360 547T382 554Q400 561 420 574T461 598Q469 603 478 605T495 612Q509 620 519 627T547 637Z" />
<glyph unicode="=" glyph-name="equal" horiz-adv-x="588" d="M53 392Q51 403 55 412T62 432Q72 442 86 447T114 460Q146 458 180 453T253 449Q291 451 327 453T409 454Q421 454 432 452T456 450Q471 450 490 452T523 457Q528 458 533 459T544 461Q555 461 563
454T572 441Q573 435 569 427T559 412T546 398T534 388Q517 379 491 379T436 379Q389 379 340 382T247 384Q228 382 212 378T181 371Q163 369 146 370T114 375T83 383T53 392ZM484 222Q431 216 379 222T276 226Q259 224 241 222T203 220Q171 220 139 220T79 220Q53
220 35 220T5 239Q3 261 11 273T26 299Q32 301 41 305T59 309Q67 309 74 306T90 301Q101 299 113 298T136 296Q153 296 170 299T208 303Q247 303 289 298T368 296Q379 298 389 301T411 306Q425 308 439 307T467 308Q472 308 476 310T485 313Q498 314 510 305T525
288Q527 278 520 270T508 256Q503 248 498 238T484 222Z" />
<glyph unicode="&gt;" glyph-name="greater" horiz-adv-x="560" d="M-7 76Q-18 82 -15 95T-7 124Q-3 138 -1 152T9 174Q17 182 33 186T62 198Q78 207 89 213T112 228Q126 224 134 231T154 245Q170 256 188 263T227 276T267 289T307 305Q327 314 344 325T378 344Q384
347 391 347T404 349T415 352T426 362Q423 368 417 371T405 376T391 379T379 384Q376 386 374 389T368 395Q352 405 334 411T297 423Q293 429 294 439T291 456Q285 465 269 464T239 467Q217 473 199 489T161 517Q141 528 122 537T93 562Q100 584 105 605T126 637Q140
637 148 626T168 607Q173 603 179 602T190 596Q195 592 198 587T207 579Q218 571 235 566T270 555Q284 551 293 542T315 524Q320 521 325 520T335 517Q343 512 350 507T366 496Q374 490 381 485T396 474Q404 469 411 467T424 460Q430 455 435 450T446 441Q452 438
458 437T470 434Q476 431 479 426T489 415Q494 413 499 412T508 408Q518 400 527 386T535 359Q533 351 524 337T509 316Q502 310 492 306T470 299T448 292T427 285Q408 276 390 263T350 241Q322 227 296 220T246 202Q240 201 237 202T227 203Q214 202 210 191T195
172Q190 168 179 166T158 159Q140 152 120 139T79 115Q71 110 62 107T45 100Q31 93 21 86T-7 76Z" />
<glyph unicode="?" glyph-name="question" horiz-adv-x="508" d="M460 718Q474 717 486 715T506 705Q522 673 525 632T534 552Q536 529 530 511T513 476T492 446T471 416Q453 405 442 398T415 381Q400 371 386 361T345 349Q333 348 318 349T292 345Q286 342 284
334T274 318Q270 314 267 314T261 310Q256 294 253 275T245 238Q239 217 223 203T180 185Q175 185 168 184T152 182T136 181T125 183Q122 184 118 191T110 206T102 224T99 238Q99 248 103 259T112 282T121 309T128 339Q129 348 128 358T129 377Q131 385 136 395T145
413Q159 433 186 443T248 445Q256 443 262 440T278 437Q310 436 328 452T359 494Q369 514 376 544T383 603Q383 616 381 629T375 653Q371 668 360 674T336 685T309 694T288 710Q278 707 272 702T259 691Q229 688 204 677T164 640Q161 634 157 624T151 606Q148 587
161 575T191 563Q199 564 206 568T220 578Q226 582 235 586T250 589Q258 586 260 574T261 551Q258 537 244 526T210 508T171 501T136 511Q130 514 123 521T110 538T98 556T89 573Q83 588 83 602T85 631T91 659T97 688Q111 701 125 712T154 738Q162 742 174 744T201
750Q211 753 219 757T236 762Q240 763 244 762T253 762Q260 764 267 766T283 770Q299 772 318 772T352 771Q356 771 360 769T370 766Q377 764 383 765T396 765Q425 760 438 750T460 718ZM129 143Q139 145 152 143T174 136Q176 134 179 128T185 119Q193 108 205
99T220 79Q222 68 219 57T211 34Q208 25 204 15T191 0Q180 -8 163 -9T132 -9Q127 -8 124 -5T114 0Q103 2 92 1T74 5Q67 10 62 24T56 47Q55 62 61 78T78 107T102 130T129 143Z" />
<glyph unicode="@" glyph-name="at" horiz-adv-x="775" d="M466 218Q460 213 456 206T447 191Q439 180 430 176T404 166Q401 165 398 163T391 159Q381 157 369 156T345 151Q327 146 314 144T281 150Q265 155 249 164T225 184Q221 189 219 197T212 211Q202 228
195 249T190 300Q193 337 206 374T236 446Q243 462 258 484T286 518Q291 523 298 527T311 537Q317 542 323 548T334 557Q340 560 349 562T367 569Q373 573 378 578T389 589Q401 598 423 607T469 620T513 619T540 593Q550 602 558 604T573 604T588 596T603 583Q612
574 620 567T633 553Q619 547 614 536T601 507Q598 499 593 492T586 479Q584 471 583 462T578 442Q574 434 572 425T566 408Q556 375 547 338T536 261Q539 250 549 239T573 230Q580 231 587 237T600 249Q620 263 627 280T646 326Q656 349 667 375T680 434Q681 447
681 459T683 483Q683 488 682 494T680 507Q679 527 679 545T674 578Q662 608 638 633T579 673T504 694T418 688Q398 683 376 675T333 657Q309 646 283 635T240 606Q235 601 232 595T225 584Q220 579 216 575T208 565Q194 548 184 529T154 495Q136 462 123 420T102
340Q100 326 100 312T101 283Q101 276 103 271T108 259Q108 254 107 248T106 237Q109 211 122 181T151 131Q159 120 167 109T183 92Q190 86 199 85T218 82T236 77T250 66Q265 69 276 68T297 64T319 58T345 53Q356 51 373 55T409 62Q425 65 440 66T464 72Q470 74
476 79T489 89T502 99T514 103Q520 103 527 96T539 83Q545 77 550 69T554 53Q553 47 545 39T527 24T507 10T490 1Q469 -9 437 -15Q411 -22 378 -28T316 -27Q305 -23 292 -18T263 -8Q206 9 157 27T73 83Q59 110 49 145T31 216Q28 227 24 238T18 261Q15 293 15 327T22
394T42 456T77 507Q84 538 102 558T137 603Q149 619 159 631T182 654Q208 676 239 691T304 722Q310 725 315 728T328 734Q366 748 408 754T493 761Q503 761 517 760T546 755T576 749T601 741Q605 739 609 736T620 730Q628 727 635 726T647 722Q663 714 673 701T698
683Q712 663 725 641T748 592T762 536T764 471Q762 454 761 437T757 400Q756 383 752 368T741 339Q733 318 726 305T706 273Q693 257 684 240T662 207Q650 192 637 180T615 154Q592 141 572 138T524 146Q515 151 505 155T488 166Q478 177 475 192T466 218ZM482
546Q466 554 455 549T432 535Q417 524 399 508T373 476Q365 464 362 450T353 425Q349 419 344 416T336 407Q335 402 336 398T337 389Q336 372 329 354T318 315Q317 307 317 298T316 280Q315 272 313 265T311 253Q312 245 318 238T333 225T352 216T372 214Q382 215
393 222T414 239T431 262T441 285Q442 288 442 291T441 299Q443 316 450 335T461 369Q463 377 465 387T470 407Q473 416 477 424T483 440Q484 444 483 448T482 457Q484 474 491 492T498 529Q494 534 491 539T482 546Z" />
<glyph unicode="A" glyph-name="A" horiz-adv-x="895" d="M172 25Q152 25 143 17T129 -5Q117 -2 102 -4T71 -8T41 -10T16 -5Q11 -2 8 3T1 14Q-3 20 -7 25T-13 35Q-15 41 -10 52T-1 69Q3 72 8 74T19 80Q33 91 39 107T51 134Q58 139 67 144T75 159Q66 164 54 164T30
164Q10 164 -10 167T-46 172Q-72 177 -91 196T-108 244Q-101 247 -93 247T-75 246T-56 245T-38 247Q-29 241 -22 241T-8 244T5 250T16 255Q21 256 25 255T34 254Q42 254 50 256T69 261Q84 263 100 263T127 269Q134 272 143 279T156 293Q158 298 158 302T159 312Q164
329 176 342T197 371Q200 379 201 383T204 390T206 397T213 409Q222 423 231 436T254 461Q254 467 256 471T260 481Q287 492 304 510T338 548Q337 558 342 562T347 577Q347 582 344 588T340 602Q340 610 346 618T358 634Q366 642 370 650T380 665Q388 674 396 681T413
698Q417 704 419 711T428 723Q437 729 453 730T485 732Q504 733 526 736T571 744T615 751T655 756Q673 758 689 757T716 760Q730 748 744 737T772 712Q776 692 779 675T780 641Q778 633 774 626T770 610Q770 595 779 581T792 549Q793 541 790 534T785 518Q784 510
786 501T790 481Q790 469 789 457T790 432Q792 419 795 406T797 378Q795 364 792 352T788 327Q787 309 790 293T788 259Q796 249 796 239T795 219T791 199T793 177Q795 170 801 165T809 151Q812 141 812 127T813 99Q814 67 808 42T800 -12Q800 -25 800 -41T794
-66Q789 -72 778 -78T759 -86Q744 -87 725 -78T695 -59Q686 -49 679 -37T664 -12T648 12T630 32Q625 35 619 38T610 45Q604 55 604 67T604 93T607 120T606 143Q603 153 598 158T586 166T569 169T546 171Q499 174 449 177T347 179Q336 179 331 178T322 177T314 175T301
174Q281 173 265 172T237 161Q230 156 222 141T210 118Q205 106 202 93T195 68T186 44T172 25ZM426 289Q460 290 491 290T551 293Q555 295 558 296T570 295Q570 300 575 300T583 303Q587 310 587 314T586 322T582 330T579 343Q579 351 581 359T585 377Q586 384
584 392T582 408Q583 415 588 420T593 433Q593 437 592 442T589 452Q588 459 588 466T587 478Q585 486 577 493T567 508Q564 518 566 530T569 555Q568 572 566 586T556 614Q545 620 540 619T531 612T525 599T516 587Q489 563 474 539T437 485Q428 474 419 463T402
439T390 412T388 381Q383 373 380 370T372 363T364 356T353 345Q342 331 329 317T312 285Q330 280 343 280T368 281T394 285T426 289Z" />
<glyph unicode="B" glyph-name="B" horiz-adv-x="826" d="M609 353Q610 344 615 340T627 333T642 330T656 325Q663 322 669 317T682 306Q691 301 696 296T704 284T709 270T717 251Q722 237 730 222T740 190Q741 181 739 169T733 145T723 121T711 104Q689 84 657
67T590 33Q583 30 576 26T563 19Q553 17 545 19T528 20Q520 19 515 16T502 10Q488 5 471 4T434 0Q427 -2 420 -1T406 -2Q391 -5 373 -9T335 -13Q307 -13 280 -11T224 -11Q210 -12 198 -10T171 -8Q143 -9 124 -11T86 -15T49 -19T2 -23Q-16 -23 -35 -22T-61 -3Q-59
2 -55 3T-50 11Q-22 19 -6 36T29 91Q33 99 36 106T44 120Q49 128 50 134T54 146Q58 155 58 164T59 183T62 200T73 213Q71 226 71 240T77 269Q80 277 85 282T92 293Q95 303 93 314T94 339Q97 350 105 362T117 386Q122 407 123 428T129 473Q131 479 134 484T140 496Q145
510 145 528T148 563Q153 587 159 605T160 644Q156 659 145 676T125 699Q113 707 100 710T76 723Q65 724 60 727T56 738Q57 744 64 748T81 753T97 752T108 744Q120 743 138 743T166 737Q185 738 213 740T263 737Q268 736 273 733T283 729Q292 730 300 738T317 748Q337
748 363 750T413 755Q431 756 451 754T488 752Q502 752 517 751T552 745Q576 742 597 740T640 730Q652 725 665 718T693 705Q709 698 728 696T758 687Q763 684 766 679T774 670Q777 668 782 668T791 665Q803 657 811 640T824 606Q828 594 830 577T832 541T826 505T811
475Q809 473 806 471T800 465Q788 454 775 445T741 430Q738 418 732 412T716 401T697 395T675 386Q658 377 644 368T609 353ZM375 412Q385 414 395 418T418 423Q425 423 432 422T449 422Q459 423 472 427T499 438T525 451T545 466Q552 472 559 482T573 503T582
526T584 549Q583 554 577 567T565 586Q557 595 539 608T503 630Q499 632 495 632T486 634Q478 637 471 644T458 653Q436 658 414 654T383 636Q381 631 382 626T381 617Q378 612 373 610T365 600Q374 589 369 576T359 547Q351 518 344 488T327 431Q334 421 345 416T375
412ZM283 276Q277 262 276 245T271 209Q268 195 262 182T254 158Q253 153 253 148T252 139Q249 130 242 118T238 96Q239 90 249 87T271 82T296 79T316 76Q324 74 333 77T352 84T370 93T385 98Q394 100 404 98T425 96Q451 98 473 114T506 148Q518 170 521 202T519
257Q517 267 509 280T493 299Q489 301 484 302T473 307Q469 309 467 312T461 318Q454 321 442 321T419 323Q413 325 407 328T396 331Q388 333 379 331T359 329Q348 330 339 331T322 331Q303 328 297 312T283 276Z" />
<glyph unicode="C" glyph-name="C" horiz-adv-x="705" d="M795 745Q801 729 792 718T772 701Q754 692 729 689T683 678Q672 673 666 666T649 655Q614 655 580 656T508 654Q501 653 494 651T480 648Q471 648 462 651T442 652Q437 651 434 648T425 640Q407 629 385
619T344 595Q327 583 315 565T290 526Q286 519 282 513T275 501Q273 495 273 488T272 472Q270 460 267 446T259 420Q254 407 249 395T241 370Q239 356 239 343T233 314Q230 301 227 289T222 262Q221 239 225 218T229 173Q246 153 260 135T299 108Q308 105 319 105T342
106T366 109T391 110Q400 109 405 107T416 102T428 98T444 97Q461 98 478 99T512 102Q539 104 561 112T605 127Q610 129 615 129T625 131Q633 134 639 138T655 146Q664 151 673 156T688 159Q695 157 696 146T697 131Q695 124 686 119T668 106Q658 99 651 93T637
82Q620 70 602 60T568 40Q554 32 545 24T522 10Q507 4 488 3T455 -4Q444 -8 439 -15T419 -27Q393 -36 364 -38T303 -36Q255 -29 209 -13T126 24Q121 38 108 46T87 67Q76 81 69 96T44 122Q48 146 37 159T15 185Q4 226 1 271T7 360Q9 368 12 374T18 387Q21 396 22
406T25 424Q34 457 49 484T81 539Q89 551 97 561T115 583Q119 588 122 593T131 604Q139 612 149 617T167 631Q178 644 183 662T200 694Q202 697 207 701T219 709T232 716T243 722Q264 732 286 734T335 745Q350 750 366 755T396 762Q419 766 449 767T505 763Q509
762 512 761T520 758Q531 756 541 758T561 758Q566 757 570 755T580 751Q585 749 591 749T603 748Q609 746 616 744T629 739Q643 737 659 737T689 738Q716 740 742 745T795 745Z" />
<glyph unicode="D" glyph-name="D" horiz-adv-x="859" d="M39 147Q42 154 49 156T59 167Q61 174 58 179T56 193Q56 197 58 201T62 211Q65 223 67 235T71 260T78 282T90 298Q92 316 100 333T112 370Q113 375 112 381T112 392Q114 403 118 413T125 434Q131 460 137
484T148 531Q151 542 150 551T151 570Q154 590 157 608T157 643Q155 649 151 655T145 670Q143 675 143 679T141 689Q137 698 130 702T115 712T104 724T101 746Q108 753 118 754T139 755T163 750T186 744Q201 742 218 742T253 744T290 745T326 743Q331 742 333 740T340
738Q348 739 353 742T367 748Q404 753 437 745T504 731Q536 726 568 723T622 707Q633 699 642 690T662 674Q679 665 698 659T735 645Q740 643 744 640T753 634Q761 629 768 627T782 618Q789 613 793 605T803 589Q812 575 822 565T838 538Q840 529 841 520T846 503Q854
481 858 451T854 388Q852 381 848 375T842 362Q828 326 810 293T761 227Q751 227 741 223Q734 212 730 200T717 179Q713 174 707 170T695 160Q674 134 648 107T595 62Q587 57 578 52T561 44Q556 42 552 42T542 40Q531 35 523 27T506 11Q485 14 466 8T426 1Q393
1 354 -1T274 -6Q260 -7 247 -8T217 -9Q191 -10 167 -9T120 -8Q91 -7 67 -12T12 -20Q-8 -22 -26 -28T-59 -34Q-64 -34 -70 -33T-81 -28T-89 -21T-92 -11Q-91 -7 -86 -3T-74 6T-60 13T-48 20Q-25 36 -12 49T15 88Q20 97 24 103T32 116T37 129T39 147ZM333 91Q343
90 351 87T369 83Q389 82 403 92T430 110Q439 115 449 119T465 127Q486 140 503 160T536 204T563 253T587 302Q594 316 601 329T613 356Q619 373 617 388T620 419Q622 424 628 429T635 442Q636 452 630 456T622 470Q621 476 623 482T625 496Q625 510 622 525T612
555T597 582T578 601Q568 608 549 615T508 626T465 632T430 630Q415 625 408 615T395 593T384 567T370 542Q366 538 358 535T347 523Q345 517 349 510T353 496Q353 487 349 481T343 466Q338 449 334 432T324 395Q318 378 311 361T301 327Q296 297 293 264T281 202Q275
183 267 164T260 128Q261 118 268 108T281 89Q295 89 307 90T333 91Z" />
<glyph unicode="E" glyph-name="E" horiz-adv-x="735" d="M841 733Q846 720 839 711T821 697Q798 684 771 676T721 653Q707 645 696 634T668 617Q651 612 631 611T588 608Q565 606 543 601T503 598Q495 599 486 601T469 605Q461 606 451 604T432 601Q426 600 419
601T404 601Q395 600 385 599T364 596T347 589T336 578Q331 549 323 524T305 474Q300 461 295 446T295 417Q338 410 379 415T460 417Q471 416 484 415T508 411Q516 409 524 402T542 392Q556 389 569 390T594 390Q603 385 608 376T623 360Q629 355 636 355T650 349Q650
334 645 326T632 314T613 311T589 312Q571 314 548 314T504 312Q491 312 479 311T457 312Q449 314 443 320T426 328Q417 330 406 327T383 321Q351 315 323 307T265 292Q245 252 233 196Q231 184 229 172T228 151T235 135T256 129Q269 129 284 131T315 135T347 137T380
134Q389 132 398 125T419 119Q427 120 434 127T450 138Q462 143 477 143T509 144T543 142T577 140Q605 140 637 138T693 128Q702 115 695 102T675 87Q663 70 649 63T611 48Q593 43 580 35T545 26Q516 26 487 26T429 22Q409 18 391 13T352 5Q302 -3 256 -14T156
-27Q145 -28 134 -30T116 -30Q108 -29 103 -22T90 -11Q83 -9 77 -8T66 -5Q60 -2 55 4T44 17Q38 24 32 30T20 44Q11 61 5 82T1 129Q3 147 13 164T28 202Q32 219 32 235T36 268Q50 283 55 300T68 343Q70 352 74 362T78 380Q79 389 76 397T72 416Q72 427 78 442T89
471Q94 487 96 502T103 531Q105 538 108 543T114 555Q117 568 119 583T122 613T122 642T115 667Q111 673 101 683T86 698Q81 702 74 705T67 713Q66 719 70 722T79 726T90 727T100 726Q132 722 162 719T228 718Q236 719 248 720T272 723T296 726T315 726Q318 725
321 723T330 719Q349 712 374 709T425 713Q464 708 507 714T593 722Q604 723 615 721T638 717Q655 715 674 716T714 719Q731 721 749 721T783 725Q796 727 810 731T841 733Z" />
<glyph unicode="F" glyph-name="F" horiz-adv-x="636" d="M892 757Q887 741 878 731T859 710T842 686T835 650Q818 629 797 625T746 618Q716 615 690 614T633 620Q621 622 610 625T585 631Q565 633 542 633T498 630Q463 627 443 620T402 594Q394 587 388 575T373
552Q368 546 362 542T353 532Q350 527 349 520T345 504Q340 487 333 465T323 422Q333 415 345 414T370 414T398 419T425 423Q445 425 465 425T504 426Q521 427 535 424T566 419Q584 417 601 415T618 401Q618 396 611 389T599 380Q586 372 571 369T542 363T513 356T489
342Q482 336 476 326T460 310Q454 307 446 307T430 306Q394 299 354 289T283 265Q278 255 276 243T271 219T264 196T251 178Q254 158 250 141T242 101Q240 86 238 69T230 40Q229 36 226 30T218 17T210 5T203 -1Q195 -5 185 -3T167 -2Q157 -5 150 -12T137 -27T125
-43T109 -56Q100 -55 91 -55T73 -52T58 -46T48 -34Q29 -48 13 -39T-10 -12Q7 26 25 70T56 161Q61 181 62 210T65 262Q67 273 72 284T76 306Q76 315 69 323T55 340T46 359T51 381Q55 387 63 389T81 392T98 397T110 406Q107 418 115 425T126 440Q128 447 127 456T128
475Q130 483 133 491T139 507Q141 514 140 521T140 536Q142 541 148 548T156 562Q156 567 152 570T145 579Q144 585 147 590T150 602Q150 610 147 620T141 640Q139 650 138 660T134 677Q131 686 121 694T104 711T97 727T112 741Q182 729 262 729T423 728Q436 728
444 727T460 725T475 724T494 724Q518 724 543 729T593 736Q631 740 664 737T730 735Q768 738 800 743T868 757Q872 759 879 759T892 757Z" />
<glyph unicode="G" glyph-name="G" horiz-adv-x="839" d="M335 520Q330 518 323 518T311 514Q309 506 308 498T308 482Q298 459 284 436T255 395Q245 359 237 329T228 254Q226 249 224 243T222 229Q222 223 225 218T229 207Q231 198 227 189T222 171Q222 164 225
159T226 147Q239 133 252 125T276 100Q279 100 285 96T300 88T317 79T335 73Q347 72 356 73T382 77Q426 82 460 105T514 154Q514 174 518 188T530 216Q535 224 541 229T548 246Q549 252 549 259T549 275Q550 283 545 290T538 303Q536 311 523 321T502 337Q495 342
487 348T475 360T471 372T484 384Q505 383 529 380T578 375T629 370T675 370Q689 371 697 372T711 375T724 379T745 383Q753 384 758 383T769 382Q776 384 783 387T798 392Q808 393 815 392T829 389T844 385T863 382Q881 380 890 378T900 362Q900 353 894 349T878
344T858 342T838 340Q828 338 823 336T815 330T810 324T801 318Q795 316 790 314T779 309Q766 304 761 293T748 270Q740 261 740 255T733 240Q723 225 714 201T698 158Q686 125 682 89T669 18Q666 7 666 -5T663 -30Q660 -38 657 -46T652 -63Q650 -72 651 -80T649
-98Q644 -100 638 -102T629 -108Q624 -115 624 -129T617 -152Q613 -157 604 -161T588 -168Q580 -170 571 -167T550 -165Q536 -166 526 -175T503 -191Q495 -196 481 -200T456 -209Q449 -213 443 -217T430 -223T418 -224T406 -216Q401 -199 405 -187T417 -165T433
-145T445 -121Q450 -104 451 -90T458 -61Q466 -44 478 -30T495 3Q478 -4 459 -13T413 -27Q409 -28 405 -28T397 -27Q388 -29 380 -31T364 -36Q353 -37 348 -36T332 -34Q310 -35 296 -38T263 -37Q252 -35 240 -29T215 -18Q203 -13 190 -9T167 0Q150 8 134 19T97
36Q77 62 58 99T34 173Q33 182 34 191T33 210Q31 215 28 220T22 230Q19 237 17 250T12 273Q7 315 13 356T33 432Q34 435 37 437T42 444Q44 449 44 453T46 461Q52 472 56 484T68 508Q76 523 84 539T103 563Q110 567 117 570T132 576T144 585T152 601Q153 607 150
612T150 623Q181 661 230 688Q235 690 240 692T251 696Q258 700 264 705T279 712Q296 717 314 721T353 729Q360 730 367 731T380 735Q390 736 408 736T447 734T487 733T518 734Q525 736 531 739T546 743Q563 744 574 742T607 737Q620 736 632 734T659 731Q676 730
694 731T729 732Q746 732 762 730T792 730Q801 732 809 736T826 739Q834 737 843 730T852 715Q852 706 839 695T816 680Q787 668 753 662T679 652Q666 651 654 651T630 649Q624 647 619 645T608 640Q594 636 579 636T548 634Q519 631 485 626T431 605Q426 601 417
597T399 589T382 580T369 570Q357 558 349 549T335 520Z" />
<glyph unicode="H" glyph-name="H" horiz-adv-x="900" d="M412 745Q412 738 408 733T399 723T389 713T380 702Q379 700 379 696T378 688Q373 674 364 658T348 624Q345 616 342 608T333 591Q329 583 324 575T317 560Q316 555 318 551T321 541Q319 531 315 520T309
498Q307 485 306 474T301 452Q296 438 290 420T281 381Q316 381 348 390T410 409Q417 407 431 406T460 405T492 405T520 408Q532 409 549 413T571 424Q579 435 582 456T590 496Q595 513 602 529T613 560Q615 566 615 572T616 585Q621 602 631 618T644 645Q647 656
648 668T650 691T654 711T664 728Q668 730 671 732T679 738Q692 734 702 734T721 735T740 740T761 746Q770 738 775 729T794 718Q800 718 806 722T820 728Q834 732 854 737T890 743Q907 744 921 741T952 742Q956 738 959 733T959 718Q949 710 939 705T918 694T898
682T880 667Q866 651 857 629T836 587Q832 580 827 574T820 562Q814 547 812 530T806 495Q802 478 797 463T790 430Q803 425 815 427T843 429Q851 428 859 426T877 423Q892 422 904 423T930 424Q935 424 943 424T958 421T971 416T977 406Q978 398 965 390T942 377Q925
369 910 368T872 362Q858 360 848 352T820 340Q803 337 791 337T759 334Q739 308 733 274T721 204Q717 178 711 152T697 102Q694 89 686 79T669 53Q664 42 661 31T651 13Q643 5 629 1T606 -9Q594 -19 587 -29T565 -47Q555 -48 549 -48T537 -47T528 -44T517 -36Q515
-30 516 -26T515 -14Q509 -12 506 -17T494 -23Q486 -23 478 -14T471 5Q472 12 476 21T482 42Q484 51 485 61T490 81Q492 86 495 91T499 102Q502 118 502 132T504 161Q506 166 508 170T513 179Q519 196 525 212T536 244Q541 261 547 278T551 311Q538 312 526 309T502
302T477 295T450 291Q444 291 434 292T411 294T388 295T369 293Q357 291 345 285T318 275Q304 272 293 267T269 260Q258 253 253 240T245 211T236 183T217 165Q223 159 222 141T218 106Q213 79 205 55T185 12Q169 5 155 -2T120 -12Q115 -10 114 -5T111 7Q106 -5
98 -12T79 -26T60 -38T44 -54Q21 -54 4 -54T-29 -47Q-34 -31 -30 -16T-23 14Q-22 21 -23 27T-23 39Q-21 54 -16 75T-3 113Q0 121 5 126T14 140Q18 150 19 159T24 176Q26 185 30 192T37 208Q39 215 39 222T40 237Q41 242 44 246T48 255Q49 266 43 276T32 297T26
318T36 341Q46 344 56 346T74 354Q79 374 82 393T90 431Q92 441 96 450T103 467Q105 476 104 485T106 503Q108 511 114 516T123 529Q115 541 116 559T123 597T136 637T146 677Q151 698 156 714T180 734Q216 730 251 737T321 754Q326 755 326 751T331 745Q338 752
349 755T371 759T394 755T412 745Z" />
<glyph unicode="I" glyph-name="I" horiz-adv-x="410" d="M311 -4Q289 2 265 1T218 2Q207 4 196 8T172 14Q124 23 89 18T15 1Q7 -2 -1 -5T-19 -12T-37 -15T-56 -11Q-53 2 -45 11T-26 28T-6 47T8 71Q11 82 10 92T11 115Q13 133 19 155T33 198Q40 219 46 239T58
278Q62 288 71 297T83 322Q84 330 82 337T80 350Q81 357 85 363T91 376Q93 381 94 387T97 398Q102 416 107 438T117 480Q122 497 130 511T142 540Q142 547 138 549T131 559Q136 570 135 588T135 622Q137 640 139 653T135 682Q130 693 122 702T117 727Q129 730 140
731T166 732Q173 731 179 728T193 723Q216 720 238 722T282 725Q303 725 313 724T341 725Q364 727 386 734T429 745Q439 747 453 745T476 735Q478 720 469 716T451 708Q435 700 426 689T406 664Q399 655 394 649T383 632Q381 627 381 620T377 606Q369 584 356 562T337
521Q335 511 335 502T332 483Q328 470 321 455T308 423Q300 403 291 379T274 331Q270 316 268 301T262 269Q260 254 259 237T253 207Q249 197 240 190T225 172Q227 168 230 166T233 158Q230 152 227 145T225 129Q227 119 234 111T244 94Q246 88 245 83T246 73Q249
62 257 52T274 37Q286 29 299 25T319 7L311 -4Z" />
<glyph unicode="J" glyph-name="J" horiz-adv-x="366" d="M447 730Q445 723 439 721T428 715Q415 706 401 694T377 667Q369 656 363 643T359 614Q348 588 347 560T336 507Q331 491 321 477T312 443Q307 440 302 438T294 430Q297 415 290 403T282 376Q282 365 286
356T289 337Q288 330 284 325T278 311Q272 293 266 273T254 230Q248 210 240 192T227 155Q225 150 225 145T225 134Q222 120 216 104T203 73Q197 57 191 42T180 10Q175 -4 168 -17T153 -45Q145 -61 140 -77T128 -105Q119 -123 104 -137T78 -163Q77 -179 72 -190T59
-210T43 -227T26 -245Q12 -260 -2 -269T-34 -290Q-63 -308 -102 -324T-185 -339Q-216 -338 -245 -330T-299 -309T-345 -278T-379 -243Q-390 -228 -399 -214T-412 -179Q-417 -145 -412 -109T-384 -56Q-379 -51 -369 -47T-351 -38Q-343 -33 -336 -26T-322 -16Q-310
-9 -297 -6T-269 2Q-249 -3 -229 -9T-194 -28Q-185 -39 -179 -57T-172 -95T-174 -134T-191 -165Q-201 -163 -211 -163T-227 -159Q-231 -153 -231 -147T-228 -136T-222 -125T-218 -114Q-214 -97 -220 -85T-237 -63Q-254 -65 -269 -71T-296 -88T-313 -115T-317 -154Q-316
-162 -313 -172T-305 -192T-293 -209T-278 -219Q-266 -222 -253 -221T-224 -219Q-211 -220 -200 -221T-181 -220Q-169 -217 -161 -212T-145 -200T-132 -186T-117 -174Q-95 -140 -72 -107T-34 -33Q-31 -25 -31 -16T-28 3Q-25 16 -18 28T-10 56Q1 66 3 76T11 104Q13
112 18 118T25 133Q35 157 40 183T50 239Q53 255 58 272T69 308T79 343T85 378Q85 387 84 393T86 407Q89 416 95 419T103 428Q108 441 105 456T100 481Q100 495 105 509T118 539T133 568T143 596Q146 608 146 623Q145 638 143 655T135 682Q128 687 129 689T129
692Q126 695 120 698T109 705T99 713T94 721Q94 728 99 731T113 736T129 738T144 736Q159 734 170 731T201 727Q213 726 222 727T241 729T260 731T285 733Q321 735 348 735T411 737Q413 737 418 737T430 737T440 735T447 730Z" />
<glyph unicode="K" glyph-name="K" horiz-adv-x="767" d="M742 -184Q748 -183 754 -184T768 -188T782 -192T797 -193Q801 -192 810 -187T828 -175T846 -159T857 -144Q860 -139 862 -128T864 -111Q863 -100 853 -89T831 -76Q818 -75 809 -83T792 -99Q790 -101 785
-105T774 -114T763 -123T755 -127Q745 -129 740 -121T738 -97Q740 -90 747 -82T758 -66Q763 -56 766 -49T776 -34Q787 -22 804 -15T840 -6T876 -9T904 -26Q907 -29 909 -36T914 -49Q920 -61 927 -73T937 -97Q938 -102 938 -110T938 -127Q939 -154 932 -168T910
-203Q903 -213 896 -224T881 -240Q876 -244 869 -245T857 -249Q851 -253 847 -259T837 -269Q826 -276 807 -281T773 -288Q744 -292 715 -291T666 -280Q656 -275 649 -268T631 -259Q617 -257 607 -258T588 -255Q568 -246 556 -231T530 -199Q528 -196 530 -193T535
-187Q528 -178 519 -174T502 -162Q489 -150 485 -132T479 -93Q466 -87 454 -85Q445 -78 441 -69T431 -50Q426 -42 420 -34T410 -16Q407 -7 405 4T400 27Q394 51 391 78T383 133Q381 146 381 158T380 182Q382 207 386 232T385 282Q384 287 381 294T374 308T366 320T357
327Q345 331 330 327T303 317Q296 315 283 309T265 298Q260 291 260 282T257 263Q255 256 250 251T243 241Q241 236 242 231T243 221Q243 215 241 209T236 194Q233 180 232 165T229 135Q226 119 223 104T221 72Q223 60 230 45T236 24Q232 12 213 11T177 10Q159
12 141 14T106 15Q82 14 58 8T11 -4Q-11 -9 -35 -15T-81 -13Q-83 -4 -79 6T-62 14Q-50 25 -39 35T-18 59Q-14 75 -4 90T13 123Q16 132 16 141T22 159Q26 166 34 169T46 178Q47 189 42 192T36 203Q35 208 40 221T49 248Q56 274 61 296T70 344Q71 351 71 359T72 372Q75
382 84 391T96 411Q98 419 96 428T96 446Q98 454 101 459T109 471Q122 509 132 552T132 634Q127 655 120 674T99 700Q91 704 82 704T72 713Q72 720 81 724T102 730T127 734T147 735Q161 736 177 728T209 720Q223 720 238 720T267 718Q283 717 297 719T328 721Q354
722 379 727T428 728Q436 721 433 714T421 698T404 682T391 666Q387 652 383 639T371 613Q369 610 365 608T357 602Q343 581 333 556T310 504Q306 501 301 493T292 480Q295 474 294 466T290 450T287 435T289 424Q291 421 301 419T319 418Q334 422 346 433T370 456Q382
466 395 473T423 486T453 500T483 519Q506 536 525 554T566 591Q577 599 585 606T604 617Q611 619 618 618T630 618Q638 622 644 633T659 651Q664 655 668 656T679 663Q687 668 694 674T712 686Q720 691 729 696T746 708Q763 720 780 733T811 755Q816 758 820 759T829
762Q839 767 847 775T865 791T884 805T906 813Q917 814 923 810T938 805Q952 787 943 749Q941 741 940 733T937 719Q934 712 927 702T908 686Q900 681 890 675T871 667Q865 665 861 666T851 667Q839 663 833 653T822 632Q805 618 786 610T749 590Q729 579 710 570T672
551Q648 539 627 520T583 486Q559 472 537 456T496 420Q490 418 477 412T462 398Q461 394 464 389T473 379T482 370T488 365Q493 361 497 360T506 355Q518 345 527 334T542 308Q547 295 551 278T561 244Q567 224 573 206T584 164Q589 130 592 95T605 29Q607 24
607 19T610 8Q612 3 614 -1T617 -11Q618 -18 617 -26T617 -40Q619 -45 625 -56T636 -72Q641 -80 647 -88T660 -106Q667 -115 672 -124T684 -140Q696 -154 713 -164T742 -184Z" />
<glyph unicode="L" glyph-name="L" horiz-adv-x="681" d="M259 360Q252 334 242 308T228 250Q227 242 228 232T230 211Q230 200 229 185T227 155T231 129T245 114Q257 110 273 112T306 117T340 125T374 128Q388 127 403 124T432 122Q440 123 448 125T465 129Q476
130 488 129T514 130Q526 132 539 135T563 139Q579 139 594 136T624 129T654 121T684 118Q693 119 701 121T717 114Q715 103 710 98T699 85Q676 77 656 77T614 76Q584 74 549 64T485 46Q468 41 450 35T412 23Q388 15 364 9T317 -6Q293 -16 270 -28T220 -46Q204
-51 187 -55T155 -60Q143 -60 131 -58T107 -50T86 -38T72 -23Q62 -30 53 -31T35 -31T17 -26T-2 -22Q-7 -13 -13 -6T-26 9Q-28 29 -18 44T-2 78Q8 102 17 128T31 181Q35 203 35 231T43 281L88 394Q84 410 85 423T90 449T99 475T109 506Q114 527 119 548T127 597Q129
620 129 642T117 679Q114 683 107 687T93 696T81 706T76 717Q76 724 82 728T98 735T117 738T136 739Q153 738 171 735T207 730Q212 729 217 730T227 730Q235 729 241 726T254 723Q259 722 272 723T291 724Q297 724 302 722T315 718Q331 716 348 718T381 722T415
725T451 724Q450 711 440 705T422 693Q418 689 415 686T407 679Q402 675 398 673T390 666Q378 653 373 641T360 610Q358 605 355 601T348 591Q346 585 345 578T340 566Q336 560 329 556T316 543Q320 531 318 520T313 498T304 477T297 456L259 360Z" />
<glyph unicode="M" glyph-name="M" horiz-adv-x="1055" d="M1176 753Q1183 741 1183 730Q1160 724 1143 717T1111 700T1086 677T1063 645Q1057 636 1050 631T1037 616Q1030 603 1026 588T1018 556Q1016 551 1014 546T1010 535Q1008 524 1009 514T1006 494Q1003
486 998 481T990 470Q982 456 980 439T975 403Q974 397 972 392T967 381Q965 373 964 366T961 350Q954 330 947 310T936 269Q934 258 934 248T933 226Q928 197 919 171T902 119Q897 101 895 86T886 53Q882 44 880 37T872 22Q866 15 855 11T832 4T809 -1T788 -7Q779
-11 773 -18T760 -32T745 -41T722 -38Q721 -26 721 -11T724 16Q727 33 734 46T749 74Q760 100 763 124T776 174Q785 180 788 187T791 202T791 221T792 243Q793 255 798 267T805 292Q807 303 807 309T808 321T810 331T815 346Q819 355 824 364T833 383Q841 409 845
438T853 495Q855 512 859 533T862 571Q858 571 848 559T823 528T791 484T757 434T726 386T702 347Q687 338 680 327T667 302T657 275T642 245Q634 214 615 184T584 125Q581 117 579 111T571 96Q563 76 553 58T531 19Q519 -1 504 -18Q498 -26 495 -39T484 -54Q475
-56 465 -52T446 -45Q428 -19 425 7Q425 14 427 20T428 33Q427 44 419 57T409 85Q405 102 409 117T409 146Q407 152 402 156T394 166Q392 173 392 182T392 200Q389 217 383 238T371 280Q366 295 358 315T347 353Q346 363 346 371T344 388Q342 406 335 427T321 469T308
511T302 552Q297 550 293 543T285 526T278 506T273 490Q270 485 265 479T259 465Q258 461 260 456T263 445Q264 429 257 412T245 377Q240 357 237 336T225 291Q217 269 213 247T203 206Q201 193 201 180T197 159Q192 149 181 143T166 126Q165 105 157 78T143 28Q141
19 140 10T137 -7T129 -20T112 -27Q93 -29 75 -18T52 5Q50 13 52 21T54 38Q41 30 35 30T23 34T12 46T-4 61Q-14 69 -19 70T-26 86Q-28 101 -24 115T-14 138Q-11 144 -6 148T2 158Q6 166 3 180T4 206Q11 221 19 234T28 268Q29 276 27 285T27 302Q28 310 30 318T36
338Q39 353 47 370T60 407Q64 415 67 423T73 440Q79 457 81 473T89 506Q91 512 95 516T102 526Q110 543 110 561T114 600Q117 619 121 634T129 663T131 689T120 714Q115 721 110 724T103 732Q103 744 112 745T134 744T157 737T172 731Q177 730 184 731T199 730Q208
729 217 727T233 724Q249 724 256 724T278 726Q292 727 312 726T348 727Q361 728 380 731T418 736T451 737T468 726Q471 715 463 707T452 689Q450 665 447 636T447 586Q449 575 448 565T450 546Q456 524 459 504Q460 492 468 482T476 460Q475 446 481 432T489 401Q491
385 491 368T502 337Q512 345 514 357T522 380Q524 385 528 389T537 399Q548 422 564 447T593 499Q606 524 618 549T641 601Q643 605 648 610T660 620T671 629T680 639Q695 667 705 687T721 739Q739 740 755 738T792 733Q800 731 806 728T820 724Q834 722 842 723T857
725T870 727T889 724Q923 724 959 729T1031 739T1104 749T1176 753Z" />
<glyph unicode="N" glyph-name="N" horiz-adv-x="809" d="M963 763Q954 746 942 737T915 717Q903 706 888 698T862 678Q841 655 826 622T796 555Q792 547 786 539T775 522Q764 495 757 465T743 405T729 343T712 283Q707 278 700 275T690 264Q691 259 694 255T699
244Q700 236 697 228T691 210Q686 181 676 147T649 92Q640 62 633 31T608 -23Q599 -26 592 -31T573 -36Q568 -36 563 -33T550 -28Q542 -26 532 -25T513 -20Q504 -18 496 -15T479 -12Q470 -12 455 -12T432 -9Q429 1 424 9T414 28Q410 37 405 48T399 70Q398 75 400
81T401 92Q399 100 393 108T385 124Q384 129 385 134T385 145Q384 152 381 156T375 166Q373 169 374 172T374 179Q372 186 368 192T361 205Q357 221 357 238T356 273Q354 287 350 300T345 329Q345 337 348 343T351 356Q352 364 349 370T345 384Q342 391 336 394T323
401Q315 430 301 467T279 535Q279 537 278 530T274 511T267 488T257 469Q265 455 258 435T246 395Q239 366 233 337T217 278Q215 271 212 266T207 255Q204 245 204 234T202 212Q200 201 199 191T195 171Q192 153 189 131T180 89T165 52T142 28Q131 21 123 23T105
31Q100 30 99 25T94 17Q80 18 71 13T51 4Q48 3 45 3T38 2Q29 -1 22 -6T9 -15T-5 -23T-20 -24Q-32 -21 -37 -11T-51 7Q-49 21 -45 38T-35 72T-23 106T-12 136Q-9 147 -6 157T1 178Q4 188 9 197T16 217Q18 228 17 238T17 260Q19 270 24 282T32 305Q42 339 53 370T84
426Q84 440 88 452T96 475T101 496T96 519Q100 537 106 553T117 589Q118 594 118 600T119 611Q121 620 126 630T138 651T150 672T158 690Q169 692 179 694T203 697Q209 697 215 696T227 695Q238 697 243 705T257 717Q271 719 284 719T311 724Q317 726 326 729T342
732Q354 732 361 723T374 702T383 677T394 657Q394 627 397 603T402 546Q406 512 413 484T428 425Q431 412 432 399T439 375Q447 355 455 338T466 301Q469 278 468 258T472 217Q477 201 483 191T500 168Q511 182 513 198T517 230Q520 247 525 262T535 295Q540 319
548 345T566 392Q568 398 573 405T582 419Q588 430 585 444T583 473Q585 483 588 494T595 518Q602 547 603 580T612 637Q615 645 620 659T624 683Q624 691 619 695T613 707Q613 715 620 721T638 731T660 737T680 739Q689 739 696 737T711 733T726 730T746 729Q763
731 784 733T825 737Q835 738 844 738T861 741Q871 744 881 747T905 753Q917 755 928 758T948 765Q951 767 954 767T963 763Z" />
<glyph unicode="O" glyph-name="O" horiz-adv-x="833" d="M645 734Q669 713 694 695T737 651Q741 646 743 640T750 629Q758 618 767 605T780 575Q782 563 780 550T780 522Q781 516 786 513T794 501Q797 487 793 473T790 441Q790 430 795 423T801 406Q802 392 798
379T792 352Q784 311 778 282T755 223Q746 209 740 194T725 167Q704 135 678 109T631 55Q593 38 559 22T482 -8Q472 -11 463 -15T442 -22Q429 -25 415 -26T387 -29Q377 -31 367 -34T346 -39Q335 -41 326 -38T305 -33Q297 -31 288 -32T270 -33Q265 -32 260 -29T248
-22Q242 -19 235 -18T221 -15Q213 -12 206 -8T191 -1Q185 1 179 1T168 3Q161 5 156 11T142 23Q134 28 126 31T113 38Q99 48 85 66T59 104Q50 122 38 141T18 181Q16 193 15 207T12 237Q10 266 10 297T17 365Q19 376 24 386T34 408Q38 419 41 430T49 451Q54 460 63
468T75 487Q78 498 75 507T73 528Q76 552 95 570T132 609Q154 633 174 649T221 685Q225 687 231 689T244 696Q249 700 254 704T263 711Q272 713 281 712T300 712Q308 714 315 720T330 733T344 747T358 758Q361 760 365 760T374 763Q402 775 433 772T497 766Q521
764 545 763T591 755Q605 751 618 744T645 734ZM469 114Q476 121 483 132T498 155Q514 182 528 210T556 268Q569 297 578 329T599 395Q603 406 611 419T620 441Q621 448 617 454T611 466Q611 473 611 478T611 490Q611 496 609 501T605 511Q603 520 602 530T601
549Q601 557 602 564T602 580Q597 604 581 621T549 652Q544 656 541 660T534 667Q527 669 519 670T504 670Q482 668 465 661T425 648Q393 627 357 600T297 539Q294 534 293 529T288 519Q283 511 277 506T266 492Q257 477 248 459T236 426Q231 406 230 383T226 337Q223
309 219 283T217 233Q217 227 219 221T222 207Q225 181 228 163T244 129Q249 123 258 119T273 108Q278 103 280 98T288 89Q321 63 382 63Q401 76 426 86T469 114Z" />
<glyph unicode="P" glyph-name="P" horiz-adv-x="720" d="M129 755Q185 737 238 734T354 733Q381 733 407 736T459 740T512 741T564 733Q574 730 583 726T602 717Q626 708 637 700T660 670Q680 660 695 650T720 628T738 601T751 564Q757 540 755 516T746 469T729
426T709 391Q698 377 687 365T659 340Q653 335 649 329T640 319Q634 315 625 311T608 302Q600 298 597 294T588 287Q566 279 544 273T500 259Q492 257 485 254T472 249Q465 248 459 250T444 252Q435 251 425 247T401 241Q385 240 369 241T335 241Q321 240 311 239T294
235T282 225T270 206Q268 200 266 193T262 177Q255 158 251 139T249 98Q249 92 249 87T249 78Q251 69 256 62T268 48T278 32T283 13Q266 0 240 1T185 3Q160 3 141 4T99 3Q88 1 78 -3T56 -10Q48 -11 40 -10T22 -10Q10 -12 -1 -15T-22 -23T-44 -29T-65 -31Q-70 -16
-63 -7T-44 11T-20 26T-2 43Q5 61 15 77T32 113Q39 132 43 153T55 193Q59 201 66 208T75 223Q79 238 78 254T81 287Q83 293 88 298T95 309Q98 320 96 332T95 355Q96 364 99 372T104 389Q105 393 105 398T105 408Q109 419 116 430T127 455Q138 490 149 530T159 614Q158
620 157 625T154 636Q153 650 154 660T151 680Q148 686 139 696T124 718T116 740T129 755ZM419 333Q432 339 441 348T465 357Q473 365 476 376T486 397Q501 402 506 414T516 440Q518 445 521 449T527 459Q540 488 546 513T547 571Q545 588 539 599T523 620T504
638T485 656Q475 658 463 663T434 668Q424 668 415 665T395 660Q381 634 372 601T349 539Q347 533 343 528T336 518Q335 512 337 506T339 493Q338 486 336 481T331 469Q327 456 325 441T317 412Q311 390 303 370T302 329Q326 321 360 321T419 333Z" />
<glyph unicode="Q" glyph-name="Q" horiz-adv-x="839" d="M572 20Q582 4 595 -8T623 -30T652 -52T678 -77Q712 -85 741 -75T791 -50Q797 -46 803 -40T817 -30T832 -26T849 -31Q847 -39 844 -50T834 -69Q825 -79 812 -90T785 -112T755 -129T724 -140Q719 -142 714
-141T703 -142Q687 -144 671 -149T637 -154Q620 -154 602 -147T573 -131Q567 -126 564 -119T558 -102Q551 -103 544 -105T529 -103Q524 -101 523 -98T517 -89Q515 -87 511 -86T502 -82Q497 -79 493 -74T484 -65Q470 -54 456 -46T435 -23Q410 -28 372 -32T299 -32Q291
-31 282 -29T264 -26Q251 -26 238 -25T220 -13Q182 0 153 21T100 70Q81 75 72 88Q67 95 65 104T58 120Q56 124 52 125T44 130Q40 134 33 142T23 158Q21 161 21 165T19 172Q17 176 15 177T12 182Q8 194 7 212T5 245Q5 284 7 324T17 402T37 476T67 539Q81 561 92
575T126 606Q142 619 155 629T191 644Q200 649 207 655T216 677Q231 688 253 700T296 721Q325 735 359 746T429 759Q449 760 469 758T507 754Q540 754 556 743T589 720Q612 724 629 712T660 690Q665 687 669 685T678 681Q684 676 688 669T698 659Q704 657 710 658T721
657Q725 655 728 649T736 639Q741 633 747 630T756 621Q758 618 760 613T764 603Q770 593 775 584T785 561Q795 546 798 537Q800 529 800 519T802 498Q805 481 808 464T810 426Q809 419 808 413T805 398Q805 390 806 383T805 368Q800 339 787 312T759 259Q752 246
746 233T734 207Q728 193 719 185T701 165Q699 161 698 157T695 148Q687 132 675 116T650 86Q646 81 643 76T636 66Q624 51 605 42T572 20ZM383 623Q363 609 348 598T316 572Q311 567 306 562T298 552Q294 547 292 540T287 525Q284 518 278 514T267 503Q262 497
258 486T247 463Q239 446 232 431T220 395Q216 381 212 362T209 326Q210 320 212 316T216 306Q218 287 212 273T205 240Q204 227 206 216T213 194T221 174T229 156Q232 147 236 139T246 126Q261 128 277 134T310 147Q327 154 343 163T377 170Q382 169 388 167T401
162Q417 156 430 154T451 139Q453 127 462 120T476 104Q495 112 504 126T527 165Q538 183 553 209T573 259Q578 285 580 312T588 366Q592 391 596 416T605 465Q607 473 609 480T612 496Q613 505 612 516T609 538Q607 552 604 567T597 593Q589 618 574 627T538 647Q530
651 524 656T513 663Q501 665 489 661T465 658Q460 658 456 661T445 663Q434 648 417 641T383 623Z" />
<glyph unicode="R" glyph-name="R" horiz-adv-x="741" d="M492 266Q514 249 537 232T575 191Q572 182 574 177T580 167T589 158T596 146Q599 133 594 117T587 84Q585 76 585 68T582 51Q578 30 576 11T581 -29Q586 -45 598 -64T624 -90Q629 -93 632 -93T640 -94Q646
-97 649 -103T662 -112Q676 -103 693 -107T727 -111Q732 -111 736 -109T744 -106Q767 -104 791 -102T839 -93Q850 -90 862 -83T886 -69Q902 -59 918 -48T956 -44Q957 -63 950 -74T932 -94T909 -111T889 -129Q871 -134 860 -142T835 -160Q827 -164 820 -166T805
-173Q797 -177 791 -184T778 -196Q770 -201 760 -202T740 -206Q713 -214 683 -219T623 -226T562 -224T505 -207Q490 -201 481 -192T460 -171Q447 -160 433 -146T410 -117Q407 -109 405 -98T399 -76Q396 -65 392 -52T387 -23Q386 2 391 29T401 83T406 134T396 178Q393
184 388 189T377 202Q366 216 353 227T317 242Q301 244 281 243T252 234Q238 226 237 209T231 172Q226 149 218 130T212 87Q214 77 218 63T226 41Q229 34 236 24T238 6Q232 -2 218 0T190 3Q173 4 162 4T140 5T119 3T92 -1Q84 -2 80 -3T72 -5T65 -8T54 -12Q48 -14
43 -17T33 -23Q16 -28 -4 -29T-42 -31Q-59 -32 -76 -31T-108 -24Q-106 -12 -97 -8T-82 3Q-56 8 -30 25T5 69Q8 78 9 88T12 109Q17 135 22 162T35 216Q37 221 40 225T45 234Q51 251 52 269T59 305Q64 318 69 329T77 353Q80 366 82 378T92 400Q94 417 96 432T97 467Q108
480 117 494T130 529Q132 540 130 550T127 572Q128 598 131 618T137 665Q129 683 113 689T77 708Q74 709 69 712T59 718T50 726T46 733Q47 740 54 744T71 750T91 752T108 750Q133 745 156 740T203 732T255 727T318 729Q331 730 340 732T362 736Q379 737 395 739T429
740Q460 737 484 740T535 741Q548 739 559 734T582 722T605 712T629 706Q647 695 663 678T694 640Q705 623 715 601T730 564Q737 546 736 529T731 495Q723 466 711 443T685 400T655 359T626 316Q618 313 611 313T596 309Q585 304 577 295T556 281Q551 279 546 280T535
280Q524 277 515 273T492 266ZM433 351Q449 371 468 388T498 429Q503 440 506 455T513 485Q518 515 514 538T500 579T475 610T442 633Q428 641 414 650T378 654Q363 645 354 625T336 588Q333 581 330 574T324 562Q323 555 324 548T323 532Q321 525 313 523T304
513Q304 506 309 501T315 487Q314 475 307 460T297 429Q295 414 291 400T282 372T274 344T271 314Q291 310 314 311T359 317T400 330T433 351Z" />
<glyph unicode="S" glyph-name="S" horiz-adv-x="640" d="M515 649Q513 654 514 656T515 664Q504 670 494 667T472 663Q461 663 447 666T417 672T385 676T354 675Q346 673 331 666T309 654Q286 640 276 613T258 558Q254 554 250 551T243 543Q243 536 248 532T256
522Q262 507 267 492T280 464Q293 444 316 432T364 409Q381 400 393 396T423 383Q433 378 441 376T456 371T469 364T482 351Q488 345 493 339T504 328Q515 317 519 308T538 291Q540 281 547 275T556 260Q558 249 553 241T549 223Q550 214 555 209T563 195Q565 187
563 177T557 157Q552 142 550 128T543 101T532 77T511 56Q507 54 503 53T494 49Q489 47 486 44T480 39Q476 37 472 36T463 33Q457 30 452 26T441 19Q431 14 426 6T408 -8Q397 -13 390 -21T374 -31Q359 -34 343 -30T311 -26Q295 -25 278 -27T244 -31Q226 -33 206
-35T171 -35Q159 -33 140 -29T102 -19T67 -7T43 7Q38 12 35 19T26 32Q15 43 0 53T-22 76Q-25 82 -26 88T-30 102Q-32 109 -36 115T-41 126Q-42 132 -39 136T-35 146Q-33 157 -33 168T-24 188Q-15 190 1 198T31 210T54 213T56 193Q66 187 70 178T75 158T78 135T85
112Q90 100 105 92T129 75Q144 76 157 72T182 64T208 56T238 54Q244 55 250 64T263 75Q289 81 311 82T350 98Q363 109 370 119T379 143Q380 159 376 168T363 184T345 195T324 208Q318 212 313 217T302 224Q282 233 259 239T215 255Q205 260 198 273T180 288Q175
290 169 288T156 287Q148 288 135 296T116 309Q113 312 111 317T105 327Q98 336 90 343T79 358Q77 364 77 369T74 379Q72 383 69 386T63 393Q61 398 61 403T59 415Q53 433 47 446T43 484Q44 500 42 509T42 529Q44 537 46 543T51 558Q53 565 53 572T56 584Q59 589
64 595T74 607Q85 624 96 641T125 671Q133 687 154 703T196 729Q219 740 247 752T295 769Q310 772 324 772T354 772Q379 773 393 772T427 768Q435 766 444 765T461 762Q466 760 469 758T479 754Q490 753 501 756T524 759Q544 757 556 749T585 732Q594 727 603 723T617
714Q623 708 629 697T640 674T648 648T652 626Q652 621 651 617T650 608Q651 600 656 590T659 569Q658 561 652 557T640 545Q636 539 634 532T628 519Q623 512 619 507T612 495Q602 484 582 476T536 462T486 457T441 463Q436 465 432 469T421 475Q415 477 409 478T398
482Q392 486 381 500T367 523Q363 530 363 538T365 557Q367 566 368 579T376 598Q378 600 385 603T400 603Q408 601 414 592T426 573T438 553T453 539Q465 532 482 532T511 536Q530 542 539 556T549 587T541 620T515 649Z" />
<glyph unicode="T" glyph-name="T" horiz-adv-x="534" d="M708 758Q707 753 707 748T706 737Q698 730 693 728T683 718Q680 713 680 707T677 696Q674 689 663 682T646 672Q640 669 634 667T621 662Q612 658 607 656T595 654T582 653T564 650Q561 650 560 649T556
645T547 642T529 639Q518 638 513 638T495 635Q488 633 482 629T469 622Q455 614 449 607T438 593Q432 583 432 571T428 544Q424 534 415 524T402 503Q401 498 402 492T402 479Q400 466 393 453T381 424Q379 416 379 408T378 392Q375 373 369 352T358 309Q356 297
356 285T354 263Q352 254 347 246T337 230T331 212T335 191Q332 154 325 116T307 43Q304 32 298 14T285 -9Q279 -14 270 -15T251 -15T233 -8T222 4Q216 0 212 -7T199 -18Q189 -23 179 -22T157 -26Q147 -30 139 -35T123 -43Q118 -45 114 -45T105 -46Q99 -49 96 -56T87
-67Q79 -65 69 -65T54 -59Q52 -33 62 -14T77 25Q81 36 82 46T86 69Q90 83 96 98T105 130Q108 141 108 152T113 175Q115 183 123 192T135 213Q139 224 142 238T150 265Q155 282 164 294T173 321Q173 328 170 332T167 341Q166 349 169 363T175 388Q180 409 185 426T195
460Q197 468 198 475T202 489Q204 497 208 502T215 514Q217 521 218 531T223 550Q226 557 229 563T234 575Q236 588 231 599T225 622Q214 630 199 631T170 632Q156 631 145 631T120 629Q97 628 80 625T48 619T16 615T-20 614Q-18 625 -18 637T-14 658Q-8 663 -2
663T11 665Q7 671 7 676T9 685T13 694T17 703Q19 713 19 723T27 739Q41 740 52 739T73 737T93 734T118 734Q150 736 170 739T221 743Q242 743 261 743T298 740Q316 737 324 737T340 737T355 739T379 740Q396 740 411 742T444 744Q463 744 470 742T483 737T494 734T516
734Q527 736 530 738T544 743Q554 744 564 744T585 744Q615 747 645 754T708 758Z" />
<glyph unicode="U" glyph-name="U" horiz-adv-x="737" d="M870 733Q867 722 859 716T840 707T817 701T795 694Q785 690 773 682T755 665Q742 648 739 626T730 584Q728 573 724 563T716 542Q708 512 695 477T677 409Q675 393 674 377T668 343Q666 335 663 323T657
299T650 275T643 257Q640 251 635 249T627 240Q622 230 621 218T617 196Q613 181 611 172T606 156T599 141T587 118Q584 113 575 106T560 92Q555 86 551 79T542 67Q533 57 514 50T483 35Q472 27 460 18T436 4Q425 -1 411 -4T385 -11Q373 -15 360 -19T333 -24Q312
-26 286 -29T237 -30Q205 -28 183 -30T135 -26Q65 -7 28 45T-5 177Q-3 199 -2 219T6 264Q10 281 12 298T16 332T25 362T43 386Q54 417 57 446T66 505Q69 521 76 536T88 566Q93 578 96 589T104 612Q106 620 110 625T116 637Q124 658 128 678T144 718Q154 718 166
721T191 729T217 736T242 738Q249 737 258 733T275 723T288 710T292 694Q290 683 280 675T266 658Q264 653 265 649T265 639Q263 631 259 621T252 601Q240 568 229 532T208 459Q203 436 199 415T187 373Q182 359 175 352T162 334Q155 316 156 288T153 234Q148 206
144 186T145 145Q147 138 151 133T160 120Q165 107 168 100T180 90Q186 89 192 91T204 93Q214 93 221 91T235 86T250 82T270 82Q279 84 289 88T307 96Q318 101 325 102T338 108Q361 119 372 133T400 165Q408 167 414 169T425 177Q426 182 422 189T419 204Q419 209
422 214T427 226Q429 232 430 239T434 253Q436 259 441 263T450 276Q453 287 452 298T451 322Q451 336 456 348T466 378Q470 393 471 409T476 439Q478 447 482 453T490 466Q496 480 500 496T508 527Q513 542 517 557T524 586Q526 597 526 606T529 627Q531 636 535
643T543 660Q545 667 545 674T546 687Q554 710 575 717T626 730Q635 732 649 734T672 736Q677 735 680 732T689 727Q699 726 708 733T729 742Q739 745 750 747T776 748Q785 746 794 743T814 738Q829 737 844 739T870 733Z" />
<glyph unicode="V" glyph-name="V" horiz-adv-x="630" d="M911 735Q895 727 880 723T848 713Q831 708 815 706T781 696Q765 688 749 669T720 631Q693 591 666 554T612 478Q598 458 589 437T565 396Q560 390 554 385T543 375Q537 364 535 353T528 332Q523 321 517
315T507 298Q491 281 479 261T452 216Q446 206 438 195T427 175Q425 170 426 166T427 157Q425 150 418 140T406 122Q399 114 393 106T382 90Q368 72 356 54T328 24Q318 17 308 13T291 2Q287 -2 285 -7T278 -17Q268 -28 256 -39T233 -58Q219 -68 206 -64T180 -50Q174
-45 170 -37T161 -25Q156 -20 149 -20T137 -18Q129 -14 123 -8T106 0Q104 17 95 29T84 55Q81 72 83 89T84 124Q82 135 79 145T73 167Q71 178 70 190T66 213Q62 228 57 242T49 272Q47 286 48 302T50 335Q49 349 49 365T51 396Q52 401 53 407T54 418Q54 429 45 443T34
474Q34 491 36 508T37 544Q36 560 34 576T33 609Q33 623 34 633T34 654Q32 667 27 683T31 719Q42 726 63 734T108 746T152 748T182 732Q188 724 191 712T194 685T194 656T188 629Q186 621 181 613T171 596T165 580T172 566Q164 552 169 540T177 514Q178 507 176
500T173 484Q173 436 177 387T189 294Q191 283 195 273T202 253Q204 238 204 224T205 196Q207 182 207 169T210 145T217 125T233 109Q240 115 242 123T246 140T248 158T255 175Q262 187 267 199Q269 205 269 211T272 225Q275 235 283 246T296 269Q302 281 306 293T317
316Q325 330 335 342T354 368Q360 379 364 391T375 414Q380 423 389 430T400 449Q409 449 415 452T427 459Q429 474 436 486T449 511Q454 524 455 538T463 567Q465 573 471 579T485 594Q490 599 493 605T500 616Q504 622 509 627T520 637Q533 654 543 678T565 719Q578
735 598 741T644 750Q670 752 692 748T739 743Q750 743 760 746T781 751Q798 753 815 753T848 753Q856 754 867 756T887 759T904 755T911 735Z" />
<glyph unicode="W" glyph-name="W" horiz-adv-x="1127" d="M1203 685Q1198 684 1194 682T1185 679Q1168 658 1156 633T1129 582Q1124 571 1117 557T1105 527Q1097 497 1091 464T1069 407Q1067 403 1062 397T1052 386Q1048 381 1041 376T1033 367Q1032 361 1035
355T1037 343Q1036 334 1029 326T1016 308Q1012 299 1009 291T1001 272Q992 255 979 236T956 198Q941 168 928 137T895 79Q888 69 881 62T868 44Q866 40 866 36T864 28Q859 18 849 9T829 -10Q821 -21 812 -30T792 -44Q771 -40 752 -36T714 -26Q708 -25 705 -20T700
-10Q689 -19 683 -15T666 -6Q661 -4 657 -3T649 1Q630 11 623 23Q618 61 614 99T604 175Q602 184 600 193T599 213Q601 225 607 237T614 262Q615 270 610 275T602 289Q600 296 598 307T594 330Q590 357 594 390T604 455T610 516T599 565Q590 565 585 561T578 550T573
535T567 520Q562 510 554 503T538 484Q528 470 521 450T505 413Q499 400 491 386T480 351Q475 349 472 345T464 339Q450 313 434 287T400 235T367 181T340 126Q336 121 328 116T315 102Q312 96 312 89T308 73Q304 62 296 52T283 30Q274 10 261 -8T230 -40Q223 -45
212 -50T188 -52Q183 -51 179 -48T169 -41T158 -36T144 -36Q136 -29 133 -22T122 -8Q117 -4 112 -2T101 4T91 11T84 24Q81 37 80 55T79 92T80 132T79 173Q77 194 77 211T75 246Q75 251 73 257T71 268Q72 279 78 287T84 304Q84 316 79 329Q71 345 66 365T63 413Q65
433 67 455T68 502Q67 526 65 546T66 593Q67 604 71 617T73 648Q72 655 68 664T57 684T47 704T41 724Q52 737 68 735T101 730Q109 729 117 730T133 730Q159 728 188 724T244 721Q289 725 330 727T413 733Q413 727 412 720T408 708Q402 700 387 692T359 680Q347
676 340 675T322 668Q310 661 305 653T291 636Q286 612 287 582T287 521Q285 505 283 490T281 461Q281 447 281 435T270 412Q273 373 272 331T275 250Q284 253 295 263T311 283Q314 291 314 300T318 317Q323 333 332 346T350 373T367 401T379 432Q384 433 387 435T395
439Q400 453 402 464T415 486Q419 491 425 494T438 502T448 510T455 521Q457 527 455 532T454 544Q455 552 463 563T477 586Q489 606 497 618T518 648Q531 664 540 674T562 699Q570 708 577 718T590 730Q601 736 615 734T645 733Q654 734 665 740T689 748Q706 751
724 750T758 745T785 731T798 707Q794 693 797 678T798 646Q793 622 779 600T760 552Q758 535 763 517T771 479Q772 472 771 465T771 450Q774 421 777 390Q778 377 775 364T769 337T762 310T758 285Q759 268 761 248T767 217Q769 212 774 207T782 197Q786 186 784
174T786 154Q798 156 798 164T801 180Q806 194 817 209T839 241Q860 273 874 303Q880 313 883 325T892 345Q898 354 905 359T915 376Q919 385 917 393T916 410Q917 421 923 433T938 458T953 484T966 513Q971 531 976 545T989 575Q994 586 1001 595T1013 614Q1018
625 1019 637T1025 660Q1028 671 1033 682T1039 702Q1039 707 1038 711T1038 718Q1039 724 1045 729T1058 740T1074 749T1089 755Q1109 760 1137 757T1190 751Q1205 750 1226 752T1268 756Q1292 758 1316 762T1361 765Q1366 765 1374 763T1382 755Q1383 750 1379
747T1368 740T1354 734T1340 730Q1321 725 1302 722T1264 716T1230 705T1203 685Z" />
<glyph unicode="X" glyph-name="X" horiz-adv-x="746" d="M909 754Q904 743 892 739T868 729Q854 722 840 716T810 700Q782 685 759 660T713 610Q701 599 689 590T668 570Q657 559 647 547T624 524Q615 517 606 512T593 500Q591 498 590 492T587 481Q582 470 572
463T554 445Q550 440 548 436T541 426Q536 421 530 417T519 407Q511 398 503 389T483 369Q473 360 461 348T446 330Q445 324 448 317T455 303T463 288T469 275Q474 265 477 253T485 228Q490 216 496 205T505 183Q507 172 507 162T511 143Q515 135 522 129T535 115Q541
107 545 99T558 86Q563 72 567 58T581 32Q586 26 592 18T604 4Q609 0 615 -1T625 -7Q629 -10 630 -15T635 -25Q643 -35 657 -43T683 -62Q694 -72 703 -80T728 -96Q731 -98 735 -98T744 -100Q751 -102 756 -107T772 -111Q787 -117 793 -118T803 -123T812 -131T821
-137Q831 -132 845 -136T873 -139Q884 -138 890 -137T901 -133T911 -129T927 -126Q939 -125 951 -116T976 -101Q986 -96 995 -94T1016 -87Q1024 -84 1033 -80T1054 -79Q1055 -95 1044 -108T1021 -130Q1002 -145 981 -155T946 -184Q908 -200 867 -215T777 -237Q758
-239 743 -235T717 -222Q710 -226 703 -228T690 -238Q684 -232 675 -235T655 -237Q644 -235 637 -230T623 -219Q612 -221 607 -218T594 -210Q562 -196 536 -174T481 -130Q473 -124 464 -119T447 -108Q443 -103 441 -97T433 -84Q427 -75 421 -66T415 -40Q396 -31
383 -15T359 21T341 62T324 103Q322 108 319 110T313 116Q301 136 292 156T272 195Q241 162 210 130T137 75Q125 61 110 52T79 33T48 13T20 -10Q9 -15 -3 -20T-32 -26Q-42 -26 -56 -28T-84 -32T-108 -32T-118 -22Q-118 -17 -113 -10T-99 5T-84 19T-74 29Q-68 35
-62 41T-51 53Q-36 70 -20 88T14 123Q25 131 35 138T52 156Q54 161 56 166T60 176Q70 190 83 199T108 217Q113 222 118 227T129 239Q134 245 140 250T151 260Q154 264 155 268T160 278Q168 288 180 296T199 315Q191 343 187 370T171 426Q167 435 162 443T153 460Q145
480 139 499T123 535Q119 543 114 550T104 564Q95 579 89 594T74 625Q71 630 66 633T59 642Q55 650 54 660T47 682Q44 689 39 696T35 710Q36 716 45 725T65 736Q68 737 72 737T80 738Q84 739 92 742T108 749T123 755T135 758Q142 758 143 752T150 740Q158 729 170
719T195 700Q197 702 196 707T199 715Q215 723 228 723T254 711Q269 694 283 665T308 607Q313 596 319 589T327 574Q330 564 330 555T333 539Q337 532 343 529T354 523Q360 500 363 483T379 446Q396 455 409 468T433 497T457 527T483 554Q494 561 503 568T521 583Q522
598 529 609T547 629T568 646T588 665Q596 675 603 688T618 712Q621 715 624 718T630 723Q632 728 634 734T638 744Q649 758 672 761T719 763Q730 762 749 759T780 754Q794 753 810 754T843 758Q852 759 862 762T880 766T896 765T909 754Z" />
<glyph unicode="Y" glyph-name="Y" horiz-adv-x="784" d="M466 354Q475 377 485 401T506 450T526 501T540 556Q543 573 546 594T546 635Q545 641 539 647T532 663Q532 671 536 680T547 700T558 719T567 735Q583 737 600 743T634 750Q645 751 656 746T677 739Q719
731 757 736T837 749Q847 751 856 750T876 750Q882 751 888 753T900 757T914 759T928 752Q927 740 922 734T908 725T889 719T870 714Q852 708 839 695T812 673Q803 658 793 645T774 616Q766 602 757 587T743 554Q739 541 739 528T736 501Q732 486 724 472T711 441Q709
428 708 416T706 389Q704 368 696 347T680 303Q674 280 670 260T662 221Q657 203 650 193T631 171Q620 133 616 86T603 -4Q601 -18 600 -31T594 -56Q585 -81 573 -105T552 -153Q549 -162 548 -171T541 -188Q536 -197 528 -203T516 -218Q514 -223 514 -228T513 -238Q505
-265 490 -285T458 -326Q443 -344 428 -359T390 -385Q383 -403 368 -409T334 -425Q326 -429 320 -435T307 -443Q293 -449 276 -448T242 -450Q221 -453 201 -459T161 -468Q146 -469 132 -468T104 -464Q92 -462 80 -460T52 -450Q47 -446 43 -442T33 -435Q19 -426
7 -418T-16 -393Q-21 -387 -25 -380T-35 -364Q-45 -349 -52 -332T-63 -293Q-66 -278 -67 -258T-65 -223Q-63 -218 -59 -213T-52 -200Q-45 -183 -37 -165T-14 -134Q-9 -130 -3 -126T11 -117Q21 -110 31 -103T54 -90T85 -82T127 -84Q156 -89 179 -107T217 -148Q223
-158 228 -169T230 -195Q225 -200 216 -208T194 -215Q188 -214 183 -209T172 -196T160 -182T147 -172Q139 -169 128 -168T109 -167Q96 -168 89 -170T78 -175T70 -183T59 -195Q57 -214 55 -230T60 -261Q64 -267 69 -272T79 -283Q84 -288 90 -293T99 -303Q102 -309
101 -315T105 -326Q113 -331 119 -328T131 -322Q160 -330 187 -326T237 -311T279 -284T310 -249Q315 -247 320 -246T330 -242Q328 -226 331 -213T339 -187T351 -163T362 -138Q369 -122 373 -103T381 -67Q385 -50 391 -34T403 -1Q410 17 414 35T423 71Q428 88 434
105T442 139Q437 128 428 123T409 108Q398 97 391 84T372 63Q362 56 348 52T322 41Q299 27 279 18T225 3Q195 -1 173 1T127 16Q116 22 101 34Q89 43 77 50T56 70Q53 75 50 84T46 99Q45 107 47 114T47 128Q45 133 40 134T29 141Q21 149 19 157T12 174Q10 201 12
228T17 286Q19 306 19 326T26 366Q29 376 33 385T39 406Q42 417 44 427T50 447Q55 462 64 476T76 504Q77 512 75 519T74 534Q75 551 80 564T92 592Q97 618 106 640T125 684Q133 701 139 718T158 750Q165 752 168 747T176 745Q190 751 205 751T236 752Q244 753 251
755T267 760Q288 764 308 764T336 744Q342 728 338 714T325 688T307 663T293 639Q279 638 271 632T257 617T247 595T238 570Q232 556 226 544T217 519Q215 506 215 495T210 472Q207 463 200 455T189 436Q187 431 187 425T186 413Q184 408 182 405T178 397Q175 386
174 374T168 347Q163 330 161 316T158 282Q157 262 155 245T152 214T159 191T183 178Q189 161 207 149T252 139Q273 141 292 153T325 171Q335 183 347 192T370 212T392 233T411 258Q416 262 425 265T439 278Q442 283 442 292T444 308Q447 315 453 319T463 329T469
339T466 354Z" />
<glyph unicode="Z" glyph-name="Z" horiz-adv-x="721" d="M203 85Q215 86 226 82T250 76Q282 71 314 68T373 52Q378 50 380 48T387 43Q399 38 412 38T437 33Q444 30 452 26T469 17Q477 13 486 10T501 2Q511 -5 520 -15T546 -28Q555 -38 563 -48T577 -72Q592 -63
600 -68T621 -82Q647 -99 689 -107T772 -115Q786 -114 799 -112T824 -109Q829 -110 834 -113T845 -115Q852 -113 855 -107T865 -97Q893 -95 914 -87T961 -72Q974 -65 984 -56T1014 -48Q1022 -56 1017 -65T1008 -83Q997 -94 985 -100T959 -118Q954 -121 950 -126T940
-134Q930 -141 919 -147T897 -162Q887 -169 877 -177T856 -189Q849 -193 839 -194T818 -199Q803 -204 785 -210T746 -219Q735 -221 725 -220T703 -222Q697 -224 692 -230T679 -238Q667 -242 654 -237T629 -230Q602 -228 575 -224T531 -204Q520 -204 510 -203T489
-199Q484 -197 482 -193T475 -186Q470 -184 463 -184T451 -181Q445 -178 442 -171T432 -162Q427 -160 422 -163T411 -166Q403 -165 392 -157T372 -141Q353 -127 337 -116T302 -90Q293 -84 286 -77T270 -62Q262 -55 250 -51T227 -42Q216 -37 205 -33T183 -26Q170
-21 156 -20T129 -15Q118 -12 105 -8T81 -1Q70 0 56 -2T27 -8T-2 -15T-27 -16Q-36 -15 -37 -12T-51 -5Q-49 -1 -48 3T-45 10Q-47 35 -47 68T-32 124Q-28 129 -19 136T-1 151Q21 169 46 177Q69 195 90 213T137 247Q143 255 148 265T160 285T173 303T189 316Q196
318 201 319T212 322Q221 326 232 332T249 347Q253 352 253 357T258 370Q263 380 274 389T295 409Q330 446 369 474T447 538Q465 553 476 568T503 601Q508 608 514 616T517 634Q507 641 494 638T467 634Q447 632 425 633T381 634Q371 633 361 632T343 631Q331 633
322 638T301 645Q281 648 257 637T214 615Q198 606 186 590T162 555T140 516T118 481Q111 472 101 464T77 452Q69 457 69 465T72 483T80 504T87 525Q89 537 87 548T87 566Q89 572 93 577T99 587Q101 595 100 599T97 609Q98 621 102 631T110 654Q112 665 112 676T113
696Q115 704 122 717T137 736Q145 741 156 738T180 732Q191 730 204 731T229 731Q259 729 286 732T348 733Q371 731 397 728T450 730Q460 732 469 739T488 748Q509 750 534 743T583 736Q591 735 597 737T611 740Q625 740 639 738T666 734Q682 734 697 733T731 733Q742
734 753 736T775 740T793 739T805 729Q807 702 807 673T792 621Q785 611 771 603T743 586Q715 569 694 554T649 515Q638 504 629 496T611 479T595 460T581 435Q567 427 553 422T527 404Q521 397 517 390T507 376Q473 340 433 309T362 240Q348 211 324 194T281 154Q264
149 253 139T227 121Q222 110 215 103T203 85Z" />
<glyph unicode="[" glyph-name="bracketleft" horiz-adv-x="318" d="M386 790Q394 775 386 765T362 747T329 733T302 721Q297 714 297 707T294 693Q292 684 290 678T285 665T279 653T274 636Q272 626 272 616T268 596Q266 589 263 583T257 568Q240 516 228 462T205
354Q201 335 197 316T187 276Q182 256 180 237T171 199Q169 191 165 185T158 172Q150 156 147 138T137 98Q133 84 129 74T123 44Q121 30 121 12T129 -9Q133 -11 140 -11T156 -11T172 -11T185 -13Q193 -16 193 -32T188 -62Q162 -70 139 -68T91 -66Q85 -66 72 -67T45
-68T19 -69T3 -66Q-3 -62 -4 -50T-5 -22T-1 8T5 34Q7 41 12 47T20 58Q27 73 29 92T36 134Q44 163 50 189T66 245Q69 256 75 265T86 286Q91 302 92 323T98 362Q99 368 101 372T104 382Q104 387 102 390T100 399Q100 406 103 415T108 433Q111 454 118 480T125 526Q146
561 153 597Q155 614 162 631T174 668Q178 683 180 697T185 726T192 755T205 781Q212 789 225 792T254 796T285 796T312 795Q331 794 349 793T386 790Z" />
<glyph unicode="\" glyph-name="backslash" horiz-adv-x="301" d="M122 726Q129 686 141 644T163 561Q165 551 167 540T170 520Q171 512 166 506T162 492Q164 478 171 461T184 427Q189 411 195 393T201 359Q202 353 200 347T198 336Q200 325 207 314T218 290Q224
270 228 245T239 196Q245 168 252 141T265 89T270 42T261 2Q244 -3 229 -4T197 9Q186 32 180 60T168 121Q166 131 165 141T165 159Q167 167 170 175T170 197Q168 203 164 208T157 218Q149 230 147 242T141 268Q139 273 136 279T130 292Q126 306 126 323T120 357Q115
380 109 398T99 437Q97 446 95 455T92 469Q92 476 97 483T101 499Q100 504 95 509T85 522Q79 534 78 547T73 573Q71 579 67 584T60 594Q58 598 59 602T58 612Q55 622 50 631T43 650Q41 660 39 669T34 687Q32 697 31 709T31 727Q33 738 43 744T68 750T96 745T122
726Z" />
<glyph unicode="]" glyph-name="bracketright" horiz-adv-x="324" d="M-63 -59Q-71 -44 -62 -35T-38 -18T-6 -4T20 8Q27 15 27 22T30 37Q34 55 39 64T49 93Q51 103 51 113T55 134Q57 140 60 147T67 161Q83 213 95 267T119 375Q122 394 126 414T135 454Q140 474
143 493T152 530Q154 538 158 544T166 558Q173 574 176 591T185 631Q190 645 194 655T201 686Q203 700 202 717T194 738Q189 740 182 740T167 740T152 740T138 742Q130 747 130 762T135 792Q161 799 184 797T232 795Q238 795 251 796T278 797T303 798T319 795Q325
791 327 779T328 752T324 722T317 695Q315 688 310 683T303 672Q296 656 294 637T287 596Q279 567 273 541T257 484Q254 473 248 464T238 443Q231 427 230 406T225 367Q223 361 221 357T219 348Q218 343 220 339T223 330Q222 324 220 314T216 296Q212 276 205 250T198
203Q187 186 180 169T171 132Q168 115 161 98T148 62Q141 33 138 4T119 -51Q111 -59 98 -62T68 -67T37 -67T10 -66Q-8 -65 -27 -63T-63 -59Z" />
<glyph unicode="^" glyph-name="asciicircum" horiz-adv-x="499" d="M358 750Q365 718 372 688T391 630Q399 609 408 587T423 541Q425 532 424 522T424 502Q426 494 431 489T439 475Q440 472 440 469T440 461Q442 453 445 446T450 431Q455 408 458 383T463 332Q457
323 448 321T431 322T415 331T404 343Q401 348 399 355T395 371Q393 378 389 384T381 399Q377 407 377 416T373 430Q369 435 362 438T350 449Q348 452 347 457T344 467Q342 472 339 476T334 486Q331 495 330 504T327 523Q323 535 320 542T314 556T308 570T300 589Q280
582 272 567T249 532Q245 528 240 525T230 517Q221 506 214 492T198 464Q189 450 179 439T161 416Q151 403 144 395T131 380T119 366T103 348Q100 344 94 338T79 325T61 315T45 311Q35 311 25 319T15 333Q15 340 22 348T34 364Q51 386 64 409T92 454Q94 459 93
462T93 469Q101 478 106 487T119 506Q125 514 133 521T147 537Q152 544 154 551T160 566Q169 583 182 599T210 632T239 665T265 697Q270 704 276 713T290 731T304 747T319 757Q330 760 339 756T358 750Z" />
<glyph unicode="_" glyph-name="underscore" horiz-adv-x="419" d="M418 83Q436 64 427 46T392 18Q387 16 382 16T370 13Q355 8 345 1T324 -8Q311 -9 296 -7T264 -2Q231 0 192 -1T119 -2Q89 -2 66 0T27 11Q-8 4 -48 -1T-127 -3Q-152 -1 -174 5T-219 11Q-221 23
-217 32T-204 50T-187 65T-171 81Q-156 85 -141 85T-109 85T-78 81T-45 80Q-36 80 -28 82T-9 85Q4 86 19 86T50 85Q64 85 81 86T106 85Q117 84 124 79T142 74Q150 74 156 77T174 83Q186 85 202 85T234 86T266 86T290 87Q322 89 353 87T418 83Z" />
<glyph unicode="`" glyph-name="grave" horiz-adv-x="831" d="M575 587Q556 582 545 585T526 596T512 613T499 630Q489 639 481 645T462 662Q457 666 451 670T439 680T430 690T429 702Q431 709 437 717T450 734T466 748T480 757Q494 763 507 755T528 738Q533 733
534 726T541 714Q549 703 554 699T568 684Q579 669 586 654T608 628Q606 617 595 607T575 587Z" />
<glyph unicode="a" glyph-name="a" horiz-adv-x="592" d="M209 456Q228 469 242 486T269 520Q277 519 283 523T296 529Q310 533 324 529T353 525Q370 527 385 534T422 541Q429 541 435 537T447 531Q455 529 461 533T476 537Q490 537 497 528T515 510Q520 487 516
465T514 420Q516 405 518 391T521 362Q522 349 520 335T518 306Q519 301 521 296T522 286Q520 275 513 269T505 253Q503 238 511 225T522 198Q523 192 521 185T519 172Q517 150 519 123T523 73Q523 65 524 57T524 44Q523 39 520 36T514 29Q513 24 514 15T516 -2Q516
-9 515 -15T514 -27Q515 -30 516 -33T517 -40Q515 -49 504 -59T480 -69Q474 -68 463 -60T446 -46Q437 -35 435 -18T426 13Q423 18 418 22T408 33Q402 44 400 55T398 78T396 101T391 125Q389 129 385 132T378 140Q372 150 370 157T357 168Q322 168 287 170T217 168Q209
167 203 165T189 161Q185 161 181 162T174 163Q160 161 147 151T127 130Q123 124 123 116T119 99Q116 91 109 85T104 68Q93 60 86 48T71 24T56 0T35 -16Q30 -18 26 -21T16 -24Q11 -23 11 -21T4 -15Q-2 -11 -10 -6T-27 5T-41 17T-51 30Q-59 47 -54 54T-41 73Q-30
89 -16 109T9 147Q15 157 19 166T31 183Q39 194 51 201T69 219Q71 224 71 229T73 241Q81 261 98 277T124 313Q126 318 126 322T129 332Q145 369 168 398T209 456ZM349 459Q337 450 329 439T306 421Q302 412 297 404T282 391Q279 375 270 364T253 341Q249 337 246
333T239 323Q234 318 229 316T220 309Q214 301 207 287T194 264Q189 259 184 254T181 241Q184 233 193 231T213 228T236 228T254 229Q268 229 282 229T310 229T334 234T351 246Q361 278 356 310T347 375Q345 384 344 395T344 415Q345 425 350 434T352 457L349 459Z"
/>
<glyph unicode="b" glyph-name="b" horiz-adv-x="605" d="M462 252Q462 248 465 247T473 244T480 240T483 233Q497 219 508 213T534 190Q536 188 538 179T542 167Q556 147 550 126T529 85T492 50T455 27Q440 19 426 16T391 9Q386 8 382 6T373 2Q341 -5 310 -3T245
-2Q234 -3 225 -5T203 -3Q198 -2 193 1T183 6Q176 8 168 6T152 2Q141 0 129 1T104 1Q97 0 91 -2T78 -6Q58 -9 38 -9T2 -9Q-4 -9 -9 -7T-19 -5Q-23 -5 -32 -6T-50 -8T-65 -7T-72 2Q-72 6 -67 10T-54 17T-40 24T-29 31Q-23 36 -14 45T5 64T21 85T30 104Q31 109 30
113T30 121Q32 133 39 150T52 180Q54 187 55 195T58 209Q63 220 69 228T80 246T88 265T90 292Q89 297 87 302T84 313Q84 331 94 346T108 379Q108 384 106 387T104 396Q104 408 107 419T113 442Q115 458 109 474T94 502Q91 506 87 510T78 518T72 529T71 545Q89 548
102 545T126 534Q148 537 171 533T212 521Q226 523 239 522T267 519Q272 519 276 517T286 515Q297 515 308 519T330 526Q338 528 345 526T359 523Q368 524 374 527T385 530Q407 534 429 532T469 522Q474 520 485 521T502 519Q513 512 527 507T551 494Q558 488 563
481T579 469Q585 467 586 461T594 451Q607 443 614 423T621 386Q619 375 613 367T600 349Q597 344 594 337T587 326Q583 323 577 320T564 313Q556 308 550 301T537 292Q530 289 524 285T511 278Q495 273 483 268T462 252ZM364 296Q371 304 380 304T399 310Q405
313 411 319T425 333T437 349T445 364Q453 379 448 395T436 423Q434 427 427 435T415 446Q412 447 408 446T399 446Q386 448 370 450T338 454Q303 457 290 443T266 397Q258 373 252 350T239 300Q251 291 265 290T296 290T329 295T364 296ZM224 59Q246 59 262 70T295
87Q306 90 317 90T336 94Q341 96 347 103T355 113Q358 118 362 135T369 166Q373 196 359 204T319 214Q292 217 268 217T220 209Q216 201 211 193T201 175Q196 167 190 159T180 141Q175 130 175 117T171 90Q174 84 176 78T183 67Q194 69 203 64T224 59Z" />
<glyph unicode="c" glyph-name="c" horiz-adv-x="542" d="M561 524Q563 513 557 506T540 496Q542 489 547 488T554 481Q546 465 528 458T489 445Q477 443 464 443T438 445Q421 448 406 456T377 463Q373 462 369 458T359 452Q349 445 335 441T312 431Q289 418 269
399T227 366Q219 350 212 335T196 299Q192 290 188 281T181 262Q179 253 178 240T173 216Q171 208 167 202T163 187Q165 179 171 174T180 162Q182 158 181 154T180 144Q184 127 197 113T220 86Q241 84 257 80T292 72Q309 80 326 85T364 97Q379 102 393 112T424
125Q427 125 431 124T438 123Q446 124 452 129T464 138T478 146T496 147Q506 130 500 120T481 102T458 83T446 57Q437 47 424 36T394 18Q387 16 380 15T366 11Q345 3 327 -6T282 -14Q266 -14 253 -11Q242 -9 233 -4T212 3Q198 5 184 3T158 3Q146 5 133 12T108 28Q95
35 84 41T61 54Q48 63 40 76T19 101Q14 121 15 140T15 180Q14 198 9 217T5 251Q7 258 10 266T14 283Q16 297 18 308T27 331Q31 338 36 344T47 356T57 369T62 387Q68 395 76 399T90 411Q93 416 93 421T97 431Q102 437 112 444T129 456Q149 467 171 476T212 500Q224
500 235 503T257 511T279 520T302 527Q313 528 326 528T351 528Q369 529 387 529T421 528Q428 527 435 524T450 520Q457 520 464 523T479 527Q499 529 520 528T561 524Z" />
<glyph unicode="d" glyph-name="d" horiz-adv-x="613" d="M13 60Q20 76 25 90T38 123Q42 133 44 144T51 166Q56 175 63 184T75 204Q81 221 76 242T77 286Q82 307 88 327T97 364Q99 375 99 386T101 410Q103 423 109 435T116 459Q118 482 106 500T80 532Q81 538
86 541T95 544Q107 542 122 536T151 528Q163 526 177 528T208 528Q225 526 249 524T296 522Q322 521 346 523T393 522Q410 520 424 513T455 508Q469 492 487 484T521 462Q542 445 557 422T593 381Q593 373 597 366T602 350Q602 345 600 339T598 326Q599 317 604
312T608 295Q607 260 590 226T556 166Q545 165 541 157T529 139Q519 125 506 116T481 92Q459 84 441 71T399 47Q391 43 383 40T366 32Q356 29 347 25T330 19Q324 17 318 18T305 17Q292 14 280 7T256 -3Q242 -5 228 -1T201 6Q184 4 167 4T132 6T94 6T51 1Q45 0 39
-3T26 -7Q15 -9 2 -9T-24 -9Q-29 -9 -36 -9T-49 -7T-61 -4T-67 3Q-68 9 -64 13T-53 21T-39 27T-28 32Q-16 39 -8 47T13 60ZM279 447Q271 439 268 428T262 405T257 379T251 354Q247 346 243 339T237 323Q232 304 231 286T225 248Q223 237 218 227T210 205Q208 194
210 184T210 163Q208 155 205 148T199 133Q194 106 209 94T245 76Q281 68 311 80T360 109Q373 124 387 141T409 180Q412 188 415 201T422 228Q425 239 429 248T437 268Q448 294 446 323T435 370Q432 376 426 383T413 397Q406 405 401 413T391 425Q377 438 358 443T322
462Q305 461 297 456T279 447Z" />
<glyph unicode="e" glyph-name="e" horiz-adv-x="575" d="M522 467Q495 454 468 454T408 456Q399 456 389 455T369 453Q322 448 290 418T243 341Q238 324 235 310T248 294Q258 292 268 294T288 299T309 306T329 309Q333 309 336 307T344 305Q361 303 380 307T415
308Q418 307 420 305T428 300Q441 295 459 294T488 287Q493 285 498 280T503 272Q503 261 490 258T468 254Q460 253 452 254T436 253Q422 251 409 248T381 239Q364 233 349 225T316 214Q303 212 291 214T265 214Q260 213 256 211T246 208Q237 206 233 206T226 203T221
197T213 185Q205 167 203 147T199 103Q210 92 220 86T251 79Q262 79 268 81T286 85Q297 85 308 84T333 83Q362 85 382 90T431 94Q437 94 452 93T484 91T512 86T525 78Q525 72 518 66T501 54T482 45T469 40Q452 35 436 37T401 38Q387 36 376 32T354 24T332 15T305
9Q285 7 271 5T238 -2Q230 -4 223 -6T208 -11Q179 -17 146 -14T73 -14Q48 -17 29 -21T-11 -24Q-18 -23 -24 -23T-36 -17Q-34 -9 -27 -3T-13 8Q-6 14 0 20T13 33Q19 41 23 52T30 76T38 98T50 117Q42 135 50 158T66 206Q68 212 68 218T70 229Q72 239 79 246T88 262Q89
267 89 272T89 282Q91 297 96 310T104 335Q106 343 105 351T104 368Q106 388 112 406T120 438Q121 449 117 462T109 482Q106 487 100 492T88 503T78 512T73 521Q74 532 82 532T97 539Q133 538 165 531T233 522Q246 520 260 522T287 526Q308 527 334 520T387 515Q422
517 453 517T518 519Q524 514 536 514T560 516T583 517T598 508Q604 494 596 484T574 471Q570 471 563 470T548 468T533 467T522 467Z" />
<glyph unicode="f" glyph-name="f" horiz-adv-x="526" d="M241 304Q254 300 267 302T295 302Q311 300 324 295T356 292Q383 296 411 300T464 297Q466 286 461 279T447 269Q444 256 437 252T420 246T399 245T376 242Q368 239 360 232T340 221Q335 219 329 219T315
219Q308 218 301 216T288 212Q282 211 276 212T265 211Q258 209 249 205T228 202Q217 190 209 171T195 131T184 88T173 47Q171 39 170 29T166 14Q164 11 153 8T127 2T101 -2T85 0Q77 5 76 -1T69 -9Q63 -11 55 -10T40 -12Q35 -14 32 -19T24 -27Q11 -34 -1 -31T-15
-13Q-16 -4 -10 8T4 28Q3 39 9 47T17 66Q18 71 17 77T17 89Q19 100 30 112T46 139Q54 161 59 192T74 248Q77 256 82 262T91 276Q99 298 99 319T101 364Q102 373 106 380T113 398Q120 419 121 440T130 480Q129 490 124 497T114 509T103 521T96 538Q103 542 110 542T124
542T138 539T152 538Q158 540 166 543T187 544Q194 542 200 539T217 534Q227 532 238 532T258 528Q265 526 274 524T289 520Q309 517 333 519T383 520Q395 519 406 516T429 511Q446 509 468 510T511 513Q524 514 533 515T550 518T566 520T587 520Q593 519 600 519T608
510Q609 499 600 495T581 486Q567 479 557 471T534 457Q520 451 507 450T476 443Q454 438 433 435T388 433Q375 435 360 437T333 436Q324 434 318 423T300 404Q295 401 290 400T281 397Q272 391 267 380T257 357T249 330T241 304Z" />
<glyph unicode="g" glyph-name="g" horiz-adv-x="599" d="M568 521Q566 511 562 504T552 489Q534 485 519 474T483 460Q479 460 476 461T468 463Q456 464 442 462T413 458Q394 456 381 449T351 438Q312 428 282 410T234 359Q226 344 218 325T193 293Q198 282 197
273T192 257T184 242T177 227Q175 223 175 218T175 208Q170 176 179 149T213 110Q229 102 244 101T281 102Q304 104 331 105T373 117Q381 123 385 133T397 153Q405 164 410 179T414 208Q413 215 405 222T390 231Q383 234 376 234T362 236T351 241T346 252Q346 262
359 266T392 272T431 274T464 276Q479 279 495 289T529 298Q539 298 544 297T552 294T557 289T563 280Q569 258 565 241T553 206Q550 197 550 188T547 170Q545 162 539 153T526 133Q521 122 518 110T509 87Q507 84 505 82T500 75Q495 64 494 54T489 35Q483 16 471
2T449 -26Q442 -28 436 -28T425 -30Q420 -32 420 -27T415 -20Q404 -28 391 -37T360 -40Q358 -29 361 -21T368 -5T378 10T385 26Q371 24 358 14T330 -1Q325 -3 319 -2T305 -2Q280 -6 250 -14T196 -17Q190 -16 187 -13T178 -6Q167 0 153 2T128 8Q109 14 97 27T74
51Q73 59 68 65T57 77T44 88T35 101Q32 109 32 119T28 139Q24 155 20 167T13 192T10 219T15 251Q21 268 29 287T44 322Q56 347 74 374Q85 390 95 401T116 425Q134 446 163 464T221 497Q245 508 275 519T340 532Q370 535 399 529T457 521Q474 520 494 520T531 523Q536
524 541 525T550 528T559 528T568 521Z" />
<glyph unicode="h" glyph-name="h" horiz-adv-x="662" d="M672 551Q673 517 665 491T642 444Q638 439 633 436T626 427Q620 416 619 403T614 374Q612 361 611 348T604 322Q601 314 598 310T591 300T586 288T583 269Q583 265 584 260T586 252Q585 227 574 199T552
145Q549 137 549 129T547 109Q546 100 543 87T535 61T525 35T515 18Q511 14 504 10T488 4T471 2T457 6Q449 3 445 -8T430 -26Q424 -29 410 -31T390 -32Q384 -30 380 -25T371 -15Q371 2 373 17T383 42Q380 67 388 87T407 125Q399 133 400 146T408 168Q407 178 400
184T383 193T360 197T338 201Q320 203 312 203T290 201Q274 201 260 202T232 203T206 203T182 196Q181 187 177 180T169 167T161 153T156 136Q156 133 157 129T158 122Q156 108 143 89T124 47Q122 36 118 25T104 9Q99 6 93 6T82 4Q74 0 71 -5T59 -13Q56 -13 49
-13T34 -12T20 -12T11 -9Q9 -3 10 5T10 20Q17 33 22 49T31 82T40 114T52 143Q52 156 55 167T63 189T71 211T73 234Q72 243 66 250T52 264T38 280T33 298Q35 302 42 305T58 310T75 313T89 315Q98 327 100 342T104 372Q106 383 109 392T115 415Q116 423 119 430T125
445Q128 458 128 469T134 492Q148 500 172 506T214 513Q221 513 226 517T236 525T246 533T258 535Q263 534 267 528T272 516Q273 508 267 504T258 493Q253 482 250 465T241 434Q239 430 236 427T232 420Q231 412 234 402T234 382Q230 367 220 353T209 317Q214 309
224 306T244 300Q266 295 293 291T349 287Q364 287 379 288T406 278Q424 290 433 303T447 345Q458 353 463 366T480 387Q479 392 474 395T469 406Q468 410 471 413T476 421Q482 444 483 465T492 513Q510 530 538 535T599 531Q613 539 627 549T655 565Q662 563 665
559T672 551Z" />
<glyph unicode="i" glyph-name="i" horiz-adv-x="283" d="M5 51Q7 74 20 92T41 131Q45 144 46 158T48 187T51 216T58 245Q53 254 54 265T55 288Q60 295 63 304T77 316Q87 338 87 361T92 410Q93 415 96 419T101 428Q108 449 108 472T116 517Q122 519 131 523T149
532T168 540T184 542Q189 540 194 537T206 528Q211 525 215 521T225 514Q229 512 235 511T244 507Q245 506 250 500T261 487T272 474T278 465Q279 459 277 452T272 437T265 422T259 408Q256 397 253 387T245 365Q240 352 234 335T226 299Q224 285 216 278T204 258Q202
249 202 239T202 220T203 201T198 184Q195 179 189 177T179 169Q173 159 169 144T161 113T158 80T164 50Q159 34 147 22T117 4T81 -3T41 3Q33 15 22 25T5 51Z" />
<glyph unicode="j" glyph-name="j" horiz-adv-x="302" d="M328 556Q317 514 305 478T281 400Q272 397 269 389T263 371T260 350T256 328Q254 320 249 314T242 300Q239 288 239 274T237 246Q231 220 217 195T194 140Q186 120 182 100T169 61Q164 49 157 37T142
11Q135 -1 129 -14T115 -38Q110 -45 102 -52T86 -69Q70 -91 54 -106T8 -132Q0 -155 -21 -164T-71 -181Q-84 -184 -100 -187T-129 -193Q-138 -193 -148 -190T-169 -185Q-196 -181 -219 -180T-262 -169Q-269 -164 -279 -155T-287 -135Q-286 -128 -280 -127T-265 -126T-249
-131T-237 -138Q-208 -143 -184 -138T-139 -122Q-111 -106 -87 -90T-39 -53Q-34 -39 -25 -29T-7 -10T11 11T23 37Q19 51 27 62T40 84Q42 92 41 100T40 119Q41 133 47 151T56 187Q57 196 57 203T60 216Q65 225 72 235T86 256Q92 267 98 280T106 302Q106 313 100
324T94 348Q95 353 96 360T99 372Q104 390 112 405T125 440Q129 454 130 468T139 496Q153 506 168 513T201 528Q207 529 208 526T213 520Q221 527 227 541T248 563Q251 565 256 565T266 566Q280 569 286 575T305 579Q313 577 318 570T328 556Z" />
<glyph unicode="k" glyph-name="k" horiz-adv-x="596" d="M647 557Q652 534 652 516T638 486Q634 482 629 481T620 475Q613 468 610 459T601 442Q572 428 547 409T494 373Q481 366 469 356T444 338Q439 333 435 328T424 319Q417 314 409 313T394 308Q383 301 376
292T359 272Q359 246 365 228T381 193T398 159T412 121Q427 114 432 99T449 73Q452 69 457 68T466 62Q471 58 474 52T482 41Q491 33 500 28T518 14Q526 6 534 -3T556 -16Q565 -33 576 -47T607 -67Q609 -75 616 -80T622 -92Q619 -103 604 -104T570 -104T532 -98T504
-93Q502 -91 500 -90T495 -86Q472 -84 456 -76T425 -59Q418 -46 410 -34T391 -12Q391 -4 389 2T386 18Q378 24 370 29T349 37Q340 51 335 67T319 98Q317 102 314 104T308 111Q306 117 306 123T305 135Q302 150 295 160T281 183Q279 206 268 208T244 203T217 184T197
169Q190 158 187 140T178 106Q176 102 173 99T165 88Q157 72 154 47T142 2Q136 -17 114 -20T74 -11Q66 -16 60 -21T45 -26Q34 -25 24 -17T5 -5Q4 10 7 25T14 55Q17 70 20 84T27 113Q29 120 30 127T34 140Q36 146 40 151T46 162Q48 168 47 174T46 186Q48 198 53
209T65 228Q66 251 70 270T80 308T91 344T100 383Q112 404 123 434Q128 447 131 462T139 490T149 513T168 528Q173 545 187 558T222 561Q226 557 228 551T233 538T237 525T245 515Q253 508 263 508T282 502Q287 489 287 478T282 457T273 436T265 416Q263 411 263
405T261 393Q259 388 258 383T254 373Q251 356 249 344T234 322Q239 309 234 302T228 283Q243 289 255 299T278 319T302 340T331 357Q336 357 341 357T352 356Q360 361 366 368T377 382Q383 388 387 395T398 410Q408 419 419 425T442 439Q453 447 459 457T475 476Q491
488 510 496T546 519Q563 533 583 544T622 564Q628 567 634 565T647 557Z" />
<glyph unicode="l" glyph-name="l" horiz-adv-x="489" d="M220 9Q213 10 200 4T175 -6Q164 -9 151 -13T126 -16Q118 -15 111 -12T98 -9Q93 -9 89 -13T79 -19Q68 -23 53 -25T24 -27T2 -20T-4 1Q-2 10 3 19T14 41Q22 62 26 85T37 123Q41 131 49 138T58 153Q59 159
56 163T53 174Q53 179 55 184T59 198Q60 206 59 212T60 224Q62 230 66 235T74 246T82 259T85 275Q85 280 88 291T90 309Q87 330 90 344T99 369T111 393T121 422Q125 443 127 466T134 507T151 537T187 545Q197 533 200 522T211 497Q214 489 227 483T245 470Q250
464 256 458T265 444Q268 431 267 414T264 383Q263 375 262 367T259 352Q257 345 255 340T251 330Q249 320 249 313T246 298Q241 283 232 272T217 246Q214 239 213 230T209 213Q203 191 196 163T191 109Q199 111 205 112T216 113T227 113T244 110Q259 106 277 100T314
92Q328 91 342 92T371 91Q385 89 397 87T421 86Q426 88 428 89T435 92Q451 95 472 92T511 86Q514 86 520 86T532 87T542 83T546 74Q545 65 533 60T512 53Q500 50 490 50T467 47Q456 44 448 40T430 33Q427 31 424 31T417 31Q411 29 403 25T390 19Q372 15 352 21T310
25Q302 24 294 22T278 17Q270 15 262 14T248 11L220 9Z" />
<glyph unicode="m" glyph-name="m" horiz-adv-x="822" d="M607 -24Q602 -23 602 -17T598 -9Q585 -9 578 -9T556 -5Q550 9 550 24T555 53Q557 59 561 63T568 73Q569 78 568 84T566 95Q567 125 579 154T596 213Q597 221 595 232T595 252Q597 261 602 269T610 287Q614
307 614 326T623 365Q589 330 561 294T508 209Q497 186 481 168T454 124Q452 119 452 115T450 105Q445 94 437 82T423 55Q420 44 417 31T408 7T394 -13T373 -22Q361 -22 354 -18T336 -16Q321 -5 306 4T281 33Q271 52 267 81T256 135Q254 143 251 150T246 164Q245
176 246 187T245 210Q242 222 233 231T218 248Q215 263 214 280T212 315Q202 311 200 299T193 273Q190 266 187 260T182 249Q181 243 183 237T184 223Q183 217 181 208T176 191Q171 177 164 163T153 132Q147 115 146 96T139 62Q137 56 131 51T119 40T109 25T104
7Q93 -1 81 -6T51 -18Q42 -21 33 -22T15 -20T3 -8T1 16Q3 30 10 46T23 83Q30 109 35 130T53 166V185Q57 192 60 198T69 210Q66 224 67 237T73 262T83 286T92 309Q96 321 97 330T103 348Q105 352 110 354T118 362Q123 371 129 387T138 414Q141 423 141 432T139 451T138
470T144 486Q147 491 154 495T167 502Q178 509 188 513T212 523Q217 525 223 527T233 529Q244 529 253 522T274 510Q279 508 284 508T292 507Q310 499 324 488T348 466Q359 428 359 387T362 308Q364 302 366 296T369 284Q370 273 369 263T369 243Q372 223 379 207T391
172Q401 177 407 187T418 208Q428 229 438 247T462 283Q473 298 479 316T501 344Q507 349 514 350T526 358Q531 396 545 423T579 476Q587 486 597 502T618 523Q627 527 640 525T665 522Q680 522 690 526T710 534T730 541T756 542Q758 544 761 544T767 547Q776 543
785 538T801 525T813 508T817 487Q817 482 813 476T806 462Q804 456 801 449T796 436Q793 425 797 414T796 395Q792 390 786 387T776 378Q771 371 770 360T765 340Q759 320 754 301T744 261Q741 244 739 228T725 204Q722 188 722 173T721 142Q717 113 705 86T686
33Q682 18 680 7T667 -14Q651 -16 636 -20T607 -24Z" />
<glyph unicode="n" glyph-name="n" horiz-adv-x="647" d="M48 18Q27 11 11 23T-9 53Q-11 61 -9 77T-3 104Q1 115 14 130T34 164Q41 182 45 198T59 225Q66 232 74 237T83 252Q83 260 79 266T75 282Q75 291 80 305T91 330Q102 354 108 379Q110 386 111 395T115 410Q118
414 121 423T130 441T141 457T154 468Q162 471 171 472T189 478Q198 481 200 485T210 493Q216 495 222 495T236 497Q244 500 253 506T274 505Q279 502 284 487T294 459Q296 452 299 442T306 422T312 403T317 390Q322 380 324 369T330 349Q335 339 340 330T350 310Q355
299 359 289T369 268Q373 260 381 254T391 239Q394 231 391 222T390 204Q393 193 403 186T421 171Q426 165 427 159T436 151Q438 170 440 184T446 211T452 239T457 272Q467 285 475 296T482 327Q481 333 479 339T477 352Q478 362 481 370T489 390Q492 398 494 406T499
425Q502 433 504 438T510 447T515 457T519 474Q522 491 522 503T527 527Q535 545 552 557T586 578Q614 577 632 564T655 531Q662 513 654 502T638 476Q633 467 631 459T627 444T624 428T618 410Q615 400 609 394T601 380Q604 366 604 357T601 341T596 326T591 309Q589
302 589 295T587 282Q584 270 579 260T569 241Q562 226 554 213T543 178Q542 164 542 154T541 134T538 115T531 91Q529 83 526 76T520 60Q514 34 503 21T470 -7Q458 -10 446 -13T423 -16T401 -13T384 2Q379 10 374 25T361 56Q358 63 355 69T349 83Q344 94 343 102T336
124Q329 146 314 157T288 181Q287 191 285 199T276 212Q274 214 271 214T266 218Q263 222 262 227T258 236Q256 238 252 245T245 259T237 271T231 276Q226 276 222 268T213 250T204 231T197 217Q192 210 190 197T183 175Q176 163 171 151T173 125Q173 118 170 114T168
99Q162 88 157 74T145 43Q142 33 140 23T135 3T127 -14T112 -22Q100 -24 92 -19T77 -8T63 6T48 18Z" />
<glyph unicode="o" glyph-name="o" horiz-adv-x="607" d="M558 436Q568 416 573 399T581 353Q583 333 585 318T586 279Q585 263 581 246T571 213Q562 186 554 166T535 123Q528 110 521 102T506 85Q504 82 503 78T498 71Q485 56 463 40T421 17Q414 15 407 15T391
12Q381 8 374 1T356 -10Q350 -12 342 -13T325 -17Q305 -22 276 -27T221 -26Q217 -25 213 -22T204 -17Q199 -15 194 -14T185 -11Q172 -6 160 3T135 17Q121 25 107 31T88 55Q71 60 64 78T47 110Q44 115 39 118T31 127Q24 138 20 162T15 204Q14 222 17 238T25 271T35
302T45 331Q49 348 60 358T81 380Q85 384 87 389T93 399Q101 409 111 416T130 432Q140 440 151 447T169 463Q177 474 181 485T196 504Q207 513 220 517T252 526Q269 530 285 537T321 547Q339 549 360 549T401 548T440 541T473 527Q480 523 487 515T502 500Q518
484 529 468T558 436ZM340 481Q336 481 329 478T314 472T300 464T291 458Q279 447 270 431T248 401Q243 396 238 394T229 387Q212 368 205 343T189 295Q180 271 172 241T167 184Q168 178 171 169T178 151Q182 142 185 134T193 118Q199 106 208 93T230 70T258 56T292
56Q303 60 319 68T348 85Q367 97 375 109T391 142Q393 147 396 151T403 161Q409 172 413 185T423 210Q435 237 438 262T443 322Q444 341 441 350T435 375Q434 386 434 395T430 412Q425 421 412 424T390 435Q382 448 373 460T351 480Q346 479 344 480T340 481Z"
/>
<glyph unicode="p" glyph-name="p" horiz-adv-x="564" d="M199 153Q185 124 177 88T160 23Q156 9 145 3T119 -6T91 -10T68 -14Q59 -17 49 -23T28 -35T10 -44T-3 -43Q-7 -39 -4 -25T6 9T22 48T41 86Q47 98 49 118T52 153Q52 158 50 162T49 172Q50 177 55 185T65
201Q72 219 73 242T81 282Q83 287 86 291T92 301Q94 307 93 316T92 333Q92 346 97 362T108 394T115 424T114 450Q111 465 111 470T109 477Q104 482 105 483T101 489Q96 494 92 497T80 506Q74 510 68 513T60 526Q69 534 75 537T88 540T101 540T118 537Q135 535 148
536T182 537Q195 537 211 535T241 530Q254 528 267 529T292 529Q301 527 308 525T325 522Q353 522 378 528T427 530Q435 528 444 525T463 519Q472 516 476 515T489 510Q497 507 505 501T523 486Q537 476 551 465T571 438Q573 433 576 422T580 406Q581 393 573 380Q581
368 579 354T570 325T551 297T531 275Q516 261 499 251T461 230Q450 225 440 218T421 206Q416 204 416 205T409 205Q389 201 370 191T330 176Q325 174 319 174T308 174Q293 172 279 167T249 159Q235 157 224 157T199 153ZM248 372Q244 358 242 344T236 316Q234
307 230 295T222 272T220 251T230 239Q235 238 239 240T250 243Q254 243 258 242T268 241Q305 244 336 254T376 295Q380 297 383 298T392 302Q407 318 417 346T430 397Q430 405 424 414T415 429Q413 433 406 437T390 446T372 454T357 458Q346 460 339 458T322 454Q308
453 296 454T275 446Q272 428 263 410T248 372Z" />
<glyph unicode="q" glyph-name="q" horiz-adv-x="632" d="M446 26Q451 8 466 -3T492 -30Q496 -35 498 -41T505 -52Q513 -57 522 -59T543 -67Q554 -72 565 -81T591 -92Q594 -93 597 -92T605 -92Q612 -93 619 -95T635 -97Q642 -97 651 -97T667 -98T681 -101T688
-109Q689 -114 684 -120T672 -131T657 -141T645 -147Q633 -152 615 -152T583 -148Q577 -146 572 -144T562 -142Q556 -141 550 -143T538 -146Q528 -147 517 -144T497 -137Q402 -98 336 -22Q309 -21 285 -25T234 -24Q211 -19 189 -13T150 4Q127 16 108 34T71 66Q56
85 45 107T30 160Q13 176 15 197T22 245Q23 253 22 262T23 279Q26 297 33 316T47 346Q51 353 56 359T66 371T73 386T75 406Q88 444 120 467T188 510Q199 516 212 521T239 530Q253 535 267 539T294 547Q299 548 303 548T310 549Q346 551 380 546T449 530Q458 520
472 514T498 498Q503 493 507 487T517 474Q522 469 528 465T540 455Q545 448 547 441T555 425Q560 417 565 411T573 399Q577 390 577 377T580 353Q582 342 586 331T594 307Q597 296 600 282T604 257Q603 246 599 234T592 211Q589 199 588 187T582 164Q573 143 559
125T528 91T494 60T460 31Q458 27 453 28T446 26ZM272 433Q259 422 249 413T227 392Q224 389 221 385T215 377Q213 374 212 369T209 358Q207 353 204 350T197 342Q194 337 191 330T184 313Q179 301 176 291T170 266Q168 256 167 243T168 219Q169 215 171 213T174
207Q177 194 174 185T171 162Q173 145 181 133T197 110Q200 104 203 99T212 91Q223 94 234 99T258 113Q269 118 281 125T305 134Q309 134 314 133T325 131Q336 129 346 129T364 122Q366 114 373 111T385 101Q397 109 403 119T418 146Q424 160 433 179T444 214Q446
231 445 249T445 285Q446 302 447 319T451 352Q452 357 453 362T454 373Q454 386 447 400Q445 410 442 420T434 436Q426 451 415 455T386 465Q380 467 375 469T366 472Q356 473 348 469T331 465Q327 465 324 466T315 466Q307 455 296 449T272 433Z" />
<glyph unicode="r" glyph-name="r" horiz-adv-x="606" d="M424 522Q432 520 440 520T456 518Q459 518 462 516T468 513Q471 512 474 513T480 513Q503 507 517 495T545 464Q551 454 560 441T575 411T582 376T575 340Q573 335 569 328T561 312Q555 301 546 289T527
272Q519 267 514 263T500 255Q486 250 473 241T445 225Q440 223 435 223T424 220Q417 216 413 209T398 199Q423 193 444 172T476 127Q481 113 490 102T498 77Q505 71 509 62T517 41T522 19T529 -2Q535 -15 542 -23T557 -39T573 -55T587 -77Q591 -76 593 -75T601
-74Q616 -85 634 -91T680 -101Q703 -105 723 -104T766 -98Q773 -97 783 -93T804 -85T823 -82T831 -93Q831 -100 822 -110T806 -125Q789 -137 767 -144T721 -155T672 -162T625 -165Q611 -165 600 -161T579 -154Q559 -151 544 -147T514 -135Q502 -128 493 -116T468
-100Q442 -77 416 -54T375 5Q370 14 364 22T355 41Q352 48 352 56T349 74Q347 85 343 97T335 121Q334 124 332 127T329 133Q327 139 325 147T318 161Q313 165 302 170T282 177Q271 179 261 176T241 172Q228 170 216 171T196 170Q182 165 173 144T162 100Q158 77
150 56T137 14Q133 1 124 -7T99 -14Q91 -13 87 -13T75 -8Q70 -10 58 -17T40 -28Q7 -38 3 -23T6 25Q11 46 21 66T36 100Q38 109 38 116T36 131T35 143T39 154Q40 165 45 171T52 189Q54 199 57 210T61 231Q62 243 62 253T69 278Q74 291 79 304T87 331Q89 341 89 351T94
372Q96 380 102 385T111 398Q112 404 110 409T110 419Q116 439 114 450T108 469T100 484T99 503Q104 504 108 511T119 521Q123 522 134 522T158 523T183 524T202 523Q210 522 222 523T247 525T271 526T291 522H424ZM272 267Q280 267 287 271T302 273Q312 271 322
270T344 267Q349 266 354 268T367 269Q383 281 395 287T419 311Q424 320 430 328T438 343Q445 366 436 382T419 412Q409 427 400 433T370 438Q353 437 335 438T301 439T271 433T252 415Q247 400 240 382T227 346T217 308T213 271Q228 273 243 270T272 267Z" />
<glyph unicode="s" glyph-name="s" horiz-adv-x="543" d="M358 418Q367 414 370 408T374 394T378 380T388 369Q390 367 395 364T406 358T417 352T426 350Q432 351 437 359T445 377T450 399T449 417Q447 420 438 425T424 433Q410 438 398 445T372 457Q366 459 360
463T347 468Q343 469 338 467T328 464Q322 463 314 463T296 463T278 460T261 453Q248 442 243 429T228 398Q226 394 221 389T216 377Q216 373 219 370T225 361Q228 355 229 349T232 337Q235 334 238 332T243 327Q246 324 247 320T252 314Q257 311 269 304T293 294Q312
290 327 282T358 267Q369 262 375 256T387 243T397 230T413 221Q418 219 422 219T431 217Q436 215 441 211T452 201Q456 197 459 193T465 184Q468 178 469 169T470 153Q471 129 469 115T462 89T450 65T433 34Q420 28 406 21T382 5Q377 1 368 -5T352 -13Q338 -18
318 -19T281 -26Q271 -29 258 -27T233 -26Q220 -28 211 -30T190 -31Q176 -29 159 -21T129 -4Q124 -2 121 1T113 8Q106 12 99 13T86 20Q80 25 75 29T65 39Q53 47 39 55T18 73Q14 78 14 86T9 103Q7 110 2 115T-4 125Q-7 139 -1 156T10 185Q29 188 41 182T63 164T79
140T93 116Q101 103 118 96T151 82Q157 79 162 77T173 72Q186 67 195 62T216 55Q226 55 235 56T257 60Q269 64 281 64T304 68Q317 73 319 80T328 99Q324 118 319 126T301 145Q296 149 290 151T278 157Q257 170 232 183T177 201Q158 207 138 217T108 246Q105 250
105 254T102 263Q94 283 80 301T60 342Q58 349 59 356T61 371T64 386T63 403Q67 407 68 411T71 419Q75 425 76 431T85 444Q92 450 96 456T106 467Q109 469 113 469T120 472Q125 475 129 479T138 488Q158 503 183 513T234 530Q238 535 247 538T266 543T287 546T304
548Q335 544 353 538T388 526T424 513T473 503Q485 494 498 482T522 454T536 423T534 389Q529 379 526 367T517 344Q512 336 507 325T494 307Q480 293 458 287T415 283Q409 293 397 300T372 314T349 331T335 355Q332 372 336 391T358 418Z" />
<glyph unicode="t" glyph-name="t" horiz-adv-x="460" d="M557 523Q555 507 546 503T526 494Q519 489 516 481T508 469Q503 464 494 462T478 457Q461 452 443 452T410 450Q402 448 394 441T377 430Q368 427 363 425T355 420T348 413T340 400Q335 391 335 374T332
346Q329 337 326 325T318 299Q316 291 316 282T314 264Q311 254 305 249T295 231Q293 225 293 219T293 206Q289 182 284 154T273 99Q268 76 263 55T249 16Q241 17 233 12T217 4Q210 2 204 2T191 -3Q184 -10 173 -21T154 -35Q147 -37 142 -35T131 -32Q123 -32 116
-32T98 -32Q94 -22 95 -11T99 12T107 33T114 54Q116 61 116 69T120 85Q123 94 129 101T139 119Q143 130 149 145T156 170Q158 182 156 193T157 217Q159 223 162 227T168 240Q171 251 172 263T175 288Q177 299 179 309T184 331Q187 344 190 355T196 378T199 399T193
422Q187 433 177 438T155 444T129 444T102 443Q97 446 93 454T82 465Q70 469 56 469T34 480Q28 495 33 509T47 529Q84 535 124 529T204 523Q220 524 236 529T269 529Q274 527 286 523T304 516Q309 515 314 516T324 516Q332 516 339 514T355 511Q365 511 369 511T377
513T385 515T398 518Q406 519 414 517T430 515Q452 514 472 520T513 529Q524 530 535 530T557 523Z" />
<glyph unicode="u" glyph-name="u" horiz-adv-x="554" d="M493 562Q501 560 501 551T505 536Q515 542 530 548T564 552Q569 540 569 530T567 509T562 489T557 466Q555 446 552 435T545 409Q540 393 538 378T532 348T524 323T509 302Q510 261 500 219T475 144Q471
135 469 125T463 108Q460 102 456 97T446 85Q432 59 417 37T373 3Q365 0 359 -2T345 -8Q336 -13 322 -22T294 -32Q287 -32 278 -29T261 -26Q252 -26 242 -27T222 -29T204 -27T191 -17Q179 -15 169 -22T148 -29Q136 -28 128 -20T108 -7Q101 -11 95 -11T82 -12Q76
-8 70 -7T58 -1Q47 8 42 22T32 53T24 85T10 112Q13 133 19 151T32 186Q35 198 35 212T36 241T39 270T46 297Q48 302 55 307T65 318Q68 326 70 336T74 355Q76 368 78 387T81 420Q83 446 87 469T110 503Q125 507 137 514T171 517Q176 516 183 514T197 509Q211 505
219 503T230 483Q231 478 229 467T224 447Q222 442 218 438T212 429Q210 426 210 422T209 415Q207 410 201 399T193 383Q187 372 183 360T174 334Q168 317 160 296T147 254Q143 233 143 215T140 177Q138 169 135 162T134 144Q123 133 127 122T139 99Q145 93 152
85T168 70T189 60T216 58Q226 60 237 66T257 77Q277 85 292 97T314 130Q318 140 318 149T319 168T318 188T324 211Q329 222 339 231T352 252Q354 258 353 263T351 275Q351 289 355 303T364 331T374 360T380 388Q381 401 382 410T384 426T388 441T395 459Q400 468
404 478T410 505Q412 510 412 517T415 531Q419 540 428 545T448 554T471 558T493 562Z" />
<glyph unicode="v" glyph-name="v" horiz-adv-x="550" d="M261 141Q276 150 284 165T303 195Q314 208 325 220T346 246Q347 252 347 253T348 254T349 256T352 262Q365 270 377 280T384 315Q391 329 397 338T409 356T422 374T437 397Q451 399 454 411T462 437Q467
448 473 458T484 477Q491 487 497 496T510 512Q513 523 521 536T540 559T566 572T597 569Q606 565 613 553T622 530Q622 512 610 495T593 466Q594 457 590 450T580 437T568 426T559 415Q547 405 541 399T520 382Q511 374 506 365T498 346T492 323T483 298Q474 278
459 263T433 228Q420 208 417 190T400 151Q396 144 390 138T379 124Q360 99 341 74T307 19Q301 18 297 12T287 1Q284 -1 279 -2T270 -6Q264 -11 259 -16T243 -25Q235 -27 225 -28T208 -29Q192 -26 179 -9T161 26Q145 40 138 58T127 102Q126 107 126 111T127 120Q126
130 121 140T110 162T99 184T94 207Q94 217 95 227T94 248Q92 258 87 265T80 287Q79 295 78 308T75 336T72 364T70 385Q68 405 60 429T48 471Q46 481 46 497T47 516Q49 524 59 531T79 539Q88 539 94 533T110 524Q118 522 123 521T139 520Q149 521 159 518T178 513Q195
508 203 489T208 447Q206 438 206 427T203 407Q201 400 204 395T207 383Q207 377 209 365T214 338T220 310T225 291Q229 278 236 267T243 244Q243 238 241 233T239 222Q237 197 243 178T261 141Z" />
<glyph unicode="w" glyph-name="w" horiz-adv-x="778" d="M568 -28Q545 -26 525 -27T489 -19Q487 -17 486 -14T481 -5Q473 5 469 13T462 37Q460 41 458 44T455 52Q453 58 454 67T453 84Q450 97 445 107T445 131Q437 143 431 164T422 209Q421 226 422 252T419 295Q409
291 402 281T388 260T374 239T358 223Q350 212 344 191T332 158Q322 135 303 122T266 92Q257 83 250 71T237 46T223 21T206 0Q200 -5 194 -7T183 -16Q162 -23 145 -23T114 -13Q108 -9 103 2T94 26T89 55T87 81Q88 89 91 96T95 111Q95 117 92 122T87 134Q87 142
91 147T95 158Q95 165 90 171T83 185Q83 197 81 213T76 245T73 278T73 305Q75 312 78 318T81 330Q82 344 75 358T67 389Q67 406 71 424T76 460Q77 475 76 489T83 518Q90 529 101 534T126 543Q137 537 146 534T163 522Q170 514 175 504T188 488Q198 482 204 482T217
473Q224 463 226 449T228 420T226 389T225 359Q226 351 226 345T225 325Q224 314 229 302T232 282Q231 276 226 273T220 261Q219 253 224 247T231 232Q235 215 232 202T232 174Q246 182 254 195T271 219Q281 230 282 241T291 264Q298 273 309 289T329 313Q333 318
337 332T346 351Q355 364 366 376T388 400Q402 392 412 399T416 419Q421 427 429 438T447 457Q462 467 479 465T513 452Q521 438 521 424T521 394Q521 385 524 376T527 356Q527 346 527 333T526 307T525 280T526 255Q532 246 534 233T538 206T540 179T547 155Q559
155 560 160T567 174Q572 185 574 190T578 199T582 208T589 224Q594 235 599 245T609 267Q613 278 613 284T624 298Q630 303 637 307T647 319Q649 324 649 328T650 336Q654 353 661 370T672 402Q675 417 677 431T692 456Q698 475 703 485T714 503T726 520T739 547Q759
543 773 533T796 500Q799 489 803 480T802 458Q799 450 796 447T790 442T783 436T776 419Q775 414 776 409T776 398Q774 387 770 375T763 359Q758 352 750 349T735 339Q732 334 728 328T721 316Q710 293 705 269T690 218Q684 203 677 197T664 186T654 173T650 143Q640
121 633 98T616 50Q606 27 596 9T568 -28Z" />
<glyph unicode="x" glyph-name="x" horiz-adv-x="614" d="M437 296Q432 281 423 271T404 253T381 237T358 222Q372 199 380 186T396 163T413 140T440 106Q439 103 439 100T437 93Q457 88 471 73T503 43Q507 40 512 37T523 30T531 22T535 13Q534 4 529 -3T517 -13T503
-14T490 -1Q485 -10 479 -17T466 -30Q461 -29 454 -28T442 -24Q434 -25 430 -29T421 -37T411 -45T398 -47Q391 -46 387 -38T377 -24Q369 -13 355 0T331 27Q326 35 323 42T310 54Q292 62 289 67T284 77T279 89T269 103Q264 110 263 112T261 114T261 117T256 127Q252
122 248 124T240 128Q227 119 213 105T184 77T152 52T117 37Q110 22 103 16T79 -2Q68 -10 58 -17T34 -27Q17 -28 -3 -22T-31 -5Q-33 7 -28 15T-15 31T2 44T17 56Q28 67 38 78T59 98Q68 105 79 113T102 132T124 152T140 171Q145 173 148 175T156 179Q161 193 170
202T189 220Q184 237 179 246T168 271Q166 273 162 272T156 273Q148 286 145 297T134 322Q131 327 127 331T121 341Q119 348 120 355T117 368Q115 373 111 373T100 377Q94 382 91 391T82 408Q78 412 73 416T64 426T57 437T55 454Q56 459 58 463T61 472Q63 481 74
493T100 516T130 534T157 542Q162 542 172 534T185 520Q188 516 190 510T196 498Q204 481 209 465T223 431Q237 401 250 377T281 325Q284 319 293 308T307 297Q313 297 326 306T345 321Q356 329 363 338T375 358T387 377T404 394Q415 392 420 395T432 402Q434 421
446 428T472 446Q478 450 480 452T484 455T488 458T497 464Q504 468 506 470T510 474T515 478T525 486Q537 495 547 501T567 516Q577 524 582 529T592 539T602 549T618 563Q629 562 635 558T648 548Q653 533 649 516T642 485Q640 478 640 472T640 461T638 450T631
439Q629 437 626 435T618 431Q606 420 600 415T590 405T579 397T558 385Q552 377 547 372T536 363T524 355T511 343Q495 328 479 314T437 296Z" />
<glyph unicode="y" glyph-name="y" horiz-adv-x="581" d="M219 516Q220 511 220 497T218 465T217 430T222 404Q224 399 228 396T234 389Q240 378 241 365T250 342Q248 336 244 333T238 325Q246 316 250 305T249 274Q258 272 261 266T266 252T269 237T275 224Q282
224 283 227T289 230Q299 243 309 260T331 294T354 328T378 355Q381 358 386 360T393 367Q400 377 402 394T409 423Q414 436 423 447T440 471Q446 482 451 490T462 505T478 514T501 519Q508 519 514 517T527 514Q546 514 567 517T609 525T651 529T692 524Q694 510
683 504T662 493Q651 486 639 478T618 460Q613 454 609 447T600 434Q585 417 569 397T541 350Q527 330 509 312T473 271Q464 259 457 245T440 216Q426 194 415 175T379 147Q378 130 367 118T349 94Q334 67 319 42T283 -5Q269 -10 260 -17T243 -33T230 -52T214 -73Q208
-79 202 -81T189 -85T176 -89T164 -98Q156 -109 148 -120T130 -141Q119 -152 106 -158T85 -178Q65 -185 46 -191T1 -205Q-10 -208 -20 -209T-43 -214Q-57 -217 -70 -223T-97 -230Q-129 -232 -158 -226T-211 -211Q-212 -203 -217 -199T-219 -184Q-214 -177 -203
-177T-182 -179Q-169 -177 -161 -174T-146 -168T-132 -161T-114 -156Q-95 -152 -79 -146T-40 -143Q-37 -141 -36 -134T-31 -125Q-17 -108 1 -99Q8 -87 17 -83T35 -76T55 -70T76 -58Q95 -41 112 -28T143 9Q149 17 154 27T167 48Q171 54 175 58T185 70Q187 73 185
76T179 83T174 89T172 97Q174 102 172 112T168 130Q166 145 162 164T153 194Q148 202 145 207T140 223Q139 237 140 248T140 270Q135 294 130 311Q127 322 122 329T112 348Q112 360 107 374T95 404T83 433T76 460Q70 469 60 476T41 488T26 498T19 508Q19 514 21
516T27 520T33 524T40 532Q47 535 56 535T75 534T94 531T113 530Q130 532 147 530T182 527Q183 522 189 522T201 521T212 521T219 516Z" />
<glyph unicode="z" glyph-name="z" horiz-adv-x="575" d="M205 81Q215 81 229 77T255 72Q267 70 274 71T287 73T300 76T318 78Q326 79 335 78T350 79Q362 83 373 94T393 115Q414 136 430 154T473 190Q479 196 485 205T499 222T515 234T535 232Q531 221 531 211T522
190Q514 180 505 171T488 148Q485 140 484 136T479 123Q476 116 474 111T468 98Q457 72 444 48T417 0Q406 -5 392 -4T367 -3Q344 -3 321 -4T273 -8Q266 -9 264 -10T259 -12T254 -13T244 -14Q240 -13 236 -12T226 -10Q188 -7 157 -5T90 -2Q71 -2 57 -7T22 -13Q12
-14 2 -11T-18 -10Q-24 -6 -31 -3T-41 6Q-37 21 -27 33T-5 55T19 76T42 97Q43 101 43 112Q50 117 52 123T61 135Q66 140 71 142T81 150Q84 154 85 158T90 166Q95 173 103 178T119 191Q129 202 138 215T157 239Q162 244 168 248T180 257Q196 270 208 285T233 308Q239
311 245 313T257 319T264 328T264 344Q273 350 278 359T289 376Q294 383 300 387T312 397Q324 410 332 422T349 450Q340 453 331 458Q300 456 279 457T242 457T212 449T180 426Q173 419 168 414T155 400Q138 384 127 373T100 343Q92 335 82 327T58 324Q55 337 63
346T76 367Q82 377 83 383T89 400Q93 408 98 411T105 426Q106 431 105 435T106 445Q108 455 111 462T119 482Q124 502 131 519T160 539Q177 542 194 536T224 528Q232 527 241 528T258 529Q264 528 264 527T268 524Q279 523 288 525T307 529Q322 526 339 527T369
527Q374 527 379 525T390 521Q395 521 399 522T411 524Q437 527 466 528T521 534Q532 535 541 537T557 541Q563 542 572 543T589 544T603 540T611 531Q612 520 600 505T579 480Q567 469 556 460T534 441Q526 435 520 427T508 414Q502 409 495 406T481 398Q470 390
462 380T443 358Q424 338 407 320T374 276Q367 265 361 251T347 228Q342 224 336 223T324 218Q307 209 292 190T264 154Q251 134 234 117T205 81Z" />
<glyph unicode="{" glyph-name="braceleft" horiz-adv-x="322" d="M169 384Q178 373 187 365T205 342Q213 330 214 305T202 253Q200 249 197 246T190 238Q188 233 188 228T186 218Q181 204 171 189T153 157Q145 143 140 129T129 102Q122 85 124 67T128 36Q130
24 134 12T146 -9T166 -23T199 -25Q201 -30 201 -37T197 -52Q189 -57 185 -55T174 -54Q141 -57 112 -51T61 -31T27 1T13 43Q13 47 14 50T15 58Q15 63 13 67T10 77Q10 81 10 89T12 107T16 124T22 138Q26 148 34 155T46 172Q48 176 47 180T47 189Q51 205 63 219T82
250Q87 262 93 278T99 304Q99 310 97 312T90 319Q84 327 77 338T59 353Q53 355 46 354T34 358Q29 380 39 389T73 409Q90 417 109 427T134 462Q136 468 135 475T134 489Q133 497 134 504T136 520Q138 541 139 563T146 609T163 654T196 698Q206 709 220 718T250 736Q273
750 294 762T344 779Q349 781 354 780T367 781Q374 782 385 784T407 789T430 793T450 794Q457 783 454 776T441 765T420 757T397 750Q379 743 364 736T338 724Q291 699 273 631Q270 626 262 624T250 613Q248 608 252 602T257 590Q259 577 255 559T248 521Q246 501
245 483T237 451Q226 427 209 413T169 384Z" />
<glyph unicode="|" glyph-name="bar" horiz-adv-x="256" d="M261 726Q249 686 242 644T223 561Q221 551 218 540T211 520Q208 512 201 506T189 492Q184 478 184 461T182 427Q178 411 176 393T166 359Q163 353 159 347T152 336Q148 325 150 314T150 290Q145 270
139 245T125 196Q119 168 114 141T101 89T84 42T56 2Q36 -3 20 -4T-5 9Q-5 32 2 60T19 121Q22 131 26 141T35 159Q40 167 47 175T57 197Q58 203 56 208T54 218Q53 230 56 242T62 268Q63 273 62 279T62 292Q66 306 73 323T84 357Q89 380 92 398T101 437Q103 446
105 455T110 469Q113 476 122 483T133 499Q134 504 131 509T127 522Q126 534 131 547T139 573Q140 579 138 584T137 594Q138 598 140 602T143 612Q145 622 144 631T145 650Q147 660 150 669T156 687Q158 697 163 709T171 727Q178 738 191 744T219 750T245 745T261
726Z" />
<glyph unicode="}" glyph-name="braceright" horiz-adv-x="322" d="M153 354Q142 366 134 374T117 396Q109 409 107 434T119 485Q121 489 125 493T131 501Q133 506 133 511T135 521Q140 535 150 550T169 582Q176 596 182 610T193 636Q200 653 198 671T194 702Q191
714 187 726T175 747T155 762T123 764Q121 768 121 775T125 791Q133 796 137 795T147 794Q181 797 210 791T260 771T294 738T307 695Q308 692 307 688T306 681Q306 676 308 672T311 662Q311 657 310 649T308 632T304 615T300 601Q296 592 288 585T275 567Q273 562
274 558T274 550Q269 534 258 520T240 488Q234 477 228 461T222 434Q222 429 224 427T231 420Q238 412 244 401T262 386Q268 384 275 384T288 380Q292 358 282 350T249 330Q231 321 213 311T186 278Q184 271 185 264T187 249Q188 241 187 234T185 219Q183 198 182
176T175 130T158 84T126 40Q116 30 102 21T72 2Q49 -11 27 -23T-24 -41Q-29 -42 -34 -42T-45 -42Q-53 -44 -64 -46T-86 -50T-109 -53T-128 -54Q-135 -44 -132 -37T-119 -26T-98 -18T-76 -11Q-57 -5 -43 3T-17 14Q6 28 23 51T48 109Q50 114 59 116T72 126Q74 131
70 136T65 148Q62 162 66 179T74 218Q76 238 77 255T85 288Q95 311 113 325T153 354Z" />
<glyph unicode="~" glyph-name="asciitilde" horiz-adv-x="527" d="M512 409Q502 385 487 361T450 325Q444 320 438 320T425 316Q409 309 395 300T365 285T332 278T294 285Q284 290 274 297T253 310Q245 315 236 321T216 333T193 341T167 340Q159 338 153 330T138
316Q126 310 111 307T82 295Q62 284 44 278T0 267Q-4 272 -8 274T-15 283Q-14 294 -10 300T-4 318Q1 324 7 328T18 340Q38 345 54 358T85 383Q96 391 107 395T132 404Q149 412 166 420T204 426Q215 424 230 418T259 404Q266 401 269 396T280 389Q287 386 295 387T312
385Q321 382 329 378T347 371T368 366T393 368Q406 371 419 378T444 395T468 413T490 428Q496 432 502 424T512 409Z" />
<glyph unicode="&#xa0;" glyph-name="uni00A0" horiz-adv-x="317" />
<glyph unicode="&#xa1;" glyph-name="exclamdown" horiz-adv-x="307" d="M24 -7Q18 1 17 11T14 32Q10 46 2 57T-4 88Q-2 105 9 122T24 159Q26 173 24 187T24 215Q26 226 33 238T47 263Q61 289 68 313T85 366Q89 380 93 395T98 422Q98 428 96 433T95 444Q96 451
101 458T114 471Q120 478 124 485T133 498Q146 514 152 529T166 555Q171 560 180 566T196 573Q199 573 206 570T220 563T234 555T241 547Q246 533 239 517T228 485Q226 478 227 470T226 457Q224 444 219 435T214 413Q214 400 218 391T228 369Q225 338 214 311T197
255Q197 246 196 242Q195 236 192 231T186 220Q185 215 187 210T188 199Q187 188 182 179T173 159Q170 148 168 136T161 111Q157 99 153 88T146 65Q144 50 143 39T134 17Q123 11 115 2T96 -16Q77 -19 59 -15T24 -7ZM241 606Q224 605 209 610T180 624T159 646T150
675Q150 681 152 691T159 711T167 730T175 743Q178 748 188 754T204 762Q218 765 235 765T269 761T296 748T310 726Q312 721 312 714T311 701Q310 699 308 697T304 690Q302 684 303 677T303 662Q301 656 292 645T278 628Q270 620 260 616T241 606Z" />
<glyph unicode="&#xa2;" glyph-name="cent" horiz-adv-x="460" d="M328 624Q335 619 344 617T361 610Q369 605 379 598T394 584Q399 576 399 568T403 550Q406 544 409 539T413 528Q414 519 412 507T404 483T391 462T377 451Q360 444 348 449T334 469Q334 473 335
482T338 496Q340 501 343 505T345 518Q344 522 339 529T326 543T310 555T294 561Q282 561 266 551T239 530Q219 513 210 485T194 425Q192 419 189 413T184 401Q184 399 185 401T186 407T187 413T188 415Q186 404 182 396T176 380Q175 376 176 373T176 366Q175 359
173 356T171 347Q172 342 176 336T181 323Q182 316 180 308T178 292Q178 283 177 280T176 275T176 268T177 254Q179 239 186 231T201 211Q209 199 220 188T256 181Q279 185 294 196T325 214Q336 226 345 241T371 264Q395 261 400 250T401 224T386 197T367 177Q349
144 310 125T213 105Q206 98 200 80T186 46T166 20T137 20Q130 29 128 44T125 76T126 108T127 133Q119 146 105 153T81 175Q76 184 74 195T66 218Q62 223 56 227T47 238Q40 251 38 257T36 279Q37 290 40 300T46 322Q46 327 42 330T36 338Q34 344 37 350T42 362Q43
372 43 378T43 389T45 400T49 416Q51 423 55 428T62 440Q68 457 72 472T83 502Q93 510 98 520T112 542Q122 555 130 566T150 590Q155 595 156 599T162 607Q179 621 205 624T260 633Q263 640 266 651T272 673T279 695T288 712Q293 716 301 716T318 714T334 707T344
696Q347 689 345 679T340 659T332 640T328 624Z" />
<glyph unicode="&#xa3;" glyph-name="sterling" horiz-adv-x="506" d="M341 567Q346 562 349 558T351 547Q349 539 344 533T338 522Q338 518 343 516T351 512Q355 512 361 515T373 522T383 532T390 542Q396 561 392 581T371 606Q356 610 339 607T307 599Q287 591
267 574T238 537Q233 529 231 516T227 494Q226 473 232 455T245 417Q243 409 243 397T243 376Q255 374 269 372T297 368Q310 366 322 367T343 360Q344 354 347 347T353 332T356 315T352 297Q341 294 331 298T307 303Q286 305 264 304T222 299Q211 277 202 260T184
228T162 199T135 166Q155 171 176 174T220 185Q227 180 240 182T261 182Q268 180 274 177T288 169Q295 166 303 165T319 161Q324 159 327 156T335 150Q356 139 391 147Q400 149 405 149T415 149T426 149T442 152Q447 141 443 134T430 118Q420 108 414 102T396 87Q385
77 368 74T328 71Q319 71 314 73T302 78Q297 80 293 81T286 84Q278 88 273 94T260 102Q254 105 244 105T222 103T199 99T178 95Q158 90 141 82T103 66Q83 59 68 59T39 72Q43 77 43 83T48 94Q36 94 31 97T22 104T14 114T2 121Q1 128 -1 134T-4 147T-4 159T4 174Q9
179 16 183T30 195Q35 200 40 206T51 217Q63 228 75 242T96 270Q100 279 101 285T112 299Q101 302 89 303T63 301Q55 299 49 297T36 294Q25 294 19 300T7 312Q13 326 18 340T34 364Q62 366 84 367T129 370Q133 394 131 419T127 468T127 517T145 566Q153 574 162
582T169 604Q201 630 242 650T336 670Q347 670 353 668T369 664Q381 661 393 658T417 650T438 639T452 625Q459 611 460 592T458 552T446 513T424 483Q419 479 411 473T391 461T367 451T345 446Q329 446 320 450T297 459Q291 468 283 475T274 496Q274 517 287 534T315
563Q330 563 341 567Z" />
<glyph unicode="&#xa4;" glyph-name="currency" horiz-adv-x="495" d="M194 548Q211 556 235 562T284 570T334 570T375 558Q380 556 384 553T395 547Q406 550 413 557T428 569Q436 589 452 599T483 622Q495 624 501 620T513 609Q515 606 517 604T520 599Q520 593
516 588T506 576T494 565T485 555Q480 550 478 544T470 531Q464 524 452 517T437 502Q435 497 438 491T443 478Q445 466 445 445T444 410Q442 385 435 364T417 325T395 291T371 260Q377 246 387 232T404 204Q408 198 411 188T412 172Q410 167 404 161T391 151T375
146T361 150Q357 154 356 159T352 170Q350 174 346 176T340 183Q334 192 331 201T321 214Q300 199 272 190T214 180T157 184T111 205Q95 191 79 178T48 150Q43 145 40 140T29 133Q24 136 18 140T6 150T-3 162T-5 176Q-4 182 2 188T15 199T28 209T39 219Q42 223
44 227T49 234Q56 243 64 247T78 259Q73 274 65 290T59 328Q59 335 62 344T68 365Q70 380 71 393T78 424Q81 435 88 446T101 467Q109 479 115 489T129 506Q127 510 129 513T134 519Q133 526 129 529T121 538Q116 548 113 559T105 582Q103 587 98 592T95 606Q97
611 104 618T117 627Q128 632 138 633T156 625Q159 620 159 615T162 604Q164 596 168 590T176 575Q180 567 184 561T194 548ZM293 497Q285 499 275 497Q261 491 247 482T220 462Q206 437 192 409T172 352Q169 340 170 331T173 313Q177 300 181 292T195 276Q210
265 227 267T254 275Q259 279 264 284T274 295Q279 298 283 301T289 307Q293 312 297 318T304 330Q309 339 311 350T318 375Q322 383 325 388T331 401Q333 410 333 417T338 432Q340 441 337 447T336 462Q333 472 322 475Q321 477 322 480T322 486Q312 486 306 490T293
497Z" />
<glyph unicode="&#xa5;" glyph-name="yen" horiz-adv-x="504" d="M323 364Q334 362 347 363T374 364T401 365T424 358Q426 349 422 342T413 330Q402 324 388 324T358 323T330 321T306 311Q304 300 299 291T295 271Q305 266 316 265T339 265T363 267T389 269Q396
269 403 268T418 266Q417 254 412 240T395 223Q390 221 382 223T365 225Q358 225 354 225T345 231Q333 224 314 223T280 220Q274 207 271 192T272 164Q274 157 283 149T299 138Q308 134 319 134T337 127Q339 115 332 109T318 97Q300 97 281 94T240 91Q228 91 217
94T193 96Q181 94 169 89T145 79Q140 78 131 75T113 71T96 70T89 80Q89 83 94 89T102 101Q107 108 111 112T117 121Q125 130 133 138T147 159Q150 164 152 169T159 181Q165 190 167 196T167 216Q153 214 145 216T126 210Q116 213 104 212T81 209T61 208T49 220Q51
226 52 231T56 243Q66 253 80 255T111 258T143 258T173 262Q181 272 183 285T188 313Q174 316 152 317T113 314Q106 312 102 309T93 305Q81 305 75 317T73 345Q83 352 97 351T124 351Q131 352 140 352T160 351T178 351T191 352Q200 355 201 363T200 382T194 404T187
423Q185 429 181 434T174 446Q172 454 174 461T177 478Q169 482 164 488T152 500Q147 513 142 525T133 552Q131 557 129 563T124 574Q122 579 119 582T117 592Q112 599 102 602T81 607T61 613T46 625Q47 629 48 631T51 637Q66 641 82 641T114 638T148 634T183 630Q191
629 198 630T214 632Q227 632 240 632T267 633Q269 633 275 634T287 637T298 637T303 630Q303 621 292 617T272 608Q267 606 261 598T254 588Q252 582 253 573T256 557Q258 551 262 543T268 527Q270 520 269 515T270 505Q271 500 275 494T282 483Q287 472 289 463T301
449Q311 456 318 467T334 486Q338 486 342 486T349 487Q352 508 363 522T386 554Q394 567 402 578T406 604Q404 606 400 606T392 607T385 610T383 618Q384 624 392 625T410 626T430 624T444 622Q460 620 478 622T515 629T549 636T577 642H592Q599 637 593 631T584
620Q556 609 528 601T480 573Q474 567 470 560T460 545Q450 532 439 521T418 497Q408 480 399 470Q394 463 389 457T380 443Q377 437 377 432T371 422Q367 419 362 418T353 413Q341 403 337 389T323 364Z" />
<glyph unicode="&#xa6;" glyph-name="brokenbar" horiz-adv-x="258" d="M262 732Q263 702 253 663T232 590Q225 565 221 542T205 502Q204 493 203 481T198 457T190 435T177 419Q172 422 164 423T146 424T129 426T115 430Q110 436 111 445T110 463Q122 480 128
505T138 557T147 613T159 664Q161 669 164 674T168 684Q172 698 173 710T182 732Q187 738 198 743T216 749Q226 749 238 740T262 732ZM150 314Q152 288 144 261T130 207Q129 201 130 195T130 183Q127 166 118 148T103 112Q95 82 91 51T75 -10Q67 -12 68 -8T65 -3Q53
-3 48 -7T34 -11Q31 -11 24 -9T11 -3T0 5T-5 12Q-3 25 2 42T11 77Q15 96 19 113T29 138Q34 145 41 150T50 161Q52 166 49 171T45 182Q46 189 50 196T57 211Q64 238 68 267T83 319Q99 331 118 326T150 314Z" />
<glyph unicode="&#xa7;" glyph-name="section" horiz-adv-x="477" d="M334 663Q338 655 337 647T334 630T330 614T331 599Q343 596 350 599T361 610T368 629T372 651Q376 672 378 684T372 711Q346 718 325 717T288 709T260 690T239 664Q231 652 227 643T222 621Q222
610 225 600T232 583Q240 568 248 554T268 532Q286 519 308 509T349 484Q354 480 360 474T371 463Q376 458 383 453T393 442Q410 421 412 396T406 347T383 303T349 270Q333 265 319 259T294 242Q306 228 317 217T339 195T355 170T362 140Q364 121 356 102T334 65Q325
52 311 40T281 17Q264 6 249 -4T218 -20Q185 -33 149 -33T83 -17Q73 -11 62 0T43 22Q35 32 26 43T12 66Q10 71 10 77T8 90Q3 107 0 116T8 140Q19 156 34 169T68 195Q74 199 83 205T99 211Q110 211 117 205T135 196Q137 185 146 175T160 153Q163 145 166 135T169
119Q167 112 158 105T136 101Q128 102 125 108T118 122T111 135T98 145Q91 142 89 136T83 123Q80 117 77 111T73 97Q73 88 79 77T95 57T119 43T148 40Q156 41 164 47T181 59Q196 70 200 78T210 103Q212 111 216 127T218 156Q215 164 205 171T188 186Q185 191 183
196T176 207Q165 221 151 236T124 269Q112 286 99 303T79 336Q73 348 72 364T72 396T79 428T93 453Q115 467 136 481T190 501Q185 512 176 518T160 535Q154 544 152 554T144 574Q139 585 134 593T126 613Q123 631 128 647T144 677T167 702T191 723Q208 736 224
747T266 765Q288 770 314 772T369 771Q394 768 421 757T458 727Q462 692 462 658T444 600Q429 580 409 567T369 539Q352 540 336 542T306 553Q304 554 300 558T292 568T284 579T279 587Q275 600 279 620T290 649Q296 657 308 662T334 663ZM226 462Q208 454 199
433T191 387Q193 373 200 363T215 341Q223 324 232 310T253 284Q278 299 284 324T285 376T262 426T226 462Z" />
<glyph unicode="&#xa8;" glyph-name="dieresis" horiz-adv-x="831" d="M352 691Q363 704 375 715T407 728Q415 728 424 725T442 715T457 701T464 684Q466 667 461 652T445 625T420 609T392 609Q387 611 380 617T367 630T355 646T349 660Q348 668 350 674T352 691ZM579
628Q565 654 573 681T605 721Q619 728 636 726T663 716Q672 710 680 695T687 667Q687 662 685 656T679 643Q676 637 674 631T667 621Q662 616 647 610T617 605Q606 607 598 615T579 628Z" />
<glyph unicode="&#xa9;" glyph-name="copyright" horiz-adv-x="604" d="M358 739Q363 740 368 740T380 738Q393 738 407 738T432 733Q438 731 443 728T456 722Q469 718 480 716T503 708Q508 706 512 703T521 695Q544 679 558 659T586 612Q594 597 600 583T609
549Q610 535 609 520T605 487Q603 455 599 426T586 366Q578 339 561 321T527 282Q509 259 489 241T443 209Q420 195 400 186T354 168Q334 162 308 161T256 161T206 170T166 185Q156 191 146 200T126 219Q117 229 107 237T88 255Q82 263 76 275T63 298Q56 309 53
321Q48 332 44 343T37 368Q35 379 36 391T36 418Q35 440 37 460T47 501Q51 511 58 521T71 543Q76 554 80 565T90 588Q95 596 101 604T115 621Q132 647 153 661T203 691Q212 696 220 702T239 712Q246 715 256 718T278 725Q296 730 315 733T358 739ZM132 494Q130
486 130 476T127 455Q122 432 118 410T116 373Q117 365 122 355T132 337Q135 333 138 330T145 321Q149 316 152 312T158 302Q172 285 186 273T222 251Q235 246 246 241T269 234Q285 232 298 235T322 240Q327 241 332 241T342 241Q364 247 384 258T421 281Q435 291
451 302T478 325Q487 335 494 348T507 373Q515 387 522 406T535 446T541 487T539 523Q537 530 533 536T527 550Q525 557 524 564T519 580Q518 583 516 586T512 593Q510 597 510 601T507 608Q499 622 485 631T454 648Q444 652 436 657T420 665Q409 668 392 668T364
666Q351 664 339 664T316 662Q312 660 309 659T302 656Q288 654 280 652Q272 650 267 647T254 638Q248 635 242 633T231 626Q226 622 221 617T210 606Q176 578 152 541Q152 525 145 516T132 494ZM469 582Q469 577 465 575T458 570Q450 564 439 554T416 540Q406
538 396 540T377 544T358 547T339 545Q328 541 315 527T296 498Q291 486 286 475T279 450Q277 442 277 436T272 424Q273 419 274 418T276 412Q278 408 277 404T276 396Q278 387 283 379T297 367Q299 366 302 366T309 365Q314 363 318 360T328 357Q343 357 359 368T388
391Q396 398 409 404T429 410Q431 410 434 407T438 400Q438 392 430 384T416 368Q414 365 414 361T411 355Q409 353 406 351T400 347Q396 342 394 339T386 331Q379 326 365 316T342 302Q328 295 315 294T288 295T263 301T240 310Q229 325 220 342T206 379T200 424T207
476Q210 490 220 508T239 538Q242 543 244 547T249 556Q258 568 270 573T290 593Q297 596 307 601T328 609T351 615T371 614Q384 611 395 603T421 592Q434 588 446 588T469 582Z" />
<glyph unicode="&#xaa;" glyph-name="ordfeminine" horiz-adv-x="456" d="M344 636Q352 644 357 655T370 677Q400 676 424 669T471 654Q473 645 465 640T454 627Q452 623 452 619T451 610Q446 600 439 592T429 572Q427 567 427 562T426 551Q423 531 416 511T408
467Q407 445 402 423T394 378Q392 366 391 355T388 334Q386 327 385 318T387 300Q389 294 399 290T410 278Q412 270 406 266T396 257Q383 257 370 255T345 251T321 250T300 258Q290 266 290 281T287 315Q276 306 262 296T231 277T196 261T157 252Q132 249 113 256T79
275Q73 292 64 304T54 338Q60 342 61 348T61 360T55 373T47 382Q47 405 52 432T50 480Q69 516 84 555T127 624Q137 630 145 638T163 654Q172 654 179 657T194 665T209 672T228 677Q263 680 295 670T344 636ZM229 587Q215 574 200 556T179 517Q177 510 177 503T175
487Q173 482 170 478T165 466Q164 461 166 455T168 442Q167 434 165 426T161 408Q159 390 162 374T172 348T192 337T221 348Q235 358 250 370T273 396Q277 400 277 405T280 414Q283 420 288 424T295 436Q297 443 296 453T297 473Q301 491 311 515T318 562Q316 579
301 594T268 607Q261 606 249 599T229 587ZM355 181Q357 170 357 158T354 132Q348 127 343 118T327 105Q313 103 296 106T259 112Q238 114 219 114T179 112Q168 112 157 109T138 105Q121 107 106 114T73 124Q64 125 53 124T32 123T15 124T5 132Q4 135 7 141T15
155T25 167T33 175Q50 183 70 181T113 180Q132 182 150 180T189 179Q202 180 214 182T240 186Q271 190 300 188T355 181Z" />
<glyph unicode="&#xab;" glyph-name="guillemotleft" horiz-adv-x="395" d="M-36 218Q-33 235 -28 244T-14 260T3 271T22 286Q30 294 37 302T52 319Q66 332 73 336T84 342T93 350T109 370Q112 375 116 377T125 383Q135 389 143 399T159 419T177 438T200 452Q203
445 205 439T206 426Q205 419 204 413T200 400Q193 375 190 365T183 349T173 336T151 308Q138 299 131 293T115 281T99 270T83 256Q75 248 69 240T55 225Q50 221 46 221T43 217Q51 212 52 210T56 200Q57 195 65 188T77 178Q78 171 77 165T76 151Q84 151 88 147Q91
145 96 134T106 109T116 83T120 66Q115 49 111 31T94 -3Q86 -2 81 3T72 16T66 32T60 47Q58 52 53 55T44 62Q39 67 37 74T31 89Q28 91 23 99T13 118T4 138T-3 153Q-8 156 -14 164T-25 182T-34 202T-36 218ZM128 218Q131 235 136 244T150 260T167 271T185 286Q194
294 201 302T216 319Q230 332 237 336T248 342T257 350T272 370Q275 375 280 377T289 383Q298 389 306 399T323 419T341 438T364 452Q367 445 369 439T370 426Q369 419 368 413T364 400Q357 375 354 365T347 349T336 336T314 308Q302 299 295 293T279 281T263 270T247
256Q239 248 233 240T219 225Q214 221 210 221T207 217Q215 212 216 210T220 200Q221 195 229 188T241 178Q242 171 241 165T240 151Q248 151 252 147Q255 145 260 134T270 109T280 83T284 66Q279 49 274 31T258 -3Q250 -2 245 3T236 16T230 32T224 47Q222 52 217
55T208 62Q203 67 201 74T195 89Q192 91 187 99T177 118T167 138T161 153Q155 156 149 164T138 182T130 202T128 218Z" />
<glyph unicode="&#xac;" glyph-name="logicalnot" horiz-adv-x="603" d="M559 424Q561 420 565 419T572 414Q556 362 547 317T526 226Q515 225 507 225T492 224T476 224T456 223Q442 231 443 247T450 282T462 319T465 352Q433 353 393 353T312 351T230 349T159
346Q142 345 127 347T90 347Q82 347 72 345T51 340T31 338T18 343Q13 350 16 353T22 371Q23 376 20 379T18 388Q21 399 30 407T43 426Q87 428 124 432T203 429Q204 422 209 420T221 419T237 422T255 425Q283 427 314 424T381 419Q405 419 428 421T473 425T516 427T559
424Z" />
<glyph unicode="&#xad;" glyph-name="sfthyphen" horiz-adv-x="473" d="M434 390Q448 372 441 354T418 326Q414 324 410 324T401 321Q391 316 385 309T370 299Q362 298 352 300T330 305Q307 307 281 306T231 305Q211 305 195 307T168 318Q144 311 117 306T63 304Q46
306 31 312T0 318Q-2 330 1 339T11 357T23 373T34 388Q44 392 54 392T75 392T97 388T120 387Q126 387 131 389T143 392Q153 393 163 393T184 392Q194 392 205 393T222 392Q229 391 234 386T247 381Q252 381 256 384T268 390Q276 392 287 392T310 393T331 393T347
394Q369 396 390 394T434 390Z" />
<glyph unicode="&#xae;" glyph-name="registered" horiz-adv-x="604" d="M464 565Q480 530 460 495Q455 485 450 475T438 457Q427 446 414 441T386 428Q404 411 404 389Q404 386 403 383T401 377Q399 366 399 356T403 340Q408 335 418 339T436 351Q445 348 444
341T436 325T423 310T411 302Q406 300 397 300T378 299T359 300T347 304Q345 306 344 309T341 315Q339 320 336 321T332 326Q330 330 330 337T331 352Q331 365 333 378T336 406Q326 414 319 411T294 407Q289 395 287 381T281 354T271 331T255 314Q248 315 237 315T215
314T193 314T179 319Q176 325 179 329T187 337T197 344T206 353Q211 364 213 380T222 414Q224 422 228 429T234 443Q238 456 239 467T244 490Q246 495 247 500T251 512Q253 520 256 530T260 546Q260 550 259 555T255 565Q253 571 251 579T251 599Q257 600 262 603T273
606Q279 606 279 603T285 598Q293 596 307 599T339 602Q347 602 354 601T369 599Q383 599 394 601T418 600Q431 592 435 592T443 589Q451 583 453 576T464 565ZM353 469Q366 471 377 479T394 499Q398 507 398 515T402 531Q397 537 390 540T378 549Q361 546 347
547T324 537Q322 532 319 527T314 516Q309 502 308 491T304 466Q317 465 326 465T341 467Q348 468 353 469ZM358 739Q363 740 368 740T380 738Q393 738 407 738T432 733Q438 731 443 728T456 722Q469 718 480 716T503 708Q508 706 512 703T521 695Q544 679 558
659T586 612Q594 597 600 583T609 549Q610 535 609 520T605 487Q603 455 599 426T586 366Q578 339 561 321T527 282Q509 259 489 241T443 209Q420 195 400 186T354 168Q334 162 308 161T256 161T206 170T166 185Q156 191 146 200T126 219Q117 229 107 237T88 255Q82
263 76 275T63 298Q56 309 53 321Q48 332 44 343T37 368Q35 379 36 391T36 418Q35 440 37 460T47 501Q51 511 58 521T71 543Q76 554 80 565T90 588Q95 596 101 604T115 621Q132 647 153 661T203 691Q212 696 220 702T239 712Q246 715 256 718T278 725Q296 730 315
733T358 739ZM132 494Q130 486 130 476T127 455Q122 432 118 410T116 373Q117 365 122 355T132 337Q135 333 138 330T145 321Q149 316 152 312T158 302Q172 285 186 273T222 251Q235 246 246 241T269 234Q285 232 298 235T322 240Q327 241 332 241T342 241Q364
247 384 258T421 281Q435 291 451 302T478 325Q487 335 494 348T507 373Q515 387 522 406T535 446T541 487T539 523Q537 530 533 536T527 550Q525 557 524 564T519 580Q518 583 516 586T512 593Q510 597 510 601T507 608Q499 622 485 631T454 648Q444 652 436 657T420
665Q409 668 392 668T364 666Q351 664 339 664T316 662Q312 660 309 659T302 656Q288 654 280 652Q272 650 267 647T254 638Q248 635 242 633T231 626Q226 622 221 617T210 606Q176 578 152 541Q152 525 145 516T132 494Z" />
<glyph unicode="&#xaf;" glyph-name="overscore" horiz-adv-x="831" d="M397 676Q400 677 402 678T408 682Q419 684 430 681T452 676Q463 675 471 677T487 683T503 687T524 686Q529 685 532 684T541 682Q546 684 550 686T563 690Q578 691 598 690Q609 689 617
690T633 689Q637 688 641 684T646 677Q647 672 644 666T637 655T627 645T617 639Q606 635 595 634T569 631Q557 629 549 625T528 622Q517 622 511 623T499 624T487 625T472 623Q468 623 465 621T457 617Q453 616 449 618T439 621Q434 621 430 620T422 618Q417 620
405 626T390 639Q388 650 391 659T397 676Z" />
<glyph unicode="&#xb0;" glyph-name="degree" horiz-adv-x="319" d="M303 736Q310 726 317 716T329 693T334 666T329 632Q325 621 316 610T298 591Q290 583 279 573T258 558Q250 554 239 553T215 551T189 551T165 553Q152 555 144 560T126 569Q126 576 124 581T118
590T111 600T108 611Q108 616 110 622T112 636Q114 651 114 664T126 691Q130 696 136 701T148 712Q159 721 171 730T197 745Q214 745 230 750T261 753Q275 751 283 745T303 736ZM209 595Q220 595 239 606T265 629Q269 634 270 642T272 656Q275 682 264 695T226
703Q203 698 186 679T167 631Q173 620 182 607T209 595Z" />
<glyph unicode="&#xb2;" glyph-name="twosuperior" horiz-adv-x="364" d="M133 359Q142 360 148 358T159 356Q164 357 169 359T180 364Q204 366 217 357T245 340Q253 335 263 330T281 324Q290 322 298 324T313 330T329 337T347 339Q345 319 329 310T301 296Q288
292 271 290T235 286T200 285T169 289Q144 294 117 299T63 297Q55 295 48 292T34 285T20 281T4 281Q-7 289 -6 306T4 341Q7 348 13 354T26 367T37 380T42 394Q61 425 85 449T135 495T190 534T246 573Q246 584 253 596T270 620T287 643T294 664Q293 675 284 678T261
680T235 671T212 658Q203 647 198 631T180 603Q173 596 158 590T131 586Q123 588 121 598T123 620Q125 625 130 629T139 639Q150 651 157 663T176 684Q184 690 194 695T213 707Q241 725 276 739Q284 738 293 738T312 739T331 738T347 733Q356 726 369 719T385 706Q390
697 390 678T387 643Q386 638 384 627T378 609Q376 605 372 602T365 595Q361 590 360 584T356 571Q351 560 345 552T333 534Q311 517 294 497T254 459Q240 448 225 441T195 423Q191 421 188 417T180 410Q177 408 173 407T166 403Q143 387 133 359Z" />
<glyph unicode="&#xb3;" glyph-name="threesuperior" horiz-adv-x="788" d="M566 525Q565 520 565 517T564 508Q558 498 551 489T534 474Q491 417 447 365T356 259Q330 220 302 184T241 116Q237 111 234 100T225 81Q221 76 213 71T197 55Q194 51 192 46T186 36Q183
32 177 24T163 7T147 -8T135 -16Q132 -16 121 -14T106 -10Q101 -8 96 -6T84 -2Q86 6 84 15T84 33Q86 40 93 47T110 63T128 79T143 94Q160 112 171 131T195 167Q220 203 256 239Q273 256 290 272T321 306Q325 311 327 316T334 327Q340 335 349 341T367 356Q381 370
392 385T420 410Q423 416 421 419T421 427Q433 442 441 458T462 489Q471 502 483 512T501 539Q521 559 543 584T587 636Q595 645 604 652T622 669Q625 673 627 678T633 687Q636 692 642 697T654 709Q661 716 666 721T676 729Q685 733 694 732T712 727T726 715T730
700Q728 686 716 678T695 660Q689 652 683 645T670 629Q650 607 631 584T591 542Q577 536 566 525ZM299 521Q307 513 319 507T336 489Q338 463 329 436T305 383T269 339T228 312Q224 310 222 312T217 315Q207 303 195 298T164 287Q155 285 146 281T128 275Q115
272 100 272T69 269Q43 265 20 267T-15 282Q-4 295 12 297T42 301Q58 303 74 304T106 311Q114 314 121 319T137 330Q145 334 153 337T167 346Q177 353 187 361T208 375Q203 385 211 401T224 432Q229 448 227 460T230 486Q213 502 181 499Q175 498 169 495T158 494Q147
496 147 502T151 516T163 531T177 541Q189 546 202 549T229 558Q242 563 251 569T270 579Q275 588 282 593T294 606Q298 612 295 612T294 618Q300 630 303 644T307 671T301 692T284 701Q275 702 258 692T229 674Q226 672 221 667T214 658Q210 651 210 644T207 631Q201
618 192 609T171 595T148 592T128 603Q126 614 131 632T148 662Q160 673 175 681T208 699Q237 715 267 725T334 736Q360 737 377 725T406 701Q405 692 407 685T411 671T414 656T412 637Q406 614 393 597T365 565T332 541T299 521ZM753 403Q747 394 741 391T729
377Q724 364 722 358T713 339Q708 331 700 322T688 305Q686 301 686 297T686 289Q678 263 663 237T643 183Q666 180 690 184T735 181Q732 173 726 168T712 159T699 150T689 137Q672 137 657 135T627 131Q616 120 609 105T597 73T585 40T572 12Q568 6 561 4T546
-2Q535 -6 527 -10T507 -7Q502 -5 500 0T493 10Q483 17 481 19T473 30Q487 49 500 68T521 116Q510 117 495 117T464 115T431 112T402 110Q391 119 384 130T366 152Q372 170 383 184T407 211T435 234T464 256Q477 267 487 276T514 291Q516 295 518 298T521 306Q528
314 534 318T548 325T562 332T579 344Q583 347 586 353T594 364Q597 368 602 371T612 380Q631 400 667 403Q685 406 709 405T753 403ZM598 285Q596 285 591 282T581 274T570 266T563 262Q558 254 551 249T537 234Q533 230 532 225T526 216Q521 212 518 212T510
209Q502 205 491 195T473 180Q479 178 490 178T513 177T538 177T558 179Q568 208 583 230T609 280Q609 280 612 285T618 297T623 308T625 313Q622 309 612 298T598 285Z" />
<glyph unicode="&#xb4;" glyph-name="acute" horiz-adv-x="831" d="M420 587Q418 596 412 606T409 628Q429 639 444 654T479 684Q493 695 501 699T522 714Q530 719 535 726T548 738Q554 742 561 747T577 755T593 759T606 757Q615 752 623 734T628 702Q627 696
621 691T607 680T590 671T573 662Q557 651 546 645T519 630Q507 622 497 613T474 597T449 586T420 587Z" />
<glyph unicode="&#xb5;" glyph-name="mu" horiz-adv-x="402" d="M323 390Q331 396 339 399T359 401Q364 384 360 369T353 339Q351 325 347 313T340 290Q337 279 336 270T334 254T330 240T319 226Q321 205 317 190T307 157Q304 146 302 137T296 118Q290 102 285
91T272 69T257 50T238 31Q232 28 232 26T224 19Q211 14 202 4T178 -7Q173 -7 167 -5T154 -2Q148 -2 142 -3T130 -5T120 -4T113 5Q103 7 96 1T80 -5Q71 -4 65 3T48 13Q45 0 43 -12T36 -40Q35 -45 33 -52T28 -67T22 -81T15 -88Q9 -91 -2 -92T-27 -94T-51 -93T-67
-86Q-69 -83 -72 -76T-77 -63Q-79 -53 -76 -47T-69 -34Q-67 -27 -65 -16Q-59 -2 -53 10T-43 42Q-38 74 -30 106T-11 168Q-10 178 -9 189T-6 212Q-4 223 -4 234T1 254Q3 259 7 261T14 269Q21 283 22 302T26 341Q28 352 28 365T32 385Q35 389 44 393T64 401T86 407T102
409Q108 409 112 406T122 401Q127 399 131 399T139 396Q145 390 145 383T143 368T137 355T132 345Q131 343 131 340T129 334Q123 319 116 301T101 266Q91 236 88 209T79 147Q70 136 72 123T85 99T108 82T135 79Q143 81 150 85T164 94Q173 98 179 99T190 103T197
110T203 127Q204 133 204 136T203 142T203 148T206 158Q210 168 218 175T229 193Q230 197 229 201T227 207Q229 226 235 238T246 269Q248 279 248 288T251 305Q253 313 255 321T261 336Q263 339 265 341T269 348Q273 357 273 367T276 387Q282 399 292 403T315 408Q320
407 320 400T323 390Z" />
<glyph unicode="&#xb6;" glyph-name="paragraph" horiz-adv-x="597" d="M687 745Q696 742 705 736Q702 722 694 714T676 700T656 692T636 684Q625 678 609 665T584 637Q581 632 579 627T573 615Q567 605 559 598T547 580Q541 564 538 543T527 503Q525 495 521
488T515 472Q513 463 513 454T510 436Q504 419 497 405T486 375Q484 361 482 347T478 317Q477 309 478 301T480 285Q479 267 475 247T465 207Q460 180 455 157T447 104Q447 98 446 89T444 69T440 49T436 34Q431 21 420 18T392 7Q384 2 377 -3T360 -9Q351 -9 347
-4T337 5Q336 31 346 55T361 104Q364 115 364 126T367 150Q371 169 377 188T389 227Q395 253 403 280T416 333Q421 358 422 380T431 426Q434 436 439 445T447 465Q450 476 451 486T456 505Q459 513 463 521T471 539Q483 574 491 609T515 676Q510 681 501 684T481
683Q477 681 470 676T456 665T444 653T436 640Q434 631 429 622T422 602Q420 593 420 583T418 562Q411 537 401 512T382 461Q378 447 375 434T368 408Q363 392 363 376T357 345Q352 328 343 310T329 271Q320 239 317 206T304 141Q303 136 301 133T297 124Q295 119
295 115T295 105Q293 98 290 93T285 81Q283 70 282 57T279 32T273 8T261 -9Q252 -17 240 -18T216 -15T195 -4T184 13Q192 30 193 49T200 83Q202 85 202 89T208 91Q211 119 213 139T222 183Q226 199 233 216T237 246Q233 257 222 259T201 266Q191 269 178 275T160
286Q155 291 152 299T143 314Q129 331 112 347T89 388Q86 397 88 407T90 428Q91 442 87 453T80 478Q74 508 80 542T101 602Q116 630 145 655T203 695Q237 714 279 726T368 743Q379 744 389 742T412 740Q430 739 456 741T503 741Q514 740 525 737T549 731Q553 731
557 732T566 733Q593 731 625 731T682 743L687 745Z" />
<glyph unicode="&#xb7;" glyph-name="middot" horiz-adv-x="212" d="M119 411Q135 408 149 389T160 348Q154 320 132 303T80 280Q65 277 52 286T32 309T25 341T35 373Q40 380 49 384T66 394Q72 399 80 406T97 414Q102 414 108 413T119 411Z" />
<glyph unicode="&#xb8;" glyph-name="cedilla" horiz-adv-x="831" d="M544 -27Q564 -29 580 -33T605 -50Q613 -62 617 -76T613 -112Q611 -119 604 -127T591 -143Q589 -146 588 -150T585 -157Q577 -168 563 -177T539 -193Q513 -205 486 -204T433 -193Q425 -185
421 -172T420 -142Q421 -137 425 -136T432 -132Q441 -133 450 -137T468 -144T489 -147T512 -141Q520 -136 528 -129T538 -116Q542 -96 532 -89T507 -80T475 -77T451 -68Q448 -66 445 -59T443 -46Q444 -42 448 -38T454 -28Q456 -24 456 -20T456 -14Q461 -2 471 8T486
32Q502 39 517 38T553 38Q560 32 560 25T556 10T548 -8T544 -27Z" />
<glyph unicode="&#xb9;" glyph-name="onesuperior" horiz-adv-x="309" d="M360 721Q352 701 348 684T334 646Q328 634 318 623T300 598Q289 578 279 557T258 513Q255 507 251 501T244 488Q242 483 241 477T238 465Q227 441 212 416T189 367Q184 349 184 339Q185
335 191 328T194 313Q186 303 173 306T148 311Q109 316 74 307T5 292Q3 295 2 297T0 304Q12 312 25 319T50 334T74 353T93 377Q102 391 110 409T126 445Q134 462 146 477T163 507Q165 511 165 515T166 523Q169 535 177 547T193 572Q202 592 208 610T226 645Q215
640 200 634T171 617Q163 612 155 604T132 598Q130 598 127 601T124 606Q124 613 129 618T140 628T154 635T165 642Q171 647 175 654T185 667Q195 676 205 681T227 693Q234 707 246 712T273 729Q281 734 286 742T296 752Q310 757 321 753T332 735Q342 733 347 729T360
721Z" />
<glyph unicode="&#xba;" glyph-name="ordmasculine" horiz-adv-x="471" d="M450 394Q445 390 443 383T435 369Q432 364 426 360T415 349Q408 341 402 331T386 311Q374 300 359 289T330 270Q317 263 301 257T269 248Q262 246 251 246T228 245T205 247T184 252Q177
254 169 259T152 270Q129 281 119 293T92 326Q84 334 77 342T66 362Q62 374 63 386T63 412Q63 418 60 423T55 435Q53 442 54 452T57 474T62 495T68 513Q72 521 78 529T89 546Q94 558 98 569T111 590Q122 606 135 622T166 652T203 674T250 686Q254 686 257 685T265
684Q268 685 271 686T278 688Q291 689 307 689T340 689T370 684T395 676Q408 671 421 654T445 625Q453 616 460 605T471 581Q478 557 476 535T469 489T457 443T450 394ZM180 391Q185 369 200 350T234 324Q245 320 256 323T278 334T297 351T309 368Q316 380 323
396T338 430T350 466T358 499Q361 513 359 520T354 541Q353 552 355 564T356 586Q354 599 346 608T327 621T303 625T278 616Q274 614 271 611T264 604Q253 595 240 585T220 561Q213 550 207 535T196 508Q191 497 191 484T186 457Q184 449 179 442T173 426Q179 419
179 410T180 391ZM29 114Q21 117 15 120T5 130Q7 146 17 153T37 168Q51 166 62 170T88 177Q96 178 104 177T118 178Q124 180 128 185T138 193Q145 195 157 193T180 191Q195 191 213 191T251 193T287 195T317 197Q338 198 355 190T371 160Q371 149 361 135T345 119Q339
117 333 120T319 123Q311 124 302 123T284 121Q266 119 247 119T208 118Q176 116 143 114T76 114Q65 115 54 117T29 114Z" />
<glyph unicode="&#xbb;" glyph-name="guillemotright" horiz-adv-x="380" d="M329 231Q327 213 321 204T307 188T290 177T271 164Q263 156 256 147T241 129Q227 116 220 112T209 106T199 99T184 79Q181 74 177 72T168 67Q158 60 150 50T134 30T116 11T93 -3Q90
3 88 9T87 24Q89 30 90 36T93 49Q100 74 103 84T109 100T120 113T142 141Q154 150 161 157T177 169T193 179T210 194Q218 201 224 208T238 223Q243 227 247 227T250 231Q242 236 241 239T237 250Q236 254 228 260T216 270Q215 278 216 284T217 298Q214 299 211
299T205 302Q202 304 197 315T187 340T177 366T173 383Q178 401 182 418T199 452Q207 452 212 447T221 433T227 417T232 401Q234 396 239 393T249 386Q254 381 257 374T262 359Q265 357 270 349T280 330T289 311T296 297Q301 294 307 286T318 268T327 248T329 231ZM165
231Q163 213 157 204T143 188T126 177T108 164Q99 156 92 147T77 129Q63 116 56 112T45 106T35 99T20 79Q17 74 13 72T4 67Q-6 60 -14 50T-30 30T-48 11T-71 -3Q-74 3 -76 9T-77 24Q-75 30 -74 36T-71 49Q-64 74 -61 84T-54 100T-44 113T-22 141Q-10 150 -2 157T14
169T30 179T46 194Q54 201 60 208T74 223Q79 227 83 227T86 231Q78 236 77 239T73 250Q72 254 64 260T52 270Q51 278 52 284T53 298Q50 299 47 299T41 302Q38 304 33 315T23 340T13 366T9 383Q14 401 18 418T35 452Q43 452 48 447T57 433T63 417T69 401Q71 396
76 393T85 386Q90 381 93 374T98 359Q101 357 106 349T116 330T125 311T132 297Q137 294 143 286T154 268T163 248T165 231Z" />
<glyph unicode="&#xbc;" glyph-name="onequarter" horiz-adv-x="749" d="M350 713Q342 694 338 675T322 633Q317 622 307 610T289 584Q282 571 275 557T261 529Q251 509 245 493T229 454Q219 425 202 396T177 341Q174 327 175 319Q175 315 181 307T185 292Q182
287 177 286T164 285T151 287T140 289Q98 294 62 286T-9 269Q-15 277 -15 285Q13 299 40 315T84 362Q86 367 87 372T90 382Q104 411 118 438T150 492Q147 509 159 527T180 563Q188 583 195 600T214 634Q200 631 184 622T155 604Q149 600 143 596T130 589T117 587T106
596Q111 611 125 617T151 633Q156 638 160 645T169 657Q178 667 189 672T212 684Q217 698 231 704T259 722Q267 728 272 736T284 746Q299 752 309 746T321 727Q332 726 338 722T350 713ZM531 528Q530 523 530 520T528 511Q522 501 515 492T498 477Q453 420 407
368T313 262Q284 223 255 187T194 119Q189 114 186 103T176 84Q172 79 164 74T147 58Q144 54 142 49T136 39Q133 34 127 26T112 10T96 -5T84 -13Q80 -14 69 -11T55 -7Q49 -5 44 -3T33 1Q35 9 33 18T34 36Q36 43 43 50T60 66T79 82T95 97Q112 115 124 134T148 170Q162
188 178 206T212 242Q229 259 247 275T279 309Q283 314 285 319T292 329Q299 337 308 344T327 359Q341 373 352 388T381 413Q384 419 383 421T383 429Q395 446 404 462T425 493Q435 504 448 514T466 542Q488 562 510 587T555 639Q563 647 573 654T591 672Q595 676
597 681T602 690Q606 694 612 699T625 712Q631 719 636 724T647 732Q656 736 666 735T684 730T696 718T700 703Q698 689 685 680T665 663Q657 655 651 647T638 632Q618 610 598 587T557 544Q549 542 543 538T531 528ZM723 403Q718 394 711 391T699 377Q694 364
692 358T683 339Q678 331 670 322T658 305Q656 301 656 297T656 289Q648 263 634 237T613 183Q636 180 660 184T706 181Q702 173 696 168T683 159T670 150T659 137Q643 137 628 135T597 131Q586 120 579 105T567 73T556 40T543 12Q539 6 532 4T516 -2Q506 -6 498
-10T477 -7Q472 -5 470 0T463 10Q454 17 452 19T443 30Q457 49 470 68T492 116Q481 117 466 117T435 115T402 112T373 110Q362 119 355 130T336 152Q342 170 353 184T377 211T405 234T434 256Q448 267 457 276T484 291Q486 295 488 298T492 306Q498 314 504 318T518
325T532 332T549 344Q553 347 556 353T564 364Q567 368 572 371T583 380Q600 400 637 403Q656 406 679 405T723 403ZM568 285Q566 285 561 282T551 274T541 266T534 262Q528 254 521 249T507 234Q504 230 503 225T497 216Q493 212 489 212T480 209Q472 205 461
195T443 180Q450 178 461 178T484 177T508 177T528 179Q539 208 553 230T580 280Q580 280 582 285T588 297T593 308T595 313Q592 309 582 298T568 285Z" />
<glyph unicode="&#xbd;" glyph-name="onehalf" horiz-adv-x="723" d="M345 721Q337 701 333 684T318 646Q312 634 303 623T285 598Q274 578 264 557T243 513Q240 507 235 501T228 488Q226 483 225 477T222 465Q211 441 197 416T174 367Q169 349 169 339Q170 335
176 328T178 313Q171 303 157 306T133 311Q94 316 59 307T-10 292Q-12 295 -13 297T-15 304Q-3 312 9 319T34 334T58 353T78 377Q87 391 94 409T111 445Q119 462 130 477T147 507Q149 511 149 515T151 523Q154 535 162 547T177 572Q186 592 193 610T211 645Q200
640 185 634T156 617Q147 612 139 604T117 598Q115 598 112 601T109 606Q109 613 113 618T125 628T139 635T150 642Q156 647 160 654T170 667Q179 676 190 681T212 693Q218 707 231 712T258 729Q265 734 270 742T281 752Q295 757 305 753T316 735Q327 733 332 729T345
721ZM487 531Q485 526 485 523T484 514Q477 504 470 495T453 480Q408 425 361 374T268 268Q237 233 209 196T148 127Q144 122 141 112T131 93Q127 88 119 83T102 68Q99 63 97 58T91 48Q88 44 82 36T67 20T51 5T39 -2Q35 -3 24 -1T11 3Q5 5 0 7T-10 11Q-8 20 -10
28T-9 45Q-6 52 1 59T18 75T36 91T52 106Q69 124 81 142T105 178Q119 195 135 213T169 249Q186 266 204 282T236 315Q240 320 242 325T249 335Q257 343 266 350T284 365Q298 379 309 393T338 417Q341 423 340 426T340 434Q352 449 361 465T383 496Q392 508 405
518T423 544Q446 564 468 589T513 640Q521 649 530 656T548 673Q552 677 554 681T560 691Q564 695 570 700T583 712Q589 719 594 724T604 731Q613 735 622 735T640 730T652 718T655 703Q653 690 641 681T620 664Q613 656 607 649T594 633Q574 611 554 589T512 547Q498
541 487 531ZM427 71Q435 73 440 71T453 68Q458 69 462 71T473 75Q497 77 510 68T538 51Q546 46 555 42T573 35Q582 33 590 36T606 42T622 48T640 50Q638 31 623 21T594 7Q581 3 564 1T529 -3T493 -4T462 0Q437 5 410 10T356 8Q342 4 327 -4T297 -8Q286 0 287 17T297
53Q300 60 306 66T319 79T330 92T335 105Q354 136 378 160T428 206T483 246T539 285Q539 296 546 307T563 331T580 354T587 375Q586 387 576 390T554 391T528 383T505 370Q496 358 490 342T473 314Q466 307 451 301T424 298Q416 300 414 310T417 331Q419 336 423
340T432 350Q442 364 450 375T469 396Q477 401 487 407T506 418Q522 428 537 436T569 452Q586 450 606 451T640 444Q649 438 662 430T678 417Q683 409 683 389T680 354Q679 349 677 338T671 322Q669 317 664 314T657 306Q654 301 653 295T650 283Q645 271 638 263T626
245Q604 228 587 208T547 170Q533 160 517 152T487 134Q484 132 481 128T473 121Q470 119 466 118T459 115Q446 107 439 96T427 71Z" />
<glyph unicode="&#xbe;" glyph-name="threequarters" horiz-adv-x="388" d="M309 530Q318 522 329 516T346 499Q348 473 339 446T315 393T280 349T239 322Q234 319 232 322T227 325Q217 313 206 308T174 297Q165 294 156 291T138 286Q125 283 110 282T79 279Q53
274 30 276T-5 292Q6 304 22 306T52 310Q69 312 85 313T117 322Q124 324 131 329T147 339Q155 344 163 347T177 355Q187 363 197 370T218 384Q213 394 221 410T234 441Q240 457 238 469T241 496Q231 504 219 507T191 509Q185 508 179 505T168 503Q157 505 157 512T161
526T173 541T187 551Q199 556 212 558T240 567Q252 572 261 579T281 589Q286 597 292 602T304 616Q308 622 305 623T304 629Q310 641 314 655T318 682T312 702T294 712Q290 712 283 709T268 702T253 693T240 683Q237 681 232 676T224 668Q220 660 220 653T217 640Q211
627 202 618T181 605T159 601T138 612Q136 625 142 642T159 671Q170 683 185 691T218 709Q247 724 277 735T344 746Q370 746 387 734T416 711Q416 701 417 694T421 680T424 665T422 646Q416 623 404 606T375 574T342 550T309 530Z" />
<glyph unicode="&#xbf;" glyph-name="questiondown" horiz-adv-x="508" d="M48 45Q34 46 22 48T2 58Q-6 74 -10 92T-17 130T-22 170T-26 210Q-28 233 -22 251T-5 286T16 317T37 347Q54 356 65 364T93 382Q108 392 122 401T162 413Q175 415 190 414T216 417Q222
421 224 429T233 443Q238 448 241 448T247 452Q252 468 255 487T263 524Q276 570 328 577Q332 578 340 579T356 580T372 581T383 580Q386 578 390 571T398 556T405 539T409 524Q409 514 405 503T396 480T386 454T380 424Q379 415 380 405T379 386Q377 378 372 367T362
350Q349 330 322 320T260 317Q252 319 246 322T230 326Q198 326 180 311T148 269Q139 249 132 219T125 159Q125 147 127 134T133 110Q137 95 148 89T172 78T199 69T220 53Q229 55 235 61T248 72Q279 75 304 86T344 123Q347 129 351 139T357 157Q359 176 347 188T316
200Q308 199 302 194T288 184Q282 181 273 177T258 174Q250 176 248 188T247 211Q250 225 264 236T298 254T337 260T372 252Q384 244 398 224T419 188Q425 174 425 160T423 132T417 104T411 75Q397 61 383 50T354 25Q346 20 334 18T307 12Q297 10 289 6T272 0Q268
0 264 0T255 0Q248 -1 241 -3T225 -7Q209 -9 190 -10T156 -9Q152 -8 148 -7T138 -3Q131 -2 125 -3T112 -2Q83 3 70 13T48 45ZM379 620Q369 617 356 618T334 627Q332 629 329 634T323 644Q315 653 303 663T288 684Q286 695 289 706T297 728Q300 738 304 747T316
763Q327 771 344 772T376 771Q381 770 384 768T394 763Q405 761 416 761T434 757Q441 752 446 738T452 716Q453 701 447 685T430 656T406 633T379 620Z" />
<glyph unicode="&#xc0;" glyph-name="Agrave" horiz-adv-x="895" d="M172 25Q152 25 143 17T129 -5Q117 -2 102 -4T71 -8T41 -10T16 -5Q11 -2 8 3T1 14Q-3 20 -7 25T-13 35Q-15 41 -10 52T-1 69Q3 72 8 74T19 80Q33 91 39 107T51 134Q58 139 67 144T75 159Q66
164 54 164T30 164Q10 164 -10 167T-46 172Q-72 177 -91 196T-108 244Q-101 247 -93 247T-75 246T-56 245T-38 247Q-29 241 -22 241T-8 244T5 250T16 255Q21 256 25 255T34 254Q42 254 50 256T69 261Q84 263 100 263T127 269Q134 272 143 279T156 293Q158 298 158
302T159 312Q164 329 176 342T197 371Q200 379 201 383T204 390T206 397T213 409Q222 423 231 436T254 461Q254 467 256 471T260 481Q287 492 304 510T338 548Q337 558 342 562T347 577Q347 582 344 588T340 602Q340 610 346 618T358 634Q366 642 370 650T380 665Q388
674 396 681T413 698Q417 704 419 711T428 723Q437 729 453 730T485 732Q504 733 526 736T571 744T615 751T655 756Q673 758 689 757T716 760Q730 748 744 737T772 712Q776 692 779 675T780 641Q778 633 774 626T770 610Q770 595 779 581T792 549Q793 541 790 534T785
518Q784 510 786 501T790 481Q790 469 789 457T790 432Q792 419 795 406T797 378Q795 364 792 352T788 327Q787 309 790 293T788 259Q796 249 796 239T795 219T791 199T793 177Q795 170 801 165T809 151Q812 141 812 127T813 99Q814 67 808 42T800 -12Q800 -25
800 -41T794 -66Q789 -72 778 -78T759 -86Q744 -87 725 -78T695 -59Q686 -49 679 -37T664 -12T648 12T630 32Q625 35 619 38T610 45Q604 55 604 67T604 93T607 120T606 143Q603 153 598 158T586 166T569 169T546 171Q499 174 449 177T347 179Q336 179 331 178T322
177T314 175T301 174Q281 173 265 172T237 161Q230 156 222 141T210 118Q205 106 202 93T195 68T186 44T172 25ZM426 289Q460 290 491 290T551 293Q555 295 558 296T570 295Q570 300 575 300T583 303Q587 310 587 314T586 322T582 330T579 343Q579 351 581 359T585
377Q586 384 584 392T582 408Q583 415 588 420T593 433Q593 437 592 442T589 452Q588 459 588 466T587 478Q585 486 577 493T567 508Q564 518 566 530T569 555Q568 572 566 586T556 614Q545 620 540 619T531 612T525 599T516 587Q489 563 474 539T437 485Q428 474
419 463T402 439T390 412T388 381Q383 373 380 370T372 363T364 356T353 345Q342 331 329 317T312 285Q330 280 343 280T368 281T394 285T426 289ZM595 843Q576 838 565 841T546 852T532 869T519 886Q509 895 501 901T482 918Q477 922 471 926T459 936T450 946T449
958Q451 965 457 973T470 990T486 1004T500 1013Q514 1019 527 1011T548 994Q553 989 554 982T561 970Q569 959 574 955T588 940Q599 925 606 910T628 884Q626 873 615 863T595 843Z" />
<glyph unicode="&#xc1;" glyph-name="Aacute" horiz-adv-x="895" d="M172 25Q152 25 143 17T129 -5Q117 -2 102 -4T71 -8T41 -10T16 -5Q11 -2 8 3T1 14Q-3 20 -7 25T-13 35Q-15 41 -10 52T-1 69Q3 72 8 74T19 80Q33 91 39 107T51 134Q58 139 67 144T75 159Q66
164 54 164T30 164Q10 164 -10 167T-46 172Q-72 177 -91 196T-108 244Q-101 247 -93 247T-75 246T-56 245T-38 247Q-29 241 -22 241T-8 244T5 250T16 255Q21 256 25 255T34 254Q42 254 50 256T69 261Q84 263 100 263T127 269Q134 272 143 279T156 293Q158 298 158
302T159 312Q164 329 176 342T197 371Q200 379 201 383T204 390T206 397T213 409Q222 423 231 436T254 461Q254 467 256 471T260 481Q287 492 304 510T338 548Q337 558 342 562T347 577Q347 582 344 588T340 602Q340 610 346 618T358 634Q366 642 370 650T380 665Q388
674 396 681T413 698Q417 704 419 711T428 723Q437 729 453 730T485 732Q504 733 526 736T571 744T615 751T655 756Q673 758 689 757T716 760Q730 748 744 737T772 712Q776 692 779 675T780 641Q778 633 774 626T770 610Q770 595 779 581T792 549Q793 541 790 534T785
518Q784 510 786 501T790 481Q790 469 789 457T790 432Q792 419 795 406T797 378Q795 364 792 352T788 327Q787 309 790 293T788 259Q796 249 796 239T795 219T791 199T793 177Q795 170 801 165T809 151Q812 141 812 127T813 99Q814 67 808 42T800 -12Q800 -25
800 -41T794 -66Q789 -72 778 -78T759 -86Q744 -87 725 -78T695 -59Q686 -49 679 -37T664 -12T648 12T630 32Q625 35 619 38T610 45Q604 55 604 67T604 93T607 120T606 143Q603 153 598 158T586 166T569 169T546 171Q499 174 449 177T347 179Q336 179 331 178T322
177T314 175T301 174Q281 173 265 172T237 161Q230 156 222 141T210 118Q205 106 202 93T195 68T186 44T172 25ZM426 289Q460 290 491 290T551 293Q555 295 558 296T570 295Q570 300 575 300T583 303Q587 310 587 314T586 322T582 330T579 343Q579 351 581 359T585
377Q586 384 584 392T582 408Q583 415 588 420T593 433Q593 437 592 442T589 452Q588 459 588 466T587 478Q585 486 577 493T567 508Q564 518 566 530T569 555Q568 572 566 586T556 614Q545 620 540 619T531 612T525 599T516 587Q489 563 474 539T437 485Q428 474
419 463T402 439T390 412T388 381Q383 373 380 370T372 363T364 356T353 345Q342 331 329 317T312 285Q330 280 343 280T368 281T394 285T426 289ZM563 823Q561 832 555 842T552 864Q572 875 587 890T622 920Q636 931 644 935T665 950Q673 955 678 962T691 974Q697
978 704 983T720 991T736 995T749 993Q758 988 766 970T771 938Q770 932 764 927T750 916T733 907T716 898Q700 887 689 881T662 866Q650 858 640 849T617 833T592 822T563 823Z" />
<glyph unicode="&#xc2;" glyph-name="Acircumflex" horiz-adv-x="895" d="M172 25Q152 25 143 17T129 -5Q117 -2 102 -4T71 -8T41 -10T16 -5Q11 -2 8 3T1 14Q-3 20 -7 25T-13 35Q-15 41 -10 52T-1 69Q3 72 8 74T19 80Q33 91 39 107T51 134Q58 139 67 144T75 159Q66
164 54 164T30 164Q10 164 -10 167T-46 172Q-72 177 -91 196T-108 244Q-101 247 -93 247T-75 246T-56 245T-38 247Q-29 241 -22 241T-8 244T5 250T16 255Q21 256 25 255T34 254Q42 254 50 256T69 261Q84 263 100 263T127 269Q134 272 143 279T156 293Q158 298 158
302T159 312Q164 329 176 342T197 371Q200 379 201 383T204 390T206 397T213 409Q222 423 231 436T254 461Q254 467 256 471T260 481Q287 492 304 510T338 548Q337 558 342 562T347 577Q347 582 344 588T340 602Q340 610 346 618T358 634Q366 642 370 650T380 665Q388
674 396 681T413 698Q417 704 419 711T428 723Q437 729 453 730T485 732Q504 733 526 736T571 744T615 751T655 756Q673 758 689 757T716 760Q730 748 744 737T772 712Q776 692 779 675T780 641Q778 633 774 626T770 610Q770 595 779 581T792 549Q793 541 790 534T785
518Q784 510 786 501T790 481Q790 469 789 457T790 432Q792 419 795 406T797 378Q795 364 792 352T788 327Q787 309 790 293T788 259Q796 249 796 239T795 219T791 199T793 177Q795 170 801 165T809 151Q812 141 812 127T813 99Q814 67 808 42T800 -12Q800 -25
800 -41T794 -66Q789 -72 778 -78T759 -86Q744 -87 725 -78T695 -59Q686 -49 679 -37T664 -12T648 12T630 32Q625 35 619 38T610 45Q604 55 604 67T604 93T607 120T606 143Q603 153 598 158T586 166T569 169T546 171Q499 174 449 177T347 179Q336 179 331 178T322
177T314 175T301 174Q281 173 265 172T237 161Q230 156 222 141T210 118Q205 106 202 93T195 68T186 44T172 25ZM426 289Q460 290 491 290T551 293Q555 295 558 296T570 295Q570 300 575 300T583 303Q587 310 587 314T586 322T582 330T579 343Q579 351 581 359T585
377Q586 384 584 392T582 408Q583 415 588 420T593 433Q593 437 592 442T589 452Q588 459 588 466T587 478Q585 486 577 493T567 508Q564 518 566 530T569 555Q568 572 566 586T556 614Q545 620 540 619T531 612T525 599T516 587Q489 563 474 539T437 485Q428 474
419 463T402 439T390 412T388 381Q383 373 380 370T372 363T364 356T353 345Q342 331 329 317T312 285Q330 280 343 280T368 281T394 285T426 289ZM680 986Q685 975 690 964T703 943Q708 935 714 928T724 910Q725 907 724 904T724 896Q726 894 729 892T735 887Q737
879 738 876T742 870Q745 862 747 853T751 835Q742 828 728 829T710 836Q708 838 707 841T703 846L693 856Q691 859 690 862T687 867Q685 869 680 870T673 874Q667 883 665 884T661 888Q659 891 659 894T656 901Q651 909 650 909T644 918Q637 916 633 915T626 911T620
906T611 900Q609 898 606 897T600 894Q593 890 588 885T578 874Q571 869 565 866T552 857Q540 848 531 846T511 836Q507 832 493 830T469 827Q463 827 457 829T450 835Q449 838 454 841T462 846Q473 854 482 862T502 879Q507 888 510 891T519 898Q523 900 529 903T539
909Q541 911 542 914T547 920Q560 932 581 944T618 968Q625 973 634 980T654 989Q662 990 668 989T680 986Z" />
<glyph unicode="&#xc3;" glyph-name="Atilde" horiz-adv-x="895" d="M172 25Q152 25 143 17T129 -5Q117 -2 102 -4T71 -8T41 -10T16 -5Q11 -2 8 3T1 14Q-3 20 -7 25T-13 35Q-15 41 -10 52T-1 69Q3 72 8 74T19 80Q33 91 39 107T51 134Q58 139 67 144T75 159Q66
164 54 164T30 164Q10 164 -10 167T-46 172Q-72 177 -91 196T-108 244Q-101 247 -93 247T-75 246T-56 245T-38 247Q-29 241 -22 241T-8 244T5 250T16 255Q21 256 25 255T34 254Q42 254 50 256T69 261Q84 263 100 263T127 269Q134 272 143 279T156 293Q158 298 158
302T159 312Q164 329 176 342T197 371Q200 379 201 383T204 390T206 397T213 409Q222 423 231 436T254 461Q254 467 256 471T260 481Q287 492 304 510T338 548Q337 558 342 562T347 577Q347 582 344 588T340 602Q340 610 346 618T358 634Q366 642 370 650T380 665Q388
674 396 681T413 698Q417 704 419 711T428 723Q437 729 453 730T485 732Q504 733 526 736T571 744T615 751T655 756Q673 758 689 757T716 760Q730 748 744 737T772 712Q776 692 779 675T780 641Q778 633 774 626T770 610Q770 595 779 581T792 549Q793 541 790 534T785
518Q784 510 786 501T790 481Q790 469 789 457T790 432Q792 419 795 406T797 378Q795 364 792 352T788 327Q787 309 790 293T788 259Q796 249 796 239T795 219T791 199T793 177Q795 170 801 165T809 151Q812 141 812 127T813 99Q814 67 808 42T800 -12Q800 -25
800 -41T794 -66Q789 -72 778 -78T759 -86Q744 -87 725 -78T695 -59Q686 -49 679 -37T664 -12T648 12T630 32Q625 35 619 38T610 45Q604 55 604 67T604 93T607 120T606 143Q603 153 598 158T586 166T569 169T546 171Q499 174 449 177T347 179Q336 179 331 178T322
177T314 175T301 174Q281 173 265 172T237 161Q230 156 222 141T210 118Q205 106 202 93T195 68T186 44T172 25ZM426 289Q460 290 491 290T551 293Q555 295 558 296T570 295Q570 300 575 300T583 303Q587 310 587 314T586 322T582 330T579 343Q579 351 581 359T585
377Q586 384 584 392T582 408Q583 415 588 420T593 433Q593 437 592 442T589 452Q588 459 588 466T587 478Q585 486 577 493T567 508Q564 518 566 530T569 555Q568 572 566 586T556 614Q545 620 540 619T531 612T525 599T516 587Q489 563 474 539T437 485Q428 474
419 463T402 439T390 412T388 381Q383 373 380 370T372 363T364 356T353 345Q342 331 329 317T312 285Q330 280 343 280T368 281T394 285T426 289ZM784 932Q778 916 768 900T745 875Q742 873 738 873T730 870Q720 865 711 859T693 849T673 843T649 848Q643 851
636 856T623 866Q613 872 600 881T570 885Q565 883 561 878T552 870Q544 865 535 863T517 855Q504 847 493 843T466 836Q463 839 461 841T456 847Q456 855 459 859T463 871Q467 875 471 877T477 885Q489 888 498 897T519 915Q526 920 532 922T547 929Q558 934 568
940T592 944Q600 942 609 938T627 929Q631 927 633 924T640 919Q645 917 650 917T660 916Q671 913 682 906T710 904Q726 908 741 922T771 945Q775 947 778 942T784 932Z" />
<glyph unicode="&#xc4;" glyph-name="Adieresis" horiz-adv-x="895" d="M172 25Q152 25 143 17T129 -5Q117 -2 102 -4T71 -8T41 -10T16 -5Q11 -2 8 3T1 14Q-3 20 -7 25T-13 35Q-15 41 -10 52T-1 69Q3 72 8 74T19 80Q33 91 39 107T51 134Q58 139 67 144T75 159Q66
164 54 164T30 164Q10 164 -10 167T-46 172Q-72 177 -91 196T-108 244Q-101 247 -93 247T-75 246T-56 245T-38 247Q-29 241 -22 241T-8 244T5 250T16 255Q21 256 25 255T34 254Q42 254 50 256T69 261Q84 263 100 263T127 269Q134 272 143 279T156 293Q158 298 158
302T159 312Q164 329 176 342T197 371Q200 379 201 383T204 390T206 397T213 409Q222 423 231 436T254 461Q254 467 256 471T260 481Q287 492 304 510T338 548Q337 558 342 562T347 577Q347 582 344 588T340 602Q340 610 346 618T358 634Q366 642 370 650T380 665Q388
674 396 681T413 698Q417 704 419 711T428 723Q437 729 453 730T485 732Q504 733 526 736T571 744T615 751T655 756Q673 758 689 757T716 760Q730 748 744 737T772 712Q776 692 779 675T780 641Q778 633 774 626T770 610Q770 595 779 581T792 549Q793 541 790 534T785
518Q784 510 786 501T790 481Q790 469 789 457T790 432Q792 419 795 406T797 378Q795 364 792 352T788 327Q787 309 790 293T788 259Q796 249 796 239T795 219T791 199T793 177Q795 170 801 165T809 151Q812 141 812 127T813 99Q814 67 808 42T800 -12Q800 -25
800 -41T794 -66Q789 -72 778 -78T759 -86Q744 -87 725 -78T695 -59Q686 -49 679 -37T664 -12T648 12T630 32Q625 35 619 38T610 45Q604 55 604 67T604 93T607 120T606 143Q603 153 598 158T586 166T569 169T546 171Q499 174 449 177T347 179Q336 179 331 178T322
177T314 175T301 174Q281 173 265 172T237 161Q230 156 222 141T210 118Q205 106 202 93T195 68T186 44T172 25ZM426 289Q460 290 491 290T551 293Q555 295 558 296T570 295Q570 300 575 300T583 303Q587 310 587 314T586 322T582 330T579 343Q579 351 581 359T585
377Q586 384 584 392T582 408Q583 415 588 420T593 433Q593 437 592 442T589 452Q588 459 588 466T587 478Q585 486 577 493T567 508Q564 518 566 530T569 555Q568 572 566 586T556 614Q545 620 540 619T531 612T525 599T516 587Q489 563 474 539T437 485Q428 474
419 463T402 439T390 412T388 381Q383 373 380 370T372 363T364 356T353 345Q342 331 329 317T312 285Q330 280 343 280T368 281T394 285T426 289ZM444 916Q455 929 467 940T499 953Q507 953 516 950T534 940T549 926T556 909Q558 892 553 877T537 850T512 834T484
834Q479 836 472 842T459 855T447 871T441 885Q440 893 442 899T444 916ZM671 853Q657 879 665 906T697 946Q711 953 728 951T755 941Q764 935 772 920T779 892Q779 887 777 881T771 868Q768 862 766 856T759 846Q754 841 739 835T709 830Q698 832 690 840T671
853Z" />
<glyph unicode="&#xc5;" glyph-name="Aring" horiz-adv-x="895" d="M426 289Q460 290 491 290T551 293Q555 295 558 296T570 295Q569 300 574 300T583 303Q587 310 587 314T586 322T582 330T579 343Q579 351 581 359T585 377Q586 384 584 392T582 408Q583 415
588 420T593 433Q593 437 592 442T590 452Q588 459 589 466T588 478Q585 486 577 493T567 508Q564 518 566 530T569 555Q568 572 566 586T556 614Q545 620 540 619T531 612T525 599T516 587Q489 563 474 539T437 485Q428 474 419 463T402 439T390 412T388 381Q383
373 380 369T372 362T364 356T353 345Q342 331 329 317T312 285Q330 280 343 280T368 281T394 285T426 289ZM672 921Q678 911 685 901T697 878T703 850T697 816Q693 805 684 794T667 775Q662 770 656 765T644 755Q647 755 649 755T655 756Q673 758 689 757T716
760Q730 748 744 737T772 712Q776 692 779 675T780 641Q778 633 774 626T770 610Q770 595 779 581T792 549Q793 541 790 534T785 518Q784 510 786 501T790 481Q790 469 789 457T790 432Q792 419 795 406T797 378Q795 364 792 352T788 327Q787 309 790 293T788 259Q796
249 796 240T795 220T791 199T793 177Q795 170 801 165T809 151Q812 141 812 127T813 99Q814 67 808 42T800 -12Q800 -25 800 -41T794 -66Q789 -72 778 -78T759 -86Q744 -87 725 -78T695 -59Q686 -49 679 -37T664 -12T648 12T630 32Q625 35 619 38T610 45Q604 55
604 67T604 93T607 120T606 143Q603 153 598 158T586 166T569 169T546 171Q499 174 449 177T347 179Q336 179 331 178T322 177T314 175T301 174Q281 173 265 172T237 161Q230 156 222 141T210 118Q205 106 202 93T195 68T186 44T172 25Q152 25 143 17T129 -5Q117
-2 102 -4T71 -8T41 -10T16 -5Q11 -2 8 3T1 14Q-3 20 -7 25T-13 35Q-15 41 -10 52T-1 69Q3 72 8 74T19 80Q33 91 39 107T51 134Q58 139 67 144T75 159Q66 164 55 164T30 164Q10 164 -10 167T-46 172Q-72 177 -91 196T-108 244Q-101 247 -93 247T-75 246T-56 245T-38
247Q-29 241 -22 241T-8 244T5 250T16 255Q21 256 25 255T34 254Q42 254 50 256T69 261Q84 263 100 264T127 270Q134 272 143 279T156 293Q158 298 158 302T159 312Q164 329 176 342T197 371Q200 379 201 383T204 390T206 397T213 409Q222 423 231 436T254 461Q254
467 256 471T260 481Q287 492 304 510T338 548Q337 558 342 562T347 577Q347 582 344 588T340 602Q340 610 346 618T358 634Q366 642 370 650T380 665Q388 674 396 681T413 698Q417 704 419 711T428 724Q437 729 453 730T486 732Q497 733 509 734T535 737Q521 739
513 744T495 754Q495 761 493 765T487 774T480 784T476 796Q476 801 478 807T480 820Q482 836 482 849T495 876Q499 881 505 886T517 896Q528 905 540 914T565 930Q582 930 598 934T630 937Q643 935 651 929T672 921ZM578 779Q583 779 591 782T608 791T623 802T634
813Q638 818 639 826T641 842Q644 866 633 879T596 888Q571 883 555 864T536 815Q542 804 551 791T578 779Z" />
<glyph unicode="&#xc6;" glyph-name="AE" horiz-adv-x="1315" d="M1421 733Q1425 720 1418 711T1401 697Q1378 684 1351 676T1300 653Q1287 645 1276 634T1247 617Q1230 612 1210 611T1167 608Q1145 606 1123 601T1082 598Q1074 599 1066 601T1049 605Q1040 606
1031 604T1012 601Q1006 600 999 601T984 601Q965 599 944 596T915 578Q910 549 902 524T886 474Q881 461 875 446T874 417Q918 410 959 415T1039 417Q1051 416 1063 415T1087 411Q1096 409 1104 402T1121 392Q1136 389 1148 390T1174 390Q1183 385 1188 376T1202
360Q1208 355 1216 355T1230 349Q1230 334 1225 326T1212 314T1192 311T1168 312Q1151 314 1128 314T1083 312Q1071 312 1059 311T1036 312Q1028 314 1022 320T1006 328Q996 330 985 327T964 321Q932 315 903 307T845 292Q823 251 814 196Q812 184 810 172T808
151T815 135T836 129Q849 129 864 131T894 135T926 137T959 134Q970 132 978 125T998 119Q1006 120 1013 127T1029 138Q1041 143 1056 143T1088 144T1122 142T1156 140Q1185 140 1217 138T1273 128Q1281 115 1275 102T1254 87Q1243 70 1229 63T1191 48Q1172 43
1160 35T1124 26Q1095 26 1067 26T1009 22Q989 18 971 13T932 5Q882 -3 835 -14T735 -27Q731 -28 728 -28T719 -29Q716 -40 712 -49T701 -66Q695 -72 681 -78T659 -86Q645 -87 628 -78T605 -59Q599 -49 595 -37T588 -12T581 12T568 32Q564 35 560 38T553 45Q550
55 553 67T563 93T574 120T580 143Q580 153 577 158T567 166T550 169T527 171Q482 174 433 177T332 179Q321 179 316 178T306 177T298 175T284 174Q264 173 248 172T215 161Q211 158 206 153T194 141T183 129T175 118Q157 93 144 68T108 25Q88 25 76 17T55 -5Q44
-2 29 -4T-3 -8T-34 -10T-56 -5Q-60 -2 -62 3T-67 14Q-69 20 -72 25T-74 35Q-73 41 -65 52T-51 69Q-46 72 -40 74T-28 80Q-11 91 1 107T23 134Q31 139 41 144T53 159Q46 164 35 164T9 164Q-11 164 -30 167T-63 172Q-88 177 -101 196T-102 244Q-95 247 -86 247T-68
246T-50 245T-32 247Q-25 241 -18 241T-3 244T12 250T26 255Q30 256 33 255T42 254Q50 254 59 256T79 261Q95 263 111 263T140 269Q148 272 159 279T176 293Q180 298 181 302T185 312Q196 329 212 342T242 371Q248 379 250 383T255 390T260 397T270 409Q284 423
297 436T328 461Q330 467 333 471T340 481Q371 492 394 510T439 548Q441 558 448 562T458 577Q460 582 458 588T458 602Q460 610 469 618T487 634Q496 642 503 650T518 665Q528 674 539 681T561 698Q566 704 571 711T585 723Q596 729 612 730T645 732Q664 733 687
736T734 744T781 751T822 756Q841 758 857 757T884 760Q895 749 904 738T924 715Q941 710 962 709T1005 713Q1044 708 1086 714T1172 722Q1184 723 1195 721T1218 717Q1235 715 1254 716T1293 719Q1312 721 1329 721T1363 725Q1375 727 1390 731T1421 733ZM572
293Q581 297 592 295Q593 300 597 300T607 303Q614 310 615 314T615 322T613 330T615 343Q617 351 623 359T632 377Q635 384 635 392T639 408Q641 413 644 416T652 424Q653 429 655 434T659 446Q662 459 664 466T667 478Q667 486 661 493T655 508Q656 518 662 530T673
555Q678 572 680 586T678 614Q669 620 663 619T652 612T642 599T630 587Q613 575 599 563T573 539T547 513T518 485Q506 474 493 463T469 439T449 412T437 381Q429 373 424 370T415 363T405 356T391 345Q375 331 358 317T331 285Q347 280 360 280T385 281T412 285T445
289Q479 290 511 290T572 293Z" />
<glyph unicode="&#xc7;" glyph-name="Ccedilla" horiz-adv-x="705" d="M308 -78Q329 -80 344 -84T370 -101Q378 -113 382 -127T378 -163Q376 -170 369 -178T355 -195Q353 -198 353 -202T350 -208Q342 -219 328 -229T303 -244Q277 -256 251 -255T198 -244Q189 -236
185 -223T184 -194Q185 -189 189 -188T197 -183Q206 -184 214 -188T233 -195T253 -198T276 -193Q285 -188 293 -181T302 -167Q306 -148 296 -141T271 -132T240 -129T215 -119Q213 -117 210 -110T208 -97Q208 -93 212 -89T218 -79Q220 -75 220 -72T220 -66Q225 -55
234 -46T249 -25Q215 -15 184 -3T126 24Q121 38 108 46T87 67Q76 81 69 97T44 122Q48 146 37 159T15 185Q4 226 1 271T7 360Q9 368 12 374T18 387Q21 396 22 406T25 424Q34 457 49 484T82 539Q89 551 97 561T115 583Q119 588 122 593T131 604Q139 612 149 617T167
631Q178 644 183 662T200 694Q202 697 207 701T219 709T232 716T243 722Q264 732 286 734T335 745Q350 750 366 754T396 762Q419 766 449 767T505 763Q509 762 512 761T520 758Q531 756 541 758T561 758Q566 757 570 755T580 751Q585 749 591 749T603 748Q610 746
616 744T629 739Q643 737 659 737T689 738Q716 740 742 745T795 745Q801 729 792 718T772 701Q754 692 729 689T683 678Q672 673 666 666T649 655Q614 655 580 656T508 654Q501 653 494 651T480 648Q471 648 462 651T442 653Q437 651 434 648T426 640Q407 629 385
619T344 595Q327 583 315 565T291 526Q286 519 282 513T275 501Q273 495 273 488T272 472Q270 460 267 446T259 420Q254 407 249 395T241 370Q239 356 239 343T233 315Q230 301 227 289T223 262Q221 239 225 218T229 173Q246 153 261 135T299 109Q309 105 320 105T343
106T367 109T391 110Q400 109 405 107T416 102T428 98T444 97Q461 98 478 99T512 102Q539 104 561 112T605 127Q610 129 615 129T625 131Q633 134 639 138T655 146Q664 151 673 156T688 159Q696 157 697 146T698 131Q696 124 687 119T668 106Q658 99 651 93T637
82Q620 70 602 60T568 41Q554 32 546 24T523 10Q507 4 489 3T456 -4Q444 -8 439 -15T419 -28Q375 -41 322 -38Q318 -47 313 -57T308 -78Z" />
<glyph unicode="&#xc8;" glyph-name="Egrave" horiz-adv-x="735" d="M841 733Q846 720 839 711T821 697Q798 684 771 676T721 653Q707 645 696 634T668 617Q651 612 631 611T588 608Q565 606 543 601T503 598Q495 599 486 601T469 605Q461 606 451 604T432 601Q426
600 419 601T404 601Q395 600 385 599T364 596T347 589T336 578Q331 549 323 524T305 474Q300 461 295 446T295 417Q338 410 379 415T460 417Q471 416 484 415T508 411Q516 409 524 402T542 392Q556 389 569 390T594 390Q603 385 608 376T623 360Q629 355 636 355T650
349Q650 334 645 326T632 314T613 311T589 312Q571 314 548 314T504 312Q491 312 479 311T457 312Q449 314 443 320T426 328Q417 330 406 327T383 321Q351 315 323 307T265 292Q245 252 233 196Q231 184 229 172T228 151T235 135T256 129Q269 129 284 131T315 135T347
137T380 134Q389 132 398 125T419 119Q427 120 434 127T450 138Q462 143 477 143T509 144T543 142T577 140Q605 140 637 138T693 128Q702 115 695 102T675 87Q663 70 649 63T611 48Q593 43 580 35T545 26Q516 26 487 26T429 22Q409 18 391 13T352 5Q302 -3 256
-14T156 -27Q145 -28 134 -30T116 -30Q108 -29 103 -22T90 -11Q83 -9 77 -8T66 -5Q60 -2 55 4T44 17Q38 24 32 30T20 44Q11 61 5 82T1 129Q3 147 13 164T28 202Q32 219 32 235T36 268Q50 283 55 300T68 343Q70 352 74 362T78 380Q79 389 76 397T72 416Q72 427 78
442T89 471Q94 487 96 502T103 531Q105 538 108 543T114 555Q117 568 119 583T122 613T122 642T115 667Q111 673 101 683T86 698Q81 702 74 705T67 713Q66 719 70 722T79 726T90 727T100 726Q132 722 162 719T228 718Q236 719 248 720T272 723T296 726T315 726Q318
725 321 723T330 719Q349 712 374 709T425 713Q464 708 507 714T593 722Q604 723 615 721T638 717Q655 715 674 716T714 719Q731 721 749 721T783 725Q796 727 810 731T841 733ZM494 812Q475 807 464 810T445 821T431 838T418 855Q408 864 400 870T381 887Q376
891 370 895T358 905T349 915T348 927Q350 934 356 942T369 959T385 973T399 982Q413 988 426 980T447 963Q452 958 453 951T460 939Q468 928 473 924T487 909Q498 894 505 879T527 853Q525 842 514 832T494 812Z" />
<glyph unicode="&#xc9;" glyph-name="Eacute" horiz-adv-x="735" d="M841 733Q846 720 839 711T821 697Q798 684 771 676T721 653Q707 645 696 634T668 617Q651 612 631 611T588 608Q565 606 543 601T503 598Q495 599 486 601T469 605Q461 606 451 604T432 601Q426
600 419 601T404 601Q395 600 385 599T364 596T347 589T336 578Q331 549 323 524T305 474Q300 461 295 446T295 417Q338 410 379 415T460 417Q471 416 484 415T508 411Q516 409 524 402T542 392Q556 389 569 390T594 390Q603 385 608 376T623 360Q629 355 636 355T650
349Q650 334 645 326T632 314T613 311T589 312Q571 314 548 314T504 312Q491 312 479 311T457 312Q449 314 443 320T426 328Q417 330 406 327T383 321Q351 315 323 307T265 292Q245 252 233 196Q231 184 229 172T228 151T235 135T256 129Q269 129 284 131T315 135T347
137T380 134Q389 132 398 125T419 119Q427 120 434 127T450 138Q462 143 477 143T509 144T543 142T577 140Q605 140 637 138T693 128Q702 115 695 102T675 87Q663 70 649 63T611 48Q593 43 580 35T545 26Q516 26 487 26T429 22Q409 18 391 13T352 5Q302 -3 256
-14T156 -27Q145 -28 134 -30T116 -30Q108 -29 103 -22T90 -11Q83 -9 77 -8T66 -5Q60 -2 55 4T44 17Q38 24 32 30T20 44Q11 61 5 82T1 129Q3 147 13 164T28 202Q32 219 32 235T36 268Q50 283 55 300T68 343Q70 352 74 362T78 380Q79 389 76 397T72 416Q72 427 78
442T89 471Q94 487 96 502T103 531Q105 538 108 543T114 555Q117 568 119 583T122 613T122 642T115 667Q111 673 101 683T86 698Q81 702 74 705T67 713Q66 719 70 722T79 726T90 727T100 726Q132 722 162 719T228 718Q236 719 248 720T272 723T296 726T315 726Q318
725 321 723T330 719Q349 712 374 709T425 713Q464 708 507 714T593 722Q604 723 615 721T638 717Q655 715 674 716T714 719Q731 721 749 721T783 725Q796 727 810 731T841 733ZM430 792Q428 801 422 811T419 833Q439 844 454 859T489 889Q503 900 511 904T532
919Q540 924 545 931T558 943Q564 947 571 952T587 960T603 964T616 962Q625 957 633 939T638 907Q637 901 631 896T617 885T600 876T583 867Q567 856 556 850T529 835Q517 827 507 818T484 802T459 791T430 792Z" />
<glyph unicode="&#xca;" glyph-name="Ecircumflex" horiz-adv-x="735" d="M841 733Q846 720 839 711T821 697Q798 684 771 676T721 653Q707 645 696 634T668 617Q651 612 631 611T588 608Q565 606 543 601T503 598Q495 599 486 601T469 605Q461 606 451 604T432
601Q426 600 419 601T404 601Q395 600 385 599T364 596T347 589T336 578Q331 549 323 524T305 474Q300 461 295 446T295 417Q338 410 379 415T460 417Q471 416 484 415T508 411Q516 409 524 402T542 392Q556 389 569 390T594 390Q603 385 608 376T623 360Q629 355
636 355T650 349Q650 334 645 326T632 314T613 311T589 312Q571 314 548 314T504 312Q491 312 479 311T457 312Q449 314 443 320T426 328Q417 330 406 327T383 321Q351 315 323 307T265 292Q245 252 233 196Q231 184 229 172T228 151T235 135T256 129Q269 129 284
131T315 135T347 137T380 134Q389 132 398 125T419 119Q427 120 434 127T450 138Q462 143 477 143T509 144T543 142T577 140Q605 140 637 138T693 128Q702 115 695 102T675 87Q663 70 649 63T611 48Q593 43 580 35T545 26Q516 26 487 26T429 22Q409 18 391 13T352
5Q302 -3 256 -14T156 -27Q145 -28 134 -30T116 -30Q108 -29 103 -22T90 -11Q83 -9 77 -8T66 -5Q60 -2 55 4T44 17Q38 24 32 30T20 44Q11 61 5 82T1 129Q3 147 13 164T28 202Q32 219 32 235T36 268Q50 283 55 300T68 343Q70 352 74 362T78 380Q79 389 76 397T72
416Q72 427 78 442T89 471Q94 487 96 502T103 531Q105 538 108 543T114 555Q117 568 119 583T122 613T122 642T115 667Q111 673 101 683T86 698Q81 702 74 705T67 713Q66 719 70 722T79 726T90 727T100 726Q132 722 162 719T228 718Q236 719 248 720T272 723T296
726T315 726Q318 725 321 723T330 719Q349 712 374 709T425 713Q464 708 507 714T593 722Q604 723 615 721T638 717Q655 715 674 716T714 719Q731 721 749 721T783 725Q796 727 810 731T841 733ZM548 966Q553 955 558 944T571 923Q576 915 582 908T592 890Q593
887 592 884T592 876Q594 874 597 872T603 867Q605 859 606 856T610 850Q613 842 615 833T619 815Q610 808 596 809T578 816Q576 818 575 821T571 826L561 836Q559 839 558 842T555 847Q553 849 548 850T541 854Q535 863 533 864T529 868Q527 871 527 874T524 881Q519
889 518 889T512 898Q505 896 501 895T494 891T488 886T479 880Q477 878 474 877T468 874Q461 870 456 865T446 854Q439 849 433 846T420 837Q408 828 399 826T379 816Q375 812 361 810T337 807Q331 807 325 809T318 815Q317 818 322 821T330 826Q341 834 350 842T370
859Q375 868 378 871T387 878Q391 880 397 883T407 889Q409 891 410 894T415 900Q428 912 449 924T486 948Q493 953 502 960T522 969Q530 970 536 969T548 966Z" />
<glyph unicode="&#xcb;" glyph-name="Edieresis" horiz-adv-x="735" d="M841 733Q846 720 839 711T821 697Q798 684 771 676T721 653Q707 645 696 634T668 617Q651 612 631 611T588 608Q565 606 543 601T503 598Q495 599 486 601T469 605Q461 606 451 604T432
601Q426 600 419 601T404 601Q395 600 385 599T364 596T347 589T336 578Q331 549 323 524T305 474Q300 461 295 446T295 417Q338 410 379 415T460 417Q471 416 484 415T508 411Q516 409 524 402T542 392Q556 389 569 390T594 390Q603 385 608 376T623 360Q629 355
636 355T650 349Q650 334 645 326T632 314T613 311T589 312Q571 314 548 314T504 312Q491 312 479 311T457 312Q449 314 443 320T426 328Q417 330 406 327T383 321Q351 315 323 307T265 292Q245 252 233 196Q231 184 229 172T228 151T235 135T256 129Q269 129 284
131T315 135T347 137T380 134Q389 132 398 125T419 119Q427 120 434 127T450 138Q462 143 477 143T509 144T543 142T577 140Q605 140 637 138T693 128Q702 115 695 102T675 87Q663 70 649 63T611 48Q593 43 580 35T545 26Q516 26 487 26T429 22Q409 18 391 13T352
5Q302 -3 256 -14T156 -27Q145 -28 134 -30T116 -30Q108 -29 103 -22T90 -11Q83 -9 77 -8T66 -5Q60 -2 55 4T44 17Q38 24 32 30T20 44Q11 61 5 82T1 129Q3 147 13 164T28 202Q32 219 32 235T36 268Q50 283 55 300T68 343Q70 352 74 362T78 380Q79 389 76 397T72
416Q72 427 78 442T89 471Q94 487 96 502T103 531Q105 538 108 543T114 555Q117 568 119 583T122 613T122 642T115 667Q111 673 101 683T86 698Q81 702 74 705T67 713Q66 719 70 722T79 726T90 727T100 726Q132 722 162 719T228 718Q236 719 248 720T272 723T296
726T315 726Q318 725 321 723T330 719Q349 712 374 709T425 713Q464 708 507 714T593 722Q604 723 615 721T638 717Q655 715 674 716T714 719Q731 721 749 721T783 725Q796 727 810 731T841 733ZM302 886Q313 899 325 910T357 923Q365 923 374 920T392 910T407
896T414 879Q416 862 411 847T395 820T370 804T342 804Q337 806 330 812T317 825T305 841T299 855Q298 863 300 869T302 886ZM529 823Q515 849 523 876T555 916Q569 923 586 921T613 911Q622 905 630 890T637 862Q637 857 635 851T629 838Q626 832 624 826T617
816Q612 811 597 805T567 800Q556 802 548 810T529 823Z" />
<glyph unicode="&#xcc;" glyph-name="Igrave" horiz-adv-x="410" d="M311 -4Q289 2 265 1T218 2Q207 4 196 8T172 14Q124 23 89 18T15 1Q7 -2 -1 -5T-19 -12T-37 -15T-56 -11Q-53 2 -45 11T-26 28T-6 47T8 71Q11 82 10 92T11 115Q13 133 19 155T33 198Q40 219
46 239T58 278Q62 288 71 297T83 322Q84 330 82 337T80 350Q81 357 85 363T91 376Q93 381 94 387T97 398Q102 416 107 438T117 480Q122 497 130 511T142 540Q142 547 138 549T131 559Q136 570 135 588T135 622Q137 640 139 653T135 682Q130 693 122 702T117 727Q129
730 140 731T166 732Q173 731 179 728T193 723Q216 720 238 722T282 725Q303 725 313 724T341 725Q364 727 386 734T429 745Q439 747 453 745T476 735Q478 720 469 716T451 708Q435 700 426 689T406 664Q399 655 394 649T383 632Q381 627 381 620T377 606Q369 584
356 562T337 521Q335 511 335 502T332 483Q328 470 321 455T308 423Q300 403 291 379T274 331Q270 316 268 301T262 269Q260 254 259 237T253 207Q249 197 240 190T225 172Q227 168 230 166T233 158Q230 152 227 145T225 129Q227 119 234 111T244 94Q246 88 245
83T246 73Q249 62 257 52T274 37Q286 29 299 25T319 7L311 -4ZM340 812Q321 807 310 810T291 821T277 838T264 855Q254 864 246 870T227 887Q222 891 216 895T204 905T195 915T194 927Q196 934 202 942T215 959T231 973T245 982Q259 988 272 980T293 963Q298 958
299 951T306 939Q314 928 319 924T333 909Q344 894 351 879T373 853Q371 842 360 832T340 812Z" />
<glyph unicode="&#xcd;" glyph-name="Iacute" horiz-adv-x="410" d="M311 -4Q289 2 265 1T218 2Q207 4 196 8T172 14Q124 23 89 18T15 1Q7 -2 -1 -5T-19 -12T-37 -15T-56 -11Q-53 2 -45 11T-26 28T-6 47T8 71Q11 82 10 92T11 115Q13 133 19 155T33 198Q40 219
46 239T58 278Q62 288 71 297T83 322Q84 330 82 337T80 350Q81 357 85 363T91 376Q93 381 94 387T97 398Q102 416 107 438T117 480Q122 497 130 511T142 540Q142 547 138 549T131 559Q136 570 135 588T135 622Q137 640 139 653T135 682Q130 693 122 702T117 727Q129
730 140 731T166 732Q173 731 179 728T193 723Q216 720 238 722T282 725Q303 725 313 724T341 725Q364 727 386 734T429 745Q439 747 453 745T476 735Q478 720 469 716T451 708Q435 700 426 689T406 664Q399 655 394 649T383 632Q381 627 381 620T377 606Q369 584
356 562T337 521Q335 511 335 502T332 483Q328 470 321 455T308 423Q300 403 291 379T274 331Q270 316 268 301T262 269Q260 254 259 237T253 207Q249 197 240 190T225 172Q227 168 230 166T233 158Q230 152 227 145T225 129Q227 119 234 111T244 94Q246 88 245
83T246 73Q249 62 257 52T274 37Q286 29 299 25T319 7L311 -4ZM267 812Q265 821 259 831T256 853Q276 864 291 879T326 909Q340 920 348 924T369 939Q377 944 382 951T395 963Q401 967 408 972T424 980T440 984T453 982Q462 977 470 959T475 927Q474 921 468 916T454
905T437 896T420 887Q404 876 393 870T366 855Q354 847 344 838T321 822T296 811T267 812Z" />
</font>
</defs>
</svg>
