<?xml version="1.0" standalone="no"?>
<!DOCTYPE svg PUBLIC "-//W3C//DTD SVG 1.1//EN" "http://www.w3.org/Graphics/SVG/1.1/DTD/svg11.dtd">
<svg xmlns="http://www.w3.org/2000/svg">
<defs >
<font id="SortsMillGoudy" horiz-adv-x="536" ><font-face
    font-family="Sorts Mill Goudy"
    units-per-em="1000"
    panose-1="2 0 5 3 0 0 0 0 0 0"
    ascent="960"
    descent="-478"
    alphabetic="0" />
<glyph unicode=" " glyph-name="space" horiz-adv-x="213" />
<glyph unicode="!" glyph-name="exclam" horiz-adv-x="276" d="M80 40T74 47T68 62T84 84T110 109Q128 133 142 133Q148 133 156 125T170 110T187 94T204 81Q218 71 218 63T212 47T194 33T180 22T169 8T156 -7T143 -13T123 -2T104 17T89 32ZM98 651Q98 689 147
689Q171 689 182 682T193 657Q193 652 191 640T187 606T176 457T153 210Q151 199 139 199T127 208Q112 384 110 423Q108 490 103 561T98 651Z" />
<glyph unicode="&quot;" glyph-name="quotedbl" horiz-adv-x="459" d="M273 619T262 628T251 646T278 682Q280 684 288 694Q303 713 314 713T339 703T370 666T386 599T372 523T338 468Q298 427 277 427Q272 427 268 431T264 440T273 452T292 468T311 496T320 541T309
586T286 612ZM78 619T67 628T56 646T83 682Q85 684 94 694Q108 713 123 713Q132 713 146 701T169 676Q190 648 190 604T176 523T143 468Q104 427 82 427Q77 427 73 431T69 440T77 452T97 468T116 496T125 541T114 586T91 612Z" />
<glyph unicode="#" glyph-name="numbersign" horiz-adv-x="533" d="M128 -53L151 114Q151 121 143 121H73Q59 121 59 139V142Q59 154 61 158T73 163H155Q158 163 158 165L177 300Q177 305 170 305H75Q66 305 63 308T59 329T75 347H177Q186 347 186 354Q200 454
205 497T214 545T235 550T254 538L228 352Q228 347 234 347H332Q340 347 341 354Q367 542 370 546T390 550T408 540L383 352Q383 347 388 347H457Q475 347 475 326T460 305H379Q376 305 374 299Q356 170 356 167T363 163H458Q469 163 472 158T475 143Q475 121 458
121H360Q351 121 349 111Q344 76 336 17T324 -54T302 -66T284 -53L307 115Q307 121 300 121H234Q199 121 197 119T193 113Q171 -53 168 -59T146 -66T128 -53ZM219 298Q201 169 201 166T209 163H304Q313 163 314 170Q318 204 323 235T330 278Q332 295 332 300T326
305H228Q221 305 219 298Z" />
<glyph unicode="$" glyph-name="dollar" horiz-adv-x="533" d="M249 -129L252 -31Q252 -12 246 -12Q199 -12 148 10T75 60Q64 73 64 87T66 116Q71 166 87 166Q97 166 102 160T118 131T134 98Q150 69 183 48T244 27Q254 27 254 42L257 324Q257 338 210 353T125
405T87 513T136 634T252 693Q259 694 262 698T265 716L264 743Q264 766 286 766Q301 766 304 762T308 747V726L307 703Q307 694 312 694Q396 684 438 636Q457 616 457 604T447 568T427 543T414 554Q397 591 368 621T312 652Q303 652 303 633Q303 549 301 503T298
439T300 416T311 409Q401 384 444 336T488 208Q488 158 472 118T427 54Q373 8 306 -9Q294 -12 293 -16T292 -26V-108Q292 -135 288 -142T270 -150Q249 -150 249 -129ZM262 445L263 641Q263 653 252 653Q225 653 186 623T146 539Q146 455 251 428H253Q262 428 262
445ZM297 306L293 40Q293 27 299 27T316 29T347 41T385 66T415 113T428 180T416 241T386 280T349 304Q316 320 304 320Q297 320 297 306Z" />
<glyph unicode="%" glyph-name="percent" horiz-adv-x="771" d="M362 494T361 494T361 487T362 448Q362 374 310 297T169 220Q134 220 97 252T59 344Q59 425 116 501T258 577Q290 577 314 560T361 525T405 508T450 516T491 535T534 564Q563 587 600 620L619 638Q627
646 636 646T646 638T638 616Q348 183 203 -47Q177 -87 172 -89T158 -91T140 -83T129 -65T147 -29T169 3L334 240Q387 317 440 390Q536 520 536 524T534 528T512 517Q457 484 410 484Q392 484 377 489ZM194 548T163 492T131 372T147 278T191 247Q239 247 268 313T297
456Q297 496 284 522T250 548Q194 548 163 492ZM386 64Q386 149 441 221T584 293Q638 293 665 259T692 170Q692 83 637 3T507 -78Q448 -78 417 -38T386 64ZM520 262T489 204T457 82T473 -14T517 -46Q562 -46 594 22T626 165Q626 205 612 233T576 262Q520 262 489
204Z" />
<glyph unicode="&amp;" glyph-name="ampersand" horiz-adv-x="947" d="M893 25L929 28Q942 28 942 19Q942 3 914 -8T846 -19T770 -9T709 16T665 46T635 71T620 82T606 72T575 46T529 14Q465 -22 358 -22Q287 -22 230 -2T140 46T83 124T59 242Q59 276 70 312T102
374T153 416T202 436T221 442T209 459T185 503T173 571Q173 637 231 670T361 704Q396 704 427 693T462 681L484 684Q500 684 500 661L504 593Q504 564 503 558T494 552T472 570T440 609T395 649T328 667T266 643T243 592T270 526T326 456T418 363T552 239T629 179T643
188Q657 207 657 253T647 322T628 350T607 362T583 370T567 373T562 383T566 393T587 395L736 393Q755 393 755 380Q755 369 736 364Q729 362 723 352T715 327T712 297Q706 234 696 208T678 167T670 149Q670 140 729 103T850 35Q870 25 893 25ZM192 128Q224 92
282 69T397 45T496 59T559 88T580 109Q580 113 554 132T468 203T370 292Q318 344 289 373T256 407T248 414T242 418Q239 421 234 421Q201 421 163 379T125 270T192 128Z" />
<glyph unicode="&apos;" glyph-name="quotesingle" horiz-adv-x="264" d="M78 619T67 628T56 646T83 682Q85 684 94 694Q108 713 123 713Q132 713 146 701T169 676Q190 648 190 604T176 523T143 468Q104 427 82 427Q77 427 73 431T69 440T77 452T97 468T116 496T125
541T114 586T91 612Z" />
<glyph unicode="(" glyph-name="parenleft" horiz-adv-x="326" d="M112 42T93 120T73 283T94 450T145 589T207 688T263 751T295 772Q316 772 316 751Q316 745 296 725T246 670T188 586T139 456T118 281T138 110T186 -19T244 -107T293 -167T313 -196T306 -209T291
-214T258 -190T202 -120T141 -16Z" />
<glyph unicode=")" glyph-name="parenright" horiz-adv-x="326" d="M10 -192Q10 -186 30 -166T80 -112T138 -28T187 102T208 277T188 448T140 577T82 665T33 725T13 754T20 767T35 772T68 748T124 678T185 574T233 438T253 275T232 108T181 -31T119 -130T63 -193T31
-214Q10 -214 10 -192Z" />
<glyph unicode="*" glyph-name="asterisk" horiz-adv-x="431" d="M184 306L187 378Q187 401 183 401T138 375T88 348T69 361T59 383Q59 396 113 420T167 447T113 476T59 513Q59 522 68 535T89 548T139 522T182 495T187 514L184 593Q184 606 189 610T214 614T240
608T247 578L243 513Q243 495 248 495T293 522T343 549T362 537T373 513T319 477T264 448T318 419T373 384T363 361T342 348T291 374T248 401T244 382L247 324Q247 295 242 289T210 282T184 306Z" />
<glyph unicode="+" glyph-name="plus" horiz-adv-x="527" d="M32 198Q31 201 31 210T32 224Q33 232 49 232H219Q241 232 241 251V427Q241 440 250 442Q253 442 262 442T275 442Q286 440 286 422V259Q286 232 303 232H480Q494 232 496 224Q496 220 496 209T493
193T475 188H303Q291 188 289 185T286 170V-5Q286 -16 281 -19T263 -22T246 -20T241 -4V170Q241 182 237 185T217 188H48Q33 188 32 198Z" />
<glyph unicode="," glyph-name="comma" horiz-adv-x="250" d="M58 42T56 44T54 53T57 64T63 72T74 82T84 92T93 103T102 114Q113 125 122 125T147 113T179 70T196 0Q196 -63 152 -114T80 -166Q65 -166 65 -153Q65 -143 96 -118Q108 -109 117 -91T127 -50T118 -13T102
9T76 29Z" />
<glyph unicode="-" glyph-name="hyphen" horiz-adv-x="340" d="M44 145V156Q44 185 53 193T108 214T195 242T250 262T274 268Q296 268 296 234V228Q296 205 286 197Q277 191 263 187Q204 171 160 155T104 134Q74 124 59 124T44 145Z" />
<glyph unicode="." glyph-name="period" horiz-adv-x="252" d="M54 43T54 55T85 94Q89 98 96 108T111 123T127 129T168 90Q171 87 180 80Q198 63 198 57T193 45T178 31Q178 31 163 19Q159 15 152 5Q136 -16 126 -16T102 1T85 21Q54 43 54 55Z" />
<glyph unicode="/" glyph-name="slash" horiz-adv-x="416" d="M20 -170Q20 -168 39 -113Q344 710 347 719T355 731T378 735T396 723Q396 715 382 679L78 -152Q70 -174 65 -178T40 -183T20 -170Z" />
<glyph unicode="0" glyph-name="zero" horiz-adv-x="529" d="M158 -15T99 52T39 216T106 370T265 427T423 371T490 206Q490 116 432 51T266 -15ZM191 376T143 333T95 208T148 83T270 39T388 87T437 211T384 332T261 376Z" />
<glyph unicode="1" glyph-name="one" horiz-adv-x="340" d="M164 1L48 -4Q20 -4 20 12Q20 28 65 31Q82 32 97 40T116 66Q125 120 125 169V249L126 300Q126 362 113 376T46 393Q28 393 28 408Q28 419 49 419Q51 419 78 416T155 413T233 415T271 418T287 413T293
403T290 394T282 389T271 388T259 386T243 384T228 381T217 375T207 360Q200 326 200 291L197 126V103Q197 77 201 61Q207 43 236 36T293 24T320 10T314 -2T292 -4L164 1Z" />
<glyph unicode="2" glyph-name="two" horiz-adv-x="468" d="M193 -1L56 -2Q29 -2 29 8Q29 14 34 18T57 29T89 45Q201 112 253 178T305 292T272 366T205 392Q146 392 146 346Q146 335 154 314T162 287Q162 277 143 277T102 288T79 312T87 342T112 378T165 411T254
424T345 396T383 321T344 222T249 126T193 72T266 64T381 77Q397 82 414 104T436 127Q448 127 448 116Q448 113 423 66T395 14Q380 -3 374 -4L193 -1Z" />
<glyph unicode="3" glyph-name="three" horiz-adv-x="404" d="M39 -136Q39 -104 57 -104Q61 -104 72 -117T106 -142T162 -155Q221 -155 261 -107T301 -7T260 76T153 108Q131 108 120 106T107 103Q94 103 94 114Q94 122 100 125T114 132Q131 140 166 165Q250 224
250 296Q250 327 223 351T161 376T106 360T79 344Q68 344 68 354Q68 371 108 397T195 424T282 403T322 331Q322 302 305 273T267 224T229 190T211 171Q211 170 222 168Q260 163 286 150Q358 114 358 37T287 -122T128 -204T40 -168V-148L39 -136Z" />
<glyph unicode="4" glyph-name="four" horiz-adv-x="504" d="M141 -2L38 -1Q18 -1 14 3T10 15T18 35T110 136T257 299T328 379T339 392T350 404Q365 417 371 417Q382 417 382 393L369 81Q369 67 390 67T426 70T445 78Q455 90 462 90Q475 90 475 77Q475 66 468
49T459 29T455 20T452 11T448 3Q442 -5 435 -5L380 -4Q371 -4 369 -8T366 -23L369 -129L370 -155Q370 -174 354 -179Q328 -186 310 -186T291 -172Q291 -168 292 -163T295 -148Q299 -110 299 -16Q299 0 290 0L141 -2ZM178 64L257 63Q284 63 293 64T302 73Q305 215
305 255T300 296T267 267T225 219T176 164Q103 84 103 76Q103 64 141 64H178Z" />
<glyph unicode="5" glyph-name="five" horiz-adv-x="342" d="M125 413L199 411Q214 411 226 411T247 411T259 412T267 413T273 415T276 417T279 421T283 426T290 435T298 444Q304 452 309 452Q322 452 322 441Q322 436 316 424T303 395T293 370T288 356T282 348Q277
344 267 344Q108 343 105 334Q90 299 90 289T114 272Q202 248 241 206Q254 192 269 159T284 84Q284 -1 238 -78Q163 -205 24 -205Q-3 -205 -33 -188Q-39 -184 -43 -161T-47 -127Q-47 -99 -35 -99Q-27 -99 -14 -114Q28 -162 83 -162T178 -98T219 43Q219 90 207 118T164
168T110 198T72 208Q39 211 39 229Q39 239 43 248Q67 298 94 389Q101 413 125 413Z" />
<glyph unicode="6" glyph-name="six" horiz-adv-x="497" d="M44 255Q44 369 108 472T264 638Q301 664 344 679T407 694T426 681T416 667Q372 661 341 645T267 593T192 501T148 414T137 377T139 371T155 384T198 411T264 425Q351 425 402 366T453 210T400 47T260
-20T103 53Q44 115 44 255ZM133 339T129 319T125 246T139 142T177 64Q221 12 267 12T351 53T388 169Q388 227 351 299Q333 334 299 358T227 382T145 351Q138 345 136 342Z" />
<glyph unicode="7" glyph-name="seven" horiz-adv-x="501" d="M97 -188L45 -186Q23 -186 23 -175Q23 -160 209 82T396 335T335 346H257Q131 346 98 323Q80 311 76 293Q74 284 64 284T53 295T61 344T70 398Q71 412 114 412Q114 412 309 408Q422 408 439 413T462
421T471 424Q482 424 482 414T449 354L182 -40Q129 -118 113 -170Q109 -184 106 -186T97 -188Z" />
<glyph unicode="8" glyph-name="eight" horiz-adv-x="500" d="M89 29T64 75T39 170T52 250T85 298T124 326T157 342T171 350T154 364T115 392T77 440T59 510Q59 587 110 637T244 687T374 642T421 524Q421 458 388 422Q367 398 347 386T327 371Q327 367 348 354T394
324T440 270T461 188Q461 106 409 42T256 -22Q177 -22 133 3ZM83 180Q83 105 130 57T251 9T361 53T398 156T329 273T227 332Q202 332 175 320T129 292T97 247T83 180ZM198 656T158 623T117 536T184 437T280 392T346 429T384 527Q384 567 348 611T255 656Z" />
<glyph unicode="9" glyph-name="nine" horiz-adv-x="486" d="M136 -11T88 47T39 190T95 349T245 422T393 351T447 180T402 -11T268 -163Q208 -205 114 -205Q95 -205 95 -188Q95 -174 121 -174Q181 -174 252 -114Q290 -82 316 -38T342 25Q342 27 341 27T328 18T290
-1T227 -11Q136 -11 88 47ZM176 386T143 348T109 237T154 100T263 34Q299 34 332 56Q374 83 374 174T327 325T220 386Q176 386 143 348Z" />
<glyph unicode=":" glyph-name="colon" horiz-adv-x="260" d="M89 21Q59 42 59 52T94 94Q97 97 106 107Q122 127 136 127Q140 127 145 121T154 112T163 101T171 91T184 80Q202 63 202 57T197 45T182 31L167 19Q163 15 156 5Q141 -16 132 -16T116 -9T102 7T89 21ZM96
373Q100 377 106 386T119 400T134 406T170 369Q172 366 180 360Q196 345 196 338T193 327T186 319L176 310Q164 300 157 290T143 274T130 268T117 274T105 290T96 303T86 312T76 322Q66 331 66 339T96 373Z" />
<glyph unicode=";" glyph-name="semicolon" horiz-adv-x="262" d="M90 379Q94 383 100 392Q114 413 128 413Q136 413 165 375Q168 372 176 366Q193 350 193 343T190 332T184 324L173 315Q166 309 163 306T152 294T139 279T125 273T112 279T99 296T90 309T80 318T69
328Q59 336 59 344T90 379ZM79 33Q62 51 62 55T65 65T79 80T93 93T103 106Q116 125 134 125Q141 125 156 111T180 82Q204 47 204 -8T158 -115T85 -168Q82 -168 78 -164T73 -153T88 -134Q134 -95 134 -48Q134 -22 121 -6T79 33Z" />
<glyph unicode="&lt;" glyph-name="less" horiz-adv-x="527" d="M45 192T43 196T41 208T42 220Q43 225 56 231Q395 354 430 367T468 381Q487 381 487 356Q487 344 471 340L166 229Q124 214 124 208Q124 205 166 190L476 78Q487 74 487 66T481 49T463 41Q460 41
55 188Q45 192 43 196Z" />
<glyph unicode="=" glyph-name="equal" horiz-adv-x="527" d="M32 100Q31 103 31 112T32 126Q33 135 49 135H480Q494 135 496 126Q496 123 496 111T493 95T475 90H48Q33 90 32 100ZM32 296Q31 299 31 308T32 322Q33 330 49 330H480Q494 330 496 322Q496 318 496
307T493 291T475 286H48Q33 286 32 296Z" />
<glyph unicode="&gt;" glyph-name="greater" horiz-adv-x="527" d="M52 41T47 49T41 66T51 78L362 190Q404 205 404 208Q404 214 362 229L56 340Q41 344 41 356Q41 381 59 381Q62 381 161 344T471 231Q487 225 487 213T485 196T472 188Q67 41 64 41Q52 41 47 49Z" />
<glyph unicode="?" glyph-name="question" horiz-adv-x="350" d="M173 251L178 205Q178 195 170 195Q155 195 147 223T138 280T184 414T230 552T198 607T144 628T103 616T84 603Q75 603 75 612Q75 629 107 651T186 673T273 643T313 559Q313 526 291 484T243 408T195
330T173 251ZM127 27T112 39T97 60T133 100Q137 103 145 112Q161 132 169 132Q180 132 200 107L207 97L217 89Q241 70 241 62T236 48T220 36T207 26T196 12T182 -3T170 -9T152 2T133 20Z" />
<glyph unicode="@" glyph-name="at" horiz-adv-x="821" d="M44 286Q44 382 76 458T156 577T264 650Q364 697 463 697Q602 697 689 609T777 392Q777 283 709 206T549 129Q517 129 498 141T475 169T469 196T465 209T450 194T418 160T371 127T302 111T240 137T217
214T248 330T335 441T448 488Q467 488 492 484T520 479Q527 479 539 499T562 519Q570 519 570 508T558 448Q521 298 521 246V233Q521 174 562 174Q638 174 687 231T736 404T658 589T464 659Q313 659 209 559T104 297Q104 155 192 64T423 -27Q486 -27 537 -11T614
22T641 38Q652 38 652 26Q652 12 608 -14Q519 -64 405 -64Q245 -64 145 29T44 286ZM284 227Q284 197 301 182T346 167T401 184T439 217T476 333T502 437T480 449T440 456Q391 456 338 392T284 227Z" />
<glyph unicode="A" glyph-name="A" horiz-adv-x="812" d="M135 0L49 -4Q20 -4 20 8Q20 22 35 27Q67 39 91 80T211 331T383 701Q390 716 395 720T411 724T425 720T436 693T448 658T463 619T495 538T595 302T686 95T719 53T755 34T781 29T792 13Q792 -2 765 -2L675
4L582 0Q551 0 543 2T534 13T542 25T559 31T576 40T584 65T559 151T517 251Q508 268 476 268L355 266H302Q257 266 246 261T227 240T205 196T186 156T174 128Q161 98 161 78T172 46T198 32Q235 29 235 13Q235 6 232 3T218 -1L135 0ZM367 570T319 460T271 337T280
322T322 319H353L448 320Q487 320 487 334T438 459T376 570Q367 570 319 460Z" />
<glyph unicode="B" glyph-name="B" horiz-adv-x="630" d="M54 28L77 29Q98 29 112 64Q121 87 123 137T125 434V604Q125 620 115 640Q95 682 37 682Q20 682 20 694Q20 709 29 709L69 708L215 709L325 712Q416 712 477 669T538 545Q538 459 448 404Q438 397 438
396Q438 393 455 389T496 374T543 345T584 292T601 211T576 116T512 40T435 3T350 -8T237 -3T164 3L78 -1H64Q43 -1 43 13T54 28ZM202 136L201 92Q201 32 299 32H322Q376 32 415 38T485 86T516 180T498 268T457 322T402 350Q358 364 320 364L242 365L227 366Q218
366 214 364T206 344Q202 323 202 204V136ZM207 545Q207 419 214 405Q218 398 271 398H335Q398 398 429 431T461 518T409 624T259 677Q228 677 218 659T207 574V545Z" />
<glyph unicode="C" glyph-name="C" horiz-adv-x="807" d="M44 433T86 520T215 660T423 714Q484 714 546 696T645 660L682 641Q685 641 692 646T703 651T713 647T718 625T722 574T729 520T732 495Q732 477 720 477Q711 477 703 491Q606 673 423 673Q298 673 218
593T138 384Q138 240 212 138Q250 86 316 56T470 26Q614 26 712 176Q716 183 727 183Q736 183 736 171T733 140T724 99T718 71Q716 60 702 53Q648 27 618 14Q538 -20 448 -20T287 1T173 56T98 136Q44 217 44 325Z" />
<glyph unicode="D" glyph-name="D" horiz-adv-x="792" d="M114 369L113 623Q113 640 97 657T63 676T40 678T27 684T20 699T28 710T71 712H158L353 716Q498 716 618 634Q676 595 712 532T748 394T739 269T707 180T663 119T607 67T516 18T399 -3L159 2Q124 2 94
0T59 -3Q35 -3 35 10Q35 18 38 21T53 28T70 33Q86 40 99 59T113 98Q113 98 114 369ZM198 354L197 141Q197 94 207 74Q212 65 226 61T258 52T299 41T361 34H381Q449 34 497 53T589 115Q663 186 663 345Q663 425 632 490T549 594Q444 673 320 673H280Q232 673 216
656Q208 648 207 642T203 619T200 588V546L198 354Z" />
<glyph unicode="E" glyph-name="E" horiz-adv-x="604" d="M116 355L119 528Q119 555 117 619Q116 648 92 664T36 681Q20 681 20 699Q20 713 48 713L75 711L319 706L519 710Q538 710 538 687Q538 681 532 648T526 595Q526 563 511 563T495 587T478 633T436 656Q346
663 298 663H272Q220 663 212 656Q197 643 197 435Q197 385 216 384H314Q374 384 394 388Q446 398 453 440Q456 457 466 457T478 454T480 441L472 336L475 275Q475 250 468 250Q453 250 446 274Q432 316 421 323Q400 337 348 337H276L244 338H237Q196 338 196 319L194
175V135Q194 63 218 56T261 48Q411 48 478 72Q537 94 550 118Q562 143 572 143Q584 143 584 126Q584 83 541 39T466 -5Q394 -5 304 0T191 5L55 -4Q34 -4 34 6V18Q34 24 44 26Q55 27 78 38T108 84T116 231V355Z" />
<glyph unicode="F" glyph-name="F" horiz-adv-x="554" d="M20 697Q20 704 28 709T46 714H73Q97 714 150 711T290 708L517 713Q534 713 534 689Q534 676 528 642T520 588T505 567T491 587Q491 653 445 656Q294 668 257 668T210 657T198 612V604Q195 550 195 437Q195
388 213 387L238 386L281 387H312Q372 387 391 390T423 402T441 419T448 438T453 454T465 459T476 456T478 445T474 408T469 360L476 278Q476 262 473 258T462 253Q445 253 441 278Q441 300 436 309Q426 323 416 327T369 336T322 340H235Q194 340 194 321L192 177L191
137Q191 117 195 97T218 55T269 33T301 15Q301 6 292 1T270 -4L173 4L52 -2Q32 -2 32 9Q32 22 36 25T75 40Q101 49 107 94Q114 145 114 357L117 531V589Q117 655 70 677Q56 683 38 683T20 697Z" />
<glyph unicode="G" glyph-name="G" horiz-adv-x="818" d="M678 365L758 366H773Q789 366 789 357Q789 350 764 339T735 311Q728 268 728 219T729 146T730 114T732 97T733 86T726 80T701 73T670 60T649 47T631 37T607 25T580 13T549 1T516 -8Q478 -17 444 -17Q335
-17 255 12T130 92Q44 191 44 329Q44 438 87 525T221 665T435 719Q554 719 641 674Q661 663 671 656T684 648T697 655T712 663Q727 663 727 639T731 582T738 529T741 504Q741 487 729 487T712 499Q677 575 595 627T426 680Q301 680 220 602T138 384Q138 292 172
211T275 77T428 24T574 59T644 139Q647 163 647 265Q647 304 633 318T587 336T553 346T549 359Q549 370 567 370L678 365Z" />
<glyph unicode="H" glyph-name="H" horiz-adv-x="791" d="M121 402L122 510Q122 586 116 629Q113 654 90 668T49 682T26 688T20 699Q20 710 48 710L161 706L249 708Q271 708 271 694Q271 677 236 677Q216 677 207 636T198 552V515L196 423Q196 398 202 391T230
384L394 385Q394 385 583 383Q594 383 594 522V576Q594 651 564 668Q552 675 540 677T519 682T510 696T549 706L646 704L724 706Q747 706 747 693T733 680Q705 680 691 663T676 618L671 225V188L675 96Q675 31 759 22Q771 22 771 11Q771 4 761 2T722 0L645 5L551
0H534Q520 0 518 4T515 13T525 24T547 32T570 44Q591 59 591 138L594 315Q594 330 582 336T543 342T462 340L408 339L224 342Q209 342 204 336T199 305L195 182V139Q195 96 203 75T242 34Q250 29 271 29Q304 29 304 18Q304 0 272 0L189 4L81 -1Q34 -1 34 14Q34
28 65 32Q77 33 90 44T107 75T116 181T121 345V402Z" />
<glyph unicode="I" glyph-name="I" horiz-adv-x="328" d="M119 402L120 510V556Q120 600 117 626T90 666T43 680T20 695T48 710L161 706L249 708Q276 708 276 694Q276 686 230 667Q198 654 198 552L195 182Q195 98 218 64T268 30L288 29Q295 29 302 26T309 14Q309
0 284 0L189 4L79 -1Q34 -1 34 14Q34 28 65 32Q77 33 90 44T106 70T114 191T119 345V402Z" />
<glyph unicode="J" glyph-name="J" horiz-adv-x="290" d="M203 146L202 69Q202 -45 141 -118T-5 -192Q-45 -192 -45 -154Q-45 -139 -34 -119T-15 -99T7 -116T44 -133Q99 -133 113 -55Q126 13 126 45V163L125 189Q125 209 125 224T124 256Q122 307 122 450T119
623T92 665T44 678T20 696T49 713Q59 713 94 710T162 707Q162 707 243 708Q271 708 271 695Q271 686 225 667Q204 659 204 599V553L203 146Z" />
<glyph unicode="K" glyph-name="K" horiz-adv-x="724" d="M119 402L117 510V556Q117 607 114 630T89 666T43 680T20 694T48 708L161 706L247 708Q264 708 264 695Q264 689 250 683T229 674Q198 656 198 552L195 396Q195 375 203 375T284 434T429 563T501 655Q501
667 491 671T476 677T462 680T451 683Q440 685 440 696T456 708L481 707L541 705L665 708Q685 708 685 695Q685 688 679 685T656 676T631 668T578 636Q569 630 480 555T291 396L280 382Q280 377 309 348T445 213T593 73T667 33T704 20Q705 18 705 12T697 3T647
1H550Q534 1 526 10T510 28Q473 71 453 91Q241 306 230 315Q219 324 211 324Q197 324 197 297V294L198 271V220Q198 89 215 60T280 30L288 29Q295 29 302 26T309 14Q309 0 284 0L189 4L79 -1Q43 -1 43 10V14Q43 21 52 24Q89 33 100 44T115 106T119 268V402Z" />
<glyph unicode="L" glyph-name="L" horiz-adv-x="603" d="M115 355L118 528Q118 555 116 619Q115 648 91 664T46 680T23 684T20 695Q20 713 47 713L74 711L161 707L266 711Q283 711 283 701Q283 687 271 683T245 677T217 655T201 594T196 375T193 175V135Q193
63 217 56T260 48Q410 48 476 72Q536 94 548 118Q561 143 571 143Q583 143 583 126Q583 83 540 39T465 -5Q393 -5 303 0T190 5L65 -3Q36 -3 36 9Q36 16 41 20T57 25T83 37T107 86T115 231V355Z" />
<glyph unicode="M" glyph-name="M" horiz-adv-x="919" d="M63 -2Q42 -2 42 14Q42 27 72 28Q83 29 97 44T117 86T130 264T137 502T118 627T33 680Q20 683 20 695Q20 710 38 710L91 706L166 708Q185 708 190 694Q202 668 233 601T282 493T330 391T377 291T414 213T444
156T458 137T464 140T471 150T477 162T484 177T491 192L620 458Q673 566 691 609L714 659Q717 667 718 671T721 678T723 683T726 692T732 702Q740 710 761 710L847 708Q864 708 864 695Q864 685 858 681T829 673T796 648T786 528T792 320T798 182Q798 82 814 55T881
27Q888 27 893 22T899 13Q899 -3 888 -3H877L775 1Q775 1 671 -4Q653 -4 653 10Q653 25 680 28Q690 29 701 40T717 73T722 133T721 216T717 303T713 383T710 445L708 469Q708 512 699 512Q696 512 694 509T689 504T685 498T681 490T676 482T671 472L666 461Q662
454 660 449L521 168Q497 119 475 72T448 19T437 12T423 20T405 58T384 106Q201 478 197 483T190 489Q182 489 182 449L173 185V140Q173 58 206 39Q223 29 239 28Q264 25 264 15T261 1T249 -3L145 1L63 -2Z" />
<glyph unicode="N" glyph-name="N" horiz-adv-x="798" d="M144 -2L59 -4Q37 -4 37 12Q37 21 50 23T82 39T109 81T126 274T135 511T111 627T33 676Q20 677 20 691Q20 697 27 702T45 708L83 707L132 709Q141 709 153 704T167 694T178 679T202 651T229 618Q365 441
593 191Q599 184 607 175T619 162T627 153Q634 146 638 146Q648 146 648 208V325L646 530V537Q646 629 614 654Q602 663 594 665T571 671Q530 679 530 693T549 708L644 707Q644 707 734 709Q751 709 757 706T764 695T758 684Q750 679 729 672Q696 654 696 559V521L685
26V6Q685 -17 671 -17Q662 -17 655 -10Q323 375 259 447T187 520Q177 520 177 439T173 248T169 128Q169 83 184 60T218 33T251 27T267 13T264 -1T251 -4L144 -2Z" />
<glyph unicode="O" glyph-name="O" horiz-adv-x="853" d="M44 339Q44 507 145 614T431 722Q517 722 586 697T695 636T762 552Q809 470 809 392Q809 256 756 162Q655 -16 417 -16Q298 -16 212 36T85 167T44 339ZM132 390Q132 301 179 208Q204 158 239 119T329 54T449
28Q523 28 595 71Q675 118 708 202Q727 247 727 300Q727 481 632 581T397 682Q287 682 210 608T132 390Z" />
<glyph unicode="P" glyph-name="P" horiz-adv-x="564" d="M114 431L113 601Q113 628 96 654T40 681Q20 681 20 694Q20 710 43 710L80 711L140 708L305 711Q399 711 467 664T535 527Q535 478 517 440T474 379T416 342Q365 319 325 319T252 326T219 342Q219 357
232 357Q237 357 252 353T287 349T332 355T386 376T432 420T450 489Q450 556 396 613T247 671Q216 671 205 653T194 569L192 156Q192 40 260 32Q277 30 288 30Q316 32 316 10Q316 -7 293 -7L150 -2L57 -6Q26 -6 26 5Q26 22 37 26Q42 28 44 29T53 31T63 34T70 35T75
36T80 39T86 46T91 58T100 81T110 228T114 431Z" />
<glyph unicode="Q" glyph-name="Q" horiz-adv-x="839" d="M174 78Q45 171 45 340T139 616T432 722Q515 722 581 695T686 629T751 538Q795 453 795 375T771 225T697 96T578 19T510 -3Q510 -14 529 -22Q542 -28 596 -52T663 -81T700 -95T738 -108T773 -118Q807 -127
836 -127T882 -119T908 -102T925 -94T935 -98T939 -106Q939 -141 885 -167T767 -194T588 -143T373 -41T242 10Q196 10 174 -22T152 -96V-114Q152 -140 134 -140Q124 -140 117 -127T110 -98Q110 -54 130 -15T173 40T196 59Q196 63 174 78ZM288 682T212 608T136 394T210
152Q249 97 321 63T456 28T592 66Q634 88 675 152T717 300Q717 461 624 571T398 682Q288 682 212 608Z" />
<glyph unicode="R" glyph-name="R" horiz-adv-x="718" d="M118 428L117 597Q117 634 102 653T69 675T35 682T20 696Q20 712 49 712H215L315 715Q405 715 469 670T533 547Q533 496 514 458T471 402T428 373T408 356Q408 344 492 227T607 76Q645 29 699 29Q713 29
713 17Q713 2 701 -3T641 -8T553 15Q499 46 374 255Q326 333 300 333H218Q206 333 204 323T201 264Q201 264 201 183L202 130Q202 130 202 121Q202 80 221 58T263 32T306 24T325 9Q325 -7 307 -7Q307 -7 164 0L54 -4Q33 -4 33 12Q33 29 75 34Q91 36 104 56T117
113L118 428ZM201 536Q201 433 202 409T209 380Q224 371 252 371H291Q376 371 412 410T449 510T401 623T254 674Q217 674 209 655T201 564V536Z" />
<glyph unicode="S" glyph-name="S" horiz-adv-x="596" d="M455 689L478 697Q491 697 493 689Q514 568 514 547T500 525Q491 525 483 546T463 586T446 609T420 633Q366 681 297 681T185 651T143 573T167 496T233 451T319 421Q440 383 498 322Q538 279 538 215Q538
110 471 49T305 -13Q236 -13 194 -6T108 25Q95 33 77 103T59 190T72 208T89 198Q126 109 176 72Q230 31 306 31T428 70T474 174Q474 221 443 252T372 298Q223 348 170 379Q79 433 79 524T143 668T311 722Q349 722 401 706T455 689Z" />
<glyph unicode="T" glyph-name="T" horiz-adv-x="703" d="M77 718T145 714T415 710T658 716Q669 716 673 710T677 699L683 618Q683 593 680 587T667 580Q659 580 654 600T642 632Q627 658 555 658H425Q401 658 396 649T390 594V545L387 179L386 114Q386 71 399
58T429 39T456 31Q484 29 484 13Q484 2 479 -1T460 -4L349 4L247 -3Q210 -3 210 13Q210 23 216 26T239 32T262 36Q296 44 300 76Q310 164 310 454L309 633Q309 652 298 656T225 661T128 657T86 650T72 635T58 610T50 586Q47 563 31 563Q20 563 20 580Q20 620 25
652T30 690T31 696T32 701T34 706T36 710T40 714T45 716Q51 718 64 718Z" />
<glyph unicode="U" glyph-name="U" horiz-adv-x="815" d="M114 431L116 575Q116 630 103 650T42 678Q20 681 20 697Q20 705 26 707T43 710L156 706L250 708Q271 708 271 694Q271 685 264 683T247 680T226 673Q201 659 201 580V552L200 336Q200 237 206 207T220
152T239 111T268 78T309 50Q363 28 432 28Q540 28 582 52Q600 62 623 83T660 136Q691 210 691 324L690 536Q690 571 689 591T679 635T657 668T628 679T602 683T592 692Q592 708 612 708L689 706L774 709Q795 709 795 696Q795 688 774 676T747 653Q736 632 736 587L737
520Q737 328 721 226T672 78Q605 -19 435 -19T195 45Q140 96 127 167T114 414V431Z" />
<glyph unicode="V" glyph-name="V" horiz-adv-x="807" d="M679 709L768 711Q787 711 787 697Q787 686 765 676Q756 672 744 659T723 625L500 117Q476 63 459 22T439 -25T431 -30Q413 -30 387 37T303 229T214 424T170 527T144 586Q126 629 111 645T78 670T48 678Q20
676 20 696Q20 710 48 710L158 706L223 708Q246 708 251 706T256 698T246 686Q215 670 215 654T218 624T234 582T258 526T299 436T355 312Q439 119 455 119Q460 119 512 240T616 493T667 645T656 673T631 684Q595 688 595 700Q595 707 598 708T616 710L679 709Z"
/>
<glyph unicode="W" glyph-name="W" horiz-adv-x="1110" d="M982 709L1071 711Q1091 711 1091 697Q1091 690 1086 686T1069 676T1052 664T1042 652T1034 640T1028 627Q1021 614 892 323T749 2T727 -27Q717 -27 681 62Q671 84 655 123T627 189T603 244Q579 301 572
301Q562 301 505 163T445 15T441 1T438 -6T436 -12T434 -17T433 -21T431 -24T429 -27T427 -28Q424 -30 422 -30Q413 -30 400 -2T353 110T273 296T161 558Q142 606 120 633T81 668T50 676T28 680T20 696T47 709L157 706L243 709Q252 709 254 707T257 698T236 680T214
650Q214 630 244 565Q344 341 375 267T417 170Q437 126 443 126Q447 126 475 188T516 282T534 325Q545 346 545 358T485 506Q419 652 400 667Q384 679 374 679L363 680Q335 683 329 685T323 696Q323 710 352 710L462 706L528 710Q558 710 558 703T547 690Q515 673
515 653T546 562Q548 558 560 529Q586 461 593 461T633 548T665 653T650 677T620 688T605 700Q605 711 627 711L691 709H708Q722 709 761 712H770Q783 712 783 702T764 686T734 669T706 617T660 507T625 424T620 401T681 255T753 119T869 371T974 644T963 673T937
684Q900 687 900 700Q900 707 903 708T919 710L982 709Z" />
<glyph unicode="X" glyph-name="X" horiz-adv-x="751" d="M134 3L54 -1Q35 -1 30 4T25 17T31 27T46 30Q71 32 88 45T117 70T141 96T164 124T189 156T211 187T235 221T262 259T294 301T323 341T332 356T328 365T313 387T288 422Q233 498 196 551Q116 669 60 681Q38
681 29 688T20 702T27 711T62 714L151 710L256 712Q278 712 278 703T271 690T256 686Q233 684 233 665T287 567Q368 444 376 436T387 428Q395 428 407 445T439 491T474 542T506 590Q542 642 542 656T534 678T516 687Q489 690 489 704Q489 714 504 714L585 710Q641
710 658 712T679 714Q695 714 695 704T686 691T657 680T619 661T567 602Q412 394 412 392Q412 385 453 326T538 205Q630 71 668 40Q671 37 688 34Q731 26 731 13Q731 8 730 6Q726 -1 699 -1L592 6Q542 6 518 3T490 0Q477 0 477 12T502 31T528 56Q528 75 470 160Q400
260 381 290T355 320Q353 320 333 287T271 199T208 109T187 55Q187 28 241 28Q253 28 253 11Q253 0 222 0L134 3Z" />
<glyph unicode="Y" glyph-name="Y" horiz-adv-x="712" d="M326 89L328 292Q328 334 302 374Q278 412 239 469T170 571T115 641T77 670T42 675T20 687T31 702T82 705L140 703L225 704Q275 704 275 693T254 674T233 657T239 631T252 605T272 576T303 528T357 450T399
401T414 412T439 451T462 488T480 516T496 540T510 561T523 583T532 602Q542 620 542 632Q542 668 496 674Q474 677 471 682T468 693Q468 705 496 705L537 704L643 703Q692 703 692 688Q692 684 686 681T669 673T649 661Q608 629 529 509T436 372T418 331T414 249L415
133V109Q415 76 426 57T448 35T468 31L488 30Q495 30 499 26T503 14T498 3T479 0L379 1L269 -3Q241 -3 241 7T246 20T265 25T284 28Q326 41 326 89Z" />
<glyph unicode="Z" glyph-name="Z" horiz-adv-x="563" d="M287 -1L40 -2Q20 -2 20 14Q20 20 48 62T100 147T202 317T337 540T393 646T354 657T167 653Q135 652 112 637T79 605T61 573T48 558Q35 558 35 576T39 614T43 639T46 672T55 704T71 708T110 707Q165 705
292 705L472 706Q515 706 515 692T332 376T148 66T156 53T184 46Q216 44 290 44T410 49T479 68T511 91T525 105T535 110Q543 110 543 96T512 31Q510 28 507 23T502 15Q495 5 492 4Q483 0 470 0L287 -1Z" />
<glyph unicode="[" glyph-name="bracketleft" horiz-adv-x="287" d="M139 -159L229 -158Q243 -158 248 -162T253 -181T243 -200T201 -204H111Q89 -204 84 -194T78 -143V-82L84 570V652L83 738Q83 754 93 758T132 763H175L234 764H241Q248 764 252 758T257 743Q257
723 245 723L153 722H137Q129 722 129 714L131 559Q131 559 126 15Q126 -82 126 -120T139 -159Z" />
<glyph unicode="\" glyph-name="backslash" horiz-adv-x="416" d="M20 723Q20 735 37 735T60 732T70 717L377 -113Q380 -121 385 -134Q396 -163 396 -167Q396 -183 363 -183Q355 -183 351 -178T338 -152L34 679Q20 715 20 723Z" />
<glyph unicode="]" glyph-name="bracketright" horiz-adv-x="287" d="M203 -10L204 -152V-178Q204 -194 194 -199T155 -204H46Q39 -204 34 -198T29 -184Q29 -163 42 -163H150Q157 -163 157 -154L156 -75V1L160 545Q160 641 160 679T147 718H57Q43 718 38 722T33
739Q33 762 50 762Q150 764 173 764T202 754T208 703V642L203 -10Z" />
<glyph unicode="^" glyph-name="asciicircum" horiz-adv-x="333" d="M29 331Q29 336 42 358T88 434T133 504T162 521T191 505T235 435T280 360T293 329Q293 321 275 321H260Q249 321 245 327L239 336Q233 345 230 354Q219 372 210 391T195 420T186 436T180 448T174
457T169 463T166 467T162 468T158 466T152 460T146 450T137 434T126 413T111 386T98 361T90 347T86 339T82 333T76 326Q69 322 63 322H49Q29 322 29 331Z" />
<glyph unicode="_" glyph-name="underscore" horiz-adv-x="213" d="M6 -62T3 -57T0 -41T1 -26Q4 -17 19 -17H197Q211 -17 212 -26Q213 -29 213 -40T210 -57T192 -62H18Q6 -62 3 -57Z" />
<glyph unicode="`" glyph-name="grave" horiz-adv-x="439" d="M109 636Q109 649 130 655T162 662T185 636T209 581T231 539T246 515L255 500Q258 495 258 491Q258 480 247 480T207 511Q109 614 109 636Z" />
<glyph unicode="a" glyph-name="a" horiz-adv-x="461" d="M166 -15Q48 -15 48 85Q48 157 108 184Q158 205 261 222Q264 223 269 223T279 225T288 227Q295 230 295 241L297 293Q297 350 264 375T200 401Q128 401 128 341L132 305Q132 285 114 285Q100 285 83 290Q52
300 52 324Q52 363 104 398T210 434T293 424T337 402T360 368Q370 343 370 290T368 195T365 119T373 64T392 36T414 29Q441 27 441 13Q441 -8 378 -8Q352 -8 334 6T307 33T298 47T290 41T271 25T242 7Q205 -15 166 -15ZM288 208L278 206Q255 202 249 201T221 195T191
186T167 174T144 156Q126 128 126 97T146 46T197 25T247 33T275 51T289 78Q295 97 295 127V199Q295 208 288 208Z" />
<glyph unicode="b" glyph-name="b" horiz-adv-x="547" d="M70 -4L74 78Q74 111 78 196T83 342V589Q83 680 38 680H28Q12 680 12 690T22 707T54 721T80 730T100 740Q134 756 140 756T151 751T156 738V718L155 596V411Q155 375 162 375Q166 375 174 385T193 408T238
431T320 442Q409 442 458 380T508 235Q508 188 484 127T417 33Q359 -11 278 -11Q237 -11 202 3T150 32T131 47Q127 47 112 15T82 -17Q70 -17 70 -4ZM155 132Q155 105 194 65T302 25T406 71T443 191T396 326T267 388Q220 388 188 361T155 313V132Z" />
<glyph unicode="c" glyph-name="c" horiz-adv-x="452" d="M152 -21T96 36T39 190T103 358T271 429Q306 429 346 419T388 396Q390 372 390 339T379 305Q369 305 361 318Q344 347 297 368T213 390Q193 390 174 375T143 342Q114 300 114 223T163 89T285 31Q320 31
350 44T396 70T417 83Q428 83 428 73Q428 63 407 43T366 10Q317 -21 246 -21Q152 -21 96 36Z" />
<glyph unicode="d" glyph-name="d" horiz-adv-x="565" d="M394 -3L391 34Q391 51 382 51Q379 51 368 41T341 19T298 -4T236 -14Q143 -14 91 47T39 200T103 365T282 438Q308 438 350 424T397 409T401 445L403 574Q403 628 398 650T381 679T350 686H339Q324 686
321 687T318 694V695Q318 702 328 705T368 718T416 736T443 748Q462 758 470 758Q482 758 482 738Q482 735 476 653T469 521L467 156Q467 88 473 65T502 35Q505 34 519 32T539 26T545 14Q545 2 468 -4Q452 -5 431 -9T405 -14Q394 -14 394 -3ZM185 409T148 362T111
240T157 102T277 38Q322 38 359 61T396 117L397 288Q397 349 369 365Q295 409 250 409Q185 409 148 362Z" />
<glyph unicode="e" glyph-name="e" horiz-adv-x="466" d="M162 -19T101 35T39 191T95 363T242 432Q284 432 318 417T372 381T404 335Q426 294 426 273Q426 255 385 255H128Q120 255 119 254T117 244Q117 150 167 96T286 42Q328 42 371 64T417 87Q427 87 427 78Q427
66 405 46T363 12Q315 -19 250 -19Q162 -19 101 35ZM136 279L312 285Q326 285 329 287T333 297Q333 327 305 367T227 407T150 368T123 293Q123 279 136 279Z" />
<glyph unicode="f" glyph-name="f" horiz-adv-x="345" d="M91 375L51 372Q29 372 29 385Q29 403 37 409T71 415H92Q104 415 107 420T110 438Q110 511 134 572T194 670Q268 747 330 747Q353 747 367 740T382 719Q382 715 379 702T374 684T372 678T370 672T368 668T366
664T362 661Q359 659 354 659T344 666Q329 685 291 685T231 664T198 608Q177 540 177 458V433Q177 414 189 414Q277 414 296 428Q303 432 307 432T311 422T297 386Q291 377 272 377L194 376Q178 376 178 366V308L183 110Q183 57 197 40Q213 19 246 19Q263 19 263
4Q263 -6 252 -6L152 -1L78 -6Q63 -6 63 8Q63 13 75 18T100 36T112 67T111 116Q108 214 108 359Q108 370 105 372T91 375Z" />
<glyph unicode="g" glyph-name="g" horiz-adv-x="488" d="M102 -190T71 -164T39 -104T57 -52T93 -24T111 -13T106 -6T94 3Q78 16 78 46T91 99T117 132T130 146T120 159T96 179T73 217T62 273T69 326T94 375T148 417T229 433T302 423T343 403T363 393T412 411Q426
417 433 438T448 459Q461 459 461 451Q461 427 454 400T437 357T398 329Q409 299 409 279Q409 215 361 171T244 127Q218 127 195 131T167 136T154 134T134 120T122 87Q122 53 153 44T256 35H302Q447 35 447 -53Q447 -84 440 -100Q421 -149 362 -178T225 -207Q180
-207 141 -199ZM97 -91Q97 -135 134 -157T229 -180T336 -155T386 -89Q386 -53 351 -44Q324 -38 275 -38H266Q234 -38 188 -31L143 -24Q133 -24 115 -44T97 -91ZM190 411T164 380T138 289T166 190T239 150T307 184T331 272T303 368T233 411Z" />
<glyph unicode="h" glyph-name="h" horiz-adv-x="587" d="M132 5L61 0Q36 0 35 3T34 10Q34 20 46 23Q75 31 83 48T92 100L96 441V490Q96 626 90 656T54 686H41L37 687Q20 687 20 696T30 710T60 721T116 742T161 758Q174 758 174 735Q174 730 171 711T167 638T165
521T162 436Q160 394 160 377T168 360Q170 360 188 378T239 415T309 434Q390 434 435 386T480 237V92Q480 65 490 50T513 34Q567 29 567 13T536 -3L452 2L375 -1Q352 -1 352 9Q352 27 379 27Q389 27 397 38T406 72L407 98L408 238Q408 299 371 343T286 388T187
349Q169 335 164 304T159 164V141Q159 96 166 68Q177 29 221 26Q235 25 242 23T250 12Q250 0 239 0L213 1Q187 2 161 3T132 5Z" />
<glyph unicode="i" glyph-name="i" horiz-adv-x="284" d="M159 -4L88 -6Q48 -6 48 7T63 26Q64 26 67 27Q90 35 97 51T104 206V294Q104 323 97 340T84 361T64 367T43 372T36 380T38 389T48 395T64 402Q92 410 110 418T137 430T150 436Q157 439 167 439Q182 439
182 420L176 372V98Q176 68 185 51T205 30T230 25T248 24Q262 22 262 10Q262 -7 245 -7L230 -6L159 -4ZM122 533T108 554T93 588T110 623T143 645T174 625T189 588T170 553T142 533Q122 533 108 554Z" />
<glyph unicode="j" glyph-name="j" horiz-adv-x="281" d="M116 577T116 591T131 623T163 642T195 625T211 591T194 557T167 538Q147 538 132 557ZM25 -173L23 -137Q23 -108 45 -108Q56 -108 76 -129T103 -151Q116 -151 121 -118T126 10V314Q126 357 100 368Q87
373 69 373T51 383Q51 389 60 392Q114 408 148 424T186 440Q198 440 198 417V406L196 359V35Q196 -20 186 -69T145 -159T69 -200T25 -173Z" />
<glyph unicode="k" glyph-name="k" horiz-adv-x="545" d="M40 679L20 678Q0 678 0 689T49 715Q56 717 65 720T77 723T84 726T90 728T95 731T102 734T110 739T129 751T156 760T169 741Q169 739 168 730T166 702T163 656Q160 577 160 488Q160 488 157 283V262Q157
220 161 220Q170 220 179 230T193 243Q333 355 333 369T311 392T288 409Q288 419 300 419L318 418L465 423Q491 423 491 415T485 404T469 400Q436 395 395 367Q392 365 389 362T376 352T353 335T305 299T262 265T254 250T265 227Q356 116 421 59Q448 35 475 28T515
21T527 12Q527 0 519 -2T486 -5L382 -4Q357 -4 225 159Q199 191 197 195T186 199T167 185T156 153L157 136Q157 64 165 54Q166 53 174 42T216 24T250 9Q250 -7 219 -7L122 -1L49 -5Q25 -5 25 7Q25 17 50 24Q73 33 79 50T85 116L86 160L87 604Q87 679 40 679Z" />
<glyph unicode="l" glyph-name="l" horiz-adv-x="279" d="M91 192L95 617Q95 640 88 658T71 681T31 685Q20 685 20 692T21 702T28 707T40 712Q69 718 100 733Q149 756 164 756Q176 756 176 737Q176 733 174 714Q168 655 168 585V529L166 396V98Q166 77 169 64T192
38T247 25Q252 25 256 20T260 10Q260 -4 229 -4L128 3Q102 3 79 -1T48 -5T36 -2T31 7T35 16T50 22Q80 30 86 46T92 92L91 118V192Z" />
<glyph unicode="m" glyph-name="m" horiz-adv-x="827" d="M99 208L98 330Q98 354 88 364T64 374Q31 372 31 388Q31 397 43 401T79 411T114 420T132 429T142 434Q151 438 163 438T175 409L170 367Q170 355 176 355Q177 355 182 362T197 380T221 402Q255 427 301
427T375 415T412 388T430 361T438 348T457 368T507 409T576 430Q649 430 688 387T734 283T741 153V121Q741 76 746 56T769 30Q770 30 778 29T792 26Q807 23 807 11Q807 -4 774 -4L708 0L636 -4Q612 -4 612 6T633 25T658 42Q662 53 662 88V104L661 210L658 276Q658
287 655 296T652 311T646 323T640 332Q636 340 624 352Q598 383 549 383Q526 383 501 371T461 347T446 330T448 315Q452 282 452 202V117Q452 71 465 50T521 22Q531 21 535 16T539 6Q539 -5 520 -5L447 0L356 -5Q334 -5 334 8Q334 15 338 18T352 26T366 32T375
49T380 79V98L381 138V199L380 252L379 262Q379 315 352 347T280 379T202 357T169 306V104Q169 68 182 49T211 28T240 22T253 12Q253 3 250 0T232 -3L148 0L69 -3Q45 -3 45 12Q45 23 63 26Q70 27 78 34T92 63T99 208Z" />
<glyph unicode="n" glyph-name="n" horiz-adv-x="591" d="M248 0L175 4Q149 4 106 2L63 0Q48 0 48 9T53 20T65 23T80 29Q99 41 101 101T103 181V325Q103 357 92 368T60 379H50Q31 379 31 390Q31 400 52 403T86 409T119 421T152 436T169 442H171Q180 442 180 430L178
387Q178 361 182 361T190 366Q205 387 230 402Q275 430 316 430T389 418T439 387T469 344Q489 304 489 262V252L490 199V97Q490 59 500 45T551 24Q571 21 571 9Q571 -1 551 -1L469 4L392 0Q372 0 372 13Q372 22 384 25L397 28Q419 35 419 95V230Q419 307 381 346T295
386T215 363T176 320T169 167V129Q169 79 179 55T226 28Q236 28 251 25T267 13Q267 0 248 0Z" />
<glyph unicode="o" glyph-name="o" horiz-adv-x="547" d="M160 -18T100 47T39 204T101 363T266 431T438 372T508 208T437 43T263 -18ZM199 404T159 363T118 228T173 73T291 12T394 55T433 183T385 335T251 404Q199 404 159 363Z" />
<glyph unicode="p" glyph-name="p" horiz-adv-x="555" d="M100 -62L103 214V236Q103 319 96 346T56 374Q39 374 35 376T31 384T39 393T74 404T134 428T171 445Q184 445 184 432L180 373Q180 365 182 365T191 372T211 389T240 410Q279 434 333 434Q422 434 469
376T516 229T458 66T301 -9Q255 -9 227 0T187 19T173 29T169 21V-102Q169 -121 186 -149Q197 -167 219 -170T257 -174T273 -187T239 -200Q233 -200 207 -198T135 -196L72 -199Q50 -199 44 -197T38 -188T47 -176T69 -169T90 -145T100 -82V-62ZM169 192L170 142Q170
107 185 82T224 44Q268 21 317 21Q382 21 416 68T451 190T409 324T294 384Q243 384 203 352Q182 336 176 309T169 192Z" />
<glyph unicode="q" glyph-name="q" horiz-adv-x="559" d="M399 -81L401 11Q401 57 396 57T378 45T351 17T304 -11T233 -24Q160 -24 112 16Q39 77 39 176Q39 241 62 292T122 372Q197 432 287 432Q341 432 394 401Q402 396 408 392L418 384L421 381Q425 381 441
413T470 445Q479 445 479 433T476 402Q470 353 470 232L473 -80Q473 -143 499 -160Q510 -168 520 -171T538 -177T546 -187Q546 -199 528 -199L492 -198H458Q388 -198 376 -200T360 -203Q336 -203 336 -188Q336 -177 358 -174T387 -166T396 -146T399 -81ZM143 348T126
309T109 212T138 108Q190 29 270 29Q357 29 382 70Q399 100 399 139V302Q399 342 355 372T264 403Q218 403 169 367Q143 348 126 309Z" />
<glyph unicode="r" glyph-name="r" horiz-adv-x="375" d="M52 363L41 364Q22 364 22 380Q22 391 35 396T85 413T143 434T168 444Q181 444 181 424L180 397Q180 361 182 358T187 354T203 374T240 414T287 435T336 419T361 386T353 355Q339 331 327 331Q319 331
299 343T251 355T201 333T177 293V189L178 102L179 84Q179 63 193 48T219 31T241 28T255 27T266 24Q277 22 277 10T265 -3L180 2L76 -3Q58 -3 56 1T54 9Q54 22 67 26Q93 32 98 51T104 135L103 296L102 326Q102 337 99 344Q91 363 52 363Z" />
<glyph unicode="s" glyph-name="s" horiz-adv-x="393" d="M328 401L332 341Q332 324 328 318T317 312T301 326T282 358T248 389T194 404T145 390T126 358T129 331T139 312T152 299T171 287T190 279T212 270Q303 238 329 208T355 120T302 15Q266 -16 203 -16Q160
-16 107 5Q92 11 90 11T82 14T74 16T67 19T62 22T58 27Q55 32 55 43V130Q55 141 59 148T72 156T83 152T90 133T96 113Q133 21 200 21Q231 21 259 37T287 89T264 147T208 181T142 207T86 247T63 314Q63 370 108 404T207 438T289 430T322 414T328 401Z" />
<glyph unicode="t" glyph-name="t" horiz-adv-x="342" d="M63 371L44 370Q27 370 27 384Q27 394 36 401Q74 426 112 476Q128 499 137 509T157 520T167 497Q167 497 163 440Q163 426 168 423T204 420H239Q284 420 294 425Q312 434 316 434Q326 434 326 423Q326
415 313 392T294 368Q249 368 231 370T207 372T197 373T190 374L188 375Q169 375 164 369T158 342L154 156Q154 91 170 66T240 40Q261 40 286 49T314 59Q324 59 324 46T290 12T215 -10Q80 -10 80 107V122L84 355Q84 365 80 368T63 371Z" />
<glyph unicode="u" glyph-name="u" horiz-adv-x="576" d="M94 156L95 336Q95 356 85 368T65 380H47Q29 380 29 394T48 412T96 416L153 421Q170 421 173 414T176 379T174 303T171 195Q171 107 205 71T282 34Q346 34 375 61T404 156L402 294Q402 344 394 361T360
381T334 395Q334 418 422 418L458 423Q473 423 477 418T482 404T482 380T481 341T479 287Q477 227 477 153T483 57T505 35L531 36Q555 36 555 24T548 9T521 6T461 1T417 -5Q410 -5 406 20T400 46T380 30T329 -2T255 -18Q94 -18 94 156Z" />
<glyph unicode="v" glyph-name="v" horiz-adv-x="523" d="M430 424L476 425Q493 425 498 422T504 412T499 402Q475 388 465 374Q440 340 393 240T307 63T253 -14Q243 -14 237 -4T198 85T129 241T73 352T42 393T26 404T20 416Q20 427 39 427L110 423L168 422L207
425Q225 425 225 414Q225 397 201 397Q159 397 159 369Q159 353 175 319T204 257T225 211T248 159Q275 95 282 95Q292 95 343 216T394 358T385 388T363 396Q332 392 332 412Q332 425 363 425L430 424Z" />
<glyph unicode="w" glyph-name="w" horiz-adv-x="748" d="M410 422L441 423Q463 423 463 409Q463 402 460 401Q454 399 448 399Q418 397 418 371Q418 334 477 204Q485 188 496 160Q518 103 524 103Q534 103 576 212T619 348T611 383T592 394Q564 398 564 414Q564
422 585 422H700Q719 422 724 420T729 409T713 394T686 373T668 343T650 302Q620 227 575 132T526 28T514 7Q504 -13 495 -13Q478 -13 431 116T376 246Q373 246 312 118T232 -10Q224 -10 217 4T179 100T127 231T99 305T86 340Q72 368 39 396Q35 400 30 402T23 406Q20
409 20 416Q20 427 39 427L110 423L159 424Q189 424 197 423T206 413T195 402Q162 395 162 363T218 204Q225 190 237 161T256 118T267 104T292 144T321 200T333 222T342 239T349 253T353 264T357 272T359 279T360 287V294Q360 301 351 324T331 362T308 388T290
400Q274 406 274 415T289 424L410 422Z" />
<glyph unicode="x" glyph-name="x" horiz-adv-x="548" d="M126 2L73 -2Q29 -2 29 14Q29 19 32 21T48 27T76 42T110 67T148 101T179 132T209 166T232 192T236 201T225 220T190 262T148 315T105 361T69 384T43 395T31 413Q31 425 45 425L123 420L204 424Q220 424
225 421T230 412T214 399T197 382Q197 373 216 347T253 296Q283 253 289 253Q292 253 299 261Q369 350 372 357T375 373Q375 388 352 397T329 412Q329 424 355 424L418 423L487 425Q494 425 500 421T506 412T501 403T486 396Q458 389 421 352Q306 237 306 226Q306
223 328 199T374 145T407 104T421 88T434 73T451 57T468 44Q485 30 498 26T514 21Q519 18 519 11T513 2T485 -1L426 1L367 -1H356Q322 -1 322 9Q322 14 339 20T357 38T343 71T305 120T272 162T261 175T249 165Q237 150 220 130L194 100Q172 74 172 57T179 32T196
24Q219 23 219 8Q219 4 218 2Q214 -1 178 -1L126 2Z" />
<glyph unicode="y" glyph-name="y" horiz-adv-x="498" d="M204 -190L161 -191Q142 -191 142 -178Q142 -175 164 -147T210 -78T233 -6T176 150T77 353Q66 373 55 384T36 396Q20 398 20 411T40 424L147 422L204 424Q211 424 216 421T222 413Q222 395 198 395H183Q167
395 167 370Q167 340 220 226Q228 209 244 172Q274 104 280 104T326 219T367 356T358 387T336 396Q305 394 305 413Q305 425 324 425L396 424L458 425Q479 425 479 412Q479 402 462 398T438 385Q422 362 384 259L295 22Q284 -7 273 -37T255 -87T241 -125T230 -154T222
-174Q214 -190 207 -190H204Z" />
<glyph unicode="z" glyph-name="z" horiz-adv-x="378" d="M180 2L107 1H90Q73 1 66 0H59Q40 0 40 15T47 40T61 59T74 77Q257 341 257 356Q257 361 234 361L112 354Q83 352 62 311Q55 297 50 297Q42 297 42 311T44 345T51 384T55 408Q57 426 75 426Q75 426 182
423L329 426Q341 426 341 416Q341 405 328 389T292 339T218 231T142 121T118 73Q118 64 167 64L216 65Q269 65 288 80Q303 91 308 106T316 126Q323 140 333 140Q349 140 349 126Q349 120 336 89T319 45T312 24Q306 2 294 2H180Z" />
<glyph unicode="{" glyph-name="braceleft" horiz-adv-x="273" d="M74 -174L77 202Q77 224 60 238T42 268T60 293T79 321L75 734Q75 752 93 752L155 744Q175 744 195 747T227 750T240 740Q240 716 204 701T140 685Q133 685 133 676L130 255L133 -105Q133 -110
163 -117T207 -131Q241 -150 241 -172Q241 -181 233 -181Q232 -181 222 -178Q196 -172 163 -172T111 -179T86 -186Q74 -186 74 -174Z" />
<glyph unicode="|" glyph-name="bar" horiz-adv-x="209" d="M127 -137L128 -163V-171Q128 -209 111 -209Q89 -209 84 -199T78 -148V-87L84 570V652L83 738Q83 751 88 756T107 762T125 757T130 737L129 714L131 559L126 10Q126 -87 127 -137Z" />
<glyph unicode="}" glyph-name="braceright" horiz-adv-x="273" d="M196 202L199 -174Q199 -186 187 -186Q180 -186 161 -179T118 -172T78 -174T51 -178T40 -181Q32 -181 32 -172Q32 -150 66 -131Q79 -124 98 -120Q140 -110 140 -105L143 255L140 676Q140 685
133 685Q106 685 70 700T33 740Q33 750 45 750T78 747T118 744L180 752Q198 752 198 734L194 321Q194 304 212 294T231 268T214 239T196 202Z" />
<glyph unicode="~" glyph-name="asciitilde" horiz-adv-x="380" d="M29 172Q29 176 43 197T83 242T133 265T192 243T250 220T289 232T317 256T331 269Q351 269 351 254Q351 249 336 229T292 186T235 164T174 187T121 210T85 197T61 170T49 156Q29 156 29 172Z" />
<glyph unicode="&#xa0;" glyph-name="uni00A0" horiz-adv-x="213" />
<glyph unicode="&#xa1;" glyph-name="exclamdown" horiz-adv-x="276" d="M66 600T63 604T59 616T65 629T83 643T97 654T108 668T121 683T134 689T153 678T172 660T187 644Q208 625 208 613Q208 606 201 600T188 590T179 582T167 568Q149 544 135 544Q129 544 115
559T89 583T72 596ZM83 20Q83 25 85 37T89 71T100 220T124 467Q126 478 137 478T149 468Q164 292 166 253Q168 188 173 109T179 19T166 -3T129 -13Q83 -13 83 20Z" />
<glyph unicode="&#xa2;" glyph-name="cent" horiz-adv-x="452" d="M270 356L268 45Q268 38 271 35T297 31T350 44T396 70T417 83Q428 83 428 73Q428 66 414 48T363 9T280 -19Q269 -21 268 -23T267 -33V-91Q267 -102 248 -102T229 -93V-29Q229 -22 227 -21T220
-19T209 -18Q196 -17 169 -9Q108 12 74 63T39 191T80 330Q126 398 210 422Q219 424 222 424T228 426T231 432V481Q231 491 251 491T271 482V436Q271 430 273 430T278 429T286 428T298 428Q379 421 388 394Q390 383 390 344T379 305Q370 305 362 318Q347 343 295
369Q281 376 276 376T270 356ZM131 325T123 294T114 227T124 159T149 108T180 73Q210 45 224 45Q229 45 229 60Q229 187 230 376Q230 386 228 388T216 390T195 387T170 372T143 343Z" />
<glyph unicode="&#xa3;" glyph-name="sterling" horiz-adv-x="557" d="M115 333L35 332Q21 332 21 353T34 375H92Q109 375 109 376T102 400Q78 467 78 522Q78 620 138 669T272 719T396 689T447 615Q447 599 433 582T408 565T393 574T380 603T362 640T323 670T254
683T181 655T147 566T195 396Q200 383 203 380T214 376H369Q384 376 387 373T390 357T389 342Q387 333 367 333H245Q223 333 223 331T230 308Q250 247 250 218T248 173T243 145T235 121T227 100T219 84T213 72L210 67Q272 50 334 50T431 66T482 100T508 135T524
151Q537 151 537 138T533 107T516 68T488 27T443 -4T381 -17Q299 -17 182 27Q181 27 150 8T86 -11T36 5T20 43T36 82T79 100T123 95T154 85T168 79Q173 83 180 105T188 149Q188 197 140 311Q139 313 137 317T134 323Q131 330 130 330T127 332T122 333H115ZM58 44Q58
34 67 26T90 17T118 24Q138 34 146 47Q143 51 123 57T86 63Q58 63 58 44Z" />
<glyph unicode="&#xa4;" glyph-name="currency" horiz-adv-x="527" d="M34 18T27 26T20 45T38 74L106 143Q67 194 67 261T105 379L38 448Q20 466 20 478T28 497T47 505T77 487L146 418Q198 457 263 457T381 418L450 487Q467 504 479 504T499 496T507 477T489 448L420
378Q461 322 461 261T420 144L489 74Q507 56 507 44T499 25T479 17T450 35L381 104Q329 65 263 65T146 103L77 35Q60 18 47 18ZM124 319T124 260T165 161T263 120T361 161T403 261T362 361T263 404T165 362Z" />
<glyph unicode="&#xa5;" glyph-name="yen" horiz-adv-x="712" d="M301 360L286 361H186Q170 361 166 366T162 381T163 396Q166 405 188 405Q279 405 279 407T265 431L167 577Q137 621 113 644T76 671T42 675T20 687T31 702T82 705L140 703L225 704Q275 704 275
693T254 674T233 657T239 631T252 605T272 576T302 530T354 455T395 406H403Q410 406 417 416T429 436T445 461T462 488T480 516T496 540T510 561T523 583T532 602Q542 620 542 636T531 662T505 672Q468 674 468 693Q468 705 496 705L537 704L643 703Q692 703 692
688Q692 684 686 681T669 673T649 661Q603 624 514 485L483 438Q478 431 472 424Q463 412 463 409T575 405Q589 405 589 384T575 362Q575 362 438 361Q430 361 426 356Q414 341 414 254Q414 246 415 244T423 241L437 242H562Q578 242 581 238T585 222T584 207Q582
197 560 197L431 196Q420 196 417 194T414 187V176L415 133V109Q415 76 426 57T448 33T468 29L488 25Q503 25 503 14Q503 0 485 0L388 1L269 -4Q244 -4 244 8Q244 17 248 20T266 24Q326 29 326 89L327 126Q328 162 328 177T325 195T311 197H248L173 198Q159 198
159 219T172 241H307Q321 241 325 244T329 258L328 292Q328 318 321 338T301 360Z" />
<glyph unicode="&#xa6;" glyph-name="brokenbar" horiz-adv-x="208" d="M127 -8L128 -140V-171Q128 -209 111 -209Q89 -209 84 -199T78 -148L79 -82L80 176Q80 201 106 201Q119 201 123 196T127 176V-8ZM83 414V738Q83 751 88 756T107 762T125 757T130 737V391Q130
353 114 353Q92 353 88 362T83 414Z" />
<glyph unicode="&#xa7;" glyph-name="section" horiz-adv-x="542" d="M394 693L417 700Q434 700 435 690Q455 559 455 555Q455 526 443 526T424 541T412 576T386 622Q339 683 249 683Q192 683 163 651T133 582T180 517Q203 504 247 489T329 459T403 422Q483 376
483 287Q483 229 464 198Q438 154 417 140Q407 134 407 131T416 123T441 104T467 61T479 9Q479 -79 417 -130T260 -181Q215 -181 182 -174T104 -143Q89 -135 75 -68T60 19T74 40T93 28Q112 -24 123 -40T145 -70T168 -95T196 -116Q227 -136 279 -136T377 -107T423
-23Q423 5 396 27T329 63T241 96T154 135T86 192T59 267T69 333T95 375T124 401T149 417T160 425T146 437T116 457T86 493T72 552Q72 625 127 672T264 720Q312 720 350 707T394 693ZM189 404T154 376T119 304T177 225Q205 207 283 180T364 153Q379 153 403 185T427
253Q427 323 315 367Q218 404 204 404Z" />
<glyph unicode="&#xa8;" glyph-name="dieresis" horiz-adv-x="439" d="M103 577T103 591T118 623T150 642T182 625T198 591T181 557T155 538Q135 538 119 557ZM263 577T263 591T278 623T310 642T342 625T358 591T341 557T314 538Q294 538 279 557Z" />
<glyph unicode="&#xa9;" glyph-name="copyright" horiz-adv-x="796" d="M254 -21T149 82T44 333T147 586T399 692T652 587T756 336T653 85T402 -21ZM268 649T177 557T86 334T179 113T400 21T621 112T714 333T623 556T400 649ZM164 322Q164 424 226 491T401 559Q439
559 477 548T538 526T562 515T567 518T574 521T582 519T586 510T588 496Q591 460 594 442T597 422Q597 407 584 407Q576 407 570 418Q511 525 401 525Q326 525 278 479T230 358Q230 288 270 222Q290 188 332 167T431 146Q511 146 567 225Q573 234 577 245T585 259T597
263Q604 263 604 255Q604 230 592 172Q590 162 579 158Q497 117 455 112Q436 109 415 109Q352 109 305 126T231 166T189 222Q164 271 164 322Z" />
<glyph unicode="&#xaa;" glyph-name="ordfeminine" horiz-adv-x="302" d="M267 413L280 414Q288 414 288 404Q288 390 271 390H247Q230 390 218 400T199 420L193 430Q192 430 188 426T177 415T159 402Q135 386 107 386Q29 386 29 446Q29 475 51 493T95 516T146
527T179 533Q190 535 190 542L191 571Q191 605 172 620T133 636Q90 636 90 601L93 580Q93 568 79 568Q50 568 42 576T33 592Q33 617 67 638T141 660T203 652T234 630Q246 608 246 584L242 470Q242 435 248 424T267 413ZM186 521Q174 519 161 517T132 510T108 500Q88
486 88 460Q88 417 134 417Q160 417 173 429T188 451T190 476V516Q190 521 186 521Z" />
<glyph unicode="&#xab;" glyph-name="guillemotleft" horiz-adv-x="360" d="M158 208Q152 212 152 217T158 227Q302 348 305 349Q310 349 315 343T321 331T274 274T226 217T272 159T319 102T314 91T305 84T253 125T158 208ZM20 211T20 216T26 227Q67 262 117 305T172
349T182 343T188 331T142 274T95 217T141 160T188 103T182 91T172 84T117 128T25 208Q20 211 20 216Z" />
<glyph unicode="&#xac;" glyph-name="logicalnot" horiz-adv-x="527" d="M37 188T34 193T31 215T50 232H477Q490 232 493 229T497 213V55Q497 40 481 40Q469 40 464 40Q452 42 452 60V171Q452 188 426 188H50Q37 188 34 193Z" />
<glyph unicode="&#xad;" glyph-name="uni00AD" horiz-adv-x="340" d="M44 145V156Q44 185 53 193T108 214T195 242T250 262T274 268Q296 268 296 234V228Q296 205 286 197Q277 191 263 187Q204 171 160 155T104 134Q74 124 59 124T44 145Z" />
<glyph unicode="&#xae;" glyph-name="registered" horiz-adv-x="478" d="M151 337T90 398T29 547T90 695T238 757T387 696T449 547T387 399T238 337ZM165 726T112 673T59 547T112 422T238 369T364 421T418 547T365 673T238 726ZM163 529L164 625Q164 651 134 651Q123
651 123 658Q123 667 135 667H158L234 669Q271 669 296 654T321 605Q321 586 310 575T287 559T276 554T280 549Q295 532 303 516T335 469Q347 454 356 454H358Q361 455 364 455T367 451T361 440T342 434T314 442T272 497T236 547H211Q204 547 203 544T201 517T205
475T227 453T245 444T238 438L187 440Q176 440 159 439L142 438Q135 438 135 445Q135 449 147 452T161 468T163 505V529ZM215 562L229 561Q259 561 270 570T282 599T267 635T218 652Q207 652 204 648T201 629V596Q201 576 203 569T215 562Z" />
<glyph unicode="&#xaf;" glyph-name="overscore" horiz-adv-x="439" d="M311 563L123 564Q113 564 113 586T129 608L310 606Q319 606 322 601T325 582Q325 563 311 563Z" />
<glyph unicode="&#xb0;" glyph-name="degree" horiz-adv-x="259" d="M30 646T59 679T134 713T205 678T230 601T193 532T128 504T78 516T46 547Q30 580 30 613ZM110 669T91 652T72 608T88 565T131 548Q155 548 171 566T188 608Q188 669 131 669Q110 669 91 652Z" />
<glyph unicode="&#xb1;" glyph-name="plusminus" horiz-adv-x="527" d="M31 79T31 90T32 106Q33 117 49 117H478Q489 117 492 113T496 97T493 79T475 73H48Q39 73 35 76ZM31 324Q31 346 49 346H230Q241 346 241 356V495Q241 510 258 510T280 507T285 493V357Q285
346 297 346H480Q496 346 496 331Q496 311 491 306T475 301H297Q285 301 285 284V152Q285 138 269 138T247 140T241 152V284Q241 294 239 297T225 301H48Q36 301 34 306T31 324Z" />
<glyph unicode="&#xb2;" glyph-name="uni00B2" horiz-adv-x="337" d="M132 398L62 397Q42 397 42 404V406Q42 412 59 431T110 499T173 609T202 723Q202 748 186 763T142 779T95 770T66 752T52 743T47 749T51 763T65 782T88 804Q120 830 162 830T235 809T265 745T227
633T151 513T113 459T139 455Q170 455 200 455L240 457Q242 457 247 459T258 464T278 480T296 494Q303 494 303 488L260 409Q251 396 239 396L132 398Z" />
<glyph unicode="&#xb3;" glyph-name="uni00B3" horiz-adv-x="337" d="M147 614L128 612Q120 612 120 621Q120 625 129 630Q139 635 171 660T204 724Q204 747 189 763T152 779T103 762T73 745T69 750Q69 768 105 796T175 824T235 806T262 753Q262 733 253 716T234
690T209 669T193 653Q193 652 200 650Q229 645 250 632Q297 602 297 552Q297 480 250 432T138 383Q103 383 72 398T40 429Q40 439 53 439Q56 439 64 432Q87 412 133 412T206 451T234 528T214 590T147 614Z" />
<glyph unicode="&#xb4;" glyph-name="acute" horiz-adv-x="439" d="M181 491Q181 496 188 506Q220 554 256 643Q264 662 276 662T308 656T329 636Q329 613 232 511Q203 480 192 480T181 491Z" />
<glyph unicode="&#xb5;" glyph-name="uni00B5" d="M40 -199Q10 -199 10 -150T19 -54T48 60Q81 171 103 284T130 409T142 421T169 415T188 398T163 243T138 80Q138 44 158 44Q192 44 240 100Q317 191 387 354Q401 387 404 398T408 412T410 417T412 420T416 421H421Q434
421 449 415T464 400Q464 397 433 250T402 84Q402 50 427 50Q449 50 468 86T495 122Q506 122 506 105Q506 69 464 24T369 -21Q329 -21 329 51Q329 77 338 137T348 200T346 204T334 186Q298 121 255 74Q171 -18 112 -18Q97 -18 88 -8T75 14T70 25T63 6Q50 -45 50
-74T63 -134T76 -170T68 -187T40 -199Z" />
<glyph unicode="&#xb6;" glyph-name="paragraph" horiz-adv-x="505" d="M304 86L301 307Q301 321 271 321T214 324T153 338T97 367T60 421T44 505Q44 597 107 656T243 715L377 716L437 718H449Q452 718 455 714T458 706T451 698T431 689T409 673T398 611L395 94Q395
-25 343 -105T204 -185Q164 -185 137 -170Q129 -166 129 -147T139 -103T159 -78Q168 -78 180 -116Q184 -131 198 -143T237 -155Q303 -155 303 55L304 86ZM302 404L300 517Q300 619 301 634T303 652Q303 693 275 693Q245 693 238 672Q230 646 229 623T227 503Q227
350 275 350Q284 350 293 355T302 369V404ZM371 120L369 678Q369 686 362 691T342 696T328 683Q326 555 326 506L327 356Q327 257 328 142L330 26Q330 -14 329 -30T327 -48Q327 -59 334 -59Q338 -59 346 -38T363 27T371 120Z" />
<glyph unicode="&#xb7;" glyph-name="middot" horiz-adv-x="252" d="M106 275T92 296T77 331T94 366T126 387T157 367T173 330T154 295T126 275Q106 275 92 296Z" />
<glyph unicode="&#xb8;" glyph-name="cedilla" horiz-adv-x="439" d="M170 -79Q170 -76 181 -68T198 -55Q209 -44 217 -44T236 -49T259 -70T272 -105Q272 -148 240 -174T194 -201T180 -194Q180 -191 191 -185Q222 -169 222 -139Q222 -111 183 -93Q170 -87 170 -79Z" />
<glyph unicode="&#xb9;" glyph-name="uni00B9" horiz-adv-x="337" d="M148 673L149 718V726Q149 762 128 762Q120 762 109 756T94 750T88 751Q82 755 82 763T89 776T120 788T156 802T180 816Q200 831 205 831Q215 831 215 817L209 787Q205 687 205 587L203 468Q203
434 220 428Q239 422 263 422Q275 420 275 409T240 397Q240 397 178 398L104 396Q85 396 85 408Q85 422 105 422T132 426T144 460T148 568V673Z" />
<glyph unicode="&#xba;" glyph-name="ordmasculine" horiz-adv-x="363" d="M108 384T69 424T29 519T70 616T177 658T289 622T334 521T288 421T175 384ZM137 638T113 614T88 535T121 443T192 407T253 432T277 507T249 597T168 638Q137 638 113 614Z" />
<glyph unicode="&#xbb;" glyph-name="guillemotright" horiz-adv-x="360" d="M50 84T45 90T39 102T86 160T134 217T88 274T41 331T46 342T55 349T107 308T202 225Q208 221 208 216T201 206Q153 165 106 125T55 84ZM183 84T177 90T171 102T218 159T265 216T219
275T172 332T177 342T187 349T225 320T268 282Q296 257 318 239T340 217T333 206Q279 160 235 122T187 84Z" />
<glyph unicode="&#xbc;" glyph-name="onequarter" horiz-adv-x="913" d="M685 135L613 134Q595 134 595 144T619 187T712 304T789 401T804 420Q818 438 828 438T838 426Q838 426 831 203Q831 194 832 192T848 189T876 197T891 206Q898 206 898 197Q898 194 891
166Q886 135 876 135L841 136Q829 136 829 125L831 45V-8Q831 -30 828 -32T806 -39T779 -43T767 -38T763 -30T764 -23T768 -8T772 19Q776 67 776 132Q776 136 771 136H763L732 135H685ZM660 192Q660 186 678 186H759Q776 186 776 193V199L777 225Q779 277 779 312T776
347T716 274T660 192ZM196 -72Q196 -62 299 93T462 337T581 515T647 614T657 630Q672 650 678 650T690 646T697 635T689 616Q399 183 254 -47Q228 -87 223 -89T213 -91Q196 -91 196 -72ZM148 496L149 541V549Q149 585 128 585Q120 585 109 579T94 573T88 574Q82
578 82 586T89 599T120 611T156 625T180 639Q200 654 205 654Q215 654 215 640L209 610Q205 510 205 410L203 291Q203 257 220 251Q239 245 263 245Q275 243 275 232T240 220Q240 220 178 221L104 219Q85 219 85 231Q85 245 105 245T132 249T144 283T148 391V496Z"
/>
<glyph unicode="&#xbd;" glyph-name="onehalf" horiz-adv-x="913" d="M708 12L638 11Q618 11 618 18V20Q618 26 635 45T686 113T749 223T778 337Q778 362 762 377T718 393T671 384T642 366T628 357T623 363T627 377T641 396T664 418Q696 444 738 444T811 423T841
359T803 247T727 127T689 73T715 69Q746 69 776 69L816 71Q818 71 823 73T834 78T854 94T872 108Q879 108 879 102L836 23Q827 10 815 10L708 12ZM196 -72Q196 -62 299 93T462 337T581 515T647 614T657 630Q672 650 678 650T690 646T697 635T689 616Q399 183 254
-47Q228 -87 223 -89T213 -91Q196 -91 196 -72ZM148 496L149 541V549Q149 585 128 585Q120 585 109 579T94 573T88 574Q82 578 82 586T89 599T120 611T156 625T180 639Q200 654 205 654Q215 654 215 640L209 610Q205 510 205 410L203 291Q203 257 220 251Q239 245
263 245Q275 243 275 232T240 220Q240 220 178 221L104 219Q85 219 85 231Q85 245 105 245T132 249T144 283T148 391V496Z" />
<glyph unicode="&#xbe;" glyph-name="threequarters" horiz-adv-x="913" d="M685 135L613 134Q595 134 595 144T619 187T712 304T789 401T804 420Q818 438 828 438T838 426Q838 426 831 203Q831 194 832 192T848 189T876 197T891 206Q898 206 898 197Q898 194
891 166Q886 135 876 135L841 136Q829 136 829 125L831 45V-8Q831 -30 828 -32T806 -39T779 -43T767 -38T763 -30T764 -23T768 -8T772 19Q776 67 776 132Q776 136 771 136H763L732 135H685ZM660 192Q660 186 678 186H759Q776 186 776 193V199L777 225Q779 277 779
312T776 347T716 274T660 192ZM196 -72Q196 -62 299 93T462 337T581 515T647 614T657 630Q672 650 678 650T690 646T697 635T689 616Q399 183 254 -47Q228 -87 223 -89T213 -91Q196 -91 196 -72ZM147 437L128 435Q120 435 120 444Q120 448 129 453Q139 458 171
483T204 547Q204 570 189 586T152 602T103 585T73 568T69 573Q69 591 105 619T175 647T235 629T262 576Q262 556 253 539T234 513T209 492T193 476Q193 475 200 473Q229 468 250 455Q297 425 297 375Q297 303 250 255T138 206Q103 206 72 221T40 252Q40 262 53
262Q56 262 64 255Q87 235 133 235T206 274T234 351T214 413T147 437Z" />
<glyph unicode="&#xbf;" glyph-name="questiondown" horiz-adv-x="350" d="M177 413L171 459Q171 469 179 469Q194 469 202 441T211 384T166 250T120 112T152 57T206 36T247 49T266 62Q274 62 274 49T243 13T164 -9T77 21T36 105Q36 138 58 180T106 256T155 334T177
413ZM133 575Q108 595 108 603T114 617T129 628T143 638T154 652T167 667T179 673T198 662T217 644T237 625T252 604T217 564Q214 561 205 551Q188 532 181 532T166 539T151 556T143 567L133 575Z" />
<glyph unicode="&#xc0;" glyph-name="Agrave" horiz-adv-x="812" d="M295 900Q295 913 316 919T348 926T371 900T395 845T417 803T432 779L441 764Q444 759 444 755Q444 744 433 744T393 775Q295 878 295 900ZM135 0L49 -4Q20 -4 20 8Q20 22 35 27Q67 39 91 80T211
331T383 701Q390 716 395 720T411 724T425 720T436 693T448 658T463 619T495 538T595 302T686 95T719 53T755 34T781 29T792 13Q792 -2 765 -2L675 4L582 0Q551 0 543 2T534 13T542 25T559 31T576 40T584 65T559 151T517 251Q508 268 476 268L355 266H302Q257 266
246 261T227 240T205 196T186 156T174 128Q161 98 161 78T172 46T198 32Q235 29 235 13Q235 6 232 3T218 -1L135 0ZM367 570T319 460T271 337T280 322T322 319H353L448 320Q487 320 487 334T438 459T376 570Q367 570 319 460Z" />
<glyph unicode="&#xc1;" glyph-name="Aacute" horiz-adv-x="812" d="M367 755Q367 760 374 770Q406 818 442 907Q450 926 462 926T494 920T515 900Q515 877 418 775Q389 744 378 744T367 755ZM135 0L49 -4Q20 -4 20 8Q20 22 35 27Q67 39 91 80T211 331T383 701Q390
716 395 720T411 724T425 720T436 693T448 658T463 619T495 538T595 302T686 95T719 53T755 34T781 29T792 13Q792 -2 765 -2L675 4L582 0Q551 0 543 2T534 13T542 25T559 31T576 40T584 65T559 151T517 251Q508 268 476 268L355 266H302Q257 266 246 261T227 240T205
196T186 156T174 128Q161 98 161 78T172 46T198 32Q235 29 235 13Q235 6 232 3T218 -1L135 0ZM367 570T319 460T271 337T280 322T322 319H353L448 320Q487 320 487 334T438 459T376 570Q367 570 319 460Z" />
<glyph unicode="&#xc2;" glyph-name="Acircumflex" horiz-adv-x="812" d="M293 763Q293 764 297 772Q359 863 368 883T380 906Q385 912 391 912H416Q427 912 433 901Q458 857 488 813T519 764Q519 756 510 756T455 798T404 841T355 799T302 757T293 763ZM135 0L49
-4Q20 -4 20 8Q20 22 35 27Q67 39 91 80T211 331T383 701Q390 716 395 720T411 724T425 720T436 693T448 658T463 619T495 538T595 302T686 95T719 53T755 34T781 29T792 13Q792 -2 765 -2L675 4L582 0Q551 0 543 2T534 13T542 25T559 31T576 40T584 65T559 151T517
251Q508 268 476 268L355 266H302Q257 266 246 261T227 240T205 196T186 156T174 128Q161 98 161 78T172 46T198 32Q235 29 235 13Q235 6 232 3T218 -1L135 0ZM367 570T319 460T271 337T280 322T322 319H353L448 320Q487 320 487 334T438 459T376 570Q367 570 319
460Z" />
<glyph unicode="&#xc3;" glyph-name="Atilde" horiz-adv-x="812" d="M258 794Q258 811 291 855T352 900T417 876T477 852T519 880T542 908Q552 908 552 893T519 836T458 794T391 818T333 842T302 828T280 800T268 786Q258 786 258 794ZM135 0L49 -4Q20 -4 20 8Q20
22 35 27Q67 39 91 80T211 331T383 701Q390 716 395 720T411 724T425 720T436 693T448 658T463 619T495 538T595 302T686 95T719 53T755 34T781 29T792 13Q792 -2 765 -2L675 4L582 0Q551 0 543 2T534 13T542 25T559 31T576 40T584 65T559 151T517 251Q508 268
476 268L355 266H302Q257 266 246 261T227 240T205 196T186 156T174 128Q161 98 161 78T172 46T198 32Q235 29 235 13Q235 6 232 3T218 -1L135 0ZM367 570T319 460T271 337T280 322T322 319H353L448 320Q487 320 487 334T438 459T376 570Q367 570 319 460Z" />
<glyph unicode="&#xc4;" glyph-name="Adieresis" horiz-adv-x="812" d="M289 841T289 855T304 887T336 906T368 889T384 855T367 821T341 802Q321 802 305 821ZM449 841T449 855T464 887T496 906T528 889T544 855T527 821T500 802Q480 802 465 821ZM135 0L49 -4Q20
-4 20 8Q20 22 35 27Q67 39 91 80T211 331T383 701Q390 716 395 720T411 724T425 720T436 693T448 658T463 619T495 538T595 302T686 95T719 53T755 34T781 29T792 13Q792 -2 765 -2L675 4L582 0Q551 0 543 2T534 13T542 25T559 31T576 40T584 65T559 151T517 251Q508
268 476 268L355 266H302Q257 266 246 261T227 240T205 196T186 156T174 128Q161 98 161 78T172 46T198 32Q235 29 235 13Q235 6 232 3T218 -1L135 0ZM367 570T319 460T271 337T280 322T322 319H353L448 320Q487 320 487 334T438 459T376 570Q367 570 319 460Z"
/>
<glyph unicode="&#xc5;" glyph-name="Aring" horiz-adv-x="812" d="M338 807T334 823T329 860T352 906T409 932T462 905T481 847T453 795T400 774T357 790ZM392 893T380 882T367 853T378 825T400 813T418 815T434 827T443 852Q443 893 406 893Q392 893 380 882ZM135
0L49 -4Q20 -4 20 8Q20 22 35 27Q67 39 91 80T211 331T383 701Q390 716 395 720T411 724T425 720T436 693T448 658T463 619T495 538T595 302T686 95T719 53T755 34T781 29T792 13Q792 -2 765 -2L675 4L582 0Q551 0 543 2T534 13T542 25T559 31T576 40T584 65T559
151T517 251Q508 268 476 268L355 266H302Q257 266 246 261T227 240T205 196T186 156T174 128Q161 98 161 78T172 46T198 32Q235 29 235 13Q235 6 232 3T218 -1L135 0ZM367 570T319 460T271 337T280 322T322 319H353L448 320Q487 320 487 334T438 459T376 570Q367
570 319 460Z" />
<glyph unicode="&#xc6;" glyph-name="AE" horiz-adv-x="993" d="M135 0L49 -4Q20 -4 20 8Q20 22 36 27Q67 39 91 76T213 304T389 642Q394 652 394 661Q394 675 342 680Q319 681 319 699Q319 714 349 714Q356 714 483 711T708 707L908 710Q926 710 926 687Q926
681 921 648T915 595Q915 563 900 563T884 587T867 633T824 656Q734 663 687 663H661Q609 663 600 655T589 598T586 435Q586 385 604 384H703Q762 384 782 388T815 401T834 420T841 438Q843 457 856 457Q865 457 867 454T869 443T865 395T860 336L864 275Q864 250
857 250Q843 250 833 282T810 323Q789 337 736 337H664L632 338H626Q585 338 585 319L583 175V135Q583 63 607 56T649 48Q738 48 800 58T889 82T929 109T948 133T961 143Q973 143 973 126Q973 83 930 39T854 -5Q782 -5 692 0T580 5L443 -4Q423 -4 423 6V18Q423
24 432 26Q444 27 467 38T497 83T505 230V258Q505 263 499 263L415 265H384L308 266Q269 266 258 261T239 241T221 206T204 175L192 150Q166 98 166 74T183 40T218 28T236 14Q236 -1 219 -1L135 0ZM290 335Q290 319 340 319H431Q483 319 493 323T504 348V602Q504
652 490 664Q483 669 471 669T445 648Q413 593 352 469T290 335Z" />
<glyph unicode="&#xc7;" glyph-name="Ccedilla" horiz-adv-x="807" d="M398 -79Q398 -76 409 -68T426 -55Q437 -44 445 -44T464 -49T487 -70T500 -105Q500 -148 468 -174T422 -201T408 -194Q408 -191 419 -185Q450 -169 450 -139Q450 -111 411 -93Q398 -87 398
-79ZM44 433T86 520T215 660T423 714Q484 714 546 696T645 660L682 641Q685 641 692 646T703 651T713 647T718 625T722 574T729 520T732 495Q732 477 720 477Q711 477 703 491Q606 673 423 673Q298 673 218 593T138 384Q138 240 212 138Q250 86 316 56T470 26Q614
26 712 176Q716 183 727 183Q736 183 736 171T733 140T724 99T718 71Q716 60 702 53Q648 27 618 14Q538 -20 448 -20T287 1T173 56T98 136Q44 217 44 325Z" />
<glyph unicode="&#xc8;" glyph-name="Egrave" horiz-adv-x="604" d="M198 900Q198 913 219 919T251 926T274 900T298 845T320 803T335 779L344 764Q347 759 347 755Q347 744 336 744T296 775Q198 878 198 900ZM116 355L119 528Q119 555 117 619Q116 648 92 664T36
681Q20 681 20 699Q20 713 48 713L75 711L319 706L519 710Q538 710 538 687Q538 681 532 648T526 595Q526 563 511 563T495 587T478 633T436 656Q346 663 298 663H272Q220 663 212 656Q197 643 197 435Q197 385 216 384H314Q374 384 394 388Q446 398 453 440Q456
457 466 457T478 454T480 441L472 336L475 275Q475 250 468 250Q453 250 446 274Q432 316 421 323Q400 337 348 337H276L244 338H237Q196 338 196 319L194 175V135Q194 63 218 56T261 48Q411 48 478 72Q537 94 550 118Q562 143 572 143Q584 143 584 126Q584 83
541 39T466 -5Q394 -5 304 0T191 5L55 -4Q34 -4 34 6V18Q34 24 44 26Q55 27 78 38T108 84T116 231V355Z" />
<glyph unicode="&#xc9;" glyph-name="Eacute" horiz-adv-x="604" d="M270 755Q270 760 277 770Q309 818 345 907Q353 926 365 926T397 920T418 900Q418 877 321 775Q292 744 281 744T270 755ZM116 355L119 528Q119 555 117 619Q116 648 92 664T36 681Q20 681 20
699Q20 713 48 713L75 711L319 706L519 710Q538 710 538 687Q538 681 532 648T526 595Q526 563 511 563T495 587T478 633T436 656Q346 663 298 663H272Q220 663 212 656Q197 643 197 435Q197 385 216 384H314Q374 384 394 388Q446 398 453 440Q456 457 466 457T478
454T480 441L472 336L475 275Q475 250 468 250Q453 250 446 274Q432 316 421 323Q400 337 348 337H276L244 338H237Q196 338 196 319L194 175V135Q194 63 218 56T261 48Q411 48 478 72Q537 94 550 118Q562 143 572 143Q584 143 584 126Q584 83 541 39T466 -5Q394
-5 304 0T191 5L55 -4Q34 -4 34 6V18Q34 24 44 26Q55 27 78 38T108 84T116 231V355Z" />
<glyph unicode="&#xca;" glyph-name="Ecircumflex" horiz-adv-x="604" d="M196 763Q196 764 200 772Q262 863 271 883T283 906Q288 912 294 912H319Q330 912 336 901Q361 857 391 813T422 764Q422 756 413 756T358 798T307 841T258 799T205 757T196 763ZM116 355L119
528Q119 555 117 619Q116 648 92 664T36 681Q20 681 20 699Q20 713 48 713L75 711L319 706L519 710Q538 710 538 687Q538 681 532 648T526 595Q526 563 511 563T495 587T478 633T436 656Q346 663 298 663H272Q220 663 212 656Q197 643 197 435Q197 385 216 384H314Q374
384 394 388Q446 398 453 440Q456 457 466 457T478 454T480 441L472 336L475 275Q475 250 468 250Q453 250 446 274Q432 316 421 323Q400 337 348 337H276L244 338H237Q196 338 196 319L194 175V135Q194 63 218 56T261 48Q411 48 478 72Q537 94 550 118Q562 143
572 143Q584 143 584 126Q584 83 541 39T466 -5Q394 -5 304 0T191 5L55 -4Q34 -4 34 6V18Q34 24 44 26Q55 27 78 38T108 84T116 231V355Z" />
<glyph unicode="&#xcb;" glyph-name="Edieresis" horiz-adv-x="604" d="M192 841T192 855T207 887T239 906T271 889T287 855T270 821T244 802Q224 802 208 821ZM352 841T352 855T367 887T399 906T431 889T447 855T430 821T403 802Q383 802 368 821ZM116 355L119
528Q119 555 117 619Q116 648 92 664T36 681Q20 681 20 699Q20 713 48 713L75 711L319 706L519 710Q538 710 538 687Q538 681 532 648T526 595Q526 563 511 563T495 587T478 633T436 656Q346 663 298 663H272Q220 663 212 656Q197 643 197 435Q197 385 216 384H314Q374
384 394 388Q446 398 453 440Q456 457 466 457T478 454T480 441L472 336L475 275Q475 250 468 250Q453 250 446 274Q432 316 421 323Q400 337 348 337H276L244 338H237Q196 338 196 319L194 175V135Q194 63 218 56T261 48Q411 48 478 72Q537 94 550 118Q562 143
572 143Q584 143 584 126Q584 83 541 39T466 -5Q394 -5 304 0T191 5L55 -4Q34 -4 34 6V18Q34 24 44 26Q55 27 78 38T108 84T116 231V355Z" />
<glyph unicode="&#xcc;" glyph-name="Igrave" horiz-adv-x="328" d="M39 900Q39 913 60 919T92 926T115 900T139 845T161 803T176 779L185 764Q188 759 188 755Q188 744 177 744T137 775Q39 878 39 900ZM119 402L120 510V556Q120 600 117 626T90 666T43 680T20
695T48 710L161 706L249 708Q276 708 276 694Q276 686 230 667Q198 654 198 552L195 182Q195 98 218 64T268 30L288 29Q295 29 302 26T309 14Q309 0 284 0L189 4L79 -1Q34 -1 34 14Q34 28 65 32Q77 33 90 44T106 70T114 191T119 345V402Z" />
<glyph unicode="&#xcd;" glyph-name="Iacute" horiz-adv-x="328" d="M111 755Q111 760 118 770Q150 818 186 907Q194 926 206 926T238 920T259 900Q259 877 162 775Q133 744 122 744T111 755ZM119 402L120 510V556Q120 600 117 626T90 666T43 680T20 695T48 710L161
706L249 708Q276 708 276 694Q276 686 230 667Q198 654 198 552L195 182Q195 98 218 64T268 30L288 29Q295 29 302 26T309 14Q309 0 284 0L189 4L79 -1Q34 -1 34 14Q34 28 65 32Q77 33 90 44T106 70T114 191T119 345V402Z" />
<glyph unicode="&#xce;" glyph-name="Icircumflex" horiz-adv-x="328" d="M37 763Q37 764 41 772Q103 863 112 883T124 906Q129 912 135 912H160Q171 912 177 901Q202 857 232 813T263 764Q263 756 254 756T199 798T148 841T99 799T46 757T37 763ZM119 402L120
510V556Q120 600 117 626T90 666T43 680T20 695T48 710L161 706L249 708Q276 708 276 694Q276 686 230 667Q198 654 198 552L195 182Q195 98 218 64T268 30L288 29Q295 29 302 26T309 14Q309 0 284 0L189 4L79 -1Q34 -1 34 14Q34 28 65 32Q77 33 90 44T106 70T114
191T119 345V402Z" />
<glyph unicode="&#xcf;" glyph-name="Idieresis" horiz-adv-x="328" d="M33 841T33 855T48 887T80 906T112 889T128 855T111 821T85 802Q65 802 49 821ZM193 841T193 855T208 887T240 906T272 889T288 855T271 821T244 802Q224 802 209 821ZM119 402L120 510V556Q120
600 117 626T90 666T43 680T20 695T48 710L161 706L249 708Q276 708 276 694Q276 686 230 667Q198 654 198 552L195 182Q195 98 218 64T268 30L288 29Q295 29 302 26T309 14Q309 0 284 0L189 4L79 -1Q34 -1 34 14Q34 28 65 32Q77 33 90 44T106 70T114 191T119 345V402Z"
/>
<glyph unicode="&#xd0;" glyph-name="Eth" horiz-adv-x="792" d="M114 401L113 623Q113 640 97 657T63 676T40 678T27 684T20 699T28 710T71 712H158L353 716Q498 716 618 634Q676 595 712 532T748 394T739 269T707 180T663 119T607 67T516 18T399 -3L159 2Q124
2 94 0T59 -3Q35 -3 35 10Q35 18 38 21T53 28T70 33Q86 40 99 59T113 98Q113 98 114 324Q114 333 112 336T100 340H35Q23 340 23 361T35 383L100 384Q110 384 112 387T114 401ZM198 322L197 141Q197 101 201 90T207 75T219 65T235 58Q273 49 298 42T361 34H381Q449
34 497 53T589 115Q663 186 663 345Q663 425 632 490T549 594Q444 673 320 673H280Q232 673 216 656Q208 648 207 642T203 619T200 588V546L199 406Q199 392 202 388T220 384H371Q385 384 388 379T392 364T391 350Q388 340 369 340L219 339H209Q201 339 200 337T198
327V322Z" />
<glyph unicode="&#xd1;" glyph-name="Ntilde" horiz-adv-x="798" d="M250 794Q250 811 283 855T344 900T409 876T469 852T511 880T534 908Q544 908 544 893T511 836T450 794T383 818T325 842T294 828T272 800T260 786Q250 786 250 794ZM144 -2L59 -4Q37 -4 37
12Q37 21 50 23T82 39T109 81T126 274T135 511T111 627T33 676Q20 677 20 691Q20 697 27 702T45 708L83 707L132 709Q141 709 153 704T167 694T178 679T202 651T229 618Q365 441 593 191Q599 184 607 175T619 162T627 153Q634 146 638 146Q648 146 648 208V325L646
530V537Q646 629 614 654Q602 663 594 665T571 671Q530 679 530 693T549 708L644 707Q644 707 734 709Q751 709 757 706T764 695T758 684Q750 679 729 672Q696 654 696 559V521L685 26V6Q685 -17 671 -17Q662 -17 655 -10Q323 375 259 447T187 520Q177 520 177
439T173 248T169 128Q169 83 184 60T218 33T251 27T267 13T264 -1T251 -4L144 -2Z" />
<glyph unicode="&#xd2;" glyph-name="Ograve" horiz-adv-x="853" d="M308 900Q308 913 329 919T361 926T384 900T408 845T430 803T445 779L454 764Q457 759 457 755Q457 744 446 744T406 775Q308 878 308 900ZM44 339Q44 507 145 614T431 722Q517 722 586 697T695
636T762 552Q809 470 809 392Q809 256 756 162Q655 -16 417 -16Q298 -16 212 36T85 167T44 339ZM132 390Q132 301 179 208Q204 158 239 119T329 54T449 28Q523 28 595 71Q675 118 708 202Q727 247 727 300Q727 481 632 581T397 682Q287 682 210 608T132 390Z" />
<glyph unicode="&#xd3;" glyph-name="Oacute" horiz-adv-x="853" d="M380 755Q380 760 387 770Q419 818 455 907Q463 926 475 926T507 920T528 900Q528 877 431 775Q402 744 391 744T380 755ZM44 339Q44 507 145 614T431 722Q517 722 586 697T695 636T762 552Q809
470 809 392Q809 256 756 162Q655 -16 417 -16Q298 -16 212 36T85 167T44 339ZM132 390Q132 301 179 208Q204 158 239 119T329 54T449 28Q523 28 595 71Q675 118 708 202Q727 247 727 300Q727 481 632 581T397 682Q287 682 210 608T132 390Z" />
<glyph unicode="&#xd4;" glyph-name="Ocircumflex" horiz-adv-x="853" d="M306 763Q306 764 310 772Q372 863 381 883T393 906Q398 912 404 912H429Q440 912 446 901Q471 857 501 813T532 764Q532 756 523 756T468 798T417 841T368 799T315 757T306 763ZM44 339Q44
507 145 614T431 722Q517 722 586 697T695 636T762 552Q809 470 809 392Q809 256 756 162Q655 -16 417 -16Q298 -16 212 36T85 167T44 339ZM132 390Q132 301 179 208Q204 158 239 119T329 54T449 28Q523 28 595 71Q675 118 708 202Q727 247 727 300Q727 481 632
581T397 682Q287 682 210 608T132 390Z" />
<glyph unicode="&#xd5;" glyph-name="Otilde" horiz-adv-x="853" d="M271 794Q271 811 304 855T365 900T430 876T490 852T532 880T555 908Q565 908 565 893T532 836T471 794T404 818T346 842T315 828T293 800T281 786Q271 786 271 794ZM44 339Q44 507 145 614T431
722Q517 722 586 697T695 636T762 552Q809 470 809 392Q809 256 756 162Q655 -16 417 -16Q298 -16 212 36T85 167T44 339ZM132 390Q132 301 179 208Q204 158 239 119T329 54T449 28Q523 28 595 71Q675 118 708 202Q727 247 727 300Q727 481 632 581T397 682Q287
682 210 608T132 390Z" />
<glyph unicode="&#xd6;" glyph-name="Odieresis" horiz-adv-x="853" d="M302 841T302 855T317 887T349 906T381 889T397 855T380 821T354 802Q334 802 318 821ZM462 841T462 855T477 887T509 906T541 889T557 855T540 821T513 802Q493 802 478 821ZM44 339Q44
507 145 614T431 722Q517 722 586 697T695 636T762 552Q809 470 809 392Q809 256 756 162Q655 -16 417 -16Q298 -16 212 36T85 167T44 339ZM132 390Q132 301 179 208Q204 158 239 119T329 54T449 28Q523 28 595 71Q675 118 708 202Q727 247 727 300Q727 481 632
581T397 682Q287 682 210 608T132 390Z" />
<glyph unicode="&#xd7;" glyph-name="multiply" horiz-adv-x="527" d="M95 347Q88 354 88 358T98 373T115 384T130 376L246 261Q258 249 264 249T276 254L401 379Q407 385 412 385T428 375T438 359T429 344L308 223Q300 215 300 211T308 198L432 74Q438 68 438
62T428 46T412 35T399 42L276 166Q269 173 264 173T247 162L127 42Q120 35 115 35T100 45T89 60T97 74L217 195Q226 204 226 210T219 223L95 347Z" />
<glyph unicode="&#xd8;" glyph-name="Oslash" horiz-adv-x="853" d="M621 808L633 804Q646 800 646 790Q646 785 645 781L614 715Q607 699 607 697Q607 690 618 684Q687 652 732 594Q809 498 809 392Q809 256 756 162Q655 -16 417 -16Q360 -16 328 -8T292 0Q281
0 274 -15L230 -108Q223 -120 215 -120Q187 -120 187 -103Q187 -96 190 -91L236 7Q238 13 238 16T235 22T216 33Q125 83 80 178Q44 254 44 339Q44 507 145 614T431 722Q488 722 518 715T552 708Q562 708 571 725L600 787Q610 808 621 808ZM132 390Q132 268 214
152Q234 123 249 109T271 94T281 104L522 619Q532 639 532 644Q532 659 485 670T397 682Q287 682 210 608T132 390ZM314 68Q314 56 359 42T443 28T520 38T595 71T661 124T708 201T727 307T712 425T676 519T633 579T596 615T578 626T565 605T482 428T362 173T314
68Z" />
<glyph unicode="&#xd9;" glyph-name="Ugrave" horiz-adv-x="815" d="M326 900Q326 913 347 919T379 926T402 900T426 845T448 803T463 779L472 764Q475 759 475 755Q475 744 464 744T424 775Q326 878 326 900ZM114 431L116 575Q116 630 103 650T42 678Q20 681
20 697Q20 705 26 707T43 710L156 706L250 708Q271 708 271 694Q271 685 264 683T247 680T226 673Q201 659 201 580V552L200 336Q200 237 206 207T220 152T239 111T268 78T309 50Q363 28 432 28Q540 28 582 52Q600 62 623 83T660 136Q691 210 691 324L690 536Q690
571 689 591T679 635T657 668T628 679T602 683T592 692Q592 708 612 708L689 706L774 709Q795 709 795 696Q795 688 774 676T747 653Q736 632 736 587L737 520Q737 328 721 226T672 78Q605 -19 435 -19T195 45Q140 96 127 167T114 414V431Z" />
<glyph unicode="&#xda;" glyph-name="Uacute" horiz-adv-x="815" d="M398 755Q398 760 405 770Q437 818 473 907Q481 926 493 926T525 920T546 900Q546 877 449 775Q420 744 409 744T398 755ZM114 431L116 575Q116 630 103 650T42 678Q20 681 20 697Q20 705 26
707T43 710L156 706L250 708Q271 708 271 694Q271 685 264 683T247 680T226 673Q201 659 201 580V552L200 336Q200 237 206 207T220 152T239 111T268 78T309 50Q363 28 432 28Q540 28 582 52Q600 62 623 83T660 136Q691 210 691 324L690 536Q690 571 689 591T679
635T657 668T628 679T602 683T592 692Q592 708 612 708L689 706L774 709Q795 709 795 696Q795 688 774 676T747 653Q736 632 736 587L737 520Q737 328 721 226T672 78Q605 -19 435 -19T195 45Q140 96 127 167T114 414V431Z" />
<glyph unicode="&#xdb;" glyph-name="Ucircumflex" horiz-adv-x="815" d="M324 763Q324 764 328 772Q390 863 399 883T411 906Q416 912 422 912H447Q458 912 464 901Q489 857 519 813T550 764Q550 756 541 756T486 798T435 841T386 799T333 757T324 763ZM114 431L116
575Q116 630 103 650T42 678Q20 681 20 697Q20 705 26 707T43 710L156 706L250 708Q271 708 271 694Q271 685 264 683T247 680T226 673Q201 659 201 580V552L200 336Q200 237 206 207T220 152T239 111T268 78T309 50Q363 28 432 28Q540 28 582 52Q600 62 623 83T660
136Q691 210 691 324L690 536Q690 571 689 591T679 635T657 668T628 679T602 683T592 692Q592 708 612 708L689 706L774 709Q795 709 795 696Q795 688 774 676T747 653Q736 632 736 587L737 520Q737 328 721 226T672 78Q605 -19 435 -19T195 45Q140 96 127 167T114
414V431Z" />
<glyph unicode="&#xdc;" glyph-name="Udieresis" horiz-adv-x="815" d="M320 841T320 855T335 887T367 906T399 889T415 855T398 821T372 802Q352 802 336 821ZM480 841T480 855T495 887T527 906T559 889T575 855T558 821T531 802Q511 802 496 821ZM114 431L116
575Q116 630 103 650T42 678Q20 681 20 697Q20 705 26 707T43 710L156 706L250 708Q271 708 271 694Q271 685 264 683T247 680T226 673Q201 659 201 580V552L200 336Q200 237 206 207T220 152T239 111T268 78T309 50Q363 28 432 28Q540 28 582 52Q600 62 623 83T660
136Q691 210 691 324L690 536Q690 571 689 591T679 635T657 668T628 679T602 683T592 692Q592 708 612 708L689 706L774 709Q795 709 795 696Q795 688 774 676T747 653Q736 632 736 587L737 520Q737 328 721 226T672 78Q605 -19 435 -19T195 45Q140 96 127 167T114
414V431Z" />
<glyph unicode="&#xdd;" glyph-name="Yacute" horiz-adv-x="712" d="M336 755Q336 760 343 770Q375 818 411 907Q419 926 431 926T463 920T484 900Q484 877 387 775Q358 744 347 744T336 755ZM326 89L328 292Q328 334 302 374Q278 412 239 469T170 571T115 641T77
670T42 675T20 687T31 702T82 705L140 703L225 704Q275 704 275 693T254 674T233 657T239 631T252 605T272 576T303 528T357 450T399 401T414 412T439 451T462 488T480 516T496 540T510 561T523 583T532 602Q542 620 542 632Q542 668 496 674Q474 677 471 682T468
693Q468 705 496 705L537 704L643 703Q692 703 692 688Q692 684 686 681T669 673T649 661Q608 629 529 509T436 372T418 331T414 249L415 133V109Q415 76 426 57T448 35T468 31L488 30Q495 30 499 26T503 14T498 3T479 0L379 1L269 -3Q241 -3 241 7T246 20T265
25T284 28Q326 41 326 89Z" />
<glyph unicode="&#xde;" glyph-name="Thorn" horiz-adv-x="568" d="M154 0L60 -4Q29 -4 29 8Q29 21 35 24T44 29T56 32L68 34Q83 37 88 44Q117 82 117 284Q117 437 118 467T120 510V556Q120 600 117 626T90 666T43 680T20 695T48 710L161 706L249 708Q276 708
276 694Q276 686 230 667Q214 660 206 631T198 583T199 563T209 561L309 565Q403 565 471 517T539 380Q539 331 521 293T478 232T420 196Q368 172 328 172T255 180T222 196Q222 211 235 211Q240 211 256 207T290 203T335 209T390 230T436 274T454 343Q454 410 400
467T250 525Q218 525 208 505T197 418V247Q195 247 195 177V156Q195 68 227 47Q256 28 279 31Q319 35 319 12Q319 -4 297 -4L154 0Z" />
<glyph unicode="&#xdf;" glyph-name="germandbls" horiz-adv-x="527" d="M120 -1L36 -4Q20 -4 20 8Q20 19 48 24Q58 26 66 38T75 75V367Q75 368 59 380T42 399Q42 410 58 413T75 423Q75 550 130 636T275 722Q320 722 360 700Q407 673 407 600Q407 559 388 522T346
463Q286 404 286 371T318 309T388 259T458 200T490 119Q490 62 455 22Q424 -14 364 -14Q312 -14 262 11Q258 12 253 14T245 16T238 19T233 22T229 27Q226 32 226 43V130Q226 141 230 148T243 156T254 152T261 133T265 116T271 102T278 86L285 70Q291 57 303 43T322
23Q340 11 365 11T413 30T436 82T415 137T364 180T304 219T253 269T232 328T243 382T271 428T305 473Q345 527 345 586T323 671T267 698Q232 698 210 676T174 625Q146 561 146 433L148 371L146 300Q143 229 143 168V98Q143 58 151 42T181 21T203 4Q203 -5 184 -5L120
-1Z" />
<glyph unicode="&#xe0;" glyph-name="agrave" horiz-adv-x="461" d="M112 636Q112 649 133 655T165 662T188 636T212 581T234 539T249 515L258 500Q261 495 261 491Q261 480 250 480T210 511Q112 614 112 636ZM166 -15Q48 -15 48 85Q48 157 108 184Q158 205 261
222Q264 223 269 223T279 225T288 227Q295 230 295 241L297 293Q297 350 264 375T200 401Q128 401 128 341L132 305Q132 285 114 285Q100 285 83 290Q52 300 52 324Q52 363 104 398T210 434T293 424T337 402T360 368Q370 343 370 290T368 195T365 119T373 64T392
36T414 29Q441 27 441 13Q441 -8 378 -8Q352 -8 334 6T307 33T298 47T290 41T271 25T242 7Q205 -15 166 -15ZM288 208L278 206Q255 202 249 201T221 195T191 186T167 174T144 156Q126 128 126 97T146 46T197 25T247 33T275 51T289 78Q295 97 295 127V199Q295 208
288 208Z" />
<glyph unicode="&#xe1;" glyph-name="aacute" horiz-adv-x="461" d="M184 491Q184 496 191 506Q223 554 259 643Q267 662 279 662T311 656T332 636Q332 613 235 511Q206 480 195 480T184 491ZM166 -15Q48 -15 48 85Q48 157 108 184Q158 205 261 222Q264 223 269
223T279 225T288 227Q295 230 295 241L297 293Q297 350 264 375T200 401Q128 401 128 341L132 305Q132 285 114 285Q100 285 83 290Q52 300 52 324Q52 363 104 398T210 434T293 424T337 402T360 368Q370 343 370 290T368 195T365 119T373 64T392 36T414 29Q441
27 441 13Q441 -8 378 -8Q352 -8 334 6T307 33T298 47T290 41T271 25T242 7Q205 -15 166 -15ZM288 208L278 206Q255 202 249 201T221 195T191 186T167 174T144 156Q126 128 126 97T146 46T197 25T247 33T275 51T289 78Q295 97 295 127V199Q295 208 288 208Z" />
<glyph unicode="&#xe2;" glyph-name="acircumflex" horiz-adv-x="461" d="M110 499Q110 500 114 508Q176 599 185 619T197 642Q202 648 208 648H233Q244 648 250 637Q275 593 305 549T336 500Q336 492 327 492T272 534T221 577T172 535T119 493T110 499ZM166 -15Q48
-15 48 85Q48 157 108 184Q158 205 261 222Q264 223 269 223T279 225T288 227Q295 230 295 241L297 293Q297 350 264 375T200 401Q128 401 128 341L132 305Q132 285 114 285Q100 285 83 290Q52 300 52 324Q52 363 104 398T210 434T293 424T337 402T360 368Q370
343 370 290T368 195T365 119T373 64T392 36T414 29Q441 27 441 13Q441 -8 378 -8Q352 -8 334 6T307 33T298 47T290 41T271 25T242 7Q205 -15 166 -15ZM288 208L278 206Q255 202 249 201T221 195T191 186T167 174T144 156Q126 128 126 97T146 46T197 25T247 33T275
51T289 78Q295 97 295 127V199Q295 208 288 208Z" />
<glyph unicode="&#xe3;" glyph-name="atilde" horiz-adv-x="461" d="M75 530Q75 547 108 591T169 636T234 612T294 588T336 616T359 644Q369 644 369 629T336 572T275 530T208 554T150 578T119 564T97 536T85 522Q75 522 75 530ZM166 -15Q48 -15 48 85Q48 157
108 184Q158 205 261 222Q264 223 269 223T279 225T288 227Q295 230 295 241L297 293Q297 350 264 375T200 401Q128 401 128 341L132 305Q132 285 114 285Q100 285 83 290Q52 300 52 324Q52 363 104 398T210 434T293 424T337 402T360 368Q370 343 370 290T368 195T365
119T373 64T392 36T414 29Q441 27 441 13Q441 -8 378 -8Q352 -8 334 6T307 33T298 47T290 41T271 25T242 7Q205 -15 166 -15ZM288 208L278 206Q255 202 249 201T221 195T191 186T167 174T144 156Q126 128 126 97T146 46T197 25T247 33T275 51T289 78Q295 97 295
127V199Q295 208 288 208Z" />
<glyph unicode="&#xe4;" glyph-name="adieresis" horiz-adv-x="461" d="M106 577T106 591T121 623T153 642T185 625T201 591T184 557T158 538Q138 538 122 557ZM266 577T266 591T281 623T313 642T345 625T361 591T344 557T317 538Q297 538 282 557ZM166 -15Q48
-15 48 85Q48 157 108 184Q158 205 261 222Q264 223 269 223T279 225T288 227Q295 230 295 241L297 293Q297 350 264 375T200 401Q128 401 128 341L132 305Q132 285 114 285Q100 285 83 290Q52 300 52 324Q52 363 104 398T210 434T293 424T337 402T360 368Q370
343 370 290T368 195T365 119T373 64T392 36T414 29Q441 27 441 13Q441 -8 378 -8Q352 -8 334 6T307 33T298 47T290 41T271 25T242 7Q205 -15 166 -15ZM288 208L278 206Q255 202 249 201T221 195T191 186T167 174T144 156Q126 128 126 97T146 46T197 25T247 33T275
51T289 78Q295 97 295 127V199Q295 208 288 208Z" />
<glyph unicode="&#xe5;" glyph-name="aring" horiz-adv-x="461" d="M155 543T151 559T146 596T169 642T226 668T279 641T298 583T270 531T217 510T174 526ZM209 629T197 618T184 589T195 561T217 549T235 551T251 563T260 588Q260 629 223 629Q209 629 197 618ZM166
-15Q48 -15 48 85Q48 157 108 184Q158 205 261 222Q264 223 269 223T279 225T288 227Q295 230 295 241L297 293Q297 350 264 375T200 401Q128 401 128 341L132 305Q132 285 114 285Q100 285 83 290Q52 300 52 324Q52 363 104 398T210 434T293 424T337 402T360 368Q370
343 370 290T368 195T365 119T373 64T392 36T414 29Q441 27 441 13Q441 -8 378 -8Q352 -8 334 6T307 33T298 47T290 41T271 25T242 7Q205 -15 166 -15ZM288 208L278 206Q255 202 249 201T221 195T191 186T167 174T144 156Q126 128 126 97T146 46T197 25T247 33T275
51T289 78Q295 97 295 127V199Q295 208 288 208Z" />
<glyph unicode="&#xe6;" glyph-name="ae" horiz-adv-x="723" d="M166 -15Q48 -15 48 85Q48 156 108 184Q154 204 212 214T281 226T294 236T297 288T278 358Q248 401 200 401Q128 401 128 341L132 305Q132 285 114 285Q100 285 83 290Q52 300 52 324Q52 363 104
398T220 434Q308 434 342 396Q350 387 354 381T359 375T367 381T385 395T412 412Q451 432 496 432T575 417T629 381T661 335Q683 294 683 273Q683 255 642 255H385Q377 255 376 254T374 244Q374 150 424 96T542 42Q584 42 628 64T674 87Q684 87 684 78Q684 66 662
46T620 12Q572 -19 507 -19Q433 -19 388 12Q355 35 342 52T327 69T320 61T301 40T272 14Q232 -15 166 -15ZM126 100Q126 66 146 46T197 25T247 33T275 51T289 78Q295 97 295 127V199Q295 208 291 208Q227 200 190 185Q126 158 126 100ZM393 279L569 285Q583 285
586 287T590 297Q590 327 562 367T484 407T407 368T380 293Q380 279 393 279Z" />
<glyph unicode="&#xe7;" glyph-name="ccedilla" horiz-adv-x="452" d="M203 -79Q203 -76 214 -68T231 -55Q242 -44 250 -44T269 -49T292 -70T305 -105Q305 -148 273 -174T227 -201T213 -194Q213 -191 224 -185Q255 -169 255 -139Q255 -111 216 -93Q203 -87 203
-79ZM152 -21T96 36T39 190T103 358T271 429Q306 429 346 419T388 396Q390 372 390 339T379 305Q369 305 361 318Q344 347 297 368T213 390Q193 390 174 375T143 342Q114 300 114 223T163 89T285 31Q320 31 350 44T396 70T417 83Q428 83 428 73Q428 63 407 43T366
10Q317 -21 246 -21Q152 -21 96 36Z" />
<glyph unicode="&#xe8;" glyph-name="egrave" horiz-adv-x="466" d="M122 636Q122 649 143 655T175 662T198 636T222 581T244 539T259 515L268 500Q271 495 271 491Q271 480 260 480T220 511Q122 614 122 636ZM162 -19T101 35T39 191T95 363T242 432Q284 432 318
417T372 381T404 335Q426 294 426 273Q426 255 385 255H128Q120 255 119 254T117 244Q117 150 167 96T286 42Q328 42 371 64T417 87Q427 87 427 78Q427 66 405 46T363 12Q315 -19 250 -19Q162 -19 101 35ZM136 279L312 285Q326 285 329 287T333 297Q333 327 305
367T227 407T150 368T123 293Q123 279 136 279Z" />
<glyph unicode="&#xe9;" glyph-name="eacute" horiz-adv-x="466" d="M194 491Q194 496 201 506Q233 554 269 643Q277 662 289 662T321 656T342 636Q342 613 245 511Q216 480 205 480T194 491ZM162 -19T101 35T39 191T95 363T242 432Q284 432 318 417T372 381T404
335Q426 294 426 273Q426 255 385 255H128Q120 255 119 254T117 244Q117 150 167 96T286 42Q328 42 371 64T417 87Q427 87 427 78Q427 66 405 46T363 12Q315 -19 250 -19Q162 -19 101 35ZM136 279L312 285Q326 285 329 287T333 297Q333 327 305 367T227 407T150
368T123 293Q123 279 136 279Z" />
<glyph unicode="&#xea;" glyph-name="ecircumflex" horiz-adv-x="466" d="M120 499Q120 500 124 508Q186 599 195 619T207 642Q212 648 218 648H243Q254 648 260 637Q285 593 315 549T346 500Q346 492 337 492T282 534T231 577T182 535T129 493T120 499ZM162 -19T101
35T39 191T95 363T242 432Q284 432 318 417T372 381T404 335Q426 294 426 273Q426 255 385 255H128Q120 255 119 254T117 244Q117 150 167 96T286 42Q328 42 371 64T417 87Q427 87 427 78Q427 66 405 46T363 12Q315 -19 250 -19Q162 -19 101 35ZM136 279L312 285Q326
285 329 287T333 297Q333 327 305 367T227 407T150 368T123 293Q123 279 136 279Z" />
<glyph unicode="&#xeb;" glyph-name="edieresis" horiz-adv-x="466" d="M116 577T116 591T131 623T163 642T195 625T211 591T194 557T168 538Q148 538 132 557ZM276 577T276 591T291 623T323 642T355 625T371 591T354 557T327 538Q307 538 292 557ZM162 -19T101
35T39 191T95 363T242 432Q284 432 318 417T372 381T404 335Q426 294 426 273Q426 255 385 255H128Q120 255 119 254T117 244Q117 150 167 96T286 42Q328 42 371 64T417 87Q427 87 427 78Q427 66 405 46T363 12Q315 -19 250 -19Q162 -19 101 35ZM136 279L312 285Q326
285 329 287T333 297Q333 327 305 367T227 407T150 368T123 293Q123 279 136 279Z" />
<glyph unicode="&#xec;" glyph-name="igrave" horiz-adv-x="284" d="M14 636Q14 649 35 655T67 662T90 636T114 581T136 539T151 515L160 500Q163 495 163 491Q163 480 152 480T112 511Q14 614 14 636ZM159 -4L88 -6Q48 -6 48 7T63 26Q64 26 67 27Q90 35 97 51T104
206V294Q104 323 97 340T84 361T64 367T43 372T36 380T38 389T48 395T64 402Q92 410 110 418T137 430T150 436Q157 439 167 439Q182 439 182 420L176 372V98Q176 68 185 51T206 30T232 26Q262 24 262 10Q262 -7 245 -7L230 -6L159 -4Z" />
<glyph unicode="&#xed;" glyph-name="iacute" horiz-adv-x="284" d="M86 491Q86 496 93 506Q125 554 161 643Q169 662 181 662T213 656T234 636Q234 613 137 511Q108 480 97 480T86 491ZM159 -4L88 -6Q48 -6 48 7T63 26Q64 26 67 27Q90 35 97 51T104 206V294Q104
323 97 340T84 361T64 367T43 372T36 380T38 389T48 395T64 402Q92 410 110 418T137 430T150 436Q157 439 167 439Q182 439 182 420L176 372V98Q176 68 185 51T206 30T232 26Q262 24 262 10Q262 -7 245 -7L230 -6L159 -4Z" />
<glyph unicode="&#xee;" glyph-name="icircumflex" horiz-adv-x="284" d="M12 499Q12 500 16 508Q78 599 87 619T99 642Q104 648 110 648H135Q146 648 152 637Q177 593 207 549T238 500Q238 492 229 492T174 534T123 577T74 535T21 493T12 499ZM159 -4L88 -6Q48
-6 48 7T63 26Q64 26 67 27Q90 35 97 51T104 206V294Q104 323 97 340T84 361T64 367T43 372T36 380T38 389T48 395T64 402Q92 410 110 418T137 430T150 436Q157 439 167 439Q182 439 182 420L176 372V98Q176 68 185 51T206 30T232 26Q262 24 262 10Q262 -7 245
-7L230 -6L159 -4Z" />
<glyph unicode="&#xef;" glyph-name="idieresis" horiz-adv-x="284" d="M8 577T8 591T23 623T55 642T87 625T103 591T86 557T60 538Q40 538 24 557ZM168 577T168 591T183 623T215 642T247 625T263 591T246 557T219 538Q199 538 184 557ZM159 -4L88 -6Q48 -6 48
7T63 26Q64 26 67 27Q90 35 97 51T104 206V294Q104 323 97 340T84 361T64 367T43 372T36 380T38 389T48 395T64 402Q92 410 110 418T137 430T150 436Q157 439 167 439Q182 439 182 420L176 372V98Q176 68 185 51T206 30T232 26Q262 24 262 10Q262 -7 245 -7L230
-6L159 -4Z" />
<glyph unicode="&#xf0;" glyph-name="eth" horiz-adv-x="547" d="M160 -18T100 47T39 204T101 363T275 431Q312 431 356 407Q369 400 387 383T409 366T413 374T398 416T362 485T320 549T293 578Q292 578 280 574L138 517L136 516H133Q124 516 118 526T112 544T121
556L254 610Q263 613 263 616T254 628Q214 673 174 698T116 731T98 743Q98 755 122 755H146Q175 755 220 730T297 674T332 643T348 647L470 696Q482 701 487 701Q496 701 500 690T505 672Q505 662 485 654L380 612Q366 607 366 605T380 586T416 536T458 461T493
356T508 229Q508 118 440 50T266 -18ZM199 404T159 363T118 228T173 73T291 12T395 55T435 180T412 308Q405 323 382 344T343 376Q302 404 251 404Z" />
<glyph unicode="&#xf1;" glyph-name="ntilde" horiz-adv-x="591" d="M156 530Q156 547 189 591T250 636T315 612T375 588T417 616T440 644Q450 644 450 629T417 572T356 530T289 554T231 578T200 564T178 536T166 522Q156 522 156 530ZM248 0L175 4Q149 4 106
2L63 0Q48 0 48 9T53 20T65 23T80 29Q99 41 101 101T103 181V325Q103 357 92 368T60 379H50Q31 379 31 390Q31 400 52 403T86 409T119 421T152 436T169 442H171Q180 442 180 430L178 387Q178 361 182 361T190 366Q205 387 230 402Q275 430 316 430T389 418T439
387T469 344Q489 304 489 262V252L490 199V97Q490 59 500 45T551 24Q571 21 571 9Q571 -1 551 -1L469 4L392 0Q372 0 372 13Q372 22 384 25L397 28Q419 35 419 95V230Q419 307 381 346T295 386T215 363T176 320T169 167V129Q169 79 179 55T226 28Q236 28 251 25T267
13Q267 0 248 0Z" />
<glyph unicode="&#xf2;" glyph-name="ograve" horiz-adv-x="547" d="M156 636Q156 649 177 655T209 662T232 636T256 581T278 539T293 515L302 500Q305 495 305 491Q305 480 294 480T254 511Q156 614 156 636ZM160 -18T100 47T39 204T101 363T266 431T438 372T508
208T437 43T263 -18ZM199 404T159 363T118 228T173 73T291 12T394 55T433 183T385 335T251 404Q199 404 159 363Z" />
<glyph unicode="&#xf3;" glyph-name="oacute" horiz-adv-x="547" d="M228 491Q228 496 235 506Q267 554 303 643Q311 662 323 662T355 656T376 636Q376 613 279 511Q250 480 239 480T228 491ZM160 -18T100 47T39 204T101 363T266 431T438 372T508 208T437 43T263
-18ZM199 404T159 363T118 228T173 73T291 12T394 55T433 183T385 335T251 404Q199 404 159 363Z" />
<glyph unicode="&#xf4;" glyph-name="ocircumflex" horiz-adv-x="547" d="M154 499Q154 500 158 508Q220 599 229 619T241 642Q246 648 252 648H277Q288 648 294 637Q319 593 349 549T380 500Q380 492 371 492T316 534T265 577T216 535T163 493T154 499ZM160 -18T100
47T39 204T101 363T266 431T438 372T508 208T437 43T263 -18ZM199 404T159 363T118 228T173 73T291 12T394 55T433 183T385 335T251 404Q199 404 159 363Z" />
<glyph unicode="&#xf5;" glyph-name="otilde" horiz-adv-x="547" d="M119 530Q119 547 152 591T213 636T278 612T338 588T380 616T403 644Q413 644 413 629T380 572T319 530T252 554T194 578T163 564T141 536T129 522Q119 522 119 530ZM160 -18T100 47T39 204T101
363T266 431T438 372T508 208T437 43T263 -18ZM199 404T159 363T118 228T173 73T291 12T394 55T433 183T385 335T251 404Q199 404 159 363Z" />
<glyph unicode="&#xf6;" glyph-name="odieresis" horiz-adv-x="547" d="M150 577T150 591T165 623T197 642T229 625T245 591T228 557T202 538Q182 538 166 557ZM310 577T310 591T325 623T357 642T389 625T405 591T388 557T361 538Q341 538 326 557ZM160 -18T100
47T39 204T101 363T266 431T438 372T508 208T437 43T263 -18ZM199 404T159 363T118 228T173 73T291 12T394 55T433 183T385 335T251 404Q199 404 159 363Z" />
<glyph unicode="&#xf7;" glyph-name="divide" horiz-adv-x="527" d="M212 304T212 320T224 348T253 361T282 350T294 321T282 292T253 280T224 292ZM242 60T230 72T217 100T229 129T257 141T286 129T299 100T288 72T259 60ZM32 198Q31 201 31 210T32 224Q33 232
49 232H480Q494 232 496 224Q496 220 496 209T493 193T475 188H48Q33 188 32 198Z" />
<glyph unicode="&#xf8;" glyph-name="oslash" horiz-adv-x="547" d="M115 -86L154 2Q154 8 145 12Q93 41 66 92T39 203Q39 295 101 363T275 431Q300 431 322 427T345 422Q351 422 357 435Q380 484 384 492T395 500T413 495T425 482L393 409Q393 402 403 397Q508
337 508 209Q508 103 437 43T268 -18Q241 -18 223 -15T201 -11T194 -18Q150 -104 147 -105Q139 -105 127 -100T115 -86ZM118 237Q118 185 134 142T165 82T182 65T188 73L325 366Q326 369 328 373T331 379Q331 387 305 395T251 404Q199 404 159 363T118 237ZM221
37Q221 30 247 21T298 12Q355 12 394 55T433 179Q433 228 418 271T388 334T371 353T365 347Q262 120 224 44L221 37Z" />
<glyph unicode="&#xf9;" glyph-name="ugrave" horiz-adv-x="576" d="M170 636Q170 649 191 655T223 662T246 636T270 581T292 539T307 515L316 500Q319 495 319 491Q319 480 308 480T268 511Q170 614 170 636ZM94 156L95 336Q95 356 85 368T65 380H47Q29 380 29
394T48 412T96 416L153 421Q170 421 173 414T176 379T174 303T171 195Q171 107 205 71T282 34Q346 34 375 61T404 156L402 294Q402 344 394 361T360 381T334 395Q334 418 422 418L458 423Q473 423 477 418T482 404T482 380T481 341T479 287Q477 227 477 153T483
57T505 35L531 36Q555 36 555 24T548 9T521 6T461 1T417 -5Q410 -5 406 20T400 46T380 30T329 -2T255 -18Q94 -18 94 156Z" />
<glyph unicode="&#xfa;" glyph-name="uacute" horiz-adv-x="576" d="M242 491Q242 496 249 506Q281 554 317 643Q325 662 337 662T369 656T390 636Q390 613 293 511Q264 480 253 480T242 491ZM94 156L95 336Q95 356 85 368T65 380H47Q29 380 29 394T48 412T96
416L153 421Q170 421 173 414T176 379T174 303T171 195Q171 107 205 71T282 34Q346 34 375 61T404 156L402 294Q402 344 394 361T360 381T334 395Q334 418 422 418L458 423Q473 423 477 418T482 404T482 380T481 341T479 287Q477 227 477 153T483 57T505 35L531
36Q555 36 555 24T548 9T521 6T461 1T417 -5Q410 -5 406 20T400 46T380 30T329 -2T255 -18Q94 -18 94 156Z" />
<glyph unicode="&#xfb;" glyph-name="ucircumflex" horiz-adv-x="576" d="M168 499Q168 500 172 508Q234 599 243 619T255 642Q260 648 266 648H291Q302 648 308 637Q333 593 363 549T394 500Q394 492 385 492T330 534T279 577T230 535T177 493T168 499ZM94 156L95
336Q95 356 85 368T65 380H47Q29 380 29 394T48 412T96 416L153 421Q170 421 173 414T176 379T174 303T171 195Q171 107 205 71T282 34Q346 34 375 61T404 156L402 294Q402 344 394 361T360 381T334 395Q334 418 422 418L458 423Q473 423 477 418T482 404T482 380T481
341T479 287Q477 227 477 153T483 57T505 35L531 36Q555 36 555 24T548 9T521 6T461 1T417 -5Q410 -5 406 20T400 46T380 30T329 -2T255 -18Q94 -18 94 156Z" />
<glyph unicode="&#xfc;" glyph-name="udieresis" horiz-adv-x="576" d="M164 577T164 591T179 623T211 642T243 625T259 591T242 557T216 538Q196 538 180 557ZM324 577T324 591T339 623T371 642T403 625T419 591T402 557T375 538Q355 538 340 557ZM94 156L95
336Q95 356 85 368T65 380H47Q29 380 29 394T48 412T96 416L153 421Q170 421 173 414T176 379T174 303T171 195Q171 107 205 71T282 34Q346 34 375 61T404 156L402 294Q402 344 394 361T360 381T334 395Q334 418 422 418L458 423Q473 423 477 418T482 404T482 380T481
341T479 287Q477 227 477 153T483 57T505 35L531 36Q555 36 555 24T548 9T521 6T461 1T417 -5Q410 -5 406 20T400 46T380 30T329 -2T255 -18Q94 -18 94 156Z" />
<glyph unicode="&#xfd;" glyph-name="yacute" horiz-adv-x="498" d="M221 491Q221 496 228 506Q260 554 296 643Q304 662 316 662T348 656T369 636Q369 613 272 511Q243 480 232 480T221 491ZM204 -190L161 -191Q142 -191 142 -178Q142 -175 164 -147T210 -78T233
-6T176 150T77 353Q66 373 55 384T36 396Q20 398 20 411T40 424L147 422L204 424Q211 424 216 421T222 413Q222 395 198 395H183Q167 395 167 370Q167 340 220 226Q228 209 244 172Q274 104 280 104T326 219T367 356T358 387T336 396Q305 394 305 413Q305 425 324
425L396 424L458 425Q479 425 479 412Q479 402 462 398T438 385Q422 362 384 259L295 22Q284 -7 273 -37T255 -87T241 -125T230 -154T222 -174Q214 -190 207 -190H204Z" />
<glyph unicode="&#xfe;" glyph-name="thorn" horiz-adv-x="544" d="M92 236L95 617Q95 640 88 658T71 681T31 685Q20 685 20 692T21 702T28 707T40 712Q69 718 100 733Q149 756 164 756Q176 756 176 737Q176 733 174 714Q168 655 168 585V529L167 392Q167 364
168 364T188 381T241 416T321 434Q410 434 457 376T505 229T447 66T290 -9Q244 -9 216 0T176 19T162 29T158 21V-102Q158 -122 174 -149Q185 -167 207 -170T246 -174T262 -187T228 -200Q222 -200 196 -198T124 -196L61 -199Q26 -199 26 -190T36 -176T57 -169T79
-145T89 -82V-62L92 214V236ZM158 192L159 142Q159 107 174 82T212 44Q257 21 306 21Q371 21 405 68T439 190T397 324T283 384Q231 384 191 352Q171 336 165 309T158 192Z" />
<glyph unicode="&#xff;" glyph-name="ydieresis" horiz-adv-x="498" d="M143 577T143 591T158 623T190 642T222 625T238 591T221 557T195 538Q175 538 159 557ZM303 577T303 591T318 623T350 642T382 625T398 591T381 557T354 538Q334 538 319 557ZM204 -190L161
-191Q142 -191 142 -178Q142 -175 164 -147T210 -78T233 -6T176 150T77 353Q66 373 55 384T36 396Q20 398 20 411T40 424L147 422L204 424Q211 424 216 421T222 413Q222 395 198 395H183Q167 395 167 370Q167 340 220 226Q228 209 244 172Q274 104 280 104T326
219T367 356T358 387T336 396Q305 394 305 413Q305 425 324 425L396 424L458 425Q479 425 479 412Q479 402 462 398T438 385Q422 362 384 259L295 22Q284 -7 273 -37T255 -87T241 -125T230 -154T222 -174Q214 -190 207 -190H204Z" />
<glyph unicode="&#x2013;" glyph-name="endash" horiz-adv-x="500" d="M10 185T5 189T0 211T7 234T34 238H479Q491 238 495 233T500 207T479 185H38Q10 185 5 189Z" />
<glyph unicode="&#x2014;" glyph-name="emdash" horiz-adv-x="1000" d="M10 185T5 189T0 211T7 234T34 238H979Q991 238 995 233T1000 207T979 185H38Q10 185 5 189Z" />
<glyph unicode="&#x2018;" glyph-name="quoteleft" horiz-adv-x="264" d="M105 447T89 474T73 541T87 617T120 672Q161 713 182 713Q187 713 191 709T195 700T187 688T167 672T148 645T139 600T150 555T174 529Q208 510 208 491Q208 485 194 471T170 446Q156 427
145 427T120 437Z" />
<glyph unicode="&#x2019;" glyph-name="quoteright" horiz-adv-x="264" d="M78 619T67 628T56 646T83 682Q85 684 94 694Q108 713 123 713Q132 713 146 701T169 676Q190 648 190 604T176 523T143 468Q104 427 82 427Q77 427 73 431T69 440T77 452T97 468T116 496T125
541T114 586T91 612Z" />
<glyph unicode="&#x201a;" glyph-name="quotesinglbase" horiz-adv-x="264" d="M78 130T67 139T56 158T83 194Q85 196 94 206Q108 225 123 225Q132 225 146 213T169 188Q190 160 190 116T176 35T143 -21Q104 -62 82 -62Q77 -62 73 -57T69 -48T77 -36T97 -20T116
7T125 52T114 97T91 123Z" />
<glyph unicode="&#x201c;" glyph-name="quotedblleft" horiz-adv-x="459" d="M281 476T275 496T269 548T283 617T316 672Q355 713 377 713Q382 713 386 709T390 700T381 688T362 672T343 645T334 600T345 555T368 529Q403 510 403 491Q403 485 389 471T366 446Q351
427 336 427Q327 427 313 439T290 464ZM105 447T89 474T73 541T87 617T120 672Q161 713 182 713Q187 713 191 709T195 700T187 688T167 672T148 645T139 600T150 555T174 529Q208 510 208 491Q208 485 194 471T170 446Q156 427 145 427T120 437Z" />
<glyph unicode="&#x201d;" glyph-name="quotedblright" horiz-adv-x="459" d="M273 619T262 628T251 646T278 682Q280 684 288 694Q303 713 314 713T339 703T370 666T386 599T372 523T338 468Q298 427 277 427Q272 427 268 431T264 440T273 452T292 468T311 496T320
541T309 586T286 612ZM78 619T67 628T56 646T83 682Q85 684 94 694Q108 713 123 713Q132 713 146 701T169 676Q190 648 190 604T176 523T143 468Q104 427 82 427Q77 427 73 431T69 440T77 452T97 468T116 496T125 541T114 586T91 612Z" />
<glyph unicode="&#x201e;" glyph-name="quotedblbase" horiz-adv-x="459" d="M273 130T262 139T251 158T278 194Q280 196 288 206Q303 225 314 225T339 215T370 178T386 111T372 35T338 -21Q299 -62 277 -62Q272 -62 268 -57T264 -48T273 -36T292 -20T311 7T320
52T309 97T286 123ZM78 130T67 139T56 158T83 194Q85 196 94 206Q108 225 123 225Q132 225 146 213T169 188Q190 160 190 116T176 35T143 -21Q104 -62 82 -62Q77 -62 73 -57T69 -48T77 -36T97 -20T116 7T125 52T114 97T91 123Z" />
<glyph unicode="&#x2022;" glyph-name="bullet" horiz-adv-x="419" d="M59 269T59 331T103 437T209 481T315 437T360 331T316 225T210 180T104 224Z" />
<glyph unicode="&#x2039;" glyph-name="guilsinglleft" horiz-adv-x="228" d="M20 211T20 216T26 227Q67 262 117 305T172 349T182 343T188 331T142 274T95 217T141 160T188 103T182 91T172 84T117 128T25 208Q20 211 20 216Z" />
<glyph unicode="&#x203a;" glyph-name="guilsinglright" horiz-adv-x="228" d="M50 84T45 90T39 102T86 159T133 215T87 273T40 330T45 342T55 349T93 320T136 282Q164 257 186 239T208 217T201 206Q160 171 110 128T55 84Z" />
</font>
</defs>
</svg>
