<?xml version="1.0" standalone="no"?>
<!DOCTYPE svg PUBLIC "-//W3C//DTD SVG 1.1//EN" "http://www.w3.org/Graphics/SVG/1.1/DTD/svg11.dtd">
<svg xmlns="http://www.w3.org/2000/svg">
<defs >
<font id="Bangers" horiz-adv-x="426" ><font-face
    font-family="Bangers"
    units-per-em="1000"
    panose-1="0 0 5 0 0 0 0 0 0 0"
    ascent="883"
    descent="-181"
    alphabetic="0" />
<glyph unicode=" " glyph-name="space" horiz-adv-x="195" />
<glyph unicode="!" glyph-name="exclam" horiz-adv-x="263" d="M173 237T144 235T86 231Q117 354 146 476T208 721Q227 724 251 727T301 734T349 741T389 747Q335 621 291 494T202 237Q173 237 144 235ZM212 61T204 42T179 9T139 -14T84 -23Q63 -23 46 -15T19
6T2 37T-4 71Q-4 90 2 107T20 138T51 161T96 170Q154 170 183 143T212 80Q212 61 204 42Z" />
<glyph unicode="&quot;" glyph-name="quotedbl" horiz-adv-x="421" d="M285 450Q308 509 329 566Q348 616 367 671T400 772Q426 773 446 774T486 778T525 782T570 788Q552 738 530 682T486 575Q462 518 438 460L285 450ZM72 440Q90 507 107 569Q114 596 122 624T137
681T151 734T162 780Q171 779 179 779T195 779Q232 779 265 781T337 783Q319 742 297 687T257 580Q234 521 213 459L72 440Z" />
<glyph unicode="#" glyph-name="numbersign" horiz-adv-x="626" d="M181 9T141 6T59 -5Q70 31 81 67T102 140Q91 140 73 139T44 138L62 303Q65 303 76 303T99 305T123 306T138 307Q140 314 142 326T146 352T150 378T153 398H85Q86 409 88 432T93 479Q96 507 99
538L178 543Q185 576 190 608Q195 636 200 664T209 711Q221 712 239 713T280 717T325 721T369 724Q364 707 358 678T346 619Q339 585 331 547L440 553Q448 589 456 622Q463 650 470 679T482 726Q521 728 559 732T636 741Q630 724 622 694T606 635Q598 601 589 563L689
567Q683 541 677 515Q672 492 667 465T657 411L553 405Q551 396 549 385T544 361T540 336T535 314L645 321Q641 297 638 278T632 240T626 203T619 158Q616 158 611 158T598 159Q587 159 574 159T548 158T525 158T510 157Q503 123 498 89T486 21Q404 23 325 23Q334
57 343 89T359 156Q354 156 338 155T305 153T272 150T250 149Q244 114 237 80T222 11Q181 9 141 6ZM284 307Q288 307 302 308T332 310T364 312T386 313Q389 313 392 325T399 352T405 383T410 404Q406 404 391 403T358 401T325 399T305 398L284 307Z" />
<glyph unicode="$" glyph-name="dollar" horiz-adv-x="442" d="M142 -72Q145 -57 148 -40Q151 -26 155 -10T164 20Q128 23 92 44T21 108L93 254Q100 240 111 226T136 199T165 178T193 170Q219 170 240 186T261 244Q261 262 248 280T217 316T176 355T135 398T104
446T91 499Q91 529 104 557T141 610T195 653T258 686Q266 723 272 747T287 797L424 813L384 712Q411 711 434 704T475 682T503 644T513 589Q513 575 511 562T507 534L363 502Q365 514 366 517T367 524Q367 555 356 568T328 581Q318 581 308 577T288 565T273 547T267
524Q267 508 280 494T314 464T357 431T401 389T434 333T448 258Q448 217 435 182T399 117T344 67T276 34Q272 6 270 -22T267 -61L142 -72Z" />
<glyph unicode="%" glyph-name="percent" horiz-adv-x="799" d="M308 19T275 -29L109 10Q120 21 146 57T207 145T285 258T370 384T455 509T530 622T586 708T616 756Q649 748 682 742Q708 736 736 731T780 724Q737 661 682 579T568 409Q599 441 634 461T710 481Q738
481 759 469T794 435T814 385T820 324Q820 274 805 220T761 122T691 49T597 20Q563 20 539 31T498 61T475 106T468 161Q468 198 477 237T506 315Q459 246 418 184T345 74Q308 19 275 -29ZM202 453T210 440T238 426Q261 426 279 437T310 466T330 505T337 546Q337
570 326 587T290 604Q272 604 256 591T229 558T210 515T202 473Q202 453 210 440ZM434 559T419 505T375 406T306 333T211 304Q177 304 153 315T113 345T90 390T82 445Q82 496 101 552T153 656T230 735T324 766Q353 766 373 753T407 719T427 670T434 608Q434 559
419 505ZM588 169T596 156T624 142Q646 142 664 153T696 182T716 221T723 262Q723 286 712 302T676 319Q658 319 642 306T615 274T596 231T588 188Q588 169 596 156Z" />
<glyph unicode="&amp;" glyph-name="ampersand" horiz-adv-x="535" d="M525 261T509 197T456 87T361 14T219 -13Q166 -13 128 1T66 39T31 95T20 161Q20 198 32 236T67 308T122 367T194 403Q171 415 155 430T126 466T113 514Q113 564 135 606T194 679T279 725T381
742Q428 742 467 721T529 661L447 569Q439 576 432 583T413 596T386 605T346 608Q326 608 311 601T286 581T272 553T267 521Q267 503 272 487T287 458T314 437T351 429Q355 429 361 429T373 431Q373 438 374 444Q375 450 375 457T377 470Q417 470 450 472T523 476Q521
471 521 461V444V436Q526 436 538 437T563 442T593 449L604 347Q586 344 571 342T543 338T525 336Q525 261 509 197ZM179 153T198 133T252 113Q287 113 308 137T342 195T359 266T366 332Q315 328 280 315T222 281T189 236T179 185Q179 153 198 133Z" />
<glyph unicode="&apos;" glyph-name="quotesingle" horiz-adv-x="202" d="M78 461Q92 515 105 569Q117 616 130 672T155 778Q161 777 172 777T194 776T216 775T232 775Q246 775 264 777T301 782T340 789L242 478L78 461Z" />
<glyph unicode="(" glyph-name="parenleft" horiz-adv-x="334" d="M226 -137Q188 -118 155 -84T97 0T58 113T43 251Q43 337 62 422T121 588T218 741T353 877L479 758Q437 722 389 672T300 560T234 422T207 259Q207 213 221 169T257 87T305 23T356 -18L226 -137Z" />
<glyph unicode=")" glyph-name="parenright" horiz-adv-x="331" d="M392 380T358 276T271 88T155 -54T34 -137L-57 2Q8 30 57 82T139 200T189 337T206 480Q206 524 199 565T179 643T145 709T96 760L253 877Q323 798 357 701T392 498Q392 380 358 276Z" />
<glyph unicode="*" glyph-name="asterisk" horiz-adv-x="423" d="M289 221L259 349L188 224L76 273L171 383L76 377L90 496L197 485L132 604L239 669L292 523L373 668L466 597L369 489L469 501L461 370L342 387L415 270L289 221Z" />
<glyph unicode="+" glyph-name="plus" horiz-adv-x="311" d="M104 112Q108 131 113 152T122 194T130 234H50Q52 261 54 285T60 334T66 383H77Q88 383 102 383T130 385T158 388Q161 408 165 428Q168 444 171 464T179 503Q210 505 240 507T300 514Q295 494 290 472T280
432Q275 409 271 389Q285 390 300 392Q313 394 326 395T350 397Q345 375 341 355T332 316T325 276T317 233Q307 233 294 233T268 234Q253 234 238 235Q237 215 234 195Q232 178 230 158T223 119L104 112Z" />
<glyph unicode="," glyph-name="comma" horiz-adv-x="197" d="M-34 -111Q-26 -71 -17 -30T0 50T14 122T24 180Q32 180 49 180T76 179Q90 179 112 179T157 180T205 182Q197 145 184 95T155 -6T123 -111H-34Z" />
<glyph unicode="-" glyph-name="hyphen" horiz-adv-x="360" d="M365 238Q330 239 299 240T235 241T180 242Q162 242 139 242T91 240T41 239L89 416Q116 415 140 414T190 413T232 412Q253 412 282 412T339 414T399 417L365 238Z" />
<glyph unicode="." glyph-name="period" horiz-adv-x="209" d="M208 61T200 42T175 9T135 -14T80 -23Q59 -23 42 -15T15 6T-2 37T-8 71Q-8 90 -2 107T16 138T47 161T92 170Q150 170 179 143T208 80Q208 61 200 42Z" />
<glyph unicode="/" glyph-name="slash" horiz-adv-x="551" d="M254 118T155 -29L-11 10Q11 39 46 88T125 200T218 333T316 477T411 622T496 756Q505 750 525 745T570 735T619 729T660 724Q630 679 593 623T514 505T431 381T348 258Q254 118 155 -29Z" />
<glyph unicode="0" glyph-name="zero" horiz-adv-x="474" d="M525 438T516 381T489 270T444 166T382 81T305 23T212 1Q166 1 134 18T81 64T50 133T40 219Q40 272 52 332T86 449T141 558T210 649T291 711T380 735Q417 735 444 716T490 664T516 587T525 492Q525
438 516 381ZM190 215T202 192T242 169Q279 169 310 194T363 256T397 338T409 423Q409 466 393 496T340 526Q311 526 284 499T237 430T203 340T190 252Q190 215 202 192Z" />
<glyph unicode="1" glyph-name="one" horiz-adv-x="320" d="M125 10T91 4Q111 94 130 184Q138 222 146 264T163 349T180 434T194 513Q170 511 147 507Q128 504 108 501T73 495Q75 509 79 537T88 596Q92 630 98 670Q121 675 162 683Q197 689 255 698T399 721Q378
633 361 550T328 384T298 217T269 43Q246 36 216 29T157 17Q125 10 91 4Z" />
<glyph unicode="2" glyph-name="two" horiz-adv-x="467" d="M89 15T1 9L18 135Q21 166 48 199T114 267T195 334T276 397T337 452T362 497Q362 527 351 543T322 560Q305 560 293 553T274 533T264 507T261 479V469Q261 466 262 465Q235 463 206 460Q181 458 151
455T90 448Q89 456 89 464T88 480Q88 539 111 585T170 663T253 712T346 729Q384 729 418 717T479 681T522 619T538 529Q538 479 512 432T440 339T331 250T194 168Q221 168 263 170T350 175T447 183L431 38Q407 36 377 34T312 30T241 26T170 21Q89 15 1 9Z" />
<glyph unicode="3" glyph-name="three" horiz-adv-x="458" d="M480 210T455 162T388 76T290 13T175 -12Q141 -12 111 -4T59 20T23 62T10 123Q10 146 19 174L194 184Q194 164 204 155T229 146Q242 146 257 152T285 170T307 195T316 226Q316 250 293 270T217 290Q178
290 140 285T76 277L94 425Q124 444 156 465T214 507Q245 529 273 552L112 549L124 721Q215 725 293 729Q326 729 360 730T425 733T479 735T518 736L494 523L294 418Q344 409 379 393T437 356T470 309T480 256Q480 210 455 162Z" />
<glyph unicode="4" glyph-name="four" horiz-adv-x="459" d="M218 -2L238 158L66 145L22 235Q55 334 85 424Q98 462 111 502T136 581T160 653T180 712Q222 712 259 714T340 723Q303 630 272 536T210 345Q209 338 208 333T205 321H276Q277 328 280 343T287 380T295
426T305 477Q315 535 329 604Q361 609 394 613Q421 617 450 620T500 625Q499 615 495 591T485 537T474 473T462 409T452 355T446 321H503L462 161H411L402 30L218 -2Z" />
<glyph unicode="5" glyph-name="five" horiz-adv-x="450" d="M490 280T478 243T446 171T397 103T338 47T272 9T206 -5Q168 -5 138 8T87 44T55 101T44 173Q44 192 45 213T49 257L203 245Q198 230 198 221Q198 201 210 192T238 183Q251 183 264 188T289 206T308
236T315 278Q315 290 312 301T297 321T264 334T209 340Q200 340 191 340T165 337T127 332T69 322Q80 397 96 494T135 715L516 729L496 566Q440 564 383 562T265 557Q263 543 261 521T255 473Q319 473 364 461T437 428T477 379T490 315Q490 280 478 243Z" />
<glyph unicode="6" glyph-name="six" horiz-adv-x="478" d="M503 184T488 145T443 75T368 25T261 5Q219 5 181 20T115 67T69 144T52 253Q52 375 84 466T166 618T274 708T383 738Q420 738 448 724T495 687T523 632T532 565L395 500Q395 537 385 554T358 571Q347
571 333 557T304 518T276 459T252 383Q296 396 334 396Q376 396 407 382T459 343T492 288T503 224Q503 184 488 145ZM229 194T244 175T278 155Q298 155 315 162T344 180T364 206T372 235Q372 251 355 263T294 275Q280 275 265 273T230 265Q229 259 229 253T229
241Q229 194 244 175Z" />
<glyph unicode="7" glyph-name="seven" horiz-adv-x="339" d="M29 9L228 556L80 534L111 710L462 740L208 25L29 9Z" />
<glyph unicode="8" glyph-name="eight" horiz-adv-x="518" d="M533 201T509 154T444 70T347 11T227 -11Q183 -11 145 -2T79 27T36 78T20 154Q20 188 28 224T56 294T106 354T180 397Q147 424 133 453T118 513Q118 557 144 598T213 672T310 724T419 744Q462 744
493 732T546 698T577 649T588 592Q588 565 580 539T557 488T519 444T467 411Q502 374 517 334T533 253Q533 201 509 154ZM165 180T185 161T254 142Q290 142 315 150T355 171T376 202T383 235Q383 286 362 306T311 327Q287 327 261 317T214 289T179 249T165 205Q165
180 185 161ZM275 476T289 459T329 441Q347 441 365 450T397 472T421 502T431 533Q431 546 425 555T408 570T385 578T361 581Q339 581 323 574T296 555T280 528T275 498Q275 476 289 459Z" />
<glyph unicode="9" glyph-name="nine" horiz-adv-x="489" d="M544 369T510 284T420 137T293 41T146 7L161 173Q194 173 224 184T279 218T321 271T348 341Q325 327 300 320T249 313Q215 313 183 327T126 366T86 428T70 510Q70 565 90 608T144 682T220 727T307 743Q351
743 394 727T470 678T523 593T544 471Q544 369 510 284ZM233 496T255 481T303 466Q328 466 349 480T370 521Q370 567 354 582T314 598Q301 598 286 593T260 579T241 558T233 529Q233 496 255 481Z" />
<glyph unicode=":" glyph-name="colon" horiz-adv-x="195" d="M72 336Q80 392 89 445T106 553Q144 553 181 559T255 576Q241 518 231 459T212 340Q180 338 148 337T84 336H72ZM129 63T93 58T20 42Q31 98 40 153T57 264Q79 265 101 265T146 266Q160 266 173 266T199
265Q190 215 182 165T166 64Q129 63 93 58Z" />
<glyph unicode=";" glyph-name="semicolon" horiz-adv-x="262" d="M19 -26Q26 14 35 55T53 135T67 207T77 265Q85 265 102 265T129 264Q143 264 165 264T210 265T258 267Q250 229 237 179T208 79T176 -26H19ZM98 336Q105 392 114 445T132 553Q150 553 167 553T202
553T241 554T290 557Q287 523 283 497T275 445T266 395T257 340Q240 339 221 339T183 338T144 337T109 336H98Z" />
<glyph unicode="&lt;" glyph-name="less" horiz-adv-x="289" d="M278 186T268 134T245 29Q195 80 145 128T47 229Q60 297 69 364T89 499Q163 555 236 612T378 736Q361 679 348 621T322 502Q278 467 233 436T143 371Q180 338 216 305T290 238Q278 186 268 134Z" />
<glyph unicode="=" glyph-name="equal" horiz-adv-x="302" d="M264 256T238 256T184 255Q153 255 124 255T63 256Q68 296 71 333T76 410Q102 408 127 407T179 406Q218 406 256 408T332 416Q319 376 309 337T291 256Q264 256 238 256ZM124 12T86 10T9 3Q22 42 32
81T51 161H133Q169 161 204 161T274 159Q272 122 270 85T266 9Q214 12 162 12Q124 12 86 10Z" />
<glyph unicode="&gt;" glyph-name="greater" horiz-adv-x="295" d="M231 174T157 120T14 1Q29 60 40 120T62 240Q108 274 156 306T251 371Q217 401 183 432T114 493Q119 551 125 607T138 721Q190 667 244 615T352 509Q338 438 327 369T305 229Q231 174 157 120Z" />
<glyph unicode="?" glyph-name="question" horiz-adv-x="438" d="M149 236Q149 290 164 332T203 406T252 464T302 510T340 547T355 580Q355 586 347 596T322 607Q303 607 276 592T220 556T162 508L109 631Q160 677 224 703T354 730Q386 730 414 724T464 702T499
662T512 602Q512 553 496 519T457 458T404 410T347 365T298 314T267 248L208 242L149 236ZM314 70T305 50T278 14T234 -13T174 -23Q134 -23 115 1T96 60Q96 79 103 98T124 134T160 160T208 170Q263 170 288 146T314 91Q314 70 305 50Z" />
<glyph unicode="@" glyph-name="at" horiz-adv-x="987" d="M102 -23Q72 41 59 102T45 223Q45 303 71 370T141 493T246 591T374 661T515 704T658 719Q750 719 818 691T932 618T1000 514T1023 395Q1023 333 1000 274T931 169T816 94T654 65Q637 65 620 67T589 75T566
89T558 109Q558 123 562 136Q524 112 488 98T415 84Q377 84 350 94T304 121T277 161T268 210Q268 252 291 295T356 375T454 440T548 473T599 480T628 481Q661 481 702 472T788 438Q782 418 776 396Q771 378 766 356T755 314L724 188Q808 234 840 287T872 392Q872
437 852 470T798 526T719 559T622 570Q547 570 473 549T338 485T241 382T204 241Q204 172 229 103L102 -23ZM421 218T435 203T490 188Q512 188 536 194T582 212L637 390Q629 392 622 393T607 394Q575 394 542 382T482 350T438 301T421 241Q421 218 435 203Z" />
<glyph unicode="A" glyph-name="A" horiz-adv-x="433" d="M343 16T313 11T259 2Q263 35 267 67Q270 95 272 123T277 171H190L150 27Q128 24 98 21T42 14Q10 10 -21 6Q19 139 58 268Q74 322 91 381T126 498T160 611T188 710Q256 715 326 722T464 741Q461 709 458
662T451 558T445 441T439 321Q434 183 428 28Q398 23 368 20Q343 16 313 11ZM214 271Q218 271 228 271T250 272T272 273T286 275Q286 281 287 295T290 328T294 369T298 412Q302 463 308 522L314 609L299 608L276 522L214 271Z" />
<glyph unicode="B" glyph-name="B" horiz-adv-x="428" d="M452 210T435 175T389 112T322 62T241 26T154 4T68 -4Q31 -4 -1 2Q47 177 75 354T130 712Q182 723 238 731T354 740Q379 740 407 734T458 712T496 670T512 604Q512 566 500 533T468 473T423 427T372 397Q385
390 399 377T425 347T444 305T452 251Q452 210 435 175ZM219 331T216 313T209 277T203 242T195 198Q214 200 238 205T284 220T321 248T336 291Q336 309 327 321T303 341T271 352T239 356Q234 356 231 356T223 355Q219 331 216 313ZM266 586T264 571T258 540T252
507T246 479Q268 483 290 490T329 505T357 524T368 546Q368 561 359 570T336 586T306 594T278 597H268Q266 586 264 571Z" />
<glyph unicode="C" glyph-name="C" horiz-adv-x="414" d="M403 160T374 120T312 52T246 11T182 -2Q151 -2 126 12T81 54T51 123T39 219Q39 313 65 404T138 569T249 686T392 731Q416 731 438 721T476 693T501 649T511 591Q511 585 511 579T510 565L379 530Q367
555 351 555Q335 555 318 537T283 489T250 423T222 349T203 279T195 224Q195 192 203 179T226 166Q237 166 251 174T277 196T299 227T313 261L427 215Q403 160 374 120Z" />
<glyph unicode="D" glyph-name="D" horiz-adv-x="441" d="M509 459T494 401T452 285T386 175T296 83T187 19T60 -5Q46 -5 32 -4T4 0Q31 138 57 269Q67 324 78 383T99 501T118 612T134 708Q177 716 221 723T311 730Q365 730 402 713T463 666T498 596T509 511Q509
459 494 401ZM262 530T250 476T226 367T202 252T179 121Q203 137 225 164T268 228T304 304T333 382T351 453T358 510Q358 547 338 568T273 589Q262 530 250 476Z" />
<glyph unicode="E" glyph-name="E" horiz-adv-x="341" d="M8 -1L139 710L455 737Q448 715 443 692Q438 673 434 653T426 616Q416 615 398 615T358 614T316 613T278 613L243 434Q274 436 301 437Q323 438 346 438T380 439Q376 411 373 384T364 329Q354 328 332
328T286 326Q260 325 229 324L195 140L341 163L331 49L8 -1Z" />
<glyph unicode="F" glyph-name="F" horiz-adv-x="341" d="M95 19T62 12T4 -1Q16 42 27 95T50 208T72 327T93 444Q114 577 135 719L470 736L441 613H284L253 435Q284 436 312 436Q335 436 359 436T396 437Q393 409 389 382T380 328Q367 328 343 328T294 330T236
332L190 37Q156 31 123 24Q95 19 62 12Z" />
<glyph unicode="G" glyph-name="G" horiz-adv-x="499" d="M537 279T504 204T425 77T325 1T223 -24Q186 -24 153 -8T95 40T56 122T42 237Q42 366 79 462T172 622T293 717T414 748Q454 748 483 734T532 697T559 642T568 575L431 549Q422 589 407 606T373 623Q348
623 318 588T262 496T218 373T198 241Q198 179 216 153T264 126Q284 126 305 136T344 164T372 207T385 261L278 245L297 344Q344 350 389 356Q427 361 469 368T544 381Q537 279 504 204Z" />
<glyph unicode="H" glyph-name="H" horiz-adv-x="442" d="M9 -2Q35 136 60 269Q69 325 80 385T101 505T120 619T136 721L298 732Q281 662 265 586T234 438L333 449Q347 520 358 586T387 724Q410 728 438 730T490 735T530 738T547 740Q533 695 521 642T496 531T473
414T453 302Q431 175 412 42L256 24Q269 84 279 141Q289 189 299 241T316 330L219 321Q212 283 203 233T185 138Q174 84 163 30L9 -2Z" />
<glyph unicode="I" glyph-name="I" horiz-adv-x="200" d="M149 20T123 18T69 12T19 5T-6 1Q6 44 18 96T42 206T66 323T89 437Q114 565 138 700L294 725Q268 591 242 462Q231 407 220 348T198 231T177 119T158 20Q149 20 123 18Z" />
<glyph unicode="J" glyph-name="J" horiz-adv-x="279" d="M277 222T264 175T230 89T178 25T105 -1Q77 -1 45 11T-27 52L42 206Q47 196 61 189T93 181Q105 181 114 201T131 247T142 302T148 347Q167 444 184 540T224 733Q269 737 312 745T400 766Q385 715 369 650T338
517T310 384T286 266Q277 222 264 175Z" />
<glyph unicode="K" glyph-name="K" horiz-adv-x="462" d="M7 -1Q37 139 63 271Q73 328 84 389T104 510T121 626T133 729Q156 727 185 726T239 722Q269 720 299 720Q298 716 296 705T291 679T285 644T277 606Q269 562 259 507L265 508Q275 524 293 552T332 613T371
674T403 725Q453 729 503 734T603 747Q556 684 512 623Q493 597 474 569T435 514T400 462T370 416Q392 315 422 221T483 29Q460 30 436 30T389 31Q360 31 333 31T277 29Q268 94 258 165T238 302L220 281Q213 251 205 207T188 122Q179 74 169 23L7 -1Z" />
<glyph unicode="L" glyph-name="L" horiz-adv-x="302" d="M245 32T211 30T141 24T73 14T12 -2Q18 43 26 98T44 212T65 331T87 446Q112 577 140 713L315 736Q288 620 263 510Q252 463 241 413T220 314T202 221T189 141Q214 143 242 143T293 144Q294 125 296 107T300
73T304 47T307 31Q299 31 292 31T276 32Q245 32 211 30Z" />
<glyph unicode="M" glyph-name="M" horiz-adv-x="619" d="M-30 6Q14 139 54 267Q71 321 89 380T125 497T158 609T186 709Q241 709 290 715T396 726Q393 704 390 677T382 619T372 557T360 475T341 350H354Q383 426 402 476T433 559T457 621T481 679T503 728Q528
730 550 733T594 739T638 746T688 755Q678 697 669 636T653 515T640 395T628 283Q616 159 607 41L433 10Q433 15 434 37T438 91T445 162T454 240T464 315T474 378H465Q451 336 434 290T400 195T365 101T335 13Q300 12 275 11T217 7L249 378H234Q232 365 224 335T206
265T183 183T161 104T143 44T135 17L-30 6Z" />
<glyph unicode="N" glyph-name="N" horiz-adv-x="453" d="M6 -5Q34 136 60 270Q70 326 81 387T103 508T121 623T135 725Q166 727 195 729Q221 731 248 732T296 736Q309 659 319 589Q324 559 329 527T340 464T350 407T360 358Q364 379 369 406T380 464T392 527T405
589Q420 659 436 735L558 750Q524 600 498 466Q486 408 475 349T453 235T436 134T425 55Q422 55 402 51T355 40T302 28T262 17Q255 98 247 171Q244 202 240 235T233 298T226 354T219 399Q216 381 211 355T201 300T191 239T180 177Q167 106 152 29L6 -5Z" />
<glyph unicode="O" glyph-name="O" horiz-adv-x="493" d="M560 459T543 387T496 254T429 146T348 65T263 14T181 -4Q148 -4 121 8T74 45T43 108T31 201Q31 257 45 319T83 442T142 558T219 655T309 723T409 748Q454 748 483 730T529 682T553 615T560 541Q560 459
543 387ZM180 216T184 204T195 183T212 168T235 161Q280 161 315 192T373 268T408 364T421 457Q421 469 420 483T414 509T400 529T374 538Q342 538 315 522T267 480T229 420T202 352T185 284T180 227Q180 216 184 204Z" />
<glyph unicode="P" glyph-name="P" horiz-adv-x="379" d="M-3 -1Q27 134 54 263Q65 317 77 377T100 495T121 607T138 706Q167 715 195 721T252 733T308 738Q353 738 383 723T433 683T460 623T468 550Q468 494 448 442T393 350T314 285T221 261H210Q202 227 195
187T183 113Q176 73 170 33L-3 -1ZM265 551T254 492T230 366Q246 370 263 384T296 422T320 477T329 542Q329 579 313 598T276 617Q265 551 254 492Z" />
<glyph unicode="Q" glyph-name="Q" horiz-adv-x="525" d="M507 21T487 -4T451 -48Q431 -20 410 9T368 68L363 76Q317 37 271 17T181 -4Q148 -4 121 8T74 45T43 108T31 201Q31 257 45 319T83 442T142 558T219 655T309 723T409 748Q454 748 483 730T529 682T553
615T560 541Q560 443 536 361T474 212L569 100Q547 71 525 44Q507 21 487 -4ZM180 216T184 204T195 183T212 168T235 161Q270 161 299 180L259 246Q301 278 323 296T356 322Q368 332 370 334L392 309Q405 346 413 385T421 457Q421 469 420 483T414 509T400 529T374
538Q342 538 315 522T267 480T229 420T202 352T185 284T180 227Q180 216 184 204Z" />
<glyph unicode="R" glyph-name="R" horiz-adv-x="444" d="M4 -1Q31 132 56 259Q65 313 76 371T96 487T114 598T128 696Q185 714 251 722T382 731Q421 731 446 722T486 697T507 658T513 609Q513 569 499 531T462 458T408 395T342 348Q360 308 380 261T419 170Q439
120 460 70L305 16Q285 85 269 146Q262 171 255 197T242 247T232 289T227 317L214 313Q208 281 200 235T184 146Q175 95 166 41L4 -1ZM239 433Q258 435 285 449T338 482T381 523T399 560Q399 571 392 577T373 587T345 592T314 593Q303 593 292 593T271 592L239
433Z" />
<glyph unicode="S" glyph-name="S" horiz-adv-x="430" d="M443 191T422 146T364 67T278 16T171 -2Q131 -2 91 19T14 88L88 233Q95 220 109 207T140 183T175 167T207 160Q219 160 232 164T256 176T273 194T280 219Q280 243 265 263T226 302T176 340T127 380T88
427T72 485Q72 537 103 582T180 659T282 711T386 730Q413 730 437 724T478 703T506 666T517 611Q517 597 515 583T510 553L365 511Q367 519 368 527T370 543Q370 573 360 586T332 600Q324 600 313 594T290 579T270 556T262 528Q262 504 275 488T309 458T352 430T396
392T429 335T443 247Q443 191 422 146Z" />
<glyph unicode="T" glyph-name="T" horiz-adv-x="362" d="M90 -1Q113 109 134 216Q143 261 152 310T169 406T184 498T196 580Q173 583 150 582T103 588Q104 604 104 625T105 667Q106 690 107 716Q133 714 159 713T211 712Q262 712 309 714T397 720T477 729L466
675Q461 652 457 628T448 587Q426 581 404 579T359 572Q352 538 344 497T329 411T314 320T300 232Q284 133 270 27L90 -1Z" />
<glyph unicode="U" glyph-name="U" horiz-adv-x="419" d="M402 138T377 98T317 32T243 -6T165 -18Q142 -18 118 -11T75 12T44 50T31 104Q31 108 31 112T32 120Q36 161 45 219T64 340T86 466T107 582T124 668T133 711Q154 713 183 716T237 721Q268 724 298 727Q272
606 252 508Q243 466 235 424T219 347T206 287T197 245T189 205T184 160Q184 144 192 134T212 123Q229 123 240 136T258 169T269 207T276 238Q282 267 289 302T304 376T319 455T334 533Q351 621 367 715L519 725Q519 725 514 699T501 630T484 532T462 418T439 301T416
195Q402 138 377 98Z" />
<glyph unicode="V" glyph-name="V" horiz-adv-x="379" d="M59 -9Q72 131 83 266Q88 322 92 384T100 506T106 623T109 727Q133 727 160 728T210 730T249 732T265 734Q254 618 246 544T234 423T226 333T218 253T211 190H229L341 722Q368 723 396 725Q421 727 448
728T499 732Q485 688 471 635T441 525T411 409T382 295Q350 166 318 30L59 -9Z" />
<glyph unicode="W" glyph-name="W" horiz-adv-x="601" d="M41 -4L117 706Q164 708 205 715T288 726Q288 725 285 706T277 655T266 584T249 475T218 284H233Q259 376 276 434T303 529T323 600T341 663T355 712H364Q382 712 400 714T435 718T470 725Q468 716 466
688T459 621T451 534T443 441T436 354T429 284H447L542 714Q576 719 609 723Q638 727 669 731T724 740Q709 698 694 647T663 538T633 423T604 311Q572 183 542 48L316 10L360 396H348L249 33L41 -4Z" />
<glyph unicode="X" glyph-name="X" horiz-adv-x="411" d="M424 45T412 42T382 34T343 23T301 11T262 0T234 -10Q231 30 229 68Q227 101 225 134T221 189Q212 167 198 134T169 69Q152 32 134 -6L-36 9Q14 98 64 185T156 367Q150 412 145 447T132 516T117 584T101
663L261 729Q266 682 272 625T284 520Q307 570 329 620T376 719L521 680Q495 636 474 599T434 525T396 450T355 364Q361 320 369 281T386 204T405 128T426 46Q424 45 412 42Z" />
<glyph unicode="Y" glyph-name="Y" horiz-adv-x="384" d="M77 15L123 216Q123 259 122 309T117 411T111 509T106 593T102 652T100 674L263 736V614Q263 589 263 563T263 512T262 465T262 428Q275 462 293 512T328 609Q347 664 367 725L522 690Q479 604 438 519Q421
482 402 443T364 364T327 287T294 218Q289 192 282 161T267 102Q258 69 248 36L77 15Z" />
<glyph unicode="Z" glyph-name="Z" horiz-adv-x="431" d="M422 40T393 39T325 36T239 31T149 25T68 17T8 9L9 155L293 542Q276 542 245 539T183 531T128 523L104 521L123 678L532 707L506 569L233 181Q253 181 286 183T356 187T434 192L431 40Q422 40 393 39Z" />
<glyph unicode="[" glyph-name="bracketleft" horiz-adv-x="319" d="M237 18T168 11T21 -5Q50 123 77 256Q89 313 101 375T126 501T150 629T173 753H179Q188 753 200 753T226 755T256 757Q292 758 327 761Q357 763 391 767T454 777Q447 748 440 718T426 659Q413
658 401 658T374 658H319Q308 598 299 551T283 464T269 388T255 311T240 224T222 115Q234 115 251 117T284 121T310 126T321 130L296 25Q237 18 168 11Z" />
<glyph unicode="\" glyph-name="backslash" horiz-adv-x="510" d="M356 8T345 6T323 1Q300 90 276 176T228 351T179 531T127 722H128Q130 722 134 722T144 724T156 726Q183 730 207 734Q228 738 249 743T285 754Q302 695 320 628T357 490T394 352T429 223T460
113T485 32Q479 30 463 27T430 21Q410 17 388 14Q377 12 366 10Q356 8 345 6Z" />
<glyph unicode="]" glyph-name="bracketright" horiz-adv-x="313" d="M46 -21T-20 -29Q-18 -7 -15 15Q-13 33 -10 53T-3 89Q10 92 31 96T73 103Q98 106 124 110L215 621L101 608L109 724L400 761Q372 635 346 504Q334 448 322 386T298 260T274 130T254 5Q246 4
231 2T194 -2T149 -8T102 -14Q46 -21 -20 -29Z" />
<glyph unicode="^" glyph-name="asciicircum" horiz-adv-x="364" d="M361 763T369 710T396 606Q360 610 325 612T253 615Q252 635 252 653T252 690V755Q241 719 231 683T209 612Q195 613 182 613T157 613Q108 613 59 610Q101 673 131 744T195 884Q209 883 221
883T248 883Q277 883 306 884T365 887Q362 870 362 853T361 818Q361 763 369 710Z" />
<glyph unicode="_" glyph-name="underscore" horiz-adv-x="401" d="M385 -11T381 -30T374 -69T368 -109Q321 -109 281 -108T202 -107T136 -106Q89 -106 42 -106T-53 -108Q-48 -97 -44 -79T-37 -41Q-33 -21 -30 3Q16 2 54 1T128 0T188 0Q239 0 289 1T390 4Q385
-11 381 -30Z" />
<glyph unicode="`" glyph-name="grave" horiz-adv-x="358" d="M303 579Q252 591 205 603Q164 612 121 623T49 644Q55 673 63 714T78 795Q87 841 96 889Q135 847 174 807Q207 772 244 732T310 660L303 579Z" />
<glyph unicode="a" glyph-name="a" horiz-adv-x="433" d="M343 16T313 11T259 2Q263 35 267 67Q270 95 272 123T277 171H190L150 27Q128 24 98 21T42 14Q10 10 -21 6Q19 139 58 268Q74 322 91 381T126 498T160 611T188 710Q256 715 326 722T464 741Q461 709 458
662T451 558T445 441T439 321Q434 183 428 28Q398 23 368 20Q343 16 313 11ZM214 271Q218 271 228 271T250 272T272 273T286 275Q286 281 287 295T290 328T294 369T298 412Q302 463 308 522L314 609L299 608L276 522L214 271Z" />
<glyph unicode="b" glyph-name="b" horiz-adv-x="428" d="M452 210T435 175T389 112T322 62T241 26T154 4T68 -4Q31 -4 -1 2Q47 177 75 354T130 712Q182 723 238 731T354 740Q379 740 407 734T458 712T496 670T512 604Q512 566 500 533T468 473T423 427T372 397Q385
390 399 377T425 347T444 305T452 251Q452 210 435 175ZM219 331T216 313T209 277T203 242T195 198Q214 200 238 205T284 220T321 248T336 291Q336 309 327 321T303 341T271 352T239 356Q234 356 231 356T223 355Q219 331 216 313ZM266 586T264 571T258 540T252
507T246 479Q268 483 290 490T329 505T357 524T368 546Q368 561 359 570T336 586T306 594T278 597H268Q266 586 264 571Z" />
<glyph unicode="c" glyph-name="c" horiz-adv-x="414" d="M403 160T374 120T312 52T246 11T182 -2Q151 -2 126 12T81 54T51 123T39 219Q39 313 65 404T138 569T249 686T392 731Q416 731 438 721T476 693T501 649T511 591Q511 585 511 579T510 565L379 530Q367
555 351 555Q335 555 318 537T283 489T250 423T222 349T203 279T195 224Q195 192 203 179T226 166Q237 166 251 174T277 196T299 227T313 261L427 215Q403 160 374 120Z" />
<glyph unicode="d" glyph-name="d" horiz-adv-x="441" d="M509 459T494 401T452 285T386 175T296 83T187 19T60 -5Q46 -5 32 -4T4 0Q31 138 57 269Q67 324 78 383T99 501T118 612T134 708Q177 716 221 723T311 730Q365 730 402 713T463 666T498 596T509 511Q509
459 494 401ZM262 530T250 476T226 367T202 252T179 121Q203 137 225 164T268 228T304 304T333 382T351 453T358 510Q358 547 338 568T273 589Q262 530 250 476Z" />
<glyph unicode="e" glyph-name="e" horiz-adv-x="341" d="M8 -1L139 710L455 737Q448 715 443 692Q438 673 434 653T426 616Q416 615 398 615T358 614T316 613T278 613L243 434Q274 436 301 437Q323 438 346 438T380 439Q376 411 373 384T364 329Q354 328 332
328T286 326Q260 325 229 324L195 140L341 163L331 49L8 -1Z" />
<glyph unicode="f" glyph-name="f" horiz-adv-x="341" d="M95 19T62 12T4 -1Q16 42 27 95T50 208T72 327T93 444Q114 577 135 719L470 736L441 613H284L253 435Q284 436 312 436Q335 436 359 436T396 437Q393 409 389 382T380 328Q367 328 343 328T294 330T236
332L190 37Q156 31 123 24Q95 19 62 12Z" />
<glyph unicode="g" glyph-name="g" horiz-adv-x="499" d="M537 279T504 204T425 77T325 1T223 -24Q186 -24 153 -8T95 40T56 122T42 237Q42 366 79 462T172 622T293 717T414 748Q454 748 483 734T532 697T559 642T568 575L431 549Q422 589 407 606T373 623Q348
623 318 588T262 496T218 373T198 241Q198 179 216 153T264 126Q284 126 305 136T344 164T372 207T385 261L278 245L297 344Q344 350 389 356Q427 361 469 368T544 381Q537 279 504 204Z" />
<glyph unicode="h" glyph-name="h" horiz-adv-x="441" d="M8 -2Q36 138 62 271Q72 328 83 389T103 511T121 627T135 730Q158 729 177 728T216 725T254 724T297 723Q280 652 264 581T233 438L332 449Q346 520 357 586T386 724Q409 728 437 730T489 735T529 738T546
740Q532 695 520 642T495 531T472 414T452 302Q430 175 411 42L255 24Q268 84 278 141Q288 189 298 241T315 330L218 321Q211 283 202 233T184 138Q173 84 162 30L8 -2Z" />
<glyph unicode="i" glyph-name="i" horiz-adv-x="202" d="M161 20T135 18T80 12T30 5T5 1Q15 44 25 96T47 206T68 323T87 437Q108 565 129 700L285 725Q262 591 240 462Q231 407 222 348T203 231T185 119T170 20Q161 20 135 18Z" />
<glyph unicode="j" glyph-name="j" horiz-adv-x="279" d="M277 222T264 175T230 89T178 25T105 -1Q77 -1 45 11T-27 52L42 206Q47 196 61 189T93 181Q105 181 114 201T131 247T142 302T148 347Q167 444 184 540T224 733Q269 737 312 745T400 766Q385 715 369 650T338
517T310 384T286 266Q277 222 264 175Z" />
<glyph unicode="k" glyph-name="k" horiz-adv-x="462" d="M7 -1Q37 139 63 271Q73 328 84 389T104 510T121 626T133 729Q156 727 185 726T239 722Q269 720 299 720Q298 716 296 705T291 679T285 644T277 606Q269 562 259 507L265 508Q275 524 293 552T332 613T371
674T403 725Q453 729 503 734T603 747Q556 684 512 623Q493 597 474 569T435 514T400 462T370 416Q392 315 422 221T483 29Q460 30 436 30T389 31Q360 31 333 31T277 29Q268 94 258 165T238 302L220 281Q213 251 205 207T188 122Q179 74 169 23L7 -1Z" />
<glyph unicode="l" glyph-name="l" horiz-adv-x="302" d="M245 32T211 30T141 24T73 14T12 -2Q18 43 26 98T44 212T65 331T87 446Q112 577 140 713L315 736Q288 620 263 510Q252 463 241 413T220 314T202 221T189 141Q214 143 242 143T293 144Q294 125 296 107T300
73T304 47T307 31Q299 31 292 31T276 32Q245 32 211 30Z" />
<glyph unicode="m" glyph-name="m" horiz-adv-x="619" d="M-30 6Q14 139 54 267Q71 321 89 380T125 497T158 609T186 709Q241 709 290 715T396 726Q393 704 390 677T382 619T372 557T360 475T341 350H354Q383 426 402 476T433 559T457 621T481 679T503 728Q528
730 550 733T594 739T638 746T688 755Q678 697 669 636T653 515T640 395T628 283Q616 159 607 41L433 10Q433 15 434 37T438 91T445 162T454 240T464 315T474 378H465Q451 336 434 290T400 195T365 101T335 13Q300 12 275 11T217 7L249 378H234Q232 365 224 335T206
265T183 183T161 104T143 44T135 17L-30 6Z" />
<glyph unicode="n" glyph-name="n" horiz-adv-x="452" d="M5 -5Q35 139 62 274Q72 332 83 394T105 516T123 632T135 733Q148 732 157 732T178 732Q192 732 212 732T252 734T295 736Q309 666 320 601Q331 544 342 484T363 382Q367 402 372 428T383 484T394 542T406
601Q420 666 435 735L557 750Q523 597 497 460Q485 401 474 341T452 225T435 122T424 42Q421 42 401 38T354 27T301 15T261 4Q255 84 248 156Q245 187 242 219T234 282T226 338T218 383Q215 364 210 339T200 286T190 228T179 169Q166 102 151 29L5 -5Z" />
<glyph unicode="o" glyph-name="o" horiz-adv-x="493" d="M560 459T543 387T496 254T429 146T348 65T263 14T181 -4Q148 -4 121 8T74 45T43 108T31 201Q31 257 45 319T83 442T142 558T219 655T309 723T409 748Q454 748 483 730T529 682T553 615T560 541Q560 459
543 387ZM180 216T184 204T195 183T212 168T235 161Q280 161 315 192T373 268T408 364T421 457Q421 469 420 483T414 509T400 529T374 538Q342 538 315 522T267 480T229 420T202 352T185 284T180 227Q180 216 184 204Z" />
<glyph unicode="p" glyph-name="p" horiz-adv-x="379" d="M-3 -1Q27 134 54 263Q65 317 77 377T100 495T121 607T138 706Q167 715 195 721T252 733T308 738Q353 738 383 723T433 683T460 623T468 550Q468 494 448 442T393 350T314 285T221 261H210Q202 227 195
187T183 113Q176 73 170 33L-3 -1ZM265 551T254 492T230 366Q246 370 263 384T296 422T320 477T329 542Q329 579 313 598T276 617Q265 551 254 492Z" />
<glyph unicode="q" glyph-name="q" horiz-adv-x="525" d="M507 21T487 -4T451 -48Q431 -20 410 9T368 68L363 76Q317 37 271 17T181 -4Q148 -4 121 8T74 45T43 108T31 201Q31 257 45 319T83 442T142 558T219 655T309 723T409 748Q454 748 483 730T529 682T553
615T560 541Q560 443 536 361T474 212L569 100Q547 71 525 44Q507 21 487 -4ZM180 216T184 204T195 183T212 168T235 161Q270 161 299 180L259 246Q301 278 323 296T356 322Q368 332 370 334L392 309Q405 346 413 385T421 457Q421 469 420 483T414 509T400 529T374
538Q342 538 315 522T267 480T229 420T202 352T185 284T180 227Q180 216 184 204Z" />
<glyph unicode="r" glyph-name="r" horiz-adv-x="444" d="M4 -1Q31 132 56 259Q65 313 76 371T96 487T114 598T128 696Q185 714 251 722T382 731Q421 731 446 722T486 697T507 658T513 609Q513 569 499 531T462 458T408 395T342 348Q360 308 380 261T419 170Q439
120 460 70L305 16Q285 80 269 136Q262 159 255 183T242 230T232 269T227 298L214 294Q208 262 200 219T184 136Q175 89 166 41L4 -1ZM239 433Q258 435 285 449T338 482T381 523T399 560Q399 571 392 577T373 587T345 592T314 593Q303 593 292 593T271 592L239
433Z" />
<glyph unicode="s" glyph-name="s" horiz-adv-x="430" d="M443 191T422 146T364 67T278 16T171 -2Q131 -2 91 19T14 88L88 233Q95 220 109 207T140 183T175 167T207 160Q219 160 232 164T256 176T273 194T280 219Q280 243 265 263T226 302T176 340T127 380T88
427T72 485Q72 537 103 582T180 659T282 711T386 730Q413 730 437 724T478 703T506 666T517 611Q517 597 515 583T510 553L365 511Q367 519 368 527T370 543Q370 573 360 586T332 600Q324 600 313 594T290 579T270 556T262 528Q262 504 275 488T309 458T352 430T396
392T429 335T443 247Q443 191 422 146Z" />
<glyph unicode="t" glyph-name="t" horiz-adv-x="362" d="M90 -1Q113 109 134 216Q143 261 152 310T169 406T184 498T196 580Q173 583 150 582T103 588Q104 604 104 625T105 667Q106 690 107 716Q133 714 159 713T211 712Q262 712 309 714T397 720T477 729L466
675Q461 652 457 628T448 587Q426 581 404 579T359 572Q352 538 344 497T329 411T314 320T300 232Q284 133 270 27L90 -1Z" />
<glyph unicode="u" glyph-name="u" horiz-adv-x="419" d="M402 138T377 98T317 32T243 -6T165 -18Q142 -18 118 -11T75 12T44 50T31 104Q31 108 31 112T32 120Q36 161 45 219T64 340T86 466T107 582T124 668T133 711Q154 713 183 716T237 721Q268 724 298 727Q272
606 252 508Q243 466 235 424T219 347T206 287T197 245T189 205T184 160Q184 144 192 134T212 123Q229 123 240 136T258 169T269 207T276 238Q282 267 289 302T304 376T319 455T334 533Q351 621 367 715L519 725Q519 725 514 699T501 630T484 532T462 418T439 301T416
195Q402 138 377 98Z" />
<glyph unicode="v" glyph-name="v" horiz-adv-x="379" d="M59 -9Q72 131 83 266Q88 322 92 384T100 506T106 623T109 727Q133 727 160 728T210 730T249 732T265 734Q254 618 246 544T234 423T226 333T218 253T211 190H229L341 722Q368 723 396 725Q421 727 448
728T499 732Q485 688 471 635T441 525T411 409T382 295Q350 166 318 30L59 -9Z" />
<glyph unicode="w" glyph-name="w" horiz-adv-x="601" d="M41 -4L117 706Q164 708 205 715T288 726Q288 725 285 706T277 655T266 584T249 475T218 284H233Q259 376 276 434T303 529T323 600T341 663T355 712H364Q382 712 400 714T435 718T470 725Q468 716 466
688T459 621T451 534T443 441T436 354T429 284H447L542 714Q576 719 609 723Q638 727 669 731T724 740Q709 698 694 647T663 538T633 423T604 311Q572 183 542 48L316 10L360 396H348L249 33L41 -4Z" />
<glyph unicode="x" glyph-name="x" horiz-adv-x="411" d="M424 45T412 42T382 34T343 23T301 11T262 0T234 -10Q231 30 229 68Q227 101 225 134T221 189Q212 167 198 134T169 69Q152 32 134 -6L-36 9Q14 98 64 185T156 367Q150 412 145 447T132 516T117 584T101
663L261 729Q266 682 272 625T284 520Q307 570 329 620T376 719L521 680Q495 636 474 599T434 525T396 450T355 364Q361 320 369 281T386 204T405 128T426 46Q424 45 412 42Z" />
<glyph unicode="y" glyph-name="y" horiz-adv-x="384" d="M77 15L123 216Q123 259 122 309T117 411T111 509T106 593T102 652T100 674L263 736V614Q263 589 263 563T263 512T262 465T262 428Q275 462 293 512T328 609Q347 664 367 725L522 690Q479 604 438 519Q421
482 402 443T364 364T327 287T294 218Q289 192 282 161T267 102Q258 69 248 36L77 15Z" />
<glyph unicode="z" glyph-name="z" horiz-adv-x="431" d="M422 40T393 39T325 36T239 31T149 25T68 17T8 9L9 155L293 542Q276 542 245 539T183 531T128 523L104 521L123 678L532 707L506 569L233 181Q253 181 286 183T356 187T434 192L431 40Q422 40 393 39Z" />
<glyph unicode="{" glyph-name="braceleft" horiz-adv-x="281" d="M242 7Q215 21 191 40T150 84T122 138T112 205Q112 227 110 249T101 289T78 319T34 334L52 449H60Q95 449 111 464T137 503T152 559T173 621T217 681T302 731L359 584Q324 581 305 567T276 534T259
491T245 447T221 409T177 384Q195 377 206 365T223 337T230 302T231 266V230Q231 218 237 206T252 183T272 164T295 152L242 7Z" />
<glyph unicode="|" glyph-name="bar" horiz-adv-x="248" d="M179 0T153 -2T98 -8T47 -15T22 -19Q32 24 44 80T68 198T92 325T115 450Q141 593 167 746L320 758Q292 608 267 469Q256 409 245 345T223 220T203 102T188 0Q179 0 153 -2Z" />
<glyph unicode="}" glyph-name="braceright" horiz-adv-x="273" d="M229 160T211 129T166 72T104 30T30 7L19 143Q34 146 51 151T83 167T109 192T123 230Q125 249 130 271T143 313T166 350T201 374Q177 384 167 404T155 450T153 502T150 552T131 592T85 613L174
731Q208 716 228 697T258 655T271 610T274 564Q274 551 274 538T273 514Q273 497 275 484T284 461T303 445T337 439H345L330 324Q307 321 290 311T262 284T245 245T234 195Q229 160 211 129Z" />
<glyph unicode="~" glyph-name="asciitilde" horiz-adv-x="406" d="M194 540T180 521T151 451Q132 460 117 468T90 482T68 495Q69 495 73 509T85 544T107 590T139 636T184 672T243 687Q271 687 291 674T327 645T354 617T377 604Q389 604 401 622T429 690Q467 672
489 660Q502 653 512 646Q502 592 480 550Q472 531 459 514T430 484T394 462T350 453Q331 453 313 466T278 496T244 526T211 540Q194 540 180 521Z" />
<glyph unicode="&#xa0;" glyph-name="uni00A0" horiz-adv-x="195" />
<glyph unicode="&#xa1;" glyph-name="exclamdown" horiz-adv-x="264" d="M144 512T173 514T231 518Q200 395 171 273T109 28Q90 25 66 22T16 15T-32 8T-72 2Q-18 128 26 255T115 512Q144 512 173 514ZM105 688T113 707T138 740T178 763T233 772Q254 772 271 764T298
743T315 712T321 678Q321 659 315 642T297 611T266 588T221 579Q163 579 134 606T105 669Q105 688 113 707Z" />
<glyph unicode="&#xa2;" glyph-name="cent" horiz-adv-x="446" d="M229 -79T217 -80T188 -83T166 -85T158 -86Q165 -58 168 -39T175 0Q123 10 89 65T55 219Q55 301 75 382T132 533T220 651T335 721Q337 736 339 749T343 773Q345 785 347 795L441 797Q439 790 437
779Q435 771 432 758T426 729Q470 723 498 686T526 591Q526 585 526 579T525 565L375 521V532Q375 541 374 552T371 573T366 591T358 598Q341 598 324 579T290 527T259 454T235 372T218 291T211 224Q211 200 215 187T230 173Q249 173 264 185T291 217T312 258T328
300L442 254Q409 163 366 106T276 21Q274 2 272 -22T265 -77Q252 -77 239 -78Q229 -79 217 -80Z" />
<glyph unicode="&#xa3;" glyph-name="sterling" horiz-adv-x="401" d="M286 32T244 30T159 24T75 14T0 -2Q2 13 6 35T15 77Q20 102 25 128L50 138Q64 142 80 157T112 196T139 248T161 306Q150 305 139 305T116 305H93L123 435Q132 434 140 434Q146 433 152 433T164
433Q145 509 145 563Q145 610 161 642T205 695T267 723T339 732Q376 732 410 725T471 703Q465 681 458 656T445 610Q438 586 432 563Q419 570 394 578T344 586Q320 586 303 573T285 521Q285 504 292 480T304 433Q323 433 341 433T375 434T405 436L389 304Q376 304
362 305Q351 306 336 306T304 307Q304 291 301 270T289 225T268 180T236 141Q251 142 269 142T307 144T345 145T378 146Q376 114 374 86T372 41Q372 38 372 36T373 31Q361 31 348 31T323 32Q286 32 244 30Z" />
<glyph unicode="&#xa4;" glyph-name="currency" horiz-adv-x="429" d="M389 246Q387 247 383 255Q378 262 370 274T347 313Q321 295 296 285T245 275Q188 275 153 298Q139 284 130 276T115 262L106 253L56 311Q61 315 68 322Q75 328 84 336T107 357Q104 369 102
382T100 410Q100 457 118 507T170 598L122 668Q136 676 154 686T186 708Q193 694 198 687T206 673T214 660T224 645Q249 665 279 677T341 689Q388 689 419 666L456 704Q466 690 481 675T507 650L461 606Q470 574 470 542Q470 494 453 447T404 358Q418 339 427 326T441
305Q448 295 452 291L389 246ZM204 415T218 395T263 375Q287 375 308 390T345 430T370 482T380 534Q380 561 368 579T329 597Q299 597 276 582T237 544T213 495T204 444Q204 415 218 395Z" />
<glyph unicode="&#xa5;" glyph-name="yen" horiz-adv-x="446" d="M101 15L122 108Q105 108 92 108T68 107H47L70 190H141L146 216V248H74L90 331Q98 330 106 330Q114 330 124 330T145 329Q143 391 140 452T132 563Q128 620 123 674L286 736V614Q286 589 286 563T286
512T285 465T285 428Q299 462 317 512T352 609Q370 664 391 725L546 690Q519 633 488 572Q463 520 432 457T371 331Q385 331 396 331T417 333T434 334L401 248H331L317 218L312 189H391L371 108H347Q336 108 322 108T292 109Q287 94 284 81T277 58Q273 46 271 36L101
15Z" />
<glyph unicode="&#xa6;" glyph-name="brokenbar" horiz-adv-x="243" d="M176 0T150 -2T95 -8T44 -15T20 -19Q33 40 49 120T83 289L236 313Q221 226 207 144T185 0Q176 0 150 -2ZM108 426Q120 491 130 549T147 651Q156 703 164 746L317 758Q310 716 300 665Q292
621 282 565T260 443L108 426Z" />
<glyph unicode="&#xa7;" glyph-name="section" horiz-adv-x="439" d="M378 114T362 82T319 28T255 -6T179 -18Q141 -18 102 -4T22 42L67 161Q89 139 120 125T180 110Q195 110 207 120T220 147Q220 168 196 193T143 245T89 303T65 364Q65 414 98 455T202 516Q170
563 170 606Q170 643 190 671T241 718T311 749T388 760Q416 760 441 754T485 734T515 699T526 648Q526 639 524 629T521 608L396 600Q396 628 385 638T358 649Q340 649 324 637T308 608Q308 597 319 587T349 565T388 541T427 510T457 469T469 415Q469 363 435 325T352
262Q365 232 371 206T378 154Q378 114 362 82ZM222 373T233 363T264 340Q280 345 291 360T303 402Q303 413 295 423T273 445Q257 443 240 427T222 387Q222 373 233 363Z" />
<glyph unicode="&#xa8;" glyph-name="dieresis" horiz-adv-x="517" d="M468 784T461 768T441 738T408 717T361 708Q321 708 301 734T281 794Q281 811 286 827T303 855T331 875T372 883Q420 883 444 858T468 802Q468 784 461 768ZM235 784T229 768T208 738T174
717T129 708Q89 708 69 734T49 794Q49 811 54 827T71 855T99 875T139 883Q188 883 211 858T235 802Q235 784 229 768Z" />
<glyph unicode="&#xa9;" glyph-name="copyright" horiz-adv-x="575" d="M630 427T595 344T505 203T385 112T262 80Q218 80 181 91T117 127T75 188T60 276Q60 327 70 382T101 491T155 593T230 677T328 734T450 755Q498 755 531 738T587 691T619 619T630 529Q630
427 595 344ZM404 273T363 234T282 194Q245 194 220 229T195 334Q195 391 211 447T257 547T325 619T412 646Q442 646 463 624T485 562Q485 557 485 553T484 544L393 517V522Q393 533 391 548T383 563Q367 563 351 538T322 476T301 400T292 334Q292 303 304 303Q314
303 323 310T340 330T353 355T363 381L434 353Q404 273 363 234ZM149 280T149 272T150 252T159 224T182 195T216 174T259 165Q322 165 375 199T468 286T528 398T550 508Q550 579 527 625T455 671Q391 671 344 653T262 604T207 534T172 453T154 368T149 291Q149
280 149 272Z" />
<glyph unicode="&#xaa;" glyph-name="ordfeminine" horiz-adv-x="433" d="M343 16T313 11T259 2Q263 35 267 67Q270 95 272 123T277 171H190L150 27Q128 24 98 21T42 14Q10 10 -21 6Q19 139 58 268Q74 322 91 381T126 498T160 611T188 710Q256 715 326 722T464
741Q461 709 458 662T451 558T445 441T439 321Q434 183 428 28Q398 23 368 20Q343 16 313 11ZM214 271Q218 271 228 271T250 272T272 273T286 275Q286 281 287 295T290 328T294 369T298 412Q302 463 308 522L314 609L299 608L276 522L214 271Z" />
<glyph unicode="&#xab;" glyph-name="guillemotleft" horiz-adv-x="465" d="M460 186T450 134T427 29Q386 80 347 128T268 229Q280 297 290 364T310 499Q341 526 380 553T455 603Q496 628 539 651Q530 618 522 584Q516 555 508 521T494 457Q447 426 417 408T363
371Q392 338 417 305T472 238Q460 186 450 134ZM235 186T225 134T202 29Q161 80 122 128T43 229Q56 297 65 364T85 499Q116 526 155 553T230 603Q271 628 314 651Q306 618 298 584Q291 555 283 521T270 457Q223 426 193 408T139 371Q167 338 193 305T247 238Q235
186 225 134Z" />
<glyph unicode="&#xac;" glyph-name="logicalnot" horiz-adv-x="399" d="M237 243Q243 268 250 293Q256 314 263 339T276 390H67L86 479Q162 480 231 482Q261 483 292 484T352 485T406 487T450 489Q439 449 429 409T411 336Q401 297 394 261L237 243Z" />
<glyph unicode="&#xad;" glyph-name="uni00AD" horiz-adv-x="360" d="M365 238Q330 239 299 240T235 241T180 242Q162 242 139 242T91 240T41 239L89 416Q116 415 140 414T190 413T232 412Q253 412 282 412T339 414T399 417L365 238Z" />
<glyph unicode="&#xae;" glyph-name="registered" horiz-adv-x="538" d="M597 449T564 372T480 241T370 157T254 127Q213 127 179 137T119 170T80 227T65 310Q65 357 75 408T104 510T154 604T224 682T315 735T429 755Q473 755 504 739T556 695T587 628T597 545Q597
449 564 372ZM186 226T206 216T251 205Q290 205 324 219T390 259L335 244Q326 278 319 309Q313 334 308 359T302 396L285 393Q280 376 275 353T265 309Q259 283 252 258L172 241Q186 226 206 216ZM149 308T149 296T154 271Q161 297 171 335T191 417T211 505T228
587Q204 558 189 524T165 455T153 386T149 322Q149 308 149 296ZM303 467Q313 468 330 474T364 489T391 511T402 537Q402 547 389 550T359 553Q349 553 341 553T324 552L303 467ZM400 396T412 361T432 301Q475 352 498 413T522 524Q522 558 517 585T501 633T474
665T434 677Q373 677 329 660T253 613Q287 620 325 623T398 627Q430 627 450 622T482 610T498 591T503 566Q503 522 471 484T390 425Q400 396 412 361Z" />
<glyph unicode="&#xaf;" glyph-name="overscore" horiz-adv-x="489" d="M258 710T226 708T162 704T104 699T56 694Q51 711 50 739T49 793V833Q49 843 50 851L424 883L440 721Q361 716 289 712Q258 710 226 708Z" />
<glyph unicode="&#xb0;" glyph-name="degree" horiz-adv-x="238" d="M340 612T331 589T305 548T263 519T206 508Q180 508 160 517T125 544T105 582T98 625Q98 647 105 669T127 708T166 736T221 747Q251 747 273 738T310 714T332 678T340 636Q340 612 331 589ZM167
612T180 595T219 577Q251 577 267 596T283 639Q283 659 269 674T225 690Q196 690 182 673T167 633Q167 612 180 595Z" />
<glyph unicode="&#xb1;" glyph-name="plusminus" horiz-adv-x="367" d="M123 184Q128 199 133 217T141 250L147 284H64Q66 306 68 327T74 370T82 411Q85 411 88 411T96 410Q107 410 121 410T149 412T178 415L185 449Q188 464 191 481T198 514Q230 515 261 516T324
522Q319 506 314 488T304 452Q299 434 294 415Q309 416 324 418Q337 420 351 421T376 424Q365 385 358 354T343 283Q332 283 319 283T291 284Q275 284 260 285Q259 269 256 251Q254 236 251 219T244 186L123 184ZM341 41Q304 41 270 42Q240 42 208 42T152 43Q135
43 111 43T64 42H12L34 138Q63 137 90 137Q112 136 137 136T181 136Q201 136 230 136T287 137T349 139L341 41Z" />
<glyph unicode="&#xb2;" glyph-name="uni00B2" horiz-adv-x="435" d="M118 190T42 188L59 286Q63 310 85 334T139 382T207 431T273 476T324 516T344 550Q344 572 333 585T305 598Q287 598 276 592T258 577T248 557T245 536V527Q245 525 246 524Q224 522 198 521Q177
519 151 517T99 512Q98 518 98 524T97 536Q97 582 117 617T171 678T245 716T328 729Q364 729 398 720T458 691T499 643T515 574Q515 536 493 500T431 430T337 364T220 302Q241 302 276 303T347 306T427 310L410 198Q391 197 365 197T309 195T248 194T188 192Q118
190 42 188Z" />
<glyph unicode="&#xb3;" glyph-name="uni00B3" horiz-adv-x="400" d="M439 314T419 277T364 211T284 162T188 143Q127 143 88 167T48 251Q48 271 56 291L216 299Q216 283 222 277T238 270Q247 270 258 275T277 289T292 309T298 332Q298 352 277 367T207 383Q171
383 137 379T79 373L95 490Q128 508 163 529T229 568Q265 590 298 610L111 607L122 725Q198 728 264 730Q291 731 320 732T373 734T418 735T451 736L430 568L277 484Q321 478 352 465T402 434T430 395T439 351Q439 314 419 277Z" />
<glyph unicode="&#xb4;" glyph-name="acute" horiz-adv-x="353" d="M245 621T177 597T50 550Q49 561 49 570T49 588Q49 604 49 620T50 655Q118 724 178 778T290 889Q295 822 295 764T304 645Q245 621 177 597Z" />
<glyph unicode="&#xb5;" glyph-name="uni00B5" horiz-adv-x="431" d="M519 727L415 194Q395 93 337 37T193 -19Q160 -19 139 -9L121 -87L-13 -111L131 712L298 727L186 184Q183 169 183 154Q183 136 188 125T206 114Q230 114 247 142T271 214L367 715L519 727Z" />
<glyph unicode="&#xb6;" glyph-name="paragraph" horiz-adv-x="448" d="M119 -1Q134 69 148 138Q161 196 174 258T197 368Q143 385 118 423T92 508Q92 548 110 589T162 663T245 717T355 738Q381 738 409 733T461 722T513 706Q502 661 491 609T467 500T444 388T423
280Q398 158 376 33L271 22L334 348H299L227 14L119 -1Z" />
<glyph unicode="&#xb7;" glyph-name="middot" horiz-adv-x="214" d="M265 365T257 346T232 313T192 290T137 281Q116 281 99 289T72 310T55 341T49 375Q49 394 55 411T73 442T104 465T149 474Q207 474 236 447T265 384Q265 365 257 346Z" />
<glyph unicode="&#xb8;" glyph-name="cedilla" horiz-adv-x="316" d="M268 -89T258 -106T229 -137T187 -157T133 -165Q109 -165 87 -156T49 -128L68 -40Q94 -68 121 -68Q143 -68 157 -52T172 -11Q172 1 167 19Q185 17 196 15T217 12T228 10Q268 -29 268 -68Q268
-89 258 -106Z" />
<glyph unicode="&#xb9;" glyph-name="uni00B9" horiz-adv-x="317" d="M151 162T119 157Q133 222 146 290Q158 348 172 416T196 547Q173 545 151 542Q133 540 114 537T80 532Q82 543 85 567T92 617Q96 646 100 679Q122 684 161 689Q195 694 250 702T389 721Q366
608 342 471T290 190Q269 185 240 179T184 168Q151 162 119 157Z" />
<glyph unicode="&#xba;" glyph-name="ordmasculine" horiz-adv-x="493" d="M560 459T543 387T496 254T429 146T348 65T263 14T181 -4Q148 -4 121 8T74 45T43 108T31 201Q31 257 45 319T83 442T142 558T219 655T309 723T409 748Q454 748 483 730T529 682T553 615T560
541Q560 459 543 387ZM180 216T184 204T195 183T212 168T235 161Q280 161 315 192T373 268T408 364T421 457Q421 469 420 483T414 509T400 529T374 538Q342 538 315 522T267 480T229 420T202 352T185 284T180 227Q180 216 184 204Z" />
<glyph unicode="&#xbb;" glyph-name="guillemotright" horiz-adv-x="463" d="M281 53T238 29Q247 63 255 97Q262 126 269 159T283 224Q307 243 325 257T360 284T389 307T414 329Q386 357 360 385T306 442Q317 495 327 547T351 651Q392 601 431 553T510 451Q497
384 488 317T468 182Q437 153 397 127T322 78Q281 53 238 29ZM57 53T14 29Q22 63 30 97Q37 126 44 159T59 224Q82 243 100 257T135 284T164 307T189 329Q161 357 135 385T81 442Q93 495 103 547T126 651Q167 601 206 553T285 451Q272 384 263 317T243 182Q212 153
173 127T98 78Q57 53 14 29Z" />
<glyph unicode="&#xbc;" glyph-name="onequarter" horiz-adv-x="1084" d="M488 118T390 -29L224 10Q245 39 280 88T359 200T452 333T550 477T646 622T730 756Q739 750 759 745T804 735T853 729T895 724Q864 679 827 623T748 505T665 381T582 258Q488 118 390 -29ZM173
162T141 157Q154 222 168 290Q180 348 193 416T218 547Q194 545 173 542Q154 540 135 537T102 532Q104 543 107 567T113 617Q117 646 121 679Q144 684 183 689Q217 694 272 702T410 721Q388 608 364 471T312 190Q290 185 261 179T205 168Q173 162 141 157ZM831
-42L851 79L683 68L639 137Q671 210 700 278Q713 308 725 338T751 396T774 450T794 494Q835 494 872 495T951 502Q914 433 884 363T823 219Q822 214 821 210T818 201H889Q890 206 893 217T899 245T907 280T917 317Q928 361 940 414Q968 417 994 420Q1017 422 1043
424T1090 429Q1088 418 1080 386T1064 316T1047 246T1037 201H1092L1052 81H1002L993 -18L831 -42Z" />
<glyph unicode="&#xbd;" glyph-name="onehalf" horiz-adv-x="1164" d="M151 162T119 157Q133 222 146 290Q158 348 172 416T196 547Q173 545 151 542Q133 540 114 537T80 532Q82 543 85 567T92 617Q96 646 100 679Q122 684 161 689Q195 694 250 702T389 721Q366
608 342 471T290 190Q269 185 240 179T184 168Q151 162 119 157ZM531 118T432 -29L266 10Q288 39 323 88T402 200T495 333T593 477T688 622T773 756Q782 750 802 745T847 735T896 729T937 724Q907 679 870 623T791 505T708 381T625 258Q531 118 432 -29ZM791 -5T715
-7L732 91Q736 115 758 139T812 187T880 236T946 281T997 321T1017 355Q1017 377 1006 390T978 403Q960 403 949 397T931 382T921 362T918 341V332Q918 330 919 329Q897 327 871 326Q850 324 824 322T772 317Q771 323 771 329T770 341Q770 387 790 422T844 483T918
521T1001 534Q1037 534 1071 525T1131 496T1172 448T1188 379Q1188 341 1166 305T1104 235T1010 169T893 107Q914 107 949 108T1020 111T1100 115L1083 3Q1064 2 1038 2T982 0T921 -1T861 -3Q791 -5 715 -7Z" />
<glyph unicode="&#xbe;" glyph-name="threequarters" horiz-adv-x="1130" d="M551 118T452 -29L286 10Q308 39 343 88T422 200T514 333T612 477T708 622T793 756Q802 750 822 745T867 735T916 729T957 724Q927 679 890 623T811 505T728 381T645 258Q551 118 452
-29ZM455 314T435 277T380 211T300 162T204 143Q143 143 103 167T63 251Q63 271 71 291L231 299Q231 283 237 277T254 270Q263 270 273 275T293 289T307 309T313 332Q313 352 292 367T223 383Q187 383 152 379T95 373L110 490Q144 508 179 529T245 568Q280 590
313 610L127 607L138 725Q214 728 279 730Q307 731 335 732T389 734T434 735T467 736L445 568L293 484Q337 478 367 465T418 434T446 395T455 351Q455 314 435 277ZM877 -42L896 79L729 68L685 137Q717 210 746 278Q759 308 771 338T797 396T820 450T840 494Q881
494 918 495T997 502Q960 433 929 363T869 219Q868 214 867 210T864 201H935Q936 206 938 217T945 245T953 280T963 317Q974 361 986 414Q1014 417 1040 420Q1063 422 1089 424T1136 429Q1134 418 1126 386T1110 316T1093 246T1083 201H1138L1098 81H1048L1039
-18L877 -42Z" />
<glyph unicode="&#xbf;" glyph-name="questiondown" horiz-adv-x="439" d="M390 474Q390 420 375 378T336 304T287 246T237 200T199 163T184 130Q184 124 192 114T217 103Q236 103 263 118T319 154T377 202L430 79Q379 33 315 7T185 -20Q153 -20 125 -14T75 8T40
48T27 108Q27 157 43 191T82 252T135 300T192 345T241 396T272 462L331 468L390 474ZM225 640T234 660T261 696T305 723T365 733Q405 733 424 709T443 650Q443 631 436 612T415 576T379 550T331 540Q276 540 251 564T225 619Q225 640 234 660Z" />
<glyph unicode="&#xc0;" glyph-name="Agrave" horiz-adv-x="433" d="M343 16T313 11T259 2Q263 35 267 67Q270 95 272 123T277 171H190L150 27Q128 24 98 21T42 14Q10 10 -21 6Q19 139 58 268Q74 322 91 381T126 498T160 611T188 710Q256 715 326 722T464 741Q461
709 458 662T451 558T445 441T439 321Q434 183 428 28Q398 23 368 20Q343 16 313 11ZM214 271Q218 271 228 271T250 272T272 273T286 275Q286 281 287 295T290 328T294 369T298 412Q302 463 308 522L314 609L299 608L276 522L214 271ZM321 752Q270 764 223 776Q182
785 139 796T67 817Q73 846 81 887T96 968Q105 1014 114 1062Q153 1020 192 980Q225 945 262 905T328 833L321 752Z" />
<glyph unicode="&#xc1;" glyph-name="Aacute" horiz-adv-x="433" d="M343 16T313 11T259 2Q263 35 267 67Q270 95 272 123T277 171H190L150 27Q128 24 98 21T42 14Q10 10 -21 6Q19 139 58 268Q74 322 91 381T126 498T160 611T188 710Q256 715 326 722T464 741Q461
709 458 662T451 558T445 441T439 321Q434 183 428 28Q398 23 368 20Q343 16 313 11ZM214 271Q218 271 228 271T250 272T272 273T286 275Q286 281 287 295T290 328T294 369T298 412Q302 463 308 522L314 609L299 608L276 522L214 271ZM399 821T331 797T204 750Q203
761 203 770T203 788Q203 804 203 820T204 855Q272 924 332 978T444 1089Q449 1022 449 964T458 845Q399 821 331 797Z" />
<glyph unicode="&#xc2;" glyph-name="Acircumflex" horiz-adv-x="433" d="M343 16T313 11T259 2Q263 35 267 67Q270 95 272 123T277 171H190L150 27Q128 24 98 21T42 14Q10 10 -21 6Q19 139 58 268Q74 322 91 381T126 498T160 611T188 710Q256 715 326 722T464
741Q461 709 458 662T451 558T445 441T439 321Q434 183 428 28Q398 23 368 20Q343 16 313 11ZM214 271Q218 271 228 271T250 272T272 273T286 275Q286 281 287 295T290 328T294 369T298 412Q302 463 308 522L314 609L299 608L276 522L214 271ZM313 859T298 843T268
810T238 777T213 750Q200 761 190 770T174 788Q165 797 159 805Q187 846 217 885Q242 918 271 954T327 1016Q366 1010 381 1011T399 1010Q407 983 416 948T435 882Q446 845 457 808Q445 798 433 788Q423 779 410 770T385 751L324 869Q313 859 298 843Z" />
<glyph unicode="&#xc3;" glyph-name="Atilde" horiz-adv-x="433" d="M343 16T313 11T259 2Q263 35 267 67Q270 95 272 123T277 171H190L150 27Q128 24 98 21T42 14Q10 10 -21 6Q19 139 58 268Q74 322 91 381T126 498T160 611T188 710Q256 715 326 722T464 741Q461
709 458 662T451 558T445 441T439 321Q434 183 428 28Q398 23 368 20Q343 16 313 11ZM214 271Q218 271 228 271T250 272T272 273T286 275Q286 281 287 295T290 328T294 369T298 412Q302 463 308 522L314 609L299 608L276 522L214 271ZM250 843T236 835T210 814T185
789T163 767Q150 776 141 784T123 798T109 811Q109 811 115 824T132 856T158 899T193 941T234 974T282 988Q306 988 324 974T357 944T379 915T393 902Q408 902 422 912T449 938T474 968T496 992Q508 983 518 975T536 961Q544 955 550 948Q529 899 502 861Q491 844
477 829T447 802T414 783T376 775Q352 775 340 785T317 809T297 832T265 843Q250 843 236 835Z" />
<glyph unicode="&#xc4;" glyph-name="Adieresis" horiz-adv-x="433" d="M343 16T313 11T259 2Q263 35 267 67Q270 95 272 123T277 171H190L150 27Q128 24 98 21T42 14Q10 10 -21 6Q19 139 58 268Q74 322 91 381T126 498T160 611T188 710Q256 715 326 722T464 741Q461
709 458 662T451 558T445 441T439 321Q434 183 428 28Q398 23 368 20Q343 16 313 11ZM214 271Q218 271 228 271T250 272T272 273T286 275Q286 281 287 295T290 328T294 369T298 412Q302 463 308 522L314 609L299 608L276 522L214 271ZM491 890T484 874T464 844T431
823T384 814Q344 814 324 840T304 900Q304 917 309 933T326 961T354 981T395 989Q443 989 467 964T491 908Q491 890 484 874ZM258 890T252 874T231 844T197 823T152 814Q112 814 92 840T72 900Q72 917 77 933T94 961T122 981T162 989Q211 989 234 964T258 908Q258
890 252 874Z" />
<glyph unicode="&#xc5;" glyph-name="Aring" horiz-adv-x="433" d="M343 16T313 11T259 2Q263 35 267 67Q270 95 272 123T277 171H190L150 27Q128 24 98 21T42 14Q10 10 -21 6Q19 139 58 268Q74 322 91 381T126 498T160 611T188 710Q256 715 326 722T464 741Q461
709 458 662T451 558T445 441T439 321Q434 183 428 28Q398 23 368 20Q343 16 313 11ZM214 271Q218 271 228 271T250 272T272 273T286 275Q286 281 287 295T290 328T294 369T298 412Q302 463 308 522L314 609L299 608L276 522L214 271ZM396 857T388 836T364 797T324
769T270 758Q245 758 226 767T194 792T174 828T168 869Q168 890 174 911T196 948T233 974T284 984Q312 984 333 975T368 952T389 919T396 879Q396 857 388 836ZM228 846T242 829T281 811Q312 811 328 830T345 872Q345 893 331 909T287 925Q257 925 243 907T228
867Q228 846 242 829Z" />
<glyph unicode="&#xc6;" glyph-name="AE" horiz-adv-x="516" d="M246 -1V2H244Q251 35 257 65T268 123T277 171H204L152 27Q130 24 99 21T39 14Q6 10 -29 6Q23 139 73 268Q95 322 117 381T162 498T204 611T240 710Q274 713 303 714T363 715T426 717T501 722L605
730L566 609Q560 610 550 611T528 612T500 613L475 434Q488 436 501 437Q512 438 525 438T549 439Q545 411 542 384T533 329Q522 328 510 328T486 326Q474 325 461 324L435 141L519 147L509 33L246 -1ZM236 271Q240 271 248 271T265 272T282 273T295 275Q296 284
300 306T309 358T320 422T333 491T346 557T356 609L346 608L313 522L236 271Z" />
<glyph unicode="&#xc7;" glyph-name="Ccedilla" horiz-adv-x="414" d="M403 160T374 120T312 52T246 11T182 -2Q151 -2 126 12T81 54T51 123T39 219Q39 313 65 404T138 569T249 686T392 731Q416 731 438 721T476 693T501 649T511 591Q511 585 511 579T510 565L379
530Q367 555 351 555Q335 555 318 537T283 489T250 423T222 349T203 279T195 224Q195 192 203 179T226 166Q237 166 251 174T277 196T299 227T313 261L427 215Q403 160 374 120ZM317 -89T307 -106T278 -137T236 -157T182 -165Q158 -165 136 -156T98 -128L117 -40Q143
-68 170 -68Q192 -68 206 -52T221 -11Q221 1 216 19Q234 17 245 15T266 12T277 10Q317 -29 317 -68Q317 -89 307 -106Z" />
<glyph unicode="&#xc8;" glyph-name="Egrave" horiz-adv-x="341" d="M8 -1L139 710L455 737Q448 715 443 692Q438 673 434 653T426 616Q416 615 398 615T358 614T316 613T278 613L243 434Q274 436 301 437Q323 438 346 438T380 439Q376 411 373 384T364 329Q354
328 332 328T286 326Q260 325 229 324L195 140L341 163L331 49L8 -1ZM304 781Q253 793 206 805Q165 814 122 825T50 846Q56 875 64 916T79 997Q88 1043 97 1091Q136 1049 175 1009Q208 974 245 934T311 862L304 781Z" />
<glyph unicode="&#xc9;" glyph-name="Eacute" horiz-adv-x="341" d="M8 -1L139 710L455 737Q448 715 443 692Q438 673 434 653T426 616Q416 615 398 615T358 614T316 613T278 613L243 434Q274 436 301 437Q323 438 346 438T380 439Q376 411 373 384T364 329Q354
328 332 328T286 326Q260 325 229 324L195 140L341 163L331 49L8 -1ZM382 850T314 826T187 779Q186 790 186 799T186 817Q186 833 186 849T187 884Q255 953 315 1007T427 1118Q432 1051 432 993T441 874Q382 850 314 826Z" />
<glyph unicode="&#xca;" glyph-name="Ecircumflex" horiz-adv-x="341" d="M8 -1L139 710L455 737Q448 715 443 692Q438 673 434 653T426 616Q416 615 398 615T358 614T316 613T278 613L243 434Q274 436 301 437Q323 438 346 438T380 439Q376 411 373 384T364 329Q354
328 332 328T286 326Q260 325 229 324L195 140L341 163L331 49L8 -1ZM296 888T281 872T251 839T221 806T196 779Q183 790 173 799T157 817Q148 826 142 834Q170 875 200 914Q225 947 254 983T310 1045Q349 1039 364 1040T382 1039Q390 1012 399 977T418 911Q429
874 440 837Q428 827 416 817Q406 808 393 799T368 780L307 898Q296 888 281 872Z" />
<glyph unicode="&#xcb;" glyph-name="Edieresis" horiz-adv-x="341" d="M8 -1L139 710L455 737Q448 715 443 692Q438 673 434 653T426 616Q416 615 398 615T358 614T316 613T278 613L243 434Q274 436 301 437Q323 438 346 438T380 439Q376 411 373 384T364 329Q354
328 332 328T286 326Q260 325 229 324L195 140L341 163L331 49L8 -1ZM474 919T467 903T447 873T414 852T367 843Q327 843 307 869T287 929Q287 946 292 962T309 990T337 1010T378 1018Q426 1018 450 993T474 937Q474 919 467 903ZM241 919T235 903T214 873T180
852T135 843Q95 843 75 869T55 929Q55 946 60 962T77 990T105 1010T145 1018Q194 1018 217 993T241 937Q241 919 235 903Z" />
<glyph unicode="&#xcc;" glyph-name="Igrave" horiz-adv-x="200" d="M149 20T123 18T69 12T19 5T-6 1Q6 44 18 96T42 206T66 323T89 437Q114 565 138 700L294 725Q268 591 242 462Q231 407 220 348T198 231T177 119T158 20Q149 20 123 18ZM310 752Q259 764 212
776Q171 785 128 796T56 817Q62 846 70 887T85 968Q94 1014 103 1062Q142 1020 181 980Q214 945 251 905T317 833L310 752Z" />
<glyph unicode="&#xcd;" glyph-name="Iacute" horiz-adv-x="200" d="M149 20T123 18T69 12T19 5T-6 1Q6 44 18 96T42 206T66 323T89 437Q114 565 138 700L294 725Q268 591 242 462Q231 407 220 348T198 231T177 119T158 20Q149 20 123 18ZM388 821T320 797T193
750Q192 761 192 770T192 788Q192 804 192 820T193 855Q261 924 321 978T433 1089Q438 1022 438 964T447 845Q388 821 320 797Z" />
<glyph unicode="&#xce;" glyph-name="Icircumflex" horiz-adv-x="200" d="M149 20T123 18T69 12T19 5T-6 1Q6 44 18 96T42 206T66 323T89 437Q114 565 138 700L294 725Q268 591 242 462Q231 407 220 348T198 231T177 119T158 20Q149 20 123 18ZM302 859T287 843T257
810T227 777T202 750Q189 761 179 770T163 788Q154 797 148 805Q176 846 206 885Q231 918 260 954T316 1016Q355 1010 370 1011T388 1010Q396 983 405 948T424 882Q435 845 446 808Q434 798 422 788Q412 779 399 770T374 751L313 869Q302 859 287 843Z" />
<glyph unicode="&#xcf;" glyph-name="Idieresis" horiz-adv-x="200" d="M149 20T123 18T69 12T19 5T-6 1Q6 44 18 96T42 206T66 323T89 437Q114 565 138 700L294 725Q268 591 242 462Q231 407 220 348T198 231T177 119T158 20Q149 20 123 18ZM480 890T473 874T453
844T420 823T373 814Q333 814 313 840T293 900Q293 917 298 933T315 961T343 981T384 989Q432 989 456 964T480 908Q480 890 473 874ZM247 890T241 874T220 844T186 823T141 814Q101 814 81 840T61 900Q61 917 66 933T83 961T111 981T151 989Q200 989 223 964T247
908Q247 890 241 874Z" />
<glyph unicode="&#xd0;" glyph-name="Eth" horiz-adv-x="445" d="M501 438T490 381T456 270T402 167T330 82T240 24T136 2Q104 2 74 11T13 42Q21 81 30 128Q38 168 49 219T70 331Q63 330 57 330T45 330H34L67 436Q70 435 74 435H90Q104 509 116 579T136 708Q179
716 223 723T313 730Q364 730 400 712T459 661T491 585T501 491Q501 438 490 381ZM203 282T194 231T171 121Q207 143 239 185T296 280T336 387T351 490Q351 515 346 536T330 574T303 599T266 608Q256 563 248 521T231 435Q242 435 252 435T270 436Q278 436 286
437L262 329H247Q240 329 232 329T213 330Q203 282 194 231Z" />
<glyph unicode="&#xd1;" glyph-name="Ntilde" horiz-adv-x="453" d="M6 -5Q34 136 60 270Q70 326 81 387T103 508T121 623T135 725Q166 727 195 729Q221 731 248 732T296 736Q309 659 319 589Q324 559 329 527T340 464T350 407T360 358Q364 379 369 406T380 464T392
527T405 589Q420 659 436 735L558 750Q524 600 498 466Q486 408 475 349T453 235T436 134T425 55Q422 55 402 51T355 40T302 28T262 17Q255 98 247 171Q244 202 240 235T233 298T226 354T219 399Q216 381 211 355T201 300T191 239T180 177Q167 106 152 29L6 -5ZM343
843T329 835T303 814T278 789T256 767Q243 776 234 784T216 798T202 811Q202 811 208 824T225 856T251 899T286 941T327 974T375 988Q399 988 417 974T450 944T472 915T486 902Q501 902 515 912T542 938T567 968T589 992Q601 983 611 975T629 961Q637 955 643 948Q622
899 595 861Q584 844 570 829T540 802T507 783T469 775Q445 775 433 785T410 809T390 832T358 843Q343 843 329 835Z" />
<glyph unicode="&#xd2;" glyph-name="Ograve" horiz-adv-x="493" d="M560 459T543 387T496 254T429 146T348 65T263 14T181 -4Q148 -4 121 8T74 45T43 108T31 201Q31 257 45 319T83 442T142 558T219 655T309 723T409 748Q454 748 483 730T529 682T553 615T560
541Q560 459 543 387ZM180 216T184 204T195 183T212 168T235 161Q280 161 315 192T373 268T408 364T421 457Q421 469 420 483T414 509T400 529T374 538Q342 538 315 522T267 480T229 420T202 352T185 284T180 227Q180 216 184 204ZM453 781Q402 793 355 805Q314
814 271 825T199 846Q205 875 213 916T228 997Q237 1043 246 1091Q285 1049 324 1009Q357 974 394 934T460 862L453 781Z" />
<glyph unicode="&#xd3;" glyph-name="Oacute" horiz-adv-x="493" d="M560 459T543 387T496 254T429 146T348 65T263 14T181 -4Q148 -4 121 8T74 45T43 108T31 201Q31 257 45 319T83 442T142 558T219 655T309 723T409 748Q454 748 483 730T529 682T553 615T560
541Q560 459 543 387ZM180 216T184 204T195 183T212 168T235 161Q280 161 315 192T373 268T408 364T421 457Q421 469 420 483T414 509T400 529T374 538Q342 538 315 522T267 480T229 420T202 352T185 284T180 227Q180 216 184 204ZM531 850T463 826T336 779Q335
790 335 799T335 817Q335 833 335 849T336 884Q404 953 464 1007T576 1118Q581 1051 581 993T590 874Q531 850 463 826Z" />
<glyph unicode="&#xd4;" glyph-name="Ocircumflex" horiz-adv-x="493" d="M560 459T543 387T496 254T429 146T348 65T263 14T181 -4Q148 -4 121 8T74 45T43 108T31 201Q31 257 45 319T83 442T142 558T219 655T309 723T409 748Q454 748 483 730T529 682T553 615T560
541Q560 459 543 387ZM180 216T184 204T195 183T212 168T235 161Q280 161 315 192T373 268T408 364T421 457Q421 469 420 483T414 509T400 529T374 538Q342 538 315 522T267 480T229 420T202 352T185 284T180 227Q180 216 184 204ZM445 888T430 872T400 839T370
806T345 779Q332 790 322 799T306 817Q297 826 291 834Q319 875 349 914Q374 947 403 983T459 1045Q498 1039 513 1040T531 1039Q539 1012 548 977T567 911Q578 874 589 837Q577 827 565 817Q555 808 542 799T517 780L456 898Q445 888 430 872Z" />
<glyph unicode="&#xd5;" glyph-name="Otilde" horiz-adv-x="493" d="M560 459T543 387T496 254T429 146T348 65T263 14T181 -4Q148 -4 121 8T74 45T43 108T31 201Q31 257 45 319T83 442T142 558T219 655T309 723T409 748Q454 748 483 730T529 682T553 615T560
541Q560 459 543 387ZM180 216T184 204T195 183T212 168T235 161Q280 161 315 192T373 268T408 364T421 457Q421 469 420 483T414 509T400 529T374 538Q342 538 315 522T267 480T229 420T202 352T185 284T180 227Q180 216 184 204ZM382 872T368 864T342 843T317
818T295 796Q282 805 273 813T255 827T241 840Q241 840 247 853T264 885T290 928T325 970T366 1003T414 1017Q438 1017 456 1003T489 973T511 944T525 931Q540 931 554 941T581 967T606 997T628 1021Q640 1012 650 1004T668 990Q676 984 682 977Q661 928 634 890Q623
873 609 858T579 831T546 812T508 804Q484 804 472 814T449 838T429 861T397 872Q382 872 368 864Z" />
<glyph unicode="&#xd6;" glyph-name="Odieresis" horiz-adv-x="493" d="M560 459T543 387T496 254T429 146T348 65T263 14T181 -4Q148 -4 121 8T74 45T43 108T31 201Q31 257 45 319T83 442T142 558T219 655T309 723T409 748Q454 748 483 730T529 682T553 615T560
541Q560 459 543 387ZM180 216T184 204T195 183T212 168T235 161Q280 161 315 192T373 268T408 364T421 457Q421 469 420 483T414 509T400 529T374 538Q342 538 315 522T267 480T229 420T202 352T185 284T180 227Q180 216 184 204ZM623 919T616 903T596 873T563
852T516 843Q476 843 456 869T436 929Q436 946 441 962T458 990T486 1010T527 1018Q575 1018 599 993T623 937Q623 919 616 903ZM390 919T384 903T363 873T329 852T284 843Q244 843 224 869T204 929Q204 946 209 962T226 990T254 1010T294 1018Q343 1018 366 993T390
937Q390 919 384 903Z" />
<glyph unicode="&#xd7;" glyph-name="multiply" horiz-adv-x="496" d="M474 172T462 169T432 161T393 150T351 138T312 127T284 117Q278 140 274 161Q271 179 267 198T261 229Q253 216 241 198T215 163Q200 144 184 121L14 136Q39 165 71 205T135 281Q170 323
206 367Q196 400 187 434Q179 462 169 494T150 556L311 622Q316 590 326 552T344 480Q363 515 383 546T426 611L571 582Q545 553 516 516T462 444Q433 405 405 364Q417 328 430 294Q440 265 452 232T476 173Q474 172 462 169Z" />
<glyph unicode="&#xd8;" glyph-name="Oslash" horiz-adv-x="493" d="M49 -8L-1 40L47 96Q31 141 31 201Q31 257 45 319T83 442T142 558T219 655T309 723T409 748Q448 748 475 734T520 696L555 742L606 704L623 724L550 630Q555 608 557 586T560 541Q560 459 543
387T496 254T429 146T348 65T263 14T181 -4Q121 -4 82 35L49 -8ZM222 168T247 168Q275 168 300 183T347 222T385 277T414 340T433 403T439 457Q439 473 437 484L196 181Q222 168 247 168ZM173 265T173 259T175 246L413 533Q388 576 354 576Q322 576 291 547T233
472T190 372T173 271Q173 265 173 259Z" />
<glyph unicode="&#xd9;" glyph-name="Ugrave" horiz-adv-x="419" d="M402 138T377 98T317 32T243 -6T165 -18Q142 -18 118 -11T75 12T44 50T31 104Q31 108 31 112T32 120Q36 161 45 219T64 340T86 466T107 582T124 668T133 711Q154 713 183 716T237 721Q268 724
298 727Q272 606 252 508Q243 466 235 424T219 347T206 287T197 245T189 205T184 160Q184 144 192 134T212 123Q229 123 240 136T258 169T269 207T276 238Q282 267 289 302T304 376T319 455T334 533Q351 621 367 715L519 725Q519 725 514 699T501 630T484 532T462
418T439 301T416 195Q402 138 377 98ZM416 761Q365 773 318 785Q277 794 234 805T162 826Q168 855 176 896T191 977Q200 1023 209 1071Q248 1029 287 989Q320 954 357 914T423 842L416 761Z" />
<glyph unicode="&#xda;" glyph-name="Uacute" horiz-adv-x="419" d="M402 138T377 98T317 32T243 -6T165 -18Q142 -18 118 -11T75 12T44 50T31 104Q31 108 31 112T32 120Q36 161 45 219T64 340T86 466T107 582T124 668T133 711Q154 713 183 716T237 721Q268 724
298 727Q272 606 252 508Q243 466 235 424T219 347T206 287T197 245T189 205T184 160Q184 144 192 134T212 123Q229 123 240 136T258 169T269 207T276 238Q282 267 289 302T304 376T319 455T334 533Q351 621 367 715L519 725Q519 725 514 699T501 630T484 532T462
418T439 301T416 195Q402 138 377 98ZM494 830T426 806T299 759Q298 770 298 779T298 797Q298 813 298 829T299 864Q367 933 427 987T539 1098Q544 1031 544 973T553 854Q494 830 426 806Z" />
<glyph unicode="&#xdb;" glyph-name="Ucircumflex" horiz-adv-x="419" d="M402 138T377 98T317 32T243 -6T165 -18Q142 -18 118 -11T75 12T44 50T31 104Q31 108 31 112T32 120Q36 161 45 219T64 340T86 466T107 582T124 668T133 711Q154 713 183 716T237 721Q268
724 298 727Q272 606 252 508Q243 466 235 424T219 347T206 287T197 245T189 205T184 160Q184 144 192 134T212 123Q229 123 240 136T258 169T269 207T276 238Q282 267 289 302T304 376T319 455T334 533Q351 621 367 715L519 725Q519 725 514 699T501 630T484 532T462
418T439 301T416 195Q402 138 377 98ZM408 868T393 852T363 819T333 786T308 759Q295 770 285 779T269 797Q260 806 254 814Q282 855 312 894Q337 927 366 963T422 1025Q461 1019 476 1020T494 1019Q502 992 511 957T530 891Q541 854 552 817Q540 807 528 797Q518
788 505 779T480 760L419 878Q408 868 393 852Z" />
<glyph unicode="&#xdc;" glyph-name="Udieresis" horiz-adv-x="419" d="M402 138T377 98T317 32T243 -6T165 -18Q142 -18 118 -11T75 12T44 50T31 104Q31 108 31 112T32 120Q36 161 45 219T64 340T86 466T107 582T124 668T133 711Q154 713 183 716T237 721Q268
724 298 727Q272 606 252 508Q243 466 235 424T219 347T206 287T197 245T189 205T184 160Q184 144 192 134T212 123Q229 123 240 136T258 169T269 207T276 238Q282 267 289 302T304 376T319 455T334 533Q351 621 367 715L519 725Q519 725 514 699T501 630T484 532T462
418T439 301T416 195Q402 138 377 98ZM586 899T579 883T559 853T526 832T479 823Q439 823 419 849T399 909Q399 926 404 942T421 970T449 990T490 998Q538 998 562 973T586 917Q586 899 579 883ZM353 899T347 883T326 853T292 832T247 823Q207 823 187 849T167
909Q167 926 172 942T189 970T217 990T257 998Q306 998 329 973T353 917Q353 899 347 883Z" />
<glyph unicode="&#xdd;" glyph-name="Yacute" horiz-adv-x="384" d="M77 15L123 216Q123 259 122 309T117 411T111 509T106 593T102 652T100 674L263 736V614Q263 589 263 563T263 512T262 465T262 428Q275 462 293 512T328 609Q347 664 367 725L522 690Q479 604
438 519Q421 482 402 443T364 364T327 287T294 218Q289 192 282 161T267 102Q258 69 248 36L77 15ZM467 821T399 797T272 750Q271 761 271 770T271 788Q271 804 271 820T272 855Q340 924 400 978T512 1089Q517 1022 517 964T526 845Q467 821 399 797Z" />
<glyph unicode="&#xde;" glyph-name="Thorn" horiz-adv-x="386" d="M1 -1Q31 141 58 275Q69 333 81 394T104 515T125 630T142 730Q184 735 216 738T275 745T308 748L287 648Q333 648 365 633T417 591T447 529T456 455Q456 399 435 348T380 258T301 195T209 171H198Q190
137 186 112T179 68Q175 48 174 33L1 -1ZM253 461T242 402T219 276Q234 280 252 295T284 333T308 387T317 452Q317 489 301 508T265 527Q253 461 242 402Z" />
<glyph unicode="&#xdf;" glyph-name="germandbls" horiz-adv-x="438" d="M446 138T439 105T413 46T364 6T289 -10Q264 -10 242 2T199 40L229 186Q236 161 250 147T276 132Q287 132 294 142T301 176Q301 206 292 225T273 265T255 314T246 392Q246 433 267 466T314
525T361 570T383 601Q383 611 358 616T268 622Q258 565 245 488T218 328T192 164T170 20Q161 20 135 18T80 12T30 5T5 1Q15 44 26 98T49 213T72 336T100 497T142 742Q254 742 327 733T443 706T503 666T520 616Q520 566 500 533T456 474T411 428T386 385V383Q386
374 395 355T416 308T437 247T446 175Q446 138 439 105Z" />
<glyph unicode="&#xe0;" glyph-name="agrave" horiz-adv-x="433" d="M343 16T313 11T259 2Q263 35 267 67Q270 95 272 123T277 171H190L150 27Q128 24 98 21T42 14Q10 10 -21 6Q19 139 58 268Q74 322 91 381T126 498T160 611T188 710Q256 715 326 722T464 741Q461
709 458 662T451 558T445 441T439 321Q434 183 428 28Q398 23 368 20Q343 16 313 11ZM214 271Q218 271 228 271T250 272T272 273T286 275Q286 281 287 295T290 328T294 369T298 412Q302 463 308 522L314 609L299 608L276 522L214 271ZM440 770Q389 782 342 794Q301
803 258 814T186 835Q192 864 200 905T215 986Q224 1032 233 1080Q272 1038 311 998Q344 963 381 923T447 851L440 770Z" />
<glyph unicode="&#xe1;" glyph-name="aacute" horiz-adv-x="433" d="M343 16T313 11T259 2Q263 35 267 67Q270 95 272 123T277 171H190L150 27Q128 24 98 21T42 14Q10 10 -21 6Q19 139 58 268Q74 322 91 381T126 498T160 611T188 710Q256 715 326 722T464 741Q461
709 458 662T451 558T445 441T439 321Q434 183 428 28Q398 23 368 20Q343 16 313 11ZM214 271Q218 271 228 271T250 272T272 273T286 275Q286 281 287 295T290 328T294 369T298 412Q302 463 308 522L314 609L299 608L276 522L214 271ZM385 836T317 812T190 765Q189
776 189 785T189 803Q189 819 189 835T190 870Q258 939 318 993T430 1104Q435 1037 435 979T444 860Q385 836 317 812Z" />
<glyph unicode="&#xe2;" glyph-name="acircumflex" horiz-adv-x="433" d="M343 16T313 11T259 2Q263 35 267 67Q270 95 272 123T277 171H190L150 27Q128 24 98 21T42 14Q10 10 -21 6Q19 139 58 268Q74 322 91 381T126 498T160 611T188 710Q256 715 326 722T464
741Q461 709 458 662T451 558T445 441T439 321Q434 183 428 28Q398 23 368 20Q343 16 313 11ZM214 271Q218 271 228 271T250 272T272 273T286 275Q286 281 287 295T290 328T294 369T298 412Q302 463 308 522L314 609L299 608L276 522L214 271ZM322 879T307 863T277
830T247 797T222 770Q209 781 199 790T183 808Q174 817 168 825Q196 866 226 905Q251 938 280 974T336 1036Q375 1030 390 1031T408 1030Q416 1003 425 968T444 902Q455 865 466 828Q454 818 442 808Q432 799 419 790T394 771L333 889Q322 879 307 863Z" />
<glyph unicode="&#xe3;" glyph-name="atilde" horiz-adv-x="433" d="M343 16T313 11T259 2Q263 35 267 67Q270 95 272 123T277 171H190L150 27Q128 24 98 21T42 14Q10 10 -21 6Q19 139 58 268Q74 322 91 381T126 498T160 611T188 710Q256 715 326 722T464 741Q461
709 458 662T451 558T445 441T439 321Q434 183 428 28Q398 23 368 20Q343 16 313 11ZM214 271Q218 271 228 271T250 272T272 273T286 275Q286 281 287 295T290 328T294 369T298 412Q302 463 308 522L314 609L299 608L276 522L214 271ZM285 872T271 864T245 843T220
818T198 796Q185 805 176 813T158 827T144 840Q144 840 150 853T167 885T193 928T228 970T269 1003T317 1017Q341 1017 359 1003T392 973T414 944T428 931Q443 931 457 941T484 967T509 997T531 1021Q543 1012 553 1004T571 990Q579 984 585 977Q564 928 537 890Q526
873 512 858T482 831T449 812T411 804Q387 804 375 814T352 838T332 861T300 872Q285 872 271 864Z" />
<glyph unicode="&#xe4;" glyph-name="adieresis" horiz-adv-x="433" d="M343 16T313 11T259 2Q263 35 267 67Q270 95 272 123T277 171H190L150 27Q128 24 98 21T42 14Q10 10 -21 6Q19 139 58 268Q74 322 91 381T126 498T160 611T188 710Q256 715 326 722T464 741Q461
709 458 662T451 558T445 441T439 321Q434 183 428 28Q398 23 368 20Q343 16 313 11ZM214 271Q218 271 228 271T250 272T272 273T286 275Q286 281 287 295T290 328T294 369T298 412Q302 463 308 522L314 609L299 608L276 522L214 271ZM526 919T519 903T499 873T466
852T419 843Q379 843 359 869T339 929Q339 946 344 962T361 990T389 1010T430 1018Q478 1018 502 993T526 937Q526 919 519 903ZM293 919T287 903T266 873T232 852T187 843Q147 843 127 869T107 929Q107 946 112 962T129 990T157 1010T197 1018Q246 1018 269 993T293
937Q293 919 287 903Z" />
<glyph unicode="&#xe5;" glyph-name="aring" horiz-adv-x="433" d="M343 16T313 11T259 2Q263 35 267 67Q270 95 272 123T277 171H190L150 27Q128 24 98 21T42 14Q10 10 -21 6Q19 139 58 268Q74 322 91 381T126 498T160 611T188 710Q256 715 326 722T464 741Q461
709 458 662T451 558T445 441T439 321Q434 183 428 28Q398 23 368 20Q343 16 313 11ZM214 271Q218 271 228 271T250 272T272 273T286 275Q286 281 287 295T290 328T294 369T298 412Q302 463 308 522L314 609L299 608L276 522L214 271ZM431 886T423 865T399 826T359
798T305 787Q280 787 261 796T229 821T209 857T203 898Q203 919 209 940T231 977T268 1003T319 1013Q347 1013 368 1004T403 981T424 948T431 908Q431 886 423 865ZM263 875T277 858T316 840Q347 840 363 859T380 901Q380 922 366 938T322 954Q292 954 278 936T263
896Q263 875 277 858Z" />
<glyph unicode="&#xe6;" glyph-name="ae" horiz-adv-x="516" d="M246 -1V2H244Q251 35 257 65T268 123T277 171H204L152 27Q130 24 99 21T39 14Q6 10 -29 6Q23 139 73 268Q95 322 117 381T162 498T204 611T240 710Q274 713 303 714T363 715T426 717T501 722L605
730L566 609Q560 610 550 611T528 612T500 613L475 434Q488 436 501 437Q512 438 525 438T549 439Q545 411 542 384T533 329Q522 328 510 328T486 326Q474 325 461 324L435 141L519 147L509 33L246 -1ZM236 271Q240 271 248 271T265 272T282 273T295 275Q296 284
300 306T309 358T320 422T333 491T346 557T356 609L346 608L313 522L236 271Z" />
<glyph unicode="&#xe7;" glyph-name="ccedilla" horiz-adv-x="414" d="M403 160T374 120T312 52T246 11T182 -2Q151 -2 126 12T81 54T51 123T39 219Q39 313 65 404T138 569T249 686T392 731Q416 731 438 721T476 693T501 649T511 591Q511 585 511 579T510 565L379
530Q367 555 351 555Q335 555 318 537T283 489T250 423T222 349T203 279T195 224Q195 192 203 179T226 166Q237 166 251 174T277 196T299 227T313 261L427 215Q403 160 374 120ZM317 -89T307 -106T278 -137T236 -157T182 -165Q158 -165 136 -156T98 -128L117 -40Q143
-68 170 -68Q192 -68 206 -52T221 -11Q221 1 216 19Q234 17 245 15T266 12T277 10Q317 -29 317 -68Q317 -89 307 -106Z" />
<glyph unicode="&#xe8;" glyph-name="egrave" horiz-adv-x="341" d="M8 -1L139 710L455 737Q448 715 443 692Q438 673 434 653T426 616Q416 615 398 615T358 614T316 613T278 613L243 434Q274 436 301 437Q323 438 346 438T380 439Q376 411 373 384T364 329Q354
328 332 328T286 326Q260 325 229 324L195 140L341 163L331 49L8 -1ZM432 760Q381 772 334 784Q293 793 250 804T178 825Q184 854 192 895T207 976Q216 1022 225 1070Q264 1028 303 988Q336 953 373 913T439 841L432 760Z" />
<glyph unicode="&#xe9;" glyph-name="eacute" horiz-adv-x="341" d="M8 -1L139 710L455 737Q448 715 443 692Q438 673 434 653T426 616Q416 615 398 615T358 614T316 613T278 613L243 434Q274 436 301 437Q323 438 346 438T380 439Q376 411 373 384T364 329Q354
328 332 328T286 326Q260 325 229 324L195 140L341 163L331 49L8 -1ZM377 826T309 802T182 755Q181 766 181 775T181 793Q181 809 181 825T182 860Q250 929 310 983T422 1094Q427 1027 427 969T436 850Q377 826 309 802Z" />
<glyph unicode="&#xea;" glyph-name="ecircumflex" horiz-adv-x="341" d="M8 -1L139 710L455 737Q448 715 443 692Q438 673 434 653T426 616Q416 615 398 615T358 614T316 613T278 613L243 434Q274 436 301 437Q323 438 346 438T380 439Q376 411 373 384T364 329Q354
328 332 328T286 326Q260 325 229 324L195 140L341 163L331 49L8 -1ZM314 869T299 853T269 820T239 787T214 760Q201 771 191 780T175 798Q166 807 160 815Q188 856 218 895Q243 928 272 964T328 1026Q367 1020 382 1021T400 1020Q408 993 417 958T436 892Q447
855 458 818Q446 808 434 798Q424 789 411 780T386 761L325 879Q314 869 299 853Z" />
<glyph unicode="&#xeb;" glyph-name="edieresis" horiz-adv-x="341" d="M8 -1L139 710L455 737Q448 715 443 692Q438 673 434 653T426 616Q416 615 398 615T358 614T316 613T278 613L243 434Q274 436 301 437Q323 438 346 438T380 439Q376 411 373 384T364 329Q354
328 332 328T286 326Q260 325 229 324L195 140L341 163L331 49L8 -1ZM518 909T511 893T491 863T458 842T411 833Q371 833 351 859T331 919Q331 936 336 952T353 980T381 1000T422 1008Q470 1008 494 983T518 927Q518 909 511 893ZM285 909T279 893T258 863T224
842T179 833Q139 833 119 859T99 919Q99 936 104 952T121 980T149 1000T189 1008Q238 1008 261 983T285 927Q285 909 279 893Z" />
<glyph unicode="&#xec;" glyph-name="igrave" horiz-adv-x="202" d="M161 20T135 18T80 12T30 5T5 1Q15 44 25 96T47 206T68 323T87 437Q108 565 129 700L285 725Q262 591 240 462Q231 407 222 348T203 231T185 119T170 20Q161 20 135 18ZM350 741Q299 753 252
765Q211 774 168 785T96 806Q102 835 110 876T125 957Q134 1003 143 1051Q182 1009 221 969Q254 934 291 894T357 822L350 741Z" />
<glyph unicode="&#xed;" glyph-name="iacute" horiz-adv-x="202" d="M161 20T135 18T80 12T30 5T5 1Q15 44 25 96T47 206T68 323T87 437Q108 565 129 700L285 725Q262 591 240 462Q231 407 222 348T203 231T185 119T170 20Q161 20 135 18ZM295 807T227 783T100
736Q99 747 99 756T99 774Q99 790 99 806T100 841Q168 910 228 964T340 1075Q345 1008 345 950T354 831Q295 807 227 783Z" />
<glyph unicode="&#xee;" glyph-name="icircumflex" horiz-adv-x="202" d="M161 20T135 18T80 12T30 5T5 1Q15 44 25 96T47 206T68 323T87 437Q108 565 129 700L285 725Q262 591 240 462Q231 407 222 348T203 231T185 119T170 20Q161 20 135 18ZM232 850T217 834T187
801T157 768T132 741Q119 752 109 761T93 779Q84 788 78 796Q106 837 136 876Q161 909 190 945T246 1007Q285 1001 300 1002T318 1001Q326 974 335 939T354 873Q365 836 376 799Q364 789 352 779Q342 770 329 761T304 742L243 860Q232 850 217 834Z" />
<glyph unicode="&#xef;" glyph-name="idieresis" horiz-adv-x="202" d="M161 20T135 18T80 12T30 5T5 1Q15 44 25 96T47 206T68 323T87 437Q108 565 129 700L285 725Q262 591 240 462Q231 407 222 348T203 231T185 119T170 20Q161 20 135 18ZM436 890T429 874T409
844T376 823T329 814Q289 814 269 840T249 900Q249 917 254 933T271 961T299 981T340 989Q388 989 412 964T436 908Q436 890 429 874ZM203 890T197 874T176 844T142 823T97 814Q57 814 37 840T17 900Q17 917 22 933T39 961T67 981T107 989Q156 989 179 964T203
908Q203 890 197 874Z" />
<glyph unicode="&#xf0;" glyph-name="eth" horiz-adv-x="445" d="M501 438T490 381T456 270T402 167T330 82T240 24T136 2Q104 2 74 11T13 42Q21 81 30 128Q38 168 49 219T70 331Q63 330 57 330T45 330H34L67 436Q70 435 74 435H90Q104 509 116 579T136 708Q179
716 223 723T313 730Q364 730 400 712T459 661T491 585T501 491Q501 438 490 381ZM203 282T194 231T171 121Q207 143 239 185T296 280T336 387T351 490Q351 515 346 536T330 574T303 599T266 608Q256 563 248 521T231 435Q242 435 252 435T270 436Q278 436 286
437L262 329H247Q240 329 232 329T213 330Q203 282 194 231Z" />
<glyph unicode="&#xf1;" glyph-name="ntilde" horiz-adv-x="452" d="M5 -5Q35 139 62 274Q72 332 83 394T105 516T123 632T135 733Q148 732 157 732T178 732Q192 732 212 732T252 734T295 736Q309 666 320 601Q331 544 342 484T363 382Q367 402 372 428T383 484T394
542T406 601Q420 666 435 735L557 750Q523 597 497 460Q485 401 474 341T452 225T435 122T424 42Q421 42 401 38T354 27T301 15T261 4Q255 84 248 156Q245 187 242 219T234 282T226 338T218 383Q215 364 210 339T200 286T190 228T179 169Q166 102 151 29L5 -5ZM338
843T324 835T298 814T273 789T251 767Q238 776 229 784T211 798T197 811Q197 811 203 824T220 856T246 899T281 941T322 974T370 988Q394 988 412 974T445 944T467 915T481 902Q496 902 510 912T537 938T562 968T584 992Q596 983 606 975T624 961Q632 955 638 948Q617
899 590 861Q579 844 565 829T535 802T502 783T464 775Q440 775 428 785T405 809T385 832T353 843Q338 843 324 835Z" />
<glyph unicode="&#xf2;" glyph-name="ograve" horiz-adv-x="493" d="M560 459T543 387T496 254T429 146T348 65T263 14T181 -4Q148 -4 121 8T74 45T43 108T31 201Q31 257 45 319T83 442T142 558T219 655T309 723T409 748Q454 748 483 730T529 682T553 615T560
541Q560 459 543 387ZM180 216T184 204T195 183T212 168T235 161Q280 161 315 192T373 268T408 364T421 457Q421 469 420 483T414 509T400 529T374 538Q342 538 315 522T267 480T229 420T202 352T185 284T180 227Q180 216 184 204ZM523 770Q472 782 425 794Q384
803 341 814T269 835Q275 864 283 905T298 986Q307 1032 316 1080Q355 1038 394 998Q427 963 464 923T530 851L523 770Z" />
<glyph unicode="&#xf3;" glyph-name="oacute" horiz-adv-x="493" d="M560 459T543 387T496 254T429 146T348 65T263 14T181 -4Q148 -4 121 8T74 45T43 108T31 201Q31 257 45 319T83 442T142 558T219 655T309 723T409 748Q454 748 483 730T529 682T553 615T560
541Q560 459 543 387ZM180 216T184 204T195 183T212 168T235 161Q280 161 315 192T373 268T408 364T421 457Q421 469 420 483T414 509T400 529T374 538Q342 538 315 522T267 480T229 420T202 352T185 284T180 227Q180 216 184 204ZM468 836T400 812T273 765Q272
776 272 785T272 803Q272 819 272 835T273 870Q341 939 401 993T513 1104Q518 1037 518 979T527 860Q468 836 400 812Z" />
<glyph unicode="&#xf4;" glyph-name="ocircumflex" horiz-adv-x="493" d="M560 459T543 387T496 254T429 146T348 65T263 14T181 -4Q148 -4 121 8T74 45T43 108T31 201Q31 257 45 319T83 442T142 558T219 655T309 723T409 748Q454 748 483 730T529 682T553 615T560
541Q560 459 543 387ZM180 216T184 204T195 183T212 168T235 161Q280 161 315 192T373 268T408 364T421 457Q421 469 420 483T414 509T400 529T374 538Q342 538 315 522T267 480T229 420T202 352T185 284T180 227Q180 216 184 204ZM405 879T390 863T360 830T330
797T305 770Q292 781 282 790T266 808Q257 817 251 825Q279 866 309 905Q334 938 363 974T419 1036Q458 1030 473 1031T491 1030Q499 1003 508 968T527 902Q538 865 549 828Q537 818 525 808Q515 799 502 790T477 771L416 889Q405 879 390 863Z" />
<glyph unicode="&#xf5;" glyph-name="otilde" horiz-adv-x="493" d="M560 459T543 387T496 254T429 146T348 65T263 14T181 -4Q148 -4 121 8T74 45T43 108T31 201Q31 257 45 319T83 442T142 558T219 655T309 723T409 748Q454 748 483 730T529 682T553 615T560
541Q560 459 543 387ZM180 216T184 204T195 183T212 168T235 161Q280 161 315 192T373 268T408 364T421 457Q421 469 420 483T414 509T400 529T374 538Q342 538 315 522T267 480T229 420T202 352T185 284T180 227Q180 216 184 204ZM368 872T354 864T328 843T303
818T281 796Q268 805 259 813T241 827T227 840Q227 840 233 853T250 885T276 928T311 970T352 1003T400 1017Q424 1017 442 1003T475 973T497 944T511 931Q526 931 540 941T567 967T592 997T614 1021Q626 1012 636 1004T654 990Q662 984 668 977Q647 928 620 890Q609
873 595 858T565 831T532 812T494 804Q470 804 458 814T435 838T415 861T383 872Q368 872 354 864Z" />
<glyph unicode="&#xf6;" glyph-name="odieresis" horiz-adv-x="493" d="M560 459T543 387T496 254T429 146T348 65T263 14T181 -4Q148 -4 121 8T74 45T43 108T31 201Q31 257 45 319T83 442T142 558T219 655T309 723T409 748Q454 748 483 730T529 682T553 615T560
541Q560 459 543 387ZM180 216T184 204T195 183T212 168T235 161Q280 161 315 192T373 268T408 364T421 457Q421 469 420 483T414 509T400 529T374 538Q342 538 315 522T267 480T229 420T202 352T185 284T180 227Q180 216 184 204ZM609 919T602 903T582 873T549
852T502 843Q462 843 442 869T422 929Q422 946 427 962T444 990T472 1010T513 1018Q561 1018 585 993T609 937Q609 919 602 903ZM376 919T370 903T349 873T315 852T270 843Q230 843 210 869T190 929Q190 946 195 962T212 990T240 1010T280 1018Q329 1018 352 993T376
937Q376 919 370 903Z" />
<glyph unicode="&#xf7;" glyph-name="divide" horiz-adv-x="342" d="M355 252Q318 252 286 253T221 254T164 255Q146 255 125 255T85 254Q63 253 41 253L70 388Q99 387 124 386T174 385T219 385Q240 385 268 385T323 386T381 388L355 252ZM94 33Q100 63 104 90T113
149T123 208Q146 209 167 209T211 210Q225 210 238 210T266 209Q261 184 258 164T251 123T244 81T236 35Q217 34 193 34T146 33H94ZM270 427T237 426T162 425Q166 452 169 470T174 504T180 538T188 582Q206 582 231 582T280 584T333 586Q326 563 321 537Q316 515
312 487T302 429Q270 427 237 426Z" />
<glyph unicode="&#xf8;" glyph-name="oslash" horiz-adv-x="493" d="M49 -8L-1 40L47 96Q31 141 31 201Q31 257 45 319T83 442T142 558T219 655T309 723T409 748Q448 748 475 734T520 696L555 742L606 704L623 724L550 630Q555 608 557 586T560 541Q560 459 543
387T496 254T429 146T348 65T263 14T181 -4Q121 -4 82 35L49 -8ZM222 168T247 168Q275 168 300 183T347 222T385 277T414 340T433 403T439 457Q439 473 437 484L196 181Q222 168 247 168ZM173 265T173 259T175 246L413 533Q388 576 354 576Q322 576 291 547T233
472T190 372T173 271Q173 265 173 259Z" />
<glyph unicode="&#xf9;" glyph-name="ugrave" horiz-adv-x="419" d="M402 138T377 98T317 32T243 -6T165 -18Q142 -18 118 -11T75 12T44 50T31 104Q31 108 31 112T32 120Q36 161 45 219T64 340T86 466T107 582T124 668T133 711Q154 713 183 716T237 721Q268 724
298 727Q272 606 252 508Q243 466 235 424T219 347T206 287T197 245T189 205T184 160Q184 144 192 134T212 123Q229 123 240 136T258 169T269 207T276 238Q282 267 289 302T304 376T319 455T334 533Q351 621 367 715L519 725Q519 725 514 699T501 630T484 532T462
418T439 301T416 195Q402 138 377 98ZM503 741Q452 753 405 765Q364 774 321 785T249 806Q255 835 263 876T278 957Q287 1003 296 1051Q335 1009 374 969Q407 934 444 894T510 822L503 741Z" />
<glyph unicode="&#xfa;" glyph-name="uacute" horiz-adv-x="419" d="M402 138T377 98T317 32T243 -6T165 -18Q142 -18 118 -11T75 12T44 50T31 104Q31 108 31 112T32 120Q36 161 45 219T64 340T86 466T107 582T124 668T133 711Q154 713 183 716T237 721Q268 724
298 727Q272 606 252 508Q243 466 235 424T219 347T206 287T197 245T189 205T184 160Q184 144 192 134T212 123Q229 123 240 136T258 169T269 207T276 238Q282 267 289 302T304 376T319 455T334 533Q351 621 367 715L519 725Q519 725 514 699T501 630T484 532T462
418T439 301T416 195Q402 138 377 98ZM448 807T380 783T253 736Q252 747 252 756T252 774Q252 790 252 806T253 841Q321 910 381 964T493 1075Q498 1008 498 950T507 831Q448 807 380 783Z" />
<glyph unicode="&#xfb;" glyph-name="ucircumflex" horiz-adv-x="419" d="M402 138T377 98T317 32T243 -6T165 -18Q142 -18 118 -11T75 12T44 50T31 104Q31 108 31 112T32 120Q36 161 45 219T64 340T86 466T107 582T124 668T133 711Q154 713 183 716T237 721Q268
724 298 727Q272 606 252 508Q243 466 235 424T219 347T206 287T197 245T189 205T184 160Q184 144 192 134T212 123Q229 123 240 136T258 169T269 207T276 238Q282 267 289 302T304 376T319 455T334 533Q351 621 367 715L519 725Q519 725 514 699T501 630T484 532T462
418T439 301T416 195Q402 138 377 98ZM385 850T370 834T340 801T310 768T285 741Q272 752 262 761T246 779Q237 788 231 796Q259 837 289 876Q314 909 343 945T399 1007Q438 1001 453 1002T471 1001Q479 974 488 939T507 873Q518 836 529 799Q517 789 505 779Q495
770 482 761T457 742L396 860Q385 850 370 834Z" />
<glyph unicode="&#xfc;" glyph-name="udieresis" horiz-adv-x="419" d="M402 138T377 98T317 32T243 -6T165 -18Q142 -18 118 -11T75 12T44 50T31 104Q31 108 31 112T32 120Q36 161 45 219T64 340T86 466T107 582T124 668T133 711Q154 713 183 716T237 721Q268
724 298 727Q272 606 252 508Q243 466 235 424T219 347T206 287T197 245T189 205T184 160Q184 144 192 134T212 123Q229 123 240 136T258 169T269 207T276 238Q282 267 289 302T304 376T319 455T334 533Q351 621 367 715L519 725Q519 725 514 699T501 630T484 532T462
418T439 301T416 195Q402 138 377 98ZM589 890T582 874T562 844T529 823T482 814Q442 814 422 840T402 900Q402 917 407 933T424 961T452 981T493 989Q541 989 565 964T589 908Q589 890 582 874ZM356 890T350 874T329 844T295 823T250 814Q210 814 190 840T170
900Q170 917 175 933T192 961T220 981T260 989Q309 989 332 964T356 908Q356 890 350 874Z" />
<glyph unicode="&#xfd;" glyph-name="yacute" horiz-adv-x="384" d="M77 15L123 216Q123 259 122 309T117 411T111 509T106 593T102 652T100 674L263 736V614Q263 589 263 563T263 512T262 465T262 428Q275 462 293 512T328 609Q347 664 367 725L522 690Q479 604
438 519Q421 482 402 443T364 364T327 287T294 218Q289 192 282 161T267 102Q258 69 248 36L77 15ZM388 826T320 802T193 755Q192 766 192 775T192 793Q192 809 192 825T193 860Q261 929 321 983T433 1094Q438 1027 438 969T447 850Q388 826 320 802Z" />
<glyph unicode="&#xfe;" glyph-name="thorn" horiz-adv-x="386" d="M1 -1Q31 141 58 275Q69 333 81 394T104 515T125 630T142 730Q184 735 216 738T275 745T308 748L287 648Q333 648 365 633T417 591T447 529T456 455Q456 399 435 348T380 258T301 195T209 171H198Q190
137 186 112T179 68Q175 48 174 33L1 -1ZM253 461T242 402T219 276Q234 280 252 295T284 333T308 387T317 452Q317 489 301 508T265 527Q253 461 242 402Z" />
<glyph unicode="&#xff;" glyph-name="ydieresis" horiz-adv-x="384" d="M77 15L123 216Q123 259 122 309T117 411T111 509T106 593T102 652T100 674L263 736V614Q263 589 263 563T263 512T262 465T262 428Q275 462 293 512T328 609Q347 664 367 725L522 690Q479
604 438 519Q421 482 402 443T364 364T327 287T294 218Q289 192 282 161T267 102Q258 69 248 36L77 15ZM529 909T522 893T502 863T469 842T422 833Q382 833 362 859T342 919Q342 936 347 952T364 980T392 1000T433 1008Q481 1008 505 983T529 927Q529 909 522 893ZM296
909T290 893T269 863T235 842T190 833Q150 833 130 859T110 919Q110 936 115 952T132 980T160 1000T200 1008Q249 1008 272 983T296 927Q296 909 290 893Z" />
<glyph unicode="&#x2013;" glyph-name="endash" horiz-adv-x="360" d="M365 238Q330 239 299 240T235 241T180 242Q162 242 139 242T91 240T41 239L89 416Q116 415 140 414T190 413T232 412Q253 412 282 412T339 414T399 417L365 238Z" />
<glyph unicode="&#x2014;" glyph-name="emdash" horiz-adv-x="520" d="M524 238Q497 238 451 239T352 240T244 241T145 242T72 243T41 244L79 412Q83 414 110 414Q123 414 139 414T171 413T203 413T229 412Q239 412 259 412T304 412T358 413T415 414Q481 415 559
417L524 238Z" />
<glyph unicode="&#x2018;" glyph-name="quoteleft" horiz-adv-x="202" d="M78 461Q92 515 105 569Q117 616 130 672T155 778Q161 777 172 777T194 776T216 775T232 775Q246 775 264 777T301 782T340 789L242 478L78 461Z" />
<glyph unicode="&#x2019;" glyph-name="quoteright" horiz-adv-x="202" d="M240 479T228 479T198 478T158 475T118 473T86 471T73 470Q77 482 83 502T97 547T113 599T130 652Q148 714 170 784L251 782L341 784Q317 715 298 654Q289 629 280 603T264 553T250 510T239
479Q240 479 228 479Z" />
<glyph unicode="&#x201a;" glyph-name="quotesinglbase" horiz-adv-x="225" d="M-29 -165Q-15 -111 -2 -57Q10 -10 23 46T48 152Q54 151 65 151T87 150T109 149T125 149Q139 149 157 151T194 156T233 163L135 -148L-29 -165Z" />
<glyph unicode="&#x201c;" glyph-name="quotedblleft" horiz-adv-x="403" d="M73 362L106 551L140 755H296L224 371L73 362ZM279 371Q284 401 290 432Q295 457 300 486T311 537Q319 584 325 623T337 694T346 753H501L438 373H356L279 371Z" />
<glyph unicode="&#x201d;" glyph-name="quotedblright" horiz-adv-x="400" d="M281 394L316 563L358 774L509 783L437 394H281ZM80 393L106 565L140 774H301L230 408L80 393Z" />
<glyph unicode="&#x201e;" glyph-name="quotedblbase" horiz-adv-x="461" d="M183 -172Q206 -113 227 -56Q246 -6 265 49T298 150Q324 151 344 152T384 156T423 160T468 166Q450 116 428 60T384 -47Q360 -104 336 -162L183 -172ZM-30 -182Q-12 -115 5 -53Q12 -26
20 2T35 59T49 112T60 158Q69 157 77 157T93 157Q130 157 163 159T235 161Q217 120 195 65T155 -42Q132 -101 111 -163L-30 -182Z" />
<glyph unicode="&#x2022;" glyph-name="bullet" horiz-adv-x="284" d="M336 374T325 336T288 265T225 211T133 190Q88 190 65 219T42 287Q42 323 53 366T88 447T151 509T245 535Q272 535 290 523T318 493T332 452T336 409Q336 374 325 336Z" />
<glyph unicode="&#x2039;" glyph-name="guilsinglleft" horiz-adv-x="265" d="M263 186T253 134T229 29Q180 80 130 128T31 229Q44 297 53 364T73 499Q147 555 220 612T362 736Q346 679 333 621T307 502Q263 467 217 436T127 371Q164 338 200 305T274 238Q263
186 253 134Z" />
<glyph unicode="&#x203a;" glyph-name="guilsinglright" horiz-adv-x="271" d="M222 174T147 120T4 1Q20 60 31 120T52 240Q99 274 146 306T241 371Q207 401 173 432T104 493Q109 551 115 607T128 721Q181 667 234 615T342 509Q328 438 317 369T295 229Q222 174 147 120Z" />
</font>
</defs>
</svg>
