<?xml version="1.0" standalone="no"?>
<!DOCTYPE svg PUBLIC "-//W3C//DTD SVG 1.1//EN" "http://www.w3.org/Graphics/SVG/1.1/DTD/svg11.dtd">
<svg xmlns="http://www.w3.org/2000/svg">
<defs >
<font id="Handlee" horiz-adv-x="393" ><font-face
    font-family="Handlee"
    units-per-em="1000"
    panose-1="2 0 0 0 0 0 0 0 0 0"
    ascent="934"
    descent="-401"
    alphabetic="0" />
<glyph unicode=" " glyph-name="space" horiz-adv-x="226" />
<glyph unicode="!" glyph-name="exclam" horiz-adv-x="233" d="M90 679Q91 691 104 698T133 706Q160 706 160 686Q158 391 145 243Q144 232 130 225T101 217Q76 217 76 237Q90 384 90 679ZM98 69Q109 71 124 71T157 59T174 26T153 -12T113 -30T73 -17T52 12Q52 60 98 69Z" />
<glyph unicode="&quot;" glyph-name="quotedbl" horiz-adv-x="324" d="M59 590Q59 630 53 668Q53 683 66 693T98 703Q130 703 130 588Q130 582 130 568T131 547T129 530T126 513T118 500Q109 489 84 489T58 510L59 590ZM197 675Q197 690 211 696T236 703L250 701Q267
696 267 680V516Q267 501 253 494T227 487L214 489Q197 494 197 511V675Z" />
<glyph unicode="#" glyph-name="numbersign" horiz-adv-x="595" d="M431 339L413 224Q416 223 453 223Q553 223 553 204Q553 175 496 175Q465 175 437 179T406 184Q390 98 366 22Q360 1 317 1Q301 1 301 9Q301 25 320 86T344 182Q280 177 200 165Q176 87 162 15Q160
4 146 -2T120 -9Q97 -9 97 6Q97 33 115 90T136 158L122 156Q62 150 50 156T37 170T44 185T64 193T90 197T121 198T148 199Q174 280 182 312Q137 301 106 300T64 303T54 318Q54 326 77 331T139 341T192 350Q196 369 205 408T216 463T233 485T259 492Q282 492 282
476Q282 447 271 409T258 364Q316 373 375 376Q382 431 393 488Q394 497 408 503T435 510Q456 509 457 496Q449 457 437 377Q548 374 548 361Q548 333 482 336Q468 336 450 337T431 339ZM212 206Q307 218 351 221Q357 261 369 339Q314 338 248 326Q232 266 212
206Z" />
<glyph unicode="$" glyph-name="dollar" horiz-adv-x="539" d="M252 669L253 778Q253 785 266 790T290 796T304 792V677Q388 677 454 608Q459 598 445 590T415 580T390 583Q353 622 304 634Q302 456 301 366Q306 363 337 347T378 325T415 303T452 274T478 244Q505
212 505 165Q505 139 486 117T443 83T384 61Q344 50 296 42Q294 -102 293 -175Q293 -183 280 -188T255 -193T241 -188Q243 -36 245 39Q109 39 32 97Q28 99 28 101Q28 107 49 116T80 125T96 122Q157 78 245 70L249 331Q175 369 135 406T94 501T140 605T252 669ZM161
516Q161 456 250 397Q250 477 252 635Q219 628 190 592T161 516ZM297 70Q338 72 372 86Q437 112 437 158Q437 183 420 209T378 254Q332 290 300 305Q298 149 297 70Z" />
<glyph unicode="%" glyph-name="percent" horiz-adv-x="735" d="M35 569T91 603T197 637T278 615T309 547T258 457T152 411T67 434T35 513ZM98 492T114 473T162 453T220 478T246 535T230 586T176 606T118 580T98 523ZM546 639Q554 655 581 655T611 639Q520 475
398 296Q290 136 164 -45Q153 -61 129 -61T101 -46Q161 52 313 274T546 639ZM579 216Q625 216 663 191T702 121T653 37T544 -3Q505 -3 480 24T455 86Q455 216 579 216ZM518 72T534 53T573 34T617 57T639 112T621 162T577 181T536 165T520 135T518 112T518 98Q518
72 534 53Z" />
<glyph unicode="&amp;" glyph-name="ampersand" horiz-adv-x="338" d="M114 234T139 217T192 200T245 214T291 228T313 215Q313 196 273 179T199 157Q200 134 207 30Q206 20 191 14T168 7Q146 7 144 13Q135 123 135 162Q96 172 72 196T47 251Q47 302 105 342Q71
359 71 395Q71 449 124 478Q115 509 115 543T130 617Q132 622 148 626T177 630T192 629Q178 591 178 558T187 497Q241 497 241 480Q241 470 229 461T204 451T181 450T160 445Q137 437 137 407Q137 391 149 383T177 372Q217 368 217 358Q217 342 201 335T176 327T163
328Q141 325 128 306T114 261Z" />
<glyph unicode="&apos;" glyph-name="quotesingle" horiz-adv-x="186" d="M71 650Q73 668 102 674Q109 675 114 675Q133 675 135 658Q120 558 120 457Q120 444 107 438T82 431L72 432Q56 436 56 451Q56 551 71 650Z" />
<glyph unicode="(" glyph-name="parenleft" horiz-adv-x="274" d="M215 767Q102 585 102 387Q102 144 270 -51Q274 -55 274 -59Q274 -68 258 -76T230 -84Q217 -84 211 -76Q39 124 39 375Q39 580 156 768Q165 782 191 782T218 774Q218 771 215 767Z" />
<glyph unicode=")" glyph-name="parenright" horiz-adv-x="238" d="M25 774L24 775Q24 784 45 790T76 796T88 791Q197 587 197 363T83 -63Q80 -69 64 -74T36 -79T20 -75Q133 128 133 350T25 774Z" />
<glyph unicode="*" glyph-name="asterisk" horiz-adv-x="442" d="M207 719T215 726T237 734T251 695Q251 680 248 653T245 623Q248 625 260 636T281 653T304 670T329 686Q355 702 372 702T390 695T372 674T312 633T259 592Q265 587 300 560Q379 499 379 489Q379
466 360 466Q346 466 311 485T253 533Q251 536 250 539L259 446Q259 439 250 434T230 429T219 435Q211 512 208 545Q201 538 180 516T147 482T116 458T88 446T71 454T71 472Q95 495 139 531T198 581Q126 637 68 663Q56 667 56 673T67 688T87 697T108 693T133 681T157
667T183 649T205 634Q205 639 204 654T202 681T205 706Z" />
<glyph unicode="+" glyph-name="plus" horiz-adv-x="454" d="M119 271L171 269Q169 389 169 447Q169 459 186 467T220 475T238 466Q238 434 239 370T240 275Q265 278 393 295Q421 295 421 277T398 247L387 244Q289 230 240 225Q238 114 234 58Q233 48 218 42T184
35T165 48L171 219Q170 219 166 219L94 216Q31 216 31 233Q31 262 72 268Q96 271 119 271Z" />
<glyph unicode="," glyph-name="comma" horiz-adv-x="183" d="M64 -22Q64 -13 61 4T57 36T56 64Q58 95 96 95Q128 95 128 0Q128 -164 19 -247Q7 -255 -4 -255T-25 -250T-35 -238T-23 -220Q64 -153 64 -22Z" />
<glyph unicode="-" glyph-name="hyphen" horiz-adv-x="545" d="M129 298L321 291Q387 291 415 296T450 302Q481 302 481 286Q481 264 447 252T367 239T295 237T236 237T151 241T92 245Q64 245 64 256Q64 273 101 290Q118 298 129 298Z" />
<glyph unicode="." glyph-name="period" horiz-adv-x="226" d="M92 -30T71 -17T50 16T72 52T117 70T156 57T172 25T151 -12T111 -30Z" />
<glyph unicode="/" glyph-name="slash" horiz-adv-x="491" d="M397 755Q406 774 450 774Q468 774 466 765Q399 627 291 340T94 -113Q83 -131 41 -131Q23 -131 23 -126Q23 -125 25 -123Q114 43 222 330T397 755Z" />
<glyph unicode="0" glyph-name="zero" horiz-adv-x="644" d="M131 612Q159 648 205 670T312 693Q430 693 512 590T595 345Q595 253 556 170T440 32T266 -22T111 66T54 334T131 612ZM271 29Q345 29 404 78T494 201T525 345T493 482T403 594T284 639Q240 639 207
609T156 532Q122 441 122 343Q122 287 131 228T154 130T198 60T271 29Z" />
<glyph unicode="1" glyph-name="one" horiz-adv-x="338" d="M173 678Q263 678 263 460Q263 360 241 32Q240 22 223 14T199 5Q176 5 173 15Q172 38 172 90T179 280T186 486Q186 625 153 625Q130 625 82 583Q69 570 44 570T17 583Q17 609 75 643T173 678Z" />
<glyph unicode="2" glyph-name="two" horiz-adv-x="568" d="M454 79Q517 67 533 65T550 49Q550 44 547 37Q533 15 513 12Q508 12 387 33T217 54T136 48Q131 44 118 32T96 12Q71 -7 44 -7T17 12Q17 44 42 65T107 98Q220 209 259 255Q377 397 377 535Q377 626 267
626Q202 626 136 592Q122 586 106 593T90 616Q90 639 160 659T290 679T398 642T445 531Q445 330 202 109Q298 109 454 79Z" />
<glyph unicode="3" glyph-name="three" horiz-adv-x="524" d="M66 607T151 635T299 663T405 633T449 542Q449 441 315 354Q380 343 425 305T471 210Q471 124 394 60T225 -4Q178 -4 129 18T44 79Q40 83 40 88Q40 98 58 108T87 118T105 112Q159 50 243 50Q300 50
348 87T396 192Q396 243 359 276T269 310Q236 310 203 292Q190 286 175 293T159 314T174 335Q382 436 382 535Q382 569 351 585T271 602Q187 602 121 567Q115 563 107 563T88 566Q66 573 66 587Q66 607 151 635Z" />
<glyph unicode="4" glyph-name="four" horiz-adv-x="544" d="M330 407L338 632Q338 642 355 649T389 656T407 648Q407 629 403 537T398 395T403 308Q404 308 421 309T451 311T480 311Q513 309 513 292Q513 268 486 264Q460 259 436 259T406 260Q413 108 413 89T413
58T414 41T411 28T403 14Q388 4 367 4T345 12Q345 121 337 259Q332 261 302 261L149 258Q25 258 25 284Q25 286 26 289Q74 431 91 516T129 632Q149 660 174 661Q193 661 200 654T203 638Q171 571 140 451T102 309L335 307Q330 369 330 407Z" />
<glyph unicode="5" glyph-name="five" horiz-adv-x="578" d="M455 599L228 603Q195 603 173 602Q183 558 183 501T158 371Q228 378 282 379T374 373T450 349T513 300T538 225Q538 137 457 70T244 2Q164 2 108 35T37 134Q38 145 54 154T78 163Q101 163 105 152Q116
103 165 77T277 50Q370 50 423 103T477 227Q477 324 238 324Q230 324 222 324L110 319Q95 319 86 326T81 348T97 442T108 568Q108 568 106 614Q106 641 119 646T187 652H250Q336 652 452 648Q479 648 487 636T485 611T455 599Z" />
<glyph unicode="6" glyph-name="six" horiz-adv-x="581" d="M175 490T148 411T121 262T139 143Q194 211 284 276T444 342Q486 342 520 306T555 215T505 107T386 23T254 -7T143 32Q51 105 51 243Q51 338 91 432T205 591T366 655Q399 655 399 632Q399 615 375 606Q361
601 346 601Q281 601 228 546ZM265 50Q298 50 350 72T446 135T491 217Q491 245 476 261T436 277Q378 277 295 209T173 90Q215 50 265 50Z" />
<glyph unicode="7" glyph-name="seven" horiz-adv-x="486" d="M29 602Q29 620 45 629T88 638T192 647T318 657T411 632T456 552Q456 516 415 434L219 26Q210 7 173 7Q150 7 150 22Q150 28 153 34Q221 187 321 375Q322 378 332 396T346 421L358 445Q388 506 388
545Q388 603 280 603Q245 603 176 595T68 587T29 602Z" />
<glyph unicode="8" glyph-name="eight" horiz-adv-x="600" d="M336 685Q371 685 420 672T512 630T556 566T535 496T472 426Q407 370 309 309Q315 305 337 293T369 274T402 254T436 231T466 209T494 184T516 159Q535 135 535 109Q535 65 462 35T284 4Q63 4 63 116Q63
160 99 202T209 295Q56 383 56 469T144 620T336 685ZM434 153Q382 199 284 253Q257 268 251 272Q202 240 170 199T137 124T181 70T292 50T412 64T465 102T434 153ZM125 482Q127 423 172 388Q207 362 264 332Q393 420 431 455Q489 509 489 553Q489 587 424 610T314
633Q234 633 180 594T125 482Z" />
<glyph unicode="9" glyph-name="nine" horiz-adv-x="504" d="M342 15Q355 94 355 246Q355 266 355 307T354 372Q259 277 152 277Q96 277 64 311T31 414Q31 507 90 583T227 659T360 619T419 507Q425 402 425 335Q425 128 411 19Q409 0 369 0Q345 0 342 15ZM355
500Q355 533 310 574T221 615H217Q175 615 137 544T98 421T121 346T178 322Q236 322 295 384T355 500Z" />
<glyph unicode=":" glyph-name="colon" horiz-adv-x="245" d="M63 94T85 111T126 128T159 119T173 92T148 58T105 42T75 51T63 77ZM121 417Q144 417 162 406T181 373T163 336T124 319T90 335T77 372Q77 412 121 417Z" />
<glyph unicode=";" glyph-name="semicolon" horiz-adv-x="244" d="M133 436Q152 436 164 424T177 400Q177 379 150 366T93 353T63 382Q63 436 133 436ZM48 -110Q29 -110 29 -86Q29 -70 45 -67Q65 -62 77 -50T93 -25T99 -4T103 21T104 46V93Q104 103 117 109T141
115Q166 112 166 98Q166 -13 142 -52Q114 -97 60 -108Q54 -110 48 -110Z" />
<glyph unicode="&lt;" glyph-name="less" horiz-adv-x="473" d="M391 518Q391 508 381 497T302 440Q114 310 114 296Q114 282 146 258L159 249Q171 239 200 214T243 177T283 147T328 116Q380 87 426 73Q441 68 441 61T427 42T394 30Q386 30 382 32Q330 48 278
79T198 133T111 211T41 276T30 291T48 313T131 376T211 434T245 464T274 490T302 512Q335 535 363 535T391 518Z" />
<glyph unicode="=" glyph-name="equal" horiz-adv-x="602" d="M126 339Q121 338 115 338L94 343Q78 351 78 368Q78 395 145 405T316 416T449 422Q484 422 484 400T455 364Q431 352 307 352T126 339ZM148 239L503 235Q528 235 528 221Q528 203 499 187Q485 179
474 179L290 176Q95 176 95 199Q95 212 112 225T148 239Z" />
<glyph unicode="&gt;" glyph-name="greater" horiz-adv-x="473" d="M80 38Q80 48 90 59T168 120Q357 262 357 276Q357 290 325 314L312 323Q234 389 179 424T45 483Q30 488 30 495T44 514T77 526Q93 526 134 509T204 475T251 446T301 409T344 372Q388 334 438
289Q441 286 441 281T422 258T334 183T255 118T226 92T197 66T168 44Q136 21 108 21T80 38Z" />
<glyph unicode="?" glyph-name="question" horiz-adv-x="440" d="M86 620Q78 614 69 614T47 622T34 639T47 657Q113 696 225 696Q362 696 393 652Q407 633 407 599T377 513T311 419T244 326T210 242Q209 228 195 220T168 212H160Q143 216 142 233Q145 279 176
332T241 424T304 512T333 593T306 638T208 650T86 620ZM201 106Q218 104 231 94T244 64T220 28T170 12Q131 12 131 40T151 87T201 106Z" />
<glyph unicode="@" glyph-name="at" horiz-adv-x="524" d="M98 341Q125 401 174 439T286 477T396 424T468 300T492 174T469 85T395 51T327 110Q290 30 220 30Q165 30 165 104T206 234T303 290Q325 290 347 272T369 212T382 134T412 97Q423 97 430 111T438 148Q438
243 387 341T278 439Q228 439 187 389T125 265T103 118T120 -10T179 -100T285 -136Q324 -136 373 -121Q382 -119 388 -119Q401 -119 401 -129Q401 -146 354 -156T270 -166Q166 -166 105 -100T44 93T98 341ZM233 78Q253 78 271 112T303 189T323 239Q310 248 295
248Q265 248 244 204T222 119T233 78Z" />
<glyph unicode="A" glyph-name="A" horiz-adv-x="694" d="M661 5Q645 -17 615 -17Q607 -17 599 -15Q577 35 567 126T551 247Q442 251 333 251T138 242Q129 201 119 120T103 10Q67 -19 38 2Q41 26 47 78T57 166T71 259T88 355T112 446T143 533T182 606T233 666Q295
717 368 717T489 661T563 514T603 331T632 143T661 5ZM456 609T426 636T352 664T267 621T202 514Q159 395 148 294Q248 305 349 305T544 299Q540 314 529 370T507 468T476 560Z" />
<glyph unicode="B" glyph-name="B" horiz-adv-x="696" d="M88 62L80 647Q80 711 339 711Q461 711 543 665T626 533Q626 476 582 425T483 360Q552 339 602 299T653 195T598 82Q492 -11 272 -11Q88 -11 88 62ZM153 357Q215 381 290 381Q325 381 360 381Q413 381
488 428T564 519Q564 583 484 620T307 658T150 636Q150 618 150 584T151 470T153 357ZM580 195Q580 282 392 322Q296 294 210 294Q182 294 155 297Q158 178 158 55Q216 42 275 42T381 49T474 73T550 121T580 195Z" />
<glyph unicode="C" glyph-name="C" horiz-adv-x="738" d="M645 565Q630 551 619 545T598 544T583 552T568 571T553 592Q502 655 422 655T271 604T157 468T114 293Q114 181 188 110T386 39T603 108Q618 119 635 140T665 170T689 178T722 171Q679 87 579 41T351
-6T136 65T48 271Q48 355 76 433T153 572T277 669T439 705Q594 705 645 565Z" />
<glyph unicode="D" glyph-name="D" horiz-adv-x="757" d="M264 -6L181 -9Q111 -9 90 10Q77 20 77 38Q77 151 85 334T93 620Q93 661 169 686T332 711Q495 711 602 619T710 380Q710 306 685 243T616 135T516 57Q402 -6 264 -6ZM639 356Q639 485 552 572T325 660Q257
660 163 615Q163 534 155 373T147 150T148 62Q204 51 268 51Q430 51 534 130T639 356Z" />
<glyph unicode="E" glyph-name="E" horiz-adv-x="630" d="M333 718L487 715Q564 715 593 697Q590 669 572 660T520 651L304 654Q222 654 166 649Q155 593 155 488L156 443Q156 414 155 381Q201 373 275 373L394 374Q462 374 472 367T482 352Q482 314 385 314L158
321Q157 297 156 239Q154 118 147 56Q211 52 239 52T297 53T409 59T531 64T587 59T602 34Q602 22 596 18T584 11T572 7T559 4T544 3T529 2T514 1H500Q304 -8 249 -8Q84 -8 84 38Q82 131 82 215Q82 492 100 676Q121 709 222 714Q285 718 333 718Z" />
<glyph unicode="F" glyph-name="F" horiz-adv-x="602" d="M443 718L488 717Q515 717 530 714L557 710Q578 707 594 695Q586 653 528 653L263 661Q220 661 160 657Q162 548 162 362Q276 372 352 372Q499 372 499 343Q499 306 453 306Q437 306 418 309Q342 318 286
318T161 310Q159 277 156 206T152 110T149 76T147 52T143 29T136 10Q130 -6 114 -14Q109 -16 105 -16Q92 -16 76 -8Q76 3 76 55T85 276T94 533T90 674Q90 698 139 708Q193 719 242 719T318 720L443 718Z" />
<glyph unicode="G" glyph-name="G" horiz-adv-x="761" d="M419 305Q363 305 363 324Q363 346 432 358T572 371T675 367T716 356T726 336Q726 156 640 71T393 -14T140 65T48 283Q48 475 163 594T449 714Q524 714 591 683T673 603Q659 591 646 591T615 597T577 620T519
654T437 672Q304 672 207 559T109 291Q109 169 198 100T408 31Q545 31 602 116Q656 194 656 315Q648 322 635 322T604 321Q558 319 498 312T419 305Z" />
<glyph unicode="H" glyph-name="H" horiz-adv-x="721" d="M563 684Q578 708 609 708Q621 708 631 702Q638 593 638 487T634 218T628 7Q604 -9 589 -9T566 -6Q560 47 560 102L566 330Q480 338 374 338T153 317Q145 119 145 25Q120 5 105 5T80 10Q77 59 77 148T89
442T103 680Q116 701 148 701Q158 701 167 697Q170 669 170 626T164 495T158 372Q279 392 382 392T564 385Q567 422 567 494T563 684Z" />
<glyph unicode="I" glyph-name="I" horiz-adv-x="244" d="M163 704Q153 252 152 -2Q137 -18 126 -18T106 -13Q83 2 83 43Q85 524 90 606T105 701T129 714T163 704Z" />
<glyph unicode="J" glyph-name="J" horiz-adv-x="477" d="M383 700Q383 625 394 468T405 232Q405 115 363 56T211 -3Q145 -3 88 25T9 100Q34 121 52 121T86 109T114 81T158 54T241 41T314 86T336 216T326 427T316 612T326 688T352 704T383 700Z" />
<glyph unicode="K" glyph-name="K" horiz-adv-x="644" d="M158 706L161 471Q161 421 158 374Q246 409 314 457T420 549T484 631T532 693T571 716T606 703Q565 600 491 526T302 374Q355 347 402 298T481 200Q568 67 644 10Q627 -16 595 -16T516 35T431 150T342
272T250 344Q242 341 210 326T158 304Q158 135 153 20Q135 2 88 2Q86 32 86 139L90 686Q102 708 135 708Q146 708 158 706Z" />
<glyph unicode="L" glyph-name="L" horiz-adv-x="535" d="M159 681L154 238Q154 135 160 43Q220 39 269 39L479 43Q528 43 528 15Q528 -18 318 -18Q267 -18 187 -13T90 3Q85 109 85 349L90 701Q116 721 132 721Q159 721 159 681Z" />
<glyph unicode="M" glyph-name="M" horiz-adv-x="861" d="M93 398Q93 560 76 694Q76 715 105 715T182 660T274 538T362 417T426 361T487 419T571 547T661 675T739 734T769 718Q778 595 778 498T777 341T776 253T772 128T769 13Q754 -8 728 -8Q717 -8 707 -2Q701
121 701 288T704 634Q684 618 648 560T577 444T500 340T420 293T336 347T231 493T155 609Q160 525 160 435T159 308Q158 148 153 17Q137 -4 103 -4Q94 -4 86 -1Q86 -1 93 398Z" />
<glyph unicode="N" glyph-name="N" horiz-adv-x="781" d="M620 78L629 698Q645 714 663 714T691 708Q698 575 698 489L690 26Q690 6 690 -12Q656 -34 634 -34L622 -32Q612 -27 607 -25T592 -11T580 6T567 28T552 51T496 142T429 248T370 337T298 438Q221 536 156
596Q161 465 161 316T155 -2Q143 -20 88 -20Q88 545 84 676Q103 694 121 694T156 684Q182 668 214 636Q320 530 414 395T620 78Z" />
<glyph unicode="O" glyph-name="O" horiz-adv-x="815" d="M704 565T735 501T767 350T732 189T641 70Q526 -20 387 -20T148 70T49 318Q49 408 78 480T158 596Q262 688 404 688Q544 688 652 605Q704 565 735 501ZM115 316Q115 187 188 110T384 33Q525 33 610 119T696
338T610 550T401 629T197 549T115 316Z" />
<glyph unicode="P" glyph-name="P" horiz-adv-x="671" d="M88 322Q88 478 75 597Q75 628 101 651T170 686Q256 708 359 708Q492 708 568 650T645 470T547 276T308 203Q236 203 157 233Q152 185 152 103L153 54Q153 30 152 4Q147 -3 141 -6T133 -10T125 -13T118
-14Q112 -16 104 -16H87Q85 59 85 119L88 322ZM155 305Q228 256 330 256T502 319T572 473T500 609T328 654T150 608Q155 543 155 305Z" />
<glyph unicode="Q" glyph-name="Q" horiz-adv-x="782" d="M730 393Q730 190 609 84Q631 60 647 44Q654 35 678 25T711 4T720 -22Q708 -27 691 -27T643 -14T593 21L564 52Q481 2 364 2Q219 2 134 92T49 316Q49 412 83 501T188 650T349 711Q495 711 608 633Q663
595 696 533T730 393ZM536 164L570 126Q656 209 656 360T574 583T353 655Q290 655 235 605T150 481T120 343T133 232T175 145T254 81T382 57T524 92Q437 179 423 195T402 232Q413 240 426 240Q469 240 536 164Z" />
<glyph unicode="R" glyph-name="R" horiz-adv-x="693" d="M150 192L153 41Q153 10 139 -1T113 -12T90 -9Q77 98 77 200T83 431T91 635Q91 715 305 715Q418 715 518 668Q570 644 603 601T636 504T612 407T551 336T466 286Q387 250 290 238Q338 211 446 108Q478
77 527 53T628 28Q633 28 649 30T676 34T696 30T706 10Q706 -24 621 -24Q522 -24 424 52Q381 84 340 118Q239 203 151 225Q150 216 150 192ZM561 491Q561 575 486 617T294 660Q221 660 158 644Q158 565 153 469T148 336T149 283Q297 294 378 318Q465 343 508 380Q561
426 561 491Z" />
<glyph unicode="S" glyph-name="S" horiz-adv-x="627" d="M178 698T223 710T312 722T394 717T473 698T540 658T569 594Q570 579 558 572T530 564T507 571T492 594Q454 671 326 671Q239 671 184 634T128 526Q128 486 153 458T218 413T307 384T404 355T493 317T559
256T584 161Q584 81 506 25T308 -31Q216 -31 128 8T40 88Q40 99 53 108T78 118T102 111T127 90T152 70Q228 22 322 22Q388 22 451 62T514 171Q514 217 480 247T395 291T285 322T174 357T89 415T55 510T78 607T140 673Z" />
<glyph unicode="T" glyph-name="T" horiz-adv-x="645" d="M-13 667Q-13 715 331 715Q410 715 534 709T662 690Q660 645 579 645Q556 645 502 650T410 655T371 638Q371 423 361 -3Q340 -18 299 -18Q298 26 298 87L303 519Q303 597 301 650Q280 652 247 652T142
647T42 641Q-13 641 -13 667Z" />
<glyph unicode="U" glyph-name="U" horiz-adv-x="686" d="M99 692Q131 713 155 704Q167 700 164 682Q134 484 134 410T142 281T171 167T236 71T343 34Q431 34 497 141T564 400T493 697Q514 715 530 715T556 712Q636 597 636 413Q636 262 558 124Q520 59 458 18T329
-24T215 4T142 76T98 178Q69 278 69 397Q69 573 99 692Z" />
<glyph unicode="V" glyph-name="V" horiz-adv-x="672" d="M12 687Q21 711 54 711Q64 711 72 707Q106 632 150 496T239 242T341 43Q396 59 459 294Q485 391 512 487T573 649T643 715Q657 715 673 707Q647 682 618 596T561 409T502 208T427 42T334 -24Q266 -24 178
206Q131 326 107 395T52 564T12 687Z" />
<glyph unicode="W" glyph-name="W" horiz-adv-x="1047" d="M186 711Q183 685 174 621T159 516Q144 393 144 313T149 189T167 105T202 42T258 19Q304 19 339 69T395 197T429 356T457 512T483 616Q510 634 524 634T545 631Q551 583 557 457T575 260T605 141T661
60T746 27T826 72T871 192Q896 326 896 468T872 691Q897 709 918 709T954 676T975 592Q986 500 986 425T972 274T929 133T847 29T725 -10Q679 -9 643 12T584 63T544 141Q518 210 500 317Q458 170 429 114Q358 -21 234 -22Q154 -22 114 36Q79 88 70 182Q67 222 67
273Q67 440 121 699Q147 714 162 714T186 711Z" />
<glyph unicode="X" glyph-name="X" horiz-adv-x="643" d="M576 713Q487 538 371 364Q432 275 525 163T651 10Q650 -1 635 -8T604 -16Q571 -16 521 41T407 192T331 302Q314 282 286 238T231 151T170 67T97 0T17 -26Q6 -26 0 -25Q67 53 106 99Q215 230 292 352Q241
418 170 497T66 617T32 674T47 697T79 704Q104 704 142 657T234 532T329 412Q355 454 387 518T439 620T488 687T548 717Q556 717 576 713Z" />
<glyph unicode="Y" glyph-name="Y" horiz-adv-x="597" d="M336 320Q346 346 367 402T401 487T432 561T465 624T496 666Q527 704 574 704Q583 704 600 699Q562 677 506 559T404 314T306 84T222 -20Q209 -20 194 -14Q213 27 247 116T307 255Q168 404 94 516T19 687Q19
697 31 704T58 712T84 695T110 643T148 563T220 452T336 320Z" />
<glyph unicode="Z" glyph-name="Z" horiz-adv-x="644" d="M113 696L548 707Q573 707 587 701T601 685Q601 679 597 672Q481 499 271 238Q171 113 115 39Q156 36 217 36L517 43Q583 43 626 39Q620 -12 536 -12L158 -23Q25 -23 25 10Q25 19 33 30Q106 140 269 336T511
651Q238 640 81 640Q38 640 38 664Q38 696 113 696Z" />
<glyph unicode="[" glyph-name="bracketleft" horiz-adv-x="364" d="M184 -28Q232 -28 318 -5Q334 -5 332 -25Q330 -49 304 -52Q205 -65 80 -65Q57 -65 57 -51Q57 53 73 292T108 652Q109 666 127 676Q165 698 322 702Q344 702 344 690Q344 674 318 663Q306 659
294 659Q204 659 161 648Q162 618 137 335T112 20Q112 -28 184 -28Z" />
<glyph unicode="\" glyph-name="backslash" horiz-adv-x="481" d="M28 768Q27 775 39 782Q53 789 65 789T83 783Q134 627 279 311T456 -83Q456 -90 442 -96Q428 -103 416 -103T401 -98Q370 -21 225 295T28 768Z" />
<glyph unicode="]" glyph-name="bracketright" horiz-adv-x="355" d="M72 16L201 20Q224 20 234 18Q232 82 211 675Q187 675 132 668T63 660T46 660Q16 660 16 679T38 708Q45 711 61 711T130 718T202 726H234Q239 726 241 725T248 723T255 721T260 716Q266 711
266 703Q291 316 291 -9Q291 -19 278 -24T246 -29T178 -28L53 -30Q34 -30 35 -16Q36 1 56 12Q64 16 72 16Z" />
<glyph unicode="^" glyph-name="asciicircum" horiz-adv-x="444" d="M101 438Q93 424 69 424T45 436Q45 439 48 443Q68 480 84 546T121 667T181 757Q194 769 209 769T232 758Q258 699 316 590Q399 430 399 420T381 403Q371 400 360 400Q347 400 341 412Q316 467
265 566T195 704Q168 663 145 569T101 438Z" />
<glyph unicode="_" glyph-name="underscore" horiz-adv-x="725" d="M135 -79Q210 -89 290 -89T467 -85T610 -79Q626 -79 626 -87Q626 -90 618 -101T597 -114T525 -118Q359 -125 229 -125T98 -104Q98 -94 110 -87T135 -79Z" />
<glyph unicode="`" glyph-name="grave" horiz-adv-x="356" d="M299 591Q312 586 312 577Q312 570 302 555T274 540Q268 540 265 542Q183 571 82 652Q75 658 75 664T80 681Q89 699 114 699Q121 699 127 696Q227 617 299 591Z" />
<glyph unicode="a" glyph-name="a" horiz-adv-x="449" d="M375 288L370 173Q370 86 390 56Q402 36 423 36Q429 36 440 39Q461 45 475 33Q468 -2 405 -2Q362 -2 348 34Q337 61 332 101T324 157Q259 33 198 6Q167 -8 126 -8T63 31T40 147T65 306T138 447T243 505Q325
505 352 437Q375 379 375 288ZM116 266T109 218T102 132T117 67T158 40Q212 40 262 142T312 332Q312 389 282 426Q262 450 230 450T171 413T130 321Z" />
<glyph unicode="b" glyph-name="b" horiz-adv-x="452" d="M71 719Q83 741 115 741Q122 741 129 739Q131 686 131 443Q132 444 140 452T151 462T161 471T173 481T186 489T200 497T214 503Q229 508 249 508Q323 508 368 447T413 309T390 165T319 45T208 -6T102 41T59
148T66 372T73 607T71 719ZM214 43Q253 43 284 80Q347 153 347 287Q347 359 319 414T240 470Q211 470 189 442T155 366Q132 277 132 168Q132 76 170 55Q187 45 214 43Z" />
<glyph unicode="c" glyph-name="c" horiz-adv-x="446" d="M395 375Q376 356 357 356T327 372T308 408T283 444T236 461Q197 457 165 406T118 292T103 176T133 82T216 42Q276 42 312 84Q327 102 340 120Q372 162 398 162Q407 162 424 157Q424 120 357 60T210 -1T86
49T40 180Q40 283 90 386Q115 436 158 468T254 501T339 466T395 375Z" />
<glyph unicode="d" glyph-name="d" horiz-adv-x="473" d="M435 801Q397 457 397 311T424 18Q404 -2 389 -2T364 2Q343 76 339 163Q315 125 304 109T264 62Q213 2 143 2Q90 2 67 51T43 178T60 326T121 448T227 500Q265 500 297 484T341 441Q343 468 345 524T349
623T358 712Q369 808 407 808Q420 808 435 801ZM306 427T285 437T230 448T165 409Q106 332 106 186Q106 139 121 93T165 46Q207 46 247 101T309 227T331 356Q331 383 319 405Z" />
<glyph unicode="e" glyph-name="e" horiz-adv-x="473" d="M110 203Q108 183 108 176Q108 116 144 83T231 50T312 64T358 94Q394 139 424 139Q435 139 450 133Q440 84 375 44T210 3Q140 3 90 47T39 169T69 318T157 442T274 494T370 470T407 398Q407 311 330 255T165
198Q142 198 110 203ZM186 236Q233 236 270 266T322 329T338 389T317 436T268 457Q218 457 176 388T115 245Q159 236 186 236Z" />
<glyph unicode="f" glyph-name="f" horiz-adv-x="314" d="M134 -7Q116 -7 116 296Q116 424 115 451H95Q81 451 73 451T53 452T33 455T17 460Q2 466 2 481Q2 500 64 500Q91 500 113 498Q114 518 114 549T116 598T118 641T123 680T133 711T149 738T172 756Q195 773
248 773T327 747T373 657Q358 639 338 639Q331 639 324 641Q306 689 292 706T252 723T215 714T195 691Q180 661 180 546Q180 541 180 528T180 504L265 512Q315 512 315 489Q315 474 291 469T231 463T180 457Q178 429 178 384T183 240T188 89T178 15T134 -7Z" />
<glyph unicode="g" glyph-name="g" horiz-adv-x="466" d="M234 500Q325 500 360 426Q379 387 391 352T407 256Q413 163 413 45T357 -144T192 -215T11 -145Q31 -125 54 -125T119 -145T208 -166T286 -145T332 -84Q357 -15 357 86Q357 101 354 197Q327 115 277 62T164
8T72 64T42 193T62 333T127 451T234 500ZM115 304T109 265T103 187T119 99T168 51Q231 51 280 145T329 336Q329 369 299 410T222 452Q190 452 166 422T128 348Z" />
<glyph unicode="h" glyph-name="h" horiz-adv-x="488" d="M65 207L74 655Q74 707 68 726Q86 742 123 742Q138 635 138 467Q138 417 129 235Q176 488 297 488Q340 488 363 443T393 332T403 202Q413 46 459 46Q460 46 478 52Q518 64 523 58Q523 47 492 31T435 14Q391
14 368 59T339 170T331 299T317 409T280 455Q248 455 222 386T180 232T144 79T100 9Q65 9 65 207Z" />
<glyph unicode="i" glyph-name="i" horiz-adv-x="200" d="M130 736Q129 713 129 685T132 627Q118 611 94 611Q64 611 64 659Q64 661 64 674T64 697T68 722Q75 746 99 746T130 736ZM66 246Q66 442 86 472Q93 483 103 483T136 472Q131 387 131 287Q131 287 133 66Q133
35 120 23T95 10T71 16Q66 146 66 246Z" />
<glyph unicode="j" glyph-name="j" horiz-adv-x="201" d="M123 641Q121 613 82 613Q50 615 50 700Q50 710 50 720Q51 746 84 746Q103 746 112 742Q123 700 123 641ZM-20 -197Q72 -197 72 119Q72 195 67 309T61 441Q61 483 101 483Q124 483 124 457L123 429Q123
402 128 342Q141 158 141 86T135 -38T112 -141T62 -220T-20 -249Q-48 -249 -70 -242T-92 -222Q-92 -208 -83 -202T-65 -195T-39 -195T-20 -197Z" />
<glyph unicode="k" glyph-name="k" horiz-adv-x="472" d="M140 742Q141 672 141 638T141 569T137 438T133 283Q171 309 224 363T320 457Q388 518 417 494Q428 485 424 477Q414 456 379 426T295 358T219 288Q292 278 336 206Q355 173 373 140Q419 53 473 22Q453
2 427 2T376 27T332 88T294 160Q251 247 194 247Q167 247 148 230T129 193Q129 73 125 15Q111 -4 95 -4Q90 -4 84 -2Q62 7 62 35T68 205Q79 568 79 669Q79 716 88 732T111 748T140 742Z" />
<glyph unicode="l" glyph-name="l" horiz-adv-x="238" d="M92 598Q92 697 65 731Q78 750 110 750Q116 750 123 749Q148 724 148 604Q148 539 142 453Q130 303 130 233Q130 44 203 44Q203 44 240 51Q249 51 255 43Q252 7 197 7T111 40T74 124T66 208T67 280T76
394Q92 544 92 598Z" />
<glyph unicode="m" glyph-name="m" horiz-adv-x="668" d="M106 437Q117 437 117 305Q117 284 117 238T116 190Q126 303 136 344T158 414T182 460Q214 501 256 501Q309 501 335 448T363 307Q388 488 495 488Q541 488 560 441T579 329L576 177Q576 27 641 27L698
36Q703 36 708 35Q698 20 671 12T618 3Q567 3 542 48T514 144T512 231L514 320Q514 364 509 404T480 444Q446 444 415 302T376 31Q359 13 333 12Q325 12 318 15Q309 67 309 188T296 382T242 454Q214 454 196 392Q167 295 144 90Q138 42 135 21Q114 3 92 3L77 5Q63
172 63 419Q74 437 106 437Z" />
<glyph unicode="n" glyph-name="n" horiz-adv-x="476" d="M470 28Q452 9 429 9Q386 9 365 55T341 167T336 299T326 411T290 457Q255 457 231 394T196 254Q168 39 142 13Q124 4 111 4T89 7Q68 99 62 324Q60 436 58 469Q79 483 94 483T118 480Q123 437 123 304T125
151Q130 172 137 219T151 296T170 368T199 433T243 475T306 493Q353 493 374 451T398 345T400 217T416 98T470 28Z" />
<glyph unicode="o" glyph-name="o" horiz-adv-x="490" d="M144 493T240 493T393 415T451 238T388 69T228 0T87 54T43 208Q43 337 93 415ZM124 323T118 284T111 212T116 151T133 97T169 55T226 39Q293 39 338 94T384 227T343 378T241 452Q205 452 178 427T138 363Z" />
<glyph unicode="p" glyph-name="p" horiz-adv-x="471" d="M117 31Q120 -50 137 -198Q118 -217 92 -217Q87 -217 81 -216Q80 -177 67 -39T53 172T62 300T93 401Q138 498 259 498Q334 498 382 416T430 225Q430 139 374 74T219 9Q158 9 117 31ZM251 444Q166 444 138
356Q114 281 114 149Q114 101 115 78Q204 59 236 59Q294 59 328 105T362 219Q362 318 333 381T251 444Z" />
<glyph unicode="q" glyph-name="q" horiz-adv-x="463" d="M378 405T389 343T402 228T404 136T400 44T396 -88T412 -212Q398 -234 371 -234Q362 -234 354 -230Q347 -168 347 -80L349 50Q349 136 343 198Q292 63 226 30Q196 14 158 14Q94 14 69 58T44 170T54 289T87
386T148 459T245 486T340 446ZM317 370Q317 392 291 415T229 439T169 412T131 343Q106 262 106 202Q106 68 158 68Q202 68 235 102T284 187Q317 287 317 370Z" />
<glyph unicode="r" glyph-name="r" horiz-adv-x="398" d="M157 98L160 41Q160 19 148 11T123 2T97 6Q75 122 64 295T50 491Q65 505 81 505T111 501Q115 472 117 373T122 249Q136 333 172 406Q192 447 224 471T294 496T363 463T395 402Q395 392 383 387T357 381T334
392T323 416T310 441T283 452Q238 452 206 371Q157 250 157 98Z" />
<glyph unicode="s" glyph-name="s" horiz-adv-x="436" d="M310 400Q301 423 276 436T214 449T145 427T112 368T142 310T216 277T304 254T378 213T409 138Q409 71 354 36T220 1Q174 1 100 26T25 86Q25 112 69 112Q82 112 103 96Q167 49 234 49Q270 49 296 61Q344
84 344 135Q344 166 314 185T240 215T152 239T78 282T47 360Q47 421 102 459T238 497Q293 497 337 469T382 386Q382 350 341 350Q324 350 319 356T313 377T310 400Z" />
<glyph unicode="t" glyph-name="t" horiz-adv-x="358" d="M60 419Q15 419 -1 441Q-1 457 12 466T42 477T94 482Q97 509 97 551T99 624Q102 703 123 721Q132 729 142 729T161 727Q164 655 164 640L158 490Q160 489 169 489L241 492Q319 492 319 468Q319 434 291
428Q278 425 261 425T216 429T176 434T160 433Q157 404 157 376T158 305T166 203T195 102T251 59Q268 59 291 72T326 86T348 81T358 68Q358 47 316 28T243 8Q133 8 106 216Q98 276 94 422Q78 419 60 419Z" />
<glyph unicode="u" glyph-name="u" horiz-adv-x="458" d="M141 469Q115 420 115 323Q115 177 170 90Q202 39 246 39T318 86Q350 144 350 246Q350 374 314 435Q298 464 296 477T302 496T332 502Q393 502 412 376Q418 341 418 306Q418 215 382 124Q331 -1 221 -1Q163
-1 122 42Q45 124 45 289Q45 361 55 399T72 448T89 470T111 478T141 469Z" />
<glyph unicode="v" glyph-name="v" horiz-adv-x="449" d="M12 481Q21 500 51 500Q64 500 73 494Q101 417 128 339Q179 196 223 113Q244 235 304 359T415 483Q430 483 445 476Q330 325 280 76Q270 18 258 10Q245 1 231 1T210 7T199 19T190 39T181 58Q79 249 12 481Z" />
<glyph unicode="w" glyph-name="w" horiz-adv-x="672" d="M328 116Q312 70 267 38T168 6T85 59T55 208Q55 476 134 476Q144 476 159 473Q156 457 145 412Q123 324 123 257T142 116T196 41Q214 41 231 64T258 112T279 171T293 211Q278 269 278 329Q278 332 278
347T279 378T285 414Q295 456 339 456Q376 456 376 344Q376 324 371 286T365 233Q365 187 409 114T491 41T548 85T566 183Q566 245 556 277T543 320T530 351T517 379T501 408T486 434Q457 485 452 490Q477 511 498 511Q559 467 595 368T631 187T597 59T489 12Q438
12 393 40T328 116Z" />
<glyph unicode="x" glyph-name="x" horiz-adv-x="387" d="M27 470Q44 493 70 493Q80 493 90 488Q111 354 178 242Q222 324 284 473Q308 486 322 486T346 483Q326 418 299 362T248 259T213 190Q241 155 260 135T315 92Q361 62 402 62Q423 62 431 54Q420 20 378
20Q308 20 238 75Q212 96 208 100T180 127Q172 115 158 85T133 38T106 11T77 1T53 4Q69 37 100 94T143 172Q93 250 64 317T27 470Z" />
<glyph unicode="y" glyph-name="y" horiz-adv-x="442" d="M298 420Q298 492 344 492Q353 492 362 490Q362 478 362 425T376 213T390 -25Q390 -151 346 -199T197 -247T-2 -179Q16 -157 45 -157Q56 -158 80 -172Q151 -214 198 -214Q268 -214 297 -170T326 -22Q326
3 321 158Q320 155 314 133T305 103T295 77T279 50T258 31Q236 11 203 11T149 20T116 48T92 88T75 141T66 201T61 267T59 332T58 398V458Q68 475 94 475Q130 475 130 449L124 352Q124 225 151 133T207 41Q229 41 246 65T272 132T287 215T295 306Q298 385 298 420Z"
/>
<glyph unicode="z" glyph-name="z" horiz-adv-x="440" d="M148 68Q301 81 362 81T423 52Q423 31 400 27Q382 24 326 24T183 18T67 11T37 28Q37 52 100 109L160 170Q205 216 233 247T288 323T316 397Q316 438 247 438Q214 438 151 426T55 414T23 436Q23 464 113
478T269 493Q384 493 384 422Q384 375 343 310T228 160T148 68Z" />
<glyph unicode="{" glyph-name="braceleft" horiz-adv-x="331" d="M235 13Q245 13 262 23T291 34T310 25T318 0T292 -28T237 -41Q189 -41 163 -13T127 61T111 153T88 245T40 312Q26 321 26 337T40 362Q77 383 92 418T107 485V513Q107 605 122 646T170 703T260
718Q276 718 281 705T279 677T256 661Q189 655 175 606Q166 574 165 522T159 441T135 383T91 337Q144 305 157 251Q159 242 161 198T167 116T188 46T235 13Z" />
<glyph unicode="|" glyph-name="bar" horiz-adv-x="201" d="M62 723Q62 735 71 742T90 750T110 743T119 723Q138 10 141 -78Q141 -95 131 -100T113 -106L99 -102Q85 -95 84 -78Q81 10 62 723Z" />
<glyph unicode="}" glyph-name="braceright" horiz-adv-x="292" d="M179 491Q179 395 218 395Q264 395 264 366Q264 356 255 348Q220 318 212 174Q209 117 202 63T173 -27T109 -63Q88 -63 58 -53T28 -25T36 -1T54 5T78 0T102 -4T123 5T140 31T150 66Q157 97 157
150L156 216Q156 305 196 350Q162 362 141 409T120 502Q120 502 129 603Q129 645 96 645Q90 645 76 642T53 639T36 644T28 666Q28 687 58 698T118 709Q187 709 187 628Q187 620 184 589Q179 533 179 491Z" />
<glyph unicode="~" glyph-name="asciitilde" horiz-adv-x="558" d="M459 401Q462 421 483 421Q492 421 503 414T514 391Q514 330 479 289T386 247Q351 247 296 288T204 330Q148 330 96 246Q88 232 73 232T50 242T43 260T47 275Q82 332 121 364T214 397Q250 397
308 353T396 308T438 328T459 401Z" />
<glyph unicode="&#xa1;" glyph-name="exclamdown" horiz-adv-x="214" d="M132 -214Q131 -226 118 -233T89 -241Q62 -241 62 -221Q64 74 77 222Q78 233 92 240T121 248Q146 248 146 228Q132 81 132 -214ZM124 396Q113 394 98 394T65 406T48 439T69 477T109 495T149
482T170 453Q170 405 124 396Z" />
<glyph unicode="&#xa2;" glyph-name="cent" horiz-adv-x="394" d="M334 411Q334 391 295 391Q270 391 254 407Q239 168 238 115Q266 131 297 156Q304 163 331 163T359 152T315 113T237 73Q239 -11 239 -28T239 -49Q238 -60 226 -65T203 -71Q182 -71 182 -57Q180
-25 180 4T181 59Q180 59 178 59Q106 59 77 104T47 213Q47 297 87 377Q104 411 133 435T201 466Q203 490 204 532T206 589Q208 610 235 610T263 589Q259 505 258 463Q280 455 307 440T334 411ZM117 252Q115 242 115 232T116 204T123 163T143 121T180 100Q183 177
189 282T198 424Q168 414 145 358T117 252Z" />
<glyph unicode="&#xa3;" glyph-name="sterling" horiz-adv-x="725" d="M401 367L270 369Q270 289 289 160Q324 167 339 167Q368 167 447 122T562 77T619 112Q629 130 670 130Q691 130 691 117Q691 113 689 108Q635 18 552 18Q511 18 432 69T314 121T231 92T149
34T83 5T56 21Q56 34 115 73T215 132Q193 275 193 366Q129 363 94 354Q35 340 35 370Q35 402 195 412Q203 513 251 584Q276 621 317 642T421 664T541 614T624 484Q624 464 590 456Q579 453 567 453T549 465Q531 525 490 572T397 620Q292 620 271 415L344 417Q433
417 433 395Q433 384 424 376T401 367Z" />
<glyph unicode="&#xa5;" glyph-name="yen" horiz-adv-x="553" d="M199 363L100 359Q80 359 70 360T50 367T40 388Q40 411 65 411Q108 411 173 413Q155 451 119 537T70 645T58 671Q58 688 80 694Q85 695 94 695T110 683Q142 629 188 521T260 368Q282 404 357 515T462
682Q469 696 486 696T511 688T520 673T518 662Q486 601 364 421L410 423Q475 423 475 394Q475 369 429 369T332 372Q312 342 299 316L445 323Q458 323 467 314T477 293Q477 264 355 264L288 265L279 9Q276 -13 251 -13Q240 -13 230 -5T220 15Q228 92 228 266L153
264Q57 264 57 295Q57 306 64 313T85 321L194 315Q211 315 227 316Q226 318 199 363Z" />
<glyph unicode="&#xa7;" glyph-name="section" horiz-adv-x="466" d="M358 656Q358 641 336 641T288 637T234 624T187 596T169 549Q169 506 303 456Q434 403 434 327Q434 286 396 250T306 188Q334 160 334 122Q334 59 263 -15T133 -113Q127 -115 117 -115T97 -103T87
-82Q87 -70 104 -64Q156 -41 211 20T266 127Q266 171 186 193Q152 202 118 212Q38 236 38 287Q38 327 93 372Q134 406 197 446Q158 468 132 501T106 568T144 633T230 678T322 693Q344 693 355 670Q358 662 358 656ZM246 223Q366 270 366 332Q366 366 321 388L302
398Q275 411 260 416Q146 343 128 323T110 293Q110 269 169 246T246 223Z" />
<glyph unicode="&#xa8;" glyph-name="dieresis" horiz-adv-x="481" d="M144 641Q157 641 175 633T193 611Q193 582 168 569T105 556T68 579Q68 641 144 641ZM285 606T309 624T356 642T397 632T416 607Q416 582 385 569T330 556Q285 556 285 578Q285 606 309 624Z" />
<glyph unicode="&#xa9;" glyph-name="copyright" horiz-adv-x="729" d="M217 77T136 162T54 371T153 582T377 670T588 584T674 370T583 160T355 77ZM99 342Q99 242 170 180T350 118T542 182T626 358T560 550T395 631Q273 631 186 546T99 342ZM450 291Q460 299
475 293T491 272Q491 250 451 235T382 220Q331 220 291 253T250 341T289 442T373 489Q396 489 432 470T469 430Q469 423 462 418T445 412T416 431T382 450Q352 450 325 411T298 336T321 280T380 260T450 291Z" />
<glyph unicode="&#xaa;" glyph-name="ordfeminine" horiz-adv-x="363" d="M233 605L232 570Q232 495 271 495Q274 495 290 499Q326 508 326 483Q326 471 306 464T270 456Q223 456 203 515Q159 445 113 445Q84 445 65 466T45 531T77 617T152 659Q171 659 202 641T233
605ZM124 619T102 591T80 538T89 498T116 481T159 521T194 599Q183 602 172 610T151 619Q124 619 102 591Z" />
<glyph unicode="&#xab;" glyph-name="guillemotleft" horiz-adv-x="666" d="M616 135Q631 130 631 123T617 104T584 92Q571 92 532 106T468 134T430 154T392 181T359 208T319 244T279 280T271 291Q271 311 330 357T465 448T559 492T584 475Q587 470 587 466Q587
455 571 448Q538 433 447 374T356 297Q356 261 455 208T616 135ZM371 116Q386 111 386 104T372 85T339 73Q331 73 327 75Q275 91 234 114T171 156T106 216T35 283Q31 287 31 291Q31 311 90 357T225 448T319 492T344 476Q346 472 346 468Q346 457 330 449Q298 434
207 375T116 297Q116 262 217 197T371 116Z" />
<glyph unicode="&#xae;" glyph-name="registered" horiz-adv-x="716" d="M56 338Q56 478 127 570T334 663T567 575T664 352T569 126T316 34Q56 34 56 338ZM321 70Q437 70 529 157T621 358T533 547T339 623Q276 623 229 598T154 530Q100 444 100 323T161 136T321
70ZM230 199L234 435Q234 450 269 461T350 472T430 450T466 380Q466 316 361 287Q365 285 406 257T468 219T488 198T481 182T469 178T449 184T374 231T283 282V240Q283 230 282 224T280 210T277 197T272 187Q268 178 258 178T239 184T230 199ZM283 387L282 343Q282
324 283 316Q368 330 392 348T416 391Q416 432 355 432Q331 432 309 427T282 420Q283 407 283 387Z" />
<glyph unicode="&#xb0;" glyph-name="degree" horiz-adv-x="353" d="M41 604T88 647T189 691T280 661T317 579T263 482T150 436T67 467T41 542Q41 604 88 647ZM109 524T121 505T162 485T219 513T247 570T229 619T182 639T131 610T109 553Z" />
<glyph unicode="&#xb1;" glyph-name="plusminus" horiz-adv-x="435" d="M183 227L192 301Q125 296 111 296T86 306T75 330Q75 340 94 344T149 350T195 353L194 407Q194 479 227 479Q240 479 248 472T257 452Q257 406 254 359Q315 367 325 367T347 357T358 338T355
326T344 320T329 316T310 313T290 311T270 309T253 308Q250 196 220 196Q207 196 195 205T183 227ZM98 140L342 147Q364 146 374 122Q377 115 377 110Q377 95 355 96Q348 96 340 96L131 89Q108 89 89 90T60 112Q56 119 56 125Q56 139 78 140Q87 140 98 140Z" />
<glyph unicode="&#xb4;" glyph-name="acute" horiz-adv-x="374" d="M113 596T180 638T262 690T289 700T320 695T338 681Q338 675 327 667T247 616T145 546Q137 540 124 540T92 546T73 560Q73 564 79 570Q113 596 180 638Z" />
<glyph unicode="&#xb5;" glyph-name="mu" horiz-adv-x="669" d="M230 408Q230 64 319 64Q360 64 389 114T430 239Q450 373 450 455Q450 480 462 487T488 488T506 469Q523 417 524 237Q525 182 549 128T626 50Q644 41 644 26T634 6T611 6Q548 35 519 83T481 201Q435
13 338 13Q265 13 223 84T180 253Q157 154 146 -66T113 -383Q110 -400 93 -400Q63 -400 57 -374Q57 -371 57 -368L77 -155Q89 -18 98 68Q120 296 165 485Q170 501 187 501T218 494T231 474L230 408Z" />
<glyph unicode="&#xb6;" glyph-name="paragraph" horiz-adv-x="700" d="M540 512L548 7Q548 -60 547 -158Q545 -178 523 -178Q505 -178 498 -169T490 -152Q490 323 484 513Q426 513 381 509Q381 492 381 434T387 224T393 -14T389 -157Q388 -178 363 -178Q355 -178
344 -173T333 -153L336 3Q336 55 336 107T333 159Q305 150 263 150Q172 150 102 199T32 334Q32 402 69 449T170 520Q288 562 446 562Q520 562 642 552Q655 551 661 542T667 524Q667 505 645 505L540 512Z" />
<glyph unicode="&#xb7;" glyph-name="middot" horiz-adv-x="236" d="M99 294T78 307T57 340T79 376T124 394T163 381T179 349T158 312T118 294Z" />
<glyph unicode="&#xb8;" glyph-name="cedilla" horiz-adv-x="384" d="M237 -19Q270 -19 291 -34T312 -81Q312 -131 263 -157T144 -183T45 -134Q45 -125 60 -116T93 -107Q100 -107 124 -126T178 -146T225 -132T244 -91Q244 -49 215 -49Q214 -49 199 -51Q165 -56
165 -45Q165 -4 214 55T296 115Q312 115 312 110Q312 96 277 43T237 -19Z" />
<glyph unicode="&#xba;" glyph-name="ordmasculine" horiz-adv-x="291" d="M99 450T72 470T44 528T71 609T141 651T215 628T247 560T217 482T143 450ZM80 510T97 499T140 487T189 507T211 557T190 600T146 613T101 584T80 533Z" />
<glyph unicode="&#xbb;" glyph-name="guillemotright" horiz-adv-x="663" d="M48 440Q33 445 33 452T47 471T80 483Q93 483 132 469T196 441T234 421T272 394T305 367T345 331T385 295T393 284Q393 264 334 218T199 127T104 83T76 97T87 121Q118 135 213 198T308
280Q308 317 210 368T48 440ZM291 459Q276 464 276 471T290 490T323 502Q344 502 393 480T471 436T518 397T570 347T629 292Q633 288 633 284Q633 264 574 218T439 127T344 83T316 97T327 121Q358 135 453 198T548 280Q548 316 446 379T291 459Z" />
<glyph unicode="&#xbf;" glyph-name="questiondown" horiz-adv-x="430" d="M350 -106Q358 -100 367 -100T389 -108T402 -125T389 -143Q323 -182 211 -182Q74 -182 43 -138Q29 -119 29 -85T59 1T125 95T192 188T226 272Q227 286 241 294T268 302H276Q293 298 294
281Q291 235 260 182T195 90T132 2T103 -79T130 -124T228 -136T350 -106ZM235 408Q218 410 205 420T192 450T216 486T266 502Q305 502 305 474T285 427T235 408Z" />
<glyph unicode="&#xc0;" glyph-name="Agrave" horiz-adv-x="694" d="M661 5Q645 -17 615 -17Q607 -17 599 -15Q577 35 562 162Q556 218 551 247Q442 251 333 251T138 242Q129 201 119 120T103 10Q83 -6 58 -6Q49 -6 38 2Q41 26 54 140T88 356Q137 585 233 666Q295
717 372 717Q441 717 489 661T563 514T603 331T632 143T661 5ZM308 664T267 621T202 514Q159 395 148 294Q248 305 349 305T544 299Q540 314 529 370T507 468T476 560T426 636T352 664ZM479 814Q492 809 492 800Q492 793 482 778T454 763Q448 763 445 765Q363 794
262 875Q255 881 255 887T260 904Q269 922 294 922Q301 922 307 919Q407 840 479 814Z" />
<glyph unicode="&#xc1;" glyph-name="Aacute" horiz-adv-x="694" d="M661 5Q645 -17 615 -17Q607 -17 599 -15Q577 35 562 162Q556 218 551 247Q442 251 333 251T138 242Q129 201 119 120T103 10Q83 -6 58 -6Q49 -6 38 2Q41 26 54 140T88 356Q137 585 233 666Q295
717 372 717Q441 717 489 661T563 514T603 331T632 143T661 5ZM308 664T267 621T202 514Q159 395 148 294Q248 305 349 305T544 299Q540 314 529 370T507 468T476 560T426 636T352 664ZM250 829T317 871T399 923T426 933T457 928T475 914Q475 908 464 900T384 849T282
779Q274 773 261 773T229 779T210 793Q210 797 216 803Q250 829 317 871Z" />
<glyph unicode="&#xc2;" glyph-name="Acircumflex" horiz-adv-x="694" d="M661 5Q645 -17 615 -17Q607 -17 599 -15Q577 35 562 162Q556 218 551 247Q442 251 333 251T138 242Q129 201 119 120T103 10Q83 -6 58 -6Q49 -6 38 2Q41 26 54 140T88 356Q137 585 233
666Q295 717 372 717Q441 717 489 661T563 514T603 331T632 143T661 5ZM308 664T267 621T202 514Q159 395 148 294Q248 305 349 305T544 299Q540 314 529 370T507 468T476 560T426 636T352 664ZM265 854T296 867T363 881T423 870T460 844T491 811T520 783Q523 780
523 777Q523 771 505 766T467 760T409 800T351 849Q339 842 314 819T263 784T208 771T178 777L180 781Q186 785 225 819Z" />
<glyph unicode="&#xc3;" glyph-name="Atilde" horiz-adv-x="694" d="M661 5Q645 -17 615 -17Q607 -17 599 -15Q577 35 562 162Q556 218 551 247Q442 251 333 251T138 242Q129 201 119 120T103 10Q83 -6 58 -6Q49 -6 38 2Q41 26 54 140T88 356Q137 585 233 666Q295
717 372 717Q441 717 489 661T563 514T603 331T632 143T661 5ZM308 664T267 621T202 514Q159 395 148 294Q248 305 349 305T544 299Q540 314 529 370T507 468T476 560T426 636T352 664ZM248 779Q237 766 208 766T179 779Q179 784 183 790Q247 866 303 866Q335 866
378 840T431 814T447 820T458 832Q466 844 477 866Q486 882 515 882Q517 882 519 882Q547 881 545 863L542 854Q498 764 421 764Q395 764 354 789T299 814Q277 814 248 779Z" />
<glyph unicode="&#xc4;" glyph-name="Adieresis" horiz-adv-x="694" d="M661 5Q645 -17 615 -17Q607 -17 599 -15Q577 35 562 162Q556 218 551 247Q442 251 333 251T138 242Q129 201 119 120T103 10Q83 -6 58 -6Q49 -6 38 2Q41 26 54 140T88 356Q137 585 233 666Q295
717 372 717Q441 717 489 661T563 514T603 331T632 143T661 5ZM308 664T267 621T202 514Q159 395 148 294Q248 305 349 305T544 299Q540 314 529 370T507 468T476 560T426 636T352 664ZM259 861Q272 861 290 853T308 831Q308 802 283 789T220 776T183 799Q183 861
259 861ZM400 826T424 844T471 862T512 852T531 827Q531 802 500 789T445 776Q400 776 400 798Q400 826 424 844Z" />
<glyph unicode="&#xc5;" glyph-name="Aring" horiz-adv-x="694" d="M661 5Q645 -17 615 -17Q607 -17 599 -15Q577 35 562 162Q556 218 551 247Q442 251 333 251T138 242Q129 201 119 120T103 10Q83 -6 58 -6Q49 -6 38 2Q41 26 54 140T88 356Q137 585 233 666Q295
717 372 717Q441 717 489 661T563 514T603 331T632 143T661 5ZM308 664T267 621T202 514Q159 395 148 294Q248 305 349 305T544 299Q540 314 529 370T507 468T476 560T426 636T352 664ZM400 927Q429 924 458 909T487 869Q487 819 450 785T360 750Q328 750 296 767T263
809Q263 859 305 892T400 927ZM337 807T347 796T373 785T403 807T418 846T408 876T382 892Q337 861 337 819Q337 807 347 796Z" />
<glyph unicode="&#xc6;" glyph-name="AE" horiz-adv-x="985" d="M584 345Q584 339 579 84Q598 85 907 91Q931 91 943 68Q947 60 947 54Q947 38 923 36Q854 30 728 30T560 27Q514 27 514 80L517 236Q477 236 388 230T264 224T211 225Q117 104 67 23Q59 11 43 11T15
23T4 43T9 58Q67 131 154 254T322 486T485 681Q502 699 558 699T907 715Q933 715 944 692Q947 684 947 679Q947 664 923 659Q841 648 781 647Q593 644 562 644Q579 544 583 403Q655 412 772 412Q854 412 854 375Q854 352 830 352Q784 352 584 345ZM255 281L518
292L509 605Q455 544 361 420T255 281Z" />
<glyph unicode="&#xc7;" glyph-name="Ccedilla" horiz-adv-x="736" d="M722 171Q681 90 585 44T372 -6Q369 -12 359 -28T345 -53Q380 -53 408 -68T436 -115Q436 -165 387 -191T268 -217T169 -168Q169 -159 184 -150T217 -141Q224 -141 248 -160T302 -180T349 -166T368
-130T354 -96T323 -83Q322 -83 307 -85Q273 -90 273 -79Q273 -40 313 -4Q196 7 122 77T48 271Q48 355 76 433T153 572T277 669T439 705Q594 705 645 565Q630 551 619 545T598 544T583 552T568 571T553 592Q502 655 422 655T271 604T157 468T114 293Q114 181 188
110T386 39T603 108Q618 119 635 140T665 170T689 178T722 171Z" />
<glyph unicode="&#xc8;" glyph-name="Egrave" horiz-adv-x="630" d="M304 654Q222 654 166 649Q155 593 155 488L156 443Q156 414 155 381Q201 373 275 373L410 374Q482 374 482 352Q482 314 385 314L158 321Q157 297 156 208T147 56Q211 52 254 52T409 59Q491
64 531 64T587 59T602 38T594 16Q589 13 584 11T572 7T559 4T544 3T529 2T514 1T404 -3T249 -8Q84 -8 84 38Q82 131 82 215Q82 492 100 676Q110 692 149 705T333 718L487 715Q564 715 593 697Q590 669 572 660T520 651L304 654ZM453 822Q466 817 466 808Q466 801
456 786T428 771Q422 771 419 773Q337 802 236 883Q229 889 229 895T234 912Q243 930 268 930Q275 930 281 927Q381 848 453 822Z" />
<glyph unicode="&#xc9;" glyph-name="Eacute" horiz-adv-x="630" d="M304 654Q222 654 166 649Q155 593 155 488L156 443Q156 414 155 381Q201 373 275 373L410 374Q482 374 482 352Q482 314 385 314L158 321Q157 297 156 208T147 56Q211 52 254 52T409 59Q491
64 531 64T587 59T602 38T594 16Q589 13 584 11T572 7T559 4T544 3T529 2T514 1T404 -3T249 -8Q84 -8 84 38Q82 131 82 215Q82 492 100 676Q110 692 149 705T333 718L487 715Q564 715 593 697Q590 669 572 660T520 651L304 654ZM268 830T335 872T417 924T444 934T475
929T493 915Q493 909 482 901T402 850T300 780Q292 774 279 774T247 780T228 794Q228 798 234 804Q268 830 335 872Z" />
<glyph unicode="&#xca;" glyph-name="Ecircumflex" horiz-adv-x="630" d="M304 654Q222 654 166 649Q155 593 155 488L156 443Q156 414 155 381Q201 373 275 373L410 374Q482 374 482 352Q482 314 385 314L158 321Q157 297 156 208T147 56Q211 52 254 52T409 59Q491
64 531 64T587 59T602 38T594 16Q589 13 584 11T572 7T559 4T544 3T529 2T514 1T404 -3T249 -8Q84 -8 84 38Q82 131 82 215Q82 492 100 676Q110 692 149 705T333 718L487 715Q564 715 593 697Q590 669 572 660T520 651L304 654ZM253 861T284 874T351 888T411 877T448
851T479 818T508 790Q511 787 511 784Q511 778 493 773T455 767T397 807T339 856Q327 849 302 826T251 791T196 778T166 784L168 788Q174 792 213 826Z" />
<glyph unicode="&#xcb;" glyph-name="Edieresis" horiz-adv-x="630" d="M304 654Q222 654 166 649Q155 593 155 488L156 443Q156 414 155 381Q201 373 275 373L410 374Q482 374 482 352Q482 314 385 314L158 321Q157 297 156 208T147 56Q211 52 254 52T409 59Q491
64 531 64T587 59T602 38T594 16Q589 13 584 11T572 7T559 4T544 3T529 2T514 1T404 -3T249 -8Q84 -8 84 38Q82 131 82 215Q82 492 100 676Q110 692 149 705T333 718L487 715Q564 715 593 697Q590 669 572 660T520 651L304 654ZM240 863Q253 863 271 855T289 833Q289
804 264 791T201 778T164 801Q164 863 240 863ZM381 828T405 846T452 864T493 854T512 829Q512 804 481 791T426 778Q381 778 381 800Q381 828 405 846Z" />
<glyph unicode="&#xcc;" glyph-name="Igrave" horiz-adv-x="244" d="M127 714Q141 714 163 704Q153 252 152 -2Q137 -18 126 -18T106 -13Q83 2 83 43Q85 524 91 618Q91 714 127 714ZM235 820Q248 815 248 806Q248 799 238 784T210 769Q204 769 201 771Q119 800
18 881Q11 887 11 893T16 910Q25 928 50 928Q57 928 63 925Q163 846 235 820Z" />
<glyph unicode="&#xcd;" glyph-name="Iacute" horiz-adv-x="244" d="M127 714Q141 714 163 704Q153 252 152 -2Q137 -18 126 -18T106 -13Q83 2 83 43Q85 524 91 618Q91 714 127 714ZM34 826T101 868T183 920T210 930T241 925T259 911Q259 905 248 897T168 846T66
776Q58 770 45 770T13 776T-6 790Q-6 794 0 800Q34 826 101 868Z" />
<glyph unicode="&#xce;" glyph-name="Icircumflex" horiz-adv-x="244" d="M127 714Q141 714 163 704Q153 252 152 -2Q137 -18 126 -18T106 -13Q83 2 83 43Q85 524 91 618Q91 714 127 714ZM40 862T71 875T138 889T198 878T235 852T266 819T295 791Q298 788 298
785Q298 779 280 774T242 768T184 808T126 857Q114 850 89 827T38 792T-17 779T-47 785L-45 789Q-39 793 0 827Z" />
<glyph unicode="&#xcf;" glyph-name="Idieresis" horiz-adv-x="244" d="M127 714Q141 714 163 704Q153 252 152 -2Q137 -18 126 -18T106 -13Q83 2 83 43Q85 524 91 618Q91 714 127 714ZM35 864Q48 864 66 856T84 834Q84 805 59 792T-4 779T-41 802Q-41 864 35
864ZM176 829T200 847T247 865T288 855T307 830Q307 805 276 792T221 779Q176 779 176 801Q176 829 200 847Z" />
<glyph unicode="&#xd1;" glyph-name="Ntilde" horiz-adv-x="781" d="M690 26Q690 6 690 -12Q662 -31 634 -34Q628 -34 620 -31T607 -25T592 -11T580 6T567 28T552 51T495 143T370 337Q260 500 156 596Q161 465 161 316T155 -2Q143 -20 88 -20Q88 545 84 676Q103
694 124 694Q156 694 214 636Q320 530 414 395T620 78Q620 185 624 391T629 698Q645 714 663 714T691 708Q698 575 698 489L690 26ZM294 770Q283 757 254 757T225 770Q225 775 229 781Q293 857 349 857Q381 857 424 831T477 805T493 811T504 823Q512 835 523 857Q532
873 561 873Q563 873 565 873Q593 872 591 854L588 845Q544 755 467 755Q441 755 400 780T345 805Q323 805 294 770Z" />
<glyph unicode="&#xd2;" glyph-name="Ograve" horiz-adv-x="815" d="M767 264T732 189T641 70Q526 -20 392 -20Q247 -20 148 70T49 318Q49 437 100 523T231 648T404 688Q544 688 652 605Q704 565 735 501T767 350ZM115 316Q115 187 188 110T384 33Q525 33 610
119T696 338T610 550T401 629T197 549T115 316ZM489 806Q502 801 502 792Q502 785 492 770T464 755Q458 755 455 757Q373 786 272 867Q265 873 265 879T270 896Q279 914 304 914Q311 914 317 911Q417 832 489 806Z" />
<glyph unicode="&#xd3;" glyph-name="Oacute" horiz-adv-x="815" d="M767 264T732 189T641 70Q526 -20 392 -20Q247 -20 148 70T49 318Q49 437 100 523T231 648T404 688Q544 688 652 605Q704 565 735 501T767 350ZM115 316Q115 187 188 110T384 33Q525 33 610
119T696 338T610 550T401 629T197 549T115 316ZM310 809T377 851T459 903T486 913T517 908T535 894Q535 888 524 880T444 829T342 759Q334 753 321 753T289 759T270 773Q270 777 276 783Q310 809 377 851Z" />
<glyph unicode="&#xd4;" glyph-name="Ocircumflex" horiz-adv-x="815" d="M767 264T732 189T641 70Q526 -20 392 -20Q247 -20 148 70T49 318Q49 437 100 523T231 648T404 688Q544 688 652 605Q704 565 735 501T767 350ZM115 316Q115 187 188 110T384 33Q525 33
610 119T696 338T610 550T401 629T197 549T115 316ZM309 843T340 856T407 870T467 859T504 833T535 800T564 772Q567 769 567 766Q567 760 549 755T511 749T453 789T395 838Q383 831 358 808T307 773T252 760T222 766L224 770Q230 774 269 808Z" />
<glyph unicode="&#xd5;" glyph-name="Otilde" horiz-adv-x="815" d="M767 264T732 189T641 70Q526 -20 392 -20Q247 -20 148 70T49 318Q49 437 100 523T231 648T404 688Q544 688 652 605Q704 565 735 501T767 350ZM115 316Q115 187 188 110T384 33Q525 33 610
119T696 338T610 550T401 629T197 549T115 316ZM291 760Q280 747 251 747T222 760Q222 765 226 771Q290 847 346 847Q378 847 421 821T474 795T490 801T501 813Q509 825 520 847Q529 863 558 863Q560 863 562 863Q590 862 588 844L585 835Q541 745 464 745Q438
745 397 770T342 795Q320 795 291 760Z" />
<glyph unicode="&#xd6;" glyph-name="Odieresis" horiz-adv-x="815" d="M767 264T732 189T641 70Q526 -20 392 -20Q247 -20 148 70T49 318Q49 437 100 523T231 648T404 688Q544 688 652 605Q704 565 735 501T767 350ZM115 316Q115 187 188 110T384 33Q525 33 610
119T696 338T610 550T401 629T197 549T115 316ZM304 837Q317 837 335 829T353 807Q353 778 328 765T265 752T228 775Q228 837 304 837ZM445 802T469 820T516 838T557 828T576 803Q576 778 545 765T490 752Q445 752 445 774Q445 802 469 820Z" />
<glyph unicode="&#xd8;" glyph-name="Oslash" horiz-adv-x="797" d="M649 625Q765 527 765 395Q765 300 705 215T552 82T377 33T231 61Q226 55 217 43T200 21T183 1Q164 -20 151 -20T127 -12T115 7T177 90Q50 175 50 330Q50 403 80 482Q82 485 94 516Q121 582
140 588Q189 651 258 686T404 721Q505 721 600 661Q605 667 617 682T638 710T660 735Q685 762 699 762T724 754T736 736T721 707T680 660T649 625ZM322 668T253 618T147 480T110 317Q110 187 206 127Q266 205 385 372T571 623Q497 668 410 668ZM695 332Q705 365
705 401Q705 509 620 587Q556 505 439 341T263 101Q323 86 355 86Q467 86 565 156T695 332Z" />
<glyph unicode="&#xd9;" glyph-name="Ugrave" horiz-adv-x="686" d="M99 692Q131 713 155 704Q167 700 164 682Q134 484 134 380T172 166Q192 107 236 71T343 34Q431 34 497 141T564 400T493 697Q514 715 530 715T556 712Q636 597 636 413Q636 262 558 124Q520
59 458 18T329 -24T215 4T142 76T98 178Q69 278 69 397Q69 573 99 692ZM419 816Q432 811 432 802Q432 795 422 780T394 765Q388 765 385 767Q303 796 202 877Q195 883 195 889T200 906Q209 924 234 924Q241 924 247 921Q347 842 419 816Z" />
<glyph unicode="&#xda;" glyph-name="Uacute" horiz-adv-x="686" d="M99 692Q131 713 155 704Q167 700 164 682Q134 484 134 380T172 166Q192 107 236 71T343 34Q431 34 497 141T564 400T493 697Q514 715 530 715T556 712Q636 597 636 413Q636 262 558 124Q520
59 458 18T329 -24T215 4T142 76T98 178Q69 278 69 397Q69 573 99 692ZM267 829T334 871T416 923T443 933T474 928T492 914Q492 908 481 900T401 849T299 779Q291 773 278 773T246 779T227 793Q227 797 233 803Q267 829 334 871Z" />
<glyph unicode="&#xdb;" glyph-name="Ucircumflex" horiz-adv-x="686" d="M99 692Q131 713 155 704Q167 700 164 682Q134 484 134 380T172 166Q192 107 236 71T343 34Q431 34 497 141T564 400T493 697Q514 715 530 715T556 712Q636 597 636 413Q636 262 558 124Q520
59 458 18T329 -24T215 4T142 76T98 178Q69 278 69 397Q69 573 99 692ZM241 857T272 870T339 884T399 873T436 847T467 814T496 786Q499 783 499 780Q499 774 481 769T443 763T385 803T327 852Q315 845 290 822T239 787T184 774T154 780L156 784Q162 788 201 822Z"
/>
<glyph unicode="&#xdc;" glyph-name="Udieresis" horiz-adv-x="686" d="M99 692Q131 713 155 704Q167 700 164 682Q134 484 134 380T172 166Q192 107 236 71T343 34Q431 34 497 141T564 400T493 697Q514 715 530 715T556 712Q636 597 636 413Q636 262 558 124Q520
59 458 18T329 -24T215 4T142 76T98 178Q69 278 69 397Q69 573 99 692ZM251 854Q264 854 282 846T300 824Q300 795 275 782T212 769T175 792Q175 854 251 854ZM392 819T416 837T463 855T504 845T523 820Q523 795 492 782T437 769Q392 769 392 791Q392 819 416 837Z"
/>
<glyph unicode="&#xdf;" glyph-name="germandbls" horiz-adv-x="580" d="M188 36Q188 75 278 64Q295 62 301 62Q471 62 471 181Q471 292 305 302Q278 303 272 324Q270 329 270 334Q270 349 288 360Q338 390 379 442T420 547T386 626T306 654Q241 654 200 602T152
475T138 198T125 -76Q122 -105 93 -105L74 -100Q57 -90 56 -70Q61 36 75 426Q75 569 152 657Q209 721 299 721T435 673T481 561Q481 431 386 346Q456 325 502 283T548 177Q548 110 508 66Q465 17 359 4Q318 -1 277 -1T222 1T199 11T188 36Z" />
<glyph unicode="&#xe0;" glyph-name="agrave" horiz-adv-x="449" d="M375 288L370 173Q370 86 390 56Q402 36 423 36Q429 36 440 39Q461 45 475 33Q468 -2 405 -2Q362 -2 348 34Q337 61 332 101T324 157Q259 33 198 6Q167 -8 126 -8T63 31T40 147T65 306T138 447T243
505Q325 505 352 437Q375 379 375 288ZM116 266T109 218T102 132T117 67T158 40Q212 40 262 142T312 332Q312 389 282 426Q262 450 230 450T171 413T130 321ZM373 596Q386 591 386 582Q386 575 376 560T348 545Q342 545 339 547Q257 576 156 657Q149 663 149 669T154
686Q163 704 188 704Q195 704 201 701Q301 622 373 596Z" />
<glyph unicode="&#xe1;" glyph-name="aacute" horiz-adv-x="449" d="M375 288L370 173Q370 86 390 56Q402 36 423 36Q429 36 440 39Q461 45 475 33Q468 -2 405 -2Q362 -2 348 34Q337 61 332 101T324 157Q259 33 198 6Q167 -8 126 -8T63 31T40 147T65 306T138 447T243
505Q325 505 352 437Q375 379 375 288ZM116 266T109 218T102 132T117 67T158 40Q212 40 262 142T312 332Q312 389 282 426Q262 450 230 450T171 413T130 321ZM148 595T215 637T297 689T324 699T355 694T373 680Q373 674 362 666T282 615T180 545Q172 539 159 539T127
545T108 559Q108 563 114 569Q148 595 215 637Z" />
<glyph unicode="&#xe2;" glyph-name="acircumflex" horiz-adv-x="449" d="M375 288L370 173Q370 86 390 56Q402 36 423 36Q429 36 440 39Q461 45 475 33Q468 -2 405 -2Q362 -2 348 34Q337 61 332 101T324 157Q259 33 198 6Q167 -8 126 -8T63 31T40 147T65 306T138
447T243 505Q325 505 352 437Q375 379 375 288ZM116 266T109 218T102 132T117 67T158 40Q212 40 262 142T312 332Q312 389 282 426Q262 450 230 450T171 413T130 321ZM157 648T188 661T255 675T315 664T352 638T383 605T412 577Q415 574 415 571Q415 565 397 560T359
554T301 594T243 643Q231 636 206 613T155 578T100 565T70 571L72 575Q78 579 117 613Z" />
<glyph unicode="&#xe3;" glyph-name="atilde" horiz-adv-x="449" d="M375 288L370 173Q370 86 390 56Q402 36 423 36Q429 36 440 39Q461 45 475 33Q468 -2 405 -2Q362 -2 348 34Q337 61 332 101T324 157Q259 33 198 6Q167 -8 126 -8T63 31T40 147T65 306T138 447T243
505Q325 505 352 437Q375 379 375 288ZM116 266T109 218T102 132T117 67T158 40Q212 40 262 142T312 332Q312 389 282 426Q262 450 230 450T171 413T130 321ZM150 566Q139 553 110 553T81 566Q81 571 85 577Q149 653 205 653Q237 653 280 627T333 601T349 607T360
619Q368 631 379 653Q388 669 417 669Q419 669 421 669Q449 668 447 650L444 641Q400 551 323 551Q297 551 256 576T201 601Q179 601 150 566Z" />
<glyph unicode="&#xe4;" glyph-name="adieresis" horiz-adv-x="449" d="M375 288L370 173Q370 86 390 56Q402 36 423 36Q429 36 440 39Q461 45 475 33Q468 -2 405 -2Q362 -2 348 34Q337 61 332 101T324 157Q259 33 198 6Q167 -8 126 -8T63 31T40 147T65 306T138
447T243 505Q325 505 352 437Q375 379 375 288ZM116 266T109 218T102 132T117 67T158 40Q212 40 262 142T312 332Q312 389 282 426Q262 450 230 450T171 413T130 321ZM155 648Q168 648 186 640T204 618Q204 589 179 576T116 563T79 586Q79 648 155 648ZM296 613T320
631T367 649T408 639T427 614Q427 589 396 576T341 563Q296 563 296 585Q296 613 320 631Z" />
<glyph unicode="&#xe5;" glyph-name="aring" horiz-adv-x="449" d="M375 288L370 173Q370 86 390 56Q402 36 423 36Q429 36 440 39Q461 45 475 33Q468 -2 405 -2Q362 -2 348 34Q337 61 332 101T324 157Q259 33 198 6Q167 -8 126 -8T63 31T40 147T65 306T138 447T243
505Q325 505 352 437Q375 379 375 288ZM116 266T109 218T102 132T117 67T158 40Q212 40 262 142T312 332Q312 389 282 426Q262 450 230 450T171 413T130 321ZM282 727Q311 724 340 709T369 669Q369 619 332 585T242 550Q210 550 178 567T145 609Q145 659 187 692T282
727ZM219 607T229 596T255 585T285 607T300 646T290 676T264 692Q219 661 219 619Q219 607 229 596Z" />
<glyph unicode="&#xe6;" glyph-name="ae" horiz-adv-x="787" d="M424 203Q422 183 422 176Q422 116 458 83T545 50T626 64T672 94Q708 139 738 139Q749 139 764 133Q754 84 689 44T524 3Q475 3 428 40T370 138Q359 0 349 0Q333 0 327 6Q320 13 320 36T321 94T324
157Q259 33 198 6Q167 -8 126 -8T63 31T40 147T65 306T138 447T241 505T327 469T364 384T371 298T369 226Q384 342 450 418T596 494Q648 494 684 470T721 398Q721 311 644 255T479 198Q456 198 424 203ZM116 266T109 218T102 132T117 67T158 40Q212 40 262 142T312
332Q312 389 282 426Q262 450 230 450T171 413T130 321ZM500 236Q547 236 584 266T636 329T652 389T631 436T582 457Q532 457 490 388T429 245Q472 236 500 236Z" />
<glyph unicode="&#xe7;" glyph-name="ccedilla" horiz-adv-x="445" d="M174 -76Q152 -76 152 -67Q152 -31 183 0Q117 8 79 57T40 180Q40 283 90 386Q115 436 158 468T254 501T339 466T395 375Q376 356 357 356T327 372T308 408T283 444T236 461Q197 457 165 406T118
292T103 176T133 82T216 42Q276 42 312 84Q327 102 340 120Q372 162 398 162Q407 162 424 157Q424 125 368 70T241 2Q238 -4 229 -20T215 -45Q249 -45 275 -60T302 -107Q302 -157 257 -183T143 -209T45 -160Q45 -151 60 -142T93 -133Q100 -133 124 -152T178 -172T224
-158T242 -122T226 -88T193 -75L174 -76Z" />
<glyph unicode="&#xe8;" glyph-name="egrave" horiz-adv-x="473" d="M110 203Q108 183 108 176Q108 116 144 83T231 50T312 64T358 94Q394 139 424 139Q435 139 450 133Q440 84 375 44T210 3Q140 3 90 47T39 169T69 318T157 442T274 494T370 470T407 398Q407 311
330 255T165 198Q142 198 110 203ZM186 236Q233 236 270 266T322 329T338 389T317 436T268 457Q218 457 176 388T115 245Q159 236 186 236ZM379 596Q392 591 392 582Q392 575 382 560T354 545Q348 545 345 547Q263 576 162 657Q155 663 155 669T160 686Q169 704
194 704Q201 704 207 701Q307 622 379 596Z" />
<glyph unicode="&#xe9;" glyph-name="eacute" horiz-adv-x="473" d="M110 203Q108 183 108 176Q108 116 144 83T231 50T312 64T358 94Q394 139 424 139Q435 139 450 133Q440 84 375 44T210 3Q140 3 90 47T39 169T69 318T157 442T274 494T370 470T407 398Q407 311
330 255T165 198Q142 198 110 203ZM186 236Q233 236 270 266T322 329T338 389T317 436T268 457Q218 457 176 388T115 245Q159 236 186 236ZM155 598T222 640T304 692T331 702T362 697T380 683Q380 677 369 669T289 618T187 548Q179 542 166 542T134 548T115 562Q115
566 121 572Q155 598 222 640Z" />
<glyph unicode="&#xea;" glyph-name="ecircumflex" horiz-adv-x="473" d="M110 203Q108 183 108 176Q108 116 144 83T231 50T312 64T358 94Q394 139 424 139Q435 139 450 133Q440 84 375 44T210 3Q140 3 90 47T39 169T69 318T157 442T274 494T370 470T407 398Q407
311 330 255T165 198Q142 198 110 203ZM186 236Q233 236 270 266T322 329T338 389T317 436T268 457Q218 457 176 388T115 245Q159 236 186 236ZM175 646T206 659T273 673T333 662T370 636T401 603T430 575Q433 572 433 569Q433 563 415 558T377 552T319 592T261
641Q249 634 224 611T173 576T118 563T88 569L90 573Q96 577 135 611Z" />
<glyph unicode="&#xeb;" glyph-name="edieresis" horiz-adv-x="473" d="M110 203Q108 183 108 176Q108 116 144 83T231 50T312 64T358 94Q394 139 424 139Q435 139 450 133Q440 84 375 44T210 3Q140 3 90 47T39 169T69 318T157 442T274 494T370 470T407 398Q407
311 330 255T165 198Q142 198 110 203ZM186 236Q233 236 270 266T322 329T338 389T317 436T268 457Q218 457 176 388T115 245Q159 236 186 236ZM167 638Q180 638 198 630T216 608Q216 579 191 566T128 553T91 576Q91 638 167 638ZM308 603T332 621T379 639T420
629T439 604Q439 579 408 566T353 553Q308 553 308 575Q308 603 332 621Z" />
<glyph unicode="&#xec;" glyph-name="igrave" horiz-adv-x="200" d="M131 287L133 66Q133 35 120 23T95 10T71 16Q66 146 66 246T69 391T76 449T86 473T105 483T136 472Q131 387 131 287ZM216 591Q229 586 229 577Q229 570 219 555T191 540Q185 540 182 542Q100
571 -1 652Q-8 658 -8 664T-3 681Q6 699 31 699Q38 699 44 696Q144 617 216 591Z" />
<glyph unicode="&#xed;" glyph-name="iacute" horiz-adv-x="200" d="M131 287L133 66Q133 35 120 23T95 10T71 16Q66 146 66 246T69 391T76 449T86 473T105 483T136 472Q131 387 131 287ZM5 596T72 638T154 690T181 700T212 695T230 681Q230 675 219 667T139 616T37
546Q29 540 16 540T-16 546T-35 560Q-35 564 -29 570Q5 596 72 638Z" />
<glyph unicode="&#xee;" glyph-name="icircumflex" horiz-adv-x="200" d="M131 287L133 66Q133 35 120 23T95 10T71 16Q66 146 66 246T69 391T76 449T86 473T105 483T136 472Q131 387 131 287ZM21 636T52 649T119 663T179 652T216 626T247 593T276 565Q279 562
279 559Q279 553 261 548T223 542T165 582T107 631Q95 624 70 601T19 566T-36 553T-66 559L-64 563Q-58 567 -19 601Z" />
<glyph unicode="&#xef;" glyph-name="idieresis" horiz-adv-x="200" d="M131 287L133 66Q133 35 120 23T95 10T71 16Q66 146 66 246T69 391T76 449T86 473T105 483T136 472Q131 387 131 287ZM8 641Q21 641 39 633T57 611Q57 582 32 569T-31 556T-68 579Q-68 641
8 641ZM149 606T173 624T220 642T261 632T280 607Q280 582 249 569T194 556Q149 556 149 578Q149 606 173 624Z" />
<glyph unicode="&#xf1;" glyph-name="ntilde" horiz-adv-x="476" d="M470 28Q452 9 429 9Q386 9 365 55T341 167T336 299T326 411T290 457Q255 457 231 394T196 254Q168 39 142 13Q124 4 111 4T89 7Q68 99 62 324Q60 436 58 469Q79 483 94 483T118 480Q123 437
123 304T125 151Q130 172 137 219T151 296T170 368T199 433T243 475T306 493Q353 493 374 451T398 345T400 217T416 98T470 28ZM134 573Q123 560 94 560T65 573Q65 578 69 584Q133 660 189 660Q221 660 264 634T317 608T333 614T344 626Q352 638 363 660Q372 676
401 676Q403 676 405 676Q433 675 431 657L428 648Q384 558 307 558Q281 558 240 583T185 608Q163 608 134 573Z" />
<glyph unicode="&#xf2;" glyph-name="ograve" horiz-adv-x="490" d="M144 493T240 493T393 415T451 238T388 69T228 0T87 54T43 208Q43 337 93 415ZM124 323T118 284T111 212T116 151T133 97T169 55T226 39Q293 39 338 94T384 227T343 378T241 452Q205 452 178
427T138 363ZM345 591Q358 586 358 577Q358 570 348 555T320 540Q314 540 311 542Q229 571 128 652Q121 658 121 664T126 681Q135 699 160 699Q167 699 173 696Q273 617 345 591Z" />
<glyph unicode="&#xf3;" glyph-name="oacute" horiz-adv-x="490" d="M144 493T240 493T393 415T451 238T388 69T228 0T87 54T43 208Q43 337 93 415ZM124 323T118 284T111 212T116 151T133 97T169 55T226 39Q293 39 338 94T384 227T343 378T241 452Q205 452 178
427T138 363ZM140 596T207 638T289 690T316 700T347 695T365 681Q365 675 354 667T274 616T172 546Q164 540 151 540T119 546T100 560Q100 564 106 570Q140 596 207 638Z" />
<glyph unicode="&#xf4;" glyph-name="ocircumflex" horiz-adv-x="490" d="M144 493T240 493T393 415T451 238T388 69T228 0T87 54T43 208Q43 337 93 415ZM124 323T118 284T111 212T116 151T133 97T169 55T226 39Q293 39 338 94T384 227T343 378T241 452Q205 452
178 427T138 363ZM144 639T175 652T242 666T302 655T339 629T370 596T399 568Q402 565 402 562Q402 556 384 551T346 545T288 585T230 634Q218 627 193 604T142 569T87 556T57 562L59 566Q65 570 104 604Z" />
<glyph unicode="&#xf5;" glyph-name="otilde" horiz-adv-x="490" d="M144 493T240 493T393 415T451 238T388 69T228 0T87 54T43 208Q43 337 93 415ZM124 323T118 284T111 212T116 151T133 97T169 55T226 39Q293 39 338 94T384 227T343 378T241 452Q205 452 178
427T138 363ZM139 566Q128 553 99 553T70 566Q70 571 74 577Q138 653 194 653Q226 653 269 627T322 601T338 607T349 619Q357 631 368 653Q377 669 406 669Q408 669 410 669Q438 668 436 650L433 641Q389 551 312 551Q286 551 245 576T190 601Q168 601 139 566Z"
/>
<glyph unicode="&#xf6;" glyph-name="odieresis" horiz-adv-x="490" d="M144 493T240 493T393 415T451 238T388 69T228 0T87 54T43 208Q43 337 93 415ZM124 323T118 284T111 212T116 151T133 97T169 55T226 39Q293 39 338 94T384 227T343 378T241 452Q205 452
178 427T138 363ZM144 641Q157 641 175 633T193 611Q193 582 168 569T105 556T68 579Q68 641 144 641ZM285 606T309 624T356 642T397 632T416 607Q416 582 385 569T330 556Q285 556 285 578Q285 606 309 624Z" />
<glyph unicode="&#xf7;" glyph-name="divide" horiz-adv-x="541" d="M106 283L461 279Q486 279 486 265Q486 247 457 231Q443 223 432 223L248 220Q53 220 53 243Q53 256 70 269T106 283ZM207 123T229 140T270 157T303 148T317 121T292 87T249 71T219 80T207 106ZM265
446Q288 446 306 435T325 402T307 365T268 348T234 364T221 401Q221 441 265 446Z" />
<glyph unicode="&#xf8;" glyph-name="oslash" horiz-adv-x="567" d="M513 480Q513 459 461 407Q535 343 535 250T449 92T243 26Q206 26 170 37Q165 30 154 15T135 -11T117 -34Q96 -59 83 -59T60 -51T50 -34T59 -9T91 34T114 64Q73 96 54 131T35 222Q35 338 107
405T288 473Q354 473 412 442Q416 447 424 458T439 477T454 494Q471 513 482 513T503 503T513 480ZM289 413Q200 413 148 362T96 218Q96 144 150 112Q253 250 372 395Q331 413 289 413ZM211 92Q230 89 265 89T349 106T436 164T473 259T423 361Q312 227 211 92Z"
/>
<glyph unicode="&#xf9;" glyph-name="ugrave" horiz-adv-x="458" d="M141 469Q115 420 115 323Q115 177 170 90Q202 39 246 39T318 86Q350 144 350 246Q350 374 314 435Q298 464 296 477T302 496T332 502Q393 502 412 376Q418 341 418 306Q418 215 382 124Q331
-1 221 -1Q163 -1 122 42Q45 124 45 289Q45 361 55 399T72 448T89 470T111 478T141 469ZM313 585Q326 580 326 571Q326 564 316 549T288 534Q282 534 279 536Q197 565 96 646Q89 652 89 658T94 675Q103 693 128 693Q135 693 141 690Q241 611 313 585Z" />
<glyph unicode="&#xfa;" glyph-name="uacute" horiz-adv-x="458" d="M141 469Q115 420 115 323Q115 177 170 90Q202 39 246 39T318 86Q350 144 350 246Q350 374 314 435Q298 464 296 477T302 496T332 502Q393 502 412 376Q418 341 418 306Q418 215 382 124Q331
-1 221 -1Q163 -1 122 42Q45 124 45 289Q45 361 55 399T72 448T89 470T111 478T141 469ZM142 596T209 638T291 690T318 700T349 695T367 681Q367 675 356 667T276 616T174 546Q166 540 153 540T121 546T102 560Q102 564 108 570Q142 596 209 638Z" />
<glyph unicode="&#xfb;" glyph-name="ucircumflex" horiz-adv-x="458" d="M141 469Q115 420 115 323Q115 177 170 90Q202 39 246 39T318 86Q350 144 350 246Q350 374 314 435Q298 464 296 477T302 496T332 502Q393 502 412 376Q418 341 418 306Q418 215 382 124Q331
-1 221 -1Q163 -1 122 42Q45 124 45 289Q45 361 55 399T72 448T89 470T111 478T141 469ZM148 641T179 654T246 668T306 657T343 631T374 598T403 570Q406 567 406 564Q406 558 388 553T350 547T292 587T234 636Q222 629 197 606T146 571T91 558T61 564L63 568Q69
572 108 606Z" />
<glyph unicode="&#xfc;" glyph-name="udieresis" horiz-adv-x="458" d="M141 469Q115 420 115 323Q115 177 170 90Q202 39 246 39T318 86Q350 144 350 246Q350 374 314 435Q298 464 296 477T302 496T332 502Q393 502 412 376Q418 341 418 306Q418 215 382 124Q331
-1 221 -1Q163 -1 122 42Q45 124 45 289Q45 361 55 399T72 448T89 470T111 478T141 469ZM138 641Q151 641 169 633T187 611Q187 582 162 569T99 556T62 579Q62 641 138 641ZM279 606T303 624T350 642T391 632T410 607Q410 582 379 569T324 556Q279 556 279 578Q279
606 303 624Z" />
<glyph unicode="&#xff;" glyph-name="ydieresis" horiz-adv-x="442" d="M298 420Q298 492 344 492Q353 492 362 490Q362 478 362 425T376 213T390 -25Q390 -151 346 -199T197 -247T-2 -179Q16 -157 45 -157Q56 -158 80 -172Q151 -214 198 -214Q268 -214 297 -170T326
-22Q326 3 321 158Q320 155 314 133T305 103T295 77T279 50T258 31Q236 11 203 11T149 20T116 48T92 88T75 141T66 201T61 267T59 332T58 398V458Q68 475 94 475Q130 475 130 449L124 352Q124 225 151 133T207 41Q229 41 246 65T272 132T287 215T295 306Q298 385
298 420ZM124 641Q137 641 155 633T173 611Q173 582 148 569T85 556T48 579Q48 641 124 641ZM265 606T289 624T336 642T377 632T396 607Q396 582 365 569T310 556Q265 556 265 578Q265 606 289 624Z" />
<glyph unicode="&#x2013;" glyph-name="endash" horiz-adv-x="659" d="M563 302Q594 302 594 286Q594 264 548 252T442 239T348 237T270 237T162 241T92 245Q64 245 64 256Q64 273 101 290Q118 298 137 298T243 295T371 291T459 291T531 297T563 302Z" />
<glyph unicode="&#x2014;" glyph-name="emdash" horiz-adv-x="775" d="M673 302Q704 302 704 286Q704 264 648 252T518 239T402 237T306 237T176 241T95 245Q67 245 67 256Q67 273 104 290Q121 298 137 298T269 295T438 291T554 291T641 297T673 302Z" />
<glyph unicode="&#x2018;" glyph-name="quoteleft" horiz-adv-x="187" d="M138 563Q138 489 102 489Q74 489 74 510Q74 541 60 598T43 668Q43 683 56 693T88 703T122 655T138 563Z" />
<glyph unicode="&#x2019;" glyph-name="quoteright" horiz-adv-x="189" d="M144 675Q144 647 131 593T118 516Q118 487 88 487L66 492Q48 501 48 516Q48 544 61 598T74 680Q74 703 105 703L126 698Q144 690 144 675Z" />
<glyph unicode="&#x201a;" glyph-name="quotesinglbase" horiz-adv-x="183" d="M64 -22Q64 -13 61 4T57 36T56 64Q58 95 96 95Q128 95 128 0Q128 -164 19 -247Q7 -255 -4 -255T-25 -250T-35 -238T-23 -220Q64 -153 64 -22Z" />
<glyph unicode="&#x201c;" glyph-name="quotedblleft" horiz-adv-x="330" d="M137 563Q137 489 101 489Q73 489 73 510Q73 541 59 598T42 668Q42 683 55 693T87 703T121 655T137 563ZM186 690T200 696T225 703L238 701Q256 696 256 680Q256 653 269 599T282 516Q282
501 268 494T242 487L230 489Q212 494 212 516T199 592T186 668Z" />
<glyph unicode="&#x201d;" glyph-name="quotedblright" horiz-adv-x="330" d="M229 489Q193 489 193 563Q193 606 208 654T242 703T274 693T288 668Q286 655 272 598T257 510Q257 489 229 489ZM144 675Q144 647 131 593T118 516Q118 487 88 487L66 492Q48 501
48 516Q48 544 61 598T74 680Q74 703 105 703L126 698Q144 690 144 675Z" />
<glyph unicode="&#x201e;" glyph-name="quotedblbase" horiz-adv-x="338" d="M64 -22Q64 -13 61 4T57 36T56 64Q58 95 96 95Q128 95 128 0Q128 -164 19 -247Q7 -255 -4 -255T-25 -250T-35 -238T-23 -220Q64 -153 64 -22ZM219 -22Q219 -13 216 4T212 36T211 64Q213
95 251 95Q283 95 283 0Q283 -164 174 -247Q162 -255 151 -255T130 -250T120 -238T132 -220Q219 -153 219 -22Z" />
<glyph unicode="&#x2022;" glyph-name="bullet" horiz-adv-x="382" d="M76 392T118 421T199 450T271 417T304 344T271 282T194 259T113 287T76 354Z" />
<glyph unicode="&#x2039;" glyph-name="guilsinglleft" horiz-adv-x="421" d="M370 135Q385 130 385 123T371 104T338 92Q325 92 286 106T222 134T184 154T146 181T113 208T73 244T33 280T25 291Q25 311 84 357T219 448T313 492T340 473Q344 467 344 462Q344 451
329 444Q294 428 202 370T110 294Q110 257 208 206T370 135Z" />
<glyph unicode="&#x203a;" glyph-name="guilsinglright" horiz-adv-x="416" d="M47 440Q32 445 32 452T46 471T79 483Q92 483 131 469T195 441T233 421T271 394T304 367T344 331T384 295T392 284Q392 264 333 218T198 127T104 83T79 102Q77 108 77 116T93 133Q128
149 217 205T307 279Q307 316 209 368T47 440Z" />
</font>
</defs>
</svg>
