<?xml version="1.0" standalone="no"?>
<!DOCTYPE svg PUBLIC "-//W3C//DTD SVG 1.1//EN" "http://www.w3.org/Graphics/SVG/1.1/DTD/svg11.dtd">
<svg xmlns="http://www.w3.org/2000/svg">
<defs >
<font id="VesperLibre" horiz-adv-x="1083" ><font-face
    font-family="Vesper Libre"
    units-per-em="2048"
    panose-1="0 0 5 0 0 0 0 0 0 0"
    ascent="2330"
    descent="-1550"
    alphabetic="0" />
<glyph unicode=" " glyph-name="space" horiz-adv-x="550" />
<glyph unicode="!" glyph-name="exclam" horiz-adv-x="695" d="M260 591T260 813L261 1083Q263 1279 263 1384H451L420 397L268 451Q260 591 260 813ZM276 235T319 235Q361 235 403 225T458 199Q470 184 470 145Q470 101 460 58T434 1Q417 -10 374 -10Q333 -10
291 0T237 26Q230 35 227 54T226 98Q227 138 237 175T261 224Q276 235 319 235Z" />
<glyph unicode="&quot;" glyph-name="quotedbl" horiz-adv-x="683" d="M113 1401H281Q279 1279 272 1144T253 901L113 958V1401ZM397 1401H565Q563 1279 556 1144T537 901L397 958V1401Z" />
<glyph unicode="#" glyph-name="numbersign" horiz-adv-x="1421" d="M1165 771T1088 768L955 437H1155L1135 319L904 311L765 -35L635 2L758 307L444 301L309 -35L179 2L298 299Q152 297 79 297L106 437H354L482 757H409H263L290 898H539L654 1185L780 1137L684
898H995L1110 1185L1236 1137L1140 898H1339L1319 779Q1165 771 1088 768ZM941 764Q783 759 628 758L499 437H810L941 764Z" />
<glyph unicode="$" glyph-name="dollar" horiz-adv-x="1017" d="M925 308T880 223T753 84T562 10L563 -114L428 -169L432 1Q324 4 228 35T71 106L132 372L233 341L252 135Q287 132 331 132Q388 132 436 136L449 627L447 628Q355 660 288 701T176 813T132 993Q132
1077 172 1145T283 1259T442 1326L441 1437L576 1490L572 1341H575Q656 1341 766 1316L857 1320L891 1032L803 1009L705 1230Q635 1230 569 1222L557 781Q563 779 597 767Q701 730 770 690T882 582T925 415Q925 308 880 223ZM304 942T339 900T449 825L444 1198Q396
1184 365 1166T323 1130Q304 1096 304 1011Q304 942 339 900ZM717 243T726 284T736 354Q736 448 690 500T555 589L560 155Q672 180 706 227Q717 243 726 284Z" />
<glyph unicode="%" glyph-name="percent" horiz-adv-x="1488" d="M306 690T235 731T123 845T81 1010Q81 1106 122 1187T237 1317T407 1365Q491 1365 561 1324T672 1210T713 1043Q713 946 672 866T558 738T392 690Q306 690 235 731ZM465 821T499 845T553 911T572
1001Q572 1064 548 1117T480 1201T376 1233Q329 1233 295 1208T242 1141T223 1054Q223 994 246 941T315 854T420 821Q465 821 499 845ZM323 243L1038 1196L1172 1144L451 196L323 243ZM1000 2T929 43T817 157T775 322Q775 418 816 499T931 629T1101 677Q1185 677
1255 636T1366 522T1407 355Q1407 258 1366 178T1252 50T1086 2Q1000 2 929 43ZM1159 133T1193 157T1247 223T1266 313Q1266 376 1242 429T1174 513T1070 545Q1023 545 989 520T936 453T917 366Q917 306 940 253T1009 166T1114 133Q1159 133 1193 157Z" />
<glyph unicode="&amp;" glyph-name="ampersand" horiz-adv-x="1482" d="M1429 77L1412 0H1057L1069 61Q1056 86 986 163Q898 70 781 19T518 -32Q399 -32 298 10T136 140T74 361Q74 500 157 592T388 761Q316 837 273 915T229 1081Q229 1170 274 1248T399 1372T575
1419Q665 1419 739 1387T857 1294T901 1147Q901 1011 833 920T626 756Q739 646 831 557T996 397Q1042 486 1068 585T1094 777Q1094 819 1092 840L962 872L982 950H1365L1352 866L1235 835Q1235 700 1199 561T1092 304L1281 122L1429 77ZM409 1256T397 1223T384
1150Q384 1083 402 1032T453 936T543 837L587 862Q671 916 709 980T747 1108Q747 1173 715 1218T635 1284T541 1306Q498 1306 466 1296T422 1272Q409 1256 397 1223ZM714 116T780 151T902 252Q790 368 490 661L474 677Q373 617 317 550T260 406Q260 338 303 271T433
160T638 116Q714 116 780 151Z" />
<glyph unicode="&apos;" glyph-name="quotesingle" horiz-adv-x="398" d="M113 1401H281Q279 1279 272 1144T253 901L113 958V1401Z" />
<glyph unicode="(" glyph-name="parenleft" horiz-adv-x="621" d="M95 882T199 1103T528 1488L579 1436Q493 1349 424 1203T315 891T275 578Q275 431 313 265T422 -46T580 -278L527 -330Q302 -165 199 55T95 578Q95 882 199 1103Z" />
<glyph unicode=")" glyph-name="parenright" horiz-adv-x="622" d="M526 275T423 55T94 -330L41 -278Q129 -192 199 -47T307 265T346 578Q346 724 307 890T198 1203T42 1436L93 1488Q318 1325 422 1104T526 578Q526 275 423 55Z" />
<glyph unicode="*" glyph-name="asterisk" horiz-adv-x="1225" d="M593 1015Q614 1073 614 1134Q614 1230 558 1293L663 1435Q674 1435 694 1414T729 1352T745 1260Q745 1210 731 1162T694 1082Q688 1071 663 1054L604 1009L593 1015ZM576 1008Q536 1040 487 1059T388
1078Q342 1078 302 1061L200 1205Q202 1212 216 1220T254 1235T307 1242Q348 1242 391 1228Q438 1213 479 1185T544 1125Q554 1114 562 1087L586 1017L576 1008ZM605 1003Q680 1000 750 1029T858 1122L1025 1066Q1028 1056 1014 1031T966 978T883 934Q824 916 773
916Q733 916 700 927Q677 937 663 947L602 991L605 1003ZM578 991Q520 952 481 893T442 765Q442 752 443 746L275 694Q270 697 267 711T263 744Q263 815 312 883Q342 924 381 954T457 996Q470 1002 498 1002H574L578 991ZM595 988Q615 915 664 858T786 784L784
607Q781 604 769 604Q739 604 696 627T615 701Q586 742 569 788T552 873Q552 887 559 915L583 987L595 988Z" />
<glyph unicode="+" glyph-name="plus" horiz-adv-x="1024" d="M438 289T438 507Q354 506 279 506T142 506L166 644H436V906L573 928V644H885L864 523Q757 512 573 509V209L448 180Q438 289 438 507Z" />
<glyph unicode="," glyph-name="comma" horiz-adv-x="554" d="M153 76T153 110Q153 153 160 180T187 220Q209 236 249 236Q290 236 332 226T386 200Q395 186 399 152T404 88Q403 30 377 -40T302 -177T191 -295L120 -278L259 12Q226 19 198 32T162 59Q153 76 153 110Z" />
<glyph unicode="-" glyph-name="hyphen" horiz-adv-x="968" d="M199 655H803L779 526Q702 513 488 502T165 491L199 655Z" />
<glyph unicode="." glyph-name="period" horiz-adv-x="546" d="M344 -10T298 -10Q256 -10 216 -1T163 25Q150 41 150 85Q150 127 161 170T187 223Q203 235 246 235Q287 235 330 224T384 198Q396 183 396 143Q396 101 385 57T358 1Q344 -10 298 -10Z" />
<glyph unicode="/" glyph-name="slash" horiz-adv-x="855" d="M792 1445L205 -220L63 -171L654 1497L792 1445Z" />
<glyph unicode="0" glyph-name="zero" horiz-adv-x="1148" d="M428 -18T332 49T182 245T128 548Q128 742 179 891T338 1126T605 1212Q718 1212 813 1145T964 950T1020 652Q1020 458 968 307T811 69T552 -18Q428 -18 332 49ZM370 288T406 226T495 126T605 88Q688
88 715 115Q762 161 790 280T819 527Q819 820 747 962Q715 1024 660 1065T535 1107Q501 1107 474 1100T432 1079Q404 1052 381 990T344 847T330 682Q330 588 337 500T355 358Q370 288 406 226Z" />
<glyph unicode="1" glyph-name="one" horiz-adv-x="818" d="M97 1014L115 1092L529 1205V135L706 91L686 0H120L133 73L343 134V1014H97Z" />
<glyph unicode="2" glyph-name="two" horiz-adv-x="1144" d="M170 878L165 1106Q227 1145 305 1168T450 1202T555 1212Q674 1212 764 1174T903 1066T953 899Q953 788 869 664T667 429T367 161L308 111L813 151L929 328L1015 306L942 0H163L128 94Q199 171 345
321Q365 341 462 442T610 602Q665 664 708 745T751 899Q751 950 725 992Q696 1037 627 1064T463 1091Q410 1091 341 1080L262 858L170 878Z" />
<glyph unicode="3" glyph-name="three" horiz-adv-x="1026" d="M642 694T722 656T846 544T891 366Q891 197 766 97T472 -44T148 -88L133 -15L152 -10Q314 29 424 68T616 181T698 366Q698 498 589 554T326 610L348 702L734 1068Q665 1061 519 1057T258 1051L204
905L116 922L126 1197L273 1187L876 1193L916 1089L538 694Q642 694 722 656Z" />
<glyph unicode="4" glyph-name="four" horiz-adv-x="1076" d="M947 275H792V-56L621 -118V275H89L43 356L586 1212L755 1142L254 398L621 411V619L792 680V417L974 424L947 275Z" />
<glyph unicode="5" glyph-name="five" horiz-adv-x="1000" d="M250 19T366 61T566 176T651 357Q651 490 559 549T317 608Q246 608 180 601L194 1187H868L803 1040L345 1059L332 689Q412 697 471 697Q652 697 749 617T847 370Q847 207 727 106T440 -40T120 -88L103
-15Q250 19 366 61Z" />
<glyph unicode="6" glyph-name="six" horiz-adv-x="1081" d="M412 163T471 129T597 95Q701 95 735 145Q754 172 765 228T776 342Q776 467 702 547T461 634L474 690Q548 718 623 718Q782 718 873 631T964 381Q964 263 908 171T750 28T518 -24Q396 -24 303 33T157
197T105 449Q105 627 182 788T404 1072T749 1255L782 1188Q550 1041 425 878T300 503Q300 408 317 338T374 215Q412 163 471 129Z" />
<glyph unicode="7" glyph-name="seven" horiz-adv-x="1045" d="M802 1049L260 1034L201 869L103 892L111 1198L264 1187L939 1192L979 1079L384 -67L207 0L802 1049Z" />
<glyph unicode="8" glyph-name="eight" horiz-adv-x="1051" d="M125 384T188 461T358 600Q261 656 209 728T156 910Q156 993 202 1062T333 1171T523 1212Q622 1212 706 1178T840 1079T891 929Q891 829 838 756T696 623Q805 563 865 484T926 288Q926 193 875 123T736
15T538 -23Q431 -23 337 8T184 106T125 277Q125 384 188 461ZM666 712T692 770T719 883Q719 954 686 1007T595 1088T471 1116Q398 1116 364 1086Q344 1068 334 1033T323 959Q323 873 379 816Q411 782 483 739T632 659Q666 712 692 770ZM307 257T343 202T439 116T567
84Q622 84 661 92T730 129Q762 158 762 227Q762 315 710 375Q668 424 582 477T419 566Q383 520 362 487T324 412T307 323Q307 257 343 202Z" />
<glyph unicode="9" glyph-name="nine" horiz-adv-x="1066" d="M382 62T509 174T689 420T742 713Q742 801 712 895T619 1046Q554 1105 458 1105Q367 1105 327 1055Q307 1030 297 984T286 876Q286 812 297 765T343 679Q380 636 444 612T606 582L620 534Q573 516
518 508T415 500Q344 500 286 523T192 586Q147 635 126 693T105 833Q105 945 155 1031T295 1164T504 1212Q640 1212 738 1150T887 973T939 706Q939 546 893 415T741 170Q671 95 576 37T376 -53T177 -86L163 -20Q382 62 509 174Z" />
<glyph unicode=":" glyph-name="colon" horiz-adv-x="570" d="M374 -10T328 -10Q286 -10 246 -1T193 25Q180 41 180 85Q180 127 191 170T217 223Q233 235 276 235Q317 235 360 224T414 198Q426 183 426 143Q426 101 415 57T388 1Q374 -10 328 -10ZM374 586T328
586Q286 586 246 595T193 621Q180 637 180 681Q180 723 191 766T217 819Q233 831 276 831Q317 831 360 820T414 794Q426 779 426 739Q426 697 415 653T388 597Q374 586 328 586Z" />
<glyph unicode=";" glyph-name="semicolon" horiz-adv-x="574" d="M186 76T186 110Q186 153 193 180T220 220Q242 236 282 236Q323 236 365 226T419 200Q428 186 432 152T437 88Q436 30 410 -40T335 -177T224 -295L153 -278L292 12Q259 19 231 32T195 59Q186 76
186 110ZM374 586T328 586Q286 586 246 595T193 621Q180 637 180 681Q180 723 191 766T217 819Q233 831 276 831Q317 831 360 820T414 794Q426 779 426 739Q426 697 415 653T388 597Q374 586 328 586Z" />
<glyph unicode="&lt;" glyph-name="less" horiz-adv-x="1024" d="M103 410V540L857 888L914 754L297 475L915 192L854 59L103 410Z" />
<glyph unicode="=" glyph-name="equal" horiz-adv-x="1024" d="M169 792H885L864 672Q590 658 142 654L169 792ZM169 498H885L864 378Q509 360 189 360H142L169 498Z" />
<glyph unicode="&gt;" glyph-name="greater" horiz-adv-x="1024" d="M111 192L729 475L112 754L169 888L923 540V410L172 59L111 192Z" />
<glyph unicode="?" glyph-name="question" horiz-adv-x="1021" d="M303 647Q302 662 305 668T323 681Q493 767 567 854T642 1034Q642 1118 597 1186T491 1293T388 1335L353 1192Q323 1177 293 1177Q267 1177 240 1195T194 1243T175 1301Q175 1365 242 1391T392
1418Q499 1418 604 1372T778 1243T846 1058Q846 919 762 826T497 662Q490 629 468 547T427 404L311 448L303 647ZM468 -10T422 -10Q380 -10 340 -1T287 25Q274 41 274 85Q274 127 285 170T311 223Q327 235 370 235Q411 235 454 224T508 198Q520 183 520 143Q520
101 509 57T482 1Q468 -10 422 -10Z" />
<glyph unicode="@" glyph-name="at" horiz-adv-x="1666" d="M1060 183T1073 175T1096 166Q1158 166 1231 225T1356 384T1407 597Q1407 737 1345 846T1170 1017T908 1079Q739 1079 581 978T325 709T227 351Q227 180 298 64T482 -107T718 -163Q789 -163 867 -142T1001
-92L1030 -127Q1001 -165 950 -203T824 -268T655 -295Q476 -295 345 -214T144 9T74 332Q74 577 199 779T522 1098T930 1214Q1136 1214 1277 1133T1488 916T1558 611Q1558 440 1475 310T1271 110T1046 40Q1013 40 986 62T940 116T916 172H902Q853 116 785 78T645
40Q589 40 544 72T471 169T444 332Q444 473 502 608T660 829T877 915Q926 915 970 898T1042 850L1164 889L1123 726L1050 195Q1060 183 1073 175ZM772 793T725 729T650 573T621 385Q621 319 637 266T690 187Q738 189 795 202T897 237L973 645Q956 731 916 772T823
816Q772 793 725 729Z" />
<glyph unicode="A" glyph-name="A" horiz-adv-x="1336" d="M1358 99L1337 0H818L834 86L998 133L878 451Q648 437 426 437H384L281 138L487 83L469 0H-28L-10 95L145 142L596 1384L715 1419L1207 133L1358 99ZM835 568L614 1155Q603 1087 428 568H835Z" />
<glyph unicode="B" glyph-name="B" horiz-adv-x="1219" d="M86 85L261 139V1246L73 1302L91 1384H448Q645 1384 775 1362T984 1268T1063 1060Q1063 972 1017 907T897 802T740 747Q846 733 933 691T1074 575T1128 401Q1128 231 1043 144T816 28T456 0H70L86 85ZM869
1176T751 1232T453 1305V81Q585 97 684 125T852 219T922 397Q922 525 825 596T551 710L561 769Q708 802 788 876T869 1051Q869 1176 751 1232Z" />
<glyph unicode="C" glyph-name="C" horiz-adv-x="1248" d="M532 -35T397 45T186 274T111 625Q111 840 181 1018T384 1300Q465 1362 558 1390T766 1419Q816 1419 868 1412T985 1392L1113 1410L1151 1044L1055 1021L961 1229Q896 1257 839 1270T703 1283Q630 1283
564 1261T459 1205Q393 1146 352 1019T310 705Q310 591 341 481T431 294Q497 208 582 167T762 126Q810 126 891 148T1049 199T1156 242L1201 173Q1087 64 976 15T711 -35Q532 -35 397 45Z" />
<glyph unicode="D" glyph-name="D" horiz-adv-x="1428" d="M262 139V1246L75 1302L92 1384H531Q694 1384 831 1359T1069 1266Q1206 1173 1270 1030T1335 704Q1335 555 1293 419T1158 186Q1076 101 963 61T733 10T451 0H70L87 85L262 139ZM698 118T843 181T1058
367T1129 697Q1129 1026 883 1180Q813 1224 699 1255T454 1301V87Q698 118 843 181Z" />
<glyph unicode="E" glyph-name="E" horiz-adv-x="1246" d="M997 155L1121 340L1200 320L1121 0H67L83 85L262 141V1248L74 1304L95 1384H960L1087 1397L1121 1046L1032 1024L933 1246L454 1296V741Q599 759 749 765L811 935L889 914L871 463L792 480L747 639Q660
639 590 643T454 659V99L997 155Z" />
<glyph unicode="F" glyph-name="F" horiz-adv-x="1167" d="M76 1301L93 1384H978L1105 1397L1138 1044L1048 1024L951 1246L456 1291V741Q575 760 767 765L831 936L907 913L888 463L811 479L765 637Q590 635 456 657V157L720 102L687 0H69L86 86L264 141V1248L76 1301Z" />
<glyph unicode="G" glyph-name="G" horiz-adv-x="1400" d="M773 582L790 666H1366L1351 576L1230 515V209Q1160 96 1030 31T745 -35Q639 -35 565 -23T423 25T279 128Q188 211 139 349T89 642Q89 823 150 994T360 1289Q435 1352 546 1385T777 1419Q839 1419 905
1412T1024 1393L1156 1407L1196 1044L1099 1023L1005 1227Q963 1252 883 1268T735 1285Q643 1285 565 1265T450 1210Q377 1140 336 1018T295 684Q295 560 334 438T458 243Q536 173 616 147T792 121Q856 121 930 137T1043 184V523L773 582Z" />
<glyph unicode="H" glyph-name="H" horiz-adv-x="1542" d="M662 88L642 0H70L83 84L263 139V1246L76 1302L93 1384H666L648 1293L455 1240V756H1087V1241L882 1296L902 1384H1474L1460 1301L1279 1245V138L1469 82L1449 0H876L893 90L1087 144V648Q738 630 455
623V143L662 88Z" />
<glyph unicode="I" glyph-name="I" horiz-adv-x="720" d="M263 140V1246L75 1301L92 1384H652L636 1299L455 1244V140L648 84L628 0H68L85 87L263 140Z" />
<glyph unicode="J" glyph-name="J" horiz-adv-x="687" d="M46 1301L64 1384H633L618 1299L450 1245V424Q450 226 430 121T352 -76T155 -332L88 -284Q132 -190 195 -26T258 175V1246L46 1301Z" />
<glyph unicode="K" glyph-name="K" horiz-adv-x="1409" d="M262 139V1246L76 1303L94 1384H654L639 1298L454 1245V151L662 95L641 0H70L86 85L262 139ZM1213 146L1403 81L1385 0H989L1002 71L521 703L1019 1246L824 1303L842 1384H1382L1364 1297L1202 1243L725
751L1213 146Z" />
<glyph unicode="L" glyph-name="L" horiz-adv-x="1191" d="M1110 342L1186 322L1113 0H69L84 86L263 141V1248L76 1300L93 1384H658L642 1298L455 1243V100L980 155L1110 342Z" />
<glyph unicode="M" glyph-name="M" horiz-adv-x="1883" d="M78 1291L97 1384H458L959 248L1424 1384H1814L1797 1289L1618 1235V138L1808 83L1790 0H1233L1249 85L1426 139V1149Q1262 677 989 25L847 -15L372 1143Q389 1011 393 759T398 138L591 84L574 0H71L89
87L262 139V1236L78 1291Z" />
<glyph unicode="N" glyph-name="N" horiz-adv-x="1525" d="M262 139V1246L74 1301L93 1384H416L1166 299Q1153 510 1150 720T1147 1247L943 1301L960 1384H1471L1456 1300L1287 1245V15L1143 -25L378 1099Q394 886 398 672T402 138L607 84L589 0H75L92 86L262 139Z" />
<glyph unicode="O" glyph-name="O" horiz-adv-x="1405" d="M90 838T165 1019T388 1310T743 1419Q899 1419 1030 1340T1238 1111T1316 762Q1316 546 1239 364T1015 73T672 -35Q508 -35 376 44T167 273T90 623Q90 838 165 1019ZM475 212T567 168T760 123Q829 123
892 144T1000 213Q1054 271 1082 391T1111 616Q1111 740 1101 825T1060 982Q1025 1065 962 1128T817 1226T651 1261Q585 1261 521 1240T411 1176Q372 1138 346 1066T308 912T295 765Q295 615 320 495T414 289Q475 212 567 168Z" />
<glyph unicode="P" glyph-name="P" horiz-adv-x="1150" d="M263 139V1246L75 1302L92 1384H472Q581 1384 660 1379T821 1350T964 1280Q1026 1232 1061 1156T1097 975Q1097 881 1058 806T950 678Q879 624 778 599T580 573L592 639Q712 690 772 729T860 827T889
982Q889 1152 770 1226T456 1303V138L690 83L673 0H67L85 85L263 139Z" />
<glyph unicode="Q" glyph-name="Q" horiz-adv-x="1406" d="M1281 -322Q1219 -322 1073 -228T798 -22Q740 -35 672 -35Q508 -35 376 44T167 273T90 623Q90 838 165 1019T388 1310T743 1419Q899 1419 1030 1340T1238 1111T1316 762Q1316 543 1237 359T1012 71L1319
-256L1281 -322ZM475 212T567 168T760 123Q829 123 892 144T1000 213Q1054 271 1082 391T1111 616Q1111 740 1101 825T1060 982Q1025 1065 962 1128T817 1226T651 1261Q585 1261 521 1240T411 1176Q372 1138 346 1066T308 912T295 765Q295 615 320 495T414 289Q475
212 567 168Z" />
<glyph unicode="R" glyph-name="R" horiz-adv-x="1293" d="M263 139V1246L76 1302L93 1384H462Q572 1384 651 1379T810 1352T959 1286Q1024 1243 1062 1172T1100 1021Q1100 756 797 670L1107 148L1302 81L1283 0H907L922 77L589 685Q721 734 787 787T874 894T895
1022Q895 1117 830 1178T666 1269T455 1304V151L661 96L640 0H69L83 84L263 139Z" />
<glyph unicode="S" glyph-name="S" horiz-adv-x="1060" d="M704 1295T672 1295Q587 1295 514 1279T393 1239T331 1188Q320 1169 315 1137T309 1073Q309 996 343 950T437 874T621 797Q732 755 804 711T922 595T968 413Q968 280 904 178T726 21T466 -35Q348 -35
242 -1T66 82L141 405L246 377L267 111Q306 108 352 108Q473 108 583 133T729 209Q744 231 753 271T762 354Q762 437 726 488T636 569T480 638Q369 680 294 726T171 848T123 1041Q123 1153 188 1239T362 1372T599 1419Q650 1419 706 1409T796 1390L901 1394L936
1045L843 1020L719 1294Q704 1295 672 1295Z" />
<glyph unicode="T" glyph-name="T" horiz-adv-x="1353" d="M577 144V1287L246 1252L106 1002L14 1023L96 1393L227 1384H1158L1284 1396L1324 1020L1235 993L1114 1251L769 1289V143L988 90L970 0H368L386 90L577 144Z" />
<glyph unicode="U" glyph-name="U" horiz-adv-x="1466" d="M411 412T462 314T605 159T810 103Q872 103 922 123T1010 180Q1058 228 1083 304T1108 477V1242L911 1301L927 1384H1419L1403 1299L1250 1242V472Q1250 322 1191 208T1014 29T729 -35Q560 -35 446 28T275
205T219 469V1246L48 1301L64 1384H624L602 1282L411 1235V536Q411 412 462 314Z" />
<glyph unicode="V" glyph-name="V" horiz-adv-x="1345" d="M1078 1256L897 1290L914 1384H1370L1351 1289L1223 1252L762 0L615 -35L108 1252L-27 1288L-10 1384H522L506 1291L340 1250L731 202L1078 1256Z" />
<glyph unicode="W" glyph-name="W" horiz-adv-x="1983" d="M2008 1384L1991 1289L1864 1252L1438 0L1297 -35L993 921L687 0L543 -35L133 1251L-9 1288L9 1384H526L510 1291L352 1250L653 235L943 1078L887 1255L748 1293L764 1384H1305L1289 1290L1094 1248L1406
235L1725 1255L1524 1289L1543 1384H2008Z" />
<glyph unicode="X" glyph-name="X" horiz-adv-x="1346" d="M1320 89L1305 0H772L787 88L935 136L635 584L342 135L515 83L496 0H27L43 93L181 136L573 675L172 1252L32 1284L50 1384H578L563 1296L414 1248L714 794L1003 1249L831 1301L848 1384H1318L1299 1286L1163
1252L777 702L1178 132L1320 89Z" />
<glyph unicode="Y" glyph-name="Y" horiz-adv-x="1199" d="M510 139V558L101 1251L-30 1290L-13 1384H494L478 1295L316 1247L652 667Q679 734 719 819T826 1040Q885 1157 926 1244L738 1301L755 1384H1214L1199 1289L1070 1252L702 560V139L901 83L885 0H323L337
84L510 139Z" />
<glyph unicode="Z" glyph-name="Z" horiz-adv-x="1236" d="M1071 377L1163 355L1079 0H125L65 151L936 1283L300 1232L198 1010L99 1035L153 1394L281 1384H1111L1153 1261L279 116L946 160L1071 377Z" />
<glyph unicode="[" glyph-name="bracketleft" horiz-adv-x="622" d="M585 1472L568 1398L356 1345V-188L593 -246L574 -316H181V1472H585Z" />
<glyph unicode="\" glyph-name="backslash" horiz-adv-x="882" d="M207 1496L798 27L658 -27L68 1442L207 1496Z" />
<glyph unicode="]" glyph-name="bracketright" horiz-adv-x="619" d="M438 -316H35L50 -244L263 -188V1345L32 1400L54 1472H438V-316Z" />
<glyph unicode="^" glyph-name="asciicircum" horiz-adv-x="792" d="M409 1216L346 1278L598 1524H707L958 1278L895 1216L652 1362L409 1216Z" />
<glyph unicode="_" glyph-name="underscore" horiz-adv-x="1025" d="M1081 -183L1052 -324H-56L-22 -183H1081Z" />
<glyph unicode="`" glyph-name="grave" horiz-adv-x="1024" d="M285 1298L314 1447H380L676 1183L654 1061L285 1298Z" />
<glyph unicode="a" glyph-name="a" horiz-adv-x="971" d="M68 337T102 389T218 475Q276 500 364 512T531 524Q572 524 611 521V575Q611 667 591 742T510 851Q489 863 455 869T382 875Q348 875 315 868L281 686Q253 671 220 671Q194 671 167 686T121 726T103 779Q103
832 187 879Q237 906 305 928T436 962T530 975Q668 975 729 894T790 674V192Q827 154 869 130T963 93L951 35Q895 9 836 -6T723 -25Q707 22 688 59T638 132Q616 100 562 63T444 0T326 -25Q238 -25 180 15T95 117T68 241Q68 337 102 389ZM369 106T390 106Q435 106
501 124T611 165V458Q512 451 440 433T327 395T271 357Q252 338 252 291Q252 257 266 219T305 152T356 112Q369 106 390 106Z" />
<glyph unicode="b" glyph-name="b" horiz-adv-x="1087" d="M123 -25L75 37L169 211V1287L16 1365L24 1412L347 1472V827Q420 886 511 930T675 975Q792 975 865 908T971 736T1004 507Q1004 395 969 296T868 121Q811 55 742 15T585 -25Q502 -25 442 3T326 104L123
-25ZM400 176T482 148T646 119Q713 119 745 135Q769 146 788 199T818 322T829 452Q829 568 792 666T689 812Q664 830 627 830Q587 830 500 812T347 771V240Q400 176 482 148Z" />
<glyph unicode="c" glyph-name="c" horiz-adv-x="873" d="M528 886T468 865T358 794Q306 740 283 673T259 530Q259 361 343 241Q380 186 438 152T565 117Q604 117 654 129T746 158T806 185L829 151Q775 85 687 30T501 -25Q362 -25 266 38T122 208T74 448Q74 620
141 737T322 913T578 971Q674 971 736 946Q767 933 787 909T808 854Q808 825 790 796T744 749T690 730Q655 730 627 746L598 887Q528 886 468 865Z" />
<glyph unicode="d" glyph-name="d" horiz-adv-x="1104" d="M939 159T993 131T1089 95L1078 34Q1043 17 965 -4T849 -25Q838 12 815 55T765 129Q719 60 640 18T474 -25Q370 -25 280 22T132 173T74 434Q74 590 133 713T293 906T514 975Q573 975 631 957T737 904V1288L582
1365L591 1411L916 1472V192Q939 159 993 131ZM610 117T737 167V652Q711 713 662 758T553 826T431 849Q392 849 361 841T312 807Q248 720 248 538Q248 439 277 356T351 215T441 134Q459 124 470 121T496 117Q610 117 737 167Z" />
<glyph unicode="e" glyph-name="e" horiz-adv-x="921" d="M592 119T646 132T747 162T813 191L837 156Q804 117 748 75T621 4T483 -25Q368 -25 276 24T129 180T74 453Q74 598 131 717T291 906T527 975Q626 975 697 933T806 818T844 656Q844 590 823 522Q817 504
809 496T782 488H245Q252 392 291 308T397 171T547 119Q592 119 646 132ZM353 858T328 833Q300 804 275 733T245 563L678 597Q678 680 645 739T555 828T430 858Q353 858 328 833Z" />
<glyph unicode="f" glyph-name="f" horiz-adv-x="724" d="M222 136V811L57 862L74 950H222Q222 1135 260 1249T384 1417T613 1472Q719 1472 778 1444Q806 1431 825 1409T844 1356Q844 1327 826 1298T780 1250T726 1231Q696 1231 662 1248L630 1411Q532 1397 482
1332T416 1174T400 950H712L698 869L400 813V126L654 79L637 0H59L76 87L222 136Z" />
<glyph unicode="g" glyph-name="g" horiz-adv-x="1005" d="M811 114T886 68T961 -84Q961 -188 892 -284T692 -440T388 -500Q306 -500 219 -476T90 -416Q57 -387 44 -351T31 -271Q31 -207 81 -147T213 -19Q155 2 122 45T89 133Q89 197 141 246T263 326Q194 362
153 427T112 587Q112 696 154 783T287 923T516 975Q639 975 728 914Q791 944 863 959T980 975L999 932L830 791Q857 727 857 656Q857 546 812 461T678 328T462 279Q384 279 312 304Q242 210 242 171Q242 158 251 147T274 131Q303 121 380 118T666 114Q811 114 886
68ZM273 769T273 686Q273 615 308 549T407 440T547 398Q582 398 611 407T658 435Q677 454 687 501T697 597Q697 719 630 791T436 864Q397 864 360 854T311 827Q273 769 273 686ZM780 -275T796 -240T813 -158Q813 -120 806 -97T772 -58T691 -43Q510 -43 414 -41T263
-31Q235 -78 212 -131T188 -224Q188 -247 197 -259Q223 -295 300 -320T486 -346Q567 -346 643 -335T758 -293Q780 -275 796 -240Z" />
<glyph unicode="h" glyph-name="h" horiz-adv-x="1180" d="M1167 82L1150 0H698L715 87L820 131V550Q820 653 792 719T725 814Q705 827 686 827Q647 827 548 804T377 757V126L543 82L525 0H39L56 83L198 126V1287L44 1365L53 1412L377 1472V812Q466 879 569 926T748
973Q813 973 869 940T962 827T999 618V126L1167 82Z" />
<glyph unicode="i" glyph-name="i" horiz-adv-x="590" d="M369 1165T325 1165Q286 1165 249 1173T201 1197Q189 1212 189 1252Q189 1291 199 1330T223 1379Q238 1390 276 1390Q314 1390 354 1380T404 1356Q415 1342 415 1306Q415 1268 405 1227T380 1175Q369 1165
325 1165ZM215 126V776L61 853L70 900L394 965V126L559 82L541 0H54L69 84L215 126Z" />
<glyph unicode="j" glyph-name="j" horiz-adv-x="519" d="M336 1165T292 1165Q253 1165 216 1173T168 1197Q156 1212 156 1252Q156 1291 166 1330T190 1379Q205 1390 243 1390Q281 1390 321 1380T371 1356Q382 1342 382 1306Q382 1268 372 1227T347 1175Q336 1165
292 1165ZM37 854L45 899L370 965V28Q370 -202 305 -351T54 -500Q8 -500 -37 -488T-111 -449T-141 -382Q-141 -353 -121 -322T-72 -270T-19 -249Q12 -249 44 -263L89 -439Q135 -386 156 -332T184 -205T191 0V776L37 854Z" />
<glyph unicode="k" glyph-name="k" horiz-adv-x="1142" d="M40 1365L49 1412L373 1472V126L543 82L525 0H39L56 83L194 126V1287L40 1365ZM986 123L1140 76L1124 0H768L781 66L413 550L752 844L624 874L638 950H1056L1040 872L906 836L605 587L986 123Z" />
<glyph unicode="l" glyph-name="l" horiz-adv-x="572" d="M40 1365L49 1412L373 1472V126L543 82L525 0H39L56 83L194 126V1287L40 1365Z" />
<glyph unicode="m" glyph-name="m" horiz-adv-x="1781" d="M62 853L71 900L345 960L382 801Q468 874 569 923T749 973Q821 973 880 932T972 800Q1056 871 1164 922T1350 973Q1441 973 1495 927T1574 775T1600 483V126L1768 84L1750 0H1298L1315 88L1421 131V479Q1421
625 1395 707T1324 816Q1306 827 1292 827Q1259 827 1161 807T983 759Q993 722 995 653T998 478V126L1167 82L1149 0H697L714 87L819 131V501Q819 641 791 718T716 820Q702 827 689 827Q651 827 566 807T391 758Q396 723 396 687L395 126L562 82L547 0H57L73 87L216
136V775L62 853Z" />
<glyph unicode="n" glyph-name="n" horiz-adv-x="1200" d="M62 853L71 900L345 965L381 800Q470 870 578 921T767 973Q832 973 888 940T981 827T1018 618V126L1186 82L1169 0H717L734 87L839 131V550Q839 653 811 719T744 814Q724 827 705 827Q665 827 563 803T390
755Q391 749 393 730T395 698V126L564 81L546 0H57L74 88L216 136V775L62 853Z" />
<glyph unicode="o" glyph-name="o" horiz-adv-x="1022" d="M73 576T129 700T286 899T514 975Q637 975 735 925T891 770T949 512Q949 372 892 248T735 50T519 -25Q391 -25 291 24T132 178T73 437Q73 576 129 700ZM613 107T655 120T723 160Q749 186 762 251T775
375Q775 517 732 623T613 786T446 843Q389 843 357 830T299 791Q277 766 262 701T247 572Q247 456 282 350T390 175T568 107Q613 107 655 120Z" />
<glyph unicode="p" glyph-name="p" horiz-adv-x="1102" d="M617 -397L601 -475H30L45 -388L189 -339V775L35 853L44 900L318 960L352 825Q420 872 467 900T571 951T685 973Q790 973 866 918T982 758T1023 507Q1023 372 968 250T817 53Q772 18 719 -3T609 -25Q533
-25 470 1T368 80V-349L617 -397ZM368 739T368 698V240Q420 176 503 147T669 118Q732 118 762 133Q781 142 801 184T833 290T846 425Q846 560 805 658T695 809Q667 831 628 831Q586 831 508 813T364 770Q368 739 368 698Z" />
<glyph unicode="q" glyph-name="q" d="M676 42T605 9T455 -25Q357 -25 270 26T128 183T73 449Q73 553 106 650T205 828Q261 897 340 935T501 973Q593 973 660 946T786 845L958 965L1006 894L912 728V-340L1082 -389L1065 -475H500L516 -397L733 -349V98Q676 42
605 9ZM710 709T664 753T556 823T432 849Q387 849 359 841T311 806Q279 765 264 694T248 537Q248 417 294 309T432 138Q460 117 499 117Q557 117 617 130T733 166V658Q710 709 664 753Z" />
<glyph unicode="r" glyph-name="r" horiz-adv-x="823" d="M64 853L73 901L347 960L391 761Q458 877 514 923T639 970Q663 970 691 963T744 942Q770 928 786 906T803 856Q803 825 785 792T738 736T681 714Q663 714 645 718T612 729L592 840Q549 822 495 782T397
703V125L654 79L637 0H55L72 87L218 136V776L64 853Z" />
<glyph unicode="s" glyph-name="s" horiz-adv-x="824" d="M459 881T392 861T280 808Q250 786 250 738Q250 660 349 608Q375 594 402 585T480 560Q539 542 575 529T646 493Q695 462 723 411T751 288Q751 186 704 116T576 10T393 -25Q309 -25 248 -10T146 28T60
86L105 305L210 281L247 88Q335 88 420 102T556 148Q592 171 592 228Q592 266 576 297T520 354Q494 371 462 384T381 412Q373 414 345 424T292 443T249 464Q182 501 143 562T104 704Q104 795 155 856T290 946T473 975Q586 975 663 931Q732 889 732 835Q732 806
714 778T669 733T615 716Q581 716 553 730L523 886Q459 881 392 861Z" />
<glyph unicode="t" glyph-name="t" horiz-adv-x="717" d="M35 950H183L204 1169L362 1234V950H679L663 863L362 811V367Q362 280 386 210T456 113Q473 104 503 104Q559 104 624 121T696 140L715 93Q654 51 573 13T436 -25Q183 -25 183 316V811L17 861L35 950Z" />
<glyph unicode="u" glyph-name="u" horiz-adv-x="1159" d="M23 869L40 950H359V404Q359 298 387 231T456 135Q477 119 509 119Q570 119 648 135T781 174V800L598 869L616 950H959V192Q976 167 1009 146T1077 111T1132 94L1119 34Q1084 16 1010 -4T891 -25Q883
5 857 58T804 136Q742 70 641 23T442 -25Q371 -25 312 9T217 122T180 332V800L23 869Z" />
<glyph unicode="v" glyph-name="v" horiz-adv-x="1026" d="M1028 950L1018 888L909 821L586 0L460 -20L117 821L-27 878L-14 950H449L434 878L311 826L562 197L794 824L650 874L664 950H1028Z" />
<glyph unicode="w" glyph-name="w" horiz-adv-x="1494" d="M1487 950L1475 889L1364 823L1118 0L987 -25L736 656L518 0L388 -25L136 821L-8 877L6 950H453L439 879L321 823L494 200L730 950H805L1095 200L1249 826L1082 874L1096 950H1487Z" />
<glyph unicode="x" glyph-name="x" horiz-adv-x="1127" d="M1097 79L1081 0H601L616 80L727 112L526 383L315 110L441 78L424 0H37L52 76L178 121L465 463L175 841L40 870L56 950H518L504 875L399 838L598 559L811 839L682 873L698 950H1080L1064 865L948 834L656
482L943 115L1097 79Z" />
<glyph unicode="y" glyph-name="y" horiz-adv-x="1037" d="M1025 950L1012 882L906 825L668 162Q595 -42 537 -170T419 -376T287 -484Q246 -500 202 -500Q157 -500 112 -488T37 -449T6 -381Q6 -352 25 -321T74 -269T128 -248Q145 -248 165 -252T198 -266L228 -424Q251
-410 295 -351T390 -203T484 -21L105 820L-38 875L-24 950H453L440 879L304 826L566 205L778 824L634 875L647 950H1025Z" />
<glyph unicode="z" glyph-name="z" horiz-adv-x="917" d="M718 287L823 292L825 0H95L57 87L650 856L260 837L207 693L101 688V950H790L831 828L275 95L661 115L718 287Z" />
<glyph unicode="{" glyph-name="braceleft" horiz-adv-x="652" d="M237 564T275 545T351 478T389 350V-164L616 -255L602 -325Q427 -325 348 -306T247 -247T224 -124V390Q224 432 179 472T87 537Q79 542 73 550T66 569Q66 580 73 589T87 602Q134 630 179 673T224
757V1271Q224 1354 247 1394T352 1453T616 1472L603 1401L389 1311V787Q389 708 352 660T276 593T214 569Q237 564 275 545Z" />
<glyph unicode="|" glyph-name="bar" horiz-adv-x="504" d="M177 -500V1417L327 1472V-446L177 -500Z" />
<glyph unicode="}" glyph-name="braceright" horiz-adv-x="652" d="M415 583T377 602T301 669T263 797V1311L36 1402L50 1472Q225 1472 304 1453T405 1394T428 1271V757Q428 715 473 675T565 610Q573 605 579 597T586 578Q586 567 579 558T565 545Q518 517 473
474T428 390V-124Q428 -207 405 -247T300 -306T36 -325L49 -254L263 -164V360Q263 439 300 487T376 554T438 578Q415 583 377 602Z" />
<glyph unicode="~" glyph-name="asciitilde" horiz-adv-x="861" d="M98 573Q163 640 211 674T316 709Q360 709 397 688T482 629Q509 607 525 596T556 585Q583 585 638 614T744 685L761 572Q700 509 650 474T543 439Q499 439 461 460T379 519Q352 541 336 552T305
563Q286 563 252 550T182 513T118 460L98 573Z" />
<glyph unicode="&#xa0;" glyph-name="uni00A0" horiz-adv-x="550" />
<glyph unicode="&#xa1;" glyph-name="exclamdown" horiz-adv-x="502" d="M227 849T184 849Q142 849 100 859T45 885Q33 900 33 939Q33 983 43 1026T69 1083Q86 1094 129 1094Q171 1094 212 1084T266 1058Q273 1049 276 1030T277 986Q276 946 266 909T242 860Q227
849 184 849ZM243 493T243 271L242 1Q240 -195 240 -300H52L83 687L235 633Q243 493 243 271Z" />
<glyph unicode="&#xa2;" glyph-name="cent" horiz-adv-x="934" d="M792 83T715 38T554 -20V-153L427 -203L429 -19Q323 -3 245 59T124 220T81 444Q81 580 125 684T250 857T437 954V1108L564 1154L562 974Q573 975 597 975Q713 975 772 941Q796 929 811 908T827
859Q827 830 809 801T764 754T710 735Q678 735 651 750L617 891Q594 891 560 888L556 569L555 108H559Q618 108 694 133T815 184L848 149Q792 83 715 38ZM432 146L436 478L437 856Q392 835 356 799Q304 746 279 672T254 518Q254 451 274 379T334 244T431 146H432Z"
/>
<glyph unicode="&#xa3;" glyph-name="sterling" horiz-adv-x="1292" d="M1002 652L518 582L449 100L961 154L1088 339L1162 321L1096 0H63L81 86L256 141L321 601L102 631L125 739H340L375 988Q391 1101 453 1186T617 1318T847 1365Q930 1365 1046 1336L1152 1342L1183
1030L1087 1007L981 1239Q948 1242 916 1242Q793 1242 718 1219T622 1157Q620 1155 611 1129T590 1052T568 931L540 739H1013L1002 652Z" />
<glyph unicode="&#xa4;" glyph-name="currency" horiz-adv-x="1190" d="M240 422Q190 514 190 619Q190 689 210 754T268 876L149 991L257 1100L369 981Q420 1019 482 1039T614 1059Q680 1059 742 1039T856 979L970 1099L1074 995L950 878Q1013 780 1013 659Q1013
532 951 428L1075 310L965 198L859 316Q804 270 737 246T595 221Q520 221 451 245T328 315L218 201L114 306L240 422ZM697 361T748 394T828 483T858 604Q858 690 821 762T719 876T570 919Q507 919 455 885T374 794T344 673Q344 592 380 520T483 405T634 361Q697
361 748 394Z" />
<glyph unicode="&#xa5;" glyph-name="yen" horiz-adv-x="1357" d="M1131 1181L832 638H1134L1119 544L781 534V408H1135L1120 314L781 304V139L980 84L963 0H402L418 85L589 139V298L255 288L279 408H589V528L254 518L278 638H531L207 1180L76 1215L94 1310H590L575
1225L415 1176L729 638L991 1173L806 1225L822 1310H1276L1249 1213L1131 1181Z" />
<glyph unicode="&#xa6;" glyph-name="brokenbar" horiz-adv-x="504" d="M177 650V1417L327 1472V704L177 650ZM177 -500V267L327 322V-446L177 -500Z" />
<glyph unicode="&#xa7;" glyph-name="section" horiz-adv-x="958" d="M640 604T662 645T685 730Q685 785 652 823T563 889T402 956Q252 1011 175 1079T98 1256Q98 1350 151 1423T292 1536T484 1577Q562 1577 648 1552T793 1485T852 1394Q852 1361 835 1331T792
1281T739 1262Q723 1262 707 1266T679 1277L652 1447Q509 1447 426 1435T307 1387Q295 1375 288 1349T280 1299Q280 1254 314 1219T399 1159T542 1096Q656 1049 724 1004T826 900T860 758Q860 677 810 613T694 512T584 474L600 569Q640 604 662 645ZM319 789T296
748T273 663Q273 608 306 570T395 504T556 437Q705 381 782 314T860 137Q860 43 807 -30T666 -143T474 -184Q396 -184 309 -159T164 -92T106 -1Q106 32 123 62T166 112T219 131Q251 131 279 116L306 -54Q449 -54 532 -42T651 6Q663 18 670 43T677 94Q677 139 644
174T558 235T416 297Q302 344 234 389T132 493T98 635Q98 716 148 781T265 882T374 919L359 825Q319 789 296 748Z" />
<glyph unicode="&#xa8;" glyph-name="dieresis" horiz-adv-x="1024" d="M226 1211T226 1253Q226 1292 235 1329T258 1379Q270 1390 311 1390Q349 1390 387 1381T438 1356Q449 1344 449 1302Q449 1264 440 1226T416 1175Q403 1165 365 1165Q327 1165 287 1174T237
1197Q226 1211 226 1253ZM573 1211T573 1254Q573 1292 582 1329T605 1379Q617 1390 659 1390Q697 1390 735 1381T786 1356Q797 1345 797 1303Q797 1265 788 1226T763 1175Q747 1164 707 1164Q670 1164 633 1173T584 1197Q573 1211 573 1254Z" />
<glyph unicode="&#xa9;" glyph-name="copyright" horiz-adv-x="1373" d="M99 722T170 867T382 1096T719 1180Q868 1180 994 1115T1197 919T1274 601Q1274 419 1203 275T993 48T661 -35Q494 -35 367 35T170 236T99 540Q99 722 170 867ZM248 454T302 336T460 154T710
89Q820 89 915 149T1068 311T1125 534Q1125 692 1073 809T919 991T673 1056Q557 1056 460 997T306 835T248 612Q248 454 302 336ZM377 658T416 740T530 869T712 916Q756 916 826 902L893 913L915 713L846 694L805 789Q757 811 683 811Q647 811 618 802T572 775Q544
748 534 700T524 591Q524 543 538 495T577 415Q606 377 643 359T716 341Q744 341 821 366T926 404L954 355Q898 296 829 261T682 225Q592 225 523 267T416 383T377 553Q377 658 416 740Z" />
<glyph unicode="&#xaa;" glyph-name="ordfeminine" horiz-adv-x="971" d="M287 639T238 672T164 754T140 854Q140 904 153 936T194 989T267 1029Q323 1052 403 1059T548 1067Q571 1067 577 1065Q577 1170 563 1229T507 1312Q490 1322 463 1325T397 1328Q367 1328
352 1323L330 1203Q327 1201 314 1195T288 1185T264 1181Q244 1181 223 1194T187 1228T172 1273Q172 1292 190 1311T236 1344Q296 1378 380 1399T514 1420Q624 1420 674 1358T725 1189V804Q754 750 859 728L850 688Q821 673 760 656T662 639Q654 664 634 704T598
762Q586 738 544 709T451 659T358 639Q287 639 238 672ZM392 759T402 759Q441 759 494 774T577 807V1004Q467 997 403 979T321 943Q307 929 307 894Q307 857 328 816T378 763Q392 759 402 759ZM173 533H866L839 434Q689 424 495 420T148 415L173 533Z" />
<glyph unicode="&#xab;" glyph-name="guillemotleft" horiz-adv-x="1006" d="M421 321T492 227T594 70L513 -2L78 461L513 926L593 853Q564 792 494 699T302 461Q421 321 492 227ZM836 299T895 182L814 111L496 461L814 812L893 741Q871 691 824 622T708 461Q836
299 895 182Z" />
<glyph unicode="&#xac;" glyph-name="logicalnot" horiz-adv-x="1024" d="M153 644H864V179L740 201L728 513L126 506L153 644Z" />
<glyph unicode="&#xad;" glyph-name="uni00AD" horiz-adv-x="898" d="M199 655H803L779 526Q702 513 488 502T165 491L199 655Z" />
<glyph unicode="&#xae;" glyph-name="registered" horiz-adv-x="1204" d="M458 541T342 610T157 800T87 1065Q87 1216 155 1336T344 1525T617 1594Q748 1594 863 1524T1048 1333T1118 1064Q1118 914 1050 795T861 609T592 541Q458 541 342 610ZM204 971T260 867T417
701T650 639Q746 639 826 695T953 843T999 1036Q999 1169 942 1274T785 1438T557 1497Q458 1497 377 1439T250 1289T204 1097Q204 971 260 867ZM375 866L435 886V1296L357 1318L373 1377H534Q680 1377 751 1339Q782 1323 803 1290T824 1222Q824 1169 798 1134T709
1073L822 884L895 851L883 806H707L715 847L588 1088Q707 1134 707 1213Q707 1263 661 1285T544 1315V884L637 861L620 806H361L375 866Z" />
<glyph unicode="&#xaf;" glyph-name="overscore" horiz-adv-x="1024" d="M290 1284H761L736 1155Q527 1143 261 1143L290 1284Z" />
<glyph unicode="&#xb0;" glyph-name="degree" horiz-adv-x="681" d="M271 931T215 959T126 1038T92 1158Q92 1229 123 1285T213 1374T348 1407Q411 1407 466 1379T556 1298T590 1178Q590 1107 558 1051T469 963T338 931Q271 931 215 959ZM406 1030T438 1065T470
1153Q470 1220 431 1266T325 1312Q274 1312 242 1275T209 1184Q209 1120 246 1075T354 1030Q406 1030 438 1065Z" />
<glyph unicode="&#xb1;" glyph-name="plusminus" horiz-adv-x="1024" d="M434 549L134 548L161 685H434V917L570 938V685H881L860 562L570 551V282L434 256V549ZM164 146H883L862 22Q514 9 137 9L164 146Z" />
<glyph unicode="&#xb2;" glyph-name="uni00B2" horiz-adv-x="654" d="M368 1032T574 1038L605 912H76L50 979Q77 1007 180 1123T307 1269Q356 1333 376 1369T396 1442Q396 1484 368 1511T281 1538Q242 1538 205 1533T113 1513L78 1593Q134 1625 196 1641T317 1658Q430
1658 493 1606T556 1462Q556 1401 519 1334T412 1191T228 1008Q368 1032 574 1038Z" />
<glyph unicode="&#xb3;" glyph-name="uni00B3" horiz-adv-x="613" d="M178 956T240 978T338 1039T375 1141Q375 1209 316 1242T171 1275L188 1341L419 1558Q333 1546 241 1539T79 1531L45 1647H528L554 1580L349 1335Q430 1326 482 1276T535 1146Q535 1044 466
981T294 890T87 862L66 929Q178 956 240 978Z" />
<glyph unicode="&#xb4;" glyph-name="acute" horiz-adv-x="1024" d="M634 1447H698L727 1298L359 1061L336 1183L634 1447Z" />
<glyph unicode="&#xb5;" glyph-name="uni00B5" horiz-adv-x="1202" d="M952 155T969 133T1029 104T1159 96L1150 42Q1050 10 984 -5T876 -21Q823 -21 802 14T775 132Q731 63 656 20T500 -24Q449 -24 404 -4T324 60L346 -458L168 -500V933L346 975V416Q346 357
366 288T428 170T534 121Q601 121 663 145T773 220V238V933L952 975V200Q952 155 969 133Z" />
<glyph unicode="&#xb6;" glyph-name="paragraph" horiz-adv-x="1391" d="M595 616Q440 616 325 658T148 786T85 997Q85 1147 150 1231T339 1350T658 1384H1314L1300 1299L1122 1245V21L944 -35V1225H762V21L583 -35L595 616Z" />
<glyph unicode="&#xb7;" glyph-name="middot" horiz-adv-x="538" d="M358 403T312 403Q270 403 230 412T177 438Q164 454 164 498Q164 540 175 583T201 636Q217 648 260 648Q301 648 344 637T398 611Q410 596 410 556Q410 514 399 470T372 414Q358 403 312 403Z" />
<glyph unicode="&#xb8;" glyph-name="cedilla" horiz-adv-x="1024" d="M536 -85Q617 -111 655 -147T694 -245Q694 -319 637 -365T499 -432T340 -453L327 -405Q459 -352 503 -316T547 -250Q547 -223 507 -203T375 -164Q376 -142 395 -107T441 -38T483 7H584L536 -85Z" />
<glyph unicode="&#xb9;" glyph-name="uni00B9" horiz-adv-x="545" d="M210 1005V1540H57L68 1600L373 1660V1005L513 984L493 912H64L82 981L210 1005Z" />
<glyph unicode="&#xba;" glyph-name="ordmasculine" horiz-adv-x="950" d="M138 1108T181 1204T301 1360T475 1419Q569 1419 644 1380T763 1259T808 1057Q808 948 764 852T645 697T479 639Q381 639 304 678T183 797T138 1000Q138 1108 181 1204ZM556 752T580 759T622
782Q647 804 661 859T676 965Q676 1051 648 1129T560 1257T415 1307Q383 1307 360 1298T323 1275Q299 1251 285 1199T270 1093Q270 1010 298 932T384 803T531 752Q556 752 580 759ZM173 533H816L789 434Q505 415 148 415L173 533Z" />
<glyph unicode="&#xbb;" glyph-name="guillemotright" horiz-adv-x="1006" d="M583 605T513 698T413 853L493 926L928 461L493 -2L412 70Q442 132 513 226T704 461Q583 605 513 698ZM230 552T183 621T113 741L192 812L510 461L192 111L111 182Q170 299 298 461Q230
552 183 621Z" />
<glyph unicode="&#xbc;" glyph-name="onequarter" horiz-adv-x="1504" d="M210 744V1279H57L68 1339L373 1399V744L513 723L493 651H64L82 720L210 744ZM302 243L1017 1196L1151 1144L430 196L302 243ZM794 257L1114 759L1271 733L959 293L1139 298V415L1293 450V307L1386
310L1370 204H1294V-26L1144 -60V204H825L794 257Z" />
<glyph unicode="&#xbd;" glyph-name="onehalf" horiz-adv-x="1501" d="M210 744V1279H57L68 1339L373 1399V744L513 723L493 651H64L82 720L210 744ZM302 243L1017 1196L1151 1144L430 196L302 243ZM1214 120T1420 126L1451 0H922L896 67Q923 95 1026 211T1153
357Q1202 421 1222 457T1242 530Q1242 572 1214 599T1127 626Q1088 626 1051 621T959 601L924 681Q980 713 1042 729T1163 746Q1276 746 1339 694T1402 550Q1402 489 1365 422T1258 279T1074 96Q1214 120 1420 126Z" />
<glyph unicode="&#xbe;" glyph-name="threequarters" horiz-adv-x="1572" d="M178 695T240 717T338 778T375 880Q375 948 316 981T171 1014L188 1080L419 1297Q333 1285 241 1278T79 1270L45 1386H528L554 1319L349 1074Q430 1065 482 1015T535 885Q535 783 466
720T294 629T87 601L66 668Q178 695 240 717ZM282 243L997 1196L1131 1144L410 196L282 243ZM774 257L1094 759L1251 733L939 293L1119 298V415L1273 450V307L1366 310L1350 204H1274V-26L1124 -60V204H805L774 257Z" />
<glyph unicode="&#xbf;" glyph-name="questiondown" horiz-adv-x="946" d="M478 1103T524 1103Q566 1103 606 1094T659 1068Q672 1052 672 1008Q672 966 661 923T635 870Q619 858 576 858Q535 858 492 869T438 895Q426 910 426 950Q426 992 437 1036T464 1092Q478
1103 524 1103ZM643 446Q644 431 641 425T623 412Q453 326 379 239T304 59Q304 -25 349 -93T455 -200T558 -242L593 -99Q623 -84 653 -84Q679 -84 706 -102T752 -150T771 -208Q771 -272 704 -298T554 -325Q447 -325 342 -279T168 -150T100 35Q100 174 184 267T449
431Q456 464 478 546T519 689L635 645L643 446Z" />
<glyph unicode="&#xc0;" glyph-name="Agrave" horiz-adv-x="1336" d="M1358 99L1337 0H818L834 86L998 133L878 451Q648 437 426 437H384L281 138L487 83L469 0H-28L-10 95L145 142L596 1384L715 1419L1207 133L1358 99ZM835 568L614 1155Q603 1087 428 568H835ZM421
1635L448 1785H509L877 1600L858 1495L421 1635Z" />
<glyph unicode="&#xc1;" glyph-name="Aacute" horiz-adv-x="1336" d="M1358 99L1337 0H818L834 86L998 133L878 451Q648 437 426 437H384L281 138L487 83L469 0H-28L-10 95L145 142L596 1384L715 1419L1207 133L1358 99ZM835 568L614 1155Q603 1087 428 568H835ZM471
1599L839 1785H900L927 1635L489 1494L471 1599Z" />
<glyph unicode="&#xc2;" glyph-name="Acircumflex" horiz-adv-x="1336" d="M1358 99L1337 0H818L834 86L998 133L878 451Q648 437 426 437H384L281 138L487 83L469 0H-28L-10 95L145 142L596 1384L715 1419L1207 133L1358 99ZM835 568L614 1155Q603 1087 428 568H835ZM344
1570L600 1785H698L955 1570L892 1504L649 1634L406 1504L344 1570Z" />
<glyph unicode="&#xc3;" glyph-name="Atilde" horiz-adv-x="1336" d="M1358 99L1337 0H818L834 86L998 133L878 451Q648 437 426 437H384L281 138L487 83L469 0H-28L-10 95L145 142L596 1384L715 1419L1207 133L1358 99ZM835 568L614 1155Q603 1087 428 568H835ZM317
1653Q360 1698 391 1725T458 1771T535 1790Q579 1790 615 1769T701 1709Q728 1687 744 1676T775 1665Q802 1665 857 1695T962 1768L980 1657Q922 1593 871 1557T762 1521Q718 1521 680 1542T598 1601Q571 1623 555 1634T524 1645Q494 1645 437 1615T338 1543L317
1653Z" />
<glyph unicode="&#xc4;" glyph-name="Adieresis" horiz-adv-x="1336" d="M1358 99L1337 0H818L834 86L998 133L878 451Q648 437 426 437H384L281 138L487 83L469 0H-28L-10 95L145 142L596 1384L715 1419L1207 133L1358 99ZM835 568L614 1155Q603 1087 428 568H835ZM741
1556T741 1594Q741 1629 749 1661T771 1703Q782 1713 818 1713Q852 1713 886 1705T930 1682Q939 1670 939 1633Q939 1599 931 1566T910 1521Q896 1513 862 1513Q827 1513 794 1521T750 1542Q741 1556 741 1594ZM358 1553T358 1593Q358 1627 366 1660T388 1703Q400
1712 435 1712Q469 1712 503 1704T548 1682Q557 1669 557 1633Q557 1598 549 1565T527 1521Q516 1513 479 1513Q444 1513 411 1521T368 1542Q358 1553 358 1593Z" />
<glyph unicode="&#xc5;" glyph-name="Aring" horiz-adv-x="1336" d="M1358 99L1337 0H818L834 86L998 133L878 451Q648 437 426 437H384L281 138L487 83L469 0H-28L-10 95L145 142L579 1337Q527 1355 496 1396T464 1494Q464 1546 487 1588T554 1655T654 1679Q701
1679 742 1658T809 1598T834 1510Q834 1456 810 1414T742 1348L1207 133L1358 99ZM609 1588T590 1565T570 1511Q570 1473 592 1446T656 1419Q688 1419 707 1440T726 1493Q726 1532 703 1560T640 1588Q609 1588 590 1565ZM835 568L614 1155Q603 1087 428 568H835Z"
/>
<glyph unicode="&#xc6;" glyph-name="AE" horiz-adv-x="1824" d="M758 440T454 440L294 138L480 82L460 0H-33L-13 95L139 142L747 1249L558 1301L575 1384H1538L1665 1397L1703 1046L1610 1024L1511 1246Q1285 1265 1089 1296V741Q1150 752 1243 758T1355 765L1412
934L1486 914L1467 463L1393 478L1353 639Q1318 639 1238 643T1089 659V99Q1094 102 1220 117T1575 155L1698 339L1771 324L1695 0H703L720 86L897 141V456Q758 440 454 440ZM897 1242H867L522 568H897V1242Z" />
<glyph unicode="&#xc7;" glyph-name="Ccedilla" horiz-adv-x="1248" d="M796 -128T856 -170T916 -279Q916 -356 857 -405T708 -477T523 -500L509 -447Q613 -403 668 -374T742 -326T761 -293Q761 -264 706 -235T551 -176Q583 -108 646 -32Q485 -18 364 65T177 292T111
625Q111 840 181 1018T384 1300Q465 1362 558 1390T766 1419Q816 1419 868 1412T985 1392L1113 1410L1151 1044L1055 1021L961 1229Q896 1257 839 1270T703 1283Q630 1283 564 1261T459 1205Q393 1146 352 1019T310 705Q310 591 341 481T431 294Q497 208 582 167T762
126Q810 126 891 148T1049 199T1156 242L1201 173Q1094 70 989 21T744 -34L708 -114Q796 -128 856 -170Z" />
<glyph unicode="&#xc8;" glyph-name="Egrave" horiz-adv-x="1246" d="M997 155L1121 340L1200 320L1121 0H67L83 85L262 141V1248L74 1304L95 1384H960L1087 1397L1121 1046L1032 1024L933 1246L454 1296V741Q599 759 749 765L811 935L889 914L871 463L792 480L747
639Q660 639 590 643T454 659V99L997 155ZM395 1635L422 1785H483L851 1600L832 1495L395 1635Z" />
<glyph unicode="&#xc9;" glyph-name="Eacute" horiz-adv-x="1246" d="M997 155L1121 340L1200 320L1121 0H67L83 85L262 141V1248L74 1304L95 1384H960L1087 1397L1121 1046L1032 1024L933 1246L454 1296V741Q599 759 749 765L811 935L889 914L871 463L792 480L747
639Q660 639 590 643T454 659V99L997 155ZM445 1599L813 1785H874L901 1635L463 1494L445 1599Z" />
<glyph unicode="&#xca;" glyph-name="Ecircumflex" horiz-adv-x="1246" d="M997 155L1121 340L1200 320L1121 0H67L83 85L262 141V1248L74 1304L95 1384H960L1087 1397L1121 1046L1032 1024L933 1246L454 1296V741Q599 759 749 765L811 935L889 914L871 463L792
480L747 639Q660 639 590 643T454 659V99L997 155ZM318 1570L574 1785H672L929 1570L866 1504L623 1634L380 1504L318 1570Z" />
<glyph unicode="&#xcb;" glyph-name="Edieresis" horiz-adv-x="1246" d="M997 155L1121 340L1200 320L1121 0H67L83 85L262 141V1248L74 1304L95 1384H960L1087 1397L1121 1046L1032 1024L933 1246L454 1296V741Q599 759 749 765L811 935L889 914L871 463L792
480L747 639Q660 639 590 643T454 659V99L997 155ZM715 1556T715 1594Q715 1629 723 1661T745 1703Q756 1713 792 1713Q826 1713 860 1705T904 1682Q913 1670 913 1633Q913 1599 905 1566T884 1521Q870 1513 836 1513Q801 1513 768 1521T724 1542Q715 1556 715
1594ZM332 1553T332 1593Q332 1627 340 1660T362 1703Q374 1712 409 1712Q443 1712 477 1704T522 1682Q531 1669 531 1633Q531 1598 523 1565T501 1521Q490 1513 453 1513Q418 1513 385 1521T342 1542Q332 1553 332 1593Z" />
<glyph unicode="&#xcc;" glyph-name="Igrave" horiz-adv-x="720" d="M263 140V1246L75 1301L92 1384H652L636 1299L455 1244V140L648 84L628 0H68L85 87L263 140ZM131 1635L158 1785H219L587 1600L568 1495L131 1635Z" />
<glyph unicode="&#xcd;" glyph-name="Iacute" horiz-adv-x="720" d="M263 140V1246L75 1301L92 1384H652L636 1299L455 1244V140L648 84L628 0H68L85 87L263 140ZM182 1599L550 1785H611L638 1635L200 1494L182 1599Z" />
<glyph unicode="&#xce;" glyph-name="Icircumflex" horiz-adv-x="720" d="M263 140V1246L75 1301L92 1384H652L636 1299L455 1244V140L648 84L628 0H68L85 87L263 140ZM55 1570L311 1785H409L666 1570L603 1504L360 1634L117 1504L55 1570Z" />
<glyph unicode="&#xcf;" glyph-name="Idieresis" horiz-adv-x="720" d="M263 140V1246L75 1301L92 1384H652L636 1299L455 1244V140L648 84L628 0H68L85 87L263 140ZM452 1556T452 1594Q452 1629 460 1661T482 1703Q493 1713 529 1713Q563 1713 597 1705T641 1682Q650
1670 650 1633Q650 1599 642 1566T621 1521Q607 1513 573 1513Q538 1513 505 1521T461 1542Q452 1556 452 1594ZM69 1553T69 1593Q69 1627 77 1660T99 1703Q111 1712 146 1712Q180 1712 214 1704T259 1682Q268 1669 268 1633Q268 1598 260 1565T238 1521Q227 1513
190 1513Q155 1513 122 1521T79 1542Q69 1553 69 1593Z" />
<glyph unicode="&#xd0;" glyph-name="Eth" horiz-adv-x="1429" d="M1207 1173T1271 1030T1336 704Q1336 555 1294 419T1159 186Q1077 101 964 61T734 10T452 0H71L88 85L263 139V620L94 614L125 757H263V1246L76 1302L93 1384H532Q695 1384 832 1359T1070 1266Q1207
1173 1271 1030ZM699 118T844 181T1059 367T1130 697Q1130 1026 884 1180Q814 1224 700 1255T455 1301V757H749L725 636L455 627V87Q699 118 844 181Z" />
<glyph unicode="&#xd1;" glyph-name="Ntilde" horiz-adv-x="1525" d="M262 139V1246L74 1301L93 1384H416L1166 299Q1153 510 1150 720T1147 1247L943 1301L960 1384H1471L1456 1300L1287 1245V15L1143 -25L378 1099Q394 886 398 672T402 138L607 84L589 0H75L92
86L262 139ZM431 1653Q474 1698 505 1725T572 1771T649 1790Q693 1790 729 1769T815 1709Q842 1687 858 1676T889 1665Q916 1665 971 1695T1076 1768L1094 1657Q1036 1593 985 1557T876 1521Q832 1521 794 1542T712 1601Q685 1623 669 1634T638 1645Q608 1645 551
1615T452 1543L431 1653Z" />
<glyph unicode="&#xd2;" glyph-name="Ograve" horiz-adv-x="1405" d="M90 838T165 1019T388 1310T743 1419Q899 1419 1030 1340T1238 1111T1316 762Q1316 546 1239 364T1015 73T672 -35Q508 -35 376 44T167 273T90 623Q90 838 165 1019ZM475 212T567 168T760 123Q829
123 892 144T1000 213Q1054 271 1082 391T1111 616Q1111 740 1101 825T1060 982Q1025 1065 962 1128T817 1226T651 1261Q585 1261 521 1240T411 1176Q372 1138 346 1066T308 912T295 765Q295 615 320 495T414 289Q475 212 567 168ZM477 1635L504 1785H565L933 1600L914
1495L477 1635Z" />
<glyph unicode="&#xd3;" glyph-name="Oacute" horiz-adv-x="1405" d="M90 838T165 1019T388 1310T743 1419Q899 1419 1030 1340T1238 1111T1316 762Q1316 546 1239 364T1015 73T672 -35Q508 -35 376 44T167 273T90 623Q90 838 165 1019ZM475 212T567 168T760 123Q829
123 892 144T1000 213Q1054 271 1082 391T1111 616Q1111 740 1101 825T1060 982Q1025 1065 962 1128T817 1226T651 1261Q585 1261 521 1240T411 1176Q372 1138 346 1066T308 912T295 765Q295 615 320 495T414 289Q475 212 567 168ZM527 1599L895 1785H956L983 1635L545
1494L527 1599Z" />
<glyph unicode="&#xd4;" glyph-name="Ocircumflex" horiz-adv-x="1405" d="M90 838T165 1019T388 1310T743 1419Q899 1419 1030 1340T1238 1111T1316 762Q1316 546 1239 364T1015 73T672 -35Q508 -35 376 44T167 273T90 623Q90 838 165 1019ZM475 212T567 168T760
123Q829 123 892 144T1000 213Q1054 271 1082 391T1111 616Q1111 740 1101 825T1060 982Q1025 1065 962 1128T817 1226T651 1261Q585 1261 521 1240T411 1176Q372 1138 346 1066T308 912T295 765Q295 615 320 495T414 289Q475 212 567 168ZM400 1570L656 1785H754L1011
1570L948 1504L705 1634L462 1504L400 1570Z" />
<glyph unicode="&#xd5;" glyph-name="Otilde" horiz-adv-x="1405" d="M90 838T165 1019T388 1310T743 1419Q899 1419 1030 1340T1238 1111T1316 762Q1316 546 1239 364T1015 73T672 -35Q508 -35 376 44T167 273T90 623Q90 838 165 1019ZM475 212T567 168T760 123Q829
123 892 144T1000 213Q1054 271 1082 391T1111 616Q1111 740 1101 825T1060 982Q1025 1065 962 1128T817 1226T651 1261Q585 1261 521 1240T411 1176Q372 1138 346 1066T308 912T295 765Q295 615 320 495T414 289Q475 212 567 168ZM373 1653Q416 1698 447 1725T514
1771T591 1790Q635 1790 671 1769T757 1709Q784 1687 800 1676T831 1665Q858 1665 913 1695T1018 1768L1036 1657Q978 1593 927 1557T818 1521Q774 1521 736 1542T654 1601Q627 1623 611 1634T580 1645Q550 1645 493 1615T394 1543L373 1653Z" />
<glyph unicode="&#xd6;" glyph-name="Odieresis" horiz-adv-x="1405" d="M90 838T165 1019T388 1310T743 1419Q899 1419 1030 1340T1238 1111T1316 762Q1316 546 1239 364T1015 73T672 -35Q508 -35 376 44T167 273T90 623Q90 838 165 1019ZM475 212T567 168T760
123Q829 123 892 144T1000 213Q1054 271 1082 391T1111 616Q1111 740 1101 825T1060 982Q1025 1065 962 1128T817 1226T651 1261Q585 1261 521 1240T411 1176Q372 1138 346 1066T308 912T295 765Q295 615 320 495T414 289Q475 212 567 168ZM797 1556T797 1594Q797
1629 805 1661T827 1703Q838 1713 874 1713Q908 1713 942 1705T986 1682Q995 1670 995 1633Q995 1599 987 1566T966 1521Q952 1513 918 1513Q883 1513 850 1521T806 1542Q797 1556 797 1594ZM414 1553T414 1593Q414 1627 422 1660T444 1703Q456 1712 491 1712Q525
1712 559 1704T604 1682Q613 1669 613 1633Q613 1598 605 1565T583 1521Q572 1513 535 1513Q500 1513 467 1521T424 1542Q414 1553 414 1593Z" />
<glyph unicode="&#xd7;" glyph-name="multiply" horiz-adv-x="1024" d="M609 579L826 376L729 287L513 490L297 287L200 376L417 579L185 797L281 886L513 669L745 886L841 797L609 579Z" />
<glyph unicode="&#xd8;" glyph-name="Oslash" horiz-adv-x="1405" d="M1174 1242T1245 1097T1316 762Q1316 546 1239 364T1015 73T672 -35Q588 -35 513 -14L457 -152L317 -100L375 44Q242 124 166 273T90 623Q90 838 165 1019T388 1310T743 1419Q835 1419 918
1391L965 1509L1105 1456L1052 1325Q1174 1242 1245 1097ZM432 256T453 238L849 1221Q759 1266 661 1266Q596 1266 526 1243T411 1177Q372 1139 346 1067T308 913T295 766Q295 614 317 495T404 289Q432 256 453 238ZM1054 272T1082 392T1111 617Q1111 748 1102
834T1064 990Q1031 1069 973 1129L581 155Q664 120 750 120Q819 120 887 143T1000 214Q1054 272 1082 392Z" />
<glyph unicode="&#xd9;" glyph-name="Ugrave" horiz-adv-x="1466" d="M411 412T462 314T605 159T810 103Q872 103 922 123T1010 180Q1058 228 1083 304T1108 477V1242L911 1301L927 1384H1419L1403 1299L1250 1242V472Q1250 322 1191 208T1014 29T729 -35Q560
-35 446 28T275 205T219 469V1246L48 1301L64 1384H624L602 1282L411 1235V536Q411 412 462 314ZM545 1635L572 1785H633L1001 1600L982 1495L545 1635Z" />
<glyph unicode="&#xda;" glyph-name="Uacute" horiz-adv-x="1466" d="M411 412T462 314T605 159T810 103Q872 103 922 123T1010 180Q1058 228 1083 304T1108 477V1242L911 1301L927 1384H1419L1403 1299L1250 1242V472Q1250 322 1191 208T1014 29T729 -35Q560
-35 446 28T275 205T219 469V1246L48 1301L64 1384H624L602 1282L411 1235V536Q411 412 462 314ZM595 1599L963 1785H1024L1051 1635L613 1494L595 1599Z" />
<glyph unicode="&#xdb;" glyph-name="Ucircumflex" horiz-adv-x="1466" d="M411 412T462 314T605 159T810 103Q872 103 922 123T1010 180Q1058 228 1083 304T1108 477V1242L911 1301L927 1384H1419L1403 1299L1250 1242V472Q1250 322 1191 208T1014 29T729 -35Q560
-35 446 28T275 205T219 469V1246L48 1301L64 1384H624L602 1282L411 1235V536Q411 412 462 314ZM468 1570L724 1785H822L1079 1570L1016 1504L773 1634L530 1504L468 1570Z" />
<glyph unicode="&#xdc;" glyph-name="Udieresis" horiz-adv-x="1466" d="M411 412T462 314T605 159T810 103Q872 103 922 123T1010 180Q1058 228 1083 304T1108 477V1242L911 1301L927 1384H1419L1403 1299L1250 1242V472Q1250 322 1191 208T1014 29T729 -35Q560
-35 446 28T275 205T219 469V1246L48 1301L64 1384H624L602 1282L411 1235V536Q411 412 462 314ZM865 1556T865 1594Q865 1629 873 1661T895 1703Q906 1713 942 1713Q976 1713 1010 1705T1054 1682Q1063 1670 1063 1633Q1063 1599 1055 1566T1034 1521Q1020 1513
986 1513Q951 1513 918 1521T874 1542Q865 1556 865 1594ZM482 1553T482 1593Q482 1627 490 1660T512 1703Q524 1712 559 1712Q593 1712 627 1704T672 1682Q681 1669 681 1633Q681 1598 673 1565T651 1521Q640 1513 603 1513Q568 1513 535 1521T492 1542Q482 1553
482 1593Z" />
<glyph unicode="&#xdd;" glyph-name="Yacute" horiz-adv-x="1199" d="M510 139V558L101 1251L-30 1290L-13 1384H494L478 1295L316 1247L652 667Q679 734 719 819T826 1040Q885 1157 926 1244L738 1301L755 1384H1214L1199 1289L1070 1252L702 560V139L901 83L885
0H323L337 84L510 139ZM432 1599L800 1785H861L888 1635L450 1494L432 1599Z" />
<glyph unicode="&#xde;" glyph-name="Thorn" horiz-adv-x="1152" d="M1096 926T1096 735Q1096 641 1058 565T950 438Q875 383 776 358T578 332L592 401Q710 448 771 488T860 586T889 742Q889 1054 455 1063V140L688 84L668 0H68L85 87L263 140V1246L75 1301L92
1384H652L636 1299L455 1244V1144Q645 1143 775 1119T986 1023Q1096 926 1096 735Z" />
<glyph unicode="&#xdf;" glyph-name="germandbls" horiz-adv-x="1197" d="M221 136V811L55 861L73 950H221V1006Q221 1236 360 1371Q412 1423 493 1454T669 1485Q767 1485 844 1449T965 1347T1009 1195Q1009 1135 989 1092T941 1021T864 957Q823 926 800 904T760
851T744 777Q744 738 764 708T821 650T941 565Q1040 499 1099 421T1159 238Q1159 104 1078 40T859 -25Q669 -25 542 80L579 295L680 272L710 89Q792 89 857 100T946 127Q963 138 970 162T978 215Q978 271 953 313T891 385T788 457Q687 522 637 588T587 752Q587
819 621 874T698 966T801 1043Q836 1066 849 1078Q859 1087 862 1103T865 1140Q865 1214 827 1265T727 1342T591 1368Q537 1368 502 1359T454 1336Q422 1295 411 1238T400 1067V125L424 0H59L75 88L221 136Z" />
<glyph unicode="&#xe0;" glyph-name="agrave" horiz-adv-x="971" d="M68 337T102 389T218 475Q276 500 364 512T531 524Q572 524 611 521V575Q611 667 591 742T510 851Q489 863 455 869T382 875Q348 875 315 868L281 686Q253 671 220 671Q194 671 167 686T121
726T103 779Q103 832 187 879Q237 906 305 928T436 962T530 975Q668 975 729 894T790 674V192Q827 154 869 130T963 93L951 35Q895 9 836 -6T723 -25Q707 22 688 59T638 132Q616 100 562 63T444 0T326 -25Q238 -25 180 15T95 117T68 241Q68 337 102 389ZM369 106T390
106Q435 106 501 124T611 165V458Q512 451 440 433T327 395T271 357Q252 338 252 291Q252 257 266 219T305 152T356 112Q369 106 390 106ZM499 1298L528 1447H594L890 1183L868 1061L499 1298Z" />
<glyph unicode="&#xe1;" glyph-name="aacute" horiz-adv-x="971" d="M68 337T102 389T218 475Q276 500 364 512T531 524Q572 524 611 521V575Q611 667 591 742T510 851Q489 863 455 869T382 875Q348 875 315 868L281 686Q253 671 220 671Q194 671 167 686T121
726T103 779Q103 832 187 879Q237 906 305 928T436 962T530 975Q668 975 729 894T790 674V192Q827 154 869 130T963 93L951 35Q895 9 836 -6T723 -25Q707 22 688 59T638 132Q616 100 562 63T444 0T326 -25Q238 -25 180 15T95 117T68 241Q68 337 102 389ZM369 106T390
106Q435 106 501 124T611 165V458Q512 451 440 433T327 395T271 357Q252 338 252 291Q252 257 266 219T305 152T356 112Q369 106 390 106ZM834 1447H898L927 1298L559 1061L536 1183L834 1447Z" />
<glyph unicode="&#xe2;" glyph-name="acircumflex" horiz-adv-x="971" d="M68 337T102 389T218 475Q276 500 364 512T531 524Q572 524 611 521V575Q611 667 591 742T510 851Q489 863 455 869T382 875Q348 875 315 868L281 686Q253 671 220 671Q194 671 167 686T121
726T103 779Q103 832 187 879Q237 906 305 928T436 962T530 975Q668 975 729 894T790 674V192Q827 154 869 130T963 93L951 35Q895 9 836 -6T723 -25Q707 22 688 59T638 132Q616 100 562 63T444 0T326 -25Q238 -25 180 15T95 117T68 241Q68 337 102 389ZM369 106T390
106Q435 106 501 124T611 165V458Q512 451 440 433T327 395T271 357Q252 338 252 291Q252 257 266 219T305 152T356 112Q369 106 390 106ZM471 1083L408 1145L660 1391H769L1020 1145L957 1083L714 1229L471 1083Z" />
<glyph unicode="&#xe3;" glyph-name="atilde" horiz-adv-x="971" d="M68 337T102 389T218 475Q276 500 364 512T531 524Q572 524 611 521V575Q611 667 591 742T510 851Q489 863 455 869T382 875Q348 875 315 868L281 686Q253 671 220 671Q194 671 167 686T121
726T103 779Q103 832 187 879Q237 906 305 928T436 962T530 975Q668 975 729 894T790 674V192Q827 154 869 130T963 93L951 35Q895 9 836 -6T723 -25Q707 22 688 59T638 132Q616 100 562 63T444 0T326 -25Q238 -25 180 15T95 117T68 241Q68 337 102 389ZM369 106T390
106Q435 106 501 124T611 165V458Q512 451 440 433T327 395T271 357Q252 338 252 291Q252 257 266 219T305 152T356 112Q369 106 390 106ZM382 1265Q447 1332 495 1366T600 1401Q644 1401 681 1380T766 1321Q793 1299 809 1288T840 1277Q867 1277 922 1306T1028
1377L1045 1264Q984 1201 934 1166T827 1131Q783 1131 745 1152T663 1211Q636 1233 620 1244T589 1255Q570 1255 536 1242T466 1205T402 1152L382 1265Z" />
<glyph unicode="&#xe4;" glyph-name="adieresis" horiz-adv-x="971" d="M68 337T102 389T218 475Q276 500 364 512T531 524Q572 524 611 521V575Q611 667 591 742T510 851Q489 863 455 869T382 875Q348 875 315 868L281 686Q253 671 220 671Q194 671 167 686T121
726T103 779Q103 832 187 879Q237 906 305 928T436 962T530 975Q668 975 729 894T790 674V192Q827 154 869 130T963 93L951 35Q895 9 836 -6T723 -25Q707 22 688 59T638 132Q616 100 562 63T444 0T326 -25Q238 -25 180 15T95 117T68 241Q68 337 102 389ZM369 106T390
106Q435 106 501 124T611 165V458Q512 451 440 433T327 395T271 357Q252 338 252 291Q252 257 266 219T305 152T356 112Q369 106 390 106ZM429 1211T429 1253Q429 1292 438 1329T461 1379Q473 1390 514 1390Q552 1390 590 1381T641 1356Q652 1344 652 1302Q652
1264 643 1226T619 1175Q606 1165 568 1165Q530 1165 490 1174T440 1197Q429 1211 429 1253ZM776 1211T776 1254Q776 1292 785 1329T808 1379Q820 1390 862 1390Q900 1390 938 1381T989 1356Q1000 1345 1000 1303Q1000 1265 991 1226T966 1175Q950 1164 910 1164Q873
1164 836 1173T787 1197Q776 1211 776 1254Z" />
<glyph unicode="&#xe5;" glyph-name="aring" horiz-adv-x="971" d="M68 337T102 389T218 475Q276 500 364 512T531 524Q572 524 611 521V575Q611 667 591 742T510 851Q489 863 455 869T382 875Q348 875 315 868L281 686Q253 671 220 671Q194 671 167 686T121 726T103
779Q103 832 187 879Q237 906 305 928T436 962T530 975Q668 975 729 894T790 674V192Q827 154 869 130T963 93L951 35Q895 9 836 -6T723 -25Q707 22 688 59T638 132Q616 100 562 63T444 0T326 -25Q238 -25 180 15T95 117T68 241Q68 337 102 389ZM369 106T390 106Q435
106 501 124T611 165V458Q512 451 440 433T327 395T271 357Q252 338 252 291Q252 257 266 219T305 152T356 112Q369 106 390 106ZM660 1063T618 1085T550 1149T525 1245Q525 1298 549 1344T617 1417T719 1444Q768 1444 810 1421T878 1357T903 1261Q903 1208 878
1163T809 1090T712 1063Q660 1063 618 1085ZM756 1161T777 1185T799 1243Q799 1285 772 1317T704 1349Q670 1349 649 1324T627 1263Q627 1222 653 1192T723 1161Q756 1161 777 1185Z" />
<glyph unicode="&#xe6;" glyph-name="ae" horiz-adv-x="1434" d="M68 337T102 389T218 475Q277 499 365 511T532 523Q568 523 620 521V575Q620 796 509 851Q463 875 382 875Q348 875 315 868L280 686Q252 671 220 671Q193 671 166 686T120 726T102 779Q102 809
125 833T186 879Q238 907 306 929T435 963T529 975Q699 975 762 853Q874 975 1044 975Q1144 975 1215 933T1322 819T1358 657Q1358 594 1336 523Q1330 505 1321 497T1294 489H785Q785 392 823 307T928 171T1080 119Q1148 119 1219 145T1326 195L1351 157Q1290 87
1200 31T1012 -25Q812 -25 692 129Q660 94 600 58T466 -1T325 -25Q237 -25 180 15T95 117T68 241Q68 337 102 389ZM1195 678T1165 737T1083 827T964 859Q891 859 867 833Q840 804 816 732T785 563L1195 598Q1195 678 1165 737ZM369 106T390 106Q440 106 507 124T620
166V458Q516 451 442 433T328 394T271 357Q252 337 252 291Q252 257 266 219T305 152T356 112Q369 106 390 106Z" />
<glyph unicode="&#xe7;" glyph-name="ccedilla" horiz-adv-x="873" d="M782 94T707 43T548 -21L515 -85Q596 -111 634 -147T673 -245Q673 -319 616 -365T478 -432T319 -453L306 -405Q438 -352 482 -316T526 -250Q526 -223 486 -203T354 -164Q355 -140 380 -98T434
-21Q317 -6 236 59T115 225T74 448Q74 620 141 737T322 913T578 971Q674 971 736 946Q767 933 787 909T808 854Q808 825 790 796T744 749T690 730Q655 730 627 746L598 887Q528 886 468 865T358 794Q306 740 283 673T259 530Q259 361 343 241Q380 186 438 152T565
117Q604 117 654 129T746 158T806 185L829 151Q782 94 707 43Z" />
<glyph unicode="&#xe8;" glyph-name="egrave" horiz-adv-x="921" d="M592 119T646 132T747 162T813 191L837 156Q804 117 748 75T621 4T483 -25Q368 -25 276 24T129 180T74 453Q74 598 131 717T291 906T527 975Q626 975 697 933T806 818T844 656Q844 590 823 522Q817
504 809 496T782 488H245Q252 392 291 308T397 171T547 119Q592 119 646 132ZM353 858T328 833Q300 804 275 733T245 563L678 597Q678 680 645 739T555 828T430 858Q353 858 328 833ZM522 1298L551 1447H617L913 1183L891 1061L522 1298Z" />
<glyph unicode="&#xe9;" glyph-name="eacute" horiz-adv-x="921" d="M592 119T646 132T747 162T813 191L837 156Q804 117 748 75T621 4T483 -25Q368 -25 276 24T129 180T74 453Q74 598 131 717T291 906T527 975Q626 975 697 933T806 818T844 656Q844 590 823 522Q817
504 809 496T782 488H245Q252 392 291 308T397 171T547 119Q592 119 646 132ZM353 858T328 833Q300 804 275 733T245 563L678 597Q678 680 645 739T555 828T430 858Q353 858 328 833ZM857 1447H921L950 1298L582 1061L559 1183L857 1447Z" />
<glyph unicode="&#xea;" glyph-name="ecircumflex" horiz-adv-x="921" d="M592 119T646 132T747 162T813 191L837 156Q804 117 748 75T621 4T483 -25Q368 -25 276 24T129 180T74 453Q74 598 131 717T291 906T527 975Q626 975 697 933T806 818T844 656Q844 590
823 522Q817 504 809 496T782 488H245Q252 392 291 308T397 171T547 119Q592 119 646 132ZM353 858T328 833Q300 804 275 733T245 563L678 597Q678 680 645 739T555 828T430 858Q353 858 328 833ZM494 1083L431 1145L683 1391H792L1043 1145L980 1083L737 1229L494
1083Z" />
<glyph unicode="&#xeb;" glyph-name="edieresis" horiz-adv-x="921" d="M592 119T646 132T747 162T813 191L837 156Q804 117 748 75T621 4T483 -25Q368 -25 276 24T129 180T74 453Q74 598 131 717T291 906T527 975Q626 975 697 933T806 818T844 656Q844 590 823
522Q817 504 809 496T782 488H245Q252 392 291 308T397 171T547 119Q592 119 646 132ZM353 858T328 833Q300 804 275 733T245 563L678 597Q678 680 645 739T555 828T430 858Q353 858 328 833ZM452 1211T452 1253Q452 1292 461 1329T484 1379Q496 1390 537 1390Q575
1390 613 1381T664 1356Q675 1344 675 1302Q675 1264 666 1226T642 1175Q629 1165 591 1165Q553 1165 513 1174T463 1197Q452 1211 452 1253ZM799 1211T799 1254Q799 1292 808 1329T831 1379Q843 1390 885 1390Q923 1390 961 1381T1012 1356Q1023 1345 1023 1303Q1023
1265 1014 1226T989 1175Q973 1164 933 1164Q896 1164 859 1173T810 1197Q799 1211 799 1254Z" />
<glyph unicode="&#xec;" glyph-name="igrave" horiz-adv-x="590" d="M215 126V776L61 853L70 900L394 965V126L559 82L541 0H54L69 84L215 126ZM70 1298L99 1447H165L461 1183L439 1061L70 1298Z" />
<glyph unicode="&#xed;" glyph-name="iacute" horiz-adv-x="590" d="M215 126V776L61 853L70 900L394 965V126L559 82L541 0H54L69 84L215 126ZM405 1447H469L498 1298L130 1061L107 1183L405 1447Z" />
<glyph unicode="&#xee;" glyph-name="icircumflex" horiz-adv-x="590" d="M215 126V776L61 853L70 900L394 965V126L559 82L541 0H54L69 84L215 126ZM42 1083L-21 1145L231 1391H340L591 1145L528 1083L285 1229L42 1083Z" />
<glyph unicode="&#xef;" glyph-name="idieresis" horiz-adv-x="590" d="M215 126V776L61 853L70 900L394 965V126L559 82L541 0H54L69 84L215 126ZM0 1211T0 1253Q0 1292 9 1329T32 1379Q44 1390 85 1390Q123 1390 161 1381T212 1356Q223 1344 223 1302Q223 1264
214 1226T190 1175Q177 1165 139 1165Q101 1165 61 1174T11 1197Q0 1211 0 1253ZM347 1211T347 1254Q347 1292 356 1329T379 1379Q391 1390 433 1390Q471 1390 509 1381T560 1356Q571 1345 571 1303Q571 1265 562 1226T537 1175Q521 1164 481 1164Q444 1164 407
1173T358 1197Q347 1211 347 1254Z" />
<glyph unicode="&#xf0;" glyph-name="eth" horiz-adv-x="1070" d="M815 1154T889 972T963 541Q963 400 912 270T760 58T517 -24Q392 -24 295 26T140 179T83 437Q83 570 126 691T263 890T504 969Q599 969 660 938T773 850Q711 1054 547 1197L308 1043L244 1164L448
1272Q309 1364 111 1428L169 1500Q219 1500 293 1483T447 1433T591 1359L803 1496L866 1375L688 1279Q815 1154 889 972ZM740 176T761 260T783 432Q783 548 746 643T638 795T467 851Q376 851 326 817Q285 789 265 712T244 551Q244 424 277 323T381 163T556 103Q599
103 638 111T700 139Q740 176 761 260Z" />
<glyph unicode="&#xf1;" glyph-name="ntilde" horiz-adv-x="1200" d="M62 853L71 900L345 965L381 800Q470 870 578 921T767 973Q832 973 888 940T981 827T1018 618V126L1186 82L1169 0H717L734 87L839 131V550Q839 653 811 719T744 814Q724 827 705 827Q665 827
563 803T390 755Q391 749 393 730T395 698V126L564 81L546 0H57L74 88L216 136V775L62 853ZM268 1265Q333 1332 381 1366T486 1401Q530 1401 567 1380T652 1321Q679 1299 695 1288T726 1277Q753 1277 808 1306T914 1377L931 1264Q870 1201 820 1166T713 1131Q669
1131 631 1152T549 1211Q522 1233 506 1244T475 1255Q456 1255 422 1242T352 1205T288 1152L268 1265Z" />
<glyph unicode="&#xf2;" glyph-name="ograve" horiz-adv-x="1022" d="M73 576T129 700T286 899T514 975Q637 975 735 925T891 770T949 512Q949 372 892 248T735 50T519 -25Q391 -25 291 24T132 178T73 437Q73 576 129 700ZM613 107T655 120T723 160Q749 186 762
251T775 375Q775 517 732 623T613 786T446 843Q389 843 357 830T299 791Q277 766 262 701T247 572Q247 456 282 350T390 175T568 107Q613 107 655 120ZM296 1298L325 1447H391L687 1183L665 1061L296 1298Z" />
<glyph unicode="&#xf3;" glyph-name="oacute" horiz-adv-x="1022" d="M73 576T129 700T286 899T514 975Q637 975 735 925T891 770T949 512Q949 372 892 248T735 50T519 -25Q391 -25 291 24T132 178T73 437Q73 576 129 700ZM613 107T655 120T723 160Q749 186 762
251T775 375Q775 517 732 623T613 786T446 843Q389 843 357 830T299 791Q277 766 262 701T247 572Q247 456 282 350T390 175T568 107Q613 107 655 120ZM887 1447H951L980 1298L612 1061L589 1183L887 1447Z" />
<glyph unicode="&#xf4;" glyph-name="ocircumflex" horiz-adv-x="1022" d="M73 576T129 700T286 899T514 975Q637 975 735 925T891 770T949 512Q949 372 892 248T735 50T519 -25Q391 -25 291 24T132 178T73 437Q73 576 129 700ZM613 107T655 120T723 160Q749 186
762 251T775 375Q775 517 732 623T613 786T446 843Q389 843 357 830T299 791Q277 766 262 701T247 572Q247 456 282 350T390 175T568 107Q613 107 655 120ZM524 1083L461 1145L713 1391H822L1073 1145L1010 1083L767 1229L524 1083Z" />
<glyph unicode="&#xf5;" glyph-name="otilde" horiz-adv-x="1022" d="M73 576T129 700T286 899T514 975Q637 975 735 925T891 770T949 512Q949 372 892 248T735 50T519 -25Q391 -25 291 24T132 178T73 437Q73 576 129 700ZM613 107T655 120T723 160Q749 186 762
251T775 375Q775 517 732 623T613 786T446 843Q389 843 357 830T299 791Q277 766 262 701T247 572Q247 456 282 350T390 175T568 107Q613 107 655 120ZM435 1265Q500 1332 548 1366T653 1401Q697 1401 734 1380T819 1321Q846 1299 862 1288T893 1277Q920 1277 975
1306T1081 1377L1098 1264Q1037 1201 987 1166T880 1131Q836 1131 798 1152T716 1211Q689 1233 673 1244T642 1255Q623 1255 589 1242T519 1205T455 1152L435 1265Z" />
<glyph unicode="&#xf6;" glyph-name="odieresis" horiz-adv-x="1022" d="M73 576T129 700T286 899T514 975Q637 975 735 925T891 770T949 512Q949 372 892 248T735 50T519 -25Q391 -25 291 24T132 178T73 437Q73 576 129 700ZM613 107T655 120T723 160Q749 186
762 251T775 375Q775 517 732 623T613 786T446 843Q389 843 357 830T299 791Q277 766 262 701T247 572Q247 456 282 350T390 175T568 107Q613 107 655 120ZM226 1211T226 1253Q226 1292 235 1329T258 1379Q270 1390 311 1390Q349 1390 387 1381T438 1356Q449 1344
449 1302Q449 1264 440 1226T416 1175Q403 1165 365 1165Q327 1165 287 1174T237 1197Q226 1211 226 1253ZM573 1211T573 1254Q573 1292 582 1329T605 1379Q617 1390 659 1390Q697 1390 735 1381T786 1356Q797 1345 797 1303Q797 1265 788 1226T763 1175Q747 1164
707 1164Q670 1164 633 1173T584 1197Q573 1211 573 1254Z" />
<glyph unicode="&#xf7;" glyph-name="divide" horiz-adv-x="1024" d="M574 779T536 779Q504 779 473 786T431 807Q421 818 421 853Q421 886 429 920T450 962Q464 972 496 972Q529 972 562 963T604 942Q613 933 613 899Q613 866 605 832T584 788Q574 779 536 779ZM167
644H884L863 520Q770 512 549 509T140 506L167 644ZM574 177T536 177Q504 177 473 184T432 204Q422 215 422 251Q422 284 430 317T451 359Q464 369 496 369Q529 369 562 360T605 339Q614 330 614 297Q614 264 605 230T584 186Q574 177 536 177Z" />
<glyph unicode="&#xf8;" glyph-name="oslash" horiz-adv-x="1022" d="M836 869T892 766T949 512Q949 372 892 248T735 50T519 -25Q438 -25 366 -4L302 -166L182 -119L250 49Q166 106 120 203T73 437Q73 576 129 700T286 899T514 975Q571 975 620 965L677 1106L793
1060L738 923Q836 869 892 766ZM244 333T321 223L449 537L566 828Q504 853 422 853Q352 853 318 817Q287 786 266 710T244 559Q244 333 321 223ZM738 169T758 249T778 391Q778 642 671 758L518 380L421 135Q491 101 586 101Q619 101 651 110T704 138Q738 169 758
249Z" />
<glyph unicode="&#xf9;" glyph-name="ugrave" horiz-adv-x="1159" d="M23 869L40 950H359V404Q359 298 387 231T456 135Q477 119 509 119Q570 119 648 135T781 174V800L598 869L616 950H959V192Q976 167 1009 146T1077 111T1132 94L1119 34Q1084 16 1010 -4T891
-25Q883 5 857 58T804 136Q742 70 641 23T442 -25Q371 -25 312 9T217 122T180 332V800L23 869ZM345 1298L374 1447H440L736 1183L714 1061L345 1298Z" />
<glyph unicode="&#xfa;" glyph-name="uacute" horiz-adv-x="1159" d="M23 869L40 950H359V404Q359 298 387 231T456 135Q477 119 509 119Q570 119 648 135T781 174V800L598 869L616 950H959V192Q976 167 1009 146T1077 111T1132 94L1119 34Q1084 16 1010 -4T891
-25Q883 5 857 58T804 136Q742 70 641 23T442 -25Q371 -25 312 9T217 122T180 332V800L23 869ZM680 1447H744L773 1298L405 1061L382 1183L680 1447Z" />
<glyph unicode="&#xfb;" glyph-name="ucircumflex" horiz-adv-x="1159" d="M23 869L40 950H359V404Q359 298 387 231T456 135Q477 119 509 119Q570 119 648 135T781 174V800L598 869L616 950H959V192Q976 167 1009 146T1077 111T1132 94L1119 34Q1084 16 1010
-4T891 -25Q883 5 857 58T804 136Q742 70 641 23T442 -25Q371 -25 312 9T217 122T180 332V800L23 869ZM317 1083L254 1145L506 1391H615L866 1145L803 1083L560 1229L317 1083Z" />
<glyph unicode="&#xfc;" glyph-name="udieresis" horiz-adv-x="1159" d="M23 869L40 950H359V404Q359 298 387 231T456 135Q477 119 509 119Q570 119 648 135T781 174V800L598 869L616 950H959V192Q976 167 1009 146T1077 111T1132 94L1119 34Q1084 16 1010 -4T891
-25Q883 5 857 58T804 136Q742 70 641 23T442 -25Q371 -25 312 9T217 122T180 332V800L23 869ZM275 1211T275 1253Q275 1292 284 1329T307 1379Q319 1390 360 1390Q398 1390 436 1381T487 1356Q498 1344 498 1302Q498 1264 489 1226T465 1175Q452 1165 414 1165Q376
1165 336 1174T286 1197Q275 1211 275 1253ZM622 1211T622 1254Q622 1292 631 1329T654 1379Q666 1390 708 1390Q746 1390 784 1381T835 1356Q846 1345 846 1303Q846 1265 837 1226T812 1175Q796 1164 756 1164Q719 1164 682 1173T633 1197Q622 1211 622 1254Z"
/>
<glyph unicode="&#xfd;" glyph-name="yacute" horiz-adv-x="1037" d="M1025 950L1012 882L906 825L668 162Q595 -42 537 -170T419 -376T287 -484Q246 -500 202 -500Q157 -500 112 -488T37 -449T6 -381Q6 -352 25 -321T74 -269T128 -248Q145 -248 165 -252T198
-266L228 -424Q251 -410 295 -351T390 -203T484 -21L105 820L-38 875L-24 950H453L440 879L304 826L566 205L778 824L634 875L647 950H1025ZM639 1447H703L732 1298L364 1061L341 1183L639 1447Z" />
<glyph unicode="&#xfe;" glyph-name="thorn" horiz-adv-x="1112" d="M626 -397L610 -475H39L54 -386L199 -340V1287L44 1365L54 1412L378 1472V835Q441 878 486 905T586 953T695 973Q800 973 876 918T992 757T1033 506Q1033 371 977 249T826 53Q781 17 728 -4T619
-26Q543 -26 480 0T378 80V-350L626 -397ZM378 240Q426 176 513 147T679 118Q740 118 771 132Q790 140 810 182T843 290T856 426Q856 561 814 659T704 810Q676 831 638 831Q582 831 521 816T378 770V240Z" />
<glyph unicode="&#xff;" glyph-name="ydieresis" horiz-adv-x="1037" d="M1025 950L1012 882L906 825L668 162Q595 -42 537 -170T419 -376T287 -484Q246 -500 202 -500Q157 -500 112 -488T37 -449T6 -381Q6 -352 25 -321T74 -269T128 -248Q145 -248 165 -252T198
-266L228 -424Q251 -410 295 -351T390 -203T484 -21L105 820L-38 875L-24 950H453L440 879L304 826L566 205L778 824L634 875L647 950H1025ZM234 1211T234 1253Q234 1292 243 1329T266 1379Q278 1390 319 1390Q357 1390 395 1381T446 1356Q457 1344 457 1302Q457
1264 448 1226T424 1175Q411 1165 373 1165Q335 1165 295 1174T245 1197Q234 1211 234 1253ZM581 1211T581 1254Q581 1292 590 1329T613 1379Q625 1390 667 1390Q705 1390 743 1381T794 1356Q805 1345 805 1303Q805 1265 796 1226T771 1175Q755 1164 715 1164Q678
1164 641 1173T592 1197Q581 1211 581 1254Z" />
<glyph unicode="&#x2013;" glyph-name="endash" horiz-adv-x="1024" d="M96 615H962L935 475Q827 468 526 464T62 459L96 615Z" />
<glyph unicode="&#x2014;" glyph-name="emdash" horiz-adv-x="2048" d="M92 615H1988L1963 482Q1902 477 1459 473T629 465T60 461L92 615Z" />
<glyph unicode="&#x2018;" glyph-name="quoteleft" horiz-adv-x="464" d="M237 1109T265 1096T302 1069Q311 1053 311 1014Q311 977 302 943T276 896Q263 884 218 884Q174 884 128 895T70 923Q50 949 50 1004Q50 1059 71 1126T134 1259T238 1373L314 1356L203
1116Q237 1109 265 1096Z" />
<glyph unicode="&#x2019;" glyph-name="quoteright" horiz-adv-x="464" d="M227 1136T199 1149T162 1176Q153 1193 153 1231Q153 1268 162 1302T188 1349Q201 1361 246 1361Q290 1361 336 1350T394 1322Q414 1296 414 1241Q414 1186 393 1119T330 986T226 872L150
889L261 1129Q227 1136 199 1149Z" />
<glyph unicode="&#x201a;" glyph-name="quotesinglbase" horiz-adv-x="414" d="M227 -92T199 -79T162 -52Q153 -35 153 3Q153 40 162 74T188 121Q201 133 246 133Q290 133 336 122T394 94Q414 68 414 13Q414 -42 393 -109T330 -242T226 -356L150 -339L261 -99Q227
-92 199 -79Z" />
<glyph unicode="&#x201c;" glyph-name="quotedblleft" horiz-adv-x="873" d="M242 1141T272 1128T311 1101Q321 1087 321 1044Q321 1004 312 966T286 916Q270 904 220 904Q172 904 126 914T69 941Q50 968 50 1024Q50 1085 72 1159T143 1306T265 1435L335 1419L203
1148Q242 1141 272 1128ZM646 1129T674 1116T711 1089Q720 1073 720 1034Q720 997 711 963T685 916Q672 904 627 904Q583 904 537 915T479 943Q459 969 459 1024Q459 1079 480 1146T543 1279T647 1393L723 1376L612 1136Q646 1129 674 1116Z" />
<glyph unicode="&#x201d;" glyph-name="quotedblright" horiz-adv-x="873" d="M227 1166T199 1179T162 1206Q153 1223 153 1261Q153 1298 162 1332T188 1379Q201 1391 246 1391Q290 1391 336 1380T394 1352Q414 1326 414 1271Q414 1216 393 1149T330 1016T226
902L150 919L261 1159Q227 1166 199 1179ZM631 1154T601 1167T562 1194Q552 1208 552 1251Q552 1291 561 1329T587 1379Q604 1391 653 1391Q701 1391 747 1381T804 1354Q823 1327 823 1271Q823 1210 801 1136T730 989T608 860L538 876L670 1147Q631 1154 601 1167Z"
/>
<glyph unicode="&#x201e;" glyph-name="quotedblbase" horiz-adv-x="931" d="M616 8T588 21T551 48Q542 64 542 103Q542 140 551 174T577 221Q590 233 635 233Q679 233 725 222T783 194Q803 168 803 113Q803 58 782 -9T719 -142T615 -256L539 -239L650 1Q616 8
588 21ZM210 -4T180 9T141 36Q131 50 131 93Q131 133 140 171T166 221Q182 233 232 233Q280 233 326 223T383 196Q402 169 402 113Q402 52 380 -22T309 -169T187 -298L117 -282L249 -11Q210 -4 180 9Z" />
<glyph unicode="&#x2022;" glyph-name="bullet" horiz-adv-x="659" d="M298 283T242 327T141 427T97 515Q97 547 141 603T241 703T330 748Q362 748 418 704T518 603T562 515Q562 483 518 427T418 327T330 283Q298 283 242 327Z" />
<glyph unicode="&#x2039;" glyph-name="guilsinglleft" horiz-adv-x="645" d="M387 350T445 272T533 135L454 61L78 461L454 863L534 786Q517 743 466 675T327 499L296 461Q387 350 445 272Z" />
<glyph unicode="&#x203a;" glyph-name="guilsinglright" horiz-adv-x="646" d="M319 499Q231 607 180 675T112 786L192 863L568 461L192 61L113 135Q142 194 200 272T350 461L319 499Z" />
</font>
</defs>
</svg>
