<?xml version="1.0" standalone="no"?>
<!DOCTYPE svg PUBLIC "-//W3C//DTD SVG 1.1//EN" "http://www.w3.org/Graphics/SVG/1.1/DTD/svg11.dtd">
<svg xmlns="http://www.w3.org/2000/svg">
<defs >
<font id="Knewave" horiz-adv-x="535" ><font-face
    font-family="Knewave"
    units-per-em="1000"
    panose-1="2 0 8 6 0 0 0 2 0 4"
    ascent="1169"
    descent="-385"
    alphabetic="0" />
<glyph unicode=" " glyph-name="space" horiz-adv-x="312" />
<glyph unicode="!" glyph-name="exclam" horiz-adv-x="370" d="M470 721Q474 709 479 705T486 698Q491 693 481 680Q472 662 456 638Q427 595 419 575Q378 493 355 425T316 301T285 204Q267 155 243 131Q231 111 200 104T137 101T83 122T66 164Q77 258 99 322T138
428T167 503T189 561T214 613T244 669T278 722Q317 777 344 787T398 800T446 794T475 768T470 721ZM231 -33Q220 -74 186 -94T112 -116T40 -102T-2 -51T8 8T55 40T118 51T185 47T231 21T231 -33Z" />
<glyph unicode="&quot;" glyph-name="quotedbl" horiz-adv-x="458" d="M394 588T389 622T382 697T397 764T436 801T486 812T534 796T567 754T572 688Q574 631 526 562Q513 544 503 527T474 500T438 491T407 507T394 555ZM166 533Q141 586 141 634T157 718T199
777T254 800T308 778T348 701L337 675Q338 673 338 672T339 669Q326 643 323 616T309 563L272 507Q262 490 245 481T210 473T179 489T166 533Z" />
<glyph unicode="#" glyph-name="numbersign" horiz-adv-x="833" d="M814 366Q772 362 738 373L737 372L752 369L618 378Q612 363 602 349T587 319Q624 319 642 316T671 312T690 314Q711 316 727 304Q734 298 734 283T739 262Q761 244 766 222T762 180T731 149T674
139T598 140T520 141L493 45Q471 16 430 22Q414 25 402 37T388 71H387Q387 73 388 75Q387 89 387 102V128Q380 129 374 129H360L267 126Q265 126 265 126T265 127L235 126Q224 100 210 72T189 6Q166 -22 128 -20Q111 -20 99 -10T84 22H83Q83 24 84 25V27Q89 56
97 117Q78 113 74 111Q66 107 49 107T20 114T4 135Q-6 166 36 200Q56 216 66 219T87 225T116 231Q121 263 126 297T137 366Q55 355 12 378Q-7 395 -2 409T22 440Q79 472 162 494L172 535Q194 639 209 677T253 738T312 770T373 774T424 752Q473 714 450 637L411
557L483 578Q486 588 489 596T496 614Q505 640 506 663Q515 705 542 731T602 772T670 788T723 787T753 774T771 754Q785 728 763 697Q759 664 734 609L759 606Q781 600 795 596T823 580T845 564T857 553Q865 541 851 512Q882 462 870 420T814 366ZM288 270Q351
287 412 297Q417 318 425 344T439 391L331 385L288 270ZM754 369Q761 369 766 368T774 366T775 365Q766 365 754 369Z" />
<glyph unicode="$" glyph-name="dollar" horiz-adv-x="591" d="M358 861Q383 900 450 916Q520 932 565 916Q588 907 599 890T600 845Q593 838 589 828T578 805Q563 772 547 757Q596 751 621 734T667 702Q686 684 686 676T675 659T650 640T627 605Q633 573 627
557Q614 521 564 512Q531 507 482 506T410 504T371 496Q335 484 341 449Q343 437 360 424T402 395T452 360T498 316Q544 260 528 193Q505 101 414 35Q381 11 337 -5Q334 -10 331 -13T325 -22L317 -34Q307 -52 298 -71T276 -109Q274 -110 274 -109Q270 -135 253
-156T213 -188T168 -193T130 -162H129V-28Q43 -17 6 45Q-11 72 -14 102T-6 159Q11 183 39 189T100 196T164 195T220 202Q295 220 307 228T314 241T298 249T273 258T247 271Q138 324 103 428Q90 467 94 512T114 591T152 650Q199 707 298 742Q321 750 342 755Q344
787 344 800T344 819T348 833T358 861Z" />
<glyph unicode="%" glyph-name="percent" horiz-adv-x="976" d="M261 -33L246 -53Q210 -81 168 -83Q124 -85 109 -55Q71 -46 92 12Q111 64 161 116Q178 130 187 145Q206 175 255 221L480 448Q544 544 585 597T644 673T681 718Q683 724 677 731Q665 746 667 752Q690
807 764 828Q832 848 887 826Q946 801 937 743Q889 626 738 481Q698 442 660 403L550 291Q539 277 527 264T482 212Q354 58 282 -15L261 -33ZM448 122T452 141T463 182Q473 219 523 266Q520 290 540 313T599 354Q610 373 634 386T692 402Q767 405 852 341Q930 280
907 181Q897 138 873 100T825 44T783 17T742 2Q713 -7 682 -12T646 -17T637 -17T628 -15T604 -11T559 -1T514 20Q469 48 453 104Q448 122 452 141ZM136 545Q167 680 324 697L325 698Q412 735 478 706Q540 680 533 636Q565 600 566 548Q568 502 494 440Q474 424
454 408T411 368T346 332T262 329T187 363T140 444T136 545ZM746 201L710 197Q705 193 701 191T691 184T670 168T640 140Q608 101 642 79Q676 56 722 104Q759 144 770 183Q772 190 774 197T776 211L746 201ZM399 530L349 515Q325 486 285 472Q284 464 284 457T289
444Q358 444 389 493Q399 509 399 530ZM761 165L772 172Q776 174 784 178Q779 175 774 173T761 165ZM794 559L791 555L794 559Z" />
<glyph unicode="&amp;" glyph-name="ampersand" horiz-adv-x="712" d="M633 -3Q665 7 676 2T683 -17T663 -48T624 -81Q569 -118 527 -109Q500 -104 478 -74Q470 -62 462 -50T445 -30Q364 -88 271 -103Q241 -108 197 -102T110 -76T42 -23Q-6 43 27 176Q63 269 175
360Q222 399 239 411Q219 533 268 635Q310 723 382 764Q431 797 504 800Q638 806 668 712Q686 652 646 571Q614 509 543 440Q508 407 463 376Q465 338 479 302T502 245T520 202Q523 204 527 210T536 224T546 238T554 247T562 254T576 262Q596 270 610 262Q611 263
618 265T626 270Q628 279 641 283T670 286Q710 283 710 262Q712 244 691 212Q655 120 603 58Q602 56 601 56T599 54Q613 36 618 25T633 -3ZM285 218Q256 185 245 163T252 115Q266 96 285 94T319 92T352 94Q347 104 340 112T324 134Q302 168 285 218ZM509 638Q503
662 473 644Q446 629 424 592Q401 554 414 527Q426 536 434 543T455 557T480 573Q507 593 510 638H509ZM463 537L425 534L463 537ZM423 532L420 529L423 532Z" />
<glyph unicode="&apos;" glyph-name="quotesingle" horiz-adv-x="250" d="M184 550T179 584T172 660T187 727T226 763T276 774T324 758T357 716T362 650Q364 593 316 524Q303 506 293 489T264 462T228 453T197 469T184 517Z" />
<glyph unicode="(" glyph-name="parenleft" horiz-adv-x="342" d="M-6 206Q16 426 93 583Q155 708 238 766Q272 790 300 794T343 785Q375 834 438 836Q464 837 487 829T522 807T531 776T500 742Q352 637 274 511Q181 363 161 158Q153 69 174 -18Q183 -52 190 -77T198
-119T187 -145T146 -156Q65 -156 23 -28Q-11 76 -6 206Z" />
<glyph unicode=")" glyph-name="parenright" horiz-adv-x="427" d="M-83 -62Q72 52 141 278Q199 468 183 696Q181 743 196 775T236 825T290 843T345 831T388 785T405 705Q407 682 404 655T401 582T385 461T342 308Q285 142 208 33Q135 -72 97 -110T30 -162T-20
-155Q-55 -177 -80 -172T-116 -147T-120 -104T-83 -62Z" />
<glyph unicode="*" glyph-name="asterisk" horiz-adv-x="558" d="M576 691Q699 697 741 658Q773 629 726 596Q687 570 632 560Q477 521 441 502Q543 410 619 321Q632 291 606 286Q583 282 553 292Q542 294 534 300T508 316Q488 327 416 376Q407 348 406 326T404
291Q399 280 399 269T387 244T356 221T312 212T267 218T226 238Q187 269 191 311Q197 348 213 383L218 399L169 387Q128 387 104 399T74 423T83 452Q106 474 137 490T200 523Q194 525 185 528T163 535T138 543T114 552Q76 564 64 584T53 622T68 650T95 651Q110
697 159 704Q200 710 249 686Q273 672 281 662T297 645Q299 639 301 635T306 625Q349 723 425 828Q438 847 458 853T496 854T523 831T523 793T508 757T496 728Q483 692 477 667Q498 678 528 682T576 691Z" />
<glyph unicode="+" glyph-name="plus" horiz-adv-x="497" d="M156 452Q193 550 208 611Q203 626 206 644Q228 675 265 693T344 710Q384 715 403 706Q439 689 428 659Q430 655 439 646T448 632Q435 595 413 562T376 508T356 476Q348 462 346 454Q410 459 450 466Q473
468 497 462T535 445T545 419T507 388Q494 387 472 382T426 370T379 358T346 350Q322 344 307 329Q278 208 252 183Q239 171 222 167T184 153T137 144T92 160T66 199T71 258Q75 273 80 288T91 317Q72 326 70 332Q60 339 55 351Q33 362 13 371T-22 392Q-60 430 -21
453Q-9 460 8 466Q60 463 64 464T66 466H63Q66 465 96 460Q132 454 156 452ZM344 454Q346 459 346 460Q345 460 345 459T343 454H344Z" />
<glyph unicode="," glyph-name="comma" horiz-adv-x="288" d="M233 68T236 65T241 57L259 39Q258 27 261 15T264 -14T246 -54T209 -94Q170 -144 116 -162Q57 -182 13 -145Q6 -131 6 -124T13 -103Q18 -90 29 -73T51 -41L46 -37L44 -39Q41 -40 41 -33Q38 -31 31
-24H30L22 -17L20 -12Q-8 40 28 73Q67 110 141 106Q159 105 196 93Q203 86 209 81T221 72L225 75L230 72Q233 68 236 65Z" />
<glyph unicode="-" glyph-name="hyphen" horiz-adv-x="588" d="M320 246L149 249Q147 248 145 248T140 247L139 249Q107 249 84 258T53 283T56 315T106 346L124 348Q131 374 164 397T263 428L321 430H366Q390 430 414 429Q467 442 523 426Q591 405 587 354Q585
328 553 297Q536 291 520 283T476 264Q421 246 320 246Z" />
<glyph unicode="." glyph-name="period" horiz-adv-x="235" d="M200 -62T177 -80T130 -106T98 -114T57 -109H56Q55 -109 53 -107Q1 -83 1 -42Q1 -6 38 30Q88 78 146 74Q153 73 179 66Q182 63 183 63Q240 19 212 -38Q200 -62 177 -80Z" />
<glyph unicode="/" glyph-name="slash" horiz-adv-x="567" d="M365 637T383 674T414 731T430 755T436 765Q434 788 458 809T540 842H547Q601 840 622 830Q661 812 676 768Q679 749 668 732T644 701Q656 669 627 635Q585 595 552 550T475 443T378 297T272 128Q138
-86 52 -192Q35 -213 3 -199Q-30 -185 -42 -150Q-58 -109 -30 -65Q38 90 148 272Q197 352 246 432T330 575Z" />
<glyph unicode="0" glyph-name="zero" horiz-adv-x="600" d="M162 671Q177 700 210 728T284 775Q379 819 454 785Q494 767 497 761T500 748T500 727Q589 762 628 676Q662 599 646 466Q629 333 579 239Q542 134 462 42Q431 5 405 -14T367 -32Q347 -36 331 -40Q309
-46 293 -46Q291 -48 290 -49T287 -52L257 -61Q255 -77 231 -83T177 -86T115 -69T69 -30Q45 24 38 56Q18 162 42 328Q60 450 106 554Q129 608 162 671ZM349 558Q275 410 250 240Q242 181 247 130H249L250 131Q356 291 410 478Q428 543 427 581T413 630Q409 626
409 626T407 628Q403 633 396 632Q382 613 370 593L349 558Z" />
<glyph unicode="1" glyph-name="one" horiz-adv-x="400" d="M35 561T45 579T80 615T127 637L128 638Q133 640 137 643T147 649Q189 685 223 729Q224 730 224 731T226 734Q240 766 276 781T345 796T404 776T437 723Q433 695 410 655Q416 642 426 625T430 589Q404
536 378 483T334 390T304 318T276 252Q228 132 207 57T162 -66V-69H161Q152 -92 127 -102T74 -111T27 -93T9 -51T17 2T35 96Q59 233 127 482Q98 486 72 504T40 541Z" />
<glyph unicode="2" glyph-name="two" horiz-adv-x="545" d="M320 542Q309 499 236 478Q170 460 118 482Q94 493 84 514T86 568Q133 658 194 720Q215 742 236 755Q264 777 307 791T398 807Q507 809 569 747Q626 698 619 620Q610 521 473 352Q416 282 343 217T203
88Q175 104 181 115T213 134T278 143T355 144Q446 139 461 118Q474 110 477 88T475 40Q461 -19 423 -49Q397 -75 284 -89Q171 -103 84 -92Q42 -86 17 -73T-1 -42T-1 -13T-16 8Q-35 37 -14 76Q17 128 41 154T90 210T149 275T216 344Q290 422 342 493Q366 528 379
558T390 625Q378 612 368 604T350 586Q329 566 320 542Z" />
<glyph unicode="3" glyph-name="three" horiz-adv-x="597" d="M190 282Q151 294 156 332Q162 370 203 407Q220 426 249 452T308 506Q383 577 394 617Q349 605 318 595T265 580T228 578T202 592T186 619T181 652Q181 693 218 702Q228 704 233 711T244 726Q259 749
280 753Q305 762 336 774T402 795Q514 825 580 759Q627 712 617 630Q612 588 588 535Q566 500 541 478T496 441T450 407Q503 401 530 368T562 286Q571 188 503 72Q426 -56 172 -79Q102 -84 55 -64T0 -8Q-9 16 -2 41T22 86T61 113T104 111Q161 104 181 107Q216 111
277 140Q297 150 319 170T353 212T363 250T336 267T275 268T190 282Z" />
<glyph unicode="4" glyph-name="four" horiz-adv-x="588" d="M554 283Q550 272 500 270H501Q517 270 492 264Q470 259 455 259Q421 134 412 103T398 51T382 9L372 -12Q372 -17 373 -20Q362 -61 338 -83T284 -110T227 -99T179 -50L186 -2Q179 4 170 6T152 10Q131
15 131 32Q142 73 150 111T180 183L192 216L127 211Q75 207 54 218T16 250T-11 290T-18 330Q-14 368 35 432T121 540T195 623Q272 702 377 783Q411 811 466 811Q509 809 527 800Q562 784 571 749V741Q602 717 588 680Q580 654 559 622T534 576L513 496Q508 477
505 462T498 431T490 400T482 365L500 366Q509 366 518 366Q525 369 533 372T549 378Q568 381 577 369T587 342T584 313T572 292T554 283ZM285 492Q161 374 144 352T127 325T142 321T178 330T227 344Q231 357 248 398Q282 479 285 492ZM365 -34Q366 -29 367 -25Q360
-43 365 -34Z" />
<glyph unicode="5" glyph-name="five" horiz-adv-x="603" d="M301 757T335 760T406 767T479 774T544 776Q609 775 609 754Q634 675 574 634Q550 618 495 610T418 604Q387 608 369 608Q356 586 330 548T279 471L260 428Q278 454 354 462Q428 470 475 451Q569 408
578 319Q583 262 549 167Q523 95 462 37Q409 -14 344 -41Q215 -96 60 -49Q31 -41 13 -23T-14 18T-19 62T0 101Q36 139 112 122Q183 107 212 116T261 145T292 184T309 216T316 240Q321 272 303 280Q292 284 266 280T208 271T143 262T86 262Q32 271 53 328Q52 331
54 327T56 326Q29 343 29 382Q45 428 68 472T108 547T134 595T153 632Q148 630 148 633T152 643T160 656T168 670Q155 713 198 737Q230 755 265 756ZM166 652T169 658T169 662T163 655T161 644Q166 652 169 658ZM496 754Q519 752 521 755T496 754ZM238 298Q234
299 240 298H238Z" />
<glyph unicode="6" glyph-name="six" horiz-adv-x="582" d="M441 788Q476 800 516 785Q555 771 545 748Q540 737 545 730T558 717T573 705T582 692Q586 674 541 649Q522 643 499 631T450 605T394 566T336 508Q287 449 246 371Q273 396 309 409T378 422T439 403T490
358Q539 294 527 216T488 83T420 -7Q343 -73 215 -73Q75 -65 25 26Q-22 112 9 260Q55 455 153 581Q260 719 441 788ZM320 266Q251 232 224 153Q215 129 213 106Q217 99 221 97Q252 75 283 118Q311 158 319 195T327 249T320 266Z" />
<glyph unicode="7" glyph-name="seven" horiz-adv-x="548" d="M342 579Q289 582 237 582T156 584Q124 585 102 590T73 618T77 668T111 717T181 742T268 750T344 761T408 772T462 781T507 788T547 790Q588 785 599 743L593 719Q638 703 652 670Q668 632 632 589Q551
501 437 314Q390 238 342 159T262 36Q226 -15 199 -47Q198 -47 196 -49Q196 -51 193 -55T186 -63T183 -66Q159 -89 130 -92T66 -91Q35 -84 19 -65T3 -30T12 -1T32 26T54 56Q112 152 144 221T202 346Q267 484 322 553L342 579Z" />
<glyph unicode="8" glyph-name="eight" horiz-adv-x="658" d="M439 809Q483 809 502 804Q545 791 564 746Q623 757 654 698Q684 640 665 571Q640 470 548 392Q520 369 489 348Q526 322 548 266Q566 217 562 161T530 60T465 -16T387 -64T309 -85T221 -91T127 -82T51
-36T7 66Q-4 163 40 236Q73 292 148 340L212 377Q163 435 149 473T134 543T146 613T190 689T260 754Q346 813 439 809ZM322 113T336 120T356 152T350 199T318 250L294 241Q271 230 271 227Q271 221 252 208T231 179T239 150T267 127T303 115ZM445 609Q440 623 428
623T403 614T376 587T356 548Q338 499 364 458L367 453Q377 463 388 471T412 490Q441 518 467 558Q473 565 463 582T452 604L445 609Z" />
<glyph unicode="9" glyph-name="nine" horiz-adv-x="603" d="M339 -30Q312 -69 254 -82Q196 -94 162 -70Q122 -44 146 19Q163 49 177 74T206 125Q242 182 283 238Q176 211 106 262Q34 314 30 410Q28 458 49 513T106 621T189 711Q292 794 405 783Q497 776 530 765Q608
741 591 684Q585 665 591 657T607 642T624 621T627 576Q593 324 444 102Q396 30 339 -30ZM416 588Q416 605 387 608Q351 607 318 574Q284 538 275 498Q265 453 293 446Q323 437 354 462Q390 491 405 550Q408 562 412 571T416 588Z" />
<glyph unicode=":" glyph-name="colon" horiz-adv-x="339" d="M366 484T374 463T368 415T327 373T270 353T208 349T154 364Q102 390 122 447Q151 505 227 516Q298 526 344 498Q366 484 374 463ZM288 194Q280 135 220 100Q164 67 107 78Q80 83 61 100T37 148L40
124Q35 155 54 180T103 222T168 248T233 255T278 238T287 197L288 194Z" />
<glyph unicode=";" glyph-name="semicolon" horiz-adv-x="339" d="M366 494T374 473T368 425T327 383T270 363T208 359T154 374Q102 400 122 457Q151 515 227 526Q298 536 344 508Q366 494 374 473ZM288 251Q291 247 294 244T299 236L317 218Q316 206 319 194T322
165T304 125T267 85Q228 35 174 17Q115 -3 71 34Q64 48 64 55T71 76Q76 89 87 106T109 138L104 142L102 140Q99 139 99 146Q96 148 89 155H88L80 162L78 167Q50 219 86 252Q125 289 199 284Q217 284 254 272Q261 265 267 260T279 251L283 254L288 251Z" />
<glyph unicode="&lt;" glyph-name="less" horiz-adv-x="570" d="M484 601Q497 603 506 605T524 608Q565 613 595 598T640 568Q673 534 651 498Q655 477 640 456T596 417Q518 378 436 351T271 292Q268 280 293 264T356 228T437 184T515 133Q523 104 504 80Q486
59 459 57Q440 63 403 69T319 83T221 104T124 138Q18 184 -14 260Q-14 266 -10 273T-2 288Q6 308 -6 324Q-6 362 74 408Q93 419 106 427Q154 451 199 475T290 523Q393 575 484 601Z" />
<glyph unicode="=" glyph-name="equal" horiz-adv-x="567" d="M81 145Q43 140 19 155T-13 191T-9 236T41 274T128 295T228 304T329 308T421 316T486 317T520 298T530 266T515 228Q485 185 414 170Q319 153 226 151T81 145ZM473 541Q531 535 557 513T580 466T543
421T451 401Q439 403 416 403Q423 403 454 404Q463 404 446 405Q417 407 406 404L394 402Q354 339 158 355Q111 365 89 391Q68 417 92 443Q98 467 142 481Q165 490 192 495T260 508T358 528T473 541Z" />
<glyph unicode="&gt;" glyph-name="greater" horiz-adv-x="745" d="M485 309L444 335Q395 367 343 395T243 459Q201 503 237 545Q249 574 293 606Q305 611 317 616T349 628T393 636T440 632Q476 622 514 591Q522 585 544 569T596 529T656 480T711 428Q766 368
752 342Q750 337 742 327T731 313Q739 282 726 244Q715 224 704 215T673 193Q625 176 546 164T406 137T282 106Q122 67 55 64Q53 70 50 78T43 94Q35 115 43 124T58 143T76 165T115 192T178 220T251 246T325 267T390 284T437 296L485 309Z" />
<glyph unicode="?" glyph-name="question" horiz-adv-x="570" d="M627 541Q639 439 478 324Q436 294 399 269T336 224T306 188Q304 164 283 148T236 126T184 121T146 135Q118 195 178 279Q205 316 241 353T311 426T373 494Q404 532 411 564H408Q401 558 395 550T367
530T330 512T299 499T281 490T274 486T264 482L248 476Q161 455 124 500Q111 516 100 544Q89 584 122 638Q150 685 192 709T297 750T423 767T537 748T615 687Q625 668 621 646T614 612T610 589T618 567T627 541ZM245 -16Q224 -58 190 -77T125 -97T72 -80T55 -27Q57
22 104 40Q164 64 217 40Q266 18 245 -16Z" />
<glyph unicode="@" glyph-name="at" horiz-adv-x="815" d="M408 157Q374 130 335 130T266 150T224 207Q200 287 272 396Q308 450 372 495Q473 567 543 548Q567 542 582 521Q591 518 589 512L584 498Q582 491 582 484T596 471Q618 443 619 399T600 331Q569 286
570 274T582 254T612 237Q637 250 649 260Q697 307 698 384Q699 444 675 493Q645 556 592 582Q518 618 390 554Q335 526 284 466Q215 388 198 352T171 282T160 212T170 145Q199 75 296 64Q332 60 343 51T357 31T359 8T371 -15Q393 -34 381 -52T337 -81T257 -95T163
-86Q52 -60 14 29Q-16 96 4 210Q24 318 82 432Q144 552 228 632Q354 754 514 776Q669 797 776 714Q810 690 831 634T850 501T817 332T715 145Q671 85 596 60Q524 35 470 54Q413 74 415 131Q410 143 408 157ZM315 222Q344 236 367 261T404 301T431 332Q426 338 416
340Q377 342 344 304Q313 267 315 222Z" />
<glyph unicode="A" glyph-name="A" horiz-adv-x="564" d="M553 678Q587 660 596 625Q576 513 560 403T529 218T509 106T496 32L490 11Q488 0 486 -9T482 -30Q454 -62 406 -62Q355 -62 325 -36Q307 -22 319 23Q324 41 325 69T329 117V119Q299 108 275 91T245 69T229
62T211 58Q192 57 185 52Q127 -52 81 -64Q52 -73 23 -69T-23 -34Q-55 -4 -7 130Q19 201 67 300T161 474Q258 633 374 742Q393 750 415 760T458 772T503 767T542 749Q579 721 553 678ZM339 415Q318 355 297 305T261 216L340 219Q348 283 358 346T377 472L339 415ZM312
215Q326 215 340 217V218Q327 217 316 216T312 215Z" />
<glyph unicode="B" glyph-name="B" horiz-adv-x="585" d="M528 754L532 753Q557 738 575 720T609 681T634 636Q672 544 568 430Q524 382 469 348Q483 338 495 334T531 317T561 270T558 192T520 104T448 22Q348 -61 216 -48Q197 -48 192 -45T184 -40T171 -37Q146
-57 114 -62T54 -57T6 -23T-14 40Q-11 66 -4 81Q-7 90 -7 103Q27 284 57 380Q118 571 189 668Q247 750 350 774Q449 797 528 754ZM217 56Q229 59 237 58T258 58Q287 61 336 94Q367 125 369 155T360 193T331 202T290 197T246 190V188Q241 168 236 153T227 124Q218
91 213 56H217ZM403 576Q373 580 338 529Q316 497 304 432Q325 441 345 447T384 462Q428 481 447 508Q469 534 461 552Q449 568 422 581Q414 574 403 576ZM388 580H391H388Z" />
<glyph unicode="C" glyph-name="C" horiz-adv-x="573" d="M449 498Q449 528 428 528Q420 528 409 524T388 517Q351 497 331 474T289 421T253 359T230 297Q201 190 252 153Q273 138 296 138T334 148T363 165T395 176T441 172T471 149T471 120T470 93T492 78Q511
54 468 20Q457 11 447 3Q361 -52 264 -58Q203 -62 134 -36Q31 3 18 139Q1 265 50 400Q91 514 174 611Q249 700 322 727Q409 772 510 762Q617 748 650 671Q683 594 639 486Q624 448 582 426Q546 406 504 406T450 432T449 498Z" />
<glyph unicode="D" glyph-name="D" horiz-adv-x="594" d="M622 406Q618 363 607 318T574 230T523 147T457 73T380 16Q292 -36 210 -21Q192 -60 157 -70T87 -71T26 -31T0 48T7 152T26 254Q45 335 73 406Q139 567 148 632Q161 719 196 740Q254 774 306 769T400 744Q469
711 549 633Q637 548 622 406ZM229 106Q280 132 311 159T371 210Q414 253 434 312Q478 442 378 509Q363 520 333 539Q319 507 313 472T295 404L268 316L246 221Q244 201 240 183T233 144L229 106Z" />
<glyph unicode="E" glyph-name="E" horiz-adv-x="524" d="M226 126Q284 120 312 120T399 128Q417 122 420 113T422 95T423 76T442 61Q451 58 448 44T431 12Q398 -31 353 -48Q281 -66 240 -69Q172 -74 92 -64Q4 -48 7 9Q7 219 99 431Q129 500 167 576Q175 592 176
612T179 651T185 685T206 706Q414 789 535 770Q577 769 590 742T594 680T553 616T476 579Q417 562 404 556Q379 544 368 524Q354 502 342 482T325 439L321 417Q340 408 367 411T418 418T456 419T463 390T432 330T368 282Q342 277 333 275T318 271Q311 270 278 268Q231
188 221 144Q217 126 226 126Z" />
<glyph unicode="F" glyph-name="F" horiz-adv-x="424" d="M148 9Q135 -38 82 -54Q34 -68 -4 -44Q-45 -19 -30 30Q-17 86 20 209T72 382Q107 506 116 546Q147 646 160 670T184 703T216 726T265 746T317 755T370 759T430 769Q443 769 453 771T474 774Q497 776 519
769T553 744T565 703T556 654T529 604Q492 552 436 530Q397 518 380 518T357 522T349 528T342 521Q333 508 329 492T320 469T307 439T285 403T270 385L358 394Q379 396 394 386T416 360T420 331T402 309T383 294T375 279T368 265T348 252Q316 237 225 228Q220 213
212 193T194 150Q168 83 165 69T159 46Q153 19 148 9Z" />
<glyph unicode="G" glyph-name="G" horiz-adv-x="639" d="M397 755Q541 784 621 719Q659 688 671 629T658 497Q647 463 620 446T565 427T513 433T488 461L479 481Q455 517 396 490Q345 467 294 410Q240 349 224 300Q206 246 206 229Q204 191 233 161Q275 134 317
136T392 155T446 193T467 223Q470 229 473 235T478 247Q474 247 480 247T483 248T486 246L492 244Q443 200 397 226Q379 237 365 249T339 261Q317 273 329 308Q334 322 347 334T382 352Q482 395 567 372Q605 362 619 332T632 263T616 186T584 124T537 68T460 6Q347
-67 218 -64Q31 -61 -3 89Q-14 137 -13 197Q-3 371 91 522Q136 594 212 664Q260 707 320 730Q352 743 397 755Z" />
<glyph unicode="H" glyph-name="H" horiz-adv-x="588" d="M239 218L191 96Q181 68 173 38T156 -14T129 -50T87 -69T40 -75T-4 -66Q-47 -46 -34 0Q12 202 52 324T119 516T175 664Q178 693 199 716T248 754T308 775T363 777T398 755T400 706Q364 614 349 576T322
508L294 442Q315 441 347 448Q405 461 431 457Q431 462 436 474Q464 596 499 698Q524 782 628 786Q669 786 690 766Q713 745 696 709Q604 451 566 302Q523 130 510 70T486 -1T466 -16T445 -25T429 -45H426Q418 -63 391 -73T337 -81T291 -61T281 -7Q291 50 314 115T350
218T373 287Q365 283 358 281T339 274T317 264T294 256Q266 245 248 234L239 218ZM352 285Q353 285 362 288Q356 286 352 285Z" />
<glyph unicode="I" glyph-name="I" horiz-adv-x="367" d="M422 676Q387 567 358 479T304 317T258 181T219 61Q209 -5 154 -32Q122 -47 78 -47T12 -38T-16 -10T-17 33T6 103T46 224T98 378Q165 573 204 648Q219 676 234 685T263 699T289 710T310 740T345 773T393
775T427 743T422 676Z" />
<glyph unicode="J" glyph-name="J" horiz-adv-x="561" d="M146 101L145 77Q145 71 147 53Q156 42 166 48Q174 53 202 76Q248 145 278 212Q347 369 376 480Q385 513 393 545T410 610T430 680V684Q447 743 517 776Q584 809 632 786Q655 775 665 749T663 677Q640
608 617 532T568 380T510 230T436 96Q343 -40 216 -84Q202 -90 193 -91T165 -94T120 -96T66 -86Q6 -69 -8 -26Q-24 34 -21 61T-9 106T11 142H12Q21 159 40 171T81 186T121 183T146 156Q147 145 147 128T146 101Z" />
<glyph unicode="K" glyph-name="K" horiz-adv-x="579" d="M180 710Q199 756 234 743Q244 765 251 771T267 780T284 788T312 795T354 798T400 796T440 783Q479 760 457 709Q459 710 456 707L447 690L440 681Q435 676 409 620Q388 580 366 541Q330 474 322 455Q357
474 403 510Q490 577 514 590T547 606T566 608T585 602L610 592Q634 584 636 534Q637 485 616 460Q525 342 411 302Q376 289 339 280Q392 274 440 210Q479 158 496 103T524 22T533 -19T516 -41T463 -56Q446 -59 393 -16Q370 3 344 25T292 68Q232 115 208 117Q206
117 200 119L182 74Q168 41 154 5T119 -61Q88 -82 47 -78Q0 -73 -15 -40Q-25 -9 18 142Q47 248 68 328T104 460T126 542T140 600Q157 665 180 710Z" />
<glyph unicode="L" glyph-name="L" horiz-adv-x="467" d="M325 -54T306 -54T268 -56T214 -57T112 -55Q96 -56 80 -56T50 -50Q19 -37 8 10Q3 32 -3 41T-14 58Q-24 74 -13 111T17 202T58 318Q112 463 155 548Q172 586 184 614T207 662T217 684Q227 722 294 748Q359
775 412 762Q471 747 464 684Q450 622 423 560T360 430T284 286T203 121Q202 117 207 114Q220 115 243 122T292 134T343 140T385 127Q384 109 394 99T414 78Q439 52 418 9Q398 -33 346 -48Q325 -54 306 -54Z" />
<glyph unicode="M" glyph-name="M" horiz-adv-x="691" d="M392 730Q402 703 403 694Q405 675 389 662Q389 661 387 659Q396 612 391 571T378 492Q432 584 464 627Q530 716 587 754Q606 765 633 770T686 772T727 752T742 704Q714 509 682 341T599 19V17H598Q586
-19 538 -34Q491 -48 454 -36Q409 -23 413 12L414 35V37Q418 61 418 69T420 82Q422 108 428 130T438 167T444 193T448 213Q410 161 394 150Q354 122 301 124Q268 126 263 139Q253 167 249 172Q243 180 239 199Q213 84 188 36Q178 17 168 2Q154 -31 104 -44Q57 -57
14 -42Q-30 -28 -28 8T-14 98T16 214Q67 407 88 465T125 556Q161 633 189 668Q220 731 292 744Q349 755 392 730Z" />
<glyph unicode="N" glyph-name="N" horiz-adv-x="630" d="M68 388Q88 455 100 491T125 557T152 613T186 662T226 698T270 711T318 693Q358 593 367 559Q379 509 389 418Q398 441 409 466T432 518Q463 584 471 618Q493 688 562 723Q622 753 674 742Q695 738 703
725T704 698T697 672T702 642Q705 596 686 561T647 473T607 361T565 241T524 130Q480 15 452 3Q414 -20 396 -24Q373 -28 331 -24Q305 -22 286 43Q275 78 266 140Q250 248 244 259Q204 129 188 95T163 50T142 21Q129 -15 80 -32Q38 -48 4 -37Q-33 -25 -18 9Q-7
129 68 388Z" />
<glyph unicode="O" glyph-name="O" horiz-adv-x="639" d="M203 662Q266 734 343 752Q396 765 443 748Q480 787 539 776Q593 766 631 715Q633 708 639 694T652 663Q696 561 659 395Q613 189 496 46Q460 2 415 -27Q343 -82 243 -76Q181 -73 139 -45Q-28 38 30 301Q78
517 203 662ZM215 131L214 125L216 114Q222 83 236 67T259 46Q269 54 279 61T297 78Q365 162 403 298T431 550Q392 500 349 435T281 324Q224 217 215 131Z" />
<glyph unicode="P" glyph-name="P" horiz-adv-x="606" d="M513 214Q473 184 430 171T343 163T269 200Q241 111 231 24Q227 8 217 -5Q199 -58 138 -76Q78 -93 26 -70Q2 -59 -14 -38T-30 13Q39 252 103 405Q117 437 125 457T141 491T153 515T167 539Q185 569 208
609T248 670T283 704T324 732T381 766T453 791T527 785Q601 762 636 682Q666 608 646 483Q615 292 513 214ZM304 303Q386 321 418 410Q445 485 429 580Q406 541 388 499T354 424Q321 350 304 303Z" />
<glyph unicode="Q" glyph-name="Q" horiz-adv-x="724" d="M565 80Q574 46 561 24T524 -11Q524 -16 530 -35T541 -68Q550 -95 546 -117Q535 -155 490 -158Q471 -160 452 -153T422 -131Q420 -135 411 -115T391 -68L369 -24Q315 -41 281 -38Q228 -32 169 -9Q87 23
56 105T48 306Q59 446 115 562Q181 699 280 739Q381 790 448 782L466 788Q481 814 512 825T580 834T650 819T706 784Q781 711 767 547Q751 346 621 171Q590 129 554 93L565 80ZM278 101Q268 138 268 160Q266 162 266 165V166Q265 167 265 169H266Q268 219 317 235Q347
251 383 249T448 226Q458 243 465 257L477 281Q564 465 521 594Q491 574 456 568T390 566Q368 547 349 521T322 484T296 442T260 370T231 290T218 211Q216 127 278 101Z" />
<glyph unicode="R" glyph-name="R" horiz-adv-x="582" d="M175 -3Q166 -43 113 -52Q64 -61 20 -41Q-29 -20 -23 18Q-29 76 38 270Q138 561 238 686Q264 718 282 727T325 745T375 760Q427 774 473 779T557 769T614 720T640 645T637 554T608 458T555 367Q485 275
391 248L401 231Q414 211 432 187T469 138T503 88T525 41Q541 -8 500 -30Q467 -50 448 -40Q440 -35 432 -28T410 -15Q351 -32 320 15Q301 45 291 70T274 112Q256 149 233 176Q222 149 208 107Q191 54 170 -3H175ZM377 579Q358 536 351 519Q337 485 320 444Q317
422 315 413L329 427L346 435Q364 445 379 453T406 473Q429 496 446 548Q446 558 449 568T454 588Q458 610 436 619Q416 621 386 586Q380 579 377 579Z" />
<glyph unicode="S" glyph-name="S" horiz-adv-x="552" d="M166 -58Q115 -60 73 -46T4 -6T-30 52T-18 121Q8 163 86 146Q145 134 167 133T206 139Q279 163 288 191Q294 212 262 240Q249 252 233 264T206 288Q156 325 128 373T104 479T123 573T158 640Q195 691 254
723Q322 758 363 768Q444 786 527 771Q555 766 575 752T615 723Q650 688 632 652Q625 636 610 626T578 615Q580 588 568 575Q545 552 488 545Q406 551 377 536Q343 518 352 458Q354 445 368 431T402 401T443 365T481 319Q537 227 472 104Q424 12 308 -34Q248 -58
166 -58Z" />
<glyph unicode="T" glyph-name="T" horiz-adv-x="502" d="M321 178T293 106T247 -3T214 -55T186 -74T157 -78T127 -76Q43 -63 75 45Q96 131 109 185T130 275T145 334T158 381T175 433T203 510Q165 505 135 518Q91 537 99 600Q103 629 130 654Q144 667 163 682Q202
713 318 748Q438 784 524 782Q547 786 571 777T611 751T626 716T602 682Q590 674 585 656T574 617T557 579T520 559Q507 552 484 549T453 545T444 539Q426 486 401 411T349 257ZM213 521Q211 521 211 521T213 520V521Z" />
<glyph unicode="U" glyph-name="U" horiz-adv-x="685" d="M343 724V722Q343 721 343 721T344 720V718H345L351 702Q361 673 299 522Q233 361 238 271Q249 207 345 374Q421 504 492 659Q501 680 511 702T536 740Q569 776 616 759Q632 778 653 785T694 788T728 770T743
731Q746 711 723 636T679 499T638 364Q587 191 557 38Q556 6 530 -15T471 -42T409 -40Q374 -30 372 10Q372 21 371 32Q373 -2 322 -26Q308 -33 296 -39Q226 -60 149 -30Q113 -15 85 10T45 71Q10 183 58 365Q78 443 107 517T149 624T169 669T182 694Q199 728 211
740L223 751Q225 753 227 753T232 756Q240 761 249 763L263 766H269Q298 770 319 754Q319 753 321 753L329 746L332 743L335 739Q335 738 335 738T336 737L337 736V734Q338 734 338 733V732Q339 731 340 731V730Q340 729 340 729T341 729T342 727V726Q342 725 343
724ZM370 58V61Q369 60 369 53Q369 56 370 57V58Z" />
<glyph unicode="V" glyph-name="V" horiz-adv-x="515" d="M79 33L72 679Q72 703 91 720T136 745T183 747T211 721Q230 683 237 616Q250 491 250 400Q260 384 275 385Q318 490 370 587T437 711T473 750T518 764Q570 770 616 746Q651 734 657 705Q680 659 626 599Q563
499 499 378Q377 145 344 91T296 15T262 -23Q228 -50 180 -45Q96 -42 82 8Q79 22 79 33Z" />
<glyph unicode="W" glyph-name="W" horiz-adv-x="773" d="M488 422Q590 729 624 729Q628 729 633 728Q649 727 669 741Q695 763 729 775T797 784Q874 777 894 703V700Q889 686 884 677H888Q863 646 840 597T805 520T771 450T721 347T661 226Q587 82 514 0Q477
-45 414 -44Q387 -43 362 -30T323 10L302 73Q289 62 272 45T236 10Q192 -32 168 -34T127 -35T95 -27Q61 -14 51 23Q34 194 68 460Q77 525 84 588Q101 677 148 716Q188 750 226 736Q243 730 252 716T258 682Q260 621 257 591Q253 540 254 516T254 477T252 448T252
426T260 422Q283 471 299 493T333 539Q361 564 382 558Q393 556 405 551T437 541Q450 530 454 517Q457 514 460 512T464 506T469 490T477 465T484 439T488 422ZM512 3Q512 1 512 2T513 6L512 3Z" />
<glyph unicode="X" glyph-name="X" horiz-adv-x="600" d="M331 517L432 650Q421 681 440 715Q500 775 559 792Q624 809 674 790Q699 780 713 759T718 703Q694 651 621 572Q591 540 561 509T509 451T468 397T430 342Q440 300 473 212T520 78T535 -11Q531 -26 523
-30T507 -35T491 -36T483 -41Q489 -52 482 -61T461 -74Q428 -85 393 -71Q358 -47 324 20Q303 61 279 142Q259 115 243 87T210 31Q172 -32 133 -58Q65 -92 0 -74Q-56 -44 -22 42Q-11 72 0 80Q5 85 5 85T6 86T9 91T22 110Q57 164 101 226L122 250Q137 268 154 288Q194
337 206 349Q165 445 156 480Q142 542 138 647Q127 673 158 711Q186 745 224 756Q266 768 279 732Q298 679 308 627T331 517Z" />
<glyph unicode="Y" glyph-name="Y" horiz-adv-x="491" d="M120 379Q103 524 106 615Q104 658 141 697Q176 734 214 738Q256 741 268 691Q276 663 288 626T311 548Q322 563 346 601T391 669Q442 742 481 771Q519 786 546 780T586 759T596 718Q594 655 500 520Q478
489 456 448T404 357T347 256Q285 143 250 41Q251 43 258 37T271 18Q287 -12 268 -32Q220 -82 149 -88Q84 -93 37 -64Q-10 -37 6 3H3Q25 60 53 110T111 215L156 295Q139 291 128 319Q120 342 120 379Z" />
<glyph unicode="Z" glyph-name="Z" horiz-adv-x="561" d="M454 126Q497 127 512 106T522 58T494 5T438 -32Q377 -59 280 -68Q193 -77 108 -66Q57 -59 37 -41Q-3 -6 2 57Q4 87 14 106Q30 132 64 182T133 273T202 352Q335 501 359 539Q364 547 374 570Q283 549 191
573Q156 582 143 618Q129 657 163 691Q212 744 308 770Q398 794 488 788Q504 783 513 779T533 761L534 742Q539 740 550 738T568 734T581 726T594 712Q606 692 606 646T584 545T531 438T465 340T404 261T365 210T343 176Q330 151 345 137L454 126ZM466 124H457H466Z"
/>
<glyph unicode="[" glyph-name="bracketleft" horiz-adv-x="536" d="M491 721Q414 713 414 712T413 711V709L397 691L377 678Q351 621 335 565L326 519Q318 481 308 439T288 354Q262 234 257 188T239 90T214 -8Q257 -2 303 -3T381 -23T422 -69T413 -121T339 -164Q292
-157 244 -163T148 -175T55 -181T-30 -163Q-30 -162 -31 -161Q-51 -124 -40 -98T0 -57Q19 31 41 123T86 309Q157 613 166 710Q172 768 177 783T187 805T192 812T195 816Q195 815 197 815Q207 827 221 838Q311 872 380 843Q425 838 428 835H438Q443 835 460 836Q516
841 554 829Q570 819 577 795T579 751Q563 723 516 722Q503 721 491 721Z" />
<glyph unicode="\" glyph-name="backslash" horiz-adv-x="567" d="M243 786L250 765Q263 727 272 686T300 577T348 419T405 239Q470 34 498 -130Q511 -171 499 -199T465 -241T420 -254T389 -234Q330 -108 252 130Q220 225 189 318T130 482T80 604T27 706Q6 747
25 774Q0 825 10 846Q45 901 112 894Q143 891 160 886Q213 862 231 836T243 786Z" />
<glyph unicode="]" glyph-name="bracketright" horiz-adv-x="545" d="M294 386T305 435T326 522T338 580T346 627Q359 695 360 701T362 712Q342 708 319 708T273 709T226 713T176 717T125 729T92 756Q73 793 134 845Q209 874 313 869Q350 868 385 870T450 875T504
877T546 870Q580 855 573 805Q572 801 579 796T594 785T610 774T616 765Q524 494 389 5Q383 -24 378 -52T366 -104Q352 -159 326 -171Q279 -193 160 -196Q85 -198 36 -180Q12 -170 1 -154Q-9 -137 -5 -126T14 -103Q42 -87 84 -81T144 -72T165 -65Q191 -26 224 90Q232
121 243 164T264 253T284 342Z" />
<glyph unicode="^" glyph-name="asciicircum" horiz-adv-x="539" d="M454 770L457 746Q485 671 505 578Q515 554 526 525T540 468Q545 405 482 396Q456 394 434 400T399 431Q397 442 397 452T398 473Q390 502 373 529T339 582Q296 526 256 489Q201 456 144 460Q79
456 41 488Q0 524 30 579Q100 663 135 698Q198 761 268 814Q277 821 287 829T308 846Q334 863 361 866T417 866T469 832Q483 799 454 770Z" />
<glyph unicode="_" glyph-name="underscore" horiz-adv-x="833" d="M319 21Q361 24 465 24T742 13Q768 6 787 -16T809 -64T795 -114T731 -147Q716 -149 704 -152T680 -158Q654 -164 625 -161Q533 -161 470 -161T375 -161T298 -163T190 -167T30 -173Q-20 -165 -41
-148T-61 -111T-39 -70T19 -35Q1 13 48 33Q77 43 243 32Q332 27 344 23Q350 21 319 21Z" />
<glyph unicode="`" glyph-name="grave" horiz-adv-x="282" d="M44 799Q35 848 78 872Q116 892 163 885Q192 884 218 870T255 830Q247 804 248 776Q250 716 249 698T237 671T212 660Q182 656 157 670Q152 680 148 684Q144 685 142 690Q138 701 116 723L80 759Q65
766 61 772Q53 781 44 793L43 798L44 799Z" />
<glyph unicode="a" glyph-name="a" horiz-adv-x="536" d="M458 429L462 428Q464 428 464 427Q490 437 507 412Q518 395 524 360Q526 312 514 227Q491 55 489 22Q491 -13 446 -26Q407 -38 368 -25Q327 -11 334 18Q326 3 318 -3T287 -21T220 -40T134 -45T56 -24T8
31Q-15 103 14 214Q34 287 86 343Q146 407 222 449Q279 480 332 486Q350 488 363 485T392 479T422 470Q458 455 458 429ZM273 164Q280 178 284 199T297 245Q216 212 173 164Q126 111 179 91Q225 79 246 106Q255 118 262 136T279 173Q276 168 273 164Z" />
<glyph unicode="b" glyph-name="b" horiz-adv-x="530" d="M191 -3L166 -26Q146 -40 127 -43L128 -44L123 -48Q52 -54 18 -17Q-17 22 3 85Q47 334 126 547Q179 691 228 740Q254 765 276 755Q282 779 297 792T330 808T365 803T391 772T400 730T391 690T373 651T353
613Q289 459 262 385L271 391Q337 435 412 430Q445 427 471 413T510 369T521 295T503 201T463 106T406 26Q336 -51 271 -32Q243 -36 206 -6Q198 1 191 5V-3ZM218 69Q233 86 269 133T318 206T312 256Q293 280 264 220Q218 124 218 69Z" />
<glyph unicode="c" glyph-name="c" horiz-adv-x="445" d="M410 491Q449 486 462 464T473 416T455 370T420 348Q413 327 398 319T365 308T328 302T291 284T263 257T244 230Q232 208 223 176Q221 154 244 135Q271 114 303 116T354 114T384 98Q406 75 380 45Q330
-35 212 -50Q177 -55 142 -53T74 -26T22 39Q-20 133 29 258Q76 375 170 438Q273 508 410 491Z" />
<glyph unicode="d" glyph-name="d" horiz-adv-x="542" d="M203 409Q240 434 288 424Q336 413 342 382Q350 401 354 420Q399 623 453 730Q470 763 488 776Q535 806 587 784Q608 775 620 760T630 731T631 710T642 694Q658 675 655 661Q635 582 602 498T533 329T470
164T432 9Q432 -10 416 -25T376 -50Q319 -70 270 -42V-36Q260 -33 256 -32T249 -28Q246 -23 244 3Q224 -28 205 -35T166 -42Q69 -42 28 -7Q-8 23 -6 91Q-4 167 50 261Q112 368 203 409ZM202 81Q234 70 246 96Q253 109 259 130T276 179L280 199Q256 213 237 203T205
172T191 125T202 81Z" />
<glyph unicode="e" glyph-name="e" horiz-adv-x="482" d="M349 148Q330 139 312 134T270 124Q207 111 179 109Q182 99 209 85Q227 82 248 90T293 106T339 115T382 98Q390 80 395 77T404 74T413 71T427 48T423 10T378 -21T308 -42T228 -53Q138 -60 91 -39Q23 -16
3 52Q-23 142 32 262Q57 318 111 382Q158 438 216 463Q283 492 356 490Q434 488 464 422Q479 387 470 324Q454 242 428 208Q402 175 349 148ZM291 306Q238 317 208 246Q199 227 194 206Q228 202 266 244Q280 261 287 278T291 306Z" />
<glyph unicode="f" glyph-name="f" horiz-adv-x="436" d="M345 458Q383 471 461 476Q479 466 476 435T452 388Q428 352 401 339Q386 332 365 327T312 312Q292 256 268 160T233 32Q210 -42 200 -45Q177 -81 150 -90T99 -91T64 -61T58 -15Q55 10 67 125T79 257Q75
261 69 262T61 267Q52 270 47 278Q38 292 28 298Q10 296 -1 308T-13 338T-1 373T40 401L142 433Q154 514 218 617Q233 642 250 670T299 723T363 761T431 778T495 777Q556 769 576 736Q600 694 598 661T570 610Q530 584 502 602Q491 608 486 622T467 632T435 614T399
577T366 532Q331 479 345 458Z" />
<glyph unicode="g" glyph-name="g" horiz-adv-x="542" d="M419 399Q436 430 464 430Q507 406 518 352Q529 298 494 255Q493 254 495 238Q513 138 482 30Q471 -6 457 -37T421 -115T360 -208T272 -281Q169 -339 42 -306Q-4 -288 -22 -264Q-45 -235 -38 -202Q-31
-161 10 -157Q30 -155 60 -172Q94 -179 115 -171T148 -157T180 -140Q213 -123 255 -62Q278 -30 301 24Q264 -23 183 -22Q160 -21 132 -20T80 -1T43 46T25 112T24 189Q40 325 138 404Q205 459 282 463Q319 465 352 455Q392 440 419 399ZM297 172Q297 175 298 177Q293
179 288 180T270 186T235 182T197 159T171 128T167 101T191 92T228 107Q272 134 297 172Z" />
<glyph unicode="h" glyph-name="h" horiz-adv-x="591" d="M542 107Q542 54 555 15Q555 -17 540 -30T503 -44T455 -36T413 -12T390 10T374 36Q357 115 358 139T362 180Q312 154 293 135Q258 100 234 45Q226 1 221 -1T208 -5T191 -12T174 -22T158 -30Q139 -41 133
-41Q76 -59 24 -25Q2 -10 -10 13T-16 64Q27 249 102 441Q148 558 190 626Q200 642 210 660Q231 696 239 709Q229 735 239 754T271 785T321 801T374 802Q434 793 438 755Q432 737 422 712T401 662T381 614T367 582T354 546T336 491T318 436L306 401Q302 387 293
359T274 288Q287 298 295 311T320 342T363 375T420 397Q485 408 538 355Q578 315 563 235Q557 202 549 169T542 107Z" />
<glyph unicode="i" glyph-name="i" horiz-adv-x="321" d="M132 433Q145 466 194 478Q240 490 280 475Q321 459 317 423Q306 388 290 338T258 234Q218 98 212 42Q197 -48 162 -55Q152 -57 143 -58Q121 -59 115 -70T95 -86T65 -92T31 -84T2 -62Q-26 -28 -9 29Q7
138 72 306Q103 389 132 433ZM321 583Q272 573 242 589T206 627T220 674Q242 704 286 713Q306 715 315 715T337 711Q370 708 380 682Q394 660 383 632T321 583Z" />
<glyph unicode="j" glyph-name="j" horiz-adv-x="358" d="M100 200Q123 291 137 323Q169 390 227 422Q251 442 276 443Q320 445 322 426T330 401T344 391T358 378T367 345Q224 -182 58 -261Q-19 -296 -103 -278Q-183 -260 -216 -206Q-252 -149 -197 -89Q-170 -57
-124 -76Q-112 -80 -103 -84Q-86 -96 -82 -105T-75 -121T-66 -137Q-59 -141 -48 -150Q-42 -147 -40 -145L-18 -119Q-1 -88 10 -62T33 -6T55 52T71 102T84 146T100 200ZM237 656Q270 719 327 720Q377 722 408 679Q440 635 417 591Q395 548 342 548Q294 548 260 580Q222
615 237 656Z" />
<glyph unicode="k" glyph-name="k" horiz-adv-x="476" d="M197 785Q219 812 250 815T310 806T359 768T382 711L373 682Q384 669 392 661T402 636Q408 622 352 525Q329 485 304 442T262 364Q274 367 286 369T310 374Q384 393 410 393T453 388Q499 370 501 332Q487
299 396 240Q375 227 362 218L275 156Q268 145 265 135V134Q267 129 290 120T331 104Q371 86 402 55Q412 44 415 23T409 -17T375 -43T308 -36Q245 -8 159 89Q149 54 140 21T119 -48Q104 -82 49 -80Q27 -80 10 -71T-11 -47Q-19 -25 -19 -15T-14 10Q9 68 15 102T23
143Q-5 161 -10 200Q-16 238 8 268Q40 280 54 286Q60 324 74 368Q99 447 112 505T151 636T197 785Z" />
<glyph unicode="l" glyph-name="l" horiz-adv-x="294" d="M190 18T182 2T158 -28T120 -54T78 -72Q32 -82 30 -45Q27 -35 18 -34T0 -28Q-21 -19 -12 21Q4 76 23 154T72 327Q143 555 248 738Q255 747 264 761T287 788Q322 820 373 803Q372 790 379 780T395 758Q418
732 416 711Q310 460 225 150Q215 114 209 87T197 39Z" />
<glyph unicode="m" glyph-name="m" horiz-adv-x="767" d="M139 435Q141 454 163 466T212 478T264 466T299 423Q384 497 454 480Q478 475 495 452Q546 501 608 516Q686 519 720 480Q725 475 730 469Q744 454 746 449Q764 421 756 320Q745 189 706 57Q685 -10 668
-12Q658 -14 650 -12T635 -10T627 -21Q607 -47 566 -47Q526 -47 498 -22Q467 4 476 39T498 112T524 190Q548 260 577 336Q556 312 520 246T475 166Q458 132 447 113T418 82T384 67T354 66Q321 71 307 94Q304 102 301 110T296 132Q293 163 304 233L302 230Q314 242
310 236Q270 179 262 163T245 128T224 83T205 37T188 -2Q143 -80 30 -65Q6 -62 -11 -54T-25 -28Q-17 12 12 105Q69 289 80 342Q87 360 92 379T104 412Q116 445 139 435ZM486 188V186Q488 190 486 188Z" />
<glyph unicode="n" glyph-name="n" horiz-adv-x="652" d="M167 433Q234 460 257 434Q269 420 269 395V390Q306 433 398 462Q495 492 558 479Q640 462 650 372Q658 296 615 179Q601 149 594 131T580 97Q567 69 539 30Q523 0 490 -16T424 -34T370 -25T358 15Q381
77 396 128T427 215Q442 266 431 279Q422 289 400 276Q381 264 373 248Q355 235 305 144Q291 119 278 95T253 49T233 14T218 -4T207 -10T199 -14T194 -27Q190 -50 146 -61Q75 -79 18 -55Q-1 -47 -12 -33Q-35 13 67 280Q103 374 114 392Q139 430 146 435T167 433Z"
/>
<glyph unicode="o" glyph-name="o" horiz-adv-x="524" d="M140 427Q161 442 192 434Q198 433 204 433Q226 478 280 480Q294 481 319 485T379 483T442 462Q501 430 513 370Q537 282 506 178Q473 63 394 -6Q358 -38 318 -46T246 -56T188 -57T136 -51Q82 -40 47 0Q6
45 12 140Q16 224 54 309T140 427ZM316 226Q291 218 269 219Q258 208 250 196T227 173T213 164Q196 140 185 115T185 63Q225 59 244 65T279 88T305 128Q323 171 316 226Z" />
<glyph unicode="p" glyph-name="p" horiz-adv-x="588" d="M241 409Q291 484 380 499Q409 504 451 506T524 487T570 433Q596 374 578 288Q568 241 554 185T512 73T439 -30T322 -106Q279 -123 247 -119T198 -105T176 -79Q156 -136 139 -194T92 -306Q72 -319 43 -325T-14
-323T-54 -289T-67 -235Q-67 -196 -48 -140Q-20 -57 -3 -12T20 46T30 75Q52 133 62 169T82 233V234Q92 278 113 327T143 388Q160 405 178 409T219 414H222L241 409ZM317 242Q305 221 277 203L268 182Q258 156 249 129T229 76Q239 66 244 57Q300 106 346 186Q364
219 369 252T372 294T363 303T350 300T340 293T340 292Q329 279 324 270T317 242Z" />
<glyph unicode="q" glyph-name="q" horiz-adv-x="576" d="M122 385Q160 412 207 433T299 462T377 464T422 429Q424 434 424 431T424 425T423 421T424 419Q426 424 442 428Q472 437 476 442Q478 466 496 470T535 466T573 440T592 403Q591 400 577 356T540 250T500
144T468 64T441 -8Q413 -92 394 -188Q393 -206 389 -201T381 -182Q369 -139 379 -133Q477 -83 504 -118Q515 -133 510 -160T488 -215T446 -270T391 -309Q332 -329 277 -304Q262 -298 248 -291Q193 -265 188 -203Q184 -149 191 -123T207 -78T225 -32Q210 -69 130
-74Q52 -79 21 -50Q-14 -15 -17 9Q-40 113 4 224Q47 330 122 385ZM265 154Q270 166 277 180T285 208T288 235H286Q226 227 208 216T178 189T161 160T152 139T148 123Q144 99 152 93T169 87T187 88Q241 98 265 154Z" />
<glyph unicode="r" glyph-name="r" horiz-adv-x="397" d="M118 450T143 468T192 491T231 486T242 455Q261 474 297 490T354 512T390 518Q423 516 409 482Q426 479 434 460T436 418T409 373T353 343T294 307T252 236Q222 165 198 35Q190 -12 133 -44Q79 -75 34
-62Q-17 -48 -11 13Q-9 56 15 127T52 235T70 291L104 414Q118 450 143 468Z" />
<glyph unicode="s" glyph-name="s" horiz-adv-x="506" d="M361 -24Q322 -56 269 -72T161 -90T60 -77T-14 -33Q-46 1 -36 35Q-31 49 -19 57T12 61Q24 60 29 67T39 84T48 102T64 111Q240 106 247 142Q235 153 218 161T182 177Q138 197 123 221Q104 231 94 269Q89
286 89 304T95 337Q92 376 143 423Q157 436 178 451T241 480T324 500T399 505T447 489T470 454T476 413Q468 368 402 351Q319 339 322 329Q322 327 315 324Q392 271 422 220Q463 150 434 64Q439 36 384 -6Q371 -16 361 -24Z" />
<glyph unicode="t" glyph-name="t" horiz-adv-x="436" d="M271 748L272 752L281 761Q292 787 305 792Q312 794 323 797T352 812Q359 826 381 825T424 811T459 776T466 731T455 696T446 674T435 652T418 618L385 549Q380 536 377 534T370 527Q379 529 385 530T397
532Q411 534 429 536Q440 534 448 534H462Q474 534 491 528T513 505T514 473T498 442T467 427Q380 403 343 401L337 394V393Q327 369 316 333T291 254T263 166T234 78Q186 -63 164 -75Q156 -79 148 -80T138 -83Q103 -81 80 -69T49 -46T45 -21Q64 153 121 360Q101
360 93 356Q78 348 57 347H56Q40 348 27 362T11 394T17 431T53 461Q85 470 100 476Q129 488 148 493T170 499T174 502Q177 504 189 504Q195 533 201 563T216 624Q236 696 271 748Z" />
<glyph unicode="u" glyph-name="u" horiz-adv-x="606" d="M130 439Q158 466 192 470T253 463T292 425T289 364Q255 314 235 256T198 139Q290 197 352 312Q370 346 391 381L406 409L436 457Q442 476 457 481T489 487T525 487T558 496T593 504T630 490T655 464T657
433Q615 343 542 98Q525 43 510 6Q485 -25 447 -36T376 -43T322 -20T313 27Q285 4 255 -15T183 -40T101 -37T35 0T5 72Q-1 230 130 439Z" />
<glyph unicode="v" glyph-name="v" horiz-adv-x="509" d="M221 444Q226 384 230 324T242 203Q260 240 275 281T309 362Q352 456 404 500Q436 535 500 535Q538 535 548 511Q553 499 545 479Q594 444 566 398Q558 386 550 376Q507 304 471 243Q412 142 365 70Q349
46 321 17T258 -34Q178 -86 131 -53Q100 -49 73 -33T32 9Q11 64 42 261Q49 305 51 327T56 367T61 401T65 433T74 464Q91 496 136 499H148Q166 495 182 490Q209 480 218 452Q219 449 221 444Z" />
<glyph unicode="w" glyph-name="w" horiz-adv-x="709" d="M475 365Q468 307 464 289T458 255Q457 247 462 252T477 270T499 303T522 342Q547 390 551 415Q550 419 550 422T549 437T550 466T565 495Q589 521 636 515Q678 513 693 505Q720 490 743 451Q754 427 730
342Q701 235 636 98Q618 62 602 37T556 -5T492 -29Q417 -44 365 -15Q357 -8 349 -3T330 16Q295 63 290 147Q275 96 254 66Q222 24 176 -18Q127 -47 64 -42Q43 -41 27 -33Q13 -21 7 -13T1 22Q1 68 25 152Q31 174 39 205T56 269Q78 366 80 390T85 424Q94 441 113
450T152 459T190 449T213 418H214V417Q244 361 244 303Q271 339 291 356T332 382Q362 393 377 395T411 400T446 404Q485 402 475 365Z" />
<glyph unicode="x" glyph-name="x" horiz-adv-x="467" d="M385 466T395 476T416 495T437 506T459 505T482 498T495 494Q506 483 513 465T520 437T514 419Q494 367 408 272Q387 248 371 233Q380 203 384 154Q394 53 397 38T401 16T407 2Q411 -15 397 -25T360 -40Q314
-51 282 -43Q266 -31 259 -13Q249 8 228 74Q217 62 207 50T187 26L173 7Q167 -1 162 -9T149 -26Q135 -42 107 -59Q80 -70 57 -69Q14 -66 10 -46Q-13 -38 -17 -22T-12 31Q78 195 147 255Q138 269 133 298Q122 352 113 368Q88 375 77 394T83 447L95 461Q134 496 175
503T252 483Q278 473 309 427Q317 415 319 407Q334 427 359 446Z" />
<glyph unicode="y" glyph-name="y" horiz-adv-x="570" d="M37 347T30 373T30 416T54 441T93 446T138 432Q191 408 212 364Q217 342 209 310T189 243T168 176T160 121Q186 137 205 169T241 237T272 310T300 367T322 400T338 423Q351 440 372 456Q378 461 408 455T453
446T473 447L487 457Q515 471 553 456Q590 440 592 407Q591 406 591 403L594 402L587 396Q580 383 577 379T562 365Q494 292 406 94Q384 45 366 6Q393 -11 407 -38T407 -97Q324 -163 314 -221Q309 -257 302 -272T278 -301Q224 -341 151 -281Q99 -229 146 -151Q158
-130 169 -107Q185 -73 220 -6Q134 -56 62 -4Q11 35 26 173Q36 265 36 306Z" />
<glyph unicode="z" glyph-name="z" horiz-adv-x="518" d="M272 97Q302 105 337 101T398 81T433 37T421 -30Q410 -31 377 -37T299 -50T205 -63T112 -70Q13 -74 2 -47Q-37 40 88 166Q121 198 149 224T194 270T207 298Q188 302 184 304Q177 309 150 312T108 331T95
367T115 409T163 447T227 474T298 492Q358 505 440 510Q451 510 455 503T464 487T474 472T501 467T529 451T534 402T515 343T476 294Q356 174 326 147L272 97ZM48 78Q49 79 48 78T45 76Q46 76 48 78Z" />
<glyph unicode="{" glyph-name="braceleft" horiz-adv-x="506" d="M428 831L467 830Q469 830 486 826T526 808T558 778Q574 741 507 705Q498 702 466 695Q472 696 482 699Q458 677 453 651T447 597T445 541T429 486T399 438T370 402Q345 377 291 358Q303 351 296
339T284 317T282 290T280 246T266 198T251 152T244 108Q245 62 298 30Q351 0 368 -19Q400 -55 389 -94Q376 -115 354 -127T311 -143Q280 -149 222 -142Q192 -136 177 -127Q146 -113 98 -60Q50 -8 45 25T52 90T75 144T99 190T124 240Q150 305 118 322Q117 322 111
324T96 328Q81 333 65 341Q35 348 30 358Q19 377 46 397Q75 411 100 409Q216 430 264 474Q283 491 284 509T283 545Q286 531 281 538Q260 576 250 636Q239 703 276 752Q304 788 316 794T339 805Q364 822 410 830Q419 831 428 831Z" />
<glyph unicode="|" glyph-name="bar" horiz-adv-x="421" d="M200 778T207 796T229 832T265 864T306 886Q351 902 356 858Q360 847 369 846T388 841Q408 834 402 786Q390 721 376 631T338 432Q280 162 189 -47Q183 -58 175 -75T152 -108Q119 -145 68 -129Q68 -107
44 -79T19 -27Q92 216 142 460Q178 642 184 686T195 754Z" />
<glyph unicode="}" glyph-name="braceright" horiz-adv-x="582" d="M322 -51T313 -64T293 -91T273 -110T253 -120Q229 -138 183 -148Q169 -151 155 -151H127Q107 -151 75 -135T34 -102Q15 -65 81 -28Q88 -26 100 -23T121 -16Q116 -18 106 -21Q128 2 129 28T127
81T119 136T128 190Q159 251 213 281T332 329Q263 370 292 484Q298 508 305 531T318 578Q312 593 314 610T315 635T304 655Q293 663 282 671T258 688Q179 691 162 738Q156 755 161 776Q187 818 232 827T326 832Q340 829 348 828T372 819T404 799T436 770Q470 732
476 700Q494 656 494 615T487 555T471 521T456 490T442 455T432 421Q427 384 451 373Q454 373 467 369T490 363T505 357Q535 350 541 341Q552 323 527 301Q499 287 473 287Q397 268 363 250Q296 214 294 174Q292 161 297 142Q294 154 299 150Q318 121 334 52Q340
26 337 0T328 -38Z" />
<glyph unicode="~" glyph-name="asciitilde" horiz-adv-x="464" d="M74 457L82 459L108 480Q171 521 207 506Q226 500 238 490T256 463T266 439T280 416T301 390Q326 391 351 404L368 420Q376 429 385 437Q413 455 429 452T452 438T459 405Q455 373 415 340Q367
287 345 277Q309 258 263 270Q252 272 241 283L218 306Q188 336 164 330Q150 319 137 306T112 282Q82 258 64 265T38 282Q13 294 5 316T3 363Q16 418 74 457ZM53 439Q50 436 54 439T66 446L53 439Z" />
<glyph unicode="&#xa0;" glyph-name="space" horiz-adv-x="312" />
<glyph unicode="&#xa1;" glyph-name="exclamdown" horiz-adv-x="370" d="M49 -55Q45 -43 40 -39T33 -32Q28 -27 38 -14Q47 4 63 28Q92 71 100 91Q141 173 164 241T203 365T234 462Q252 511 276 535Q288 555 319 562T382 565T436 544T453 502Q442 408 420 344T381
238T352 163T330 105T305 53T275 -3T241 -56Q202 -111 175 -121T121 -134T73 -128T44 -102T49 -55ZM288 699Q299 740 333 760T407 782T479 768T521 717T511 658T464 626T401 615T334 619T288 645T288 699Z" />
<glyph unicode="&#xa2;" glyph-name="cent" horiz-adv-x="491" d="M397 485Q446 474 458 435Q470 398 454 369Q436 338 409 348Q402 321 387 310T353 293T314 284T277 265T249 241T232 221Q220 205 212 176Q210 155 234 135Q260 114 292 116T344 114T374 98Q396
75 370 45Q320 -35 202 -50Q167 -55 132 -53T64 -26T12 39Q-31 133 18 258Q65 377 162 442Q267 514 397 485ZM239 540T246 552T270 583T304 622T351 645Q364 637 380 635T409 629T431 616T436 585Q371 499 317 422T231 267T194 111T221 -58Q216 -66 206 -83T180
-116Q140 -157 103 -145Q83 -157 75 -152T65 -133T64 -102T68 -45T82 62T112 193Q140 292 174 378T216 485T232 523Z" />
<glyph unicode="&#xa3;" glyph-name="sterling" horiz-adv-x="579" d="M532 466Q581 437 568 402T492 340Q487 338 482 337T472 333Q488 291 426 277Q396 270 300 270H288Q287 269 281 236T268 176Q255 120 234 75L299 71Q444 86 514 57Q567 25 554 -9Q541 -41
484 -56Q433 -46 378 -57T265 -82T152 -105T44 -99Q-31 -76 -29 -27Q-41 -13 -36 3T-22 28T0 42Q18 51 54 58Q70 64 90 67Q108 77 119 115Q137 177 144 262Q119 260 95 260T46 262Q5 269 -10 288Q-29 310 6 338Q52 359 155 391Q166 488 192 580T277 752Q314 800
357 823T451 853T551 851T640 814T698 748T714 683T697 642T660 619T612 613Q556 618 529 658Q529 664 508 674Q466 692 466 696Q409 648 379 586T328 454Q387 475 418 481T477 481T532 466Z" />
<glyph unicode="&#xa5;" glyph-name="yen" horiz-adv-x="491" d="M120 379Q103 524 106 615Q104 658 141 697Q176 734 214 738Q256 741 268 691Q276 663 288 626T311 548Q322 563 346 601T391 669Q442 742 481 771Q519 786 546 780T586 759T596 718Q594 655 500
520Q478 489 456 448T404 357T347 256Q285 143 250 41Q251 43 258 37T271 18Q287 -12 268 -32Q220 -82 149 -88Q84 -93 37 -64Q-10 -37 6 3H3Q25 60 53 110T111 215L156 295Q139 291 128 319Q120 342 120 379ZM146 129T108 127T22 121T-52 129T-86 158T-82 192T-28
221T67 238T175 245T285 247T385 253T454 255T491 240T502 215T486 186Q451 152 376 141Q307 138 263 136T183 131ZM441 433Q504 428 532 411T557 375T518 340T418 325Q410 326 398 326H379Q373 326 380 326T421 327Q432 327 413 328Q380 330 369 327L356 326Q319
284 165 286Q127 287 100 289Q48 297 26 318Q15 327 15 337T28 357Q35 376 83 386Q108 394 137 397T210 408Q351 430 441 433Z" />
<glyph unicode="&#xa8;" glyph-name="dieresis" horiz-adv-x="500" d="M242 641T222 626T180 604T150 597T120 601H119L117 603Q81 619 75 643T81 690T118 731T160 752T184 756T196 756T208 754T224 750L227 747Q276 710 252 662Q242 641 222 626ZM465 657T445
639T404 613T377 605T343 610H342Q341 610 339 612Q303 631 297 659T303 715T340 763T382 788T406 792T419 792Q426 792 447 785Q497 735 475 681Q465 657 445 639Z" />
<glyph unicode="&#xa9;" glyph-name="copyright" horiz-adv-x="867" d="M830 350Q808 133 655 53Q539 -8 355 0Q269 -2 178 50Q90 100 56 161Q35 224 34 270Q28 434 85 551Q121 626 170 654Q292 727 371 747Q407 756 450 755T537 750T622 735Q708 712 777 646Q858
570 842 428Q838 387 830 350ZM404 126Q447 124 491 137T573 175T642 232T694 300Q739 374 739 436Q739 530 688 593Q671 615 657 621T640 630T633 634Q625 614 602 607T531 598Q464 605 432 602T355 571T274 504T214 414T189 313Q175 232 250 178Q314 132 404
126ZM524 372Q518 372 488 384Q461 362 456 339Q454 330 446 325L445 324Q436 284 460 273Q476 266 500 266H501Q504 268 506 271Q516 278 544 282Q589 282 602 257Q606 248 602 234Q586 208 555 198Q470 149 381 182Q313 206 288 263Q265 318 310 398Q329 432
357 458Q403 508 464 526Q526 543 582 520Q613 515 634 502T652 463L655 461Q656 423 640 402T600 372Q565 350 524 372ZM588 223L591 227H590L588 223ZM505 267H504Q505 268 505 267Z" />
<glyph unicode="&#xab;" glyph-name="guillemotleft" horiz-adv-x="733" d="M260 567Q274 571 280 573T299 572T322 559T340 538Q358 509 346 476Q348 458 336 447T296 410Q213 336 150 297Q148 287 161 273T194 242Q252 189 276 157Q281 123 252 115Q245 113
239 113Q224 103 188 110T126 129T76 158Q19 201 3 269Q3 280 9 293T7 325Q7 359 48 398Q58 407 65 415Q114 457 160 499T260 567ZM608 606Q624 610 632 612T654 612T682 598T704 572Q723 536 710 499Q714 451 676 415Q628 374 578 346T478 286Q476 274 491 258T530
220Q600 157 627 121Q632 89 620 67T593 42Q581 48 558 54T507 69T447 91T387 126Q322 175 303 253Q303 259 305 266T310 282T313 299T308 319Q308 356 358 406Q369 417 377 426Q406 451 433 476T490 526Q560 583 608 606Z" />
<glyph unicode="&#xae;" glyph-name="registered" horiz-adv-x="973" d="M123 504Q159 548 186 578T234 624T277 657Q291 680 305 691Q359 721 397 743T471 778Q540 803 644 783Q710 771 769 726T871 616T932 472T939 310Q925 213 878 146Q855 114 826 84T761
17Q722 -22 594 -55Q385 -109 242 -78Q193 -68 166 -48T115 -12T76 26Q65 46 55 65T33 104T21 152T17 203T18 253T30 306Q70 437 123 504ZM647 585Q627 581 625 581Q564 583 511 579T404 550H403Q398 550 371 534T315 494T252 424T199 323Q155 197 214 110Q224
96 237 86T271 60T327 37T400 32Q473 34 547 59Q556 62 570 66T600 76Q637 89 649 103Q674 132 694 153T728 196Q758 241 765 311Q774 390 740 469Q708 544 647 585ZM662 302Q637 274 615 262Q579 244 550 236Q556 229 561 223T574 209T590 193T608 174Q626 148
617 124Q604 111 584 103Q552 96 527 121Q523 124 523 126T519 130L522 128Q504 146 489 164L475 179Q465 156 444 144Q416 108 360 112Q337 113 317 125T289 162Q286 198 295 237Q292 250 295 275T299 305T306 330Q327 392 374 441Q403 471 429 488T476 515Q502
528 518 532Q544 544 556 544T577 543T597 540T614 539T634 534Q692 502 698 450Q724 382 662 302ZM563 439Q510 389 483 326Q507 333 529 349T564 380Q592 413 575 434Q569 438 563 439ZM317 -20Q408 -34 529 -4Q420 -29 317 -20ZM511 140L513 137L511 140ZM511
140L507 144Q508 141 511 140Z" />
<glyph unicode="&#xb0;" glyph-name="degree" horiz-adv-x="464" d="M165 860Q197 873 228 878Q257 876 289 876T357 859T418 811T448 743Q457 665 382 600Q349 573 284 559Q233 548 184 551T113 557T83 566T65 576T48 586Q-12 623 -7 697Q-3 760 39 806Q54 823
66 827T107 843T165 860ZM265 708Q248 704 216 701Q209 703 198 703T177 704Q154 677 163 654Q166 646 177 640T205 636T238 648Q272 669 266 703Q265 704 265 708Z" />
<glyph unicode="&#xb4;" glyph-name="acute" horiz-adv-x="321" d="M203 870Q262 866 290 840Q322 812 286 782Q283 771 274 758Q212 696 170 674Q113 645 80 658Q46 671 67 717L73 724Q76 762 122 825Q133 840 141 846Q168 862 200 870H203Z" />
<glyph unicode="&#xb7;" glyph-name="middot" horiz-adv-x="235" d="M200 236T177 218T130 192T98 184T57 189H56Q55 189 53 191Q1 215 1 256Q1 292 38 328Q88 376 146 372Q153 371 179 364Q182 361 183 361Q240 317 212 260Q200 236 177 218Z" />
<glyph unicode="&#xb8;" glyph-name="cedilla" horiz-adv-x="403" d="M127 -162Q137 -160 144 -161H145Q221 -157 249 -142T253 -113Q229 -113 201 -112T150 -102Q98 -80 123 -17Q135 4 146 17Q154 30 171 48Q197 69 222 64Q248 58 235 19L230 13Q232 14 227 3T216
-19Q231 -21 248 -27T281 -36Q301 -43 318 -49T348 -64Q373 -84 375 -128Q380 -168 341 -210Q321 -231 261 -269Q197 -305 92 -304Q63 -303 42 -297Q20 -295 3 -276T-13 -215Q-2 -176 5 -167Q19 -148 50 -139Q78 -130 89 -135T107 -147T127 -162Z" />
<glyph unicode="&#xba;" glyph-name="ordmasculine" horiz-adv-x="323" d="M196 846Q222 860 240 866Q257 865 276 865T309 855Q351 815 336 734Q321 653 255 583Q230 554 183 537Q150 525 115 525Q104 527 92 528T73 531T62 538T54 548T47 558T43 564Q22 600
45 671Q72 755 115 798Q122 804 128 808T153 824T196 846ZM214 691Q210 689 182 682Q179 684 172 684T159 684Q127 633 140 620Q152 604 180 628Q208 652 214 686Q212 688 214 691Z" />
<glyph unicode="&#xbb;" glyph-name="guillemotright" horiz-adv-x="770" d="M259 314L234 339Q204 370 172 396T111 457Q87 498 107 539Q116 567 142 597Q149 602 156 607Q199 638 228 624T277 583Q282 577 296 562T327 524T364 477T398 428Q432 370 423 346Q419
336 410 318Q414 290 407 252Q400 233 394 224T374 204Q346 189 297 177T211 151T135 122Q36 84 -4 81Q-6 92 -11 109T-12 137T-2 156T11 180T51 216T116 254T183 283T230 302L259 314ZM604 307L582 329Q556 355 529 378T476 431Q454 466 473 502Q480 527 503 552Q509
556 515 560Q551 587 576 575T619 540Q623 535 635 522T663 489T694 449T724 406Q753 357 746 335Q744 331 740 323T734 311Q738 288 732 254Q726 237 720 230T703 212Q680 199 638 189T567 164T515 137T472 119T442 127Q441 133 429 141T412 154T410 166Q417 177
424 194Q453 240 544 282Q565 291 579 297L604 307Z" />
<glyph unicode="&#xbf;" glyph-name="questiondown" horiz-adv-x="570" d="M-3 130Q-15 232 146 347Q188 377 225 402T288 447T318 483Q320 507 341 523T388 545T440 550T478 536Q506 476 446 392Q419 355 383 318T313 245T251 177Q220 139 213 107H216Q223 113
229 121T257 141T294 159T325 172T343 181T350 185T360 189L376 195Q463 216 500 171Q513 155 524 127Q535 87 502 33Q474 -14 432 -38T327 -79T201 -96T87 -77T9 -16Q-1 3 3 25T10 59T14 82T6 104T-3 130ZM379 687Q400 729 434 748T499 768T552 751T569 698Q567
649 520 631Q460 607 407 631Q358 653 379 687Z" />
<glyph unicode="&#xc0;" glyph-name="Agrave" horiz-adv-x="564" d="M553 678Q587 660 596 625Q576 513 560 403T529 218T509 106T496 32L490 11Q488 0 486 -9T482 -30Q454 -62 406 -62Q355 -62 325 -36Q307 -22 319 23Q324 41 325 69T329 117V119Q299 108 275
91T245 69T229 62T211 58Q192 57 185 52Q127 -52 81 -64Q52 -73 23 -69T-23 -34Q-55 -4 -7 130Q19 201 67 300T161 474Q258 633 374 742Q393 750 415 760T458 772T503 767T542 749Q579 721 553 678ZM339 415Q318 355 297 305T261 216L340 219Q348 283 358 346T377
472L339 415ZM312 215Q326 215 340 217V218Q327 217 316 216T312 215ZM392 960Q383 1009 426 1033Q464 1053 511 1046Q540 1045 566 1031T603 991Q595 965 596 937Q598 877 597 859T585 832T560 821Q530 817 505 831Q500 841 496 845Q492 846 490 851Q486 862 464
884L428 920Q413 927 409 933Q401 942 392 954L391 959L392 960Z" />
<glyph unicode="&#xc1;" glyph-name="Aacute" horiz-adv-x="564" d="M553 678Q587 660 596 625Q576 513 560 403T529 218T509 106T496 32L490 11Q488 0 486 -9T482 -30Q454 -62 406 -62Q355 -62 325 -36Q307 -22 319 23Q324 41 325 69T329 117V119Q299 108 275
91T245 69T229 62T211 58Q192 57 185 52Q127 -52 81 -64Q52 -73 23 -69T-23 -34Q-55 -4 -7 130Q19 201 67 300T161 474Q258 633 374 742Q393 750 415 760T458 772T503 767T542 749Q579 721 553 678ZM339 415Q318 355 297 305T261 216L340 219Q348 283 358 346T377
472L339 415ZM312 215Q326 215 340 217V218Q327 217 316 216T312 215ZM566 1073Q625 1069 653 1043Q685 1015 649 985Q646 974 637 961Q575 899 533 877Q476 848 443 861Q409 874 430 920L436 927Q439 965 485 1028Q496 1043 504 1049Q531 1065 563 1073H566Z"
/>
<glyph unicode="&#xc2;" glyph-name="Acircumflex" horiz-adv-x="564" d="M553 678Q587 660 596 625Q576 513 560 403T529 218T509 106T496 32L490 11Q488 0 486 -9T482 -30Q454 -62 406 -62Q355 -62 325 -36Q307 -22 319 23Q324 41 325 69T329 117V119Q299 108
275 91T245 69T229 62T211 58Q192 57 185 52Q127 -52 81 -64Q52 -73 23 -69T-23 -34Q-55 -4 -7 130Q19 201 67 300T161 474Q258 633 374 742Q393 750 415 760T458 772T503 767T542 749Q579 721 553 678ZM339 415Q318 355 297 305T261 216L340 219Q348 283 358 346T377
472L339 415ZM312 215Q326 215 340 217V218Q327 217 316 216T312 215ZM580 810Q580 822 585 839Q583 859 575 874T558 904Q511 846 487 822Q447 790 405 779Q359 761 337 778Q326 785 326 800T341 840Q429 945 469 985T531 1045T571 1082T610 1108Q663 1131 683
1107Q689 1085 663 1059V1044Q674 996 674 936Q678 921 682 903T685 866Q680 823 634 803Q615 796 601 796T580 810Z" />
<glyph unicode="&#xc3;" glyph-name="Atilde" horiz-adv-x="564" d="M553 678Q587 660 596 625Q576 513 560 403T529 218T509 106T496 32L490 11Q488 0 486 -9T482 -30Q454 -62 406 -62Q355 -62 325 -36Q307 -22 319 23Q324 41 325 69T329 117V119Q299 108 275
91T245 69T229 62T211 58Q192 57 185 52Q127 -52 81 -64Q52 -73 23 -69T-23 -34Q-55 -4 -7 130Q19 201 67 300T161 474Q258 633 374 742Q393 750 415 760T458 772T503 767T542 749Q579 721 553 678ZM339 415Q318 355 297 305T261 216L340 219Q348 283 358 346T377
472L339 415ZM312 215Q326 215 340 217V218Q327 217 316 216T312 215ZM338 869Q347 889 369 913T417 948L440 965Q495 999 523 987Q537 982 545 974T556 946Q553 942 557 935T565 917T577 896Q598 899 619 908Q627 915 635 922T652 935T673 945T692 948Q711 944
704 912Q695 886 659 859Q616 818 599 812Q574 802 538 810Q530 811 522 818T503 834Q479 852 460 846Q448 837 435 827T410 807Q383 786 368 793Q359 797 351 805Q317 822 338 869ZM391 931Q388 928 391 930T402 937L391 931Z" />
<glyph unicode="&#xc4;" glyph-name="Adieresis" horiz-adv-x="564" d="M553 678Q587 660 596 625Q576 513 560 403T529 218T509 106T496 32L490 11Q488 0 486 -9T482 -30Q454 -62 406 -62Q355 -62 325 -36Q307 -22 319 23Q324 41 325 69T329 117V119Q299 108
275 91T245 69T229 62T211 58Q192 57 185 52Q127 -52 81 -64Q52 -73 23 -69T-23 -34Q-55 -4 -7 130Q19 201 67 300T161 474Q258 633 374 742Q393 750 415 760T458 772T503 767T542 749Q579 721 553 678ZM339 415Q318 355 297 305T261 216L340 219Q348 283 358 346T377
472L339 415ZM312 215Q326 215 340 217V218Q327 217 316 216T312 215ZM475 838T455 823T413 801T383 794T353 798H352L350 800Q314 816 308 840T314 887T351 928T393 949T417 953T429 953T441 951T457 947L460 944Q509 907 485 859Q475 838 455 823ZM698 854T678
836T637 810T610 802T576 807H575Q574 807 572 809Q536 828 530 856T536 912T573 960T615 985T639 989T652 989Q659 989 680 982Q730 932 708 878Q698 854 678 836Z" />
<glyph unicode="&#xc5;" glyph-name="Aring" horiz-adv-x="564" d="M553 678Q587 660 596 625Q576 513 560 403T529 218T509 106T496 32L490 11Q488 0 486 -9T482 -30Q454 -62 406 -62Q355 -62 325 -36Q307 -22 319 23Q324 41 325 69T329 117V119Q299 108 275
91T245 69T229 62T211 58Q192 57 185 52Q127 -52 81 -64Q52 -73 23 -69T-23 -34Q-55 -4 -7 130Q19 201 67 300T161 474Q258 633 374 742Q393 750 415 760T458 772T503 767T542 749Q579 721 553 678ZM339 415Q318 355 297 305T261 216L340 219Q348 283 358 346T377
472L339 415ZM312 215Q326 215 340 217V218Q327 217 316 216T312 215ZM427 994Q459 1007 490 1012Q519 1010 551 1010T619 993T680 945T710 877Q719 799 644 734Q611 707 546 693Q495 682 446 685T375 691T345 700T327 710T310 720Q250 757 255 831Q259 894 301
940Q316 957 328 961T369 977T427 994ZM527 842Q510 838 478 835Q471 837 460 837T439 838Q416 811 425 788Q428 780 439 774T467 770T500 782Q534 803 528 837Q527 838 527 842Z" />
<glyph unicode="&#xc6;" glyph-name="AE" horiz-adv-x="845" d="M553 678Q587 660 596 625Q576 513 560 403T529 218T509 106T496 32L490 11Q488 0 486 -9T482 -30Q454 -62 406 -62Q355 -62 325 -36Q307 -22 319 23Q324 41 325 69T329 117V119Q299 108 275 91T245
69T229 62T211 58Q192 57 185 52Q127 -52 81 -64Q52 -73 23 -69T-23 -34Q-55 -4 -7 130Q19 201 67 300T161 474Q258 633 374 742Q393 750 415 760T458 772T503 767T542 749Q579 721 553 678ZM339 415Q318 355 297 305T261 216L340 219Q348 283 358 346T377 472L339
415ZM312 215Q326 215 340 217V218Q327 217 316 216T312 215ZM560 141Q618 135 646 135T733 143Q751 137 754 128T756 110T757 91T776 76Q785 73 782 59T765 27Q732 -16 687 -33Q615 -51 574 -54Q506 -59 426 -49Q338 -33 341 24Q341 234 433 446Q463 515 501 591Q509
607 510 627T513 666T519 700T540 721Q748 804 869 785Q911 784 924 757T928 695T887 631T810 594Q751 577 738 571Q713 559 702 539Q688 517 676 497T659 454L655 432Q674 423 701 426T752 433T790 434T797 405T766 345T702 297Q676 292 667 290T652 286Q645 285
612 283Q565 203 555 159Q551 141 560 141Z" />
<glyph unicode="&#xc7;" glyph-name="Ccedilla" horiz-adv-x="573" d="M449 498Q449 528 428 528Q420 528 409 524T388 517Q351 497 331 474T289 421T253 359T230 297Q201 190 252 153Q273 138 296 138T334 148T363 165T395 176T441 172T471 149T471 120T470 93T492
78Q511 54 468 20Q457 11 447 3Q361 -52 264 -58Q203 -62 134 -36Q31 3 18 139Q1 265 50 400Q91 514 174 611Q249 700 322 727Q409 772 510 762Q617 748 650 671Q683 594 639 486Q624 448 582 426Q546 406 504 406T450 432T449 498ZM156 33Q166 35 173 34H174Q250
38 278 53T282 82Q258 82 230 83T179 93Q127 115 152 178Q164 199 175 212Q183 225 200 243Q226 264 251 259Q277 253 264 214L259 208Q261 209 256 198T245 176Q260 174 277 168T310 159Q330 152 347 146T377 131Q402 111 404 67Q409 27 370 -15Q350 -36 290 -74Q226
-110 121 -109Q92 -108 71 -102Q49 -100 32 -81T16 -20Q27 19 34 28Q48 47 79 56Q107 65 118 60T136 48T156 33Z" />
<glyph unicode="&#xc8;" glyph-name="Egrave" horiz-adv-x="524" d="M226 126Q284 120 312 120T399 128Q417 122 420 113T422 95T423 76T442 61Q451 58 448 44T431 12Q398 -31 353 -48Q281 -66 240 -69Q172 -74 92 -64Q4 -48 7 9Q7 219 99 431Q129 500 167 576Q175
592 176 612T179 651T185 685T206 706Q414 789 535 770Q577 769 590 742T594 680T553 616T476 579Q417 562 404 556Q379 544 368 524Q354 502 342 482T325 439L321 417Q340 408 367 411T418 418T456 419T463 390T432 330T368 282Q342 277 333 275T318 271Q311 270
278 268Q231 188 221 144Q217 126 226 126ZM311 963Q302 1012 345 1036Q383 1056 430 1049Q459 1048 485 1034T522 994Q514 968 515 940Q517 880 516 862T504 835T479 824Q449 820 424 834Q419 844 415 848Q411 849 409 854Q405 865 383 887L347 923Q332 930 328
936Q320 945 311 957L310 962L311 963Z" />
<glyph unicode="&#xc9;" glyph-name="Eacute" horiz-adv-x="524" d="M226 126Q284 120 312 120T399 128Q417 122 420 113T422 95T423 76T442 61Q451 58 448 44T431 12Q398 -31 353 -48Q281 -66 240 -69Q172 -74 92 -64Q4 -48 7 9Q7 219 99 431Q129 500 167 576Q175
592 176 612T179 651T185 685T206 706Q414 789 535 770Q577 769 590 742T594 680T553 616T476 579Q417 562 404 556Q379 544 368 524Q354 502 342 482T325 439L321 417Q340 408 367 411T418 418T456 419T463 390T432 330T368 282Q342 277 333 275T318 271Q311 270
278 268Q231 188 221 144Q217 126 226 126ZM485 1058Q544 1054 572 1028Q604 1000 568 970Q565 959 556 946Q494 884 452 862Q395 833 362 846Q328 859 349 905L355 912Q358 950 404 1013Q415 1028 423 1034Q450 1050 482 1058H485Z" />
<glyph unicode="&#xca;" glyph-name="Ecircumflex" horiz-adv-x="524" d="M226 126Q284 120 312 120T399 128Q417 122 420 113T422 95T423 76T442 61Q451 58 448 44T431 12Q398 -31 353 -48Q281 -66 240 -69Q172 -74 92 -64Q4 -48 7 9Q7 219 99 431Q129 500 167
576Q175 592 176 612T179 651T185 685T206 706Q414 789 535 770Q577 769 590 742T594 680T553 616T476 579Q417 562 404 556Q379 544 368 524Q354 502 342 482T325 439L321 417Q340 408 367 411T418 418T456 419T463 390T432 330T368 282Q342 277 333 275T318 271Q311
270 278 268Q231 188 221 144Q217 126 226 126ZM523 821Q523 833 528 850Q526 870 518 885T501 915Q454 857 430 833Q390 801 348 790Q302 772 280 789Q269 796 269 811T284 851Q372 956 412 996T474 1056T514 1093T553 1119Q606 1142 626 1118Q632 1096 606 1070V1055Q617
1007 617 947Q621 932 625 914T628 877Q623 834 577 814Q558 807 544 807T523 821Z" />
<glyph unicode="&#xcb;" glyph-name="Edieresis" horiz-adv-x="524" d="M226 126Q284 120 312 120T399 128Q417 122 420 113T422 95T423 76T442 61Q451 58 448 44T431 12Q398 -31 353 -48Q281 -66 240 -69Q172 -74 92 -64Q4 -48 7 9Q7 219 99 431Q129 500 167
576Q175 592 176 612T179 651T185 685T206 706Q414 789 535 770Q577 769 590 742T594 680T553 616T476 579Q417 562 404 556Q379 544 368 524Q354 502 342 482T325 439L321 417Q340 408 367 411T418 418T456 419T463 390T432 330T368 282Q342 277 333 275T318 271Q311
270 278 268Q231 188 221 144Q217 126 226 126ZM425 834T405 819T363 797T333 790T303 794H302L300 796Q264 812 258 836T264 883T301 924T343 945T367 949T379 949T391 947T407 943L410 940Q459 903 435 855Q425 834 405 819ZM648 850T628 832T587 806T560 798T526
803H525Q524 803 522 805Q486 824 480 852T486 908T523 956T565 981T589 985T602 985Q609 985 630 978Q680 928 658 874Q648 850 628 832Z" />
<glyph unicode="&#xcc;" glyph-name="Igrave" horiz-adv-x="339" d="M422 676Q387 567 358 479T304 317T258 181T219 61Q209 -5 154 -32Q122 -47 78 -47T12 -38T-16 -10T-17 33T6 103T46 224T98 378Q165 573 204 648Q219 676 234 685T263 699T289 710T310 740T345
773T393 775T427 743T422 676ZM279 974Q270 1023 313 1047Q351 1067 398 1060Q427 1059 453 1045T490 1005Q482 979 483 951Q485 891 484 873T472 846T447 835Q417 831 392 845Q387 855 383 859Q379 860 377 865Q373 876 351 898L315 934Q300 941 296 947Q288 956
279 968L278 973L279 974Z" />
<glyph unicode="&#xcd;" glyph-name="Iacute" horiz-adv-x="339" d="M422 676Q387 567 358 479T304 317T258 181T219 61Q209 -5 154 -32Q122 -47 78 -47T12 -38T-16 -10T-17 33T6 103T46 224T98 378Q165 573 204 648Q219 676 234 685T263 699T289 710T310 740T345
773T393 775T427 743T422 676ZM460 1067Q519 1063 547 1037Q579 1009 543 979Q540 968 531 955Q469 893 427 871Q370 842 337 855Q303 868 324 914L330 921Q333 959 379 1022Q390 1037 398 1043Q425 1059 457 1067H460Z" />
<glyph unicode="&#xce;" glyph-name="Icircumflex" horiz-adv-x="339" d="M422 676Q387 567 358 479T304 317T258 181T219 61Q209 -5 154 -32Q122 -47 78 -47T12 -38T-16 -10T-17 33T6 103T46 224T98 378Q165 573 204 648Q219 676 234 685T263 699T289 710T310
740T345 773T393 775T427 743T422 676ZM438 794Q438 806 443 823Q441 843 433 858T416 888Q369 830 345 806Q305 774 263 763Q217 745 195 762Q184 769 184 784T199 824Q287 929 327 969T389 1029T429 1066T468 1092Q521 1115 541 1091Q547 1069 521 1043V1028Q532
980 532 920Q536 905 540 887T543 850Q538 807 492 787Q473 780 459 780T438 794Z" />
<glyph unicode="&#xcf;" glyph-name="Idieresis" horiz-adv-x="339" d="M422 676Q387 567 358 479T304 317T258 181T219 61Q209 -5 154 -32Q122 -47 78 -47T12 -38T-16 -10T-17 33T6 103T46 224T98 378Q165 573 204 648Q219 676 234 685T263 699T289 710T310 740T345
773T393 775T427 743T422 676ZM353 835T333 820T291 798T261 791T231 795H230L228 797Q192 813 186 837T192 884T229 925T271 946T295 950T307 950T319 948T335 944L338 941Q387 904 363 856Q353 835 333 820ZM576 851T556 833T515 807T488 799T454 804H453Q452
804 450 806Q414 825 408 853T414 909T451 957T493 982T517 986T530 986Q537 986 558 979Q608 929 586 875Q576 851 556 833Z" />
<glyph unicode="&#xd0;" glyph-name="Eth" horiz-adv-x="667" d="M680 406Q675 363 664 318T631 230T580 147T514 73T438 16Q349 -36 267 -21Q249 -60 214 -70T144 -71T83 -31T57 48T64 152T82 254Q102 335 130 406Q196 567 206 632Q218 719 254 740Q311 774 363
769T458 744Q526 711 606 633Q694 548 680 406ZM286 106Q337 132 368 159T428 210Q471 253 491 312Q535 442 435 509Q420 520 390 539Q376 507 370 472T352 404L325 316L303 221Q301 201 297 183T290 144L286 106ZM163 234L-8 237Q-10 236 -12 236T-17 235L-18
237Q-50 237 -73 246T-104 271T-101 303T-51 334L-33 336Q-26 362 7 385T106 416L164 418H209Q233 418 257 417Q310 430 366 414Q434 393 430 342Q428 316 396 285Q379 279 363 271T319 252Q264 234 163 234Z" />
<glyph unicode="&#xd1;" glyph-name="Ntilde" horiz-adv-x="630" d="M68 388Q88 455 100 491T125 557T152 613T186 662T226 698T270 711T318 693Q358 593 367 559Q379 509 389 418Q398 441 409 466T432 518Q463 584 471 618Q493 688 562 723Q622 753 674 742Q695
738 703 725T704 698T697 672T702 642Q705 596 686 561T647 473T607 361T565 241T524 130Q480 15 452 3Q414 -20 396 -24Q373 -28 331 -24Q305 -22 286 43Q275 78 266 140Q250 248 244 259Q204 129 188 95T163 50T142 21Q129 -15 80 -32Q38 -48 4 -37Q-33 -25 -18
9Q-7 129 68 388ZM298 836Q307 856 329 880T377 915L400 932Q455 966 483 954Q497 949 505 941T516 913Q513 909 517 902T525 884T537 863Q558 866 579 875Q587 882 595 889T612 902T633 912T652 915Q671 911 664 879Q655 853 619 826Q576 785 559 779Q534 769
498 777Q490 778 482 785T463 801Q439 819 420 813Q408 804 395 794T370 774Q343 753 328 760Q319 764 311 772Q277 789 298 836ZM351 898Q348 895 351 897T362 904L351 898Z" />
<glyph unicode="&#xd2;" glyph-name="Ograve" horiz-adv-x="639" d="M203 662Q266 734 343 752Q396 765 443 748Q480 787 539 776Q593 766 631 715Q633 708 639 694T652 663Q696 561 659 395Q613 189 496 46Q460 2 415 -27Q343 -82 243 -76Q181 -73 139 -45Q-28
38 30 301Q78 517 203 662ZM215 131L214 125L216 114Q222 83 236 67T259 46Q269 54 279 61T297 78Q365 162 403 298T431 550Q392 500 349 435T281 324Q224 217 215 131ZM429 960Q420 1009 463 1033Q501 1053 548 1046Q577 1045 603 1031T640 991Q632 965 633 937Q635
877 634 859T622 832T597 821Q567 817 542 831Q537 841 533 845Q529 846 527 851Q523 862 501 884L465 920Q450 927 446 933Q438 942 429 954L428 959L429 960Z" />
<glyph unicode="&#xd3;" glyph-name="Oacute" horiz-adv-x="639" d="M203 662Q266 734 343 752Q396 765 443 748Q480 787 539 776Q593 766 631 715Q633 708 639 694T652 663Q696 561 659 395Q613 189 496 46Q460 2 415 -27Q343 -82 243 -76Q181 -73 139 -45Q-28
38 30 301Q78 517 203 662ZM215 131L214 125L216 114Q222 83 236 67T259 46Q269 54 279 61T297 78Q365 162 403 298T431 550Q392 500 349 435T281 324Q224 217 215 131ZM620 1066Q679 1062 707 1036Q739 1008 703 978Q700 967 691 954Q629 892 587 870Q530 841
497 854Q463 867 484 913L490 920Q493 958 539 1021Q550 1036 558 1042Q585 1058 617 1066H620Z" />
<glyph unicode="&#xd4;" glyph-name="Ocircumflex" horiz-adv-x="639" d="M203 662Q266 734 343 752Q396 765 443 748Q480 787 539 776Q593 766 631 715Q633 708 639 694T652 663Q696 561 659 395Q613 189 496 46Q460 2 415 -27Q343 -82 243 -76Q181 -73 139 -45Q-28
38 30 301Q78 517 203 662ZM215 131L214 125L216 114Q222 83 236 67T259 46Q269 54 279 61T297 78Q365 162 403 298T431 550Q392 500 349 435T281 324Q224 217 215 131ZM578 812Q578 824 583 841Q581 861 573 876T556 906Q509 848 485 824Q445 792 403 781Q357
763 335 780Q324 787 324 802T339 842Q427 947 467 987T529 1047T569 1084T608 1110Q661 1133 681 1109Q687 1087 661 1061V1046Q672 998 672 938Q676 923 680 905T683 868Q678 825 632 805Q613 798 599 798T578 812Z" />
<glyph unicode="&#xd5;" glyph-name="Otilde" horiz-adv-x="639" d="M203 662Q266 734 343 752Q396 765 443 748Q480 787 539 776Q593 766 631 715Q633 708 639 694T652 663Q696 561 659 395Q613 189 496 46Q460 2 415 -27Q343 -82 243 -76Q181 -73 139 -45Q-28
38 30 301Q78 517 203 662ZM215 131L214 125L216 114Q222 83 236 67T259 46Q269 54 279 61T297 78Q365 162 403 298T431 550Q392 500 349 435T281 324Q224 217 215 131ZM342 875Q351 895 373 919T421 954L444 971Q499 1005 527 993Q541 988 549 980T560 952Q557
948 561 941T569 923T581 902Q602 905 623 914Q631 921 639 928T656 941T677 951T696 954Q715 950 708 918Q699 892 663 865Q620 824 603 818Q578 808 542 816Q534 817 526 824T507 840Q483 858 464 852Q452 843 439 833T414 813Q387 792 372 799Q363 803 355 811Q321
828 342 875ZM395 937Q392 934 395 936T406 943L395 937Z" />
<glyph unicode="&#xd6;" glyph-name="Odieresis" horiz-adv-x="639" d="M203 662Q266 734 343 752Q396 765 443 748Q480 787 539 776Q593 766 631 715Q633 708 639 694T652 663Q696 561 659 395Q613 189 496 46Q460 2 415 -27Q343 -82 243 -76Q181 -73 139 -45Q-28
38 30 301Q78 517 203 662ZM215 131L214 125L216 114Q222 83 236 67T259 46Q269 54 279 61T297 78Q365 162 403 298T431 550Q392 500 349 435T281 324Q224 217 215 131ZM491 850T471 835T429 813T399 806T369 810H368L366 812Q330 828 324 852T330 899T367 940T409
961T433 965T445 965T457 963T473 959L476 956Q525 919 501 871Q491 850 471 835ZM714 866T694 848T653 822T626 814T592 819H591Q590 819 588 821Q552 840 546 868T552 924T589 972T631 997T655 1001T668 1001Q675 1001 696 994Q746 944 724 890Q714 866 694 848Z"
/>
<glyph unicode="&#xd7;" glyph-name="multiply" horiz-adv-x="627" d="M640 620Q672 593 672 572Q672 563 664 556Q649 529 603 489Q530 426 482 396Q495 365 503 303T515 229T520 211T528 199Q534 184 515 176T468 162Q406 152 368 160Q349 171 339 185Q325 206
299 260Q276 244 247 219L229 203Q221 196 215 189T199 175Q177 158 145 146Q111 137 81 138Q27 141 21 158Q-8 164 -13 178T-7 223Q109 364 196 415Q185 427 178 452L166 489Q162 502 153 512Q121 518 107 534T114 580L130 592Q180 621 232 627T330 610Q347 607
370 590Q408 562 415 545Q424 553 451 569T489 590T513 604T539 620T566 630T594 629T637 621H638Q639 621 639 621T640 620Z" />
<glyph unicode="&#xd8;" glyph-name="Oslash" horiz-adv-x="639" d="M203 662Q266 734 343 752Q396 765 443 748Q480 787 539 776Q593 766 631 715Q633 708 639 694T652 663Q696 561 659 395Q613 189 496 46Q460 2 415 -27Q343 -82 243 -76Q181 -73 139 -45Q-28
38 30 301Q78 517 203 662ZM215 131L214 125L216 114Q222 83 236 67T259 46Q269 54 279 61T297 78Q365 162 403 298T431 550Q392 500 349 435T281 324Q224 217 215 131ZM432 707T450 744T481 801T497 825T503 835Q501 858 525 879T607 912H614Q668 910 689 900Q728
882 743 838Q746 819 735 802T711 771Q723 739 694 705Q652 665 619 620T542 513T445 367T339 198Q205 -16 119 -122Q102 -143 70 -129Q37 -115 25 -80Q9 -39 37 5Q105 160 215 342Q264 422 313 502T397 645Z" />
<glyph unicode="&#xd9;" glyph-name="Ugrave" horiz-adv-x="639" d="M343 724V722Q343 721 343 721T344 720V718H345L351 702Q361 673 299 522Q233 361 238 271Q249 207 345 374Q421 504 492 659Q501 680 511 702T536 740Q569 776 616 759Q632 778 653 785T694
788T728 770T743 731Q746 711 723 636T679 499T638 364Q587 191 557 38Q556 6 530 -15T471 -42T409 -40Q374 -30 372 10Q372 21 371 32Q373 -2 322 -26Q308 -33 296 -39Q226 -60 149 -30Q113 -15 85 10T45 71Q10 183 58 365Q78 443 107 517T149 624T169 669T182
694Q199 728 211 740L223 751Q225 753 227 753T232 756Q240 761 249 763L263 766H269Q298 770 319 754Q319 753 321 753L329 746L332 743L335 739Q335 738 335 738T336 737L337 736V734Q338 734 338 733V732Q339 731 340 731V730Q340 729 340 729T341 729T342 727V726Q342
725 343 724ZM370 58V61Q369 60 369 53Q369 56 370 57V58ZM369 941Q360 990 403 1014Q441 1034 488 1027Q517 1026 543 1012T580 972Q572 946 573 918Q575 858 574 840T562 813T537 802Q507 798 482 812Q477 822 473 826Q469 827 467 832Q463 843 441 865L405 901Q390
908 386 914Q378 923 369 935L368 940L369 941Z" />
<glyph unicode="&#xda;" glyph-name="Uacute" horiz-adv-x="639" d="M343 724V722Q343 721 343 721T344 720V718H345L351 702Q361 673 299 522Q233 361 238 271Q249 207 345 374Q421 504 492 659Q501 680 511 702T536 740Q569 776 616 759Q632 778 653 785T694
788T728 770T743 731Q746 711 723 636T679 499T638 364Q587 191 557 38Q556 6 530 -15T471 -42T409 -40Q374 -30 372 10Q372 21 371 32Q373 -2 322 -26Q308 -33 296 -39Q226 -60 149 -30Q113 -15 85 10T45 71Q10 183 58 365Q78 443 107 517T149 624T169 669T182
694Q199 728 211 740L223 751Q225 753 227 753T232 756Q240 761 249 763L263 766H269Q298 770 319 754Q319 753 321 753L329 746L332 743L335 739Q335 738 335 738T336 737L337 736V734Q338 734 338 733V732Q339 731 340 731V730Q340 729 340 729T341 729T342 727V726Q342
725 343 724ZM370 58V61Q369 60 369 53Q369 56 370 57V58ZM537 1012Q596 1008 624 982Q656 954 620 924Q617 913 608 900Q546 838 504 816Q447 787 414 800Q380 813 401 859L407 866Q410 904 456 967Q467 982 475 988Q502 1004 534 1012H537Z" />
<glyph unicode="&#xdb;" glyph-name="Ucircumflex" horiz-adv-x="639" d="M343 724V722Q343 721 343 721T344 720V718H345L351 702Q361 673 299 522Q233 361 238 271Q249 207 345 374Q421 504 492 659Q501 680 511 702T536 740Q569 776 616 759Q632 778 653 785T694
788T728 770T743 731Q746 711 723 636T679 499T638 364Q587 191 557 38Q556 6 530 -15T471 -42T409 -40Q374 -30 372 10Q372 21 371 32Q373 -2 322 -26Q308 -33 296 -39Q226 -60 149 -30Q113 -15 85 10T45 71Q10 183 58 365Q78 443 107 517T149 624T169 669T182
694Q199 728 211 740L223 751Q225 753 227 753T232 756Q240 761 249 763L263 766H269Q298 770 319 754Q319 753 321 753L329 746L332 743L335 739Q335 738 335 738T336 737L337 736V734Q338 734 338 733V732Q339 731 340 731V730Q340 729 340 729T341 729T342 727V726Q342
725 343 724ZM370 58V61Q369 60 369 53Q369 56 370 57V58ZM591 821Q591 833 596 850Q594 870 586 885T569 915Q522 857 498 833Q458 801 416 790Q370 772 348 789Q337 796 337 811T352 851Q440 956 480 996T542 1056T582 1093T621 1119Q674 1142 694 1118Q700 1096
674 1070V1055Q685 1007 685 947Q689 932 693 914T696 877Q691 834 645 814Q626 807 612 807T591 821Z" />
<glyph unicode="&#xdc;" glyph-name="Udieresis" horiz-adv-x="639" d="M343 724V722Q343 721 343 721T344 720V718H345L351 702Q361 673 299 522Q233 361 238 271Q249 207 345 374Q421 504 492 659Q501 680 511 702T536 740Q569 776 616 759Q632 778 653 785T694
788T728 770T743 731Q746 711 723 636T679 499T638 364Q587 191 557 38Q556 6 530 -15T471 -42T409 -40Q374 -30 372 10Q372 21 371 32Q373 -2 322 -26Q308 -33 296 -39Q226 -60 149 -30Q113 -15 85 10T45 71Q10 183 58 365Q78 443 107 517T149 624T169 669T182
694Q199 728 211 740L223 751Q225 753 227 753T232 756Q240 761 249 763L263 766H269Q298 770 319 754Q319 753 321 753L329 746L332 743L335 739Q335 738 335 738T336 737L337 736V734Q338 734 338 733V732Q339 731 340 731V730Q340 729 340 729T341 729T342 727V726Q342
725 343 724ZM370 58V61Q369 60 369 53Q369 56 370 57V58ZM479 859T459 844T417 822T387 815T357 819H356L354 821Q318 837 312 861T318 908T355 949T397 970T421 974T433 974T445 972T461 968L464 965Q513 928 489 880Q479 859 459 844ZM702 875T682 857T641 831T614
823T580 828H579Q578 828 576 830Q540 849 534 877T540 933T577 981T619 1006T643 1010T656 1010Q663 1010 684 1003Q734 953 712 899Q702 875 682 857Z" />
<glyph unicode="&#xdd;" glyph-name="Yacute" horiz-adv-x="491" d="M120 379Q103 524 106 615Q104 658 141 697Q176 734 214 738Q256 741 268 691Q276 663 288 626T311 548Q322 563 346 601T391 669Q442 742 481 771Q519 786 546 780T586 759T596 718Q594 655
500 520Q478 489 456 448T404 357T347 256Q285 143 250 41Q251 43 258 37T271 18Q287 -12 268 -32Q220 -82 149 -88Q84 -93 37 -64Q-10 -37 6 3H3Q25 60 53 110T111 215L156 295Q139 291 128 319Q120 342 120 379ZM423 1012Q482 1008 510 982Q542 954 506 924Q503
913 494 900Q432 838 390 816Q333 787 300 800Q266 813 287 859L293 866Q296 904 342 967Q353 982 361 988Q388 1004 420 1012H423Z" />
<glyph unicode="&#xde;" glyph-name="Thorn" horiz-adv-x="833" />
<glyph unicode="&#xdf;" glyph-name="germandbls" horiz-adv-x="712" d="M441 472L445 473Q487 498 504 522Q533 563 540 640Q541 652 538 661Q523 668 506 669T468 654T426 612Q386 562 354 499L346 482Q342 465 339 449T334 423T328 403Q326 379 310 314T289
225T276 162T258 83Q236 -9 211 -66Q177 -108 123 -116Q69 -123 32 -94Q-9 -61 -3 4Q30 63 52 137T86 256T116 361T160 500T212 656Q231 692 270 704Q305 715 340 696Q380 744 403 757T447 778Q492 793 518 787T561 778T594 770Q694 735 688 609Q686 538 658 478Q646
453 615 419L610 413Q695 331 672 184Q665 135 642 79T576 -26Q509 -101 431 -108Q404 -111 380 -109T335 -95T300 -64Q269 -19 280 50Q309 102 351 111Q365 114 383 116L395 117Q420 112 433 106Q472 153 486 213Q502 277 477 328L470 333L455 336Q428 345 410
362T387 399T394 438T441 472ZM366 563Q369 573 368 571T361 550L366 563ZM319 371L318 366L319 371ZM360 543Q359 542 359 540Q359 542 360 543Z" />
<glyph unicode="&#xe0;" glyph-name="agrave" horiz-adv-x="536" d="M458 429L462 428Q464 428 464 427Q490 437 507 412Q518 395 524 360Q526 312 514 227Q491 55 489 22Q491 -13 446 -26Q407 -38 368 -25Q327 -11 334 18Q326 3 318 -3T287 -21T220 -40T134 -45T56
-24T8 31Q-15 103 14 214Q34 287 86 343Q146 407 222 449Q279 480 332 486Q350 488 363 485T392 479T422 470Q458 455 458 429ZM273 164Q280 178 284 199T297 245Q216 212 173 164Q126 111 179 91Q225 79 246 106Q255 118 262 136T279 173Q276 168 273 164ZM272
664Q263 713 306 737Q344 757 391 750Q420 749 446 735T483 695Q475 669 476 641Q478 581 477 563T465 536T440 525Q410 521 385 535Q380 545 376 549Q372 550 370 555Q366 566 344 588L308 624Q293 631 289 637Q281 646 272 658L271 663L272 664Z" />
<glyph unicode="&#xe1;" glyph-name="aacute" horiz-adv-x="536" d="M458 429L462 428Q464 428 464 427Q490 437 507 412Q518 395 524 360Q526 312 514 227Q491 55 489 22Q491 -13 446 -26Q407 -38 368 -25Q327 -11 334 18Q326 3 318 -3T287 -21T220 -40T134 -45T56
-24T8 31Q-15 103 14 214Q34 287 86 343Q146 407 222 449Q279 480 332 486Q350 488 363 485T392 479T422 470Q458 455 458 429ZM273 164Q280 178 284 199T297 245Q216 212 173 164Q126 111 179 91Q225 79 246 106Q255 118 262 136T279 173Q276 168 273 164ZM457
753Q516 749 544 723Q576 695 540 665Q537 654 528 641Q466 579 424 557Q367 528 334 541Q300 554 321 600L327 607Q330 645 376 708Q387 723 395 729Q422 745 454 753H457Z" />
<glyph unicode="&#xe2;" glyph-name="acircumflex" horiz-adv-x="561" d="M458 429L462 428Q464 428 464 427Q490 437 507 412Q518 395 524 360Q526 312 514 227Q491 55 489 22Q491 -13 446 -26Q407 -38 368 -25Q327 -11 334 18Q326 3 318 -3T287 -21T220 -40T134
-45T56 -24T8 31Q-15 103 14 214Q34 287 86 343Q146 407 222 449Q279 480 332 486Q350 488 363 485T392 479T422 470Q458 455 458 429ZM273 164Q280 178 284 199T297 245Q216 212 173 164Q126 111 179 91Q225 79 246 106Q255 118 262 136T279 173Q276 168 273 164ZM452
546Q452 558 457 575Q455 595 447 610T430 640Q383 582 359 558Q319 526 277 515Q231 497 209 514Q198 521 198 536T213 576Q301 681 341 721T403 781T443 818T482 844Q535 867 555 843Q561 821 535 795V780Q546 732 546 672Q550 657 554 639T557 602Q552 559 506
539Q487 532 473 532T452 546Z" />
<glyph unicode="&#xe3;" glyph-name="atilde" horiz-adv-x="542" d="M458 429L462 428Q464 428 464 427Q490 437 507 412Q518 395 524 360Q526 312 514 227Q491 55 489 22Q491 -13 446 -26Q407 -38 368 -25Q327 -11 334 18Q326 3 318 -3T287 -21T220 -40T134 -45T56
-24T8 31Q-15 103 14 214Q34 287 86 343Q146 407 222 449Q279 480 332 486Q350 488 363 485T392 479T422 470Q458 455 458 429ZM273 164Q280 178 284 199T297 245Q216 212 173 164Q126 111 179 91Q225 79 246 106Q255 118 262 136T279 173Q276 168 273 164ZM219
652Q228 672 250 696T298 731L321 748Q376 782 404 770Q418 765 426 757T437 729Q434 725 438 718T446 700T458 679Q479 682 500 691Q508 698 516 705T533 718T554 728T573 731Q592 727 585 695Q576 669 540 642Q497 601 480 595Q455 585 419 593Q411 594 403 601T384
617Q360 635 341 629Q329 620 316 610T291 590Q264 569 249 576Q240 580 232 588Q198 605 219 652ZM272 714Q269 711 272 713T283 720L272 714Z" />
<glyph unicode="&#xe4;" glyph-name="adieresis" horiz-adv-x="536" d="M458 429L462 428Q464 428 464 427Q490 437 507 412Q518 395 524 360Q526 312 514 227Q491 55 489 22Q491 -13 446 -26Q407 -38 368 -25Q327 -11 334 18Q326 3 318 -3T287 -21T220 -40T134
-45T56 -24T8 31Q-15 103 14 214Q34 287 86 343Q146 407 222 449Q279 480 332 486Q350 488 363 485T392 479T422 470Q458 455 458 429ZM273 164Q280 178 284 199T297 245Q216 212 173 164Q126 111 179 91Q225 79 246 106Q255 118 262 136T279 173Q276 168 273 164ZM340
838T320 823T278 801T248 794T218 798H217L215 800Q179 816 173 840T179 887T216 928T258 949T282 953T294 953T306 951T322 947L325 944Q374 907 350 859Q340 838 320 823ZM563 854T543 836T502 810T475 802T441 807H440Q439 807 437 809Q401 828 395 856T401
912T438 960T480 985T504 989T517 989Q524 989 545 982Q595 932 573 878Q563 854 543 836Z" />
<glyph unicode="&#xe5;" glyph-name="aring" horiz-adv-x="518" d="M458 429L462 428Q464 428 464 427Q490 437 507 412Q518 395 524 360Q526 312 514 227Q491 55 489 22Q491 -13 446 -26Q407 -38 368 -25Q327 -11 334 18Q326 3 318 -3T287 -21T220 -40T134 -45T56
-24T8 31Q-15 103 14 214Q34 287 86 343Q146 407 222 449Q279 480 332 486Q350 488 363 485T392 479T422 470Q458 455 458 429ZM273 164Q280 178 284 199T297 245Q216 212 173 164Q126 111 179 91Q225 79 246 106Q255 118 262 136T279 173Q276 168 273 164ZM350
833Q382 846 413 851Q442 849 474 849T542 832T603 784T633 716Q642 638 567 573Q534 546 469 532Q418 521 369 524T298 530T268 539T250 549T233 559Q173 596 178 670Q182 733 224 779Q239 796 251 800T292 816T350 833ZM450 681Q433 677 401 674Q394 676 383
676T362 677Q339 650 348 627Q351 619 362 613T390 609T423 621Q457 642 451 676Q450 677 450 681Z" />
<glyph unicode="&#xe6;" glyph-name="ae" horiz-adv-x="806" d="M458 429L462 428Q464 428 464 427Q490 437 507 412Q518 395 524 360Q526 312 514 227Q491 55 489 22Q491 -13 446 -26Q407 -38 368 -25Q327 -11 334 18Q326 3 318 -3T287 -21T220 -40T134 -45T56
-24T8 31Q-15 103 14 214Q34 287 86 343Q146 407 222 449Q279 480 332 486Q350 488 363 485T392 479T422 470Q458 455 458 429ZM273 164Q280 178 284 199T297 245Q216 212 173 164Q126 111 179 91Q225 79 246 106Q255 118 262 136T279 173Q276 168 273 164ZM661
133Q642 124 624 119T582 109Q519 96 491 94Q494 84 521 70Q539 67 560 75T605 91T651 100T694 83Q702 65 707 62T716 59T725 56T739 33T735 -5T690 -36T620 -57T540 -68Q450 -75 403 -54Q335 -31 315 37Q289 127 344 247Q369 303 423 367Q470 423 528 448Q595
477 668 475Q746 473 776 407Q791 372 782 309Q766 227 740 193Q714 160 661 133ZM603 291Q550 302 520 231Q511 212 506 191Q540 187 578 229Q592 246 599 263T603 291Z" />
<glyph unicode="&#xe7;" glyph-name="ccedilla" horiz-adv-x="430" d="M410 491Q449 486 462 464T473 416T455 370T420 348Q413 327 398 319T365 308T328 302T291 284T263 257T244 230Q232 208 223 176Q221 154 244 135Q271 114 303 116T354 114T384 98Q406 75
380 45Q330 -35 212 -50Q177 -55 142 -53T74 -26T22 39Q-20 133 29 258Q76 375 170 438Q273 508 410 491ZM354 64Q363 65 369 65H370Q437 68 462 81T465 107Q444 107 419 107T375 116Q329 136 351 191Q361 210 371 221Q378 232 393 248Q416 267 438 262Q461 257
449 223L445 217Q447 218 442 209T433 189Q446 188 461 183T490 174Q507 168 522 163T548 150Q570 132 572 94Q576 58 542 21Q525 3 472 -30Q416 -62 324 -61Q298 -60 280 -55Q261 -53 246 -37T232 17Q241 51 247 59Q260 76 287 84Q311 92 321 87T337 77T354 64Z"
/>
<glyph unicode="&#xe8;" glyph-name="egrave" horiz-adv-x="458" d="M349 148Q330 139 312 134T270 124Q207 111 179 109Q182 99 209 85Q227 82 248 90T293 106T339 115T382 98Q390 80 395 77T404 74T413 71T427 48T423 10T378 -21T308 -42T228 -53Q138 -60 91
-39Q23 -16 3 52Q-23 142 32 262Q57 318 111 382Q158 438 216 463Q283 492 356 490Q434 488 464 422Q479 387 470 324Q454 242 428 208Q402 175 349 148ZM291 306Q238 317 208 246Q199 227 194 206Q228 202 266 244Q280 261 287 278T291 306ZM248 712Q239 761 282
785Q320 805 367 798Q396 797 422 783T459 743Q451 717 452 689Q454 629 453 611T441 584T416 573Q386 569 361 583Q356 593 352 597Q348 598 346 603Q342 614 320 636L284 672Q269 679 265 685Q257 694 248 706L247 711L248 712Z" />
<glyph unicode="&#xe9;" glyph-name="eacute" horiz-adv-x="458" d="M349 148Q330 139 312 134T270 124Q207 111 179 109Q182 99 209 85Q227 82 248 90T293 106T339 115T382 98Q390 80 395 77T404 74T413 71T427 48T423 10T378 -21T308 -42T228 -53Q138 -60 91
-39Q23 -16 3 52Q-23 142 32 262Q57 318 111 382Q158 438 216 463Q283 492 356 490Q434 488 464 422Q479 387 470 324Q454 242 428 208Q402 175 349 148ZM291 306Q238 317 208 246Q199 227 194 206Q228 202 266 244Q280 261 287 278T291 306ZM419 780Q478 776 506
750Q538 722 502 692Q499 681 490 668Q428 606 386 584Q329 555 296 568Q262 581 283 627L289 634Q292 672 338 735Q349 750 357 756Q384 772 416 780H419Z" />
<glyph unicode="&#xea;" glyph-name="ecircumflex" horiz-adv-x="458" d="M349 148Q330 139 312 134T270 124Q207 111 179 109Q182 99 209 85Q227 82 248 90T293 106T339 115T382 98Q390 80 395 77T404 74T413 71T427 48T423 10T378 -21T308 -42T228 -53Q138 -60
91 -39Q23 -16 3 52Q-23 142 32 262Q57 318 111 382Q158 438 216 463Q283 492 356 490Q434 488 464 422Q479 387 470 324Q454 242 428 208Q402 175 349 148ZM291 306Q238 317 208 246Q199 227 194 206Q228 202 266 244Q280 261 287 278T291 306ZM430 536Q430 548
435 565Q433 585 425 600T408 630Q361 572 337 548Q297 516 255 505Q209 487 187 504Q176 511 176 526T191 566Q279 671 319 711T381 771T421 808T460 834Q513 857 533 833Q539 811 513 785V770Q524 722 524 662Q528 647 532 629T535 592Q530 549 484 529Q465 522
451 522T430 536Z" />
<glyph unicode="&#xeb;" glyph-name="edieresis" horiz-adv-x="458" d="M349 148Q330 139 312 134T270 124Q207 111 179 109Q182 99 209 85Q227 82 248 90T293 106T339 115T382 98Q390 80 395 77T404 74T413 71T427 48T423 10T378 -21T308 -42T228 -53Q138 -60
91 -39Q23 -16 3 52Q-23 142 32 262Q57 318 111 382Q158 438 216 463Q283 492 356 490Q434 488 464 422Q479 387 470 324Q454 242 428 208Q402 175 349 148ZM291 306Q238 317 208 246Q199 227 194 206Q228 202 266 244Q280 261 287 278T291 306ZM328 837T308 822T266
800T236 793T206 797H205L203 799Q167 815 161 839T167 886T204 927T246 948T270 952T282 952T294 950T310 946L313 943Q362 906 338 858Q328 837 308 822ZM551 853T531 835T490 809T463 801T429 806H428Q427 806 425 808Q389 827 383 855T389 911T426 959T468
984T492 988T505 988Q512 988 533 981Q583 931 561 877Q551 853 531 835Z" />
<glyph unicode="&#xec;" glyph-name="igrave" horiz-adv-x="291" d="M142 433Q155 466 204 478Q250 490 290 475Q331 459 327 423Q316 388 300 339T268 238Q228 108 222 52Q222 -36 188 -42Q179 -43 170 -44Q146 -47 139 -64Q135 -92 86 -86Q37 -80 8 -46Q-25
-8 4 40Q30 162 82 303Q116 393 142 433ZM192 702Q183 751 226 775Q264 795 311 788Q340 787 366 773T403 733Q395 707 396 679Q398 619 397 601T385 574T360 563Q330 559 305 573Q300 583 296 587Q292 588 290 594Q286 604 264 626L228 662Q213 670 208 675Q201
684 192 696L191 701L192 702Z" />
<glyph unicode="&#xed;" glyph-name="iacute" horiz-adv-x="291" d="M142 433Q155 466 204 478Q250 490 290 475Q331 459 327 423Q316 388 300 339T268 238Q228 108 222 52Q222 -36 188 -42Q179 -43 170 -44Q146 -47 139 -64Q135 -92 86 -86Q37 -80 8 -46Q-25
-8 4 40Q30 162 82 303Q116 393 142 433ZM345 761Q404 757 432 731Q464 703 428 673Q425 662 416 649Q354 587 312 566Q255 536 222 548Q188 562 209 608L215 615Q218 653 264 716Q275 731 283 737Q310 753 342 761H345Z" />
<glyph unicode="&#xee;" glyph-name="icircumflex" horiz-adv-x="291" d="M142 433Q155 466 204 478Q250 490 290 475Q331 459 327 423Q316 388 300 339T268 238Q228 108 222 52Q222 -36 188 -42Q179 -43 170 -44Q146 -47 139 -64Q135 -92 86 -86Q37 -80 8 -46Q-25
-8 4 40Q30 162 82 303Q116 393 142 433ZM345 543Q345 554 350 572Q348 592 340 607T323 637Q276 579 252 555Q212 523 170 512Q124 494 102 510Q91 518 91 533T106 573Q194 678 234 718T296 778T336 815T375 841Q428 864 448 840Q454 818 428 792V777Q439 729
439 669Q443 654 447 636T450 600Q445 556 399 536Q380 529 366 529T345 543Z" />
<glyph unicode="&#xef;" glyph-name="idieresis" horiz-adv-x="291" d="M142 433Q155 466 204 478Q250 490 290 475Q331 459 327 423Q316 388 300 339T268 238Q228 108 222 52Q222 -36 188 -42Q179 -43 170 -44Q146 -47 139 -64Q135 -92 86 -86Q37 -80 8 -46Q-25
-8 4 40Q30 162 82 303Q116 393 142 433ZM263 607T243 592T201 570T171 563T141 567H140L138 569Q102 585 96 609T102 656T139 697T181 718T205 722T217 722T229 720T245 716L248 713Q297 676 273 628Q263 607 243 592ZM486 623T466 605T425 579T398 571T364 576H363Q362
576 360 578Q324 597 318 625T324 681T361 729T403 754T427 758T440 758Q447 758 468 751Q518 701 496 647Q486 623 466 605Z" />
<glyph unicode="&#xf0;" glyph-name="eth" horiz-adv-x="667" d="M306 558Q184 625 209 666Q218 680 254 689Q287 689 362 659Q379 652 395 648Q396 648 395 647T394 645Q421 664 446 682T498 709Q554 729 602 688Q651 659 644 618Q640 598 622 579T570 547Q568
545 564 547Q606 494 617 449Q648 348 654 230Q663 76 602 12Q539 -54 415 -98Q304 -138 207 -140Q198 -140 198 -140T201 -138T204 -135T195 -132Q135 -110 114 -71Q76 -53 39 -6Q-29 88 19 200Q40 250 80 291T160 351T218 378T256 393Q280 401 321 407Q390 419
416 420Q388 464 360 489Q327 472 293 458T232 444Q220 445 220 453T228 474Q243 495 279 533Q281 538 289 542Q293 546 297 549T306 558ZM169 18Q194 27 240 29Q261 26 266 27T281 32L308 39Q348 65 371 96Q457 197 448 314Q432 315 415 313T375 308T314 292T241
262T175 219T129 165Q95 98 162 24L169 18ZM260 450Q258 450 258 450Q259 450 260 450Z" />
<glyph unicode="&#xf1;" glyph-name="ntilde" horiz-adv-x="642" d="M167 433Q234 460 257 434Q269 420 269 395V390Q306 433 398 462Q495 492 558 479Q640 462 650 372Q658 296 615 179Q601 149 594 131T580 97Q567 69 539 30Q523 0 490 -16T424 -34T370 -25T358
15Q381 77 396 128T427 215Q442 266 431 279Q422 289 400 276Q381 264 373 248Q355 235 305 144Q291 119 278 95T253 49T233 14T218 -4T207 -10T199 -14T194 -27Q190 -50 146 -61Q75 -79 18 -55Q-1 -47 -12 -33Q-35 13 67 280Q103 374 114 392Q139 430 146 435T167
433ZM208 613Q217 633 239 657T287 692L310 709Q365 743 393 731Q407 726 415 718T426 690Q423 686 427 679T435 661T447 640Q468 643 489 652Q497 659 505 666T522 679T543 689T562 692Q581 688 574 656Q565 630 529 603Q486 562 469 556Q444 546 408 554Q400
555 392 562T373 578Q349 596 330 590Q318 581 305 571T280 551Q253 530 238 537Q229 541 221 549Q187 566 208 613ZM261 675Q258 672 261 674T272 681L261 675Z" />
<glyph unicode="&#xf2;" glyph-name="ograve" horiz-adv-x="512" d="M140 427Q161 442 192 434Q198 433 204 433Q226 478 280 480Q294 481 319 485T379 483T442 462Q501 430 513 370Q537 282 506 178Q473 63 394 -6Q358 -38 318 -46T246 -56T188 -57T136 -51Q82
-40 47 0Q6 45 12 140Q16 224 54 309T140 427ZM316 226Q291 218 269 219Q258 208 250 196T227 173T213 164Q196 140 185 115T185 63Q225 59 244 65T279 88T305 128Q323 171 316 226ZM269 697Q260 746 303 770Q341 790 388 783Q417 782 443 768T480 728Q472 702
473 674Q475 614 474 596T462 569T437 558Q407 554 382 568Q377 578 373 582Q369 583 367 588Q363 599 341 621L305 657Q290 664 286 670Q278 679 269 691L268 696L269 697Z" />
<glyph unicode="&#xf3;" glyph-name="oacute" horiz-adv-x="512" d="M140 427Q161 442 192 434Q198 433 204 433Q226 478 280 480Q294 481 319 485T379 483T442 462Q501 430 513 370Q537 282 506 178Q473 63 394 -6Q358 -38 318 -46T246 -56T188 -57T136 -51Q82
-40 47 0Q6 45 12 140Q16 224 54 309T140 427ZM316 226Q291 218 269 219Q258 208 250 196T227 173T213 164Q196 140 185 115T185 63Q225 59 244 65T279 88T305 128Q323 171 316 226ZM424 771Q483 767 511 741Q543 713 507 683Q504 672 495 659Q433 597 391 575Q334
546 301 559Q267 572 288 618L294 625Q297 663 343 726Q354 741 362 747Q389 763 421 771H424Z" />
<glyph unicode="&#xf4;" glyph-name="ocircumflex" horiz-adv-x="512" d="M140 427Q161 442 192 434Q198 433 204 433Q226 478 280 480Q294 481 319 485T379 483T442 462Q501 430 513 370Q537 282 506 178Q473 63 394 -6Q358 -38 318 -46T246 -56T188 -57T136
-51Q82 -40 47 0Q6 45 12 140Q16 224 54 309T140 427ZM316 226Q291 218 269 219Q258 208 250 196T227 173T213 164Q196 140 185 115T185 63Q225 59 244 65T279 88T305 128Q323 171 316 226ZM424 549Q424 561 429 578Q427 598 419 613T402 643Q355 585 331 561Q291
529 249 518Q203 500 181 517Q170 524 170 539T185 579Q273 684 313 724T375 784T415 821T454 847Q507 870 527 846Q533 824 507 798V783Q518 735 518 675Q522 660 526 642T529 605Q524 562 478 542Q459 535 445 535T424 549Z" />
<glyph unicode="&#xf5;" glyph-name="otilde" horiz-adv-x="512" d="M140 427Q161 442 192 434Q198 433 204 433Q226 478 280 480Q294 481 319 485T379 483T442 462Q501 430 513 370Q537 282 506 178Q473 63 394 -6Q358 -38 318 -46T246 -56T188 -57T136 -51Q82
-40 47 0Q6 45 12 140Q16 224 54 309T140 427ZM316 226Q291 218 269 219Q258 208 250 196T227 173T213 164Q196 140 185 115T185 63Q225 59 244 65T279 88T305 128Q323 171 316 226ZM194 631Q203 651 225 675T273 710L296 727Q351 761 379 749Q393 744 401 736T412
708Q409 704 413 697T421 679T433 658Q454 661 475 670Q483 677 491 684T508 697T529 707T548 710Q567 706 560 674Q551 648 515 621Q472 580 455 574Q430 564 394 572Q386 573 378 580T359 596Q335 614 316 608Q304 599 291 589T266 569Q239 548 224 555Q215 559
207 567Q173 584 194 631ZM247 693Q244 690 247 692T258 699L247 693Z" />
<glyph unicode="&#xf6;" glyph-name="odieresis" horiz-adv-x="512" d="M140 427Q161 442 192 434Q198 433 204 433Q226 478 280 480Q294 481 319 485T379 483T442 462Q501 430 513 370Q537 282 506 178Q473 63 394 -6Q358 -38 318 -46T246 -56T188 -57T136 -51Q82
-40 47 0Q6 45 12 140Q16 224 54 309T140 427ZM316 226Q291 218 269 219Q258 208 250 196T227 173T213 164Q196 140 185 115T185 63Q225 59 244 65T279 88T305 128Q323 171 316 226ZM346 858T326 843T284 821T254 814T224 818H223L221 820Q185 836 179 860T185
907T222 948T264 969T288 973T300 973T312 971T328 967L331 964Q380 927 356 879Q346 858 326 843ZM569 874T549 856T508 830T481 822T447 827H446Q445 827 443 829Q407 848 401 876T407 932T444 980T486 1005T510 1009T523 1009Q530 1009 551 1002Q601 952 579
898Q569 874 549 856Z" />
<glyph unicode="&#xf8;" glyph-name="oslash" horiz-adv-x="512" d="M140 427Q161 442 192 434Q198 433 204 433Q226 478 280 480Q294 481 319 485T379 483T442 462Q501 430 513 370Q537 282 506 178Q473 63 394 -6Q358 -38 318 -46T246 -56T188 -57T136 -51Q82
-40 47 0Q6 45 12 140Q16 224 54 309T140 427ZM316 226Q291 218 269 219Q258 208 250 196T227 173T213 164Q196 140 185 115T185 63Q225 59 244 65T279 88T305 128Q323 171 316 226ZM300 497T314 525T337 569T349 587T354 594Q352 612 370 628T433 653H438Q479
651 495 643Q524 630 536 596Q538 582 530 569T511 546Q521 521 499 496Q467 465 442 431T383 350T309 240T229 111Q128 -51 62 -132Q50 -148 25 -137Q0 -126 -9 -100Q-21 -69 0 -35Q52 82 135 220Q172 281 209 342T273 450Z" />
<glyph unicode="&#xf9;" glyph-name="ugrave" horiz-adv-x="606" d="M130 439Q158 466 192 470T253 463T292 425T289 364Q255 314 235 256T198 139Q290 197 352 312Q370 346 391 381L406 409L436 457Q442 476 457 481T489 487T525 487T558 496T593 504T630 490T655
464T657 433Q615 343 542 98Q525 43 510 6Q485 -25 447 -36T376 -43T322 -20T313 27Q285 4 255 -15T183 -40T101 -37T35 0T5 72Q-1 230 130 439ZM298 715Q289 764 332 788Q370 808 417 801Q446 800 472 786T509 746Q501 720 502 692Q504 632 503 614T491 587T466
576Q436 572 411 586Q406 596 402 600Q398 601 396 606Q392 617 370 639L334 675Q319 682 315 688Q307 697 298 709L297 714L298 715Z" />
<glyph unicode="&#xfa;" glyph-name="uacute" horiz-adv-x="606" d="M130 439Q158 466 192 470T253 463T292 425T289 364Q255 314 235 256T198 139Q290 197 352 312Q370 346 391 381L406 409L436 457Q442 476 457 481T489 487T525 487T558 496T593 504T630 490T655
464T657 433Q615 343 542 98Q525 43 510 6Q485 -25 447 -36T376 -43T322 -20T313 27Q285 4 255 -15T183 -40T101 -37T35 0T5 72Q-1 230 130 439ZM477 783Q536 779 564 753Q596 725 560 695Q557 684 548 671Q486 609 444 587Q387 558 354 571Q320 584 341 630L347
637Q350 675 396 738Q407 753 415 759Q442 775 474 783H477Z" />
<glyph unicode="&#xfb;" glyph-name="ucircumflex" horiz-adv-x="606" d="M130 439Q158 466 192 470T253 463T292 425T289 364Q255 314 235 256T198 139Q290 197 352 312Q370 346 391 381L406 409L436 457Q442 476 457 481T489 487T525 487T558 496T593 504T630
490T655 464T657 433Q615 343 542 98Q525 43 510 6Q485 -25 447 -36T376 -43T322 -20T313 27Q285 4 255 -15T183 -40T101 -37T35 0T5 72Q-1 230 130 439ZM516 545Q516 557 521 574Q519 594 511 609T494 639Q447 581 423 557Q383 525 341 514Q295 496 273 513Q262
520 262 535T277 575Q365 680 405 720T467 780T507 817T546 843Q599 866 619 842Q625 820 599 794V779Q610 731 610 671Q614 656 618 638T621 601Q616 558 570 538Q551 531 537 531T516 545Z" />
<glyph unicode="&#xfc;" glyph-name="udieresis" horiz-adv-x="606" d="M130 439Q158 466 192 470T253 463T292 425T289 364Q255 314 235 256T198 139Q290 197 352 312Q370 346 391 381L406 409L436 457Q442 476 457 481T489 487T525 487T558 496T593 504T630
490T655 464T657 433Q615 343 542 98Q525 43 510 6Q485 -25 447 -36T376 -43T322 -20T313 27Q285 4 255 -15T183 -40T101 -37T35 0T5 72Q-1 230 130 439ZM404 608T384 593T342 571T312 564T282 568H281L279 570Q243 586 237 610T243 657T280 698T322 719T346 723T358
723T370 721T386 717L389 714Q438 677 414 629Q404 608 384 593ZM627 624T607 606T566 580T539 572T505 577H504Q503 577 501 579Q465 598 459 626T465 682T502 730T544 755T568 759T581 759Q588 759 609 752Q659 702 637 648Q627 624 607 606Z" />
<glyph unicode="&#xfd;" glyph-name="yacute" horiz-adv-x="579" d="M37 347T30 373T30 416T54 441T93 446T138 432Q191 408 212 364Q217 342 209 310T189 243T168 176T160 121Q186 137 205 169T241 237T272 310T300 367T322 400T338 423Q351 440 372 456Q378
461 408 455T453 446T473 447L487 457Q515 471 553 456Q590 440 592 407Q591 406 591 403L594 402L587 396Q580 383 577 379T562 365Q494 292 406 94Q384 45 366 6Q393 -11 407 -38T407 -97Q324 -163 314 -221Q309 -257 302 -272T278 -301Q224 -341 151 -281Q99
-229 146 -151Q158 -130 169 -107Q185 -73 220 -6Q134 -56 62 -4Q11 35 26 173Q36 265 36 306ZM427 723Q486 719 514 693Q546 665 510 635Q507 624 498 611Q436 549 394 527Q337 498 304 511Q270 524 291 570L297 577Q300 615 346 678Q357 693 365 699Q392 715
424 723H427Z" />
<glyph unicode="&#xfe;" glyph-name="thorn" horiz-adv-x="421" d="M54 -164Q39 -190 24 -206T-9 -234T-44 -250Q-82 -261 -84 -225Q-87 -216 -94 -215T-110 -210Q-128 -203 -120 -163Q-106 -103 -88 -18T-41 170Q8 384 87 575Q137 695 174 741Q192 764 204 762Q228
756 243 761T271 772T297 781T330 773Q358 757 312 657Q301 632 284 594Q237 482 201 385L210 391Q276 435 350 430Q384 427 410 413T449 369T460 295T442 201T402 106T345 26Q275 -51 210 -32Q182 -36 146 -6Q137 1 130 5V-3L121 -11Q102 -86 54 -164ZM157 69Q172
86 208 133T257 206T251 256Q232 280 204 220Q157 124 157 69ZM62 -48H53Q48 -71 52 -71T74 -41L66 -43L67 -44L62 -48Z" />
<glyph unicode="&#xff;" glyph-name="ydieresis" horiz-adv-x="579" d="M37 347T30 373T30 416T54 441T93 446T138 432Q191 408 212 364Q217 342 209 310T189 243T168 176T160 121Q186 137 205 169T241 237T272 310T300 367T322 400T338 423Q351 440 372 456Q378
461 408 455T453 446T473 447L487 457Q515 471 553 456Q590 440 592 407Q591 406 591 403L594 402L587 396Q580 383 577 379T562 365Q494 292 406 94Q384 45 366 6Q393 -11 407 -38T407 -97Q324 -163 314 -221Q309 -257 302 -272T278 -301Q224 -341 151 -281Q99
-229 146 -151Q158 -130 169 -107Q185 -73 220 -6Q134 -56 62 -4Q11 35 26 173Q36 265 36 306ZM334 816T314 801T272 779T242 772T212 776H211L209 778Q173 794 167 818T173 865T210 906T252 927T276 931T288 931T300 929T316 925L319 922Q368 885 344 837Q334
816 314 801ZM557 832T537 814T496 788T469 780T435 785H434Q433 785 431 787Q395 806 389 834T395 890T432 938T474 963T498 967T511 967Q518 967 539 960Q589 910 567 856Q557 832 537 814Z" />
<glyph unicode="&#x2013;" glyph-name="endash" horiz-adv-x="621" d="M306 254L87 257Q85 256 83 256T76 255L75 257Q49 257 29 266T0 290T-5 320T22 350L43 352Q43 394 95 408Q119 415 152 418T224 425L293 427H346Q375 427 404 426Q468 439 520 427T593 397T611
356T570 302Q557 298 549 292Q507 254 306 254Z" />
<glyph unicode="&#x2014;" glyph-name="emdash" horiz-adv-x="742" d="M541 429Q564 436 598 437T671 432T731 408T752 368T713 313Q700 309 693 302Q671 280 608 271T491 258T382 251T272 247T172 244T108 242T88 240T81 239L80 241Q54 239 34 248T4 270T-3 300T23
331L44 334Q42 376 93 393Q155 414 360 422Q395 424 429 426Q508 429 541 429Z" />
<glyph unicode="&#x2018;" glyph-name="quoteleft" horiz-adv-x="239" d="M-2 527L-1 543V547L14 574Q19 584 25 594Q27 606 52 637T97 691L112 709Q119 716 124 723T139 740T166 758T201 765T225 750T228 707H229Q228 706 228 704V703Q206 609 204 545Q209 586
210 573T212 557Q209 543 203 530L204 525Q200 516 193 508Q172 471 140 452T76 433T23 455T-1 522L-2 527Z" />
<glyph unicode="&#x2019;" glyph-name="quoteright" horiz-adv-x="239" d="M255 726L256 711L255 706L251 701Q247 690 241 679T230 658Q229 653 227 645Q205 611 162 556L148 537Q141 529 136 522T122 504T95 483T61 473T36 487T31 531H30Q31 532 31 534V535Q47
622 49 696Q47 688 47 683T46 671Q44 666 43 673T40 684L48 711L47 716Q52 728 58 734Q77 773 109 794T172 817T227 797T254 731Q256 729 255 726Z" />
<glyph unicode="&#x201a;" glyph-name="quotesinglbase" horiz-adv-x="288" d="M233 68T236 65T241 57L259 39Q258 27 261 15T264 -14T246 -54T209 -94Q170 -144 116 -162Q57 -182 13 -145Q6 -131 6 -124T13 -103Q18 -90 29 -73T51 -41L46 -37L44 -39Q41 -40 41
-33Q38 -31 31 -24H30L22 -17L20 -12Q-8 40 28 73Q67 110 141 106Q159 105 196 93Q203 86 209 81T221 72L225 75L230 72Q233 68 236 65Z" />
<glyph unicode="&#x201c;" glyph-name="quotedblleft" horiz-adv-x="458" d="M-2 527L-1 543V547L14 574Q19 584 25 594Q27 606 52 637T97 691L112 709Q119 716 124 723T139 740T166 758T201 765T225 750T228 707H229Q228 706 228 704V703Q206 609 204 545Q209
586 210 573T212 557Q209 543 203 530L204 525Q200 516 193 508Q172 471 140 452T76 433T23 455T-1 522L-2 527ZM429 736V733Q422 658 429 612Q428 622 429 631Q431 634 432 629T433 619T429 601L431 597Q427 587 423 585Q405 550 356 538Q307 527 275 545Q239
565 254 606Q255 608 254 608T253 612T251 623V626L254 630Q259 645 264 654T269 665T274 674Q285 693 318 731L328 745Q337 753 344 765Q367 788 398 782Q411 780 420 769T428 736H429Z" />
<glyph unicode="&#x201d;" glyph-name="quotedblright" horiz-adv-x="464" d="M319 549L320 552V553Q349 653 352 709Q351 703 351 697T348 686T345 688T345 700Q347 710 351 717T353 729Q356 734 359 737T365 746Q389 782 422 799T486 814T538 789T559 721Q558
719 558 718T559 715T558 708Q559 704 557 696Q550 686 543 673T528 650Q525 637 499 609T452 557L435 541Q428 534 422 527T406 511T378 494T344 489T320 506T320 549H319ZM116 683T115 688T114 697T115 706T119 716Q113 725 126 731Q145 765 196 774Q242 783
276 762Q310 741 293 700Q292 699 293 699T295 695T296 684L295 680L293 677L286 662Q282 655 279 650T276 643T270 634Q256 614 223 579L212 566Q201 558 195 547Q170 526 140 533Q108 540 113 580H112Q111 581 112 582V583Q124 657 119 705Q119 700 119 695T118
685Q116 683 115 688Z" />
<glyph unicode="&#x201e;" glyph-name="quotedblbase" horiz-adv-x="445" d="M260 -55T255 -21T248 54T263 121T302 158T352 169T400 153T433 111T438 45Q440 -12 392 -80Q379 -99 369 -116T340 -143T304 -152T273 -136T260 -88ZM32 -110Q8 -57 8 -9T23 75T65
134T120 157T174 135T214 58L203 32Q204 30 204 29T205 26Q192 0 189 -27T175 -80L138 -136Q128 -153 111 -162T76 -170T45 -154T32 -110Z" />
<glyph unicode="&#x2022;" glyph-name="bullet" horiz-adv-x="424" d="M322 538T326 539T343 533T369 513T387 486Q396 462 386 436Q388 408 355 384Q353 382 352 376T343 359Q344 345 346 332T348 302Q350 284 329 272T276 256T204 253T130 268Q29 301 46 379Q50
395 52 409Q59 462 85 488T154 530Q254 563 317 540Q322 538 326 539Z" />
<glyph unicode="&#x2039;" glyph-name="guilsinglleft" horiz-adv-x="427" d="M318 606Q334 610 342 612T364 612T392 598T414 572Q433 536 420 499Q424 451 386 415Q338 374 288 346T188 286Q186 274 201 258T240 220Q310 157 337 121Q342 89 330 67T303 42Q291
48 268 54T217 69T157 91T97 126Q32 175 13 253Q13 259 15 266T20 282T23 299T18 319Q18 356 68 406Q79 417 87 426Q116 451 143 476T200 526Q270 583 318 606Z" />
<glyph unicode="&#x203a;" glyph-name="guilsinglright" horiz-adv-x="476" d="M259 314L234 339Q204 370 172 396T111 457Q87 498 107 539Q116 567 142 597Q149 602 156 607Q199 638 228 624T277 583Q282 577 296 562T327 524T364 477T398 428Q432 370 423 346Q419
336 410 318Q414 290 407 252Q400 233 394 224T374 204Q346 189 297 177T211 151T135 122Q36 84 -4 81Q-6 92 -11 109T-12 137T-2 156T11 180T51 216T116 254T183 283T230 302L259 314Z" />
</font>
</defs>
</svg>
