<?xml version="1.0" standalone="no"?>
<!DOCTYPE svg PUBLIC "-//W3C//DTD SVG 1.1//EN" "http://www.w3.org/Graphics/SVG/1.1/DTD/svg11.dtd">
<svg xmlns="http://www.w3.org/2000/svg">
<defs >
<font id="LibreFranklin" horiz-adv-x="599" ><font-face
    font-family="Libre Franklin"
    units-per-em="1000"
    panose-1="0 0 8 0 0 0 0 0 0 0"
    ascent="966"
    descent="-246"
    alphabetic="0" />
<glyph unicode=" " glyph-name="space" horiz-adv-x="206" />
<glyph unicode="!" glyph-name="exclam" horiz-adv-x="264" d="M180 250Q177 238 173 235T154 232H101Q79 232 81 256L109 728Q109 737 111 739T122 742H269Q276 742 280 736T284 721L180 250ZM179 19Q178 6 173 3T153 0H35Q23 0 17 7T13 25L30 149Q31 158 34
160T44 163H181Q188 163 193 157T197 142L179 19Z" />
<glyph unicode="&quot;" glyph-name="quotedbl" horiz-adv-x="469" d="M382 470Q379 457 375 454T356 451H321Q310 451 305 458T300 475L302 729Q302 737 305 739T315 742H436Q444 742 448 736T452 721L382 470ZM416 470Q413 457 409 454T390 451H355Q344 451
339 458T334 475L336 729Q336 737 339 739T349 742H470Q478 742 482 736T486 721L416 470Z" />
<glyph unicode="#" glyph-name="numbersign" horiz-adv-x="603" d="M615 519T618 513T619 499L614 458Q613 446 608 443T588 440H489L451 309H545Q551 309 554 303T557 289L551 248Q550 236 545 233T525 230H428L367 20Q365 8 362 4T352 0Q347 0 343 1L310 5Q283
10 287 28L345 230H210L149 20Q147 8 144 4T134 0Q129 0 125 1L92 5Q65 10 69 28L127 230H36Q24 230 19 237T15 254L21 296Q22 304 25 306T38 309H150L188 440H98Q86 440 81 447T78 464L84 506Q85 514 88 516T101 519H211L271 727Q274 736 276 739T286 741L335
736Q343 735 347 729T351 715L294 519H428L488 727Q492 736 495 739T504 741L553 736Q561 735 565 729T569 715L512 519H608Q615 519 618 513ZM405 440H271L233 309H368L405 440Z" />
<glyph unicode="$" glyph-name="dollar" horiz-adv-x="655" d="M600 120T533 63T365 -4Q352 -5 347 -10T339 -25L335 -60Q333 -72 329 -75T310 -79H256Q245 -79 240 -72T235 -54L241 -14V-7Q241 -5 240 -5T238 -4T234 -4Q161 0 110 24T21 94Q13 98 8 103T3 113Q3
119 8 123L77 188Q83 194 88 194Q97 194 104 180Q159 118 238 106Q258 106 262 122L286 294V301Q286 305 285 307T279 312Q82 353 82 499Q82 517 85 536Q96 613 158 667T323 741Q332 741 341 747T352 761L357 799Q358 805 360 806T367 808H434Q443 808 448 802T453
785L447 745Q447 740 449 739T453 737Q556 718 616 660Q628 657 628 646Q628 640 624 636L560 569Q555 564 552 564Q546 564 536 579Q521 593 498 606T448 629H447Q440 629 435 624T428 613L404 444V440Q404 438 406 437T412 435L466 421Q534 400 574 351T614 235Q614
226 612 206Q600 120 533 63ZM332 624Q333 630 333 630T330 630T326 628Q274 621 244 592T213 525Q213 502 229 486T283 456Q295 455 302 462T312 481L332 624ZM357 106T358 106Q359 106 361 107T365 110Q417 114 449 143T481 213Q481 239 463 256T402 287H399Q383
287 380 271L357 109Q357 106 358 106Z" />
<glyph unicode="%" glyph-name="percent" horiz-adv-x="944" d="M340 753T377 729T435 662T456 567Q456 545 454 533Q446 477 416 431T341 359T245 332Q196 332 158 355T98 420T77 514Q77 531 80 549Q88 605 118 652T195 726T292 753Q340 753 377 729ZM202 3Q198
-2 194 -3T185 -4T177 -4L135 -3Q127 -3 123 2T118 14Q118 21 123 29L699 743Q706 751 712 751L722 750H775Q780 750 784 747T789 738Q789 735 786 730L202 3ZM282 410T308 446T342 548Q346 572 346 597Q346 675 292 675Q252 675 226 637T191 532Q187 498 187 486Q187
410 242 410Q282 410 308 446ZM779 411T817 387T876 321T897 226Q897 209 894 191Q886 135 856 89T781 17T685 -10Q635 -10 597 13T538 78T517 171Q517 189 520 207Q528 263 559 310T635 384T731 411Q779 411 817 387ZM722 68T748 104T783 206Q786 232 786 251Q786
333 732 333Q693 333 667 295T631 190Q628 166 628 147Q628 68 682 68Q722 68 748 104Z" />
<glyph unicode="&amp;" glyph-name="ampersand" horiz-adv-x="838" d="M532 753T589 713T646 607Q646 593 645 586Q638 539 592 488T473 403Q451 400 458 387L549 271Q552 267 555 267Q560 267 572 284Q601 308 629 343T671 410Q675 414 680 414Q685 414 694 411L767
386Q774 384 778 377T783 361Q783 358 781 352Q762 320 731 281T650 185Q640 179 638 176T640 166Q662 151 694 142T760 130Q773 130 778 124T782 108L771 20Q769 8 765 4T752 0Q682 0 623 20T523 76L515 78Q510 78 505 74T495 64Q439 29 380 12T252 -5Q145 -5
87 40T28 167Q28 189 30 201Q38 258 83 306T220 405Q239 411 239 420Q239 426 235 433Q212 459 200 490T188 556Q188 611 221 656T312 727T438 753Q532 753 589 713ZM404 660T376 635T342 574Q340 562 344 548T358 519L387 480Q389 478 391 478Q398 478 406 488Q500
526 512 596Q516 627 497 643T444 660Q404 660 376 635ZM313 323T308 323Q301 323 291 313Q253 296 227 266T196 202Q195 198 195 190Q195 155 221 132T288 109Q319 109 353 122T409 157Q430 165 422 178L317 318Q313 323 308 323Z" />
<glyph unicode="&apos;" glyph-name="quotesingle" horiz-adv-x="248" d="M197 470Q194 457 190 454T171 451H136Q125 451 120 458T115 475L117 729Q117 737 120 739T130 742H251Q259 742 263 736T267 721L197 470Z" />
<glyph unicode="(" glyph-name="parenleft" horiz-adv-x="314" d="M139 -165T135 -160T130 -147Q88 -56 67 23T45 191Q45 243 52 293Q69 411 120 524T250 737Q260 742 274 742H351Q358 742 361 736T362 722Q295 620 249 506T186 276Q178 221 178 156Q178 9 231
-159Q234 -161 234 -163T226 -165H146Q139 -165 135 -160Z" />
<glyph unicode=")" glyph-name="parenright" horiz-adv-x="314" d="M-37 -165T-40 -159T-41 -145Q26 -43 72 71T135 301Q143 356 143 421Q143 568 90 736Q87 738 87 740T94 742H175Q188 742 191 724Q232 635 253 556T275 388Q275 334 268 284Q251 166 200 53T71
-160Q61 -165 47 -165H-30Q-37 -165 -40 -159Z" />
<glyph unicode="*" glyph-name="asterisk" horiz-adv-x="465" d="M270 468L268 469Q264 469 260 461L167 336Q164 333 161 333Q157 333 147 341L97 380Q88 387 88 392Q88 397 92 401L199 508Q200 509 202 511T204 514T199 517L79 553Q73 555 70 561T70 576L101
635Q104 641 107 641Q109 641 115 637L228 585L231 584Q235 584 239 588T244 597L253 734Q253 739 254 740T263 742H336Q342 742 346 736T349 725L318 587Q317 584 319 584T323 586L453 640Q455 641 459 641Q464 641 467 637T472 625L483 567Q484 564 484 560Q484
552 475 551L346 514Q341 513 338 509T336 501L409 398Q413 392 413 387Q413 379 404 374L350 341Q344 338 340 338Q335 338 331 341T326 348L270 468Z" />
<glyph unicode="+" glyph-name="plus" horiz-adv-x="583" d="M548 429T552 423T556 409L545 335Q544 324 540 321T520 318H355L331 140Q330 134 328 132T317 130H244Q232 130 226 138T222 161L244 317H80Q68 317 63 324T59 342L70 415Q71 424 73 426T83 429H260L284
601Q285 612 288 614T303 617H376Q385 617 390 611T394 598L371 429H541Q548 429 552 423Z" />
<glyph unicode="," glyph-name="comma" horiz-adv-x="253" d="M-17 -156T-17 -150Q-17 -145 -14 -139L51 -30Q58 -19 58 -11Q58 0 43 0H23Q11 0 8 3T6 17L24 142Q26 151 30 157T42 164H181Q196 164 193 148L176 32Q175 22 168 13L49 -134Q38 -147 30 -151T12 -156H-10Q-17
-156 -17 -150Z" />
<glyph unicode="-" glyph-name="hyphen" horiz-adv-x="380" d="M325 226Q324 214 319 211T300 208H65Q54 208 49 215T44 232L55 305Q56 314 59 316T69 319H321Q328 319 332 313T336 299L325 226Z" />
<glyph unicode="." glyph-name="period" horiz-adv-x="251" d="M173 19Q172 7 167 4T146 0H28Q16 0 10 7T6 25L24 152Q25 161 28 163T39 166H176Q183 166 187 160T190 145L173 19Z" />
<glyph unicode="/" glyph-name="slash" horiz-adv-x="365" d="M-27 -17T-31 -12T-33 2L320 731Q324 738 328 740T340 742H407Q425 742 425 725Q425 720 422 712L78 0Q72 -11 67 -14T49 -17H-18Q-27 -17 -31 -12Z" />
<glyph unicode="0" glyph-name="zero" horiz-adv-x="708" d="M497 753T557 715T650 606T683 442Q683 403 677 361Q661 249 611 166T486 37T323 -9Q242 -9 182 28T88 135T55 297Q55 335 61 377Q77 489 128 574T254 706T418 753Q497 753 557 715ZM398 115T440 177T502
377Q511 456 511 488Q511 562 486 596T412 631Q344 631 300 566T236 360Q227 297 227 255Q227 182 252 149T328 115Q398 115 440 177Z" />
<glyph unicode="1" glyph-name="one" horiz-adv-x="509" d="M448 129T451 126T454 114L440 13Q438 5 435 3T421 0H21Q11 0 8 3T6 16L20 118Q21 125 24 127T36 129H143Q154 129 155 141L214 561V564Q214 570 205 567L99 537Q96 536 92 536Q85 536 82 540T80 553L91
627Q93 638 95 641T106 649L284 732Q298 738 306 740T328 742H401Q415 742 412 724L329 137V134Q329 129 336 129H440Q448 129 451 126Z" />
<glyph unicode="2" glyph-name="two" horiz-adv-x="644" d="M275 324Q347 380 387 416T445 483T463 543Q463 582 439 603T370 625Q326 625 283 597T205 515Q200 507 191 512L83 575Q79 577 79 582Q79 589 89 602Q142 675 220 713T385 752Q498 752 565 699T632
554Q632 501 612 459T555 380T458 299L263 156Q256 152 256 148T262 144H564Q584 144 581 128L566 14Q564 6 561 3T547 0H26Q0 0 3 26L14 102Q16 113 24 122T65 156L275 324Z" />
<glyph unicode="3" glyph-name="three" horiz-adv-x="667" d="M110 637T110 642Q110 649 117 655Q167 699 239 725T386 752Q467 752 525 730T615 668T646 575Q646 514 604 464T498 395Q491 393 491 390T497 384Q553 369 586 328T620 231Q620 115 529 53T286 -10Q189
-10 121 26T17 121Q12 129 12 133T15 140L105 200Q111 203 114 203Q118 203 122 199Q160 153 200 133T294 113Q360 113 405 146T450 232Q450 273 416 297T327 322L234 323Q222 323 223 335L236 436Q237 441 240 442T252 444L321 446Q362 446 397 462T453 504T474
562Q474 593 448 612T378 632Q329 632 292 615T203 557Q198 553 193 553Q188 553 183 558L114 633Q110 637 110 642Z" />
<glyph unicode="4" glyph-name="four" horiz-adv-x="689" d="M437 737T443 739T466 742H596Q604 742 607 738T610 725L550 301V299Q550 294 557 294H643Q661 294 658 280L645 189Q643 180 640 178T626 175H543Q531 175 530 162L511 19Q509 7 504 4T485 0H355Q343
0 338 4T334 19L355 167V170Q355 175 347 175H41Q31 175 27 179T25 192L37 281Q38 290 44 300T67 329L426 726Q437 737 443 739ZM362 294Q374 294 375 306L410 553V558Q410 561 408 561Q406 561 397 551L182 306Q176 299 176 297T183 294H362Z" />
<glyph unicode="5" glyph-name="five" horiz-adv-x="676" d="M633 742Q643 742 647 740T651 730Q651 728 649 720L630 616Q628 607 624 605T608 602H289Q281 602 277 599T271 587L241 455V452Q241 446 249 449Q295 464 327 471T396 478Q503 478 569 425T635 274Q635
187 592 123T473 24T302 -10Q206 -10 133 25T21 118Q15 129 15 133Q15 140 24 144L114 203Q118 205 120 205Q128 205 139 191Q172 153 204 133T288 113Q339 113 379 133T441 187T463 263Q463 305 433 329T349 354Q315 354 286 344T214 311Q210 309 203 309Q196
309 189 313L99 366Q91 371 91 385Q91 396 93 402L168 723Q170 736 175 739T203 742H633Z" />
<glyph unicode="6" glyph-name="six" horiz-adv-x="685" d="M488 751T538 731T620 676T657 602V599Q657 594 649 591L539 556H536Q530 556 517 576Q501 603 482 616T430 629Q355 629 305 574T241 428Q240 423 240 417Q240 413 243 413Q246 413 252 416Q332 454
412 454Q483 454 535 430T616 361T644 259Q644 182 600 121T483 25T326 -9Q197 -9 125 69T53 284Q53 321 59 364Q76 484 127 571T258 704T433 751Q488 751 538 731ZM341 339T303 328T242 303Q227 294 223 278T218 232Q218 177 245 142T325 106Q364 106 397 126T451
181T472 252Q472 293 445 316T372 339Q341 339 303 328Z" />
<glyph unicode="7" glyph-name="seven" horiz-adv-x="619" d="M628 742Q653 742 649 716L639 661Q633 632 609 602Q538 516 473 407T361 193T299 19Q296 7 292 4T278 0H119Q111 0 106 5T101 20Q101 23 103 33Q157 156 233 287T440 589Q444 595 444 597Q444 602
433 602H99Q78 602 83 623L109 729Q110 736 115 739T131 742H628Z" />
<glyph unicode="8" glyph-name="eight" horiz-adv-x="683" d="M473 752T530 728T620 660T652 562Q652 519 633 488T589 437T528 396Q522 392 522 390Q522 387 528 382Q534 378 565 360T616 307T637 224Q637 150 592 97T469 17T298 -10Q174 -10 102 36T29 169Q29
287 172 358Q180 361 180 365Q180 370 173 374Q136 400 117 427T97 505Q97 571 135 627T242 718T399 752Q473 752 530 728ZM359 637T328 622T280 581T262 528Q262 505 275 490T319 464L393 441Q398 439 407 439Q429 439 452 457T490 503T505 557Q505 594 477 615T400
637Q359 637 328 622ZM380 105T421 134T463 212Q463 238 448 256T395 286L303 315Q295 317 291 317Q269 317 243 298T198 249T179 186Q179 148 212 127T305 105Q380 105 421 134Z" />
<glyph unicode="9" glyph-name="nine" horiz-adv-x="684" d="M218 -9T170 13T92 69T55 135L54 139Q54 147 63 151L171 184Q173 185 177 185Q188 185 195 169Q210 141 230 127T286 113Q360 113 409 168T472 314V318Q472 326 467 326Q464 326 456 323Q415 306 381
297T303 288Q233 288 181 313T100 382T71 483Q71 560 115 621T232 717T389 751Q517 751 589 673T661 458Q661 333 615 226T482 55T282 -9Q218 -9 170 13ZM375 403T408 413T469 442Q486 451 491 467T497 511Q497 565 470 600T391 636Q352 636 318 616T264 561T243
490Q243 449 270 426T342 403Q375 403 408 413Z" />
<glyph unicode=":" glyph-name="colon" horiz-adv-x="251" d="M223 374Q221 361 216 358T196 355H78Q66 355 60 362T56 381L73 504Q74 513 77 515T88 518H225Q232 518 237 512T240 497L223 374ZM173 22Q172 10 167 7T146 3H28Q16 3 11 10T7 29L24 152Q25 161 28
163T39 166H176Q183 166 187 160T190 145L173 22Z" />
<glyph unicode=";" glyph-name="semicolon" horiz-adv-x="259" d="M65 350T60 357T55 375L73 502Q74 511 77 513T88 516H225Q232 516 236 510T240 495L222 369Q221 357 216 354T195 350H77Q65 350 60 357ZM-10 -159T-15 -151T-17 -134L49 -22Q57 -9 57 -5Q57 0
47 0H29Q17 0 12 7T8 24L25 151Q26 159 29 161T40 164H177Q184 164 188 158T192 143L175 23Q174 17 171 9L52 -145Q39 -159 16 -159H-2Q-10 -159 -15 -151Z" />
<glyph unicode="&lt;" glyph-name="less" horiz-adv-x="577" d="M499 133Q496 114 484 114Q477 114 469 118L69 281Q59 285 53 293T49 311L61 400Q62 411 67 416T84 426L529 590Q535 592 538 592Q548 592 555 583T560 564L549 488Q548 475 540 468T512 454L222
351L476 247Q495 239 503 230T509 207L499 133Z" />
<glyph unicode="=" glyph-name="equal" horiz-adv-x="583" d="M560 433Q558 421 553 418T534 415H94Q82 415 77 421T73 439L83 512Q84 521 87 523T97 526H555Q562 526 566 520T570 506L560 433ZM526 198Q525 186 520 183T501 180H61Q49 180 44 186T40 204L50 277Q51
286 54 288T64 291H522Q529 291 533 285T537 271L526 198Z" />
<glyph unicode="&gt;" glyph-name="greater" horiz-adv-x="577" d="M54 230T61 236T90 250L379 351L125 457Q88 472 92 497L103 573Q105 590 120 590Q126 590 133 587L532 423Q542 419 548 411T553 391L540 302Q539 292 534 287T518 278L73 115Q67 113 63 113Q53
113 47 121T42 142L53 216Q54 230 61 236Z" />
<glyph unicode="?" glyph-name="question" horiz-adv-x="536" d="M54 582T54 597Q54 604 55 608Q98 678 167 715T326 752Q395 752 446 731T525 672T553 588Q553 576 552 569Q547 533 530 505T490 456T430 406Q393 377 371 357T332 309T309 246Q307 235 291 235H209Q199
235 193 243T189 266Q195 311 214 346T257 407T317 465Q361 504 381 530T401 589Q401 616 380 631T323 647Q281 647 242 622T181 556Q177 552 173 552Q170 552 161 555L64 579Q54 582 54 597ZM299 19Q297 6 292 3T272 0H154Q142 0 136 7T132 25L150 149Q151 158
153 160T164 163H301Q308 163 312 157T316 142L299 19Z" />
<glyph unicode="@" glyph-name="at" horiz-adv-x="834" d="M580 -78T517 -95T384 -113Q275 -113 196 -71T76 45T35 211Q35 243 39 270Q54 377 116 466T279 608T499 661Q587 661 661 631T780 539T825 384Q825 355 821 330Q811 257 779 201T698 113T594 81Q551 81
529 96T501 135L499 136Q494 136 487 120Q459 96 424 82T349 67Q289 67 252 108T214 217Q214 234 217 252Q226 311 257 362T338 444T445 475Q486 475 509 460T547 418Q551 418 555 422T561 432L567 446Q568 450 570 450T575 449H645Q649 449 652 445T655 437L589
225Q582 203 582 188Q582 176 587 172T604 167Q630 167 656 187T702 247T730 341Q733 365 733 386Q733 486 667 531T499 577Q393 577 315 534T191 418T132 255Q128 230 128 200Q128 89 198 27T398 -35Q459 -35 496 -21T580 23Q582 24 587 24Q597 24 601 13L629
-29Q631 -35 631 -37Q631 -43 624 -52Q580 -78 517 -95ZM323 239T323 226Q323 195 336 177T377 159Q410 159 441 182T492 243T511 316Q511 347 495 365T452 383Q407 383 370 343T324 246Q323 239 323 226Z" />
<glyph unicode="A" glyph-name="A" horiz-adv-x="771" d="M-6 0T-6 10Q-6 19 1 33L348 726Q353 736 360 739T380 742H530Q548 742 552 716L702 23Q703 20 703 15Q703 0 689 0H543Q529 0 526 18L495 163Q494 171 483 171H241Q230 171 224 159L148 9Q146 4 142 2T130
0H4Q-6 0 -6 10ZM461 304Q475 304 472 321L420 552Q419 562 414 562Q409 562 405 552L289 319Q286 313 286 309Q286 304 295 304H461Z" />
<glyph unicode="B" glyph-name="B" horiz-adv-x="723" d="M35 0T35 14L36 23L134 725Q135 735 140 738T155 742H425Q560 742 632 698T704 569Q704 498 663 452T549 382Q542 381 541 378T546 372Q611 353 642 317T673 224Q673 100 581 50T344 0H48Q35 0 35 14ZM397
436Q451 436 490 467T529 550Q529 586 500 605T420 624H314Q303 624 299 620T292 606L271 450L270 444Q270 436 280 436H397ZM345 118Q405 118 450 149T495 240Q495 277 467 295T387 314H268Q258 314 255 311T249 297L226 132L225 127Q225 121 227 120T236 118H345Z"
/>
<glyph unicode="C" glyph-name="C" horiz-adv-x="725" d="M522 752T583 722T679 640T716 523Q716 513 713 509T701 504L571 496H570Q558 496 556 520Q551 571 524 600T444 630Q368 630 321 574T254 437T234 276Q234 194 265 157T361 119Q487 119 551 246Q557 256
566 256Q572 256 576 255L680 229Q686 228 686 219Q686 213 681 198Q664 157 622 109T510 26T350 -10Q258 -10 192 29T90 139T55 305Q55 423 99 525T232 689T445 752Q522 752 583 722Z" />
<glyph unicode="D" glyph-name="D" horiz-adv-x="751" d="M47 0T41 8T37 29L134 726Q135 736 139 739T155 742H366Q542 742 634 661T727 439Q727 305 674 206T519 54T278 0H59Q47 0 41 8ZM297 123Q423 123 484 210T545 449Q545 536 501 577T370 618H310Q293 618
292 601L229 141Q229 140 229 139T229 135Q229 123 241 123H297Z" />
<glyph unicode="E" glyph-name="E" horiz-adv-x="654" d="M137 737T139 739T150 742H657Q672 742 669 720L656 631Q654 621 650 618T635 614H308Q300 614 297 611T292 599L271 449L270 443Q270 436 280 436H499Q508 436 510 433T511 422L497 321Q496 315 493 313T483
310H262Q255 310 253 307T249 296L227 140V136Q227 128 234 128H581Q590 128 592 125T593 113L580 13Q579 5 576 3T563 0H56Q44 0 39 6T36 25L135 727Q137 737 139 739Z" />
<glyph unicode="F" glyph-name="F" horiz-adv-x="631" d="M136 737T139 739T150 742H652Q659 742 661 739T662 726L648 631Q646 621 643 618T628 614H305Q298 614 295 610T291 595L269 439L268 433Q268 429 270 428T279 427H504Q511 427 513 425T514 416L500 315Q499
307 496 305T483 302H262Q255 302 252 299T247 284L210 18Q209 6 205 3T189 0H51Q42 0 39 2T35 12Q35 19 36 25L135 727Q136 737 139 739Z" />
<glyph unicode="G" glyph-name="G" horiz-adv-x="752" d="M255 -10T189 28T89 135T54 299Q54 423 103 526T242 691T449 752Q529 752 590 721T686 640T722 532Q722 522 721 518T715 512L578 492H577Q573 492 571 497T565 517Q558 567 528 598T442 629Q371 629 325
577T256 444T234 274Q234 188 266 151T362 113Q423 113 465 147T527 230L533 258Q536 263 536 265Q536 271 524 271H401Q395 271 393 273T392 284L401 366Q402 377 411 377L697 376Q709 376 712 373T714 359L665 13Q664 0 649 0H619Q610 0 606 3T598 15L581 88Q580
93 574 93Q568 93 561 85Q528 44 475 17T345 -10Q255 -10 189 28Z" />
<glyph unicode="H" glyph-name="H" horiz-adv-x="751" d="M265 317Q253 317 250 300L210 19Q209 7 204 4T185 0H52Q40 0 37 4T35 19L135 727Q136 737 139 739T150 742H300Q307 742 309 739T309 727L273 465L272 459Q272 451 283 451H520Q533 451 535 472L572 729Q573
737 576 739T587 742H736Q742 742 744 740T746 730Q746 723 745 718L646 16Q645 5 642 3T626 0H493Q482 0 477 3T472 15Q472 20 473 23L512 309V311Q512 317 500 317H265Z" />
<glyph unicode="I" glyph-name="I" horiz-adv-x="315" d="M296 742Q311 742 308 720L210 20Q209 7 204 4T184 0H53Q41 0 38 6T36 25L135 727Q136 737 139 739T150 742H296Z" />
<glyph unicode="J" glyph-name="J" horiz-adv-x="447" d="M357 82T302 36T142 -10Q84 -10 22 8Q6 13 2 16T-2 29L23 131Q25 140 28 143T40 144Q45 143 63 139T103 134Q190 134 204 240L273 728Q274 737 277 739T288 742H435Q447 742 447 728L446 720L372 188Q357
82 302 36Z" />
<glyph unicode="K" glyph-name="K" horiz-adv-x="744" d="M675 17T675 10Q675 0 661 0H511Q491 0 488 20L370 334Q368 338 366 338Q363 338 359 333T351 323L247 216Q236 205 235 194L210 19Q209 8 204 4T185 0H52Q32 0 36 25L135 728Q136 737 139 739T150 742H294Q301
742 305 736T309 720L267 422V418Q267 416 268 416Q269 416 277 426L562 729Q569 738 575 740T597 742H730Q746 742 746 733Q746 728 740 722L510 491Q503 483 501 479T500 466L673 21Q675 17 675 10Z" />
<glyph unicode="L" glyph-name="L" horiz-adv-x="627" d="M135 734T139 738T150 742H298Q309 742 309 728Q309 723 308 720L228 143L227 138Q227 128 237 128H558Q574 128 571 108L558 13Q557 5 554 3T540 0H56Q33 0 36 25L134 725Q135 734 139 738Z" />
<glyph unicode="M" glyph-name="M" horiz-adv-x="949" d="M41 0T39 2T36 13Q36 21 37 27L135 727Q136 737 139 739T151 742H359Q369 742 374 738T381 724L474 305Q474 299 478 299Q482 299 485 306L691 723Q696 734 700 738T713 742H932Q947 742 944 727L844 19Q843
7 839 4T820 0H692Q679 0 674 5T670 25L739 514V518Q739 519 739 520T738 521Q736 521 731 513L486 12Q482 5 478 3T465 0H381Q372 0 368 4T361 20L258 510Q255 518 251 518Q247 518 246 511L176 14Q175 6 171 3T159 0H49Q41 0 39 2Z" />
<glyph unicode="N" glyph-name="N" horiz-adv-x="759" d="M744 742Q751 742 753 739T754 727L653 11Q652 4 649 2T637 0H535Q522 0 512 16L254 463Q251 468 248 468Q242 468 241 457L179 16Q177 6 174 3T159 0H49Q33 0 35 22L135 727Q137 737 139 739T152 742H273Q283
742 288 738T299 723L535 306Q540 298 545 298Q553 298 554 310L612 729Q613 737 616 739T629 742H744Z" />
<glyph unicode="O" glyph-name="O" horiz-adv-x="774" d="M213 -10T134 71T55 297Q55 342 60 377Q76 492 129 577T265 707T450 752Q542 752 609 715T712 607T748 440Q748 393 742 361Q726 247 674 163T539 35T355 -10Q213 -10 134 71ZM445 113T494 175T562 375Q569
428 569 474Q569 555 539 592T446 630Q361 630 311 564T241 358Q233 300 233 264Q233 185 264 149T360 113Q445 113 494 175Z" />
<glyph unicode="P" glyph-name="P" horiz-adv-x="715" d="M261 284Q247 284 245 269L210 19Q209 7 204 4T185 0H50Q35 0 35 16Q35 21 36 25L135 727Q137 737 139 739T150 742H449Q566 742 639 690T713 539Q713 460 674 403T567 315T412 284H261ZM535 578T507 597T428
617H312Q302 617 298 613T291 598L267 424L266 418Q266 412 268 411T277 409H399Q458 409 496 446T535 539Q535 578 507 597Z" />
<glyph unicode="Q" glyph-name="Q" horiz-adv-x="775" d="M76 493T129 577T264 707T449 752Q542 752 609 715T713 607T749 441Q749 402 743 361Q717 164 585 63Q574 55 577 48Q584 32 612 17T674 -3Q683 -5 685 -7T687 -17L674 -107Q673 -120 667 -123T641 -126Q583
-126 532 -97T447 -6Q443 1 436 1L428 -1Q395 -10 355 -10Q213 -10 134 71T55 297Q55 342 60 377Q76 493 129 577ZM233 298T233 263Q233 184 264 149T360 113Q445 113 494 176T562 376Q570 435 570 474Q570 554 540 592T445 630Q360 630 310 564T241 359Q233 298
233 263Z" />
<glyph unicode="R" glyph-name="R" horiz-adv-x="722" d="M639 19T639 12Q639 0 623 0H476Q467 0 462 4T455 21L386 302Q384 308 382 310T370 312H264Q257 312 254 310T250 300L210 19Q209 7 203 4T182 0H55Q32 0 36 25L135 727Q137 737 139 739T150 742H462Q585
742 652 695T720 562Q720 486 676 425T560 338Q543 332 546 322L637 23Q639 19 639 12ZM464 430T501 462T539 551Q539 588 513 606T441 625H308Q301 625 298 622T293 608L269 443V440Q269 430 279 430H401Q464 430 501 462Z" />
<glyph unicode="S" glyph-name="S" horiz-adv-x="677" d="M520 598T483 614T396 630Q334 630 296 605T258 536Q258 490 331 465L482 413Q560 387 597 346T634 245Q634 165 591 108T474 20T307 -10Q202 -10 129 25T20 126Q16 133 16 140Q16 147 24 152L103 200Q110
205 118 205Q130 205 140 192Q166 160 187 143T240 116T322 107Q385 107 424 130T463 204Q463 229 445 245T387 276L241 325Q169 349 132 395T94 502Q94 576 136 633T248 721T403 752Q489 752 554 722T656 643Q664 633 664 628Q664 623 657 619L568 560Q567 559
564 559Q558 559 543 574Q520 598 483 614Z" />
<glyph unicode="T" glyph-name="T" horiz-adv-x="681" d="M99 728Q100 736 103 739T117 742H699Q709 742 711 739T712 728L698 627Q697 620 693 618T681 616H494Q485 616 482 613T478 602L395 16Q394 7 391 4T379 0H237Q226 0 223 5T221 22L303 604V607Q303 616
293 616H99Q90 616 87 619T85 629L99 728Z" />
<glyph unicode="U" glyph-name="U" horiz-adv-x="721" d="M639 119T555 55T328 -10Q188 -10 124 47T60 219Q60 256 66 298L127 727Q128 736 130 739T141 742H284Q292 742 297 735T300 720L237 266Q233 234 233 223Q233 167 261 141T346 115Q415 115 460 154T517
278L580 728Q582 737 584 739T594 742H708Q715 742 720 735T723 720L660 270Q639 119 555 55Z" />
<glyph unicode="V" glyph-name="V" horiz-adv-x="733" d="M771 742T771 731Q771 727 768 721L426 17Q421 7 415 4T395 0H270Q256 0 250 3T242 17L99 722Q98 725 98 729Q98 742 113 742H260Q268 742 271 738T277 721L370 220Q372 211 374 211Q378 211 381 219L614
729Q618 737 622 739T635 742H757Q771 742 771 731Z" />
<glyph unicode="W" glyph-name="W" horiz-adv-x="1084" d="M1120 742T1120 730Q1120 725 1113 707L811 17Q806 7 800 4T781 0H673Q660 0 653 4T645 18L578 459Q578 466 574 466Q571 466 568 459L377 17Q372 7 366 4T347 0H234Q221 0 215 4T207 20L99 714Q98 717
98 723Q98 733 103 737T121 742H248Q260 742 265 737T272 721L337 269Q339 259 342 259Q346 259 349 269L544 729Q548 737 553 739T571 742H681Q693 742 696 737T702 721L769 263Q769 256 774 256Q778 256 781 265L974 729Q977 737 982 739T1000 742H1102Q1120
742 1120 730Z" />
<glyph unicode="X" glyph-name="X" horiz-adv-x="729" d="M662 19T662 11Q662 5 657 3T642 0H503Q491 0 485 3T474 15L363 246Q358 256 353 256Q350 256 342 245L164 12Q159 4 153 2T131 0H14Q-6 0 -6 13Q-6 22 9 43L265 364Q276 376 276 385Q276 392 274 396L107
722Q104 727 104 732Q104 742 119 742H265Q278 742 283 739T293 726L390 522Q393 514 397 514Q401 514 407 522L565 730Q571 738 576 740T595 742H724Q736 742 736 731Q736 723 730 713L482 405Q472 392 472 387Q472 383 475 377L653 35Q662 19 662 11Z" />
<glyph unicode="Y" glyph-name="Y" horiz-adv-x="735" d="M766 742T769 739T773 731Q773 727 769 721L477 333Q470 323 467 313T460 279L423 20Q422 7 417 4T396 0H264Q253 0 250 4T248 21L287 295Q288 300 288 308Q288 316 283 331L100 722Q97 730 97 734Q97
742 113 742H263Q274 742 279 737T290 721L402 460Q405 453 408 453Q412 453 416 460L605 728Q612 738 616 740T633 742H759Q766 742 769 739Z" />
<glyph unicode="Z" glyph-name="Z" horiz-adv-x="681" d="M9 0T4 4T0 21L5 61Q7 73 10 81T25 101L437 603Q444 610 444 611T436 613H130Q120 613 116 619T113 637L126 730Q128 738 130 740T139 742H696Q710 742 708 724L701 680Q700 671 697 664T687 648L263 138Q259
134 260 132T265 130H605Q614 130 616 127T618 116L603 13Q602 5 599 3T586 0H21Q9 0 4 4Z" />
<glyph unicode="[" glyph-name="bracketleft" horiz-adv-x="316" d="M19 -165T12 -157T7 -140L129 729Q130 738 133 740T148 742H353Q360 742 364 737T366 727L357 662Q356 657 355 656T347 655H267Q257 655 250 648T240 629L142 -66L141 -73Q141 -77 144 -77T150
-78T155 -78H235Q242 -78 247 -83T251 -96L242 -154Q240 -162 239 -163T229 -165H30Q19 -165 12 -157Z" />
<glyph unicode="\" glyph-name="backslash" horiz-adv-x="365" d="M219 -17T216 7L72 719L70 733Q70 738 73 740T84 742H152Q159 742 165 737T172 724L320 -6V-11Q320 -15 318 -16T309 -17H242Q219 -17 216 7Z" />
<glyph unicode="]" glyph-name="bracketright" horiz-adv-x="316" d="M-36 -165T-40 -160T-43 -150L-34 -85Q-33 -80 -32 -79T-23 -78H56Q66 -78 73 -71T83 -52L181 643L182 651Q182 654 180 654T174 655T169 655H88Q81 655 77 660T73 673L81 731Q83 739 84 740T94
742H294Q304 742 311 734T317 717L195 -152Q194 -161 191 -163T176 -165H-29Q-36 -165 -40 -160Z" />
<glyph unicode="^" glyph-name="asciicircum" horiz-adv-x="475" d="M261 364Q260 370 255 370Q252 370 248 366T242 356L117 130Q115 126 112 125T105 124T97 125H29Q23 125 20 129T16 140Q16 143 18 149L221 508Q230 524 243 532T270 540Q286 540 298 530T316
501L419 139L421 130Q421 127 418 126T409 125H344Q336 125 329 128T322 137L261 364Z" />
<glyph unicode="_" glyph-name="underscore" horiz-adv-x="544" d="M441 -125Q440 -137 435 -140T415 -143H15Q4 -143 -1 -136T-5 -119L5 -46Q7 -37 9 -35T19 -32H436Q443 -32 448 -38T451 -52L441 -125Z" />
<glyph unicode="`" glyph-name="grave" horiz-adv-x="306" d="M107 756T117 750L339 651Q345 648 347 642T347 628L330 593Q326 585 320 585Q319 585 307 587L85 649Q66 655 66 670Q66 673 68 679L102 745Q107 756 117 750Z" />
<glyph unicode="a" glyph-name="a" horiz-adv-x="563" d="M261 -10T157 -10Q87 -10 47 26T7 120Q7 191 54 236T172 302T321 325L357 328Q376 328 379 347L382 368Q383 373 383 384Q383 444 314 444Q235 444 197 382Q192 375 184 375Q178 375 175 376L78 399Q68
401 68 412Q68 422 73 432Q139 540 322 540Q430 540 480 502T531 397Q531 388 529 368L479 18Q478 5 475 3T461 0H358Q348 0 345 6T341 26L342 52Q342 60 337 60Q332 60 321 49Q261 -10 157 -10ZM364 241V247Q364 251 362 252T354 253L318 250Q260 246 210 221T160
144Q160 120 177 106T225 91Q251 91 274 98T314 119Q351 147 355 176L364 241Z" />
<glyph unicode="b" glyph-name="b" horiz-adv-x="609" d="M44 0Q32 0 26 7T22 26L121 727Q122 736 125 739T135 742H264Q274 742 274 728Q274 722 273 719L242 493V488Q242 484 245 484Q248 484 255 490Q324 540 399 540Q487 540 533 483T580 327Q580 244 552
167T464 40T316 -10Q266 -10 228 13T169 73Q166 77 162 77Q155 77 151 64L137 18Q133 7 129 4T114 0H44ZM197 178Q196 173 196 162Q196 126 219 105T277 84Q329 84 362 125T411 224T426 336Q426 391 406 416T345 442Q282 442 228 386L197 178Z" />
<glyph unicode="c" glyph-name="c" horiz-adv-x="551" d="M421 540T474 493T538 380V377Q538 371 535 369T523 365L422 356H421Q412 356 408 377Q394 409 380 424T333 439Q283 439 249 402T198 311T182 206Q182 147 207 118T279 89Q324 89 354 109T414 176Q417
180 420 180L430 178L501 161Q511 159 511 146L509 134Q480 80 418 35T265 -10Q194 -10 141 19T58 101T28 224Q28 308 66 380T172 496T330 540Q421 540 474 493Z" />
<glyph unicode="d" glyph-name="d" horiz-adv-x="609" d="M389 0Q366 0 369 18L374 47V50Q374 56 370 56Q366 56 360 50Q327 23 292 7T209 -10Q126 -10 77 44T28 202Q28 289 60 367T151 492T286 540Q327 540 356 526T408 481Q415 474 420 474Q424 474 428 480T433
500L466 727Q467 742 485 742H607Q621 742 618 718L518 19Q517 8 512 4T494 0H389ZM420 395Q402 419 382 430T335 441Q283 441 249 402T198 306T182 196Q182 139 205 113T270 86Q298 86 324 99T367 134T387 179L420 395Z" />
<glyph unicode="e" glyph-name="e" horiz-adv-x="586" d="M198 -10T143 19T58 100T28 222Q28 304 67 377T176 495T332 540Q437 540 499 478T561 307Q561 278 557 251Q555 243 551 240T534 236H197Q181 236 181 193Q181 146 211 121T291 95Q329 95 362 111T427
161Q432 166 437 166Q440 166 450 162L516 131Q528 127 528 118Q528 113 523 105Q465 40 408 15T269 -10Q198 -10 143 19ZM396 316Q420 316 420 355Q420 393 397 419T333 446Q283 446 245 409T200 316H396Z" />
<glyph unicode="f" glyph-name="f" horiz-adv-x="402" d="M412 530T415 527T417 515L407 438Q406 430 402 427T390 424H303Q298 424 296 421T292 409L237 14Q236 5 233 3T222 0H99Q92 0 87 6T83 22L139 416V418Q139 424 133 424H56Q48 424 46 429T45 444L56 517Q57
525 60 527T73 530H140Q147 530 152 535T158 549L166 610Q175 674 216 708T327 742H428Q439 742 445 737T450 723L442 651Q441 639 426 639H374Q351 639 334 624T312 583L306 541V539Q306 530 318 530H403Q412 530 415 527Z" />
<glyph unicode="g" glyph-name="g" horiz-adv-x="633" d="M99 -174T31 -143T-38 -56Q-38 13 67 50Q79 53 79 59Q79 63 71 66Q48 76 37 91T26 130Q26 164 57 188T131 228Q144 233 144 238Q144 242 137 245Q101 259 81 288T61 356Q61 416 96 457T189 518T312 538Q431
538 485 488Q491 482 498 486T517 502Q538 524 570 538T626 553Q638 553 643 549T648 534L638 466Q637 452 633 448T619 444Q581 444 564 441Q530 436 539 416Q545 402 545 381Q545 322 506 284T408 227T287 209Q251 209 209 201T167 169Q167 160 179 156T223 150L365
142Q545 132 545 4Q545 -94 449 -134T221 -174Q99 -174 31 -143ZM340 285T373 313T407 392Q407 424 383 442T314 461Q266 461 232 430T197 351Q197 321 222 303T291 285Q340 285 373 313ZM312 -101T359 -80T407 -19Q407 1 391 11T337 23L185 31Q149 25 120 8T91
-39Q91 -101 229 -101Q312 -101 359 -80Z" />
<glyph unicode="h" glyph-name="h" horiz-adv-x="597" d="M43 0Q32 0 27 6T22 25L121 728Q124 742 139 742H259Q267 742 270 738T272 724L237 480V475Q237 467 245 472Q297 509 338 524T421 540Q490 540 527 505T565 407Q565 393 562 376L512 20Q510 7 506 4T488
0H377Q367 0 362 7T358 25L406 363Q407 369 407 379Q407 429 349 429Q317 429 289 413T225 363L176 19Q174 6 170 3T150 0H43Z" />
<glyph unicode="i" glyph-name="i" horiz-adv-x="265" d="M260 615Q259 602 253 598T233 594H118Q103 594 103 613L104 621L119 722Q122 742 137 742H264Q271 742 273 735T274 719L260 615ZM175 20Q173 7 169 4T149 0H43Q31 0 26 7T22 25L91 515Q92 524 95 527T106
530H233Q246 530 244 508L175 20Z" />
<glyph unicode="j" glyph-name="j" horiz-adv-x="265" d="M260 615Q259 602 253 598T233 594H118Q103 594 103 613L104 621L119 722Q122 742 137 742H264Q271 742 273 735T274 719L260 615ZM160 -88T113 -129T-27 -170Q-70 -170 -84 -165T-97 -145L-86 -66Q-84
-51 -71 -49L-29 -44Q-9 -42 4 -28T21 17L91 515Q92 524 95 527T107 530H229Q236 530 241 523T245 508L173 1Q160 -88 113 -129Z" />
<glyph unicode="k" glyph-name="k" horiz-adv-x="604" d="M549 11Q549 0 534 0H404Q387 0 379 24L304 228Q301 236 297 236Q294 236 286 230L206 158Q193 147 191 132L176 20Q174 7 170 4T150 0H45Q20 0 22 25L121 727Q122 737 125 739T136 742H264Q271 742 273
736T274 720L217 309Q217 308 217 307T216 306Q216 304 225 314L443 518Q456 530 471 530H578Q587 530 592 526T598 515Q598 508 591 502L429 360Q418 351 418 340Q418 335 419 331L547 20L549 11Z" />
<glyph unicode="l" glyph-name="l" horiz-adv-x="266" d="M176 20Q174 7 169 4T149 0H43Q31 0 25 7T21 25L124 727Q125 736 127 739T138 742H264Q277 742 274 723L176 20Z" />
<glyph unicode="m" glyph-name="m" horiz-adv-x="919" d="M31 0T26 6T22 25L91 516Q92 524 95 527T105 530H232Q242 530 242 521Q242 516 241 513L235 472V469Q235 461 243 467Q293 504 334 522T418 541Q470 541 503 516T547 449Q549 445 550 445Q554 445 566
457Q610 495 658 517T749 540Q813 540 849 504T886 405Q886 385 884 374L835 20Q833 8 828 4T811 0H700Q690 0 685 7T681 25L728 357Q730 365 730 379Q730 429 675 429Q646 429 618 414T568 375Q552 359 551 346L504 20Q503 7 499 4T481 0H371Q361 0 356 7T352
25L400 363Q401 368 401 378Q401 429 345 429Q314 429 286 413T225 363L175 19Q173 6 169 3T149 0H43Q31 0 26 6Z" />
<glyph unicode="n" glyph-name="n" horiz-adv-x="596" d="M21 0T21 16L22 25L91 516Q92 524 95 527T105 530H233Q239 530 241 528T242 517L235 467V463Q235 459 237 459Q239 459 245 465Q335 540 420 540Q487 540 525 504T564 406Q564 396 562 378L512 20Q510
7 505 4T487 0H372Q357 0 357 16L358 25L405 359Q407 373 407 378Q407 429 348 429Q316 429 288 413T225 363L175 19Q173 7 168 4T148 0H36Q21 0 21 16Z" />
<glyph unicode="o" glyph-name="o" d="M194 -10T140 19T57 101T28 223Q28 314 69 386T181 499T333 540Q405 540 459 510T541 426T570 302Q570 213 530 142T421 31T266 -10Q194 -10 140 19ZM312 92T345 120T398 202T418 332Q418 385 396 413T331 441Q289 441 256
413T202 330T182 199Q182 146 204 119T270 92Q312 92 345 120Z" />
<glyph unicode="p" glyph-name="p" horiz-adv-x="609" d="M-2 -165T-2 -151Q-2 -145 -1 -142L90 513Q92 524 95 527T112 530H222Q235 530 239 527T242 513L238 483V482Q238 478 242 478Q248 478 255 485Q294 512 325 526T403 540Q483 540 531 486T580 330Q580
248 554 170T471 41T329 -10Q248 -10 199 48Q193 54 189 54Q180 54 176 31L151 -152Q149 -161 147 -163T137 -165H8Q-2 -165 -2 -151ZM326 87T360 127T411 226T427 339Q427 443 339 443Q310 443 285 431T243 399T223 359L189 134Q206 110 226 99T274 87Q326 87
360 127Z" />
<glyph unicode="q" glyph-name="q" horiz-adv-x="609" d="M339 -165T342 -143L367 28L368 35Q368 39 366 39Q363 39 355 34Q283 -10 217 -10Q128 -10 79 47T29 207Q29 287 57 363T144 490T290 541Q350 541 387 517T445 457Q446 453 450 453Q456 453 463 468L483
513Q487 523 491 526T505 530H573Q582 530 585 527T589 515Q589 508 588 503L496 -151Q495 -160 490 -162T475 -165H353Q339 -165 342 -143ZM328 86T379 135L412 351Q413 357 413 368Q413 404 392 426T334 448Q283 448 249 408T199 309T183 198Q183 142 205 114T269
86Q328 86 379 135Z" />
<glyph unicode="r" glyph-name="r" horiz-adv-x="426" d="M31 0T26 7T22 25L91 516Q92 525 94 527T105 530H224Q242 530 238 509L231 464V460Q231 453 235 453Q238 453 244 459Q279 496 322 518T400 540Q421 540 431 537T440 525L424 413Q423 402 421 399T412
397Q378 402 344 402Q318 402 289 389T240 354T216 311L175 19Q173 6 169 3T149 0H43Q31 0 26 7Z" />
<glyph unicode="s" glyph-name="s" horiz-adv-x="530" d="M145 -10T85 22T2 106Q-1 112 -1 116Q-1 123 9 129L74 160Q86 164 89 164Q98 164 105 153Q122 122 151 105T233 87Q273 87 310 101T348 150Q348 165 334 176T286 197L187 222Q119 239 87 270T54 352Q54
411 87 453T177 518T299 540Q373 540 424 512T502 438Q505 434 505 428Q505 421 497 417L431 387Q428 385 423 385Q415 385 404 399Q389 420 362 433T296 446Q256 446 226 431T195 388Q195 373 204 364T242 346L352 319Q420 302 453 265T486 177Q486 116 450 74T357
11T237 -10Q145 -10 85 22Z" />
<glyph unicode="t" glyph-name="t" horiz-adv-x="432" d="M167 0T130 29T93 109Q93 125 94 134L134 412V414Q134 424 118 424H56Q42 424 45 446L56 519Q57 527 59 528T72 530H141Q145 530 149 535T156 545L192 697Q195 710 211 710H319Q327 710 329 705T331 687L309
542V540Q309 536 312 534T319 531H422Q430 531 435 528T439 517L428 437Q427 429 424 427T409 424H303Q290 424 287 408L253 166Q252 160 252 148Q252 125 265 117T309 108H363Q370 108 374 101T378 87L368 25Q367 7 349 4Q304 0 231 0Q167 0 130 29Z" />
<glyph unicode="u" glyph-name="u" horiz-adv-x="592" d="M108 -10T71 26T33 126Q33 147 34 156L84 510Q86 523 90 526T108 530H218Q229 530 234 523T237 504L190 171Q189 165 189 154Q189 101 244 101Q301 101 367 163L418 511Q419 523 424 526T443 530H551Q562
530 568 523T572 504L500 14Q499 5 497 3T486 0H367Q349 0 352 14L360 63V65Q360 69 357 69Q352 69 346 63Q301 24 259 7T170 -10Q108 -10 71 26Z" />
<glyph unicode="v" glyph-name="v" horiz-adv-x="573" d="M581 530T586 521T587 503L320 17Q314 7 308 4T288 0H217Q205 0 198 6T188 25L57 510Q56 512 56 517Q56 530 71 530H198Q206 530 212 524T219 510L293 214Q295 208 297 208Q301 208 309 223L464 518Q469
525 473 527T485 530H572Q581 530 586 521Z" />
<glyph unicode="w" glyph-name="w" horiz-adv-x="818" d="M824 530T829 521T830 503L597 12Q593 4 590 2T577 0H495Q484 0 478 6T471 22L422 297Q421 304 418 304Q413 304 408 290L281 12Q277 4 274 2T260 0H175Q165 0 159 6T152 22L58 510L57 516Q57 530 72 530H190Q197
530 203 524T210 510L261 226Q261 220 264 220Q266 220 269 224T275 235L402 518Q407 530 423 530H507Q514 530 520 524T527 510L575 226Q577 220 579 220Q584 220 589 235L716 518Q724 530 738 530H815Q824 530 829 521Z" />
<glyph unicode="x" glyph-name="x" horiz-adv-x="591" d="M536 14T536 8Q536 0 517 0H392Q381 0 373 5T360 20L277 163Q271 173 267 173Q263 173 251 158L126 12Q121 5 111 3T86 0H-4Q-21 0 -21 10Q-21 21 -1 44L193 254Q205 266 205 275Q205 280 202 286L69 506Q65
514 65 518Q65 530 83 530H205Q228 530 235 510L310 379Q313 375 315 375Q320 375 327 387L435 518Q442 526 447 528T468 530H565Q579 530 579 520Q579 514 572 503L393 301Q382 288 382 281Q382 277 385 271L526 30Q536 14 536 8Z" />
<glyph unicode="y" glyph-name="y" horiz-adv-x="566" d="M7 -165T-4 -161T-13 -145L-2 -68Q0 -53 33 -53H99Q132 -53 156 -30T180 19Q180 26 179 29L51 502Q50 506 50 513Q50 530 66 530H203Q211 530 215 527T221 517L291 219Q293 207 299 207Q305 207 311 221L459
510Q468 530 485 530H571Q583 530 583 523Q583 519 578 511L301 4Q263 -65 227 -101T147 -151T37 -165Q7 -165 -4 -161Z" />
<glyph unicode="z" glyph-name="z" horiz-adv-x="519" d="M-6 0T-9 4T-11 19L-6 54Q-4 66 0 73T19 97L309 415Q314 422 314 425Q314 433 298 433H84Q75 433 72 437T71 453L80 515Q81 522 87 526T101 530H513Q527 530 524 516L518 475Q517 466 512 459T497 439L204
118Q200 114 200 108Q200 104 203 101T212 98H453Q461 98 464 95T466 82L457 17Q455 0 438 0H6Q-6 0 -9 4Z" />
<glyph unicode="{" glyph-name="braceleft" horiz-adv-x="366" d="M161 -165T117 -135T73 -53Q73 -43 74 -37L103 171Q104 176 104 185Q104 254 15 254Q8 254 4 260T1 275L8 320Q9 327 10 329T13 332Q125 332 139 428L167 624Q175 681 225 711T339 742H402Q409
742 413 737T416 727L407 662Q406 657 405 656T396 655H364Q324 655 308 640T289 598L260 395Q246 309 144 294Q136 294 131 292T130 288Q172 285 201 263T230 193Q230 181 229 175L200 -29Q199 -35 199 -44Q199 -64 211 -71T255 -78H285Q292 -78 296 -83T301 -96L292
-154Q290 -162 289 -163T279 -165H221Q161 -165 117 -135Z" />
<glyph unicode="|" glyph-name="bar" horiz-adv-x="251" d="M35 -165Q24 -165 18 -157T14 -135L149 831Q151 842 154 844T168 847H242Q251 847 256 841T260 826L123 -154Q122 -161 119 -163T108 -165H35Z" />
<glyph unicode="}" glyph-name="braceright" horiz-adv-x="366" d="M-36 -165T-40 -160T-43 -150L-34 -85Q-33 -80 -32 -79T-23 -78H9Q49 -78 65 -63T84 -21L113 182Q127 268 229 283Q237 283 242 285T243 289Q201 292 172 314T143 384Q143 396 144 402L173 606Q174
612 174 621Q174 641 162 648T118 655H88Q81 655 77 660T72 673L81 731Q83 739 84 740T94 742H152Q212 742 256 712T300 630Q300 620 299 614L270 406Q269 401 269 392Q269 323 357 323Q364 323 368 317T371 302L364 257Q363 250 362 248T359 245Q248 245 234 149L206
-47Q198 -104 148 -134T34 -165H-29Q-36 -165 -40 -160Z" />
<glyph unicode="~" glyph-name="asciitilde" horiz-adv-x="609" d="M537 330T498 312T417 293Q386 293 363 302T311 328Q288 342 271 349T233 357Q199 357 171 339T112 287L108 286Q99 286 95 299L70 353Q68 359 68 362Q68 369 75 379Q123 417 158 435T235 453Q266
453 289 444T341 418Q363 404 380 397T416 390Q449 390 476 408T525 454Q529 456 531 456Q540 456 548 439L568 395Q570 392 570 384Q570 374 566 365Q537 330 498 312Z" />
<glyph unicode="&#xa0;" glyph-name="uni00A0" horiz-adv-x="206" />
<glyph unicode="&#xa1;" glyph-name="exclamdown" horiz-adv-x="264" d="M231 371T229 369T219 367H82Q75 367 70 374T66 390L84 514Q86 525 89 527T105 530H223Q238 530 244 523T249 502L232 379Q231 371 229 369ZM162 -160T160 -162T150 -165H3Q-4 -165 -9 -158T-12
-142L85 283Q89 293 92 295T106 298H159Q172 298 179 291T184 271L162 -153Q162 -160 160 -162Z" />
<glyph unicode="&#xa2;" glyph-name="cent" horiz-adv-x="558" d="M516 488Q516 482 513 480T501 476L400 467H399Q390 467 386 488Q372 520 358 535T311 550Q261 550 227 513T176 422T160 317Q160 258 185 229T257 200Q302 200 332 220T392 287Q395 291 398 291L408
289L479 272Q489 270 489 257L487 245Q467 207 427 170T329 114L316 20Q315 7 310 4T291 0H239Q227 0 221 7T216 27L226 101Q160 104 110 134T33 216T6 335Q6 418 43 490T148 606T304 651L314 723Q316 735 320 738T338 742H393Q404 742 410 735T414 717L402 634Q451
613 480 575T516 491V488Z" />
<glyph unicode="&#xa3;" glyph-name="sterling" horiz-adv-x="645" d="M-14 0T-19 6T-23 21L-9 119Q-8 125 -7 126T2 127H25Q65 127 93 155T131 239Q134 265 138 346Q137 348 135 348T129 347H44Q39 347 36 352T33 364L42 426Q42 430 43 431T46 432T49 432H116Q121
432 126 437T132 448L133 530Q134 600 170 650T266 726T392 752Q469 752 532 714T612 606Q615 603 615 602Q615 600 606 597L498 565L494 564Q488 564 484 568T479 581Q469 604 454 617T410 630Q372 630 344 605T310 537Q308 511 308 490L309 434Q310 432 318 432H447Q452
432 456 428T459 418L450 353Q450 350 449 349T446 347T442 348H329Q313 348 310 329Q306 278 293 231Q284 199 270 177T236 135Q234 134 230 132T227 129T233 128H350Q395 128 424 146T472 205Q475 208 479 208Q483 208 492 205L583 186Q592 184 596 176T598 158Q565
81 501 41T350 0H-7Q-14 0 -19 6Z" />
<glyph unicode="&#xa4;" glyph-name="currency" horiz-adv-x="575" d="M212 148T167 185H165Q154 185 147 176L87 124L83 122Q77 122 69 132L30 177Q21 188 27 195L88 247Q96 257 95 270Q76 310 76 348Q76 363 79 381Q86 438 123 494Q133 499 129 505L84 557Q75
568 82 576L134 622Q137 625 140 625Q146 625 151 616L197 564Q199 562 200 562Q204 562 211 571Q273 597 326 597Q393 597 440 560Q450 560 456 569L515 620L517 621Q520 621 524 613L570 560Q571 559 573 555T573 548L513 496Q507 490 507 482Q528 443 528 395Q528
385 526 365Q516 300 478 248Q476 249 475 248T474 244L518 192Q526 184 522 179L462 127Q461 126 459 126Q456 126 452 134L407 185L405 186Q402 186 396 177Q335 148 279 148Q212 148 167 185ZM318 249T352 270T408 325T429 396Q429 438 400 467T326 497Q288
497 254 476T198 421T177 349Q177 307 205 278T279 249Q318 249 352 270Z" />
<glyph unicode="&#xa5;" glyph-name="yen" horiz-adv-x="658" d="M725 742T730 738T735 728Q735 724 732 719L460 358H570Q577 358 582 352T586 337L579 292Q578 281 573 278T554 275H424L413 196H547Q554 196 559 190T563 176L556 131Q555 119 550 116T531 113H401L388
20Q387 7 382 4T361 0H236Q224 0 218 7T214 26L226 113H97Q86 113 81 120T76 138L83 182Q85 191 87 193T97 196H238L249 274H120Q109 274 104 281T99 299L106 344Q107 353 109 355T119 357H236L66 722Q62 732 62 734Q62 742 79 742H230Q242 742 247 737T256 721L368
460Q371 453 374 453Q378 453 385 466L571 728Q577 738 581 740T600 742H718Q725 742 730 738Z" />
<glyph unicode="&#xa6;" glyph-name="brokenbar" horiz-adv-x="251" d="M118 429Q108 429 103 434T97 450Q97 455 98 458L149 831Q151 842 154 844T168 847H242Q251 847 256 841T260 826L206 439Q205 432 202 431T191 429H118ZM35 -165Q24 -165 18 -157T14 -135L66
237Q67 248 70 250T84 253H158Q167 253 172 247T177 232L123 -154Q122 -161 119 -163T108 -165H35Z" />
<glyph unicode="&#xa7;" glyph-name="section" horiz-adv-x="506" d="M421 191T439 165T457 102Q457 49 429 8T345 -57T215 -80Q131 -80 74 -49T0 28Q-11 43 -4 46L74 81Q76 82 79 82Q88 82 94 67Q115 42 143 28T213 13Q259 13 288 31T318 83Q318 99 304 112T251
140L177 170Q106 198 73 232T40 315Q40 421 149 472Q83 514 83 579Q83 627 111 666T190 729T308 752Q381 752 433 722T503 649Q510 640 510 637T506 631L429 597Q427 596 424 596Q415 596 409 611Q387 633 365 646T312 659Q275 659 250 642T222 599Q219 586 229
575T271 550L343 521Q418 491 452 455T487 368Q487 315 461 278T385 213Q421 191 439 165ZM314 264T337 287T360 342Q360 359 346 373T294 404L251 420Q215 417 191 393T166 338Q166 323 179 312T233 284L281 265Q314 264 337 287Z" />
<glyph unicode="&#xa8;" glyph-name="dieresis" horiz-adv-x="359" d="M197 628Q196 617 192 615T174 612H81Q70 612 65 618T62 635L75 729Q76 738 78 740T88 742H196Q203 742 207 736T211 722L197 628ZM400 628Q399 617 395 615T377 612H284Q273 612 268 618T265
635L278 729Q279 738 281 740T291 742H399Q406 742 410 736T413 722L400 628Z" />
<glyph unicode="&#xa9;" glyph-name="copyright" horiz-adv-x="830" d="M286 -10T210 34T90 154T46 324Q46 354 50 379Q64 481 126 566T282 702T477 752Q573 752 650 708T770 587T814 417Q814 387 810 363Q795 260 733 175T577 40T382 -10Q286 -10 210 34ZM467
75T539 113T659 220T719 379Q722 405 722 428Q722 501 692 555T606 638T478 668Q392 668 320 630T200 522T140 363Q136 327 136 312Q136 202 202 139T382 75Q467 75 539 113ZM527 586T568 548T619 458L621 454Q621 451 617 451T612 450L528 441H527Q523 441 520
446T517 459Q510 480 498 492T462 505Q420 505 390 469T350 365Q347 344 347 326Q347 283 365 262T418 240Q452 240 476 258T523 313Q525 313 528 311T535 308L590 294Q598 292 598 281L597 272Q574 230 527 195T409 160Q327 160 276 211T225 344Q225 361 228 380Q237
441 269 487T351 560T457 586Q527 586 568 548Z" />
<glyph unicode="&#xaa;" glyph-name="ordfeminine" horiz-adv-x="390" d="M387 750T387 659Q387 647 386 640L362 470Q360 452 360 446L361 420Q362 419 362 417Q362 414 358 414T349 413T341 413H282Q274 413 271 417T267 430V445L266 447Q264 447 254 435Q224
420 204 414T161 407Q112 407 86 430T59 492Q59 604 247 616L274 619Q280 619 285 624T291 634L293 645L294 655Q294 673 284 680T252 688Q205 688 179 645Q178 644 176 644Q175 644 173 645T166 648L102 663Q100 665 99 672T98 686Q122 720 156 735T251 751Q387
750 387 659ZM154 485T164 477T195 469Q211 469 226 475T251 493Q272 502 275 521L280 560L281 564Q281 566 272 565L248 564Q213 561 187 544T156 499Q154 485 164 477Z" />
<glyph unicode="&#xab;" glyph-name="guillemotleft" horiz-adv-x="487" d="M211 72Q212 70 212 67Q212 65 208 65T201 65H145Q141 65 137 69T132 77L50 243Q45 253 45 262Q45 270 50 278L182 453Q185 457 187 458T191 459T195 458H253Q259 458 263 453T265 440L166
264Q159 251 160 242L211 72ZM407 72Q408 70 408 67Q408 65 404 65T397 65H342Q338 65 334 69T329 77L246 243Q242 251 242 262Q242 271 246 278L378 453Q381 457 383 458T387 459T391 458H449Q455 458 459 453T461 440L362 264Q355 251 356 242L407 72Z" />
<glyph unicode="&#xac;" glyph-name="logicalnot" horiz-adv-x="583" d="M548 429T552 423T556 409L551 375V370L523 178Q522 167 519 165T501 162H419Q409 162 404 168T400 184L419 318L80 317Q68 317 63 324T59 342L70 415Q71 424 73 426T83 429H541Q548 429 552 423Z" />
<glyph unicode="&#xad;" glyph-name="uni00AD" horiz-adv-x="380" d="M544 226Q543 214 538 211T519 208H284Q273 208 268 215T263 232L274 305Q275 314 278 316T288 319H540Q547 319 551 313T555 299L544 226Z" />
<glyph unicode="&#xae;" glyph-name="registered" horiz-adv-x="545" d="M395 752T443 724T519 647T547 539Q547 517 545 505Q536 442 497 389T401 306T280 275Q219 275 171 303T95 379T68 486Q68 509 70 521Q79 585 117 637T213 721T335 752Q395 752 443 724ZM483
532T483 553Q483 617 445 654T339 691Q258 691 202 640T134 505Q132 494 132 472Q132 408 170 372T276 336Q356 336 412 386T481 521Q483 532 483 553ZM374 630T397 614T420 569Q420 545 407 528T373 501Q370 502 368 501T365 496L392 398Q392 397 392 396T390
394H339Q336 394 334 397T332 403L312 496Q311 497 310 497T304 496H275Q273 496 271 493T267 488L254 397Q254 394 253 394T248 394H204Q200 394 198 398T196 405L227 628V630H229H335Q374 630 397 614ZM360 580T354 584T330 588H291Q287 588 284 586T280 579L274
539V538H276H319Q334 538 345 547T359 571Q360 580 354 584Z" />
<glyph unicode="&#xaf;" glyph-name="overscore" horiz-adv-x="385" d="M430 653Q429 643 425 641T407 638H83Q74 638 69 644T66 660L74 725Q75 732 77 734T86 736H425Q431 736 435 730T439 717L430 653Z" />
<glyph unicode="&#xb0;" glyph-name="degree" horiz-adv-x="464" d="M465 649T439 605T369 537T273 512Q203 512 160 554T117 664Q117 719 142 763T212 832T309 857Q379 857 422 815T465 704Q465 649 439 605ZM374 697T374 705Q374 735 357 751T307 768Q264 768
235 738T205 661Q205 632 222 615T271 598Q311 598 339 624T373 692Q374 697 374 705Z" />
<glyph unicode="&#xb1;" glyph-name="plusminus" horiz-adv-x="583" d="M561 517T565 511T569 496L558 423Q557 411 552 408T532 405H368L343 228Q342 222 339 220T329 218H256Q244 218 238 226T234 249L256 405H92Q80 405 75 412T72 430L82 503Q83 512 86 514T96
517H272L297 689Q298 700 301 702T315 705H388Q397 705 403 699T407 685L383 517H554Q561 517 565 511ZM508 146T513 140T516 126L506 53Q505 41 500 38T480 35H40Q28 35 23 41T20 59L30 132Q31 141 34 143T44 146H501Q508 146 513 140Z" />
<glyph unicode="&#xb2;" glyph-name="uni00B2" horiz-adv-x="452" d="M171 588Q238 639 263 668T289 726Q289 751 274 764T231 777Q203 777 176 759T127 708Q124 704 118 706L50 746Q47 748 47 750Q47 755 54 763Q87 808 136 832T240 857Q312 857 354 824T396
732Q396 684 370 649T286 572L163 482Q159 479 159 477T163 475H353Q358 475 361 472T363 465L354 393Q353 388 351 386T342 384H14Q-2 384 0 400L7 448Q8 455 13 460T39 482L171 588Z" />
<glyph unicode="&#xb3;" glyph-name="uni00B3" horiz-adv-x="467" d="M78 784T78 788Q78 793 82 796Q113 824 158 840T251 857Q328 857 371 827T414 746Q414 707 388 676T321 632Q317 631 317 629T321 626Q356 616 377 590T398 529Q398 456 341 417T188 378Q127
378 84 400T19 460Q13 469 17 472L74 510Q82 514 85 509Q109 480 134 468T193 455Q234 455 262 476T291 530Q291 556 270 571T214 587H155Q148 587 148 595L156 658Q157 663 167 663L210 665Q249 665 277 686T306 737Q306 757 290 769T246 782Q215 782 192 771T136
734Q129 730 123 735L80 782Q78 784 78 788Z" />
<glyph unicode="&#xb4;" glyph-name="acute" horiz-adv-x="306" d="M351 671Q352 668 352 662Q352 652 336 648L96 586Q93 585 89 585Q76 585 73 601L65 636Q64 640 64 645Q64 651 69 653L319 752Q320 753 323 753Q327 753 330 749T336 738L351 671Z" />
<glyph unicode="&#xb6;" glyph-name="paragraph" horiz-adv-x="603" d="M558 655Q553 655 548 650T542 639L441 -75Q441 -76 441 -79T438 -84T431 -85H364Q357 -85 353 -79T349 -66L449 650Q450 654 449 654T445 655T442 655H404Q400 655 395 650T388 639L287
-76Q287 -82 286 -83T277 -85H208Q202 -85 198 -80T195 -67L247 304Q247 308 246 309T245 310Q165 315 115 363T65 494Q65 511 68 530Q77 589 110 637T201 714T334 742H605Q611 742 615 738T618 727L609 661Q608 655 607 655T600 655H558Z" />
<glyph unicode="&#xb7;" glyph-name="middot" horiz-adv-x="248" d="M207 316Q206 304 202 301T184 298H72Q61 298 56 305T52 321L69 436Q70 445 72 447T81 449H210Q217 449 221 443T223 429L207 316Z" />
<glyph unicode="&#xb8;" glyph-name="cedilla" horiz-adv-x="261" d="M149 -55T171 -77T194 -130Q194 -171 157 -195T65 -219Q-3 -219 -43 -191Q-48 -190 -51 -186T-53 -178L-33 -143Q-31 -141 -31 -141Q-30 -141 -29 -144T-26 -149Q14 -165 42 -165Q70 -165 87
-153T104 -120Q104 -105 87 -99T28 -92Q19 -92 15 -88T13 -78L64 5H132L105 -51Q103 -54 102 -54Q149 -55 171 -77Z" />
<glyph unicode="&#xb9;" glyph-name="uni00B9" horiz-adv-x="367" d="M267 461T269 459T271 452L262 388Q261 383 259 382T250 380H-2Q-8 380 -10 382T-11 390L-2 454Q-2 458 0 459T8 461H75Q82 461 82 469L120 733Q120 736 119 737T114 737L47 718Q45 717 42
717Q38 717 36 720T35 728L42 774Q43 781 44 783T52 788L164 840Q178 847 191 847H237Q246 847 244 835L192 466Q191 461 196 461H262Q267 461 269 459Z" />
<glyph unicode="&#xba;" glyph-name="ordmasculine" horiz-adv-x="399" d="M331 752T372 710T413 599Q413 589 411 569Q400 497 350 453T225 408Q155 408 115 449T74 556Q74 613 99 657T167 727T261 752Q331 752 372 710ZM228 686T206 657T176 572Q173 551 173
535Q173 474 222 474Q258 474 281 503T312 589Q315 607 315 622Q315 686 264 686Q228 686 206 657Z" />
<glyph unicode="&#xbb;" glyph-name="guillemotright" horiz-adv-x="486" d="M129 263T127 272L78 448L77 453Q77 458 85 458H143Q151 458 156 446L239 270Q243 260 243 253Q243 246 237 235L107 70Q105 67 102 66T95 65H39Q30 65 26 69T23 80L122 250Q129 263
127 272ZM325 263T323 272L274 448L273 453Q273 458 282 458H339Q348 458 353 446L435 270Q439 258 439 253Q439 244 433 235L304 70Q301 67 298 66T291 65H235Q227 65 222 69T220 80L318 250Q325 263 323 272Z" />
<glyph unicode="&#xbc;" glyph-name="onequarter" horiz-adv-x="941" d="M256 357T258 355T260 348L251 284Q250 279 248 278T239 276H-13Q-19 276 -21 278T-22 286L-13 350Q-13 354 -11 355T-3 357H64Q71 357 71 365L109 629Q109 632 108 633T103 633L36 614Q34
613 31 613Q27 613 25 616T24 624L31 670Q32 677 33 679T41 684L153 736Q167 743 180 743H226Q235 743 233 731L181 362Q180 357 185 357H251Q256 357 258 355ZM186 3Q182 -2 178 -3T169 -4T161 -4L119 -3Q111 -3 107 2T102 14Q102 21 107 29L683 743Q690 751 696
751L706 750H759Q764 750 768 747T773 738Q773 735 770 730L186 3ZM701 463T705 465T719 467H801Q806 467 808 464T810 456L772 189Q771 185 776 185H830Q841 185 840 176L832 119Q830 113 828 112T820 110H768Q760 110 759 102L747 12Q746 5 743 3T731 0H649Q641
0 638 2T636 12L649 105Q650 108 649 109T644 110H452Q439 110 442 121L449 177Q451 186 468 207L694 457Q701 463 705 465ZM654 185Q661 185 662 192L684 348V351Q684 353 683 353Q682 353 676 347L540 192Q533 185 541 185H654Z" />
<glyph unicode="&#xbd;" glyph-name="onehalf" horiz-adv-x="992" d="M256 357T258 355T260 348L251 284Q250 279 248 278T239 276H-13Q-19 276 -21 278T-22 286L-13 350Q-13 354 -11 355T-3 357H64Q71 357 71 365L109 629Q109 632 108 633T103 633L36 614Q34
613 31 613Q27 613 25 616T24 624L31 670Q32 677 33 679T41 684L153 736Q167 743 180 743H226Q235 743 233 731L181 362Q180 357 185 357H251Q256 357 258 355ZM215 3Q211 -2 207 -3T198 -4T190 -4L148 -3Q140 -3 136 2T131 14Q131 21 136 29L712 743Q719 751 725
751L735 750H788Q793 750 797 747T802 738Q802 735 799 730L215 3ZM667 204Q734 255 759 284T785 342Q785 367 770 380T727 393Q699 393 672 375T623 324Q620 320 614 322L546 362Q543 364 543 366Q543 371 550 379Q583 424 632 448T736 473Q808 473 850 440T892
348Q892 300 866 265T782 188L659 98Q655 95 655 93T659 91H849Q854 91 857 88T859 81L850 9Q849 4 847 2T838 0H510Q494 0 496 16L503 64Q504 71 509 76T535 98L667 204Z" />
<glyph unicode="&#xbe;" glyph-name="threequarters" horiz-adv-x="1011" d="M66 679T66 683Q66 688 70 691Q101 719 146 735T239 752Q316 752 359 722T402 641Q402 602 376 571T309 527Q305 526 305 524T309 521Q344 511 365 485T386 424Q386 351 329 312T176
273Q115 273 72 295T7 355Q1 364 5 367L62 405Q70 409 73 404Q97 375 122 363T181 350Q222 350 250 371T279 425Q279 451 258 466T202 482H143Q136 482 136 490L144 553Q145 558 155 558L198 560Q237 560 265 581T294 632Q294 652 278 664T234 677Q203 677 180
666T124 629Q117 625 111 630L68 677Q66 679 66 683ZM286 3Q282 -2 278 -3T269 -4T261 -4L219 -3Q211 -3 207 2T202 14Q202 21 207 29L783 743Q790 751 796 751L806 750H859Q864 750 868 747T873 738Q873 735 870 730L286 3ZM764 463T768 465T782 467H864Q869 467
871 464T873 456L835 189Q834 185 839 185H893Q904 185 903 176L895 119Q893 113 891 112T883 110H831Q823 110 822 102L810 12Q809 5 806 3T794 0H712Q704 0 701 2T699 12L712 105Q713 108 712 109T707 110H515Q502 110 505 121L512 177Q514 186 531 207L757 457Q764
463 768 465ZM717 185Q724 185 725 192L747 348V351Q747 353 746 353Q745 353 739 347L603 192Q596 185 604 185H717Z" />
<glyph unicode="&#xbf;" glyph-name="questiondown" horiz-adv-x="533" d="M234 511Q236 523 241 526T261 530H380Q392 530 397 523T401 505L383 381Q382 372 380 370T369 367H232Q225 367 221 373T217 388L234 511ZM486 -5T486 -20Q486 -23 484 -31Q441 -101
372 -138T213 -175Q103 -175 45 -131T-14 -15Q-14 -8 -12 8Q-7 44 11 71T52 117T113 161Q165 195 192 222T225 291Q227 302 243 302H326Q335 302 341 294T345 271Q339 232 321 202T282 151T224 102Q184 72 164 51T139 -1L138 -10Q138 -36 160 -51T217 -67Q258 -67
298 -42T359 21Q363 25 366 25Q369 25 372 24T379 21L476 -2Q486 -5 486 -20Z" />
<glyph unicode="&#xc0;" glyph-name="Agrave" horiz-adv-x="771" d="M-6 0T-6 10Q-6 19 1 33L348 726Q353 736 360 739T380 742H530Q548 742 552 716L702 23Q703 20 703 15Q703 0 689 0H543Q529 0 526 18L495 163Q494 171 483 171H241Q230 171 224 159L148 9Q146
4 142 2T130 0H4Q-6 0 -6 10ZM461 304Q475 304 472 321L420 552Q419 562 414 562Q409 562 405 552L289 319Q286 313 286 309Q286 304 295 304H461ZM361 968T371 962L593 863Q599 860 601 854T601 840L584 805Q580 797 574 797Q573 797 561 799L339 861Q320 867
320 882Q320 885 322 891L356 957Q361 968 371 962Z" />
<glyph unicode="&#xc1;" glyph-name="Aacute" horiz-adv-x="771" d="M-6 0T-6 10Q-6 19 1 33L348 726Q353 736 360 739T380 742H530Q548 742 552 716L702 23Q703 20 703 15Q703 0 689 0H543Q529 0 526 18L495 163Q494 171 483 171H241Q230 171 224 159L148 9Q146
4 142 2T130 0H4Q-6 0 -6 10ZM461 304Q475 304 472 321L420 552Q419 562 414 562Q409 562 405 552L289 319Q286 313 286 309Q286 304 295 304H461ZM610 883Q611 880 611 874Q611 864 595 860L355 798Q352 797 348 797Q335 797 332 813L324 848Q323 852 323 857Q323
863 328 865L578 964Q579 965 582 965Q586 965 589 961T595 950L610 883Z" />
<glyph unicode="&#xc2;" glyph-name="Acircumflex" horiz-adv-x="771" d="M-6 0T-6 10Q-6 19 1 33L348 726Q353 736 360 739T380 742H530Q548 742 552 716L702 23Q703 20 703 15Q703 0 689 0H543Q529 0 526 18L495 163Q494 171 483 171H241Q230 171 224 159L148
9Q146 4 142 2T130 0H4Q-6 0 -6 10ZM461 304Q475 304 472 321L420 552Q419 562 414 562Q409 562 405 552L289 319Q286 313 286 309Q286 304 295 304H461ZM484 885Q478 894 473 894Q470 894 466 890T455 878L396 826Q391 822 388 821T381 820T373 821H292Q287 821
284 823T281 830Q281 834 286 841L411 952Q418 958 425 960T444 962H517Q527 962 532 955T539 947L631 834Q634 831 637 827T640 822T633 821H546Q532 821 523 833L484 885Z" />
<glyph unicode="&#xc3;" glyph-name="Atilde" horiz-adv-x="771" d="M-6 0T-6 10Q-6 19 1 33L348 726Q353 736 360 739T380 742H530Q548 742 552 716L702 23Q703 20 703 15Q703 0 689 0H543Q529 0 526 18L495 163Q494 171 483 171H241Q230 171 224 159L148 9Q146
4 142 2T130 0H4Q-6 0 -6 10ZM461 304Q475 304 472 321L420 552Q419 562 414 562Q409 562 405 552L289 319Q286 313 286 309Q286 304 295 304H461ZM586 839T545 839Q524 839 506 843T466 855Q462 856 442 862T402 868Q380 868 364 861T329 840Q327 839 322 839Q312
839 309 856L300 899Q298 907 298 909Q298 915 305 926Q331 941 350 948T396 956Q418 956 438 952T483 938Q487 937 506 931T544 924Q583 924 619 954Q621 955 625 955Q640 955 642 937L647 886V880Q647 870 637 860Q586 839 545 839Z" />
<glyph unicode="&#xc4;" glyph-name="Adieresis" horiz-adv-x="771" d="M-6 0T-6 10Q-6 19 1 33L348 726Q353 736 360 739T380 742H530Q548 742 552 716L702 23Q703 20 703 15Q703 0 689 0H543Q529 0 526 18L495 163Q494 171 483 171H241Q230 171 224 159L148
9Q146 4 142 2T130 0H4Q-6 0 -6 10ZM461 304Q475 304 472 321L420 552Q419 562 414 562Q409 562 405 552L289 319Q286 313 286 309Q286 304 295 304H461ZM429 840Q428 829 424 827T406 824H313Q302 824 297 830T294 847L307 941Q308 950 310 952T320 954H428Q435
954 439 948T443 934L429 840ZM632 840Q631 829 627 827T609 824H516Q505 824 500 830T497 847L510 941Q511 950 513 952T523 954H631Q638 954 642 948T645 934L632 840Z" />
<glyph unicode="&#xc5;" glyph-name="Aring" horiz-adv-x="771" d="M703 20T703 15Q703 0 689 0H543Q529 0 526 18L495 163Q494 171 483 171H241Q230 171 224 159L148 9Q146 4 142 2T130 0H4Q-6 0 -6 10Q-6 19 1 33L348 726Q353 736 360 739T380 742H421Q389 752
371 778T352 841Q352 854 353 860Q358 902 393 930T472 959Q517 959 546 930T575 857Q575 816 550 785T488 742H530Q548 742 552 716L702 23Q703 20 703 15ZM407 822T418 809T448 796Q474 796 494 817T515 864Q515 880 504 889T476 899Q452 899 433 882T409 840Q407
822 418 809ZM475 304T472 321L420 552Q419 562 414 562Q409 562 405 552L289 319Q286 313 286 309Q286 304 295 304H461Q475 304 472 321Z" />
<glyph unicode="&#xc6;" glyph-name="AE" horiz-adv-x="1077" d="M1007 128T1012 123T1017 108L1004 13Q1002 5 999 3T986 0H490Q478 0 472 7T468 25L488 164Q488 165 488 167T486 170T481 171H265Q259 171 254 167T246 157L146 9Q142 4 138 2T124 0H9Q2 0 -1
4T-5 16Q-5 26 0 33L470 726Q476 736 481 739T498 742H1077Q1084 742 1089 735T1092 720L1079 630Q1078 620 1074 617T1059 614H748Q738 614 731 608T722 593L703 449L702 443Q702 436 713 436H918Q927 436 932 430T936 416L922 320Q921 314 919 312T909 310H700Q693
310 688 305T681 293L659 136Q658 129 658 129T665 128H999Q1007 128 1012 123ZM496 304T502 310T510 325L546 581Q547 597 540 597Q535 597 529 591T515 573L340 317Q338 315 335 311T332 305T338 304H488Q496 304 502 310Z" />
<glyph unicode="&#xc7;" glyph-name="Ccedilla" horiz-adv-x="725" d="M522 752T583 722T679 640T716 523Q716 513 713 509T701 504L571 496H570Q558 496 556 520Q551 571 524 600T444 630Q368 630 321 574T254 437T234 276Q234 194 265 157T361 119Q487 119 551
246Q557 256 566 256Q572 256 576 255L680 229Q686 228 686 219Q686 213 681 198Q665 159 626 114T522 32T375 -9L355 -51Q354 -54 352 -54Q399 -55 421 -77T444 -130Q444 -171 407 -195T315 -219Q247 -219 207 -191Q202 -190 199 -186T197 -178L217 -143Q219 -141
219 -141Q220 -141 221 -144T224 -149Q264 -165 292 -165Q320 -165 337 -153T354 -120Q354 -105 337 -99T278 -92Q269 -92 265 -88T263 -78L306 -8Q187 6 121 89T55 305Q55 423 99 525T232 689T445 752Q522 752 583 722Z" />
<glyph unicode="&#xc8;" glyph-name="Egrave" horiz-adv-x="654" d="M137 737T139 739T150 742H657Q672 742 669 720L656 631Q654 621 650 618T635 614H308Q300 614 297 611T292 599L271 449L270 443Q270 436 280 436H499Q508 436 510 433T511 422L497 321Q496
315 493 313T483 310H262Q255 310 253 307T249 296L227 140V136Q227 128 234 128H581Q590 128 592 125T593 113L580 13Q579 5 576 3T563 0H56Q44 0 39 6T36 25L135 727Q137 737 139 739ZM318 968T328 962L550 863Q556 860 558 854T558 840L541 805Q537 797 531
797Q530 797 518 799L296 861Q277 867 277 882Q277 885 279 891L313 957Q318 968 328 962Z" />
<glyph unicode="&#xc9;" glyph-name="Eacute" horiz-adv-x="654" d="M137 737T139 739T150 742H657Q672 742 669 720L656 631Q654 621 650 618T635 614H308Q300 614 297 611T292 599L271 449L270 443Q270 436 280 436H499Q508 436 510 433T511 422L497 321Q496
315 493 313T483 310H262Q255 310 253 307T249 296L227 140V136Q227 128 234 128H581Q590 128 592 125T593 113L580 13Q579 5 576 3T563 0H56Q44 0 39 6T36 25L135 727Q137 737 139 739ZM567 883Q568 880 568 874Q568 864 552 860L312 798Q309 797 305 797Q292
797 289 813L281 848Q280 852 280 857Q280 863 285 865L535 964Q536 965 539 965Q543 965 546 961T552 950L567 883Z" />
<glyph unicode="&#xca;" glyph-name="Ecircumflex" horiz-adv-x="654" d="M137 737T139 739T150 742H657Q672 742 669 720L656 631Q654 621 650 618T635 614H308Q300 614 297 611T292 599L271 449L270 443Q270 436 280 436H499Q508 436 510 433T511 422L497 321Q496
315 493 313T483 310H262Q255 310 253 307T249 296L227 140V136Q227 128 234 128H581Q590 128 592 125T593 113L580 13Q579 5 576 3T563 0H56Q44 0 39 6T36 25L135 727Q137 737 139 739ZM441 885Q435 894 430 894Q427 894 423 890T412 878L353 826Q348 822 345
821T338 820T330 821H249Q244 821 241 823T238 830Q238 834 243 841L368 952Q375 958 382 960T401 962H474Q484 962 489 955T496 947L588 834Q591 831 594 827T597 822T590 821H503Q489 821 480 833L441 885Z" />
<glyph unicode="&#xcb;" glyph-name="Edieresis" horiz-adv-x="654" d="M137 737T139 739T150 742H657Q672 742 669 720L656 631Q654 621 650 618T635 614H308Q300 614 297 611T292 599L271 449L270 443Q270 436 280 436H499Q508 436 510 433T511 422L497 321Q496
315 493 313T483 310H262Q255 310 253 307T249 296L227 140V136Q227 128 234 128H581Q590 128 592 125T593 113L580 13Q579 5 576 3T563 0H56Q44 0 39 6T36 25L135 727Q137 737 139 739ZM386 840Q385 829 381 827T363 824H270Q259 824 254 830T251 847L264 941Q265
950 267 952T277 954H385Q392 954 396 948T400 934L386 840ZM589 840Q588 829 584 827T566 824H473Q462 824 457 830T454 847L467 941Q468 950 470 952T480 954H588Q595 954 599 948T602 934L589 840Z" />
<glyph unicode="&#xcc;" glyph-name="Igrave" horiz-adv-x="315" d="M296 742Q311 742 308 720L210 20Q209 7 204 4T184 0H53Q41 0 38 6T36 25L135 727Q136 737 139 739T150 742H296ZM138 968T148 962L370 863Q376 860 378 854T378 840L361 805Q357 797 351 797Q350
797 338 799L116 861Q97 867 97 882Q97 885 99 891L133 957Q138 968 148 962Z" />
<glyph unicode="&#xcd;" glyph-name="Iacute" horiz-adv-x="315" d="M296 742Q311 742 308 720L210 20Q209 7 204 4T184 0H53Q41 0 38 6T36 25L135 727Q136 737 139 739T150 742H296ZM387 883Q388 880 388 874Q388 864 372 860L132 798Q129 797 125 797Q112 797
109 813L101 848Q100 852 100 857Q100 863 105 865L355 964Q356 965 359 965Q363 965 366 961T372 950L387 883Z" />
<glyph unicode="&#xce;" glyph-name="Icircumflex" horiz-adv-x="315" d="M296 742Q311 742 308 720L210 20Q209 7 204 4T184 0H53Q41 0 38 6T36 25L135 727Q136 737 139 739T150 742H296ZM261 885Q255 894 250 894Q247 894 243 890T232 878L173 826Q168 822 165
821T158 820T150 821H69Q64 821 61 823T58 830Q58 834 63 841L188 952Q195 958 202 960T221 962H294Q304 962 309 955T316 947L408 834Q411 831 414 827T417 822T410 821H323Q309 821 300 833L261 885Z" />
<glyph unicode="&#xcf;" glyph-name="Idieresis" horiz-adv-x="315" d="M296 742Q311 742 308 720L210 20Q209 7 204 4T184 0H53Q41 0 38 6T36 25L135 727Q136 737 139 739T150 742H296ZM206 840Q205 829 201 827T183 824H90Q79 824 74 830T71 847L84 941Q85 950
87 952T97 954H205Q212 954 216 948T220 934L206 840ZM409 840Q408 829 404 827T386 824H293Q282 824 277 830T274 847L287 941Q288 950 290 952T300 954H408Q415 954 419 948T422 934L409 840Z" />
<glyph unicode="&#xd0;" glyph-name="Eth" horiz-adv-x="729" d="M519 742T611 661T704 439Q704 305 651 206T496 54T255 0H36Q24 0 18 8T14 29L53 310Q44 311 40 318T37 336L47 408Q48 418 51 420T62 423H69L111 726Q112 736 116 739T132 742H343Q519 742 611
661ZM400 123T461 210T522 449Q522 536 478 577T347 618H287Q270 618 269 601L245 423H410Q417 423 422 417T425 402L415 329Q414 317 409 314T388 310H229L206 141Q206 140 206 139T206 135Q206 123 218 123H274Q400 123 461 210Z" />
<glyph unicode="&#xd1;" glyph-name="Ntilde" horiz-adv-x="759" d="M744 742Q751 742 753 739T754 727L653 11Q652 4 649 2T637 0H535Q522 0 512 16L254 463Q251 468 248 468Q242 468 241 457L179 16Q177 6 174 3T159 0H49Q33 0 35 22L135 727Q137 737 139 739T152
742H273Q283 742 288 738T299 723L535 306Q540 298 545 298Q553 298 554 310L612 729Q613 737 616 739T629 742H744ZM589 839T548 839Q527 839 509 843T469 855Q465 856 445 862T405 868Q383 868 367 861T332 840Q330 839 325 839Q315 839 312 856L303 899Q301
907 301 909Q301 915 308 926Q334 941 353 948T399 956Q421 956 441 952T486 938Q490 937 509 931T547 924Q586 924 622 954Q624 955 628 955Q643 955 645 937L650 886V880Q650 870 640 860Q589 839 548 839Z" />
<glyph unicode="&#xd2;" glyph-name="Ograve" horiz-adv-x="774" d="M213 -10T134 71T55 297Q55 342 60 377Q76 492 129 577T265 707T450 752Q542 752 609 715T712 607T748 440Q748 393 742 361Q726 247 674 163T539 35T355 -10Q213 -10 134 71ZM445 113T494 175T562
375Q569 428 569 474Q569 555 539 592T446 630Q361 630 311 564T241 358Q233 300 233 264Q233 185 264 149T360 113Q445 113 494 175ZM366 968T376 962L598 863Q604 860 606 854T606 840L589 805Q585 797 579 797Q578 797 566 799L344 861Q325 867 325 882Q325
885 327 891L361 957Q366 968 376 962Z" />
<glyph unicode="&#xd3;" glyph-name="Oacute" horiz-adv-x="774" d="M213 -10T134 71T55 297Q55 342 60 377Q76 492 129 577T265 707T450 752Q542 752 609 715T712 607T748 440Q748 393 742 361Q726 247 674 163T539 35T355 -10Q213 -10 134 71ZM445 113T494 175T562
375Q569 428 569 474Q569 555 539 592T446 630Q361 630 311 564T241 358Q233 300 233 264Q233 185 264 149T360 113Q445 113 494 175ZM615 883Q616 880 616 874Q616 864 600 860L360 798Q357 797 353 797Q340 797 337 813L329 848Q328 852 328 857Q328 863 333
865L583 964Q584 965 587 965Q591 965 594 961T600 950L615 883Z" />
<glyph unicode="&#xd4;" glyph-name="Ocircumflex" horiz-adv-x="774" d="M213 -10T134 71T55 297Q55 342 60 377Q76 492 129 577T265 707T450 752Q542 752 609 715T712 607T748 440Q748 393 742 361Q726 247 674 163T539 35T355 -10Q213 -10 134 71ZM445 113T494
175T562 375Q569 428 569 474Q569 555 539 592T446 630Q361 630 311 564T241 358Q233 300 233 264Q233 185 264 149T360 113Q445 113 494 175ZM489 885Q483 894 478 894Q475 894 471 890T460 878L401 826Q396 822 393 821T386 820T378 821H297Q292 821 289 823T286
830Q286 834 291 841L416 952Q423 958 430 960T449 962H522Q532 962 537 955T544 947L636 834Q639 831 642 827T645 822T638 821H551Q537 821 528 833L489 885Z" />
<glyph unicode="&#xd5;" glyph-name="Otilde" horiz-adv-x="774" d="M213 -10T134 71T55 297Q55 342 60 377Q76 492 129 577T265 707T450 752Q542 752 609 715T712 607T748 440Q748 393 742 361Q726 247 674 163T539 35T355 -10Q213 -10 134 71ZM445 113T494 175T562
375Q569 428 569 474Q569 555 539 592T446 630Q361 630 311 564T241 358Q233 300 233 264Q233 185 264 149T360 113Q445 113 494 175ZM591 839T550 839Q529 839 511 843T471 855Q467 856 447 862T407 868Q385 868 369 861T334 840Q332 839 327 839Q317 839 314
856L305 899Q303 907 303 909Q303 915 310 926Q336 941 355 948T401 956Q423 956 443 952T488 938Q492 937 511 931T549 924Q588 924 624 954Q626 955 630 955Q645 955 647 937L652 886V880Q652 870 642 860Q591 839 550 839Z" />
<glyph unicode="&#xd6;" glyph-name="Odieresis" horiz-adv-x="774" d="M213 -10T134 71T55 297Q55 342 60 377Q76 492 129 577T265 707T450 752Q542 752 609 715T712 607T748 440Q748 393 742 361Q726 247 674 163T539 35T355 -10Q213 -10 134 71ZM445 113T494
175T562 375Q569 428 569 474Q569 555 539 592T446 630Q361 630 311 564T241 358Q233 300 233 264Q233 185 264 149T360 113Q445 113 494 175ZM434 840Q433 829 429 827T411 824H318Q307 824 302 830T299 847L312 941Q313 950 315 952T325 954H433Q440 954 444
948T448 934L434 840ZM637 840Q636 829 632 827T614 824H521Q510 824 505 830T502 847L515 941Q516 950 518 952T528 954H636Q643 954 647 948T650 934L637 840Z" />
<glyph unicode="&#xd7;" glyph-name="multiply" horiz-adv-x="576" d="M561 526T555 518L382 367L507 222Q513 214 513 210Q513 206 508 201L449 149Q444 144 436 144Q427 144 416 158L299 294L127 144Q124 141 120 141Q115 141 107 151L62 203Q54 213 54 220Q54
228 63 237L225 379L104 520Q95 531 95 536Q95 542 102 548L161 600Q168 605 171 605Q177 605 184 596L309 452L477 599Q485 605 489 605Q496 605 504 593L550 541Q561 526 555 518Z" />
<glyph unicode="&#xd8;" glyph-name="Oslash" horiz-adv-x="764" d="M814 687T814 681Q814 676 810 672L715 590Q743 525 743 442Q743 405 737 361Q721 247 669 163T534 35T350 -10Q280 -10 225 11T133 71L60 1Q53 -6 45 -6Q36 -6 25 7L-3 40Q-14 51 -14 59Q-14
65 -9 70L78 145Q49 214 49 298Q49 335 55 377Q71 492 124 577T260 707T445 752Q515 752 570 730T663 667L743 743Q748 748 755 748Q762 748 767 741L808 695Q814 687 814 681ZM233 322T233 307Q233 295 235 277L547 568Q533 601 507 615T440 630Q356 630 307 564T237
358Q233 322 233 307ZM559 399T559 421Q559 442 556 458L246 169Q261 139 287 127T355 114Q440 114 488 176T556 375Q559 399 559 421Z" />
<glyph unicode="&#xd9;" glyph-name="Ugrave" horiz-adv-x="721" d="M639 119T555 55T328 -10Q188 -10 124 47T60 219Q60 256 66 298L127 727Q128 736 130 739T141 742H284Q292 742 297 735T300 720L237 266Q233 234 233 223Q233 167 261 141T346 115Q415 115
460 154T517 278L580 728Q582 737 584 739T594 742H708Q715 742 720 735T723 720L660 270Q639 119 555 55ZM353 968T363 962L585 863Q591 860 593 854T593 840L576 805Q572 797 566 797Q565 797 553 799L331 861Q312 867 312 882Q312 885 314 891L348 957Q353 968
363 962Z" />
<glyph unicode="&#xda;" glyph-name="Uacute" horiz-adv-x="721" d="M639 119T555 55T328 -10Q188 -10 124 47T60 219Q60 256 66 298L127 727Q128 736 130 739T141 742H284Q292 742 297 735T300 720L237 266Q233 234 233 223Q233 167 261 141T346 115Q415 115
460 154T517 278L580 728Q582 737 584 739T594 742H708Q715 742 720 735T723 720L660 270Q639 119 555 55ZM602 883Q603 880 603 874Q603 864 587 860L347 798Q344 797 340 797Q327 797 324 813L316 848Q315 852 315 857Q315 863 320 865L570 964Q571 965 574 965Q578
965 581 961T587 950L602 883Z" />
<glyph unicode="&#xdb;" glyph-name="Ucircumflex" horiz-adv-x="721" d="M639 119T555 55T328 -10Q188 -10 124 47T60 219Q60 256 66 298L127 727Q128 736 130 739T141 742H284Q292 742 297 735T300 720L237 266Q233 234 233 223Q233 167 261 141T346 115Q415
115 460 154T517 278L580 728Q582 737 584 739T594 742H708Q715 742 720 735T723 720L660 270Q639 119 555 55ZM476 885Q470 894 465 894Q462 894 458 890T447 878L388 826Q383 822 380 821T373 820T365 821H284Q279 821 276 823T273 830Q273 834 278 841L403 952Q410
958 417 960T436 962H509Q519 962 524 955T531 947L623 834Q626 831 629 827T632 822T625 821H538Q524 821 515 833L476 885Z" />
<glyph unicode="&#xdc;" glyph-name="Udieresis" horiz-adv-x="721" d="M639 119T555 55T328 -10Q188 -10 124 47T60 219Q60 256 66 298L127 727Q128 736 130 739T141 742H284Q292 742 297 735T300 720L237 266Q233 234 233 223Q233 167 261 141T346 115Q415 115
460 154T517 278L580 728Q582 737 584 739T594 742H708Q715 742 720 735T723 720L660 270Q639 119 555 55ZM421 840Q420 829 416 827T398 824H305Q294 824 289 830T286 847L299 941Q300 950 302 952T312 954H420Q427 954 431 948T435 934L421 840ZM624 840Q623
829 619 827T601 824H508Q497 824 492 830T489 847L502 941Q503 950 505 952T515 954H623Q630 954 634 948T637 934L624 840Z" />
<glyph unicode="&#xdd;" glyph-name="Yacute" horiz-adv-x="735" d="M766 742T769 739T773 731Q773 727 769 721L477 333Q470 323 467 313T460 279L423 20Q422 7 417 4T396 0H264Q253 0 250 4T248 21L287 295Q288 300 288 308Q288 316 283 331L100 722Q97 730
97 734Q97 742 113 742H263Q274 742 279 737T290 721L402 460Q405 453 408 453Q412 453 416 460L605 728Q612 738 616 740T633 742H759Q766 742 769 739ZM605 883Q606 880 606 874Q606 864 590 860L350 798Q347 797 343 797Q330 797 327 813L319 848Q318 852 318
857Q318 863 323 865L573 964Q574 965 577 965Q581 965 584 961T590 950L605 883Z" />
<glyph unicode="&#xde;" glyph-name="Thorn" horiz-adv-x="723" d="M685 265T605 210T403 154H243Q237 154 233 149T227 139L210 19Q209 7 204 4T185 0H57Q45 0 40 7T36 25L135 727Q136 737 139 739T150 742H293Q301 742 305 736T308 720L293 605Q292 602 293
601T297 600H439Q555 600 629 550T703 404Q703 387 700 369Q685 265 605 210ZM525 393T525 403Q525 439 497 456T417 474H297Q287 474 280 468T271 452L248 293V286Q248 282 250 281T258 279H390Q444 279 480 308T524 388Q525 393 525 403Z" />
<glyph unicode="&#xdf;" glyph-name="germandbls" horiz-adv-x="649" d="M493 742T543 705T594 604Q594 597 592 581Q585 531 551 500T443 437Q424 430 416 423T405 404V402Q405 397 409 393T426 383Q482 361 519 340T582 284T608 196Q608 176 606 165Q594 80
531 35T369 -10Q288 -10 248 22Q240 24 238 29T237 40L281 110Q284 114 286 114Q291 114 295 105Q318 97 332 93T366 89Q406 89 434 109T468 166L469 175Q469 192 459 203T436 222T387 247Q289 284 289 366Q289 407 309 436T369 497Q375 501 401 518T440 554T454
598Q454 619 437 630T388 642Q339 642 306 611T265 530L192 15V9Q192 3 190 2T181 0H58Q51 0 46 6T42 21L95 394Q96 399 95 399T90 400H54Q46 400 41 405T37 419L47 493Q48 500 51 503T64 506H95Q110 506 114 529Q130 622 199 682T397 742Q493 742 543 705Z" />
<glyph unicode="&#xe0;" glyph-name="agrave" horiz-adv-x="563" d="M261 -10T157 -10Q87 -10 47 26T7 120Q7 191 54 236T172 302T321 325L357 328Q376 328 379 347L382 368Q383 373 383 384Q383 444 314 444Q235 444 197 382Q192 375 184 375Q178 375 175 376L78
399Q68 401 68 412Q68 422 73 432Q139 540 322 540Q430 540 480 502T531 397Q531 388 529 368L479 18Q478 5 475 3T461 0H358Q348 0 345 6T341 26L342 52Q342 60 337 60Q332 60 321 49Q261 -10 157 -10ZM364 241V247Q364 251 362 252T354 253L318 250Q260 246 210
221T160 144Q160 120 177 106T225 91Q251 91 274 98T314 119Q351 147 355 176L364 241ZM237 756T247 750L469 651Q475 648 477 642T477 628L460 593Q456 585 450 585Q449 585 437 587L215 649Q196 655 196 670Q196 673 198 679L232 745Q237 756 247 750Z" />
<glyph unicode="&#xe1;" glyph-name="aacute" horiz-adv-x="563" d="M261 -10T157 -10Q87 -10 47 26T7 120Q7 191 54 236T172 302T321 325L357 328Q376 328 379 347L382 368Q383 373 383 384Q383 444 314 444Q235 444 197 382Q192 375 184 375Q178 375 175 376L78
399Q68 401 68 412Q68 422 73 432Q139 540 322 540Q430 540 480 502T531 397Q531 388 529 368L479 18Q478 5 475 3T461 0H358Q348 0 345 6T341 26L342 52Q342 60 337 60Q332 60 321 49Q261 -10 157 -10ZM364 241V247Q364 251 362 252T354 253L318 250Q260 246 210
221T160 144Q160 120 177 106T225 91Q251 91 274 98T314 119Q351 147 355 176L364 241ZM486 671Q487 668 487 662Q487 652 471 648L231 586Q228 585 224 585Q211 585 208 601L200 636Q199 640 199 645Q199 651 204 653L454 752Q455 753 458 753Q462 753 465 749T471
738L486 671Z" />
<glyph unicode="&#xe2;" glyph-name="acircumflex" horiz-adv-x="563" d="M261 -10T157 -10Q87 -10 47 26T7 120Q7 191 54 236T172 302T321 325L357 328Q376 328 379 347L382 368Q383 373 383 384Q383 444 314 444Q235 444 197 382Q192 375 184 375Q178 375 175
376L78 399Q68 401 68 412Q68 422 73 432Q139 540 322 540Q430 540 480 502T531 397Q531 388 529 368L479 18Q478 5 475 3T461 0H358Q348 0 345 6T341 26L342 52Q342 60 337 60Q332 60 321 49Q261 -10 157 -10ZM364 241V247Q364 251 362 252T354 253L318 250Q260
246 210 221T160 144Q160 120 177 106T225 91Q251 91 274 98T314 119Q351 147 355 176L364 241ZM360 673Q354 682 349 682Q346 682 342 678T331 666L272 614Q267 610 264 609T257 608T249 609H168Q163 609 160 611T157 618Q157 622 162 629L287 740Q294 746 301
748T320 750H393Q403 750 408 743T415 735L507 622Q510 619 513 615T516 610T509 609H422Q408 609 399 621L360 673Z" />
<glyph unicode="&#xe3;" glyph-name="atilde" horiz-adv-x="563" d="M261 -10T157 -10Q87 -10 47 26T7 120Q7 191 54 236T172 302T321 325L357 328Q376 328 379 347L382 368Q383 373 383 384Q383 444 314 444Q235 444 197 382Q192 375 184 375Q178 375 175 376L78
399Q68 401 68 412Q68 422 73 432Q139 540 322 540Q430 540 480 502T531 397Q531 388 529 368L479 18Q478 5 475 3T461 0H358Q348 0 345 6T341 26L342 52Q342 60 337 60Q332 60 321 49Q261 -10 157 -10ZM364 241V247Q364 251 362 252T354 253L318 250Q260 246 210
221T160 144Q160 120 177 106T225 91Q251 91 274 98T314 119Q351 147 355 176L364 241ZM462 627T421 627Q400 627 382 631T342 643Q338 644 318 650T278 656Q256 656 240 649T205 628Q203 627 198 627Q188 627 185 644L176 687Q174 695 174 697Q174 703 181 714Q207
729 226 736T272 744Q294 744 314 740T359 726Q363 725 382 719T420 712Q459 712 495 742Q497 743 501 743Q516 743 518 725L523 674V668Q523 658 513 648Q462 627 421 627Z" />
<glyph unicode="&#xe4;" glyph-name="adieresis" horiz-adv-x="563" d="M261 -10T157 -10Q87 -10 47 26T7 120Q7 191 54 236T172 302T321 325L357 328Q376 328 379 347L382 368Q383 373 383 384Q383 444 314 444Q235 444 197 382Q192 375 184 375Q178 375 175
376L78 399Q68 401 68 412Q68 422 73 432Q139 540 322 540Q430 540 480 502T531 397Q531 388 529 368L479 18Q478 5 475 3T461 0H358Q348 0 345 6T341 26L342 52Q342 60 337 60Q332 60 321 49Q261 -10 157 -10ZM364 241V247Q364 251 362 252T354 253L318 250Q260
246 210 221T160 144Q160 120 177 106T225 91Q251 91 274 98T314 119Q351 147 355 176L364 241ZM305 628Q304 617 300 615T282 612H189Q178 612 173 618T170 635L183 729Q184 738 186 740T196 742H304Q311 742 315 736T319 722L305 628ZM508 628Q507 617 503 615T485
612H392Q381 612 376 618T373 635L386 729Q387 738 389 740T399 742H507Q514 742 518 736T521 722L508 628Z" />
<glyph unicode="&#xe5;" glyph-name="aring" horiz-adv-x="563" d="M261 -10T157 -10Q87 -10 47 26T7 120Q7 191 54 236T172 302T321 325L357 328Q376 328 379 347L382 368Q383 373 383 384Q383 444 314 444Q235 444 197 382Q192 375 184 375Q178 375 175 376L78
399Q68 401 68 412Q68 422 73 432Q139 540 322 540Q430 540 480 502T531 397Q531 388 529 368L479 18Q478 5 475 3T461 0H358Q348 0 345 6T341 26L342 52Q342 60 337 60Q332 60 321 49Q261 -10 157 -10ZM364 241V247Q364 251 362 252T354 253L318 250Q260 246 210
221T160 144Q160 120 177 106T225 91Q251 91 274 98T314 119Q351 147 355 176L364 241ZM460 668T444 641T399 597T339 581Q294 581 266 610T237 685Q237 698 238 704Q243 746 278 774T357 803Q402 803 431 774T460 701Q460 668 444 641ZM400 724T389 733T361 743Q337
743 318 726T294 684Q292 666 303 653T333 640Q359 640 379 661T400 708Q400 724 389 733Z" />
<glyph unicode="&#xe6;" glyph-name="ae" horiz-adv-x="918" d="M517 236T514 208Q513 202 513 191Q513 148 543 122T623 95Q663 95 695 113T764 168L767 169Q769 169 773 167T782 162L848 131Q858 127 858 117Q858 112 854 105Q799 42 740 16T600 -10Q532 -10
483 17T405 88Q401 88 398 84T392 75Q343 33 289 12T164 -10Q88 -10 48 25T7 122Q7 211 82 263T305 324L353 328Q361 328 369 333T378 347L381 368Q382 374 382 384Q382 444 311 444Q278 444 248 428T195 377Q191 373 188 373Q185 373 174 376L77 399Q73 400 71
405T69 417Q69 425 72 432Q110 487 167 513T318 540Q455 539 493 477Q566 540 664 540Q769 540 831 478T893 306Q893 276 889 251Q887 241 885 239T872 236H537Q517 236 514 208ZM618 446T579 411T532 316L728 320Q752 320 752 358Q752 393 730 419T668 446Q618
446 579 411ZM363 241Q363 245 360 246T350 247L312 244Q255 240 210 213T159 142L158 133Q158 110 174 98T222 85Q270 85 309 110T353 169L362 235L363 241Z" />
<glyph unicode="&#xe7;" glyph-name="ccedilla" horiz-adv-x="551" d="M538 377Q538 371 535 369T523 365L422 356H421Q412 356 408 377Q394 409 380 424T333 439Q283 439 249 402T198 311T182 206Q182 147 207 118T279 89Q324 89 354 109T414 176Q417 180 420
180L430 178L501 161Q511 159 511 146L509 134Q483 84 427 41T290 -9L270 -51Q269 -54 267 -54Q314 -55 336 -77T359 -130Q359 -171 322 -195T230 -219Q162 -219 122 -191Q117 -190 114 -186T112 -178L132 -143Q134 -141 134 -141Q135 -141 136 -144T139 -149Q179
-165 207 -165Q235 -165 252 -153T269 -120Q269 -105 252 -99T193 -92Q184 -92 180 -88T178 -78L222 -7Q133 6 81 68T28 224Q28 308 66 380T172 496T330 540Q421 540 474 493T538 380V377Z" />
<glyph unicode="&#xe8;" glyph-name="egrave" horiz-adv-x="586" d="M198 -10T143 19T58 100T28 222Q28 304 67 377T176 495T332 540Q437 540 499 478T561 307Q561 278 557 251Q555 243 551 240T534 236H197Q181 236 181 193Q181 146 211 121T291 95Q329 95 362
111T427 161Q432 166 437 166Q440 166 450 162L516 131Q528 127 528 118Q528 113 523 105Q465 40 408 15T269 -10Q198 -10 143 19ZM396 316Q420 316 420 355Q420 393 397 419T333 446Q283 446 245 409T200 316H396ZM249 756T259 750L481 651Q487 648 489 642T489
628L472 593Q468 585 462 585Q461 585 449 587L227 649Q208 655 208 670Q208 673 210 679L244 745Q249 756 259 750Z" />
<glyph unicode="&#xe9;" glyph-name="eacute" horiz-adv-x="586" d="M198 -10T143 19T58 100T28 222Q28 304 67 377T176 495T332 540Q437 540 499 478T561 307Q561 278 557 251Q555 243 551 240T534 236H197Q181 236 181 193Q181 146 211 121T291 95Q329 95 362
111T427 161Q432 166 437 166Q440 166 450 162L516 131Q528 127 528 118Q528 113 523 105Q465 40 408 15T269 -10Q198 -10 143 19ZM396 316Q420 316 420 355Q420 393 397 419T333 446Q283 446 245 409T200 316H396ZM498 671Q499 668 499 662Q499 652 483 648L243
586Q240 585 236 585Q223 585 220 601L212 636Q211 640 211 645Q211 651 216 653L466 752Q467 753 470 753Q474 753 477 749T483 738L498 671Z" />
<glyph unicode="&#xea;" glyph-name="ecircumflex" horiz-adv-x="586" d="M198 -10T143 19T58 100T28 222Q28 304 67 377T176 495T332 540Q437 540 499 478T561 307Q561 278 557 251Q555 243 551 240T534 236H197Q181 236 181 193Q181 146 211 121T291 95Q329
95 362 111T427 161Q432 166 437 166Q440 166 450 162L516 131Q528 127 528 118Q528 113 523 105Q465 40 408 15T269 -10Q198 -10 143 19ZM396 316Q420 316 420 355Q420 393 397 419T333 446Q283 446 245 409T200 316H396ZM372 673Q366 682 361 682Q358 682 354
678T343 666L284 614Q279 610 276 609T269 608T261 609H180Q175 609 172 611T169 618Q169 622 174 629L299 740Q306 746 313 748T332 750H405Q415 750 420 743T427 735L519 622Q522 619 525 615T528 610T521 609H434Q420 609 411 621L372 673Z" />
<glyph unicode="&#xeb;" glyph-name="edieresis" horiz-adv-x="586" d="M198 -10T143 19T58 100T28 222Q28 304 67 377T176 495T332 540Q437 540 499 478T561 307Q561 278 557 251Q555 243 551 240T534 236H197Q181 236 181 193Q181 146 211 121T291 95Q329 95
362 111T427 161Q432 166 437 166Q440 166 450 162L516 131Q528 127 528 118Q528 113 523 105Q465 40 408 15T269 -10Q198 -10 143 19ZM396 316Q420 316 420 355Q420 393 397 419T333 446Q283 446 245 409T200 316H396ZM317 628Q316 617 312 615T294 612H201Q190
612 185 618T182 635L195 729Q196 738 198 740T208 742H316Q323 742 327 736T331 722L317 628ZM520 628Q519 617 515 615T497 612H404Q393 612 388 618T385 635L398 729Q399 738 401 740T411 742H519Q526 742 530 736T533 722L520 628Z" />
<glyph unicode="&#xec;" glyph-name="igrave" horiz-adv-x="265" d="M175 20Q173 7 169 4T149 0H43Q31 0 26 7T22 25L91 515Q92 524 94 527T105 530H228Q235 530 240 523T244 508L175 20ZM81 756T91 750L313 651Q319 648 321 642T321 628L304 593Q300 585 294
585Q293 585 281 587L59 649Q40 655 40 670Q40 673 42 679L76 745Q81 756 91 750Z" />
<glyph unicode="&#xed;" glyph-name="iacute" horiz-adv-x="265" d="M175 20Q173 7 169 4T149 0H43Q31 0 26 7T22 25L91 515Q92 524 94 527T105 530H228Q235 530 240 523T244 508L175 20ZM330 671Q331 668 331 662Q331 652 315 648L75 586Q72 585 68 585Q55 585
52 601L44 636Q43 640 43 645Q43 651 48 653L298 752Q299 753 302 753Q306 753 309 749T315 738L330 671Z" />
<glyph unicode="&#xee;" glyph-name="icircumflex" horiz-adv-x="265" d="M175 20Q173 7 169 4T149 0H43Q31 0 26 7T22 25L91 515Q92 524 94 527T105 530H228Q235 530 240 523T244 508L175 20ZM204 673Q198 682 193 682Q190 682 186 678T175 666L116 614Q111 610
108 609T101 608T93 609H12Q7 609 4 611T1 618Q1 622 6 629L131 740Q138 746 145 748T164 750H237Q247 750 252 743T259 735L351 622Q354 619 357 615T360 610T353 609H266Q252 609 243 621L204 673Z" />
<glyph unicode="&#xef;" glyph-name="idieresis" horiz-adv-x="265" d="M175 20Q173 7 169 4T149 0H43Q31 0 26 7T22 25L91 515Q92 524 94 527T105 530H228Q235 530 240 523T244 508L175 20ZM149 628Q148 617 144 615T126 612H33Q22 612 17 618T14 635L27 729Q28
738 30 740T40 742H148Q155 742 159 736T163 722L149 628ZM352 628Q351 617 347 615T329 612H236Q225 612 220 618T217 635L230 729Q231 738 233 740T243 742H351Q358 742 362 736T365 722L352 628Z" />
<glyph unicode="&#xf0;" glyph-name="eth" d="M557 182T516 120T410 24T266 -10Q194 -10 140 19T57 100T27 218Q27 239 30 260Q41 335 83 394T189 487T327 520Q370 520 384 511Q359 564 304 609L177 539Q173 537 171 537Q162 537 158 551L146 572Q142 580 142
583T146 589L254 643Q229 657 172 684Q166 684 163 688T163 697L236 749Q240 752 243 752Q246 752 253 747Q311 734 369 700L459 752Q460 753 463 753Q466 753 469 750T474 744L489 710Q489 709 491 706T489 699L420 667Q495 608 534 524T574 340Q574 297 569 266Q557
182 516 120ZM326 92T364 138T412 264Q415 288 415 309Q415 363 393 392T328 421Q273 421 235 375T184 247Q181 225 181 206Q181 151 204 122T270 92Q326 92 364 138Z" />
<glyph unicode="&#xf1;" glyph-name="ntilde" horiz-adv-x="596" d="M21 0T21 16L22 25L91 516Q92 524 95 527T105 530H233Q239 530 241 528T242 517L235 467V463Q235 459 237 459Q239 459 245 465Q335 540 420 540Q487 540 525 504T564 406Q564 396 562 378L512
20Q510 7 505 4T487 0H372Q357 0 357 16L358 25L405 359Q407 373 407 378Q407 429 348 429Q316 429 288 413T225 363L175 19Q173 7 168 4T148 0H36Q21 0 21 16ZM478 627T437 627Q416 627 398 631T358 643Q354 644 334 650T294 656Q272 656 256 649T221 628Q219
627 214 627Q204 627 201 644L192 687Q190 695 190 697Q190 703 197 714Q223 729 242 736T288 744Q310 744 330 740T375 726Q379 725 398 719T436 712Q475 712 511 742Q513 743 517 743Q532 743 534 725L539 674V668Q539 658 529 648Q478 627 437 627Z" />
<glyph unicode="&#xf2;" glyph-name="ograve" d="M194 -10T140 19T57 101T28 223Q28 314 69 386T181 499T333 540Q405 540 459 510T541 426T570 302Q570 213 530 142T421 31T266 -10Q194 -10 140 19ZM312 92T345 120T398 202T418 332Q418 385 396 413T331 441Q289
441 256 413T202 330T182 199Q182 146 204 119T270 92Q312 92 345 120ZM249 756T259 750L481 651Q487 648 489 642T489 628L472 593Q468 585 462 585Q461 585 449 587L227 649Q208 655 208 670Q208 673 210 679L244 745Q249 756 259 750Z" />
<glyph unicode="&#xf3;" glyph-name="oacute" d="M194 -10T140 19T57 101T28 223Q28 314 69 386T181 499T333 540Q405 540 459 510T541 426T570 302Q570 213 530 142T421 31T266 -10Q194 -10 140 19ZM312 92T345 120T398 202T418 332Q418 385 396 413T331 441Q289
441 256 413T202 330T182 199Q182 146 204 119T270 92Q312 92 345 120ZM498 671Q499 668 499 662Q499 652 483 648L243 586Q240 585 236 585Q223 585 220 601L212 636Q211 640 211 645Q211 651 216 653L466 752Q467 753 470 753Q474 753 477 749T483 738L498 671Z"
/>
<glyph unicode="&#xf4;" glyph-name="ocircumflex" d="M194 -10T140 19T57 101T28 223Q28 314 69 386T181 499T333 540Q405 540 459 510T541 426T570 302Q570 213 530 142T421 31T266 -10Q194 -10 140 19ZM312 92T345 120T398 202T418 332Q418 385 396 413T331
441Q289 441 256 413T202 330T182 199Q182 146 204 119T270 92Q312 92 345 120ZM372 673Q366 682 361 682Q358 682 354 678T343 666L284 614Q279 610 276 609T269 608T261 609H180Q175 609 172 611T169 618Q169 622 174 629L299 740Q306 746 313 748T332 750H405Q415
750 420 743T427 735L519 622Q522 619 525 615T528 610T521 609H434Q420 609 411 621L372 673Z" />
<glyph unicode="&#xf5;" glyph-name="otilde" d="M194 -10T140 19T57 101T28 223Q28 314 69 386T181 499T333 540Q405 540 459 510T541 426T570 302Q570 213 530 142T421 31T266 -10Q194 -10 140 19ZM312 92T345 120T398 202T418 332Q418 385 396 413T331 441Q289
441 256 413T202 330T182 199Q182 146 204 119T270 92Q312 92 345 120ZM474 627T433 627Q412 627 394 631T354 643Q350 644 330 650T290 656Q268 656 252 649T217 628Q215 627 210 627Q200 627 197 644L188 687Q186 695 186 697Q186 703 193 714Q219 729 238 736T284
744Q306 744 326 740T371 726Q375 725 394 719T432 712Q471 712 507 742Q509 743 513 743Q528 743 530 725L535 674V668Q535 658 525 648Q474 627 433 627Z" />
<glyph unicode="&#xf6;" glyph-name="odieresis" d="M194 -10T140 19T57 101T28 223Q28 314 69 386T181 499T333 540Q405 540 459 510T541 426T570 302Q570 213 530 142T421 31T266 -10Q194 -10 140 19ZM312 92T345 120T398 202T418 332Q418 385 396 413T331 441Q289
441 256 413T202 330T182 199Q182 146 204 119T270 92Q312 92 345 120ZM317 628Q316 617 312 615T294 612H201Q190 612 185 618T182 635L195 729Q196 738 198 740T208 742H316Q323 742 327 736T331 722L317 628ZM520 628Q519 617 515 615T497 612H404Q393 612 388
618T385 635L398 729Q399 738 401 740T411 742H519Q526 742 530 736T533 722L520 628Z" />
<glyph unicode="&#xf7;" glyph-name="divide" horiz-adv-x="584" d="M408 518Q407 506 403 504T384 501H270Q259 501 254 507T250 524L266 641Q267 649 269 651T279 653H410Q417 653 421 647T425 633L408 518ZM545 335Q544 324 540 321T520 318L80 317Q68 317
63 324T59 342L70 415Q71 424 73 426T83 429H541Q548 429 552 423T556 409L545 335ZM351 111Q349 99 345 96T326 93H212Q201 93 196 100T193 117L209 234Q210 242 212 244T222 246H353Q360 246 364 240T367 226L351 111Z" />
<glyph unicode="&#xf8;" glyph-name="oslash" horiz-adv-x="596" d="M606 484T606 479Q606 473 601 469L538 417Q562 366 562 302Q562 213 522 142T413 31T258 -10Q158 -10 94 45L48 7Q40 0 32 0Q22 0 14 13L-1 31Q-11 43 -11 50Q-11 56 -4 62L47 105Q20 155 20
223Q20 314 61 386T173 499T325 540Q377 540 420 524T494 478L549 524Q557 530 562 530Q569 530 575 522L600 492Q606 484 606 479ZM282 441T249 414T196 335T174 211L398 398Q377 441 323 441Q282 441 249 414ZM323 92T364 149T410 309L191 126Q214 92 262 92Q323
92 364 149Z" />
<glyph unicode="&#xf9;" glyph-name="ugrave" horiz-adv-x="592" d="M108 -10T71 26T33 126Q33 147 34 156L84 510Q86 523 90 526T108 530H218Q229 530 234 523T237 504L190 171Q189 165 189 154Q189 101 244 101Q301 101 367 163L418 511Q419 523 424 526T443
530H551Q562 530 568 523T572 504L500 14Q499 5 497 3T486 0H367Q349 0 352 14L360 63V65Q360 69 357 69Q352 69 346 63Q301 24 259 7T170 -10Q108 -10 71 26ZM239 756T249 750L471 651Q477 648 479 642T479 628L462 593Q458 585 452 585Q451 585 439 587L217 649Q198
655 198 670Q198 673 200 679L234 745Q239 756 249 750Z" />
<glyph unicode="&#xfa;" glyph-name="uacute" horiz-adv-x="592" d="M108 -10T71 26T33 126Q33 147 34 156L84 510Q86 523 90 526T108 530H218Q229 530 234 523T237 504L190 171Q189 165 189 154Q189 101 244 101Q301 101 367 163L418 511Q419 523 424 526T443
530H551Q562 530 568 523T572 504L500 14Q499 5 497 3T486 0H367Q349 0 352 14L360 63V65Q360 69 357 69Q352 69 346 63Q301 24 259 7T170 -10Q108 -10 71 26ZM488 671Q489 668 489 662Q489 652 473 648L233 586Q230 585 226 585Q213 585 210 601L202 636Q201 640
201 645Q201 651 206 653L456 752Q457 753 460 753Q464 753 467 749T473 738L488 671Z" />
<glyph unicode="&#xfb;" glyph-name="ucircumflex" horiz-adv-x="592" d="M108 -10T71 26T33 126Q33 147 34 156L84 510Q86 523 90 526T108 530H218Q229 530 234 523T237 504L190 171Q189 165 189 154Q189 101 244 101Q301 101 367 163L418 511Q419 523 424 526T443
530H551Q562 530 568 523T572 504L500 14Q499 5 497 3T486 0H367Q349 0 352 14L360 63V65Q360 69 357 69Q352 69 346 63Q301 24 259 7T170 -10Q108 -10 71 26ZM362 673Q356 682 351 682Q348 682 344 678T333 666L274 614Q269 610 266 609T259 608T251 609H170Q165
609 162 611T159 618Q159 622 164 629L289 740Q296 746 303 748T322 750H395Q405 750 410 743T417 735L509 622Q512 619 515 615T518 610T511 609H424Q410 609 401 621L362 673Z" />
<glyph unicode="&#xfc;" glyph-name="udieresis" horiz-adv-x="592" d="M108 -10T71 26T33 126Q33 147 34 156L84 510Q86 523 90 526T108 530H218Q229 530 234 523T237 504L190 171Q189 165 189 154Q189 101 244 101Q301 101 367 163L418 511Q419 523 424 526T443
530H551Q562 530 568 523T572 504L500 14Q499 5 497 3T486 0H367Q349 0 352 14L360 63V65Q360 69 357 69Q352 69 346 63Q301 24 259 7T170 -10Q108 -10 71 26ZM307 628Q306 617 302 615T284 612H191Q180 612 175 618T172 635L185 729Q186 738 188 740T198 742H306Q313
742 317 736T321 722L307 628ZM510 628Q509 617 505 615T487 612H394Q383 612 378 618T375 635L388 729Q389 738 391 740T401 742H509Q516 742 520 736T523 722L510 628Z" />
<glyph unicode="&#xfd;" glyph-name="yacute" horiz-adv-x="566" d="M7 -165T-4 -161T-13 -145L-2 -68Q0 -53 33 -53H99Q132 -53 156 -30T180 19Q180 26 179 29L51 502Q50 506 50 513Q50 530 66 530H203Q211 530 215 527T221 517L291 219Q293 207 299 207Q305
207 311 221L459 510Q468 530 485 530H571Q583 530 583 523Q583 519 578 511L301 4Q263 -65 227 -101T147 -151T37 -165Q7 -165 -4 -161ZM504 671Q505 668 505 662Q505 652 489 648L249 586Q246 585 242 585Q229 585 226 601L218 636Q217 640 217 645Q217 651 222
653L472 752Q473 753 476 753Q480 753 483 749T489 738L504 671Z" />
<glyph unicode="&#xfe;" glyph-name="thorn" horiz-adv-x="607" d="M264 742T269 735T273 717L239 476V474Q239 472 240 472Q242 472 251 485Q288 511 322 525T403 540Q484 540 532 486T580 329Q580 301 575 261Q556 125 490 58T329 -10Q247 -10 203 47Q196 51
191 51Q179 51 176 31L151 -152Q149 -161 147 -163T137 -165H14Q7 -165 2 -158T-1 -142L120 725Q122 736 125 739T142 742H252Q264 742 269 735ZM206 110T226 99T274 87Q331 87 369 134T422 281Q426 308 426 335Q426 393 404 418T339 443Q310 443 285 431T243 399T223
359L189 134Q206 110 226 99Z" />
<glyph unicode="&#xff;" glyph-name="ydieresis" horiz-adv-x="566" d="M7 -165T-4 -161T-13 -145L-2 -68Q0 -53 33 -53H99Q132 -53 156 -30T180 19Q180 26 179 29L51 502Q50 506 50 513Q50 530 66 530H203Q211 530 215 527T221 517L291 219Q293 207 299 207Q305
207 311 221L459 510Q468 530 485 530H571Q583 530 583 523Q583 519 578 511L301 4Q263 -65 227 -101T147 -151T37 -165Q7 -165 -4 -161ZM323 628Q322 617 318 615T300 612H207Q196 612 191 618T188 635L201 729Q202 738 204 740T214 742H322Q329 742 333 736T337
722L323 628ZM526 628Q525 617 521 615T503 612H410Q399 612 394 618T391 635L404 729Q405 738 407 740T417 742H525Q532 742 536 736T539 722L526 628Z" />
<glyph unicode="&#x2013;" glyph-name="endash" horiz-adv-x="584" d="M529 217Q528 205 523 202T503 199H63Q52 199 47 206T43 223L53 297Q54 306 56 308T67 310L524 311Q531 311 535 304T539 290L529 217Z" />
<glyph unicode="&#x2014;" glyph-name="emdash" horiz-adv-x="909" d="M854 217Q853 205 848 202T827 199H63Q52 199 47 206T43 223L53 297Q54 306 56 308T67 310L849 311Q856 311 860 305T864 290L854 217Z" />
<glyph unicode="&#x2018;" glyph-name="quoteleft" horiz-adv-x="241" d="M301 742T296 728L238 629Q234 622 234 615Q234 603 246 601L262 600Q274 598 275 597T276 585L261 471Q260 463 254 457T240 450H114Q107 450 106 451T105 460L120 568Q122 576 127 581L238
722Q243 730 254 736T273 742H290Q301 742 296 728Z" />
<glyph unicode="&#x2019;" glyph-name="quoteright" horiz-adv-x="241" d="M70 450T75 464L133 563Q137 570 137 577Q137 590 125 591L109 592Q97 594 96 595T95 607L110 721Q112 729 118 735T131 742H257Q264 742 265 741T266 732L251 624Q250 617 244 611L133
470Q128 462 117 456T98 450H81Q70 450 75 464Z" />
<glyph unicode="&#x201a;" glyph-name="quotesinglbase" horiz-adv-x="241" d="M-10 -143T-10 -137Q-10 -132 -8 -129L50 -30Q54 -20 54 -16Q54 -4 41 -2L26 -1Q14 1 12 3T11 14L27 128Q29 136 34 142T47 149H173Q180 149 182 148T183 139L168 31Q167 27 161 18L50
-123Q45 -131 34 -137T14 -143H-2Q-10 -143 -10 -137Z" />
<glyph unicode="&#x201c;" glyph-name="quotedblleft" horiz-adv-x="465" d="M382 629Q379 622 379 615Q379 603 391 601L407 600Q419 598 421 597T422 585L405 471Q404 463 398 457T385 450H259Q252 450 251 451L245 450H119Q112 450 110 451T109 460L125 568Q125
572 131 581L242 722Q248 730 258 736T278 742H294Q302 742 302 736Q302 731 300 728L242 629Q238 617 238 614Q238 603 251 601L267 600Q273 600 277 599T282 593L382 722Q388 730 399 736T419 742H435Q443 742 443 736Q443 731 441 728L382 629Z" />
<glyph unicode="&#x201d;" glyph-name="quotedblright" horiz-adv-x="468" d="M70 450T75 464L133 563Q137 570 137 577Q137 590 125 591L109 592Q97 594 96 595T95 607L110 721Q112 729 118 735T131 742H257Q264 742 265 741T266 732L251 624Q250 617 244 611L133
470Q128 462 117 456T98 450H81Q70 450 75 464ZM298 450T298 456Q298 461 300 464L357 563Q361 570 361 577Q361 590 349 591L333 592Q322 594 320 596T319 607L335 721Q336 729 342 735T356 742H481Q488 742 489 741T490 732L476 624Q475 620 469 611L357 470Q352
462 342 456T322 450H306Q298 450 298 456Z" />
<glyph unicode="&#x201e;" glyph-name="quotedblbase" horiz-adv-x="431" d="M177 -143T177 -137Q177 -132 179 -129L237 -30Q241 -20 241 -16Q241 -4 228 -2L213 -1Q201 1 199 3T198 14L214 128Q216 136 221 142T234 149H360Q367 149 369 148T370 139L355 31Q354
27 348 18L237 -123Q232 -131 221 -137T201 -143H185Q177 -143 177 -137ZM209 -143T209 -137Q209 -132 211 -129L269 -30Q273 -20 273 -16Q273 -4 260 -2L245 -1Q233 1 231 3T230 14L246 128Q248 136 253 142T266 149H392Q399 149 401 148T402 139L387 31Q386 27
380 18L269 -123Q264 -131 253 -137T233 -143H217Q209 -143 209 -137Z" />
<glyph unicode="&#x2022;" glyph-name="bullet" horiz-adv-x="339" d="M120 247T87 281T53 367Q53 405 72 437T125 488T195 507Q246 507 279 473T313 389Q313 350 294 318T241 266T171 247Q120 247 87 281Z" />
<glyph unicode="&#x2039;" glyph-name="guilsinglleft" horiz-adv-x="290" d="M211 72Q212 70 212 67Q212 65 208 65T201 65H145Q141 65 137 69T132 77L50 243Q45 253 45 262Q45 270 50 278L182 453Q185 457 187 458T191 459T195 458H253Q259 458 263 453T265
440L166 264Q159 251 160 242L211 72Z" />
<glyph unicode="&#x203a;" glyph-name="guilsinglright" horiz-adv-x="290" d="M129 263T128 272L78 448L77 453Q77 458 86 458H143Q152 458 157 446L239 270Q243 260 243 253Q243 246 237 235L108 70Q105 67 102 66T95 65H39Q31 65 26 69T24 80L122 250Q129 263
128 272Z" />
</font>
</defs>
</svg>
