<?xml version="1.0" standalone="no"?>
<!DOCTYPE svg PUBLIC "-//W3C//DTD SVG 1.1//EN" "http://www.w3.org/Graphics/SVG/1.1/DTD/svg11.dtd">
<svg xmlns="http://www.w3.org/2000/svg">
<defs >
<font id="Philosopher" horiz-adv-x="565" ><font-face
    font-family="Philosopher"
    units-per-em="1000"
    panose-1="0 0 8 0 0 0 0 0 0 0"
    ascent="900"
    descent="-220"
    alphabetic="0" />
<glyph unicode=" " glyph-name="space" horiz-adv-x="250" />
<glyph unicode="!" glyph-name="exclam" horiz-adv-x="245" d="M75 155L56 660H189L169 155H75ZM93 -14T77 2T61 47Q61 75 77 91T122 108Q151 108 167 92T183 47Q183 19 167 3T122 -14Q93 -14 77 2Z" />
<glyph unicode="&quot;" glyph-name="quotedbl" horiz-adv-x="390" d="M75 390L45 660H175L145 390H75ZM245 390L215 660H345L315 390H245Z" />
<glyph unicode="#" glyph-name="numbersign" horiz-adv-x="699" d="M116 0L152 172H29V237H165L202 413H89V478H216L257 675H356L315 478H442L483 675H582L541 478H669V413H527L491 237H609V172H477L441 0H342L378 172H251L215 0H116ZM265 237H391L428 413H301L265 237Z" />
<glyph unicode="$" glyph-name="dollar" horiz-adv-x="550" d="M235 -15Q154 -9 98 22T42 103V220H70Q85 128 125 83T235 29V287L167 328Q100 367 72 409T43 507Q43 579 94 624T235 677V735H305V676Q381 670 437 638T493 558V441H465Q450 534 411 579T305 631V390L388
341Q458 300 488 262T519 169Q519 90 463 41T305 -16V-80H235V-15ZM235 628Q199 618 180 595T161 536Q161 502 178 480T235 432V628ZM346 40T369 63T393 125Q393 162 372 189T305 245V31Q346 40 369 63Z" />
<glyph unicode="%" glyph-name="percent" horiz-adv-x="755" d="M115 389T73 425T30 527Q30 593 72 629T190 665Q263 665 305 629T348 527Q348 462 306 426T190 389Q115 389 73 425ZM83 0L567 660H673L189 0H83ZM228 429T248 454T268 527Q268 575 248 600T188
625Q150 625 130 600T110 527Q110 479 130 454T189 429Q228 429 248 454ZM493 -5T451 31T408 133Q408 199 450 235T568 271Q641 271 683 235T726 133Q726 68 684 32T568 -5Q493 -5 451 31ZM606 35T626 60T646 133Q646 181 626 206T566 231Q528 231 508 206T488
133Q488 85 508 60T567 35Q606 35 626 60Z" />
<glyph unicode="&amp;" glyph-name="ampersand" horiz-adv-x="636" d="M489 0L451 38Q451 36 426 21T362 -7T279 -20Q149 -20 91 23T32 135Q32 197 74 242T190 326Q155 357 117 410T79 524Q79 598 132 639T279 680Q368 680 416 642T464 540Q464 483 422 435T309
340L494 140Q521 170 554 221Q565 237 578 261L616 236Q607 214 594 193Q564 142 528 103L625 0H489ZM243 640T226 614T209 524Q209 444 272 381Q307 413 325 448T344 530Q344 587 325 613T279 640Q243 640 226 614ZM403 56T421 72Q393 104 369 129T326 175L230
278Q162 218 162 145Q162 87 194 54T288 20Q339 20 385 46Q403 56 421 72Z" />
<glyph unicode="&apos;" glyph-name="quotesingle" horiz-adv-x="220" d="M75 390L45 660H175L145 390H75Z" />
<glyph unicode="(" glyph-name="parenleft" horiz-adv-x="320" d="M161 -128T93 -15T24 240Q24 381 92 494T297 700L311 680Q227 606 191 495T154 240Q154 97 190 -14T311 -200L297 -220Q161 -128 93 -15Z" />
<glyph unicode=")" glyph-name="parenright" horiz-adv-x="321" d="M10 -200Q94 -126 130 -15T167 240Q167 383 131 494T10 680L24 700Q160 608 228 495T297 240Q297 99 229 -14T24 -220L10 -200Z" />
<glyph unicode="*" glyph-name="asterisk" horiz-adv-x="434" d="M161 324L185 445L87 356L38 442L182 492L38 542L87 628L185 539L161 660H273L249 539L347 628L396 542L252 492L396 442L347 356L248 446L273 324H161Z" />
<glyph unicode="+" glyph-name="plus" horiz-adv-x="546" d="M228 100V295H31V365H228V560H318V365H515V295H318V100H228Z" />
<glyph unicode="," glyph-name="comma" horiz-adv-x="228" d="M45 -136Q78 -114 102 -83T127 -11L112 -14Q83 -14 67 2T51 47Q51 75 67 91T112 108Q143 108 160 85T178 30Q178 -29 152 -74T63 -160L45 -136Z" />
<glyph unicode="-" glyph-name="hyphen" horiz-adv-x="395" d="M58 217V312H337V217H58Z" />
<glyph unicode="." glyph-name="period" horiz-adv-x="224" d="M83 -14T67 2T51 47Q51 75 67 91T112 108Q141 108 157 92T173 47Q173 19 157 3T112 -14Q83 -14 67 2Z" />
<glyph unicode="/" glyph-name="slash" horiz-adv-x="475" d="M21 0L342 660H454L133 0H21Z" />
<glyph unicode="0" glyph-name="zero" horiz-adv-x="606" d="M43 -20T43 330Q43 680 303 680Q563 680 563 330Q563 -20 303 -20Q43 -20 43 330ZM366 25T394 98T423 330Q423 489 395 562T303 635Q240 635 212 562T183 330Q183 171 211 98T303 25Q366 25 394 98Z" />
<glyph unicode="1" glyph-name="one" horiz-adv-x="323" d="M119 0V542L32 486L8 517L162 660H249V0H119Z" />
<glyph unicode="2" glyph-name="two" horiz-adv-x="539" d="M41 65Q69 93 87 109Q160 177 214 235T309 360T350 487Q350 560 318 597T240 635Q175 635 133 592T76 460H41Q41 513 45 546T65 600Q93 634 146 657T260 680Q351 680 420 638T490 487Q490 419 443 348T335
221T193 100Q145 62 128 45H335Q395 45 427 73T460 155H490V80Q490 0 405 0H41V65Z" />
<glyph unicode="3" glyph-name="three" horiz-adv-x="543" d="M186 -20T130 7T27 88L55 117Q96 71 142 48T233 25Q295 25 333 64T372 185Q372 262 336 301T244 340Q207 340 169 330L139 321L115 359L388 615H209Q149 615 117 587T84 505H54V580Q54 660 139 660H477V615L228
381Q235 382 253 383T292 385Q343 385 393 365T478 299T512 185Q512 108 472 62T379 -2T277 -20Q186 -20 130 7Z" />
<glyph unicode="4" glyph-name="four" horiz-adv-x="572" d="M329 0V170H9V210L355 660H459V215H549V170H459V0H329ZM78 215H329V543L78 215Z" />
<glyph unicode="5" glyph-name="five" horiz-adv-x="546" d="M187 -20T135 7T37 88L66 114Q102 69 149 47T242 25Q304 25 342 65T380 190Q380 267 339 305T222 344Q180 344 139 332Q125 329 97 321L57 360L68 660H457V616H184L175 385L205 387Q256 390 262 390Q323
390 381 372T480 308T520 190Q520 112 479 65T380 -1T265 -20Q187 -20 135 7Z" />
<glyph unicode="6" glyph-name="six" horiz-adv-x="560" d="M44 -20T44 330Q44 509 114 594T324 680Q376 680 438 663Q463 656 484 646L478 618L432 626Q371 635 344 635Q267 635 223 573T179 385Q195 398 217 409Q265 433 319 433Q431 433 480 374T529 205Q529
145 502 94T422 11T294 -20Q44 -20 44 330ZM341 25T367 76T394 205Q394 297 370 342T289 388Q262 388 237 377T196 353T179 337Q179 176 209 101T294 25Q341 25 367 76Z" />
<glyph unicode="7" glyph-name="seven" horiz-adv-x="473" d="M346 615H176Q116 615 84 587T51 505H21V580Q21 660 106 660H467V615L217 0H96L346 615Z" />
<glyph unicode="8" glyph-name="eight" horiz-adv-x="578" d="M179 -20T109 22T39 152Q39 217 84 259T206 335Q136 374 100 411T64 508Q64 600 125 640T289 680Q391 680 452 642T514 518Q514 464 478 424T379 358Q455 317 497 273T539 162Q539 68 471 24T289 -20Q179
-20 109 22ZM354 405T366 435T379 518Q379 580 352 607T289 635Q254 635 227 610T199 528Q199 484 234 447T327 384Q354 405 366 435ZM341 25T372 55T404 142Q404 198 367 236T259 311Q217 289 196 253T174 152Q174 88 205 57T289 25Q341 25 372 55Z" />
<glyph unicode="9" glyph-name="nine" horiz-adv-x="560" d="M177 -20T122 -3Q90 6 76 14L82 42L128 33Q182 25 216 25Q293 25 337 87T381 275Q365 262 343 251Q295 227 241 227Q129 227 80 286T31 455Q31 515 58 566T138 649T266 680Q516 680 516 330Q516 150
447 65T236 -20Q177 -20 122 -3ZM297 272T322 283T364 307T381 323Q381 484 351 559T266 635Q219 635 193 584T166 455Q166 363 190 318T271 272Q297 272 322 283Z" />
<glyph unicode=":" glyph-name="colon" horiz-adv-x="238" d="M90 339T74 355T58 400Q58 428 74 444T119 461Q148 461 164 445T180 400Q180 372 164 356T119 339Q90 339 74 355ZM90 -14T74 2T58 47Q58 75 74 91T119 108Q148 108 164 92T180 47Q180 19 164 3T119
-14Q90 -14 74 2Z" />
<glyph unicode=";" glyph-name="semicolon" horiz-adv-x="249" d="M95 339T79 355T63 400Q63 428 79 444T124 461Q153 461 169 445T185 400Q185 372 169 356T124 339Q95 339 79 355ZM57 -136Q90 -114 114 -83T139 -11L124 -14Q95 -14 79 2T63 47Q63 75 79 91T124
108Q155 108 172 85T190 30Q190 -29 164 -74T75 -160L57 -136Z" />
<glyph unicode="&lt;" glyph-name="less" horiz-adv-x="610" d="M549 74L29 300V370L549 596V505L157 335L549 165V74Z" />
<glyph unicode="=" glyph-name="equal" horiz-adv-x="665" d="M58 385V455H607V385H58ZM58 205V275H607V205H58Z" />
<glyph unicode="&gt;" glyph-name="greater" horiz-adv-x="610" d="M61 74V165L453 335L61 505V596L581 370V300L61 74Z" />
<glyph unicode="?" glyph-name="question" horiz-adv-x="498" d="M205 204T220 238T266 318Q298 364 313 400T329 487Q329 567 302 601T225 635Q163 635 120 590T59 447H29Q29 508 33 542T55 599Q84 632 139 656T255 680Q349 680 409 629T469 487Q469 446 455
414T420 359T365 304Q320 263 297 232T270 156H202Q205 204 220 238ZM207 -14T191 2T175 47Q175 75 191 91T236 108Q265 108 281 92T297 47Q297 19 281 3T236 -14Q207 -14 191 2Z" />
<glyph unicode="@" glyph-name="at" horiz-adv-x="877" d="M319 -180T228 -131T85 15T34 250Q34 388 85 485T227 631T440 680Q560 680 652 632T795 491T846 270Q846 137 795 71T635 5Q594 5 560 15T510 60H505Q494 43 479 32Q445 5 390 5Q309 5 265 41T220 140Q220
188 243 220T326 270T490 288H505Q505 380 482 415T414 450Q378 450 352 428T314 360H259Q259 429 295 465Q309 479 348 487T434 495Q531 495 583 442T635 285V102Q635 79 645 65T675 51Q725 51 750 100T776 270Q776 387 735 469T617 593T440 635Q338 635 263 592T146
463T104 250Q104 124 145 38T262 -92T440 -135Q620 -135 757 -40L783 -80Q641 -180 440 -180Q319 -180 228 -131ZM441 55T456 63T485 87Q498 101 505 120V242H490Q411 242 381 218T350 140Q350 55 420 55Q441 55 456 63Z" />
<glyph unicode="A" glyph-name="A" horiz-adv-x="647" d="M565 -4T514 22T431 126L408 182H142L60 0H8L303 660H348L572 126Q610 33 676 26V1Q658 -4 628 -4Q565 -4 514 22ZM163 227H389L279 488L163 227Z" />
<glyph unicode="B" glyph-name="B" horiz-adv-x="644" d="M95 530Q95 581 81 605T25 630H15V660H285Q411 660 495 625T580 485Q580 439 544 399T441 341Q610 324 610 183Q610 79 527 40T315 0H95V530ZM300 361Q365 361 402 391T440 490Q440 559 396 589T285 620Q258
620 243 616L225 613V361H300ZM300 40Q383 40 426 76T470 178Q470 316 300 316H225V50Q236 46 245 45Q267 40 295 40H300Z" />
<glyph unicode="C" glyph-name="C" horiz-adv-x="679" d="M264 -20T190 24T76 146T37 320Q37 420 80 502T198 632T367 680Q455 680 514 658T604 599Q622 576 626 542T630 447H600Q581 539 530 587T397 635Q295 635 236 563T177 320Q177 193 231 109T397 25Q467
25 525 62T620 168L655 141Q607 57 539 19T367 -20Q264 -20 190 24Z" />
<glyph unicode="D" glyph-name="D" horiz-adv-x="736" d="M95 530Q95 581 81 605T25 630H15V660H287Q489 660 594 575T700 334Q700 235 656 160T524 42T313 0H95V530ZM310 40Q380 40 434 75T519 176T550 330Q550 417 520 482T434 584T308 620H300Q267 620 247
616L225 613V47L247 43Q268 40 300 40H310Z" />
<glyph unicode="E" glyph-name="E" horiz-adv-x="600" d="M95 530Q95 581 81 605T25 630H15V660H456Q541 660 541 580V495H511Q511 557 480 586T386 615H225V365H485V320H225V45H396Q453 45 491 70T554 159L581 149L552 70Q539 34 521 17T465 0H95V530Z" />
<glyph unicode="F" glyph-name="F" horiz-adv-x="539" d="M95 530Q95 581 81 605T25 630H15V660H434Q519 660 519 580V495H489Q489 558 458 586T364 615H225V360H445V315H225V0H95V530Z" />
<glyph unicode="G" glyph-name="G" horiz-adv-x="734" d="M293 -20T211 27T82 157T35 340Q35 436 76 513T192 635T365 680Q453 680 515 657T607 599Q624 577 628 543T633 460H603Q584 551 534 593T395 635Q283 635 229 551T175 340Q175 169 234 95T395 20Q473
20 530 46V224Q530 277 570 311T724 346V321Q660 321 660 226V47Q603 12 538 -4T395 -20Q293 -20 211 27Z" />
<glyph unicode="H" glyph-name="H" horiz-adv-x="720" d="M95 530Q95 581 81 605T25 630H15V660H135Q171 660 190 648T217 609T225 530V365H495V660H625V130Q625 79 639 55T695 30H705V0H585Q549 0 530 11T503 50T495 130V320H225V0H95V530Z" />
<glyph unicode="I" glyph-name="I" horiz-adv-x="304" d="M133 0T114 11T87 50T79 130V660H209V130Q209 79 223 55T279 30H289V0H169Q133 0 114 11Z" />
<glyph unicode="J" glyph-name="J" horiz-adv-x="278" d="M-19 -107Q29 -101 51 -60T74 83V660H204V83Q204 -6 186 -52T120 -118T-19 -137V-107Z" />
<glyph unicode="K" glyph-name="K" horiz-adv-x="693" d="M568 -10T511 15T387 110L226 278V0H96L95 530Q95 581 81 605T25 630H15V660H135Q170 660 189 648T217 608T226 530V340L399 555Q436 603 478 631T576 660H646V625Q584 625 540 610T463 554L314 370L545
130Q582 89 628 59T704 24V0Q674 -10 631 -10Q568 -10 511 15Z" />
<glyph unicode="L" glyph-name="L" horiz-adv-x="570" d="M95 530Q95 581 81 605T25 630H15V660H135Q171 660 190 648T217 609T225 530V45H570V0H95V530Z" />
<glyph unicode="M" glyph-name="M" horiz-adv-x="867" d="M739 -45T692 5T644 170V524L425 0H392L124 544V0H74V660H196L438 169L643 660H774V170Q774 76 790 32T847 -20V-45Q739 -45 692 5Z" />
<glyph unicode="N" glyph-name="N" horiz-adv-x="692" d="M148 495V0H98V540Q98 582 78 606T8 630H3V660H73Q129 660 164 646T224 600L568 200V660H618V-3H572L148 495Z" />
<glyph unicode="O" glyph-name="O" horiz-adv-x="733" d="M270 -20T195 26T78 152T37 330Q37 428 78 508T194 634T367 680Q464 680 539 634T655 508T696 330Q696 232 655 152T539 26T367 -20Q270 -20 195 26ZM458 25T508 104T558 330Q558 476 508 555T367 635Q276
635 227 556T177 330Q177 184 226 105T367 25Q458 25 508 104Z" />
<glyph unicode="P" glyph-name="P" horiz-adv-x="577" d="M95 530Q95 581 81 605T25 630H15V660H290Q393 660 476 620T560 459Q560 381 517 338T419 281T320 267H225V0H95V530ZM285 307Q344 307 382 343T420 464Q420 548 383 584T290 620Q261 620 245 616L225
613V307H285Z" />
<glyph unicode="Q" glyph-name="Q" horiz-adv-x="735" d="M571 -205T461 -157T264 -4Q160 28 99 118T38 330Q38 428 79 508T195 634T368 680Q465 680 540 634T656 508T697 330Q697 205 634 114T463 -7Q480 -54 518 -93T604 -156T693 -179V-205Q571 -205 461 -157ZM459
25T509 104T559 330Q559 476 509 555T368 635Q277 635 228 556T178 330Q178 184 227 105T368 25Q459 25 509 104Z" />
<glyph unicode="R" glyph-name="R" horiz-adv-x="616" d="M505 -10T460 22T366 135L266 302H226V0H95V530Q95 581 81 605T25 630H15V660H291Q395 660 478 622T561 476Q561 351 399 310L504 135Q563 36 628 25V0Q620 -4 599 -7T560 -10Q505 -10 460 22ZM286 342Q342
342 381 375T421 481Q421 552 382 586T291 620Q262 620 246 616L226 613V342H286Z" />
<glyph unicode="S" glyph-name="S" horiz-adv-x="561" d="M217 -17T165 -3T80 39T47 103V220H75Q90 118 138 73T272 28Q330 28 364 53T398 125Q398 165 373 193T295 254L172 328Q105 367 77 409T48 507Q48 586 108 632T272 678Q328 678 380 664T465 622T498 558V441H470Q453
543 407 588T283 633Q229 633 198 607T166 536Q166 497 190 472T270 414L393 341Q463 300 493 262T524 169Q524 82 459 33T273 -17Q217 -17 165 -3Z" />
<glyph unicode="T" glyph-name="T" horiz-adv-x="575" d="M232 615H161Q105 615 76 587T46 495H16V580Q16 660 101 660H571V615H362V0H232V615Z" />
<glyph unicode="U" glyph-name="U" horiz-adv-x="694" d="M92 -10T92 288V530Q92 581 78 605T22 630V660H132Q168 660 187 648T214 609T222 530L223 258Q224 152 264 94T382 35Q484 35 530 95T577 288V660H627V288Q627 141 565 66T362 -10Q92 -10 92 288Z" />
<glyph unicode="V" glyph-name="V" horiz-adv-x="635" d="M66 543Q43 598 21 621T-33 648V668L9 670Q75 670 125 645T207 543L365 169L576 660H627L339 -10H299L66 543Z" />
<glyph unicode="W" glyph-name="W" horiz-adv-x="906" d="M61 543Q39 598 16 621T-38 648V668L4 670Q71 670 121 646T202 543L337 198L427 454L392 543Q370 597 345 620T286 648V668L325 670Q392 670 442 645T523 543L666 179L837 660H885L648 -9H608L454 383L317
-9H277L61 543Z" />
<glyph unicode="X" glyph-name="X" horiz-adv-x="647" d="M263 311L121 530Q95 572 57 604T-13 640V660H97Q148 660 189 628T260 550L347 416L540 660H605L376 371L533 130Q559 88 597 56T667 20V0H557Q506 0 465 32T394 110L293 266L82 0H17L263 311Z" />
<glyph unicode="Y" glyph-name="Y" horiz-adv-x="638" d="M279 264L102 530Q72 573 37 605T-31 640V660H78Q129 660 170 628T241 550L377 345L571 660H636L409 291V0H279V264Z" />
<glyph unicode="Z" glyph-name="Z" horiz-adv-x="599" d="M31 32L403 616H186Q130 616 101 588T71 495H41V580Q41 660 126 660H581L189 45H576V0H31V32Z" />
<glyph unicode="[" glyph-name="bracketleft" horiz-adv-x="331" d="M66 -200V680H311V635H186V-155H311V-200H66Z" />
<glyph unicode="\" glyph-name="backslash" horiz-adv-x="475" d="M342 0L21 660H133L454 0H342Z" />
<glyph unicode="]" glyph-name="bracketright" horiz-adv-x="331" d="M20 -200V-155H145V635H20V680H265V-200H20Z" />
<glyph unicode="^" glyph-name="asciicircum" horiz-adv-x="514" d="M20 330L235 680H279L494 330H396L257 557L118 330H20Z" />
<glyph unicode="_" glyph-name="underscore" horiz-adv-x="436" d="M8 -70V0H428V-70H8Z" />
<glyph unicode="`" glyph-name="grave" horiz-adv-x="227" d="M133 477L20 680H145L207 477H133Z" />
<glyph unicode="a" glyph-name="a" horiz-adv-x="496" d="M118 -10T74 26T29 125Q29 175 52 208T135 258T299 275H314Q314 362 290 398T219 435Q180 435 155 416T119 345H64Q64 379 68 403T89 445Q120 480 239 480Q339 480 391 428T444 270V0H359L324 45H319Q310
31 291 17Q257 -10 199 -10Q118 -10 74 26ZM250 40T265 48T294 72Q307 86 314 105V230H299Q228 230 196 205T164 125Q164 84 181 62T229 40Q250 40 265 48Z" />
<glyph unicode="b" glyph-name="b" horiz-adv-x="547" d="M246 -10T212 17Q195 29 185 45H180L145 0H60V530Q60 581 46 605T-10 630H-20V660H100Q136 660 155 648T182 609T190 530V450Q203 458 218 465Q259 480 295 480Q399 480 454 412T510 235Q510 127 456 59T300
-10Q246 -10 212 17ZM329 35T352 89T375 235Q375 435 275 435Q246 435 214 420Q200 412 190 405V100Q199 80 212 67Q242 35 280 35Q329 35 352 89Z" />
<glyph unicode="c" glyph-name="c" horiz-adv-x="496" d="M199 -10T145 23T64 111T36 235Q36 303 63 358T145 447T276 480Q396 480 431 445Q448 428 452 400T456 305H426Q422 368 387 401T291 435Q236 435 204 385T171 235Q171 35 296 35Q344 35 376 56T439 118L470
95Q441 50 397 20T276 -10Q199 -10 145 23Z" />
<glyph unicode="d" glyph-name="d" horiz-adv-x="547" d="M146 -10T92 58T37 235Q37 343 92 411T252 480Q288 480 329 465Q344 458 357 450V530Q357 581 343 605T287 630H277V660H397Q433 660 452 648T479 609T487 530V0H402L367 45H362Q353 31 334 17Q300 -10
247 -10Q146 -10 92 58ZM304 35T334 67Q345 78 357 100V405Q347 413 333 420Q301 435 272 435Q172 435 172 235Q172 142 194 89T267 35Q304 35 334 67Z" />
<glyph unicode="e" glyph-name="e" horiz-adv-x="509" d="M198 -10T146 22T66 109T37 235Q37 313 65 368T144 451T257 480Q319 480 369 455T448 385T477 280Q477 261 475 237L473 217H172Q172 122 201 79T282 35Q330 35 362 56T425 118L456 95Q427 50 384 20T267
-10Q198 -10 146 22ZM342 262Q342 356 320 395T257 435Q219 435 196 395T172 262H342Z" />
<glyph unicode="f" glyph-name="f" horiz-adv-x="342" d="M72 425H12V470H72V497Q72 582 120 626T267 670Q295 670 320 666T358 653Q384 638 397 610L357 575Q342 599 320 612T272 625Q237 625 220 596T202 497V470H332V425H202V0H72V425Z" />
<glyph unicode="g" glyph-name="g" horiz-adv-x="523" d="M145 -200T80 -164T14 -45Q14 5 54 38T149 85Q104 99 104 140Q104 174 144 190Q101 205 73 242T44 324Q44 406 102 443T259 480H469V453L379 441Q421 425 447 392T474 324Q474 242 419 206T259 170Q207
170 183 165T159 140Q159 124 183 119T259 113Q367 111 435 71T504 -45Q504 -127 439 -163T259 -200Q145 -200 80 -164ZM339 210T339 324Q339 380 317 410T259 440Q222 440 201 411T179 324Q179 210 259 210Q339 210 339 324ZM311 -155T340 -128T369 -45Q369 -1
342 28T267 67L220 72Q185 57 167 29T149 -45Q149 -100 178 -127T259 -155Q311 -155 340 -128Z" />
<glyph unicode="h" glyph-name="h" horiz-adv-x="544" d="M60 530Q60 581 46 605T-10 630H-20V660H100Q136 660 155 648T182 609T190 530V442Q199 449 221 461Q261 480 300 480Q381 480 435 439T490 297V0H360V292Q360 364 335 397T270 430Q243 430 213 412Q201
405 190 395V0H60V530Z" />
<glyph unicode="i" glyph-name="i" horiz-adv-x="267" d="M108 524T89 546T69 600Q69 626 84 641T124 656Q160 656 179 634T199 580Q199 554 184 539T144 524Q108 524 89 546ZM79 340Q79 391 65 415T9 440H-1V470H119Q155 470 174 458T201 419T209 340V0H79V340Z" />
<glyph unicode="j" glyph-name="j" horiz-adv-x="267" d="M108 524T89 546T69 600Q69 626 84 641T124 656Q160 656 179 634T199 580Q199 554 184 539T144 524Q108 524 89 546ZM-9 -165Q38 -156 58 -115T79 25V340Q79 391 65 415T9 440H-1V470H119Q155 470 174
458T201 419T209 340V25Q209 -59 189 -105T122 -170T-9 -190V-165Z" />
<glyph unicode="k" glyph-name="k" horiz-adv-x="505" d="M391 -10T355 8T286 70L190 196V0H60V530Q60 581 46 605T-10 630H-20V660H100Q136 660 155 648T182 609T190 530V245L311 393Q345 434 375 452T455 470H475V444Q445 444 421 432T375 394L278 276L411 100Q459
35 504 24V0Q496 -4 475 -7T435 -10Q391 -10 355 8Z" />
<glyph unicode="l" glyph-name="l" horiz-adv-x="258" d="M64 530Q64 581 50 605T-6 630H-16V660H104Q140 660 159 648T186 609T194 530V0H64V530Z" />
<glyph unicode="m" glyph-name="m" horiz-adv-x="826" d="M80 340Q80 391 67 415T11 440H1V470H100Q165 470 185 432H189Q244 480 315 480Q364 480 400 462T453 423Q477 449 510 464T595 480Q770 480 770 296V0H640V297Q640 366 618 398T560 430Q533 430 510 420T474
392Q476 388 482 370Q490 340 490 296V0H360V297Q360 366 338 398T280 430Q259 430 237 418T203 390L206 376Q210 364 210 337V0H80V340Z" />
<glyph unicode="n" glyph-name="n" horiz-adv-x="575" d="M80 340Q80 391 67 415T11 440H1V470H100Q134 470 153 462T184 433Q235 480 330 480Q425 480 472 436T520 296V0H390V297Q390 366 365 398T295 430Q264 430 241 422T203 399L206 385Q210 373 210 346V0H80V340Z" />
<glyph unicode="o" glyph-name="o" horiz-adv-x="552" d="M203 -10T149 22T65 110T36 235Q36 304 65 359T148 447T276 480Q349 480 403 448T487 360T516 235Q516 166 487 111T404 23T276 -10Q203 -10 149 22ZM327 35T354 90T381 235Q381 325 354 380T276 435Q225
435 198 380T171 235Q171 145 198 90T276 35Q327 35 354 90Z" />
<glyph unicode="p" glyph-name="p" horiz-adv-x="567" d="M80 340Q80 391 67 415T11 440H1V470H100Q135 470 154 461T184 428Q243 480 320 480Q421 480 475 412T530 235Q530 127 475 59T315 -10Q274 -10 238 5Q222 11 210 20V-190H80V340ZM395 35T395 235Q395
327 372 381T300 435Q244 435 203 394L206 380Q210 368 210 346V65Q221 56 234 50Q262 35 295 35Q395 35 395 235Z" />
<glyph unicode="q" glyph-name="q" horiz-adv-x="547" d="M357 20Q345 11 329 5Q293 -10 252 -10Q148 -10 93 58T37 235Q37 343 91 411T247 480Q299 480 334 452Q353 439 362 425H367L402 470H487V-190H357V20ZM305 35T333 50Q347 56 357 65V370Q344 392 334 402Q303
435 267 435Q217 435 195 382T172 235Q172 35 272 35Q305 35 333 50Z" />
<glyph unicode="r" glyph-name="r" horiz-adv-x="418" d="M399 447T407 432T415 415L364 376Q357 385 346 395Q324 415 295 415Q237 415 206 384L208 369Q210 351 210 336V0H80V340Q80 391 67 415T11 440H1V470H100Q134 470 153 462T184 433Q238 480 310 480Q353
480 381 460Q399 447 407 432Z" />
<glyph unicode="s" glyph-name="s" horiz-adv-x="468" d="M112 -10T68 31Q52 46 48 73T44 150H79Q88 98 120 67T209 35Q309 35 309 103Q309 129 288 146T219 184L167 206Q103 234 71 267T39 347Q39 410 91 445T229 480Q346 480 390 439Q406 424 410 397T414 320H379Q370
372 338 403T249 435Q206 435 185 417T164 367Q164 342 181 326T235 293L295 268Q369 237 401 206T434 123Q434 59 378 25T229 -10Q112 -10 68 31Z" />
<glyph unicode="t" glyph-name="t" horiz-adv-x="354" d="M157 -10T119 27T81 136V425H21V470H81V560L131 620H211V470H321V425H211V130Q211 76 224 56T263 35Q291 35 319 48Q330 54 342 62L356 34Q343 23 325 12Q283 -10 226 -10Q157 -10 119 27Z" />
<glyph unicode="u" glyph-name="u" d="M160 -10T115 34T70 174V340Q70 391 56 415T0 440H-10V470H110Q146 470 165 458T192 419T200 340V173Q200 98 221 67T285 35Q322 35 352 67Q363 78 375 100V470H505V0H420L385 45H380Q366 30 347 17Q309 -10 255 -10Q160
-10 115 34Z" />
<glyph unicode="v" glyph-name="v" horiz-adv-x="500" d="M77 355Q50 411 31 433T-12 458V478L25 480Q92 480 137 454T217 355L305 163L441 470H495L282 -10H246L77 355Z" />
<glyph unicode="w" glyph-name="w" horiz-adv-x="775" d="M79 355Q55 411 34 434T-14 459V478L34 480Q100 480 141 453T216 355L301 164L368 324L354 355Q330 409 309 433T266 459V478L304 480Q372 480 418 453T496 355L588 154L710 470H763L579 -10H533L403 271L287
-10H242L79 355Z" />
<glyph unicode="x" glyph-name="x" horiz-adv-x="496" d="M192 209L96 370Q75 405 51 425T3 450V470H98Q144 470 173 450T226 390L274 309L405 470H472L303 262L400 100Q421 65 445 45T493 20V0H398Q352 0 323 20T270 80L221 161L90 0H23L192 209Z" />
<glyph unicode="y" glyph-name="y" horiz-adv-x="509" d="M92 -165Q147 -165 181 -144T236 -68L257 -14L77 380Q44 452 -16 460V480H72Q116 480 150 459T202 400L317 148L439 470H492L290 -65Q262 -143 225 -171T132 -200H92V-165Z" />
<glyph unicode="z" glyph-name="z" horiz-adv-x="493" d="M39 31L302 425H184Q121 425 95 403T69 330H39V390Q39 470 124 470H480L196 45H459V0H39V31Z" />
<glyph unicode="{" glyph-name="braceleft" horiz-adv-x="312" d="M194 -203T149 -154T103 -30V110Q103 155 80 185T3 224V256Q56 264 79 294T103 370V510Q103 584 148 633T293 691V656Q260 650 247 625T233 552V380Q233 323 205 290T113 240Q176 223 204 190T233
100V-72Q233 -119 246 -144T293 -176V-211Q194 -203 149 -154Z" />
<glyph unicode="|" glyph-name="bar" horiz-adv-x="262" d="M66 -190V680H196V-190H66Z" />
<glyph unicode="}" glyph-name="braceright" horiz-adv-x="312" d="M19 -176Q52 -170 65 -145T79 -72V100Q79 157 107 190T199 240Q136 257 108 290T79 380V552Q79 599 66 624T19 656V691Q118 683 163 634T209 510V370Q209 325 232 295T309 256V224Q256 216 233
186T209 110V-30Q209 -104 164 -153T19 -211V-176Z" />
<glyph unicode="~" glyph-name="asciitilde" horiz-adv-x="611" d="M401 167T367 178T285 210Q241 230 217 238T171 247Q130 247 111 232T91 187H51Q51 266 80 304T171 343Q211 343 245 332T327 300Q371 280 395 272T441 263Q483 263 502 278T521 323H561Q561
244 532 206T441 167Q401 167 367 178Z" />
<glyph unicode="&#xa0;" glyph-name="uni00A0" horiz-adv-x="250" />
<glyph unicode="&#xa1;" glyph-name="exclamdown" horiz-adv-x="239" d="M90 358T74 374T58 419Q58 447 74 463T119 480Q148 480 164 464T180 419Q180 391 164 375T119 358Q90 358 74 374ZM53 -194L72 311H166L186 -194H53Z" />
<glyph unicode="&#xa2;" glyph-name="cent" horiz-adv-x="496" d="M241 -8Q173 -3 126 31T55 118T31 235Q31 333 85 401T241 478V520H301V479Q394 474 426 445Q443 428 447 400T451 305H421Q417 364 387 396T301 434V35Q345 37 374 58T434 118L465 95Q437 54 400
26T301 -8V-50H241V-8ZM241 424Q205 406 186 359T166 235Q166 80 241 45V424Z" />
<glyph unicode="&#xa3;" glyph-name="sterling" horiz-adv-x="535" d="M36 30Q62 38 76 57T95 115T101 220V320H41V365H101V460Q101 575 162 622T306 670Q355 670 396 662T456 635Q473 618 477 595T481 535H426Q415 582 390 603T326 625Q231 625 231 460V365H361V320H231V220Q231
103 161 45H351Q410 45 438 74T466 165H496V80Q496 0 411 0H36V30Z" />
<glyph unicode="&#xa4;" glyph-name="currency" horiz-adv-x="605" d="M116 190H66V235H116V285H66V330H116V535Q116 582 102 606T46 630H36V660H311Q427 660 501 615T576 480Q576 383 501 334T306 285H246V235H496V190H246V0H116V190ZM306 330Q362 330 399 365T436
480Q436 527 417 558T370 605T311 620Q266 620 246 615V330H306Z" />
<glyph unicode="&#xa5;" glyph-name="yen" horiz-adv-x="711" d="M331 135H247V180H331V220H247V265H330L154 530Q124 573 89 605T21 640V660H130Q181 660 222 628T293 550L429 345L623 660H688L461 291V265H547V220H461V180H547V135H461V0H331V135Z" />
<glyph unicode="&#xa6;" glyph-name="brokenbar" horiz-adv-x="268" d="M69 327V680H199V327H69ZM69 -190V163H199V-190H69Z" />
<glyph unicode="&#xa7;" glyph-name="section" horiz-adv-x="450" d="M173 -200T136 -190T79 -159Q59 -139 55 -117T50 -49H82Q90 -99 118 -127T190 -155Q230 -155 250 -134T271 -67Q271 -36 258 -14T227 23T171 63Q128 91 103 111T59 159T40 225Q40 271 71 309T152
370Q106 401 81 436T55 517Q55 593 105 631T230 670Q277 670 314 660T371 629Q391 609 395 587T400 519H368Q360 569 332 597T260 625Q220 625 200 605T180 537Q180 506 192 484T223 447T279 408Q321 381 347 360T391 310T410 245Q410 196 380 159T296 100Q343
67 369 33T395 -47Q395 -123 345 -161T220 -200Q173 -200 136 -190ZM280 133T290 154T301 215Q301 253 273 283T192 344Q149 327 149 255Q149 185 258 125Q280 133 290 154Z" />
<glyph unicode="&#xa8;" glyph-name="dieresis" horiz-adv-x="282" d="M30 690T15 706T0 746Q0 770 15 786T56 802Q82 802 97 786T112 746Q112 722 97 706T56 690Q30 690 15 706ZM200 690T185 706T170 746Q170 770 185 786T226 802Q252 802 267 786T282 746Q282
722 267 706T226 690Q200 690 185 706Z" />
<glyph unicode="&#xa9;" glyph-name="copyright" horiz-adv-x="806" d="M297 -28T213 18T81 146T33 330Q33 432 81 513T213 641T403 688Q509 688 593 642T725 514T773 330Q773 228 725 147T593 19T403 -28Q297 -28 213 18ZM490 17T558 57T665 168T703 330Q703
421 665 492T559 603T403 643Q316 643 248 603T141 492T103 330Q103 239 141 168T247 57T403 17Q490 17 558 57ZM339 102T290 132T215 213T188 327Q188 392 217 446T295 533T403 565Q463 565 503 550T563 512Q577 495 580 472T584 409H553Q541 473 510 503T423
533Q360 533 322 485T283 327Q283 247 318 191T423 134Q509 134 567 230L592 212Q560 153 515 128T403 102Q339 102 290 132Z" />
<glyph unicode="&#xaa;" glyph-name="ordfeminine" horiz-adv-x="324" d="M92 396T67 413T42 466Q42 505 77 526T180 547H196Q196 598 183 616T150 635Q124 635 110 622T90 583H61Q61 605 63 618T75 641Q91 660 160 660Q212 660 240 637T268 547V401H222L203 426H200Q172
396 131 396Q92 396 67 413ZM178 421T196 455V522H180Q151 522 133 507T114 466Q114 442 124 432T150 421Q178 421 196 455Z" />
<glyph unicode="&#xab;" glyph-name="guillemotleft" horiz-adv-x="425" d="M189 30L31 225L189 420H253L156 226L253 30H189ZM308 80L206 225L308 370H372L310 225L372 80H308Z" />
<glyph unicode="&#xac;" glyph-name="logicalnot" horiz-adv-x="662" d="M513 115V220H58V290H603V115H513Z" />
<glyph unicode="&#xad;" glyph-name="uni00AD" horiz-adv-x="395" d="M58 217V312H337V217H58Z" />
<glyph unicode="&#xae;" glyph-name="registered" horiz-adv-x="806" d="M297 -25T213 20T81 147T33 330Q33 432 81 513T213 639T403 685Q509 685 593 640T725 513T773 330Q773 228 725 147T593 21T403 -25Q297 -25 213 20ZM490 20T558 59T665 168T703 330Q703
421 665 491T559 601T403 640Q316 640 248 601T141 492T103 330Q103 239 141 169T247 59T403 20Q490 20 558 59ZM517 118T491 138T431 212L364 320H344V125H256V477Q256 509 251 524T226 539H208V555H381Q459 555 508 528T558 434Q558 387 529 362T455 326L523
216Q548 177 566 160T607 139V125Q607 124 593 121T555 118Q517 118 491 138ZM417 349T440 370T463 438Q463 484 440 505T378 526L354 525Q351 524 344 524V351Q348 350 355 350Q362 349 378 349Q417 349 440 370Z" />
<glyph unicode="&#xaf;" glyph-name="overscore" horiz-adv-x="479" d="M100 557V642H379V557H100Z" />
<glyph unicode="&#xb0;" glyph-name="degree" horiz-adv-x="416" d="M128 360T83 405T38 520Q38 590 83 635T208 680Q288 680 333 635T378 520Q378 450 333 405T208 360Q128 360 83 405ZM247 420T272 448T298 520Q298 564 273 592T208 620Q169 620 144 592T118
520Q118 476 143 448T208 420Q247 420 272 448Z" />
<glyph unicode="&#xb1;" glyph-name="plusminus" horiz-adv-x="582" d="M49 55V125H246V295H49V365H246V560H336V365H533V295H336V125H533V55H49Z" />
<glyph unicode="&#xb2;" glyph-name="uni00B2" horiz-adv-x="318" d="M53 400L87 435Q130 479 150 502T181 549T192 602Q192 635 181 648T147 662Q88 662 74 583H58Q58 608 60 625T69 653Q82 669 106 679T160 689Q203 689 233 669T264 602Q264 561 241 532T165
455Q155 446 142 434T110 404H191Q220 404 234 414T248 448H263V413Q263 377 224 377H53V400Z" />
<glyph unicode="&#xb3;" glyph-name="uni00B3" horiz-adv-x="304" d="M114 367T89 380T43 418L57 430Q90 394 140 394Q163 394 178 411T194 462Q194 495 177 509T134 524Q114 524 91 518L75 546L193 653H115Q65 653 65 610H52V643Q52 680 91 680H244V662L116 547Q132
551 155 551Q199 551 232 529T266 462Q266 411 230 389T154 367Q114 367 89 380Z" />
<glyph unicode="&#xb4;" glyph-name="acute" horiz-adv-x="201" d="M20 700L62 840H181L75 700H20Z" />
<glyph unicode="&#xb5;" glyph-name="uni00B5" horiz-adv-x="550" d="M63 470H193V235Q193 135 217 85T288 35Q345 35 373 100V470H503V0H418L383 45H378Q369 30 352 17Q318 -10 273 -10Q243 -10 220 0T173 35V-190H63V470Z" />
<glyph unicode="&#xb6;" glyph-name="paragraph" horiz-adv-x="634" d="M256 270Q191 270 139 295T56 364T26 465Q26 521 56 565T138 635T256 660H596V615H541V-190H421V615H376V-190H256V270Z" />
<glyph unicode="&#xb7;" glyph-name="middot" horiz-adv-x="226" d="M84 270T68 286T52 331Q52 359 68 375T113 392Q142 392 158 376T174 331Q174 303 158 287T113 270Q84 270 68 286Z" />
<glyph unicode="&#xb8;" glyph-name="cedilla" horiz-adv-x="200" d="M40 -160H90Q108 -160 119 -151T130 -128Q130 -113 119 -104T90 -95H45V0H110V-50Q152 -50 176 -71T200 -128Q200 -164 176 -185T110 -206H40V-160Z" />
<glyph unicode="&#xb9;" glyph-name="uni00B9" horiz-adv-x="214" d="M80 377V614L46 594L30 616L98 680H152V377H80Z" />
<glyph unicode="&#xba;" glyph-name="ordmasculine" horiz-adv-x="337" d="M105 367T74 412T43 528Q43 599 74 644T168 689Q232 689 263 644T294 528Q294 458 263 413T168 367Q105 367 74 412ZM194 392T208 422T222 528Q222 604 208 634T168 664Q143 664 129 634T115
528Q115 454 129 423T168 392Q194 392 208 422Z" />
<glyph unicode="&#xbb;" glyph-name="guillemotright" horiz-adv-x="425" d="M172 30L269 226L172 420H236L394 225L236 30H172ZM53 80L115 225L53 370H117L219 225L117 80H53Z" />
<glyph unicode="&#xbc;" glyph-name="onequarter" horiz-adv-x="617" d="M113 377V614L79 594L63 616L131 680H185V377H113ZM26 0L481 660H576L121 0H26ZM467 0V73H322V97L472 304H539V100H573V73H539V0H467ZM361 100H467V246L361 100Z" />
<glyph unicode="&#xbd;" glyph-name="onehalf" horiz-adv-x="632" d="M113 377V614L79 594L63 616L131 680H185V377H113ZM26 0L481 660H576L121 0H26ZM372 23L406 58Q449 102 469 125T500 172T511 225Q511 258 500 271T466 285Q407 285 393 206H377Q377 231 379
248T388 276Q401 292 425 302T479 312Q522 312 552 292T583 225Q583 184 560 155T484 78Q474 69 461 57T429 27H510Q539 27 553 37T567 71H582V36Q582 0 543 0H372V23Z" />
<glyph unicode="&#xbe;" glyph-name="threequarters" horiz-adv-x="626" d="M108 367T83 380T37 418L51 430Q84 394 134 394Q157 394 172 411T188 462Q188 495 171 509T128 524Q108 524 85 518L69 546L187 653H109Q59 653 59 610H46V643Q46 680 85 680H238V662L110
547Q126 551 149 551Q193 551 226 529T260 462Q260 411 224 389T148 367Q108 367 83 380ZM45 0L500 660H595L140 0H45ZM476 0V73H331V97L481 304H548V100H582V73H548V0H476ZM370 100H476V246L370 100Z" />
<glyph unicode="&#xbf;" glyph-name="questiondown" horiz-adv-x="492" d="M230 360T214 376T198 421Q198 449 214 465T259 482Q288 482 304 466T320 421Q320 393 304 377T259 360Q230 360 214 376ZM146 -212T86 -161T26 -19Q26 22 40 54T75 110T130 164Q175 205
198 236T225 312H293Q290 264 275 230T229 150Q197 104 182 68T166 -19Q166 -99 193 -133T270 -167Q331 -167 375 -121T436 21H466Q466 -40 462 -74T440 -131Q411 -165 356 -188T240 -212Q146 -212 86 -161Z" />
<glyph unicode="&#xc0;" glyph-name="Agrave" horiz-adv-x="647" d="M565 -4T514 22T431 126L408 182H142L60 0H8L303 660H348L572 126Q610 33 676 26V1Q658 -4 628 -4Q565 -4 514 22ZM163 227H389L279 488L163 227ZM319 705L213 845H332L374 705H319Z" />
<glyph unicode="&#xc1;" glyph-name="Aacute" horiz-adv-x="647" d="M565 -4T514 22T431 126L408 182H142L60 0H8L303 660H348L572 126Q610 33 676 26V1Q658 -4 628 -4Q565 -4 514 22ZM163 227H389L279 488L163 227ZM301 700L343 840H462L356 700H301Z" />
<glyph unicode="&#xc2;" glyph-name="Acircumflex" horiz-adv-x="647" d="M565 -4T514 22T431 126L408 182H142L60 0H8L303 660H348L572 126Q610 33 676 26V1Q658 -4 628 -4Q565 -4 514 22ZM163 227H389L279 488L163 227ZM178 685L258 810H388L468 685H408L323
765L238 685H178Z" />
<glyph unicode="&#xc3;" glyph-name="Atilde" horiz-adv-x="647" d="M565 -4T514 22T431 126L408 182H142L60 0H8L303 660H348L572 126Q610 33 676 26V1Q658 -4 628 -4Q565 -4 514 22ZM163 227H389L279 488L163 227ZM210 756T227 778T278 800Q295 800 307 794T336
776Q338 774 349 767T370 760Q386 760 395 772T405 800H445Q445 744 428 722T378 700Q362 700 350 706T320 724Q311 730 302 735T285 740Q269 740 260 728T250 700H210Q210 756 227 778Z" />
<glyph unicode="&#xc4;" glyph-name="Adieresis" horiz-adv-x="647" d="M565 -4T514 22T431 126L408 182H142L60 0H8L303 660H348L572 126Q610 33 676 26V1Q658 -4 628 -4Q565 -4 514 22ZM163 227H389L279 488L163 227ZM213 690T198 706T183 746Q183 770 198 786T239
802Q265 802 280 786T295 746Q295 722 280 706T239 690Q213 690 198 706ZM383 690T368 706T353 746Q353 770 368 786T409 802Q435 802 450 786T465 746Q465 722 450 706T409 690Q383 690 368 706Z" />
<glyph unicode="&#xc5;" glyph-name="Aring" horiz-adv-x="647" d="M565 -4T514 22T431 126L408 182H142L60 0H8L284 619Q263 630 247 652T230 705Q230 747 256 773T325 800Q367 800 393 774T420 705Q420 675 403 652T365 619L572 126Q610 33 676 26V1Q658 -4
628 -4Q565 -4 514 22ZM348 660Q370 675 370 705Q370 728 357 741T325 755Q306 755 293 742T280 705Q280 675 303 660H348ZM163 227H389L279 488L163 227Z" />
<glyph unicode="&#xc6;" glyph-name="AE" horiz-adv-x="868" d="M348 660H724Q809 660 809 580V495H779Q779 557 748 586T654 615H493V365H753V320H493V45H664Q721 45 759 70T822 159L849 149L820 70Q807 34 789 17T733 0H363V190H145L38 0H-22L348 660ZM170 235H363V579L170
235Z" />
<glyph unicode="&#xc7;" glyph-name="Ccedilla" horiz-adv-x="679" d="M317 -160H367Q385 -160 396 -151T407 -128Q407 -113 396 -104T367 -95H322V-17Q233 -8 169 38T71 157T37 320Q37 420 80 502T198 632T367 680Q455 680 514 658T604 599Q622 576 626 542T630
447H600Q581 539 530 587T397 635Q295 635 236 563T177 320Q177 193 231 109T397 25Q467 25 525 62T620 168L655 141Q610 60 547 22T387 -19V-50Q429 -50 453 -71T477 -128Q477 -164 453 -185T387 -206H317V-160Z" />
<glyph unicode="&#xc8;" glyph-name="Egrave" horiz-adv-x="600" d="M95 530Q95 581 81 605T25 630H15V660H456Q541 660 541 580V495H511Q511 557 480 586T386 615H225V365H485V320H225V45H396Q453 45 491 70T554 159L581 149L552 70Q539 34 521 17T465 0H95V530ZM295
705L189 845H308L350 705H295Z" />
<glyph unicode="&#xc9;" glyph-name="Eacute" horiz-adv-x="600" d="M95 530Q95 581 81 605T25 630H15V660H456Q541 660 541 580V495H511Q511 557 480 586T386 615H225V365H485V320H225V45H396Q453 45 491 70T554 159L581 149L552 70Q539 34 521 17T465 0H95V530ZM280
700L322 840H441L335 700H280Z" />
<glyph unicode="&#xca;" glyph-name="Ecircumflex" horiz-adv-x="600" d="M95 530Q95 581 81 605T25 630H15V660H456Q541 660 541 580V495H511Q511 557 480 586T386 615H225V365H485V320H225V45H396Q453 45 491 70T554 159L581 149L552 70Q539 34 521 17T465 0H95V530ZM160
722L240 847H370L450 722H390L305 802L220 722H160Z" />
<glyph unicode="&#xcb;" glyph-name="Edieresis" horiz-adv-x="600" d="M95 530Q95 581 81 605T25 630H15V660H456Q541 660 541 580V495H511Q511 557 480 586T386 615H225V365H485V320H225V45H396Q453 45 491 70T554 159L581 149L552 70Q539 34 521 17T465 0H95V530ZM186
730T171 746T156 786Q156 810 171 826T212 842Q238 842 253 826T268 786Q268 762 253 746T212 730Q186 730 171 746ZM366 730T351 746T336 786Q336 810 351 826T392 842Q418 842 433 826T448 786Q448 762 433 746T392 730Q366 730 351 746Z" />
<glyph unicode="&#xcc;" glyph-name="Igrave" horiz-adv-x="304" d="M133 0T114 11T87 50T79 130V660H209V130Q209 79 223 55T279 30H289V0H169Q133 0 114 11ZM147 705L41 845H160L202 705H147Z" />
<glyph unicode="&#xcd;" glyph-name="Iacute" horiz-adv-x="304" d="M133 0T114 11T87 50T79 130V660H209V130Q209 79 223 55T279 30H289V0H169Q133 0 114 11ZM111 700L153 840H272L166 700H111Z" />
<glyph unicode="&#xce;" glyph-name="Icircumflex" horiz-adv-x="304" d="M133 0T114 11T87 50T79 130V660H209V130Q209 79 223 55T279 30H289V0H169Q133 0 114 11ZM256 695L336 820H466L546 695H486L401 775L316 695H256Z" />
<glyph unicode="&#xcf;" glyph-name="Idieresis" horiz-adv-x="304" d="M35 715T20 731T5 771Q5 795 20 811T61 827Q87 827 102 811T117 771Q117 747 102 731T61 715Q35 715 20 731ZM201 715T186 731T171 771Q171 795 186 811T227 827Q253 827 268 811T283 771Q283
747 268 731T227 715Q201 715 186 731ZM133 0T114 11T87 50T79 130V660H209V130Q209 79 223 55T279 30H289V0H169Q133 0 114 11Z" />
<glyph unicode="&#xd0;" glyph-name="Eth" horiz-adv-x="736" d="M95 305H25V355H95V530Q95 581 81 605T25 630H15V660H287Q489 660 594 575T700 334Q700 235 656 160T524 42T313 0H95V305ZM310 40Q380 40 434 75T519 176T550 330Q550 417 520 482T434 584T308
620H300Q267 620 247 616L225 613V355H300V305H225V47L247 43Q268 40 300 40H310Z" />
<glyph unicode="&#xd1;" glyph-name="Ntilde" horiz-adv-x="692" d="M148 495V0H98V540Q98 582 78 606T8 630H3V660H73Q129 660 164 646T224 600L568 200V660H618V-3H572L148 495ZM235 750T252 772T303 794Q320 794 332 788T361 770Q363 768 374 761T395 754Q411
754 420 766T430 794H470Q470 738 453 716T403 694Q387 694 375 700T345 718Q336 724 327 729T310 734Q294 734 285 722T275 694H235Q235 750 252 772Z" />
<glyph unicode="&#xd2;" glyph-name="Ograve" horiz-adv-x="733" d="M270 -20T195 26T78 152T37 330Q37 428 78 508T194 634T367 680Q464 680 539 634T655 508T696 330Q696 232 655 152T539 26T367 -20Q270 -20 195 26ZM458 25T508 104T558 330Q558 476 508 555T367
635Q276 635 227 556T177 330Q177 184 226 105T367 25Q458 25 508 104ZM362 705L256 845H375L417 705H362Z" />
<glyph unicode="&#xd3;" glyph-name="Oacute" horiz-adv-x="733" d="M270 -20T195 26T78 152T37 330Q37 428 78 508T194 634T367 680Q464 680 539 634T655 508T696 330Q696 232 655 152T539 26T367 -20Q270 -20 195 26ZM458 25T508 104T558 330Q558 476 508 555T367
635Q276 635 227 556T177 330Q177 184 226 105T367 25Q458 25 508 104ZM338 724L380 864H499L393 724H338Z" />
<glyph unicode="&#xd4;" glyph-name="Ocircumflex" horiz-adv-x="733" d="M270 -20T195 26T78 152T37 330Q37 428 78 508T194 634T367 680Q464 680 539 634T655 508T696 330Q696 232 655 152T539 26T367 -20Q270 -20 195 26ZM458 25T508 104T558 330Q558 476 508
555T367 635Q276 635 227 556T177 330Q177 184 226 105T367 25Q458 25 508 104ZM218 731L298 856H428L508 731H448L363 811L278 731H218Z" />
<glyph unicode="&#xd5;" glyph-name="Otilde" horiz-adv-x="733" d="M270 -20T195 26T78 152T37 330Q37 428 78 508T194 634T367 680Q464 680 539 634T655 508T696 330Q696 232 655 152T539 26T367 -20Q270 -20 195 26ZM458 25T508 104T558 330Q558 476 508 555T367
635Q276 635 227 556T177 330Q177 184 226 105T367 25Q458 25 508 104ZM249 794T266 816T317 838Q334 838 346 832T375 814Q377 812 388 805T409 798Q425 798 434 810T444 838H484Q484 782 467 760T417 738Q401 738 389 744T359 762Q350 768 341 773T324 778Q308
778 299 766T289 738H249Q249 794 266 816Z" />
<glyph unicode="&#xd6;" glyph-name="Odieresis" horiz-adv-x="733" d="M270 -20T195 26T78 152T37 330Q37 428 78 508T194 634T367 680Q464 680 539 634T655 508T696 330Q696 232 655 152T539 26T367 -20Q270 -20 195 26ZM458 25T508 104T558 330Q558 476 508
555T367 635Q276 635 227 556T177 330Q177 184 226 105T367 25Q458 25 508 104ZM251 735T236 751T221 791Q221 815 236 831T277 847Q303 847 318 831T333 791Q333 767 318 751T277 735Q251 735 236 751ZM431 735T416 751T401 791Q401 815 416 831T457 847Q483 847
498 831T513 791Q513 767 498 751T457 735Q431 735 416 751Z" />
<glyph unicode="&#xd7;" glyph-name="multiply" horiz-adv-x="489" d="M105 132L42 195L181 334L43 472L107 536L245 398L384 537L448 474L308 334L446 196L382 133L245 271L105 132Z" />
<glyph unicode="&#xd8;" glyph-name="Oslash" horiz-adv-x="733" d="M152 56Q97 104 67 175T37 330Q37 428 78 508T194 634T367 680Q447 680 510 649L528 680H620L576 607Q634 559 665 488T696 330Q696 232 655 152T539 26T367 -20Q287 -20 219 13L199 -20H107L152
56ZM476 593Q430 635 367 635Q276 635 227 556T177 330Q177 221 206 145L476 593ZM458 25T508 104T558 330Q558 442 525 522L253 70Q298 25 367 25Q458 25 508 104Z" />
<glyph unicode="&#xd9;" glyph-name="Ugrave" horiz-adv-x="694" d="M92 -10T92 288V530Q92 581 78 605T22 630V660H132Q168 660 187 648T214 609T222 530L223 258Q224 152 264 94T382 35Q484 35 530 95T577 288V660H627V288Q627 141 565 66T362 -10Q92 -10 92
288ZM342 705L236 845H355L397 705H342Z" />
<glyph unicode="&#xda;" glyph-name="Uacute" horiz-adv-x="695" d="M92 -10T92 288V530Q92 581 78 605T22 630V660H132Q168 660 187 648T214 609T222 530L223 258Q224 152 264 94T382 35Q484 35 530 95T577 288V660H627V288Q627 141 565 66T362 -10Q92 -10 92
288ZM337 681L379 821H498L392 681H337Z" />
<glyph unicode="&#xdb;" glyph-name="Ucircumflex" horiz-adv-x="695" d="M92 -10T92 288V530Q92 581 78 605T22 630V660H132Q168 660 187 648T214 609T222 530L223 258Q224 152 264 94T382 35Q484 35 530 95T577 288V660H627V288Q627 141 565 66T362 -10Q92 -10
92 288ZM243 681L323 806H453L533 681H473L388 761L303 681H243Z" />
<glyph unicode="&#xdc;" glyph-name="Udieresis" horiz-adv-x="695" d="M92 -10T92 288V530Q92 581 78 605T22 630V660H132Q168 660 187 648T214 609T222 530L223 258Q224 152 264 94T382 35Q484 35 530 95T577 288V660H627V288Q627 141 565 66T362 -10Q92 -10
92 288ZM267 681T252 697T237 737Q237 761 252 777T293 793Q319 793 334 777T349 737Q349 713 334 697T293 681Q267 681 252 697ZM447 681T432 697T417 737Q417 761 432 777T473 793Q499 793 514 777T529 737Q529 713 514 697T473 681Q447 681 432 697Z" />
<glyph unicode="&#xdd;" glyph-name="Yacute" horiz-adv-x="638" d="M279 264L102 530Q72 573 37 605T-31 640V660H78Q129 660 170 628T241 550L377 345L571 660H636L409 291V0H279V264ZM318 670L360 810H479L373 670H318Z" />
<glyph unicode="&#xde;" glyph-name="Thorn" horiz-adv-x="555" d="M97 560Q97 611 83 635T27 660H17V690H137Q173 690 192 678T219 639T227 560V550Q537 543 537 315Q537 86 227 80V-30H97V560ZM312 131T354 181T397 315Q397 399 355 449T227 504V125Q312 131 354 181Z" />
<glyph unicode="&#xdf;" glyph-name="germandbls" horiz-adv-x="573" d="M341 -10T308 0T255 30Q239 46 235 68T230 120H260Q264 87 291 61T360 35Q393 35 411 54T430 100Q430 135 408 158T340 211Q306 233 285 250T250 292T235 350Q235 388 249 411T291 461Q315
483 327 502T340 550Q340 587 321 606T270 625Q190 625 190 500V0H60V500Q60 598 115 634T275 670Q370 670 417 644T465 570Q465 530 447 504T392 446Q365 422 353 407T340 370Q340 335 364 312T439 259Q477 237 500 220T539 178T555 120Q555 56 503 23T380 -10Q341
-10 308 0Z" />
<glyph unicode="&#xe0;" glyph-name="agrave" horiz-adv-x="496" d="M118 -10T74 26T29 125Q29 175 52 208T135 258T299 275H314Q314 362 290 398T219 435Q180 435 155 416T119 345H64Q64 379 68 403T89 445Q120 480 239 480Q339 480 391 428T444 270V0H359L324
45H319Q310 31 291 17Q257 -10 199 -10Q118 -10 74 26ZM250 40T265 48T294 72Q307 86 314 105V230H299Q228 230 196 205T164 125Q164 84 181 62T229 40Q250 40 265 48ZM243 515L137 655H256L298 515H243Z" />
<glyph unicode="&#xe1;" glyph-name="aacute" horiz-adv-x="496" d="M118 -10T74 26T29 125Q29 175 52 208T135 258T299 275H314Q314 362 290 398T219 435Q180 435 155 416T119 345H64Q64 379 68 403T89 445Q120 480 239 480Q339 480 391 428T444 270V0H359L324
45H319Q310 31 291 17Q257 -10 199 -10Q118 -10 74 26ZM250 40T265 48T294 72Q307 86 314 105V230H299Q228 230 196 205T164 125Q164 84 181 62T229 40Q250 40 265 48ZM201 526L243 666H362L256 526H201Z" />
<glyph unicode="&#xe2;" glyph-name="acircumflex" horiz-adv-x="496" d="M118 -10T74 26T29 125Q29 175 52 208T135 258T299 275H314Q314 362 290 398T219 435Q180 435 155 416T119 345H64Q64 379 68 403T89 445Q120 480 239 480Q339 480 391 428T444 270V0H359L324
45H319Q310 31 291 17Q257 -10 199 -10Q118 -10 74 26ZM250 40T265 48T294 72Q307 86 314 105V230H299Q228 230 196 205T164 125Q164 84 181 62T229 40Q250 40 265 48ZM105 531L185 656H315L395 531H335L250 611L165 531H105Z" />
<glyph unicode="&#xe3;" glyph-name="atilde" horiz-adv-x="496" d="M118 -10T74 26T29 125Q29 175 52 208T135 258T299 275H314Q314 362 290 398T219 435Q180 435 155 416T119 345H64Q64 379 68 403T89 445Q120 480 239 480Q339 480 391 428T444 270V0H359L324
45H319Q310 31 291 17Q257 -10 199 -10Q118 -10 74 26ZM250 40T265 48T294 72Q307 86 314 105V230H299Q228 230 196 205T164 125Q164 84 181 62T229 40Q250 40 265 48ZM128 592T145 614T196 636Q213 636 225 630T254 612Q256 610 267 603T288 596Q304 596 313 608T323
636H363Q363 580 346 558T296 536Q280 536 268 542T238 560Q229 566 220 571T203 576Q187 576 178 564T168 536H128Q128 592 145 614Z" />
<glyph unicode="&#xe4;" glyph-name="adieresis" horiz-adv-x="496" d="M118 -10T74 26T29 125Q29 175 52 208T135 258T299 275H314Q314 362 290 398T219 435Q180 435 155 416T119 345H64Q64 379 68 403T89 445Q120 480 239 480Q339 480 391 428T444 270V0H359L324
45H319Q310 31 291 17Q257 -10 199 -10Q118 -10 74 26ZM250 40T265 48T294 72Q307 86 314 105V230H299Q228 230 196 205T164 125Q164 84 181 62T229 40Q250 40 265 48ZM213 535T198 551T183 591Q183 615 198 631T239 647Q265 647 280 631T295 591Q295 567 280 551T239
535Q213 535 198 551ZM393 535T378 551T363 591Q363 615 378 631T419 647Q445 647 460 631T475 591Q475 567 460 551T419 535Q393 535 378 551Z" />
<glyph unicode="&#xe5;" glyph-name="aring" horiz-adv-x="496" d="M118 -10T74 26T29 125Q29 175 52 208T135 258T299 275H314Q314 362 290 398T219 435Q180 435 155 416T119 345H64Q64 379 68 403T89 445Q120 480 239 480Q339 480 391 428T444 270V0H359L324
45H319Q310 31 291 17Q257 -10 199 -10Q118 -10 74 26ZM250 40T265 48T294 72Q307 86 314 105V230H299Q228 230 196 205T164 125Q164 84 181 62T229 40Q250 40 265 48ZM201 520T175 546T148 615Q148 657 174 683T243 710Q285 710 311 684T338 615Q338 573 312 547T243
520Q201 520 175 546ZM262 565T275 578T288 615Q288 638 275 651T243 665Q224 665 211 652T198 615Q198 592 211 579T243 565Q262 565 275 578Z" />
<glyph unicode="&#xe6;" glyph-name="ae" horiz-adv-x="795" d="M121 -10T75 26T28 120Q28 189 89 225T303 262H318Q318 351 293 393T218 435Q179 435 154 416T118 345H63Q63 379 67 403T88 445Q104 463 141 471T218 480Q280 480 324 456T393 389Q422 434 463
457T553 480Q611 480 659 455T735 385T763 280Q763 261 761 237L759 217H458V207Q459 118 488 77T568 35Q616 35 648 56T711 118L742 95Q713 50 670 20T553 -10Q443 -10 383 80Q363 42 318 16T208 -10Q121 -10 75 26ZM628 262Q628 350 605 392T543 435Q506 435
482 392T458 262H628ZM267 40T297 72Q309 86 318 105V217H303Q221 217 192 193T163 120Q163 85 181 63T228 40Q267 40 297 72Z" />
<glyph unicode="&#xe7;" glyph-name="ccedilla" horiz-adv-x="498" d="M236 -142H276Q294 -142 305 -133T316 -110Q316 -95 305 -86T276 -77H237V-7Q141 5 89 72T37 235Q37 303 64 358T146 447T277 480Q397 480 432 445Q449 428 453 400T457 305H427Q423 368 388
401T292 435Q237 435 205 385T172 235Q172 35 297 35Q345 35 377 56T440 118L471 95Q440 51 402 23T296 -9V-32Q335 -32 358 -53T382 -110Q382 -145 358 -166T296 -188H236V-142Z" />
<glyph unicode="&#xe8;" glyph-name="egrave" horiz-adv-x="509" d="M198 -10T146 22T66 109T37 235Q37 313 65 368T144 451T257 480Q319 480 369 455T448 385T477 280Q477 261 475 237L473 217H172Q172 122 201 79T282 35Q330 35 362 56T425 118L456 95Q427 50
384 20T267 -10Q198 -10 146 22ZM342 262Q342 356 320 395T257 435Q219 435 196 395T172 262H342ZM250 515L144 655H263L305 515H250Z" />
<glyph unicode="&#xe9;" glyph-name="eacute" horiz-adv-x="509" d="M198 -10T146 22T66 109T37 235Q37 313 65 368T144 451T257 480Q319 480 369 455T448 385T477 280Q477 261 475 237L473 217H172Q172 122 201 79T282 35Q330 35 362 56T425 118L456 95Q427 50
384 20T267 -10Q198 -10 146 22ZM342 262Q342 356 320 395T257 435Q219 435 196 395T172 262H342ZM219 525L261 665H380L274 525H219Z" />
<glyph unicode="&#xea;" glyph-name="ecircumflex" horiz-adv-x="509" d="M198 -10T146 22T66 109T37 235Q37 313 65 368T144 451T257 480Q319 480 369 455T448 385T477 280Q477 261 475 237L473 217H172Q172 122 201 79T282 35Q330 35 362 56T425 118L456 95Q427
50 384 20T267 -10Q198 -10 146 22ZM342 262Q342 356 320 395T257 435Q219 435 196 395T172 262H342ZM107 526L187 651H317L397 526H337L252 606L167 526H107Z" />
<glyph unicode="&#xeb;" glyph-name="edieresis" horiz-adv-x="509" d="M198 -10T146 22T66 109T37 235Q37 313 65 368T144 451T257 480Q319 480 369 455T448 385T477 280Q477 261 475 237L473 217H172Q172 122 201 79T282 35Q330 35 362 56T425 118L456 95Q427
50 384 20T267 -10Q198 -10 146 22ZM342 262Q342 356 320 395T257 435Q219 435 196 395T172 262H342ZM216 535T201 551T186 591Q186 615 201 631T242 647Q268 647 283 631T298 591Q298 567 283 551T242 535Q216 535 201 551ZM396 535T381 551T366 591Q366 615 381
631T422 647Q448 647 463 631T478 591Q478 567 463 551T422 535Q396 535 381 551Z" />
<glyph unicode="&#xec;" glyph-name="igrave" horiz-adv-x="267" d="M79 340Q79 391 65 415T9 440H-1V470H119Q155 470 174 458T201 419T209 340V0H79V340ZM129 515L23 655H142L184 515H129Z" />
<glyph unicode="&#xed;" glyph-name="iacute" horiz-adv-x="267" d="M79 340Q79 391 65 415T9 440H-1V470H119Q155 470 174 458T201 419T209 340V0H79V340ZM95 525L137 665H256L150 525H95Z" />
<glyph unicode="&#xee;" glyph-name="icircumflex" horiz-adv-x="267" d="M79 340Q79 391 65 415T9 440H-1V470H119Q155 470 174 458T201 419T209 340V0H79V340ZM-10 532L70 657H200L280 532H220L135 612L50 532H-10Z" />
<glyph unicode="&#xef;" glyph-name="idieresis" horiz-adv-x="267" d="M18 534T-1 556T-21 610Q-21 636 -6 651T34 666Q70 666 89 644T109 590Q109 564 94 549T54 534Q18 534 -1 556ZM203 534T184 556T164 610Q164 636 179 651T219 666Q255 666 274 644T294 590Q294
564 279 549T239 534Q203 534 184 556ZM79 340Q79 391 65 415T9 440H-1V470H119Q155 470 174 458T201 419T209 340V0H79V340Z" />
<glyph unicode="&#xf0;" glyph-name="eth" horiz-adv-x="557" d="M199 -10T145 22T63 110T36 235Q36 304 63 359T142 447T266 480Q315 480 351 459T406 400Q394 452 379 489T340 555L293 508L253 548L300 595Q281 613 256 619T196 625Q173 625 158 620Q161 620
143 616L129 648Q146 659 170 664T216 670Q257 670 287 661T344 634L387 680L427 642L385 600Q444 547 480 462T516 270Q516 139 455 65T276 -10Q199 -10 145 22ZM321 35T351 87T381 235Q381 316 355 375T276 435Q224 435 198 376T171 235Q171 139 201 87T276 35Q321
35 351 87Z" />
<glyph unicode="&#xf1;" glyph-name="ntilde" horiz-adv-x="575" d="M80 340Q80 391 67 415T11 440H1V470H100Q134 470 153 462T184 433Q235 480 330 480Q425 480 472 436T520 296V0H390V297Q390 366 365 398T295 430Q264 430 241 422T203 399L206 385Q210 373
210 346V0H80V340ZM177 601T194 623T245 645Q262 645 274 639T303 621Q305 619 316 612T337 605Q353 605 362 617T372 645H412Q412 589 395 567T345 545Q329 545 317 551T287 569Q278 575 269 580T252 585Q236 585 227 573T217 545H177Q177 601 194 623Z" />
<glyph unicode="&#xf2;" glyph-name="ograve" horiz-adv-x="552" d="M203 -10T149 22T65 110T36 235Q36 304 65 359T148 447T276 480Q349 480 403 448T487 360T516 235Q516 166 487 111T404 23T276 -10Q203 -10 149 22ZM327 35T354 90T381 235Q381 325 354 380T276
435Q225 435 198 380T171 235Q171 145 198 90T276 35Q327 35 354 90ZM271 515L165 655H284L326 515H271Z" />
<glyph unicode="&#xf3;" glyph-name="oacute" horiz-adv-x="552" d="M203 -10T149 22T65 110T36 235Q36 304 65 359T148 447T276 480Q349 480 403 448T487 360T516 235Q516 166 487 111T404 23T276 -10Q203 -10 149 22ZM327 35T354 90T381 235Q381 325 354 380T276
435Q225 435 198 380T171 235Q171 145 198 90T276 35Q327 35 354 90ZM233 525L275 665H394L288 525H233Z" />
<glyph unicode="&#xf4;" glyph-name="ocircumflex" horiz-adv-x="552" d="M203 -10T149 22T65 110T36 235Q36 304 65 359T148 447T276 480Q349 480 403 448T487 360T516 235Q516 166 487 111T404 23T276 -10Q203 -10 149 22ZM327 35T354 90T381 235Q381 325 354
380T276 435Q225 435 198 380T171 235Q171 145 198 90T276 35Q327 35 354 90ZM131 525L211 650H341L421 525H361L276 605L191 525H131Z" />
<glyph unicode="&#xf5;" glyph-name="otilde" horiz-adv-x="552" d="M203 -10T149 22T65 110T36 235Q36 304 65 359T148 447T276 480Q349 480 403 448T487 360T516 235Q516 166 487 111T404 23T276 -10Q203 -10 149 22ZM327 35T354 90T381 235Q381 325 354 380T276
435Q225 435 198 380T171 235Q171 145 198 90T276 35Q327 35 354 90ZM158 592T175 614T226 636Q243 636 255 630T284 612Q286 610 297 603T318 596Q334 596 343 608T353 636H393Q393 580 376 558T326 536Q310 536 298 542T268 560Q259 566 250 571T233 576Q217
576 208 564T198 536H158Q158 592 175 614Z" />
<glyph unicode="&#xf6;" glyph-name="odieresis" horiz-adv-x="552" d="M203 -10T149 22T65 110T36 235Q36 304 65 359T148 447T276 480Q349 480 403 448T487 360T516 235Q516 166 487 111T404 23T276 -10Q203 -10 149 22ZM327 35T354 90T381 235Q381 325 354
380T276 435Q225 435 198 380T171 235Q171 145 198 90T276 35Q327 35 354 90ZM240 535T225 551T210 591Q210 615 225 631T266 647Q292 647 307 631T322 591Q322 567 307 551T266 535Q240 535 225 551ZM420 535T405 551T390 591Q390 615 405 631T446 647Q472 647
487 631T502 591Q502 567 487 551T446 535Q420 535 405 551Z" />
<glyph unicode="&#xf7;" glyph-name="divide" horiz-adv-x="548" d="M248 425T233 441T218 481Q218 505 233 521T274 537Q300 537 315 521T330 481Q330 457 315 441T274 425Q248 425 233 441ZM44 297V362H504V297H44ZM248 123T233 139T218 179Q218 203 233 219T274
235Q300 235 315 219T330 179Q330 155 315 139T274 123Q248 123 233 139Z" />
<glyph unicode="&#xf8;" glyph-name="oslash" horiz-adv-x="552" d="M214 -10T160 16L148 0H56L100 60Q69 93 53 138T36 235Q36 304 65 359T148 447T276 480Q338 480 392 454L404 470H496L451 410Q483 377 499 332T516 235Q516 166 487 111T404 23T276 -10Q214
-10 160 16ZM346 392Q319 435 276 435Q225 435 198 380T171 235Q171 191 176 162L346 392ZM327 35T354 90T381 235Q381 274 375 307L205 77Q231 35 276 35Q327 35 354 90Z" />
<glyph unicode="&#xf9;" glyph-name="ugrave" d="M160 -10T115 34T70 174V340Q70 391 56 415T0 440H-10V470H110Q146 470 165 458T192 419T200 340V173Q200 98 221 67T285 35Q322 35 352 67Q363 78 375 100V470H505V0H420L385 45H380Q366 30 347 17Q309 -10 255
-10Q160 -10 115 34ZM278 515L172 655H291L333 515H278Z" />
<glyph unicode="&#xfa;" glyph-name="uacute" d="M160 -10T115 34T70 174V340Q70 391 56 415T0 440H-10V470H110Q146 470 165 458T192 419T200 340V173Q200 98 221 67T285 35Q322 35 352 67Q363 78 375 100V470H505V0H420L385 45H380Q366 30 347 17Q309 -10 255
-10Q160 -10 115 34ZM245 500L287 640H406L300 500H245Z" />
<glyph unicode="&#xfb;" glyph-name="ucircumflex" d="M160 -10T115 34T70 174V340Q70 391 56 415T0 440H-10V470H110Q146 470 165 458T192 419T200 340V173Q200 98 221 67T285 35Q322 35 352 67Q363 78 375 100V470H505V0H420L385 45H380Q366 30 347 17Q309 -10
255 -10Q160 -10 115 34ZM131 526L211 651H341L421 526H361L276 606L191 526H131Z" />
<glyph unicode="&#xfc;" glyph-name="udieresis" d="M160 -10T115 34T70 174V340Q70 391 56 415T0 440H-10V470H110Q146 470 165 458T192 419T200 340V173Q200 98 221 67T285 35Q322 35 352 67Q363 78 375 100V470H505V0H420L385 45H380Q366 30 347 17Q309 -10
255 -10Q160 -10 115 34ZM240 515T225 531T210 571Q210 595 225 611T266 627Q292 627 307 611T322 571Q322 547 307 531T266 515Q240 515 225 531ZM420 515T405 531T390 571Q390 595 405 611T446 627Q472 627 487 611T502 571Q502 547 487 531T446 515Q420 515
405 531Z" />
<glyph unicode="&#xfd;" glyph-name="yacute" horiz-adv-x="508" d="M92 -165Q147 -165 181 -144T236 -68L257 -14L77 380Q44 452 -16 460V480H72Q116 480 150 459T202 400L317 148L439 470H492L290 -65Q262 -143 225 -171T132 -200H92V-165ZM252 500L294 640H413L307
500H252Z" />
<glyph unicode="&#xfe;" glyph-name="thorn" horiz-adv-x="542" d="M60 530Q60 581 46 605T-10 630H-20V660H100Q136 660 155 648T182 609T190 530V445Q232 480 304 480Q402 480 453 414T504 235Q504 122 452 56T294 -10Q239 -10 190 10V-190H60V530ZM312 35T340
87T369 235Q369 328 342 381T269 435Q224 435 190 405V50Q230 35 259 35Q312 35 340 87Z" />
<glyph unicode="&#xff;" glyph-name="ydieresis" horiz-adv-x="508" d="M92 -165Q147 -165 181 -144T236 -68L257 -14L77 380Q44 452 -16 460V480H72Q116 480 150 459T202 400L317 148L439 470H492L290 -65Q262 -143 225 -171T132 -200H92V-165ZM249 520T234 536T219
576Q219 600 234 616T275 632Q301 632 316 616T331 576Q331 552 316 536T275 520Q249 520 234 536ZM429 520T414 536T399 576Q399 600 414 616T455 632Q481 632 496 616T511 576Q511 552 496 536T455 520Q429 520 414 536Z" />
<glyph unicode="&#x2013;" glyph-name="endash" horiz-adv-x="622" d="M64 227V292H558V227H64Z" />
<glyph unicode="&#x2014;" glyph-name="emdash" horiz-adv-x="892" d="M64 227V292H828V227H64Z" />
<glyph unicode="&#x2018;" glyph-name="quoteleft" horiz-adv-x="216" d="M78 420T61 443T43 498Q43 557 69 602T158 688L176 664Q143 642 119 611T94 539L109 542Q138 542 154 526T170 481Q170 453 154 437T109 420Q78 420 61 443Z" />
<glyph unicode="&#x2019;" glyph-name="quoteright" horiz-adv-x="218" d="M48 436Q81 458 105 489T130 561L115 558Q86 558 70 574T54 619Q54 647 70 663T115 680Q146 680 163 657T181 602Q181 543 155 498T66 412L48 436Z" />
<glyph unicode="&#x201a;" glyph-name="quotesinglbase" horiz-adv-x="228" d="M45 -136Q78 -114 102 -83T127 -11L112 -14Q83 -14 67 2T51 47Q51 75 67 91T112 108Q143 108 160 85T178 30Q178 -29 152 -74T63 -160L45 -136Z" />
<glyph unicode="&#x201c;" glyph-name="quotedblleft" horiz-adv-x="398" d="M78 420T61 443T43 498Q43 557 69 602T158 688L176 664Q143 642 119 611T94 539L109 542Q138 542 154 526T170 481Q170 453 154 437T109 420Q78 420 61 443ZM260 420T243 443T225 498Q225
557 251 602T340 688L358 664Q325 642 301 611T276 539L291 542Q320 542 336 526T352 481Q352 453 336 437T291 420Q260 420 243 443Z" />
<glyph unicode="&#x201d;" glyph-name="quotedblright" horiz-adv-x="400" d="M48 436Q81 458 105 489T130 561L115 558Q86 558 70 574T54 619Q54 647 70 663T115 680Q146 680 163 657T181 602Q181 543 155 498T66 412L48 436ZM230 436Q263 458 287 489T312 561L297
558Q268 558 252 574T236 619Q236 647 252 663T297 680Q328 680 345 657T363 602Q363 543 337 498T248 412L230 436Z" />
<glyph unicode="&#x201e;" glyph-name="quotedblbase" horiz-adv-x="410" d="M45 -136Q78 -114 102 -83T127 -11L112 -14Q83 -14 67 2T51 47Q51 75 67 91T112 108Q143 108 160 85T178 30Q178 -29 152 -74T63 -160L45 -136ZM227 -136Q260 -114 284 -83T309 -11L294
-14Q265 -14 249 2T233 47Q233 75 249 91T294 108Q325 108 342 85T360 30Q360 -29 334 -74T245 -160L227 -136Z" />
<glyph unicode="&#x2022;" glyph-name="bullet" horiz-adv-x="350" d="M116 207T78 241T40 330Q40 384 78 418T175 453Q234 453 272 419T310 330Q310 276 272 242T175 207Q116 207 78 241Z" />
<glyph unicode="&#x2039;" glyph-name="guilsinglleft" horiz-adv-x="294" d="M189 30L31 225L189 420H253L156 226L253 30H189Z" />
<glyph unicode="&#x203a;" glyph-name="guilsinglright" horiz-adv-x="294" d="M41 30L138 226L41 420H105L263 225L105 30H41Z" />
</font>
</defs>
</svg>
