<?xml version="1.0" standalone="no"?>
<!DOCTYPE svg PUBLIC "-//W3C//DTD SVG 1.1//EN" "http://www.w3.org/Graphics/SVG/1.1/DTD/svg11.dtd">
<svg xmlns="http://www.w3.org/2000/svg">
<defs >
<font id="Elsie" horiz-adv-x="510" ><font-face
    font-family="Elsie"
    units-per-em="1000"
    panose-1="2 0 0 0 0 0 0 0 0 0"
    ascent="878"
    descent="-274"
    alphabetic="0" />
<glyph unicode=" " glyph-name="space" horiz-adv-x="220" />
<glyph unicode="!" glyph-name="exclam" horiz-adv-x="281" d="M199 73T199 48T183 7T141 -10T99 6T82 48T99 90T141 107T182 90ZM148 200H132Q132 370 94 535Q82 590 82 613T97 653T140 670T183 653T198 613T186 535Q148 370 148 200Z" />
<glyph unicode="&quot;" glyph-name="quotedbl" horiz-adv-x="198" d="M40 700H59V488H40V700ZM133 700H152V488H133V700Z" />
<glyph unicode="#" glyph-name="numbersign" horiz-adv-x="729" d="M71 140V161H227L279 316H135V337H286L338 488H360L308 337H481L533 488H555L503 337H649V316H496L444 161H585V140H437L386 -10H364L415 140H242L191 -10H169L220 140H71ZM301 316L249 161H422L474
316H301Z" />
<glyph unicode="$" glyph-name="dollar" horiz-adv-x="442" d="M224 -62H204V-8Q178 -5 148 8T108 21T88 12T77 -10H64V173H78Q100 22 204 9V212Q96 260 73 312Q62 337 62 369Q62 430 106 469T211 508H213V570H233V506Q259 503 291 490T332 477Q354 477 358 508H370V343H356Q332
474 233 488V311Q314 273 341 251Q390 210 390 143T343 33T225 -10H224V-62ZM227 8Q269 8 301 27T333 88T306 153T224 203V8H227ZM178 490T154 470T129 417T150 362T213 320V490H211Q178 490 154 470Z" />
<glyph unicode="%" glyph-name="percent" horiz-adv-x="979" d="M545 308T599 376T741 445T884 377T939 212T885 48T742 -20T599 48T545 212ZM741 427Q635 427 635 213T741 -2Q849 -2 849 212T741 427ZM501 581Q475 581 447 587T404 601L390 608Q434 544 434 453T380
293T237 225T94 293T40 457T94 621T236 690Q292 690 360 644Q387 627 425 613T501 599Q576 599 624 633T688 701L697 717L714 710L291 -27L277 -18L645 625Q579 581 501 581ZM236 672Q130 672 130 458T236 243Q344 243 344 457T236 672Z" />
<glyph unicode="&amp;" glyph-name="ampersand" horiz-adv-x="661" d="M549 227T513 266T426 305T347 274T319 200T344 126T411 95Q433 95 449 105Q455 110 455 114Q455 123 446 123Q444 123 437 119T416 115T390 129T378 164T392 200T433 216T477 196T495 144T469
95T411 77Q356 77 325 114T293 202Q293 273 348 320T493 375Q510 376 538 377T582 380T620 385T655 393T680 408Q704 423 704 463T679 526T619 550Q603 550 589 542T574 524T583 515Q587 515 593 522T618 530T649 515T663 479T647 441T605 425T561 444T542 494T566
546T626 568T693 538T723 459T700 379T644 334Q577 306 522 306H499Q567 256 567 176T505 38T332 -20T161 41T102 175T139 296T229 370L227 380Q136 408 136 509Q136 580 190 625T310 670T421 639T466 549Q466 519 447 499T401 478T358 493T341 531T354 569T386
585T416 577T428 558T438 548T447 557Q447 592 415 620T341 648Q228 648 228 510Q228 462 249 429T312 395Q334 395 362 406L372 409L377 391Q283 361 245 321T207 192T258 61T390 18Q449 18 499 59T549 164Z" />
<glyph unicode="&apos;" glyph-name="quotesingle" horiz-adv-x="422" d="M177 700H196V488H177V700Z" />
<glyph unicode="(" glyph-name="parenleft" horiz-adv-x="423" d="M302 684T235 561T167 248T234 -65T423 -189V-205Q336 -205 268 -168T156 -66Q70 64 70 247Q70 431 156 561Q199 625 267 662T423 700V684Q302 684 235 561Z" />
<glyph unicode=")" glyph-name="parenright" horiz-adv-x="423" d="M121 -189T188 -66T256 247T189 560T0 684V700Q87 700 155 663T266 561Q353 431 353 247Q353 64 266 -66Q224 -130 156 -167T0 -205V-189Q121 -189 188 -66Z" />
<glyph unicode="*" glyph-name="asterisk" horiz-adv-x="328" d="M184 719T198 705T212 670T189 618T164 576Q163 585 140 617T116 670T130 705T164 719ZM132 567L79 564Q52 564 36 578T20 613T34 648T70 662T107 641T131 595T151 564Q143 567 132 567ZM248 564L196
567Q184 567 177 564Q187 570 196 595T221 641T257 662T293 649T308 614T292 578T248 564ZM79 552L132 548Q141 548 151 552Q141 546 132 521T107 475T71 454T35 467T20 502T36 537T79 552ZM144 398T130 411T116 446T139 498T164 540Q165 529 188 498T212 446T198
412T164 398ZM196 548L248 552Q275 552 291 538T308 502T294 468T258 454T221 475T197 521T177 552Q187 548 196 548Z" />
<glyph unicode="+" glyph-name="plus" horiz-adv-x="634" d="M80 226V247H307V474H327V247H554V226H327V0H307V226H80Z" />
<glyph unicode="," glyph-name="comma" horiz-adv-x="252" d="M196 29Q196 -46 108 -96L99 -81Q133 -62 155 -33T178 27T161 76T120 94Q110 94 110 86T119 76Q145 70 145 38Q145 17 130 4T92 -10T54 6T38 49T58 94T113 113T171 90T196 29Z" />
<glyph unicode="-" glyph-name="hyphen" horiz-adv-x="309" d="M52 226V247H250V226H52Z" />
<glyph unicode="." glyph-name="period" horiz-adv-x="229" d="M56 23T56 48T72 90T114 107T156 90T173 48T156 7T114 -10T73 6Z" />
<glyph unicode="/" glyph-name="slash" horiz-adv-x="392" d="M77 -213L272 715H295L100 -213H77Z" />
<glyph unicode="0" glyph-name="zero" horiz-adv-x="568" d="M190 480T284 480T431 407T485 230T432 53T284 -20T137 53T83 230T136 407ZM255 -3T284 -3T333 12T364 49T380 105T387 166T388 230T387 294T381 354T365 411T334 447T284 463T235 448T204 411T188
355T181 294T180 230T181 166T187 106T203 49T234 13Z" />
<glyph unicode="1" glyph-name="one" horiz-adv-x="421" d="M173 15V366Q137 343 86 329L81 345Q138 362 168 386T208 460Q242 464 262 473V15H349V0H93V15H173Z" />
<glyph unicode="2" glyph-name="two" horiz-adv-x="523" d="M84 417T127 448T244 480T373 448T428 354T393 255T309 195T209 156T124 110T89 41L95 38Q113 60 141 70T234 80H390Q412 80 421 91T432 127H444V0H71V40Q71 79 98 111T163 165T239 211T304 267T331
347T303 427T219 460T134 432T103 369Q103 360 111 360T121 369Q127 397 161 397Q183 397 196 383T210 345T193 306T150 290T104 309T84 359Q84 417 127 448Z" />
<glyph unicode="3" glyph-name="three" horiz-adv-x="511" d="M75 417T118 448T234 480T360 446T414 347T378 246T268 186L270 177Q349 177 395 128T441 -1Q441 -100 381 -156T220 -212Q149 -212 102 -182T55 -91Q55 -61 74 -41T120 -20T163 -35T180 -73T167 -111T132
-127Q98 -127 92 -101Q90 -92 82 -92T74 -101Q74 -136 108 -164T207 -192T307 -143T342 -21T313 104T225 155Q209 155 160 136L153 153Q322 224 322 341Q322 395 294 427T210 460T125 432T94 369Q94 360 102 360T112 369Q118 397 152 397Q174 397 187 383T201 345T184
306T141 290T95 309T75 359Q75 417 118 448Z" />
<glyph unicode="4" glyph-name="four" horiz-adv-x="581" d="M37 0V15Q277 244 313 460Q347 464 367 473V25H454V0H367V-194H278V0H37ZM75 25H278V290H273Q239 221 186 152T75 29V25Z" />
<glyph unicode="5" glyph-name="five" horiz-adv-x="533" d="M58 -91Q58 -61 77 -42T123 -22T167 -37T184 -76T171 -114T135 -129Q101 -129 95 -101Q94 -92 86 -92T77 -101Q77 -136 111 -164T212 -192T312 -135T345 12Q345 207 234 207Q148 207 89 111H74V460H333Q355
460 364 471T375 507H387V380H91V153H98Q157 227 248 227T391 174T444 19T387 -147T223 -212Q152 -212 105 -182T58 -91Z" />
<glyph unicode="6" glyph-name="six" horiz-adv-x="591" d="M330 650Q293 650 267 635T226 598T204 542Q193 495 193 420V348H196Q216 377 249 392T316 407Q401 407 452 352T503 203T447 45T299 -20Q241 -20 199 8T134 87Q91 184 91 333T149 576T317 670Q383 670
427 640T472 549Q472 519 453 499T405 478T362 495T346 534T359 571T399 586T435 559Q438 550 444 550Q453 550 453 559Q453 593 422 621T330 650ZM193 283V187Q193 82 217 40T298 -3T381 40T406 189T382 340T301 387Q264 387 229 357T193 283Z" />
<glyph unicode="7" glyph-name="seven" horiz-adv-x="479" d="M50 459H379Q407 459 417 469T429 506H447V494Q447 392 425 314T372 186T309 92Q234 -16 234 -144Q234 -170 220 -183T185 -197T150 -183T136 -143Q136 -17 283 117Q340 169 366 220Q380 247 390 267T407
316Q418 359 422 391L426 416Q408 380 310 380H121Q93 380 81 369T67 333H50V459Z" />
<glyph unicode="8" glyph-name="eight" horiz-adv-x="561" d="M103 589T154 629T284 670T407 626T451 518Q451 473 429 433T367 367Q423 326 454 283T486 183Q486 103 429 42T278 -20T129 36T75 174Q75 229 103 279T184 361Q103 433 103 511ZM418 123Q418 157
395 189T345 242T271 296T199 348Q149 322 121 273T93 175Q93 101 142 50T262 -2T376 33T418 123ZM196 518T210 499T232 469T259 445T286 423Q315 402 351 378Q387 400 410 436T433 514Q433 576 395 613T305 650T225 625T196 559Z" />
<glyph unicode="9" glyph-name="nine" horiz-adv-x="591" d="M261 -190Q298 -190 324 -175T365 -138T387 -82Q398 -35 398 40V112H395Q375 83 342 68T275 53Q190 53 139 108T88 257T144 415T292 480Q350 480 392 452T456 373Q500 276 500 127T442 -116T274 -210Q208
-210 164 -180T119 -89Q119 -59 138 -39T186 -18T229 -35T245 -74T232 -111T192 -126T156 -99Q153 -90 147 -90Q138 -90 138 -99Q138 -133 169 -161T261 -190ZM398 177V273Q398 378 374 420T293 463T210 420T185 271T209 120T290 73Q327 73 362 103T398 177Z" />
<glyph unicode=":" glyph-name="colon" horiz-adv-x="229" d="M56 387T56 412T72 454T114 471T156 454T173 412T156 371T114 354T73 370ZM56 24T56 49T72 91T114 108T156 91T173 49T156 8T114 -9T73 7Z" />
<glyph unicode=";" glyph-name="semicolon" horiz-adv-x="252" d="M56 386T56 411T72 453T114 470T156 453T173 411T156 370T114 353T73 369ZM196 29Q196 -46 108 -96L99 -81Q133 -62 155 -33T178 27T161 76T120 94Q110 94 110 86T119 76Q145 70 145 38Q145 17
130 4T92 -10T54 6T38 49T58 94T113 113T171 90T196 29Z" />
<glyph unicode="&lt;" glyph-name="less" horiz-adv-x="471" d="M14 220V240L470 409L478 389L48 230L478 71L470 51L14 220Z" />
<glyph unicode="=" glyph-name="equal" horiz-adv-x="642" d="M83 144V165H557V144H83ZM557 330V309H83V330H557Z" />
<glyph unicode="&gt;" glyph-name="greater" d="M466 240V220L10 51L2 71L432 230L2 389L10 409L466 240Z" />
<glyph unicode="?" glyph-name="question" horiz-adv-x="404" d="M146 23T146 48T162 90T204 107T246 90T263 48T246 7T204 -10T163 6ZM165 670Q355 670 355 539Q355 500 333 467T280 412T217 369Q142 321 142 288T159 236T206 218Q259 218 283 263L298 253Q267
200 204 200Q167 200 143 223T119 279T140 344T185 401T231 461T252 542T226 618T142 650T54 623T23 567Q23 558 31 558T41 567Q47 593 81 593Q103 593 116 578T129 540T113 502T70 486T24 506T4 557Q4 613 51 641T165 670Z" />
<glyph unicode="@" glyph-name="at" horiz-adv-x="710" d="M516 239V122Q516 71 556 71Q570 71 588 88T621 148T637 248Q637 369 555 446T354 524T155 441T73 238T148 41T343 -37Q416 -37 478 -3L489 -23Q423 -60 343 -60Q215 -60 133 24T50 238T138 457T354 547T571
464T660 248Q660 154 622 97T528 39Q489 39 467 65T445 132H439Q425 85 394 62T311 39T221 66T183 142Q183 208 242 234T404 261H427V270Q427 345 416 376T386 418T325 429T255 406T228 356Q228 347 236 347T246 356Q252 382 286 382Q308 382 321 367T334 329T318
291T275 275T229 295T209 346Q209 398 251 423T346 449T427 442T475 423T502 382Q516 338 516 239ZM427 195V243H408Q345 243 313 220T280 154T298 89T342 66Q427 66 427 195Z" />
<glyph unicode="A" glyph-name="A" horiz-adv-x="636" d="M154 148Q143 118 143 90T153 46T187 25Q222 16 280 16H297V0H1V16Q54 16 81 45T130 138L293 609Q300 631 306 642Q320 670 352 670H355L557 16H628V0H372V16H446L377 242H186L154 148ZM284 526L192 258H372L290
526H284Z" />
<glyph unicode="B" glyph-name="B" horiz-adv-x="641" d="M291 0H52V16H125V634H52V650H279Q422 650 483 620T545 516T498 403T374 358V352Q461 350 515 311T569 195Q569 0 291 0ZM369 16T413 57T457 187T407 310T252 344H229V16H276Q369 16 413 57ZM344 360T388
394T433 504T394 607T272 634H229V360H257Q344 360 388 394Z" />
<glyph unicode="C" glyph-name="C" horiz-adv-x="579" d="M174 388Q174 362 174 309T180 207T202 108T253 31T340 3Q424 3 471 59T525 207L543 205Q536 102 478 41T322 -20Q194 -20 123 81T52 325T126 569T327 670Q372 670 421 653T479 636Q508 636 513 670H525V436H509Q494
535 455 593T336 651Q241 651 206 570Q177 501 174 388Z" />
<glyph unicode="D" glyph-name="D" horiz-adv-x="687" d="M311 0H52V16H125V634H52V650H325Q477 650 556 570T635 329T557 84T311 0ZM497 146T505 197T513 325T505 452T475 546Q433 634 310 634H229V16H290Q430 16 474 102Q497 146 505 197Z" />
<glyph unicode="E" glyph-name="E" horiz-adv-x="619" d="M52 0V16H125V634H52V650H533V442H517Q517 563 480 598T319 634H229V347H282Q354 347 381 374T408 475H425V200H408Q408 274 381 302T282 331H229V16H310Q386 16 427 24T494 59T528 126T541 245H557L547 0H52Z" />
<glyph unicode="F" glyph-name="F" horiz-adv-x="556" d="M52 0V16H125V634H52V650H528V432H512Q512 498 506 534T478 594T420 626T319 634H229V337H282Q354 337 381 364T408 465H425V190H408Q408 264 381 292T282 321H229V16H312V0H52Z" />
<glyph unicode="G" glyph-name="G" horiz-adv-x="661" d="M454 284H381V300H631V284H558V8Q539 15 512 15T427 -2T324 -20Q196 -20 125 81T54 325T128 569T329 670Q374 670 430 653T495 636Q524 636 529 670H541V451H525Q510 542 464 596T338 651Q243 651 208
570Q179 501 176 388Q176 362 176 309T182 207T204 108T255 31T345 3T454 26V284Z" />
<glyph unicode="H" glyph-name="H" horiz-adv-x="733" d="M125 634H52V650H312V634H229V344H504V634H431V650H691V634H608V16H691V0H431V16H504V328H229V16H312V0H52V16H125V634Z" />
<glyph unicode="I" glyph-name="I" horiz-adv-x="354" d="M125 634H52V650H312V634H229V16H312V0H52V16H125V634Z" />
<glyph unicode="J" glyph-name="J" horiz-adv-x="369" d="M122 -235Q81 -235 55 -207T29 -145T50 -88T99 -66T147 -84T167 -130T152 -173T115 -188Q80 -188 68 -157Q64 -148 58 -148Q48 -148 50 -159Q54 -184 75 -200T129 -217T181 -191T201 -126T171 -35T140
60V634H57V650H317V634H244V-33Q244 -132 212 -183T122 -235Z" />
<glyph unicode="K" glyph-name="K" horiz-adv-x="670" d="M125 634H52V650H312V634H229V293L397 484Q455 551 455 588Q455 610 441 620T413 632T368 634V650H627V634Q594 634 562 616T508 576T447 512L384 441L620 16H691V0H427V16H501L315 363L229 266V16H312V0H52V16H125V634Z"
/>
<glyph unicode="L" glyph-name="L" horiz-adv-x="557" d="M52 0V16H125V634H52V650H322V634H229V16H280Q356 16 397 23T464 59T498 127T511 245H527L517 0H52Z" />
<glyph unicode="M" glyph-name="M" horiz-adv-x="845" d="M803 650V634H720V16H803V0H543V16H616V588H610L417 9H413Q384 9 368 30T337 90L150 588H145V143Q145 70 172 43T273 16H280V0H-6V16Q67 16 96 43T125 143V594Q123 618 107 626T60 635H15V650H242L433
136H439L610 650H803Z" />
<glyph unicode="N" glyph-name="N" horiz-adv-x="662" d="M537 507V-7H521Q488 -7 468 14T413 94L149 548H145V143Q145 70 172 43T273 16H280V0H-6V16Q67 16 96 43T125 143V589Q98 635 20 635V650H124Q172 650 196 634T246 575L511 120H517V507Q517 580 490 607T389
634H382V650H668V634Q595 634 566 607T537 507Z" />
<glyph unicode="O" glyph-name="O" horiz-adv-x="670" d="M469 -20T335 -20T127 80T52 326T128 570T335 670T542 571T618 326T544 81ZM241 24T269 12T334 -1T399 12T444 51T472 105T488 176T494 250T496 328T495 405T488 478T472 547T444 600T400 638T335 651T271
639T226 601T198 548T182 478Q174 412 174 346T175 249T180 175T196 104T224 51Z" />
<glyph unicode="P" glyph-name="P" horiz-adv-x="576" d="M125 634H52V650H310Q416 650 479 621Q555 586 555 482Q555 283 301 283H229V16H312V0H52V16H125V634ZM372 299T407 342T443 474T405 599T279 634H229V299H287Q372 299 407 342Z" />
<glyph unicode="Q" glyph-name="Q" horiz-adv-x="670" d="M241 24T269 12T334 -1T399 12T444 51T472 105T488 176T494 250T496 328T495 405T488 478T472 547T444 600T400 638T335 651T271 639T226 601T198 548T182 478Q174 412 174 346T175 249T180 175T196 104T224
51ZM400 -161T438 -185T511 -209T571 -193T601 -145Q603 -134 593 -134Q586 -134 583 -142Q571 -174 536 -174Q514 -174 499 -159T484 -116T504 -70T551 -52T600 -74T622 -133T591 -198T513 -227T416 -205T322 -160T249 -138T206 -149T191 -180T214 -227L200 -238Q157
-190 157 -137T193 -56T290 -22V-17Q177 0 115 97T52 332T128 570T335 670T542 571T618 328Q618 220 575 131T444 2Q390 -22 318 -31T240 -53V-56Q270 -56 306 -80T371 -132Z" />
<glyph unicode="R" glyph-name="R" horiz-adv-x="667" d="M520 -10Q484 -10 462 20T440 109V175Q440 260 407 295T301 330H229V16H312V0H52V16H125V634H52V650H293Q444 650 497 616Q520 602 536 575T552 508Q552 440 512 396T395 341V336Q487 336 516 292T546
142V96Q546 60 551 47T568 33T594 53T617 113L635 109Q611 -10 520 -10ZM377 346T408 378T440 497T404 609T279 634H229V346H293Q377 346 408 378Z" />
<glyph unicode="S" glyph-name="S" horiz-adv-x="504" d="M260 -1Q322 -1 358 36T394 129T358 220T271 274T169 318T82 384T46 490Q46 575 96 622T232 670Q277 670 333 653T398 636Q427 636 432 670H444V451H428Q413 542 367 596T241 651Q187 651 155 620T122
536T158 449T245 395T347 351T434 285T470 179Q470 90 407 35T250 -20Q204 -20 153 -3T92 14Q63 14 58 -20H46L36 225H52Q82 -1 260 -1Z" />
<glyph unicode="T" glyph-name="T" horiz-adv-x="536" d="M143 0V16H216V634Q124 634 80 604Q44 581 31 500Q26 468 23 412H7L17 650H519L529 412H513Q508 511 493 551T456 604Q412 634 320 634V16H403V0H143Z" />
<glyph unicode="U" glyph-name="U" horiz-adv-x="679" d="M116 634H43V650H303V634H220V308Q220 168 234 118Q251 57 281 34Q322 3 372 3T452 20T499 63T526 130Q542 195 542 293V507Q542 580 515 607T414 634H407V650H693V634Q620 634 591 607T562 507V328Q562
176 542 112Q520 45 482 16Q435 -20 363 -20T243 3T166 73Q116 157 116 308V634Z" />
<glyph unicode="V" glyph-name="V" horiz-adv-x="497" d="M426 507Q435 532 435 559T424 601T391 624Q355 634 298 634H281V650H577V634Q524 634 497 605T448 512L285 41Q278 19 272 8Q258 -20 226 -20H223L21 634H-50V650H210V634H136L286 118H292L426 507Z" />
<glyph unicode="W" glyph-name="W" horiz-adv-x="812" d="M751 507Q760 533 760 559T749 601T716 624Q680 634 623 634H606V650H902V634Q849 634 822 605T773 512L616 41Q609 19 604 8Q589 -20 557 -20H554L415 430L285 41Q278 19 272 8Q258 -20 226 -20H223L21
634H-50V650H210V634H136L286 118H292L405 462L352 634H281V650H541V634H467L617 118H623L751 507Z" />
<glyph unicode="X" glyph-name="X" horiz-adv-x="673" d="M644 649V633Q597 631 565 614T510 551L403 343L604 16H687V0H415V16H488L289 338L191 155Q166 107 166 73T190 28T262 16H270V0H10V16Q57 18 89 35T144 98L278 358L108 634H35V650H307V634H224L392 361L463
494Q488 542 488 576T464 621T392 633H384V649H644Z" />
<glyph unicode="Y" glyph-name="Y" horiz-adv-x="598" d="M612 649V633Q565 631 533 614T478 551L357 311V16H440V0H180V16H253V301L74 634H1V650H269V634H186L346 331L430 494Q456 546 456 578T432 621T360 633H352V649H612Z" />
<glyph unicode="Z" glyph-name="Z" horiz-adv-x="524" d="M500 650V634L130 16H263Q339 16 380 24T447 59T481 126T494 245H510L500 0H14V16L384 634H250Q185 634 149 627T92 595T64 534T57 432H41V650H500Z" />
<glyph unicode="[" glyph-name="bracketleft" horiz-adv-x="306" d="M306 650V634H190V-159H306V-175H86V650H306Z" />
<glyph unicode="\" glyph-name="backslash" horiz-adv-x="295" d="M-30 713L262 -114H240L-51 713H-30Z" />
<glyph unicode="]" glyph-name="bracketright" horiz-adv-x="306" d="M0 634V650H220V-175H0V-159H116V634H0Z" />
<glyph unicode="^" glyph-name="asciicircum" horiz-adv-x="477" d="M431 148L415 139L258 436L101 139L86 149L252 469H263L431 148Z" />
<glyph unicode="_" glyph-name="underscore" horiz-adv-x="438" d="M468 -194V-215H-26V-194H468Z" />
<glyph unicode="`" glyph-name="grave" horiz-adv-x="352" d="M46 647Q46 662 55 671T84 680T126 653Q130 645 139 636T155 618T168 605T183 592T200 577T219 563Q236 551 267 534L260 519L80 603Q46 618 46 647Z" />
<glyph unicode="a" glyph-name="a" horiz-adv-x="525" d="M241 480Q360 480 398 427T437 240V63Q437 22 455 22Q492 22 504 137L522 135Q507 -20 421 -20Q396 -20 383 -2T366 37T362 91H356Q343 38 303 9T201 -20T91 13T44 110Q44 157 71 188Q127 252 325 252Q336
252 348 252V301Q348 380 321 420T228 460T130 433T99 377Q99 368 107 368T117 377Q123 403 157 403Q179 403 192 388T205 350T189 312T146 296T100 316T80 367Q80 423 127 451T241 480ZM348 167V234Q338 234 317 234T266 231T205 216Q141 193 141 114Q141 66 164
37T238 8T318 54T348 167Z" />
<glyph unicode="b" glyph-name="b" horiz-adv-x="570" d="M193 369H199Q217 420 252 450T337 480Q427 480 470 410T514 231T469 52T331 -20T199 62H193V0H38V15H104V675H33V690H54Q132 690 193 703V369ZM191 231V195Q191 117 221 63T315 8Q384 8 402 86Q417 149
417 212T414 308T401 376T369 432T315 452T259 430T220 372Q191 301 191 231Z" />
<glyph unicode="c" glyph-name="c" horiz-adv-x="459" d="M289 460Q153 460 153 234T291 8Q343 8 376 46T423 144L441 142Q426 69 381 25T267 -20Q164 -20 110 49T56 232T110 412T273 480Q342 480 385 450T428 359Q428 329 409 309T363 288T320 303T303 341T316
379T351 395Q385 395 391 369Q392 360 400 360T409 369Q409 403 379 431T289 460Z" />
<glyph unicode="d" glyph-name="d" horiz-adv-x="565" d="M532 0H377V91H371Q353 40 318 10T233 -20Q143 -20 100 50T56 229T101 408T239 480T371 398H377V675H306V690H327Q405 690 466 703V15H532V0ZM379 229V265Q379 343 349 397T255 452Q186 452 168 374Q153
311 153 248T156 152T169 84T201 28T255 8T311 30T350 88Q379 159 379 229Z" />
<glyph unicode="e" glyph-name="e" horiz-adv-x="490" d="M276 480Q351 480 401 448T452 352Q452 253 339 230Q282 219 197 219H150V190Q150 109 183 59T281 8T382 46T434 144L452 142Q436 69 388 25T265 -20Q161 -20 107 48T53 230T111 411T276 480ZM150 237H185Q266
237 298 253T343 292T355 359T334 432T268 463T197 432T160 358T150 265V237Z" />
<glyph unicode="f" glyph-name="f" horiz-adv-x="311" d="M276 606Q289 606 289 631T271 674T220 692T166 666T145 601T169 524T197 460H290V445H198V15H264V0H43V15H109V445H38V460H109V528Q109 710 225 710Q260 710 283 687T307 631T287 576T240 553T197 568T180
606T193 644T226 660T258 650T269 625L268 614Q268 606 276 606Z" />
<glyph unicode="g" glyph-name="g" horiz-adv-x="512" d="M388 598Q365 598 348 580T330 533Q330 481 377 446Q460 384 460 278Q460 190 405 133T263 75Q222 75 188 89Q151 78 123 57T94 8Q94 -40 161 -40Q191 -40 269 -11T385 19T450 -7T476 -80Q476 -152 420
-193T294 -235Q157 -235 111 -120Q46 -106 46 -30Q46 14 81 47T168 98Q120 123 93 170T66 278Q66 366 121 423T263 480Q296 480 334 468L336 470Q312 497 312 534T336 594T395 617T449 598T470 553T455 511T417 494T379 507T363 542Q363 574 389 580Q398 582 398
590T388 598ZM368 237T368 278T365 347T351 405T319 449T263 464T207 449T175 405T162 348T158 278T161 208T175 150T207 106T263 91T319 106T351 150T364 208ZM134 -122H133Q147 -167 190 -193T286 -219T384 -194T428 -122Q428 -95 411 -80T365 -64T250 -93T134
-122Z" />
<glyph unicode="h" glyph-name="h" horiz-adv-x="588" d="M261 15V0H40V15H106V675H35V690H56Q135 690 197 703V373H203Q220 421 260 450T351 480Q438 480 470 429T502 275V15H568V0H347V15H413V261Q413 374 396 410Q388 426 372 439T323 452T263 429T220 366Q195
295 195 196V15H261Z" />
<glyph unicode="i" glyph-name="i" horiz-adv-x="296" d="M197 15H263V0H42V15H108V445H37V460H58Q136 460 197 473V15ZM91 586T91 611T107 653T149 670T191 653T208 611T191 570T149 553T108 569Z" />
<glyph unicode="j" glyph-name="j" horiz-adv-x="287" d="M92 586T92 611T108 653T150 670T192 653T209 611T192 570T150 553T109 569ZM32 -131Q19 -131 19 -157T39 -200T90 -217Q166 -217 166 -122Q166 -87 140 -41T113 40V445H42V460H63Q141 460 202 473V-53Q202
-235 90 -235Q52 -235 27 -212T1 -157T21 -101T68 -78T111 -93T128 -131T115 -169T82 -185T50 -175T39 -150L40 -139Q40 -131 32 -131Z" />
<glyph unicode="k" glyph-name="k" horiz-adv-x="492" d="M257 262L193 251V15H259V0H38V15H104V675H33V690H54Q132 690 193 703V268Q391 294 391 396Q391 426 376 444T337 462Q327 462 327 454T336 444Q362 438 362 405Q362 384 347 371T309 357T271 373T255
416T275 461T330 480T386 458T408 396Q408 313 304 276V274Q382 270 406 233T430 112V74Q430 36 436 20T461 3Q468 3 479 6L481 -6Q455 -13 427 -13Q341 -13 341 86V140Q341 262 263 262H257Z" />
<glyph unicode="l" glyph-name="l" horiz-adv-x="291" d="M195 15H261V0H40V15H106V675H35V690H56Q134 690 195 703V15Z" />
<glyph unicode="m" glyph-name="m" horiz-adv-x="870" d="M261 15V0H40V15H106V445H35V460H56Q135 460 197 473V373H203Q220 421 259 450T348 480Q467 480 489 373H495Q512 421 551 450T640 480Q726 480 755 430T784 275V15H850V0H629V15H695V298Q695 412 662
440Q646 452 621 452Q487 452 487 196V15H553V0H337V15H403V298Q403 412 370 440Q354 452 329 452Q195 452 195 196V15H261Z" />
<glyph unicode="n" glyph-name="n" horiz-adv-x="588" d="M261 15V0H40V15H106V445H35V460H56Q135 460 197 473V373H203Q220 421 260 450T351 480Q438 480 470 429T502 275V15H568V0H347V15H413V261Q413 374 396 410Q388 426 372 439T323 452T263 429T220 366Q195
295 195 196V15H261Z" />
<glyph unicode="o" glyph-name="o" horiz-adv-x="546" d="M377 -20T273 -20T111 50T53 230T111 410T273 480T435 410T493 230T435 50ZM396 192T396 230T394 297T385 359T365 413T329 449T273 463T218 449T182 414T162 359T152 297T150 230T152 163T161 101T181
47T217 11T273 -3T328 11T364 46T384 101T394 163Z" />
<glyph unicode="p" glyph-name="p" horiz-adv-x="567" d="M190 -200H256V-215H35V-200H101V445H30V460H51Q129 460 190 473V369H196Q214 420 249 450T334 480Q424 480 467 410T511 231T466 52T328 -20T196 62H190V-200ZM188 231V195Q188 117 218 63T312 8Q381
8 399 86Q414 149 414 212T411 308T398 376T366 432T312 452T256 430T217 372Q188 301 188 231Z" />
<glyph unicode="q" glyph-name="q" horiz-adv-x="567" d="M311 -200H377V91H371Q353 40 318 10T233 -20Q143 -20 100 50T56 229T101 408T239 480T371 398H377V473Q438 460 516 460H537V445H466V-200H532V-215H311V-200ZM379 229V265Q379 343 349 397T255 452Q186
452 168 374Q153 311 153 248T156 152T169 84T201 28T255 8T311 30T350 88Q379 159 379 229Z" />
<glyph unicode="r" glyph-name="r" horiz-adv-x="408" d="M396 404Q396 430 377 447T326 464T267 439T224 372Q197 293 197 201V15H270V0H42V15H108V445H37V460H58Q138 460 199 473V369H205Q247 480 331 480Q368 480 391 457T415 399T396 344T350 323T307 338T290
376T303 414T338 430Q372 430 378 404Q380 395 388 395T396 404Z" />
<glyph unicode="s" glyph-name="s" horiz-adv-x="475" d="M250 480Q402 480 402 377Q402 347 383 327T337 306T294 321T277 359T290 397T325 413Q359 413 365 387Q366 378 374 378T383 387Q383 415 356 437T272 460T179 439T142 381T171 320T241 282T323 251T394
203T423 128Q423 53 370 17T237 -20T110 8T62 93Q62 123 81 143T127 164T170 149T187 111T174 73T139 57Q105 57 99 83Q98 92 90 92T81 83Q81 53 114 27T214 0Q359 0 359 94Q359 152 260 188Q218 203 177 219T107 267T78 342Q78 406 128 443T250 480Z" />
<glyph unicode="t" glyph-name="t" horiz-adv-x="329" d="M195 445V105Q195 21 206 12Q212 7 222 7Q247 7 270 36T309 99L325 93Q306 45 274 13T200 -20Q141 -20 124 15T106 127V445H35V460H42Q157 460 182 592H195V460H316V445H195Z" />
<glyph unicode="u" glyph-name="u" horiz-adv-x="599" d="M406 445H335V460H356Q434 460 495 473V15H561V0H404V87H398Q381 39 341 10T250 -20Q165 -20 136 31T106 185V445H35V460H56Q134 460 195 473V199Q195 105 202 81T217 40Q233 8 271 8T338 31T381 94Q406
165 406 264V445Z" />
<glyph unicode="v" glyph-name="v" horiz-adv-x="505" d="M212 98T238 62T297 25T364 69T419 183T441 320Q441 462 362 462Q352 462 352 454T361 444Q389 438 389 412T374 372T336 359T297 375T281 417T302 461T353 480Q459 480 459 324Q459 242 433 163T361 32T264
-20Q179 -20 130 92T80 389V445H9V460H30Q109 460 171 473V412Q171 271 198 157Q212 98 238 62Z" />
<glyph unicode="w" glyph-name="w" horiz-adv-x="799" d="M595 25Q645 25 688 120T731 320Q731 464 653 464Q643 464 643 456T652 446Q679 441 679 406Q678 385 664 372T626 359T587 375T571 417T592 461T643 480Q749 480 749 324Q749 196 693 88T561 -20Q464
-20 413 126Q386 60 347 20T264 -20Q179 -20 130 92T80 389V445H9V460H30Q109 460 171 473V412Q171 271 198 157Q212 98 238 62T295 25T355 60T404 153Q377 251 377 389V445H306V460H327Q406 460 468 473V412Q468 271 495 157Q509 98 535 62T595 25Z" />
<glyph unicode="x" glyph-name="x" horiz-adv-x="480" d="M290 406T317 441T379 476T435 457T456 412T441 370T403 353T365 366T349 399T357 427T375 441T384 450Q384 459 374 459Q347 459 322 419T267 304L366 82Q389 29 418 29Q443 29 457 76L473 71Q466 35
443 11T387 -13Q320 -13 279 78L226 197Q173 67 152 36Q118 -16 72 -16Q42 -16 22 3T1 48T16 90T54 107T92 94T108 61T99 33T82 19T73 10Q73 1 83 1Q127 1 205 197Q212 213 215 221L146 378Q123 431 94 431Q69 431 55 384L39 389Q46 425 69 449T125 473Q192 473
233 382L257 327Q290 406 317 441Z" />
<glyph unicode="y" glyph-name="y" horiz-adv-x="480" d="M268 -233Q218 -233 188 -198T158 -106Q158 -21 246 43L245 47Q177 51 126 140T75 389V445H4V460H25Q104 460 166 473V412Q166 271 199 185T296 98Q341 98 390 166T439 320Q439 369 425 406T381 456Q371
461 358 461T345 453T354 443Q381 438 380 409Q380 353 328 353Q304 353 289 370T273 414T295 461T348 480Q404 480 430 436T457 324Q457 163 325 75Q323 73 304 61T281 46T259 30T237 12T218 -6T200 -28T188 -50Q176 -72 176 -112T201 -183T257 -214Q267 -214
267 -206T258 -196Q232 -190 232 -156Q232 -135 247 -122T285 -108T323 -124T339 -167T318 -213T268 -233Z" />
<glyph unicode="z" glyph-name="z" horiz-adv-x="460" d="M52 434T84 457T159 480T262 470T356 459T418 466L422 459L145 15H146Q270 -4 312 -4T388 14T421 73Q421 82 413 82T403 73Q397 47 363 47Q341 47 328 62T315 100T331 138T374 154T420 134T440 83Q440
30 403 5T317 -20T202 -10T101 1T39 -6L35 1L311 445Q188 464 157 464T99 448T71 397Q71 388 79 388T89 397Q95 423 129 423Q151 423 164 408T177 370T161 332T118 316T72 336T52 387Q52 434 84 457Z" />
<glyph unicode="{" glyph-name="braceleft" horiz-adv-x="224" d="M117 227T130 204T143 149T120 53T97 -62Q97 -175 174 -194Q194 -199 224 -199V-215Q124 -215 62 -167T0 -25Q0 44 40 85Q56 102 72 116Q112 151 112 180Q112 230 37 230V245Q112 245 112 295Q112
330 56 374Q35 390 18 423T0 501Q0 595 62 642T224 690V674Q194 674 174 669Q97 651 97 543Q97 488 120 423T143 326T130 271T82 238V237Q117 227 130 204Z" />
<glyph unicode="|" glyph-name="bar" horiz-adv-x="362" d="M192 719V-205H170V719H192Z" />
<glyph unicode="}" glyph-name="braceright" horiz-adv-x="224" d="M107 248T94 271T81 326T104 422T127 538Q127 650 50 669Q30 674 0 674V690Q100 690 162 642T224 500Q224 431 184 390Q168 373 152 358Q112 324 112 295Q112 245 187 245V230Q112 230 112 180Q112
146 168 102Q189 85 206 52T224 -26Q224 -120 162 -167T0 -215V-199Q30 -199 50 -194Q127 -176 127 -68Q127 -13 104 52T81 149T94 204T142 237V238Q107 248 94 271Z" />
<glyph unicode="~" glyph-name="asciitilde" horiz-adv-x="586" d="M491 249T466 240T404 230T294 252T189 274Q127 274 60 227L52 243Q127 292 191 292Q229 292 298 270T406 248Q468 248 520 290L532 276Q491 249 466 240Z" />
<glyph unicode="&#xa0;" glyph-name="nbspace" horiz-adv-x="220" />
<glyph unicode="&#xa1;" glyph-name="exclamdown" horiz-adv-x="281" d="M82 397T82 422T98 463T140 480T182 464T199 422T182 380T140 363T99 380ZM133 270H149Q149 100 186 -65Q199 -120 199 -143T184 -183T141 -200T98 -183T83 -143T96 -65Q133 100 133 270Z" />
<glyph unicode="&#xa2;" glyph-name="cent" horiz-adv-x="481" d="M289 -62H269V23H267Q168 23 112 87T56 253T111 417T269 480V570H289V479Q351 476 389 446T428 359Q428 329 409 309T363 288T320 303T303 341T316 379T351 395Q385 395 391 369Q392 360 400 360T409
369Q409 403 379 431T294 460T208 430T165 358T153 258Q153 167 185 109T291 51Q343 51 376 89T423 187L441 185Q427 117 388 74T289 24V-62Z" />
<glyph unicode="&#xa3;" glyph-name="sterling" horiz-adv-x="479" d="M254 122L253 107Q300 87 332 87Q413 87 420 162H438Q438 153 438 134T432 82T400 20T332 -10Q271 -10 220 43Q178 1 115 1Q79 1 50 20T20 73T48 127T118 149T205 128Q198 155 182 172Q149
210 122 232H48V253H102Q56 304 56 370T113 473T247 510T366 479T410 389Q410 359 392 340T347 320T302 335T284 374T297 412T333 427Q367 427 373 399Q374 390 382 390T391 399Q391 433 361 461T275 490T192 458T163 368T200 253H344V232H214Q254 171 254 122ZM114
19Q176 19 199 65Q153 113 104 113Q76 113 61 99T46 65T64 33T114 19Z" />
<glyph unicode="&#xa4;" glyph-name="currency" horiz-adv-x="542" d="M431 381Q489 323 489 231T431 78L513 -4L498 -20L415 64Q355 16 271 16T127 64L44 -20L29 -4L111 78Q53 138 53 230T111 381L29 464L44 480L127 396Q186 444 270 444T415 396L498 480L513
464L431 381ZM394 33T394 230T271 427T148 230T271 33Z" />
<glyph unicode="&#xa5;" glyph-name="yen" horiz-adv-x="479" d="M479 480V464Q443 464 433 459T418 453T406 441T397 427T387 407T375 382L284 202H398V186H282V142H398V126H282V15H335V0H140V15H193V126H75V142H193V186H75V202H184L43 464H0V480H206V464H143L272
219L327 325Q329 329 339 348T355 380Q373 416 373 432T359 456T307 464H279V480H479Z" />
<glyph unicode="&#xa6;" glyph-name="brokenbar" horiz-adv-x="221" d="M122 -120H100V232H122V-120ZM122 367H100V719H122V367Z" />
<glyph unicode="&#xa7;" glyph-name="section" horiz-adv-x="631" d="M71 268Q71 371 187 412Q121 464 121 543T171 666T300 710T432 681T485 595Q485 565 466 545T420 524T377 539T360 577T373 615T408 631Q442 631 448 605Q450 596 458 596T466 605Q466 634
427 662T325 691T230 663T197 586T233 505T320 450T422 404T509 337T545 229Q545 112 448 66Q495 14 495 -56Q495 -145 435 -190T272 -235Q202 -235 150 -203T97 -112Q97 -82 116 -62T162 -41T205 -56T222 -94T209 -132T174 -148Q140 -148 134 -122Q132 -113 124
-113T116 -122Q118 -155 154 -185T259 -215T374 -184T419 -101T383 -14T296 42T194 90T107 159T71 268ZM147 304Q147 252 190 219T310 152T421 91Q469 125 469 185Q469 229 441 262T379 312T290 354T207 398Q147 373 147 304Z" />
<glyph unicode="&#xa8;" glyph-name="dieresis" horiz-adv-x="420" d="M239 586T239 611T257 653T300 671T342 654T360 611T343 568T300 550T257 568ZM60 586T60 611T77 653T120 671T163 654T181 611T163 568T120 550T78 568Z" />
<glyph unicode="&#xa9;" glyph-name="copyright" horiz-adv-x="699" d="M365 -83Q234 -83 142 9T50 232T142 455T362 548T569 468T649 271Q649 177 582 104T402 30T232 85T175 234T230 384T381 440Q447 440 491 408T536 319Q536 289 517 269T471 248T428 263T411
301T424 339T459 355Q493 355 499 329Q500 320 508 320T517 329Q517 361 484 390T391 420T301 371T271 241T308 109T423 58T563 119T625 280T552 452T362 523T160 438T74 233T159 27T365 -59Q430 -59 491 -30L503 -52Q438 -83 365 -83Z" />
<glyph unicode="&#xaa;" glyph-name="ordfeminine" horiz-adv-x="340" d="M37 219V240H270V219H37ZM138 597Q208 597 235 570T262 468V356Q262 332 272 332Q280 332 287 351T296 394L310 393Q302 300 253 300Q209 300 207 378H203Q195 338 175 319T115 300Q30
300 30 377Q30 466 177 466Q183 466 190 466V489Q190 539 178 561T128 583T72 567T55 538T61 525T67 533Q70 560 97 560Q112 560 120 550T129 523T116 496T86 485T55 497T42 528Q42 562 70 579T138 597ZM190 412V453Q188 453 186 453Q146 453 127 432T107 380Q107
321 140 321Q190 321 190 412Z" />
<glyph unicode="&#xab;" glyph-name="guillemotleft" horiz-adv-x="313" d="M5 237L134 409L151 396L32 237L151 78L134 65L5 237ZM117 237L246 409L263 396L144 237L263 78L246 65L117 237Z" />
<glyph unicode="&#xac;" glyph-name="logicalnot" horiz-adv-x="513" d="M34 242V263H478V96H456V242H34Z" />
<glyph unicode="&#xae;" glyph-name="registered" horiz-adv-x="710" d="M530 65Q567 65 602 114T637 248Q637 369 555 446T354 524T155 441T73 238T148 41T343 -37Q416 -37 478 -3L489 -23Q423 -60 343 -60Q215 -60 133 24T50 238T138 457T354 547T571 464T660
248Q660 152 615 93T498 34Q464 34 446 56T427 119V150Q427 202 408 221T343 241H318V58H371V40H187V58H232V427H187V445H384Q518 445 518 356Q518 314 493 287T420 253V249Q471 249 493 220T516 129V92Q516 65 530 65ZM385 259T407 278T429 345T414 409T352 427H318V259H337Q385
259 407 278Z" />
<glyph unicode="&#xaf;" glyph-name="overscore" horiz-adv-x="283" d="M2 570V589H281V570H2Z" />
<glyph unicode="&#xb0;" glyph-name="degree" horiz-adv-x="280" d="M24 504T24 552T58 634T140 668T222 634T256 552T222 470T140 436T58 470ZM55 587T55 552T80 492T140 467T200 492T225 552T200 612T140 637T80 612Z" />
<glyph unicode="&#xb1;" glyph-name="plusminus" horiz-adv-x="615" d="M83 276V297H310V474H330V297H557V276H330V100H310V276H83ZM557 51V30H83V51H557Z" />
<glyph unicode="&#xb2;" glyph-name="twosuperior" horiz-adv-x="330" d="M40 608T71 632T159 656T256 632T298 562T272 487T210 441T137 410T74 373T48 321L55 319Q64 333 70 339T98 353T152 361H266Q296 361 297 396H310V291H30V321Q30 374 98 416Q127 434 156
452Q224 495 224 552Q224 592 203 615T141 638T79 618T58 573Q58 563 66 563T76 572Q80 597 108 597Q126 597 135 585T145 555T131 523T94 510T55 526T40 565Q40 608 71 632ZM48 227V248H281V227H48Z" />
<glyph unicode="&#xb3;" glyph-name="threesuperior" horiz-adv-x="309" d="M201 607T181 623T131 639T78 623T55 587Q55 578 63 578Q67 578 73 592T99 607T129 596T139 566T126 535T89 522T52 537T38 575Q38 614 70 635T154 656Q275 656 275 578Q275 544 247
525T166 492L167 487Q172 487 176 487Q227 487 258 465T289 395T246 315T154 283T71 303T36 365Q36 392 53 408T94 425T130 411T143 379T133 349T100 336T71 361Q70 370 62 370T53 361Q53 339 76 321T136 302Q215 302 215 387T141 473Q121 473 87 459L81 475Q86
477 102 483T125 492T147 503T168 516T184 532Q201 549 201 578ZM51 227V248H284V227H51Z" />
<glyph unicode="&#xb4;" glyph-name="acute" horiz-adv-x="328" d="M187 653Q210 680 229 680T257 671T267 647Q267 618 233 603L53 519L46 534Q93 559 112 576T137 597T153 613T165 627T177 641L187 653Z" />
<glyph unicode="&#xb5;" glyph-name="mu" horiz-adv-x="599" d="M406 445H335V460H356Q434 460 495 473V15H561V0H404V87H398Q385 53 365 32T327 2T292 -14Q257 -27 257 -61Q257 -76 269 -88T293 -114T305 -151T288 -190T246 -207T205 -191T188 -151T200 -114T225
-88T238 -57T225 -28T192 -9T153 14T120 72T106 185V445H35V460H56Q134 460 195 473V199Q195 105 202 81T217 40Q233 8 271 8T338 31T381 94Q406 165 406 264V445Z" />
<glyph unicode="&#xb6;" glyph-name="paragraph" horiz-adv-x="343" d="M167 -197L156 -196Q148 -196 148 -204Q148 -218 173 -218T213 -206T236 -170Q246 -133 246 -81V644L209 648V-112Q192 -87 162 -83V393Q154 392 140 392Q80 392 42 431T4 529T45 629T155
670Q177 670 209 665T273 659H302V643H266V-77Q266 -235 171 -235Q141 -235 119 -216T97 -169T112 -125T150 -108T187 -121T202 -154T192 -186T167 -197Z" />
<glyph unicode="&#xb7;" glyph-name="middot" horiz-adv-x="277" d="M80 236T80 261T96 303T138 320T180 303T197 261T180 220T138 203T97 219Z" />
<glyph unicode="&#xb8;" glyph-name="cedilla" horiz-adv-x="375" d="M155 -73Q185 -51 221 -51T287 -75T317 -143T293 -211T234 -235T180 -216T159 -171T174 -129T212 -112T250 -125T266 -160Q266 -193 240 -199Q231 -200 231 -208T241 -217Q264 -217 281 -198T299
-145T276 -90T222 -69Q169 -69 141 -112L127 -95L164 0H184L155 -73Z" />
<glyph unicode="&#xb9;" glyph-name="onesuperior" horiz-adv-x="262" d="M99 309V574Q73 556 34 546L30 563Q72 575 95 594T125 650Q147 651 166 663V309H232V291H39V309H99ZM18 227V248H251V227H18Z" />
<glyph unicode="&#xba;" glyph-name="ordmasculine" horiz-adv-x="342" d="M52 227V248H285V227H52ZM233 585T171 585T109 449T171 312T233 448ZM236 300T171 300T68 338T30 448T68 558T171 597T274 559T312 448T274 338Z" />
<glyph unicode="&#xbb;" glyph-name="guillemotright" horiz-adv-x="313" d="M169 237L50 396L67 409L196 237L67 65L50 78L169 237ZM281 237L162 396L179 409L308 237L179 65L162 78L281 237Z" />
<glyph unicode="&#xbc;" glyph-name="onequarter" horiz-adv-x="699" d="M177 10L537 656H561L202 10H177ZM149 309V574Q123 556 84 546L80 563Q122 575 145 594T175 650Q197 651 216 663V309H282V291H89V309H149ZM523 368Q548 368 572 382V139H619V115H572V20H505V115H375V134Q500
253 523 368ZM408 139H505V262H501Q473 207 408 142V139Z" />
<glyph unicode="&#xbd;" glyph-name="onehalf" horiz-adv-x="781" d="M431 336T462 360T549 385T642 361T679 292T656 217T598 170T528 139Q444 105 441 60L448 58Q456 69 463 75Q480 90 543 90H647Q677 90 678 125H691V20H421V50Q421 103 486 146Q513 163 540
181Q605 224 605 281Q605 367 535 367Q491 367 470 347T449 302Q449 292 457 292Q463 292 465 301Q469 326 499 326Q517 326 526 314T536 284T522 252T485 239T446 255T431 294Q431 336 462 360ZM177 10L537 656H561L202 10H177ZM149 309V574Q123 556 84 546L80
563Q122 575 145 594T175 650Q197 651 216 663V309H282V291H89V309H149Z" />
<glyph unicode="&#xbe;" glyph-name="threequarters" horiz-adv-x="723" d="M201 10L561 656H585L226 10H201ZM547 368Q572 368 596 382V139H643V115H596V20H529V115H399V134Q524 253 547 368ZM432 139H529V262H525Q497 207 432 142V139ZM247 607T227 623T177
639T124 624T101 588Q101 579 109 579Q113 579 118 593T145 607T175 596T185 566T172 535T135 522T98 537T84 575Q84 614 116 635T200 656Q321 656 321 578Q321 544 293 525T212 492L213 487Q218 487 222 487Q273 487 304 465T335 395T292 315T200 283T117 303T82
365Q82 392 99 408T140 425T176 411T189 379T179 349T146 336T117 361Q116 370 108 370T99 361Q99 339 122 321T182 302Q261 302 261 387T187 473Q167 473 133 459L127 475Q132 477 148 483T171 492T193 503T214 516T230 532Q247 549 247 578Z" />
<glyph unicode="&#xbf;" glyph-name="questiondown" horiz-adv-x="404" d="M258 447T258 422T242 380T200 363T158 380T141 422T158 463T200 480T241 464ZM239 -200Q49 -200 49 -69Q49 -30 71 3T124 58T187 101Q262 149 262 182T245 234T198 252Q145 252 121 207L106
217Q137 270 200 270Q237 270 261 247T285 191T264 126T219 69T173 9T152 -72T178 -148T262 -180T350 -153T381 -97Q381 -88 373 -88T363 -97Q357 -123 323 -123Q301 -123 288 -108T275 -70T291 -32T334 -16T380 -36T400 -87Q400 -143 353 -171T239 -200Z" />
<glyph unicode="&#xc0;" glyph-name="Agrave" horiz-adv-x="636" d="M154 148Q143 118 143 90T153 46T187 25Q222 16 280 16H297V0H1V16Q54 16 81 45T130 138L293 609Q300 631 306 642Q320 670 352 670H355L557 16H628V0H372V16H446L377 242H186L154 148ZM284
526L192 258H372L290 526H284ZM161 828Q161 843 170 852T199 861T241 834Q245 826 254 817T270 799T283 786T298 773T315 758T334 744Q351 732 382 715L375 700L195 784Q161 799 161 828Z" />
<glyph unicode="&#xc1;" glyph-name="Aacute" horiz-adv-x="636" d="M410 834Q432 861 452 861Q490 861 490 828Q490 799 456 784L276 700L269 715Q316 740 335 757T360 778T376 794T388 808T400 822L410 834ZM154 148Q143 118 143 90T153 46T187 25Q222 16 280
16H297V0H1V16Q54 16 81 45T130 138L293 609Q300 631 306 642Q320 670 352 670H355L557 16H628V0H372V16H446L377 242H186L154 148ZM284 526L192 258H372L290 526H284Z" />
<glyph unicode="&#xc2;" glyph-name="Acircumflex" horiz-adv-x="636" d="M306 861T330 861T376 834Q380 826 389 817T405 799T418 786T433 773T450 758T469 744Q486 732 517 715L510 700L330 784L150 700L143 715Q190 740 209 757T234 778T250 794T262 808T274
822L284 834Q306 861 330 861ZM154 148Q143 118 143 90T153 46T187 25Q222 16 280 16H297V0H1V16Q54 16 81 45T130 138L293 609Q300 631 306 642Q320 670 352 670H355L557 16H628V0H372V16H446L377 242H186L154 148ZM284 526L192 258H372L290 526H284Z" />
<glyph unicode="&#xc3;" glyph-name="Atilde" horiz-adv-x="636" d="M154 148Q143 118 143 90T153 46T187 25Q222 16 280 16H297V0H1V16Q54 16 81 45T130 138L293 609Q300 631 306 642Q320 670 352 670H355L557 16H628V0H372V16H446L377 242H186L154 148ZM284
526L192 258H372L290 526H284ZM184 789T204 820T254 852T338 826T412 800Q462 800 462 851H477Q477 804 457 773T407 741T322 767T249 793Q199 793 199 742H184Q184 789 204 820Z" />
<glyph unicode="&#xc4;" glyph-name="Adieresis" horiz-adv-x="636" d="M154 148Q143 118 143 90T153 46T187 25Q222 16 280 16H297V0H1V16Q54 16 81 45T130 138L293 609Q300 631 306 642Q320 670 352 670H355L557 16H628V0H372V16H446L377 242H186L154 148ZM284
526L192 258H372L290 526H284ZM359 767T359 792T377 834T420 852T462 835T480 792T463 749T420 731T377 749ZM180 767T180 792T197 834T240 852T283 835T301 792T283 749T240 731T198 749Z" />
<glyph unicode="&#xc5;" glyph-name="Aring" horiz-adv-x="612" d="M267 829T267 812T279 782T308 769T337 782T350 812T338 841T309 854T280 842ZM283 751T266 768T249 811T266 854T308 872T350 855T368 812T351 769T308 751ZM154 148Q143 118 143 90T153 46T187
25Q222 16 280 16H297V0H1V16Q54 16 81 45T130 138L293 609Q300 631 306 642Q320 670 352 670H355L557 16H628V0H372V16H446L377 242H186L154 148ZM284 526L192 258H372L290 526H284Z" />
<glyph unicode="&#xc6;" glyph-name="AE" horiz-adv-x="1255" d="M309 16H382V331H225L120 144Q90 90 90 63T118 26T217 16H234V0H-59V16Q-2 16 32 46T100 138L353 589Q373 628 389 639T421 650H760V442H744Q744 563 707 598T546 634H486V347H509Q581 347 608
374T635 475H652V200H635Q635 274 608 302T509 331H486V16H537Q613 16 654 24T721 59T755 126T768 245H784L774 0H309V16ZM382 595H373L234 347H382V595Z" />
<glyph unicode="&#xc7;" glyph-name="Ccedilla" horiz-adv-x="579" d="M174 388Q174 362 174 309T180 207T202 108T253 31T340 3Q424 3 471 59T525 207L543 205Q536 102 478 41T322 -20Q305 -20 275 -16L254 -73Q288 -51 322 -51T386 -75T416 -143T392 -211T333
-235T279 -216T258 -171T273 -129T311 -112T349 -125T365 -160Q365 -193 339 -199Q330 -200 330 -208T340 -217Q363 -217 380 -198T398 -145T374 -90T324 -69T275 -81T240 -112L226 -95L257 -12Q191 5 144 56Q52 156 52 328Q52 468 126 569T327 670Q372 670 421
653T479 636Q508 636 513 670H525V436H509Q494 535 455 593T336 651Q241 651 206 570Q177 501 174 388Z" />
<glyph unicode="&#xc8;" glyph-name="Egrave" horiz-adv-x="619" d="M52 0V16H125V634H52V650H533V442H517Q517 563 480 598T319 634H229V347H282Q354 347 381 374T408 475H425V200H408Q408 274 381 302T282 331H229V16H310Q386 16 427 24T494 59T528 126T541
245H557L547 0H52ZM230 828Q230 843 239 852T268 861T310 834Q314 826 323 817T339 799T352 786T367 773T384 758T403 744Q420 732 451 715L444 700L264 784Q230 799 230 828Z" />
<glyph unicode="&#xc9;" glyph-name="Eacute" horiz-adv-x="619" d="M424 834Q446 861 466 861Q504 861 504 828Q504 799 470 784L290 700L283 715Q330 740 349 757T374 778T390 794T402 808T414 822L424 834ZM52 0V16H125V634H52V650H533V442H517Q517 563 480
598T319 634H229V347H282Q354 347 381 374T408 475H425V200H408Q408 274 381 302T282 331H229V16H310Q386 16 427 24T494 59T528 126T541 245H557L547 0H52Z" />
<glyph unicode="&#xca;" glyph-name="Ecircumflex" horiz-adv-x="619" d="M52 0V16H125V634H52V650H533V442H517Q517 563 480 598T319 634H229V347H282Q354 347 381 374T408 475H425V200H408Q408 274 381 302T282 331H229V16H310Q386 16 427 24T494 59T528 126T541
245H557L547 0H52ZM304 861T327 861T373 834Q377 826 386 817T402 799T415 786T430 773T447 758T466 744Q483 732 514 715L507 700L327 784L147 700L140 715Q187 740 206 757T231 778T247 794T259 808T271 822L281 834Q304 861 327 861Z" />
<glyph unicode="&#xcb;" glyph-name="Edieresis" horiz-adv-x="619" d="M52 0V16H125V634H52V650H533V442H517Q517 563 480 598T319 634H229V347H282Q354 347 381 374T408 475H425V200H408Q408 274 381 302T282 331H229V16H310Q386 16 427 24T494 59T528 126T541
245H557L547 0H52ZM340 767T340 792T358 834T401 852T443 835T461 792T444 749T401 731T358 749ZM161 767T161 792T178 834T221 852T264 835T282 792T264 749T221 731T179 749Z" />
<glyph unicode="&#xcc;" glyph-name="Igrave" horiz-adv-x="354" d="M125 634H52V650H312V634H229V16H312V0H52V16H125V634ZM25 828Q25 843 34 852T63 861T105 834Q109 826 118 817T134 799T147 786T162 773T179 758T198 744Q215 732 246 715L239 700L59 784Q25
799 25 828Z" />
<glyph unicode="&#xcd;" glyph-name="Iacute" horiz-adv-x="354" d="M125 634H52V650H312V634H229V16H312V0H52V16H125V634ZM249 834Q272 861 291 861T319 852T329 828Q329 799 295 784L115 700L108 715Q155 740 174 757T199 778T215 794T227 808T239 822L249 834Z" />
<glyph unicode="&#xce;" glyph-name="Icircumflex" horiz-adv-x="354" d="M125 634H52V650H312V634H229V16H312V0H52V16H125V634ZM156 861T180 861T226 834Q230 826 239 817T255 799T268 786T283 773T300 758T319 744Q336 732 367 715L360 700L180 784L0 700L-7
715Q40 740 59 757T84 778T100 794T112 808T124 822L134 834Q156 861 180 861Z" />
<glyph unicode="&#xcf;" glyph-name="Idieresis" horiz-adv-x="354" d="M125 634H52V650H312V634H229V16H312V0H52V16H125V634ZM209 767T209 792T227 834T270 852T312 835T330 792T313 749T270 731T227 749ZM30 767T30 792T47 834T90 852T133 835T151 792T133
749T90 731T48 749Z" />
<glyph unicode="&#xd0;" glyph-name="Eth" horiz-adv-x="687" d="M52 320V336H125V634H52V650H325Q477 650 556 570T635 329T557 84T311 0H52V16H125V320H52ZM497 146T505 197T513 325T505 452T475 546Q433 634 310 634H229V336H304V320H229V16H290Q430 16 474
102Q497 146 505 197Z" />
<glyph unicode="&#xd1;" glyph-name="Ntilde" horiz-adv-x="689" d="M537 507V-7H521Q488 -7 468 14T413 94L149 548H145V143Q145 70 172 43T273 16H280V0H-6V16Q67 16 96 43T125 143V589Q98 635 20 635V650H124Q172 650 196 634T246 575L511 120H517V507Q517
580 490 607T389 634H382V650H668V634Q595 634 566 607T537 507ZM183 789T203 820T253 852T337 826T411 800Q461 800 461 851H476Q476 804 456 773T405 741T321 767T248 793Q198 793 198 742H183Q183 789 203 820Z" />
<glyph unicode="&#xd2;" glyph-name="Ograve" horiz-adv-x="670" d="M202 828Q202 843 211 852T240 861T282 834Q286 826 295 817T311 799T324 786T339 773T356 758T375 744Q392 732 423 715L416 700L236 784Q202 799 202 828ZM469 -20T335 -20T127 80T52 326T128
570T335 670T542 571T618 326T544 81ZM241 24T269 12T334 -1T399 12T444 51T472 105T488 176T494 250T496 328T495 405T488 478T472 547T444 600T400 638T335 651T271 639T226 601T198 548T182 478Q174 412 174 346T175 249T180 175T196 104T224 51Z" />
<glyph unicode="&#xd3;" glyph-name="Oacute" horiz-adv-x="670" d="M389 834Q412 861 431 861T459 852T469 828Q469 799 435 784L255 700L248 715Q295 740 314 757T339 778T355 794T367 808T379 822L389 834ZM469 -20T335 -20T127 80T52 326T128 570T335 670T542
571T618 326T544 81ZM241 24T269 12T334 -1T399 12T444 51T472 105T488 176T494 250T496 328T495 405T488 478T472 547T444 600T400 638T335 651T271 639T226 601T198 548T182 478Q174 412 174 346T175 249T180 175T196 104T224 51Z" />
<glyph unicode="&#xd4;" glyph-name="Ocircumflex" horiz-adv-x="670" d="M469 -20T335 -20T127 80T52 326T128 570T335 670T542 571T618 326T544 81ZM241 24T269 12T334 -1T399 12T444 51T472 105T488 176T494 250T496 328T495 405T488 478T472 547T444 600T400
638T335 651T271 639T226 601T198 548T182 478Q174 412 174 346T175 249T180 175T196 104T224 51ZM314 861T337 861T383 834Q387 826 396 817T412 799T425 786T440 773T457 758T476 744Q493 732 524 715L517 700L337 784L157 700L150 715Q197 740 216 757T241 778T257
794T269 808T281 822L291 834Q314 861 337 861Z" />
<glyph unicode="&#xd5;" glyph-name="Otilde" horiz-adv-x="670" d="M469 -20T335 -20T127 80T52 326T128 570T335 670T542 571T618 326T544 81ZM241 24T269 12T334 -1T399 12T444 51T472 105T488 176T494 250T496 328T495 405T488 478T472 547T444 600T400 638T335
651T271 639T226 601T198 548T182 478Q174 412 174 346T175 249T180 175T196 104T224 51ZM190 789T210 820T260 852T344 826T418 800Q468 800 468 851H483Q483 804 463 773T413 741T328 767T255 793Q205 793 205 742H190Q190 789 210 820Z" />
<glyph unicode="&#xd6;" glyph-name="Odieresis" horiz-adv-x="670" d="M469 -20T335 -20T127 80T52 326T128 570T335 670T542 571T618 326T544 81ZM241 24T269 12T334 -1T399 12T444 51T472 105T488 176T494 250T496 328T495 405T488 478T472 547T444 600T400
638T335 651T271 639T226 601T198 548T182 478Q174 412 174 346T175 249T180 175T196 104T224 51ZM364 767T364 792T382 834T425 852T467 835T485 792T468 749T425 731T382 749ZM185 767T185 792T202 834T245 852T288 835T306 792T288 749T245 731T203 749Z" />
<glyph unicode="&#xd7;" glyph-name="multiply" horiz-adv-x="456" d="M70 394L86 408L236 252L387 408L402 393L251 237L412 72L397 57L237 222L77 57L62 72L222 237L70 394Z" />
<glyph unicode="&#xd8;" glyph-name="Oslash" horiz-adv-x="670" d="M335 -20Q265 -20 206 11L167 -72H143L187 23Q122 67 87 148T52 328Q52 471 128 570T335 670Q409 670 472 633L508 710H533L491 620Q552 575 585 497T618 328Q618 181 544 81T335 -20ZM177 437T176
406T174 321T175 232T185 149T210 71L452 590Q412 651 335 651Q260 651 226 600Q190 547 184 492ZM496 328Q496 494 465 565L224 49Q263 -1 336 -1T445 52T488 174T496 328Z" />
<glyph unicode="&#xd9;" glyph-name="Ugrave" horiz-adv-x="679" d="M116 634H43V650H303V634H220V308Q220 168 234 118Q251 57 281 34Q322 3 372 3T452 20T499 63T526 130Q542 195 542 293V507Q542 580 515 607T414 634H407V650H693V634Q620 634 591 607T562
507V328Q562 176 542 112Q520 45 482 16Q435 -20 363 -20T243 3T166 73Q116 157 116 308V634ZM248 828Q248 843 257 852T286 861T328 834Q332 826 341 817T357 799T370 786T385 773T402 758T421 744Q438 732 469 715L462 700L282 784Q248 799 248 828Z" />
<glyph unicode="&#xda;" glyph-name="Uacute" horiz-adv-x="679" d="M116 634H43V650H303V634H220V308Q220 168 234 118Q251 57 281 34Q322 3 372 3T452 20T499 63T526 130Q542 195 542 293V507Q542 580 515 607T414 634H407V650H693V634Q620 634 591 607T562
507V328Q562 176 542 112Q520 45 482 16Q435 -20 363 -20T243 3T166 73Q116 157 116 308V634ZM434 834Q456 861 476 861Q514 861 514 828Q514 799 480 784L300 700L293 715Q340 740 359 757T384 778T400 794T412 808T424 822L434 834Z" />
<glyph unicode="&#xdb;" glyph-name="Ucircumflex" horiz-adv-x="679" d="M116 634H43V650H303V634H220V308Q220 168 234 118Q251 57 281 34Q322 3 372 3T452 20T499 63T526 130Q542 195 542 293V507Q542 580 515 607T414 634H407V650H693V634Q620 634 591 607T562
507V328Q562 176 542 112Q520 45 482 16Q435 -20 363 -20T243 3T166 73Q116 157 116 308V634ZM358 861T381 861T427 834Q431 826 440 817T456 799T469 786T484 773T501 758T520 744Q537 732 568 715L561 700L381 784L201 700L194 715Q241 740 260 757T285 778T301
794T313 808T325 822L335 834Q358 861 381 861Z" />
<glyph unicode="&#xdc;" glyph-name="Udieresis" horiz-adv-x="734" d="M116 634H43V650H303V634H220V308Q220 168 234 118Q251 57 281 34Q322 3 372 3T452 20T499 63T526 130Q542 195 542 293V507Q542 580 515 607T414 634H407V650H693V634Q620 634 591 607T562
507V328Q562 176 542 112Q520 45 482 16Q435 -20 363 -20T243 3T166 73Q116 157 116 308V634ZM395 767T395 792T413 834T456 852T498 835T516 792T499 749T456 731T413 749ZM216 767T216 792T233 834T276 852T319 835T337 792T319 749T276 731T234 749Z" />
<glyph unicode="&#xdd;" glyph-name="Yacute" horiz-adv-x="598" d="M612 649V633Q565 631 533 614T478 551L357 311V16H440V0H180V16H253V301L74 634H1V650H269V634H186L346 331L430 494Q456 546 456 578T432 621T360 633H352V649H612ZM403 834Q426 861 445 861T473
852T483 828Q483 799 449 784L269 700L262 715Q309 740 328 757T353 778T369 794T381 808T393 822L403 834Z" />
<glyph unicode="&#xde;" glyph-name="Thorn" horiz-adv-x="588" d="M94 675H26V690H250V675H183V561H254Q414 561 477 516T540 372Q540 302 503 256T413 193T297 175T183 187V15H251V0H27V15H94V675ZM218 545H183V205Q233 195 274 195Q443 195 443 372Q443 465
388 505T218 545Z" />
<glyph unicode="&#xdf;" glyph-name="germandbls" horiz-adv-x="602" d="M582 69T535 25T417 -20T304 8T261 93Q261 123 280 143T326 164T369 149T386 111T372 73T331 57T298 83Q296 92 288 92T280 83Q280 52 308 26T398 0T489 26T518 89T492 151T429 191T356
224T293 271T267 336T288 393T333 427T379 465T400 535T372 605T295 632T221 601T196 490V16H253V0H39V16H92V490Q92 561 149 605T305 650T458 624T512 535Q512 504 494 483T456 453T401 435T352 418Q309 400 309 374Q309 335 392 296Q438 274 478 258T550 208T582
122Z" />
<glyph unicode="&#xe0;" glyph-name="agrave" horiz-adv-x="525" d="M114 647Q114 662 123 671T152 680T194 653Q198 645 207 636T223 618T236 605T251 592T268 577T287 563Q304 551 335 534L328 519L148 603Q114 618 114 647ZM241 480Q360 480 398 427T437 240V63Q437
22 455 22Q492 22 504 137L522 135Q507 -20 421 -20Q396 -20 383 -2T366 37T362 91H356Q343 38 303 9T201 -20T91 13T44 110Q44 157 71 188Q127 252 325 252Q336 252 348 252V301Q348 380 321 420T228 460T130 433T99 377Q99 368 107 368T117 377Q123 403 157 403Q179
403 192 388T205 350T189 312T146 296T100 316T80 367Q80 423 127 451T241 480ZM348 167V234Q338 234 317 234T266 231T205 216Q141 193 141 114Q141 66 164 37T238 8T318 54T348 167Z" />
<glyph unicode="&#xe1;" glyph-name="aacute" horiz-adv-x="525" d="M312 653Q334 680 354 680Q392 680 392 647Q392 618 358 603L178 519L171 534Q218 559 237 576T262 597T278 613T290 627T302 641L312 653ZM241 480Q360 480 398 427T437 240V63Q437 22 455
22Q492 22 504 137L522 135Q507 -20 421 -20Q396 -20 383 -2T366 37T362 91H356Q343 38 303 9T201 -20T91 13T44 110Q44 157 71 188Q127 252 325 252Q336 252 348 252V301Q348 380 321 420T228 460T130 433T99 377Q99 368 107 368T117 377Q123 403 157 403Q179
403 192 388T205 350T189 312T146 296T100 316T80 367Q80 423 127 451T241 480ZM348 167V234Q338 234 317 234T266 231T205 216Q141 193 141 114Q141 66 164 37T238 8T318 54T348 167Z" />
<glyph unicode="&#xe2;" glyph-name="acircumflex" horiz-adv-x="525" d="M240 680T264 680T310 653Q314 645 323 636T339 618T352 605T367 592T384 577T403 563Q420 551 451 534L444 519L264 603L84 519L77 534Q124 559 143 576T168 597T184 613T196 627T208
641L218 653Q240 680 264 680ZM241 480Q360 480 398 427T437 240V63Q437 22 455 22Q492 22 504 137L522 135Q507 -20 421 -20Q396 -20 383 -2T366 37T362 91H356Q343 38 303 9T201 -20T91 13T44 110Q44 157 71 188Q127 252 325 252Q336 252 348 252V301Q348 380
321 420T228 460T130 433T99 377Q99 368 107 368T117 377Q123 403 157 403Q179 403 192 388T205 350T189 312T146 296T100 316T80 367Q80 423 127 451T241 480ZM348 167V234Q338 234 317 234T266 231T205 216Q141 193 141 114Q141 66 164 37T238 8T318 54T348 167Z"
/>
<glyph unicode="&#xe3;" glyph-name="atilde" horiz-adv-x="525" d="M97 608T117 639T167 671T251 645T325 619Q375 619 375 670H390Q390 623 370 592T319 560T235 586T162 612Q112 612 112 561H97Q97 608 117 639ZM241 480Q360 480 398 427T437 240V63Q437 22
455 22Q492 22 504 137L522 135Q507 -20 421 -20Q396 -20 383 -2T366 37T362 91H356Q343 38 303 9T201 -20T91 13T44 110Q44 157 71 188Q127 252 325 252Q336 252 348 252V301Q348 380 321 420T228 460T130 433T99 377Q99 368 107 368T117 377Q123 403 157 403Q179
403 192 388T205 350T189 312T146 296T100 316T80 367Q80 423 127 451T241 480ZM348 167V234Q338 234 317 234T266 231T205 216Q141 193 141 114Q141 66 164 37T238 8T318 54T348 167Z" />
<glyph unicode="&#xe4;" glyph-name="adieresis" horiz-adv-x="525" d="M302 586T302 611T320 653T363 671T405 654T423 611T406 568T363 550T320 568ZM123 586T123 611T140 653T183 671T226 654T244 611T226 568T183 550T141 568ZM241 480Q360 480 398 427T437
240V63Q437 22 455 22Q492 22 504 137L522 135Q507 -20 421 -20Q396 -20 383 -2T366 37T362 91H356Q343 38 303 9T201 -20T91 13T44 110Q44 157 71 188Q127 252 325 252Q336 252 348 252V301Q348 380 321 420T228 460T130 433T99 377Q99 368 107 368T117 377Q123
403 157 403Q179 403 192 388T205 350T189 312T146 296T100 316T80 367Q80 423 127 451T241 480ZM348 167V234Q338 234 317 234T266 231T205 216Q141 193 141 114Q141 66 164 37T238 8T318 54T348 167Z" />
<glyph unicode="&#xe5;" glyph-name="aring" horiz-adv-x="525" d="M209 627T209 610T221 580T250 567T279 580T292 610T280 639T251 652T222 640ZM225 549T208 566T191 609T208 652T250 670T292 653T310 610T293 567T250 549ZM241 480Q360 480 398 427T437 240V63Q437
22 455 22Q492 22 504 137L522 135Q507 -20 421 -20Q396 -20 383 -2T366 37T362 91H356Q343 38 303 9T201 -20T91 13T44 110Q44 157 71 188Q127 252 325 252Q336 252 348 252V301Q348 380 321 420T228 460T130 433T99 377Q99 368 107 368T117 377Q123 403 157 403Q179
403 192 388T205 350T189 312T146 296T100 316T80 367Q80 423 127 451T241 480ZM348 167V234Q338 234 317 234T266 231T205 216Q141 193 141 114Q141 66 164 37T238 8T318 54T348 167Z" />
<glyph unicode="&#xe6;" glyph-name="ae" horiz-adv-x="785" d="M571 480Q646 480 696 448T747 352Q747 253 634 230Q577 219 492 219H445V190Q445 109 478 59T576 8T677 46T729 144L747 142Q731 69 683 25T560 -20Q456 -20 400 42Q393 35 380 25T317 -3T203 -20T91
13T44 110Q44 157 71 188Q127 252 325 252Q336 252 348 252V301Q348 380 321 420T228 460T130 433T99 377Q99 368 107 368T117 377Q123 403 157 403Q179 403 192 388T205 350T189 312T146 296T100 316T80 367Q80 423 127 451T241 480Q360 480 400 412Q460 480 571
480ZM348 167V234Q338 234 317 234T266 231T205 216Q141 193 141 114Q141 66 164 37T238 8T318 54T348 167ZM445 237H480Q561 237 593 253T638 292T650 359T629 432T563 463T492 432T455 358T445 265V237Z" />
<glyph unicode="&#xe7;" glyph-name="ccedilla" horiz-adv-x="459" d="M182 -73Q216 -51 250 -51T314 -75T344 -143T320 -211T261 -235T207 -216T186 -171T201 -129T239 -112T277 -125T293 -160Q293 -193 267 -199Q258 -200 258 -208T268 -217Q291 -217 308 -198T326
-145T302 -90T252 -69T203 -81T168 -112L154 -95L187 -6Q123 17 90 80T56 230Q56 345 110 412T273 480Q342 480 385 450T428 359Q428 329 409 309T363 288T320 303T303 341T316 379T351 395Q385 395 391 369Q392 360 400 360T409 369Q409 403 379 431T289 460Q153
460 153 234T291 8Q343 8 376 46T423 144L441 142Q426 69 381 25T267 -20Q235 -20 205 -12L182 -73Z" />
<glyph unicode="&#xe8;" glyph-name="egrave" horiz-adv-x="490" d="M276 480Q351 480 401 448T452 352Q452 253 339 230Q282 219 197 219H150V190Q150 109 183 59T281 8T382 46T434 144L452 142Q436 69 388 25T265 -20Q161 -20 107 48T53 230T111 411T276 480ZM150
237H185Q266 237 298 253T343 292T355 359T334 432T268 463T197 432T160 358T150 265V237ZM141 647Q141 662 150 671T179 680T221 653Q225 645 234 636T250 618T263 605T278 592T295 577T314 563Q331 551 362 534L355 519L175 603Q141 618 141 647Z" />
<glyph unicode="&#xe9;" glyph-name="eacute" horiz-adv-x="490" d="M276 480Q351 480 401 448T452 352Q452 253 339 230Q282 219 197 219H150V190Q150 109 183 59T281 8T382 46T434 144L452 142Q436 69 388 25T265 -20Q161 -20 107 48T53 230T111 411T276 480ZM150
237H185Q266 237 298 253T343 292T355 359T334 432T268 463T197 432T160 358T150 265V237ZM320 653Q342 680 362 680Q400 680 400 647Q400 618 366 603L186 519L179 534Q226 559 245 576T270 597T286 613T298 627T310 641L320 653Z" />
<glyph unicode="&#xea;" glyph-name="ecircumflex" horiz-adv-x="490" d="M276 480Q351 480 401 448T452 352Q452 253 339 230Q282 219 197 219H150V190Q150 109 183 59T281 8T382 46T434 144L452 142Q436 69 388 25T265 -20Q161 -20 107 48T53 230T111 411T276
480ZM150 237H185Q266 237 298 253T343 292T355 359T334 432T268 463T197 432T160 358T150 265V237ZM244 680T267 680T313 653Q317 645 326 636T342 618T355 605T370 592T387 577T406 563Q423 551 454 534L447 519L267 603L87 519L80 534Q127 559 146 576T171 597T187
613T199 627T211 641L221 653Q244 680 267 680Z" />
<glyph unicode="&#xeb;" glyph-name="edieresis" horiz-adv-x="490" d="M276 480Q351 480 401 448T452 352Q452 253 339 230Q282 219 197 219H150V190Q150 109 183 59T281 8T382 46T434 144L452 142Q436 69 388 25T265 -20Q161 -20 107 48T53 230T111 411T276
480ZM150 237H185Q266 237 298 253T343 292T355 359T334 432T268 463T197 432T160 358T150 265V237ZM296 586T296 611T314 653T357 671T399 654T417 611T400 568T357 550T314 568ZM117 586T117 611T134 653T177 671T220 654T238 611T220 568T177 550T135 568Z"
/>
<glyph unicode="&#xec;" glyph-name="igrave" horiz-adv-x="296" d="M197 15H263V0H42V15H108V445H37V460H58Q136 460 197 473V15ZM3 647Q3 662 12 671T41 680T83 653Q87 645 96 636T112 618T125 605T140 592T157 577T176 563Q193 551 224 534L217 519L37 603Q3
618 3 647Z" />
<glyph unicode="&#xed;" glyph-name="iacute" horiz-adv-x="296" d="M211 653Q234 680 253 680T281 671T291 647Q291 618 257 603L77 519L70 534Q117 559 136 576T161 597T177 613T189 627T201 641L211 653ZM197 15H263V0H42V15H108V445H37V460H58Q136 460 197 473V15Z" />
<glyph unicode="&#xee;" glyph-name="icircumflex" horiz-adv-x="296" d="M197 15H263V0H42V15H108V445H37V460H58Q136 460 197 473V15ZM97 653Q119 680 142 680T189 653Q193 645 202 636T218 618T231 605T246 592T263 577T282 563Q299 551 330 534L323 519L143
603L-37 519L-44 534Q3 559 22 576T47 597T63 613T75 627T87 641L97 653Z" />
<glyph unicode="&#xef;" glyph-name="idieresis" horiz-adv-x="296" d="M197 15H263V0H42V15H108V445H37V460H58Q136 460 197 473V15ZM172 586T172 611T190 653T233 671T275 654T293 611T276 568T233 550T190 568ZM-7 586T-7 611T10 653T53 671T96 654T114 611T96
568T53 550T11 568Z" />
<glyph unicode="&#xf0;" glyph-name="eth" horiz-adv-x="506" d="M453 242Q453 135 398 57T254 -21T109 42T53 197T109 351T253 415Q297 415 334 398L342 402Q332 488 264 553L155 502L147 521L247 568Q194 611 112 645L118 660Q214 633 286 586L389 635L397 616L305
573Q453 462 453 242ZM357 153T357 197T353 273T339 336T307 382T253 398T200 383T168 337T153 274T149 197T153 121T167 58T199 12T253 -4T306 11T338 57T353 120Z" />
<glyph unicode="&#xf1;" glyph-name="ntilde" horiz-adv-x="587" d="M156 608T176 639T226 671T310 645T384 619Q434 619 434 670H449Q449 623 429 592T379 560T295 586T221 612Q171 612 171 561H156Q156 608 176 639ZM260 15V0H39V15H105V445H34V460H55Q134 460
196 473V373H202Q219 421 259 450T350 480Q437 480 469 429T501 275V15H567V0H346V15H412V261Q412 374 395 410Q387 426 371 439T322 452T262 429T219 366Q194 295 194 196V15H260Z" />
<glyph unicode="&#xf2;" glyph-name="ograve" horiz-adv-x="546" d="M120 647Q120 662 129 671T158 680T200 653Q204 645 213 636T229 618T242 605T257 592T274 577T293 563Q310 551 341 534L334 519L154 603Q120 618 120 647ZM377 -20T273 -20T111 50T53 230T111
410T273 480T435 410T493 230T435 50ZM396 192T396 230T394 297T385 359T365 413T329 449T273 463T218 449T182 414T162 359T152 297T150 230T152 163T161 101T181 47T217 11T273 -3T328 11T364 46T384 101T394 163Z" />
<glyph unicode="&#xf3;" glyph-name="oacute" horiz-adv-x="546" d="M330 653Q352 680 372 680Q410 680 410 647Q410 618 376 603L196 519L189 534Q236 559 255 576T280 597T296 613T308 627T320 641L330 653ZM377 -20T273 -20T111 50T53 230T111 410T273 480T435
410T493 230T435 50ZM396 192T396 230T394 297T385 359T365 413T329 449T273 463T218 449T182 414T162 359T152 297T150 230T152 163T161 101T181 47T217 11T273 -3T328 11T364 46T384 101T394 163Z" />
<glyph unicode="&#xf4;" glyph-name="ocircumflex" horiz-adv-x="546" d="M377 -20T273 -20T111 50T53 230T111 410T273 480T435 410T493 230T435 50ZM396 192T396 230T394 297T385 359T365 413T329 449T273 463T218 449T182 414T162 359T152 297T150 230T152
163T161 101T181 47T217 11T273 -3T328 11T364 46T384 101T394 163ZM250 680T273 680T319 653Q323 645 332 636T348 618T361 605T376 592T393 577T412 563Q429 551 460 534L453 519L273 603L93 519L86 534Q133 559 152 576T177 597T193 613T205 627T217 641L227
653Q250 680 273 680Z" />
<glyph unicode="&#xf5;" glyph-name="otilde" horiz-adv-x="546" d="M128 608T148 639T198 671T282 645T356 619Q406 619 406 670H421Q421 623 401 592T351 560T267 586T193 612Q143 612 143 561H128Q128 608 148 639ZM377 -20T273 -20T111 50T53 230T111 410T273
480T435 410T493 230T435 50ZM396 192T396 230T394 297T385 359T365 413T329 449T273 463T218 449T182 414T162 359T152 297T150 230T152 163T161 101T181 47T217 11T273 -3T328 11T364 46T384 101T394 163Z" />
<glyph unicode="&#xf6;" glyph-name="odieresis" horiz-adv-x="546" d="M377 -20T273 -20T111 50T53 230T111 410T273 480T435 410T493 230T435 50ZM396 192T396 230T394 297T385 359T365 413T329 449T273 463T218 449T182 414T162 359T152 297T150 230T152 163T161
101T181 47T217 11T273 -3T328 11T364 46T384 101T394 163ZM303 586T303 611T321 653T364 671T406 654T424 611T407 568T364 550T321 568ZM124 586T124 611T141 653T184 671T227 654T245 611T227 568T184 550T142 568Z" />
<glyph unicode="&#xf7;" glyph-name="divide" horiz-adv-x="508" d="M172 372T172 406T195 464T253 488T311 464T335 406T311 349T253 325T196 348ZM193 431T193 406T210 364T253 346T295 363T313 406T296 449T253 466T211 449ZM172 37T172 71T195 129T253 153T311
130T335 72T311 14T253 -10T196 13ZM193 96T193 71T210 29T253 11T295 28T313 71T296 113T253 131T211 114ZM491 247V226H17V247H491Z" />
<glyph unicode="&#xf8;" glyph-name="oslash" horiz-adv-x="546" d="M273 -20Q230 -20 188 -5L157 -72H133L168 4Q113 33 83 92T53 230Q53 340 111 410T273 480Q333 480 378 455L406 514H431L398 443Q493 377 493 230Q493 120 435 50T273 -20ZM150 230Q150 93
186 41L361 417Q330 463 273 463Q241 463 218 449T182 414T162 359Q150 308 150 230ZM374 392L201 22Q229 -3 267 -3T328 11T364 46T384 101Q396 152 396 246T374 392Z" />
<glyph unicode="&#xf9;" glyph-name="ugrave" horiz-adv-x="599" d="M406 445H335V460H356Q434 460 495 473V15H561V0H404V87H398Q381 39 341 10T250 -20Q165 -20 136 31T106 185V445H35V460H56Q134 460 195 473V199Q195 105 202 81T217 40Q233 8 271 8T338 31T381
94Q406 165 406 264V445ZM140 647Q140 662 149 671T178 680T220 653Q224 645 233 636T249 618T262 605T277 592T294 577T313 563Q330 551 361 534L354 519L174 603Q140 618 140 647Z" />
<glyph unicode="&#xfa;" glyph-name="uacute" horiz-adv-x="599" d="M406 445H335V460H356Q434 460 495 473V15H561V0H404V87H398Q381 39 341 10T250 -20Q165 -20 136 31T106 185V445H35V460H56Q134 460 195 473V199Q195 105 202 81T217 40Q233 8 271 8T338 31T381
94Q406 165 406 264V445ZM367 653Q390 680 409 680T437 671T447 647Q447 618 413 603L233 519L226 534Q273 559 292 576T317 597T333 613T345 627T357 641L367 653Z" />
<glyph unicode="&#xfb;" glyph-name="ucircumflex" horiz-adv-x="599" d="M406 445H335V460H356Q434 460 495 473V15H561V0H404V87H398Q381 39 341 10T250 -20Q165 -20 136 31T106 185V445H35V460H56Q134 460 195 473V199Q195 105 202 81T217 40Q233 8 271 8T338
31T381 94Q406 165 406 264V445ZM278 680T301 680T347 653Q351 645 360 636T376 618T389 605T404 592T421 577T440 563Q457 551 488 534L481 519L301 603L121 519L114 534Q161 559 180 576T205 597T221 613T233 627T245 641L255 653Q278 680 301 680Z" />
<glyph unicode="&#xfc;" glyph-name="udieresis" horiz-adv-x="599" d="M330 586T330 611T348 653T391 671T433 654T451 611T434 568T391 550T348 568ZM151 586T151 611T168 653T211 671T254 654T272 611T254 568T211 550T169 568ZM406 445H335V460H356Q434 460
495 473V15H561V0H404V87H398Q381 39 341 10T250 -20Q165 -20 136 31T106 185V445H35V460H56Q134 460 195 473V199Q195 105 202 81T217 40Q233 8 271 8T338 31T381 94Q406 165 406 264V445Z" />
<glyph unicode="&#xfd;" glyph-name="yacute" horiz-adv-x="480" d="M344 653Q366 680 386 680Q424 680 424 647Q424 618 390 603L210 519L203 534Q250 559 269 576T294 597T310 613T322 627T334 641L344 653ZM268 -233Q218 -233 188 -198T158 -106Q158 -21 246
43L245 47Q177 51 126 140T75 389V445H4V460H25Q104 460 166 473V412Q166 271 199 185T296 98Q341 98 390 166T439 320Q439 369 425 406T381 456Q371 461 358 461T345 453T354 443Q381 438 380 409Q380 353 328 353Q304 353 289 370T273 414T295 461T348 480Q404
480 430 436T457 324Q457 163 325 75Q323 73 304 61T281 46T259 30T237 12T218 -6T200 -28T188 -50Q176 -72 176 -112T201 -183T257 -214Q267 -214 267 -206T258 -196Q232 -190 232 -156Q232 -135 247 -122T285 -108T323 -124T339 -167T318 -213T268 -233Z" />
<glyph unicode="&#xfe;" glyph-name="thorn" horiz-adv-x="570" d="M193 -200H259V-215H38V-200H104V675H33V690H54Q132 690 193 703V369H199Q217 420 252 450T337 480Q427 480 470 410T514 231T469 52T331 -20T199 62H193V-200ZM191 231V195Q191 117 221 63T315
8Q384 8 402 86Q417 149 417 212T414 308T401 376T369 432T315 452T259 430T220 372Q191 301 191 231Z" />
<glyph unicode="&#xff;" glyph-name="ydieresis" horiz-adv-x="480" d="M282 586T282 611T300 653T343 671T385 654T403 611T386 568T343 550T300 568ZM103 586T103 611T120 653T163 671T206 654T224 611T206 568T163 550T121 568ZM268 -233Q218 -233 188 -198T158
-106Q158 -21 246 43L245 47Q177 51 126 140T75 389V445H4V460H25Q104 460 166 473V412Q166 271 199 185T296 98Q341 98 390 166T439 320Q439 369 425 406T381 456Q371 461 358 461T345 453T354 443Q381 438 380 409Q380 353 328 353Q304 353 289 370T273 414T295
461T348 480Q404 480 430 436T457 324Q457 163 325 75Q323 73 304 61T281 46T259 30T237 12T218 -6T200 -28T188 -50Q176 -72 176 -112T201 -183T257 -214Q267 -214 267 -206T258 -196Q232 -190 232 -156Q232 -135 247 -122T285 -108T323 -124T339 -167T318 -213T268
-233Z" />
<glyph unicode="&#x2013;" glyph-name="endash" horiz-adv-x="484" d="M479 247V226H5V247H479Z" />
<glyph unicode="&#x2014;" glyph-name="emdash" horiz-adv-x="954" d="M948 247V226H1V247H948Z" />
<glyph unicode="&#x2018;" glyph-name="quoteleft" horiz-adv-x="228" d="M45 564Q45 639 133 689L142 674Q108 655 86 626T63 566T80 517T121 499Q131 499 131 507T122 517Q96 523 96 555Q96 576 111 589T149 603T187 587T203 544T183 499T128 480T70 503T45 564Z" />
<glyph unicode="&#x2019;" glyph-name="quoteright" horiz-adv-x="228" d="M183 605Q183 530 95 480L86 495Q120 514 142 543T165 603T148 652T107 670Q97 670 97 662T106 652Q132 646 132 614Q132 593 117 580T79 566T41 582T25 625T45 670T100 689T158 666T183 605Z" />
<glyph unicode="&#x201a;" glyph-name="quotesinglbase" horiz-adv-x="252" d="M196 29Q196 -46 108 -96L99 -81Q133 -62 155 -33T178 27T161 76T120 94Q110 94 110 86T119 76Q145 70 145 38Q145 17 130 4T92 -10T54 6T38 49T58 94T113 113T171 90T196 29Z" />
<glyph unicode="&#x201c;" glyph-name="quotedblleft" horiz-adv-x="413" d="M45 564Q45 639 133 689L142 674Q108 655 86 626T63 566T80 517T121 499Q131 499 131 507T122 517Q96 523 96 555Q96 576 111 589T149 603T187 587T203 544T183 499T128 480T70 503T45
564ZM230 564Q230 639 318 689L327 674Q293 655 271 626T248 566T265 517T306 499Q316 499 316 507T307 517Q281 523 281 555Q281 576 296 589T334 603T372 587T388 544T368 499T313 480T255 503T230 564Z" />
<glyph unicode="&#x201d;" glyph-name="quotedblright" horiz-adv-x="413" d="M368 605Q368 530 280 480L271 495Q305 514 327 543T350 603T333 652T292 670Q282 670 282 662T291 652Q317 646 317 614Q317 593 302 580T264 566T226 582T210 625T230 670T285 689T343
666T368 605ZM183 605Q183 530 95 480L86 495Q120 514 142 543T165 603T148 652T107 670Q97 670 97 662T106 652Q132 646 132 614Q132 593 117 580T79 566T41 582T25 625T45 670T100 689T158 666T183 605Z" />
<glyph unicode="&#x201e;" glyph-name="quotedblbase" horiz-adv-x="467" d="M196 29Q196 -46 108 -96L99 -81Q133 -62 155 -33T178 27T161 76T120 94Q110 94 110 86T119 76Q145 70 145 38Q145 17 130 4T92 -10T54 6T38 49T58 94T113 113T171 90T196 29ZM411 29Q411
-46 323 -96L314 -81Q348 -62 370 -33T393 27T376 76T335 94Q325 94 325 86T334 76Q360 70 360 38Q360 17 345 4T307 -10T269 6T253 49T273 94T328 113T386 90T411 29Z" />
<glyph unicode="&#x2022;" glyph-name="bullet" horiz-adv-x="545" d="M122 444T166 489T270 535T376 490T421 379T377 269T271 224T166 268T122 378Z" />
<glyph unicode="&#x2039;" glyph-name="guilsinglleft" horiz-adv-x="201" d="M196 237L67 65L50 78L169 237L50 396L67 409L196 237Z" />
<glyph unicode="&#x203a;" glyph-name="guilsinglright" horiz-adv-x="201" d="M5 237L134 409L151 396L32 237L151 78L134 65L5 237Z" />
</font>
</defs>
</svg>
