<?xml version="1.0" standalone="no"?>
<!DOCTYPE svg PUBLIC "-//W3C//DTD SVG 1.1//EN" "http://www.w3.org/Graphics/SVG/1.1/DTD/svg11.dtd">
<svg xmlns="http://www.w3.org/2000/svg">
<defs >
<font id="Cairo" horiz-adv-x="599" ><font-face
    font-family="Cairo SemiBold"
    units-per-em="1000"
    panose-1="0 0 7 0 0 0 0 0 0 0"
    ascent="1303"
    descent="-571"
    alphabetic="0" />
<glyph unicode=" " glyph-name="space" horiz-adv-x="220" />
<glyph unicode="!" glyph-name="exclam" horiz-adv-x="257" d="M79 688H179L171 235H87L79 688ZM78 127H180V0H78V127Z" />
<glyph unicode="&quot;" glyph-name="quotedbl" horiz-adv-x="385" d="M64 688H155L150 461H67L64 688ZM231 688H323L317 461H234L231 688Z" />
<glyph unicode="#" glyph-name="numbersign" horiz-adv-x="560" d="M128 166H22V245H128V413H22V491H128V664H211V491H349V664H432V491H538V413H432V245H538V166H432V0H349V166H211V0H128V166ZM349 245V413H211V245H349Z" />
<glyph unicode="$" glyph-name="dollar" horiz-adv-x="560" d="M199 -123T199 -119L213 -6Q145 1 87 11L70 14L79 88Q157 77 223 73L253 300Q182 318 142 340T83 398T64 488Q64 585 117 628T280 671L300 670L317 802H375L358 666Q375 664 406 661T465 653L485
649L477 574L447 577Q374 585 348 587L321 376Q389 358 426 338T481 285T498 197Q498 94 443 42T282 -10H271L257 -126Q199 -123 199 -119ZM289 589Q217 588 187 567T156 493Q156 449 178 429T264 391L289 589ZM406 73T406 189Q406 232 386 251T310 286L282 72Q406
73 406 189Z" />
<glyph unicode="%" glyph-name="percent" horiz-adv-x="560" d="M146 -5L360 687L416 667L201 -22L146 -5ZM82 388T53 424T24 531Q24 671 137 671Q250 671 250 531Q250 460 221 424T137 388Q82 388 53 424ZM158 448T168 468T178 532Q178 572 168 591T137 611Q116
611 106 592T96 532Q96 448 137 448Q158 448 168 468ZM369 -11T340 25T311 133Q311 272 424 272Q536 272 536 133Q536 62 507 26T423 -11Q369 -11 340 25ZM445 49T455 69T465 132Q465 174 456 193T424 212Q402 212 393 193T383 133Q383 90 393 70T424 49Q445 49
455 69Z" />
<glyph unicode="&amp;" glyph-name="ampersand" horiz-adv-x="692" d="M155 -11T98 43T40 201Q40 284 76 330T191 403Q158 440 145 472T131 544Q131 624 179 664T316 704Q405 704 451 665T497 547Q497 483 464 441T349 357L484 223Q493 249 500 290T509 374L600
373Q584 245 552 166L676 52L621 -10L505 95Q464 38 412 14T281 -11Q155 -11 98 43ZM355 441T379 468T403 539Q403 624 315 624Q225 624 225 541Q225 484 270 436L295 411Q355 441 379 468ZM338 74T379 92T441 148L242 347Q186 327 160 295T134 208Q134 140 170
107T281 74Q338 74 379 92Z" />
<glyph unicode="&apos;" glyph-name="quotesingle" horiz-adv-x="218" d="M64 688H155L150 461H67L64 688Z" />
<glyph unicode="(" glyph-name="parenleft" horiz-adv-x="278" d="M104 -22T76 90T47 302Q47 505 155 750H244Q208 656 179 521T149 297Q149 211 174 102T244 -125H155Q104 -22 76 90Z" />
<glyph unicode=")" glyph-name="parenright" horiz-adv-x="278" d="M34 -125Q81 3 104 106T128 296Q128 393 99 523T34 750H123Q231 501 231 302Q231 203 202 91T123 -125H34Z" />
<glyph unicode="*" glyph-name="asterisk" horiz-adv-x="422" d="M191 491L86 412L50 458L157 537L52 612L88 661L192 585L232 709L290 690L250 565H378V507H249L289 384L232 367L191 491Z" />
<glyph unicode="+" glyph-name="plus" horiz-adv-x="560" d="M236 209H53V293H236V480H322V293H507V209H322V20H236V209Z" />
<glyph unicode="," glyph-name="comma" horiz-adv-x="235" d="M77 116H180L106 -123H30L77 116Z" />
<glyph unicode="-" glyph-name="hyphen" horiz-adv-x="429" d="M64 315H365V229H64V315Z" />
<glyph unicode="." glyph-name="period" horiz-adv-x="228" d="M64 130H165V0H64V130Z" />
<glyph unicode="/" glyph-name="slash" horiz-adv-x="429" d="M32 9L316 711L398 681L114 -20L32 9Z" />
<glyph unicode="0" glyph-name="zero" horiz-adv-x="560" d="M154 -10T94 69T34 331Q34 513 94 592T280 672Q405 672 465 593T525 331Q525 149 465 70T280 -10Q154 -10 94 69ZM332 74T364 98T411 179T426 331Q426 427 411 482T364 562T280 587Q228 587 196 563T149
483T134 331Q134 235 149 179T196 99T280 74Q332 74 364 98Z" />
<glyph unicode="1" glyph-name="one" horiz-adv-x="560" d="M302 552L140 447L97 518L309 660H398V0H302V552Z" />
<glyph unicode="2" glyph-name="two" horiz-adv-x="560" d="M68 81L245 266Q294 316 320 346T362 410T378 479Q378 536 347 560T249 585Q183 585 104 570L79 565L72 643Q172 671 271 671Q374 671 425 627T476 490Q476 442 463 405T420 329T335 239L178 83H492V0H68V81Z" />
<glyph unicode="3" glyph-name="three" horiz-adv-x="560" d="M194 -11T92 11L60 19L67 95Q178 72 247 72Q318 72 357 98T396 187Q396 242 365 270T272 300H139V381H272Q298 381 323 395T365 436T381 494Q381 543 352 565T254 587Q188 587 103 572L77 567L69 641Q162
671 271 671Q380 671 429 630T479 498Q479 447 456 408T388 347Q427 331 449 313T483 267T494 191Q494 88 442 39T276 -11Q194 -11 92 11Z" />
<glyph unicode="4" glyph-name="four" horiz-adv-x="560" d="M348 123H40V197L220 660H325L139 207H348V406H444V207H521V123H444V0H348V123Z" />
<glyph unicode="5" glyph-name="five" horiz-adv-x="560" d="M198 -10T93 14L59 22L70 95Q187 74 266 74Q334 74 370 110T407 212Q407 275 376 304T284 333Q251 333 215 326T154 308L134 300L72 313L90 660H481V575H168L150 382Q225 418 294 418Q505 418 505 221Q505
110 447 50T283 -10Q198 -10 93 14Z" />
<glyph unicode="6" glyph-name="six" horiz-adv-x="560" d="M165 -11T105 75T45 334Q45 504 113 587T309 671Q389 671 467 656L495 650L486 574Q385 587 311 587Q230 587 188 535T145 381L168 390Q198 401 234 408T297 416Q521 416 521 209Q521 103 460 46T284
-11Q165 -11 105 75ZM352 74T387 108T422 207Q422 269 389 300T290 331Q262 331 228 324T165 307L144 298Q144 191 179 133T284 74Q352 74 387 108Z" />
<glyph unicode="7" glyph-name="seven" horiz-adv-x="560" d="M150 16L392 546V574H75V660H488V542L240 -11L150 16Z" />
<glyph unicode="8" glyph-name="eight" horiz-adv-x="560" d="M31 -11T31 168Q31 234 54 271T135 343Q84 373 63 407T42 498Q42 582 105 627Q167 671 278 671Q389 671 453 626T518 497Q518 437 498 406T420 343Q478 312 503 276T528 179Q528 84 465 37T279 -11Q31
-11 31 168ZM327 380Q373 398 394 422T416 484Q416 585 280 585Q144 585 144 484Q144 447 164 423T227 380H327ZM426 76T426 191Q426 234 403 257T327 298H227Q179 283 156 257T133 187Q133 76 280 76Q426 76 426 191Z" />
<glyph unicode="9" glyph-name="nine" horiz-adv-x="560" d="M172 -11T89 6L61 11L70 86Q163 74 247 74Q413 74 414 282Q314 247 256 247Q148 247 93 298T37 451Q37 553 100 612T272 671Q392 671 452 582T513 319Q513 148 447 69T247 -11Q172 -11 89 6ZM322 331T392
355L415 363Q413 587 270 587Q207 587 172 551T136 451Q136 331 264 331Q322 331 392 355Z" />
<glyph unicode=":" glyph-name="colon" horiz-adv-x="229" d="M64 442H165V312H64V442ZM64 130H165V0H64V130Z" />
<glyph unicode=";" glyph-name="semicolon" horiz-adv-x="258" d="M81 442H183V312H81V442ZM89 116H192L118 -123H41L89 116Z" />
<glyph unicode="&lt;" glyph-name="less" horiz-adv-x="560" d="M63 211V291L475 488V392L161 253L475 109V12L63 211Z" />
<glyph unicode="=" glyph-name="equal" horiz-adv-x="560" d="M62 390H498V305H62V390ZM62 198H498V113H62V198Z" />
<glyph unicode="&gt;" glyph-name="greater" horiz-adv-x="560" d="M84 109L399 253L84 392V488L497 291V211L84 12V109Z" />
<glyph unicode="?" glyph-name="question" horiz-adv-x="444" d="M139 235T139 276Q139 304 159 331T226 398Q279 442 296 467T313 533Q313 574 284 594T195 615Q152 615 44 594L38 667Q136 699 210 699Q311 699 360 661T409 540Q409 493 402 465T377 413T323
361Q272 319 254 295T235 240V206H158Q139 235 139 276ZM143 128H245V1H143V128Z" />
<glyph unicode="@" glyph-name="at" horiz-adv-x="976" d="M386 -205T306 -182T166 -107Q47 -3 47 261Q47 495 163 610T504 725Q724 725 830 621T936 305V294Q936 181 917 116T859 24T759 -4Q711 -4 679 11T633 55Q542 -3 467 -3Q380 -3 334 51T288 238Q288 333
307 391T370 476T487 503Q527 503 578 485L595 478V493H688V306Q688 142 697 113Q707 87 720 81T761 74Q797 74 815 104T837 180T842 294V306Q842 425 808 499T699 608T503 643Q320 643 231 549T141 255Q141 119 178 37T294 -84T504 -123L647 -113L650 -196Q557
-205 504 -205Q386 -205 306 -182ZM515 79T603 118Q595 161 595 270V404Q543 421 505 421Q457 421 431 404T393 349T382 246Q382 79 474 79Q515 79 603 118Z" />
<glyph unicode="A" glyph-name="A" horiz-adv-x="598" d="M438 161H160L117 0H22L200 688H398L576 0H481L438 161ZM180 246H418L325 607H273L180 246Z" />
<glyph unicode="B" glyph-name="B" horiz-adv-x="614" d="M82 688H338Q444 688 494 645T545 508Q545 449 525 414T461 355Q513 335 538 296T564 192Q564 0 348 0H82V688ZM338 390Q394 390 421 417T448 499Q448 554 420 579T333 605H178V390H338ZM344 84Q405 84
436 109T467 193Q467 307 340 307H178V84H344Z" />
<glyph unicode="C" glyph-name="C" horiz-adv-x="544" d="M212 -11T155 28T77 143T55 343Q55 471 77 547T154 661T312 699Q395 699 504 675L501 596Q406 613 331 613Q256 613 218 587T167 501T155 330Q155 233 167 181T218 102T336 75Q402 75 501 92L504 11Q394
-11 319 -11Q212 -11 155 28Z" />
<glyph unicode="D" glyph-name="D" horiz-adv-x="643" d="M431 688T489 646T568 534T589 359Q589 231 562 153T477 37T323 0H82V688H323Q431 688 489 646ZM413 84T452 150T491 357Q491 446 475 500T422 579T323 604H178V84H323Q413 84 452 150Z" />
<glyph unicode="E" glyph-name="E" horiz-adv-x="553" d="M178 604V390H448V307H178V84H508V0H82V688H508V604H178Z" />
<glyph unicode="F" glyph-name="F" horiz-adv-x="528" d="M178 604V356H449V272H178V0H82V688H502V604H178Z" />
<glyph unicode="G" glyph-name="G" horiz-adv-x="614" d="M223 -11T164 27T79 142T53 345Q53 470 79 547T163 661T321 699Q411 699 517 679L552 672L548 595Q425 613 339 613Q261 613 221 585T167 499T153 338Q153 239 168 183T223 100T333 74Q401 74 457 84V272H358V357H552V13Q420
-11 324 -11Q223 -11 164 27Z" />
<glyph unicode="H" glyph-name="H" horiz-adv-x="676" d="M594 688V0H499V303H178V0H82V688H178V388H499V688H594Z" />
<glyph unicode="I" glyph-name="I" horiz-adv-x="258" d="M82 688H178V0H82V688Z" />
<glyph unicode="J" glyph-name="J" horiz-adv-x="293" d="M18 13Q62 13 83 20T112 47T120 111V688H215L216 101Q216 26 195 -11T132 -59T18 -71V13Z" />
<glyph unicode="K" glyph-name="K" horiz-adv-x="576" d="M286 296L178 289V0H82V688H178V373L286 380L442 688H551L369 342L560 0H448L286 296Z" />
<glyph unicode="L" glyph-name="L" horiz-adv-x="477" d="M464 85V0H82V688H178V85H464Z" />
<glyph unicode="M" glyph-name="M" horiz-adv-x="846" d="M764 688V0H668V584H653L474 27H372L192 584H178V0H82V688H250L423 127L595 688H764Z" />
<glyph unicode="N" glyph-name="N" horiz-adv-x="681" d="M600 688V0H432L194 604H178V0H82V688H253L486 84H504V688H600Z" />
<glyph unicode="O" glyph-name="O" horiz-adv-x="658" d="M226 -11T166 26T80 139T53 341Q53 465 79 543T166 660T329 699Q431 699 491 661T578 544T605 340Q605 215 579 139T493 26T329 -11Q226 -11 166 26ZM399 74T437 100T490 184T506 340Q506 439 490 498T436
586T329 615Q261 615 223 587T168 499T152 341Q152 244 167 187T221 102T329 74Q399 74 437 100Z" />
<glyph unicode="P" glyph-name="P" horiz-adv-x="592" d="M82 688H334Q449 688 505 632T561 461Q561 343 504 283T334 222H178V0H82V688ZM333 306Q463 306 463 461Q463 536 432 570T333 605H178V306H333Z" />
<glyph unicode="Q" glyph-name="Q" horiz-adv-x="658" d="M400 -3Q373 -11 329 -11Q226 -11 166 26T79 139T53 341Q53 465 79 543T166 660T329 699Q431 699 491 661T578 544T605 341Q605 217 579 142T493 29L578 -107L489 -148L400 -3ZM399 74T437 100T490 183T506
339Q506 438 490 498T436 586T329 615Q261 615 223 587T168 499T152 341Q152 244 167 187T220 102T329 74Q399 74 437 100Z" />
<glyph unicode="R" glyph-name="R" horiz-adv-x="617" d="M82 688H340Q454 688 510 635T567 474Q567 322 448 274L570 0H465L354 254H178V0H82V688ZM341 337Q404 337 436 371T469 472Q469 537 437 571T340 605H178V337H341Z" />
<glyph unicode="S" glyph-name="S" horiz-adv-x="543" d="M204 -10T87 9L51 15L61 92Q196 74 267 74Q402 74 402 197Q402 231 388 251T344 284T258 309Q177 328 132 351T66 412T45 509Q45 604 102 652T270 700Q311 700 358 695T484 677L476 599Q339 615 278 615Q141
615 141 515Q141 478 156 457T206 423T309 393Q381 375 421 353T479 296T498 204Q498 98 441 44T273 -10Q204 -10 87 9Z" />
<glyph unicode="T" glyph-name="T" horiz-adv-x="526" d="M216 603H13V688H513V603H312V0H216V603Z" />
<glyph unicode="U" glyph-name="U" horiz-adv-x="647" d="M198 -11T137 43T76 216V688H172V214Q172 74 321 74Q399 74 437 108T476 214V688H571V216Q571 98 510 44T323 -11Q198 -11 137 43Z" />
<glyph unicode="V" glyph-name="V" horiz-adv-x="589" d="M22 688H122L268 84H321L467 688H567L393 0H195L22 688Z" />
<glyph unicode="W" glyph-name="W" horiz-adv-x="900" d="M27 688H127L234 84H259L394 684H506L641 84H665L773 688H872L735 0H573L450 568L326 0H164L27 688Z" />
<glyph unicode="X" glyph-name="X" horiz-adv-x="561" d="M224 335L16 688H123L283 407L445 688H546L338 339L546 0H439L280 271L118 0H16L224 335Z" />
<glyph unicode="Y" glyph-name="Y" horiz-adv-x="544" d="M224 286L7 688H114L272 381L429 688H537L320 286V0H224V286Z" />
<glyph unicode="Z" glyph-name="Z" horiz-adv-x="535" d="M42 98L380 583V604H42V688H492V589L155 104V84H492V-1H42V98Z" />
<glyph unicode="[" glyph-name="bracketleft" horiz-adv-x="337" d="M76 749H299V666H171V-40H299V-123H76V749Z" />
<glyph unicode="\" glyph-name="backslash" horiz-adv-x="455" d="M31 674L112 710L424 14L342 -21L31 674Z" />
<glyph unicode="]" glyph-name="bracketright" horiz-adv-x="337" d="M38 -123V-40H167V666H38V749H261V-123H38Z" />
<glyph unicode="^" glyph-name="asciicircum" horiz-adv-x="560" d="M234 660H316L508 317H409L277 569L145 317H47L234 660Z" />
<glyph unicode="_" glyph-name="underscore" horiz-adv-x="628" d="M100 -86H528V-167H100V-86Z" />
<glyph unicode="`" glyph-name="grave" horiz-adv-x="246" d="M-6 664L24 744L252 645L228 583L-6 664Z" />
<glyph unicode="a" glyph-name="a" horiz-adv-x="504" d="M111 -11T74 29T37 144Q37 218 75 252T196 295L338 308V347Q338 391 319 410T263 430Q179 430 69 418L66 486Q172 511 263 511Q351 511 391 472T431 347V106Q433 86 444 76T481 61L478 -11Q435 -11 405
-2T352 28Q267 -11 182 -11Q111 -11 74 29ZM260 67T317 86L338 93V240L208 228Q169 224 151 205T132 147Q132 67 199 67Q260 67 317 86Z" />
<glyph unicode="b" glyph-name="b" horiz-adv-x="532" d="M177 -10T100 -2L69 1V712H162V478Q200 495 232 503T303 511Q369 511 408 485T466 403T485 252Q485 151 463 95T389 14T245 -10Q177 -10 100 -2ZM305 73T335 90T378 146T390 253Q390 319 380 356T346 410T281
427Q231 427 162 403V78Q227 73 248 73Q305 73 335 90Z" />
<glyph unicode="c" glyph-name="c" horiz-adv-x="439" d="M175 -11T131 16T67 100T47 250Q47 374 90 442T248 511Q277 511 310 508T399 493L396 419Q311 427 276 427Q223 427 194 411T154 357T142 249Q142 181 153 144T194 90T279 73L397 82L400 6Q300 -11 249
-11Q175 -11 131 16Z" />
<glyph unicode="d" glyph-name="d" horiz-adv-x="535" d="M130 -11T88 51T46 242Q46 384 96 447T256 511Q309 511 373 497V712H466V0H373V30Q295 -11 227 -11Q130 -11 88 51ZM270 73T301 80T355 96L373 103V418Q311 430 267 430Q198 430 170 388T142 247Q142 157
165 115T246 73Q270 73 301 80Z" />
<glyph unicode="e" glyph-name="e" horiz-adv-x="507" d="M144 -11T95 48T46 237Q46 376 98 443T261 511Q465 511 465 279L459 211H140Q141 157 154 128T196 85T278 72Q309 72 348 73T418 78L446 81L448 9Q331 -11 259 -11Q144 -11 95 48ZM372 284Q372 365 347
399T261 433Q198 433 169 398T139 284H372Z" />
<glyph unicode="f" glyph-name="f" horiz-adv-x="339" d="M91 420H31V500H91V538Q91 610 104 649T146 706T229 723L334 715L333 638Q217 641 241 641Q209 641 197 614T184 537V500H322V420H184V0H91V420Z" />
<glyph unicode="g" glyph-name="g" horiz-adv-x="520" d="M147 -233T97 -201T46 -92Q46 -49 62 -24T123 36Q107 47 100 65T92 103Q92 117 98 132T128 187Q52 227 52 336Q52 510 247 510Q293 510 349 497L501 501V424L412 427Q428 409 435 388T442 332Q442 243
395 205T246 166Q216 166 197 170Q181 132 181 115Q181 91 200 84T261 77H296Q366 76 408 66T473 26T496 -63Q496 -151 440 -192T257 -233Q147 -233 97 -201ZM302 239T325 262T349 338Q349 390 325 413T248 436Q194 436 170 413T145 337Q145 285 169 262T248 239Q302
239 325 262ZM340 -156T370 -137T401 -70Q401 -42 390 -29T355 -11T287 -5L185 1Q158 -20 148 -37T138 -78Q138 -121 167 -138T265 -156Q340 -156 370 -137Z" />
<glyph unicode="h" glyph-name="h" horiz-adv-x="542" d="M69 712H162V473Q205 493 240 502T312 511Q376 511 412 487T463 409T478 266V0H385V264Q385 329 377 363T348 412T285 427Q234 427 179 408L162 402V0H69V712Z" />
<glyph unicode="i" glyph-name="i" horiz-adv-x="230" d="M69 500H162V0H69V500ZM325 699H417V598H325V699Z" />
<glyph unicode="j" glyph-name="j" horiz-adv-x="231" d="M-44 -154Q7 -123 30 -102T61 -55T70 16V500H163V15Q163 -50 149 -89T100 -159T-7 -225L-44 -154ZM326 699H418V598H326V699Z" />
<glyph unicode="k" glyph-name="k" horiz-adv-x="490" d="M69 712H162V296L232 302L361 500H466L314 268L473 0H368L234 221L162 216V0H69V712Z" />
<glyph unicode="l" glyph-name="l" horiz-adv-x="243" d="M75 712H168V0H75V712Z" />
<glyph unicode="m" glyph-name="m" horiz-adv-x="837" d="M69 500H161V467Q199 489 233 500T303 511Q342 511 375 499T427 461Q467 483 514 497T611 511Q673 511 708 486T758 408T773 266V0H680V264Q680 327 673 361T646 411T588 427Q560 427 530 421T477 404L459
396Q470 353 470 260V0H376V258Q376 325 369 360T343 411T285 427Q257 427 228 420T178 404L162 396V0H69V500Z" />
<glyph unicode="n" glyph-name="n" horiz-adv-x="542" d="M69 500H161V467Q204 491 239 501T313 511Q376 511 412 486T463 409T478 266V0H385V264Q385 327 378 361T350 411T290 427Q237 427 179 404L162 396V0H69V500Z" />
<glyph unicode="o" glyph-name="o" horiz-adv-x="529" d="M148 -11T97 51T46 248Q46 385 98 448T265 511Q381 511 432 448T484 248Q484 115 433 52T265 -11Q148 -11 97 51ZM313 70T339 87T377 142T388 248Q388 319 377 358T339 413T265 430Q218 430 191 414T153
358T141 248Q141 181 152 143T190 87T265 70Q313 70 339 87Z" />
<glyph unicode="p" glyph-name="p" horiz-adv-x="532" d="M69 500H161V467Q200 490 233 500T305 511Q399 511 442 449T486 251Q486 156 464 99T394 15T264 -11Q219 -11 162 -1V-218H69V500ZM332 70T361 112T391 249Q391 343 365 385T284 427Q259 427 230 420T179
402L162 393V80Q232 70 260 70Q332 70 361 112Z" />
<glyph unicode="q" glyph-name="q" horiz-adv-x="531" d="M369 21Q333 4 301 -3T233 -11Q134 -11 90 49T46 248Q46 346 69 403T144 485T286 511L462 500V-218H369V21ZM302 73T353 91L369 97V424Q315 430 286 430Q230 430 198 411T153 353T140 247Q140 152 166
113T254 73Q302 73 353 91Z" />
<glyph unicode="r" glyph-name="r" horiz-adv-x="354" d="M69 500H161V437Q250 494 337 511V417Q298 409 256 395T186 368L162 357V0H69V500Z" />
<glyph unicode="s" glyph-name="s" horiz-adv-x="467" d="M173 -11T80 5L50 10L54 90Q175 73 227 73Q280 73 307 89T334 141Q334 167 321 180T286 200T226 213L202 217Q145 226 112 240T60 281T42 355Q42 510 232 510Q292 510 382 495L411 489L409 411Q297 427
237 427Q135 427 135 365Q135 342 148 330T181 311T240 298Q247 297 268 293Q327 282 360 268T410 225T427 149Q427 66 379 28T231 -11Q173 -11 80 5Z" />
<glyph unicode="t" glyph-name="t" horiz-adv-x="355" d="M178 -11T149 6T106 63T93 174V420H26V500H93V649H186V500H333V420H186V191Q186 144 189 121T206 85T248 72L333 77L339 1Q269 -11 231 -11Q178 -11 149 6Z" />
<glyph unicode="u" glyph-name="u" horiz-adv-x="538" d="M162 -11T127 13T78 91T64 239V500H157V239Q157 170 164 136T190 87T250 73Q283 73 312 81T376 104V500H469V0H376V33Q334 9 301 -1T227 -11Q162 -11 127 13Z" />
<glyph unicode="v" glyph-name="v" horiz-adv-x="486" d="M22 500H120L226 80H260L370 500H465L331 0H156L22 500Z" />
<glyph unicode="w" glyph-name="w" horiz-adv-x="765" d="M29 500H122L210 80H229L334 490H431L537 80H556L644 500H736L625 0H473L383 365L292 0H140L29 500Z" />
<glyph unicode="x" glyph-name="x" horiz-adv-x="459" d="M170 250L20 500H120L229 317L339 500H440L286 253L439 0H338L229 182L120 0H20L170 250Z" />
<glyph unicode="y" glyph-name="y" horiz-adv-x="488" d="M239 0H158L22 500H115L229 80H259L374 500H467L269 -218H177L239 0Z" />
<glyph unicode="z" glyph-name="z" horiz-adv-x="455" d="M42 83L300 417H42V500H413V417L154 83H413V0H42V83Z" />
<glyph unicode="{" glyph-name="braceleft" horiz-adv-x="355" d="M210 -126T167 -86T123 44L130 166Q130 207 104 233T22 275V349Q78 362 104 387T130 453L123 581Q123 644 142 681T202 736T315 757L316 677Q259 673 237 650T214 575L221 451Q221 407 212 382T181
341T114 313Q176 295 198 265T221 171L214 54Q214 3 236 -21T315 -50L314 -130Q210 -126 167 -86Z" />
<glyph unicode="|" glyph-name="bar" horiz-adv-x="242" d="M75 712H167V-218H75V712Z" />
<glyph unicode="}" glyph-name="braceright" horiz-adv-x="355" d="M39 -50Q96 -46 118 -22T141 54L134 171Q134 235 156 265T241 313Q197 325 175 340T143 381T134 451L141 575Q141 626 119 649T39 677V757Q110 754 152 736T213 681T232 581L225 453Q225 413
251 388T333 349V275Q277 259 251 233T225 166L232 44Q232 -46 189 -86T41 -130L39 -50Z" />
<glyph unicode="~" glyph-name="asciitilde" horiz-adv-x="560" d="M352 187T277 215Q202 244 181 244Q164 244 138 234T93 210L76 199L65 275Q127 328 183 328Q213 328 287 300Q361 272 381 272Q420 272 469 304L486 316L496 240Q468 215 438 201T380 187Q352
187 277 215Z" />
<glyph unicode="&#xa0;" glyph-name="uni00A0" horiz-adv-x="220" />
<glyph unicode="&#xa1;" glyph-name="exclamdown" horiz-adv-x="239" d="M169 500V373H68V500H169ZM160 265L168 -188H69L76 265H160Z" />
<glyph unicode="&#xa2;" glyph-name="cent" horiz-adv-x="560" d="M276 34Q182 39 140 89T97 247Q97 355 141 408T276 467V579H354V463L449 451L445 379Q379 384 316 384Q249 384 221 353T193 249Q193 174 221 145T325 115L446 121L449 48Q393 38 354 37V-79H276V34Z" />
<glyph unicode="&#xa3;" glyph-name="sterling" horiz-adv-x="560" d="M78 81H160V342H94V422H160V478Q160 553 175 594T223 653T314 670Q375 670 431 656L453 651L451 577Q366 587 323 587Q283 587 267 563T251 473V422H417V342H251V81H396L471 97L486 18L404 0H78V81Z" />
<glyph unicode="&#xa4;" glyph-name="currency" horiz-adv-x="560" d="M49 86L120 157Q94 201 94 251Q94 301 120 347L49 418L114 483L185 411Q227 438 279 438Q330 438 375 411L446 483L511 418L439 347Q466 302 466 251Q466 199 439 157L511 86L446 21L375 93Q330
66 279 66Q229 66 185 93L114 21L49 86ZM324 146T355 177T386 252Q386 296 355 327T280 358Q237 358 206 327T174 252Q174 209 206 178Q237 146 280 146Q324 146 355 177Z" />
<glyph unicode="&#xa5;" glyph-name="yen" horiz-adv-x="560" d="M234 154H58V234H234V308H57V387H182L17 660H124L281 408L436 660H543L381 387H502V308H330V234H503V154H330V0H234V154Z" />
<glyph unicode="&#xa6;" glyph-name="brokenbar" horiz-adv-x="246" d="M77 712H169V339H77V712ZM77 160H169V-218H77V160Z" />
<glyph unicode="&#xa7;" glyph-name="section" horiz-adv-x="505" d="M181 -162T97 -149L67 -144L76 -67Q184 -82 239 -82Q355 -82 355 4Q355 44 327 59Q300 72 211 92Q149 105 114 121T63 166T47 242Q47 277 66 315T107 370Q63 402 63 481Q63 647 263 647Q318
647 404 632L431 628L426 551Q315 566 261 566Q205 566 180 547T154 483Q154 456 168 440T212 413T298 392Q358 380 390 364T438 322T453 249Q453 180 407 113Q426 97 435 73T444 10Q444 -78 395 -120T245 -162Q181 -162 97 -149ZM343 157T350 183T358 240Q358
272 336 288T260 316Q233 321 206 327T169 338Q141 292 141 255Q141 230 150 215T180 191T242 173Q305 160 335 147Q343 157 350 183Z" />
<glyph unicode="&#xa8;" glyph-name="dieresis" horiz-adv-x="246" d="M-18 716H72V613H-18V716ZM187 716H277V613H187V716Z" />
<glyph unicode="&#xa9;" glyph-name="copyright" horiz-adv-x="644" d="M248 158T187 194T90 294T55 435Q55 513 89 575T185 674T323 710Q399 710 459 674T554 574T589 433Q589 356 555 293T461 194T324 158Q248 158 187 194ZM383 207T433 237T511 319T540 434Q540
496 511 548T433 631T323 662Q230 662 167 596Q105 528 105 434Q105 371 133 319T211 237T322 207Q383 207 433 237ZM261 274T234 311T207 434Q207 520 234 556T329 593Q370 593 397 585L407 582L402 518Q366 524 334 524Q303 524 292 505T281 437Q281 387 292
365T333 343L402 349L407 288Q375 274 325 274Q261 274 234 311Z" />
<glyph unicode="&#xaa;" glyph-name="ordfeminine" horiz-adv-x="399" d="M294 332T276 339Q254 347 243 362Q194 333 147 333Q99 333 73 360T47 435Q47 523 161 529L237 533V556Q237 582 191 582L67 575L64 638Q134 659 199 659Q267 659 298 635T330 551V412Q337
402 353 400L351 332Q294 332 276 339ZM200 406T228 418L237 422V474L177 470Q141 467 141 437Q141 406 174 406Q200 406 228 418Z" />
<glyph unicode="&#xab;" glyph-name="guillemotleft" horiz-adv-x="558" d="M43 211V282L243 431V336L124 248L243 149V53L43 211ZM295 211V282L495 431V336L376 248L495 149V53L295 211Z" />
<glyph unicode="&#xac;" glyph-name="logicalnot" horiz-adv-x="560" d="M408 263H63V347H493V113H408V263Z" />
<glyph unicode="&#xae;" glyph-name="registered" horiz-adv-x="644" d="M248 158T187 194T90 294T55 435Q55 513 89 575T185 674T323 710Q399 710 460 674T555 574T589 433Q589 356 555 293T461 194T324 158Q248 158 187 194ZM383 207T433 237T511 319T540 434Q540
496 511 548T433 631T323 662Q261 662 212 632T134 549T105 435Q105 372 133 320T212 238T323 207Q383 207 433 237ZM209 587H327Q383 587 412 564T441 496Q441 452 431 430T394 394L445 280H372L329 383H279V280H209V587ZM327 437Q351 437 362 448T373 485Q373
532 320 532H278V437H327Z" />
<glyph unicode="&#xaf;" glyph-name="overscore" horiz-adv-x="246" d="M-11 687H268V616H-11V687Z" />
<glyph unicode="&#xb0;" glyph-name="degree" horiz-adv-x="560" d="M216 412T176 451T136 555Q136 620 176 659T280 699Q345 699 384 660T424 555Q424 491 384 452T280 412Q216 412 176 451ZM319 467T343 491T368 555Q368 594 344 618T280 643Q241 643 218 619T194
555Q194 516 217 492T280 467Q319 467 343 491Z" />
<glyph unicode="&#xb1;" glyph-name="plusminus" horiz-adv-x="560" d="M236 286H53V370H236V490H322V370H507V286H322V167H236V286ZM53 116H507V32H53V116Z" />
<glyph unicode="&#xb2;" glyph-name="uni00B2" horiz-adv-x="280" d="M27 544L111 622Q160 668 160 697Q160 727 115 727L33 719L30 789Q88 800 143 800Q240 800 240 710Q240 675 227 651T181 598L126 547H243V478H27V544Z" />
<glyph unicode="&#xb3;" glyph-name="uni00B3" horiz-adv-x="280" d="M27 477L32 545Q93 537 132 537Q173 537 173 572Q173 605 133 605H67V668H132Q145 668 154 678T164 703Q164 731 125 731L36 724L31 791Q92 800 135 800Q245 800 245 715Q245 663 209 643Q231
634 241 617T252 567Q252 468 142 468L27 477Z" />
<glyph unicode="&#xb4;" glyph-name="acute" horiz-adv-x="268" d="M19 645L247 744L277 664L43 583L19 645Z" />
<glyph unicode="&#xb5;" glyph-name="uni00B5" horiz-adv-x="560" d="M77 500H171V231Q171 166 178 133T205 87T265 73Q292 73 322 80T373 96L389 104V500H483V0H390V33Q314 -11 254 -11Q204 -11 171 2V-218H77V500Z" />
<glyph unicode="&#xb6;" glyph-name="paragraph" horiz-adv-x="595" d="M226 312H219Q165 312 123 336T57 402T33 499Q33 554 57 597T123 664T220 688H550V608H489V0H407V608H307V0H226V312Z" />
<glyph unicode="&#xb7;" glyph-name="middot" horiz-adv-x="229" d="M64 340H165V210H64V340Z" />
<glyph unicode="&#xb8;" glyph-name="cedilla" horiz-adv-x="263" d="M84 -224T51 -219L38 -216L42 -159Q66 -161 102 -161Q144 -161 144 -127Q144 -97 102 -97H66V1H110V-45Q173 -46 199 -63T225 -128Q225 -224 126 -224Q84 -224 51 -219Z" />
<glyph unicode="&#xb9;" glyph-name="uni00B9" horiz-adv-x="280" d="M122 705L60 663L25 718L128 790H199V478H122V705Z" />
<glyph unicode="&#xba;" glyph-name="ordmasculine" horiz-adv-x="392" d="M49 344T49 503Q49 583 85 621T197 659Q271 659 307 621T343 503Q343 344 197 344Q49 344 49 503ZM231 418T244 437T258 503Q258 549 245 567T197 585Q163 585 149 566T134 503Q134 458
148 438T197 418Q231 418 244 437Z" />
<glyph unicode="&#xbb;" glyph-name="guillemotright" horiz-adv-x="559" d="M63 149L183 248L63 336V431L263 282V211L63 53V149ZM315 149L435 248L315 336V431L515 282V211L315 53V149Z" />
<glyph unicode="&#xbc;" glyph-name="onequarter" horiz-adv-x="563" d="M212 632L202 616V478H125V492L-181 0L-224 28L125 591V705L63 663L28 718L131 790H202V638L212 632ZM540 13V-56H518V-100H442V-56H304V9L364 212H448L382 13H442L450 103H518V13H540Z" />
<glyph unicode="&#xbd;" glyph-name="onehalf" horiz-adv-x="563" d="M212 632L202 616V478H125V492L-181 0L-224 28L125 591V705L63 663L28 718L131 790H202V638L212 632ZM526 -31V-100H310V-34L394 44Q443 90 443 119Q443 149 398 149L316 141L313 211Q371 222
426 222Q523 222 523 132Q523 97 510 73T464 20L409 -31H526Z" />
<glyph unicode="&#xbe;" glyph-name="threequarters" horiz-adv-x="563" d="M-224 28L168 660L212 632L-181 0L-224 28ZM162 -56H24V9L84 212H168L102 13H162L170 103H238V13H260V-56H238V-100H162V-56ZM310 477L315 545Q376 537 415 537Q456 537 456 572Q456
605 416 605H350V668H415Q428 668 437 678T447 703Q447 731 408 731L319 724L314 791Q375 800 418 800Q528 800 528 715Q528 663 492 643Q514 634 524 617T535 567Q535 468 425 468L310 477Z" />
<glyph unicode="&#xbf;" glyph-name="questiondown" horiz-adv-x="439" d="M301 373H199V500H301V373ZM305 266T305 225Q305 197 285 170T218 103Q165 59 148 34T131 -32Q131 -73 160 -93T249 -114Q292 -114 400 -93L406 -166Q308 -198 234 -198Q133 -198 84 -160T35
-39Q35 8 42 36T67 88T121 140Q172 182 190 206T209 261V295H286Q305 266 305 225Z" />
<glyph unicode="&#xc0;" glyph-name="Agrave" horiz-adv-x="598" d="M157 853L187 935L415 833L388 768L157 853ZM438 161H160L117 0H22L200 688H398L576 0H481L438 161ZM180 246H418L325 607H273L180 246Z" />
<glyph unicode="&#xc1;" glyph-name="Aacute" horiz-adv-x="598" d="M438 161H160L117 0H22L200 688H398L576 0H481L438 161ZM180 246H418L325 607H273L180 246ZM179 833L406 935L436 853L205 768L179 833Z" />
<glyph unicode="&#xc2;" glyph-name="Acircumflex" horiz-adv-x="598" d="M438 161H160L117 0H22L200 688H398L576 0H481L438 161ZM180 246H418L325 607H273L180 246ZM257 922H338L472 783H370L298 856L225 783H123L257 922Z" />
<glyph unicode="&#xc3;" glyph-name="Atilde" horiz-adv-x="598" d="M438 161H160L117 0H22L200 688H398L576 0H481L438 161ZM180 246H418L325 607H273L180 246ZM353 789T290 815Q226 841 214 841Q192 841 152 806L138 794L118 863Q138 887 166 905T217 923Q240
923 303 897Q366 871 375 871Q395 871 435 905L448 916L469 847Q449 822 424 806T375 789Q353 789 290 815Z" />
<glyph unicode="&#xc4;" glyph-name="Adieresis" horiz-adv-x="598" d="M438 161H160L117 0H22L200 688H398L576 0H481L438 161ZM180 246H418L325 607H273L180 246ZM150 897H240V794H150V897ZM358 897H447V794H358V897Z" />
<glyph unicode="&#xc5;" glyph-name="Aring" horiz-adv-x="598" d="M438 161H160L117 0H22L194 666Q170 695 170 737Q170 789 206 819T298 849Q355 849 390 819T426 737Q426 696 403 668L576 0H481L438 161ZM269 786T253 774T237 737Q237 717 249 704T284 688H312Q334
691 346 704T359 737Q359 760 343 773T298 786Q269 786 253 774ZM180 246H418L325 607H273L180 246Z" />
<glyph unicode="&#xc6;" glyph-name="AE" horiz-adv-x="874" d="M229 694H829V603H498V400H769V309H498V91H829V0H403V157H164L115 0H18L229 694ZM403 249L404 603H298L189 249H403Z" />
<glyph unicode="&#xc7;" glyph-name="Ccedilla" horiz-adv-x="544" d="M394 -11T320 -11V-45Q383 -46 409 -63T435 -128Q435 -224 336 -224Q294 -224 261 -219L248 -216L252 -159Q276 -161 312 -161Q354 -161 354 -127Q354 -97 312 -97H276V-9Q187 -1 139 40T73
155T55 343Q55 471 77 547T154 661T312 699Q395 699 504 675L501 596Q406 613 331 613Q256 613 218 587T167 501T155 330Q155 233 167 181T218 102T336 75Q402 75 501 92L504 11Q394 -11 320 -11Z" />
<glyph unicode="&#xc8;" glyph-name="Egrave" horiz-adv-x="553" d="M178 604V390H448V307H178V84H508V0H82V688H508V604H178ZM160 853L190 935L418 833L391 768L160 853Z" />
<glyph unicode="&#xc9;" glyph-name="Eacute" horiz-adv-x="553" d="M178 604V390H448V307H178V84H508V0H82V688H508V604H178ZM170 833L397 935L427 853L196 768L170 833Z" />
<glyph unicode="&#xca;" glyph-name="Ecircumflex" horiz-adv-x="553" d="M178 604V390H448V307H178V84H508V0H82V688H508V604H178ZM254 922H335L469 783H367L295 856L222 783H120L254 922Z" />
<glyph unicode="&#xcb;" glyph-name="Edieresis" horiz-adv-x="553" d="M178 604V390H448V307H178V84H508V0H82V688H508V604H178ZM147 897H237V794H147V897ZM355 897H444V794H355V897Z" />
<glyph unicode="&#xcc;" glyph-name="Igrave" horiz-adv-x="258" d="M82 688H178V0H82V688ZM235 853L265 935L493 833L466 768L235 853Z" />
<glyph unicode="&#xcd;" glyph-name="Iacute" horiz-adv-x="258" d="M82 688H178V0H82V688ZM11 833L238 935L268 853L37 768L11 833Z" />
<glyph unicode="&#xce;" glyph-name="Icircumflex" horiz-adv-x="258" d="M82 688H178V0H82V688ZM342 922H423L557 783H455L383 856L310 783H208L342 922Z" />
<glyph unicode="&#xcf;" glyph-name="Idieresis" horiz-adv-x="258" d="M82 688H178V0H82V688ZM-19 897H71V794H-19V897ZM189 897H278V794H189V897Z" />
<glyph unicode="&#xd0;" glyph-name="Eth" horiz-adv-x="645" d="M85 300H22V392H85V694H326Q426 694 484 657T567 547T592 358Q592 171 530 86T326 0H85V300ZM326 91Q412 91 452 153T493 357Q493 444 477 497T425 577T326 603H180V392H329V300H180V91H326Z" />
<glyph unicode="&#xd1;" glyph-name="Ntilde" horiz-adv-x="681" d="M600 688V0H432L194 604H178V0H82V688H253L486 84H504V688H600ZM397 789T334 815Q270 841 258 841Q236 841 196 806L182 794L162 863Q182 887 210 905T261 923Q284 923 347 897Q410 871 419
871Q439 871 479 905L492 916L513 847Q493 822 468 806T419 789Q397 789 334 815Z" />
<glyph unicode="&#xd2;" glyph-name="Ograve" horiz-adv-x="658" d="M226 -11T166 26T80 139T53 341Q53 465 79 543T166 660T329 699Q431 699 491 661T578 544T605 340Q605 215 579 139T493 26T329 -11Q226 -11 166 26ZM399 74T437 100T490 184T506 340Q506 439
490 498T436 586T329 615Q261 615 223 587T168 499T152 341Q152 244 167 187T221 102T329 74Q399 74 437 100ZM190 853L220 935L448 833L421 768L190 853Z" />
<glyph unicode="&#xd3;" glyph-name="Oacute" horiz-adv-x="658" d="M226 -11T166 26T80 139T53 341Q53 465 79 543T166 660T329 699Q431 699 491 661T578 544T605 340Q605 215 579 139T493 26T329 -11Q226 -11 166 26ZM399 74T437 100T490 184T506 340Q506 439
490 498T436 586T329 615Q261 615 223 587T168 499T152 341Q152 244 167 187T221 102T329 74Q399 74 437 100ZM189 833L416 935L446 853L215 768L189 833Z" />
<glyph unicode="&#xd4;" glyph-name="Ocircumflex" horiz-adv-x="658" d="M226 -11T166 26T80 139T53 341Q53 465 79 543T166 660T329 699Q431 699 491 661T578 544T605 340Q605 215 579 139T493 26T329 -11Q226 -11 166 26ZM399 74T437 100T490 184T506 340Q506
439 490 498T436 586T329 615Q261 615 223 587T168 499T152 341Q152 244 167 187T221 102T329 74Q399 74 437 100ZM289 922H370L504 783H402L330 856L257 783H155L289 922Z" />
<glyph unicode="&#xd5;" glyph-name="Otilde" horiz-adv-x="658" d="M226 -11T166 26T80 139T53 341Q53 465 79 543T166 660T329 699Q431 699 491 661T578 544T605 340Q605 215 579 139T493 26T329 -11Q226 -11 166 26ZM399 74T437 100T490 184T506 340Q506 439
490 498T436 586T329 615Q261 615 223 587T168 499T152 341Q152 244 167 187T221 102T329 74Q399 74 437 100ZM386 789T323 815Q259 841 247 841Q225 841 185 806L171 794L151 863Q171 887 199 905T250 923Q273 923 336 897Q399 871 408 871Q428 871 468 905L481
916L502 847Q482 822 457 806T408 789Q386 789 323 815Z" />
<glyph unicode="&#xd6;" glyph-name="Odieresis" horiz-adv-x="658" d="M226 -11T166 26T80 139T53 341Q53 465 79 543T166 660T329 699Q431 699 491 661T578 544T605 340Q605 215 579 139T493 26T329 -11Q226 -11 166 26ZM399 74T437 100T490 184T506 340Q506
439 490 498T436 586T329 615Q261 615 223 587T168 499T152 341Q152 244 167 187T221 102T329 74Q399 74 437 100ZM181 897H271V794H181V897ZM389 897H478V794H389V897Z" />
<glyph unicode="&#xd7;" glyph-name="multiply" horiz-adv-x="560" d="M315 253L466 102L406 42L255 193L104 42L44 102L195 253L44 404L104 464L255 313L406 464L466 404L315 253Z" />
<glyph unicode="&#xd8;" glyph-name="Oslash" horiz-adv-x="658" d="M89 -86L148 39Q98 78 76 151T53 341Q53 465 79 543T166 660T329 699Q399 699 447 681L505 802L576 773L515 641Q605 563 605 341Q605 215 579 139T493 26T329 -11Q266 -11 216 4L159 -119L89
-86ZM410 600Q377 615 329 615Q260 615 222 587T168 499T152 338Q152 190 192 135L410 600ZM399 74T437 100T490 184T506 340Q506 481 469 543L254 84Q281 74 329 74Q399 74 437 100Z" />
<glyph unicode="&#xd9;" glyph-name="Ugrave" horiz-adv-x="647" d="M198 -11T137 43T76 216V688H172V214Q172 74 321 74Q399 74 437 108T476 214V688H571V216Q571 98 510 44T323 -11Q198 -11 137 43ZM190 853L220 935L448 833L421 768L190 853Z" />
<glyph unicode="&#xda;" glyph-name="Uacute" horiz-adv-x="647" d="M198 -11T137 43T76 216V688H172V214Q172 74 321 74Q399 74 437 108T476 214V688H571V216Q571 98 510 44T323 -11Q198 -11 137 43ZM192 833L419 935L449 853L218 768L192 833Z" />
<glyph unicode="&#xdb;" glyph-name="Ucircumflex" horiz-adv-x="647" d="M198 -11T137 43T76 216V688H172V214Q172 74 321 74Q399 74 437 108T476 214V688H571V216Q571 98 510 44T323 -11Q198 -11 137 43ZM283 922H364L498 783H396L324 856L251 783H149L283 922Z" />
<glyph unicode="&#xdc;" glyph-name="Udieresis" horiz-adv-x="647" d="M198 -11T137 43T76 216V688H172V214Q172 74 321 74Q399 74 437 108T476 214V688H571V216Q571 98 510 44T323 -11Q198 -11 137 43ZM176 897H266V794H176V897ZM384 897H473V794H384V897Z" />
<glyph unicode="&#xdd;" glyph-name="Yacute" horiz-adv-x="544" d="M224 286L7 688H114L272 381L429 688H537L320 286V0H224V286ZM157 833L384 935L414 853L183 768L157 833Z" />
<glyph unicode="&#xde;" glyph-name="Thorn" horiz-adv-x="598" d="M82 694H178V586H334Q450 586 506 530T562 358Q562 240 504 177T334 114H178V0H82V694ZM333 207Q465 207 465 359Q465 429 433 462T333 495H178V207H333Z" />
<glyph unicode="&#xdf;" glyph-name="germandbls" horiz-adv-x="585" d="M304 -11T237 3L215 7L218 84Q308 72 344 72Q404 72 431 93T458 154Q458 182 449 199T419 229T354 262Q289 292 265 319T240 388Q240 429 257 451T317 493Q357 510 370 526T384 576Q384
610 359 625T275 640Q212 640 187 617T162 531V0H69V538Q69 639 116 681T274 723Q383 723 432 688T481 575Q481 524 462 496T400 449Q363 433 350 424T336 398Q336 384 344 377T387 352L434 326Q502 293 528 262T554 173Q554 104 535 65T472 7T353 -11Q304 -11
237 3Z" />
<glyph unicode="&#xe0;" glyph-name="agrave" horiz-adv-x="504" d="M111 -11T74 29T37 144Q37 218 75 252T196 295L338 308V347Q338 391 319 410T263 430Q179 430 69 418L66 486Q172 511 263 511Q351 511 391 472T431 347V106Q433 86 444 76T481 61L478 -11Q435
-11 405 -2T352 28Q267 -11 182 -11Q111 -11 74 29ZM260 67T317 86L338 93V240L208 228Q169 224 151 205T132 147Q132 67 199 67Q260 67 317 86ZM115 664L145 744L373 645L349 583L115 664Z" />
<glyph unicode="&#xe1;" glyph-name="aacute" horiz-adv-x="504" d="M111 -11T74 29T37 144Q37 218 75 252T196 295L338 308V347Q338 391 319 410T263 430Q179 430 69 418L66 486Q172 511 263 511Q351 511 391 472T431 347V106Q433 86 444 76T481 61L478 -11Q435
-11 405 -2T352 28Q267 -11 182 -11Q111 -11 74 29ZM260 67T317 86L338 93V240L208 228Q169 224 151 205T132 147Q132 67 199 67Q260 67 317 86ZM111 645L339 744L369 664L135 583L111 645Z" />
<glyph unicode="&#xe2;" glyph-name="acircumflex" horiz-adv-x="504" d="M111 -11T74 29T37 144Q37 218 75 252T196 295L338 308V347Q338 391 319 410T263 430Q179 430 69 418L66 486Q172 511 263 511Q351 511 391 472T431 347V106Q433 86 444 76T481 61L478
-11Q435 -11 405 -2T352 28Q267 -11 182 -11Q111 -11 74 29ZM260 67T317 86L338 93V240L208 228Q169 224 151 205T132 147Q132 67 199 67Q260 67 317 86ZM215 732H277L402 588H312L247 669L181 588H91L215 732Z" />
<glyph unicode="&#xe3;" glyph-name="atilde" horiz-adv-x="504" d="M111 -11T74 29T37 144Q37 218 75 252T196 295L338 308V347Q338 391 319 410T263 430Q179 430 69 418L66 486Q172 511 263 511Q351 511 391 472T431 347V106Q433 86 444 76T481 61L478 -11Q435
-11 405 -2T352 28Q267 -11 182 -11Q111 -11 74 29ZM260 67T317 86L338 93V240L208 228Q169 224 151 205T132 147Q132 67 199 67Q260 67 317 86ZM278 604T230 626Q180 647 167 647Q142 647 104 619L91 610L69 666Q93 692 118 706T165 721Q184 721 236 699Q287 678
298 678Q321 678 359 706L372 715L393 658Q371 634 347 619T301 604Q278 604 230 626Z" />
<glyph unicode="&#xe4;" glyph-name="adieresis" horiz-adv-x="504" d="M111 -11T74 29T37 144Q37 218 75 252T196 295L338 308V347Q338 391 319 410T263 430Q179 430 69 418L66 486Q172 511 263 511Q351 511 391 472T431 347V106Q433 86 444 76T481 61L478 -11Q435
-11 405 -2T352 28Q267 -11 182 -11Q111 -11 74 29ZM260 67T317 86L338 93V240L208 228Q169 224 151 205T132 147Q132 67 199 67Q260 67 317 86ZM92 716H182V613H92V716ZM297 716H387V613H297V716Z" />
<glyph unicode="&#xe5;" glyph-name="aring" horiz-adv-x="504" d="M111 -11T74 29T37 144Q37 218 75 252T196 295L338 308V347Q338 391 319 410T263 430Q179 430 69 418L66 486Q172 511 263 511Q351 511 391 472T431 347V106Q433 86 444 76T481 61L478 -11Q435
-11 405 -2T352 28Q267 -11 182 -11Q111 -11 74 29ZM260 67T317 86L338 93V240L208 228Q169 224 151 205T132 147Q132 67 199 67Q260 67 317 86ZM213 535T183 566T152 644Q152 689 182 720T258 751Q302 751 333 720T364 644Q364 598 333 567T258 535Q213 535 183
566ZM280 590T295 605T310 644Q310 666 295 681T258 696Q236 696 221 681T206 644Q206 621 221 606T258 590Q280 590 295 605Z" />
<glyph unicode="&#xe6;" glyph-name="ae" horiz-adv-x="798" d="M108 -11T73 29T37 148Q37 200 55 230T111 276T215 298L338 308V344Q338 421 261 421Q200 421 102 413L71 411L68 493Q184 510 270 510Q366 510 401 448Q450 510 548 510Q653 510 704 454T756 279L750
210H431Q432 141 460 108T544 74Q614 74 708 81L737 83L739 9Q622 -11 533 -11Q441 -11 391 42L362 28Q277 -11 179 -11Q108 -11 73 29ZM663 284Q663 362 637 394T550 427Q489 427 460 393T431 284H663ZM228 70T268 79T337 100L336 234L208 225Q168 222 150 204T132
148Q132 70 193 70Q228 70 268 79Z" />
<glyph unicode="&#xe7;" glyph-name="ccedilla" horiz-adv-x="439" d="M314 -46T340 -63T366 -128Q366 -224 267 -224Q225 -224 192 -219L179 -216L183 -159Q207 -161 243 -161Q285 -161 285 -127Q285 -97 243 -97H207V-9Q121 2 84 63T47 250Q47 374 90 442T248
511Q277 511 310 508T399 493L396 419Q311 427 276 427Q223 427 194 411T154 357T142 249Q142 181 153 144T194 90T279 73L397 82L400 6Q301 -11 251 -11V-45Q314 -46 340 -63Z" />
<glyph unicode="&#xe8;" glyph-name="egrave" horiz-adv-x="507" d="M144 -11T95 48T46 237Q46 376 98 443T261 511Q465 511 465 279L459 211H140Q141 157 154 128T196 85T278 72Q309 72 348 73T418 78L446 81L448 9Q331 -11 259 -11Q144 -11 95 48ZM372 284Q372
365 347 399T261 433Q198 433 169 398T139 284H372ZM118 664L148 744L376 645L352 583L118 664Z" />
<glyph unicode="&#xe9;" glyph-name="eacute" horiz-adv-x="507" d="M144 -11T95 48T46 237Q46 376 98 443T261 511Q465 511 465 279L459 211H140Q141 157 154 128T196 85T278 72Q309 72 348 73T418 78L446 81L448 9Q331 -11 259 -11Q144 -11 95 48ZM372 284Q372
365 347 399T261 433Q198 433 169 398T139 284H372ZM132 645L360 744L390 664L156 583L132 645Z" />
<glyph unicode="&#xea;" glyph-name="ecircumflex" horiz-adv-x="507" d="M144 -11T95 48T46 237Q46 376 98 443T261 511Q465 511 465 279L459 211H140Q141 157 154 128T196 85T278 72Q309 72 348 73T418 78L446 81L448 9Q331 -11 259 -11Q144 -11 95 48ZM372
284Q372 365 347 399T261 433Q198 433 169 398T139 284H372ZM228 732H290L415 588H325L260 669L194 588H104L228 732Z" />
<glyph unicode="&#xeb;" glyph-name="edieresis" horiz-adv-x="507" d="M144 -11T95 48T46 237Q46 376 98 443T261 511Q465 511 465 279L459 211H140Q141 157 154 128T196 85T278 72Q309 72 348 73T418 78L446 81L448 9Q331 -11 259 -11Q144 -11 95 48ZM372 284Q372
365 347 399T261 433Q198 433 169 398T139 284H372ZM108 716H198V613H108V716ZM313 716H403V613H313V716Z" />
<glyph unicode="&#xec;" glyph-name="igrave" horiz-adv-x="230" d="M69 500H162V0H69V500ZM196 664L226 744L454 645L430 583L196 664Z" />
<glyph unicode="&#xed;" glyph-name="iacute" horiz-adv-x="230" d="M69 500H162V0H69V500ZM35 645L263 744L293 664L59 583L35 645Z" />
<glyph unicode="&#xee;" glyph-name="icircumflex" horiz-adv-x="230" d="M69 500H162V0H69V500ZM337 732H399L524 588H434L369 669L303 588H213L337 732Z" />
<glyph unicode="&#xef;" glyph-name="idieresis" horiz-adv-x="230" d="M69 500H162V0H69V500ZM219 716H309V613H219V716ZM424 716H514V613H424V716Z" />
<glyph unicode="&#xf0;" glyph-name="eth" horiz-adv-x="554" d="M157 -9T99 48T41 212Q41 316 96 374T253 432Q318 432 385 408L407 400Q403 461 374 507T285 586L161 504L122 560L211 620Q140 644 92 655L108 723Q216 706 292 674L391 740L431 684L362 637Q506
543 506 352Q506 223 482 144T405 28T267 -9Q157 -9 99 48ZM343 75T375 130T408 318Q329 350 261 350Q202 350 171 313T139 212Q139 146 172 111T272 75Q343 75 375 130Z" />
<glyph unicode="&#xf1;" glyph-name="ntilde" horiz-adv-x="542" d="M69 500H161V467Q204 491 239 501T313 511Q376 511 412 486T463 409T478 266V0H385V264Q385 327 378 361T350 411T290 427Q237 427 179 404L162 396V0H69V500ZM325 604T277 626Q227 647 214
647Q189 647 151 619L138 610L116 666Q140 692 165 706T212 721Q231 721 283 699Q334 678 345 678Q368 678 406 706L419 715L440 658Q418 634 394 619T348 604Q325 604 277 626Z" />
<glyph unicode="&#xf2;" glyph-name="ograve" horiz-adv-x="529" d="M148 -11T97 51T46 248Q46 385 98 448T265 511Q381 511 432 448T484 248Q484 115 433 52T265 -11Q148 -11 97 51ZM313 70T339 87T377 142T388 248Q388 319 377 358T339 413T265 430Q218 430
191 414T153 358T141 248Q141 181 152 143T190 87T265 70Q313 70 339 87ZM135 664L165 744L393 645L369 583L135 664Z" />
<glyph unicode="&#xf3;" glyph-name="oacute" horiz-adv-x="529" d="M148 -11T97 51T46 248Q46 385 98 448T265 511Q381 511 432 448T484 248Q484 115 433 52T265 -11Q148 -11 97 51ZM313 70T339 87T377 142T388 248Q388 319 377 358T339 413T265 430Q218 430
191 414T153 358T141 248Q141 181 152 143T190 87T265 70Q313 70 339 87ZM142 645L370 744L400 664L166 583L142 645Z" />
<glyph unicode="&#xf4;" glyph-name="ocircumflex" horiz-adv-x="529" d="M148 -11T97 51T46 248Q46 385 98 448T265 511Q381 511 432 448T484 248Q484 115 433 52T265 -11Q148 -11 97 51ZM313 70T339 87T377 142T388 248Q388 319 377 358T339 413T265 430Q218
430 191 414T153 358T141 248Q141 181 152 143T190 87T265 70Q313 70 339 87ZM230 732H292L417 588H327L262 669L196 588H106L230 732Z" />
<glyph unicode="&#xf5;" glyph-name="otilde" horiz-adv-x="529" d="M148 -11T97 51T46 248Q46 385 98 448T265 511Q381 511 432 448T484 248Q484 115 433 52T265 -11Q148 -11 97 51ZM313 70T339 87T377 142T388 248Q388 319 377 358T339 413T265 430Q218 430
191 414T153 358T141 248Q141 181 152 143T190 87T265 70Q313 70 339 87ZM309 604T261 626Q211 647 198 647Q173 647 135 619L122 610L100 666Q124 692 149 706T196 721Q215 721 267 699Q318 678 329 678Q352 678 390 706L403 715L424 658Q402 634 378 619T332
604Q309 604 261 626Z" />
<glyph unicode="&#xf6;" glyph-name="odieresis" horiz-adv-x="529" d="M148 -11T97 51T46 248Q46 385 98 448T265 511Q381 511 432 448T484 248Q484 115 433 52T265 -11Q148 -11 97 51ZM313 70T339 87T377 142T388 248Q388 319 377 358T339 413T265 430Q218 430
191 414T153 358T141 248Q141 181 152 143T190 87T265 70Q313 70 339 87ZM115 716H205V613H115V716ZM320 716H410V613H320V716Z" />
<glyph unicode="&#xf7;" glyph-name="divide" horiz-adv-x="560" d="M233 567H326V457H233V567ZM98 341H461V253H98V341ZM233 137H326V26H233V137Z" />
<glyph unicode="&#xf8;" glyph-name="oslash" horiz-adv-x="529" d="M91 -89L135 18Q88 45 67 102T46 254Q46 386 97 448T265 511Q294 511 333 504L375 606L435 584L392 482Q484 429 484 254Q484 114 434 52T265 -11Q227 -11 193 -3L150 -111L91 -89ZM303 426L265
430Q196 430 169 392T141 268Q141 201 147 162T174 104L303 426ZM315 70T341 87T378 144T388 256Q388 360 355 396L223 73Q238 70 265 70Q315 70 341 87Z" />
<glyph unicode="&#xf9;" glyph-name="ugrave" horiz-adv-x="538" d="M162 -11T127 13T78 91T64 239V500H157V239Q157 170 164 136T190 87T250 73Q283 73 312 81T376 104V500H469V0H376V33Q334 9 301 -1T227 -11Q162 -11 127 13ZM109 664L139 744L367 645L343 583L109
664Z" />
<glyph unicode="&#xfa;" glyph-name="uacute" horiz-adv-x="538" d="M162 -11T127 13T78 91T64 239V500H157V239Q157 170 164 136T190 87T250 73Q283 73 312 81T376 104V500H469V0H376V33Q334 9 301 -1T227 -11Q162 -11 127 13ZM147 645L375 744L405 664L171 583L147
645Z" />
<glyph unicode="&#xfb;" glyph-name="ucircumflex" horiz-adv-x="538" d="M162 -11T127 13T78 91T64 239V500H157V239Q157 170 164 136T190 87T250 73Q283 73 312 81T376 104V500H469V0H376V33Q334 9 301 -1T227 -11Q162 -11 127 13ZM221 732H283L408 588H318L253
669L187 588H97L221 732Z" />
<glyph unicode="&#xfc;" glyph-name="udieresis" horiz-adv-x="538" d="M162 -11T127 13T78 91T64 239V500H157V239Q157 170 164 136T190 87T250 73Q283 73 312 81T376 104V500H469V0H376V33Q334 9 301 -1T227 -11Q162 -11 127 13ZM124 716H214V613H124V716ZM329
716H419V613H329V716Z" />
<glyph unicode="&#xfd;" glyph-name="yacute" horiz-adv-x="488" d="M239 0H158L22 500H115L229 80H259L374 500H467L269 -218H177L239 0ZM144 645L372 744L402 664L168 583L144 645Z" />
<glyph unicode="&#xfe;" glyph-name="thorn" horiz-adv-x="532" d="M69 712H162V478Q234 511 296 511Q366 511 407 486T466 405T485 251Q485 153 463 97T392 15T258 -11L162 -3V-218H69V712ZM307 70T336 88T378 145T390 253Q390 347 367 387T286 427Q233 427 180
409L162 403V76Q221 70 252 70Q307 70 336 88Z" />
<glyph unicode="&#xff;" glyph-name="ydieresis" horiz-adv-x="488" d="M239 0H158L22 500H115L229 80H259L374 500H467L269 -218H177L239 0ZM96 716H186V613H96V716ZM301 716H391V613H301V716Z" />
<glyph unicode="&#x2013;" glyph-name="endash" horiz-adv-x="626" d="M63 308H563V227H63V308Z" />
<glyph unicode="&#x2014;" glyph-name="emdash" horiz-adv-x="1126" d="M63 308H1063V227H63V308Z" />
<glyph unicode="&#x2018;" glyph-name="quoteleft" horiz-adv-x="231" d="M117 699H189L144 471H46L117 699Z" />
<glyph unicode="&#x2019;" glyph-name="quoteright" horiz-adv-x="228" d="M122 472H49L95 699H192L122 472Z" />
<glyph unicode="&#x201a;" glyph-name="quotesinglbase" horiz-adv-x="230" d="M95 -21H71L80 26H112L95 -21Z" />
<glyph unicode="&#x201c;" glyph-name="quotedblleft" horiz-adv-x="395" d="M117 699H189L144 471H46L117 699ZM279 699H352L307 471H209L279 699Z" />
<glyph unicode="&#x201d;" glyph-name="quotedblright" horiz-adv-x="396" d="M232 472H111L156 700H303L232 472Z" />
<glyph unicode="&#x201e;" glyph-name="quotedblbase" horiz-adv-x="378" d="M84 114H156L111 -114H13L84 114ZM246 114H319L274 -114H176L246 114Z" />
<glyph unicode="&#x2022;" glyph-name="bullet" horiz-adv-x="466" d="M108 388H358V104H108V388Z" />
<glyph unicode="&#x2039;" glyph-name="guilsinglleft" horiz-adv-x="306" d="M43 211V282L243 431V336L124 248L243 149V53L43 211Z" />
<glyph unicode="&#x203a;" glyph-name="guilsinglright" horiz-adv-x="306" d="M63 152L182 251L63 339V434L263 285V214L63 56V152Z" />
</font>
</defs>
</svg>
